<?xml version="1.0" encoding="UTF-8" standalone="no"?>
<svg xmlns:xlink="http://www.w3.org/1999/xlink" height="40.0px" width="38.45px" xmlns="http://www.w3.org/2000/svg">
  <g transform="matrix(1.0, 0.0, 0.0, 1.0, 19.2, 20.0)">
    <path d="M8.35 20.0 Q3.4 20.0 -6.5 20.0 -6.55 19.95 -6.6 19.95 -6.8 19.95 -6.7 19.95 -10.1 19.65 -11.3 19.3 -11.75 19.2 -12.0 19.1 -12.4 19.05 -12.7 18.95 -13.05 18.85 -13.4 18.75 -13.75 18.65 -14.05 18.55 -14.4 18.45 -14.75 18.35 -15.1 18.2 -15.4 18.1 -15.75 17.95 -16.1 17.8 -16.4 17.7 -16.75 17.55 -16.8 17.55 -16.85 17.5 -16.9 17.45 -16.95 17.45 -17.0 17.4 -17.0 17.4 -17.05 17.35 -17.1 17.3 -17.15 17.3 -17.15 17.25 -17.2 17.2 -17.2 17.15 -17.25 17.1 -17.25 17.05 -17.25 17.0 -17.25 16.9 -17.25 16.85 -17.25 16.8 -17.25 16.8 -17.25 16.75 -17.25 16.7 -17.25 16.65 -17.25 16.65 -17.25 16.6 -17.2 16.55 -17.2 16.5 -17.2 16.5 -17.2 16.45 -17.2 16.4 -17.15 16.35 -17.15 16.35 -17.15 16.3 -17.1 16.25 -17.1 16.2 -17.05 16.2 -17.05 16.15 -17.05 16.1 -17.05 16.05 -17.0 15.85 -17.0 15.65 -16.95 15.45 -16.9 15.25 -16.9 15.05 -16.85 14.85 -16.85 14.65 -16.8 14.45 -16.8 14.25 -16.75 14.05 -16.75 13.85 -16.75 13.65 -16.7 13.45 -16.7 13.25 -16.7 13.05 -16.7 12.85 -16.7 12.3 -16.7 11.7 -16.7 11.15 -16.7 10.6 -16.7 10.0 -16.75 9.45 -16.8 8.9 -16.85 8.3 -16.9 7.75 -17.0 7.2 -17.05 6.65 -17.15 6.1 -17.25 5.5 -17.35 4.95 -17.5 4.4 -17.6 3.85 -17.55 4.0 -18.3 1.2 -18.7 -0.4 -18.85 -1.5 -18.95 -2.0 -19.0 -2.45 -19.05 -2.95 -19.1 -3.4 -19.15 -3.9 -19.2 -4.35 -19.2 -4.85 -19.2 -5.3 -19.2 -5.8 -19.2 -6.3 -19.2 -6.75 -19.15 -7.25 -19.1 -7.75 -19.05 -8.2 -18.95 -8.7 -18.85 -9.15 -18.75 -9.75 -18.55 -10.35 -18.4 -10.95 -18.2 -11.55 -18.0 -12.1 -17.75 -12.65 -17.5 -13.2 -17.2 -13.7 -16.9 -14.25 -16.55 -14.75 -16.2 -15.2 -15.85 -15.7 -15.45 -16.15 -15.0 -16.6 -14.55 -17.05 -14.1 -17.45 -13.35 -18.05 -10.25 -19.9 -10.15 -19.95 -10.1 -19.95 -10.0 -20.0 -9.9 -20.0 -9.8 -20.0 -9.75 -20.0 -9.65 -20.0 -9.55 -19.95 -9.5 -19.95 -9.4 -19.9 -9.3 -19.85 -9.25 -19.8 -9.15 -19.75 -9.1 -19.65 -9.05 -19.6 -9.0 -19.5 -8.75 -19.1 -8.15 -18.1 -7.55 -17.0 -4.65 -13.15 -4.65 -13.1 -4.6 -13.1 -4.6 -13.05 -4.55 -13.0 -4.55 -13.0 -4.5 -12.95 -4.5 -12.95 -4.45 -12.9 -4.45 -12.9 -4.4 -12.85 -4.4 -12.8 -4.35 -12.8 -4.35 -12.75 -4.3 -12.75 -4.3 -12.7 -4.25 -12.7 -4.1 -12.55 -3.9 -12.35 -3.75 -12.2 -3.55 -12.05 -3.35 -11.9 -3.15 -11.75 -3.0 -11.6 -2.8 -11.45 -2.6 -11.35 -2.4 -11.2 -2.2 -11.1 -2.0 -10.95 -1.8 -10.85 -1.6 -10.7 -1.4 -10.6 -1.15 -10.45 -0.95 -10.35 -0.75 -10.25 -0.5 -10.1 -0.3 -10.05 -0.05 -9.95 0.15 -9.85 0.4 -9.8 0.6 -9.75 0.85 -9.65 1.05 -9.6 1.3 -9.6 1.55 -9.55 1.75 -9.5 2.0 -9.5 2.25 -9.5 2.5 -9.5 2.6 -9.5 2.7 -9.5 2.8 -9.5 2.9 -9.55 3.0 -9.55 3.1 -9.55 3.2 -9.6 3.25 -9.6 3.35 -9.65 3.45 -9.7 3.55 -9.75 3.6 -9.8 3.7 -9.85 3.8 -9.9 3.85 -9.95 3.95 -10.05 4.1 -10.2 4.25 -10.4 4.35 -10.6 4.45 -10.8 4.55 -10.95 4.65 -11.15 4.7 -11.35 4.8 -11.55 4.85 -11.75 4.85 -12.0 4.9 -12.2 4.9 -12.4 4.9 -12.65 4.9 -12.85 4.9 -13.1 4.85 -13.3 4.7 -14.15 3.95 -17.2 3.9 -17.3 3.9 -17.4 3.9 -17.45 3.9 -17.55 3.9 -17.65 3.9 -17.7 3.95 -17.8 3.95 -17.9 4.0 -17.95 4.05 -18.0 4.1 -18.1 4.15 -18.15 4.2 -18.2 4.25 -18.25 4.3 -18.3 4.4 -18.35 4.45 -18.4 4.55 -18.4 4.65 -18.45 4.7 -18.45 4.8 -18.5 4.85 -18.5 4.95 -18.5 5.05 -18.5 5.1 -18.45 5.2 -18.45 5.25 -18.4 5.35 -18.4 5.4 -18.35 5.5 -18.3 5.55 -18.25 5.6 -18.15 7.65 -16.15 12.4 -11.5 12.55 -11.35 13.85 -10.05 14.75 -9.2 15.3 -8.65 15.45 -8.55 15.55 -8.4 15.7 -8.3 15.8 -8.2 15.9 -8.05 16.05 -7.95 16.15 -7.8 16.25 -7.65 16.35 -7.55 16.45 -7.4 16.55 -7.25 16.65 -7.1 16.75 -6.95 16.8 -6.8 16.9 -6.65 16.95 -6.5 16.95 -6.45 17.0 -6.45 17.0 -6.4 17.05 -6.35 17.05 -6.35 17.05 -6.3 17.1 -6.3 17.1 -6.25 17.1 -6.2 17.15 -6.2 17.15 -6.15 17.2 -6.1 17.2 -6.1 17.2 -6.05 17.25 -6.0 17.25 -6.0 17.4 -5.7 17.55 -5.4 17.65 -5.05 17.75 -4.75 17.9 -4.45 18.0 -4.1 18.1 -3.8 18.15 -3.45 18.25 -3.15 18.3 -2.8 18.35 -2.5 18.35 -2.15 18.4 -1.85 18.4 -1.5 18.4 -1.15 18.4 -0.8 18.4 -0.55 18.35 -0.35 18.35 -0.1 18.3 0.15 18.25 0.4 18.2 0.6 18.15 0.85 18.1 1.05 18.05 1.3 17.95 1.5 17.9 1.75 17.8 1.95 17.7 2.2 17.6 2.4 17.5 2.6 17.35 2.8 17.2 3.05 16.9 3.55 16.6 4.1 16.45 4.35 16.4 4.4 16.4 4.4 16.4 4.45 16.35 4.5 16.35 4.55 16.35 4.6 16.4 4.95 16.6 6.45 16.75 7.55 16.9 8.25 17.9 12.85 18.75 15.75 19.15 17.1 19.15 17.15 19.15 17.35 19.15 17.7 19.1 17.8 19.05 17.85 19.0 17.95 18.95 18.0 18.9 18.05 18.85 18.1 18.8 18.15 18.75 18.2 18.7 18.25 18.6 18.3 18.55 18.35 18.45 18.35 18.4 18.4 18.3 18.4 18.2 18.45 18.15 18.45 18.1 18.45 18.1 18.45 17.9 18.55 17.7 18.6 17.5 18.65 17.3 18.75 17.1 18.8 16.9 18.85 16.7 18.9 16.5 18.95 16.3 19.0 16.1 19.05 15.9 19.1 15.7 19.1 15.5 19.15 15.3 19.2 15.1 19.2 14.9 19.25 10.2 19.85 8.4 19.95 8.35 19.95 8.35 20.0 L8.35 20.0 M15.25 2.4 Q15.4 2.2 15.55 2.0 15.65 1.75 15.75 1.55 15.9 1.35 15.95 1.1 16.05 0.9 16.15 0.65 16.2 0.4 16.25 0.2 16.3 -0.05 16.35 -0.3 16.35 -0.5 16.4 -0.75 16.4 -1.0 16.4 -1.25 16.4 -1.55 16.4 -1.8 16.35 -2.1 16.35 -2.35 16.3 -2.6 16.25 -2.9 16.2 -3.15 16.1 -3.4 16.05 -3.65 15.95 -3.95 15.85 -4.2 15.75 -4.45 15.65 -4.7 15.55 -4.95 15.4 -5.2 15.3 -5.45 14.65 -6.5 14.45 -6.7 14.1 -7.05 12.9 -8.2 10.6 -10.45 7.2 -13.8 7.15 -13.9 7.15 -13.9 7.1 -13.9 7.05 -13.95 7.0 -14.0 6.95 -14.0 7.0 -12.6 6.95 -11.9 6.9 -11.65 6.85 -11.4 6.8 -11.15 6.75 -10.9 6.7 -10.65 6.6 -10.45 6.5 -10.2 6.4 -10.0 6.25 -9.8 6.15 -9.6 6.0 -9.4 5.8 -9.2 5.65 -9.05 5.45 -8.9 5.2 -8.7 5.0 -8.6 4.95 -8.55 4.8 -8.5 4.7 -8.4 4.65 -8.35 4.55 -8.3 4.5 -8.25 4.4 -8.2 4.35 -8.15 4.25 -8.1 4.15 -8.1 4.1 -8.05 4.0 -8.0 3.9 -8.0 3.8 -7.95 3.75 -7.95 3.65 -7.9 3.55 -7.9 3.45 -7.85 3.35 -7.85 3.3 -7.85 3.1 -7.85 2.9 -7.85 2.7 -7.85 2.5 -7.85 2.35 -7.85 2.15 -7.85 1.95 -7.85 1.75 -7.9 1.55 -7.9 1.4 -7.95 1.2 -7.95 1.0 -8.0 0.8 -8.05 0.6 -8.1 0.45 -8.15 0.25 -8.2 0.0 -8.25 -0.25 -8.35 -0.5 -8.45 -0.75 -8.55 -0.95 -8.65 -1.2 -8.75 -1.45 -8.85 -1.7 -8.95 -1.9 -9.05 -2.15 -9.2 -2.35 -9.3 -2.6 -9.45 -2.8 -9.55 -3.05 -9.7 -3.25 -9.8 -3.5 -9.95 -3.75 -10.1 -4.0 -10.25 -4.2 -10.4 -4.45 -10.6 -4.65 -10.75 -4.9 -10.9 -5.1 -11.1 -5.35 -11.25 -5.55 -11.45 -5.75 -11.65 -5.95 -11.8 -6.15 -12.0 -6.35 -12.2 -6.55 -12.4 -6.75 -12.65 -6.95 -12.85 -7.15 -13.1 -7.4 -13.4 -7.6 -13.65 -7.8 -13.95 -8.0 -14.2 -8.2 -14.5 -8.4 -14.75 -8.6 -15.05 -8.8 -15.35 -9.0 -15.65 -9.15 -15.9 -9.35 -16.2 -9.55 -16.5 -9.7 -16.8 -9.9 -17.1 -10.05 -17.4 -10.1 -17.45 -10.1 -17.5 -10.15 -17.5 -10.2 -17.55 -10.2 -17.55 -10.25 -17.55 -10.3 -17.55 -10.3 -17.55 -10.35 -17.55 -10.4 -17.5 -10.55 -17.4 -11.1 -17.1 -11.4 -16.9 -11.7 -16.7 -12.0 -16.5 -12.3 -16.3 -12.6 -16.1 -12.85 -15.85 -13.1 -15.65 -13.35 -15.4 -13.6 -15.15 -13.85 -14.9 -14.1 -14.65 -14.35 -14.35 -14.55 -14.1 -14.75 -13.8 -14.95 -13.5 -15.15 -13.2 -15.45 -12.75 -15.7 -12.3 -15.95 -11.85 -16.15 -11.35 -16.35 -10.9 -16.5 -10.4 -16.65 -9.9 -16.8 -9.4 -16.9 -8.9 -17.0 -8.4 -17.05 -7.9 -17.1 -7.4 -17.15 -6.9 -17.2 -6.35 -17.2 -5.85 -17.2 -5.3 -17.2 -4.9 -17.2 -4.5 -17.15 -4.1 -17.15 -3.75 -17.1 -3.35 -17.05 -2.95 -17.0 -2.55 -16.95 -2.15 -16.9 -1.8 -16.8 -1.4 -16.75 -1.0 -16.65 -0.6 -16.6 -0.25 -16.5 0.15 -16.4 0.5 -16.3 0.9 -16.15 1.4 -16.05 1.85 -15.9 2.35 -15.8 2.8 -15.7 3.3 -15.6 3.75 -15.5 4.25 -15.4 4.75 -15.3 5.25 -15.2 5.7 -15.1 6.2 -15.05 6.65 -15.0 7.15 -14.9 7.65 -14.85 8.15 -14.8 8.65 -14.8 8.7 -14.8 8.75 -14.8 8.75 -14.75 8.8 -14.75 8.85 -14.75 8.85 -14.7 8.85 -14.65 8.9 -14.65 8.9 -14.6 8.9 -14.55 8.9 -14.25 9.0 -14.05 9.1 -13.9 9.15 -11.55 9.7 -8.25 10.2 -7.8 10.25 -7.45 10.3 -7.0 10.35 -6.6 10.4 -6.2 10.45 -5.75 10.5 -5.35 10.55 -4.95 10.6 -4.5 10.65 -4.1 10.65 -3.7 10.7 -3.3 10.7 -2.85 10.75 -2.45 10.75 -2.0 10.8 -1.6 10.8 -0.75 10.8 0.05 10.8 0.85 10.8 1.65 10.8 2.5 10.75 3.3 10.7 4.1 10.65 4.9 10.6 5.75 10.5 6.55 10.45 7.35 10.35 8.15 10.2 8.95 10.1 9.75 9.95 10.6 9.8 11.35 9.6 11.55 9.55 11.8 9.5 12.0 9.45 12.2 9.4 12.45 9.35 12.65 9.3 12.85 9.25 13.05 9.2 13.3 9.15 13.5 9.1 13.7 9.05 13.9 9.0 14.1 8.95 14.3 8.85 14.55 8.8 14.75 8.75 14.85 8.7 14.8 8.7 14.85 8.7 14.9 8.65 14.9 8.65 14.9 8.6 14.95 8.55 14.9 8.5 14.8 7.6 14.75 7.35 14.7 7.1 14.65 6.6 14.65 6.45 14.6 6.3 14.6 6.15 14.55 6.0 14.55 5.9 14.5 5.75 14.5 5.6 14.5 5.45 14.45 5.3 14.45 5.15 14.4 5.0 14.4 4.85 14.4 4.7 14.35 4.55 14.35 4.4 14.35 4.25 14.35 4.2 14.35 4.15 14.3 4.1 14.3 4.1 14.3 4.05 14.3 4.0 14.35 3.95 14.35 3.9 14.35 3.85 14.4 3.85 14.7 3.45 15.25 2.4 L15.25 2.4 M-11.35 11.3 Q-11.45 11.25 -11.45 11.3 -11.45 11.3 -11.55 11.45 -12.5 13.0 -12.85 13.5 -12.9 13.55 -12.9 13.6 -12.9 13.6 -12.9 13.65 -12.9 13.7 -12.9 13.7 -12.85 13.75 -12.85 13.8 -11.6 15.0 -10.7 15.65 -10.65 15.7 -10.65 15.7 -10.6 15.7 -10.6 15.7 -10.55 15.7 -10.5 15.65 -10.5 15.65 -10.45 15.6 -10.0 14.95 -9.0 13.45 -9.0 13.4 -9.0 13.35 -8.95 13.3 -9.0 13.3 -9.0 13.25 -9.05 13.2 -9.8 12.55 -11.05 11.4 -11.1 11.4 -11.1 11.35 -11.15 11.35 -11.2 11.35 -11.25 11.3 -11.25 11.3 -11.3 11.3 -11.35 11.3 L-11.35 11.3 M4.15 12.55 Q4.05 12.7 3.95 12.85 3.9 13.05 3.8 13.2 3.7 13.35 3.6 13.5 3.5 13.65 3.4 13.8 3.35 13.95 3.25 14.1 3.15 14.3 3.05 14.45 2.95 14.6 2.85 14.75 2.75 14.9 2.65 15.05 2.6 15.1 2.6 15.15 2.6 15.2 2.65 15.2 2.65 15.25 2.7 15.25 3.65 15.9 5.15 16.7 5.2 16.7 5.25 16.75 5.25 16.75 5.3 16.75 5.3 16.7 5.35 16.7 5.35 16.7 5.4 16.65 5.7 16.2 6.7 14.65 6.7 14.6 6.75 14.55 6.75 14.55 6.75 14.5 6.7 14.5 6.7 14.45 6.7 14.45 6.65 14.4 5.15 13.35 4.15 12.55 L4.15 12.55 M-1.8 13.4 Q-1.85 13.4 -1.9 13.5 -2.15 13.9 -2.6 14.6 -3.1 15.4 -3.3 15.75 -3.35 15.8 -3.35 15.85 -3.35 15.85 -3.35 15.9 -3.35 15.9 -3.3 15.95 -3.3 15.95 -3.25 16.0 -2.25 16.6 -0.85 17.35 -0.8 17.4 -0.75 17.4 -0.7 17.4 -0.7 17.4 -0.65 17.4 -0.6 17.35 -0.6 17.3 -0.55 17.3 -0.1 16.7 0.75 15.45 0.8 15.4 0.8 15.35 0.8 15.35 0.8 15.3 0.8 15.25 0.75 15.25 0.75 15.25 0.7 15.2 0.55 15.1 0.4 15.0 0.25 14.9 0.1 14.8 -0.05 14.7 -0.2 14.55 -0.35 14.45 -0.5 14.35 -0.65 14.25 -0.8 14.15 -0.95 14.05 -1.1 13.9 -1.25 13.8 -1.4 13.7 -1.55 13.6 -1.7 13.45 -1.75 13.45 -1.8 13.4 L-1.8 13.4 M12.4 13.9 Q12.4 13.85 12.4 13.8 12.4 13.85 12.3 13.8 11.9 13.45 10.1 11.9 10.05 11.85 10.05 11.85 10.0 11.8 9.95 11.8 9.95 11.85 9.95 11.85 9.9 11.9 9.9 11.95 8.85 13.75 8.55 14.25 8.55 14.3 8.55 14.35 8.55 14.4 8.55 14.4 8.55 14.45 8.65 14.5 10.0 15.4 10.9 15.95 10.95 16.0 11.0 16.0 11.05 16.0 11.05 16.0 11.1 16.0 11.15 15.95 11.15 15.9 11.2 15.85 11.4 15.5 12.35 14.0 12.35 14.0 12.4 13.9 L12.4 13.9 M-9.4 16.55 Q-7.7 17.55 -7.1 17.85 -7.05 17.85 -7.05 17.9 -7.0 17.9 -6.95 17.9 -6.95 17.9 -6.9 17.9 -6.9 17.9 -6.85 17.9 -6.8 17.9 -6.8 17.9 -6.75 17.9 -6.75 17.85 -6.7 17.85 -6.7 17.85 -6.65 17.8 -6.65 17.8 -6.55 17.7 -6.45 17.6 -6.35 17.5 -6.3 17.4 -6.2 17.3 -6.1 17.2 -6.0 17.1 -5.95 17.0 -5.85 16.9 -5.75 16.8 -5.7 16.7 -5.6 16.6 -5.5 16.5 -5.45 16.4 -5.35 16.3 -5.3 16.2 -5.25 16.15 -5.25 16.1 -5.2 16.05 -5.25 16.05 -5.25 16.0 -5.25 15.95 -5.3 15.95 -5.35 15.9 -5.5 15.8 -5.65 15.7 -5.8 15.6 -5.95 15.5 -6.1 15.4 -6.25 15.3 -6.4 15.2 -6.55 15.1 -6.7 15.0 -6.85 14.9 -7.0 14.8 -7.15 14.7 -7.3 14.6 -7.4 14.5 -7.55 14.4 -7.7 14.3 -7.75 14.25 -7.8 14.25 -7.8 14.25 -7.85 14.25 -7.85 14.25 -7.9 14.25 -7.9 14.3 -7.95 14.35 -8.75 15.65 -9.4 16.55 L-9.4 16.55 M-2.85 12.35 Q-2.85 12.35 -2.9 12.35 -2.9 12.35 -2.9 12.35 -4.95 12.2 -6.4 12.0 -6.5 12.0 -6.55 12.05 -6.55 12.05 -6.6 12.15 -7.0 12.8 -7.2 13.1 -7.2 13.15 -7.25 13.2 -7.25 13.25 -7.25 13.25 -7.2 13.3 -7.2 13.35 -7.15 13.35 -7.1 13.4 -6.4 13.9 -4.7 15.05 -4.65 15.1 -4.6 15.1 -4.6 15.1 -4.55 15.05 -4.5 15.05 -4.5 15.0 -4.35 14.75 -4.05 14.25 -3.75 13.8 -3.6 13.55 -3.4 13.25 -2.85 12.35 L-2.85 12.35 M7.75 18.0 Q7.95 18.0 8.3 17.95 8.7 17.95 8.9 17.9 9.1 17.9 9.2 17.9 9.35 17.85 9.45 17.85 9.55 17.85 9.6 17.85 9.7 17.8 9.75 17.75 9.8 17.75 9.9 17.65 9.95 17.6 10.0 17.55 10.05 17.45 10.15 17.35 10.2 17.3 10.35 17.1 10.35 17.1 10.35 17.05 10.4 17.0 10.4 17.0 10.45 16.95 10.45 16.95 10.4 16.9 10.4 16.85 10.35 16.85 10.3 16.8 9.4 16.3 8.1 15.4 8.05 15.35 8.0 15.35 7.95 15.35 7.95 15.35 7.9 15.35 7.85 15.4 7.85 15.4 7.8 15.45 7.65 15.75 6.95 16.8 6.95 16.85 6.9 16.9 6.85 16.9 6.85 16.95 6.8 17.0 6.75 17.05 6.75 17.1 6.7 17.15 6.65 17.2 6.65 17.2 6.65 17.25 6.6 17.3 6.6 17.35 6.6 17.4 6.6 17.4 6.6 17.45 6.6 17.5 7.25 17.85 7.25 17.85 7.3 17.9 7.35 17.9 7.35 17.9 7.4 17.95 7.4 17.95 7.45 17.95 7.5 18.0 7.5 18.0 7.55 18.0 7.55 18.0 7.6 18.0 7.65 18.0 7.65 18.0 7.7 18.0 7.75 18.0 L7.75 18.0 M13.8 17.4 Q14.85 17.2 15.2 17.15 15.3 17.15 15.35 17.15 15.4 17.15 15.5 17.1 15.55 17.1 15.6 17.05 15.65 17.05 15.7 17.0 15.75 17.0 15.8 16.95 15.85 16.9 15.9 16.85 15.95 16.8 15.95 16.75 16.0 16.7 16.05 16.65 16.1 16.6 16.1 16.55 16.1 16.55 16.05 16.5 16.05 16.5 16.0 16.45 15.85 16.35 15.7 16.25 15.55 16.15 15.4 16.05 15.25 15.95 15.1 15.85 14.95 15.75 14.8 15.65 14.65 15.55 14.55 15.45 14.4 15.35 14.25 15.25 14.1 15.15 13.95 15.05 13.8 14.95 13.65 14.85 13.6 14.8 13.6 14.8 13.55 14.8 13.55 14.8 13.5 14.8 13.45 14.85 13.1 15.5 12.4 16.6 12.35 16.65 12.35 16.65 12.35 16.7 12.35 16.7 12.4 16.75 12.45 16.8 12.55 16.85 13.0 17.05 13.3 17.25 13.55 17.35 13.6 17.35 13.65 17.35 13.65 17.4 13.7 17.4 13.75 17.4 13.8 17.4 L13.8 17.4 M4.65 17.65 Q3.1 16.8 2.15 16.15 2.1 16.1 2.05 16.1 2.05 16.1 2.0 16.1 2.0 16.15 1.95 16.15 1.95 16.2 1.9 16.25 1.3 17.2 0.75 17.9 0.6 18.1 0.65 18.1 0.65 18.15 0.7 18.2 0.75 18.2 0.8 18.2 0.85 18.2 0.9 18.2 3.1 18.2 4.05 18.15 4.1 18.15 4.15 18.15 4.2 18.15 4.25 18.1 4.3 18.05 4.65 17.65 L4.65 17.65 M-15.05 16.3 Q-15.0 16.3 -14.9 16.35 -14.75 16.4 -14.75 16.4 -14.0 16.7 -12.25 17.15 -12.2 17.15 -12.15 17.2 -12.1 17.2 -12.05 17.2 -12.0 17.2 -11.95 17.2 -11.95 17.2 -11.9 17.15 -11.85 17.15 -11.8 17.15 -11.8 17.1 -11.75 17.1 -11.7 17.05 -11.7 17.05 -11.65 17.0 -11.6 16.95 -11.4 16.75 -11.35 16.65 -11.3 16.55 -11.4 16.5 -11.45 16.4 -11.65 16.25 -12.45 15.65 -13.55 14.55 -14.05 15.25 -15.05 16.3 L-15.05 16.3 M15.5 11.2 Q15.4 11.35 15.35 11.55 15.25 11.7 15.2 11.85 15.1 12.0 15.0 12.15 14.95 12.3 14.85 12.5 14.75 12.65 14.7 12.8 14.6 12.95 14.5 13.1 14.45 13.25 14.35 13.4 14.25 13.55 14.2 13.7 14.15 13.75 14.15 13.75 14.15 13.8 14.15 13.85 14.15 13.85 14.2 13.85 14.2 13.9 14.25 13.9 14.9 14.45 15.35 14.75 15.5 14.85 15.95 15.15 16.3 15.4 16.55 15.55 16.55 15.5 16.6 15.5 16.5 15.25 16.45 14.95 16.35 14.7 16.3 14.45 16.25 14.2 16.15 13.9 16.1 13.65 16.0 13.4 15.95 13.1 15.9 12.85 15.85 12.6 15.75 12.3 15.7 12.05 15.65 11.75 15.6 11.5 15.5 11.2 L15.5 11.2 M-1.25 12.35 Q-1.25 12.45 -1.2 12.5 -0.2 13.3 1.3 14.3 1.35 14.35 1.35 14.35 1.4 14.35 1.4 14.35 1.45 14.35 1.45 14.3 1.45 14.3 1.5 14.25 1.7 13.95 2.05 13.35 2.4 12.75 2.6 12.45 2.6 12.35 2.6 12.35 1.9 12.4 0.7 12.35 -0.75 12.35 -1.25 12.35 L-1.25 12.35 M11.1 11.3 Q11.1 11.3 11.1 11.35 11.15 11.35 11.15 11.35 11.35 11.5 12.9 12.85 12.95 12.9 12.95 12.9 13.0 12.9 13.0 12.9 13.05 12.9 13.05 12.85 13.1 12.8 13.1 12.8 13.3 12.45 13.95 11.15 14.0 11.1 14.0 11.1 14.0 11.05 14.05 11.0 14.05 10.95 14.1 10.95 14.1 10.9 14.1 10.85 14.15 10.85 14.15 10.8 14.2 10.75 14.2 10.7 14.2 10.65 14.2 10.65 14.25 10.6 14.25 10.55 14.05 10.6 13.85 10.65 13.65 10.7 13.45 10.75 13.25 10.8 13.05 10.85 12.9 10.9 12.7 10.95 12.5 11.0 12.3 11.05 12.1 11.1 11.9 11.1 11.7 11.15 11.5 11.2 11.3 11.25 11.1 11.3 L11.1 11.3 M5.35 12.15 Q6.1 12.7 7.25 13.55 7.35 13.6 7.4 13.5 7.7 12.95 8.4 11.8 6.4 12.05 5.35 12.15 L5.35 12.15 M-1.55 18.2 Q-1.8 18.05 -3.85 16.85 -4.0 16.8 -3.95 16.8 -4.0 16.8 -4.05 16.85 -4.35 17.3 -5.0 18.05 -2.75 18.2 -1.55 18.2 L-1.55 18.2 M-12.9 11.0 Q-13.0 11.0 -13.75 10.8 -14.25 10.7 -14.55 10.6 -14.6 10.55 -14.65 10.55 -14.65 10.6 -14.7 10.6 -14.7 10.65 -14.7 10.7 -14.7 10.95 -14.7 11.7 -14.7 11.7 -14.7 11.8 -14.65 11.85 -14.65 11.85 -14.6 11.9 -14.55 11.95 -14.55 12.0 -14.5 12.05 -14.45 12.1 -14.4 12.15 -14.35 12.2 -14.3 12.25 -14.3 12.3 -14.25 12.35 -14.2 12.4 -14.15 12.45 -14.1 12.5 -14.05 12.55 -14.0 12.6 -13.95 12.65 -13.6 12.1 -12.9 11.0 L-12.9 11.0 M-8.0 11.8 Q-8.4 11.75 -9.2 11.65 -9.1 11.7 -9.0 11.85 -8.9 11.95 -8.8 12.0 -8.4 12.35 -8.35 12.35 -8.3 12.35 -8.3 12.3 -8.25 12.25 -8.2 12.2 -8.2 12.15 -8.15 12.1 -8.1 12.0 -8.1 11.95 -8.05 11.9 -8.0 11.8 L-8.0 11.8 M-9.8 17.6 Q-9.8 17.6 -9.85 17.55 -9.85 17.55 -9.9 17.5 -9.9 17.5 -9.95 17.5 -9.95 17.45 -10.0 17.45 -10.0 17.4 -10.05 17.4 -10.05 17.4 -10.1 17.4 -10.15 17.45 -10.15 17.45 -10.2 17.5 -10.25 17.55 -9.85 17.6 -9.8 17.6 L-9.8 17.6" fill="#020202" fill-rule="evenodd" stroke="none"/>
    <path d="M6.85 0.6 Q6.85 0.55 6.9 0.5 6.9 0.45 6.95 0.4 7.0 0.4 7.0 0.35 7.05 0.35 7.1 0.3 7.15 0.3 7.2 0.25 7.25 0.25 7.3 0.2 7.25 0.2 7.35 0.2 7.4 0.15 7.45 0.15 7.6 0.05 7.8 0.0 7.95 -0.05 8.15 -0.05 8.3 -0.1 8.5 -0.1 8.65 -0.1 8.8 -0.05 8.95 -0.05 9.15 0.0 9.3 0.05 9.45 0.1 9.6 0.2 9.8 0.25 9.95 0.35 10.1 0.45 10.35 0.6 10.6 0.75 10.85 0.9 11.1 1.0 11.4 1.15 11.65 1.25 11.9 1.4 12.15 1.5 12.45 1.6 12.7 1.75 12.95 1.85 13.25 1.95 13.5 2.0 13.8 2.1 14.05 2.2 14.35 2.25 14.4 2.25 14.45 2.3 14.55 2.3 14.6 2.3 14.65 2.3 14.7 2.35 14.75 2.35 14.8 2.35 14.85 2.35 14.9 2.35 15.0 2.4 15.05 2.4 15.1 2.4 15.15 2.4 15.2 2.4 15.25 2.4 14.7 3.4 14.4 3.85 14.35 3.9 14.35 3.9 14.35 3.95 14.3 4.0 14.3 4.05 14.3 4.1 14.3 4.1 14.3 4.15 14.3 4.2 14.35 4.25 14.4 4.95 14.65 6.6 14.65 6.85 14.75 7.35 13.85 7.8 13.35 8.0 13.25 8.05 13.1 8.05 13.0 8.1 12.85 8.15 12.75 8.2 12.65 8.2 12.5 8.25 12.4 8.25 12.25 8.3 12.15 8.3 12.0 8.35 11.9 8.35 11.75 8.4 11.65 8.4 11.5 8.4 11.4 8.4 9.85 8.55 7.45 8.55 3.7 8.5 3.55 8.5 3.25 8.5 2.75 8.5 2.0 8.5 1.9 8.5 0.95 8.55 -1.85 8.45 -2.15 8.45 -2.4 8.45 -2.7 8.4 -2.95 8.4 -3.25 8.4 -3.55 8.4 -3.8 8.35 -4.1 8.35 -4.35 8.3 -4.65 8.25 -4.95 8.25 -5.2 8.2 -5.5 8.15 -5.75 8.1 -6.05 8.05 -6.3 7.95 -6.5 7.9 -6.65 7.85 -6.8 7.8 -7.0 7.75 -7.15 7.7 -7.35 7.65 -7.5 7.55 -7.65 7.5 -7.8 7.4 -8.0 7.35 -8.15 7.25 -8.3 7.15 -8.45 7.05 -8.6 6.95 -8.75 6.85 -8.9 6.75 -9.0 6.7 -9.05 6.65 -9.1 6.6 -9.15 6.5 -9.2 6.45 -9.25 6.4 -9.3 6.3 -9.35 6.25 -9.4 6.15 -9.4 6.1 -9.4 6.0 -9.45 5.95 -9.45 5.85 -9.45 5.75 -9.45 5.65 -9.45 5.6 -9.45 5.5 -9.4 5.4 -9.4 5.3 -9.35 5.25 -9.3 5.15 -9.25 5.1 -9.2 5.0 -9.15 4.95 -9.1 4.9 -9.05 4.85 -8.95 4.75 -8.9 4.75 -8.8 4.7 -8.7 4.65 -8.65 4.6 -8.55 4.55 -8.45 4.55 -8.4 4.5 -8.3 4.5 -8.2 4.45 -8.15 4.45 -8.05 4.45 -7.95 4.45 -7.85 4.45 -7.8 4.4 -7.7 4.4 -7.6 4.4 -7.5 4.4 -7.45 4.4 -7.35 4.4 -7.15 4.4 -7.15 4.4 -6.9 4.4 -6.6 4.35 -6.35 4.35 -6.05 4.3 -5.8 4.3 -5.55 4.25 -5.25 4.2 -5.0 4.2 -4.75 4.15 -4.45 4.1 -4.2 4.05 -3.95 3.95 -3.65 3.9 -3.4 3.85 -3.15 3.75 -2.85 3.7 -2.85 3.7 -2.7 3.7 -2.75 3.8 -2.75 3.9 -2.8 3.95 -2.8 4.05 -2.8 4.15 -2.8 4.2 -2.8 4.25 -2.75 4.35 -2.7 4.4 -2.65 4.45 -2.6 4.5 -2.55 4.55 -2.45 4.55 -2.4 4.6 -2.3 4.6 -2.2 4.6 -2.05 4.6 -1.85 4.65 -1.7 4.65 -1.55 4.65 -1.35 4.65 -1.2 4.65 -1.05 4.65 -0.9 4.65 -0.7 4.7 -0.55 4.7 -0.4 4.65 -0.25 4.65 -0.1 4.65 0.1 4.65 0.25 4.65 0.4 4.6 0.85 4.55 1.3 4.45 1.75 4.4 2.2 4.25 2.65 4.15 3.05 4.0 3.45 3.85 3.85 3.65 4.25 3.5 4.65 3.25 5.05 3.05 5.4 2.8 5.8 2.55 6.15 2.25 6.5 2.0 6.85 1.7 6.95 1.6 7.0 1.55 7.05 1.45 7.1 1.4 7.15 1.35 7.2 1.25 7.2 1.2 7.2 1.1 7.2 1.05 7.2 1.0 7.15 0.9 7.1 0.85 7.05 0.8 7.0 0.7 6.9 0.65 6.85 0.6 L6.85 0.6" fill="#000000" fill-opacity="0.1882353" fill-rule="evenodd" stroke="none"/>
    <path d="M-11.35 11.3 Q-11.3 11.3 -11.25 11.3 -11.25 11.3 -11.2 11.35 -11.15 11.35 -11.15 11.35 -11.1 11.4 -11.05 11.4 -10.3 12.1 -9.05 13.2 -9.0 13.25 -9.0 13.3 -8.95 13.3 -9.0 13.35 -9.0 13.4 -9.0 13.45 -9.1 13.6 -9.7 14.55 -10.15 15.2 -10.45 15.6 -10.5 15.65 -10.5 15.65 -10.55 15.7 -10.6 15.7 -10.6 15.7 -10.65 15.7 -10.65 15.65 -10.7 15.65 -10.85 15.55 -11.0 15.45 -11.1 15.3 -11.25 15.2 -11.4 15.1 -11.55 15.0 -11.65 14.85 -11.8 14.75 -11.95 14.65 -12.05 14.5 -12.2 14.4 -12.3 14.25 -12.45 14.15 -12.6 14.05 -12.7 13.9 -12.85 13.8 -12.9 13.75 -12.9 13.7 -12.9 13.7 -12.9 13.65 -12.9 13.65 -12.9 13.6 -12.9 13.55 -12.85 13.5 -12.7 13.25 -11.55 11.45 -11.45 11.3 -11.45 11.35 -11.4 11.25 -11.35 11.3 L-11.35 11.3" fill="#000000" fill-opacity="0.21960784" fill-rule="evenodd" stroke="none"/>
    <path d="M4.15 12.55 Q5.1 13.25 6.65 14.4 6.7 14.45 6.7 14.45 6.75 14.5 6.75 14.55 6.75 14.6 6.7 14.65 6.55 14.85 6.05 15.65 5.65 16.25 5.4 16.65 5.35 16.7 5.35 16.7 5.3 16.75 5.25 16.75 5.2 16.75 5.15 16.7 3.6 15.85 2.7 15.25 2.65 15.25 2.65 15.2 2.65 15.2 2.6 15.15 2.6 15.15 2.6 15.1 2.65 15.1 2.65 15.05 2.75 14.9 2.85 14.75 2.95 14.6 3.05 14.45 3.15 14.3 3.25 14.15 3.3 13.95 3.4 13.8 3.5 13.65 3.6 13.5 3.7 13.35 3.8 13.2 3.9 13.0 3.95 12.85 4.05 12.7 4.15 12.55 L4.15 12.55" fill="#000000" fill-opacity="0.21960784" fill-rule="evenodd" stroke="none"/>
    <path d="M-1.8 13.4 Q-1.75 13.45 -1.7 13.45 -1.55 13.55 -1.4 13.7 -1.25 13.8 -1.1 13.9 -0.95 14.0 -0.8 14.15 -0.65 14.25 -0.5 14.35 -0.35 14.45 -0.2 14.55 -0.05 14.65 0.1 14.8 0.25 14.9 0.4 15.0 0.55 15.1 0.7 15.2 0.75 15.25 0.75 15.25 0.8 15.25 0.8 15.3 0.8 15.35 0.8 15.35 0.8 15.4 0.75 15.45 -0.1 16.75 -0.55 17.3 -0.6 17.35 -0.6 17.35 -0.65 17.4 -0.7 17.4 -0.7 17.4 -0.75 17.4 -0.8 17.35 -0.85 17.35 -2.55 16.4 -3.25 16.0 -3.35 15.9 -3.3 15.95 -3.35 15.9 -3.35 15.9 -3.35 15.85 -3.35 15.85 -3.35 15.8 -3.3 15.75 -2.65 14.65 -1.9 13.5 -1.9 13.45 -1.8 13.4 L-1.8 13.4" fill="#000000" fill-opacity="0.21960784" fill-rule="evenodd" stroke="none"/>
    <path d="M12.4 13.9 Q12.4 13.9 12.4 13.95 12.35 14.0 12.35 14.0 12.15 14.3 11.75 14.95 11.4 15.55 11.2 15.85 11.15 15.9 11.15 15.95 11.1 15.95 11.05 16.0 11.05 16.0 11.0 16.0 10.95 15.95 10.9 15.95 9.9 15.3 8.65 14.5 8.6 14.45 8.55 14.45 8.55 14.4 8.55 14.4 8.55 14.35 8.55 14.3 8.55 14.3 8.55 14.25 9.15 13.35 9.9 11.95 9.9 11.9 9.95 11.85 9.95 11.85 10.0 11.8 10.0 11.8 10.05 11.85 10.05 11.85 10.1 11.9 11.05 12.7 12.3 13.8 12.35 13.8 12.4 13.85 12.4 13.85 12.4 13.9 L12.4 13.9" fill="#000000" fill-opacity="0.21960784" fill-rule="evenodd" stroke="none"/>
    <path d="M-9.4 16.55 Q-8.75 15.65 -7.95 14.35 -7.9 14.3 -7.9 14.3 -7.85 14.25 -7.85 14.25 -7.8 14.25 -7.8 14.25 -7.75 14.25 -7.7 14.3 -7.55 14.4 -7.4 14.5 -7.25 14.6 -7.15 14.7 -7.0 14.8 -6.85 14.9 -6.7 15.0 -6.55 15.15 -6.4 15.2 -6.25 15.35 -6.1 15.4 -5.95 15.5 -5.8 15.6 -5.65 15.7 -5.5 15.8 -5.35 15.9 -5.3 15.95 -5.25 15.95 -5.25 16.0 -5.25 16.05 -5.2 16.05 -5.25 16.1 -5.25 16.15 -5.3 16.2 -5.35 16.3 -5.45 16.4 -5.55 16.5 -5.6 16.6 -5.7 16.7 -5.75 16.8 -5.85 16.9 -5.95 17.0 -6.0 17.1 -6.1 17.2 -6.2 17.3 -6.3 17.4 -6.35 17.5 -6.45 17.6 -6.55 17.7 -6.65 17.8 -6.65 17.85 -6.7 17.85 -6.7 17.85 -6.75 17.9 -6.75 17.9 -6.8 17.9 -6.8 17.9 -6.85 17.9 -6.9 17.9 -6.9 17.9 -6.95 17.9 -6.95 17.9 -7.0 17.9 -7.05 17.9 -7.05 17.9 -7.1 17.85 -7.75 17.55 -9.4 16.55 L-9.4 16.55" fill="#000000" fill-opacity="0.21960784" fill-rule="evenodd" stroke="none"/>
    <path d="M-2.85 12.35 Q-2.95 12.5 -3.25 12.95 -3.45 13.35 -3.6 13.55 -3.75 13.85 -4.05 14.25 -4.4 14.85 -4.5 15.0 -4.5 15.05 -4.55 15.05 -4.55 15.1 -4.6 15.1 -4.6 15.1 -4.65 15.1 -4.7 15.1 -4.7 15.05 -6.3 14.0 -7.1 13.4 -7.15 13.35 -7.2 13.35 -7.2 13.3 -7.2 13.25 -7.25 13.25 -7.2 13.2 -7.2 13.15 -7.2 13.1 -7.0 12.85 -6.6 12.15 -6.55 12.1 -6.55 12.1 -6.55 12.05 -6.5 12.05 -6.45 12.0 -6.4 12.0 -6.2 12.05 -5.95 12.05 -5.75 12.1 -5.55 12.1 -5.3 12.15 -5.1 12.15 -4.85 12.2 -4.65 12.2 -4.45 12.25 -4.2 12.25 -4.0 12.25 -3.8 12.3 -3.55 12.3 -3.35 12.3 -3.1 12.3 -2.9 12.35 -2.9 12.35 -2.85 12.35 L-2.85 12.35" fill="#000000" fill-opacity="0.21960784" fill-rule="evenodd" stroke="none"/>
    <path d="M7.75 18.0 Q7.7 18.0 7.7 18.0 7.65 18.0 7.6 18.0 7.55 18.0 7.55 18.0 7.5 18.0 7.5 18.0 7.45 17.95 7.4 17.95 7.4 17.95 7.35 17.9 7.35 17.9 7.3 17.9 7.25 17.85 7.25 17.85 7.2 17.85 7.15 17.8 7.1 17.8 7.05 17.75 6.95 17.7 6.95 17.7 6.9 17.7 6.85 17.65 6.8 17.65 6.75 17.6 6.7 17.6 6.7 17.55 6.65 17.55 6.65 17.5 6.6 17.5 6.6 17.45 6.6 17.4 6.6 17.4 6.6 17.35 6.6 17.3 6.65 17.25 6.65 17.2 6.7 17.2 6.7 17.15 6.75 17.1 6.75 17.05 7.35 16.4 6.85 17.0 6.9 16.95 6.9 16.9 6.95 16.85 6.95 16.8 7.45 16.1 7.8 15.45 7.85 15.4 7.85 15.4 7.9 15.35 7.95 15.35 7.95 15.35 8.0 15.35 8.05 15.35 8.1 15.4 8.25 15.5 8.35 15.6 8.5 15.7 8.65 15.75 8.8 15.85 8.9 15.95 9.05 16.05 9.2 16.15 9.35 16.2 9.45 16.3 9.6 16.4 9.75 16.5 9.9 16.55 10.05 16.65 10.15 16.75 10.3 16.8 10.35 16.85 10.4 16.85 10.4 16.9 10.45 16.95 10.45 16.95 10.45 17.0 10.4 17.05 10.35 17.05 10.35 17.1 10.35 17.1 10.2 17.3 10.15 17.35 10.1 17.45 10.0 17.55 9.95 17.6 9.9 17.65 9.8 17.75 9.75 17.75 9.7 17.8 9.6 17.85 9.5 17.85 9.4 17.85 9.35 17.9 9.2 17.9 9.1 17.9 8.9 17.9 8.45 17.95 7.75 18.0 L7.75 18.0" fill="#000000" fill-opacity="0.21960784" fill-rule="evenodd" stroke="none"/>
    <path d="M13.8 17.4 Q13.75 17.4 13.7 17.4 13.65 17.4 13.6 17.35 13.55 17.35 13.55 17.35 13.2 17.2 12.45 16.8 12.4 16.75 12.4 16.75 12.35 16.7 12.35 16.7 12.35 16.65 12.35 16.65 12.35 16.6 12.4 16.6 12.45 16.5 13.45 14.85 13.5 14.8 13.5 14.8 13.55 14.75 13.6 14.8 13.6 14.8 13.65 14.85 13.8 14.95 13.95 15.05 14.1 15.15 14.25 15.25 14.35 15.35 14.5 15.45 14.65 15.55 14.8 15.65 14.95 15.75 15.1 15.85 15.25 15.95 15.4 16.05 15.55 16.15 15.7 16.25 15.85 16.35 16.0 16.45 16.05 16.5 16.05 16.5 16.1 16.5 16.1 16.55 16.05 16.6 16.05 16.65 16.0 16.7 16.0 16.75 15.95 16.8 15.9 16.85 15.85 16.9 15.8 16.95 15.75 17.0 15.7 17.0 15.65 17.05 15.6 17.1 15.55 17.1 15.5 17.1 15.45 17.15 15.35 17.15 15.3 17.15 15.2 17.15 14.95 17.2 14.5 17.25 14.0 17.35 13.8 17.4 L13.8 17.4" fill="#000000" fill-opacity="0.21960784" fill-rule="evenodd" stroke="none"/>
    <path d="M4.65 17.65 Q4.4 17.9 4.25 18.1 4.2 18.15 4.15 18.15 4.15 18.15 4.05 18.15 3.4 18.2 0.9 18.2 0.85 18.2 0.8 18.2 0.8 18.2 0.75 18.2 0.7 18.2 0.7 18.15 0.65 18.15 0.65 18.1 0.6 18.05 0.65 18.0 0.9 17.75 0.75 17.9 0.85 17.8 0.9 17.7 1.0 17.6 1.05 17.5 1.15 17.4 1.2 17.3 1.3 17.2 1.35 17.05 1.4 16.95 1.5 16.85 1.55 16.75 1.65 16.65 1.7 16.55 1.75 16.45 1.85 16.35 1.9 16.25 1.95 16.2 1.95 16.15 2.0 16.15 2.0 16.15 2.05 16.1 2.05 16.1 2.1 16.15 2.15 16.15 2.3 16.25 2.45 16.35 2.6 16.45 2.75 16.55 2.9 16.65 3.05 16.75 3.2 16.85 3.35 16.95 3.55 17.0 3.7 17.1 3.85 17.2 4.0 17.3 4.15 17.35 4.35 17.45 4.5 17.55 4.65 17.65 L4.65 17.65" fill="#000000" fill-opacity="0.21960784" fill-rule="evenodd" stroke="none"/>
    <path d="M-15.05 16.3 Q-14.1 15.3 -13.55 14.55 -13.45 14.65 -13.35 14.8 -13.2 14.9 -13.1 15.0 -13.0 15.1 -12.85 15.2 -12.75 15.35 -12.65 15.45 -12.5 15.55 -12.4 15.65 -12.3 15.75 -12.15 15.85 -12.05 15.95 -11.9 16.05 -11.8 16.15 -11.65 16.25 -11.45 16.45 -11.4 16.5 -11.3 16.6 -11.35 16.7 -11.4 16.75 -11.6 16.95 -11.65 17.0 -11.65 17.05 -11.7 17.05 -11.75 17.1 -11.8 17.1 -11.8 17.15 -11.85 17.15 -11.9 17.15 -11.9 17.2 -11.95 17.2 -12.0 17.2 -12.05 17.2 -12.1 17.2 -12.15 17.2 -12.2 17.2 -12.25 17.15 -13.9 16.75 -14.75 16.4 -14.85 16.4 -15.05 16.3 L-15.05 16.3" fill="#000000" fill-opacity="0.21960784" fill-rule="evenodd" stroke="none"/>
    <path d="M15.5 11.2 Q16.1 13.75 16.6 15.5 16.6 15.5 16.55 15.55 16.35 15.4 15.95 15.15 15.55 14.85 15.35 14.75 14.25 13.9 14.25 13.9 14.2 13.9 14.2 13.85 14.15 13.85 14.15 13.8 14.15 13.8 14.15 13.75 14.15 13.75 14.2 13.7 14.95 12.3 15.5 11.2 L15.5 11.2" fill="#000000" fill-opacity="0.21960784" fill-rule="evenodd" stroke="none"/>
    <path d="M-1.25 12.35 Q2.3 12.35 2.6 12.35 2.65 12.35 2.6 12.4 2.65 12.4 2.6 12.45 2.55 12.55 2.45 12.7 2.4 12.8 2.3 12.9 2.25 13.0 2.2 13.15 2.1 13.25 2.05 13.35 1.95 13.45 1.9 13.6 1.85 13.7 1.75 13.8 1.7 13.9 1.65 14.05 1.55 14.15 1.5 14.25 1.45 14.3 1.45 14.35 1.4 14.35 1.4 14.35 1.35 14.35 1.3 14.3 1.15 14.2 1.0 14.1 0.8 14.0 0.65 13.85 0.5 13.75 0.35 13.65 0.2 13.55 0.05 13.45 -0.15 13.3 -0.3 13.2 -0.45 13.1 -0.6 12.95 -0.75 12.85 -0.9 12.75 -1.05 12.6 -1.2 12.5 -1.25 12.45 -1.25 12.45 -1.25 12.4 -1.25 12.35 L-1.25 12.35" fill="#000000" fill-opacity="0.21960784" fill-rule="evenodd" stroke="none"/>
    <path d="M11.1 11.3 Q11.3 11.25 11.5 11.2 11.7 11.15 11.9 11.15 12.1 11.1 12.3 11.05 12.5 11.0 12.7 10.95 12.9 10.9 13.05 10.85 13.25 10.8 13.45 10.75 13.65 10.7 13.85 10.65 14.05 10.6 14.25 10.55 14.2 10.75 13.95 11.15 13.7 11.7 13.1 12.8 13.1 12.8 13.05 12.85 13.05 12.9 13.0 12.9 13.0 12.9 12.95 12.9 12.95 12.9 12.9 12.85 12.05 12.15 11.15 11.35 11.15 11.35 11.1 11.3 L11.1 11.3" fill="#000000" fill-opacity="0.21960784" fill-rule="evenodd" stroke="none"/>
    <path d="M5.35 12.15 Q5.55 12.15 5.75 12.1 5.95 12.1 6.15 12.05 6.3 12.05 6.5 12.0 6.7 12.0 6.9 12.0 7.05 11.95 7.25 11.95 7.45 11.9 7.65 11.9 7.8 11.85 8.0 11.85 8.2 11.8 8.4 11.8 8.0 12.45 7.4 13.5 7.35 13.6 7.25 13.55 6.65 13.1 5.35 12.15 L5.35 12.15" fill="#000000" fill-opacity="0.21960784" fill-rule="evenodd" stroke="none"/>
    <path d="M-1.55 18.2 Q-2.7 18.2 -5.0 18.05 -4.95 17.95 -4.85 17.9 -4.8 17.8 -4.75 17.75 -4.65 17.65 -4.6 17.6 -4.55 17.5 -4.5 17.45 -4.45 17.35 -4.35 17.3 -4.3 17.2 -4.25 17.15 -4.2 17.05 -4.15 17.0 -4.1 16.9 -4.05 16.85 -4.0 16.8 -3.95 16.8 -3.95 16.8 -3.85 16.85 -3.15 17.3 -1.55 18.2 L-1.55 18.2" fill="#000000" fill-opacity="0.21960784" fill-rule="evenodd" stroke="none"/>
    <path d="M-12.9 11.0 Q-13.25 11.55 -13.95 12.65 -14.0 12.6 -14.05 12.55 -14.1 12.5 -14.15 12.45 -14.2 12.4 -14.25 12.35 -14.3 12.3 -14.3 12.25 -14.35 12.2 -14.4 12.15 -14.45 12.1 -14.5 12.05 -14.5 12.0 -14.55 11.95 -14.6 11.9 -14.65 11.85 -14.65 11.85 -14.65 11.8 -14.7 11.75 -14.7 11.7 -14.7 11.65 -14.7 11.55 -14.7 11.5 -14.7 11.45 -14.7 11.4 -14.7 11.35 -14.7 11.25 -14.7 11.2 -14.7 11.15 -14.7 11.1 -14.7 11.0 -14.7 10.95 -14.7 10.9 -14.7 10.85 -14.7 10.75 -14.7 10.7 -14.7 10.65 -14.7 10.6 -14.65 10.55 -14.65 10.55 -14.6 10.55 -14.55 10.6 -14.5 10.6 -12.9 11.0 L-12.9 11.0" fill="#000000" fill-opacity="0.21960784" fill-rule="evenodd" stroke="none"/>
    <path d="M-8.0 11.8 Q-8.35 12.35 -8.35 12.35 -8.35 12.35 -8.8 12.0 -8.85 11.95 -9.2 11.65 -8.7 11.7 -8.0 11.8 L-8.0 11.8" fill="#000000" fill-opacity="0.21960784" fill-rule="evenodd" stroke="none"/>
    <path d="M-9.8 17.6 Q-9.85 17.6 -10.25 17.55 -10.2 17.5 -10.2 17.45 -10.15 17.45 -10.1 17.4 -10.1 17.4 -10.05 17.4 -10.0 17.4 -10.0 17.45 -9.95 17.45 -9.95 17.45 -9.95 17.5 -9.9 17.5 -9.85 17.55 -9.85 17.55 -9.8 17.55 -9.8 17.6 L-9.8 17.6" fill="#000000" fill-opacity="0.21960784" fill-rule="evenodd" stroke="none"/>
    <path d="M6.85 0.6 Q6.95 0.65 7.0 0.75 7.05 0.8 7.1 0.85 7.15 0.9 7.2 1.0 7.2 1.05 7.2 1.1 7.2 1.2 7.2 1.25 7.15 1.35 7.15 1.4 7.1 1.45 7.0 1.55 6.95 1.6 6.85 1.7 6.5 2.0 6.15 2.3 5.8 2.55 5.4 2.8 5.05 3.05 4.65 3.25 4.25 3.5 3.85 3.65 3.45 3.85 3.05 4.0 2.65 4.15 2.2 4.3 1.75 4.4 1.3 4.5 0.85 4.55 0.4 4.6 0.25 4.6 0.1 4.65 -0.1 4.65 -0.25 4.65 -0.4 4.65 -0.55 4.65 -0.7 4.65 -0.9 4.65 -1.05 4.65 -1.2 4.65 -1.35 4.65 -1.55 4.65 -1.7 4.65 -1.85 4.65 -2.0 4.65 -2.2 4.6 -2.3 4.6 -2.4 4.55 -2.5 4.55 -2.55 4.5 -2.6 4.5 -2.65 4.45 -2.7 4.4 -2.75 4.3 -2.8 4.25 -2.8 4.2 -2.8 4.1 -2.8 4.05 -2.8 3.95 -2.8 3.85 -2.75 3.75 -2.7 3.7 -2.65 3.65 -2.65 3.65 -2.6 3.6 -2.6 3.6 -2.55 3.55 -2.5 3.55 -2.5 3.5 -2.45 3.5 -2.4 3.5 -2.35 3.5 -2.3 3.45 -2.3 3.45 -2.25 3.45 -2.2 3.45 -2.15 3.45 -2.1 3.45 -1.8 3.5 -1.5 3.5 -1.25 3.5 -0.95 3.5 -0.65 3.5 -0.35 3.5 -0.05 3.5 0.2 3.45 0.5 3.45 0.8 3.4 1.05 3.35 1.35 3.3 1.65 3.25 1.9 3.15 2.2 3.1 2.5 3.0 2.75 2.9 3.0 2.8 3.25 2.7 3.5 2.6 3.7 2.5 3.95 2.35 4.15 2.25 4.4 2.1 4.6 1.95 4.85 1.8 5.05 1.65 5.25 1.5 5.45 1.35 5.7 1.2 5.9 1.0 6.1 0.85 6.15 0.8 6.2 0.8 6.2 0.75 6.25 0.7 6.3 0.7 6.35 0.65 6.4 0.65 6.45 0.65 6.5 0.6 6.55 0.6 6.55 0.6 6.6 0.6 6.65 0.55 6.7 0.55 6.8 0.6 6.85 0.6 L6.85 0.6" fill="#020202" fill-rule="evenodd" stroke="none"/>
  </g>
</svg>
