<?xml version="1.0" encoding="UTF-8" standalone="no"?>
<svg xmlns:xlink="http://www.w3.org/1999/xlink" height="200.0px" width="200.0px" xmlns="http://www.w3.org/2000/svg">
  <g transform="matrix(1.0, 0.0, 0.0, 1.0, 100.0, 100.0)">
    <path d="M-12.7 -24.55 Q-12.9 -24.45 -13.05 -24.35 -13.25 -24.25 -13.45 -24.1 -13.65 -24.0 -13.85 -23.85 -14.1 -23.7 -14.35 -23.5 -14.6 -23.3 -14.8 -23.1 -15.05 -22.9 -15.3 -22.7 -15.55 -22.45 -15.8 -22.2 -16.05 -21.9 -16.3 -21.6 -16.65 -21.15 -16.95 -20.7 -17.2 -20.25 -17.45 -19.8 -17.65 -19.4 -17.85 -18.95 -18.0 -18.5 -18.15 -18.1 -18.25 -17.7 -18.35 -17.3 -18.45 -16.95 -18.5 -16.6 -18.55 -16.3 -18.6 -16.0 -18.6 -15.8 -18.65 -15.5 -18.8 -14.15 -18.25 -10.05 -18.25 -9.9 -17.25 -4.15 -16.7 -0.55 -16.45 1.8 -16.45 1.8 -16.5 1.85 -16.55 1.9 -16.6 1.9 -16.65 1.95 -16.7 2.0 -16.75 2.05 -16.85 2.1 -16.9 2.2 -16.95 2.3 -17.05 2.35 -17.1 2.45 -17.15 2.6 -17.2 2.7 -17.25 2.85 -17.25 2.95 -17.25 3.05 -17.3 3.2 -17.3 3.3 -17.25 3.4 -17.25 3.5 -17.25 3.6 -17.2 3.7 -17.2 3.8 -17.15 3.85 -17.1 3.95 -17.1 4.0 -17.05 4.05 -17.05 4.1 -17.0 4.15 -17.0 4.15 -16.95 4.2 -17.0 4.25 -17.05 4.3 -17.1 4.35 -17.15 4.4 -17.2 4.5 -17.25 4.55 -17.3 4.65 -17.35 4.75 -17.4 4.85 -17.45 4.95 -17.55 5.05 -17.55 5.2 -17.6 5.3 -17.65 5.45 -17.7 5.6 -17.75 5.75 -17.8 5.9 -17.8 6.05 -17.8 6.2 -17.8 6.3 -17.8 6.45 -17.8 6.6 -17.8 6.7 -17.75 6.8 -17.75 6.95 -17.7 7.05 -17.7 7.15 -17.65 7.2 -17.65 7.3 -17.6 7.35 -17.6 7.45 -17.6 7.5 -17.7 7.9 -17.95 8.65 -18.2 9.45 -18.35 9.85 -18.6 10.6 -18.8 11.4 -19.05 12.15 -19.25 12.9 -19.45 13.7 -19.65 14.45 -19.85 15.2 -20.05 15.95 -20.25 16.7 -20.45 17.45 -20.6 18.15 -20.8 18.9 -20.95 19.65 -21.1 20.35 -21.25 21.1 -21.4 21.8 -21.15 21.9 -20.9 22.05 -20.65 22.15 -20.4 22.3 -20.15 22.4 -19.85 22.55 -19.55 22.65 -19.25 22.8 -18.95 22.9 -18.65 23.05 -18.3 23.15 -18.0 23.3 -17.65 23.45 -17.3 23.55 -16.95 23.7 -16.6 23.8 -16.35 23.9 -16.15 23.95 -15.8 24.05 -15.5 24.15 -15.05 24.3 -14.65 24.4 -14.15 24.55 -13.65 24.65 -13.1 24.8 -12.5 24.95 -11.85 25.1 -11.2 25.25 -10.5 25.35 -9.8 25.5 -9.0 25.6 -8.25 25.7 -7.5 25.8 -6.75 25.9 -6.0 25.95 -5.3 26.0 -4.65 26.05 -3.95 26.1 -3.3 26.1 -2.65 26.1 -2.0 26.1 -1.35 26.1 -0.75 26.1 -0.1 26.05 0.45 26.05 1.15 26.0 1.55 26.0 2.4 25.95 3.45 25.9 3.95 25.85 4.75 25.85 5.35 25.8 6.05 25.75 6.6 25.7 7.2 25.65 7.75 25.6 8.3 25.55 8.85 25.45 9.35 25.35 9.85 25.25 10.4 25.15 10.9 25.05 11.45 24.9 12.0 24.7 12.6 24.55 13.15 24.35 13.7 24.15 14.2 23.95 14.7 23.75 15.2 23.5 15.7 23.3 16.15 23.05 16.55 22.85 17.0 22.6 17.4 22.4 17.75 22.2 18.15 22.0 18.5 21.75 18.8 21.55 19.1 21.35 19.1 21.25 19.1 21.15 19.1 21.0 19.15 20.9 19.15 20.75 19.15 20.65 19.15 20.5 19.15 20.35 19.15 20.2 19.15 20.05 19.15 19.9 19.15 19.75 19.15 19.6 19.15 19.4 19.1 19.25 19.1 19.05 19.05 18.75 19.05 18.45 19.0 18.2 18.95 17.95 18.9 17.7 18.85 17.45 18.8 17.2 18.7 16.95 18.65 16.7 18.55 16.45 18.45 16.2 18.35 15.85 18.1 15.2 18.15 15.2 18.0 14.8 17.9 14.45 17.7 13.85 17.55 13.3 17.4 12.85 17.25 12.4 17.15 12.05 17.05 11.65 17.1 11.75 16.9 11.0 16.8 10.65 16.75 10.45 16.65 10.15 16.55 9.85 16.45 9.55 16.35 9.2 16.2 8.85 16.05 8.4 15.95 8.2 15.85 7.95 15.8 7.75 15.7 7.55 15.6 7.35 15.5 7.15 15.45 6.95 15.35 6.75 15.25 6.6 15.2 6.45 15.1 6.25 15.0 6.1 14.95 5.95 14.9 5.85 14.8 5.7 14.75 5.55 14.6 3.4 14.35 -0.95 14.25 -1.75 14.0 -3.3 14.05 -3.4 14.15 -3.45 14.2 -3.55 14.3 -3.65 14.35 -3.75 14.45 -3.9 14.55 -4.0 14.6 -4.1 14.7 -4.25 14.75 -4.4 14.85 -4.5 14.9 -4.65 15.0 -4.8 15.05 -4.95 15.15 -5.15 15.2 -5.3 15.3 -5.5 15.35 -5.7 15.4 -5.95 15.45 -6.15 15.5 -6.4 15.55 -6.65 15.6 -6.95 15.6 -7.2 15.6 -7.5 15.6 -7.85 15.55 -8.15 15.55 -8.5 15.5 -8.9 15.4 -9.3 15.3 -9.7 15.2 -10.15 15.05 -10.65 14.9 -11.05 14.8 -11.5 14.6 -11.85 14.45 -12.2 14.25 -12.55 14.05 -12.85 13.8 -13.3 13.65 -13.5 13.25 -14.1 12.9 -14.65 12.65 -15.05 12.25 -15.65 11.9 -16.25 11.45 -17.0 11.0 -17.8 10.7 -18.35 10.4 -18.9 10.2 -19.3 9.9 -19.85 9.6 -20.4 9.5 -20.6 9.3 -20.95 9.1 -21.2 8.95 -21.5 8.8 -21.75 8.6 -22.0 8.45 -22.2 8.25 -22.4 8.05 -22.6 7.8 -22.8 7.55 -23.0 7.25 -23.2 6.95 -23.4 6.65 -23.55 6.35 -23.7 6.05 -23.85 5.75 -23.95 5.45 -24.05 5.15 -24.1 4.9 -24.2 4.6 -24.25 4.35 -24.3 4.05 -24.35 3.8 -24.4 3.55 -24.4 3.35 -24.45 3.1 -24.45 2.6 -25.95 1.55 -28.9 1.35 -28.85 1.15 -28.8 0.95 -28.75 0.75 -28.7 0.5 -28.65 0.3 -28.6 0.1 -28.55 -0.15 -28.5 -0.4 -28.5 -0.6 -28.45 -0.85 -28.4 -1.1 -28.4 -1.35 -28.35 -1.6 -28.35 -1.85 -28.3 -2.1 -28.3 -2.75 -28.25 -3.45 -28.25 -4.1 -28.25 -4.75 -28.3 -5.35 -28.35 -5.95 -28.4 -6.5 -28.5 -7.05 -28.6 -7.6 -28.7 -8.1 -28.85 -8.6 -28.95 -9.05 -29.1 -9.5 -29.25 -9.95 -29.4 -10.3 -29.5 -10.7 -29.65 -11.35 -27.95 -12.7 -24.55 L-12.7 -24.55" fill="#3c3c3c" fill-rule="evenodd" stroke="none"/>
  </g>
</svg>
