<?xml version="1.0" encoding="UTF-8" standalone="no"?>
<svg xmlns:xlink="http://www.w3.org/1999/xlink" height="51.55px" width="42.55px" xmlns="http://www.w3.org/2000/svg">
  <g transform="matrix(1.0, 0.0, 0.0, 1.0, 21.25, 25.75)">
    <path d="M1.7 26.15 Q1.25 26.15 0.2 26.15 -0.75 26.15 -1.3 26.15 -3.9 26.0 -4.9 25.95 -5.2 25.95 -5.5 25.9 -5.8 25.9 -6.1 25.85 -6.45 25.85 -6.75 25.8 -7.05 25.75 -7.35 25.75 -7.65 25.7 -7.95 25.7 -8.25 25.65 -8.55 25.6 -8.85 25.55 -9.15 25.55 -9.45 25.5 -9.75 25.45 -10.05 25.4 -10.35 25.35 -10.65 25.3 -10.9 25.25 -11.2 25.2 -11.5 25.15 -11.8 25.1 -12.05 25.05 -12.35 25.0 -12.65 24.95 -12.9 24.9 -13.2 24.85 -13.5 24.75 -13.75 24.7 -14.05 24.65 -14.35 24.55 -14.7 24.45 -15.05 24.35 -15.4 24.25 -15.75 24.15 -16.1 24.05 -16.45 23.9 -16.8 23.8 -17.1 23.65 -17.45 23.5 -17.8 23.4 -18.1 23.2 -18.45 23.05 -18.75 22.9 -19.1 22.7 -19.4 22.55 -19.7 22.35 -19.8 22.3 -19.85 22.25 -19.95 22.2 -20.05 22.1 -20.1 22.05 -20.2 22.0 -20.3 21.95 -20.35 21.9 -20.45 21.8 -20.5 21.75 -20.6 21.7 -20.7 21.65 -20.75 21.55 -20.85 21.5 -20.9 21.45 -21.0 21.35 -21.05 21.3 -21.1 21.25 -21.1 21.2 -21.15 21.15 -21.2 21.1 -21.2 21.05 -21.2 21.0 -21.25 20.95 -21.25 20.9 -21.25 20.85 -21.25 20.8 -21.25 20.75 -21.25 20.7 -21.25 20.6 -21.2 20.55 -21.2 20.5 -21.2 20.45 -20.1 17.35 -19.9 16.7 -19.0 14.2 -18.4 12.4 -18.0 11.2 -17.95 11.15 -17.95 11.1 -17.95 11.0 -17.95 10.95 -17.95 10.9 -17.95 10.85 -17.95 10.8 -18.0 10.75 -18.0 10.65 -18.0 10.6 -18.05 10.55 -18.05 10.5 -18.05 10.55 -18.1 10.4 -18.15 10.35 -18.15 10.3 -18.2 10.2 -18.25 10.05 -18.3 9.95 -18.3 9.8 -18.35 9.7 -18.35 9.55 -18.35 9.45 -18.35 9.35 -18.35 9.2 -18.35 9.1 -18.3 8.95 -18.3 8.85 -18.3 8.75 -18.25 8.6 -18.2 8.5 -18.15 8.4 -18.15 8.35 -18.1 8.3 -18.1 8.25 -18.05 8.2 -18.05 8.1 -18.05 8.05 -18.0 8.0 -18.0 7.95 -17.95 7.9 -17.95 7.85 -17.9 7.8 -17.9 7.75 -17.85 7.7 -17.85 7.65 -17.8 7.6 -17.8 7.55 -17.75 7.5 -17.75 7.45 -17.75 7.45 -17.75 7.4 -17.75 7.25 -17.75 7.3 -17.75 6.65 -17.85 5.2 -17.95 3.85 -17.95 3.15 -17.95 3.05 -17.95 2.9 -17.95 2.8 -17.95 2.7 -17.95 2.55 -17.95 2.45 -17.95 2.35 -17.95 2.25 -18.0 2.1 -18.0 2.0 -18.0 1.9 -18.05 1.8 -18.05 1.7 -18.05 1.6 -18.1 1.45 -18.1 1.35 -18.15 1.25 -18.15 1.15 -18.2 1.05 -18.2 0.95 -18.2 0.85 -18.25 0.75 -18.25 0.65 -18.25 0.55 -18.25 0.6 -18.25 0.35 -18.3 0.25 -18.3 0.15 -18.3 0.05 -18.35 -0.05 -18.35 -0.15 -18.35 -0.25 -18.5 -0.85 -18.8 -2.25 -18.85 -2.5 -19.05 -3.1 -19.2 -3.65 -19.25 -3.9 -19.5 -4.85 -19.65 -5.7 -19.75 -6.15 -19.95 -7.35 -20.0 -7.7 -20.05 -7.95 -20.1 -8.3 -20.15 -8.6 -20.2 -8.9 -20.25 -9.2 -20.25 -9.5 -20.3 -9.8 -20.35 -10.15 -20.35 -10.45 -20.35 -10.75 -20.35 -11.05 -20.4 -11.35 -20.35 -11.65 -20.35 -12.0 -20.35 -12.3 -20.35 -12.45 -20.35 -12.55 -20.3 -12.7 -20.3 -12.85 -20.3 -12.95 -20.3 -13.1 -20.25 -13.25 -20.25 -13.35 -20.25 -13.5 -20.2 -13.6 -20.2 -13.75 -20.15 -13.9 -20.15 -14.0 -20.1 -14.15 -20.1 -14.3 -20.05 -14.4 -20.0 -14.7 -19.8 -15.55 -19.65 -16.25 -19.55 -16.65 -19.5 -16.85 -19.4 -17.1 -19.35 -17.3 -19.25 -17.5 -19.15 -17.7 -19.05 -17.9 -18.95 -18.1 -18.85 -18.3 -18.75 -18.5 -18.6 -18.7 -18.5 -18.9 -18.4 -19.1 -18.25 -19.25 -18.1 -19.45 -18.0 -19.65 -17.85 -19.85 -17.65 -20.1 -17.5 -20.35 -17.3 -20.6 -17.1 -20.8 -16.9 -21.05 -16.7 -21.3 -16.45 -21.5 -16.25 -21.75 -16.05 -21.95 -15.8 -22.15 -15.6 -22.4 -15.35 -22.55 -15.1 -22.8 -14.85 -22.95 -14.6 -23.15 -14.35 -23.3 -14.2 -23.4 -14.05 -23.5 -13.9 -23.6 -13.8 -23.65 -13.65 -23.75 -13.5 -23.85 -13.35 -23.9 -13.2 -24.0 -13.05 -24.05 -12.9 -24.1 -12.75 -24.2 -12.6 -24.25 -12.45 -24.3 -12.3 -24.35 -12.1 -24.4 -11.95 -24.4 -11.8 -24.45 -11.65 -24.45 -11.55 -24.45 -11.4 -24.45 -11.25 -24.45 -11.15 -24.45 -11.0 -24.4 -10.9 -24.4 -10.75 -24.35 -10.65 -24.3 -10.5 -24.25 -10.4 -24.2 -10.3 -24.15 -10.15 -24.05 -10.05 -24.0 -9.95 -23.9 -9.85 -23.8 -9.75 -23.75 -9.65 -23.7 -9.55 -23.6 -9.45 -23.55 -9.35 -23.5 -9.25 -23.45 -9.1 -23.35 -9.0 -23.3 -8.9 -23.25 -8.8 -23.2 -8.7 -23.15 -8.6 -23.1 -8.45 -23.05 -8.35 -23.0 -8.25 -23.0 -8.05 -22.9 -7.85 -22.85 -7.65 -22.75 -7.45 -22.7 -7.25 -22.6 -7.1 -22.55 -6.9 -22.45 -6.7 -22.4 -6.5 -22.35 -6.3 -22.3 -6.1 -22.2 -5.9 -22.15 -5.7 -22.1 -5.5 -22.05 -5.3 -22.0 -5.1 -22.0 -4.7 -21.95 -4.35 -21.9 -4.0 -21.85 -3.6 -21.85 -3.25 -21.8 -2.85 -21.85 -2.5 -21.85 -2.15 -21.9 -1.75 -21.9 -1.4 -22.0 -1.05 -22.05 -0.7 -22.15 -0.35 -22.25 0.0 -22.35 0.35 -22.5 0.7 -22.65 0.85 -22.7 0.95 -22.75 1.1 -22.85 1.25 -22.9 1.4 -22.95 1.5 -23.0 1.65 -23.1 1.75 -23.15 1.85 -23.25 2.0 -23.3 2.1 -23.4 2.2 -23.5 2.35 -23.6 2.45 -23.7 2.55 -23.8 2.65 -23.9 2.75 -24.05 2.95 -24.55 2.95 -24.6 3.0 -24.7 3.05 -24.85 3.1 -24.9 3.1 -25.0 3.15 -25.05 3.2 -25.15 3.25 -25.25 3.3 -25.3 3.35 -25.4 3.4 -25.45 3.5 -25.55 3.55 -25.6 3.65 -25.65 3.75 -25.7 3.85 -25.75 3.9 -25.75 3.95 -25.75 4.0 -25.75 4.0 -25.75 4.05 -25.75 4.1 -25.75 4.45 -25.65 5.3 -25.15 5.4 -25.1 5.55 -25.0 5.65 -24.95 5.75 -24.9 5.9 -24.8 6.0 -24.75 6.1 -24.7 6.25 -24.6 6.35 -24.55 6.45 -24.5 6.6 -24.4 6.7 -24.35 6.8 -24.25 6.9 -24.2 7.05 -24.1 7.15 -24.05 8.2 -23.35 8.9 -22.8 9.05 -22.7 9.2 -22.6 9.3 -22.5 9.45 -22.4 9.6 -22.3 9.7 -22.15 9.85 -22.05 10.0 -21.95 10.1 -21.85 10.25 -21.75 10.35 -21.6 10.5 -21.5 10.6 -21.4 10.75 -21.3 10.85 -21.15 11.0 -21.05 11.15 -20.9 11.3 -20.75 11.45 -20.55 11.65 -20.4 11.8 -20.25 11.95 -20.05 12.1 -19.9 12.25 -19.75 12.4 -19.6 12.55 -19.4 12.7 -19.25 12.85 -19.05 13.0 -18.9 13.15 -18.75 13.3 -18.55 13.45 -18.4 14.9 -16.7 15.7 -15.55 15.85 -15.4 15.95 -15.25 16.05 -15.05 16.15 -14.9 16.3 -14.75 16.4 -14.6 16.5 -14.4 16.6 -14.25 16.7 -14.1 16.8 -13.9 16.9 -13.75 17.0 -13.6 17.1 -13.4 17.2 -13.25 17.3 -13.05 17.35 -12.9 17.45 -12.7 17.55 -12.5 17.6 -12.25 17.7 -12.05 17.8 -11.85 17.85 -11.65 17.9 -11.4 17.95 -11.2 18.05 -11.0 18.1 -10.75 18.15 -10.55 18.15 -10.35 18.2 -10.1 18.2 -9.9 18.25 -9.65 18.25 -9.45 18.25 -9.35 18.25 -9.2 18.25 -9.1 18.25 -9.0 18.25 -8.9 18.25 -8.8 18.2 -8.65 18.2 -8.55 18.2 -8.45 18.15 -8.35 18.15 -8.25 18.1 -8.15 18.1 -8.0 18.05 -7.9 18.05 -7.8 18.0 -7.7 18.0 -7.6 17.95 -7.55 17.95 -7.45 17.9 -7.35 17.9 -7.3 17.85 -7.2 17.85 -7.1 17.8 -7.05 17.8 -6.95 17.75 -6.85 17.7 -6.8 17.7 -6.7 17.65 -6.6 17.6 -6.55 17.6 -6.45 17.55 -6.35 17.5 -6.25 17.45 -6.15 17.4 -6.05 17.35 -5.9 17.3 -5.8 17.25 -5.7 17.2 -5.6 17.15 -5.5 17.1 -5.4 17.0 -5.3 16.95 -5.2 16.9 -5.1 16.85 -5.0 16.75 -4.85 16.7 -4.75 16.65 -4.65 16.55 -4.55 16.35 -4.3 16.15 -4.05 16.05 -3.9 16.0 -3.85 16.0 -3.85 16.0 -3.8 16.0 -3.75 15.95 -3.7 15.95 -3.65 16.0 -1.85 16.0 -0.3 16.0 0.2 16.05 1.3 16.15 2.35 16.15 2.9 16.15 2.95 16.15 3.0 16.15 3.05 16.15 3.05 16.2 3.1 16.2 3.15 16.2 3.2 16.25 3.2 16.3 3.25 16.3 3.3 16.35 3.35 16.45 3.4 16.5 3.45 16.55 3.5 16.6 3.6 16.65 3.65 16.7 3.7 16.75 3.75 16.8 3.8 16.85 3.9 16.9 3.95 16.95 4.05 17.0 4.1 17.0 4.15 17.05 4.25 17.1 4.35 17.15 4.4 17.15 4.5 17.15 4.55 17.15 4.6 17.2 4.7 17.2 4.75 17.2 4.8 17.15 4.9 17.15 4.95 17.15 5.0 17.15 5.1 17.1 5.15 17.1 5.2 17.05 5.25 17.05 5.35 17.0 5.4 16.95 5.45 16.95 5.55 16.9 5.6 16.9 5.7 16.85 5.75 16.85 5.85 16.85 5.9 16.85 6.0 16.85 6.05 16.85 6.15 16.85 6.2 16.9 6.3 16.9 6.35 16.9 6.4 16.95 6.5 16.95 6.55 17.15 7.25 17.45 8.3 17.9 10.05 17.9 10.05 18.0 10.35 18.35 11.6 18.6 12.55 18.8 13.1 18.9 13.4 18.95 13.7 19.05 13.95 19.15 14.25 19.25 14.55 19.35 14.85 19.4 15.1 19.5 15.4 19.6 15.7 19.7 15.95 19.8 16.25 19.9 16.55 20.0 16.8 20.1 17.1 20.2 17.4 20.3 17.65 20.65 18.7 21.2 20.2 21.25 20.3 21.25 20.35 21.3 20.45 21.3 20.5 21.3 20.55 21.3 20.65 21.3 20.7 21.3 20.75 21.25 20.85 21.25 20.9 21.2 20.95 21.15 21.0 21.15 21.1 21.1 21.15 21.05 21.2 20.95 21.25 20.75 21.45 20.5 21.65 20.3 21.8 20.05 22.0 19.85 22.15 19.6 22.3 19.4 22.45 19.15 22.6 18.9 22.75 18.65 22.9 18.4 23.05 18.15 23.2 17.9 23.3 17.6 23.45 17.35 23.55 17.1 23.65 16.9 23.75 16.65 23.85 16.45 23.9 16.25 24.0 16.05 24.1 15.8 24.15 15.6 24.25 15.4 24.3 15.15 24.4 14.95 24.45 14.75 24.55 14.5 24.6 14.3 24.65 14.05 24.7 13.85 24.8 13.6 24.85 13.3 24.95 13.05 25.0 12.75 25.05 12.45 25.1 12.2 25.2 11.9 25.25 11.6 25.3 11.35 25.35 11.05 25.45 10.75 25.5 10.45 25.55 10.2 25.55 9.9 25.6 9.6 25.65 9.3 25.65 9.0 25.7 7.65 25.8 4.9 26.05 4.7 26.05 4.5 26.1 4.3 26.1 4.1 26.15 3.9 26.15 3.7 26.15 3.5 26.15 3.3 26.15 3.1 26.15 2.9 26.15 2.7 26.15 2.5 26.15 2.3 26.15 2.1 26.15 1.95 26.15 1.7 26.15 L1.7 26.15 M-14.95 -19.8 Q-15.0 -19.75 -15.05 -19.75 -15.05 -19.7 -15.1 -19.7 -15.15 -19.65 -15.15 -19.65 -15.2 -19.6 -15.25 -19.55 -15.25 -19.55 -15.3 -19.5 -15.3 -19.45 -15.35 -19.45 -15.35 -19.4 -15.4 -19.35 -15.4 -19.3 -15.45 -19.25 L-15.45 -19.25 Q-15.45 -19.25 -15.5 -19.25 -15.5 -19.25 -15.55 -19.2 -15.6 -19.1 -15.7 -19.0 -15.75 -18.9 -15.85 -18.8 -15.9 -18.7 -16.0 -18.6 -16.05 -18.55 -16.1 -18.45 -16.2 -18.35 -16.25 -18.2 -16.3 -18.15 -16.35 -18.0 -16.45 -17.9 -16.5 -17.8 -16.55 -17.7 -16.6 -17.6 -16.65 -17.5 -16.75 -17.35 -16.8 -17.25 -16.85 -17.15 -16.9 -17.0 -16.95 -16.9 -17.05 -16.75 -17.1 -16.65 -17.15 -16.55 -17.2 -16.4 -17.25 -16.3 -17.3 -16.15 -17.35 -16.05 -17.4 -15.9 -17.4 -15.8 -17.45 -15.65 -17.5 -15.55 -17.5 -15.45 -17.55 -15.35 -17.6 -15.25 -17.6 -15.15 -17.65 -15.1 -17.65 -15.0 -17.7 -14.9 -17.7 -14.8 -17.75 -14.7 -17.75 -14.6 -17.8 -14.5 -17.8 -14.4 -17.85 -14.3 -17.85 -14.2 -17.85 -14.1 -18.0 -13.4 -17.95 -13.25 -17.95 -13.2 -17.95 -13.15 -17.95 -13.15 -17.95 -13.1 -18.0 -13.05 -18.0 -13.0 -18.05 -12.95 -18.05 -12.9 -18.05 -12.85 -18.05 -12.8 -18.05 -12.75 -18.1 -12.65 -18.1 -12.6 -18.1 -12.55 -18.1 -12.5 -18.1 -12.45 -18.1 -12.4 -18.05 -12.35 -18.05 -12.3 -18.05 -12.25 -18.05 -12.1 -18.05 -11.85 -18.1 -11.8 -18.1 -11.8 -18.15 -11.75 -18.15 -11.7 -18.15 -11.3 -18.1 -10.35 -18.1 -10.3 -18.1 -10.25 -18.1 -10.2 -18.05 -10.2 -18.05 -10.05 -18.05 -9.8 -18.1 -9.7 -18.1 -9.65 -18.1 -9.4 -18.05 -8.95 -17.95 -8.4 -17.95 -8.3 -17.9 -7.7 -17.55 -6.0 -17.55 -5.9 -17.5 -5.8 -17.5 -5.65 -17.45 -5.55 -17.45 -5.45 -17.4 -5.35 -17.4 -5.25 -17.35 -5.1 -17.35 -5.0 -17.3 -4.9 -17.3 -4.8 -17.25 -4.7 -17.25 -4.6 -17.2 -4.5 -17.15 -4.4 -17.15 -4.25 -16.85 -3.3 -16.85 -3.3 -16.8 -3.25 -16.8 -3.2 -16.85 -3.15 -16.85 -3.1 -16.85 -3.15 -16.8 -3.05 -16.75 -2.85 -16.65 -2.5 -16.55 -2.1 -16.55 -1.95 -16.2 -0.6 -16.1 0.15 -16.1 0.25 -16.1 0.25 -16.05 0.3 -16.0 0.3 -16.0 0.35 -16.0 0.35 -16.0 0.4 -16.0 0.45 -16.0 0.5 -15.9 1.35 -15.85 1.55 -15.8 1.9 -15.75 2.35 -15.75 2.5 -15.6 3.3 -15.6 3.3 -15.6 3.4 -15.6 3.55 -15.6 3.65 -15.6 3.75 -15.6 3.85 -15.6 3.95 -15.6 4.0 -15.6 4.1 -15.6 4.2 -15.6 4.3 -15.6 4.3 -15.6 4.5 -15.55 4.6 -15.55 4.7 -15.55 4.8 -15.55 4.85 -15.55 4.95 -15.55 5.05 -15.55 5.05 -15.5 5.1 -15.5 5.15 -15.5 5.2 -15.5 5.2 -15.5 5.4 -15.5 5.5 -15.55 6.15 -15.55 6.25 -15.55 6.35 -15.55 6.4 -15.55 6.5 -15.55 6.55 -15.6 6.7 -15.6 6.8 -15.6 6.85 -15.6 6.95 -15.6 7.05 -15.6 7.15 -15.6 7.2 -15.6 7.3 -15.6 7.4 -15.6 7.5 -15.6 7.55 -15.6 7.65 -15.6 7.75 -15.65 7.8 -15.65 7.9 -15.7 8.05 -15.8 8.95 -15.95 9.65 -15.9 9.7 -15.9 9.7 -15.9 9.8 -15.95 9.85 -15.95 9.85 -15.95 9.9 -16.0 9.95 -16.0 9.95 -16.05 10.0 -16.05 10.05 -16.05 10.05 -16.05 10.1 -16.05 10.15 -16.1 10.2 -16.1 10.25 -16.1 10.25 -16.1 10.3 -16.05 10.35 -16.05 10.4 -16.05 10.45 -16.05 10.5 -16.0 10.55 -16.0 10.6 -16.0 10.65 -15.95 10.7 -15.95 10.7 -15.95 10.8 -15.9 10.85 -15.9 10.85 -15.9 10.9 -15.9 10.95 -15.85 11.0 -15.85 11.05 -15.85 11.1 -15.85 11.15 -15.85 11.25 -15.85 11.4 -15.8 11.5 -15.8 11.65 -15.8 11.75 -15.85 11.9 -15.85 12.0 -15.85 12.15 -15.85 12.25 -15.9 12.4 -15.9 12.5 -15.95 12.6 -15.95 12.75 -16.0 12.85 -16.05 12.95 -16.05 13.1 -16.1 13.15 -16.1 13.25 -16.1 13.3 -16.15 13.35 -16.15 13.45 -16.2 13.5 -16.2 13.55 -16.2 13.65 -16.2 13.7 -16.25 13.8 -16.25 13.85 -16.25 13.9 -16.3 14.0 -16.3 14.05 -16.3 14.1 -16.35 14.2 -16.4 14.4 -16.75 15.65 -16.95 16.2 -16.95 16.2 -17.0 16.35 -17.2 16.7 -17.3 17.0 -17.4 17.15 -17.75 17.95 -17.85 18.15 -18.0 18.35 -18.15 18.7 -18.4 19.15 -18.45 19.3 -18.6 19.55 -19.15 20.75 -19.15 20.8 -19.2 20.85 -19.2 20.85 -19.2 20.9 -19.15 20.95 -19.15 20.95 -19.1 21.0 -19.05 21.0 L-19.05 21.0 Q-19.05 21.1 -18.95 21.1 -18.9 21.1 -18.9 21.1 -18.9 21.2 -18.8 21.15 -18.75 21.2 -18.75 21.2 -18.75 21.25 -18.7 21.25 -18.7 21.3 -18.65 21.3 -18.6 21.35 -18.6 21.35 -18.55 21.35 -18.5 21.4 -18.45 21.4 -18.45 21.4 -18.4 21.4 -18.4 21.4 -18.35 21.45 -18.3 21.5 -18.25 21.55 -18.15 21.6 -18.1 21.6 -18.05 21.65 -18.0 21.7 -17.9 21.75 -17.85 21.75 -17.8 21.8 -17.75 21.8 -17.65 21.85 -17.65 21.85 -17.55 21.9 -17.45 21.95 -17.4 22.0 -16.65 22.3 -15.75 22.65 -14.25 23.1 -14.0 23.15 -13.25 23.35 -12.15 23.6 -11.15 23.8 -10.0 23.95 -9.4 24.1 -7.85 24.25 -7.5 24.3 -6.05 24.45 -5.7 24.5 -5.35 24.5 -5.0 24.55 -4.65 24.55 -4.35 24.55 -4.05 24.6 -3.75 24.6 -3.45 24.6 -3.2 24.65 -2.95 24.65 -2.7 24.65 -2.45 24.65 -2.25 24.7 -2.05 24.7 -1.9 24.7 -1.7 24.7 -0.15 24.75 0.85 24.75 2.4 24.75 6.85 24.4 9.45 24.2 10.75 24.0 11.85 23.8 12.75 23.55 13.05 23.5 13.6 23.4 13.6 23.4 13.65 23.35 13.7 23.35 13.8 23.35 13.85 23.3 13.95 23.3 14.1 23.25 14.15 23.2 14.3 23.2 14.4 23.15 14.55 23.1 14.7 23.05 14.85 23.0 15.0 22.95 15.15 22.9 15.35 22.8 15.45 22.8 15.5 22.75 15.6 22.7 15.65 22.7 15.75 22.65 15.85 22.65 15.95 22.6 16.05 22.55 16.15 22.5 16.25 22.45 16.35 22.45 16.45 22.4 16.55 22.35 16.7 22.3 16.8 22.25 16.9 22.2 17.05 22.15 17.15 22.1 17.3 22.0 17.4 21.95 17.55 21.85 17.7 21.8 17.85 21.7 18.0 21.6 18.15 21.55 18.3 21.45 18.45 21.35 18.65 21.25 18.8 21.15 18.95 21.0 19.15 20.9 19.3 20.8 19.25 20.6 19.05 20.1 18.9 19.65 18.7 19.15 18.35 18.35 18.3 18.15 18.1 17.7 18.0 17.35 17.95 17.15 17.85 17.0 17.8 16.8 17.75 16.6 17.65 16.45 17.6 16.3 17.55 16.15 17.5 16.0 17.45 15.85 17.4 15.7 17.35 15.55 17.35 15.4 17.3 15.3 17.25 15.15 17.25 15.05 17.2 14.95 17.1 14.65 15.8 9.8 15.35 8.1 15.3 7.9 14.95 6.85 14.9 6.6 14.9 6.55 14.9 6.45 14.9 6.35 14.9 6.25 14.9 6.15 14.95 6.05 14.95 5.9 14.95 5.8 14.95 5.7 15.0 5.55 15.0 5.45 15.0 5.35 15.05 5.25 15.05 5.15 15.1 5.1 15.1 5.05 15.15 5.0 15.15 4.95 15.15 4.9 15.15 4.9 15.15 4.85 15.15 4.8 15.15 4.75 15.1 4.75 15.1 4.7 15.05 4.65 14.95 4.6 14.9 4.5 14.8 4.45 14.75 4.4 14.7 4.3 14.6 4.25 14.55 4.15 14.5 4.05 14.45 4.0 14.4 3.9 14.4 3.8 14.35 3.7 14.3 3.65 14.3 3.55 14.25 3.45 14.25 3.35 14.25 3.1 14.15 1.3 14.1 0.75 14.05 -1.9 14.05 -1.95 14.05 -2.0 14.05 -2.05 14.05 -2.1 14.05 -2.1 14.0 -2.15 14.0 -2.2 14.0 -2.2 13.95 -2.25 13.95 -2.25 13.9 -2.3 13.9 -2.3 13.85 -2.3 13.8 -2.35 13.75 -2.35 13.7 -2.35 13.65 -2.35 13.6 -2.4 13.6 -2.4 13.55 -2.45 13.5 -2.45 13.5 -2.5 13.45 -2.5 13.45 -2.55 13.4 -2.6 13.4 -2.65 13.35 -2.65 13.35 -2.7 13.3 -2.75 13.3 -2.8 13.3 -2.8 13.25 -2.85 13.25 -2.9 13.25 -2.9 13.25 -2.95 13.25 -3.0 13.25 -3.0 13.3 -3.05 13.3 -3.05 13.35 -3.1 13.45 -3.2 13.55 -3.25 13.6 -3.35 13.7 -3.4 13.8 -3.5 13.9 -3.6 13.95 -3.65 14.05 -3.75 14.1 -3.85 14.2 -3.9 14.3 -4.0 14.35 -4.1 14.45 -4.2 14.5 -4.3 14.6 -4.35 14.65 -4.45 14.8 -4.65 15.2 -5.4 15.25 -5.5 15.3 -5.55 15.3 -5.65 15.35 -5.7 15.4 -5.8 15.45 -5.85 15.45 -5.95 15.5 -6.0 15.5 -6.1 15.55 -6.15 15.55 -6.25 15.6 -6.35 15.6 -6.4 15.65 -6.5 15.65 -6.55 15.7 -6.65 15.7 -6.7 15.7 -6.75 15.75 -6.8 15.75 -6.85 15.75 -6.9 15.8 -6.95 15.8 -7.0 15.85 -7.05 15.85 -7.1 15.85 -7.15 15.9 -7.2 15.9 -7.25 15.9 -7.3 15.9 -7.35 15.9 -7.4 15.9 -7.45 15.9 -7.45 15.95 -7.5 15.95 -7.55 15.95 -7.55 16.15 -8.2 16.2 -8.35 16.25 -8.45 16.25 -8.65 16.3 -8.9 16.3 -8.9 16.3 -8.95 16.3 -9.0 16.35 -9.2 16.35 -9.1 16.35 -9.15 16.35 -9.2 16.35 -9.25 16.35 -9.3 16.35 -9.35 16.35 -9.35 16.35 -9.4 16.35 -9.45 16.35 -9.5 16.35 -9.55 16.3 -9.6 16.3 -9.65 16.3 -9.7 16.3 -9.75 16.25 -9.8 16.25 -9.85 16.25 -9.9 16.25 -10.0 16.25 -9.95 16.25 -10.1 16.25 -10.15 16.25 -10.2 16.25 -10.25 16.25 -10.3 16.25 -10.35 16.2 -10.4 16.2 -10.45 16.2 -10.5 16.15 -10.55 16.15 -10.6 16.15 -10.65 16.1 -10.7 16.1 -10.75 16.05 -10.8 16.05 -10.85 16.05 -10.9 16.05 -10.95 16.0 -11.05 16.0 -11.1 16.0 -11.15 15.95 -11.2 15.95 -11.25 15.95 -11.3 15.9 -11.35 15.9 -11.4 15.85 -11.5 15.85 -11.55 15.8 -11.65 15.8 -11.7 15.75 -11.75 15.75 -11.85 15.7 -11.9 15.7 -11.95 15.65 -12.05 15.6 -12.1 15.6 -12.15 15.55 -12.25 15.55 -12.3 15.5 -12.35 15.45 -12.45 15.2 -12.95 14.5 -14.0 14.45 -14.1 14.35 -14.2 14.3 -14.3 14.2 -14.4 14.15 -14.5 14.1 -14.6 14.0 -14.7 13.95 -14.8 13.85 -14.9 13.8 -15.0 13.7 -15.1 13.65 -15.2 13.55 -15.25 13.5 -15.35 13.4 -15.45 13.35 -15.55 13.2 -15.7 13.1 -15.9 12.95 -16.05 12.85 -16.2 12.7 -16.35 12.55 -16.5 12.45 -16.7 12.3 -16.85 12.15 -17.0 12.05 -17.15 11.9 -17.3 11.75 -17.45 11.6 -17.65 11.5 -17.8 11.35 -17.95 11.2 -18.1 10.6 -18.8 9.5 -19.9 8.85 -20.5 7.75 -21.35 7.7 -21.4 7.6 -21.45 7.55 -21.5 7.45 -21.55 7.4 -21.65 7.3 -21.7 7.25 -21.75 7.2 -21.8 7.1 -21.85 7.05 -21.9 6.95 -21.95 6.9 -22.0 6.8 -22.05 6.75 -22.1 6.65 -22.15 6.6 -22.2 6.35 -22.35 5.95 -22.6 5.5 -22.9 5.35 -23.0 5.3 -23.05 5.25 -23.05 5.2 -23.05 5.15 -23.05 5.15 -23.05 5.1 -23.05 5.05 -23.0 4.85 -22.8 3.9 -21.85 3.85 -21.8 3.7 -21.7 3.6 -21.65 3.45 -21.55 3.35 -21.5 3.2 -21.4 3.05 -21.35 2.95 -21.25 2.8 -21.2 2.65 -21.1 2.5 -21.05 2.35 -21.0 2.25 -20.95 2.1 -20.85 1.95 -20.8 1.8 -20.75 1.65 -20.7 1.5 -20.65 1.35 -20.6 1.2 -20.55 1.0 -20.5 0.85 -20.45 0.7 -20.4 0.55 -20.4 0.4 -20.35 0.2 -20.3 0.05 -20.3 -0.1 -20.25 -0.25 -20.2 -0.4 -20.2 -0.6 -20.15 -0.75 -20.15 -0.95 -20.1 -2.95 -19.85 -3.1 -19.85 -3.45 -19.9 -3.8 -19.9 -4.15 -19.95 -4.5 -20.0 -4.85 -20.05 -5.2 -20.1 -5.55 -20.15 -5.9 -20.2 -6.25 -20.3 -6.6 -20.35 -6.95 -20.45 -7.3 -20.5 -7.6 -20.6 -7.95 -20.7 -8.3 -20.8 -8.65 -20.9 -8.9 -21.0 -9.0 -21.0 -9.25 -21.1 -9.4 -21.15 -9.6 -21.2 -9.75 -21.3 -9.95 -21.35 -10.1 -21.45 -10.3 -21.55 -10.45 -21.65 -10.65 -21.75 -10.8 -21.85 -10.95 -21.95 -11.1 -22.1 -11.25 -22.2 -11.4 -22.35 -11.45 -22.4 -11.5 -22.4 -11.5 -22.4 -11.55 -22.4 -11.55 -22.4 -11.6 -22.35 -11.65 -22.35 -11.65 -22.35 -11.7 -22.35 -11.8 -22.3 -11.9 -22.2 -11.95 -22.2 -12.1 -22.15 -12.2 -22.05 -12.3 -22.0 -12.45 -21.9 -12.6 -21.8 -12.8 -21.7 -12.95 -21.6 -13.15 -21.45 -13.35 -21.3 -13.55 -21.15 -13.8 -20.95 -14.0 -20.75 -14.05 -20.7 -14.1 -20.65 -14.15 -20.6 -14.2 -20.55 -14.25 -20.5 -14.3 -20.45 -14.4 -20.4 -14.45 -20.35 -14.5 -20.3 -14.55 -20.25 -14.6 -20.15 -14.7 -20.1 -14.75 -20.05 -14.8 -19.95 -14.9 -19.9 -14.95 -19.8 L-14.95 -19.8" fill="#040404" fill-rule="evenodd" stroke="none"/>
    <path d="M13.85 -3.25 Q13.8 -3.2 13.75 -3.15 13.7 -3.05 13.7 -3.0 13.7 -2.95 13.7 -2.85 13.7 -2.8 13.7 -2.75 13.7 -2.65 13.75 -2.6 13.8 -2.55 13.85 -2.5 13.9 -2.45 13.95 -2.4 14.05 -2.35 14.1 -2.3 14.15 -2.3 14.2 -2.25 14.25 -2.25 14.25 -2.2 14.3 -2.2 14.35 -2.15 14.35 -2.15 14.4 -2.1 14.4 -2.1 14.4 -2.05 14.45 -2.0 14.45 -1.95 14.45 -1.95 14.45 -1.9 14.45 -1.85 14.45 -1.8 14.45 -1.7 14.45 -1.55 14.45 -1.45 14.45 -1.35 14.45 -1.25 14.45 -1.1 14.45 -1.0 14.5 -0.9 14.5 -0.8 14.5 -0.65 14.5 -0.55 14.5 -0.45 14.5 -0.35 14.55 -0.2 14.55 -0.1 14.55 0.0 14.55 0.05 14.55 0.1 14.55 0.1 14.6 0.15 14.6 0.2 14.55 0.25 14.55 0.25 14.55 0.3 14.5 0.25 14.45 0.2 14.45 0.2 14.4 0.2 14.35 0.15 14.35 0.2 14.3 0.2 14.25 0.25 14.2 0.3 14.15 0.35 14.1 0.45 14.05 0.55 13.95 0.65 13.9 0.75 13.85 0.85 13.75 0.95 13.7 1.0 13.6 1.1 13.55 1.2 13.45 1.3 13.35 1.35 13.3 1.45 13.2 1.55 13.1 1.6 13.05 1.7 12.95 1.8 12.85 1.9 12.75 1.95 12.7 2.05 12.6 2.1 12.5 2.15 12.4 2.25 12.3 2.3 12.2 2.4 12.1 2.45 12.05 2.5 11.95 2.6 11.85 2.65 11.7 2.7 11.6 2.75 11.5 2.8 11.4 2.85 11.25 2.9 11.15 2.95 11.0 3.0 10.85 3.05 10.7 3.1 10.6 3.15 10.45 3.2 10.3 3.25 10.15 3.3 10.0 3.3 9.85 3.35 9.7 3.35 9.55 3.4 9.45 3.4 9.25 3.4 9.1 3.4 8.9 3.4 8.3 3.4 7.75 3.4 7.45 3.4 7.35 3.4 7.2 3.4 7.1 3.35 6.95 3.35 6.85 3.35 6.7 3.35 6.6 3.3 6.45 3.3 6.35 3.3 6.2 3.25 6.1 3.25 5.95 3.2 5.85 3.2 5.7 3.15 5.6 3.15 5.5 3.1 4.9 3.0 3.5 2.55 3.25 2.45 2.8 2.25 2.3 2.05 2.1 1.95 1.8 1.85 1.35 1.65 0.7 1.4 0.6 1.35 0.15 1.2 -0.4 0.95 -0.45 0.9 -0.5 0.9 -0.55 0.85 -0.6 0.85 -0.65 0.8 -0.7 0.8 -0.75 0.75 -0.8 0.75 -0.85 0.7 -0.9 0.7 -0.95 0.7 -1.0 0.65 -1.05 0.65 -1.1 0.6 -1.15 0.6 -1.2 0.55 -1.25 0.55 -1.35 0.5 -1.4 0.5 -1.45 0.45 -1.5 0.45 -1.6 0.4 -1.65 0.35 -1.7 0.35 -1.6 0.4 -1.85 0.25 -1.9 0.25 -1.95 0.2 -2.05 0.2 -2.1 0.15 -2.15 0.1 -2.25 0.1 -2.4 0.05 -2.7 -0.1 -3.0 -0.25 -3.15 -0.35 -3.2 -0.35 -3.25 -0.4 -3.3 -0.4 -3.35 -0.4 -3.4 -0.45 -3.45 -0.45 -3.55 -0.45 -3.6 -0.5 -3.65 -0.5 -3.7 -0.55 -3.75 -0.55 -3.8 -0.6 -3.85 -0.6 -3.9 -0.65 -3.95 -0.65 -4.0 -0.7 -4.15 -0.8 -4.5 -0.9 -4.85 -1.05 -5.0 -1.15 -5.45 -1.3 -5.7 -1.4 -5.75 -1.45 -5.8 -1.45 -5.8 -1.45 -5.85 -1.45 -5.9 -1.5 -5.95 -1.5 -6.05 -1.5 -6.65 -1.7 -6.7 -1.7 -6.75 -1.75 -6.75 -1.8 -6.75 -1.85 -6.75 -1.9 -6.7 -1.95 -6.65 -2.0 -6.65 -2.0 -6.6 -2.05 -6.6 -2.05 -6.55 -2.1 -6.55 -2.1 -6.5 -2.15 -6.45 -2.15 -6.45 -2.2 -6.4 -2.2 -6.35 -2.25 -6.35 -2.25 -6.3 -2.3 -6.25 -2.3 -6.2 -2.3 -6.2 -2.3 -6.15 -2.3 -5.8 -2.55 -5.7 -2.6 -5.55 -2.65 -5.45 -2.7 -5.35 -2.75 -5.25 -2.75 -5.1 -2.8 -5.0 -2.8 -4.85 -2.8 -4.75 -2.8 -4.65 -2.8 -4.55 -2.8 -4.4 -2.8 -1.5 -2.8 -4.15 -2.8 -4.0 -2.8 -3.9 -2.8 -3.85 -2.75 -3.75 -2.75 -3.7 -2.7 -3.65 -2.7 -3.55 -2.7 -3.5 -2.7 -3.45 -2.7 -3.35 -2.7 -3.25 -2.7 -3.2 -2.7 -3.1 -2.65 -3.05 -2.65 -2.95 -2.65 -2.9 -2.6 -2.85 -2.55 -2.75 -2.5 -2.7 -2.5 -2.65 -2.5 -2.6 -2.5 -2.55 -2.5 -2.5 -2.5 -2.45 -2.45 -2.4 -2.45 -2.35 -2.45 -2.1 -2.35 -2.25 -2.4 -2.15 -2.4 -2.1 -2.35 -2.05 -2.35 -2.0 -2.35 -1.95 -2.35 -1.9 -2.35 -1.8 -2.35 -1.6 -2.3 -1.4 -2.25 -1.35 -2.2 -1.25 -2.2 -1.15 -2.2 -1.1 -2.2 -1.0 -2.2 -0.9 -2.2 -0.8 -2.2 -0.75 -2.2 -0.65 -2.25 -0.6 -2.25 -0.45 -2.25 -0.35 -2.25 -0.3 -2.25 -0.2 -2.3 -0.15 -2.3 -0.05 -2.3 0.05 -2.3 0.3 -2.3 1.35 -2.5 2.2 -2.7 2.65 -2.85 2.75 -2.9 2.85 -2.9 2.9 -2.95 3.0 -3.0 3.1 -3.0 3.2 -3.05 3.25 -3.05 3.35 -3.1 3.45 -3.15 3.55 -3.15 3.65 -3.2 3.7 -3.2 3.8 -3.25 3.9 -3.25 4.0 -3.3 4.1 -3.3 4.2 -3.35 4.3 -3.35 4.45 -3.4 4.55 -3.45 4.65 -3.45 4.8 -3.5 4.9 -3.55 5.0 -3.55 5.1 -3.6 5.25 -3.6 5.35 -3.65 5.45 -3.65 5.6 -3.7 5.7 -3.7 5.8 -3.75 5.95 -3.75 6.7 -3.9 9.0 -3.9 9.45 -3.9 11.55 -3.55 13.1 -3.3 13.55 -3.3 13.55 -3.3 13.85 -3.25 L13.85 -3.25" fill="#040404" fill-opacity="0.32156864" fill-rule="evenodd" stroke="none"/>
    <path d="M15.6 4.75 Q15.55 4.75 15.5 4.75 15.45 4.75 15.45 4.75 15.4 4.75 15.35 4.75 15.35 4.8 15.3 4.85 15.3 4.9 15.25 4.9 15.25 4.95 15.15 4.95 15.1 5.0 15.1 5.05 14.5 5.55 13.3 6.45 13.25 6.5 13.2 6.5 13.2 6.55 13.15 6.6 13.15 6.6 13.1 6.65 13.1 6.7 13.05 6.7 13.05 6.75 13.05 6.8 13.05 6.85 13.05 6.9 13.05 6.95 13.05 6.95 13.05 7.0 13.05 7.05 13.1 7.3 13.05 7.9 13.05 7.95 13.05 8.0 13.05 8.05 13.0 8.1 13.0 8.1 13.0 8.15 12.95 8.15 12.95 8.2 12.9 8.2 12.85 8.25 12.85 8.25 12.8 8.3 12.75 8.3 12.7 8.3 12.65 8.3 12.65 8.3 12.6 8.3 12.55 8.3 12.55 8.3 12.5 8.3 12.45 8.3 12.45 8.3 12.4 8.3 12.35 8.3 12.35 8.3 12.3 8.25 12.25 8.25 12.25 8.2 12.2 8.2 12.2 8.15 12.2 8.15 12.15 8.1 12.15 8.05 12.1 8.05 12.1 8.0 12.05 7.95 12.05 7.9 12.05 7.85 12.05 7.85 12.0 7.8 12.0 7.75 12.0 7.7 12.0 7.65 12.0 7.6 11.95 7.55 11.95 7.55 11.9 7.5 11.9 7.5 11.85 7.5 11.8 7.55 11.8 7.55 11.75 7.6 11.4 7.85 10.8 8.25 9.95 8.85 9.9 8.9 9.85 8.9 9.85 8.95 9.8 8.95 9.8 9.0 9.75 9.0 9.75 9.0 9.75 9.05 9.75 9.05 9.75 9.1 9.7 9.1 9.7 9.15 9.7 9.15 9.7 9.2 9.75 9.2 9.75 9.25 9.75 9.25 9.8 9.4 9.9 9.7 10.0 10.0 10.05 10.15 10.05 10.2 10.05 10.25 10.1 10.3 10.05 10.35 10.05 10.4 10.05 10.45 10.05 10.5 10.05 10.55 10.05 10.55 10.0 10.6 10.0 10.65 9.95 10.7 9.95 10.7 9.9 10.75 9.85 10.75 9.85 10.8 9.8 10.8 9.75 10.85 9.7 10.85 9.6 10.85 9.55 10.85 9.5 10.85 9.45 10.8 9.4 10.8 9.35 10.8 9.3 10.75 9.25 10.75 9.2 10.7 9.15 10.65 9.15 10.6 9.1 10.55 9.1 10.5 9.1 10.45 9.05 10.45 9.05 10.4 9.05 10.35 9.0 10.35 9.0 10.3 9.0 10.25 9.0 10.25 8.95 10.2 8.95 10.15 8.95 10.1 8.95 10.1 8.9 10.05 8.9 10.0 8.9 10.0 8.85 9.95 8.8 9.85 8.8 9.8 8.75 9.75 8.75 9.75 8.7 9.75 8.65 9.75 8.6 9.75 8.55 9.75 8.5 9.8 8.45 9.85 6.25 11.15 6.15 11.15 5.95 11.25 5.55 11.45 5.15 11.65 4.95 11.75 4.9 11.8 4.9 11.8 4.85 11.85 4.85 11.9 4.85 11.9 4.85 11.95 4.85 11.95 4.85 12.0 4.85 12.05 4.9 12.1 4.95 12.15 4.95 12.2 5.0 12.3 5.0 12.35 5.05 12.4 5.1 12.45 5.1 12.55 5.1 12.6 5.15 12.65 5.15 12.75 5.2 12.8 5.2 12.85 5.25 12.95 5.25 13.0 5.25 13.1 5.3 13.15 5.3 13.2 5.3 13.3 5.3 13.35 5.3 13.4 5.3 13.5 5.25 13.55 5.25 13.6 5.2 13.65 5.15 13.7 5.15 13.75 5.1 13.8 5.05 13.8 5.0 13.85 4.95 13.85 4.85 13.9 4.8 13.9 4.75 13.9 4.7 13.9 4.65 13.9 4.6 13.85 4.55 13.85 4.5 13.85 4.45 13.8 4.4 13.75 4.4 13.75 4.35 13.7 4.3 13.65 4.3 13.6 4.25 13.55 4.25 13.5 4.25 13.45 4.25 13.4 4.25 13.4 3.85 12.4 3.8 12.3 3.75 12.35 3.7 12.35 3.55 12.4 3.15 12.55 2.8 12.7 2.4 12.9 1.7 13.15 0.8 13.5 0.55 13.6 0.5 13.6 0.45 13.65 0.45 13.65 0.4 13.65 0.4 13.65 0.3 13.65 0.25 13.7 0.2 13.7 0.15 13.7 0.15 13.7 0.1 13.75 0.05 13.75 0.0 13.75 -0.05 13.8 -0.05 13.8 -0.1 13.85 -0.15 13.85 -0.15 13.9 -0.2 13.9 -0.2 13.95 -0.2 13.95 -0.2 14.0 -0.2 14.05 -0.15 14.1 0.35 15.1 0.45 15.35 0.45 15.4 0.45 15.45 0.45 15.5 0.45 15.55 0.45 15.6 0.4 15.65 0.4 15.7 0.35 15.75 0.35 15.8 0.3 15.85 0.25 15.85 0.2 15.9 0.15 15.9 0.1 15.95 0.05 15.95 0.0 15.95 -0.1 15.95 -0.15 15.95 -0.2 15.95 -0.25 15.95 -0.3 15.95 -0.35 15.9 -0.4 15.9 -0.4 15.9 -0.45 15.85 -0.5 15.85 -0.5 15.8 -0.55 15.75 -0.55 15.7 -0.6 15.65 -0.6 15.6 -0.65 15.55 -0.8 15.2 -1.2 14.4 -1.2 14.35 -1.25 14.35 -1.3 14.3 -1.3 14.3 -1.35 14.25 -1.4 14.25 -1.4 14.25 -1.45 14.25 -1.5 14.25 -1.5 14.3 -1.95 14.45 -2.6 14.65 -3.6 14.95 -3.7 14.95 -3.9 15.0 -4.4 15.15 -4.85 15.3 -5.1 15.35 -5.15 15.4 -5.2 15.4 -5.25 15.4 -5.25 15.45 -5.25 15.5 -5.25 15.5 -5.25 15.55 -5.25 15.6 -5.25 15.65 -5.2 15.7 -5.2 15.75 -5.15 15.8 -5.15 15.85 -5.1 15.9 -5.1 16.0 -5.05 16.05 -5.05 16.1 -5.0 16.15 -5.0 16.2 -4.95 16.25 -4.95 16.3 -4.9 16.35 -4.85 16.4 -4.85 16.45 -4.8 16.5 -4.8 16.55 -4.8 16.6 -4.75 16.6 -4.75 16.65 -4.75 16.7 -4.7 16.75 -4.7 16.8 -4.7 16.8 -4.7 16.85 -4.7 16.9 -4.7 16.95 -4.7 16.95 -4.75 17.0 -4.75 17.05 -4.75 17.1 -4.8 17.1 -4.8 17.15 -4.85 17.2 -4.85 17.2 -4.9 17.25 -4.9 17.25 -4.95 17.3 -5.0 17.3 -5.05 17.3 -5.05 17.3 -5.1 17.3 -5.15 17.3 -5.15 17.3 -5.2 17.3 -5.25 17.3 -5.3 17.3 -5.3 17.3 -5.35 17.3 -5.4 17.3 -5.45 17.3 -5.5 17.25 -5.5 17.25 -5.55 17.2 -5.6 17.2 -5.6 17.15 -5.65 17.15 -5.65 17.1 -5.7 17.05 -5.7 17.05 -5.75 17.0 -5.75 17.0 -5.8 16.9 -5.8 16.85 -5.85 16.85 -5.9 16.8 -5.9 16.75 -5.95 16.7 -5.95 16.65 -6.0 16.6 -6.0 16.55 -6.05 16.5 -6.05 16.45 -6.1 16.4 -6.1 16.35 -6.15 16.3 -6.15 16.25 -6.2 16.2 -6.2 16.1 -6.25 16.05 -6.25 16.0 -6.25 15.95 -6.3 15.9 -6.3 15.9 -6.3 15.85 -6.35 15.85 -6.35 15.8 -6.4 15.8 -6.4 15.8 -6.45 15.75 -6.5 15.75 -6.5 15.75 -6.55 15.75 -6.6 15.75 -6.65 15.75 -6.65 15.75 -6.7 15.8 -7.65 16.05 -8.85 16.3 -9.0 16.35 -9.7 16.5 -9.75 16.5 -9.8 16.55 -9.85 16.55 -9.85 16.55 -9.9 16.6 -9.95 16.6 -9.95 16.65 -9.95 16.65 -10.0 16.7 -10.0 16.7 -10.0 16.75 -10.0 16.8 -10.0 16.85 -9.95 16.85 -9.95 16.9 -9.95 16.95 -9.6 17.85 -9.6 18.05 -9.6 18.1 -9.6 18.1 -9.6 18.15 -9.65 18.2 -9.65 18.25 -9.65 18.25 -9.7 18.3 -9.7 18.35 -9.75 18.4 -9.75 18.4 -9.8 18.45 -9.8 18.45 -9.85 18.5 -9.9 18.5 -9.9 18.55 -9.95 18.55 -10.0 18.55 -10.05 18.55 -10.05 18.55 -10.1 18.55 -10.15 18.55 -10.2 18.55 -10.2 18.55 -10.25 18.55 -10.3 18.5 -10.35 18.5 -10.35 18.5 -10.4 18.45 -10.45 18.45 -10.45 18.4 -10.5 18.4 -10.55 18.35 -10.6 18.3 -10.6 18.25 -10.6 18.25 -10.65 18.2 -10.65 18.15 -10.65 18.1 -10.7 18.05 -10.7 18.0 -10.7 18.0 -10.7 17.95 -10.75 17.9 -10.75 17.85 -10.75 17.8 -10.8 17.75 -10.8 17.7 -10.8 17.65 -10.8 17.6 -10.85 17.6 -10.85 17.55 -10.9 17.5 -10.9 17.45 -10.9 17.4 -10.95 17.4 -10.95 17.35 -10.95 17.3 -11.0 17.25 -11.0 17.2 -11.0 17.2 -11.0 17.15 -11.05 17.1 -11.05 17.05 -11.05 17.0 -11.05 16.95 -11.1 16.9 -11.1 16.85 -11.15 16.85 -11.15 16.8 -11.2 16.8 -11.25 16.8 -11.3 16.8 -11.45 16.85 -11.7 16.9 -12.0 16.95 -12.15 16.95 -12.85 17.1 -14.45 17.25 -14.85 17.3 -17.3 17.3 L-17.1 16.85 Q-17.1 16.8 -17.05 16.8 -17.05 16.75 -17.05 16.7 -17.05 16.7 -17.0 16.65 -17.0 16.6 -17.0 16.6 -17.0 16.55 -17.0 16.5 -16.95 16.45 -16.95 16.45 -16.95 16.4 -16.9 16.4 -16.85 16.35 -16.85 16.35 -16.8 16.35 -16.8 16.35 -16.75 16.3 -16.7 16.3 -16.7 16.3 -16.65 16.3 -16.3 16.3 -15.75 16.3 -15.1 16.25 -14.85 16.25 -14.8 16.25 -14.75 16.3 -14.75 16.3 -14.7 16.3 -14.65 16.3 -14.6 16.3 -14.6 16.3 -14.55 16.3 -14.5 16.3 -14.45 16.3 -14.45 16.3 -14.4 16.3 -14.35 16.3 -14.3 16.3 -14.3 16.3 -14.25 16.3 -13.85 16.15 -13.85 16.15 -13.8 16.15 -13.6 16.15 -13.55 16.15 -13.55 16.2 -13.5 16.2 -13.45 16.2 -13.4 16.2 -13.35 16.15 -13.35 16.15 -13.3 16.15 -13.25 16.15 -13.2 16.15 -13.15 16.15 -13.1 16.15 -13.05 16.15 -13.0 16.15 -12.95 16.15 -12.95 16.1 -12.9 16.1 -12.85 16.05 -12.8 16.05 -12.8 16.0 L-12.7 16.0 Q-12.6 16.05 -12.55 16.0 -12.5 16.0 -12.25 16.0 -12.2 16.0 -12.15 16.0 -12.05 16.0 -12.05 16.0 -12.0 15.95 -11.95 15.95 -11.9 15.95 -11.85 15.95 -11.8 15.95 -11.75 15.9 -11.7 15.9 -11.65 15.9 -11.6 15.85 -11.55 15.85 -11.5 15.8 -11.45 15.75 -11.45 15.7 -11.45 15.7 -11.45 15.65 -11.45 15.6 -11.45 15.6 -11.45 15.55 -11.4 15.5 -11.4 15.45 -11.4 15.45 -11.4 15.35 -11.5 14.6 -11.45 14.5 L-11.45 14.45 Q-11.4 14.45 -11.4 14.35 -11.35 14.3 -11.35 14.3 -11.3 14.25 -11.25 14.25 -11.1 14.25 -10.8 14.25 -10.75 14.25 -10.75 14.25 -10.7 14.25 -10.7 14.3 -10.65 14.3 -10.65 14.3 -10.6 14.35 -10.6 14.35 -10.55 14.4 -10.55 14.4 -10.55 14.45 -10.55 14.45 -10.5 14.5 -10.5 14.5 -10.5 14.55 -10.5 14.6 -10.45 14.75 -10.35 15.35 -10.35 15.4 -10.3 15.45 -10.3 15.5 -10.25 15.5 -10.25 15.55 -10.2 15.55 -10.15 15.55 -10.05 15.5 -9.95 15.5 -9.45 15.4 -9.05 15.3 -8.8 15.25 -8.65 15.2 -8.35 15.15 -8.05 15.05 -7.9 15.0 -7.8 15.0 -7.4 14.9 -7.15 14.8 -6.95 14.75 -6.9 14.75 -6.85 14.75 -6.8 14.7 -6.8 14.7 -6.8 14.65 -6.75 14.65 -6.75 14.6 -6.75 14.6 -6.8 14.55 -6.8 14.5 -6.8 14.45 -6.85 14.35 -6.85 14.2 -6.85 14.2 -6.85 14.15 -6.9 14.1 -6.9 14.05 -6.9 14.0 -6.9 13.95 -6.9 13.9 -6.9 13.85 -6.85 13.8 -6.85 13.75 -6.8 13.7 -6.8 13.65 -6.75 13.65 -6.75 13.6 -6.7 13.55 -6.65 13.5 -6.6 13.5 -6.55 13.45 -6.5 13.45 -6.4 13.4 -6.35 13.4 -6.3 13.4 -6.2 13.4 -6.15 13.45 -6.1 13.45 -6.05 13.5 -6.0 13.55 -5.95 13.6 -5.9 13.65 -5.85 13.7 -5.85 13.75 -5.8 13.85 -5.8 13.9 -5.8 13.95 -5.8 14.0 -5.8 14.05 -5.75 14.05 -5.75 14.1 -5.75 14.15 -5.75 14.15 -5.7 14.2 -5.7 14.25 -5.7 14.25 -5.65 14.3 -5.65 14.35 -5.65 14.35 -5.65 14.35 -5.6 14.4 -5.6 14.4 -5.55 14.4 -5.55 14.4 -5.55 14.4 -5.5 14.4 -5.5 14.4 -5.45 14.4 -5.4 14.35 -5.4 14.35 -5.2 14.25 -4.85 14.2 -4.45 14.1 -4.3 14.05 -4.15 14.0 -3.85 13.9 -3.55 13.8 -3.45 13.8 -3.2 13.7 -2.6 13.55 -2.55 13.55 -2.3 13.45 -2.1 13.4 -2.0 13.35 -1.95 13.35 -1.9 13.3 -1.9 13.3 -1.9 13.25 -1.85 13.2 -1.85 13.15 -1.85 13.1 -1.9 13.1 -1.9 13.05 -1.95 13.0 -1.95 13.0 -2.0 12.95 -2.0 12.95 -2.05 12.9 -2.05 12.85 -2.05 12.85 -2.05 12.8 -2.1 12.8 -2.1 12.75 -2.1 12.75 -2.1 12.7 -2.15 12.65 -2.1 12.7 -2.15 12.6 -2.15 12.6 -2.2 12.55 -2.2 12.5 -2.2 12.45 -2.25 12.4 -2.2 12.35 -2.2 12.3 -2.2 12.25 -2.2 12.2 -2.15 12.15 -2.1 12.1 -2.1 12.1 -2.05 12.05 -2.0 12.0 -1.95 11.95 -1.9 11.95 -1.85 11.9 -1.75 11.85 -1.7 11.85 -1.7 11.85 -1.65 11.85 -1.6 11.85 -1.55 11.85 -1.55 11.85 -1.5 11.85 -1.45 11.9 -1.4 11.9 -1.35 11.95 -1.3 11.95 -1.3 12.0 -1.25 12.05 -1.2 12.05 -1.2 12.1 -1.15 12.15 -0.95 12.55 -0.85 12.7 -0.85 12.75 -0.8 12.75 -0.8 12.8 -0.75 12.8 -0.75 12.85 -0.7 12.85 -0.7 12.85 -0.65 12.85 -0.65 12.9 -0.6 12.9 -0.55 12.9 -0.55 12.85 -0.5 12.85 -0.45 12.85 -0.4 12.85 -0.35 12.8 -0.15 12.7 0.25 12.55 0.65 12.4 0.85 12.35 1.1 12.25 1.6 12.05 2.15 11.85 2.4 11.75 2.45 11.75 2.5 11.7 2.5 11.7 2.55 11.65 2.6 11.65 2.65 11.65 2.7 11.6 2.7 11.6 2.75 11.6 2.8 11.55 2.85 11.55 2.9 11.55 2.95 11.5 3.0 11.5 3.0 11.5 3.05 11.5 3.1 11.45 3.15 11.45 3.2 11.4 3.25 11.35 3.25 11.35 3.25 11.3 3.25 11.25 3.25 11.2 3.25 11.15 3.2 11.1 3.1 10.9 2.8 10.4 2.8 10.35 2.75 10.3 2.75 10.3 2.75 10.25 2.75 10.2 2.75 10.15 2.75 10.1 2.75 10.1 2.75 10.05 2.75 10.0 2.75 9.95 2.75 9.9 2.8 9.9 2.8 9.85 2.8 9.8 2.85 9.75 2.9 9.7 2.9 9.7 2.95 9.65 3.0 9.65 3.0 9.6 3.05 9.6 3.1 9.6 3.15 9.55 3.2 9.55 3.25 9.55 3.25 9.55 3.3 9.55 3.35 9.55 3.4 9.55 3.4 9.55 3.5 9.6 3.55 9.6 3.6 9.6 3.6 9.65 3.65 9.65 3.7 9.7 3.7 9.75 3.95 10.1 4.2 10.65 4.2 10.7 4.25 10.7 4.25 10.7 4.3 10.75 4.3 10.75 4.35 10.75 4.35 10.8 4.4 10.8 4.45 10.8 4.45 10.8 4.5 10.8 4.5 10.8 4.55 10.8 4.6 10.8 4.6 10.8 4.65 10.75 6.7 9.7 7.75 9.0 7.8 8.95 8.0 8.85 8.15 8.8 8.2 8.75 8.25 8.7 8.3 8.7 8.3 8.65 8.3 8.6 8.35 8.55 8.3 8.5 8.3 8.5 8.3 8.45 7.8 7.05 7.8 7.0 7.8 6.95 7.8 6.9 7.8 6.8 7.8 6.75 7.8 6.7 7.8 6.65 7.85 6.6 7.85 6.55 7.9 6.5 7.9 6.45 7.95 6.45 8.0 6.4 8.05 6.35 8.1 6.35 8.15 6.3 8.2 6.3 8.25 6.3 8.35 6.3 8.4 6.3 8.45 6.3 8.5 6.3 8.55 6.3 8.6 6.35 8.65 6.35 8.65 6.4 8.7 6.4 8.75 6.45 8.8 6.5 8.8 6.55 8.85 6.6 8.85 6.65 8.9 6.75 8.9 6.8 8.95 6.85 8.95 6.95 8.95 7.0 9.0 7.05 9.0 7.1 9.0 7.2 9.05 7.25 9.05 7.3 9.1 7.35 9.1 7.4 9.1 7.5 9.15 7.55 9.15 7.6 9.2 7.65 9.2 7.75 9.25 7.8 9.25 7.85 9.3 7.9 9.35 7.9 9.35 7.9 9.4 7.9 9.45 7.9 9.5 7.9 9.55 7.85 9.6 7.8 10.35 7.25 10.9 6.9 11.2 6.7 11.75 6.3 11.8 6.25 11.8 6.2 11.85 6.2 11.85 6.15 11.85 6.1 11.85 6.05 11.85 6.0 11.85 5.95 11.85 5.75 11.85 5.3 11.8 4.9 11.8 4.65 11.8 4.55 11.85 4.5 11.85 4.4 11.9 4.35 11.95 4.3 12.0 4.25 12.05 4.2 12.1 4.15 12.15 4.1 12.2 4.1 12.3 4.05 12.35 4.05 12.45 4.05 12.5 4.1 12.6 4.1 12.65 4.15 12.7 4.15 12.7 4.2 12.75 4.2 12.8 4.2 12.8 4.25 12.85 4.25 12.85 4.25 12.85 4.3 12.9 4.3 12.9 4.35 12.9 4.35 12.9 4.4 12.95 4.45 12.95 4.45 12.95 4.5 12.95 4.55 12.95 4.75 12.95 5.05 12.95 5.15 12.95 5.15 12.95 5.2 13.0 5.25 13.05 5.25 13.1 5.25 13.1 5.25 13.15 5.2 13.2 5.2 13.2 5.15 13.25 5.15 13.25 5.1 13.3 5.1 13.35 5.05 13.35 5.05 13.4 5.0 13.45 5.0 13.45 4.95 13.5 4.95 13.55 4.9 13.55 4.9 13.6 4.85 13.65 4.85 13.65 4.8 13.7 4.8 13.7 4.75 13.85 4.65 14.2 4.4 14.5 4.15 14.7 4.0 14.7 4.0 14.95 3.95 15.05 4.05 15.15 4.0 15.2 4.05 15.2 4.1 15.25 4.1 15.25 4.15 15.3 4.15 15.3 4.2 15.35 4.2 15.35 4.25 15.4 4.25 15.45 4.3 15.45 4.35 15.5 4.35 15.5 4.4 15.55 4.4 15.55 4.45 15.6 4.45 15.6 4.5 15.65 4.5 15.7 4.55 15.7 4.55 15.7 4.6 15.7 4.65 15.7 4.65 15.65 4.7 15.6 4.7 15.6 4.75 L15.6 4.75" fill="#040404" fill-opacity="0.32156864" fill-rule="evenodd" stroke="none"/>
    <path d="M2.25 -10.3 Q2.25 -10.4 2.25 -10.55 2.25 -10.65 2.25 -10.75 2.3 -10.85 2.35 -10.95 2.35 -11.05 2.4 -11.1 2.5 -11.2 2.55 -11.25 2.6 -11.35 2.7 -11.4 2.75 -11.45 2.85 -11.55 2.95 -11.6 3.05 -11.65 3.1 -11.65 3.15 -11.7 3.2 -11.7 3.25 -11.75 3.3 -11.75 3.35 -11.75 3.4 -11.75 3.45 -11.8 3.5 -11.8 3.55 -11.8 3.6 -11.8 3.65 -11.8 3.7 -11.8 3.8 -11.8 3.85 -11.8 3.9 -11.75 3.95 -11.75 4.05 -11.75 4.1 -11.7 4.2 -11.7 4.25 -11.7 4.35 -11.65 4.4 -11.65 4.5 -11.65 4.55 -11.6 4.65 -11.6 4.7 -11.6 4.75 -11.55 4.85 -11.55 4.9 -11.5 5.0 -11.5 5.05 -11.45 5.1 -11.45 5.15 -11.45 5.15 -11.45 5.2 -11.45 5.25 -11.5 5.25 -11.55 5.3 -11.6 5.3 -11.65 5.35 -11.7 5.35 -11.75 5.4 -11.75 5.45 -11.8 5.5 -11.85 5.5 -11.9 5.55 -11.9 5.6 -11.95 5.65 -12.0 5.7 -12.05 5.7 -12.05 5.75 -12.1 5.8 -12.1 5.85 -12.15 5.95 -12.2 6.05 -12.25 6.2 -12.3 6.3 -12.3 6.45 -12.3 6.55 -12.3 6.7 -12.3 6.8 -12.25 6.95 -12.2 7.05 -12.15 7.2 -12.1 7.3 -12.05 7.4 -12.0 7.5 -11.9 7.6 -11.8 7.65 -11.7 7.7 -11.6 7.75 -11.5 7.8 -11.4 7.85 -11.35 7.9 -11.25 7.9 -11.15 7.95 -11.05 7.95 -10.95 8.0 -10.85 8.0 -10.75 8.0 -10.65 8.0 -10.55 8.0 -10.45 8.0 -10.35 8.0 -10.2 8.0 -10.15 8.0 -10.05 8.0 -9.95 8.0 -9.9 8.0 -9.8 8.0 -9.7 8.0 -9.6 7.95 -9.55 7.95 -9.45 7.95 -9.35 7.9 -9.3 7.9 -9.2 7.9 -9.1 7.85 -9.05 7.85 -8.95 7.8 -8.9 7.8 -8.8 7.75 -8.7 7.75 -8.6 7.7 -8.5 7.7 -8.4 7.65 -8.3 7.6 -8.2 7.55 -8.1 7.55 -8.0 7.5 -7.9 7.45 -7.8 7.4 -7.7 7.35 -7.6 7.3 -7.5 7.25 -7.4 7.2 -7.3 7.15 -7.25 7.1 -7.1 7.1 -7.15 7.1 -7.15 7.1 -7.1 7.05 -7.05 7.05 -7.0 7.0 -7.0 7.0 -6.95 7.0 -6.9 6.95 -6.9 6.95 -6.85 6.9 -6.8 6.9 -6.8 6.9 -6.75 6.85 -6.7 6.85 -6.7 6.8 -6.65 6.8 -6.65 6.75 -6.6 6.75 -6.6 6.7 -6.6 6.7 -6.6 6.65 -6.55 6.6 -6.55 6.6 -6.55 6.55 -6.55 6.55 -6.55 6.5 -6.55 6.45 -6.55 6.45 -6.6 6.4 -6.6 6.4 -6.6 6.1 -6.8 5.3 -7.2 4.65 -7.55 4.25 -7.75 4.15 -7.85 4.05 -7.9 3.95 -7.95 3.85 -8.05 3.7 -8.1 3.65 -8.2 3.5 -8.25 3.45 -8.35 3.35 -8.45 3.25 -8.5 3.15 -8.6 3.05 -8.7 2.95 -8.8 2.9 -8.85 2.8 -8.95 2.75 -9.05 2.7 -9.15 2.65 -9.2 2.6 -9.3 2.55 -9.35 2.45 -9.4 2.45 -9.5 2.4 -9.55 2.35 -9.65 2.3 -9.7 2.3 -9.8 2.25 -9.9 2.25 -9.95 2.25 -10.05 2.25 -10.15 2.25 -10.25 2.25 -10.3 L2.25 -10.3 M7.55 -10.55 Q7.55 -10.6 7.55 -10.6 7.55 -10.65 7.55 -10.7 7.55 -10.75 7.55 -10.8 7.5 -10.8 7.5 -10.85 7.5 -10.9 7.5 -10.95 7.45 -11.0 7.45 -11.05 7.45 -11.1 7.4 -11.15 7.4 -11.2 7.35 -11.25 7.3 -11.35 7.25 -11.4 7.2 -11.45 7.15 -11.55 7.1 -11.6 7.05 -11.65 7.0 -11.7 6.9 -11.75 6.85 -11.75 6.8 -11.8 6.7 -11.8 6.65 -11.85 6.55 -11.85 6.45 -11.8 6.4 -11.8 6.3 -11.8 6.25 -11.75 6.15 -11.75 6.1 -11.7 6.05 -11.65 6.0 -11.65 5.9 -11.6 5.85 -11.55 5.85 -11.5 5.8 -11.45 5.75 -11.4 5.7 -11.3 5.65 -11.25 5.65 -11.2 5.6 -11.15 5.6 -11.05 5.55 -11.0 5.55 -10.95 5.5 -10.9 5.5 -10.85 5.5 -10.8 5.45 -10.75 5.4 -10.75 5.35 -10.75 5.3 -10.8 5.25 -10.8 5.2 -10.85 5.1 -10.85 5.1 -10.85 5.05 -10.9 5.05 -10.9 5.0 -10.9 4.95 -10.95 4.9 -11.0 4.8 -11.0 4.75 -11.05 4.7 -11.1 4.6 -11.1 4.55 -11.15 4.45 -11.15 4.4 -11.2 4.35 -11.2 4.25 -11.2 4.2 -11.25 4.1 -11.25 4.05 -11.25 3.95 -11.3 3.9 -11.3 3.8 -11.3 3.7 -11.3 3.65 -11.3 3.55 -11.3 3.5 -11.3 3.45 -11.3 3.35 -11.25 3.3 -11.25 3.25 -11.2 3.15 -11.2 3.1 -11.15 3.05 -11.1 3.0 -11.05 2.95 -11.0 2.9 -10.95 2.85 -10.85 2.85 -10.8 2.8 -10.75 2.8 -10.7 2.75 -10.6 2.75 -10.55 2.7 -10.5 2.7 -10.45 2.7 -10.4 2.7 -10.3 2.7 -10.25 2.7 -10.2 2.7 -10.15 2.75 -10.05 2.75 -10.0 2.75 -9.95 2.8 -9.9 2.8 -9.85 2.85 -9.7 2.95 -9.6 3.05 -9.45 3.15 -9.35 3.2 -9.2 3.35 -9.1 3.45 -9.0 3.55 -8.9 3.65 -8.8 3.8 -8.7 3.9 -8.65 4.0 -8.55 4.15 -8.45 4.25 -8.35 4.35 -8.3 4.5 -8.2 4.85 -8.0 5.35 -7.7 6.1 -7.3 6.25 -7.25 6.3 -7.2 6.3 -7.2 6.35 -7.2 6.4 -7.15 6.45 -7.15 6.45 -7.15 6.5 -7.15 6.55 -7.2 6.6 -7.2 6.65 -7.25 6.75 -7.5 6.8 -7.65 6.85 -7.7 6.85 -7.8 6.9 -7.85 6.95 -7.9 6.95 -7.95 7.0 -8.05 7.0 -8.1 7.05 -8.2 7.1 -8.25 7.1 -8.3 7.15 -8.35 7.15 -8.45 7.15 -8.5 7.2 -8.6 7.2 -8.65 7.25 -8.7 7.3 -8.85 7.3 -8.9 7.35 -9.05 7.35 -9.15 7.4 -9.25 7.4 -9.35 7.45 -9.45 7.45 -9.55 7.5 -9.7 7.5 -9.8 7.5 -9.9 7.55 -10.05 7.55 -10.15 7.55 -10.3 7.55 -10.4 7.55 -10.55 L7.55 -10.55" fill="#040404" fill-rule="evenodd" stroke="none"/>
  </g>
</svg>
