<?xml version="1.0" encoding="UTF-8" standalone="no"?>
<svg xmlns:xlink="http://www.w3.org/1999/xlink" height="200.0px" width="200.0px" xmlns="http://www.w3.org/2000/svg">
  <g transform="matrix(1.0, 0.0, 0.0, 1.0, 100.0, 100.0)">
    <path d="M-18.7 -13.0 Q-18.7 -13.75 -18.7 -14.2 -18.7 -14.3 -18.7 -14.4 -18.7 -14.5 -18.7 -14.6 -18.7 -14.7 -18.7 -14.8 -18.7 -14.9 -18.7 -14.95 -18.7 -15.05 -18.7 -15.15 -18.7 -15.25 -18.7 -15.35 -18.65 -15.45 -18.65 -15.55 -18.65 -15.65 -18.65 -15.75 -18.35 -18.3 -18.3 -18.4 -18.2 -18.75 -18.15 -19.05 -18.05 -19.4 -17.95 -19.7 -17.8 -20.05 -17.7 -20.35 -17.55 -20.65 -17.4 -20.95 -17.25 -21.25 -17.05 -21.5 -16.9 -21.8 -16.65 -22.05 -16.45 -22.3 -16.25 -22.55 -16.0 -22.8 -15.75 -23.05 -15.6 -23.15 -15.45 -23.3 -15.3 -23.4 -15.15 -23.5 -15.0 -23.65 -14.9 -23.75 -14.75 -23.85 -14.6 -23.95 -14.45 -24.05 -14.3 -24.15 -14.15 -24.25 -13.95 -24.35 -13.8 -24.5 -13.65 -24.55 -13.5 -24.65 -13.35 -24.75 -13.2 -24.85 -13.05 -24.95 -12.95 -25.05 -12.8 -25.15 -12.7 -25.3 -12.6 -25.4 -12.55 -25.55 -12.45 -25.65 -12.4 -25.8 -12.35 -25.95 -12.3 -26.1 -12.25 -26.25 -12.25 -26.4 -12.2 -26.55 -12.2 -26.7 -12.2 -26.9 -12.15 -27.35 -11.95 -28.2 -11.9 -28.4 -11.8 -28.6 -11.7 -28.8 -11.55 -28.95 -11.45 -29.15 -11.25 -29.3 -11.1 -29.4 -10.9 -29.55 -10.7 -29.65 -10.5 -29.7 -10.3 -29.75 -10.05 -29.8 -9.85 -29.8 -9.65 -29.8 -9.4 -29.75 -9.2 -29.65 -8.95 -29.55 -8.7 -29.45 -8.4 -29.35 -8.2 -29.3 -7.9 -29.2 -7.65 -29.1 -7.4 -29.05 -7.15 -28.95 -6.85 -28.9 -6.6 -28.8 -6.35 -28.75 -6.1 -28.7 -5.8 -28.6 -5.55 -28.6 -5.3 -28.55 -5.0 -28.5 -4.55 -28.45 -4.3 -28.4 -3.95 -28.35 -3.65 -28.3 -3.25 -28.25 -2.95 -28.25 -2.6 -28.2 -2.25 -28.15 -1.9 -28.15 -1.55 -28.15 -1.2 -28.15 -0.85 -28.15 -0.5 -28.15 -0.15 -28.2 0.2 -28.2 0.55 -28.3 0.65 -28.3 0.75 -28.35 0.9 -28.35 1.0 -28.35 1.1 -28.4 1.2 -28.4 1.3 -28.45 1.4 -28.45 1.5 -28.5 1.6 -28.55 1.75 -28.55 1.85 -28.6 1.95 -28.65 2.05 -28.7 2.15 -28.75 2.25 -28.8 2.3 -28.85 2.4 -28.85 2.45 -28.9 2.5 -28.95 2.6 -29.0 2.65 -29.0 2.75 -29.05 2.8 -29.1 2.85 -29.1 2.95 -29.15 3.0 -29.2 3.1 -29.2 3.15 -29.25 3.25 -29.25 3.3 -29.3 3.4 -29.35 3.55 -29.4 3.7 -29.45 3.85 -29.45 4.0 -29.45 4.15 -29.45 4.3 -29.45 4.45 -29.45 4.55 -29.4 4.7 -29.35 4.85 -29.25 4.95 -29.2 5.1 -29.1 5.2 -29.0 5.3 -28.9 5.4 -28.8 5.5 -28.65 5.55 -28.55 5.65 -28.45 5.7 -28.35 5.75 -28.25 5.8 -28.15 5.85 -28.05 5.9 -27.95 5.95 -27.85 6.0 -27.75 6.05 -27.65 6.1 -27.55 6.1 -27.45 6.15 -27.3 6.15 -27.2 6.2 -27.1 6.2 -27.0 6.2 -26.8 6.25 -26.65 6.3 -26.5 6.35 -26.35 6.45 -26.2 6.5 -26.05 6.6 -25.9 6.7 -25.75 6.75 -25.65 6.85 -25.5 6.95 -25.4 7.1 -25.25 7.15 -25.15 7.3 -25.0 7.35 -25.0 7.55 -24.8 8.1 -24.2 10.35 -21.95 10.65 -21.65 10.95 -21.3 11.25 -21.0 11.5 -20.65 11.75 -20.35 12.0 -20.0 12.25 -19.65 12.45 -19.25 12.7 -18.9 12.9 -18.55 13.1 -18.15 13.3 -17.75 13.45 -17.4 13.65 -17.0 13.8 -16.6 13.95 -16.2 14.2 -15.55 14.4 -14.85 14.6 -14.15 14.75 -13.45 14.95 -12.8 15.1 -12.05 15.25 -11.4 15.4 -10.7 15.5 -10.0 15.6 -9.3 15.75 -8.6 15.8 -7.9 15.9 -7.2 16.0 -6.45 16.05 -5.8 16.15 -5.05 16.2 -4.35 16.3 -3.7 16.35 -3.0 16.4 -2.35 16.5 -1.7 16.55 -1.05 16.65 -0.35 16.75 0.3 16.85 1.0 16.95 1.6 17.05 2.3 17.2 2.95 17.3 3.6 17.45 4.25 17.6 4.95 17.75 5.6 17.8 5.85 17.9 6.05 17.95 6.3 18.0 6.5 18.1 6.75 18.2 6.95 18.25 7.15 18.35 7.4 18.45 7.6 18.55 7.8 18.65 8.05 18.8 8.25 18.9 8.45 19.05 8.65 19.15 8.85 19.3 9.05 19.4 9.2 19.5 9.35 19.55 9.5 19.65 9.6 19.75 9.75 19.8 9.9 19.9 10.05 19.95 10.2 20.05 10.35 20.1 10.5 20.15 10.65 20.2 10.8 20.3 11.0 20.35 11.15 20.4 11.3 20.4 11.45 20.3 11.2 20.45 11.6 20.45 11.65 20.5 11.7 20.5 11.75 20.55 11.8 20.65 11.85 20.7 11.95 20.8 12.05 20.85 12.15 20.95 12.2 21.0 12.3 21.05 12.4 21.1 12.5 21.15 12.6 21.2 12.7 21.2 12.8 21.25 12.9 21.3 13.0 21.3 13.15 21.35 13.25 21.4 13.35 21.8 15.25 21.9 15.65 21.95 15.75 21.95 15.85 21.95 15.9 22.0 16.0 22.0 16.1 22.0 16.2 22.0 16.25 22.0 16.35 22.0 16.45 22.0 16.55 22.0 16.6 22.0 16.7 21.95 16.8 21.95 16.85 21.9 16.95 21.9 17.05 21.9 17.1 21.85 17.2 21.85 17.25 21.85 17.3 21.85 17.4 21.85 17.45 21.8 17.55 21.85 17.6 21.85 17.65 21.85 17.75 21.85 17.8 21.85 17.85 21.9 17.95 21.9 18.0 21.9 18.05 21.95 18.15 22.05 18.45 22.15 18.75 22.25 19.05 22.3 19.35 22.4 19.65 22.45 19.95 22.5 20.25 22.55 20.55 22.6 20.85 22.65 21.15 22.7 21.5 22.75 21.8 22.75 22.1 22.8 22.4 22.8 22.7 22.85 23.05 22.9 23.75 22.5 26.15 22.45 26.4 22.45 26.65 22.4 26.9 22.35 27.15 22.3 27.4 22.25 27.65 22.2 27.9 22.15 28.15 22.1 28.4 22.0 28.65 21.95 28.9 21.9 29.15 21.8 29.4 21.75 29.65 21.65 29.9 21.6 30.15 21.55 30.3 21.5 30.4 21.45 30.5 21.35 30.6 21.3 30.65 21.2 30.75 21.15 30.8 21.05 30.85 20.95 30.85 20.85 30.9 20.75 30.9 20.65 30.9 20.5 30.85 20.4 30.85 20.3 30.8 20.15 30.75 19.95 30.65 19.75 30.5 19.55 30.4 19.35 30.3 19.15 30.15 18.95 30.05 18.75 29.9 18.55 29.75 18.35 29.65 18.15 29.5 18.0 29.35 17.8 29.2 17.6 29.1 17.4 28.95 17.25 28.8 17.05 28.65 15.55 27.4 12.55 25.5 10.6 24.3 9.75 24.0 9.7 24.0 9.65 24.0 9.65 23.95 9.6 23.95 9.55 23.95 9.55 23.95 9.5 23.95 9.45 23.95 9.4 23.95 9.4 23.95 9.35 23.95 9.3 23.95 9.25 23.95 9.25 23.95 9.2 24.0 9.15 24.0 8.9 24.05 8.6 24.1 8.35 24.2 8.0 24.25 5.4 24.85 7.45 24.4 7.1 24.45 6.85 24.5 6.55 24.6 6.3 24.65 6.0 24.7 5.75 24.75 5.45 24.8 5.15 24.85 4.85 24.85 4.55 24.9 4.1 24.95 3.65 24.95 3.2 24.95 2.75 25.0 2.3 25.0 1.9 25.0 1.45 25.0 1.0 25.05 0.55 25.05 0.1 25.0 -0.35 25.0 -0.8 25.0 -1.25 25.0 -1.7 24.95 -2.15 24.95 -2.6 24.9 -2.65 24.9 -2.75 24.9 -2.8 24.9 -2.85 24.9 -2.95 24.95 -3.0 24.95 -3.05 25.0 -3.15 25.0 -3.2 25.05 -3.25 25.1 -3.3 25.1 -3.35 25.15 -3.45 25.2 -3.5 25.2 -3.55 25.25 -3.6 25.3 -3.85 25.45 -4.15 25.55 -4.4 25.7 -4.65 25.85 -4.9 26.0 -5.15 26.15 -5.4 26.35 -5.65 26.5 -5.85 26.65 -6.1 26.85 -6.35 27.05 -6.55 27.2 -6.8 27.4 -7.0 27.6 -7.2 27.8 -7.4 28.05 -7.6 28.25 -7.8 28.45 -8.0 28.7 -8.2 28.9 -8.35 29.1 -8.55 29.35 -8.75 29.55 -8.9 29.8 -9.1 30.0 -9.25 30.25 -9.45 30.45 -9.6 30.7 -9.8 30.95 -9.95 31.15 -10.1 31.4 -10.3 31.65 -10.4 31.8 -10.65 32.2 -10.9 32.55 -11.05 32.75 -11.1 32.85 -11.2 32.95 -11.25 33.05 -11.35 33.1 -11.45 33.15 -11.55 33.2 -11.7 33.25 -11.8 33.25 -11.9 33.25 -12.05 33.25 -12.15 33.25 -12.3 33.2 -12.4 33.15 -12.5 33.1 -12.6 33.0 -12.7 32.95 -12.8 32.85 -12.85 32.8 -12.95 32.7 -13.0 32.6 -13.1 32.55 -13.15 32.45 -13.2 32.35 -13.3 32.25 -13.35 32.2 -13.45 32.1 -13.5 32.0 -13.55 31.9 -13.6 31.85 -13.65 31.75 -13.75 31.65 -13.8 31.55 -14.25 30.75 -15.85 28.8 -16.2 28.4 -18.4 25.4 -18.85 24.8 -19.65 23.55 -20.45 22.25 -20.85 21.65 -20.9 21.6 -20.95 21.5 -21.0 21.45 -21.1 21.4 -21.15 21.35 -21.2 21.3 -21.25 21.25 -21.35 21.2 -21.45 21.1 -21.45 21.1 -21.55 21.0 -21.6 21.0 -21.65 20.9 -21.7 20.85 -21.8 20.8 -21.85 20.75 -21.95 20.65 -22.05 20.5 -22.15 20.35 -22.2 20.25 -22.3 20.1 -22.35 19.95 -22.4 19.85 -22.4 19.7 -22.45 19.55 -22.5 19.4 -22.5 19.25 -22.5 19.1 -22.5 18.95 -22.45 18.8 -22.45 18.65 -22.4 18.5 -22.35 18.35 -22.3 18.2 -22.3 18.05 -22.25 17.9 -22.25 17.75 -22.2 17.6 -22.2 17.45 -22.2 17.3 -22.15 17.15 -22.15 17.0 -22.15 16.85 -22.15 16.65 -22.1 16.5 -22.1 16.35 -22.1 16.2 -22.1 16.05 -22.1 15.95 -22.1 15.8 -22.05 15.7 -22.05 15.55 -22.0 15.45 -21.95 15.35 -21.95 15.2 -21.9 15.1 -21.8 15.0 -21.75 14.9 -21.7 14.8 -21.6 14.7 -21.55 14.6 -21.45 14.5 -21.4 14.4 -21.3 14.3 -21.25 14.25 -21.2 14.25 -21.2 14.2 -21.15 14.15 -21.1 14.1 -21.1 14.05 -21.05 14.05 -21.05 14.0 -21.0 13.95 -21.0 13.9 -20.95 13.85 -20.95 13.8 -20.9 13.75 -20.9 13.7 -20.9 13.65 -20.85 13.6 -20.75 13.35 -20.65 13.1 -20.6 12.85 -20.45 12.55 -20.35 12.3 -20.25 12.05 -20.15 11.8 -20.05 11.55 -19.9 11.3 -19.8 11.05 -19.7 10.8 -19.55 10.55 -19.45 10.3 -19.3 10.05 -19.2 9.85 -19.05 9.55 -18.9 9.3 -18.8 9.05 -18.7 8.85 -18.6 8.6 -18.5 8.35 -18.45 8.1 -18.35 7.85 -18.3 7.6 -18.25 7.35 -18.2 7.05 -18.15 6.8 -18.1 6.55 -18.05 6.3 -18.05 6.05 -18.0 5.75 -18.0 5.5 -17.85 2.4 -18.0 0.5 -18.05 -0.1 -18.25 -1.15 -18.45 -2.3 -18.5 -2.8 -18.8 -5.25 -18.8 -10.25 -18.8 -10.75 -18.75 -11.6 -18.7 -12.65 -18.7 -13.0 L-18.7 -13.0 M-6.65 -22.9 Q-6.6 -22.9 -6.6 -22.9 -6.55 -22.9 -6.5 -22.85 -6.5 -22.85 -6.45 -22.85 -6.4 -22.85 -6.4 -22.85 -6.35 -22.8 -6.3 -22.8 -6.3 -22.8 -6.25 -22.8 -6.2 -22.8 -6.15 -22.8 -6.15 -22.8 -6.1 -22.8 -6.1 -22.9 -6.15 -22.95 -6.15 -23.05 -6.15 -23.1 -6.15 -23.15 -6.15 -23.25 -6.2 -23.3 -6.2 -23.4 -6.2 -23.45 -6.2 -23.55 -6.2 -23.6 -6.15 -23.65 -6.15 -23.75 -6.15 -23.8 -6.15 -23.85 -6.1 -23.95 -6.05 -24.1 -6.0 -24.25 -6.0 -24.35 -5.95 -24.5 -5.95 -24.65 -5.9 -24.8 -5.85 -24.95 -5.85 -25.1 -5.85 -25.25 -5.8 -25.4 -5.8 -25.55 -5.8 -25.65 -5.75 -25.8 -5.75 -25.95 -5.75 -26.1 -5.75 -26.25 -5.65 -26.45 -5.5 -26.8 -5.6 -26.8 -5.75 -26.85 -5.85 -26.85 -5.95 -26.9 -6.1 -26.9 -6.2 -26.95 -6.3 -26.95 -6.4 -27.0 -6.55 -27.0 -6.65 -27.05 -6.75 -27.05 -6.85 -27.1 -7.0 -27.15 -7.1 -27.15 -7.2 -27.2 -7.3 -27.2 -7.4 -27.2 -7.5 -27.25 -7.55 -27.25 -7.65 -27.25 -7.7 -27.25 -7.8 -27.2 -7.85 -27.2 -7.9 -27.15 -7.95 -27.15 -8.0 -27.1 -8.05 -27.05 -8.05 -26.95 -8.1 -26.9 -8.1 -26.8 -8.1 -26.75 -8.1 -26.65 -8.1 -26.5 -8.1 -26.35 -8.1 -26.2 -8.1 -26.05 -8.15 -25.9 -8.15 -25.8 -8.15 -25.65 -8.2 -25.5 -8.2 -25.35 -8.25 -25.2 -8.3 -25.05 -8.3 -24.95 -8.35 -24.8 -8.4 -24.65 -8.4 -24.5 -8.45 -24.35 -8.45 -24.25 -8.5 -24.2 -8.5 -24.1 -8.45 -24.0 -8.45 -23.9 -8.45 -23.8 -8.4 -23.75 -8.35 -23.65 -8.35 -23.6 -8.3 -23.5 -8.25 -23.45 -8.15 -23.4 -8.1 -23.3 -8.05 -23.3 -8.0 -23.25 -7.9 -23.2 -7.05 -22.95 -6.65 -22.9 L-6.65 -22.9 M-11.95 19.75 Q-11.95 19.65 -11.95 19.55 -11.9 19.45 -11.9 19.35 -11.9 19.25 -11.9 19.2 -11.85 19.1 -11.85 19.0 -11.8 18.9 -11.8 18.8 -11.75 18.7 -11.75 18.65 -11.7 18.55 -11.65 18.45 -11.6 18.35 -11.55 18.3 -11.5 18.25 -11.5 18.2 -11.5 18.15 -11.5 18.15 -11.5 18.1 -11.5 18.1 -11.5 18.05 -11.55 18.05 -11.55 18.05 -11.6 18.05 -11.6 18.05 -11.65 18.05 -11.65 18.0 -11.7 18.0 -11.75 18.0 -11.75 18.0 -13.4 17.7 -15.3 17.35 -15.4 17.35 -15.5 17.35 -15.6 17.35 -15.65 17.35 -15.75 17.4 -15.8 17.4 -15.9 17.45 -15.95 17.5 -16.0 17.55 -16.0 17.6 -16.05 17.7 -16.05 17.75 -16.05 17.85 -16.05 17.95 -16.05 18.0 -16.0 18.1 -15.95 18.25 -15.95 18.35 -15.9 18.5 -15.9 18.6 -15.9 18.75 -15.9 18.9 -15.9 19.0 -15.9 19.15 -15.9 19.25 -15.9 19.4 -15.9 19.5 -15.95 19.65 -15.95 19.75 -16.0 19.9 -16.05 20.0 -16.05 20.15 -16.1 20.25 -16.1 20.3 -16.1 20.4 -16.15 20.45 -16.15 20.55 -16.15 20.6 -16.15 20.7 -16.15 20.8 -16.1 20.85 -16.1 20.95 -16.05 21.0 -16.0 21.05 -15.95 21.15 -15.9 21.2 -15.85 21.25 -15.75 21.3 -14.45 21.7 -12.2 22.0 -12.15 22.0 -12.1 22.0 -12.05 22.0 -12.05 22.0 -12.0 21.95 -12.0 21.95 -12.0 21.9 -11.95 21.85 -11.95 21.85 -11.9 21.6 -11.9 21.4 -11.9 21.3 -11.9 21.15 -11.9 21.05 -11.85 20.9 -11.85 20.8 -11.85 20.65 -11.85 20.5 -11.85 20.4 -11.85 20.25 -11.9 20.15 -11.9 20.0 -11.9 19.85 -11.95 19.75 L-11.95 19.75 M-6.4 19.75 Q-6.4 19.7 -6.4 19.65 -6.4 19.6 -6.4 19.55 -6.4 19.5 -6.4 19.45 -6.4 19.4 -6.35 19.35 -6.35 19.3 -6.35 19.25 -6.35 19.2 -6.35 19.15 -6.3 19.1 -6.3 19.05 -6.25 19.0 -6.25 18.95 -6.2 18.9 -6.2 18.85 -6.15 18.8 -6.15 18.75 -6.15 18.7 -6.15 18.7 -6.2 18.65 -6.2 18.65 -6.2 18.6 -6.25 18.6 -6.3 18.6 -6.3 18.6 -6.35 18.6 -6.4 18.6 -6.45 18.55 -6.5 18.55 -7.3 18.5 -9.4 18.3 -9.6 18.3 -9.75 18.3 -9.9 18.3 -10.05 18.35 -10.15 18.4 -10.25 18.45 -10.4 18.5 -10.5 18.6 -10.55 18.7 -10.65 18.8 -10.7 18.95 -10.75 19.05 -10.8 19.2 -10.8 19.35 -10.85 19.55 -10.8 19.7 -10.8 21.45 -10.9 21.75 -10.9 21.8 -10.9 21.85 -10.9 21.9 -10.9 21.9 -10.9 21.95 -10.9 22.0 -10.9 22.05 -10.85 22.05 -10.85 22.1 -10.8 22.15 -10.8 22.15 -10.75 22.15 -10.7 22.2 -10.7 22.2 -10.65 22.2 -10.6 22.25 -9.25 22.4 -6.6 22.8 -6.6 22.7 -6.65 22.65 -6.65 22.55 -6.65 22.45 -6.7 22.4 -6.7 22.3 -6.7 22.25 -6.7 22.15 -6.7 22.1 -6.65 22.0 -6.65 21.95 -6.65 21.85 -6.65 21.8 -6.6 21.7 -6.6 21.65 -6.55 21.6 -6.5 21.5 -6.45 21.35 -6.45 21.25 -6.4 21.15 -6.4 21.0 -6.4 20.9 -6.35 20.8 -6.35 20.65 -6.35 20.55 -6.35 20.45 -6.35 20.3 -6.35 20.2 -6.35 20.1 -6.4 19.95 -6.4 19.85 -6.4 19.75 L-6.4 19.75 M-0.45 -25.95 Q-0.45 -25.85 -0.5 -25.7 -0.5 -25.7 -0.55 -25.45 -0.6 -25.3 -0.6 -25.25 -0.65 -25.1 -0.65 -25.0 -0.7 -24.85 -0.7 -24.75 -0.7 -24.6 -0.7 -24.5 -0.7 -24.4 -0.65 -24.25 -0.65 -24.15 -0.6 -24.0 -0.55 -23.9 -0.55 -23.85 -0.5 -23.75 -0.5 -23.7 -0.5 -23.6 -0.45 -23.55 -0.45 -23.45 -0.45 -23.4 -0.4 -23.3 -0.4 -23.2 -0.4 -23.15 -0.4 -23.05 -0.4 -23.0 -0.4 -22.9 -0.45 -22.8 -0.45 -22.75 -0.45 -22.7 -0.45 -22.65 -0.45 -22.6 -0.45 -22.55 -0.4 -22.55 -0.4 -22.55 -0.35 -22.55 -0.3 -22.55 -0.25 -22.55 -0.2 -22.55 0.0 -22.55 0.15 -22.6 0.3 -22.6 0.45 -22.65 0.65 -22.65 0.8 -22.7 1.0 -22.7 1.15 -22.75 1.3 -22.8 1.5 -22.8 1.65 -22.85 1.8 -22.9 2.0 -22.9 2.15 -22.95 2.3 -23.0 2.45 -23.05 2.6 -23.1 2.7 -23.15 2.8 -23.2 2.9 -23.25 3.0 -23.3 3.05 -23.4 3.1 -23.45 3.15 -23.55 3.2 -23.6 3.2 -23.7 3.2 -23.8 3.2 -23.9 3.2 -24.0 3.15 -24.1 3.15 -24.2 3.05 -24.35 3.0 -24.45 2.95 -24.55 2.9 -24.65 2.9 -24.75 2.85 -24.85 2.8 -24.95 2.8 -25.05 2.75 -25.15 2.75 -25.25 2.75 -25.35 2.75 -25.5 2.75 -25.6 2.75 -25.7 2.75 -25.8 2.75 -25.9 2.8 -26.05 2.8 -26.1 2.8 -26.2 2.8 -26.25 2.8 -26.35 2.8 -26.4 2.75 -26.45 2.75 -26.5 2.7 -26.55 2.65 -26.6 2.6 -26.65 2.55 -26.7 2.45 -26.7 2.4 -26.75 2.35 -26.8 2.25 -26.8 2.15 -26.8 2.0 -26.8 1.85 -26.75 1.75 -26.75 1.6 -26.7 1.5 -26.7 1.3 -26.65 1.1 -26.6 1.05 -26.6 0.85 -26.55 0.75 -26.55 0.6 -26.5 0.45 -26.5 0.3 -26.5 0.15 -26.5 0.0 -26.45 -0.1 -26.45 -0.2 -26.45 -0.25 -26.45 -0.3 -26.45 -0.4 -26.45 -0.45 -26.4 -0.45 -26.4 -0.5 -26.35 -0.5 -26.35 -0.55 -26.3 -0.55 -26.25 -0.55 -26.2 -0.55 -26.15 -0.55 -26.1 -0.5 -26.05 -0.5 -26.0 -0.45 -25.95 L-0.45 -25.95 M-5.05 -26.2 Q-5.15 -26.0 -5.15 -26.0 -5.15 -25.85 -5.15 -25.7 -5.15 -25.6 -5.15 -25.45 -5.2 -25.3 -5.2 -25.15 -5.2 -25.05 -5.25 -24.9 -5.25 -24.75 -5.3 -24.6 -5.3 -24.5 -5.35 -24.35 -5.4 -24.2 -5.4 -24.05 -5.45 -23.95 -5.5 -23.8 -5.5 -23.75 -5.55 -23.7 -5.55 -23.6 -5.55 -23.55 -5.55 -23.5 -5.55 -23.45 -5.55 -23.4 -5.55 -23.35 -5.55 -23.25 -5.55 -23.2 -5.5 -23.15 -5.5 -23.1 -5.5 -23.05 -5.45 -23.0 -5.45 -22.95 -5.4 -22.85 -5.4 -22.8 -5.4 -22.8 -5.35 -22.75 -5.35 -22.75 -5.35 -22.75 -5.3 -22.7 -5.3 -22.7 -5.3 -22.7 -5.25 -22.65 -5.25 -22.65 -5.2 -22.65 -5.2 -22.65 -5.15 -22.6 -5.15 -22.6 -5.1 -22.6 -5.05 -22.6 -4.85 -22.6 -4.6 -22.55 -4.4 -22.55 -4.2 -22.5 -3.95 -22.5 -3.75 -22.5 -3.5 -22.45 -3.3 -22.45 -3.1 -22.45 -2.85 -22.45 -2.65 -22.45 -2.45 -22.45 -2.2 -22.4 -2.0 -22.4 -1.75 -22.4 -1.55 -22.45 -1.5 -22.45 -1.45 -22.45 -1.35 -22.45 -1.35 -22.5 -1.3 -22.5 -1.25 -22.5 -1.2 -22.55 -1.2 -22.55 -1.15 -22.6 -1.15 -22.65 -1.1 -22.65 -1.1 -22.7 -1.1 -22.75 -1.05 -22.8 -1.05 -22.85 -1.05 -22.9 -1.05 -23.3 -1.1 -23.4 -1.15 -23.55 -1.2 -23.7 -1.2 -23.85 -1.25 -24.0 -1.3 -24.15 -1.3 -24.3 -1.3 -24.45 -1.35 -24.6 -1.35 -24.75 -1.35 -24.9 -1.35 -25.05 -1.3 -25.2 -1.3 -25.35 -1.25 -25.5 -1.2 -25.65 -1.15 -25.8 -1.15 -25.8 -1.15 -25.95 -1.15 -26.0 -1.15 -26.05 -1.15 -26.1 -1.15 -26.15 -1.15 -26.2 -1.2 -26.25 -1.2 -26.3 -1.25 -26.3 -1.25 -26.35 -1.3 -26.35 -1.35 -26.35 -1.4 -26.4 -1.45 -26.4 -1.5 -26.4 -1.55 -26.4 -1.6 -26.4 -1.75 -26.4 -1.95 -26.4 -2.1 -26.4 -2.25 -26.4 -2.45 -26.4 -2.6 -26.45 -2.75 -26.45 -2.95 -26.45 -3.1 -26.45 -3.25 -26.5 -3.45 -26.5 -3.6 -26.55 -3.75 -26.55 -3.9 -26.6 -4.1 -26.6 -4.25 -26.65 -4.35 -26.65 -4.4 -26.65 -4.45 -26.65 -4.5 -26.65 -4.6 -26.65 -4.65 -26.65 -4.7 -26.6 -4.75 -26.6 -4.8 -26.55 -4.85 -26.55 -4.9 -26.5 -4.9 -26.45 -4.95 -26.4 -5.0 -26.35 -5.0 -26.3 -5.05 -26.2 L-5.05 -26.2 M-0.9 18.75 Q-2.85 18.75 -4.25 18.75 -4.4 18.75 -4.5 18.75 -4.6 18.75 -4.7 18.8 -4.8 18.8 -4.85 18.85 -4.95 18.9 -5.0 18.95 -5.1 19.0 -5.15 19.1 -5.2 19.15 -5.2 19.25 -5.25 19.35 -5.3 19.5 -5.3 19.6 -5.3 19.75 -5.3 19.9 -5.25 20.05 -5.25 20.2 -5.25 20.3 -5.25 20.45 -5.25 20.6 -5.25 20.75 -5.3 20.9 -5.3 21.0 -5.35 21.15 -5.35 21.3 -5.4 21.45 -5.4 21.6 -5.45 21.75 -5.5 21.85 -5.55 22.0 -5.6 22.1 -5.6 22.2 -5.6 22.3 -5.6 22.35 -5.6 22.45 -5.55 22.55 -5.5 22.6 -5.5 22.7 -5.45 22.75 -5.35 22.8 -5.3 22.85 -5.25 22.9 -5.15 22.95 -5.05 22.95 -5.0 23.0 -4.9 23.0 -4.65 23.0 -4.3 23.05 -4.05 23.05 -3.7 23.1 -5.0 22.95 -3.15 23.15 -2.8 23.2 -2.55 23.25 -2.25 23.25 -1.95 23.3 -1.65 23.3 -1.35 23.3 -1.05 23.3 -0.8 23.3 -0.45 23.3 -0.2 23.25 -0.1 23.25 -0.05 23.25 0.0 23.2 0.0 23.2 0.05 23.2 0.05 23.15 0.1 23.1 0.1 23.05 0.1 23.0 0.1 22.95 0.0 21.25 -0.15 20.65 -0.15 20.55 -0.2 20.5 -0.2 20.4 -0.2 20.3 -0.25 20.25 -0.25 20.15 -0.25 20.05 -0.25 20.0 -0.25 19.9 -0.25 19.8 -0.3 19.7 -0.3 19.65 -0.3 19.55 -0.25 19.45 -0.25 19.4 -0.25 19.3 -0.2 18.95 -0.25 18.9 -0.25 18.75 -0.4 18.75 -0.45 18.75 -0.8 18.75 -0.8 18.75 -0.9 18.75 L-0.9 18.75 M20.7 20.2 Q20.55 19.55 20.5 19.4 20.0 19.75 19.5 20.05 19.0 20.35 18.45 20.6 17.95 20.85 17.4 21.1 16.9 21.3 16.3 21.55 15.8 21.75 15.25 21.95 14.75 22.15 14.1 22.35 15.15 22.0 13.0 22.75 12.35 22.95 11.9 23.15 13.0 23.75 15.3 25.25 16.15 25.8 17.5 26.8 19.15 28.05 19.65 28.4 19.75 28.5 19.85 28.5 19.9 28.6 19.95 28.6 20.05 28.65 20.05 28.65 20.1 28.65 20.15 28.65 20.2 28.65 20.2 28.6 20.25 28.55 20.25 28.5 20.25 28.4 20.3 28.3 20.3 28.25 20.35 28.1 20.5 27.6 20.6 27.1 20.7 26.6 20.8 26.15 20.85 25.65 20.95 25.15 21.0 24.65 21.0 24.15 21.05 23.65 21.05 23.15 21.05 22.65 21.0 22.2 20.95 21.65 20.9 21.2 20.8 20.7 20.7 20.2 L20.7 20.2 M-11.7 30.65 Q-11.65 30.6 -11.15 29.9 -10.85 29.5 -10.6 29.1 -10.3 28.7 -10.0 28.35 -9.65 28.0 -9.35 27.65 -9.05 27.25 -8.7 26.9 -8.35 26.55 -8.0 26.25 -7.65 25.9 -7.3 25.6 -6.9 25.3 -6.55 25.0 -6.15 24.75 -5.7 24.5 -5.65 24.45 -5.65 24.4 -5.65 24.4 -5.65 24.3 -6.0 24.3 -6.65 24.25 -6.85 24.2 -8.95 23.85 -15.1 22.95 -16.55 22.6 -16.95 22.5 -18.45 22.15 -17.3 24.05 -15.3 26.65 -12.1 30.9 -12.0 31.0 -11.95 31.0 -11.9 30.95 -11.9 30.9 -11.85 30.9 -11.8 30.85 -11.8 30.8 -11.75 30.75 -11.75 30.7 -11.7 30.7 -11.7 30.65 L-11.7 30.65 M-10.0 -22.5 Q-10.1 -22.55 -10.15 -22.65 -10.25 -22.7 -10.35 -22.75 -10.4 -22.8 -10.55 -22.85 -10.7 -22.95 -10.7 -22.95 -10.8 -23.05 -10.9 -23.1 -11.0 -23.15 -11.05 -23.2 -11.15 -23.3 -11.25 -23.35 -11.3 -23.4 -11.4 -23.5 -11.45 -23.55 -11.5 -23.6 -11.55 -23.6 -11.6 -23.65 -11.65 -23.65 -11.7 -23.65 -11.75 -23.7 -11.8 -23.7 -11.85 -23.7 -11.9 -23.65 -11.95 -23.65 -12.0 -23.65 -12.05 -23.6 -12.1 -23.6 -12.15 -23.55 -12.2 -23.5 -13.45 -22.6 -13.85 -22.3 -14.05 -22.15 -14.25 -22.0 -14.45 -21.85 -14.65 -21.7 -14.85 -21.5 -15.0 -21.35 -15.15 -21.15 -15.3 -20.95 -15.5 -20.75 -15.6 -20.55 -15.75 -20.35 -15.85 -20.15 -16.0 -19.95 -16.1 -19.7 -16.2 -19.45 -16.3 -19.2 -16.35 -19.0 -16.4 -18.85 -16.45 -18.65 -16.5 -18.5 -16.55 -18.3 -16.6 -18.15 -16.65 -17.95 -16.7 -17.75 -16.7 -17.6 -16.75 -17.4 -16.8 -17.2 -16.8 -17.05 -16.85 -16.85 -16.85 -16.65 -16.85 -16.45 -16.85 -16.25 -17.05 -9.55 -17.0 -6.35 -17.0 -6.0 -17.0 -5.75 -17.0 -5.45 -16.95 -5.15 -16.95 -4.85 -16.95 -4.55 -16.9 -4.25 -16.9 -4.0 -16.85 -3.7 -16.85 -3.4 -16.8 -3.1 -16.75 -2.8 -16.7 -2.5 -16.65 -2.25 -16.55 -1.95 -16.5 -1.65 -16.45 -1.55 -16.45 -1.45 -16.4 -1.35 -16.4 -1.25 -16.35 -1.15 -16.35 -1.05 -16.35 -0.95 -16.3 -0.85 -16.3 -0.75 -16.25 -0.65 -16.25 -0.55 -16.25 -0.45 -16.25 -0.35 -16.2 -0.25 -16.2 -0.15 -16.2 -0.05 -16.2 0.75 -16.2 2.1 -16.2 3.65 -16.2 4.3 -16.2 4.75 -16.2 5.2 -16.25 5.6 -16.3 6.05 -16.35 6.5 -16.4 6.9 -16.45 7.35 -16.55 7.75 -16.65 8.15 -16.8 8.55 -16.9 9.0 -17.05 9.4 -17.2 9.8 -17.4 10.2 -17.6 10.6 -17.8 11.0 -17.9 11.15 -18.0 11.35 -18.1 11.55 -18.2 11.7 -18.25 11.9 -18.35 12.05 -18.45 12.25 -18.55 12.45 -18.6 12.6 -18.7 12.8 -18.8 13.0 -18.85 13.15 -18.95 13.35 -19.0 13.55 -19.1 13.75 -19.15 13.9 -19.2 13.95 -19.2 14.0 -19.2 14.1 -19.2 14.15 -19.25 14.2 -19.25 14.2 -19.25 14.25 -19.2 14.3 -19.2 14.35 -19.2 14.4 -19.15 14.45 -19.15 14.45 -19.1 14.5 -19.05 14.55 -19.0 14.55 -18.95 14.6 -18.75 14.75 -18.5 14.85 -18.3 14.95 -18.1 15.05 -17.85 15.15 -17.65 15.25 -17.4 15.35 -17.15 15.4 -16.95 15.5 -16.7 15.55 -16.5 15.65 -16.25 15.7 -16.0 15.75 -15.75 15.85 -15.55 15.9 -15.3 15.95 -14.15 16.2 -13.0 16.4 -11.85 16.6 -10.7 16.75 -9.55 16.9 -8.4 17.05 -7.25 17.15 -6.1 17.25 -4.95 17.3 -3.8 17.35 -2.65 17.35 -1.5 17.35 -0.3 17.35 0.85 17.3 2.0 17.2 3.15 17.1 5.35 16.85 6.4 16.6 6.5 16.6 6.6 16.55 6.85 16.5 6.85 16.5 8.5 16.2 11.2 15.4 11.55 15.3 12.15 15.1 12.85 14.9 13.1 14.8 13.65 14.65 14.05 14.5 14.6 14.35 15.0 14.15 15.5 14.0 15.95 13.8 16.4 13.6 16.8 13.35 17.25 13.1 17.65 12.8 18.1 12.5 18.45 12.2 18.5 12.15 18.55 12.1 18.6 12.1 18.6 12.05 18.65 12.0 18.65 11.95 18.7 11.95 18.7 11.9 18.7 11.85 18.7 11.8 18.7 11.8 18.7 11.75 18.7 11.7 18.7 11.65 18.7 11.6 18.65 11.55 18.6 11.45 18.6 11.35 18.55 11.25 18.5 11.15 18.5 11.1 18.45 11.0 18.4 10.9 18.35 10.8 18.3 10.7 18.25 10.65 18.2 10.55 18.15 10.45 18.1 10.35 18.05 10.3 18.0 10.2 17.95 10.1 17.8 9.9 17.65 9.7 17.5 9.45 17.4 9.25 17.25 9.0 17.15 8.8 17.05 8.55 16.9 8.35 16.8 8.1 16.7 7.9 16.6 7.65 16.55 7.4 16.45 7.15 16.35 6.9 16.3 6.7 16.2 6.45 15.25 2.85 14.4 -4.7 13.8 -10.5 13.05 -13.2 12.9 -13.65 12.8 -14.0 12.7 -14.45 12.55 -14.85 12.45 -15.25 12.3 -15.65 12.15 -16.05 12.0 -16.4 11.85 -16.8 11.65 -17.2 11.5 -17.55 11.3 -17.95 11.05 -18.3 10.85 -18.65 10.6 -19.0 10.35 -19.35 10.15 -19.65 9.9 -19.9 9.65 -20.2 9.4 -20.45 9.15 -20.75 8.9 -21.0 8.65 -21.25 8.35 -21.55 8.15 -21.75 7.85 -22.05 7.75 -22.15 7.3 -22.6 7.0 -22.9 6.8 -23.1 6.5 -23.4 6.3 -23.6 6.25 -23.65 6.2 -23.65 6.2 -23.7 6.15 -23.7 6.15 -23.7 6.1 -23.7 6.1 -23.7 6.05 -23.7 6.0 -23.65 6.0 -23.6 5.9 -23.45 5.8 -23.35 5.7 -23.2 5.55 -23.1 5.45 -22.95 5.3 -22.85 5.2 -22.75 5.05 -22.65 4.9 -22.6 4.8 -22.5 4.65 -22.4 4.5 -22.35 4.35 -22.25 4.2 -22.2 4.05 -22.1 3.9 -22.05 3.6 -21.95 3.3 -21.85 3.0 -21.75 2.65 -21.65 2.35 -21.55 2.05 -21.5 1.75 -21.4 1.4 -21.35 1.1 -21.3 0.8 -21.25 0.5 -21.2 0.15 -21.2 -0.15 -21.15 -0.5 -21.1 -0.8 -21.1 -1.15 -21.1 -1.75 -21.05 -2.3 -21.05 -2.85 -21.05 -3.4 -21.05 -4.0 -21.1 -4.55 -21.15 -5.1 -21.2 -5.65 -21.25 -6.2 -21.35 -6.75 -21.45 -7.3 -21.6 -7.85 -21.75 -8.4 -21.9 -8.95 -22.1 -9.45 -22.3 -10.0 -22.5 L-10.0 -22.5 M2.65 23.25 Q2.95 23.25 3.2 23.25 3.5 23.25 3.75 23.2 4.05 23.2 4.3 23.15 4.6 23.15 4.85 23.1 5.15 23.05 5.4 23.05 5.7 23.0 5.95 22.95 6.25 22.9 6.5 22.8 6.8 22.75 7.05 22.7 7.1 22.7 7.15 22.65 7.2 22.65 7.25 22.6 7.3 22.6 7.35 22.55 7.4 22.55 7.4 22.5 7.45 22.45 7.45 22.45 7.45 22.4 7.5 22.35 7.5 22.3 7.45 22.25 7.45 22.2 7.45 22.15 7.4 22.0 7.35 21.8 7.3 21.65 7.25 21.45 7.2 21.25 7.2 21.1 7.15 20.9 7.15 20.7 7.1 20.55 7.1 20.35 7.1 20.2 7.1 20.0 7.1 19.8 7.1 19.6 7.1 19.5 7.1 19.25 7.1 19.1 7.05 18.95 7.05 18.85 7.0 18.7 6.95 18.6 6.85 18.5 6.8 18.4 6.7 18.35 6.6 18.3 6.5 18.25 6.4 18.2 6.25 18.15 6.15 18.15 6.0 18.15 5.85 18.15 5.75 18.15 5.5 18.2 5.25 18.25 4.95 18.25 4.7 18.3 4.45 18.35 4.2 18.4 3.95 18.4 3.7 18.45 3.45 18.5 3.15 18.5 2.9 18.55 2.65 18.55 2.4 18.6 2.15 18.6 1.9 18.6 1.65 18.65 1.5 18.65 1.4 18.65 1.3 18.65 1.25 18.7 1.15 18.7 1.1 18.7 1.05 18.75 1.0 18.8 0.95 18.8 0.95 18.85 0.9 18.95 0.9 19.0 0.85 19.05 0.85 19.2 0.85 19.25 0.8 19.4 0.8 19.45 0.8 19.6 0.8 19.7 0.8 19.75 1.2 22.2 1.15 22.95 1.15 23.0 1.15 23.05 1.15 23.1 1.2 23.1 1.2 23.15 1.2 23.15 1.2 23.2 1.25 23.2 1.25 23.2 1.3 23.25 1.3 23.25 1.35 23.25 1.4 23.25 1.45 23.25 1.45 23.25 1.5 23.25 1.7 23.25 2.05 23.25 2.55 23.25 2.65 23.25 L2.65 23.25 M7.7 17.8 Q7.75 17.9 7.8 17.95 7.85 18.05 7.9 18.15 7.95 18.25 8.0 18.3 8.0 18.4 8.05 18.5 8.1 18.6 8.1 18.65 8.15 18.75 8.15 18.85 8.15 18.95 8.2 19.05 8.2 19.15 8.2 19.25 8.2 19.45 8.2 19.6 8.15 19.8 8.2 19.95 8.2 20.15 8.2 20.35 8.2 20.5 8.2 20.7 8.25 20.85 8.25 21.05 8.3 21.25 8.35 21.4 8.4 21.6 8.45 21.75 8.45 21.95 8.55 22.1 8.55 22.15 8.55 22.2 8.6 22.25 8.6 22.25 8.6 22.3 8.65 22.3 8.65 22.3 8.7 22.3 8.75 22.3 8.8 22.3 11.6 21.7 12.2 21.55 12.3 21.5 12.45 21.45 12.55 21.4 12.6 21.35 12.7 21.3 12.8 21.25 12.85 21.15 12.9 21.1 12.95 21.0 13.0 20.9 13.05 20.8 13.05 20.7 13.05 20.6 13.05 20.5 13.05 20.4 13.05 20.25 13.0 20.1 13.0 19.95 12.95 19.8 12.95 19.65 12.95 19.5 12.95 19.35 12.95 19.2 12.95 19.05 12.95 18.9 12.95 18.75 12.95 18.6 12.95 18.5 13.0 18.35 13.0 18.2 13.05 18.05 13.1 17.9 13.1 17.8 13.15 17.7 13.15 17.6 13.15 17.5 13.1 17.45 13.1 17.35 13.05 17.25 13.05 17.2 13.0 17.1 13.0 17.0 12.95 16.95 12.9 16.85 12.35 15.7 12.8 16.7 12.8 16.6 12.75 16.55 12.75 16.5 12.7 16.45 12.7 16.45 12.65 16.45 12.6 16.45 12.6 16.45 12.55 16.45 12.5 16.45 12.45 16.45 12.45 16.5 10.9 16.9 7.7 17.8 L7.7 17.8 M14.1 20.9 Q15.3 20.4 16.75 19.85 16.9 19.8 17.0 19.75 17.1 19.65 17.2 19.55 17.3 19.5 17.4 19.4 17.5 19.3 17.55 19.2 17.6 19.05 17.65 18.95 17.7 18.85 17.7 18.7 17.75 18.55 17.75 18.45 17.7 18.3 17.7 18.15 17.65 17.8 17.5 17.3 17.35 16.6 17.35 16.4 17.35 16.3 17.3 16.25 17.3 16.15 17.3 16.05 17.3 16.0 17.3 15.9 17.3 15.8 17.3 15.7 17.3 15.5 17.3 15.55 17.3 15.45 17.3 15.35 17.3 15.25 17.3 15.2 17.3 15.1 17.3 15.0 17.3 14.95 17.3 14.95 17.3 14.9 17.3 14.9 17.25 14.85 17.25 14.85 17.25 14.8 17.25 14.8 17.2 14.8 17.2 14.75 17.2 14.75 17.15 14.75 17.1 14.75 17.1 14.75 17.05 14.8 17.0 14.8 16.8 14.9 16.65 15.0 16.45 15.05 16.25 15.15 16.1 15.25 15.9 15.3 15.7 15.4 15.5 15.45 15.3 15.55 15.1 15.6 14.95 15.7 14.75 15.75 14.55 15.8 14.35 15.9 14.15 15.95 13.95 16.0 13.9 16.0 13.85 16.05 13.85 16.05 13.8 16.1 13.8 16.1 13.8 16.15 13.8 16.15 13.8 16.2 13.8 16.25 13.85 16.3 13.9 16.45 14.0 16.6 14.05 16.7 14.1 16.85 14.1 17.0 14.15 17.15 14.15 17.3 14.2 17.45 14.2 17.6 14.2 17.75 14.2 17.85 14.15 18.0 14.15 18.15 14.1 18.3 14.1 18.45 14.05 18.65 14.0 18.8 14.0 18.9 14.0 19.05 14.0 19.2 14.0 19.3 14.0 19.45 14.0 19.55 14.05 19.75 14.1 20.05 14.1 20.0 14.1 20.2 14.1 20.3 14.15 20.45 14.15 20.6 14.15 20.75 14.1 20.9 L14.1 20.9 M-17.2 21.0 Q-17.2 20.9 -17.2 20.75 -17.2 20.65 -17.2 20.55 -17.2 20.45 -17.2 20.3 -17.2 20.2 -17.15 20.1 -17.15 20.0 -17.15 19.9 -17.1 19.8 -17.1 19.7 -17.05 19.6 -17.0 19.45 -17.0 19.35 -16.95 19.25 -16.95 19.2 -16.95 19.15 -16.95 19.15 -16.95 19.1 -16.95 19.05 -16.95 19.0 -16.95 18.95 -16.95 18.9 -16.95 18.85 -16.95 18.8 -17.0 18.7 -17.0 18.55 -17.05 18.45 -17.1 18.35 -17.1 18.2 -17.1 18.1 -17.15 18.0 -17.15 17.9 -17.15 17.75 -17.15 17.65 -17.1 17.55 -17.1 17.45 -17.05 17.3 -17.0 17.2 -16.95 17.1 -16.9 16.95 -17.1 16.9 -17.25 16.85 -17.45 16.8 -17.65 16.75 -17.8 16.65 -18.0 16.6 -18.15 16.55 -18.35 16.45 -18.5 16.4 -18.7 16.3 -18.85 16.25 -19.05 16.15 -19.2 16.05 -19.35 15.95 -19.5 15.9 -19.7 15.8 -19.8 15.75 -19.85 15.7 -19.9 15.65 -19.95 15.65 -20.05 15.6 -20.05 15.6 -20.1 15.6 -20.15 15.65 -20.2 15.65 -20.2 15.7 -20.25 15.7 -20.3 15.8 -20.3 15.85 -20.3 15.9 -20.35 16.0 -20.35 16.1 -20.35 16.15 -20.35 16.2 -20.35 16.2 -20.4 16.25 -20.4 16.3 -20.4 16.35 -20.4 16.4 -20.4 16.4 -20.4 16.45 -20.4 16.5 -20.4 16.65 -20.4 16.8 -20.4 16.95 -20.4 17.1 -20.4 17.25 -20.4 17.35 -20.45 17.5 -20.45 17.65 -20.45 17.8 -20.5 17.95 -20.5 18.1 -20.55 18.25 -20.55 18.4 -20.6 18.5 -20.65 18.65 -20.7 18.8 -20.75 18.9 -20.75 19.0 -20.75 19.05 -20.75 19.15 -20.75 19.2 -20.75 19.3 -20.75 19.35 -20.7 19.4 -20.65 19.45 -20.65 19.55 -20.6 19.6 -20.55 19.65 -20.5 19.7 -20.4 19.75 -20.35 19.8 -20.25 19.85 -20.1 19.95 -19.9 20.05 -19.7 20.15 -19.55 20.2 -19.35 20.3 -19.15 20.4 -18.95 20.45 -18.8 20.55 -18.6 20.6 -18.4 20.65 -18.2 20.7 -18.0 20.8 -17.8 20.85 -17.6 20.9 -17.4 20.95 -17.2 21.0 L-17.2 21.0 M18.8 18.85 Q18.85 18.8 18.95 18.8 19.0 18.75 19.05 18.7 19.15 18.65 19.2 18.6 19.25 18.55 19.3 18.55 19.35 18.5 19.4 18.45 19.45 18.4 19.5 18.35 19.55 18.3 19.6 18.2 19.65 18.15 19.65 18.1 19.75 17.95 19.85 17.8 19.9 17.6 20.0 17.45 20.05 17.3 20.1 17.15 20.15 16.95 20.2 16.8 20.2 16.65 20.2 16.45 20.25 16.3 20.2 16.1 20.2 15.95 20.2 15.75 20.15 15.6 20.1 15.4 20.0 15.15 19.6 13.3 18.55 13.95 18.45 14.05 18.4 14.05 18.35 14.1 18.35 14.1 18.3 14.15 18.3 14.15 18.25 14.15 18.25 14.2 18.25 14.2 18.25 14.25 18.25 14.25 18.2 14.3 18.25 14.35 18.25 14.35 18.25 14.4 18.25 14.45 18.25 14.5 18.3 14.55 18.3 14.6 18.35 14.7 18.35 14.75 18.35 14.8 18.4 14.85 18.4 14.95 18.4 15.0 18.4 15.05 18.4 15.15 18.4 15.2 18.4 15.25 18.4 15.35 18.4 15.4 18.4 15.45 18.4 15.55 18.4 15.65 18.4 15.7 18.4 15.8 18.4 15.85 18.4 15.95 18.4 16.0 18.4 16.1 18.4 16.15 18.4 16.25 18.4 16.35 18.4 16.4 18.45 16.5 18.45 16.55 18.45 16.65 18.45 16.7 18.5 16.8 18.85 18.4 18.8 18.85 L18.8 18.85 M-8.4 -27.55 Q-8.5 -27.6 -9.0 -27.8 -9.4 -27.9 -9.6 -28.0 -9.7 -28.05 -9.75 -28.05 -9.85 -28.05 -9.9 -28.05 -10.0 -28.05 -10.05 -28.05 -10.1 -28.0 -10.15 -28.0 -10.2 -27.95 -10.2 -27.9 -10.25 -27.85 -10.25 -27.8 -10.3 -27.75 -10.3 -27.65 -10.35 -27.6 -10.35 -27.5 -10.6 -25.7 -10.75 -25.05 -10.75 -25.0 -10.75 -24.95 -10.75 -24.9 -10.75 -24.85 -10.75 -24.8 -10.7 -24.8 -10.7 -24.75 -10.65 -24.7 -10.55 -24.6 -10.5 -24.55 -10.4 -24.45 -10.3 -24.4 -10.2 -24.3 -10.1 -24.25 -10.0 -24.2 -9.9 -24.15 -9.8 -24.05 -9.7 -24.0 -9.6 -23.95 -9.5 -23.9 -9.4 -23.85 -9.3 -23.75 -9.2 -23.7 -9.05 -23.65 -9.05 -23.75 -9.1 -23.85 -9.1 -23.95 -9.1 -24.0 -9.1 -24.1 -9.1 -24.2 -9.1 -24.3 -9.1 -24.35 -9.1 -24.45 -9.05 -24.5 -9.05 -24.6 -9.05 -24.7 -9.0 -24.75 -9.0 -24.85 -9.0 -24.9 -8.95 -25.0 -8.9 -25.1 -8.9 -25.15 -8.85 -25.25 -8.85 -25.35 -8.85 -25.4 -8.8 -25.5 -8.8 -25.6 -8.8 -25.7 -8.75 -25.75 -8.75 -25.85 -8.75 -25.95 -8.75 -26.05 -8.75 -26.1 -8.75 -26.2 -8.75 -26.3 -8.75 -26.4 -8.75 -26.45 -8.75 -26.55 -8.75 -26.6 -8.75 -26.7 -8.75 -26.75 -8.75 -26.85 -8.75 -26.9 -8.7 -27.0 -8.7 -27.05 -8.65 -27.1 -8.6 -27.2 -8.6 -27.25 -8.55 -27.35 -8.5 -27.4 -8.45 -27.45 -8.4 -27.55 L-8.4 -27.55 M2.95 -27.2 Q3.05 -27.1 3.1 -27.0 3.2 -26.95 3.25 -26.85 3.3 -26.75 3.35 -26.65 3.4 -26.55 3.4 -26.45 3.45 -26.35 3.45 -26.25 3.45 -26.15 3.45 -26.05 3.45 -25.95 3.4 -25.85 3.4 -25.75 3.35 -25.6 3.35 -25.55 3.35 -25.5 3.35 -25.5 3.35 -25.45 3.35 -25.4 3.35 -25.35 3.35 -25.3 3.35 -25.3 3.35 -25.25 3.4 -25.2 3.4 -25.15 3.4 -25.1 3.4 -25.1 3.45 -25.05 3.45 -25.0 3.5 -24.95 3.55 -24.85 3.6 -24.8 3.6 -24.7 3.65 -24.65 3.7 -24.55 3.7 -24.5 3.75 -24.4 3.75 -24.3 3.8 -24.2 3.8 -24.1 3.8 -24.0 3.8 -23.9 3.8 -23.8 3.8 -23.7 3.8 -23.6 3.75 -23.5 3.85 -23.55 3.9 -23.65 4.0 -23.7 4.1 -23.75 3.8 -23.55 4.25 -23.85 4.35 -23.9 4.4 -23.95 4.5 -24.0 4.55 -24.05 4.65 -24.1 4.65 -24.15 4.7 -24.25 4.75 -24.3 4.8 -24.4 4.8 -24.5 4.8 -24.7 4.8 -24.85 4.8 -25.05 4.8 -25.2 4.75 -25.4 4.75 -25.55 4.75 -25.7 4.7 -25.9 4.65 -26.05 4.65 -26.25 4.6 -26.4 4.55 -26.55 4.5 -26.75 4.45 -26.9 4.4 -27.05 4.35 -27.25 4.3 -27.35 4.3 -27.45 4.25 -27.5 4.2 -27.55 4.15 -27.6 4.15 -27.65 4.1 -27.7 4.05 -27.7 4.0 -27.7 3.95 -27.7 3.9 -27.7 3.85 -27.7 3.8 -27.65 3.7 -27.6 3.65 -27.6 3.55 -27.55 3.3 -27.4 2.95 -27.2 L2.95 -27.2" fill="#030303" fill-rule="evenodd" stroke="none"/>
    <path d="M-10.0 -22.5 Q-10.05 -22.45 -10.15 -22.45 -10.2 -22.4 -10.25 -22.4 -10.3 -22.4 -10.4 -22.4 -10.45 -22.4 -10.55 -22.4 -10.55 -22.4 -10.65 -22.4 -10.75 -22.4 -10.8 -22.4 -10.9 -22.4 -10.95 -22.4 -11.05 -22.4 -11.1 -22.4 -11.4 -22.35 -11.7 -22.25 -12.0 -22.15 -12.3 -22.0 -12.55 -21.85 -12.8 -21.7 -13.05 -21.55 -13.25 -21.35 -13.45 -21.15 -13.65 -20.95 -13.85 -20.75 -14.0 -20.5 -14.2 -20.25 -14.35 -19.95 -14.45 -19.65 -14.6 -19.35 -14.7 -19.05 -14.8 -18.8 -14.9 -18.5 -15.0 -18.2 -15.1 -17.95 -15.15 -17.65 -15.2 -17.35 -15.3 -17.05 -15.35 -16.75 -15.4 -16.45 -15.45 -16.15 -15.5 -15.85 -15.55 -15.55 -15.6 -15.25 -15.65 -14.95 -15.65 -14.65 -15.7 -14.35 -15.75 -14.05 -15.75 -13.7 -15.8 -13.4 -15.85 -13.1 -15.85 -12.8 -15.9 -12.5 -15.9 -12.2 -15.9 -11.85 -15.95 -11.55 -15.95 -11.25 -15.95 -10.95 -15.95 -10.6 -15.95 -10.3 -15.95 -10.0 -15.95 -9.7 -15.9 -8.6 -15.55 -5.35 -15.45 -4.65 -15.35 -3.45 -15.2 -2.0 -15.15 -1.5 -15.1 -1.3 -15.1 -1.1 -15.1 -0.95 -15.05 -0.75 -15.05 -0.55 -15.05 -0.35 -15.05 -0.15 -15.05 0.05 -15.05 0.25 -15.05 0.45 -15.05 0.65 -15.05 0.85 -15.05 1.0 -15.05 1.25 -15.05 1.4 -15.05 1.6 -15.05 1.8 -15.05 2.0 -15.1 2.2 -15.1 2.4 -15.1 2.6 -15.15 2.8 -15.15 3.05 -15.15 3.25 -15.2 3.45 -15.2 3.65 -15.25 3.85 -15.25 4.05 -15.3 4.25 -15.3 4.45 -15.35 4.65 -15.4 4.85 -15.4 4.9 -15.4 5.0 -15.4 5.1 -15.4 5.2 -15.4 5.55 -15.4 5.9 -15.4 6.25 -15.4 6.65 -15.4 7.0 -15.45 7.35 -15.45 7.7 -15.5 8.05 -15.55 8.4 -15.6 8.75 -15.65 9.1 -15.75 9.45 -15.8 9.8 -15.9 10.15 -15.95 10.5 -16.05 10.85 -16.1 11.1 -16.15 11.35 -16.15 11.6 -16.15 11.85 -16.1 12.1 -16.05 12.35 -15.95 12.55 -15.85 12.8 -15.75 13.0 -15.6 13.15 -15.45 13.35 -15.25 13.5 -15.05 13.7 -14.85 13.8 -14.6 13.95 -14.35 14.05 -14.0 14.2 -13.65 14.3 -13.35 14.45 -12.95 14.55 -12.65 14.65 -12.25 14.75 -11.95 14.85 -11.55 14.95 -11.2 15.0 -10.85 15.1 -10.5 15.15 -10.15 15.2 -9.8 15.25 -9.4 15.3 -9.05 15.35 -8.65 15.4 -7.55 15.55 -5.05 15.75 -2.7 16.0 -1.45 16.15 -1.05 16.2 -0.65 16.25 -0.25 16.3 0.15 16.35 0.55 16.4 0.95 16.45 1.35 16.45 1.75 16.5 2.15 16.5 2.55 16.55 2.95 16.55 3.35 16.55 3.75 16.55 4.15 16.6 4.55 16.6 4.95 16.55 5.0 16.55 5.05 16.55 5.1 16.55 5.15 16.55 5.2 16.55 5.25 16.55 5.3 16.55 5.35 16.55 5.45 16.55 5.5 16.55 5.55 16.55 5.6 16.55 5.65 16.55 5.7 16.55 5.75 16.5 5.8 16.5 5.85 16.5 5.85 16.5 6.0 16.45 5.95 16.5 6.0 16.45 6.0 16.45 6.05 16.45 6.1 16.45 6.15 16.45 6.2 16.45 6.2 16.5 6.25 16.5 6.3 16.5 6.3 16.5 6.35 16.55 6.4 16.6 5.35 16.9 3.15 17.1 2.0 17.2 0.85 17.3 -0.3 17.35 -1.5 17.35 -2.65 17.35 -3.8 17.35 -4.95 17.3 -6.1 17.25 -7.25 17.15 -8.4 17.05 -9.55 16.9 -10.7 16.75 -11.85 16.6 -13.0 16.35 -14.15 16.15 -15.3 15.95 -15.55 15.9 -15.75 15.85 -16.0 15.8 -16.25 15.7 -16.5 15.65 -16.7 15.6 -16.95 15.5 -17.15 15.45 -17.4 15.35 -17.65 15.25 -17.85 15.15 -18.1 15.05 -18.3 14.95 -18.5 14.85 -18.75 14.75 -18.95 14.6 -19.0 14.55 -19.05 14.55 -19.1 14.5 -19.15 14.45 -19.15 14.4 -19.2 14.4 -19.2 14.35 -19.2 14.3 -19.25 14.25 -19.25 14.25 -19.25 14.2 -19.25 14.15 -19.2 14.1 -19.2 14.05 -19.2 14.0 -19.15 13.9 -19.1 13.7 -19.0 13.55 -18.95 13.35 -18.85 13.15 -18.8 12.95 -18.7 12.8 -18.6 12.6 -18.55 12.45 -18.45 12.25 -18.35 12.05 -18.3 11.9 -18.2 11.7 -18.1 11.5 -18.0 11.35 -17.9 11.15 -17.8 11.0 -17.6 10.6 -17.4 10.2 -17.2 9.8 -17.05 9.4 -16.9 9.0 -16.8 8.6 -16.65 8.15 -16.55 7.75 -16.45 7.35 -16.4 6.9 -16.35 6.5 -16.3 6.05 -16.25 5.6 -16.2 5.15 -16.2 4.75 -16.2 4.3 -16.2 3.8 -16.2 2.1 -16.2 0.75 -16.2 -0.05 -16.2 -0.15 -16.2 -0.25 -16.2 -0.35 -16.25 -0.45 -16.25 -0.55 -16.25 -0.65 -16.3 -0.75 -16.3 -0.85 -16.3 -0.95 -16.35 -1.05 -16.35 -1.15 -16.4 -1.25 -16.4 -1.35 -16.45 -1.45 -16.45 -1.55 -16.5 -1.65 -16.55 -1.95 -16.65 -2.25 -16.7 -2.5 -16.75 -2.8 -16.8 -3.1 -16.85 -3.4 -16.85 -3.65 -16.9 -4.0 -16.9 -4.25 -16.95 -4.55 -16.95 -4.85 -16.95 -5.15 -16.95 -5.45 -17.0 -5.75 -17.0 -6.0 -17.0 -6.35 -17.05 -9.25 -16.85 -16.25 -16.85 -16.45 -16.85 -16.65 -16.8 -16.85 -16.8 -17.0 -16.8 -17.2 -16.75 -17.4 -16.7 -17.6 -16.7 -17.75 -16.65 -17.95 -16.6 -18.15 -16.55 -18.3 -16.5 -18.5 -16.45 -18.7 -16.4 -18.85 -16.35 -19.05 -16.3 -19.2 -16.2 -19.45 -16.1 -19.7 -16.0 -19.9 -15.9 -20.15 -15.75 -20.35 -15.6 -20.55 -15.5 -20.75 -15.35 -20.95 -15.15 -21.15 -15.0 -21.35 -14.85 -21.5 -14.65 -21.7 -14.45 -21.85 -14.25 -22.0 -14.1 -22.15 -13.85 -22.3 -13.4 -22.65 -12.2 -23.5 -12.15 -23.55 -12.1 -23.55 -12.05 -23.6 -12.0 -23.65 -11.95 -23.65 -11.9 -23.65 -11.85 -23.7 -11.8 -23.7 -11.75 -23.7 -11.7 -23.65 -11.65 -23.65 -11.6 -23.65 -11.55 -23.6 -11.5 -23.6 -11.45 -23.55 -11.4 -23.5 -11.35 -23.4 -11.25 -23.35 -11.15 -23.3 -11.05 -23.2 -11.0 -23.15 -10.9 -23.1 -10.8 -23.05 -10.7 -23.0 -10.65 -22.95 -10.55 -22.85 -10.4 -22.8 -10.35 -22.75 -10.25 -22.7 -10.15 -22.65 -10.1 -22.6 -10.0 -22.5 L-10.0 -22.5" fill="#000000" fill-opacity="0.2901961" fill-rule="evenodd" stroke="none"/>
    <path d="M-6.65 24.25 Q-6.7 24.3 -6.75 24.3 -6.8 24.3 -6.85 24.35 -6.9 24.35 -6.95 24.35 -6.95 24.35 -7.05 24.3 -7.1 24.3 -7.15 24.3 -10.65 24.35 -11.45 24.5 -11.55 24.5 -11.6 24.55 -11.7 24.55 -11.75 24.55 -11.85 24.55 -11.9 24.6 -12.0 24.6 -12.05 24.65 -12.15 24.65 -12.25 24.7 -12.3 24.7 -12.4 24.75 -12.45 24.75 -12.55 24.8 -12.6 24.8 -12.7 24.85 -12.85 24.9 -13.0 25.0 -13.1 25.05 -13.2 25.15 -13.3 25.2 -13.35 25.3 -13.45 25.4 -13.5 25.45 -13.55 25.55 -13.55 25.7 -13.55 25.8 -13.55 25.9 -13.55 26.05 -13.55 26.2 -13.5 26.35 -13.45 26.5 -13.4 26.7 -13.35 26.85 -13.3 27.05 -13.25 27.25 -13.15 27.4 -13.1 27.6 -13.05 27.8 -12.95 27.95 -12.9 28.15 -12.85 28.3 -12.75 28.5 -12.65 28.65 -12.6 28.85 -12.5 29.0 -12.45 29.2 -12.35 29.35 -12.25 29.6 -12.05 30.0 -11.8 30.45 -11.7 30.65 -11.7 30.7 -11.75 30.75 -11.75 30.75 -11.8 30.8 -11.8 30.85 -11.85 30.9 -11.9 30.9 -11.9 30.95 -11.95 31.0 -12.0 31.0 -12.05 30.9 -15.3 26.65 -17.35 24.05 -18.45 22.15 -18.15 22.2 -16.55 22.6 -15.4 22.9 -8.95 23.85 -8.8 23.85 -8.65 23.9 -8.55 23.9 -8.4 23.95 -8.3 23.95 -8.1 23.95 -7.9 24.0 -7.8 24.0 -7.65 24.05 -7.5 24.05 -7.35 24.05 -7.25 24.1 -7.1 24.1 -6.95 24.15 -6.8 24.2 -6.65 24.25 L-6.65 24.25" fill="#000000" fill-opacity="0.2901961" fill-rule="evenodd" stroke="none"/>
    <path d="M20.7 20.2 Q20.4 20.35 20.1 20.45 19.8 20.6 19.55 20.75 19.25 20.9 19.0 21.05 18.75 21.25 18.5 21.4 18.25 21.6 18.0 21.8 17.75 22.0 17.5 22.2 17.3 22.45 17.1 22.65 16.85 22.9 16.7 23.15 16.6 23.3 16.55 23.4 16.45 23.55 16.4 23.65 16.35 23.8 16.35 23.9 16.35 24.0 16.35 24.15 16.35 24.25 16.4 24.35 16.4 24.45 16.5 24.55 16.55 24.7 16.65 24.8 16.75 24.9 16.85 25.0 17.25 25.4 20.35 28.1 20.3 28.25 20.3 28.3 20.25 28.4 20.25 28.5 20.25 28.55 20.2 28.6 20.2 28.65 20.15 28.65 20.1 28.65 20.05 28.65 20.0 28.65 19.95 28.6 19.9 28.55 19.8 28.5 19.75 28.45 19.65 28.4 19.1 28.0 17.5 26.8 16.15 25.8 15.3 25.25 13.2 23.85 11.9 23.15 12.35 23.0 13.0 22.75 12.7 22.85 14.1 22.35 14.8 22.15 15.25 21.95 15.85 21.75 16.35 21.55 16.9 21.35 17.4 21.1 17.95 20.85 18.5 20.6 19.0 20.35 19.5 20.05 20.05 19.75 20.5 19.4 20.6 19.55 20.7 20.2 L20.7 20.2" fill="#000000" fill-opacity="0.2901961" fill-rule="evenodd" stroke="none"/>
    <path d="M-17.2 21.0 Q-17.4 20.95 -17.6 20.9 -17.8 20.85 -18.0 20.8 -18.2 20.7 -18.4 20.65 -18.6 20.6 -18.8 20.55 -18.95 20.45 -19.15 20.4 -19.35 20.3 -19.5 20.2 -19.7 20.15 -19.9 20.05 -20.05 19.95 -20.25 19.85 -20.35 19.8 -20.4 19.75 -20.5 19.7 -20.55 19.65 -20.6 19.6 -20.65 19.55 -20.65 19.45 -20.7 19.4 -20.7 19.35 -20.75 19.3 -20.75 19.2 -20.75 19.15 -20.75 19.05 -20.7 19.0 -20.7 18.9 -20.7 18.8 -20.65 18.65 -20.6 18.5 -20.55 18.4 -20.55 18.25 -20.5 18.1 -20.5 17.95 -20.45 17.8 -20.45 17.65 -20.45 17.5 -20.4 17.35 -20.4 17.25 -20.4 17.1 -20.4 16.95 -20.4 16.8 -20.4 16.65 -20.4 16.5 -20.4 16.2 -20.35 16.1 -20.35 16.0 -20.3 15.9 -20.3 15.85 -20.25 15.8 -20.25 15.7 -20.2 15.7 -20.2 15.65 -20.15 15.65 -20.1 15.6 -20.05 15.6 -20.0 15.6 -19.95 15.65 -19.9 15.65 -19.85 15.7 -19.75 15.7 -19.7 15.8 -19.55 15.9 -19.35 16.0 -19.2 16.05 -19.05 16.15 -18.85 16.25 -18.7 16.3 -18.5 16.4 -18.35 16.45 -18.15 16.55 -18.0 16.6 -17.8 16.65 -17.65 16.75 -17.45 16.8 -17.25 16.85 -17.1 16.9 -16.9 16.95 -16.95 17.05 -17.0 17.2 -17.05 17.3 -17.1 17.4 -17.1 17.55 -17.15 17.65 -17.15 17.75 -17.15 17.9 -17.15 18.0 -17.15 18.1 -17.1 18.25 -17.1 18.35 -17.05 18.45 -17.05 18.6 -17.0 18.7 -16.95 18.8 -16.95 18.85 -16.95 18.9 -16.95 18.95 -16.95 19.0 -16.95 19.05 -16.95 19.1 -16.95 19.15 -16.95 19.15 -16.95 19.2 -16.95 19.25 -17.0 19.35 -17.0 19.45 -17.05 19.55 -17.1 19.7 -17.1 19.8 -17.15 19.9 -17.15 20.0 -17.15 20.1 -17.2 20.2 -17.2 20.35 -17.2 20.45 -17.2 20.55 -17.2 20.65 -17.2 20.8 -17.2 20.9 -17.2 21.0 L-17.2 21.0" fill="#000000" fill-opacity="0.2901961" fill-rule="evenodd" stroke="none"/>
    <path d="M-15.75 21.3 Q-15.85 21.25 -15.9 21.2 -15.95 21.15 -16.0 21.05 -16.05 21.0 -16.1 20.9 -16.1 20.85 -16.15 20.75 -16.15 20.7 -16.15 20.6 -16.15 20.55 -16.15 20.45 -16.15 20.4 -16.1 20.3 -16.1 20.2 -16.05 20.15 -16.0 20.0 -16.0 19.9 -15.95 19.75 -15.95 19.65 -15.9 19.5 -15.9 19.4 -15.9 19.25 -15.9 19.15 -15.9 19.0 -15.9 18.9 -15.9 18.75 -15.9 18.65 -15.95 18.5 -15.95 18.35 -16.0 18.25 -16.0 18.1 -16.05 18.0 -16.05 17.9 -16.05 17.85 -16.05 17.75 -16.05 17.7 -16.0 17.6 -15.95 17.55 -15.9 17.5 -15.85 17.45 -15.8 17.4 -15.75 17.4 -15.65 17.35 -15.6 17.35 -15.5 17.35 -15.4 17.35 -15.3 17.35 -14.05 17.6 -11.75 18.0 -11.75 18.0 -11.7 18.0 -11.65 18.0 -11.65 18.0 -11.6 18.05 -11.6 18.05 -11.55 18.05 -11.55 18.05 -11.5 18.05 -11.5 18.1 -11.5 18.1 -11.5 18.15 -11.5 18.15 -11.5 18.2 -11.55 18.25 -11.55 18.3 -11.6 18.4 -11.65 18.45 -11.7 18.55 -11.75 18.65 -11.75 18.7 -11.8 18.8 -11.8 18.9 -11.85 19.0 -11.85 19.1 -11.9 19.15 -11.9 19.25 -11.9 19.35 -11.9 19.45 -11.95 19.55 -11.95 19.65 -11.95 19.75 -13.45 19.7 -14.65 19.7 -14.8 19.7 -14.9 19.7 -15.0 19.75 -15.1 19.8 -15.2 19.8 -15.3 19.85 -15.4 19.9 -15.45 20.0 -15.5 20.05 -15.6 20.15 -15.65 20.2 -15.65 20.3 -15.7 20.4 -15.75 20.55 -15.75 20.65 -15.75 20.8 -15.75 20.9 -15.75 21.3 L-15.75 21.3" fill="#000000" fill-opacity="0.2901961" fill-rule="evenodd" stroke="none"/>
    <path d="M-8.4 -27.55 Q-8.45 -27.5 -8.5 -27.4 -8.55 -27.35 -8.6 -27.25 -8.65 -27.2 -8.65 -27.1 -8.7 -27.05 -8.7 -27.0 -8.75 -26.9 -8.75 -26.85 -8.75 -26.75 -8.75 -26.7 -8.75 -26.6 -8.75 -26.55 -8.75 -26.45 -8.75 -26.4 -8.75 -26.3 -8.75 -26.2 -8.75 -26.15 -8.75 -26.05 -8.75 -25.95 -8.75 -25.85 -8.75 -25.75 -8.8 -25.7 -8.8 -25.6 -8.8 -25.5 -8.85 -25.4 -8.85 -25.35 -8.85 -25.25 -8.9 -25.15 -8.9 -25.05 -8.95 -25.0 -9.0 -24.9 -9.0 -24.85 -9.0 -24.75 -9.05 -24.7 -9.05 -24.6 -9.05 -24.55 -9.1 -24.45 -9.1 -24.35 -9.1 -24.3 -9.1 -24.2 -9.1 -24.1 -9.1 -24.05 -9.1 -23.95 -9.1 -23.85 -9.1 -23.75 -9.05 -23.65 -9.2 -23.7 -9.3 -23.75 -9.4 -23.85 -9.5 -23.9 -9.6 -23.95 -9.7 -24.0 -9.8 -24.05 -9.9 -24.1 -10.0 -24.2 -10.1 -24.25 -10.2 -24.3 -10.3 -24.4 -10.4 -24.45 -10.5 -24.55 -10.55 -24.6 -10.65 -24.7 -10.7 -24.75 -10.7 -24.75 -10.75 -24.8 -10.75 -24.85 -10.75 -24.85 -10.75 -24.9 -10.75 -24.95 -10.75 -25.0 -10.75 -25.0 -10.75 -25.05 -10.6 -25.7 -10.35 -27.5 -10.35 -27.6 -10.3 -27.65 -10.3 -27.75 -10.25 -27.8 -10.25 -27.85 -10.2 -27.9 -10.2 -27.95 -10.15 -28.0 -10.1 -28.0 -10.05 -28.05 -10.0 -28.05 -9.9 -28.05 -9.85 -28.05 -9.8 -28.05 -9.7 -28.0 -9.6 -28.0 -9.4 -27.95 -9.0 -27.8 -8.6 -27.6 -8.4 -27.55 L-8.4 -27.55" fill="#000000" fill-opacity="0.2901961" fill-rule="evenodd" stroke="none"/>
    <path d="M-6.4 19.75 Q-7.9 19.75 -10.8 19.7 -10.8 19.5 -10.8 19.35 -10.8 19.2 -10.75 19.05 -10.7 18.9 -10.65 18.8 -10.55 18.7 -10.5 18.6 -10.4 18.5 -10.25 18.45 -10.15 18.4 -10.05 18.35 -9.9 18.3 -9.75 18.3 -9.6 18.3 -9.4 18.3 -8.95 18.35 -7.95 18.45 -7.0 18.5 -6.5 18.55 -6.45 18.55 -6.4 18.55 -6.35 18.55 -6.3 18.6 -6.3 18.6 -6.25 18.6 -6.2 18.6 -6.2 18.65 -6.2 18.65 -6.15 18.7 -6.15 18.7 -6.15 18.75 -6.15 18.8 -6.2 18.85 -6.2 18.9 -6.25 18.95 -6.25 19.0 -6.3 19.05 -6.3 19.1 -6.35 19.15 -6.35 19.2 -6.35 19.25 -6.35 19.3 -6.4 19.35 -6.4 19.4 -6.4 19.45 -6.4 19.45 -6.4 19.55 -6.4 19.55 -6.4 19.65 -6.35 19.15 -6.4 19.75 L-6.4 19.75" fill="#000000" fill-opacity="0.2901961" fill-rule="evenodd" stroke="none"/>
    <path d="M-5.75 -26.25 Q-5.85 -26.3 -5.95 -26.35 -6.05 -26.4 -6.15 -26.45 -6.25 -26.5 -6.35 -26.5 -6.45 -26.5 -6.55 -26.5 -6.65 -26.5 -6.75 -26.45 -6.85 -26.45 -6.9 -26.4 -7.0 -26.35 -7.1 -26.3 -7.2 -26.2 -7.25 -26.1 -7.35 -26.0 -7.4 -25.9 -7.5 -25.8 -7.55 -25.65 -7.6 -25.55 -7.65 -25.45 -7.7 -25.35 -7.75 -25.2 -7.8 -25.1 -7.8 -24.95 -7.85 -24.85 -7.85 -24.7 -7.85 -24.55 -7.85 -24.45 -7.85 -24.3 -7.85 -24.15 -7.85 -24.1 -7.8 -24.0 -7.8 -23.95 -7.75 -23.9 -7.7 -23.85 -7.65 -23.8 -7.6 -23.75 -7.55 -23.7 -7.5 -23.65 -7.45 -23.6 -7.45 -23.6 -7.35 -23.5 -7.3 -23.45 -7.25 -23.45 -7.2 -23.4 -7.15 -23.35 -7.1 -23.3 -7.1 -23.3 -7.05 -23.25 -7.0 -23.25 -7.0 -23.25 -6.95 -23.2 -6.9 -23.2 -6.85 -23.15 -6.8 -23.15 -6.8 -23.1 -6.75 -23.1 -6.75 -23.05 -6.7 -23.05 -6.7 -23.0 -6.65 -22.95 -6.65 -22.9 -6.75 -22.9 -6.8 -22.9 -6.9 -22.95 -6.95 -22.95 -7.05 -22.95 -7.15 -23.0 -7.2 -23.0 -7.3 -23.05 -7.35 -23.05 -7.45 -23.05 -7.5 -23.1 -7.6 -23.1 -7.65 -23.15 -7.75 -23.15 -7.8 -23.2 -7.9 -23.2 -7.95 -23.25 -8.05 -23.25 -8.1 -23.3 -8.15 -23.35 -8.25 -23.45 -8.3 -23.5 -8.35 -23.6 -8.35 -23.65 -8.4 -23.75 -8.45 -23.8 -8.45 -23.9 -8.5 -24.0 -8.5 -24.1 -8.5 -24.2 -8.5 -24.3 -8.45 -24.35 -8.4 -24.5 -8.4 -24.65 -8.35 -24.8 -8.3 -24.9 -8.3 -25.05 -8.25 -25.2 -8.2 -25.35 -8.2 -25.5 -8.15 -25.65 -8.15 -25.8 -8.15 -25.9 -8.1 -26.05 -8.1 -26.2 -8.1 -26.35 -8.1 -26.5 -8.1 -26.65 -8.1 -26.75 -8.1 -26.8 -8.1 -26.9 -8.05 -26.95 -8.05 -27.05 -8.0 -27.1 -7.95 -27.15 -7.9 -27.15 -7.85 -27.2 -7.8 -27.2 -7.7 -27.25 -7.65 -27.25 -7.55 -27.25 -7.5 -27.25 -7.4 -27.25 -7.3 -27.2 -7.0 -27.15 -6.4 -27.0 -5.8 -26.85 -5.5 -26.8 -5.6 -26.6 -5.75 -26.25 L-5.75 -26.25" fill="#000000" fill-opacity="0.2901961" fill-rule="evenodd" stroke="none"/>
    <path d="M-0.9 18.75 Q-0.9 18.8 -0.9 18.8 -0.95 18.85 -0.95 18.85 -1.0 18.9 -1.0 18.9 -1.05 18.95 -1.05 18.95 -1.1 18.95 -1.1 18.95 -1.15 18.95 -1.15 18.95 -1.2 18.95 -1.25 19.0 -1.25 19.0 -1.3 19.0 -1.55 19.1 -1.8 19.15 -2.0 19.25 -2.25 19.3 -2.5 19.35 -2.75 19.4 -3.0 19.45 -3.25 19.5 -3.5 19.55 -3.8 19.6 -4.0 19.6 -4.3 19.65 -4.5 19.65 -4.8 19.7 -5.35 19.75 -5.3 19.75 -5.3 19.6 -5.25 19.5 -5.25 19.35 -5.2 19.3 -5.2 19.2 -5.15 19.1 -5.1 19.0 -5.0 18.95 -4.95 18.9 -4.85 18.85 -4.8 18.8 -4.7 18.8 -4.6 18.75 -4.5 18.75 -4.4 18.7 -4.25 18.75 -2.85 18.75 -0.9 18.75 L-0.9 18.75" fill="#000000" fill-opacity="0.2901961" fill-rule="evenodd" stroke="none"/>
    <path d="M-1.15 -25.95 Q-1.35 -25.95 -1.55 -25.95 -1.8 -25.95 -2.0 -25.95 -2.2 -25.95 -2.4 -25.95 -2.6 -26.0 -2.85 -26.0 -3.05 -26.0 -3.25 -26.05 -3.45 -26.05 -3.7 -26.1 -3.9 -26.1 -4.1 -26.15 -4.3 -26.15 -4.5 -26.2 -4.6 -26.2 -4.8 -26.2 -5.0 -26.2 -5.05 -26.2 -5.0 -26.25 -5.0 -26.35 -4.95 -26.4 -4.9 -26.45 -4.9 -26.5 -4.85 -26.55 -4.8 -26.55 -4.75 -26.6 -4.7 -26.6 -4.65 -26.6 -4.6 -26.65 -4.5 -26.65 -4.45 -26.65 -4.4 -26.65 -4.3 -26.65 -4.25 -26.65 -4.1 -26.6 -3.9 -26.6 -3.75 -26.55 -3.6 -26.55 -3.45 -26.5 -3.25 -26.5 -3.1 -26.5 -2.95 -26.45 -2.75 -26.45 -2.6 -26.45 -2.45 -26.4 -2.3 -26.4 -2.1 -26.4 -1.95 -26.4 -1.8 -26.4 -1.6 -26.4 -1.55 -26.4 -1.5 -26.4 -1.45 -26.4 -1.4 -26.4 -1.35 -26.35 -1.3 -26.35 -1.25 -26.35 -1.25 -26.3 -1.2 -26.3 -1.2 -26.25 -1.15 -26.2 -1.15 -26.15 -1.15 -26.1 -1.15 -26.05 -1.15 -26.0 -1.15 -25.95 L-1.15 -25.95" fill="#000000" fill-opacity="0.2901961" fill-rule="evenodd" stroke="none"/>
    <path d="M2.15 -26.8 Q2.1 -26.75 2.05 -26.65 2.0 -26.6 1.95 -26.55 1.85 -26.55 1.8 -26.5 1.75 -26.45 1.65 -26.45 1.6 -26.4 1.5 -26.4 1.45 -26.35 1.35 -26.35 1.25 -26.3 1.2 -26.3 1.15 -26.25 1.05 -26.25 0.95 -26.2 0.85 -26.2 0.8 -26.15 0.7 -26.1 0.6 -26.1 0.5 -26.1 0.4 -26.05 0.3 -26.05 0.2 -26.0 0.1 -26.0 0.05 -26.0 -0.05 -26.0 -0.15 -25.95 -0.25 -25.95 -0.35 -25.95 -0.45 -25.95 -0.5 -26.0 -0.5 -26.05 -0.55 -26.15 -0.55 -26.2 -0.55 -26.25 -0.55 -26.25 -0.55 -26.3 -0.5 -26.35 -0.5 -26.4 -0.45 -26.4 -0.45 -26.4 -0.4 -26.45 -0.35 -26.45 -0.25 -26.45 -0.2 -26.45 -0.1 -26.45 0.05 -26.45 0.2 -26.45 0.3 -26.5 0.45 -26.5 0.6 -26.5 0.75 -26.55 0.85 -26.55 1.05 -26.6 1.1 -26.6 1.3 -26.65 1.5 -26.7 1.6 -26.7 1.75 -26.75 1.9 -26.75 2.05 -26.8 2.15 -26.8 L2.15 -26.8" fill="#000000" fill-opacity="0.2901961" fill-rule="evenodd" stroke="none"/>
    <path d="M8.1 -3.95 Q8.2 -3.9 8.15 -3.85 8.15 -3.85 8.1 -3.75 5.75 1.4 4.05 4.0 4.05 4.0 4.0 4.05 4.0 4.1 3.95 4.15 3.95 4.2 3.9 4.2 3.9 4.25 3.9 4.25 3.85 4.3 3.8 4.35 3.8 4.35 3.75 4.35 3.7 4.4 3.7 4.4 3.65 4.4 3.55 4.4 3.8 4.0 3.9 3.75 3.9 3.8 4.05 3.6 4.1 3.5 4.05 3.45 4.05 3.4 4.0 3.4 3.95 3.4 3.95 3.4 3.9 3.35 3.9 3.35 3.85 3.35 3.85 3.35 3.8 3.35 3.8 3.4 3.75 3.4 3.7 3.4 3.7 3.4 3.65 3.4 3.65 3.4 3.6 3.45 3.55 3.45 3.4 3.6 3.3 3.7 1.85 5.25 1.85 5.25 1.8 5.3 1.75 5.35 1.75 5.35 1.75 5.35 1.75 5.35 1.7 5.4 1.7 5.4 1.7 5.45 1.7 5.45 1.7 5.5 1.7 5.5 1.7 5.55 1.75 5.55 1.75 5.6 1.8 5.6 1.7 5.7 1.55 5.8 1.4 5.9 1.3 6.0 1.15 6.1 1.0 6.2 0.85 6.3 0.7 6.35 0.55 6.45 0.4 6.5 0.25 6.55 0.1 6.6 -0.05 6.65 -0.2 6.75 -0.35 6.8 -0.5 6.8 -0.65 6.85 -0.8 6.9 -0.95 6.9 -1.1 6.95 -1.25 6.95 -1.4 7.0 -1.55 7.0 -1.75 7.0 -1.85 7.0 -2.05 7.05 -2.4 7.05 -2.35 7.05 -2.5 7.05 -2.65 7.05 -2.8 7.1 -2.95 7.1 -3.0 7.1 -3.05 7.1 -3.1 7.1 -3.15 7.1 -3.15 7.1 -3.2 7.1 -3.25 7.05 -3.3 7.05 -3.3 7.0 -3.35 6.95 -3.35 6.95 -3.3 6.9 -3.3 6.9 -3.3 6.85 -2.75 6.55 -2.2 6.2 -1.7 5.85 -1.15 5.5 -0.65 5.15 -0.15 4.75 0.35 4.4 0.85 3.95 1.35 3.6 1.8 3.15 2.25 2.75 2.75 2.3 3.2 1.9 3.65 1.45 4.1 1.0 4.55 0.55 4.8 0.3 5.05 0.05 5.3 -0.25 5.55 -0.5 5.8 -0.8 6.0 -1.05 6.25 -1.35 6.45 -1.6 6.7 -1.9 6.9 -2.15 7.1 -2.45 7.35 -2.75 7.55 -3.05 7.75 -3.35 7.95 -3.65 8.1 -3.95 L8.1 -3.95" fill="#000000" fill-opacity="0.2901961" fill-rule="evenodd" stroke="none"/>
    <path d="M8.1 -3.95 Q7.9 -3.65 7.7 -3.35 7.55 -3.05 7.3 -2.75 7.1 -2.45 6.9 -2.15 6.7 -1.9 6.45 -1.6 6.25 -1.35 6.0 -1.05 5.8 -0.8 5.55 -0.5 5.3 -0.25 5.05 0.0 4.8 0.25 4.55 0.55 4.1 1.0 3.65 1.45 3.2 1.9 2.75 2.3 2.25 2.75 1.8 3.15 1.35 3.6 0.85 3.95 0.35 4.4 -0.15 4.75 -0.65 5.15 -1.15 5.5 -1.65 5.85 -2.2 6.2 -2.75 6.55 -3.3 6.85 -3.3 6.9 -3.35 6.95 -3.8 7.0 -3.85 7.0 -3.3 6.5 -3.25 6.4 -2.05 5.1 1.9 1.65 2.7 0.9 6.15 -2.7 6.55 -3.1 8.25 -4.55 8.25 -4.5 8.25 -4.45 8.25 -4.4 8.25 -4.35 8.25 -4.35 8.25 -4.3 8.25 -4.25 8.2 -4.2 8.2 -4.2 8.2 -4.15 8.15 -4.1 8.15 -4.1 8.15 -4.05 8.1 -4.05 8.1 -4.0 8.1 -3.95 L8.1 -3.95" fill="#030303" fill-rule="evenodd" stroke="none"/>
    <path d="M1.8 5.6 Q1.75 5.55 1.7 5.55 1.7 5.5 1.7 5.5 1.7 5.45 1.7 5.45 1.7 5.4 1.7 5.4 1.75 5.35 1.75 5.35 1.75 5.35 1.8 5.3 1.85 5.3 1.85 5.25 1.85 5.25 1.85 5.2 2.35 4.7 3.4 3.6 3.45 3.6 3.45 3.55 3.5 3.5 3.55 3.5 3.6 3.45 3.6 3.45 3.65 3.4 3.7 3.4 3.75 3.4 3.8 3.35 3.85 3.35 3.85 3.35 3.9 3.35 3.95 3.4 4.0 3.4 4.05 3.45 4.1 3.5 4.05 3.6 3.95 3.75 3.9 3.75 3.85 3.85 3.55 4.4 3.45 4.5 3.4 4.65 3.3 4.75 3.2 4.85 3.1 4.95 3.0 5.0 2.9 5.1 2.8 5.2 2.7 5.25 2.6 5.35 2.45 5.4 2.35 5.45 2.2 5.5 2.1 5.55 1.95 5.6 1.8 5.6 L1.8 5.6" fill="#030303" fill-rule="evenodd" stroke="none"/>
  </g>
</svg>
