<?xml version="1.0" encoding="UTF-8" standalone="no"?>
<svg xmlns:xlink="http://www.w3.org/1999/xlink" height="200.0px" width="200.0px" xmlns="http://www.w3.org/2000/svg">
  <g transform="matrix(1.0, 0.0, 0.0, 1.0, 100.0, 100.0)">
    <path d="M-18.55 -6.4 Q-18.4 -6.6 -18.25 -6.85 -18.1 -7.1 -17.9 -7.3 -17.7 -7.6 -17.55 -7.85 -17.35 -8.1 -17.1 -8.35 -16.9 -8.65 -16.65 -8.9 -16.45 -9.2 -16.2 -9.5 -15.9 -9.8 -15.65 -10.1 -15.35 -10.4 -15.1 -10.7 -14.6 -11.25 -14.35 -11.45 -13.95 -11.9 -13.55 -12.25 -13.1 -12.65 -12.7 -13.05 -12.25 -13.45 -11.75 -13.85 -11.25 -14.25 -10.75 -14.6 -10.2 -15.0 -9.65 -15.3 -9.1 -15.65 -8.5 -15.95 -7.85 -16.3 -7.2 -16.5 -6.3 -16.85 -5.4 -17.05 -4.55 -17.3 -3.65 -17.4 -2.8 -17.5 -1.95 -17.5 -1.15 -17.5 -0.35 -17.45 0.35 -17.4 1.1 -17.25 1.75 -17.15 2.4 -17.0 2.95 -16.85 3.5 -16.7 4.0 -16.6 4.45 -16.4 4.55 -16.55 4.7 -16.7 4.8 -16.85 4.95 -17.0 5.15 -17.15 5.3 -17.3 5.5 -17.5 5.7 -17.65 5.9 -17.85 6.1 -18.0 6.35 -18.2 6.6 -18.35 6.85 -18.5 7.1 -18.65 7.4 -18.85 7.7 -18.95 7.9 -19.05 8.05 -19.1 8.25 -19.2 8.4 -19.25 8.6 -19.35 8.75 -19.4 8.9 -19.45 9.1 -19.5 9.25 -19.55 9.4 -19.6 9.55 -19.65 9.7 -19.7 9.85 -19.7 10.0 -19.75 10.1 -19.75 10.25 -19.8 10.6 -19.5 10.9 -19.2 11.2 -18.95 11.5 -18.65 11.8 -18.4 12.05 -18.1 12.3 -17.85 12.6 -17.6 12.8 -17.35 13.05 -17.05 13.25 -16.85 13.5 -16.6 13.7 -16.35 13.9 -16.15 14.05 -15.9 14.25 -15.7 14.6 -15.25 14.95 -14.85 15.2 -14.45 15.45 -14.05 15.7 -13.75 15.9 -13.4 16.05 -13.15 16.2 -12.85 16.3 -12.65 16.4 -12.4 16.5 -12.2 16.55 -12.0 16.6 -11.85 16.65 -11.7 16.65 -11.55 16.7 -11.4 16.75 -11.2 16.75 -11.0 16.75 -10.8 16.8 -10.65 16.8 -10.45 16.8 -10.25 16.8 -10.1 16.75 -9.9 16.75 -9.75 16.75 -9.55 16.7 -9.35 16.7 -9.2 16.65 -9.0 16.65 -8.8 16.6 -8.7 16.6 -8.45 16.55 -8.1 16.45 -7.8 16.4 -7.45 16.35 -7.15 16.25 -6.85 16.15 -6.55 16.1 -6.3 16.0 -6.0 15.9 -5.75 15.8 -5.5 15.7 -5.3 15.6 -5.05 15.55 -4.85 15.45 -4.65 15.35 -4.45 15.25 -4.25 15.3 -3.4 15.35 -2.6 15.45 -1.75 15.5 -0.9 15.6 0.0 15.7 0.9 15.85 1.8 15.95 2.75 16.1 3.7 16.25 4.65 16.45 5.6 16.6 6.6 16.8 7.6 17.05 8.6 17.25 9.6 17.5 10.65 17.65 11.3 17.8 11.9 18.0 12.55 18.15 13.15 18.35 13.75 18.5 14.35 18.7 14.95 18.85 15.55 19.05 16.1 19.25 16.7 19.4 17.25 19.6 17.8 19.8 18.35 20.0 18.9 20.15 19.4 20.35 19.95 20.15 20.05 19.95 20.15 19.7 20.3 19.45 20.4 19.2 20.55 19.0 20.65 18.7 20.8 18.45 20.9 18.15 21.05 17.9 21.2 17.6 21.3 17.25 21.45 16.95 21.6 16.65 21.7 16.3 21.85 15.95 22.0 15.65 22.1 15.45 22.2 15.05 22.35 14.65 22.45 14.2 22.6 13.7 22.8 13.1 22.95 12.5 23.15 11.8 23.3 11.1 23.5 10.3 23.7 9.5 23.85 8.6 24.0 7.7 24.15 6.75 24.3 5.75 24.45 4.9 24.55 4.35 24.6 3.55 24.7 2.8 24.75 1.85 24.8 1.0 24.85 0.0 24.9 -0.95 24.85 -2.05 24.85 -3.1 24.8 -4.3 24.7 -5.45 24.6 -6.65 24.45 -7.9 24.2 -9.2 23.95 -10.5 23.6 -11.05 23.45 -11.55 23.3 -12.15 23.15 -12.7 22.95 -13.35 22.75 -13.95 22.55 -14.65 22.3 -15.3 22.0 -16.05 21.7 -16.75 21.4 -17.5 21.05 -18.25 20.7 -19.05 20.3 -19.8 19.85 -20.6 19.4 -21.4 18.9 -21.3 18.75 -21.25 18.55 -21.15 18.35 -21.1 18.15 -21.0 17.95 -20.9 17.75 -20.8 17.5 -20.7 17.3 -20.6 17.05 -20.5 16.8 -20.4 16.55 -20.3 16.3 -20.2 16.0 -20.1 15.7 -20.0 15.45 -19.9 15.15 -19.7 14.65 -19.55 14.3 -19.4 13.8 -19.25 13.4 -19.1 13.0 -18.95 12.55 -18.8 12.15 -18.65 11.7 -18.55 11.25 -18.4 10.85 -18.3 10.4 -18.15 9.95 -18.05 9.45 -17.95 9.0 -17.85 8.5 -17.75 8.0 -17.65 7.6 -17.65 7.4 -17.55 7.05 -17.5 6.8 -17.45 6.5 -17.4 6.25 -17.4 6.0 -17.35 5.75 -17.3 5.45 -17.3 5.2 -17.25 4.95 -17.25 4.7 -17.25 4.45 -17.2 4.15 -17.2 3.9 -17.2 3.6 -17.2 3.25 -17.25 2.9 -17.25 2.6 -17.3 2.25 -17.35 1.95 -17.4 1.65 -17.4 1.35 -17.5 1.0 -17.5 0.8 -17.6 0.3 -17.7 -0.2 -17.75 -0.45 -17.85 -0.9 -17.9 -1.35 -18.0 -1.9 -18.05 -2.4 -18.1 -2.7 -18.15 -3.05 -18.2 -3.35 -18.25 -3.65 -18.25 -3.9 -18.3 -4.2 -18.35 -4.45 -18.4 -4.75 -18.4 -4.95 -18.45 -5.2 -18.45 -5.45 -18.5 -5.65 -18.5 -5.85 -18.5 -6.05 -18.55 -6.25 -18.55 -6.4 L-18.55 -6.4" fill="#2a385b" fill-rule="evenodd" stroke="none"/>
  </g>
</svg>
