<?xml version="1.0" encoding="UTF-8" standalone="no"?>
<svg xmlns:xlink="http://www.w3.org/1999/xlink" height="200.0px" width="200.0px" xmlns="http://www.w3.org/2000/svg">
  <g transform="matrix(1.0, 0.0, 0.0, 1.0, 100.0, 100.0)">
    <path d="M-10.55 -24.65 Q-10.45 -24.6 -10.3 -24.5 -10.2 -24.45 -10.1 -24.4 -9.95 -24.3 -9.85 -24.25 -9.7 -24.15 -9.6 -24.1 -9.45 -24.0 -9.35 -23.95 -9.25 -23.85 -9.1 -23.8 -9.0 -23.7 -8.85 -23.65 -8.75 -23.55 -8.6 -23.5 -8.35 -23.35 -7.95 -23.05 -7.5 -22.75 -7.3 -22.6 -7.3 -22.55 -7.35 -22.5 -7.35 -22.4 -7.4 -22.35 -7.4 -22.25 -7.4 -22.2 -7.45 -22.1 -7.45 -22.0 -7.5 -21.9 -7.5 -21.85 -7.5 -21.75 -7.55 -21.65 -7.55 -21.55 -7.55 -21.4 -7.55 -21.3 -7.6 -21.2 -7.6 -20.8 -7.45 -19.7 -7.45 -19.6 -7.4 -19.45 -7.4 -19.3 -7.4 -19.2 -7.4 -19.05 -7.35 -18.9 -7.35 -18.75 -7.3 -18.55 -7.3 -18.4 -7.25 -18.2 -7.2 -18.05 -7.2 -17.85 -7.15 -17.65 -7.1 -17.45 -7.05 -17.25 -7.0 -17.0 -6.95 -16.85 -6.95 -16.75 -6.9 -16.65 -6.9 -16.55 -6.85 -16.45 -6.85 -16.35 -6.8 -16.3 -6.8 -16.2 -6.75 -16.15 -6.75 -16.1 -6.7 -16.05 -6.65 -16.0 -6.65 -16.0 -6.6 -15.95 -6.55 -15.95 -6.5 -15.95 -6.45 -15.95 -6.4 -15.95 -6.35 -16.0 -6.2 -16.1 -6.05 -16.2 -5.75 -16.45 -5.75 -16.45 -5.5 -16.6 -5.4 -16.7 -5.35 -16.75 -5.25 -16.8 -5.25 -16.8 -5.2 -16.8 -5.15 -16.85 -5.15 -16.85 -5.1 -16.8 -5.05 -16.8 -5.0 -16.75 -4.95 -16.75 -4.95 -16.7 -4.9 -16.7 -4.85 -16.6 -4.85 -16.55 -4.8 -16.5 -4.8 -16.45 -4.75 -16.35 -4.75 -16.3 -4.7 -16.2 -4.7 -16.15 -4.65 -16.0 -4.65 -15.95 -4.6 -15.85 -4.55 -15.65 -4.55 -15.65 -4.55 -15.55 -4.5 -15.5 -4.5 -15.4 -4.5 -15.35 -4.5 -15.3 -4.45 -15.25 -4.45 -15.15 -4.45 -15.1 -4.45 -15.05 -4.45 -15.0 -4.45 -14.95 -4.45 -14.9 -4.45 -14.85 -4.5 -14.8 -4.5 -14.7 -4.55 -14.6 -4.6 -14.55 -4.6 -14.5 -4.65 -14.45 -4.7 -14.35 -4.75 -14.3 -4.8 -14.25 -4.85 -14.2 -4.9 -14.15 -4.95 -14.1 -4.95 -14.05 -5.0 -14.0 -5.05 -13.95 -5.05 -13.9 -5.1 -13.8 -5.1 -13.7 -5.1 -13.65 -5.15 -13.55 -5.1 -13.45 -5.1 -13.4 -5.1 -13.3 -5.05 -13.2 -5.0 -13.15 -5.0 -13.05 -4.95 -12.95 -4.9 -12.9 -4.85 -12.8 -4.8 -12.7 -4.7 -12.6 -4.7 -12.55 -4.6 -12.4 -4.45 -12.25 -4.4 -12.15 -4.15 -11.9 -3.85 -11.6 -3.4 -11.2 -2.75 -10.7 -2.55 -10.55 -2.4 -10.45 -2.25 -10.35 -2.15 -10.25 -2.0 -10.15 -1.9 -10.1 -1.8 -10.05 -1.7 -10.0 -1.65 -9.95 -1.55 -9.9 -1.5 -9.9 -1.45 -9.9 -1.4 -9.9 -1.35 -9.9 -1.3 -9.9 -1.2 -9.9 -1.15 -9.9 -1.1 -9.95 -1.05 -9.95 -1.0 -10.0 -1.0 -10.05 -0.95 -10.05 -0.9 -10.1 -0.85 -10.15 -0.8 -10.2 -0.75 -10.25 -0.7 -10.3 -0.65 -10.35 -0.6 -10.4 -0.55 -10.45 -0.5 -10.45 -0.45 -10.55 -0.4 -10.6 -0.35 -10.65 -0.3 -10.65 -0.3 -10.7 -0.25 -10.75 -0.25 -10.75 -0.15 -10.85 -0.2 -10.8 -0.15 -10.85 -0.15 -10.85 -0.15 -10.85 -0.1 -10.85 -0.1 -10.9 -0.1 -10.9 -0.05 -10.9 -0.05 -10.9 0.0 -10.9 0.05 -10.95 0.1 -10.95 0.15 -10.95 0.2 -10.9 0.25 -10.9 0.3 -10.9 0.35 -10.85 0.4 -10.85 0.5 -10.8 0.6 -10.75 0.7 -10.7 0.75 -10.65 0.9 -10.55 1.1 -10.45 1.2 -10.4 1.65 -10.15 1.65 -10.15 1.85 -10.05 1.9 -10.0 1.95 -9.95 1.95 -9.85 1.95 -9.8 1.95 -9.75 1.95 -9.7 1.95 -9.65 1.95 -9.6 1.9 -9.55 1.9 -9.5 1.85 -9.45 1.8 -9.35 1.75 -9.3 1.7 -9.25 1.7 -9.2 1.65 -9.15 1.65 -9.05 1.6 -9.0 1.6 -8.9 1.6 -8.8 1.6 -8.75 1.6 -8.7 1.6 -8.6 1.6 -8.55 1.65 -8.45 1.65 -8.4 1.7 -8.35 1.75 -8.25 1.75 -8.2 1.8 -8.15 1.85 -8.05 1.85 -8.05 1.95 -7.9 2.0 -7.8 2.05 -7.75 2.15 -7.6 2.25 -7.4 2.3 -7.25 2.4 -7.1 2.45 -6.95 2.5 -6.8 2.6 -6.65 2.65 -6.5 2.7 -6.35 2.75 -6.2 2.75 -6.05 2.8 -5.95 2.85 -5.8 2.9 -5.7 2.9 -5.6 2.95 -5.5 3.0 -5.35 3.05 -5.15 3.05 -5.0 3.1 -4.8 3.05 -5.05 3.15 -4.5 3.15 -4.35 3.2 -4.25 3.2 -4.1 3.25 -4.0 3.3 -3.85 3.35 -3.75 3.4 -3.65 3.45 -3.55 3.5 -3.45 3.6 -3.35 3.65 -3.3 3.65 -3.3 3.7 -3.25 3.7 -3.2 3.75 -3.2 3.75 -3.15 3.8 -3.1 3.85 -3.1 3.85 -3.05 3.9 -3.0 3.95 -3.0 4.0 -2.95 4.05 -2.95 4.1 -2.9 4.15 -2.9 4.2 -2.85 4.25 -2.85 4.3 -2.8 4.35 -2.8 4.4 -2.8 4.45 -2.8 4.5 -2.75 4.55 -2.75 4.55 -2.75 4.6 -2.75 4.6 -2.75 4.65 -2.75 4.7 -2.7 4.7 -2.7 4.75 -2.7 4.75 -2.65 4.8 -2.65 4.85 -2.6 4.85 -2.6 4.85 -2.55 4.9 -2.5 4.9 -2.5 4.9 -2.45 4.9 -2.4 4.9 -2.35 4.9 -2.3 4.9 -2.25 4.9 -2.2 4.9 -2.15 4.9 -2.1 4.9 -2.05 4.9 -2.0 4.9 -1.95 4.9 -1.9 4.9 -1.85 4.9 -1.8 4.9 -1.75 4.9 -1.7 4.85 -1.65 4.85 -1.6 4.85 -1.55 4.85 -1.5 4.85 -1.45 4.85 -1.4 4.8 -1.35 4.8 -1.35 4.75 -1.3 4.75 -1.25 4.7 -1.2 4.65 -1.15 4.65 -1.1 4.6 -1.1 4.55 -1.05 4.5 -1.0 4.45 -1.0 4.4 -0.95 4.35 -0.95 4.3 -0.95 4.25 -0.9 4.2 -0.9 4.15 -0.9 3.95 -0.8 4.05 -0.85 3.95 -0.85 3.9 -0.8 3.8 -0.75 3.65 -0.7 3.55 -0.7 3.4 -0.6 3.3 -0.55 3.2 -0.5 3.05 -0.45 2.95 -0.35 2.85 -0.3 2.75 -0.2 2.65 -0.1 2.55 0.0 2.45 0.05 2.35 0.15 2.25 0.25 2.2 0.35 2.2 0.35 1.85 1.7 1.8 1.85 1.75 2.0 1.75 2.1 1.7 2.25 1.65 2.35 1.65 2.4 1.6 2.5 1.6 2.6 1.45 2.95 1.55 2.75 1.5 2.8 1.5 2.9 1.45 2.95 1.45 3.05 1.4 3.1 1.4 3.2 1.35 3.4 1.3 3.55 1.25 3.8 1.2 4.0 1.15 4.25 1.1 4.45 1.05 4.7 1.05 4.95 1.0 5.2 1.05 5.45 1.05 5.7 1.1 5.9 1.15 6.15 1.2 6.35 1.3 6.6 1.45 6.75 2.05 7.45 2.3 7.9 2.3 7.9 2.35 7.95 2.35 7.95 2.35 8.0 2.4 8.0 2.4 8.05 2.4 8.05 2.45 8.1 2.45 8.15 2.45 8.2 2.5 8.25 2.5 8.25 2.5 8.3 2.5 8.35 2.55 8.4 2.55 8.45 2.55 8.5 2.55 8.55 2.55 8.6 2.55 8.65 2.55 8.65 2.55 8.7 2.55 8.75 2.55 8.75 2.55 8.8 2.55 8.8 2.55 8.85 2.55 8.85 2.55 8.9 2.55 8.9 2.55 8.9 2.55 8.9 2.5 9.45 2.45 11.55 2.05 11.6 1.3 11.7 1.2 11.85 1.15 12.0 1.05 12.2 1.0 12.35 0.95 12.5 0.9 12.65 0.85 12.8 0.8 12.9 0.75 13.05 0.75 13.2 0.7 13.3 0.7 13.4 0.65 13.55 0.65 13.65 0.65 13.75 0.65 13.85 0.65 14.0 0.6 14.15 0.6 14.3 0.6 14.4 0.6 14.6 0.6 14.7 0.6 14.85 0.6 15.0 0.65 15.15 0.65 15.3 0.7 15.45 0.75 15.55 0.8 15.7 0.85 15.8 0.95 15.9 1.05 16.0 1.1 16.05 1.15 16.05 1.15 16.1 1.2 16.1 1.25 16.15 1.3 16.15 1.35 16.2 1.45 16.2 1.55 16.25 1.6 16.3 1.7 16.3 1.8 16.35 1.95 16.45 2.1 16.5 2.3 16.6 2.5 16.7 2.6 16.75 2.65 16.8 2.75 16.85 2.8 16.85 2.9 16.9 2.95 16.95 3.0 17.0 3.05 17.0 3.1 17.05 3.15 17.1 3.2 17.1 3.2 17.15 3.25 17.2 3.3 17.25 3.3 17.3 3.35 17.3 3.35 17.35 3.4 17.4 3.4 17.45 3.4 17.45 3.4 17.5 3.4 17.55 3.45 17.6 3.45 17.65 3.45 17.7 3.45 17.8 3.45 17.85 3.45 17.9 3.45 18.0 3.45 18.05 3.45 18.1 3.45 18.25 3.45 18.4 3.45 18.45 3.5 18.6 3.5 18.65 3.5 18.75 3.5 18.8 3.5 18.9 3.5 18.95 3.5 19.05 3.45 19.1 3.45 19.15 3.45 19.2 3.45 19.2 3.4 19.25 3.4 19.3 3.35 19.3 3.3 19.3 3.3 19.35 3.25 19.35 3.2 19.35 3.15 19.35 3.1 19.35 3.1 19.35 3.05 19.35 2.95 19.3 2.95 19.3 2.85 19.3 2.8 19.3 2.75 19.3 2.7 19.35 2.6 19.35 2.55 19.35 2.55 19.35 2.5 19.35 2.55 19.35 2.5 19.4 2.45 19.4 2.45 19.4 2.4 19.4 2.4 19.45 2.35 19.45 2.35 19.45 2.3 19.5 2.25 19.5 2.25 19.5 2.2 19.55 2.2 19.55 2.15 19.6 2.1 19.65 2.1 19.7 2.05 19.75 2.05 19.8 2.0 19.85 2.0 19.9 2.0 19.95 2.0 20.05 2.0 20.1 2.0 20.15 2.0 20.25 2.0 20.3 2.0 20.35 2.0 20.45 2.0 20.55 2.0 20.6 2.0 20.85 2.0 21.05 2.0 21.15 1.95 21.3 1.95 21.45 1.9 21.5 1.9 21.65 1.9 21.85 1.9 22.15 1.9 22.2 1.9 22.4 1.95 22.55 1.95 22.75 1.95 22.9 2.0 23.05 2.05 23.25 2.05 23.4 2.1 23.55 2.15 23.7 2.25 23.8 2.3 23.95 2.4 24.05 2.5 24.15 2.6 24.25 2.65 24.3 2.7 24.3 2.75 24.3 2.8 24.35 2.85 24.35 2.95 24.35 3.0 24.4 3.05 24.4 3.1 24.4 3.15 24.4 3.2 24.45 3.25 24.45 3.3 24.5 3.3 24.55 3.35 24.55 3.4 24.65 3.4 24.65 3.45 24.7 3.45 24.75 3.5 24.75 3.5 24.8 3.5 24.8 3.55 24.85 3.55 24.9 3.55 24.95 3.55 25.0 3.6 25.05 3.6 25.1 3.6 25.15 3.6 25.2 3.6 25.25 3.65 25.35 3.65 25.35 3.65 25.4 3.65 25.45 3.65 25.5 3.7 25.55 3.7 25.6 3.7 25.65 3.7 25.75 3.7 25.8 3.7 25.9 3.7 25.95 3.7 26.05 3.7 26.15 3.7 26.25 3.7 26.35 3.7 26.45 3.7 26.5 3.7 26.55 3.7 26.6 3.7 26.65 3.7 26.7 3.65 26.75 3.65 26.75 3.65 26.8 3.65 26.85 3.65 26.9 1.35 26.85 0.1 26.75 -0.55 26.7 -1.05 26.7 -1.7 26.65 -2.25 26.6 -2.95 26.55 -3.55 26.5 -4.25 26.45 -4.95 26.4 -5.7 26.3 -6.4 26.2 -7.15 26.1 -7.9 25.95 -8.7 25.8 -9.5 25.65 -10.35 25.5 -11.15 25.3 -11.65 25.15 -12.15 25.05 -12.65 24.9 -13.2 24.7 -13.8 24.55 -14.35 24.35 -15.0 24.15 -15.6 23.9 -16.25 23.65 -16.9 23.4 -17.55 23.1 -18.25 22.8 -18.95 22.5 -19.65 22.15 -20.4 21.8 -21.15 21.4 -21.15 21.25 -21.1 21.15 -21.1 21.0 -21.05 20.9 -21.05 20.75 -21.0 20.6 -20.95 20.4 -20.95 20.25 -20.9 20.1 -20.85 19.9 -20.8 19.75 -20.75 19.55 -20.7 19.35 -20.65 19.15 -20.6 18.95 -20.55 18.75 -20.45 18.4 -20.35 18.1 -20.25 17.8 -20.15 17.5 -20.1 17.25 -19.95 17.0 -19.9 16.75 -19.8 16.5 -19.7 16.3 -19.6 16.05 -19.3 15.4 -19.4 15.55 -19.25 15.25 -19.15 15.05 -19.05 14.75 -18.95 14.5 -18.9 14.3 -18.8 14.15 -18.75 13.9 -18.65 13.7 -18.55 13.4 -18.5 13.15 -18.4 12.85 -18.3 12.55 -18.2 12.2 -18.1 11.85 -18.0 11.5 -17.9 11.1 -17.85 10.7 -17.75 10.3 -17.7 9.9 -17.6 9.5 -17.55 9.25 -17.55 9.15 -17.55 8.9 -17.5 8.65 -17.45 8.35 -17.45 8.05 -17.45 7.65 -17.4 7.3 -17.4 6.85 -17.4 6.4 -17.4 5.9 -17.4 5.45 -17.45 4.9 -17.5 4.35 -17.55 3.8 -17.6 3.2 -17.65 2.8 -17.7 2.45 -17.8 2.15 -17.85 1.85 -17.9 1.6 -18.0 1.3 -18.05 1.05 -18.15 0.75 -18.4 0.0 -18.35 0.1 -18.5 -0.3 -18.6 -0.65 -18.75 -1.15 -18.85 -1.65 -19.0 -2.2 -19.2 -2.85 -20.35 -7.6 -20.4 -9.4 -20.4 -9.75 -20.45 -10.0 -20.45 -10.35 -20.45 -10.75 -20.45 -11.15 -20.4 -11.55 -20.4 -12.05 -20.35 -12.5 -20.3 -13.05 -20.2 -13.55 -20.1 -14.1 -20.0 -14.65 -19.85 -15.25 -19.65 -15.85 -19.45 -16.45 -19.2 -17.1 -19.1 -17.4 -19.0 -17.6 -18.9 -17.85 -18.8 -18.1 -18.65 -18.4 -18.55 -18.65 -18.4 -18.95 -18.25 -19.2 -18.05 -19.5 -17.9 -19.8 -17.7 -20.1 -17.5 -20.4 -17.25 -20.7 -17.0 -21.0 -16.7 -21.3 -16.45 -21.6 -16.05 -22.0 -15.6 -22.35 -15.2 -22.65 -14.75 -22.95 -14.35 -23.2 -13.95 -23.45 -13.55 -23.65 -13.15 -23.85 -12.75 -24.0 -12.35 -24.15 -12.0 -24.25 -11.65 -24.35 -11.35 -24.45 -11.05 -24.55 -10.8 -24.6 -10.55 -24.65 L-10.55 -24.65" fill="#7a5f41" fill-rule="evenodd" stroke="none"/>
    <path d="M4.4 -23.45 Q4.65 -23.3 4.8 -23.1 5.0 -22.95 5.15 -22.85 5.3 -22.7 5.4 -22.55 5.5 -22.45 5.6 -22.3 5.65 -22.2 5.7 -22.1 5.75 -22.0 5.8 -21.9 5.8 -21.85 5.8 -21.75 5.8 -21.65 5.8 -21.6 5.8 -21.55 5.75 -21.5 5.75 -21.45 5.7 -21.4 5.7 -21.35 5.65 -21.3 5.65 -21.3 5.55 -21.25 5.5 -21.2 5.5 -21.15 5.45 -21.15 5.45 -21.1 5.4 -21.05 5.35 -20.95 5.35 -20.9 5.3 -20.85 5.3 -20.75 5.3 -20.65 5.3 -20.5 5.3 -20.4 5.3 -20.3 5.35 -20.2 5.4 -20.1 5.45 -19.95 5.5 -19.85 5.55 -19.75 5.6 -19.65 5.7 -19.5 5.75 -19.4 5.85 -19.3 5.9 -19.2 6.0 -19.05 6.1 -18.95 6.15 -18.85 6.2 -18.75 6.25 -18.7 6.3 -18.65 6.35 -18.6 6.4 -18.55 6.45 -18.55 6.5 -18.5 6.5 -18.5 6.55 -18.45 6.55 -18.45 6.6 -18.45 6.6 -18.45 6.6 -18.45 6.65 -18.45 6.7 -18.45 6.75 -18.5 6.75 -18.5 6.8 -18.55 6.8 -18.6 6.85 -18.65 6.85 -18.7 6.9 -18.8 6.95 -18.9 6.95 -18.95 7.0 -19.0 7.0 -19.05 7.05 -19.1 7.1 -19.15 7.15 -19.25 7.25 -19.25 7.35 -19.3 7.45 -19.3 7.5 -19.35 7.65 -19.35 7.7 -19.3 7.85 -19.3 7.9 -19.25 8.05 -19.25 8.1 -19.2 8.2 -19.15 8.3 -19.1 8.35 -19.05 8.45 -19.0 8.5 -19.0 8.55 -18.95 8.6 -18.9 8.65 -18.9 8.65 -18.85 8.7 -18.8 8.8 -18.75 8.85 -18.7 8.95 -18.6 9.0 -18.55 9.1 -18.45 9.2 -18.35 9.25 -18.25 9.35 -18.1 9.4 -18.0 9.45 -17.85 9.45 -17.75 9.5 -17.6 9.5 -17.45 9.5 -17.4 9.5 -17.35 9.5 -17.35 9.45 -17.3 9.45 -17.25 9.45 -17.2 9.45 -17.2 9.4 -17.15 9.4 -17.1 9.4 -17.05 9.35 -17.0 9.35 -16.9 9.35 -16.85 9.3 -16.75 9.3 -16.7 9.25 -16.6 9.15 -15.95 9.2 -15.8 9.2 -15.7 9.25 -15.65 9.25 -15.55 9.3 -15.5 9.35 -15.4 9.4 -15.35 9.45 -15.25 9.55 -15.2 9.6 -15.1 9.7 -15.05 9.75 -15.0 9.85 -14.9 9.95 -14.85 10.1 -14.75 10.15 -14.7 10.35 -14.55 10.45 -14.5 10.55 -14.4 10.6 -14.35 10.7 -14.35 10.75 -14.3 10.8 -14.25 10.85 -14.25 10.9 -14.2 10.95 -14.2 10.95 -14.2 11.0 -14.2 11.05 -14.2 11.05 -14.2 11.05 -14.2 11.1 -14.2 11.1 -14.2 11.15 -14.2 11.15 -14.25 11.2 -14.25 11.2 -14.3 11.2 -14.35 11.25 -14.35 11.25 -14.4 11.25 -14.45 11.3 -14.5 11.3 -14.55 11.35 -14.6 11.35 -14.65 11.4 -14.7 11.4 -14.75 11.45 -14.85 11.5 -14.9 11.5 -14.9 11.55 -14.95 11.55 -15.0 11.55 -15.0 11.6 -15.05 11.65 -15.05 11.65 -15.1 11.7 -15.15 11.75 -15.2 11.75 -15.2 11.8 -15.25 11.85 -15.25 11.9 -15.3 11.95 -15.3 12.0 -15.35 12.05 -15.35 12.1 -15.35 12.15 -15.35 12.2 -15.35 12.3 -15.35 12.35 -15.35 12.4 -15.3 12.45 -15.25 12.55 -15.2 12.6 -15.15 12.7 -15.05 12.8 -15.0 12.9 -14.9 13.0 -14.85 13.1 -14.7 13.15 -14.7 13.35 -14.5 13.5 -14.35 13.8 -14.1 14.05 -13.85 14.1 -13.8 14.25 -13.65 14.35 -13.55 14.5 -13.45 14.55 -13.35 14.6 -13.3 14.65 -13.2 14.7 -13.15 14.75 -13.1 14.8 -13.05 14.8 -13.0 14.8 -12.95 14.8 -12.9 14.8 -12.85 14.8 -12.8 14.85 -12.75 14.85 -12.7 14.85 -12.65 14.85 -12.55 14.8 -12.45 14.8 -12.35 14.8 -12.25 14.75 -12.15 14.7 -12.05 14.65 -11.9 14.6 -11.8 14.5 -11.65 14.4 -11.5 14.3 -11.35 14.3 -11.2 14.35 -11.0 14.35 -10.85 14.4 -10.7 14.45 -10.55 14.45 -10.4 14.5 -10.25 14.55 -10.15 14.6 -10.0 14.65 -9.9 14.65 -9.8 14.7 -9.65 14.75 -9.6 14.8 -9.5 14.85 -9.4 14.9 -9.3 14.95 -9.2 14.95 -9.15 15.0 -9.05 15.05 -9.0 15.1 -8.9 15.2 -8.8 15.25 -8.7 15.3 -8.65 15.35 -8.55 15.45 -8.5 15.5 -8.4 15.55 -8.35 15.65 -8.3 15.7 -8.3 15.8 -8.25 15.85 -8.25 15.9 -8.25 15.95 -8.3 16.0 -8.3 16.05 -8.35 16.1 -8.4 16.1 -8.45 16.15 -8.5 16.2 -8.55 16.25 -8.65 16.25 -8.65 16.3 -8.7 16.3 -8.75 16.35 -8.8 16.4 -8.8 16.4 -8.85 16.45 -8.85 16.5 -8.85 16.6 -8.8 16.65 -8.8 16.7 -8.7 16.75 -8.65 16.85 -8.55 16.9 -8.45 16.95 -8.35 17.0 -8.2 17.05 -8.05 17.1 -7.95 17.15 -7.8 17.2 -7.65 17.2 -7.5 17.25 -7.3 17.25 -7.15 17.3 -7.0 17.3 -6.85 17.3 -6.7 17.3 -6.55 17.3 -6.4 17.3 -6.25 17.25 -6.1 17.25 -5.95 17.2 -5.8 17.15 -5.65 17.15 -5.5 17.1 -5.3 17.05 -5.15 17.0 -4.95 16.95 -4.9 16.9 -4.6 16.65 -3.7 16.5 -3.25 15.9 -1.15 15.95 -0.75 15.95 -0.6 15.95 -0.45 16.0 -0.3 16.0 -0.2 16.05 -0.1 16.1 0.05 16.1 0.15 16.2 0.3 16.3 0.55 16.3 0.6 16.4 0.8 16.5 1.0 16.55 1.2 16.65 1.5 16.75 1.8 16.85 2.15 16.9 2.4 17.0 2.65 17.05 2.85 17.1 3.05 17.1 3.2 17.15 3.35 17.15 3.5 17.2 3.6 17.2 3.7 17.2 3.8 17.2 3.9 17.2 3.95 17.15 4.0 17.15 4.05 17.1 4.1 17.1 4.1 17.05 4.1 17.0 4.1 16.95 4.1 16.9 4.05 16.85 4.05 16.8 3.95 16.9 4.05 16.65 3.85 16.55 3.8 16.5 3.75 16.4 3.65 16.35 3.65 16.25 3.6 16.15 3.55 16.05 3.5 15.95 3.5 15.85 3.5 15.75 3.55 15.7 3.55 15.6 3.6 15.5 3.6 15.45 3.65 15.35 3.7 15.3 3.8 15.25 3.85 15.15 3.9 15.1 3.95 15.05 4.05 15.0 4.1 14.9 4.2 14.85 4.25 14.8 4.35 14.75 4.55 14.75 4.65 14.7 4.85 14.7 5.05 14.65 5.3 14.65 5.5 14.6 5.75 14.6 6.0 14.6 6.25 14.6 6.5 14.6 6.75 14.6 7.0 14.65 7.25 14.7 7.45 14.75 7.65 14.8 7.85 14.8 7.85 14.85 7.9 14.85 7.95 14.9 8.0 14.9 8.05 14.95 8.1 14.95 8.15 15.0 8.2 15.05 8.25 15.05 8.25 15.1 8.3 15.15 8.35 15.2 8.4 15.2 8.4 15.25 8.4 15.3 8.45 15.35 8.45 15.4 8.45 15.45 8.4 15.45 8.4 15.5 8.35 15.55 8.3 15.55 8.3 15.6 8.25 15.65 8.2 15.65 8.2 15.7 8.15 15.75 8.1 15.75 8.1 15.8 8.05 15.85 8.05 15.9 8.05 15.95 8.05 16.05 8.05 16.1 8.1 16.15 8.15 16.25 8.2 16.3 8.25 16.35 8.3 16.45 8.4 16.5 8.45 16.55 8.55 16.6 8.65 16.65 8.75 16.7 8.85 16.75 8.95 16.8 9.05 16.8 9.1 16.85 9.2 16.85 9.3 16.9 9.4 16.9 9.5 16.95 9.6 16.95 9.7 16.95 9.8 16.95 9.9 16.95 10.0 16.95 10.1 16.95 10.2 16.95 10.3 16.95 10.4 16.95 10.5 16.95 10.6 16.95 10.75 16.95 10.75 16.9 11.0 16.9 11.15 16.9 11.25 16.9 11.35 16.85 11.5 16.85 11.6 16.8 11.75 16.8 11.85 16.75 11.95 16.7 12.05 16.7 12.15 16.65 12.2 16.6 12.25 16.55 12.3 16.45 12.35 16.4 12.35 16.35 12.35 16.35 12.35 16.3 12.3 16.25 12.3 16.2 12.25 16.25 12.25 16.1 12.15 16.05 12.1 16.05 12.1 16.0 12.05 15.95 12.05 15.9 12.0 15.8 12.0 15.75 12.0 15.7 12.0 15.65 12.0 15.6 12.0 15.6 12.05 15.55 12.05 15.5 12.05 15.45 12.1 15.45 12.15 15.4 12.15 15.4 12.2 15.35 12.2 15.35 12.25 15.3 12.3 15.3 12.3 15.25 12.35 15.25 12.35 15.25 12.4 15.2 12.5 15.15 12.55 15.15 12.65 15.1 12.75 15.1 12.85 15.05 12.95 15.05 13.05 15.05 13.15 15.05 13.25 15.05 13.35 15.05 13.45 15.05 13.55 15.05 13.7 15.05 13.8 15.05 13.95 15.1 14.1 15.15 14.9 15.3 15.9 15.3 15.9 15.3 15.85 15.35 15.8 15.35 15.8 15.35 15.75 15.4 15.75 15.4 15.7 15.45 15.65 15.45 15.6 15.5 15.55 15.55 15.55 15.6 15.5 15.6 15.45 15.65 15.45 15.7 15.4 15.8 15.4 15.85 15.4 15.95 15.4 16.0 15.4 16.05 15.4 16.1 15.45 16.15 15.5 16.2 15.5 16.25 15.55 16.3 15.6 16.35 15.65 16.4 15.65 16.4 15.7 16.45 15.75 16.5 15.8 16.5 15.8 16.5 15.8 16.5 15.85 16.55 15.85 16.55 15.9 16.6 15.95 16.6 16.0 16.6 16.05 16.65 16.15 16.65 16.25 16.65 16.35 16.7 16.5 16.7 16.65 16.7 16.8 16.7 17.0 16.75 17.25 16.75 17.5 16.75 17.75 16.75 18.05 16.75 18.25 16.75 18.5 16.75 18.5 16.75 18.6 16.75 18.75 16.8 19.5 16.75 19.55 16.75 19.55 16.7 19.55 16.7 19.55 16.7 19.55 16.65 19.55 16.65 19.5 16.65 19.5 16.6 19.45 16.55 19.45 16.55 19.45 16.5 19.4 16.5 19.4 16.45 19.35 16.4 19.35 16.35 19.3 16.3 19.3 16.3 19.3 16.25 19.3 16.25 19.25 16.2 19.25 16.2 19.25 16.15 19.25 16.1 19.25 16.05 19.2 16.05 19.2 16.0 19.2 15.95 19.2 15.9 19.2 15.85 19.2 15.8 19.2 15.8 19.2 15.75 19.2 15.7 19.2 15.7 19.2 15.7 19.25 15.7 19.25 15.65 19.25 15.65 19.3 15.6 19.35 15.6 19.35 15.55 19.4 15.55 19.45 15.5 19.5 15.5 19.6 15.45 19.7 15.4 19.75 15.4 19.85 15.35 20.0 15.35 20.1 15.3 20.15 15.3 20.2 15.3 20.3 15.25 20.35 15.25 20.45 15.25 20.5 15.25 20.6 15.2 20.7 15.2 20.8 15.2 20.9 15.2 21.0 15.2 21.1 15.2 21.2 15.2 21.3 15.2 21.4 15.2 21.55 15.2 21.6 15.2 21.7 15.25 21.75 15.25 21.85 15.25 21.9 15.25 22.0 15.25 22.05 15.3 22.1 15.3 22.15 15.3 22.2 15.35 22.25 15.35 22.3 15.4 22.3 15.45 22.35 15.45 22.35 15.5 22.4 15.55 22.4 15.6 22.4 15.7 22.35 15.75 22.35 15.8 22.3 15.85 22.3 15.95 22.25 16.0 22.2 16.05 22.2 16.15 22.15 16.2 22.15 16.3 22.1 16.35 22.1 16.45 22.1 16.5 22.15 16.55 22.15 16.55 22.15 16.6 22.2 16.65 22.2 16.65 22.2 16.7 22.25 16.7 22.25 16.75 22.3 16.75 22.3 16.75 22.3 16.8 22.35 16.8 22.35 16.85 22.4 16.85 22.45 16.85 22.45 16.9 22.5 16.95 22.6 17.0 22.7 17.05 22.8 17.1 22.9 17.15 23.0 17.15 23.1 17.15 23.2 17.2 23.3 17.2 23.4 17.2 23.5 17.2 23.55 17.2 23.6 17.2 23.65 17.2 23.7 17.2 23.75 17.2 23.75 17.3 23.75 17.4 23.7 17.55 23.7 17.65 23.7 17.8 23.65 17.9 23.65 18.05 23.6 18.15 23.6 18.3 23.55 18.45 23.5 18.6 23.45 18.75 23.4 18.9 23.35 19.05 23.3 19.2 23.25 19.35 23.2 19.5 23.15 19.7 23.05 19.85 23.0 20.0 22.9 20.15 22.85 20.3 22.75 20.4 22.65 20.55 22.6 20.65 22.5 20.8 22.45 20.9 22.35 21.0 22.3 21.1 22.2 21.2 22.15 21.3 22.05 21.4 22.0 21.25 21.7 21.15 21.4 21.0 21.1 20.85 20.8 20.75 20.45 20.6 20.15 20.45 19.8 20.35 19.45 20.2 19.1 20.05 18.75 19.95 18.4 19.8 18.05 19.7 17.65 19.55 17.3 19.45 16.9 19.35 16.5 18.65 14.1 18.05 9.55 17.9 8.4 17.8 7.65 17.5 3.9 17.75 6.7 17.7 6.25 17.6 5.55 17.5 4.9 17.35 4.25 17.2 3.75 17.05 3.25 16.95 2.9 16.8 2.4 16.65 1.8 16.6 1.7 16.5 1.3 16.4 1.05 16.35 0.75 16.3 0.45 16.3 0.15 16.3 -0.2 16.3 -0.5 16.4 -0.9 16.45 -1.25 17.3 -4.2 17.75 -5.7 17.85 -6.5 17.85 -6.7 17.9 -6.75 17.9 -6.9 17.9 -7.05 17.95 -7.2 17.95 -7.3 17.95 -7.45 17.95 -7.6 17.95 -7.75 17.95 -7.9 17.95 -8.05 17.95 -8.2 17.95 -8.35 17.95 -8.5 17.9 -8.7 17.9 -8.85 17.85 -9.05 17.8 -9.25 17.75 -9.4 17.7 -9.6 17.65 -9.75 17.55 -9.95 17.5 -10.1 17.4 -10.25 17.35 -10.4 17.25 -10.55 17.2 -10.65 17.1 -10.8 17.0 -10.95 16.95 -11.05 16.85 -11.15 16.75 -11.3 16.45 -11.7 16.15 -12.1 15.9 -12.5 15.6 -12.9 15.3 -13.2 15.05 -13.55 14.8 -13.85 14.55 -14.15 14.3 -14.4 14.1 -14.65 13.9 -14.9 13.75 -15.05 13.6 -15.2 13.45 -15.35 13.4 -15.45 13.35 -15.5 12.7 -16.15 11.85 -17.05 10.9 -18.05 10.7 -18.3 10.1 -18.9 9.7 -19.25 9.3 -19.75 8.95 -20.05 8.55 -20.4 8.25 -20.7 7.95 -21.0 7.65 -21.25 7.35 -21.5 7.05 -21.75 6.75 -21.95 6.35 -22.2 6.2 -22.3 6.05 -22.4 5.9 -22.5 5.75 -22.6 5.65 -22.7 5.5 -22.75 5.4 -22.85 5.25 -22.95 5.15 -23.0 5.0 -23.1 4.9 -23.15 4.8 -23.2 4.7 -23.25 4.6 -23.35 4.5 -23.4 4.4 -23.45 L4.4 -23.45" fill="#7a5f41" fill-rule="evenodd" stroke="none"/>
  </g>
</svg>
