<?xml version="1.0" encoding="UTF-8" standalone="no"?>
<svg xmlns:xlink="http://www.w3.org/1999/xlink" height="50.3px" width="38.8px" xmlns="http://www.w3.org/2000/svg">
  <g transform="matrix(1.0, 0.0, 0.0, 1.0, 0.5, 25.15)">
    <path d="M34.9 12.4 Q33.85 12.65 33.6 12.7 33.3 12.75 33.05 12.8 32.75 12.85 32.45 12.9 32.15 12.95 31.9 13.0 31.6 13.05 31.3 13.05 31.0 13.1 30.7 13.1 30.45 13.15 30.15 13.15 29.85 13.2 29.55 13.2 29.3 13.2 29.0 13.25 25.7 13.3 25.4 13.3 21.35 13.35 18.8 13.1 18.2 13.05 15.65 12.8 15.6 12.8 15.55 12.8 15.5 12.8 15.45 12.8 15.45 12.85 15.3 13.25 15.05 14.2 14.7 15.5 14.6 15.85 14.45 16.45 14.2 17.25 14.15 17.35 13.9 18.2 13.5 19.6 13.0 21.2 13.0 21.25 12.9 21.7 12.7 22.4 12.45 23.35 12.45 23.5 12.45 23.55 12.4 23.6 12.4 23.65 12.4 23.65 12.35 23.7 12.35 23.75 12.35 23.75 12.3 23.8 12.3 23.85 12.25 23.85 12.25 23.9 12.2 23.9 12.15 23.95 12.1 23.95 12.1 23.95 12.05 24.0 12.0 24.0 11.95 24.0 11.9 24.0 11.85 24.0 11.8 24.0 11.8 24.0 11.75 24.0 11.7 24.0 11.65 24.0 11.6 24.0 11.6 23.95 11.55 23.95 11.5 23.95 11.5 23.9 11.45 23.9 11.4 23.85 11.4 23.8 11.35 23.8 11.3 23.8 11.25 23.75 9.8 23.45 7.55 23.0 7.1 22.9 6.8 22.8 6.55 22.8 6.45 22.8 6.4 22.8 6.35 22.75 6.3 22.75 6.25 22.7 6.2 22.65 6.2 22.65 6.15 22.6 6.1 22.55 6.1 22.5 6.1 22.45 6.05 22.4 6.05 22.35 6.05 22.3 6.05 22.25 6.05 22.15 6.1 22.1 6.15 21.8 6.45 21.05 6.5 20.9 7.4 18.5 7.55 18.05 7.7 17.6 7.85 17.15 8.0 16.7 8.15 16.25 8.25 15.8 8.4 15.35 8.5 14.9 8.65 14.45 8.75 14.0 8.9 13.55 9.0 13.1 9.1 12.65 9.25 12.2 9.35 11.75 9.45 11.25 10.45 7.15 10.85 4.35 11.1 2.6 11.55 -1.3 11.6 -1.8 11.7 -2.75 11.75 -3.75 11.8 -4.2 11.8 -4.25 11.8 -4.3 11.85 -4.35 11.85 -4.4 11.85 -4.45 11.9 -4.5 11.95 -4.55 11.95 -4.55 12.0 -4.6 12.05 -4.65 12.05 -4.65 12.1 -4.65 12.15 -4.7 12.25 -4.7 12.3 -4.7 12.35 -4.7 12.95 -4.7 14.2 -4.6 14.95 -4.55 16.35 -4.5 17.8 -4.4 18.45 -4.35 18.8 -4.35 21.75 -4.2 23.75 -4.15 25.05 -4.1 27.75 -4.0 31.75 -4.25 31.95 -4.25 32.15 -4.3 32.35 -4.3 32.55 -4.3 32.75 -4.35 32.9 -4.35 33.1 -4.4 33.3 -4.45 33.5 -4.45 33.7 -4.5 33.9 -4.55 34.05 -4.6 34.25 -4.65 34.45 -4.7 34.65 -4.75 34.85 -4.8 34.9 -4.8 34.95 -4.8 35.05 -4.8 35.1 -4.8 35.15 -4.8 35.2 -4.8 35.25 -4.75 35.3 -4.75 35.35 -4.7 35.4 -4.7 35.4 -4.65 35.45 -4.6 35.5 -4.55 35.5 -4.5 35.55 -4.45 35.55 -4.4 35.55 -4.35 35.55 -4.25 35.6 -4.2 35.6 -4.15 35.55 -4.1 35.55 -4.05 35.55 -4.0 35.5 -3.95 35.5 -3.9 35.45 -3.85 35.4 -3.8 35.35 -3.75 35.3 -3.7 35.25 -3.7 35.2 -3.65 35.15 -3.65 34.85 -3.6 34.75 -3.55 34.7 -3.55 34.7 -3.55 34.65 -3.5 34.65 -3.5 34.6 -3.45 34.6 -3.4 34.55 -2.95 34.4 -1.7 34.4 -1.7 34.4 -1.65 34.4 -1.55 34.35 -1.55 34.35 -1.5 34.35 -1.45 34.35 -1.45 34.35 -1.4 34.35 -1.35 34.4 -1.35 34.4 -1.3 34.45 -1.25 34.45 -1.25 34.5 -1.2 34.55 -1.15 34.6 -1.1 34.65 -1.05 34.65 -0.95 34.65 -0.9 34.7 -0.85 34.7 -0.75 34.7 -0.7 34.65 -0.65 34.65 -0.55 34.6 -0.5 34.6 -0.45 34.55 -0.35 34.5 -0.35 34.45 -0.25 34.4 -0.25 34.35 -0.25 34.35 -0.2 34.3 -0.15 34.3 -0.15 34.3 -0.1 34.3 -0.05 34.3 1.15 34.4 2.1 34.4 2.6 34.95 4.75 35.0 5.0 35.55 7.1 35.6 7.15 35.6 7.25 35.7 7.25 35.8 7.25 35.9 7.25 35.95 7.25 36.05 7.3 36.1 7.3 36.15 7.3 36.2 7.35 36.25 7.35 36.3 7.4 36.3 7.45 36.35 7.5 36.35 7.55 36.4 7.6 36.4 7.65 36.45 7.75 36.45 7.8 36.45 7.85 36.45 7.9 36.45 7.95 36.45 8.0 36.4 8.05 36.4 8.05 36.35 8.1 36.35 8.15 36.3 8.2 36.25 8.25 36.2 8.3 36.15 8.3 36.05 8.35 36.0 8.4 35.95 8.45 36.15 9.15 36.55 10.65 37.1 10.45 37.4 10.4 37.5 10.4 37.55 10.35 37.6 10.35 37.7 10.4 37.75 10.4 37.8 10.45 37.9 10.45 37.95 10.5 38.0 10.55 38.0 10.6 38.05 10.65 38.1 10.75 38.1 10.8 38.1 10.85 38.1 10.95 38.1 11.0 38.1 11.05 38.1 11.1 38.1 11.15 38.05 11.2 38.05 11.25 38.0 11.25 38.0 11.3 38.0 11.35 37.95 11.35 37.9 11.4 37.9 11.45 37.85 11.45 37.8 11.45 37.75 11.5 37.75 11.5 37.7 11.5 37.05 11.75 36.95 11.75 36.95 11.75 36.9 11.8 36.9 11.85 37.05 12.3 37.25 12.9 37.65 14.05 38.05 15.25 38.25 15.85 38.4 16.35 38.65 17.05 39.1 18.2 39.1 18.25 39.25 18.8 39.35 19.2 39.35 19.25 39.35 19.3 39.4 19.35 39.35 19.4 39.35 19.45 39.35 19.5 39.35 19.55 39.35 19.6 39.35 19.65 39.3 19.7 39.3 19.75 39.25 19.8 39.25 19.85 39.2 19.9 39.2 19.9 39.15 19.95 38.95 20.2 38.9 20.3 38.85 20.4 38.8 20.45 38.75 20.5 38.7 20.6 38.65 20.65 38.6 20.7 38.5 20.75 38.45 20.8 38.4 20.9 38.3 20.9 38.25 20.95 38.15 21.0 38.1 21.05 38.0 21.1 37.95 21.15 37.85 21.15 37.8 21.15 37.75 21.2 37.7 21.2 37.65 21.2 37.6 21.2 37.55 21.2 37.5 21.2 37.45 21.2 37.4 21.2 37.35 21.2 37.3 21.2 37.2 21.2 37.15 21.15 37.1 21.15 37.05 21.15 37.0 21.1 36.95 21.1 36.95 21.1 36.9 21.05 36.9 21.05 36.85 21.05 36.85 21.0 36.8 21.0 36.8 20.95 36.8 20.9 36.75 20.9 36.75 20.85 36.75 20.85 36.75 20.8 36.7 20.75 36.7 20.7 36.7 20.7 36.25 18.2 36.05 17.45 35.85 16.6 34.9 12.5 34.9 12.5 34.9 12.4 L34.9 12.4 M33.75 7.95 Q33.6 7.4 33.4 6.55 33.05 4.9 32.3 1.65 32.3 1.6 32.15 1.0 32.05 0.6 32.0 0.35 32.0 0.3 32.0 0.3 31.95 0.25 31.95 0.2 31.9 0.2 31.85 0.2 30.6 0.4 30.1 0.45 29.85 0.45 29.55 0.5 29.3 0.5 29.05 0.55 28.8 0.55 28.5 0.6 28.25 0.6 28.0 0.6 27.75 0.65 27.45 0.65 27.2 0.65 26.95 0.7 26.65 0.7 26.4 0.7 26.15 0.75 25.85 0.75 25.65 0.75 25.5 0.75 25.3 0.8 25.1 0.8 24.95 0.8 24.75 0.8 24.6 0.8 24.4 0.8 24.2 0.8 24.05 0.8 23.85 0.8 23.65 0.8 23.45 0.8 23.3 0.8 23.1 0.8 22.9 0.8 21.85 0.8 20.35 0.7 19.65 0.65 16.45 0.35 16.3 0.35 16.25 0.35 16.25 0.35 16.25 0.5 16.25 0.65 16.25 1.55 16.25 2.2 16.25 2.6 16.25 2.85 16.2 3.25 16.15 3.75 16.1 3.95 16.1 4.15 16.1 4.45 16.1 4.55 16.05 4.75 16.05 5.0 16.05 5.1 16.05 5.25 16.0 5.55 15.95 5.9 15.95 5.95 15.9 6.7 15.85 7.05 15.8 7.2 15.75 7.5 15.7 7.8 15.7 7.95 15.75 7.95 15.85 8.0 15.9 8.0 15.95 8.0 18.3 8.3 18.75 8.35 19.3 8.4 19.85 8.4 20.35 8.45 20.9 8.5 21.45 8.5 22.0 8.55 22.5 8.55 23.05 8.55 23.6 8.6 24.15 8.6 24.65 8.6 25.2 8.6 25.75 8.6 26.3 8.6 26.8 8.6 27.35 8.6 27.7 8.6 28.0 8.6 28.3 8.6 28.65 8.55 28.95 8.55 29.3 8.55 29.6 8.5 29.9 8.5 30.25 8.45 30.55 8.45 30.9 8.4 31.2 8.35 31.55 8.35 31.85 8.3 32.15 8.25 32.5 8.2 32.75 8.15 33.1 8.1 33.6 8.0 33.75 7.95 L33.75 7.95" fill="#000000" fill-rule="evenodd" stroke="none"/>
    <path d="M14.65 -13.0 Q15.2 -13.15 15.95 -13.3 19.6 -13.95 22.15 -14.2 25.9 -14.6 28.1 -14.5 28.2 -14.5 31.65 -14.2 31.75 -14.2 31.95 -14.2 31.9 -14.25 31.9 -14.3 31.85 -14.35 31.85 -14.35 30.75 -16.0 28.65 -18.35 27.95 -19.15 26.9 -20.35 25.35 -22.1 25.15 -22.35 25.1 -22.4 25.1 -22.45 25.05 -22.45 25.05 -22.5 25.0 -22.55 25.0 -22.6 25.0 -22.65 24.95 -22.7 24.95 -22.75 24.95 -22.85 24.95 -22.9 25.0 -22.95 25.0 -23.0 25.05 -23.05 25.1 -23.1 25.15 -23.15 25.2 -23.2 25.25 -23.2 25.3 -23.2 25.3 -23.25 25.35 -23.25 25.4 -23.25 25.45 -23.25 25.5 -23.25 25.5 -23.25 25.55 -23.25 25.6 -23.25 25.65 -23.25 25.65 -23.25 25.7 -23.2 25.75 -23.2 25.75 -23.15 25.8 -23.15 25.85 -23.1 26.1 -22.8 26.45 -22.4 26.5 -22.35 26.55 -22.35 26.55 -22.3 26.6 -22.3 26.65 -22.3 26.7 -22.3 26.75 -22.3 26.75 -22.3 26.8 -22.3 26.85 -22.3 26.85 -22.3 26.9 -22.3 26.95 -22.3 26.95 -22.3 27.0 -22.25 27.0 -22.25 27.05 -22.25 27.1 -22.2 27.1 -22.2 27.15 -22.15 27.15 -22.15 27.2 -22.1 27.4 -21.9 27.9 -21.4 28.35 -20.95 28.6 -20.7 28.9 -20.35 30.65 -18.6 31.95 -17.35 32.75 -16.5 33.25 -16.0 35.35 -13.8 35.4 -13.75 35.4 -13.75 35.45 -13.7 35.45 -13.7 35.5 -13.65 35.5 -13.65 35.55 -13.6 35.55 -13.55 35.55 -13.5 35.6 -13.5 35.6 -13.45 35.65 -13.4 35.65 -13.35 35.65 -13.35 35.65 -13.3 35.65 -13.25 35.7 -13.2 35.7 -13.15 35.7 -13.1 35.7 -13.05 35.7 -13.0 35.7 -12.95 35.7 -12.95 35.75 -12.9 35.8 -12.8 35.85 -12.7 35.9 -12.6 35.95 -12.5 35.95 -12.35 36.0 -12.25 36.05 -12.15 36.05 -12.05 36.1 -11.95 36.1 -11.8 36.15 -11.7 36.15 -11.6 36.2 -11.5 36.2 -11.35 36.25 -11.2 36.25 -11.15 36.25 -11.1 36.3 -11.0 36.3 -10.95 36.3 -10.9 36.3 -10.85 36.3 -10.8 36.35 -10.75 36.35 -10.7 36.3 -10.65 36.3 -10.6 36.3 -10.55 36.3 -10.5 36.25 -10.45 36.25 -10.4 36.25 -10.35 36.2 -10.35 36.2 -10.3 36.15 -10.25 36.1 -10.2 36.1 -10.2 36.05 -10.15 36.05 -10.15 36.0 -10.1 35.95 -10.1 35.95 -10.05 35.9 -10.05 35.85 -10.05 35.85 -10.05 35.8 -10.05 35.75 -10.05 35.7 -10.0 35.7 -10.05 35.65 -10.05 35.6 -10.05 35.55 -10.05 35.55 -10.05 35.35 -10.1 34.85 -10.15 34.45 -10.25 34.2 -10.25 34.05 -10.25 33.9 -10.3 33.75 -10.3 33.6 -10.35 33.45 -10.35 33.3 -10.4 33.1 -10.4 32.95 -10.4 32.8 -10.45 32.65 -10.45 32.5 -10.45 32.35 -10.5 32.2 -10.5 32.05 -10.5 31.9 -10.55 31.7 -10.55 31.4 -10.6 31.15 -10.6 30.85 -10.65 30.6 -10.65 30.3 -10.65 30.05 -10.7 29.75 -10.7 29.5 -10.7 29.2 -10.7 28.95 -10.7 28.65 -10.7 28.35 -10.7 28.1 -10.7 27.8 -10.7 27.55 -10.7 27.25 -10.7 24.9 -10.55 23.2 -10.35 20.55 -10.1 18.65 -9.75 17.75 -9.6 12.95 -8.65 12.85 -8.65 12.65 -8.55 12.45 -8.5 12.3 -8.45 12.2 -8.4 12.1 -8.4 12.0 -8.4 11.95 -8.4 11.85 -8.4 11.75 -8.4 11.7 -8.45 11.6 -8.45 11.55 -8.5 11.45 -8.55 11.4 -8.6 11.35 -8.65 11.3 -8.75 11.25 -8.8 11.2 -8.85 11.15 -8.95 11.15 -9.05 11.15 -9.1 11.05 -9.75 10.85 -10.55 10.4 -12.85 10.05 -14.2 10.0 -14.5 9.9 -14.75 9.85 -15.05 9.75 -15.3 9.65 -15.55 9.55 -15.85 9.45 -16.1 9.35 -16.4 9.25 -16.65 9.15 -16.9 9.05 -17.15 8.9 -17.45 8.8 -17.7 8.7 -17.95 8.55 -18.2 8.45 -18.5 8.3 -18.8 8.1 -19.15 7.9 -19.45 7.75 -19.75 7.55 -20.05 7.3 -20.3 7.1 -20.6 6.9 -20.85 6.65 -21.15 6.45 -21.4 6.2 -21.65 5.95 -21.9 5.7 -22.15 5.4 -22.4 5.15 -22.6 4.85 -22.85 4.75 -22.9 4.7 -22.95 4.65 -23.05 4.6 -23.1 4.55 -23.15 4.55 -23.2 4.5 -23.3 4.5 -23.35 4.5 -23.4 4.55 -23.45 4.55 -23.55 4.6 -23.6 4.6 -23.65 4.65 -23.75 4.7 -23.8 4.8 -23.9 4.9 -24.0 5.05 -24.15 5.15 -24.25 5.3 -24.35 5.4 -24.5 5.55 -24.6 5.65 -24.7 5.8 -24.8 5.95 -24.9 6.1 -25.0 6.2 -25.1 6.35 -25.2 6.5 -25.3 6.65 -25.4 6.75 -25.5 6.9 -25.6 6.95 -25.6 6.95 -25.65 7.0 -25.65 7.05 -25.7 7.05 -25.7 7.1 -25.75 7.15 -25.75 7.15 -25.8 7.2 -25.8 7.2 -25.85 7.25 -25.9 7.3 -25.9 7.35 -25.95 7.4 -26.0 7.45 -26.0 7.5 -26.0 7.55 -26.0 7.6 -26.0 7.65 -26.0 7.7 -26.0 7.75 -26.0 7.8 -25.95 7.85 -25.95 7.9 -25.9 7.95 -25.9 8.0 -25.85 8.05 -25.75 8.7 -24.95 9.15 -24.45 9.4 -24.05 11.3 -21.3 12.15 -19.65 12.3 -19.3 12.45 -19.0 12.65 -18.65 12.8 -18.35 12.95 -18.0 13.1 -17.65 13.25 -17.35 13.35 -17.0 13.5 -16.65 13.65 -16.3 13.75 -15.95 13.9 -15.65 14.0 -15.3 14.15 -14.95 14.25 -14.6 14.35 -14.25 14.4 -14.05 14.5 -13.7 14.6 -13.2 14.6 -13.2 14.6 -13.1 14.65 -13.0 L14.65 -13.0" fill="#000000" fill-rule="evenodd" stroke="none"/>
  </g>
</svg>
