<?xml version="1.0" encoding="UTF-8" standalone="no"?>
<svg xmlns:xlink="http://www.w3.org/1999/xlink" height="79.2px" width="80.75px" xmlns="http://www.w3.org/2000/svg">
  <g transform="matrix(1.0, 0.0, 0.0, 1.0, 40.4, 39.6)">
    <path d="M21.5 77.35 Q21.3 77.65 21.05 77.9 20.8 78.25 20.5 78.6 20.15 78.95 19.8 79.3 19.4 79.7 18.95 80.05 18.5 80.4 18.0 80.7 17.45 81.05 16.9 81.3 16.3 81.6 15.7 81.8 15.05 82.0 14.35 82.1 13.3 82.25 12.25 82.15 11.2 82.05 10.15 81.7 9.15 81.4 8.15 80.85 7.2 80.35 6.3 79.7 5.4 79.0 4.6 78.2 3.8 77.45 3.15 76.55 2.5 75.65 2.0 74.75 1.55 73.8 1.25 72.85 0.7 71.0 0.95 69.2 1.15 67.55 2.0 65.85 2.7 64.4 4.0 62.6 4.75 61.6 6.55 59.4 8.25 57.25 9.15 56.05 10.55 54.1 11.4 52.4 12.45 50.35 12.9 48.35 13.4 46.1 13.2 43.75 13.05 42.1 12.55 40.5 12.1 39.1 11.35 37.65 10.8 36.5 9.85 35.0 20.4 52.15 8.3 32.45 7.35 30.95 6.8 29.85 6.05 28.4 5.65 27.05 5.15 25.45 5.0 23.85 4.8 22.05 5.05 20.15 5.15 19.45 5.3 18.75 5.4 18.1 5.6 17.45 5.75 16.85 5.95 16.25 6.15 15.7 6.35 15.15 6.55 14.7 6.75 14.2 6.9 13.8 7.1 13.4 7.25 13.1 7.45 12.8 7.55 12.6 7.65 12.3 8.2 11.25 8.8 10.4 9.4 9.6 10.05 8.9 10.65 8.25 11.4 7.6 12.0 7.05 12.85 6.35 13.25 6.05 14.5 5.05 15.65 4.2 16.45 3.6 17.6 2.65 18.65 1.75 19.9 0.65 21.15 -0.55 22.05 -1.45 22.6 -1.95 23.4 -2.75 24.05 -3.35 24.8 -4.1 25.4 -4.8 26.1 -5.55 26.7 -6.3 27.35 -7.05 27.95 -7.85 28.55 -8.65 29.1 -9.5 29.65 -10.4 30.15 -11.3 30.65 -12.25 31.1 -13.25 31.45 -14.05 31.75 -14.85 32.05 -15.6 32.3 -16.4 32.55 -17.15 32.75 -17.9 32.95 -18.65 33.1 -19.35 33.2 -20.0 33.35 -20.7 33.45 -21.35 33.5 -21.95 33.6 -22.55 33.65 -23.15 33.7 -23.65 33.7 -24.2 33.95 -23.85 34.2 -23.5 34.45 -23.05 34.7 -22.65 34.95 -22.2 35.2 -21.75 35.45 -21.25 35.65 -20.75 35.9 -20.2 36.1 -19.65 36.3 -19.05 36.45 -18.45 36.6 -17.85 36.65 -17.2 36.75 -16.55 36.8 -15.85 36.8 -15.3 36.75 -14.8 36.7 -14.15 36.55 -13.5 36.35 -12.65 36.0 -11.8 35.65 -10.75 35.05 -9.65 34.35 -8.4 33.45 -7.05 32.45 -5.5 31.15 -3.85 29.8 -2.0 28.05 0.0 26.15 2.15 23.9 4.5 22.45 6.0 21.05 7.45 19.9 8.55 18.65 9.75 18.25 10.15 16.75 11.6 15.7 12.6 15.15 13.1 14.45 13.85 13.95 14.4 13.35 15.05 12.95 15.65 12.55 16.3 12.25 16.95 11.9 17.65 11.65 18.45 11.3 19.65 11.15 20.9 11.0 22.1 11.05 23.35 11.1 24.55 11.3 25.8 11.5 26.95 11.85 28.15 12.2 29.25 12.65 30.45 13.05 31.5 13.6 32.6 14.1 33.6 14.65 34.65 15.2 35.55 15.8 36.55 16.5 37.25 17.1 37.95 17.7 38.6 18.2 39.3 18.65 39.95 19.0 40.6 19.4 41.2 19.65 41.85 19.95 42.4 20.15 42.95 20.35 43.45 20.5 44.0 20.6 44.4 20.7 44.85 20.8 45.2 20.85 45.55 21.05 46.65 21.05 47.8 21.05 48.9 20.9 50.0 20.75 51.05 20.5 52.1 20.25 53.05 19.9 54.0 19.6 54.85 19.25 55.7 18.9 56.45 18.55 57.2 18.2 57.8 17.85 58.45 17.65 58.8 17.35 59.35 16.9 60.1 16.4 60.85 16.0 61.45 15.5 62.05 15.25 62.45 14.7 63.1 14.2 63.7 14.0 64.0 13.65 64.5 13.4 64.9 13.1 65.35 12.9 65.75 12.7 66.25 12.6 66.75 12.45 67.3 12.4 67.95 12.4 68.35 12.4 68.75 12.4 69.2 12.45 69.6 12.55 70.05 12.65 70.5 12.75 70.95 12.9 71.4 13.05 71.85 13.25 72.3 13.45 72.75 13.7 73.2 14.0 73.6 14.3 74.05 14.65 74.45 15.05 74.85 15.5 75.3 16.05 75.7 16.5 76.0 17.05 76.3 17.55 76.55 18.05 76.75 18.5 76.9 19.0 77.05 19.45 77.15 19.85 77.2 20.25 77.3 20.6 77.3 20.9 77.35 21.15 77.35 21.35 77.35 21.5 77.35 L21.5 77.35" fill="#ffff66" fill-rule="evenodd" stroke="none"/>
  </g>
</svg>
