<?xml version="1.0" encoding="UTF-8" standalone="no"?>
<svg xmlns:xlink="http://www.w3.org/1999/xlink" height="67.95px" width="144.95px" xmlns="http://www.w3.org/2000/svg">
  <g transform="matrix(1.0, 0.0, 0.0, 1.0, 72.5, 33.95)">
    <path d="M-57.05 73.55 Q-56.75 74.6 -58.3 69.1 -59.05 66.45 -59.35 64.6 -59.55 63.45 -59.7 62.3 -59.8 61.15 -59.85 60.0 -59.9 58.85 -59.85 57.7 -59.8 56.55 -59.7 55.4 -59.55 54.3 -59.4 53.15 -59.2 52.0 -58.95 50.9 -58.7 49.75 -58.35 48.6 -58.05 47.5 -57.7 46.4 -57.65 46.35 -57.65 46.25 -57.65 46.15 -57.65 46.05 -57.65 46.0 -57.65 45.9 -57.65 45.8 -57.65 45.7 -57.7 45.6 -57.7 45.55 -57.75 45.45 -57.75 45.35 -57.8 45.25 -57.85 45.2 -57.9 45.1 -57.95 45.05 -58.3 44.55 -58.6 44.05 -58.95 43.55 -59.25 43.1 -59.6 42.55 -59.85 42.05 -60.15 41.55 -60.45 41.05 -60.7 40.5 -60.95 40.0 -61.2 39.45 -61.4 38.9 -61.65 38.35 -61.8 37.8 -62.0 37.25 -62.15 36.7 -62.25 36.25 -62.35 35.8 -62.45 35.35 -62.5 34.9 -62.6 34.45 -62.6 34.0 -62.65 33.55 -62.65 33.1 -62.65 32.65 -62.65 32.15 -62.65 31.7 -62.6 31.25 -62.55 30.8 -62.45 30.35 -62.4 29.9 -62.3 29.45 -62.3 29.4 -62.25 29.35 -62.25 29.25 -62.2 29.2 -62.2 29.15 -62.15 29.1 -62.1 29.05 -62.05 29.0 -62.05 28.9 -62.0 28.85 -61.95 28.8 -61.9 28.75 -61.85 28.7 -61.8 28.6 -61.8 28.55 -61.75 28.5 -61.65 31.3 -61.1 33.85 -60.6 36.35 -59.65 38.6 -58.75 40.75 -57.5 42.7 -56.2 44.6 -54.6 46.25 -53.0 47.9 -51.05 49.3 -49.2 50.7 -47.0 51.9 -44.85 53.05 -42.35 54.05 -40.0 55.05 -37.3 55.9 -39.0 54.25 -40.35 52.45 -41.75 50.7 -42.8 48.85 -43.85 47.05 -44.65 45.15 -45.4 43.3 -45.9 41.4 -46.35 39.55 -46.55 37.65 -46.75 35.8 -46.7 33.9 -46.65 32.1 -46.35 30.3 -46.05 28.55 -45.5 26.85 -45.5 26.9 -45.45 27.0 -45.45 27.05 -45.45 27.15 -45.45 27.2 -45.4 27.3 -45.35 27.4 -45.35 27.45 -45.35 27.55 -45.35 27.65 -45.3 27.7 -45.3 27.8 -45.3 27.85 -45.3 27.95 -45.25 28.05 -45.25 28.1 -45.25 29.2 -45.25 31.05 -45.25 33.45 -45.25 34.15 -45.1 34.05 -44.4 33.65 -44.0 33.4 -43.75 33.25 -40.75 30.95 -37.8 28.6 -34.85 26.2 -32.05 23.75 -29.2 21.3 -26.45 18.75 -23.75 16.2 -21.1 13.55 -18.45 10.95 -15.9 8.2 -13.35 5.5 -10.9 2.7 -8.45 -0.1 -6.05 -3.0 -3.7 -5.85 -1.4 -8.8 -0.65 -9.8 8.45 -21.85 8.5 -21.9 8.55 -22.0 8.6 -22.05 8.65 -22.1 8.7 -22.2 8.75 -22.25 8.8 -22.3 8.85 -22.4 8.85 -22.45 8.9 -22.5 8.95 -22.6 9.0 -22.65 9.05 -22.75 9.05 -22.8 9.1 -22.9 9.1 -22.95 9.2 -23.15 9.25 -23.25 9.35 -23.4 9.4 -23.55 9.5 -23.65 9.6 -23.7 9.7 -23.8 9.8 -23.8 9.9 -23.85 10.0 -23.85 10.1 -23.85 10.25 -23.8 10.35 -23.75 10.5 -23.7 10.65 -23.6 10.8 -23.5 11.3 -23.1 11.95 -22.65 12.4 -22.3 13.15 -21.8 14.1 -21.1 14.35 -20.95 15.0 -20.45 15.5 -20.1 16.15 -19.65 16.7 -19.25 17.3 -18.75 17.8 -18.35 18.4 -17.85 18.9 -17.4 19.5 -16.95 20.0 -16.45 21.75 -14.75 23.5 -13.05 25.2 -11.35 26.9 -9.6 28.6 -7.85 30.25 -6.1 31.95 -4.35 33.6 -2.55 35.2 -0.75 36.8 1.05 38.4 2.9 40.0 4.7 41.55 6.55 43.1 8.45 44.65 10.3 46.15 12.2 47.0 13.3 47.9 14.45 48.7 15.55 49.5 16.8 50.25 17.9 51.05 19.15 51.75 20.3 52.5 21.55 53.2 22.7 53.9 24.0 54.55 25.15 55.3 26.45 55.85 27.55 56.6 28.95 56.8 29.25 57.95 31.45 58.7 32.8 59.15 33.4 59.4 31.7 59.55 30.05 59.7 28.35 59.85 26.7 59.95 25.0 60.0 23.35 60.05 21.7 60.0 20.05 60.0 18.35 59.9 16.7 59.8 15.0 59.65 13.35 59.45 11.7 59.15 10.05 58.9 8.35 58.55 6.7 58.2 5.05 57.75 3.4 57.3 1.8 56.8 0.2 56.3 -1.4 55.7 -3.0 55.1 -4.55 54.45 -6.1 53.8 -7.65 53.1 -9.15 52.4 -10.7 51.6 -12.2 50.85 -13.7 50.0 -15.2 49.2 -16.65 48.3 -18.1 48.4 -18.2 48.6 -18.3 49.6 -17.35 49.75 -17.15 50.65 -16.0 51.45 -14.75 52.25 -13.55 53.0 -12.3 53.75 -11.05 54.4 -9.75 55.05 -8.5 55.65 -7.2 56.25 -5.9 56.75 -4.55 57.25 -3.2 57.7 -1.85 58.15 -0.5 58.55 0.9 58.95 2.3 59.25 3.7 61.1 11.8 61.9 17.55 61.95 18.0 62.0 18.45 62.05 18.9 62.05 19.35 62.05 19.8 62.05 20.25 62.05 20.7 62.05 21.2 62.0 21.6 62.0 22.1 61.95 22.5 61.9 23.0 61.9 23.25 61.85 23.95 61.8 24.5 61.8 24.85 61.75 25.5 61.7 26.35 61.65 26.8 61.6 27.85 61.5 28.85 61.5 29.35 61.45 30.2 61.35 30.85 61.3 31.65 61.25 32.35 61.15 33.15 61.05 33.85 60.95 34.6 60.85 35.35 60.7 36.1 60.6 36.8 60.35 38.05 60.05 39.15 59.75 40.35 59.4 41.5 59.05 42.65 58.6 43.75 58.2 44.9 57.7 45.95 57.2 47.1 56.6 48.1 56.0 49.2 55.3 50.15 54.6 51.2 53.8 52.1 52.95 53.05 52.05 53.95 52.0 53.95 51.85 54.35 53.0 54.1 54.15 53.8 55.25 53.5 56.3 53.1 57.35 52.7 58.4 52.25 59.4 51.8 60.35 51.25 61.3 50.7 62.2 50.05 63.1 49.45 63.95 48.75 64.8 48.1 65.6 47.35 66.45 46.6 67.2 45.8 68.0 45.0 68.65 44.1 69.35 43.25 69.95 42.35 70.55 41.45 71.05 40.5 71.55 39.55 72.0 38.55 72.4 37.55 72.75 36.55 73.1 35.55 73.4 34.45 73.65 33.4 73.85 32.3 74.05 31.25 74.2 30.1 74.5 30.95 74.5 31.0 74.55 31.75 74.6 32.4 74.6 33.15 74.6 33.8 74.6 34.5 74.55 35.2 74.5 35.9 74.4 36.55 74.3 37.25 74.15 37.9 73.95 38.55 73.7 39.2 73.45 39.85 73.1 40.5 72.8 41.15 72.35 41.75 72.25 41.9 72.15 42.1 72.05 42.25 72.0 42.4 71.9 42.6 71.9 42.75 71.85 42.9 71.8 43.05 71.8 43.25 71.8 43.4 71.8 43.6 71.85 43.75 71.9 43.95 71.95 44.1 72.0 44.3 72.05 44.5 72.35 45.4 72.6 46.25 72.85 47.15 73.1 48.05 73.3 48.95 73.5 49.85 73.65 50.75 73.8 51.65 73.95 52.55 74.05 53.5 74.2 54.4 74.25 55.3 74.3 56.2 74.35 57.15 74.4 58.05 74.4 59.0 74.4 58.95 74.4 59.15 74.4 59.2 74.4 59.25 74.4 59.35 74.4 59.4 74.45 59.45 74.45 59.55 74.45 59.6 74.45 59.7 74.45 59.75 74.5 59.85 74.5 59.9 74.55 59.95 74.55 60.05 74.6 60.15 75.7 56.95 75.8 56.65 76.15 55.45 76.45 54.4 76.8 53.2 77.1 52.15 77.4 50.95 77.7 49.85 77.95 48.7 78.2 47.55 78.45 46.4 78.65 45.3 78.85 44.1 79.0 42.95 79.15 41.8 79.25 40.65 79.35 39.45 79.4 38.3 79.45 37.05 79.4 35.7 79.4 34.45 79.3 33.15 79.2 31.9 79.0 30.6 78.85 29.4 78.65 28.05 78.4 26.85 78.15 25.55 77.9 24.35 77.6 23.05 77.35 21.9 77.0 20.55 76.7 19.45 76.35 18.05 76.15 17.3 76.0 16.6 75.8 15.85 75.6 15.15 75.45 14.4 75.25 13.65 75.1 12.95 74.9 12.2 74.75 11.45 74.6 10.75 74.4 10.0 74.25 9.25 74.1 8.5 73.95 7.8 73.8 7.05 73.65 6.3 74.5 7.45 74.5 7.55 75.8 10.0 76.2 11.15 76.25 11.3 76.3 11.45 76.4 11.55 76.45 11.7 76.55 11.8 76.6 11.9 76.7 11.95 76.8 12.05 76.9 12.1 77.0 12.2 77.1 12.25 77.25 12.3 77.35 12.35 77.5 12.35 77.65 12.4 77.8 12.45 78.1 12.5 78.55 12.6 80.6 12.95 79.3 12.7 79.75 12.8 80.05 12.85 80.45 12.9 80.75 12.9 81.15 12.95 81.45 12.95 81.85 13.0 82.15 12.95 82.5 12.9 82.8 12.85 83.15 12.75 83.45 12.65 83.3 12.45 83.1 12.25 82.9 12.1 82.7 11.85 82.3 11.4 82.3 11.45 82.05 11.2 81.9 11.0 81.7 10.8 81.5 10.6 81.3 10.35 81.15 10.15 80.95 9.9 80.75 9.7 80.55 9.45 80.4 9.25 77.7 5.45 76.95 3.7 76.3 2.3 75.6 0.85 74.9 -0.5 74.15 -1.9 73.35 -3.25 72.55 -4.6 71.75 -5.95 70.9 -7.25 70.05 -8.55 69.1 -9.85 68.25 -11.1 67.25 -12.4 66.35 -13.65 65.35 -14.9 64.35 -16.1 63.3 -17.3 55.7 -26.35 50.15 -32.15 49.15 -33.2 48.05 -34.15 47.0 -35.1 45.85 -36.0 44.75 -36.9 43.5 -37.7 42.35 -38.5 41.1 -39.3 39.9 -40.05 38.6 -40.8 37.35 -41.45 36.0 -42.15 34.8 -42.8 33.4 -43.5 32.2 -44.1 30.75 -44.75 29.7 -45.25 28.6 -45.7 27.55 -46.2 26.45 -46.65 25.35 -47.1 24.25 -47.5 23.15 -47.9 22.05 -48.3 20.95 -48.65 19.85 -49.0 18.7 -49.35 17.6 -49.65 16.45 -50.0 15.3 -50.25 14.15 -50.55 13.0 -50.8 12.75 -50.85 12.25 -51.0 11.7 -51.2 11.5 -51.25 11.3 -51.3 11.1 -51.3 10.9 -51.3 10.7 -51.3 10.5 -51.3 10.35 -51.2 10.2 -51.15 10.05 -51.05 9.9 -51.0 9.8 -50.85 9.7 -50.75 9.6 -50.6 9.5 -50.4 9.45 -50.25 9.35 -50.05 9.35 -49.85 8.0 -42.55 7.7 -41.2 7.7 -41.15 7.65 -41.05 7.6 -41.0 7.55 -40.95 7.5 -40.85 7.45 -40.8 7.4 -40.75 7.3 -40.7 7.25 -40.65 7.15 -40.6 7.25 -40.65 7.0 -40.45 6.95 -40.4 6.85 -40.35 6.8 -40.3 6.75 -40.25 6.7 -40.3 6.65 -40.4 6.6 -40.45 6.5 -40.55 6.35 -40.7 6.4 -40.7 6.3 -40.75 6.25 -40.8 6.2 -40.9 6.15 -40.95 6.1 -41.05 6.05 -41.1 6.0 -41.2 6.0 -41.25 6.0 -41.3 6.0 -41.35 7.1 -46.9 8.2 -51.65 8.25 -51.85 8.35 -52.05 8.4 -52.25 8.55 -52.4 8.65 -52.55 8.8 -52.65 8.95 -52.8 9.1 -52.9 9.25 -52.95 9.45 -53.05 9.6 -53.1 9.8 -53.1 10.0 -53.15 10.2 -53.15 10.4 -53.15 10.65 -53.1 13.1 -52.6 15.55 -52.0 17.95 -51.4 20.3 -50.65 22.65 -49.95 24.95 -49.1 27.25 -48.25 29.5 -47.25 31.75 -46.3 33.9 -45.25 36.1 -44.15 38.2 -42.95 40.35 -41.75 42.4 -40.4 44.45 -39.05 46.45 -37.65 47.4 -36.95 48.35 -36.2 49.25 -35.45 50.15 -34.65 51.0 -33.9 51.9 -33.05 52.7 -32.25 53.55 -31.4 54.35 -30.6 55.15 -29.7 55.9 -28.85 56.75 -27.95 57.45 -27.15 58.25 -26.2 58.9 -25.4 59.8 -24.4 61.35 -22.55 61.65 -22.2 62.7 -20.95 63.45 -20.0 64.45 -18.85 65.3 -17.8 66.25 -16.65 67.05 -15.55 68.0 -14.4 68.8 -13.3 69.7 -12.1 70.45 -11.0 71.3 -9.8 72.1 -8.65 72.9 -7.45 73.6 -6.25 75.0 -3.95 78.7 3.35 79.0 4.0 79.35 4.6 79.7 5.25 80.1 5.8 80.45 6.4 80.85 6.95 81.3 7.55 81.75 8.05 82.2 8.6 82.65 9.1 83.2 9.6 83.7 10.05 84.25 10.5 84.85 10.95 85.45 11.35 86.1 11.75 86.15 11.8 86.25 11.85 86.3 11.9 86.35 11.95 86.45 12.0 86.5 12.1 86.55 12.15 86.65 12.25 86.7 12.3 86.75 12.4 86.75 12.45 86.8 12.55 86.85 12.6 86.85 12.65 86.85 12.75 86.85 12.8 86.85 12.85 86.8 12.95 86.75 13.0 86.7 13.05 86.65 13.15 86.55 13.2 86.5 13.25 86.4 13.3 86.35 13.35 86.25 13.4 86.2 13.5 86.1 13.55 86.0 13.55 85.95 13.6 85.85 13.65 85.75 13.7 85.3 13.9 84.85 14.05 84.4 14.2 83.95 14.3 83.5 14.4 83.05 14.45 82.6 14.55 82.15 14.6 81.7 14.6 81.2 14.6 80.75 14.6 80.3 14.6 79.85 14.55 79.35 14.45 78.9 14.4 78.4 14.25 78.15 14.2 77.75 14.15 77.15 14.05 77.0 14.0 77.2 14.7 77.9 17.2 78.5 19.1 78.8 20.3 79.1 21.45 79.35 22.5 79.6 23.65 79.8 24.7 80.05 25.8 80.25 26.85 80.45 28.0 80.6 29.1 80.8 30.2 80.9 31.3 81.05 32.45 81.1 33.55 81.2 34.65 81.2 35.75 81.25 36.9 81.2 38.05 81.15 39.2 81.05 40.35 81.0 41.45 80.85 42.6 80.7 43.7 80.5 44.85 80.35 45.95 80.1 47.1 79.9 48.2 79.65 49.35 79.4 50.4 79.1 51.55 78.8 52.6 78.5 53.75 78.2 54.8 77.9 55.95 77.75 56.55 77.55 57.0 77.4 57.6 77.2 58.1 77.0 58.6 76.8 59.1 76.6 59.65 76.35 60.1 76.1 60.6 75.85 61.1 75.55 61.55 75.25 62.0 74.9 62.5 74.55 62.9 74.2 63.35 73.8 63.75 73.7 63.85 73.6 63.95 73.5 64.05 73.4 64.2 72.8 64.9 73.2 64.4 73.1 64.55 73.0 64.6 72.9 64.75 72.8 64.85 72.7 64.95 72.6 65.05 72.5 65.15 72.35 65.25 72.25 65.3 72.1 65.4 72.35 64.1 72.5 62.8 72.65 61.5 72.7 60.2 72.7 58.95 72.65 57.6 72.6 56.35 72.45 55.05 72.35 53.8 72.1 52.5 71.9 51.25 71.65 49.95 71.4 48.75 71.05 47.4 70.75 46.2 70.4 44.8 70.15 45.05 69.8 45.45 69.5 45.85 69.35 46.0 68.55 46.9 67.7 47.75 66.85 48.6 65.95 49.4 65.0 50.15 64.1 50.85 63.1 51.55 62.1 52.15 61.1 52.8 60.05 53.35 59.0 53.9 57.85 54.35 56.75 54.8 55.55 55.15 54.4 55.55 53.15 55.8 52.85 55.85 52.55 55.9 52.25 55.95 51.9 56.0 51.6 56.0 51.3 56.0 51.0 56.0 50.7 56.0 50.4 56.0 50.15 55.95 49.85 55.9 49.6 55.85 49.35 55.8 49.15 55.7 48.95 55.6 48.75 55.55 48.75 55.5 50.9 53.0 52.2 51.5 52.95 50.4 53.45 49.65 53.95 48.9 54.45 48.2 54.85 47.4 55.3 46.65 55.7 45.85 56.05 45.1 56.4 44.25 56.75 43.45 57.05 42.65 57.4 41.85 57.65 41.0 57.9 40.15 58.15 39.3 58.35 38.45 58.55 37.6 58.55 37.5 58.6 37.45 58.6 37.35 58.6 37.25 58.6 37.15 58.6 37.1 58.6 37.0 58.6 36.9 58.6 36.8 58.6 36.75 58.55 36.65 58.55 36.55 58.55 36.45 58.5 36.4 58.5 36.3 58.45 36.25 58.8 36.9 56.85 33.2 55.95 31.4 55.3 30.2 54.4 28.55 53.65 27.2 52.8 25.6 52.0 24.2 51.1 22.65 50.25 21.25 49.35 19.75 48.45 18.4 47.45 16.9 46.5 15.55 45.45 14.1 44.4 12.8 36.35 2.6 22.3 -11.8 19.7 -14.45 15.55 -18.0 14.6 -18.8 13.15 -19.85 10.0 -22.05 10.55 -21.65 10.4 -21.45 10.15 -21.15 9.9 -20.8 9.8 -20.65 8.9 -19.45 7.15 -17.15 5.35 -14.75 4.5 -13.6 3.05 -11.65 1.85 -10.1 0.4 -8.25 -0.85 -6.6 -2.25 -4.8 -3.6 -3.15 -5.05 -1.4 -6.4 0.25 -7.85 2.0 -9.3 3.6 -10.8 5.3 -12.25 6.85 -14.05 8.8 -15.8 10.6 -17.65 12.5 -19.4 14.25 -21.25 16.15 -23.05 17.9 -24.95 19.7 -26.8 21.4 -28.75 23.2 -30.65 24.9 -32.6 26.6 -34.55 28.25 -36.55 29.9 -38.6 31.5 -40.65 33.1 -42.75 34.65 -43.35 35.1 -43.5 35.25 -43.7 35.45 -43.85 35.6 -44.0 35.75 -44.15 35.9 -44.3 36.1 -44.4 36.3 -44.5 36.45 -44.6 36.65 -44.7 36.85 -44.75 37.05 -44.8 37.25 -44.85 37.45 -44.85 37.7 -44.85 37.95 -44.8 38.2 -44.75 38.45 -44.5 39.6 -44.2 40.65 -43.9 41.75 -43.55 42.8 -43.15 43.85 -42.75 44.9 -42.3 45.9 -41.8 46.9 -41.3 47.9 -40.7 48.85 -40.1 49.8 -39.45 50.7 -38.75 51.6 -38.0 52.45 -37.2 53.3 -36.35 54.1 -36.1 54.3 -35.85 54.55 -35.65 54.75 -35.35 54.95 -35.1 55.15 -34.85 55.35 -34.6 55.55 -34.3 55.75 -34.1 55.9 -33.8 56.1 -33.9 56.05 -33.25 56.5 -32.95 56.75 -32.7 56.9 -32.45 57.1 -32.2 57.25 -32.1 57.35 -31.5 57.75 -31.5 57.85 -31.5 58.1 -31.65 58.1 -31.9 58.15 -32.05 58.15 -32.25 58.15 -32.7 58.2 -32.65 58.2 -32.85 58.2 -33.05 58.25 -33.25 58.25 -33.4 58.25 -33.6 58.25 -33.8 58.25 -34.0 58.25 -34.15 58.25 -34.35 58.2 -34.55 58.2 -36.05 57.9 -37.5 57.55 -39.0 57.15 -40.4 56.7 -41.8 56.25 -43.2 55.7 -44.55 55.15 -45.85 54.5 -47.2 53.85 -48.45 53.15 -49.7 52.4 -50.9 51.55 -52.1 50.75 -53.25 49.8 -54.4 48.85 -55.5 47.8 -55.55 47.75 -55.9 47.45 -55.9 47.45 -56.25 47.35 -56.25 47.45 -56.85 50.0 -57.25 51.6 -57.45 52.65 -57.65 53.75 -57.8 54.8 -57.95 55.9 -58.0 56.95 -58.1 58.0 -58.1 59.1 -58.1 60.15 -58.0 61.2 -57.95 62.3 -57.8 63.35 -57.7 64.4 -57.45 65.45 -57.25 66.5 -56.95 67.55 -56.7 68.6 -56.3 69.65 -56.15 70.0 -56.0 70.4 -55.85 70.75 -55.7 71.1 -55.5 71.45 -55.3 71.85 -55.15 72.15 -54.9 72.55 -54.75 72.8 -54.5 73.25 -54.2 73.8 -54.1 73.95 -53.9 74.35 -53.7 74.65 -53.5 75.05 -53.35 75.4 -53.3 75.45 -53.3 75.55 -53.25 75.6 -53.2 75.7 -53.15 75.8 -53.15 75.85 -53.1 75.95 -53.1 76.05 -53.05 76.15 -53.05 76.2 -53.05 76.3 -53.05 76.35 -53.05 76.45 -53.05 76.5 -53.05 76.55 -53.1 76.6 -53.15 76.65 -53.2 76.7 -53.25 76.75 -53.35 76.8 -53.4 76.85 -53.5 76.85 -53.6 76.9 -53.65 76.9 -53.75 76.95 -53.85 76.95 -53.95 76.95 -54.05 77.0 -54.15 77.0 -54.2 77.0 -54.3 76.95 -54.35 76.95 -38.2 82.15 -54.75 76.8 -55.0 76.75 -55.15 76.7 -55.4 76.6 -55.55 76.55 -55.75 76.45 -55.95 76.4 -56.15 76.3 -56.35 76.25 -56.55 76.15 -56.7 76.05 -56.9 75.95 -57.05 75.85 -57.25 75.75 -57.4 75.6 -58.9 74.4 -62.45 71.15 -63.25 70.4 -63.95 69.6 -64.65 68.8 -65.3 67.95 -65.9 67.15 -66.5 66.25 -67.05 65.4 -67.55 64.5 -68.0 63.6 -68.45 62.65 -68.9 61.75 -69.3 60.75 -69.7 59.85 -70.05 58.8 -70.4 57.9 -70.7 56.85 -71.15 55.55 -71.5 54.35 -71.9 53.0 -72.25 51.8 -72.65 50.5 -73.0 49.25 -73.35 47.95 -73.65 46.7 -74.0 45.4 -74.25 44.15 -74.55 42.85 -74.8 41.55 -75.05 40.25 -75.25 38.95 -75.45 37.65 -75.6 36.35 -75.7 35.4 -75.8 34.4 -75.9 33.4 -75.95 32.45 -76.0 31.45 -76.0 30.45 -76.0 29.5 -75.95 28.5 -75.95 27.55 -75.9 26.55 -75.85 25.6 -75.75 24.6 -75.65 23.65 -75.55 22.65 -75.4 21.7 -75.3 20.7 -75.1 19.3 -74.85 17.9 -74.65 16.5 -74.35 15.15 -74.1 13.75 -73.8 12.4 -73.5 11.0 -73.15 9.65 -72.8 8.3 -72.45 6.95 -72.05 5.6 -71.65 4.25 -71.2 2.9 -70.75 1.55 -70.25 0.2 -69.75 -1.1 -69.3 -2.3 -68.7 -3.5 -68.2 -4.65 -67.55 -5.85 -66.95 -6.95 -66.25 -8.1 -65.6 -9.2 -64.9 -10.3 -64.2 -11.35 -63.4 -12.5 -62.7 -13.5 -61.9 -14.6 -61.15 -15.6 -60.3 -16.7 -59.55 -17.65 -58.65 -18.75 -57.0 -20.8 -55.3 -22.8 -53.6 -24.8 -51.85 -26.75 -50.05 -28.65 -48.25 -30.55 -46.4 -32.4 -44.5 -34.25 -42.6 -36.05 -40.65 -37.8 -38.7 -39.55 -36.65 -41.25 -34.65 -42.95 -32.55 -44.6 -30.45 -46.2 -28.3 -47.8 -27.8 -48.15 -27.3 -48.5 -26.8 -48.85 -26.3 -49.15 -25.8 -49.5 -25.25 -49.8 -24.7 -50.05 -24.15 -50.35 -23.65 -50.65 -23.1 -50.9 -22.55 -51.15 -21.95 -51.4 -21.4 -51.65 -20.85 -51.9 -20.25 -52.1 -19.7 -52.3 -19.45 -52.4 -19.25 -52.45 -19.0 -52.5 -18.75 -52.55 -18.55 -52.6 -18.3 -52.6 -18.1 -52.6 -17.85 -52.6 -17.65 -52.6 -17.4 -52.55 -17.15 -52.5 -16.95 -52.4 -16.7 -52.35 -16.5 -52.25 -16.25 -52.1 -16.05 -51.95 -15.55 -51.65 -15.1 -51.35 -14.6 -51.0 -14.2 -50.7 -13.75 -50.35 -13.3 -50.0 -12.9 -49.65 -12.5 -49.3 -12.05 -48.9 -11.7 -48.5 -11.3 -48.1 -10.95 -47.7 -10.6 -47.3 -10.3 -46.85 -9.95 -46.4 -9.65 -45.9 -9.65 -45.85 -6.55 -40.9 -6.5 -40.8 -6.45 -40.7 -6.4 -40.6 -6.35 -40.5 -6.3 -40.4 -6.3 -40.3 -6.25 -40.2 -6.25 -40.1 -6.25 -40.0 -6.25 -39.9 -6.3 -39.8 -6.35 -39.75 -6.4 -39.65 -6.5 -39.55 -6.6 -39.5 -6.7 -39.4 -6.85 -39.35 -6.95 -39.3 -7.05 -39.3 -7.2 -39.3 -7.3 -39.3 -7.4 -39.3 -7.5 -39.35 -7.55 -39.4 -7.65 -39.45 -7.75 -39.5 -7.8 -39.6 -7.9 -39.7 -7.95 -39.75 -8.0 -39.85 -8.05 -39.95 -8.15 -40.05 -9.95 -43.0 -11.6 -45.6 -11.85 -46.0 -12.2 -46.45 -12.5 -46.8 -12.8 -47.2 -13.15 -47.55 -13.5 -47.9 -13.85 -48.25 -14.25 -48.6 -14.6 -48.9 -15.05 -49.2 -15.4 -49.5 -15.85 -49.75 -16.25 -50.05 -16.7 -50.3 -17.1 -50.55 -17.6 -50.8 -17.65 -50.85 -17.7 -50.85 -17.8 -50.9 -17.85 -50.9 -17.95 -50.9 -18.0 -50.95 -18.1 -50.95 -18.15 -50.95 -18.25 -50.95 -18.35 -50.9 -18.4 -50.9 -18.5 -50.9 -18.6 -50.9 -18.65 -50.85 -18.75 -50.85 -18.8 -50.85 -19.75 -50.5 -20.75 -50.1 -21.65 -49.7 -22.6 -49.25 -23.45 -48.8 -24.35 -48.25 -25.2 -47.75 -26.1 -47.2 -26.9 -46.65 -27.75 -46.05 -28.5 -45.5 -29.35 -44.85 -30.1 -44.3 -30.95 -43.65 -31.6 -43.15 -32.55 -42.35 -34.6 -40.75 -36.55 -39.05 -38.5 -37.4 -40.4 -35.65 -42.3 -33.95 -44.15 -32.15 -45.95 -30.35 -47.75 -28.5 -49.5 -26.65 -51.2 -24.75 -52.9 -22.9 -54.55 -20.9 -56.2 -19.0 -57.8 -16.95 -59.4 -15.0 -60.95 -12.95 -61.85 -11.75 -62.65 -10.55 -63.45 -9.35 -64.2 -8.1 -64.95 -6.85 -65.6 -5.6 -66.3 -4.3 -66.9 -3.0 -67.5 -1.7 -68.05 -0.4 -68.6 0.95 -69.1 2.3 -69.6 3.65 -70.0 5.0 -70.45 6.4 -70.8 7.8 -71.2 9.35 -71.55 10.8 -71.9 12.35 -72.25 13.8 -72.55 15.35 -72.85 16.85 -73.1 18.4 -73.35 19.85 -73.55 21.4 -73.75 22.9 -73.9 24.45 -74.0 25.95 -74.15 27.5 -74.15 29.05 -74.2 30.6 -74.15 32.1 -74.1 33.05 -74.05 34.05 -74.0 35.0 -73.85 35.95 -73.75 36.9 -73.65 37.85 -73.5 38.8 -73.35 39.75 -73.15 40.7 -72.95 41.65 -72.8 42.55 -72.55 43.55 -72.35 44.45 -72.1 45.4 -71.9 46.3 -71.65 47.25 -71.3 48.5 -71.1 49.3 -70.8 50.4 -70.55 51.35 -70.25 52.45 -69.95 53.4 -69.65 54.45 -69.35 55.4 -69.0 56.45 -68.65 57.4 -68.3 58.45 -67.9 59.4 -67.5 60.4 -67.05 61.35 -66.65 62.35 -66.15 63.3 -65.75 64.05 -65.3 64.8 -64.9 65.5 -64.4 66.2 -63.9 66.85 -63.35 67.55 -62.85 68.2 -62.25 68.8 -61.7 69.4 -61.05 70.05 -60.45 70.6 -59.8 71.2 -59.2 71.75 -58.55 72.35 -57.9 72.9 -57.2 73.45 -57.15 73.5 -57.1 73.5 -57.1 73.55 -57.05 73.55 -57.05 73.55 -57.05 73.55 L-57.05 73.55" fill="#000000" fill-rule="evenodd" stroke="none"/>
    <path d="M-46.8 22.1 Q-46.85 21.5 -46.85 20.9 -46.9 20.3 -46.9 19.75 -46.9 19.15 -46.9 18.55 -46.9 17.95 -46.85 17.4 -46.85 16.8 -46.8 16.2 -46.75 15.65 -46.65 15.05 -46.6 14.45 -46.5 13.9 -46.4 13.3 -46.3 12.7 -45.8 10.25 -45.2 7.8 -44.6 5.35 -43.9 2.95 -43.2 0.55 -42.4 -1.85 -41.6 -4.2 -40.7 -6.55 -39.8 -8.85 -38.75 -11.15 -37.75 -13.45 -36.65 -15.7 -35.55 -18.0 -34.3 -20.2 -33.1 -22.4 -31.8 -24.6 -31.15 -25.7 -30.55 -26.65 -29.9 -27.7 -29.25 -28.7 -28.55 -29.75 -27.9 -30.7 -27.15 -31.7 -26.45 -32.6 -25.7 -33.6 -24.9 -34.5 -24.1 -35.4 -23.25 -36.3 -22.4 -37.15 -21.5 -38.0 -20.55 -38.8 -19.55 -39.55 -19.45 -39.65 -19.35 -39.75 -19.25 -39.8 -19.1 -39.9 -19.0 -40.0 -18.9 -40.05 -18.8 -40.15 -18.65 -40.25 -18.55 -40.3 -18.45 -40.4 -18.35 -40.5 -18.2 -40.55 -18.1 -40.65 -18.0 -40.75 -17.9 -40.8 -17.75 -40.9 -17.35 -41.15 -17.2 -41.3 -16.9 -41.45 -16.75 -41.55 -16.55 -41.65 -16.35 -41.7 -16.2 -41.75 -16.05 -41.75 -15.9 -41.75 -15.7 -41.7 -15.55 -41.65 -15.35 -41.55 -15.2 -41.45 -14.9 -41.25 -14.75 -41.15 -14.35 -40.9 -13.7 -40.45 -12.5 -39.6 -11.2 -38.75 -10.6 -38.35 -10.55 -38.3 -10.55 -38.3 -10.5 -38.25 -10.5 -38.2 -10.45 -38.15 -10.45 -38.1 -10.4 -38.05 -10.4 -38.0 -10.35 -37.95 -10.35 -37.9 -10.35 -37.85 -10.35 -37.8 -10.3 -37.8 -10.3 -37.75 -10.3 -37.7 -10.35 -37.7 -10.4 -37.65 -10.45 -37.6 -10.5 -37.55 -10.55 -37.5 -10.65 -37.4 -10.7 -37.35 -10.75 -37.3 -10.8 -37.25 -10.9 -37.2 -10.95 -37.2 -11.0 -37.15 -11.1 -37.1 -11.15 -37.05 -11.2 -37.05 -11.3 -37.0 -11.35 -37.0 -12.1 -36.85 -12.8 -36.65 -13.55 -36.5 -14.25 -36.3 -14.95 -36.1 -15.65 -35.85 -16.4 -35.6 -17.05 -35.35 -17.75 -35.1 -18.45 -34.8 -19.1 -34.55 -19.75 -34.2 -20.45 -33.9 -21.1 -33.55 -21.75 -33.15 -22.35 -32.8 -22.85 -32.5 -23.3 -32.15 -23.8 -31.85 -24.25 -31.5 -24.7 -31.15 -25.1 -30.8 -25.55 -30.45 -25.95 -30.05 -26.35 -29.65 -26.7 -29.25 -27.1 -28.85 -27.45 -28.4 -27.8 -27.95 -28.15 -27.5 -28.5 -27.05 -28.8 -26.55 -30.25 -24.3 -31.6 -21.95 -32.95 -19.65 -34.2 -17.3 -35.4 -14.95 -36.5 -12.55 -37.6 -10.15 -38.6 -7.7 -39.6 -5.3 -40.5 -2.8 -41.35 -0.3 -42.1 2.2 -42.9 4.75 -43.55 7.3 -44.2 9.85 -44.75 12.5 -44.95 13.5 -45.5 16.05 -45.95 18.35 -46.2 19.65 -46.25 19.9 -46.4 22.1 -46.55 22.1 -46.8 22.1 L-46.8 22.1 M-13.15 -38.3 Q-13.45 -38.5 -14.35 -39.15 -15.15 -39.75 -15.65 -40.1 -15.7 -40.1 -15.7 -40.15 -15.75 -40.15 -15.8 -40.15 -15.85 -40.15 -15.9 -40.15 -15.95 -40.15 -16.05 -40.15 -16.1 -40.15 -16.15 -40.15 -16.2 -40.15 -16.25 -40.15 -16.3 -40.15 -16.35 -40.1 -16.4 -40.1 -16.45 -40.05 -16.95 -39.75 -17.4 -39.45 -17.85 -39.1 -18.3 -38.8 -18.75 -38.45 -19.15 -38.1 -19.6 -37.75 -20.0 -37.35 -20.4 -37.0 -20.8 -36.65 -21.15 -36.25 -21.55 -35.9 -21.9 -35.5 -22.3 -35.1 -22.6 -34.75 -22.95 -34.35 -19.9 -35.55 -13.15 -38.3 L-13.15 -38.3" fill="#000000" fill-rule="evenodd" stroke="none"/>
    <path d="M45.65 -21.1 Q31.85 -32.3 30.1 -33.7 29.4 -34.3 28.65 -34.8 27.9 -35.3 27.1 -35.75 26.35 -36.2 25.55 -36.55 24.75 -36.9 23.9 -37.2 23.1 -37.5 22.2 -37.75 21.4 -37.95 20.5 -38.15 19.65 -38.35 18.7 -38.45 17.85 -38.6 16.9 -38.7 14.85 -38.85 11.2 -38.9 11.05 -38.9 10.9 -38.9 10.8 -38.95 10.65 -38.95 10.55 -39.0 10.45 -39.05 10.35 -39.1 10.3 -39.15 10.25 -39.2 10.2 -39.3 10.15 -39.4 10.15 -39.45 10.1 -39.55 10.15 -39.65 10.15 -39.8 10.2 -39.9 10.35 -40.2 10.45 -40.5 10.6 -40.8 10.75 -41.1 10.85 -41.35 11.0 -41.65 11.15 -41.95 11.3 -42.25 11.45 -42.5 11.6 -42.8 11.75 -43.1 11.9 -43.4 12.05 -43.65 12.2 -43.95 12.35 -44.2 12.55 -44.5 12.55 -44.55 12.6 -44.55 12.7 -44.6 12.75 -44.6 12.85 -44.6 12.95 -44.6 13.05 -44.6 13.15 -44.6 13.3 -44.6 13.4 -44.6 13.55 -44.6 13.65 -44.55 13.75 -44.55 13.85 -44.5 13.95 -44.45 14.05 -44.45 15.5 -43.75 16.8 -43.15 18.2 -42.45 19.5 -41.8 20.9 -41.05 22.15 -40.35 23.5 -39.6 24.8 -38.9 26.1 -38.1 27.35 -37.3 28.65 -36.5 29.85 -35.65 31.1 -34.75 32.25 -33.85 33.45 -32.95 34.55 -31.95 37.1 -29.8 44.1 -23.2 44.25 -23.05 45.75 -21.1 45.75 -21.1 45.7 -21.1 45.65 -21.1 45.65 -21.1 L45.65 -21.1 M11.7 -40.55 Q14.7 -40.25 20.25 -39.7 20.25 -39.75 20.25 -39.75 20.25 -39.8 20.3 -39.8 17.95 -41.0 13.25 -43.35 12.7 -42.3 11.7 -40.55 L11.7 -40.55" fill="#000000" fill-rule="evenodd" stroke="none"/>
    <path d="M-13.15 -38.3 Q-16.5 -36.95 -22.95 -34.35 -22.6 -34.75 -22.25 -35.1 -21.9 -35.5 -21.55 -35.9 -21.15 -36.25 -20.8 -36.65 -20.4 -37.0 -20.0 -37.35 -19.6 -37.75 -19.15 -38.1 -18.75 -38.45 -18.3 -38.8 -17.85 -39.15 -17.4 -39.45 -16.9 -39.8 -16.45 -40.05 -16.4 -40.1 -16.35 -40.1 -16.3 -40.1 -16.25 -40.15 -16.2 -40.15 -16.15 -40.15 -16.1 -40.15 -16.05 -40.15 -15.95 -40.15 -15.9 -40.15 -15.85 -40.15 -15.8 -40.15 -15.75 -40.15 -15.7 -40.1 -15.65 -40.1 -15.65 -40.1 -15.25 -39.8 -13.15 -38.3 L-13.15 -38.3" fill="#000000" fill-opacity="0.5411765" fill-rule="evenodd" stroke="none"/>
    <path d="M11.7 -40.55 Q12.2 -41.45 13.25 -43.35 15.55 -42.2 20.3 -39.8 20.3 -39.8 20.25 -39.75 20.25 -39.75 20.25 -39.7 17.4 -40.0 11.7 -40.55 L11.7 -40.55" fill="#000000" fill-opacity="0.5411765" fill-rule="evenodd" stroke="none"/>
  </g>
</svg>
