<?xml version="1.0" encoding="UTF-8" standalone="no"?>
<svg xmlns:xlink="http://www.w3.org/1999/xlink" height="22.3px" width="33.5px" xmlns="http://www.w3.org/2000/svg">
  <g transform="matrix(1.0, 0.0, 0.0, 1.0, 14.4, 8.6)">
    <path d="M-2.55 -8.15 L-5.8 -7.25 Q-10.35 -5.8 -13.55 -3.6 -16.6 -0.85 -8.4 9.2 -7.1 10.6 -4.45 12.1 L-3.45 12.4 -3.4 12.45 -3.2 12.5 Q0.65 13.65 2.5 13.5 L2.6 13.4 2.9 13.5 5.35 13.65 6.1 13.6 8.3 13.6 8.35 13.6 8.6 13.6 Q10.1 13.95 13.65 13.0 L13.7 13.0 15.0 12.7 Q19.25 10.2 19.1 3.6 L18.9 0.5 Q18.45 -3.6 17.1 -5.2 L15.8 -5.95 13.65 -6.95 Q9.8 -8.4 4.95 -8.55 L-2.55 -8.15" fill="#ffffff" fill-rule="evenodd" stroke="none"/>
  </g>
</svg>
