<?xml version="1.0" encoding="UTF-8" standalone="no"?>
<svg xmlns:xlink="http://www.w3.org/1999/xlink" height="61.0px" width="41.9px" xmlns="http://www.w3.org/2000/svg">
  <g transform="matrix(1.0, 0.0, 0.0, 1.0, 20.95, 30.5)">
    <path d="M4.7 14.4 Q4.45 14.4 2.8 14.85 2.55 14.85 2.5 14.85 2.3 14.85 2.15 14.85 2.0 14.85 1.85 14.85 1.65 14.85 1.5 14.85 1.35 14.9 1.2 14.95 1.05 15.0 0.9 15.05 0.75 15.1 0.65 15.2 0.5 15.3 0.4 15.4 0.35 15.45 0.3 15.5 0.25 15.55 0.25 15.6 0.2 15.6 0.15 15.65 0.1 15.7 0.05 15.75 0.0 15.75 -0.05 15.8 -0.1 15.8 -0.15 15.85 -0.2 15.85 -0.3 15.85 -0.35 15.85 -0.4 15.85 -0.65 15.9 -0.9 16.0 -1.1 16.1 -1.35 16.2 -1.55 16.35 -1.75 16.5 -1.9 16.65 -2.1 16.85 -2.25 17.0 -2.45 17.2 -2.6 17.4 -2.75 17.6 -2.85 17.8 -3.0 18.0 -3.15 18.2 -3.25 18.45 -3.35 18.5 -3.4 18.6 -3.45 18.7 -3.55 18.8 -3.6 18.85 -3.65 18.95 -3.7 19.05 -3.75 19.15 -3.8 19.25 -3.8 19.35 -3.85 19.45 -3.9 19.55 -3.9 19.65 -3.95 19.8 -3.95 19.9 -4.0 20.0 -4.1 20.1 -4.35 20.35 -4.55 20.65 -4.65 20.7 -4.8 20.6 -4.95 20.5 -5.1 20.4 -5.25 20.35 -5.4 20.25 -5.55 20.2 -5.75 20.2 -5.9 20.15 -6.1 20.15 -6.25 20.15 -6.45 20.15 -6.6 20.15 -6.8 20.15 -6.95 20.15 -7.15 20.15 -7.3 20.2 -7.4 20.2 -7.45 20.2 -7.55 20.2 -7.6 20.2 -7.7 20.15 -7.75 20.15 -7.85 20.1 -7.9 20.05 -7.85 20.1 -8.05 20.0 -8.15 19.95 -8.2 19.95 -8.3 19.9 -8.35 19.9 -8.45 19.85 -8.5 19.85 -8.7 19.8 -8.95 19.75 -9.15 19.7 -9.4 19.7 -9.6 19.7 -9.85 19.7 -10.05 19.75 -10.3 19.8 -10.5 19.85 -10.7 19.95 -10.9 20.05 -11.1 20.15 -11.3 20.25 -11.45 20.4 -11.65 20.55 -11.75 20.75 -11.8 20.8 -11.85 20.85 -11.9 20.9 -11.95 21.0 -11.95 21.05 -12.0 21.15 -12.1 21.35 -12.1 21.25 -12.1 21.35 -12.15 21.4 -12.2 21.45 -12.25 21.5 -12.3 21.55 -12.35 21.6 -12.4 21.65 -12.5 21.7 -12.6 21.8 -12.65 21.9 -12.75 22.0 -12.8 22.1 -12.85 22.2 -12.85 22.35 -12.85 22.45 -12.85 22.6 -12.85 22.75 -12.8 22.85 -12.8 23.0 -12.75 23.1 -12.7 23.25 -12.65 23.35 -12.6 23.5 -12.55 23.6 -12.6 23.75 -12.65 23.95 -12.65 24.1 -12.7 24.25 -12.7 24.45 -12.7 24.6 -12.7 24.8 -12.7 24.95 -12.65 25.1 -12.6 25.3 -12.55 25.45 -12.5 25.6 -12.45 25.75 -12.35 25.9 -12.25 26.05 -12.1 26.15 -12.05 26.2 -12.0 26.25 -11.95 26.3 -11.9 26.35 -11.85 26.4 -11.8 26.45 -11.75 26.5 -11.65 26.55 -11.65 26.55 -11.55 26.6 -11.45 26.65 -11.45 26.7 -11.35 26.75 -11.3 26.75 -11.25 26.8 -11.2 26.85 -11.1 27.1 -10.95 27.25 -10.8 27.45 -10.6 27.6 -10.45 27.75 -10.2 27.9 -10.0 28.0 -9.75 28.1 -9.55 28.15 -9.3 28.2 -9.05 28.25 -8.8 28.25 -8.55 28.25 -8.3 28.2 -8.05 28.15 -7.8 28.1 -7.7 28.1 -7.6 28.15 -7.45 28.15 -7.35 28.15 -7.25 28.15 -7.15 28.15 -7.05 28.15 -6.9 28.15 -6.6 28.1 -6.65 28.15 -6.55 28.1 -6.45 28.1 -6.3 28.1 -6.2 28.1 -6.1 28.15 -6.0 28.15 -5.85 28.25 -5.75 28.35 -5.6 28.45 -5.4 28.55 -5.25 28.6 -5.1 28.65 -4.95 28.7 -4.75 28.7 -4.6 28.75 -4.4 28.75 -4.25 28.75 -4.05 28.7 -3.9 28.65 -3.7 28.6 -3.55 28.55 -3.4 28.45 -3.25 28.65 -3.05 28.8 -2.85 28.95 -2.65 29.05 -2.45 29.15 -2.25 29.25 -2.05 29.35 -1.8 29.4 -1.55 29.45 -1.35 29.5 -1.1 29.55 -0.85 29.6 -0.65 29.6 -0.4 29.65 -0.2 29.65 0.1 29.65 0.2 29.65 0.35 29.7 0.4 29.7 0.55 29.75 0.95 29.85 0.8 29.85 0.9 29.85 1.0 29.9 1.15 29.95 1.25 29.95 1.35 29.95 1.5 29.95 1.6 29.95 1.7 29.95 1.85 29.9 1.95 29.85 2.05 29.8 2.1 29.8 2.2 29.75 2.25 29.75 2.35 29.75 2.4 29.75 2.5 29.75 2.6 29.75 2.65 29.75 2.75 29.75 2.8 29.8 2.9 29.8 2.95 29.8 3.05 29.85 3.1 29.85 3.2 29.9 3.4 29.95 3.6 30.0 3.8 30.0 4.0 30.0 4.2 30.0 4.35 30.0 4.55 29.95 4.75 29.95 4.95 29.9 5.15 29.85 5.35 29.8 5.5 29.7 5.7 29.65 5.85 29.55 6.05 29.5 6.2 29.4 6.4 29.45 6.5 29.45 6.7 29.45 6.85 29.5 7.0 29.5 7.15 29.5 7.3 29.5 7.45 29.5 7.65 29.45 7.8 29.45 7.95 29.4 8.05 29.35 8.2 29.3 8.35 29.2 8.5 29.15 8.6 29.0 8.65 28.95 8.7 28.95 8.7 28.9 8.75 28.85 8.8 28.85 8.85 28.8 8.9 28.8 8.95 28.75 9.0 28.75 9.05 28.75 9.1 28.75 9.15 28.75 9.2 28.7 9.25 28.7 9.3 28.7 9.35 28.75 9.55 28.75 9.75 28.7 9.95 28.65 10.15 28.65 10.35 28.6 10.5 28.55 10.7 28.5 10.9 28.4 11.1 28.35 11.25 28.25 11.45 28.15 11.6 28.05 11.75 27.9 11.9 27.8 12.0 27.65 12.15 27.45 12.2 27.4 12.25 27.3 12.3 27.25 12.35 27.15 12.4 27.05 12.45 27.0 13.25 25.55 12.55 26.8 12.6 26.7 12.65 26.65 12.7 26.55 12.75 26.5 12.8 26.4 12.85 26.35 12.95 26.25 13.0 26.2 13.1 26.05 13.2 25.85 13.3 25.7 13.4 25.5 13.45 25.3 13.5 25.1 13.6 24.95 13.6 24.75 13.65 24.55 13.7 24.35 13.7 24.15 13.75 23.95 13.75 23.75 13.75 23.55 13.75 23.35 13.7 23.15 13.7 22.95 13.7 22.8 13.65 22.6 13.6 22.4 13.55 22.25 13.5 22.05 13.4 21.9 13.35 21.75 13.25 21.55 13.15 21.4 13.05 21.25 12.95 21.1 12.85 20.95 12.7 20.8 12.6 20.65 12.45 20.5 12.4 20.35 12.4 20.25 12.35 20.1 12.3 20.0 12.25 19.85 12.15 19.75 12.1 19.6 12.0 19.5 11.95 19.4 11.85 19.3 11.75 19.2 11.65 19.1 11.55 19.0 11.45 18.95 11.35 18.85 11.2 18.8 11.1 18.6 11.05 18.4 10.95 18.15 10.85 18.0 10.75 17.75 10.65 17.55 10.55 17.35 10.45 17.2 10.3 17.0 10.15 16.85 10.0 16.65 9.85 16.5 9.7 16.35 9.5 16.2 9.35 16.1 9.15 16.0 9.0 15.9 8.9 15.85 8.75 15.8 8.6 15.75 8.5 15.7 8.35 15.65 8.2 15.6 8.05 15.55 7.9 15.55 7.75 15.5 7.65 15.45 7.45 15.45 7.4 15.45 7.2 15.4 7.0 15.35 6.9 15.35 6.75 15.25 6.65 15.15 6.5 15.05 6.4 15.0 6.25 14.9 6.15 14.8 6.0 14.75 5.85 14.65 5.75 14.6 5.6 14.55 5.45 14.5 5.3 14.45 5.15 14.45 5.0 14.4 4.85 14.4 4.7 14.4 L4.7 14.4 M-3.1 18.45 Q-3.0 18.4 -3.0 18.45 -3.0 18.45 -3.1 18.45 L-3.1 18.45" fill="#ff0000" fill-rule="evenodd" stroke="none"/>
  </g>
</svg>
