<?xml version="1.0" encoding="UTF-8" standalone="no"?>
<svg xmlns:xlink="http://www.w3.org/1999/xlink" height="50.35px" width="41.05px" xmlns="http://www.w3.org/2000/svg">
  <g transform="matrix(1.0, 0.0, 0.0, 1.0, 20.5, 25.15)">
    <path d="M9.1 -22.15 Q9.0 -22.15 8.9 -22.0 8.8 -21.9 8.75 -21.75 8.7 -21.6 8.65 -21.4 8.65 -21.2 8.6 -20.95 8.6 -20.8 8.6 -20.55 8.6 -20.45 8.6 -20.1 8.6 -19.9 8.55 -19.75 8.55 -19.6 8.55 -19.5 8.5 -19.05 8.4 -18.65 8.35 -18.2 8.3 -17.8 8.2 -17.4 8.1 -17.0 8.05 -16.55 7.95 -16.15 7.85 -15.7 7.75 -15.3 7.65 -14.9 7.55 -14.5 7.45 -14.05 7.3 -13.65 7.15 -13.25 7.05 -12.85 5.55 -8.55 4.5 -6.5 3.2 -6.0 2.85 -6.0 2.65 -6.05 2.45 -6.1 2.25 -6.2 2.05 -6.25 1.85 -6.35 1.65 -6.45 1.5 -6.55 1.3 -6.65 1.15 -6.75 0.95 -6.9 0.8 -7.0 0.6 -7.15 0.25 -7.35 0.25 -7.4 0.0 -7.5 -0.15 -7.6 -0.65 -7.95 -1.1 -8.3 -1.6 -8.65 -2.05 -9.05 -2.5 -9.4 -3.0 -9.8 -3.45 -10.2 -3.9 -10.6 -4.3 -11.0 -4.75 -11.4 -5.15 -11.85 -5.6 -12.25 -6.0 -12.7 -6.4 -13.15 -6.85 -13.55 -7.25 -14.0 -7.3 -14.05 -7.35 -14.15 -7.45 -14.2 -7.5 -14.25 -7.6 -14.3 -7.7 -14.3 -7.75 -14.35 -7.85 -14.35 -7.95 -14.35 -8.0 -14.35 -8.1 -14.3 -8.2 -14.25 -8.25 -14.25 -8.3 -14.15 -8.4 -14.1 -8.4 -14.0 -8.45 -13.85 -8.5 -13.7 -8.5 -13.5 -8.55 -13.35 -8.55 -13.2 -8.6 -13.0 -8.6 -12.9 -8.6 -12.7 -8.85 -9.9 -8.65 -12.35 -8.65 -12.15 -8.65 -12.0 -8.7 -11.85 -8.7 -11.7 -8.75 -11.5 -8.75 -11.35 -8.8 -10.95 -8.9 -10.55 -9.0 -10.1 -9.15 -9.7 -9.25 -9.3 -9.4 -8.9 -9.5 -8.5 -9.65 -8.1 -9.85 -7.75 -10.0 -7.35 -10.2 -6.95 -10.4 -6.6 -10.6 -6.25 -10.8 -5.9 -11.05 -5.5 -11.25 -5.2 -11.5 -4.85 -11.8 -4.55 -12.1 -4.25 -12.45 -3.95 -12.8 -3.7 -13.2 -3.45 -13.55 -3.2 -13.95 -2.95 -14.35 -2.75 -14.75 -2.55 -15.15 -2.35 -15.6 -2.15 -15.85 -2.0 -16.4 -1.75 -16.9 -1.5 -17.15 -1.4 -17.1 0.05 -17.0 0.45 -16.45 3.15 -16.45 3.75 -16.6 4.9 -16.95 6.65 -17.35 8.75 -17.45 9.55 -17.5 9.75 -18.0 12.9 -18.15 13.35 -18.65 14.15 -19.15 15.0 -19.3 15.4 -19.5 15.85 -19.95 16.9 -20.35 17.8 -20.65 18.4 -20.7 18.5 -20.7 18.6 -20.7 18.7 -20.65 18.8 -20.6 18.9 -20.55 19.0 -20.45 19.1 -20.35 19.2 -20.3 19.3 -20.2 19.4 -20.1 19.5 -20.0 19.6 -19.9 19.65 -19.8 19.7 -19.7 19.75 -19.6 19.8 -19.15 20.1 -18.7 20.35 -18.25 20.6 -17.75 20.85 -17.3 21.05 -16.8 21.3 -16.35 21.5 -15.85 21.7 -15.35 21.85 -14.85 22.05 -14.4 22.25 -13.85 22.4 -13.4 22.55 -12.85 22.75 -12.45 22.9 -11.85 23.05 -11.35 23.2 -10.8 23.35 -10.3 23.5 -9.8 23.6 -9.3 23.7 -8.75 23.85 -8.25 23.95 -7.7 24.05 -7.2 24.1 -6.65 24.2 -6.15 24.3 -5.6 24.35 -5.05 24.4 -4.55 24.5 -4.0 24.55 -3.45 24.6 -2.85 24.65 -2.25 24.65 -1.6 24.65 -1.0 24.65 -0.4 24.7 0.2 24.65 0.85 24.65 1.45 24.65 2.05 24.6 2.65 24.6 3.25 24.55 3.9 24.5 4.5 24.45 5.1 24.4 5.7 24.3 6.3 24.25 6.8 24.2 7.35 24.1 7.85 24.05 8.35 23.95 8.9 23.9 9.4 23.8 9.9 23.7 10.4 23.6 10.95 23.45 11.45 23.35 11.95 23.25 12.45 23.1 12.95 22.95 13.45 22.8 13.95 22.65 14.45 22.5 15.05 22.3 15.05 22.3 15.45 22.2 15.7 22.1 16.05 22.0 16.3 21.9 16.65 21.75 16.95 21.65 17.25 21.5 17.55 21.4 17.85 21.25 18.15 21.1 18.4 20.95 18.7 20.75 19.0 20.6 19.25 20.4 19.3 20.35 19.45 20.25 19.5 20.25 19.65 20.15 19.75 20.05 19.85 20.0 19.95 19.95 20.05 19.9 20.15 19.8 20.2 19.7 20.3 19.65 20.3 19.55 20.35 19.45 20.4 19.35 20.4 19.2 20.35 19.1 20.3 18.85 20.25 18.55 20.2 18.35 20.15 18.05 20.1 17.8 20.0 17.55 19.95 17.3 19.85 17.05 19.8 16.85 19.7 16.55 19.55 15.95 19.55 16.05 19.45 15.75 19.4 15.5 19.35 15.25 19.25 15.0 18.5 12.45 17.3 7.9 16.0 2.8 15.4 0.75 15.4 0.7 15.35 0.6 15.3 0.55 15.25 0.5 15.2 0.45 15.15 0.4 15.1 0.35 15.0 0.35 14.95 0.3 14.9 0.3 14.8 0.3 14.75 0.3 14.7 0.3 14.6 0.3 14.55 0.35 14.5 0.4 14.6 -0.05 14.65 -0.4 14.7 -0.8 14.75 -1.1 14.85 -1.45 14.85 -1.8 14.9 -2.1 14.95 -2.45 14.95 -2.75 14.95 -3.1 15.0 -3.4 15.0 -3.75 15.0 -4.1 15.0 -4.5 14.95 -4.85 14.95 -5.3 14.9 -7.1 13.9 -14.0 13.8 -14.4 13.75 -14.75 13.65 -15.1 13.55 -15.4 13.5 -15.75 13.4 -16.05 13.3 -16.35 13.2 -16.6 13.1 -16.9 12.95 -17.2 12.85 -17.5 12.7 -17.75 12.55 -18.05 12.4 -18.35 12.25 -18.65 12.05 -18.95 11.95 -19.1 11.85 -19.25 11.75 -19.4 11.65 -19.6 11.65 -19.55 11.5 -19.9 11.4 -20.05 11.3 -20.15 11.25 -20.35 11.15 -20.45 11.05 -20.6 10.95 -20.75 10.85 -20.9 10.7 -21.0 10.6 -21.15 10.45 -21.3 10.4 -21.35 10.35 -21.35 10.3 -21.4 10.2 -21.5 10.1 -21.55 10.0 -21.6 9.9 -21.7 9.8 -21.75 9.7 -21.85 9.6 -21.9 9.45 -22.0 9.4 -22.05 9.3 -22.1 9.2 -22.15 9.15 -22.15 9.1 -22.15 L9.1 -22.15 M-7.15 15.8 Q-7.1 15.85 -7.1 15.9 -7.1 15.95 -7.1 16.0 -7.15 16.0 -7.15 16.05 -7.2 16.05 -7.25 16.05 -7.25 16.05 -7.3 16.05 -7.35 16.0 -7.35 16.0 -7.35 16.0 -7.35 15.95 -7.35 15.9 -7.3 15.9 -7.3 15.9 -7.2 15.8 -7.15 15.75 -7.15 15.8 L-7.15 15.8" fill="#ff0000" fill-rule="evenodd" stroke="none"/>
    <path d="M-11.4 -26.0 Q-11.45 -26.25 -11.55 -26.45 -11.65 -26.6 -11.8 -26.7 -11.95 -26.75 -12.1 -26.75 -12.25 -26.75 -12.4 -26.7 -12.55 -26.65 -12.7 -26.55 -12.85 -26.45 -13.0 -26.35 -13.1 -26.25 -13.2 -26.1 -13.3 -26.0 -13.3 -25.9 -13.3 -25.65 -13.3 -25.3 -13.25 -24.95 -13.15 -24.55 -13.1 -24.2 -13.0 -23.75 -12.9 -23.35 -12.75 -22.9 -12.6 -22.5 -12.5 -22.1 -12.35 -21.7 -12.2 -21.3 -12.05 -20.95 -11.9 -20.65 -11.8 -20.3 -11.65 -20.05 -11.3 -19.4 -10.9 -18.75 -10.55 -18.1 -10.1 -17.45 -9.7 -16.85 -9.25 -16.25 -8.8 -15.65 -8.35 -15.05 -7.85 -14.45 -7.35 -13.85 -6.85 -13.3 -6.35 -12.75 -5.85 -12.2 -5.3 -11.65 -4.75 -11.15 -4.2 -10.6 -3.9 -10.3 -3.55 -10.0 -3.2 -9.7 -2.9 -9.45 -2.55 -9.15 -2.2 -8.9 -1.85 -8.6 -1.5 -8.35 -1.15 -8.1 -0.8 -7.8 -0.45 -7.55 -0.1 -7.3 0.3 -7.05 0.65 -6.85 1.0 -6.6 1.4 -6.35 1.5 -6.3 1.6 -6.25 1.65 -6.25 1.8 -6.15 1.95 -6.1 2.0 -6.05 2.1 -6.0 2.2 -5.95 2.35 -5.9 2.45 -5.85 2.55 -5.85 2.65 -5.8 2.75 -5.8 2.85 -5.8 3.0 -5.75 3.1 -5.8 3.25 -5.85 3.35 -5.85 3.5 -5.9 3.65 -5.95 3.75 -5.95 3.9 -6.0 4.0 -6.05 4.15 -6.15 4.25 -6.2 4.35 -6.25 4.5 -6.35 4.6 -6.45 4.65 -6.55 4.75 -6.65 4.85 -6.75 4.9 -6.9 5.9 -8.9 7.6 -13.9 8.35 -16.3 9.0 -22.8 9.0 -22.9 9.0 -23.0 9.0 -23.1 8.95 -23.15 8.95 -23.25 8.9 -23.3 8.85 -23.35 8.8 -23.4 8.75 -23.45 8.65 -23.5 8.6 -23.55 8.5 -23.65 8.35 -23.75 8.3 -23.75 8.2 -23.85 8.1 -23.9 7.95 -23.95 7.8 -23.95 7.7 -23.9 7.6 -23.8 7.5 -23.75 7.4 -23.55 7.3 -23.45 7.25 -23.25 7.2 -23.05 7.15 -22.85 7.1 -22.7 7.1 -22.5 7.05 -22.35 7.05 -22.2 7.0 -22.05 7.0 -21.95 6.55 -20.0 5.45 -16.6 4.25 -12.9 3.85 -11.35 3.7 -11.2 3.6 -11.1 3.5 -11.0 3.4 -10.9 3.35 -10.85 3.25 -10.8 2.8 -10.45 3.15 -10.7 3.1 -10.65 3.05 -10.65 3.0 -10.6 2.95 -10.55 2.9 -10.45 2.85 -10.35 2.8 -10.25 2.75 -10.1 2.4 -10.35 1.95 -10.6 1.65 -10.8 1.2 -11.1 0.5 -11.5 0.45 -11.55 0.05 -11.8 -0.25 -12.0 -0.65 -12.2 -1.0 -12.45 -1.35 -12.7 -1.65 -12.95 -2.05 -13.25 -2.35 -13.5 -2.7 -13.8 -3.05 -14.15 -3.75 -14.85 -5.2 -16.1 -6.65 -17.3 -7.2 -17.9 -7.5 -18.25 -7.75 -18.65 -8.0 -19.05 -8.3 -19.4 -8.55 -19.8 -8.8 -20.2 -9.0 -20.6 -9.25 -21.0 -9.5 -21.45 -9.7 -21.85 -9.9 -22.25 -10.1 -22.7 -10.3 -23.1 -10.5 -23.55 -10.65 -24.0 -10.85 -24.4 -10.85 -24.45 -10.9 -24.65 -10.9 -24.75 -10.95 -24.95 -10.95 -25.3 -11.0 -25.35 -11.0 -25.6 -11.05 -25.75 -11.05 -25.95 -11.1 -26.05 -11.15 -26.2 -11.2 -26.25 -11.2 -26.3 -11.25 -26.25 -11.3 -26.2 -11.4 -26.0 L-11.4 -26.0" fill="#ff0000" fill-rule="evenodd" stroke="none"/>
    <path d="M-13.75 -24.45 Q-13.9 -24.4 -14.0 -24.35 -14.15 -24.3 -14.25 -24.25 -14.35 -24.2 -14.5 -24.1 -14.6 -24.05 -14.7 -23.95 -14.8 -23.85 -14.9 -23.75 -15.0 -23.7 -15.1 -23.55 -15.25 -23.4 -15.3 -23.35 -15.4 -23.25 -15.5 -23.2 -15.8 -22.9 -16.1 -22.6 -16.35 -22.25 -16.6 -21.95 -16.85 -21.6 -17.05 -21.25 -17.3 -20.9 -17.5 -20.5 -17.7 -20.15 -17.85 -19.75 -18.05 -19.4 -18.2 -19.0 -18.35 -18.65 -18.5 -18.25 -18.65 -17.9 -18.8 -17.5 -18.9 -17.25 -18.95 -17.05 -19.05 -16.8 -19.1 -16.6 -19.15 -16.35 -19.2 -16.1 -19.25 -15.9 -19.3 -15.65 -19.35 -15.4 -19.4 -15.2 -19.4 -14.95 -19.45 -14.7 -19.45 -14.45 -19.45 -14.25 -19.45 -14.0 -19.45 -13.75 -19.45 -13.35 -19.45 -12.95 -19.4 -12.6 -19.35 -12.2 -19.35 -11.8 -19.25 -11.4 -19.2 -11.05 -19.1 -10.6 -19.05 -10.3 -18.95 -9.8 -18.65 -8.4 -18.75 -9.05 -18.7 -8.55 -18.6 -8.25 -18.55 -7.8 -18.45 -7.45 -18.4 -7.15 -18.35 -6.85 -18.3 -6.55 -18.2 -6.25 -18.15 -5.95 -18.05 -5.65 -17.95 -5.35 -17.85 -5.0 -17.8 -4.8 -17.65 -4.4 -17.55 -4.0 -17.45 -3.8 -17.35 -3.5 -17.3 -3.2 -17.2 -2.9 -17.1 -2.6 -17.1 -2.5 -17.05 -2.4 -17.05 -2.3 -17.05 -2.2 -17.05 -2.1 -17.05 -2.0 -17.05 -1.9 -17.05 -1.75 -17.05 -1.65 -17.05 -1.55 -17.05 -1.5 -17.1 -1.4 -17.1 -1.35 -17.1 -1.25 -17.1 -1.25 -17.1 -1.15 -16.95 -1.15 -16.85 -1.2 -16.75 -1.2 -16.65 -1.25 -16.55 -1.3 -16.45 -1.35 -16.35 -1.4 -16.25 -1.5 -16.2 -1.5 -16.1 -1.65 -16.0 -1.7 -15.9 -1.75 -15.8 -1.85 -15.7 -1.9 -15.6 -1.95 -15.5 -2.0 -15.05 -2.25 -14.65 -2.5 -14.2 -2.75 -13.8 -3.05 -13.4 -3.3 -13.0 -3.65 -12.65 -3.95 -12.3 -4.3 -11.95 -4.65 -11.6 -5.0 -11.3 -5.4 -11.0 -5.8 -10.75 -6.2 -10.5 -6.6 -10.25 -7.0 -10.05 -7.45 -9.85 -7.9 -9.65 -8.3 -9.45 -8.75 -9.3 -9.2 -9.15 -9.65 -9.0 -10.15 -8.85 -10.6 -8.75 -11.05 -8.65 -11.5 -8.55 -12.0 -8.5 -12.45 -8.45 -12.95 -8.4 -13.4 -8.4 -13.9 -8.35 -14.35 -8.35 -14.85 -8.35 -14.95 -8.35 -15.1 -8.35 -15.25 -8.35 -15.35 -8.35 -15.5 -8.35 -15.6 -8.35 -15.75 -8.4 -15.85 -8.4 -15.95 -8.45 -16.1 -8.45 -16.2 -8.5 -16.3 -8.55 -16.45 -8.6 -16.55 -8.7 -16.65 -8.8 -16.75 -8.85 -16.8 -8.95 -16.9 -9.0 -17.0 -9.05 -17.1 -9.15 -17.25 -9.2 -17.3 -9.25 -17.4 -9.3 -17.45 -9.4 -17.55 -9.45 -17.65 -9.55 -17.75 -9.6 -17.8 -9.7 -17.85 -9.8 -17.95 -9.9 -18.0 -10.0 -18.05 -10.1 -18.1 -10.2 -18.1 -10.3 -18.1 -10.35 -18.05 -10.45 -18.0 -10.55 -17.95 -10.6 -17.9 -10.65 -17.85 -10.7 -17.75 -10.75 -17.7 -10.8 -17.6 -10.85 -17.5 -10.85 -17.4 -10.85 -17.35 -10.85 -17.25 -10.85 -17.15 -10.8 -16.7 -10.8 -16.25 -10.8 -15.8 -10.85 -15.35 -10.85 -14.9 -10.9 -14.5 -10.95 -14.05 -11.0 -13.6 -11.05 -13.15 -11.15 -12.7 -11.25 -12.3 -11.35 -11.85 -11.45 -11.4 -11.6 -11.0 -11.75 -10.55 -11.9 -10.15 -12.05 -9.8 -12.15 -9.5 -12.3 -9.15 -12.45 -8.85 -12.6 -8.5 -12.75 -8.2 -12.9 -7.85 -13.1 -7.55 -13.3 -7.25 -13.5 -7.0 -13.7 -6.7 -13.95 -6.4 -14.15 -6.15 -14.45 -5.9 -14.7 -5.65 -15.0 -5.45 -15.05 -5.4 -15.15 -5.35 -15.2 -5.3 -15.3 -5.25 -15.35 -5.2 -15.4 -5.2 -15.5 -5.15 -15.55 -5.15 -15.6 -5.15 -15.7 -5.1 -15.75 -5.1 -15.85 -5.1 -15.95 -5.1 -16.0 -5.05 -16.1 -5.05 -16.2 -5.05 -16.3 -5.2 -16.4 -5.3 -16.5 -5.4 -16.6 -5.5 -16.7 -5.65 -16.75 -5.75 -16.8 -5.85 -16.85 -5.95 -16.9 -6.1 -16.95 -6.2 -17.0 -6.3 -17.05 -6.45 -17.05 -6.6 -17.1 -6.75 -17.1 -6.85 -17.15 -7.05 -17.2 -7.4 -17.25 -7.75 -17.3 -8.1 -17.35 -8.45 -17.4 -8.8 -17.45 -9.1 -17.45 -9.45 -17.5 -9.8 -17.55 -10.15 -17.55 -10.5 -17.6 -10.85 -17.6 -11.2 -17.6 -11.55 -17.6 -11.9 -17.6 -12.25 -17.6 -12.6 -17.6 -12.8 -17.6 -13.0 -17.6 -13.2 -17.6 -13.45 -17.6 -13.65 -17.6 -13.85 -17.55 -14.05 -17.55 -14.3 -17.5 -14.5 -17.45 -14.7 -17.45 -14.9 -17.4 -15.1 -17.35 -15.35 -17.3 -15.55 -17.25 -15.75 -17.15 -15.95 -17.05 -16.3 -16.95 -16.65 -16.8 -17.0 -16.65 -17.35 -16.55 -17.7 -16.35 -18.05 -16.2 -18.35 -16.0 -18.7 -15.8 -19.0 -15.6 -19.35 -15.4 -19.65 -15.2 -19.95 -14.95 -20.25 -14.75 -20.55 -14.5 -20.85 -14.25 -21.15 -14.15 -21.25 -14.05 -21.35 -13.95 -21.45 -13.85 -21.55 -13.8 -21.65 -13.65 -21.75 -13.5 -21.9 -13.4 -21.95 -13.3 -22.05 -13.2 -22.15 -13.1 -22.25 -13.0 -22.35 -12.9 -22.5 -12.85 -22.6 -12.75 -22.7 -12.7 -22.85 -12.7 -22.95 -12.7 -23.05 -12.7 -23.15 -12.75 -23.2 -12.75 -23.3 -12.8 -23.4 -12.8 -23.5 -12.85 -23.6 -12.85 -23.7 -12.9 -23.75 -12.95 -23.85 -13.0 -23.95 -13.05 -24.05 -13.1 -24.1 -13.15 -24.2 -13.2 -24.25 -13.25 -24.3 -13.25 -24.3 -13.3 -24.35 -13.3 -24.35 -13.35 -24.35 -13.4 -24.4 -13.4 -24.4 -13.45 -24.4 -13.5 -24.45 -13.5 -24.45 -13.55 -24.45 -13.6 -24.45 -13.65 -24.45 -13.65 -24.45 -13.7 -24.45 -13.75 -24.45 L-13.75 -24.45" fill="#ff0000" fill-rule="evenodd" stroke="none"/>
    <path d="M-9.1 -15.6 L-7.25 -15.6 -7.25 -12.9 -9.1 -12.9 -9.1 -15.6 -9.1 -15.6" fill="#ff0000" fill-rule="evenodd" stroke="none"/>
    <path d="M-8.7 14.8 L-6.15 14.8 -6.15 17.15 -8.7 17.15 -8.7 14.8 -8.7 14.8" fill="#ff0000" fill-rule="evenodd" stroke="none"/>
    <path d="M-11.7 -10.1 L-7.05 -10.1 -7.05 -1.25 -11.7 -1.25 -11.7 -10.1 -11.7 -10.1" fill="#ff0000" fill-rule="evenodd" stroke="none"/>
    <path d="M-13.75 -5.05 L-9.1 -5.05 -9.1 0.55 -13.75 0.55 -13.75 -5.05 -13.75 -5.05" fill="#ff0000" fill-rule="evenodd" stroke="none"/>
    <path d="M-16.45 -3.6 L-12.4 -3.6 -12.4 -0.2 -16.45 -0.2 -16.45 -3.6 -16.45 -3.6" fill="#ff0000" fill-rule="evenodd" stroke="none"/>
    <path d="M-17.05 -2.65 L-14.4 -2.65 -14.4 -0.85 -17.05 -0.85 -17.05 -2.65 -17.05 -2.65" fill="#ff0000" fill-rule="evenodd" stroke="none"/>
  </g>
</svg>
