<?xml version="1.0" encoding="UTF-8" standalone="no"?>
<svg xmlns:xlink="http://www.w3.org/1999/xlink" height="49.45px" width="41.05px" xmlns="http://www.w3.org/2000/svg">
  <g transform="matrix(1.0, 0.0, 0.0, 1.0, 20.5, 24.7)">
    <path d="M-11.7 -24.5 Q-12.1 -24.2 -12.45 -23.95 -12.8 -23.65 -13.15 -23.35 -13.5 -23.0 -13.85 -22.7 -14.15 -22.35 -14.5 -22.05 -14.8 -21.7 -15.1 -21.3 -15.35 -20.95 -15.65 -20.6 -15.9 -20.2 -16.1 -19.8 -16.35 -19.4 -16.55 -19.0 -16.75 -18.6 -16.9 -18.2 -17.1 -17.8 -17.25 -17.45 -17.4 -17.05 -17.55 -16.65 -17.75 -16.25 -17.85 -15.85 -18.0 -15.4 -18.1 -15.0 -18.25 -14.6 -18.3 -14.2 -18.4 -13.75 -18.5 -13.35 -18.55 -12.95 -18.6 -12.5 -18.6 -12.15 -18.6 -11.8 -18.65 -11.45 -18.65 -11.1 -18.65 -10.75 -18.6 -10.4 -18.6 -10.05 -18.6 -9.7 -18.6 -9.35 -18.55 -9.0 -18.55 -8.65 -18.5 -8.3 -18.5 -7.95 -18.45 -7.6 -18.4 -7.25 -18.35 -6.9 -17.5 -0.75 -17.45 -0.3 -17.15 3.8 -17.3 5.25 -17.35 5.65 -17.35 6.0 -17.4 6.4 -17.4 6.75 -17.45 7.15 -17.5 7.5 -17.55 7.9 -17.6 8.25 -17.6 8.65 -17.65 9.0 -17.7 9.4 -17.75 9.75 -17.85 10.15 -17.9 10.5 -17.95 10.9 -18.0 11.25 -18.1 12.05 -18.45 13.5 -18.8 15.05 -18.9 15.75 -18.9 15.85 -18.85 15.9 -18.8 16.0 -18.75 16.05 -18.7 16.1 -18.65 16.15 -18.6 16.2 -18.5 16.25 -18.45 16.25 -18.35 16.3 -18.3 16.3 -18.15 16.35 -18.05 16.4 -18.0 16.4 -17.95 16.45 -17.85 16.5 -17.35 16.7 -16.8 16.9 -16.3 17.05 -15.75 17.25 -15.25 17.4 -14.7 17.55 -14.15 17.7 -13.6 17.8 -13.1 17.95 -12.55 18.05 -12.0 18.15 -11.45 18.25 -10.9 18.35 -10.35 18.45 -9.8 18.55 -9.25 18.6 -8.7 18.7 -8.25 18.75 -7.7 18.8 -7.2 18.85 -6.65 18.95 -6.2 19.0 -5.65 19.05 -5.15 19.1 -4.6 19.15 -4.1 19.15 -3.6 19.2 -3.1 19.2 -2.55 19.25 -2.05 19.25 -1.55 19.25 -1.05 19.25 -0.1 19.25 0.85 19.25 1.8 19.2 2.75 19.2 3.7 19.15 4.6 19.1 5.6 19.05 6.5 18.95 7.45 18.9 8.35 18.75 9.3 18.65 10.25 18.5 11.2 18.4 12.1 18.2 13.05 18.05 13.95 17.85 17.8 16.9 18.75 16.65 18.85 16.6 18.85 16.55 18.9 16.5 18.95 16.4 18.95 16.35 18.95 16.25 18.95 16.2 18.95 16.1 18.9 16.05 18.9 15.95 18.85 15.9 18.85 15.8 18.8 15.7 18.8 15.65 18.75 15.55 18.75 15.5 18.55 14.9 18.35 14.3 18.15 13.75 18.0 13.1 17.8 12.55 17.65 11.9 17.5 11.3 17.35 10.7 17.2 10.1 17.1 9.5 16.95 8.9 16.85 8.3 16.7 7.65 16.6 7.05 16.5 6.45 16.4 5.8 16.1 4.0 15.75 0.75 15.3 -2.85 15.1 -4.35 15.05 -4.5 14.85 -5.75 14.75 -6.6 14.6 -7.15 14.45 -7.85 14.25 -8.6 14.05 -9.3 13.85 -10.0 13.6 -10.7 13.35 -11.4 13.1 -12.1 12.85 -12.75 12.55 -13.45 12.25 -14.1 11.95 -14.8 11.6 -15.45 11.25 -16.1 10.9 -16.75 10.5 -17.35 10.1 -18.0 9.85 -18.4 9.6 -18.75 9.3 -19.15 9.0 -19.5 8.7 -19.9 8.4 -20.25 8.1 -20.6 7.8 -20.9 7.45 -21.25 7.1 -21.55 6.75 -21.9 6.4 -22.2 6.05 -22.45 5.65 -22.75 5.3 -23.05 4.9 -23.3 4.8 -23.35 4.75 -23.35 4.7 -23.4 4.65 -23.45 4.55 -23.45 4.5 -23.5 4.45 -23.5 4.4 -23.55 4.3 -23.55 4.25 -23.55 4.15 -23.55 4.1 -23.55 4.05 -23.55 3.95 -23.5 3.9 -23.45 3.85 -23.4 3.6 -23.3 3.35 -23.25 3.1 -23.15 2.8 -23.1 2.55 -23.0 2.3 -22.95 2.05 -22.9 1.75 -22.85 1.5 -22.8 1.25 -22.75 0.95 -22.7 0.7 -22.7 0.45 -22.65 0.15 -22.6 -0.1 -22.6 -0.4 -22.55 -3.55 -22.5 -4.9 -22.75 -5.3 -22.8 -5.75 -22.85 -6.15 -22.95 -6.55 -23.0 -7.0 -23.1 -7.4 -23.2 -7.8 -23.3 -8.2 -23.4 -8.6 -23.5 -9.05 -23.65 -9.45 -23.75 -9.85 -23.9 -10.25 -24.05 -10.65 -24.2 -11.0 -24.35 -11.4 -24.55 -11.4 -24.55 -11.5 -24.55 -11.6 -24.55 -11.65 -24.55 -11.7 -24.55 -11.7 -24.5 L-11.7 -24.5" fill="#ff0000" fill-rule="evenodd" stroke="none"/>
    <path d="M-11.7 -24.5 Q-12.1 -24.2 -12.45 -23.95 -12.8 -23.65 -13.15 -23.35 -13.5 -23.0 -13.85 -22.7 -14.15 -22.35 -14.5 -22.05 -14.8 -21.7 -15.1 -21.3 -15.35 -20.95 -15.65 -20.6 -15.9 -20.2 -16.1 -19.8 -16.35 -19.4 -16.55 -19.0 -16.75 -18.6 -16.9 -18.2 -17.1 -17.8 -17.25 -17.45 -17.4 -17.05 -17.55 -16.65 -17.75 -16.25 -17.85 -15.85 -18.0 -15.4 -18.1 -15.0 -18.25 -14.6 -18.3 -14.2 -18.4 -13.75 -18.5 -13.35 -18.55 -12.95 -18.6 -12.5 -18.6 -12.15 -18.6 -11.8 -18.65 -11.45 -18.65 -11.1 -18.65 -10.75 -18.6 -10.4 -18.6 -10.05 -18.6 -9.7 -18.6 -9.35 -18.55 -9.0 -18.55 -8.65 -18.5 -8.3 -18.5 -7.95 -18.45 -7.6 -18.4 -7.25 -18.35 -6.9 -17.5 -0.75 -17.45 -0.3 -17.15 3.8 -17.3 5.25 -17.35 5.65 -17.35 6.0 -17.4 6.4 -17.4 6.75 -17.45 7.15 -17.5 7.5 -17.55 7.9 -17.6 8.25 -17.6 8.65 -17.65 9.0 -17.7 9.4 -17.75 9.75 -17.85 10.15 -17.9 10.5 -17.95 10.9 -18.0 11.25 -18.1 12.05 -18.45 13.5 -18.8 15.05 -18.9 15.75 -18.9 15.85 -18.85 15.9 -18.8 16.0 -18.75 16.05 -18.7 16.1 -18.65 16.15 -18.6 16.2 -18.5 16.25 -18.45 16.25 -18.35 16.3 -18.3 16.3 -18.15 16.35 -18.05 16.4 -18.0 16.4 -17.95 16.45 -17.85 16.5 -17.35 16.7 -16.8 16.9 -16.3 17.05 -15.75 17.25 -15.25 17.4 -14.7 17.55 -14.15 17.7 -13.6 17.8 -13.1 17.95 -12.55 18.05 -12.0 18.15 -11.45 18.25 -10.9 18.35 -10.35 18.45 -9.8 18.55 -9.25 18.6 -8.7 18.7 -8.25 18.75 -7.7 18.8 -7.2 18.85 -6.65 18.95 -6.2 19.0 -5.65 19.05 -5.15 19.1 -4.6 19.15 -4.1 19.15 -3.6 19.2 -3.1 19.2 -2.55 19.25 -2.05 19.25 -1.55 19.25 -1.05 19.25 -0.1 19.25 0.85 19.25 1.8 19.2 2.75 19.2 3.7 19.15 4.6 19.1 5.6 19.05 6.5 18.95 7.45 18.9 8.35 18.75 9.3 18.65 10.25 18.5 11.2 18.4 12.1 18.2 13.05 18.05 13.95 17.85 17.8 16.9 18.75 16.65 18.85 16.6 18.85 16.55 18.9 16.5 18.95 16.4 18.95 16.35 18.95 16.25 18.95 16.2 18.95 16.1 18.9 16.05 18.9 15.95 18.85 15.9 18.85 15.8 18.8 15.7 18.8 15.65 18.75 15.55 18.75 15.5 18.55 14.9 18.35 14.3 18.15 13.75 18.0 13.1 17.8 12.55 17.65 11.9 17.5 11.3 17.35 10.7 17.2 10.1 17.1 9.5 16.95 8.9 16.85 8.3 16.7 7.65 16.6 7.05 16.5 6.45 16.4 5.8 16.1 4.0 15.75 0.75 15.3 -2.85 15.1 -4.35 15.05 -4.5 14.85 -5.75 14.75 -6.6 14.6 -7.15 14.45 -7.85 14.25 -8.6 14.05 -9.3 13.85 -10.0 13.6 -10.7 13.35 -11.4 13.1 -12.1 12.85 -12.75 12.55 -13.45 12.25 -14.1 11.95 -14.8 11.6 -15.45 11.25 -16.1 10.9 -16.75 10.5 -17.35 10.1 -18.0 9.85 -18.4 9.6 -18.75 9.3 -19.15 9.0 -19.5 8.7 -19.9 8.4 -20.25 8.1 -20.6 7.8 -20.9 7.45 -21.25 7.1 -21.55 6.75 -21.9 6.4 -22.2 6.05 -22.45 5.65 -22.75 5.3 -23.05 4.9 -23.3 4.8 -23.35 4.75 -23.35 4.7 -23.4 4.65 -23.45 4.55 -23.45 4.5 -23.5 4.45 -23.5 4.4 -23.55 4.3 -23.55 4.25 -23.55 4.15 -23.55 4.1 -23.55 4.05 -23.55 3.95 -23.5 3.9 -23.45 3.85 -23.4 3.6 -23.3 3.35 -23.25 3.1 -23.15 2.8 -23.1 2.55 -23.0 2.3 -22.95 2.05 -22.9 1.75 -22.85 1.5 -22.8 1.25 -22.75 0.95 -22.7 0.7 -22.7 0.45 -22.65 0.15 -22.6 -0.1 -22.6 -0.4 -22.55 -3.55 -22.5 -4.9 -22.75 -5.3 -22.8 -5.75 -22.85 -6.15 -22.95 -6.55 -23.0 -7.0 -23.1 -7.4 -23.2 -7.8 -23.3 -8.2 -23.4 -8.6 -23.5 -9.05 -23.65 -9.45 -23.75 -9.85 -23.9 -10.25 -24.05 -10.65 -24.2 -11.0 -24.35 -11.4 -24.55 -11.4 -24.55 -11.5 -24.55 -11.6 -24.55 -11.65 -24.55 -11.7 -24.55 -11.7 -24.5 L-11.7 -24.5 Z" fill="none" stroke="#ff0000" stroke-linecap="round" stroke-linejoin="round" stroke-width="0.1"/>
    <path d="M-19.25 17.15 Q-19.3 17.2 -19.3 17.35 -19.4 17.5 -19.4 17.5 -19.4 17.6 -19.45 17.7 -19.5 17.8 -19.5 17.9 -19.55 18.0 -19.55 18.1 -19.6 18.2 -19.6 18.25 -19.6 18.35 -19.6 18.45 -19.6 18.55 -19.6 18.65 -19.5 18.7 -19.4 18.75 -19.3 18.85 -19.15 18.9 -19.05 18.95 -18.95 18.95 -18.8 19.0 -18.7 19.05 -18.6 19.1 -18.45 19.15 -18.25 19.2 -18.2 19.2 -18.1 19.25 -18.0 19.3 -17.85 19.35 -17.75 19.4 -16.95 19.65 -16.1 19.9 -15.3 20.1 -14.4 20.3 -13.6 20.5 -12.75 20.65 -11.9 20.85 -11.0 20.95 -10.2 21.1 -9.3 21.2 -8.5 21.3 -7.6 21.4 -6.8 21.5 -5.85 21.6 -5.1 21.65 -4.15 21.75 -1.6 21.95 4.5 21.7 5.25 21.65 6.0 21.6 6.75 21.55 7.45 21.5 8.2 21.45 8.95 21.4 9.7 21.3 10.4 21.2 11.15 21.15 11.9 21.0 12.65 20.9 13.35 20.8 14.1 20.65 14.8 20.5 15.55 20.35 16.25 20.2 16.45 20.15 17.95 19.8 19.0 19.55 19.65 19.35 19.7 19.3 19.75 19.2 19.75 19.15 19.8 19.1 19.8 19.0 19.8 18.95 19.8 18.85 19.75 18.8 19.75 18.7 19.7 18.65 19.7 18.6 19.65 18.5 19.65 18.4 19.65 18.35 19.6 18.25 19.6 18.2 19.6 18.15 19.55 18.05 19.55 18.0 19.55 17.95 19.5 17.85 19.5 17.8 19.45 17.75 19.4 17.7 19.35 17.65 19.3 17.6 19.25 17.6 19.2 17.55 19.15 17.55 19.1 17.55 19.0 17.55 18.95 17.6 20.85 17.2 14.15 18.7 11.35 19.35 9.35 19.55 8.55 19.65 7.7 19.75 6.9 19.8 6.1 19.9 5.3 19.95 4.45 20.0 3.65 20.05 2.85 20.1 2.0 20.1 1.2 20.15 0.4 20.15 -0.45 20.15 -1.25 20.15 -2.05 20.15 -2.9 20.15 -3.7 20.1 -4.45 20.05 -5.05 20.0 -5.8 19.9 -6.45 19.85 -7.15 19.8 -7.8 19.7 -8.55 19.6 -9.2 19.55 -9.9 19.45 -10.55 19.35 -11.25 19.2 -11.9 19.1 -12.6 18.95 -13.25 18.8 -13.95 18.65 -14.6 18.5 -14.9 18.4 -15.15 18.35 -15.45 18.25 -15.7 18.15 -16.0 18.1 -16.25 18.0 -16.55 17.9 -16.8 17.8 -17.1 17.75 -17.35 17.65 -17.6 17.55 -17.9 17.45 -18.15 17.35 -18.45 17.25 -18.7 17.15 -18.95 17.05 -19.0 17.05 -19.05 17.05 -19.1 17.05 -19.15 17.05 -19.15 17.05 -19.2 17.1 -19.45 17.3 -19.25 17.15 L-19.25 17.15" fill="#ff0000" fill-rule="evenodd" stroke="none"/>
    <path d="M-19.25 17.15 Q-19.3 17.2 -19.3 17.35 -19.4 17.5 -19.4 17.5 -19.4 17.6 -19.45 17.7 -19.5 17.8 -19.5 17.9 -19.55 18.0 -19.55 18.1 -19.6 18.2 -19.6 18.25 -19.6 18.35 -19.6 18.45 -19.6 18.55 -19.6 18.65 -19.5 18.7 -19.4 18.75 -19.3 18.85 -19.15 18.9 -19.05 18.95 -18.95 18.95 -18.8 19.0 -18.7 19.05 -18.6 19.1 -18.45 19.15 -18.25 19.2 -18.2 19.2 -18.1 19.25 -18.0 19.3 -17.85 19.35 -17.75 19.4 -16.95 19.65 -16.1 19.9 -15.3 20.1 -14.4 20.3 -13.6 20.5 -12.75 20.65 -11.9 20.85 -11.0 20.95 -10.2 21.1 -9.3 21.2 -8.5 21.3 -7.6 21.4 -6.8 21.5 -5.85 21.6 -5.1 21.65 -4.15 21.75 -1.6 21.95 4.5 21.7 5.25 21.65 6.0 21.6 6.75 21.55 7.45 21.5 8.2 21.45 8.95 21.4 9.7 21.3 10.4 21.2 11.15 21.15 11.9 21.0 12.65 20.9 13.35 20.8 14.1 20.65 14.8 20.5 15.55 20.35 16.25 20.2 16.45 20.15 17.95 19.8 19.0 19.55 19.65 19.35 19.7 19.3 19.75 19.2 19.75 19.15 19.8 19.1 19.8 19.0 19.8 18.95 19.8 18.85 19.75 18.8 19.75 18.7 19.7 18.65 19.7 18.6 19.65 18.5 19.65 18.4 19.65 18.35 19.6 18.25 19.6 18.2 19.6 18.15 19.55 18.05 19.55 18.0 19.55 17.95 19.5 17.85 19.5 17.8 19.45 17.75 19.4 17.7 19.35 17.65 19.3 17.6 19.25 17.6 19.2 17.55 19.15 17.55 19.1 17.55 19.0 17.55 18.95 17.6 20.85 17.2 14.15 18.7 11.35 19.35 9.35 19.55 8.55 19.65 7.7 19.75 6.9 19.8 6.1 19.9 5.3 19.95 4.45 20.0 3.65 20.05 2.85 20.1 2.0 20.1 1.2 20.15 0.4 20.15 -0.45 20.15 -1.25 20.15 -2.05 20.15 -2.9 20.15 -3.7 20.1 -4.45 20.05 -5.05 20.0 -5.8 19.9 -6.45 19.85 -7.15 19.8 -7.8 19.7 -8.55 19.6 -9.2 19.55 -9.9 19.45 -10.55 19.35 -11.25 19.2 -11.9 19.1 -12.6 18.95 -13.25 18.8 -13.95 18.65 -14.6 18.5 -14.9 18.4 -15.15 18.35 -15.45 18.25 -15.7 18.15 -16.0 18.1 -16.25 18.0 -16.55 17.9 -16.8 17.8 -17.1 17.75 -17.35 17.65 -17.6 17.55 -17.9 17.45 -18.15 17.35 -18.45 17.25 -18.7 17.15 -18.95 17.05 -19.0 17.05 -19.05 17.05 -19.1 17.05 -19.15 17.05 -19.15 17.05 -19.2 17.1 -19.45 17.3 -19.25 17.15 L-19.25 17.15 Z" fill="none" stroke="#ff0000" stroke-linecap="round" stroke-linejoin="round" stroke-width="0.1"/>
    <path d="M-19.85 19.85 Q-19.9 19.9 -20.0 19.95 -20.05 20.0 -20.05 20.05 -20.1 20.1 -20.15 20.2 -20.15 20.25 -20.15 20.35 -20.2 20.4 -20.2 20.5 -20.25 20.6 -20.25 20.65 -20.25 20.75 -20.25 20.8 -20.3 20.9 -20.3 20.95 -20.35 21.05 -20.35 21.1 -20.35 21.2 -20.3 21.25 -20.25 21.3 -20.2 21.35 -20.15 21.4 -20.1 21.45 -20.0 21.5 -19.95 21.5 -19.85 21.55 -19.75 21.6 -19.65 21.65 -19.6 21.65 -19.5 21.65 -19.45 21.7 -18.9 21.9 -18.35 22.05 -17.8 22.2 -17.2 22.35 -16.65 22.5 -16.05 22.6 -15.5 22.75 -14.9 22.85 -14.4 22.95 -13.75 23.05 -13.35 23.1 -12.6 23.25 -11.75 23.4 -11.45 23.45 -10.8 23.55 -10.25 23.65 -6.6 24.3 -0.25 24.45 7.2 24.4 10.6 23.85 11.25 23.75 11.8 23.65 12.45 23.55 13.0 23.45 13.65 23.3 14.2 23.2 14.8 23.05 15.4 22.95 16.0 22.8 16.6 22.65 17.2 22.5 17.75 22.35 18.35 22.2 18.95 22.0 19.5 21.8 20.1 21.6 20.15 21.55 20.2 21.5 20.25 21.45 20.3 21.35 20.35 21.3 20.35 21.2 20.35 21.15 20.35 21.05 20.35 20.95 20.35 20.9 20.3 20.8 20.3 20.75 20.25 20.65 20.2 20.6 20.15 20.5 20.1 20.45 20.05 20.45 19.95 20.4 19.9 20.4 19.8 20.4 19.75 20.45 19.7 20.45 19.6 20.45 19.55 20.5 19.5 20.5 19.4 20.55 19.3 20.55 19.25 20.6 19.15 20.6 19.1 20.6 19.05 20.65 18.95 20.65 18.25 20.8 17.65 20.95 16.95 21.1 16.3 21.25 15.65 21.4 15.0 21.55 14.3 21.65 13.65 21.8 13.0 21.9 12.35 22.0 11.65 22.1 11.0 22.2 10.3 22.3 9.65 22.4 8.95 22.45 8.3 22.5 3.75 22.9 0.65 22.85 0.1 22.85 -0.35 22.85 -0.9 22.85 -1.35 22.85 -1.9 22.85 -2.4 22.85 -2.9 22.85 -3.4 22.85 -3.9 22.8 -4.4 22.8 -4.9 22.75 -5.4 22.7 -5.9 22.7 -6.4 22.65 -6.9 22.55 -7.4 22.5 -8.1 22.4 -8.75 22.35 -9.45 22.25 -10.05 22.15 -10.75 22.05 -11.4 21.95 -12.1 21.85 -12.7 21.75 -13.4 21.6 -14.05 21.5 -14.7 21.35 -15.35 21.2 -16.0 21.0 -16.65 20.85 -17.3 20.65 -17.9 20.4 -18.0 20.35 -18.15 20.35 -18.25 20.3 -18.4 20.25 -18.45 20.25 -18.6 20.2 -18.8 20.1 -18.85 20.1 -19.0 20.05 -19.1 20.0 -19.25 20.0 -19.35 19.95 -19.45 19.9 -19.6 19.9 -19.7 19.85 -19.85 19.85 L-19.85 19.85" fill="#ff0000" fill-rule="evenodd" stroke="none"/>
    <path d="M-19.85 19.85 Q-19.9 19.9 -20.0 19.95 -20.05 20.0 -20.05 20.05 -20.1 20.1 -20.15 20.2 -20.15 20.25 -20.15 20.35 -20.2 20.4 -20.2 20.5 -20.25 20.6 -20.25 20.65 -20.25 20.75 -20.25 20.8 -20.3 20.9 -20.3 20.95 -20.35 21.05 -20.35 21.1 -20.35 21.2 -20.3 21.25 -20.25 21.3 -20.2 21.35 -20.15 21.4 -20.1 21.45 -20.0 21.5 -19.95 21.5 -19.85 21.55 -19.75 21.6 -19.65 21.65 -19.6 21.65 -19.5 21.65 -19.45 21.7 -18.9 21.9 -18.35 22.05 -17.8 22.2 -17.2 22.35 -16.65 22.5 -16.05 22.6 -15.5 22.75 -14.9 22.85 -14.4 22.95 -13.75 23.05 -13.35 23.1 -12.6 23.25 -11.75 23.4 -11.45 23.45 -10.8 23.55 -10.25 23.65 -6.6 24.3 -0.25 24.45 7.2 24.4 10.6 23.85 11.25 23.75 11.8 23.65 12.45 23.55 13.0 23.45 13.65 23.3 14.2 23.2 14.8 23.05 15.4 22.95 16.0 22.8 16.6 22.65 17.2 22.5 17.75 22.35 18.35 22.2 18.95 22.0 19.5 21.8 20.1 21.6 20.15 21.55 20.2 21.5 20.25 21.45 20.3 21.35 20.35 21.3 20.35 21.2 20.35 21.15 20.35 21.05 20.35 20.95 20.35 20.9 20.3 20.8 20.3 20.75 20.25 20.65 20.2 20.6 20.15 20.5 20.1 20.45 20.05 20.45 19.95 20.4 19.9 20.4 19.8 20.4 19.75 20.45 19.7 20.45 19.6 20.45 19.55 20.5 19.5 20.5 19.4 20.55 19.3 20.55 19.25 20.6 19.15 20.6 19.1 20.6 19.05 20.65 18.95 20.65 18.25 20.8 17.65 20.95 16.95 21.1 16.3 21.25 15.65 21.4 15.0 21.55 14.3 21.65 13.65 21.8 13.0 21.9 12.35 22.0 11.65 22.1 11.0 22.2 10.3 22.3 9.65 22.4 8.95 22.45 8.3 22.5 3.75 22.9 0.65 22.85 0.1 22.85 -0.35 22.85 -0.9 22.85 -1.35 22.85 -1.9 22.85 -2.4 22.85 -2.9 22.85 -3.4 22.85 -3.9 22.8 -4.4 22.8 -4.9 22.75 -5.4 22.7 -5.9 22.7 -6.4 22.65 -6.9 22.55 -7.4 22.5 -8.1 22.4 -8.75 22.35 -9.45 22.25 -10.05 22.15 -10.75 22.05 -11.4 21.95 -12.1 21.85 -12.7 21.75 -13.4 21.6 -14.05 21.5 -14.7 21.35 -15.35 21.2 -16.0 21.0 -16.65 20.85 -17.3 20.65 -17.9 20.4 -18.0 20.35 -18.15 20.35 -18.25 20.3 -18.4 20.25 -18.45 20.25 -18.6 20.2 -18.8 20.1 -18.85 20.1 -19.0 20.05 -19.1 20.0 -19.25 20.0 -19.35 19.95 -19.45 19.9 -19.6 19.9 -19.7 19.85 -19.85 19.85 L-19.85 19.85 Z" fill="none" stroke="#ff0000" stroke-linecap="round" stroke-linejoin="round" stroke-width="0.1"/>
    <path d="M-17.85 16.5 L17.3 15.7 18.95 20.65 Q16.15 21.4 13.4 21.95 10.8 22.4 8.2 22.65 5.8 22.9 3.3 22.95 1.05 23.0 -1.35 22.85 -3.45 22.75 -5.8 22.5 -7.8 22.3 -10.15 21.95 -11.75 21.7 -14.45 21.3 -17.65 20.8 -18.7 20.65 L-17.85 16.5" fill="#ff0000" fill-rule="evenodd" stroke="none"/>
    <path d="M-17.85 16.5 L17.3 15.7 18.95 20.65 Q16.15 21.4 13.4 21.95 10.8 22.4 8.2 22.65 5.8 22.9 3.3 22.95 1.05 23.0 -1.35 22.85 -3.45 22.75 -5.8 22.5 -7.8 22.3 -10.15 21.95 -11.75 21.7 -14.45 21.3 -17.65 20.8 -18.7 20.65 L-17.85 16.5 Z" fill="none" stroke="#ff0000" stroke-linecap="round" stroke-linejoin="round" stroke-width="1.6"/>
  </g>
</svg>
