<?xml version="1.0" encoding="UTF-8" standalone="no"?>
<svg xmlns:xlink="http://www.w3.org/1999/xlink" height="13.8px" width="16.6px" xmlns="http://www.w3.org/2000/svg">
  <g transform="matrix(1.0, 0.0, 0.0, 1.0, 8.45, 7.2)">
    <path d="M-8.2 0.0 L-8.2 -4.65 -0.1 -4.65 8.0 -4.65 8.0 0.0 8.0 4.65 -0.1 4.65 -8.2 4.65 -8.2 0.0 M-3.8 3.55 L-4.05 3.25 -4.05 3.25 -4.05 3.25 -4.05 3.55 -4.05 3.8 -3.85 3.8 -3.6 3.8 -3.8 3.55 M1.3 3.65 L1.25 3.55 1.2 3.3 1.15 3.1 0.95 2.3 0.8 1.5 0.7 1.2 0.65 0.9 0.55 0.55 0.5 0.15 0.45 0.15 0.45 0.15 0.4 0.75 0.4 1.3 0.3 1.75 0.2 2.15 0.1 2.4 0.0 2.65 -0.1 2.85 -0.2 3.05 -0.25 3.15 -0.3 3.25 -0.55 3.5 -0.75 3.8 0.3 3.8 1.3 3.8 1.3 3.65 M3.9 1.3 L3.9 -1.2 3.9 -1.15 3.85 -1.15 3.8 -0.8 3.7 -0.5 3.6 -0.05 3.5 0.4 3.45 0.7 3.35 1.0 3.25 1.45 3.15 1.95 3.05 2.25 3.0 2.6 2.9 3.05 2.75 3.5 2.75 3.65 2.7 3.8 3.3 3.8 3.9 3.8 3.9 1.3 M-1.75 2.75 L-1.6 2.7 -1.4 2.5 -1.2 2.35 -1.05 2.05 -0.95 1.8 -0.85 1.25 -0.75 0.7 -0.75 0.0 -0.75 -0.7 -0.85 -1.25 -0.95 -1.75 -1.0 -1.95 -1.1 -2.15 -1.2 -2.3 -1.35 -2.45 -1.45 -2.6 -1.6 -2.7 -1.7 -2.75 -1.8 -2.8 -2.2 -2.8 -2.55 -2.8 -2.75 -2.7 -2.9 -2.6 -3.0 -2.5 -3.05 -2.4 -3.15 -2.25 -3.3 -2.05 -3.4 -1.75 -3.5 -1.4 -3.55 -0.7 -3.6 0.0 -3.55 0.7 -3.5 1.4 -3.4 1.75 -3.3 2.05 -3.2 2.25 -3.05 2.45 -2.9 2.55 -2.75 2.7 -2.6 2.75 -2.45 2.8 -2.2 2.8 -1.95 2.8 -1.75 2.75 M7.15 1.65 L7.15 0.5 6.1 0.5 5.1 0.5 5.1 1.6 5.1 2.7 5.1 2.75 5.15 2.75 6.15 2.75 7.15 2.75 7.15 1.65 M-4.45 2.35 L-4.6 2.05 -4.7 1.45 -4.8 0.85 -4.8 0.0 -4.8 -0.85 -4.7 -1.4 -4.6 -1.95 -4.5 -2.3 -4.4 -2.6 -4.25 -2.85 -4.1 -3.15 -4.0 -3.3 -3.85 -3.5 -3.8 -3.55 -3.7 -3.6 -3.7 -3.65 -3.7 -3.65 -5.15 -3.65 -6.6 -3.65 -6.6 -0.5 -6.6 2.65 -6.55 2.7 -6.5 2.7 -5.4 2.7 -4.35 2.7 -4.45 2.35 M2.1 1.85 L2.2 1.45 2.25 1.3 2.25 1.1 2.45 0.3 2.6 -0.5 2.65 -0.85 2.75 -1.2 2.85 -1.75 2.95 -2.25 3.0 -2.65 3.1 -3.05 3.15 -3.25 3.2 -3.5 3.2 -3.6 3.2 -3.65 2.0 -3.65 0.85 -3.65 0.85 -3.55 0.9 -3.45 1.0 -2.7 1.15 -1.95 1.2 -1.8 1.25 -1.6 1.4 -0.9 1.5 -0.2 1.55 0.0 1.6 0.2 1.75 0.9 1.85 1.65 1.9 1.8 1.95 2.0 1.95 2.1 1.95 2.2 2.0 2.2 2.05 2.2 2.1 1.85 M7.15 -1.8 L7.15 -2.75 6.1 -2.75 5.1 -2.75 5.1 -1.85 5.1 -0.95 5.15 -0.9 5.2 -0.9 6.2 -0.9 7.15 -0.9 7.15 -1.8 M-0.35 -3.5 L-0.4 -3.65 -0.5 -3.65 -0.65 -3.65 -0.6 -3.6 -0.55 -3.55 -0.45 -3.45 -0.35 -3.3 -0.35 -3.35 -0.35 -3.35 -0.35 -3.5" fill="#cecece" fill-rule="evenodd" stroke="none"/>
    <path d="M-8.2 0.0 L-8.2 -4.65 -0.1 -4.65 8.0 -4.65 8.0 0.0 8.0 4.65 -0.1 4.65 -8.2 4.65 -8.2 0.0 M-3.7 3.6 L-3.85 3.45 -3.95 3.3 -4.05 3.15 -4.05 3.45 -4.05 3.8 -3.8 3.8 -3.55 3.8 -3.7 3.6 M1.2 3.15 L1.05 2.55 0.95 2.1 0.85 1.7 0.65 0.8 0.45 -0.05 0.4 0.5 0.4 1.05 0.3 1.5 0.2 1.95 0.1 2.3 -0.05 2.7 -0.2 3.0 -0.4 3.3 -0.6 3.55 -0.8 3.8 0.25 3.8 1.35 3.8 1.2 3.15 M3.9 1.2 L3.9 -1.35 3.9 -1.35 3.85 -1.3 3.8 -0.95 3.7 -0.6 3.6 -0.15 3.5 0.3 3.4 0.6 3.35 0.9 3.15 1.7 3.0 2.5 2.9 2.85 2.85 3.2 2.75 3.5 2.7 3.8 3.3 3.8 3.9 3.8 3.9 1.2 M-1.7 2.75 L-1.5 2.7 -1.3 2.45 -1.1 2.25 -1.0 2.0 -0.9 1.7 -0.8 1.3 -0.75 0.9 -0.75 -0.2 -0.8 -1.25 -0.9 -1.65 -1.0 -2.0 -1.1 -2.2 -1.25 -2.4 -1.4 -2.6 -1.6 -2.75 -1.75 -2.8 -1.95 -2.85 -2.15 -2.85 -2.4 -2.85 -2.6 -2.8 -2.8 -2.75 -3.0 -2.5 -3.25 -2.25 -3.35 -1.95 -3.45 -1.65 -3.55 -1.15 -3.6 -0.7 -3.6 0.25 -3.55 1.15 -3.5 1.5 -3.4 1.85 -3.3 2.1 -3.15 2.4 -3.0 2.55 -2.85 2.7 -2.65 2.75 -2.45 2.85 -2.2 2.85 -1.9 2.85 -1.7 2.75 M-4.35 2.65 L-4.35 2.55 -4.5 2.1 -4.65 1.7 -4.7 1.1 -4.8 0.5 -4.8 0.0 -4.8 -0.5 -4.7 -1.1 -4.65 -1.65 -4.55 -2.05 -4.4 -2.4 -4.25 -2.8 -4.05 -3.15 -3.85 -3.4 -3.65 -3.65 -5.1 -3.65 -6.6 -3.65 -6.6 -0.5 -6.6 2.7 -6.55 2.75 -6.5 2.75 -5.4 2.75 -4.3 2.75 -4.35 2.65 M7.15 1.6 L7.15 0.45 6.1 0.45 5.1 0.45 5.1 1.6 5.1 2.75 6.1 2.75 7.15 2.75 7.15 1.6 M3.0 -2.35 L3.2 -3.5 3.25 -3.6 3.25 -3.65 2.0 -3.65 0.8 -3.65 0.8 -3.6 0.85 -3.5 1.0 -2.75 1.15 -1.95 1.45 -0.5 1.7 0.95 1.85 1.6 1.95 2.25 2.0 2.3 2.05 2.4 2.4 0.55 2.75 -1.25 3.0 -2.35 M7.15 -1.8 L7.15 -2.8 6.1 -2.8 5.1 -2.8 5.1 -1.85 5.1 -0.95 5.1 -0.9 5.15 -0.85 6.15 -0.85 7.15 -0.85 7.15 -1.8 M-0.35 -3.45 L-0.4 -3.65 -0.55 -3.65 -0.7 -3.65 -0.5 -3.45 -0.3 -3.2 -0.3 -3.25 -0.3 -3.25 -0.35 -3.45" fill="#b0b0b0" fill-rule="evenodd" stroke="none"/>
    <path d="M-8.2 0.0 L-8.2 -4.65 -0.1 -4.65 8.0 -4.65 8.0 0.0 8.0 4.65 -0.1 4.65 -8.2 4.65 -8.2 0.0 M-3.75 3.5 L-4.05 3.2 -4.1 3.2 -4.1 3.15 -4.1 3.45 -4.1 3.8 -3.8 3.8 -3.5 3.8 -3.75 3.5 M1.35 3.7 L1.3 3.6 0.95 2.15 0.65 0.65 0.55 0.25 0.45 -0.15 0.4 0.45 0.4 1.05 0.3 1.45 0.25 1.9 0.1 2.2 0.0 2.55 -0.15 2.9 -0.35 3.25 -0.6 3.5 -0.85 3.8 0.25 3.8 1.35 3.8 1.35 3.7 M3.95 1.15 L3.95 -1.5 3.9 -1.45 3.9 -1.4 3.65 -0.5 3.45 0.45 3.35 0.9 3.25 1.3 3.2 1.5 3.15 1.75 2.9 2.7 2.7 3.7 2.7 3.75 2.7 3.8 3.3 3.8 3.95 3.8 3.95 1.15 M-1.6 2.75 L-1.4 2.65 -1.25 2.4 -1.05 2.2 -0.9 1.8 -0.8 1.4 -0.75 0.7 -0.7 0.0 -0.75 -0.7 -0.8 -1.4 -0.9 -1.8 -1.05 -2.15 -1.25 -2.4 -1.4 -2.65 -1.6 -2.75 -1.8 -2.85 -2.05 -2.9 -2.25 -2.9 -2.45 -2.85 -2.65 -2.8 -2.9 -2.65 -3.1 -2.5 -3.25 -2.15 -3.45 -1.75 -3.55 -1.3 -3.65 -0.85 -3.65 0.0 -3.65 0.85 -3.55 1.3 -3.45 1.8 -3.3 2.05 -3.2 2.35 -3.05 2.5 -2.95 2.65 -2.75 2.75 -2.6 2.85 -2.45 2.85 -2.3 2.9 -2.05 2.9 -1.8 2.85 -1.6 2.75 M7.15 1.6 L7.15 0.4 6.1 0.4 5.05 0.4 5.05 1.55 5.05 2.7 5.05 2.75 5.1 2.8 6.1 2.8 7.15 2.8 7.15 1.6 M-4.3 2.7 L-4.35 2.6 -4.45 2.2 -4.6 1.85 -4.65 1.35 -4.75 0.8 -4.75 0.05 -4.75 -0.75 -4.7 -1.2 -4.65 -1.6 -4.5 -2.0 -4.4 -2.35 -4.2 -2.8 -4.05 -3.2 -3.8 -3.45 -3.6 -3.65 -5.1 -3.65 -6.65 -3.65 -6.65 -0.5 -6.65 2.7 -6.6 2.75 -6.55 2.75 -5.4 2.75 -4.25 2.75 -4.3 2.7 M2.75 -1.15 L3.25 -3.6 3.25 -3.6 3.25 -3.65 2.0 -3.65 0.8 -3.65 0.8 -3.65 0.8 -3.6 0.85 -3.25 0.95 -2.95 1.25 -1.45 1.5 0.0 1.6 0.35 1.65 0.7 1.8 1.5 1.95 2.35 2.0 2.4 2.05 2.45 2.15 1.9 2.25 1.3 2.75 -1.15 M7.15 -1.8 L7.15 -2.8 6.1 -2.8 5.05 -2.8 5.05 -1.85 5.05 -0.95 5.05 -0.9 5.1 -0.85 6.1 -0.85 7.15 -0.85 7.15 -1.8 M-0.3 -3.4 L-0.35 -3.65 -0.55 -3.65 -0.75 -3.65 -0.5 -3.4 -0.3 -3.15 -0.3 -3.1 -0.3 -3.05 -0.25 -3.05 -0.2 -3.1 -0.3 -3.4" fill="#8e8e8e" fill-rule="evenodd" stroke="none"/>
    <path d="M-8.2 0.0 L-8.2 -4.65 -0.1 -4.65 8.0 -4.65 8.0 0.0 8.0 4.65 -0.1 4.65 -8.2 4.65 -8.2 0.0 M-3.7 3.6 L-3.85 3.4 -3.95 3.25 -4.05 3.1 -4.1 3.1 -4.1 3.1 -4.1 3.45 -4.1 3.8 -3.8 3.8 -3.5 3.8 -3.7 3.6 M1.35 3.75 L1.35 3.7 1.05 2.45 0.8 1.2 0.6 0.5 0.45 -0.2 0.4 0.35 0.4 0.85 0.3 1.35 0.2 1.85 0.15 2.1 0.05 2.4 -0.15 2.8 -0.35 3.2 -0.45 3.3 -0.55 3.45 -0.7 3.6 -0.85 3.8 0.25 3.8 1.35 3.8 1.35 3.75 1.35 3.75 M3.95 1.1 L3.95 -1.55 3.9 -1.55 3.85 -1.55 3.85 -1.45 3.85 -1.35 3.5 0.3 3.1 1.95 3.05 2.15 3.0 2.35 2.85 3.0 2.7 3.7 2.7 3.75 2.7 3.8 3.3 3.8 3.95 3.8 3.95 1.1 M-1.8 2.85 L-1.6 2.8 -1.4 2.6 -1.15 2.4 -1.05 2.1 -0.9 1.8 -0.8 1.45 -0.75 1.05 -0.75 0.0 -0.75 -1.05 -0.8 -1.45 -0.9 -1.8 -1.05 -2.1 -1.15 -2.35 -1.3 -2.55 -1.5 -2.7 -1.7 -2.8 -1.9 -2.9 -2.2 -2.9 -2.45 -2.9 -2.65 -2.8 -2.85 -2.7 -3.05 -2.5 -3.2 -2.35 -3.35 -2.05 -3.45 -1.8 -3.55 -1.4 -3.65 -1.0 -3.65 0.0 -3.65 1.0 -3.55 1.4 -3.45 1.85 -3.3 2.15 -3.15 2.45 -2.95 2.65 -2.7 2.8 -2.55 2.85 -2.4 2.9 -2.2 2.9 -2.0 2.9 -1.8 2.85 -1.8 2.85 M-4.25 2.75 L-4.25 2.7 -4.4 2.4 -4.5 2.15 -4.6 1.7 -4.7 1.2 -4.7 0.0 -4.7 -1.2 -4.6 -1.65 -4.5 -2.1 -4.4 -2.35 -4.35 -2.55 -4.25 -2.75 -4.1 -3.0 -3.85 -3.35 -3.6 -3.65 -5.1 -3.65 -6.65 -3.65 -6.65 -0.45 -6.65 2.75 -6.6 2.8 -6.55 2.8 -5.4 2.8 -4.25 2.8 -4.25 2.75 M7.15 1.6 L7.15 0.4 6.1 0.4 5.05 0.4 5.05 1.6 5.05 2.8 6.1 2.8 7.15 2.8 7.15 1.6 M2.55 0.1 L3.0 -2.25 3.15 -2.95 3.3 -3.65 2.05 -3.65 0.8 -3.65 0.8 -3.65 0.8 -3.6 0.95 -2.7 1.15 -1.8 1.45 -0.35 1.7 1.1 1.85 1.75 1.95 2.35 2.0 2.4 2.05 2.45 2.05 2.45 2.05 2.45 2.55 0.1 M7.15 -1.8 L7.15 -2.8 6.1 -2.8 5.05 -2.8 5.05 -1.8 5.05 -0.85 6.1 -0.85 7.15 -0.85 7.15 -1.8 M-0.3 -3.4 L-0.35 -3.65 -0.55 -3.65 -0.75 -3.65 -0.5 -3.35 -0.25 -3.05 -0.25 -3.1 -0.2 -3.15 -0.3 -3.4" fill="#727272" fill-rule="evenodd" stroke="none"/>
    <path d="M-8.2 0.0 L-8.2 -4.65 -0.1 -4.65 8.0 -4.65 8.0 0.0 8.0 4.65 -0.1 4.65 -8.2 4.65 -8.2 0.0 M-3.5 3.8 L-3.45 3.75 -3.65 3.55 -3.85 3.35 -3.95 3.2 -4.05 3.05 -4.1 3.05 -4.1 3.05 -4.1 3.4 -4.1 3.75 -4.1 3.8 -4.05 3.85 -3.8 3.85 -3.5 3.85 -3.5 3.8 M1.35 3.7 L1.35 3.6 1.3 3.4 1.25 3.25 1.05 2.45 0.9 1.7 0.7 0.85 0.5 0.05 0.5 -0.1 0.45 -0.25 0.4 0.0 0.4 0.2 0.35 0.85 0.3 1.5 0.15 1.95 0.05 2.35 -0.15 2.8 -0.4 3.25 -0.65 3.5 -0.9 3.75 -0.85 3.8 -0.85 3.85 0.25 3.85 1.35 3.85 1.35 3.7 1.35 3.7 M3.95 1.05 L3.95 -1.65 3.9 -1.6 3.9 -1.55 3.8 -1.15 3.7 -0.75 3.65 -0.45 3.55 -0.15 3.25 1.2 2.95 2.55 2.85 2.9 2.8 3.25 2.7 3.5 2.65 3.75 2.65 3.8 2.7 3.85 3.3 3.8 3.95 3.8 3.95 1.05 M-1.5 2.75 L-1.3 2.6 -1.15 2.35 -1.0 2.1 -0.9 1.85 -0.8 1.55 -0.75 1.05 -0.7 0.6 -0.7 0.0 -0.7 -0.6 -0.75 -1.05 -0.8 -1.5 -0.9 -1.8 -1.0 -2.15 -1.2 -2.4 -1.4 -2.7 -1.65 -2.8 -1.9 -2.95 -2.2 -2.9 -2.45 -2.9 -2.7 -2.8 -2.95 -2.7 -3.1 -2.45 -3.3 -2.2 -3.45 -1.8 -3.55 -1.45 -3.6 -0.9 -3.65 -0.4 -3.65 0.35 -3.6 1.1 -3.55 1.5 -3.45 1.9 -3.3 2.15 -3.15 2.45 -2.95 2.65 -2.8 2.8 -2.6 2.85 -2.45 2.9 -2.1 2.9 -1.7 2.9 -1.5 2.75 -1.5 2.75 M7.15 2.8 L7.2 2.7 7.2 1.6 7.2 0.45 7.15 0.4 7.1 0.35 6.1 0.35 5.05 0.35 5.05 1.55 5.05 2.75 5.05 2.8 5.1 2.85 6.1 2.85 7.1 2.85 7.15 2.8 M-4.25 2.75 L-4.25 2.7 -4.4 2.4 -4.5 2.1 -4.6 1.6 -4.7 1.1 -4.7 0.0 -4.7 -1.1 -4.6 -1.6 -4.5 -2.05 -4.4 -2.35 -4.25 -2.65 -4.1 -3.0 -3.9 -3.3 -3.75 -3.45 -3.55 -3.65 -3.6 -3.7 -3.7 -3.7 -5.15 -3.7 -6.6 -3.7 -6.6 -0.5 -6.65 2.7 -6.6 2.75 -6.6 2.8 -5.45 2.8 -4.25 2.8 -4.25 2.75 M2.7 -0.65 L3.15 -3.0 3.2 -3.3 3.3 -3.65 3.25 -3.65 3.25 -3.7 2.0 -3.7 0.8 -3.7 0.8 -3.6 0.8 -3.5 1.0 -2.45 1.2 -1.4 1.4 -0.55 1.55 0.3 1.75 1.3 1.95 2.3 2.0 2.4 2.05 2.55 2.15 2.15 2.2 1.75 2.7 -0.65 M7.15 -0.85 L7.2 -0.95 7.2 -1.85 7.2 -2.75 7.15 -2.8 7.1 -2.85 6.1 -2.85 5.05 -2.85 5.05 -1.85 5.05 -0.9 5.05 -0.85 5.1 -0.8 6.1 -0.8 7.1 -0.8 7.15 -0.85 M-0.3 -3.5 L-0.35 -3.7 -0.45 -3.7 -0.55 -3.7 -0.7 -3.7 -0.8 -3.65 -0.6 -3.45 -0.45 -3.3 -0.35 -3.15 -0.25 -3.0 -0.25 -3.15 -0.25 -3.3 -0.3 -3.5" fill="#505050" fill-rule="evenodd" stroke="none"/>
    <path d="M-8.2 0.0 L-8.2 -4.65 -0.1 -4.65 8.0 -4.65 8.0 0.0 8.0 4.65 -0.1 4.65 -8.2 4.65 -8.2 0.0 M-3.4 3.8 L-3.4 3.75 -3.6 3.6 -3.75 3.45 -3.9 3.25 -4.05 3.05 -4.1 3.05 -4.1 3.05 -4.1 3.45 -4.1 3.85 -3.75 3.85 -3.4 3.85 -3.4 3.8 M1.35 3.8 L1.4 3.75 1.3 3.35 1.2 2.9 1.1 2.55 1.05 2.25 0.95 1.9 0.9 1.6 0.8 1.15 0.7 0.75 0.6 0.25 0.45 -0.3 0.45 -0.25 0.4 -0.2 0.35 0.6 0.3 1.4 0.2 1.75 0.1 2.1 0.0 2.4 -0.1 2.7 -0.3 3.05 -0.5 3.4 -0.75 3.6 -0.95 3.8 -0.95 3.8 -0.95 3.85 0.2 3.85 1.35 3.85 1.35 3.8 M4.0 1.0 L4.0 -1.8 3.95 -1.7 3.9 -1.6 3.8 -1.2 3.7 -0.8 3.65 -0.65 3.6 -0.45 3.4 0.35 3.25 1.15 3.15 1.45 3.1 1.75 3.0 2.2 2.9 2.7 2.8 3.0 2.75 3.35 2.7 3.5 2.65 3.7 2.65 3.75 2.65 3.85 3.3 3.8 4.0 3.8 4.0 1.0 M-1.75 2.9 L-1.55 2.8 -1.4 2.65 -1.25 2.55 -1.15 2.35 -1.0 2.2 -0.95 1.95 -0.85 1.75 -0.75 1.35 -0.7 0.9 -0.65 0.05 -0.65 -0.85 -0.75 -1.2 -0.8 -1.55 -0.95 -1.95 -1.05 -2.3 -1.35 -2.6 -1.6 -2.85 -1.8 -2.9 -2.0 -2.95 -2.2 -2.95 -2.35 -2.95 -2.55 -2.9 -2.7 -2.85 -2.9 -2.7 -3.1 -2.55 -3.2 -2.35 -3.35 -2.15 -3.45 -1.85 -3.55 -1.5 -3.65 -0.75 -3.7 0.0 -3.65 0.75 -3.55 1.5 -3.45 1.85 -3.35 2.2 -3.2 2.4 -3.05 2.6 -2.95 2.7 -2.8 2.8 -2.6 2.9 -2.4 2.95 -2.2 2.95 -2.0 2.95 -1.75 2.9 -1.75 2.9 M-4.25 2.8 L-4.2 2.75 -4.35 2.35 -4.5 1.95 -4.6 1.4 -4.7 0.9 -4.7 0.0 -4.7 -0.95 -4.6 -1.4 -4.5 -1.85 -4.4 -2.2 -4.3 -2.55 -4.15 -2.85 -3.95 -3.2 -3.75 -3.45 -3.5 -3.65 -3.55 -3.7 -3.55 -3.7 -5.1 -3.7 -6.65 -3.7 -6.65 -0.45 -6.65 2.8 -6.6 2.85 -6.55 2.85 -5.4 2.85 -4.3 2.85 -4.25 2.8 M7.15 1.6 L7.15 0.35 6.1 0.35 5.05 0.35 5.05 0.4 5.0 0.45 5.0 1.6 5.0 2.7 5.0 2.8 5.05 2.85 6.1 2.85 7.15 2.85 7.15 1.6 M2.4 1.0 L2.6 -0.1 2.65 -0.4 2.75 -0.7 2.75 -0.8 2.75 -0.9 2.8 -1.2 2.9 -1.5 3.1 -2.55 3.3 -3.6 3.3 -3.65 3.3 -3.7 2.05 -3.7 0.8 -3.7 0.75 -3.7 0.75 -3.65 0.8 -3.3 0.9 -2.95 0.95 -2.7 1.0 -2.5 1.1 -1.75 1.25 -1.05 1.3 -0.85 1.35 -0.65 1.5 0.05 1.6 0.75 1.65 0.95 1.7 1.15 1.8 1.75 1.9 2.35 2.0 2.45 2.05 2.6 2.1 2.35 2.15 2.1 2.4 1.0 M7.15 -1.75 L7.2 -2.7 7.15 -2.8 7.15 -2.9 6.15 -2.9 5.15 -2.9 5.05 -2.85 5.0 -2.75 5.0 -1.85 5.0 -0.95 5.0 -0.85 5.05 -0.8 6.1 -0.8 7.15 -0.8 7.15 -1.75 M-0.25 -3.3 L-0.3 -3.65 -0.35 -3.7 -0.4 -3.7 -0.6 -3.7 -0.8 -3.7 -0.8 -3.7 -0.8 -3.65 -0.55 -3.4 -0.35 -3.1 -0.25 -3.0 -0.2 -2.9 -0.2 -2.95 -0.15 -2.95 -0.25 -3.3" fill="#2e2e2e" fill-rule="evenodd" stroke="none"/>
    <path d="M-8.2 0.0 L-8.2 -4.65 -0.1 -4.65 8.0 -4.65 8.0 0.0 8.0 4.65 -0.1 4.65 -8.2 4.65 -8.2 0.0 M-3.35 3.8 L-3.35 3.8 -3.55 3.6 -3.7 3.45 -3.9 3.2 -4.1 2.95 -4.15 3.0 -4.15 3.0 -4.15 3.4 -4.15 3.75 -4.15 3.8 -4.1 3.85 -3.75 3.85 -3.35 3.85 -3.35 3.8 M1.4 3.65 L1.35 3.5 1.3 3.15 1.2 2.85 1.1 2.35 1.0 1.9 0.9 1.6 0.85 1.25 0.75 0.95 0.7 0.6 0.6 0.15 0.5 -0.3 0.45 -0.4 0.4 -0.55 0.4 -0.55 0.35 -0.55 0.35 0.2 0.35 0.95 0.25 1.45 0.15 1.95 0.0 2.25 -0.1 2.6 -0.25 2.9 -0.45 3.25 -0.75 3.5 -1.0 3.8 -1.0 3.8 -1.0 3.85 0.2 3.85 1.4 3.85 1.4 3.65 M4.0 0.95 L4.0 -1.95 3.95 -1.9 3.9 -1.85 3.85 -1.65 3.8 -1.4 3.75 -1.1 3.65 -0.75 3.55 -0.3 3.45 0.15 3.35 0.45 3.3 0.75 3.2 1.2 3.1 1.7 3.0 2.0 2.95 2.35 2.85 2.7 2.8 3.0 2.7 3.3 2.65 3.6 2.65 3.7 2.65 3.85 3.3 3.85 4.0 3.85 4.0 0.95 M-1.65 2.9 L-1.4 2.75 -1.25 2.6 -1.1 2.4 -1.0 2.2 -0.9 2.0 -0.8 1.55 -0.65 1.1 -0.65 0.0 -0.65 -1.1 -0.8 -1.55 -0.9 -2.0 -1.0 -2.2 -1.1 -2.4 -1.35 -2.65 -1.6 -2.9 -1.8 -2.95 -2.0 -3.0 -2.2 -3.0 -2.35 -3.0 -2.55 -2.95 -2.75 -2.9 -3.0 -2.65 -3.25 -2.4 -3.3 -2.2 -3.4 -2.0 -3.45 -1.95 -3.5 -1.85 -3.6 -1.25 -3.7 -0.65 -3.7 0.0 -3.7 0.65 -3.6 1.25 -3.5 1.85 -3.35 2.2 -3.2 2.5 -3.05 2.65 -2.9 2.8 -2.7 2.9 -2.45 3.0 -2.2 3.0 -1.95 3.0 -1.65 2.9 -1.65 2.9 M-4.15 2.8 L-4.15 2.75 -4.25 2.5 -4.35 2.3 -4.45 2.0 -4.55 1.75 -4.6 1.4 -4.65 1.0 -4.7 0.5 -4.75 0.0 -4.7 -0.5 -4.65 -1.05 -4.6 -1.4 -4.55 -1.75 -4.45 -2.0 -4.35 -2.25 -4.25 -2.55 -4.15 -2.8 -3.9 -3.15 -3.65 -3.55 -3.55 -3.6 -3.45 -3.6 -3.45 -3.65 -3.45 -3.7 -5.05 -3.7 -6.65 -3.7 -6.65 -0.4 -6.65 2.85 -5.4 2.85 -4.15 2.85 -4.15 2.8 M7.2 1.6 L7.2 0.35 6.1 0.35 5.0 0.35 5.0 1.6 5.0 2.85 6.1 2.85 7.2 2.85 7.2 1.6 M2.2 2.05 L2.3 1.6 2.35 1.25 2.4 0.9 2.55 0.35 2.65 -0.2 2.7 -0.55 2.8 -0.9 2.9 -1.45 3.0 -1.95 3.05 -2.35 3.15 -2.8 3.2 -3.15 3.3 -3.5 3.3 -3.6 3.3 -3.7 2.0 -3.7 0.75 -3.7 0.75 -3.55 0.8 -3.35 0.9 -2.8 1.0 -2.25 1.05 -1.9 1.15 -1.5 1.25 -1.0 1.35 -0.45 1.45 -0.05 1.5 0.3 1.6 0.8 1.7 1.3 1.8 1.75 1.85 2.15 1.9 2.3 1.95 2.5 2.0 2.55 2.05 2.6 2.1 2.55 2.1 2.5 2.2 2.05 M7.15 -1.85 L7.2 -2.9 6.1 -2.9 5.0 -2.9 5.0 -1.85 5.0 -0.85 5.0 -0.8 5.05 -0.75 6.1 -0.75 7.15 -0.75 7.15 -1.85 M-0.15 -3.05 L-0.2 -3.3 -0.25 -3.5 -0.3 -3.7 -0.6 -3.7 -0.9 -3.7 -0.9 -3.7 -0.9 -3.65 -0.75 -3.55 -0.6 -3.4 -0.4 -3.15 -0.2 -2.85 -0.15 -2.85 -0.1 -2.85 -0.15 -3.05" fill="#000000" fill-rule="evenodd" stroke="none"/>
  </g>
</svg>
