<?xml version="1.0" encoding="UTF-8" standalone="no"?>
<svg xmlns:xlink="http://www.w3.org/1999/xlink" height="49.8px" width="25.4px" xmlns="http://www.w3.org/2000/svg">
  <g transform="matrix(1.0, 0.0, 0.0, 1.0, 12.7, 24.9)">
    <path d="M-9.05 6.1 Q-9.15 6.1 -9.25 6.15 -9.35 6.2 -9.45 6.25 -9.5 6.3 -9.6 6.35 -9.65 6.4 -9.7 6.5 -9.75 6.55 -9.75 6.6 -9.8 6.65 -9.85 6.7 -9.85 6.75 -9.85 6.8 -9.85 6.8 -9.85 6.8 -9.9 6.85 -9.9 6.95 -9.95 7.0 -9.95 7.1 -9.95 7.15 -9.9 7.25 -9.9 7.35 -9.85 7.4 -9.85 7.5 -9.8 7.6 -9.75 7.75 -9.75 7.75 -9.7 7.85 -9.7 7.9 -9.7 8.0 -9.7 8.05 -9.6 8.4 -9.45 9.45 -9.3 10.4 -9.15 10.85 -9.1 10.95 -9.05 10.95 -9.0 11.0 -8.95 11.05 -8.9 11.05 -8.85 11.05 -8.75 11.0 -8.7 11.0 -8.65 10.95 -8.55 10.9 -8.5 10.9 -8.45 10.85 -8.25 10.75 -8.3 10.75 -8.25 10.7 -8.2 10.7 -8.1 10.65 -8.0 10.6 -7.95 10.6 -7.75 10.5 -7.6 10.45 -7.5 10.4 -7.4 10.35 -7.3 10.3 -7.15 10.2 -7.05 10.15 -6.95 10.05 -6.9 9.95 -6.8 9.9 -6.75 9.8 -6.65 9.65 -6.65 9.55 -6.65 9.45 -6.65 9.35 -6.7 9.3 -6.7 9.2 -6.75 9.1 -6.8 9.0 -6.85 8.95 -6.95 8.85 -7.0 8.8 -7.05 8.65 -7.15 8.55 -7.2 8.5 -7.25 8.4 -7.3 8.35 -7.35 8.25 -7.35 8.2 -8.3 6.55 -8.5 6.3 -8.55 6.3 -8.6 6.25 L-9.05 6.1 M-8.25 8.35 Q-8.2 8.45 -7.95 8.95 -7.75 9.4 -7.7 9.5 -7.8 9.55 -8.1 9.8 -8.4 10.0 -8.5 10.05 -8.75 8.9 -8.8 8.8 -8.75 8.8 -8.55 8.55 -8.3 8.4 -8.25 8.35 L-8.25 8.35" fill="#ffff00" fill-rule="evenodd" stroke="none"/>
    <path d="M-9.05 6.1 Q-9.15 6.1 -9.25 6.15 -9.35 6.2 -9.45 6.25 -9.5 6.3 -9.6 6.35 -9.65 6.4 -9.7 6.5 -9.75 6.55 -9.75 6.6 -9.8 6.65 -9.85 6.7 -9.85 6.75 -9.85 6.8 -9.85 6.8 -9.85 6.8 -9.9 6.85 -9.9 6.95 -9.95 7.0 -9.95 7.1 -9.95 7.15 -9.9 7.25 -9.9 7.35 -9.85 7.4 -9.85 7.5 -9.8 7.6 -9.75 7.75 -9.75 7.75 -9.7 7.85 -9.7 7.9 -9.7 8.0 -9.7 8.05 -9.6 8.4 -9.45 9.45 -9.3 10.4 -9.15 10.85 -9.1 10.95 -9.05 10.95 -9.0 11.0 -8.95 11.05 -8.9 11.05 -8.85 11.05 -8.75 11.0 -8.7 11.0 -8.65 10.95 -8.55 10.9 -8.5 10.9 -8.45 10.85 -8.25 10.75 -8.3 10.75 -8.25 10.7 -8.2 10.7 -8.1 10.65 -8.0 10.6 -7.95 10.6 -7.75 10.5 -7.6 10.45 -7.5 10.4 -7.4 10.35 -7.3 10.3 -7.15 10.2 -7.05 10.15 -6.95 10.05 -6.9 9.95 -6.8 9.9 -6.75 9.8 -6.65 9.65 -6.65 9.55 -6.65 9.45 -6.65 9.35 -6.7 9.3 -6.7 9.2 -6.75 9.1 -6.8 9.0 -6.85 8.95 -6.95 8.85 -7.0 8.8 -7.05 8.65 -7.15 8.55 -7.2 8.5 -7.25 8.4 -7.3 8.35 -7.35 8.25 -7.35 8.2 -8.3 6.55 -8.5 6.3 -8.55 6.3 -8.6 6.25 L-9.05 6.1 M-8.25 8.35 Q-8.2 8.45 -7.95 8.95 -7.75 9.4 -7.7 9.5 -7.8 9.55 -8.1 9.8 -8.4 10.0 -8.5 10.05 -8.75 8.9 -8.8 8.8 -8.75 8.8 -8.55 8.55 -8.3 8.4 -8.25 8.35 L-8.25 8.35 Z" fill="none" stroke="#ff0000" stroke-linecap="round" stroke-linejoin="round" stroke-width="0.1"/>
    <path d="M2.35 -4.3 Q2.1 -3.95 1.05 -2.6 -0.15 -1.05 -1.0 -0.15 -1.85 0.8 -3.2 2.0 -3.5 2.3 -3.8 2.55 -4.1 2.8 -4.4 3.05 -4.7 3.3 -5.05 3.55 -5.35 3.75 -5.7 3.95 -6.0 4.15 -6.35 4.4 -6.3 4.35 -7.05 4.8 -7.45 5.05 -7.7 5.25 -8.05 5.5 -8.4 5.7 -8.45 5.75 -8.5 5.8 -8.55 5.85 -8.6 5.9 -8.6 5.95 -8.65 6.05 -8.65 6.1 -8.65 6.2 -8.65 6.25 -8.65 6.35 -8.6 6.4 -8.6 6.5 -8.55 6.55 -8.5 6.6 -8.5 6.7 -8.45 6.75 -8.4 6.8 -8.35 6.85 -8.3 6.9 -8.3 6.9 -8.25 6.9 -8.2 6.9 -8.15 6.9 -8.1 6.9 -8.05 6.85 -8.0 6.8 -8.0 6.8 -7.95 6.75 -7.9 6.7 -7.8 6.65 -7.75 6.6 -7.7 6.55 -7.0 6.15 -6.3 5.7 -5.6 5.25 -4.95 4.75 -4.3 4.3 -3.65 3.8 -3.05 3.3 -2.45 2.75 -1.85 2.2 -1.25 1.65 -0.7 1.1 -0.15 0.5 0.4 -0.1 0.95 -0.75 1.5 -1.35 2.05 -2.0 2.3 -2.35 3.3 -3.4 4.2 -4.35 4.7 -5.0 4.7 -5.05 4.7 -5.15 4.65 -5.2 4.6 -5.3 4.55 -5.35 4.45 -5.45 4.4 -5.5 4.3 -5.6 4.25 -5.65 4.1 -5.75 4.0 -5.85 3.95 -5.9 3.85 -5.95 3.8 -6.05 3.75 -6.1 3.7 -6.15 3.05 -5.2 2.35 -4.3 L2.35 -4.3" fill="#ff0000" fill-rule="evenodd" stroke="none"/>
    <path d="M2.35 -4.3 Q2.1 -3.95 1.05 -2.6 -0.15 -1.05 -1.0 -0.15 -1.85 0.8 -3.2 2.0 -3.5 2.3 -3.8 2.55 -4.1 2.8 -4.4 3.05 -4.7 3.3 -5.05 3.55 -5.35 3.75 -5.7 3.95 -6.0 4.15 -6.35 4.4 -6.3 4.35 -7.05 4.8 -7.45 5.05 -7.7 5.25 -8.05 5.5 -8.4 5.7 -8.45 5.75 -8.5 5.8 -8.55 5.85 -8.6 5.9 -8.6 5.95 -8.65 6.05 -8.65 6.1 -8.65 6.2 -8.65 6.25 -8.65 6.35 -8.6 6.4 -8.6 6.5 -8.55 6.55 -8.5 6.6 -8.5 6.7 -8.45 6.75 -8.4 6.8 -8.35 6.85 -8.3 6.9 -8.3 6.9 -8.25 6.9 -8.2 6.9 -8.15 6.9 -8.1 6.9 -8.05 6.85 -8.0 6.8 -8.0 6.8 -7.95 6.75 -7.9 6.7 -7.8 6.65 -7.75 6.6 -7.7 6.55 -7.0 6.15 -6.3 5.7 -5.6 5.25 -4.95 4.75 -4.3 4.3 -3.65 3.8 -3.05 3.3 -2.45 2.75 -1.85 2.2 -1.25 1.65 -0.7 1.1 -0.15 0.5 0.4 -0.1 0.95 -0.75 1.5 -1.35 2.05 -2.0 2.3 -2.35 3.3 -3.4 4.2 -4.35 4.7 -5.0 4.7 -5.05 4.7 -5.15 4.65 -5.2 4.6 -5.3 4.55 -5.35 4.45 -5.45 4.4 -5.5 4.3 -5.6 4.25 -5.65 4.1 -5.75 4.0 -5.85 3.95 -5.9 3.85 -5.95 3.8 -6.05 3.75 -6.1 3.7 -6.15 3.05 -5.2 2.35 -4.3 L2.35 -4.3 Z" fill="none" stroke="#ff0000" stroke-linecap="round" stroke-linejoin="round" stroke-width="1.0"/>
  </g>
</svg>
