<?xml version="1.0" encoding="UTF-8" standalone="no"?>
<svg xmlns:xlink="http://www.w3.org/1999/xlink" height="54.65px" width="42.55px" xmlns="http://www.w3.org/2000/svg">
  <g transform="matrix(1.0, 0.0, 0.0, 1.0, 21.25, 27.35)">
    <path d="M0.7 16.3 L-0.25 16.25 -0.75 16.1 -1.25 15.95 -1.4 15.8 -1.55 15.7 -1.55 15.0 -1.5 14.3 -1.3 13.45 -1.1 12.6 -0.7 11.7 -0.35 10.75 0.1 9.9 0.55 9.0 0.9 8.6 1.2 8.15 0.75 8.15 0.3 8.1 -1.55 8.05 -3.45 7.95 -4.95 7.8 -6.5 7.6 -8.5 7.3 -10.45 7.05 -10.95 6.95 -11.45 6.85 -12.1 6.75 -12.75 6.6 -13.8 6.35 -14.85 6.05 -16.25 5.55 -17.7 5.0 -17.8 4.95 -17.9 4.85 -17.8 4.3 -17.65 3.75 -17.55 3.35 -17.45 2.95 -17.35 1.85 -17.3 0.8 -17.4 0.0 -17.55 -0.8 -17.75 -1.7 -18.0 -2.6 -18.25 -3.35 -18.55 -4.1 -18.85 -4.9 -19.15 -5.7 -19.4 -6.5 -19.65 -7.3 -19.8 -7.8 -19.95 -8.3 -20.1 -8.95 -20.25 -9.6 -20.25 -11.5 -20.25 -13.35 -20.05 -14.1 -19.85 -14.85 -19.25 -16.3 -18.65 -17.75 -17.95 -18.85 -17.3 -19.9 -16.75 -20.55 -16.2 -21.2 -15.6 -21.8 -14.95 -22.4 -13.85 -23.2 -12.75 -23.95 -12.0 -24.35 -11.25 -24.75 -10.7 -24.75 -10.1 -24.75 -9.6 -24.45 -9.1 -24.15 -8.2 -23.7 -7.3 -23.25 -6.25 -22.8 -5.2 -22.4 -4.05 -22.05 -2.9 -21.75 -2.05 -21.6 -1.25 -21.45 0.25 -21.4 1.75 -21.35 2.3 -21.45 2.85 -21.55 3.45 -21.8 4.05 -22.0 4.7 -22.4 5.4 -22.85 5.75 -23.25 6.1 -23.7 6.4 -23.8 6.75 -23.9 7.1 -23.75 7.5 -23.6 8.25 -23.05 9.0 -22.5 9.75 -21.8 10.5 -21.1 11.1 -20.4 11.75 -19.75 12.2 -19.05 12.7 -18.3 13.2 -17.45 13.75 -16.55 14.3 -15.35 14.9 -14.15 15.5 -12.7 16.05 -11.2 16.4 -10.1 16.7 -9.0 16.85 -8.65 16.95 -8.3 17.1 -7.55 17.25 -6.85 17.65 -5.1 18.0 -3.4 18.2 -2.75 18.35 -2.15 18.7 -1.2 19.05 -0.25 19.4 0.4 19.8 1.05 19.8 1.2 19.8 1.4 18.9 2.2 18.05 3.05 17.35 3.5 16.65 4.0 15.8 4.5 14.95 5.0 14.05 5.4 13.15 5.8 11.85 6.3 10.5 6.75 10.25 6.85 10.0 6.95 10.45 7.2 10.95 7.45 11.5 7.85 12.0 8.25 12.8 9.0 13.6 9.8 14.0 10.25 14.35 10.75 14.75 11.3 15.1 11.9 15.15 12.45 15.2 13.05 14.7 13.6 14.25 14.15 13.65 14.75 13.05 15.3 12.8 15.45 12.5 15.6 12.25 15.6 12.0 15.6 11.65 15.35 11.35 15.15 10.75 14.5 10.15 13.85 9.7 13.15 9.25 12.45 8.95 11.65 8.6 10.85 8.55 10.55 8.45 10.3 7.85 10.5 7.2 10.7 6.6 10.75 6.0 10.8 5.4 10.7 4.8 10.6 4.4 10.45 4.0 10.25 4.05 10.5 4.1 10.75 4.3 12.05 4.5 13.35 4.65 13.9 4.75 14.5 4.75 15.0 4.75 15.5 4.65 15.75 4.5 15.95 4.35 16.1 4.15 16.25 3.6 16.3 3.05 16.4 2.35 16.4 1.6 16.4 0.7 16.3 0.7 16.3 M3.4 15.2 L3.45 15.15 3.15 13.4 2.85 11.65 2.7 10.45 2.5 9.25 2.75 9.1 3.0 8.95 2.95 8.7 2.85 8.4 2.75 8.4 2.7 8.4 2.4 8.75 2.15 9.05 2.0 9.3 1.8 9.5 1.45 10.2 1.05 10.95 0.65 11.9 0.2 12.9 0.0 13.65 -0.2 14.4 -0.2 14.75 -0.2 15.05 -0.05 15.1 0.1 15.15 1.1 15.25 2.15 15.3 2.75 15.25 3.35 15.25 3.4 15.2 3.4 15.2 M13.2 13.4 L13.85 12.75 13.85 12.6 13.85 12.45 13.4 11.75 13.0 11.0 12.35 10.35 11.7 9.65 11.2 9.25 10.7 8.8 10.25 8.45 9.75 8.1 9.65 8.3 9.6 8.55 9.6 8.9 9.55 9.3 9.75 9.85 9.9 10.45 10.25 11.25 10.55 12.0 10.9 12.6 11.25 13.15 11.75 13.7 12.25 14.3 12.4 14.15 12.55 14.05 13.2 13.4 13.2 13.4 M7.5 9.4 L8.1 9.15 8.1 8.85 8.15 8.55 8.25 8.35 8.4 8.15 8.25 7.75 8.15 7.3 7.8 6.75 7.5 6.15 7.5 5.95 7.5 5.75 7.15 5.65 6.8 5.55 6.05 5.55 5.3 5.55 4.75 5.75 4.2 5.9 4.15 6.05 4.1 6.2 4.0 6.7 3.95 7.2 4.15 7.95 4.35 8.7 4.45 8.95 4.6 9.15 4.85 9.35 5.15 9.55 5.5 9.6 5.9 9.7 6.4 9.65 6.9 9.65 7.5 9.4 M2.65 6.45 L2.7 6.0 2.5 6.0 2.25 6.0 1.2 5.75 0.15 5.55 -0.6 5.3 -1.3 5.0 -1.35 5.0 -1.4 5.0 -0.85 5.4 -0.25 5.8 0.25 6.05 0.75 6.35 1.35 6.55 1.95 6.8 2.15 6.85 2.4 6.85 2.5 6.9 2.65 6.9 2.65 6.45 M-1.1 6.2 L-1.8 5.75 -2.5 5.25 -3.2 4.7 -4.15 4.0 -5.05 3.3 -5.0 3.05 -4.95 2.85 -4.65 2.8 -4.35 2.8 -3.7 3.25 -3.1 3.75 -2.4 4.05 -1.7 4.4 -0.3 4.85 1.05 5.25 1.95 5.4 2.8 5.55 3.3 5.2 3.75 4.85 4.4 4.65 5.0 4.45 6.05 4.45 7.1 4.45 7.6 4.6 8.1 4.75 8.4 4.95 8.75 5.2 8.95 5.5 9.15 5.8 9.3 5.75 9.45 5.7 9.8 5.3 10.1 4.9 10.35 4.4 10.6 3.9 10.8 3.2 11.0 2.5 10.95 2.25 10.85 1.95 10.55 1.85 10.25 1.7 10.25 1.6 10.25 1.45 10.35 1.4 10.45 1.35 10.9 1.4 11.3 1.45 11.45 1.9 11.6 2.35 11.5 2.85 11.45 3.35 11.2 3.95 10.9 4.6 10.85 4.8 10.75 4.95 11.0 4.7 11.25 4.45 11.65 3.95 12.0 3.45 12.5 2.65 12.95 1.85 13.15 1.25 13.35 0.6 13.35 -0.2 13.35 -1.05 13.6 -1.15 13.85 -1.25 14.05 -1.1 14.25 -0.95 14.2 0.0 14.2 0.9 14.0 1.65 13.75 2.4 13.05 3.4 12.4 4.45 12.3 4.5 12.2 4.6 12.2 4.7 12.2 4.75 12.5 4.65 12.8 4.55 13.75 4.05 14.7 3.6 15.3 3.25 15.9 2.9 16.7 2.25 17.5 1.6 17.75 1.3 18.05 1.05 17.7 0.35 17.4 -0.3 17.1 -1.15 16.8 -2.05 16.7 -2.4 16.6 -2.75 16.45 -3.45 16.25 -4.1 15.85 -6.05 15.4 -8.0 15.3 -8.35 15.2 -8.7 15.1 -9.1 15.0 -9.5 14.65 -10.55 14.3 -11.6 13.6 -13.25 12.85 -14.95 12.4 -15.8 11.95 -16.65 11.4 -17.5 10.85 -18.4 10.65 -18.75 10.4 -19.05 9.7 -19.85 8.95 -20.65 7.95 -21.5 6.95 -22.35 6.5 -21.95 6.0 -21.6 5.55 -21.35 5.15 -21.05 4.65 -20.85 4.15 -20.65 3.5 -20.45 2.8 -20.25 1.9 -20.15 0.95 -20.05 -0.3 -20.15 -1.55 -20.2 -2.75 -20.45 -3.95 -20.7 -4.9 -20.95 -5.85 -21.25 -7.0 -21.7 -8.15 -22.15 -9.1 -22.65 -10.0 -23.1 -10.4 -23.35 -10.75 -23.55 -11.45 -23.15 -12.15 -22.75 -12.8 -22.25 -13.45 -21.8 -13.9 -21.4 -14.4 -21.0 -14.9 -20.45 -15.4 -19.95 -15.8 -19.4 -16.2 -18.85 -16.7 -18.05 -17.2 -17.25 -17.65 -16.25 -18.1 -15.2 -18.3 -14.45 -18.55 -13.75 -18.65 -13.1 -18.75 -12.45 -18.75 -11.6 -18.75 -10.75 -18.6 -9.7 -18.45 -8.65 -18.25 -8.05 -18.1 -7.5 -17.8 -6.45 -17.45 -5.4 -17.15 -4.75 -16.9 -4.1 -16.6 -3.05 -16.25 -2.05 -16.15 -1.55 -16.0 -1.05 -15.9 -0.45 -15.8 0.2 -15.8 1.2 -15.8 2.2 -15.9 2.8 -16.0 3.35 -16.05 3.85 -16.15 4.3 -15.2 4.6 -14.3 4.9 -13.0 5.2 -11.65 5.55 -10.65 5.7 -9.6 5.9 -8.3 6.1 -7.05 6.25 -6.75 6.25 -6.4 6.25 -6.6 6.15 -6.85 6.1 -7.75 5.75 -8.7 5.45 -9.65 5.0 -10.55 4.55 -11.35 4.05 -12.1 3.55 -12.85 2.95 -13.55 2.4 -14.05 1.6 -14.6 0.85 -14.55 0.65 -14.5 0.45 -14.35 0.35 -14.15 0.3 -14.0 0.35 -13.8 0.4 -13.5 0.85 -13.25 1.35 -12.8 1.85 -12.4 2.35 -11.45 3.0 -10.45 3.7 -9.7 4.1 -8.95 4.5 -7.85 4.95 -6.75 5.35 -5.4 5.7 -4.1 6.05 -2.8 6.3 -1.45 6.55 -1.2 6.55 -0.9 6.6 -0.65 6.6 -0.4 6.6 -1.1 6.2 -1.1 6.2 M-0.55 -18.05 L-0.7 -18.1 -1.5 -18.2 -2.35 -18.3 -3.45 -18.55 -4.55 -18.85 -4.85 -18.95 -5.2 -19.05 -6.0 -19.35 -6.85 -19.65 -7.7 -20.05 -8.55 -20.45 -9.8 -21.1 -11.1 -21.75 -11.05 -22.05 -11.0 -22.35 -10.75 -22.35 -10.55 -22.4 -8.85 -21.5 -7.2 -20.65 -6.15 -20.25 -5.1 -19.8 -3.8 -19.45 -2.55 -19.1 -1.6 -18.95 -0.7 -18.8 0.65 -18.75 1.95 -18.75 2.75 -19.0 3.6 -19.2 4.45 -19.55 5.3 -19.9 6.15 -20.6 7.0 -21.3 7.25 -21.3 7.5 -21.3 7.55 -21.15 7.6 -21.05 7.55 -20.85 7.5 -20.6 6.85 -20.1 6.2 -19.55 5.7 -19.3 5.25 -19.0 4.5 -18.75 3.8 -18.45 3.05 -18.25 2.25 -18.1 0.95 -18.05 -0.35 -18.0 -0.55 -18.05" fill="#d0d0d0" fill-rule="evenodd" stroke="none"/>
    <path d="M0.9 16.3 L0.05 16.25 -0.55 16.1 -1.15 15.95 -1.35 15.8 -1.55 15.6 -1.55 15.0 -1.5 14.35 -1.3 13.55 -1.1 12.7 -0.75 11.85 -0.4 10.95 0.1 10.05 0.6 9.1 0.9 8.65 1.25 8.2 1.2 8.15 1.15 8.15 -1.15 8.05 -3.45 7.95 -4.8 7.8 -6.2 7.6 -8.25 7.35 -10.35 7.05 -10.9 6.95 -11.45 6.85 -12.95 6.5 -14.4 6.2 -15.35 5.85 -16.3 5.55 -17.1 5.2 -17.9 4.9 -17.8 4.5 -17.75 4.1 -17.55 3.55 -17.4 3.0 -17.4 1.35 -17.4 -0.35 -17.7 -1.5 -18.0 -2.65 -18.25 -3.45 -18.55 -4.2 -18.85 -5.05 -19.2 -5.9 -19.45 -6.75 -19.7 -7.65 -19.9 -8.3 -20.05 -9.0 -20.15 -9.75 -20.3 -10.5 -20.3 -11.65 -20.3 -12.85 -20.05 -13.8 -19.85 -14.75 -19.25 -16.2 -18.65 -17.65 -17.95 -18.8 -17.2 -20.0 -16.65 -20.7 -16.05 -21.35 -14.75 -22.4 -13.45 -23.5 -12.6 -24.0 -11.8 -24.5 -11.45 -24.65 -11.1 -24.75 -10.65 -24.75 -10.25 -24.75 -9.0 -24.05 -7.7 -23.35 -6.35 -22.85 -5.0 -22.3 -3.8 -22.0 -2.55 -21.7 -1.9 -21.55 -1.25 -21.45 0.7 -21.45 2.6 -21.45 3.55 -21.8 4.45 -22.15 5.15 -22.7 5.8 -23.25 6.1 -23.5 6.4 -23.8 6.7 -23.8 7.0 -23.8 7.65 -23.4 8.3 -23.0 9.0 -22.4 9.7 -21.8 10.55 -20.95 11.45 -20.05 12.0 -19.3 12.55 -18.5 12.95 -17.85 13.35 -17.15 13.7 -16.45 14.1 -15.75 14.5 -14.9 14.9 -14.05 15.5 -12.6 16.05 -11.1 16.4 -10.0 16.7 -8.9 16.8 -8.55 16.95 -8.2 17.1 -7.5 17.25 -6.75 17.65 -5.05 18.0 -3.3 18.2 -2.65 18.35 -2.05 18.7 -1.1 19.05 -0.2 19.4 0.45 19.8 1.15 19.7 1.35 19.55 1.55 19.25 1.85 18.95 2.15 17.75 3.1 16.55 4.1 15.45 4.7 14.35 5.25 13.05 5.8 11.8 6.3 10.85 6.6 9.9 6.9 10.45 7.2 11.05 7.55 11.7 8.05 12.35 8.6 13.05 9.3 13.7 9.95 14.1 10.45 14.45 10.95 14.8 11.45 15.1 12.0 15.1 12.6 15.1 13.15 14.8 13.5 14.45 13.9 13.7 14.6 12.95 15.35 12.55 15.5 12.2 15.6 11.9 15.45 11.55 15.35 10.9 14.6 10.2 13.9 9.75 13.1 9.25 12.35 8.95 11.5 8.6 10.65 8.55 10.45 8.45 10.3 8.0 10.45 7.5 10.6 6.85 10.7 6.15 10.8 5.5 10.7 4.8 10.6 4.45 10.45 4.05 10.25 4.0 10.3 4.0 10.3 4.25 11.85 4.5 13.4 4.65 14.2 4.8 14.95 4.7 15.35 4.6 15.8 4.35 16.0 4.1 16.25 3.55 16.3 2.95 16.4 2.35 16.4 1.7 16.4 0.9 16.3 0.9 16.3 M3.4 15.2 L3.45 15.15 3.15 13.35 2.85 11.55 2.7 10.45 2.55 9.35 2.75 9.15 3.0 8.95 2.95 8.6 2.85 8.3 2.6 8.5 2.35 8.7 1.9 9.35 1.45 10.05 1.15 10.7 0.8 11.4 0.45 12.25 0.15 13.05 -0.05 13.7 -0.2 14.35 -0.2 14.7 -0.2 15.05 -0.05 15.1 0.1 15.15 1.0 15.25 1.95 15.3 2.65 15.3 3.35 15.25 3.4 15.2 M13.1 13.5 L13.85 12.85 13.85 12.6 13.85 12.35 13.5 11.75 13.1 11.1 12.55 10.5 11.95 9.85 11.3 9.25 10.65 8.65 10.2 8.4 9.8 8.1 9.75 8.15 9.65 8.2 9.6 8.65 9.5 9.15 9.8 10.15 10.1 11.1 10.4 11.75 10.7 12.35 11.05 12.9 11.4 13.45 11.8 13.85 12.15 14.25 12.25 14.25 12.4 14.2 13.1 13.5 M7.55 9.4 L8.15 9.2 8.15 8.9 8.15 8.6 8.3 8.35 8.4 8.1 8.25 7.65 8.1 7.2 7.8 6.65 7.5 6.1 7.5 5.9 7.5 5.75 7.2 5.65 6.9 5.55 6.05 5.55 5.15 5.55 4.65 5.75 4.1 6.0 4.05 6.25 3.95 6.55 3.95 7.0 3.95 7.4 4.15 8.05 4.3 8.7 4.5 9.0 4.65 9.3 4.8 9.4 4.95 9.5 5.35 9.6 5.8 9.75 6.4 9.7 7.0 9.65 7.55 9.4 M2.65 6.6 L2.65 6.3 2.7 6.15 2.8 6.0 2.55 6.0 2.35 6.0 1.3 5.75 0.2 5.55 -0.55 5.3 -1.35 5.0 -1.35 5.05 -1.4 5.1 -0.55 5.6 0.35 6.15 1.25 6.5 2.15 6.9 2.4 6.9 2.65 6.9 2.65 6.6 M-0.3 6.65 L-0.3 6.65 -1.1 6.15 -1.9 5.65 -3.4 4.55 -4.85 3.4 -4.95 3.25 -5.05 3.05 -4.9 2.95 -4.8 2.8 -4.6 2.8 -4.4 2.8 -3.65 3.35 -2.85 3.9 -1.95 4.3 -1.0 4.65 0.0 4.95 1.05 5.3 2.0 5.45 2.95 5.6 3.1 5.35 3.3 5.15 4.0 4.85 4.7 4.55 5.4 4.5 6.05 4.4 6.7 4.5 7.35 4.55 7.85 4.75 8.3 4.9 8.65 5.2 8.95 5.5 9.1 5.7 9.2 5.85 9.45 5.7 9.7 5.5 10.15 4.8 10.55 4.1 10.8 3.35 11.0 2.6 10.95 2.25 10.85 1.9 10.6 1.85 10.35 1.8 10.35 1.65 10.35 1.45 10.45 1.4 10.55 1.35 10.95 1.4 11.3 1.5 11.45 1.95 11.6 2.45 11.4 3.2 11.2 3.95 10.9 4.6 10.55 5.25 10.7 5.1 10.9 4.95 11.5 4.15 12.1 3.35 12.55 2.65 12.95 1.95 13.15 1.4 13.3 0.8 13.35 -0.05 13.4 -0.95 13.5 -1.05 13.6 -1.15 13.85 -1.1 14.15 -1.05 14.2 -0.7 14.3 -0.35 14.2 0.25 14.15 0.9 13.95 1.55 13.75 2.25 13.25 3.05 12.75 3.85 12.45 4.3 12.1 4.75 12.1 4.8 12.1 4.85 12.75 4.6 13.4 4.3 14.6 3.65 15.8 3.05 16.9 2.1 18.05 1.2 18.05 1.05 18.05 0.95 17.7 0.25 17.35 -0.4 17.0 -1.6 16.6 -2.85 16.45 -3.5 16.25 -4.2 15.9 -5.95 15.5 -7.75 15.4 -8.1 15.3 -8.45 15.15 -8.95 15.05 -9.45 14.6 -10.7 14.2 -11.9 13.6 -13.3 13.0 -14.7 12.7 -15.3 12.4 -15.9 11.6 -17.25 10.8 -18.6 10.3 -19.2 9.75 -19.85 9.1 -20.5 8.4 -21.15 7.65 -21.8 6.95 -22.4 6.3 -21.9 5.7 -21.4 5.0 -21.05 4.3 -20.7 3.45 -20.45 2.6 -20.25 1.8 -20.15 1.0 -20.05 -0.25 -20.15 -1.45 -20.25 -2.6 -20.45 -3.75 -20.65 -4.7 -20.95 -5.65 -21.2 -6.45 -21.5 -7.3 -21.8 -8.3 -22.3 -9.25 -22.75 -9.95 -23.15 -10.65 -23.55 -10.75 -23.55 -10.9 -23.55 -11.65 -23.05 -12.45 -22.55 -13.4 -21.85 -14.35 -21.1 -15.05 -20.35 -15.8 -19.55 -16.55 -18.3 -17.3 -17.1 -17.7 -16.2 -18.1 -15.3 -18.3 -14.55 -18.5 -13.85 -18.65 -13.25 -18.75 -12.65 -18.75 -11.6 -18.75 -10.6 -18.6 -9.55 -18.45 -8.55 -18.25 -7.95 -18.1 -7.4 -17.8 -6.35 -17.45 -5.3 -17.2 -4.8 -17.0 -4.25 -16.8 -3.6 -16.55 -2.95 -16.3 -1.95 -16.0 -1.0 -15.9 -0.15 -15.75 0.65 -15.85 1.8 -15.9 2.95 -16.05 3.6 -16.2 4.25 -15.95 4.35 -15.75 4.5 -14.75 4.8 -13.75 5.1 -12.75 5.3 -11.8 5.55 -10.8 5.7 -9.8 5.9 -8.5 6.1 -7.15 6.25 -6.55 6.3 -5.95 6.35 -6.55 6.2 -7.15 6.0 -8.3 5.55 -9.4 5.1 -10.45 4.55 -11.45 4.0 -12.45 3.25 -13.45 2.45 -14.0 1.65 -14.6 0.9 -14.6 0.7 -14.6 0.5 -14.35 0.4 -14.1 0.3 -13.85 0.5 -13.65 0.75 -13.25 1.3 -12.9 1.85 -11.95 2.6 -11.0 3.4 -10.15 3.9 -9.25 4.4 -8.15 4.8 -7.05 5.25 -6.0 5.6 -4.95 5.9 -3.75 6.15 -2.6 6.35 -1.5 6.55 -0.45 6.7 -0.4 6.7 -0.3 6.7 -0.3 6.65 -0.3 6.65 M-0.6 -18.05 L-0.9 -18.1 -1.8 -18.25 -2.65 -18.4 -3.95 -18.75 -5.2 -19.05 -6.25 -19.45 -7.3 -19.9 -9.0 -20.75 -10.7 -21.6 -10.9 -21.75 -11.05 -21.85 -11.05 -22.05 -11.0 -22.2 -10.85 -22.3 -10.65 -22.4 -8.8 -21.45 -6.9 -20.5 -5.8 -20.05 -4.65 -19.65 -3.45 -19.3 -2.25 -19.0 -1.1 -18.85 0.05 -18.7 1.1 -18.75 2.15 -18.8 2.95 -19.0 3.7 -19.2 4.45 -19.5 5.25 -19.85 6.15 -20.55 7.05 -21.3 7.2 -21.3 7.35 -21.3 7.45 -21.2 7.6 -21.1 7.6 -20.95 7.6 -20.8 6.9 -20.2 6.25 -19.6 5.6 -19.25 5.0 -18.95 4.25 -18.65 3.5 -18.4 2.8 -18.25 2.15 -18.1 0.95 -18.05 -0.25 -18.05 -0.6 -18.05" fill="#afafaf" fill-rule="evenodd" stroke="none"/>
    <path d="M0.95 16.3 L0.0 16.25 -0.55 16.1 -1.15 15.95 -1.3 15.8 -1.5 15.65 -1.5 15.05 -1.5 14.45 -1.25 13.45 -1.0 12.45 -0.7 11.75 -0.4 11.05 0.0 10.25 0.35 9.5 0.8 8.85 1.25 8.15 1.25 8.1 1.25 8.05 -0.2 8.05 -1.7 8.05 -2.8 7.95 -3.95 7.85 -5.75 7.65 -7.6 7.4 -8.9 7.25 -10.25 7.05 -10.7 7.0 -11.1 6.9 -12.1 6.7 -13.05 6.5 -14.15 6.2 -15.25 5.9 -16.55 5.4 -17.9 4.9 -17.8 4.5 -17.75 4.1 -17.65 3.9 -17.55 3.7 -17.45 2.8 -17.3 1.9 -17.35 0.7 -17.4 -0.45 -17.65 -1.4 -17.9 -2.4 -18.55 -4.15 -19.15 -5.9 -19.35 -6.45 -19.55 -7.05 -19.8 -8.0 -20.05 -9.0 -20.2 -10.25 -20.3 -11.5 -20.25 -12.4 -20.15 -13.35 -19.95 -14.2 -19.75 -15.05 -19.25 -16.25 -18.75 -17.45 -18.15 -18.45 -17.55 -19.45 -17.15 -20.0 -16.75 -20.55 -16.1 -21.2 -15.5 -21.9 -14.45 -22.7 -13.45 -23.45 -12.55 -24.0 -11.65 -24.55 -11.3 -24.65 -10.95 -24.75 -10.6 -24.75 -10.25 -24.75 -9.4 -24.3 -8.6 -23.8 -7.5 -23.3 -6.4 -22.8 -5.45 -22.45 -4.5 -22.1 -3.75 -21.95 -3.0 -21.75 -1.9 -21.55 -0.8 -21.4 0.35 -21.35 1.5 -21.3 2.25 -21.45 3.05 -21.6 3.75 -21.85 4.45 -22.15 5.2 -22.75 5.9 -23.35 6.15 -23.55 6.4 -23.8 6.65 -23.8 6.95 -23.8 7.65 -23.4 8.35 -23.0 9.15 -22.25 9.95 -21.55 10.6 -20.9 11.2 -20.3 11.7 -19.6 12.25 -18.95 13.0 -17.7 13.7 -16.45 14.25 -15.35 14.8 -14.25 15.35 -12.85 15.9 -11.5 16.35 -10.0 16.8 -8.55 17.05 -7.55 17.25 -6.6 17.6 -5.05 17.95 -3.55 18.2 -2.6 18.5 -1.65 18.8 -0.75 19.15 0.1 19.45 0.6 19.8 1.1 19.8 1.2 19.8 1.25 19.2 1.85 18.65 2.4 18.1 2.85 17.55 3.35 16.75 3.85 16.0 4.35 15.1 4.85 14.25 5.3 12.7 5.9 11.2 6.5 10.5 6.7 9.8 6.9 10.4 7.25 11.05 7.55 11.8 8.2 12.5 8.8 13.05 9.35 13.6 9.85 14.0 10.35 14.35 10.85 14.7 11.4 15.05 11.95 15.15 12.4 15.2 12.8 15.05 13.1 14.9 13.4 14.15 14.15 13.45 14.85 13.1 15.2 12.7 15.5 12.3 15.5 11.9 15.5 11.5 15.15 11.05 14.75 10.7 14.4 10.3 14.0 9.8 13.15 9.25 12.3 8.9 11.45 8.6 10.65 8.6 10.5 8.6 10.35 8.5 10.3 8.4 10.25 7.9 10.45 7.45 10.6 6.8 10.7 6.2 10.8 5.4 10.65 4.65 10.55 4.3 10.35 3.95 10.15 3.95 10.35 3.95 10.55 4.3 12.35 4.65 14.2 4.65 14.95 4.65 15.75 4.45 15.9 4.25 16.1 4.0 16.2 3.8 16.3 2.85 16.35 1.95 16.4 0.95 16.3 0.95 16.3 M3.4 15.2 L3.45 15.05 3.15 13.2 2.85 11.4 2.75 10.8 2.65 10.15 2.6 9.8 2.5 9.4 2.8 9.15 3.1 8.95 2.95 8.6 2.85 8.3 2.8 8.3 2.7 8.3 2.4 8.65 2.15 9.0 2.0 9.2 1.8 9.4 1.45 10.15 1.05 10.85 0.65 11.8 0.25 12.7 0.05 13.45 -0.2 14.2 -0.2 14.65 -0.25 15.1 0.45 15.2 1.2 15.3 2.25 15.3 3.3 15.35 3.4 15.2 M13.45 13.25 L13.85 12.85 13.85 12.55 13.85 12.3 13.45 11.65 13.05 11.05 12.4 10.3 11.75 9.6 10.75 8.8 9.8 8.05 9.7 8.1 9.6 8.15 9.55 8.7 9.5 9.25 9.75 10.05 10.0 10.85 10.25 11.5 10.55 12.15 11.0 12.85 11.45 13.5 11.85 13.95 12.25 14.4 12.65 14.05 13.0 13.7 13.45 13.25 M7.0 9.6 L7.55 9.5 7.85 9.35 8.15 9.2 8.15 8.85 8.15 8.5 8.25 8.45 8.35 8.4 8.35 8.05 8.35 7.75 7.95 6.85 7.5 6.0 7.5 5.85 7.5 5.75 7.2 5.65 6.9 5.55 6.05 5.55 5.15 5.55 4.65 5.75 4.2 5.9 4.1 6.15 3.95 6.35 3.95 6.95 3.95 7.5 4.15 8.15 4.35 8.8 4.45 9.0 4.6 9.25 4.85 9.4 5.05 9.55 5.35 9.65 5.7 9.7 6.05 9.7 6.45 9.75 7.0 9.6 7.0 9.6 M2.65 6.7 L2.65 6.55 2.7 6.3 2.8 6.05 1.7 5.85 0.6 5.65 -0.5 5.3 -1.55 4.95 -1.15 5.25 -0.7 5.55 0.1 6.0 0.85 6.4 1.25 6.55 1.6 6.75 1.9 6.8 2.15 6.85 2.4 6.9 2.65 6.9 2.65 6.7 2.65 6.7 M-0.8 6.3 L-1.45 5.9 -2.2 5.4 -2.9 4.9 -3.95 4.05 -5.05 3.25 -5.05 3.1 -5.05 3.0 -4.9 2.9 -4.75 2.8 -4.6 2.8 -4.45 2.8 -3.65 3.35 -2.85 3.95 -2.4 4.1 -2.0 4.3 -0.7 4.75 0.65 5.2 1.8 5.4 2.9 5.65 3.15 5.35 3.45 5.1 3.8 4.95 4.15 4.75 4.7 4.6 5.25 4.5 6.05 4.5 6.9 4.5 7.5 4.6 8.05 4.75 8.55 5.15 9.0 5.55 9.0 5.7 9.0 5.8 9.15 5.8 9.3 5.8 9.55 5.6 9.75 5.4 10.0 5.1 10.2 4.8 10.5 4.15 10.75 3.55 10.9 3.05 11.0 2.5 10.95 2.2 10.9 1.9 10.6 1.8 10.35 1.75 10.35 1.6 10.35 1.45 10.5 1.4 10.6 1.35 10.95 1.45 11.25 1.5 11.4 1.9 11.55 2.3 11.5 2.75 11.45 3.2 11.2 3.8 11.0 4.4 10.75 4.8 10.55 5.2 10.75 5.1 10.9 5.0 11.5 4.2 12.15 3.35 12.55 2.65 12.95 1.95 13.15 1.4 13.3 0.9 13.35 -0.05 13.4 -0.95 13.45 -1.05 13.55 -1.1 13.75 -1.1 13.9 -1.1 14.05 -1.0 14.2 -0.9 14.2 -0.05 14.2 0.8 13.95 1.5 13.75 2.2 13.25 3.0 12.75 3.8 12.4 4.35 12.0 4.85 12.0 4.9 12.0 4.9 13.0 4.5 13.95 4.05 14.8 3.6 15.65 3.15 16.9 2.15 18.1 1.15 17.75 0.35 17.35 -0.45 17.05 -1.45 16.75 -2.4 16.65 -2.7 16.55 -3.05 16.45 -3.6 16.3 -4.2 15.9 -6.0 15.5 -7.85 15.4 -8.2 15.3 -8.55 15.0 -9.5 14.7 -10.5 14.4 -11.45 14.05 -12.35 13.4 -13.8 12.8 -15.2 12.3 -16.05 11.85 -16.9 11.3 -17.8 10.75 -18.65 10.25 -19.3 9.7 -19.95 8.85 -20.75 7.95 -21.6 7.45 -22.0 6.95 -22.4 6.2 -21.85 5.45 -21.25 4.7 -20.95 4.0 -20.6 3.25 -20.4 2.5 -20.2 0.55 -20.2 -1.35 -20.2 -2.7 -20.5 -4.1 -20.75 -5.0 -21.05 -5.95 -21.3 -7.0 -21.75 -8.1 -22.2 -9.0 -22.65 -9.9 -23.1 -10.25 -23.3 -10.6 -23.55 -10.75 -23.55 -10.85 -23.55 -11.6 -23.1 -12.35 -22.7 -13.65 -21.6 -15.0 -20.55 -15.45 -19.95 -15.9 -19.4 -16.5 -18.45 -17.1 -17.45 -17.55 -16.5 -18.0 -15.6 -18.3 -14.6 -18.65 -13.6 -18.75 -12.7 -18.85 -11.75 -18.75 -10.55 -18.65 -9.35 -18.35 -8.25 -18.05 -7.1 -17.65 -5.95 -17.25 -4.8 -16.85 -3.75 -16.45 -2.65 -16.25 -1.8 -16.0 -0.9 -15.95 -0.45 -15.9 0.0 -15.9 1.3 -15.9 2.55 -16.05 3.4 -16.2 4.25 -16.1 4.35 -15.95 4.4 -15.15 4.7 -14.3 4.95 -13.25 5.2 -12.2 5.45 -11.0 5.7 -9.8 5.9 -8.2 6.1 -6.6 6.35 -6.15 6.4 -5.65 6.45 -6.5 6.15 -7.4 5.9 -8.4 5.5 -9.35 5.1 -10.2 4.7 -11.0 4.25 -12.0 3.55 -12.95 2.85 -13.35 2.45 -13.8 2.0 -14.2 1.35 -14.6 0.7 -14.45 0.55 -14.3 0.4 -14.1 0.4 -13.85 0.45 -13.45 1.05 -13.05 1.65 -12.75 2.0 -12.45 2.3 -11.6 2.9 -10.8 3.55 -9.75 4.1 -8.65 4.65 -7.7 5.0 -6.8 5.35 -5.5 5.7 -4.2 6.05 -2.95 6.3 -1.7 6.5 -1.15 6.6 -0.6 6.7 -0.4 6.7 -0.2 6.7 -0.8 6.3 -0.8 6.3 M-0.55 -18.1 L-0.9 -18.1 -2.15 -18.35 -3.45 -18.55 -4.55 -18.9 -5.65 -19.25 -6.65 -19.65 -7.7 -20.05 -9.35 -20.95 -11.0 -21.8 -11.05 -22.0 -11.1 -22.2 -10.85 -22.3 -10.6 -22.4 -9.0 -21.55 -7.35 -20.7 -6.25 -20.25 -5.2 -19.8 -4.05 -19.5 -2.9 -19.15 -2.0 -19.0 -1.15 -18.8 0.2 -18.75 1.5 -18.7 2.45 -18.9 3.35 -19.1 4.3 -19.45 5.25 -19.8 6.15 -20.55 7.1 -21.3 7.2 -21.3 7.35 -21.3 7.5 -21.15 7.65 -21.0 7.45 -20.7 7.2 -20.4 6.5 -19.85 5.75 -19.3 4.9 -18.9 4.05 -18.55 3.3 -18.4 2.6 -18.2 1.9 -18.1 1.2 -18.0 0.5 -18.05 -0.15 -18.05 -0.55 -18.1" fill="#909090" fill-rule="evenodd" stroke="none"/>
    <path d="M0.15 16.2 L-0.45 16.15 -0.9 15.95 -1.4 15.8 -1.45 15.55 -1.55 15.3 -1.45 14.7 -1.4 14.05 -1.25 13.4 -1.05 12.7 -0.7 11.85 -0.4 11.05 0.15 10.0 0.7 8.95 1.0 8.55 1.35 8.1 1.35 8.1 1.35 8.05 -0.05 8.05 -1.45 8.05 -2.65 7.95 -3.85 7.85 -5.25 7.7 -6.6 7.5 -8.45 7.3 -10.25 7.05 -11.55 6.8 -12.9 6.55 -14.05 6.25 -15.2 5.95 -16.55 5.4 -17.85 4.9 -17.8 4.55 -17.75 4.15 -17.65 4.0 -17.55 3.8 -17.45 2.95 -17.3 2.1 -17.35 0.75 -17.4 -0.65 -17.7 -1.7 -18.0 -2.75 -18.6 -4.35 -19.2 -5.95 -19.5 -7.05 -19.85 -8.2 -20.05 -9.15 -20.2 -10.15 -20.2 -11.55 -20.2 -13.0 -20.05 -13.8 -19.85 -14.65 -19.25 -16.1 -18.65 -17.5 -18.1 -18.5 -17.5 -19.45 -17.0 -20.15 -16.45 -20.85 -15.8 -21.55 -15.1 -22.2 -14.15 -22.9 -13.15 -23.6 -12.45 -24.05 -11.8 -24.45 -11.35 -24.6 -10.9 -24.75 -10.6 -24.75 -10.35 -24.75 -8.95 -24.0 -7.55 -23.3 -6.45 -22.8 -5.4 -22.35 -4.2 -22.05 -3.05 -21.75 -2.05 -21.55 -1.0 -21.4 0.2 -21.35 1.45 -21.3 2.15 -21.4 2.8 -21.5 3.5 -21.75 4.15 -22.0 4.8 -22.4 5.45 -22.8 5.85 -23.25 6.2 -23.7 6.5 -23.75 6.8 -23.8 7.05 -23.7 7.3 -23.6 7.95 -23.2 8.55 -22.8 9.5 -21.95 10.4 -21.1 11.1 -20.35 11.75 -19.6 12.25 -18.85 12.75 -18.15 13.4 -16.95 14.05 -15.75 14.5 -14.85 14.9 -13.95 15.5 -12.5 16.05 -11.05 16.4 -9.75 16.8 -8.5 17.05 -7.5 17.25 -6.5 17.6 -5.0 17.95 -3.45 18.2 -2.55 18.45 -1.6 18.8 -0.75 19.15 0.05 19.4 0.5 19.65 0.9 19.65 1.15 19.65 1.4 18.75 2.25 17.8 3.1 17.0 3.7 16.15 4.25 15.2 4.8 14.25 5.3 12.6 5.95 10.95 6.6 10.3 6.75 9.65 6.9 9.9 7.0 10.15 7.05 10.75 7.45 11.4 7.85 12.1 8.45 12.8 9.05 13.5 9.8 14.2 10.6 14.65 11.3 15.1 12.05 15.1 12.6 15.1 13.1 14.7 13.55 14.3 14.05 13.6 14.65 12.95 15.3 12.7 15.4 12.5 15.5 12.2 15.5 11.9 15.5 11.4 15.05 10.85 14.6 10.4 14.0 9.95 13.4 9.6 12.85 9.25 12.25 8.9 11.35 8.55 10.5 8.5 10.35 8.45 10.25 8.3 10.3 8.1 10.35 7.5 10.55 6.9 10.75 5.95 10.7 5.0 10.65 4.5 10.4 3.95 10.2 3.95 10.45 4.0 10.65 4.3 12.5 4.65 14.3 4.65 14.95 4.65 15.6 4.45 15.85 4.25 16.15 3.95 16.2 3.6 16.3 2.15 16.3 0.75 16.3 0.15 16.2 M3.4 14.9 L3.4 14.5 3.2 13.3 3.0 12.1 2.75 10.75 2.55 9.45 2.7 9.3 2.8 9.15 2.95 9.05 3.1 9.0 2.95 8.6 2.8 8.2 2.45 8.6 2.1 9.0 1.8 9.45 1.5 9.95 1.1 10.75 0.7 11.55 0.35 12.4 0.05 13.25 -0.15 14.1 -0.3 15.0 -0.25 15.1 -0.15 15.15 0.45 15.25 1.05 15.3 2.25 15.3 3.45 15.35 3.4 14.9 3.4 14.9 M13.05 13.65 L13.85 12.9 13.85 12.55 13.85 12.25 13.45 11.65 13.05 11.0 12.3 10.2 11.55 9.4 10.7 8.7 9.8 8.05 9.7 8.05 9.6 8.05 9.55 8.65 9.5 9.2 9.8 10.2 10.1 11.2 10.35 11.65 10.55 12.15 10.95 12.8 11.35 13.4 11.8 13.9 12.25 14.35 12.25 14.35 12.3 14.35 13.05 13.65 M7.55 9.45 L8.1 9.25 8.2 8.85 8.25 8.45 8.3 8.1 8.4 7.75 8.1 7.15 7.8 6.55 7.6 6.15 7.4 5.7 7.2 5.6 7.0 5.5 6.05 5.5 5.15 5.5 4.65 5.7 4.2 5.9 4.1 6.1 3.95 6.25 3.95 6.95 3.95 7.6 4.15 8.2 4.3 8.85 4.55 9.15 4.8 9.4 5.2 9.6 5.55 9.75 6.3 9.7 7.05 9.65 7.55 9.45 M2.75 6.45 L2.75 6.05 1.7 5.85 0.65 5.65 -0.45 5.3 -1.55 4.95 -1.6 4.95 -1.65 4.95 -1.0 5.35 -0.35 5.8 0.15 6.05 0.7 6.35 1.35 6.6 2.05 6.9 2.4 6.9 2.75 6.9 2.75 6.45 M-0.2 6.65 L-0.25 6.65 -1.05 6.15 -1.85 5.7 -3.3 4.55 -4.8 3.4 -4.9 3.25 -5.05 3.05 -4.85 2.95 -4.7 2.8 -4.55 2.8 -4.45 2.8 -3.85 3.3 -3.2 3.75 -2.4 4.1 -1.55 4.45 -0.3 4.9 0.95 5.3 1.95 5.45 2.9 5.65 3.15 5.4 3.35 5.2 3.75 5.0 4.15 4.75 4.75 4.65 5.35 4.5 6.05 4.5 6.8 4.5 7.4 4.65 8.0 4.75 8.3 4.95 8.6 5.1 8.85 5.5 9.15 5.9 9.5 5.65 9.8 5.4 10.2 4.8 10.55 4.15 10.8 3.35 11.05 2.55 10.95 2.25 10.9 1.9 10.6 1.8 10.35 1.75 10.35 1.6 10.35 1.5 10.5 1.45 10.65 1.4 10.95 1.45 11.25 1.5 11.4 2.0 11.55 2.5 11.4 3.2 11.2 3.9 10.8 4.65 10.45 5.4 10.55 5.35 10.65 5.25 11.1 4.7 11.55 4.2 12.25 3.1 12.95 2.05 13.15 1.45 13.35 0.9 13.4 -0.1 13.45 -1.05 13.65 -1.1 13.85 -1.15 14.0 -1.05 14.2 -0.9 14.2 -0.05 14.2 0.8 13.95 1.45 13.75 2.15 13.45 2.7 13.1 3.3 12.55 4.1 12.0 4.85 12.0 4.9 12.0 4.95 12.85 4.55 13.7 4.2 14.55 3.75 15.45 3.25 16.15 2.75 16.85 2.25 17.5 1.65 18.15 1.05 18.1 1.0 18.05 0.9 17.7 0.2 17.4 -0.45 17.05 -1.5 16.75 -2.5 16.45 -3.6 16.15 -4.7 15.9 -6.1 15.6 -7.5 15.3 -8.5 15.05 -9.5 14.6 -10.75 14.2 -12.0 13.65 -13.35 13.05 -14.7 12.3 -16.1 11.55 -17.5 11.0 -18.3 10.45 -19.15 9.7 -19.9 9.0 -20.7 8.0 -21.55 6.95 -22.4 6.4 -21.95 5.8 -21.5 5.3 -21.25 4.8 -20.95 4.35 -20.8 3.9 -20.6 3.15 -20.4 2.4 -20.2 0.65 -20.2 -1.15 -20.2 -2.25 -20.4 -3.35 -20.6 -4.35 -20.85 -5.4 -21.15 -6.85 -21.7 -8.25 -22.25 -9.45 -22.9 -10.65 -23.55 -10.9 -23.5 -11.1 -23.45 -12.05 -22.85 -13.0 -22.2 -13.9 -21.5 -14.8 -20.75 -15.45 -19.95 -16.15 -19.15 -16.7 -18.15 -17.3 -17.15 -17.8 -16.0 -18.3 -14.85 -18.5 -13.95 -18.75 -13.1 -18.8 -12.35 -18.85 -11.65 -18.75 -10.45 -18.65 -9.25 -18.35 -8.25 -18.1 -7.2 -17.85 -6.4 -17.55 -5.6 -17.1 -4.4 -16.65 -3.2 -16.4 -2.2 -16.1 -1.25 -16.0 -0.6 -15.9 0.1 -15.9 1.3 -15.9 2.5 -16.05 3.35 -16.25 4.25 -16.05 4.35 -15.85 4.45 -15.15 4.7 -14.4 4.95 -13.35 5.2 -12.35 5.45 -11.15 5.7 -10.0 5.9 -8.4 6.1 -6.75 6.35 -6.2 6.4 -5.65 6.45 -6.6 6.15 -7.55 5.8 -8.5 5.45 -9.5 5.05 -10.3 4.6 -11.1 4.15 -12.1 3.45 -13.1 2.75 -13.55 2.15 -14.05 1.6 -14.35 1.15 -14.6 0.65 -14.45 0.55 -14.3 0.4 -14.1 0.4 -13.9 0.45 -13.55 0.95 -13.25 1.4 -12.85 1.9 -12.45 2.35 -11.35 3.15 -10.2 3.9 -9.35 4.35 -8.45 4.75 -7.25 5.2 -6.05 5.6 -4.85 5.9 -3.65 6.2 -2.15 6.45 -0.7 6.7 -0.45 6.7 -0.15 6.7 -0.2 6.65 -0.2 6.65 M-1.0 -18.15 L-2.0 -18.3 -2.8 -18.45 -3.65 -18.65 -4.7 -18.95 -5.75 -19.3 -6.6 -19.65 -7.5 -20.0 -9.15 -20.85 -10.8 -21.65 -10.95 -21.8 -11.05 -21.95 -11.05 -22.05 -11.05 -22.1 -10.9 -22.25 -10.7 -22.35 -10.4 -22.25 -10.15 -22.1 -8.65 -21.35 -7.2 -20.6 -6.1 -20.15 -4.95 -19.7 -3.85 -19.4 -2.7 -19.1 -1.5 -18.9 -0.25 -18.7 1.0 -18.75 2.25 -18.8 2.85 -18.95 3.45 -19.1 4.3 -19.4 5.15 -19.75 6.15 -20.55 7.15 -21.35 7.3 -21.25 7.5 -21.2 7.55 -21.1 7.6 -20.95 7.3 -20.6 7.0 -20.2 6.5 -19.85 6.0 -19.5 5.35 -19.15 4.7 -18.8 3.85 -18.55 2.95 -18.25 2.0 -18.15 1.05 -18.0 0.5 -18.0 -0.05 -18.05 -1.0 -18.15" fill="#6f6f6f" fill-rule="evenodd" stroke="none"/>
    <path d="M0.05 16.2 L-0.7 16.05 -1.05 15.9 -1.4 15.8 -1.45 15.55 -1.55 15.3 -1.45 14.7 -1.4 14.05 -1.2 13.3 -1.0 12.55 -0.65 11.7 -0.3 10.9 0.15 10.0 0.6 9.15 1.0 8.65 1.35 8.1 1.35 8.1 1.35 8.05 0.0 8.05 -1.35 8.05 -2.55 7.95 -3.75 7.85 -5.2 7.7 -6.6 7.5 -8.65 7.25 -10.65 6.95 -12.3 6.65 -13.95 6.3 -14.85 6.0 -15.75 5.7 -16.75 5.3 -17.8 4.9 -17.85 4.9 -17.85 4.9 -17.65 4.1 -17.4 3.3 -17.35 1.7 -17.3 0.05 -17.5 -0.8 -17.65 -1.7 -17.85 -2.35 -18.1 -3.05 -18.65 -4.55 -19.2 -6.05 -19.5 -7.1 -19.85 -8.2 -20.0 -9.2 -20.2 -10.25 -20.2 -11.55 -20.2 -12.9 -20.05 -13.7 -19.85 -14.5 -19.55 -15.3 -19.3 -16.1 -18.9 -16.95 -18.5 -17.8 -17.85 -18.85 -17.2 -19.95 -16.5 -20.7 -15.85 -21.5 -14.9 -22.3 -13.95 -23.05 -13.05 -23.65 -12.1 -24.25 -11.7 -24.45 -11.25 -24.65 -10.85 -24.7 -10.45 -24.8 -10.1 -24.6 -9.75 -24.45 -8.75 -23.9 -7.75 -23.35 -6.65 -22.9 -5.6 -22.45 -4.6 -22.15 -3.65 -21.85 -2.35 -21.6 -1.0 -21.35 0.3 -21.35 1.6 -21.3 2.25 -21.4 2.85 -21.5 3.55 -21.75 4.25 -22.05 4.8 -22.4 5.4 -22.75 5.8 -23.2 6.15 -23.6 6.45 -23.7 6.7 -23.8 7.1 -23.65 7.55 -23.5 8.4 -22.8 9.25 -22.15 10.1 -21.35 10.9 -20.6 11.45 -19.95 12.0 -19.25 12.55 -18.4 13.05 -17.5 13.4 -16.9 13.75 -16.3 14.3 -15.2 14.8 -14.15 15.3 -12.9 15.8 -11.65 16.25 -10.25 16.7 -8.8 17.05 -7.45 17.35 -6.05 17.65 -4.7 17.95 -3.4 18.2 -2.45 18.5 -1.55 18.75 -0.8 19.05 -0.1 19.35 0.45 19.65 1.0 19.65 1.2 19.65 1.35 18.75 2.25 17.8 3.1 17.0 3.65 16.2 4.2 15.5 4.6 14.8 5.0 13.85 5.4 12.9 5.85 11.6 6.3 10.3 6.75 9.95 6.85 9.65 6.9 10.25 7.15 10.85 7.45 11.75 8.2 12.7 9.0 13.45 9.8 14.2 10.6 14.6 11.3 15.05 12.05 15.15 12.4 15.2 12.8 14.95 13.2 14.65 13.6 13.8 14.45 12.9 15.3 12.6 15.45 12.3 15.55 12.05 15.5 11.8 15.4 11.3 14.95 10.8 14.5 10.45 14.05 10.1 13.65 9.7 12.9 9.25 12.2 8.9 11.3 8.55 10.4 8.5 10.3 8.5 10.15 8.25 10.3 8.0 10.45 7.35 10.6 6.7 10.75 5.9 10.7 5.1 10.65 4.55 10.4 3.95 10.2 4.0 10.45 4.0 10.75 4.3 12.6 4.65 14.4 4.65 15.05 4.65 15.7 4.3 16.0 4.0 16.25 2.4 16.3 0.85 16.3 0.05 16.2 0.05 16.2 M3.45 14.85 L3.45 14.4 3.15 12.95 2.9 11.45 2.75 10.6 2.65 9.8 2.6 9.65 2.55 9.5 2.8 9.2 3.1 8.95 3.0 8.55 2.85 8.2 2.6 8.4 2.3 8.6 1.65 9.7 1.0 10.75 0.55 11.95 0.05 13.15 -0.15 14.05 -0.35 15.0 -0.25 15.1 -0.15 15.15 0.35 15.25 0.85 15.3 2.15 15.3 3.45 15.35 3.45 14.85 M13.65 13.05 L13.95 12.7 13.9 12.45 13.85 12.2 13.45 11.6 13.1 11.0 12.4 10.25 11.65 9.5 11.1 9.0 10.5 8.5 10.15 8.3 9.8 8.05 9.7 8.05 9.6 8.05 9.55 8.65 9.45 9.2 9.7 9.95 9.9 10.65 10.25 11.45 10.6 12.25 10.85 12.7 11.15 13.15 11.45 13.55 11.8 13.95 12.05 14.15 12.25 14.35 12.8 13.9 13.35 13.4 13.65 13.05 M7.55 9.45 L8.1 9.25 8.2 8.85 8.25 8.45 8.35 8.1 8.4 7.7 7.95 6.8 7.5 5.9 7.5 5.8 7.5 5.65 6.85 5.55 6.25 5.45 5.65 5.5 5.1 5.55 4.6 5.75 4.15 5.95 4.05 6.05 4.0 6.15 4.0 6.9 3.95 7.7 4.1 8.15 4.2 8.6 4.45 9.0 4.7 9.45 5.0 9.55 5.25 9.65 5.4 9.7 5.55 9.75 6.3 9.7 7.0 9.7 7.55 9.45 7.55 9.45 M2.75 6.45 L2.75 6.0 1.7 5.8 0.65 5.6 -0.4 5.3 -1.45 4.95 -1.6 4.95 -1.7 4.95 -1.35 5.15 -1.0 5.4 -0.25 5.85 0.5 6.3 1.3 6.6 2.05 6.9 2.4 6.9 2.75 6.9 2.75 6.45 2.75 6.45 M-0.2 6.65 L-0.25 6.65 -1.1 6.1 -1.95 5.55 -3.45 4.45 -4.9 3.3 -4.9 3.15 -4.9 3.0 -4.8 2.9 -4.65 2.8 -4.55 2.8 -4.45 2.8 -3.8 3.3 -3.1 3.8 -2.25 4.2 -1.35 4.55 -0.35 4.9 0.65 5.2 1.75 5.4 2.9 5.65 3.25 5.35 3.6 5.05 4.05 4.85 4.45 4.7 5.05 4.55 5.65 4.45 6.45 4.5 7.25 4.55 7.75 4.75 8.2 4.9 8.5 5.15 8.8 5.4 8.95 5.65 9.15 5.9 9.3 5.85 9.45 5.8 9.7 5.5 10.0 5.15 10.3 4.65 10.55 4.15 10.8 3.45 11.0 2.75 11.0 2.5 11.0 2.2 10.95 2.05 10.85 1.9 10.6 1.8 10.3 1.75 10.35 1.6 10.4 1.5 10.85 1.5 11.25 1.5 11.4 2.0 11.55 2.5 11.45 3.0 11.3 3.5 11.05 4.1 10.8 4.7 10.6 5.0 10.45 5.3 10.5 5.35 10.55 5.4 11.05 4.8 11.5 4.25 12.05 3.5 12.55 2.75 12.75 2.4 12.95 2.0 13.15 1.45 13.35 0.9 13.4 -0.05 13.45 -0.95 13.65 -1.05 13.85 -1.15 14.0 -1.05 14.2 -0.9 14.2 -0.1 14.2 0.7 13.95 1.4 13.75 2.15 13.2 3.05 12.65 3.95 12.25 4.45 11.9 4.95 11.95 4.95 12.0 4.95 12.75 4.6 13.5 4.3 14.65 3.7 15.85 3.05 16.8 2.25 17.8 1.5 17.95 1.3 18.15 1.05 17.75 0.2 17.35 -0.6 17.05 -1.6 16.7 -2.6 16.45 -3.7 16.15 -4.8 15.85 -6.4 15.5 -8.0 15.0 -9.65 14.5 -11.25 13.9 -12.75 13.3 -14.25 12.7 -15.45 12.05 -16.65 11.35 -17.75 10.65 -18.9 10.0 -19.65 9.3 -20.35 8.7 -20.95 8.1 -21.5 7.55 -21.95 7.0 -22.35 6.9 -22.35 6.85 -22.35 6.25 -21.9 5.65 -21.45 4.9 -21.05 4.1 -20.65 3.25 -20.45 2.4 -20.2 0.75 -20.2 -0.9 -20.2 -2.1 -20.4 -3.35 -20.6 -4.4 -20.9 -5.5 -21.2 -6.4 -21.55 -7.3 -21.85 -8.05 -22.2 -8.8 -22.6 -9.75 -23.1 -10.7 -23.6 -11.35 -23.25 -12.0 -22.95 -13.1 -22.1 -14.2 -21.3 -15.05 -20.45 -15.85 -19.55 -16.65 -18.25 -17.45 -17.0 -17.9 -15.9 -18.35 -14.75 -18.55 -13.95 -18.8 -13.1 -18.8 -11.65 -18.8 -10.25 -18.65 -9.45 -18.5 -8.65 -18.15 -7.4 -17.8 -6.15 -17.15 -4.5 -16.55 -2.9 -16.25 -1.8 -16.0 -0.7 -15.95 0.8 -15.85 2.3 -16.05 3.25 -16.2 4.15 -16.2 4.25 -16.2 4.3 -15.5 4.55 -14.8 4.85 -13.8 5.1 -12.75 5.4 -11.45 5.65 -10.15 5.9 -8.4 6.15 -6.6 6.35 -6.0 6.45 -5.4 6.5 -5.4 6.5 -5.35 6.45 -6.35 6.2 -7.35 5.9 -8.35 5.5 -9.35 5.1 -10.05 4.7 -10.8 4.35 -11.8 3.65 -12.85 2.95 -13.25 2.5 -13.7 2.05 -14.1 1.5 -14.45 1.0 -14.45 0.75 -14.45 0.5 -14.35 0.45 -14.25 0.4 -14.05 0.45 -13.85 0.5 -13.35 1.2 -12.9 1.95 -12.05 2.6 -11.25 3.25 -10.4 3.8 -9.55 4.3 -8.45 4.75 -7.35 5.2 -6.4 5.5 -5.4 5.8 -4.3 6.05 -3.2 6.3 -2.0 6.5 -0.8 6.7 -0.5 6.7 -0.15 6.7 -0.2 6.65 -0.2 6.65 M-0.35 -18.1 L-1.25 -18.15 -2.3 -18.35 -3.35 -18.55 -4.35 -18.9 -5.4 -19.2 -6.5 -19.6 -7.6 -20.05 -9.25 -20.9 -10.9 -21.75 -11.0 -21.9 -11.1 -22.0 -10.95 -22.15 -10.8 -22.3 -10.65 -22.3 -10.45 -22.3 -8.9 -21.45 -7.4 -20.65 -6.05 -20.15 -4.75 -19.65 -3.55 -19.3 -2.35 -19.0 -1.4 -18.85 -0.5 -18.75 0.6 -18.75 1.75 -18.75 2.6 -18.9 3.5 -19.1 4.4 -19.45 5.3 -19.8 6.25 -20.55 7.15 -21.3 7.2 -21.3 7.25 -21.3 7.4 -21.15 7.6 -21.0 7.6 -20.95 7.6 -20.9 7.2 -20.45 6.75 -20.05 6.1 -19.6 5.5 -19.2 4.8 -18.9 4.1 -18.65 3.3 -18.4 2.55 -18.2 1.85 -18.15 1.2 -18.1 0.85 -18.05 0.5 -18.05 -0.35 -18.1 -0.35 -18.1" fill="#4e4e4e" fill-rule="evenodd" stroke="none"/>
    <path d="M0.4 16.2 L-0.3 16.15 -0.7 16.0 -1.1 15.9 -1.35 15.65 -1.55 15.45 -1.45 14.55 -1.3 13.7 -1.05 12.85 -0.75 12.0 -0.35 11.05 0.1 10.15 0.7 9.1 1.35 8.1 1.3 8.1 1.3 8.05 -0.75 8.0 -2.8 7.95 -4.25 7.75 -5.75 7.6 -6.5 7.5 -7.3 7.4 -8.6 7.25 -9.9 7.05 -10.95 6.9 -12.0 6.7 -13.3 6.4 -14.65 6.05 -15.7 5.7 -16.7 5.35 -17.05 5.2 -17.4 5.05 -17.6 4.95 -17.85 4.85 -17.65 4.1 -17.45 3.35 -17.3 2.35 -17.2 1.35 -17.25 0.55 -17.35 -0.25 -17.5 -1.0 -17.65 -1.7 -17.85 -2.25 -18.0 -2.85 -18.6 -4.45 -19.2 -6.05 -19.5 -7.2 -19.85 -8.35 -20.0 -9.25 -20.15 -10.15 -20.15 -11.55 -20.2 -12.9 -20.0 -13.65 -19.85 -14.4 -19.5 -15.35 -19.2 -16.3 -18.75 -17.2 -18.35 -18.1 -17.8 -18.9 -17.3 -19.75 -16.7 -20.5 -16.1 -21.25 -15.1 -22.05 -14.1 -22.9 -13.25 -23.45 -12.45 -24.05 -11.9 -24.35 -11.35 -24.65 -10.75 -24.65 -10.2 -24.7 -9.45 -24.25 -8.7 -23.85 -7.9 -23.4 -7.05 -23.0 -6.1 -22.65 -5.2 -22.3 -4.35 -22.05 -3.55 -21.8 -2.4 -21.6 -1.25 -21.35 0.25 -21.35 1.75 -21.3 2.35 -21.4 2.95 -21.5 3.6 -21.75 4.25 -22.0 4.85 -22.4 5.5 -22.8 5.9 -23.25 6.3 -23.7 6.65 -23.7 7.0 -23.7 7.3 -23.55 7.65 -23.4 8.25 -22.95 8.85 -22.5 9.8 -21.6 10.75 -20.7 11.25 -20.15 11.75 -19.55 12.35 -18.65 12.95 -17.7 13.65 -16.45 14.3 -15.2 15.1 -13.25 15.95 -11.3 16.3 -10.0 16.7 -8.7 16.95 -7.55 17.25 -6.4 17.6 -4.85 17.95 -3.3 18.2 -2.45 18.45 -1.6 18.75 -0.85 19.0 -0.1 19.35 0.5 19.7 1.1 19.65 1.35 19.55 1.55 18.0 2.8 16.45 4.1 15.4 4.65 14.35 5.2 12.75 5.85 11.1 6.5 10.35 6.7 9.65 6.9 9.55 6.95 9.45 7.05 9.75 7.05 10.0 7.05 10.5 7.3 10.95 7.55 11.8 8.25 12.6 8.9 13.35 9.7 14.05 10.5 14.6 11.3 15.1 12.1 15.1 12.55 15.1 13.0 14.85 13.3 14.65 13.65 13.7 14.5 12.75 15.4 12.4 15.45 12.1 15.55 11.85 15.4 11.55 15.25 10.9 14.55 10.25 13.8 9.75 13.0 9.25 12.2 8.9 11.3 8.55 10.4 8.5 10.3 8.5 10.2 7.85 10.4 7.2 10.65 6.15 10.65 5.15 10.65 4.55 10.4 4.0 10.2 3.95 10.2 3.9 10.2 3.95 10.45 4.0 10.75 4.3 12.65 4.65 14.5 4.65 15.05 4.65 15.55 4.4 15.85 4.2 16.1 3.8 16.2 3.35 16.3 2.2 16.3 1.05 16.3 0.4 16.2 0.4 16.2 M3.4 14.8 L3.4 14.3 3.1 12.5 2.75 10.65 2.7 10.0 2.65 9.3 2.85 9.2 3.1 9.05 3.1 8.9 3.1 8.8 3.0 8.5 2.85 8.2 2.8 8.2 2.7 8.2 2.25 8.8 1.8 9.35 1.3 10.25 0.8 11.2 0.45 12.05 0.15 12.9 0.0 13.45 -0.2 14.05 -0.25 14.6 -0.35 15.15 0.1 15.2 0.5 15.25 0.65 15.3 0.75 15.3 2.1 15.35 3.45 15.35 3.4 14.8 3.4 14.8 M12.55 14.15 L12.75 13.95 13.25 13.5 13.75 13.05 13.85 12.8 14.0 12.55 13.75 12.05 13.5 11.55 12.9 10.85 12.35 10.1 11.45 9.35 10.6 8.55 10.1 8.25 9.6 7.95 9.55 8.55 9.45 9.2 9.65 9.85 9.8 10.45 10.15 11.3 10.45 12.1 10.95 12.8 11.4 13.55 11.8 13.95 12.15 14.35 12.3 14.35 12.4 14.35 12.55 14.15 M7.3 9.6 L7.8 9.45 7.95 9.3 8.1 9.15 8.2 8.85 8.25 8.55 8.35 8.1 8.4 7.7 8.0 6.9 7.6 6.1 7.6 5.9 7.6 5.75 7.35 5.65 7.15 5.55 6.3 5.5 5.45 5.45 4.8 5.65 4.2 5.85 4.05 6.05 3.95 6.2 3.95 6.95 3.95 7.65 4.15 8.25 4.3 8.85 4.55 9.2 4.8 9.5 5.1 9.6 5.45 9.7 6.1 9.75 6.8 9.75 7.3 9.6 7.3 9.6 M2.75 6.6 L2.75 6.2 2.85 6.05 2.9 5.9 2.8 5.95 2.7 6.0 1.9 5.85 1.1 5.7 0.25 5.45 -0.6 5.2 -1.2 5.05 -1.75 4.85 -1.6 4.95 -1.5 5.1 -0.6 5.65 0.25 6.15 0.95 6.5 1.65 6.8 2.15 6.9 2.6 6.95 2.7 6.95 2.75 6.95 2.75 6.6 M-0.95 6.2 L-1.8 5.65 -3.35 4.5 -4.95 3.3 -4.9 3.1 -4.85 2.95 -4.6 2.9 -4.4 2.85 -3.65 3.4 -2.95 3.95 -2.05 4.3 -1.15 4.65 -0.1 4.95 0.9 5.3 1.85 5.45 2.8 5.65 2.85 5.7 2.9 5.75 3.1 5.5 3.3 5.2 3.8 5.0 4.3 4.75 5.0 4.6 5.7 4.45 6.35 4.5 7.05 4.55 7.5 4.7 8.0 4.8 8.5 5.2 9.0 5.65 9.0 5.75 9.0 5.9 9.05 5.9 9.1 5.9 9.3 5.85 9.45 5.8 9.8 5.4 10.1 5.05 10.35 4.55 10.6 4.1 10.8 3.45 11.0 2.85 11.0 2.55 11.0 2.2 10.95 2.05 10.9 1.85 10.65 1.75 10.4 1.7 10.45 1.6 10.45 1.5 10.85 1.5 11.25 1.5 11.35 1.75 11.4 1.95 11.45 2.5 11.45 3.0 11.2 3.65 11.0 4.3 10.65 4.9 10.35 5.5 10.55 5.35 10.7 5.25 11.35 4.45 12.0 3.65 12.55 2.75 13.05 1.85 13.25 1.25 13.4 0.65 13.4 -0.1 13.4 -0.9 13.55 -1.0 13.7 -1.1 13.75 -1.1 13.85 -1.1 14.0 -1.0 14.2 -0.85 14.2 -0.1 14.2 0.6 13.95 1.35 13.75 2.1 13.3 2.85 12.9 3.55 12.4 4.25 11.9 4.95 12.0 4.95 12.1 4.95 13.1 4.45 14.15 4.0 14.75 3.7 15.35 3.35 16.1 2.85 16.85 2.3 17.5 1.7 18.2 1.1 18.05 0.8 17.9 0.55 17.65 -0.05 17.35 -0.6 17.05 -1.65 16.7 -2.65 16.45 -3.8 16.15 -4.9 15.85 -6.5 15.5 -8.1 15.05 -9.55 14.6 -11.05 13.9 -12.7 13.25 -14.4 12.65 -15.5 12.1 -16.65 11.45 -17.7 10.8 -18.75 10.45 -19.15 10.1 -19.55 9.25 -20.4 8.45 -21.25 7.65 -21.85 6.9 -22.5 6.3 -22.0 5.7 -21.5 5.35 -21.3 5.0 -21.1 4.3 -20.8 3.55 -20.5 2.85 -20.35 2.15 -20.2 0.65 -20.2 -0.9 -20.2 -2.05 -20.4 -3.2 -20.6 -4.5 -20.95 -5.8 -21.3 -7.1 -21.85 -8.4 -22.35 -9.55 -23.0 -10.75 -23.65 -11.15 -23.4 -11.6 -23.2 -12.55 -22.5 -13.55 -21.85 -14.2 -21.3 -14.9 -20.7 -15.5 -19.95 -16.1 -19.2 -16.65 -18.3 -17.25 -17.4 -17.6 -16.55 -18.0 -15.75 -18.3 -14.8 -18.65 -13.8 -18.75 -13.1 -18.85 -12.4 -18.85 -11.5 -18.85 -10.65 -18.7 -9.6 -18.5 -8.55 -18.2 -7.45 -17.85 -6.3 -17.25 -4.7 -16.65 -3.1 -16.45 -2.35 -16.25 -1.6 -16.05 -0.65 -15.9 0.3 -15.9 1.25 -15.9 2.2 -16.0 2.8 -16.1 3.35 -16.15 3.85 -16.25 4.3 -15.45 4.6 -14.6 4.9 -13.7 5.15 -12.75 5.4 -11.5 5.65 -10.25 5.9 -8.15 6.15 -6.05 6.45 -5.65 6.5 -5.2 6.55 -6.35 6.2 -7.5 5.8 -8.3 5.5 -9.1 5.2 -10.0 4.7 -10.9 4.25 -11.8 3.65 -12.7 3.0 -13.1 2.65 -13.5 2.25 -14.0 1.55 -14.45 0.9 -14.45 0.7 -14.45 0.5 -14.3 0.45 -14.1 0.4 -13.95 0.5 -13.8 0.6 -13.4 1.2 -12.95 1.85 -12.5 2.3 -12.05 2.7 -11.2 3.25 -10.35 3.85 -9.55 4.25 -8.75 4.7 -7.8 5.05 -6.9 5.4 -5.65 5.7 -4.4 6.05 -3.15 6.3 -1.9 6.55 -1.4 6.6 -0.9 6.7 -0.5 6.7 -0.05 6.7 -0.95 6.2 -0.95 6.2 M-1.75 -18.25 L-2.65 -18.45 -3.4 -18.6 -4.1 -18.8 -4.85 -19.05 -5.6 -19.25 -6.6 -19.65 -7.55 -20.05 -8.7 -20.65 -9.9 -21.25 -10.4 -21.55 -10.9 -21.8 -10.9 -22.0 -10.9 -22.25 -10.7 -22.25 -10.5 -22.3 -9.75 -21.9 -9.05 -21.5 -8.1 -21.05 -7.15 -20.55 -5.95 -20.1 -4.75 -19.6 -3.6 -19.3 -2.4 -19.0 -1.45 -18.85 -0.45 -18.7 0.65 -18.7 1.7 -18.7 2.5 -18.85 3.25 -19.0 4.3 -19.4 5.35 -19.8 6.2 -20.5 7.05 -21.2 7.25 -21.2 7.45 -21.15 7.45 -20.95 7.5 -20.75 6.6 -20.0 5.7 -19.3 4.9 -18.95 4.15 -18.65 3.25 -18.4 2.4 -18.15 0.8 -18.15 -0.8 -18.1 -1.75 -18.25 -1.75 -18.25" fill="#2e2e2e" fill-rule="evenodd" stroke="none"/>
    <path d="M0.8 16.2 L-0.1 16.15 -0.65 16.0 -1.2 15.85 -1.3 15.7 -1.4 15.5 -1.4 14.95 -1.4 14.4 -1.25 13.65 -1.05 12.95 -0.7 11.95 -0.3 10.95 0.3 9.85 0.85 8.8 1.15 8.45 1.45 8.1 1.4 8.05 1.35 8.05 -0.9 7.95 -3.2 7.9 -5.45 7.6 -7.7 7.35 -9.3 7.1 -10.9 6.9 -12.35 6.6 -13.8 6.25 -14.65 6.0 -15.5 5.75 -16.65 5.35 -17.8 4.9 -17.75 4.6 -17.7 4.35 -17.5 3.55 -17.25 2.75 -17.3 1.2 -17.3 -0.35 -17.55 -1.45 -17.85 -2.6 -18.4 -4.1 -19.0 -5.6 -19.35 -6.8 -19.7 -7.95 -19.9 -8.9 -20.1 -9.9 -20.1 -11.55 -20.1 -13.25 -19.85 -14.2 -19.6 -15.1 -19.2 -16.2 -18.75 -17.25 -17.8 -18.75 -16.9 -20.3 -16.05 -21.15 -15.2 -22.05 -13.95 -22.95 -12.7 -23.85 -12.0 -24.25 -11.3 -24.6 -10.8 -24.65 -10.3 -24.7 -9.0 -24.0 -7.65 -23.25 -6.45 -22.75 -5.2 -22.25 -4.1 -21.95 -3.0 -21.65 -1.85 -21.5 -0.7 -21.3 0.7 -21.25 2.05 -21.25 2.65 -21.45 3.25 -21.6 3.8 -21.8 4.35 -22.05 4.9 -22.4 5.5 -22.75 5.75 -23.1 6.0 -23.4 6.2 -23.55 6.4 -23.7 6.7 -23.7 7.05 -23.7 7.85 -23.2 8.65 -22.65 9.55 -21.85 10.4 -21.0 11.1 -20.25 11.75 -19.55 12.5 -18.3 13.3 -17.1 13.8 -16.15 14.3 -15.15 14.95 -13.6 15.6 -12.05 16.0 -10.9 16.35 -9.8 16.65 -8.75 16.9 -7.75 17.35 -5.7 17.8 -3.65 18.1 -2.65 18.4 -1.6 18.8 -0.6 19.25 0.4 19.45 0.75 19.65 1.05 19.65 1.15 19.65 1.3 18.85 2.05 18.05 2.85 17.15 3.5 16.25 4.15 15.15 4.75 14.05 5.3 12.8 5.8 11.5 6.35 10.8 6.55 10.15 6.8 9.8 6.85 9.45 6.9 9.45 7.0 9.45 7.05 9.75 7.05 10.0 7.05 10.6 7.4 11.15 7.75 11.9 8.35 12.65 9.0 13.4 9.8 14.2 10.65 14.6 11.3 15.0 12.0 15.05 12.45 15.1 12.9 14.85 13.25 14.65 13.6 13.8 14.4 12.95 15.2 12.8 15.3 12.6 15.4 12.25 15.4 11.9 15.4 11.35 14.95 10.8 14.45 10.35 13.8 9.9 13.2 9.45 12.4 9.0 11.6 8.8 10.9 8.55 10.2 8.5 10.2 8.5 10.15 8.0 10.35 7.5 10.5 6.8 10.6 6.1 10.7 5.45 10.65 4.8 10.55 4.4 10.3 3.95 10.05 3.9 10.1 3.85 10.15 4.2 12.2 4.55 14.2 4.55 14.9 4.6 15.55 4.4 15.8 4.25 16.05 4.0 16.15 3.75 16.2 2.75 16.25 1.7 16.3 0.8 16.2 M3.45 15.25 L3.55 15.15 3.4 14.05 3.2 13.0 2.95 11.3 2.65 9.6 2.7 9.4 2.8 9.2 3.0 9.15 3.2 9.1 3.15 8.95 3.1 8.85 3.05 8.55 2.95 8.2 2.85 8.15 2.8 8.15 2.45 8.5 2.1 8.85 1.55 9.75 1.0 10.65 0.55 11.85 0.05 13.05 -0.15 13.75 -0.3 14.45 -0.3 14.8 -0.3 15.15 -0.05 15.2 0.15 15.25 0.95 15.35 1.7 15.4 2.55 15.4 3.35 15.35 3.45 15.25 M13.55 13.25 L13.95 12.85 13.95 12.6 13.95 12.3 13.5 11.65 13.1 10.95 12.5 10.3 11.95 9.7 10.9 8.8 9.8 7.95 9.7 7.95 9.6 7.95 9.55 8.25 9.45 8.5 9.45 9.0 9.45 9.5 9.75 10.3 10.0 11.1 10.35 11.8 10.7 12.55 11.0 13.0 11.35 13.5 11.8 14.0 12.25 14.5 12.7 14.1 13.1 13.7 13.55 13.25 13.55 13.25 M7.55 9.5 L8.15 9.3 8.2 9.1 8.25 8.9 8.3 8.6 8.4 8.35 8.4 8.0 8.4 7.65 8.0 6.85 7.6 6.05 7.6 5.9 7.6 5.7 7.2 5.6 6.85 5.45 6.1 5.45 5.35 5.45 4.95 5.55 4.55 5.65 4.25 5.85 3.95 6.05 3.9 6.65 3.85 7.2 3.95 7.85 4.1 8.45 4.3 8.85 4.55 9.25 4.75 9.4 4.95 9.55 5.35 9.7 5.8 9.8 6.4 9.75 7.0 9.7 7.55 9.5 7.55 9.5 M2.75 6.7 L2.75 6.45 2.85 6.2 2.9 5.9 2.6 5.9 2.3 5.9 1.55 5.75 0.75 5.6 -0.55 5.2 -1.85 4.8 -1.6 5.0 -1.35 5.2 -0.5 5.75 0.4 6.3 1.05 6.55 1.7 6.85 2.1 6.9 2.5 6.95 2.65 6.95 2.75 6.95 2.75 6.7 M0.0 6.75 L0.0 6.75 -0.95 6.15 -1.9 5.55 -3.4 4.4 -4.95 3.2 -4.85 3.05 -4.8 2.9 -4.6 2.9 -4.45 2.9 -3.8 3.35 -3.1 3.85 -2.3 4.2 -1.45 4.55 -0.2 4.95 1.05 5.35 1.8 5.45 2.5 5.6 2.7 5.65 2.9 5.75 3.25 5.4 3.65 5.05 4.2 4.85 4.8 4.6 6.05 4.6 7.3 4.6 7.85 4.85 8.4 5.05 8.75 5.5 9.1 5.9 9.2 5.9 9.35 5.9 9.6 5.65 9.9 5.35 10.2 4.9 10.45 4.5 10.7 3.7 11.0 2.95 11.0 2.5 11.0 2.05 10.9 1.95 10.85 1.85 10.65 1.8 10.45 1.75 10.45 1.6 10.45 1.45 10.75 1.45 11.1 1.45 11.2 1.6 11.35 1.75 11.4 2.35 11.45 2.95 11.15 3.7 10.9 4.5 10.6 4.95 10.35 5.35 10.35 5.45 10.35 5.5 10.6 5.3 10.9 5.05 11.4 4.45 11.9 3.85 12.4 3.0 12.95 2.15 13.2 1.45 13.4 0.8 13.4 0.05 13.4 -0.75 13.5 -0.9 13.55 -1.05 13.75 -1.05 13.95 -1.05 14.1 -0.85 14.2 -0.65 14.15 0.15 14.1 0.95 13.85 1.65 13.6 2.3 13.1 3.15 12.55 4.0 12.15 4.5 11.75 5.0 11.85 5.0 11.95 5.0 12.85 4.6 13.8 4.2 14.75 3.7 15.65 3.2 16.9 2.2 18.15 1.2 18.15 1.1 18.15 1.0 17.75 0.15 17.35 -0.65 17.0 -1.9 16.65 -3.1 16.35 -4.45 16.05 -5.8 15.75 -7.0 15.5 -8.2 15.05 -9.65 14.6 -11.1 13.85 -12.95 13.1 -14.75 12.55 -15.85 11.95 -16.9 11.45 -17.7 10.95 -18.5 10.5 -19.1 10.0 -19.75 9.4 -20.35 8.75 -21.0 7.85 -21.75 6.95 -22.5 6.25 -21.95 5.5 -21.4 4.75 -21.05 4.05 -20.7 3.3 -20.5 2.6 -20.3 0.7 -20.3 -1.25 -20.3 -2.15 -20.45 -3.1 -20.6 -4.3 -20.9 -5.5 -21.25 -6.9 -21.8 -8.25 -22.3 -9.45 -23.0 -10.7 -23.65 -11.0 -23.5 -11.35 -23.35 -12.35 -22.7 -13.3 -22.05 -14.15 -21.3 -15.05 -20.6 -15.6 -19.85 -16.2 -19.15 -16.65 -18.4 -17.1 -17.65 -17.55 -16.8 -17.95 -15.9 -18.25 -15.1 -18.5 -14.3 -18.7 -13.55 -18.85 -12.75 -18.85 -11.55 -18.85 -10.35 -18.7 -9.4 -18.5 -8.45 -18.15 -7.2 -17.75 -5.95 -17.25 -4.65 -16.75 -3.3 -16.55 -2.6 -16.35 -1.85 -16.15 -1.05 -15.95 -0.2 -15.95 1.2 -15.95 2.55 -16.1 3.25 -16.25 3.9 -16.3 4.1 -16.35 4.3 -15.6 4.6 -14.85 4.85 -13.55 5.2 -12.25 5.55 -10.75 5.8 -9.25 6.05 -7.1 6.35 -4.9 6.6 -4.85 6.6 -4.75 6.6 -5.95 6.25 -7.15 5.9 -8.3 5.45 -9.4 5.05 -10.1 4.65 -10.8 4.3 -11.6 3.7 -12.45 3.15 -12.9 2.8 -13.35 2.4 -13.9 1.65 -14.5 0.9 -14.45 0.7 -14.4 0.55 -14.2 0.5 -13.95 0.45 -13.5 1.1 -13.05 1.8 -12.65 2.2 -12.2 2.6 -11.35 3.2 -10.45 3.8 -9.7 4.2 -8.95 4.6 -7.75 5.05 -6.5 5.55 -5.4 5.8 -4.3 6.1 -3.2 6.3 -2.1 6.55 -1.25 6.65 -0.35 6.8 -0.15 6.8 0.0 6.8 0.0 6.75 0.0 6.75 M-1.8 -18.3 L-3.0 -18.5 -4.05 -18.8 -5.1 -19.1 -6.3 -19.55 -7.5 -20.05 -9.2 -20.9 -10.85 -21.75 -10.9 -21.9 -11.0 -22.0 -10.85 -22.15 -10.7 -22.3 -10.65 -22.3 -10.55 -22.3 -8.9 -21.45 -7.3 -20.6 -6.05 -20.1 -4.85 -19.65 -3.65 -19.3 -2.45 -19.0 -1.6 -18.85 -0.8 -18.7 0.65 -18.7 2.05 -18.7 3.1 -18.95 4.15 -19.25 4.8 -19.6 5.5 -19.9 6.3 -20.55 7.1 -21.2 7.25 -21.2 7.45 -21.15 7.45 -21.0 7.5 -20.8 6.95 -20.3 6.35 -19.8 5.65 -19.4 4.95 -19.0 4.05 -18.65 3.1 -18.35 2.35 -18.25 1.6 -18.1 0.5 -18.1 -0.6 -18.1 -1.8 -18.3 -1.8 -18.3" fill="#010101" fill-rule="evenodd" stroke="none"/>
  </g>
</svg>
