<?xml version="1.0" encoding="UTF-8" standalone="no"?>
<svg xmlns:xlink="http://www.w3.org/1999/xlink" height="93.55px" width="99.5px" xmlns="http://www.w3.org/2000/svg">
  <g transform="matrix(1.0, 0.0, 0.0, 1.0, 49.75, 46.75)">
    <path d="M-2.2 26.3 L-3.3 26.25 -6.0 26.1 -8.75 25.95 -10.5 25.8 -12.25 25.65 -13.2 25.55 -14.15 25.45 -17.8 25.0 -21.4 24.55 -21.95 24.45 -22.5 24.35 -23.15 24.25 -23.75 24.15 -24.35 24.05 -24.9 23.95 -25.5 23.85 -26.1 23.7 -28.1 23.25 -30.05 22.8 -30.15 22.8 -30.25 22.8 -30.95 22.55 -31.65 22.3 -31.75 22.25 -31.85 22.15 -31.8 21.05 -31.8 19.95 -31.7 18.8 -31.6 17.65 -31.4 15.8 -31.2 13.95 -31.1 13.25 -31.0 12.55 -30.55 9.0 -30.1 5.5 -29.95 4.65 -29.8 3.75 -29.75 3.2 -29.7 2.65 -29.6 2.15 -29.5 1.65 -29.4 1.05 -29.3 0.4 -29.2 -0.2 -29.1 -0.8 -29.0 -1.4 -28.9 -2.0 -28.8 -2.6 -28.7 -3.2 -28.6 -3.85 -28.5 -4.5 -28.35 -5.25 -28.2 -6.0 -28.1 -6.6 -28.0 -7.2 -27.85 -8.1 -27.65 -9.0 -27.5 -9.9 -27.3 -10.8 -27.15 -11.7 -26.95 -12.65 -26.75 -13.75 -26.5 -14.85 -26.15 -16.35 -25.85 -17.85 -25.4 -19.8 -24.95 -21.8 -24.6 -23.15 -24.25 -24.5 -23.3 -28.1 -22.35 -31.65 -22.05 -32.6 -21.75 -33.55 -21.85 -33.65 -21.95 -33.75 -21.95 -34.05 -21.95 -34.35 -21.55 -35.85 -21.15 -37.4 -21.05 -38.15 -20.9 -38.9 -20.6 -39.2 -20.35 -39.45 -19.8 -39.4 -19.3 -39.35 -18.85 -39.25 -18.4 -39.15 -16.8 -38.9 -15.25 -38.65 -14.65 -38.55 -14.05 -38.45 -12.85 -38.3 -11.65 -38.15 -10.45 -38.05 -9.25 -37.95 -7.8 -37.85 -6.4 -37.75 -4.35 -37.65 -2.3 -37.55 0.35 -37.55 2.95 -37.55 4.6 -37.65 6.25 -37.75 7.7 -37.85 9.15 -37.95 10.25 -38.05 11.3 -38.15 13.0 -38.35 14.7 -38.55 15.15 -38.65 15.6 -38.75 16.4 -38.85 17.2 -38.95 18.4 -39.25 19.55 -39.55 19.9 -39.7 20.3 -39.85 20.65 -39.75 21.0 -39.65 21.1 -39.4 21.2 -39.2 21.45 -38.5 21.65 -37.8 22.1 -36.15 22.5 -34.45 22.85 -33.3 23.2 -32.15 24.5 -27.05 25.8 -22.0 26.55 -18.85 27.3 -15.75 27.65 -14.25 27.95 -12.75 28.2 -11.6 28.4 -10.5 28.65 -9.4 28.85 -8.3 29.1 -7.2 29.3 -6.1 29.55 -5.0 29.75 -3.85 29.95 -2.9 30.15 -1.95 30.35 -0.95 30.55 0.05 30.75 1.1 30.95 2.15 31.2 3.25 31.45 4.4 31.65 5.4 31.85 6.4 32.05 7.45 32.25 8.5 32.5 9.65 32.75 10.8 32.95 11.75 33.15 12.75 33.25 13.45 33.35 14.15 33.5 14.85 33.65 15.55 33.8 16.65 33.95 17.75 34.05 18.3 34.15 18.85 34.2 19.95 34.3 21.1 34.35 21.35 34.4 21.65 34.05 21.75 33.7 21.9 30.45 22.7 27.2 23.5 25.5 23.9 23.85 24.25 22.9 24.45 21.95 24.65 21.25 24.75 20.55 24.85 19.95 24.95 19.35 25.05 18.85 25.15 18.35 25.25 16.15 25.5 14.0 25.75 13.0 25.85 12.0 25.95 10.45 26.05 8.85 26.15 6.05 26.25 3.25 26.35 1.1 26.35 -1.1 26.3 -2.2 26.3 -2.2 26.3 M6.0 24.35 L8.75 24.25 10.4 24.15 12.0 24.05 13.0 23.95 14.0 23.85 16.1 23.6 18.25 23.35 18.7 23.25 19.15 23.15 19.9 23.05 20.65 22.9 21.95 22.65 23.25 22.4 23.7 22.35 24.15 22.3 25.55 21.95 26.95 21.6 29.7 20.95 32.4 20.3 32.3 19.55 32.25 18.75 32.15 18.35 32.05 17.95 31.9 16.8 31.75 15.65 31.6 15.0 31.45 14.35 31.35 13.65 31.25 12.95 31.05 11.9 30.85 10.9 30.6 9.8 30.35 8.7 30.15 7.6 29.95 6.5 29.7 5.5 29.5 4.5 29.3 3.35 29.05 2.25 28.85 1.15 28.6 0.05 28.45 -0.85 28.25 -1.75 28.05 -2.85 27.8 -4.0 27.65 -4.9 27.45 -5.8 27.2 -7.1 26.9 -8.4 26.7 -9.3 26.55 -10.2 26.3 -11.45 26.0 -12.75 25.7 -14.15 25.4 -15.55 23.95 -21.5 22.45 -27.4 21.75 -30.15 21.0 -32.9 21.0 -32.95 20.95 -33.0 19.55 -32.65 18.1 -32.3 17.15 -32.15 16.2 -32.0 15.7 -31.9 15.2 -31.8 13.45 -31.6 11.7 -31.4 10.65 -31.3 9.6 -31.2 8.1 -31.1 6.65 -31.0 5.0 -30.9 3.35 -30.8 0.75 -30.8 -1.9 -30.8 -3.95 -30.9 -6.0 -31.0 -7.4 -31.1 -8.85 -31.2 -10.05 -31.3 -11.25 -31.4 -12.45 -31.55 -13.65 -31.7 -14.65 -31.85 -15.65 -32.0 -16.2 -32.1 -16.75 -32.2 -17.7 -32.35 -18.6 -32.5 -19.25 -32.65 -19.95 -32.8 -20.0 -32.75 -20.05 -32.7 -20.25 -32.1 -20.45 -31.45 -20.65 -30.75 -20.85 -30.05 -21.6 -27.15 -22.35 -24.3 -22.7 -23.0 -23.05 -21.7 -23.5 -19.65 -23.95 -17.65 -24.25 -16.25 -24.55 -14.85 -24.8 -13.65 -25.05 -12.45 -25.2 -11.55 -25.4 -10.7 -25.55 -10.0 -25.7 -9.3 -25.85 -8.5 -26.0 -7.7 -26.25 -6.25 -26.5 -4.8 -26.6 -4.3 -26.7 -3.75 -26.8 -3.1 -26.9 -2.45 -27.0 -1.9 -27.1 -1.3 -27.2 -0.7 -27.3 -0.1 -27.4 0.55 -27.5 1.15 -27.6 1.75 -27.7 2.35 -27.85 3.3 -28.0 4.3 -28.1 4.9 -28.2 5.5 -28.65 8.95 -29.1 12.45 -29.2 13.25 -29.3 14.05 -29.5 15.8 -29.7 17.55 -29.8 18.95 -29.9 20.4 -29.95 20.65 -30.0 20.9 -29.4 21.05 -28.85 21.15 -27.7 21.45 -26.55 21.7 -25.9 21.85 -25.3 21.95 -24.45 22.1 -23.6 22.25 -23.0 22.35 -22.4 22.45 -21.85 22.55 -21.3 22.65 -17.8 23.1 -14.25 23.55 -13.2 23.65 -12.15 23.75 -10.5 23.9 -8.85 24.05 -6.05 24.2 -3.3 24.35 -2.2 24.4 -1.1 24.4 1.1 24.45 3.25 24.45 6.0 24.35 M2.4 9.45 L2.0 9.15 1.75 8.85 1.5 8.5 1.4 8.15 1.3 7.8 1.3 7.3 1.3 6.85 1.5 6.3 1.75 5.8 2.1 5.45 2.4 5.15 2.85 5.05 3.3 4.9 3.7 5.0 4.05 5.05 4.3 5.2 4.55 5.3 4.9 5.7 5.3 6.1 5.4 6.5 5.55 6.85 5.5 7.8 5.45 8.75 5.25 9.05 5.05 9.3 4.6 9.55 4.15 9.75 3.5 9.75 2.8 9.75 2.4 9.45 M3.85 8.65 L4.2 8.55 4.3 8.2 4.45 7.9 4.45 7.45 4.4 6.95 4.25 6.65 4.05 6.35 3.7 6.2 3.3 6.0 3.1 6.1 2.9 6.15 2.65 6.65 2.4 7.15 2.4 7.5 2.4 7.85 2.75 8.25 3.1 8.65 3.3 8.7 3.55 8.75 3.55 8.75 3.55 8.75 3.85 8.65 M20.7 7.95 L20.3 7.65 20.05 7.35 19.8 7.0 19.7 6.65 19.6 6.25 19.6 5.8 19.6 5.35 19.8 4.8 20.05 4.3 20.4 3.95 20.7 3.65 21.15 3.55 21.6 3.4 22.0 3.5 22.35 3.55 22.6 3.7 22.85 3.8 23.2 4.2 23.6 4.6 23.7 5.0 23.85 5.35 23.8 6.3 23.75 7.25 23.55 7.5 23.35 7.8 22.9 8.0 22.45 8.25 21.8 8.25 21.1 8.25 20.7 7.95 M22.15 7.15 L22.5 7.05 22.6 6.7 22.75 6.4 22.75 5.9 22.7 5.45 22.55 5.15 22.35 4.85 22.0 4.7 21.6 4.5 21.4 4.6 21.2 4.65 20.95 5.15 20.7 5.65 20.7 6.0 20.7 6.35 21.05 6.75 21.4 7.15 21.65 7.15 21.85 7.2 21.85 7.25 21.85 7.25 22.15 7.15 M2.0 -6.65 L1.6 -6.95 1.35 -7.25 1.1 -7.6 1.0 -7.95 0.9 -8.3 0.9 -8.8 0.9 -9.25 1.1 -9.8 1.35 -10.3 1.7 -10.65 2.0 -10.95 2.45 -11.05 2.9 -11.2 3.25 -11.1 3.65 -11.05 3.9 -10.9 4.15 -10.8 4.5 -10.4 4.9 -10.0 5.0 -9.6 5.1 -9.25 5.1 -8.3 5.05 -7.35 4.85 -7.05 4.65 -6.8 4.2 -6.55 3.75 -6.35 3.1 -6.35 2.4 -6.35 2.0 -6.65 M3.45 -7.45 L3.8 -7.55 3.9 -7.9 4.05 -8.2 4.05 -8.65 4.0 -9.15 3.85 -9.45 3.65 -9.75 3.3 -9.9 2.9 -10.1 2.7 -10.0 2.5 -9.95 2.25 -9.45 2.0 -8.95 2.0 -8.6 2.0 -8.25 2.35 -7.85 2.7 -7.45 2.9 -7.4 3.15 -7.35 3.15 -7.35 3.15 -7.35 3.45 -7.45 M18.0 -8.05 L17.6 -8.35 17.35 -8.65 17.1 -9.0 17.0 -9.35 16.85 -9.75 16.85 -10.2 16.85 -10.65 17.1 -11.2 17.35 -11.7 17.65 -12.05 18.0 -12.35 18.45 -12.45 18.9 -12.6 19.25 -12.5 19.65 -12.45 19.9 -12.3 20.15 -12.2 20.5 -11.8 20.85 -11.4 21.0 -11.0 21.1 -10.65 21.05 -9.7 21.05 -8.75 20.85 -8.5 20.65 -8.2 20.2 -8.0 19.75 -7.75 19.05 -7.75 18.4 -7.75 18.0 -8.05 M19.45 -8.85 L19.75 -8.95 19.9 -9.3 20.05 -9.6 20.0 -10.1 20.0 -10.55 19.85 -10.85 19.65 -11.15 19.25 -11.3 18.9 -11.5 18.7 -11.4 18.45 -11.35 18.2 -10.85 17.95 -10.35 17.95 -10.0 17.95 -9.65 18.35 -9.25 18.7 -8.85 18.9 -8.85 19.15 -8.8 19.15 -8.75 19.15 -8.75 19.45 -8.85 M1.5 -21.75 L1.1 -22.0 0.85 -22.35 0.6 -22.7 0.5 -23.05 0.4 -23.4 0.4 -23.9 0.4 -24.35 0.6 -24.9 0.85 -25.4 1.15 -25.75 1.5 -26.05 1.95 -26.15 2.4 -26.25 2.75 -26.2 3.15 -26.15 3.4 -26.0 3.65 -25.9 4.0 -25.5 4.35 -25.1 4.5 -24.7 4.6 -24.35 4.6 -23.4 4.55 -22.45 4.35 -22.15 4.15 -21.9 3.7 -21.65 3.25 -21.45 2.6 -21.45 1.9 -21.45 1.5 -21.75 M2.95 -22.55 L3.25 -22.65 3.4 -23.0 3.55 -23.3 3.55 -23.75 3.5 -24.25 3.35 -24.55 3.15 -24.85 2.8 -25.0 2.4 -25.2 2.2 -25.1 2.0 -25.05 1.75 -24.55 1.5 -24.05 1.5 -23.7 1.5 -23.35 1.85 -22.95 2.2 -22.55 2.4 -22.5 2.65 -22.45 2.65 -22.45 2.65 -22.45 2.95 -22.55 M14.7 -23.05 L14.25 -23.35 14.05 -23.65 13.8 -24.0 13.65 -24.35 13.55 -24.7 13.55 -25.2 13.55 -25.65 13.8 -26.2 14.0 -26.7 14.35 -27.05 14.65 -27.35 15.1 -27.45 15.55 -27.6 15.95 -27.5 16.3 -27.45 16.55 -27.3 16.85 -27.2 17.2 -26.8 17.55 -26.4 17.65 -26.0 17.8 -25.65 17.75 -24.7 17.7 -23.75 17.5 -23.45 17.3 -23.2 16.85 -22.95 16.4 -22.75 15.75 -22.75 15.1 -22.75 14.7 -23.05 M16.15 -23.85 L16.45 -23.95 16.6 -24.3 16.7 -24.6 16.7 -25.05 16.7 -25.55 16.5 -25.85 16.35 -26.15 15.95 -26.3 15.6 -26.5 15.35 -26.4 15.15 -26.35 14.9 -25.85 14.65 -25.35 14.65 -25.0 14.65 -24.65 15.0 -24.25 15.35 -23.85 15.6 -23.8 15.8 -23.8 15.8 -23.75 15.85 -23.75 16.15 -23.85 M5.0 -32.8 L6.65 -32.9 8.1 -33.0 9.6 -33.1 10.65 -33.2 11.7 -33.3 13.4 -33.5 15.1 -33.7 15.55 -33.8 16.0 -33.9 16.75 -34.0 17.5 -34.1 19.0 -34.5 20.5 -34.85 20.45 -34.95 20.4 -35.05 20.1 -36.35 19.75 -37.6 19.75 -37.6 19.75 -37.6 18.75 -37.4 17.7 -37.15 16.75 -37.0 15.8 -36.85 15.3 -36.75 14.8 -36.65 13.05 -36.45 11.3 -36.25 10.25 -36.15 9.15 -36.0 7.7 -35.9 6.25 -35.8 4.6 -35.7 2.95 -35.65 0.35 -35.65 -2.3 -35.65 -4.35 -35.7 -6.4 -35.8 -7.8 -35.95 -9.25 -36.05 -10.45 -36.15 -11.65 -36.25 -13.15 -36.45 -14.65 -36.65 -15.65 -36.8 -16.65 -36.95 -17.15 -37.0 -17.7 -37.1 -18.4 -37.25 -19.15 -37.4 -19.2 -37.25 -19.3 -37.15 -19.6 -35.95 -19.85 -34.8 -19.75 -34.7 -19.65 -34.65 -18.95 -34.55 -18.3 -34.4 -17.6 -34.25 -16.85 -34.1 -15.8 -33.95 -14.75 -33.8 -14.25 -33.7 -13.75 -33.6 -12.45 -33.45 -11.15 -33.3 -10.05 -33.2 -8.95 -33.1 -7.35 -33.0 -5.8 -32.9 -4.2 -32.8 -2.6 -32.75 0.4 -32.7 3.35 -32.7 5.0 -32.8 5.0 -32.8" fill="#cfcfcf" fill-rule="evenodd" stroke="none"/>
    <path d="M-3.95 26.2 L-4.6 26.15 -7.15 26.0 -9.75 25.85 -11.8 25.65 -13.85 25.45 -15.6 25.25 -17.35 25.05 -18.95 24.85 -20.5 24.65 -21.75 24.45 -23.0 24.25 -23.55 24.15 -24.1 24.05 -25.0 23.9 -25.9 23.75 -27.1 23.5 -28.25 23.25 -29.3 23.0 -30.35 22.75 -31.1 22.5 -31.8 22.2 -31.8 21.25 -31.8 20.3 -31.65 18.65 -31.5 17.05 -31.25 14.85 -31.0 12.65 -30.55 9.15 -30.1 5.7 -30.0 5.1 -29.9 4.5 -29.75 3.4 -29.6 2.35 -29.5 1.75 -29.4 1.15 -29.0 -1.25 -28.6 -3.65 -28.5 -4.25 -28.4 -4.8 -28.15 -6.2 -27.9 -7.6 -27.75 -8.4 -27.6 -9.2 -27.3 -10.8 -26.95 -12.45 -26.7 -13.65 -26.45 -14.85 -26.3 -15.55 -26.15 -16.25 -26.0 -16.9 -25.9 -17.55 -25.6 -18.85 -25.25 -20.2 -25.0 -21.35 -24.75 -22.55 -24.45 -23.7 -24.15 -24.8 -23.4 -27.65 -22.65 -30.55 -22.4 -31.4 -22.15 -32.25 -21.95 -32.85 -21.75 -33.45 -21.85 -33.75 -22.0 -34.1 -21.55 -35.75 -21.15 -37.4 -21.05 -38.05 -20.9 -38.7 -20.8 -38.95 -20.65 -39.2 -20.35 -39.35 -20.05 -39.45 -18.45 -39.15 -16.85 -38.85 -15.25 -38.6 -13.65 -38.35 -12.3 -38.2 -10.95 -38.05 -9.1 -37.9 -7.2 -37.75 -5.2 -37.65 -3.2 -37.55 -1.35 -37.5 0.55 -37.4 3.1 -37.55 5.65 -37.65 8.25 -37.85 10.9 -38.05 12.6 -38.25 14.3 -38.45 15.8 -38.7 17.3 -38.95 18.45 -39.2 19.55 -39.45 19.8 -39.6 20.1 -39.75 20.4 -39.75 20.7 -39.75 20.95 -39.5 21.2 -39.3 21.45 -38.45 21.7 -37.6 22.1 -36.0 22.5 -34.35 22.7 -33.65 22.9 -32.95 23.3 -31.5 23.7 -30.05 24.95 -25.15 26.2 -20.3 26.65 -18.35 27.15 -16.4 27.6 -14.25 28.05 -12.15 28.4 -10.4 28.75 -8.7 28.85 -8.25 28.95 -7.8 30.0 -2.55 31.05 2.65 32.1 7.85 33.15 13.05 33.6 15.75 34.05 18.45 34.15 19.4 34.25 20.4 34.3 20.95 34.3 21.55 34.2 21.6 34.1 21.7 33.6 21.85 33.05 22.05 30.05 22.75 27.1 23.5 25.9 23.8 24.75 24.05 23.25 24.35 21.75 24.65 20.45 24.85 19.15 25.05 18.55 25.15 17.9 25.25 16.3 25.45 14.7 25.65 13.6 25.75 12.5 25.9 10.5 26.05 8.45 26.2 2.6 26.2 -3.3 26.25 -3.95 26.2 -3.95 26.2 M7.6 24.35 L9.8 24.25 11.6 24.1 13.4 23.95 14.8 23.8 16.2 23.65 18.25 23.35 20.25 23.05 21.35 22.85 22.45 22.65 23.85 22.35 25.25 22.05 26.6 21.75 28.0 21.45 30.2 20.85 32.4 20.3 32.4 20.3 32.45 20.25 32.3 19.2 32.15 18.15 31.8 16.0 31.45 13.85 31.1 12.15 30.75 10.4 29.95 6.45 29.15 2.45 28.25 -2.0 27.35 -6.5 26.95 -8.2 26.6 -9.9 26.4 -10.85 26.25 -11.8 25.95 -13.25 25.65 -14.65 25.45 -15.55 25.25 -16.45 24.9 -17.95 24.5 -19.45 23.2 -24.55 21.9 -29.65 21.5 -31.25 21.05 -32.85 21.0 -32.95 20.9 -33.0 19.7 -32.7 18.5 -32.4 17.05 -32.15 15.6 -31.9 14.05 -31.7 12.5 -31.5 10.85 -31.35 9.15 -31.2 7.8 -31.1 6.45 -31.0 3.95 -30.9 1.45 -30.75 -1.1 -30.85 -3.6 -30.9 -6.05 -31.05 -8.5 -31.2 -10.2 -31.35 -11.85 -31.5 -12.65 -31.6 -13.45 -31.7 -14.5 -31.85 -15.55 -32.0 -16.7 -32.2 -17.9 -32.4 -18.4 -32.5 -18.9 -32.6 -19.35 -32.7 -19.85 -32.85 -19.95 -32.8 -20.1 -32.7 -20.2 -32.35 -20.3 -31.95 -20.6 -31.05 -20.85 -30.15 -21.6 -27.25 -22.35 -24.4 -22.75 -22.9 -23.15 -21.4 -23.45 -20.0 -23.75 -18.55 -23.95 -17.65 -24.2 -16.75 -24.6 -14.65 -25.05 -12.55 -25.6 -9.7 -26.15 -6.9 -26.8 -3.05 -27.5 0.75 -27.95 3.7 -28.4 6.65 -28.75 9.45 -29.1 12.25 -29.3 13.85 -29.5 15.45 -29.7 17.4 -29.9 19.35 -29.95 20.15 -30.0 20.9 -29.85 20.95 -29.65 21.0 -28.15 21.4 -26.65 21.75 -24.65 22.1 -22.7 22.45 -20.75 22.75 -18.8 23.05 -15.8 23.4 -12.85 23.75 -10.35 23.95 -7.8 24.15 -5.9 24.25 -4.0 24.35 -3.5 24.4 -3.0 24.4 1.25 24.45 5.45 24.45 7.6 24.35 M2.45 9.45 L2.0 9.15 1.75 8.75 1.5 8.4 1.4 8.0 1.3 7.6 1.3 7.25 1.3 6.95 1.55 6.35 1.8 5.8 2.05 5.5 2.35 5.25 2.8 5.1 3.25 4.95 3.65 5.0 4.05 5.1 4.35 5.25 4.7 5.45 5.0 5.8 5.3 6.15 5.4 6.6 5.55 7.05 5.5 7.85 5.45 8.6 5.25 8.95 5.05 9.3 4.6 9.5 4.1 9.75 3.5 9.75 2.95 9.75 2.45 9.45 2.45 9.45 M4.2 8.45 L4.4 8.25 4.45 7.8 4.5 7.4 4.4 6.95 4.3 6.55 4.05 6.35 3.75 6.15 3.5 6.05 3.3 6.0 3.05 6.1 2.8 6.25 2.6 6.65 2.4 7.05 2.4 7.4 2.4 7.8 2.6 8.15 2.8 8.45 3.1 8.6 3.45 8.75 3.75 8.7 4.05 8.65 4.2 8.45 4.2 8.45 M20.75 7.95 L20.3 7.65 20.05 7.25 19.8 6.9 19.7 6.5 19.6 6.1 19.6 5.75 19.6 5.45 19.85 4.85 20.1 4.3 20.35 4.0 20.65 3.7 21.1 3.6 21.55 3.45 21.95 3.5 22.35 3.6 22.65 3.75 23.0 3.9 23.3 4.3 23.6 4.65 23.7 5.1 23.85 5.55 23.8 6.3 23.75 7.1 23.55 7.45 23.35 7.75 22.9 8.0 22.4 8.25 21.8 8.25 21.25 8.25 20.75 7.95 20.75 7.95 M22.5 6.95 L22.7 6.75 22.75 6.3 22.8 5.85 22.7 5.45 22.6 5.05 22.35 4.85 22.05 4.6 21.8 4.55 21.6 4.5 21.35 4.6 21.1 4.7 20.9 5.1 20.7 5.55 20.7 5.9 20.7 6.3 20.9 6.6 21.1 6.95 21.4 7.1 21.75 7.25 22.05 7.2 22.35 7.15 22.5 6.95 22.5 6.95 M2.05 -6.65 L1.6 -6.95 1.35 -7.35 1.1 -7.7 1.0 -8.1 0.9 -8.5 0.9 -8.85 0.9 -9.15 1.15 -9.75 1.4 -10.3 1.65 -10.6 1.95 -10.85 2.4 -11.0 2.85 -11.15 3.25 -11.1 3.65 -11.0 3.95 -10.85 4.3 -10.65 4.6 -10.3 4.9 -9.95 5.0 -9.5 5.15 -9.05 5.1 -8.25 5.05 -7.5 4.85 -7.15 4.65 -6.8 4.15 -6.6 3.7 -6.35 3.1 -6.35 2.55 -6.35 2.05 -6.65 2.05 -6.65 M3.8 -7.65 L4.0 -7.85 4.05 -8.3 4.1 -8.7 4.0 -9.15 3.9 -9.55 3.65 -9.75 3.35 -9.95 3.1 -10.05 2.85 -10.1 2.65 -10.0 2.4 -9.85 2.2 -9.45 2.0 -9.05 2.0 -8.7 2.0 -8.3 2.2 -7.95 2.4 -7.65 2.7 -7.5 3.05 -7.35 3.35 -7.4 3.65 -7.45 3.8 -7.65 3.8 -7.65 M18.05 -8.05 L17.6 -8.35 17.35 -8.75 17.1 -9.1 17.0 -9.5 16.85 -9.9 16.85 -10.25 16.85 -10.55 17.1 -11.15 17.4 -11.7 17.65 -12.0 17.9 -12.3 18.4 -12.4 18.85 -12.55 19.25 -12.5 19.65 -12.4 19.95 -12.25 20.25 -12.1 20.55 -11.7 20.85 -11.35 21.0 -10.9 21.1 -10.45 21.05 -9.7 21.05 -8.9 20.85 -8.55 20.65 -8.25 20.15 -8.0 19.7 -7.75 19.1 -7.75 18.55 -7.75 18.05 -8.05 18.05 -8.05 M19.8 -9.05 L19.95 -9.25 20.05 -9.7 20.1 -10.15 20.0 -10.55 19.9 -10.95 19.6 -11.15 19.35 -11.4 19.1 -11.45 18.85 -11.5 18.6 -11.4 18.4 -11.3 18.2 -10.9 17.95 -10.45 17.95 -10.1 17.95 -9.7 18.2 -9.4 18.4 -9.05 18.7 -8.9 19.05 -8.75 19.35 -8.8 19.65 -8.85 19.8 -9.05 19.8 -9.05 M1.55 -21.75 L1.1 -22.05 0.85 -22.4 0.6 -22.8 0.5 -23.2 0.4 -23.6 0.4 -23.9 0.4 -24.25 0.65 -24.85 0.9 -25.4 1.15 -25.7 1.4 -25.95 1.9 -26.1 2.35 -26.25 2.75 -26.15 3.15 -26.1 3.45 -25.95 3.8 -25.75 4.1 -25.4 4.4 -25.05 4.5 -24.6 4.6 -24.15 4.6 -23.35 4.55 -22.6 4.35 -22.25 4.15 -21.9 3.65 -21.7 3.2 -21.45 2.6 -21.45 2.05 -21.45 1.55 -21.75 1.55 -21.75 M3.3 -22.75 L3.5 -22.95 3.55 -23.4 3.6 -23.8 3.5 -24.25 3.4 -24.65 3.1 -24.85 2.85 -25.05 2.6 -25.1 2.35 -25.2 2.15 -25.05 1.9 -24.95 1.7 -24.55 1.5 -24.15 1.5 -23.8 1.5 -23.4 1.7 -23.05 1.9 -22.75 2.2 -22.6 2.55 -22.45 2.85 -22.5 3.15 -22.55 3.3 -22.75 3.3 -22.75 M14.75 -23.05 L14.25 -23.35 14.0 -23.75 13.75 -24.1 13.65 -24.5 13.55 -24.9 13.55 -25.25 13.55 -25.55 13.8 -26.15 14.05 -26.7 14.35 -27.0 14.6 -27.3 15.05 -27.4 15.55 -27.55 15.9 -27.5 16.3 -27.4 16.65 -27.25 16.95 -27.05 17.25 -26.7 17.55 -26.35 17.7 -25.9 17.8 -25.45 17.75 -24.7 17.7 -23.9 17.5 -23.55 17.3 -23.25 16.85 -23.0 16.35 -22.75 15.8 -22.75 15.2 -22.75 14.75 -23.05 14.75 -23.05 M16.5 -24.05 L16.65 -24.25 16.7 -24.7 16.8 -25.1 16.65 -25.55 16.55 -25.95 16.3 -26.15 16.05 -26.35 15.8 -26.45 15.55 -26.5 15.3 -26.4 15.05 -26.25 14.85 -25.85 14.65 -25.45 14.65 -25.1 14.65 -24.7 14.85 -24.35 15.05 -24.05 15.4 -23.9 15.7 -23.75 16.0 -23.8 16.3 -23.85 16.5 -24.05 16.5 -24.05 M3.7 -32.7 L6.05 -32.8 8.65 -33.0 11.3 -33.2 13.0 -33.4 14.7 -33.6 16.2 -33.85 17.7 -34.1 19.05 -34.45 20.35 -34.75 20.4 -34.8 20.5 -34.9 20.15 -36.25 19.8 -37.6 19.75 -37.6 19.7 -37.65 18.9 -37.45 18.1 -37.25 16.65 -37.0 15.2 -36.75 13.65 -36.55 12.1 -36.35 10.45 -36.2 8.75 -36.05 7.4 -35.95 6.05 -35.85 3.55 -35.7 1.05 -35.6 -1.5 -35.65 -4.0 -35.75 -6.45 -35.9 -8.95 -36.05 -10.6 -36.2 -12.25 -36.35 -13.05 -36.45 -13.85 -36.55 -14.9 -36.7 -15.95 -36.85 -17.1 -37.05 -18.3 -37.25 -18.75 -37.35 -19.25 -37.4 -19.25 -37.4 -19.25 -37.4 -19.6 -36.1 -19.9 -34.75 -19.8 -34.7 -19.7 -34.65 -18.1 -34.35 -16.45 -34.0 -14.85 -33.75 -13.25 -33.5 -11.9 -33.35 -10.55 -33.2 -8.75 -33.05 -6.9 -32.9 -4.65 -32.8 -2.4 -32.7 -1.65 -32.65 -0.9 -32.65 0.25 -32.6 1.35 -32.6 3.7 -32.7 3.7 -32.7" fill="#b0b0b0" fill-rule="evenodd" stroke="none"/>
    <path d="M-3.6 26.2 L-4.1 26.15 -6.0 26.05 -7.9 25.95 -10.45 25.75 -12.95 25.55 -15.9 25.2 -18.9 24.85 -20.65 24.6 -22.4 24.35 -23.2 24.2 -24.0 24.05 -25.4 23.8 -26.85 23.55 -28.6 23.15 -30.35 22.75 -31.1 22.45 -31.85 22.2 -31.75 20.7 -31.7 19.15 -31.5 17.25 -31.3 15.35 -31.1 13.7 -30.9 12.05 -30.55 9.25 -30.2 6.5 -30.0 5.15 -29.8 3.75 -29.7 3.2 -29.6 2.65 -29.45 1.65 -29.3 0.65 -29.1 -0.5 -28.9 -1.65 -28.5 -4.1 -28.1 -6.5 -27.75 -8.1 -27.45 -9.7 -26.95 -12.45 -26.4 -15.15 -25.8 -17.7 -25.25 -20.25 -24.95 -21.55 -24.65 -22.8 -24.0 -25.3 -23.35 -27.8 -22.95 -29.35 -22.55 -30.85 -22.15 -32.15 -21.75 -33.5 -21.85 -33.8 -21.95 -34.1 -21.45 -36.15 -20.95 -38.2 -20.9 -38.55 -20.85 -38.95 -20.55 -39.2 -20.2 -39.45 -20.05 -39.45 -19.85 -39.45 -19.25 -39.3 -18.7 -39.15 -16.85 -38.85 -15.05 -38.55 -13.55 -38.35 -12.05 -38.15 -9.8 -37.95 -7.5 -37.75 -5.3 -37.65 -3.1 -37.5 -0.25 -37.5 2.65 -37.5 4.3 -37.55 5.95 -37.65 8.45 -37.85 11.0 -38.05 13.05 -38.3 15.1 -38.55 15.95 -38.7 16.8 -38.85 18.0 -39.1 19.25 -39.35 19.7 -39.55 20.2 -39.75 20.4 -39.75 20.6 -39.75 20.85 -39.6 21.05 -39.45 21.2 -39.15 21.3 -38.9 21.9 -36.65 22.5 -34.35 22.65 -33.8 22.8 -33.25 23.7 -29.9 24.6 -26.5 25.65 -22.35 26.7 -18.15 27.05 -16.55 27.4 -14.95 27.75 -13.3 28.1 -11.6 28.65 -9.15 29.15 -6.7 30.25 -1.2 31.35 4.3 32.0 7.45 32.65 10.6 32.9 11.8 33.15 13.05 33.6 15.8 34.05 18.55 34.15 19.65 34.3 20.8 34.25 21.2 34.2 21.65 33.75 21.8 33.3 21.95 30.35 22.7 27.4 23.45 25.75 23.8 24.15 24.15 23.4 24.3 22.65 24.45 21.5 24.65 20.35 24.85 18.75 25.1 17.1 25.35 15.35 25.55 13.6 25.75 11.7 25.9 9.8 26.05 7.6 26.15 5.45 26.25 1.2 26.25 -3.1 26.25 -3.6 26.2 M8.2 24.35 L9.9 24.25 12.25 24.05 14.6 23.85 16.45 23.6 18.35 23.35 19.3 23.2 20.3 23.05 21.9 22.75 23.45 22.45 24.85 22.15 26.25 21.85 27.4 21.6 28.5 21.3 30.5 20.8 32.45 20.3 32.4 19.8 32.35 19.25 32.1 17.7 31.85 16.15 31.65 14.9 31.4 13.65 30.25 8.0 29.15 2.35 28.55 -0.6 27.95 -3.55 27.2 -7.25 26.45 -10.9 26.2 -12.15 25.95 -13.35 25.65 -14.75 25.35 -16.15 24.65 -19.05 23.95 -22.0 22.9 -25.9 21.9 -29.85 21.45 -31.4 21.05 -33.0 20.9 -33.0 20.8 -33.0 19.6 -32.7 18.4 -32.4 16.95 -32.15 15.5 -31.9 13.9 -31.7 12.3 -31.5 9.3 -31.25 6.25 -31.0 3.65 -30.9 1.05 -30.75 -1.0 -30.85 -3.0 -30.9 -4.9 -31.0 -6.8 -31.1 -8.85 -31.25 -10.85 -31.4 -12.45 -31.6 -14.05 -31.8 -15.9 -32.1 -17.8 -32.4 -18.8 -32.6 -19.85 -32.85 -19.95 -32.8 -20.1 -32.75 -20.4 -31.7 -20.75 -30.65 -21.85 -26.45 -22.95 -22.3 -23.9 -18.0 -24.85 -13.75 -25.3 -11.4 -25.75 -9.1 -26.1 -7.2 -26.45 -5.3 -27.0 -2.0 -27.55 1.25 -27.9 3.25 -28.2 5.3 -28.3 5.9 -28.4 6.5 -28.75 9.25 -29.1 12.05 -29.35 14.1 -29.6 16.15 -29.75 17.65 -29.9 19.15 -29.95 20.05 -30.0 20.9 -29.95 20.95 -29.85 21.0 -27.8 21.45 -25.7 21.95 -24.2 22.2 -22.7 22.45 -21.8 22.6 -20.9 22.75 -19.5 22.95 -18.1 23.15 -15.5 23.45 -12.95 23.75 -10.5 23.95 -8.0 24.15 -6.1 24.25 -4.2 24.35 -3.7 24.4 -3.2 24.4 1.7 24.4 6.55 24.4 8.2 24.35 8.2 24.35 M2.55 9.5 L2.1 9.2 1.8 8.8 1.5 8.4 1.35 7.85 1.25 7.35 1.35 6.85 1.5 6.4 1.75 5.95 2.05 5.5 2.45 5.25 2.85 5.0 3.45 5.05 4.1 5.1 4.5 5.4 4.95 5.7 5.2 6.15 5.45 6.55 5.5 7.25 5.55 7.95 5.4 8.45 5.3 8.95 5.0 9.2 4.75 9.45 4.4 9.6 4.0 9.75 3.5 9.75 3.05 9.75 2.55 9.5 2.55 9.5 M4.05 8.6 L4.3 8.45 4.4 8.05 4.5 7.65 4.45 7.2 4.4 6.7 4.05 6.35 3.7 6.05 3.35 6.05 3.05 6.05 2.8 6.25 2.6 6.5 2.5 6.7 2.4 6.95 2.4 7.35 2.4 7.75 2.55 8.05 2.7 8.35 3.0 8.55 3.35 8.75 3.6 8.75 3.85 8.75 4.05 8.6 4.05 8.6 M20.85 7.95 L20.4 7.7 20.1 7.3 19.8 6.9 19.7 6.35 19.55 5.85 19.65 5.35 19.8 4.9 20.05 4.45 20.35 4.0 20.75 3.75 21.15 3.5 21.75 3.55 22.4 3.6 22.8 3.9 23.25 4.2 23.5 4.65 23.75 5.05 23.8 5.75 23.85 6.4 23.7 6.9 23.6 7.4 23.3 7.7 23.05 7.95 22.7 8.1 22.3 8.25 21.8 8.25 21.35 8.25 20.85 7.95 20.85 7.95 M22.35 7.1 L22.6 6.95 22.7 6.55 22.85 6.15 22.75 5.7 22.7 5.2 22.35 4.85 22.0 4.55 21.65 4.55 21.35 4.55 21.1 4.75 20.9 5.0 20.8 5.2 20.7 5.4 20.7 5.85 20.7 6.25 20.85 6.55 21.0 6.85 21.3 7.05 21.65 7.25 21.9 7.25 22.15 7.25 22.35 7.1 22.35 7.1 M2.15 -6.6 L1.7 -6.9 1.4 -7.3 1.1 -7.7 0.95 -8.25 0.85 -8.75 0.95 -9.25 1.1 -9.7 1.35 -10.15 1.65 -10.6 2.05 -10.85 2.45 -11.1 3.05 -11.05 3.7 -11.0 4.1 -10.7 4.55 -10.4 4.8 -9.95 5.05 -9.55 5.1 -8.85 5.15 -8.15 5.0 -7.65 4.9 -7.15 4.6 -6.9 4.35 -6.65 3.95 -6.5 3.6 -6.35 3.1 -6.35 2.65 -6.35 2.15 -6.6 2.15 -6.6 M3.65 -7.5 L3.9 -7.65 4.0 -8.05 4.1 -8.45 4.05 -8.9 4.0 -9.4 3.65 -9.75 3.3 -10.05 2.95 -10.05 2.6 -10.05 2.4 -9.85 2.2 -9.6 2.1 -9.4 2.0 -9.15 2.0 -8.75 2.0 -8.35 2.15 -8.05 2.3 -7.75 2.6 -7.55 2.95 -7.35 3.2 -7.35 3.45 -7.35 3.65 -7.5 3.65 -7.5 M18.15 -8.05 L17.7 -8.3 17.4 -8.7 17.1 -9.1 16.95 -9.65 16.85 -10.15 16.95 -10.65 17.1 -11.1 17.35 -11.55 17.65 -12.0 18.05 -12.25 18.45 -12.5 19.05 -12.45 19.7 -12.4 20.1 -12.1 20.55 -11.8 20.8 -11.35 21.0 -10.95 21.05 -10.25 21.1 -9.6 21.0 -9.1 20.9 -8.6 20.6 -8.3 20.35 -8.05 19.95 -7.9 19.6 -7.75 19.1 -7.75 18.65 -7.75 18.15 -8.05 18.15 -8.05 M19.65 -8.9 L19.9 -9.05 20.0 -9.45 20.1 -9.85 20.05 -10.3 19.95 -10.8 19.65 -11.15 19.3 -11.45 18.95 -11.45 18.6 -11.45 18.4 -11.25 18.2 -11.0 18.1 -10.8 17.95 -10.6 17.95 -10.15 17.95 -9.75 18.15 -9.45 18.3 -9.15 18.6 -8.95 18.95 -8.75 19.2 -8.75 19.45 -8.75 19.65 -8.9 19.65 -8.9 M1.65 -21.7 L1.2 -22.0 0.9 -22.4 0.6 -22.8 0.45 -23.3 0.35 -23.85 0.45 -24.35 0.6 -24.8 0.85 -25.25 1.15 -25.7 1.55 -25.95 1.95 -26.15 2.55 -26.15 3.2 -26.1 3.6 -25.8 4.05 -25.5 4.3 -25.05 4.55 -24.65 4.6 -23.95 4.6 -23.25 4.5 -22.75 4.4 -22.25 4.1 -22.0 3.85 -21.75 3.45 -21.6 3.1 -21.45 2.6 -21.45 2.15 -21.45 1.65 -21.7 1.65 -21.7 M3.15 -22.6 L3.4 -22.75 3.5 -23.15 3.6 -23.55 3.55 -24.0 3.45 -24.5 3.15 -24.8 2.8 -25.15 2.45 -25.15 2.1 -25.15 1.9 -24.95 1.7 -24.7 1.6 -24.5 1.5 -24.25 1.5 -23.85 1.5 -23.45 1.65 -23.15 1.8 -22.85 2.1 -22.65 2.45 -22.45 2.7 -22.45 2.95 -22.45 3.15 -22.6 3.15 -22.6 M14.85 -23.0 L14.35 -23.3 14.05 -23.7 13.8 -24.1 13.65 -24.65 13.5 -25.15 13.65 -25.65 13.75 -26.1 14.05 -26.55 14.3 -27.0 14.7 -27.25 15.1 -27.5 15.75 -27.45 16.35 -27.4 16.8 -27.1 17.2 -26.8 17.45 -26.35 17.7 -25.95 17.75 -25.25 17.8 -24.6 17.7 -24.05 17.55 -23.55 17.3 -23.3 17.0 -23.05 16.65 -22.9 16.25 -22.75 15.8 -22.75 15.3 -22.75 14.85 -23.0 14.85 -23.0 M16.35 -23.9 L16.55 -24.05 16.7 -24.45 16.8 -24.85 16.7 -25.3 16.65 -25.8 16.3 -26.15 16.0 -26.45 15.65 -26.45 15.3 -26.45 15.1 -26.25 14.9 -26.0 14.75 -25.8 14.65 -25.55 14.65 -25.15 14.65 -24.75 14.8 -24.45 14.95 -24.15 15.3 -23.95 15.6 -23.75 15.85 -23.75 16.1 -23.75 16.35 -23.9 16.35 -23.9 M5.45 -32.75 L6.25 -32.8 8.8 -33.0 11.4 -33.2 13.1 -33.4 14.8 -33.6 16.05 -33.8 17.3 -34.0 18.65 -34.35 20.0 -34.65 20.25 -34.7 20.5 -34.8 20.5 -34.9 20.5 -34.95 20.15 -36.25 19.8 -37.55 19.75 -37.6 19.7 -37.65 18.6 -37.4 17.5 -37.15 15.95 -36.9 14.4 -36.65 12.65 -36.45 10.9 -36.25 8.35 -36.05 5.85 -35.85 3.25 -35.7 0.65 -35.6 -1.4 -35.65 -3.4 -35.75 -5.3 -35.85 -7.2 -35.95 -9.25 -36.1 -11.25 -36.25 -13.15 -36.5 -15.05 -36.7 -17.15 -37.1 -19.25 -37.45 -19.3 -37.4 -19.3 -37.4 -19.6 -36.2 -19.85 -34.95 -19.9 -34.85 -19.9 -34.7 -19.1 -34.5 -18.3 -34.3 -16.15 -33.95 -14.05 -33.6 -12.85 -33.45 -11.65 -33.3 -9.4 -33.1 -7.1 -32.9 -4.85 -32.8 -2.6 -32.7 -2.0 -32.65 -1.4 -32.65 1.65 -32.65 4.65 -32.7 5.45 -32.75 5.45 -32.75" fill="#8e8e8e" fill-rule="evenodd" stroke="none"/>
    <path d="M-3.25 26.2 L-3.8 26.15 -5.85 26.05 -7.9 25.95 -10.8 25.7 -13.7 25.45 -16.95 25.05 -20.2 24.65 -21.45 24.45 -22.7 24.25 -24.2 24.0 -25.7 23.75 -26.4 23.6 -27.15 23.45 -28.75 23.1 -30.35 22.7 -31.1 22.45 -31.85 22.2 -31.75 20.8 -31.7 19.35 -31.6 18.35 -31.5 17.35 -31.3 15.5 -31.1 13.65 -31.0 12.85 -30.9 12.05 -30.55 9.3 -30.2 6.6 -30.1 6.0 -30.0 5.4 -29.85 4.35 -29.7 3.25 -29.55 2.25 -29.35 1.25 -29.1 -0.5 -28.8 -2.25 -28.45 -4.35 -28.05 -6.4 -27.6 -8.8 -27.15 -11.2 -26.7 -13.45 -26.25 -15.65 -25.6 -18.55 -24.95 -21.5 -23.95 -25.4 -22.95 -29.35 -22.4 -31.25 -21.85 -33.15 -21.8 -33.35 -21.75 -33.5 -21.85 -33.8 -21.95 -34.1 -21.45 -36.1 -20.95 -38.05 -20.95 -38.35 -20.95 -38.6 -20.75 -38.9 -20.55 -39.25 -20.25 -39.35 -20.0 -39.45 -19.15 -39.25 -18.3 -39.05 -16.4 -38.75 -14.55 -38.45 -12.95 -38.25 -11.35 -38.05 -10.8 -38.0 -10.25 -37.95 -8.2 -37.8 -6.2 -37.65 -3.65 -37.55 -1.1 -37.4 1.8 -37.45 4.65 -37.55 7.4 -37.75 10.2 -37.95 11.6 -38.1 13.0 -38.25 13.75 -38.35 14.5 -38.45 15.75 -38.65 17.0 -38.85 18.3 -39.15 19.55 -39.45 19.85 -39.6 20.2 -39.75 20.4 -39.75 20.6 -39.75 20.9 -39.45 21.2 -39.2 21.8 -37.0 22.4 -34.75 22.5 -34.35 22.6 -33.95 23.4 -31.05 24.2 -28.15 25.45 -23.1 26.7 -18.05 27.05 -16.45 27.4 -14.85 27.7 -13.65 27.95 -12.45 28.1 -11.7 28.2 -11.0 28.8 -8.3 29.35 -5.6 30.1 -1.85 30.85 1.85 31.2 3.55 31.55 5.3 32.1 8.0 32.65 10.7 32.9 11.9 33.15 13.15 33.5 15.3 33.85 17.45 34.0 18.4 34.15 19.35 34.2 20.5 34.3 21.6 33.7 21.8 33.1 21.95 31.8 22.3 30.5 22.65 28.25 23.2 25.95 23.75 24.55 24.05 23.15 24.35 21.45 24.65 19.75 24.95 17.95 25.2 16.2 25.45 14.85 25.6 13.5 25.75 11.6 25.9 9.7 26.05 7.45 26.15 5.25 26.25 1.3 26.25 -2.7 26.25 -3.25 26.2 -3.25 26.2 M8.2 24.35 L10.3 24.25 11.6 24.15 12.9 24.05 14.65 23.85 16.4 23.65 18.15 23.4 19.9 23.15 21.75 22.8 23.55 22.45 24.8 22.2 26.05 21.9 28.9 21.2 31.7 20.5 32.1 20.4 32.5 20.3 32.4 19.75 32.35 19.15 32.1 17.6 31.85 16.05 31.65 14.85 31.45 13.65 31.2 12.4 30.95 11.1 30.3 7.95 29.65 4.8 28.9 1.05 28.1 -2.65 28.05 -3.15 27.95 -3.65 27.5 -5.9 27.05 -8.1 26.55 -10.5 26.05 -12.95 25.8 -13.95 25.6 -14.95 25.1 -17.15 24.6 -19.35 23.8 -22.5 23.0 -25.6 22.35 -28.15 21.65 -30.65 21.35 -31.8 21.05 -33.0 20.9 -33.0 20.8 -33.0 19.8 -32.75 18.85 -32.5 17.45 -32.25 16.05 -32.0 14.15 -31.75 12.25 -31.5 9.85 -31.3 7.45 -31.1 5.6 -31.0 3.75 -30.85 0.6 -30.85 -2.6 -30.85 -4.6 -31.0 -6.6 -31.1 -8.6 -31.25 -10.65 -31.4 -12.3 -31.6 -13.95 -31.8 -16.05 -32.15 -18.2 -32.5 -19.1 -32.7 -20.05 -32.9 -20.15 -32.65 -20.2 -32.45 -20.7 -30.85 -21.15 -29.25 -22.05 -25.8 -22.95 -22.4 -23.15 -21.55 -23.35 -20.65 -24.0 -17.65 -24.65 -14.65 -25.15 -12.2 -25.65 -9.7 -26.05 -7.55 -26.45 -5.4 -26.85 -3.0 -27.3 -0.65 -27.65 1.55 -28.0 3.75 -28.2 5.1 -28.4 6.4 -28.8 9.4 -29.2 12.45 -29.5 15.15 -29.8 17.85 -29.9 19.35 -30.05 20.85 -29.95 20.95 -29.85 21.0 -28.55 21.3 -27.25 21.65 -25.95 21.9 -24.7 22.15 -22.9 22.45 -21.1 22.75 -19.25 23.0 -17.35 23.25 -14.75 23.55 -12.15 23.85 -10.3 24.0 -8.4 24.15 -6.6 24.25 -4.8 24.35 -2.35 24.45 0.1 24.5 3.15 24.5 6.15 24.45 8.2 24.35 8.2 24.35 M2.75 9.6 L2.45 9.45 2.1 9.1 1.75 8.8 1.55 8.4 1.4 8.0 1.4 7.45 1.4 6.85 1.55 6.45 1.65 6.05 1.9 5.75 2.1 5.45 2.55 5.25 2.95 5.05 3.4 5.05 3.8 5.05 4.2 5.2 4.55 5.4 4.85 5.75 5.2 6.1 5.35 6.55 5.5 6.95 5.5 7.5 5.5 8.0 5.4 8.4 5.3 8.8 5.15 9.05 4.95 9.3 4.5 9.55 4.05 9.75 3.55 9.75 3.05 9.75 2.75 9.6 2.75 9.6 M4.05 8.65 L4.25 8.55 4.4 8.25 4.5 7.9 4.5 7.55 4.5 7.15 4.35 6.8 4.2 6.45 3.95 6.25 3.65 6.05 3.35 6.05 3.0 6.05 2.85 6.2 2.7 6.35 2.55 6.65 2.4 6.9 2.4 7.15 2.35 7.4 2.35 7.65 2.4 7.95 2.65 8.25 2.9 8.55 3.15 8.65 3.35 8.75 3.55 8.75 3.8 8.75 4.05 8.65 4.05 8.65 M21.05 8.1 L20.75 7.95 20.4 7.6 20.05 7.3 19.85 6.9 19.7 6.5 19.7 5.9 19.7 5.35 19.85 4.95 19.95 4.55 20.2 4.25 20.45 3.9 20.85 3.7 21.25 3.5 21.7 3.5 22.1 3.5 22.5 3.7 22.85 3.9 23.15 4.25 23.5 4.6 23.65 5.0 23.8 5.45 23.8 5.95 23.8 6.5 23.7 6.9 23.6 7.3 23.45 7.55 23.25 7.8 22.8 8.0 22.35 8.25 21.85 8.25 21.35 8.25 21.05 8.1 21.05 8.1 M22.35 7.15 L22.6 7.05 22.7 6.75 22.8 6.4 22.8 6.0 22.8 5.65 22.65 5.3 22.5 4.95 22.25 4.75 21.95 4.55 21.65 4.55 21.3 4.55 21.15 4.7 21.0 4.85 20.85 5.1 20.7 5.4 20.7 5.65 20.65 5.9 20.65 6.15 20.7 6.4 20.95 6.75 21.25 7.05 21.45 7.15 21.65 7.25 21.85 7.25 22.1 7.25 22.35 7.15 22.35 7.15 M2.35 -6.5 L2.05 -6.65 1.7 -7.0 1.35 -7.3 1.15 -7.7 1.0 -8.1 1.0 -8.65 1.0 -9.25 1.1 -9.65 1.25 -10.05 1.5 -10.35 1.7 -10.65 2.15 -10.85 2.55 -11.05 3.0 -11.05 3.4 -11.05 3.75 -10.9 4.15 -10.7 4.45 -10.35 4.8 -10.0 4.95 -9.55 5.1 -9.15 5.1 -8.6 5.1 -8.1 5.0 -7.7 4.9 -7.3 4.75 -7.05 4.55 -6.8 4.1 -6.55 3.65 -6.35 3.15 -6.35 2.65 -6.35 2.35 -6.5 2.35 -6.5 M3.6 -7.45 L3.85 -7.55 4.0 -7.85 4.1 -8.2 4.1 -8.55 4.1 -8.95 3.95 -9.3 3.8 -9.65 3.55 -9.85 3.25 -10.05 2.95 -10.05 2.6 -10.05 2.45 -9.9 2.3 -9.75 2.15 -9.45 2.0 -9.2 2.0 -8.95 1.95 -8.7 1.95 -8.45 2.0 -8.15 2.25 -7.85 2.5 -7.55 2.75 -7.45 2.95 -7.35 3.15 -7.35 3.4 -7.35 3.6 -7.45 3.6 -7.45 M18.35 -7.9 L18.0 -8.05 17.7 -8.4 17.35 -8.7 17.15 -9.1 16.95 -9.5 16.95 -10.1 16.95 -10.65 17.1 -11.05 17.25 -11.45 17.5 -11.75 17.7 -12.1 18.15 -12.3 18.55 -12.5 18.95 -12.5 19.4 -12.5 19.75 -12.3 20.15 -12.1 20.45 -11.75 20.8 -11.4 20.95 -11.0 21.1 -10.55 21.1 -10.05 21.1 -9.5 21.0 -9.1 20.9 -8.7 20.7 -8.45 20.55 -8.2 20.1 -8.0 19.65 -7.75 19.15 -7.75 18.65 -7.75 18.35 -7.9 18.35 -7.9 M19.6 -8.85 L19.85 -8.95 19.95 -9.25 20.1 -9.6 20.1 -10.0 20.1 -10.35 19.95 -10.7 19.8 -11.05 19.55 -11.25 19.25 -11.45 18.9 -11.45 18.6 -11.45 18.45 -11.3 18.25 -11.15 18.15 -10.9 18.0 -10.6 17.95 -10.35 17.95 -10.1 17.95 -9.85 17.95 -9.6 18.25 -9.25 18.5 -8.95 18.7 -8.85 18.95 -8.75 19.15 -8.75 19.35 -8.75 19.6 -8.85 19.6 -8.85 M1.85 -21.6 L1.55 -21.75 1.2 -22.1 0.85 -22.4 0.65 -22.8 0.5 -23.2 0.5 -23.75 0.5 -24.35 0.6 -24.75 0.75 -25.15 1.0 -25.45 1.2 -25.75 1.65 -25.95 2.05 -26.15 2.45 -26.15 2.9 -26.15 3.25 -25.95 3.65 -25.8 3.95 -25.45 4.3 -25.1 4.45 -24.65 4.6 -24.25 4.6 -23.7 4.6 -23.2 4.5 -22.8 4.4 -22.4 4.2 -22.15 4.05 -21.9 3.6 -21.65 3.15 -21.45 2.65 -21.45 2.15 -21.45 1.85 -21.6 1.85 -21.6 M3.1 -22.55 L3.35 -22.65 3.5 -22.95 3.6 -23.3 3.6 -23.65 3.6 -24.05 3.45 -24.4 3.3 -24.7 3.05 -24.95 2.75 -25.15 2.45 -25.15 2.1 -25.15 1.95 -25.0 1.8 -24.85 1.65 -24.55 1.5 -24.3 1.45 -24.05 1.45 -23.8 1.45 -23.55 1.5 -23.25 1.75 -22.95 2.0 -22.6 2.25 -22.55 2.45 -22.45 2.65 -22.45 2.9 -22.45 3.1 -22.55 3.1 -22.55 M15.0 -22.9 L14.7 -23.05 14.35 -23.4 14.05 -23.7 13.85 -24.1 13.65 -24.5 13.65 -25.05 13.65 -25.65 13.8 -26.05 13.95 -26.45 14.15 -26.75 14.4 -27.05 14.8 -27.25 15.2 -27.45 15.65 -27.45 16.05 -27.45 16.45 -27.3 16.8 -27.1 17.15 -26.75 17.45 -26.4 17.6 -26.0 17.75 -25.55 17.75 -25.0 17.75 -24.5 17.7 -24.1 17.6 -23.7 17.4 -23.45 17.2 -23.2 16.75 -22.95 16.3 -22.75 15.8 -22.75 15.3 -22.75 15.0 -22.9 15.0 -22.9 M16.3 -23.85 L16.55 -23.95 16.65 -24.25 16.75 -24.6 16.75 -24.95 16.75 -25.35 16.65 -25.7 16.5 -26.05 16.2 -26.25 15.95 -26.45 15.6 -26.45 15.25 -26.45 15.1 -26.3 14.95 -26.15 14.8 -25.85 14.65 -25.6 14.65 -25.35 14.6 -25.1 14.65 -24.85 14.65 -24.55 14.9 -24.25 15.2 -23.95 15.4 -23.85 15.6 -23.75 15.85 -23.75 16.05 -23.75 16.3 -23.85 16.3 -23.85 M7.8 -32.9 L10.5 -33.1 11.95 -33.25 13.4 -33.4 14.15 -33.5 14.9 -33.6 16.15 -33.8 17.35 -34.0 18.45 -34.25 19.55 -34.5 20.0 -34.6 20.5 -34.75 20.5 -34.9 20.5 -35.0 20.15 -36.25 19.85 -37.5 19.8 -37.55 19.7 -37.65 18.55 -37.4 17.4 -37.15 16.2 -36.95 15.0 -36.75 13.4 -36.55 11.8 -36.35 9.5 -36.15 7.15 -35.95 5.25 -35.8 3.35 -35.7 0.15 -35.7 -3.0 -35.7 -5.0 -35.8 -7.0 -35.95 -9.05 -36.1 -11.05 -36.25 -12.7 -36.45 -14.35 -36.65 -16.8 -37.05 -19.25 -37.45 -19.3 -37.4 -19.3 -37.4 -19.65 -36.05 -19.95 -34.7 -19.9 -34.65 -19.9 -34.65 -18.3 -34.35 -16.65 -34.0 -15.4 -33.8 -14.15 -33.6 -12.55 -33.4 -10.95 -33.2 -9.8 -33.1 -8.6 -33.0 -7.0 -32.9 -5.4 -32.8 -3.8 -32.7 -2.2 -32.6 1.5 -32.65 5.15 -32.7 7.8 -32.9 7.8 -32.9" fill="#707070" fill-rule="evenodd" stroke="none"/>
    <path d="M-3.6 26.15 L-5.5 26.1 -7.2 25.95 -8.95 25.85 -10.75 25.7 -12.55 25.55 -14.8 25.3 -17.05 25.05 -18.9 24.8 -20.7 24.55 -21.4 24.45 -22.1 24.35 -23.55 24.1 -25.0 23.85 -26.05 23.65 -27.15 23.45 -28.7 23.1 -30.25 22.75 -31.05 22.45 -31.8 22.2 -31.8 21.55 -31.8 20.9 -31.6 18.7 -31.4 16.45 -31.2 14.75 -31.0 13.05 -30.6 9.8 -30.2 6.6 -30.1 6.05 -30.0 5.5 -29.85 4.5 -29.7 3.45 -29.55 2.4 -29.35 1.35 -29.05 -0.4 -28.8 -2.15 -28.45 -4.2 -28.1 -6.25 -27.6 -8.7 -27.15 -11.1 -26.85 -12.6 -26.6 -14.05 -26.3 -15.25 -26.05 -16.45 -25.55 -18.65 -25.1 -20.9 -24.85 -21.8 -24.65 -22.7 -23.75 -26.1 -22.85 -29.55 -22.3 -31.45 -21.75 -33.35 -21.75 -33.45 -21.75 -33.55 -21.8 -33.95 -21.85 -34.35 -21.4 -36.3 -20.95 -38.3 -20.8 -38.7 -20.7 -39.1 -20.35 -39.25 -20.05 -39.45 -19.2 -39.25 -18.4 -39.05 -16.5 -38.75 -14.65 -38.45 -13.1 -38.25 -11.55 -38.05 -10.35 -37.95 -9.15 -37.85 -6.9 -37.7 -4.7 -37.55 -1.15 -37.45 2.45 -37.4 4.45 -37.55 6.45 -37.65 8.9 -37.85 11.4 -38.05 12.7 -38.2 14.0 -38.35 15.25 -38.55 16.5 -38.75 17.7 -39.0 18.95 -39.25 19.65 -39.5 20.35 -39.75 20.6 -39.65 20.9 -39.55 21.05 -39.3 21.2 -39.05 21.7 -37.2 22.2 -35.35 22.45 -34.45 22.7 -33.55 23.45 -30.75 24.2 -27.95 25.35 -23.4 26.5 -18.85 26.9 -17.05 27.3 -15.25 27.65 -13.6 28.05 -11.9 28.1 -11.4 28.2 -10.9 28.75 -8.45 29.25 -6.0 30.05 -2.0 30.85 1.95 31.35 4.45 31.85 6.9 32.2 8.6 32.55 10.3 32.8 11.5 33.05 12.75 33.35 14.5 33.65 16.25 33.9 17.9 34.15 19.55 34.2 20.6 34.3 21.6 34.1 21.65 33.9 21.75 32.2 22.2 30.5 22.65 28.0 23.25 25.45 23.85 23.95 24.15 22.45 24.45 21.05 24.7 19.65 24.95 18.25 25.15 16.8 25.35 15.05 25.55 13.3 25.75 12.0 25.85 10.7 25.95 9.05 26.05 7.45 26.15 2.9 26.2 -1.7 26.25 -3.6 26.15 -3.6 26.15 M8.75 24.35 L10.6 24.25 12.8 24.05 15.0 23.85 16.8 23.6 18.65 23.35 20.15 23.1 21.7 22.85 22.65 22.65 23.65 22.45 25.3 22.1 26.95 21.7 29.75 21.0 32.5 20.35 32.5 20.3 32.55 20.3 32.45 19.75 32.35 19.25 32.1 17.55 31.85 15.85 31.65 14.7 31.45 13.55 31.2 12.3 30.95 11.0 30.3 7.85 29.65 4.7 29.3 2.95 28.95 1.25 28.05 -3.2 27.15 -7.7 26.6 -10.35 26.05 -13.05 25.6 -14.9 25.2 -16.75 25.05 -17.45 24.9 -18.15 23.9 -22.15 22.9 -26.1 22.45 -27.8 22.0 -29.55 21.55 -31.25 21.1 -32.95 21.05 -33.0 21.0 -33.1 19.65 -32.75 18.35 -32.4 16.45 -32.1 14.6 -31.8 12.8 -31.6 11.0 -31.4 8.95 -31.25 6.95 -31.1 5.3 -31.0 3.65 -30.9 0.7 -30.9 -2.3 -30.9 -4.25 -31.0 -6.2 -31.1 -8.25 -31.25 -10.35 -31.4 -12.05 -31.6 -13.75 -31.8 -15.9 -32.15 -18.1 -32.5 -19.05 -32.7 -20.0 -32.9 -20.05 -32.8 -20.1 -32.75 -20.45 -31.75 -20.75 -30.75 -21.35 -28.55 -21.95 -26.3 -22.6 -23.75 -23.25 -21.2 -23.65 -19.3 -24.1 -17.45 -24.4 -16.1 -24.65 -14.75 -25.15 -12.3 -25.65 -9.8 -25.95 -8.2 -26.25 -6.6 -26.55 -4.85 -26.9 -3.05 -27.5 0.55 -28.1 4.2 -28.4 6.3 -28.7 8.4 -29.1 11.6 -29.5 14.85 -29.7 16.75 -29.9 18.65 -29.95 19.7 -30.05 20.8 -30.05 20.85 -30.05 20.95 -29.15 21.2 -28.25 21.45 -26.25 21.85 -24.3 22.25 -22.75 22.5 -21.2 22.75 -19.8 22.95 -18.4 23.15 -16.75 23.35 -15.15 23.55 -13.15 23.75 -11.15 23.95 -9.2 24.1 -7.2 24.25 -5.1 24.35 -3.0 24.45 -2.1 24.5 -1.2 24.55 2.9 24.5 6.95 24.45 8.75 24.35 8.75 24.35 M2.75 9.55 L2.35 9.35 2.05 9.1 1.8 8.8 1.6 8.4 1.4 8.0 1.4 7.4 1.4 6.8 1.6 6.3 1.85 5.8 2.15 5.5 2.45 5.25 2.7 5.15 3.0 5.05 3.35 5.05 3.75 5.05 4.15 5.2 4.55 5.4 4.9 5.8 5.3 6.2 5.4 6.75 5.55 7.25 5.5 7.85 5.4 8.45 5.25 8.85 5.05 9.2 4.55 9.5 4.05 9.75 3.6 9.75 3.15 9.75 2.75 9.55 2.75 9.55 M4.05 8.7 L4.2 8.65 4.35 8.35 4.5 8.05 4.5 7.55 4.5 7.05 4.4 6.75 4.3 6.45 3.95 6.25 3.6 6.05 3.3 6.05 3.0 6.05 2.8 6.25 2.6 6.4 2.45 6.85 2.25 7.3 2.4 7.7 2.5 8.1 2.6 8.25 2.75 8.4 3.0 8.6 3.25 8.75 3.55 8.75 3.9 8.75 4.05 8.7 M21.05 8.05 L20.65 7.85 20.35 7.55 20.1 7.3 19.9 6.9 19.7 6.5 19.7 5.9 19.7 5.3 19.9 4.8 20.15 4.3 20.45 4.0 20.75 3.75 21.0 3.65 21.3 3.5 21.7 3.5 22.05 3.55 22.45 3.7 22.85 3.9 23.2 4.3 23.6 4.7 23.7 5.25 23.85 5.75 23.8 6.35 23.75 6.95 23.55 7.3 23.35 7.7 22.85 7.95 22.35 8.25 21.9 8.25 21.45 8.25 21.05 8.05 21.05 8.05 M22.35 7.2 L22.5 7.1 22.65 6.85 22.8 6.55 22.8 6.05 22.8 5.55 22.7 5.25 22.6 4.95 22.25 4.75 21.9 4.55 21.6 4.55 21.3 4.55 21.1 4.7 20.9 4.9 20.75 5.35 20.55 5.8 20.7 6.2 20.8 6.6 20.9 6.75 21.05 6.9 21.3 7.05 21.55 7.25 21.85 7.25 22.2 7.25 22.35 7.2 M2.35 -6.55 L1.95 -6.75 1.65 -7.0 1.4 -7.3 1.2 -7.7 1.0 -8.1 1.0 -8.7 1.0 -9.3 1.2 -9.8 1.45 -10.3 1.75 -10.6 2.05 -10.85 2.3 -10.95 2.6 -11.05 2.95 -11.05 3.35 -11.05 3.75 -10.9 4.15 -10.7 4.5 -10.3 4.85 -9.9 5.0 -9.35 5.15 -8.85 5.05 -8.25 5.0 -7.65 4.85 -7.25 4.65 -6.9 4.15 -6.6 3.65 -6.35 3.2 -6.35 2.75 -6.35 2.35 -6.55 2.35 -6.55 M3.65 -7.4 L3.8 -7.45 3.95 -7.75 4.1 -8.05 4.1 -8.55 4.1 -9.05 4.0 -9.35 3.9 -9.65 3.55 -9.85 3.2 -10.05 2.9 -10.05 2.6 -10.05 2.4 -9.9 2.2 -9.7 2.05 -9.25 1.85 -8.8 2.0 -8.4 2.1 -8.0 2.2 -7.85 2.35 -7.7 2.6 -7.5 2.85 -7.35 3.15 -7.35 3.5 -7.35 3.65 -7.4 M18.3 -7.95 L17.9 -8.15 17.65 -8.45 17.35 -8.7 17.15 -9.1 16.95 -9.5 16.95 -10.1 16.95 -10.7 17.2 -11.2 17.45 -11.7 17.75 -12.0 18.0 -12.25 18.3 -12.35 18.6 -12.5 18.95 -12.5 19.35 -12.45 19.75 -12.3 20.15 -12.1 20.5 -11.7 20.85 -11.3 21.0 -10.75 21.1 -10.25 21.05 -9.65 21.0 -9.05 20.8 -8.7 20.65 -8.3 20.15 -8.05 19.65 -7.75 19.2 -7.75 18.75 -7.75 18.3 -7.95 18.3 -7.95 M19.65 -8.8 L19.8 -8.9 19.95 -9.15 20.1 -9.45 20.1 -9.95 20.1 -10.45 20.0 -10.75 19.85 -11.05 19.55 -11.25 19.2 -11.45 18.9 -11.45 18.6 -11.45 18.4 -11.3 18.2 -11.1 18.05 -10.65 17.85 -10.2 17.95 -9.8 18.1 -9.4 18.2 -9.25 18.35 -9.1 18.55 -8.95 18.8 -8.75 19.15 -8.75 19.45 -8.75 19.65 -8.8 M1.85 -21.65 L1.45 -21.85 1.15 -22.1 0.9 -22.4 0.7 -22.8 0.5 -23.2 0.5 -23.8 0.5 -24.4 0.7 -24.9 0.95 -25.4 1.25 -25.7 1.55 -25.95 1.8 -26.05 2.1 -26.15 2.45 -26.15 2.85 -26.15 3.25 -26.0 3.65 -25.8 4.0 -25.4 4.35 -25.0 4.5 -24.45 4.6 -23.95 4.55 -23.35 4.5 -22.75 4.35 -22.35 4.15 -22.0 3.65 -21.7 3.15 -21.45 2.7 -21.45 2.25 -21.45 1.85 -21.65 1.85 -21.65 M3.15 -22.5 L3.3 -22.55 3.45 -22.85 3.6 -23.15 3.6 -23.65 3.6 -24.1 3.5 -24.45 3.35 -24.75 3.05 -24.95 2.7 -25.15 2.4 -25.15 2.1 -25.15 1.9 -24.95 1.7 -24.8 1.55 -24.35 1.35 -23.9 1.5 -23.5 1.6 -23.1 1.7 -22.95 1.85 -22.8 2.1 -22.6 2.35 -22.45 2.65 -22.45 2.95 -22.45 3.15 -22.5 M15.0 -22.95 L14.6 -23.15 14.35 -23.45 14.05 -23.7 13.85 -24.1 13.65 -24.5 13.65 -25.1 13.65 -25.7 13.9 -26.2 14.15 -26.7 14.4 -27.0 14.7 -27.25 15.0 -27.35 15.25 -27.45 15.65 -27.45 16.0 -27.45 16.4 -27.3 16.8 -27.1 17.2 -26.7 17.55 -26.3 17.65 -25.75 17.8 -25.25 17.75 -24.65 17.7 -24.05 17.5 -23.7 17.3 -23.3 16.8 -23.0 16.3 -22.75 15.85 -22.75 15.4 -22.75 15.0 -22.95 15.0 -22.95 M16.3 -23.8 L16.45 -23.85 16.6 -24.15 16.75 -24.45 16.75 -24.95 16.75 -25.45 16.65 -25.75 16.55 -26.05 16.2 -26.25 15.9 -26.45 15.55 -26.45 15.25 -26.45 15.05 -26.3 14.9 -26.1 14.7 -25.65 14.55 -25.2 14.65 -24.8 14.75 -24.4 14.9 -24.25 15.0 -24.1 15.25 -23.9 15.5 -23.75 15.85 -23.75 16.15 -23.75 16.3 -23.8 M5.8 -32.75 L8.15 -32.9 10.0 -33.05 11.8 -33.2 13.1 -33.35 14.4 -33.5 15.65 -33.7 16.9 -33.9 18.1 -34.2 19.35 -34.45 19.9 -34.6 20.45 -34.75 20.5 -34.8 20.55 -34.8 20.3 -35.85 20.0 -36.9 19.9 -37.3 19.8 -37.7 18.85 -37.5 17.9 -37.25 16.05 -36.95 14.2 -36.65 12.4 -36.45 10.6 -36.25 8.55 -36.1 6.55 -35.95 4.9 -35.85 3.25 -35.7 0.25 -35.75 -2.7 -35.75 -4.65 -35.85 -6.6 -35.95 -8.7 -36.1 -10.75 -36.25 -12.45 -36.45 -14.2 -36.6 -16.7 -37.05 -19.25 -37.45 -19.3 -37.4 -19.35 -37.35 -19.65 -36.15 -19.95 -34.9 -19.95 -34.8 -19.95 -34.65 -18.65 -34.4 -17.35 -34.1 -15.8 -33.85 -14.25 -33.6 -12.7 -33.4 -11.15 -33.2 -9.35 -33.05 -7.5 -32.9 -5.6 -32.8 -3.7 -32.7 -3.2 -32.65 -2.7 -32.65 0.4 -32.6 3.45 -32.6 5.8 -32.75 5.8 -32.75" fill="#505050" fill-rule="evenodd" stroke="none"/>
    <path d="M-1.45 26.2 L-2.7 26.15 -4.95 26.05 -7.2 25.95 -9.75 25.75 -12.25 25.55 -15.0 25.25 -17.8 24.95 -19.85 24.65 -21.9 24.35 -23.65 24.05 -25.45 23.75 -26.95 23.45 -28.45 23.15 -29.4 22.9 -30.4 22.65 -31.1 22.45 -31.8 22.2 -31.8 21.55 -31.8 20.9 -31.7 20.0 -31.6 19.05 -31.4 16.9 -31.2 14.75 -30.8 11.55 -30.4 8.4 -30.1 6.25 -29.8 4.1 -29.1 -0.2 -28.4 -4.5 -27.85 -7.45 -27.3 -10.4 -26.9 -12.45 -26.5 -14.45 -26.25 -15.6 -26.0 -16.75 -25.4 -19.25 -24.85 -21.8 -23.95 -25.3 -23.05 -28.85 -22.5 -30.75 -21.95 -32.65 -21.8 -33.1 -21.65 -33.5 -21.75 -33.6 -21.85 -33.75 -21.85 -34.1 -21.85 -34.4 -21.5 -35.75 -21.15 -37.1 -21.0 -37.85 -20.85 -38.6 -20.75 -38.85 -20.6 -39.15 -20.35 -39.3 -20.05 -39.45 -19.5 -39.3 -19.0 -39.15 -17.2 -38.85 -15.45 -38.55 -14.05 -38.35 -12.65 -38.15 -11.1 -38.0 -9.55 -37.85 -7.3 -37.7 -5.1 -37.5 -1.1 -37.45 2.85 -37.4 4.85 -37.55 6.85 -37.65 9.25 -37.85 11.6 -38.05 12.85 -38.2 14.1 -38.35 15.35 -38.55 16.55 -38.75 17.8 -39.0 19.0 -39.25 19.7 -39.5 20.35 -39.7 20.65 -39.6 21.0 -39.45 21.1 -39.25 21.2 -39.05 21.75 -36.95 22.3 -34.85 22.4 -34.5 22.5 -34.15 22.85 -32.9 23.2 -31.65 23.8 -29.4 24.4 -27.2 25.5 -22.8 26.6 -18.35 26.95 -16.75 27.3 -15.15 27.6 -13.95 27.85 -12.75 28.0 -12.05 28.1 -11.3 28.4 -10.05 28.65 -8.8 29.95 -2.4 31.25 3.95 32.15 8.45 33.05 12.95 33.5 15.6 33.95 18.25 34.05 19.05 34.15 19.85 34.2 20.75 34.3 21.6 32.55 22.05 30.8 22.55 28.35 23.15 25.85 23.75 24.1 24.1 22.35 24.45 20.6 24.75 18.85 25.05 17.3 25.25 15.8 25.45 14.4 25.6 13.0 25.75 11.7 25.85 10.4 25.95 8.5 26.05 6.65 26.15 3.25 26.2 -0.2 26.25 -1.45 26.2 -1.45 26.2 M9.85 24.3 L12.1 24.15 14.05 23.95 16.0 23.75 17.4 23.55 18.85 23.35 20.6 23.05 22.35 22.75 23.6 22.5 24.85 22.2 27.35 21.65 29.8 21.05 31.15 20.7 32.5 20.35 32.5 20.3 32.55 20.25 32.3 18.65 32.05 17.05 31.75 15.25 31.45 13.45 30.95 10.95 30.45 8.5 30.05 6.55 29.65 4.6 29.4 3.3 29.1 2.05 28.15 -2.85 27.15 -7.8 26.65 -10.2 26.15 -12.65 25.85 -13.85 25.6 -15.05 25.25 -16.65 24.9 -18.25 24.05 -21.65 23.2 -25.0 22.6 -27.25 22.0 -29.55 21.55 -31.3 21.05 -33.05 21.05 -33.1 21.0 -33.1 20.25 -32.9 19.55 -32.7 18.55 -32.5 17.5 -32.3 16.0 -32.05 14.5 -31.8 12.6 -31.6 10.7 -31.4 8.7 -31.25 6.75 -31.1 4.9 -31.0 3.05 -30.9 0.75 -30.9 -1.6 -30.9 -3.7 -31.0 -5.8 -31.1 -7.95 -31.25 -10.15 -31.4 -11.9 -31.6 -13.65 -31.8 -15.6 -32.1 -17.6 -32.4 -18.8 -32.65 -20.0 -32.9 -20.1 -32.75 -20.2 -32.6 -20.8 -30.6 -21.35 -28.65 -22.25 -25.15 -23.15 -21.7 -24.0 -17.85 -24.85 -14.05 -25.4 -11.15 -25.95 -8.3 -26.35 -6.1 -26.75 -3.85 -27.15 -1.45 -27.6 0.95 -27.85 2.55 -28.1 4.2 -28.35 5.85 -28.6 7.5 -29.05 11.1 -29.5 14.75 -29.65 16.15 -29.8 17.55 -29.95 19.2 -30.1 20.85 -30.05 20.95 -30.0 21.0 -28.7 21.3 -27.45 21.6 -25.9 21.95 -24.4 22.25 -22.25 22.6 -20.1 22.95 -17.2 23.3 -14.35 23.65 -11.7 23.9 -9.05 24.15 -7.3 24.25 -5.6 24.35 -3.8 24.45 -2.0 24.55 2.8 24.5 7.55 24.45 9.85 24.3 M2.75 9.5 L2.25 9.3 1.95 8.95 1.7 8.65 1.55 8.2 1.35 7.75 1.4 7.15 1.45 6.5 1.75 6.05 2.05 5.6 2.4 5.35 2.7 5.15 3.05 5.05 3.4 5.0 3.75 5.05 4.1 5.15 4.5 5.45 4.95 5.8 5.2 6.25 5.45 6.7 5.45 7.55 5.45 8.4 5.25 8.8 5.05 9.2 4.5 9.5 3.95 9.75 3.6 9.75 3.25 9.75 2.75 9.5 2.75 9.5 M4.05 8.7 L4.2 8.65 4.35 8.35 4.5 8.05 4.5 7.5 4.5 6.95 4.35 6.65 4.2 6.35 3.95 6.2 3.7 6.05 3.25 6.05 2.85 6.1 2.6 6.45 2.4 6.75 2.35 7.1 2.25 7.45 2.45 7.9 2.6 8.35 2.95 8.55 3.25 8.75 3.55 8.75 3.9 8.75 4.05 8.7 4.05 8.7 M21.05 8.0 L20.55 7.8 20.25 7.45 20.0 7.15 19.85 6.7 19.65 6.25 19.7 5.6 19.75 5.0 20.05 4.55 20.35 4.1 20.7 3.85 21.0 3.65 21.35 3.55 21.7 3.5 22.05 3.55 22.4 3.65 22.8 3.95 23.25 4.3 23.5 4.75 23.75 5.2 23.75 6.05 23.75 6.9 23.55 7.3 23.35 7.7 22.8 7.95 22.3 8.25 21.9 8.25 21.55 8.25 21.05 8.0 21.05 8.0 M22.35 7.2 L22.5 7.1 22.65 6.85 22.8 6.55 22.8 6.0 22.8 5.4 22.65 5.15 22.5 4.85 22.25 4.7 22.0 4.5 21.55 4.55 21.15 4.6 20.9 4.9 20.7 5.25 20.65 5.6 20.55 5.95 20.75 6.4 20.9 6.85 21.25 7.05 21.55 7.25 21.85 7.25 22.2 7.25 22.35 7.2 22.35 7.2 M2.35 -6.6 L1.85 -6.8 1.55 -7.15 1.3 -7.45 1.15 -7.9 0.95 -8.35 1.0 -8.95 1.05 -9.6 1.35 -10.05 1.65 -10.5 1.95 -10.75 2.3 -10.95 2.65 -11.05 3.0 -11.1 3.35 -11.05 3.7 -10.95 4.1 -10.65 4.55 -10.3 4.8 -9.85 5.05 -9.4 5.05 -8.55 5.05 -7.7 4.85 -7.3 4.65 -6.9 4.1 -6.6 3.55 -6.35 3.2 -6.35 2.85 -6.35 2.35 -6.6 2.35 -6.6 M3.65 -7.4 L3.8 -7.45 3.95 -7.75 4.1 -8.05 4.1 -8.6 4.1 -9.15 3.95 -9.45 3.8 -9.75 3.55 -9.9 3.3 -10.05 2.85 -10.05 2.45 -10.0 2.2 -9.65 2.0 -9.35 1.9 -9.0 1.85 -8.65 2.05 -8.2 2.2 -7.75 2.5 -7.55 2.85 -7.35 3.15 -7.35 3.5 -7.35 3.65 -7.4 3.65 -7.4 M18.3 -8.0 L17.8 -8.2 17.55 -8.55 17.3 -8.85 17.1 -9.3 16.95 -9.75 17.0 -10.4 17.05 -11.0 17.35 -11.45 17.65 -11.9 17.95 -12.15 18.3 -12.35 18.65 -12.45 19.0 -12.5 19.35 -12.45 19.7 -12.35 20.1 -12.05 20.55 -11.7 20.8 -11.25 21.05 -10.8 21.05 -9.95 21.05 -9.1 20.85 -8.7 20.6 -8.3 20.1 -8.05 19.55 -7.75 19.2 -7.75 18.85 -7.75 18.3 -8.0 18.3 -8.0 M19.65 -8.8 L19.8 -8.9 19.95 -9.15 20.1 -9.45 20.1 -10.0 20.1 -10.6 19.95 -10.85 19.8 -11.15 19.55 -11.3 19.25 -11.5 18.85 -11.45 18.45 -11.4 18.2 -11.1 18.0 -10.75 17.9 -10.4 17.85 -10.05 18.0 -9.6 18.2 -9.15 18.5 -8.95 18.85 -8.75 19.15 -8.75 19.45 -8.75 19.65 -8.8 19.65 -8.8 M1.85 -21.65 L1.3 -21.9 1.05 -22.2 0.8 -22.55 0.6 -23.0 0.45 -23.45 0.5 -24.05 0.55 -24.65 0.85 -25.15 1.15 -25.6 1.45 -25.85 1.8 -26.05 2.15 -26.1 2.5 -26.2 2.85 -26.1 3.2 -26.05 3.6 -25.75 4.05 -25.4 4.3 -24.95 4.55 -24.5 4.55 -23.65 4.55 -22.8 4.35 -22.4 4.15 -22.0 3.6 -21.7 3.05 -21.45 2.7 -21.45 2.35 -21.45 1.85 -21.65 1.85 -21.65 M3.15 -22.5 L3.3 -22.55 3.45 -22.85 3.6 -23.15 3.6 -23.7 3.6 -24.25 3.45 -24.55 3.3 -24.85 3.05 -25.0 2.8 -25.15 2.35 -25.15 1.95 -25.1 1.7 -24.75 1.5 -24.45 1.4 -24.1 1.35 -23.75 1.55 -23.3 1.7 -22.85 2.0 -22.65 2.35 -22.45 2.65 -22.45 2.95 -22.45 3.15 -22.5 3.15 -22.5 M15.0 -23.0 L14.5 -23.2 14.25 -23.55 13.95 -23.85 13.8 -24.3 13.6 -24.75 13.7 -25.35 13.75 -26.0 14.0 -26.45 14.3 -26.9 14.65 -27.15 15.0 -27.35 15.3 -27.45 15.65 -27.5 16.0 -27.45 16.35 -27.35 16.8 -27.05 17.2 -26.7 17.45 -26.25 17.7 -25.8 17.7 -24.95 17.7 -24.1 17.5 -23.7 17.3 -23.3 16.75 -23.0 16.25 -22.75 15.9 -22.75 15.5 -22.75 15.0 -23.0 15.0 -23.0 M16.3 -23.8 L16.45 -23.85 16.6 -24.15 16.75 -24.45 16.75 -25.0 16.75 -25.55 16.6 -25.85 16.5 -26.15 16.2 -26.3 15.95 -26.5 15.55 -26.45 15.1 -26.4 14.9 -26.1 14.65 -25.75 14.6 -25.4 14.55 -25.05 14.7 -24.6 14.9 -24.15 15.2 -23.95 15.5 -23.75 15.85 -23.75 16.15 -23.75 16.3 -23.8 16.3 -23.8 M6.15 -32.75 L8.45 -32.9 10.25 -33.05 12.0 -33.2 13.25 -33.35 14.5 -33.5 15.45 -33.65 16.4 -33.8 17.7 -34.1 19.05 -34.35 19.8 -34.55 20.55 -34.75 20.55 -34.75 20.6 -34.8 20.25 -36.15 19.85 -37.5 19.85 -37.6 19.8 -37.7 18.75 -37.45 17.7 -37.25 15.9 -36.95 14.1 -36.65 12.2 -36.45 10.3 -36.25 8.3 -36.1 6.35 -35.95 4.5 -35.85 2.65 -35.7 0.35 -35.7 -2.0 -35.7 -4.1 -35.85 -6.2 -35.95 -8.35 -36.1 -10.55 -36.25 -12.65 -36.5 -14.75 -36.75 -16.9 -37.1 -19.05 -37.45 -19.2 -37.5 -19.35 -37.55 -19.4 -37.25 -19.45 -37.0 -19.75 -35.85 -20.0 -34.7 -19.95 -34.65 -19.85 -34.6 -18.95 -34.4 -18.05 -34.2 -16.2 -33.9 -14.35 -33.6 -13.3 -33.45 -12.25 -33.3 -10.1 -33.1 -7.9 -32.9 -6.0 -32.8 -4.1 -32.7 -3.65 -32.65 -3.2 -32.65 0.35 -32.6 3.85 -32.6 6.15 -32.75" fill="#2e2e2e" fill-rule="evenodd" stroke="none"/>
    <path d="M-3.75 26.1 L-4.3 26.05 -6.2 25.95 -8.1 25.85 -10.0 25.7 -11.85 25.55 -13.35 25.4 -14.85 25.25 -16.85 25.0 -18.9 24.75 -20.35 24.55 -21.8 24.35 -23.55 24.05 -25.3 23.75 -26.75 23.45 -28.25 23.15 -29.35 22.9 -30.45 22.6 -31.1 22.4 -31.75 22.15 -31.75 21.3 -31.7 20.5 -31.5 18.25 -31.3 16.05 -30.8 11.9 -30.3 7.8 -30.0 5.75 -29.7 3.65 -29.05 -0.3 -28.4 -4.3 -28.1 -5.7 -27.85 -7.1 -27.55 -8.7 -27.25 -10.3 -26.8 -12.8 -26.3 -15.25 -25.5 -18.65 -24.75 -22.1 -24.05 -24.8 -23.35 -27.5 -22.75 -29.7 -22.15 -31.9 -21.9 -32.7 -21.65 -33.45 -21.75 -33.8 -21.9 -34.15 -21.65 -34.95 -21.45 -35.75 -21.1 -37.35 -20.75 -38.9 -20.45 -39.15 -20.2 -39.35 -19.9 -39.3 -19.6 -39.25 -18.55 -39.05 -17.45 -38.85 -15.9 -38.6 -14.35 -38.35 -13.15 -38.2 -11.95 -38.05 -10.9 -37.95 -9.85 -37.85 -7.7 -37.7 -5.6 -37.55 -2.8 -37.45 0.0 -37.3 1.95 -37.4 3.85 -37.45 5.5 -37.55 7.15 -37.65 8.95 -37.8 10.8 -37.95 12.25 -38.1 13.7 -38.25 15.25 -38.5 16.8 -38.75 18.15 -39.05 19.45 -39.35 19.75 -39.5 20.1 -39.65 20.35 -39.65 20.65 -39.65 20.85 -39.4 21.05 -39.2 21.1 -39.1 21.2 -38.95 21.8 -36.65 22.4 -34.35 22.6 -33.7 22.8 -33.05 23.85 -29.1 24.9 -25.1 25.6 -22.3 26.3 -19.45 26.7 -17.7 27.1 -15.95 27.45 -14.5 27.75 -13.05 28.4 -9.85 29.05 -6.7 30.05 -1.75 31.05 3.15 31.8 6.9 32.55 10.6 32.8 11.8 33.05 13.05 33.45 15.45 33.85 17.85 34.0 18.9 34.15 19.95 34.2 20.8 34.2 21.6 33.75 21.7 33.3 21.85 29.95 22.7 26.55 23.55 24.4 24.0 22.25 24.45 20.4 24.75 18.55 25.05 16.65 25.3 14.8 25.55 13.05 25.7 11.3 25.85 9.9 25.95 8.45 26.1 2.65 26.1 -3.2 26.15 -3.75 26.1 M7.65 24.45 L9.6 24.35 11.1 24.25 12.6 24.15 14.35 23.95 16.1 23.75 17.2 23.6 18.35 23.45 19.6 23.25 20.85 23.05 22.45 22.75 24.05 22.45 26.0 22.0 28.0 21.5 30.2 20.95 32.4 20.4 32.5 20.35 32.6 20.25 32.25 18.15 31.95 16.05 31.55 13.95 31.15 11.8 30.4 8.15 29.65 4.5 29.4 3.2 29.15 1.95 28.4 -1.75 27.65 -5.5 27.2 -7.7 26.75 -9.9 26.3 -12.1 25.85 -14.25 25.4 -16.1 25.0 -17.95 23.7 -23.1 22.4 -28.25 21.75 -30.65 21.1 -33.05 21.05 -33.1 21.0 -33.15 20.15 -32.9 19.35 -32.7 18.35 -32.5 17.35 -32.3 15.8 -32.05 14.2 -31.8 12.8 -31.65 11.4 -31.5 9.55 -31.35 7.65 -31.2 5.9 -31.1 4.15 -30.95 0.6 -30.95 -3.0 -30.95 -4.95 -31.1 -6.9 -31.2 -8.85 -31.35 -10.75 -31.5 -12.1 -31.65 -13.45 -31.8 -15.35 -32.1 -17.25 -32.4 -18.65 -32.65 -20.05 -32.95 -20.1 -32.9 -20.15 -32.8 -20.55 -31.45 -20.95 -30.15 -21.25 -29.1 -21.55 -28.05 -22.4 -24.7 -23.25 -21.4 -24.0 -18.0 -24.75 -14.65 -25.1 -12.9 -25.45 -11.1 -25.95 -8.4 -26.5 -5.7 -27.15 -1.8 -27.8 2.05 -28.05 3.7 -28.3 5.4 -28.5 6.75 -28.7 8.1 -29.1 11.3 -29.5 14.55 -29.75 16.9 -30.0 19.25 -30.05 20.15 -30.1 21.0 -28.8 21.3 -27.55 21.65 -26.3 21.9 -25.05 22.15 -23.65 22.4 -22.2 22.65 -20.15 22.95 -18.1 23.25 -15.9 23.5 -13.75 23.75 -11.6 23.95 -9.45 24.15 -6.9 24.3 -4.4 24.45 -3.7 24.5 -3.0 24.5 1.4 24.55 5.75 24.55 7.65 24.45 7.65 24.45 M3.25 9.65 L2.95 9.6 2.65 9.5 2.4 9.35 2.05 9.0 1.7 8.65 1.5 8.15 1.35 7.6 1.4 7.15 1.45 6.65 1.75 6.15 2.0 5.6 2.35 5.4 2.65 5.2 3.25 5.15 3.9 5.1 4.3 5.35 4.75 5.6 4.95 5.9 5.15 6.2 5.3 6.6 5.45 6.95 5.4 7.8 5.35 8.65 5.15 8.95 4.95 9.2 4.55 9.4 4.15 9.65 3.85 9.7 3.55 9.75 3.25 9.65 M4.25 8.55 L4.4 8.4 4.5 7.95 4.6 7.55 4.5 7.1 4.4 6.65 4.2 6.4 3.95 6.15 3.65 6.05 3.3 5.9 3.0 6.05 2.75 6.2 2.5 6.6 2.3 7.0 2.3 7.5 2.35 7.95 2.55 8.25 2.75 8.5 3.1 8.7 3.45 8.85 3.75 8.8 4.05 8.75 4.25 8.55 M21.55 8.15 L21.25 8.1 21.0 7.95 20.7 7.85 20.35 7.5 20.0 7.1 19.85 6.6 19.65 6.1 19.7 5.6 19.8 5.1 20.05 4.6 20.35 4.1 20.65 3.9 20.95 3.7 21.55 3.65 22.2 3.6 22.6 3.85 23.05 4.1 23.25 4.4 23.45 4.7 23.6 5.05 23.75 5.45 23.7 6.3 23.65 7.15 23.45 7.4 23.25 7.7 22.85 7.9 22.45 8.15 22.15 8.15 21.85 8.2 21.55 8.15 M22.55 7.05 L22.7 6.85 22.8 6.45 22.9 6.05 22.8 5.6 22.7 5.1 22.5 4.9 22.25 4.65 21.95 4.5 21.6 4.4 21.3 4.55 21.05 4.7 20.8 5.1 20.6 5.5 20.6 5.95 20.65 6.45 20.85 6.7 21.05 7.0 21.4 7.15 21.75 7.35 22.05 7.3 22.35 7.25 22.55 7.05 M2.85 -6.45 L2.55 -6.5 2.25 -6.6 2.0 -6.75 1.65 -7.1 1.3 -7.45 1.1 -7.95 0.95 -8.5 1.0 -8.95 1.05 -9.45 1.35 -9.95 1.6 -10.5 1.9 -10.7 2.25 -10.9 2.85 -10.95 3.5 -11.0 3.9 -10.75 4.35 -10.5 4.55 -10.2 4.75 -9.9 4.9 -9.5 5.05 -9.15 5.0 -8.3 4.95 -7.45 4.75 -7.15 4.55 -6.9 4.15 -6.7 3.75 -6.45 3.45 -6.4 3.15 -6.35 2.85 -6.45 M3.85 -7.55 L4.0 -7.7 4.1 -8.15 4.2 -8.55 4.1 -9.0 4.0 -9.45 3.8 -9.7 3.55 -9.95 3.25 -10.05 2.9 -10.2 2.6 -10.05 2.35 -9.9 2.1 -9.5 1.9 -9.1 1.9 -8.6 1.95 -8.15 2.15 -7.85 2.35 -7.6 2.7 -7.4 3.05 -7.25 3.35 -7.3 3.65 -7.35 3.85 -7.55 M18.85 -7.85 L18.55 -7.9 18.25 -8.05 18.0 -8.15 17.65 -8.5 17.3 -8.9 17.1 -9.4 16.95 -9.9 17.0 -10.4 17.05 -10.9 17.35 -11.4 17.6 -11.9 17.9 -12.1 18.2 -12.3 18.85 -12.35 19.5 -12.4 19.9 -12.15 20.35 -11.9 20.55 -11.6 20.75 -11.3 20.9 -10.95 21.0 -10.55 20.95 -9.7 20.95 -8.85 20.7 -8.6 20.5 -8.3 20.15 -8.1 19.75 -7.85 19.45 -7.85 19.15 -7.8 18.85 -7.85 M19.8 -8.95 L20.0 -9.15 20.1 -9.55 20.2 -9.95 20.1 -10.4 20.0 -10.9 19.8 -11.1 19.55 -11.35 19.2 -11.5 18.9 -11.6 18.6 -11.45 18.35 -11.3 18.1 -10.9 17.85 -10.5 17.9 -10.05 17.95 -9.55 18.15 -9.3 18.35 -9.0 18.7 -8.85 19.05 -8.65 19.35 -8.7 19.65 -8.75 19.8 -8.95 M2.35 -21.55 L2.05 -21.6 1.75 -21.7 1.5 -21.8 1.15 -22.2 0.8 -22.55 0.6 -23.05 0.45 -23.55 0.5 -24.05 0.55 -24.55 0.85 -25.05 1.1 -25.6 1.4 -25.8 1.7 -26.0 2.35 -26.05 3.0 -26.1 3.4 -25.85 3.85 -25.6 4.05 -25.3 4.25 -25.0 4.4 -24.6 4.5 -24.25 4.5 -23.4 4.45 -22.55 4.25 -22.25 4.05 -22.0 3.65 -21.75 3.25 -21.55 2.95 -21.5 2.65 -21.45 2.35 -21.55 M3.3 -22.65 L3.5 -22.8 3.6 -23.2 3.7 -23.65 3.6 -24.1 3.5 -24.55 3.3 -24.8 3.05 -25.05 2.75 -25.15 2.4 -25.25 2.1 -25.15 1.85 -25.0 1.6 -24.6 1.35 -24.2 1.4 -23.7 1.45 -23.25 1.65 -22.95 1.85 -22.7 2.2 -22.5 2.55 -22.35 2.85 -22.4 3.15 -22.45 3.3 -22.65 M15.5 -22.85 L15.2 -22.9 14.95 -23.05 14.7 -23.15 14.3 -23.5 13.95 -23.85 13.8 -24.4 13.6 -24.9 13.7 -25.4 13.75 -25.85 14.0 -26.4 14.3 -26.9 14.6 -27.1 14.9 -27.3 15.55 -27.35 16.15 -27.4 16.6 -27.15 17.0 -26.9 17.25 -26.6 17.45 -26.3 17.55 -25.95 17.7 -25.55 17.65 -24.7 17.6 -23.85 17.4 -23.55 17.2 -23.3 16.8 -23.1 16.4 -22.85 16.1 -22.8 15.8 -22.75 15.5 -22.85 M16.5 -23.95 L16.7 -24.1 16.75 -24.55 16.85 -24.95 16.8 -25.4 16.7 -25.85 16.45 -26.1 16.25 -26.35 15.9 -26.45 15.55 -26.6 15.3 -26.45 15.0 -26.3 14.8 -25.9 14.55 -25.5 14.6 -25.0 14.65 -24.55 14.8 -24.25 15.0 -24.0 15.35 -23.8 15.7 -23.65 16.0 -23.7 16.3 -23.75 16.5 -23.95 M6.0 -32.7 L7.55 -32.8 9.4 -32.95 11.2 -33.1 12.65 -33.25 14.1 -33.45 15.65 -33.65 17.2 -33.9 18.35 -34.15 19.5 -34.4 20.05 -34.6 20.6 -34.75 20.6 -34.85 20.6 -34.95 20.2 -36.35 19.8 -37.7 19.65 -37.65 19.45 -37.65 18.2 -37.4 16.95 -37.15 15.35 -36.9 13.8 -36.65 12.4 -36.5 11.0 -36.35 9.8 -36.25 8.55 -36.15 6.35 -36.0 4.15 -35.85 2.05 -35.75 -0.1 -35.7 -2.95 -35.8 -5.8 -35.95 -7.9 -36.1 -10.05 -36.25 -11.55 -36.4 -13.05 -36.55 -14.8 -36.8 -16.55 -37.05 -17.9 -37.3 -19.3 -37.5 -19.3 -37.5 -19.35 -37.45 -19.7 -36.05 -20.05 -34.7 -20.0 -34.65 -19.95 -34.6 -19.05 -34.4 -18.2 -34.2 -16.05 -33.85 -13.95 -33.5 -12.75 -33.35 -11.55 -33.2 -9.9 -33.05 -8.2 -32.9 -6.5 -32.8 -4.8 -32.7 -2.9 -32.6 -1.0 -32.5 1.75 -32.55 4.45 -32.6 6.0 -32.7 6.0 -32.7" fill="#000000" fill-rule="evenodd" stroke="none"/>
  </g>
</svg>
