<?xml version="1.0" encoding="UTF-8" standalone="no"?>
<svg xmlns:xlink="http://www.w3.org/1999/xlink" height="91.55px" width="88.5px" xmlns="http://www.w3.org/2000/svg">
  <g transform="matrix(1.0, 0.0, 0.0, 1.0, 44.25, 45.75)">
    <path d="M17.0 -33.9 Q11.15 -32.8 9.7 -32.6 7.75 -32.35 5.75 -32.2 3.8 -32.0 1.85 -31.95 -0.15 -31.85 -2.1 -31.8 -4.1 -31.75 -6.05 -31.8 -8.05 -31.85 -10.0 -31.95 -11.95 -32.05 -13.95 -32.25 -15.9 -32.45 -17.85 -32.7 -19.8 -32.95 -21.75 -33.25 -21.95 -33.25 -22.15 -33.3 -22.3 -33.35 -22.5 -33.4 -22.65 -33.4 -22.9 -33.45 -23.15 -33.5 -23.3 -33.55 -23.5 -33.6 -23.7 -33.6 -23.9 -33.65 -24.05 -33.7 -24.25 -33.7 -24.45 -33.7 -24.65 -33.7 -24.85 -33.65 -25.0 -33.55 -25.1 -33.45 -25.2 -33.35 -25.25 -33.25 -25.35 -33.1 -25.4 -33.0 -25.45 -32.85 -25.5 -32.7 -25.5 -32.6 -25.55 -32.4 -25.65 -32.0 -25.65 -32.1 -25.7 -31.95 -25.7 -31.8 -25.75 -31.65 -25.8 -31.55 -26.55 -29.0 -27.2 -26.4 -27.9 -23.85 -28.5 -21.25 -29.15 -18.7 -29.7 -16.05 -30.25 -13.5 -30.8 -10.85 -31.3 -8.3 -31.8 -5.6 -32.25 -3.05 -32.7 -0.4 -33.1 2.2 -33.5 4.9 -33.9 7.45 -34.25 10.15 -35.25 18.1 -35.35 20.8 -35.3 20.95 -35.25 21.05 -35.15 21.15 -35.05 21.25 -34.95 21.3 -34.8 21.4 -34.7 21.45 -34.55 21.45 -34.45 21.5 -34.25 21.55 -34.3 21.5 -33.95 21.6 -33.8 21.6 -33.7 21.65 -33.55 21.7 -33.4 21.7 -31.75 22.05 -30.1 22.4 -28.45 22.7 -26.75 22.95 -25.1 23.25 -23.4 23.45 -21.75 23.7 -20.05 23.85 -18.4 24.05 -16.7 24.2 -15.05 24.35 -13.3 24.5 -11.65 24.6 -9.9 24.7 -8.3 24.8 -6.55 24.85 -4.95 24.9 -3.45 24.9 -1.85 24.9 -0.35 24.85 1.2 24.85 2.7 24.8 4.3 24.75 5.8 24.65 7.4 24.55 8.9 24.45 10.45 24.3 11.95 24.1 13.5 23.9 15.0 23.7 16.55 23.45 18.05 23.15 18.75 23.0 19.45 22.9 20.1 22.75 20.8 22.6 21.5 22.45 22.15 22.3 22.85 22.15 23.55 22.0 24.2 21.85 24.9 21.7 25.6 21.55 26.25 21.35 26.95 21.2 27.6 21.05 28.3 20.85 28.95 20.7 29.1 20.6 29.15 20.5 29.25 20.4 29.3 20.25 29.3 20.15 29.3 20.0 29.35 19.9 29.3 19.7 29.3 19.6 29.25 19.45 29.3 19.55 29.2 19.15 29.2 18.95 29.15 18.85 29.15 18.7 29.15 18.6 28.3 13.5 26.75 6.0 23.95 -7.75 24.2 -6.55 21.95 -17.9 17.75 -33.2 17.75 -33.25 17.7 -33.35 17.7 -33.4 17.65 -33.45 17.65 -33.55 17.6 -33.6 17.55 -33.65 17.5 -33.7 17.45 -33.75 17.4 -33.8 17.35 -33.85 17.3 -33.9 17.2 -33.9 17.15 -33.9 17.05 -33.95 17.0 -33.9 L17.0 -33.9 M11.7 -27.3 Q11.9 -27.3 12.05 -27.25 12.2 -27.2 12.35 -27.15 12.5 -27.05 12.65 -26.95 12.8 -26.85 12.9 -26.7 13.0 -26.55 13.05 -26.4 13.15 -26.25 13.2 -26.1 13.25 -25.95 13.25 -25.75 13.25 -25.6 13.25 -25.45 13.25 -25.3 13.25 -25.2 13.25 -25.05 13.25 -24.95 13.25 -24.8 13.25 -24.7 13.2 -24.55 13.2 -24.45 13.15 -24.35 13.1 -24.25 13.05 -24.15 13.0 -24.05 12.9 -23.95 12.8 -23.9 12.7 -23.85 12.55 -23.8 12.4 -23.7 12.2 -23.65 12.05 -23.65 11.85 -23.65 11.7 -23.65 11.5 -23.65 11.35 -23.7 11.15 -23.8 11.0 -23.85 10.85 -23.95 10.75 -24.05 10.6 -24.2 10.5 -24.35 10.4 -24.5 10.3 -24.65 10.25 -24.8 10.15 -24.95 10.15 -25.15 10.1 -25.3 10.1 -25.5 10.1 -25.65 10.1 -25.8 10.15 -26.0 10.2 -26.15 10.3 -26.3 10.35 -26.45 10.45 -26.65 10.55 -26.75 10.7 -26.9 10.8 -27.0 10.95 -27.15 11.1 -27.2 11.15 -27.2 11.15 -27.25 11.2 -27.25 11.25 -27.25 11.25 -27.25 11.3 -27.3 11.35 -27.3 11.4 -27.3 11.4 -27.3 11.45 -27.3 11.5 -27.3 11.55 -27.3 11.6 -27.3 11.6 -27.35 11.65 -27.35 11.7 -27.3 L11.7 -27.3 M-1.75 -26.0 Q-1.5 -26.0 -1.3 -25.9 -1.1 -25.85 -0.95 -25.75 -0.8 -25.65 -0.65 -25.5 -0.5 -25.35 -0.4 -25.15 -0.3 -24.95 -0.25 -24.75 -0.15 -24.55 -0.15 -24.35 -0.1 -24.15 -0.1 -23.95 -0.15 -23.7 -0.2 -23.5 -0.2 -23.35 -0.25 -23.15 -0.25 -23.0 -0.35 -22.9 -0.45 -22.75 -0.6 -22.65 -0.7 -22.55 -0.85 -22.5 -1.0 -22.4 -1.2 -22.35 -1.35 -22.35 -1.5 -22.3 -1.7 -22.3 -1.85 -22.3 -2.0 -22.35 -2.15 -22.4 -2.35 -22.5 -2.55 -22.65 -2.75 -22.8 -2.9 -23.0 -3.0 -23.2 -3.1 -23.4 -3.2 -23.6 -3.25 -23.85 -3.3 -24.05 -3.3 -24.3 -3.3 -24.5 -3.25 -24.75 -3.2 -24.95 -3.1 -25.2 -2.95 -25.4 -2.8 -25.55 -2.75 -25.6 -2.7 -25.65 -2.65 -25.7 -2.6 -25.75 -2.55 -25.8 -2.45 -25.85 -2.4 -25.9 -2.35 -25.9 -2.25 -25.95 -2.2 -25.95 -2.15 -26.0 -2.05 -26.0 -2.0 -26.0 -1.9 -26.0 -1.85 -26.0 -1.75 -26.0 L-1.75 -26.0 M15.05 -12.25 Q15.25 -12.25 15.45 -12.2 15.6 -12.15 15.8 -12.05 15.95 -11.95 16.05 -11.8 16.2 -11.7 16.3 -11.55 16.4 -11.4 16.5 -11.2 16.55 -11.05 16.6 -10.85 16.65 -10.65 16.65 -10.5 16.65 -10.3 16.65 -10.1 16.65 -9.95 16.65 -9.85 16.65 -9.7 16.65 -9.6 16.6 -9.45 16.55 -9.35 16.5 -9.2 16.45 -9.1 16.35 -9.0 16.25 -8.9 16.2 -8.85 16.1 -8.75 15.95 -8.7 15.85 -8.65 15.7 -8.6 15.6 -8.6 15.35 -8.55 15.15 -8.55 14.95 -8.55 14.7 -8.65 14.5 -8.7 14.35 -8.85 14.15 -8.95 14.0 -9.15 13.85 -9.3 13.75 -9.5 13.65 -9.7 13.55 -9.9 13.5 -10.15 13.5 -10.35 13.45 -10.55 13.5 -10.75 13.55 -10.9 13.6 -11.0 13.65 -11.15 13.7 -11.3 13.8 -11.45 13.85 -11.55 13.95 -11.7 14.05 -11.8 14.15 -11.9 14.25 -12.0 14.35 -12.1 14.45 -12.15 14.6 -12.2 14.75 -12.25 14.9 -12.25 15.05 -12.25 L15.05 -12.25 M-1.35 -10.85 Q-1.15 -10.85 -1.0 -10.8 -0.8 -10.75 -0.65 -10.7 -0.5 -10.6 -0.35 -10.5 -0.2 -10.4 -0.1 -10.25 0.05 -10.15 0.1 -10.0 0.2 -9.85 0.25 -9.65 0.3 -9.5 0.35 -9.3 0.35 -9.15 0.3 -8.95 0.3 -8.8 0.3 -8.7 0.3 -8.6 0.3 -8.5 0.3 -8.35 0.3 -8.25 0.3 -8.1 0.3 -8.0 0.25 -7.9 0.2 -7.8 0.15 -7.7 0.1 -7.6 0.0 -7.5 -0.1 -7.45 -0.2 -7.4 -0.35 -7.35 -0.55 -7.25 -0.75 -7.2 -0.95 -7.1 -1.15 -7.15 -1.3 -7.15 -1.5 -7.2 -1.7 -7.25 -1.85 -7.35 -2.05 -7.45 -2.2 -7.6 -2.35 -7.75 -2.45 -7.9 -2.6 -8.1 -2.65 -8.25 -2.75 -8.45 -2.8 -8.65 -2.85 -8.8 -2.85 -8.95 -2.85 -9.1 -2.85 -9.25 -2.8 -9.4 -2.75 -9.55 -2.7 -9.7 -2.6 -9.85 -2.55 -10.0 -2.45 -10.15 -2.35 -10.25 -2.25 -10.4 -2.1 -10.5 -2.0 -10.6 -1.9 -10.7 -1.75 -10.8 -1.7 -10.8 -1.65 -10.8 -1.65 -10.8 -1.6 -10.85 -1.55 -10.85 -1.5 -10.85 -1.5 -10.85 -1.45 -10.85 -1.4 -10.85 -1.35 -10.85 L-1.35 -10.85 M17.85 3.8 Q18.1 3.8 18.3 3.9 18.5 3.95 18.65 4.1 18.8 4.2 18.95 4.35 19.1 4.5 19.2 4.7 19.3 4.9 19.35 5.1 19.4 5.3 19.45 5.5 19.45 5.75 19.45 5.95 19.45 6.15 19.4 6.35 19.4 6.55 19.35 6.7 19.3 6.9 19.2 7.0 19.1 7.15 18.95 7.25 18.8 7.35 18.6 7.4 18.45 7.45 18.25 7.5 18.05 7.55 17.9 7.5 17.7 7.5 17.5 7.45 17.35 7.4 17.2 7.3 16.95 7.15 16.75 6.95 16.6 6.75 16.45 6.5 16.35 6.25 16.3 5.95 16.25 5.7 16.3 5.4 16.3 5.15 16.4 4.9 16.5 4.6 16.7 4.4 16.85 4.2 17.05 4.05 17.3 3.9 17.6 3.85 17.65 3.85 17.7 3.85 17.75 3.8 17.8 3.8 17.8 3.8 17.85 3.8 L17.85 3.8 M-0.85 5.35 Q-0.65 5.35 -0.45 5.4 -0.25 5.45 -0.05 5.55 0.1 5.65 0.25 5.8 0.35 5.95 0.45 6.1 0.55 6.3 0.65 6.45 0.7 6.65 0.75 6.85 0.8 7.05 0.8 7.25 0.8 7.45 0.75 7.65 0.75 7.75 0.75 7.9 0.75 8.0 0.7 8.15 0.7 8.25 0.65 8.35 0.6 8.45 0.5 8.55 0.45 8.65 0.35 8.7 0.25 8.8 0.15 8.85 0.05 8.9 -0.05 8.95 -0.15 9.0 -0.3 9.0 -0.6 9.05 -0.85 9.05 -1.1 9.0 -1.35 8.9 -1.6 8.75 -1.75 8.6 -1.95 8.4 -2.1 8.15 -2.25 7.95 -2.3 7.65 -2.4 7.4 -2.4 7.15 -2.4 6.85 -2.35 6.6 -2.25 6.35 -2.1 6.15 -2.05 6.05 -2.0 6.0 -1.95 5.9 -1.9 5.8 -1.8 5.75 -1.75 5.65 -1.65 5.6 -1.6 5.55 -1.5 5.5 -1.4 5.45 -1.3 5.4 -1.25 5.4 -1.15 5.35 -1.05 5.35 -0.95 5.35 -0.85 5.35 L-0.85 5.35" fill="#ff0000" fill-rule="evenodd" stroke="none"/>
    <path d="M17.0 -33.9 Q11.15 -32.8 9.7 -32.6 7.75 -32.35 5.75 -32.2 3.8 -32.0 1.85 -31.95 -0.15 -31.85 -2.1 -31.8 -4.1 -31.75 -6.05 -31.8 -8.05 -31.85 -10.0 -31.95 -11.95 -32.05 -13.95 -32.25 -15.9 -32.45 -17.85 -32.7 -19.8 -32.95 -21.75 -33.25 -21.95 -33.25 -22.15 -33.3 -22.3 -33.35 -22.5 -33.4 -22.65 -33.4 -22.9 -33.45 -23.15 -33.5 -23.3 -33.55 -23.5 -33.6 -23.7 -33.6 -23.9 -33.65 -24.05 -33.7 -24.25 -33.7 -24.45 -33.7 -24.65 -33.7 -24.85 -33.65 -25.0 -33.55 -25.1 -33.45 -25.2 -33.35 -25.25 -33.25 -25.35 -33.1 -25.4 -33.0 -25.45 -32.85 -25.5 -32.7 -25.5 -32.6 -25.55 -32.4 -25.65 -32.0 -25.65 -32.1 -25.7 -31.95 -25.7 -31.8 -25.75 -31.65 -25.8 -31.55 -26.55 -29.0 -27.2 -26.4 -27.9 -23.85 -28.5 -21.25 -29.15 -18.7 -29.7 -16.05 -30.25 -13.5 -30.8 -10.85 -31.3 -8.3 -31.8 -5.6 -32.25 -3.05 -32.7 -0.4 -33.1 2.2 -33.5 4.9 -33.9 7.45 -34.25 10.15 -35.25 18.1 -35.35 20.8 -35.3 20.95 -35.25 21.05 -35.15 21.15 -35.05 21.25 -34.95 21.3 -34.8 21.4 -34.7 21.45 -34.55 21.45 -34.45 21.5 -34.25 21.55 -34.3 21.5 -33.95 21.6 -33.8 21.6 -33.7 21.65 -33.55 21.7 -33.4 21.7 -31.75 22.05 -30.1 22.4 -28.45 22.7 -26.75 22.95 -25.1 23.25 -23.4 23.45 -21.75 23.7 -20.05 23.85 -18.4 24.05 -16.7 24.2 -15.05 24.35 -13.3 24.5 -11.65 24.6 -9.9 24.7 -8.3 24.8 -6.55 24.85 -4.95 24.9 -3.45 24.9 -1.85 24.9 -0.35 24.85 1.2 24.85 2.7 24.8 4.3 24.75 5.8 24.65 7.4 24.55 8.9 24.45 10.45 24.3 11.95 24.1 13.5 23.9 15.0 23.7 16.55 23.45 18.05 23.15 18.75 23.0 19.45 22.9 20.1 22.75 20.8 22.6 21.5 22.45 22.15 22.3 22.85 22.15 23.55 22.0 24.2 21.85 24.9 21.7 25.6 21.55 26.25 21.35 26.95 21.2 27.6 21.05 28.3 20.85 28.95 20.7 29.1 20.6 29.15 20.5 29.25 20.4 29.3 20.25 29.3 20.15 29.3 20.0 29.35 19.9 29.3 19.7 29.3 19.6 29.25 19.45 29.3 19.55 29.2 19.15 29.2 18.95 29.15 18.85 29.15 18.7 29.15 18.6 28.3 13.5 26.75 6.0 23.95 -7.75 24.2 -6.55 21.95 -17.9 17.75 -33.2 17.75 -33.25 17.7 -33.35 17.7 -33.4 17.65 -33.45 17.65 -33.55 17.6 -33.6 17.55 -33.65 17.5 -33.7 17.45 -33.75 17.4 -33.8 17.35 -33.85 17.3 -33.9 17.2 -33.9 17.15 -33.9 17.05 -33.95 17.0 -33.9 L17.0 -33.9 M11.7 -27.3 Q11.9 -27.3 12.05 -27.25 12.2 -27.2 12.35 -27.15 12.5 -27.05 12.65 -26.95 12.8 -26.85 12.9 -26.7 13.0 -26.55 13.05 -26.4 13.15 -26.25 13.2 -26.1 13.25 -25.95 13.25 -25.75 13.25 -25.6 13.25 -25.45 13.25 -25.3 13.25 -25.2 13.25 -25.05 13.25 -24.95 13.25 -24.8 13.25 -24.7 13.2 -24.55 13.2 -24.45 13.15 -24.35 13.1 -24.25 13.05 -24.15 13.0 -24.05 12.9 -23.95 12.8 -23.9 12.7 -23.85 12.55 -23.8 12.4 -23.7 12.2 -23.65 12.05 -23.65 11.85 -23.65 11.7 -23.65 11.5 -23.65 11.35 -23.7 11.15 -23.8 11.0 -23.85 10.85 -23.95 10.75 -24.05 10.6 -24.2 10.5 -24.35 10.4 -24.5 10.3 -24.65 10.25 -24.8 10.15 -24.95 10.15 -25.15 10.1 -25.3 10.1 -25.5 10.1 -25.65 10.1 -25.8 10.15 -26.0 10.2 -26.15 10.3 -26.3 10.35 -26.45 10.45 -26.65 10.55 -26.75 10.7 -26.9 10.8 -27.0 10.95 -27.15 11.1 -27.2 11.15 -27.2 11.15 -27.25 11.2 -27.25 11.25 -27.25 11.25 -27.25 11.3 -27.3 11.35 -27.3 11.4 -27.3 11.4 -27.3 11.45 -27.3 11.5 -27.3 11.55 -27.3 11.6 -27.3 11.6 -27.35 11.65 -27.35 11.7 -27.3 L11.7 -27.3 M-1.75 -26.0 Q-1.5 -26.0 -1.3 -25.9 -1.1 -25.85 -0.95 -25.75 -0.8 -25.65 -0.65 -25.5 -0.5 -25.35 -0.4 -25.15 -0.3 -24.95 -0.25 -24.75 -0.15 -24.55 -0.15 -24.35 -0.1 -24.15 -0.1 -23.95 -0.15 -23.7 -0.2 -23.5 -0.2 -23.35 -0.25 -23.15 -0.25 -23.0 -0.35 -22.9 -0.45 -22.75 -0.6 -22.65 -0.7 -22.55 -0.85 -22.5 -1.0 -22.4 -1.2 -22.35 -1.35 -22.35 -1.5 -22.3 -1.7 -22.3 -1.85 -22.3 -2.0 -22.35 -2.15 -22.4 -2.35 -22.5 -2.55 -22.65 -2.75 -22.8 -2.9 -23.0 -3.0 -23.2 -3.1 -23.4 -3.2 -23.6 -3.25 -23.85 -3.3 -24.05 -3.3 -24.3 -3.3 -24.5 -3.25 -24.75 -3.2 -24.95 -3.1 -25.2 -2.95 -25.4 -2.8 -25.55 -2.75 -25.6 -2.7 -25.65 -2.65 -25.7 -2.6 -25.75 -2.55 -25.8 -2.45 -25.85 -2.4 -25.9 -2.35 -25.9 -2.25 -25.95 -2.2 -25.95 -2.15 -26.0 -2.05 -26.0 -2.0 -26.0 -1.9 -26.0 -1.85 -26.0 -1.75 -26.0 L-1.75 -26.0 M15.05 -12.25 Q15.25 -12.25 15.45 -12.2 15.6 -12.15 15.8 -12.05 15.95 -11.95 16.05 -11.8 16.2 -11.7 16.3 -11.55 16.4 -11.4 16.5 -11.2 16.55 -11.05 16.6 -10.85 16.65 -10.65 16.65 -10.5 16.65 -10.3 16.65 -10.1 16.65 -9.95 16.65 -9.85 16.65 -9.7 16.65 -9.6 16.6 -9.45 16.55 -9.35 16.5 -9.2 16.45 -9.1 16.35 -9.0 16.25 -8.9 16.2 -8.85 16.1 -8.75 15.95 -8.7 15.85 -8.65 15.7 -8.6 15.6 -8.6 15.35 -8.55 15.15 -8.55 14.95 -8.55 14.7 -8.65 14.5 -8.7 14.35 -8.85 14.15 -8.95 14.0 -9.15 13.85 -9.3 13.75 -9.5 13.65 -9.7 13.55 -9.9 13.5 -10.15 13.5 -10.35 13.45 -10.55 13.5 -10.75 13.55 -10.9 13.6 -11.0 13.65 -11.15 13.7 -11.3 13.8 -11.45 13.85 -11.55 13.95 -11.7 14.05 -11.8 14.15 -11.9 14.25 -12.0 14.35 -12.1 14.45 -12.15 14.6 -12.2 14.75 -12.25 14.9 -12.25 15.05 -12.25 L15.05 -12.25 M-1.35 -10.85 Q-1.15 -10.85 -1.0 -10.8 -0.8 -10.75 -0.65 -10.7 -0.5 -10.6 -0.35 -10.5 -0.2 -10.4 -0.1 -10.25 0.05 -10.15 0.1 -10.0 0.2 -9.85 0.25 -9.65 0.3 -9.5 0.35 -9.3 0.35 -9.15 0.3 -8.95 0.3 -8.8 0.3 -8.7 0.3 -8.6 0.3 -8.5 0.3 -8.35 0.3 -8.25 0.3 -8.1 0.3 -8.0 0.25 -7.9 0.2 -7.8 0.15 -7.7 0.1 -7.6 0.0 -7.5 -0.1 -7.45 -0.2 -7.4 -0.35 -7.35 -0.55 -7.25 -0.75 -7.2 -0.95 -7.1 -1.15 -7.15 -1.3 -7.15 -1.5 -7.2 -1.7 -7.25 -1.85 -7.35 -2.05 -7.45 -2.2 -7.6 -2.35 -7.75 -2.45 -7.9 -2.6 -8.1 -2.65 -8.25 -2.75 -8.45 -2.8 -8.65 -2.85 -8.8 -2.85 -8.95 -2.85 -9.1 -2.85 -9.25 -2.8 -9.4 -2.75 -9.55 -2.7 -9.7 -2.6 -9.85 -2.55 -10.0 -2.45 -10.15 -2.35 -10.25 -2.25 -10.4 -2.1 -10.5 -2.0 -10.6 -1.9 -10.7 -1.75 -10.8 -1.7 -10.8 -1.65 -10.8 -1.65 -10.8 -1.6 -10.85 -1.55 -10.85 -1.5 -10.85 -1.5 -10.85 -1.45 -10.85 -1.4 -10.85 -1.35 -10.85 L-1.35 -10.85 M17.85 3.8 Q18.1 3.8 18.3 3.9 18.5 3.95 18.65 4.1 18.8 4.2 18.95 4.35 19.1 4.5 19.2 4.7 19.3 4.9 19.35 5.1 19.4 5.3 19.45 5.5 19.45 5.75 19.45 5.95 19.45 6.15 19.4 6.35 19.4 6.55 19.35 6.7 19.3 6.9 19.2 7.0 19.1 7.15 18.95 7.25 18.8 7.35 18.6 7.4 18.45 7.45 18.25 7.5 18.05 7.55 17.9 7.5 17.7 7.5 17.5 7.45 17.35 7.4 17.2 7.3 16.95 7.15 16.75 6.95 16.6 6.75 16.45 6.5 16.35 6.25 16.3 5.95 16.25 5.7 16.3 5.4 16.3 5.15 16.4 4.9 16.5 4.6 16.7 4.4 16.85 4.2 17.05 4.05 17.3 3.9 17.6 3.85 17.65 3.85 17.7 3.85 17.75 3.8 17.8 3.8 17.8 3.8 17.85 3.8 L17.85 3.8 M-0.85 5.35 Q-0.65 5.35 -0.45 5.4 -0.25 5.45 -0.05 5.55 0.1 5.65 0.25 5.8 0.35 5.95 0.45 6.1 0.55 6.3 0.65 6.45 0.7 6.65 0.75 6.85 0.8 7.05 0.8 7.25 0.8 7.45 0.75 7.65 0.75 7.75 0.75 7.9 0.75 8.0 0.7 8.15 0.7 8.25 0.65 8.35 0.6 8.45 0.5 8.55 0.45 8.65 0.35 8.7 0.25 8.8 0.15 8.85 0.05 8.9 -0.05 8.95 -0.15 9.0 -0.3 9.0 -0.6 9.05 -0.85 9.05 -1.1 9.0 -1.35 8.9 -1.6 8.75 -1.75 8.6 -1.95 8.4 -2.1 8.15 -2.25 7.95 -2.3 7.65 -2.4 7.4 -2.4 7.15 -2.4 6.85 -2.35 6.6 -2.25 6.35 -2.1 6.15 -2.05 6.05 -2.0 6.0 -1.95 5.9 -1.9 5.8 -1.8 5.75 -1.75 5.65 -1.65 5.6 -1.6 5.55 -1.5 5.5 -1.4 5.45 -1.3 5.4 -1.25 5.4 -1.15 5.35 -1.05 5.35 -0.95 5.35 -0.85 5.35 L-0.85 5.35 Z" fill="none" stroke="#000000" stroke-linecap="round" stroke-linejoin="round" stroke-width="1.0"/>
    <path d="M15.65 -38.55 Q11.2 -37.7 10.05 -37.55 8.75 -37.4 7.45 -37.25 6.15 -37.15 4.85 -37.0 3.5 -36.9 2.25 -36.85 0.9 -36.75 -0.4 -36.7 -1.7 -36.65 -3.0 -36.65 -4.3 -36.6 -5.6 -36.65 -6.95 -36.65 -8.25 -36.7 -9.55 -36.75 -10.85 -36.85 -11.65 -36.9 -12.45 -36.95 -13.25 -37.0 -14.05 -37.1 -14.85 -37.15 -15.65 -37.25 -16.45 -37.3 -17.25 -37.4 -18.05 -37.5 -18.85 -37.6 -19.65 -37.7 -20.45 -37.85 -21.25 -37.95 -22.05 -38.1 -22.85 -38.2 -23.65 -38.35 -23.8 -38.35 -23.95 -38.35 -24.1 -38.3 -24.2 -38.2 -24.3 -38.15 -24.35 -38.0 -24.45 -37.9 -24.5 -37.8 -24.55 -37.65 -24.6 -37.5 -24.6 -37.4 -24.65 -37.2 -24.75 -36.65 -24.7 -36.95 -24.75 -36.8 -24.75 -36.7 -24.75 -36.6 -24.8 -36.45 -24.8 -36.35 -24.85 -36.15 -24.95 -35.95 -24.95 -35.85 -25.0 -35.7 -25.0 -35.55 -25.05 -35.4 -25.05 -35.3 -25.05 -35.15 -25.0 -35.05 -24.95 -34.9 -24.9 -34.8 -24.8 -34.7 -24.65 -34.6 -21.15 -33.75 -15.65 -33.15 -13.95 -32.95 -12.25 -32.85 -10.6 -32.7 -8.9 -32.65 -7.2 -32.55 -5.5 -32.55 -3.8 -32.5 -2.1 -32.55 -0.4 -32.6 1.3 -32.65 3.0 -32.75 4.7 -32.9 6.4 -33.0 8.1 -33.2 9.8 -33.4 11.5 -33.6 15.15 -34.25 16.8 -34.75 16.95 -34.85 17.0 -34.95 17.1 -35.05 17.1 -35.15 17.15 -35.3 17.15 -35.4 17.15 -35.55 17.1 -35.7 17.1 -35.8 17.05 -35.95 17.0 -35.95 16.95 -36.25 16.9 -36.4 16.85 -36.5 16.8 -36.65 16.8 -36.75 16.75 -36.85 16.7 -37.0 16.7 -37.1 16.65 -37.3 16.6 -37.5 16.55 -37.6 16.55 -37.75 16.5 -37.9 16.45 -38.05 16.35 -38.15 16.3 -38.3 16.2 -38.35 16.1 -38.45 15.95 -38.5 15.85 -38.55 15.65 -38.55 L15.65 -38.55" fill="#ff0000" fill-rule="evenodd" stroke="none"/>
    <path d="M15.65 -38.55 Q11.2 -37.7 10.05 -37.55 8.75 -37.4 7.45 -37.25 6.15 -37.15 4.85 -37.0 3.5 -36.9 2.25 -36.85 0.9 -36.75 -0.4 -36.7 -1.7 -36.65 -3.0 -36.65 -4.3 -36.6 -5.6 -36.65 -6.95 -36.65 -8.25 -36.7 -9.55 -36.75 -10.85 -36.85 -11.65 -36.9 -12.45 -36.95 -13.25 -37.0 -14.05 -37.1 -14.85 -37.15 -15.65 -37.25 -16.45 -37.3 -17.25 -37.4 -18.05 -37.5 -18.85 -37.6 -19.65 -37.7 -20.45 -37.85 -21.25 -37.95 -22.05 -38.1 -22.85 -38.2 -23.65 -38.35 -23.8 -38.35 -23.95 -38.35 -24.1 -38.3 -24.2 -38.2 -24.3 -38.15 -24.35 -38.0 -24.45 -37.9 -24.5 -37.8 -24.55 -37.65 -24.6 -37.5 -24.6 -37.4 -24.65 -37.2 -24.75 -36.65 -24.7 -36.95 -24.75 -36.8 -24.75 -36.7 -24.75 -36.6 -24.8 -36.45 -24.8 -36.35 -24.85 -36.15 -24.95 -35.95 -24.95 -35.85 -25.0 -35.7 -25.0 -35.55 -25.05 -35.4 -25.05 -35.3 -25.05 -35.15 -25.0 -35.05 -24.95 -34.9 -24.9 -34.8 -24.8 -34.7 -24.65 -34.6 -21.15 -33.75 -15.65 -33.15 -13.95 -32.95 -12.25 -32.85 -10.6 -32.7 -8.9 -32.65 -7.2 -32.55 -5.5 -32.55 -3.8 -32.5 -2.1 -32.55 -0.4 -32.6 1.3 -32.65 3.0 -32.75 4.7 -32.9 6.4 -33.0 8.1 -33.2 9.8 -33.4 11.5 -33.6 15.15 -34.25 16.8 -34.75 16.95 -34.85 17.0 -34.95 17.1 -35.05 17.1 -35.15 17.15 -35.3 17.15 -35.4 17.15 -35.55 17.1 -35.7 17.1 -35.8 17.05 -35.95 17.0 -35.95 16.95 -36.25 16.9 -36.4 16.85 -36.5 16.8 -36.65 16.8 -36.75 16.75 -36.85 16.7 -37.0 16.7 -37.1 16.65 -37.3 16.6 -37.5 16.55 -37.6 16.55 -37.75 16.5 -37.9 16.45 -38.05 16.35 -38.15 16.3 -38.3 16.2 -38.35 16.1 -38.45 15.95 -38.5 15.85 -38.55 15.65 -38.55 L15.65 -38.55 Z" fill="none" stroke="#000000" stroke-linecap="round" stroke-linejoin="round" stroke-width="1.0"/>
    <path d="M-24.65 -34.6 L16.9 -34.6 16.9 -30.25 -24.65 -30.25 -24.65 -34.6 -24.65 -34.6" fill="#ff0000" fill-rule="evenodd" stroke="none"/>
    <path d="M-24.65 -34.6 L16.9 -34.6 16.9 -30.25 -24.65 -30.25 -24.65 -34.6 -24.65 -34.6 Z" fill="none" stroke="#000000" stroke-linecap="round" stroke-linejoin="round" stroke-width="0.2"/>
    <path d="M-10.7 -25.4 L17.9 -30.8 25.85 9.9 -2.75 15.3 -10.7 -25.4 -10.7 -25.4" fill="#ff0000" fill-rule="evenodd" stroke="none"/>
    <path d="M-10.7 -25.4 L17.9 -30.8 25.85 9.9 -2.75 15.3 -10.7 -25.4 -10.7 -25.4 Z" fill="none" stroke="#000000" stroke-linecap="round" stroke-linejoin="round" stroke-width="0.2"/>
  </g>
</svg>
