<?xml version="1.0" encoding="UTF-8" standalone="no"?>
<svg xmlns:xlink="http://www.w3.org/1999/xlink" height="118.85px" width="143.95px" xmlns="http://www.w3.org/2000/svg">
  <g transform="matrix(1.0, 0.0, 0.0, 1.0, 72.0, 59.4)">
    <path d="M13.15 -15.7 L12.8 -15.85 12.65 -16.0 12.5 -16.15 12.3 -16.75 12.05 -17.3 11.55 -17.5 11.05 -17.65 10.35 -17.8 9.7 -17.9 7.55 -17.9 5.35 -17.9 5.1 -17.75 4.9 -17.55 4.9 -17.05 4.9 -16.55 4.7 -16.35 4.5 -16.1 4.15 -16.0 3.85 -15.9 0.9 -15.9 -2.05 -15.9 -3.45 -16.1 -4.85 -16.35 -5.35 -16.45 -5.9 -16.55 -6.35 -16.65 -6.85 -16.75 -7.8 -16.95 -8.75 -17.2 -10.65 -17.75 -12.5 -18.3 -13.2 -18.65 -13.9 -19.0 -14.25 -19.35 -14.55 -19.75 -14.75 -20.25 -14.9 -20.75 -14.75 -21.4 -14.6 -22.05 -14.85 -22.15 -15.1 -22.3 -15.7 -22.55 -16.3 -22.8 -17.1 -23.25 -17.9 -23.7 -18.6 -24.2 -19.35 -24.75 -20.0 -25.45 -20.65 -26.1 -21.1 -26.7 -21.6 -27.3 -21.75 -27.65 -21.9 -27.95 -21.9 -28.3 -21.9 -28.6 -21.6 -29.2 -21.35 -29.8 -20.6 -31.05 -19.9 -32.3 -19.2 -33.6 -18.5 -34.85 -18.4 -35.05 -18.3 -35.2 -17.7 -36.25 -17.15 -37.25 -16.55 -38.4 -15.9 -39.6 -15.7 -40.0 -15.5 -40.45 -14.8 -42.0 -14.1 -43.55 -13.75 -44.25 -13.4 -44.95 -12.6 -46.6 -11.75 -48.25 -11.35 -49.1 -10.9 -49.9 -10.4 -50.7 -9.9 -51.45 -9.35 -52.1 -8.8 -52.7 -8.4 -53.0 -8.05 -53.3 -8.1 -53.45 -8.15 -53.65 -7.9 -54.7 -7.65 -55.75 -7.55 -56.15 -7.45 -56.6 -7.3 -56.8 -7.15 -57.0 -6.85 -57.1 -6.55 -57.2 -4.85 -57.05 -3.1 -56.9 -1.5 -56.8 0.1 -56.65 3.85 -56.65 7.55 -56.65 12.0 -56.85 16.4 -57.0 20.95 -57.1 25.45 -57.25 25.85 -57.1 26.25 -57.0 26.55 -56.7 26.85 -56.45 27.0 -55.95 27.2 -55.4 27.45 -54.4 27.65 -53.4 27.8 -53.1 27.95 -52.75 29.6 -49.9 31.25 -47.05 31.85 -45.95 32.45 -44.85 33.45 -43.0 34.4 -41.1 35.8 -38.6 37.15 -36.05 38.55 -33.7 39.95 -31.35 40.4 -30.55 40.9 -29.8 41.0 -29.4 41.1 -29.0 40.95 -28.65 40.8 -28.35 40.2 -27.65 39.6 -27.0 37.95 -25.75 36.3 -24.5 35.65 -24.05 34.95 -23.6 33.9 -23.0 32.85 -22.45 32.5 -22.25 32.15 -22.1 32.1 -21.7 32.05 -21.35 31.95 -20.85 31.8 -20.35 31.6 -20.0 31.4 -19.65 30.85 -19.35 30.25 -19.0 29.2 -18.55 28.15 -18.1 27.05 -17.75 25.95 -17.4 25.25 -17.25 24.6 -17.1 23.4 -16.85 22.2 -16.55 21.7 -16.45 21.25 -16.3 20.3 -16.15 19.4 -16.0 18.45 -15.85 17.5 -15.65 15.5 -15.6 13.55 -15.55 13.15 -15.7 M17.65 -17.75 L19.2 -17.95 20.0 -18.1 20.75 -18.2 21.4 -18.35 22.1 -18.55 22.85 -18.7 23.65 -18.9 24.45 -19.1 25.25 -19.3 26.0 -19.45 26.7 -19.65 27.7 -20.0 28.7 -20.4 29.4 -20.8 30.15 -21.2 30.2 -21.35 30.25 -21.5 30.1 -22.2 29.9 -22.9 30.0 -23.05 30.05 -23.2 30.35 -23.5 30.7 -23.85 31.35 -24.0 32.0 -24.15 33.25 -24.85 34.5 -25.55 35.3 -26.1 36.15 -26.7 37.6 -27.95 39.1 -29.25 39.15 -29.35 39.15 -29.5 38.6 -30.4 38.05 -31.35 37.3 -32.55 36.6 -33.75 35.5 -35.75 34.4 -37.7 34.1 -38.25 33.8 -38.8 33.25 -39.9 32.65 -40.95 32.5 -41.25 32.35 -41.55 31.35 -43.4 30.4 -45.3 28.35 -48.85 26.25 -52.4 26.1 -52.35 25.95 -52.3 25.15 -52.15 24.4 -52.05 23.15 -51.9 21.9 -51.7 20.2 -51.6 18.55 -51.5 16.95 -51.4 15.35 -51.3 12.25 -51.2 9.1 -51.15 6.05 -51.25 2.95 -51.4 0.9 -51.55 -1.15 -51.75 -2.55 -51.9 -3.95 -52.05 -5.1 -52.15 -6.25 -52.3 -6.45 -52.3 -6.65 -52.35 -6.95 -52.2 -7.25 -52.05 -7.7 -51.6 -8.15 -51.1 -8.7 -50.3 -9.25 -49.45 -9.65 -48.75 -10.05 -48.05 -10.3 -47.55 -10.5 -47.05 -11.2 -45.75 -11.85 -44.4 -12.65 -42.65 -13.45 -40.9 -13.9 -40.0 -14.3 -39.15 -14.5 -38.7 -14.75 -38.3 -15.6 -36.75 -16.45 -35.2 -17.95 -32.5 -19.45 -29.85 -19.75 -29.25 -20.05 -28.6 -20.05 -28.4 -20.05 -28.2 -19.1 -27.2 -18.15 -26.15 -17.45 -25.7 -16.7 -25.2 -15.65 -24.65 -14.6 -24.15 -13.65 -23.8 -12.65 -23.5 -12.45 -23.3 -12.25 -23.1 -12.3 -22.85 -12.35 -22.65 -12.6 -21.9 -12.85 -21.15 -12.85 -20.9 -12.85 -20.6 -12.4 -20.4 -11.95 -20.15 -10.1 -19.65 -8.3 -19.1 -7.35 -18.9 -6.45 -18.65 -5.85 -18.55 -5.2 -18.4 -4.75 -18.3 -4.3 -18.2 -2.75 -18.05 -1.15 -17.85 0.9 -17.85 3.0 -17.85 3.0 -18.1 3.0 -18.35 3.2 -18.75 3.35 -19.15 3.65 -19.35 4.0 -19.6 4.55 -19.75 5.1 -19.9 7.55 -19.9 10.05 -19.9 11.1 -19.7 12.1 -19.5 12.5 -19.3 12.95 -19.05 13.25 -18.85 13.6 -18.6 13.75 -18.05 13.9 -17.55 15.0 -17.55 16.15 -17.55 17.65 -17.75 17.65 -17.75 M15.25 -52.7 L17.65 -52.8 20.05 -53.0 22.4 -53.15 23.5 -53.3 24.6 -53.5 25.2 -53.6 25.75 -53.7 25.6 -54.45 25.4 -55.2 25.4 -55.2 25.4 -55.25 24.0 -55.25 22.55 -55.25 21.25 -55.15 20.0 -55.0 16.75 -54.85 13.55 -54.65 6.8 -54.7 0.1 -54.7 -1.4 -54.8 -2.9 -54.9 -4.4 -55.0 -5.85 -55.15 -5.95 -55.0 -6.0 -54.85 -6.15 -54.35 -6.25 -53.8 -6.2 -53.75 -6.15 -53.7 -4.65 -53.55 -3.1 -53.35 -2.85 -53.3 -2.6 -53.25 -0.05 -53.05 2.5 -52.8 4.45 -52.7 6.4 -52.65 9.65 -52.6 12.85 -52.6 15.25 -52.7 15.25 -52.7" fill="#cfcfcf" fill-rule="evenodd" stroke="none"/>
    <path d="M13.45 -15.65 L13.25 -15.7 12.95 -15.85 12.65 -16.0 12.4 -16.6 12.15 -17.15 12.05 -17.3 11.9 -17.4 11.3 -17.6 10.75 -17.75 9.75 -17.85 8.75 -18.0 7.65 -18.0 6.6 -18.05 5.9 -17.95 5.15 -17.85 5.0 -17.7 4.85 -17.5 4.85 -17.1 4.85 -16.65 4.75 -16.45 4.65 -16.25 4.25 -16.05 3.85 -15.9 1.05 -15.9 -1.75 -15.9 -2.95 -16.05 -4.15 -16.25 -4.95 -16.4 -5.8 -16.55 -6.25 -16.65 -6.75 -16.75 -7.7 -17.0 -8.65 -17.2 -10.4 -17.7 -12.15 -18.2 -12.85 -18.55 -13.6 -18.85 -14.0 -19.2 -14.4 -19.55 -14.6 -20.05 -14.8 -20.55 -14.75 -21.1 -14.7 -21.65 -14.65 -21.9 -14.6 -22.1 -15.35 -22.4 -16.1 -22.75 -17.0 -23.2 -17.9 -23.7 -18.65 -24.3 -19.45 -24.9 -20.25 -25.75 -21.05 -26.6 -21.5 -27.25 -21.9 -27.9 -21.9 -28.2 -21.9 -28.5 -21.6 -29.1 -21.35 -29.7 -19.8 -32.5 -18.2 -35.3 -17.9 -35.85 -17.6 -36.4 -16.95 -37.6 -16.3 -38.8 -15.85 -39.7 -15.4 -40.55 -14.6 -42.3 -13.8 -44.1 -13.5 -44.75 -13.15 -45.4 -12.95 -45.8 -12.8 -46.15 -12.1 -47.55 -11.4 -48.9 -10.95 -49.7 -10.5 -50.45 -9.95 -51.25 -9.4 -52.05 -8.95 -52.5 -8.5 -52.95 -8.25 -53.05 -8.05 -53.2 -8.05 -53.6 -8.05 -53.95 -7.7 -55.35 -7.4 -56.7 -7.35 -56.7 -7.35 -56.75 -7.1 -56.9 -6.85 -57.1 -6.35 -57.1 -5.85 -57.1 -3.4 -56.9 -1.0 -56.7 1.35 -56.6 3.65 -56.55 8.15 -56.65 12.65 -56.8 16.8 -56.95 20.95 -57.1 23.45 -57.1 25.95 -57.1 26.3 -56.9 26.6 -56.7 26.85 -56.15 27.1 -55.65 27.3 -54.8 27.5 -53.95 27.6 -53.5 27.7 -53.05 29.1 -50.65 30.5 -48.25 31.2 -47.05 31.9 -45.85 33.2 -43.3 34.55 -40.8 35.45 -39.15 36.35 -37.5 37.05 -36.3 37.7 -35.05 38.25 -34.1 38.8 -33.1 39.4 -32.15 39.95 -31.2 40.45 -30.4 41.0 -29.55 41.0 -29.1 41.0 -28.7 40.55 -28.1 40.1 -27.55 39.55 -27.05 38.95 -26.55 37.8 -25.65 36.6 -24.75 36.0 -24.35 35.4 -23.9 34.25 -23.25 33.15 -22.6 32.6 -22.35 32.05 -22.15 32.05 -21.8 32.05 -21.45 31.9 -20.9 31.8 -20.3 31.6 -20.05 31.45 -19.75 30.8 -19.4 30.15 -19.0 29.1 -18.55 28.05 -18.1 26.95 -17.75 25.85 -17.45 24.75 -17.15 23.65 -16.9 22.1 -16.55 20.55 -16.25 19.65 -16.05 18.75 -15.9 18.0 -15.8 17.3 -15.65 15.45 -15.6 13.65 -15.55 13.45 -15.65 13.45 -15.65 M18.4 -17.8 L19.4 -17.95 20.3 -18.15 21.25 -18.3 22.95 -18.7 24.7 -19.1 25.85 -19.4 27.0 -19.7 27.85 -20.05 28.75 -20.35 29.35 -20.7 30.0 -21.05 30.15 -21.25 30.25 -21.4 30.15 -21.95 30.05 -22.55 30.0 -22.7 29.9 -22.9 30.15 -23.25 30.45 -23.6 30.65 -23.7 30.8 -23.85 31.45 -24.0 32.05 -24.15 33.05 -24.65 34.05 -25.2 34.95 -25.85 35.9 -26.45 37.45 -27.8 39.0 -29.15 39.15 -29.25 39.3 -29.4 38.9 -30.05 38.5 -30.65 37.4 -32.5 36.3 -34.3 36.15 -34.65 35.95 -35.0 35.5 -35.8 35.05 -36.6 34.95 -36.75 34.9 -36.95 33.95 -38.6 33.05 -40.25 32.05 -42.15 31.1 -44.05 30.35 -45.3 29.65 -46.6 28.0 -49.45 26.35 -52.35 26.05 -52.3 25.75 -52.3 24.15 -52.05 22.55 -51.85 20.4 -51.65 18.25 -51.5 15.7 -51.4 13.15 -51.25 8.2 -51.3 3.25 -51.35 0.75 -51.6 -1.75 -51.85 -3.1 -52.0 -4.45 -52.15 -5.55 -52.3 -6.65 -52.4 -7.0 -52.25 -7.35 -52.05 -7.75 -51.6 -8.2 -51.1 -8.6 -50.55 -9.0 -50.0 -9.25 -49.5 -9.55 -49.05 -10.6 -46.95 -11.65 -44.85 -12.0 -44.15 -12.35 -43.4 -13.1 -41.75 -13.85 -40.15 -14.35 -39.1 -14.9 -38.05 -15.2 -37.5 -15.5 -36.95 -16.55 -35.05 -17.6 -33.2 -18.75 -31.15 -19.85 -29.15 -20.0 -28.8 -20.15 -28.4 -19.85 -28.0 -19.55 -27.55 -18.85 -26.85 -18.2 -26.2 -17.65 -25.8 -17.15 -25.4 -16.15 -24.9 -15.2 -24.4 -14.25 -24.0 -13.3 -23.65 -12.85 -23.5 -12.45 -23.35 -12.35 -23.15 -12.25 -22.95 -12.4 -22.6 -12.55 -22.3 -12.75 -21.55 -12.95 -20.8 -12.9 -20.7 -12.85 -20.6 -12.3 -20.35 -11.8 -20.05 -9.45 -19.4 -7.15 -18.75 -5.7 -18.45 -4.25 -18.2 -3.0 -18.05 -1.75 -17.9 0.6 -17.8 3.0 -17.75 3.05 -18.15 3.1 -18.6 3.3 -18.95 3.5 -19.25 3.8 -19.45 4.1 -19.6 4.7 -19.75 5.25 -19.85 6.5 -19.9 7.75 -20.0 9.3 -19.85 10.85 -19.75 11.55 -19.55 12.25 -19.4 12.7 -19.2 13.15 -18.95 13.35 -18.75 13.55 -18.5 13.65 -18.2 13.75 -17.9 13.8 -17.7 13.9 -17.5 15.65 -17.55 17.4 -17.65 18.4 -17.8 M16.1 -52.7 L18.25 -52.8 20.5 -53.0 22.75 -53.15 24.15 -53.4 25.5 -53.6 25.65 -53.65 25.8 -53.7 25.8 -53.8 25.8 -53.85 25.6 -54.5 25.45 -55.2 24.2 -55.2 22.95 -55.25 19.0 -55.0 15.05 -54.75 6.75 -54.75 -1.55 -54.75 -2.6 -54.9 -3.65 -55.0 -4.85 -55.1 -6.0 -55.15 -6.15 -54.45 -6.3 -53.75 -6.05 -53.7 -5.85 -53.6 -5.05 -53.55 -4.25 -53.45 -3.15 -53.3 -2.05 -53.15 0.7 -52.95 3.45 -52.7 4.25 -52.7 5.1 -52.65 9.5 -52.6 13.9 -52.6 16.1 -52.7 16.1 -52.7" fill="#b0b0b0" fill-rule="evenodd" stroke="none"/>
    <path d="M13.3 -15.7 L12.9 -15.85 12.75 -16.0 12.6 -16.15 12.35 -16.7 12.15 -17.2 11.9 -17.4 11.7 -17.55 10.95 -17.7 10.15 -17.85 9.15 -17.95 8.15 -18.1 7.25 -18.1 6.3 -18.1 5.75 -17.95 5.15 -17.85 5.0 -17.7 4.85 -17.5 4.85 -17.05 4.85 -16.55 4.55 -16.3 4.25 -16.05 3.95 -15.95 3.6 -15.9 0.5 -15.95 -2.6 -16.0 -3.55 -16.15 -4.45 -16.3 -5.55 -16.55 -6.65 -16.75 -7.65 -17.0 -8.65 -17.25 -10.35 -17.7 -12.05 -18.2 -12.7 -18.5 -13.35 -18.75 -13.8 -19.05 -14.2 -19.3 -14.45 -19.75 -14.7 -20.2 -14.7 -20.8 -14.75 -21.45 -14.65 -21.75 -14.6 -22.1 -15.4 -22.45 -16.25 -22.85 -17.2 -23.4 -18.15 -23.9 -18.65 -24.3 -19.15 -24.65 -20.0 -25.5 -20.85 -26.4 -21.35 -27.1 -21.8 -27.75 -21.85 -28.05 -21.9 -28.3 -21.65 -28.95 -21.4 -29.55 -20.1 -31.9 -18.75 -34.25 -18.55 -34.7 -18.3 -35.1 -17.45 -36.6 -16.65 -38.1 -16.15 -39.05 -15.65 -39.95 -14.95 -41.45 -14.25 -43.0 -13.8 -44.05 -13.3 -45.05 -12.4 -46.9 -11.5 -48.7 -10.95 -49.6 -10.45 -50.55 -9.95 -51.25 -9.4 -52.0 -9.15 -52.3 -8.85 -52.55 -8.45 -52.9 -8.05 -53.25 -8.0 -53.7 -7.95 -54.2 -7.7 -55.2 -7.45 -56.2 -7.45 -56.35 -7.45 -56.5 -7.2 -56.8 -6.95 -57.05 -6.05 -57.05 -5.1 -57.05 -3.65 -56.9 -2.25 -56.75 -0.4 -56.65 1.4 -56.55 5.3 -56.6 9.2 -56.65 12.55 -56.8 15.95 -56.9 16.7 -56.95 17.5 -57.0 21.65 -57.05 25.85 -57.15 26.25 -56.9 26.65 -56.65 26.85 -56.25 27.05 -55.85 27.25 -54.9 27.5 -53.95 27.5 -53.7 27.5 -53.45 27.65 -53.25 27.75 -53.0 29.25 -50.35 30.8 -47.75 31.4 -46.7 31.95 -45.6 33.6 -42.55 35.25 -39.45 36.3 -37.55 37.35 -35.6 38.65 -33.4 39.95 -31.2 40.45 -30.35 41.0 -29.5 41.0 -29.15 41.0 -28.8 40.7 -28.4 40.45 -27.95 39.85 -27.4 39.3 -26.8 37.75 -25.65 36.2 -24.5 35.45 -23.95 34.65 -23.45 33.55 -22.85 32.45 -22.3 32.25 -22.25 32.05 -22.2 32.0 -21.55 31.95 -20.95 31.8 -20.55 31.65 -20.15 31.45 -19.85 31.25 -19.6 30.55 -19.25 29.9 -18.9 28.95 -18.5 28.0 -18.1 26.45 -17.65 24.9 -17.2 22.7 -16.7 20.55 -16.25 19.15 -16.0 17.75 -15.75 16.35 -15.65 15.0 -15.55 14.35 -15.55 13.75 -15.6 13.3 -15.7 13.3 -15.7 M17.75 -17.7 L19.0 -17.9 20.15 -18.1 21.3 -18.3 23.3 -18.75 25.25 -19.2 26.35 -19.55 27.5 -19.85 28.05 -20.1 28.65 -20.3 29.45 -20.75 30.25 -21.2 30.2 -21.7 30.15 -22.2 30.05 -22.65 30.0 -23.1 30.4 -23.45 30.8 -23.8 31.35 -23.95 31.95 -24.05 33.25 -24.8 34.6 -25.55 35.4 -26.1 36.2 -26.7 37.75 -28.0 39.25 -29.3 39.25 -29.4 39.25 -29.5 38.7 -30.35 38.15 -31.2 36.85 -33.5 35.55 -35.75 35.3 -36.15 35.1 -36.6 34.65 -37.35 34.2 -38.15 32.2 -41.95 30.2 -45.75 28.25 -49.05 26.3 -52.4 25.9 -52.35 25.45 -52.3 23.95 -52.05 22.45 -51.85 20.15 -51.65 17.85 -51.5 15.45 -51.4 13.05 -51.3 10.1 -51.3 7.2 -51.3 4.65 -51.4 2.1 -51.5 -0.25 -51.75 -2.6 -51.95 -3.4 -52.05 -4.15 -52.15 -5.45 -52.3 -6.75 -52.4 -7.2 -52.1 -7.65 -51.85 -8.2 -51.15 -8.75 -50.45 -9.2 -49.7 -9.65 -48.9 -10.8 -46.6 -12.0 -44.3 -12.75 -42.55 -13.55 -40.8 -14.1 -39.7 -14.6 -38.6 -17.3 -33.8 -19.95 -29.0 -20.05 -28.75 -20.15 -28.5 -20.1 -28.3 -20.05 -28.1 -19.25 -27.25 -18.5 -26.4 -17.8 -25.9 -17.15 -25.45 -16.2 -24.9 -15.2 -24.35 -14.0 -23.9 -12.8 -23.45 -12.6 -23.35 -12.35 -23.2 -12.35 -22.95 -12.35 -22.65 -12.45 -22.55 -12.55 -22.45 -12.75 -21.6 -12.95 -20.8 -12.8 -20.6 -12.65 -20.4 -12.05 -20.2 -11.45 -19.95 -9.8 -19.45 -8.1 -19.0 -6.3 -18.6 -4.55 -18.2 -3.25 -18.05 -1.95 -17.85 0.5 -17.8 3.0 -17.75 3.1 -18.25 3.2 -18.75 3.45 -19.05 3.7 -19.4 3.95 -19.5 4.2 -19.6 4.8 -19.75 5.35 -19.85 6.5 -19.9 7.6 -20.0 9.15 -19.85 10.75 -19.7 11.45 -19.55 12.2 -19.4 12.75 -19.1 13.3 -18.85 13.4 -18.65 13.55 -18.45 13.7 -18.05 13.8 -17.6 13.9 -17.5 14.0 -17.4 15.25 -17.5 16.5 -17.55 17.75 -17.7 17.75 -17.7 M19.95 -52.9 L22.75 -53.15 24.2 -53.35 25.65 -53.6 25.75 -53.7 25.85 -53.8 25.7 -54.25 25.6 -54.75 25.5 -55.0 25.4 -55.25 23.75 -55.25 22.1 -55.25 18.6 -55.0 15.05 -54.8 9.25 -54.7 3.45 -54.65 0.45 -54.8 -2.5 -54.9 -3.7 -55.0 -4.9 -55.15 -5.45 -55.15 -5.95 -55.2 -6.15 -54.45 -6.3 -53.75 -6.2 -53.7 -6.1 -53.6 -5.3 -53.55 -4.55 -53.45 -3.35 -53.3 -2.15 -53.15 0.45 -52.95 3.05 -52.7 3.85 -52.65 4.6 -52.65 10.85 -52.65 17.1 -52.7 19.95 -52.9" fill="#8f8f8f" fill-rule="evenodd" stroke="none"/>
    <path d="M13.35 -15.7 L12.9 -15.85 12.75 -16.05 12.55 -16.2 12.35 -16.75 12.1 -17.3 11.75 -17.45 11.4 -17.65 10.85 -17.75 10.25 -17.85 9.05 -18.0 7.85 -18.1 6.7 -18.05 5.55 -18.0 5.2 -17.8 4.85 -17.6 4.85 -17.15 4.85 -16.65 4.6 -16.4 4.4 -16.1 3.5 -16.0 2.6 -15.85 0.05 -15.95 -2.5 -16.0 -3.45 -16.15 -4.35 -16.3 -5.45 -16.55 -6.6 -16.75 -7.6 -17.0 -8.6 -17.2 -10.4 -17.75 -12.25 -18.3 -12.75 -18.55 -13.3 -18.75 -13.75 -19.05 -14.2 -19.35 -14.45 -19.85 -14.7 -20.3 -14.7 -20.8 -14.75 -21.35 -14.65 -21.75 -14.55 -22.15 -15.5 -22.55 -16.45 -22.95 -17.45 -23.55 -18.5 -24.15 -19.1 -24.7 -19.75 -25.2 -20.6 -26.2 -21.5 -27.2 -21.7 -27.7 -21.9 -28.15 -21.8 -28.5 -21.7 -28.9 -21.25 -29.7 -20.85 -30.55 -19.95 -32.1 -19.1 -33.65 -17.55 -36.4 -16.05 -39.15 -15.65 -40.0 -15.2 -40.9 -14.25 -42.95 -13.35 -44.95 -12.9 -45.9 -12.4 -46.85 -11.7 -48.2 -11.0 -49.6 -10.4 -50.5 -9.85 -51.4 -9.3 -52.0 -8.8 -52.6 -8.35 -52.95 -7.95 -53.3 -8.0 -53.45 -8.05 -53.65 -7.85 -54.45 -7.7 -55.3 -7.55 -55.95 -7.4 -56.6 -7.15 -56.8 -6.95 -57.0 -6.7 -57.05 -6.5 -57.15 -4.5 -56.95 -2.5 -56.75 -0.95 -56.65 0.65 -56.55 3.45 -56.55 6.25 -56.55 10.0 -56.7 13.75 -56.8 17.3 -56.95 20.85 -57.05 23.45 -57.05 26.05 -57.05 26.4 -56.75 26.75 -56.45 26.9 -56.05 27.05 -55.6 27.3 -54.75 27.5 -53.85 27.5 -53.6 27.5 -53.35 29.45 -50.05 31.35 -46.7 32.3 -44.95 33.25 -43.2 34.15 -41.5 35.05 -39.8 36.25 -37.6 37.45 -35.4 38.6 -33.5 39.7 -31.55 40.35 -30.5 41.0 -29.45 41.0 -29.1 41.0 -28.75 40.65 -28.3 40.3 -27.8 39.8 -27.35 39.3 -26.85 37.9 -25.8 36.5 -24.7 35.55 -24.1 34.6 -23.45 33.85 -23.05 33.15 -22.65 32.65 -22.45 32.1 -22.2 31.95 -21.3 31.8 -20.45 31.55 -20.05 31.25 -19.65 30.6 -19.3 30.0 -18.95 28.9 -18.5 27.85 -18.1 26.55 -17.7 25.25 -17.35 23.65 -16.95 22.0 -16.55 20.6 -16.3 19.2 -16.0 18.05 -15.85 16.9 -15.7 15.35 -15.6 13.8 -15.55 13.35 -15.7 13.35 -15.7 M17.85 -17.7 L19.1 -17.85 20.5 -18.15 21.95 -18.4 23.4 -18.75 24.9 -19.1 26.25 -19.5 27.55 -19.85 28.25 -20.15 28.9 -20.4 29.55 -20.8 30.2 -21.15 30.25 -21.3 30.3 -21.45 30.15 -22.2 30.0 -22.95 30.35 -23.35 30.7 -23.8 31.3 -23.9 31.85 -24.0 32.7 -24.45 33.6 -24.9 34.45 -25.45 35.35 -26.0 35.7 -26.3 36.1 -26.55 37.65 -27.9 39.15 -29.2 39.2 -29.35 39.25 -29.5 38.6 -30.55 38.0 -31.55 36.8 -33.6 35.65 -35.6 34.5 -37.65 33.4 -39.7 32.55 -41.3 31.75 -42.85 31.55 -43.15 31.4 -43.4 31.3 -43.6 31.25 -43.8 31.05 -44.15 30.85 -44.5 29.95 -46.1 29.1 -47.7 27.75 -49.95 26.45 -52.2 26.35 -52.35 26.25 -52.45 25.8 -52.35 25.4 -52.25 23.8 -52.05 22.2 -51.85 20.65 -51.75 19.1 -51.6 17.0 -51.5 14.9 -51.35 9.9 -51.35 4.9 -51.35 2.95 -51.5 1.05 -51.6 -1.05 -51.85 -3.1 -52.05 -4.9 -52.25 -6.65 -52.4 -6.9 -52.35 -7.2 -52.25 -7.8 -51.6 -8.4 -51.0 -8.95 -50.1 -9.5 -49.2 -10.45 -47.3 -11.45 -45.4 -11.9 -44.45 -12.35 -43.55 -13.25 -41.55 -14.15 -39.6 -14.75 -38.5 -15.3 -37.4 -15.7 -36.7 -16.1 -36.0 -16.5 -35.2 -16.95 -34.4 -18.4 -31.85 -19.85 -29.25 -20.0 -28.9 -20.15 -28.5 -20.1 -28.3 -20.05 -28.1 -19.25 -27.2 -18.4 -26.35 -18.0 -26.0 -17.6 -25.7 -16.65 -25.15 -15.7 -24.6 -15.1 -24.3 -14.5 -24.05 -13.55 -23.7 -12.6 -23.35 -12.45 -23.2 -12.35 -23.0 -12.45 -22.65 -12.6 -22.3 -12.8 -21.6 -13.0 -20.85 -12.9 -20.7 -12.85 -20.55 -12.3 -20.3 -11.75 -20.05 -9.9 -19.5 -8.1 -19.0 -7.4 -18.8 -6.75 -18.65 -5.35 -18.4 -3.95 -18.1 -2.9 -17.95 -1.85 -17.85 0.6 -17.8 3.05 -17.8 3.1 -18.2 3.15 -18.6 3.35 -18.9 3.5 -19.2 3.7 -19.35 3.95 -19.55 4.7 -19.7 5.45 -19.85 6.4 -19.9 7.4 -20.0 8.9 -19.85 10.45 -19.75 11.3 -19.55 12.15 -19.4 12.65 -19.15 13.1 -18.95 13.4 -18.55 13.7 -18.2 13.7 -18.1 13.7 -18.0 13.8 -17.7 13.9 -17.4 15.25 -17.45 16.6 -17.55 17.85 -17.7 17.85 -17.7 M14.5 -52.6 L17.2 -52.7 19.65 -52.9 22.1 -53.05 22.9 -53.15 23.75 -53.25 24.75 -53.45 25.8 -53.6 25.8 -53.8 25.8 -53.95 25.6 -54.6 25.45 -55.25 23.4 -55.25 21.3 -55.25 20.9 -55.2 20.45 -55.15 17.3 -54.95 14.1 -54.75 6.6 -54.75 -0.9 -54.75 -3.4 -55.0 -5.9 -55.25 -5.95 -55.15 -6.05 -55.05 -6.2 -54.45 -6.3 -53.8 -6.25 -53.7 -6.2 -53.6 -5.5 -53.55 -4.85 -53.45 -3.05 -53.25 -1.25 -53.05 0.8 -52.85 2.85 -52.7 5.15 -52.6 7.5 -52.5 9.65 -52.5 11.8 -52.5 14.5 -52.6 14.5 -52.6" fill="#6f6f6f" fill-rule="evenodd" stroke="none"/>
    <path d="M13.25 -15.75 L13.05 -15.8 12.85 -15.95 12.65 -16.1 12.4 -16.75 12.1 -17.35 11.6 -17.55 11.1 -17.75 9.65 -17.95 8.15 -18.1 6.8 -18.05 5.45 -18.0 5.15 -17.85 4.9 -17.7 4.8 -17.15 4.75 -16.55 4.7 -16.45 4.65 -16.35 4.35 -16.15 4.0 -15.95 1.0 -15.95 -2.05 -15.95 -2.95 -16.1 -3.85 -16.25 -4.9 -16.45 -6.0 -16.65 -6.6 -16.8 -7.25 -16.9 -9.6 -17.55 -11.95 -18.2 -12.5 -18.45 -13.1 -18.65 -13.55 -18.9 -14.0 -19.15 -14.3 -19.55 -14.6 -19.95 -14.7 -20.4 -14.8 -20.85 -14.7 -21.45 -14.55 -22.05 -14.6 -22.1 -14.65 -22.15 -15.75 -22.65 -16.85 -23.15 -17.55 -23.6 -18.25 -24.05 -18.8 -24.45 -19.35 -24.85 -20.3 -25.9 -21.25 -26.95 -21.55 -27.4 -21.8 -27.9 -21.75 -28.35 -21.7 -28.8 -21.4 -29.4 -21.1 -30.0 -20.55 -31.0 -20.0 -32.0 -19.45 -32.95 -18.95 -33.85 -17.3 -36.85 -15.65 -39.8 -14.65 -42.1 -13.6 -44.4 -12.5 -46.6 -11.4 -48.8 -10.75 -49.9 -10.15 -50.95 -9.55 -51.7 -8.95 -52.4 -8.5 -52.8 -8.0 -53.25 -8.0 -53.6 -7.95 -54.0 -7.65 -55.3 -7.35 -56.65 -7.1 -56.85 -6.85 -57.05 -6.15 -57.05 -5.4 -57.0 -3.6 -56.85 -1.75 -56.65 2.1 -56.6 6.0 -56.55 10.1 -56.65 14.2 -56.8 17.1 -56.9 20.0 -57.0 22.95 -57.05 25.95 -57.05 26.25 -56.85 26.6 -56.6 26.8 -56.25 26.95 -55.9 27.25 -54.8 27.5 -53.75 27.5 -53.5 27.5 -53.3 29.1 -50.55 30.7 -47.8 31.8 -45.85 32.9 -43.85 34.0 -41.75 35.1 -39.65 36.4 -37.25 37.75 -34.85 38.85 -33.0 39.95 -31.1 40.45 -30.25 41.0 -29.4 41.0 -29.2 41.0 -28.95 40.85 -28.65 40.7 -28.35 40.15 -27.75 39.6 -27.15 39.25 -26.85 38.9 -26.6 37.95 -25.85 37.0 -25.1 36.15 -24.5 35.3 -23.9 34.05 -23.2 32.85 -22.5 32.45 -22.35 32.05 -22.25 32.0 -22.0 31.95 -21.75 31.9 -21.25 31.85 -20.7 31.65 -20.25 31.4 -19.8 30.85 -19.45 30.25 -19.05 29.2 -18.6 28.15 -18.2 26.65 -17.75 25.15 -17.3 23.55 -16.95 21.9 -16.55 20.5 -16.3 19.05 -16.0 17.85 -15.85 16.6 -15.65 15.05 -15.7 13.45 -15.7 13.25 -15.75 M18.3 -17.75 L19.8 -17.95 20.95 -18.2 22.1 -18.45 23.75 -18.8 25.35 -19.2 26.75 -19.65 28.2 -20.05 29.0 -20.45 29.8 -20.85 30.05 -21.1 30.35 -21.35 30.15 -22.15 30.0 -22.95 30.35 -23.35 30.65 -23.7 31.35 -23.85 32.0 -24.0 33.45 -24.85 34.9 -25.65 35.9 -26.45 36.9 -27.2 38.05 -28.25 39.2 -29.25 39.25 -29.4 39.25 -29.55 38.4 -30.9 37.55 -32.25 36.6 -34.0 35.6 -35.75 34.95 -36.95 34.25 -38.15 33.5 -39.6 32.75 -41.0 31.7 -43.0 30.65 -44.95 30.05 -46.05 29.45 -47.1 27.9 -49.75 26.35 -52.45 26.3 -52.45 26.3 -52.5 25.8 -52.4 25.25 -52.25 23.6 -52.05 21.9 -51.85 20.4 -51.75 18.9 -51.6 16.75 -51.5 14.6 -51.35 10.0 -51.35 5.35 -51.35 3.3 -51.5 1.25 -51.6 -2.45 -52.0 -6.15 -52.4 -6.4 -52.45 -6.6 -52.5 -7.0 -52.3 -7.4 -52.1 -8.1 -51.25 -8.8 -50.45 -9.35 -49.45 -9.9 -48.5 -10.95 -46.4 -12.0 -44.3 -12.85 -42.5 -13.65 -40.7 -13.9 -40.15 -14.15 -39.6 -14.6 -38.75 -15.05 -37.95 -16.1 -36.0 -17.15 -34.1 -17.95 -32.65 -18.75 -31.2 -19.25 -30.35 -19.75 -29.45 -19.95 -29.05 -20.15 -28.65 -20.15 -28.45 -20.15 -28.25 -19.25 -27.25 -18.4 -26.25 -17.65 -25.75 -16.9 -25.25 -15.85 -24.7 -14.85 -24.15 -13.7 -23.75 -12.6 -23.35 -12.45 -23.2 -12.35 -23.0 -12.45 -22.65 -12.6 -22.3 -12.75 -21.65 -12.95 -21.0 -12.95 -20.8 -12.95 -20.6 -12.45 -20.35 -11.9 -20.05 -10.0 -19.5 -8.1 -18.95 -7.45 -18.8 -6.85 -18.65 -5.7 -18.4 -4.55 -18.2 -3.5 -18.0 -2.4 -17.85 0.35 -17.8 3.1 -17.75 3.1 -18.0 3.1 -18.3 3.25 -18.7 3.4 -19.05 3.7 -19.3 4.0 -19.5 4.5 -19.65 5.0 -19.75 6.2 -19.85 7.4 -19.95 8.85 -19.85 10.35 -19.75 11.25 -19.55 12.1 -19.4 12.6 -19.1 13.15 -18.85 13.35 -18.6 13.6 -18.4 13.6 -18.3 13.6 -18.2 13.75 -17.8 13.85 -17.4 15.35 -17.45 16.8 -17.55 18.3 -17.75 18.3 -17.75 M15.1 -52.6 L17.65 -52.7 20.0 -52.9 22.3 -53.05 23.85 -53.25 25.45 -53.5 25.65 -53.6 25.9 -53.7 25.7 -54.4 25.5 -55.1 25.45 -55.25 25.4 -55.4 23.45 -55.3 21.5 -55.25 17.65 -55.0 13.8 -54.8 11.8 -54.75 9.8 -54.7 3.85 -54.8 -2.05 -54.9 -4.0 -55.05 -5.95 -55.25 -6.0 -55.2 -6.0 -55.15 -6.2 -54.45 -6.35 -53.7 -6.3 -53.65 -6.25 -53.6 -3.3 -53.25 -0.3 -52.95 1.15 -52.8 2.6 -52.7 4.6 -52.6 6.6 -52.5 9.6 -52.5 12.55 -52.5 15.1 -52.6" fill="#4f4f4f" fill-rule="evenodd" stroke="none"/>
    <path d="M13.15 -15.85 L12.75 -16.0 12.75 -16.0 12.7 -16.0 12.45 -16.65 12.15 -17.3 11.85 -17.5 11.55 -17.65 10.65 -17.85 9.7 -18.0 7.9 -18.05 6.1 -18.1 5.65 -18.05 5.2 -17.95 4.95 -17.7 4.75 -17.45 4.75 -17.0 4.75 -16.55 4.55 -16.35 4.35 -16.1 4.05 -16.05 3.7 -16.0 0.35 -16.05 -3.0 -16.1 -4.5 -16.35 -6.0 -16.65 -7.2 -16.95 -8.4 -17.2 -10.25 -17.75 -12.15 -18.3 -12.95 -18.65 -13.75 -19.0 -14.15 -19.45 -14.55 -19.95 -14.65 -20.35 -14.7 -20.75 -14.65 -21.25 -14.6 -21.75 -14.55 -21.95 -14.5 -22.1 -14.75 -22.25 -15.0 -22.35 -15.7 -22.65 -16.35 -22.95 -17.35 -23.55 -18.4 -24.1 -19.0 -24.6 -19.6 -25.15 -20.4 -26.0 -21.2 -26.9 -21.5 -27.4 -21.8 -27.9 -21.8 -28.2 -21.8 -28.55 -21.55 -29.1 -21.3 -29.65 -20.6 -30.85 -19.9 -32.1 -19.4 -33.05 -18.85 -33.95 -17.5 -36.4 -16.2 -38.8 -15.75 -39.7 -15.3 -40.55 -14.7 -41.95 -14.1 -43.3 -13.5 -44.5 -12.9 -45.75 -12.05 -47.45 -11.2 -49.15 -10.6 -50.1 -10.05 -51.05 -9.5 -51.75 -8.95 -52.45 -8.45 -52.85 -7.95 -53.2 -7.95 -53.6 -7.95 -54.0 -7.75 -54.8 -7.55 -55.6 -7.4 -56.2 -7.3 -56.75 -7.0 -56.9 -6.7 -57.05 -5.45 -56.95 -4.25 -56.9 -2.4 -56.75 -0.6 -56.55 3.8 -56.55 8.15 -56.55 11.3 -56.65 14.5 -56.75 17.5 -56.9 20.45 -57.0 23.1 -57.05 25.75 -57.05 26.15 -56.85 26.55 -56.65 26.85 -55.95 27.15 -55.3 27.4 -54.2 27.65 -53.1 28.05 -52.4 28.45 -51.65 29.6 -49.7 30.75 -47.7 31.85 -45.7 33.0 -43.65 34.35 -41.05 35.75 -38.5 36.55 -37.0 37.35 -35.5 38.65 -33.3 39.95 -31.1 40.4 -30.35 40.85 -29.6 40.95 -29.35 41.0 -29.05 40.85 -28.7 40.65 -28.3 40.1 -27.7 39.5 -27.05 38.05 -25.95 36.6 -24.8 35.45 -24.05 34.3 -23.3 33.35 -22.85 32.4 -22.35 32.15 -22.25 31.95 -22.15 31.95 -21.75 31.95 -21.3 31.8 -20.75 31.65 -20.25 31.35 -19.9 31.05 -19.55 30.45 -19.25 29.9 -18.95 28.85 -18.5 27.8 -18.1 26.25 -17.65 24.7 -17.2 23.95 -17.05 23.25 -16.9 21.95 -16.6 20.65 -16.3 19.0 -16.05 17.4 -15.75 15.45 -15.7 13.55 -15.65 13.15 -15.85 M18.45 -17.75 L19.9 -17.95 21.05 -18.2 22.2 -18.45 23.4 -18.7 24.6 -19.0 26.15 -19.45 27.65 -19.85 28.35 -20.15 29.0 -20.4 29.55 -20.75 30.1 -21.05 30.2 -21.2 30.35 -21.4 30.2 -22.15 30.05 -22.85 30.15 -23.05 30.2 -23.25 30.55 -23.5 30.85 -23.75 31.4 -23.9 32.0 -24.0 33.3 -24.75 34.6 -25.45 35.3 -26.0 36.05 -26.5 37.3 -27.6 38.6 -28.65 38.95 -29.0 39.25 -29.3 39.25 -29.45 39.25 -29.6 38.7 -30.45 38.15 -31.35 37.15 -33.1 36.1 -34.85 35.7 -35.6 35.25 -36.4 34.4 -38.0 33.5 -39.6 33.05 -40.45 32.6 -41.35 32.4 -41.7 32.15 -42.1 31.0 -44.25 29.9 -46.4 28.15 -49.35 26.45 -52.35 26.35 -52.4 26.3 -52.5 25.75 -52.4 25.15 -52.25 23.85 -52.1 22.55 -51.95 21.35 -51.85 20.15 -51.7 17.2 -51.55 14.2 -51.4 10.0 -51.4 5.75 -51.4 3.65 -51.5 1.5 -51.6 -1.15 -51.9 -3.85 -52.15 -5.3 -52.35 -6.7 -52.5 -7.05 -52.3 -7.4 -52.15 -8.0 -51.45 -8.6 -50.75 -9.15 -49.8 -9.75 -48.8 -10.75 -46.85 -11.75 -44.85 -12.25 -43.8 -12.75 -42.75 -13.45 -41.1 -14.2 -39.5 -15.55 -37.0 -16.95 -34.5 -17.4 -33.65 -17.9 -32.75 -19.05 -30.75 -20.15 -28.75 -20.15 -28.45 -20.15 -28.2 -19.4 -27.35 -18.65 -26.5 -18.0 -25.95 -17.3 -25.45 -16.2 -24.85 -15.1 -24.25 -14.0 -23.85 -12.9 -23.45 -12.65 -23.3 -12.35 -23.15 -12.35 -23.0 -12.35 -22.85 -12.55 -22.4 -12.75 -22.0 -12.85 -21.4 -13.0 -20.8 -12.9 -20.65 -12.8 -20.45 -12.25 -20.2 -11.7 -19.95 -9.55 -19.35 -7.4 -18.75 -6.1 -18.5 -4.8 -18.2 -3.6 -18.0 -2.4 -17.85 0.35 -17.8 3.1 -17.75 3.1 -18.0 3.1 -18.25 3.3 -18.7 3.5 -19.15 3.75 -19.3 4.0 -19.5 4.9 -19.65 5.75 -19.85 7.3 -19.85 8.8 -19.85 9.95 -19.75 11.05 -19.6 11.8 -19.4 12.55 -19.2 12.95 -18.95 13.35 -18.7 13.6 -18.05 13.9 -17.4 15.45 -17.45 17.0 -17.55 18.45 -17.75 M15.6 -52.6 L17.95 -52.7 20.2 -52.9 22.5 -53.05 23.9 -53.25 25.35 -53.5 25.65 -53.55 25.9 -53.6 25.85 -53.9 25.75 -54.2 25.65 -54.75 25.5 -55.35 24.35 -55.35 23.15 -55.35 19.25 -55.1 15.35 -54.85 6.9 -54.85 -1.55 -54.85 -3.45 -55.05 -5.3 -55.25 -5.65 -55.25 -6.0 -55.25 -6.15 -54.65 -6.3 -54.1 -6.3 -53.85 -6.3 -53.6 -5.85 -53.55 -5.4 -53.5 -3.0 -53.2 -0.6 -52.95 0.9 -52.8 2.4 -52.7 4.05 -52.6 5.75 -52.5 9.5 -52.5 13.25 -52.5 15.6 -52.6" fill="#2d2d2d" fill-rule="evenodd" stroke="none"/>
    <path d="M13.3 -15.8 L12.95 -15.9 12.75 -16.1 12.6 -16.3 12.4 -16.8 12.2 -17.25 11.95 -17.45 11.7 -17.65 10.85 -17.8 10.0 -18.0 8.45 -18.1 6.9 -18.25 6.1 -18.1 5.3 -18.0 5.05 -17.8 4.8 -17.55 4.75 -17.05 4.7 -16.55 4.55 -16.4 4.4 -16.2 4.0 -16.1 3.65 -16.0 1.1 -16.0 -1.45 -16.0 -2.4 -16.1 -3.35 -16.2 -4.55 -16.45 -5.8 -16.65 -7.05 -16.95 -8.3 -17.2 -10.3 -17.8 -12.35 -18.4 -12.85 -18.65 -13.4 -18.85 -13.85 -19.15 -14.25 -19.5 -14.5 -20.0 -14.7 -20.55 -14.65 -21.1 -14.6 -21.65 -14.55 -21.9 -14.55 -22.15 -15.75 -22.7 -16.9 -23.25 -17.65 -23.7 -18.4 -24.15 -18.9 -24.6 -19.45 -25.05 -20.15 -25.8 -20.9 -26.55 -21.3 -27.15 -21.7 -27.7 -21.75 -28.05 -21.8 -28.4 -21.5 -29.05 -21.2 -29.7 -20.8 -30.4 -20.4 -31.15 -19.55 -32.65 -18.7 -34.2 -18.05 -35.4 -17.35 -36.6 -16.45 -38.25 -15.55 -39.9 -14.6 -42.1 -13.6 -44.3 -12.55 -46.4 -11.5 -48.5 -11.4 -48.7 -11.25 -48.95 -10.65 -50.05 -10.0 -51.1 -9.35 -51.85 -8.7 -52.6 -8.3 -52.9 -7.95 -53.15 -7.95 -53.45 -7.95 -53.75 -7.6 -55.2 -7.3 -56.6 -7.1 -56.75 -6.95 -56.9 -6.7 -56.95 -6.45 -57.05 -3.55 -56.8 -0.6 -56.55 1.45 -56.5 3.55 -56.45 8.05 -56.55 12.55 -56.65 16.75 -56.85 20.95 -57.0 23.35 -57.0 25.8 -57.0 26.1 -56.85 26.45 -56.7 26.65 -56.4 26.85 -56.1 27.15 -55.05 27.45 -54.0 27.45 -53.7 27.45 -53.45 27.55 -53.25 27.65 -53.0 29.5 -49.75 31.4 -46.5 31.6 -46.1 31.85 -45.75 32.25 -44.9 32.7 -44.1 34.25 -41.1 35.85 -38.15 36.55 -36.9 37.25 -35.6 38.55 -33.4 39.85 -31.2 40.35 -30.35 40.9 -29.5 40.9 -29.15 40.9 -28.8 40.65 -28.4 40.4 -28.0 39.85 -27.45 39.35 -26.95 37.6 -25.6 35.8 -24.25 34.25 -23.4 32.7 -22.5 32.35 -22.4 31.95 -22.25 31.9 -21.6 31.85 -20.9 31.7 -20.5 31.6 -20.1 31.35 -19.9 31.15 -19.65 30.75 -19.4 30.35 -19.2 29.6 -18.85 28.8 -18.5 28.25 -18.3 27.65 -18.1 26.3 -17.7 24.95 -17.35 23.05 -16.9 21.15 -16.45 19.9 -16.25 18.65 -16.0 17.8 -15.9 17.0 -15.75 15.3 -15.7 13.65 -15.7 13.3 -15.8 M18.2 -17.7 L20.05 -17.95 21.7 -18.3 23.35 -18.65 24.9 -19.05 26.4 -19.45 27.5 -19.8 28.55 -20.15 29.25 -20.55 30.0 -20.9 30.15 -21.15 30.35 -21.4 30.2 -22.15 30.1 -22.95 30.4 -23.3 30.7 -23.7 31.4 -23.85 32.05 -24.0 33.25 -24.65 34.4 -25.3 35.3 -25.95 36.2 -26.55 37.75 -27.9 39.25 -29.2 39.3 -29.3 39.35 -29.4 38.8 -30.3 38.3 -31.2 37.9 -31.9 37.45 -32.55 36.5 -34.25 35.5 -36.0 35.05 -36.85 34.55 -37.7 33.75 -39.2 33.0 -40.7 31.4 -43.65 29.8 -46.6 28.25 -49.3 26.7 -52.0 26.45 -52.3 26.25 -52.6 25.6 -52.45 25.0 -52.25 22.5 -52.0 20.0 -51.75 17.55 -51.6 15.05 -51.45 9.85 -51.45 4.6 -51.45 2.7 -51.6 0.85 -51.7 -1.35 -51.95 -3.6 -52.15 -4.95 -52.35 -6.35 -52.55 -6.6 -52.5 -6.8 -52.5 -7.15 -52.3 -7.55 -52.05 -8.2 -51.25 -8.8 -50.5 -9.45 -49.35 -10.1 -48.25 -11.0 -46.45 -11.9 -44.65 -12.85 -42.6 -13.75 -40.55 -14.35 -39.4 -14.9 -38.25 -15.6 -37.0 -16.25 -35.8 -17.8 -33.05 -19.35 -30.35 -19.8 -29.45 -20.25 -28.6 -20.25 -28.45 -20.25 -28.3 -19.65 -27.6 -19.05 -26.85 -18.3 -26.2 -17.55 -25.6 -16.5 -24.95 -15.4 -24.35 -14.1 -23.85 -12.8 -23.35 -12.6 -23.2 -12.4 -23.05 -12.7 -22.0 -13.05 -20.9 -13.0 -20.75 -12.95 -20.55 -12.7 -20.4 -12.4 -20.25 -11.9 -20.05 -11.35 -19.85 -9.7 -19.35 -8.0 -18.85 -6.75 -18.6 -5.5 -18.3 -4.15 -18.1 -2.8 -17.85 -0.8 -17.75 1.25 -17.65 2.15 -17.65 3.05 -17.7 3.15 -18.15 3.25 -18.6 3.4 -18.9 3.6 -19.2 3.85 -19.35 4.15 -19.5 5.1 -19.7 6.05 -19.85 7.15 -19.85 8.3 -19.85 9.5 -19.75 10.75 -19.6 11.5 -19.45 12.2 -19.3 12.65 -19.1 13.05 -18.85 13.25 -18.65 13.45 -18.45 13.65 -17.95 13.8 -17.45 15.1 -17.45 16.35 -17.45 18.2 -17.7 18.2 -17.7 M14.1 -52.5 L16.5 -52.6 19.2 -52.75 21.9 -52.95 23.8 -53.2 25.75 -53.5 25.85 -53.6 25.9 -53.7 25.8 -54.15 25.7 -54.65 25.6 -54.95 25.55 -55.3 24.2 -55.35 22.85 -55.35 19.95 -55.2 17.0 -55.0 14.2 -54.9 11.35 -54.75 4.95 -54.85 -1.45 -54.9 -3.65 -55.1 -5.9 -55.35 -6.0 -55.2 -6.1 -55.05 -6.25 -54.35 -6.45 -53.65 -6.3 -53.6 -6.2 -53.5 -5.4 -53.45 -4.65 -53.35 -3.35 -53.2 -2.05 -53.05 0.55 -52.8 3.2 -52.6 5.45 -52.5 7.75 -52.4 9.75 -52.4 11.7 -52.4 14.1 -52.5" fill="#010101" fill-rule="evenodd" stroke="none"/>
    <path d="M-13.1 -23.25 Q-13.1 -23.25 -13.05 -23.25 -12.85 -23.15 -12.95 -23.2 -12.85 -23.15 -12.75 -23.15 -12.6 -23.1 -12.45 -23.05 -12.3 -23.0 -12.15 -23.0 -11.95 -22.95 -11.75 -22.9 -11.5 -22.9 -11.3 -22.85 -11.05 -22.85 -10.75 -22.85 -10.55 -22.85 -10.4 -22.9 -10.25 -22.95 -10.1 -23.1 -9.95 -23.25 -9.85 -23.5 -9.7 -23.75 -9.55 -24.15 -9.45 -24.55 -9.3 -25.1 -9.15 -25.65 -8.95 -26.4 -8.8 -27.15 -8.6 -28.15 -8.4 -29.0 -8.1 -30.3 -6.9 -36.2 -6.35 -38.55 -4.9 -44.45 -2.35 -52.5" fill="none" stroke="#000000" stroke-linecap="butt" stroke-linejoin="miter-clip" stroke-miterlimit="4.0" stroke-opacity="0.7254902" stroke-width="1.0"/>
    <path d="M4.95 -52.05 Q4.05 -48.05 2.5 -41.2 1.2 -35.35 0.65 -32.95 -0.15 -29.15 -0.6 -26.9 -1.05 -24.35 -1.2 -22.8 -1.3 -21.2 -1.1 -20.3 -0.9 -19.4 -0.35 -19.0 0.15 -18.65 1.1 -18.65 1.85 -18.65 3.35 -18.9" fill="none" stroke="#000000" stroke-linecap="butt" stroke-linejoin="miter-clip" stroke-miterlimit="4.0" stroke-opacity="0.7254902" stroke-width="1.0"/>
    <path d="M12.85 -18.6 Q12.6 -18.6 15.0 -18.6 16.1 -18.55 16.65 -18.75 17.4 -18.95 17.85 -19.6 18.3 -20.3 18.45 -21.65 18.6 -23.05 18.45 -25.4 18.3 -27.75 17.85 -31.35 17.4 -34.85 16.55 -40.05 15.8 -44.8 14.55 -51.9" fill="none" stroke="#000000" stroke-linecap="butt" stroke-linejoin="miter-clip" stroke-miterlimit="4.0" stroke-opacity="0.7254902" stroke-width="1.0"/>
    <path d="M22.6 -52.6 Q23.45 -47.1 24.05 -43.25 24.7 -39.05 25.25 -36.05 25.8 -32.9 26.3 -30.75 26.8 -28.5 27.25 -27.05 27.7 -25.6 28.15 -24.7 28.6 -23.85 29.15 -23.45 29.6 -23.05 30.2 -23.0 30.7 -22.95 31.5 -23.1" fill="none" stroke="#000000" stroke-linecap="butt" stroke-linejoin="miter-clip" stroke-miterlimit="4.0" stroke-opacity="0.7254902" stroke-width="1.0"/>
  </g>
</svg>
