<?xml version="1.0" encoding="UTF-8" standalone="no"?>
<svg xmlns:xlink="http://www.w3.org/1999/xlink" height="78.6px" width="115.85px" xmlns="http://www.w3.org/2000/svg">
  <g transform="matrix(1.0, 0.0, 0.0, 1.0, 0.0, 0.0)">
    <path d="M46.2 27.1 L34.45 35.4 25.4 46.2 38.4 77.6 59.35 77.75 57.85 75.05 53.45 65.25 50.9 52.0 48.35 39.6 46.2 27.1" fill="#ff0000" fill-rule="evenodd" stroke="none"/>
    <path d="M46.2 27.1 L34.45 35.4 25.4 46.2 38.4 77.6 59.35 77.75 57.85 75.05 53.45 65.25 50.9 52.0 48.35 39.6 46.2 27.1 46.2 27.1 Z" fill="none" stroke="#ff0000" stroke-linecap="round" stroke-linejoin="round" stroke-width="1.7000000000000002"/>
    <path d="M59.35 77.75 L73.9 77.45 80.0 63.55 82.15 56.3 84.5 43.9 82.25 39.2 79.25 34.75 74.2 29.25 71.15 41.8 66.75 56.45 65.6 62.75 63.15 71.15 59.35 77.75" fill="#ff0000" fill-rule="evenodd" stroke="none"/>
    <path d="M59.35 77.75 L73.9 77.45 80.0 63.55 82.15 56.3 84.5 43.9 82.25 39.2 79.25 34.75 74.2 29.25 71.15 41.8 66.75 56.45 65.6 62.75 63.15 71.15 59.35 77.75 59.35 77.75 Z" fill="none" stroke="#ff0000" stroke-linecap="round" stroke-linejoin="round" stroke-width="1.0"/>
    <path d="M59.35 77.45 L73.35 77.45 73.35 77.8 59.35 77.8 59.35 77.45 59.35 77.45" fill="#ff0000" fill-rule="evenodd" stroke="none"/>
    <path d="M59.35 77.45 L73.35 77.45 73.35 77.8 59.35 77.8 59.35 77.45 59.35 77.45 59.35 77.45 Z" fill="none" stroke="#ff0000" stroke-linecap="round" stroke-linejoin="round" stroke-width="1.7000000000000002"/>
    <path d="M38.4 77.6 Q32.75 65.55 25.4 46.2 25.45 46.1 25.45 45.95 25.5 45.85 25.55 45.7 25.6 45.6 25.65 45.45 25.7 45.35 25.75 45.25 25.8 45.1 25.85 45.0 25.9 44.85 25.95 44.75 26.0 44.6 26.05 44.5 26.15 44.35 26.2 44.2 26.25 44.1 26.35 43.95 26.4 43.85 26.45 43.7 26.55 43.6 26.6 43.45 26.7 43.35 26.75 43.2 26.85 43.1 26.95 42.95 27.0 42.85 27.1 42.7 27.2 42.6 27.3 42.45 27.4 42.3 27.5 42.2 27.6 42.05 27.7 41.9 27.8 41.8 27.9 41.65 28.0 41.5 28.1 41.35 28.2 41.25 28.35 41.1 28.45 40.95 28.55 40.8 28.65 40.7 28.8 40.55 28.9 40.4 29.05 40.25 29.15 40.1 29.3 40.0 29.45 39.85 29.55 39.7 29.7 39.55 29.85 39.45 29.95 39.3 30.1 39.15 30.25 39.0 30.4 38.85 30.55 38.7 30.7 38.55 30.85 38.4 31.0 38.25 31.15 38.15 31.3 38.0 31.45 37.85 31.6 37.7 31.75 37.55 31.95 37.4 32.1 37.25 32.3 37.1 32.45 36.95 32.65 36.8 32.8 36.65 33.0 36.45 33.15 36.3 33.35 36.15 33.55 36.0 33.75 35.85 33.9 35.7 34.1 35.55 34.3 35.4 34.5 35.25 34.7 35.1 34.9 34.95 35.1 34.75 35.3 34.6 35.5 34.45 35.7 34.3 35.9 34.15 36.1 33.95 36.3 33.8 36.5 33.65 36.75 33.5 36.95 33.3 37.15 33.15 37.4 33.0 37.6 32.85 37.85 32.65 40.95 30.5 41.8 29.95 43.5 28.85 46.2 27.1 46.75 29.75 47.3 32.75 47.95 36.4 48.25 38.2 47.75 35.55 49.05 42.6 49.35 44.15 49.35 44.3 49.4 44.5 49.2 43.4 49.7 46.4 50.1 48.5 50.55 50.8 51.1 53.5 51.8 56.8 52.2 58.45 52.3 58.75 52.35 59.1 52.45 59.4 52.5 59.75 52.6 60.05 52.7 60.35 52.75 60.7 52.85 61.0 52.95 61.3 53.0 61.6 53.1 61.9 53.2 62.25 53.25 62.55 53.35 62.85 53.45 63.15 53.55 63.45 53.65 63.75 53.75 64.1 53.8 64.4 53.9 64.75 54.0 65.05 54.1 65.35 54.2 65.7 54.3 66.0 54.4 66.3 54.5 66.65 54.6 66.95 54.7 67.25 54.8 67.55 54.9 67.9 55.0 68.2 55.1 68.5 55.45 69.35 55.7 70.0 55.75 70.1 55.75 70.2 55.8 70.25 55.8 70.35 55.85 70.45 55.9 70.55 55.9 70.6 55.95 70.7 56.0 70.8 56.0 70.85 56.05 70.95 56.1 71.05 56.1 71.15 56.15 71.2 56.2 71.3 56.25 71.4 56.35 71.6 56.5 72.0 56.65 72.4 56.7 72.6 56.75 72.65 56.75 72.7 56.8 72.8 56.85 72.85 56.85 72.9 56.9 72.95 56.9 73.05 56.95 73.1 57.0 73.15 57.0 73.25 57.05 73.3 57.05 73.35 57.1 73.45 57.1 73.5 57.15 73.55 57.15 73.65 57.3 73.95 57.55 74.45 L57.85 75.05 Q57.85 75.1 57.9 75.1 57.9 75.15 57.95 75.2 57.95 75.25 57.95 75.25 58.0 75.3 58.0 75.3 58.0 75.35 58.05 75.4 58.05 75.4 58.05 75.45 58.05 75.45 58.05 75.5 58.05 75.5 58.15 75.6 L59.35 77.75 61.2 75.2 62.75 71.5 Q62.8 71.4 62.85 71.3 62.9 71.2 62.95 71.05 62.95 70.95 63.0 70.85 63.05 70.75 63.1 70.65 63.15 70.55 63.2 70.45 63.2 70.35 63.25 70.25 63.3 70.15 63.35 70.05 63.35 69.95 63.4 69.8 63.65 69.15 64.0 68.1 L64.5 66.35 Q64.55 66.25 64.55 66.15 64.6 66.0 64.65 65.9 64.65 65.8 64.7 65.7 64.75 65.6 64.75 65.45 64.8 65.35 64.8 65.25 64.85 65.15 64.85 65.0 64.9 64.9 64.95 64.8 64.95 64.65 65.0 64.55 L65.45 62.7 Q65.6 62.0 65.85 60.8 66.05 60.05 66.25 58.85 66.5 57.75 66.75 56.45 L66.75 56.45 Q67.4 54.3 68.05 52.05 68.4 50.95 69.25 47.95 69.3 47.7 69.4 47.45 69.45 47.2 69.5 46.9 69.6 46.65 69.65 46.4 69.75 46.15 69.8 45.9 69.85 45.65 69.95 45.4 70.0 45.15 70.05 44.9 70.15 44.65 70.2 44.4 70.25 44.2 70.35 43.95 71.25 40.2 71.25 40.2 71.95 37.15 72.05 36.6 72.5 34.35 72.75 33.25 73.05 31.5 73.3 30.1 73.65 27.75 73.75 27.1 74.1 27.55 75.8 29.75 76.8 31.05 77.65 32.25 78.4 33.2 79.35 34.55 79.7 35.1 80.75 36.75 80.85 36.9 80.9 37.0 81.0 37.15 81.1 37.25 81.15 37.4 81.25 37.5 81.35 37.65 81.4 37.75 81.5 37.9 81.55 38.0 81.65 38.15 81.7 38.25 81.8 38.4 81.85 38.5 81.9 38.65 82.0 38.75 82.65 39.9 83.0 40.6 83.05 40.7 83.15 40.85 83.2 40.95 83.25 41.05 83.3 41.2 83.35 41.3 83.4 41.4 83.45 41.5 83.5 41.6 83.55 41.7 83.6 41.8 83.65 41.9 83.7 42.05 83.75 42.15 83.8 42.2 83.85 42.3 83.9 42.4 83.95 42.5 84.0 42.6 84.05 42.7 84.1 42.85 84.15 42.95 84.15 43.05 84.2 43.1 84.25 43.2 84.3 43.3 84.3 43.4 84.35 43.5 84.4 43.6 84.45 43.7 84.45 43.8 84.5 43.9 84.25 45.15 84.05 46.65 84.0 46.8 84.0 47.0 83.95 47.15 83.95 47.35 83.9 47.5 83.85 47.65 83.85 47.85 83.8 48.0 83.75 48.15 83.75 48.35 83.7 48.5 83.7 48.65 83.65 48.8 83.6 49.0 83.6 49.15 83.55 49.3 83.35 50.45 83.05 51.85 L82.55 54.15 Q82.5 54.3 82.5 54.45 82.45 54.6 82.45 54.7 82.4 54.85 82.4 55.0 82.35 55.15 82.3 55.3 82.3 55.4 82.25 55.55 82.2 55.7 82.2 55.85 82.15 55.95 82.1 56.1 82.05 56.25 82.05 56.35 81.75 57.55 81.5 58.4 81.45 58.5 81.45 58.65 81.4 58.75 81.35 58.9 81.35 59.0 81.3 59.15 81.25 59.25 81.25 59.35 81.2 59.5 81.15 59.6 81.15 59.75 81.1 59.85 81.05 59.95 81.05 60.1 81.0 60.2 80.95 60.3 80.9 60.4 80.9 60.55 80.85 60.65 80.8 60.75 80.75 60.9 80.75 61.0 80.7 61.1 80.65 61.2 80.6 61.3 80.6 61.45 80.55 61.55 80.5 61.65 80.45 61.75 80.45 61.85 80.4 61.95 80.35 62.05 79.35 65.05 77.25 69.75 76.4 71.75 73.9 77.45" fill="none" stroke="#ff0000" stroke-linecap="round" stroke-linejoin="round" stroke-width="1.4000000000000001"/>
  </g>
</svg>
