<?xml version="1.0" encoding="UTF-8" standalone="no"?>
<svg xmlns:xlink="http://www.w3.org/1999/xlink" height="74.85px" width="92.85px" xmlns="http://www.w3.org/2000/svg">
  <g transform="matrix(1.0, 0.0, 0.0, 1.0, 46.45, 37.4)">
    <path d="M-25.85 -24.15 Q-25.95 -24.1 -26.05 -24.05 -26.1 -24.0 -26.15 -23.95 -26.25 -23.9 -26.25 -23.8 -26.3 -23.7 -26.35 -23.65 -26.35 -23.55 -26.4 -23.45 -26.4 -23.35 -26.4 -23.25 -26.4 -23.2 -26.4 -23.1 -26.4 -23.1 -26.4 -22.9 -26.4 -22.75 -26.4 -22.65 -26.4 -22.55 -26.4 -22.45 -26.4 -22.3 -26.4 -22.2 -26.4 -22.05 -26.35 -21.95 -26.35 -21.8 -26.3 -21.7 -26.25 -21.6 -26.2 -21.5 -26.15 -21.4 -26.05 -21.3 -26.0 -21.2 -25.9 -21.1 -25.8 -21.0 -25.7 -20.95 -25.55 -20.9 -25.45 -20.85 -25.3 -20.8 -25.2 -20.75 -25.05 -20.75 -24.95 -20.75 -24.8 -20.7 -24.65 -20.75 -24.55 -20.75 -24.4 -20.75 -24.25 -20.8 -24.15 -20.8 -24.0 -20.85 -23.9 -20.9 -23.7 -20.95 -23.45 -21.05 -23.25 -21.15 -23.05 -21.25 -22.85 -21.4 -22.7 -21.5 -22.5 -21.65 -22.35 -21.75 -22.15 -21.9 -22.0 -22.05 -21.85 -22.2 -21.7 -22.35 -21.55 -22.55 -21.4 -22.7 -21.25 -22.85 -21.15 -23.05 -21.1 -23.1 -21.1 -23.2 -21.1 -23.3 -21.1 -23.35 -21.1 -23.45 -21.15 -23.5 -21.15 -23.55 -21.2 -23.65 -21.25 -23.7 -21.35 -23.75 -21.4 -23.8 -21.45 -23.85 -21.55 -23.85 -21.65 -23.9 -21.7 -23.9 -21.8 -23.9 -22.05 -23.9 -22.3 -23.9 -22.55 -23.9 -22.8 -23.95 -23.0 -23.95 -23.25 -23.95 -23.5 -23.95 -23.75 -23.95 -24.0 -24.0 -24.25 -24.0 -24.45 -24.0 -24.7 -24.05 -24.95 -24.05 -25.2 -24.1 -25.45 -24.1 -25.65 -24.15 -25.75 -24.15 -25.85 -24.15 L-25.85 -24.15" fill="#ffff00" fill-rule="evenodd" stroke="none"/>
    <path d="M-25.85 -24.15 Q-25.95 -24.1 -26.05 -24.05 -26.1 -24.0 -26.15 -23.95 -26.25 -23.9 -26.25 -23.8 -26.3 -23.7 -26.35 -23.65 -26.35 -23.55 -26.4 -23.45 -26.4 -23.35 -26.4 -23.25 -26.4 -23.2 -26.4 -23.1 -26.4 -23.1 -26.4 -22.9 -26.4 -22.75 -26.4 -22.65 -26.4 -22.55 -26.4 -22.45 -26.4 -22.3 -26.4 -22.2 -26.4 -22.05 -26.35 -21.95 -26.35 -21.8 -26.3 -21.7 -26.25 -21.6 -26.2 -21.5 -26.15 -21.4 -26.05 -21.3 -26.0 -21.2 -25.9 -21.1 -25.8 -21.0 -25.7 -20.95 -25.55 -20.9 -25.45 -20.85 -25.3 -20.8 -25.2 -20.75 -25.05 -20.75 -24.95 -20.75 -24.8 -20.7 -24.65 -20.75 -24.55 -20.75 -24.4 -20.75 -24.25 -20.8 -24.15 -20.8 -24.0 -20.85 -23.9 -20.9 -23.7 -20.95 -23.45 -21.05 -23.25 -21.15 -23.05 -21.25 -22.85 -21.4 -22.7 -21.5 -22.5 -21.65 -22.35 -21.75 -22.15 -21.9 -22.0 -22.05 -21.85 -22.2 -21.7 -22.35 -21.55 -22.55 -21.4 -22.7 -21.25 -22.85 -21.15 -23.05 -21.1 -23.1 -21.1 -23.2 -21.1 -23.3 -21.1 -23.35 -21.1 -23.45 -21.15 -23.5 -21.15 -23.55 -21.2 -23.65 -21.25 -23.7 -21.35 -23.75 -21.4 -23.8 -21.45 -23.85 -21.55 -23.85 -21.65 -23.9 -21.7 -23.9 -21.8 -23.9 -22.05 -23.9 -22.3 -23.9 -22.55 -23.9 -22.8 -23.95 -23.0 -23.95 -23.25 -23.95 -23.5 -23.95 -23.75 -23.95 -24.0 -24.0 -24.25 -24.0 -24.45 -24.0 -24.7 -24.05 -24.95 -24.05 -25.2 -24.1 -25.45 -24.1 -25.65 -24.15 -25.75 -24.15 -25.85 -24.15 L-25.85 -24.15 Z" fill="none" stroke="#000000" stroke-linecap="round" stroke-linejoin="round" stroke-width="0.05"/>
    <path d="M-30.0 -26.95 L-14.9 -26.95 -14.9 -15.35 -30.0 -15.35 -30.0 -26.95 -30.0 -26.95" fill="#ffff00" fill-rule="evenodd" stroke="none"/>
    <path d="M-30.0 -26.95 L-14.9 -26.95 -14.9 -15.35 -30.0 -15.35 -30.0 -26.95 -30.0 -26.95 Z" fill="none" stroke="#000000" stroke-linecap="round" stroke-linejoin="round" stroke-width="1.0"/>
  </g>
</svg>
