<?xml version="1.0" encoding="UTF-8" standalone="no"?>
<svg xmlns:xlink="http://www.w3.org/1999/xlink" height="68.5px" width="107.0px" xmlns="http://www.w3.org/2000/svg">
  <g transform="matrix(1.0, 0.0, 0.0, 1.0, 53.5, 34.25)">
    <path d="M-43.95 -25.5 Q-44.15 -25.45 -44.3 -25.35 -44.45 -25.25 -44.5 -25.1 -44.6 -25.0 -44.65 -24.8 -44.7 -24.65 -44.7 -24.45 -44.7 -24.3 -44.7 -24.1 -44.7 -24.0 -44.7 -23.75 -44.7 -23.5 -44.7 -23.35 -44.7 -23.15 -44.7 -23.05 -44.7 -22.5 -44.7 -20.6 -44.75 -19.1 -44.75 -18.2 -44.75 -16.85 -44.7 -15.75 -44.7 -14.45 -44.65 -13.3 -44.6 -12.05 -44.5 -10.9 -44.4 -9.65 -44.2 -8.5 -44.05 -7.25 -43.8 -6.1 -43.55 -4.85 -43.25 -3.7 -43.1 -3.1 -43.0 -2.7 -42.85 -2.15 -42.75 -1.7 -42.6 -1.2 -42.45 -0.7 -42.3 -0.2 -42.15 0.25 -41.95 0.8 -41.8 1.25 -41.6 1.75 -41.4 2.2 -41.15 2.7 -40.95 3.1 -40.7 3.6 -40.45 4.0 -40.15 4.2 -39.75 4.4 -39.45 4.55 -39.05 4.75 -38.75 4.9 -38.35 5.05 -38.0 5.2 -37.6 5.35 -37.3 5.45 -36.9 5.6 -37.25 5.5 -36.15 5.9 -35.7 6.05 -35.4 6.15 -35.0 6.3 -34.65 6.45 -33.85 6.75 -33.05 7.0 -32.2 7.25 -31.4 7.5 -30.55 7.75 -29.7 8.0 -28.9 8.2 -28.05 8.4 -27.25 8.6 -26.35 8.8 -25.55 9.0 -24.7 9.15 -23.85 9.35 -23.0 9.5 -22.2 9.65 -21.3 9.85 -21.15 9.85 -21.05 9.9 -20.9 9.9 -20.75 9.85 -20.65 9.85 -20.5 9.8 -20.35 9.8 -20.25 9.75 -20.15 9.7 -20.05 9.6 -19.95 9.55 -19.85 9.45 -19.8 9.35 -19.75 9.2 -19.65 9.1 -19.65 8.95 -19.55 8.75 -19.45 8.5 -19.35 8.3 -19.2 8.0 -18.85 7.3 -19.0 7.55 -18.85 7.3 -18.75 7.1 -18.65 6.85 -18.55 6.65 -18.45 6.4 -18.45 6.15 -18.4 5.9 -18.4 5.65 -18.4 5.4 -18.45 5.15 -18.55 4.0 -18.55 2.8 -18.6 1.65 -18.65 0.5 -18.65 -0.65 -18.65 -1.85 -18.6 -3.0 -18.55 -4.15 -18.55 -5.3 -18.45 -6.5 -18.4 -7.65 -18.3 -8.8 -18.2 -9.95 -18.1 -11.1 -17.95 -12.25 -17.8 -13.45 -17.75 -14.0 -17.45 -16.75 -17.2 -18.75 -17.15 -20.05 -17.2 -20.25 -17.35 -20.35 -17.45 -20.5 -17.6 -20.6 -17.75 -20.65 -17.9 -20.7 -18.1 -20.75 -18.25 -20.75 -18.45 -20.8 -18.65 -20.8 -18.65 -20.8 -19.0 -20.8 -19.25 -20.85 -19.4 -20.85 -19.6 -20.85 -19.75 -20.9 -20.75 -21.0 -21.8 -21.1 -22.8 -21.2 -23.9 -21.4 -24.9 -21.55 -25.95 -21.7 -26.9 -21.9 -28.0 -22.1 -28.95 -22.3 -30.05 -22.5 -30.9 -22.7 -32.1 -22.95 10.7 -13.9 -34.15 -23.35 -35.35 -23.6 -36.2 -23.8 -37.35 -24.0 -40.0 -24.65 -42.45 -25.25 -43.8 -25.5 L-43.95 -25.5 M-40.6 -16.35 Q-39.9 -16.05 -39.15 -15.8 -38.45 -15.55 -37.7 -15.35 -36.95 -15.1 -36.2 -14.9 -35.45 -14.75 -34.7 -14.55 -33.95 -14.4 -33.2 -14.25 -32.45 -14.1 -31.7 -14.0 -30.95 -13.85 -30.15 -13.75 -29.4 -13.65 -28.65 -13.6 -23.75 -12.95 -23.4 -12.9 -23.4 -12.75 -23.45 -12.55 -23.5 -12.4 -23.55 -12.2 -23.85 -11.3 -23.7 -11.85 -23.75 -11.65 -23.8 -11.5 -23.85 -11.3 -23.85 -11.15 -23.9 -10.95 -23.85 -10.8 -23.8 -10.65 -23.7 -10.5 -23.6 -10.35 -23.45 -10.25 -23.25 -10.15 -23.05 -10.05 -22.9 -9.95 -22.7 -9.85 -22.55 -9.7 -22.35 -9.55 -22.2 -9.4 -22.1 -9.25 -21.95 -9.1 -21.85 -8.9 -21.75 -8.7 -21.7 -8.55 -21.65 -8.35 -21.65 -8.15 -21.65 -7.9 -21.7 -7.7 -21.75 -7.55 -21.8 -7.35 -21.9 -7.2 -21.95 -7.05 -22.05 -6.85 -22.15 -6.75 -22.25 -6.6 -22.4 -6.45 -22.55 -6.35 -22.65 -6.25 -22.8 -6.15 -23.0 -6.1 -23.15 -6.0 -23.35 -6.0 -23.5 -6.0 -23.7 -6.0 -24.0 -6.0 -24.0 -6.05 -24.2 -6.05 -24.35 -6.05 -24.55 -6.05 -24.7 -6.05 -24.85 -6.05 -25.0 -6.0 -25.2 -5.95 -25.3 -5.9 -25.45 -5.85 -25.6 -5.75 -25.7 -5.65 -25.8 -5.55 -25.85 -5.4 -25.9 -5.25 -26.25 -4.7 -26.3 -4.6 -26.5 -4.25 -26.7 -4.0 -26.9 -3.65 -27.1 -3.35 -27.3 -3.0 -27.5 -2.75 -27.75 -2.45 -28.0 -2.15 -28.25 -1.85 -28.5 -1.6 -28.75 -1.35 -29.05 -1.1 -29.3 -0.85 -29.6 -0.65 -29.9 -0.55 -30.25 -0.55 -30.55 -0.5 -30.85 -0.45 -31.2 -0.45 -31.5 -0.45 -31.8 -0.5 -32.1 -0.5 -32.45 -0.55 -32.75 -0.65 -33.05 -0.7 -33.35 -0.8 -33.65 -0.95 -33.9 -1.05 -34.2 -1.2 -34.45 -1.35 -35.0 -1.65 -35.55 -2.05 -36.05 -2.4 -36.55 -2.85 -37.0 -3.3 -37.4 -3.8 -37.75 -4.3 -38.1 -4.85 -38.45 -5.35 -38.7 -5.95 -39.0 -6.5 -39.2 -7.15 -39.45 -7.7 -39.6 -8.35 -39.75 -8.95 -39.9 -9.55 -40.0 -10.1 -40.05 -10.4 -40.15 -10.85 -40.2 -11.25 -40.25 -11.7 -40.35 -12.1 -40.4 -12.55 -40.45 -12.95 -40.5 -13.4 -40.55 -13.8 -40.6 -14.25 -40.6 -14.65 -40.65 -15.1 -40.65 -15.5 -40.65 -15.95 -40.65 -16.35 L-40.6 -16.35 M-19.7 9.05 Q-19.7 9.1 -19.7 9.05 -19.7 9.05 -19.7 9.05 L-19.7 9.05" fill="#ff0000" fill-rule="evenodd" stroke="none"/>
    <path d="M-40.4 -12.75 Q-40.45 -12.6 -40.5 -12.4 -40.55 -12.2 -40.55 -12.05 -40.55 -11.85 -40.55 -11.65 -40.5 -11.5 -40.5 -11.3 -40.45 -11.15 -40.4 -10.9 -40.4 -10.85 -40.35 -10.55 -40.3 -10.3 -40.25 -10.15 -40.25 -9.95 -40.2 -9.8 -40.05 -9.15 -39.9 -8.55 -39.7 -7.9 -39.5 -7.25 -39.25 -6.65 -39.0 -6.05 -38.7 -5.45 -38.35 -4.9 -38.0 -4.3 -37.6 -3.8 -37.2 -3.25 -36.75 -2.8 -36.3 -2.3 -35.75 -1.95 -35.25 -1.5 -34.65 -1.2 -34.35 -1.05 -34.05 -0.9 -33.75 -0.8 -33.4 -0.65 -33.1 -0.55 -32.75 -0.5 -32.45 -0.4 -32.1 -0.35 -31.75 -0.3 -31.45 -0.3 -31.1 -0.25 -30.75 -0.3 -30.45 -0.3 -30.1 -0.35 -29.75 -0.45 -29.45 -0.55 -29.15 -0.75 -28.9 -1.0 -28.6 -1.2 -28.35 -1.45 -28.1 -1.7 -27.9 -2.0 -27.65 -2.25 -27.45 -2.55 -27.2 -2.85 -27.0 -3.15 -26.8 -3.4 -26.6 -3.75 -26.4 -4.0 -26.2 -4.35 -26.1 -4.55 -25.85 -4.95 -25.75 -5.1 -25.7 -5.2 -25.6 -5.35 -25.55 -5.5 -25.45 -5.65 -25.4 -5.75 -25.35 -5.9 -25.35 -6.05 -25.3 -6.2 -25.3 -6.35 -25.3 -6.5 -25.35 -6.65 -25.35 -6.8 -25.45 -6.9 -25.5 -7.05 -25.65 -7.2 -25.7 -7.35 -25.75 -7.55 -25.75 -7.7 -25.75 -7.95 -25.75 -8.05 -25.7 -8.3 -25.65 -8.6 -25.65 -8.7 -25.65 -8.95 -25.65 -9.1 -25.7 -9.3 -25.75 -9.4 -25.85 -9.6 -25.95 -9.7 -26.1 -9.8 -26.35 -9.9 -27.25 -10.0 -28.0 -10.1 -28.9 -10.2 -29.7 -10.35 -30.55 -10.5 -31.35 -10.65 -32.2 -10.8 -33.0 -10.95 -33.85 -11.15 -34.65 -11.35 -35.5 -11.55 -36.3 -11.8 -37.1 -12.05 -37.9 -12.35 -38.7 -12.65 -39.45 -12.95 -39.5 -12.95 -39.6 -13.0 -39.65 -13.0 -39.7 -13.0 -39.8 -13.0 -39.85 -13.0 -39.9 -13.0 -39.95 -13.0 -40.0 -12.95 -40.05 -12.95 -40.1 -12.9 -40.2 -12.9 -40.25 -12.85 -40.3 -12.85 -40.35 -12.8 -40.4 -12.75 L-40.4 -12.75" fill="#ff0000" fill-rule="evenodd" stroke="none"/>
    <path d="M-39.9 -16.2 Q-40.1 -16.2 -40.25 -16.1 -40.4 -16.05 -40.5 -15.95 -40.6 -15.85 -40.7 -15.7 -40.75 -15.55 -40.8 -15.4 -40.85 -15.2 -40.85 -15.05 -40.85 -14.9 -40.85 -14.7 -40.85 -14.55 -40.8 -14.35 -40.8 -14.2 -40.75 -14.05 -40.75 -13.9 -40.7 -13.75 -40.65 -13.6 -40.6 -13.5 -40.55 -13.35 -40.45 -13.25 -40.35 -13.15 -40.25 -13.05 -40.15 -13.0 -40.0 -12.9 -39.9 -12.85 -39.75 -12.8 -39.6 -12.7 -39.5 -12.65 -39.35 -12.65 -39.2 -12.6 -38.5 -12.3 -37.75 -12.05 -37.05 -11.8 -36.3 -11.6 -35.6 -11.35 -34.85 -11.15 -34.1 -10.95 -33.35 -10.8 -32.6 -10.65 -31.85 -10.5 -31.1 -10.35 -30.35 -10.2 -29.6 -10.1 -28.85 -10.0 -28.05 -9.9 -27.3 -9.85 -27.05 -9.8 -26.85 -9.75 -26.6 -9.75 -26.4 -9.7 -26.15 -9.7 -25.95 -9.7 -25.7 -9.7 -25.45 -9.75 -25.25 -9.75 -25.0 -9.8 -24.8 -9.9 -24.6 -10.0 -24.4 -10.1 -24.2 -10.25 -24.05 -10.4 -23.9 -10.55 -23.85 -10.7 -23.8 -10.8 -23.7 -10.95 -23.65 -11.1 -23.6 -11.25 -23.55 -11.35 -23.5 -11.5 -23.45 -11.65 -23.4 -11.8 -23.4 -11.9 -23.35 -12.05 -23.35 -12.2 -23.35 -12.35 -23.35 -12.5 -23.4 -12.65 -23.4 -12.75 -23.5 -12.9 -23.6 -13.0 -23.75 -13.1 -23.9 -13.2 -24.0 -13.25 -24.2 -13.3 -24.35 -13.3 -24.5 -13.35 -24.65 -13.35 -24.85 -13.35 -25.2 -13.35 -25.2 -13.35 -25.4 -13.35 -25.55 -13.35 -25.7 -13.4 -25.85 -13.45 -27.2 -13.6 -27.55 -13.65 -28.55 -13.75 -29.3 -13.85 -30.25 -14.0 -31.05 -14.1 -31.95 -14.25 -32.75 -14.4 -33.65 -14.55 -34.45 -14.7 -35.35 -14.9 -36.15 -15.1 -37.0 -15.35 -37.8 -15.6 -38.65 -15.85 -39.45 -16.15 -39.8 -16.2 -39.9 -16.2 L-39.9 -16.2" fill="#ff0000" fill-rule="evenodd" stroke="none"/>
    <path d="M-19.05 7.1 Q-19.1 7.25 -19.2 7.4 -19.25 7.5 -19.35 7.7 -19.35 7.65 -19.55 7.95 -19.65 8.15 -19.75 8.25 -19.85 8.4 -19.9 8.55 -19.95 8.7 -20.05 8.85 -20.1 9.0 -20.1 9.2 -20.15 9.35 -20.15 9.5 -20.1 9.7 -19.95 9.85 -19.85 9.95 -19.7 10.05 -19.6 10.15 -19.4 10.2 -19.25 10.3 -19.05 10.3 -18.9 10.35 -18.65 10.4 -18.7 10.4 -18.25 10.45 -18.05 10.45 -17.9 10.5 -17.7 10.5 -17.55 10.55 -17.4 10.6 -17.25 10.6 -17.1 10.6 -16.95 10.6 -16.85 10.55 -16.75 10.45 -16.6 10.35 -16.55 10.25 -16.45 10.15 -16.4 10.0 -16.35 9.9 -16.35 9.75 -16.35 9.6 -16.4 9.45 -16.45 9.3 -16.55 9.2 -16.6 9.05 -16.7 8.9 -16.65 9.05 -16.9 8.6 -16.95 8.4 -17.05 8.25 -17.15 8.1 -17.2 7.95 -17.3 7.8 -17.4 7.65 -17.5 7.5 -17.6 7.35 -17.7 7.2 -17.85 7.1 -17.95 6.95 -18.1 6.85 -18.15 6.85 -18.25 6.85 -18.3 6.8 -18.35 6.85 -18.4 6.85 -18.5 6.85 -18.55 6.85 -18.6 6.85 -18.65 6.85 -18.7 6.9 -18.75 6.9 -18.8 6.95 -18.85 6.95 -18.9 7.0 -18.95 7.05 -19.05 7.1 L-19.05 7.1" fill="#ff0000" fill-rule="evenodd" stroke="none"/>
    <path d="M-3.8 -22.35 Q-5.85 -22.1 -9.35 -21.6 -13.45 -21.05 -14.9 -20.85 -15.2 -20.85 -15.25 -20.85 -15.45 -20.8 -15.6 -20.8 -15.8 -20.8 -15.95 -20.75 -16.15 -20.7 -16.3 -20.65 -16.5 -20.6 -16.65 -20.5 -16.8 -20.4 -16.9 -20.3 -17.0 -20.15 -17.05 -20.0 -17.1 -19.85 -17.1 -19.65 -17.2 -18.4 -17.95 -11.8 -18.5 -7.0 -18.55 -3.95 -18.75 2.9 -18.25 6.85 -18.1 7.05 -18.0 7.3 -17.85 7.55 -17.75 7.8 -17.7 7.9 -17.5 8.3 -17.35 8.6 -17.25 8.8 -17.1 9.1 -17.0 9.3 -16.85 9.55 -16.7 9.75 -16.55 10.0 -16.35 10.2 -16.2 10.4 -16.0 10.6 -15.85 10.7 -15.65 10.7 -15.45 10.75 -15.3 10.75 -15.1 10.75 -14.9 10.7 -14.75 10.65 -14.55 10.6 -14.4 10.55 -14.2 10.5 -14.2 10.5 -13.85 10.4 -13.6 10.3 -13.45 10.25 -13.3 10.2 -13.15 10.2 -12.9 10.1 -12.6 10.0 -12.4 9.9 -12.05 9.8 -11.55 9.65 -11.5 9.6 -11.15 9.5 -10.95 9.4 -10.65 9.3 -10.4 9.2 -10.1 9.1 -9.85 8.95 -9.6 8.85 -9.35 8.7 -9.1 8.55 -8.9 8.35 -8.65 8.05 -8.45 7.7 -8.25 7.4 -8.05 7.05 -7.9 6.75 -7.7 6.35 -7.55 6.05 -7.4 5.65 -7.25 5.35 -7.1 4.95 -7.0 4.65 -6.85 4.2 -6.6 3.6 -6.55 3.5 -6.4 3.1 -6.3 2.75 -6.05 2.15 -5.85 1.45 -5.65 0.85 -5.5 0.2 -5.35 -0.45 -5.2 -1.15 -5.05 -1.75 -4.9 -2.45 -4.8 -3.1 -4.7 -3.8 -4.55 -4.4 -4.45 -5.1 -4.4 -5.75 -4.3 -6.45 -4.2 -7.05 -4.1 -7.8 -3.2 -18.2 -2.75 -21.25 -2.75 -21.35 -2.75 -21.45 -2.75 -21.55 -2.8 -21.7 -2.85 -21.8 -2.9 -21.85 -2.95 -21.95 -3.0 -22.05 -3.1 -22.15 -3.15 -22.2 -3.25 -22.25 -3.35 -22.3 -3.45 -22.35 -3.55 -22.35 -3.7 -22.35 -3.8 -22.35 L-3.8 -22.35" fill="#ff0000" fill-rule="evenodd" stroke="none"/>
    <path d="M-44.15 -31.05 Q-44.3 -30.95 -44.45 -30.8 -44.55 -30.65 -44.6 -30.5 -44.65 -30.35 -44.7 -30.15 -44.7 -29.95 -44.7 -29.75 -44.7 -29.6 -44.65 -29.4 -44.55 -28.2 -44.6 -29.0 -44.6 -28.75 -44.6 -28.6 -44.6 -28.4 -44.6 -28.25 -44.6 -28.1 -44.55 -27.85 -44.55 -27.7 -44.55 -27.45 -44.6 -29.35 -44.55 -27.05 -44.55 -26.85 -44.55 -26.65 -44.55 -26.45 -44.5 -26.25 -44.5 -26.05 -44.45 -25.9 -44.4 -25.7 -44.3 -25.5 -44.25 -25.35 -44.1 -25.15 -43.9 -25.05 -43.65 -24.95 -43.4 -24.85 -43.15 -24.8 -42.9 -24.7 -42.65 -24.65 -42.4 -24.6 -42.15 -24.55 -41.95 -24.5 -41.6 -24.45 -41.25 -24.35 -41.1 -24.3 -40.8 -24.25 -40.6 -24.2 -40.3 -24.15 -40.05 -24.05 -28.65 -21.5 -23.5 -20.75 -18.75 -20.25 -17.75 -20.25 -17.55 -20.3 -17.4 -20.4 -17.25 -20.45 -17.15 -20.6 -17.05 -20.7 -17.0 -20.9 -16.95 -21.05 -16.9 -21.2 -16.85 -21.4 -16.8 -21.6 -16.8 -21.7 -16.8 -21.95 -16.75 -22.2 -16.75 -22.3 -16.7 -22.5 -16.7 -22.65 -16.7 -22.85 -16.65 -23.05 -16.65 -23.2 -16.6 -23.4 -16.55 -23.55 -16.5 -23.8 -16.45 -24.1 -16.45 -24.15 -16.4 -24.35 -16.35 -24.5 -16.35 -24.7 -16.3 -24.9 -16.3 -25.1 -16.3 -25.25 -16.25 -25.45 -16.3 -25.65 -16.4 -25.8 -16.5 -25.95 -16.65 -26.05 -16.8 -26.15 -16.95 -26.2 -17.1 -26.25 -17.3 -26.3 -17.5 -26.3 -17.65 -26.35 -17.85 -26.35 -17.8 -26.35 -18.25 -26.35 -18.45 -26.35 -18.6 -26.35 -18.8 -26.4 -18.95 -26.4 -23.65 -26.95 -32.05 -28.4 -32.8 -28.55 -33.5 -28.65 -34.25 -28.8 -35.0 -28.95 -35.7 -29.1 -36.45 -29.25 -37.15 -29.45 -37.9 -29.6 -38.6 -29.75 -39.35 -29.95 -40.05 -30.1 -40.8 -30.3 -41.5 -30.5 -42.2 -30.65 -42.95 -30.85 -43.65 -31.05 -43.8 -31.05 -44.15 -31.05 L-44.15 -31.05" fill="#ff0000" fill-rule="evenodd" stroke="none"/>
    <path d="M-3.75 -26.95 Q-4.45 -26.95 -5.15 -26.9 -5.85 -26.9 -6.55 -26.85 -7.25 -26.85 -7.95 -26.8 -8.65 -26.75 -9.35 -26.7 -10.05 -26.65 -10.75 -26.6 -11.45 -26.55 -12.15 -26.5 -12.85 -26.45 -13.55 -26.4 -14.25 -26.3 -14.95 -26.25 -15.15 -26.25 -15.3 -26.15 -15.5 -26.1 -15.6 -26.0 -15.75 -25.9 -15.85 -25.8 -15.95 -25.65 -16.05 -25.5 -16.15 -25.35 -16.2 -25.2 -16.25 -25.05 -16.3 -24.85 -16.35 -24.7 -16.35 -24.5 -16.4 -24.35 -16.4 -24.2 -16.45 -24.0 -16.45 -23.8 -16.5 -23.6 -16.55 -23.35 -16.5 -23.65 -16.65 -22.95 -16.7 -22.7 -16.7 -22.5 -16.75 -22.3 -16.8 -22.1 -16.8 -21.9 -16.85 -21.7 -16.85 -21.45 -16.85 -21.25 -16.85 -21.05 -16.85 -20.85 -16.75 -20.65 -16.65 -20.55 -16.55 -20.4 -16.4 -20.35 -16.25 -20.25 -16.05 -20.25 -15.9 -20.2 -15.7 -20.2 -15.55 -20.2 -15.35 -20.2 -15.2 -20.25 -14.95 -20.25 -14.6 -20.3 -14.6 -20.3 -14.4 -20.35 -14.25 -20.35 -7.3 -21.3 -3.15 -21.8 -3.0 -21.85 -2.85 -21.95 -2.75 -22.05 -2.65 -22.2 -2.55 -22.35 -2.5 -22.5 -2.5 -22.65 -2.45 -22.8 -2.45 -22.95 -2.4 -23.15 -2.35 -23.45 -2.35 -23.5 -2.35 -23.7 -2.3 -23.85 -2.25 -24.05 -2.2 -24.15 -2.2 -24.3 -2.15 -24.5 -2.1 -24.6 -2.05 -24.8 -1.9 -25.25 -1.9 -25.15 -1.85 -25.35 -1.8 -25.5 -1.75 -25.7 -1.75 -25.85 -1.75 -26.05 -1.75 -26.2 -1.8 -26.35 -1.9 -26.5 -1.95 -26.65 -2.1 -26.75 -2.2 -26.8 -2.3 -26.85 -2.4 -26.9 -2.5 -26.9 -2.6 -26.95 -2.7 -26.95 -2.8 -26.95 -2.9 -26.95 -3.0 -26.95 -3.1 -26.95 -3.2 -26.95 -3.35 -26.95 -3.45 -26.95 -3.55 -26.95 -3.65 -26.95 -3.75 -26.95 L-3.75 -26.95" fill="#ff0000" fill-rule="evenodd" stroke="none"/>
    <path d="M-23.35 -31.55 Q-23.55 -31.5 -23.7 -31.4 -23.85 -31.25 -23.95 -31.15 -24.05 -31.0 -24.15 -30.8 -24.2 -30.65 -24.3 -30.45 -24.35 -30.3 -24.4 -30.1 -24.4 -29.95 -24.45 -29.7 -24.5 -29.45 -24.55 -29.35 -24.6 -29.15 -24.65 -29.0 -24.7 -28.85 -24.7 -28.7 -24.75 -28.55 -24.75 -28.4 -24.75 -28.25 -24.7 -28.1 -24.65 -27.95 -24.6 -27.8 -24.55 -27.7 -24.45 -27.55 -24.4 -27.45 -24.25 -27.35 -24.15 -27.3 -24.0 -27.25 -23.85 -27.2 -23.7 -27.2 -17.6 -26.4 -14.8 -26.6 -14.45 -26.6 -14.0 -26.65 -13.7 -26.65 -13.2 -26.65 -12.35 -26.7 -12.4 -26.7 -11.95 -26.7 -11.6 -26.7 -11.2 -26.7 -10.8 -26.75 -10.4 -26.75 -10.05 -26.8 -9.6 -26.85 -9.25 -26.9 -8.8 -26.95 -8.45 -27.0 -8.3 -27.05 -8.2 -27.15 -8.1 -27.25 -8.0 -27.4 -7.95 -27.5 -7.95 -27.65 -7.95 -27.8 -8.0 -27.9 -8.0 -28.05 -8.1 -28.15 -8.15 -28.3 -8.25 -28.4 -8.4 -28.5 -8.5 -28.55 -8.65 -28.6 -8.8 -28.6 -19.9 -30.8 -23.15 -31.6 L-23.3 -31.55 -23.35 -31.55" fill="#ff0000" fill-rule="evenodd" stroke="none"/>
    <path d="M-33.35 -32.0 Q-33.7 -32.0 -36.7 -32.0 -38.75 -31.95 -40.05 -31.85 -40.2 -31.8 -40.3 -31.7 -40.4 -31.6 -40.5 -31.45 -40.55 -31.35 -40.55 -31.2 -40.55 -31.1 -40.55 -30.95 -40.5 -30.8 -40.45 -30.7 -40.35 -30.55 -40.25 -30.45 -40.15 -30.35 -40.0 -30.3 -39.9 -30.25 -39.7 -30.25 -38.9 -30.05 -38.1 -29.85 -37.25 -29.65 -36.45 -29.5 -35.65 -29.3 -34.8 -29.15 -34.0 -29.0 -33.2 -28.8 -32.35 -28.65 -31.55 -28.5 -30.7 -28.4 -29.9 -28.25 -29.05 -28.1 -28.25 -28.0 -27.4 -27.85 -26.6 -27.75 -26.45 -27.65 -26.3 -27.65 -26.1 -27.6 -25.95 -27.6 -25.8 -27.65 -25.65 -27.7 -25.55 -27.75 -25.4 -27.85 -25.3 -27.95 -25.2 -28.1 -25.1 -28.2 -25.0 -28.35 -24.95 -28.5 -24.9 -28.65 -24.9 -28.85 -24.9 -29.0 -24.9 -29.15 -24.85 -29.35 -24.8 -29.45 -24.75 -29.65 -24.65 -30.05 -24.65 -30.05 -24.6 -30.25 -24.55 -30.4 -24.5 -30.55 -24.5 -30.7 -24.5 -30.9 -24.55 -31.05 -24.55 -31.25 -24.65 -31.35 -24.75 -31.5 -24.9 -31.65 -25.1 -31.75 -25.3 -31.8 -25.5 -31.85 -25.75 -31.9 -25.95 -31.95 -26.2 -31.95 -26.4 -31.95 -26.65 -31.95 -26.85 -31.95 -27.1 -31.95 -27.6 -31.95 -27.6 -31.95 -27.85 -31.95 -28.05 -31.95 -28.3 -31.95 -28.5 -32.0 -29.4 -32.0 -30.95 -32.0 -32.65 -32.0 -33.35 -32.0 L-33.35 -32.0" fill="#ff0000" fill-rule="evenodd" stroke="none"/>
    <path d="M-18.85 -8.15 Q-18.85 -10.65 -20.45 -12.4 -22.0 -14.15 -24.25 -14.15 -26.5 -14.15 -28.1 -12.4 -29.65 -10.65 -29.65 -8.15 -29.65 -5.65 -28.1 -3.9 -26.5 -2.15 -24.25 -2.15 -22.0 -2.15 -20.45 -3.9 -18.85 -5.65 -18.85 -8.15 L-18.85 -8.15" fill="#ff0000" fill-rule="evenodd" stroke="none"/>
  </g>
</svg>
