<?xml version="1.0" encoding="UTF-8" standalone="no"?>
<svg xmlns:xlink="http://www.w3.org/1999/xlink" height="71.8px" width="46.8px" xmlns="http://www.w3.org/2000/svg">
  <g transform="matrix(1.0, 0.0, 0.0, 1.0, 23.45, 35.9)">
    <path d="M-11.85 11.05 L-11.8 11.0 -11.75 11.0 -11.75 11.05 -11.8 11.1 -11.9 11.1 -11.85 11.05 M-13.45 4.9 L-13.5 4.8 -13.4 4.9 -13.35 4.95 -13.35 5.0 -13.35 5.0 -13.35 5.0 -13.35 5.0 -13.45 4.9 M9.9 4.65 L9.9 4.5 9.9 4.6 9.95 4.65 9.9 4.75 9.9 4.8 9.9 4.65 9.9 4.65 M-13.6 4.45 L-13.6 4.35 -13.6 4.4 -13.55 4.45 -13.6 4.55 -13.6 4.6 -13.6 4.45 M9.7 4.25 L9.65 4.15 9.75 4.2 9.8 4.3 9.8 4.3 9.8 4.3 9.8 4.3 9.8 4.3 9.7 4.25 M-13.45 4.1 L-13.35 4.0 -13.35 4.0 -13.3 4.0 -13.4 4.1 -13.5 4.2 -13.55 4.2 -13.55 4.2 -13.45 4.1 M-12.4 -1.8 L-12.35 -1.8 -12.3 -1.8 -12.25 -1.75 -12.35 -1.75 -12.45 -1.75 -12.4 -1.8 M-11.5 -1.8 L-11.4 -1.85 -11.35 -1.8 -11.3 -1.8 -11.45 -1.8 -11.6 -1.8 -11.5 -1.8 -11.5 -1.8 M-10.45 -1.85 L-10.35 -1.9 -10.3 -1.85 -10.2 -1.85 -10.4 -1.85 -10.55 -1.85 -10.45 -1.85 -10.45 -1.85 M-9.55 -1.9 L-9.45 -1.9 -9.4 -1.9 -9.35 -1.9 -9.5 -1.9 -9.65 -1.9 -9.55 -1.9 -9.55 -1.9 M-8.75 -1.95 L-8.7 -1.95 -8.65 -1.95 -8.55 -1.95 -8.7 -1.95 -8.85 -1.95 -8.75 -1.95 M-8.05 -2.0 L-8.0 -2.0 -8.0 -2.0 -7.95 -1.95 -8.05 -1.95 -8.1 -1.95 -8.05 -2.0 -8.05 -2.0 M-7.4 -2.05 L-7.35 -2.05 -7.3 -2.0 -7.25 -2.0 -7.35 -2.0 -7.5 -2.0 -7.4 -2.05 -7.4 -2.05 M-6.8 -2.05 L-6.75 -2.1 -6.7 -2.05 -6.65 -2.05 -6.75 -2.05 -6.9 -2.05 -6.8 -2.05 -6.8 -2.05 M-6.2 -2.1 L-6.15 -2.15 -6.1 -2.1 -6.1 -2.1 -6.15 -2.1 -6.25 -2.1 -6.2 -2.1 -6.2 -2.1 M-5.45 -2.15 L-5.4 -2.15 -5.35 -2.15 -5.3 -2.15 -5.4 -2.15 -5.5 -2.15 -5.45 -2.15 M-4.75 -2.2 L-4.65 -2.2 -4.6 -2.2 -4.55 -2.15 -4.65 -2.15 -4.8 -2.15 -4.75 -2.2 M-3.85 -2.25 L-3.8 -2.25 -3.7 -2.25 -3.65 -2.2 -3.8 -2.2 -3.9 -2.2 -3.85 -2.25 M-2.65 -2.25 L-2.55 -2.3 -2.45 -2.25 -2.35 -2.25 -2.6 -2.25 -2.8 -2.25 -2.65 -2.25 M9.45 -2.25 L9.55 -2.3 9.65 -2.25 9.75 -2.25 9.55 -2.25 9.4 -2.25 9.45 -2.25 M-0.75 -2.3 L-0.6 -2.35 -0.45 -2.3 -0.3 -2.3 -0.6 -2.3 -0.9 -2.3 -0.75 -2.3 M8.7 -2.3 L8.8 -2.35 8.85 -2.3 8.95 -2.3 8.75 -2.3 8.6 -2.3 8.7 -2.3 8.7 -2.3 M1.75 -2.35 L2.0 -2.35 2.2 -2.35 2.45 -2.35 2.0 -2.35 1.55 -2.35 1.75 -2.35 1.75 -2.35 M5.9 -2.35 L6.1 -2.35 6.3 -2.35 6.55 -2.35 6.1 -2.35 5.7 -2.35 5.9 -2.35 M-13.45 -2.7 L-13.45 -2.7 -13.4 -2.8 -13.3 -2.85 -13.35 -2.75 -13.4 -2.7 -13.45 -2.7 -13.45 -2.7 -13.45 -2.7 M-12.55 -2.95 L-12.45 -3.0 -12.35 -2.95 -12.3 -2.95 -12.45 -2.95 -12.6 -2.95 -12.55 -2.95 -12.55 -2.95 M-11.65 -3.0 L-11.5 -3.0 -11.4 -3.0 -11.3 -3.0 -11.5 -3.0 -11.75 -3.0 -11.65 -3.0 -11.65 -3.0 M-10.6 -3.05 L-10.5 -3.05 -10.4 -3.05 -10.3 -3.05 -10.5 -3.05 -10.7 -3.05 -10.6 -3.05 M-9.6 -3.1 L-9.5 -3.1 -9.45 -3.1 -9.35 -3.05 -9.55 -3.05 -9.7 -3.05 -9.6 -3.1 -9.6 -3.1 M-8.8 -3.1 L-8.75 -3.15 -8.65 -3.1 -8.6 -3.1 -8.75 -3.1 -8.9 -3.1 -8.8 -3.1 M-8.2 -3.15 L-8.15 -3.2 -8.05 -3.15 -8.0 -3.15 -8.15 -3.15 -8.25 -3.15 -8.2 -3.15 M-7.45 -3.2 L-7.4 -3.2 -7.3 -3.2 -7.25 -3.2 -7.4 -3.2 -7.55 -3.2 -7.45 -3.2 M-6.9 -3.25 L-6.85 -3.25 -6.75 -3.25 -6.7 -3.25 -6.85 -3.25 -6.95 -3.25 -6.9 -3.25 M-6.25 -3.3 L-6.15 -3.3 -6.1 -3.3 -6.05 -3.25 -6.15 -3.25 -6.3 -3.25 -6.25 -3.3 M-5.55 -3.35 L-5.5 -3.35 -5.4 -3.35 -5.35 -3.3 -5.5 -3.3 -5.65 -3.3 -5.55 -3.35 M-4.8 -3.35 L-4.7 -3.4 -4.65 -3.35 -4.55 -3.35 -4.7 -3.35 -4.85 -3.35 -4.8 -3.35 M-3.95 -3.4 L-3.85 -3.45 -3.75 -3.4 -3.65 -3.4 -3.85 -3.4 -4.05 -3.4 -3.95 -3.4 M-2.8 -3.45 L-2.7 -3.45 -2.55 -3.45 -2.35 -3.45 -2.65 -3.45 -2.95 -3.45 -2.8 -3.45 -2.8 -3.45 M9.5 -3.45 L9.55 -3.45 9.65 -3.45 9.7 -3.45 9.55 -3.45 9.4 -3.45 9.5 -3.45 M-0.95 -3.5 L-0.75 -3.5 -0.6 -3.5 -0.4 -3.5 -0.75 -3.5 -1.1 -3.5 -0.95 -3.5 M8.75 -3.5 L8.9 -3.5 9.0 -3.5 9.1 -3.45 8.85 -3.5 8.6 -3.5 8.75 -3.5 8.75 -3.5 M1.6 -3.55 L1.9 -3.55 2.2 -3.55 2.5 -3.5 1.9 -3.5 1.3 -3.5 1.6 -3.55 1.6 -3.55 M6.0 -3.55 L6.3 -3.55 6.65 -3.55 6.95 -3.5 6.3 -3.5 5.65 -3.5 6.0 -3.55 6.0 -3.55" fill="#d0d0d0" fill-rule="evenodd" stroke="none"/>
    <path d="M-14.1 12.45 L-14.1 12.35 -14.1 12.4 -14.05 12.5 -14.1 12.55 -14.1 12.6 -14.1 12.45 -14.1 12.45 M9.55 12.15 L9.5 12.1 9.6 12.15 9.65 12.2 9.65 12.2 9.65 12.25 9.65 12.25 9.6 12.25 9.55 12.15 M-13.05 -1.75 L-12.95 -1.75 -12.9 -1.75 -12.85 -1.7 -13.0 -1.7 -13.1 -1.7 -13.05 -1.75 -13.05 -1.75 M-12.55 -1.8 L-12.45 -1.8 -12.45 -1.8 -12.45 -1.75 -12.5 -1.75 -12.6 -1.75 -12.55 -1.8 -12.55 -1.8 M-11.75 -1.8 L-11.65 -1.85 -11.6 -1.8 -11.55 -1.8 -11.7 -1.8 -11.8 -1.8 -11.75 -1.8 -11.75 -1.8 M-10.7 -1.85 L-10.65 -1.9 -10.6 -1.85 -10.5 -1.85 -10.65 -1.85 -10.8 -1.85 -10.7 -1.85 M-9.8 -1.9 L-9.7 -1.9 -9.65 -1.9 -9.6 -1.9 -9.75 -1.9 -9.85 -1.9 -9.8 -1.9 -9.8 -1.9 M-8.2 -2.0 L-8.15 -2.0 -8.1 -2.0 -8.05 -1.95 -8.15 -1.95 -8.25 -1.95 -8.2 -2.0 M-7.6 -2.05 L-7.55 -2.05 -7.5 -2.05 -7.45 -2.0 -7.55 -2.0 -7.65 -2.0 -7.6 -2.05 M-6.35 -2.1 L-6.3 -2.15 -6.25 -2.1 -6.2 -2.1 -6.3 -2.1 -6.4 -2.1 -6.35 -2.1 M-4.9 -2.2 L-4.85 -2.2 -4.8 -2.2 -4.8 -2.15 -4.85 -2.15 -4.95 -2.15 -4.9 -2.2 -4.9 -2.2 M-4.0 -2.25 L-3.95 -2.25 -3.9 -2.25 -3.85 -2.2 -3.95 -2.2 -4.1 -2.2 -4.0 -2.25 -4.0 -2.25 M-2.95 -2.25 L-2.9 -2.3 -2.8 -2.25 -2.75 -2.25 -2.9 -2.25 -3.05 -2.25 -2.95 -2.25 -2.95 -2.25 M-1.2 -2.3 L-1.1 -2.35 -1.0 -2.3 -0.85 -2.3 -1.1 -2.3 -1.35 -2.3 -1.2 -2.3 -1.2 -2.3 M8.95 -2.3 L9.0 -2.35 9.05 -2.3 9.1 -2.3 9.0 -2.3 8.9 -2.3 8.95 -2.3 M1.0 -2.35 L1.2 -2.35 1.4 -2.35 1.55 -2.35 1.2 -2.35 0.8 -2.35 1.0 -2.35 M6.7 -2.35 L6.9 -2.35 7.05 -2.35 7.25 -2.35 6.9 -2.35 6.5 -2.35 6.7 -2.35 M10.15 -2.4 L10.15 -2.45 10.2 -2.5 10.3 -2.55 10.2 -2.5 10.15 -2.4 10.15 -2.4 10.15 -2.4 10.15 -2.4 M-12.25 -2.95 L-12.2 -3.0 -12.15 -2.95 -12.1 -2.95 -12.2 -2.95 -12.35 -2.95 -12.25 -2.95 -12.25 -2.95 M-11.25 -3.0 L-11.2 -3.0 -11.2 -3.0 -11.15 -2.95 -11.25 -3.0 -11.3 -3.0 -11.25 -3.0 -11.25 -3.0 M-9.35 -3.1 L-9.3 -3.1 -9.3 -3.1 -9.25 -3.05 -9.35 -3.05 -9.4 -3.05 -9.35 -3.1 -9.35 -3.1 M-7.95 -3.15 L-7.9 -3.2 -7.85 -3.15 -7.8 -3.15 -7.9 -3.15 -8.05 -3.15 -7.95 -3.15 -7.95 -3.15 M-6.05 -3.3 L-5.95 -3.3 -5.9 -3.3 -5.85 -3.25 -6.0 -3.25 -6.1 -3.25 -6.05 -3.3 -6.05 -3.3 M-4.55 -3.35 L-4.5 -3.4 -4.5 -3.35 -4.45 -3.35 -4.55 -3.35 -4.6 -3.35 -4.55 -3.35 -4.55 -3.35 M-3.65 -3.4 L-3.55 -3.45 -3.5 -3.4 -3.45 -3.4 -3.55 -3.4 -3.7 -3.4 -3.65 -3.4 M-2.3 -3.45 L-2.25 -3.45 -2.15 -3.45 -2.05 -3.45 -2.25 -3.45 -2.4 -3.45 -2.3 -3.45 M-0.35 -3.5 L-0.2 -3.5 -0.1 -3.5 0.05 -3.45 -0.2 -3.5 -0.45 -3.5 -0.35 -3.5 -0.35 -3.5 M8.4 -3.5 L8.45 -3.5 8.55 -3.5 8.65 -3.45 8.45 -3.45 8.3 -3.45 8.4 -3.5 M2.6 -3.55 L2.75 -3.55 2.95 -3.55 3.1 -3.5 2.75 -3.5 2.45 -3.5 2.6 -3.55 M5.1 -3.55 L5.2 -3.55 5.2 -3.55 5.25 -3.5 5.15 -3.5 5.05 -3.5 5.1 -3.55 5.1 -3.55 M5.35 -3.55 L5.45 -3.55 5.55 -3.55 5.7 -3.5 5.45 -3.5 5.25 -3.5 5.35 -3.55" fill="#b0b0b0" fill-rule="evenodd" stroke="none"/>
    <path d="M9.5 13.05 L9.5 13.0 9.6 12.95 9.65 12.9 9.6 13.0 9.55 13.05 9.55 13.05 9.5 13.05 9.5 13.05 M-13.95 12.85 L-14.0 12.8 -13.95 12.85 -13.85 12.9 -13.85 12.9 -13.85 12.95 -13.9 12.95 -13.9 12.95 -13.95 12.85 M9.25 4.1 L9.3 4.05 9.35 4.1 9.4 4.1 9.3 4.1 9.2 4.1 9.25 4.1 M-11.95 -1.8 L-11.85 -1.85 -11.8 -1.8 -11.75 -1.8 -11.9 -1.8 -12.0 -1.8 -11.95 -1.8 -11.95 -1.8 M-13.4 -1.9 L-13.5 -2.0 -13.4 -1.9 -13.35 -1.85 -13.35 -1.85 -13.35 -1.85 -13.35 -1.85 -13.35 -1.85 -13.4 -1.9 M-10.9 -1.85 L-10.85 -1.9 -10.8 -1.85 -10.75 -1.85 -10.85 -1.85 -10.95 -1.85 -10.9 -1.85 M-9.05 -1.95 L-9.0 -1.95 -8.95 -1.95 -8.9 -1.9 -9.0 -1.9 -9.1 -1.9 -9.05 -1.95 M-7.05 -2.05 L-7.0 -2.1 -6.95 -2.05 -6.95 -2.05 -7.0 -2.05 -7.1 -2.05 -7.05 -2.05 -7.05 -2.05 M-5.8 -2.15 L-5.75 -2.15 -5.7 -2.15 -5.65 -2.15 -5.75 -2.15 -5.85 -2.15 -5.8 -2.15 M-5.05 -2.2 L-5.0 -2.2 -4.95 -2.2 -4.9 -2.15 -5.0 -2.15 -5.1 -2.15 -5.05 -2.2 M-4.2 -2.25 L-4.15 -2.25 -4.1 -2.25 -4.05 -2.2 -4.15 -2.2 -4.3 -2.2 -4.2 -2.25 -4.2 -2.25 M-3.2 -2.25 L-3.1 -2.3 -3.05 -2.25 -3.0 -2.25 -3.1 -2.25 -3.25 -2.25 -3.2 -2.25 M-1.55 -2.3 L-1.45 -2.35 -1.4 -2.3 -1.3 -2.3 -1.45 -2.3 -1.6 -2.3 -1.55 -2.3 M0.55 -2.35 L0.65 -2.35 0.75 -2.35 0.85 -2.35 0.65 -2.35 0.5 -2.35 0.55 -2.35 M7.35 -2.35 L7.5 -2.35 7.6 -2.35 7.75 -2.35 7.5 -2.35 7.25 -2.35 7.35 -2.35 M-12.75 -2.9 L-12.7 -2.95 -12.65 -2.9 -12.65 -2.9 -12.7 -2.9 -12.8 -2.9 -12.75 -2.9 -12.75 -2.9 M-11.15 -3.0 L-11.05 -3.0 -11.0 -3.0 -10.95 -3.0 -11.1 -3.0 -11.2 -3.0 -11.15 -3.0 -11.15 -3.0 M-10.1 -3.05 L-10.05 -3.05 -9.95 -3.05 -9.9 -3.0 -10.05 -3.0 -10.2 -3.0 -10.1 -3.05 M-9.25 -3.1 L-9.2 -3.1 -9.15 -3.1 -9.1 -3.05 -9.2 -3.05 -9.3 -3.05 -9.25 -3.1 M-8.5 -3.1 L-8.45 -3.15 -8.4 -3.1 -8.35 -3.1 -8.45 -3.1 -8.55 -3.1 -8.5 -3.1 M-6.6 -3.25 L-6.55 -3.25 -6.5 -3.25 -6.45 -3.2 -6.55 -3.2 -6.65 -3.2 -6.6 -3.25 M-5.25 -3.35 L-5.15 -3.35 -5.1 -3.35 -5.05 -3.3 -5.2 -3.3 -5.3 -3.3 -5.25 -3.35 -5.25 -3.35 M-4.4 -3.35 L-4.35 -3.4 -4.3 -3.35 -4.25 -3.35 -4.35 -3.35 -4.5 -3.35 -4.4 -3.35 -4.4 -3.35 M-3.4 -3.4 L-3.35 -3.45 -3.25 -3.4 -3.2 -3.4 -3.35 -3.4 -3.45 -3.4 -3.4 -3.4 M-2.0 -3.45 L-1.9 -3.45 -1.85 -3.45 -1.75 -3.45 -1.9 -3.45 -2.1 -3.45 -2.0 -3.45 -2.0 -3.45 M9.25 -3.45 L9.3 -3.45 9.35 -3.45 9.4 -3.45 9.3 -3.45 9.2 -3.45 9.25 -3.45 M0.1 -3.5 L0.15 -3.5 0.25 -3.5 0.35 -3.45 0.15 -3.45 0.0 -3.45 0.1 -3.5 M7.75 -3.5 L7.8 -3.5 7.85 -3.5 7.85 -3.45 7.8 -3.45 7.7 -3.45 7.75 -3.5 7.75 -3.5 M8.05 -3.5 L8.15 -3.5 8.25 -3.5 8.3 -3.45 8.15 -3.45 7.95 -3.45 8.05 -3.5 M3.35 -3.55 L3.55 -3.55 3.7 -3.55 3.9 -3.5 3.55 -3.5 3.2 -3.5 3.35 -3.55 M4.0 -3.55 L4.05 -3.55 4.1 -3.55 4.15 -3.5 4.05 -3.5 3.95 -3.5 4.0 -3.55 M4.25 -3.55 L4.3 -3.55 4.35 -3.55 4.4 -3.5 4.3 -3.5 4.2 -3.5 4.25 -3.55 M4.65 -3.55 L4.8 -3.55 4.95 -3.55 5.1 -3.5 4.8 -3.5 4.45 -3.5 4.65 -3.55 4.65 -3.55" fill="#8f8f8f" fill-rule="evenodd" stroke="none"/>
    <path d="M9.1 13.15 L9.15 13.15 9.2 13.15 9.25 13.15 9.15 13.15 9.05 13.15 9.1 13.15 M-13.4 4.9 L-13.5 4.8 -13.4 4.85 -13.35 4.95 -13.35 4.95 -13.35 4.95 -13.35 4.95 -13.35 4.95 -13.4 4.9 M9.7 4.25 L9.65 4.15 9.7 4.2 9.75 4.3 9.75 4.3 9.75 4.3 9.75 4.3 9.75 4.3 9.7 4.25 M-13.05 3.9 L-13.0 3.9 -12.95 3.9 -12.9 3.95 -13.0 3.95 -13.1 3.95 -13.05 3.9 M-11.0 -1.85 L-10.95 -1.9 -10.95 -1.85 -10.9 -1.85 -11.0 -1.85 -11.1 -1.85 -11.0 -1.85 -11.0 -1.85 M-10.05 -1.9 L-10.0 -1.9 -9.95 -1.9 -9.9 -1.9 -10.0 -1.9 -10.1 -1.9 -10.05 -1.9 M-7.15 -2.05 L-7.1 -2.1 -7.1 -2.05 -7.05 -2.05 -7.15 -2.05 -7.2 -2.05 -7.15 -2.05 -7.15 -2.05 M-3.35 -2.25 L-3.3 -2.3 -3.25 -2.25 -3.2 -2.25 -3.3 -2.25 -3.45 -2.25 -3.35 -2.25 -3.35 -2.25 M-1.8 -2.3 L-1.7 -2.35 -1.65 -2.3 -1.55 -2.3 -1.7 -2.3 -1.9 -2.3 -1.8 -2.3 -1.8 -2.3 M0.15 -2.35 L0.3 -2.35 0.4 -2.35 0.5 -2.35 0.25 -2.35 0.05 -2.35 0.15 -2.35 0.15 -2.35 M7.85 -2.35 L7.95 -2.35 8.05 -2.35 8.15 -2.35 7.95 -2.35 7.7 -2.35 7.85 -2.35 M3.8 -2.4 L4.15 -2.4 4.5 -2.4 4.85 -2.4 4.15 -2.4 3.5 -2.4 3.8 -2.4 M-13.45 -2.65 L-13.45 -2.7 -13.4 -2.75 -13.3 -2.8 -13.35 -2.7 -13.4 -2.65 -13.45 -2.65 -13.45 -2.65 -13.45 -2.65 M-12.0 -2.95 L-11.9 -3.0 -11.85 -2.95 -11.75 -2.95 -11.9 -2.95 -12.05 -2.95 -12.0 -2.95 M-8.35 -3.1 L-8.3 -3.15 -8.25 -3.1 -8.25 -3.1 -8.3 -3.1 -8.4 -3.1 -8.35 -3.1 -8.35 -3.1 M-7.1 -3.2 L-7.05 -3.25 -7.0 -3.2 -6.95 -3.2 -7.05 -3.2 -7.15 -3.2 -7.1 -3.2 M-5.8 -3.3 L-5.75 -3.3 -5.75 -3.3 -5.7 -3.25 -5.8 -3.25 -5.85 -3.25 -5.8 -3.3 -5.8 -3.3 M-1.6 -3.45 L-1.55 -3.45 -1.5 -3.45 -1.5 -3.4 -1.55 -3.4 -1.65 -3.45 -1.6 -3.45 -1.6 -3.45 M-1.4 -3.45 L-1.35 -3.45 -1.3 -3.45 -1.3 -3.4 -1.35 -3.4 -1.45 -3.45 -1.4 -3.45 -1.4 -3.45 M9.1 -3.45 L9.15 -3.45 9.2 -3.45 9.2 -3.4 9.15 -3.4 9.05 -3.45 9.1 -3.45 9.1 -3.45 M0.4 -3.5 L0.5 -3.5 0.6 -3.5 0.7 -3.45 0.5 -3.45 0.3 -3.45 0.4 -3.5 M0.75 -3.5 L0.8 -3.5 0.85 -3.5 0.9 -3.45 0.8 -3.45 0.7 -3.45 0.75 -3.5 0.75 -3.5 M7.25 -3.5 L7.3 -3.5 7.35 -3.5 7.4 -3.45 7.3 -3.45 7.2 -3.45 7.25 -3.5 M7.5 -3.5 L7.55 -3.5 7.65 -3.5 7.75 -3.45 7.55 -3.45 7.4 -3.45 7.5 -3.5 M7.9 -3.5 L7.95 -3.5 7.95 -3.5 8.0 -3.45 7.9 -3.45 7.85 -3.45 7.9 -3.5 7.9 -3.5 M4.15 -3.55 L4.2 -3.55 4.25 -3.55 4.25 -3.5 4.15 -3.5 4.1 -3.5 4.15 -3.55 4.15 -3.55" fill="#6f6f6f" fill-rule="evenodd" stroke="none"/>
    <path d="M-13.55 13.0 L-13.5 13.0 -13.45 13.0 -13.4 13.05 -13.5 13.05 -13.6 13.05 -13.55 13.0 M9.65 5.1 L9.65 5.1 9.7 5.05 9.8 5.0 9.75 5.05 9.7 5.1 9.65 5.1 9.65 5.1 9.65 5.1 M-13.45 4.15 L-13.45 4.1 -13.4 4.05 -13.3 4.0 -13.35 4.05 -13.4 4.15 -13.45 4.15 -13.45 4.15 -13.45 4.15 M-12.15 -1.8 L-12.1 -1.85 -12.1 -1.8 -12.05 -1.8 -12.15 -1.8 -12.2 -1.8 -12.15 -1.8 -12.15 -1.8 M-11.2 -1.85 L-11.15 -1.9 -11.1 -1.85 -11.05 -1.85 -11.15 -1.85 -11.3 -1.85 -11.2 -1.85 -11.2 -1.85 M-10.15 -1.9 L-10.1 -1.95 -10.1 -1.9 -10.05 -1.9 -10.15 -1.9 -10.2 -1.9 -10.15 -1.9 -10.15 -1.9 M-9.3 -1.95 L-9.25 -1.95 -9.15 -1.95 -9.1 -1.9 -9.25 -1.9 -9.35 -1.9 -9.3 -1.95 M-8.55 -2.0 L-8.5 -2.0 -8.45 -2.0 -8.4 -1.95 -8.5 -1.95 -8.6 -1.95 -8.55 -2.0 M-7.85 -2.05 L-7.8 -2.05 -7.75 -2.0 -7.75 -2.0 -7.85 -2.0 -7.9 -2.0 -7.85 -2.05 -7.85 -2.05 M-6.65 -2.1 L-6.6 -2.15 -6.55 -2.1 -6.5 -2.1 -6.6 -2.1 -6.7 -2.1 -6.65 -2.1 M-5.25 -2.2 L-5.2 -2.2 -5.15 -2.2 -5.1 -2.15 -5.2 -2.15 -5.3 -2.15 -5.25 -2.2 M-4.45 -2.25 L-4.4 -2.25 -4.35 -2.25 -4.3 -2.2 -4.4 -2.2 -4.55 -2.2 -4.45 -2.25 -4.45 -2.25 M-3.5 -2.25 L-3.45 -2.3 -3.4 -2.25 -3.4 -2.25 -3.45 -2.25 -3.55 -2.25 -3.5 -2.25 -3.5 -2.25 M-2.1 -2.3 L-2.05 -2.35 -1.95 -2.3 -1.85 -2.3 -2.05 -2.3 -2.2 -2.3 -2.1 -2.3 M9.25 -2.3 L9.3 -2.35 9.35 -2.3 9.4 -2.3 9.3 -2.3 9.2 -2.3 9.25 -2.3 M9.7 -2.3 L9.75 -2.35 9.8 -2.3 9.8 -2.3 9.75 -2.3 9.65 -2.3 9.7 -2.3 9.7 -2.3 M-0.2 -2.35 L-0.1 -2.35 0.0 -2.35 0.05 -2.35 -0.1 -2.35 -0.3 -2.35 -0.2 -2.35 M8.2 -2.35 L8.3 -2.35 8.4 -2.35 8.45 -2.35 8.3 -2.35 8.1 -2.35 8.2 -2.35 8.2 -2.35 M2.95 -2.4 L3.15 -2.4 3.35 -2.4 3.55 -2.4 3.1 -2.4 2.7 -2.4 2.95 -2.4 2.95 -2.4 M4.95 -2.4 L5.15 -2.4 5.3 -2.4 5.5 -2.4 5.15 -2.4 4.8 -2.4 4.95 -2.4 M10.3 -2.85 L10.3 -2.9 10.35 -2.85 10.35 -2.8 10.3 -2.8 10.3 -2.75 10.3 -2.85 10.3 -2.85 M-11.75 -2.95 L-11.7 -3.0 -11.7 -2.95 -11.65 -2.95 -11.75 -2.95 -11.8 -2.95 -11.75 -2.95 -11.75 -2.95 M-10.8 -3.0 L-10.75 -3.0 -10.65 -3.0 -10.6 -3.0 -10.75 -3.0 -10.9 -3.0 -10.8 -3.0 -10.8 -3.0 M-9.8 -3.05 L-9.7 -3.05 -9.65 -3.05 -9.55 -3.0 -9.7 -3.0 -9.85 -3.0 -9.8 -3.05 M-8.95 -3.1 L-8.9 -3.1 -8.85 -3.1 -8.75 -3.05 -8.9 -3.05 -9.05 -3.05 -8.95 -3.1 M-7.65 -3.15 L-7.55 -3.2 -7.5 -3.15 -7.45 -3.15 -7.6 -3.15 -7.7 -3.15 -7.65 -3.15 -7.65 -3.15 M10.15 -3.2 L10.05 -3.3 10.15 -3.2 10.2 -3.15 10.2 -3.15 10.2 -3.15 10.2 -3.15 10.2 -3.15 10.15 -3.2 M-6.95 -3.2 L-6.9 -3.25 -6.9 -3.2 -6.85 -3.2 -6.95 -3.2 -7.0 -3.2 -6.95 -3.2 -6.95 -3.2 M-6.35 -3.25 L-6.3 -3.25 -6.25 -3.25 -6.25 -3.2 -6.3 -3.2 -6.4 -3.2 -6.35 -3.25 -6.35 -3.25 M-5.6 -3.3 L-5.55 -3.3 -5.55 -3.3 -5.5 -3.25 -5.6 -3.25 -5.65 -3.25 -5.6 -3.3 -5.6 -3.3 M-4.95 -3.35 L-4.85 -3.35 -4.8 -3.35 -4.75 -3.3 -4.85 -3.3 -5.0 -3.3 -4.95 -3.35 M-4.15 -3.35 L-4.05 -3.4 -4.0 -3.35 -3.9 -3.35 -4.05 -3.35 -4.2 -3.35 -4.15 -3.35 M-3.05 -3.4 L-2.95 -3.45 -2.9 -3.4 -2.8 -3.4 -3.0 -3.4 -3.15 -3.4 -3.05 -3.4 -3.05 -3.4 M-1.2 -3.45 L-1.15 -3.45 -1.05 -3.45 -0.95 -3.45 -1.15 -3.45 -1.3 -3.45 -1.2 -3.45 M8.95 -3.45 L9.0 -3.45 9.05 -3.45 9.1 -3.45 9.0 -3.45 8.85 -3.45 8.95 -3.45 8.95 -3.45 M1.0 -3.5 L1.15 -3.5 1.3 -3.5 1.45 -3.5 1.15 -3.5 0.9 -3.5 1.0 -3.5 1.0 -3.5 M1.6 -3.5 L1.65 -3.5 1.65 -3.5 1.7 -3.45 1.6 -3.45 1.55 -3.45 1.6 -3.5 1.6 -3.5 M6.45 -3.5 L6.5 -3.5 6.5 -3.5 6.55 -3.45 6.45 -3.45 6.35 -3.45 6.45 -3.5 6.45 -3.5 M6.75 -3.5 L6.9 -3.5 7.05 -3.5 7.25 -3.5 6.9 -3.5 6.6 -3.5 6.75 -3.5" fill="#4f4f4f" fill-rule="evenodd" stroke="none"/>
    <path d="M9.55 12.95 L9.6 12.9 9.65 12.9 9.65 12.9 9.6 12.95 9.5 13.05 9.5 13.05 9.45 13.05 9.55 12.95 M-13.9 12.85 L-13.95 12.8 -13.9 12.85 -13.8 12.9 -13.8 12.9 -13.8 12.95 -13.85 12.95 -13.85 12.95 -13.9 12.85 M-2.3 8.75 L-2.25 8.75 -2.25 8.75 -2.2 8.8 -2.3 8.8 -2.35 8.75 -2.3 8.75 -2.3 8.75 M9.85 4.65 L9.85 4.55 9.9 4.6 9.9 4.65 9.9 4.7 9.85 4.75 9.85 4.65 M-13.55 4.5 L-13.55 4.35 -13.55 4.45 -13.55 4.5 -13.55 4.55 -13.55 4.6 -13.55 4.5 -13.55 4.5 M9.2 4.1 L9.25 4.1 9.25 4.1 9.3 4.15 9.2 4.15 9.15 4.15 9.2 4.1 9.2 4.1 M9.4 4.1 L9.45 4.1 9.45 4.1 9.5 4.15 9.4 4.15 9.35 4.15 9.4 4.1 9.4 4.1 M-13.2 3.95 L-13.1 3.95 -13.1 3.95 -13.1 4.0 -13.15 4.0 -13.25 3.95 -13.2 3.95 -13.2 3.95 M-12.9 3.95 L-12.85 3.95 -12.8 3.95 -12.8 4.0 -12.85 4.0 -12.95 3.95 -12.9 3.95 -12.9 3.95 M-12.85 -1.8 L-12.8 -1.8 -12.75 -1.8 -12.7 -1.75 -12.8 -1.75 -12.9 -1.75 -12.85 -1.8 M-12.4 -1.8 L-12.3 -1.85 -12.25 -1.8 -12.15 -1.8 -12.3 -1.8 -12.45 -1.8 -12.4 -1.8 M-11.5 -1.85 L-11.4 -1.9 -11.35 -1.85 -11.25 -1.85 -11.4 -1.85 -11.6 -1.85 -11.5 -1.85 M-13.4 -1.95 L-13.5 -2.0 -13.4 -1.95 -13.35 -1.9 -13.35 -1.9 -13.35 -1.9 -13.35 -1.9 -13.35 -1.9 -13.4 -1.95 M-10.45 -1.9 L-10.35 -1.9 -10.25 -1.9 -10.2 -1.9 -10.35 -1.9 -10.55 -1.9 -10.45 -1.9 M-9.55 -1.95 L-9.45 -1.95 -9.4 -1.95 -9.3 -1.95 -9.45 -1.95 -9.65 -1.95 -9.55 -1.95 M-8.75 -2.0 L-8.7 -2.0 -8.65 -2.0 -8.55 -1.95 -8.7 -1.95 -8.85 -1.95 -8.75 -2.0 M-8.05 -2.05 L-7.95 -2.05 -7.9 -2.0 -7.85 -2.0 -8.0 -2.0 -8.1 -2.0 -8.05 -2.05 -8.05 -2.05 M-7.45 -2.05 L-7.4 -2.1 -7.3 -2.05 -7.25 -2.05 -7.4 -2.05 -7.55 -2.05 -7.45 -2.05 M-6.8 -2.1 L-6.75 -2.15 -6.7 -2.1 -6.65 -2.1 -6.75 -2.1 -6.85 -2.1 -6.8 -2.1 M-6.1 -2.15 L-6.05 -2.15 -6.0 -2.15 -5.95 -2.15 -6.05 -2.15 -6.2 -2.15 -6.1 -2.15 -6.1 -2.15 M-5.45 -2.2 L-5.35 -2.2 -5.3 -2.2 -5.25 -2.15 -5.4 -2.15 -5.5 -2.15 -5.45 -2.2 -5.45 -2.2 M-4.7 -2.25 L-4.65 -2.25 -4.55 -2.25 -4.5 -2.2 -4.65 -2.2 -4.8 -2.2 -4.7 -2.25 -4.7 -2.25 M-3.8 -2.25 L-3.7 -2.3 -3.6 -2.25 -3.5 -2.25 -3.7 -2.25 -3.9 -2.25 -3.8 -2.25 M-2.6 -2.3 L-2.5 -2.35 -2.3 -2.3 -2.15 -2.3 -2.45 -2.3 -2.75 -2.3 -2.6 -2.3 -2.6 -2.3 M9.45 -2.3 L9.55 -2.35 9.65 -2.3 9.7 -2.3 9.55 -2.3 9.4 -2.3 9.45 -2.3 9.45 -2.3 M-0.7 -2.35 L-0.55 -2.35 -0.4 -2.35 -0.25 -2.35 -0.55 -2.35 -0.85 -2.35 -0.7 -2.35 M8.55 -2.35 L8.65 -2.35 8.8 -2.35 8.95 -2.35 8.65 -2.35 8.4 -2.35 8.55 -2.35 M1.65 -2.4 L1.7 -2.4 1.7 -2.4 1.75 -2.35 1.65 -2.35 1.55 -2.35 1.65 -2.4 1.65 -2.4 M2.0 -2.4 L2.25 -2.4 2.5 -2.4 2.75 -2.4 2.25 -2.4 1.75 -2.4 2.0 -2.4 M5.65 -2.4 L5.9 -2.4 6.1 -2.4 6.35 -2.4 5.9 -2.4 5.45 -2.4 5.65 -2.4 5.65 -2.4 M6.4 -2.4 L6.45 -2.4 6.5 -2.4 6.55 -2.35 6.45 -2.35 6.35 -2.35 6.4 -2.4 M10.1 -2.4 L10.1 -2.45 10.15 -2.5 10.25 -2.55 10.2 -2.5 10.1 -2.4 10.1 -2.4 10.1 -2.4 10.1 -2.4 M-12.9 -2.9 L-12.85 -2.9 -12.8 -2.9 -12.75 -2.85 -12.85 -2.85 -13.0 -2.85 -12.9 -2.9 -12.9 -2.9 M-12.45 -2.9 L-12.35 -2.95 -12.3 -2.9 -12.2 -2.9 -12.35 -2.9 -12.5 -2.9 -12.45 -2.9 M-11.55 -2.95 L-11.4 -3.0 -11.3 -2.95 -11.15 -2.95 -11.4 -2.95 -11.7 -2.95 -11.55 -2.95 M-10.55 -3.0 L-10.45 -3.0 -10.35 -3.0 -10.25 -3.0 -10.45 -3.0 -10.65 -3.0 -10.55 -3.0 M-9.5 -3.05 L-9.45 -3.05 -9.35 -3.05 -9.25 -3.05 -9.45 -3.05 -9.6 -3.05 -9.5 -3.05 M-8.75 -3.1 L-8.65 -3.1 -8.6 -3.1 -8.5 -3.05 -8.65 -3.05 -8.8 -3.05 -8.75 -3.1 M-8.1 -3.1 L-8.05 -3.15 -7.95 -3.1 -7.9 -3.1 -8.05 -3.1 -8.2 -3.1 -8.1 -3.1 M-7.45 -3.15 L-7.4 -3.2 -7.35 -3.15 -7.35 -3.15 -7.4 -3.15 -7.5 -3.15 -7.45 -3.15 -7.45 -3.15 M-6.8 -3.2 L-6.75 -3.2 -6.65 -3.2 -6.6 -3.2 -6.75 -3.2 -6.9 -3.2 -6.8 -3.2 M-6.2 -3.25 L-6.15 -3.25 -6.05 -3.25 -6.0 -3.25 -6.15 -3.25 -6.3 -3.25 -6.2 -3.25 M-5.45 -3.3 L-5.4 -3.3 -5.35 -3.3 -5.25 -3.25 -5.4 -3.25 -5.55 -3.25 -5.45 -3.3 M-4.7 -3.35 L-4.6 -3.35 -4.5 -3.35 -4.45 -3.3 -4.6 -3.3 -4.75 -3.3 -4.7 -3.35 -4.7 -3.35 M-3.85 -3.35 L-3.8 -3.4 -3.7 -3.35 -3.6 -3.35 -3.8 -3.35 -3.95 -3.35 -3.85 -3.35 M-2.8 -3.4 L-2.75 -3.45 -2.75 -3.4 -2.7 -3.4 -2.8 -3.4 -2.85 -3.4 -2.8 -3.4 -2.8 -3.4 M-2.6 -3.4 L-2.45 -3.45 -2.35 -3.4 -2.25 -3.4 -2.45 -3.4 -2.7 -3.4 -2.6 -3.4 M9.4 -3.4 L9.5 -3.45 9.55 -3.4 9.65 -3.4 9.5 -3.4 9.35 -3.4 9.4 -3.4 M-0.75 -3.45 L-0.55 -3.45 -0.35 -3.45 -0.2 -3.45 -0.6 -3.45 -1.0 -3.45 -0.75 -3.45 -0.75 -3.45 M8.55 -3.45 L8.65 -3.45 8.8 -3.45 8.9 -3.45 8.65 -3.45 8.45 -3.45 8.55 -3.45 M1.45 -3.5 L1.5 -3.5 1.55 -3.5 1.55 -3.45 1.5 -3.45 1.4 -3.45 1.45 -3.5 1.45 -3.5 M1.95 -3.5 L2.2 -3.5 2.5 -3.5 2.8 -3.5 2.2 -3.5 1.65 -3.5 1.95 -3.5 1.95 -3.5 M5.6 -3.5 L5.85 -3.5 6.15 -3.5 6.4 -3.5 5.85 -3.5 5.3 -3.5 5.6 -3.5 M6.55 -3.5 L6.6 -3.5 6.65 -3.5 6.65 -3.45 6.55 -3.45 6.5 -3.45 6.55 -3.5 6.55 -3.5" fill="#2e2e2e" fill-rule="evenodd" stroke="none"/>
    <path d="M-13.2 -1.8 L-13.35 -1.9 -13.4 -2.0 -13.5 -2.1 -13.5 -2.25 -13.55 -2.4 -13.5 -2.55 -13.4 -2.7 -13.3 -2.75 -13.2 -2.8 -12.95 -2.85 -12.65 -2.9 -11.7 -2.95 -10.7 -2.95 -9.75 -3.0 -8.8 -3.05 -7.9 -3.1 -7.05 -3.15 -6.4 -3.2 -5.7 -3.25 -4.45 -3.3 -3.2 -3.4 -2.35 -3.4 -1.5 -3.4 1.35 -3.45 4.15 -3.5 6.7 -3.45 9.25 -3.4 9.55 -3.4 9.85 -3.35 10.0 -3.3 10.15 -3.2 10.2 -3.1 10.3 -2.95 10.3 -2.85 10.3 -2.7 10.2 -2.6 10.15 -2.45 10.0 -2.4 9.85 -2.35 8.1 -2.35 6.35 -2.4 4.05 -2.4 1.7 -2.4 -0.1 -2.35 -1.9 -2.35 -3.25 -2.3 -4.55 -2.25 -6.15 -2.15 -7.8 -2.05 -8.9 -2.0 -9.95 -1.9 -11.05 -1.9 -12.15 -1.85 -12.45 -1.8 -12.7 -1.8 -12.9 -1.75 -13.05 -1.75 -13.2 -1.8 -13.2 -1.8" fill="#000000" fill-rule="evenodd" stroke="none"/>
  </g>
</svg>
