<?xml version="1.0" encoding="UTF-8" standalone="no"?>
<svg xmlns:xlink="http://www.w3.org/1999/xlink" height="68.8px" width="42.0px" xmlns="http://www.w3.org/2000/svg">
  <g transform="matrix(1.0, 0.0, 0.0, 1.0, 21.0, 34.4)">
    <path d="M-14.15 11.45 L-14.35 11.45 -14.45 11.35 -14.6 11.25 -14.65 11.1 -14.75 10.95 -14.75 10.75 -14.7 10.55 -14.6 10.45 -14.55 10.35 -14.25 10.2 -13.95 10.05 -12.9 9.65 -11.85 9.25 -10.85 8.8 -9.8 8.4 -8.85 8.05 -7.9 7.65 -7.2 7.35 -6.5 7.05 -5.1 6.5 -3.75 5.95 -2.85 5.6 -1.9 5.25 1.15 4.15 4.2 3.05 7.05 2.15 9.85 1.25 10.2 1.15 10.5 1.1 10.7 1.1 10.9 1.15 11.0 1.25 11.15 1.35 11.2 1.5 11.25 1.65 11.2 1.8 11.15 2.0 11.05 2.1 10.9 2.25 9.0 2.85 7.05 3.45 4.5 4.35 1.95 5.2 -0.05 5.95 -2.0 6.65 -3.4 7.2 -4.8 7.75 -6.6 8.45 -8.35 9.2 -9.5 9.65 -10.6 10.1 -11.85 10.6 -13.05 11.05 -13.3 11.2 -13.6 11.3 -13.8 11.4 -14.0 11.5 -14.15 11.45 -14.15 11.45" fill="#000000" fill-rule="evenodd" stroke="none"/>
  </g>
</svg>
