<?xml version="1.0" encoding="UTF-8" standalone="no"?>
<svg xmlns:xlink="http://www.w3.org/1999/xlink" height="39.5px" width="40.0px" xmlns="http://www.w3.org/2000/svg">
  <g transform="matrix(1.0, 0.0, 0.0, 1.0, 20.0, 19.75)">
    <path d="M-5.4 18.05 L-5.5 17.95 -5.55 17.9 -5.55 17.85 -5.5 17.75 -5.45 17.65 -5.25 17.35 -5.1 17.05 -4.85 16.65 -4.55 16.2 -4.4 15.95 -4.25 15.7 -3.9 15.1 -3.5 14.45 -3.05 13.7 -2.55 12.95 -2.3 12.55 -2.1 12.15 -2.0 12.05 -1.95 11.95 -1.55 11.3 -1.15 10.7 -0.8 10.05 -0.4 9.45 -0.05 8.9 0.3 8.3 0.75 7.6 1.15 6.9 1.65 6.1 2.15 5.3 2.4 4.9 2.65 4.55 3.05 3.9 3.4 3.25 3.8 2.7 4.15 2.1 4.55 1.45 5.0 0.75 5.3 0.25 5.6 -0.25 5.65 -0.3 5.7 -0.4 5.75 -0.5 5.8 -0.6 5.85 -0.65 5.9 -0.65 6.0 -0.65 6.15 -0.65 6.2 -0.65 6.25 -0.6 6.3 -0.5 6.35 -0.4 6.4 -0.3 6.45 -0.25 6.75 0.25 7.05 0.75 7.5 1.45 7.9 2.1 8.25 2.7 8.6 3.25 9.0 3.9 9.4 4.55 9.65 4.9 9.85 5.3 10.35 6.1 10.85 6.9 11.3 7.6 11.7 8.3 12.1 8.9 12.45 9.45 12.8 10.05 13.2 10.7 13.6 11.3 13.95 11.95 14.2 12.35 14.45 12.75 14.55 12.85 14.6 12.95 15.05 13.7 15.55 14.45 15.9 15.1 16.3 15.7 16.45 15.95 16.6 16.2 16.85 16.65 17.15 17.05 17.3 17.35 17.5 17.65 17.55 17.75 17.6 17.85 17.55 17.9 17.55 17.95 17.45 18.05 17.35 18.15 6.0 18.15 -5.35 18.15 -5.4 18.05 M16.8 17.55 L16.75 17.5 16.45 16.95 16.15 16.45 15.95 16.15 15.8 15.85 15.4 15.25 15.0 14.6 14.6 14.0 14.25 13.4 14.0 12.95 13.75 12.55 13.65 12.4 13.55 12.2 13.1 11.55 12.7 10.85 12.3 10.25 11.9 9.6 11.75 9.35 11.6 9.15 11.35 8.7 11.1 8.25 10.9 7.95 10.7 7.65 10.5 7.3 10.3 6.95 9.9 6.35 9.5 5.7 9.2 5.2 8.85 4.7 8.5 4.05 8.1 3.4 7.8 2.95 7.5 2.5 7.45 2.35 7.35 2.2 7.0 1.6 6.6 1.05 6.35 0.6 6.1 0.2 6.05 0.15 6.0 0.1 5.95 0.15 5.95 0.2 5.55 0.85 5.15 1.45 4.95 1.85 4.7 2.2 4.6 2.35 4.5 2.5 4.25 2.95 3.95 3.4 3.55 4.05 3.15 4.7 2.85 5.2 2.55 5.7 2.15 6.35 1.75 6.95 1.55 7.3 1.35 7.65 1.15 7.95 0.95 8.25 0.7 8.7 0.4 9.15 0.25 9.35 0.1 9.6 -0.25 10.25 -0.65 10.85 -1.05 11.55 -1.5 12.2 -1.6 12.4 -1.7 12.55 -1.95 12.95 -2.2 13.4 -2.6 14.0 -2.95 14.6 -3.35 15.25 -3.75 15.85 -3.95 16.15 -4.1 16.45 -4.45 16.95 -4.75 17.5 -4.8 17.55 -4.85 17.65 6.0 17.65 16.9 17.65 16.8 17.55 M-1.0 15.9 L-1.05 15.85 -1.05 15.8 -1.05 15.75 -0.7 15.15 -0.35 14.55 0.2 13.6 0.8 12.6 1.25 11.8 1.75 11.0 2.15 10.3 2.55 9.6 2.7 9.35 2.85 9.15 3.3 8.35 3.75 7.55 4.1 7.05 4.4 6.5 4.9 5.65 5.4 4.8 5.65 4.4 5.85 4.0 5.9 3.95 5.95 3.9 6.0 3.9 6.1 3.9 6.15 3.95 6.2 4.0 6.4 4.4 6.65 4.8 7.15 5.65 7.65 6.5 7.95 7.05 8.3 7.55 8.75 8.35 9.2 9.15 9.35 9.35 9.5 9.6 9.9 10.3 10.3 11.0 10.8 11.8 11.25 12.6 11.85 13.6 12.4 14.55 12.75 15.15 13.1 15.75 13.1 15.8 13.1 15.85 13.05 15.9 13.0 16.0 6.0 16.0 -0.95 16.0 -1.0 15.9 M12.65 15.65 L12.65 15.6 12.65 15.6 12.6 15.55 12.35 15.15 12.15 14.75 11.55 13.75 10.95 12.75 10.45 11.9 9.95 11.0 9.55 10.4 9.2 9.75 8.95 9.35 8.7 9.0 8.4 8.4 8.05 7.85 7.65 7.2 7.3 6.55 6.9 5.9 6.55 5.3 6.3 4.85 6.05 4.4 6.0 4.4 6.0 4.4 5.75 4.85 5.5 5.3 5.15 5.9 4.75 6.55 4.35 7.2 4.0 7.85 3.65 8.4 3.3 9.0 3.1 9.35 2.85 9.75 2.5 10.4 2.1 11.0 1.6 11.9 1.1 12.75 0.5 13.75 -0.1 14.75 -0.35 15.15 -0.55 15.55 -0.6 15.6 -0.6 15.6 -0.6 15.65 -0.6 15.65 6.0 15.65 12.65 15.65 12.65 15.65" fill="#d0d0d0" fill-rule="evenodd" stroke="none"/>
    <path d="M-5.3 18.1 L-5.35 18.1 -5.45 18.0 -5.5 17.95 -5.5 17.85 -5.5 17.8 -5.5 17.7 -5.45 17.65 -5.15 17.15 -4.8 16.6 -4.35 15.9 -3.9 15.15 -3.45 14.45 -3.05 13.75 -2.75 13.3 -2.5 12.85 -2.05 12.15 -1.65 11.45 -1.55 11.35 -1.5 11.25 -1.1 10.6 -0.7 10.0 -0.4 9.45 -0.05 8.95 0.3 8.3 0.7 7.7 1.0 7.25 1.25 6.8 1.7 6.1 2.1 5.4 2.2 5.25 2.35 5.05 2.65 4.55 2.95 4.05 3.15 3.75 3.35 3.45 3.55 3.1 3.75 2.75 4.15 2.15 4.5 1.5 4.65 1.35 4.75 1.15 5.25 0.3 5.8 -0.55 5.85 -0.6 5.95 -0.65 6.0 -0.65 6.1 -0.65 6.2 -0.6 6.25 -0.55 6.8 0.3 7.3 1.15 7.4 1.35 7.5 1.5 7.9 2.15 8.3 2.75 8.5 3.1 8.7 3.45 8.9 3.75 9.1 4.05 9.4 4.55 9.7 5.05 9.8 5.25 9.95 5.4 10.35 6.1 10.8 6.8 11.05 7.25 11.35 7.7 11.75 8.3 12.1 8.95 12.45 9.45 12.75 10.0 13.15 10.6 13.55 11.25 13.6 11.35 13.65 11.45 14.1 12.15 14.5 12.85 14.8 13.3 15.1 13.75 15.5 14.45 15.95 15.15 16.4 15.9 16.85 16.6 17.15 17.15 17.5 17.65 17.5 17.7 17.55 17.8 17.55 17.85 17.55 17.95 17.45 18.05 17.35 18.15 6.05 18.15 -5.25 18.15 -5.3 18.1 M16.85 17.6 L16.85 17.6 16.65 17.3 16.45 16.95 16.05 16.3 15.7 15.7 15.35 15.15 15.05 14.65 14.75 14.2 14.45 13.75 14.1 13.1 13.7 12.45 13.25 11.75 12.8 11.0 12.7 10.85 12.65 10.75 12.25 10.15 11.85 9.5 11.6 9.05 11.3 8.6 10.35 7.05 9.4 5.5 9.05 4.95 8.7 4.35 8.6 4.2 8.45 4.0 8.1 3.4 7.7 2.75 7.6 2.6 7.5 2.4 7.0 1.65 6.55 0.9 6.3 0.5 6.05 0.05 6.0 0.05 6.0 0.05 5.75 0.5 5.5 0.9 5.0 1.65 4.55 2.4 4.45 2.6 4.35 2.75 3.95 3.4 3.55 4.0 3.45 4.2 3.35 4.35 3.0 4.95 2.65 5.5 1.7 7.05 0.75 8.6 0.45 9.05 0.2 9.5 -0.2 10.15 -0.6 10.75 -0.65 10.85 -0.75 11.0 -1.2 11.75 -1.65 12.45 -2.05 13.1 -2.45 13.75 -2.7 14.2 -3.0 14.65 -3.3 15.15 -3.65 15.7 -4.05 16.3 -4.4 16.95 -4.65 17.3 -4.85 17.6 -4.85 17.6 -4.85 17.65 6.0 17.65 16.85 17.65 16.85 17.6 M-0.95 15.95 L-1.0 15.95 -1.05 15.85 -1.05 15.8 -1.0 15.65 -0.95 15.55 0.0 13.95 0.95 12.35 1.15 12.0 1.35 11.65 1.8 10.9 2.25 10.15 2.85 9.1 3.45 8.05 3.65 7.8 3.8 7.5 4.85 5.75 5.9 4.0 5.9 3.95 5.95 3.95 6.0 3.95 6.1 3.95 6.1 3.95 6.15 4.0 7.2 5.75 8.25 7.5 8.4 7.8 8.55 8.05 9.2 9.1 9.8 10.15 10.25 10.9 10.65 11.65 10.9 12.0 11.1 12.35 12.05 13.95 13.0 15.55 13.05 15.65 13.1 15.8 13.05 15.85 13.05 15.95 13.0 15.95 12.95 16.0 6.0 16.0 -0.9 16.0 -0.95 15.95 M12.65 15.65 L12.65 15.6 12.25 14.95 11.9 14.3 11.45 13.55 10.95 12.75 10.6 12.15 10.2 11.5 10.05 11.2 9.9 10.95 9.45 10.2 9.0 9.45 8.6 8.75 8.2 8.1 7.55 7.0 6.9 5.9 6.5 5.2 6.1 4.55 6.05 4.45 6.0 4.4 6.0 4.45 5.95 4.55 5.55 5.2 5.15 5.9 4.45 7.0 3.8 8.1 3.45 8.75 3.05 9.45 2.6 10.2 2.15 10.95 2.0 11.2 1.8 11.5 1.45 12.15 1.05 12.75 0.6 13.55 0.15 14.3 -0.25 14.95 -0.6 15.6 -0.6 15.65 -0.6 15.65 6.0 15.65 12.65 15.65 12.65 15.65" fill="#b0b0b0" fill-rule="evenodd" stroke="none"/>
    <path d="M-5.35 18.1 L-5.4 18.05 -5.45 17.95 -5.5 17.85 -5.5 17.75 -5.45 17.7 -5.3 17.4 -5.1 17.1 -4.7 16.4 -4.25 15.7 -4.05 15.4 -3.85 15.05 -3.4 14.3 -2.95 13.6 -1.95 12.0 -1.0 10.45 -0.8 10.15 -0.6 9.8 -0.35 9.4 -0.1 9.0 0.6 7.85 1.3 6.7 1.8 5.95 2.25 5.2 2.5 4.75 2.8 4.3 3.2 3.65 3.6 3.05 3.9 2.55 4.2 2.0 4.6 1.4 5.0 0.75 5.1 0.6 5.2 0.4 5.5 -0.1 5.8 -0.6 5.85 -0.6 5.9 -0.65 6.0 -0.65 6.15 -0.65 6.15 -0.6 6.2 -0.6 6.5 -0.1 6.8 0.4 6.95 0.6 7.05 0.75 7.45 1.4 7.8 2.0 8.15 2.55 8.45 3.05 8.85 3.65 9.25 4.3 9.5 4.75 9.8 5.2 10.25 5.95 10.75 6.7 11.45 7.85 12.15 9.0 12.4 9.4 12.65 9.8 12.85 10.15 13.05 10.45 14.0 12.0 14.95 13.6 15.45 14.3 15.9 15.05 16.1 15.4 16.3 15.7 16.7 16.4 17.15 17.1 17.3 17.4 17.5 17.7 17.55 17.75 17.55 17.85 17.5 17.95 17.45 18.05 17.35 18.1 17.3 18.15 6.0 18.15 -5.25 18.15 -5.35 18.1 M16.5 17.0 L16.1 16.35 14.65 14.05 13.25 11.75 13.05 11.4 12.85 11.1 12.35 10.25 11.85 9.45 11.35 8.65 10.85 7.85 10.65 7.5 10.45 7.2 9.95 6.35 9.45 5.55 9.2 5.15 8.95 4.8 8.55 4.15 8.15 3.5 7.65 2.7 7.2 1.9 7.0 1.6 6.8 1.3 6.4 0.65 6.0 0.05 6.0 0.05 6.0 0.05 5.65 0.65 5.3 1.25 4.9 1.85 4.5 2.5 4.2 3.0 3.85 3.5 3.5 4.15 3.1 4.8 2.85 5.15 2.6 5.55 2.1 6.35 1.6 7.2 1.4 7.5 1.2 7.85 0.7 8.65 0.2 9.45 -0.3 10.25 -0.8 11.1 -1.0 11.4 -1.2 11.75 -2.65 14.05 -4.05 16.35 -4.45 17.0 -4.85 17.65 6.0 17.65 16.9 17.65 16.5 17.0 M-0.95 15.95 L-1.0 15.9 -1.05 15.85 -1.05 15.8 -1.0 15.7 -1.0 15.65 -0.6 15.0 -0.25 14.35 0.35 13.4 0.9 12.4 1.3 11.8 1.65 11.15 2.35 9.95 3.1 8.7 3.4 8.15 3.75 7.6 4.0 7.15 4.3 6.7 4.8 5.8 5.3 4.95 5.6 4.45 5.9 3.95 6.0 3.95 6.1 3.95 6.4 4.45 6.7 4.95 7.25 5.8 7.75 6.7 8.0 7.15 8.3 7.6 8.6 8.15 8.95 8.7 9.65 9.95 10.4 11.15 10.75 11.8 11.15 12.4 11.7 13.4 12.25 14.35 12.65 15.0 13.05 15.65 13.05 15.7 13.1 15.8 13.05 15.85 13.05 15.9 13.0 15.95 12.95 16.0 6.0 16.0 -0.9 16.0 -0.95 15.95 M12.65 15.6 L12.65 15.55 12.05 14.6 11.5 13.65 11.25 13.2 10.95 12.75 9.85 10.85 8.75 9.0 8.25 8.15 7.7 7.25 7.5 6.95 7.3 6.6 6.7 5.5 6.05 4.4 6.05 4.4 6.0 4.4 5.35 5.5 4.7 6.6 4.5 6.95 4.3 7.25 3.8 8.15 3.3 9.0 2.2 10.85 1.1 12.75 0.8 13.2 0.55 13.65 0.0 14.6 -0.6 15.55 -0.6 15.6 -0.6 15.65 6.0 15.65 12.65 15.65 12.65 15.6" fill="#909090" fill-rule="evenodd" stroke="none"/>
    <path d="M-0.6 18.1 L-5.35 18.1 -5.4 18.05 -5.45 18.0 -5.5 17.9 -5.5 17.85 -5.5 17.75 -5.45 17.7 -5.15 17.2 -4.85 16.7 -4.6 16.3 -4.35 15.9 -3.95 15.25 -3.55 14.55 -2.05 12.15 -0.55 9.7 -0.1 9.05 0.3 8.35 1.3 6.75 2.3 5.15 2.8 4.35 3.3 3.55 3.65 2.9 4.05 2.3 4.35 1.75 4.7 1.25 5.1 0.65 5.45 0.0 5.65 -0.3 5.85 -0.6 5.9 -0.65 6.0 -0.65 6.0 -0.65 6.05 -0.65 6.15 -0.65 6.2 -0.6 6.4 -0.3 6.55 0.0 6.95 0.65 7.35 1.25 7.65 1.75 8.0 2.3 8.4 2.9 8.75 3.55 9.25 4.35 9.75 5.15 10.75 6.75 11.75 8.35 12.15 9.05 12.55 9.7 14.05 12.15 15.55 14.55 16.0 15.25 16.4 15.9 16.65 16.3 16.9 16.7 17.2 17.2 17.5 17.7 17.55 17.8 17.55 17.85 17.5 17.95 17.5 18.05 17.4 18.05 17.35 18.1 10.75 18.1 4.2 18.15 -0.6 18.1 M16.85 17.6 L16.85 17.55 16.4 16.85 16.0 16.15 15.8 15.9 15.65 15.6 13.95 12.9 12.3 10.2 11.8 9.4 11.3 8.6 11.1 8.25 10.9 7.95 9.9 6.3 8.9 4.7 8.3 3.7 7.65 2.65 7.45 2.35 7.25 2.0 6.75 1.2 6.25 0.4 6.15 0.2 6.05 0.05 6.0 0.05 6.0 0.05 5.9 0.2 5.8 0.4 5.3 1.2 4.8 2.0 4.6 2.35 4.4 2.65 3.75 3.7 3.15 4.7 2.15 6.3 1.15 7.95 0.95 8.25 0.75 8.6 0.25 9.4 -0.25 10.2 -1.95 12.9 -3.6 15.6 -3.75 15.9 -3.95 16.15 -4.35 16.85 -4.8 17.55 -4.85 17.6 -4.85 17.65 6.0 17.65 16.9 17.65 16.85 17.6 M-0.95 15.95 L-1.05 15.85 -1.05 15.8 -1.05 15.75 -0.4 14.7 0.2 13.65 0.8 12.6 1.45 11.55 1.7 11.1 1.95 10.7 2.45 9.8 2.95 8.95 4.1 7.0 5.3 5.05 5.6 4.5 5.9 3.95 5.95 3.95 6.05 3.95 6.1 3.95 6.15 3.95 6.45 4.5 6.75 5.05 7.9 7.0 9.1 8.95 9.6 9.8 10.1 10.7 10.35 11.1 10.6 11.55 11.2 12.6 11.85 13.65 12.45 14.7 13.05 15.75 13.05 15.8 13.05 15.85 13.0 15.95 12.95 16.0 6.0 16.0 -0.9 16.0 -0.95 15.95 M12.7 15.65 L12.7 15.65 12.2 14.8 11.7 13.95 11.05 12.85 10.4 11.75 8.55 8.65 6.7 5.55 6.35 4.95 6.05 4.4 6.0 4.4 6.0 4.4 5.65 4.95 5.35 5.55 3.5 8.65 1.65 11.75 1.0 12.85 0.35 13.95 -0.15 14.8 -0.65 15.65 -0.65 15.65 -0.65 15.65 6.0 15.65 12.7 15.65 12.7 15.65" fill="#727272" fill-rule="evenodd" stroke="none"/>
    <path d="M-0.55 18.1 L-5.3 18.1 -5.4 18.05 -5.45 18.0 -5.5 17.9 -5.5 17.85 -5.45 17.7 -5.4 17.6 -4.65 16.35 -3.9 15.15 -3.45 14.45 -3.05 13.8 -2.5 12.9 -2.0 12.05 -1.0 10.5 -0.05 8.95 0.35 8.25 0.8 7.6 1.05 7.15 1.35 6.7 1.75 6.05 2.1 5.45 2.2 5.3 2.25 5.2 2.7 4.5 3.1 3.8 3.45 3.3 3.75 2.8 4.15 2.15 4.5 1.55 4.85 1.0 5.15 0.5 5.5 -0.05 5.85 -0.6 5.95 -0.65 6.0 -0.65 6.1 -0.65 6.2 -0.6 6.55 -0.05 6.9 0.5 7.2 1.0 7.5 1.55 7.9 2.15 8.3 2.8 8.6 3.3 8.95 3.8 9.35 4.5 9.8 5.2 9.85 5.3 9.95 5.45 10.3 6.05 10.7 6.7 11.0 7.15 11.25 7.6 11.7 8.25 12.1 8.95 13.05 10.5 14.0 12.05 14.55 12.9 15.1 13.8 15.5 14.45 15.9 15.15 16.65 16.35 17.45 17.6 17.5 17.7 17.55 17.85 17.5 17.95 17.5 18.05 17.4 18.05 17.35 18.1 10.75 18.1 4.2 18.15 -0.55 18.1 M16.9 17.6 L16.85 17.6 16.5 17.0 16.1 16.35 14.4 13.6 12.7 10.85 11.05 8.15 9.4 5.45 8.75 4.45 8.1 3.4 7.9 3.1 7.7 2.75 7.4 2.2 7.05 1.7 6.65 1.0 6.2 0.35 6.1 0.2 6.05 0.05 6.0 0.05 6.0 0.05 5.9 0.2 5.85 0.35 5.4 1.0 5.0 1.7 4.65 2.2 4.35 2.75 4.15 3.1 3.9 3.4 3.3 4.45 2.65 5.45 1.0 8.15 -0.7 10.85 -2.4 13.6 -4.1 16.35 -4.45 17.0 -4.85 17.6 -4.85 17.6 -4.85 17.65 6.0 17.65 16.9 17.65 16.9 17.6 M-0.9 15.95 L-0.95 15.95 -1.0 15.9 -1.05 15.85 -1.05 15.8 -1.05 15.75 -0.85 15.4 -0.65 15.05 -0.1 14.15 0.4 13.3 1.4 11.65 2.35 9.95 2.9 9.1 3.4 8.25 4.35 6.55 5.35 4.9 5.65 4.45 5.9 3.95 5.95 3.95 6.05 3.95 6.1 3.95 6.15 3.95 6.4 4.45 6.7 4.9 7.65 6.55 8.65 8.25 9.15 9.1 9.65 9.95 10.65 11.65 11.65 13.3 12.15 14.15 12.65 15.05 12.85 15.4 13.05 15.75 13.05 15.8 13.05 15.85 13.0 15.9 12.95 15.95 6.05 15.95 -0.85 16.0 -0.9 15.95 M12.7 15.65 L12.7 15.65 11.7 14.0 10.75 12.4 10.3 11.6 9.8 10.75 9.55 10.35 9.35 10.0 8.9 9.25 8.45 8.5 8.05 7.85 7.7 7.2 7.05 6.05 6.35 4.95 6.2 4.65 6.0 4.35 6.0 4.35 6.0 4.35 5.45 5.3 4.9 6.25 4.45 7.0 4.0 7.75 3.45 8.7 2.9 9.65 2.65 10.1 2.35 10.55 2.1 11.05 1.8 11.5 1.3 12.35 0.85 13.15 0.1 14.4 -0.65 15.65 -0.65 15.65 -0.65 15.7 6.0 15.7 12.7 15.7 12.7 15.65" fill="#4f4f4f" fill-rule="evenodd" stroke="none"/>
    <path d="M-5.3 18.1 L-5.35 18.05 -5.45 18.0 -5.5 17.95 -5.5 17.85 -5.5 17.75 -5.45 17.7 -5.4 17.6 -5.15 17.2 -4.9 16.8 -4.45 16.05 -4.0 15.35 -3.2 14.05 -2.45 12.8 -1.55 11.35 -0.65 9.95 -0.15 9.05 0.4 8.2 0.6 7.85 0.8 7.55 1.3 6.75 1.8 5.95 2.0 5.65 2.15 5.35 2.65 4.55 3.15 3.75 3.85 2.6 4.55 1.45 4.8 1.05 5.05 0.7 5.3 0.25 5.55 -0.15 5.7 -0.35 5.8 -0.55 5.85 -0.6 5.9 -0.65 6.0 -0.65 6.15 -0.65 6.2 -0.6 6.25 -0.55 6.35 -0.35 6.45 -0.15 6.75 0.25 7.0 0.7 7.2 1.05 7.45 1.45 8.15 2.6 8.9 3.75 9.4 4.55 9.85 5.35 10.05 5.65 10.25 5.95 10.75 6.75 11.2 7.55 11.45 7.85 11.65 8.2 12.15 9.05 12.7 9.95 13.6 11.35 14.45 12.8 15.25 14.05 16.05 15.35 16.5 16.05 16.95 16.8 17.2 17.2 17.45 17.6 17.5 17.7 17.5 17.75 17.5 17.85 17.5 17.95 17.45 18.0 17.35 18.1 6.05 18.1 -5.25 18.1 -5.3 18.1 M16.9 17.65 L16.9 17.6 14.5 13.75 12.1 9.85 11.7 9.2 11.3 8.5 10.9 7.9 10.5 7.25 10.2 6.75 9.85 6.25 9.45 5.55 9.0 4.85 8.75 4.45 8.5 4.05 8.25 3.65 8.05 3.25 7.55 2.5 7.1 1.75 6.85 1.35 6.6 0.95 6.3 0.5 6.05 0.05 6.0 0.05 6.0 0.05 5.7 0.5 5.45 0.95 5.2 1.35 4.95 1.75 4.45 2.5 4.0 3.25 3.75 3.65 3.55 4.05 3.3 4.45 3.05 4.85 2.6 5.55 2.2 6.25 1.85 6.75 1.55 7.25 1.15 7.9 0.75 8.5 0.35 9.2 -0.05 9.85 -2.45 13.75 -4.85 17.6 -4.85 17.65 -4.85 17.65 6.0 17.65 16.9 17.65 16.9 17.65 M1.95 15.95 L-0.95 15.95 -1.0 15.9 -1.05 15.85 -1.05 15.8 -1.05 15.75 -0.5 14.85 0.0 14.0 0.5 13.1 1.05 12.2 1.5 11.4 2.0 10.6 2.6 9.55 3.25 8.5 3.55 7.95 3.9 7.4 4.25 6.85 4.55 6.25 4.9 5.7 5.2 5.15 5.55 4.6 5.9 4.0 5.9 4.0 5.95 3.95 6.0 3.95 6.1 3.95 6.1 4.0 6.15 4.0 6.5 4.6 6.8 5.15 7.15 5.7 7.5 6.25 7.8 6.85 8.15 7.4 8.45 7.95 8.8 8.5 9.4 9.55 10.05 10.6 10.5 11.4 11.0 12.2 11.5 13.1 12.05 14.0 12.55 14.85 13.05 15.75 13.05 15.8 13.05 15.85 13.05 15.9 13.0 15.95 8.95 15.95 4.9 15.95 1.95 15.95 M12.65 15.65 L12.65 15.6 12.0 14.5 11.4 13.45 10.9 12.65 10.45 11.85 9.9 10.95 9.4 10.1 8.95 9.3 8.45 8.45 7.95 7.6 7.4 6.7 6.95 5.9 6.45 5.1 6.25 4.7 6.0 4.35 6.0 4.4 5.95 4.45 5.55 5.15 5.15 5.85 4.65 6.65 4.2 7.45 3.65 8.35 3.15 9.25 2.65 10.05 2.2 10.85 1.65 11.7 1.15 12.6 0.75 13.3 0.3 14.05 -0.15 14.8 -0.6 15.6 -0.65 15.65 -0.65 15.7 6.0 15.7 12.7 15.7 12.65 15.65" fill="#2f2f2f" fill-rule="evenodd" stroke="none"/>
    <path d="M-5.3 18.1 L-5.4 18.05 -5.45 18.0 -5.5 17.95 -5.5 17.85 -5.5 17.8 -5.45 17.7 -5.35 17.6 -4.9 16.85 -4.45 16.1 -3.0 13.75 -1.55 11.4 -1.1 10.65 -0.65 9.95 0.05 8.85 0.7 7.75 0.95 7.35 1.2 6.95 1.45 6.5 1.75 6.05 2.15 5.4 2.55 4.8 2.85 4.25 3.15 3.75 3.55 3.15 3.95 2.5 4.5 1.65 5.0 0.75 5.4 0.1 5.8 -0.55 5.9 -0.6 5.95 -0.65 6.0 -0.65 6.1 -0.65 6.15 -0.6 6.2 -0.55 6.6 0.1 7.0 0.75 7.55 1.65 8.1 2.5 8.5 3.15 8.85 3.75 9.2 4.25 9.5 4.8 9.9 5.4 10.3 6.05 10.55 6.5 10.85 6.95 11.1 7.35 11.35 7.75 12.0 8.85 12.7 9.95 13.15 10.65 13.6 11.4 15.05 13.75 16.5 16.1 16.95 16.85 17.4 17.6 17.45 17.7 17.5 17.8 17.5 17.85 17.5 17.95 17.45 18.0 17.4 18.05 17.3 18.1 17.2 18.1 6.0 18.1 -5.2 18.1 -5.3 18.1 -5.3 18.1 M16.9 17.65 L16.9 17.65 16.6 17.15 16.3 16.65 15.9 16.0 15.55 15.4 15.05 14.6 14.55 13.8 14.05 13.0 13.55 12.15 13.05 11.4 12.55 10.6 12.4 10.3 12.2 10.0 11.95 9.6 11.7 9.25 11.25 8.5 10.8 7.75 10.3 6.95 9.8 6.15 9.4 5.5 9.05 4.9 8.7 4.35 8.4 3.85 8.15 3.45 7.9 3.05 7.5 2.35 7.05 1.7 6.65 1.0 6.2 0.3 6.1 0.15 6.05 0.0 6.0 0.0 6.0 0.0 5.9 0.15 5.85 0.3 5.4 1.0 5.0 1.7 4.55 2.35 4.15 3.05 3.9 3.45 3.65 3.85 3.3 4.35 3.0 4.9 2.6 5.5 2.25 6.15 1.75 6.95 1.25 7.75 0.8 8.5 0.3 9.25 0.1 9.6 -0.15 10.0 -0.35 10.3 -0.5 10.6 -1.0 11.4 -1.5 12.15 -2.0 13.0 -2.5 13.8 -3.0 14.6 -3.5 15.4 -3.9 16.0 -4.25 16.65 -4.55 17.15 -4.9 17.65 -4.9 17.65 -4.9 17.65 6.0 17.65 16.9 17.65 16.9 17.65 M-1.0 15.9 L-1.05 15.85 -1.05 15.8 -1.05 15.75 -0.9 15.55 -0.8 15.35 -0.35 14.6 0.05 13.9 0.3 13.5 0.55 13.05 0.85 12.55 1.15 12.0 1.25 11.9 1.3 11.8 1.6 11.25 1.95 10.7 2.05 10.5 2.2 10.3 2.25 10.2 2.3 10.1 2.65 9.5 3.05 8.85 3.55 7.95 4.1 7.1 4.55 6.25 5.05 5.45 5.15 5.3 5.2 5.2 5.25 5.1 5.3 5.0 5.6 4.5 5.9 4.0 5.95 3.95 6.05 3.95 6.05 3.95 6.1 4.0 6.45 4.5 6.75 5.0 6.8 5.1 6.85 5.2 6.9 5.3 7.0 5.45 7.5 6.25 7.95 7.1 8.5 7.95 9.0 8.85 9.35 9.5 9.75 10.1 9.8 10.2 9.85 10.3 10.0 10.5 10.1 10.7 10.45 11.25 10.75 11.8 10.8 11.9 10.85 12.0 11.2 12.55 11.5 13.05 11.75 13.5 12.0 13.9 12.4 14.6 12.85 15.35 12.95 15.55 13.05 15.75 13.05 15.8 13.05 15.85 13.0 15.9 12.95 15.95 6.0 15.95 -0.95 15.95 -1.0 15.9 M12.7 15.65 L12.7 15.65 12.35 15.1 12.05 14.55 11.7 13.95 11.35 13.4 11.0 12.8 10.7 12.25 10.35 11.7 10.05 11.15 10.0 11.05 9.95 10.95 9.8 10.75 9.7 10.55 9.35 10.0 9.05 9.5 8.65 8.8 8.25 8.15 8.2 8.05 8.15 7.95 7.85 7.4 7.5 6.85 7.3 6.45 7.05 6.1 6.55 5.25 6.05 4.35 6.0 4.35 6.0 4.35 5.5 5.25 5.0 6.1 4.75 6.45 4.55 6.85 4.2 7.4 3.9 7.95 3.85 8.05 3.75 8.15 3.4 8.8 3.0 9.5 2.65 10.0 2.35 10.55 2.25 10.75 2.1 10.95 2.05 11.05 2.0 11.15 1.7 11.7 1.35 12.25 1.0 12.8 0.7 13.4 0.35 13.95 0.0 14.55 -0.3 15.1 -0.65 15.65 -0.65 15.65 -0.65 15.7 6.0 15.7 12.7 15.7 12.7 15.65" fill="#000000" fill-rule="evenodd" stroke="none"/>
  </g>
</svg>
