<?xml version="1.0" encoding="UTF-8" standalone="no"?>
<svg xmlns:xlink="http://www.w3.org/1999/xlink" height="6.65px" width="80.15px" xmlns="http://www.w3.org/2000/svg">
  <g transform="matrix(1.0, 0.0, 0.0, 1.0, 40.05, 3.35)">
    <path d="M-34.7 0.7 Q-34.7 0.85 -34.7 0.95 -34.75 1.1 -34.75 1.2 -34.8 1.35 -34.8 1.45 -34.85 1.55 -34.9 1.7 -34.95 1.8 -35.0 1.9 -35.1 2.0 -35.15 2.1 -35.25 2.2 -35.3 2.3 -35.4 2.4 -35.5 2.5 -35.6 2.6 -35.7 2.7 -35.8 2.75 -35.9 2.85 -36.05 2.9 -36.15 3.0 -36.25 3.05 -36.35 3.1 -36.5 3.15 -36.6 3.2 -36.75 3.2 -36.85 3.25 -37.0 3.25 -37.15 3.3 -37.25 3.3 -37.4 3.3 -37.55 3.3 -37.65 3.3 -37.8 3.25 -37.9 3.25 -38.05 3.2 -38.15 3.2 -38.25 3.15 -38.4 3.1 -38.5 3.05 -38.6 3.0 -38.75 2.9 -38.85 2.85 -38.95 2.75 -39.05 2.7 -39.15 2.6 -39.25 2.5 -39.35 2.4 -39.45 2.3 -39.5 2.2 -39.6 2.1 -39.65 2.0 -39.75 1.9 -39.8 1.8 -39.85 1.7 -39.9 1.55 -39.95 1.45 -39.95 1.35 -40.0 1.2 -40.0 1.1 -40.05 0.95 -40.05 0.85 -40.05 0.7 -40.05 0.55 -40.05 0.45 -40.0 0.3 -40.0 0.2 -39.95 0.05 -39.95 -0.05 -39.9 -0.15 -39.85 -0.3 -39.8 -0.4 -39.75 -0.5 -39.65 -0.65 -39.6 -0.75 -39.5 -0.85 -39.45 -0.95 -39.35 -1.05 -39.25 -1.15 -39.15 -1.25 -39.05 -1.35 -38.95 -1.4 -38.85 -1.5 -38.75 -1.55 -38.6 -1.6 -38.5 -1.65 -38.4 -1.7 -38.25 -1.75 -38.15 -1.8 -38.05 -1.85 -37.9 -1.85 -37.8 -1.9 -37.65 -1.9 -37.55 -1.9 -37.4 -1.9 -37.25 -1.9 -37.15 -1.9 -37.0 -1.9 -36.85 -1.85 -36.75 -1.85 -36.6 -1.8 -36.5 -1.75 -36.35 -1.7 -36.25 -1.65 -36.15 -1.6 -36.05 -1.55 -35.9 -1.5 -35.8 -1.4 -35.7 -1.35 -35.6 -1.25 -35.5 -1.15 -35.4 -1.05 -35.3 -0.95 -35.25 -0.85 -35.15 -0.75 -35.1 -0.65 -35.0 -0.5 -34.95 -0.4 -34.9 -0.3 -34.85 -0.15 -34.8 -0.05 -34.8 0.05 -34.75 0.2 -34.75 0.3 -34.7 0.45 -34.7 0.55 -34.7 0.7" fill="#766bff" fill-rule="evenodd" stroke="none"/>
    <path d="M36.8 -1.4 Q36.85 -1.45 36.95 -1.5 37.0 -1.55 37.1 -1.6 37.15 -1.65 37.2 -1.7 37.3 -1.75 37.35 -1.8 37.45 -1.8 37.55 -1.85 37.6 -1.85 37.7 -1.85 37.8 -1.9 37.85 -1.9 37.95 -1.9 38.05 -1.9 38.15 -1.9 38.25 -1.9 38.35 -1.9 38.45 -1.85 38.55 -1.85 38.6 -1.8 38.7 -1.75 38.8 -1.7 38.9 -1.65 39.0 -1.6 39.05 -1.55 39.15 -1.5 39.25 -1.4 39.3 -1.35 39.4 -1.25 39.5 -1.15 39.55 -1.05 39.65 -0.95 39.7 -0.85 39.75 -0.75 39.8 -0.65 39.85 -0.5 39.9 -0.4 39.95 -0.3 39.95 -0.15 40.0 -0.05 40.05 0.05 40.05 0.2 40.05 0.3 40.1 0.45 40.1 0.55 40.1 0.7 40.1 0.85 40.1 0.95 40.05 1.1 40.05 1.2 40.05 1.35 40.0 1.45 40.0 1.55 39.95 1.65 39.9 1.8 39.85 1.9 39.8 2.0 39.75 2.1 39.7 2.2 39.65 2.3 39.55 2.4 39.5 2.5 39.4 2.6 39.35 2.7 39.25 2.75 39.15 2.85 39.05 2.9 39.0 3.0 38.9 3.05 38.8 3.1 38.7 3.15 38.6 3.2 38.5 3.2 38.45 3.25 38.35 3.25 38.25 3.3 38.15 3.3 38.05 3.3 37.95 3.3 37.8 3.3 37.7 3.25 37.6 3.25 37.5 3.2 37.4 3.2 37.3 3.15 37.2 3.1 37.1 3.05 37.05 3.0 36.95 2.9 36.85 2.85 36.75 2.75 36.7 2.7 36.6 2.6 36.55 2.5 36.45 2.4 36.4 2.3 36.3 2.2 36.25 2.1 36.2 2.0 36.15 1.9 36.1 1.8 36.05 1.65 36.0 1.55 36.0 1.45 35.95 1.35 35.95 1.2 35.9 1.1 35.9 0.95 35.9 0.85 35.9 0.7 35.9 0.55 35.9 0.45 35.9 0.3 35.95 0.2 35.95 0.05 36.0 -0.05 36.0 -0.15 36.05 -0.3 36.1 -0.4 36.15 -0.5 36.2 -0.65 36.25 -0.75 36.3 -0.85 36.4 -0.95 36.45 -1.05 36.55 -1.15 L36.8 -1.4" fill="#766bff" fill-rule="evenodd" stroke="none"/>
  </g>
</svg>
