<?xml version="1.0" encoding="UTF-8" standalone="no"?>
<svg xmlns:xlink="http://www.w3.org/1999/xlink" height="9.7px" width="19.15px" xmlns="http://www.w3.org/2000/svg">
  <g transform="matrix(1.0, 0.0, 0.0, 1.0, 9.55, 4.85)">
    <path d="M3.65 2.9 L3.55 2.9 3.5 2.85 3.45 2.8 3.1 2.6 2.75 2.4 2.45 2.3 2.1 2.2 1.85 2.15 1.6 2.05 1.25 2.05 0.9 2.0 0.55 2.05 0.15 2.1 -0.55 2.25 -1.2 2.4 -1.25 2.45 -1.35 2.5 -1.5 2.55 -1.65 2.6 -2.1 2.75 -2.5 2.9 -2.75 2.9 -2.95 2.95 -3.05 2.9 -3.1 2.85 -3.1 2.75 -3.1 2.65 -3.05 2.6 -3.0 2.55 -2.75 2.4 -2.45 2.3 -2.3 2.25 -2.1 2.2 -1.8 2.1 -1.5 2.05 -1.05 1.95 -0.55 1.9 -0.15 1.85 0.2 1.8 0.6 1.8 1.0 1.8 1.45 1.85 1.9 1.95 2.35 2.0 2.75 2.1 3.05 2.2 3.4 2.3 3.55 2.35 3.7 2.45 3.8 2.55 3.9 2.65 3.9 2.75 3.9 2.8 3.9 2.9 3.85 2.95 3.8 2.95 3.75 2.95 3.65 2.9 3.65 2.9" fill="#d0d0d0" fill-rule="evenodd" stroke="none"/>
    <path d="M3.55 2.85 L3.4 2.75 3.1 2.6 2.85 2.45 2.5 2.3 2.15 2.2 1.9 2.15 1.65 2.05 1.4 2.05 1.15 2.0 0.85 2.0 0.55 2.05 0.3 2.05 0.1 2.1 -0.25 2.15 -0.65 2.25 -0.95 2.35 -1.25 2.45 -1.9 2.65 -2.55 2.9 -2.75 2.9 -3.0 2.9 -3.05 2.85 -3.1 2.8 -3.1 2.7 -3.1 2.65 -2.95 2.55 -2.85 2.5 -2.55 2.35 -2.25 2.25 -1.9 2.15 -1.55 2.1 -0.95 2.0 -0.35 1.85 0.55 1.85 1.5 1.9 2.0 2.0 2.55 2.1 2.95 2.2 3.35 2.3 3.55 2.4 3.7 2.45 3.8 2.55 3.9 2.65 3.9 2.75 3.9 2.9 3.8 2.9 3.75 2.95 3.7 2.95 3.7 2.95 3.55 2.85" fill="#afafaf" fill-rule="evenodd" stroke="none"/>
    <path d="M3.45 2.8 L3.25 2.65 2.95 2.5 2.7 2.4 2.3 2.25 1.95 2.1 1.7 2.05 1.4 2.0 0.9 2.0 0.4 2.0 -0.1 2.1 -0.6 2.2 -0.95 2.35 -1.3 2.45 -1.9 2.65 -2.5 2.85 -2.75 2.9 -2.95 2.9 -3.0 2.8 -3.1 2.75 -3.05 2.65 -3.0 2.6 -2.85 2.5 -2.65 2.4 -2.3 2.3 -1.95 2.2 -1.5 2.1 -1.05 2.0 -0.65 1.95 -0.2 1.85 0.55 1.85 1.3 1.85 1.6 1.9 1.9 1.95 2.35 2.05 2.85 2.15 3.1 2.25 3.4 2.35 3.6 2.45 3.8 2.6 3.85 2.7 3.9 2.85 3.85 2.9 3.75 2.95 3.7 2.95 3.7 2.9 3.45 2.8 3.45 2.8" fill="#8f8f8f" fill-rule="evenodd" stroke="none"/>
    <path d="M3.55 2.85 L3.4 2.75 3.1 2.6 2.8 2.4 2.45 2.3 2.1 2.15 1.8 2.1 1.5 2.0 0.9 2.0 0.35 2.0 -0.15 2.15 -0.65 2.25 -1.6 2.55 -2.55 2.85 -2.75 2.85 -2.95 2.85 -3.0 2.85 -3.05 2.8 -3.05 2.7 -3.0 2.6 -2.75 2.5 -2.5 2.4 -2.2 2.3 -1.95 2.2 -1.45 2.1 -1.0 2.0 -0.6 1.95 -0.2 1.9 0.5 1.9 1.2 1.9 1.5 1.9 1.85 1.95 2.3 2.05 2.8 2.15 3.1 2.25 3.4 2.35 3.55 2.45 3.7 2.5 3.8 2.6 3.85 2.65 3.85 2.75 3.9 2.8 3.85 2.85 3.75 2.95 3.7 2.95 3.7 2.9 3.55 2.85 3.55 2.85" fill="#717171" fill-rule="evenodd" stroke="none"/>
    <path d="M3.6 2.85 L3.55 2.8 3.2 2.65 2.9 2.45 2.6 2.35 2.3 2.2 1.95 2.15 1.6 2.05 1.1 2.0 0.6 2.0 0.2 2.05 -0.2 2.1 -0.55 2.2 -0.9 2.3 -1.25 2.45 -1.65 2.55 -2.1 2.7 -2.6 2.85 -2.8 2.85 -3.0 2.85 -3.0 2.75 -3.05 2.7 -3.0 2.65 -2.95 2.55 -2.6 2.45 -2.3 2.3 -1.9 2.2 -1.55 2.1 -1.0 2.0 -0.45 1.9 0.3 1.9 1.0 1.9 1.4 1.95 1.8 1.95 2.35 2.1 2.85 2.2 3.1 2.25 3.4 2.35 3.55 2.4 3.65 2.5 3.75 2.6 3.85 2.65 3.85 2.8 3.85 2.9 3.75 2.9 3.65 2.9 3.6 2.85" fill="#505050" fill-rule="evenodd" stroke="none"/>
    <path d="M3.3 2.7 L3.0 2.5 2.6 2.35 2.2 2.2 1.8 2.1 1.4 2.0 0.95 2.0 0.45 2.0 0.15 2.05 -0.2 2.1 -0.5 2.2 -0.8 2.25 -1.4 2.45 -2.05 2.65 -2.35 2.75 -2.65 2.85 -2.75 2.85 -2.9 2.85 -2.95 2.85 -3.0 2.8 -3.0 2.7 -3.0 2.65 -2.75 2.5 -2.45 2.4 -2.15 2.3 -1.8 2.2 -1.55 2.15 -1.25 2.1 -0.8 2.0 -0.3 1.9 0.25 1.9 0.85 1.9 1.3 1.95 1.7 1.95 2.25 2.1 2.85 2.2 3.1 2.25 3.35 2.35 3.5 2.45 3.7 2.5 3.75 2.6 3.85 2.7 3.85 2.8 3.85 2.85 3.75 2.9 3.65 2.9 3.3 2.7" fill="#2e2e2e" fill-rule="evenodd" stroke="none"/>
    <path d="M3.55 2.8 L3.4 2.7 3.15 2.6 2.9 2.45 2.5 2.3 2.15 2.15 1.8 2.05 1.5 2.0 0.95 2.0 0.4 2.0 0.1 2.05 -0.25 2.1 -0.55 2.2 -0.85 2.25 -1.55 2.5 -2.3 2.75 -2.5 2.8 -2.75 2.85 -2.85 2.8 -3.0 2.8 -3.0 2.75 -3.0 2.65 -2.9 2.6 -2.85 2.55 -2.55 2.45 -2.3 2.35 -1.85 2.25 -1.4 2.1 -0.9 2.05 -0.45 1.95 -0.05 1.95 0.3 1.9 0.75 1.9 1.2 1.9 1.5 1.95 1.85 2.0 2.3 2.1 2.8 2.2 3.05 2.25 3.3 2.35 3.5 2.45 3.75 2.55 3.8 2.65 3.85 2.8 3.85 2.85 3.8 2.9 3.75 2.9 3.7 2.9 3.55 2.8 3.55 2.8" fill="#020202" fill-rule="evenodd" stroke="none"/>
  </g>
</svg>
