<?xml version="1.0" encoding="UTF-8" standalone="no"?>
<svg xmlns:xlink="http://www.w3.org/1999/xlink" height="29.4px" width="19.0px" xmlns="http://www.w3.org/2000/svg">
  <g transform="matrix(1.0, 0.0, 0.0, 1.0, 9.5, 14.7)">
    <path d="M-0.1 -6.4 Q-0.5 -6.4 -0.9 -6.35 -1.35 -6.35 -1.75 -6.3 -2.15 -6.25 -2.55 -6.2 -2.95 -6.15 -3.35 -6.05 -3.75 -6.0 -4.1 -5.9 -4.5 -5.8 -4.9 -5.65 -5.3 -5.55 -5.65 -5.35 -6.05 -5.2 -6.4 -5.05 -6.6 -4.95 -6.8 -4.8 -7.0 -4.7 -7.2 -4.55 -7.4 -4.4 -7.55 -4.25 -7.75 -4.1 -7.9 -3.95 -8.05 -3.75 -8.2 -3.6 -8.35 -3.4 -8.45 -3.2 -8.55 -3.0 -8.65 -2.8 -8.75 -2.6 -8.85 -2.35 -9.1 -1.55 -9.1 1.25 -9.1 1.85 -9.1 1.7 -9.05 1.95 -9.05 2.15 -9.05 2.4 -9.05 2.6 -9.0 2.85 -9.0 3.1 -9.0 3.3 -8.95 3.55 -8.9 3.75 -8.85 4.0 -8.8 4.2 -8.75 4.45 -8.7 4.65 -8.65 4.9 -8.5 5.4 -8.25 5.9 -8.0 6.4 -7.7 6.85 -7.45 7.3 -7.1 7.75 -6.75 8.15 -6.35 8.5 -5.95 8.9 -5.5 9.25 -5.1 9.55 -4.6 9.85 -4.15 10.1 -3.65 10.3 -3.15 10.55 -2.6 10.7 -2.35 10.75 -2.1 10.85 -1.85 10.9 -1.6 10.95 -1.35 10.95 -1.05 11.0 -0.8 11.0 -0.55 11.05 -0.3 11.05 -0.05 11.05 0.25 11.05 0.5 11.05 0.75 11.0 1.0 11.0 1.3 10.95 1.55 10.95 2.05 10.85 2.55 10.7 3.1 10.55 3.55 10.35 4.05 10.15 4.5 9.9 4.95 9.65 5.4 9.3 5.85 9.0 6.2 8.65 6.6 8.3 6.95 7.9 7.3 7.5 7.6 7.05 7.9 6.65 8.15 6.15 8.25 5.9 8.4 5.65 8.5 5.4 8.6 5.15 8.7 4.9 8.75 4.65 8.85 4.35 8.9 4.1 8.95 3.8 9.0 3.55 9.05 3.3 9.05 3.0 9.1 2.75 9.1 2.45 9.1 2.2 9.1 1.9 9.1 1.7 9.1 1.3 9.1 0.85 9.1 0.7 9.1 0.35 9.05 0.05 9.05 -0.25 9.05 -0.55 9.0 -0.85 9.0 -1.15 8.95 -1.45 8.9 -1.75 8.85 -2.05 8.75 -2.35 8.7 -2.65 8.6 -2.95 8.55 -3.1 8.45 -3.25 8.4 -3.4 8.3 -3.5 8.25 -3.65 8.15 -3.8 8.05 -3.9 7.95 -4.05 7.85 -4.15 7.75 -4.25 7.6 -4.4 7.5 -4.5 7.35 -4.6 7.25 -4.65 7.1 -4.75 6.95 -4.85 6.65 -5.0 6.35 -5.15 6.05 -5.3 5.75 -5.4 5.4 -5.55 5.1 -5.65 4.8 -5.75 4.45 -5.8 4.15 -5.9 3.8 -6.0 3.45 -6.05 3.1 -6.1 2.8 -6.15 2.45 -6.2 2.15 -6.25 1.8 -6.3 1.7 -6.3 1.55 -6.3 1.45 -6.35 1.3 -6.35 1.2 -6.35 1.05 -6.35 0.95 -6.35 0.85 -6.35 0.7 -6.4 0.6 -6.4 0.45 -6.4 0.35 -6.4 0.25 -6.4 0.1 -6.4 0.0 -6.4 -0.1 -6.4 L-0.1 -6.4 Z" fill="none" stroke="#000000" stroke-linecap="round" stroke-linejoin="round" stroke-width="0.05"/>
    <path d="M-0.1 -6.4 Q-0.55 -6.4 -0.95 -6.35 -1.35 -6.35 -1.8 -6.3 -2.2 -6.25 -2.6 -6.2 -3.05 -6.15 -3.45 -6.05 -3.85 -6.0 -4.25 -5.9 -4.7 -5.8 -5.05 -5.65 -5.5 -5.55 -5.85 -5.35 -6.25 -5.2 -6.6 -5.05 -6.8 -4.95 -7.05 -4.8 -7.25 -4.7 -7.45 -4.55 -7.65 -4.4 -7.8 -4.25 -8.0 -4.1 -8.15 -3.95 -8.35 -3.75 -8.5 -3.6 -8.65 -3.4 -8.75 -3.2 -8.9 -3.0 -9.0 -2.8 -9.1 -2.6 -9.15 -2.35 -9.2 -2.15 -9.3 -1.9 -9.35 -1.7 -9.35 -1.45 -9.4 -1.25 -9.4 -1.0 -9.45 -0.8 -9.45 -0.55 -9.45 -0.35 -9.45 -0.1 -9.45 0.05 -9.45 0.35 -9.45 0.1 -9.45 0.8 -9.4 1.05 -9.4 1.25 -9.4 1.5 -9.4 1.7 -9.4 1.95 -9.4 2.15 -9.4 2.4 -9.35 2.6 -9.35 2.85 -9.35 3.1 -9.3 3.3 -9.25 3.55 -9.25 3.75 -9.2 4.0 -9.15 4.2 -9.1 4.45 -9.05 4.65 -8.95 4.9 -8.8 5.4 -8.55 5.9 -8.3 6.4 -8.0 6.85 -7.7 7.3 -7.35 7.75 -7.0 8.15 -6.55 8.5 -6.15 8.9 -5.7 9.25 -5.25 9.55 -4.75 9.85 -4.3 10.1 -3.75 10.3 -3.25 10.55 -2.7 10.7 -2.45 10.75 -2.2 10.85 -1.9 10.9 -1.65 10.95 -1.4 10.95 -1.1 11.0 -0.85 11.0 -0.55 11.05 -0.3 11.05 -0.05 11.05 0.25 11.05 0.5 11.05 0.8 11.0 1.05 11.0 1.35 10.95 1.6 10.95 2.15 10.85 2.65 10.7 3.2 10.55 3.7 10.35 4.2 10.15 4.7 9.9 5.15 9.65 5.6 9.3 6.05 9.0 6.45 8.65 6.85 8.3 7.2 7.9 7.6 7.5 7.9 7.05 8.2 6.65 8.45 6.15 8.6 5.9 8.7 5.65 8.8 5.4 8.9 5.15 9.0 4.9 9.1 4.65 9.15 4.35 9.25 4.1 9.3 3.8 9.35 3.55 9.4 3.3 9.4 3.0 9.45 2.75 9.45 2.45 9.45 2.2 9.45 1.9 9.45 1.7 9.45 1.3 9.45 0.85 9.45 0.7 9.45 0.35 9.4 0.05 9.4 -0.25 9.4 -0.55 9.35 -0.85 9.35 -1.15 9.3 -1.45 9.25 -1.75 9.2 -2.05 9.1 -2.35 9.0 -2.65 8.9 -2.95 8.85 -3.1 8.8 -3.25 8.7 -3.4 8.65 -3.5 8.55 -3.65 8.45 -3.8 8.35 -3.9 8.25 -4.05 8.15 -4.15 8.0 -4.25 7.9 -4.4 7.75 -4.5 7.65 -4.6 7.5 -4.65 7.35 -4.75 7.2 -4.85 6.9 -5.0 6.6 -5.15 6.25 -5.3 5.95 -5.4 5.6 -5.55 5.3 -5.65 4.95 -5.75 4.6 -5.8 4.3 -5.9 3.95 -6.0 3.6 -6.05 3.25 -6.1 2.9 -6.15 2.55 -6.2 2.2 -6.25 1.85 -6.3 1.75 -6.3 1.6 -6.3 1.5 -6.35 1.35 -6.35 1.25 -6.35 1.1 -6.35 1.0 -6.35 0.85 -6.35 0.75 -6.4 0.6 -6.4 0.5 -6.4 0.35 -6.4 0.25 -6.4 0.1 -6.4 0.0 -6.4 -0.1 -6.4 L-0.1 -6.4" fill="#000000" fill-rule="evenodd" stroke="none"/>
    <path d="M-0.1 -6.4 Q-0.55 -6.4 -0.95 -6.35 -1.35 -6.35 -1.8 -6.3 -2.2 -6.25 -2.6 -6.2 -3.05 -6.15 -3.45 -6.05 -3.85 -6.0 -4.25 -5.9 -4.7 -5.8 -5.05 -5.65 -5.5 -5.55 -5.85 -5.35 -6.25 -5.2 -6.6 -5.05 -6.8 -4.95 -7.05 -4.8 -7.25 -4.7 -7.45 -4.55 -7.65 -4.4 -7.8 -4.25 -8.0 -4.1 -8.15 -3.95 -8.35 -3.75 -8.5 -3.6 -8.65 -3.4 -8.75 -3.2 -8.9 -3.0 -9.0 -2.8 -9.1 -2.6 -9.15 -2.35 -9.2 -2.15 -9.3 -1.9 -9.35 -1.7 -9.35 -1.45 -9.4 -1.25 -9.4 -1.0 -9.45 -0.8 -9.45 -0.55 -9.45 -0.35 -9.45 -0.1 -9.45 0.05 -9.45 0.35 -9.45 0.1 -9.45 0.8 -9.4 1.05 -9.4 1.25 -9.4 1.5 -9.4 1.7 -9.4 1.95 -9.4 2.15 -9.4 2.4 -9.35 2.6 -9.35 2.85 -9.35 3.1 -9.3 3.3 -9.25 3.55 -9.25 3.75 -9.2 4.0 -9.15 4.2 -9.1 4.45 -9.05 4.65 -8.95 4.9 -8.8 5.4 -8.55 5.9 -8.3 6.4 -8.0 6.85 -7.7 7.3 -7.35 7.75 -7.0 8.15 -6.55 8.5 -6.15 8.9 -5.7 9.25 -5.25 9.55 -4.75 9.85 -4.3 10.1 -3.75 10.3 -3.25 10.55 -2.7 10.7 -2.45 10.75 -2.2 10.85 -1.9 10.9 -1.65 10.95 -1.4 10.95 -1.1 11.0 -0.85 11.0 -0.55 11.05 -0.3 11.05 -0.05 11.05 0.25 11.05 0.5 11.05 0.8 11.0 1.05 11.0 1.35 10.95 1.6 10.95 2.15 10.85 2.65 10.7 3.2 10.55 3.7 10.35 4.2 10.15 4.7 9.9 5.15 9.65 5.6 9.3 6.05 9.0 6.45 8.65 6.85 8.3 7.2 7.9 7.6 7.5 7.9 7.05 8.2 6.65 8.45 6.15 8.6 5.9 8.7 5.65 8.8 5.4 8.9 5.15 9.0 4.9 9.1 4.65 9.15 4.35 9.25 4.1 9.3 3.8 9.35 3.55 9.4 3.3 9.4 3.0 9.45 2.75 9.45 2.45 9.45 2.2 9.45 1.9 9.45 1.7 9.45 1.3 9.45 0.85 9.45 0.7 9.45 0.35 9.4 0.05 9.4 -0.25 9.4 -0.55 9.35 -0.85 9.35 -1.15 9.3 -1.45 9.25 -1.75 9.2 -2.05 9.1 -2.35 9.0 -2.65 8.9 -2.95 8.85 -3.1 8.8 -3.25 8.7 -3.4 8.65 -3.5 8.55 -3.65 8.45 -3.8 8.35 -3.9 8.25 -4.05 8.15 -4.15 8.0 -4.25 7.9 -4.4 7.75 -4.5 7.65 -4.6 7.5 -4.65 7.35 -4.75 7.2 -4.85 6.9 -5.0 6.6 -5.15 6.25 -5.3 5.95 -5.4 5.6 -5.55 5.3 -5.65 4.95 -5.75 4.6 -5.8 4.3 -5.9 3.95 -6.0 3.6 -6.05 3.25 -6.1 2.9 -6.15 2.55 -6.2 2.2 -6.25 1.85 -6.3 1.75 -6.3 1.6 -6.3 1.5 -6.35 1.35 -6.35 1.25 -6.35 1.1 -6.35 1.0 -6.35 0.85 -6.35 0.75 -6.4 0.6 -6.4 0.5 -6.4 0.35 -6.4 0.25 -6.4 0.1 -6.4 0.0 -6.4 -0.1 -6.4 L-0.1 -6.4 Z" fill="none" stroke="#000000" stroke-linecap="round" stroke-linejoin="round" stroke-width="0.05"/>
  </g>
</svg>
