<?xml version="1.0" encoding="UTF-8" standalone="no"?>
<svg xmlns:xlink="http://www.w3.org/1999/xlink" height="158.9px" width="251.75px" xmlns="http://www.w3.org/2000/svg">
  <g transform="matrix(1.0, 0.0, 0.0, 1.0, 125.9, 79.45)">
    <path d="M-7.1 67.05 L-7.35 66.5 -7.95 65.4 -8.55 64.3 -8.6 64.25 -8.65 64.2 -9.15 64.6 -9.65 65.05 -10.15 65.15 -10.7 65.25 -11.2 65.15 -11.65 65.05 -12.7 64.2 -13.75 63.4 -13.95 63.4 -14.15 63.4 -15.45 62.55 -16.7 61.75 -18.35 60.05 -20.0 58.4 -20.15 58.9 -20.35 59.45 -20.8 59.7 -21.25 59.95 -21.7 59.7 -22.15 59.45 -22.15 58.6 -22.15 57.8 -23.1 55.9 -24.0 54.05 -24.1 54.05 -24.2 54.05 -24.6 55.5 -25.0 56.95 -25.25 58.25 -25.55 59.55 -25.85 59.85 -26.15 60.2 -26.55 60.2 -26.9 60.2 -27.3 59.8 -27.65 59.4 -27.45 58.35 -27.25 57.3 -26.9 55.85 -26.55 54.45 -26.6 52.55 -26.65 50.7 -26.2 50.25 -25.75 49.8 -26.4 47.7 -27.1 45.6 -27.2 45.2 -27.3 44.75 -27.7 43.25 -28.1 41.75 -28.6 39.15 -29.1 36.55 -29.3 35.3 -29.45 34.05 -29.7 31.7 -29.95 29.4 -30.15 25.7 -30.35 22.05 -30.25 14.55 -30.15 7.1 -30.7 7.4 -31.25 7.75 -31.55 7.75 -31.9 7.75 -32.45 8.95 -33.0 10.15 -34.1 12.15 -35.2 14.15 -36.0 15.25 -36.75 16.35 -37.8 17.6 -38.8 18.85 -39.7 20.25 -40.6 21.7 -41.0 22.15 -41.45 22.6 -41.85 22.6 -42.2 22.6 -42.55 22.3 -42.9 21.95 -42.9 21.55 -42.9 21.2 -40.95 18.3 -39.0 15.35 -38.5 13.95 -38.0 12.5 -37.8 11.75 -37.55 11.0 -37.3 10.15 -37.05 9.35 -36.55 7.4 -36.05 5.5 -35.55 3.15 -35.05 0.8 -34.75 -0.8 -34.5 -2.35 -34.25 -4.8 -34.0 -7.2 -34.0 -8.25 -34.0 -9.3 -34.3 -9.75 -34.55 -10.2 -34.55 -14.3 -34.55 -18.4 -34.35 -20.35 -34.15 -22.25 -33.75 -24.35 -33.3 -26.45 -32.9 -27.95 -32.45 -29.45 -32.3 -29.95 -32.15 -30.45 -31.95 -31.3 -31.7 -32.1 -30.6 -34.9 -29.5 -37.75 -28.35 -40.0 -27.2 -42.3 -25.95 -44.25 -24.65 -46.15 -23.3 -47.85 -21.95 -49.5 -20.2 -51.45 -18.4 -53.4 -16.25 -55.25 -14.15 -57.15 -12.1 -58.65 -10.1 -60.2 -8.9 -61.0 -7.75 -61.85 -5.3 -63.2 -2.9 -64.6 -1.1 -65.45 0.65 -66.3 2.5 -66.9 4.35 -67.5 5.9 -67.8 7.5 -68.15 10.75 -68.4 14.05 -68.7 17.3 -68.5 20.55 -68.35 20.75 -68.15 20.95 -68.0 21.1 -68.15 21.3 -68.25 25.55 -68.1 29.85 -67.95 32.25 -67.65 34.7 -67.3 35.6 -67.15 36.55 -67.0 38.15 -66.65 39.8 -66.3 41.2 -65.85 42.6 -65.45 44.75 -64.6 46.95 -63.75 48.9 -62.85 50.8 -61.9 51.75 -61.3 52.65 -60.75 53.8 -59.95 55.0 -59.2 56.65 -57.9 58.3 -56.55 60.0 -55.05 61.7 -53.5 63.25 -51.75 64.8 -50.0 65.75 -48.85 66.7 -47.65 68.3 -45.25 69.9 -42.8 70.45 -42.0 70.95 -41.15 71.25 -40.6 71.5 -40.1 71.8 -40.0 72.05 -39.9 72.5 -39.9 73.0 -39.9 73.25 -39.55 73.55 -39.25 74.1 -39.35 74.65 -39.4 76.7 -37.95 78.8 -36.5 79.95 -35.95 81.1 -35.35 81.35 -34.8 81.65 -34.25 81.3 -33.7 81.0 -33.15 80.55 -32.8 80.1 -32.5 79.3 -32.35 78.5 -32.25 77.0 -32.2 75.55 -32.2 75.55 -32.15 75.55 -32.05 76.05 -30.75 76.5 -29.45 77.1 -27.55 77.7 -25.6 77.95 -24.7 78.25 -23.75 78.55 -22.6 78.85 -21.45 79.25 -19.75 79.6 -18.1 79.9 -16.75 80.2 -15.4 80.4 -14.5 80.55 -13.55 80.8 -11.3 81.1 -9.05 81.25 -5.7 81.45 -2.35 81.35 0.3 81.25 3.0 81.0 5.15 80.75 7.3 80.55 8.5 80.4 9.65 80.05 11.4 79.7 13.15 79.3 14.7 78.95 16.2 78.55 17.5 78.2 18.85 78.1 19.25 77.95 19.7 77.65 20.6 77.4 21.55 76.9 23.1 76.4 24.65 75.7 26.05 75.05 27.45 74.7 28.55 74.4 29.6 73.95 30.05 73.55 30.45 73.3 30.45 73.1 30.45 72.75 30.1 72.45 29.8 72.85 29.1 73.2 28.4 73.45 27.65 73.7 26.95 73.4 26.95 73.1 26.95 72.45 26.65 71.8 26.3 71.75 26.3 71.75 26.3 71.55 27.0 71.3 27.7 71.15 27.9 71.0 28.15 70.5 28.15 70.0 28.15 69.95 27.75 69.85 27.4 70.1 26.65 70.35 25.9 70.35 23.55 70.35 21.2 70.1 18.1 69.85 15.0 69.6 13.15 69.35 11.35 69.2 10.6 69.05 9.85 68.45 8.2 67.85 6.55 67.8 6.45 67.75 6.4 67.1 6.5 66.5 6.6 66.4 7.3 66.35 8.0 66.25 9.8 66.15 11.6 65.9 13.65 65.65 15.7 65.5 18.35 65.4 21.05 65.1 21.5 64.8 21.95 64.5 21.95 64.2 21.95 63.95 21.7 63.75 21.45 63.95 20.2 64.15 18.95 64.05 17.6 63.95 16.25 63.45 16.25 63.0 16.25 62.85 16.45 62.7 16.7 62.5 18.2 62.3 19.7 62.15 20.85 61.95 22.05 61.65 23.3 61.3 24.55 61.15 25.0 61.0 25.4 59.85 25.5 58.7 25.6 55.8 25.8 52.85 26.0 52.75 25.85 52.6 25.7 52.9 23.35 53.25 21.05 53.35 17.95 53.45 14.85 53.35 12.2 53.2 9.55 53.15 9.6 53.05 9.7 52.9 12.5 52.7 15.35 52.35 15.7 52.0 16.1 51.65 16.1 51.3 16.1 50.9 15.7 50.55 15.35 50.75 13.3 50.9 11.25 50.85 9.65 50.75 8.0 50.65 7.45 50.5 6.9 50.75 6.45 50.95 6.05 50.75 2.7 50.55 -0.7 50.3 -3.05 50.05 -5.4 49.9 -6.5 49.7 -7.65 49.55 -8.85 49.35 -10.05 48.85 -12.5 48.4 -14.9 48.0 -16.85 47.55 -18.75 47.2 -20.35 46.85 -21.95 46.6 -22.95 46.4 -23.95 46.1 -24.85 45.85 -25.75 45.4 -27.25 45.0 -28.75 44.7 -29.1 44.4 -29.4 44.05 -29.3 43.7 -29.15 43.6 -28.8 43.5 -28.4 43.85 -26.75 44.2 -25.1 44.5 -23.6 44.85 -22.1 45.15 -20.25 45.5 -18.4 45.75 -16.1 46.05 -13.75 46.2 -10.9 46.35 -8.05 46.2 -5.05 46.05 -2.05 45.7 0.45 45.35 3.0 44.95 5.05 44.55 7.15 44.0 9.15 43.45 11.15 43.5 12.0 43.5 12.85 43.35 13.75 43.15 14.7 42.8 15.85 42.45 17.0 42.2 17.3 41.95 17.6 41.4 17.6 40.85 17.6 40.55 17.25 40.25 16.9 40.45 16.2 40.65 15.5 41.1 13.75 41.55 12.0 41.75 11.6 41.95 11.15 42.15 8.2 42.35 5.2 42.35 1.4 42.35 -2.45 42.1 -5.95 41.8 -9.5 41.65 -9.9 41.5 -10.3 41.15 -10.4 40.8 -10.5 40.6 -10.3 40.4 -10.15 40.45 -5.25 40.5 -0.35 40.35 1.8 40.15 4.0 39.95 5.5 39.8 7.0 39.3 9.6 38.8 12.15 38.45 13.35 38.1 14.5 37.85 15.45 37.65 16.35 37.25 17.45 36.9 18.5 36.6 19.45 36.25 20.35 35.7 21.85 35.15 23.35 34.4 24.8 33.7 26.2 33.35 26.2 33.05 26.2 32.2 24.55 31.35 22.95 30.95 22.85 30.6 22.75 30.25 23.05 29.9 23.35 29.9 25.25 29.9 27.15 29.65 27.25 29.35 27.35 28.6 26.55 27.9 25.7 26.85 24.2 25.8 22.7 25.25 21.8 24.75 20.95 24.25 20.05 23.75 19.2 23.05 17.8 22.35 16.45 22.35 16.3 22.35 16.1 22.05 15.95 21.75 15.75 21.1 15.8 20.45 15.85 20.05 14.0 19.7 12.15 19.55 11.0 19.35 9.85 19.0 7.4 18.7 5.0 18.4 1.95 18.1 -1.05 18.1 -8.3 18.1 -15.6 18.3 -17.35 18.45 -19.1 18.45 -19.1 18.4 -19.15 17.5 -18.0 16.65 -16.9 16.35 -16.3 16.05 -15.75 15.0 -13.8 13.95 -11.9 13.2 -10.8 12.5 -9.7 11.2 -7.95 9.9 -6.2 8.5 -4.65 7.15 -3.05 5.8 -1.75 4.5 -0.5 3.25 0.55 2.0 1.65 -0.1 3.25 -2.2 4.85 -3.7 5.85 -5.25 6.85 -6.25 7.4 -7.25 8.0 -7.85 8.3 -8.45 8.65 -9.85 10.0 -11.25 11.3 -11.15 20.1 -11.05 28.9 -10.85 32.05 -10.7 35.25 -10.45 38.75 -10.2 42.25 -9.9 44.85 -9.65 47.45 -9.25 50.55 -8.85 53.6 -8.7 54.6 -8.5 55.6 -8.35 56.85 -8.15 58.05 -7.7 60.5 -7.2 63.0 -6.6 63.85 -6.0 64.7 -5.75 65.55 -5.45 66.35 -5.75 66.95 -6.0 67.55 -6.4 67.55 -6.8 67.55 -7.1 67.05 -7.1 67.05" fill="url(#gradient0)" fill-rule="evenodd" stroke="none"/>
    <path d="M-6.75 67.45 L-6.95 67.3 -7.7 65.8 -8.5 64.25 -8.6 64.25 -8.65 64.25 -9.25 64.65 -9.9 65.05 -10.65 65.05 -11.35 65.05 -11.75 64.85 -12.1 64.7 -12.85 64.05 -13.65 63.4 -13.8 63.4 -14.0 63.4 -15.25 62.55 -16.55 61.7 -18.2 60.05 -19.85 58.4 -19.95 58.4 -20.05 58.4 -20.25 58.95 -20.4 59.5 -20.85 59.7 -21.3 59.9 -21.75 59.6 -22.15 59.25 -22.15 58.45 -22.15 57.65 -23.1 55.75 -24.0 53.9 -24.15 53.85 -24.25 53.85 -24.35 54.55 -24.45 55.25 -24.7 55.8 -24.95 56.4 -25.3 58.0 -25.6 59.65 -25.8 59.85 -26.05 60.05 -26.3 60.05 -26.55 60.1 -26.8 60.05 -27.1 60.05 -27.35 59.7 -27.6 59.3 -27.3 57.7 -26.95 56.1 -26.7 55.1 -26.5 54.05 -26.55 52.55 -26.65 51.1 -26.45 50.65 -26.3 50.2 -25.95 50.2 -25.6 50.2 -25.6 50.15 -25.6 50.1 -26.2 48.3 -26.8 46.45 -27.05 45.55 -27.3 44.6 -27.7 43.1 -28.1 41.6 -28.6 39.0 -29.1 36.4 -29.3 35.15 -29.45 33.9 -29.7 31.55 -29.95 29.2 -30.15 25.55 -30.35 21.85 -30.25 14.45 -30.15 7.05 -30.75 7.4 -31.4 7.75 -31.65 7.75 -31.95 7.75 -32.75 9.35 -33.55 11.0 -34.5 12.7 -35.5 14.4 -37.4 16.95 -39.3 19.5 -40.15 20.9 -41.05 22.25 -41.5 22.4 -41.9 22.6 -42.2 22.45 -42.55 22.25 -42.7 21.95 -42.9 21.65 -42.9 21.5 -42.9 21.3 -41.0 18.5 -39.15 15.7 -38.55 14.15 -38.0 12.65 -37.75 11.85 -37.5 11.0 -37.3 10.25 -37.05 9.5 -36.55 7.55 -36.05 5.65 -35.55 3.3 -35.05 0.95 -34.75 -0.6 -34.5 -2.2 -34.25 -4.65 -34.0 -7.05 -34.0 -8.3 -34.0 -9.6 -34.2 -9.75 -34.35 -9.95 -34.45 -11.0 -34.55 -12.05 -34.55 -15.15 -34.55 -18.25 -34.35 -20.1 -34.15 -21.95 -33.8 -23.75 -33.5 -25.6 -33.05 -27.2 -32.65 -28.8 -32.2 -30.2 -31.8 -31.6 -31.45 -32.55 -31.1 -33.45 -30.2 -35.8 -29.25 -38.15 -28.1 -40.35 -26.95 -42.6 -26.0 -44.05 -25.05 -45.5 -24.3 -46.5 -23.55 -47.5 -22.25 -49.0 -21.0 -50.5 -19.15 -52.4 -17.3 -54.3 -15.65 -55.75 -13.95 -57.2 -11.85 -58.8 -9.75 -60.4 -8.25 -61.4 -6.75 -62.4 -5.25 -63.25 -3.7 -64.1 -1.45 -65.2 0.8 -66.3 2.65 -66.9 4.5 -67.5 6.05 -67.8 7.65 -68.15 10.85 -68.4 14.05 -68.7 17.2 -68.5 20.3 -68.35 20.7 -68.15 21.05 -67.95 21.25 -68.1 21.45 -68.25 25.55 -68.1 29.65 -68.0 32.1 -67.65 34.55 -67.3 35.45 -67.15 36.4 -67.0 38.0 -66.65 39.6 -66.3 41.0 -65.85 42.4 -65.45 44.6 -64.6 46.8 -63.75 48.7 -62.85 50.65 -61.9 51.55 -61.3 52.5 -60.75 53.65 -59.95 54.85 -59.2 56.45 -57.9 58.1 -56.55 59.85 -55.05 61.55 -53.5 63.15 -51.65 64.8 -49.85 65.75 -48.65 66.7 -47.5 68.3 -45.05 69.9 -42.65 70.45 -41.8 70.95 -41.0 71.2 -40.55 71.4 -40.15 71.6 -40.0 71.75 -39.9 72.3 -39.9 72.8 -39.9 73.1 -39.55 73.4 -39.25 74.1 -39.3 74.8 -39.3 76.0 -38.45 77.15 -37.6 78.15 -36.95 79.15 -36.25 80.05 -35.85 80.9 -35.4 81.15 -35.0 81.4 -34.65 81.4 -34.25 81.4 -33.9 81.0 -33.4 80.55 -32.85 80.05 -32.6 79.6 -32.35 77.5 -32.25 75.45 -32.15 75.95 -30.9 76.45 -29.6 76.55 -29.1 76.7 -28.6 77.3 -26.7 77.9 -24.75 78.35 -23.2 78.8 -21.6 79.0 -20.6 79.25 -19.6 79.6 -18.1 79.9 -16.6 80.25 -15.0 80.55 -13.4 80.8 -11.15 81.1 -8.9 81.25 -5.55 81.45 -2.2 81.35 0.3 81.25 2.8 81.0 5.0 80.75 7.15 80.55 8.3 80.4 9.5 80.05 11.25 79.7 13.0 79.3 14.5 78.95 16.0 78.55 17.35 78.2 18.7 78.1 19.1 77.95 19.5 77.65 20.45 77.4 21.35 76.9 22.9 76.4 24.45 75.75 25.85 75.1 27.2 74.7 28.35 74.35 29.45 74.0 29.9 73.65 30.3 73.2 30.25 72.8 30.2 72.75 29.9 72.65 29.6 73.1 28.65 73.5 27.7 73.65 27.25 73.75 26.8 73.25 26.8 72.75 26.8 72.3 26.45 71.85 26.1 71.8 26.15 71.75 26.2 71.45 27.1 71.15 27.95 70.75 28.05 70.3 28.15 70.05 27.9 69.8 27.65 70.1 26.85 70.35 26.05 70.35 23.55 70.35 21.05 70.1 17.95 69.85 14.85 69.6 13.0 69.35 11.15 69.25 10.55 69.15 9.9 68.5 8.2 67.85 6.5 67.25 6.5 66.65 6.5 66.55 6.65 66.45 6.75 66.3 9.05 66.15 11.35 65.9 13.5 65.6 15.7 65.5 18.25 65.35 20.85 65.2 21.3 65.0 21.75 64.75 21.85 64.5 21.95 64.25 21.85 64.0 21.75 63.9 21.5 63.8 21.25 64.0 20.15 64.2 19.1 64.05 17.65 63.95 16.25 63.35 16.3 62.7 16.35 62.5 17.85 62.35 19.35 62.15 20.6 61.95 21.85 61.6 23.2 61.25 24.55 61.05 24.95 60.85 25.35 59.85 25.5 58.85 25.6 55.95 25.8 53.05 25.95 52.85 25.8 52.65 25.65 52.95 23.5 53.2 21.35 53.35 18.0 53.45 14.7 53.35 12.05 53.2 9.4 53.15 9.45 53.1 9.5 52.9 12.2 52.75 14.9 52.55 15.3 52.4 15.75 52.1 15.9 51.75 16.1 51.35 15.9 50.9 15.7 50.75 15.35 50.6 15.0 50.75 13.6 50.85 12.15 50.85 10.15 50.9 8.1 50.7 7.65 50.5 7.25 50.7 6.55 50.95 5.9 50.75 2.5 50.55 -0.85 50.3 -3.2 50.05 -5.55 49.9 -6.7 49.7 -7.8 49.55 -9.0 49.35 -10.25 48.85 -12.65 48.4 -15.05 48.0 -17.0 47.55 -18.9 47.2 -20.5 46.85 -22.1 46.6 -23.1 46.4 -24.1 46.1 -25.0 45.85 -25.95 45.45 -27.4 45.0 -28.9 44.85 -29.15 44.65 -29.35 44.25 -29.35 43.9 -29.35 43.7 -29.15 43.5 -28.95 43.5 -28.5 43.5 -28.05 43.85 -26.4 44.2 -24.75 44.55 -23.35 44.85 -21.95 45.15 -20.1 45.5 -18.25 45.75 -15.9 46.05 -13.55 46.15 -10.8 46.3 -8.05 46.15 -5.15 46.05 -2.2 45.7 0.3 45.35 2.8 44.95 4.9 44.55 7.0 43.95 9.25 43.35 11.55 43.45 12.1 43.55 12.65 43.3 13.75 43.05 14.85 42.7 16.0 42.35 17.15 42.05 17.4 41.75 17.6 41.4 17.6 41.05 17.6 40.9 17.45 40.7 17.35 40.5 17.0 40.35 16.65 40.65 15.6 41.0 14.6 41.25 13.4 41.55 12.15 41.75 11.75 41.95 11.35 42.15 8.35 42.35 5.4 42.35 1.35 42.35 -2.7 42.1 -6.1 41.85 -9.5 41.75 -9.9 41.6 -10.3 41.25 -10.4 40.85 -10.5 40.6 -10.45 40.4 -10.35 40.45 -5.45 40.5 -0.55 40.35 1.65 40.15 3.8 39.95 5.3 39.8 6.8 39.3 9.4 38.8 12.0 38.45 13.15 38.1 14.35 37.85 15.25 37.65 16.2 37.25 17.25 36.9 18.35 36.35 19.85 35.8 21.35 35.7 21.8 35.6 22.2 34.75 23.95 33.9 25.7 33.65 26.0 33.4 26.3 33.2 26.1 32.95 25.95 32.35 24.65 31.7 23.35 31.45 23.05 31.2 22.8 30.75 22.8 30.3 22.8 30.1 23.0 29.9 23.2 29.9 25.05 29.9 26.9 29.7 27.1 29.45 27.3 28.65 26.4 27.85 25.45 26.8 24.0 25.8 22.55 25.2 21.55 24.6 20.5 24.2 19.85 23.85 19.2 23.1 17.75 22.35 16.3 22.35 16.1 22.35 15.95 21.95 15.85 21.55 15.75 21.15 15.85 20.75 15.95 20.55 15.7 20.4 15.5 20.0 13.6 19.65 11.65 19.5 10.65 19.35 9.65 19.1 7.8 18.85 6.0 18.5 2.65 18.15 -0.7 18.05 -6.2 17.95 -11.75 18.15 -14.8 18.35 -17.9 18.45 -18.65 18.55 -19.4 17.45 -18.0 16.35 -16.6 15.9 -15.65 15.45 -14.75 14.45 -13.0 13.4 -11.25 12.65 -10.15 11.9 -9.05 10.9 -7.7 9.9 -6.4 8.5 -4.8 7.15 -3.2 5.75 -1.85 4.35 -0.5 3.1 0.55 1.8 1.65 -0.3 3.25 -2.35 4.85 -3.65 5.7 -4.9 6.55 -6.2 7.3 -7.5 8.05 -7.65 8.05 -7.8 8.05 -8.95 9.1 -10.1 10.15 -10.65 10.65 -11.25 11.1 -11.15 20.05 -11.05 29.05 -10.85 32.2 -10.7 35.4 -10.4 39.0 -10.15 42.6 -9.9 45.0 -9.65 47.45 -9.35 50.1 -9.0 52.8 -8.85 53.8 -8.7 54.8 -8.5 56.05 -8.3 57.3 -7.8 60.05 -7.3 62.8 -6.9 63.4 -6.5 64.0 -6.1 64.8 -5.7 65.65 -5.6 66.05 -5.5 66.5 -5.8 67.0 -6.1 67.5 -6.35 67.55 -6.55 67.55 -6.75 67.45 -6.75 67.45" fill="url(#gradient1)" fill-rule="evenodd" stroke="none"/>
    <path d="M-6.8 67.35 L-6.95 67.15 -7.65 65.8 -8.35 64.5 -8.6 64.25 -8.85 64.0 -8.85 64.2 -8.85 64.35 -9.4 64.7 -9.95 65.05 -10.7 65.05 -11.45 65.05 -11.85 64.8 -12.25 64.5 -12.95 63.95 -13.6 63.4 -13.8 63.4 -14.0 63.4 -15.25 62.55 -16.55 61.7 -18.3 59.95 -20.05 58.2 -20.15 58.65 -20.25 59.15 -20.55 59.4 -20.8 59.7 -21.25 59.7 -21.75 59.7 -22.0 59.35 -22.25 58.95 -22.15 58.4 -22.05 57.85 -23.1 55.75 -24.15 53.65 -24.45 54.8 -24.8 55.95 -25.2 57.65 -25.55 59.3 -25.7 59.6 -25.8 59.9 -26.2 60.0 -26.6 60.1 -26.95 59.95 -27.3 59.85 -27.4 59.4 -27.5 59.0 -27.25 57.65 -26.95 56.3 -26.7 55.1 -26.45 53.95 -26.5 52.8 -26.6 51.6 -26.5 51.05 -26.35 50.45 -26.0 50.3 -25.7 50.1 -25.65 50.1 -25.6 50.1 -26.2 48.3 -26.8 46.45 -27.05 45.55 -27.3 44.6 -27.7 43.1 -28.1 41.6 -28.6 39.0 -29.1 36.4 -29.3 35.15 -29.45 33.9 -29.7 31.55 -29.95 29.2 -30.15 25.55 -30.35 21.85 -30.25 14.4 -30.15 6.9 -30.75 7.35 -31.35 7.75 -31.65 7.75 -31.95 7.75 -32.75 9.35 -33.55 11.0 -34.5 12.7 -35.45 14.4 -36.7 16.0 -37.95 17.65 -39.35 19.7 -40.8 21.75 -41.1 22.1 -41.4 22.45 -41.85 22.45 -42.3 22.45 -42.5 22.25 -42.7 22.05 -42.7 21.55 -42.7 21.1 -40.9 18.4 -39.1 15.7 -38.55 14.15 -38.0 12.65 -37.75 11.85 -37.5 11.0 -37.3 10.25 -37.05 9.5 -36.55 7.55 -36.05 5.65 -35.55 3.3 -35.05 0.95 -34.75 -0.6 -34.5 -2.2 -34.25 -4.65 -34.0 -7.05 -34.0 -8.25 -33.95 -9.45 -34.1 -9.7 -34.3 -9.9 -34.5 -12.25 -34.7 -14.6 -34.5 -17.4 -34.3 -20.25 -34.1 -21.95 -33.85 -23.7 -33.4 -25.6 -32.95 -27.5 -32.3 -29.75 -31.65 -31.95 -31.1 -33.35 -30.6 -34.8 -29.65 -37.05 -28.65 -39.3 -27.85 -40.8 -27.1 -42.3 -26.55 -43.15 -26.05 -44.0 -25.05 -45.4 -24.05 -46.85 -22.35 -48.85 -20.7 -50.85 -18.35 -53.2 -15.95 -55.55 -13.7 -57.35 -11.45 -59.1 -9.6 -60.45 -7.75 -61.75 -5.35 -63.1 -3.0 -64.45 -1.15 -65.3 0.65 -66.15 2.6 -66.8 4.55 -67.45 6.15 -67.8 7.75 -68.15 10.1 -68.3 12.4 -68.5 16.25 -68.45 20.1 -68.35 20.55 -68.15 21.0 -67.9 21.25 -68.1 21.45 -68.25 25.55 -68.1 29.65 -68.0 32.1 -67.65 34.55 -67.3 35.45 -67.15 36.4 -67.0 38.0 -66.65 39.6 -66.3 41.0 -65.85 42.4 -65.45 44.6 -64.6 46.8 -63.75 48.7 -62.85 50.65 -61.9 51.55 -61.3 52.5 -60.75 53.65 -59.95 54.85 -59.2 56.45 -57.9 58.1 -56.55 59.85 -55.05 61.55 -53.5 63.15 -51.65 64.8 -49.85 65.75 -48.65 66.7 -47.5 68.3 -45.05 69.9 -42.65 70.45 -41.8 70.95 -41.0 71.2 -40.55 71.4 -40.15 71.6 -40.0 71.75 -39.9 72.3 -39.9 72.8 -39.9 73.1 -39.55 73.4 -39.25 74.05 -39.25 74.7 -39.3 75.5 -38.7 76.3 -38.15 77.75 -37.15 79.15 -36.2 80.0 -35.8 80.85 -35.45 81.1 -35.15 81.3 -34.85 81.3 -34.3 81.3 -33.7 80.85 -33.25 80.4 -32.75 79.75 -32.55 79.1 -32.35 78.4 -32.35 77.65 -32.35 76.55 -32.25 75.45 -32.15 75.95 -30.9 76.45 -29.6 76.55 -29.1 76.7 -28.6 77.3 -26.7 77.9 -24.75 78.35 -23.2 78.8 -21.6 79.0 -20.6 79.25 -19.6 79.6 -18.1 79.9 -16.6 80.25 -15.0 80.55 -13.4 80.8 -11.15 81.1 -8.9 81.25 -5.55 81.45 -2.2 81.35 0.3 81.25 2.8 81.0 5.0 80.75 7.15 80.55 8.3 80.4 9.5 80.05 11.25 79.7 13.0 79.3 14.5 78.95 16.0 78.55 17.35 78.2 18.7 78.1 19.1 77.95 19.5 77.65 20.45 77.4 21.35 76.9 22.9 76.4 24.45 75.75 25.85 75.1 27.2 74.7 28.3 74.35 29.4 74.0 29.85 73.65 30.3 73.35 30.25 73.0 30.2 72.8 29.95 72.65 29.65 73.05 28.7 73.5 27.7 73.6 27.3 73.75 26.85 73.05 26.75 72.4 26.65 72.2 26.4 72.0 26.1 71.85 26.1 71.7 26.1 71.6 26.6 71.5 27.05 71.2 27.6 70.85 28.15 70.5 28.15 70.2 28.15 70.0 27.8 69.85 27.5 70.1 26.8 70.35 26.1 70.35 23.55 70.35 21.05 70.1 17.95 69.85 14.85 69.6 13.0 69.35 11.15 69.2 10.35 69.05 9.5 68.4 7.9 67.8 6.25 67.2 6.35 66.55 6.45 66.5 6.5 66.45 6.55 66.3 8.95 66.15 11.35 65.9 13.5 65.6 15.7 65.5 18.25 65.35 20.85 65.15 21.3 64.95 21.8 64.55 21.8 64.2 21.8 64.0 21.55 63.8 21.3 63.95 20.6 64.15 19.85 64.15 18.85 64.15 17.8 64.05 17.05 63.9 16.25 63.3 16.3 62.7 16.35 62.5 17.85 62.35 19.35 62.15 20.6 61.95 21.85 61.6 23.2 61.25 24.55 61.05 24.95 60.85 25.35 59.85 25.5 58.85 25.6 55.95 25.8 53.05 25.95 52.85 25.8 52.65 25.65 52.95 23.5 53.2 21.35 53.35 18.0 53.45 14.7 53.35 12.05 53.2 9.4 53.1 9.4 52.95 9.4 52.85 12.1 52.7 14.75 52.55 15.2 52.4 15.65 52.2 15.8 52.0 15.9 51.65 15.95 51.3 15.95 51.0 15.6 50.7 15.3 50.85 11.8 50.95 8.3 50.75 7.7 50.5 7.05 50.75 6.65 50.95 6.2 50.75 2.65 50.55 -0.85 50.3 -3.2 50.05 -5.55 49.9 -6.7 49.7 -7.8 49.55 -9.0 49.35 -10.25 48.85 -12.65 48.4 -15.05 48.0 -17.0 47.55 -18.9 47.2 -20.5 46.85 -22.1 46.6 -23.1 46.4 -24.1 46.1 -25.0 45.85 -25.95 45.45 -27.4 45.0 -28.9 44.85 -29.15 44.65 -29.35 44.25 -29.35 43.9 -29.35 43.7 -29.15 43.5 -28.95 43.5 -28.5 43.5 -28.05 43.85 -26.4 44.2 -24.75 44.55 -23.35 44.85 -21.95 45.15 -20.1 45.5 -18.25 45.75 -15.9 46.05 -13.55 46.15 -10.8 46.3 -8.05 46.15 -5.15 46.05 -2.2 45.7 0.3 45.35 2.8 44.95 4.9 44.55 7.0 43.95 9.3 43.35 11.6 43.45 12.15 43.55 12.7 43.1 14.35 42.7 16.0 42.5 16.5 42.3 17.0 42.05 17.3 41.8 17.6 41.4 17.6 41.05 17.6 40.75 17.25 40.4 16.9 40.6 16.15 40.8 15.35 41.15 13.85 41.5 12.35 41.75 11.75 42.0 11.15 42.15 8.3 42.35 5.4 42.35 1.35 42.35 -2.7 42.1 -6.1 41.85 -9.5 41.75 -9.9 41.6 -10.3 41.25 -10.4 40.85 -10.5 40.6 -10.45 40.4 -10.35 40.45 -5.45 40.5 -0.55 40.35 1.65 40.15 3.8 39.95 5.3 39.8 6.8 39.3 9.4 38.8 12.0 38.45 13.15 38.1 14.35 37.85 15.25 37.65 16.2 37.25 17.25 36.9 18.35 36.35 19.85 35.8 21.35 35.7 21.8 35.6 22.2 34.75 23.95 33.9 25.7 33.65 26.0 33.4 26.3 33.2 26.1 32.95 25.95 32.35 24.65 31.7 23.35 31.45 23.05 31.2 22.8 30.75 22.8 30.3 22.8 30.1 23.0 29.9 23.2 29.9 25.05 29.9 26.9 29.7 27.1 29.45 27.3 28.65 26.4 27.85 25.45 26.8 24.0 25.8 22.55 25.2 21.55 24.6 20.5 24.2 19.85 23.85 19.2 23.1 17.75 22.35 16.3 22.35 16.1 22.35 15.95 21.95 15.85 21.55 15.75 21.15 15.85 20.75 15.95 20.55 15.7 20.4 15.5 19.95 13.25 19.55 11.0 19.35 9.85 19.2 8.65 18.95 6.65 18.7 4.65 18.4 1.8 18.1 -1.05 18.1 -8.15 18.1 -15.25 18.3 -17.25 18.5 -19.25 18.45 -19.3 18.4 -19.35 17.45 -18.05 16.5 -16.75 16.25 -16.35 16.05 -15.9 15.0 -14.0 13.95 -12.05 13.2 -10.95 12.5 -9.9 11.2 -8.15 9.9 -6.4 8.5 -4.8 7.15 -3.2 5.75 -1.85 4.35 -0.5 3.1 0.55 1.8 1.65 -0.3 3.25 -2.4 4.85 -3.9 5.85 -5.4 6.85 -6.4 7.4 -7.4 8.0 -7.85 8.25 -8.35 8.5 -9.75 9.75 -11.2 11.0 -11.1 20.0 -11.05 29.05 -10.85 32.2 -10.7 35.4 -10.4 39.0 -10.15 42.6 -9.9 45.0 -9.65 47.45 -9.35 50.1 -9.0 52.8 -8.85 53.8 -8.7 54.8 -8.5 56.05 -8.3 57.3 -7.8 60.05 -7.3 62.8 -6.65 63.9 -6.0 65.0 -5.8 65.55 -5.6 66.1 -5.7 66.6 -5.8 67.1 -6.0 67.35 -6.2 67.55 -6.4 67.55 -6.6 67.55 -6.8 67.35 -6.8 67.35" fill="url(#gradient2)" fill-rule="evenodd" stroke="none"/>
    <path d="M-6.8 67.35 L-6.95 67.15 -7.75 65.6 -8.55 64.05 -8.65 64.05 -8.8 64.05 -9.0 64.3 -9.25 64.6 -9.7 64.85 -10.15 65.05 -10.7 65.05 -11.2 65.05 -11.55 64.85 -11.95 64.7 -12.85 63.95 -13.8 63.25 -14.0 63.25 -14.15 63.25 -15.4 62.4 -16.65 61.6 -18.3 59.9 -20.0 58.2 -20.3 58.9 -20.65 59.65 -21.1 59.7 -21.55 59.75 -21.9 59.35 -22.25 59.0 -22.15 58.35 -22.05 57.75 -23.05 55.7 -24.0 53.7 -24.15 53.7 -24.25 53.7 -24.25 54.05 -24.25 54.4 -24.65 55.6 -25.1 56.8 -25.35 58.1 -25.6 59.45 -25.9 59.75 -26.15 60.05 -26.55 60.05 -26.9 60.05 -27.2 59.75 -27.45 59.45 -27.45 59.1 -27.45 58.75 -26.95 56.4 -26.45 54.1 -26.5 52.4 -26.5 50.75 -26.3 50.45 -26.05 50.15 -25.75 50.25 -25.45 50.35 -25.45 50.3 -25.45 50.25 -26.05 48.45 -26.65 46.65 -26.9 45.7 -27.15 44.75 -27.55 43.25 -27.9 41.75 -28.45 39.15 -28.95 36.55 -29.1 35.3 -29.3 34.05 -29.55 31.7 -29.8 29.4 -30.0 25.7 -30.2 22.05 -30.1 14.45 -29.95 6.9 -30.05 6.9 -30.15 6.9 -30.6 7.25 -31.0 7.55 -31.55 7.65 -32.05 7.75 -32.65 8.95 -33.2 10.15 -34.35 12.3 -35.5 14.4 -37.05 16.45 -38.6 18.45 -39.7 20.1 -40.8 21.75 -41.1 22.1 -41.45 22.45 -41.8 22.45 -42.2 22.45 -42.45 22.2 -42.7 21.9 -42.7 21.55 -42.7 21.15 -40.85 18.35 -39.0 15.55 -38.4 14.0 -37.8 12.5 -37.6 11.75 -37.4 11.0 -37.15 10.15 -36.9 9.35 -36.4 7.4 -35.85 5.5 -35.35 3.15 -34.85 0.8 -34.6 -0.8 -34.3 -2.35 -34.1 -4.8 -33.85 -7.2 -33.85 -8.25 -33.85 -9.3 -34.1 -9.75 -34.4 -10.2 -34.45 -13.4 -34.55 -16.65 -34.35 -19.1 -34.15 -21.6 -33.8 -23.5 -33.5 -25.45 -33.0 -27.25 -32.5 -29.1 -31.9 -31.05 -31.3 -32.95 -30.25 -35.45 -29.25 -37.95 -28.05 -40.3 -26.9 -42.65 -25.65 -44.5 -24.4 -46.35 -23.3 -47.65 -22.25 -49.0 -20.25 -51.15 -18.3 -53.35 -16.35 -55.05 -14.45 -56.7 -12.5 -58.2 -10.6 -59.7 -9.0 -60.8 -7.4 -61.9 -5.9 -62.8 -4.45 -63.65 -1.95 -64.9 0.55 -66.15 2.6 -66.8 4.65 -67.5 6.35 -67.8 8.05 -68.1 9.95 -68.3 11.9 -68.45 14.9 -68.45 17.9 -68.45 19.25 -68.3 20.6 -68.15 22.7 -68.05 24.8 -68.0 27.4 -67.9 30.0 -67.8 32.35 -67.45 34.7 -67.15 35.6 -67.0 36.55 -66.85 38.15 -66.5 39.8 -66.15 41.2 -65.7 42.6 -65.25 44.75 -64.45 46.95 -63.6 48.9 -62.65 50.8 -61.75 51.75 -61.15 52.65 -60.55 54.0 -59.65 55.4 -58.75 57.55 -57.0 59.7 -55.2 61.35 -53.5 63.05 -51.85 64.3 -50.35 65.6 -48.85 66.35 -47.85 67.1 -46.85 68.4 -44.8 69.7 -42.8 70.25 -42.0 70.8 -41.15 71.1 -40.6 71.35 -40.05 71.7 -39.9 72.0 -39.75 72.5 -39.75 73.0 -39.75 73.2 -39.5 73.4 -39.2 74.1 -39.2 74.85 -39.2 75.55 -38.65 76.3 -38.1 77.8 -37.1 79.3 -36.1 80.2 -35.65 81.1 -35.2 81.25 -34.8 81.4 -34.45 81.3 -34.0 81.2 -33.55 80.7 -33.15 80.25 -32.7 79.6 -32.55 79.0 -32.4 77.25 -32.3 75.45 -32.2 75.4 -32.15 75.35 -32.1 75.85 -30.75 76.35 -29.45 76.95 -27.55 77.55 -25.6 77.8 -24.7 78.05 -23.75 78.4 -22.6 78.7 -21.45 79.05 -19.75 79.45 -18.1 79.75 -16.75 80.05 -15.4 80.25 -14.5 80.4 -13.55 80.65 -11.3 80.9 -9.05 81.1 -5.7 81.3 -2.35 81.2 0.3 81.1 3.0 80.85 5.15 80.6 7.3 80.4 8.5 80.2 9.65 79.9 11.4 79.55 13.15 79.15 14.7 78.75 16.2 78.4 17.5 78.05 18.85 77.9 19.25 77.8 19.7 77.5 20.6 77.25 21.55 76.7 23.1 76.2 24.7 75.7 25.7 75.25 26.7 74.8 28.0 74.35 29.25 74.05 29.8 73.7 30.3 73.4 30.3 73.05 30.3 72.85 30.05 72.65 29.8 73.1 28.85 73.5 27.9 73.6 27.35 73.75 26.8 73.35 26.8 72.95 26.8 72.4 26.45 71.85 26.1 71.8 26.1 71.7 26.1 71.45 26.95 71.15 27.75 70.95 27.95 70.7 28.15 70.35 28.05 70.05 27.95 69.95 27.75 69.9 27.55 70.15 26.85 70.4 26.2 70.45 24.15 70.55 22.15 70.35 19.35 70.2 16.5 69.9 14.25 69.65 12.0 69.25 10.5 68.85 9.0 68.35 7.65 67.85 6.3 67.2 6.35 66.55 6.45 66.45 6.55 66.3 6.7 66.15 9.0 66.0 11.35 65.75 13.65 65.5 16.0 65.45 18.35 65.4 20.7 65.15 21.2 64.9 21.7 64.55 21.75 64.15 21.8 64.0 21.5 63.85 21.15 64.0 20.5 64.15 19.85 64.15 18.75 64.15 17.65 64.05 16.85 63.95 16.1 63.45 16.1 63.0 16.1 62.75 16.4 62.5 16.7 62.4 17.75 62.3 18.85 62.1 19.8 61.95 20.8 61.8 21.8 61.6 22.85 61.25 24.05 60.9 25.25 59.8 25.35 58.7 25.45 55.8 25.65 52.9 25.8 52.8 25.75 52.75 25.7 53.1 23.3 53.45 20.85 53.5 15.3 53.5 9.75 53.2 9.45 52.9 9.15 52.9 10.6 52.9 12.0 52.75 13.65 52.6 15.3 52.3 15.6 52.0 15.95 51.65 15.95 51.3 15.95 51.0 15.6 50.7 15.3 50.9 12.05 51.1 8.75 50.8 7.95 50.55 7.1 50.85 6.5 51.1 5.9 50.9 2.6 50.7 -0.7 50.45 -3.05 50.2 -5.4 50.05 -6.5 49.9 -7.65 49.7 -8.85 49.5 -10.05 49.05 -12.5 48.55 -14.9 48.15 -16.85 47.75 -18.75 47.4 -20.35 47.05 -21.95 46.8 -22.95 46.55 -23.95 46.3 -24.85 46.0 -25.75 45.6 -27.2 45.2 -28.65 45.0 -29.0 44.75 -29.35 44.5 -29.45 44.2 -29.55 43.85 -29.35 43.5 -29.2 43.4 -28.8 43.3 -28.4 43.65 -26.75 44.0 -25.1 44.35 -23.6 44.7 -22.1 45.0 -20.25 45.35 -18.4 45.6 -16.1 45.85 -13.75 46.0 -10.9 46.15 -8.05 46.0 -5.05 45.85 -2.05 45.55 0.45 45.2 3.0 44.8 5.05 44.35 7.15 43.8 9.35 43.25 11.5 43.4 12.0 43.55 12.5 43.0 14.6 42.5 16.7 42.25 17.05 42.0 17.4 41.65 17.5 41.35 17.6 41.0 17.45 40.65 17.25 40.55 16.9 40.45 16.5 41.0 14.7 41.5 12.85 41.5 12.5 41.5 12.15 41.8 11.65 42.15 11.1 42.3 8.15 42.5 5.2 42.5 1.4 42.5 -2.45 42.25 -5.95 42.0 -9.5 41.85 -9.9 41.7 -10.3 41.35 -10.5 41.0 -10.65 40.65 -10.55 40.3 -10.45 40.3 -10.25 40.3 -10.05 40.3 -5.2 40.35 -0.35 40.15 1.8 40.0 4.0 39.8 5.5 39.6 7.0 39.1 9.6 38.6 12.15 38.3 13.35 37.95 14.5 37.7 15.45 37.45 16.35 37.1 17.45 36.75 18.5 36.2 20.0 35.65 21.55 35.55 21.95 35.4 22.35 34.5 24.25 33.6 26.15 33.35 26.1 33.1 26.05 32.3 24.45 31.5 22.85 31.05 22.7 30.6 22.55 30.15 22.95 29.75 23.35 29.75 25.25 29.75 27.15 29.5 27.15 29.3 27.15 28.6 26.35 27.95 25.55 26.95 24.1 25.95 22.7 25.35 21.7 24.75 20.7 24.4 20.0 24.0 19.35 23.25 17.9 22.55 16.45 22.55 16.3 22.55 16.1 22.15 15.85 21.75 15.55 21.15 15.7 20.55 15.8 20.1 13.3 19.65 10.85 19.5 9.85 19.35 8.85 19.1 6.8 18.85 4.8 18.55 1.95 18.3 -0.85 18.3 -8.2 18.3 -15.6 18.45 -17.4 18.65 -19.25 18.6 -19.35 18.5 -19.4 18.05 -18.85 17.6 -18.3 16.9 -17.35 16.15 -16.4 15.75 -15.5 15.3 -14.6 14.3 -12.85 13.25 -11.05 12.5 -10.0 11.75 -8.9 10.75 -7.55 9.75 -6.2 8.35 -4.65 6.95 -3.05 5.75 -1.85 4.5 -0.65 3.25 0.4 2.0 1.5 -0.1 3.05 -2.2 4.65 -3.45 5.5 -4.7 6.35 -6.0 7.1 -7.25 7.8 -7.75 8.05 -8.2 8.3 -9.8 9.75 -11.35 11.15 -11.3 20.0 -11.2 28.9 -11.0 32.05 -10.85 35.25 -10.6 38.85 -10.35 42.4 -10.1 44.85 -9.85 47.25 -9.5 49.95 -9.15 52.6 -9.0 53.6 -8.85 54.6 -8.65 55.85 -8.45 57.15 -7.95 59.9 -7.45 62.65 -6.65 64.0 -5.8 65.35 -5.7 65.85 -5.6 66.35 -5.85 66.95 -6.15 67.55 -6.35 67.55 -6.6 67.55 -6.8 67.35 -6.8 67.35" fill="url(#gradient3)" fill-rule="evenodd" stroke="none"/>
    <path d="M-6.6 67.45 L-6.8 67.4 -7.65 65.7 -8.55 64.05 -8.65 64.05 -8.8 64.05 -9.1 64.4 -9.4 64.7 -9.95 64.9 -10.55 65.1 -11.1 65.0 -11.65 64.9 -12.7 64.05 -13.75 63.25 -13.95 63.25 -14.15 63.25 -15.4 62.4 -16.65 61.6 -18.3 59.9 -20.0 58.2 -20.25 58.85 -20.55 59.55 -21.0 59.65 -21.45 59.75 -21.85 59.35 -22.25 58.9 -22.1 58.4 -21.95 57.95 -23.0 55.8 -24.0 53.7 -24.1 53.7 -24.2 53.7 -24.45 54.65 -24.65 55.6 -24.75 55.8 -24.9 55.95 -25.3 57.7 -25.65 59.45 -25.9 59.75 -26.15 60.05 -26.55 60.05 -26.9 60.05 -27.2 59.7 -27.5 59.4 -27.4 58.6 -27.3 57.8 -26.95 56.45 -26.6 55.1 -26.5 52.85 -26.4 50.6 -26.25 50.4 -26.05 50.15 -25.75 50.25 -25.45 50.35 -25.45 50.3 -25.45 50.25 -26.05 48.45 -26.65 46.65 -26.9 45.7 -27.15 44.75 -27.55 43.25 -27.9 41.75 -28.45 39.15 -28.95 36.55 -29.1 35.3 -29.3 34.05 -29.55 31.7 -29.8 29.4 -30.0 25.7 -30.2 22.05 -30.1 14.35 -29.95 6.7 -30.5 7.15 -31.05 7.55 -31.55 7.65 -32.05 7.75 -32.65 8.95 -33.2 10.15 -34.35 12.25 -35.5 14.35 -36.8 16.05 -38.1 17.8 -39.65 20.0 -41.15 22.2 -41.6 22.35 -42.05 22.5 -42.4 22.2 -42.7 21.9 -42.7 21.55 -42.7 21.2 -40.85 18.35 -38.95 15.5 -38.4 14.0 -37.8 12.5 -37.6 11.65 -37.35 10.85 -37.1 10.1 -36.9 9.35 -36.4 7.4 -35.85 5.5 -35.35 3.15 -34.85 0.8 -34.6 -0.8 -34.3 -2.35 -34.1 -4.8 -33.85 -7.2 -33.85 -8.4 -33.85 -9.6 -34.05 -9.7 -34.2 -9.75 -34.35 -10.75 -34.45 -11.75 -34.5 -14.5 -34.5 -17.25 -34.35 -19.15 -34.15 -21.1 -33.9 -22.85 -33.65 -24.55 -33.05 -26.85 -32.5 -29.1 -31.75 -31.45 -30.95 -33.8 -30.1 -35.9 -29.25 -37.95 -28.25 -39.9 -27.3 -41.8 -26.6 -43.0 -25.9 -44.15 -24.8 -45.65 -23.7 -47.15 -22.0 -49.15 -20.35 -51.2 -18.5 -53.0 -16.65 -54.85 -14.95 -56.25 -13.3 -57.65 -11.1 -59.25 -8.9 -60.9 -7.6 -61.75 -6.25 -62.6 -4.85 -63.35 -3.45 -64.15 -1.4 -65.15 0.6 -66.15 2.7 -66.8 4.85 -67.5 6.45 -67.8 8.05 -68.1 10.05 -68.3 12.05 -68.45 14.8 -68.45 17.6 -68.45 19.05 -68.3 20.55 -68.15 20.75 -68.0 20.95 -67.8 21.1 -67.95 21.3 -68.1 25.55 -67.95 29.85 -67.8 32.25 -67.45 34.7 -67.15 35.6 -67.0 36.55 -66.85 38.15 -66.5 39.8 -66.15 41.2 -65.7 42.6 -65.25 44.75 -64.45 46.95 -63.6 48.9 -62.65 50.8 -61.75 51.75 -61.15 52.65 -60.55 54.0 -59.65 55.4 -58.75 57.55 -57.0 59.7 -55.2 61.35 -53.5 63.05 -51.85 64.3 -50.35 65.6 -48.85 66.35 -47.85 67.1 -46.85 68.4 -44.8 69.7 -42.8 70.25 -42.0 70.8 -41.15 71.1 -40.6 71.35 -40.05 71.7 -39.9 72.0 -39.75 72.5 -39.75 73.0 -39.75 73.2 -39.5 73.4 -39.25 74.05 -39.25 74.7 -39.25 75.5 -38.65 76.3 -38.1 77.65 -37.2 79.0 -36.25 80.0 -35.75 81.05 -35.25 81.15 -34.95 81.25 -34.7 81.25 -34.2 81.25 -33.7 80.75 -33.2 80.25 -32.75 79.45 -32.55 78.65 -32.4 77.05 -32.3 75.5 -32.2 75.4 -32.15 75.35 -32.1 75.85 -30.75 76.35 -29.45 76.95 -27.55 77.55 -25.6 77.8 -24.7 78.05 -23.75 78.4 -22.6 78.7 -21.45 79.05 -19.75 79.45 -18.1 79.75 -16.75 80.05 -15.4 80.25 -14.5 80.4 -13.55 80.65 -11.3 80.9 -9.05 81.1 -5.7 81.3 -2.35 81.2 0.3 81.1 3.0 80.85 5.15 80.6 7.3 80.4 8.5 80.2 9.65 79.9 11.4 79.55 13.15 79.15 14.65 78.75 16.2 78.4 17.5 78.05 18.85 77.9 19.25 77.8 19.7 77.5 20.6 77.25 21.55 76.7 23.1 76.2 24.65 75.65 25.85 75.1 27.05 74.6 28.35 74.15 29.7 73.85 30.0 73.55 30.3 73.3 30.3 73.05 30.3 72.85 30.05 72.65 29.8 73.1 28.8 73.55 27.85 73.65 27.35 73.75 26.85 73.15 26.75 72.6 26.6 72.3 26.3 71.95 25.95 71.85 25.95 71.75 25.95 71.45 26.85 71.15 27.8 70.8 28.0 70.5 28.15 70.2 27.9 69.95 27.65 70.25 26.55 70.5 25.5 70.5 23.35 70.5 21.2 70.25 18.1 70.05 15.0 69.8 13.15 69.55 11.35 69.25 10.35 69.0 9.35 68.45 7.8 67.85 6.3 67.2 6.35 66.55 6.4 66.4 6.55 66.3 6.7 66.15 9.0 66.0 11.35 65.7 13.65 65.45 16.0 65.45 17.85 65.5 19.7 65.25 20.6 65.05 21.5 64.8 21.65 64.5 21.85 64.25 21.7 63.95 21.6 64.1 19.8 64.2 18.0 64.05 17.05 63.95 16.1 63.5 16.1 63.0 16.1 62.75 16.4 62.5 16.7 62.4 17.75 62.3 18.85 62.1 19.8 61.95 20.8 61.8 21.8 61.6 22.85 61.25 24.05 60.9 25.25 59.8 25.35 58.7 25.45 55.8 25.65 52.9 25.8 52.8 25.75 52.75 25.7 53.1 23.3 53.45 20.85 53.5 15.3 53.5 9.75 53.2 9.5 52.95 9.2 52.85 11.85 52.7 14.45 52.6 14.95 52.5 15.45 52.15 15.7 51.75 15.95 51.4 15.85 51.05 15.75 50.9 15.45 50.75 15.1 50.9 11.95 51.1 8.75 50.85 7.9 50.6 7.05 50.85 6.45 51.1 5.9 50.9 2.6 50.7 -0.7 50.45 -3.05 50.2 -5.4 50.05 -6.55 49.85 -7.7 49.7 -8.9 49.5 -10.05 49.05 -12.5 48.55 -14.9 48.15 -16.85 47.75 -18.75 47.4 -20.35 47.05 -21.95 46.8 -22.95 46.55 -23.95 46.3 -24.85 46.0 -25.75 45.6 -27.2 45.2 -28.65 45.0 -29.0 44.75 -29.35 44.5 -29.45 44.2 -29.55 43.85 -29.35 43.5 -29.2 43.4 -28.8 43.3 -28.4 43.65 -26.75 44.0 -25.1 44.35 -23.6 44.7 -22.1 45.0 -20.25 45.35 -18.4 45.6 -16.1 45.85 -13.75 46.0 -10.9 46.15 -8.05 46.0 -5.05 45.85 -2.05 45.55 0.45 45.2 3.0 44.8 5.05 44.35 7.15 43.8 9.4 43.2 11.65 43.35 12.05 43.5 12.45 43.3 13.3 43.15 14.15 42.7 15.65 42.25 17.15 41.9 17.4 41.5 17.65 41.1 17.45 40.7 17.3 40.55 16.95 40.45 16.6 40.8 15.45 41.15 14.35 41.35 13.35 41.55 12.35 41.85 11.75 42.15 11.15 42.3 8.2 42.5 5.2 42.5 1.4 42.5 -2.45 42.25 -5.95 42.0 -9.5 41.85 -9.9 41.7 -10.3 41.35 -10.5 41.0 -10.65 40.65 -10.55 40.3 -10.45 40.3 -10.25 40.3 -10.05 40.3 -5.2 40.35 -0.35 40.15 1.8 40.0 4.0 39.8 5.5 39.6 7.0 39.1 9.6 38.6 12.15 38.3 13.35 37.95 14.5 37.7 15.45 37.45 16.35 37.1 17.45 36.75 18.5 36.2 20.0 35.65 21.55 35.55 21.95 35.4 22.35 34.5 24.25 33.6 26.15 33.35 26.1 33.1 26.05 32.3 24.45 31.5 22.85 31.05 22.7 30.6 22.55 30.15 22.95 29.75 23.35 29.75 25.25 29.75 27.15 29.5 27.15 29.3 27.15 28.6 26.35 27.95 25.55 26.95 24.1 25.95 22.7 25.35 21.7 24.75 20.7 24.4 20.0 24.0 19.35 23.25 17.9 22.55 16.45 22.55 16.3 22.55 16.1 22.15 15.85 21.75 15.55 21.15 15.7 20.55 15.8 20.1 13.3 19.65 10.85 19.5 9.85 19.35 8.85 19.2 7.5 19.0 6.15 18.65 2.8 18.35 -0.55 18.25 -6.2 18.15 -11.9 18.3 -15.0 18.5 -18.1 18.6 -18.8 18.7 -19.5 18.55 -19.5 18.45 -19.5 17.35 -18.0 16.3 -16.55 16.1 -16.15 15.85 -15.75 14.8 -13.8 13.75 -11.9 13.05 -10.8 12.35 -9.7 11.05 -7.95 9.75 -6.2 8.35 -4.65 6.95 -3.05 5.75 -1.85 4.5 -0.65 3.25 0.4 2.0 1.5 -0.1 3.05 -2.2 4.65 -3.45 5.5 -4.7 6.35 -6.0 7.1 -7.25 7.8 -7.75 8.05 -8.2 8.3 -9.8 9.75 -11.35 11.15 -11.3 20.0 -11.2 28.9 -11.0 32.05 -10.85 35.25 -10.6 38.85 -10.35 42.4 -10.1 44.85 -9.85 47.25 -9.5 49.95 -9.15 52.6 -9.0 53.6 -8.85 54.6 -8.65 55.85 -8.45 57.15 -7.95 59.9 -7.45 62.65 -6.8 63.7 -6.15 64.8 -5.9 65.5 -5.6 66.25 -5.85 66.85 -6.05 67.45 -6.25 67.5 -6.4 67.55 -6.6 67.45 -6.6 67.45" fill="url(#gradient4)" fill-rule="evenodd" stroke="none"/>
    <path d="M-6.6 67.45 L-6.8 67.4 -7.6 65.85 -8.35 64.3 -8.5 64.15 -8.65 64.0 -9.15 64.45 -9.7 64.9 -10.25 65.0 -10.8 65.1 -11.2 65.0 -11.6 64.85 -12.65 64.05 -13.75 63.25 -13.95 63.25 -14.15 63.25 -15.4 62.4 -16.65 61.6 -18.35 59.9 -20.05 58.15 -20.15 58.45 -20.25 58.8 -20.35 59.0 -20.4 59.2 -20.8 59.5 -21.25 59.75 -21.7 59.45 -22.1 59.2 -22.05 58.55 -21.95 57.95 -23.05 55.7 -24.15 53.45 -24.45 54.55 -24.7 55.6 -24.8 55.8 -24.95 56.0 -25.25 57.6 -25.6 59.25 -25.75 59.55 -25.95 59.85 -26.25 59.95 -26.6 60.05 -26.95 59.9 -27.3 59.7 -27.4 59.3 -27.5 58.95 -26.95 56.65 -26.45 54.35 -26.45 52.55 -26.45 50.7 -26.2 50.45 -25.9 50.2 -25.65 50.35 -25.35 50.5 -25.95 48.65 -26.6 46.75 -26.85 45.75 -27.15 44.75 -27.55 43.25 -27.9 41.75 -28.45 39.15 -28.95 36.55 -29.1 35.3 -29.3 34.05 -29.55 31.65 -29.8 29.2 -29.95 26.05 -30.15 22.85 -30.1 17.75 -30.1 12.65 -30.0 9.55 -29.9 6.4 -30.35 6.9 -30.85 7.4 -31.45 7.55 -32.05 7.75 -32.65 8.95 -33.2 10.15 -34.3 12.15 -35.4 14.15 -36.15 15.25 -36.9 16.3 -38.0 17.65 -39.1 19.0 -40.15 20.65 -41.2 22.25 -41.55 22.35 -41.9 22.45 -42.35 22.2 -42.75 21.9 -42.65 21.45 -42.55 21.0 -40.9 18.5 -39.25 16.0 -39.0 15.5 -38.75 15.0 -38.25 13.6 -37.75 12.15 -37.45 11.25 -37.2 10.35 -36.95 9.5 -36.7 8.65 -36.3 7.05 -35.85 5.5 -35.35 3.15 -34.85 0.8 -34.6 -0.8 -34.3 -2.35 -34.1 -4.8 -33.85 -7.2 -33.85 -8.35 -33.85 -9.5 -34.1 -9.95 -34.4 -10.4 -34.4 -14.75 -34.4 -19.1 -34.2 -20.65 -34.0 -22.25 -33.75 -23.7 -33.45 -25.1 -33.15 -26.5 -32.8 -27.95 -31.9 -30.8 -31.0 -33.65 -30.15 -35.7 -29.3 -37.8 -28.1 -40.15 -26.95 -42.5 -25.7 -44.3 -24.45 -46.15 -23.0 -48.0 -21.5 -49.85 -19.3 -52.05 -17.15 -54.3 -15.45 -55.75 -13.8 -57.2 -11.7 -58.8 -9.6 -60.4 -7.9 -61.5 -6.2 -62.6 -3.7 -63.95 -1.2 -65.25 0.05 -65.8 1.3 -66.35 3.05 -66.9 4.85 -67.45 6.5 -67.8 8.2 -68.1 10.9 -68.3 13.55 -68.5 16.6 -68.4 19.65 -68.3 20.35 -68.1 21.0 -67.85 21.15 -68.0 21.3 -68.1 25.55 -67.95 29.85 -67.8 32.25 -67.45 34.7 -67.15 35.6 -67.0 36.55 -66.85 38.15 -66.5 39.8 -66.15 41.2 -65.7 42.6 -65.25 44.75 -64.45 46.95 -63.6 48.9 -62.65 50.8 -61.75 51.75 -61.15 52.65 -60.55 54.0 -59.65 55.4 -58.75 57.55 -57.0 59.7 -55.2 61.35 -53.5 63.05 -51.85 64.3 -50.35 65.6 -48.85 66.35 -47.85 67.1 -46.85 68.4 -44.8 69.7 -42.8 70.25 -42.0 70.8 -41.15 71.1 -40.6 71.35 -40.05 71.7 -39.9 72.0 -39.75 72.45 -39.75 72.9 -39.75 73.25 -39.45 73.55 -39.15 74.1 -39.2 74.65 -39.25 75.05 -38.95 75.5 -38.65 77.55 -37.25 79.6 -35.85 80.05 -35.7 80.5 -35.55 80.9 -35.15 81.25 -34.8 81.25 -34.3 81.25 -33.75 80.8 -33.3 80.35 -32.85 79.95 -32.7 79.6 -32.55 77.75 -32.4 75.9 -32.2 75.65 -32.3 75.4 -32.4 75.4 -32.25 75.4 -32.05 75.85 -30.75 76.35 -29.45 76.95 -27.55 77.55 -25.6 77.8 -24.7 78.05 -23.75 78.4 -22.6 78.7 -21.45 79.05 -19.75 79.45 -18.1 79.75 -16.75 80.05 -15.4 80.25 -14.5 80.4 -13.55 80.65 -11.3 80.9 -9.05 81.1 -5.7 81.3 -2.35 81.2 0.3 81.1 3.0 80.85 5.15 80.6 7.3 80.4 8.5 80.2 9.65 79.9 11.4 79.55 13.15 79.15 14.7 78.75 16.2 78.4 17.5 78.05 18.85 77.9 19.25 77.8 19.7 77.5 20.6 77.25 21.55 76.75 23.1 76.2 24.65 75.55 26.0 74.9 27.4 74.8 27.8 74.7 28.2 74.25 29.15 73.85 30.1 73.6 30.2 73.35 30.3 73.15 30.2 72.9 30.1 72.8 29.9 72.7 29.7 73.15 28.8 73.55 27.9 73.65 27.25 73.75 26.65 73.25 26.65 72.75 26.65 72.3 26.25 71.85 25.9 71.7 26.15 71.55 26.35 71.55 26.6 71.5 26.8 71.25 27.35 70.95 27.9 70.8 28.0 70.6 28.1 70.3 27.95 70.0 27.8 70.0 27.5 70.0 27.2 70.25 26.55 70.5 25.85 70.5 23.55 70.5 21.2 70.25 18.1 70.05 15.0 69.75 13.1 69.5 11.15 69.2 10.0 68.85 8.85 68.35 7.55 67.9 6.3 67.15 6.35 66.4 6.4 66.35 6.5 66.3 6.55 66.15 9.0 66.0 11.5 65.7 13.65 65.45 15.85 65.4 18.2 65.35 20.5 65.2 21.0 65.05 21.5 64.8 21.65 64.5 21.85 64.25 21.65 64.0 21.4 64.1 19.55 64.2 17.65 64.05 16.9 63.95 16.1 63.5 16.1 63.0 16.1 62.75 16.4 62.5 16.7 62.4 17.75 62.3 18.85 62.1 19.8 61.95 20.8 61.8 21.8 61.6 22.85 61.25 24.05 60.9 25.25 59.8 25.35 58.7 25.45 55.8 25.65 52.9 25.8 52.8 25.75 52.75 25.7 53.1 23.3 53.45 20.85 53.5 15.3 53.5 9.75 53.2 9.5 52.95 9.25 52.8 12.15 52.6 15.05 52.4 15.4 52.25 15.7 51.9 15.8 51.5 15.9 51.1 15.5 50.7 15.05 50.8 14.2 50.9 13.35 51.0 11.05 51.1 8.75 50.9 8.0 50.65 7.2 50.9 6.55 51.1 5.9 50.9 2.6 50.7 -0.7 50.45 -3.05 50.2 -5.4 50.05 -6.55 49.85 -7.7 49.7 -8.9 49.5 -10.05 49.05 -12.5 48.55 -14.9 48.15 -16.85 47.75 -18.75 47.4 -20.35 47.05 -21.95 46.8 -22.95 46.55 -23.95 46.3 -24.85 46.0 -25.75 45.6 -27.2 45.2 -28.65 45.0 -29.0 44.75 -29.35 44.5 -29.45 44.2 -29.55 43.85 -29.35 43.5 -29.2 43.4 -28.8 43.3 -28.4 43.65 -26.75 44.0 -25.1 44.35 -23.6 44.7 -22.1 45.0 -20.25 45.35 -18.4 45.6 -16.1 45.85 -13.75 46.0 -10.9 46.15 -8.05 46.0 -5.05 45.85 -2.05 45.55 0.45 45.2 3.0 44.8 5.05 44.35 7.15 43.85 9.15 43.3 11.15 43.25 12.5 43.25 13.85 42.8 15.3 42.35 16.75 42.2 17.1 42.0 17.45 41.5 17.45 41.0 17.45 40.75 17.05 40.5 16.7 41.05 14.6 41.55 12.5 41.85 11.75 42.15 11.0 42.35 8.1 42.5 5.25 42.5 1.4 42.5 -2.45 42.25 -5.95 42.0 -9.5 41.85 -9.9 41.7 -10.3 41.35 -10.5 41.0 -10.65 40.65 -10.55 40.3 -10.45 40.3 -10.25 40.3 -10.05 40.3 -5.2 40.35 -0.35 40.15 1.8 40.0 4.0 39.8 5.5 39.6 7.0 39.1 9.6 38.6 12.15 38.3 13.35 37.95 14.5 37.7 15.45 37.45 16.35 37.1 17.45 36.75 18.5 36.2 20.0 35.65 21.55 35.55 21.95 35.4 22.35 34.5 24.25 33.6 26.15 33.35 26.1 33.1 26.05 32.3 24.45 31.5 22.85 31.05 22.7 30.6 22.55 30.15 22.95 29.75 23.35 29.75 25.25 29.75 27.15 29.5 27.15 29.3 27.15 28.6 26.35 27.95 25.55 26.95 24.1 25.95 22.7 25.35 21.7 24.75 20.7 24.4 20.0 24.0 19.35 23.25 17.9 22.55 16.45 22.55 16.3 22.55 16.1 22.15 15.85 21.75 15.55 21.15 15.7 20.55 15.8 20.1 13.3 19.65 10.85 19.5 9.85 19.35 8.85 19.1 6.8 18.85 4.8 18.55 1.95 18.3 -0.85 18.25 -8.05 18.25 -15.25 18.45 -17.4 18.7 -19.55 18.65 -19.6 18.6 -19.65 17.45 -18.2 16.35 -16.7 15.8 -15.65 15.3 -14.55 14.25 -12.8 13.25 -11.05 12.5 -10.0 11.75 -8.9 10.75 -7.55 9.75 -6.2 8.35 -4.65 6.95 -3.05 5.75 -1.85 4.5 -0.65 3.25 0.4 2.0 1.5 -0.1 3.05 -2.2 4.65 -3.7 5.65 -5.25 6.7 -6.0 7.1 -6.75 7.55 -7.55 8.0 -8.4 8.45 -9.9 9.8 -11.4 11.15 -11.3 20.0 -11.2 28.9 -11.0 32.05 -10.85 35.25 -10.6 38.75 -10.35 42.25 -10.1 44.85 -9.8 47.45 -9.4 50.55 -9.0 53.6 -8.85 54.6 -8.7 55.6 -8.5 56.85 -8.35 58.05 -7.85 60.5 -7.35 63.0 -6.75 63.85 -6.2 64.7 -5.9 65.45 -5.6 66.25 -5.9 66.8 -6.15 67.4 -6.3 67.45 -6.4 67.55 -6.6 67.45 -6.6 67.45" fill="url(#gradient5)" fill-rule="evenodd" stroke="none"/>
    <path d="M-6.55 67.2 L-6.7 67.0 -7.35 65.75 -7.95 64.5 -8.25 64.2 -8.5 63.9 -9.05 64.4 -9.65 64.9 -10.45 64.9 -11.3 64.9 -12.0 64.3 -12.75 63.75 -13.65 63.3 -14.55 62.9 -15.55 62.2 -16.5 61.55 -18.15 59.9 -19.85 58.2 -19.95 58.2 -20.1 58.2 -20.1 58.5 -20.1 58.8 -20.35 59.2 -20.6 59.55 -21.0 59.55 -21.35 59.55 -21.6 59.4 -21.85 59.25 -21.85 58.45 -21.9 57.65 -23.0 55.5 -24.1 53.35 -24.3 54.4 -24.5 55.4 -24.75 55.75 -24.95 56.1 -25.25 57.65 -25.5 59.15 -25.75 59.5 -26.0 59.9 -26.4 59.9 -26.8 59.9 -27.0 59.7 -27.2 59.5 -27.2 58.95 -27.2 58.4 -26.75 56.45 -26.35 54.55 -26.35 52.75 -26.35 50.9 -26.1 50.6 -25.85 50.25 -25.5 50.5 -25.1 50.7 -25.25 50.4 -25.35 50.1 -25.95 48.35 -26.55 46.65 -26.8 45.7 -27.05 44.75 -27.45 43.25 -27.85 41.75 -28.35 39.15 -28.85 36.55 -29.05 35.3 -29.2 34.05 -29.45 31.7 -29.7 29.4 -29.9 25.7 -30.1 22.05 -30.0 14.4 -29.9 6.75 -29.75 6.45 -29.65 6.15 -30.1 6.7 -30.6 7.25 -31.25 7.45 -31.9 7.65 -32.7 9.25 -33.45 10.85 -34.4 12.5 -35.35 14.15 -36.2 15.35 -37.05 16.5 -38.0 17.65 -38.9 18.8 -40.0 20.4 -41.1 22.0 -41.4 22.15 -41.65 22.35 -42.1 22.2 -42.55 22.1 -42.55 21.6 -42.55 21.05 -40.75 18.35 -38.95 15.7 -38.4 14.1 -37.8 12.5 -37.55 11.65 -37.3 10.85 -37.1 10.1 -36.85 9.35 -36.35 7.4 -35.8 5.5 -35.3 3.15 -34.8 0.8 -34.55 -0.7 -34.3 -2.2 -34.05 -4.9 -33.75 -7.55 -33.75 -8.55 -33.7 -9.55 -33.9 -9.75 -34.15 -9.9 -34.3 -12.3 -34.5 -14.75 -34.3 -17.65 -34.1 -20.6 -33.85 -22.35 -33.6 -24.1 -33.1 -26.2 -32.6 -28.3 -31.8 -30.7 -31.05 -33.15 -30.2 -35.2 -29.35 -37.3 -28.1 -39.8 -26.9 -42.3 -26.0 -43.65 -25.1 -45.0 -24.1 -46.35 -23.05 -47.65 -21.2 -49.85 -19.3 -52.0 -17.8 -53.45 -16.3 -54.85 -15.1 -55.85 -13.95 -56.85 -11.9 -58.4 -9.9 -60.0 -8.0 -61.2 -6.15 -62.4 -3.95 -63.6 -1.7 -64.8 0.1 -65.65 1.95 -66.45 4.0 -67.05 6.05 -67.65 7.7 -67.9 9.35 -68.15 12.25 -68.3 15.1 -68.45 17.85 -68.3 20.55 -68.15 20.95 -68.0 21.3 -67.8 21.5 -67.95 21.7 -68.1 26.0 -67.95 30.3 -67.8 32.75 -67.45 35.2 -67.15 36.15 -67.0 37.05 -66.85 38.7 -66.5 40.35 -66.15 41.75 -65.7 43.15 -65.25 45.35 -64.45 47.55 -63.6 49.5 -62.65 51.4 -61.75 52.35 -61.15 53.3 -60.55 54.65 -59.65 56.05 -58.75 58.2 -57.0 60.35 -55.2 62.05 -53.55 63.75 -51.85 65.0 -50.35 66.3 -48.85 67.05 -47.85 67.85 -46.85 69.15 -44.8 70.45 -42.8 71.0 -42.0 71.55 -41.15 71.85 -40.6 72.1 -40.05 72.45 -39.9 72.75 -39.75 73.25 -39.75 73.75 -39.75 74.05 -39.4 74.35 -39.05 74.95 -39.05 75.55 -39.05 77.75 -37.6 79.95 -36.1 80.85 -35.65 81.7 -35.2 81.9 -34.9 82.05 -34.55 82.05 -34.25 82.05 -33.9 81.65 -33.4 81.2 -32.9 80.6 -32.7 79.95 -32.55 78.0 -32.45 76.05 -32.35 76.55 -31.05 77.05 -29.8 77.2 -29.3 77.3 -28.8 77.95 -26.85 78.55 -24.95 79.0 -23.35 79.4 -21.75 79.65 -20.75 79.85 -19.75 80.2 -18.25 80.55 -16.75 80.9 -15.15 81.2 -13.55 81.45 -11.3 81.7 -9.05 81.9 -5.7 82.1 -2.35 82.0 0.3 81.9 3.0 81.65 5.15 81.4 7.3 81.2 8.5 81.0 9.65 80.7 11.4 80.35 13.15 79.95 14.65 79.55 16.2 79.2 17.5 78.85 18.85 78.7 19.25 78.55 19.7 78.3 20.6 78.0 21.55 77.5 23.1 77.0 24.65 76.4 25.85 75.85 27.05 75.4 28.2 74.95 29.4 74.7 29.75 74.45 30.15 74.1 30.15 73.8 30.15 73.7 29.9 73.6 29.65 74.0 28.6 74.45 27.55 74.55 27.1 74.65 26.6 74.1 26.6 73.5 26.6 73.05 26.2 72.55 25.75 72.55 25.8 72.5 25.85 72.15 26.8 71.8 27.7 71.55 27.85 71.25 28.05 71.0 27.75 70.75 27.5 71.0 26.7 71.25 25.95 71.25 23.55 71.25 21.2 71.0 18.1 70.75 15.0 70.5 13.15 70.25 11.35 70.1 10.5 69.95 9.65 69.3 8.0 68.7 6.3 68.6 6.2 68.45 6.1 67.75 6.3 67.05 6.45 66.95 7.3 66.9 8.15 66.8 9.9 66.7 11.65 66.45 13.65 66.2 15.7 66.05 18.4 65.9 21.1 65.7 21.35 65.45 21.65 65.1 21.6 64.75 21.55 64.8 19.15 64.9 16.8 64.75 16.45 64.65 16.1 64.2 16.1 63.7 16.1 63.45 16.4 63.2 16.7 63.1 17.75 62.95 18.85 62.8 19.8 62.65 20.75 62.45 21.8 62.3 22.85 61.95 24.05 61.6 25.25 60.5 25.35 59.35 25.45 56.45 25.65 53.5 25.8 53.45 25.75 53.4 25.7 53.75 23.3 54.1 20.85 54.1 15.35 54.1 9.8 53.9 9.5 53.65 9.25 53.6 9.3 53.55 9.35 53.35 12.2 53.2 15.0 52.95 15.4 52.7 15.75 52.3 15.75 51.9 15.75 51.7 15.5 51.5 15.3 51.6 11.9 51.7 8.5 51.5 7.85 51.3 7.2 51.5 6.55 51.75 5.9 51.55 2.6 51.3 -0.7 51.1 -3.05 50.85 -5.4 50.65 -6.5 50.5 -7.65 50.3 -8.85 50.1 -10.05 49.65 -12.5 49.15 -14.9 48.75 -16.85 48.35 -18.75 47.95 -20.35 47.6 -21.95 47.4 -22.95 47.15 -23.95 46.85 -24.85 46.6 -25.75 46.2 -27.2 45.8 -28.65 45.55 -29.0 45.35 -29.35 45.05 -29.45 44.75 -29.55 44.4 -29.35 44.1 -29.2 44.0 -28.8 43.9 -28.4 44.25 -26.75 44.6 -25.1 44.9 -23.6 45.25 -22.1 45.6 -20.25 45.9 -18.4 46.2 -16.1 46.45 -13.75 46.6 -10.9 46.75 -8.05 46.6 -5.05 46.45 -2.05 46.1 0.45 45.75 2.95 45.35 5.05 44.95 7.15 44.35 9.4 43.75 11.7 43.85 12.25 43.95 12.85 43.4 14.9 42.85 16.9 42.55 17.2 42.2 17.5 41.75 17.35 41.3 17.15 41.25 16.8 41.15 16.4 41.65 14.7 42.1 13.0 42.4 12.0 42.7 11.0 42.9 8.1 43.05 5.25 43.05 1.4 43.05 -2.45 42.8 -5.95 42.55 -9.5 42.4 -9.9 42.25 -10.3 41.9 -10.5 41.55 -10.65 41.2 -10.55 40.85 -10.45 40.85 -10.25 40.85 -10.05 40.85 -5.2 40.9 -0.35 40.7 1.8 40.55 4.0 40.35 5.5 40.15 7.0 39.65 9.6 39.15 12.15 38.8 13.35 38.5 14.5 38.25 15.45 38.0 16.35 37.65 17.45 37.25 18.5 36.7 20.0 36.15 21.55 36.05 21.95 35.95 22.35 35.0 24.25 34.1 26.15 33.85 26.1 33.6 26.05 32.8 24.45 32.0 22.85 31.55 22.7 31.1 22.55 30.65 22.95 30.25 23.35 30.25 25.25 30.25 27.15 30.0 27.15 29.75 27.15 29.1 26.35 28.4 25.55 27.4 24.1 26.4 22.7 25.8 21.7 25.2 20.7 24.8 20.0 24.45 19.35 23.7 17.9 22.95 16.45 22.95 16.3 22.95 16.1 22.55 15.85 22.15 15.55 21.55 15.7 21.0 15.8 20.55 13.3 20.1 10.85 19.9 9.85 19.75 8.85 19.5 6.8 19.25 4.8 18.95 1.95 18.7 -0.85 18.65 -8.05 18.65 -15.25 18.85 -17.4 19.1 -19.55 19.0 -19.6 18.95 -19.7 17.9 -18.35 16.9 -17.0 16.25 -15.8 15.65 -14.55 14.65 -12.8 13.6 -11.05 12.85 -10.0 12.1 -8.9 11.1 -7.55 10.05 -6.2 8.7 -4.65 7.3 -3.05 6.05 -1.85 4.8 -0.65 3.55 0.4 2.3 1.5 0.15 3.05 -1.95 4.65 -3.45 5.65 -5.0 6.7 -6.0 7.25 -7.0 7.8 -7.7 8.15 -8.35 8.55 -9.75 9.75 -11.15 11.0 -11.05 19.95 -11.0 28.9 -10.8 32.05 -10.65 35.25 -10.4 38.75 -10.15 42.25 -9.85 44.85 -9.6 47.45 -9.2 50.55 -8.8 53.6 -8.6 54.6 -8.45 55.6 -8.3 56.85 -8.1 58.05 -7.6 60.55 -7.1 63.05 -6.75 63.55 -6.4 64.05 -5.9 65.1 -5.4 66.2 -5.65 66.8 -5.9 67.4 -6.15 67.4 -6.35 67.4 -6.55 67.2 -6.55 67.2" fill="url(#gradient6)" fill-rule="evenodd" stroke="none"/>
  </g>
  <defs>
    <linearGradient gradientTransform="matrix(1.0E-4, -0.0676, 0.0681, 1.0E-4, 24.35, -6.2)" gradientUnits="userSpaceOnUse" id="gradient0" spreadMethod="pad" x1="-819.2" x2="819.2">
      <stop offset="0.0" stop-color="#000000" stop-opacity="0.0"/>
      <stop offset="1.0" stop-color="#000000" stop-opacity="0.0"/>
    </linearGradient>
    <linearGradient gradientTransform="matrix(1.0E-4, -0.0676, 0.0681, 1.0E-4, 24.35, -6.2)" gradientUnits="userSpaceOnUse" id="gradient1" spreadMethod="pad" x1="-819.2" x2="819.2">
      <stop offset="0.0" stop-color="#000000" stop-opacity="0.0"/>
      <stop offset="1.0" stop-color="#000000" stop-opacity="0.0"/>
    </linearGradient>
    <linearGradient gradientTransform="matrix(1.0E-4, -0.0676, 0.0681, 1.0E-4, 24.35, -6.2)" gradientUnits="userSpaceOnUse" id="gradient2" spreadMethod="pad" x1="-819.2" x2="819.2">
      <stop offset="0.0" stop-color="#000000" stop-opacity="0.0"/>
      <stop offset="1.0" stop-color="#000000" stop-opacity="0.0"/>
    </linearGradient>
    <linearGradient gradientTransform="matrix(1.0E-4, -0.0676, 0.0681, 1.0E-4, 24.35, -6.2)" gradientUnits="userSpaceOnUse" id="gradient3" spreadMethod="pad" x1="-819.2" x2="819.2">
      <stop offset="0.0" stop-color="#000000" stop-opacity="0.0"/>
      <stop offset="1.0" stop-color="#000000" stop-opacity="0.0"/>
    </linearGradient>
    <linearGradient gradientTransform="matrix(1.0E-4, -0.0676, 0.0681, 1.0E-4, 24.35, -6.2)" gradientUnits="userSpaceOnUse" id="gradient4" spreadMethod="pad" x1="-819.2" x2="819.2">
      <stop offset="0.0" stop-color="#000000" stop-opacity="0.0"/>
      <stop offset="1.0" stop-color="#000000" stop-opacity="0.0"/>
    </linearGradient>
    <linearGradient gradientTransform="matrix(1.0E-4, -0.0676, 0.0681, 1.0E-4, 24.35, -6.2)" gradientUnits="userSpaceOnUse" id="gradient5" spreadMethod="pad" x1="-819.2" x2="819.2">
      <stop offset="0.0" stop-color="#000000" stop-opacity="0.0"/>
      <stop offset="1.0" stop-color="#000000" stop-opacity="0.0"/>
    </linearGradient>
    <linearGradient gradientTransform="matrix(1.0E-4, -0.1026, 0.104, 1.0E-4, 24.8, 22.4)" gradientUnits="userSpaceOnUse" id="gradient6" spreadMethod="pad" x1="-819.2" x2="819.2">
      <stop offset="0.0" stop-color="#000000"/>
      <stop offset="1.0" stop-color="#000000" stop-opacity="0.0"/>
    </linearGradient>
  </defs>
</svg>
