<?xml version="1.0" encoding="UTF-8" standalone="no"?>
<svg xmlns:xlink="http://www.w3.org/1999/xlink" height="160.9px" width="253.75px" xmlns="http://www.w3.org/2000/svg">
  <g transform="matrix(1.0, 0.0, 0.0, 1.0, 126.9, 80.45)">
    <path d="M-5.4 70.3 L-5.75 70.15 -7.65 68.35 -9.55 66.55 -10.7 66.55 -11.8 66.6 -13.15 66.2 -14.45 65.75 -15.8 64.95 -17.2 64.15 -17.75 63.65 -18.3 63.2 -18.3 63.25 -18.3 63.3 -17.95 64.2 -17.65 65.1 -17.65 65.4 -17.65 65.7 -17.95 66.0 -18.25 66.25 -18.75 66.25 -19.3 66.25 -19.8 65.6 -20.25 65.0 -21.2 63.55 -22.15 62.1 -22.5 61.5 -22.8 60.95 -23.45 59.85 -24.1 58.75 -24.1 58.7 -24.15 58.65 -24.65 59.65 -25.1 60.6 -25.95 61.9 -26.8 63.15 -27.25 63.45 -27.75 63.7 -28.05 63.7 -28.4 63.7 -28.75 63.3 -29.15 62.9 -29.05 62.4 -28.9 61.95 -28.65 60.6 -28.4 59.25 -28.35 54.95 -28.35 50.65 -28.6 49.3 -28.8 47.95 -29.15 46.25 -29.5 44.55 -29.6 43.95 -29.75 43.4 -30.35 40.45 -30.95 37.45 -31.2 35.7 -31.45 33.95 -31.75 31.25 -32.0 28.55 -32.15 23.8 -32.3 19.05 -32.2 15.6 -32.15 12.15 -32.95 13.6 -33.8 15.0 -34.55 16.1 -35.25 17.15 -36.45 18.6 -37.6 20.1 -38.35 20.95 -39.15 21.75 -40.35 23.05 -41.55 24.3 -42.75 25.4 -43.9 26.5 -44.5 26.95 -45.1 27.45 -45.65 27.45 -46.2 27.45 -46.5 27.25 -46.85 27.1 -46.85 26.55 -46.85 26.05 -46.15 25.1 -45.45 24.15 -44.9 23.2 -44.3 22.3 -43.2 20.1 -42.15 17.9 -41.3 15.65 -40.4 13.45 -39.9 11.75 -39.4 10.1 -38.8 8.2 -38.25 6.25 -38.0 5.05 -37.7 3.9 -37.4 2.45 -37.05 1.0 -36.9 -0.2 -36.7 -1.35 -36.45 -3.15 -36.2 -4.9 -36.0 -7.25 -35.85 -9.65 -35.9 -11.8 -35.95 -13.95 -35.5 -14.25 -35.0 -14.5 -34.55 -14.25 -34.1 -14.0 -34.0 -13.6 -33.85 -13.2 -33.85 -10.3 -33.85 -7.45 -34.1 -4.9 -34.35 -2.35 -34.6 -0.75 -34.9 0.85 -35.2 2.45 -35.55 4.05 -35.95 5.8 -36.4 7.6 -37.05 9.85 -37.75 12.15 -38.35 13.9 -38.95 15.7 -39.6 17.35 -40.25 19.0 -40.6 19.7 -40.95 20.4 -40.2 19.65 -39.5 18.9 -39.0 18.3 -38.5 17.7 -37.6 16.6 -36.75 15.5 -35.95 14.3 -35.2 13.1 -34.55 11.95 -33.95 10.8 -33.4 9.7 -32.85 8.6 -32.45 7.6 -32.0 6.6 -31.85 3.1 -31.65 -0.35 -31.4 -3.55 -31.15 -6.75 -30.9 -9.4 -30.65 -12.0 -30.55 -12.35 -30.45 -12.75 -30.1 -15.25 -29.8 -17.75 -29.45 -19.95 -29.1 -22.1 -28.25 -26.45 -27.45 -30.75 -27.1 -32.85 -26.75 -34.95 -26.35 -36.3 -25.9 -37.6 -25.55 -38.0 -25.15 -38.4 -24.8 -38.4 -24.45 -38.4 -24.1 -38.0 -23.7 -37.65 -23.7 -37.45 -23.7 -37.25 -24.2 -35.75 -24.7 -34.3 -24.95 -32.6 -25.25 -30.9 -26.15 -26.1 -27.05 -21.3 -27.25 -20.1 -27.45 -18.9 -27.7 -17.25 -27.95 -15.55 -28.35 -12.4 -28.75 -9.3 -29.0 -6.4 -29.3 -3.55 -29.55 0.25 -29.75 4.05 -29.95 9.8 -30.15 15.5 -30.05 21.35 -29.95 27.15 -29.8 29.05 -29.65 30.9 -29.45 32.5 -29.25 34.1 -29.1 35.35 -28.9 36.65 -28.4 39.35 -27.9 42.05 -27.55 43.3 -27.2 44.55 -26.45 47.1 -25.7 49.65 -25.25 50.9 -24.75 52.15 -24.3 53.15 -23.85 54.2 -22.75 56.4 -21.65 58.65 -21.5 58.65 -21.35 58.65 -21.25 58.5 -21.15 58.3 -20.6 58.3 -20.1 58.3 -18.5 60.0 -16.85 61.65 -15.9 62.35 -14.9 63.1 -13.6 63.65 -12.3 64.2 -11.8 64.35 -11.3 64.45 -12.0 63.6 -12.7 62.8 -13.75 61.25 -14.85 59.75 -15.55 58.65 -16.25 57.55 -16.9 56.35 -17.6 55.2 -18.2 54.0 -18.8 52.85 -19.5 51.05 -20.2 49.3 -20.6 48.05 -21.0 46.85 -21.45 45.15 -21.9 43.5 -21.8 42.95 -21.75 42.45 -21.3 42.15 -20.85 41.85 -20.4 42.1 -19.95 42.35 -19.45 44.15 -19.0 45.9 -18.4 47.7 -17.85 49.45 -17.45 50.4 -17.1 51.3 -16.55 52.4 -16.0 53.5 -15.4 54.6 -14.8 55.75 -14.55 56.15 -14.3 56.55 -13.5 57.8 -12.7 59.1 -11.55 60.65 -10.4 62.2 -10.0 62.65 -9.6 63.1 -8.75 64.05 -7.9 65.0 -7.45 65.5 -7.0 66.0 -7.1 65.5 -7.2 65.0 -7.4 64.05 -7.65 63.15 -8.15 60.45 -8.65 57.75 -8.85 56.45 -9.05 55.2 -9.2 54.2 -9.35 53.15 -9.6 51.15 -9.85 49.1 -10.1 46.85 -10.35 44.55 -10.7 40.25 -11.05 35.95 -11.25 31.8 -11.45 27.7 -11.45 16.55 -11.45 5.4 -11.25 2.95 -11.05 0.5 -10.6 -3.2 -10.2 -6.95 -10.2 -7.6 -10.2 -8.3 -9.95 -8.65 -9.7 -9.05 -9.1 -9.05 -8.5 -9.05 -8.25 -8.6 -7.95 -8.2 -8.1 -6.95 -8.2 -5.75 -8.5 -2.8 -8.85 0.15 -9.05 2.2 -9.2 4.2 -9.3 6.35 -9.4 8.5 -9.3 8.5 -9.15 8.5 -8.05 7.95 -6.9 7.4 -5.9 6.75 -4.9 6.1 -3.95 5.5 -3.05 4.9 -2.85 4.75 -2.7 4.65 -0.9 3.35 0.85 2.0 2.4 0.75 3.9 -0.5 6.1 -2.7 8.3 -4.9 9.3 -6.15 10.35 -7.45 11.8 -9.45 13.2 -11.45 14.4 -13.55 15.6 -15.7 16.1 -16.8 16.65 -17.85 16.8 -19.25 16.95 -20.6 17.15 -22.05 17.3 -23.45 17.5 -24.65 17.7 -25.85 18.0 -27.7 18.35 -29.55 18.7 -31.0 19.0 -32.4 19.2 -33.2 19.4 -33.95 19.8 -35.4 20.2 -36.8 20.45 -37.65 20.7 -38.5 21.2 -40.0 21.7 -41.55 22.3 -43.25 22.85 -45.0 23.4 -46.05 23.9 -47.15 24.15 -47.25 24.45 -47.35 24.85 -47.35 25.2 -47.35 25.5 -47.1 25.75 -46.85 25.75 -46.45 25.75 -46.1 25.15 -44.65 24.55 -43.25 23.85 -41.3 23.2 -39.35 23.05 -38.85 22.9 -38.35 22.65 -37.5 22.4 -36.65 22.1 -35.7 21.85 -34.8 21.3 -32.6 20.75 -30.4 20.2 -27.8 19.7 -25.15 19.55 -24.0 19.35 -22.8 19.2 -21.45 19.0 -20.1 18.8 -17.65 18.6 -15.2 18.6 -8.1 18.6 -1.0 19.0 2.6 19.35 6.25 19.7 8.6 20.0 10.95 20.45 13.3 20.9 15.6 21.3 15.5 21.7 15.4 22.1 15.5 22.55 15.6 23.75 18.1 25.0 20.6 26.15 22.35 27.3 24.15 28.3 25.4 29.25 26.65 29.55 26.9 29.8 27.15 29.8 25.2 29.8 23.25 30.2 22.9 30.6 22.55 31.0 22.55 31.45 22.55 31.7 22.75 32.0 22.95 32.75 24.5 33.55 26.05 33.6 26.05 33.7 26.05 34.6 24.15 35.5 22.3 36.15 20.5 36.75 18.75 37.45 16.55 38.1 14.35 38.45 13.05 38.8 11.8 39.25 9.3 39.75 6.75 40.05 4.45 40.35 2.2 40.35 -4.25 40.4 -10.65 40.85 -10.9 41.3 -11.15 41.75 -10.9 42.2 -10.65 42.3 -10.15 42.45 -9.65 42.65 -7.3 42.9 -4.9 42.9 1.75 42.85 8.45 42.55 11.25 42.25 14.1 42.35 14.2 42.4 14.25 42.95 12.6 43.45 10.95 43.75 9.95 44.0 8.95 44.3 7.65 44.65 6.4 45.0 4.55 45.35 2.7 45.7 0.15 46.05 -2.35 46.15 -5.3 46.3 -8.25 46.15 -11.0 46.0 -13.7 45.85 -15.6 45.65 -17.55 45.25 -19.95 44.85 -22.3 44.5 -23.9 44.15 -25.5 43.8 -27.3 43.4 -29.1 43.6 -29.55 43.8 -29.95 44.25 -30.05 44.7 -30.2 45.15 -29.85 45.6 -29.5 46.05 -27.85 46.55 -26.15 46.8 -25.35 47.0 -24.5 47.85 -20.7 48.7 -16.9 49.05 -15.45 49.35 -14.0 49.65 -12.6 49.9 -11.15 50.25 -8.95 50.6 -6.75 50.8 -4.75 51.05 -2.7 51.25 -0.45 51.4 1.85 51.6 5.05 51.75 8.25 51.75 8.85 51.75 9.4 52.05 9.15 52.35 8.85 52.9 8.85 53.45 8.85 53.75 9.3 54.05 9.75 54.0 15.45 54.0 21.1 53.65 23.45 53.3 25.75 54.85 25.65 56.4 25.55 58.75 25.4 61.1 25.2 61.2 25.15 61.25 25.05 61.5 24.2 61.75 23.3 61.9 22.6 62.05 21.95 62.45 19.2 62.85 16.45 63.05 16.2 63.25 15.95 63.9 15.95 64.6 15.95 64.8 16.35 65.05 16.7 65.2 17.6 65.3 18.5 65.35 18.45 65.4 18.4 65.7 16.3 65.95 14.15 66.2 11.9 66.45 9.6 66.55 3.45 66.65 -2.7 66.45 -5.85 66.25 -8.95 66.0 -11.15 65.75 -13.35 65.6 -14.35 65.45 -15.35 65.25 -16.55 65.05 -17.75 64.6 -20.75 64.1 -23.75 63.55 -26.0 63.05 -28.2 62.45 -30.4 61.9 -32.6 61.65 -33.5 61.4 -34.45 60.85 -36.05 60.35 -37.65 59.65 -39.3 59.0 -40.95 59.0 -41.25 59.0 -41.55 59.3 -41.85 59.65 -42.15 60.15 -42.15 60.65 -42.15 60.9 -41.85 61.15 -41.55 61.7 -40.2 62.2 -38.85 62.75 -37.3 63.25 -35.8 63.7 -34.3 64.1 -32.75 64.95 -29.4 65.75 -26.0 66.25 -23.45 66.75 -20.95 67.0 -19.25 67.3 -17.55 67.45 -16.55 67.6 -15.55 67.95 -12.85 68.3 -10.15 68.45 -7.85 68.65 -5.6 68.75 -0.5 68.85 4.55 69.0 5.05 69.15 5.55 69.55 7.65 69.95 9.8 70.15 10.95 70.3 12.15 70.55 14.25 70.85 16.35 71.0 18.95 71.15 21.55 71.2 23.95 71.2 26.35 71.5 25.3 71.85 24.3 72.25 22.6 72.65 20.95 72.75 20.0 72.9 19.05 73.1 18.7 73.35 18.3 73.95 18.3 74.5 18.3 74.75 18.55 75.0 18.8 75.15 19.75 75.25 20.7 75.15 22.6 75.05 24.45 74.8 26.4 74.55 28.3 74.6 28.4 74.7 28.5 75.7 26.4 76.7 24.3 77.4 22.0 78.1 19.75 78.25 19.2 78.45 18.7 78.7 17.7 78.95 16.7 79.5 14.5 80.1 12.3 80.35 10.7 80.65 9.1 80.8 8.2 80.95 7.25 81.25 4.8 81.55 2.35 81.55 -1.85 81.55 -6.1 81.3 -8.55 81.1 -11.0 80.85 -12.75 80.65 -14.55 80.35 -15.7 80.1 -16.9 79.85 -18.15 79.6 -19.4 79.45 -20.0 79.3 -20.6 78.85 -22.4 78.4 -24.15 77.55 -26.95 76.75 -29.7 75.95 -31.75 75.15 -33.75 74.35 -35.45 73.55 -37.1 73.55 -37.55 73.55 -38.0 73.75 -38.2 73.95 -38.4 74.5 -38.4 75.05 -38.4 75.4 -37.95 75.75 -37.5 76.7 -35.5 77.65 -33.5 78.35 -33.55 79.0 -33.65 79.9 -34.0 80.8 -34.4 80.1 -34.85 79.35 -35.25 78.1 -36.15 76.8 -37.05 75.0 -38.65 73.15 -40.25 72.9 -40.15 72.7 -40.05 72.3 -40.15 71.85 -40.25 71.5 -40.9 71.1 -41.55 70.35 -42.7 69.6 -43.9 69.0 -44.85 68.4 -45.85 66.85 -47.95 65.35 -50.05 63.6 -52.0 61.85 -53.95 60.25 -55.4 58.6 -56.9 56.85 -58.3 55.1 -59.7 53.55 -60.75 52.05 -61.75 50.25 -62.65 48.5 -63.6 46.7 -64.35 44.9 -65.15 44.0 -65.45 43.05 -65.8 41.45 -66.3 39.85 -66.8 38.25 -67.15 36.65 -67.5 35.8 -67.65 34.95 -67.8 32.5 -68.1 30.05 -68.45 27.35 -68.55 24.65 -68.65 21.9 -68.7 19.1 -68.7 18.85 -69.2 18.6 -69.65 18.85 -70.1 19.1 -70.55 19.7 -70.7 20.25 -70.85 24.55 -70.75 28.9 -70.65 31.35 -70.4 33.75 -70.15 34.95 -69.95 36.15 -69.8 37.75 -69.45 39.35 -69.1 40.85 -68.7 42.4 -68.3 44.25 -67.65 46.1 -67.0 47.0 -66.65 47.85 -66.3 49.2 -65.65 50.5 -65.05 52.35 -64.0 54.2 -62.95 55.4 -62.1 56.55 -61.3 58.55 -59.75 60.5 -58.15 62.3 -56.45 64.1 -54.7 65.75 -52.85 67.35 -51.0 68.3 -49.7 69.25 -48.45 70.1 -47.2 70.9 -45.95 72.25 -44.4 73.55 -42.9 75.2 -41.4 76.8 -39.9 78.05 -38.9 79.3 -37.9 80.45 -37.15 81.65 -36.4 82.6 -36.15 83.6 -35.9 83.85 -35.55 84.15 -35.15 84.15 -34.95 84.15 -34.7 83.85 -34.2 83.6 -33.75 83.05 -33.3 82.55 -32.9 81.55 -32.35 80.55 -31.85 79.45 -31.55 78.4 -31.25 78.55 -31.0 78.65 -30.75 79.4 -28.35 80.1 -26.0 80.8 -23.4 81.5 -20.75 81.8 -19.25 82.15 -17.75 82.4 -16.55 82.65 -15.35 82.85 -14.25 83.0 -13.2 83.25 -10.9 83.5 -8.6 83.6 -3.65 83.7 1.3 83.5 3.6 83.3 5.9 82.95 8.1 82.65 10.3 82.4 11.65 82.1 13.0 81.6 15.05 81.1 17.1 80.8 18.25 80.45 19.4 80.3 19.9 80.15 20.4 79.8 21.7 79.4 22.95 78.9 24.4 78.4 25.8 77.2 28.2 76.05 30.55 75.35 31.7 74.65 32.8 73.8 34.05 73.0 35.3 72.7 35.5 72.45 35.7 71.9 35.7 71.35 35.7 71.1 35.45 70.85 35.15 70.85 34.65 70.85 34.15 71.15 33.2 71.5 32.25 71.5 32.0 71.5 31.75 71.1 32.6 70.65 33.45 70.25 33.9 69.85 34.35 69.4 34.35 68.95 34.35 68.65 34.0 68.3 33.65 68.3 33.5 68.3 33.35 68.55 31.5 68.8 29.65 68.95 27.05 69.1 24.45 68.95 21.2 68.8 17.9 68.6 15.9 68.45 13.9 68.3 13.45 68.15 13.0 68.15 13.4 68.1 13.85 67.95 15.25 67.8 16.7 67.55 18.5 67.3 20.25 66.95 22.0 66.6 23.8 66.25 25.15 65.9 26.5 65.65 27.0 65.35 27.5 65.2 27.65 65.0 27.75 64.55 27.75 64.15 27.75 63.85 27.45 63.55 27.15 63.55 26.05 63.55 25.0 63.4 25.45 63.25 25.9 62.9 26.4 62.55 26.9 62.2 27.1 61.9 27.25 58.7 27.5 55.55 27.75 53.75 27.75 51.9 27.75 51.45 27.35 51.05 26.9 51.15 25.85 51.25 24.8 51.45 23.85 51.6 22.9 51.55 22.65 51.45 22.45 51.45 22.85 51.4 23.25 51.05 23.8 50.7 24.4 50.15 24.4 49.55 24.4 49.3 24.0 49.05 23.6 49.2 21.65 49.4 19.75 49.5 13.25 49.6 6.75 49.3 2.55 49.05 -1.7 48.8 -3.7 48.55 -5.75 48.55 -6.15 48.5 -6.6 48.2 -3.2 47.9 0.2 47.7 1.45 47.5 2.7 47.1 4.9 46.65 7.1 46.1 9.35 45.5 11.65 44.85 13.65 44.2 15.7 43.5 17.4 42.85 19.05 41.9 20.9 40.95 22.75 40.6 23.05 40.2 23.35 39.65 23.35 39.1 23.35 38.85 22.95 38.55 22.55 38.75 21.75 38.9 20.95 39.35 18.85 39.75 16.75 39.75 16.65 39.75 16.55 38.95 19.0 38.1 21.45 37.55 22.95 36.95 24.45 36.25 25.9 35.55 27.35 34.95 28.15 34.35 28.95 33.9 29.05 33.45 29.15 33.05 28.9 32.6 28.7 32.25 28.05 31.85 27.4 31.8 28.5 31.75 29.6 31.35 30.05 30.95 30.45 30.55 30.45 30.15 30.45 29.6 30.0 29.05 29.55 28.45 28.95 27.85 28.35 27.05 27.4 26.25 26.4 25.2 24.85 24.15 23.3 23.55 22.2 22.9 21.1 22.9 21.35 22.9 21.65 23.05 23.45 23.25 25.3 22.9 25.6 22.5 25.9 22.2 25.9 21.9 25.9 21.45 25.55 21.0 25.15 20.8 24.3 20.55 23.45 20.2 22.3 19.8 21.1 18.85 16.1 17.9 11.15 17.7 9.85 17.5 8.6 17.3 7.0 17.15 5.4 16.9 3.0 16.65 0.55 16.45 -4.1 16.25 -8.8 16.35 -10.7 16.4 -12.6 16.3 -12.5 16.15 -12.4 16.15 -12.25 16.15 -12.05 15.35 -10.8 14.55 -9.5 13.05 -7.45 11.55 -5.4 10.15 -3.8 8.75 -2.2 7.0 -0.5 5.25 1.2 4.15 2.1 3.05 3.05 1.3 4.4 -0.5 5.75 -2.15 6.9 -3.8 8.05 -5.95 9.25 -8.1 10.45 -8.85 10.8 -9.6 11.15 -9.45 18.65 -9.35 26.15 -9.2 30.05 -9.05 33.95 -8.85 36.45 -8.65 39.0 -8.4 42.1 -8.15 45.25 -8.0 46.5 -7.85 47.75 -7.7 49.3 -7.5 50.8 -7.2 53.1 -6.85 55.35 -6.65 56.65 -6.5 57.9 -5.95 60.5 -5.45 63.15 -4.95 65.1 -4.45 67.05 -4.15 67.95 -3.8 68.8 -3.8 69.35 -3.8 69.9 -4.1 70.2 -4.4 70.5 -4.75 70.45 -5.05 70.45 -5.4 70.3 -5.4 70.3 M-25.8 56.8 L-25.55 55.9 -25.75 55.2 -26.0 54.5 -26.1 55.35 -26.2 56.2 -26.25 56.95 -26.25 57.65 -26.15 57.65 -26.1 57.65 -25.8 56.8 -25.8 56.8" fill="#d0d0d0" fill-rule="evenodd" stroke="none"/>
    <path d="M-5.4 70.25 L-5.9 70.0 -7.7 68.25 -9.5 66.5 -10.4 66.55 -11.3 66.65 -12.4 66.35 -13.5 66.05 -14.85 65.4 -16.2 64.75 -17.25 64.0 -18.3 63.2 -18.3 63.3 -18.3 63.35 -18.05 64.1 -17.8 64.8 -17.75 65.3 -17.75 65.8 -18.05 66.05 -18.35 66.25 -18.75 66.25 -19.15 66.25 -19.5 65.85 -19.85 65.5 -20.95 63.85 -22.0 62.2 -23.05 60.35 -24.1 58.5 -24.95 60.05 -25.75 61.6 -26.35 62.4 -26.95 63.25 -27.45 63.45 -27.9 63.7 -28.35 63.55 -28.75 63.4 -28.9 63.1 -29.1 62.8 -28.85 61.95 -28.65 61.05 -28.45 58.8 -28.2 56.55 -28.3 53.35 -28.4 50.15 -28.6 48.95 -28.8 47.75 -29.15 46.1 -29.5 44.4 -29.6 43.8 -29.75 43.2 -30.35 40.2 -31.0 37.15 -31.25 35.3 -31.5 33.45 -31.75 30.9 -32.0 28.35 -32.15 23.65 -32.3 18.9 -32.2 15.45 -32.1 12.0 -32.45 12.5 -32.75 13.0 -32.85 13.3 -33.0 13.55 -34.05 15.25 -35.15 16.95 -36.45 18.55 -37.7 20.1 -40.1 22.7 -42.55 25.3 -43.85 26.35 -45.15 27.45 -45.7 27.45 -46.3 27.45 -46.55 27.1 -46.85 26.8 -46.85 26.45 -46.85 26.1 -46.3 25.4 -45.7 24.65 -45.05 23.65 -44.45 22.6 -43.45 20.7 -42.45 18.75 -41.65 16.7 -40.8 14.65 -40.05 12.3 -39.3 9.95 -38.95 8.75 -38.6 7.6 -38.1 5.55 -37.6 3.55 -37.3 2.3 -37.05 1.1 -36.65 -1.75 -36.2 -4.55 -36.0 -7.2 -35.8 -9.8 -35.9 -11.75 -36.0 -13.75 -35.7 -14.0 -35.4 -14.25 -35.0 -14.25 -34.55 -14.25 -34.25 -13.9 -33.9 -13.55 -33.85 -10.8 -33.8 -8.05 -34.1 -5.3 -34.35 -2.55 -34.6 -0.95 -34.9 0.65 -35.4 3.05 -35.9 5.4 -36.3 7.0 -36.75 8.6 -37.25 10.3 -37.75 12.0 -38.3 13.65 -38.85 15.35 -39.55 17.1 -40.25 18.85 -40.7 19.7 -41.1 20.55 -41.05 20.6 -40.95 20.7 -39.55 19.05 -38.1 17.4 -37.35 16.35 -36.6 15.35 -35.8 14.15 -35.05 13.0 -33.95 10.9 -32.85 8.75 -32.45 7.65 -32.0 6.55 -31.85 3.25 -31.65 0.0 -31.45 -2.3 -31.3 -4.55 -31.05 -7.35 -30.8 -10.15 -30.35 -13.25 -29.95 -16.4 -29.8 -17.4 -29.6 -18.4 -29.25 -20.6 -28.9 -22.8 -28.2 -26.7 -27.45 -30.55 -27.1 -32.65 -26.75 -34.8 -26.3 -36.15 -25.9 -37.5 -25.65 -37.85 -25.4 -38.2 -25.1 -38.3 -24.8 -38.35 -24.4 -38.2 -24.05 -38.1 -23.9 -37.7 -23.75 -37.35 -24.2 -35.9 -24.65 -34.45 -24.95 -32.75 -25.25 -31.05 -26.1 -26.75 -26.9 -22.45 -27.25 -20.35 -27.55 -18.25 -27.85 -16.45 -28.1 -14.7 -28.35 -12.85 -28.6 -11.0 -28.95 -7.45 -29.25 -3.9 -29.5 0.0 -29.8 3.9 -29.95 9.45 -30.15 15.0 -30.05 21.1 -29.95 27.15 -29.8 29.2 -29.6 31.2 -29.35 33.45 -29.1 35.7 -28.75 37.6 -28.45 39.55 -28.1 41.05 -27.8 42.55 -27.25 44.55 -26.7 46.6 -25.9 49.05 -25.1 51.55 -24.45 52.95 -23.85 54.35 -22.75 56.55 -21.65 58.75 -21.6 58.8 -21.55 58.85 -21.25 58.6 -21.0 58.3 -20.6 58.3 -20.25 58.3 -18.2 60.3 -16.2 62.3 -15.2 62.9 -14.15 63.5 -13.0 63.95 -11.85 64.4 -11.65 64.35 -11.4 64.3 -12.5 62.9 -13.6 61.45 -14.6 60.0 -15.55 58.55 -16.5 56.95 -17.45 55.35 -18.25 53.75 -19.05 52.15 -19.75 50.2 -20.5 48.3 -21.0 46.4 -21.5 44.55 -21.7 44.05 -21.85 43.5 -21.85 43.1 -21.85 42.65 -21.55 42.4 -21.25 42.1 -20.8 42.1 -20.4 42.1 -20.15 42.4 -19.85 42.7 -19.5 44.2 -19.15 45.75 -18.35 48.0 -17.6 50.25 -16.9 51.85 -16.15 53.4 -15.2 55.15 -14.2 56.9 -12.9 58.85 -11.55 60.75 -10.5 62.1 -9.4 63.45 -8.1 64.8 -6.8 66.15 -6.9 66.0 -7.0 65.8 -7.25 64.65 -7.5 63.45 -8.1 60.5 -8.65 57.55 -8.75 56.9 -8.85 56.2 -9.25 53.35 -9.7 50.45 -10.05 47.45 -10.35 44.4 -10.65 41.1 -10.9 37.8 -11.15 33.4 -11.4 29.05 -11.5 18.8 -11.6 8.6 -11.4 5.65 -11.2 2.7 -10.95 0.1 -10.7 -2.5 -10.45 -4.55 -10.2 -6.6 -10.2 -7.35 -10.2 -8.15 -9.85 -8.6 -9.5 -9.05 -9.1 -9.05 -8.7 -9.05 -8.45 -8.8 -8.2 -8.55 -8.1 -8.2 -8.0 -7.85 -8.25 -5.35 -8.55 -2.9 -8.7 -1.45 -8.85 0.0 -9.1 2.95 -9.35 5.9 -9.35 7.3 -9.35 8.7 -8.4 8.2 -7.4 7.7 -6.05 6.9 -4.7 6.1 -2.8 4.75 -0.85 3.4 1.55 1.5 3.9 -0.4 5.75 -2.25 7.6 -4.05 8.9 -5.6 10.15 -7.1 11.35 -8.7 12.5 -10.3 13.2 -11.4 13.9 -12.5 14.55 -13.7 15.25 -14.85 15.95 -16.25 16.65 -17.65 16.8 -19.1 17.0 -20.6 17.15 -21.95 17.3 -23.3 17.5 -24.5 17.7 -25.65 18.1 -27.95 18.5 -30.25 18.95 -31.9 19.35 -33.6 19.5 -34.2 19.7 -34.8 20.25 -36.85 20.85 -38.9 21.7 -41.5 22.6 -44.05 23.15 -45.45 23.75 -46.8 24.05 -47.1 24.35 -47.4 24.85 -47.35 25.3 -47.3 25.55 -46.85 25.8 -46.4 25.1 -44.75 24.45 -43.05 23.75 -41.05 23.05 -39.0 22.45 -37.0 21.85 -34.95 21.2 -32.4 20.55 -29.9 20.1 -27.45 19.65 -25.0 19.5 -24.05 19.35 -23.15 19.1 -20.85 18.85 -18.6 18.65 -15.45 18.45 -12.35 18.55 -6.4 18.65 -0.5 19.0 2.85 19.35 6.25 19.5 7.6 19.7 8.95 19.85 10.05 20.05 11.15 20.45 13.45 20.9 15.75 21.4 15.55 21.85 15.35 22.3 15.7 22.7 16.05 23.9 18.4 25.05 20.75 26.25 22.6 27.5 24.45 28.6 25.9 29.7 27.35 29.8 25.25 29.9 23.15 30.3 22.85 30.7 22.55 31.0 22.55 31.35 22.55 31.75 22.95 32.15 23.35 32.65 24.4 33.2 25.5 33.45 25.9 33.65 26.35 34.6 24.4 35.5 22.45 36.45 19.75 37.35 17.05 38.15 14.25 38.9 11.45 39.35 9.2 39.75 6.9 40.05 4.65 40.35 2.35 40.35 -4.1 40.4 -10.55 40.5 -10.7 40.65 -10.9 41.2 -10.9 41.75 -10.9 42.0 -10.6 42.3 -10.3 42.45 -9.1 42.6 -7.95 42.8 -4.65 43.0 -1.35 42.9 3.6 42.8 8.6 42.55 11.05 42.3 13.5 42.2 14.25 42.15 15.0 42.9 12.8 43.65 10.6 44.05 8.9 44.5 7.25 44.9 5.2 45.3 3.2 45.65 0.5 46.05 -2.15 46.2 -5.1 46.3 -8.1 46.15 -11.15 46.0 -14.2 45.75 -16.55 45.5 -18.9 45.25 -20.2 45.0 -21.45 44.95 -21.95 44.85 -22.45 44.5 -24.0 44.2 -25.5 43.85 -27.1 43.5 -28.7 43.5 -29.0 43.5 -29.25 43.8 -29.65 44.1 -30.0 44.55 -30.0 45.05 -30.0 45.3 -29.75 45.55 -29.5 45.75 -28.7 46.0 -27.85 46.55 -25.85 47.15 -23.8 47.4 -22.65 47.7 -21.45 48.2 -19.1 48.7 -16.7 49.05 -15.3 49.35 -13.85 49.7 -11.9 50.05 -9.95 50.2 -8.85 50.4 -7.75 50.55 -6.6 50.75 -5.4 51.0 -2.95 51.25 -0.5 51.4 2.2 51.55 4.9 51.7 7.2 51.8 9.55 52.1 9.2 52.45 8.85 52.8 8.85 53.2 8.85 53.35 9.0 53.55 9.1 53.8 9.55 54.0 9.95 54.0 15.35 54.0 20.75 53.65 23.2 53.3 25.65 53.35 25.7 53.4 25.75 56.35 25.6 59.25 25.4 60.25 25.3 61.2 25.2 61.55 24.15 61.85 23.1 62.05 22.05 62.2 21.0 62.4 20.05 62.55 19.05 62.65 17.9 62.75 16.75 63.1 16.35 63.45 15.95 63.9 15.95 64.4 15.95 64.7 16.35 65.05 16.8 65.15 17.75 65.3 18.7 65.35 18.6 65.4 18.55 65.65 16.6 65.95 14.7 66.2 12.25 66.45 9.8 66.55 3.35 66.65 -3.05 66.45 -6.0 66.25 -8.95 66.1 -10.65 65.9 -12.35 65.65 -14.1 65.4 -15.9 65.0 -18.5 64.6 -21.1 64.3 -22.55 64.05 -24.0 63.7 -25.4 63.4 -26.85 62.8 -29.3 62.2 -31.75 61.75 -33.25 61.35 -34.8 60.85 -36.3 60.3 -37.8 59.65 -39.5 59.0 -41.15 59.2 -41.5 59.4 -41.85 59.6 -42.0 59.75 -42.1 60.1 -42.15 60.45 -42.15 60.8 -41.75 61.15 -41.35 61.85 -39.6 62.5 -37.8 62.95 -36.45 63.4 -35.1 63.75 -33.85 64.1 -32.6 64.95 -29.15 65.8 -25.65 66.1 -24.05 66.45 -22.45 67.0 -18.9 67.6 -15.35 67.95 -12.65 68.3 -9.95 68.5 -7.25 68.65 -4.55 68.8 0.25 68.9 5.05 69.35 7.0 69.8 8.95 70.2 11.9 70.65 14.85 70.85 16.8 71.0 18.75 71.1 22.6 71.2 26.5 71.5 25.55 71.85 24.65 72.25 22.8 72.65 20.95 72.8 20.05 72.9 19.15 73.2 18.75 73.55 18.3 74.0 18.3 74.5 18.3 74.8 18.65 75.15 19.0 75.1 21.5 75.1 23.95 74.8 25.9 74.55 27.85 74.45 28.45 74.35 29.05 74.6 28.65 74.85 28.3 75.7 26.55 76.5 24.8 77.05 23.3 77.55 21.75 78.2 19.65 78.8 17.55 79.15 16.3 79.45 15.0 79.75 13.75 80.1 12.5 80.35 11.05 80.6 9.6 80.95 7.25 81.25 4.9 81.5 2.25 81.7 -0.35 81.55 -3.65 81.45 -6.95 81.2 -9.8 80.95 -12.65 80.7 -14.25 80.45 -15.85 80.1 -17.4 79.75 -18.9 79.25 -21.0 78.75 -23.05 78.2 -25.05 77.6 -27.0 77.0 -28.95 76.35 -30.9 75.7 -32.6 75.05 -34.3 74.3 -35.7 73.55 -37.1 73.55 -37.5 73.55 -37.85 73.85 -38.15 74.15 -38.4 74.45 -38.4 74.75 -38.4 75.1 -38.25 75.4 -38.05 76.55 -35.75 77.65 -33.5 78.5 -33.55 79.4 -33.65 80.1 -34.0 80.8 -34.35 80.8 -34.45 80.8 -34.5 79.75 -35.15 78.7 -35.75 77.65 -36.55 76.65 -37.3 74.95 -38.8 73.2 -40.3 72.8 -40.2 72.35 -40.05 71.9 -40.55 71.45 -41.05 69.6 -44.0 67.7 -47.0 66.1 -49.1 64.5 -51.15 61.7 -53.95 58.95 -56.75 57.15 -58.15 55.4 -59.55 53.5 -60.8 51.6 -62.05 49.45 -63.15 47.3 -64.2 45.3 -65.0 43.3 -65.8 41.65 -66.3 40.0 -66.8 38.5 -67.15 37.0 -67.45 36.05 -67.65 35.1 -67.8 32.7 -68.1 30.25 -68.45 27.8 -68.55 25.35 -68.65 22.3 -68.7 19.3 -68.7 18.95 -69.15 18.65 -69.6 18.85 -70.05 19.05 -70.5 19.75 -70.7 20.45 -70.85 24.5 -70.75 28.55 -70.7 31.0 -70.4 33.45 -70.15 35.2 -69.9 37.0 -69.65 37.5 -69.5 38.0 -69.35 39.35 -69.05 40.7 -68.75 42.9 -68.05 45.1 -67.3 46.45 -66.8 47.8 -66.25 50.0 -65.15 52.15 -64.1 54.15 -62.85 56.15 -61.55 57.2 -60.75 58.25 -59.95 58.65 -59.6 59.1 -59.2 60.55 -58.0 61.95 -56.75 63.25 -55.45 64.5 -54.2 65.95 -52.5 67.4 -50.8 68.6 -49.2 69.75 -47.6 70.4 -46.6 71.05 -45.6 71.75 -44.85 72.4 -44.05 74.4 -42.15 76.35 -40.2 77.75 -39.1 79.15 -38.0 80.3 -37.2 81.5 -36.4 82.05 -36.25 82.55 -36.1 83.0 -36.0 83.45 -35.9 83.75 -35.6 84.0 -35.35 84.0 -34.85 84.0 -34.3 83.25 -33.6 82.55 -32.95 81.45 -32.4 80.35 -31.85 79.5 -31.65 78.7 -31.45 78.55 -31.35 78.45 -31.2 78.95 -29.65 79.45 -28.1 80.0 -26.15 80.6 -24.15 81.2 -21.7 81.75 -19.25 82.1 -17.75 82.45 -16.2 82.75 -14.6 83.0 -13.0 83.25 -10.65 83.5 -8.3 83.6 -3.45 83.7 1.35 83.4 4.15 83.15 6.9 83.0 7.85 82.85 8.75 82.45 10.8 82.1 12.8 81.65 14.75 81.15 16.7 80.9 17.7 80.6 18.75 80.4 19.5 80.15 20.25 79.75 21.5 79.4 22.8 78.9 24.2 78.4 25.65 77.75 27.1 77.05 28.5 76.05 30.3 75.05 32.05 73.9 33.75 72.75 35.45 72.3 35.6 71.8 35.75 71.35 35.5 70.9 35.25 70.85 34.8 70.8 34.3 71.15 33.35 71.45 32.4 71.65 31.8 71.85 31.2 71.85 31.05 71.85 30.9 71.45 31.75 71.05 32.6 70.6 33.3 70.15 34.0 69.7 34.2 69.3 34.35 68.95 34.2 68.65 34.0 68.5 33.7 68.35 33.4 68.55 31.65 68.8 29.85 68.95 27.15 69.1 24.45 68.95 21.1 68.8 17.7 68.6 15.6 68.45 13.5 68.3 13.15 68.2 12.85 68.05 14.1 67.95 15.35 67.6 17.7 67.25 20.1 66.95 21.85 66.6 23.65 66.25 25.0 65.9 26.35 65.7 26.75 65.55 27.15 65.3 27.45 65.05 27.75 64.65 27.75 64.25 27.75 63.9 27.45 63.55 27.1 63.55 25.95 63.55 24.8 63.2 25.75 62.8 26.65 62.3 26.95 61.8 27.25 58.6 27.5 55.4 27.75 53.7 27.75 52.05 27.75 51.55 27.25 51.05 26.75 51.15 25.8 51.3 24.8 51.45 24.15 51.6 23.45 51.55 22.95 51.55 22.45 51.3 23.1 51.05 23.75 50.8 24.1 50.5 24.4 50.1 24.35 49.7 24.3 49.35 23.9 49.05 23.45 49.25 21.75 49.4 20.1 49.5 13.25 49.6 6.4 49.3 2.35 49.05 -1.7 48.8 -4.05 48.5 -6.4 48.5 -6.6 48.45 -6.75 48.25 -3.9 48.0 -1.1 47.7 1.15 47.35 3.35 47.0 5.15 46.65 6.9 46.1 9.2 45.5 11.45 44.85 13.5 44.2 15.5 43.45 17.3 42.75 19.05 41.85 20.9 40.95 22.7 40.5 23.05 40.05 23.4 39.6 23.35 39.2 23.3 38.9 22.85 38.6 22.45 38.8 21.5 39.05 20.6 39.4 18.75 39.75 16.85 39.75 16.6 39.75 16.35 38.7 19.5 37.6 22.6 37.25 23.5 36.9 24.4 36.2 25.8 35.55 27.15 35.05 27.8 34.6 28.5 34.2 28.8 33.75 29.15 33.3 28.95 32.85 28.8 32.35 28.1 31.85 27.4 31.85 28.15 31.85 28.95 31.6 29.55 31.35 30.15 30.9 30.3 30.45 30.45 30.0 30.2 29.55 30.0 28.45 28.85 27.3 27.7 26.35 26.35 25.4 25.05 24.1 23.05 22.85 21.1 23.0 22.7 23.1 24.3 23.15 24.8 23.15 25.25 22.7 25.6 22.25 25.95 21.75 25.7 21.25 25.4 21.05 24.95 20.9 24.45 20.45 22.95 20.0 21.45 19.85 21.0 19.7 20.6 18.75 15.7 17.85 10.8 17.6 8.85 17.3 6.9 17.05 4.55 16.8 2.2 16.6 -0.5 16.45 -3.2 16.4 -7.95 16.4 -12.7 15.6 -11.4 14.85 -10.1 13.7 -8.5 12.6 -6.85 11.05 -4.95 9.45 -3.05 7.6 -1.2 5.75 0.7 3.8 2.3 1.85 3.9 0.5 4.9 -0.85 5.9 -2.2 6.85 -3.55 7.75 -4.8 8.55 -6.05 9.35 -7.8 10.2 -9.55 11.05 -9.55 15.25 -9.55 19.4 -9.35 25.15 -9.2 30.9 -9.0 33.85 -8.85 36.8 -8.7 39.0 -8.55 41.2 -8.35 43.3 -8.2 45.4 -7.9 47.6 -7.65 49.8 -7.5 51.0 -7.35 52.15 -6.9 55.2 -6.45 58.2 -5.9 61.0 -5.3 63.8 -4.9 65.5 -4.5 67.2 -4.15 68.15 -3.8 69.05 -3.8 69.4 -3.8 69.75 -4.0 70.0 -4.2 70.25 -4.55 70.35 -4.9 70.45 -5.4 70.25 -5.4 70.25 M-25.6 56.15 L-25.5 55.6 -25.75 55.05 -26.0 54.5 -26.1 55.2 -26.2 55.85 -26.2 56.9 -26.2 57.9 -25.95 57.3 -25.7 56.7 -25.6 56.15 -25.6 56.15" fill="#adadad" fill-rule="evenodd" stroke="none"/>
    <path d="M-7.55 68.25 L-9.65 66.25 -9.8 66.4 -9.9 66.6 -10.55 66.6 -11.2 66.6 -12.1 66.4 -13.0 66.25 -14.7 65.4 -16.4 64.6 -17.3 63.9 -18.2 63.2 -18.25 63.3 -18.35 63.35 -18.05 64.15 -17.8 64.95 -17.8 65.35 -17.8 65.7 -18.05 66.0 -18.35 66.25 -18.7 66.25 -19.1 66.25 -19.55 65.8 -19.95 65.35 -21.05 63.65 -22.15 61.95 -23.1 60.2 -24.1 58.5 -24.15 58.5 -24.2 58.55 -24.85 59.85 -25.55 61.15 -26.15 62.1 -26.8 63.05 -27.2 63.3 -27.6 63.55 -28.0 63.55 -28.4 63.55 -28.7 63.3 -28.95 63.0 -28.95 62.8 -28.95 62.55 -28.65 61.0 -28.35 59.4 -28.35 54.95 -28.35 50.45 -28.6 48.95 -28.8 47.45 -29.15 45.9 -29.5 44.4 -29.6 43.8 -29.75 43.2 -30.45 39.75 -31.1 36.3 -31.45 33.25 -31.8 30.2 -32.0 27.6 -32.2 25.0 -32.2 18.5 -32.2 12.05 -32.35 12.15 -32.5 12.25 -32.5 12.4 -32.5 12.55 -33.35 14.05 -34.25 15.5 -34.85 16.35 -35.45 17.2 -36.5 18.55 -37.6 19.9 -39.65 22.15 -41.7 24.4 -43.1 25.7 -44.55 26.95 -45.1 27.2 -45.65 27.5 -46.1 27.35 -46.6 27.15 -46.75 26.7 -46.9 26.25 -46.25 25.35 -45.55 24.45 -44.8 23.2 -44.0 21.95 -43.25 20.4 -42.5 18.85 -41.8 17.1 -41.05 15.4 -40.4 13.5 -39.75 11.65 -38.9 8.75 -38.1 5.9 -37.5 3.1 -36.9 0.35 -36.65 -1.45 -36.35 -3.2 -36.2 -4.75 -36.0 -6.25 -35.95 -10.0 -35.9 -13.8 -35.7 -14.05 -35.5 -14.25 -35.0 -14.25 -34.5 -14.25 -34.2 -13.8 -33.9 -13.35 -33.85 -11.4 -33.8 -9.45 -34.0 -6.85 -34.2 -4.25 -34.45 -2.55 -34.7 -0.85 -34.85 0.25 -35.0 1.35 -35.6 3.95 -36.2 6.6 -36.75 8.45 -37.25 10.3 -37.5 11.15 -37.75 12.0 -38.4 13.85 -39.05 15.7 -39.8 17.6 -40.6 19.5 -40.95 20.2 -41.3 20.95 -40.85 20.5 -40.4 20.1 -38.8 18.25 -37.25 16.35 -36.2 14.75 -35.1 13.15 -33.8 10.6 -32.55 8.1 -32.25 7.35 -32.0 6.6 -31.75 2.2 -31.45 -2.2 -31.2 -5.25 -30.95 -8.3 -30.7 -10.4 -30.45 -12.5 -30.15 -14.9 -29.8 -17.3 -29.45 -19.55 -29.1 -21.8 -28.35 -25.65 -27.6 -29.55 -27.15 -32.1 -26.75 -34.6 -26.3 -36.1 -25.85 -37.55 -25.55 -37.9 -25.2 -38.25 -24.8 -38.25 -24.4 -38.25 -24.15 -38.0 -23.9 -37.7 -23.9 -37.4 -23.9 -37.05 -24.3 -35.75 -24.7 -34.45 -25.05 -32.4 -25.4 -30.4 -26.2 -26.0 -27.05 -21.6 -27.3 -20.0 -27.6 -18.4 -27.85 -16.65 -28.1 -14.85 -28.45 -12.35 -28.75 -9.8 -29.0 -7.0 -29.25 -4.25 -29.45 -1.95 -29.6 0.35 -29.8 3.4 -29.95 6.5 -30.1 12.7 -30.25 18.9 -30.1 23.45 -29.95 28.0 -29.7 30.7 -29.45 33.4 -29.2 35.15 -28.95 36.9 -28.5 39.2 -28.1 41.5 -27.55 43.45 -27.05 45.4 -26.65 46.85 -26.2 48.3 -25.6 50.05 -25.0 51.8 -24.1 53.85 -23.2 55.85 -22.4 57.3 -21.65 58.75 -21.6 58.8 -21.55 58.85 -21.1 58.55 -20.7 58.3 -20.4 58.4 -20.05 58.5 -18.45 60.1 -16.85 61.75 -15.95 62.4 -15.05 63.1 -13.6 63.75 -12.15 64.4 -11.75 64.4 -11.4 64.4 -11.4 64.3 -11.4 64.25 -12.65 62.65 -13.9 61.05 -14.95 59.4 -16.05 57.75 -16.8 56.4 -17.6 55.05 -18.2 53.8 -18.8 52.6 -19.45 50.95 -20.15 49.3 -20.7 47.35 -21.3 45.4 -21.6 44.35 -21.85 43.25 -21.85 43.05 -21.85 42.8 -21.5 42.45 -21.2 42.1 -20.8 42.1 -20.4 42.1 -20.15 42.4 -19.9 42.7 -19.5 44.3 -19.1 45.9 -18.5 47.7 -17.95 49.45 -17.5 50.45 -17.1 51.5 -16.25 53.15 -15.4 54.85 -14.8 55.85 -14.2 56.9 -12.95 58.75 -11.75 60.6 -10.8 61.8 -9.85 62.95 -8.45 64.5 -7.1 66.05 -6.95 66.05 -6.85 66.1 -7.25 64.45 -7.65 62.8 -8.15 60.1 -8.65 57.4 -8.75 56.7 -8.85 56.05 -9.25 53.15 -9.7 50.3 -10.05 47.2 -10.35 44.15 -10.7 39.8 -11.05 35.45 -11.25 31.5 -11.45 27.5 -11.45 16.7 -11.45 5.9 -11.25 3.45 -11.05 1.0 -10.8 -1.1 -10.55 -3.2 -10.4 -5.3 -10.2 -7.45 -10.05 -8.0 -9.95 -8.6 -9.5 -8.85 -9.05 -9.1 -8.6 -8.8 -8.2 -8.5 -8.2 -7.4 -8.2 -6.25 -8.45 -4.2 -8.65 -2.2 -8.9 0.45 -9.2 3.05 -9.35 5.8 -9.55 8.55 -9.45 8.65 -9.4 8.75 -8.3 8.2 -7.25 7.65 -5.8 6.75 -4.4 5.9 -2.95 4.9 -1.5 3.9 0.2 2.6 1.9 1.3 2.65 0.65 3.4 0.05 5.15 -1.55 6.85 -3.2 8.45 -5.05 10.05 -6.9 11.65 -9.1 13.25 -11.3 14.25 -13.1 15.25 -14.85 15.95 -16.3 16.7 -17.75 16.9 -19.8 17.15 -21.9 17.5 -24.3 17.85 -26.7 18.35 -29.05 18.85 -31.4 19.3 -33.35 19.8 -35.3 20.4 -37.3 21.0 -39.35 21.65 -41.3 22.35 -43.25 23.05 -45.05 23.75 -46.85 24.15 -47.15 24.55 -47.4 25.0 -47.3 25.45 -47.2 25.6 -46.75 25.8 -46.35 25.35 -45.4 24.95 -44.4 24.5 -43.25 24.05 -42.05 23.45 -40.3 22.85 -38.55 22.15 -36.0 21.4 -33.45 21.05 -31.95 20.65 -30.45 20.35 -28.9 20.05 -27.3 19.7 -25.3 19.35 -23.3 19.1 -21.05 18.85 -18.75 18.65 -16.65 18.5 -14.55 18.45 -10.65 18.35 -6.75 18.5 -3.55 18.65 -0.35 18.85 1.6 19.0 3.55 19.25 5.8 19.5 8.1 19.95 10.65 20.35 13.15 20.6 14.4 20.85 15.65 20.95 15.75 21.0 15.8 21.35 15.6 21.7 15.45 22.1 15.6 22.5 15.75 23.65 18.1 24.85 20.4 25.9 22.1 27.0 23.8 28.1 25.3 29.25 26.85 29.5 27.05 29.8 27.3 29.8 25.6 29.8 23.95 30.0 23.4 30.15 22.9 30.55 22.75 31.0 22.55 31.4 22.7 31.8 22.85 32.7 24.6 33.55 26.3 33.85 25.95 34.1 25.55 34.9 23.75 35.7 21.95 35.95 21.2 36.25 20.45 36.9 18.5 37.55 16.55 37.8 15.6 38.05 14.7 38.3 13.75 38.6 12.8 39.1 10.4 39.6 7.95 39.85 6.15 40.1 4.4 40.3 2.1 40.45 -0.2 40.4 -5.4 40.35 -10.6 40.6 -10.75 40.85 -10.9 41.3 -10.9 41.8 -10.9 42.05 -10.45 42.35 -10.05 42.5 -8.7 42.6 -7.35 42.8 -3.0 43.05 1.35 42.85 5.65 42.65 9.95 42.4 12.4 42.15 14.85 42.2 14.9 42.25 14.95 42.95 12.8 43.65 10.65 44.15 8.7 44.65 6.75 45.0 4.9 45.35 3.05 45.7 0.6 46.05 -1.85 46.2 -5.05 46.35 -8.3 46.15 -11.4 46.0 -14.55 45.75 -16.7 45.5 -18.9 45.15 -20.75 44.85 -22.65 44.5 -24.15 44.15 -25.65 43.8 -27.35 43.5 -29.0 43.7 -29.45 43.9 -29.9 44.2 -29.95 44.5 -30.0 44.9 -29.9 45.3 -29.8 45.55 -29.1 45.85 -28.35 46.4 -26.35 47.0 -24.3 47.35 -22.9 47.7 -21.45 48.4 -18.25 49.05 -15.05 49.45 -13.0 49.9 -11.0 50.2 -8.8 50.55 -6.6 50.8 -4.3 51.05 -2.05 51.35 1.85 51.6 5.75 51.6 7.75 51.6 9.75 52.05 9.3 52.55 8.85 52.9 8.85 53.2 8.85 53.5 9.2 53.8 9.5 53.95 12.35 54.1 15.2 54.0 17.55 53.9 19.9 53.7 22.2 53.45 24.45 53.35 25.1 53.25 25.75 54.2 25.75 55.2 25.75 58.15 25.5 61.1 25.25 61.2 25.1 61.35 25.0 61.7 23.65 62.05 22.3 62.45 19.4 62.9 16.55 63.15 16.25 63.45 15.95 63.9 15.95 64.35 15.95 64.65 16.25 64.95 16.6 65.1 17.55 65.25 18.55 65.25 18.7 65.25 18.85 65.35 18.8 65.4 18.75 65.65 16.8 65.95 14.85 66.2 12.4 66.45 9.95 66.55 3.3 66.65 -3.4 66.45 -6.35 66.25 -9.3 66.0 -11.5 65.75 -13.7 65.4 -15.95 65.05 -18.25 64.55 -21.2 64.05 -24.15 63.15 -27.95 62.2 -31.75 61.95 -32.65 61.7 -33.6 61.1 -35.55 60.5 -37.5 59.85 -39.15 59.2 -40.8 59.2 -41.2 59.2 -41.55 59.5 -41.85 59.8 -42.15 60.05 -42.15 60.3 -42.15 60.65 -41.9 61.0 -41.65 61.6 -40.15 62.2 -38.65 62.8 -36.9 63.35 -35.1 63.8 -33.6 64.2 -32.1 65.15 -28.2 66.1 -24.3 66.6 -21.35 67.1 -18.4 67.45 -16.15 67.8 -13.85 68.05 -11.55 68.3 -9.3 68.45 -6.7 68.65 -4.1 68.65 0.05 68.65 4.25 68.9 4.95 69.15 5.65 69.55 8.05 70.0 10.45 70.15 11.4 70.3 12.3 70.55 14.7 70.85 17.05 71.0 20.15 71.1 23.3 71.05 25.05 71.05 26.8 71.15 26.65 71.3 26.5 71.7 25.0 72.15 23.45 72.4 22.2 72.7 20.95 72.85 19.9 73.0 18.9 73.4 18.6 73.75 18.3 74.05 18.3 74.35 18.3 74.7 18.65 75.05 19.0 75.05 21.4 75.05 23.8 74.7 26.3 74.4 28.85 74.45 28.9 74.5 29.0 75.55 26.9 76.55 24.8 76.9 23.8 77.3 22.8 77.5 22.0 77.7 21.25 78.35 19.15 78.95 17.05 79.1 16.45 79.3 15.85 79.7 14.15 80.1 12.5 80.35 11.15 80.6 9.8 80.95 7.4 81.3 5.05 81.5 2.6 81.7 0.15 81.55 -3.55 81.45 -7.25 81.3 -9.3 81.1 -11.3 80.85 -13.15 80.6 -14.95 80.45 -15.75 80.25 -16.55 80.05 -17.65 79.8 -18.75 79.25 -20.95 78.75 -23.15 78.0 -25.75 77.25 -28.35 76.6 -30.25 75.95 -32.1 75.6 -32.95 75.25 -33.85 74.35 -35.55 73.5 -37.3 73.6 -37.65 73.7 -38.05 74.05 -38.25 74.4 -38.45 74.8 -38.35 75.15 -38.25 75.85 -37.05 76.55 -35.8 77.05 -34.65 77.5 -33.5 77.7 -33.45 77.95 -33.35 78.7 -33.5 79.45 -33.7 80.2 -34.05 80.95 -34.4 79.8 -35.1 78.65 -35.8 77.7 -36.55 76.7 -37.3 74.95 -38.75 73.25 -40.25 72.6 -40.3 71.95 -40.35 71.15 -41.6 70.35 -42.9 69.4 -44.4 68.45 -45.95 67.4 -47.4 66.35 -48.85 65.05 -50.45 63.75 -52.05 61.85 -53.95 59.95 -55.85 57.85 -57.6 55.7 -59.4 53.7 -60.7 51.65 -62.05 49.75 -63.05 47.8 -64.0 46.1 -64.7 44.4 -65.4 42.55 -66.0 40.7 -66.65 38.9 -67.05 37.15 -67.45 34.45 -67.9 31.75 -68.3 29.4 -68.45 27.0 -68.65 23.2 -68.7 19.4 -68.75 19.1 -68.95 18.85 -69.2 18.85 -69.65 18.85 -70.1 19.2 -70.4 19.55 -70.75 23.4 -70.7 27.3 -70.7 29.65 -70.5 32.05 -70.3 34.7 -69.9 37.3 -69.5 39.25 -69.05 41.2 -68.6 43.3 -67.85 45.4 -67.15 46.75 -66.65 48.05 -66.1 50.05 -65.1 52.05 -64.1 53.35 -63.3 54.7 -62.5 55.9 -61.65 57.05 -60.8 58.65 -59.55 60.3 -58.25 63.0 -55.55 65.7 -52.85 67.2 -51.0 68.65 -49.15 69.85 -47.35 71.05 -45.6 72.6 -43.9 74.1 -42.2 75.55 -40.9 77.0 -39.65 77.95 -38.85 78.85 -38.1 80.2 -37.25 81.5 -36.4 82.45 -36.1 83.4 -35.8 83.7 -35.55 84.05 -35.25 83.95 -34.65 83.8 -34.05 83.2 -33.5 82.55 -33.0 81.2 -32.35 79.85 -31.65 79.15 -31.55 78.45 -31.45 78.45 -31.25 78.45 -31.05 78.8 -30.05 79.15 -29.05 79.35 -28.3 79.6 -27.5 80.1 -25.65 80.65 -23.8 81.05 -22.1 81.5 -20.45 81.8 -18.9 82.15 -17.4 82.4 -16.2 82.65 -15.05 82.9 -13.25 83.15 -11.5 83.35 -9.05 83.55 -6.6 83.55 -1.95 83.6 2.7 83.35 4.55 83.15 6.4 82.9 8.2 82.65 9.95 82.35 11.3 82.1 12.65 81.7 14.45 81.25 16.2 80.45 19.15 79.6 22.1 79.0 23.8 78.45 25.5 77.75 27.0 77.0 28.5 75.95 30.4 74.9 32.25 73.8 33.9 72.65 35.55 72.25 35.65 71.8 35.75 71.4 35.55 71.0 35.35 70.9 34.95 70.8 34.5 71.1 33.7 71.35 32.9 71.6 32.0 71.85 31.1 71.8 31.05 71.75 31.0 71.15 32.15 70.6 33.35 70.2 33.75 69.85 34.2 69.35 34.2 68.85 34.2 68.65 33.9 68.4 33.65 68.5 32.45 68.6 31.2 68.8 29.7 69.0 28.2 69.0 24.15 69.0 20.1 68.8 17.7 68.65 15.35 68.45 13.85 68.25 12.3 68.0 14.25 67.8 16.2 67.55 18.05 67.25 19.9 66.85 22.0 66.45 24.15 66.1 25.35 65.8 26.55 65.5 27.05 65.25 27.6 64.8 27.7 64.4 27.8 64.0 27.4 63.55 27.05 63.55 25.85 63.55 24.65 63.4 25.05 63.3 25.5 62.95 26.2 62.55 26.9 62.05 27.05 61.5 27.25 58.1 27.55 54.7 27.8 53.3 27.75 51.95 27.7 51.55 27.3 51.2 26.95 51.2 26.0 51.25 25.05 51.4 24.35 51.6 23.65 51.55 22.95 51.55 22.3 51.3 23.1 51.05 23.9 50.65 24.15 50.2 24.45 49.75 24.2 49.3 23.95 49.25 23.55 49.15 23.2 49.35 20.35 49.55 17.55 49.55 11.65 49.55 5.75 49.3 1.95 49.05 -1.85 48.8 -3.95 48.55 -6.1 48.55 -6.45 48.55 -6.85 48.4 -6.85 48.25 -6.85 48.15 -4.25 48.05 -1.7 47.7 0.75 47.35 3.2 46.95 5.35 46.55 7.45 45.95 9.8 45.3 12.1 44.6 14.25 43.85 16.35 43.2 17.9 42.55 19.4 41.7 21.1 40.85 22.8 40.25 23.1 39.65 23.45 39.2 23.15 38.7 22.85 38.8 22.05 38.85 21.25 39.3 19.15 39.75 17.1 39.75 16.65 39.75 16.2 39.55 16.8 39.4 17.4 38.45 20.1 37.5 22.8 36.7 24.6 35.9 26.45 35.45 27.15 35.05 27.9 34.6 28.4 34.15 28.95 33.6 28.95 33.05 28.95 32.6 28.45 32.2 27.95 32.05 27.55 31.95 27.15 31.8 27.5 31.7 27.85 31.65 28.7 31.65 29.55 31.3 29.95 30.95 30.3 30.5 30.3 30.05 30.3 29.1 29.45 28.1 28.55 27.05 27.2 26.0 25.8 25.05 24.45 24.15 23.1 23.55 22.05 22.9 20.95 22.9 22.2 22.9 23.45 23.05 24.2 23.25 24.95 22.95 25.35 22.7 25.75 22.25 25.75 21.75 25.75 21.4 25.35 21.05 25.0 20.4 22.7 19.7 20.4 18.85 15.95 18.0 11.45 17.75 9.8 17.5 8.1 17.15 5.05 16.8 2.0 16.65 -0.7 16.45 -3.4 16.4 -8.05 16.4 -12.75 16.35 -12.75 16.3 -12.75 15.95 -12.1 15.6 -11.4 14.85 -10.2 14.05 -8.95 12.9 -7.45 11.8 -5.9 10.55 -4.4 9.25 -2.9 8.1 -1.7 6.95 -0.5 5.6 0.75 4.3 1.95 2.05 3.7 -0.15 5.4 -2.0 6.7 -3.85 8.0 -5.4 8.85 -6.9 9.75 -8.25 10.4 -9.6 11.1 -9.5 19.7 -9.4 28.35 -9.2 31.8 -9.0 35.3 -8.7 39.65 -8.35 44.05 -8.0 47.1 -7.65 50.15 -7.15 53.7 -6.65 57.2 -6.15 59.9 -5.65 62.65 -5.05 65.05 -4.45 67.5 -4.1 68.3 -3.8 69.15 -3.8 69.45 -3.8 69.8 -4.05 70.05 -4.3 70.3 -4.9 70.3 -5.45 70.3 -7.55 68.25 -7.55 68.25 M-25.55 55.95 L-25.55 55.55 -25.8 54.9 -26.1 54.25 -26.15 54.25 -26.25 54.25 -26.25 56.15 -26.25 58.05 -25.9 57.2 -25.55 56.4 -25.55 55.95 -25.55 55.95 M51.7 10.7 L51.6 10.45 51.6 10.8 51.6 11.1 51.7 11.0 51.8 10.9 51.7 10.7 51.7 10.7" fill="#919191" fill-rule="evenodd" stroke="none"/>
    <path d="M-7.55 68.3 L-9.65 66.3 -9.95 66.45 -10.25 66.65 -11.45 66.45 -12.7 66.25 -13.6 65.9 -14.5 65.55 -15.6 64.95 -16.7 64.35 -17.45 63.75 -18.15 63.2 -18.25 63.25 -18.35 63.35 -18.05 64.15 -17.8 64.95 -17.8 65.35 -17.8 65.75 -18.25 66.0 -18.65 66.3 -19.05 66.1 -19.45 65.95 -20.2 64.85 -20.95 63.75 -22.15 61.75 -23.35 59.75 -23.75 59.05 -24.15 58.3 -24.65 59.35 -25.15 60.4 -25.9 61.6 -26.7 62.8 -27.15 63.2 -27.65 63.55 -28.0 63.55 -28.4 63.55 -28.7 63.2 -29.0 62.9 -28.8 61.85 -28.6 60.75 -28.4 59.35 -28.25 57.9 -28.25 54.6 -28.25 51.3 -28.6 48.85 -28.95 46.4 -29.3 45.0 -29.65 43.55 -29.85 42.55 -30.1 41.5 -30.55 39.25 -30.95 36.95 -31.1 35.8 -31.3 34.6 -31.45 32.9 -31.65 31.2 -31.85 29.35 -32.0 27.5 -32.1 19.7 -32.2 11.85 -33.0 13.35 -33.8 14.85 -34.95 16.5 -36.1 18.1 -37.85 20.1 -39.55 22.1 -42.0 24.55 -44.5 26.95 -45.05 27.2 -45.6 27.45 -46.05 27.35 -46.45 27.25 -46.65 26.85 -46.9 26.4 -45.7 24.6 -44.5 22.8 -43.45 20.85 -42.45 18.9 -41.7 16.95 -40.9 15.0 -40.1 12.55 -39.25 10.1 -38.85 8.6 -38.4 7.1 -38.15 6.15 -37.9 5.25 -37.5 3.3 -37.05 1.35 -36.7 -0.7 -36.4 -2.7 -36.1 -5.4 -35.85 -8.1 -35.9 -10.95 -35.95 -13.8 -35.6 -14.05 -35.3 -14.25 -35.0 -14.25 -34.7 -14.25 -34.35 -13.95 -34.05 -13.65 -33.9 -12.65 -33.8 -11.65 -33.9 -9.05 -34.0 -6.4 -34.25 -4.25 -34.5 -2.05 -34.7 -0.85 -34.9 0.35 -35.3 2.35 -35.7 4.4 -36.2 6.4 -36.75 8.45 -37.45 10.9 -38.2 13.35 -38.7 14.7 -39.2 16.05 -39.7 17.3 -40.2 18.55 -40.75 19.75 -41.25 20.95 -40.05 19.65 -38.85 18.4 -37.8 17.05 -36.75 15.7 -35.9 14.4 -35.05 13.1 -33.75 10.6 -32.5 8.1 -32.15 7.1 -31.8 6.1 -31.8 5.0 -31.8 3.9 -31.55 0.0 -31.3 -3.9 -31.05 -6.75 -30.8 -9.65 -30.45 -12.25 -30.1 -14.85 -29.85 -16.65 -29.6 -18.4 -29.35 -20.0 -29.1 -21.6 -28.25 -26.0 -27.45 -30.4 -27.1 -32.4 -26.75 -34.35 -26.35 -35.8 -25.95 -37.3 -25.6 -37.7 -25.3 -38.15 -24.9 -38.2 -24.55 -38.25 -24.2 -38.0 -23.9 -37.7 -23.9 -37.45 -23.9 -37.2 -24.35 -35.6 -24.85 -33.95 -25.05 -32.65 -25.25 -31.4 -26.1 -27.0 -26.9 -22.65 -27.25 -20.6 -27.6 -18.6 -28.2 -14.35 -28.75 -10.15 -29.0 -7.35 -29.25 -4.55 -29.45 -2.3 -29.6 0.0 -29.8 3.05 -29.95 6.1 -30.1 12.6 -30.3 19.05 -30.1 23.7 -29.95 28.3 -29.7 30.95 -29.45 33.6 -29.2 35.45 -28.9 37.3 -28.35 40.1 -27.75 42.85 -27.25 44.8 -26.7 46.75 -25.9 49.2 -25.1 51.65 -24.4 53.2 -23.75 54.7 -22.8 56.55 -21.85 58.4 -21.7 58.65 -21.55 58.85 -21.1 58.6 -20.7 58.3 -20.35 58.4 -20.0 58.5 -18.95 59.7 -17.9 60.9 -16.65 61.9 -15.4 62.9 -14.45 63.4 -13.45 63.85 -12.4 64.25 -11.35 64.6 -11.25 64.5 -11.15 64.4 -11.9 63.5 -12.65 62.65 -13.5 61.45 -14.4 60.25 -15.3 58.85 -16.25 57.4 -17.15 55.7 -18.1 54.0 -18.55 53.1 -18.95 52.15 -19.45 50.9 -19.95 49.65 -20.5 48.05 -21.0 46.45 -21.45 44.75 -21.85 43.05 -21.65 42.65 -21.45 42.25 -21.1 42.2 -20.7 42.1 -20.35 42.25 -20.0 42.45 -19.85 43.15 -19.65 43.9 -19.05 46.0 -18.45 48.1 -17.7 50.05 -16.95 52.0 -15.9 53.95 -14.9 55.85 -13.5 58.0 -12.1 60.1 -11.15 61.35 -10.2 62.65 -8.55 64.45 -6.95 66.25 -6.85 66.2 -6.8 66.15 -7.15 64.8 -7.5 63.45 -8.05 60.35 -8.65 57.2 -8.85 56.05 -9.0 54.85 -9.35 52.35 -9.7 49.8 -9.95 47.7 -10.2 45.55 -10.35 43.55 -10.55 41.5 -10.8 38.05 -11.05 34.6 -11.25 30.05 -11.45 25.5 -11.45 15.8 -11.45 6.05 -11.15 2.95 -10.85 -0.2 -10.55 -3.2 -10.2 -6.25 -10.1 -7.25 -10.0 -8.3 -9.85 -8.55 -9.7 -8.85 -9.35 -8.95 -9.0 -9.05 -8.6 -8.8 -8.2 -8.5 -8.2 -7.55 -8.2 -6.55 -8.5 -3.7 -8.85 -0.85 -9.1 2.2 -9.35 5.25 -9.45 6.95 -9.55 8.7 -9.35 8.7 -9.15 8.7 -7.7 7.9 -6.25 7.1 -4.55 6.0 -2.85 4.95 -1.0 3.55 0.85 2.15 2.45 0.85 4.05 -0.5 5.55 -1.95 7.05 -3.4 8.95 -5.6 10.85 -7.85 11.95 -9.45 13.1 -11.1 14.0 -12.65 14.9 -14.2 15.8 -15.95 16.7 -17.65 17.0 -20.35 17.3 -23.0 17.65 -25.1 18.0 -27.25 18.5 -29.75 19.0 -32.25 19.35 -33.5 19.7 -34.8 20.55 -37.55 21.35 -40.35 22.1 -42.55 22.9 -44.75 23.45 -45.95 24.05 -47.2 24.5 -47.3 24.9 -47.4 25.15 -47.2 25.45 -46.95 25.6 -46.65 25.75 -46.4 25.35 -45.45 24.95 -44.55 24.2 -42.45 23.4 -40.35 22.6 -37.55 21.75 -34.8 21.15 -32.4 20.55 -30.05 20.1 -27.8 19.7 -25.5 19.35 -23.1 19.0 -20.65 18.85 -18.7 18.65 -16.7 18.5 -13.2 18.3 -9.65 18.4 -6.25 18.5 -2.9 18.7 -0.35 18.85 2.2 19.2 5.25 19.5 8.25 20.0 11.2 20.5 14.15 20.7 15.1 20.9 16.0 21.1 15.8 21.25 15.6 21.7 15.6 22.1 15.6 22.3 15.75 22.5 15.85 23.85 18.5 25.2 21.1 26.7 23.35 28.25 25.65 29.0 26.5 29.75 27.35 29.85 25.3 30.0 23.3 30.25 23.0 30.55 22.7 31.0 22.7 31.45 22.7 31.75 22.95 32.0 23.25 32.8 24.75 33.55 26.25 33.75 26.1 34.0 25.9 34.8 24.1 35.6 22.3 36.35 20.2 37.1 18.05 37.95 15.2 38.75 12.3 39.35 9.3 39.95 6.25 40.2 3.6 40.45 1.0 40.55 -2.45 40.65 -5.9 40.45 -8.1 40.25 -10.3 40.55 -10.6 40.85 -10.9 41.2 -10.9 41.6 -10.9 41.95 -10.55 42.3 -10.2 42.35 -9.55 42.45 -8.95 42.65 -6.5 42.8 -4.05 42.9 -1.0 43.0 2.0 42.8 5.9 42.65 9.8 42.4 12.15 42.15 14.5 42.15 14.85 42.15 15.2 42.55 14.0 43.0 12.8 43.55 10.9 44.1 8.95 44.45 7.4 44.8 5.9 45.15 4.15 45.5 2.35 45.75 0.4 46.0 -1.55 46.2 -3.55 46.35 -5.6 46.35 -7.85 46.35 -10.15 46.2 -12.5 46.0 -14.85 45.7 -17.5 45.35 -20.1 45.1 -21.45 44.85 -22.8 44.5 -24.25 44.2 -25.65 43.9 -26.9 43.65 -28.15 43.65 -28.8 43.65 -29.45 43.9 -29.7 44.2 -29.95 44.6 -29.95 45.0 -29.95 45.3 -29.55 45.65 -29.1 45.75 -28.55 45.9 -28.05 46.5 -25.85 47.15 -23.65 47.45 -22.45 47.7 -21.3 48.55 -17.4 49.35 -13.5 49.7 -11.65 50.05 -9.8 50.4 -7.45 50.75 -5.05 50.9 -3.3 51.1 -1.55 51.35 2.1 51.6 5.75 51.6 7.8 51.6 9.9 52.05 9.4 52.55 8.85 52.8 8.85 53.05 8.85 53.45 9.15 53.8 9.45 53.95 12.6 54.1 15.7 53.95 18.55 53.8 21.45 53.6 22.8 53.45 24.15 53.35 24.95 53.25 25.75 54.45 25.75 55.7 25.7 58.4 25.5 61.05 25.3 61.2 25.15 61.35 25.0 61.6 24.15 61.9 23.35 62.3 20.6 62.75 17.9 62.85 17.15 63.0 16.4 63.45 16.1 63.9 15.85 64.35 16.1 64.8 16.35 64.95 16.9 65.05 17.4 65.15 18.2 65.3 19.0 65.35 18.95 65.4 18.9 65.65 16.95 65.95 15.0 66.2 12.75 66.45 10.45 66.65 6.5 66.8 2.55 66.7 -1.25 66.6 -5.05 66.45 -7.45 66.25 -9.8 65.9 -12.5 65.6 -15.2 65.0 -18.75 64.4 -22.35 64.15 -23.6 63.9 -24.8 63.45 -26.7 63.05 -28.55 62.25 -31.5 61.5 -34.45 60.85 -36.45 60.15 -38.5 59.65 -39.65 59.2 -40.8 59.2 -41.2 59.2 -41.6 59.6 -41.9 60.05 -42.2 60.5 -41.95 60.95 -41.7 61.5 -40.35 62.05 -39.0 62.8 -36.75 63.55 -34.45 64.3 -31.5 65.05 -28.55 65.55 -26.35 66.1 -24.15 66.6 -21.2 67.1 -18.25 67.45 -15.95 67.8 -13.7 68.05 -11.3 68.3 -8.95 68.45 -6.35 68.65 -3.8 68.65 0.3 68.65 4.4 68.9 5.15 69.15 5.85 69.55 8.15 70.0 10.45 70.3 12.8 70.65 15.2 70.85 17.8 71.0 20.4 71.05 23.65 71.05 26.9 71.1 26.9 71.15 26.9 71.55 25.55 72.0 24.15 72.35 22.6 72.65 21.1 72.85 19.95 73.05 18.8 73.4 18.55 73.75 18.3 74.05 18.3 74.35 18.3 74.7 18.7 75.05 19.05 75.05 21.3 75.05 23.5 74.7 26.15 74.35 28.75 74.25 29.05 74.15 29.35 74.35 29.2 74.5 29.05 75.35 27.35 76.2 25.65 76.5 25.0 76.75 24.3 77.1 23.35 77.4 22.45 78.15 19.9 78.9 17.4 79.25 16.1 79.6 14.85 80.0 12.9 80.45 10.95 80.8 8.85 81.1 6.75 81.4 3.95 81.65 1.15 81.6 -3.55 81.5 -8.3 81.25 -10.45 81.0 -12.65 80.7 -14.35 80.45 -16.05 80.1 -17.55 79.75 -19.1 79.25 -21.15 78.75 -23.2 78.2 -25.2 77.6 -27.2 76.85 -29.45 76.1 -31.75 75.5 -33.25 74.85 -34.8 74.2 -36.0 73.5 -37.25 73.6 -37.65 73.7 -38.1 74.15 -38.3 74.55 -38.45 75.0 -38.15 75.4 -37.8 76.0 -36.75 76.55 -35.7 77.05 -34.5 77.6 -33.35 77.9 -33.35 78.2 -33.35 79.3 -33.7 80.35 -34.0 80.7 -34.25 81.0 -34.45 80.0 -35.05 79.0 -35.6 77.4 -36.8 75.8 -38.05 74.55 -39.15 73.3 -40.25 72.75 -40.25 72.25 -40.3 72.1 -40.4 71.9 -40.5 69.9 -43.65 67.95 -46.75 66.65 -48.45 65.35 -50.15 63.65 -52.05 61.95 -54.0 60.1 -55.7 58.25 -57.4 56.75 -58.55 55.2 -59.75 53.5 -60.85 51.8 -62.0 49.8 -63.0 47.8 -64.05 46.25 -64.65 44.75 -65.3 43.05 -65.85 41.35 -66.45 40.1 -66.75 38.85 -67.1 37.75 -67.35 36.65 -67.6 34.95 -67.9 33.25 -68.15 30.9 -68.4 28.55 -68.65 23.9 -68.75 19.25 -68.8 19.05 -69.1 18.85 -69.35 18.85 -69.75 18.85 -70.15 19.3 -70.45 19.75 -70.75 23.4 -70.7 27.0 -70.65 29.45 -70.5 31.85 -70.3 34.6 -69.9 37.3 -69.5 39.7 -68.9 42.05 -68.3 43.3 -67.85 44.6 -67.45 46.35 -66.75 48.1 -66.05 50.0 -65.1 51.85 -64.2 53.2 -63.4 54.55 -62.55 56.25 -61.35 57.9 -60.15 59.45 -58.85 60.95 -57.6 62.6 -55.95 64.3 -54.35 65.65 -52.75 67.05 -51.15 67.9 -50.05 68.75 -48.95 69.8 -47.35 70.9 -45.75 72.3 -44.15 73.7 -42.55 75.25 -41.15 76.8 -39.75 78.3 -38.55 79.8 -37.4 80.75 -36.85 81.7 -36.25 82.7 -35.95 83.7 -35.7 83.85 -35.3 84.05 -34.9 83.8 -34.35 83.6 -33.8 82.4 -33.0 81.15 -32.2 79.9 -31.85 78.7 -31.45 78.45 -31.4 78.25 -31.35 78.4 -31.0 78.55 -30.7 79.4 -27.95 80.25 -25.15 81.05 -22.1 81.8 -19.1 82.3 -16.55 82.8 -14.0 83.05 -11.75 83.3 -9.45 83.5 -6.1 83.7 -2.7 83.6 0.15 83.5 3.05 83.25 5.25 83.0 7.4 82.75 9.05 82.45 10.7 82.15 12.35 81.8 14.0 81.2 16.3 80.6 18.55 79.7 21.6 78.75 24.65 78.25 25.8 77.75 27.0 76.55 29.25 75.35 31.55 74.2 33.25 73.0 35.0 72.75 35.25 72.5 35.55 72.05 35.65 71.65 35.75 71.25 35.35 70.85 34.95 70.85 34.7 70.85 34.5 71.35 32.95 71.85 31.45 71.85 31.15 71.85 30.9 71.15 32.15 70.5 33.4 70.15 33.8 69.8 34.2 69.4 34.2 69.0 34.2 68.7 33.9 68.45 33.6 68.5 32.6 68.6 31.55 68.85 29.95 69.05 28.35 69.05 23.8 69.05 19.25 68.85 17.3 68.65 15.35 68.45 13.75 68.25 12.15 68.0 14.1 67.8 16.05 67.5 17.95 67.25 19.9 66.75 22.35 66.3 24.8 65.95 25.95 65.6 27.1 65.2 27.45 64.85 27.75 64.65 27.75 64.4 27.75 64.0 27.35 63.55 26.9 63.65 25.65 63.8 24.4 63.7 24.4 63.6 24.4 63.25 25.35 62.9 26.35 62.5 26.75 62.05 27.15 60.85 27.25 59.6 27.4 56.05 27.6 52.5 27.8 51.95 27.55 51.4 27.25 51.3 26.95 51.2 26.7 51.4 24.75 51.6 22.85 51.7 22.2 51.75 21.6 51.35 22.75 50.95 23.9 50.65 24.15 50.3 24.4 50.15 24.4 49.95 24.4 49.55 24.05 49.15 23.75 49.35 20.9 49.55 18.05 49.65 13.9 49.75 9.8 49.55 5.8 49.4 1.85 49.2 -0.2 49.05 -2.2 48.8 -4.55 48.5 -6.95 48.4 -7.05 48.25 -7.2 48.15 -4.6 48.05 -2.05 47.8 0.1 47.5 2.2 47.1 4.45 46.65 6.75 46.25 8.4 45.85 10.05 45.5 11.3 45.15 12.5 44.65 13.9 44.2 15.35 43.5 17.15 42.8 18.9 41.8 20.85 40.8 22.8 40.2 23.1 39.65 23.4 39.3 23.2 38.95 23.05 38.8 22.6 38.7 22.15 38.95 21.05 39.25 19.9 39.5 18.4 39.75 16.9 39.85 16.3 39.95 15.7 38.8 19.05 37.65 22.45 36.9 24.15 36.2 25.8 35.65 26.75 35.15 27.7 34.65 28.3 34.15 28.95 33.55 28.9 32.95 28.85 32.4 28.05 31.85 27.3 31.75 27.4 31.65 27.5 31.65 28.45 31.65 29.4 31.3 29.85 30.95 30.3 30.55 30.3 30.15 30.3 29.3 29.6 28.5 28.95 27.4 27.6 26.3 26.25 25.0 24.3 23.7 22.35 23.3 21.65 22.9 20.95 22.9 22.3 22.9 23.65 23.05 24.25 23.25 24.9 23.05 25.25 22.9 25.55 22.45 25.65 22.0 25.8 21.6 25.45 21.15 25.15 20.75 23.8 20.35 22.45 20.0 21.3 19.7 20.2 18.9 16.15 18.15 12.15 17.75 9.35 17.3 6.6 16.95 3.05 16.6 -0.5 16.5 -6.7 16.4 -12.9 15.35 -11.1 14.25 -9.3 12.9 -7.45 11.5 -5.6 10.2 -4.05 8.9 -2.5 6.65 -0.35 4.35 1.85 2.2 3.55 0.0 5.25 -1.45 6.25 -2.85 7.25 -4.45 8.25 -6.1 9.3 -7.8 10.1 -9.55 10.95 -9.45 19.85 -9.4 28.7 -9.2 32.05 -9.0 35.45 -8.7 39.9 -8.35 44.4 -7.9 48.0 -7.5 51.65 -7.0 54.95 -6.5 58.25 -6.05 60.5 -5.6 62.8 -5.1 64.8 -4.6 66.85 -4.2 68.15 -3.75 69.45 -4.0 69.85 -4.3 70.3 -4.85 70.3 -5.45 70.3 -7.55 68.3 M-25.75 56.9 L-25.4 55.8 -25.8 54.9 -26.2 54.0 -26.25 56.0 -26.25 58.0 -26.15 58.0 -26.1 58.0 -25.75 56.9 M51.7 10.6 L51.6 10.3 51.6 10.9 51.6 11.45 51.7 11.2 51.8 10.9 51.7 10.6" fill="#6f6f6f" fill-rule="evenodd" stroke="none"/>
    <path d="M-6.6 69.15 L-7.95 68.0 -8.75 67.1 -9.55 66.2 -9.95 66.4 -10.4 66.6 -11.45 66.45 -12.5 66.3 -13.65 65.85 -14.85 65.4 -16.0 64.7 -17.15 64.05 -17.75 63.5 -18.3 63.0 -18.4 63.05 -18.45 63.15 -18.15 64.05 -17.8 65.0 -17.8 65.35 -17.8 65.75 -18.25 66.0 -18.65 66.3 -19.05 66.15 -19.45 65.95 -20.7 64.05 -22.0 62.1 -23.05 60.25 -24.1 58.4 -24.15 58.35 -24.2 58.3 -24.5 59.05 -24.85 59.8 -25.55 61.0 -26.25 62.2 -26.9 62.9 -27.55 63.55 -28.0 63.55 -28.45 63.55 -28.7 63.15 -29.0 62.7 -28.8 61.9 -28.65 61.1 -28.45 59.65 -28.25 58.25 -28.25 54.7 -28.25 51.15 -28.6 48.85 -28.95 46.55 -29.5 43.95 -30.1 41.35 -30.45 39.6 -30.8 37.8 -31.05 36.1 -31.3 34.45 -31.55 31.9 -31.8 29.35 -32.0 26.35 -32.15 23.3 -32.15 17.55 -32.15 11.8 -32.85 13.05 -33.5 14.3 -34.7 16.05 -35.85 17.75 -37.5 19.7 -39.15 21.6 -41.5 24.0 -43.9 26.35 -44.45 26.8 -45.05 27.25 -45.5 27.35 -46.0 27.45 -46.4 27.0 -46.85 26.6 -46.65 26.2 -46.45 25.8 -45.4 24.2 -44.3 22.55 -43.3 20.55 -42.3 18.55 -41.55 16.7 -40.8 14.85 -40.2 13.1 -39.6 11.3 -38.85 8.7 -38.1 6.05 -37.6 3.8 -37.1 1.5 -36.7 -0.55 -36.35 -2.6 -36.1 -5.1 -35.85 -7.6 -35.9 -10.65 -35.9 -13.65 -35.55 -13.95 -35.15 -14.25 -35.0 -14.25 -34.9 -14.25 -34.5 -14.0 -34.15 -13.7 -34.0 -13.0 -33.85 -12.35 -33.85 -10.75 -33.85 -9.1 -34.1 -6.3 -34.35 -3.45 -34.65 -1.2 -35.0 1.05 -35.55 3.4 -36.05 5.75 -36.3 6.75 -36.6 7.75 -37.3 10.25 -38.05 12.7 -38.65 14.35 -39.2 16.05 -39.9 17.65 -40.55 19.25 -41.0 20.25 -41.45 21.25 -40.5 20.25 -39.55 19.25 -38.35 17.7 -37.1 16.2 -35.95 14.55 -34.85 12.9 -33.85 10.9 -32.85 8.95 -32.35 7.65 -31.8 6.3 -31.8 5.2 -31.8 4.1 -31.55 0.1 -31.3 -3.9 -30.95 -7.35 -30.6 -10.8 -30.3 -13.25 -29.95 -15.7 -29.8 -16.95 -29.6 -18.25 -29.35 -19.85 -29.1 -21.45 -28.15 -26.45 -27.25 -31.4 -26.9 -33.25 -26.55 -35.1 -26.15 -36.35 -25.75 -37.6 -25.45 -37.9 -25.2 -38.25 -24.8 -38.25 -24.45 -38.25 -24.15 -37.95 -23.9 -37.65 -23.9 -37.4 -23.9 -37.2 -24.3 -35.9 -24.7 -34.6 -24.95 -33.2 -25.25 -31.75 -26.05 -27.25 -26.9 -22.8 -27.15 -21.3 -27.4 -19.75 -28.0 -15.65 -28.6 -11.55 -28.85 -9.25 -29.1 -6.95 -29.35 -3.55 -29.6 -0.2 -29.8 2.8 -29.95 5.75 -30.1 12.4 -30.3 19.05 -30.1 23.8 -29.95 28.5 -29.7 31.15 -29.45 33.75 -29.2 35.6 -28.9 37.45 -28.45 39.9 -27.95 42.35 -27.25 44.9 -26.55 47.45 -25.9 49.45 -25.2 51.45 -24.55 52.95 -23.85 54.5 -22.75 56.7 -21.65 58.9 -21.55 59.0 -21.5 59.1 -21.35 58.8 -21.15 58.5 -20.65 58.5 -20.15 58.5 -18.25 60.4 -16.35 62.3 -15.2 63.0 -14.0 63.7 -12.7 64.15 -11.4 64.6 -11.3 64.5 -11.15 64.4 -11.85 63.6 -12.5 62.8 -13.8 61.0 -15.05 59.25 -16.05 57.55 -17.1 55.85 -18.3 53.4 -19.5 50.95 -20.25 48.7 -21.0 46.4 -21.4 44.7 -21.85 43.05 -21.6 42.65 -21.35 42.3 -21.0 42.2 -20.7 42.1 -20.35 42.3 -20.0 42.45 -19.9 42.9 -19.8 43.4 -19.45 44.65 -19.15 45.9 -18.8 46.95 -18.5 47.95 -17.9 49.65 -17.25 51.3 -16.2 53.45 -15.1 55.55 -14.15 57.05 -13.2 58.55 -12.2 60.0 -11.15 61.45 -10.3 62.45 -9.5 63.45 -8.2 64.85 -6.95 66.25 -6.9 66.2 -6.8 66.15 -7.25 64.4 -7.65 62.65 -8.15 59.85 -8.65 57.05 -8.85 55.85 -9.0 54.7 -9.35 52.15 -9.7 49.65 -9.95 47.45 -10.2 45.25 -10.45 42.2 -10.7 39.15 -10.85 36.7 -11.05 34.25 -11.25 29.8 -11.45 25.3 -11.45 15.8 -11.45 6.25 -11.05 2.25 -10.7 -1.7 -10.3 -5.15 -9.95 -8.55 -9.7 -8.7 -9.45 -8.85 -8.95 -8.85 -8.45 -8.8 -8.25 -8.3 -8.1 -7.85 -8.4 -5.0 -8.7 -2.2 -9.0 1.15 -9.35 4.55 -9.45 6.6 -9.55 8.7 -9.35 8.7 -9.2 8.7 -8.15 8.15 -7.1 7.65 -5.4 6.55 -3.65 5.5 -2.1 4.35 -0.5 3.25 1.55 1.6 3.55 0.0 6.0 -2.45 8.5 -4.9 9.95 -6.75 11.45 -8.6 12.65 -10.45 13.9 -12.35 15.3 -14.9 16.65 -17.45 16.85 -18.8 17.0 -20.1 17.35 -22.7 17.7 -25.35 18.15 -27.9 18.65 -30.5 19.0 -31.95 19.35 -33.45 19.95 -35.45 20.5 -37.5 21.0 -39.1 21.5 -40.7 22.2 -42.7 22.9 -44.65 23.4 -45.75 23.85 -46.85 24.3 -47.1 24.75 -47.4 25.15 -47.1 25.6 -46.85 25.6 -46.5 25.6 -46.15 24.85 -44.25 24.1 -42.4 23.25 -39.75 22.35 -37.15 21.8 -35.05 21.2 -32.95 20.7 -30.75 20.2 -28.55 19.8 -26.1 19.35 -23.65 19.1 -21.45 18.85 -19.25 18.65 -16.9 18.45 -14.55 18.45 -8.7 18.45 -2.9 18.65 -0.25 18.85 2.35 19.2 5.4 19.5 8.45 19.75 10.05 20.05 11.65 20.35 13.5 20.7 15.35 20.8 15.65 20.9 16.0 21.1 15.8 21.25 15.6 21.7 15.6 22.15 15.6 22.45 15.9 22.7 16.2 23.7 18.25 24.75 20.35 25.75 21.95 26.8 23.6 27.8 24.95 28.8 26.35 29.25 26.85 29.75 27.4 29.9 25.45 30.0 23.45 30.25 23.1 30.5 22.7 31.0 22.7 31.5 22.7 31.9 23.25 32.3 23.8 32.65 24.6 33.05 25.4 33.35 25.95 33.65 26.45 34.4 24.95 35.15 23.45 35.95 21.25 36.75 19.05 37.25 17.55 37.75 16.05 38.4 13.5 39.1 10.95 39.5 8.7 39.95 6.4 40.2 3.7 40.5 1.0 40.5 -3.7 40.55 -8.45 40.4 -9.35 40.25 -10.2 40.6 -10.55 40.95 -10.9 41.3 -10.85 41.65 -10.8 42.0 -10.4 42.3 -9.95 42.45 -8.45 42.6 -6.95 42.8 -2.8 43.0 1.35 42.8 5.45 42.65 9.5 42.4 12.0 42.15 14.5 42.05 15.0 41.95 15.5 42.1 15.25 42.25 15.0 42.85 13.25 43.45 11.45 43.95 9.55 44.5 7.6 44.85 5.9 45.2 4.2 45.5 2.1 45.85 0.0 46.1 -2.6 46.35 -5.25 46.35 -7.75 46.35 -10.3 46.2 -12.75 46.0 -15.2 45.75 -17.15 45.5 -19.1 45.25 -20.65 45.0 -22.2 44.65 -23.7 44.35 -25.15 44.0 -26.6 43.65 -28.05 43.65 -28.7 43.65 -29.4 43.95 -29.7 44.25 -29.95 44.6 -29.95 44.95 -29.95 45.2 -29.7 45.5 -29.4 46.3 -26.45 47.15 -23.45 47.75 -20.75 48.35 -18.05 49.05 -14.8 49.75 -11.5 50.15 -8.85 50.55 -6.25 50.8 -3.9 51.05 -1.55 51.35 2.25 51.6 6.05 51.6 9.0 51.65 12.0 51.75 10.75 51.85 9.55 52.1 9.25 52.4 9.0 52.85 9.0 53.35 9.0 53.55 9.25 53.75 9.55 53.9 11.35 54.0 13.15 54.0 16.2 53.95 19.25 53.7 21.7 53.45 24.15 53.35 24.95 53.25 25.75 54.55 25.75 55.9 25.7 58.55 25.5 61.2 25.3 61.3 25.2 61.4 25.1 61.8 23.55 62.2 21.95 62.5 19.75 62.75 17.55 62.95 16.9 63.1 16.25 63.5 16.1 63.9 15.9 64.3 16.1 64.75 16.25 64.9 16.9 65.05 17.55 65.2 18.5 65.35 19.4 65.55 17.9 65.8 16.35 66.1 13.5 66.45 10.65 66.65 6.65 66.8 2.7 66.7 -1.25 66.6 -5.25 66.45 -7.6 66.25 -9.95 65.9 -12.65 65.6 -15.35 65.0 -18.9 64.4 -22.45 64.1 -24.05 63.75 -25.65 62.9 -29.05 62.1 -32.4 61.65 -33.95 61.2 -35.45 60.7 -37.0 60.15 -38.5 59.65 -39.75 59.15 -41.0 59.3 -41.4 59.45 -41.85 59.75 -41.95 60.1 -42.1 60.45 -41.95 60.8 -41.8 61.45 -40.35 62.1 -38.85 62.85 -36.55 63.6 -34.3 64.4 -30.95 65.25 -27.6 65.65 -25.8 66.1 -24.0 66.6 -21.05 67.1 -18.05 67.5 -15.1 67.95 -12.15 68.1 -10.4 68.3 -8.6 68.45 -6.15 68.65 -3.7 68.65 0.35 68.65 4.45 68.8 4.9 69.0 5.4 69.4 7.5 69.8 9.6 70.25 12.5 70.65 15.35 70.85 17.95 71.0 20.5 71.05 23.8 71.05 27.1 71.1 27.05 71.15 26.95 71.6 25.55 72.0 24.15 72.35 22.7 72.65 21.25 72.85 20.15 73.05 19.0 73.25 18.75 73.45 18.5 73.8 18.4 74.2 18.3 74.65 18.7 75.05 19.15 75.05 21.2 75.05 23.3 74.7 25.8 74.4 28.35 74.3 28.95 74.2 29.55 74.65 28.8 75.1 28.0 75.8 26.5 76.5 25.0 76.95 23.8 77.4 22.6 78.3 19.4 79.25 16.2 79.75 14.05 80.3 11.95 80.7 9.45 81.1 6.9 81.4 4.2 81.7 1.5 81.6 -3.45 81.5 -8.45 81.25 -10.65 81.0 -12.85 80.8 -14.0 80.6 -15.2 80.1 -17.55 79.6 -19.9 79.1 -21.95 78.6 -24.0 77.9 -26.25 77.25 -28.55 76.7 -30.05 76.2 -31.6 75.6 -33.0 75.0 -34.45 74.25 -35.9 73.5 -37.4 73.7 -37.75 73.9 -38.05 74.2 -38.25 74.5 -38.4 74.9 -38.2 75.3 -38.0 76.45 -35.65 77.65 -33.3 78.4 -33.4 79.15 -33.5 80.1 -33.95 81.05 -34.4 80.7 -34.6 80.4 -34.8 78.95 -35.75 77.5 -36.7 76.15 -37.8 74.8 -38.95 74.05 -39.65 73.3 -40.35 72.8 -40.3 72.25 -40.25 72.1 -40.4 71.9 -40.5 70.4 -42.9 68.9 -45.25 67.95 -46.7 67.0 -48.1 65.8 -49.65 64.55 -51.15 62.8 -53.05 61.0 -55.0 59.1 -56.6 57.25 -58.25 55.7 -59.35 54.2 -60.5 53.0 -61.25 51.85 -62.0 50.55 -62.7 49.25 -63.4 47.15 -64.3 45.1 -65.2 43.05 -65.9 41.0 -66.6 38.9 -67.1 36.8 -67.6 35.1 -67.85 33.45 -68.15 31.05 -68.4 28.7 -68.65 24.15 -68.75 19.6 -68.8 19.3 -68.9 19.0 -69.0 18.9 -69.3 18.8 -69.65 18.9 -70.0 19.05 -70.35 19.5 -70.5 19.95 -70.7 23.5 -70.7 27.0 -70.65 29.3 -70.5 31.6 -70.3 33.95 -70.0 36.3 -69.65 38.6 -69.15 40.95 -68.6 43.4 -67.8 45.85 -67.0 47.65 -66.15 49.45 -65.35 51.1 -64.55 52.7 -63.7 54.55 -62.5 56.4 -61.25 57.95 -60.05 59.45 -58.85 61.4 -57.1 63.35 -55.3 65.05 -53.4 66.75 -51.5 67.9 -50.0 69.05 -48.45 70.0 -47.1 70.9 -45.75 72.3 -44.1 73.75 -42.45 75.7 -40.75 77.65 -39.0 79.0 -38.0 80.35 -37.0 81.45 -36.45 82.55 -35.9 82.95 -35.9 83.3 -35.9 83.7 -35.55 84.05 -35.2 83.9 -34.75 83.8 -34.3 83.25 -33.7 82.75 -33.15 81.4 -32.5 80.05 -31.85 79.2 -31.65 78.35 -31.4 78.3 -31.4 78.25 -31.4 78.7 -30.15 79.1 -28.9 79.9 -26.25 80.65 -23.65 81.05 -21.95 81.5 -20.25 82.15 -17.15 82.8 -14.0 83.05 -11.55 83.3 -9.1 83.5 -6.2 83.65 -3.3 83.65 -1.5 83.65 0.35 83.4 3.15 83.15 6.0 82.85 8.25 82.5 10.45 82.05 12.55 81.6 14.7 80.85 17.45 80.1 20.2 79.4 22.4 78.75 24.6 77.9 26.45 77.05 28.35 76.1 30.05 75.15 31.75 74.4 32.9 73.65 34.1 73.15 34.75 72.65 35.4 72.25 35.55 71.8 35.7 71.5 35.55 71.2 35.35 71.0 35.0 70.8 34.65 71.15 33.7 71.5 32.75 71.75 31.7 72.0 30.65 72.0 30.55 72.0 30.4 71.25 31.85 70.55 33.35 70.15 33.75 69.75 34.2 69.4 34.2 69.05 34.2 68.7 33.85 68.4 33.5 68.55 32.55 68.65 31.55 68.8 30.3 68.95 29.05 69.1 25.8 69.2 22.6 69.0 19.5 68.8 16.35 68.55 14.35 68.3 12.3 68.25 12.3 68.2 12.25 68.0 14.15 67.8 16.05 67.5 17.8 67.25 19.6 66.95 21.45 66.6 23.3 66.1 25.2 65.55 27.1 65.15 27.45 64.7 27.75 64.55 27.75 64.4 27.75 64.0 27.35 63.6 26.95 63.65 25.55 63.75 24.15 63.6 24.45 63.45 24.8 63.15 25.65 62.8 26.45 62.35 26.8 61.95 27.1 60.7 27.25 59.45 27.4 56.05 27.6 52.65 27.8 52.05 27.5 51.4 27.2 51.3 26.8 51.2 26.4 51.5 24.1 51.8 21.85 51.7 21.75 51.65 21.7 51.35 22.7 51.1 23.7 50.65 24.05 50.2 24.35 49.8 24.2 49.4 24.0 49.3 23.6 49.2 23.25 49.4 20.9 49.55 18.55 49.65 13.9 49.75 9.3 49.55 5.5 49.35 1.7 49.2 -0.35 49.05 -2.35 48.8 -4.75 48.5 -7.1 48.4 -7.35 48.25 -7.55 48.15 -4.9 48.05 -2.2 47.7 0.35 47.4 2.85 46.95 4.95 46.55 7.1 45.95 9.45 45.35 11.8 44.7 13.75 44.05 15.7 43.4 17.3 42.75 18.9 42.0 20.4 41.25 21.95 40.85 22.5 40.4 23.05 40.05 23.2 39.7 23.35 39.3 23.15 38.9 23.0 38.8 22.6 38.7 22.2 39.0 21.15 39.25 20.1 39.6 18.1 39.95 16.05 39.95 15.8 39.95 15.5 38.75 19.0 37.6 22.45 37.05 23.7 36.5 25.0 35.95 26.15 35.35 27.35 34.8 28.05 34.3 28.8 33.9 28.9 33.55 29.0 33.2 28.85 32.85 28.75 32.4 28.0 31.9 27.25 31.8 27.25 31.65 27.25 31.65 28.35 31.65 29.4 31.3 29.85 30.95 30.3 30.55 30.3 30.1 30.3 29.0 29.25 27.9 28.2 27.0 27.05 26.05 25.85 24.45 23.4 22.85 20.95 22.8 20.85 22.7 20.75 22.8 21.45 22.85 22.1 22.95 23.65 23.05 25.2 22.8 25.45 22.5 25.75 22.2 25.75 21.9 25.75 21.55 25.45 21.2 25.15 20.5 22.95 19.8 20.75 19.0 16.45 18.15 12.15 17.75 9.3 17.3 6.4 16.95 2.85 16.6 -0.7 16.5 -6.8 16.4 -12.95 15.45 -11.35 14.55 -9.8 13.55 -8.35 12.55 -6.95 10.75 -4.8 9.0 -2.65 6.95 -0.65 4.9 1.35 2.85 2.95 0.85 4.6 -0.7 5.7 -2.3 6.85 -4.35 8.15 -6.45 9.45 -8.0 10.2 -9.55 10.95 -9.5 20.0 -9.4 29.05 -9.2 32.25 -9.0 35.45 -8.75 39.05 -8.5 42.7 -8.15 45.9 -7.85 49.1 -7.5 51.5 -7.2 53.85 -6.9 55.7 -6.65 57.55 -6.2 59.85 -5.8 62.1 -5.2 64.5 -4.65 66.85 -4.2 68.15 -3.75 69.45 -4.05 69.9 -4.3 70.3 -4.8 70.3 -5.3 70.3 -6.6 69.15 M-25.75 56.95 L-25.35 55.8 -25.8 54.9 -26.2 54.0 -26.25 55.9 -26.25 57.8 -26.35 58.1 -26.45 58.4 -26.3 58.25 -26.1 58.05 -25.75 56.95 -25.75 56.95 M40.05 15.05 L39.95 14.85 39.95 15.15 39.95 15.5 40.05 15.4 40.15 15.3 40.05 15.05 40.05 15.05" fill="#4e4e4e" fill-rule="evenodd" stroke="none"/>
    <path d="M-7.0 68.8 L-8.65 67.25 -9.0 66.8 -9.3 66.35 -10.9 66.35 -12.5 66.35 -13.9 65.7 -15.3 65.1 -16.2 64.55 -17.15 64.0 -17.8 63.4 -18.5 62.85 -18.5 63.0 -18.5 63.15 -18.1 64.2 -17.75 65.25 -17.95 65.7 -18.15 66.1 -18.65 66.1 -19.15 66.1 -19.4 65.8 -19.7 65.55 -20.65 64.1 -21.65 62.65 -22.85 60.45 -24.1 58.3 -24.15 58.3 -24.2 58.3 -24.9 59.7 -25.6 61.1 -26.3 62.1 -27.0 63.15 -27.5 63.35 -27.95 63.55 -28.25 63.45 -28.6 63.35 -28.75 63.05 -28.95 62.75 -28.7 61.4 -28.45 60.1 -28.25 57.65 -28.1 55.2 -28.2 53.1 -28.3 51.0 -28.55 49.05 -28.8 47.1 -29.55 43.7 -30.25 40.35 -30.55 39.0 -30.8 37.65 -30.95 36.55 -31.15 35.45 -31.5 32.35 -31.8 29.25 -32.0 25.6 -32.15 21.95 -32.1 16.75 -32.05 11.6 -32.35 12.05 -32.6 12.5 -33.4 13.9 -34.2 15.35 -35.25 16.75 -36.25 18.2 -37.2 19.3 -38.15 20.4 -40.25 22.7 -42.35 24.95 -43.6 26.0 -44.85 27.05 -45.3 27.25 -45.8 27.4 -46.2 27.2 -46.6 27.0 -46.65 26.65 -46.7 26.25 -45.5 24.45 -44.3 22.6 -43.4 20.85 -42.5 19.05 -41.7 17.15 -40.9 15.25 -40.0 12.5 -39.1 9.8 -38.5 7.6 -37.9 5.4 -37.5 3.45 -37.05 1.5 -36.7 -0.45 -36.4 -2.35 -36.1 -4.9 -35.85 -7.45 -35.85 -10.55 -35.85 -13.65 -35.65 -13.9 -35.5 -14.1 -35.0 -14.1 -34.5 -14.1 -34.3 -13.7 -34.05 -13.35 -33.95 -11.9 -33.8 -10.45 -34.0 -7.85 -34.2 -5.25 -34.35 -3.7 -34.55 -2.2 -34.85 -0.2 -35.2 1.8 -35.7 4.1 -36.25 6.4 -37.15 9.55 -38.05 12.65 -38.9 14.95 -39.7 17.2 -40.2 18.3 -40.65 19.4 -41.05 20.25 -41.45 21.05 -41.4 21.1 -41.3 21.2 -40.05 19.8 -38.8 18.4 -37.85 17.2 -36.9 16.05 -35.95 14.6 -35.0 13.15 -33.6 10.3 -32.15 7.4 -32.0 6.65 -31.85 5.9 -31.55 1.0 -31.3 -3.9 -30.95 -7.25 -30.6 -10.65 -30.3 -13.1 -29.95 -15.55 -29.8 -16.8 -29.6 -18.05 -29.35 -19.65 -29.1 -21.3 -28.15 -26.25 -27.25 -31.25 -27.0 -32.75 -26.7 -34.3 -26.4 -35.5 -26.05 -36.75 -25.8 -37.3 -25.55 -37.9 -25.2 -38.1 -24.9 -38.25 -24.55 -38.15 -24.2 -38.05 -24.05 -37.7 -23.85 -37.4 -24.3 -36.1 -24.7 -34.8 -24.95 -33.35 -25.25 -31.9 -26.15 -26.95 -27.05 -21.95 -27.35 -20.45 -27.6 -18.9 -28.15 -14.8 -28.75 -10.65 -29.0 -7.95 -29.3 -5.25 -29.55 -1.8 -29.8 1.7 -29.95 5.25 -30.1 8.75 -30.25 14.85 -30.35 20.95 -30.15 25.05 -29.95 29.2 -29.7 31.55 -29.45 33.95 -29.2 35.8 -28.9 37.65 -28.4 40.1 -27.95 42.55 -27.6 43.7 -27.25 44.9 -26.75 46.75 -26.2 48.6 -25.45 50.7 -24.7 52.85 -23.3 55.7 -21.85 58.55 -21.7 58.8 -21.55 59.05 -21.25 58.75 -21.0 58.5 -20.55 58.5 -20.15 58.5 -18.55 60.2 -16.9 61.9 -15.65 62.7 -14.45 63.5 -13.1 64.05 -11.75 64.55 -11.4 64.55 -11.0 64.55 -11.7 63.75 -12.35 62.95 -13.6 61.2 -14.9 59.4 -15.85 57.85 -16.8 56.3 -17.6 54.75 -18.45 53.15 -19.05 51.8 -19.65 50.4 -20.25 48.65 -20.85 46.9 -21.25 45.25 -21.7 43.6 -21.7 43.15 -21.7 42.7 -21.5 42.5 -21.3 42.3 -20.85 42.3 -20.4 42.3 -20.2 42.5 -20.0 42.75 -19.5 44.7 -19.0 46.65 -18.25 48.75 -17.45 50.85 -16.85 52.15 -16.25 53.45 -15.25 55.25 -14.2 57.05 -13.2 58.55 -12.2 60.1 -11.4 61.1 -10.65 62.1 -9.25 63.7 -7.85 65.35 -7.3 65.9 -6.7 66.45 -7.1 64.8 -7.5 63.15 -8.0 60.5 -8.5 57.9 -8.75 56.2 -9.0 54.5 -9.35 52.0 -9.7 49.45 -9.95 47.25 -10.2 45.05 -10.35 43.05 -10.55 41.0 -10.8 37.55 -11.05 34.1 -11.25 29.35 -11.45 24.65 -11.45 15.5 -11.45 6.4 -11.05 2.45 -10.7 -1.55 -10.3 -4.95 -9.95 -8.35 -9.7 -8.6 -9.5 -8.85 -9.1 -8.85 -8.7 -8.85 -8.45 -8.6 -8.2 -8.35 -8.2 -7.75 -8.2 -7.15 -8.5 -4.2 -8.85 -1.2 -9.1 1.6 -9.35 4.4 -9.45 6.6 -9.6 8.85 -9.25 8.75 -8.95 8.65 -7.4 7.8 -5.9 6.95 -3.55 5.4 -1.15 3.8 0.75 2.25 2.7 0.75 4.25 -0.65 5.75 -2.05 7.05 -3.4 8.35 -4.75 9.3 -5.9 10.3 -7.1 11.45 -8.7 12.65 -10.25 13.7 -12.05 14.8 -13.85 15.8 -15.8 16.8 -17.75 16.95 -19.65 17.15 -21.6 17.5 -23.75 17.8 -25.9 18.25 -28.25 18.7 -30.55 19.35 -33.1 20.0 -35.65 20.75 -38.2 21.55 -40.8 22.2 -42.6 22.85 -44.4 23.3 -45.5 23.75 -46.6 24.0 -46.9 24.3 -47.2 24.75 -47.2 25.2 -47.2 25.45 -46.95 25.65 -46.65 25.45 -46.05 25.25 -45.4 24.45 -43.25 23.6 -41.05 22.8 -38.5 22.0 -35.95 21.45 -33.85 20.9 -31.75 20.35 -29.2 19.85 -26.7 19.4 -24.05 19.0 -21.45 18.9 -20.25 18.8 -19.1 18.75 -18.3 18.7 -17.55 18.5 -14.35 18.3 -11.15 18.4 -6.25 18.5 -1.35 18.75 1.5 19.0 4.4 19.25 6.6 19.55 8.75 19.95 11.15 20.35 13.5 20.6 14.7 20.8 15.85 21.05 15.8 21.3 15.75 21.65 15.65 22.05 15.55 22.3 15.75 22.55 16.0 23.65 18.25 24.8 20.55 26.15 22.6 27.5 24.65 28.6 26.1 29.7 27.5 29.9 25.35 30.05 23.2 30.4 22.95 30.7 22.7 31.1 22.7 31.45 22.7 31.7 23.0 31.95 23.3 32.75 24.9 33.55 26.5 33.85 26.1 34.15 25.7 34.9 23.95 35.7 22.25 36.6 19.55 37.55 16.85 38.3 14.0 39.1 11.15 39.5 8.85 39.9 6.6 40.2 4.05 40.45 1.5 40.55 -2.55 40.65 -6.6 40.5 -8.3 40.35 -9.95 40.45 -10.35 40.6 -10.7 40.95 -10.8 41.25 -10.9 41.6 -10.75 41.95 -10.55 42.15 -10.25 42.3 -9.9 42.5 -8.35 42.65 -6.75 42.75 -0.75 42.85 5.25 42.65 8.2 42.45 11.15 42.2 13.3 41.95 15.5 42.0 15.55 42.1 15.6 42.7 13.8 43.3 12.0 43.75 10.45 44.15 8.95 44.65 6.75 45.15 4.55 45.6 1.85 46.0 -0.85 46.15 -3.1 46.35 -5.4 46.35 -8.0 46.35 -10.65 46.2 -13.0 46.0 -15.35 45.75 -17.4 45.5 -19.4 45.25 -20.85 45.0 -22.3 44.65 -23.8 44.35 -25.35 44.0 -26.75 43.65 -28.2 43.65 -28.85 43.65 -29.45 44.05 -29.75 44.5 -30.0 44.8 -29.9 45.15 -29.8 45.35 -29.45 45.55 -29.1 46.3 -26.45 47.05 -23.8 47.55 -21.6 48.05 -19.4 48.9 -15.35 49.75 -11.3 50.15 -8.7 50.55 -6.1 50.8 -3.55 51.05 -1.0 51.25 1.75 51.45 4.5 51.55 8.4 51.7 12.3 51.75 11.2 51.75 10.05 51.95 9.6 52.15 9.2 52.55 9.1 52.9 9.0 53.25 9.1 53.6 9.2 53.75 9.65 53.85 10.1 53.85 15.45 53.85 20.75 53.55 23.1 53.25 25.5 53.2 25.65 53.2 25.8 54.7 25.75 56.25 25.75 58.4 25.55 60.6 25.4 60.95 25.3 61.3 25.25 61.7 24.0 62.05 22.8 62.4 20.5 62.75 18.25 62.85 17.4 63.0 16.55 63.45 16.25 63.9 15.9 64.35 16.25 64.85 16.55 64.95 17.25 65.1 17.9 65.2 18.75 65.35 19.6 65.55 18.05 65.8 16.55 66.1 13.65 66.45 10.8 66.65 7.0 66.8 3.2 66.7 -1.2 66.6 -5.6 66.45 -7.85 66.25 -10.15 65.9 -12.85 65.6 -15.55 65.0 -19.15 64.4 -22.8 63.95 -24.75 63.55 -26.7 62.6 -30.35 61.7 -34.05 60.9 -36.45 60.05 -38.85 59.6 -39.9 59.15 -41.0 59.25 -41.4 59.35 -41.8 59.8 -41.9 60.25 -42.0 60.5 -41.85 60.8 -41.7 61.15 -40.9 61.55 -40.15 62.4 -37.75 63.2 -35.4 64.05 -32.2 64.9 -29.05 65.5 -26.35 66.15 -23.65 66.8 -19.7 67.45 -15.7 67.8 -13.0 68.1 -10.3 68.3 -7.95 68.5 -5.6 68.65 -0.25 68.75 5.05 69.05 5.95 69.3 6.85 69.75 9.45 70.15 12.0 70.4 14.0 70.65 16.05 70.8 18.4 71.0 20.75 71.0 24.05 71.0 27.35 71.35 26.45 71.65 25.6 72.15 23.5 72.65 21.45 72.85 20.2 73.05 19.0 73.3 18.7 73.55 18.45 74.1 18.5 74.6 18.55 74.85 19.0 75.05 19.4 75.05 20.85 75.05 22.3 74.9 24.15 74.7 26.0 74.45 27.65 74.2 29.35 74.25 29.4 74.35 29.45 75.25 27.65 76.2 25.8 76.65 24.75 77.05 23.65 78.0 20.6 78.9 17.5 79.5 15.15 80.1 12.8 80.45 11.05 80.8 9.3 81.05 7.5 81.25 5.75 81.5 3.55 81.7 1.4 81.6 -3.6 81.5 -8.6 81.3 -10.3 81.1 -12.0 80.85 -13.7 80.6 -15.35 80.2 -17.3 79.75 -19.25 79.35 -21.05 78.9 -22.8 78.25 -25.2 77.6 -27.55 76.85 -29.8 76.05 -32.0 75.65 -33.05 75.2 -34.1 74.45 -35.6 73.7 -37.1 73.75 -37.55 73.8 -37.95 74.05 -38.15 74.3 -38.3 74.75 -38.2 75.2 -38.05 75.9 -36.85 76.55 -35.65 77.0 -34.45 77.5 -33.3 78.25 -33.4 79.0 -33.45 80.0 -33.85 80.95 -34.2 80.95 -34.35 80.95 -34.5 79.9 -35.15 78.85 -35.8 77.4 -36.85 76.0 -37.95 74.65 -39.15 73.35 -40.35 72.8 -40.3 72.25 -40.25 72.0 -40.55 71.7 -40.85 69.7 -44.05 67.65 -47.3 66.05 -49.3 64.5 -51.35 61.8 -54.05 59.1 -56.75 57.5 -58.0 55.9 -59.3 54.7 -60.15 53.55 -60.95 52.1 -61.85 50.65 -62.7 49.2 -63.4 47.8 -64.1 46.45 -64.65 45.1 -65.25 43.3 -65.85 41.55 -66.45 39.25 -67.05 37.0 -67.6 35.3 -67.85 33.6 -68.15 31.25 -68.4 28.9 -68.65 24.1 -68.75 19.3 -68.85 19.05 -69.25 18.8 -69.65 19.05 -70.05 19.35 -70.5 19.8 -70.6 20.25 -70.7 24.8 -70.6 29.4 -70.5 31.65 -70.25 33.95 -70.0 35.05 -69.8 36.15 -69.6 38.15 -69.2 40.2 -68.75 42.1 -68.2 44.05 -67.6 46.0 -66.85 47.95 -66.05 50.45 -64.8 52.9 -63.55 54.75 -62.3 56.6 -61.1 58.2 -59.8 59.8 -58.5 61.45 -57.0 63.15 -55.5 64.8 -53.65 66.45 -51.8 67.4 -50.65 68.3 -49.45 69.65 -47.55 70.95 -45.6 71.7 -44.75 72.45 -43.9 73.45 -42.85 74.45 -41.75 76.05 -40.35 77.65 -38.95 79.1 -37.9 80.55 -36.85 81.55 -36.35 82.55 -35.9 82.85 -35.9 83.15 -35.9 83.55 -35.5 83.95 -35.1 83.85 -34.65 83.8 -34.2 83.1 -33.6 82.4 -33.0 81.25 -32.45 80.1 -31.85 79.2 -31.65 78.25 -31.45 78.3 -31.15 78.4 -30.9 79.25 -28.2 80.1 -25.5 80.8 -22.8 81.5 -20.1 81.85 -18.5 82.15 -16.9 82.4 -15.7 82.65 -14.55 82.9 -12.65 83.15 -10.8 83.35 -8.3 83.5 -5.75 83.5 -1.8 83.5 2.2 83.25 4.7 82.95 7.25 82.55 9.7 82.15 12.15 81.65 14.25 81.15 16.35 80.35 19.05 79.6 21.75 79.1 23.35 78.55 24.95 77.8 26.6 77.05 28.25 75.95 30.25 74.85 32.25 73.9 33.6 73.0 34.95 72.7 35.25 72.45 35.55 71.9 35.55 71.4 35.55 71.15 35.3 70.95 35.0 70.95 34.65 70.95 34.25 71.4 33.0 71.8 31.75 71.9 30.95 72.0 30.2 71.65 31.05 71.25 31.9 70.8 32.8 70.3 33.65 69.9 33.95 69.45 34.25 69.05 34.05 68.65 33.85 68.55 33.45 68.45 33.0 68.6 31.85 68.8 30.7 68.95 28.7 69.15 26.65 69.15 23.9 69.15 21.1 68.9 17.95 68.65 14.85 68.45 13.5 68.25 12.15 68.2 12.1 68.15 12.0 68.15 12.35 68.15 12.65 67.9 14.85 67.65 17.05 67.45 18.25 67.25 19.4 66.85 21.7 66.4 23.95 66.05 25.35 65.65 26.75 65.35 27.15 65.1 27.6 64.7 27.6 64.25 27.6 64.0 27.35 63.75 27.05 63.75 25.5 63.7 23.95 63.35 25.0 62.95 26.0 62.8 26.3 62.7 26.55 62.3 26.85 61.85 27.1 60.5 27.25 59.1 27.4 56.15 27.6 53.2 27.8 52.6 27.7 51.95 27.55 51.55 27.15 51.2 26.75 51.5 24.25 51.8 21.75 51.85 21.45 51.95 21.1 51.85 21.2 51.75 21.3 51.4 22.45 51.1 23.6 50.8 23.9 50.5 24.2 50.15 24.2 49.8 24.2 49.5 23.9 49.2 23.55 49.4 20.8 49.65 18.05 49.65 11.45 49.65 4.9 49.4 2.0 49.2 -0.85 48.85 -4.0 48.55 -7.1 48.4 -7.6 48.25 -8.1 48.15 -5.35 48.05 -2.55 47.7 0.1 47.35 2.75 46.95 5.0 46.5 7.25 45.95 9.45 45.35 11.65 44.55 14.0 43.75 16.35 42.95 18.3 42.1 20.25 41.5 21.35 40.95 22.45 40.5 22.85 40.1 23.2 39.7 23.2 39.25 23.2 39.0 22.8 38.75 22.4 39.15 20.4 39.6 18.4 39.85 16.75 40.1 15.1 40.1 14.9 40.1 14.7 39.5 16.6 38.95 18.55 38.05 21.0 37.2 23.45 36.2 25.5 35.25 27.5 34.6 28.25 34.0 28.95 33.6 28.95 33.2 28.95 32.75 28.35 32.25 27.8 31.95 27.4 31.7 27.0 31.65 28.05 31.65 29.15 31.4 29.6 31.15 30.1 30.85 30.2 30.55 30.3 30.1 30.15 29.7 30.0 28.5 28.75 27.3 27.5 26.4 26.25 25.5 25.0 24.65 23.7 23.85 22.45 23.3 21.5 22.7 20.6 22.8 21.95 22.9 23.3 23.0 24.25 23.1 25.2 22.65 25.5 22.25 25.75 21.7 25.5 21.2 25.2 21.2 25.15 21.2 25.1 20.45 22.6 19.7 20.1 18.9 15.95 18.15 11.85 17.75 9.05 17.3 6.25 16.95 2.55 16.6 -1.2 16.5 -7.1 16.4 -13.0 15.75 -11.8 15.1 -10.65 13.8 -8.8 12.55 -7.0 11.05 -5.2 9.6 -3.4 8.15 -1.85 6.7 -0.3 4.65 1.45 2.6 3.2 0.95 4.45 -0.65 5.7 -2.6 7.0 -4.55 8.3 -6.1 9.15 -7.6 10.05 -8.55 10.45 -9.5 10.9 -9.6 11.2 -9.75 11.45 -9.65 18.15 -9.55 24.8 -9.35 29.1 -9.2 33.4 -8.95 37.2 -8.7 41.0 -8.35 44.5 -8.0 47.95 -7.65 50.55 -7.35 53.15 -7.0 55.45 -6.65 57.75 -6.15 60.35 -5.6 62.95 -5.05 65.25 -4.5 67.5 -4.2 68.25 -3.95 69.0 -3.95 69.5 -3.95 69.95 -4.3 70.15 -4.6 70.3 -4.95 70.3 -5.3 70.3 -7.0 68.8 -7.0 68.8 M-25.7 56.95 L-25.35 55.85 -25.75 54.9 -26.15 53.95 -26.15 54.0 -26.2 54.0 -26.3 56.3 -26.4 58.55 -26.25 58.3 -26.1 58.05 -25.7 56.95" fill="#2e2e2e" fill-rule="evenodd" stroke="none"/>
    <path d="M-6.1 69.5 L-7.1 68.65 -8.35 67.4 -9.6 66.1 -9.9 66.25 -10.2 66.4 -10.95 66.4 -11.75 66.4 -12.8 66.05 -13.85 65.7 -15.0 65.15 -16.2 64.55 -17.45 63.6 -18.7 62.65 -18.6 62.9 -18.55 63.15 -18.25 64.0 -17.95 64.9 -18.0 65.35 -18.05 65.8 -18.35 66.0 -18.6 66.15 -19.05 65.95 -19.5 65.75 -20.75 63.85 -21.95 61.95 -23.05 60.1 -24.1 58.25 -24.15 58.2 -24.2 58.15 -24.7 59.25 -25.2 60.35 -25.95 61.5 -26.7 62.65 -27.1 63.0 -27.5 63.4 -27.95 63.4 -28.4 63.4 -28.6 63.1 -28.85 62.85 -28.65 61.65 -28.45 60.45 -28.25 58.75 -28.05 57.05 -28.15 53.6 -28.25 50.15 -28.5 48.55 -28.8 46.9 -29.55 43.45 -30.3 40.0 -30.7 37.65 -31.1 35.3 -31.45 31.75 -31.85 28.25 -31.95 23.6 -32.1 18.9 -32.05 15.1 -31.95 11.3 -32.75 12.75 -33.55 14.15 -34.5 15.6 -35.45 17.05 -36.5 18.4 -37.6 19.75 -38.9 21.2 -40.15 22.6 -42.0 24.4 -43.8 26.2 -44.6 26.75 -45.4 27.25 -45.75 27.25 -46.15 27.25 -46.4 27.0 -46.65 26.75 -46.65 26.5 -46.65 26.3 -45.45 24.45 -44.2 22.55 -43.2 20.55 -42.25 18.55 -41.35 16.35 -40.45 14.1 -39.6 11.45 -38.7 8.75 -37.95 5.75 -37.25 2.7 -36.8 0.4 -36.4 -1.85 -36.1 -4.25 -35.8 -6.6 -35.75 -10.2 -35.75 -13.8 -35.5 -13.95 -35.25 -14.1 -35.0 -14.1 -34.75 -14.1 -34.55 -13.95 -34.35 -13.85 -34.2 -13.35 -34.0 -12.9 -34.0 -10.4 -34.0 -7.9 -34.25 -5.3 -34.5 -2.7 -34.85 -0.6 -35.2 1.45 -35.8 4.05 -36.35 6.7 -37.15 9.4 -37.95 12.15 -38.75 14.5 -39.6 16.85 -40.6 19.05 -41.55 21.25 -41.5 21.3 -41.45 21.35 -40.65 20.45 -39.8 19.6 -38.55 18.15 -37.35 16.7 -36.2 15.0 -35.05 13.35 -33.95 11.2 -32.85 9.1 -32.35 7.85 -31.85 6.6 -31.65 3.2 -31.45 -0.2 -31.2 -3.45 -30.95 -6.75 -30.7 -9.2 -30.45 -11.65 -29.8 -16.2 -29.1 -20.75 -28.25 -25.4 -27.4 -30.05 -27.0 -32.25 -26.6 -34.45 -26.35 -35.5 -26.05 -36.55 -25.85 -37.05 -25.65 -37.5 -25.4 -37.8 -25.2 -38.1 -24.8 -38.1 -24.45 -38.1 -24.25 -37.85 -24.05 -37.65 -24.05 -37.3 -24.05 -36.95 -24.4 -36.0 -24.7 -35.0 -25.7 -29.6 -26.75 -24.15 -27.15 -21.8 -27.6 -19.4 -28.15 -15.2 -28.75 -11.0 -29.0 -8.55 -29.25 -6.1 -29.5 -2.7 -29.75 0.65 -30.0 4.4 -30.2 8.1 -30.2 17.65 -30.2 27.15 -29.9 30.15 -29.6 33.1 -29.35 35.0 -29.1 36.95 -28.6 39.5 -28.1 42.05 -27.65 43.65 -27.2 45.25 -26.55 47.5 -25.9 49.8 -25.15 51.7 -24.4 53.6 -23.1 56.15 -21.8 58.75 -21.65 58.95 -21.5 59.15 -21.15 58.8 -20.85 58.5 -20.55 58.5 -20.3 58.5 -18.5 60.3 -16.7 62.1 -15.6 62.8 -14.45 63.55 -13.2 64.05 -12.0 64.55 -11.5 64.65 -11.05 64.75 -11.05 64.6 -11.05 64.4 -11.85 63.45 -12.65 62.45 -13.4 61.45 -14.1 60.5 -15.4 58.5 -16.65 56.55 -17.7 54.45 -18.8 52.3 -19.35 50.95 -19.85 49.65 -20.4 47.95 -20.95 46.25 -21.35 44.7 -21.7 43.15 -21.45 42.7 -21.15 42.3 -20.85 42.3 -20.55 42.3 -20.25 42.55 -20.0 42.8 -19.9 43.25 -19.8 43.7 -19.4 45.3 -18.95 46.85 -18.25 48.85 -17.55 50.8 -16.3 53.3 -15.1 55.8 -13.25 58.55 -11.4 61.25 -10.3 62.6 -9.2 63.9 -8.05 65.2 -6.85 66.5 -6.75 66.4 -6.7 66.35 -7.25 63.8 -7.85 61.25 -8.45 57.75 -9.0 54.2 -9.5 50.2 -10.0 46.25 -10.35 42.1 -10.7 38.0 -10.9 35.1 -11.05 32.25 -11.2 27.6 -11.4 22.95 -11.4 15.7 -11.4 8.45 -11.2 5.55 -11.05 2.7 -10.7 -0.5 -10.35 -3.7 -10.2 -5.75 -10.0 -7.75 -9.85 -8.25 -9.65 -8.7 -9.35 -8.8 -9.05 -8.9 -8.8 -8.75 -8.5 -8.65 -8.35 -8.25 -8.2 -7.85 -8.35 -6.3 -8.5 -4.75 -8.75 -2.35 -9.0 0.0 -9.25 2.85 -9.5 5.75 -9.55 7.3 -9.55 8.85 -9.45 8.85 -9.35 8.85 -7.8 8.05 -6.25 7.25 -3.95 5.7 -1.65 4.2 0.55 2.5 2.75 0.8 4.5 -0.85 6.3 -2.45 7.65 -3.95 9.0 -5.45 10.05 -6.75 11.05 -8.05 12.2 -9.7 13.35 -11.3 14.55 -13.45 15.75 -15.55 16.3 -16.6 16.8 -17.65 17.05 -19.95 17.3 -22.3 17.65 -24.5 18.0 -26.7 18.5 -29.2 19.05 -31.75 19.55 -33.7 20.05 -35.65 20.9 -38.4 21.7 -41.15 22.55 -43.45 23.45 -45.75 23.65 -46.2 23.9 -46.65 24.15 -46.9 24.45 -47.2 24.75 -47.2 25.05 -47.2 25.35 -46.8 25.6 -46.4 24.7 -44.05 23.75 -41.7 23.0 -39.25 22.2 -36.85 21.55 -34.45 20.9 -32.05 20.3 -29.15 19.7 -26.3 19.25 -23.35 18.85 -20.45 18.65 -18.15 18.4 -15.9 18.4 -8.55 18.4 -1.2 18.65 1.15 18.85 3.55 19.25 6.85 19.65 10.15 20.2 12.9 20.7 15.7 20.8 15.9 20.85 16.15 21.25 15.85 21.7 15.6 22.05 15.7 22.4 15.8 23.65 18.3 24.85 20.75 26.4 23.05 27.9 25.3 28.75 26.35 29.65 27.45 29.8 27.45 29.95 27.45 29.95 25.5 29.95 23.55 30.4 23.1 30.8 22.7 31.0 22.7 31.25 22.7 31.5 22.85 31.75 23.0 32.6 24.65 33.45 26.3 33.6 26.35 33.8 26.4 34.6 24.75 35.35 23.1 35.8 21.95 36.25 20.75 37.1 18.3 37.9 15.85 38.6 13.15 39.3 10.45 39.7 8.1 40.1 5.75 40.35 2.8 40.65 -0.2 40.55 -5.3 40.5 -10.4 40.65 -10.55 40.85 -10.75 41.3 -10.75 41.8 -10.75 42.05 -10.2 42.3 -9.7 42.5 -7.4 42.7 -5.05 42.7 1.45 42.7 7.95 42.4 10.9 42.1 13.85 41.95 14.9 41.8 16.0 41.85 16.05 41.9 16.15 42.55 14.4 43.15 12.65 43.8 10.35 44.5 8.0 45.05 5.0 45.65 2.0 45.95 -0.05 46.2 -2.1 46.35 -5.1 46.5 -8.1 46.35 -11.25 46.2 -14.35 45.85 -17.1 45.5 -19.8 45.15 -21.65 44.8 -23.45 44.35 -25.5 43.85 -27.55 43.75 -28.2 43.65 -28.9 43.8 -29.35 44.0 -29.8 44.45 -29.8 44.95 -29.8 45.2 -29.5 45.45 -29.2 46.25 -26.45 47.05 -23.65 47.6 -21.1 48.2 -18.6 48.95 -14.85 49.7 -11.15 50.05 -8.95 50.4 -6.75 50.65 -4.55 50.9 -2.35 51.15 1.25 51.4 4.9 51.55 8.85 51.65 12.8 51.75 12.05 51.9 11.3 51.9 10.4 51.9 9.55 52.35 9.25 52.75 9.0 53.1 9.1 53.45 9.2 53.6 9.65 53.8 10.05 53.9 13.45 54.0 16.85 53.8 19.6 53.6 22.3 53.35 24.05 53.1 25.8 53.2 25.85 53.25 25.95 56.35 25.75 59.45 25.55 60.35 25.45 61.25 25.35 61.5 24.75 61.75 24.15 62.15 22.3 62.5 20.4 62.7 18.65 62.95 16.85 63.15 16.5 63.4 16.1 63.9 16.1 64.4 16.1 64.65 16.5 64.9 16.85 65.0 18.05 65.15 19.25 65.25 19.45 65.4 19.7 65.5 18.95 65.6 18.25 65.85 16.35 66.1 14.5 66.35 12.0 66.65 9.45 66.75 3.1 66.8 -3.2 66.65 -6.1 66.45 -8.95 66.2 -11.25 65.9 -13.5 65.4 -16.8 64.9 -20.1 64.5 -22.4 64.05 -24.65 62.9 -29.4 61.75 -34.1 60.9 -36.55 60.05 -39.0 59.7 -39.8 59.35 -40.65 59.35 -41.1 59.35 -41.6 59.7 -41.8 60.05 -42.0 60.4 -41.85 60.75 -41.75 61.2 -40.7 61.7 -39.6 62.5 -37.35 63.25 -35.1 64.0 -32.25 64.75 -29.4 65.35 -26.8 65.95 -24.2 66.6 -20.3 67.3 -16.4 67.7 -13.0 68.1 -9.65 68.3 -7.35 68.45 -5.05 68.55 -0.2 68.65 4.7 68.9 5.5 69.1 6.25 69.55 8.7 70.0 11.15 70.3 13.75 70.65 16.35 70.85 19.95 71.05 23.55 70.95 25.55 70.9 27.6 71.0 27.45 71.15 27.35 71.75 25.25 72.35 23.1 72.7 21.25 73.05 19.4 73.25 19.0 73.45 18.55 73.9 18.5 74.35 18.45 74.65 18.75 74.95 19.05 74.8 22.45 74.7 25.8 74.4 27.75 74.1 29.7 74.15 29.75 74.15 29.8 75.0 28.25 75.85 26.65 76.35 25.5 76.85 24.3 77.15 23.55 77.4 22.8 78.15 20.25 78.9 17.7 79.5 15.45 80.1 13.15 80.55 10.8 80.95 8.5 81.3 5.8 81.65 3.05 81.75 0.25 81.85 -2.55 81.65 -6.1 81.45 -9.65 81.1 -12.2 80.8 -14.8 80.2 -17.55 79.6 -20.25 78.9 -22.9 78.25 -25.5 77.65 -27.45 77.05 -29.4 76.2 -31.65 75.35 -33.95 74.5 -35.6 73.65 -37.25 73.75 -37.65 73.85 -38.05 74.2 -38.15 74.55 -38.25 75.0 -38.0 75.45 -37.7 76.45 -35.55 77.5 -33.35 78.1 -33.35 78.75 -33.35 79.65 -33.7 80.55 -34.0 80.85 -34.25 81.15 -34.45 80.1 -35.1 79.0 -35.75 77.7 -36.7 76.35 -37.7 75.35 -38.6 74.3 -39.55 73.75 -40.0 73.25 -40.45 72.65 -40.45 72.05 -40.45 70.05 -43.6 68.05 -46.75 66.7 -48.55 65.35 -50.3 64.2 -51.65 63.0 -53.0 61.45 -54.5 59.95 -56.0 58.5 -57.2 57.05 -58.45 56.05 -59.2 55.05 -60.0 53.45 -61.05 51.85 -62.1 49.4 -63.35 46.95 -64.55 44.65 -65.4 42.4 -66.25 40.85 -66.7 39.35 -67.1 37.4 -67.5 35.45 -67.95 32.65 -68.3 29.85 -68.65 25.85 -68.8 21.85 -68.95 20.7 -68.85 19.6 -68.75 19.3 -69.05 19.0 -69.35 19.0 -69.75 19.0 -70.15 19.65 -70.45 20.25 -70.7 24.4 -70.6 28.55 -70.5 30.3 -70.3 32.1 -70.15 33.95 -69.9 35.8 -69.65 37.9 -69.2 39.95 -68.8 41.9 -68.2 43.85 -67.6 45.75 -66.85 47.6 -66.15 49.3 -65.35 51.0 -64.55 52.6 -63.6 54.2 -62.7 55.85 -61.5 57.55 -60.3 59.05 -59.05 60.6 -57.75 62.45 -56.0 64.3 -54.2 65.65 -52.6 67.05 -51.0 67.95 -49.85 68.8 -48.7 69.8 -47.15 70.85 -45.65 72.3 -44.0 73.8 -42.4 74.7 -41.5 75.65 -40.65 76.25 -40.15 76.8 -39.6 77.9 -38.75 79.0 -37.85 80.25 -37.05 81.5 -36.2 82.4 -35.95 83.3 -35.7 83.6 -35.45 83.85 -35.2 83.85 -34.8 83.85 -34.35 83.25 -33.8 82.7 -33.25 81.5 -32.65 80.3 -32.0 79.35 -31.75 78.35 -31.55 78.35 -31.2 78.4 -30.9 79.15 -28.35 79.95 -25.85 80.7 -22.95 81.45 -20.1 82.05 -17.25 82.6 -14.35 82.9 -12.25 83.15 -10.15 83.3 -7.55 83.5 -4.95 83.5 -1.7 83.5 1.55 83.25 4.15 83.0 6.75 82.55 9.45 82.1 12.15 81.45 14.75 80.8 17.4 80.2 19.5 79.6 21.6 79.0 23.45 78.4 25.25 77.65 26.85 76.95 28.45 75.95 30.15 75.0 31.9 73.8 33.65 72.65 35.35 72.2 35.45 71.8 35.6 71.55 35.4 71.25 35.25 71.1 35.0 70.9 34.7 71.15 34.0 71.35 33.25 71.75 31.75 72.2 30.25 72.2 30.0 72.15 29.7 71.6 31.0 71.0 32.35 70.65 32.95 70.25 33.6 70.0 33.8 69.75 34.0 69.3 34.0 68.85 34.0 68.7 33.55 68.55 33.15 68.75 31.5 68.95 29.85 69.15 27.15 69.3 24.45 69.15 21.05 69.0 17.6 68.8 15.8 68.6 14.0 68.45 12.9 68.3 11.8 68.2 11.75 68.15 11.65 68.15 11.9 68.15 12.15 67.8 15.0 67.45 17.9 67.0 20.4 66.55 22.95 66.1 24.9 65.6 26.8 65.25 27.2 64.85 27.6 64.65 27.6 64.4 27.6 64.1 27.25 63.75 26.9 63.75 25.25 63.7 23.65 63.3 24.85 62.9 26.1 62.6 26.45 62.3 26.8 62.05 26.95 61.75 27.1 58.6 27.35 55.45 27.6 53.85 27.6 52.25 27.6 51.9 27.4 51.55 27.25 51.4 26.8 51.25 26.4 51.6 23.85 51.95 21.35 51.9 21.05 51.8 20.75 51.5 21.95 51.2 23.1 50.95 23.6 50.65 24.05 50.1 24.05 49.55 24.05 49.4 23.65 49.25 23.2 49.45 21.4 49.65 19.6 49.65 11.65 49.65 3.7 49.4 1.0 49.2 -1.7 48.85 -4.65 48.55 -7.6 48.4 -8.1 48.25 -8.6 48.2 -7.35 48.2 -6.1 48.05 -3.8 47.85 -1.55 47.6 0.5 47.35 2.5 46.95 4.7 46.5 6.9 45.9 9.3 45.3 11.65 44.55 13.9 43.8 16.2 43.05 17.95 42.25 19.75 41.5 21.25 40.7 22.75 40.25 23.0 39.75 23.2 39.4 23.1 39.1 23.0 39.0 22.6 38.9 22.2 38.95 21.75 39.05 21.25 39.55 18.55 40.05 15.85 40.2 15.0 40.3 14.15 40.2 14.3 40.1 14.4 39.5 16.4 38.95 18.45 38.05 20.85 37.2 23.3 36.3 25.15 35.4 27.05 34.85 27.85 34.35 28.65 33.95 28.8 33.55 29.0 33.1 28.7 32.7 28.45 32.2 27.65 31.75 26.85 31.65 28.15 31.55 29.45 31.25 29.8 30.95 30.15 30.5 30.15 30.05 30.15 29.25 29.45 28.45 28.75 27.45 27.55 26.5 26.35 25.25 24.55 24.05 22.75 23.4 21.6 22.7 20.4 22.8 22.25 22.9 24.05 23.0 24.55 23.1 25.0 22.8 25.3 22.5 25.55 22.15 25.55 21.75 25.55 21.5 25.25 21.2 24.95 20.45 22.45 19.7 19.9 18.75 14.85 17.85 9.8 17.4 6.05 17.0 2.35 16.8 -0.35 16.6 -3.05 16.6 -8.15 16.55 -13.25 16.55 -13.25 16.5 -13.25 15.35 -11.3 14.2 -9.35 12.8 -7.45 11.35 -5.6 10.15 -4.15 8.95 -2.75 7.6 -1.4 6.25 0.0 5.0 1.1 3.7 2.2 1.7 3.8 -0.3 5.35 -2.6 6.95 -4.95 8.5 -7.3 9.75 -9.6 10.95 -9.6 18.4 -9.55 25.8 -9.4 30.2 -9.2 34.6 -8.95 38.15 -8.7 41.7 -8.35 45.15 -8.0 48.6 -7.55 51.75 -7.15 54.85 -6.65 57.75 -6.15 60.65 -5.55 63.4 -4.95 66.1 -4.45 67.65 -3.95 69.15 -3.95 69.45 -3.95 69.8 -4.35 70.05 -4.7 70.3 -4.9 70.3 -5.1 70.3 -6.1 69.5 M-25.85 57.4 L-25.4 56.25 -25.4 55.9 -25.4 55.55 -25.8 54.65 -26.15 53.75 -26.3 53.75 -26.4 53.75 -26.4 56.25 -26.4 58.7 -26.35 58.65 -26.25 58.55 -25.85 57.4 -25.85 57.4" fill="#010101" fill-rule="evenodd" stroke="none"/>
  </g>
</svg>
