<?xml version="1.0" encoding="UTF-8" standalone="no"?>
<svg xmlns:xlink="http://www.w3.org/1999/xlink" height="143.3px" width="101.3px" xmlns="http://www.w3.org/2000/svg">
  <g transform="matrix(1.0, 0.0, 0.0, 1.0, 50.65, 71.65)">
    <path d="M-18.2 -70.05 Q-18.55 -70.05 -18.9 -69.95 -19.2 -69.85 -19.5 -69.7 -19.8 -69.55 -20.1 -69.35 -20.35 -69.15 -20.55 -68.9 -20.8 -68.65 -21.0 -68.35 -21.15 -68.05 -21.35 -67.75 -21.5 -67.45 -21.6 -67.1 -21.7 -66.8 -21.8 -66.5 -21.9 -66.35 -22.0 -66.2 -22.1 -66.1 -22.25 -65.95 -22.3 -65.9 -22.5 -65.7 -22.65 -65.55 -22.75 -65.45 -22.9 -65.35 -23.0 -65.2 -23.1 -65.05 -23.15 -64.9 -23.2 -64.75 -23.25 -64.6 -23.25 -64.4 -23.25 -64.2 -23.4 -63.3 -23.45 -62.45 -23.55 -61.55 -23.65 -60.7 -23.7 -59.8 -23.75 -58.95 -23.8 -58.05 -23.75 -57.2 -23.75 -56.3 -23.7 -55.45 -23.65 -54.55 -23.5 -53.7 -23.4 -52.8 -23.2 -52.0 -23.0 -51.1 -22.75 -50.25 -22.65 -49.8 -22.5 -49.25 -22.4 -48.8 -22.25 -48.25 -22.15 -47.95 -21.95 -47.3 -21.75 -46.6 -21.65 -46.3 -21.5 -45.75 -21.4 -45.3 -21.25 -44.8 -21.15 -44.3 -21.0 -43.8 -20.95 -43.3 -20.85 -42.8 -20.8 -42.3 -20.85 -42.0 -20.95 -41.65 -21.05 -41.4 -21.15 -41.05 -21.3 -40.8 -21.45 -40.45 -21.5 -40.35 -21.75 -39.85 -21.95 -39.5 -22.05 -39.3 -22.2 -38.95 -22.3 -38.7 -22.4 -38.35 -22.5 -38.05 -22.55 -37.75 -22.55 -37.45 -22.45 -37.0 -21.8 -35.6 -22.05 -35.65 -22.25 -35.6 -22.45 -35.55 -22.6 -35.45 -22.75 -35.35 -22.9 -35.15 -23.0 -35.0 -23.1 -34.8 -23.2 -34.6 -23.3 -34.4 -23.3 -34.4 -23.45 -33.95 -23.55 -33.7 -23.6 -33.55 -23.7 -33.3 -23.8 -33.15 -24.35 -32.05 -25.0 -31.0 -25.6 -29.95 -26.3 -28.95 -27.0 -27.95 -27.75 -26.95 -28.45 -26.05 -29.3 -25.05 -30.05 -24.15 -30.9 -23.2 -31.65 -22.35 -32.55 -21.35 -33.25 -20.65 -34.2 -19.6 -38.8 -14.75 -35.9 -17.8 -35.6 -18.1 -40.45 -13.2 -43.2 -10.45 -44.8 -8.4 -45.35 -7.6 -45.8 -6.75 -46.3 -5.95 -46.7 -5.05 -47.1 -4.2 -47.45 -3.3 -47.8 -2.4 -48.05 -1.5 -48.3 -0.55 -48.5 0.35 -48.7 1.3 -48.85 2.25 -48.95 3.2 -49.0 4.15 -49.05 5.15 -49.05 6.1 -49.05 6.6 -49.05 7.55 -49.1 8.55 -49.1 9.0 -49.1 9.85 -49.05 10.45 -49.05 11.25 -49.05 11.95 -49.0 12.7 -48.95 13.4 -48.85 14.15 -48.75 14.85 -48.65 15.55 -48.45 16.25 -48.3 17.0 -48.05 17.65 -47.9 18.15 -47.75 18.6 -47.6 19.05 -47.4 19.55 -47.2 20.0 -47.0 20.45 -46.75 20.9 -46.5 21.3 -46.25 21.75 -45.95 22.15 -45.65 22.55 -45.35 22.9 -45.0 23.25 -44.65 23.6 -44.3 23.95 -43.9 24.25 -43.55 24.4 -43.15 24.5 -42.75 24.6 -42.35 24.7 -42.0 24.75 -41.55 24.75 -41.2 24.8 -40.75 24.8 -40.45 24.8 -39.95 24.8 -39.25 24.8 -39.15 24.8 -38.7 24.8 -38.35 24.8 -37.9 24.85 -37.55 24.9 -37.3 24.95 -37.1 24.95 -36.85 24.95 -36.65 24.95 -36.4 24.95 -36.2 24.9 -35.95 24.85 -35.75 24.8 -35.55 24.75 -35.3 24.65 -35.1 24.6 -34.9 24.5 -34.7 24.4 -34.45 24.3 -34.3 24.25 -34.05 24.15 -33.2 23.8 -31.5 23.05 -31.6 23.25 -31.65 23.4 -31.65 23.55 -31.6 23.7 -31.6 23.85 -31.5 24.0 -31.4 24.1 -31.25 24.2 -31.15 24.3 -30.95 24.35 -30.8 24.4 -30.65 24.45 -30.45 24.45 -30.3 24.45 -30.15 24.4 -30.0 24.35 -28.75 24.3 -27.9 24.2 -26.75 24.15 -25.8 24.05 -24.65 24.0 -23.7 23.9 -22.6 23.8 -21.6 23.7 -20.5 23.55 -19.5 23.45 -18.4 23.3 -17.4 23.1 -16.35 22.95 -15.35 22.75 -14.3 22.5 -13.3 22.25 -11.3 21.85 -5.75 20.4 -1.1 19.2 1.75 18.75 2.2 18.75 2.6 18.75 3.05 18.7 3.4 18.7 3.85 18.65 4.25 18.6 4.65 18.55 5.05 18.5 5.5 18.45 5.85 18.35 6.3 18.25 6.65 18.15 7.05 18.0 7.45 17.85 7.85 17.7 8.2 17.5 8.65 17.3 9.1 17.05 9.55 16.8 9.95 16.55 10.4 16.25 10.8 15.95 11.2 15.65 11.55 15.3 11.95 14.95 12.25 14.6 12.6 14.2 12.9 13.8 13.2 13.4 13.4 12.95 13.65 12.5 13.8 12.05 14.0 9.9 13.8 6.55 13.6 1.85 13.6 1.1 13.6 0.2 13.6 -0.6 13.55 -1.5 13.55 -2.35 13.5 -3.2 13.5 -4.05 13.45 -4.95 13.35 -5.75 13.3 -6.65 13.25 -7.45 13.15 -8.35 13.05 -9.2 12.95 -10.05 12.8 -10.9 12.7 -11.75 12.55 -12.6 12.35 -13.7 12.05 -15.05 11.9 -15.95 11.55 -17.55 11.2 -19.25 11.05 -20.0 10.8 -21.4 10.55 -22.5 10.3 -23.85 10.15 -25.0 9.95 -26.3 9.8 -27.5 9.6 -28.8 9.55 -30.0 9.45 -31.3 9.4 -32.5 9.4 -33.05 9.4 -33.55 9.35 -34.05 9.35 -34.55 9.4 -35.1 9.4 -35.55 9.4 -36.1 9.45 -36.6 9.45 -37.1 9.5 -37.6 9.55 -38.1 9.6 -38.6 9.7 -39.15 9.75 -39.6 9.85 -40.15 9.95 -40.6 9.95 -40.75 9.95 -40.85 9.9 -40.95 9.85 -41.1 9.8 -41.2 9.75 -41.3 9.7 -41.35 9.6 -41.45 9.5 -41.55 9.4 -41.6 9.3 -41.65 9.2 -41.75 9.1 -41.8 9.0 -41.85 7.25 -42.9 8.8 -42.0 9.05 -42.05 9.2 -42.15 9.35 -42.25 9.45 -42.4 9.5 -42.55 9.55 -42.7 9.6 -42.9 9.55 -43.1 9.55 -43.25 9.5 -43.45 9.45 -43.65 9.4 -43.85 9.35 -44.0 9.25 -44.25 9.25 -44.3 9.15 -44.55 8.55 -46.1 8.45 -46.35 8.05 -47.4 7.7 -48.15 7.3 -49.1 6.95 -49.95 6.5 -50.9 6.1 -51.7 5.65 -52.6 5.15 -53.4 4.65 -54.25 4.15 -55.05 3.6 -55.85 3.0 -56.6 2.35 -57.35 1.7 -58.05 0.8 -58.9 -0.2 -59.7 -1.15 -60.45 -2.2 -61.15 -3.2 -61.8 -4.3 -62.5 -5.25 -63.1 -6.45 -63.75 -7.3 -64.2 -8.65 -64.95 -10.3 -65.85 -10.85 -66.15 -12.1 -66.85 -13.05 -67.4 -14.2 -68.05 -15.15 -68.7 -15.3 -68.8 -15.5 -68.9 -15.65 -68.95 -15.9 -69.1 -16.4 -69.4 -16.25 -69.3 -16.45 -69.45 -16.6 -69.55 -16.8 -69.65 -17.0 -69.75 -17.2 -69.8 -17.4 -69.9 -17.6 -69.95 -17.8 -70.0 -18.0 -70.05 -18.2 -70.05 L-18.2 -70.05" fill="#d40000" fill-rule="evenodd" stroke="none"/>
    <path d="M16.3 -63.05 Q16.1 -63.0 15.95 -62.85 15.8 -62.75 15.65 -62.6 15.55 -62.45 15.4 -62.25 15.3 -62.1 15.2 -61.9 14.95 -61.55 14.95 -61.55 14.85 -61.35 14.7 -61.2 14.6 -61.0 14.45 -60.9 14.3 -60.7 14.1 -60.6 13.65 -60.15 13.15 -59.75 12.7 -59.35 12.15 -59.0 11.65 -58.65 11.1 -58.25 10.65 -57.95 10.05 -57.6 10.05 -57.6 8.95 -56.9 8.3 -56.5 7.85 -56.25 7.3 -55.85 6.8 -55.55 6.25 -55.15 5.8 -54.75 5.6 -54.6 5.5 -54.35 5.4 -54.2 5.35 -53.95 5.35 -53.8 5.4 -53.55 5.45 -53.35 5.55 -53.1 5.65 -52.95 5.8 -52.7 5.8 -52.65 6.05 -52.25 6.2 -52.0 6.25 -51.8 6.4 -51.6 6.45 -51.4 6.75 -50.75 7.05 -50.15 7.35 -49.5 7.6 -48.9 7.9 -48.25 8.2 -47.65 8.45 -47.0 8.7 -46.4 8.95 -45.75 9.2 -45.1 9.45 -44.45 9.65 -43.85 9.85 -43.15 10.05 -42.5 10.25 -41.85 10.4 -41.2 10.2 -40.5 10.1 -39.7 9.95 -39.0 9.9 -38.2 9.8 -37.5 9.75 -36.7 9.7 -36.0 9.7 -35.2 9.7 -34.5 9.7 -33.7 9.7 -33.0 9.75 -32.15 9.8 -31.5 9.85 -30.65 9.8 -30.75 9.9 -29.15 10.25 -25.2 11.9 -17.15 13.5 -9.3 13.75 -5.15 13.8 -4.65 13.95 -4.2 14.1 -3.75 14.35 -3.3 14.55 -2.9 14.8 -2.5 15.05 -2.1 15.35 -1.7 15.55 -1.35 15.95 -0.9 16.55 -0.1 16.5 -0.15 16.85 0.3 17.1 0.65 17.4 1.05 17.6 1.45 18.1 2.15 18.6 3.0 19.1 3.7 19.55 4.55 19.95 5.3 20.35 6.15 20.75 6.9 21.15 7.8 21.45 8.5 21.9 9.45 23.1 12.05 22.65 11.15 23.1 12.1 23.45 12.8 23.85 13.7 24.25 14.45 24.55 15.0 24.95 15.55 25.3 16.0 25.8 16.45 26.25 16.85 26.75 17.25 27.25 17.6 27.8 17.9 28.35 18.2 28.95 18.5 29.5 18.75 30.15 19.0 30.7 19.2 31.35 19.4 31.9 19.6 32.55 19.75 33.2 19.9 33.9 20.05 34.55 20.15 35.25 20.25 35.9 20.3 36.65 20.3 37.25 20.35 38.0 20.35 38.6 20.35 39.4 20.3 39.6 20.3 40.75 20.3 41.6 20.25 42.15 20.25 42.9 20.25 43.5 20.25 43.8 20.2 44.1 20.2 44.4 20.2 44.75 20.2 44.85 20.2 45.4 20.2 45.75 20.2 46.0 20.2 46.35 20.2 46.65 20.2 46.95 20.15 47.25 20.1 47.55 20.1 47.85 20.0 48.15 19.95 48.45 19.8 48.7 19.65 48.85 19.45 49.0 19.25 49.1 19.0 49.15 18.8 49.2 18.55 49.2 18.3 49.15 18.05 49.15 17.8 49.1 17.5 49.05 17.25 48.95 16.95 49.0 17.05 48.8 16.45 48.75 16.15 48.7 16.0 48.5 15.35 48.3 14.65 48.05 14.0 47.8 13.3 47.6 12.7 47.3 12.0 47.05 11.35 46.75 10.7 46.5 10.1 46.2 9.45 45.9 8.8 45.6 8.15 45.3 7.55 44.95 6.9 44.65 6.3 44.3 5.7 44.25 5.6 44.2 5.55 44.15 5.45 44.05 5.4 44.0 5.3 43.9 5.25 43.85 5.2 43.75 5.15 43.65 5.1 43.55 5.1 43.5 5.05 43.4 5.0 43.3 5.0 43.2 4.95 43.1 4.95 43.05 4.95 43.0 4.55 43.0 4.1 42.95 3.75 42.95 3.3 42.95 3.15 43.0 2.45 43.0 1.9 43.0 1.6 43.0 1.15 42.95 0.8 42.9 0.35 42.85 -0.05 42.8 -0.45 42.65 -0.85 42.5 -1.25 42.3 -1.6 42.0 -2.4 41.7 -3.35 41.5 -3.9 41.05 -5.15 40.65 -6.3 40.45 -6.9 40.1 -7.9 39.85 -8.7 39.5 -9.65 39.15 -10.45 38.8 -11.35 38.45 -12.2 38.05 -13.05 37.65 -13.9 37.25 -14.75 36.8 -15.55 36.35 -16.5 35.75 -17.65 35.3 -18.5 34.65 -19.7 37.6 -14.25 33.5 -21.75 32.85 -23.0 32.4 -23.85 31.8 -24.95 31.3 -25.95 30.8 -27.05 30.35 -28.05 29.85 -29.2 29.5 -30.25 29.05 -31.4 28.75 -32.5 28.55 -33.15 27.85 -35.85 27.3 -37.9 26.75 -39.15 26.95 -39.35 27.05 -39.55 27.2 -39.75 27.3 -40.0 27.4 -40.2 27.45 -40.45 27.55 -40.7 27.55 -40.95 27.55 -41.2 27.55 -41.45 27.5 -41.7 27.45 -41.95 27.35 -42.2 27.25 -42.4 27.15 -42.65 27.0 -42.85 26.55 -43.5 26.1 -44.25 25.75 -44.95 25.4 -45.7 25.1 -46.45 24.85 -47.25 24.6 -47.95 24.35 -48.8 24.2 -49.5 23.95 -50.4 24.0 -50.3 23.55 -52.0 23.35 -52.95 23.15 -53.6 22.95 -54.45 22.7 -55.15 22.5 -55.65 22.2 -56.15 21.95 -56.6 21.65 -57.1 21.35 -57.55 21.05 -58.0 20.75 -58.45 20.4 -58.9 20.1 -59.3 19.7 -59.75 19.45 -60.1 19.0 -60.65 18.3 -61.55 18.3 -61.5 17.9 -62.0 17.65 -62.35 17.55 -62.45 17.5 -62.5 17.45 -62.6 17.35 -62.65 17.3 -62.7 17.2 -62.8 17.15 -62.85 17.05 -62.9 17.0 -62.95 16.9 -63.0 16.8 -63.05 16.7 -63.05 16.6 -63.1 16.55 -63.1 16.45 -63.1 16.3 -63.05 L16.3 -63.05" fill="#d40000" fill-rule="evenodd" stroke="none"/>
  </g>
</svg>
