<?xml version="1.0" encoding="UTF-8" standalone="no"?>
<svg xmlns:xlink="http://www.w3.org/1999/xlink" height="135.65px" width="138.2px" xmlns="http://www.w3.org/2000/svg">
  <g transform="matrix(1.0, 0.0, 0.0, 1.0, 69.1, 67.85)">
    <path d="M-62.5 -35.45 Q-63.35 -28.6 -63.9 -22.2 -64.45 -15.85 -64.7 -9.95 -64.95 -4.05 -64.9 1.45 -64.85 6.9 -64.55 12.05 -64.25 17.1 -63.65 21.85 -63.05 26.55 -62.2 31.0 -61.3 35.4 -60.2 39.55 -59.05 43.6 -57.65 47.5" fill="none" stroke="#000000" stroke-linecap="round" stroke-linejoin="bevel" stroke-width="3.4000000000000004"/>
    <path d="M60.35 -33.05 Q62.05 -27.35 63.2 -21.25 64.3 -15.55 64.95 -9.45 65.6 -3.9 65.85 2.0 66.1 7.3 66.05 13.0 66.0 17.95 65.8 23.35 65.6 27.6 65.25 32.85 65.25 32.6 64.65 41.3 64.35 45.85 64.25 48.45" fill="none" stroke="#000000" stroke-linecap="round" stroke-linejoin="bevel" stroke-width="3.4000000000000004"/>
    <path d="M-57.25 47.5 Q-50.1 48.6 -42.65 49.45 -35.5 50.2 -27.95 50.7 -20.7 51.15 -13.05 51.35 -5.75 51.55 2.0 51.55 9.35 51.5 17.25 51.25 24.6 51.05 32.65 50.65 40.0 50.3 48.25 49.75 55.45 49.25 64.1 48.65" fill="none" stroke="#000000" stroke-linecap="round" stroke-linejoin="bevel" stroke-width="3.4000000000000004"/>
    <path d="M-62.25 -35.55 Q-57.45 -35.7 -47.9 -36.0 -38.15 -36.3 -33.25 -36.4 -25.0 -36.65 -18.35 -36.75 -10.3 -36.9 -3.15 -36.9 4.85 -36.9 12.25 -36.75 20.35 -36.55 27.95 -36.15 36.1 -35.7 43.85 -35.05 52.1 -34.3 60.05 -33.3" fill="none" stroke="#000000" stroke-linecap="round" stroke-linejoin="bevel" stroke-width="3.4000000000000004"/>
    <path d="M-62.9 -20.25 Q-63.0 -20.05 -63.05 -19.85 -63.1 -19.65 -63.15 -19.4 -63.2 -19.2 -63.2 -18.95 -63.2 -18.75 -63.2 -18.5 -63.2 -18.35 -63.25 -18.05 -63.25 -17.75 -63.25 -17.6 -63.25 -17.35 -63.25 -17.1 -63.3 -16.9 -63.3 -16.7 -63.45 -14.8 -63.55 -12.95 -63.65 -11.05 -63.7 -9.2 -63.8 -7.3 -63.85 -5.45 -63.9 -3.6 -63.9 -1.75 -63.9 0.15 -63.9 2.0 -63.9 3.9 -63.85 5.75 -63.8 7.65 -63.7 9.5 -63.6 11.4 -63.5 13.25 -63.35 15.4 -63.15 17.4 -62.95 19.55 -62.7 21.55 -62.4 23.7 -62.1 25.7 -61.8 27.85 -61.4 29.85 -61.0 31.95 -60.55 33.95 -60.1 36.05 -59.55 38.0 -59.05 40.05 -58.45 42.05 -57.8 44.05 -57.1 46.05 -56.95 46.2 -56.8 46.35 -56.65 46.45 -56.45 46.55 -56.3 46.6 -56.05 46.7 -55.9 46.75 -55.65 46.75 -55.5 46.8 -55.2 46.8 -54.6 46.9 -54.8 46.85 -54.55 46.9 -54.35 46.95 -54.15 46.95 -53.95 47.0 -50.5 47.5 -46.95 47.95 -43.45 48.35 -39.9 48.7 -36.45 49.05 -32.9 49.35 -29.4 49.6 -25.85 49.8 -22.35 50.05 -18.8 50.2 -15.3 50.35 -11.7 50.45 -8.25 50.5 -4.65 50.55 -1.15 50.6 2.4 50.6 2.6 50.6 2.75 50.5 2.9 50.45 3.0 50.35 3.05 50.25 3.1 50.1 3.15 49.95 3.15 49.8 3.15 49.65 3.15 49.5 3.1 49.35 3.0 49.25 2.9 49.1 2.75 49.05 2.6 48.95 2.45 48.95 -14.35 45.9 -23.3 43.7 -25.0 43.25 -26.6 42.75 -28.3 42.25 -29.85 41.7 -31.55 41.15 -33.1 40.55 -34.75 39.9 -36.25 39.2 -37.9 38.5 -39.35 37.7 -40.9 36.9 -42.35 36.05 -43.8 35.15 -45.15 34.15 -46.6 33.1 -47.85 32.0 -48.65 31.3 -49.45 30.55 -50.2 29.75 -50.9 28.95 -51.6 28.15 -52.25 27.25 -52.9 26.4 -53.45 25.5 -54.05 24.55 -54.55 23.6 -55.05 22.65 -55.45 21.65 -55.85 20.65 -56.2 19.65 -56.55 18.6 -56.8 17.55 -57.3 15.7 -58.05 12.05 -58.8 8.35 -59.25 6.6 -59.3 6.45 -59.3 6.3 -59.3 6.15 -59.25 6.0 -59.25 5.85 -59.15 5.75 -59.1 5.6 -59.0 5.5 -58.9 5.4 -58.8 5.3 -58.7 5.2 -58.55 5.15 -58.45 5.1 -58.3 5.1 -58.15 5.05 -58.0 5.1 -57.8 5.05 -57.55 5.05 -57.35 5.05 -57.1 5.05 -56.95 5.05 -56.7 5.05 -56.25 5.05 -56.25 5.05 -56.0 5.05 -55.8 5.05 -55.55 5.05 -55.35 5.05 -55.15 5.0 -54.95 5.0 -54.75 4.95 -54.55 4.85 -54.4 4.65 -54.35 4.4 -54.3 4.2 -54.3 4.0 -54.3 3.75 -54.3 3.5 -54.35 3.3 -54.4 3.05 -54.5 2.85 -54.6 2.6 -54.65 2.4 -54.75 2.15 -54.75 2.15 -54.95 1.7 -55.05 1.45 -55.15 1.3 -55.55 0.6 -55.85 0.0 -56.2 -0.65 -56.5 -1.25 -56.85 -1.95 -57.15 -2.6 -57.45 -3.25 -57.75 -3.9 -58.05 -4.55 -58.3 -5.2 -58.55 -5.9 -58.8 -6.55 -59.05 -7.25 -59.25 -7.95 -59.45 -8.65 -59.6 -9.35 -60.2 -11.5 -60.7 -14.65 -62.05 -22.75 -61.55 -20.0 -61.6 -20.1 -61.65 -20.2 -61.7 -20.25 -61.8 -20.35 -61.85 -20.4 -61.95 -20.45 -62.05 -20.45 -62.15 -20.5 -62.25 -20.5 -62.35 -20.5 -62.45 -20.5 -62.55 -20.45 -62.65 -20.45 -62.75 -20.4 -62.85 -20.35 -62.9 -20.25 L-62.9 -20.25" fill="#000000" fill-opacity="0.0" fill-rule="evenodd" stroke="none"/>
    <path d="M-62.9 -20.25 Q-63.0 -20.05 -63.05 -19.85 -63.1 -19.65 -63.15 -19.4 -63.2 -19.2 -63.2 -18.95 -63.2 -18.75 -63.2 -18.5 -63.2 -18.35 -63.25 -18.05 -63.25 -17.75 -63.25 -17.6 -63.25 -17.35 -63.25 -17.1 -63.3 -16.9 -63.3 -16.7 -63.45 -14.8 -63.55 -12.95 -63.65 -11.05 -63.7 -9.2 -63.8 -7.3 -63.85 -5.45 -63.9 -3.6 -63.9 -1.75 -63.9 0.15 -63.9 2.0 -63.9 3.9 -63.85 5.75 -63.8 7.65 -63.7 9.5 -63.6 11.4 -63.5 13.25 -63.35 15.4 -63.15 17.4 -62.95 19.55 -62.7 21.55 -62.4 23.7 -62.1 25.7 -61.8 27.85 -61.4 29.85 -61.0 31.95 -60.55 33.95 -60.1 36.05 -59.55 38.0 -59.05 40.05 -58.45 42.05 -57.8 44.05 -57.1 46.05 -56.95 46.2 -56.8 46.35 -56.65 46.45 -56.45 46.55 -56.3 46.6 -56.05 46.7 -55.9 46.75 -55.65 46.75 -55.5 46.8 -55.2 46.8 -54.6 46.9 -54.8 46.85 -54.55 46.9 -54.35 46.95 -54.15 46.95 -53.95 47.0 -50.5 47.5 -46.95 47.95 -43.45 48.35 -39.9 48.7 -36.45 49.05 -32.9 49.35 -29.4 49.6 -25.85 49.8 -22.35 50.05 -18.8 50.2 -15.3 50.35 -11.7 50.45 -8.25 50.5 -4.65 50.55 -1.15 50.6 2.4 50.6 2.6 50.6 2.75 50.5 2.9 50.45 3.0 50.35 3.05 50.25 3.1 50.1 3.15 49.95 3.15 49.8 3.15 49.65 3.15 49.5 3.1 49.35 3.0 49.25 2.9 49.1 2.75 49.05 2.6 48.95 2.45 48.95 -14.35 45.9 -23.3 43.7 -25.0 43.25 -26.6 42.75 -28.3 42.25 -29.85 41.7 -31.55 41.15 -33.1 40.55 -34.75 39.9 -36.25 39.2 -37.9 38.5 -39.35 37.7 -40.9 36.9 -42.35 36.05 -43.8 35.15 -45.15 34.15 -46.6 33.1 -47.85 32.0 -48.65 31.3 -49.45 30.55 -50.2 29.75 -50.9 28.95 -51.6 28.15 -52.25 27.25 -52.9 26.4 -53.45 25.5 -54.05 24.55 -54.55 23.6 -55.05 22.65 -55.45 21.65 -55.85 20.65 -56.2 19.65 -56.55 18.6 -56.8 17.55 -57.3 15.7 -58.05 12.05 -58.8 8.35 -59.25 6.6 -59.3 6.45 -59.3 6.3 -59.3 6.15 -59.25 6.0 -59.25 5.85 -59.15 5.75 -59.1 5.6 -59.0 5.5 -58.9 5.4 -58.8 5.3 -58.7 5.2 -58.55 5.15 -58.45 5.1 -58.3 5.1 -58.15 5.05 -58.0 5.1 -57.8 5.05 -57.55 5.05 -57.35 5.05 -57.1 5.05 -56.95 5.05 -56.7 5.05 -56.25 5.05 -56.25 5.05 -56.0 5.05 -55.8 5.05 -55.55 5.05 -55.35 5.05 -55.15 5.0 -54.95 5.0 -54.75 4.95 -54.55 4.85 -54.4 4.65 -54.35 4.4 -54.3 4.2 -54.3 4.0 -54.3 3.75 -54.3 3.5 -54.35 3.3 -54.4 3.05 -54.5 2.85 -54.6 2.6 -54.65 2.4 -54.75 2.15 -54.75 2.15 -54.95 1.7 -55.05 1.45 -55.15 1.3 -55.55 0.6 -55.85 0.0 -56.2 -0.65 -56.5 -1.25 -56.85 -1.95 -57.15 -2.6 -57.45 -3.25 -57.75 -3.9 -58.05 -4.55 -58.3 -5.2 -58.55 -5.9 -58.8 -6.55 -59.05 -7.25 -59.25 -7.95 -59.45 -8.65 -59.6 -9.35 -60.2 -11.5 -60.7 -14.65 -62.05 -22.75 -61.55 -20.0 -61.6 -20.1 -61.65 -20.2 -61.7 -20.25 -61.8 -20.35 -61.85 -20.4 -61.95 -20.45 -62.05 -20.45 -62.15 -20.5 -62.25 -20.5 -62.35 -20.5 -62.45 -20.5 -62.55 -20.45 -62.65 -20.45 -62.75 -20.4 -62.85 -20.35 -62.9 -20.25 L-62.9 -20.25 Z" fill="none" stroke="#ff0000" stroke-linecap="round" stroke-linejoin="bevel" stroke-opacity="0.0" stroke-width="0.55"/>
    <path d="M-62.9 -29.65 Q-63.0 -29.45 -63.05 -29.2 -63.1 -28.95 -63.15 -28.7 -63.2 -28.45 -63.2 -28.15 -63.2 -27.95 -63.2 -27.65 -63.2 -27.5 -63.25 -27.15 -63.25 -26.8 -63.25 -26.6 -63.25 -26.3 -63.25 -26.1 -63.3 -25.8 -63.3 -25.6 -63.45 -23.45 -63.55 -21.35 -63.65 -19.2 -63.7 -17.15 -63.8 -15.0 -63.85 -12.9 -63.9 -10.75 -63.9 -8.65 -63.9 -6.5 -63.9 -4.4 -63.9 -2.25 -63.85 -0.2 -63.8 1.95 -63.7 4.05 -63.6 6.2 -63.5 8.3 -63.35 10.7 -63.15 13.0 -62.95 15.4 -62.7 17.75 -62.4 20.1 -62.1 22.45 -61.8 24.8 -61.4 27.1 -61.0 29.45 -60.55 31.75 -60.1 34.1 -59.55 36.35 -59.05 38.7 -58.45 40.9 -57.8 43.2 -57.1 45.4 -56.95 45.6 -56.8 45.75 -56.65 45.9 -56.45 46.0 -56.3 46.1 -56.05 46.15 -55.9 46.2 -55.65 46.25 -55.5 46.3 -55.2 46.3 -54.0 46.5 -54.8 46.4 -54.55 46.4 -54.35 46.45 -54.15 46.5 -53.95 46.55 -40.3 48.75 -17.95 50.35 3.65 51.9 18.2 51.85 18.9 51.85 11.05 50.3 3.25 48.8 2.45 48.75 -14.6 45.25 -23.3 42.75 -25.0 42.25 -26.6 41.7 -28.3 41.15 -29.85 40.55 -31.55 39.9 -33.1 39.2 -34.75 38.5 -36.25 37.7 -37.9 36.9 -39.35 36.0 -40.9 35.1 -42.35 34.1 -43.8 33.1 -45.15 31.95 -46.6 30.8 -47.85 29.55 -48.65 28.75 -49.45 27.9 -50.2 27.0 -50.9 26.1 -51.6 25.15 -52.25 24.2 -52.9 23.2 -53.45 22.15 -54.05 21.1 -54.55 20.05 -55.05 18.95 -55.45 17.8 -55.85 16.7 -56.2 15.55 -56.55 14.35 -56.8 13.2 -57.3 11.1 -58.05 6.95 -58.8 2.75 -59.25 0.8 -59.3 0.65 -59.3 0.45 -59.3 0.3 -59.25 0.1 -59.25 -0.05 -59.15 -0.2 -59.1 -0.35 -59.0 -0.45 -58.9 -0.6 -58.8 -0.7 -58.7 -0.8 -58.55 -0.85 -58.45 -0.9 -58.3 -0.95 -58.15 -0.95 -58.0 -0.95 -57.8 -1.0 -57.6 -1.05 -57.4 -1.1 -57.2 -1.15 -57.0 -1.2 -56.85 -1.3 -56.65 -1.35 -56.5 -1.45 -56.35 -1.5 -56.15 -1.65 -55.85 -1.8 -55.8 -1.8 -55.55 -1.9 -55.4 -2.0 -55.2 -2.1 -55.0 -2.15 -54.9 -2.4 -54.8 -2.6 -54.7 -2.8 -54.7 -3.0 -54.65 -3.2 -54.65 -3.35 -54.65 -3.55 -54.65 -3.7 -54.7 -3.85 -54.75 -4.05 -54.75 -4.2 -54.85 -4.4 -54.9 -4.55 -55.0 -4.8 -55.1 -5.1 -55.15 -5.25 -55.55 -6.05 -55.85 -6.7 -56.2 -7.45 -56.5 -8.15 -56.85 -8.9 -57.15 -9.6 -57.45 -10.4 -57.75 -11.1 -58.05 -11.9 -58.3 -12.6 -58.55 -13.4 -58.8 -14.15 -59.05 -14.95 -59.25 -15.7 -59.45 -16.5 -59.6 -17.25 -60.2 -19.7 -60.7 -23.3 -62.0 -32.25 -61.55 -29.35 -61.6 -29.45 -61.65 -29.55 -61.7 -29.65 -61.8 -29.7 -61.85 -29.8 -61.95 -29.85 -62.05 -29.9 -62.15 -29.9 -62.25 -29.9 -62.35 -29.9 -62.45 -29.9 -62.55 -29.9 -62.65 -29.85 -62.75 -29.8 -62.85 -29.75 -62.9 -29.65 L-62.9 -29.65" fill="#000000" fill-opacity="0.22745098" fill-rule="evenodd" stroke="none"/>
  </g>
</svg>
