<?xml version="1.0" encoding="UTF-8" standalone="no"?>
<svg xmlns:xlink="http://www.w3.org/1999/xlink" height="193.8px" width="224.85px" xmlns="http://www.w3.org/2000/svg">
  <g transform="matrix(1.0, 0.0, 0.0, 1.0, 112.4, 96.9)">
    <path d="M-19.7 86.45 L-21.8 86.35 -31.15 86.05 -40.45 85.75 -50.3 85.4 -60.15 85.0 -64.15 84.85 -68.2 84.65 -68.55 84.3 -68.95 83.9 -68.95 83.4 -68.95 82.95 -71.75 82.8 -74.55 82.7 -74.65 82.4 -74.75 82.1 -76.4 82.05 -78.0 82.05 -82.0 81.7 -86.05 81.35 -86.45 80.95 -86.85 80.55 -87.1 61.1 -87.4 41.65 -87.05 20.15 -86.75 -1.3 -86.6 -1.65 -86.5 -1.95 -86.05 -2.1 -85.65 -2.3 -81.55 -2.65 -77.5 -3.0 -72.95 -3.2 -68.4 -3.4 -68.4 -4.1 -68.4 -4.85 -68.1 -5.1 -67.75 -5.35 -55.05 -5.65 -42.3 -5.95 -27.35 -6.25 -12.35 -6.5 -11.2 -6.6 -10.05 -6.65 -13.3 -8.8 -16.55 -10.95 -20.35 -13.35 -24.1 -15.8 -25.15 -16.35 -26.2 -16.9 -28.1 -17.25 -29.95 -17.6 -33.0 -19.0 -36.0 -20.35 -38.45 -21.3 -40.9 -22.3 -42.2 -23.35 -43.45 -24.4 -43.4 -24.95 -43.35 -25.45 -42.8 -25.55 -42.3 -25.6 -41.2 -24.7 -40.15 -23.75 -38.05 -23.0 -36.0 -22.2 -32.8 -20.7 -29.6 -19.2 -27.9 -18.95 -26.2 -18.7 -24.8 -18.15 -23.4 -17.6 -18.4 -14.25 -13.4 -10.85 -10.3 -8.65 -7.2 -6.5 -6.3 -7.2 -5.4 -7.9 -5.4 -8.1 -5.4 -8.3 -2.4 -11.45 0.55 -14.6 1.15 -15.1 1.7 -15.65 5.0 -18.9 8.3 -22.15 9.95 -22.15 11.6 -22.15 14.35 -22.8 17.05 -23.45 18.25 -23.95 19.45 -24.5 21.9 -26.5 24.35 -28.5 25.2 -28.9 26.1 -29.35 26.55 -29.25 27.0 -29.15 27.1 -28.6 27.15 -28.0 26.05 -27.5 24.9 -27.0 22.65 -25.05 20.45 -23.15 19.0 -22.5 17.55 -21.85 14.6 -21.2 11.6 -20.55 10.35 -20.55 9.1 -20.55 4.25 -15.8 -0.55 -11.0 -2.05 -9.55 -3.55 -8.1 -4.1 -7.3 -4.65 -6.5 2.25 -6.5 9.15 -6.5 19.8 -6.25 30.4 -6.0 39.75 -5.7 49.05 -5.4 51.95 -5.35 54.9 -5.3 55.3 -5.0 55.65 -4.65 55.85 18.9 56.0 42.45 55.75 55.15 55.5 67.9 55.2 76.25 54.95 84.6 54.55 85.0 54.2 85.35 50.95 85.45 47.75 85.5 36.6 85.95 25.45 86.35 3.9 86.45 -17.6 86.5 -19.7 86.45 M1.0 84.75 L1.7 84.45 2.35 83.75 3.0 83.05 3.0 82.85 3.0 82.6 -0.35 82.6 -3.65 82.6 -3.25 83.2 -2.85 83.8 -2.0 84.4 -1.15 85.0 -0.4 85.0 0.3 85.0 1.0 84.75 M16.1 82.55 L16.65 80.35 17.05 79.1 17.4 77.85 17.35 77.85 17.3 77.85 16.45 77.6 15.65 77.35 14.8 80.7 14.0 84.05 14.45 84.4 14.9 84.75 15.2 84.75 15.55 84.75 16.1 82.55 M-15.8 84.15 L-16.0 83.8 -17.6 81.9 -19.15 79.95 -19.35 79.95 -19.55 79.95 -19.65 80.55 -19.75 81.15 -19.55 82.0 -19.35 82.8 -18.4 83.65 -17.45 84.45 -16.55 84.45 -15.6 84.45 -15.8 84.15 M17.8 83.65 L18.7 82.85 18.95 81.9 19.2 81.0 19.0 80.25 18.8 79.45 18.35 78.85 17.95 78.25 17.95 78.5 17.95 78.75 17.15 81.6 16.4 84.45 16.65 84.45 16.9 84.45 17.8 83.65 17.8 83.65 M-13.7 83.4 L-13.55 83.15 -15.55 80.65 -17.55 78.1 -17.9 78.1 -18.2 78.1 -18.55 78.5 -18.85 78.85 -18.65 79.25 -18.4 79.6 -16.6 81.9 -14.75 84.15 -14.3 83.9 -13.85 83.65 -13.7 83.4 M-4.95 83.55 L-5.1 83.2 -5.3 82.0 -5.45 80.85 -5.2 79.85 -4.95 78.9 -8.3 78.9 -11.65 78.9 -11.4 80.0 -11.15 81.15 -11.45 82.3 -11.75 83.5 -11.4 83.7 -11.05 83.95 -7.95 83.95 -4.85 83.95 -4.95 83.55 -4.95 83.55 M10.7 83.35 L10.45 82.75 10.45 80.8 10.5 78.9 7.55 78.9 4.6 78.9 4.85 79.9 5.15 80.85 5.0 81.8 4.85 82.75 4.65 83.35 4.5 83.95 7.7 83.95 10.9 83.95 10.7 83.35 10.7 83.35 M-20.8 83.2 L-20.95 82.75 -21.1 81.5 -21.25 80.25 -20.95 79.45 -20.65 78.65 -21.75 78.65 -22.85 78.6 -33.35 78.35 -43.9 78.1 -49.0 78.0 -54.1 77.85 -54.6 77.7 -55.05 77.5 -55.35 76.8 -55.65 76.1 -55.75 61.4 -55.9 46.65 -55.6 28.25 -55.3 9.8 -55.15 7.35 -54.95 4.85 -54.65 4.55 -54.3 4.2 -40.7 4.0 -27.05 3.8 -6.85 3.6 13.35 3.45 29.65 3.5 45.95 3.6 46.5 4.1 47.0 4.6 47.25 15.15 47.5 25.7 47.45 35.95 47.4 46.15 46.95 56.75 46.55 67.35 46.3 71.6 46.1 75.85 45.7 76.7 45.25 77.5 44.0 77.65 42.75 77.85 33.45 78.1 24.1 78.35 22.25 78.5 20.35 78.7 20.6 79.35 20.85 80.0 20.85 81.15 20.85 82.3 20.55 83.0 20.3 83.7 23.4 83.55 26.5 83.4 39.35 83.0 52.2 82.55 52.25 82.5 52.25 82.5 52.6 72.65 52.9 62.85 53.05 41.25 53.2 19.6 53.0 8.6 52.8 -2.45 48.05 -2.6 43.3 -2.8 34.6 -3.05 25.95 -3.3 11.8 -3.6 -2.4 -3.85 -20.0 -3.6 -37.55 -3.3 -51.55 -2.95 -65.55 -2.6 -65.65 -2.5 -65.75 -2.35 -66.05 11.8 -66.35 26.0 -66.3 53.9 -66.2 81.75 -66.05 81.9 -65.95 82.0 -49.8 82.6 -33.65 83.2 -27.85 83.4 -22.1 83.6 -21.35 83.65 -20.6 83.65 -20.8 83.2 M14.05 80.55 L14.75 77.7 14.65 77.6 14.55 77.5 13.65 78.1 12.75 78.65 12.3 79.6 11.85 80.55 12.0 81.5 12.15 82.4 12.55 83.05 13.0 83.7 13.15 83.55 13.35 83.35 14.05 80.55 M-13.0 80.25 L-13.3 79.2 -14.2 78.5 -15.05 77.85 -15.85 77.65 -16.7 77.5 -16.7 77.7 -16.7 77.85 -14.95 80.1 -13.15 82.35 -12.9 81.8 -12.7 81.3 -13.0 80.25 M3.45 81.4 L3.5 80.9 3.3 80.6 3.1 80.3 -0.35 80.45 -3.85 80.55 -3.85 81.15 -3.85 81.8 -1.15 81.9 1.55 82.0 2.45 81.95 3.4 81.95 3.45 81.4 M-69.05 67.85 L-69.2 54.9 -69.2 41.25 -69.2 27.65 -73.45 27.8 -77.75 28.0 -81.1 28.15 -84.45 28.3 -84.45 41.9 -84.45 55.5 -82.4 55.7 -80.35 55.9 -77.2 55.95 -74.05 55.95 -74.05 65.25 -74.05 74.5 -73.7 77.65 -73.35 80.75 -71.1 80.75 -68.85 80.75 -69.05 67.85 -69.05 67.85 M-80.85 43.15 L-81.0 42.95 -81.3 41.25 -81.6 39.55 -81.1 39.1 -80.65 38.7 -76.95 38.85 -73.25 39.0 -72.8 39.35 -72.35 39.7 -72.35 40.2 -72.35 40.65 -72.75 41.05 -73.1 41.4 -76.4 41.3 -79.65 41.15 -79.75 42.2 -79.85 43.2 -80.25 43.3 -80.7 43.4 -80.85 43.15 M-81.0 36.4 L-81.2 35.8 -81.35 34.6 -81.5 33.4 -81.3 33.0 -81.05 32.6 -77.15 32.45 -73.3 32.3 -72.95 32.4 -72.6 32.55 -72.45 33.2 -72.3 33.85 -72.75 34.3 -73.15 34.75 -76.55 34.85 -79.95 34.9 -80.0 35.85 -80.1 36.8 -80.45 36.95 -80.75 37.05 -81.0 36.4 M2.85 79.35 L2.7 79.0 1.6 78.3 0.5 77.55 -0.25 77.55 -1.0 77.55 -1.7 77.95 -2.4 78.3 -3.05 79.0 -3.65 79.7 -0.35 79.7 2.95 79.7 2.85 79.35 M-75.15 76.3 L-75.4 73.2 -75.4 65.15 -75.4 57.15 -78.55 57.15 -81.7 57.15 -83.05 57.0 -84.45 56.8 -84.3 67.65 -84.1 78.5 -84.0 78.65 -83.85 78.75 -80.0 79.05 -76.15 79.35 -75.55 79.4 -74.95 79.45 -75.15 76.3 M13.9 75.7 L27.8 75.45 35.45 75.15 43.15 74.8 43.15 74.0 43.15 73.15 43.4 71.7 43.65 70.3 44.1 59.4 44.5 48.55 44.4 27.65 44.35 6.8 44.15 6.6 43.95 6.45 26.35 6.3 8.8 6.15 -17.15 6.45 -43.1 6.75 -47.6 6.9 -52.1 7.1 -52.25 11.25 -52.4 15.4 -52.6 45.15 -52.75 74.9 -51.7 74.95 -50.7 74.95 -41.8 75.2 -32.85 75.45 -24.3 75.6 -15.8 75.75 -15.7 75.85 -15.6 75.95 -7.85 75.95 -0.05 76.0 13.9 75.7 13.9 75.7 M-74.0 25.4 L-69.15 25.25 -69.05 24.95 -69.0 24.65 -68.8 12.15 -68.65 -0.4 -71.5 -0.4 -74.35 -0.4 -78.15 -0.15 -81.95 0.15 -82.9 0.3 -83.85 0.45 -84.0 5.0 -84.15 9.55 -84.3 17.75 -84.5 25.95 -81.65 25.75 -78.8 25.6 -74.0 25.4" fill="#d1d1d1" fill-rule="evenodd" stroke="none"/>
    <path d="M-19.45 86.45 L-21.8 86.35 -30.75 86.05 -39.65 85.8 -53.6 85.25 -67.5 84.7 -68.1 84.45 -68.65 84.2 -68.85 83.6 -69.0 82.95 -71.55 82.85 -74.15 82.75 -74.5 82.45 -74.85 82.15 -78.0 81.95 -81.15 81.8 -83.5 81.55 -85.85 81.3 -86.35 80.8 -86.8 80.3 -87.1 63.35 -87.4 46.4 -87.2 31.7 -87.05 16.95 -86.9 7.85 -86.7 -1.25 -86.3 -1.75 -85.9 -2.25 -81.3 -2.65 -76.7 -3.05 -72.55 -3.2 -68.4 -3.4 -68.4 -4.1 -68.4 -4.85 -68.1 -5.1 -67.75 -5.35 -54.75 -5.65 -41.8 -6.0 -26.8 -6.25 -11.85 -6.5 -10.95 -6.6 -10.0 -6.65 -13.15 -8.7 -16.3 -10.8 -20.0 -13.2 -23.65 -15.6 -25.25 -16.35 -26.8 -17.1 -28.4 -17.35 -30.0 -17.6 -33.15 -19.1 -36.25 -20.6 -38.45 -21.35 -40.65 -22.15 -42.05 -23.4 -43.45 -24.65 -43.5 -25.0 -43.5 -25.35 -43.1 -25.5 -42.75 -25.65 -42.1 -25.3 -41.5 -25.0 -40.7 -24.3 -39.95 -23.55 -38.5 -23.1 -37.05 -22.65 -33.4 -20.9 -29.7 -19.2 -28.1 -18.95 -26.45 -18.7 -24.95 -18.15 -23.45 -17.6 -19.1 -14.65 -14.75 -11.7 -11.0 -9.1 -7.3 -6.45 -6.6 -6.9 -5.95 -7.35 -4.95 -8.6 -3.95 -9.8 -0.7 -13.15 2.6 -16.45 4.45 -18.2 6.25 -19.9 7.05 -20.95 7.85 -22.0 10.35 -22.15 12.85 -22.35 15.35 -23.05 17.9 -23.7 18.75 -24.15 19.65 -24.6 22.2 -26.65 24.7 -28.7 25.7 -29.05 26.65 -29.35 26.9 -29.1 27.2 -28.85 27.1 -28.35 27.0 -27.9 26.2 -27.65 25.45 -27.45 22.8 -25.2 20.2 -22.95 18.75 -22.4 17.3 -21.85 14.35 -21.2 11.4 -20.55 9.95 -20.55 8.55 -20.55 7.9 -19.55 7.25 -18.55 4.95 -16.45 2.7 -14.35 -0.7 -10.95 -4.1 -7.55 -4.35 -7.05 -4.65 -6.5 2.1 -6.5 8.9 -6.5 19.5 -6.25 30.15 -6.0 39.45 -5.7 48.8 -5.45 51.7 -5.3 54.55 -5.2 55.05 -5.05 55.5 -4.85 55.6 -4.3 55.7 -3.7 55.85 19.2 56.0 42.15 55.75 54.75 55.5 67.35 55.2 76.0 54.95 84.6 54.6 84.95 54.25 85.3 50.75 85.4 47.2 85.55 36.3 85.95 25.45 86.35 4.15 86.45 -17.1 86.5 -19.45 86.45 -19.45 86.45 M1.25 84.7 L1.8 84.4 2.4 83.85 3.0 83.3 3.0 82.95 3.0 82.6 -0.3 82.6 -3.6 82.6 -3.6 82.85 -3.6 83.05 -2.85 83.7 -2.15 84.4 -1.6 84.7 -1.1 85.0 -0.2 85.0 0.65 85.0 1.25 84.7 1.25 84.7 M-15.8 84.45 L-15.65 84.2 -17.55 81.9 -19.45 79.6 -19.65 80.4 -19.85 81.15 -19.6 82.0 -19.3 82.85 -18.6 83.5 -17.95 84.2 -17.15 84.45 -16.3 84.7 -16.15 84.7 -15.95 84.75 -15.8 84.45 -15.8 84.45 M15.85 83.75 L16.1 82.75 16.75 80.3 17.35 77.85 16.55 77.6 15.75 77.3 15.6 77.55 15.45 77.8 14.7 81.0 13.9 84.25 14.3 84.5 14.65 84.7 15.1 84.75 15.55 84.75 15.85 83.75 15.85 83.75 M17.7 83.95 L18.4 83.4 18.85 82.3 19.3 81.2 19.15 80.5 19.0 79.8 18.5 79.1 18.05 78.35 17.3 81.1 16.55 83.8 16.45 84.15 16.3 84.45 16.65 84.45 16.95 84.45 17.7 83.95 M-13.95 83.7 L-13.5 83.15 -14.55 81.75 -15.65 80.35 -16.65 79.2 -17.65 78.0 -18.1 78.2 -18.55 78.35 -18.7 78.75 -18.85 79.15 -16.8 81.65 -14.75 84.2 -14.6 84.2 -14.4 84.2 -13.95 83.7 M-5.1 82.8 L-5.45 81.7 -5.3 80.7 -5.15 79.75 -5.0 79.3 -4.85 78.9 -8.3 78.9 -11.75 78.9 -11.55 79.65 -11.3 80.35 -11.4 81.5 -11.45 82.6 -11.7 83.1 -12.0 83.65 -11.65 83.75 -11.3 83.9 -8.0 83.9 -4.7 83.95 -5.1 82.8 -5.1 82.8 M10.7 83.0 L10.35 82.1 10.35 81.25 10.35 80.35 10.6 79.45 10.85 78.55 7.8 78.75 4.75 78.9 4.65 78.95 4.6 79.05 4.9 80.25 5.15 81.5 4.75 82.7 4.35 83.95 7.75 83.95 11.1 83.95 10.7 83.0 M-20.85 82.95 L-21.05 82.2 -21.05 81.0 -21.05 79.85 -20.85 79.25 -20.65 78.7 -26.2 78.5 -31.8 78.3 -35.35 78.25 -38.9 78.15 -46.6 77.95 -54.3 77.75 -54.85 77.3 -55.4 76.85 -55.6 74.5 -55.75 72.15 -55.8 56.9 -55.8 41.65 -55.55 26.4 -55.3 11.15 -55.15 8.1 -55.0 5.1 -54.5 4.65 -54.05 4.2 -40.55 4.0 -27.05 3.8 -6.6 3.6 13.9 3.45 29.95 3.6 46.0 3.7 46.5 4.2 46.95 4.65 47.15 11.2 47.3 17.75 47.35 31.6 47.35 45.45 47.1 52.7 46.85 59.95 46.55 66.05 46.3 72.15 46.15 73.75 46.0 75.3 45.9 76.0 45.75 76.7 45.3 77.1 44.85 77.5 42.25 77.65 39.6 77.85 31.2 78.1 22.8 78.35 21.6 78.5 20.35 78.7 20.65 79.5 20.9 80.25 20.75 81.5 20.65 82.75 20.45 83.25 20.25 83.7 23.6 83.55 27.0 83.4 39.6 83.0 52.2 82.55 52.25 82.5 52.3 82.5 52.6 72.8 52.9 63.1 53.05 41.1 53.2 19.05 53.0 8.3 52.8 -2.45 48.15 -2.65 43.55 -2.8 34.9 -3.05 26.2 -3.3 11.9 -3.6 -2.4 -3.85 -20.25 -3.6 -38.1 -3.3 -51.8 -2.95 -65.55 -2.6 -65.65 -2.5 -65.8 -2.35 -66.05 11.7 -66.35 25.7 -66.3 53.75 -66.2 81.75 -66.05 81.9 -65.95 82.0 -57.9 82.3 -49.9 82.6 -38.5 83.0 -27.05 83.4 -24.7 83.5 -22.35 83.55 -21.5 83.6 -20.65 83.65 -20.85 82.95 -20.85 82.95 M14.1 80.5 L14.75 77.7 14.65 77.6 14.5 77.45 13.8 77.9 13.1 78.35 12.6 79.0 12.1 79.65 12.0 80.8 11.9 81.95 12.45 82.85 13.0 83.75 13.2 83.5 13.4 83.25 14.1 80.5 M-12.75 81.2 L-12.75 80.35 -13.3 79.5 -13.8 78.65 -14.45 78.25 -15.05 77.8 -16.05 77.65 -17.05 77.5 -15.15 79.9 -13.2 82.35 -13.0 82.2 -12.75 82.05 -12.75 81.2 -12.75 81.2 M3.45 81.4 L3.5 80.9 3.3 80.6 3.1 80.3 -0.35 80.45 -3.85 80.55 -3.85 81.15 -3.85 81.8 -1.3 81.9 1.3 82.0 2.35 81.95 3.4 81.95 3.45 81.4 3.45 81.4 M-69.05 67.6 L-69.2 54.4 -69.2 41.0 -69.2 27.65 -73.75 27.8 -78.25 28.0 -81.35 28.15 -84.45 28.3 -84.45 41.9 -84.45 55.5 -83.05 55.65 -81.7 55.85 -77.85 55.95 -74.05 56.1 -74.15 63.45 -74.25 70.8 -73.95 74.45 -73.7 78.1 -73.5 79.4 -73.35 80.75 -71.1 80.75 -68.85 80.75 -69.05 67.6 M-80.9 43.05 L-81.0 42.7 -81.25 41.25 -81.5 39.8 -81.25 39.3 -81.0 38.85 -77.8 38.85 -74.6 38.85 -73.6 39.1 -72.65 39.4 -72.5 39.95 -72.3 40.5 -72.7 40.9 -73.1 41.3 -76.4 41.25 -79.65 41.2 -79.75 42.2 -79.85 43.2 -80.3 43.3 -80.75 43.4 -80.9 43.05 -80.9 43.05 M-81.1 35.9 L-81.3 35.05 -81.3 34.05 -81.3 33.05 -80.8 32.75 -80.3 32.5 -76.7 32.45 -73.05 32.45 -72.7 32.9 -72.35 33.4 -72.35 33.55 -72.35 33.7 -72.75 34.2 -73.1 34.75 -76.55 34.85 -79.95 34.9 -79.95 35.85 -79.95 36.75 -80.45 36.75 -80.95 36.75 -81.1 35.9 M2.65 79.1 L2.3 78.55 1.4 78.05 0.5 77.55 -0.25 77.55 -1.0 77.55 -1.9 78.0 -2.75 78.4 -3.2 79.05 -3.6 79.7 -0.25 79.7 3.05 79.7 2.65 79.1 M-75.15 76.2 L-75.4 72.95 -75.4 65.05 -75.4 57.2 -79.85 57.1 -84.3 56.95 -84.4 57.05 -84.45 57.1 -84.25 67.95 -84.05 78.75 -80.35 79.05 -76.7 79.35 -75.8 79.4 -74.95 79.45 -75.15 76.2 M27.8 75.45 L35.95 75.2 39.65 75.05 43.35 74.85 43.5 72.05 43.7 69.2 44.1 59.4 44.55 49.6 44.55 31.95 44.6 14.3 44.35 10.45 44.15 6.55 36.1 6.35 28.05 6.15 1.8 6.35 -24.45 6.5 -38.2 6.75 -51.9 6.95 -52.05 7.1 -52.25 7.3 -52.45 14.65 -52.65 22.0 -52.85 46.15 -53.0 70.3 -52.8 72.55 -52.65 74.85 -48.9 75.0 -45.2 75.2 -39.65 75.35 -34.15 75.5 -25.1 75.7 -16.05 75.95 1.8 75.85 19.65 75.7 27.8 75.45 27.8 75.45 M-73.45 25.4 L-68.95 25.25 -68.95 20.4 -68.95 15.6 -68.75 7.6 -68.6 -0.4 -71.6 -0.4 -74.6 -0.4 -78.4 -0.15 -82.2 0.1 -83.05 0.25 -83.85 0.4 -84.0 4.7 -84.15 9.0 -84.3 17.45 -84.5 25.95 -81.25 25.75 -78.0 25.6 -73.45 25.4" fill="#afafaf" fill-rule="evenodd" stroke="none"/>
    <path d="M-19.2 86.45 L-21.3 86.35 -30.5 86.05 -39.65 85.8 -46.35 85.5 -53.05 85.25 -59.9 85.0 -66.7 84.7 -67.6 84.6 -68.45 84.45 -68.7 83.7 -68.95 82.95 -71.5 82.8 -74.05 82.7 -74.6 82.4 -75.1 82.1 -79.6 81.8 -84.05 81.5 -85.05 81.35 -86.05 81.2 -86.45 80.6 -86.8 80.05 -87.1 63.5 -87.35 46.95 -87.2 30.25 -87.0 13.5 -86.85 6.05 -86.65 -1.45 -86.25 -1.85 -85.9 -2.2 -81.0 -2.65 -76.15 -3.05 -72.3 -3.2 -68.4 -3.35 -68.4 -4.0 -68.4 -4.6 -68.05 -5.0 -67.7 -5.35 -59.6 -5.55 -51.5 -5.75 -40.85 -5.95 -30.2 -6.2 -20.05 -6.4 -9.85 -6.55 -12.95 -8.65 -16.05 -10.7 -20.4 -13.5 -24.7 -16.25 -25.75 -16.7 -26.75 -17.1 -28.3 -17.35 -29.9 -17.6 -32.8 -19.0 -35.75 -20.35 -38.3 -21.35 -40.8 -22.35 -42.15 -23.5 -43.5 -24.65 -43.4 -25.05 -43.35 -25.45 -42.95 -25.55 -42.5 -25.6 -41.25 -24.55 -39.95 -23.5 -38.5 -23.05 -37.1 -22.65 -33.45 -20.95 -29.85 -19.25 -27.75 -18.85 -25.65 -18.5 -24.25 -17.85 -22.85 -17.2 -18.0 -13.9 -13.15 -10.6 -10.2 -8.55 -7.25 -6.5 -6.8 -6.75 -6.3 -7.0 -4.75 -8.8 -3.2 -10.6 -0.15 -13.65 2.85 -16.7 4.45 -18.1 6.0 -19.45 6.8 -20.55 7.6 -21.6 8.35 -21.9 9.1 -22.15 10.5 -22.15 11.9 -22.15 14.0 -22.65 16.15 -23.2 17.75 -23.75 19.4 -24.25 21.45 -26.0 23.55 -27.75 24.5 -28.4 25.45 -29.0 26.2 -29.1 27.0 -29.2 27.1 -28.6 27.15 -28.05 26.3 -27.75 25.45 -27.45 23.05 -25.45 20.7 -23.45 19.15 -22.65 17.55 -21.9 14.35 -21.25 11.15 -20.55 9.85 -20.55 8.6 -20.55 7.75 -19.4 6.9 -18.2 4.9 -16.4 2.9 -14.6 -1.05 -10.6 -5.0 -6.65 6.95 -6.45 18.85 -6.3 29.5 -6.0 40.15 -5.7 47.45 -5.4 54.8 -5.15 55.25 -4.75 55.65 -4.4 55.85 18.9 56.0 42.15 55.75 54.5 55.5 66.85 55.2 75.7 54.95 84.6 54.55 84.9 54.15 85.2 50.45 85.4 46.7 85.55 35.95 85.95 25.15 86.35 4.05 86.45 -17.1 86.5 -19.2 86.45 M1.65 84.4 L2.55 83.8 2.9 83.2 3.3 82.6 -0.15 82.6 -3.6 82.6 -3.55 82.8 -3.55 83.0 -3.1 83.6 -2.65 84.2 -1.85 84.6 -1.1 85.0 -0.15 85.0 0.8 85.0 1.65 84.4 1.65 84.4 M-15.8 84.5 L-15.65 84.2 -17.4 81.95 -19.2 79.7 -19.35 79.7 -19.55 79.7 -19.7 80.5 -19.85 81.3 -19.45 82.35 -19.0 83.4 -18.3 83.9 -17.6 84.4 -17.1 84.55 -16.55 84.65 -16.25 84.7 -15.95 84.75 -15.8 84.5 -15.8 84.5 M15.95 83.35 L16.35 81.95 16.75 80.35 17.2 78.75 17.3 78.35 17.45 77.9 16.6 77.6 15.75 77.3 15.6 77.55 15.4 77.85 14.65 81.05 13.9 84.25 14.3 84.5 14.65 84.7 15.1 84.75 15.55 84.75 15.95 83.35 15.95 83.35 M17.75 83.9 L18.55 83.35 18.9 82.4 19.3 81.5 19.15 80.5 18.95 79.55 18.5 78.9 18.0 78.3 17.6 79.7 17.2 81.15 16.9 82.35 16.6 83.55 16.45 84.0 16.35 84.45 16.65 84.45 16.95 84.45 17.75 83.9 M-13.95 83.7 L-13.5 83.15 -14.15 82.3 -14.8 81.4 -16.25 79.65 -17.7 77.85 -18.35 78.4 -19.05 78.9 -16.9 81.55 -14.75 84.2 -14.6 84.2 -14.4 84.2 -13.95 83.7 M-4.9 83.4 L-5.2 82.85 -5.25 81.6 -5.3 80.35 -5.05 79.5 -4.85 78.65 -8.15 78.65 -11.4 78.65 -11.55 78.85 -11.7 79.05 -11.45 80.05 -11.25 81.0 -11.45 81.9 -11.65 82.75 -11.85 83.35 -12.0 83.95 -8.3 83.95 -4.6 83.95 -4.9 83.4 M10.65 82.8 L10.3 81.7 10.4 80.6 10.55 79.55 10.75 79.1 10.9 78.65 7.75 78.65 4.55 78.65 4.55 78.75 4.55 78.85 4.85 80.15 5.1 81.4 4.7 82.7 4.35 83.95 7.7 83.95 11.05 83.95 10.65 82.8 M-20.8 82.7 L-21.2 81.7 -21.1 80.65 -20.95 79.55 -20.75 79.0 -20.6 78.4 -24.25 78.4 -27.85 78.4 -38.9 78.1 -49.9 77.8 -52.25 77.7 -54.55 77.65 -55.0 77.2 -55.4 76.75 -55.55 73.9 -55.7 71.05 -55.65 52.5 -55.65 33.95 -55.3 19.6 -55.0 5.3 -54.75 4.85 -54.5 4.4 -53.65 4.25 -52.8 4.15 -30.1 3.85 -7.4 3.55 18.7 3.55 44.85 3.55 45.65 3.85 46.5 4.15 46.7 4.6 46.9 5.05 47.15 16.05 47.4 27.05 47.25 40.7 47.1 54.35 46.85 58.5 46.6 62.6 46.3 69.2 46.0 75.85 45.6 76.55 45.25 77.3 44.65 77.4 44.05 77.55 37.9 77.85 31.75 78.1 28.05 78.1 24.35 78.1 22.3 78.3 20.25 78.45 20.5 79.15 20.7 79.85 20.7 81.0 20.7 82.2 20.5 82.95 20.3 83.7 24.05 83.55 27.8 83.4 40.0 83.0 52.2 82.55 52.25 82.5 52.3 82.5 52.6 73.2 52.9 63.9 53.05 41.25 53.2 18.55 53.0 8.05 52.8 -2.45 48.3 -2.65 43.8 -2.8 35.15 -3.05 26.5 -3.3 12.05 -3.6 -2.4 -3.9 -20.4 -3.6 -38.35 -3.3 -51.95 -2.95 -65.55 -2.6 -65.65 -2.5 -65.8 -2.35 -66.05 9.55 -66.3 21.5 -66.3 49.2 -66.3 76.9 -66.15 79.45 -66.0 82.0 -61.75 82.15 -57.55 82.35 -42.55 82.9 -27.6 83.4 -25.25 83.5 -22.85 83.55 -21.65 83.6 -20.4 83.65 -20.8 82.7 -20.8 82.7 M14.15 80.5 L14.8 77.75 14.65 77.6 14.5 77.45 13.8 77.85 13.1 78.25 12.5 79.15 11.85 80.1 12.0 81.35 12.1 82.6 12.55 83.15 13.05 83.7 13.25 83.5 13.45 83.25 14.15 80.5 M-12.75 81.2 L-12.75 80.3 -13.35 79.4 -13.95 78.55 -14.8 78.05 -15.65 77.55 -16.3 77.6 -16.9 77.7 -15.1 80.05 -13.25 82.35 -13.0 82.2 -12.75 82.05 -12.75 81.2 M3.45 81.2 L3.4 80.35 2.5 80.35 1.65 80.4 -1.1 80.45 -3.85 80.5 -3.85 81.15 -3.85 81.8 -1.4 81.9 1.0 81.95 2.3 82.05 3.55 82.1 3.45 81.2 M-68.9 80.15 L-68.8 79.55 -69.0 70.15 -69.15 60.75 -69.15 44.05 -69.2 27.4 -70.45 27.55 -71.7 27.7 -75.75 27.85 -79.85 28.0 -82.15 28.15 -84.45 28.3 -84.45 41.9 -84.45 55.5 -83.1 55.65 -81.75 55.85 -77.9 55.95 -74.1 56.1 -74.15 63.6 -74.25 71.05 -73.95 74.8 -73.65 78.5 -73.5 79.65 -73.35 80.75 -71.2 80.75 -69.0 80.75 -68.9 80.15 M-80.85 42.95 L-81.0 42.5 -81.2 41.1 -81.35 39.65 -81.0 39.2 -80.65 38.8 -76.95 38.95 -73.3 39.15 -72.95 39.45 -72.6 39.75 -72.65 40.4 -72.75 41.1 -76.2 41.1 -79.7 41.1 -79.75 42.15 -79.85 43.2 -80.25 43.3 -80.7 43.4 -80.85 42.95 M-81.1 35.9 L-81.3 35.05 -81.3 34.2 -81.3 33.3 -80.85 32.9 -80.45 32.45 -76.6 32.55 -72.75 32.6 -72.65 33.4 -72.6 34.15 -72.95 34.35 -73.3 34.6 -74.6 34.6 -75.95 34.6 -77.95 34.8 -79.95 34.95 -79.95 35.85 -79.95 36.75 -80.45 36.75 -80.95 36.75 -81.1 35.9 M3.0 79.45 L3.0 79.15 1.9 78.35 0.8 77.55 -0.25 77.55 -1.35 77.55 -2.2 78.1 -3.0 78.6 -3.3 79.15 -3.6 79.7 -0.3 79.7 3.0 79.7 3.0 79.45 3.0 79.45 M-75.15 76.05 L-75.4 72.65 -75.4 64.95 -75.4 57.2 -79.85 57.1 -84.3 56.95 -84.4 57.0 -84.45 57.1 -84.3 67.95 -84.1 78.85 -80.5 79.1 -76.95 79.35 -75.95 79.4 -74.95 79.45 -75.15 76.05 M13.9 75.85 L22.0 75.7 32.6 75.3 43.2 74.95 43.3 74.85 43.4 74.75 44.0 63.25 44.6 51.7 44.55 31.7 44.55 11.65 44.35 9.1 44.15 6.55 36.35 6.35 28.6 6.15 1.8 6.35 -24.95 6.5 -38.45 6.75 -51.95 6.95 -52.15 7.3 -52.35 7.65 -52.55 14.15 -52.8 20.7 -52.8 47.8 -52.8 74.95 -51.25 75.05 -49.65 75.15 -42.05 75.3 -34.4 75.5 -32.2 75.6 -30.0 75.7 -18.85 75.9 -7.65 76.05 -7.6 76.1 -7.55 76.15 -0.9 76.05 5.75 76.0 13.9 75.85 13.9 75.85 M-72.15 25.4 L-68.95 25.25 -68.95 20.6 -68.95 15.9 -68.75 7.75 -68.6 -0.4 -71.65 -0.4 -74.7 -0.4 -78.7 -0.15 -82.75 0.15 -83.3 0.25 -83.85 0.4 -84.0 4.45 -84.15 8.5 -84.35 17.2 -84.5 25.95 -79.95 25.75 -75.4 25.6 -72.15 25.4" fill="#8e8e8e" fill-rule="evenodd" stroke="none"/>
    <path d="M-19.7 86.3 L-26.55 86.1 -31.65 85.95 -36.8 85.75 -43.35 85.55 -49.9 85.3 -57.55 85.0 -65.15 84.75 -66.55 84.6 -68.0 84.45 -68.35 84.15 -68.7 83.85 -68.7 83.4 -68.7 82.95 -71.45 82.8 -74.25 82.65 -74.55 82.4 -74.85 82.15 -80.1 81.7 -85.35 81.3 -85.8 81.15 -86.2 81.0 -86.5 80.25 -86.75 79.55 -86.95 68.0 -87.1 56.5 -87.1 40.05 -87.1 23.6 -86.95 16.15 -86.8 8.75 -86.65 3.65 -86.5 -1.5 -86.15 -1.85 -85.8 -2.15 -82.4 -2.5 -79.05 -2.8 -73.75 -3.0 -68.4 -3.15 -68.4 -3.85 -68.4 -4.55 -67.9 -5.05 -67.4 -5.5 -66.75 -5.4 -66.1 -5.25 -52.65 -5.6 -39.15 -5.95 -25.35 -6.1 -11.6 -6.3 -10.75 -6.45 -9.9 -6.65 -13.25 -8.85 -16.55 -11.05 -20.25 -13.45 -23.9 -15.85 -25.25 -16.45 -26.55 -17.1 -28.25 -17.4 -29.95 -17.7 -33.1 -19.15 -36.25 -20.6 -38.55 -21.5 -40.85 -22.35 -41.95 -23.35 -43.1 -24.35 -43.35 -24.55 -43.55 -24.8 -43.25 -25.2 -42.9 -25.6 -42.65 -25.6 -42.45 -25.6 -41.4 -24.65 -40.35 -23.7 -38.3 -22.95 -36.25 -22.2 -33.5 -20.9 -30.75 -19.6 -29.85 -19.3 -28.9 -19.0 -27.25 -18.7 -25.6 -18.4 -24.4 -17.9 -23.2 -17.35 -20.4 -15.45 -17.6 -13.55 -14.1 -11.15 -10.55 -8.7 -8.9 -7.55 -7.3 -6.45 -6.85 -6.7 -6.4 -6.95 -2.45 -11.2 1.55 -15.45 3.0 -16.65 4.5 -17.85 6.3 -19.9 8.1 -21.9 9.95 -22.0 11.8 -22.05 13.75 -22.55 15.7 -23.0 17.35 -23.5 18.95 -24.05 19.75 -24.6 20.55 -25.2 22.75 -27.0 24.9 -28.8 25.7 -29.0 26.5 -29.25 26.8 -29.1 27.15 -29.0 27.15 -28.5 27.15 -28.05 26.25 -27.75 25.4 -27.45 23.05 -25.45 20.7 -23.45 19.1 -22.7 17.5 -21.9 14.2 -21.25 10.85 -20.55 9.7 -20.55 8.5 -20.55 7.75 -19.45 6.95 -18.3 5.05 -16.6 3.15 -14.85 -0.95 -10.75 -5.0 -6.65 2.75 -6.45 10.45 -6.25 23.35 -6.0 36.2 -5.7 45.5 -5.4 54.85 -5.1 55.25 -4.65 55.65 -4.15 55.65 29.5 55.6 63.1 55.25 73.45 54.95 83.8 54.8 84.4 54.7 85.0 54.1 85.1 53.5 85.25 40.9 85.65 28.3 86.05 18.45 86.35 8.65 86.6 -2.15 86.55 -12.9 86.5 -19.7 86.3 M2.45 83.8 L3.35 82.75 0.0 82.65 -3.4 82.6 -3.5 82.7 -3.6 82.85 -3.3 83.4 -3.0 83.95 -2.2 84.5 -1.35 85.05 0.05 84.9 1.5 84.8 2.45 83.8 M-15.6 84.6 L-15.45 84.4 -17.3 82.1 -19.15 79.85 -19.35 79.75 -19.55 79.65 -19.7 80.45 -19.9 81.25 -19.7 81.9 -19.55 82.5 -18.9 83.35 -18.25 84.2 -17.4 84.45 -16.55 84.7 -16.15 84.7 -15.75 84.75 -15.6 84.6 -15.6 84.6 M16.55 81.3 L17.4 77.95 17.2 77.8 17.05 77.6 16.3 77.5 15.5 77.45 14.75 80.5 14.0 83.55 14.0 84.0 14.0 84.4 14.35 84.55 14.65 84.7 15.15 84.65 15.65 84.6 16.55 81.3 16.55 81.3 M17.9 83.8 L18.7 83.1 19.05 82.05 19.35 81.0 19.05 80.0 18.75 78.95 18.35 78.65 17.95 78.35 17.6 79.75 17.2 81.15 16.8 82.65 16.35 84.15 16.35 84.3 16.35 84.45 16.75 84.45 17.1 84.45 17.9 83.8 M-13.85 83.55 L-13.25 82.95 -13.5 82.85 -13.7 82.75 -15.5 80.5 -17.3 78.25 -17.5 78.0 -17.75 77.75 -18.4 78.35 -19.05 78.95 -16.95 81.6 -14.8 84.2 -14.6 84.2 -14.45 84.2 -13.85 83.55 M-5.05 82.6 L-5.4 81.25 -5.25 80.4 -5.1 79.55 -4.85 79.1 -4.6 78.65 -8.1 78.65 -11.6 78.65 -11.6 80.7 -11.6 82.75 -11.8 83.35 -12.0 83.95 -8.35 83.95 -4.7 83.95 -5.05 82.6 -5.05 82.6 M11.1 83.85 L11.1 83.75 10.7 82.7 10.3 81.7 10.45 80.6 10.55 79.55 10.75 79.1 10.9 78.65 7.6 78.65 4.3 78.65 4.55 79.2 4.85 79.75 4.75 81.35 4.65 83.0 4.45 83.45 4.25 83.95 7.7 83.95 11.1 83.95 11.1 83.85 M14.1 80.7 L14.8 77.85 14.8 77.7 14.8 77.55 14.4 77.55 14.0 77.55 13.0 78.5 12.05 79.4 12.05 80.95 12.05 82.5 12.55 83.2 13.1 83.9 13.25 83.7 13.4 83.55 14.1 80.7 M-20.85 82.45 L-21.25 81.25 -20.95 79.9 -20.65 78.55 -20.7 78.5 -20.75 78.45 -29.85 78.25 -38.9 78.1 -46.55 77.85 -54.2 77.55 -54.6 77.4 -55.0 77.25 -55.3 76.5 -55.65 75.7 -55.45 46.05 -55.3 16.45 -55.15 11.15 -55.0 5.85 -54.7 5.15 -54.35 4.5 -50.55 4.35 -46.75 4.15 -18.4 3.85 9.95 3.5 27.9 3.65 45.8 3.8 46.3 4.2 46.75 4.65 46.9 8.55 47.1 12.45 47.25 28.0 47.4 43.5 47.1 50.25 46.8 57.0 46.4 65.9 46.0 74.8 45.85 75.65 45.7 76.45 45.15 77.0 44.6 77.55 35.0 77.85 25.45 78.1 22.75 78.25 20.1 78.4 20.5 79.4 20.9 80.35 20.75 81.4 20.6 82.5 20.45 83.1 20.25 83.65 22.2 83.65 24.15 83.65 35.8 83.3 47.5 82.9 49.9 82.75 52.3 82.55 52.45 79.85 52.6 77.15 52.9 66.15 53.25 55.15 53.2 26.4 53.1 -2.35 53.0 -2.45 52.9 -2.6 41.5 -2.95 30.15 -3.3 20.85 -3.55 11.5 -3.8 -9.5 -3.7 -30.5 -3.6 -40.7 -3.35 -50.95 -3.1 -58.3 -2.9 -65.65 -2.7 -65.8 -2.6 -65.95 -2.5 -66.15 5.9 -66.4 14.3 -66.4 48.05 -66.4 81.8 -66.3 81.95 -66.15 82.05 -55.95 82.5 -45.7 82.9 -36.15 83.25 -26.55 83.6 -23.5 83.65 -20.45 83.65 -20.85 82.45 -20.85 82.45 M-12.85 80.8 L-12.95 79.65 -13.9 78.7 -14.8 77.8 -15.95 77.65 -17.1 77.5 -16.2 78.65 -15.3 79.85 -14.25 81.1 -13.2 82.35 -12.95 82.15 -12.7 82.0 -12.85 80.8 M3.45 81.2 L3.4 80.35 -0.15 80.4 -3.65 80.5 -3.9 80.8 -4.1 81.15 -4.0 81.4 -3.95 81.7 -2.25 81.85 -0.55 82.0 1.5 82.05 3.55 82.1 3.45 81.2 M-68.9 80.3 L-68.85 79.55 -68.9 79.05 -68.9 78.5 -68.95 53.1 -68.95 27.75 -69.15 27.6 -69.35 27.45 -74.6 27.75 -79.85 28.0 -82.25 28.15 -84.7 28.3 -84.65 41.85 -84.55 55.4 -83.65 55.6 -82.75 55.85 -78.4 55.95 -74.1 56.1 -74.15 63.7 -74.25 71.35 -73.95 75.05 -73.65 78.75 -73.5 79.9 -73.35 81.0 -71.15 81.0 -68.95 81.0 -68.9 80.3 M-80.7 43.0 L-81.0 42.7 -81.15 41.1 -81.35 39.5 -80.95 39.15 -80.5 38.8 -76.8 39.0 -73.05 39.25 -72.8 39.7 -72.5 40.2 -72.8 40.65 -73.1 41.1 -76.4 41.1 -79.7 41.1 -79.7 41.8 -79.7 42.5 -79.85 42.95 -80.05 43.35 -80.25 43.35 -80.45 43.35 -80.7 43.0 M-81.1 35.1 L-81.3 33.4 -80.75 32.95 -80.2 32.5 -76.8 32.5 -73.45 32.5 -73.05 32.65 -72.6 32.8 -72.6 33.4 -72.6 33.95 -72.95 34.3 -73.25 34.6 -75.0 34.6 -76.75 34.6 -78.35 34.8 -79.95 34.95 -80.0 35.75 -80.1 36.6 -80.5 36.65 -80.95 36.75 -81.1 35.1 M2.95 79.55 L3.05 79.45 2.55 78.85 2.05 78.3 1.35 77.95 0.65 77.55 -0.3 77.55 -1.25 77.55 -2.0 77.95 -2.75 78.35 -3.15 78.95 -3.6 79.55 -3.6 79.7 -3.6 79.85 -0.35 79.75 2.85 79.65 2.95 79.55 2.95 79.55 M-75.15 75.9 L-75.4 72.4 -75.35 64.8 -75.35 57.15 -78.5 57.15 -81.7 57.1 -83.1 56.9 -84.5 56.7 -84.4 67.65 -84.25 78.65 -84.15 78.75 -84.05 78.85 -81.0 79.1 -78.0 79.35 -76.45 79.4 -74.9 79.45 -75.15 75.9 M23.05 75.7 L32.25 75.4 37.75 75.2 43.3 75.05 43.45 73.35 43.65 71.6 44.1 62.05 44.6 52.5 44.6 29.85 44.55 7.15 44.4 6.65 44.2 6.15 5.55 6.3 -33.1 6.5 -42.55 6.65 -52.0 6.8 -52.2 7.0 -52.4 7.15 -52.65 19.6 -52.95 32.1 -52.95 53.5 -52.95 74.95 -52.6 75.05 -52.3 75.15 -45.2 75.3 -38.1 75.45 -33.0 75.6 -27.85 75.8 -17.75 75.95 -7.65 76.15 3.1 76.05 13.9 75.95 23.05 75.7 23.05 75.7 M-72.7 25.45 L-68.95 25.25 -68.95 20.85 -68.9 16.45 -68.85 16.05 -68.75 15.65 -68.65 7.55 -68.55 -0.55 -72.9 -0.45 -77.2 -0.35 -80.65 -0.05 -84.05 0.25 -84.2 6.65 -84.35 13.0 -84.4 19.5 -84.45 26.0 -80.45 25.8 -76.45 25.65 -72.7 25.45" fill="#717171" fill-rule="evenodd" stroke="none"/>
    <path d="M-19.35 86.3 L-27.05 86.1 -42.55 85.55 -58.05 84.95 -63.0 84.75 -67.9 84.5 -68.3 84.2 -68.7 83.85 -68.7 83.4 -68.7 82.95 -71.5 82.8 -74.3 82.6 -74.45 82.35 -74.6 82.15 -80.0 81.7 -85.45 81.3 -85.8 81.15 -86.2 81.0 -86.5 80.3 -86.85 79.55 -87.0 52.65 -87.1 25.7 -86.8 12.2 -86.5 -1.35 -86.05 -1.75 -85.6 -2.2 -82.2 -2.5 -78.8 -2.8 -73.6 -3.0 -68.4 -3.15 -68.4 -3.9 -68.4 -4.65 -67.75 -5.05 -67.1 -5.5 -66.75 -5.35 -66.4 -5.25 -52.5 -5.6 -38.6 -5.95 -24.7 -6.15 -10.8 -6.3 -10.3 -6.5 -9.8 -6.65 -13.45 -9.05 -17.1 -11.45 -20.65 -13.75 -24.2 -16.0 -25.45 -16.6 -26.7 -17.15 -28.25 -17.4 -29.75 -17.65 -33.25 -19.25 -36.8 -20.85 -38.6 -21.55 -40.45 -22.2 -40.85 -22.5 -41.3 -22.8 -42.4 -23.8 -43.55 -24.8 -43.25 -25.2 -42.9 -25.6 -42.7 -25.6 -42.55 -25.6 -41.3 -24.55 -40.05 -23.5 -38.7 -23.05 -37.3 -22.6 -33.65 -20.9 -30.0 -19.2 -27.9 -18.8 -25.8 -18.45 -24.2 -17.7 -22.6 -16.95 -17.35 -13.35 -12.1 -9.8 -9.8 -8.15 -7.5 -6.5 -7.2 -6.5 -6.85 -6.5 -3.3 -10.3 0.25 -14.05 1.55 -15.25 2.85 -16.45 5.5 -19.15 8.15 -21.9 9.55 -21.9 10.9 -21.9 13.75 -22.55 16.65 -23.2 18.05 -23.75 19.45 -24.3 21.55 -26.05 23.6 -27.75 24.7 -28.45 25.8 -29.1 26.4 -29.0 26.95 -28.9 27.05 -28.6 27.2 -28.25 26.3 -27.85 25.4 -27.5 23.85 -26.25 22.3 -24.95 21.2 -24.0 20.15 -23.0 18.65 -22.45 17.15 -21.9 14.75 -21.35 12.35 -20.8 10.65 -20.8 8.95 -20.8 8.15 -19.85 7.3 -18.9 5.35 -17.0 3.4 -15.15 1.25 -13.0 -0.85 -10.9 -1.8 -10.0 -2.75 -9.15 -3.8 -7.85 -4.9 -6.55 4.25 -6.4 13.35 -6.2 25.45 -5.95 37.5 -5.65 46.3 -5.35 55.1 -5.05 55.35 -4.5 55.65 -3.9 55.6 29.05 55.6 62.05 55.25 73.2 54.9 84.35 54.45 84.75 54.05 85.2 40.65 85.65 27.25 86.1 17.95 86.35 8.65 86.6 -1.5 86.55 -11.6 86.5 -19.35 86.3 -19.35 86.3 M2.45 83.8 L3.35 82.75 0.0 82.65 -3.4 82.6 -3.5 82.7 -3.6 82.85 -3.3 83.4 -3.0 83.95 -2.2 84.5 -1.35 85.05 0.05 84.9 1.5 84.8 2.45 83.8 M-15.6 84.55 L-15.45 84.4 -17.3 82.05 -19.15 79.7 -19.35 79.7 -19.55 79.7 -19.7 80.5 -19.9 81.3 -19.6 82.15 -19.3 83.05 -18.75 83.6 -18.15 84.15 -17.5 84.45 -16.85 84.7 -16.3 84.7 -15.75 84.75 -15.6 84.55 -15.6 84.55 M16.55 81.3 L17.4 78.0 17.2 77.75 17.0 77.55 16.25 77.5 15.5 77.45 14.8 80.2 14.1 83.0 13.9 83.7 13.75 84.45 14.2 84.55 14.65 84.7 15.15 84.65 15.7 84.6 16.55 81.3 M18.65 82.9 L19.25 82.0 19.25 81.2 19.25 80.35 18.8 79.45 18.35 78.5 18.1 78.55 17.85 78.6 17.1 81.35 16.4 84.05 16.4 84.45 16.35 84.8 17.2 84.3 18.1 83.8 18.65 82.9 18.65 82.9 M-13.85 83.65 L-13.3 83.1 -14.95 81.1 -16.55 79.1 -17.1 78.45 -17.65 77.75 -18.2 78.15 -18.8 78.5 -18.9 78.8 -19.0 79.05 -16.95 81.65 -14.85 84.2 -14.65 84.2 -14.45 84.2 -13.85 83.65 M-4.75 83.45 L-4.95 83.0 -5.15 82.05 -5.35 81.1 -5.0 79.85 -4.7 78.65 -8.35 78.65 -11.95 78.65 -11.7 79.3 -11.45 80.0 -11.45 81.2 -11.45 82.35 -11.85 83.15 -12.25 83.95 -8.4 83.95 -4.55 83.95 -4.75 83.45 M11.0 83.45 L10.8 83.0 10.55 82.0 10.25 81.0 10.6 79.8 10.9 78.55 10.8 78.55 10.75 78.5 7.55 78.6 4.35 78.7 4.6 79.45 4.85 80.2 4.75 81.6 4.65 83.0 4.45 83.45 4.25 83.95 7.7 83.95 11.2 83.95 11.0 83.45 M14.1 80.7 L14.8 77.85 14.8 77.7 14.8 77.55 14.4 77.55 14.0 77.55 13.05 78.45 12.1 79.35 11.95 80.7 11.85 82.05 12.45 83.0 13.05 84.0 13.2 83.75 13.4 83.55 14.1 80.7 M-20.85 82.45 L-21.25 81.25 -20.85 79.85 -20.45 78.45 -29.15 78.25 -37.85 78.05 -40.6 77.95 -43.35 77.85 -48.85 77.7 -54.4 77.55 -54.9 77.0 -55.45 76.5 -55.4 50.7 -55.35 24.95 -55.1 15.0 -54.85 5.1 -54.45 4.75 -54.1 4.35 -37.15 4.05 -20.25 3.75 12.75 3.75 45.75 3.7 46.3 4.25 46.85 4.8 47.1 20.15 47.35 35.55 47.1 46.45 46.8 57.35 46.45 65.55 46.05 73.75 45.9 75.05 45.7 76.35 45.15 76.9 44.55 77.5 40.4 77.65 36.2 77.85 30.55 77.95 24.9 78.1 22.5 78.25 20.1 78.4 20.45 79.4 20.8 80.35 20.8 81.0 20.8 81.7 20.45 82.7 20.1 83.75 26.95 83.55 33.85 83.35 42.95 83.0 52.1 82.7 52.25 82.55 52.4 82.4 52.6 75.25 52.85 68.15 53.1 55.05 53.4 41.9 53.2 19.7 53.05 -2.5 51.45 -2.65 49.85 -2.75 40.15 -3.05 30.4 -3.3 18.1 -3.6 5.75 -3.9 -13.05 -3.75 -31.8 -3.6 -41.9 -3.35 -52.0 -3.1 -58.9 -2.9 -65.8 -2.7 -65.9 -1.9 -66.05 -1.05 -66.35 17.9 -66.65 36.85 -66.45 59.4 -66.3 81.95 -66.2 82.0 -66.15 82.1 -52.8 82.6 -39.4 83.15 -33.25 83.35 -27.05 83.6 -23.75 83.65 -20.45 83.65 -20.85 82.45 -20.85 82.45 M-12.75 81.35 L-12.75 80.35 -13.25 79.45 -13.75 78.55 -14.6 78.05 -15.5 77.55 -16.25 77.55 -17.05 77.55 -16.3 78.55 -15.55 79.55 -14.4 80.95 -13.25 82.35 -13.0 82.35 -12.75 82.35 -12.75 81.35 M3.45 81.2 L3.4 80.35 1.65 80.3 -0.05 80.2 -2.0 80.4 -3.95 80.6 -4.05 81.2 -4.15 81.8 -2.5 81.9 -0.8 82.0 1.35 82.05 3.55 82.1 3.45 81.2 M-68.95 80.3 L-68.95 79.55 -68.95 53.7 -68.95 27.85 -69.15 27.65 -69.4 27.45 -75.65 27.7 -81.95 28.0 -83.3 28.15 -84.7 28.3 -84.65 41.85 -84.55 55.4 -83.65 55.6 -82.75 55.8 -78.4 56.0 -74.05 56.15 -74.15 63.6 -74.25 71.05 -73.95 75.2 -73.65 79.3 -73.5 80.15 -73.35 81.0 -71.15 81.0 -68.95 81.0 -68.95 80.3 -68.95 80.3 M-80.7 43.05 L-80.95 42.7 -81.15 41.05 -81.35 39.4 -80.8 39.15 -80.25 38.85 -76.8 39.0 -73.35 39.2 -73.0 39.55 -72.6 39.95 -72.6 40.3 -72.6 40.65 -73.0 41.0 -73.45 41.3 -76.55 41.15 -79.7 41.0 -79.7 41.75 -79.7 42.5 -79.85 42.95 -80.05 43.35 -80.25 43.35 -80.45 43.35 -80.7 43.05 M-81.1 35.1 L-81.25 33.4 -80.85 33.0 -80.5 32.6 -76.8 32.6 -73.05 32.6 -72.8 33.1 -72.5 33.55 -72.8 34.0 -73.05 34.45 -76.5 34.55 -79.95 34.6 -80.0 35.6 -80.1 36.6 -80.5 36.65 -80.95 36.75 -81.1 35.1 M2.95 79.55 L3.05 79.45 2.55 78.85 2.05 78.3 1.3 77.9 0.55 77.5 -0.75 77.65 -2.05 77.75 -2.8 78.5 -3.6 79.25 -3.6 79.55 -3.6 79.85 -0.35 79.75 2.85 79.65 2.95 79.55 M-74.9 78.8 L-74.8 78.15 -75.05 76.45 -75.35 74.8 -75.35 65.95 -75.4 57.15 -78.55 57.15 -81.7 57.1 -83.1 56.9 -84.5 56.7 -84.4 67.65 -84.25 78.65 -84.15 78.75 -84.0 78.9 -81.15 79.1 -78.25 79.35 -76.65 79.4 -75.05 79.45 -74.9 78.8 -74.9 78.8 M24.9 75.75 L30.95 75.45 37.15 75.3 43.4 75.15 43.55 74.3 43.65 73.45 44.1 63.25 44.55 53.05 44.7 40.95 44.85 28.9 44.65 17.75 44.4 6.65 44.25 6.4 44.05 6.2 17.95 6.2 -8.15 6.2 -29.95 6.5 -51.75 6.8 -52.05 6.9 -52.35 7.0 -52.5 11.45 -52.65 15.9 -52.85 25.3 -53.05 34.75 -53.0 54.85 -52.95 74.95 -52.9 75.05 -52.8 75.1 -42.05 75.4 -31.25 75.75 -21.8 75.9 -12.35 76.05 -12.25 76.2 -12.1 76.3 3.4 76.15 18.85 76.0 24.9 75.75 24.9 75.75 M-75.1 25.55 L-69.1 25.3 -69.05 25.25 -69.0 25.2 -68.7 12.45 -68.45 -0.25 -68.65 -0.5 -68.9 -0.7 -74.75 -0.4 -80.65 -0.1 -82.35 0.1 -84.05 0.25 -84.2 6.35 -84.35 12.45 -84.4 19.25 -84.45 26.05 -82.8 25.95 -81.15 25.85 -75.1 25.55" fill="#4f4f4f" fill-rule="evenodd" stroke="none"/>
    <path d="M-14.2 86.4 L-17.1 86.35 -26.3 86.05 -35.45 85.8 -49.9 85.25 -64.35 84.75 -66.3 84.6 -68.2 84.4 -68.5 83.65 -68.8 82.9 -71.3 82.75 -73.8 82.6 -74.35 82.35 -74.85 82.1 -80.05 81.7 -85.25 81.3 -85.8 81.0 -86.3 80.7 -86.55 80.0 -86.85 79.3 -87.0 52.75 -87.15 26.25 -86.8 12.45 -86.5 -1.35 -86.15 -1.7 -85.75 -2.1 -82.55 -2.45 -79.3 -2.75 -73.85 -2.95 -68.4 -3.15 -68.4 -3.75 -68.4 -4.4 -67.85 -4.95 -67.35 -5.5 -67.0 -5.35 -66.6 -5.2 -51.95 -5.6 -37.3 -5.95 -23.6 -6.15 -9.9 -6.3 -9.9 -6.5 -9.9 -6.7 -13.5 -9.1 -17.1 -11.45 -20.8 -13.85 -24.5 -16.3 -25.5 -16.7 -26.55 -17.1 -28.4 -17.5 -30.2 -17.85 -33.9 -19.55 -37.55 -21.3 -39.0 -21.75 -40.45 -22.2 -41.55 -23.15 -42.7 -24.05 -43.1 -24.45 -43.5 -24.85 -43.2 -25.2 -42.9 -25.6 -42.2 -25.2 -41.5 -24.85 -40.9 -24.15 -40.25 -23.5 -38.8 -23.05 -37.35 -22.65 -33.55 -20.85 -29.7 -19.05 -27.75 -18.7 -25.75 -18.4 -24.35 -17.75 -22.9 -17.1 -18.95 -14.4 -15.0 -11.7 -11.3 -9.1 -7.55 -6.5 -7.15 -6.5 -6.75 -6.5 -5.5 -7.9 -4.25 -9.25 -1.85 -11.75 0.5 -14.25 1.55 -15.2 2.6 -16.2 5.4 -19.05 8.25 -21.9 9.7 -21.9 11.15 -21.9 13.55 -22.45 16.0 -23.0 17.75 -23.6 19.5 -24.25 21.4 -25.9 23.35 -27.55 24.5 -28.3 25.7 -29.05 26.35 -29.0 26.95 -28.9 27.05 -28.6 27.2 -28.25 26.3 -27.85 25.4 -27.5 23.95 -26.35 22.55 -25.25 21.4 -24.2 20.3 -23.2 19.05 -22.65 17.8 -22.1 14.95 -21.45 12.1 -20.8 10.6 -20.8 9.05 -20.8 4.1 -15.9 -0.8 -11.0 -2.0 -9.85 -3.2 -8.75 -4.05 -7.65 -4.9 -6.55 3.95 -6.4 12.85 -6.2 23.7 -5.95 34.6 -5.7 44.35 -5.45 54.05 -5.15 54.6 -5.05 55.15 -4.9 55.35 -4.45 55.55 -4.0 55.7 22.4 55.8 48.8 55.5 60.2 55.2 71.6 55.05 77.95 54.9 84.3 54.45 84.7 54.0 85.15 40.5 85.6 27.0 86.1 17.7 86.35 8.35 86.6 -1.5 86.55 -11.3 86.5 -14.2 86.4 M1.75 84.5 L2.5 84.0 2.9 83.45 3.3 82.85 3.2 82.75 3.1 82.7 -0.2 82.5 -3.55 82.3 -3.7 82.55 -3.8 82.8 -3.4 83.4 -3.0 84.0 -2.15 84.5 -1.35 85.0 -0.15 85.0 1.0 85.0 1.75 84.5 1.75 84.5 M-15.4 84.55 L-15.4 84.35 -17.25 82.0 -19.15 79.7 -19.35 79.7 -19.55 79.7 -19.7 80.5 -19.9 81.3 -19.6 82.15 -19.3 83.05 -18.75 83.6 -18.15 84.15 -17.5 84.45 -16.85 84.7 -16.1 84.7 -15.4 84.75 -15.4 84.55 -15.4 84.55 M16.6 81.35 L17.45 78.0 17.2 77.8 17.0 77.55 16.25 77.5 15.5 77.45 14.65 80.85 13.75 84.3 14.1 84.5 14.4 84.7 15.05 84.75 15.7 84.75 16.6 81.35 16.6 81.35 M17.1 84.35 L17.8 84.0 18.45 83.3 19.05 82.65 19.2 81.35 19.3 80.1 18.75 79.2 18.2 78.35 18.0 78.5 17.75 78.6 17.6 79.35 17.45 80.1 16.8 82.4 16.15 84.75 16.3 84.75 16.4 84.75 17.1 84.35 M-13.8 83.7 L-13.2 83.25 -15.35 80.55 -17.55 77.85 -17.7 77.85 -17.9 77.85 -18.55 78.35 -19.2 78.85 -18.3 80.0 -17.4 81.15 -16.2 82.65 -15.0 84.15 -14.7 84.2 -14.4 84.2 -13.8 83.7 -13.8 83.7 M-4.8 83.45 L-5.0 83.0 -5.0 81.3 -5.0 79.55 -4.8 79.1 -4.55 78.65 -8.25 78.65 -11.95 78.65 -11.7 79.3 -11.45 80.0 -11.45 81.05 -11.45 82.1 -11.85 83.0 -12.2 83.95 -8.4 83.95 -4.55 83.95 -4.8 83.45 M11.05 83.55 L10.9 83.15 10.6 82.1 10.3 81.0 10.55 80.15 10.8 79.3 11.0 78.8 11.2 78.3 7.85 78.45 4.45 78.65 4.35 78.75 4.25 78.85 4.55 79.45 4.9 80.05 4.75 81.5 4.65 83.0 4.45 83.45 4.25 83.95 7.7 83.95 11.2 83.95 11.05 83.55 M14.1 80.95 L14.8 77.95 14.8 77.6 14.8 77.25 13.7 77.9 12.65 78.5 12.3 79.2 11.9 79.95 11.9 81.05 11.9 82.2 12.45 83.1 12.95 83.95 13.15 83.95 13.4 83.95 14.1 80.95 14.1 80.95 M-20.8 82.45 L-21.15 81.25 -20.95 80.25 -20.7 79.3 -20.5 78.85 -20.3 78.35 -23.55 78.3 -26.8 78.25 -28.5 78.25 -30.2 78.2 -36.5 78.0 -42.85 77.85 -48.55 77.65 -54.3 77.5 -54.8 77.05 -55.25 76.55 -55.45 73.15 -55.65 69.75 -55.45 47.05 -55.3 24.4 -55.05 14.7 -54.8 5.05 -54.4 4.75 -53.95 4.45 -47.35 4.25 -40.75 4.1 -23.9 3.85 -7.1 3.65 19.15 3.7 45.4 3.75 45.95 4.05 46.55 4.4 46.75 5.1 46.95 5.85 46.95 31.15 46.95 56.5 46.65 61.35 46.3 66.15 46.0 71.0 45.7 75.85 45.35 76.55 45.0 77.3 44.4 77.4 43.8 77.55 35.4 77.8 27.0 78.1 23.8 78.15 20.65 78.15 20.35 78.35 20.05 78.5 20.45 79.65 20.85 80.8 20.7 81.75 20.5 82.75 20.25 83.25 20.0 83.75 27.3 83.55 34.6 83.35 43.35 83.05 52.1 82.7 52.25 82.55 52.4 82.35 52.65 75.15 52.9 67.9 53.1 58.1 53.35 48.25 53.2 22.95 53.05 -2.4 52.95 -2.5 52.85 -2.65 42.7 -2.95 32.5 -3.3 18.45 -3.6 4.45 -3.95 -13.05 -3.75 -30.5 -3.6 -43.1 -3.3 -55.7 -3.0 -60.8 -2.85 -65.95 -2.65 -66.15 5.15 -66.4 13.0 -66.4 47.4 -66.45 81.8 -66.25 81.95 -66.1 82.1 -53.05 82.65 -39.95 83.15 -33.65 83.35 -27.35 83.6 -23.9 83.65 -20.45 83.65 -20.8 82.45 -20.8 82.45 M-12.75 81.2 L-12.75 80.1 -13.3 79.25 -13.8 78.4 -14.6 78.0 -15.35 77.55 -16.2 77.55 -17.0 77.55 -16.9 77.8 -16.85 78.0 -15.0 80.3 -13.2 82.55 -12.95 82.45 -12.75 82.3 -12.75 81.2 -12.75 81.2 M3.5 81.15 L3.5 80.2 0.7 80.25 -2.15 80.25 -3.1 80.4 -4.1 80.55 -4.1 81.15 -4.1 81.75 -3.95 81.9 -3.75 82.1 -0.1 82.1 3.5 82.1 3.5 81.15 3.5 81.15 M-68.95 80.3 L-68.95 79.55 -68.95 53.6 -68.95 27.6 -69.05 27.5 -69.15 27.4 -76.35 27.7 -83.5 28.0 -84.1 28.15 -84.7 28.25 -84.7 41.9 -84.7 55.5 -83.3 55.7 -81.95 55.9 -78.05 56.05 -74.15 56.2 -74.2 64.1 -74.2 72.0 -73.95 75.9 -73.65 79.85 -73.5 80.4 -73.4 81.0 -71.15 81.0 -68.95 81.0 -68.95 80.3 -68.95 80.3 M-80.7 43.05 L-81.0 42.7 -81.05 41.0 -81.15 39.35 -80.8 39.15 -80.45 38.9 -77.0 39.05 -73.55 39.2 -73.1 39.6 -72.6 40.0 -72.6 40.2 -72.6 40.4 -73.05 40.85 -73.5 41.3 -76.65 41.2 -79.8 41.1 -79.9 42.05 -80.0 42.95 -80.2 43.15 -80.4 43.4 -80.7 43.05 M-81.1 35.2 L-81.2 33.7 -81.0 33.25 -80.8 32.85 -79.0 32.65 -77.2 32.5 -75.45 32.5 -73.65 32.5 -73.15 32.75 -72.6 33.05 -72.6 33.4 -72.6 33.75 -73.05 34.2 -73.45 34.6 -76.7 34.6 -79.9 34.6 -80.05 35.05 -80.25 35.45 -80.25 36.1 -80.25 36.75 -80.6 36.75 -80.95 36.75 -81.1 35.2 M1.5 79.7 L3.25 79.7 2.95 79.2 2.6 78.65 1.65 78.1 0.7 77.55 -0.5 77.55 -1.7 77.55 -2.5 78.25 -3.35 78.95 -3.6 79.5 -3.9 80.05 -2.1 79.85 -0.3 79.7 1.5 79.7 1.5 79.7 M-74.9 78.85 L-74.75 78.25 -75.0 76.25 -75.25 74.25 -75.4 68.4 -75.55 62.6 -75.3 59.9 -75.1 57.2 -79.3 57.1 -83.5 56.95 -84.0 56.75 -84.5 56.55 -84.4 67.55 -84.3 78.6 -84.15 78.75 -84.0 78.9 -81.4 79.1 -78.8 79.35 -76.9 79.4 -75.05 79.45 -74.9 78.85 M31.2 75.6 L43.25 75.2 43.4 75.05 43.55 74.9 43.85 68.6 44.15 62.3 44.45 55.7 44.8 49.05 44.8 37.5 44.85 26.0 44.65 16.2 44.45 6.4 44.35 6.3 44.25 6.2 17.9 6.2 -8.45 6.2 -30.35 6.5 -52.3 6.8 -52.4 6.95 -52.55 7.05 -52.75 15.75 -52.95 24.4 -53.0 49.65 -53.05 74.85 -52.9 75.0 -52.75 75.15 -48.85 75.3 -44.95 75.4 -31.55 75.7 -18.15 76.0 -16.95 76.05 -15.8 76.15 1.65 76.1 19.15 76.05 31.2 75.6 M-76.7 25.7 L-73.0 25.6 -71.0 25.4 -69.0 25.25 -68.85 17.15 -68.7 9.0 -68.5 4.15 -68.35 -0.75 -72.4 -0.55 -76.45 -0.4 -80.25 -0.1 -84.1 0.2 -84.25 9.65 -84.45 19.1 -84.45 22.4 -84.5 25.7 -84.45 25.95 -84.45 26.15 -82.4 26.0 -80.35 25.85 -76.7 25.7" fill="#2d2d2d" fill-rule="evenodd" stroke="none"/>
    <path d="M-14.45 86.3 L-23.4 86.1 -31.95 85.8 -40.45 85.5 -53.9 85.0 -67.35 84.45 -67.75 84.3 -68.2 84.15 -68.55 83.35 -68.95 82.6 -71.55 82.6 -74.15 82.6 -74.45 82.2 -74.8 81.8 -76.5 81.8 -78.25 81.8 -82.05 81.45 -85.8 81.1 -86.15 80.65 -86.5 80.2 -86.65 75.75 -86.85 71.35 -86.9 45.9 -86.95 20.4 -86.7 9.6 -86.45 -1.2 -86.15 -1.65 -85.8 -2.1 -80.75 -2.45 -75.65 -2.8 -72.05 -2.95 -68.4 -3.1 -68.4 -3.6 -68.4 -4.05 -67.95 -4.6 -67.5 -5.1 -54.25 -5.4 -41.0 -5.7 -26.3 -6.0 -11.6 -6.25 -10.4 -6.3 -9.25 -6.35 -12.9 -8.8 -16.55 -11.2 -20.55 -13.75 -24.55 -16.35 -25.8 -16.85 -27.05 -17.3 -28.4 -17.5 -29.7 -17.7 -33.1 -19.3 -36.5 -20.85 -38.55 -21.6 -40.55 -22.35 -41.9 -23.5 -43.2 -24.65 -43.2 -25.0 -43.2 -25.35 -42.7 -25.35 -42.15 -25.35 -41.15 -24.4 -40.1 -23.45 -38.3 -22.85 -36.5 -22.2 -33.1 -20.6 -29.65 -19.0 -28.0 -18.7 -26.35 -18.45 -25.05 -18.0 -23.75 -17.6 -18.2 -13.8 -12.65 -10.05 -9.95 -8.15 -7.3 -6.3 -6.2 -7.05 -5.15 -7.85 -5.15 -8.05 -5.15 -8.3 -1.3 -12.25 2.6 -16.2 4.45 -17.95 6.25 -19.7 7.2 -20.8 8.15 -21.9 9.75 -21.9 11.35 -21.9 13.65 -22.45 16.0 -22.95 17.6 -23.5 19.25 -24.05 21.8 -26.15 24.35 -28.25 25.25 -28.65 26.1 -29.1 26.55 -29.0 26.95 -28.9 27.05 -28.6 27.15 -28.25 26.2 -27.85 25.2 -27.45 24.0 -26.45 22.8 -25.5 21.65 -24.45 20.55 -23.45 19.15 -22.8 17.8 -22.15 14.85 -21.5 11.95 -20.8 10.45 -20.8 9.0 -20.8 6.2 -17.95 3.4 -15.1 -0.05 -11.8 -3.45 -8.5 -4.35 -7.35 -5.2 -6.25 1.7 -6.25 8.65 -6.25 19.25 -6.0 29.9 -5.7 39.2 -5.45 48.55 -5.15 51.65 -5.05 54.75 -4.95 55.15 -4.6 55.5 -4.2 55.55 26.25 55.6 56.75 55.3 67.5 54.95 78.25 54.85 81.2 54.75 84.15 54.5 84.55 54.3 85.0 50.9 85.15 47.5 85.25 40.5 85.55 33.55 85.8 24.0 86.05 14.4 86.3 4.45 86.4 -5.55 86.5 -14.45 86.3 M1.75 84.55 L2.45 84.2 2.9 83.55 3.3 82.85 3.2 82.7 3.05 82.55 -0.4 82.4 -3.85 82.25 -3.85 82.6 -3.85 82.9 -3.0 83.85 -2.15 84.75 -1.2 85.0 -0.3 85.2 0.35 85.05 1.0 84.9 1.75 84.55 M-15.5 84.35 L-15.65 83.95 -17.4 81.7 -19.2 79.45 -19.4 79.45 -19.55 79.45 -19.75 80.35 -19.9 81.3 -19.75 81.95 -19.6 82.55 -18.9 83.4 -18.2 84.25 -17.65 84.5 -17.1 84.7 -16.2 84.7 -15.35 84.75 -15.5 84.35 -15.5 84.35 M16.65 81.4 L17.5 78.0 17.0 77.65 16.55 77.3 16.0 77.3 15.45 77.3 14.55 80.8 13.7 84.3 14.05 84.5 14.4 84.7 15.1 84.75 15.75 84.75 16.65 81.4 16.65 81.4 M17.9 84.0 L18.5 83.6 18.9 82.85 19.25 82.1 19.25 81.15 19.25 80.15 18.85 79.25 18.4 78.35 18.1 78.35 17.8 78.35 17.05 81.15 16.35 83.95 16.2 84.35 16.05 84.8 16.65 84.6 17.3 84.4 17.9 84.0 M-13.8 83.7 L-13.2 83.2 -15.05 80.85 -16.95 78.45 -17.35 78.1 -17.75 77.75 -18.4 78.2 -19.05 78.65 -19.05 78.9 -19.05 79.15 -17.05 81.7 -15.0 84.2 -14.7 84.2 -14.4 84.2 -13.8 83.7 -13.8 83.7 M-4.35 84.1 L-4.35 84.0 -4.8 83.15 -5.2 82.3 -5.1 80.95 -4.95 79.55 -4.8 79.15 -4.6 78.7 -6.25 78.55 -7.85 78.35 -9.95 78.35 -12.05 78.35 -11.85 78.95 -11.7 79.55 -11.55 80.65 -11.4 81.7 -11.8 82.7 -12.25 83.75 -12.1 83.95 -11.95 84.2 -8.15 84.2 -4.35 84.2 -4.35 84.1 M11.2 84.05 L11.35 83.85 10.95 83.1 10.55 82.3 10.65 80.8 10.75 79.3 10.95 78.85 11.2 78.35 7.7 78.35 4.25 78.35 4.4 78.95 4.6 79.55 4.75 80.75 4.9 81.95 4.45 83.0 4.05 84.0 4.05 84.1 4.05 84.2 7.55 84.2 11.05 84.2 11.2 84.05 M-20.5 83.35 L-20.7 82.75 -20.85 81.5 -20.95 80.2 -20.65 79.4 -20.4 78.55 -20.45 78.45 -20.55 78.35 -23.7 78.25 -26.8 78.1 -33.1 77.95 -39.4 77.85 -45.85 77.7 -52.3 77.55 -53.4 77.4 -54.5 77.3 -54.9 76.7 -55.3 76.15 -55.3 54.5 -55.3 32.9 -55.0 19.1 -54.75 5.3 -54.3 4.85 -53.85 4.45 -31.0 4.15 -8.15 3.85 18.7 3.85 45.55 3.85 46.15 4.45 46.75 5.1 46.95 21.25 47.15 37.4 47.0 45.6 46.85 53.85 46.45 61.8 46.0 69.75 45.8 73.0 45.6 76.25 45.05 76.8 44.55 77.35 36.15 77.6 27.8 77.85 26.85 77.95 25.95 78.1 22.95 78.1 20.0 78.1 20.2 78.7 20.4 79.3 20.4 81.0 20.45 82.75 20.2 83.35 20.0 84.0 23.35 83.85 26.75 83.65 36.2 83.4 45.65 83.1 49.05 82.9 52.45 82.75 52.65 78.65 52.8 74.5 53.15 60.85 53.45 47.15 53.35 22.45 53.2 -2.3 52.95 -2.5 52.75 -2.75 43.3 -3.05 33.85 -3.3 23.45 -3.6 13.1 -3.9 -3.45 -3.9 -20.0 -3.9 -33.75 -3.6 -47.55 -3.3 -56.7 -3.05 -65.85 -2.8 -65.95 -2.7 -66.05 -2.65 -66.3 9.55 -66.6 21.75 -66.55 50.1 -66.5 78.5 -66.35 80.35 -66.2 82.2 -58.85 82.5 -51.5 82.85 -38.9 83.25 -26.3 83.7 -24.45 83.75 -22.6 83.85 -21.45 83.9 -20.3 83.95 -20.5 83.35 -20.5 83.35 M14.2 80.7 L15.05 77.45 14.9 77.35 14.8 77.25 13.8 77.75 12.85 78.25 12.2 79.5 11.6 80.7 11.8 81.65 11.95 82.6 12.5 83.3 13.0 83.95 13.2 83.95 13.4 83.95 14.2 80.7 M-12.75 81.2 L-12.75 80.1 -13.3 79.25 -13.8 78.4 -14.6 78.0 -15.35 77.55 -16.3 77.55 -17.25 77.55 -15.25 80.1 -13.25 82.6 -13.0 82.45 -12.75 82.3 -12.75 81.2 -12.75 81.2 M3.5 81.15 L3.5 80.2 0.1 80.2 -3.25 80.2 -3.7 80.4 -4.1 80.55 -4.1 81.15 -4.1 81.75 -3.95 81.9 -3.75 82.1 -0.1 82.1 3.5 82.1 3.5 81.15 M-68.85 80.3 L-68.75 79.55 -68.9 53.5 -69.05 27.45 -69.7 27.45 -70.4 27.45 -77.55 27.75 -84.7 28.05 -84.7 41.8 -84.7 55.5 -83.7 55.7 -82.75 55.9 -78.4 56.05 -74.05 56.2 -74.15 56.75 -74.2 57.3 -74.2 65.0 -74.25 72.7 -73.95 76.55 -73.65 80.35 -73.55 80.7 -73.4 81.0 -71.2 81.0 -69.0 81.0 -68.85 80.3 -68.85 80.3 M-80.9 42.5 L-81.05 41.85 -80.95 40.55 -80.9 39.25 -77.8 39.15 -74.75 39.1 -73.85 39.3 -73.0 39.55 -72.9 40.05 -72.85 40.55 -73.3 40.9 -73.8 41.25 -76.9 41.05 -79.95 40.9 -79.95 42.0 -79.95 43.1 -80.35 43.1 -80.75 43.1 -80.9 42.5 M-80.85 36.55 L-81.0 36.35 -81.0 34.85 -81.0 33.35 -80.7 33.05 -80.35 32.75 -76.9 32.75 -73.45 32.7 -73.15 32.85 -72.9 33.05 -72.9 33.55 -72.9 34.05 -73.2 34.25 -73.55 34.45 -76.8 34.6 -80.1 34.75 -80.2 35.75 -80.25 36.75 -80.45 36.75 -80.65 36.75 -80.85 36.55 M2.0 79.8 L3.25 79.6 3.0 79.15 2.75 78.7 1.85 78.15 0.95 77.55 -0.3 77.55 -1.5 77.55 -2.3 77.95 -3.05 78.4 -3.45 79.15 -3.85 79.95 -1.5 79.95 0.8 79.95 2.0 79.8 M-74.85 78.25 L-74.9 76.9 -75.2 71.6 -75.55 66.3 -75.4 62.45 -75.2 58.6 -75.1 57.9 -74.95 57.25 -78.85 57.05 -82.75 56.9 -83.75 56.7 -84.75 56.55 -84.55 67.65 -84.35 78.75 -84.25 78.9 -84.15 79.05 -80.4 79.35 -76.7 79.65 -75.75 79.6 -74.85 79.55 -74.85 78.25 -74.85 78.25 M19.5 75.95 L29.9 75.7 36.7 75.45 43.5 75.2 43.55 75.15 43.6 75.05 44.05 66.45 44.5 57.8 44.8 49.2 45.05 40.55 44.85 23.45 44.6 6.35 36.7 6.15 28.85 5.95 3.75 6.1 -21.3 6.25 -36.75 6.5 -52.25 6.75 -52.45 6.95 -52.65 7.15 -52.85 18.45 -53.1 29.7 -53.15 52.45 -53.2 75.2 -53.0 75.2 -52.8 75.2 -51.9 75.3 -50.95 75.4 -42.55 75.6 -34.15 75.75 -31.8 75.85 -29.45 75.95 -17.1 76.15 -4.75 76.3 -4.7 76.35 -4.65 76.4 2.25 76.3 9.15 76.25 19.5 75.95 M-73.6 25.7 L-69.0 25.5 -68.85 23.65 -68.7 21.75 -68.55 10.55 -68.4 -0.65 -71.2 -0.65 -74.05 -0.65 -77.85 -0.4 -81.7 -0.15 -82.9 0.0 -84.1 0.15 -84.25 4.45 -84.45 8.75 -84.6 17.45 -84.75 26.2 -81.5 26.05 -78.25 25.85 -73.6 25.7" fill="#020202" fill-rule="evenodd" stroke="none"/>
  </g>
</svg>
