<?xml version="1.0" encoding="UTF-8" standalone="no"?>
<svg xmlns:xlink="http://www.w3.org/1999/xlink" height="42.65px" width="114.35px" xmlns="http://www.w3.org/2000/svg">
  <g transform="matrix(1.0, 0.0, 0.0, 1.0, -9.2, 37.45)">
    <path d="M115.4 -28.0 Q115.05 -28.55 114.75 -29.05 114.4 -29.6 114.05 -30.1 113.75 -30.6 113.4 -31.1 113.1 -31.6 112.75 -32.1 112.4 -32.55 112.1 -33.0 111.75 -33.45 111.45 -33.9 111.1 -34.35 110.8 -34.8 110.45 -35.2 110.15 -35.65 109.65 -35.15 109.15 -34.7 108.65 -34.2 108.15 -33.7 107.65 -33.25 107.15 -32.75 106.65 -32.25 106.15 -31.8 105.6 -31.3 105.1 -30.85 104.55 -30.35 104.0 -29.9 103.5 -29.45 102.95 -28.95 102.4 -28.5 101.85 -28.05 96.55 -23.65 90.8 -19.85 85.3 -16.2 79.4 -13.15 73.8 -10.2 67.85 -7.8 62.25 -5.5 56.35 -3.7 50.85 -1.95 45.05 -0.65 39.7 0.6 34.1 1.5 29.05 2.3 23.75 2.85 19.0 3.35 14.15 3.6 15.3 3.9 16.45 4.25 17.65 4.55 18.85 4.85 20.05 5.15 21.3 5.4 22.55 5.7 23.8 5.95 25.1 6.25 26.4 6.5 27.75 6.75 29.1 6.95 30.45 7.2 31.8 7.4 33.2 7.6 34.6 7.75 34.65 7.65 34.75 7.5 34.8 7.4 34.85 7.25 34.95 7.1 35.0 7.0 35.0 7.0 35.0 7.0 35.05 6.8 35.05 6.85 34.95 7.05 35.0 7.0 35.0 7.0 34.95 7.05 35.05 6.9 35.05 6.8 35.05 6.75 35.1 6.7 35.1 6.65 35.15 6.55 35.15 6.5 35.15 6.45 35.2 6.4 35.2 6.35 35.2 6.3 35.25 6.25 35.25 6.2 35.25 6.1 35.3 6.05 35.3 6.0 35.3 5.95 35.3 5.9 35.3 5.9 35.3 5.9 35.3 5.75 35.35 5.6 35.4 5.45 35.45 5.3 35.5 5.2 35.6 5.05 35.65 4.95 35.75 4.85 35.85 4.75 35.95 4.65 36.1 4.6 36.2 4.55 36.35 4.5 36.5 4.45 36.65 4.4 36.8 4.4 36.85 4.4 36.95 4.4 37.0 4.4 37.1 4.45 37.15 4.45 37.2 4.45 37.3 4.5 37.35 4.5 37.4 4.55 37.5 4.6 37.55 4.6 37.6 4.65 37.7 4.7 37.75 4.75 37.8 4.8 37.85 4.85 37.9 4.9 37.95 4.95 38.0 5.0 38.0 5.05 38.05 5.1 38.1 5.2 38.15 5.25 38.15 5.3 38.2 5.4 38.2 5.45 38.25 5.55 38.25 5.6 38.25 5.7 38.25 5.75 38.25 5.8 38.25 5.9 38.25 6.05 38.2 6.2 38.2 6.35 38.2 6.45 38.15 6.6 38.15 6.75 38.1 6.9 38.05 7.05 38.05 7.15 38.0 7.3 37.95 7.45 37.9 7.6 37.85 7.7 37.8 7.85 37.75 8.0 37.7 8.1 38.9 8.25 40.5 8.35 40.55 8.0 40.65 7.65 40.7 7.3 40.8 6.95 40.9 6.6 41.05 6.25 41.15 5.95 41.25 5.55 41.35 5.25 41.5 4.9 41.6 4.65 41.75 4.2 41.95 3.75 42.0 3.55 42.15 3.15 42.25 2.85 42.3 2.7 42.4 2.55 42.45 2.45 42.55 2.35 42.65 2.2 42.75 2.15 42.85 2.05 42.95 1.95 43.1 1.9 43.2 1.85 43.35 1.8 43.5 1.8 43.65 1.75 43.75 1.8 43.9 1.8 44.1 1.8 44.25 1.85 44.35 1.9 44.45 1.95 44.6 2.05 44.7 2.15 44.8 2.25 44.9 2.35 44.95 2.5 45.05 2.6 45.1 2.75 45.15 2.9 45.15 3.0 45.2 3.15 45.15 3.3 45.15 3.45 45.15 3.6 45.2 3.6 45.2 3.65 45.25 3.65 45.3 3.7 45.35 3.7 45.35 3.75 45.4 3.75 45.45 3.8 45.45 3.85 45.5 3.85 45.5 3.9 45.55 3.95 45.6 4.0 45.6 4.0 45.65 4.05 45.65 4.1 46.05 4.85 46.85 6.4 47.65 7.95 48.05 8.75 49.45 8.75 50.85 8.75 52.3 8.75 53.75 8.7 55.2 8.65 56.65 8.6 58.1 8.5 59.6 8.4 61.1 8.25 62.55 8.1 64.1 7.95 65.6 7.75 67.1 7.55 68.65 7.3 70.2 7.1 71.7 6.8 72.4 6.7 73.05 6.55 73.75 6.4 74.4 6.25 75.1 6.15 75.75 6.0 76.4 5.85 77.1 5.7 77.75 5.55 78.4 5.4 79.0 5.2 79.65 5.05 80.3 4.9 80.95 4.75 81.55 4.55 82.2 4.4 82.1 2.4 82.0 -1.6 84.0 1.2 86.9 5.2 88.1 4.95 89.3 4.7 90.8 4.3 92.25 3.85 94.0 3.35 95.65 2.7 97.6 1.95 99.4 1.1 101.4 0.1 103.3 -1.0 105.35 -2.25 107.25 -3.7 109.3 -5.25 111.1 -7.0 113.05 -8.9 114.7 -11.0 115.15 -11.55 115.55 -12.1 115.95 -12.65 116.3 -13.2 116.7 -13.75 117.05 -14.3 117.35 -14.85 117.7 -15.4 118.0 -15.95 118.3 -16.5 118.6 -17.0 118.9 -17.55 119.15 -18.05 119.4 -18.6 119.65 -19.1 119.85 -19.65 119.65 -20.15 119.4 -20.6 119.15 -21.1 118.9 -21.6 118.65 -22.15 118.4 -22.65 118.15 -23.15 117.85 -23.7 117.55 -24.2 117.3 -24.75 117.0 -25.3 116.7 -25.8 116.35 -26.35 116.05 -26.9 115.7 -27.45 115.4 -28.0 L115.4 -28.0" fill="#3b4dbc" fill-rule="evenodd" stroke="none"/>
  </g>
</svg>
