<?xml version="1.0" encoding="UTF-8" standalone="no"?>
<svg xmlns:xlink="http://www.w3.org/1999/xlink" height="102.6px" width="27.8px" xmlns="http://www.w3.org/2000/svg">
  <g transform="matrix(1.0, 0.0, 0.0, 1.0, 13.9, 51.3)">
    <path d="M-10.9 -36.95 Q-10.45 -36.35 -9.95 -35.75 -9.5 -35.1 -9.05 -34.5 -8.6 -33.85 -8.15 -33.2 -7.65 -32.55 -7.25 -31.9 -6.8 -31.25 -6.35 -30.55 -5.9 -29.9 -5.45 -29.2 -5.0 -28.5 -4.6 -27.8 -4.15 -27.1 -3.75 -26.4 -0.9 -21.55 1.35 -16.45 3.55 -11.6 5.2 -6.5 6.8 -1.7 7.9 3.3 9.0 8.0 9.65 12.85 10.3 17.3 10.6 21.9 10.85 26.1 10.85 30.45 10.9 34.3 10.65 38.25 10.45 41.7 10.1 45.2 11.0 44.95 13.3 44.35 13.8 42.85 14.3 41.35 14.85 39.45 15.35 37.5 15.95 35.25 16.35 32.9 16.9 30.25 17.2 27.6 17.6 24.6 17.75 21.65 17.9 18.4 17.8 15.1 17.7 11.6 17.25 8.1 16.8 4.35 16.0 0.65 15.25 -2.9 14.15 -6.3 13.15 -9.45 11.9 -12.55 10.7 -15.4 9.3 -18.15 8.0 -20.65 6.5 -23.15 5.2 -25.35 3.65 -27.5 2.35 -29.4 0.9 -31.35 -0.3 -32.9 -1.75 -34.6 -2.55 -35.6 -4.05 -37.35 -5.2 -38.7 -6.35 -39.95 -7.45 -41.1 -8.5 -42.15 -9.5 -43.15 -10.5 -44.0 -11.4 -44.8 -12.3 -45.55 -13.2 -46.2 -14.05 -46.8 -14.8 -47.4 -15.6 -47.85 -16.35 -48.3 -17.1 -48.75 -17.75 -49.1 -18.45 -49.45 -19.95 -50.2 -21.55 -50.8 -23.0 -51.4 -24.55 -51.85 -25.95 -52.25 -27.45 -52.6 -28.8 -52.85 -30.15 -53.1 -31.45 -53.25 -32.75 -53.35 -33.9 -53.45 -35.1 -53.5 -36.15 -53.55 -37.2 -53.5 -38.1 -53.5 -39.0 -53.45 -29.65 -47.95 -10.9 -36.95 L-10.9 -36.95" fill="#ffff66" fill-rule="evenodd" stroke="none"/>
  </g>
</svg>
