<?xml version="1.0" encoding="UTF-8" standalone="no"?>
<svg xmlns:xlink="http://www.w3.org/1999/xlink" height="200.0px" width="200.0px" xmlns="http://www.w3.org/2000/svg">
  <g transform="matrix(1.0, 0.0, 0.0, 1.0, 100.0, 100.0)">
    <path d="M80.0 26.7 Q75.05 22.6 72.0 19.5 71.4 18.9 70.8 18.25 70.25 17.6 69.65 16.95 69.1 16.3 68.55 15.65 68.0 15.0 67.45 14.3 66.95 13.65 66.4 12.95 65.9 12.3 65.4 11.6 64.9 10.9 64.4 10.2 63.9 9.5 63.45 8.8 63.4 8.75 63.4 8.7 63.35 8.65 63.35 8.6 63.3 8.55 63.25 8.5 63.25 8.45 63.2 8.4 63.2 8.4 63.2 8.35 63.15 8.3 63.15 8.25 63.15 8.2 63.1 8.15 63.1 8.05 63.1 8.0 62.8 6.3 62.15 3.55 61.35 0.1 61.15 -0.95 59.75 -7.5 59.55 -8.6 58.4 -14.9 58.0 -16.5 57.7 -17.65 57.4 -18.85 57.1 -20.0 56.75 -21.15 56.4 -22.3 56.05 -23.45 55.65 -24.6 55.25 -25.75 54.85 -26.9 54.45 -28.05 54.0 -29.15 53.55 -30.3 53.1 -31.4 52.6 -32.55 52.15 -33.65 51.6 -34.75 51.15 -35.8 50.7 -36.75 50.2 -37.75 49.75 -38.75 49.25 -39.75 48.75 -40.7 48.25 -41.7 47.7 -42.65 47.2 -43.65 46.65 -44.6 46.1 -45.55 45.55 -46.5 44.95 -47.45 44.35 -48.4 43.75 -49.35 43.1 -50.25 42.45 -51.2 41.8 -52.1 41.1 -53.05 40.45 -53.95 39.75 -54.85 39.05 -55.7 38.3 -56.6 37.6 -57.45 36.8 -58.3 36.05 -59.15 35.25 -60.0 34.45 -60.75 33.6 -61.6 32.75 -62.35 31.85 -63.1 30.95 -63.85 30.15 -64.5 29.35 -65.05 28.55 -65.65 27.75 -66.2 26.9 -66.75 26.1 -67.25 25.25 -67.75 24.35 -68.25 23.5 -68.7 22.6 -69.15 21.7 -69.55 20.8 -69.95 19.85 -70.35 18.9 -70.7 17.95 -71.05 16.95 -71.35 16.45 -71.5 16.0 -71.6 15.5 -71.75 15.0 -71.85 14.5 -72.0 14.0 -72.1 13.5 -72.2 13.0 -72.25 12.5 -72.35 12.0 -72.4 11.5 -72.45 11.0 -72.5 10.5 -72.55 10.0 -72.55 9.5 -72.55 9.0 -72.55 8.4 -72.55 7.8 -72.5 7.2 -72.45 6.65 -72.4 6.05 -72.35 5.45 -72.3 4.85 -72.2 4.3 -72.1 3.7 -72.05 3.15 -71.95 2.55 -71.8 1.95 -71.7 1.4 -71.55 0.85 -71.45 0.25 -71.3 -0.3 -71.15 -0.45 -71.1 -0.65 -71.05 -0.8 -71.05 -0.95 -71.0 -1.1 -71.0 -1.25 -71.0 -1.4 -71.0 -1.55 -71.0 -1.7 -71.05 -1.85 -71.05 -1.95 -71.1 -2.1 -71.15 -2.25 -71.2 -2.4 -71.3 -2.55 -71.35 -2.7 -71.45 -3.05 -71.65 -3.4 -71.85 -3.75 -72.0 -4.15 -72.15 -4.5 -72.35 -4.9 -72.45 -5.25 -72.6 -5.65 -72.7 -6.05 -72.8 -6.4 -72.9 -6.8 -73.0 -7.2 -73.05 -7.6 -73.15 -8.05 -73.15 -8.45 -73.2 -8.85 -73.2 -9.2 -73.2 -9.55 -73.2 -9.9 -73.2 -10.25 -73.15 -10.6 -73.15 -10.95 -73.1 -11.3 -73.05 -11.65 -72.95 -12.0 -72.9 -12.35 -72.85 -12.7 -72.75 -13.05 -72.65 -13.35 -72.6 -13.7 -72.5 -14.05 -72.4 -14.4 -72.3 -16.85 -71.6 -20.9 -69.9 -21.7 -69.55 -22.45 -69.25 -23.2 -68.9 -23.95 -68.55 -24.7 -68.15 -25.45 -67.8 -26.2 -67.4 -26.95 -67.0 -27.65 -66.6 -28.35 -66.2 -29.1 -65.8 -29.8 -65.35 -30.5 -64.9 -31.2 -64.45 -31.9 -63.95 -32.55 -63.5 -34.95 -61.75 -38.7 -58.55 -39.2 -58.1 -39.75 -57.65 -40.25 -57.2 -40.75 -56.75 -41.25 -56.25 -41.75 -55.8 -42.25 -55.35 -42.7 -54.85 -43.2 -54.4 -43.7 -53.9 -44.15 -53.4 -44.6 -52.9 -45.1 -52.4 -45.55 -51.9 -46.0 -51.4 -46.45 -50.9 -48.65 -48.35 -52.3 -43.4 -52.65 -42.9 -53.0 -42.4 -53.4 -41.9 -53.7 -41.45 -54.05 -40.9 -54.4 -40.45 -54.7 -39.9 -55.0 -39.4 -55.35 -38.9 -55.6 -38.35 -55.9 -37.85 -56.15 -37.3 -56.45 -36.8 -56.7 -36.25 -56.95 -35.7 -57.15 -35.15 -58.0 -33.05 -59.4 -30.1 -59.5 -29.9 -59.6 -29.65 -59.7 -29.4 -59.85 -29.2 -59.95 -28.95 -60.0 -28.75 -60.1 -28.5 -60.2 -28.3 -60.3 -28.05 -60.4 -27.8 -60.5 -27.6 -60.55 -27.35 -60.65 -27.1 -60.7 -26.9 -60.8 -26.65 -60.85 -26.4 -61.3 -25.15 -61.4 -24.9 -62.85 -22.2 -64.6 -16.1 -65.8 -11.85 -67.7 -3.6 -67.9 -2.65 -68.15 -1.7 -68.35 -0.75 -68.6 0.2 -68.85 1.15 -69.05 2.05 -69.3 3.0 -69.6 3.95 -69.85 4.9 -70.1 5.8 -70.4 6.75 -70.7 7.7 -71.0 8.6 -71.3 9.55 -71.6 10.45 -71.95 11.4 -72.3 12.45 -72.7 13.4 -73.1 14.4 -73.55 15.35 -74.0 16.35 -74.45 17.3 -74.95 18.25 -75.45 19.15 -76.0 20.1 -76.55 21.0 -77.15 21.9 -77.75 22.8 -78.4 23.7 -79.05 24.5 -79.75 25.4 -80.5 26.2 -80.7 26.45 -80.85 26.6 -81.05 26.8 -81.2 27.0 -81.4 27.2 -81.6 27.35 -81.75 27.55 -81.95 27.75 -82.15 27.95 -82.35 28.1 -82.55 28.3 -82.75 28.45 -82.95 28.65 -83.15 28.8 -83.35 28.95 -83.55 29.1 -84.05 29.45 -84.35 29.65 -84.8 30.0 -85.15 30.25 -85.6 30.5 -86.0 30.75 -86.45 31.05 -86.85 31.25 -87.3 31.5 -87.7 31.75 -88.15 31.95 -88.6 32.15 -89.1 32.35 -89.55 32.5 -90.05 32.7 -90.55 32.8 -90.65 32.8 -90.7 32.85 -90.75 32.85 -90.85 32.9 -90.9 32.95 -90.95 32.95 -91.0 33.0 -91.05 33.05 -91.1 33.1 -91.15 33.15 -91.2 33.2 -91.2 33.25 -91.25 33.35 -91.25 33.4 -91.25 33.45 -91.25 33.55 -91.25 33.65 -91.25 33.7 -91.25 33.8 -91.2 33.85 -91.2 33.9 -91.15 34.0 -91.1 34.05 -91.05 34.1 -91.0 34.15 -90.95 34.2 -90.85 34.2 -90.8 34.25 -90.7 34.3 -90.65 34.3 -90.55 34.35 -90.45 34.35 -90.05 34.45 -89.7 34.5 -89.35 34.55 -89.0 34.65 -88.6 34.7 -88.25 34.75 -87.9 34.8 -87.55 34.85 -87.15 34.85 -86.8 34.9 -86.4 34.9 -86.05 34.9 -85.65 34.9 -85.3 34.85 -84.9 34.8 -84.55 34.75 -84.2 34.7 -83.8 34.6 -83.45 34.55 -83.1 34.45 -82.75 34.4 -82.4 34.3 -82.05 34.2 -81.7 34.1 -81.4 33.95 -81.05 33.85 -80.7 33.7 -80.4 33.6 -80.05 33.45 -79.75 33.3 -79.4 33.15 -79.1 32.95 -79.05 32.9 -79.05 32.9 -79.0 32.85 -79.0 32.85 -78.95 32.85 -78.9 32.85 -78.85 32.8 -78.85 32.85 -78.8 32.9 -78.8 32.95 -78.75 32.95 -78.75 33.0 -78.75 33.05 -78.8 33.1 -78.8 33.1 -78.85 33.15 -78.85 33.25 -78.9 33.25 -78.9 33.35 -78.95 33.4 -78.95 33.5 -78.95 33.55 -79.0 33.65 -79.0 33.7 -79.05 33.75 -79.1 33.85 -79.1 33.9 -79.15 34.0 -79.2 34.05 -79.25 34.15 -79.25 34.15 -79.3 34.25 -79.35 34.35 -79.4 34.4 -79.55 34.65 -79.7 34.9 -79.85 35.2 -80.0 35.45 -80.2 35.7 -80.35 35.95 -80.55 36.2 -80.7 36.4 -80.9 36.65 -81.1 36.85 -81.3 37.1 -81.55 37.3 -81.75 37.55 -82.0 37.75 -82.2 37.95 -82.45 38.15 -82.55 38.25 -82.65 38.3 -82.75 38.35 -82.85 38.45 -83.0 38.5 -83.1 38.6 -83.2 38.65 -83.3 38.7 -83.4 38.8 -83.5 38.85 -83.65 38.9 -83.75 39.0 -83.85 39.05 -84.0 39.1 -84.1 39.15 -84.2 39.2 -84.25 39.25 -84.35 39.3 -84.4 39.3 -84.45 39.35 -84.5 39.4 -84.55 39.45 -84.55 39.5 -84.6 39.55 -84.65 39.6 -84.65 39.65 -84.7 39.75 -84.7 39.8 -84.7 39.85 -84.7 39.9 -84.7 40.0 -84.7 40.05 -84.7 40.15 -84.65 40.2 -84.65 40.25 -84.6 40.3 -84.55 40.4 -84.5 40.45 -84.45 40.5 -84.4 40.5 -84.35 40.55 -84.3 40.6 -84.25 40.65 -84.15 40.65 -84.1 40.7 -84.0 40.7 -83.95 40.7 -83.85 40.75 -83.8 40.75 -83.75 40.75 -83.7 40.75 -83.65 40.75 -83.6 40.75 -83.55 40.75 -83.5 40.75 -83.45 40.75 -83.4 40.8 -83.35 40.8 -83.3 40.8 -83.25 40.8 -83.2 40.75 -83.15 40.75 -83.1 40.75 -83.05 40.75 -82.7 40.7 -82.35 40.65 -82.0 40.65 -81.65 40.55 -81.35 40.5 -81.0 40.45 -80.65 40.35 -80.3 40.25 -80.0 40.2 -79.65 40.05 -79.35 39.95 -79.0 39.85 -78.7 39.75 -78.4 39.6 -78.05 39.5 -77.75 39.35 -76.9 39.0 -76.15 38.55 -75.35 38.15 -74.6 37.7 -73.85 37.25 -73.15 36.75 -72.45 36.25 -71.8 35.7 -71.15 35.15 -70.55 34.55 -69.95 33.95 -69.4 33.3 -68.85 32.65 -68.35 32.0 -67.9 31.3 -67.45 30.55 -67.35 30.4 -66.95 29.75 -66.65 29.3 -66.5 28.95 -66.5 29.2 -66.5 29.5 -66.5 29.75 -66.5 30.0 -66.5 30.3 -66.5 30.55 -66.5 30.8 -66.55 31.05 -66.55 31.3 -66.55 31.6 -66.6 31.85 -66.65 32.1 -66.65 32.35 -66.7 32.6 -66.7 32.85 -66.75 33.1 -66.85 33.65 -66.9 34.2 -67.0 34.75 -67.1 35.25 -67.2 35.8 -67.3 36.3 -67.4 36.85 -67.5 37.35 -67.6 37.9 -67.7 38.45 -67.85 38.95 -67.95 39.5 -68.1 40.0 -68.25 40.55 -68.4 41.05 -68.55 41.55 -68.75 42.2 -69.0 42.9 -69.2 43.55 -69.45 44.2 -69.7 44.85 -69.95 45.5 -70.2 46.15 -70.45 46.8 -70.75 47.45 -71.05 48.1 -71.35 48.7 -71.65 49.35 -71.95 50.0 -72.25 50.6 -72.6 51.25 -72.95 51.85 -73.15 52.2 -73.3 52.5 -73.5 52.8 -73.65 53.1 -73.85 53.45 -74.05 53.75 -74.25 54.05 -74.45 54.35 -74.65 54.65 -74.85 54.95 -75.05 55.25 -75.25 55.55 -75.5 55.85 -75.7 56.15 -75.95 56.45 -76.2 56.7 -76.35 56.85 -76.5 57.05 -76.6 57.2 -76.75 57.35 -76.8 57.45 -77.0 57.7 -77.2 57.9 -77.3 58.05 -77.45 58.25 -77.55 58.4 -77.7 58.55 -77.85 58.7 -78.0 58.9 -78.15 59.05 -78.3 59.2 -78.45 59.35 -78.5 59.4 -78.55 59.45 -78.6 59.5 -78.65 59.6 -78.65 59.65 -78.65 59.7 -78.7 59.8 -78.7 59.85 -78.65 59.95 -78.65 60.0 -78.65 60.05 -78.6 60.15 -78.55 60.2 -78.5 60.25 -78.45 60.3 -78.4 60.4 -78.3 60.45 -78.25 60.5 -78.15 60.55 -78.05 60.6 -78.0 60.65 -77.9 60.7 -77.8 60.7 -77.7 60.75 -77.65 60.75 -77.55 60.8 -77.45 60.8 -77.35 60.8 -77.25 60.8 -77.15 60.8 -77.05 60.8 -76.95 60.8 -75.05 60.55 -74.6 60.4 -74.4 60.35 -72.35 59.8 -72.4 59.95 -72.45 60.1 -72.5 60.25 -72.55 60.4 -72.6 60.5 -72.7 60.65 -72.75 60.8 -72.85 60.9 -72.95 61.0 -73.0 61.15 -73.1 61.25 -73.2 61.35 -73.3 61.5 -73.4 61.6 -73.5 61.7 -73.6 61.8 -73.65 61.85 -73.65 61.85 -73.7 61.9 -73.7 61.95 -73.75 61.95 -73.8 62.0 -73.8 62.0 -73.85 62.05 -73.85 62.1 -73.9 62.1 -73.95 62.15 -73.95 62.15 -74.0 62.2 -74.05 62.2 -74.05 62.25 -74.1 62.3 -74.15 62.35 -74.25 62.4 -74.3 62.45 -74.35 62.5 -74.4 62.55 -74.45 62.6 -74.45 62.7 -74.5 62.75 -74.5 62.8 -74.5 62.9 -74.55 62.95 -74.55 63.0 -74.5 63.1 -74.5 63.15 -74.5 63.25 -74.45 63.3 -74.4 63.35 -74.35 63.45 -74.3 63.5 -74.25 63.55 -74.2 63.6 -74.15 63.6 -74.1 63.65 -74.0 63.65 -73.95 63.7 -73.85 63.7 -73.75 63.7 -73.65 63.7 -73.55 63.7 -73.45 63.7 -73.35 63.65 -73.2 63.65 -72.7 63.55 -72.2 63.4 -71.7 63.25 -71.25 63.1 -70.75 62.95 -70.3 62.8 -69.85 62.6 -69.4 62.4 -68.95 62.2 -68.55 61.95 -68.1 61.7 -67.7 61.4 -67.3 61.15 -66.95 60.8 -66.55 60.5 -66.25 60.15 -66.05 59.95 -65.9 59.8 -65.7 59.6 -65.5 59.45 -65.3 59.25 -65.1 59.1 -64.9 58.95 -64.7 58.75 -64.5 58.6 -64.3 58.45 -64.1 58.3 -63.9 58.15 -63.7 58.0 -63.45 57.9 -63.25 57.75 -63.0 57.6 -62.7 57.4 -62.35 57.2 -62.05 57.0 -61.75 56.8 -61.45 56.55 -61.15 56.35 -60.85 56.1 -60.55 55.9 -60.3 55.65 -60.0 55.4 -59.75 55.2 -59.45 54.9 -59.2 54.7 -58.9 54.45 -58.7 54.25 -58.35 53.95 -58.35 53.9 -58.35 53.85 -58.3 53.85 -58.3 53.8 -58.25 53.8 -58.2 53.8 -58.2 53.75 -58.15 53.75 -58.15 53.7 -58.1 53.65 -58.05 53.6 -58.05 53.6 -58.0 53.55 -57.95 53.55 -57.95 53.5 -57.9 53.5 -57.85 53.55 -57.85 53.65 -58.2 55.0 -57.9 53.8 -57.9 53.8 -57.95 53.9 -58.05 53.95 -58.05 53.95 -58.05 54.0 -58.05 54.05 -58.05 54.1 -58.1 54.15 -58.1 54.15 -58.15 54.2 -58.15 54.3 -58.2 54.35 -58.25 54.45 -58.25 54.5 -58.3 54.6 -58.35 54.7 -58.35 54.75 -58.4 54.85 -58.45 54.9 -58.5 55.0 -58.55 55.05 -58.6 55.15 -58.65 55.2 -58.65 55.25 -58.7 55.35 -58.75 55.4 -58.95 55.7 -59.45 56.4 -59.85 57.05 -60.1 57.45 -60.15 57.5 -60.15 57.55 -60.2 57.6 -60.2 57.65 -60.25 57.75 -60.25 57.8 -60.25 57.85 -60.25 57.9 -60.25 57.95 -60.25 58.0 -60.25 58.1 -60.25 58.15 -60.2 58.2 -60.2 58.25 -60.15 58.3 -60.1 58.35 -60.05 58.4 -60.0 58.45 -59.95 58.5 -59.9 58.55 -59.85 58.6 -59.75 58.6 -59.7 58.65 -59.65 58.65 -59.6 58.65 -59.5 58.7 -59.45 58.7 -59.4 58.7 -59.3 58.7 -59.25 58.65 -59.2 58.65 -59.1 58.65 -58.5 58.5 -57.8 58.2 -57.4 58.05 -57.0 57.85 -56.6 57.7 -56.25 57.45 -55.9 57.25 -55.55 57.05 -55.2 56.8 -54.85 56.55 -54.55 56.3 -54.2 56.05 -53.9 55.75 -53.6 55.5 -53.3 55.2 -53.0 54.9 -52.7 54.65 -52.45 54.35 -51.85 53.75 -51.35 53.15 -50.8 52.5 -50.3 51.9 -49.75 51.25 -49.3 50.65 -48.8 50.0 -48.35 49.35 -47.9 48.65 -47.5 48.0 -47.05 47.3 -46.7 46.6 -46.3 45.9 -45.95 45.2 -45.6 44.45 -45.35 43.7 -45.35 43.7 -45.3 43.65 -45.3 43.65 -45.3 43.6 -45.3 43.55 -45.3 43.55 -45.25 43.5 -45.25 43.5 -45.25 43.45 -45.2 43.45 -45.2 43.4 -45.15 43.4 -45.15 43.4 -45.1 43.35 -45.05 43.35 -45.0 43.35 -45.0 43.4 -44.95 43.45 -44.9 43.5 -44.9 43.55 -44.7 44.15 -44.45 44.8 -44.2 45.4 -43.95 46.0 -43.7 46.6 -43.4 47.2 -43.15 47.8 -42.85 48.4 -42.6 49.0 -42.3 49.55 -42.0 50.15 -41.7 50.75 -41.35 51.35 -41.05 51.9 -40.7 52.5 -40.35 53.05 -40.05 53.55 -39.75 54.0 -39.45 54.5 -39.15 54.95 -38.85 55.45 -38.5 55.9 -38.15 56.35 -37.85 56.8 -37.45 57.25 -37.1 57.65 -36.75 58.1 -36.35 58.5 -35.95 58.95 -35.5 59.3 -35.1 59.75 -34.65 60.1 -34.5 60.2 -34.4 60.3 -34.25 60.4 -34.15 60.5 -34.0 60.65 -33.9 60.75 -33.75 60.85 -33.6 60.95 -33.45 61.05 -33.35 61.1 -33.2 61.2 -33.05 61.3 -32.9 61.4 -32.8 61.5 -32.65 61.6 -32.5 61.65 -32.4 61.7 -32.25 61.75 -32.15 61.8 -32.05 61.85 -31.9 61.85 -31.8 61.85 -31.7 61.85 -31.65 61.8 -31.55 61.8 -31.45 61.75 -31.35 61.65 -31.3 61.6 -31.2 61.5 -31.15 61.4 -31.1 61.3 -31.05 61.2 -31.05 61.2 -31.05 61.15 -31.05 61.15 -31.05 61.1 -31.0 61.0 -31.0 61.05 -31.0 61.0 -31.0 61.0 -31.0 60.95 -31.0 60.95 -31.0 60.9 -30.95 60.9 -30.95 60.85 -30.95 60.85 -30.9 60.8 -30.85 60.8 -30.65 61.0 -30.45 61.15 -30.25 61.35 -30.0 61.5 -29.75 61.65 -29.55 61.75 -29.3 61.9 -29.05 62.0 -28.8 62.15 -28.55 62.25 -28.3 62.35 -28.0 62.45 -27.75 62.55 -27.45 62.65 -27.3 62.7 -26.95 62.85 -26.85 62.9 -26.75 62.9 -26.65 62.95 -26.6 62.95 -26.5 62.95 -26.4 63.0 -26.3 63.0 -26.25 63.0 -26.15 63.0 -26.05 62.95 -25.95 62.95 -25.9 62.9 -25.8 62.85 -25.75 62.8 -25.65 62.75 -25.6 62.7 -25.55 62.6 -25.5 62.55 -25.45 62.45 -25.45 62.4 -25.4 62.3 -25.4 62.25 -25.4 62.15 -25.45 62.1 -25.45 62.05 -25.45 61.95 -25.5 61.9 -25.55 61.8 -25.55 61.75 -25.6 61.65 -25.65 61.6 -25.7 61.5 -25.9 61.15 -26.05 60.8 -26.25 60.5 -26.45 60.15 -26.6 59.8 -26.75 59.45 -26.9 59.1 -27.05 58.75 -27.2 58.35 -27.35 58.0 -27.5 57.65 -27.6 57.3 -27.75 56.9 -27.85 56.55 -27.95 56.2 -28.05 55.8 -28.25 55.15 -28.4 54.45 -28.55 53.75 -28.65 53.1 -28.8 52.4 -28.9 51.7 -29.05 51.0 -29.1 50.35 -29.2 49.65 -29.3 48.95 -29.35 48.25 -29.4 47.55 -29.45 46.85 -29.5 46.15 -29.5 45.5 -29.55 44.75 -29.55 44.55 -29.55 44.15 -29.35 44.2 -29.35 44.2 -29.15 44.55 -29.1 44.65 -28.85 45.1 -28.6 45.5 -28.35 45.95 -28.1 46.35 -27.8 46.75 -27.55 47.15 -27.25 47.55 -26.95 47.95 -26.7 48.35 -26.35 48.75 -26.05 49.15 -25.75 49.55 -25.4 49.9 -25.05 50.25 -24.75 50.65 -24.35 51.0 -24.0 51.35 -23.65 51.65 -23.3 51.95 -22.95 52.25 -22.6 52.55 -22.25 52.85 -21.85 53.15 -21.45 53.4 -21.1 53.65 -20.7 53.9 -20.25 54.15 -19.85 54.35 -19.45 54.6 -19.0 54.8 -18.55 55.0 -18.1 55.15 -18.05 55.2 -17.95 55.2 -17.9 55.25 -17.85 55.25 -17.75 55.3 -17.7 55.3 -17.65 55.35 -17.55 55.35 -17.5 55.35 -17.45 55.4 -17.35 55.4 -17.3 55.4 -17.25 55.45 -17.15 55.45 -17.1 55.45 -17.05 55.45 -16.9 55.45 -16.8 55.45 -16.65 55.45 -16.55 55.4 -16.45 55.4 -16.35 55.35 -16.3 55.25 -16.2 55.2 -16.15 55.15 -16.1 55.05 -16.05 54.95 -16.05 54.85 -16.05 54.75 -16.05 54.65 -16.05 54.5 -16.1 54.4 -16.1 54.4 -16.5 53.85 -17.15 52.85 -17.2 52.75 -17.05 52.75 -16.9 52.8 -16.75 52.8 -16.6 52.85 -16.45 52.85 -16.3 52.9 -16.15 52.9 -16.05 52.95 -15.9 52.95 -15.75 53.0 -15.6 53.05 -15.5 53.05 -15.35 53.1 -15.2 53.15 -15.1 53.15 -14.95 53.2 -14.9 53.2 -14.8 53.25 -14.7 53.3 -14.6 53.3 -14.55 53.35 -14.45 53.35 -14.35 53.4 -14.3 53.4 -14.2 53.4 -14.15 53.45 -14.05 53.45 -13.95 53.45 -13.85 53.5 -13.8 53.5 -13.7 53.5 -13.6 53.5 -13.5 53.5 -13.35 53.5 -13.25 53.45 -13.15 53.4 -13.1 53.4 -13.0 53.35 -12.95 53.3 -12.85 53.2 -12.8 53.15 -12.8 53.05 -12.75 53.0 -12.75 52.9 -12.7 52.8 -12.75 52.7 -12.75 52.6 -12.75 52.5 -12.75 52.45 -12.8 52.4 -12.8 52.35 -12.85 52.3 -12.85 52.25 -12.9 52.15 -12.9 52.1 -12.95 52.05 -13.0 52.0 -13.0 51.95 -13.05 51.9 -13.05 51.85 -13.1 51.8 -13.15 51.75 -13.15 51.7 -13.2 51.65 -19.1 42.25 -16.0 47.2 -17.65 44.6 -19.0 42.8 -19.0 42.75 -19.05 42.75 -19.15 42.65 -19.1 42.65 -19.15 42.6 -19.15 42.6 -19.2 42.55 -19.2 42.5 -19.25 42.45 -19.25 42.4 -19.3 42.4 -19.3 42.35 -19.3 42.3 -19.3 42.25 -19.3 42.15 -19.3 42.1 -19.0 42.1 -18.55 42.05 -17.85 41.95 -17.85 41.95 -16.95 41.9 -13.15 41.05 -13.15 41.05 -13.1 41.0 -13.05 40.95 -13.0 40.95 -12.9 40.9 -12.45 40.75 -12.45 40.8 -12.45 40.85 -12.45 40.9 -12.5 40.9 -12.5 40.95 -12.55 40.95 -12.55 41.0 -12.6 41.0 -12.65 41.05 -12.65 41.05 -12.7 41.05 -12.75 41.1 -12.8 41.15 -12.8 41.1 -12.85 41.15 -12.85 41.15 -12.9 41.2 -13.05 41.3 -13.15 41.45 -13.2 41.45 -13.25 41.5 -13.3 41.55 -13.35 41.6 -13.4 41.65 -13.4 41.7 -13.45 41.8 -13.45 41.85 -13.45 41.9 -13.45 41.95 -13.45 42.0 -13.45 42.05 -13.45 42.15 -13.45 42.2 -13.4 42.25 -13.4 42.3 -13.35 42.35 -13.3 42.4 -13.3 42.45 -13.25 42.5 -13.2 42.55 -13.15 42.6 -13.1 42.65 -13.05 42.65 -13.0 42.7 -12.95 42.7 -12.9 42.7 -12.8 42.75 -12.75 42.75 -12.7 42.75 -12.65 42.75 -12.55 42.75 -12.5 42.75 -12.0 42.7 -11.85 42.7 -11.35 42.6 -10.9 42.45 -10.4 42.3 -9.95 42.2 -9.45 42.05 -9.0 41.85 -8.55 41.7 -8.1 41.5 -7.65 41.35 -7.2 41.15 -6.75 40.95 -6.35 40.7 -5.9 40.5 -5.5 40.25 -5.05 40.0 -4.65 39.75 -4.3 39.55 -3.95 39.3 -3.6 39.05 -3.25 38.8 -2.95 38.6 -2.6 38.3 -2.3 38.1 -1.95 37.8 -1.65 37.55 -1.3 37.3 -1.15 37.15 -0.65 36.75 -0.25 36.45 0.0 36.25 0.35 35.95 0.65 35.7 1.1 35.35 1.45 35.05 1.9 34.75 2.3 34.4 2.7 34.05 3.1 33.75 3.5 33.4 3.85 33.1 4.25 32.75 4.65 32.4 5.05 32.05 5.4 31.7 5.8 31.3 6.15 30.95 6.5 30.6 6.85 30.2 8.65 28.25 11.15 24.75 11.6 24.1 12.05 23.45 12.45 22.8 12.9 22.2 13.35 21.55 13.75 20.9 14.2 20.2 14.6 19.55 15.0 18.9 15.4 18.25 15.8 17.6 16.2 16.9 16.6 16.25 17.0 15.55 17.35 14.9 17.75 14.2 18.05 13.6 18.4 13.0 18.7 12.45 19.0 11.85 19.3 11.25 19.55 10.6 19.85 10.05 20.15 9.4 20.4 8.8 20.7 8.2 20.95 7.6 21.2 6.95 21.45 6.35 21.7 5.75 21.95 5.1 22.2 4.5 22.5 3.75 22.75 3.0 23.05 2.2 23.3 1.45 23.6 0.7 23.85 -0.05 24.1 -0.85 24.35 -1.6 24.6 -2.4 24.85 -3.15 25.05 -3.95 25.3 -4.7 25.5 -5.5 25.7 -6.25 25.9 -7.05 26.05 -7.8 26.15 -8.25 26.7 -10.9 26.75 -10.85 26.8 -10.85 26.85 -10.8 26.9 -10.75 26.95 -10.7 26.95 -10.65 27.0 -10.65 27.05 -10.6 27.05 -10.55 27.1 -10.5 27.1 -10.45 27.1 -10.4 27.95 -8.7 27.15 -10.35 27.2 -10.3 27.2 -10.25 28.15 -8.5 28.75 -7.3 29.05 -6.7 29.35 -6.15 29.65 -5.5 29.95 -4.95 30.25 -4.35 30.5 -3.75 30.8 -3.15 31.05 -2.55 31.35 -1.95 31.6 -1.35 31.85 -0.75 32.1 -0.15 32.35 0.45 32.6 1.05 32.85 1.7 33.05 2.3 33.25 2.85 33.45 3.4 33.6 3.95 33.8 4.5 33.95 5.05 34.15 5.65 34.3 6.2 34.45 6.75 34.6 7.3 34.75 7.85 34.9 8.45 35.05 9.0 35.15 9.55 35.3 10.15 35.4 10.7 35.55 11.3 35.65 11.75 35.75 12.25 35.85 12.7 35.9 13.15 36.0 13.65 36.05 14.1 36.1 14.6 36.2 15.05 36.25 15.55 36.3 16.0 36.35 16.45 36.35 16.95 36.4 17.4 36.4 17.9 36.45 18.35 36.45 18.85 36.45 19.7 36.55 21.45 36.55 21.55 36.55 21.6 36.6 21.65 36.6 21.75 36.65 21.8 36.65 21.85 36.7 21.95 36.75 22.0 36.8 22.05 36.85 22.1 36.9 22.15 36.95 22.2 37.0 22.2 37.1 22.25 37.2 22.25 37.3 22.3 37.4 22.3 37.45 22.3 37.55 22.3 37.65 22.3 37.7 22.3 37.8 22.25 37.85 22.25 37.9 22.2 37.95 22.15 38.0 22.1 38.05 22.05 38.1 22.0 38.15 21.95 38.2 21.9 38.25 21.8 38.3 21.75 39.1 20.1 39.15 20.0 39.35 19.5 39.5 19.05 39.7 18.55 39.9 18.1 40.05 17.65 40.2 17.15 40.4 16.7 40.55 16.2 40.7 15.75 40.8 15.25 40.95 14.75 41.05 14.3 41.2 13.8 41.3 13.3 41.4 12.8 41.45 12.35 41.45 12.3 41.5 12.2 41.5 12.2 41.5 12.05 41.5 11.95 41.55 11.9 41.55 11.8 41.55 11.7 41.6 11.65 41.6 11.55 41.65 11.5 41.65 11.45 41.7 11.35 41.75 11.3 41.8 11.25 41.9 11.15 41.95 11.15 41.95 11.2 42.0 11.2 42.0 11.25 42.05 11.25 42.05 11.3 42.05 11.35 42.05 11.35 42.1 11.4 42.1 11.4 42.1 11.45 42.1 11.5 42.1 11.5 42.1 11.55 42.1 11.55 42.15 11.6 42.25 12.1 42.3 12.55 42.4 13.05 42.45 13.5 42.55 14.0 42.6 14.45 42.65 14.95 42.75 15.4 42.8 15.9 42.85 16.4 42.9 16.85 42.95 17.35 43.0 17.8 43.05 18.3 43.1 18.8 43.1 19.25 43.15 20.1 43.35 26.4 43.35 27.1 43.4 27.8 43.4 28.5 43.4 29.2 43.4 29.9 43.4 30.6 43.4 31.3 43.35 32.05 43.35 32.75 43.3 33.45 43.25 34.15 43.2 34.85 43.15 35.55 43.1 36.25 43.05 36.95 43.0 37.65 42.95 38.35 42.85 39.1 42.75 39.8 42.65 40.5 42.55 41.25 42.4 41.95 42.3 42.65 42.15 43.35 42.0 44.1 41.85 44.8 41.65 45.5 41.5 46.2 41.3 46.9 41.1 47.6 40.85 48.3 40.65 49.0 40.35 49.8 40.05 50.6 39.75 51.4 39.4 52.15 39.05 52.9 38.65 53.65 38.25 54.4 37.85 55.1 37.4 55.8 36.9 56.5 36.4 57.2 35.85 57.85 35.25 58.5 34.65 59.15 34.05 59.75 33.35 60.35 33.2 60.45 33.1 60.6 33.0 60.7 32.95 60.85 32.9 60.95 32.9 61.1 32.9 61.2 32.95 61.35 32.95 61.45 33.05 61.55 33.1 61.65 33.25 61.75 33.35 61.8 33.5 61.9 33.65 61.95 33.85 62.0 33.95 62.05 34.05 62.05 34.2 62.05 34.3 62.05 34.4 62.1 34.5 62.1 34.6 62.1 34.75 62.05 34.85 62.05 34.95 62.05 35.05 62.05 35.15 62.0 35.25 62.0 35.4 62.0 35.5 61.95 35.6 61.95 35.9 61.9 36.25 61.8 36.55 61.7 36.9 61.6 37.2 61.5 37.5 61.4 37.8 61.3 38.15 61.2 38.4 61.1 38.75 60.95 38.9 60.9 39.35 60.7 39.75 60.55 40.0 60.45 40.35 60.35 40.6 60.25 40.65 60.25 40.7 60.2 40.75 60.15 40.8 60.1 40.85 60.1 40.9 60.1 40.95 60.1 40.95 60.1 41.0 60.15 41.0 60.2 41.05 60.2 41.0 60.25 41.0 60.3 41.0 60.3 40.95 60.35 40.95 60.4 40.95 60.35 40.85 60.45 40.8 60.65 40.8 60.8 40.8 61.0 40.85 61.15 40.85 61.3 40.95 61.4 41.0 61.5 41.1 61.55 41.2 61.65 41.3 61.65 41.45 61.7 41.6 61.7 41.75 61.7 41.95 61.65 42.1 61.65 42.35 61.55 42.4 61.55 42.5 61.5 42.55 61.5 42.65 61.45 42.7 61.4 42.8 61.4 42.85 61.35 42.95 61.35 43.0 61.3 43.05 61.25 43.15 61.25 43.2 61.2 43.3 61.15 43.35 61.1 43.4 61.1 43.5 61.05 44.15 60.65 44.75 60.25 45.35 59.85 45.9 59.4 46.45 58.95 47.0 58.5 47.5 58.0 48.0 57.5 48.5 57.0 48.95 56.5 49.4 55.95 49.85 55.4 50.25 54.85 50.65 54.25 51.0 53.65 51.35 53.05 51.7 52.4 52.2 51.4 53.0 49.8 53.05 49.75 53.05 49.7 53.05 49.65 53.05 49.6 53.1 49.55 53.1 49.5 53.1 49.5 53.15 49.45 53.15 49.5 53.2 49.5 53.25 49.55 53.25 49.55 53.3 49.6 53.3 49.65 53.25 49.7 53.25 49.7 53.25 49.75 53.2 49.8 53.2 49.85 53.25 50.25 53.1 51.35 53.0 51.9 52.95 52.45 52.85 53.0 52.7 53.55 52.6 54.1 52.45 54.6 52.3 55.15 52.1 55.65 51.9 56.2 51.7 56.7 51.5 57.25 51.25 57.7 50.95 58.25 50.65 58.7 50.35 59.2 50.05 59.65 50.0 59.75 49.95 59.8 49.9 59.85 49.85 59.95 49.8 60.0 49.8 60.1 49.75 60.15 49.75 60.25 49.7 60.3 49.7 60.4 49.7 60.45 49.7 60.55 49.75 60.6 49.75 60.7 49.8 60.75 49.85 60.85 49.9 60.9 49.95 61.0 50.05 61.05 50.1 61.05 50.15 61.1 50.25 61.15 50.3 61.2 50.4 61.2 50.45 61.2 50.55 61.25 50.65 61.25 50.75 61.25 50.8 61.25 50.9 61.25 51.0 61.25 51.1 61.25 51.25 61.25 51.4 61.2 51.6 61.2 51.75 61.2 51.9 61.15 52.05 61.15 52.2 61.1 52.4 61.05 52.55 61.05 52.7 61.0 52.85 60.95 53.0 60.9 53.15 60.85 53.3 60.8 53.45 60.7 53.55 60.65 54.05 60.4 54.5 60.15 54.95 59.85 55.4 59.6 55.85 59.3 56.25 59.0 56.7 58.7 57.1 58.35 57.5 58.05 57.85 57.7 58.25 57.35 58.55 56.95 58.9 56.6 59.2 56.2 59.55 55.75 59.8 55.35 59.85 55.25 59.9 55.2 59.95 55.1 60.0 55.05 60.05 54.95 60.1 54.9 60.15 54.85 60.25 54.75 60.3 54.7 60.35 54.6 60.45 54.55 60.5 54.45 60.55 54.4 60.65 54.35 60.75 54.25 60.8 54.2 61.0 55.2 61.05 55.5 61.05 55.7 61.05 55.9 61.1 56.15 61.1 56.35 61.1 56.55 61.05 56.75 61.05 56.95 61.05 57.15 61.0 57.35 60.95 57.55 60.95 57.75 60.9 57.95 60.85 58.15 60.75 58.35 60.7 58.55 60.6 58.75 60.55 58.85 60.55 58.9 60.5 59.0 60.5 59.05 60.5 59.15 60.5 59.2 60.5 59.3 60.55 59.35 60.55 59.4 60.6 59.45 60.65 59.55 60.7 59.6 60.75 59.65 60.8 59.7 60.85 59.75 60.9 59.75 60.95 59.8 61.05 59.8 61.1 59.85 61.2 59.85 61.25 59.85 61.35 59.85 61.4 59.85 61.5 59.85 61.55 59.85 61.65 59.8 61.7 59.8 61.8 59.75 61.85 59.7 61.95 59.65 62.0 59.6 62.1 59.55 62.25 59.35 62.5 59.1 62.65 58.9 62.8 58.7 62.95 58.5 63.1 58.25 63.25 58.05 63.4 57.85 63.5 57.6 63.6 57.4 63.75 57.15 63.85 56.95 63.95 56.7 64.05 56.45 64.15 56.25 64.25 56.0 64.3 55.75 64.4 55.5 64.5 55.1 64.6 54.65 64.7 54.25 64.75 53.85 64.85 53.4 64.85 53.0 64.9 52.6 64.9 52.15 64.95 51.75 64.95 51.3 64.9 50.9 64.9 50.45 64.85 50.05 64.8 49.6 64.8 49.2 64.7 48.75 64.6 47.9 64.45 47.05 64.35 46.2 64.2 45.35 64.05 44.55 63.85 43.7 63.7 42.85 63.5 42.0 63.3 41.15 63.1 40.3 62.9 39.5 62.7 38.65 62.5 37.85 62.25 37.0 62.0 36.15 61.75 35.35 59.25 26.6 58.55 24.7 58.55 24.7 58.5 24.6 58.45 24.55 58.45 24.55 58.45 24.5 58.45 24.45 58.45 24.4 58.45 24.35 58.45 24.3 58.5 24.3 58.55 24.25 58.6 24.3 58.6 24.3 58.65 24.3 58.7 24.35 58.7 24.35 58.75 24.4 58.75 24.45 58.85 24.45 58.85 24.45 58.9 24.45 58.95 24.5 59.35 24.85 59.8 25.15 60.25 25.45 60.7 25.8 61.15 26.1 61.65 26.35 62.1 26.65 62.55 26.95 63.05 27.2 63.55 27.45 64.0 27.7 64.5 27.95 65.0 28.2 65.5 28.45 66.0 28.7 66.55 28.9 67.05 29.15 67.6 29.35 68.1 29.55 68.65 29.75 69.15 29.95 69.7 30.1 70.25 30.3 70.8 30.45 71.35 30.6 71.85 30.7 72.45 30.85 73.0 30.95 73.55 31.05 74.1 31.1 74.7 31.15 75.25 31.2 75.35 31.2 75.45 31.2 75.55 31.2 75.65 31.2 75.75 31.2 75.8 31.2 75.9 31.2 76.0 31.2 76.1 31.2 76.2 31.2 76.3 31.2 76.35 31.2 76.45 31.15 76.55 31.15 76.65 31.15 76.75 31.1 76.85 31.05 77.0 31.0 77.1 30.95 77.15 30.9 77.25 30.8 77.3 30.75 77.35 30.65 77.35 30.55 77.4 30.45 77.4 30.35 77.35 30.25 77.35 30.15 77.3 30.05 77.25 30.0 77.15 29.9 77.1 29.8 77.0 29.7 76.75 29.55 76.5 29.4 76.4 29.35 76.3 29.3 76.2 29.2 76.15 29.15 76.05 29.1 76.05 29.1 75.85 29.0 75.7 28.9 75.65 28.85 75.55 28.8 75.45 28.7 75.35 28.65 75.25 28.55 75.15 28.5 75.05 28.4 74.95 28.3 74.85 28.2 75.05 28.25 75.9 28.4 76.15 28.45 76.35 28.45 76.6 28.5 76.8 28.5 77.05 28.55 77.3 28.55 77.5 28.55 77.75 28.55 77.95 28.55 78.2 28.5 78.45 28.5 78.65 28.45 78.9 28.45 79.1 28.4 79.35 28.35 79.55 28.3 79.65 28.3 79.7 28.25 79.8 28.25 79.9 28.2 79.95 28.2 80.0 28.15 80.1 28.1 80.15 28.05 80.2 28.05 80.25 28.0 80.35 27.95 80.35 27.85 80.4 27.8 80.45 27.75 80.5 27.65 80.5 27.6 80.5 27.5 80.5 27.45 80.5 27.35 80.5 27.3 80.5 27.25 80.45 27.2 80.45 27.15 80.4 27.05 80.35 27.0 80.3 26.95 80.3 26.9 80.25 26.85 80.2 26.8 80.1 26.75 80.1 26.75 80.0 26.7 L80.0 26.7 M-45.75 -13.1 Q-45.45 -14.55 -45.1 -16.05 -44.8 -17.5 -44.4 -18.95 -44.0 -20.4 -43.55 -21.85 -43.1 -23.25 -42.6 -24.75 -42.1 -26.1 -41.55 -27.55 -41.05 -28.95 -40.5 -30.4 -39.95 -31.75 -39.35 -33.2 -38.8 -34.55 -38.15 -36.0 -35.1 -43.15 -32.5 -47.75 -32.05 -48.55 -31.55 -49.35 -31.05 -50.1 -30.55 -50.85 -30.0 -51.65 -29.45 -52.35 -28.9 -53.1 -28.3 -53.8 -27.7 -54.5 -27.1 -55.2 -26.45 -55.9 -25.8 -56.55 -25.1 -57.2 -24.4 -57.8 -23.7 -58.45 -22.95 -59.05 -22.9 -59.1 -22.8 -59.15 -22.5 -59.45 -22.7 -59.25 -22.6 -59.3 -22.55 -59.35 -22.5 -59.4 -22.45 -59.45 -22.35 -59.5 -22.3 -59.55 -22.2 -59.6 -22.1 -59.6 -22.05 -59.65 -21.95 -59.65 -21.85 -59.65 -21.7 -59.65 -22.05 -59.25 -22.7 -58.4 -23.4 -57.55 -23.7 -57.15 -24.7 -55.95 -25.65 -54.7 -26.6 -53.5 -27.5 -52.2 -28.35 -50.95 -29.2 -49.65 -30.0 -48.35 -30.8 -47.0 -31.55 -45.7 -32.3 -44.35 -33.0 -43.0 -33.7 -41.65 -34.35 -40.3 -35.0 -38.85 -35.6 -37.5 -36.2 -36.05 -38.55 -30.45 -39.7 -27.5 -39.95 -26.85 -40.05 -26.65 -40.3 -26.25 -40.55 -25.85 -40.75 -25.45 -40.95 -25.0 -41.15 -24.6 -41.35 -24.2 -41.5 -23.75 -41.7 -23.3 -41.85 -22.9 -42.0 -22.45 -42.15 -22.05 -42.3 -21.6 -42.45 -21.2 -42.6 -20.7 -42.7 -20.35 -42.85 -19.85 -43.9 -16.25 -44.75 -14.4 -45.05 -13.75 -45.45 -12.6 -46.0 -11.15 -46.15 -10.8 -46.15 -11.0 -45.75 -13.1 L-45.75 -13.1 M12.0 5.8 Q13.2 -4.0 13.5 -7.1 13.55 -7.7 14.25 -11.45 14.5 -11.4 14.5 -11.4 14.75 -10.95 14.9 -10.65 15.15 -10.25 15.3 -9.95 15.55 -9.55 15.7 -9.2 15.9 -8.8 16.05 -8.45 16.25 -8.05 16.4 -7.7 16.55 -7.3 16.65 -6.9 16.8 -6.5 16.9 -6.15 17.0 -5.75 17.1 -5.35 17.2 -4.85 17.25 -4.35 17.3 -3.85 17.35 -3.3 17.4 -2.8 17.45 -2.3 17.45 -1.8 17.45 -1.3 17.45 -0.8 17.45 -0.25 17.45 0.25 17.4 0.75 17.35 1.25 17.3 1.75 17.25 2.25 17.2 2.8 17.05 3.9 16.85 4.95 16.6 6.0 16.25 7.0 15.95 8.0 15.5 8.95 15.1 9.9 14.55 10.85 14.05 11.75 13.4 12.65 12.8 13.5 12.15 14.4 11.45 15.2 10.65 16.05 9.9 16.85 9.05 17.65 9.0 17.65 8.95 17.7 8.9 17.8 8.9 17.8 8.85 17.85 8.8 17.9 8.75 17.9 8.7 17.95 8.65 18.0 8.6 18.05 8.55 18.1 8.5 18.1 8.45 18.15 8.35 18.2 8.3 18.25 8.2 18.25 8.35 17.95 8.65 17.3 8.9 16.7 9.05 16.4 9.35 15.75 9.6 15.1 9.9 14.5 10.1 13.85 10.35 13.2 10.55 12.5 10.75 11.85 10.95 11.2 11.15 10.55 11.3 9.85 11.45 9.2 11.6 8.55 11.7 7.85 11.8 7.15 11.9 6.5 12.0 5.8 L12.0 5.8 M-28.85 -0.4 Q-28.8 -0.55 -28.6 -0.9 -28.6 -0.85 -28.85 0.15 -28.9 0.1 -28.9 0.05 -28.95 0.05 -28.95 0.0 -29.0 -0.05 -29.0 -0.05 -29.0 -0.1 -29.0 -0.15 -28.95 -0.15 -28.95 -0.2 -28.95 -0.25 -28.95 -0.25 -28.95 -0.25 -28.9 -0.35 -28.85 -0.35 -28.85 -0.4 L-28.85 -0.4 M-21.1 38.75 Q-21.2 38.8 -21.25 38.8 -21.3 38.8 -21.35 38.85 -21.4 38.85 -21.45 38.85 -21.5 38.85 -21.55 38.8 -21.6 38.8 -21.65 38.75 -21.7 38.75 -21.7 38.7 -21.75 38.65 -21.8 38.6 -21.8 38.55 -21.85 38.5 -22.05 38.15 -22.25 37.8 -22.45 37.45 -22.65 37.05 -22.8 36.7 -23.0 36.35 -23.15 36.0 -23.35 35.6 -23.5 35.25 -23.7 34.9 -23.85 34.5 -24.0 34.15 -24.2 33.8 -24.35 33.4 -24.5 33.05 -24.65 32.65 -25.05 31.75 -25.4 30.85 -25.75 29.95 -26.1 29.05 -26.45 28.1 -26.8 27.2 -27.15 26.3 -27.45 25.4 -27.8 24.45 -28.1 23.55 -28.4 22.65 -28.7 21.7 -29.0 20.75 -29.25 19.85 -29.55 18.9 -29.8 18.0 -29.9 17.55 -30.0 17.15 -30.1 16.75 -30.2 16.3 -30.3 15.9 -30.4 15.5 -30.5 15.05 -30.6 14.65 -30.65 14.2 -30.75 13.8 -30.85 13.35 -30.9 12.95 -30.95 12.5 -31.05 12.1 -31.1 11.65 -31.15 11.25 -31.2 10.95 -31.2 10.8 -31.2 10.6 -31.2 10.5 -31.25 10.35 -31.2 10.25 -31.2 10.15 -31.15 10.05 -31.1 9.95 -31.0 9.9 -30.9 9.8 -30.75 9.7 -30.65 9.65 -30.45 9.55 -30.35 9.5 -30.0 9.35 -29.45 9.1 -28.9 8.8 -28.4 8.55 -27.85 8.25 -27.35 7.95 -26.85 7.65 -26.3 7.3 -25.8 7.0 -25.3 6.65 -24.85 6.35 -24.35 6.0 -23.9 5.65 -23.4 5.25 -22.95 4.9 -22.5 4.5 -22.05 4.15 -21.4 3.55 -20.75 2.95 -20.1 2.35 -19.45 1.7 -18.85 1.1 -18.2 0.45 -17.6 -0.2 -17.0 -0.85 -16.45 -1.45 -15.85 -2.15 -15.3 -2.8 -14.7 -3.5 -14.15 -4.1 -13.6 -4.85 -13.05 -5.45 -12.45 -6.2 -11.9 -6.9 -11.3 -7.6 -10.75 -8.35 -10.2 -9.05 -9.65 -9.75 -9.1 -10.5 -8.55 -11.2 -8.0 -11.95 -7.5 -12.65 -6.95 -13.4 -6.4 -14.15 -5.9 -14.9 -5.35 -15.6 -4.85 -16.35 -4.35 -17.1 -3.8 -17.85 -3.25 -18.65 -2.45 -19.95 -1.35 -21.65 -1.1 -22.05 -1.1 -22.1 -1.05 -22.15 -0.95 -22.3 -1.0 -22.25 -0.95 -22.3 -0.95 -22.35 -0.9 -22.4 -0.85 -22.45 -0.8 -22.5 -0.8 -22.55 -0.75 -22.6 -0.7 -22.65 -0.65 -22.7 -0.6 -22.8 -0.5 -22.85 -0.45 -22.9 -0.45 -20.75 -0.3 -14.7 -0.25 -13.8 -0.25 -12.85 -0.2 -11.95 -0.15 -11.0 -0.1 -10.1 -0.05 -9.15 0.0 -8.25 0.05 -7.3 0.1 -6.4 0.2 -5.5 0.25 -4.55 0.3 -3.65 0.4 -2.75 0.45 -1.8 0.55 -0.9 0.6 0.05 0.6 0.2 0.75 2.25 0.9 3.6 1.05 4.45 1.05 4.5 1.05 4.55 1.05 4.6 1.05 4.65 1.05 4.7 1.05 4.75 1.05 4.8 1.0 4.9 1.0 4.9 1.0 5.0 1.0 5.05 0.95 5.1 0.95 5.1 0.95 5.2 0.9 5.35 0.9 5.3 0.65 6.25 0.35 7.2 0.05 8.15 -0.2 9.05 -0.5 10.0 -0.8 10.9 -1.15 11.85 -1.45 12.75 -1.8 13.7 -2.15 14.6 -2.5 15.55 -2.9 16.4 -3.25 17.35 -3.65 18.25 -4.1 19.15 -4.5 20.05 -4.9 20.85 -5.3 21.65 -5.7 22.45 -6.1 23.2 -6.5 24.0 -6.95 24.8 -7.4 25.55 -7.85 26.35 -8.3 27.1 -8.75 27.85 -9.25 28.65 -9.7 29.35 -10.2 30.15 -10.75 30.85 -11.25 31.6 -11.8 32.35 -12.05 32.7 -12.35 33.05 -12.65 33.4 -12.9 33.75 -13.2 34.05 -13.5 34.4 -13.85 34.7 -14.15 35.0 -14.5 35.3 -14.85 35.6 -15.2 35.85 -15.55 36.1 -15.95 36.4 -16.35 36.6 -16.75 36.85 -17.15 37.05 -18.75 37.85 -21.1 38.75 L-21.1 38.75" fill="url(#gradient0)" fill-rule="evenodd" stroke="none"/>
    <path d="M17.1 -5.35 Q17.0 -5.75 16.9 -6.15 16.8 -6.55 16.7 -6.95 16.55 -7.3 16.4 -7.7 16.25 -8.05 16.05 -8.45 15.9 -8.8 15.7 -9.2 15.55 -9.55 15.3 -9.95 15.15 -10.25 14.9 -10.65 14.75 -10.95 14.5 -11.4 14.5 -11.4 14.4 -11.45 14.3 -11.45 14.25 -11.45 13.5 -7.35 13.5 -7.1 13.25 -4.25 12.0 5.8 11.9 6.5 11.8 7.15 11.7 7.85 11.55 8.5 11.45 9.2 11.3 9.85 11.15 10.55 10.95 11.2 10.75 11.85 10.55 12.5 10.35 13.2 10.1 13.8 9.85 14.5 9.6 15.1 9.35 15.75 9.05 16.4 8.85 16.75 8.2 18.25 8.3 18.2 8.35 18.2 8.45 18.15 8.5 18.1 8.55 18.1 8.6 18.05 8.65 18.0 8.7 17.95 8.75 17.9 8.8 17.9 8.85 17.85 8.9 17.8 8.95 17.75 9.0 17.7 9.05 17.65 9.05 17.65 9.9 16.85 10.65 16.05 11.45 15.2 12.1 14.4 12.8 13.55 13.4 12.65 14.05 11.75 14.55 10.85 15.1 9.9 15.5 8.95 15.95 8.0 16.3 7.0 16.6 5.95 16.85 4.95 17.1 3.85 17.2 2.8 17.25 2.3 17.3 1.8 17.35 1.25 17.4 0.75 17.45 0.25 17.45 -0.25 17.45 -0.8 17.45 -1.3 17.45 -1.8 17.45 -2.3 17.4 -2.8 17.35 -3.3 17.3 -3.8 17.25 -4.3 17.2 -4.85 17.1 -5.35 L17.1 -5.35 M13.2 10.15 Q13.7 7.2 14.25 2.45 15.0 -3.6 15.25 -5.3 15.4 -4.3 15.5 -3.3 15.6 -2.3 15.6 -1.35 15.65 -0.35 15.6 0.6 15.55 1.6 15.45 2.55 15.35 3.55 15.15 4.5 14.95 5.45 14.65 6.4 14.4 7.35 14.0 8.3 13.65 9.25 13.2 10.15 L13.2 10.15" fill="url(#gradient1)" fill-rule="evenodd" stroke="none"/>
    <path d="M-21.7 -59.65 Q-22.05 -59.25 -22.7 -58.4 -23.4 -57.55 -23.7 -57.15 -24.7 -55.95 -25.65 -54.7 -26.6 -53.5 -27.5 -52.2 -28.35 -50.95 -29.2 -49.65 -30.0 -48.35 -30.8 -47.0 -31.55 -45.7 -32.3 -44.35 -33.0 -43.0 -33.7 -41.65 -34.35 -40.3 -35.0 -38.85 -35.6 -37.5 -36.2 -36.05 -38.55 -30.45 -39.7 -27.5 -39.95 -26.85 -40.05 -26.65 -40.3 -26.25 -40.55 -25.85 -40.75 -25.45 -40.95 -25.0 -41.15 -24.6 -41.35 -24.2 -41.5 -23.75 -41.7 -23.3 -41.85 -22.9 -42.0 -22.45 -42.15 -22.05 -42.3 -21.6 -42.45 -21.2 -42.6 -20.7 -42.7 -20.35 -42.85 -19.85 -43.9 -16.25 -44.75 -14.4 -45.05 -13.75 -45.45 -12.6 -46.0 -11.15 -46.15 -10.8 -46.15 -11.0 -45.75 -13.1 -45.45 -14.55 -45.1 -16.05 -44.8 -17.5 -44.4 -18.95 -44.0 -20.4 -43.55 -21.85 -43.1 -23.25 -42.6 -24.75 -42.1 -26.1 -41.55 -27.55 -41.05 -28.95 -40.5 -30.4 -39.95 -31.75 -39.35 -33.2 -38.8 -34.55 -38.15 -36.0 -35.1 -43.15 -32.5 -47.75 -32.05 -48.55 -31.55 -49.35 -31.05 -50.1 -30.55 -50.85 -30.0 -51.65 -29.45 -52.35 -28.9 -53.1 -28.3 -53.8 -27.7 -54.5 -27.1 -55.2 -26.45 -55.9 -25.8 -56.55 -25.1 -57.2 -24.4 -57.8 -23.7 -58.45 -22.95 -59.05 -22.9 -59.1 -22.8 -59.15 -22.5 -59.45 -22.7 -59.25 -22.6 -59.3 -22.55 -59.35 -22.5 -59.4 -22.45 -59.45 -22.35 -59.5 -22.3 -59.55 -22.2 -59.6 -22.1 -59.6 -22.05 -59.65 -21.95 -59.65 -21.85 -59.65 -21.7 -59.65 L-21.7 -59.65" fill="url(#gradient2)" fill-rule="evenodd" stroke="none"/>
    <path d="M-28.6 -0.9 Q-28.6 -0.85 -28.85 0.15 -28.9 0.1 -28.9 0.05 -28.95 0.05 -28.95 0.0 -29.0 -0.05 -29.0 -0.05 -29.0 -0.1 -29.0 -0.15 -28.95 -0.15 -28.95 -0.2 -28.95 -0.25 -28.95 -0.25 -28.95 -0.25 -28.9 -0.35 -28.85 -0.35 -28.85 -0.4 -28.8 -0.55 -28.6 -0.9 L-28.6 -0.9" fill="url(#gradient3)" fill-rule="evenodd" stroke="none"/>
  </g>
  <defs>
    <linearGradient gradientTransform="matrix(0.0, 0.0835, -0.0835, 0.0, -5.35, -4.75)" gradientUnits="userSpaceOnUse" id="gradient0" spreadMethod="pad" x1="-819.2" x2="819.2">
      <stop offset="0.0" stop-color="#fff23c" stop-opacity="0.0"/>
      <stop offset="0.3803921568627451" stop-color="#fff23c" stop-opacity="0.84705883"/>
      <stop offset="0.6039215686274509" stop-color="#fff23c" stop-opacity="0.8"/>
      <stop offset="1.0" stop-color="#fff23c" stop-opacity="0.0"/>
    </linearGradient>
    <linearGradient gradientTransform="matrix(0.0, 0.0181, -0.0181, 0.0, 12.8, 3.35)" gradientUnits="userSpaceOnUse" id="gradient1" spreadMethod="pad" x1="-819.2" x2="819.2">
      <stop offset="0.0" stop-color="#fff23c" stop-opacity="0.0"/>
      <stop offset="0.3803921568627451" stop-color="#fff23c" stop-opacity="0.84705883"/>
      <stop offset="0.6039215686274509" stop-color="#fff23c" stop-opacity="0.8"/>
      <stop offset="1.0" stop-color="#fff23c" stop-opacity="0.0"/>
    </linearGradient>
    <linearGradient gradientTransform="matrix(0.0, 0.0298, -0.0298, 0.0, -33.9, -35.2)" gradientUnits="userSpaceOnUse" id="gradient2" spreadMethod="pad" x1="-819.2" x2="819.2">
      <stop offset="0.0" stop-color="#fff23c" stop-opacity="0.0"/>
      <stop offset="0.3803921568627451" stop-color="#fff23c" stop-opacity="0.84705883"/>
      <stop offset="0.6039215686274509" stop-color="#fff23c" stop-opacity="0.8"/>
      <stop offset="1.0" stop-color="#fff23c" stop-opacity="0.0"/>
    </linearGradient>
    <linearGradient gradientTransform="matrix(0.0, 7.0E-4, -7.0E-4, 0.0, -28.8, -0.35)" gradientUnits="userSpaceOnUse" id="gradient3" spreadMethod="pad" x1="-819.2" x2="819.2">
      <stop offset="0.0" stop-color="#fff23c" stop-opacity="0.0"/>
      <stop offset="0.3803921568627451" stop-color="#fff23c" stop-opacity="0.84705883"/>
      <stop offset="0.6039215686274509" stop-color="#fff23c" stop-opacity="0.8"/>
      <stop offset="1.0" stop-color="#fff23c" stop-opacity="0.0"/>
    </linearGradient>
  </defs>
</svg>
