<?xml version="1.0" encoding="UTF-8" standalone="no"?>
<svg xmlns:xlink="http://www.w3.org/1999/xlink" height="400.0px" width="400.0px" xmlns="http://www.w3.org/2000/svg">
  <g transform="matrix(1.0, 0.0, 0.0, 1.0, 200.0, 200.0)">
    <path d="M21.9 132.4 Q21.85 132.4 21.8 132.4 21.75 132.35 21.75 132.35 21.7 132.35 21.65 132.3 21.65 132.3 21.6 132.25 21.55 132.25 21.55 132.2 21.5 132.2 21.5 132.15 21.5 132.2 21.45 132.1 21.4 132.05 21.4 132.05 21.15 131.8 20.9 131.55 20.65 131.3 20.45 131.05 20.2 130.8 20.0 130.55 19.75 130.25 19.55 130.0 19.35 129.75 19.1 129.45 18.9 129.2 18.7 128.9 18.5 128.6 18.3 128.35 18.1 128.05 17.9 127.75 17.6 127.3 17.35 126.85 17.05 126.4 16.8 125.95 16.55 125.5 16.3 125.05 16.05 124.6 15.85 124.1 15.6 123.65 15.4 123.2 15.15 122.7 14.95 122.2 14.75 121.75 14.55 121.25 14.35 120.75 14.15 120.25 14.05 119.95 13.9 119.6 13.8 119.3 13.7 118.95 13.55 118.65 13.45 118.3 13.35 117.95 13.25 117.65 13.15 117.3 13.05 116.95 12.95 116.65 12.8 116.3 12.7 115.95 12.6 115.65 12.55 115.3 12.45 114.95 12.4 114.9 12.4 114.85 12.4 114.8 12.4 114.75 12.4 114.65 12.35 114.55 12.3 114.45 12.25 114.35 12.25 114.25 12.2 114.15 12.15 114.1 12.05 114.0 12.0 113.95 11.9 113.9 11.85 113.85 11.75 113.8 11.65 113.75 11.55 113.75 11.45 113.7 11.3 113.7 11.25 113.7 11.2 113.7 11.2 113.65 11.15 113.65 11.0 113.6 10.9 113.55 10.75 113.5 10.65 113.5 10.5 113.5 10.4 113.5 10.25 113.5 10.15 113.5 10.05 113.55 9.9 113.55 9.8 113.6 9.7 113.65 9.6 113.7 9.45 113.75 9.35 113.85 9.25 113.9 9.2 113.95 9.2 114.05 9.2 114.1 9.15 114.15 9.15 114.2 9.15 114.3 9.15 114.35 9.15 114.4 9.1 114.5 9.1 114.55 9.1 114.6 9.1 114.7 9.1 114.75 9.1 114.8 9.1 115.1 9.1 114.95 9.1 115.35 9.05 117.2 9.0 118.6 8.95 119.5 8.9 121.4 8.8 123.1 8.8 123.25 8.55 124.2 8.55 124.25 8.55 124.25 8.5 124.3 8.5 124.35 8.5 124.35 8.5 124.4 8.5 124.45 8.5 124.45 8.5 124.5 8.5 124.55 8.5 124.55 8.5 124.6 8.5 124.65 8.5 124.7 8.5 124.7 8.5 124.75 8.55 124.85 8.6 125.0 8.6 125.1 8.65 125.2 8.65 125.35 8.7 125.45 8.7 125.55 8.75 125.7 8.75 125.8 8.75 125.95 8.75 126.05 8.8 126.2 8.8 126.25 8.8 126.4 8.8 126.7 8.8 126.65 8.8 126.8 9.0 129.05 9.05 129.6 9.8 132.6 9.85 132.8 9.95 133.25 9.95 133.3 9.9 133.35 9.85 133.4 9.85 133.45 9.8 133.45 9.75 133.5 9.7 133.55 9.65 133.55 9.65 133.6 9.6 133.6 9.55 133.65 9.5 133.65 9.45 133.65 9.4 133.7 9.35 133.7 9.3 133.75 9.25 133.8 9.15 133.8 9.1 133.85 9.05 133.85 9.0 133.9 8.95 133.95 8.85 134.0 8.8 134.0 8.75 134.05 8.7 134.1 8.7 134.15 8.65 134.25 8.6 134.3 8.55 134.35 8.55 134.45 8.5 134.5 8.2 134.5 8.1 134.5 7.55 134.35 7.0 134.25 6.45 134.1 5.9 133.95 5.35 133.8 4.8 133.65 4.25 133.55 3.75 133.4 3.2 133.25 2.65 133.05 2.1 132.9 1.55 132.75 1.0 132.6 0.45 132.45 -0.05 132.25 -0.6 132.1 -0.8 132.05 -1.0 131.95 -1.15 131.85 -1.3 131.75 -1.45 131.65 -1.6 131.55 -1.75 131.4 -1.85 131.3 -1.95 131.15 -2.05 131.0 -2.15 130.85 -2.2 130.65 -2.3 130.5 -2.3 130.3 -2.35 130.1 -2.4 129.9 -2.8 125.8 -2.8 123.85 -2.8 123.25 -2.65 122.2 -2.6 121.65 -2.45 120.5 -2.25 119.4 -2.2 118.85 -2.15 118.6 -2.15 118.35 -2.1 118.05 -2.1 117.8 -2.05 117.55 -2.05 117.3 -2.0 117.0 -2.0 116.75 -1.95 116.5 -1.95 116.25 -1.95 115.95 -1.9 115.7 -1.9 115.45 -1.85 115.2 -1.85 114.9 -1.85 114.65 -1.35 107.85 -1.2 106.7 -1.05 104.9 -0.85 102.0 -0.8 100.95 -0.6 96.65 -0.55 95.85 -0.45 93.3 -0.45 93.2 -0.45 93.1 -0.45 93.0 -0.45 92.9 -0.45 92.9 -0.4 92.7 -0.4 92.6 -0.4 92.5 -0.4 92.4 -0.4 92.35 -0.4 92.25 -0.4 92.15 -0.4 92.05 -0.4 91.95 -0.4 91.85 -0.4 91.75 -0.45 91.6 -0.45 91.4 -0.45 91.2 -0.45 91.05 -0.45 90.85 -0.45 90.65 -0.45 90.55 -0.4 90.3 -0.4 90.05 -0.4 89.95 -0.4 89.75 -0.4 89.55 -0.4 89.4 -0.4 89.2 -0.45 89.0 -0.45 88.85 -0.45 88.8 -0.45 88.8 -0.45 88.75 -0.45 88.7 -0.45 88.7 -0.45 88.65 -0.4 88.4 -0.4 87.05 -0.45 84.95 -0.5 84.0 -0.5 80.15 -0.8 73.85 -1.0 70.1 -1.35 65.15 -1.45 63.3 -1.95 57.5 -2.15 55.1 -2.55 50.55 -2.55 50.3 -2.65 49.6 -2.7 49.55 -2.7 49.55 -2.75 49.5 -2.75 49.5 -2.8 49.5 -2.85 49.45 -2.85 49.45 -2.9 49.45 -2.95 49.45 -2.95 49.45 -3.0 49.45 -3.05 49.45 -3.05 49.45 -3.1 49.45 -3.15 49.45 -3.15 49.45 -3.2 49.45 -3.2 49.45 -3.25 49.5 -3.25 49.5 -3.3 49.5 -3.3 49.55 -3.35 49.55 -3.35 49.55 -3.4 49.6 -3.4 49.6 -3.4 49.65 -3.45 49.65 -3.45 49.7 -3.45 49.7 -3.5 49.75 -3.5 49.75 -3.7 50.2 -4.85 52.35 -5.1 52.8 -5.35 53.25 -5.6 53.75 -5.9 54.2 -6.15 54.65 -6.4 55.1 -6.65 55.55 -6.95 56.0 -7.2 56.45 -7.5 56.9 -7.8 57.35 -8.05 57.75 -8.35 58.2 -8.65 58.65 -8.95 59.1 -9.25 59.5 -9.4 59.75 -9.6 60.0 -9.8 60.25 -9.95 60.5 -10.15 60.75 -10.35 60.95 -10.55 61.2 -10.75 61.4 -10.95 61.65 -11.15 61.85 -11.35 62.1 -11.55 62.3 -11.8 62.5 -12.0 62.7 -12.25 62.9 -12.5 63.1 -12.75 63.3 -13.05 63.5 -13.3 63.7 -13.6 63.9 -13.9 64.1 -14.15 64.3 -14.45 64.45 -14.75 64.6 -15.05 64.8 -15.35 64.95 -15.65 65.1 -16.0 65.2 -16.3 65.35 -16.6 65.5 -16.9 65.6 -17.25 65.75 -17.45 65.85 -20.5 66.75 -20.55 66.8 -21.0 66.85 -20.8 66.5 -20.8 66.5 -19.45 65.05 -18.85 64.35 -18.5 63.95 -18.15 63.6 -17.8 63.2 -17.5 62.8 -17.15 62.4 -16.85 61.95 -16.55 61.55 -16.25 61.1 -15.95 60.7 -15.65 60.25 -15.4 59.8 -15.1 59.35 -14.85 58.95 -14.6 58.5 -14.35 58.05 -14.1 57.55 -13.9 57.2 -13.75 56.85 -13.55 56.55 -13.4 56.2 -13.25 55.85 -13.1 55.5 -12.9 55.15 -12.75 54.8 -12.6 54.45 -12.5 54.1 -12.35 53.75 -12.2 53.4 -12.05 53.0 -11.95 52.65 -11.8 52.3 -11.7 51.95 -11.45 51.2 -11.05 50.2 -10.65 49.15 -10.1 46.5 -9.5 43.7 -9.15 39.45 -9.15 39.3 -9.1 38.75 -9.05 38.35 -9.05 38.05 -8.95 36.6 -9.0 36.35 -9.05 36.05 -8.95 35.4 -8.95 35.35 -8.95 35.25 -8.95 35.2 -8.95 35.15 -8.95 35.05 -8.95 35.0 -8.95 34.95 -8.95 34.9 -8.95 34.8 -8.95 34.75 -8.95 34.7 -9.0 34.65 -9.0 34.6 -9.0 34.5 -9.05 34.45 -9.05 34.4 -9.05 34.35 -9.05 34.3 -9.1 34.25 -9.1 34.2 -9.1 34.2 -9.1 34.15 -9.1 34.1 -9.15 34.05 -9.15 34.0 -9.15 33.95 -9.15 33.9 -9.15 33.85 -9.15 33.8 -9.15 33.75 -9.15 33.75 -9.15 33.7 -9.2 33.15 -9.25 32.05 -9.25 31.0 -9.3 30.4 -9.5 27.85 -9.65 25.7 -9.85 23.7 -10.1 21.2 -10.15 20.55 -10.35 19.2 -10.5 17.85 -10.55 17.15 -10.6 16.9 -10.6 16.6 -10.65 16.3 -10.7 16.05 -10.7 15.75 -10.75 15.5 -10.8 15.2 -10.8 14.95 -10.85 14.65 -10.85 14.4 -10.9 14.1 -10.95 13.85 -10.95 13.55 -11.0 13.3 -11.0 13.0 -11.05 12.7 -11.2 11.3 -11.5 7.7 -11.6 6.6 -11.65 5.6 -11.9 2.1 -12.1 -1.9 -12.45 -8.0 -12.65 -20.8 -12.65 -20.85 -12.65 -20.9 -12.65 -20.95 -12.65 -20.95 -12.65 -21.0 -12.65 -21.05 -12.65 -21.1 -12.65 -21.15 -12.65 -21.2 -12.65 -21.25 -12.65 -21.25 -12.65 -21.3 -12.65 -21.35 -12.65 -21.4 -12.65 -21.45 -12.65 -21.5 -12.65 -21.6 -12.65 -21.7 -12.65 -21.8 -12.65 -21.9 -12.65 -22.05 -12.65 -22.15 -12.65 -22.25 -12.65 -22.35 -12.65 -22.45 -12.6 -22.55 -12.6 -22.65 -12.6 -22.75 -12.55 -22.85 -12.55 -22.95 -12.5 -23.1 -12.45 -23.2 -12.4 -23.3 -12.4 -23.4 -12.35 -23.5 -12.35 -23.65 -12.35 -23.75 -12.35 -23.85 -12.3 -23.95 -12.3 -24.1 -12.3 -24.2 -12.3 -24.3 -12.3 -24.45 -12.3 -24.55 -12.3 -24.65 -12.3 -24.8 -12.3 -24.85 -12.3 -25.0 -12.3 -25.35 -12.2 -26.4 -11.75 -30.05 -10.65 -35.75 -10.65 -35.85 -10.6 -35.95 -10.6 -36.1 -10.55 -36.2 -10.5 -36.3 -10.5 -36.4 -10.45 -36.5 -10.4 -36.6 -10.35 -36.7 -10.3 -36.8 -10.3 -36.9 -10.25 -37.0 -10.2 -37.1 -10.15 -37.2 -10.1 -37.3 -10.05 -37.4 -9.9 -37.65 -9.8 -37.9 -9.65 -38.1 -9.5 -38.35 -9.35 -38.6 -9.2 -38.8 -9.05 -39.05 -8.9 -39.25 -8.75 -39.5 -8.6 -39.7 -8.4 -39.9 -8.25 -40.1 -8.05 -40.35 -7.9 -40.55 -7.7 -40.75 -7.55 -40.95 -5.3 -43.25 -4.05 -44.5 -3.55 -44.95 -3.1 -45.4 -2.6 -45.85 -2.1 -46.3 -1.65 -46.75 -1.15 -47.2 -0.65 -47.6 -0.15 -48.05 0.35 -48.5 0.85 -48.9 1.35 -49.3 1.9 -49.75 2.4 -50.15 2.9 -50.55 3.4 -50.95 3.95 -51.35 4.75 -51.95 5.55 -52.55 6.35 -53.15 7.2 -53.75 8.0 -54.3 8.85 -54.9 9.7 -55.45 10.55 -56.0 11.4 -56.55 12.25 -57.1 13.1 -57.6 13.95 -58.1 14.8 -58.65 15.7 -59.15 16.6 -59.65 17.45 -60.1 17.7 -60.25 17.95 -60.35 18.2 -60.5 18.45 -60.6 18.7 -60.7 18.95 -60.8 19.25 -60.85 19.5 -60.95 19.75 -61.05 20.0 -61.1 20.3 -61.15 20.55 -61.2 20.8 -61.25 21.1 -61.3 21.35 -61.35 21.65 -61.4 21.8 -61.4 21.95 -61.4 22.05 -61.45 22.2 -61.45 22.35 -61.4 22.5 -61.4 22.65 -61.4 22.8 -61.4 22.9 -61.4 23.05 -61.35 23.2 -61.35 23.35 -61.3 23.45 -61.3 23.6 -61.25 23.75 -61.25 23.9 -61.2 24.2 -61.15 24.45 -61.1 24.75 -61.0 25.0 -60.95 25.25 -60.9 25.55 -60.8 25.8 -60.7 26.1 -60.65 26.35 -60.55 26.6 -60.45 26.9 -60.4 27.15 -60.3 27.4 -60.2 27.7 -60.05 27.95 -59.95 28.2 -59.85 28.35 -59.8 28.55 -59.7 28.7 -59.65 28.85 -59.6 29.05 -59.5 29.2 -59.45 29.35 -59.4 29.55 -59.35 29.7 -59.3 29.9 -59.25 30.05 -59.2 30.25 -59.15 30.4 -59.1 30.6 -59.1 30.75 -59.05 30.95 -59.05 31.25 -59.0 32.1 -58.7 32.15 -58.7 32.2 -58.7 32.25 -58.65 32.3 -58.65 32.35 -58.65 32.4 -58.65 32.4 -58.65 32.45 -58.65 32.5 -58.65 32.55 -58.65 32.6 -58.65 32.65 -58.65 32.7 -58.65 32.75 -58.7 32.8 -58.7 32.85 -58.7 33.15 -58.8 33.7 -58.9 34.35 -59.05 34.55 -59.1 34.8 -59.15 35.0 -59.2 35.25 -59.3 35.45 -59.35 35.7 -59.45 35.9 -59.55 36.15 -59.65 36.35 -59.75 36.6 -59.85 36.8 -59.95 37.0 -60.05 37.2 -60.2 37.4 -60.3 37.6 -60.45 37.8 -60.55 38.0 -60.7 38.55 -61.15 39.5 -61.7 39.65 -61.75 39.75 -61.85 39.9 -61.9 40.05 -61.95 40.15 -62.0 40.3 -62.05 40.45 -62.1 40.6 -62.15 40.7 -62.2 40.85 -62.25 41.0 -62.25 41.15 -62.3 41.3 -62.3 41.45 -62.35 41.6 -62.35 41.75 -62.35 43.1 -62.45 43.2 -62.45 43.5 -62.45 43.85 -62.45 44.15 -62.45 44.5 -62.5 44.8 -62.55 45.15 -62.55 45.45 -62.6 45.8 -62.65 46.1 -62.7 46.4 -62.75 46.75 -62.8 47.05 -62.9 47.35 -62.95 47.7 -63.05 48.0 -63.1 48.3 -63.2 50.05 -63.65 53.05 -64.8 53.3 -64.9 53.6 -65.0 53.85 -65.1 54.1 -65.2 54.4 -65.3 54.65 -65.4 54.9 -65.5 55.2 -65.6 55.45 -65.7 55.75 -65.8 56.0 -65.9 56.25 -66.0 56.55 -66.1 56.8 -66.2 57.05 -66.3 57.35 -66.4 58.85 -66.95 62.45 -67.65 64.15 -68.0 64.3 -68.0 64.4 -68.0 64.45 -68.05 64.55 -68.05 64.6 -68.05 64.7 -68.05 64.75 -68.05 64.85 -68.05 64.9 -68.05 65.0 -68.05 65.05 -68.05 65.15 -68.0 65.2 -68.0 65.3 -68.0 65.35 -67.95 65.45 -67.9 65.5 -67.9 65.65 -67.85 65.75 -67.75 65.9 -67.7 66.0 -67.65 66.15 -67.55 66.25 -67.5 66.4 -67.4 66.5 -67.35 66.6 -67.25 66.75 -67.2 66.85 -67.1 66.95 -67.0 67.05 -66.9 67.15 -66.85 67.3 -66.75 67.35 -66.65 67.55 -66.45 67.75 -66.25 67.95 -66.05 68.2 -65.9 68.4 -65.7 68.65 -65.55 68.85 -65.4 69.1 -65.2 69.35 -65.05 69.55 -64.95 69.8 -64.8 70.05 -64.65 70.3 -64.55 70.55 -64.4 70.8 -64.3 71.05 -64.15 71.3 -64.05 71.95 -63.8 72.5 -63.55 72.85 -63.45 73.6 -63.15 74.3 -62.85 75.0 -62.5 75.65 -62.15 76.35 -61.75 77.0 -61.35 77.6 -60.9 78.2 -60.45 78.8 -59.95 79.4 -59.45 79.95 -58.95 80.5 -58.4 81.0 -57.85 81.55 -57.25 82.05 -56.7 82.5 -56.05 82.75 -55.75 82.95 -55.45 83.2 -55.15 83.4 -54.8 83.6 -54.5 83.85 -54.15 84.05 -53.85 84.25 -53.5 84.45 -53.2 84.6 -52.85 84.8 -52.55 85.0 -52.2 85.15 -51.85 85.35 -51.5 85.55 -51.2 85.7 -50.85 86.15 -50.0 86.55 -49.15 86.95 -48.25 87.35 -47.4 87.7 -46.55 88.05 -45.65 88.45 -44.8 88.75 -43.9 89.1 -43.0 89.45 -42.1 89.75 -41.2 90.05 -40.3 90.3 -39.4 90.6 -38.5 90.85 -37.6 91.1 -36.65 91.45 -35.25 91.95 -32.7 93.7 -23.75 95.4 -17.3 95.55 -16.85 95.8 -16.0 96.05 -15.15 96.15 -14.7 96.15 -14.65 96.2 -14.6 96.2 -14.5 96.2 -14.45 96.2 -14.4 96.25 -14.35 96.25 -14.3 96.25 -14.25 96.25 -14.2 96.2 -14.1 96.2 -14.05 96.2 -14.0 96.15 -13.95 96.15 -13.9 96.1 -13.85 96.1 -13.8 96.05 -13.7 96.0 -13.6 95.95 -13.5 95.9 -13.4 95.85 -13.3 95.85 -13.15 95.8 -13.05 95.8 -12.95 95.75 -12.85 95.75 -12.75 95.75 -12.65 95.75 -12.5 95.7 -12.4 95.7 -12.3 95.7 -12.2 95.7 -12.05 95.6 -10.35 95.45 -6.05 95.45 -5.85 95.4 -4.35 95.4 -4.25 95.4 -4.2 95.4 -4.1 95.4 -4.05 95.4 -3.95 95.4 -3.85 95.4 -3.8 95.35 -3.7 95.35 -3.65 95.35 -3.55 95.35 -3.45 95.3 -3.4 95.3 -3.3 95.25 -3.25 95.25 -3.15 95.2 -3.1 95.2 -3.05 95.2 -3.05 95.15 -3.0 95.15 -2.95 95.15 -2.9 95.15 -2.9 95.15 -2.85 95.15 -2.8 95.15 -2.75 95.15 -2.75 95.15 -2.7 95.15 -2.65 95.15 -2.6 95.15 -2.6 95.2 -2.55 95.2 -2.5 95.25 -2.4 95.25 -2.3 95.3 -2.2 95.3 -2.1 95.3 -2.0 95.35 -1.9 95.35 -1.85 95.35 -1.75 95.35 -1.65 95.4 -1.55 95.4 -1.45 95.4 -1.35 95.4 -1.25 95.4 -1.15 95.4 -1.05 95.4 -0.95 95.4 -0.4 95.45 1.75 95.5 3.35 95.55 4.4 95.75 8.2 95.85 9.7 95.9 10.35 96.0 11.0 96.05 11.65 96.15 12.3 96.2 12.95 96.3 13.6 96.4 14.25 96.5 14.9 96.6 15.55 96.75 16.2 96.85 16.85 97.0 17.45 97.15 18.1 97.3 18.75 97.45 19.4 97.6 20.0 97.65 20.2 97.7 20.4 97.75 20.65 97.8 20.85 97.85 21.05 97.9 21.25 97.95 21.45 98.0 21.65 98.05 21.9 98.1 22.1 98.15 22.3 98.15 22.5 98.2 22.7 98.25 22.9 98.25 23.15 98.25 23.35 98.25 23.45 98.25 23.5 98.3 23.55 98.3 23.6 98.3 23.7 98.35 23.75 98.35 23.85 98.35 23.9 98.4 23.95 98.4 24.0 98.45 24.1 98.5 24.15 98.55 24.2 98.6 24.25 98.65 24.3 98.7 24.35 98.75 24.35 98.75 24.4 98.8 24.45 98.8 24.5 98.8 24.5 98.85 24.55 98.85 24.6 98.85 24.65 99.35 26.2 99.45 26.9 99.7 29.35 100.25 33.9 100.3 34.35 100.4 35.05 100.55 35.9 100.55 36.15 100.55 36.2 100.55 36.25 100.55 36.25 100.55 36.3 100.6 36.35 100.6 36.4 100.6 36.45 100.6 36.5 100.6 36.5 100.6 36.55 100.6 36.6 100.6 36.65 100.6 36.7 100.6 36.75 100.6 36.75 100.6 36.8 100.5 39.3 100.35 42.35 100.35 42.45 100.35 42.8 100.35 43.1 100.3 43.25 100.3 43.35 100.3 43.45 100.3 43.55 100.3 43.65 100.3 43.75 100.25 43.85 100.25 43.95 100.25 44.05 100.25 44.15 100.2 44.2 100.2 44.3 100.2 44.4 100.15 44.5 100.15 44.6 100.1 44.7 100.05 44.75 100.05 44.8 100.05 44.85 100.0 44.9 100.0 44.95 100.0 45.0 100.0 45.05 100.0 45.1 100.0 45.15 100.0 45.2 100.05 45.2 100.25 45.7 100.3 47.35 100.35 48.0 100.4 49.1 100.45 50.5 100.5 50.85 100.55 52.2 100.85 56.75 101.1 60.75 101.15 61.75 101.15 62.1 101.5 66.4 101.6 68.0 101.65 68.55 101.75 69.55 101.9 71.1 102.15 73.65 102.2 73.7 102.2 73.95 102.25 74.15 102.25 74.4 102.3 74.65 102.3 74.9 102.35 75.1 102.35 75.35 102.4 75.6 102.4 75.85 102.45 76.05 102.45 76.3 102.5 76.55 102.5 76.75 102.55 77.0 102.55 77.25 102.6 77.5 102.65 77.75 102.65 78.0 102.7 78.3 102.75 78.55 102.75 78.8 102.8 79.05 102.85 79.35 102.9 79.6 102.9 79.85 102.95 80.1 103.0 80.4 103.05 80.65 103.05 80.9 103.1 81.2 103.15 81.45 103.2 81.7 103.35 82.9 104.05 87.25 104.45 89.7 105.6 94.5 105.95 95.95 106.35 97.4 106.75 98.85 107.2 100.3 107.6 101.7 108.1 103.15 108.55 104.55 109.05 106.0 109.55 107.4 110.1 108.8 110.65 110.2 111.2 111.6 111.75 112.95 112.35 114.35 112.95 115.7 113.6 117.1 114.0 118.05 115.05 120.35 115.1 120.45 115.1 120.55 115.15 120.7 115.2 120.75 115.15 120.75 115.1 120.75 115.05 120.75 115.05 120.75 115.05 120.75 115.0 120.75 112.9 119.6 111.85 118.85 111.65 118.7 111.5 118.6 111.3 118.45 111.1 118.3 110.95 118.15 110.8 118.0 110.6 117.85 110.45 117.7 110.3 117.55 110.15 117.4 109.95 117.2 109.8 117.05 109.65 116.9 109.55 116.7 109.4 116.55 109.25 116.35 108.85 115.85 108.45 115.35 108.1 114.8 107.7 114.3 107.35 113.8 106.95 113.25 106.6 112.75 106.25 112.2 105.9 111.7 105.5 111.15 105.15 110.6 104.8 110.05 104.45 109.55 104.1 109.0 103.8 108.45 103.45 107.9 103.1 107.35 100.0 102.45 99.85 102.25 99.75 102.0 99.6 101.75 99.5 101.55 99.35 101.3 99.25 101.1 99.15 100.85 99.05 100.6 98.95 100.4 98.85 100.15 98.75 99.9 98.65 99.65 98.55 99.45 98.45 99.2 98.35 98.95 98.25 98.7 98.2 98.5 97.55 96.85 97.55 96.8 97.5 96.75 97.5 96.7 97.5 96.7 97.45 96.65 97.45 96.6 97.4 96.6 97.4 96.55 97.35 96.5 97.35 96.5 97.3 96.45 97.25 96.45 97.2 96.45 97.2 96.45 97.15 96.4 97.1 96.4 97.05 96.4 97.0 96.4 96.95 96.4 96.95 96.4 96.9 96.35 96.85 96.35 96.8 96.35 96.75 96.3 96.65 96.25 96.55 96.25 96.5 96.2 96.4 96.2 96.3 96.2 96.2 96.2 96.1 96.2 96.0 96.2 95.95 96.2 95.85 96.2 95.75 96.25 95.65 96.25 95.6 96.3 95.5 96.3 95.4 96.35 95.3 96.4 95.25 96.4 95.2 96.45 95.15 96.45 95.1 96.5 95.05 96.5 95.05 96.55 95.0 96.55 94.95 96.6 94.95 96.65 94.9 96.7 94.9 96.7 94.85 96.75 94.85 96.8 94.8 96.85 94.8 96.9 94.8 96.95 94.8 97.0 94.7 97.2 94.65 97.35 94.6 97.45 94.6 97.5 94.55 97.6 94.55 97.65 94.55 97.7 94.5 97.75 94.5 97.85 94.5 97.9 94.5 97.95 94.5 98.05 94.5 98.1 94.5 98.15 94.5 98.2 94.55 98.3 94.55 98.35 94.55 98.4 94.6 98.5 94.6 98.55 94.65 98.6 94.65 98.65 94.65 98.7 94.65 98.7 94.7 98.75 94.7 98.8 94.7 98.85 94.7 98.9 94.7 98.95 94.7 99.0 94.7 99.05 94.75 99.1 94.75 99.15 94.75 99.2 94.75 99.25 94.8 99.65 94.85 101.25 94.95 102.45 95.1 105.1 95.25 107.6 95.3 108.9 95.7 113.8 96.1 116.85 96.7 121.25 97.15 123.55 97.25 124.1 97.35 124.55 97.45 125.05 97.55 125.5 97.7 126.05 97.8 126.5 97.9 127.0 98.05 127.45 98.15 127.95 98.3 128.45 98.45 128.9 98.6 129.4 98.75 129.85 98.95 130.35 99.1 130.8 99.3 131.25 99.3 131.35 99.35 131.45 99.4 131.6 99.4 131.65 99.4 131.65 99.4 131.75 99.4 131.75 98.35 132.1 98.3 132.1 98.25 132.15 98.15 132.15 98.1 132.15 98.05 132.2 98.0 132.2 97.9 132.2 97.85 132.2 97.8 132.2 97.7 132.2 97.65 132.2 97.6 132.2 97.55 132.2 97.45 132.2 97.4 132.15 97.3 132.15 96.5 132.0 94.65 131.65 92.9 131.35 91.95 131.15 88.85 130.5 87.8 130.25 87.25 130.1 86.7 129.95 86.2 129.8 85.65 129.65 85.15 129.45 84.65 129.25 84.15 129.05 83.65 128.8 83.15 128.55 82.7 128.3 82.25 128.0 81.8 127.7 81.3 127.4 80.9 127.05 80.45 126.7 80.05 126.35 79.7 126.05 79.4 125.75 79.05 125.4 78.75 125.1 78.45 124.75 78.2 124.4 77.9 124.05 77.65 123.7 77.4 123.35 77.15 122.95 76.95 122.6 76.75 122.2 76.5 121.8 76.3 121.4 76.15 121.0 75.95 120.55 75.75 120.05 75.55 119.55 75.4 119.05 75.2 118.55 75.05 118.0 74.85 117.5 74.7 117.0 74.5 116.5 74.35 115.95 74.2 115.45 74.05 114.95 73.9 114.4 73.75 113.9 73.6 113.35 73.5 112.85 73.35 112.3 72.5 109.05 71.95 106.35 71.65 105.05 71.3 102.35 71.2 101.35 70.85 97.85 70.75 96.95 70.7 95.7 70.55 93.05 70.4 90.2 70.3 86.4 70.25 85.55 70.25 85.5 70.25 85.45 70.25 85.4 70.25 85.35 70.25 85.3 70.25 85.25 70.25 85.2 70.25 85.15 70.25 85.1 70.3 85.1 70.3 85.05 70.3 85.0 70.3 84.95 70.3 84.9 70.3 84.85 70.35 84.8 70.4 84.55 70.45 84.1 70.55 83.55 70.55 83.45 70.6 83.2 70.55 83.15 70.5 83.0 70.55 81.9 70.55 80.45 70.65 79.4 70.65 79.3 70.7 77.35 70.7 77.25 70.75 76.85 70.75 76.8 70.75 76.75 70.75 76.65 70.75 76.65 70.8 76.6 70.75 76.55 70.75 76.45 70.7 76.35 70.7 76.3 70.7 76.2 70.7 76.1 70.7 76.0 70.7 75.95 70.7 75.85 70.75 75.75 70.75 75.65 70.75 75.5 70.75 75.5 70.8 75.4 70.8 75.3 70.8 75.2 70.8 75.1 70.8 74.9 70.8 74.85 70.75 74.8 70.75 74.7 70.75 74.65 70.7 74.6 70.7 74.5 70.7 74.45 70.7 74.4 70.7 74.3 70.7 74.25 70.7 74.15 70.7 74.1 70.7 74.05 70.7 74.0 70.75 73.9 70.75 73.8 70.75 73.75 70.75 73.7 70.75 73.55 70.8 73.4 70.8 73.35 70.8 73.25 70.8 73.15 70.8 73.0 70.85 72.95 70.85 72.8 70.85 72.7 70.85 72.6 70.8 72.5 70.8 72.4 70.8 72.3 70.75 72.2 70.7 72.1 70.7 72.05 70.75 71.8 70.75 71.7 70.85 70.85 70.85 70.75 70.85 70.75 70.85 70.7 70.85 70.65 70.9 70.6 70.85 70.55 70.85 70.5 70.85 70.45 70.8 70.4 70.8 70.3 70.8 70.25 70.8 70.2 70.75 70.1 70.75 70.05 70.75 69.95 70.75 69.9 70.75 69.85 70.8 69.75 70.8 69.7 70.8 69.65 70.8 69.55 70.8 69.5 70.85 69.45 70.85 69.35 70.9 68.95 70.9 68.95 70.85 68.85 70.85 68.75 70.85 68.6 70.85 68.5 70.85 68.4 70.85 68.3 70.85 68.2 70.85 68.05 70.85 68.1 70.9 67.85 70.9 67.7 70.9 67.6 70.95 67.5 70.95 67.4 70.95 67.3 70.95 67.2 70.95 67.15 70.95 67.1 70.95 67.05 70.95 67.0 70.95 66.95 70.95 66.85 70.95 66.85 70.95 66.75 70.95 66.7 70.95 66.65 70.95 66.6 70.95 66.55 70.95 66.5 70.95 66.45 70.95 66.35 70.9 66.3 70.9 66.25 70.95 65.8 71.0 65.1 71.15 63.65 71.3 62.2 71.35 61.5 71.45 60.35 71.75 56.95 71.75 56.65 71.8 56.35 71.8 56.1 71.8 55.8 71.85 55.5 71.85 55.2 71.9 54.95 71.9 54.65 71.9 54.35 71.95 54.05 71.95 53.75 72.0 53.5 72.0 53.2 72.05 52.9 72.05 52.6 72.1 52.3 72.2 50.85 72.4 48.6 72.45 48.1 72.55 47.1 72.65 46.1 72.7 45.6 72.8 44.7 73.05 41.85 73.3 38.8 73.55 36.35 73.55 36.15 73.6 35.95 73.6 35.75 73.6 35.55 73.65 35.35 73.65 35.15 73.65 34.95 73.7 34.75 73.7 34.55 73.7 34.35 73.75 34.15 73.75 33.95 73.8 33.75 73.8 33.55 73.8 33.35 73.85 33.15 73.95 32.35 74.05 31.05 74.25 29.45 74.3 28.9 74.4 28.15 74.5 27.05 74.65 25.25 74.65 25.2 74.75 24.2 74.9 22.7 75.1 20.35 75.15 20.25 75.15 20.2 75.55 15.7 75.75 13.75 75.95 11.45 76.0 11.0 76.1 9.2 76.2 7.8 76.25 6.95 76.6 3.0 76.75 1.7 76.8 1.1 77.25 -2.65 77.45 -4.05 77.55 -4.95 77.6 -5.6 77.65 -6.95 77.65 -7.1 77.5 -7.4 77.5 -7.45 77.45 -7.55 77.45 -7.6 77.45 -7.65 77.4 -7.75 77.4 -7.8 77.4 -7.9 77.35 -7.95 77.35 -8.0 77.35 -8.1 77.35 -8.15 77.35 -8.25 77.35 -8.3 77.35 -8.35 77.3 -8.45 77.3 -8.5 77.3 -8.9 77.25 -9.35 77.25 -9.75 77.25 -10.15 77.2 -10.6 77.2 -11.0 77.15 -11.4 77.15 -11.85 77.1 -12.25 77.05 -12.65 77.05 -13.1 77.0 -13.5 76.95 -13.9 76.9 -14.35 76.85 -14.75 76.8 -15.15 76.8 -15.25 76.45 -18.55 76.25 -20.55 76.1 -21.9 76.05 -22.25 76.05 -22.55 76.0 -22.85 75.95 -23.15 75.9 -23.5 75.85 -23.8 75.8 -24.1 75.75 -24.4 75.7 -24.75 75.65 -25.05 75.6 -25.35 75.5 -25.65 75.45 -25.95 75.35 -26.25 75.3 -26.6 75.2 -26.9 75.0 -27.55 74.75 -28.1 74.5 -28.7 74.25 -29.25 73.95 -29.85 73.6 -30.35 73.3 -30.9 72.9 -31.35 72.55 -31.85 72.1 -32.3 71.7 -32.75 71.2 -33.2 70.75 -33.6 70.25 -34.0 69.7 -34.4 69.15 -34.75 68.85 -34.9 68.6 -35.1 68.3 -35.25 68.0 -35.4 67.7 -35.5 67.4 -35.65 67.1 -35.8 66.8 -35.9 66.5 -36.0 66.2 -36.15 65.9 -36.25 65.55 -36.35 65.25 -36.45 64.95 -36.55 64.65 -36.65 64.3 -36.7 62.5 -37.2 61.55 -37.4 60.1 -37.7 58.25 -37.95 56.1 -38.25 53.0 -38.35 52.85 -38.35 52.75 -38.35 52.65 -38.35 52.5 -38.4 52.4 -38.4 52.3 -38.4 52.15 -38.4 52.05 -38.4 51.9 -38.45 51.8 -38.45 51.7 -38.5 51.55 -38.5 51.45 -38.55 51.35 -38.55 51.2 -38.6 51.1 -38.65 51.05 -38.65 51.05 -38.65 51.0 -38.65 50.95 -38.65 50.95 -38.7 50.9 -38.7 50.85 -38.7 50.85 -38.7 50.8 -38.65 50.8 -38.65 50.75 -38.65 50.7 -38.65 50.7 -38.65 50.65 -38.65 50.6 -38.65 50.6 -38.6 50.5 -38.55 50.4 -38.55 50.3 -38.5 50.2 -38.5 50.1 -38.45 49.95 -38.45 49.85 -38.4 49.75 -38.4 49.65 -38.4 49.55 -38.4 49.45 -38.35 49.3 -38.35 49.25 -38.35 49.1 -38.35 48.05 -38.3 48.9 -38.35 48.55 -38.3 48.2 -38.3 47.9 -38.25 47.55 -38.2 47.2 -38.2 46.9 -38.15 46.55 -38.1 46.2 -38.0 45.9 -37.95 45.55 -37.9 45.2 -37.85 44.9 -37.75 44.55 -37.65 44.25 -37.6 43.9 -37.5 43.6 -37.4 43.55 -37.4 43.45 -37.35 43.4 -37.35 43.3 -37.3 43.25 -37.3 43.2 -37.3 43.1 -37.3 43.05 -37.3 42.95 -37.25 42.9 -37.25 42.85 -37.25 42.75 -37.3 42.7 -37.3 42.65 -37.3 42.55 -37.3 42.5 -37.3 42.3 -37.35 41.9 -37.45 41.5 -37.55 41.3 -37.6 41.25 -37.6 41.25 -37.6 41.2 -37.65 41.2 -37.65 41.15 -37.65 41.1 -37.65 41.1 -37.65 41.05 -37.65 41.05 -37.65 41.0 -37.65 40.95 -37.65 40.95 -37.65 40.9 -37.65 40.85 -37.6 40.85 -37.6 40.8 -37.6 40.25 -37.4 38.75 -37.15 38.5 -37.1 38.1 -37.0 37.7 -36.9 37.5 -36.85 37.45 -36.85 37.4 -36.85 37.4 -36.8 37.35 -36.8 37.3 -36.8 37.25 -36.8 37.2 -36.8 37.2 -36.8 37.15 -36.75 37.1 -36.75 37.05 -36.75 37.0 -36.75 36.95 -36.75 36.95 -36.75 36.9 -36.75 36.85 -36.75 36.5 -36.8 35.9 -36.85 35.15 -36.95 34.95 -37.0 34.65 -37.05 34.6 -37.05 34.5 -37.1 34.45 -37.1 34.35 -37.15 34.3 -37.15 34.2 -37.15 34.15 -37.2 34.05 -37.2 34.0 -37.2 33.9 -37.2 33.85 -37.15 33.75 -37.15 33.7 -37.15 33.6 -37.15 33.55 -37.1 33.45 -37.1 33.4 -37.05 33.2 -37.0 32.6 -36.9 32.25 -36.85 31.5 -36.75 30.75 -36.65 30.35 -36.6 30.25 -36.6 30.1 -36.55 30.0 -36.5 29.9 -36.5 29.75 -36.45 29.65 -36.4 29.55 -36.4 29.45 -36.35 29.3 -36.3 29.2 -36.25 29.1 -36.2 29.0 -36.2 28.85 -36.15 28.75 -36.1 28.65 -36.05 28.55 -36.0 28.2 -35.85 27.85 -35.7 27.55 -35.5 27.2 -35.35 26.85 -35.15 26.55 -35.0 26.2 -34.8 25.85 -34.6 25.55 -34.45 25.2 -34.25 24.9 -34.05 24.6 -33.85 24.25 -33.65 23.95 -33.45 23.65 -33.25 23.3 -33.05 23.1 -32.9 22.75 -32.7 22.3 -32.35 22.2 -32.3 21.8 -32.05 21.4 -31.75 21.05 -31.45 20.65 -31.15 20.3 -30.85 19.95 -30.5 19.65 -30.15 19.3 -29.8 19.0 -29.45 18.7 -29.1 18.4 -28.7 18.15 -28.3 17.9 -27.9 17.65 -27.5 17.4 -27.1 17.2 -26.65 17.15 -26.55 17.05 -26.35 16.9 -26.1 16.9 -26.05 16.75 -25.8 16.6 -25.5 16.5 -25.25 16.35 -24.95 16.25 -24.7 16.15 -24.4 16.05 -24.15 15.95 -23.85 15.85 -23.6 15.75 -23.3 15.7 -23.0 15.6 -22.7 15.55 -22.4 15.45 -22.1 15.4 -21.85 15.35 -21.55 15.3 -21.2 15.2 -20.8 15.15 -20.45 15.1 -20.1 15.05 -19.75 15.0 -19.35 14.95 -19.0 14.85 -18.65 14.8 -18.3 14.75 -17.9 14.75 -17.55 14.7 -17.2 14.65 -16.85 14.6 -16.45 14.55 -16.1 14.5 -15.75 14.4 -14.55 14.3 -12.7 14.2 -10.25 14.15 -9.6 14.15 -9.5 14.15 -9.45 14.15 -9.4 14.15 -9.35 14.15 -9.25 14.15 -9.2 14.15 -9.15 14.1 -9.1 14.1 -9.0 14.1 -8.95 14.1 -8.9 14.1 -8.8 14.05 -8.75 14.05 -8.7 14.0 -8.65 14.0 -8.55 14.0 -8.5 13.95 -8.45 13.95 -8.4 13.95 -8.35 13.9 -8.3 13.9 -8.3 13.9 -8.25 13.9 -8.2 13.9 -8.15 13.9 -8.1 13.9 -8.05 13.95 -8.0 13.95 -7.95 13.95 -7.9 13.95 -7.85 14.0 -7.8 14.0 -7.75 14.05 -7.7 14.05 -7.65 14.05 -7.6 14.05 -7.5 14.05 -7.45 14.1 -7.4 14.1 -7.35 14.1 -7.3 14.1 -7.25 14.1 -7.15 14.1 -7.1 14.15 -7.05 14.15 -7.0 14.15 -6.95 14.15 -6.9 14.15 -6.65 14.2 -5.2 14.25 -4.2 14.3 -3.55 14.4 -1.0 14.65 2.1 14.75 3.45 14.95 5.75 15.05 6.75 15.4 10.45 15.5 11.25 15.85 14.75 16.0 16.05 16.35 19.15 16.7 22.35 16.8 23.1 17.15 25.85 17.4 28.25 17.6 29.8 17.85 32.15 18.15 34.5 18.35 36.45 18.45 37.35 18.6 38.75 18.75 40.65 18.8 41.05 19.0 43.25 19.2 50.25 19.35 58.9 19.35 59.15 19.4 60.5 19.55 64.3 19.65 67.5 19.7 69.4 19.75 70.35 19.8 72.4 19.85 74.3 19.85 75.35 20.0 79.3 20.25 86.55 20.25 87.65 20.35 90.95 20.35 91.1 20.55 97.25 20.85 106.35 20.9 107.3 21.05 112.05 21.1 112.8 21.15 115.15 21.45 121.1 21.45 121.95 21.55 124.1 21.7 126.95 21.95 132.3 21.95 132.3 21.9 132.4 L21.9 132.4 M79.5 66.45 Q79.65 66.5 79.75 66.55 79.85 66.6 79.95 66.6 80.1 66.65 80.15 66.65 80.25 66.65 80.35 66.65 80.45 66.6 80.5 66.6 80.6 66.55 80.7 66.5 80.75 66.4 80.85 66.35 80.9 66.25 81.0 66.15 81.2 65.9 81.55 65.25 81.65 65.1 81.85 64.75 82.05 64.4 82.15 64.2 83.65 61.9 84.3 60.95 84.8 60.2 85.25 59.5 85.7 58.75 86.1 57.95 86.5 57.2 86.85 56.4 87.2 55.65 87.45 54.85 87.75 54.05 88.0 53.2 88.25 52.4 88.4 51.55 88.6 50.7 88.7 49.85 88.85 49.0 88.9 48.1 88.9 47.85 88.95 47.55 88.95 47.3 89.0 47.05 89.0 46.8 89.05 46.5 89.05 46.25 89.1 46.0 89.1 45.7 89.1 45.45 89.15 45.2 89.15 44.95 89.2 44.65 89.2 44.4 89.2 44.15 89.25 43.85 89.35 41.7 89.2 40.9 89.2 40.8 89.15 40.7 89.15 40.55 89.15 40.45 89.15 40.35 89.15 40.25 89.15 40.15 89.15 40.0 89.15 39.9 89.2 39.8 89.2 39.7 89.2 39.6 89.2 39.5 89.25 39.4 89.25 39.3 89.25 39.15 89.3 38.85 89.35 38.55 89.4 38.2 89.45 37.9 89.5 37.6 89.55 37.3 89.55 36.95 89.6 36.65 89.65 36.35 89.7 36.05 89.7 35.7 89.75 35.4 89.8 35.1 89.8 34.75 89.85 34.45 89.85 34.15 90.0 31.65 90.05 30.6 90.1 29.75 90.1 28.25 90.1 27.5 90.1 26.35 90.1 24.7 90.1 24.5 90.2 23.15 90.2 23.05 90.1 21.2 90.1 21.2 90.1 20.55 90.1 19.9 90.1 19.2 90.1 18.55 90.1 17.9 90.05 17.25 90.05 16.6 90.05 15.9 90.0 15.25 90.0 14.6 89.95 13.95 89.95 13.3 89.9 12.65 89.9 11.95 89.85 11.3 89.85 10.65 89.7 8.4 89.5 6.55 89.4 5.05 89.05 1.75 89.05 1.7 88.9 0.55 88.8 -0.15 88.75 -0.6 88.75 -0.7 88.75 -0.75 88.7 -0.85 88.7 -0.9 88.7 -0.95 88.65 -1.05 88.65 -1.1 88.65 -1.15 88.6 -1.25 88.55 -1.3 88.55 -1.35 88.5 -1.4 88.45 -1.5 88.4 -1.55 88.4 -1.6 88.3 -1.65 88.3 -1.65 88.25 -1.7 88.25 -1.7 88.25 -1.75 88.2 -1.8 88.2 -1.8 88.2 -1.85 88.2 -1.85 88.15 -1.9 88.15 -1.95 88.15 -1.95 88.15 -2.0 88.15 -2.05 88.15 -2.05 88.15 -2.1 88.15 -2.15 88.15 -2.25 88.1 -2.65 88.1 -2.85 88.05 -3.0 88.05 -3.15 88.0 -3.25 87.95 -3.4 87.9 -3.5 87.85 -3.6 87.8 -3.7 87.7 -3.75 87.6 -3.85 87.5 -3.9 87.4 -3.95 87.25 -4.0 87.1 -4.05 86.95 -4.05 86.8 -4.1 86.6 -4.1 86.45 -4.1 86.25 -4.1 86.1 -4.05 85.95 -4.05 85.8 -3.95 85.65 -3.9 85.5 -3.8 85.4 -3.7 85.3 -3.6 85.2 -3.45 85.15 -3.3 85.05 -3.15 85.05 -3.0 85.0 -2.8 84.95 -2.65 84.95 -2.5 84.95 -1.85 84.95 -1.4 84.9 -1.1 84.9 0.6 84.85 1.25 84.65 4.8 84.15 9.95 83.9 12.45 83.55 17.55 83.5 18.3 83.45 20.5 83.35 22.4 83.4 23.4 83.6 30.2 83.6 30.3 83.6 30.35 83.6 30.4 83.6 30.4 83.6 30.45 83.6 30.5 83.6 30.55 83.6 30.55 83.55 30.6 83.55 30.65 83.55 30.7 83.55 30.7 83.5 30.75 83.5 30.8 83.45 30.8 83.45 30.85 83.4 30.9 83.35 30.95 83.3 31.05 83.25 31.15 83.2 31.2 83.15 31.3 83.1 31.4 83.1 31.45 83.05 31.55 83.05 31.65 83.0 31.75 83.0 31.85 83.0 31.95 83.0 32.0 83.0 32.1 83.0 32.2 83.0 32.3 83.0 32.4 83.0 32.5 83.05 32.55 83.05 32.65 83.05 32.75 83.05 32.85 83.05 32.95 83.05 33.0 83.05 33.1 83.05 33.2 83.05 33.3 83.05 33.35 83.05 33.45 83.05 33.55 83.05 33.65 83.05 33.7 83.05 33.8 83.05 33.9 83.05 34.0 83.05 34.1 83.0 34.25 83.0 34.35 83.0 34.45 83.0 34.55 83.0 34.65 83.0 34.75 82.95 34.85 82.95 34.95 82.95 35.05 82.95 35.15 82.95 35.25 82.9 35.4 82.85 35.75 82.85 36.05 82.8 36.4 82.75 36.75 82.75 37.05 82.7 37.4 82.65 37.75 82.65 38.05 82.6 38.4 82.55 38.75 82.5 39.05 82.5 39.4 82.45 39.75 82.4 40.05 82.35 40.4 82.3 40.75 82.05 42.95 81.7 45.55 81.25 48.75 80.95 50.5 80.8 51.5 80.45 53.25 80.05 55.15 79.9 56.0 79.85 56.35 79.7 57.3 79.6 58.1 79.5 58.55 79.45 58.75 79.45 58.9 79.4 59.1 79.4 59.25 79.35 59.45 79.35 59.6 79.35 59.8 79.3 60.0 79.3 60.15 79.3 60.35 79.3 60.5 79.3 60.7 79.35 60.85 79.35 61.05 79.35 61.25 79.4 61.4 79.4 61.5 79.4 61.6 79.45 61.65 79.45 61.75 79.4 61.85 79.4 61.9 79.4 62.0 79.35 62.1 79.35 62.15 79.3 62.25 79.25 62.3 79.2 62.4 79.2 62.45 79.1 62.55 79.05 62.6 79.0 62.65 78.85 62.8 78.75 62.95 78.65 63.15 78.6 63.3 78.55 63.45 78.5 63.65 78.5 63.85 78.5 64.0 78.5 64.2 78.55 64.35 78.6 64.55 78.7 64.7 78.75 64.9 78.9 65.05 79.0 65.2 79.15 65.3 79.2 65.35 79.2 65.4 79.25 65.45 79.25 65.45 79.35 65.8 79.5 66.45 L79.5 66.45" fill="#000000" fill-rule="evenodd" stroke="none"/>
  </g>
</svg>
