<?xml version="1.0" encoding="UTF-8" standalone="no"?>
<svg xmlns:xlink="http://www.w3.org/1999/xlink" height="102.75px" width="165.1px" xmlns="http://www.w3.org/2000/svg">
  <g transform="matrix(1.0, 0.0, 0.0, 1.0, 39.2, 51.3)">
    <path d="M35.5 -42.1 Q35.45 -41.55 35.5 -41.35 35.5 -41.25 35.65 -40.75 35.7 -40.6 35.75 -40.5 35.8 -40.4 35.9 -40.3 35.95 -40.2 36.05 -40.1 36.1 -40.0 36.2 -39.95 36.3 -39.9 36.4 -39.85 36.5 -39.8 36.65 -39.75 36.75 -39.7 36.9 -39.7 37.0 -39.65 37.15 -39.65 37.25 -39.65 37.4 -39.65 37.5 -39.65 37.65 -39.65 37.75 -39.65 37.85 -39.65 38.0 -39.7 38.1 -39.7 38.2 -39.7 38.35 -39.75 38.45 -39.8 38.55 -39.8 38.7 -39.85 38.8 -39.9 38.9 -39.95 39.0 -40.0 39.7 -40.3 40.9 -40.65 42.45 -41.1 42.8 -41.25 42.85 -41.25 42.9 -41.25 43.0 -41.25 43.05 -41.25 43.05 -41.2 43.05 -41.15 43.05 -41.1 43.05 -41.05 42.85 -40.8 42.65 -40.5 42.45 -40.25 42.3 -39.95 42.1 -39.7 41.95 -39.4 41.75 -39.1 41.6 -38.8 41.45 -38.55 41.3 -38.25 41.15 -37.95 41.0 -37.65 40.9 -37.35 40.75 -37.05 40.6 -36.75 40.5 -36.4 40.3 -35.95 40.15 -35.55 39.95 -35.1 39.8 -34.65 39.65 -34.2 39.5 -33.75 39.4 -33.3 39.25 -32.85 39.1 -32.4 39.0 -31.95 38.9 -31.5 38.8 -31.05 38.7 -30.6 38.6 -30.15 38.5 -29.65 38.45 -29.2 38.4 -29.0 38.4 -28.8 38.35 -28.6 38.35 -28.45 38.3 -28.25 38.3 -28.05 38.25 -27.85 38.25 -27.65 38.25 -27.45 38.2 -27.25 38.2 -27.05 38.2 -26.85 38.15 -26.65 38.15 -26.5 38.15 -26.3 38.15 -26.1 38.1 -25.5 38.0 -20.75 38.0 -20.7 38.0 -20.65 38.0 -20.6 38.0 -20.6 38.0 -20.55 38.0 -20.5 38.0 -20.5 38.0 -20.45 38.0 -20.4 38.0 -20.35 38.0 -20.3 38.0 -20.3 38.0 -20.25 38.0 -20.2 38.0 -20.15 37.95 -20.15 37.9 -20.15 37.85 -20.2 37.85 -20.2 37.8 -20.25 37.8 -20.25 37.8 -20.3 37.75 -20.3 37.75 -20.35 37.75 -20.4 37.75 -20.45 37.6 -20.85 37.0 -22.75 36.6 -24.2 36.3 -25.1 36.1 -25.65 35.55 -26.8 35.55 -26.85 35.5 -26.9 35.5 -26.95 35.45 -27.0 35.45 -27.05 35.4 -27.1 35.4 -27.1 35.35 -27.15 35.35 -27.2 35.3 -27.25 35.25 -27.3 35.25 -27.35 35.2 -27.4 35.15 -27.45 35.15 -27.45 35.1 -27.5 35.05 -27.55 35.0 -27.6 34.95 -27.65 34.9 -27.7 34.85 -27.75 34.8 -27.8 34.75 -27.85 34.7 -27.85 34.65 -27.9 34.6 -27.95 34.55 -27.95 34.5 -28.0 34.45 -28.05 34.35 -28.05 34.3 -28.05 34.25 -28.1 34.15 -28.1 33.9 -28.2 33.7 -28.25 33.6 -28.25 33.45 -28.3 33.35 -28.3 33.25 -28.3 33.15 -28.3 33.05 -28.3 32.95 -28.25 32.8 -28.2 32.7 -28.15 32.55 -28.05 32.4 -27.95 32.25 -27.8 32.05 -27.65 32.0 -27.6 31.95 -27.55 31.85 -27.5 31.8 -27.45 31.75 -27.4 31.7 -27.35 31.65 -27.3 31.6 -27.2 31.55 -27.15 31.5 -27.1 31.45 -27.05 31.4 -26.95 31.35 -26.9 31.3 -26.85 31.25 -26.8 31.2 -26.7 31.1 -26.55 31.0 -26.45 30.9 -26.3 30.8 -26.15 30.7 -26.0 30.65 -25.85 30.55 -25.7 30.45 -25.55 30.4 -25.45 30.3 -25.25 30.25 -25.1 30.15 -24.95 30.1 -24.8 30.0 -24.65 29.95 -24.5 29.85 -24.35 29.7 -23.95 29.35 -23.15 29.3 -23.15 29.25 -23.15 29.2 -23.2 29.2 -23.2 29.2 -23.25 29.2 -23.3 29.2 -23.45 29.2 -23.35 29.2 -23.95 29.25 -24.55 29.25 -25.15 29.3 -25.75 29.3 -26.35 29.35 -26.95 29.4 -27.55 29.45 -28.15 29.55 -28.75 29.6 -29.35 29.7 -29.95 29.75 -30.55 29.85 -31.15 29.95 -31.75 30.05 -32.35 30.15 -32.95 30.2 -33.1 30.2 -33.3 30.25 -33.45 30.3 -33.65 30.35 -33.8 30.4 -34.0 30.45 -34.15 30.5 -34.35 30.5 -34.5 30.6 -34.65 30.65 -34.85 30.7 -35.0 30.75 -35.2 30.8 -35.35 30.85 -35.5 30.9 -35.7 30.95 -35.8 31.0 -35.95 31.05 -36.05 31.1 -36.2 31.15 -36.3 31.2 -36.45 31.25 -36.55 31.3 -36.7 31.35 -36.8 31.45 -36.9 31.5 -37.05 31.55 -37.15 31.6 -37.25 31.7 -37.4 31.75 -37.5 31.8 -37.6 31.9 -37.75 32.0 -37.9 32.1 -38.1 32.2 -38.25 32.3 -38.4 32.45 -38.55 32.55 -38.7 32.65 -38.85 32.75 -39.0 32.85 -39.15 33.0 -39.3 33.1 -39.45 33.2 -39.6 33.35 -39.75 33.45 -39.9 33.6 -40.05 33.95 -40.45 35.2 -41.8 35.25 -41.85 35.5 -42.1 L35.5 -42.1" fill="#000000" fill-rule="evenodd" stroke="none"/>
    <path d="M42.85 -23.6 Q42.8 -23.95 42.8 -24.05 42.85 -27.85 42.95 -29.25 43.0 -29.65 43.0 -30.0 43.05 -30.4 43.1 -30.75 43.15 -31.15 43.25 -31.5 43.3 -31.9 43.4 -32.25 43.45 -32.65 43.55 -33.0 43.65 -33.4 43.75 -33.75 43.85 -34.1 44.0 -34.45 44.15 -34.85 44.3 -35.2 44.35 -35.3 44.4 -35.4 44.45 -35.5 44.5 -35.6 44.5 -35.7 44.55 -35.75 44.6 -35.85 44.65 -35.95 44.7 -36.05 44.75 -36.15 44.85 -36.25 44.9 -36.35 44.95 -36.45 45.0 -36.55 45.05 -36.6 45.1 -36.7 45.2 -36.9 45.35 -37.1 45.45 -37.3 45.6 -37.45 45.75 -37.65 45.85 -37.85 46.0 -38.05 46.15 -38.2 46.3 -38.4 46.45 -38.55 46.6 -38.75 46.75 -38.9 46.9 -39.1 47.05 -39.25 47.2 -39.4 47.35 -39.6 47.35 -39.6 47.75 -39.95 47.75 -39.95 47.8 -39.95 47.85 -39.95 47.85 -39.95 47.85 -39.75 47.85 -39.45 47.85 -39.05 47.85 -38.9 47.85 -38.75 47.9 -38.55 47.95 -38.4 48.0 -38.25 48.05 -38.1 48.1 -38.0 48.2 -37.85 48.25 -37.7 48.35 -37.6 48.45 -37.5 48.6 -37.4 48.7 -37.3 48.85 -37.2 49.0 -37.1 49.1 -37.05 49.3 -37.0 49.4 -36.95 49.5 -36.9 49.65 -36.9 49.75 -36.85 49.85 -36.85 49.95 -36.8 50.1 -36.8 50.2 -36.8 50.3 -36.8 50.4 -36.8 50.55 -36.8 50.65 -36.8 50.75 -36.8 50.9 -36.8 51.0 -36.85 51.1 -36.85 51.25 -36.9 51.4 -36.9 51.5 -36.95 51.65 -36.95 51.8 -37.0 51.95 -37.05 52.1 -37.05 52.2 -37.1 52.35 -37.15 52.5 -37.15 52.65 -37.2 52.75 -37.25 52.9 -37.3 53.05 -37.3 53.2 -37.35 53.3 -37.4 53.45 -37.45 53.55 -37.5 53.7 -37.5 53.8 -37.55 53.95 -37.6 54.05 -37.65 54.2 -37.7 54.3 -37.75 54.45 -37.8 54.55 -37.9 54.65 -37.95 54.8 -38.0 54.9 -38.05 55.0 -38.15 55.1 -38.2 55.25 -38.3 55.3 -38.3 55.3 -38.35 55.35 -38.35 55.35 -38.35 55.4 -38.4 55.4 -38.4 55.45 -38.4 55.45 -38.45 55.5 -38.45 55.5 -38.45 55.55 -38.5 55.55 -38.5 55.6 -38.5 55.65 -38.55 55.65 -38.55 55.7 -38.55 55.75 -38.5 55.75 -38.4 55.75 -38.5 55.65 -38.3 55.3 -37.75 55.0 -37.2 54.65 -36.65 54.35 -36.05 54.05 -35.5 53.75 -34.9 53.5 -34.35 53.2 -33.75 52.95 -33.15 52.7 -32.55 52.45 -32.0 52.2 -31.4 51.95 -30.8 51.7 -30.2 51.5 -29.6 51.25 -28.95 51.05 -28.4 50.35 -26.0 49.35 -22.65 49.15 -21.6 49.1 -21.4 49.05 -21.05 48.95 -20.6 48.9 -20.45 48.9 -20.4 48.9 -20.4 48.9 -20.35 48.85 -20.3 48.85 -20.3 48.85 -20.25 48.85 -20.2 48.85 -20.2 48.85 -20.15 48.8 -20.1 48.8 -20.1 48.8 -20.05 48.8 -20.05 48.75 -20.0 48.75 -19.95 48.75 -19.95 48.75 -19.95 48.5 -19.75 48.5 -19.8 48.4 -20.2 48.3 -20.4 48.3 -20.55 48.25 -20.75 48.2 -20.95 48.15 -21.2 48.1 -21.4 48.0 -21.6 47.95 -21.8 47.9 -22.0 47.8 -22.2 47.75 -22.4 47.7 -22.6 47.6 -22.8 47.55 -23.0 47.45 -23.2 47.4 -23.4 47.3 -23.6 47.2 -23.8 47.15 -23.9 47.1 -24.0 47.05 -24.1 47.0 -24.2 46.95 -24.3 46.9 -24.4 46.85 -24.5 46.8 -24.6 46.7 -24.7 46.65 -24.8 46.6 -24.9 46.5 -25.0 46.45 -25.1 46.4 -25.15 46.3 -25.25 46.25 -25.35 46.15 -25.5 46.0 -25.6 45.85 -25.7 45.7 -25.75 45.6 -25.8 45.45 -25.85 45.3 -25.9 45.15 -25.9 45.0 -25.95 44.85 -25.9 44.7 -25.9 44.55 -25.85 44.4 -25.8 44.25 -25.7 44.1 -25.6 44.0 -25.5 43.95 -25.45 43.9 -25.4 43.85 -25.4 43.8 -25.35 43.8 -25.3 43.75 -25.25 43.7 -25.2 43.65 -25.15 43.65 -25.1 43.6 -25.05 43.55 -25.0 43.55 -24.95 43.5 -24.95 43.45 -24.9 43.45 -24.85 43.4 -24.8 43.3 -24.65 43.2 -24.4 43.05 -24.05 43.05 -24.0 42.95 -23.85 42.85 -23.6 L42.85 -23.6" fill="#000000" fill-rule="evenodd" stroke="none"/>
    <path d="M120.55 -31.15 Q120.3 -31.5 120.3 -31.5 119.8 -32.5 119.5 -33.05 119.15 -33.6 118.9 -33.85 118.85 -33.9 118.8 -33.95 118.8 -33.95 118.75 -34.0 118.7 -34.05 118.65 -34.05 118.6 -34.1 118.55 -34.15 118.5 -34.2 118.45 -34.2 118.4 -34.25 118.35 -34.3 118.3 -34.3 118.25 -34.35 118.2 -34.35 118.15 -34.4 118.05 -34.45 117.95 -34.5 117.85 -34.5 117.7 -34.55 117.6 -34.55 117.5 -34.55 117.4 -34.55 117.3 -34.5 117.2 -34.5 117.1 -34.45 117.0 -34.4 116.9 -34.3 116.85 -34.25 116.75 -34.15 116.65 -34.1 116.6 -34.0 116.55 -33.9 116.5 -33.85 116.45 -33.75 116.4 -33.7 116.35 -33.6 116.3 -33.5 116.3 -33.45 116.25 -33.35 116.2 -33.25 116.2 -33.15 116.2 -33.1 116.15 -33.0 116.15 -32.9 116.1 -32.8 116.1 -32.75 116.1 -32.65 116.1 -32.55 116.0 -32.0 115.95 -31.95 115.9 -31.95 115.85 -31.95 115.8 -32.0 115.8 -32.0 115.75 -32.05 115.75 -32.05 115.7 -32.1 115.65 -32.3 115.6 -32.4 115.2 -34.45 114.3 -37.85 114.2 -38.15 114.15 -38.4 114.05 -38.7 114.0 -38.95 113.9 -39.25 113.85 -39.55 113.8 -39.8 113.7 -40.1 113.65 -40.4 113.6 -40.65 113.55 -40.95 113.45 -41.25 113.4 -41.5 113.35 -41.8 113.3 -42.1 113.25 -42.4 113.25 -42.45 113.25 -42.5 113.2 -42.55 113.2 -42.6 113.2 -42.65 113.2 -42.7 113.2 -42.75 113.2 -42.8 113.2 -42.85 113.2 -42.9 113.2 -42.95 113.2 -43.0 113.2 -43.05 113.25 -43.1 113.25 -43.15 113.25 -43.2 113.3 -43.2 113.35 -43.2 113.4 -43.2 113.4 -43.15 113.45 -43.15 113.45 -43.15 113.5 -43.1 113.5 -43.05 113.5 -43.05 113.5 -43.0 113.55 -43.0 113.55 -42.95 113.55 -42.95 113.6 -42.9 114.45 -41.5 114.95 -40.65 115.0 -40.6 115.05 -40.5 115.1 -40.45 115.15 -40.35 115.2 -40.3 115.25 -40.25 115.3 -40.2 115.4 -40.1 115.45 -40.05 115.5 -40.0 115.55 -39.95 115.65 -39.9 115.7 -39.85 115.8 -39.8 115.85 -39.75 115.9 -39.7 116.05 -39.6 116.2 -39.55 116.4 -39.5 116.55 -39.5 116.7 -39.45 116.85 -39.45 117.0 -39.45 117.15 -39.5 117.3 -39.55 117.45 -39.6 117.6 -39.65 117.75 -39.75 117.85 -39.85 117.95 -39.95 118.1 -40.1 118.2 -40.25 118.25 -40.35 118.35 -40.5 118.4 -40.6 118.45 -40.75 118.5 -40.85 118.55 -41.0 118.6 -41.1 118.65 -41.25 118.7 -41.35 118.75 -41.5 118.75 -41.6 118.8 -41.75 118.85 -41.9 118.85 -42.05 118.9 -42.15 118.9 -42.3 118.9 -42.45 119.05 -43.5 119.1 -43.4 119.2 -43.2 119.25 -43.1 119.25 -43.05 119.7 -41.25 119.9 -40.3 120.3 -38.55 120.6 -35.05 120.65 -34.6 120.7 -33.8 120.8 -32.95 120.8 -32.6 120.8 -32.5 120.8 -32.45 120.8 -32.35 120.8 -32.3 120.85 -32.2 120.8 -32.15 120.8 -32.05 120.8 -32.0 120.8 -31.95 120.8 -31.85 120.8 -31.8 120.75 -31.7 120.75 -31.65 120.75 -31.55 120.75 -31.5 120.7 -31.4 120.7 -31.4 120.55 -31.15 L120.55 -31.15" fill="#000000" fill-rule="evenodd" stroke="none"/>
    <path d="M122.25 -43.15 Q122.3 -43.15 122.35 -43.1 122.35 -43.1 122.4 -43.1 122.45 -43.05 122.45 -43.05 122.5 -43.0 122.5 -43.0 122.55 -42.95 122.55 -42.9 122.95 -42.25 123.15 -42.05 123.15 -42.0 123.2 -41.95 123.25 -41.95 123.25 -41.9 123.3 -41.85 123.3 -41.85 123.35 -41.8 123.4 -41.75 123.4 -41.75 123.45 -41.7 123.5 -41.7 123.55 -41.65 123.55 -41.65 123.6 -41.6 123.65 -41.6 123.7 -41.6 123.75 -41.6 123.8 -41.6 123.85 -41.55 123.9 -41.6 123.95 -41.6 124.0 -41.6 124.0 -41.65 124.05 -41.65 124.05 -41.7 124.1 -41.75 124.2 -42.3 124.2 -42.55 124.2 -42.65 124.15 -42.9 124.15 -43.15 124.15 -43.25 124.55 -42.35 125.05 -40.3 125.4 -39.05 125.85 -37.2 126.3 -35.2 126.4 -34.1 126.35 -34.15 126.05 -34.55 126.05 -34.6 126.0 -34.6 126.0 -34.65 125.95 -34.7 125.95 -34.7 125.95 -34.75 125.9 -34.8 125.9 -34.8 125.85 -34.85 125.8 -34.85 125.8 -34.85 125.75 -34.9 125.7 -34.9 125.7 -34.9 125.65 -34.9 125.6 -34.9 125.55 -34.9 125.5 -34.9 125.5 -34.9 125.45 -34.85 125.4 -34.85 125.4 -34.8 125.35 -34.8 125.35 -34.75 125.35 -34.75 125.3 -34.7 125.3 -34.7 125.25 -34.65 125.25 -34.6 125.25 -34.6 125.25 -34.55 125.2 -34.5 125.15 -34.4 125.1 -34.2 124.95 -33.9 124.95 -33.8 124.6 -34.85 124.35 -35.75 123.45 -39.05 122.5 -42.55 122.5 -42.6 122.5 -42.65 122.5 -42.7 122.45 -42.7 122.45 -42.75 122.45 -42.8 122.45 -42.85 122.45 -42.85 122.45 -42.9 122.4 -42.95 122.4 -43.0 122.35 -43.0 122.35 -43.05 122.3 -43.1 122.3 -43.1 122.25 -43.15 122.25 -43.15 122.25 -43.15 L122.25 -43.15" fill="#000000" fill-rule="evenodd" stroke="none"/>
    <path d="M122.25 -43.7 Q122.2 -43.75 122.2 -43.75 122.15 -43.8 122.15 -43.8 122.1 -43.85 122.1 -43.9 122.15 -43.95 122.15 -44.0 122.2 -43.9 122.25 -43.7 L122.25 -43.7 122.25 -43.7" fill="#000000" fill-rule="evenodd" stroke="none"/>
    <path d="M122.25 -43.7 Q122.25 -43.65 122.3 -43.65 122.3 -43.6 122.3 -43.55 122.3 -43.5 122.35 -43.5 122.35 -43.45 122.35 -43.4 122.35 -43.4 122.3 -43.35 122.3 -43.3 122.3 -43.3 122.3 -43.25 122.3 -43.2 122.25 -43.15 122.25 -43.15 122.25 -43.15 122.25 -43.15 122.25 -43.15 122.25 -43.15 122.25 -43.3 122.25 -43.7 122.25 -43.7 122.25 -43.7 L122.25 -43.7" fill="#000000" fill-rule="evenodd" stroke="none"/>
  </g>
</svg>
