<?xml version="1.0" encoding="UTF-8" standalone="no"?>
<svg xmlns:xlink="http://www.w3.org/1999/xlink" height="300.0px" width="300.0px" xmlns="http://www.w3.org/2000/svg">
  <g transform="matrix(1.0, 0.0, 0.0, 1.0, 150.0, 150.0)">
    <path d="M-26.9 6.75 Q-26.95 6.75 -27.0 6.8 -27.0 6.85 -27.05 6.85 -27.1 6.9 -27.1 6.95 -27.15 6.95 -27.2 7.0 -27.2 7.05 -27.25 7.05 -27.25 7.1 -27.3 7.15 -27.35 7.2 -27.35 7.2 -27.35 7.25 -27.4 7.3 -29.15 9.75 -29.35 10.0 -29.7 10.4 -30.0 10.8 -30.35 11.15 -30.7 11.55 -31.05 11.9 -31.45 12.25 -31.8 12.6 -32.2 12.95 -32.55 13.3 -32.95 13.6 -33.35 13.95 -33.75 14.2 -34.2 14.55 -34.6 14.8 -35.05 15.1 -35.5 15.35 -35.75 15.5 -36.05 15.65 -36.3 15.8 -36.6 15.95 -36.9 16.1 -37.2 16.25 -37.45 16.35 -37.75 16.5 -38.05 16.6 -38.35 16.75 -38.6 16.85 -38.9 16.95 -39.2 17.05 -39.5 17.15 -39.8 17.25 -40.1 17.35 -40.25 17.4 -40.4 17.45 -40.55 17.45 -40.7 17.5 -40.85 17.5 -41.0 17.55 -41.1 17.55 -41.25 17.55 -41.4 17.55 -41.55 17.5 -41.7 17.5 -41.85 17.5 -42.0 17.45 -42.15 17.4 -42.3 17.4 -42.45 17.35 -42.5 17.25 -42.55 17.15 -42.6 17.05 -42.6 16.95 -42.65 16.85 -42.65 16.75 -42.65 16.65 -42.65 16.55 -42.65 16.45 -42.65 16.35 -42.6 16.25 -42.6 16.15 -42.55 16.05 -42.55 15.95 -42.5 15.85 -42.5 15.75 -42.45 15.7 -42.15 15.4 -40.7 14.15 -40.7 14.15 -40.5 13.95 -40.35 13.8 -40.15 13.6 -40.0 13.4 -39.8 13.2 -39.65 13.0 -39.5 12.8 -39.35 12.6 -39.2 12.35 -39.05 12.15 -38.9 11.9 -38.8 11.7 -38.65 11.45 -38.55 11.25 -38.45 11.0 -38.3 10.75 -38.25 10.6 -38.2 10.45 -38.15 10.35 -38.1 10.2 -38.05 10.05 -38.05 9.9 -38.0 9.75 -37.95 9.6 -37.95 9.45 -37.9 9.3 -37.9 9.15 -37.85 9.0 -37.85 8.85 -37.85 8.7 -37.8 8.6 -37.8 8.4 -37.8 8.35 -37.8 8.25 -37.8 8.2 -37.8 8.15 -37.8 8.05 -37.8 8.0 -37.8 7.95 -37.85 7.85 -37.85 7.8 -37.85 7.7 -37.85 7.65 -37.9 7.6 -37.9 7.6 -37.95 7.45 -37.95 7.35 -37.95 7.3 -38.0 7.1 -38.05 6.85 -38.15 6.65 -38.2 6.45 -38.25 6.25 -38.35 6.0 -38.45 5.8 -38.5 5.6 -38.6 5.4 -38.7 5.2 -38.8 5.0 -38.9 4.8 -38.95 4.6 -39.1 4.35 -39.15 4.2 -39.25 3.95 -41.2 0.0 -45.15 -6.4 -47.25 -9.7 -48.5 -11.85 -48.8 -12.35 -49.1 -12.9 -49.35 -13.45 -49.6 -14.0 -49.85 -14.55 -50.05 -15.1 -50.3 -15.65 -50.5 -16.2 -50.7 -16.75 -50.85 -17.35 -51.05 -17.9 -51.2 -18.5 -51.35 -19.05 -51.5 -19.65 -51.6 -20.25 -51.75 -20.85 -51.8 -21.2 -51.9 -21.6 -51.95 -21.95 -52.0 -22.35 -52.05 -22.7 -52.1 -23.1 -52.15 -23.45 -52.2 -23.8 -52.25 -24.2 -52.3 -24.6 -52.35 -24.95 -52.35 -25.35 -52.4 -25.7 -52.4 -26.1 -52.45 -26.45 -52.45 -26.85 -52.45 -27.15 -52.5 -27.65 -52.55 -28.3 -52.55 -28.45 -52.55 -28.5 -52.55 -28.55 -52.55 -28.6 -52.55 -28.6 -52.55 -28.65 -52.55 -28.7 -52.55 -28.75 -52.55 -28.8 -52.55 -28.85 -52.55 -28.9 -52.55 -28.95 -52.55 -29.0 -52.55 -29.05 -52.55 -29.1 -52.55 -29.1 -52.55 -29.15 -52.55 -29.4 -52.5 -30.05 -52.45 -30.6 -52.4 -30.95 -52.35 -32.15 -52.2 -33.3 -52.1 -34.5 -51.9 -35.65 -51.7 -36.8 -51.45 -37.95 -51.2 -39.1 -50.85 -40.2 -50.5 -41.3 -50.1 -42.4 -49.7 -43.5 -49.2 -44.55 -48.75 -45.6 -48.2 -46.65 -47.65 -47.7 -47.0 -48.7 -46.6 -49.35 -46.2 -49.95 -45.75 -50.55 -45.35 -51.15 -44.9 -51.75 -44.4 -52.3 -43.95 -52.9 -43.45 -53.4 -42.95 -53.95 -42.45 -54.5 -41.9 -55.0 -41.35 -55.5 -40.8 -55.95 -40.25 -56.45 -39.65 -56.9 -39.05 -57.35 -38.65 -57.65 -38.25 -57.9 -37.8 -58.2 -37.4 -58.45 -36.95 -58.7 -36.55 -58.95 -36.1 -59.2 -35.65 -59.45 -35.2 -59.65 -34.75 -59.9 -34.3 -60.1 -33.85 -60.3 -33.4 -60.5 -32.95 -60.7 -32.45 -60.85 -32.0 -61.05 -31.0 -61.4 -30.25 -61.7 -29.8 -61.9 -29.4 -62.1 -29.0 -62.3 -28.65 -62.55 -28.3 -62.8 -27.95 -63.1 -27.65 -63.35 -27.35 -63.7 -27.05 -64.0 -26.75 -64.35 -26.5 -64.7 -26.25 -65.05 -26.05 -65.45 -25.85 -65.85 -25.65 -66.25 -25.45 -66.7 -25.4 -66.8 -25.35 -66.95 -25.35 -67.05 -25.3 -67.15 -25.25 -67.3 -25.25 -67.4 -25.2 -67.5 -25.15 -67.65 -25.15 -67.75 -25.1 -67.9 -25.1 -68.0 -25.05 -68.15 -25.05 -68.25 -25.0 -68.4 -25.0 -68.5 -24.95 -68.6 -24.7 -70.15 -24.45 -70.95 -24.3 -71.5 -24.15 -72.05 -24.0 -72.55 -23.75 -73.05 -23.55 -73.55 -23.3 -74.05 -23.05 -74.5 -22.8 -75.0 -22.5 -75.45 -22.15 -75.85 -21.85 -76.3 -21.5 -76.7 -21.15 -77.1 -20.75 -77.5 -20.35 -77.85 -19.9 -78.2 -19.15 -78.8 -18.35 -79.4 -17.6 -79.95 -16.8 -80.5 -16.0 -81.05 -15.2 -81.5 -14.35 -82.0 -13.5 -82.45 -12.65 -82.85 -11.8 -83.25 -10.95 -83.65 -10.05 -83.95 -9.15 -84.3 -8.2 -84.6 -7.3 -84.85 -6.35 -85.1 -6.0 -85.2 -5.75 -85.25 -5.4 -85.3 -5.15 -85.35 -4.8 -85.45 -4.5 -85.5 -4.2 -85.55 -3.9 -85.6 -3.6 -85.65 -3.3 -85.7 -3.0 -85.75 -2.7 -85.8 -2.35 -85.85 -2.05 -85.85 -1.75 -85.9 -1.45 -85.9 -0.9 -85.9 -0.05 -86.0 1.2 -86.1 1.35 -86.1 1.6 -86.15 2.2 -86.1 2.2 -86.1 2.7 -86.05 2.95 -86.0 3.15 -86.0 3.85 -86.0 4.5 -85.95 5.2 -85.9 5.85 -85.8 6.55 -85.75 7.2 -85.65 7.85 -85.55 8.55 -85.45 9.2 -85.3 9.85 -85.2 10.55 -85.05 11.2 -84.9 11.85 -84.75 12.5 -84.55 13.15 -84.4 13.8 -84.2 14.4 -84.0 15.0 -83.8 15.6 -83.6 16.2 -83.4 16.8 -83.2 17.4 -83.0 18.0 -82.75 18.6 -82.55 19.2 -82.3 19.8 -82.05 20.35 -81.85 20.95 -81.6 21.55 -81.35 22.1 -81.1 22.7 -80.85 23.3 -80.6 25.2 -79.75 30.15 -77.55 34.5 -75.6 37.05 -74.5 37.8 -74.2 38.5 -73.85 39.25 -73.55 39.95 -73.25 40.7 -72.95 41.45 -72.65 42.2 -72.35 42.9 -72.05 43.65 -71.75 44.4 -71.45 45.15 -71.15 45.85 -70.9 46.6 -70.6 47.35 -70.35 48.1 -70.05 48.85 -69.8 49.6 -69.55 50.35 -69.25 51.15 -69.0 51.9 -68.75 52.65 -68.5 53.4 -68.3 54.2 -68.05 54.95 -67.85 55.7 -67.6 56.5 -67.4 57.25 -67.2 58.05 -67.0 58.8 -66.8 59.6 -66.65 60.35 -66.45 61.15 -66.3 61.55 -66.2 61.9 -66.15 62.25 -66.1 62.6 -66.0 63.0 -65.95 63.35 -65.9 63.75 -65.85 64.1 -65.8 64.5 -65.7 64.85 -65.7 65.2 -65.65 65.6 -65.6 65.95 -65.55 66.35 -65.5 66.7 -65.45 67.1 -65.45 69.75 -65.25 69.95 -65.25 70.9 -65.15 72.85 -65.25 74.9 -65.35 78.45 -66.05 78.75 -66.1 79.1 -66.15 79.4 -66.25 79.7 -66.3 80.0 -66.4 80.35 -66.5 80.65 -66.55 80.95 -66.65 81.25 -66.75 81.55 -66.85 81.85 -66.95 82.15 -67.05 82.45 -67.15 82.75 -67.3 83.05 -67.4 83.35 -67.5 84.15 -67.8 84.9 -68.15 85.7 -68.5 86.4 -68.9 87.15 -69.3 87.9 -69.7 88.6 -70.1 89.3 -70.55 90.0 -71.0 90.7 -71.5 91.35 -72.0 92.05 -72.5 92.7 -73.0 93.35 -73.55 93.95 -74.1 94.6 -74.7 94.75 -74.85 94.9 -75.0 95.05 -75.15 95.2 -75.3 95.35 -75.4 95.5 -75.55 95.65 -75.7 95.8 -75.85 95.95 -76.0 96.1 -76.15 96.25 -76.3 96.4 -76.5 96.55 -76.65 96.7 -76.8 96.85 -76.95 97.0 -77.1 97.1 -77.2 97.2 -77.25 97.25 -77.35 97.35 -77.4 97.45 -77.45 97.55 -77.5 97.65 -77.55 97.75 -77.6 97.85 -77.65 97.95 -77.65 98.1 -77.65 98.2 -77.65 98.3 -77.65 98.4 -77.65 98.55 -77.65 98.65 -77.6 98.75 -77.6 98.95 -77.55 99.0 -77.5 99.05 -77.45 99.05 -77.35 99.1 -77.3 99.1 -77.25 99.15 -77.15 99.15 -77.1 99.15 -77.05 99.15 -76.95 99.15 -76.9 99.15 -76.85 99.15 -76.75 99.15 -76.7 99.15 -76.6 99.15 -76.55 99.1 -76.5 98.95 -75.8 98.55 -74.3 98.45 -73.85 98.25 -73.3 98.05 -72.9 98.0 -72.8 97.1 -71.6 96.8 -71.3 96.2 -70.7 95.65 -70.1 95.05 -69.55 94.4 -69.0 93.8 -68.45 93.15 -67.9 92.5 -67.4 91.85 -66.9 91.15 -66.45 90.5 -65.95 89.8 -65.5 89.1 -65.1 88.4 -64.65 87.65 -64.25 86.9 -63.85 86.15 -63.5 85.9 -63.35 85.65 -63.25 85.35 -63.15 85.1 -63.0 84.85 -62.9 84.55 -62.8 84.3 -62.65 84.05 -62.55 83.75 -62.45 83.5 -62.35 83.2 -62.25 82.95 -62.15 82.65 -62.05 82.4 -61.95 82.1 -61.85 81.85 -61.75 81.2 -61.55 80.0 -61.2 78.75 -60.8 78.15 -60.6 78.1 -60.6 78.05 -60.6 78.05 -60.55 78.0 -60.55 77.95 -60.55 77.9 -60.55 77.9 -60.5 77.85 -60.5 77.8 -60.5 77.75 -60.5 77.7 -60.45 77.7 -60.45 77.65 -60.45 77.6 -60.4 77.55 -60.4 77.55 -60.4 75.5 -59.5 72.05 -58.45 71.4 -58.3 69.8 -58.05 68.2 -57.8 65.55 -57.75 61.7 -57.7 59.05 -57.6 56.8 -57.5 55.6 -57.6 55.0 -57.65 53.95 -57.7 52.7 -57.75 52.3 -57.75 52.05 -57.75 51.85 -57.8 51.6 -57.8 51.35 -57.85 51.15 -57.9 50.9 -57.9 50.65 -57.95 50.45 -58.0 50.2 -58.05 49.95 -58.1 49.75 -58.1 49.5 -58.15 49.3 -58.2 49.05 -58.25 48.85 -58.3 48.6 -58.35 46.95 -58.8 45.95 -59.0 45.9 -59.05 45.55 -59.05 45.6 -58.8 45.65 -58.7 45.75 -58.45 45.9 -58.25 46.0 -58.0 46.15 -57.8 46.25 -57.55 46.4 -57.35 46.55 -57.15 46.7 -56.95 46.85 -56.75 47.05 -56.55 47.2 -56.35 47.4 -56.2 47.6 -56.0 47.8 -55.85 48.0 -55.65 48.2 -55.5 48.4 -55.35 48.55 -55.25 48.75 -55.1 48.9 -55.0 49.1 -54.9 49.3 -54.75 49.45 -54.65 49.65 -54.5 49.85 -54.4 50.05 -54.3 50.2 -54.2 50.4 -54.05 50.6 -53.95 50.8 -53.85 51.0 -53.75 51.2 -53.65 51.45 -53.5 52.7 -52.9 52.95 -52.8 53.2 -52.65 53.45 -52.55 53.65 -52.45 53.9 -52.35 54.15 -52.25 54.4 -52.2 54.7 -52.1 54.95 -52.0 55.2 -51.95 55.45 -51.85 55.7 -51.8 56.0 -51.75 56.25 -51.7 56.5 -51.65 56.8 -51.6 58.4 -51.35 60.85 -50.9 64.6 -50.25 64.9 -50.2 65.6 -50.1 66.6 -49.9 68.05 -49.7 68.35 -49.65 68.4 -49.65 68.45 -49.65 68.5 -49.65 68.55 -49.6 68.6 -49.6 68.65 -49.6 68.7 -49.6 68.75 -49.65 68.8 -49.65 68.85 -49.65 68.9 -49.65 68.95 -49.65 68.95 -49.65 69.05 -49.7 69.05 -49.7 69.1 -49.7 74.55 -51.1 75.75 -51.4 79.65 -52.35 82.45 -53.0 84.0 -53.35 85.9 -53.65 86.85 -53.85 88.35 -53.95 88.65 -54.0 91.2 -54.15 91.5 -54.15 92.15 -54.2 92.75 -54.25 93.05 -54.3 93.4 -54.3 93.55 -54.3 95.15 -54.2 96.3 -54.15 96.65 -54.1 97.0 -54.1 97.35 -54.05 97.65 -54.0 98.0 -54.0 98.35 -53.95 98.7 -53.9 99.0 -53.85 99.35 -53.8 99.65 -53.75 100.0 -53.7 100.35 -53.65 100.65 -53.55 101.0 -53.5 101.35 -53.4 101.65 -53.35 102.05 -53.25 102.4 -53.1 102.75 -53.0 103.1 -52.85 103.45 -52.7 103.8 -52.55 104.15 -52.4 104.5 -52.2 104.8 -52.0 105.15 -51.8 105.45 -51.6 105.75 -51.35 106.05 -51.1 106.35 -50.85 106.65 -50.6 106.9 -50.35 107.75 -49.55 108.8 -48.4 108.95 -48.25 109.1 -48.1 109.2 -48.0 109.35 -47.85 109.5 -47.7 109.65 -47.55 109.8 -47.45 109.95 -47.3 110.1 -47.15 110.25 -47.05 110.4 -46.9 110.55 -46.8 110.7 -46.65 110.85 -46.55 111.0 -46.4 111.15 -46.3 112.1 -45.45 113.75 -44.2 114.0 -44.0 114.3 -43.8 114.55 -43.6 114.8 -43.35 115.05 -43.15 115.3 -42.9 115.55 -42.7 115.8 -42.45 116.05 -42.25 116.3 -42.0 116.5 -41.75 116.75 -41.5 117.0 -41.3 117.2 -41.05 117.45 -40.8 117.7 -40.55 118.05 -40.2 118.35 -39.8 118.65 -39.4 118.9 -39.0 119.15 -38.6 119.35 -38.15 119.6 -37.75 119.75 -37.3 119.95 -36.85 120.1 -36.4 120.25 -35.95 120.35 -35.5 120.45 -35.05 120.55 -34.55 120.6 -34.05 120.65 -33.55 120.65 -33.25 120.75 -32.65 120.85 -32.1 120.85 -31.8 120.85 -31.7 120.85 -31.65 120.85 -31.55 120.85 -31.45 120.85 -31.35 120.85 -31.3 120.85 -31.2 120.85 -31.1 120.85 -31.05 120.85 -30.95 120.85 -30.85 120.85 -30.8 120.85 -30.7 120.85 -30.6 120.8 -30.55 120.8 -30.45 120.9 -31.2 120.75 -30.05 120.7 -29.8 120.7 -29.65 120.65 -29.4 120.6 -29.2 120.6 -29.0 120.55 -28.8 120.5 -28.6 120.45 -28.4 120.4 -28.2 120.35 -28.0 120.3 -27.8 120.25 -27.6 120.2 -27.4 120.1 -27.2 120.1 -27.05 120.05 -26.95 120.05 -26.8 120.0 -26.7 119.95 -26.55 119.9 -26.45 119.8 -26.35 119.75 -26.25 119.7 -26.15 119.6 -26.05 119.55 -25.95 119.45 -25.85 119.35 -25.75 119.25 -25.65 119.25 -25.6 119.1 -25.45 118.95 -25.25 118.75 -25.1 118.6 -24.95 118.4 -24.8 118.25 -24.65 118.05 -24.5 117.85 -24.35 117.65 -24.25 117.45 -24.1 117.25 -24.0 117.05 -23.9 116.85 -23.75 116.6 -23.65 116.4 -23.6 116.2 -23.5 115.95 -23.4 115.2 -23.15 113.35 -22.9 113.25 -22.85 112.3 -23.0 112.25 -23.1 112.2 -23.2 112.15 -23.3 112.1 -23.4 112.1 -23.5 112.1 -23.6 112.1 -23.7 112.1 -23.8 112.1 -23.9 112.1 -24.0 112.1 -24.1 112.15 -24.2 112.15 -24.3 112.2 -24.4 112.25 -24.5 112.25 -24.6 112.25 -24.6 112.55 -24.85 112.7 -25.0 113.3 -25.5 113.8 -25.95 114.05 -26.2 114.15 -26.3 114.25 -26.4 114.35 -26.5 114.45 -26.6 114.55 -26.7 114.6 -26.8 114.7 -26.9 114.8 -27.0 114.85 -27.1 114.95 -27.25 115.0 -27.35 115.1 -27.45 115.15 -27.55 115.25 -27.7 115.3 -27.8 115.4 -27.95 115.45 -28.05 115.55 -28.2 115.6 -28.3 115.65 -28.45 115.7 -28.55 115.75 -28.7 115.8 -28.8 115.85 -28.95 115.9 -29.05 115.9 -29.2 115.95 -29.35 116.0 -29.45 116.0 -29.6 116.05 -29.75 116.05 -29.85 116.05 -30.0 116.05 -30.05 116.05 -30.1 116.05 -30.15 116.05 -30.2 116.05 -30.25 116.05 -30.3 116.05 -30.35 116.05 -30.35 116.05 -30.4 116.05 -30.45 115.75 -31.5 115.7 -31.55 115.6 -31.85 115.45 -32.1 115.35 -32.4 115.2 -32.65 115.05 -32.95 114.95 -33.2 114.8 -33.45 114.65 -33.75 114.5 -34.0 114.3 -34.25 114.15 -34.5 114.0 -34.75 113.8 -35.0 113.6 -35.25 113.45 -35.5 113.25 -35.7 113.2 -35.75 113.15 -35.8 113.1 -35.85 113.05 -35.9 113.05 -35.95 113.0 -36.0 112.95 -36.05 112.9 -36.05 112.85 -36.1 112.8 -36.15 112.75 -36.2 112.7 -36.25 112.65 -36.3 112.6 -36.35 112.55 -36.35 112.5 -36.4 112.3 -36.6 112.05 -36.75 111.85 -36.95 111.65 -37.1 111.4 -37.3 111.2 -37.45 110.95 -37.6 110.7 -37.8 110.5 -37.95 110.25 -38.1 110.0 -38.25 109.75 -38.4 109.55 -38.55 109.3 -38.65 109.05 -38.8 108.8 -38.95 108.3 -39.2 107.75 -39.45 107.25 -39.7 106.75 -39.9 106.2 -40.15 105.7 -40.35 105.15 -40.5 104.6 -40.7 104.1 -40.85 103.55 -41.0 103.0 -41.15 102.45 -41.3 101.9 -41.45 101.35 -41.55 100.8 -41.7 100.2 -41.8 97.65 -42.25 96.0 -42.4 95.55 -42.45 95.15 -42.45 94.7 -42.5 94.3 -42.5 93.9 -42.55 93.5 -42.55 93.05 -42.55 92.65 -42.55 92.2 -42.6 91.8 -42.6 91.35 -42.6 90.95 -42.6 90.55 -42.55 90.1 -42.55 89.7 -42.55 89.25 -42.5 88.8 -42.45 87.8 -42.4 86.85 -42.35 86.35 -42.3 84.95 -42.2 81.95 -41.95 81.45 -41.9 80.35 -41.8 79.3 -41.7 78.7 -41.65 76.9 -41.45 74.2 -41.15 72.3 -40.95 71.25 -40.85 67.85 -40.45 66.75 -40.35 64.7 -40.1 63.1 -39.9 62.85 -39.9 62.65 -39.85 62.4 -39.85 62.15 -39.8 61.9 -39.75 61.7 -39.75 61.45 -39.7 61.2 -39.7 60.95 -39.65 60.75 -39.65 60.5 -39.6 60.25 -39.6 60.05 -39.55 59.8 -39.5 59.55 -39.5 59.3 -39.45 58.45 -39.35 57.05 -39.15 55.4 -38.95 54.85 -38.85 52.3 -38.55 48.95 -37.85 40.2 -36.05 39.85 -35.95 38.2 -35.65 34.4 -35.1 32.6 -34.85 30.35 -34.65 29.75 -34.6 27.4 -34.45 27.2 -34.45 27.05 -34.45 26.85 -34.4 26.65 -34.4 26.45 -34.4 26.3 -34.4 26.1 -34.35 25.9 -34.35 25.75 -34.35 25.55 -34.35 25.35 -34.35 25.2 -34.3 25.0 -34.3 24.8 -34.3 24.65 -34.3 24.45 -34.3 24.4 -34.3 24.4 -34.3 24.35 -34.3 24.3 -34.3 24.25 -34.3 24.25 -34.3 24.2 -34.3 24.15 -34.3 24.1 -34.3 24.1 -34.3 24.05 -34.3 24.0 -34.3 23.95 -34.3 23.95 -34.3 23.9 -34.3 23.85 -34.3 23.7 -34.3 22.8 -34.35 22.2 -34.4 21.8 -34.45 21.4 -34.45 21.05 -34.5 20.65 -34.5 20.3 -34.5 19.9 -34.55 19.5 -34.55 19.15 -34.6 18.75 -34.6 18.4 -34.65 18.0 -34.7 17.65 -34.7 17.25 -34.75 16.9 -34.8 16.5 -34.85 16.15 -34.9 15.75 -35.0 15.35 -35.05 15.0 -35.15 14.6 -35.2 14.25 -35.3 13.85 -35.35 13.5 -35.45 13.15 -35.55 12.75 -35.65 12.4 -35.8 12.05 -35.9 11.7 -36.05 11.35 -36.15 10.95 -36.3 10.6 -36.45 10.25 -36.6 9.9 -36.75 9.6 -36.9 9.35 -37.05 9.05 -37.2 8.8 -37.35 8.5 -37.55 8.25 -37.7 7.95 -37.9 7.7 -38.05 7.45 -38.25 7.2 -38.45 6.95 -38.6 6.65 -38.8 6.4 -39.0 6.2 -39.25 5.95 -39.45 5.7 -39.65 5.35 -39.95 5.0 -40.25 4.65 -40.6 4.35 -40.9 4.0 -41.25 3.7 -41.55 3.35 -41.9 3.05 -42.25 2.75 -42.6 2.45 -42.9 2.15 -43.3 1.85 -43.65 1.55 -44.0 1.3 -44.35 1.0 -44.75 0.75 -45.15 0.7 -45.2 0.7 -45.25 0.65 -45.25 0.65 -45.3 0.6 -45.35 0.55 -45.35 0.55 -45.4 0.5 -45.4 0.45 -45.45 0.4 -45.45 0.35 -45.5 0.3 -45.5 0.3 -45.5 0.25 -45.5 0.2 -45.55 0.1 -45.55 -0.05 -45.6 -0.25 -45.6 -0.4 -45.65 -0.6 -45.65 -0.75 -45.7 -0.9 -45.7 -1.1 -45.7 -1.25 -45.75 -1.45 -45.75 -1.6 -45.8 -1.8 -45.8 -1.95 -45.8 -2.15 -45.85 -2.3 -45.85 -2.5 -45.85 -2.65 -45.85 -2.9 -45.85 -3.2 -45.85 -3.45 -45.85 -3.7 -45.85 -3.95 -45.85 -4.25 -45.8 -4.5 -45.75 -4.75 -45.7 -5.0 -45.7 -5.25 -45.6 -5.5 -45.55 -5.75 -45.5 -6.0 -45.45 -6.25 -45.35 -6.5 -45.3 -6.75 -45.2 -7.2 -45.05 -7.7 -44.85 -8.15 -44.7 -8.6 -44.5 -9.05 -44.3 -9.5 -44.05 -9.95 -43.85 -10.35 -43.6 -10.8 -43.35 -11.2 -43.1 -11.6 -42.85 -12.05 -42.6 -12.45 -42.3 -12.85 -42.0 -13.2 -41.7 -13.6 -41.4 -13.75 -41.3 -13.85 -41.2 -14.0 -41.05 -14.15 -40.95 -14.25 -40.85 -14.4 -40.7 -14.5 -40.6 -14.65 -40.45 -14.75 -40.35 -14.9 -40.2 -15.0 -40.1 -15.15 -39.95 -15.25 -39.85 -15.35 -39.7 -15.5 -39.55 -15.6 -39.45 -15.95 -39.05 -16.25 -38.65 -16.55 -38.25 -16.85 -37.85 -17.1 -37.45 -17.4 -37.0 -17.65 -36.6 -17.9 -36.15 -18.15 -35.7 -18.4 -35.3 -18.65 -34.85 -18.85 -34.4 -19.05 -33.9 -19.25 -33.45 -19.45 -33.0 -19.65 -32.5 -19.75 -32.25 -19.8 -32.05 -19.9 -31.8 -19.95 -31.55 -20.0 -31.35 -20.1 -31.1 -20.15 -30.85 -20.15 -30.6 -20.2 -30.4 -20.25 -30.15 -20.25 -29.9 -20.3 -29.65 -20.3 -29.4 -20.3 -29.15 -20.3 -28.95 -20.3 -28.7 -20.3 -27.6 -20.2 -26.55 -20.15 -25.45 -20.0 -24.4 -19.9 -23.35 -19.7 -22.3 -19.5 -21.25 -19.25 -20.25 -19.0 -19.2 -18.7 -18.2 -18.4 -17.2 -18.05 -16.15 -17.7 -15.2 -17.3 -14.2 -16.9 -13.2 -16.45 -12.2 -15.95 -11.15 -15.45 -10.15 -14.95 -9.15 -14.4 -8.15 -13.85 -7.15 -13.25 -6.2 -12.65 -5.2 -12.0 -4.3 -11.4 -3.35 -10.7 -2.4 -10.05 -1.5 -9.35 -0.6 -8.65 0.3 -7.9 1.15 -7.15 2.0 -6.4 2.85 -6.0 3.25 -5.65 3.65 -5.25 4.05 -4.85 4.4 -4.45 4.8 -4.05 5.15 -3.6 5.5 -3.2 5.85 -2.75 6.2 -2.35 6.55 -1.9 6.85 -1.45 7.2 -1.0 7.5 -0.55 7.8 -0.1 8.1 0.4 8.4 0.9 8.7 1.4 9.0 1.9 9.35 2.45 9.6 2.95 9.9 3.45 10.15 4.0 10.45 4.55 10.7 5.05 10.95 5.6 11.2 6.15 11.4 6.7 11.65 7.25 11.85 7.8 12.05 8.35 12.25 8.95 12.4 9.3 12.5 9.65 12.6 10.0 12.7 10.35 12.8 10.7 12.9 11.05 12.95 11.4 13.05 11.8 13.1 12.15 13.15 12.5 13.2 12.85 13.3 13.2 13.35 13.6 13.35 13.95 13.4 14.3 13.45 14.7 13.45 16.5 13.6 17.5 13.55 19.15 13.4 21.95 13.0 22.7 12.9 23.45 12.75 24.15 12.6 24.9 12.4 25.6 12.25 26.35 12.0 27.05 11.85 27.8 11.6 28.5 11.4 29.25 11.15 29.9 10.9 30.65 10.65 31.3 10.4 32.05 10.15 32.7 9.9 33.45 9.6 37.5 8.1 44.3 4.85 57.5 -1.4 60.0 -2.6 60.7 -2.95 61.45 -3.25 62.15 -3.55 62.85 -3.9 63.6 -4.2 64.3 -4.5 65.0 -4.8 65.75 -5.1 66.45 -5.4 67.2 -5.7 67.95 -5.95 68.65 -6.25 69.4 -6.5 70.15 -6.8 70.85 -7.05 71.6 -7.3 72.2 -7.5 72.8 -7.7 73.35 -7.9 73.95 -8.1 74.55 -8.25 75.15 -8.45 75.75 -8.6 76.35 -8.8 76.95 -8.95 77.55 -9.1 78.15 -9.25 78.75 -9.4 79.35 -9.55 79.95 -9.65 80.55 -9.8 81.15 -9.9 81.45 -9.95 81.75 -10.0 82.0 -10.05 82.3 -10.1 82.6 -10.15 82.9 -10.15 83.2 -10.2 83.5 -10.25 83.75 -10.3 84.05 -10.3 84.35 -10.35 84.65 -10.35 84.9 -10.4 85.2 -10.4 85.5 -10.4 85.8 -10.45 86.05 -10.45 88.4 -10.65 88.45 -10.65 88.5 -10.65 88.5 -10.65 88.55 -10.65 88.6 -10.65 88.65 -10.65 88.7 -10.65 88.7 -10.65 90.8 -10.5 91.8 -10.45 93.75 -10.25 94.75 -10.05 95.0 -10.0 95.3 -9.95 95.55 -9.85 95.8 -9.75 96.05 -9.7 96.3 -9.6 96.55 -9.5 96.8 -9.35 97.05 -9.25 97.25 -9.1 97.5 -8.95 97.7 -8.8 97.9 -8.65 98.15 -8.45 98.35 -8.3 98.55 -8.1 98.6 -8.05 98.65 -8.0 98.7 -7.95 98.8 -7.9 98.85 -7.85 98.9 -7.8 98.95 -7.7 99.0 -7.65 99.05 -7.6 99.1 -7.55 99.2 -7.5 99.25 -7.45 99.3 -7.4 99.35 -7.35 99.4 -7.3 99.45 -7.25 99.5 -7.2 99.6 -7.1 99.65 -7.0 99.7 -7.0 99.8 -6.9 99.85 -6.85 99.9 -6.8 99.95 -6.7 100.05 -6.65 100.1 -6.6 100.2 -6.55 100.25 -6.5 100.35 -6.4 100.4 -6.35 100.5 -6.3 100.55 -6.25 100.6 -6.25 100.6 -6.2 100.65 -6.2 100.7 -6.15 100.7 -6.15 100.75 -6.1 100.8 -6.1 100.8 -6.05 100.85 -6.05 100.9 -6.0 100.9 -6.0 100.95 -5.95 100.95 -5.9 101.0 -5.9 101.0 -5.85 101.05 -5.8 101.35 -5.4 101.65 -5.0 101.95 -4.6 102.25 -4.2 102.55 -3.75 102.8 -3.35 103.05 -2.9 103.3 -2.5 103.55 -2.05 103.75 -1.6 104.0 -1.15 104.15 -0.7 104.35 -0.2 104.5 0.25 104.7 0.75 104.8 1.25 104.85 1.45 104.9 1.65 104.95 1.85 105.0 2.05 105.05 2.25 105.1 2.45 105.15 2.65 105.15 2.85 105.2 3.05 105.25 3.25 105.25 3.45 105.25 3.65 105.3 3.85 105.3 4.05 105.3 4.25 105.3 4.45 105.3 4.55 105.3 4.65 105.3 4.75 105.25 4.85 105.25 4.95 105.25 5.05 105.25 5.15 105.2 5.25 105.2 5.35 105.2 5.45 105.2 5.55 105.15 5.65 105.15 5.75 105.1 5.85 105.1 5.95 105.05 6.05 105.0 6.3 104.9 6.55 104.85 6.85 104.75 7.1 104.7 7.35 104.6 7.6 104.5 7.85 104.4 8.1 104.3 8.35 104.15 8.6 104.05 8.85 103.95 9.05 103.8 9.3 103.65 9.55 103.55 9.75 103.4 10.0 103.05 10.55 102.45 11.3 101.6 12.5 101.55 12.6 101.5 12.65 101.45 12.75 101.4 12.8 101.3 12.85 101.25 12.9 101.2 12.95 101.1 13.0 101.05 13.05 101.0 13.1 100.9 13.15 100.85 13.15 100.75 13.2 100.7 13.2 100.6 13.25 100.5 13.25 100.4 13.25 100.35 13.25 100.3 13.25 100.25 13.25 100.2 13.3 100.15 13.3 100.1 13.35 100.1 13.35 100.05 13.35 100.0 13.4 99.95 13.45 99.9 13.45 99.85 13.5 99.95 13.45 99.8 13.55 99.75 13.6 99.7 13.6 99.45 13.75 99.25 13.9 99.0 14.05 98.75 14.2 98.5 14.35 98.3 14.5 98.05 14.65 97.8 14.8 97.55 14.9 97.3 15.05 97.05 15.15 96.8 15.3 96.5 15.4 96.25 15.5 96.0 15.65 95.75 15.75 95.45 15.85 95.15 15.95 94.85 16.05 94.55 16.15 94.25 16.25 93.9 16.3 93.6 16.4 93.3 16.45 93.0 16.5 92.7 16.55 92.4 16.6 92.05 16.65 91.75 16.7 91.45 16.7 91.1 16.75 90.8 16.75 90.15 16.8 90.0 16.8 89.8 16.85 89.65 16.85 89.45 16.85 89.25 16.85 89.05 16.85 88.9 16.85 88.7 16.85 88.5 16.85 88.35 16.85 88.15 16.85 87.95 16.8 87.75 16.8 87.6 16.8 87.4 16.75 87.2 16.75 87.0 16.7 86.95 16.65 86.95 16.6 86.9 16.55 86.9 16.45 86.9 16.4 86.9 16.35 86.9 16.3 86.9 16.2 86.9 16.15 86.9 16.1 86.9 16.05 86.9 15.95 86.95 15.9 86.95 15.85 86.95 15.75 87.0 15.7 87.05 15.7 87.05 15.65 87.1 15.65 87.15 15.65 87.2 15.6 87.2 15.6 87.25 15.6 87.3 15.55 87.35 15.55 87.4 15.55 87.4 15.5 87.45 15.5 87.5 15.5 87.55 15.45 87.6 15.45 87.65 15.45 88.3 15.2 89.3 14.85 90.8 14.3 91.0 14.2 91.45 14.05 91.85 13.85 92.25 13.7 92.65 13.5 93.1 13.3 93.45 13.1 93.85 12.9 94.25 12.65 94.65 12.45 95.0 12.15 95.35 11.9 95.75 11.65 96.1 11.4 96.45 11.1 96.8 10.8 97.1 10.5 97.25 10.35 97.35 10.25 97.5 10.15 97.6 10.05 97.75 9.9 97.85 9.8 98.0 9.65 98.1 9.55 98.2 9.45 98.35 9.3 98.45 9.15 98.55 9.05 98.65 8.9 98.8 8.8 98.9 8.65 99.0 8.5 99.65 7.55 99.95 6.95 100.1 6.65 100.2 6.4 100.3 6.1 100.4 5.8 100.45 5.5 100.55 5.2 100.6 4.95 100.6 4.65 100.65 4.35 100.65 4.05 100.65 3.75 100.65 3.45 100.65 3.15 100.6 2.85 100.55 2.55 100.5 2.25 100.5 2.2 100.5 2.2 100.5 2.15 100.45 2.15 100.45 2.1 100.45 2.05 100.45 2.05 100.4 2.0 100.4 2.0 100.4 1.95 100.35 1.9 100.35 1.9 100.35 1.85 100.3 1.85 100.3 1.8 100.3 1.8 99.95 1.35 98.7 -0.3 97.75 -1.6 97.15 -2.35 97.1 -2.4 97.1 -2.4 97.1 -2.45 97.05 -2.5 97.05 -2.5 97.0 -2.55 97.0 -2.6 96.95 -2.6 96.95 -2.65 96.9 -2.7 96.85 -2.75 96.8 -2.85 96.75 -2.9 96.65 -2.95 96.6 -3.0 96.55 -3.05 96.45 -3.1 96.4 -3.15 96.3 -3.2 96.25 -3.25 96.15 -3.25 96.1 -3.3 96.0 -3.3 95.9 -3.35 95.8 -3.35 95.75 -3.35 94.75 -3.45 94.35 -3.45 92.65 -3.35 89.1 -2.4 86.95 -1.8 83.4 -0.25 82.75 0.05 82.1 0.35 81.45 0.65 80.85 1.0 80.2 1.3 79.55 1.65 78.95 1.95 78.3 2.3 77.7 2.65 77.05 3.0 76.45 3.35 75.85 3.75 75.25 4.1 74.6 4.5 74.05 4.85 73.4 5.25 70.65 6.95 64.95 10.95 61.0 13.7 58.1 15.55 57.4 15.95 56.75 16.35 56.05 16.8 55.35 17.15 54.65 17.55 53.95 17.9 53.25 18.3 52.55 18.65 51.85 19.0 51.1 19.3 50.4 19.65 49.65 19.95 48.95 20.3 48.2 20.6 47.45 20.9 46.7 21.15 45.95 21.45 45.25 21.7 44.55 21.95 43.85 22.2 43.1 22.45 42.4 22.7 41.65 22.95 40.95 23.2 40.2 23.4 39.45 23.65 38.75 23.9 38.0 24.1 37.25 24.3 36.55 24.5 35.8 24.7 35.05 24.9 32.45 25.6 28.65 26.2 26.2 26.65 21.85 27.1 21.0 27.2 19.35 27.25 18.75 27.3 17.35 27.35 16.1 27.35 15.4 27.4 15.25 27.4 15.15 27.4 15.0 27.4 14.9 27.45 14.75 27.45 14.65 27.45 14.5 27.45 14.4 27.45 14.25 27.45 14.1 27.45 14.0 27.45 13.85 27.45 13.75 27.45 13.6 27.45 13.5 27.4 13.35 27.4 12.75 27.35 11.7 27.35 10.6 27.3 10.1 27.25 8.05 27.15 5.15 26.9 4.8 26.85 4.4 26.85 4.05 26.8 3.65 26.75 3.3 26.7 2.9 26.65 2.55 26.6 2.15 26.55 1.8 26.5 1.4 26.45 1.05 26.4 0.65 26.3 0.3 26.25 -0.1 26.2 -0.45 26.15 -0.85 26.05 -1.6 25.9 -2.3 25.75 -3.05 25.6 -3.75 25.45 -4.45 25.3 -5.2 25.1 -5.9 24.95 -6.6 24.75 -7.3 24.55 -8.05 24.35 -8.75 24.1 -9.45 23.9 -10.15 23.65 -10.85 23.4 -11.55 23.15 -12.25 22.9 -12.8 22.7 -13.35 22.45 -13.85 22.2 -14.35 21.9 -14.9 21.65 -15.4 21.35 -15.9 21.05 -16.35 20.75 -16.85 20.4 -17.3 20.05 -17.75 19.7 -18.2 19.35 -18.65 19.0 -19.1 18.6 -19.55 18.2 -19.95 17.8 -20.15 17.6 -20.35 17.4 -20.55 17.2 -20.75 17.0 -20.95 16.75 -21.15 16.6 -21.35 16.35 -21.55 16.15 -21.75 15.95 -21.9 15.75 -22.1 15.5 -22.3 15.3 -22.45 15.1 -22.65 14.85 -22.8 14.65 -23.0 14.4 -23.25 14.05 -23.55 13.65 -23.8 13.3 -24.05 12.9 -24.25 12.5 -24.5 12.1 -24.75 11.7 -24.95 11.3 -25.15 10.9 -25.35 10.5 -25.55 10.1 -25.7 9.65 -25.9 9.25 -26.05 8.8 -26.25 8.4 -26.4 7.95 -26.4 7.9 -26.45 7.85 -26.45 7.8 -26.45 7.7 -26.5 7.65 -26.5 7.6 -26.55 7.55 -26.55 7.5 -26.55 7.45 -26.6 7.35 -26.6 7.3 -26.65 7.25 -26.65 7.2 -26.65 7.15 -26.7 7.1 -26.7 7.0 -26.7 7.0 -26.8 6.9 -26.85 6.8 -26.9 6.75 L-26.9 6.75" fill="#000000" fill-rule="evenodd" stroke="none"/>
  </g>
</svg>
