<?xml version="1.0" encoding="UTF-8" standalone="no"?>
<svg xmlns:xlink="http://www.w3.org/1999/xlink" height="152.75px" width="113.75px" xmlns="http://www.w3.org/2000/svg">
  <g transform="matrix(1.0, 0.0, 0.0, 1.0, 56.85, 76.35)">
    <path d="M-52.15 -19.65 Q-51.6 -18.3 -51.05 -17.1 -50.6 -16.0 -50.1 -15.0 -49.7 -14.1 -49.2 -13.15 -48.85 -12.55 -48.25 -11.4 -47.6 -10.15 -47.3 -9.55 -46.7 -8.45 -46.2 -7.45 -45.6 -6.2 -45.0 -4.9 -44.3 -3.4 -43.55 -1.7 -42.6 0.55 -42.05 1.75 -41.3 3.5 -40.8 4.85 -40.15 6.35 -39.7 7.65 -39.2 9.0 -38.8 10.25 -38.4 11.5 -38.1 12.7 -37.8 13.9 -37.55 15.1 -37.35 16.3 -37.25 17.55 -37.1 18.8 -37.1 20.1 -37.05 23.75 -38.2 31.95 -38.8 36.0 -40.85 45.2 -43.4 56.65 -44.1 60.2 -45.15 65.6 -45.1 67.5 -45.05 68.65 -44.95 69.85 -44.8 70.95 -44.6 72.1 -44.45 73.15 -44.2 74.25 -43.95 75.3 -43.65 76.45 -43.35 77.45 -43.0 78.6 -42.7 79.65 -42.25 80.85 -41.9 81.85 -41.45 83.15 -41.2 83.9 -40.6 85.55 -40.15 86.8 -39.7 87.9 -39.3 88.85 -38.9 89.75 -38.6 90.5 -38.25 91.25 -37.95 91.8 -37.6 92.5 -41.05 85.7 -37.05 93.6 -36.75 94.2 -36.55 94.65 -36.25 95.2 -36.05 95.75 -35.75 96.4 -35.55 97.05 -34.55 99.9 -34.05 103.1 -33.6 106.15 -33.65 109.5 -33.65 112.6 -34.05 116.05 -34.45 119.2 -35.2 122.6 -35.85 125.65 -36.8 128.95 -37.6 131.85 -38.65 135.05 -39.5 137.6 -40.6 140.6 -41.25 142.35 -42.45 145.55 -42.7 146.15 -42.8 146.5 -43.05 147.1 -43.25 147.7 -43.5 148.45 -43.65 149.15 -43.9 150.0 -44.05 150.85 -44.25 151.8 -44.35 152.7 -44.5 153.75 -44.5 154.8 -44.55 155.9 -44.45 157.0 -44.35 158.15 -44.15 159.3 -44.0 159.95 -43.85 160.6 -43.7 161.25 -43.5 161.85 -43.3 162.4 -43.05 163.0 -42.85 163.5 -42.6 164.05 -42.4 164.5 -42.15 165.0 -41.9 165.4 -41.65 165.85 -41.45 166.25 -41.2 166.6 -41.0 166.95 -40.8 167.25 -40.55 167.35 -40.3 167.5 -40.05 167.6 -39.85 167.75 -39.6 167.85 -39.45 168.0 -39.25 168.1 -39.05 168.25 -38.9 168.35 -38.75 168.5 -38.65 168.65 -38.55 168.75 -38.45 168.9 -38.4 169.0 -38.35 169.15 -38.35 169.3 -38.35 169.5 -38.55 169.7 -38.7 169.9 -38.95 170.1 -39.25 170.25 -39.6 170.4 -39.95 170.55 -40.4 170.7 -40.8 170.85 -41.3 170.95 -41.75 171.05 -42.25 171.1 -42.75 171.2 -43.25 171.2 -43.75 171.25 -44.25 171.25 -44.9 171.25 -45.6 171.15 -46.2 171.1 -46.8 170.95 -47.35 170.8 -47.95 170.6 -48.45 170.45 -48.9 170.25 -49.35 170.05 -49.8 169.8 -50.15 169.65 -50.5 169.4 -50.8 169.25 -51.05 169.05 -51.25 168.95 -51.5 168.8 -51.95 168.45 -52.4 168.1 -52.8 167.75 -53.15 167.4 -53.55 167.05 -53.85 166.65 -54.15 166.3 -54.45 165.95 -54.7 165.6 -54.95 165.25 -55.2 164.95 -55.4 164.6 -55.55 164.3 -55.75 164.0 -55.9 163.75 -56.0 163.45 -55.35 158.25 -53.95 146.6 -53.9 146.25 -53.8 145.95 -53.75 145.55 -53.65 145.2 -53.55 144.8 -53.45 144.4 -53.3 144.0 -53.2 143.55 -53.05 143.1 -52.95 142.65 -52.8 142.2 -52.6 141.7 -52.45 141.2 -52.25 140.75 -52.05 140.2 -51.85 139.7 -51.0 137.7 -48.7 133.75 -48.5 133.45 -48.4 133.2 -48.2 132.85 -48.05 132.5 -47.85 132.05 -47.65 131.55 -47.4 131.0 -47.2 130.3 -46.9 129.6 -46.65 128.7 -46.35 127.75 -46.05 126.6 -45.7 125.4 -45.35 124.0 -44.95 122.5 -44.55 120.75 -43.95 118.2 -43.65 116.85 -43.15 114.85 -42.85 113.4 -42.45 111.7 -42.2 110.35 -41.9 108.9 -41.7 107.65 -41.5 106.4 -41.35 105.35 -41.25 104.2 -41.2 103.25 -41.15 102.25 -41.25 101.4 -41.3 100.5 -41.45 99.7 -41.55 99.25 -41.65 98.8 -41.75 98.35 -41.9 97.85 -42.05 97.4 -42.25 96.9 -42.4 96.4 -42.65 95.8 -42.85 95.3 -43.1 94.65 -43.35 94.05 -43.7 93.35 -43.95 92.75 -44.35 91.9 -44.6 91.35 -45.1 90.2 -45.85 88.55 -46.6 87.05 -47.3 85.7 -48.0 84.45 -48.55 83.35 -49.25 82.25 -49.65 81.55 -50.4 80.4 -51.1 79.15 -51.4 78.65 -52.0 77.75 -52.4 77.0 -52.85 76.1 -53.3 75.2 -53.75 74.25 -54.1 73.2 -54.4 72.45 -54.65 71.65 -54.95 70.8 -55.2 69.95 -55.45 69.05 -55.7 68.1 -55.95 67.1 -56.15 66.05 -56.35 64.95 -56.5 63.85 -56.7 62.7 -56.8 61.55 -56.9 60.3 -56.9 59.1 -56.9 57.8 -56.85 56.5 -56.7 53.9 -56.25 51.6 -55.8 49.5 -55.1 47.5 -54.45 45.8 -53.55 43.95 -52.95 42.75 -51.85 40.75 -50.55 38.45 -50.1 37.5 -49.15 35.7 -48.5 34.1 -47.7 32.15 -47.25 30.15 -46.7 27.9 -46.45 25.45 -46.3 23.65 -46.3 21.85 -46.35 20.15 -46.5 18.35 -46.7 16.65 -47.0 14.85 -47.3 13.2 -47.75 11.45 -48.2 9.8 -48.75 8.0 -49.2 6.35 -49.85 4.5 -50.4 2.95 -51.1 1.0 -51.55 -0.15 -52.4 -2.55 -52.9 -3.85 -53.5 -5.4 -53.8 -6.15 -54.6 -8.05 -55.3 -9.7 -55.65 -10.65 -56.2 -12.0 -56.6 -13.15 -57.1 -14.5 -57.45 -15.75 -57.85 -17.1 -58.1 -18.4 -58.4 -19.85 -58.6 -21.3 -58.8 -22.85 -58.9 -24.5 -58.95 -25.5 -58.95 -26.45 -58.95 -27.4 -58.9 -28.35 -58.85 -29.2 -58.75 -30.1 -58.7 -30.95 -58.6 -31.75 -58.5 -32.55 -58.35 -33.3 -58.25 -34.05 -58.1 -34.75 -57.95 -35.4 -57.8 -36.1 -57.7 -36.65 -57.5 -37.25 -57.35 -36.45 -57.15 -35.65 -56.95 -34.7 -56.75 -33.8 -56.5 -32.8 -56.25 -31.8 -55.95 -30.75 -55.65 -29.65 -55.3 -28.5 -54.95 -27.35 -54.55 -26.1 -54.15 -24.9 -53.7 -23.6 -53.2 -22.35 -52.7 -21.0 -52.15 -19.65 L-52.15 -19.65" fill="#502bf7" fill-rule="evenodd" stroke="none"/>
    <path d="M61.9 -36.65 Q62.2 -35.75 62.5 -34.9 62.85 -33.9 63.15 -32.9 63.45 -31.8 63.75 -30.7 64.05 -29.5 64.3 -28.3 64.55 -27.0 64.8 -25.75 65.0 -24.35 65.15 -22.95 65.35 -21.5 65.45 -20.05 65.55 -18.5 65.55 -16.95 65.55 -15.3 65.45 -13.65 65.3 -12.15 65.0 -10.55 64.75 -9.15 64.35 -7.45 64.0 -6.15 63.45 -4.05 62.35 -0.1 62.4 -0.15 61.7 2.3 61.2 4.4 60.55 7.15 59.95 9.9 59.25 13.15 58.65 16.55 57.7 21.9 57.7 24.6 57.7 25.6 57.75 26.5 57.8 27.5 57.9 28.45 58.05 29.45 58.25 30.5 58.45 31.6 58.75 32.75 59.05 33.95 59.4 35.25 59.8 36.6 60.35 38.15 60.85 39.65 61.45 41.45 62.1 43.2 62.85 45.3 64.1 48.65 65.15 51.2 65.9 53.05 66.55 54.5 66.6 54.6 67.35 56.25 67.65 56.85 67.75 57.25 67.9 57.7 68.05 58.5 68.4 60.4 68.5 62.4 68.6 64.25 68.5 66.15 68.45 67.9 68.2 69.7 67.95 71.3 67.6 72.95 67.3 74.45 66.9 75.9 66.55 77.15 66.15 78.45 65.8 79.45 65.4 80.5 65.15 81.2 64.8 82.05 64.45 82.85 64.15 83.55 63.85 84.15 63.6 84.75 63.35 85.2 63.1 85.7 62.95 85.9 62.65 86.5 62.35 87.0 62.2 87.3 61.95 87.75 61.75 88.15 61.5 88.65 61.3 89.2 61.05 89.8 60.8 90.5 60.35 91.85 59.95 93.2 59.6 94.5 59.35 95.85 59.1 97.1 58.95 98.35 58.8 99.55 58.75 100.8 58.65 101.95 58.65 103.1 58.65 104.15 58.7 105.25 58.75 106.25 58.85 107.25 58.9 108.15 59.05 109.05 59.1 109.45 59.1 109.85 59.15 110.25 59.2 110.7 59.25 111.15 59.3 111.65 59.35 112.15 59.45 112.7 59.5 113.25 59.6 113.8 59.7 114.35 59.85 114.95 59.95 115.55 60.1 116.2 60.25 116.85 60.4 117.5 60.75 118.85 61.1 120.0 61.45 121.1 61.85 122.1 62.2 123.0 62.65 123.95 63.0 124.7 63.5 125.7 61.1 121.0 64.4 127.5 64.95 128.6 65.4 129.5 65.95 130.7 66.45 131.9 67.05 133.25 67.6 134.8 68.6 137.45 69.1 139.4 69.4 140.55 69.7 142.35 70.0 144.15 70.3 145.35 70.85 147.4 71.9 150.2 71.35 148.6 72.2 151.1 72.4 151.6 72.55 152.0 72.7 152.55 72.85 153.0 73.0 153.55 73.1 154.1 73.25 154.65 73.35 155.25 73.4 155.85 73.45 156.45 73.5 157.1 73.45 157.7 73.45 158.4 73.35 159.05 73.3 159.3 73.3 159.5 73.25 159.8 73.2 160.05 73.1 160.4 73.05 160.7 72.95 161.1 72.85 161.45 72.7 161.85 72.55 162.2 72.35 162.65 72.15 163.05 71.95 163.5 71.7 163.9 71.4 164.35 71.1 164.75 70.65 165.35 70.1 165.9 69.6 166.4 69.05 166.85 68.5 167.25 67.95 167.6 67.4 167.95 66.85 168.2 66.4 168.45 65.85 168.65 65.45 168.8 65.0 168.95 64.6 169.05 64.25 169.15 64.0 169.2 63.7 169.25 62.4 168.65 59.3 167.25 59.5 167.1 59.7 166.9 59.95 166.75 60.15 166.55 60.4 166.35 60.65 166.1 60.9 165.9 61.1 165.65 61.35 165.35 61.6 165.1 61.85 164.8 62.05 164.5 62.3 164.15 62.5 163.85 62.75 163.5 62.95 163.1 63.35 162.35 63.65 161.55 63.95 160.75 64.15 159.9 64.35 159.05 64.4 158.15 64.45 157.2 64.45 156.15 64.4 155.15 64.25 154.0 64.1 152.9 63.8 151.6 63.55 150.35 63.2 148.9 62.85 147.5 62.35 145.9 61.8 143.95 61.2 142.15 60.7 140.6 60.15 139.05 59.65 137.8 59.15 136.45 58.75 135.5 58.15 134.15 57.3 132.1 57.25 131.95 56.75 130.75 56.35 129.75 55.9 128.55 55.5 127.35 55.05 126.05 54.65 124.65 54.3 123.45 54.0 122.2 53.7 121.0 53.5 119.8 53.25 118.7 53.05 117.55 52.85 116.45 52.75 115.35 52.6 114.3 52.5 113.25 52.4 112.25 52.3 111.3 52.25 110.35 52.2 109.45 52.15 108.55 52.15 107.7 52.2 107.35 52.2 107.0 52.25 106.6 52.3 106.2 52.35 105.75 52.4 105.35 52.45 104.85 52.5 104.4 52.6 103.9 52.65 103.4 52.75 102.85 52.85 102.35 52.95 101.75 53.05 101.2 53.15 100.65 53.3 100.05 53.45 99.35 53.65 98.6 53.8 97.95 54.0 97.3 54.15 96.7 54.35 96.1 54.5 95.55 54.65 95.0 54.8 94.55 55.0 94.05 55.15 93.65 55.3 93.2 55.4 92.85 55.55 92.45 55.8 91.85 55.8 91.8 56.3 90.5 56.7 89.1 57.15 87.8 57.5 86.45 57.85 85.2 58.15 83.95 58.45 82.8 58.7 81.65 58.9 80.6 59.1 79.55 59.3 78.6 59.45 77.7 59.55 76.95 59.65 76.25 59.75 75.65 59.8 75.15 59.9 74.15 59.95 73.15 60.0 72.15 59.95 71.15 59.9 70.1 59.8 69.0 59.7 67.95 59.5 66.7 59.3 65.55 59.05 64.2 58.8 62.95 58.45 61.4 58.15 60.05 57.75 58.25 57.5 57.1 56.9 54.65 56.35 52.3 55.8 50.15 55.3 48.35 54.75 46.5 54.4 45.25 53.85 43.5 53.25 41.5 53.1 40.95 52.7 39.6 52.4 38.6 52.1 37.35 51.85 36.2 51.65 34.95 51.45 33.6 51.3 32.15 51.2 30.55 51.15 29.45 51.1 28.3 51.1 27.25 51.1 26.2 51.1 25.25 51.1 24.25 51.15 23.4 51.2 22.5 51.25 21.75 51.3 20.95 51.35 20.35 51.4 19.7 51.45 19.2 51.5 18.75 51.55 18.4 51.6 18.1 51.75 16.95 51.9 15.75 52.1 14.6 52.3 13.4 52.5 12.3 52.7 11.2 52.95 10.15 53.15 9.1 53.35 8.15 53.6 7.15 53.8 6.3 54.05 5.45 54.25 4.7 54.45 4.0 54.6 3.35 54.8 2.8 54.8 2.8 54.8 2.8 55.3 0.95 55.8 -0.8 56.25 -2.35 56.7 -3.85 57.1 -5.1 57.55 -6.5 57.65 -6.7 58.35 -8.85 58.8 -10.2 59.1 -11.1 59.5 -12.25 59.75 -13.3 60.1 -14.5 60.4 -15.65 60.7 -16.95 60.95 -18.3 61.1 -19.15 61.25 -20.0 61.4 -20.9 61.55 -21.85 61.7 -22.85 61.8 -23.9 61.9 -25.0 62.0 -26.1 62.05 -27.3 62.1 -28.5 62.15 -29.8 62.15 -31.05 62.15 -32.4 62.1 -33.8 62.05 -35.2 61.9 -36.65 L61.9 -36.65" fill="#502bf7" fill-rule="evenodd" stroke="none"/>
    <path d="M53.05 -77.7 Q53.3 -77.55 53.5 -77.45 53.75 -77.35 53.95 -77.3 54.2 -77.2 54.45 -77.2 54.65 -77.15 54.9 -77.15 55.1 -77.15 55.35 -77.15 55.55 -77.2 55.8 -77.25 56.05 -77.35 56.25 -77.45 56.5 -77.6 56.7 -77.75 56.35 -77.5 56.05 -77.35 55.8 -77.15 55.55 -77.0 55.3 -76.9 55.1 -76.85 54.85 -76.75 54.65 -76.75 54.45 -76.75 54.25 -76.75 54.05 -76.8 53.8 -76.9 53.6 -77.0 53.35 -77.15 53.1 -77.25 52.8 -77.5 52.9 -77.55 53.05 -77.7 L53.05 -77.7" fill="#0d0d0d" fill-rule="evenodd" stroke="none"/>
  </g>
</svg>
