<?xml version="1.0" encoding="UTF-8" standalone="no"?>
<svg xmlns:xlink="http://www.w3.org/1999/xlink" height="157.0px" width="113.75px" xmlns="http://www.w3.org/2000/svg">
  <g transform="matrix(1.0, 0.0, 0.0, 1.0, 56.85, 78.5)">
    <path d="M-36.45 129.6 Q-36.4 129.4 -36.3 129.15 -36.2 128.85 -36.05 128.5 -35.95 128.1 -35.8 127.65 -35.65 127.1 -35.5 126.55 -35.3 125.9 -35.15 125.2 -34.95 124.45 -34.8 123.65 -34.6 122.8 -34.45 121.9 -34.25 120.9 -34.1 119.9 -34.3 119.65 -34.45 119.4 -34.65 119.2 -34.8 118.9 -34.95 118.65 -35.05 118.4 -35.2 118.1 -35.3 117.85 -35.4 117.55 -35.5 117.3 -35.6 117.0 -35.65 116.7 -35.7 116.4 -35.75 116.1 -35.75 115.8 -35.75 115.5 -35.75 115.35 -35.75 115.15 -35.75 115.0 -35.75 114.85 -35.8 114.7 -35.8 114.5 -35.8 114.35 -35.8 114.2 -35.8 114.0 -35.8 113.85 -35.85 113.7 -35.85 113.5 -35.85 113.35 -35.85 113.2 -35.9 113.0 -35.9 112.85 -35.95 112.5 -36.05 112.1 -36.1 111.75 -36.2 111.4 -36.3 111.0 -36.35 110.65 -36.45 110.3 -36.55 109.95 -36.65 109.55 -36.75 109.2 -36.9 108.85 -37.0 108.5 -37.1 108.15 -37.25 107.8 -37.35 107.45 -37.5 107.1 -37.7 106.6 -37.95 106.1 -38.2 105.65 -38.45 105.15 -38.7 104.7 -39.0 104.2 -39.25 103.75 -39.55 103.3 -39.8 102.8 -40.1 102.35 -40.4 101.9 -40.7 101.45 -41.0 101.0 -41.3 100.55 -41.6 100.15 -41.95 99.7 -42.0 99.65 -42.1 99.5 -41.95 100.5 -41.8 101.55 -41.65 102.65 -41.55 103.8 -41.45 105.0 -41.45 106.2 -41.4 107.5 -41.45 108.75 -41.45 110.1 -41.6 111.45 -41.7 112.85 -41.9 114.25 -42.15 115.7 -42.45 117.1 -42.8 118.55 -43.25 119.95 -44.55 124.2 -47.5 130.85 -47.9 131.75 -48.25 132.55 -48.6 133.3 -48.95 134.0 -49.2 134.55 -49.55 135.25 -50.0 136.2 -50.05 136.4 -50.35 137.0 -50.6 137.5 -50.85 138.05 -51.1 138.6 -51.35 139.25 -51.6 139.9 -51.9 140.55 -52.15 141.35 -52.45 142.2 -52.75 143.0 -53.0 143.8 -53.3 144.6 -53.5 145.3 -53.75 146.05 -53.95 146.7 -54.1 147.4 -54.3 148.0 -54.45 148.6 -54.55 149.15 -54.7 149.65 -54.8 150.1 -54.9 150.55 -55.0 150.95 -55.05 151.3 -55.25 152.2 -55.4 153.1 -55.55 153.95 -55.7 154.85 -55.85 155.7 -55.95 156.55 -56.05 157.35 -56.15 158.2 -56.25 158.95 -56.3 159.75 -56.35 160.5 -56.4 161.3 -56.45 162.0 -56.45 162.75 -56.5 163.45 -56.5 164.15 -56.45 164.25 -56.4 164.4 -56.3 164.5 -56.25 164.65 -56.15 164.8 -56.05 164.95 -56.0 165.1 -55.9 165.25 -55.8 165.4 -55.65 165.55 -55.55 165.75 -55.45 165.9 -55.3 166.1 -55.2 166.25 -55.05 166.45 -54.9 166.6 -54.35 167.3 -53.7 167.9 -53.1 168.45 -52.45 168.9 -51.8 169.35 -51.15 169.75 -50.55 170.1 -49.85 170.4 -49.3 170.65 -48.65 170.85 -48.15 171.05 -47.55 171.2 -47.1 171.35 -46.65 171.45 -46.3 171.55 -45.85 171.65 -45.45 171.75 -45.25 171.75 -44.9 171.85 -44.6 171.9 -44.3 171.95 -44.0 171.95 -43.65 172.0 -43.35 172.0 -43.0 172.05 -42.65 172.0 -42.3 172.0 -41.95 171.95 -41.6 171.9 -41.25 171.85 -40.9 171.75 -40.5 171.65 -40.25 171.55 -40.05 171.5 -39.85 171.4 -39.65 171.3 -39.45 171.2 -39.25 171.1 -39.05 171.0 -38.9 170.9 -38.75 170.8 -38.55 170.7 -38.4 170.6 -38.3 170.5 -38.15 170.4 -38.0 170.3 -37.9 170.2 -37.8 170.1 -37.95 170.0 -38.1 169.95 -38.3 169.85 -38.5 169.7 -38.7 169.6 -38.85 169.5 -39.05 169.35 -39.25 169.2 -39.5 169.05 -39.7 168.9 -39.9 168.7 -40.15 168.5 -40.35 168.3 -40.6 168.1 -40.8 167.85 -41.0 167.65 -41.25 167.35 -41.5 167.05 -41.7 166.8 -41.9 166.5 -42.1 166.25 -42.25 165.95 -42.45 165.7 -42.55 165.4 -42.7 165.15 -42.8 164.9 -42.95 164.65 -43.05 164.45 -43.1 164.2 -43.2 164.0 -43.25 163.8 -43.3 163.65 -43.5 163.05 -43.7 162.4 -43.85 161.8 -44.0 161.2 -44.15 160.65 -44.25 160.1 -44.35 159.55 -44.45 159.05 -44.5 158.55 -44.6 158.05 -44.65 157.6 -44.7 157.15 -44.7 156.7 -44.75 156.3 -44.75 155.95 -44.75 155.55 -44.8 154.25 -44.7 152.95 -44.6 151.7 -44.4 150.4 -44.2 149.2 -43.9 147.95 -43.6 146.8 -43.25 145.55 -42.85 144.45 -42.4 143.2 -42.0 142.1 -41.5 140.85 -41.05 139.8 -40.45 138.5 -40.1 137.75 -39.4 136.15 -39.15 135.55 -38.9 135.0 -38.65 134.55 -38.45 134.1 -38.3 133.75 -38.05 133.3 -37.8 132.8 -37.7 132.65 -37.55 132.3 -37.4 132.0 -37.25 131.65 -37.1 131.3 -36.95 130.95 -36.8 130.55 -36.6 130.1 -36.45 129.6 L-36.45 129.6" fill="#54c2be" fill-rule="evenodd" stroke="none"/>
    <path d="M60.75 116.4 Q60.4 115.05 60.1 113.9 59.85 112.75 59.6 111.7 59.35 110.7 59.2 109.8 59.0 108.85 58.9 108.05 58.75 107.25 58.65 106.5 58.55 105.8 58.55 105.1 58.5 104.4 58.5 103.8 58.45 103.15 58.5 102.55 58.45 102.65 58.35 102.8 58.3 102.9 58.2 103.05 58.15 103.15 58.1 103.3 58.0 103.4 57.95 103.55 57.9 103.65 57.85 103.8 57.75 103.95 57.7 104.05 57.65 104.2 57.6 104.3 57.5 104.45 57.45 104.6 56.6 106.7 55.6 109.4 55.45 109.8 55.35 110.1 55.25 110.45 55.1 110.8 55.0 111.15 54.9 111.5 54.75 111.85 54.65 112.2 54.55 112.6 54.45 112.95 54.35 113.3 54.25 113.65 54.15 114.0 54.1 114.35 54.0 114.75 53.95 115.1 53.95 115.15 53.95 115.2 53.95 115.25 53.95 115.25 53.95 115.3 53.95 115.35 53.9 115.4 53.9 115.45 53.9 115.5 53.9 115.5 53.9 115.55 53.9 115.6 53.9 115.65 53.9 115.7 53.9 115.75 53.9 115.75 53.9 115.95 53.9 116.15 53.9 116.35 53.85 116.55 53.85 116.7 53.8 116.9 53.75 117.1 53.75 117.25 53.7 117.45 53.65 117.6 53.6 117.8 53.5 117.95 53.45 118.15 53.4 118.3 53.3 118.45 53.25 118.65 53.35 119.25 53.45 119.8 53.6 120.4 53.7 120.95 53.85 121.55 54.05 122.15 54.2 122.8 54.45 123.5 54.65 124.2 54.95 125.0 55.2 125.75 55.55 126.75 55.8 127.6 56.25 128.85 56.5 129.55 57.1 131.3 60.85 141.95 62.65 148.15 62.95 149.2 63.2 150.05 63.45 151.05 63.65 151.9 63.9 152.85 64.05 153.7 64.25 154.65 64.35 155.45 64.45 156.35 64.45 157.1 64.5 157.9 64.45 158.6 64.35 159.3 64.15 159.95 63.95 160.55 63.65 161.1 63.25 161.7 62.4 163.5 61.6 165.05 61.0 165.85 60.95 165.9 60.8 166.1 60.7 166.3 60.65 166.35 60.55 166.5 60.45 166.6 60.4 166.75 60.3 166.85 60.25 167.0 60.2 167.1 60.15 167.25 60.15 167.35 60.1 167.45 60.15 167.6 60.15 167.7 60.15 167.8 60.2 167.95 60.3 168.1 60.45 168.25 60.6 168.35 60.75 168.45 60.95 168.55 61.1 168.6 61.35 168.7 61.55 168.75 61.75 168.8 62.0 168.85 62.2 168.9 62.4 168.9 62.65 168.95 62.8 168.95 63.05 169.0 63.4 169.05 63.55 169.05 63.85 169.1 64.05 169.1 64.35 169.15 64.65 169.15 64.95 169.15 65.25 169.1 65.55 169.1 65.85 169.05 66.15 169.0 66.45 168.9 66.8 168.85 67.1 168.7 67.45 168.6 67.75 168.4 67.95 168.3 68.1 168.15 68.25 168.05 68.45 167.9 68.6 167.75 68.75 167.6 68.9 167.45 69.05 167.25 69.25 167.05 69.4 166.8 69.55 166.6 69.75 166.35 69.9 166.1 70.15 165.8 70.3 165.55 70.55 165.15 70.8 164.8 71.0 164.45 71.25 164.1 71.45 163.75 71.65 163.45 71.8 163.15 72.0 162.85 72.15 162.55 72.3 162.3 72.45 162.05 72.55 161.85 72.65 161.65 72.75 161.45 72.85 161.3 72.9 161.15 72.95 161.1 73.35 160.25 73.45 159.1 73.55 158.0 73.4 156.65 73.25 155.45 72.95 154.0 72.65 152.7 72.25 151.25 71.9 149.95 71.4 148.6 71.0 147.45 70.55 146.25 70.2 145.35 69.8 144.4 69.6 143.95 69.25 143.2 68.55 141.6 67.95 140.1 67.35 138.6 66.85 137.1 66.3 135.65 65.8 134.15 65.3 132.7 64.85 131.1 64.4 129.65 63.9 127.95 63.45 126.4 62.95 124.5 62.5 122.9 61.9 120.7 61.55 119.35 60.75 116.4 L60.75 116.4" fill="#54c2be" fill-rule="evenodd" stroke="none"/>
  </g>
</svg>
