<?xml version="1.0" encoding="UTF-8" standalone="no"?>
<svg xmlns:xlink="http://www.w3.org/1999/xlink" height="157.0px" width="113.75px" xmlns="http://www.w3.org/2000/svg">
  <g transform="matrix(1.0, 0.0, 0.0, 1.0, 56.85, 78.5)">
    <path d="M53.6 -46.55 Q53.85 -46.4 54.05 -46.3 54.3 -46.2 54.5 -46.1 54.75 -46.05 55.0 -46.0 55.2 -45.95 55.45 -45.95 55.65 -45.95 55.9 -45.95 56.15 -46.0 56.35 -46.1 56.6 -46.15 56.8 -46.3 57.05 -46.4 57.25 -46.6 56.9 -46.35 56.65 -46.15 56.35 -45.95 56.1 -45.85 55.85 -45.7 55.65 -45.65 55.4 -45.55 55.2 -45.55 55.0 -45.55 54.8 -45.6 54.6 -45.6 54.4 -45.7 54.15 -45.8 53.9 -45.95 53.65 -46.1 53.35 -46.3 53.45 -46.35 53.6 -46.55 L53.6 -46.55" fill="#0d0d0d" fill-rule="evenodd" stroke="none"/>
    <path d="M69.3 143.25 Q68.6 141.65 68.0 140.15 67.4 138.65 66.85 137.15 66.3 135.7 65.8 134.2 65.35 132.75 64.85 131.2 64.4 129.7 63.9 128.0 63.45 126.45 62.95 124.55 62.5 122.95 61.9 120.75 61.55 119.4 60.75 116.45 60.35 114.9 60.0 113.55 59.7 112.25 59.45 111.1 59.2 109.9 59.0 108.9 58.85 107.9 58.7 107.0 58.6 106.15 58.55 105.35 58.5 104.55 58.5 103.8 58.5 103.05 58.5 102.3 58.55 101.65 58.65 100.9 58.75 100.15 58.85 99.45 58.95 98.8 59.1 98.1 59.25 97.4 59.45 96.7 59.65 96.0 59.9 95.25 60.1 94.55 60.4 93.7 60.65 92.95 61.0 92.0 61.25 91.2 61.7 90.15 61.95 89.5 62.5 88.05 63.1 86.4 63.7 84.95 64.2 83.7 64.75 82.55 65.15 81.65 65.6 80.65 59.2 94.25 66.35 79.1 66.75 78.3 66.95 77.75 67.25 77.05 67.5 76.45 67.7 75.75 67.9 75.0 68.1 74.25 68.25 73.3 68.45 72.3 68.55 71.3 68.65 70.3 68.7 69.35 68.75 68.45 68.75 67.55 68.75 66.7 68.7 65.85 68.65 65.05 68.55 64.25 68.5 63.55 68.4 62.8 68.3 62.2 68.2 61.5 68.15 61.05 68.0 60.35 67.9 59.7 67.75 59.0 67.6 58.4 67.45 57.7 67.3 57.1 67.1 56.4 66.9 55.75 66.65 55.05 66.45 54.35 66.15 53.55 65.9 52.85 65.6 51.95 65.3 51.2 64.95 50.2 64.65 49.5 64.2 48.2 63.55 46.55 62.95 45.0 62.45 43.7 61.9 42.4 61.5 41.6 60.95 40.3 60.4 39.05 60.2 38.55 59.85 37.7 59.6 37.0 59.3 36.25 59.05 35.5 58.8 34.75 58.6 33.95 58.4 33.1 58.2 32.1 58.05 31.3 57.95 30.55 57.85 29.8 57.8 29.1 57.7 28.4 57.7 27.7 57.65 27.05 57.6 26.4 57.6 25.8 57.6 25.2 57.6 24.65 57.65 24.1 57.65 23.65 57.65 23.1 57.7 22.7 57.7 22.15 57.75 20.95 57.9 19.9 58.0 18.85 58.15 17.85 58.3 16.9 58.55 15.85 58.75 14.95 59.05 13.8 59.3 12.9 59.7 11.55 58.7 15.1 60.45 8.9 60.9 7.2 61.3 5.75 61.8 3.9 62.3 2.0 63.95 -4.5 64.45 -6.7 65.25 -10.05 65.35 -12.05 65.45 -13.15 65.45 -14.2 65.45 -15.25 65.45 -16.3 65.4 -17.3 65.3 -18.35 65.2 -19.35 65.05 -20.45 64.9 -21.45 64.7 -22.6 64.5 -23.7 64.25 -25.0 64.05 -26.1 63.7 -27.6 63.5 -28.5 63.05 -30.5 62.15 -34.7 61.5 -37.45 61.2 -36.45 60.7 -34.95 60.8 -35.3 60.85 -35.6 60.95 -35.95 61.0 -36.3 61.1 -36.65 61.15 -37.0 61.25 -37.35 61.3 -37.7 61.35 -38.1 61.45 -38.45 61.5 -38.85 61.55 -39.25 61.6 -39.65 61.65 -40.0 61.65 -40.45 61.7 -40.85 61.7 -40.95 61.7 -41.1 61.75 -41.2 61.75 -41.35 61.75 -41.45 61.75 -41.6 61.75 -41.7 61.75 -41.85 61.75 -41.95 61.75 -42.05 61.8 -42.2 61.8 -42.3 61.8 -42.4 61.8 -42.55 61.8 -42.65 61.8 -42.8 60.85 -42.95 58.95 -43.25 58.35 -43.95 57.15 -45.45 61.8 -47.85 62.6 -48.15 62.6 -48.15 62.65 -48.2 62.75 -48.2 62.75 -48.25 62.8 -48.25 62.85 -48.3 62.9 -48.3 62.95 -48.35 63.05 -48.4 63.1 -48.45 63.15 -48.5 63.2 -48.55 63.25 -48.6 63.3 -48.65 63.35 -48.75 63.4 -48.8 63.45 -48.85 63.45 -48.9 63.45 -48.95 63.5 -49.0 63.5 -49.1 63.5 -49.15 63.5 -49.2 63.5 -49.25 63.5 -49.3 63.5 -49.35 63.5 -49.4 63.5 -49.45 63.5 -49.5 63.5 -49.6 63.5 -49.65 63.5 -49.7 63.5 -49.75 63.5 -49.85 63.45 -49.9 63.45 -49.95 63.45 -50.05 63.45 -50.1 63.4 -50.2 63.4 -50.3 63.35 -50.4 63.35 -50.45 63.3 -50.55 63.25 -50.65 63.2 -50.75 63.15 -50.85 63.15 -50.95 63.05 -51.1 63.05 -51.15 63.0 -51.25 63.0 -51.35 63.0 -51.5 62.95 -51.65 62.9 -51.8 62.85 -51.95 62.8 -52.1 62.75 -52.3 62.65 -52.45 62.6 -52.65 62.5 -52.8 62.4 -53.0 62.3 -53.15 62.2 -53.3 62.05 -53.4 61.85 -53.6 61.4 -53.95 60.8 -54.45 60.65 -54.45 60.55 -54.45 60.45 -54.45 60.35 -54.4 60.3 -54.35 60.2 -54.3 60.1 -54.2 60.0 -54.1 59.9 -54.0 59.85 -53.9 59.7 -53.7 59.55 -53.5 59.45 -53.4 59.3 -53.25 59.2 -53.1 59.05 -52.9 58.85 -52.75 58.75 -52.65 58.7 -52.6 58.6 -52.5 58.55 -52.45 58.45 -52.35 58.4 -52.3 58.3 -52.25 58.25 -52.2 58.15 -52.1 58.1 -52.05 58.0 -52.0 57.95 -51.95 57.9 -51.9 57.85 -51.9 57.75 -51.85 57.7 -51.8 57.65 -51.7 57.55 -51.65 57.5 -51.55 57.4 -51.45 57.35 -51.4 57.25 -51.3 57.15 -51.25 57.1 -51.2 57.0 -51.1 56.9 -51.05 56.8 -51.0 56.75 -51.0 56.65 -50.95 56.55 -50.95 56.45 -50.95 56.35 -50.95 56.25 -50.95 56.2 -51.0 56.1 -51.05 56.05 -51.1 56.0 -51.15 55.9 -51.2 55.85 -51.3 55.8 -51.35 55.75 -51.45 55.65 -51.55 55.6 -51.65 55.55 -51.75 58.05 -47.55 55.4 -52.0 55.3 -52.1 55.25 -52.25 55.15 -52.4 55.05 -52.5 55.0 -52.65 54.9 -52.7 54.85 -52.8 54.75 -52.9 54.7 -52.95 54.6 -53.1 54.4 -53.25 54.4 -53.3 54.25 -53.4 54.15 -53.55 54.0 -53.7 53.85 -53.9 53.65 -54.1 53.45 -54.35 52.05 -56.1 47.85 -61.65 47.35 -62.35 46.75 -63.0 46.2 -63.65 45.65 -64.25 45.05 -64.8 44.45 -65.4 43.85 -65.9 43.2 -66.45 42.55 -66.95 41.85 -67.5 41.2 -68.0 40.45 -68.6 39.85 -69.0 38.9 -69.7 37.5 -70.7 37.3 -70.85 36.05 -71.75 35.3 -72.3 34.0 -73.2 32.8 -74.0 31.3 -75.0 29.85 -75.85 28.15 -76.9 26.4 -77.8 24.5 -78.8 22.55 -79.65 20.4 -80.65 18.2 -81.45 15.85 -82.3 13.4 -83.0 10.8 -83.7 8.2 -84.25 7.05 -84.45 6.2 -84.6 4.85 -84.85 3.55 -85.0 1.95 -85.2 0.4 -85.3 -1.45 -85.45 -3.2 -85.5 -5.2 -85.5 -7.1 -85.35 -9.15 -85.2 -11.1 -84.9 -13.2 -84.5 -15.1 -83.9 -17.15 -83.25 -18.95 -82.35 -19.45 -82.1 -19.8 -81.9 -20.35 -81.65 -20.8 -81.4 -21.35 -81.05 -21.85 -80.75 -22.45 -80.35 -23.0 -79.95 -23.6 -79.5 -24.1 -79.0 -24.7 -78.5 -25.25 -77.9 -25.8 -77.3 -26.3 -76.6 -26.85 -75.9 -27.3 -75.1 -27.6 -74.6 -27.85 -74.1 -28.1 -73.65 -28.3 -73.15 -28.5 -72.7 -28.65 -72.2 -28.8 -71.8 -28.95 -71.35 -29.05 -70.9 -29.15 -70.5 -29.25 -70.1 -29.3 -69.7 -29.4 -69.3 -29.45 -68.95 -29.5 -68.65 -29.5 -68.3 -30.0 -68.35 -30.5 -68.35 -31.1 -68.35 -31.65 -68.35 -32.3 -68.3 -32.95 -68.25 -33.65 -68.2 -34.3 -68.1 -35.05 -68.0 -35.8 -67.9 -36.55 -67.7 -37.35 -67.5 -38.15 -67.3 -38.95 -67.0 -39.8 -66.7 -40.6 -66.35 -41.8 -65.8 -42.9 -65.15 -43.95 -64.55 -44.95 -63.8 -45.85 -63.1 -46.75 -62.3 -47.5 -61.55 -48.3 -60.75 -48.95 -60.0 -49.6 -59.15 -50.2 -58.4 -50.8 -57.55 -51.25 -56.85 -51.8 -56.05 -52.15 -55.45 -52.65 -54.6 -53.45 -53.3 -54.15 -51.95 -54.8 -50.7 -55.35 -49.35 -55.85 -48.1 -56.25 -46.85 -56.65 -45.65 -57.0 -44.35 -57.3 -43.2 -57.55 -42.0 -57.75 -40.9 -57.95 -39.7 -58.1 -38.7 -58.3 -37.5 -58.35 -36.75 -58.55 -35.4 -58.7 -34.3 -58.75 -33.55 -58.9 -32.35 -58.95 -31.25 -59.05 -29.9 -59.1 -28.6 -59.15 -27.1 -59.15 -25.65 -59.1 -24.0 -58.95 -22.4 -58.85 -20.65 -58.6 -18.9 -58.3 -17.05 -57.9 -15.25 -57.45 -13.25 -56.85 -11.4 -56.6 -10.6 -56.4 -10.0 -56.15 -9.4 -55.95 -8.85 -55.75 -8.4 -55.5 -7.8 -55.35 -7.55 -54.95 -6.7 -54.6 -5.95 -54.35 -5.35 -53.95 -4.5 -53.6 -3.6 -53.1 -2.55 -52.6 -1.3 -52.05 0.15 -51.4 1.8 -50.65 3.7 -50.35 4.55 -49.8 5.95 -49.45 7.0 -49.0 8.2 -48.65 9.15 -48.25 10.2 -47.95 11.05 -47.65 11.95 -47.45 12.75 -47.2 13.6 -47.0 14.3 -46.8 15.05 -46.7 15.75 -46.55 16.45 -46.45 17.15 -46.3 18.5 -46.25 19.85 -46.2 21.15 -46.25 22.45 -46.3 23.7 -46.4 24.9 -46.55 26.1 -46.75 27.3 -46.95 28.35 -47.2 29.55 -47.45 30.55 -47.75 31.7 -48.0 32.65 -48.35 33.75 -48.55 34.45 -48.95 35.75 -49.5 37.6 -50.1 39.15 -50.6 40.55 -51.15 41.8 -51.65 42.8 -52.2 43.8 -52.55 44.45 -53.15 45.45 -53.75 46.5 -54.0 46.95 -54.5 47.8 -54.8 48.55 -55.2 49.45 -55.55 50.45 -55.9 51.55 -56.15 52.9 -56.55 54.8 -56.75 56.75 -56.9 58.6 -56.85 60.45 -56.85 62.15 -56.65 63.9 -56.45 65.5 -56.15 67.1 -55.9 68.5 -55.5 69.95 -55.2 71.2 -54.8 72.45 -54.5 73.4 -54.1 74.45 -53.9 75.05 -53.5 76.05 -52.85 77.8 -52.15 79.2 -51.5 80.45 -50.85 81.55 -50.25 82.45 -49.55 83.35 -49.15 83.9 -48.35 84.85 -47.55 85.8 -47.15 86.3 -46.5 87.15 -45.95 87.95 -45.35 88.95 -44.8 90.1 -44.2 91.4 -43.65 92.95 -43.5 93.35 -43.35 93.85 -43.1 94.75 -42.85 95.75 -42.5 97.05 -42.25 98.45 -41.95 100.15 -41.75 101.9 -41.5 103.9 -41.45 105.9 -41.35 108.15 -41.5 110.3 -41.65 112.75 -42.05 115.1 -42.5 117.65 -43.25 120.05 -44.55 124.25 -47.5 130.9 -47.9 131.8 -48.25 132.6 -48.6 133.35 -48.95 134.05 -49.2 134.6 -49.55 135.3 -50.0 136.3 -50.05 136.45 -50.35 137.05 -50.6 137.55 -50.85 138.15 -51.1 138.7 -51.35 139.3 -51.6 139.95 -51.9 140.6 -52.15 141.4 -52.45 142.25 -52.75 143.05 -53.0 143.85 -53.25 144.65 -53.5 145.35 -53.7 146.1 -53.9 146.75 -54.1 147.45 -54.25 148.05 -54.45 148.65 -54.55 149.2 -54.7 149.7 -54.8 150.15 -54.9 150.6 -55.0 151.0 -55.05 151.35 -55.25 152.25 -55.4 153.15 -55.55 154.0 -55.7 154.9 -55.85 155.75 -55.95 156.6 -56.05 157.4 -56.15 158.25 -56.2 159.0 -56.3 159.8 -56.35 160.6 -56.4 161.35 -56.45 162.05 -56.45 162.8 -56.5 163.5 -56.5 164.2 -56.45 164.3 -56.35 164.45 -56.3 164.6 -56.25 164.7 -56.15 164.85 -56.05 165.0 -55.95 165.15 -55.85 165.3 -55.75 165.45 -55.65 165.65 -55.55 165.8 -55.45 165.95 -55.3 166.15 -55.15 166.3 -55.05 166.5 -54.9 166.65 -54.35 167.35 -53.7 167.95 -53.1 168.5 -52.4 168.95 -51.8 169.4 -51.15 169.8 -50.5 170.15 -49.85 170.45 -49.3 170.7 -48.65 170.95 -48.15 171.1 -47.55 171.3 -47.1 171.4 -46.6 171.5 -46.3 171.6 -45.85 171.7 -45.45 171.8 -45.25 171.8 -44.9 171.9 -44.6 171.95 -44.3 172.0 -44.0 172.0 -43.65 172.05 -43.3 172.05 -43.0 172.1 -42.65 172.05 -42.3 172.05 -41.95 172.0 -41.6 171.95 -41.25 171.9 -40.85 171.8 -40.5 171.7 -40.25 171.6 -40.05 171.55 -39.85 171.45 -39.65 171.35 -39.45 171.25 -39.25 171.15 -39.05 171.05 -38.9 170.95 -38.7 170.85 -38.55 170.75 -38.4 170.65 -38.25 170.55 -38.15 170.45 -38.0 170.35 -37.9 170.25 -37.8 170.15 -37.95 170.05 -38.1 170.0 -38.3 169.9 -38.45 169.8 -38.65 169.65 -38.85 169.55 -39.05 169.4 -39.25 169.25 -39.5 169.1 -39.7 168.95 -39.9 168.75 -40.15 168.55 -40.35 168.35 -40.55 168.15 -40.8 167.95 -41.0 167.7 -41.25 167.4 -41.5 167.15 -41.7 166.85 -41.9 166.55 -42.1 166.3 -42.25 166.0 -42.4 165.75 -42.55 165.45 -42.7 165.2 -42.8 164.95 -42.9 164.75 -43.0 164.5 -43.1 164.3 -43.2 164.05 -43.25 163.9 -43.3 163.7 -43.5 163.1 -43.7 162.45 -43.85 161.85 -44.0 161.25 -44.15 160.7 -44.25 160.15 -44.35 159.6 -44.45 159.1 -44.5 158.6 -44.55 158.1 -44.65 157.65 -44.65 157.2 -44.7 156.8 -44.75 156.35 -44.75 156.0 -44.75 155.6 -44.8 154.3 -44.7 153.0 -44.6 151.75 -44.4 150.45 -44.2 149.25 -43.9 148.0 -43.6 146.85 -43.2 145.6 -42.85 144.5 -42.4 143.25 -42.0 142.15 -41.45 140.9 -41.05 139.85 -40.45 138.55 -40.1 137.8 -39.4 136.2 -39.15 135.6 -38.9 135.05 -38.65 134.6 -38.45 134.15 -38.3 133.85 -38.05 133.35 -37.8 132.85 -37.7 132.7 -37.55 132.35 -37.4 132.05 -37.25 131.7 -37.1 131.35 -36.95 131.0 -36.75 130.6 -36.6 130.15 -36.4 129.65 -36.25 129.25 -36.25 129.2 -36.1 128.8 -36.0 128.45 -35.85 127.95 -35.7 127.45 -35.55 126.85 -35.35 126.2 -35.15 125.45 -35.0 124.65 -34.8 123.8 -34.6 122.9 -34.4 121.85 -34.2 120.8 -34.05 119.7 -33.85 118.5 -33.6 116.75 -33.5 116.0 -33.35 114.7 -33.25 113.75 -33.1 112.65 -33.0 111.75 -32.9 110.7 -32.85 109.85 -32.85 108.9 -32.85 108.05 -32.85 107.15 -32.9 106.3 -32.95 105.4 -33.1 104.55 -33.25 103.65 -33.45 102.75 -33.8 101.05 -36.75 93.9 -37.45 92.2 -38.15 90.65 -38.45 89.95 -39.2 88.25 -39.85 86.9 -40.25 85.9 -40.85 84.5 -41.5 82.85 -41.95 81.7 -42.35 80.65 -42.7 79.7 -43.0 78.85 -43.3 78.0 -43.5 77.3 -43.75 76.65 -43.9 76.05 -44.05 75.5 -44.15 75.05 -44.3 74.65 -44.35 74.25 -44.4 73.95 -44.45 73.65 -44.5 73.45 -44.55 73.2 -44.65 72.65 -44.7 72.1 -44.75 71.6 -44.8 71.1 -44.8 70.6 -44.85 70.1 -44.85 69.65 -44.85 69.15 -44.85 68.7 -44.85 68.25 -44.85 67.8 -44.85 67.3 -44.8 66.95 -44.8 66.4 -44.8 66.5 -44.75 65.5 -44.75 64.9 -44.7 64.35 -44.65 63.75 -44.6 63.15 -44.55 62.5 -44.45 61.85 -44.35 61.15 -44.25 60.4 -44.1 59.65 -43.95 58.8 -43.8 57.9 -43.6 56.95 -43.4 55.95 -43.15 54.85 -42.95 53.75 -42.65 52.5 -41.8 48.95 -41.05 46.5 -31.25 13.75 -40.05 43.15 -39.5 41.35 -38.95 38.9 -38.8 38.1 -38.65 37.35 -38.5 36.55 -38.35 35.7 -38.2 34.85 -38.05 34.0 -37.95 33.05 -37.8 32.15 -37.7 31.2 -37.6 30.25 -37.45 29.25 -37.4 28.25 -37.3 27.2 -37.2 26.2 -37.15 25.1 -37.1 24.05 -36.85 18.25 -37.25 15.45 -37.5 13.95 -40.45 4.2 -40.8 3.1 -40.95 2.6 -41.2 1.75 -41.35 1.2 -41.55 0.5 -41.75 -0.05 -41.9 -0.65 -42.0 -1.15 -42.15 -1.7 -42.25 -2.2 -42.4 -2.7 -42.45 -3.15 -42.55 -3.65 -42.65 -4.15 -42.7 -4.65 -42.75 -5.2 -42.8 -5.6 -42.85 -6.0 -42.85 -6.4 -42.9 -6.8 -42.9 -7.15 -42.9 -7.5 -42.95 -7.85 -42.95 -8.2 -42.95 -8.5 -42.95 -8.85 -42.95 -9.1 -42.95 -9.45 -42.95 -9.7 -42.95 -10.0 -42.95 -10.2 -42.95 -10.5 -42.9 -11.7 -42.85 -12.7 -42.75 -13.6 -42.55 -14.8 -42.45 -15.65 -42.15 -17.55 -41.75 -20.2 -41.5 -21.55 -41.2 -23.7 -40.45 -27.85 -39.75 -32.1 -39.45 -34.15 -39.35 -34.7 -39.35 -34.7 -39.3 -35.0 -39.3 -35.2 -39.25 -35.45 -39.2 -35.7 -39.15 -35.95 -39.1 -36.2 -39.05 -36.45 -38.95 -36.7 -38.9 -36.95 -38.8 -37.2 -38.75 -37.45 -38.65 -37.7 -38.55 -38.0 -38.4 -38.25 -38.2 -38.75 -37.95 -39.25 -37.7 -39.7 -37.45 -40.15 -37.15 -40.55 -36.85 -40.95 -36.6 -41.35 -36.25 -41.7 -35.95 -42.05 -35.6 -42.4 -35.3 -42.75 -34.9 -43.1 -34.6 -43.4 -34.2 -43.75 -33.9 -44.0 -33.45 -44.45 -32.9 -44.9 -32.7 -45.1 -32.25 -45.5 -31.85 -45.8 -31.4 -46.2 -30.95 -46.5 -30.5 -46.9 -30.0 -47.2 -29.45 -47.6 -28.95 -47.9 -28.35 -48.25 -27.75 -48.55 -27.15 -48.85 -26.45 -49.15 -25.8 -49.45 -25.05 -49.65 -24.6 -49.8 -24.1 -49.95 -23.7 -50.05 -23.2 -50.15 -22.8 -50.25 -22.35 -50.35 -21.95 -50.45 -21.55 -50.5 -21.15 -50.55 -20.8 -50.6 -20.4 -50.6 -20.05 -50.65 -19.75 -50.65 -19.4 -50.7 -19.1 -50.7 -18.8 -50.7 -19.5 -51.35 -21.0 -52.65 -20.0 -52.5 -18.95 -52.35 -18.4 -52.25 -17.85 -52.2 -17.3 -52.1 -16.8 -52.0 -16.25 -51.9 -15.7 -51.85 -15.15 -51.75 -14.65 -51.65 -14.1 -51.55 -13.55 -51.45 -13.05 -51.35 -12.5 -51.25 -12.0 -51.15 -11.45 -51.05 -10.95 -50.95 -10.4 -50.85 -10.4 -51.3 -10.35 -52.2 -9.6 -52.1 -8.6 -51.95 -8.25 -51.9 -7.7 -51.9 -6.9 -51.8 -6.8 -51.8 -6.6 -52.0 -6.45 -52.15 -6.25 -52.35 -6.05 -52.5 -5.85 -52.7 -5.65 -52.9 -5.45 -53.1 -5.25 -53.25 -5.0 -53.45 -4.8 -53.65 -4.6 -53.85 -4.35 -54.0 -4.1 -54.2 -3.9 -54.4 -3.65 -54.6 -3.4 -54.8 -3.15 -55.0 -2.85 -55.2 -2.6 -55.4 -2.35 -55.6 -2.05 -55.75 -1.8 -55.95 -1.55 -56.15 -1.3 -56.3 -1.05 -56.45 -0.75 -56.65 -0.5 -56.8 -0.25 -56.95 -0.05 -57.1 0.2 -57.25 0.45 -57.4 0.7 -57.5 0.4 -56.35 -0.15 -54.0 0.15 -54.2 0.5 -54.35 0.85 -54.55 1.2 -54.75 1.55 -54.9 1.95 -55.1 2.3 -55.3 2.7 -55.45 3.1 -55.65 3.5 -55.8 3.95 -56.0 4.4 -56.15 4.85 -56.35 5.3 -56.5 5.75 -56.65 6.2 -56.8 6.6 -56.95 7.0 -57.05 7.4 -57.2 7.8 -57.3 8.15 -57.4 8.55 -57.5 8.9 -57.6 9.3 -57.65 9.65 -57.75 10.0 -57.85 10.35 -57.9 10.7 -57.95 11.05 -58.05 11.35 -58.1 11.7 -58.15 12.0 -58.2 11.25 -57.2 9.7 -55.2 9.85 -55.25 10.05 -55.3 10.2 -55.3 10.35 -55.35 10.55 -55.4 10.7 -55.45 10.9 -55.45 11.05 -55.5 11.25 -55.55 11.45 -55.55 11.65 -55.6 11.8 -55.6 12.0 -55.65 12.2 -55.65 12.4 -55.7 12.6 -55.7 13.0 -55.75 13.45 -55.75 13.85 -55.8 14.25 -55.8 14.65 -55.8 15.05 -55.8 15.4 -55.8 15.8 -55.8 16.15 -55.75 16.5 -55.75 16.85 -55.7 17.15 -55.65 17.5 -55.6 17.8 -55.55 18.1 -55.5 18.4 -55.45 17.55 -53.9 15.9 -50.8 16.4 -50.85 16.9 -50.9 17.45 -50.95 18.0 -50.95 18.6 -51.0 19.15 -51.0 19.8 -50.95 20.45 -50.95 21.15 -50.9 21.85 -50.8 22.55 -50.75 23.25 -50.6 24.0 -50.45 24.75 -50.3 25.55 -50.1 26.3 -49.85 27.35 -49.5 28.35 -49.05 29.3 -48.65 30.25 -48.1 31.1 -47.6 31.95 -47.0 32.8 -46.4 33.6 -45.7 34.35 -45.05 35.2 -44.25 35.95 -43.55 36.8 -42.65 37.5 -41.9 38.45 -40.9 39.0 -40.25 40.2 -38.95 41.15 -37.85 41.6 -37.35 42.4 -36.5 43.0 -35.75 43.7 -34.9 44.35 -34.15 45.0 -33.25 45.6 -32.4 46.25 -31.5 46.85 -30.6 47.45 -29.65 48.0 -28.65 48.55 -27.6 49.05 -26.55 49.55 -25.4 49.95 -24.25 50.15 -23.65 50.35 -23.05 50.5 -22.45 50.7 -21.8 50.85 -21.2 51.0 -20.45 51.1 -19.8 51.25 -19.0 51.4 -18.2 51.5 -17.3 51.65 -16.45 51.8 -15.4 51.9 -14.5 52.05 -13.3 52.15 -12.55 52.35 -10.85 52.6 -8.85 52.7 -7.95 52.9 -6.45 53.0 -5.35 53.15 -4.1 53.25 -3.05 53.4 -1.95 53.45 -0.95 53.55 0.05 53.6 0.95 53.7 1.9 53.7 2.75 53.75 3.65 53.75 4.5 53.75 5.35 53.7 6.25 53.65 8.1 53.45 9.75 53.3 11.25 53.05 12.6 52.85 13.75 52.55 15.0 52.4 15.7 52.05 17.1 51.7 18.45 51.5 19.2 51.25 20.4 51.05 21.45 50.85 22.75 50.75 24.1 50.65 25.6 50.65 27.35 50.65 28.25 50.7 29.15 50.7 30.0 50.8 30.8 50.85 31.65 50.95 32.5 51.05 33.3 51.2 34.2 51.3 35.0 51.5 35.95 51.65 36.85 51.85 37.9 52.0 38.8 52.3 40.0 52.45 40.75 52.75 42.4 53.2 44.5 53.65 46.35 54.05 48.0 54.5 49.55 54.85 50.75 55.3 52.1 55.5 52.75 56.05 54.35 56.5 55.7 56.75 56.5 57.1 57.65 57.4 58.75 57.75 60.05 58.05 61.45 58.35 62.95 58.65 64.7 58.9 66.15 59.0 67.0 59.2 68.25 59.35 69.25 59.5 70.4 59.55 71.45 59.7 72.6 59.7 73.65 59.75 74.75 59.75 75.85 59.7 76.95 59.6 78.05 59.5 79.2 59.3 80.35 59.1 81.55 58.8 82.75 58.65 83.45 58.45 84.05 58.3 84.55 58.1 85.05 57.95 85.45 57.75 85.9 57.65 86.1 57.4 86.75 57.15 87.3 57.0 87.7 56.75 88.25 56.55 88.85 56.3 89.55 56.0 90.35 55.7 91.2 55.4 92.3 55.0 93.75 54.6 95.25 54.3 96.6 54.0 97.95 53.75 99.15 53.55 100.4 53.35 101.5 53.2 102.6 53.05 103.55 52.95 104.45 52.85 105.25 52.8 106.05 52.75 106.65 52.75 107.2 52.7 107.6 52.7 108.05 52.7 108.55 52.65 108.9 52.65 109.4 52.65 109.85 52.6 110.4 52.6 110.95 52.6 111.5 52.65 112.1 52.65 112.75 52.7 113.4 52.7 114.1 52.75 114.75 52.85 115.5 52.9 116.25 53.0 117.05 53.1 117.8 53.2 118.5 53.3 119.1 53.45 119.75 53.6 120.4 53.7 121.0 53.9 121.65 54.05 122.3 54.3 123.05 54.5 123.75 54.8 124.65 55.05 125.45 55.4 126.5 55.75 127.4 56.2 128.7 56.45 129.45 57.1 131.35 60.85 141.9 62.65 148.2 62.95 149.25 63.2 150.1 63.45 151.1 63.65 151.95 63.9 152.9 64.05 153.75 64.25 154.7 64.35 155.5 64.45 156.4 64.5 157.15 64.5 157.95 64.45 158.65 64.35 159.4 64.2 160.0 64.0 160.6 63.65 161.15 63.3 161.75 62.4 163.55 61.65 165.1 61.05 165.9 61.3 165.55 60.85 166.15 60.75 166.3 60.65 166.45 60.55 166.55 60.5 166.7 60.4 166.8 60.35 166.9 60.25 167.05 60.2 167.15 60.15 167.3 60.15 167.4 60.15 167.5 60.15 167.65 60.15 167.75 60.2 167.85 60.25 168.0 60.35 168.15 60.45 168.3 60.6 168.4 60.75 168.5 60.95 168.6 61.15 168.65 61.35 168.75 61.55 168.8 61.8 168.85 62.0 168.9 62.25 168.95 62.45 168.95 62.65 169.0 62.8 169.0 63.05 169.05 63.4 169.1 63.55 169.1 63.85 169.15 64.1 169.15 64.4 169.2 64.65 169.2 64.95 169.2 65.25 169.15 65.55 169.15 65.85 169.1 66.2 169.05 66.5 168.95 66.8 168.9 67.1 168.75 67.45 168.65 67.75 168.45 67.95 168.35 68.1 168.2 68.3 168.1 68.45 167.95 68.6 167.8 68.75 167.65 68.9 167.5 69.1 167.3 69.25 167.1 69.4 166.85 69.55 166.65 69.75 166.4 69.9 166.15 70.15 165.85 70.3 165.6 70.55 165.2 70.8 164.85 71.0 164.5 71.25 164.15 71.45 163.8 71.65 163.5 71.85 163.2 72.0 162.9 72.15 162.6 72.3 162.35 72.45 162.1 72.55 161.9 72.65 161.7 72.75 161.5 72.85 161.35 72.9 161.25 72.95 161.15 73.35 160.3 73.45 159.15 73.55 158.05 73.4 156.7 73.25 155.5 72.95 154.05 72.7 152.75 72.25 151.3 71.9 150.0 71.4 148.65 71.0 147.5 70.55 146.3 70.2 145.4 69.8 144.45 69.6 144.05 69.3 143.25 L69.3 143.25" fill="#54c2be" fill-rule="evenodd" stroke="none"/>
  </g>
</svg>
