<?xml version="1.0" encoding="UTF-8" standalone="no"?>
<svg xmlns:xlink="http://www.w3.org/1999/xlink" height="200.0px" width="200.0px" xmlns="http://www.w3.org/2000/svg">
  <g transform="matrix(1.0, 0.0, 0.0, 1.0, 100.0, 100.0)">
    <path d="M35.7 -11.7 Q35.65 -11.7 35.6 -11.7 35.55 -11.7 35.5 -11.7 35.4 -11.7 35.35 -11.7 35.3 -11.7 35.25 -11.7 35.2 -11.7 35.15 -11.65 35.1 -11.65 35.05 -11.65 35.0 -11.6 34.9 -11.6 34.85 -11.6 34.8 -11.55 34.4 -11.4 34.0 -11.3 33.65 -11.2 33.25 -11.1 32.85 -11.0 32.45 -10.9 32.05 -10.8 31.65 -10.75 31.25 -10.7 30.85 -10.65 30.45 -10.6 30.05 -10.6 29.65 -10.55 29.2 -10.55 28.8 -10.55 28.4 -10.55 28.0 -10.55 27.55 -10.6 27.15 -10.6 26.7 -10.65 26.3 -10.65 25.9 -10.7 25.45 -10.75 25.05 -10.8 24.65 -10.85 24.2 -10.95 23.8 -11.0 23.4 -11.1 23.0 -11.15 22.55 -11.25 22.15 -11.35 21.75 -11.45 21.25 -11.6 20.8 -11.7 20.3 -11.85 19.85 -12.05 19.35 -12.2 18.9 -12.4 18.45 -12.55 18.0 -12.75 17.55 -13.0 17.1 -13.2 16.65 -13.45 16.25 -13.7 15.8 -13.95 15.4 -14.25 15.0 -14.55 14.6 -14.85 14.35 -15.05 14.1 -15.25 13.85 -15.45 13.6 -15.65 13.35 -15.85 13.15 -16.05 12.9 -16.3 12.7 -16.5 12.45 -16.75 12.25 -16.95 12.05 -17.2 11.85 -17.45 11.65 -17.7 11.45 -17.95 11.25 -18.2 11.05 -18.45 11.0 -18.45 11.0 -18.5 10.95 -18.5 10.95 -18.55 10.9 -18.55 10.85 -18.6 10.85 -18.65 10.8 -18.65 10.75 -18.7 10.75 -18.7 10.7 -18.75 10.7 -18.8 10.7 -18.85 10.65 -18.85 10.65 -18.9 10.65 -18.95 10.65 -19.0 10.65 -19.05 10.7 -19.05 10.7 -19.05 10.75 -19.0 10.75 -19.0 10.8 -19.0 10.85 -19.0 10.85 -18.95 10.9 -18.95 10.9 -18.95 10.9 -18.9 10.95 -18.9 10.95 -18.85 11.0 -18.8 11.0 -18.8 11.0 -18.75 11.05 -18.75 11.05 -18.7 11.1 -18.7 11.1 -18.65 11.15 -18.6 11.15 -18.6 11.2 -18.55 11.55 -18.3 12.3 -17.8 12.65 -17.55 12.95 -17.35 13.3 -17.1 13.65 -16.85 14.0 -16.65 14.35 -16.45 14.7 -16.2 15.05 -16.0 15.4 -15.8 15.75 -15.6 16.1 -15.4 16.5 -15.15 16.8 -15.0 17.2 -14.75 17.55 -14.6 17.9 -14.4 18.45 -14.05 19.3 -13.7 19.35 -13.65 19.45 -13.65 19.5 -13.6 19.6 -13.6 19.65 -13.55 19.75 -13.55 19.8 -13.5 19.9 -13.5 19.95 -13.5 20.05 -13.5 20.15 -13.45 20.2 -13.45 20.3 -13.45 20.35 -13.45 20.45 -13.45 20.5 -13.45 20.55 -13.45 20.6 -13.45 20.65 -13.5 20.7 -13.5 20.75 -13.55 20.8 -13.55 20.8 -13.6 20.85 -13.6 20.85 -13.65 20.85 -13.7 20.85 -13.75 20.85 -13.8 20.85 -13.85 20.85 -13.85 20.85 -13.9 20.8 -13.95 20.8 -14.0 20.75 -14.05 20.75 -14.05 20.7 -14.1 20.65 -14.15 20.65 -14.2 20.6 -14.2 20.55 -14.25 20.55 -14.25 20.5 -14.3 20.4 -14.4 20.3 -14.5 20.15 -14.6 20.05 -14.7 19.95 -14.8 19.85 -14.9 19.75 -15.05 19.65 -15.15 19.55 -15.25 19.45 -15.35 19.3 -15.45 19.2 -15.55 19.1 -15.7 19.0 -15.8 18.9 -15.9 18.85 -16.0 18.05 -16.9 17.3 -17.85 16.55 -18.75 15.8 -19.7 15.05 -20.6 14.3 -21.55 13.55 -22.5 12.85 -23.45 12.1 -24.4 11.4 -25.35 10.7 -26.35 10.0 -27.3 9.3 -28.25 8.6 -29.25 7.95 -30.25 7.25 -31.2 4.65 -35.05 3.25 -36.9 2.95 -37.3 2.6 -37.7 2.3 -38.15 2.0 -38.55 1.65 -38.95 1.3 -39.35 1.0 -39.75 0.65 -40.1 0.3 -40.5 -0.05 -40.9 -0.4 -41.3 -0.75 -41.65 -1.15 -42.05 -1.5 -42.4 -1.85 -42.75 -2.25 -43.1 -2.6 -43.45 -2.95 -43.75 -3.35 -44.05 -3.7 -44.35 -4.05 -44.65 -4.45 -44.95 -4.85 -45.25 -5.25 -45.5 -5.65 -45.75 -6.05 -46.0 -6.45 -46.25 -6.85 -46.5 -7.25 -46.75 -7.7 -46.95 -8.15 -47.15 -8.55 -47.35 -8.7 -47.45 -8.6 -47.4 -8.65 -47.4 -8.7 -47.4 -8.75 -47.45 -8.75 -47.45 -8.8 -47.45 -8.85 -47.5 -8.9 -47.5 -8.9 -47.5 -8.95 -47.5 -9.0 -47.5 -9.0 -47.55 -9.05 -47.55 -9.1 -47.55 -9.15 -47.55 -9.65 -47.45 -9.25 -47.55 -9.3 -47.5 -9.35 -47.5 -9.4 -47.5 -9.4 -47.45 -9.45 -47.45 -9.45 -47.4 -9.45 -47.35 -9.5 -47.3 -9.5 -47.25 -9.55 -47.25 -9.55 -47.2 -9.6 -47.2 -9.6 -47.15 -9.65 -47.15 -9.65 -47.15 -9.7 -47.15 -9.75 -47.15 -9.75 -47.15 -9.8 -47.15 -9.85 -47.15 -9.9 -47.15 -9.9 -47.15 -10.0 -47.2 -10.05 -47.2 -10.15 -47.25 -10.25 -47.25 -10.35 -47.3 -10.4 -47.3 -10.5 -47.35 -10.6 -47.35 -10.7 -47.35 -10.75 -47.4 -10.85 -47.4 -10.95 -47.4 -11.05 -47.4 -11.1 -47.4 -11.2 -47.45 -11.3 -47.45 -11.35 -47.45 -11.4 -47.45 -11.45 -47.45 -11.5 -47.5 -11.5 -47.5 -11.55 -47.5 -11.6 -47.55 -11.6 -47.6 -11.65 -47.6 -11.65 -47.65 -11.85 -47.9 -11.9 -48.0 -13.5 -50.15 -14.4 -51.2 -16.35 -53.5 -19.4 -56.5 -19.7 -56.8 -20.0 -57.05 -20.3 -57.35 -20.6 -57.6 -20.9 -57.85 -21.2 -58.1 -21.5 -58.35 -21.8 -58.6 -22.15 -58.85 -22.45 -59.1 -22.75 -59.35 -23.1 -59.6 -23.4 -59.8 -23.75 -60.05 -24.1 -60.25 -24.4 -60.5 -24.65 -60.65 -24.9 -60.8 -25.15 -60.9 -25.4 -61.0 -25.65 -61.1 -25.9 -61.2 -26.15 -61.25 -26.4 -61.3 -26.65 -61.35 -26.95 -61.4 -27.2 -61.4 -27.45 -61.45 -27.75 -61.45 -28.0 -61.4 -28.25 -61.4 -28.55 -61.35 -31.7 -60.9 -33.45 -60.85 -34.35 -60.8 -34.65 -60.85 -34.75 -60.85 -34.9 -60.85 -35.1 -60.9 -35.15 -60.9 -35.2 -60.9 -35.25 -60.9 -35.35 -60.9 -35.4 -60.9 -35.45 -60.9 -35.45 -60.85 -35.5 -60.85 -35.55 -60.85 -35.6 -60.8 -35.65 -60.75 -35.65 -60.75 -35.7 -60.7 -35.7 -60.65 -35.7 -60.6 -35.75 -60.55 -35.75 -60.5 -35.75 -60.5 -35.85 -60.4 -36.0 -60.45 -36.1 -60.45 -36.25 -60.5 -36.35 -60.55 -36.5 -60.55 -36.6 -60.6 -36.75 -60.6 -36.85 -60.65 -37.0 -60.65 -37.15 -60.65 -37.25 -60.7 -37.4 -60.7 -37.5 -60.7 -37.65 -60.7 -37.8 -60.7 -37.9 -60.7 -38.0 -60.7 -38.15 -60.7 -38.25 -60.7 -38.4 -60.7 -38.5 -60.7 -38.6 -60.7 -38.75 -60.75 -38.85 -60.75 -38.95 -60.8 -39.05 -60.85 -39.15 -60.85 -39.3 -60.9 -39.4 -60.95 -39.5 -61.0 -39.6 -61.05 -39.7 -61.1 -40.0 -61.25 -40.25 -61.4 -40.55 -61.55 -40.85 -61.7 -41.15 -61.85 -41.45 -62.0 -41.7 -62.15 -42.0 -62.3 -42.3 -62.4 -42.6 -62.55 -42.9 -62.65 -43.2 -62.8 -43.5 -62.9 -43.8 -63.0 -44.1 -63.1 -44.45 -63.2 -44.7 -63.3 -44.95 -63.35 -45.2 -63.45 -45.45 -63.5 -45.7 -63.5 -46.0 -63.55 -46.25 -63.6 -46.5 -63.6 -46.75 -63.6 -47.0 -63.6 -47.25 -63.55 -47.55 -63.55 -47.8 -63.5 -48.05 -63.45 -48.3 -63.4 -48.55 -63.35 -48.75 -63.3 -48.95 -63.25 -49.15 -63.2 -49.35 -63.1 -49.55 -63.05 -49.7 -62.95 -49.9 -62.85 -50.1 -62.75 -50.25 -62.65 -50.4 -62.55 -50.6 -62.45 -50.75 -62.3 -50.9 -62.2 -51.05 -62.05 -51.25 -61.95 -51.4 -61.8 -51.45 -61.75 -51.5 -61.7 -51.55 -61.7 -51.6 -61.65 -51.6 -61.6 -51.65 -61.6 -51.7 -61.55 -51.75 -61.55 -51.8 -61.5 -51.85 -61.5 -51.9 -61.5 -52.0 -61.5 -52.05 -61.45 -52.1 -61.45 -52.15 -61.45 -52.2 -61.45 -52.25 -61.45 -52.3 -61.45 -52.35 -61.45 -52.4 -61.45 -52.45 -61.5 -52.5 -61.5 -52.55 -61.5 -52.6 -61.55 -52.65 -61.55 -52.7 -61.55 -52.75 -61.6 -52.75 -61.6 -52.8 -61.65 -52.85 -61.65 -52.9 -61.7 -52.95 -61.7 -53.0 -61.75 -53.1 -61.8 -53.15 -61.85 -53.2 -61.9 -53.3 -61.95 -53.35 -62.0 -53.4 -62.05 -53.5 -62.05 -53.55 -62.1 -53.65 -62.15 -53.7 -62.2 -53.8 -62.2 -53.85 -62.25 -53.9 -62.3 -54.0 -62.3 -54.05 -62.35 -53.75 -62.0 -53.5 -61.6 -53.25 -61.25 -53.0 -60.85 -52.75 -60.45 -52.5 -60.05 -52.25 -59.65 -52.05 -59.2 -51.8 -58.85 -51.6 -58.4 -51.4 -58.0 -51.15 -57.55 -51.0 -57.2 -50.75 -56.75 -50.6 -56.35 -50.35 -55.9 -50.0 -55.2 -49.7 -54.5 -49.4 -53.8 -49.1 -53.1 -48.8 -52.4 -48.5 -51.7 -48.2 -51.0 -47.9 -50.25 -47.65 -49.55 -47.35 -48.85 -47.1 -48.1 -46.85 -47.4 -46.6 -46.65 -46.35 -45.95 -46.1 -45.2 -45.9 -44.5 -45.45 -43.1 -44.05 -38.2 -42.9 -34.35 -42.1 -31.95 -41.3 -29.65 -39.9 -26.15 -37.95 -21.3 -37.6 -20.35 -37.3 -19.6 -37.05 -18.85 -36.75 -18.1 -36.5 -17.35 -36.25 -16.6 -36.05 -15.85 -35.8 -15.05 -35.6 -14.3 -35.35 -13.55 -35.15 -12.8 -34.95 -12.0 -34.8 -11.25 -34.6 -10.45 -34.45 -9.7 -34.3 -8.9 -34.2 -8.1 -33.35 -3.15 -32.9 5.4 -32.8 7.05 -32.75 8.5 -32.65 10.1 -32.6 11.55 -32.55 13.15 -32.5 14.6 -32.45 16.2 -32.4 17.7 -32.4 19.25 -32.4 20.75 -32.4 22.35 -32.45 23.85 -32.5 25.4 -32.55 26.9 -32.65 28.45 -32.75 30.0 -32.6 29.75 -32.45 29.5 -32.3 29.25 -32.15 29.0 -31.95 28.75 -31.8 28.5 -31.7 28.25 -31.55 28.0 -31.4 27.75 -31.25 27.5 -31.1 27.25 -30.95 27.0 -30.85 26.75 -30.7 26.5 -30.55 26.25 -30.45 25.95 -30.15 25.35 -29.85 24.75 -29.55 24.1 -29.25 23.5 -29.0 22.9 -28.7 22.25 -28.45 21.65 -28.2 21.0 -27.95 20.35 -27.7 19.7 -27.45 19.1 -27.2 18.45 -26.95 17.85 -26.75 17.15 -26.5 16.55 -26.3 15.9 -26.0 15.1 -25.5 13.5 -25.0 11.9 -24.75 11.15 -24.55 10.55 -24.35 9.95 -24.1 9.4 -23.9 8.8 -23.7 8.2 -23.5 7.6 -23.35 7.0 -23.15 6.4 -22.95 5.8 -22.75 5.2 -22.55 4.65 -22.4 4.05 -22.2 3.45 -22.05 2.85 -21.85 2.25 -21.7 1.65 -21.25 0.2 -20.3 -3.25 -20.3 -3.25 -20.25 -3.3 -20.25 -3.35 -20.25 -3.4 -20.2 -3.45 -20.2 -3.45 -20.15 -3.5 -20.15 -3.5 -20.1 -3.55 -20.05 -3.55 -20.0 -3.1 -19.95 -2.7 -19.9 -2.25 -19.85 -1.85 -19.85 -1.4 -19.8 -1.0 -19.75 -0.55 -19.75 -0.1 -19.7 0.3 -19.7 0.75 -19.65 1.15 -19.65 1.6 -19.65 2.0 -19.6 2.45 -19.6 2.9 -19.6 3.3 -19.6 3.6 -19.55 4.9 -19.55 5.15 -19.5 5.25 -19.5 5.3 -19.5 5.35 -19.45 5.35 -19.4 5.4 -19.4 5.4 -19.35 5.45 -19.3 5.45 -19.25 5.45 -19.2 5.45 -19.15 5.4 -19.1 5.4 -19.1 5.4 -19.05 5.35 -19.0 5.35 -19.0 5.3 -18.95 5.3 -18.95 5.25 -18.95 5.2 -18.95 5.15 -18.9 5.1 -18.9 5.05 -18.9 5.05 -18.85 5.0 -18.85 4.95 -18.85 4.9 -18.8 4.85 -18.8 4.8 -18.8 4.75 -18.8 4.7 -18.75 4.7 -18.75 4.65 -18.75 4.6 -18.75 4.55 -18.7 4.5 -18.1 1.6 -17.5 -1.7 -17.45 -2.0 -17.4 -2.1 -17.35 -2.2 -17.25 -2.2 -17.15 -2.2 -16.85 -2.15 -16.8 -2.15 -16.8 -2.15 -16.75 -2.15 -16.7 -2.15 -16.6 -2.15 -16.55 -2.1 -16.5 -2.1 -16.45 -2.1 -16.35 -2.1 -16.3 -2.1 -16.25 -2.1 -16.2 -2.1 -16.15 -2.1 -16.1 -2.1 -16.0 -2.05 -16.0 -2.05 -15.95 -2.0 -15.9 -1.95 -15.8 -1.9 -15.4 -1.1 -15.35 -1.0 -15.35 -1.0 -13.65 2.5 -11.65 7.7 -11.45 8.25 -11.25 8.75 -11.05 9.3 -10.85 9.85 -10.65 10.4 -10.45 10.95 -10.3 11.5 -10.15 12.05 -9.95 12.6 -9.8 13.15 -9.65 13.7 -9.5 14.25 -9.4 14.8 -9.25 15.35 -9.15 15.95 -9.05 16.5 -9.0 16.75 -8.9 17.15 -8.75 17.7 -8.7 17.8 -8.7 17.85 -8.65 17.9 -8.65 17.9 -8.6 17.95 -8.6 17.95 -8.55 18.0 -8.5 18.0 -8.45 18.0 -8.4 18.0 -8.35 18.0 -8.3 18.0 -8.25 18.0 -8.2 18.0 -8.2 18.0 -8.15 17.95 -8.1 17.95 -8.1 17.9 -8.05 17.85 -8.05 17.85 -8.0 17.8 -8.0 17.7 -7.95 17.6 -7.9 17.45 -7.9 17.4 -7.8 16.95 -7.7 16.5 -7.6 16.1 -7.5 15.65 -7.4 15.2 -7.35 14.75 -7.25 14.3 -7.2 13.85 -7.15 13.45 -7.1 13.0 -7.05 12.55 -7.0 12.1 -6.95 11.65 -6.9 11.2 -6.9 10.75 -6.85 10.3 -6.85 10.0 -6.8 9.5 -6.8 8.85 -6.8 8.65 -6.75 8.7 -6.65 8.7 -6.6 8.75 -6.55 8.8 -6.45 8.85 -6.4 8.9 -6.35 8.9 -6.3 8.95 -6.2 9.05 -6.2 9.05 -6.1 9.1 -6.1 9.15 -6.0 9.2 -5.95 9.2 -5.9 9.25 -5.85 9.25 -5.7 9.3 -5.6 9.4 -5.5 9.45 -5.4 9.55 -5.3 9.65 -5.2 9.75 -5.1 9.8 -5.05 9.9 -4.95 10.05 -4.9 10.15 -4.8 10.25 -4.75 10.35 -4.7 10.5 -4.65 10.6 -4.6 10.75 -4.55 10.85 -4.5 10.95 -4.45 11.1 -4.35 11.3 -4.35 11.35 -4.2 11.7 -4.1 12.05 -3.95 12.45 -3.8 12.8 -3.65 13.15 -3.55 13.5 -3.4 13.85 -3.3 14.2 -3.15 14.6 -3.05 14.95 -2.9 15.3 -2.75 15.65 -2.65 16.05 -2.5 16.4 -2.4 16.75 -2.3 17.1 -2.15 17.55 -2.0 18.0 -1.85 18.4 -1.75 18.85 -1.6 19.3 -1.5 19.75 -1.35 20.2 -1.25 20.6 -1.1 21.05 -1.0 21.5 -0.9 21.95 -0.8 22.4 -0.7 22.85 -0.6 23.3 -0.55 23.75 -0.45 24.2 -0.45 24.25 -0.45 24.3 -0.4 24.35 -0.4 24.4 -0.4 24.45 -0.4 24.5 -0.35 24.55 -0.35 24.6 -0.35 24.6 -0.3 24.65 -0.3 24.65 -0.25 24.7 -0.25 24.7 -0.2 24.7 -0.2 24.75 -0.15 24.75 -0.1 24.75 -0.1 24.75 -0.05 24.75 0.0 24.75 0.0 24.75 0.05 24.75 0.1 24.75 0.1 24.75 0.15 24.75 0.2 24.7 0.2 24.7 0.25 24.65 0.25 24.65 0.3 24.6 0.3 24.55 0.3 24.55 0.3 24.5 0.3 24.45 0.3 24.4 0.3 24.35 0.3 24.3 0.3 24.3 0.3 24.25 0.35 24.2 0.35 24.15 0.35 24.1 0.35 24.05 0.35 24.05 0.35 24.0 0.35 23.95 0.35 23.9 0.35 23.85 0.35 23.8 0.35 23.8 0.35 21.4 0.35 21.3 0.35 21.3 0.35 21.2 0.35 21.1 0.35 21.05 0.35 21.0 0.4 20.95 0.45 20.95 0.5 21.05 1.1 22.7 1.65 24.3 1.65 24.35 1.7 24.4 1.7 24.45 1.7 24.5 1.7 24.55 1.75 24.6 1.75 24.65 1.75 24.65 1.75 24.7 1.75 24.75 1.75 24.8 1.75 24.85 1.75 24.9 1.75 24.95 1.75 25.0 1.75 25.05 1.7 25.35 1.65 26.1 1.6 26.75 1.55 27.15 1.5 27.35 1.5 27.5 1.45 27.65 1.45 27.8 1.4 28.0 1.4 28.15 1.35 28.3 1.35 28.5 1.3 28.65 1.25 28.8 1.2 29.0 1.2 29.15 1.15 29.3 1.1 29.45 1.05 29.65 1.0 29.8 0.9 30.05 0.85 30.25 0.8 30.5 0.7 30.75 0.65 30.95 0.6 31.2 0.5 31.45 0.45 31.7 0.4 31.9 0.35 32.15 0.3 32.4 0.25 32.65 0.2 32.9 0.15 33.15 0.1 33.35 0.1 33.6 0.0 34.3 -0.25 35.85 -0.45 37.3 -0.6 38.1 -0.7 38.75 -0.85 39.35 -0.95 40.0 -1.1 40.65 -1.25 41.25 -1.45 41.85 -1.65 42.5 -1.85 43.1 -2.05 43.7 -2.3 44.25 -2.55 44.85 -2.85 45.45 -3.15 46.0 -3.45 46.55 -3.8 47.15 -4.15 47.65 -4.15 47.7 -4.2 47.7 -4.2 47.75 -4.2 47.75 -4.25 47.8 -4.25 47.8 -4.25 47.85 -4.25 47.85 -4.3 47.9 -4.3 47.95 -4.3 47.95 -4.3 48.0 -4.3 48.0 -4.3 48.05 -4.3 48.05 -4.3 48.1 -4.3 48.15 -4.3 48.2 -4.25 48.25 -4.25 48.3 -4.2 48.3 -4.2 48.35 -4.15 48.35 -4.1 48.35 -4.05 48.4 -4.0 48.4 -3.95 48.4 -3.9 48.4 -3.85 48.4 -3.8 48.35 -3.75 48.35 -3.7 48.35 -3.65 48.3 -3.6 48.3 -3.55 48.3 -3.5 48.25 -3.5 48.25 -3.45 48.2 -3.4 48.2 -3.35 48.15 -3.3 48.1 -3.25 48.1 -2.85 47.85 -2.5 47.65 -2.15 47.4 -1.8 47.15 -1.4 46.9 -1.05 46.65 -0.7 46.4 -0.35 46.15 0.0 45.9 0.35 45.65 0.7 45.35 1.05 45.1 1.35 44.8 1.7 44.55 2.05 44.25 2.35 43.95 2.55 43.75 2.75 43.55 2.95 43.35 3.15 43.15 3.35 42.95 3.55 42.75 3.75 42.55 3.9 42.35 4.1 42.15 4.3 41.95 4.45 41.7 4.6 41.5 4.8 41.3 4.95 41.05 5.1 40.85 5.3 40.6 6.55 38.65 7.0 37.65 7.0 37.6 7.05 37.55 7.05 37.55 7.1 37.5 7.1 37.5 7.15 37.45 7.2 37.45 7.25 37.45 7.3 37.45 7.35 37.45 7.4 37.45 7.5 37.45 7.6 37.45 7.65 37.5 7.95 37.5 8.45 37.55 8.45 37.6 8.5 37.65 8.5 37.7 8.5 37.75 8.5 37.8 8.5 37.9 8.5 37.9 8.45 38.0 8.45 38.0 8.45 38.1 8.4 38.15 8.4 38.2 8.4 38.25 8.4 38.3 8.35 38.35 8.35 38.4 8.35 38.4 8.35 38.45 8.35 38.5 8.35 38.5 8.3 38.75 8.3 39.0 8.25 39.25 8.25 39.5 8.2 39.75 8.2 40.0 8.15 40.25 8.15 40.5 8.1 40.75 8.1 41.0 8.1 41.25 8.1 41.5 8.05 41.75 8.05 42.0 8.05 42.25 8.05 42.5 8.05 42.8 8.05 43.1 8.05 43.4 8.1 43.65 8.1 43.95 8.1 44.25 8.15 44.55 8.2 44.85 8.2 45.1 8.25 45.4 8.3 45.7 8.35 46.0 8.4 46.25 8.5 46.55 8.55 46.85 8.65 47.1 8.7 47.3 8.75 47.45 8.8 47.65 8.85 47.85 8.9 48.05 9.0 48.2 9.05 48.4 9.1 48.55 9.15 48.75 9.25 48.95 9.3 49.1 9.4 49.3 9.45 49.45 9.55 49.65 9.6 49.8 9.7 50.0 9.7 50.05 9.75 50.1 9.75 50.1 9.75 50.15 9.8 50.2 9.8 50.25 9.85 50.3 9.85 50.3 9.9 50.35 9.9 50.4 9.95 50.45 9.95 50.45 10.0 50.5 10.0 50.55 10.05 50.55 10.1 50.6 10.15 50.65 10.15 50.65 10.2 50.7 10.25 50.7 10.3 50.7 10.35 50.7 10.4 50.7 10.4 50.7 10.45 50.7 10.5 50.65 10.55 50.65 10.6 50.65 10.6 50.6 10.65 50.6 10.7 50.55 10.7 50.5 10.7 50.5 10.7 50.45 10.7 50.4 10.75 50.35 10.75 50.3 10.75 50.3 10.75 50.25 10.75 50.25 10.75 50.2 10.75 50.15 10.75 50.15 10.75 50.1 10.75 50.05 10.7 50.05 10.7 50.0 10.7 49.95 10.7 49.95 10.7 49.9 10.7 49.85 10.7 49.85 10.7 48.1 10.75 47.95 10.75 47.7 10.8 47.45 10.85 47.15 10.9 46.9 10.95 46.65 11.0 46.4 11.05 46.15 11.1 45.9 11.15 45.6 11.25 45.35 11.3 45.1 11.4 44.85 11.5 44.6 11.6 44.35 11.7 44.1 11.8 43.85 11.9 43.6 12.0 43.35 12.15 43.1 12.25 42.85 12.4 42.6 12.5 42.35 12.65 42.1 12.8 41.85 12.9 41.6 13.05 41.35 13.2 41.1 13.35 40.85 13.5 40.6 13.65 40.4 13.8 40.15 13.95 39.9 16.45 36.1 18.05 33.2 18.2 32.95 18.3 32.7 18.45 32.5 18.55 32.25 18.65 32.0 18.8 31.75 18.9 31.5 19.0 31.25 19.15 31.0 19.25 30.75 19.35 30.5 19.45 30.25 19.55 30.0 19.6 29.75 19.7 29.5 19.8 29.25 19.8 29.2 19.8 29.15 19.85 29.1 19.85 29.05 19.85 29.05 19.9 29.0 19.9 28.95 19.9 28.9 19.95 28.85 19.95 28.8 20.05 28.5 20.15 28.25 20.25 27.95 20.35 27.65 20.45 27.35 20.55 27.05 20.65 26.75 20.7 26.45 20.8 26.15 20.85 25.85 20.9 25.55 20.95 25.25 21.0 24.95 21.05 24.65 21.1 24.35 21.15 24.05 21.2 23.8 21.2 23.5 21.25 23.25 21.25 23.0 21.3 22.75 21.3 22.45 21.3 22.2 21.3 21.95 21.35 21.65 21.35 21.4 21.35 21.15 21.35 20.85 21.3 20.6 21.3 20.35 21.3 20.05 21.3 19.8 21.3 19.6 21.25 19.4 21.25 19.2 21.25 19.05 21.2 18.85 21.2 18.65 21.15 18.45 21.15 18.3 21.1 18.1 21.05 17.9 21.05 17.7 21.0 17.55 20.95 17.35 20.9 17.15 20.85 16.95 20.8 16.8 20.75 16.65 20.4 15.5 20.15 14.7 20.0 14.15 19.95 13.85 19.85 13.55 19.8 13.2 19.7 12.9 19.65 12.6 19.55 12.25 19.45 11.95 19.4 11.65 19.3 11.35 19.2 11.05 19.15 10.7 19.05 10.4 18.95 10.1 18.85 9.8 18.75 9.5 18.65 9.15 18.6 9.1 18.6 9.05 18.6 9.0 18.65 8.95 18.7 8.95 18.75 9.0 18.8 9.0 18.8 9.05 18.85 9.1 18.85 9.1 18.9 9.15 18.95 9.2 18.95 9.25 19.0 9.3 20.5 11.3 21.0 12.1 21.15 12.35 21.35 12.65 21.5 12.9 21.7 13.15 21.85 13.45 22.0 13.7 22.15 13.95 22.35 14.25 22.5 14.5 22.65 14.8 22.8 15.05 22.95 15.35 23.1 15.6 23.25 15.9 23.4 16.2 23.5 16.45 23.7 16.8 23.85 17.15 24.0 17.5 24.15 17.9 24.35 18.25 24.5 18.6 24.65 18.95 24.8 19.3 24.95 19.7 25.05 20.05 25.2 20.4 25.35 20.8 25.45 21.15 25.6 21.5 25.7 21.9 25.8 22.25 25.95 22.55 25.95 22.6 26.0 22.65 26.0 22.65 26.05 22.7 26.1 22.7 26.15 22.7 26.2 22.7 26.25 22.7 26.3 22.7 26.35 22.7 26.4 22.7 26.4 22.65 26.45 22.65 26.5 22.65 26.5 22.6 26.5 22.55 26.55 22.5 26.55 22.45 26.55 22.3 26.6 22.15 26.6 22.05 26.65 20.1 26.65 20.05 26.65 19.75 26.65 19.45 26.6 19.15 26.6 18.85 26.6 18.55 26.55 18.25 26.55 17.95 26.5 17.65 26.5 17.35 26.45 17.05 26.4 16.75 26.4 16.45 26.35 16.2 26.3 15.85 26.25 15.6 26.2 15.3 26.15 14.95 26.1 14.6 26.05 14.3 26.0 13.95 25.95 13.6 25.9 13.25 25.85 12.9 25.75 12.6 25.7 12.25 25.65 11.9 25.55 11.6 25.5 11.25 25.4 10.9 25.35 10.6 25.25 10.25 25.15 9.95 24.95 9.25 24.75 8.55 24.5 7.85 24.3 7.2 24.05 6.5 23.75 5.85 23.5 5.2 23.2 4.55 22.9 3.9 22.55 3.25 22.2 2.6 21.85 2.0 21.5 1.35 21.1 0.75 20.7 0.15 20.3 -0.45 20.05 -0.8 19.8 -1.15 19.55 -1.5 19.3 -1.9 19.05 -2.25 18.8 -2.6 18.55 -2.95 18.3 -3.35 18.1 -3.7 17.85 -4.05 17.6 -4.45 17.35 -4.8 17.15 -5.15 16.9 -5.55 16.65 -5.9 16.45 -6.25 16.35 -6.4 16.25 -6.6 16.15 -6.75 16.05 -6.95 15.95 -7.1 15.85 -7.25 15.8 -7.45 15.7 -7.6 15.6 -7.8 15.55 -7.95 15.45 -8.15 15.4 -8.3 15.3 -8.5 15.25 -8.65 15.15 -8.85 15.1 -9.0 15.05 -9.05 15.05 -9.05 15.0 -9.1 15.0 -9.15 14.95 -9.2 14.95 -9.25 14.95 -9.25 14.9 -9.3 14.9 -9.4 14.9 -9.4 14.85 -9.45 14.9 -9.5 14.95 -9.55 15.0 -9.55 15.0 -9.55 15.05 -9.5 15.15 -9.4 15.15 -9.45 15.2 -9.4 15.2 -9.35 15.25 -9.35 15.25 -9.3 15.3 -9.25 15.3 -9.2 15.8 -8.7 15.95 -8.55 16.3 -8.2 16.7 -7.9 17.1 -7.6 17.5 -7.35 17.95 -7.05 18.35 -6.85 18.8 -6.65 19.2 -6.45 19.65 -6.3 20.15 -6.15 20.6 -6.0 21.05 -5.95 21.55 -5.85 22.05 -5.8 22.5 -5.75 23.05 -5.75 23.25 -5.75 23.5 -5.75 23.7 -5.75 23.9 -5.8 24.15 -5.8 24.35 -5.8 24.55 -5.85 24.8 -5.85 25.0 -5.9 25.2 -5.95 25.45 -5.95 25.65 -6.0 25.85 -6.05 26.1 -6.1 26.3 -6.15 26.5 -6.2 26.8 -6.3 27.15 -6.4 27.45 -6.45 27.8 -6.55 28.1 -6.65 28.45 -6.8 28.75 -6.9 29.05 -7.0 29.35 -7.15 29.65 -7.25 29.95 -7.35 30.3 -7.5 30.6 -7.65 30.9 -7.75 31.2 -7.9 31.5 -8.05 31.6 -8.1 31.75 -8.15 31.85 -8.2 32.0 -8.25 32.1 -8.35 32.25 -8.4 32.35 -8.45 32.45 -8.5 32.6 -8.6 32.7 -8.65 32.8 -8.7 32.95 -8.8 33.05 -8.85 33.15 -8.9 33.25 -9.0 33.4 -9.05 33.55 -9.15 33.7 -9.25 33.85 -9.35 34.0 -9.45 34.15 -9.55 34.3 -9.65 34.45 -9.8 34.6 -9.9 34.7 -10.0 34.85 -10.15 35.0 -10.25 35.15 -10.35 35.25 -10.5 35.4 -10.6 35.55 -10.75 35.7 -10.85 35.7 -10.85 35.75 -10.9 35.8 -10.95 35.8 -10.95 35.8 -11.0 35.85 -11.0 35.85 -11.05 35.9 -11.1 35.9 -11.1 35.9 -11.15 35.95 -11.15 35.95 -11.2 35.95 -11.25 35.95 -11.3 35.95 -11.3 35.95 -11.35 35.95 -11.4 35.95 -11.4 35.95 -11.45 35.95 -11.5 35.95 -11.5 35.95 -11.55 35.9 -11.55 35.9 -11.6 35.9 -11.6 35.85 -11.6 35.85 -11.65 35.85 -11.65 35.8 -11.65 35.8 -11.7 35.75 -11.7 35.7 -11.7 L35.7 -11.7 M10.6 -19.1 Q10.6 -19.05 10.6 -19.05 10.6 -19.1 10.55 -19.1 10.6 -19.1 10.6 -19.1 L10.6 -19.1" fill="#710000" fill-rule="evenodd" stroke="none"/>
  </g>
</svg>
