<?xml version="1.0" encoding="UTF-8" standalone="no"?>
<svg xmlns:xlink="http://www.w3.org/1999/xlink" height="25.7px" width="104.9px" xmlns="http://www.w3.org/2000/svg">
  <g transform="matrix(1.0, 0.0, 0.0, 1.0, -7.1, 51.7)">
    <path d="M2.65 -20.0 Q2.7 -20.05 2.75 -20.15 2.8 -20.2 2.85 -20.25 2.85 -20.3 2.9 -20.4 3.0 -20.45 3.0 -20.5 3.05 -20.55 3.1 -20.6 3.15 -20.7 3.2 -20.75 3.25 -20.8 3.25 -20.85 3.3 -20.95 3.35 -21.0 3.4 -21.2 3.45 -21.3 3.45 -21.75 3.3 -23.25 -0.15 -23.15 -3.4 -23.1 -7.65 -22.95 -12.1 -22.8 -11.3 -22.55 -10.5 -22.3 -9.65 -22.1 -8.8 -21.85 -7.95 -21.6 -7.1 -21.4 -6.2 -21.2 -5.3 -20.95 -4.4 -20.75 -3.5 -20.55 -2.55 -20.35 -1.6 -20.15 -0.6 -19.95 0.35 -19.8 1.35 -19.6 2.35 -19.45 2.35 -19.5 2.4 -19.5 2.4 -19.55 2.4 -19.6 2.45 -19.6 2.45 -19.65 2.45 -19.7 2.5 -19.75 2.5 -19.75 2.55 -19.8 2.55 -19.85 2.55 -19.85 2.6 -19.9 2.6 -19.95 2.65 -20.0 2.65 -20.0 L2.65 -20.0" fill="#961a1a" fill-rule="evenodd" stroke="none"/>
    <path d="M24.6 -25.05 Q24.25 -24.95 23.9 -24.9 23.5 -24.8 23.1 -24.75 22.65 -24.65 22.2 -24.6 21.7 -24.5 21.25 -24.4 20.75 -24.35 20.2 -24.25 19.65 -24.15 19.1 -24.1 18.5 -24.0 17.95 -23.95 17.3 -23.85 16.7 -23.8 15.9 -23.7 15.1 -23.65 14.35 -23.55 13.6 -23.5 12.9 -23.45 12.25 -23.45 11.6 -23.4 11.0 -23.35 10.45 -23.35 9.9 -23.35 9.4 -23.3 8.95 -23.3 8.55 -23.3 8.15 -23.3 7.95 -23.3 7.5 -23.3 7.15 -23.3 6.1 -23.25 6.15 -22.95 6.2 -22.5 6.2 -22.4 6.25 -22.25 6.25 -22.15 6.25 -22.0 6.25 -21.9 6.25 -21.75 6.25 -21.65 6.25 -21.55 6.25 -21.4 6.25 -21.3 6.25 -21.15 6.25 -21.05 6.25 -20.9 6.2 -20.8 6.2 -20.7 6.15 -20.55 6.15 -20.45 6.1 -20.35 6.1 -20.25 6.05 -20.15 6.0 -20.05 6.0 -20.0 5.95 -19.9 5.9 -19.8 5.85 -19.7 5.8 -19.6 5.75 -19.55 5.7 -19.45 5.65 -19.35 5.6 -19.25 5.55 -19.2 5.5 -19.1 5.45 -19.05 5.4 -18.95 5.55 -18.95 6.5 -18.8 7.2 -18.7 7.65 -18.65 7.65 -18.7 7.7 -18.75 7.7 -18.8 7.7 -18.85 7.75 -18.9 7.75 -18.95 7.75 -19.0 7.8 -19.05 7.8 -19.1 7.85 -19.15 7.9 -19.2 7.9 -19.25 7.95 -19.3 7.95 -19.3 8.0 -19.35 8.05 -19.4 8.1 -19.45 8.15 -19.5 8.2 -19.55 8.25 -19.55 8.3 -19.6 8.35 -19.65 8.45 -19.65 8.5 -19.7 8.55 -19.7 8.65 -19.75 8.7 -19.75 8.75 -19.75 8.85 -19.8 8.9 -19.8 8.95 -19.8 9.05 -19.8 9.2 -19.8 9.35 -19.75 9.45 -19.75 9.6 -19.7 9.7 -19.65 9.85 -19.55 9.95 -19.5 10.05 -19.4 10.15 -19.3 10.2 -19.15 10.3 -19.05 10.35 -18.95 10.4 -18.8 10.4 -18.65 10.45 -18.55 10.45 -18.4 10.45 -18.4 10.45 -18.35 11.4 -18.25 12.4 -18.2 13.35 -18.1 14.3 -18.05 15.25 -18.0 16.15 -17.95 17.1 -17.9 18.0 -17.9 18.9 -17.85 19.8 -17.85 20.65 -17.85 21.55 -17.85 22.4 -17.85 23.25 -17.85 24.05 -17.85 24.9 -17.9 L24.6 -25.05 24.6 -25.05" fill="#961a1a" fill-rule="evenodd" stroke="none"/>
    <path d="M55.3 -28.25 Q54.2 -28.0 53.15 -27.8 52.1 -27.6 51.05 -27.4 50.0 -27.25 48.95 -27.1 47.95 -26.95 46.9 -26.85 45.9 -26.7 44.8 -26.6 43.85 -26.5 42.7 -26.4 41.7 -26.3 40.45 -26.2 39.7 -26.15 38.15 -26.0 37.6 -25.95 37.1 -25.9 36.55 -25.85 36.05 -25.85 35.55 -25.8 35.1 -25.75 34.65 -25.75 34.2 -25.7 33.75 -25.7 33.35 -25.65 32.95 -25.65 32.55 -25.6 32.2 -25.6 31.85 -25.55 31.5 -25.55 31.2 -25.55 L33.45 -17.6 Q37.7 -16.3 45.1 -14.1 45.7 -15.9 46.7 -19.0 47.1 -17.4 47.95 -14.0 48.45 -13.9 48.9 -13.85 49.45 -13.8 49.95 -13.75 50.5 -13.7 51.1 -13.65 51.7 -13.6 52.3 -13.6 52.9 -13.55 53.55 -13.55 54.25 -13.6 54.9 -13.6 55.6 -13.65 56.3 -13.7 57.05 -13.8 57.75 -13.9 58.2 -13.95 58.8 -14.05 58.85 -14.95 58.95 -15.5 58.95 -15.55 59.0 -15.65 59.0 -15.7 59.05 -15.75 59.05 -15.8 59.1 -15.85 59.15 -15.95 59.2 -16.0 59.2 -16.05 59.25 -16.1 59.3 -16.15 59.35 -16.2 59.45 -16.2 59.5 -16.25 59.55 -16.3 59.6 -16.35 59.65 -16.4 59.7 -16.4 59.8 -16.45 59.85 -16.45 59.9 -16.5 60.0 -16.5 60.05 -16.5 60.1 -16.5 60.2 -16.55 60.25 -16.55 60.35 -16.55 60.4 -16.55 60.45 -16.5 60.55 -16.5 60.6 -16.5 60.7 -16.5 60.75 -16.5 60.8 -16.45 60.9 -16.45 60.95 -16.4 61.0 -16.35 61.05 -16.35 61.1 -16.3 61.15 -16.25 61.2 -16.2 61.3 -16.15 61.35 -16.1 61.35 -16.05 61.4 -16.0 61.45 -15.95 61.5 -15.9 61.55 -15.85 61.55 -15.8 61.6 -15.8 61.6 -15.75 61.6 -15.7 61.6 -15.7 61.65 -15.65 61.65 -15.6 61.65 -15.6 61.65 -15.55 61.65 -15.5 61.7 -15.5 61.7 -15.45 61.7 -15.4 61.7 -15.4 61.7 -15.35 61.7 -15.3 61.7 -15.25 61.7 -15.25 61.7 -15.2 61.7 -15.15 61.7 -15.15 61.7 -15.1 61.7 -15.05 61.7 -15.05 61.7 -15.0 61.7 -14.95 61.7 -14.95 61.7 -14.9 61.7 -14.85 61.7 -14.85 61.7 -14.8 61.7 -14.75 61.7 -14.75 61.65 -14.7 61.85 -14.75 62.05 -14.8 62.25 -14.85 62.45 -14.9 62.65 -14.95 62.85 -15.05 63.0 -15.1 63.2 -15.15 63.4 -15.2 63.55 -15.25 63.75 -15.3 63.9 -15.4 64.1 -15.45 64.25 -15.5 64.45 -15.55 64.6 -15.65 64.7 -16.25 64.75 -16.85 64.85 -17.45 64.9 -18.05 65.0 -18.7 65.05 -19.3 65.15 -19.95 65.2 -20.6 65.25 -21.25 65.3 -21.9 65.35 -22.55 65.4 -23.25 65.45 -23.9 65.45 -24.6 65.5 -25.3 65.5 -26.0 65.5 -26.35 65.5 -26.7 65.55 -27.0 65.55 -27.35 65.55 -27.7 65.55 -28.0 65.55 -28.35 65.55 -28.7 65.55 -29.0 65.55 -29.35 65.55 -29.65 65.55 -30.0 65.55 -30.3 65.55 -30.6 65.5 -30.95 65.5 -31.25 64.75 -30.95 63.95 -30.7 63.25 -30.45 62.5 -30.2 61.8 -30.0 61.1 -29.8 60.45 -29.55 59.75 -29.4 59.15 -29.2 58.5 -29.05 57.95 -28.9 57.35 -28.75 56.8 -28.6 56.3 -28.45 55.8 -28.35 55.3 -28.25 L55.3 -28.25" fill="#961a1a" fill-rule="evenodd" stroke="none"/>
    <path d="M104.6 -33.85 Q103.25 -38.2 101.85 -42.9 101.2 -42.5 100.5 -42.1 99.8 -41.7 99.05 -41.35 98.35 -40.95 97.6 -40.55 96.8 -40.15 96.05 -39.75 95.25 -39.35 94.4 -39.0 93.6 -38.6 92.75 -38.25 91.9 -37.85 91.0 -37.5 90.1 -37.1 89.2 -36.75 87.7 -36.15 86.2 -35.65 84.75 -35.15 83.3 -34.7 81.9 -34.25 80.45 -33.85 79.1 -33.5 77.7 -33.15 76.4 -32.85 75.1 -32.55 73.8 -32.3 72.55 -32.05 71.35 -31.85 70.15 -31.65 69.0 -31.5 67.85 -31.35 68.0 -30.95 68.1 -30.55 68.25 -30.1 68.35 -29.7 68.45 -29.25 68.6 -28.8 68.7 -28.35 68.8 -27.9 68.9 -27.4 69.05 -26.95 69.15 -26.45 69.25 -25.95 69.35 -25.45 69.4 -24.95 69.5 -24.4 69.6 -23.9 69.65 -23.45 69.75 -22.95 69.8 -22.5 69.85 -22.05 69.9 -21.6 69.95 -21.15 70.0 -20.75 70.05 -20.3 70.05 -19.9 70.1 -19.45 70.15 -19.05 70.15 -18.65 70.15 -18.25 70.2 -17.85 70.2 -17.45 70.2 -17.05 71.75 -17.0 74.8 -16.85 75.5 -19.0 76.65 -22.65 76.75 -21.5 77.35 -16.15 77.8 -16.25 78.25 -16.4 78.75 -16.5 79.2 -16.6 79.7 -16.75 80.2 -16.85 80.7 -16.95 81.2 -17.05 81.75 -17.15 82.25 -17.25 82.8 -17.3 83.35 -17.4 83.9 -17.5 84.5 -17.55 85.05 -17.6 85.65 -17.65 85.9 -17.7 86.15 -17.7 86.4 -17.7 86.6 -17.75 86.85 -17.75 87.1 -17.8 87.35 -17.8 87.55 -17.8 87.8 -17.8 88.05 -17.85 88.25 -17.85 88.5 -17.85 88.75 -17.85 88.95 -17.85 89.2 -17.85 89.4 -17.85 89.8 -19.55 90.95 -24.5 91.5 -22.25 92.4 -18.65 93.0 -18.7 93.55 -18.7 94.2 -18.8 94.85 -18.85 95.55 -18.95 96.25 -19.1 97.0 -19.2 97.75 -19.4 98.5 -19.6 99.3 -19.85 100.1 -20.1 100.9 -20.4 101.75 -20.7 102.55 -21.1 103.4 -21.5 104.2 -21.95 104.45 -22.1 104.7 -22.25 104.95 -22.4 105.2 -22.55 105.4 -22.65 105.65 -22.8 105.85 -22.95 106.1 -23.1 106.3 -23.25 106.5 -23.4 106.7 -23.55 106.9 -23.7 107.1 -23.85 107.3 -24.0 107.5 -24.15 107.7 -24.3 107.5 -24.9 107.3 -25.5 107.1 -26.1 106.9 -26.7 106.7 -27.3 106.5 -27.9 106.3 -28.45 106.1 -29.05 105.9 -29.65 105.75 -30.25 105.55 -30.85 105.35 -31.45 105.15 -32.05 104.95 -32.65 104.8 -33.25 104.6 -33.85 L104.6 -33.85" fill="#961a1a" fill-rule="evenodd" stroke="none"/>
  </g>
</svg>
