<?xml version="1.0" encoding="UTF-8" standalone="no"?>
<svg xmlns:xlink="http://www.w3.org/1999/xlink" height="113.5px" width="54.5px" xmlns="http://www.w3.org/2000/svg">
  <g transform="matrix(1.0, 0.0, 0.0, 1.0, -18.15, 36.9)">
    <path d="M66.0 59.45 Q65.35 57.9 64.6 55.4 64.1 53.8 62.8 48.6 62.65 47.9 62.4 46.8 62.0 45.3 61.95 45.05 61.95 44.95 61.9 44.85 61.9 44.8 61.9 44.75 61.9 44.7 61.9 44.65 61.9 44.65 61.95 44.6 61.95 44.55 62.0 44.55 62.05 44.5 62.05 44.5 62.1 44.45 62.1 44.4 62.15 44.4 62.15 44.35 62.15 44.3 62.2 44.25 62.2 44.2 62.25 44.15 62.25 44.15 62.25 44.1 62.25 44.05 62.3 44.0 62.3 43.95 62.3 43.9 62.35 43.65 62.45 43.4 62.5 43.15 62.55 42.9 62.6 42.65 62.65 42.4 62.75 42.15 62.8 41.9 62.8 41.65 62.85 41.35 62.9 41.1 62.95 40.85 63.0 40.6 63.0 40.3 63.05 40.05 63.1 39.8 63.25 38.1 63.25 37.95 63.25 37.9 63.25 37.9 63.25 37.85 63.25 37.8 63.25 37.75 63.25 37.75 63.25 37.7 63.25 37.65 63.25 37.6 63.25 37.6 63.25 37.55 63.25 37.5 63.25 37.45 63.25 37.45 63.25 37.4 63.25 37.35 63.25 37.3 63.25 37.25 63.2 37.15 63.2 37.1 63.2 37.05 63.2 37.0 63.2 36.9 63.2 36.85 63.2 36.8 63.2 36.75 63.2 36.65 63.2 36.6 63.2 36.55 63.2 36.45 63.2 36.4 63.2 36.35 63.2 36.0 63.2 35.45 63.15 34.7 63.15 34.55 63.1 32.05 62.95 30.25 62.9 29.85 62.9 29.45 62.85 29.1 62.8 28.7 62.8 28.3 62.75 27.9 62.7 27.55 62.65 27.15 62.6 26.75 62.55 26.35 62.5 26.0 62.45 25.6 62.4 25.2 62.35 24.8 62.3 24.45 62.25 24.05 62.2 23.65 62.1 23.3 62.05 22.9 62.0 22.5 61.9 22.15 61.85 21.75 61.75 21.35 61.7 21.0 61.6 20.6 61.55 20.2 61.45 19.85 61.4 19.45 61.3 19.1 61.25 18.7 61.15 18.35 61.05 17.95 60.7 16.3 60.15 14.2 60.1 14.1 59.95 13.4 59.8 12.9 59.7 12.6 59.7 12.55 59.7 12.55 59.65 12.5 59.65 12.5 59.65 12.45 59.65 12.45 59.65 12.4 59.6 12.4 59.6 12.35 59.6 12.3 59.6 12.3 59.6 12.25 59.6 12.2 59.6 12.2 59.6 12.15 59.6 12.1 59.65 12.1 59.65 12.15 59.7 12.2 59.75 12.2 59.75 12.25 59.8 12.3 59.8 12.35 59.8 12.35 59.85 12.4 59.85 12.45 60.0 12.75 60.25 13.25 60.5 13.75 60.6 14.0 61.15 15.15 61.75 16.85 62.6 19.2 63.5 22.4 63.55 22.5 63.65 22.8 63.65 22.75 63.65 22.7 63.65 22.65 63.65 22.65 63.65 22.6 63.65 22.55 63.65 22.5 63.65 22.5 63.65 22.45 63.65 22.4 63.35 19.6 63.0 17.45 62.95 17.15 62.9 16.85 62.85 16.5 62.8 16.2 62.75 15.9 62.7 15.6 62.65 15.3 62.55 14.95 62.5 14.65 62.45 14.35 62.4 14.05 62.35 13.75 62.25 13.45 62.2 13.1 62.15 12.8 62.05 12.5 61.55 10.2 61.05 8.75 60.75 7.95 60.05 6.3 59.95 6.05 59.85 5.85 59.75 5.6 59.6 5.35 59.5 5.15 59.4 4.9 59.3 4.7 59.2 4.45 59.05 4.2 58.95 4.0 58.85 3.75 58.75 3.55 58.65 3.3 58.5 3.1 58.4 2.85 58.3 2.65 58.15 2.4 58.05 2.15 57.9 1.9 57.8 1.65 57.65 1.45 57.55 1.2 57.4 0.95 57.25 0.7 57.15 0.45 57.0 0.2 56.85 0.0 56.75 -0.25 56.6 -0.5 56.45 -0.75 56.35 -0.95 56.2 -1.2 56.1 -1.35 56.0 -1.55 55.9 -1.7 55.85 -1.85 55.75 -2.0 55.65 -2.2 55.55 -2.35 55.45 -2.5 55.35 -2.65 55.25 -2.8 55.15 -3.0 55.05 -3.15 55.0 -3.3 54.9 -3.45 54.8 -3.6 54.7 -3.8 54.4 -4.25 53.9 -5.05 53.35 -5.9 53.15 -6.3 52.8 -6.8 51.9 -8.25 51.8 -8.4 51.6 -8.7 51.4 -9.0 51.3 -9.15 51.3 -9.15 51.3 -9.2 51.25 -9.25 51.25 -9.25 51.2 -9.3 51.2 -9.4 51.2 -9.45 51.2 -9.45 51.2 -9.5 51.25 -9.55 51.25 -9.55 51.35 -9.6 51.55 -9.65 51.7 -9.7 51.9 -9.8 52.05 -9.85 52.25 -9.95 52.45 -10.0 52.6 -10.1 52.8 -10.2 52.95 -10.3 53.15 -10.4 53.3 -10.5 53.5 -10.6 53.65 -10.7 53.8 -10.8 54.0 -10.95 54.15 -11.05 54.4 -11.25 54.65 -11.45 54.95 -11.65 55.2 -11.85 55.45 -12.05 55.65 -12.3 55.9 -12.55 56.15 -12.75 56.4 -13.0 56.65 -13.25 56.85 -13.5 57.1 -13.8 57.3 -14.05 57.55 -14.3 57.75 -14.6 57.95 -14.9 58.1 -15.05 58.2 -15.25 58.35 -15.4 58.5 -15.6 58.6 -15.8 58.75 -15.95 58.85 -16.15 59.0 -16.35 59.15 -16.5 59.25 -16.7 59.35 -16.9 59.5 -17.1 59.6 -17.3 59.75 -17.5 59.85 -17.65 60.0 -17.85 60.6 -18.95 60.95 -19.6 61.05 -20.0 61.05 -20.05 61.0 -20.1 60.95 -20.05 61.05 -20.1 60.8 -20.0 60.7 -19.95 60.6 -19.9 60.5 -19.85 60.4 -19.8 60.25 -19.8 60.15 -19.75 60.05 -19.7 59.95 -19.65 59.85 -19.6 59.75 -19.6 59.6 -19.55 59.5 -19.5 59.4 -19.5 59.3 -19.45 59.2 -19.4 59.05 -19.4 58.9 -19.35 58.8 -19.35 58.65 -19.3 58.55 -19.3 58.4 -19.25 58.3 -19.25 58.15 -19.2 58.05 -19.2 57.9 -19.2 57.8 -19.2 57.65 -19.2 57.5 -19.2 57.4 -19.2 57.25 -19.2 57.15 -19.2 57.0 -19.2 56.9 -19.25 56.35 -19.2 56.2 -19.2 56.05 -19.15 55.9 -19.15 55.8 -19.15 55.65 -19.1 55.5 -19.1 55.35 -19.1 55.2 -19.1 55.05 -19.1 54.9 -19.1 54.75 -19.1 54.6 -19.1 54.45 -19.1 54.35 -19.1 54.2 -19.1 54.05 -19.15 53.9 -19.15 53.7 -19.15 53.55 -19.2 53.4 -19.2 53.25 -19.25 53.05 -19.25 52.9 -19.3 52.75 -19.3 52.6 -19.35 52.45 -19.35 52.25 -19.4 52.1 -19.45 51.95 -19.45 51.8 -19.5 51.65 -19.55 51.45 -19.55 49.35 -20.1 49.15 -20.2 47.8 -20.55 45.8 -21.25 45.55 -21.35 45.3 -21.45 45.05 -21.55 44.8 -21.65 44.5 -21.75 44.25 -21.85 44.0 -21.95 43.75 -22.05 43.5 -22.15 43.25 -22.25 43.0 -22.35 42.75 -22.45 42.5 -22.55 42.25 -22.65 42.0 -22.8 41.75 -22.9 41.5 -23.0 41.2 -23.15 40.95 -23.25 40.65 -23.4 40.4 -23.55 40.1 -23.65 39.85 -23.8 39.55 -23.95 39.3 -24.1 39.05 -24.2 38.75 -24.35 38.5 -24.5 38.2 -24.65 37.95 -24.8 37.7 -24.95 37.4 -25.1 35.8 -26.05 32.55 -27.85 32.5 -27.9 32.5 -27.9 32.45 -27.95 32.4 -27.9 32.4 -27.85 32.4 -27.75 32.4 -27.7 32.4 -27.65 32.4 -27.55 32.35 -27.5 32.35 -27.45 32.35 -27.4 32.3 -27.4 32.25 -27.4 32.2 -27.35 32.15 -27.4 30.55 -27.85 29.4 -28.15 29.35 -28.15 29.3 -28.15 29.25 -28.2 29.25 -28.2 29.2 -28.2 29.15 -28.2 29.1 -28.2 29.05 -28.2 29.0 -28.2 29.0 -28.25 28.95 -28.25 28.9 -28.25 28.85 -28.25 28.8 -28.25 28.75 -28.25 28.75 -28.25 27.95 -28.25 26.5 -28.25 26.35 -28.25 26.15 -28.25 26.0 -28.25 25.8 -28.25 25.65 -28.25 25.5 -28.3 25.3 -28.3 25.15 -28.3 25.0 -28.3 24.8 -28.35 24.65 -28.35 24.45 -28.35 24.3 -28.4 24.15 -28.4 23.95 -28.45 23.8 -28.45 23.7 -28.45 23.6 -28.45 23.5 -28.5 23.4 -28.5 23.35 -28.5 23.25 -28.5 23.15 -28.5 23.05 -28.45 22.95 -28.45 22.85 -28.45 22.8 -28.45 22.65 -28.45 22.6 -28.45 22.5 -28.4 22.35 -28.4 22.3 -28.4 21.45 -28.25 21.3 -28.3 21.15 -28.35 21.0 -28.35 20.85 -28.4 20.65 -28.4 20.5 -28.45 20.35 -28.5 20.2 -28.5 20.05 -28.55 19.9 -28.55 19.7 -28.55 19.55 -28.6 19.4 -28.6 19.25 -28.65 19.1 -28.65 18.95 -28.65 18.75 -28.7 17.6 -28.8 17.15 -28.8 17.15 -28.75 17.1 -28.7 17.05 -28.7 17.05 -28.7 17.0 -28.7 16.95 -28.7 16.9 -28.7 16.9 -28.65 16.5 -28.6 13.7 -27.95 12.5 -27.65 12.1 -27.6 11.85 -27.55 11.45 -27.45 11.0 -27.35 10.8 -27.35 11.05 -27.25 11.3 -27.15 11.55 -27.05 11.8 -26.9 12.05 -26.8 12.3 -26.65 12.55 -26.5 12.8 -26.35 13.05 -26.2 13.3 -26.05 13.55 -25.9 13.8 -25.7 14.0 -25.55 14.25 -25.35 14.5 -25.15 14.7 -24.95 14.95 -24.75 15.15 -24.55 15.4 -24.35 15.65 -24.15 15.85 -23.95 16.1 -23.75 16.3 -23.55 16.55 -23.3 16.75 -23.1 17.0 -22.9 17.2 -22.65 17.45 -22.45 17.65 -22.2 17.9 -21.95 18.1 -21.75 18.3 -21.5 18.5 -21.25 18.75 -21.05 18.95 -20.8 19.15 -20.55 19.35 -20.3 19.55 -20.1 19.75 -19.85 19.95 -19.6 20.15 -19.35 20.35 -19.1 20.55 -18.85 20.75 -18.55 20.95 -18.3 21.15 -18.05 21.35 -17.75 21.5 -17.5 21.7 -17.25 21.9 -16.95 22.05 -16.65 22.25 -16.4 22.4 -16.1 22.6 -15.8 22.75 -15.5 22.95 -15.2 23.1 -14.9 23.3 -14.6 23.45 -14.3 23.6 -14.0 23.8 -13.7 23.95 -13.4 24.1 -13.1 24.25 -12.8 24.6 -12.15 24.9 -11.5 25.2 -10.8 25.5 -10.15 25.8 -9.45 26.05 -8.75 26.35 -8.05 26.6 -7.35 26.85 -6.65 27.1 -5.9 27.35 -5.2 27.55 -4.45 27.8 -3.7 28.0 -2.95 28.2 -2.25 28.4 -1.45 28.75 -0.15 29.2 1.9 29.9 4.9 30.0 5.25 30.25 6.3 30.8 8.55 31.35 10.7 31.65 11.85 31.75 12.3 31.85 12.75 31.95 13.2 32.0 13.6 32.1 14.05 32.15 14.5 32.25 14.95 32.35 15.35 32.4 15.8 32.45 16.25 32.55 16.7 32.6 17.15 32.65 17.6 32.7 18.05 32.75 18.5 32.8 18.95 32.8 19.2 32.85 19.4 32.85 19.65 32.85 19.85 32.85 20.1 32.9 20.3 32.9 20.55 32.9 20.75 32.9 21.0 32.9 21.2 32.95 21.45 32.95 21.65 32.95 21.9 32.95 22.1 32.95 22.35 32.95 22.55 33.0 22.7 33.0 22.8 33.05 22.95 33.05 23.1 33.1 23.25 33.1 23.35 33.15 23.5 33.15 23.65 33.2 23.8 33.2 23.9 33.2 24.05 33.25 24.2 33.25 24.35 33.3 24.45 33.3 24.6 33.3 24.75 33.3 24.9 33.35 25.15 33.35 25.15 33.35 25.15 33.85 27.25 34.4 30.05 34.9 32.4 35.2 34.35 35.5 36.3 35.65 38.0 35.8 39.55 36.0 42.5 36.2 45.15 36.25 45.25 36.25 45.25 36.3 46.5 36.3 46.8 36.3 47.55 36.35 48.25 36.3 48.65 36.35 49.8 36.25 51.3 36.25 51.75 36.15 53.7 36.15 53.75 36.15 53.8 36.15 53.85 36.15 53.9 36.1 53.95 36.1 54.0 36.1 54.05 36.1 54.1 36.1 54.15 36.1 54.2 36.1 54.25 36.1 54.3 36.15 54.3 36.15 54.35 36.15 54.35 36.2 54.35 36.2 54.35 36.25 54.35 36.3 54.35 36.3 54.35 36.35 54.35 36.4 54.3 36.45 54.3 36.45 54.25 36.5 54.25 36.5 54.2 36.55 54.2 36.55 54.15 36.6 54.15 36.65 54.1 36.65 54.05 36.65 54.0 36.7 53.95 36.7 53.9 36.75 53.85 36.75 53.75 36.8 53.7 36.85 53.6 36.85 53.55 36.9 53.45 36.9 53.4 36.95 53.3 36.95 53.25 37.0 53.15 37.0 53.1 37.05 53.0 37.05 52.9 37.1 52.85 37.1 52.75 37.15 52.7 37.75 50.7 38.4 47.1 38.85 45.05 38.9 44.85 38.9 44.85 39.05 44.4 39.1 44.35 39.1 44.3 39.1 44.3 39.15 44.3 39.15 44.3 39.2 44.3 39.2 44.35 39.25 44.4 39.3 44.55 39.35 44.65 39.4 44.9 39.5 45.2 39.55 45.45 39.6 45.7 39.65 45.95 39.7 46.25 39.8 46.5 39.85 46.75 39.9 47.05 39.9 47.3 39.95 47.6 40.0 47.85 40.05 48.15 40.1 48.4 40.15 48.7 40.15 48.95 40.2 49.2 40.2 49.4 40.25 49.65 40.25 49.9 40.3 50.15 40.3 50.35 40.35 50.6 40.35 50.85 40.4 51.05 40.4 51.3 40.4 51.55 40.45 51.8 40.45 52.0 40.45 52.25 40.5 52.5 40.5 52.7 40.5 53.1 40.6 54.55 40.65 54.55 40.65 54.5 40.7 54.5 40.7 54.5 40.7 54.45 40.75 54.45 40.75 54.4 40.75 54.4 40.8 54.35 40.8 54.35 40.8 54.3 40.85 54.3 40.85 54.25 40.85 54.2 40.85 54.2 40.85 54.15 40.9 54.05 40.95 53.95 40.95 53.85 41.0 53.7 41.05 53.6 41.05 53.5 41.1 53.4 41.1 53.3 41.15 53.2 41.15 53.05 41.2 52.95 41.2 52.85 41.25 52.75 41.25 52.6 41.3 52.5 41.3 52.4 41.5 51.25 41.7 49.45 41.85 48.25 41.95 46.5 41.95 46.15 42.0 45.6 42.0 44.85 42.0 44.65 42.05 43.5 42.0 41.75 41.9 40.05 41.85 39.05 41.75 37.55 41.6 36.2 41.45 34.55 41.3 33.55 41.3 33.5 41.3 33.45 41.3 33.4 41.3 33.35 41.25 33.3 41.3 33.3 41.3 33.25 41.3 33.2 41.3 33.15 41.35 33.1 41.4 33.1 41.4 33.15 41.45 33.2 41.45 33.25 41.45 33.25 41.5 33.35 42.35 35.7 44.2 40.8 44.3 41.05 44.4 41.35 44.5 41.6 44.6 41.9 44.7 42.15 44.8 42.45 44.9 42.7 45.0 43.0 45.1 43.25 45.25 43.55 45.35 43.8 45.45 44.1 45.55 44.35 45.65 44.65 45.75 44.9 45.8 45.2 46.1 45.95 46.6 47.5 46.65 47.6 46.65 47.7 46.7 47.8 46.7 47.9 46.7 48.0 46.7 48.1 46.75 48.2 46.75 48.3 46.75 48.4 46.75 48.5 46.75 48.55 46.75 48.7 46.75 48.75 46.7 48.9 46.7 48.95 46.7 49.1 46.4 51.9 46.05 54.25 46.0 54.55 45.95 54.85 45.9 55.15 45.85 55.5 45.8 55.8 45.75 56.1 45.7 56.4 45.65 56.7 45.6 57.0 45.5 57.3 45.45 57.6 45.4 57.9 45.35 58.2 45.3 58.5 45.25 58.8 45.15 59.1 44.9 60.45 43.85 64.8 43.2 67.55 42.9 69.5 42.85 69.8 42.75 70.5 42.75 70.55 42.75 70.6 42.7 70.6 42.7 70.65 42.7 70.7 42.7 70.7 42.7 70.75 42.7 70.8 42.75 70.8 42.8 70.75 42.8 70.75 42.85 70.7 42.85 70.7 42.9 70.65 42.9 70.65 42.95 70.6 43.1 70.45 43.25 70.25 43.4 70.1 43.5 69.95 43.65 69.75 43.8 69.6 43.95 69.4 44.05 69.2 44.2 69.05 44.35 68.85 44.45 68.65 44.6 68.45 44.7 68.3 44.85 68.1 44.95 67.9 45.1 67.7 45.3 67.4 46.0 66.2 46.55 65.25 46.9 64.65 46.95 64.6 47.0 64.5 47.05 64.45 47.05 64.4 47.1 64.3 47.15 64.25 47.2 64.2 47.25 64.15 47.3 64.05 47.35 64.0 47.4 63.95 47.45 63.9 47.5 63.8 47.55 63.75 47.6 63.7 47.65 63.65 47.7 63.55 47.75 63.6 47.75 63.6 47.75 63.75 47.7 64.2 47.5 65.1 47.45 65.35 47.4 65.6 47.35 65.9 47.25 66.15 47.2 66.4 47.15 66.65 47.1 66.9 47.05 67.15 46.95 67.4 46.9 67.65 46.8 67.95 46.75 68.2 46.7 68.45 46.6 68.7 46.55 68.95 46.45 69.2 46.4 69.35 46.4 69.4 46.4 69.45 46.45 69.45 46.45 69.5 46.55 69.55 46.6 69.55 46.6 69.55 46.65 69.55 46.65 69.55 46.7 69.55 46.75 69.55 46.75 69.55 46.8 69.55 46.8 69.55 46.85 69.55 46.9 69.55 46.9 69.5 46.95 69.5 46.95 69.5 47.0 69.45 47.0 69.45 47.1 69.4 47.15 69.35 47.25 69.3 47.3 69.2 47.35 69.15 47.45 69.1 47.5 69.05 47.55 68.95 47.65 68.9 47.7 68.8 47.75 68.75 47.8 68.65 47.9 68.6 47.95 68.5 48.0 68.4 48.05 68.35 48.05 68.3 48.1 68.3 48.1 68.25 48.15 68.2 48.15 68.2 48.2 68.15 48.25 68.1 48.25 68.1 48.25 68.05 48.3 68.0 48.3 68.0 48.35 67.95 48.35 67.9 48.4 67.9 48.4 67.85 48.4 67.8 48.45 67.75 48.45 67.75 48.5 67.7 48.5 67.7 48.55 67.7 48.55 67.7 48.6 67.75 48.65 67.8 48.65 67.85 48.65 67.95 48.65 68.9 48.65 69.6 48.6 70.95 48.3 73.45 48.25 73.75 48.2 74.6 48.2 74.9 48.2 75.55 48.2 76.15 48.2 76.45 L48.25 76.45 Q48.25 76.4 48.4 76.3 48.65 76.1 48.85 75.9 49.1 75.65 49.3 75.4 49.5 75.2 49.75 74.95 49.95 74.7 50.15 74.4 50.35 74.15 50.55 73.85 50.7 73.6 50.9 73.3 51.1 73.0 51.25 72.7 51.45 72.4 51.6 72.1 51.7 71.95 51.75 71.8 51.85 71.65 51.9 71.5 52.0 71.35 52.05 71.2 52.15 71.0 52.25 70.85 52.3 70.7 52.4 70.55 52.45 70.4 52.55 70.25 52.6 70.1 52.7 69.95 52.75 69.75 52.8 69.6 52.85 69.6 52.85 69.55 52.9 69.5 52.9 69.45 52.95 69.4 53.0 69.45 53.05 69.45 53.05 69.5 52.95 69.0 53.05 69.65 53.2 70.35 53.6 72.35 54.0 74.2 54.4 75.4 54.4 75.45 54.4 75.45 54.4 75.5 54.45 75.55 54.45 75.55 54.45 75.6 54.45 75.65 54.45 75.65 54.5 75.7 54.5 75.7 54.5 75.75 54.55 75.8 54.55 75.8 54.55 75.85 54.6 75.85 54.6 75.9 54.65 76.0 54.75 76.05 54.8 76.1 54.9 76.1 54.95 76.1 55.05 76.1 55.15 76.1 55.2 76.05 55.3 76.05 55.35 75.95 55.45 75.9 55.5 75.8 55.55 75.75 55.6 75.65 55.65 75.5 55.7 75.4 55.8 74.95 56.05 73.4 56.1 72.95 56.85 67.8 56.95 67.0 57.15 65.7 57.4 63.8 57.4 63.6 57.4 63.6 57.45 63.45 57.45 63.4 57.5 63.35 57.5 63.3 57.55 63.3 57.6 63.3 57.6 63.4 57.6 63.4 57.65 63.5 57.65 63.6 57.75 64.7 57.75 64.9 57.75 65.1 57.8 65.25 57.8 65.45 57.8 65.65 57.8 65.85 57.8 66.0 57.85 66.2 57.85 66.4 57.85 66.6 57.85 66.75 57.9 66.95 57.9 67.15 57.9 67.35 57.9 67.5 57.95 67.7 57.95 68.2 58.2 69.7 58.25 69.95 58.3 70.35 58.35 71.0 58.4 71.0 58.4 71.05 58.4 71.1 58.4 71.15 58.4 71.15 58.4 71.2 58.45 71.25 59.0 70.1 59.2 69.7 59.9 67.9 60.2 66.75 60.25 66.6 60.3 66.4 60.35 66.25 60.35 66.1 60.4 65.9 60.45 65.75 60.5 65.55 60.5 65.4 60.55 65.2 60.55 65.05 60.6 64.85 60.6 64.7 60.65 64.5 60.65 64.3 60.7 64.15 60.7 63.95 60.7 63.75 60.75 63.6 60.75 63.4 60.8 63.2 60.8 63.0 60.8 62.85 60.85 62.65 60.85 62.45 60.85 62.25 60.9 62.05 60.9 61.9 60.9 61.7 60.9 61.5 60.95 61.3 60.95 61.1 60.95 60.95 61.0 60.25 61.05 58.2 61.05 57.7 61.05 56.95 61.0 55.9 61.0 55.65 61.0 55.4 60.95 54.05 60.95 53.95 60.95 53.95 60.95 53.9 60.95 53.9 60.95 53.85 60.95 53.8 60.95 53.75 60.95 53.7 61.0 53.7 61.0 53.65 61.05 53.65 61.05 53.7 61.1 53.7 61.1 53.75 61.15 53.85 61.15 53.85 62.2 55.7 62.6 56.35 62.65 56.45 62.75 56.55 62.85 56.65 62.9 56.75 63.0 56.85 63.05 56.95 63.15 57.05 63.2 57.15 63.3 57.25 63.35 57.35 63.45 57.45 63.55 57.55 63.6 57.65 63.7 57.7 63.8 57.8 63.85 57.9 65.55 59.75 65.85 60.0 65.95 60.1 66.4 60.55 66.4 60.5 66.45 60.5 66.15 59.9 66.0 59.45 L66.0 59.45" fill="#730000" fill-rule="evenodd" stroke="none"/>
  </g>
</svg>
