<?xml version="1.0" encoding="UTF-8" standalone="no"?>
<svg xmlns:xlink="http://www.w3.org/1999/xlink" height="71.5px" width="128.9px" xmlns="http://www.w3.org/2000/svg">
  <g transform="matrix(1.0, 0.0, 0.0, 1.0, 82.0, 29.95)">
    <path d="M-2.25 14.6 Q-2.35 14.0 -2.45 13.1 -2.6 11.95 -2.65 11.65 -2.75 11.05 -2.9 10.1 -3.1 8.75 -3.1 8.6 -3.15 8.25 -3.35 6.85 -3.55 5.75 -3.65 5.1 -3.65 5.05 -4.25 2.45 -4.25 2.4 -4.3 2.4 -4.3 2.35 -4.3 2.3 -4.3 2.25 -4.3 2.2 -4.3 2.15 -4.3 2.15 -4.3 2.1 -4.25 2.05 -4.25 2.05 -4.2 2.0 -4.15 2.0 -4.15 2.0 -4.1 2.0 -4.05 2.0 -4.0 1.95 -4.0 2.0 -3.95 2.0 -3.9 2.0 -3.9 2.0 -3.85 2.05 -3.85 2.05 -3.8 2.1 -3.8 2.15 -3.7 2.4 -3.6 2.7 -3.45 2.95 -3.35 3.25 -3.25 3.55 -3.15 3.85 -3.05 4.15 -2.95 4.4 -2.85 4.75 -2.75 5.0 -2.65 5.3 -2.55 5.6 -2.5 5.9 -2.4 6.2 -2.3 6.5 -2.25 6.8 -2.15 7.1 -2.1 7.35 -1.5 9.75 -1.1 11.35 -0.85 12.4 -0.8 12.75 -0.7 13.05 -0.65 13.4 -0.6 13.75 -0.55 14.05 -0.5 14.4 -0.45 14.75 -0.4 15.1 -0.35 15.45 -0.35 15.75 -0.3 16.1 -0.3 16.45 -0.3 16.8 -0.25 17.15 -0.25 17.45 -0.25 17.8 -0.35 22.4 -0.35 23.25 -0.4 24.6 -0.75 26.95 -0.8 27.3 -0.85 27.6 -0.9 27.95 -1.0 28.25 -1.05 28.6 -1.1 28.9 -1.2 29.25 -1.25 29.55 -1.3 29.85 -1.4 30.2 -1.45 30.5 -1.55 30.85 -1.65 31.15 -1.7 31.5 -1.8 31.8 -1.9 32.1 -1.95 32.35 -2.5 33.85 -2.55 33.95 -2.6 34.0 -2.65 34.05 -2.65 34.05 -2.7 34.1 -2.75 34.1 -2.8 34.1 -2.85 34.1 -2.85 34.1 -2.9 34.1 -2.95 34.1 -3.0 34.05 -3.0 34.05 -3.05 34.0 -3.05 34.0 -3.1 33.95 -3.1 33.95 -3.1 33.9 -3.1 33.85 -3.1 33.8 -3.05 33.7 -3.0 33.45 -2.95 33.3 -2.9 33.15 -2.85 32.95 -2.85 32.8 -2.8 32.65 -2.75 32.5 -2.75 32.3 -2.7 32.15 -2.7 32.0 -2.65 31.8 -2.65 31.65 -2.65 31.5 -2.6 31.35 -2.6 31.15 -2.6 31.0 -2.55 30.8 -2.5 30.3 -2.4 29.25 -2.35 28.25 -2.3 27.7 -2.25 27.4 -2.25 27.05 -2.2 26.75 -2.2 26.45 -2.2 26.1 -2.15 25.8 -2.15 25.5 -2.15 25.2 -2.1 24.85 -2.1 24.55 -2.1 24.25 -2.1 23.95 -2.1 23.6 -2.1 23.3 -2.1 23.0 -2.1 22.65 -2.1 22.55 -2.1 21.05 -2.1 21.05 -2.15 21.05 -2.2 21.45 -2.3 22.1 -2.35 22.5 -2.4 22.85 -2.45 23.25 -2.55 23.6 -2.6 23.95 -2.7 24.35 -2.75 24.7 -2.85 25.1 -2.9 25.45 -3.0 25.8 -3.1 26.2 -3.2 26.55 -3.3 26.9 -3.4 27.3 -3.55 27.65 -3.65 28.0 -3.65 28.05 -4.15 29.3 -4.2 29.35 -4.25 29.45 -4.25 29.5 -4.3 29.5 -4.35 29.55 -4.35 29.55 -4.4 29.6 -4.45 29.6 -4.45 29.6 -4.5 29.6 -4.55 29.6 -4.6 29.6 -4.65 29.6 -4.7 29.55 -4.7 29.5 -4.75 29.5 -4.75 29.45 -4.75 29.4 -4.75 29.35 -4.75 29.3 -4.75 29.25 -4.75 29.2 -4.75 29.15 -4.75 29.1 -4.75 29.05 -4.7 29.0 -4.7 28.95 -4.7 28.9 -4.7 28.85 -4.7 28.8 -4.5 27.9 -4.35 26.05 -4.25 25.0 -4.15 23.3 -4.15 23.2 -4.2 22.8 -4.3 22.45 -4.45 21.8 -4.5 21.55 -4.9 19.4 -4.95 19.3 -5.0 18.65 -5.05 18.5 -5.1 18.2 -5.1 18.25 -5.2 18.45 -5.2 18.5 -5.25 18.5 -5.25 18.55 -5.25 18.55 -5.25 18.6 -5.3 18.65 -5.3 18.65 -5.35 18.7 -5.35 18.7 -5.35 18.7 -5.4 18.75 -5.4 18.75 -5.45 18.75 -5.5 18.75 -5.5 18.75 -5.55 18.75 -5.6 18.75 -5.6 18.75 -5.65 18.7 -5.7 18.7 -5.75 18.7 -5.75 18.7 -5.8 18.65 -5.8 18.65 -5.85 18.65 -5.9 18.6 -5.9 18.6 -5.95 18.55 -5.95 18.55 -5.95 18.5 -6.0 18.45 -6.0 18.45 -6.05 18.15 -6.05 18.1 -6.05 18.0 -6.05 17.85 -6.05 17.75 -6.05 17.65 -6.05 17.5 -6.05 17.4 -6.05 17.3 -6.0 17.15 -6.0 17.05 -6.0 16.95 -5.95 16.85 -5.95 16.7 -5.9 16.6 -5.85 16.5 -5.85 16.4 -5.8 16.25 -5.8 16.2 -5.75 16.2 -5.75 16.15 -5.7 16.1 -5.7 16.1 -5.65 16.1 -5.65 16.05 -5.6 16.05 -5.55 16.05 -5.55 16.05 -5.5 16.05 -5.45 16.05 -5.45 16.05 -5.4 16.1 -5.35 16.1 -5.3 16.15 -5.3 16.15 -5.25 16.2 -5.2 16.25 -5.2 16.3 -5.2 16.25 -5.2 16.2 -5.2 16.15 -5.2 16.1 -5.2 16.1 -5.2 16.05 -5.2 16.0 -5.2 15.95 -5.2 15.95 -5.2 15.9 -5.15 15.35 -5.15 14.4 -5.1 13.3 -5.05 12.85 -5.05 12.8 -5.05 12.75 -5.05 12.75 -5.05 12.7 -5.0 12.65 -5.0 12.6 -4.95 12.6 -4.95 12.55 -4.9 12.5 -4.85 12.5 -4.8 12.5 -4.75 12.5 -4.7 12.5 -4.65 12.55 -4.6 12.6 -4.55 12.65 -4.5 12.7 -4.5 12.75 -4.45 12.95 -4.1 14.05 -4.1 14.1 -4.05 14.1 -4.05 14.15 -4.05 14.15 -4.0 14.2 -3.95 14.25 -3.95 14.2 -3.95 14.0 -4.0 13.15 -4.25 9.95 -4.25 9.75 -4.3 9.2 -4.35 8.75 -4.4 8.45 -4.4 8.25 -4.4 8.2 -4.4 8.15 -4.4 8.15 -4.4 8.1 -4.4 8.05 -4.35 8.05 -4.35 8.0 -4.35 8.0 -4.35 7.95 -4.3 7.95 -4.3 7.9 -4.25 7.9 -4.25 7.9 -4.25 7.9 -4.2 7.9 -4.15 7.85 -4.15 7.85 -4.1 7.85 -4.05 7.85 -4.05 7.9 -4.0 7.9 -3.95 7.95 -3.95 7.95 -3.9 8.0 -3.9 8.05 -3.85 8.1 -3.85 8.15 -3.5 9.5 -3.4 9.75 -3.3 10.05 -3.25 10.3 -3.15 10.6 -3.1 10.9 -3.0 11.2 -2.95 11.45 -2.9 11.75 -2.8 12.05 -2.75 12.35 -2.7 12.6 -2.65 12.9 -2.6 13.2 -2.55 13.5 -2.45 13.8 -2.4 14.1 -2.35 14.4 -2.35 14.45 -2.35 14.5 -2.35 14.55 -2.25 14.6 -2.25 14.65 -2.3 14.7 -2.3 14.75 -2.3 14.85 -2.3 14.85 -2.25 14.85 -2.25 14.75 -2.25 14.6 L-2.25 14.6" fill="#000000" fill-rule="evenodd" stroke="none"/>
    <path d="M36.3 17.3 Q36.25 17.3 36.2 17.25 36.2 17.25 36.15 17.25 36.1 17.2 36.1 17.2 36.05 17.15 36.05 17.15 36.05 17.1 36.0 17.05 36.0 17.05 36.0 17.0 36.0 16.95 35.95 16.9 35.95 16.9 35.95 16.85 35.5 14.85 34.7 11.3 34.7 11.3 34.65 11.25 34.65 11.25 34.6 11.2 34.6 11.25 34.6 11.3 34.55 11.35 34.55 11.35 34.5 12.0 34.35 13.15 34.35 13.15 34.35 13.25 34.35 13.3 34.3 13.35 34.3 13.35 34.25 13.4 34.2 13.45 34.2 13.45 34.15 13.45 34.1 13.45 34.05 13.45 34.0 13.45 33.95 13.45 33.9 13.45 33.9 13.45 33.85 13.4 33.8 13.35 33.8 13.3 33.8 13.25 33.75 13.2 33.75 13.2 33.75 13.15 33.7 13.1 33.7 13.05 33.7 13.0 33.65 12.95 33.65 12.9 33.65 12.85 33.6 12.6 33.55 12.35 33.45 12.15 33.4 11.9 33.35 11.65 33.3 11.4 33.25 11.2 33.2 10.95 33.2 10.7 33.15 10.45 33.1 10.2 33.05 9.95 33.0 9.7 33.0 9.45 32.95 9.25 32.9 9.0 32.85 8.75 32.85 8.45 32.8 8.2 32.75 7.95 32.7 7.65 32.65 7.4 32.6 7.15 32.55 6.85 32.5 6.6 32.45 6.35 32.4 6.1 32.3 5.8 32.25 5.55 32.2 5.3 32.15 5.05 32.05 4.8 31.85 4.0 31.35 2.45 31.3 2.3 31.1 2.0 31.05 1.95 31.05 1.9 31.05 1.9 31.0 1.85 31.0 1.8 31.0 1.8 31.0 1.75 31.0 1.7 31.0 1.7 31.05 1.65 31.1 1.6 31.1 1.55 31.15 1.55 31.2 1.55 31.25 1.5 31.3 1.5 31.3 1.5 31.35 1.55 31.4 1.55 31.45 1.55 31.45 1.6 31.5 1.6 31.55 1.6 31.55 1.65 31.6 1.65 31.65 1.7 31.65 1.7 31.7 1.75 31.8 1.85 31.9 2.0 32.05 2.1 32.15 2.25 32.25 2.35 32.35 2.5 32.45 2.65 32.55 2.75 32.6 2.9 32.7 3.05 32.8 3.2 32.9 3.3 33.0 3.45 33.05 3.6 33.15 3.75 33.25 3.9 33.3 3.95 33.3 4.0 33.35 4.05 33.45 4.1 33.35 3.7 33.25 3.05 33.2 2.8 33.15 2.5 33.1 2.25 33.0 1.95 32.95 1.7 32.85 1.45 32.8 1.15 32.7 0.9 32.6 0.65 32.5 0.4 32.4 0.15 32.3 -0.1 32.2 -0.35 32.05 -0.6 31.95 -0.85 31.8 -1.1 31.15 -2.4 30.05 -4.4 29.95 -4.55 29.8 -4.75 29.6 -5.05 29.6 -5.1 29.6 -5.15 29.55 -5.15 29.55 -5.2 29.55 -5.25 29.55 -5.25 29.5 -5.3 29.5 -5.3 29.5 -5.35 29.55 -5.35 29.55 -5.4 29.55 -5.4 29.55 -5.45 29.6 -5.45 29.6 -5.5 29.6 -5.5 29.65 -5.5 29.65 -5.55 29.7 -5.55 29.75 -5.55 29.8 -5.55 29.85 -5.55 29.85 -5.55 29.9 -5.55 29.95 -5.5 30.0 -5.45 30.05 -5.45 30.05 -5.4 30.1 -5.4 30.15 -5.35 30.15 -5.3 30.2 -5.3 30.2 -5.25 30.9 -4.35 32.45 -2.4 32.35 -2.5 32.5 -2.35 32.55 -2.3 32.55 -2.3 32.6 -2.25 32.6 -2.2 32.65 -2.2 32.7 -2.15 32.65 -2.2 32.65 -2.35 32.6 -2.45 32.6 -2.5 32.45 -2.9 32.3 -3.25 32.1 -3.6 31.95 -3.95 31.8 -4.35 31.6 -4.7 31.45 -5.05 31.25 -5.4 31.05 -5.8 30.85 -6.15 30.65 -6.5 30.45 -6.8 30.25 -7.15 30.05 -7.5 29.8 -7.85 29.6 -8.2 29.55 -8.25 29.55 -8.25 29.5 -8.3 29.5 -8.35 29.45 -8.35 29.45 -8.4 29.4 -8.45 29.4 -8.5 29.35 -8.55 29.35 -8.6 29.35 -8.65 29.35 -8.7 29.35 -8.7 29.35 -8.75 29.35 -8.8 29.4 -8.8 29.45 -8.85 29.45 -8.9 29.5 -8.9 29.55 -8.9 29.6 -8.95 29.6 -8.9 29.65 -8.9 29.7 -8.9 29.75 -8.9 29.75 -8.85 29.8 -8.85 29.85 -8.8 30.3 -8.25 30.75 -7.75 31.15 -7.2 31.55 -6.65 32.0 -6.05 32.35 -5.5 32.7 -4.9 33.05 -4.35 33.4 -3.75 33.75 -3.15 34.05 -2.5 34.35 -1.9 34.6 -1.25 34.85 -0.65 35.15 0.0 35.35 0.65 35.5 1.05 35.6 1.35 35.7 1.7 35.8 2.05 35.95 2.4 36.05 2.7 36.15 3.1 36.25 3.4 36.35 3.8 36.45 4.1 36.55 4.45 36.65 4.8 36.7 5.2 36.8 5.5 36.85 5.9 36.9 6.25 36.95 6.45 36.95 6.6 37.0 6.8 37.05 6.95 37.05 7.15 37.1 7.3 37.1 7.5 37.15 7.7 37.15 7.85 37.2 8.05 37.2 8.25 37.25 8.4 37.25 8.6 37.3 8.75 37.3 8.95 37.3 9.15 37.6 12.1 37.55 18.45 37.5 19.4 37.5 22.0 37.5 22.25 37.5 22.25 37.5 22.3 37.45 22.35 37.45 22.4 37.4 22.4 37.35 22.45 37.3 22.45 37.3 22.45 37.2 22.45 37.15 22.45 37.1 22.45 37.05 22.45 37.05 22.45 37.0 22.4 37.0 22.35 36.95 22.35 36.95 22.3 36.9 22.05 36.85 21.7 36.75 21.0 36.35 17.75 36.35 17.55 36.3 17.3 L36.3 17.3" fill="#000000" fill-rule="evenodd" stroke="none"/>
    <path d="M14.25 11.9 Q14.05 11.95 14.0 11.95 13.9 11.95 13.85 11.85 13.8 11.8 13.7 11.65 13.7 11.6 13.65 11.55 13.65 11.5 13.6 11.45 13.6 11.4 13.55 11.35 13.55 11.3 13.55 11.25 13.5 11.2 13.5 11.15 13.45 11.1 13.45 11.05 13.4 11.0 13.4 10.95 13.4 10.9 13.35 10.85 13.35 10.8 13.25 10.6 13.05 11.0 13.0 11.2 13.0 11.25 13.0 11.45 13.0 11.75 13.05 12.45 13.05 12.5 13.05 12.55 13.05 12.6 13.05 12.6 13.05 12.65 13.0 12.7 13.0 12.75 12.95 12.75 12.95 12.8 12.9 12.8 12.85 12.85 12.85 12.85 12.8 12.85 12.75 12.85 12.7 12.85 12.65 12.85 12.6 12.85 12.6 12.8 12.55 12.8 12.55 12.75 12.5 12.7 12.5 12.7 12.45 12.65 12.45 12.6 12.45 12.6 12.4 12.5 12.15 12.05 11.9 11.6 11.7 11.15 11.45 10.7 11.25 10.2 11.05 9.75 10.85 9.3 10.7 8.8 10.5 8.3 10.35 7.85 10.2 7.35 10.05 6.85 9.9 6.4 9.75 5.9 9.6 5.4 9.45 4.9 9.45 4.85 9.4 4.8 9.4 4.7 9.4 4.65 9.4 4.6 9.35 4.55 9.35 4.45 9.35 4.4 9.3 4.35 9.3 4.3 9.25 4.25 9.25 4.15 9.25 4.1 9.2 4.05 9.2 4.0 9.15 3.95 9.15 3.9 9.1 3.85 9.1 3.8 9.1 3.75 9.05 3.75 9.05 3.7 9.0 3.65 9.0 3.6 8.95 3.55 8.95 3.55 8.9 3.5 8.9 3.45 8.9 3.45 8.85 3.4 8.85 3.35 8.85 3.35 8.85 3.3 8.85 3.25 8.85 3.25 8.9 3.2 8.9 3.15 8.95 3.15 9.0 3.1 9.0 3.1 9.05 3.05 9.1 3.05 9.1 3.05 9.15 3.05 9.2 3.05 9.25 3.1 9.3 3.1 9.3 3.1 9.35 3.15 9.4 3.15 9.4 3.2 9.45 3.2 9.5 3.25 9.5 3.25 10.05 3.7 10.1 3.75 10.1 3.7 10.1 3.7 10.1 3.65 10.05 3.65 10.05 3.6 10.05 3.55 10.05 3.55 10.05 3.5 10.05 3.5 10.05 3.45 10.05 3.4 10.0 3.4 10.0 3.35 10.0 3.35 10.0 3.3 10.0 3.25 10.0 3.2 10.0 3.15 10.0 3.1 9.95 3.1 9.95 3.0 9.95 3.0 9.95 2.95 9.95 2.9 9.95 2.85 10.0 2.85 10.0 2.8 10.05 2.8 10.05 2.75 10.1 2.75 10.15 2.7 10.15 2.7 10.2 2.7 10.25 2.7 10.3 2.7 10.3 2.7 10.35 2.7 10.4 2.75 10.4 2.75 10.45 2.8 10.45 2.8 10.5 2.85 10.5 2.9 10.55 2.95 10.55 2.95 10.6 3.0 10.6 3.05 10.65 3.1 10.65 3.15 10.7 3.2 10.7 3.2 10.75 3.25 10.75 3.3 10.8 3.3 10.8 3.3 10.85 3.3 10.8 3.1 10.75 3.05 10.25 2.2 9.95 1.6 9.9 1.55 9.9 1.5 9.9 1.45 9.85 1.4 9.85 1.4 9.9 1.35 9.9 1.3 9.9 1.3 9.95 1.25 9.95 1.2 10.0 1.2 10.0 1.15 10.05 1.15 10.05 1.15 10.1 1.15 10.1 1.15 10.15 1.15 10.15 1.15 10.2 1.15 10.2 1.15 10.25 1.2 10.3 1.2 10.3 1.2 10.35 1.25 10.35 1.25 10.4 1.3 10.4 1.3 10.65 1.55 10.8 1.7 10.9 1.8 10.9 1.75 10.9 1.7 10.85 1.65 10.85 1.65 10.05 -0.05 8.3 -3.5 8.3 -3.5 8.25 -3.65 8.25 -3.7 8.25 -3.75 8.25 -3.75 8.25 -3.8 8.25 -3.85 8.25 -3.9 8.3 -3.9 8.3 -3.95 8.35 -3.95 8.4 -4.0 8.45 -4.0 8.45 -4.0 8.5 -4.05 8.55 -4.0 8.55 -4.0 8.6 -4.0 8.65 -4.0 8.65 -3.95 8.7 -3.95 8.75 -3.9 8.75 -3.85 8.8 -3.8 12.6 1.95 12.9 2.5 13.2 3.0 13.5 3.5 13.85 4.05 14.1 4.55 14.4 5.1 14.7 5.6 14.95 6.15 15.2 6.7 15.45 7.2 15.7 7.75 15.95 8.3 16.2 8.85 16.4 9.4 16.65 9.95 16.85 10.5 17.05 11.1 17.15 11.4 17.25 11.7 17.35 12.0 17.45 12.3 17.55 12.6 17.65 12.9 17.75 13.2 17.8 13.5 17.9 13.8 18.0 14.1 18.05 14.4 18.1 14.75 18.2 15.05 18.25 15.35 18.35 15.65 18.4 15.95 18.9 18.3 19.1 19.4 19.1 19.5 19.4 21.4 19.4 21.5 19.45 21.65 19.45 21.85 19.45 21.9 19.45 21.95 19.45 22.0 19.45 22.05 19.45 22.1 19.45 22.1 19.4 22.15 19.4 22.15 19.35 22.2 19.35 22.2 19.3 22.25 19.25 22.25 19.25 22.25 19.2 22.25 19.2 22.25 19.15 22.25 19.15 22.25 19.1 22.25 19.1 22.2 19.05 22.2 19.05 22.2 19.0 22.15 19.0 22.15 18.95 22.15 18.95 22.1 18.95 22.05 18.9 22.05 18.9 22.0 18.85 21.85 18.8 21.7 18.8 21.65 18.5 20.65 16.95 16.15 16.95 16.1 16.9 16.1 16.9 16.05 16.9 16.0 16.85 16.0 16.8 15.95 16.8 16.0 16.8 16.05 16.8 16.1 16.85 16.1 16.85 16.15 16.85 16.2 16.85 16.25 16.85 16.3 16.9 18.75 16.85 19.15 16.85 19.2 16.85 19.25 16.85 19.3 16.85 19.35 16.85 19.4 16.8 19.45 16.8 19.5 16.8 19.55 16.8 19.6 16.75 19.65 16.75 19.65 16.7 19.7 16.7 19.7 16.65 19.75 16.6 19.75 16.55 19.75 16.5 19.75 16.45 19.75 16.45 19.75 16.4 19.7 16.35 19.7 16.35 19.65 16.3 19.65 16.3 19.6 16.3 19.6 16.25 19.55 16.25 19.3 16.2 19.25 15.7 16.9 15.4 15.7 15.4 15.7 14.35 12.05 14.3 12.05 14.3 12.0 14.3 11.95 14.25 11.9 L14.25 11.9" fill="#000000" fill-rule="evenodd" stroke="none"/>
    <path d="M-60.4 2.1 Q-60.35 2.05 -60.3 2.05 -60.25 1.95 -60.2 1.95 -60.15 1.9 -60.15 1.9 -60.1 1.85 -60.05 1.8 -60.0 1.75 -59.95 1.7 -59.9 1.7 -59.9 1.65 -59.85 1.6 -59.8 1.55 -59.75 1.5 -59.75 1.45 -59.75 1.4 -59.7 1.4 -59.7 1.35 -59.65 1.35 -59.65 1.3 -59.6 1.3 -59.6 1.3 -59.55 1.25 -59.55 1.25 -59.5 1.25 -59.5 1.25 -59.5 1.25 -59.45 1.25 -59.4 1.25 -59.4 1.25 -59.35 1.25 -59.35 1.25 -59.3 1.3 -59.3 1.3 -59.25 1.3 -59.25 1.35 -59.25 1.35 -59.2 1.4 -59.2 1.4 -59.2 1.45 -59.2 1.45 -59.2 1.5 -59.2 1.5 -59.2 1.55 -59.2 1.6 -59.2 1.6 -59.2 1.65 -59.4 2.2 -59.5 2.5 -59.55 2.65 -59.6 2.8 -59.7 3.0 -59.75 3.15 -59.8 3.3 -59.9 3.45 -59.95 3.6 -60.05 3.75 -60.1 3.9 -60.2 4.05 -60.25 4.2 -60.35 4.35 -60.4 4.5 -60.5 4.65 -60.6 4.8 -60.65 4.95 -60.75 5.1 -60.85 5.25 -60.95 5.45 -61.05 5.6 -61.15 5.75 -61.25 5.9 -61.4 6.05 -61.5 6.2 -61.6 6.3 -61.75 6.45 -61.85 6.6 -62.0 6.7 -62.1 6.85 -62.25 7.0 -62.4 7.1 -62.55 7.25 -63.3 7.9 -63.6 8.1 -63.9 8.3 -64.5 8.6 -64.55 8.6 -64.6 8.65 -64.6 8.65 -64.65 8.65 -64.7 8.7 -64.75 8.7 -64.75 8.7 -64.8 8.7 -64.8 8.7 -64.85 8.65 -64.85 8.65 -64.9 8.65 -64.9 8.65 -64.95 8.6 -64.95 8.6 -64.95 8.55 -65.0 8.5 -65.0 8.45 -65.0 8.4 -65.0 8.4 -65.0 8.35 -65.0 8.3 -65.0 8.25 -64.95 8.2 -65.65 9.3 -64.9 8.15 -64.75 7.95 -64.25 7.05 -64.25 7.05 -64.25 6.95 -64.3 7.0 -64.35 7.0 -64.4 7.05 -64.4 7.05 -64.65 7.25 -64.95 7.45 -65.2 7.65 -65.45 7.8 -65.75 8.0 -66.0 8.2 -66.3 8.35 -66.55 8.5 -66.85 8.7 -67.15 8.85 -67.45 9.0 -67.7 9.15 -68.0 9.3 -68.3 9.4 -68.6 9.55 -68.9 9.7 -68.95 9.7 -69.0 9.75 -69.05 9.75 -69.1 9.75 -69.15 9.75 -69.15 9.75 -69.2 9.75 -69.25 9.75 -69.25 9.75 -69.3 9.75 -69.3 9.75 -69.35 9.7 -69.35 9.7 -69.4 9.7 -69.4 9.65 -69.4 9.65 -69.4 9.6 -69.45 9.6 -69.45 9.55 -69.45 9.55 -69.45 9.5 -69.45 9.5 -69.45 9.45 -69.45 9.4 -69.45 9.4 -69.4 9.35 -69.4 9.35 -69.35 9.3 -69.35 9.25 -69.3 9.25 -69.3 9.2 -69.25 9.2 -69.1 9.1 -68.7 8.75 -68.45 8.55 -68.2 8.35 -67.9 8.15 -67.65 7.95 -67.4 7.7 -67.15 7.5 -66.9 7.3 -66.7 7.05 -66.45 6.85 -66.2 6.6 -65.95 6.4 -65.75 6.15 -65.5 5.9 -65.3 5.7 -65.05 5.45 -64.85 5.2 -64.8 5.15 -64.75 5.1 -64.7 5.05 -64.7 5.0 -64.65 4.95 -64.6 4.85 -64.6 4.8 -64.55 4.75 -64.55 4.7 -64.55 4.65 -64.5 4.6 -64.5 4.5 -64.45 4.25 -64.45 4.4 -64.45 4.3 -64.4 4.25 -64.45 4.25 -64.45 4.3 -64.5 4.3 -64.5 4.35 -64.55 4.35 -64.55 4.35 -64.9 4.75 -65.25 5.1 -65.55 5.45 -65.95 5.8 -66.3 6.15 -66.65 6.5 -67.05 6.85 -67.4 7.15 -67.8 7.45 -68.2 7.8 -68.55 8.1 -69.0 8.4 -69.4 8.7 -69.8 9.0 -70.2 9.25 -70.6 9.55 -70.75 9.65 -71.0 9.8 -71.25 9.95 -71.35 10.0 -71.4 10.05 -71.4 10.05 -71.45 10.05 -71.5 10.1 -71.5 10.1 -71.55 10.1 -71.6 10.15 -71.6 10.15 -71.65 10.15 -71.7 10.15 -71.75 10.15 -71.8 10.15 -71.8 10.1 -71.85 10.1 -71.9 10.05 -71.9 10.05 -71.95 10.0 -71.95 9.95 -71.95 9.9 -71.95 9.85 -71.95 9.85 -71.95 9.8 -71.9 9.75 -71.9 9.7 -71.75 9.6 -71.65 9.5 -71.15 9.0 -70.65 8.5 -70.2 8.0 -69.7 7.55 -69.2 7.0 -68.75 6.5 -68.3 6.0 -67.85 5.5 -67.4 4.95 -66.95 4.45 -66.5 3.9 -66.05 3.35 -65.65 2.8 -65.2 2.3 -64.8 1.7 -64.4 1.15 -64.15 0.75 -63.85 0.4 -63.6 0.0 -63.35 -0.4 -63.1 -0.8 -62.85 -1.2 -62.6 -1.6 -62.4 -2.0 -62.15 -2.4 -61.9 -2.85 -61.7 -3.25 -61.5 -3.65 -61.25 -4.05 -61.05 -4.5 -60.85 -4.9 -60.65 -5.35 -60.35 -5.9 -59.45 -8.0 -59.4 -8.1 -59.3 -8.45 -59.3 -8.5 -59.25 -8.5 -59.25 -8.55 -59.2 -8.6 -59.2 -8.6 -59.15 -8.6 -59.1 -8.65 -59.05 -8.65 -59.05 -8.65 -59.0 -8.65 -58.95 -8.65 -58.9 -8.65 -58.85 -8.6 -58.85 -8.6 -58.8 -8.55 -58.8 -8.55 -58.75 -8.5 -58.75 -8.45 -58.75 -8.4 -58.75 -8.35 -58.75 -8.3 -58.75 -8.25 -58.75 -8.25 -58.75 -8.2 -58.75 -8.15 -58.75 -8.1 -58.8 -8.05 -58.8 -8.05 -58.9 -7.55 -59.05 -7.05 -59.15 -6.5 -59.3 -6.0 -59.4 -5.5 -59.55 -5.0 -59.7 -4.5 -59.85 -4.0 -60.05 -3.55 -60.2 -3.05 -60.4 -2.55 -60.6 -2.1 -60.8 -1.6 -61.0 -1.1 -61.2 -0.65 -61.45 -0.2 -61.45 -0.15 -61.5 -0.15 -61.5 -0.1 -61.5 -0.05 -61.5 -0.05 -61.5 0.0 -61.55 0.05 -61.55 0.05 -61.55 0.1 -61.55 0.15 -61.55 0.15 -61.55 0.2 -61.55 0.25 -61.55 0.3 -61.5 0.3 -61.5 0.35 -61.45 0.3 -61.4 0.25 -61.35 0.15 -61.35 0.15 -60.15 -1.85 -58.05 -5.3 -58.05 -5.3 -58.0 -5.4 -57.95 -5.45 -57.95 -5.45 -57.9 -5.5 -57.85 -5.5 -57.85 -5.55 -57.8 -5.55 -57.75 -5.55 -57.7 -5.55 -57.65 -5.55 -57.65 -5.55 -57.6 -5.55 -57.55 -5.5 -57.5 -5.5 -57.5 -5.45 -57.5 -5.45 -57.45 -5.4 -57.45 -5.35 -57.45 -5.35 -57.45 -5.3 -57.45 -5.25 -57.45 -5.2 -57.45 -5.15 -58.85 -1.2 -60.0 1.2 -60.05 1.25 -60.35 1.9 -60.35 1.95 -60.4 2.0 -60.4 2.05 -60.4 2.1 L-60.4 2.1" fill="#000000" fill-rule="evenodd" stroke="none"/>
    <path d="M-40.8 23.9 Q-40.85 24.05 -40.95 24.55 -40.95 24.55 -41.0 24.8 -41.05 24.95 -41.1 25.05 -41.2 25.3 -41.65 27.55 -41.65 27.6 -41.65 27.6 -41.65 27.65 -41.65 27.65 -41.65 27.7 -41.7 27.75 -41.7 27.8 -41.7 27.85 -41.75 27.9 -41.75 27.9 -41.75 27.95 -41.8 27.95 -41.85 28.0 -41.85 28.0 -41.9 28.0 -41.95 28.0 -42.0 28.0 -42.05 28.0 -42.1 28.0 -42.2 27.95 -42.2 28.15 -42.25 28.5 -42.3 28.75 -42.35 29.4 -42.45 29.95 -42.5 30.3 -42.5 30.35 -42.5 30.35 -42.5 30.4 -42.5 30.45 -42.55 30.45 -42.55 30.5 -42.55 30.55 -42.6 30.55 -42.6 30.6 -42.65 30.65 -42.65 30.65 -42.7 30.65 -42.7 30.7 -42.75 30.7 -42.8 30.7 -42.85 30.7 -42.9 30.7 -42.95 30.7 -42.95 30.65 -43.0 30.65 -43.0 30.6 -43.05 30.6 -43.05 30.55 -43.1 30.5 -43.1 30.45 -43.1 30.45 -43.15 29.7 -43.15 29.6 -43.2 28.8 -43.3 27.55 -43.45 25.95 -43.5 25.45 -43.55 25.0 -43.65 23.5 -43.8 22.25 -43.85 21.5 -44.0 18.8 -44.05 16.85 -44.05 15.7 -44.1 13.8 -44.1 11.45 -44.1 10.75 -44.1 10.55 -44.1 9.8 -44.1 9.8 -44.1 9.75 -44.1 9.7 -44.1 9.65 -44.1 9.6 -44.05 9.55 -44.05 9.55 -44.0 9.5 -44.0 9.5 -43.95 9.45 -43.9 9.45 -43.9 9.45 -43.85 9.4 -43.8 9.4 -43.75 9.4 -43.7 9.4 -43.7 9.45 -43.65 9.45 -43.6 9.5 -43.6 9.5 -43.6 9.55 -43.55 9.6 -43.55 9.6 -43.55 9.65 -43.5 9.85 -43.45 10.2 -43.4 10.6 -43.35 10.75 -43.25 11.25 -42.7 14.25 -42.55 15.4 -42.5 15.7 -42.5 15.75 -42.5 15.8 -42.45 15.85 -42.4 15.85 -42.4 15.85 -42.4 15.8 -42.4 15.75 -42.4 15.7 -42.3 15.3 -42.25 14.65 -42.25 14.6 -42.25 14.55 -42.2 14.5 -42.2 14.45 -42.15 14.4 -42.15 14.4 -42.1 14.35 -42.05 14.35 -42.0 14.35 -42.0 14.35 -41.95 14.3 -41.95 14.3 -41.9 14.3 -41.85 14.35 -41.85 14.35 -41.8 14.35 -41.8 14.35 -41.75 14.4 -41.75 14.4 -41.75 14.45 -41.7 14.45 -41.7 14.5 -41.7 14.5 -41.7 14.55 -41.65 14.75 -41.6 15.35 -41.5 16.15 -41.25 17.9 -41.25 17.9 -41.2 18.0 -41.15 18.0 -41.1 18.0 -41.05 18.05 -41.0 18.05 -41.0 18.05 -40.95 18.1 -40.95 18.1 -40.9 18.15 -40.9 18.15 -40.85 18.2 -40.85 18.25 -40.85 18.3 -40.85 18.35 -40.8 18.35 -40.8 18.4 -40.8 18.45 -40.8 18.5 -40.8 18.55 -40.8 18.6 -40.8 18.7 -40.75 18.75 -40.75 18.8 -40.75 18.85 -40.75 18.9 -40.75 18.95 -40.75 19.0 -40.7 19.05 -40.7 19.1 -40.7 19.2 -40.7 19.25 -40.65 19.3 -40.65 19.35 -40.65 19.3 -40.6 19.2 -40.6 19.15 -40.6 19.1 -40.3 17.9 -40.1 17.6 -40.1 17.55 -40.05 17.5 -40.05 17.5 -40.0 17.45 -40.0 17.4 -39.95 17.35 -39.95 17.35 -39.9 17.3 -39.85 17.25 -39.8 17.25 -39.75 17.2 -39.7 17.2 -39.65 17.2 -39.6 17.25 -39.55 17.3 -39.55 17.3 -39.5 17.35 -39.5 17.35 -39.5 17.4 -39.45 17.45 -39.45 17.45 -39.45 17.5 -39.55 17.8 -39.35 19.1 -39.3 19.4 -39.25 19.65 -39.25 19.9 -39.2 20.2 -39.15 20.45 -39.15 20.75 -39.1 21.0 -39.1 21.25 -39.05 21.55 -39.05 21.8 -39.05 22.1 -39.05 22.35 -39.05 22.65 -39.1 22.9 -39.1 23.15 -39.1 23.45 -39.1 23.6 -39.15 23.8 -39.15 23.95 -39.2 24.1 -39.2 24.3 -39.25 24.45 -39.25 24.6 -39.3 24.75 -39.3 24.95 -39.35 25.1 -39.35 25.25 -39.4 25.45 -39.45 25.6 -39.5 25.75 -39.55 25.9 -39.6 26.1 -39.6 26.15 -39.6 26.2 -39.65 26.25 -39.65 26.3 -39.65 26.35 -39.7 26.35 -39.7 26.4 -39.75 26.4 -39.8 26.45 -39.8 26.45 -39.85 26.45 -39.9 26.45 -39.95 26.45 -40.0 26.45 -40.05 26.45 -40.05 26.4 -40.1 26.4 -40.15 26.35 -40.15 26.35 -40.2 26.3 -40.2 26.2 -40.25 26.0 -40.45 25.35 -40.8 23.9 L-40.8 23.9" fill="#000000" fill-rule="evenodd" stroke="none"/>
    <path d="M-8.1 16.9 Q-8.1 16.85 -8.05 16.8 -8.05 16.8 -8.05 16.75 -8.05 16.7 -8.0 16.7 -8.0 16.65 -8.0 16.65 -7.95 16.6 -7.95 16.6 -7.9 16.55 -7.85 16.55 -7.85 16.55 -7.8 16.5 -7.75 16.5 -7.75 16.5 -7.7 16.5 -7.65 16.55 -7.6 16.55 -7.55 16.6 -7.55 16.65 -7.5 16.65 -7.5 16.7 -7.45 16.7 -7.45 16.75 -7.45 16.8 -7.45 16.85 -7.4 16.85 -7.4 16.9 -7.4 16.95 -7.35 17.0 -7.35 17.05 -7.2 16.45 -7.1 16.05 -7.1 16.0 -7.1 15.95 -7.1 15.9 -7.1 15.85 -7.1 15.8 -7.05 15.8 -7.0 15.75 -7.0 15.75 -6.95 15.7 -6.9 15.7 -6.85 15.7 -6.8 15.7 -6.75 15.7 -6.75 15.7 -6.7 15.7 -6.65 15.75 -6.65 15.75 -6.6 15.8 -6.6 15.8 -6.55 15.85 -6.55 15.9 -6.55 15.95 -6.5 16.1 -6.5 16.25 -6.45 16.4 -6.45 16.55 -6.4 16.7 -6.4 16.8 -6.35 16.95 -6.35 17.1 -6.35 17.25 -6.3 17.4 -6.3 17.55 -6.3 17.7 -6.3 17.85 -6.3 18.0 -6.3 18.15 -6.3 18.3 -6.3 18.4 -6.3 18.5 -6.35 18.55 -6.35 18.65 -6.35 18.75 -6.4 18.85 -6.4 18.9 -6.4 19.0 -6.45 19.1 -6.45 19.2 -6.45 19.3 -6.5 19.35 -6.5 19.45 -6.55 19.55 -6.6 19.65 -6.6 19.7 -6.65 19.85 -6.7 19.9 -6.75 19.95 -6.8 20.0 -6.85 20.0 -6.95 20.0 -7.0 20.0 -7.05 20.0 -7.1 19.95 -7.15 19.85 -7.2 19.8 -7.2 19.75 -7.2 19.75 -7.25 19.65 -7.3 19.55 -7.3 19.4 -7.3 19.3 -7.35 19.2 -7.35 19.1 -7.4 18.95 -7.4 18.85 -7.4 18.75 -7.4 18.65 -7.4 18.5 -7.45 18.4 -7.45 18.3 -7.45 18.2 -7.45 18.05 -7.45 17.95 -7.45 17.85 -7.85 17.9 -7.85 17.9 -7.85 17.9 -8.1 17.6 -8.1 17.65 -8.15 17.7 -8.2 17.75 -8.2 17.8 -8.2 17.8 -8.25 17.85 -8.25 17.9 -8.3 17.9 -8.3 17.95 -8.35 17.95 -8.4 18.0 -8.4 18.0 -8.45 18.0 -8.5 18.05 -8.55 18.05 -8.6 18.05 -8.6 18.0 -8.65 18.0 -8.7 17.95 -8.7 17.9 -8.75 17.9 -8.75 17.85 -8.75 17.8 -8.8 17.75 -8.8 17.7 -8.85 17.65 -8.85 17.6 -8.85 17.55 -8.85 17.45 -8.9 17.4 -8.9 17.35 -8.9 17.3 -8.9 17.25 -8.9 17.2 -8.9 17.15 -8.9 17.1 -8.9 17.05 -8.9 17.0 -8.9 16.95 -8.85 16.8 -8.8 16.65 -8.75 16.55 -8.75 16.5 -8.7 16.45 -8.7 16.4 -8.7 16.4 -8.65 16.35 -8.65 16.35 -8.6 16.35 -8.55 16.3 -8.5 16.3 -8.5 16.3 -8.45 16.3 -8.4 16.3 -8.35 16.35 -8.35 16.35 -8.3 16.4 -8.3 16.4 -8.25 16.45 -8.25 16.5 -8.2 16.5 -8.2 16.55 -8.2 16.65 -8.1 16.9 L-8.1 16.9" fill="#000000" fill-rule="evenodd" stroke="none"/>
    <path d="M31.35 9.5 Q31.3 9.9 31.3 10.1 31.3 10.15 31.25 10.2 31.25 10.2 31.2 10.25 31.15 10.25 31.1 10.3 31.05 10.3 31.0 10.3 30.95 10.3 30.9 10.3 30.9 10.3 30.85 10.25 30.8 10.25 30.8 10.2 30.75 10.2 30.75 10.15 30.65 10.0 30.6 9.85 30.55 9.7 30.45 9.55 30.4 9.4 30.35 9.25 30.25 9.1 30.2 8.95 30.15 8.8 30.1 8.65 30.05 8.5 30.05 8.35 30.0 8.2 29.95 8.0 29.95 7.85 29.95 7.7 29.9 7.3 29.8 6.7 29.8 6.65 29.8 6.6 29.8 6.55 29.8 6.5 29.85 6.5 29.85 6.45 29.85 6.4 29.9 6.4 29.9 6.35 29.95 6.35 30.0 6.35 30.0 6.35 30.05 6.35 30.05 6.35 30.1 6.35 30.1 6.35 30.15 6.35 30.15 6.35 30.2 6.35 30.2 6.4 30.25 6.4 30.25 6.4 30.3 6.45 30.3 6.45 30.35 6.5 30.35 6.5 30.4 6.6 30.5 6.7 30.55 6.85 30.6 6.95 30.65 7.05 30.7 7.15 30.8 7.3 30.85 7.4 30.9 7.5 30.95 7.6 31.0 7.75 31.0 7.85 31.05 7.95 31.1 8.1 31.15 8.2 31.15 8.35 31.2 8.55 31.35 9.5 L31.35 9.5" fill="#000000" fill-rule="evenodd" stroke="none"/>
    <path d="M-38.65 22.45 Q-38.55 21.6 -38.45 20.65 -38.45 20.6 -38.4 20.55 -38.4 20.55 -38.4 20.5 -38.35 20.45 -38.3 20.45 -38.3 20.45 -38.25 20.4 -38.2 20.4 -38.15 20.4 -38.1 20.4 -38.05 20.4 -38.05 20.4 -38.0 20.45 -37.95 20.45 -37.95 20.5 -37.9 20.5 -37.9 20.55 -37.9 20.6 -37.9 20.65 -37.85 20.85 -37.85 21.05 -37.8 21.25 -37.75 21.45 -37.75 21.65 -37.7 21.85 -37.7 22.05 -37.7 22.25 -37.7 22.45 -37.7 22.65 -37.7 22.85 -37.7 23.05 -37.75 23.25 -37.75 23.45 -37.8 23.65 -37.8 23.85 -37.8 23.9 -37.85 23.95 -37.85 24.0 -37.85 24.05 -37.9 24.1 -37.9 24.1 -37.9 24.15 -37.95 24.15 -38.0 24.2 -38.0 24.2 -38.05 24.25 -38.05 24.25 -38.1 24.25 -38.15 24.25 -38.2 24.25 -38.25 24.25 -38.25 24.25 -38.3 24.25 -38.35 24.25 -38.35 24.2 -38.4 24.15 -38.4 24.1 -38.4 24.05 -38.45 24.05 -38.45 24.0 -38.45 23.95 -38.45 23.95 -38.45 23.9 -38.55 23.45 -38.65 22.45 L-38.65 22.45" fill="#000000" fill-rule="evenodd" stroke="none"/>
    <path d="M-60.6 6.7 Q-60.6 6.7 -60.55 6.45 -60.5 6.3 -60.45 6.2 -60.4 6.05 -60.35 5.95 -60.3 5.8 -60.25 5.7 -60.15 5.6 -60.1 5.45 -60.0 5.35 -59.95 5.25 -59.85 5.15 -59.75 5.05 -59.7 4.95 -59.6 4.8 -59.5 4.7 -59.4 4.6 -59.35 4.55 -59.35 4.55 -59.3 4.5 -59.25 4.5 -59.2 4.5 -59.15 4.5 -59.1 4.55 -59.05 4.55 -59.0 4.6 -59.0 4.6 -58.95 4.65 -58.95 4.7 -58.9 4.75 -58.9 4.75 -58.9 4.8 -58.95 4.85 -59.0 5.0 -59.05 5.1 -59.1 5.25 -59.1 5.4 -59.15 5.55 -59.25 5.65 -59.3 5.8 -59.35 5.9 -59.4 6.05 -59.45 6.15 -59.55 6.25 -59.6 6.4 -59.7 6.5 -59.8 6.6 -59.9 6.75 -60.0 6.85 -60.0 6.85 -60.05 6.9 -60.05 6.9 -60.1 6.95 -60.15 7.0 -60.15 7.0 -60.2 7.0 -60.25 7.05 -60.3 7.05 -60.35 7.05 -60.35 7.0 -60.4 7.0 -60.45 7.0 -60.45 6.95 -60.5 6.95 -60.5 6.9 -60.55 6.9 -60.55 6.85 -60.55 6.8 -60.6 6.8 -60.6 6.75 -60.6 6.7 L-60.6 6.7" fill="#000000" fill-rule="evenodd" stroke="none"/>
    <path d="M-36.55 22.3 Q-36.5 22.3 -36.45 22.3 -36.4 22.3 -36.35 22.3 -36.3 22.3 -36.3 22.35 -36.25 22.35 -36.2 22.4 -36.15 22.4 -36.15 22.45 -36.15 22.5 -36.1 22.5 -36.1 22.55 -36.05 22.55 -36.05 22.6 -36.05 22.6 -36.05 22.65 -36.05 22.65 -36.0 22.7 -36.0 22.75 -36.0 22.75 -36.0 22.8 -36.05 22.8 -36.05 22.85 -36.05 22.85 -36.05 22.9 -36.05 22.95 -36.1 22.95 -36.1 23.0 -36.15 23.05 -36.15 23.05 -36.2 23.05 -36.25 23.1 -36.25 23.1 -36.3 23.1 -36.35 23.1 -36.35 23.1 -36.4 23.1 -36.45 23.1 -36.45 23.05 -36.5 23.05 -36.55 23.0 -36.55 23.0 -36.7 22.8 -36.75 22.85 -36.75 22.85 -36.75 22.85 -36.8 22.9 -36.85 22.95 -36.9 22.95 -36.9 23.0 -36.95 23.0 -37.0 23.0 -37.05 23.0 -37.1 23.0 -37.1 23.0 -37.15 23.0 -37.2 23.0 -37.2 22.95 -37.25 22.95 -37.25 22.9 -37.3 22.85 -37.3 22.8 -37.35 22.75 -37.35 22.7 -37.4 22.65 -37.4 22.6 -37.4 22.55 -37.45 22.5 -37.45 22.45 -37.45 22.4 -37.45 22.35 -37.45 22.3 -37.45 22.25 -37.45 22.2 -37.45 22.15 -37.45 22.1 -37.45 22.0 -37.45 21.95 -37.4 21.9 -37.4 21.75 -37.2 21.4 -37.2 21.35 -37.15 21.3 -37.1 21.25 -37.1 21.25 -37.05 21.25 -37.0 21.2 -36.95 21.2 -36.9 21.2 -36.85 21.2 -36.8 21.25 -36.8 21.25 -36.75 21.3 -36.75 21.3 -36.7 21.35 -36.7 21.4 -36.7 21.45 -36.65 21.7 -36.55 22.3 L-36.55 22.3" fill="#000000" fill-rule="evenodd" stroke="none"/>
    <path d="M29.4 9.35 Q29.35 9.7 29.35 9.7 29.35 9.75 29.3 9.8 29.3 9.85 29.25 9.85 29.2 9.9 29.2 9.95 29.15 9.95 29.1 9.95 29.05 9.95 29.05 9.95 29.0 9.95 28.95 9.95 28.9 9.9 28.85 9.9 28.85 9.85 28.8 9.8 28.75 9.75 28.75 9.75 28.7 9.7 28.7 9.65 28.65 9.6 28.65 9.6 28.6 9.55 28.6 9.5 28.6 9.45 28.55 9.4 28.55 9.35 28.55 9.3 28.55 9.25 28.55 9.2 28.55 9.2 28.55 9.15 28.55 9.1 28.55 9.05 28.55 9.05 28.55 9.0 28.55 8.95 28.55 8.9 28.55 8.85 28.55 8.85 28.55 8.8 28.55 8.75 28.55 8.7 28.55 8.7 28.6 8.65 28.6 8.6 28.6 8.6 28.6 8.55 28.6 8.5 28.65 8.45 28.65 8.4 28.7 8.4 28.7 8.35 28.75 8.35 28.8 8.35 28.85 8.35 28.9 8.35 28.95 8.35 29.0 8.4 29.05 8.4 29.05 8.45 29.1 8.45 29.15 8.55 29.15 8.55 29.2 8.6 29.2 8.65 29.25 8.7 29.25 8.75 29.3 8.85 29.3 8.9 29.35 8.95 29.35 9.0 29.35 9.05 29.4 9.1 29.4 9.15 29.4 9.25 29.4 9.3 29.4 9.35 L29.4 9.35" fill="#000000" fill-rule="evenodd" stroke="none"/>
    <path d="M-59.25 6.25 Q-59.25 6.2 -59.25 6.15 -59.2 6.1 -59.2 6.05 -59.2 6.0 -59.15 5.95 -59.1 5.9 -59.1 5.85 -59.05 5.8 -59.0 5.75 -58.95 5.75 -58.9 5.7 -58.9 5.65 -58.85 5.65 -58.8 5.65 -58.75 5.6 -58.7 5.6 -58.65 5.6 -58.65 5.6 -58.6 5.6 -58.55 5.6 -58.55 5.6 -58.5 5.65 -58.5 5.65 -58.45 5.65 -58.45 5.7 -58.45 5.7 -58.4 5.75 -58.4 5.75 -58.4 5.8 -58.35 5.8 -58.35 5.85 -58.35 5.9 -58.35 5.95 -58.35 6.0 -58.35 6.05 -58.35 6.1 -58.35 6.15 -58.4 6.2 -58.4 6.25 -58.45 6.3 -58.45 6.35 -58.5 6.4 -58.55 6.45 -58.55 6.45 -58.6 6.5 -58.65 6.55 -58.7 6.55 -58.75 6.6 -58.8 6.6 -58.85 6.6 -58.9 6.6 -58.95 6.6 -59.0 6.6 -59.05 6.6 -59.05 6.55 -59.1 6.55 -59.15 6.5 -59.15 6.5 -59.2 6.45 -59.2 6.4 -59.2 6.35 -59.25 6.3 -59.25 6.25 L-59.25 6.25" fill="#000000" fill-rule="evenodd" stroke="none"/>
    <path d="M9.6 8.15 Q9.65 8.15 9.7 8.2 9.75 8.2 9.8 8.25 9.8 8.25 9.85 8.3 9.85 8.35 9.85 8.45 9.85 8.5 9.85 8.55 9.8 8.6 9.75 8.6 9.7 8.65 9.7 8.65 9.6 8.7 9.55 8.7 9.5 8.7 9.5 8.65 9.45 8.65 9.4 8.6 9.4 8.6 9.35 8.55 9.35 8.5 9.3 8.5 9.3 8.45 9.3 8.4 9.3 8.35 9.35 8.25 9.4 8.2 9.45 8.2 9.5 8.15 9.6 8.15 L9.6 8.15" fill="#000000" fill-rule="evenodd" stroke="none"/>
    <path d="M-10.5 17.85 Q-10.6 17.85 -10.65 17.8 -10.7 17.8 -10.75 17.75 -10.8 17.65 -10.8 17.6 -10.8 17.5 -10.75 17.4 -10.65 17.3 -10.55 17.3 -10.5 17.3 -10.45 17.3 -10.4 17.35 -10.4 17.35 -10.35 17.4 -10.3 17.4 -10.3 17.45 -10.3 17.5 -10.25 17.5 -10.25 17.55 -10.25 17.65 -10.3 17.7 -10.3 17.75 -10.4 17.8 -10.45 17.85 -10.5 17.85 L-10.5 17.85" fill="#000000" fill-rule="evenodd" stroke="none"/>
    <path d="M-9.4 17.3 Q-9.35 17.3 -9.3 17.35 -9.25 17.35 -9.25 17.35 -9.2 17.4 -9.2 17.45 -9.15 17.45 -9.15 17.5 -9.15 17.55 -9.15 17.6 -9.15 17.65 -9.2 17.75 -9.25 17.8 -9.3 17.8 -9.35 17.85 -9.45 17.85 -9.5 17.85 -9.55 17.8 -9.6 17.8 -9.6 17.75 -9.65 17.7 -9.65 17.65 -9.7 17.6 -9.7 17.55 -9.7 17.5 -9.65 17.45 -9.6 17.4 -9.55 17.35 -9.5 17.3 -9.4 17.3 L-9.4 17.3" fill="#000000" fill-rule="evenodd" stroke="none"/>
    <path d="M-2.25 14.6 Q-2.25 14.65 -2.25 14.85 -2.25 14.85 -2.3 14.85 -2.3 14.8 -2.25 14.6 -2.25 14.6 -2.25 14.6 L-2.25 14.6" fill="#ffffff" fill-rule="evenodd" stroke="none"/>
  </g>
</svg>
