<?xml version="1.0" encoding="UTF-8" standalone="no"?>
<svg xmlns:xlink="http://www.w3.org/1999/xlink" height="122.55px" width="158.9px" xmlns="http://www.w3.org/2000/svg">
  <g transform="matrix(1.0, 0.0, 0.0, 1.0, 79.45, 61.25)">
    <path d="M40.7 61.15 Q40.7 61.15 40.65 61.15 40.65 61.15 40.6 61.15 40.6 60.95 40.6 60.15 40.6 59.55 40.65 59.15 40.65 59.05 40.65 59.0 40.65 58.9 40.65 58.85 40.65 58.75 40.65 58.7 40.65 58.6 40.7 58.55 40.7 58.45 40.7 58.4 40.7 58.3 40.7 58.25 40.7 58.15 40.75 58.1 40.75 58.0 40.75 57.95 41.3 55.25 41.35 53.75 41.35 53.65 41.35 53.55 41.35 53.4 41.35 53.3 41.35 53.2 41.35 53.1 41.35 53.0 41.35 52.85 41.35 52.75 41.35 52.65 41.35 52.55 41.35 52.4 41.35 52.3 41.35 52.2 41.35 52.1 41.35 51.95 41.25 51.75 41.3 51.85 41.3 51.75 41.2 51.75 41.15 51.75 41.1 51.75 41.05 51.75 41.05 51.75 41.0 51.8 40.95 51.85 40.95 51.85 40.4 52.4 40.3 52.5 40.2 52.6 40.1 52.65 40.0 52.75 39.9 52.85 39.8 52.9 39.7 53.0 39.6 53.05 39.5 53.15 39.4 53.2 39.3 53.3 39.2 53.35 39.1 53.45 38.95 53.5 38.85 53.55 38.75 53.6 38.7 53.6 38.65 53.65 38.6 53.65 38.55 53.65 38.5 53.7 38.5 53.7 38.45 53.7 38.4 53.7 38.35 53.75 38.3 53.75 38.25 53.75 38.2 53.75 38.15 53.75 38.1 53.7 38.05 53.7 38.0 53.7 37.85 53.65 37.8 53.65 37.75 53.6 37.75 53.55 37.75 53.5 37.85 53.3 37.95 53.05 38.1 52.75 38.2 52.5 38.3 52.25 38.45 51.95 38.55 51.7 38.65 51.4 38.75 51.15 38.85 50.85 38.95 50.6 39.05 50.3 39.15 50.0 39.25 49.75 39.35 49.45 39.4 49.2 39.5 48.9 39.8 48.0 39.9 47.45 39.95 47.3 39.9 47.35 39.95 47.3 39.9 47.3 39.85 47.25 39.8 47.3 39.8 47.3 39.75 47.35 39.65 47.4 39.6 47.45 39.5 47.55 39.4 47.6 39.35 47.65 39.25 47.75 39.2 47.8 39.1 47.85 39.05 47.95 38.95 48.0 38.9 48.05 38.85 48.15 38.75 48.2 38.7 48.3 38.6 48.35 38.55 48.45 38.05 49.0 37.1 50.1 36.15 51.2 35.65 51.7 35.45 51.9 35.25 52.15 35.05 52.35 34.85 52.55 34.65 52.75 34.45 52.95 34.25 53.15 34.05 53.35 33.85 53.55 33.65 53.75 33.4 53.95 33.2 54.1 33.0 54.3 32.75 54.5 32.55 54.65 32.3 54.85 32.3 54.85 32.25 54.9 32.1 55.0 32.2 54.9 32.2 54.95 32.15 54.95 32.15 54.95 32.1 54.95 32.1 55.0 32.05 55.0 32.05 55.0 32.0 55.05 31.95 55.05 31.95 55.05 31.9 55.05 31.9 55.05 31.9 55.0 31.9 54.95 31.9 54.9 31.9 54.85 31.9 54.8 31.95 54.75 32.0 54.55 32.1 54.2 32.2 53.8 32.2 53.65 32.3 53.35 32.35 53.0 32.45 52.7 32.55 52.35 32.6 52.05 32.7 51.75 32.8 51.4 32.9 51.1 33.0 50.8 33.1 50.45 33.2 50.15 33.3 49.85 33.4 49.55 33.5 49.2 33.6 48.9 33.7 48.6 35.3 44.1 35.8 42.45 35.9 42.1 36.0 41.8 36.1 41.45 36.2 41.15 36.25 40.8 36.35 40.5 36.45 40.15 36.55 39.85 36.6 39.5 36.7 39.2 36.8 38.85 36.85 38.5 36.95 38.2 37.05 37.85 37.1 37.55 37.2 37.2 37.25 36.85 37.35 36.5 37.4 36.15 37.5 35.8 37.55 35.45 37.6 35.1 37.7 34.75 37.75 34.4 37.8 34.05 37.9 33.7 37.95 33.35 38.0 33.0 38.05 32.65 38.1 32.3 38.2 31.95 38.25 31.6 38.25 31.5 38.3 31.4 38.3 31.3 38.3 31.15 38.3 31.05 38.3 30.95 38.3 30.85 38.3 30.75 38.3 30.65 38.25 30.55 38.25 30.45 38.25 30.35 38.2 30.2 38.15 30.1 38.15 30.0 38.1 29.9 37.95 29.6 37.5 28.65 37.1 27.9 36.85 27.4 36.45 26.7 35.6 25.05 34.75 23.5 34.3 22.65 33.55 21.25 30.0 14.65 29.9 14.5 29.95 14.55 29.9 14.5 29.9 14.45 29.85 14.4 29.8 14.4 29.8 14.35 29.7 14.35 29.7 14.4 29.65 14.4 29.65 14.45 29.65 14.45 29.65 14.5 29.6 14.55 29.6 14.55 29.6 14.6 29.6 14.65 29.6 14.65 29.6 14.7 29.6 14.75 29.6 14.75 29.65 14.8 29.65 14.8 29.65 14.85 29.85 16.0 30.15 17.7 30.4 19.55 30.55 20.8 30.7 22.75 30.75 23.7 30.8 25.7 30.75 26.85 30.75 28.2 30.7 28.85 30.5 30.95 30.3 32.0 30.25 32.2 30.25 32.4 30.2 32.6 30.2 32.8 30.15 33.0 30.1 33.2 30.05 33.4 30.05 33.6 30.0 33.8 29.95 34.0 29.9 34.2 29.85 34.4 29.85 34.6 29.8 34.8 29.75 35.0 29.7 35.15 29.65 35.3 29.6 35.4 29.6 35.55 29.55 35.65 29.5 35.8 29.45 35.9 29.4 36.05 29.4 36.15 29.35 36.25 29.3 36.4 29.25 36.5 29.2 36.65 29.15 36.75 29.1 36.85 29.05 37.0 29.0 37.1 29.0 37.15 28.95 37.15 28.95 37.2 28.9 37.25 28.9 37.25 28.85 37.3 28.85 37.3 28.8 37.35 28.8 37.35 28.75 37.4 28.75 37.4 28.7 37.45 28.7 37.45 28.65 37.5 28.6 37.5 28.55 37.5 28.5 37.15 28.45 36.5 28.4 35.8 28.4 35.55 28.35 35.3 28.35 35.05 28.3 34.8 28.3 34.55 28.25 34.25 28.25 34.0 28.2 33.75 28.15 33.5 28.15 33.25 28.1 33.0 28.05 32.75 28.0 32.5 28.0 32.25 27.95 32.0 27.9 31.75 27.85 31.5 27.8 31.2 27.75 30.9 27.7 30.6 27.6 30.3 27.55 30.0 27.45 29.7 27.4 29.4 27.3 29.15 27.25 28.85 27.15 28.55 27.05 28.25 26.95 27.95 26.85 27.7 26.75 27.4 26.65 27.1 26.55 26.85 26.4 26.6 26.4 26.55 26.35 26.5 26.35 26.5 26.3 26.45 26.25 26.45 26.25 26.45 26.2 26.45 26.2 26.45 26.15 26.5 26.15 26.55 26.1 26.55 25.9 26.95 25.85 27.05 25.65 27.55 25.1 29.45 24.0 33.35 23.05 35.5 23.0 35.6 23.0 35.65 22.95 35.75 22.9 35.85 22.85 35.95 22.8 36.0 22.8 36.1 22.75 36.2 22.7 36.25 22.65 36.35 22.6 36.45 22.55 36.5 22.5 36.6 22.5 36.65 22.45 36.75 22.4 36.85 22.35 36.9 22.3 36.95 22.3 37.0 22.25 37.05 22.2 37.05 22.15 37.1 22.1 37.15 22.05 37.15 22.0 37.2 21.95 37.2 21.9 37.25 21.85 37.25 21.8 37.3 21.75 37.3 21.7 37.3 21.65 37.3 21.6 37.3 21.55 37.3 21.5 37.3 21.45 37.3 21.45 37.25 21.45 37.2 21.45 37.2 21.45 37.1 21.45 37.05 21.45 37.0 21.45 36.95 21.45 36.9 21.45 36.85 21.45 36.8 21.45 36.75 21.45 36.7 21.45 36.65 21.45 36.6 21.45 36.5 21.55 35.3 21.65 34.5 21.65 34.0 21.75 32.75 21.75 31.15 21.75 30.55 21.7 28.85 21.65 27.8 21.6 27.5 21.55 26.95 21.45 26.0 21.3 24.95 21.25 24.5 20.95 21.5 20.7 19.65 20.65 19.4 20.6 19.15 20.6 18.9 20.55 18.65 20.5 18.4 20.45 18.15 20.4 17.9 20.35 17.7 20.3 17.45 20.25 17.2 20.2 16.95 20.15 16.7 20.1 16.45 20.05 16.2 20.0 15.95 19.95 15.7 19.5 13.65 18.7 11.05 17.8 8.0 17.0 5.75 17.0 5.7 17.0 5.7 17.0 5.7 17.0 5.65 17.0 5.65 16.95 5.6 16.95 5.6 16.95 5.6 16.95 5.55 16.95 5.55 16.9 5.5 16.9 5.5 16.85 5.45 16.85 5.45 16.85 5.4 16.8 5.4 16.8 5.6 16.8 5.6 16.8 5.9 16.75 6.5 16.75 11.45 16.65 12.6 16.6 14.05 16.45 15.3 16.35 16.8 16.05 19.1 16.0 19.45 15.95 19.75 15.9 20.1 15.85 20.45 15.8 20.75 15.7 21.1 15.65 21.45 15.6 21.75 15.55 22.1 15.45 22.45 15.4 22.75 15.35 23.1 15.25 23.45 15.2 23.75 15.1 24.1 15.05 24.4 14.9 24.95 14.75 25.55 14.65 26.1 14.5 26.65 14.3 27.25 14.15 27.8 14.0 28.35 13.8 28.9 13.65 29.45 13.45 30.0 13.3 30.55 13.1 31.1 12.9 31.65 12.7 32.2 12.5 32.75 12.25 33.25 12.1 33.65 11.9 34.1 11.75 34.5 11.55 34.9 11.4 35.3 11.2 35.7 11.05 36.1 10.85 36.5 10.65 36.9 10.45 37.3 10.25 37.7 10.05 38.1 9.85 38.5 9.65 38.85 9.45 39.25 9.25 39.65 9.0 40.05 8.8 40.5 8.55 40.9 8.3 41.3 8.05 41.7 7.8 42.15 7.55 42.55 7.3 42.95 7.05 43.35 6.75 43.75 6.5 44.15 6.25 44.55 6.0 44.9 5.7 45.3 5.45 45.7 5.15 46.1 5.1 46.2 5.0 46.3 4.95 46.4 4.85 46.5 4.75 46.6 4.7 46.7 4.6 46.8 4.5 46.85 4.45 46.95 4.35 47.05 4.25 47.15 4.15 47.2 4.05 47.3 3.95 47.35 3.85 47.45 3.75 47.5 3.7 47.55 3.65 47.55 3.6 47.6 3.55 47.65 3.5 47.65 3.45 47.7 3.4 47.7 3.3 47.7 3.25 47.7 3.2 47.75 3.15 47.75 3.1 47.75 3.0 47.7 2.95 47.7 2.9 47.7 2.85 47.7 2.75 47.65 2.7 47.65 2.65 47.6 2.65 47.6 2.6 47.55 2.6 47.5 2.6 47.45 2.65 47.35 2.7 47.15 2.8 46.75 2.9 46.35 2.9 46.2 3.05 45.55 3.3 44.4 3.55 43.15 3.65 42.65 4.95 36.55 5.0 36.15 5.4 34.0 5.55 32.25 5.65 31.2 5.75 30.45 5.75 30.3 5.75 30.05 5.75 29.7 5.75 29.6 5.8 29.5 5.7 29.45 5.65 29.45 5.6 29.45 5.55 29.5 5.5 29.55 5.45 29.55 5.45 29.6 5.45 29.65 5.4 29.7 5.35 29.9 5.3 30.0 5.15 30.35 5.05 30.75 4.9 31.1 4.75 31.45 4.6 31.8 4.45 32.2 4.35 32.55 4.2 32.9 4.05 33.25 3.85 33.6 3.7 33.95 3.55 34.3 3.4 34.65 3.25 35.05 3.05 35.4 2.9 35.75 2.8 35.95 2.7 36.1 2.65 36.3 2.55 36.5 2.45 36.65 2.35 36.85 2.25 37.0 2.15 37.2 2.1 37.4 2.0 37.55 1.9 37.75 1.8 37.9 1.7 38.1 1.6 38.3 1.5 38.45 1.4 38.65 1.0 39.35 -0.1 41.35 -0.2 41.5 -0.3 41.65 -0.35 41.75 -0.45 41.9 -0.55 42.05 -0.65 42.15 -0.75 42.3 -0.9 42.4 -1.0 42.55 -1.1 42.65 -1.2 42.75 -1.35 42.9 -1.45 43.0 -1.55 43.1 -1.7 43.25 -1.8 43.35 -2.9 44.35 -3.5 44.75 -3.75 44.9 -3.8 44.9 -3.8 44.85 -3.85 44.85 -3.85 44.8 -3.85 44.8 -3.85 44.75 -3.8 44.6 -3.75 44.5 -3.7 44.45 -3.65 44.3 -3.6 44.2 -3.55 44.05 -3.5 43.9 -3.5 43.8 -3.45 43.65 -3.4 43.5 -3.4 43.4 -3.35 43.25 -3.35 43.1 -3.3 43.0 -3.3 42.85 -3.25 42.7 -3.25 42.55 -3.2 42.4 -3.2 42.3 -3.2 42.25 -3.2 42.2 -3.2 42.2 -3.2 42.15 -3.2 42.1 -3.2 42.05 -3.2 42.05 -3.2 42.0 -3.25 41.95 -3.25 41.95 -3.25 41.9 -3.25 41.85 -3.25 41.8 -3.25 41.8 -3.3 41.75 -3.3 41.7 -3.3 41.65 -3.35 41.6 -3.35 41.6 -3.4 41.6 -3.4 41.55 -3.45 41.55 -3.5 41.55 -3.5 41.6 -3.55 41.6 -3.6 41.65 -3.65 41.65 -3.65 41.7 -3.7 41.7 -3.7 41.75 -3.75 41.8 -3.75 41.8 -3.8 41.85 -3.8 41.85 -3.8 41.9 -3.85 41.95 -3.85 41.95 -3.85 42.0 -3.9 42.05 -3.9 42.05 -3.9 42.1 -3.95 42.15 -3.95 42.2 -4.0 42.3 -4.0 42.35 -4.05 42.45 -4.1 42.5 -4.1 42.6 -4.15 42.65 -4.2 42.75 -4.2 42.8 -4.25 42.85 -4.3 42.95 -4.35 43.0 -4.4 43.05 -4.45 43.15 -4.5 43.2 -4.55 43.25 -4.7 43.45 -4.85 43.6 -4.95 43.75 -5.1 43.95 -5.25 44.1 -5.4 44.3 -5.55 44.45 -5.7 44.6 -5.85 44.75 -6.0 44.9 -6.15 45.1 -6.35 45.25 -6.5 45.4 -6.65 45.55 -6.8 45.7 -7.0 45.85 -7.15 46.0 -7.35 46.15 -7.5 46.25 -7.7 46.4 -7.85 46.5 -8.05 46.6 -8.25 46.7 -8.4 46.8 -8.6 46.9 -8.8 47.0 -9.0 47.1 -9.2 47.15 -9.4 47.25 -9.6 47.3 -9.8 47.35 -10.05 47.45 -10.1 47.45 -10.15 47.45 -10.2 47.45 -10.25 47.45 -10.3 47.45 -10.35 47.45 -10.45 47.45 -10.5 47.45 -10.55 47.4 -10.6 47.4 -10.6 47.35 -10.65 47.35 -10.7 47.3 -10.75 47.3 -10.8 47.25 -10.85 47.2 -10.9 47.15 -10.95 47.1 -11.0 47.05 -11.05 46.95 -11.1 46.9 -11.15 46.85 -11.15 46.75 -11.2 46.7 -11.2 46.65 -11.2 46.55 -11.2 46.45 -11.2 46.4 -11.2 46.3 -11.2 46.25 -11.15 46.15 -11.15 46.05 -11.1 45.95 -11.1 45.9 -11.05 45.85 -11.05 45.75 -11.0 45.7 -10.95 45.65 -10.95 45.55 -10.9 45.5 -10.9 45.4 -10.85 45.35 -10.85 45.25 -10.8 45.2 -10.8 45.1 -10.8 45.05 -10.75 45.0 -10.75 44.9 -10.35 43.1 -10.0 40.8 -9.95 40.5 -9.35 36.5 -9.35 36.45 -9.35 36.4 -9.35 36.35 -9.35 36.3 -9.35 36.25 -9.35 36.2 -9.35 36.15 -9.35 36.1 -9.4 36.05 -9.4 36.0 -9.45 36.0 -9.5 35.95 -9.5 35.9 -9.55 35.85 -9.6 35.85 -9.65 35.8 -9.7 35.8 -9.75 35.75 -9.75 35.75 -9.8 35.75 -9.85 35.7 -9.85 35.7 -9.9 35.65 -9.9 35.65 -9.95 35.6 -9.95 35.55 -9.95 35.55 -10.0 35.5 -10.0 35.45 -10.05 35.45 -10.05 35.4 -10.05 35.35 -10.35 34.7 -10.6 34.05 -10.75 33.65 -10.95 33.3 -11.1 32.9 -11.25 32.5 -11.4 32.15 -11.55 31.75 -11.7 31.35 -11.85 30.95 -12.0 30.6 -12.1 30.2 -12.25 29.8 -12.4 29.4 -12.5 29.0 -12.65 28.6 -12.75 28.2 -12.9 27.8 -13.0 27.5 -13.1 27.2 -13.15 26.9 -13.25 26.6 -13.35 26.3 -13.45 26.0 -13.5 25.7 -13.6 25.4 -13.7 25.15 -13.75 24.85 -13.85 24.55 -13.9 24.25 -14.0 23.95 -14.05 23.6 -14.15 23.3 -14.2 23.0 -14.3 22.7 -14.35 22.65 -14.4 22.6 -14.4 22.6 -14.45 22.55 -14.5 22.6 -14.5 22.6 -14.55 22.65 -14.55 22.7 -14.55 22.8 -14.6 22.9 -14.6 22.95 -14.65 23.2 -14.7 23.65 -14.7 24.2 -14.75 24.4 -14.8 24.65 -14.8 24.85 -14.85 25.1 -14.85 25.3 -14.85 25.55 -14.9 25.75 -14.9 26.0 -14.95 26.2 -14.95 26.45 -14.95 26.65 -14.95 26.9 -15.0 27.1 -15.0 27.35 -15.0 27.55 -15.0 27.8 -15.0 28.0 -15.0 28.4 -15.0 28.75 -15.05 29.1 -15.05 29.5 -15.05 29.85 -15.05 30.2 -15.05 30.6 -15.05 30.95 -15.05 31.35 -15.05 31.7 -15.05 32.05 -15.05 32.45 -15.05 32.8 -15.0 33.15 -15.0 33.55 -15.0 33.9 -14.95 34.95 -14.85 36.9 -14.8 38.65 -14.75 39.9 -14.6 41.6 -14.55 42.3 -14.5 42.6 -14.45 42.9 -14.45 43.25 -14.4 43.55 -14.35 43.85 -14.25 44.15 -14.2 44.45 -14.15 44.8 -14.1 45.1 -14.0 45.4 -13.95 45.7 -13.9 46.0 -13.8 46.3 -13.7 46.6 -13.65 46.9 -13.55 47.2 -13.55 47.25 -13.5 47.3 -13.55 47.25 -13.5 47.35 -13.5 47.4 -13.45 47.45 -13.45 47.5 -13.45 47.5 -13.45 47.55 -13.4 47.6 -13.4 47.65 -13.4 47.7 -13.4 47.75 -13.4 47.8 -13.4 47.85 -13.4 47.9 -13.45 47.85 -13.55 47.75 -13.65 47.7 -13.65 47.65 -13.8 47.5 -13.95 47.35 -14.1 47.25 -14.2 47.1 -14.35 46.95 -14.5 46.8 -14.65 46.65 -14.75 46.5 -14.9 46.35 -15.0 46.2 -15.15 46.05 -15.25 45.9 -15.4 45.75 -15.5 45.6 -15.65 45.4 -15.75 45.25 -16.0 44.9 -16.2 44.55 -16.45 44.2 -16.65 43.85 -16.85 43.45 -17.05 43.1 -17.25 42.75 -17.45 42.35 -17.6 41.95 -17.8 41.6 -17.95 41.2 -18.1 40.8 -18.25 40.4 -18.4 40.0 -18.55 39.6 -18.7 39.2 -18.8 38.95 -18.85 38.7 -18.95 38.45 -19.0 38.15 -19.1 37.9 -19.15 37.65 -19.2 37.4 -19.3 37.1 -19.35 36.85 -19.4 36.6 -19.45 36.35 -19.5 36.05 -19.55 35.8 -19.6 35.5 -19.65 35.25 -19.7 35.0 -19.75 34.75 -19.8 34.5 -19.8 34.25 -19.85 34.0 -19.9 33.75 -19.9 33.5 -19.95 33.3 -19.95 33.05 -20.0 32.8 -20.0 32.55 -20.05 32.3 -20.05 32.05 -20.05 31.8 -20.1 31.55 -20.1 31.3 -20.1 31.05 -20.15 30.7 -20.15 29.2 -20.15 29.15 -20.15 29.1 -20.15 29.05 -20.15 29.0 -20.15 28.95 -20.15 28.9 -20.15 28.8 -20.15 28.75 -20.15 28.7 -20.15 28.65 -20.2 28.6 -20.2 28.55 -20.2 28.5 -20.2 28.45 -20.2 28.4 -20.2 28.35 -20.25 28.35 -20.3 28.35 -20.35 28.4 -20.4 28.4 -20.4 28.45 -20.45 28.45 -20.45 28.5 -20.5 28.55 -20.5 28.55 -20.5 28.6 -20.55 28.7 -20.6 28.85 -20.7 29.05 -20.75 29.1 -21.9 31.45 -22.9 33.2 -23.15 33.6 -23.35 33.95 -23.55 34.35 -23.8 34.7 -24.05 35.1 -24.25 35.45 -24.5 35.8 -24.75 36.15 -25.0 36.55 -25.25 36.9 -25.5 37.25 -25.75 37.6 -26.0 37.95 -26.25 38.3 -26.55 38.65 -26.8 39.0 -26.85 39.1 -26.95 39.15 -27.0 39.25 -27.1 39.3 -27.15 39.4 -27.25 39.45 -27.3 39.5 -27.4 39.6 -27.45 39.65 -27.55 39.75 -27.6 39.8 -27.7 39.85 -27.75 39.95 -27.85 40.0 -27.95 40.05 -28.0 40.15 -28.05 40.2 -28.1 40.2 -28.1 40.25 -28.15 40.25 -28.2 40.3 -28.25 40.3 -28.3 40.35 -28.3 40.35 -28.35 40.35 -28.4 40.4 -28.45 40.4 -28.5 40.4 -28.55 40.45 -28.6 40.45 -28.65 40.45 -28.7 40.45 -28.7 40.35 -28.7 40.35 -28.35 38.85 -28.1 36.4 -28.0 35.7 -27.9 34.0 -27.9 34.0 -27.9 33.9 -27.9 33.85 -27.9 33.8 -27.9 33.75 -27.9 33.75 -27.95 33.7 -27.95 33.65 -28.0 33.65 -28.05 33.65 -28.1 33.65 -28.1 33.7 -28.15 33.7 -28.2 33.75 -28.2 33.8 -28.25 33.85 -28.25 33.85 -28.3 33.9 -28.4 34.05 -28.6 34.4 -28.8 34.75 -28.9 34.9 -29.05 35.15 -29.15 35.35 -29.3 35.6 -29.4 35.8 -29.55 36.0 -29.7 36.25 -29.85 36.45 -29.95 36.7 -30.1 36.9 -30.25 37.1 -30.4 37.35 -30.55 37.55 -30.7 37.75 -30.85 37.95 -31.0 38.15 -31.15 38.4 -32.6 40.2 -33.2 40.75 -33.35 40.85 -33.5 41.0 -33.65 41.1 -33.8 41.2 -33.95 41.35 -34.1 41.45 -34.25 41.55 -34.4 41.65 -34.55 41.75 -34.7 41.85 -34.85 41.95 -35.05 42.05 -35.2 42.15 -35.35 42.25 -35.5 42.3 -35.7 42.4 -35.75 42.45 -35.75 42.45 -35.8 42.45 -35.8 42.45 -35.85 42.5 -35.9 42.45 -35.95 42.45 -35.95 42.4 -35.95 42.35 -35.95 42.3 -35.95 42.3 -35.9 42.25 -35.9 42.2 -35.75 41.1 -35.65 40.1 -35.3 37.65 -35.25 37.45 -35.25 37.2 -35.2 37.0 -35.15 36.8 -35.15 36.6 -35.1 36.35 -35.05 36.15 -35.05 35.95 -35.0 35.7 -35.0 35.5 -34.95 35.3 -34.95 35.1 -34.9 34.85 -34.9 34.65 -34.85 34.45 -34.85 34.2 -34.7 32.95 -34.6 31.2 -34.5 30.05 -34.45 28.3 -34.45 27.55 -34.45 25.95 -34.4 22.65 -34.5 20.0 -34.5 19.85 -34.55 17.0 -34.55 16.85 -34.55 16.55 -34.55 16.25 -34.6 16.1 -34.6 15.5 -34.7 13.75 -34.7 12.45 -34.75 11.35 -34.85 10.2 -34.95 8.5 -35.0 7.75 -35.1 6.25 -35.1 6.2 -35.1 6.05 -35.1 6.0 -35.15 5.95 -35.2 5.95 -35.2 5.95 -35.25 5.95 -35.3 5.95 -35.35 5.95 -35.35 6.0 -35.4 6.05 -35.45 6.2 -35.5 6.4 -35.8 7.1 -36.75 9.55 -38.8 14.1 -40.0 16.65 -40.85 18.55 -42.8 23.0 -44.05 25.55 -44.1 25.6 -44.1 25.7 -44.15 25.75 -44.15 25.8 -44.2 25.9 -44.2 25.95 -44.2 26.05 -44.25 26.1 -44.25 26.15 -44.25 26.25 -44.25 26.3 -44.25 26.4 -44.25 26.45 -44.25 26.5 -44.25 26.6 -44.25 26.65 -44.25 27.45 -44.2 27.8 -44.15 29.1 -43.95 31.05 -43.95 31.3 -43.9 31.5 -43.9 31.75 -43.85 31.95 -43.8 32.2 -43.8 32.4 -43.75 32.65 -43.75 32.85 -43.7 33.1 -43.65 33.3 -43.6 33.55 -43.6 33.75 -43.55 33.95 -43.5 34.2 -43.45 34.4 -43.45 34.65 -43.35 35.15 -43.25 35.65 -43.15 36.15 -43.05 36.65 -42.9 37.15 -42.8 37.65 -42.65 38.15 -42.55 38.65 -42.4 39.15 -42.3 39.65 -42.15 40.15 -42.0 40.6 -41.85 41.1 -41.7 41.6 -41.6 42.1 -41.45 42.6 -41.4 42.7 -41.4 42.75 -41.35 42.8 -41.35 42.9 -41.3 42.95 -41.3 43.05 -41.25 43.1 -41.25 43.2 -41.2 43.25 -41.2 43.35 -41.15 43.4 -41.15 43.5 -41.15 43.55 -41.1 43.65 -41.1 43.7 -41.1 43.8 -41.0 44.45 -40.75 45.5 -40.3 47.7 -39.45 50.95 -39.45 50.9 -39.4 51.05 -39.4 51.1 -39.4 51.1 -39.35 51.15 -39.35 51.2 -39.35 51.25 -39.35 51.3 -39.35 51.35 -39.35 51.4 -39.4 51.4 -39.5 51.4 -39.55 51.35 -39.6 51.35 -39.65 51.35 -39.75 51.3 -39.8 51.3 -39.85 51.3 -39.9 51.25 -39.95 51.2 -40.0 51.2 -40.05 51.15 -40.1 51.15 -40.15 51.1 -40.2 51.05 -40.3 51.0 -40.45 50.9 -40.6 50.8 -40.75 50.65 -40.9 50.55 -41.05 50.45 -41.25 50.3 -41.4 50.2 -41.55 50.1 -41.7 49.95 -41.85 49.85 -42.0 49.7 -42.15 49.6 -42.3 49.45 -42.45 49.35 -42.6 49.2 -42.75 49.1 -42.8 49.05 -42.8 49.05 -42.85 49.0 -42.9 49.0 -42.95 48.95 -43.0 48.95 -43.0 48.95 -43.05 48.95 -43.1 48.95 -43.15 48.95 -43.2 49.0 -43.2 49.05 -43.2 49.05 -43.2 49.1 -43.2 49.15 -43.2 49.2 -43.2 49.25 -43.2 49.3 -43.1 49.5 -43.15 49.4 -42.35 51.95 -42.0 53.0 -40.85 56.15 -40.4 57.25 -40.4 57.3 -40.35 57.35 -40.35 57.4 -40.3 57.45 -40.3 57.45 -40.3 57.5 -40.25 57.55 -40.25 57.6 -40.25 57.65 -40.25 57.7 -40.25 57.75 -40.25 57.8 -40.25 57.85 -40.25 57.9 -40.25 57.95 -40.3 57.95 -40.3 58.0 -40.35 58.0 -40.35 58.05 -40.4 58.05 -40.45 58.05 -40.5 58.05 -40.55 58.1 -40.6 58.05 -40.65 58.05 -40.7 58.05 -40.8 58.0 -41.0 57.95 -41.1 57.9 -41.25 57.85 -41.35 57.85 -41.45 57.8 -41.55 57.75 -41.7 57.7 -41.8 57.65 -41.9 57.6 -42.0 57.55 -42.15 57.5 -42.25 57.5 -42.35 57.45 -42.45 57.4 -42.55 57.35 -42.7 57.25 -42.8 57.2 -43.05 57.1 -43.3 56.95 -43.55 56.8 -43.8 56.65 -44.0 56.5 -44.25 56.35 -44.45 56.2 -44.7 56.0 -44.9 55.85 -45.1 55.65 -45.3 55.5 -45.55 55.3 -45.75 55.1 -45.9 54.9 -46.1 54.7 -46.3 54.45 -46.45 54.25 -46.6 54.05 -46.8 53.85 -46.95 53.7 -47.1 53.5 -47.25 53.3 -47.4 53.1 -47.55 52.9 -47.7 52.7 -47.85 52.5 -48.0 52.3 -48.15 52.1 -48.3 51.9 -48.45 51.7 -48.6 51.5 -48.75 51.3 -49.2 50.6 -49.9 49.15 -49.9 49.1 -49.9 49.1 -49.95 49.05 -49.95 49.05 -49.95 49.0 -49.95 49.0 -50.0 48.95 -50.0 48.95 -50.05 48.9 -50.05 48.9 -50.05 48.85 -50.1 48.85 -50.15 48.85 -50.15 48.85 -50.2 48.85 -50.2 48.85 -50.25 48.85 -50.3 48.9 -50.3 48.95 -50.3 49.0 -50.35 49.05 -50.35 49.1 -50.35 49.15 -50.3 49.2 -50.3 49.25 -50.3 49.3 -50.3 49.4 -50.3 49.5 -50.3 49.55 -50.25 49.65 -50.25 49.75 -50.25 49.85 -50.25 49.9 -50.2 50.0 -50.2 50.1 -50.2 50.2 -50.15 50.25 -50.15 50.35 -50.15 50.45 -50.1 50.55 -50.1 50.6 -50.05 50.7 -49.45 53.2 -49.45 53.3 -49.2 53.9 -49.2 54.2 -49.25 54.2 -49.3 54.15 -49.35 54.1 -49.35 54.1 -50.0 53.8 -51.25 53.0 -51.3 52.95 -51.3 52.95 -51.35 52.9 -51.4 52.9 -51.4 52.85 -51.45 52.85 -51.45 52.8 -51.5 52.75 -51.5 52.75 -51.55 52.7 -51.8 52.35 -52.05 52.0 -52.35 51.6 -52.6 51.25 -52.85 50.9 -53.1 50.5 -53.35 50.15 -53.6 49.8 -53.85 49.4 -54.05 49.05 -54.3 48.65 -54.55 48.3 -54.8 47.9 -55.0 47.5 -55.25 47.15 -55.45 46.75 -55.65 46.4 -55.9 46.0 -56.1 45.6 -56.3 45.25 -56.55 44.85 -56.75 44.5 -56.95 44.1 -57.15 43.7 -57.35 43.35 -57.55 42.95 -57.75 42.55 -57.9 42.15 -58.1 41.75 -58.3 41.4 -58.45 41.0 -58.65 40.6 -58.8 40.3 -58.9 40.0 -59.05 39.7 -59.15 39.4 -59.3 39.1 -59.4 38.8 -59.55 38.5 -59.65 38.2 -59.75 37.9 -59.9 37.6 -60.0 37.3 -60.1 37.0 -60.25 36.7 -60.35 36.4 -60.45 36.05 -60.55 35.75 -60.85 34.8 -62.15 30.55 -62.15 30.5 -62.15 30.5 -62.15 30.45 -62.15 30.4 -62.15 30.35 -62.2 30.35 -62.2 30.3 -62.25 30.25 -62.25 30.25 -62.3 30.2 -62.3 30.2 -62.35 30.2 -62.4 30.2 -62.4 30.25 -62.45 30.25 -62.5 30.3 -62.5 30.3 -62.8 30.75 -63.05 31.1 -63.25 31.45 -63.5 31.8 -63.7 32.15 -63.95 32.5 -64.15 32.85 -64.4 33.2 -64.65 33.55 -64.9 33.9 -65.15 34.25 -65.4 34.6 -65.65 34.95 -65.9 35.3 -66.15 35.6 -66.4 35.95 -66.65 36.3 -66.9 36.65 -67.2 36.95 -67.45 37.3 -67.75 37.65 -68.0 37.95 -68.3 38.3 -68.55 38.6 -68.85 38.95 -69.15 39.25 -69.45 39.6 -69.75 39.9 -70.05 40.2 -70.35 40.5 -70.65 40.8 -70.95 41.15 -71.25 41.4 -71.35 41.5 -71.45 41.6 -71.6 41.7 -71.7 41.85 -71.8 41.95 -71.9 42.05 -72.0 42.15 -72.15 42.25 -72.25 42.35 -72.35 42.45 -72.5 42.5 -72.6 42.6 -72.7 42.7 -72.85 42.8 -72.95 42.9 -73.1 42.95 -73.15 43.0 -73.15 43.0 -73.2 43.05 -73.25 43.05 -73.25 43.1 -73.3 43.1 -73.35 43.15 -73.4 43.15 -73.4 43.2 -73.45 43.2 -73.5 43.25 -73.55 43.25 -73.55 43.3 -73.6 43.3 -73.65 43.3 -73.7 43.35 -73.7 43.3 -73.7 43.25 -73.7 43.25 -73.7 43.2 -73.6 43.0 -73.45 42.75 -73.35 42.55 -73.25 42.3 -73.15 42.1 -73.05 41.85 -72.95 41.65 -72.9 41.4 -72.8 41.2 -72.7 40.95 -72.65 40.7 -72.55 40.5 -72.45 40.25 -72.4 40.0 -72.3 39.8 -72.25 39.55 -71.85 38.15 -71.3 36.0 -71.25 35.7 -70.95 34.65 -70.75 33.8 -70.65 33.25 -70.2 30.8 -69.8 28.95 -69.05 25.65 -68.6 23.05 -68.55 22.55 -68.4 21.7 -68.2 20.65 -68.15 20.35 -68.1 20.0 -67.9 18.55 -67.75 17.45 -67.65 16.8 -67.5 15.95 -67.3 14.25 -67.15 12.95 -66.9 10.8 -66.75 9.75 -66.6 8.15 -66.6 8.1 -66.6 8.05 -66.55 8.0 -66.55 8.0 -66.55 7.95 -66.55 7.9 -66.55 7.85 -66.55 7.8 -66.55 7.75 -66.6 7.7 -66.6 7.65 -66.65 7.6 -66.65 7.6 -66.7 7.55 -66.7 7.55 -66.75 7.55 -66.8 7.55 -66.9 7.6 -67.35 7.75 -67.85 7.9 -68.35 8.0 -68.85 8.1 -69.3 8.25 -69.8 8.35 -70.3 8.45 -70.8 8.5 -71.25 8.6 -71.8 8.65 -72.25 8.75 -72.75 8.8 -73.25 8.85 -73.75 8.9 -74.25 8.95 -74.75 9.0 -75.1 9.0 -75.95 9.05 -76.7 9.1 -77.15 9.1 -77.3 9.1 -77.6 9.15 -77.9 9.15 -78.05 9.15 -78.2 9.2 -78.95 9.2 -78.75 9.05 -78.7 9.0 -74.7 6.7 -74.0 6.3 -73.55 6.05 -73.15 5.75 -72.7 5.5 -72.3 5.2 -71.85 4.9 -71.45 4.65 -71.05 4.3 -70.65 4.0 -70.2 3.7 -69.85 3.4 -69.45 3.05 -69.05 2.7 -68.7 2.4 -68.3 2.0 -67.95 1.65 -67.6 1.3 -67.45 1.15 -67.35 1.0 -67.2 0.85 -67.05 0.7 -66.95 0.55 -66.8 0.4 -66.7 0.25 -66.6 0.1 -66.45 -0.05 -66.35 -0.2 -66.2 -0.35 -66.1 -0.5 -66.0 -0.7 -65.9 -0.85 -65.8 -1.0 -65.7 -1.15 -65.55 -1.35 -65.4 -1.6 -65.3 -1.85 -65.15 -2.05 -65.05 -2.3 -64.9 -2.55 -64.8 -2.8 -64.7 -3.0 -64.55 -3.25 -64.45 -3.5 -64.35 -3.75 -64.25 -4.0 -64.15 -4.2 -64.05 -4.45 -63.95 -4.7 -63.85 -4.95 -62.85 -7.4 -61.65 -11.9 -60.25 -17.1 -59.25 -19.75 -59.0 -20.5 -58.7 -21.2 -58.45 -22.0 -58.15 -22.7 -57.85 -23.45 -57.6 -24.15 -57.3 -24.9 -57.0 -25.6 -56.65 -26.35 -56.35 -27.05 -56.05 -27.75 -55.7 -28.45 -55.35 -29.2 -55.05 -29.9 -54.7 -30.6 -54.3 -31.3 -54.15 -31.6 -53.95 -31.95 -53.8 -32.25 -53.6 -32.55 -53.45 -32.9 -53.25 -33.2 -53.1 -33.5 -52.9 -33.8 -52.7 -34.1 -52.5 -34.4 -52.35 -34.75 -52.15 -35.05 -51.95 -35.35 -51.75 -35.65 -51.55 -35.95 -51.35 -36.25 -51.1 -36.6 -50.85 -36.95 -50.6 -37.25 -50.4 -37.55 -50.15 -37.85 -49.95 -38.15 -49.75 -38.4 -49.55 -38.65 -49.35 -38.85 -49.15 -39.1 -49.0 -39.25 -48.85 -39.45 -48.75 -39.6 -48.6 -39.75 -48.55 -39.8 -48.45 -39.95 -47.85 -40.6 -47.25 -41.25 -46.7 -41.8 -46.1 -42.35 -45.55 -42.85 -45.0 -43.35 -44.5 -43.8 -44.0 -44.2 -43.55 -44.55 -43.1 -44.85 -42.75 -45.15 -42.4 -45.4 -42.1 -45.6 -41.8 -45.8 -41.6 -45.95 -41.4 -46.1 -41.15 -46.25 -40.9 -46.4 -40.65 -46.55 -40.4 -46.7 -40.2 -46.8 -40.0 -46.9 -39.8 -47.0 -39.6 -47.1 -39.45 -47.2 -39.3 -47.3 -39.15 -47.35 -39.0 -47.45 -38.9 -47.5 -38.75 -47.55 -38.65 -47.6 -38.55 -47.65 -37.35 -48.2 -34.65 -48.95 -34.4 -49.0 -34.1 -49.1 -33.8 -49.15 -33.55 -49.2 -33.25 -49.25 -33.0 -49.3 -32.7 -49.35 -32.45 -49.4 -32.15 -49.45 -31.9 -49.45 -31.6 -49.5 -31.3 -49.55 -31.05 -49.55 -30.75 -49.55 -30.5 -49.6 -30.2 -49.6 -30.05 -49.6 -29.95 -49.6 -29.8 -49.65 -29.7 -49.65 -29.55 -49.65 -29.45 -49.65 -29.3 -49.7 -29.2 -49.7 -29.05 -49.7 -28.95 -49.75 -28.8 -49.75 -28.7 -49.8 -28.55 -49.8 -28.45 -49.8 -28.35 -49.85 -28.2 -49.85 -27.75 -49.95 -26.95 -50.2 -26.1 -50.45 -25.7 -50.55 -25.65 -50.55 -25.6 -50.6 -25.55 -50.6 -25.5 -50.6 -25.45 -50.65 -25.4 -50.65 -25.35 -50.65 -25.3 -50.65 -25.25 -50.7 -25.2 -50.7 -25.15 -50.7 -25.1 -50.7 -25.0 -50.7 -24.95 -50.7 -24.9 -50.7 -24.85 -50.7 -24.8 -50.7 -24.75 -50.7 -24.7 -50.7 -24.65 -50.7 -24.55 -50.7 -24.5 -50.75 -24.45 -50.75 -24.4 -50.75 -24.35 -50.75 -24.3 -50.8 -24.25 -50.8 -24.2 -50.8 -24.15 -50.85 -24.1 -50.85 -24.05 -50.9 -24.0 -50.9 -23.95 -50.95 -23.9 -50.95 -23.9 -50.95 -23.85 -51.0 -23.8 -51.0 -23.75 -51.0 -23.75 -51.0 -23.7 -50.95 -23.65 -50.95 -23.65 -50.9 -23.6 -50.8 -23.5 -50.8 -23.5 -50.8 -23.3 -50.8 -23.15 -50.8 -22.95 -50.8 -22.8 -50.8 -22.65 -50.85 -22.45 -50.85 -22.3 -50.85 -22.15 -50.85 -21.95 -50.85 -21.8 -50.9 -21.65 -50.9 -21.45 -50.9 -21.3 -50.9 -21.15 -50.95 -20.95 -50.95 -20.8 -50.95 -20.65 -50.95 -20.6 -50.95 -20.55 -50.95 -20.5 -51.0 -20.5 -51.0 -20.45 -51.0 -20.4 -51.0 -20.35 -51.0 -20.35 -50.95 -20.25 -50.9 -20.15 -50.9 -20.05 -50.85 -20.0 -50.85 -19.9 -50.85 -19.8 -50.8 -19.7 -50.8 -19.6 -50.8 -19.5 -50.8 -19.4 -50.8 -19.35 -50.8 -19.25 -50.85 -19.15 -50.85 -19.05 -50.85 -19.2 -50.85 -18.85 -50.85 -18.7 -50.85 -17.8 -51.05 -17.1 -51.15 -16.7 -51.2 -16.15 -51.25 -14.15 -51.55 -9.65 -52.3 -9.1 -52.35 -9.1 -52.35 -9.0 -52.35 -8.95 -52.35 -8.95 -52.35 -8.9 -52.35 -8.85 -52.35 -8.8 -52.35 -8.75 -52.4 -8.7 -52.4 -8.65 -52.45 -7.8 -52.5 -6.15 -52.35 -5.9 -52.35 -5.65 -52.3 -5.4 -52.3 -5.1 -52.25 -4.85 -52.25 -4.6 -52.25 -4.35 -52.2 -4.1 -52.2 -3.85 -52.15 -3.6 -52.15 -3.35 -52.1 -3.1 -52.05 -2.85 -52.05 -2.6 -52.0 -2.35 -51.95 -2.1 -51.95 -1.9 -51.9 -0.5 -52.05 1.35 -52.15 1.85 -52.1 2.1 -52.05 2.4 -52.05 2.65 -52.05 2.9 -52.0 3.2 -52.0 3.45 -51.95 3.75 -51.95 4.0 -51.95 4.25 -51.9 4.55 -51.9 4.8 -51.9 5.05 -51.9 5.35 -51.9 5.6 -51.9 5.85 -51.9 6.15 -51.9 7.65 -51.85 9.7 -51.9 9.75 -51.9 9.85 -51.9 9.9 -51.9 9.95 -51.9 10.05 -51.85 10.1 -51.85 10.15 -51.85 10.25 -51.85 10.3 -51.85 10.35 -51.85 10.45 -51.8 10.5 -51.8 10.55 -51.8 10.65 -51.8 10.7 -51.8 10.75 -51.75 12.7 -51.45 15.15 -50.95 15.2 -50.95 15.25 -50.95 15.25 -50.95 15.3 -50.95 15.35 -50.95 15.35 -50.95 15.4 -50.95 15.4 -51.0 15.45 -51.0 15.45 -51.0 15.45 -51.05 15.5 -51.05 15.5 -51.1 15.5 -51.15 15.5 -51.15 15.5 -51.2 15.5 -51.25 15.5 -51.55 15.55 -51.55 15.75 -51.45 18.85 -50.3 23.5 -48.5 23.9 -48.35 24.35 -48.15 24.75 -48.0 25.2 -47.85 25.6 -47.7 26.05 -47.55 26.5 -47.4 26.9 -47.25 27.35 -47.1 27.75 -46.95 28.2 -46.8 28.65 -46.65 29.05 -46.5 29.5 -46.35 29.95 -46.25 30.35 -46.1 30.75 -46.0 31.15 -45.85 31.55 -45.75 31.95 -45.65 32.35 -45.5 32.75 -45.4 33.15 -45.3 33.55 -45.2 33.95 -45.05 34.35 -44.95 34.75 -44.85 35.15 -44.75 35.6 -44.65 36.0 -44.55 36.4 -44.45 36.8 -44.35 39.85 -43.6 42.1 -43.15 44.35 -42.75 45.8 -42.5 48.45 -42.1 49.9 -42.05 50.15 -42.05 50.35 -42.05 50.6 -42.0 50.8 -42.0 51.05 -42.0 51.3 -42.0 51.5 -42.0 51.75 -42.0 51.95 -42.0 52.2 -42.0 52.45 -42.0 52.65 -42.05 52.9 -42.05 53.15 -42.05 53.35 -42.05 53.6 -42.1 53.65 -42.1 53.7 -42.1 53.8 -42.1 53.85 -42.1 53.85 -42.1 53.95 -42.15 54.05 -42.15 54.1 -42.15 54.15 -42.15 54.2 -42.15 54.3 -42.15 54.35 -42.15 54.4 -42.15 54.45 -42.15 54.55 -42.15 54.6 -42.15 54.8 -42.15 55.0 -42.1 55.2 -42.1 55.4 -42.1 55.65 -42.1 55.85 -42.1 56.05 -42.1 56.25 -42.1 56.45 -42.15 56.65 -42.15 56.85 -42.15 57.05 -42.2 57.25 -42.2 57.45 -42.25 57.65 -42.3 57.9 -42.3 59.0 -42.5 60.65 -43.0 61.05 -43.05 61.05 -43.05 61.05 -43.0 61.05 -42.95 61.05 -42.95 61.05 -42.9 61.05 -42.85 61.0 -42.85 61.0 -42.8 61.0 -42.8 61.0 -42.75 60.95 -42.7 60.95 -42.7 60.9 -42.65 60.9 -42.65 60.9 -42.6 60.85 -42.55 60.85 -42.55 59.85 -41.3 59.3 -40.7 59.1 -40.5 58.95 -40.25 58.75 -40.05 58.55 -39.85 58.35 -39.65 58.15 -39.45 57.95 -39.2 57.8 -39.0 57.6 -38.8 57.4 -38.6 57.2 -38.4 56.95 -38.2 56.75 -38.0 56.55 -37.85 56.35 -37.65 56.15 -37.45 55.8 -37.15 55.45 -36.85 55.1 -36.55 54.75 -36.25 54.35 -35.95 54.0 -35.7 53.65 -35.45 53.25 -35.15 52.9 -34.9 52.5 -34.65 52.1 -34.4 51.7 -34.2 51.3 -33.95 50.9 -33.75 50.5 -33.55 50.1 -33.3 49.8 -33.15 49.55 -33.05 49.3 -32.95 49.0 -32.8 48.7 -32.7 48.45 -32.6 48.15 -32.5 47.9 -32.4 47.6 -32.3 47.35 -32.2 47.05 -32.1 46.75 -32.0 46.45 -31.95 46.2 -31.85 45.9 -31.8 45.6 -31.75 45.5 -31.75 45.45 -31.7 45.4 -31.65 45.4 -31.65 45.35 -31.6 45.35 -31.55 45.35 -31.55 45.4 -31.5 45.4 -31.45 45.45 -31.35 45.5 -31.35 45.5 -31.3 45.55 -31.3 45.55 -31.25 45.6 -31.2 45.65 -31.15 45.75 -31.05 45.8 -31.0 45.85 -30.95 45.9 -30.9 45.95 -30.85 46.05 -30.75 46.1 -30.7 46.15 -30.65 46.2 -30.6 46.25 -30.55 46.3 -30.45 46.4 -30.4 46.45 -30.35 46.5 -30.3 47.15 -29.55 48.45 -28.2 48.6 -28.05 48.75 -27.85 48.9 -27.7 49.05 -27.5 49.25 -27.35 49.4 -27.2 49.55 -27.0 49.7 -26.85 49.85 -26.65 50.0 -26.5 50.15 -26.3 50.3 -26.15 50.45 -26.0 50.6 -25.8 50.75 -25.65 50.9 -25.45 51.95 -24.3 53.35 -22.7 55.4 -20.15 56.65 -18.5 56.85 -18.25 57.0 -18.05 57.2 -17.8 57.35 -17.55 57.55 -17.3 57.7 -17.05 57.9 -16.8 58.05 -16.6 58.25 -16.35 58.4 -16.1 58.55 -15.85 58.75 -15.6 58.9 -15.35 59.1 -15.1 59.25 -14.85 59.4 -14.6 60.55 -12.8 61.0 -11.9 61.1 -11.65 61.25 -11.4 61.35 -11.15 61.45 -10.9 61.6 -10.7 61.7 -10.4 61.8 -10.2 61.9 -9.9 62.0 -9.65 62.1 -9.4 62.2 -9.15 62.25 -8.9 62.35 -8.65 62.45 -8.4 62.55 -8.15 62.65 -7.85 62.75 -7.5 62.85 -7.2 62.95 -6.85 63.05 -6.55 63.15 -6.2 63.25 -5.9 63.35 -5.55 63.45 -5.2 63.55 -4.9 63.65 -4.55 63.7 -4.2 63.8 -3.85 63.9 -3.55 64.0 -3.2 64.05 -2.85 64.15 -2.5 64.2 -2.15 64.3 -1.85 64.35 -1.5 64.45 -1.2 64.5 -0.85 64.55 -0.5 64.65 -0.2 64.7 0.15 64.75 0.5 64.8 0.8 64.85 1.15 64.95 1.5 65.0 1.8 65.05 2.15 65.1 2.5 65.15 2.85 65.15 2.85 65.15 2.9 65.15 2.9 65.15 2.95 65.15 2.95 65.15 2.95 65.15 3.0 65.15 3.0 65.15 3.05 65.15 3.05 65.15 3.1 65.15 3.15 65.15 3.15 65.15 3.2 65.15 3.25 65.15 3.25 65.1 3.1 64.95 2.8 64.8 2.4 64.65 2.05 64.45 1.65 64.3 1.3 64.15 0.9 63.95 0.5 63.8 0.15 63.65 -0.25 63.45 -0.6 63.3 -1.0 63.1 -1.35 62.9 -1.7 62.75 -2.1 62.55 -2.45 62.35 -2.8 62.15 -3.2 62.05 -3.4 61.95 -3.6 61.85 -3.8 61.75 -4.0 61.6 -4.2 61.5 -4.35 61.4 -4.55 61.3 -4.75 61.15 -4.95 61.05 -5.15 60.95 -5.35 60.8 -5.5 60.7 -5.7 60.55 -5.9 60.45 -6.1 60.3 -6.3 60.15 -6.5 59.7 -7.1 59.35 -7.6 59.15 -7.95 59.1 -8.0 59.1 -8.0 59.1 -8.05 59.05 -8.05 59.05 -8.1 59.0 -8.1 59.0 -8.15 59.0 -8.15 58.95 -8.15 58.9 -8.2 58.9 -8.2 58.85 -8.25 58.85 -8.25 58.8 -8.25 58.75 -8.3 58.75 -8.3 58.75 -8.25 58.75 -8.2 58.75 -8.2 58.75 -8.15 58.75 -8.1 58.75 -8.1 58.75 -8.05 58.75 -8.0 58.75 -8.0 58.8 -7.95 58.8 -7.9 58.8 -7.9 58.8 -7.85 58.85 -7.8 58.85 -7.8 58.85 -7.75 59.0 -7.45 59.55 -6.05 59.65 -5.8 59.75 -5.55 59.85 -5.3 59.95 -5.05 60.05 -4.8 60.15 -4.55 60.25 -4.3 60.35 -4.05 60.45 -3.8 60.5 -3.55 60.6 -3.3 60.7 -3.0 60.8 -2.75 60.9 -2.5 60.95 -2.25 61.05 -2.0 61.2 -1.6 61.3 -1.2 61.45 -0.8 61.55 -0.35 61.7 0.05 61.8 0.45 61.95 0.85 62.05 1.25 62.15 1.7 62.3 2.1 62.4 2.5 62.5 2.9 62.6 3.35 62.7 3.75 62.8 4.15 62.9 4.6 63.0 5.0 63.1 5.45 63.2 5.85 63.25 6.25 63.35 6.7 63.4 7.1 63.5 7.5 63.6 7.95 63.65 8.35 63.7 8.75 63.8 9.2 63.85 9.6 63.9 10.05 63.95 10.45 64.0 10.9 64.05 11.3 64.25 13.0 64.4 15.9 64.4 16.2 64.4 16.9 64.4 17.55 64.4 17.85 64.4 17.9 64.4 18.0 64.4 18.05 64.4 18.15 64.4 18.2 64.4 18.25 64.4 18.35 64.45 18.4 64.45 18.5 64.45 18.55 64.45 18.6 64.45 18.7 64.45 18.75 64.5 18.8 64.5 18.9 64.5 18.95 64.5 19.0 64.5 19.05 64.5 19.05 64.5 19.1 64.55 19.15 64.55 19.2 64.55 19.25 64.55 19.3 64.55 19.3 64.55 19.35 64.55 19.4 64.55 19.45 64.55 19.5 64.55 19.55 64.55 19.6 64.55 19.6 64.5 20.1 64.25 21.6 64.2 21.9 64.15 22.15 64.1 22.45 64.05 22.7 64.0 23.0 63.9 23.3 63.85 23.55 63.75 23.85 63.7 24.1 63.6 24.4 63.55 24.65 63.45 24.95 63.35 25.2 63.25 25.5 63.15 25.75 63.05 26.0 63.0 26.05 63.0 26.1 63.0 26.15 62.95 26.2 62.95 26.25 62.9 26.3 62.85 26.35 62.85 26.4 62.8 26.45 62.8 26.5 62.75 26.55 62.7 26.55 62.65 26.6 62.65 26.65 62.6 26.65 62.55 26.7 62.5 26.7 62.45 26.75 62.45 26.8 62.4 26.8 62.4 26.85 62.4 26.9 62.4 26.9 62.4 26.95 62.4 27.0 62.4 27.05 62.4 27.05 62.45 27.25 62.65 27.85 63.15 29.15 63.55 30.4 63.8 31.1 66.1 37.2 66.65 38.45 66.8 38.75 66.9 39.0 67.05 39.3 67.15 39.55 67.3 39.85 67.4 40.1 67.55 40.4 67.7 40.65 67.8 40.95 67.95 41.2 68.1 41.5 68.25 41.75 68.4 42.05 68.55 42.3 68.7 42.55 68.85 42.8 69.0 43.05 69.2 43.35 69.55 43.9 69.55 43.9 69.55 43.95 69.55 44.0 69.4 43.9 69.1 43.7 68.8 43.5 68.65 43.4 67.9 42.9 65.5 41.15 65.35 41.05 65.25 40.95 65.1 40.85 65.0 40.75 64.85 40.65 64.7 40.55 64.6 40.45 64.45 40.35 64.35 40.25 64.25 40.1 64.1 40.0 64.0 39.9 63.85 39.8 63.75 39.7 63.65 39.55 63.5 39.45 62.85 38.8 61.2 36.75 60.95 36.55 60.95 36.55 60.95 36.6 60.9 36.65 60.9 36.65 60.9 36.7 60.9 36.75 60.9 36.8 60.85 36.85 60.85 36.9 60.9 36.9 60.9 36.95 60.9 37.25 60.95 37.85 60.95 38.4 61.0 38.7 61.0 39.1 61.0 40.1 61.05 40.95 61.0 41.5 60.95 43.45 60.9 44.4 60.9 44.6 60.85 44.8 60.85 45.0 60.8 45.25 60.8 45.45 60.75 45.65 60.75 45.85 60.7 46.05 60.7 46.25 60.65 46.45 60.65 46.65 60.6 46.85 60.6 47.05 60.55 47.25 60.5 47.5 60.5 47.7 60.45 47.9 60.45 48.1 60.4 48.3 60.35 48.45 60.3 48.65 60.25 48.85 60.2 49.05 60.2 49.2 60.15 49.4 60.05 49.6 60.0 49.8 59.95 49.95 59.9 50.15 59.85 50.35 59.75 50.55 59.7 50.7 59.6 50.9 59.55 51.1 59.45 51.3 59.35 51.55 59.25 51.75 59.15 51.95 59.05 52.15 58.95 52.35 58.85 52.55 58.75 52.75 58.6 52.9 58.5 53.1 58.4 53.3 58.3 53.5 58.15 53.7 58.05 53.9 57.65 54.5 56.85 55.55 56.8 55.5 56.8 55.3 56.75 55.05 56.65 54.6 56.55 54.05 56.5 53.9 56.1 52.15 56.05 51.7 55.85 49.55 55.75 48.5 55.7 48.2 55.6 47.15 55.55 46.95 55.6 47.05 55.55 47.0 55.5 47.0 55.45 47.0 55.4 47.05 55.3 47.05 55.3 47.15 55.3 47.2 55.25 47.3 54.6 50.55 54.35 51.85 54.2 52.55 53.05 57.85 52.7 59.5 52.5 60.05 52.45 60.2 52.35 60.3 52.3 60.4 52.2 60.5 52.1 60.6 52.0 60.65 51.85 60.7 51.75 60.75 51.65 60.8 51.5 60.8 51.35 60.8 51.25 60.8 51.1 60.75 51.0 60.7 50.9 60.65 50.75 60.55 50.75 60.55 50.7 60.5 50.7 60.45 50.65 60.45 50.65 60.4 50.6 60.4 50.6 60.35 50.55 60.3 50.55 60.3 50.55 60.25 50.5 60.25 50.5 60.2 50.5 60.15 50.45 60.15 50.45 60.1 50.45 60.05 50.35 59.85 50.25 59.65 50.15 59.45 50.1 59.25 50.0 59.05 49.9 58.85 49.85 58.65 49.75 58.4 49.7 58.2 49.6 58.0 49.55 57.8 49.45 57.6 49.4 57.35 49.35 57.15 49.25 56.95 49.2 56.75 48.75 55.15 48.35 53.8 48.3 53.65 48.35 53.65 48.3 53.6 48.2 53.6 48.15 53.6 48.1 53.6 48.1 53.6 48.05 53.65 48.05 53.7 48.0 53.75 48.0 53.75 47.95 53.8 47.85 53.95 47.7 54.15 47.6 54.3 47.5 54.45 47.35 54.65 47.25 54.8 47.15 54.95 47.0 55.15 46.9 55.3 46.8 55.45 46.65 55.65 46.55 55.8 46.4 55.95 46.3 56.1 46.15 56.3 46.05 56.45 45.8 56.8 45.5 57.1 45.2 57.45 44.9 57.75 44.6 58.1 44.3 58.4 44.0 58.7 43.7 58.95 43.35 59.25 43.05 59.55 42.7 59.8 42.35 60.05 42.0 60.3 41.65 60.55 41.3 60.8 40.95 61.0 40.95 61.0 40.85 61.05 40.8 61.05 40.75 61.1 40.75 61.15 40.7 61.15 L40.7 61.15" fill="#730000" fill-rule="evenodd" stroke="none"/>
    <path d="M-87.05 45.25 Q-87.0 45.3 -87.0 45.3 -87.0 45.35 -87.1 45.3 -87.05 45.3 -87.05 45.25 L-87.05 45.25" fill="#730000" fill-rule="evenodd" stroke="none"/>
  </g>
</svg>
