<?xml version="1.0" encoding="UTF-8" standalone="no"?>
<svg xmlns:xlink="http://www.w3.org/1999/xlink" height="120.2px" width="160.9px" xmlns="http://www.w3.org/2000/svg">
  <g transform="matrix(1.0, 0.0, 0.0, 1.0, 80.45, 60.1)">
    <path d="M57.95 14.45 Q57.8 13.5 57.7 12.6 57.55 11.65 57.45 10.7 57.3 9.75 57.2 8.85 57.1 7.9 57.05 6.95 56.95 6.0 56.9 5.1 56.8 4.15 56.75 3.2 56.7 2.25 56.7 1.35 56.65 0.4 56.65 -0.55 56.55 -3.6 56.7 -5.25 56.7 -5.35 56.7 -5.4 56.75 -5.5 56.75 -5.55 56.75 -5.6 56.8 -5.7 56.8 -5.75 56.85 -5.8 56.85 -5.9 56.9 -5.95 56.9 -6.0 56.95 -6.05 57.0 -6.1 57.05 -6.2 57.1 -6.25 57.15 -6.3 57.2 -6.2 57.2 -6.1 57.25 -6.0 57.25 -5.9 57.3 -5.8 57.3 -5.7 57.35 -5.6 57.35 -5.55 57.4 -5.45 57.4 -5.35 57.45 -5.25 57.45 -5.15 57.45 -5.1 57.45 -5.0 57.5 -4.9 57.5 -4.8 58.1 2.5 58.3 4.75 58.35 5.25 58.4 5.75 58.45 6.25 58.5 6.75 58.55 7.25 58.65 7.75 58.7 8.25 58.8 8.75 58.85 9.25 58.95 9.7 59.05 10.2 59.15 10.7 59.25 11.2 59.35 11.7 59.5 12.2 59.6 12.65 60.0 14.05 60.5 16.25 61.15 19.15 61.3 19.9 61.45 20.4 61.55 20.75 61.6 20.65 61.65 20.5 61.7 20.4 61.75 20.3 61.8 20.2 61.85 20.05 61.9 19.95 61.9 19.85 61.95 19.75 61.95 19.65 62.0 19.5 62.0 19.4 62.0 19.3 62.05 19.2 62.05 19.1 62.05 19.0 62.05 18.85 62.05 18.7 62.05 18.55 62.05 18.35 62.1 18.2 62.1 18.05 62.1 17.9 62.15 17.75 62.15 17.65 62.15 17.4 62.2 17.2 62.2 17.1 62.2 16.95 62.25 16.8 62.25 16.65 62.25 16.5 62.3 16.1 62.3 15.65 62.3 15.25 62.35 14.8 62.35 14.4 62.35 13.95 62.35 13.55 62.35 13.1 62.3 12.7 62.3 12.3 62.3 11.85 62.25 11.45 62.25 11.05 62.2 10.6 62.2 10.2 62.15 9.75 62.1 8.85 62.0 7.95 61.9 7.05 61.75 6.15 61.6 5.25 61.45 4.35 61.3 3.5 61.1 2.6 60.95 1.75 60.7 0.85 60.5 0.0 60.3 -0.9 60.05 -1.75 59.85 -2.65 59.6 -3.5 59.35 -4.4 59.25 -4.75 57.3 -10.05 57.15 -10.4 57.05 -10.75 56.9 -11.1 56.75 -11.45 56.6 -11.8 56.45 -12.15 56.3 -12.5 56.15 -12.85 56.0 -13.15 55.8 -13.5 55.65 -13.85 55.5 -14.2 55.35 -14.55 55.15 -14.85 55.0 -15.2 54.85 -15.55 53.55 -17.9 52.8 -18.85 52.75 -18.9 52.7 -19.0 52.65 -19.05 52.65 -19.1 52.6 -19.2 52.6 -19.25 52.6 -19.35 52.6 -19.4 52.55 -19.5 52.6 -19.55 52.6 -19.65 52.6 -19.7 52.65 -19.8 52.65 -19.85 52.7 -19.95 52.75 -20.0 52.8 -20.1 52.85 -20.15 52.9 -20.2 52.95 -20.25 53.0 -20.3 53.05 -20.35 53.1 -20.4 53.2 -20.45 53.25 -20.5 53.35 -20.5 53.4 -20.55 53.5 -20.55 53.55 -20.55 53.65 -20.55 53.75 -20.55 53.8 -20.55 53.85 -20.55 53.95 -20.5 54.0 -20.5 54.1 -20.5 54.15 -20.45 54.2 -20.4 54.3 -20.4 54.35 -20.35 54.4 -20.35 54.45 -20.3 54.55 -20.25 54.6 -20.2 54.65 -20.15 54.7 -20.1 54.75 -20.05 54.8 -20.0 55.2 -19.55 56.3 -18.45 57.3 -17.45 57.8 -16.85 57.8 -16.8 57.85 -16.8 57.85 -16.75 57.9 -16.75 57.9 -16.7 57.95 -16.65 57.95 -16.65 58.0 -16.6 58.0 -16.55 58.05 -16.5 58.05 -16.5 58.1 -16.45 58.15 -16.4 58.2 -16.35 58.2 -16.35 58.25 -16.3 58.3 -16.25 58.35 -16.25 58.45 -16.2 58.5 -16.15 58.5 -16.2 58.45 -16.3 58.4 -16.35 58.35 -16.4 58.35 -16.45 58.3 -16.5 58.3 -16.55 58.25 -16.6 58.25 -16.65 58.2 -16.7 58.2 -16.75 58.15 -16.8 58.1 -16.8 58.1 -16.85 58.05 -16.9 58.0 -16.9 58.0 -16.95 58.0 -17.0 57.95 -17.05 57.9 -17.05 57.85 -17.25 57.4 -17.9 56.85 -18.75 56.25 -19.6 55.7 -20.4 55.1 -21.25 54.5 -22.05 53.9 -22.85 53.3 -23.65 52.65 -24.45 52.05 -25.25 51.4 -26.05 50.75 -26.8 50.1 -27.6 49.45 -28.35 48.75 -29.1 48.1 -29.85 47.45 -30.6 42.7 -35.85 41.8 -36.95 41.7 -37.05 41.5 -37.3 41.75 -37.3 41.95 -37.35 42.2 -37.35 42.4 -37.35 42.65 -37.4 42.85 -37.4 43.05 -37.45 43.3 -37.5 43.5 -37.5 43.75 -37.55 43.95 -37.55 44.15 -37.6 44.35 -37.65 44.6 -37.7 44.8 -37.7 45.0 -37.75 45.35 -37.8 45.75 -37.9 46.1 -38.0 46.45 -38.1 46.8 -38.2 47.15 -38.35 47.5 -38.45 47.85 -38.6 48.15 -38.7 48.5 -38.9 48.85 -39.0 49.2 -39.2 49.5 -39.35 49.85 -39.55 50.15 -39.7 50.5 -39.9 51.0 -40.15 51.45 -40.5 51.95 -40.8 52.4 -41.1 52.85 -41.4 53.3 -41.75 53.75 -42.1 54.2 -42.5 54.6 -42.85 55.05 -43.2 55.45 -43.6 55.85 -44.0 56.25 -44.4 56.65 -44.8 57.05 -45.2 57.45 -45.65 57.5 -45.8 57.5 -45.85 57.45 -45.85 57.35 -45.85 57.3 -45.85 57.2 -45.8 57.15 -45.8 57.1 -45.8 57.0 -45.8 56.95 -45.75 56.9 -45.75 56.8 -45.75 56.7 -45.7 56.7 -45.7 56.6 -45.7 56.55 -45.65 56.5 -45.65 56.4 -45.65 55.95 -45.55 55.55 -45.5 55.1 -45.4 54.65 -45.35 54.25 -45.3 53.8 -45.25 53.35 -45.2 52.95 -45.2 52.5 -45.15 52.05 -45.15 51.65 -45.15 51.2 -45.15 50.75 -45.15 50.3 -45.2 49.9 -45.2 49.45 -45.25 48.5 -45.35 47.55 -45.45 46.6 -45.55 45.65 -45.7 44.7 -45.85 43.75 -46.0 42.8 -46.15 41.85 -46.35 40.95 -46.55 40.0 -46.75 39.1 -46.95 38.1 -47.2 37.2 -47.4 36.25 -47.65 35.35 -47.9 34.4 -48.15 33.6 -48.35 32.9 -48.55 32.1 -48.8 31.35 -49.0 30.6 -49.2 29.85 -49.45 29.1 -49.7 28.35 -49.9 27.6 -50.15 26.85 -50.4 26.1 -50.7 25.4 -50.95 24.65 -51.2 23.9 -51.5 23.15 -51.8 22.45 -52.1 21.95 -52.3 21.45 -52.55 20.95 -52.75 20.45 -53.0 19.95 -53.25 19.45 -53.45 18.95 -53.7 18.45 -53.95 17.95 -54.25 17.5 -54.5 17.0 -54.75 16.5 -55.05 16.05 -55.35 15.55 -55.65 15.1 -55.9 14.65 -56.25 14.55 -56.3 14.45 -56.4 14.35 -56.45 14.2 -56.55 14.1 -56.6 14.0 -56.7 13.9 -56.75 13.8 -56.85 13.7 -56.9 13.6 -57.0 13.5 -57.05 13.4 -57.15 13.3 -57.25 13.2 -57.3 13.1 -57.4 13.0 -57.5 13.3 -57.45 14.3 -57.1 16.2 -56.4 19.4 -55.1 23.15 -53.6 24.5 -53.05 25.4 -52.7 26.3 -52.4 27.2 -52.05 28.15 -51.75 29.05 -51.45 30.0 -51.15 30.9 -50.85 31.85 -50.6 32.75 -50.3 33.7 -50.05 34.6 -49.8 35.55 -49.55 36.45 -49.3 37.4 -49.1 38.35 -48.85 39.3 -48.65 39.8 -48.5 40.35 -48.4 40.85 -48.3 41.4 -48.2 41.9 -48.05 42.45 -47.95 42.95 -47.85 43.45 -47.75 44.0 -47.65 44.5 -47.55 45.05 -47.45 45.55 -47.4 46.1 -47.3 46.65 -47.2 47.15 -47.15 47.7 -47.05 48.1 -47.0 48.45 -46.95 48.85 -46.95 49.25 -46.9 49.6 -46.85 50.0 -46.85 50.4 -46.85 50.75 -46.8 51.15 -46.8 51.55 -46.8 51.9 -46.8 52.3 -46.85 52.7 -46.85 53.1 -46.85 53.45 -46.9 53.85 -46.9 53.9 -46.9 53.95 -46.9 53.95 -46.9 54.0 -46.95 54.05 -46.95 54.1 -46.95 54.15 -46.95 54.15 -46.95 54.2 -46.95 54.25 -46.95 54.3 -46.95 54.3 -46.95 54.35 -46.95 54.4 -46.95 54.45 -46.95 54.5 -46.95 54.85 -46.9 55.25 -46.9 55.65 -46.9 56.0 -46.9 56.4 -46.95 56.75 -47.0 57.1 -47.0 57.5 -47.05 57.85 -47.15 58.25 -47.2 58.6 -47.3 59.0 -47.35 59.35 -47.45 59.7 -47.55 60.05 -47.65 60.45 -47.75 60.6 -47.8 61.15 -47.95 61.15 -47.9 61.15 -47.85 61.15 -47.8 61.15 -47.75 61.15 -47.7 61.15 -47.65 61.1 -47.6 61.1 -47.6 61.1 -47.55 61.05 -47.5 61.05 -47.45 61.0 -47.45 61.0 -47.4 60.95 -47.35 60.9 -47.3 60.9 -47.3 60.15 -46.3 59.75 -45.8 59.3 -45.25 58.85 -44.75 58.35 -44.2 57.9 -43.7 57.4 -43.2 56.95 -42.75 56.45 -42.25 55.9 -41.8 55.4 -41.35 54.9 -40.9 54.35 -40.45 53.8 -40.05 53.25 -39.65 52.65 -39.3 52.1 -38.9 51.5 -38.55 51.15 -38.35 50.8 -38.15 50.4 -37.95 50.05 -37.8 49.7 -37.6 49.3 -37.45 48.95 -37.25 48.55 -37.1 48.2 -36.95 47.8 -36.8 47.4 -36.65 47.05 -36.55 46.65 -36.45 46.25 -36.35 45.85 -36.25 45.45 -36.15 45.45 -36.1 45.45 -36.05 45.45 -36.0 45.5 -36.0 45.5 -35.95 45.5 -35.9 45.55 -35.9 45.55 -35.85 45.6 -35.8 45.6 -35.8 45.65 -35.75 45.7 -35.75 45.7 -35.7 45.75 -35.7 45.75 -35.65 45.8 -35.65 51.0 -29.95 53.4 -27.0 53.9 -26.4 54.35 -25.8 54.8 -25.2 55.25 -24.65 55.75 -24.05 56.2 -23.45 56.65 -22.8 57.1 -22.2 57.55 -21.6 57.95 -21.0 58.4 -20.35 58.8 -19.75 59.25 -19.1 59.65 -18.45 60.05 -17.8 60.45 -17.15 60.6 -16.85 60.8 -16.55 60.95 -16.3 61.1 -16.0 61.25 -15.7 61.35 -15.4 61.5 -15.1 61.65 -14.75 61.75 -14.45 61.9 -14.15 62.0 -13.85 62.1 -13.5 62.25 -13.2 62.35 -12.9 62.45 -12.6 62.55 -12.25 62.8 -11.55 63.0 -10.85 63.25 -10.15 63.45 -9.4 63.65 -8.7 63.8 -8.0 64.0 -7.25 64.15 -6.55 64.35 -5.8 64.5 -5.1 64.65 -4.35 64.75 -3.65 64.9 -2.9 65.05 -2.15 65.15 -1.45 65.25 -0.7 65.25 -0.6 65.25 -0.4 65.3 -0.1 65.3 -0.1 65.25 -0.1 65.25 -0.15 65.2 -0.2 65.2 -0.2 65.15 -0.25 65.15 -0.3 65.15 -0.3 65.1 -0.35 65.1 -0.4 65.1 -0.45 65.1 -0.45 65.05 -0.5 65.05 -0.55 65.05 -0.55 65.0 -0.6 65.0 -0.65 64.8 -1.15 64.6 -1.6 64.4 -2.1 64.2 -2.6 64.0 -3.1 63.8 -3.55 63.55 -4.05 63.35 -4.5 63.15 -5.0 62.9 -5.45 62.7 -5.95 62.45 -6.4 62.2 -6.85 61.95 -7.3 61.7 -7.8 61.45 -8.25 61.35 -8.45 61.2 -8.65 61.1 -8.85 60.95 -9.1 60.85 -9.3 60.7 -9.5 60.6 -9.7 60.45 -9.9 60.3 -10.1 60.2 -10.3 60.05 -10.5 59.9 -10.7 59.75 -10.9 59.65 -11.1 59.5 -11.3 59.35 -11.45 59.35 -11.5 59.3 -11.55 59.25 -11.6 59.25 -11.65 59.2 -11.7 59.2 -11.75 59.15 -11.8 59.1 -11.85 59.1 -11.9 59.05 -11.95 59.0 -12.0 58.95 -12.05 58.9 -12.1 58.85 -12.15 58.8 -12.2 58.75 -12.25 58.75 -12.2 58.8 -12.1 58.85 -12.0 58.85 -11.95 58.85 -11.9 58.9 -11.85 58.9 -11.75 58.95 -11.7 58.95 -11.65 59.0 -11.6 59.0 -11.55 59.05 -11.5 59.05 -11.45 59.1 -11.4 59.1 -11.35 59.15 -11.3 60.65 -7.25 60.75 -6.95 61.05 -6.15 61.3 -5.35 61.55 -4.5 61.8 -3.7 62.0 -2.85 62.25 -2.05 62.45 -1.2 62.65 -0.4 62.85 0.45 63.05 1.25 63.25 2.1 63.4 2.95 63.55 3.8 63.7 4.6 63.85 5.45 63.95 6.3 64.0 6.8 64.1 7.3 64.15 7.85 64.2 8.35 64.25 8.85 64.3 9.35 64.35 9.85 64.35 10.4 64.4 10.9 64.4 11.4 64.45 11.9 64.45 12.45 64.45 12.95 64.5 13.45 64.5 13.95 64.5 14.5 64.5 14.6 64.5 14.65 64.5 14.7 64.5 14.8 64.5 14.85 64.5 14.95 64.5 15.0 64.5 15.1 64.5 15.15 64.5 15.25 64.5 15.3 64.55 15.4 64.55 15.45 64.55 15.55 64.55 15.6 64.6 15.7 64.6 15.8 64.65 15.9 64.65 16.0 64.65 16.1 64.65 16.2 64.65 16.35 64.65 16.45 64.65 16.55 64.65 16.65 64.6 16.75 64.6 16.85 64.6 16.95 64.55 17.05 64.55 17.2 64.55 17.25 64.5 17.4 64.45 17.75 64.4 18.1 64.35 18.45 64.3 18.75 64.25 19.1 64.15 19.45 64.1 19.8 64.0 20.1 63.95 20.45 63.85 20.75 63.75 21.1 63.65 21.45 63.55 21.75 63.45 22.1 63.35 22.4 63.25 22.75 63.25 22.8 63.2 22.9 63.15 23.0 63.15 23.0 63.1 23.1 63.05 23.15 63.05 23.25 63.0 23.3 62.95 23.35 62.95 23.4 62.9 23.5 62.85 23.55 62.8 23.6 62.75 23.65 62.7 23.7 62.6 23.7 62.55 23.75 62.55 23.75 62.5 23.8 62.5 23.8 62.5 23.85 62.5 23.9 62.45 23.9 62.5 23.95 62.5 23.95 62.5 24.0 62.5 24.0 62.5 24.05 62.5 24.05 62.55 24.1 62.55 24.15 62.55 24.2 62.65 24.5 63.1 25.8 63.4 26.75 63.65 27.4 66.2 34.6 67.35 37.15 67.5 37.45 67.6 37.7 67.75 37.95 67.85 38.2 68.0 38.45 68.15 38.7 68.25 39.0 68.4 39.25 68.55 39.5 68.7 39.75 68.85 40.0 69.0 40.25 69.15 40.5 69.3 40.75 69.45 41.0 69.6 41.2 69.6 41.2 69.65 41.25 69.7 41.3 69.7 41.3 69.7 41.35 69.7 41.35 69.75 41.4 69.75 41.4 69.75 41.45 69.8 41.45 69.8 41.5 69.8 41.5 69.8 41.55 69.8 41.55 69.85 41.6 69.85 41.65 68.25 40.65 65.05 38.2 63.65 37.1 60.95 33.75 60.95 33.9 60.95 34.15 60.95 34.35 60.95 34.45 61.0 34.8 61.0 35.2 61.05 35.55 61.05 35.9 61.05 36.25 61.1 36.65 61.1 37.0 61.1 37.35 61.1 37.7 61.1 38.1 61.1 38.45 61.1 38.8 61.1 39.15 61.1 39.55 61.05 39.9 61.05 40.25 61.05 40.65 61.0 41.0 61.0 41.4 60.95 41.75 60.95 42.15 60.9 42.55 60.85 42.9 60.85 43.3 60.8 43.65 60.75 44.05 60.7 44.4 60.65 44.8 60.6 45.15 60.5 45.55 60.45 45.9 60.4 46.3 60.35 46.65 60.25 47.0 60.15 47.35 60.05 47.65 59.9 48.0 59.8 48.35 59.65 48.65 59.5 49.0 59.35 49.3 59.2 49.65 59.05 49.95 58.9 50.25 58.75 50.55 58.55 50.9 58.4 51.15 58.2 51.5 57.8 52.2 56.85 53.45 56.75 52.75 56.4 51.15 56.1 49.75 56.0 48.95 55.8 46.5 55.55 44.5 55.5 44.55 55.45 44.55 55.5 44.55 55.4 44.6 55.4 44.6 55.4 44.6 55.25 45.45 54.9 47.0 54.6 48.65 54.45 49.4 54.0 51.6 52.9 56.65 52.8 57.1 52.6 57.8 52.55 57.9 52.55 58.0 52.5 58.1 52.45 58.15 52.4 58.25 52.35 58.3 52.3 58.35 52.2 58.4 52.15 58.5 52.1 58.55 52.0 58.55 51.9 58.6 51.85 58.65 51.75 58.65 51.65 58.7 51.55 58.7 51.45 58.7 51.35 58.7 51.25 58.7 51.2 58.65 51.1 58.65 51.0 58.6 50.95 58.55 50.9 58.5 50.8 58.5 50.75 58.4 50.7 58.35 50.65 58.3 50.6 58.2 50.55 58.15 50.5 58.05 50.45 57.95 49.8 56.55 48.95 53.7 48.85 53.3 48.6 52.5 48.4 51.7 48.3 51.3 48.25 51.3 48.2 51.3 48.2 51.3 48.15 51.35 48.15 51.35 48.1 51.4 48.1 51.4 48.05 51.45 48.05 51.45 48.05 51.5 48.0 51.5 48.0 51.55 48.0 51.6 47.95 51.6 47.95 51.6 47.95 51.65 45.6 55.05 44.3 56.3 44.1 56.5 43.9 56.65 43.75 56.85 43.55 57.0 43.35 57.2 43.15 57.35 42.95 57.5 42.75 57.7 42.55 57.85 42.3 58.0 42.1 58.15 41.9 58.3 41.7 58.45 41.45 58.6 41.25 58.75 41.0 58.9 41.0 58.9 40.95 58.9 40.95 58.95 40.9 58.95 40.9 58.95 40.9 59.0 40.85 59.0 40.85 59.0 40.8 59.0 40.75 59.05 40.75 59.05 40.7 59.05 40.65 59.05 40.65 59.05 40.6 59.05 40.55 59.05 40.55 58.85 40.55 58.65 40.6 58.45 40.6 58.2 40.6 58.05 40.6 57.8 40.6 57.5 40.6 57.4 40.6 57.15 40.6 57.0 40.6 56.75 40.6 56.6 40.65 56.35 40.65 56.15 40.7 55.95 40.7 55.75 40.8 55.35 40.85 55.0 40.95 54.6 41.0 54.25 41.05 53.85 41.1 53.5 41.15 53.1 41.2 52.75 41.25 52.35 41.3 52.0 41.3 51.6 41.35 51.2 41.35 50.85 41.35 50.45 41.35 50.05 41.3 49.7 41.3 49.6 41.3 49.45 41.25 49.4 41.2 49.4 41.2 49.4 41.15 49.4 41.1 49.4 41.1 49.45 41.05 49.45 41.05 49.45 41.05 49.5 41.0 49.5 40.9 49.65 40.95 49.55 40.95 49.6 40.95 49.6 40.9 49.65 40.9 49.65 40.75 49.8 40.7 49.85 40.55 50.0 40.45 50.1 40.35 50.2 40.2 50.3 40.1 50.4 40.0 50.5 39.85 50.6 39.75 50.7 39.6 50.8 39.5 50.9 39.35 51.0 39.2 51.1 39.05 51.2 38.95 51.25 38.85 51.3 38.75 51.35 38.7 51.4 38.6 51.4 38.55 51.45 38.45 51.45 38.4 51.45 38.35 51.45 38.25 51.45 38.2 51.45 38.1 51.45 38.05 51.45 37.95 51.4 37.85 51.4 37.8 51.35 37.65 51.3 37.85 50.9 38.0 50.5 38.2 50.1 38.35 49.7 38.5 49.3 38.65 48.9 38.8 48.5 38.95 48.1 39.1 47.7 39.25 47.3 39.35 46.85 39.5 46.45 39.6 46.05 39.7 45.6 39.85 45.2 39.95 44.75 39.85 44.8 39.75 44.9 39.65 44.95 39.6 45.05 39.5 45.15 39.4 45.2 39.3 45.3 39.25 45.35 39.15 45.45 39.05 45.55 39.0 45.6 38.9 45.7 38.85 45.75 38.75 45.85 38.7 45.95 38.6 46.05 38.3 46.4 37.9 46.85 37.65 47.15 37.2 47.7 36.7 48.25 36.45 48.5 36.05 49.0 35.75 49.35 35.35 49.8 35.0 50.15 34.6 50.55 34.25 50.95 33.85 51.3 33.45 51.65 33.05 52.05 32.6 52.35 32.6 52.35 32.5 52.4 32.45 52.45 32.45 52.5 32.4 52.55 32.35 52.6 32.3 52.6 32.25 52.65 32.2 52.7 32.15 52.7 32.1 52.75 32.05 52.8 32.0 52.8 31.9 52.85 31.85 52.85 31.8 52.9 31.9 52.45 32.05 51.8 32.25 50.95 32.3 50.75 32.75 48.9 34.75 43.1 35.05 42.2 35.35 41.3 35.6 40.4 35.85 39.5 36.15 38.6 36.35 37.7 36.6 36.8 36.8 35.9 37.05 35.0 37.25 34.05 37.45 33.15 37.6 32.25 37.8 31.3 37.95 30.4 38.1 29.45 38.25 28.5 38.25 28.4 38.25 28.3 38.3 28.2 38.3 28.1 38.3 28.0 38.25 27.9 38.25 27.8 38.25 27.7 38.25 27.6 38.2 27.5 38.2 27.4 38.15 27.3 38.15 27.2 38.1 27.1 38.05 27.0 38.05 26.9 37.45 25.65 34.6 20.2 33.35 17.75 30.1 11.65 30.1 11.6 30.05 11.6 30.05 11.5 30.05 11.5 30.0 11.45 30.0 11.4 30.0 11.4 29.95 11.35 29.95 11.3 29.95 11.25 29.9 11.25 29.9 11.2 29.85 11.15 29.8 11.15 29.8 11.1 29.75 11.05 29.7 11.1 29.7 11.15 29.7 11.2 29.7 11.2 29.7 11.25 29.7 11.3 29.7 11.35 29.7 11.4 29.7 11.4 29.7 11.45 29.7 11.5 29.7 11.55 29.75 11.6 29.75 11.6 29.75 11.65 29.75 11.7 30.2 14.4 30.4 16.1 30.5 17.05 30.6 17.95 30.7 18.85 30.75 19.75 30.8 20.7 30.8 21.6 30.85 22.5 30.85 23.4 30.8 24.35 30.75 25.25 30.7 26.2 30.65 27.1 30.55 28.0 30.4 28.9 30.3 29.85 30.1 30.75 30.05 30.95 30.0 31.15 29.95 31.4 29.95 31.6 29.9 31.8 29.85 32.0 29.8 32.2 29.75 32.4 29.65 32.65 29.6 32.85 29.55 33.05 29.5 33.25 29.4 33.45 29.35 33.65 29.25 33.85 29.2 34.05 29.15 34.2 29.15 34.15 29.1 34.25 29.1 34.3 29.05 34.35 29.05 34.4 29.0 34.45 28.95 34.5 28.9 34.6 28.9 34.65 28.85 34.7 28.8 34.75 28.75 34.8 28.65 34.85 28.6 34.85 28.55 34.9 28.45 33.9 28.45 33.45 28.35 32.65 28.3 32.05 28.2 31.25 28.15 30.6 28.05 29.85 27.9 29.2 27.8 28.45 27.65 27.8 27.5 27.1 27.35 26.4 27.15 25.7 26.95 25.05 26.7 24.35 26.45 23.7 26.4 23.55 26.4 23.65 26.4 23.6 26.35 23.55 26.35 23.5 26.3 23.5 26.25 23.5 26.2 23.45 25.65 24.7 25.5 25.2 24.2 30.15 23.25 32.45 22.8 33.4 22.5 34.05 22.45 34.1 22.4 34.15 22.4 34.2 22.35 34.25 22.3 34.3 22.25 34.35 22.2 34.4 22.15 34.45 22.1 34.45 22.05 34.5 22.0 34.55 21.95 34.55 21.85 34.55 21.8 34.6 21.75 34.6 21.7 34.6 21.6 34.6 21.55 34.6 21.5 34.6 21.45 34.6 21.45 34.6 21.4 34.55 21.4 34.55 21.4 34.45 21.4 34.4 21.4 34.35 21.45 33.35 21.45 33.2 21.5 32.65 21.55 32.1 21.6 31.55 21.65 31.0 21.65 30.45 21.7 29.9 21.7 29.35 21.7 28.8 21.7 28.25 21.7 27.7 21.7 27.15 21.7 26.6 21.65 26.0 21.65 25.45 21.6 24.9 21.55 24.35 21.5 23.7 21.35 22.6 21.2 21.3 21.15 20.8 21.1 20.35 21.05 19.95 21.05 19.5 21.0 19.05 20.95 18.65 20.9 18.2 20.85 17.8 20.8 17.35 20.7 16.9 20.65 16.5 20.6 16.05 20.55 15.65 20.45 15.2 20.4 14.8 20.3 14.35 20.25 13.95 19.55 10.55 17.8 4.85 17.6 4.1 17.0 2.25 17.0 2.2 16.9 2.05 16.85 1.9 16.8 1.8 16.8 3.3 16.8 5.3 16.8 6.7 16.75 8.05 16.7 9.45 16.6 10.8 16.5 12.2 16.35 13.55 16.2 14.95 16.05 16.25 15.85 17.65 15.6 19.0 15.3 20.35 15.0 21.65 14.7 23.0 14.35 24.35 13.95 25.65 13.55 26.95 13.2 28.1 12.8 29.2 12.35 30.3 11.9 31.4 11.45 32.5 11.0 33.55 10.5 34.6 9.95 35.65 9.45 36.7 8.85 37.75 8.3 38.75 7.7 39.75 7.1 40.75 6.45 41.75 5.8 42.7 5.15 43.7 5.1 43.8 5.0 43.9 4.95 44.0 4.85 44.05 4.75 44.15 4.7 44.25 4.6 44.35 4.55 44.4 4.45 44.5 4.35 44.6 4.3 44.65 4.2 44.75 4.1 44.85 4.0 44.9 3.9 45.0 3.85 45.05 3.8 45.1 3.75 45.1 3.7 45.15 3.65 45.2 3.55 45.2 3.5 45.25 3.45 45.25 3.4 45.25 3.35 45.3 3.3 45.3 3.25 45.3 3.15 45.3 3.1 45.3 3.05 45.3 3.0 45.3 2.95 45.3 2.85 45.3 2.8 45.25 2.75 45.25 2.7 45.25 2.65 45.2 2.65 45.2 2.6 45.15 2.6 45.15 2.55 45.1 2.55 45.1 2.55 45.05 2.55 45.0 2.55 44.95 2.55 44.9 2.6 44.85 2.6 44.75 2.85 43.7 3.25 41.55 3.4 40.7 4.1 37.6 4.7 35.15 4.95 33.65 5.55 29.65 5.7 26.85 5.7 26.8 5.7 26.55 5.65 26.55 5.6 26.55 5.6 26.6 5.55 26.6 5.55 26.6 5.5 26.65 5.5 26.65 5.5 26.7 5.45 26.7 5.45 26.75 5.45 26.8 5.45 26.8 5.4 26.9 5.45 26.85 5.4 26.9 5.4 26.95 5.15 27.7 4.85 28.5 4.55 29.25 4.25 30.0 3.95 30.75 3.6 31.5 3.25 32.25 2.9 33.0 2.6 33.7 2.2 34.45 1.85 35.15 1.45 35.9 1.1 36.6 0.7 37.35 0.3 38.05 -0.1 38.75 -0.2 38.95 -0.35 39.15 -0.45 39.3 -0.6 39.5 -0.75 39.65 -0.85 39.85 -1.0 40.0 -1.15 40.15 -1.3 40.35 -1.45 40.5 -1.6 40.65 -1.8 40.8 -1.95 40.95 -2.1 41.1 -2.25 41.2 -2.45 41.4 -2.55 41.5 -2.6 41.55 -2.7 41.6 -2.8 41.7 -2.85 41.75 -2.95 41.85 -3.05 41.9 -3.15 41.95 -3.2 42.05 -3.3 42.1 -3.4 42.15 -3.5 42.25 -3.6 42.3 -3.7 42.35 -3.8 42.45 -3.9 42.5 -3.9 42.45 -3.9 42.4 -3.9 42.35 -3.9 42.3 -3.9 42.25 -3.9 42.2 -3.9 42.15 -3.85 42.1 -3.85 42.05 -3.85 42.0 -3.85 42.0 -3.8 41.95 -3.8 41.85 -3.75 41.85 -3.75 41.8 -3.75 41.75 -3.7 41.65 -3.7 41.55 -3.65 41.45 -3.6 41.35 -3.6 41.25 -3.55 41.15 -3.5 41.05 -3.5 40.95 -3.45 40.85 -3.45 40.75 -3.4 40.65 -3.4 40.5 -3.35 40.4 -3.35 40.3 -3.35 40.2 -3.3 40.1 -3.3 40.05 -3.3 40.0 -3.3 39.9 -3.3 39.85 -3.3 39.8 -3.3 39.75 -3.3 39.7 -3.3 39.65 -3.3 39.55 -3.3 39.5 -3.3 39.45 -3.3 39.4 -3.3 39.35 -3.3 39.3 -3.3 39.2 -3.3 39.15 -3.3 39.1 -3.35 39.1 -3.35 39.05 -3.35 39.05 -3.4 39.0 -3.4 39.0 -3.4 39.0 -3.45 39.0 -3.45 39.0 -3.5 39.0 -3.5 39.0 -3.55 39.0 -3.55 39.0 -3.6 39.05 -3.6 39.05 -3.65 39.1 -3.7 39.15 -3.7 39.15 -3.75 39.2 -3.75 39.25 -3.8 39.25 -3.8 39.3 -3.8 39.35 -3.85 39.4 -3.85 39.45 -3.85 39.45 -3.9 39.6 -3.95 39.75 -4.0 39.9 -4.1 40.0 -4.15 40.15 -4.25 40.3 -4.3 40.4 -4.4 40.55 -4.45 40.65 -4.55 40.8 -4.65 40.9 -4.75 41.0 -4.85 41.1 -4.95 41.25 -5.0 41.35 -5.15 41.45 -5.5 41.85 -6.55 42.95 -6.7 43.15 -6.9 43.3 -7.1 43.45 -7.25 43.6 -7.45 43.75 -7.65 43.9 -7.85 44.0 -8.05 44.15 -8.25 44.25 -8.45 44.35 -8.7 44.5 -8.9 44.6 -9.1 44.65 -9.35 44.75 -9.55 44.85 -9.8 44.9 -9.9 44.95 -9.95 44.95 -10.05 45.0 -10.1 45.0 -10.2 45.0 -10.3 45.0 -10.35 45.0 -10.45 45.0 -10.5 45.0 -10.6 44.95 -10.65 44.95 -10.75 44.9 -10.8 44.85 -10.9 44.8 -10.95 44.75 -11.0 44.65 -11.05 44.6 -11.1 44.5 -11.15 44.45 -11.2 44.35 -11.25 44.3 -11.25 44.2 -11.25 44.15 -11.3 44.05 -11.3 43.95 -11.3 43.9 -11.25 43.8 -11.25 43.7 -11.25 43.65 -11.2 43.55 -11.2 43.45 -11.15 43.35 -10.9 42.75 -10.45 40.35 -10.25 39.3 -9.4 33.9 -9.4 33.8 -9.4 33.75 -9.4 33.7 -9.4 33.65 -9.4 33.55 -9.4 33.5 -9.4 33.45 -9.4 33.4 -9.45 33.35 -9.45 33.3 -9.5 33.25 -9.55 33.2 -9.6 33.15 -9.65 33.1 -9.7 33.1 -9.75 33.05 -9.8 33.05 -9.85 33.0 -9.9 33.0 -9.9 32.95 -9.95 32.9 -10.0 32.85 -10.0 32.85 -10.05 32.8 -10.05 32.75 -10.1 32.7 -10.1 32.65 -10.1 32.6 -10.15 32.55 -10.15 32.5 -10.2 32.45 -10.2 32.4 -10.5 31.65 -10.85 30.9 -11.15 30.15 -11.4 29.4 -11.7 28.65 -11.95 27.9 -12.25 27.1 -12.5 26.35 -12.75 25.6 -12.95 24.8 -13.2 24.05 -13.45 23.25 -13.65 22.45 -13.85 21.65 -14.05 20.9 -14.25 20.1 -14.25 20.1 -14.25 20.0 -14.25 19.95 -14.3 19.95 -14.3 19.9 -14.3 19.85 -14.3 19.8 -14.3 19.75 -14.35 19.75 -14.35 19.7 -14.35 19.65 -14.4 19.6 -14.4 19.55 -14.45 19.5 -14.45 19.45 -14.5 19.45 -14.55 19.55 -14.75 21.3 -14.85 22.0 -14.9 22.75 -14.95 23.5 -14.95 24.25 -15.0 24.95 -15.0 25.7 -15.05 26.4 -15.05 27.15 -15.05 27.9 -15.05 28.65 -15.05 29.35 -15.0 30.1 -15.0 30.8 -14.95 31.55 -14.95 32.25 -14.9 33.05 -14.9 33.1 -14.8 35.75 -14.7 37.4 -14.65 38.5 -14.6 38.9 -14.6 39.3 -14.55 39.7 -14.5 40.1 -14.45 40.5 -14.35 40.85 -14.3 41.25 -14.25 41.65 -14.15 42.05 -14.1 42.45 -14.0 42.8 -13.9 43.2 -13.8 43.6 -13.7 44.0 -13.6 44.35 -13.5 44.75 -13.4 45.1 -13.35 45.4 -13.35 45.4 -13.35 45.55 -13.45 45.45 -13.85 45.1 -14.3 44.65 -14.7 44.2 -15.1 43.75 -15.45 43.25 -15.8 42.8 -16.15 42.3 -16.45 41.8 -16.75 41.25 -17.05 40.75 -17.3 40.15 -17.55 39.65 -17.8 39.05 -18.05 38.5 -18.25 37.95 -18.45 37.35 -18.7 36.75 -18.9 36.1 -19.1 35.45 -19.25 34.85 -19.4 34.2 -19.55 33.55 -19.7 32.85 -19.8 32.25 -19.9 31.55 -19.95 30.9 -20.05 30.25 -20.1 29.6 -20.15 28.9 -20.2 28.25 -20.2 27.55 -20.25 26.9 -20.25 26.2 -20.25 25.9 -20.25 25.4 -20.3 25.4 -20.35 25.45 -20.35 25.45 -20.4 25.5 -20.45 25.55 -20.45 25.55 -20.45 25.6 -20.5 25.65 -20.5 25.65 -20.5 25.7 -20.55 25.7 -20.55 25.75 -20.55 25.8 -20.55 25.85 -20.6 25.85 -20.6 25.9 -20.9 26.6 -21.25 27.2 -21.55 27.85 -21.9 28.5 -22.2 29.15 -22.55 29.75 -22.9 30.4 -23.25 31.0 -23.6 31.65 -24.0 32.25 -24.35 32.85 -24.75 33.45 -25.15 34.05 -25.55 34.65 -25.95 35.25 -26.4 35.8 -26.45 35.9 -26.55 36.0 -26.65 36.1 -26.7 36.2 -26.8 36.3 -26.85 36.35 -26.95 36.45 -27.05 36.55 -27.1 36.65 -27.2 36.75 -27.3 36.8 -27.35 36.9 -27.45 37.0 -27.55 37.1 -27.65 37.15 -27.7 37.25 -27.8 37.3 -27.8 37.35 -27.9 37.4 -27.95 37.45 -28.0 37.5 -28.05 37.55 -28.15 37.6 -28.2 37.65 -28.25 37.7 -28.35 37.7 -28.4 37.75 -28.5 37.8 -28.55 37.8 -28.65 37.85 -28.75 37.85 -28.85 37.85 -28.3 35.75 -27.95 30.85 -28.0 30.85 -28.05 30.85 -28.1 30.9 -28.1 30.9 -28.15 30.9 -28.15 30.95 -28.2 30.95 -28.2 31.0 -28.25 31.0 -28.25 31.05 -28.25 31.1 -28.3 31.1 -28.3 31.15 -28.3 31.15 -28.3 31.2 -28.35 31.2 -28.4 31.3 -28.8 31.95 -29.05 32.4 -29.2 32.7 -29.8 33.8 -31.75 36.5 -31.95 36.75 -32.15 37.05 -32.4 37.3 -32.6 37.55 -32.85 37.75 -33.1 38.0 -33.35 38.2 -33.6 38.45 -33.85 38.65 -34.1 38.85 -34.35 39.05 -34.65 39.2 -34.95 39.4 -35.2 39.55 -35.5 39.75 -35.8 39.9 -35.85 39.9 -35.9 39.95 -36.0 39.95 -36.0 39.95 -36.0 39.9 -36.0 39.85 -36.05 39.8 -36.0 39.75 -36.0 39.7 -36.0 39.65 -36.0 39.6 -36.0 39.55 -36.0 39.5 -36.0 39.45 -35.95 39.35 -35.95 39.35 -35.95 39.3 -35.95 39.25 -35.95 39.2 -35.95 39.15 -35.85 37.95 -35.55 36.05 -35.2 33.65 -35.1 32.95 -35.0 32.3 -34.95 31.6 -34.85 30.9 -34.8 30.2 -34.75 29.55 -34.7 28.85 -34.65 28.2 -34.65 27.5 -34.6 26.8 -34.55 26.1 -34.55 25.45 -34.55 24.75 -34.5 24.05 -34.5 23.35 -34.5 22.7 -34.5 22.0 -34.5 16.0 -34.9 7.0 -34.95 6.45 -35.15 2.8 -35.15 2.8 -35.15 2.7 -35.15 2.6 -35.2 2.55 -35.2 2.5 -35.25 2.45 -35.35 2.45 -35.4 2.5 -35.35 2.45 -35.45 2.65 -36.45 5.3 -38.05 8.95 -85.7 118.45 -40.8 15.2 -42.75 19.75 -44.05 22.6 -44.1 22.65 -44.1 22.7 -44.15 22.75 -44.15 22.8 -44.2 22.9 -44.2 22.95 -44.2 23.0 -44.2 23.05 -44.25 23.1 -44.25 23.15 -44.25 23.2 -44.25 23.3 -44.25 23.35 -44.25 23.4 -44.25 23.45 -44.25 23.55 -44.25 24.6 -44.15 25.7 -44.1 26.75 -44.0 27.85 -43.9 28.9 -43.7 29.95 -43.55 31.0 -43.35 32.05 -43.2 33.1 -42.95 34.15 -42.7 35.2 -42.45 36.25 -42.2 37.25 -41.9 38.3 -41.6 39.3 -41.3 40.35 -41.15 40.9 -41.1 41.0 -40.7 43.7 -39.4 48.6 -39.35 48.75 -39.3 49.1 -39.35 49.1 -39.45 49.1 -39.5 49.05 -39.55 49.05 -39.6 49.05 -39.7 49.0 -39.75 49.0 -39.8 49.0 -39.85 48.95 -39.9 48.95 -39.95 48.9 -40.0 48.9 -40.1 48.85 -40.15 48.85 -40.2 48.8 -40.25 48.75 -41.0 48.2 -42.65 46.9 -42.65 46.9 -42.7 46.85 -42.75 46.8 -42.75 46.8 -42.8 46.75 -42.8 46.7 -42.85 46.7 -42.85 46.65 -42.9 46.65 -42.95 46.6 -42.95 46.6 -43.0 46.55 -43.05 46.55 -43.1 46.55 -43.15 46.55 -43.15 46.5 -43.15 46.55 -43.2 46.6 -43.2 46.65 -43.2 46.7 -43.2 46.7 -43.2 46.75 -43.2 46.8 -43.2 46.85 -43.15 46.9 -43.15 46.9 -43.15 46.95 -43.15 47.0 -42.8 48.0 -43.1 47.05 -43.1 47.1 -43.1 47.15 -42.1 50.55 -40.45 54.85 -40.35 55.1 -40.3 55.15 -40.3 55.2 -40.3 55.25 -40.25 55.3 -40.25 55.35 -40.25 55.4 -40.25 55.4 -40.25 55.45 -40.25 55.5 -40.25 55.55 -40.25 55.6 -40.25 55.65 -40.25 55.7 -40.25 55.75 -40.3 55.75 -40.3 55.8 -40.35 55.85 -40.4 55.9 -40.4 55.9 -40.45 55.9 -40.5 55.95 -40.5 55.95 -40.55 55.95 -40.6 55.95 -40.65 55.9 -40.65 55.9 -40.7 55.9 -40.75 55.9 -40.8 55.85 -40.85 55.85 -40.85 55.85 -40.9 55.8 -40.95 55.8 -41.35 55.7 -41.7 55.55 -42.1 55.4 -42.45 55.25 -42.8 55.1 -43.15 54.9 -43.5 54.7 -43.8 54.5 -44.15 54.3 -44.45 54.05 -44.8 53.8 -45.05 53.55 -45.4 53.3 -45.65 53.0 -45.95 52.7 -46.2 52.4 -46.4 52.15 -46.6 51.9 -46.8 51.65 -47.0 51.45 -47.2 51.2 -47.4 50.95 -47.6 50.7 -47.75 50.45 -47.95 50.2 -48.15 49.95 -48.3 49.7 -48.5 49.45 -48.65 49.15 -48.85 48.9 -49.0 48.65 -49.2 48.4 -49.35 48.15 -49.55 47.65 -49.8 47.1 -49.9 46.9 -49.9 46.85 -49.95 46.85 -49.95 46.8 -49.95 46.8 -50.0 46.75 -50.0 46.7 -50.0 46.65 -50.0 46.65 -50.05 46.6 -50.05 46.6 -50.1 46.55 -50.15 46.5 -50.15 46.5 -50.2 46.45 -50.25 46.45 -50.3 46.4 -50.3 46.6 -50.3 46.8 -50.3 46.95 -50.3 47.15 -50.25 47.3 -50.25 47.5 -50.2 47.65 -50.15 47.85 -50.15 48.0 -50.1 48.2 -49.95 48.85 -50.0 48.55 -49.95 48.75 -49.95 48.85 -49.9 49.05 -49.85 49.2 -49.8 49.7 -49.1 52.05 -49.9 51.65 -51.4 50.65 -51.45 50.6 -51.65 50.3 -52.3 49.45 -52.85 48.55 -53.45 47.7 -54.05 46.8 -54.6 45.9 -55.15 45.0 -55.7 44.1 -56.2 43.15 -56.7 42.25 -57.2 41.3 -57.65 40.35 -58.1 39.35 -58.55 38.4 -59.0 37.45 -59.4 36.45 -59.8 35.45 -60.65 33.15 -62.25 27.65 -62.25 27.65 -62.25 27.6 -62.25 27.6 -62.25 27.55 -62.25 27.55 -62.25 27.5 -62.25 27.5 -62.25 27.5 -62.3 27.45 -62.3 27.45 -62.3 27.4 -62.3 27.4 -62.35 27.35 -62.35 27.35 -62.35 27.3 -62.4 27.3 -62.5 27.4 -62.85 27.9 -63.2 28.45 -63.5 28.95 -63.85 29.5 -64.2 30.0 -64.55 30.55 -64.9 31.05 -65.25 31.6 -65.6 32.1 -65.95 32.6 -66.35 33.1 -66.7 33.6 -67.1 34.1 -67.5 34.6 -67.9 35.05 -68.3 35.55 -68.7 36.05 -70.85 38.5 -72.35 39.8 -72.45 39.9 -72.5 39.95 -72.6 40.0 -72.7 40.1 -72.8 40.15 -72.85 40.25 -72.95 40.3 -73.05 40.35 -73.15 40.45 -73.25 40.5 -73.3 40.55 -73.4 40.6 -73.5 40.65 -73.6 40.7 -73.7 40.8 -73.8 40.85 -73.85 40.8 -73.85 40.8 -73.85 40.75 -73.85 40.7 -73.85 40.7 -73.85 40.7 -73.65 40.25 -73.45 39.8 -73.25 39.35 -73.05 38.9 -72.9 38.45 -72.75 38.0 -72.6 37.55 -72.45 37.05 -72.3 36.6 -72.15 36.1 -72.05 35.65 -71.9 35.15 -71.8 34.75 -71.7 34.2 -71.6 33.9 -71.45 33.25 -70.75 30.25 -70.65 29.85 -70.5 29.0 -69.5 24.1 -69.35 23.25 -69.15 22.4 -69.0 21.55 -68.85 20.7 -68.7 19.85 -68.55 19.0 -68.45 18.15 -68.3 17.3 -68.15 16.45 -68.05 15.6 -67.9 14.75 -67.8 13.85 -67.7 13.05 -67.55 12.15 -67.45 11.3 -67.35 10.45 -67.3 10.2 -66.7 4.55 -66.7 4.5 -66.7 4.5 -66.7 4.45 -66.7 4.45 -66.7 4.45 -66.65 4.4 -66.65 4.35 -66.65 4.35 -66.65 4.3 -66.7 4.3 -66.7 4.25 -66.7 4.2 -66.7 4.2 -66.7 4.15 -66.75 4.1 -66.75 4.1 -67.5 4.35 -68.25 4.55 -69.0 4.75 -69.75 4.9 -70.5 5.05 -71.3 5.15 -72.05 5.25 -72.85 5.35 -73.6 5.45 -74.4 5.5 -75.15 5.6 -76.0 5.65 -76.7 5.7 -77.55 5.7 -78.25 5.75 -79.15 5.8 -79.1 5.75 -79.05 5.7 -79.05 5.65 -79.0 5.65 -78.95 5.6 -78.9 5.55 -78.9 5.55 -78.85 5.5 -78.8 5.5 -78.75 5.45 -78.75 5.45 -78.7 5.4 -81.25 6.85 -78.65 5.4 -78.6 5.35 -78.55 5.35 -72.8 1.85 -72.1 1.4 -71.75 1.15 -71.45 0.95 -71.15 0.7 -70.85 0.45 -70.5 0.2 -70.2 -0.05 -69.9 -0.3 -69.6 -0.55 -69.3 -0.8 -69.05 -1.05 -68.75 -1.35 -68.45 -1.6 -68.2 -1.9 -67.9 -2.2 -67.65 -2.45 -67.4 -2.75 -67.2 -3.0 -67.0 -3.2 -66.8 -3.45 -66.65 -3.7 -66.45 -3.95 -66.3 -4.2 -66.1 -4.4 -65.95 -4.7 -65.8 -4.95 -65.65 -5.2 -65.5 -5.45 -65.35 -5.7 -65.2 -6.0 -65.05 -6.25 -64.95 -6.5 -64.8 -6.8 -64.6 -7.2 -64.45 -7.6 -64.25 -8.05 -64.1 -8.45 -63.95 -8.85 -63.75 -9.3 -63.6 -9.7 -63.45 -10.15 -63.3 -10.55 -63.2 -11.0 -63.05 -11.4 -62.9 -11.85 -62.75 -12.3 -62.65 -12.7 -62.5 -13.15 -62.4 -13.6 -63.05 -11.3 -61.1 -18.5 -60.3 -21.4 -59.6 -23.35 -59.3 -24.2 -59.0 -25.0 -58.7 -25.85 -58.4 -26.65 -58.1 -27.5 -57.75 -28.3 -57.45 -29.15 -57.1 -29.95 -56.75 -30.8 -56.4 -31.6 -56.05 -32.4 -55.7 -33.2 -55.3 -34.0 -54.95 -34.8 -54.55 -35.6 -54.15 -36.35 -53.75 -37.15 -53.3 -37.9 -52.85 -38.65 -52.4 -39.35 -51.95 -40.1 -51.5 -40.8 -51.0 -41.55 -50.5 -42.2 -50.0 -42.9 -49.45 -43.6 -48.9 -44.25 -48.35 -44.9 -47.8 -45.55 -47.2 -46.15 -46.6 -46.75 -45.95 -47.35 -45.7 -47.6 -45.45 -47.8 -45.2 -48.05 -44.9 -48.3 -44.65 -48.5 -44.35 -48.7 -44.1 -48.9 -43.8 -49.15 -43.55 -49.35 -43.25 -49.55 -42.95 -49.7 -42.65 -49.9 -42.4 -50.1 -42.1 -50.3 -41.8 -50.45 -41.5 -50.65 -41.45 -50.65 -41.45 -50.65 -41.4 -50.6 -41.4 -50.6 -41.35 -50.55 -41.35 -50.5 -41.8 -50.1 -42.2 -49.7 -42.65 -49.3 -43.05 -48.9 -43.45 -48.5 -43.85 -48.05 -44.25 -47.65 -44.65 -47.2 -45.0 -46.75 -45.4 -46.3 -45.75 -45.85 -46.1 -45.35 -46.45 -44.9 -46.8 -44.45 -47.15 -43.95 -47.45 -43.5 -47.65 -43.25 -47.8 -42.95 -48.0 -42.7 -48.15 -42.45 -48.35 -42.15 -48.5 -41.9 -48.65 -41.65 -48.85 -41.35 -49.0 -41.1 -49.15 -40.8 -49.3 -40.55 -49.45 -40.25 -49.6 -40.0 -49.75 -39.7 -49.9 -39.45 -50.05 -39.15 -50.35 -38.55 -51.25 -37.05 -52.05 -35.75 -52.45 -34.95 -53.0 -33.8 -53.5 -32.7 -54.05 -31.55 -54.55 -30.4 -55.05 -29.25 -55.5 -28.1 -56.0 -26.95 -56.45 -25.8 -56.9 -24.6 -57.3 -23.4 -57.7 -22.25 -58.1 -21.05 -58.45 -19.85 -58.8 -18.65 -59.15 -17.4 -59.45 -16.2 -59.65 -15.45 -60.3 -13.15 -60.3 -13.1 -60.35 -13.0 -60.35 -12.95 -60.35 -12.9 -60.4 -12.8 -60.4 -12.75 -60.4 -12.7 -60.45 -12.6 -60.45 -12.55 -60.45 -12.5 -60.45 -12.4 -60.45 -12.35 -60.45 -12.3 -60.5 -12.2 -60.5 -12.15 -60.5 -12.1 -60.5 -12.05 -60.55 -12.05 -60.55 -12.0 -60.55 -11.95 -60.6 -11.95 -60.6 -11.9 -60.6 -11.9 -60.6 -11.85 -60.6 -11.8 -60.6 -11.75 -60.65 -11.75 -60.65 -11.7 -60.65 -11.65 -60.65 -11.65 -60.65 -11.6 -60.65 -11.55 -60.6 -11.55 -60.55 -11.6 -60.55 -11.6 -60.5 -11.65 -60.45 -11.65 -60.45 -11.7 -60.45 -11.75 -60.4 -11.75 -60.4 -11.8 -60.4 -11.85 -60.15 -12.15 -59.95 -12.45 -59.75 -12.75 -59.5 -13.05 -59.3 -13.4 -59.1 -13.7 -58.9 -14.0 -58.7 -14.35 -58.55 -14.65 -58.35 -15.0 -58.15 -15.35 -58.0 -15.65 -57.8 -16.0 -57.65 -16.35 -57.45 -16.7 -57.3 -17.05 -54.35 -23.15 -51.95 -27.15 -51.85 -27.3 -50.5 -29.4 -50.55 -29.2 -50.55 -29.0 -50.6 -28.8 -50.65 -28.6 -50.65 -28.4 -50.7 -28.2 -50.75 -28.0 -50.8 -27.8 -50.85 -27.65 -50.9 -27.45 -50.95 -27.3 -51.0 -27.1 -51.05 -26.9 -51.1 -26.75 -51.15 -26.55 -51.25 -26.4 -51.5 -25.65 -51.75 -24.9 -52.0 -24.15 -52.3 -23.45 -52.55 -22.7 -52.85 -22.0 -53.1 -21.25 -53.4 -20.55 -53.7 -19.8 -54.0 -19.1 -54.3 -18.35 -54.65 -17.65 -54.95 -16.95 -55.3 -16.25 -55.65 -15.55 -56.0 -14.85 -56.15 -14.55 -56.3 -14.25 -56.5 -13.9 -56.65 -13.6 -56.8 -13.3 -57.0 -13.0 -57.15 -12.7 -57.35 -12.4 -57.55 -12.1 -57.75 -11.85 -57.95 -11.55 -58.15 -11.25 -58.35 -10.95 -58.55 -10.7 -58.75 -10.4 -58.95 -10.15 -59.45 -9.5 -61.85 -6.15 -62.15 -5.75 -62.4 -5.4 -62.7 -5.0 -63.0 -4.65 -63.3 -4.3 -63.6 -3.9 -63.9 -3.55 -64.25 -3.2 -64.55 -2.85 -64.9 -2.5 -65.2 -2.2 -65.55 -1.85 -65.85 -1.5 -66.2 -1.15 -66.55 -0.85 -66.9 -0.5 -67.1 -0.3 -67.4 0.05 -67.75 0.45 -67.85 0.6 -68.1 0.9 -68.75 1.55 -69.3 2.2 -69.65 2.55 -66.0 1.75 -58.35 -1.1 -58.4 -1.0 -58.4 -0.95 -58.45 -0.9 -58.5 -0.8 -58.5 -0.75 -58.55 -0.7 -58.6 -0.65 -58.65 -0.6 -58.7 -0.55 -58.75 -0.5 -58.8 -0.45 -58.85 -0.4 -58.9 -0.35 -58.95 -0.3 -58.9 -0.35 -59.05 -0.25 -59.35 0.0 -59.65 0.25 -59.9 0.5 -60.2 0.7 -60.5 0.95 -60.8 1.15 -61.1 1.4 -61.45 1.6 -61.75 1.8 -62.05 2.0 -62.4 2.2 -62.7 2.35 -63.05 2.55 -63.35 2.7 -63.7 2.9 -64.05 3.05 -64.1 3.1 -64.2 3.1 -64.25 3.15 -64.3 3.2 -64.3 3.2 -64.35 3.25 -64.4 3.3 -64.4 3.35 -64.45 3.4 -64.45 3.45 -64.5 3.5 -64.5 3.55 -64.5 3.6 -64.5 3.7 -64.5 3.75 -64.5 3.85 -64.5 4.4 -64.85 7.8 -65.4 12.65 -66.35 18.6 -66.75 21.4 -68.2 28.25 -68.25 28.6 -68.3 28.9 -68.4 29.2 -68.45 29.5 -68.5 29.85 -68.6 30.15 -68.65 30.45 -68.75 30.75 -68.8 31.05 -68.9 31.4 -68.95 31.7 -69.05 32.0 -69.15 32.3 -69.2 32.6 -69.3 32.9 -69.4 33.2 -69.45 33.25 -69.45 33.25 -69.5 33.3 -69.5 33.35 -69.55 33.4 -69.55 33.45 -69.55 33.5 -69.55 33.5 -69.55 33.55 -69.55 33.6 -69.45 33.6 -69.4 33.5 -69.35 33.5 -69.3 33.35 -68.6 32.6 -67.6 31.15 -67.0 30.3 -66.45 29.45 -65.85 28.6 -65.3 27.75 -64.75 26.9 -64.25 26.05 -63.7 25.15 -63.2 24.3 -62.7 23.4 -62.25 22.5 -61.75 21.6 -61.3 20.65 -60.85 19.75 -60.45 18.8 -60.05 17.85 -59.65 16.9 -59.55 16.65 -59.45 16.4 -59.35 16.1 -59.25 15.85 -59.15 15.6 -59.05 15.3 -58.95 15.05 -58.85 14.8 -58.75 14.5 -58.65 14.25 -58.55 14.0 -58.45 13.7 -58.35 13.45 -58.3 13.15 -58.2 12.9 -58.1 12.65 -58.05 12.4 -57.95 12.2 -57.9 12.0 -57.8 11.75 -57.75 11.55 -57.65 11.3 -57.55 11.1 -57.5 10.9 -57.4 10.65 -57.3 10.45 -57.2 10.25 -57.1 10.05 -57.05 9.85 -56.95 9.6 -56.85 9.4 -56.7 9.2 -55.55 6.85 -52.25 -1.0 -52.25 -1.1 -52.15 -1.3 -52.1 -1.45 -52.1 -1.6 -52.05 -1.6 -52.0 -1.6 -51.95 -1.6 -51.95 -1.6 -51.9 -1.6 -51.85 -1.6 -52.7 2.05 -54.25 7.3 -54.8 9.2 -54.95 9.7 -55.0 9.75 -55.0 10.15 -55.05 10.15 -55.05 10.2 -55.1 10.2 -55.1 10.25 -55.1 10.25 -55.1 10.3 -55.1 10.4 -55.15 10.55 -55.15 10.55 -55.2 10.6 -55.2 10.65 -55.25 10.65 -55.5 11.55 -55.8 12.4 -56.05 13.25 -56.35 14.1 -56.65 15.0 -56.95 15.8 -57.25 16.7 -57.55 17.5 -57.9 18.35 -58.25 19.2 -58.6 20.0 -59.0 20.85 -59.35 21.65 -59.8 22.45 -60.2 23.25 -60.6 24.05 -60.65 24.1 -60.65 24.15 -60.65 24.2 -60.7 24.2 -60.7 24.25 -60.7 24.3 -60.7 24.35 -60.7 24.4 -60.7 24.45 -60.7 24.5 -60.7 24.6 -60.6 25.0 -60.55 25.35 -60.5 25.55 -60.2 26.8 -59.9 28.0 -59.55 29.2 -59.2 30.4 -58.85 31.6 -58.45 32.75 -58.05 33.95 -57.6 35.1 -57.15 36.25 -56.65 37.4 -56.15 38.55 -55.6 39.65 -55.05 40.75 -54.45 41.85 -53.85 42.95 -53.2 44.0 -53.2 44.0 -53.15 44.1 -53.15 44.1 -53.15 44.15 -53.15 44.2 -53.1 44.2 -53.05 44.25 -53.05 44.25 -53.0 44.25 -52.95 44.25 -53.05 43.75 -53.2 42.9 -53.35 41.9 -53.4 41.5 -53.45 41.15 -53.5 41.0 -53.55 40.7 -53.6 40.45 -53.6 40.2 -53.65 39.95 -53.7 39.65 -53.7 39.4 -53.75 39.15 -53.75 38.9 -53.8 38.6 -53.8 38.35 -53.8 38.1 -53.75 37.85 -53.75 37.55 -53.75 37.3 -53.7 37.1 -53.6 35.25 -53.6 35.2 -53.6 35.15 -53.6 35.1 -53.6 35.05 -53.6 35.0 -53.6 35.0 -53.6 34.95 -53.6 34.9 -53.55 34.85 -53.5 34.8 -53.45 34.85 -53.4 34.95 -53.35 35.0 -53.3 35.1 -53.3 35.2 -53.25 35.25 -53.25 35.3 -53.2 35.45 -53.15 35.55 -53.1 35.6 -53.1 35.7 -53.05 35.75 -53.0 35.85 -52.95 35.9 -52.9 35.95 -52.85 36.05 -52.55 36.85 -51.0 39.95 -50.95 40.05 -50.9 40.15 -50.85 40.25 -50.8 40.35 -50.75 40.45 -50.7 40.55 -50.65 40.6 -50.6 40.7 -50.55 40.8 -50.5 40.9 -50.5 41.0 -50.45 41.1 -50.4 41.2 -50.35 41.3 -50.3 41.4 -50.25 41.5 -50.0 42.15 -49.7 42.75 -49.45 43.4 -49.15 44.0 -48.85 44.6 -48.55 45.2 -48.2 45.8 -47.9 46.35 -47.55 46.95 -47.2 47.5 -46.8 48.05 -46.45 48.6 -46.05 49.15 -45.65 49.7 -45.2 50.2 -44.75 50.7 -44.75 50.75 -44.7 50.8 -44.65 50.85 -44.6 50.9 -44.55 50.95 -44.55 51.0 -44.5 51.05 -44.45 51.1 -44.4 51.15 -44.4 51.2 -44.35 51.2 -44.3 51.25 -44.25 51.3 -44.2 51.35 -44.15 51.35 -44.1 51.4 -44.1 51.35 -44.1 51.3 -44.05 51.25 -44.1 51.2 -44.1 51.15 -44.1 51.1 -44.1 51.05 -44.1 51.0 -44.1 50.95 -44.15 50.95 -44.15 50.9 -44.2 50.85 -44.2 50.8 -44.2 50.75 -44.25 50.7 -44.25 50.7 -44.4 50.3 -44.5 49.9 -44.65 49.5 -44.75 49.1 -44.9 48.65 -45.0 48.25 -45.15 47.85 -45.25 47.45 -45.35 47.05 -45.45 46.65 -45.55 46.25 -45.65 45.8 -45.75 45.4 -45.85 45.0 -45.95 44.6 -46.0 44.15 -46.05 43.95 -46.05 43.75 -46.1 43.55 -46.15 43.35 -46.15 43.15 -46.15 42.95 -46.2 42.75 -46.2 42.55 -46.2 42.35 -46.2 42.15 -46.2 41.95 -46.2 41.75 -46.2 41.55 -46.2 41.35 -46.2 41.15 -46.2 40.95 -46.2 40.7 -46.2 40.45 -46.2 40.25 -46.2 40.0 -46.15 39.75 -46.15 39.5 -46.15 39.25 -46.15 39.05 -46.1 38.8 -46.1 38.55 -46.1 38.3 -46.05 38.05 -46.05 37.8 -46.0 37.55 -46.0 37.35 -45.95 37.1 -45.9 37.15 -45.85 37.2 -45.8 37.25 -45.8 37.3 -45.75 37.4 -45.7 37.45 -45.7 37.5 -45.65 37.55 -45.65 37.6 -45.6 37.65 -45.6 37.7 -45.6 37.8 -45.55 37.85 -45.55 37.9 -45.5 38.0 -45.5 38.05 -45.05 39.7 -44.7 40.6 -44.6 40.8 -44.55 40.9 -44.5 41.1 -44.4 41.25 -44.35 41.4 -44.25 41.55 -44.15 41.7 -44.1 41.85 -44.0 42.0 -43.9 42.15 -43.8 42.3 -43.7 42.45 -43.6 42.55 -43.5 42.7 -43.4 42.85 -43.3 42.95 -43.3 43.0 -43.25 43.05 -43.25 43.05 -43.25 43.1 -43.2 43.15 -43.2 43.15 -43.15 43.2 -43.15 43.2 -43.1 43.2 -43.05 43.2 -43.05 43.2 -43.0 43.15 -43.0 43.1 -43.0 43.05 -43.05 43.05 -43.05 43.0 -43.05 42.95 -43.05 42.9 -43.15 42.8 -43.15 42.8 -43.25 42.3 -43.65 40.8 -43.95 39.55 -44.15 38.8 -44.4 37.7 -44.6 36.8 -44.85 35.75 -45.05 34.85 -45.25 33.8 -45.4 32.85 -45.6 31.8 -45.75 30.85 -45.95 29.8 -46.05 28.85 -46.2 27.8 -46.25 26.85 -46.35 25.8 -46.4 24.8 -46.45 23.75 -46.4 22.75 -46.4 22.25 -46.4 21.75 -46.4 21.25 -46.35 20.75 -46.35 20.25 -46.35 19.75 -46.3 19.2 -46.3 18.75 -46.25 18.2 -46.2 17.7 -46.2 17.2 -46.15 16.7 -46.1 16.2 -46.05 15.7 -46.0 15.2 -45.9 14.7 -45.8 13.8 -45.65 12.9 -45.55 12.0 -45.4 11.05 -45.3 10.15 -45.15 9.25 -45.0 8.35 -44.85 7.45 -44.7 6.55 -44.55 5.65 -44.4 4.75 -44.25 3.85 -44.1 2.95 -43.9 2.05 -43.75 1.15 -43.55 0.25 -43.5 -0.05 -43.4 -0.35 -43.35 -0.6 -43.25 -0.9 -43.2 -1.2 -43.1 -1.5 -43.0 -1.75 -42.9 -2.05 -42.8 -2.3 -42.7 -2.6 -42.65 -2.75 -42.5 -3.15 -42.35 -3.55 -42.25 -3.75 -42.15 -4.05 -42.05 -4.3 -41.9 -4.8 -41.7 -5.3 -41.5 -5.8 -41.3 -6.25 -41.1 -6.75 -40.9 -7.25 -40.7 -7.7 -40.45 -8.2 -40.25 -8.65 -40.0 -9.15 -39.75 -9.6 -39.5 -10.1 -39.3 -10.5 -39.0 -11.0 -38.8 -11.45 -38.5 -11.95 -38.5 -12.0 -38.45 -12.05 -38.45 -12.05 -38.4 -12.15 -38.4 -12.2 -38.4 -12.25 -38.35 -12.3 -38.35 -12.3 -38.3 -12.35 -38.3 -12.4 -38.25 -12.45 -38.25 -12.5 -38.2 -12.55 -38.15 -12.55 -38.1 -12.6 -38.05 -12.6 -38.1 -12.45 -38.15 -12.2 -38.2 -11.9 -38.25 -11.8 -39.75 -6.65 -40.2 -4.75 -40.4 -3.85 -40.65 -2.95 -40.85 -2.05 -41.05 -1.15 -41.25 -0.25 -41.45 0.65 -41.6 1.55 -41.8 2.5 -41.95 3.35 -42.15 4.3 -42.3 5.2 -42.45 6.1 -42.6 7.0 -42.75 7.95 -42.9 8.85 -43.05 9.8 -43.5 12.5 -43.9 15.85 -43.9 16.0 -43.9 16.3 -43.95 16.6 -43.95 16.75 -42.95 14.85 -41.7 11.95 -38.1 3.6 -37.5 1.95 -35.75 -2.6 -35.7 -2.65 -35.6 -2.85 -35.55 -3.05 -35.45 -3.3 -35.4 -3.5 -35.3 -3.7 -35.25 -3.9 -35.2 -4.15 -35.1 -4.35 -35.05 -4.55 -35.0 -4.8 -34.95 -5.0 -34.9 -5.2 -34.9 -5.45 -34.85 -5.65 -34.8 -5.9 -34.8 -6.1 -34.65 -6.7 -34.55 -8.0 -34.5 -7.95 -34.4 -7.95 -34.35 -7.9 -34.3 -7.85 -34.25 -7.8 -34.25 -7.75 -34.2 -7.75 -34.15 -7.7 -34.15 -7.65 -34.1 -7.6 -34.1 -7.55 -34.05 -7.45 -34.05 -7.4 -34.0 -7.35 -34.0 -7.3 -33.95 -7.25 -33.85 -6.9 -33.75 -6.3 -33.65 -5.6 -33.6 -5.3 -33.6 -5.2 -33.3 -1.25 -32.75 5.6 -32.6 10.0 -32.35 16.95 -32.35 21.35 -32.35 21.95 -32.35 22.5 -32.35 23.1 -32.35 23.7 -32.35 24.25 -32.35 24.85 -32.4 25.45 -32.4 26.0 -32.4 26.6 -32.45 27.15 -32.5 27.75 -32.5 28.3 -32.55 28.9 -32.6 29.45 -32.65 30.05 -32.7 30.65 -32.75 31.15 -33.05 34.25 -33.0 34.2 -32.95 34.15 -32.9 34.15 -32.85 34.1 -32.8 34.05 -32.75 34.0 -32.7 33.95 -32.65 33.9 -32.6 33.85 -32.55 33.8 -32.55 33.75 -32.5 33.7 -32.45 33.65 -32.4 33.6 -32.4 33.55 -32.35 33.45 -32.1 33.05 -31.9 32.7 -31.65 32.3 -31.45 31.9 -31.2 31.5 -31.0 31.15 -30.75 30.7 -30.55 30.35 -30.3 29.95 -30.1 29.55 -29.9 29.15 -29.7 28.75 -29.5 28.3 -29.3 27.9 -29.1 27.5 -28.95 27.1 -28.7 26.6 -28.5 26.25 -28.3 25.95 -28.1 25.6 -27.9 25.3 -27.7 24.95 -27.5 24.6 -27.35 24.3 -27.15 23.95 -26.95 23.65 -26.75 23.3 -26.55 22.95 -26.4 22.65 -26.2 22.3 -26.0 21.95 -25.85 21.6 -25.65 21.3 -25.5 20.95 -25.25 20.55 -25.15 20.5 -24.8 22.95 -24.9 23.9 -25.15 26.2 -26.05 30.75 -26.1 31.3 -26.05 31.45 -25.75 31.0 -25.7 30.9 -24.9 29.45 -23.85 27.65 -23.55 27.15 -23.3 26.6 -23.05 26.1 -22.8 25.6 -22.55 25.05 -22.35 24.5 -22.15 24.0 -21.9 23.45 -21.7 22.9 -21.55 22.35 -21.35 21.8 -21.2 21.25 -21.0 20.7 -20.85 20.15 -20.7 19.55 -20.6 19.0 -20.4 18.2 -20.15 16.7 -19.85 15.1 -19.7 14.35 -19.1 11.7 -17.65 5.85 -17.4 4.95 -17.35 4.9 -17.3 4.95 -17.3 5.0 -17.25 5.05 -17.25 5.05 -17.2 5.1 -17.2 5.15 -17.2 5.2 -17.2 5.25 -17.2 5.3 -17.2 5.35 -17.2 5.4 -17.2 5.45 -16.9 17.25 -17.2 5.55 -17.2 5.6 -17.2 5.6 -17.0 8.4 -17.45 13.95 -17.95 20.4 -18.05 24.05 -18.05 24.7 -18.1 25.3 -18.1 25.95 -18.1 26.55 -18.05 27.15 -18.05 27.8 -18.0 28.4 -18.0 29.05 -17.95 29.65 -17.9 30.25 -17.8 30.9 -17.75 31.5 -17.65 32.15 -17.55 32.75 -17.45 33.35 -17.3 33.95 -17.3 34.0 -17.3 34.05 -17.25 34.15 -17.25 34.1 -17.25 34.15 -17.25 34.2 -17.25 34.25 -17.25 34.3 -17.2 34.3 -17.2 34.35 -17.2 34.4 -17.2 34.45 -17.15 34.45 -17.15 34.5 -17.1 34.55 -17.1 34.6 -17.05 34.55 -17.05 34.5 -17.05 34.5 -17.0 34.45 -17.0 34.4 -17.0 34.4 -17.0 34.35 -17.0 34.3 -17.0 34.3 -17.0 34.25 -17.0 34.2 -17.0 34.2 -17.0 34.1 -17.0 34.1 -17.0 34.1 -17.0 34.05 -17.15 31.15 -17.15 30.2 -17.25 25.85 -17.1 24.05 -17.05 23.4 -17.0 22.8 -16.95 22.15 -16.9 21.5 -16.85 20.85 -16.8 20.25 -16.7 19.6 -16.65 18.95 -16.6 18.3 -16.5 17.7 -16.45 17.05 -16.35 16.4 -16.3 15.75 -16.2 15.15 -16.1 14.5 -16.0 13.85 -15.95 13.4 -15.9 13.05 -15.8 12.65 -15.75 12.25 -15.7 11.85 -15.6 11.5 -15.55 11.05 -15.45 10.7 -15.35 10.3 -15.3 9.9 -15.2 9.5 -15.1 9.15 -15.0 8.75 -14.85 8.35 -14.75 7.95 -14.6 7.6 -14.55 7.4 -14.45 7.15 -14.4 6.95 -14.3 6.75 -14.25 6.5 -14.15 6.3 -14.05 6.1 -13.95 5.9 -13.85 5.65 -13.75 5.45 -13.65 5.25 -13.55 5.05 -13.45 4.85 -13.35 4.6 -13.25 4.4 -13.1 4.2 -13.1 4.25 -13.1 4.4 -13.1 4.5 -13.1 4.55 -13.3 5.5 -13.55 7.2 -13.6 7.55 -13.65 7.9 -13.65 8.3 -13.7 8.6 -13.7 9.0 -13.75 9.35 -13.75 9.7 -13.75 10.05 -13.8 10.4 -13.75 10.75 -13.75 11.1 -13.75 11.45 -13.75 11.85 -13.7 12.2 -13.65 12.55 -13.6 12.9 -13.2 15.3 -12.3 18.85 -10.7 25.45 -9.25 28.95 -9.25 29.0 -9.25 29.0 -9.2 29.15 -9.2 29.1 -9.2 29.1 -9.2 29.15 -9.2 29.2 -9.15 29.2 -9.15 29.25 -9.15 29.3 -9.1 29.3 -9.1 29.35 -9.05 29.4 -9.0 29.4 -8.95 29.45 -8.95 29.45 -8.75 27.65 -8.8 27.15 -8.8 25.55 -8.2 20.1 -8.15 19.65 -8.1 19.25 -8.05 18.8 -8.0 18.35 -7.95 17.9 -7.95 17.5 -7.9 17.05 -7.85 16.6 -7.85 16.15 -7.8 15.7 -7.8 15.25 -7.8 14.85 -7.8 14.4 -7.8 13.95 -7.8 13.5 -7.8 13.05 -7.8 12.9 -7.8 12.3 -7.75 12.4 -7.7 12.5 -7.7 12.55 -7.65 12.65 -7.6 12.75 -7.6 12.85 -7.55 12.95 -7.5 13.05 -7.5 13.15 -7.5 13.25 -7.45 13.3 -7.45 13.4 -7.4 13.5 -7.4 13.6 -7.35 13.75 -7.35 13.8 -7.25 14.15 -7.2 14.55 -7.15 14.9 -7.05 15.25 -7.0 15.65 -6.95 16.0 -6.9 16.35 -6.9 16.75 -6.85 17.1 -6.8 17.5 -6.8 17.85 -6.75 18.25 -6.75 18.6 -6.7 19.0 -6.7 19.35 -6.65 19.75 -6.65 20.25 -6.6 20.75 -6.6 21.25 -6.6 21.75 -6.55 22.25 -6.55 22.7 -6.55 23.2 -6.55 23.7 -6.55 24.2 -6.55 24.7 -6.55 25.2 -6.55 25.7 -6.6 26.2 -6.6 26.7 -6.6 27.2 -6.65 27.65 -6.9 32.25 -8.1 39.35 -8.2 40.05 -8.5 41.7 -8.45 41.7 -8.4 41.7 -8.4 41.65 -8.35 41.65 -8.3 41.65 -8.3 41.6 -8.25 41.6 -8.25 41.55 -8.2 41.55 -8.15 41.5 -8.15 41.5 -8.1 41.5 -8.1 41.45 -8.1 41.45 -8.05 41.4 -8.05 41.4 -7.8 41.15 -7.5 40.85 -7.25 40.6 -7.0 40.3 -6.75 40.05 -6.5 39.75 -6.3 39.45 -6.05 39.15 -5.85 38.9 -5.55 38.55 -5.45 38.4 -5.1 37.95 -4.8 37.6 -4.65 37.4 -4.35 37.05 -4.15 36.8 -4.1 36.7 -4.0 36.5 -3.1 35.0 -1.05 31.9 0.9 28.95 1.85 27.3 1.85 27.25 1.9 27.25 1.9 27.2 1.95 27.15 1.95 27.1 1.95 27.1 2.0 27.05 2.0 27.05 2.05 27.0 2.05 26.95 2.1 26.95 2.1 26.9 2.15 26.85 2.2 26.85 2.2 26.8 2.25 26.8 2.25 26.8 2.3 26.85 2.3 26.9 2.3 26.9 1.85 28.6 0.9 32.15 1.0 31.9 1.1 31.7 1.25 31.5 1.35 31.3 1.45 31.05 1.55 30.85 1.65 30.65 1.75 30.4 1.85 30.2 1.95 30.0 2.0 29.75 2.1 29.55 2.2 29.35 2.3 29.1 2.35 28.9 2.45 28.7 3.1 26.9 4.35 23.8 5.75 20.3 6.25 18.95 6.5 18.25 7.3 16.8 7.35 16.85 7.45 16.9 7.5 16.95 7.55 17.0 7.6 17.05 7.6 17.1 7.65 17.15 7.7 17.2 7.7 17.25 7.75 17.3 7.75 17.35 7.75 17.4 7.8 17.5 7.8 17.55 7.8 17.6 7.8 17.65 7.95 19.8 7.95 20.15 8.0 21.2 8.0 22.3 8.0 23.35 7.95 24.4 7.95 25.5 7.9 26.55 7.85 27.6 7.75 28.65 7.65 29.7 7.5 30.75 7.4 31.8 7.25 32.85 7.1 33.95 6.9 34.95 6.7 36.05 6.45 37.05 6.45 37.1 6.45 37.15 6.4 37.2 6.4 37.25 6.4 37.25 6.4 37.3 6.4 37.35 6.4 37.4 6.4 37.45 6.45 37.5 6.5 37.45 6.55 37.45 6.55 37.4 6.6 37.35 6.6 37.35 6.65 37.3 6.65 37.25 6.65 37.2 6.95 36.65 7.3 36.1 7.6 35.5 7.9 34.95 8.2 34.4 8.45 33.8 8.75 33.25 9.05 32.65 9.3 32.05 9.55 31.5 9.8 30.9 10.05 30.3 10.3 29.7 10.55 29.1 10.75 28.5 11.0 27.9 11.45 26.6 11.85 25.3 12.25 24.0 12.55 22.65 12.9 21.35 13.2 20.0 13.45 18.7 13.7 17.35 13.9 16.0 14.1 14.65 14.25 13.3 14.35 11.95 14.5 10.6 14.55 9.2 14.65 7.85 14.65 6.5 14.65 5.95 14.65 5.45 14.65 4.9 14.65 4.35 14.65 3.85 14.65 3.3 14.6 2.8 14.6 2.25 14.6 1.7 14.55 1.2 14.5 0.65 14.5 0.15 14.45 -0.4 14.4 -0.9 14.35 -1.45 14.3 -1.95 14.15 -3.95 14.25 -9.9 14.25 -9.95 14.25 -10.0 14.25 -10.0 14.25 -10.1 14.25 -10.15 14.25 -10.2 14.25 -10.25 14.25 -10.25 14.2 -10.3 14.2 -10.35 14.2 -10.6 14.25 -11.1 14.35 -11.15 14.4 -11.05 14.35 -11.15 14.5 -10.9 14.6 -10.75 14.7 -10.6 14.75 -10.5 14.85 -10.35 14.9 -10.2 15.0 -10.05 15.1 -9.9 15.15 -9.75 15.2 -9.6 15.3 -9.45 15.35 -9.3 15.4 -9.15 15.45 -9.0 15.55 -8.85 15.6 -8.7 15.65 -8.5 18.8 0.75 20.2 5.25 20.45 6.0 20.65 6.7 20.85 7.45 21.05 8.15 21.25 8.9 21.45 9.6 21.65 10.35 21.8 11.05 22.0 11.8 22.15 12.55 22.3 13.3 22.45 14.0 22.6 14.75 22.7 15.5 22.8 16.25 22.9 17.0 22.95 17.45 23.0 17.85 23.05 18.3 23.1 18.75 23.15 19.15 23.2 19.6 23.2 20.05 23.25 20.5 23.3 20.9 23.3 21.35 23.3 21.8 23.3 22.25 23.3 22.65 23.3 23.1 23.3 23.55 23.3 24.0 23.3 24.1 23.3 24.2 23.3 24.4 23.3 24.45 23.3 24.45 23.35 24.5 23.35 24.55 23.35 24.55 23.4 24.55 23.4 24.5 23.45 24.45 23.45 24.45 23.5 24.4 23.5 24.4 23.5 24.35 23.55 24.3 23.55 24.3 23.55 24.25 23.55 24.2 23.55 24.15 23.6 24.05 23.55 24.1 23.6 24.05 23.6 24.05 24.15 21.85 24.75 18.7 24.75 18.65 24.8 18.55 24.8 18.5 24.8 18.45 24.8 18.35 24.85 18.3 24.85 18.25 24.85 18.15 24.9 18.1 24.9 18.0 24.9 17.95 24.95 17.9 24.95 17.8 24.95 17.75 25.0 17.7 25.0 17.6 25.0 17.55 25.0 17.55 25.05 17.5 25.05 17.5 25.05 17.45 25.05 17.4 25.1 17.4 25.1 17.35 25.1 17.35 25.1 17.3 25.15 17.25 25.15 17.25 25.15 17.2 25.2 17.2 25.2 17.15 25.2 17.15 25.25 17.1 25.25 17.05 25.3 17.0 25.3 16.95 25.35 16.95 25.4 16.9 25.45 16.85 25.45 16.85 25.5 16.8 25.55 16.75 25.6 16.75 25.65 16.75 25.7 16.7 25.7 16.7 25.75 16.7 25.8 16.7 25.85 16.7 25.9 16.7 25.95 16.75 25.95 16.75 26.0 16.8 26.0 16.8 26.05 16.85 26.05 16.9 26.05 16.95 26.1 16.95 26.1 17.0 26.1 17.05 26.15 17.15 26.15 17.15 26.15 17.2 26.15 17.2 26.25 17.45 26.35 17.75 26.45 18.0 26.55 18.25 26.6 18.5 26.7 18.8 26.8 19.05 26.85 19.3 26.9 19.6 27.0 19.85 27.05 20.15 27.1 20.4 27.15 20.7 27.2 20.95 27.25 21.25 27.3 21.5 27.35 21.7 27.35 21.85 27.4 22.05 27.45 22.2 27.45 22.4 27.5 22.55 27.55 22.75 27.6 22.9 27.6 23.1 27.65 23.25 27.7 23.4 27.75 23.6 27.8 23.75 27.85 23.95 27.9 24.1 27.95 24.3 27.95 24.35 28.0 24.4 28.0 24.45 28.0 24.5 28.05 24.55 28.05 24.6 28.05 24.65 28.1 24.7 28.1 24.75 28.15 24.8 28.15 24.85 28.2 24.9 28.25 24.95 28.3 25.0 28.35 25.05 28.4 25.1 28.7 22.5 28.7 21.6 28.7 21.0 28.65 20.4 28.6 19.85 28.6 19.25 28.55 18.65 28.5 18.1 28.45 17.5 28.35 16.9 28.3 16.3 28.25 15.75 28.15 15.15 28.05 14.6 27.95 14.0 27.85 13.45 27.75 12.85 27.65 12.3 27.3 10.65 26.85 7.85 26.25 4.55 26.05 3.4 25.8 2.1 25.1 -0.6 25.05 -0.7 25.05 -0.8 25.0 -0.9 25.0 -1.0 24.95 -1.1 24.95 -1.2 24.9 -1.3 24.9 -1.4 24.9 -1.5 24.85 -1.6 24.85 -1.7 24.85 -1.85 24.8 -1.95 24.8 -2.05 24.8 -2.15 24.75 -2.25 24.85 -2.25 24.9 -2.2 25.0 -2.2 25.05 -2.15 25.1 -2.15 25.15 -2.1 25.2 -2.05 25.25 -2.0 25.3 -1.95 25.35 -1.9 25.35 -1.85 25.4 -1.8 25.45 -1.75 25.45 -1.65 25.5 -1.65 25.55 -1.55 26.1 -0.55 27.6 2.2 28.45 3.85 29.85 6.45 29.9 6.55 30.05 6.85 30.2 7.1 30.25 7.25 37.25 20.55 38.25 22.55 38.6 23.1 38.65 23.1 38.65 23.05 38.7 23.05 38.7 23.0 38.7 22.95 38.7 22.95 38.7 22.9 38.75 22.85 38.75 22.85 38.75 22.8 38.75 22.75 38.75 22.75 38.75 22.7 38.75 22.65 38.75 22.65 38.75 22.6 38.75 22.6 38.75 22.0 38.75 21.35 38.75 20.75 38.7 20.1 38.7 19.5 38.65 18.9 38.6 18.25 38.55 17.65 38.5 17.05 38.45 16.4 38.35 15.8 38.3 15.2 38.2 14.6 38.1 13.95 38.0 13.35 37.9 12.75 37.75 11.9 37.6 11.1 37.4 10.3 37.25 9.5 37.05 8.65 36.85 7.85 36.65 7.05 36.45 6.25 36.25 5.45 36.0 4.65 35.8 3.85 35.55 3.05 35.3 2.25 35.05 1.5 34.8 0.7 34.5 -0.1 33.65 -2.5 33.55 -2.75 33.45 -3.15 33.35 -3.55 33.25 -4.0 33.15 -4.4 33.0 -4.8 32.9 -5.2 32.75 -5.6 32.65 -6.0 32.5 -6.4 32.4 -6.8 32.25 -7.2 32.1 -7.6 31.95 -8.0 31.8 -8.4 31.7 -8.8 31.5 -9.2 30.55 -11.8 30.25 -12.35 30.0 -13.2 28.45 -16.95 27.3 -19.75 24.4 -27.55 24.4 -27.6 24.35 -27.6 24.35 -27.65 24.3 -27.65 24.3 -27.7 24.3 -27.7 24.35 -27.7 24.4 -27.7 24.45 -27.7 24.5 -27.7 24.8 -27.2 25.7 -25.45 26.45 -24.1 26.9 -23.25 29.85 -17.75 33.3 -8.85 33.4 -8.65 34.8 -4.8 35.7 -2.35 36.35 -0.8 36.7 0.05 37.05 1.0 37.4 1.85 37.7 2.8 37.95 3.65 38.25 4.6 38.5 5.5 38.75 6.45 38.95 7.35 39.2 8.3 39.4 9.2 39.6 10.15 39.75 11.05 39.95 12.0 40.1 12.9 40.25 13.9 40.4 14.9 40.55 15.9 40.65 16.85 40.75 17.85 40.8 18.85 40.85 19.85 40.9 20.85 40.9 21.8 40.9 22.8 40.85 23.8 40.8 24.8 40.7 25.8 40.65 26.75 40.5 27.75 40.4 28.75 40.2 29.75 40.15 30.2 40.05 30.65 40.0 31.1 39.9 31.55 39.85 32.0 39.75 32.45 39.65 32.9 39.6 33.35 39.5 33.8 39.4 34.25 39.3 34.7 39.2 35.15 39.1 35.6 39.0 36.0 38.9 36.45 38.8 36.9 38.8 36.95 38.75 37.25 38.7 37.3 38.7 37.35 38.65 37.35 38.65 37.45 38.55 37.85 38.6 37.55 38.5 38.05 38.35 38.55 38.25 39.0 38.1 39.5 37.95 40.0 37.85 40.45 37.7 40.95 37.55 41.45 37.4 41.9 37.25 42.4 37.1 42.85 36.95 43.35 36.8 43.85 36.6 44.3 36.45 44.8 36.3 45.25 36.3 45.25 36.25 45.3 36.25 45.35 36.25 45.35 36.25 45.4 36.2 45.45 36.2 45.45 36.2 45.5 36.2 45.55 36.2 45.55 36.15 45.6 36.15 45.65 36.15 45.65 36.2 45.7 36.2 45.75 36.2 45.8 36.4 45.65 36.55 45.5 36.75 45.35 36.95 45.15 37.1 45.0 37.25 44.85 37.45 44.7 37.6 44.5 37.75 44.35 37.9 44.15 38.05 43.95 38.2 43.8 38.35 43.6 38.5 43.4 38.65 43.2 38.75 43.0 38.95 42.7 39.15 42.45 39.35 42.15 39.5 41.85 39.7 41.55 39.9 41.3 40.1 41.0 40.25 40.7 40.45 40.4 40.65 40.1 40.8 39.85 41.0 39.55 41.2 39.25 41.35 38.95 41.5 38.65 41.7 38.35 41.75 38.3 41.75 38.2 41.8 38.15 41.85 38.1 41.9 38.05 41.95 38.0 41.95 37.95 42.0 37.9 42.05 37.85 42.1 37.8 42.2 37.8 42.25 37.75 42.3 37.75 42.35 37.7 42.45 37.7 42.5 37.7 42.55 37.7 42.65 37.7 42.7 37.7 42.75 37.75 42.8 37.75 42.85 37.75 42.9 37.8 42.95 37.85 42.95 37.85 43.0 37.9 43.0 37.95 43.05 38.0 43.05 38.05 43.05 38.15 43.05 38.2 43.05 38.25 43.05 38.45 43.0 38.7 43.0 38.9 42.95 39.15 42.95 39.35 42.9 39.55 42.9 39.8 42.85 40.0 42.85 40.25 42.8 40.45 42.8 40.65 42.75 40.9 42.7 41.1 42.7 41.3 42.65 41.55 42.6 41.75 42.5 42.3 42.3 43.1 42.0 44.4 42.0 44.45 42.0 44.5 42.0 44.5 41.95 44.6 41.95 44.6 41.95 44.6 41.95 44.65 41.95 44.7 41.95 44.7 41.95 44.75 41.95 44.8 41.95 44.8 41.95 44.85 41.95 44.9 41.95 44.9 41.95 44.95 42.0 45.0 42.05 44.95 42.1 44.85 42.15 44.8 42.2 44.7 42.25 44.6 42.3 44.55 42.35 44.45 42.4 44.4 42.45 44.3 42.5 44.25 42.55 44.15 42.6 44.1 42.65 44.0 42.65 43.9 42.7 43.85 42.75 43.75 43.05 43.05 43.25 42.75 43.5 42.35 46.15 37.9 46.65 37.05 47.15 36.15 47.6 35.3 48.05 34.4 48.45 33.5 48.85 32.55 49.25 31.65 49.6 30.7 49.9 29.8 50.25 28.85 50.55 27.9 50.8 26.9 51.1 25.95 51.35 25.0 51.55 24.0 51.8 23.0 51.85 22.8 51.85 22.65 51.9 22.45 51.95 22.3 52.0 22.1 52.05 21.95 52.1 21.75 52.15 21.6 52.2 21.4 52.25 21.25 52.3 21.05 52.35 20.9 52.4 20.7 52.5 20.55 52.55 20.4 52.6 20.2 52.65 20.55 52.7 20.95 52.75 21.3 52.75 21.7 52.8 22.05 52.8 22.4 52.8 22.8 52.8 23.15 52.8 23.55 52.8 23.9 52.8 24.25 52.75 24.65 52.7 25.0 52.7 25.4 52.65 25.75 52.6 26.1 52.55 26.55 51.65 29.9 51.1 31.7 50.85 32.35 49.5 36.35 48.65 37.85 45.7 43.1 43.65 45.95 43.6 46.0 43.6 46.05 43.55 46.15 43.5 46.2 43.5 46.25 43.45 46.3 43.45 46.4 43.4 46.45 43.4 46.5 43.4 46.55 43.35 46.65 43.35 46.7 43.35 46.75 43.35 46.85 43.35 46.9 43.35 47.0 43.4 48.55 43.45 49.25 43.45 49.45 43.45 49.65 43.5 49.85 43.5 50.1 43.5 50.3 43.5 50.5 43.5 50.7 43.5 50.9 43.5 51.1 43.5 51.3 43.5 51.55 43.45 51.75 43.45 51.95 43.45 52.15 43.4 52.35 43.4 52.55 43.2 54.35 43.2 54.4 43.2 54.45 43.15 54.5 43.15 54.5 43.2 54.55 43.2 54.5 43.25 54.45 43.3 54.45 43.35 54.4 43.35 54.4 43.4 54.35 43.45 54.35 43.45 54.3 43.5 54.25 43.5 54.25 43.55 54.2 43.55 54.15 43.6 54.15 43.6 54.1 43.65 54.05 43.65 54.0 43.7 53.95 43.7 53.95 47.15 48.95 47.8 47.7 47.85 47.65 47.85 47.6 47.9 47.55 47.95 47.5 48.0 47.45 48.05 47.4 48.05 47.35 48.1 47.3 48.15 47.25 48.2 47.2 48.25 47.15 48.3 47.15 48.35 47.1 48.4 47.05 48.5 47.05 48.55 47.0 48.65 46.95 48.75 46.95 48.85 46.95 48.95 46.95 49.0 46.95 49.1 46.95 49.15 46.95 49.25 47.0 49.3 47.05 49.35 47.1 49.45 47.15 49.5 47.25 49.55 47.3 49.6 47.4 49.6 47.5 49.65 47.6 49.9 48.6 50.0 49.1 50.55 51.4 50.75 52.0 50.75 52.1 50.8 52.25 50.8 52.35 50.85 52.45 50.9 52.55 50.9 52.65 50.95 52.8 50.95 52.9 51.0 53.0 51.05 53.1 51.1 53.25 51.1 53.35 51.15 53.45 51.2 53.6 51.25 53.7 51.3 53.85 52.15 49.8 52.25 49.25 52.65 47.45 54.05 40.45 54.3 39.2 54.5 38.4 54.55 38.3 54.55 38.2 54.6 38.1 54.65 38.0 54.7 37.9 54.75 37.85 54.85 37.75 54.9 37.7 54.95 37.65 55.05 37.6 55.15 37.55 55.2 37.5 55.3 37.45 55.4 37.45 55.5 37.45 55.6 37.45 55.7 37.45 55.8 37.45 55.85 37.45 55.95 37.5 56.05 37.5 56.1 37.55 56.2 37.6 56.25 37.65 56.3 37.7 56.35 37.8 56.45 37.85 56.5 37.95 56.55 38.0 56.6 38.1 56.6 38.2 56.65 38.3 56.7 38.4 56.75 38.7 56.85 39.05 56.9 39.4 57.0 39.75 57.1 40.15 57.15 40.5 57.2 40.85 57.3 41.2 57.35 41.6 57.4 41.95 57.45 42.3 57.5 42.7 57.6 43.05 57.6 43.4 57.65 43.8 57.7 44.15 57.75 44.5 57.85 45.65 57.85 45.65 58.0 46.6 58.05 46.9 58.15 46.3 58.3 45.7 58.4 45.1 58.45 44.5 58.55 43.95 58.65 43.35 58.7 42.75 58.75 42.2 58.8 41.6 58.85 41.0 58.9 40.45 58.9 39.85 58.95 39.3 58.95 38.7 58.95 38.1 58.95 37.55 58.95 36.2 58.75 33.9 58.55 31.2 58.5 30.3 58.5 30.2 58.5 30.15 58.5 30.05 58.45 30.0 58.45 29.9 58.45 29.8 58.45 29.75 58.4 29.65 58.4 29.6 58.35 29.5 58.35 29.45 58.3 29.35 58.3 29.3 58.25 29.2 58.25 29.15 58.2 29.05 58.1 28.8 57.95 28.4 57.7 27.8 57.7 27.7 57.6 27.5 57.55 27.3 57.5 27.1 57.45 26.9 57.4 26.7 57.35 26.5 57.3 26.25 57.25 26.05 57.2 25.85 57.2 25.65 57.15 25.45 57.1 25.2 57.1 25.0 57.05 24.75 57.05 24.55 57.05 24.3 57.15 24.35 57.4 24.65 57.75 25.1 60.45 29.15 62.3 32.0 63.4 33.35 63.65 33.6 63.7 33.65 63.7 33.6 63.7 33.55 63.75 33.5 63.7 33.5 63.7 33.45 63.7 33.4 63.7 33.35 63.7 33.35 63.65 33.3 63.65 33.3 64.1 34.05 63.6 33.2 63.6 33.2 63.6 33.15 63.6 33.15 63.6 33.1 62.15 29.9 60.4 24.55 60.2 23.95 60.0 23.3 59.85 22.7 59.65 22.05 59.5 21.45 59.3 20.8 59.15 20.15 59.0 19.55 58.85 18.9 58.7 18.25 58.55 17.65 58.45 17.0 58.3 16.35 58.2 15.7 58.05 15.1 57.95 14.45 L57.95 14.45" fill="#050505" fill-rule="evenodd" stroke="none"/>
    <path d="M14.2 -10.35 Q14.25 -10.3 14.25 -9.9 14.1 -4.25 14.3 -1.95 14.35 -1.45 14.4 -0.9 14.45 -0.4 14.5 0.15 14.5 0.65 14.55 1.2 14.6 1.7 14.6 2.25 14.6 2.8 14.65 3.3 14.65 3.85 14.65 4.35 14.65 4.9 14.65 5.4 14.65 5.95 14.65 6.5 14.65 7.9 14.55 9.25 14.5 10.6 14.35 11.95 14.25 13.3 14.1 14.65 13.9 16.0 13.7 17.35 13.45 18.7 13.15 20.0 12.9 21.35 12.55 22.65 12.2 24.0 11.8 25.3 11.45 26.6 11.0 27.9 10.8 28.5 10.55 29.1 10.3 29.7 10.05 30.3 9.8 30.9 9.55 31.5 9.3 32.05 9.05 32.65 8.75 33.25 8.5 33.8 8.2 34.4 7.9 34.95 7.6 35.55 7.3 36.1 7.0 36.65 6.65 37.2 6.65 37.25 6.65 37.25 6.6 37.3 6.6 37.35 6.6 37.35 6.55 37.4 6.55 37.4 6.5 37.45 6.5 37.45 6.45 37.5 6.45 37.45 6.4 37.4 6.4 37.35 6.4 37.3 6.4 37.3 6.4 37.25 6.45 37.2 6.45 37.15 6.45 37.0 6.45 37.05 6.7 36.0 6.9 34.95 7.05 33.9 7.25 32.85 7.4 31.8 7.5 30.75 7.65 29.7 7.75 28.65 7.85 27.6 7.9 26.55 7.95 25.45 7.95 24.4 8.0 23.35 8.0 22.25 8.0 21.2 7.95 20.15 7.95 19.65 7.9 18.9 7.8 17.65 7.8 17.65 7.8 17.6 7.8 17.55 7.8 17.45 7.75 17.4 7.75 17.35 7.75 17.3 7.7 17.25 7.7 17.2 7.65 17.15 7.65 17.1 7.6 17.0 7.55 16.95 7.5 16.9 7.45 16.9 7.4 16.85 7.3 16.8 6.45 18.35 6.25 18.95 5.7 20.4 4.35 23.8 3.1 26.9 2.45 28.7 2.35 28.9 2.3 29.15 2.2 29.35 2.1 29.55 2.05 29.75 1.95 30.0 1.85 30.2 1.75 30.4 1.65 30.65 1.55 30.85 1.45 31.05 1.35 31.3 1.2 31.5 1.1 31.7 1.0 31.95 0.9 32.15 1.15 31.25 2.3 26.9 2.3 26.9 2.25 26.8 2.2 26.8 2.2 26.85 2.15 26.85 2.1 26.9 2.1 26.95 2.05 26.95 2.05 27.0 2.0 27.05 2.0 27.05 1.95 27.1 1.95 27.1 1.95 27.15 1.9 27.25 1.9 27.25 1.9 27.3 1.85 27.3 0.9 28.9 -1.05 31.9 -3.1 34.95 -4.0 36.5 -4.0 36.55 -4.05 36.6 -4.05 36.6 -4.05 36.65 -4.1 36.7 -4.1 36.75 -4.15 36.75 -4.15 36.8 -4.35 37.05 -4.6 37.4 -4.8 37.6 -5.1 37.95 -5.5 38.45 -5.55 38.55 -5.85 38.9 -6.05 39.15 -6.3 39.45 -6.5 39.75 -6.75 40.05 -7.0 40.3 -7.25 40.6 -7.5 40.85 -7.75 41.15 -8.05 41.4 -8.05 41.4 -8.1 41.45 -8.1 41.45 -8.15 41.5 -8.15 41.5 -8.2 41.55 -8.2 41.55 -8.25 41.55 -8.25 41.6 -8.3 41.6 -8.3 41.65 -8.35 41.65 -8.4 41.65 -8.4 41.7 -8.45 41.7 -8.5 41.7 -8.3 40.75 -8.1 39.35 -6.9 32.35 -6.65 27.65 -6.6 27.15 -6.6 26.65 -6.6 26.2 -6.55 25.7 -6.55 25.2 -6.55 24.7 -6.55 24.2 -6.55 23.7 -6.55 23.2 -6.55 22.7 -6.55 22.25 -6.6 21.75 -6.6 21.25 -6.6 20.75 -6.65 20.25 -6.65 19.75 -6.85 15.95 -7.35 13.8 -7.35 13.8 -7.4 13.6 -7.4 13.5 -7.45 13.4 -7.45 13.3 -7.5 13.25 -7.5 13.15 -7.55 13.05 -7.55 12.95 -7.6 12.85 -7.6 12.75 -7.65 12.65 -7.7 12.6 -7.75 12.5 -7.75 12.4 -7.8 12.3 -7.85 12.75 -7.8 13.05 -7.8 13.5 -7.8 13.95 -7.8 14.4 -7.8 14.85 -7.8 15.25 -7.8 15.7 -7.85 16.15 -7.85 16.6 -7.9 17.05 -7.9 17.5 -7.95 17.9 -8.0 18.35 -8.05 18.8 -8.1 19.25 -8.15 19.65 -8.2 20.1 -8.8 25.75 -8.8 27.15 -8.8 27.45 -8.95 29.45 -9.0 29.45 -9.05 29.4 -9.05 29.35 -9.1 29.35 -9.1 29.3 -9.15 29.3 -9.15 29.25 -9.15 29.2 -9.2 29.2 -9.2 29.15 -9.2 29.1 -9.2 29.1 -9.25 29.0 -9.25 29.0 -9.25 28.95 -9.25 28.95 -10.65 25.6 -12.3 18.85 -12.4 18.45 -12.5 18.1 -12.6 17.75 -12.7 17.4 -12.75 17.0 -12.85 16.65 -12.95 16.25 -13.0 15.9 -13.1 15.5 -13.2 15.15 -13.25 14.75 -13.35 14.4 -13.4 14.0 -13.45 13.65 -13.55 13.25 -13.6 12.9 -13.65 12.55 -13.7 12.2 -13.75 11.85 -13.75 11.45 -13.75 11.1 -13.75 10.75 -13.8 10.4 -13.75 10.05 -13.75 9.7 -13.75 9.3 -13.7 9.0 -13.7 8.6 -13.65 8.25 -13.6 7.9 -13.6 7.55 -13.55 7.2 -13.25 5.3 -13.1 4.55 -13.1 4.5 -13.1 4.4 -13.1 4.3 -13.1 4.2 -13.2 4.4 -13.35 4.6 -13.45 4.85 -13.55 5.05 -13.65 5.25 -13.75 5.45 -13.85 5.65 -13.95 5.9 -14.05 6.1 -14.15 6.3 -14.25 6.5 -14.3 6.75 -14.4 6.95 -14.45 7.15 -14.55 7.35 -14.6 7.6 -14.75 7.95 -14.85 8.35 -14.95 8.75 -15.1 9.15 -15.2 9.5 -15.25 9.9 -15.35 10.3 -15.45 10.7 -15.55 11.1 -15.6 11.5 -15.7 11.85 -15.75 12.3 -15.8 12.65 -15.9 13.05 -15.95 13.45 -16.0 13.85 -16.1 14.5 -16.2 15.15 -16.25 15.75 -16.35 16.4 -16.45 17.05 -16.5 17.7 -16.6 18.3 -16.65 18.95 -16.75 19.6 -16.8 20.25 -16.85 20.85 -16.9 21.5 -16.95 22.15 -17.0 22.8 -17.05 23.4 -17.1 24.05 -17.25 25.8 -17.15 30.2 -17.15 30.95 -17.1 32.1 -17.0 33.9 -17.0 34.05 -17.0 34.1 -17.0 34.1 -17.0 34.15 -17.0 34.2 -17.0 34.25 -17.0 34.25 -17.0 34.3 -17.0 34.3 -17.0 34.35 -17.0 34.35 -17.0 34.4 -17.0 34.45 -17.0 34.5 -17.05 34.5 -17.05 34.55 -17.1 34.6 -17.1 34.55 -17.15 34.5 -17.15 34.5 -17.2 34.45 -17.2 34.4 -17.2 34.35 -17.2 34.35 -17.25 34.3 -17.25 34.25 -17.25 34.2 -17.25 34.15 -17.25 34.15 -17.3 34.0 -17.3 34.05 -17.3 34.0 -17.3 33.95 -17.45 33.35 -17.55 32.75 -17.65 32.1 -17.75 31.5 -17.8 30.9 -17.9 30.25 -17.95 29.65 -18.0 29.0 -18.05 28.4 -18.05 27.8 -18.1 27.15 -18.1 26.55 -18.1 25.9 -18.1 25.3 -18.1 24.65 -18.05 24.05 -17.95 20.35 -17.45 13.95 -17.0 8.45 -17.2 5.6 -17.2 5.55 -17.2 5.5 -17.2 5.45 -17.2 5.45 -17.2 5.4 -17.2 5.35 -17.2 5.3 -17.2 5.25 -17.2 5.2 -17.2 5.15 -17.2 5.1 -17.25 5.05 -17.25 5.0 -17.3 5.0 -17.3 4.95 -17.35 4.9 -17.45 5.05 -17.65 5.85 -17.7 6.05 -18.7 10.1 -19.3 12.65 -19.7 14.35 -19.85 15.1 -20.15 16.7 -20.4 18.25 -20.6 19.0 -20.75 19.55 -20.9 20.15 -21.0 20.7 -21.2 21.25 -21.35 21.8 -21.55 22.35 -21.7 22.9 -21.95 23.45 -22.15 24.0 -22.35 24.5 -22.6 25.05 -22.8 25.55 -23.05 26.1 -23.3 26.6 -23.6 27.15 -23.85 27.65 -24.4 28.6 -25.7 30.9 -25.75 30.95 -26.05 31.45 -26.05 31.4 -26.1 31.35 -26.1 31.3 -26.1 31.25 -26.1 31.2 -26.1 31.15 -26.1 31.1 -26.1 31.05 -26.1 31.0 -26.1 31.0 -26.05 30.95 -26.05 30.9 -26.05 30.9 -26.05 30.8 -26.05 30.8 -26.0 30.75 -25.1 25.95 -24.9 23.9 -24.8 22.9 -25.15 20.5 -25.2 20.55 -25.2 20.55 -25.25 20.6 -25.3 20.6 -25.3 20.65 -25.35 20.65 -25.35 20.7 -25.35 20.7 -25.4 20.75 -25.4 20.8 -25.4 20.8 -25.45 20.85 -25.4 20.8 -25.45 20.9 -25.45 20.9 -25.5 20.95 -25.65 21.3 -25.85 21.65 -26.05 21.95 -26.2 22.3 -26.4 22.65 -26.6 22.95 -26.75 23.3 -26.95 23.65 -27.15 23.95 -27.35 24.3 -27.5 24.65 -27.7 24.95 -27.9 25.3 -28.1 25.6 -28.3 25.95 -28.5 26.25 -28.55 26.3 -28.55 26.35 -28.6 26.4 -28.6 26.45 -28.65 26.5 -28.65 26.55 -28.7 26.6 -28.75 26.65 -28.75 26.7 -28.8 26.75 -28.8 26.85 -28.85 26.9 -28.85 26.95 -28.9 27.0 -28.9 27.05 -28.95 27.1 -29.15 27.5 -29.3 27.9 -29.5 28.35 -29.7 28.75 -29.9 29.15 -30.1 29.55 -30.3 29.95 -30.55 30.35 -30.75 30.75 -31.0 31.15 -31.2 31.5 -31.45 31.9 -31.65 32.3 -31.9 32.7 -32.1 33.05 -32.35 33.45 -32.4 33.5 -32.4 33.55 -32.45 33.65 -32.5 33.7 -32.55 33.75 -32.55 33.8 -32.6 33.85 -32.65 33.9 -32.7 33.95 -32.75 34.0 -32.8 34.05 -32.85 34.1 -32.9 34.15 -32.95 34.15 -33.0 34.2 -33.05 34.25 -33.0 33.6 -32.85 32.4 -32.75 31.15 -32.7 30.65 -32.65 30.1 -32.6 29.5 -32.55 28.9 -32.5 28.35 -32.5 27.75 -32.45 27.15 -32.4 26.6 -32.4 26.0 -32.4 25.45 -32.35 24.85 -32.35 24.3 -32.35 23.7 -32.35 23.1 -32.35 22.55 -32.35 21.95 -32.35 21.35 -32.35 16.7 -32.6 10.0 -32.8 5.55 -33.3 -1.25 -33.6 -5.1 -33.6 -5.3 -33.45 -5.55 -33.4 -5.55 -33.35 -5.85 -33.25 -6.15 -33.15 -6.45 -33.05 -6.75 -32.95 -7.0 -32.85 -7.3 -32.75 -7.55 -32.6 -7.85 -32.5 -8.1 -32.35 -8.45 -32.35 -8.45 -32.1 -9.0 -31.95 -9.3 -31.85 -9.55 -31.7 -9.85 -31.6 -10.1 -31.4 -10.6 -31.2 -11.1 -31.0 -11.6 -30.8 -12.1 -30.65 -12.6 -30.45 -13.1 -30.25 -13.6 -30.1 -14.1 -29.95 -14.6 -29.8 -15.1 -29.65 -15.6 -29.5 -16.1 -29.35 -16.65 -29.25 -17.15 -29.15 -17.7 -29.05 -18.2 -29.0 -18.5 -28.75 -21.05 -28.65 -22.4 -28.55 -23.3 -28.5 -23.6 -28.5 -24.1 -28.5 -24.9 -28.5 -24.95 -28.5 -25.0 -28.5 -25.05 -28.5 -25.05 -28.5 -25.1 -28.5 -25.15 -28.5 -25.2 -28.5 -25.25 -28.5 -25.25 -28.5 -25.3 -28.5 -25.35 -28.5 -25.4 -28.5 -25.45 -28.45 -25.45 -28.45 -25.5 -28.4 -25.55 -28.35 -25.55 -28.3 -25.55 -28.15 -25.2 -26.55 -21.6 -26.1 -20.6 -25.6 -19.45 -25.05 -18.3 -24.5 -17.2 -23.9 -16.1 -23.3 -15.0 -22.7 -13.9 -22.05 -12.8 -21.4 -11.75 -20.75 -10.7 -20.1 -9.65 -19.4 -8.6 -18.7 -7.6 -17.95 -6.55 -17.2 -5.55 -16.45 -4.55 -15.7 -3.6 -14.9 -2.65 -14.1 -1.7 -13.25 -0.8 -12.4 0.1 -11.55 0.95 -10.65 1.8 -9.75 2.6 -8.8 3.4 -7.9 4.2 -6.9 4.95 -5.95 5.7 -4.95 6.4 -4.0 7.1 -2.95 7.8 -1.95 8.45 -0.9 9.15 -0.75 9.25 -0.8 9.2 -0.7 9.25 -0.6 9.25 -0.65 9.2 -0.65 9.15 -0.7 9.1 -0.7 9.05 -0.75 9.05 -0.8 9.0 -0.8 8.95 -0.85 8.95 -0.9 8.9 -0.95 8.85 -0.95 8.85 -1.0 8.8 -1.0 8.8 -1.1 8.75 -1.1 8.7 -1.15 8.65 -2.05 7.9 -2.45 7.5 -3.15 6.85 -3.8 6.15 -4.45 5.45 -5.05 4.75 -5.7 4.05 -6.3 3.3 -6.9 2.6 -7.5 1.85 -8.05 1.1 -8.65 0.35 -9.2 -0.45 -9.7 -1.2 -10.25 -2.0 -10.75 -2.8 -11.3 -3.6 -11.75 -4.45 -12.25 -5.3 -12.75 -6.15 -13.25 -7.05 -13.75 -7.9 -14.2 -8.75 -14.7 -9.65 -15.15 -10.55 -15.65 -11.4 -16.1 -12.3 -16.55 -13.2 -17.0 -14.05 -17.45 -14.95 -17.9 -15.85 -18.3 -16.75 -18.75 -17.65 -19.15 -18.55 -19.45 -19.25 -19.75 -19.9 -20.05 -20.6 -20.35 -21.3 -20.65 -22.0 -20.9 -22.65 -21.2 -23.35 -21.45 -24.05 -21.7 -24.75 -21.95 -25.45 -22.2 -26.15 -22.4 -26.85 -22.65 -27.6 -22.85 -28.3 -23.05 -29.0 -23.2 -29.75 -23.95 -32.55 -24.05 -33.45 -23.55 -33.2 -21.0 -31.25 -18.1 -29.0 -16.2 -27.35 -15.1 -26.4 -13.4 -24.95 -11.1 -22.85 -9.45 -21.3 -7.75 -19.55 -7.0 -18.6 -6.7 -18.2 -6.15 -17.65 -5.45 -16.9 -5.3 -16.7 -3.7 -14.95 -1.4 -12.0 -0.2 -10.45 1.6 -7.95 4.1 -4.4 4.5 -3.85 4.75 -3.55 6.25 -1.25 6.3 -1.25 6.35 -1.3 6.35 -1.35 6.4 -1.35 6.4 -1.4 6.4 -1.4 6.4 -1.45 6.4 -1.5 6.4 -1.5 6.4 -1.55 6.4 -1.45 6.4 -1.6 6.4 -1.65 6.4 -1.65 6.4 -1.7 6.4 -1.7 6.4 -8.6 6.4 -10.15 6.4 -10.9 6.1 -13.35 6.1 -13.45 5.85 -15.1 5.65 -16.2 5.6 -16.9 5.55 -18.1 4.95 -20.7 4.9 -20.9 4.85 -21.05 4.85 -21.25 4.8 -21.45 4.75 -21.65 4.75 -21.8 4.7 -22.0 4.65 -22.2 4.65 -22.4 4.6 -22.6 4.6 -22.8 4.55 -22.95 4.55 -23.15 4.5 -23.35 4.5 -23.55 4.5 -23.75 4.5 -23.8 4.5 -23.85 4.5 -23.9 4.45 -23.95 4.45 -24.0 4.45 -24.1 4.4 -24.15 4.4 -24.2 4.4 -24.25 4.4 -24.3 4.35 -24.35 4.35 -24.45 4.35 -24.5 4.4 -24.55 4.4 -24.6 4.4 -24.65 4.45 -24.65 4.5 -24.65 4.55 -24.65 4.6 -24.6 4.65 -24.6 4.7 -24.6 4.75 -24.6 4.75 -24.55 4.8 -24.55 4.85 -24.5 4.9 -24.5 4.95 -24.45 4.95 -24.45 5.0 -24.4 5.05 -24.4 5.1 -24.35 5.35 -24.15 5.6 -23.95 5.85 -23.7 6.1 -23.5 6.35 -23.25 6.6 -23.05 6.85 -22.8 7.05 -22.55 7.3 -22.35 7.5 -22.1 7.75 -21.85 7.95 -21.6 8.2 -21.35 8.4 -21.1 8.6 -20.85 8.85 -20.55 9.0 -20.35 9.15 -20.2 9.3 -20.0 9.45 -19.85 9.6 -19.65 9.75 -19.45 9.85 -19.25 10.0 -19.1 10.15 -18.9 10.3 -18.7 10.45 -18.5 10.55 -18.3 10.7 -18.1 10.8 -17.9 10.95 -17.7 11.05 -17.5 11.2 -17.25 11.35 -17.0 11.5 -16.7 11.65 -16.45 11.8 -16.2 11.95 -15.9 12.1 -15.65 12.2 -15.35 12.35 -15.1 12.45 -14.8 12.6 -14.55 12.7 -14.25 12.8 -14.0 12.95 -13.7 13.05 -13.4 13.15 -13.1 13.35 -12.55 14.05 -10.65 14.05 -10.6 14.05 -10.55 14.1 -10.5 14.1 -10.5 14.1 -10.45 14.15 -10.4 14.15 -10.4 14.2 -10.35 L14.2 -10.35" fill="#000000" fill-opacity="0.16862746" fill-rule="evenodd" stroke="none"/>
    <path d="M57.95 14.45 Q58.05 15.1 58.2 15.7 58.3 16.35 58.45 17.0 58.55 17.65 58.7 18.25 58.85 18.9 59.0 19.55 59.15 20.15 59.3 20.8 59.5 21.45 59.65 22.05 59.85 22.7 60.0 23.3 60.2 23.95 60.4 24.55 62.1 29.85 63.6 33.15 63.6 33.2 63.6 33.2 63.65 33.2 63.65 33.25 63.65 33.3 63.7 33.3 63.7 33.35 63.7 33.35 63.7 33.4 63.7 33.45 63.75 33.45 63.75 33.5 63.75 33.5 63.75 33.55 63.7 33.6 63.7 33.65 63.65 33.6 63.4 33.35 62.4 32.1 60.45 29.15 61.0 30.0 59.0 26.9 58.1 25.55 57.4 24.65 57.1 24.35 57.05 24.3 57.05 24.55 57.1 24.75 57.1 25.0 57.15 25.2 57.15 25.4 57.2 25.65 57.2 25.85 57.25 26.05 57.3 26.25 57.35 26.5 57.4 26.7 57.45 26.9 57.5 27.1 57.55 27.3 57.6 27.5 57.7 27.7 57.8 27.95 57.95 28.4 58.15 28.9 58.2 29.05 58.25 29.15 58.25 29.2 58.3 29.3 58.3 29.35 58.35 29.45 58.35 29.5 58.4 29.6 58.4 29.65 58.45 29.75 58.45 29.8 58.45 29.9 58.45 29.95 58.5 30.05 58.5 30.15 58.5 30.2 58.5 30.3 58.55 31.15 58.75 33.9 58.95 36.15 58.95 37.55 58.95 38.15 58.95 38.7 58.95 39.3 58.9 39.85 58.9 40.45 58.85 41.0 58.8 41.6 58.75 42.2 58.7 42.75 58.65 43.35 58.55 43.95 58.5 44.5 58.4 45.1 58.3 45.7 58.2 46.3 58.05 46.9 58.05 46.8 58.0 46.7 58.0 46.65 58.0 46.55 57.95 46.45 57.95 46.35 57.95 46.3 57.95 46.2 57.9 46.15 57.9 46.05 57.9 46.0 57.9 45.95 57.9 45.85 57.9 45.8 57.9 45.85 57.85 45.65 57.85 45.35 57.75 44.5 57.7 44.15 57.65 43.75 57.6 43.4 57.55 43.05 57.5 42.65 57.45 42.3 57.4 41.95 57.35 41.6 57.3 41.2 57.25 40.85 57.15 40.5 57.1 40.15 57.0 39.75 56.95 39.4 56.85 39.05 56.75 38.7 56.75 38.65 56.75 38.6 56.75 38.6 56.7 38.55 56.7 38.5 56.7 38.45 56.7 38.4 56.7 38.4 56.65 38.35 56.65 38.3 56.6 38.2 56.55 38.1 56.55 38.0 56.5 37.95 56.45 37.85 56.35 37.8 56.3 37.7 56.25 37.65 56.15 37.6 56.1 37.55 56.0 37.5 55.95 37.5 55.85 37.45 55.75 37.45 55.7 37.45 55.6 37.45 55.5 37.45 55.4 37.45 55.3 37.5 55.2 37.5 55.15 37.55 55.05 37.6 54.95 37.65 54.9 37.7 54.85 37.75 54.75 37.8 54.7 37.9 54.65 38.0 54.6 38.05 54.55 38.15 54.55 38.25 54.5 38.4 54.3 39.2 54.05 40.45 53.8 41.55 53.15 44.85 52.6 47.6 52.25 49.25 52.05 50.35 51.3 53.85 51.25 53.7 51.2 53.6 51.15 53.5 51.1 53.35 51.1 53.25 51.05 53.15 51.0 53.0 50.95 52.9 50.95 52.8 50.9 52.7 50.9 52.55 50.85 52.45 50.85 52.35 50.8 52.25 50.8 52.15 50.75 52.0 50.8 52.0 50.85 51.95 50.9 51.95 50.95 51.9 51.0 51.85 51.05 51.85 51.05 51.8 51.1 51.75 51.1 51.7 51.15 51.65 51.15 51.6 51.2 51.55 51.15 51.55 51.2 51.4 51.25 51.35 51.25 51.3 51.35 51.05 51.4 50.8 51.5 50.55 51.55 50.3 51.65 50.05 51.7 49.8 51.8 49.55 51.85 49.3 51.95 49.05 52.0 48.8 52.05 48.55 52.1 48.25 52.2 48.0 52.25 47.75 52.3 47.5 52.35 47.25 52.45 46.85 52.5 46.45 52.55 46.05 52.65 45.65 52.7 45.25 52.75 44.85 52.8 44.45 52.85 44.05 52.9 43.65 52.95 43.25 52.95 42.85 53.0 42.45 53.0 42.0 53.05 41.6 53.05 41.2 53.05 40.8 53.05 40.65 53.05 40.5 53.05 40.35 53.05 40.15 53.05 40.0 53.0 39.85 53.0 39.7 53.0 39.55 53.0 39.4 53.0 39.25 53.0 39.1 52.95 38.9 52.95 38.75 52.95 38.6 52.95 38.45 52.95 38.3 52.9 37.5 52.6 35.15 52.45 33.5 52.0 31.15 52.0 31.1 51.95 31.0 51.95 30.95 51.95 30.85 51.95 30.6 51.95 30.65 51.95 30.55 51.9 30.5 51.9 30.4 51.9 30.35 51.85 30.25 51.85 30.2 51.8 30.1 51.75 30.05 51.7 29.95 51.65 29.9 52.5 26.75 52.6 26.1 52.65 25.75 52.7 25.35 52.75 25.0 52.75 24.65 52.8 24.25 52.8 23.9 52.8 23.55 52.8 23.15 52.8 22.8 52.8 22.4 52.8 22.05 52.75 21.7 52.75 21.3 52.7 20.95 52.65 20.55 52.6 20.2 52.55 20.35 52.5 20.55 52.4 20.7 52.35 20.9 52.3 21.05 52.25 21.25 52.2 21.4 52.15 21.6 52.1 21.75 52.05 21.95 52.0 22.1 51.95 22.3 51.9 22.5 51.85 22.65 51.8 22.85 51.8 23.0 51.6 24.0 51.35 24.95 51.1 25.95 50.85 26.9 50.55 27.9 50.25 28.85 49.95 29.8 49.6 30.7 49.25 31.65 48.85 32.55 48.45 33.5 48.05 34.4 47.6 35.3 47.15 36.15 46.65 37.05 46.15 37.9 43.7 42.05 43.25 42.75 43.1 43.0 42.75 43.75 42.7 43.85 42.65 43.9 42.65 44.0 42.6 44.1 42.55 44.15 42.5 44.25 42.45 44.3 42.4 44.4 42.35 44.45 42.3 44.55 42.25 44.6 42.2 44.7 42.15 44.75 42.1 44.85 42.05 44.9 42.0 45.0 42.0 44.95 41.95 44.9 41.95 44.9 41.95 44.85 41.95 44.8 41.95 44.8 41.95 44.75 41.95 44.7 41.95 44.7 41.95 44.65 41.95 44.6 41.95 44.6 41.95 44.6 42.0 44.5 42.0 44.5 42.0 44.45 42.05 44.2 42.3 43.1 42.5 42.3 42.6 41.75 42.65 41.55 42.7 41.3 42.7 41.1 42.75 40.9 42.8 40.65 42.8 40.45 42.85 40.25 42.85 40.0 42.9 39.8 42.9 39.55 42.95 39.35 42.95 39.15 43.0 38.9 43.0 38.7 43.05 38.5 43.05 38.25 43.05 38.2 43.05 38.1 43.05 38.05 43.05 38.0 43.0 37.95 43.0 37.9 42.95 37.85 42.95 37.85 42.9 37.8 42.85 37.75 42.8 37.75 42.75 37.75 42.7 37.7 42.65 37.7 42.6 37.7 42.5 37.7 42.45 37.7 42.35 37.7 42.3 37.75 42.25 37.75 42.15 37.8 42.1 37.8 42.05 37.85 42.0 37.9 41.95 37.95 41.9 38.0 41.9 38.05 41.85 38.1 41.8 38.15 41.75 38.2 41.7 38.25 41.7 38.35 40.6 40.3 38.75 43.0 38.6 43.2 38.5 43.4 38.35 43.6 38.2 43.8 38.05 43.95 37.9 44.15 37.75 44.35 37.6 44.5 37.45 44.65 37.25 44.85 37.1 45.0 36.95 45.15 36.75 45.3 36.55 45.5 36.4 45.65 36.2 45.8 36.2 45.75 36.2 45.7 36.15 45.7 36.15 45.65 36.15 45.6 36.2 45.55 36.2 45.55 36.2 45.5 36.2 45.45 36.2 45.45 36.2 45.4 36.25 45.4 36.2 45.45 36.25 45.3 36.25 45.3 36.3 45.25 36.45 44.75 36.65 44.3 36.8 43.8 36.95 43.35 37.1 42.85 37.25 42.4 37.4 41.9 37.55 41.45 37.7 40.95 37.85 40.45 38.0 39.95 38.1 39.5 38.25 39.0 38.35 38.5 38.5 38.0 38.6 37.55 38.7 37.25 38.75 37.25 38.8 37.25 38.85 37.25 38.9 37.2 38.9 37.2 38.95 37.2 39.0 37.15 39.0 37.15 39.0 37.1 39.05 37.05 39.05 37.0 39.1 37.0 39.1 36.95 39.1 36.95 39.15 36.85 39.15 36.85 39.15 36.8 40.55 33.75 40.9 32.85 42.35 29.3 43.9 24.25 44.45 22.45 45.75 17.15 46.7 13.6 47.75 8.1 47.8 7.85 47.85 7.55 47.9 7.3 47.95 7.0 48.0 6.75 48.05 6.45 48.1 6.2 48.15 5.9 48.2 5.6 48.25 5.35 48.3 5.05 48.35 4.8 48.35 4.5 48.4 4.25 48.45 3.95 48.5 3.7 48.5 3.55 48.5 3.4 48.55 3.3 48.55 3.15 48.55 3.05 48.55 2.85 48.55 2.7 48.55 2.6 48.55 2.45 48.55 2.3 48.6 2.15 48.6 2.05 48.6 1.9 48.65 1.75 48.65 1.65 48.7 1.5 48.7 1.4 48.7 1.3 48.7 1.25 48.7 1.15 48.7 1.05 48.7 0.95 48.7 0.9 48.65 0.8 48.65 0.7 48.65 0.6 48.5 0.05 48.6 0.4 48.55 0.3 48.55 0.25 48.55 0.15 48.5 0.05 48.5 -0.05 48.5 -0.1 48.5 -0.2 48.5 -0.25 48.5 -0.35 48.55 -0.4 48.55 -0.5 48.6 -0.55 48.65 -0.6 48.7 -0.65 48.75 -0.7 48.8 -0.75 48.85 -0.8 48.9 -0.85 48.95 -0.9 49.05 -0.95 49.1 -0.95 49.15 -1.0 49.25 -1.0 49.3 -1.0 49.35 -1.0 49.4 -1.0 49.5 -1.0 49.55 -0.95 49.6 -0.95 49.65 -0.9 49.7 -0.85 49.8 -0.8 49.85 -0.8 49.9 -0.75 49.95 -0.7 50.0 -0.6 50.1 -0.45 51.3 1.65 54.0 6.3 57.5 13.8 57.5 13.85 57.55 13.9 57.55 13.9 57.6 14.0 57.6 14.05 57.6 14.05 57.65 14.1 57.65 14.15 57.7 14.2 57.7 14.25 57.75 14.3 57.8 14.3 57.8 14.35 57.85 14.4 57.9 14.4 57.95 14.45 L57.95 14.45" fill="#000000" fill-opacity="0.16862746" fill-rule="evenodd" stroke="none"/>
    <path d="M-24.05 -33.45 Q-23.95 -32.75 -23.2 -29.75 -23.0 -29.05 -22.8 -28.3 -22.6 -27.6 -22.4 -26.85 -22.2 -26.15 -21.95 -25.45 -21.7 -24.75 -21.45 -24.05 -21.2 -23.35 -20.9 -22.65 -20.65 -22.0 -20.35 -21.3 -20.1 -20.6 -19.75 -19.95 -19.45 -19.25 -19.15 -18.55 -18.75 -17.65 -18.3 -16.75 -17.85 -15.85 -17.45 -14.95 -17.0 -14.05 -16.55 -13.15 -16.1 -12.3 -15.65 -11.4 -15.15 -10.5 -14.7 -9.65 -14.2 -8.75 -13.75 -7.9 -13.25 -7.05 -12.75 -6.15 -12.25 -5.3 -11.75 -4.45 -11.25 -3.6 -10.75 -2.8 -10.25 -2.0 -9.7 -1.2 -9.2 -0.45 -8.65 0.35 -8.05 1.1 -7.5 1.85 -6.9 2.6 -6.3 3.3 -5.7 4.05 -5.05 4.75 -4.45 5.45 -3.8 6.15 -3.15 6.85 -2.45 7.5 -2.2 7.75 -1.15 8.65 -0.7 9.1 -0.6 9.25 -0.7 9.25 -0.8 9.2 -0.8 9.2 -0.9 9.15 -1.95 8.5 -2.95 7.8 -4.0 7.1 -4.95 6.4 -5.95 5.7 -6.9 4.95 -7.9 4.2 -8.8 3.4 -9.75 2.6 -10.65 1.8 -11.55 0.95 -12.4 0.1 -13.25 -0.8 -14.1 -1.7 -14.9 -2.65 -15.7 -3.6 -16.5 -4.55 -17.25 -5.55 -17.95 -6.55 -18.7 -7.6 -19.4 -8.6 -20.1 -9.65 -20.75 -10.7 -21.4 -11.75 -22.05 -12.8 -22.7 -13.9 -23.3 -14.95 -23.9 -16.1 -24.5 -17.2 -25.05 -18.3 -25.6 -19.45 -26.1 -20.6 -26.25 -20.85 -28.15 -25.2 -28.35 -25.55 -28.35 -25.55 -28.75 -26.6 -29.35 -28.1 -30.8 -32.1 -31.35 -34.55 -31.55 -35.4 -31.6 -37.3 -31.6 -38.1 -31.6 -38.95 -31.6 -39.75 -31.55 -40.6 -31.5 -41.4 -31.4 -42.2 -31.35 -43.0 -31.25 -43.8 -31.15 -44.6 -31.05 -45.45 -30.9 -46.25 -30.75 -47.05 -30.6 -47.85 -30.4 -48.65 -30.25 -49.4 -30.05 -50.2 -30.05 -50.3 -30.0 -50.3 -30.0 -50.4 -30.0 -50.45 -29.95 -50.5 -29.95 -50.55 -29.95 -50.6 -29.9 -50.7 -29.9 -50.75 -29.85 -50.8 -29.85 -50.85 -29.8 -50.9 -29.8 -50.95 -29.75 -51.05 -29.75 -51.1 -29.7 -51.15 -29.8 -50.45 -29.9 -49.8 -30.0 -49.1 -30.1 -48.45 -30.15 -47.75 -30.2 -47.05 -30.25 -46.4 -30.3 -45.7 -30.3 -45.05 -30.3 -44.35 -30.3 -43.7 -30.3 -43.0 -30.3 -42.3 -30.25 -41.65 -30.2 -40.95 -30.15 -40.3 -30.1 -39.75 -30.05 -39.15 -29.95 -38.6 -29.9 -38.05 -29.8 -37.5 -29.7 -36.95 -29.6 -36.4 -29.5 -35.85 -29.35 -35.3 -29.2 -34.75 -29.1 -34.2 -28.95 -33.7 -28.8 -33.15 -28.6 -32.6 -28.45 -32.05 -28.25 -31.55 -27.75 -30.05 -27.2 -28.65 -26.65 -27.15 -26.05 -25.75 -25.45 -24.3 -24.8 -22.9 -24.2 -21.5 -23.5 -20.1 -22.85 -18.7 -22.1 -17.35 -21.4 -16.0 -20.65 -14.65 -19.85 -13.3 -19.05 -12.05 -18.2 -10.7 -17.35 -9.45 -17.1 -9.1 -17.0 -8.95 -16.9 -8.85 -16.75 -8.6 -16.6 -8.35 -16.5 -8.25 -14.25 -5.1 -12.55 -3.3 -12.55 -3.3 -12.55 -3.3 L-12.6 -3.3 Q-12.85 -3.7 -13.95 -5.1 -14.55 -5.9 -15.4 -7.1 -16.6 -8.9 -16.8 -9.15 -17.05 -9.6 -17.3 -10.05 -17.55 -10.5 -17.8 -10.9 -18.05 -11.35 -18.3 -11.8 -18.55 -12.25 -18.75 -12.7 -19.0 -13.2 -19.2 -13.65 -19.45 -14.1 -19.65 -14.55 -19.85 -15.05 -20.1 -15.5 -20.3 -15.95 -20.5 -16.45 -20.75 -17.05 -20.95 -17.65 -21.2 -18.25 -21.4 -18.85 -21.65 -19.45 -21.85 -20.1 -22.05 -20.7 -22.25 -21.3 -22.4 -21.95 -22.6 -22.55 -22.8 -23.15 -22.95 -23.8 -23.15 -24.4 -23.3 -25.05 -23.5 -25.65 -23.65 -26.3 -25.3 -32.65 -25.9 -36.4 -25.95 -36.85 -26.05 -37.35 -26.1 -37.8 -26.15 -38.3 -26.2 -38.75 -26.25 -39.2 -26.3 -39.65 -26.3 -40.15 -26.35 -40.6 -26.35 -41.1 -26.4 -41.55 -26.4 -42.05 -26.45 -42.5 -26.45 -42.95 -26.45 -43.4 -26.5 -43.9 -26.5 -44.55 -26.5 -45.45 -26.5 -45.5 -26.5 -45.55 -26.5 -45.65 -26.5 -45.7 -26.45 -45.75 -26.45 -45.8 -26.45 -45.85 -26.4 -45.9 -26.4 -45.95 -26.35 -46.0 -26.3 -46.05 -26.3 -46.1 -26.25 -46.15 -26.2 -46.2 -26.1 -46.25 -26.05 -46.3 -26.0 -45.9 -26.0 -45.45 -25.95 -45.05 -25.9 -44.65 -25.9 -44.25 -25.85 -43.85 -25.8 -43.45 -25.75 -43.05 -25.7 -42.6 -25.65 -42.2 -25.6 -41.8 -25.55 -41.4 -25.5 -41.0 -25.45 -40.6 -25.4 -40.2 -25.3 -39.8 -25.1 -38.6 -24.7 -36.6 -24.2 -34.15 -24.05 -33.45 L-24.05 -33.45" fill="#050505" fill-rule="evenodd" stroke="none"/>
    <path d="M-26.3 -53.85 Q-26.2 -53.95 -26.0 -54.2 -25.85 -54.4 -25.75 -54.55 -25.55 -54.7 -25.45 -54.85 -25.3 -55.05 -25.15 -55.2 -25.0 -55.35 -24.8 -55.45 -24.65 -55.6 -24.45 -55.7 -24.3 -55.85 -24.1 -55.95 -23.9 -56.05 -23.65 -56.15 -23.2 -56.3 -22.75 -56.4 -22.35 -56.5 -21.9 -56.6 -21.45 -56.65 -21.0 -56.65 -20.6 -56.7 -20.15 -56.7 -19.7 -56.7 -19.3 -56.65 -18.85 -56.6 -18.4 -56.55 -18.0 -56.5 -17.55 -56.4 -17.1 -56.3 -16.65 -56.15 -16.0 -56.0 -15.35 -55.75 -14.75 -55.55 -14.1 -55.35 -13.5 -55.1 -12.85 -54.85 -12.25 -54.6 -11.65 -54.35 -11.05 -54.05 -10.45 -53.75 -9.85 -53.5 -9.25 -53.15 -8.65 -52.85 -8.05 -52.55 -7.5 -52.2 -6.9 -51.85 -5.9 -51.3 -5.0 -50.65 -4.05 -50.05 -3.15 -49.4 -2.25 -48.75 -1.35 -48.05 -0.5 -47.4 0.35 -46.65 1.2 -45.9 2.0 -45.15 2.8 -44.35 3.55 -43.5 4.3 -42.7 5.05 -41.8 5.75 -40.95 6.45 -40.0 6.95 -39.3 7.45 -38.6 7.95 -37.9 8.4 -37.2 8.85 -36.45 9.3 -35.7 9.75 -35.0 10.15 -34.25 10.55 -33.5 10.95 -32.7 11.3 -31.95 11.7 -31.15 12.05 -30.4 12.35 -29.6 12.7 -28.8 13.0 -27.95 13.0 -27.9 13.4 -26.9 13.65 -26.3 13.85 -25.9 13.95 -25.65 14.0 -25.45 14.1 -25.2 14.2 -25.0 14.25 -24.75 14.35 -24.55 14.4 -24.3 14.45 -24.05 14.5 -23.85 14.6 -23.6 14.65 -23.35 14.7 -23.15 14.75 -22.9 14.75 -22.65 14.8 -22.45 14.85 -22.2 14.9 -21.85 15.7 -17.2 15.6 -17.35 15.2 -18.35 15.1 -18.6 13.65 -22.25 12.7 -24.6 12.0 -26.1 11.75 -26.65 11.5 -27.2 11.25 -27.75 11.0 -28.25 10.75 -28.8 10.5 -29.35 10.2 -29.85 9.95 -30.4 9.65 -30.9 9.35 -31.4 9.1 -31.95 8.8 -32.45 8.5 -32.95 8.15 -33.45 7.85 -33.95 7.55 -34.45 7.35 -34.75 7.15 -35.05 6.95 -35.3 6.7 -35.6 6.5 -35.9 6.25 -36.15 6.0 -36.4 5.75 -36.7 5.55 -36.95 5.25 -37.2 5.05 -37.45 4.75 -37.7 4.55 -37.9 4.25 -38.15 4.0 -38.4 3.75 -38.65 3.15 -39.2 2.55 -39.7 1.95 -40.2 1.35 -40.7 0.75 -41.2 0.1 -41.7 -0.5 -42.15 -1.15 -42.65 -1.75 -43.1 -2.4 -43.55 -3.05 -44.0 -3.7 -44.45 -4.35 -44.85 -5.0 -45.3 -5.65 -45.7 -6.3 -46.1 -10.55 -48.7 -11.6 -49.25 -12.15 -49.5 -12.65 -49.8 -13.2 -50.05 -13.75 -50.25 -14.3 -50.5 -14.85 -50.7 -15.4 -50.95 -16.0 -51.15 -16.55 -51.35 -17.1 -51.5 -17.65 -51.7 -18.25 -51.85 -18.8 -52.05 -19.4 -52.2 -19.95 -52.35 -20.55 -52.5 -23.65 -53.2 -24.7 -53.35 -24.8 -53.35 -24.9 -53.35 -25.0 -53.4 -25.1 -53.4 -25.2 -53.45 -25.3 -53.45 -25.4 -53.5 -25.5 -53.5 -25.6 -53.55 -25.7 -53.55 -25.8 -53.6 -25.9 -53.65 -26.0 -53.7 -26.1 -53.75 -26.2 -53.8 -26.3 -53.85 L-26.3 -53.85 M-4.1 -47.35 Q-5.0 -48.0 -5.85 -48.55 -6.75 -49.2 -7.65 -49.7 -8.55 -50.3 -9.45 -50.8 -10.4 -51.3 -11.3 -51.75 -12.25 -52.25 -13.2 -52.65 -14.2 -53.05 -15.15 -53.4 -16.2 -53.75 -17.2 -54.0 -18.25 -54.25 -19.25 -54.45 -18.25 -54.2 -17.2 -53.9 -16.25 -53.6 -15.25 -53.25 -14.25 -52.85 -13.3 -52.45 -12.35 -52.05 -11.4 -51.6 -10.5 -51.15 -9.55 -50.6 -8.65 -50.15 -7.7 -49.6 -6.8 -49.05 -5.9 -48.5 -5.05 -47.95 -4.1 -47.35 L-4.1 -47.35" fill="#050505" fill-rule="evenodd" stroke="none"/>
    <path d="M30.25 -12.35 Q30.45 -11.95 31.5 -9.2 31.65 -8.8 31.8 -8.4 31.95 -8.0 32.1 -7.6 32.25 -7.2 32.4 -6.8 32.5 -6.4 32.65 -6.0 32.8 -5.6 32.9 -5.2 33.0 -4.8 33.15 -4.4 33.25 -4.0 33.35 -3.6 33.45 -3.15 33.55 -2.75 33.7 -2.2 34.0 -1.4 34.5 -0.1 34.5 -0.1 34.8 0.7 35.05 1.5 35.3 2.25 35.55 3.05 35.8 3.85 36.0 4.65 36.25 5.45 36.45 6.25 36.65 7.05 36.85 7.85 37.05 8.65 37.25 9.5 37.4 10.3 37.55 11.1 37.75 11.9 37.9 12.75 38.0 13.35 38.1 13.95 38.2 14.6 38.3 15.2 38.35 15.8 38.45 16.4 38.5 17.05 38.55 17.65 38.6 18.25 38.65 18.9 38.7 19.5 38.7 20.1 38.75 20.75 38.75 21.35 38.75 22.0 38.75 22.6 38.65 23.05 38.65 23.1 38.6 23.05 38.6 23.05 38.55 23.0 38.5 23.0 38.5 22.95 38.45 22.9 38.45 22.9 38.4 22.85 38.4 22.8 38.4 22.75 38.35 22.75 38.35 22.7 38.3 22.65 38.3 22.6 38.3 22.55 38.25 22.55 35.7 17.7 30.25 7.25 30.15 7.1 30.05 6.85 29.9 6.5 29.85 6.45 29.9 6.45 29.95 6.45 30.0 6.4 30.0 6.4 30.05 6.35 30.05 6.3 30.1 6.3 30.1 6.25 30.1 6.25 30.15 6.15 30.35 5.65 30.6 3.9 30.95 1.7 31.05 0.15 31.15 -2.05 31.1 -2.7 30.95 -5.85 30.9 -6.2 30.85 -6.6 30.8 -7.2 30.75 -8.15 30.75 -8.2 30.75 -8.45 30.7 -8.7 30.7 -8.9 30.7 -9.15 30.65 -9.4 30.6 -9.65 30.6 -9.9 30.55 -10.15 30.5 -10.35 30.5 -10.6 30.45 -10.85 30.4 -11.1 30.35 -11.3 30.3 -11.55 30.25 -11.8 30.2 -12.05 30.1 -12.35 30.15 -12.15 30.15 -12.2 30.15 -12.2 30.15 -12.25 30.15 -12.3 30.2 -12.35 30.25 -12.35 L30.25 -12.35" fill="#000000" fill-opacity="0.16862746" fill-rule="evenodd" stroke="none"/>
    <path d="M-52.85 36.05 Q-52.9 36.0 -52.95 35.9 -53.0 35.85 -53.05 35.75 -53.1 35.7 -53.1 35.6 -53.15 35.55 -53.2 35.45 -53.25 35.3 -53.25 35.3 -53.3 35.2 -53.35 35.1 -53.35 35.05 -53.4 34.95 -53.45 34.9 -53.5 34.8 -53.55 34.85 -53.55 34.85 -53.55 34.9 -53.6 34.9 -53.6 34.95 -53.6 35.0 -53.6 35.0 -53.6 35.05 -53.6 35.1 -53.6 35.1 -53.6 35.15 -53.6 35.2 -53.6 35.2 -53.6 35.25 -53.6 35.25 -53.6 35.3 -53.6 35.45 -53.65 36.3 -53.7 36.9 -53.75 37.3 -53.8 37.55 -53.8 37.85 -53.8 38.1 -53.8 38.35 -53.8 38.6 -53.75 38.9 -53.75 39.15 -53.75 39.4 -53.7 39.65 -53.65 39.95 -53.65 40.2 -53.6 40.45 -53.55 40.7 -53.5 41.0 -53.5 41.05 -53.4 41.5 -53.3 42.2 -52.95 44.25 -53.0 44.25 -53.05 44.25 -53.1 44.25 -53.1 44.2 -53.15 44.2 -53.15 44.15 -53.15 44.15 -53.2 44.1 -53.2 44.05 -53.2 44.0 -53.85 42.95 -54.45 41.85 -55.05 40.75 -55.6 39.65 -56.15 38.55 -56.65 37.4 -57.1 36.25 -57.6 35.1 -58.05 33.95 -58.45 32.75 -58.85 31.6 -59.2 30.4 -59.55 29.2 -59.9 28.0 -60.25 26.8 -60.5 25.55 -60.5 25.55 -60.7 24.5 -60.7 24.45 -60.7 24.4 -60.7 24.35 -60.7 24.3 -60.7 24.25 -60.7 24.2 -60.7 24.2 -60.65 24.15 -60.65 24.1 -60.6 24.05 -60.15 23.25 -59.75 22.45 -59.35 21.65 -59.0 20.85 -58.6 20.0 -58.25 19.2 -57.9 18.35 -57.55 17.5 -57.25 16.7 -56.95 15.8 -56.6 15.0 -56.35 14.1 -56.05 13.25 -55.75 12.4 -55.5 11.55 -55.25 10.65 -55.25 10.65 -55.2 10.6 -55.15 10.6 -55.15 10.55 -55.1 10.6 -55.1 10.6 -55.05 10.65 -55.05 10.7 -55.0 10.7 -55.0 10.75 -55.0 10.8 -55.0 10.85 -55.0 10.85 -55.0 10.9 -55.05 11.2 -55.4 14.7 -55.45 15.25 -55.45 16.3 -55.5 17.4 -55.55 17.9 -55.6 18.45 -55.65 21.15 -55.65 21.6 -55.65 22.05 -55.65 22.45 -55.6 22.9 -55.55 23.35 -55.55 23.8 -55.5 24.2 -55.45 24.65 -55.4 25.05 -55.3 25.5 -55.25 25.95 -55.2 26.4 -55.1 26.8 -55.0 27.25 -54.95 27.65 -54.85 28.1 -54.3 30.65 -52.85 35.55 -52.85 35.6 -52.85 35.6 -52.8 35.65 -52.8 35.65 -52.8 35.7 -52.75 35.75 -52.75 35.75 -52.75 35.8 -52.75 35.85 -52.75 35.85 -52.75 35.9 -52.75 35.9 -52.75 35.95 -52.8 35.95 -52.8 36.0 -52.85 36.05 L-52.85 36.05" fill="#000000" fill-opacity="0.16862746" fill-rule="evenodd" stroke="none"/>
    <path d="M-34.8 -6.1 Q-34.8 -5.9 -34.85 -5.65 -34.9 -5.45 -34.95 -5.2 -34.95 -5.0 -35.0 -4.8 -35.05 -4.55 -35.1 -4.35 -35.2 -4.15 -35.25 -3.9 -35.3 -3.7 -35.4 -3.5 -35.45 -3.3 -35.55 -3.1 -35.6 -2.85 -35.7 -2.65 -36.15 -1.65 -37.5 1.95 -38.15 3.7 -41.7 11.95 -42.9 14.75 -43.95 16.75 -43.95 16.65 -43.9 16.3 -43.9 16.0 -43.9 15.85 -43.45 12.25 -43.05 9.8 -42.9 8.85 -42.75 7.95 -42.6 7.05 -42.45 6.15 -42.3 5.2 -42.15 4.3 -41.95 3.4 -41.8 2.5 -41.6 1.55 -41.45 0.65 -41.25 -0.25 -41.05 -1.15 -40.85 -2.05 -40.65 -2.95 -40.45 -3.85 -40.2 -4.75 -39.75 -6.55 -38.25 -11.8 -38.2 -11.95 -38.15 -12.2 -38.1 -12.55 -38.05 -12.6 -37.75 -12.95 -37.3 -13.7 -36.8 -14.5 -36.5 -14.85 -36.45 -14.8 -36.45 -14.8 -36.4 -14.75 -36.4 -14.75 -36.4 -14.7 -36.35 -14.65 -36.35 -14.65 -36.35 -14.6 -36.35 -14.6 -36.3 -14.55 -36.3 -14.5 -36.3 -14.45 -36.3 -14.45 -36.3 -14.4 -36.3 -14.4 -36.3 -14.35 -36.2 -13.85 -35.55 -10.05 -35.0 -6.55 -35.0 -6.4 -35.0 -6.35 -35.0 -6.3 -35.0 -6.25 -34.95 -6.25 -34.95 -6.2 -34.9 -6.2 -34.9 -6.15 -34.85 -6.15 -34.85 -6.1 -34.8 -6.1 L-34.8 -6.1" fill="#000000" fill-opacity="0.16862746" fill-rule="evenodd" stroke="none"/>
    <path d="M-16.8 -9.15 Q-16.6 -8.85 -15.4 -7.1 -14.5 -5.9 -13.95 -5.1 -12.95 -3.9 -12.6 -3.3 L-12.55 -3.3 Q-14.2 -5.05 -16.5 -8.25 -16.6 -8.4 -17.0 -8.95 -16.9 -9.05 -16.8 -9.15 L-16.8 -9.15" fill="#000000" fill-opacity="0.16862746" fill-rule="evenodd" stroke="none"/>
    <path d="M-55.1 10.3 Q-55.15 10.2 -55.0 10.15 -55.0 10.25 -55.1 10.3 L-55.1 10.3" fill="#000000" fill-opacity="0.16862746" fill-rule="evenodd" stroke="none"/>
    <path d="M43.25 54.45 Q43.25 54.45 43.2 54.55 43.2 54.5 43.15 54.5 43.15 54.45 43.2 54.45 43.2 54.45 43.2 54.4 43.2 54.4 43.25 54.45 L43.25 54.45" fill="#000000" fill-opacity="0.16862746" fill-rule="evenodd" stroke="none"/>
    <path d="M-12.6 -3.3 L-12.55 -3.3 Q-12.55 -3.3 -12.55 -3.3 -12.55 -3.3 -12.55 -3.3 -12.55 -3.3 -12.6 -3.3 L-12.6 -3.3" fill="#000000" fill-opacity="0.16862746" fill-rule="evenodd" stroke="none"/>
    <path d="M-4.1 -47.35 Q-5.05 -47.95 -5.9 -48.5 -6.8 -49.1 -7.7 -49.6 -8.65 -50.15 -9.55 -50.6 -10.5 -51.15 -11.4 -51.6 -12.35 -52.05 -13.3 -52.45 -14.3 -52.85 -15.25 -53.25 -16.25 -53.6 -17.25 -53.9 -18.25 -54.2 -19.25 -54.45 -18.2 -54.25 -17.15 -54.0 -16.15 -53.75 -15.15 -53.4 -14.2 -53.05 -13.2 -52.65 -12.25 -52.25 -11.3 -51.75 -10.4 -51.3 -9.45 -50.8 -8.55 -50.3 -7.65 -49.7 -6.75 -49.2 -5.85 -48.55 -5.0 -48.0 -4.1 -47.35 L-4.1 -47.35" fill="#000000" fill-opacity="0.16862746" fill-rule="evenodd" stroke="none"/>
  </g>
</svg>
