<?xml version="1.0" encoding="UTF-8" standalone="no"?>
<svg xmlns:xlink="http://www.w3.org/1999/xlink" height="200.0px" width="200.0px" xmlns="http://www.w3.org/2000/svg">
  <g transform="matrix(1.0, 0.0, 0.0, 1.0, 100.0, 100.0)">
    <path d="M-32.15 30.7 Q-29.75 34.1 -29.6 34.35 -29.45 34.6 -29.35 34.85 -29.25 35.1 -29.2 35.35 -29.15 35.6 -29.15 35.85 -29.1 36.1 -29.15 36.35 -29.2 36.6 -29.25 36.85 -29.3 37.1 -29.4 37.35 -29.55 37.6 -29.65 37.85 -29.8 38.1 -29.95 38.35 -30.2 38.7 -30.45 38.95 -30.7 39.25 -30.95 39.55 -31.25 39.8 -31.55 40.0 -31.85 40.25 -32.15 40.45 -32.5 40.65 -32.8 40.85 -33.15 41.0 -33.5 41.15 -33.85 41.3 -34.25 41.45 -34.6 41.6 -35.0 41.7 -39.35 43.1 -39.45 43.15 -39.65 43.2 -39.8 43.3 -40.0 43.4 -40.2 43.5 -40.35 43.55 -40.55 43.65 -40.7 43.75 -40.9 43.9 -41.05 44.0 -41.2 44.1 -41.4 44.2 -41.55 44.35 -41.7 44.45 -41.9 44.6 -42.05 44.7 -42.2 44.85 -42.55 45.1 -42.75 45.4 -42.95 45.7 -43.1 46.05 -43.2 46.35 -43.25 46.7 -43.3 47.0 -43.25 47.35 -43.2 47.7 -43.1 48.0 -43.0 48.3 -42.8 48.6 -42.65 48.9 -42.45 49.15 -42.2 49.45 -41.95 49.65 -41.7 49.85 -41.4 50.0 -41.15 50.15 -40.9 50.3 -40.6 50.4 -40.3 50.45 -40.05 50.55 -39.75 50.6 -39.45 50.65 -39.15 50.65 -38.85 50.7 -38.55 50.7 -38.25 50.65 -37.9 50.65 -37.6 50.6 -37.3 50.55 -36.5 50.5 -36.4 50.55 -36.5 50.65 -36.55 50.8 -36.65 50.95 -36.75 51.1 -36.95 51.45 -36.9 51.35 -37.0 51.55 -37.1 51.65 -37.15 51.8 -37.25 51.95 -37.35 52.05 -37.45 52.2 -37.55 52.35 -37.65 52.45 -37.75 52.6 -37.85 52.7 -38.15 53.0 -38.5 53.3 -38.8 53.6 -39.15 53.85 -39.5 54.1 -39.85 54.35 -40.2 54.55 -40.6 54.75 -40.95 54.95 -41.35 55.1 -41.75 55.25 -42.2 55.3 -42.6 55.4 -43.05 55.45 -43.5 55.45 -44.0 55.45 -44.7 55.4 -45.35 55.2 -46.05 55.05 -46.7 54.75 -47.35 54.45 -47.95 54.1 -48.55 53.7 -49.05 53.25 -49.6 52.8 -50.05 52.25 -50.5 51.75 -50.9 51.15 -51.25 50.6 -51.55 50.0 -51.8 49.35 -51.95 48.7 -52.1 48.0 -52.2 47.35 -52.3 46.65 -52.3 46.0 -52.3 45.35 -52.25 44.7 -52.15 44.05 -52.0 43.4 -51.85 42.8 -51.65 42.2 -51.4 41.55 -51.1 41.0 -50.8 40.4 -50.4 39.8 -50.0 39.25 -49.55 38.65 -49.45 38.55 -49.1 38.15 -50.8 37.6 -50.8 37.6 -51.25 37.45 -51.65 37.3 -52.1 37.1 -52.5 36.9 -52.9 36.7 -53.25 36.5 -53.65 36.25 -54.0 36.0 -54.35 35.75 -54.7 35.5 -55.05 35.2 -55.35 34.9 -55.7 34.6 -55.95 34.25 -56.25 33.95 -56.55 33.55 -56.95 33.05 -57.2 32.5 -57.45 32.0 -57.55 31.45 -57.65 30.95 -57.65 30.45 -57.6 30.0 -57.5 29.5 -57.4 29.05 -57.2 28.6 -57.0 28.15 -56.7 27.75 -56.45 27.35 -56.15 27.0 -55.8 26.65 -55.45 26.35 -55.35 26.25 -55.0 25.95 -54.4 26.35 -57.55 24.25 -59.05 23.25 -60.0 22.45 -60.7 21.9 -61.3 21.3 -61.9 20.7 -62.45 20.05 -63.0 19.45 -63.5 18.75 -64.0 18.1 -64.4 17.4 -64.85 16.7 -65.2 15.95 -65.55 15.25 -65.9 14.45 -66.2 13.7 -66.45 12.9 -66.7 12.1 -66.85 11.3 -66.9 11.0 -66.95 10.7 -67.0 10.4 -67.05 10.1 -67.05 9.8 -67.05 9.5 -67.05 9.25 -67.05 8.95 -67.05 8.65 -67.0 8.35 -66.95 8.05 -66.9 7.75 -66.85 7.45 -66.75 7.15 -66.7 6.9 -66.6 6.6 -66.55 6.45 -66.4 5.95 -67.1 6.0 -67.7 5.95 -68.35 5.9 -68.95 5.8 -69.55 5.7 -70.1 5.55 -70.65 5.35 -71.15 5.1 -71.65 4.85 -72.1 4.5 -72.55 4.2 -72.95 3.75 -73.35 3.35 -73.65 2.8 -74.0 2.3 -74.25 1.7 -74.4 1.4 -74.5 1.1 -74.6 0.8 -74.65 0.5 -74.75 0.2 -74.8 -0.1 -74.8 -0.4 -74.8 -0.7 -74.8 -0.95 -74.75 -1.25 -74.65 -1.55 -74.55 -1.85 -74.45 -2.1 -74.25 -2.4 -74.05 -2.7 -73.8 -2.95 -73.8 -2.9 -73.75 -2.85 -73.7 -2.8 -73.65 -2.8 -73.65 -2.75 -73.65 -2.7 -73.55 -2.35 -73.35 -2.05 -73.2 -1.75 -72.9 -1.5 -72.65 -1.25 -72.3 -1.05 -72.0 -0.9 -71.6 -0.75 -71.2 -0.65 -70.8 -0.6 -70.4 -0.6 -69.95 -0.65 -69.5 -0.7 -69.1 -0.9 -68.65 -1.1 -68.25 -1.4 -68.15 -1.45 -68.05 -1.55 -68.0 -1.6 -67.9 -1.7 -67.85 -1.8 -67.8 -1.9 -67.7 -2.0 -67.65 -2.1 -67.6 -2.2 -67.55 -2.3 -67.5 -2.4 -67.45 -2.55 -67.45 -2.5 -67.3 -2.75 -67.25 -2.9 -67.2 -2.95 -67.2 -2.95 -67.2 -3.0 -67.2 -3.05 -67.2 -3.1 -67.25 -3.1 -67.25 -3.15 -67.25 -3.2 -67.3 -3.25 -67.3 -3.3 -67.35 -3.3 -67.4 -3.35 -67.4 -3.4 -67.45 -3.45 -67.5 -3.5 -66.7 -2.55 -67.55 -3.55 -68.0 -4.1 -68.4 -4.65 -68.85 -5.25 -69.25 -5.8 -69.65 -6.4 -70.0 -7.0 -70.35 -7.6 -70.7 -8.2 -71.0 -8.8 -71.3 -9.4 -71.55 -10.05 -71.8 -10.7 -72.0 -11.35 -72.2 -12.0 -72.35 -12.7 -72.5 -13.4 -72.7 -14.45 -72.75 -15.5 -72.8 -16.5 -72.75 -17.5 -72.65 -18.5 -72.5 -19.5 -72.3 -20.45 -72.0 -21.4 -71.7 -22.3 -71.3 -23.2 -70.9 -24.1 -70.35 -25.0 -69.85 -25.85 -69.2 -26.7 -68.55 -27.55 -67.8 -28.35 -67.75 -28.4 -67.7 -28.5 -67.65 -28.55 -67.6 -28.6 -67.55 -28.7 -67.5 -28.75 -67.5 -28.8 -67.45 -28.9 -67.45 -28.95 -67.45 -29.0 -67.45 -29.1 -67.45 -29.15 -67.45 -29.25 -67.45 -29.35 -67.45 -29.4 -67.5 -29.5 -67.7 -30.15 -67.75 -30.8 -67.8 -31.45 -67.75 -32.05 -67.65 -32.7 -67.45 -33.25 -67.25 -33.85 -66.95 -34.35 -66.65 -34.9 -66.2 -35.4 -65.8 -35.85 -65.25 -36.25 -64.7 -36.7 -64.05 -37.05 -63.4 -37.35 -62.65 -37.65 -62.45 -37.7 -62.25 -37.75 -62.05 -37.85 -61.8 -37.9 -61.6 -37.95 -61.4 -38.0 -61.2 -38.0 -60.95 -38.05 -60.8 -38.1 -60.55 -38.15 -60.1 -38.2 -60.1 -38.2 -59.85 -38.25 -59.7 -38.3 -59.45 -38.35 -59.25 -38.4 -60.15 -40.8 -60.4 -41.55 -60.6 -42.25 -60.75 -42.95 -60.85 -43.6 -60.85 -44.3 -60.9 -44.95 -60.8 -45.6 -60.7 -46.2 -60.5 -46.85 -60.35 -47.45 -60.05 -48.05 -59.8 -48.6 -59.45 -49.2 -59.1 -49.75 -58.65 -50.3 -58.2 -50.8 -57.7 -51.35 -56.9 -52.15 -56.05 -52.85 -55.15 -53.55 -54.25 -54.15 -53.35 -54.75 -52.35 -55.2 -51.4 -55.7 -50.4 -56.05 -49.4 -56.4 -48.3 -56.65 -47.25 -56.95 -46.15 -57.1 -45.05 -57.25 -43.9 -57.3 -42.75 -57.35 -41.55 -57.3 -40.7 -57.3 -39.8 -57.2 -39.0 -57.1 -38.1 -57.0 -37.3 -56.85 -36.45 -56.7 -35.65 -56.5 -34.8 -56.3 -34.0 -56.1 -33.15 -55.85 -32.35 -55.6 -31.5 -55.35 -30.8 -55.1 -29.9 -54.8 -29.4 -54.65 -28.25 -54.3 -27.5 -54.05 -26.3 -53.6 -24.75 -53.0 -24.3 -52.85 -24.1 -54.2 -24.0 -54.75 -23.75 -55.75 -23.4 -56.65 -23.0 -57.5 -22.55 -58.3 -22.05 -59.05 -21.5 -59.75 -20.9 -60.4 -20.2 -61.0 -19.55 -61.55 -18.75 -62.05 -17.95 -62.5 -17.1 -62.9 -16.25 -63.3 -15.3 -63.6 -14.35 -63.9 -13.3 -64.1 -12.6 -64.25 -11.9 -64.35 -11.2 -64.4 -10.55 -64.45 -9.85 -64.45 -9.15 -64.4 -8.5 -64.35 -7.8 -64.25 -7.15 -64.15 -6.45 -64.0 -5.8 -63.85 -5.15 -63.65 -4.5 -63.45 -3.85 -63.25 -3.2 -63.0 -2.55 -62.75 -2.05 -62.55 -1.8 -62.45 -1.35 -62.25 -1.05 -62.1 -0.6 -61.95 -0.3 -61.8 0.1 -61.6 0.45 -61.4 0.85 -61.2 1.15 -61.0 1.55 -60.8 1.85 -60.6 2.2 -60.35 2.5 -60.1 2.85 -59.85 3.15 -59.55 3.25 -59.45 4.7 -57.9 4.85 -58.0 5.3 -58.4 6.1 -59.0 6.85 -59.55 7.65 -60.1 8.45 -60.6 9.3 -61.15 10.1 -61.6 10.95 -62.1 11.75 -62.55 12.65 -63.0 13.5 -63.4 14.4 -63.8 15.3 -64.15 16.2 -64.5 17.1 -64.8 18.05 -65.1 19.0 -65.35 20.6 -65.75 22.15 -65.9 23.7 -66.0 25.2 -65.85 26.65 -65.7 28.05 -65.3 29.45 -64.85 30.7 -64.2 31.95 -63.5 33.0 -62.6 34.1 -61.7 35.0 -60.55 35.85 -59.4 36.5 -58.05 37.2 -56.7 37.55 -55.15 37.6 -55.0 37.65 -54.8 37.65 -54.65 37.7 -54.5 37.75 -54.3 37.8 -54.15 37.85 -54.0 37.85 -53.85 37.9 -53.65 37.95 -53.5 37.95 -53.35 38.0 -53.15 38.05 -53.0 38.05 -52.85 38.1 -52.65 38.1 -52.5 38.15 -52.25 38.35 -49.85 38.7 -49.95 39.9 -50.25 40.85 -50.5 41.45 -50.6 41.9 -50.7 42.35 -50.75 42.8 -50.85 43.25 -50.9 43.75 -50.95 44.15 -51.0 44.65 -51.0 45.1 -51.05 45.55 -51.05 46.0 -51.05 46.45 -51.05 46.9 -51.0 47.35 -50.95 47.8 -50.85 48.25 -50.8 48.7 -50.65 49.45 -50.45 50.15 -50.15 50.85 -49.85 51.45 -49.45 52.0 -49.05 52.5 -48.55 53.0 -48.1 53.35 -47.55 53.75 -46.95 54.0 -46.35 54.25 -45.75 54.4 -45.05 54.55 -44.4 54.55 -43.7 54.55 -43.0 54.4 -42.25 54.4 -42.2 54.3 -41.5 54.4 -41.5 55.3 -41.55 55.9 -41.6 56.25 -41.6 59.0 -41.45 60.05 -41.25 60.9 -41.1 61.6 -40.8 62.3 -40.55 62.9 -40.15 63.45 -39.75 63.85 -39.25 64.25 -38.75 64.55 -38.2 64.85 -37.65 64.95 -37.0 65.1 -36.4 65.15 -35.8 65.15 -35.15 65.05 -34.55 64.95 -33.95 64.7 -33.35 64.65 -33.15 63.85 -31.65 66.6 -29.4 66.8 -29.2 67.15 -28.85 67.5 -28.5 67.8 -28.1 68.1 -27.75 68.4 -27.35 68.6 -26.95 68.85 -26.55 69.05 -26.1 69.25 -25.7 69.4 -25.25 69.55 -24.8 69.7 -24.35 69.8 -23.9 69.85 -23.4 69.95 -22.95 70.0 -22.45 70.1 -21.0 70.1 -19.6 70.05 -18.2 69.9 -16.85 69.7 -15.5 69.4 -14.2 69.05 -12.85 68.55 -11.6 68.1 -10.35 67.5 -9.15 66.85 -7.95 66.1 -6.8 65.3 -5.6 64.4 -4.5 63.45 -3.4 62.4 -2.35 61.9 -1.85 61.35 -1.4 60.8 -1.0 60.25 -0.6 59.65 -0.25 59.05 0.1 58.45 0.4 57.8 0.7 57.2 0.95 56.55 1.2 55.9 1.4 55.2 1.6 54.55 1.75 53.85 1.9 53.15 2.05 52.45 2.15 51.5 2.3 50.6 2.4 49.65 2.5 48.75 2.55 47.8 2.65 46.85 2.65 45.95 2.7 45.0 2.7 44.1 2.7 43.15 2.65 42.25 2.6 41.3 2.5 40.4 2.45 39.45 2.3 38.55 2.2 37.6 2.1 37.55 2.1 37.55 2.1 37.5 2.05 37.45 2.05 37.45 2.05 37.4 2.05 37.4 2.05 37.35 2.05 37.3 2.05 37.25 2.05 37.25 2.05 37.2 2.05 37.15 2.0 37.15 2.0 37.1 2.0 37.05 2.0 36.95 2.0 36.9 2.0 36.8 2.0 36.7 2.0 36.65 2.95 36.65 3.2 36.55 3.9 36.4 4.55 36.2 5.2 35.95 5.85 35.7 6.45 35.35 7.05 34.95 7.6 34.55 8.15 34.05 8.65 33.55 9.1 33.0 9.55 32.4 9.9 31.75 10.25 31.0 10.5 30.3 10.75 29.5 10.9 29.15 10.95 28.8 11.0 28.5 11.0 28.15 11.0 27.8 11.0 27.45 11.0 27.15 10.95 26.8 10.9 26.45 10.9 26.15 10.8 25.8 10.75 25.45 10.65 25.15 10.6 24.8 10.5 24.5 10.4 24.2 10.25 23.55 10.0 22.9 9.75 22.3 9.5 21.7 9.2 21.05 8.9 20.5 8.6 19.9 8.3 19.4 7.95 18.85 7.6 18.35 7.2 17.8 6.85 17.35 6.45 16.9 6.0 16.45 5.6 16.05 5.15 15.65 4.7 14.95 5.25 12.2 7.45 11.6 7.9 11.0 8.3 10.4 8.7 9.75 9.1 9.15 9.4 8.45 9.75 7.8 10.0 7.15 10.25 6.45 10.5 5.75 10.75 5.05 10.95 4.35 11.1 3.65 11.25 2.9 11.4 2.2 11.55 1.4 11.65 0.5 11.75 -0.35 11.85 -1.2 11.9 -2.05 11.9 -2.95 11.95 -3.8 11.9 -4.65 11.85 -5.5 11.75 -6.35 11.65 -7.15 11.55 -8.0 11.4 -8.85 11.2 -9.7 11.0 -10.5 10.7 -11.35 10.45 -12.15 10.15 -13.05 9.8 -13.85 9.4 -14.65 8.95 -15.35 8.45 -16.05 7.95 -16.65 7.4 -17.25 6.85 -17.75 6.2 -18.3 5.6 -18.75 4.9 -19.15 4.2 -19.55 3.45 -19.9 2.7 -20.2 1.9 -20.5 1.15 -20.75 0.25 -20.8 0.0 -20.9 -0.3 -21.7 -0.3 -23.4 -0.3 -23.4 -0.25 -23.35 -0.2 -23.35 -0.2 -23.3 -0.15 -23.3 -0.1 -23.3 -0.05 -23.25 0.0 -23.25 0.0 -23.2 0.05 -23.2 0.1 -22.7 0.75 -22.3 1.45 -21.85 2.1 -21.5 2.8 -21.15 3.5 -20.85 4.2 -20.55 4.95 -20.3 5.65 -20.1 6.4 -19.9 7.15 -19.75 7.9 -19.6 8.65 -19.5 9.4 -19.4 10.2 -19.35 11.0 -19.35 11.8 -19.2 15.9 -19.25 16.85 -19.3 17.4 -19.4 17.95 -19.5 18.5 -19.7 19.05 -19.85 19.55 -20.05 20.05 -20.3 20.55 -20.55 21.05 -20.8 21.55 -21.15 22.0 -21.45 22.45 -21.8 22.95 -22.1 23.35 -22.5 23.8 -22.85 24.25 -23.25 24.65 -23.7 25.1 -24.15 25.55 -24.6 26.0 -25.1 26.4 -25.6 26.8 -26.1 27.2 -26.6 27.6 -27.15 27.95 -27.65 28.3 -28.25 28.65 -28.75 28.95 -29.35 29.25 -29.9 29.6 -30.5 29.85 -31.05 30.15 -31.65 30.45 -31.85 30.55 -32.15 30.7 L-32.15 30.7 M-53.65 -35.2 Q-55.45 -35.25 -56.7 -35.2 -60.25 -35.2 -60.8 -35.1 -61.2 -35.05 -61.55 -34.95 -61.9 -34.85 -62.25 -34.7 -62.6 -34.55 -62.9 -34.35 -63.15 -34.15 -63.45 -33.95 -63.7 -33.75 -63.9 -33.5 -64.1 -33.25 -64.25 -32.95 -64.4 -32.7 -64.45 -32.45 -64.55 -32.15 -64.55 -31.85 -64.55 -31.6 -64.6 -31.4 -64.6 -31.15 -64.6 -30.9 -64.55 -30.7 -64.55 -30.4 -64.55 -30.2 -64.55 -29.95 -64.5 -29.75 -64.5 -29.45 -64.45 -29.0 -64.45 -29.0 -64.45 -28.7 -64.4 -28.5 -64.4 -28.25 -64.4 -28.0 -64.4 -27.95 -64.4 -27.9 -64.4 -27.85 -64.4 -27.8 -64.4 -27.75 -64.4 -27.7 -64.4 -27.65 -64.4 -27.6 -64.4 -27.55 -64.45 -27.5 -64.45 -27.45 -64.45 -27.4 -64.5 -27.35 -64.5 -27.35 -64.55 -27.3 -64.55 -27.3 -65.15 -26.75 -65.7 -26.2 -66.25 -25.65 -66.7 -25.05 -67.15 -24.45 -67.55 -23.8 -67.95 -23.15 -68.25 -22.5 -68.55 -21.85 -68.8 -21.15 -69.05 -20.45 -69.2 -19.75 -69.4 -19.05 -69.5 -18.3 -69.6 -17.55 -69.65 -16.75 -69.7 -16.05 -69.65 -15.4 -69.6 -14.7 -69.5 -14.05 -69.35 -13.4 -69.2 -12.75 -69.05 -12.15 -68.8 -11.5 -68.55 -10.9 -68.25 -10.3 -68.0 -9.7 -67.65 -9.1 -67.35 -8.5 -66.95 -7.95 -66.6 -7.35 -66.2 -6.8 -65.75 -6.2 -65.3 -5.6 -64.8 -5.05 -64.3 -4.55 -63.8 -4.05 -63.2 -3.65 -62.65 -3.2 -62.05 -2.85 -61.45 -2.45 -60.8 -2.15 -60.15 -1.85 -59.45 -1.6 -58.75 -1.4 -58.05 -1.2 -57.3 -1.05 -56.55 -0.9 -55.3 -0.75 -53.45 -0.65 -50.25 -0.5 -50.3 -0.5 -50.35 -0.55 -50.35 -0.5 -50.35 -0.4 -50.35 -0.1 -50.35 0.3 -50.3 0.7 -50.3 1.05 -50.25 1.45 -50.2 1.85 -50.1 2.2 -50.05 2.6 -49.95 2.95 -49.85 3.35 -49.7 3.7 -49.6 4.05 -49.45 4.4 -49.25 4.75 -49.1 5.1 -48.9 5.45 -48.7 5.8 -48.55 6.05 -48.4 6.25 -48.25 6.45 -48.15 6.65 -47.95 6.85 -47.8 7.05 -47.65 7.25 -47.45 7.45 -47.3 7.65 -47.1 7.8 -46.9 7.95 -46.7 8.1 -46.45 8.25 -46.25 8.4 -46.0 8.5 -45.75 8.6 -45.15 8.85 -44.55 9.0 -43.95 9.15 -43.35 9.25 -42.75 9.35 -42.15 9.4 -41.55 9.45 -40.95 9.45 -40.35 9.45 -39.75 9.35 -39.15 9.3 -38.55 9.15 -37.95 9.0 -37.35 8.85 -36.8 8.65 -36.2 8.4 -35.6 8.15 -35.05 7.85 -34.5 7.55 -34.0 7.25 -33.5 6.9 -33.0 6.5 -32.55 6.15 -32.1 5.75 -31.65 5.3 -31.3 4.85 -30.9 4.4 -30.55 3.9 -30.2 3.4 -29.95 2.85 -29.65 2.3 -29.4 1.75 -28.8 0.1 -28.5 -0.65 -28.45 -0.75 -28.45 -0.8 -28.45 -0.85 -28.45 -0.95 -28.45 -1.0 -28.45 -1.05 -28.45 -1.1 -28.5 -1.15 -28.5 -1.2 -28.55 -1.25 -28.6 -1.25 -28.65 -1.3 -28.7 -1.35 -28.75 -1.35 -28.85 -1.4 -28.9 -1.4 -29.45 -1.6 -29.9 -1.85 -30.4 -2.1 -30.85 -2.4 -31.25 -2.7 -31.65 -3.05 -32.05 -3.35 -32.4 -3.75 -32.75 -4.1 -33.05 -4.5 -33.35 -4.9 -33.6 -5.35 -33.85 -5.8 -34.1 -6.25 -34.35 -6.7 -34.55 -7.2 -34.7 -7.55 -34.8 -7.85 -34.9 -8.2 -34.95 -8.55 -35.05 -8.85 -35.05 -9.2 -35.1 -9.55 -35.15 -9.9 -35.15 -10.2 -35.15 -10.55 -35.15 -10.9 -35.1 -11.2 -35.1 -11.55 -35.05 -11.85 -35.0 -12.2 -34.95 -12.5 -35.1 -12.65 -35.3 -12.75 -35.45 -12.9 -35.65 -13.0 -35.75 -13.1 -36.0 -13.25 -36.25 -13.4 -36.35 -13.5 -36.55 -13.65 -36.7 -13.75 -36.85 -13.9 -37.0 -14.0 -37.2 -14.15 -37.35 -14.25 -37.5 -14.4 -37.65 -14.55 -38.65 -15.5 -39.4 -16.65 -40.15 -17.7 -40.7 -18.95 -41.2 -20.15 -41.5 -21.4 -41.75 -22.65 -41.8 -23.95 -41.8 -25.25 -41.6 -26.5 -41.4 -27.8 -40.95 -29.0 -40.5 -30.25 -39.75 -31.4 -39.05 -32.55 -38.1 -33.5 -37.65 -34.0 -37.15 -34.45 -36.65 -34.9 -36.15 -35.25 -35.65 -35.7 -35.1 -36.0 -34.55 -36.35 -34.0 -36.6 -33.4 -36.85 -32.8 -37.0 -32.15 -37.2 -31.5 -37.3 -30.85 -37.35 -30.15 -37.35 -29.45 -37.35 -28.7 -37.2 -28.6 -37.2 -27.5 -37.05 -26.75 -36.95 -26.3 -36.85 -25.95 -36.75 -25.6 -36.7 -25.25 -36.6 -24.9 -36.5 -24.6 -36.4 -24.25 -36.25 -23.95 -36.15 -23.7 -36.05 -23.4 -35.9 -23.15 -35.8 -22.9 -35.7 -22.7 -35.55 -22.45 -35.45 -22.3 -35.3 -22.1 -35.2 -21.95 -35.05 -22.35 -35.15 -22.8 -35.25 -23.2 -35.35 -23.6 -35.4 -24.05 -35.45 -24.45 -35.5 -24.9 -35.5 -25.35 -35.5 -25.75 -35.5 -26.2 -35.5 -26.7 -35.45 -27.15 -35.4 -27.6 -35.35 -28.1 -35.25 -28.6 -35.15 -29.15 -35.05 -29.6 -34.95 -30.0 -34.85 -30.45 -34.7 -30.9 -34.55 -31.3 -34.45 -31.7 -34.25 -32.15 -34.1 -32.55 -33.95 -32.95 -33.75 -33.3 -33.55 -33.7 -33.3 -34.05 -33.1 -34.45 -32.85 -34.75 -32.55 -35.1 -32.3 -35.45 -31.95 -36.25 -31.2 -36.85 -30.25 -37.45 -29.4 -37.85 -28.4 -38.25 -27.45 -38.45 -26.4 -38.65 -25.4 -38.65 -24.35 -38.65 -23.3 -38.5 -22.3 -38.3 -21.25 -37.9 -20.25 -37.5 -19.3 -36.9 -18.4 -36.3 -17.45 -35.5 -16.65 -35.45 -16.6 -33.95 -15.4 -33.75 -15.85 -33.55 -16.25 -33.35 -16.65 -33.15 -17.05 -32.9 -17.45 -32.65 -17.85 -32.4 -18.2 -32.1 -18.6 -31.85 -18.95 -31.55 -19.3 -31.25 -19.6 -30.95 -19.95 -30.65 -20.25 -30.3 -20.6 -29.95 -20.9 -29.6 -21.2 -29.75 -20.8 -30.35 -19.65 -30.65 -19.1 -30.95 -18.5 -31.2 -17.95 -31.45 -17.35 -31.65 -16.75 -31.85 -16.2 -32.0 -15.6 -32.15 -15.0 -32.25 -14.4 -32.35 -13.8 -32.4 -13.15 -32.45 -12.55 -32.45 -11.95 -32.45 -11.3 -32.4 -10.7 -32.35 -10.05 -32.3 -9.5 -32.15 -9.0 -32.0 -8.5 -31.85 -8.05 -31.65 -7.6 -31.4 -7.2 -31.15 -6.75 -30.85 -6.4 -30.55 -6.0 -30.2 -5.65 -29.8 -5.35 -29.4 -5.05 -29.0 -4.75 -28.5 -4.5 -28.05 -4.25 -27.5 -4.05 -27.1 -3.9 -26.7 -3.8 -26.3 -3.65 -25.9 -3.55 -25.5 -3.45 -25.1 -3.4 -24.7 -3.3 -24.25 -3.25 -23.85 -3.2 -23.45 -3.2 -23.0 -3.15 -22.6 -3.15 -22.15 -3.15 -21.75 -3.15 -21.3 -3.15 -20.9 -3.2 -20.2 -3.25 -19.1 -3.35 -17.55 1.35 -17.3 1.9 -17.1 2.4 -16.9 2.85 -16.65 3.3 -16.4 3.7 -16.15 4.1 -15.85 4.5 -15.5 4.85 -15.15 5.2 -14.8 5.55 -14.45 5.85 -14.05 6.15 -13.6 6.4 -13.2 6.7 -12.7 6.9 -12.25 7.15 -11.75 7.3 -10.85 7.6 -10.05 7.9 -9.15 8.15 -8.3 8.4 -7.4 8.65 -6.55 8.8 -5.65 9.0 -4.8 9.15 -3.9 9.3 -3.05 9.35 -2.1 9.4 -1.25 9.45 -0.35 9.45 0.55 9.35 1.5 9.3 2.4 9.15 3.4 9.0 4.35 8.8 5.3 8.55 6.15 8.25 7.05 7.95 7.9 7.55 8.75 7.2 9.55 6.75 10.3 6.25 11.05 5.75 11.75 5.2 12.45 4.55 13.1 3.9 13.7 3.2 14.3 2.5 14.8 1.65 15.75 0.25 16.9 -1.9 19.6 -6.85 18.85 -5.55 18.9 -5.65 19.1 -6.0 19.1 -5.95 19.15 -5.85 19.15 -5.8 19.15 -5.7 19.2 -5.65 19.2 -5.6 19.2 -5.5 19.2 -5.45 19.2 -5.4 19.2 -5.3 19.25 -5.25 19.25 -5.2 19.2 -5.15 19.2 -5.05 19.2 -5.0 19.2 -4.95 18.5 -1.65 18.25 -0.8 18.15 -0.4 18.05 -0.05 18.0 0.35 18.0 0.75 17.95 1.1 18.0 1.45 18.05 1.8 18.15 2.15 18.25 2.5 18.45 2.85 18.6 3.15 18.8 3.45 19.0 3.75 19.3 4.05 19.55 4.35 19.9 4.6 20.3 4.9 20.65 5.15 21.05 5.4 21.45 5.65 21.85 5.9 22.3 6.1 22.7 6.35 23.15 6.5 23.55 6.7 24.0 6.9 24.45 7.05 24.9 7.2 25.35 7.35 25.8 7.45 26.3 7.55 26.75 7.65 27.4 7.75 28.0 7.8 28.65 7.8 29.2 7.75 29.7 7.7 30.2 7.55 30.7 7.4 31.15 7.15 31.55 6.9 31.95 6.55 32.35 6.25 32.65 5.8 33.0 5.35 33.25 4.85 33.55 4.3 33.75 3.65 33.75 3.6 33.8 3.55 33.8 3.5 33.85 3.45 33.85 3.4 33.85 3.35 33.9 3.3 33.9 3.25 33.9 3.2 33.9 3.15 33.95 3.1 33.95 3.05 33.95 3.0 33.95 2.9 33.95 2.85 34.0 2.8 34.25 0.85 34.6 -1.65 37.2 -0.95 37.35 -0.9 38.25 -0.75 39.1 -0.65 39.95 -0.55 40.85 -0.45 41.7 -0.35 42.55 -0.3 43.45 -0.25 44.3 -0.2 45.2 -0.2 46.05 -0.2 46.95 -0.2 47.8 -0.25 48.7 -0.3 49.55 -0.4 50.45 -0.5 51.3 -0.6 51.95 -0.7 52.5 -0.8 53.1 -0.9 53.65 -1.05 54.25 -1.15 54.8 -1.35 55.4 -1.5 55.95 -1.7 56.5 -1.9 57.0 -2.15 57.55 -2.4 58.0 -2.7 58.5 -3.0 59.0 -3.35 59.45 -3.75 59.9 -4.15 60.85 -5.05 61.65 -6.0 62.45 -6.95 63.15 -7.9 63.85 -8.9 64.4 -9.95 64.95 -10.95 65.4 -12.05 65.85 -13.1 66.15 -14.25 66.5 -15.35 66.65 -16.55 66.85 -17.7 66.95 -18.9 67.0 -20.1 66.95 -21.4 66.95 -21.9 66.85 -22.4 66.8 -22.9 66.7 -23.35 66.6 -23.8 66.4 -24.25 66.25 -24.7 66.05 -25.15 65.85 -25.55 65.6 -25.95 65.3 -26.35 65.0 -26.75 64.7 -27.1 64.3 -27.45 63.95 -27.8 63.5 -28.15 63.25 -28.35 63.0 -28.55 62.7 -28.7 62.45 -28.9 62.2 -29.05 61.9 -29.2 61.6 -29.4 61.35 -29.5 61.05 -29.65 60.75 -29.8 60.45 -29.95 60.15 -30.05 59.85 -30.15 59.55 -30.25 59.25 -30.35 58.9 -30.45 58.1 -30.65 50.15 -32.7 50.5 -32.8 50.8 -32.85 51.1 -32.9 51.45 -32.95 51.75 -33.05 52.1 -33.1 52.45 -33.15 52.75 -33.15 53.1 -33.2 53.45 -33.25 53.8 -33.25 54.15 -33.25 54.5 -33.25 54.85 -33.25 55.2 -33.2 55.55 -33.2 57.9 -32.9 59.1 -32.85 59.25 -32.85 59.35 -32.85 59.5 -32.8 59.6 -32.8 59.75 -32.8 59.9 -32.8 60.0 -32.8 60.15 -32.8 60.3 -32.85 60.4 -32.85 60.5 -32.85 60.6 -32.9 60.75 -32.95 60.8 -33.0 60.9 -33.0 61.0 -33.1 61.15 -33.2 61.25 -33.35 61.4 -33.5 61.5 -33.65 61.65 -33.8 61.75 -33.95 61.85 -34.1 61.9 -34.25 62.0 -34.45 62.05 -34.6 62.1 -34.8 62.15 -34.95 62.15 -35.15 62.15 -35.35 62.15 -35.55 62.1 -35.75 62.05 -36.05 62.0 -36.3 61.9 -36.55 61.8 -36.8 61.7 -37.0 61.55 -37.2 61.4 -37.4 61.2 -37.55 61.05 -37.75 60.85 -37.85 60.65 -38.0 60.4 -38.15 60.15 -38.25 59.9 -38.35 59.6 -38.45 59.3 -38.5 58.8 -38.65 58.3 -38.75 57.8 -38.85 57.3 -38.95 56.8 -39.0 56.25 -39.05 55.75 -39.1 55.25 -39.15 54.75 -39.2 54.2 -39.2 53.7 -39.25 53.15 -39.25 52.7 -39.25 52.15 -39.25 51.65 -39.25 51.1 -39.25 51.1 -39.25 50.4 -39.4 50.55 -40.05 50.6 -40.15 50.7 -40.3 50.85 -40.45 50.95 -40.65 51.05 -40.8 51.1 -40.95 51.2 -41.15 51.25 -41.3 51.35 -41.5 51.4 -41.65 51.45 -41.85 51.45 -42.05 51.5 -42.25 51.5 -42.4 51.55 -42.6 51.55 -42.8 51.55 -43.0 51.55 -43.4 51.5 -43.8 51.4 -44.15 51.35 -44.5 51.25 -44.9 51.1 -45.2 50.95 -45.55 50.75 -45.85 50.6 -46.15 50.35 -46.4 50.1 -46.7 49.8 -46.95 49.5 -47.2 49.15 -47.4 48.8 -47.6 48.4 -47.8 48.0 -48.0 47.55 -48.15 47.15 -48.3 46.7 -48.4 46.3 -48.5 45.85 -48.55 45.4 -48.65 45.0 -48.65 44.55 -48.7 44.15 -48.7 43.7 -48.65 43.25 -48.65 42.85 -48.6 42.4 -48.55 41.95 -48.5 41.5 -48.4 40.3 -48.15 38.45 -47.75 35.65 -47.1 35.3 -47.05 35.3 -47.1 35.3 -47.65 35.3 -48.2 35.25 -48.65 35.25 -49.2 35.25 -49.7 35.2 -50.2 35.15 -50.7 35.1 -51.25 35.05 -51.75 35.0 -52.25 34.9 -52.75 34.8 -53.25 34.7 -53.75 34.6 -54.25 34.45 -54.75 34.35 -55.25 34.15 -55.75 34.0 -56.2 33.8 -56.6 33.65 -57.0 33.45 -57.4 33.2 -57.8 33.0 -58.15 32.75 -58.55 32.45 -58.9 32.2 -59.25 31.9 -59.55 31.55 -59.9 31.25 -60.2 30.9 -60.5 30.5 -60.75 30.15 -61.05 29.75 -61.3 29.2 -61.65 28.6 -61.95 28.05 -62.2 27.45 -62.4 26.85 -62.6 26.25 -62.75 25.7 -62.9 25.05 -62.95 24.45 -63.05 23.85 -63.05 23.25 -63.05 22.6 -63.0 22.0 -62.95 21.35 -62.85 20.7 -62.75 20.05 -62.6 19.15 -62.4 18.25 -62.1 17.4 -61.85 16.55 -61.5 15.7 -61.15 14.9 -60.8 14.1 -60.4 13.25 -60.0 12.5 -59.6 11.7 -59.1 10.95 -58.65 10.15 -58.15 9.45 -57.7 8.7 -57.15 7.95 -56.65 7.2 -56.1 6.9 -55.9 2.15 -52.8 2.15 -52.95 2.15 -53.3 2.2 -53.5 2.2 -53.6 2.3 -54.0 2.3 -54.35 2.35 -54.75 2.3 -55.05 2.25 -55.4 2.2 -55.75 2.1 -56.05 1.95 -56.35 1.8 -56.65 1.6 -56.9 1.4 -57.2 1.15 -57.45 0.85 -57.7 0.55 -57.9 0.25 -58.1 -0.15 -58.3 -0.45 -58.45 -0.75 -58.6 -1.1 -58.8 -1.4 -58.9 -1.7 -59.1 -2.0 -59.25 -2.35 -59.4 -2.65 -59.5 -2.95 -59.65 -3.25 -59.8 -3.6 -59.95 -3.9 -60.05 -4.25 -60.2 -4.55 -60.35 -4.9 -60.45 -5.2 -60.55 -5.7 -60.75 -6.15 -60.85 -6.65 -61.0 -7.1 -61.15 -7.6 -61.25 -8.1 -61.35 -8.6 -61.4 -9.05 -61.45 -9.55 -61.5 -10.05 -61.55 -10.55 -61.55 -11.05 -61.5 -11.55 -61.5 -12.05 -61.4 -12.55 -61.35 -13.05 -61.2 -13.85 -61.0 -14.55 -60.75 -15.3 -60.5 -15.95 -60.2 -16.6 -59.85 -17.15 -59.5 -17.75 -59.1 -18.25 -58.65 -18.8 -58.2 -19.2 -57.7 -19.65 -57.15 -20.0 -56.55 -20.35 -55.95 -20.6 -55.25 -20.9 -54.55 -21.05 -53.8 -21.1 -53.5 -21.2 -53.2 -21.3 -52.95 -21.4 -52.65 -21.45 -52.35 -21.6 -52.05 -21.7 -51.8 -21.8 -51.45 -21.9 -51.25 -22.0 -50.9 -25.3 -42.75 -22.25 -50.3 -22.4 -50.0 -22.5 -49.75 -22.6 -49.4 -22.7 -49.15 -24.15 -49.65 -24.15 -49.65 -24.8 -49.9 -26.8 -50.65 -28.45 -51.25 -29.5 -51.6 -30.55 -51.95 -30.9 -52.1 -31.7 -52.35 -32.35 -52.55 -33.1 -52.8 -33.8 -53.0 -34.55 -53.2 -35.2 -53.4 -36.0 -53.6 -36.7 -53.75 -37.45 -53.9 -38.15 -54.05 -38.9 -54.2 -39.65 -54.25 -40.45 -54.35 -41.2 -54.4 -42.25 -54.45 -43.25 -54.4 -44.25 -54.4 -45.25 -54.3 -46.2 -54.15 -47.15 -53.95 -48.1 -53.75 -48.95 -53.45 -49.9 -53.15 -50.75 -52.75 -51.6 -52.3 -52.4 -51.8 -53.2 -51.3 -53.95 -50.7 -54.75 -50.05 -55.45 -49.35 -55.85 -48.95 -56.15 -48.55 -56.45 -48.15 -56.75 -47.75 -57.0 -47.3 -57.2 -46.9 -57.4 -46.45 -57.5 -46.0 -57.65 -45.55 -57.7 -45.1 -57.75 -44.6 -57.75 -44.1 -57.7 -43.65 -57.6 -43.15 -57.5 -42.6 -57.35 -42.1 -57.2 -41.7 -57.05 -41.3 -56.9 -40.9 -56.75 -40.5 -56.55 -40.1 -56.4 -39.7 -56.2 -39.35 -56.0 -38.95 -55.8 -38.55 -55.6 -38.2 -55.4 -37.8 -55.15 -37.45 -54.95 -37.1 -54.7 -36.7 -54.45 -36.35 -54.2 -36.0 -54.1 -35.85 -53.65 -35.2 L-53.65 -35.2 M-35.8 29.8 Q-35.55 29.7 -35.15 29.5 -34.25 29.15 -33.4 28.75 -32.55 28.35 -31.75 27.85 -30.95 27.4 -30.2 26.9 -29.45 26.35 -28.75 25.8 -28.05 25.2 -27.35 24.6 -26.7 24.0 -26.1 23.3 -25.45 22.65 -24.9 21.9 -24.35 21.2 -23.8 20.45 -23.6 20.15 -23.45 19.9 -23.25 19.6 -23.1 19.3 -22.95 19.0 -22.85 18.7 -22.7 18.4 -22.6 18.05 -22.5 17.75 -22.45 17.45 -22.35 17.1 -22.3 16.8 -22.25 16.45 -22.25 16.15 -22.25 15.8 -22.25 15.45 -22.3 14.4 -22.7 9.65 -22.75 9.15 -22.8 8.65 -22.9 8.15 -23.0 7.65 -23.1 7.2 -23.25 6.7 -23.4 6.25 -23.55 5.75 -23.75 5.3 -23.95 4.85 -24.15 4.4 -24.4 3.95 -24.6 3.5 -24.9 3.05 -25.15 2.65 -25.45 2.2 -25.5 2.1 -25.95 1.6 -26.2 2.15 -26.25 2.25 -29.05 6.95 -29.5 7.55 -29.75 7.95 -30.05 8.25 -30.35 8.6 -30.7 8.9 -31.0 9.25 -31.35 9.5 -31.7 9.8 -32.1 10.05 -32.45 10.25 -32.85 10.5 -33.25 10.7 -33.7 10.85 -34.1 11.05 -34.55 11.15 -35.05 11.3 -35.5 11.4 -39.15 12.15 -40.35 12.2 -41.45 12.25 -42.45 12.25 -43.45 12.2 -44.3 12.05 -45.2 11.9 -46.0 11.65 -46.8 11.4 -47.5 11.05 -48.25 10.65 -48.85 10.2 -49.5 9.7 -50.05 9.1 -50.6 8.45 -51.1 7.7 -51.6 7.0 -52.05 6.1 -52.2 5.85 -53.75 2.5 -57.8 1.75 -59.25 1.5 -59.3 1.5 -59.35 1.5 -59.4 1.5 -59.5 1.5 -59.55 1.5 -59.6 1.55 -59.65 1.55 -59.7 1.55 -59.8 1.6 -59.85 1.6 -59.9 1.65 -59.95 1.65 -60.0 1.7 -60.05 1.75 -60.05 1.75 -60.1 1.8 -62.45 4.95 -63.0 5.95 -63.15 6.25 -63.3 6.55 -63.45 6.9 -63.55 7.2 -63.7 7.5 -63.75 7.85 -63.85 8.15 -63.9 8.5 -63.95 8.8 -63.95 9.15 -64.0 9.5 -63.95 9.8 -63.95 10.15 -63.9 10.5 -63.8 10.85 -63.7 11.2 -63.4 12.3 -62.95 13.35 -62.55 14.4 -62.0 15.35 -61.5 16.3 -60.85 17.15 -60.25 18.05 -59.5 18.85 -58.8 19.6 -57.95 20.3 -57.1 21.05 -56.2 21.65 -55.25 22.3 -54.2 22.8 -53.2 23.35 -52.05 23.85 -51.8 23.95 -49.75 24.95 -49.9 25.05 -50.25 25.3 -50.55 25.5 -50.65 25.6 -52.9 27.2 -53.45 27.7 -53.7 27.9 -53.9 28.15 -54.1 28.4 -54.25 28.7 -54.35 28.95 -54.45 29.25 -54.5 29.55 -54.55 29.85 -54.55 30.15 -54.55 30.45 -54.5 30.75 -54.4 31.05 -54.3 31.35 -54.15 31.6 -54.0 31.9 -53.8 32.15 -53.65 32.35 -53.5 32.5 -53.3 32.7 -53.15 32.85 -52.95 33.05 -52.75 33.2 -52.6 33.35 -52.4 33.5 -52.2 33.65 -52.0 33.8 -51.8 33.9 -51.55 34.05 -51.35 34.2 -51.15 34.3 -50.9 34.4 -50.65 34.5 -49.75 34.9 -47.65 35.9 -45.75 36.75 -44.75 37.25 -46.6 39.35 -47.1 39.95 -47.5 40.5 -48.35 42.3 -48.5 42.65 -48.65 43.05 -48.8 43.4 -48.9 43.75 -49.0 44.1 -49.1 44.5 -49.15 44.85 -49.2 45.2 -49.25 45.6 -49.25 45.95 -49.25 46.35 -49.2 46.7 -49.15 47.1 -49.1 47.5 -49.0 47.9 -48.85 48.25 -48.7 48.7 -48.55 49.05 -48.35 49.45 -48.15 49.8 -47.9 50.15 -47.65 50.45 -47.4 50.75 -47.1 51.0 -46.8 51.25 -46.45 51.45 -46.15 51.7 -45.75 51.85 -45.4 52.05 -44.95 52.2 -44.55 52.35 -44.1 52.45 -44.0 52.5 -43.9 52.5 -43.8 52.5 -43.65 52.5 -43.55 52.5 -43.45 52.5 -43.35 52.55 -43.2 52.5 -43.1 52.5 -43.0 52.5 -43.55 52.55 -42.75 52.5 -42.6 52.5 -42.5 52.5 -42.4 52.5 -42.3 52.5 -42.35 52.45 -42.4 52.4 -42.45 52.35 -42.5 52.3 -42.55 52.25 -42.6 52.2 -42.65 52.2 -42.7 52.15 -42.75 52.1 -42.8 52.1 -42.85 52.05 -42.9 52.05 -42.95 52.0 -43.05 52.0 -43.1 51.95 -43.15 51.95 -43.45 51.8 -43.7 51.65 -44.0 51.5 -44.2 51.3 -44.45 51.15 -44.7 50.95 -44.9 50.75 -45.1 50.55 -45.3 50.3 -45.45 50.1 -45.6 49.85 -45.75 49.6 -45.9 49.3 -46.0 49.05 -46.1 48.75 -46.15 48.45 -46.3 47.75 -46.25 47.05 -46.25 46.35 -46.05 45.7 -45.9 45.0 -45.55 44.35 -45.25 43.75 -44.8 43.15 -44.35 42.6 -43.8 42.1 -43.25 41.6 -42.6 41.25 -41.95 40.85 -41.25 40.6 -40.5 40.35 -39.75 40.25 -39.3 40.2 -38.85 40.1 -38.4 40.0 -38.0 39.9 -37.55 39.8 -37.1 39.7 -36.7 39.55 -36.3 39.4 -35.9 39.25 -35.45 39.05 -35.05 38.9 -34.65 38.7 -34.25 38.5 -33.9 38.3 -33.5 38.05 -33.1 37.85 -32.95 37.75 -32.85 37.65 -32.75 37.55 -32.65 37.45 -32.55 37.35 -32.45 37.25 -32.35 37.15 -32.3 37.0 -32.2 36.9 -32.15 36.75 -32.1 36.65 -32.1 36.5 -32.05 36.35 -32.0 36.25 -32.0 36.1 -32.0 35.95 -32.0 35.75 -32.0 35.5 -32.0 35.3 -32.05 35.1 -32.05 34.85 -32.1 34.65 -32.15 34.45 -32.25 34.25 -32.3 34.05 -32.4 33.85 -32.5 33.7 -32.6 33.5 -32.7 33.3 -32.8 33.15 -32.95 32.95 -33.1 32.8 -33.45 32.4 -35.8 29.8 L-35.8 29.8 M-70.9 1.6 Q-70.7 1.75 -70.45 2.0 -70.2 2.2 -70.05 2.3 -69.8 2.5 -69.5 2.6 -69.15 2.75 -68.85 2.85 -68.5 2.95 -68.15 3.0 -67.8 3.05 -67.45 3.05 -67.1 3.05 -66.8 3.0 -66.45 3.0 -66.2 2.9 -65.9 2.8 -65.65 2.7 -65.4 2.55 -65.2 2.35 -65.15 2.3 -63.15 -0.05 -63.7 -0.4 -64.7 -1.05 -65.0 -0.7 -65.3 -0.4 -65.6 -0.15 -65.95 0.1 -66.3 0.35 -66.65 0.55 -67.0 0.75 -67.4 0.95 -67.8 1.1 -68.2 1.2 -68.6 1.35 -69.05 1.4 -69.5 1.5 -69.95 1.55 -70.4 1.55 -70.9 1.6 L-70.9 1.6" fill="#000000" fill-rule="evenodd" stroke="none"/>
    <path d="M-2.55 -41.0 Q-1.9 -42.0 -1.2 -42.9 -0.5 -43.8 0.25 -44.55 1.05 -45.35 1.9 -46.05 2.75 -46.75 3.65 -47.35 4.55 -47.95 5.55 -48.45 6.5 -48.95 7.6 -49.35 8.65 -49.75 9.8 -50.0 10.9 -50.3 12.15 -50.45 12.4 -50.5 12.6 -50.5 12.8 -50.5 13.05 -50.45 13.25 -50.45 13.5 -50.4 13.7 -50.35 13.9 -50.3 14.1 -50.2 14.3 -50.1 14.5 -50.05 14.7 -49.9 14.9 -49.8 15.1 -49.7 15.3 -49.55 15.45 -49.4 15.9 -49.1 16.25 -48.75 16.65 -48.4 17.0 -48.0 17.35 -47.65 17.7 -47.25 18.0 -46.9 18.25 -46.45 18.55 -46.05 18.8 -45.6 19.05 -45.2 19.25 -44.7 19.45 -44.25 19.6 -43.8 19.75 -43.3 19.85 -42.8 19.85 -42.8 19.95 -42.5 20.0 -42.3 20.05 -42.15 20.35 -42.3 20.7 -42.4 21.0 -42.55 21.35 -42.65 21.65 -42.75 22.0 -42.8 22.3 -42.9 22.65 -42.95 23.0 -43.0 23.3 -43.05 23.65 -43.1 24.0 -43.15 24.35 -43.15 24.65 -43.2 25.0 -43.2 25.35 -43.2 25.45 -43.2 25.55 -43.2 25.65 -43.2 25.75 -43.2 25.85 -43.2 25.95 -43.2 26.1 -43.2 26.2 -43.15 26.3 -43.15 26.4 -43.15 26.5 -43.15 26.6 -43.15 26.7 -43.15 26.8 -43.1 26.9 -43.1 27.0 -43.1 27.35 -43.05 27.65 -42.95 27.95 -42.9 28.25 -42.8 28.5 -42.65 28.75 -42.5 29.0 -42.35 29.2 -42.2 29.4 -42.0 29.6 -41.8 29.75 -41.6 29.9 -41.35 30.05 -41.1 30.15 -40.8 30.25 -40.55 30.3 -40.25 30.4 -39.8 30.4 -39.35 30.45 -38.95 30.45 -38.5 30.4 -38.1 30.35 -37.7 30.3 -37.25 30.15 -36.85 30.05 -36.5 29.85 -36.1 29.65 -35.7 29.45 -35.35 29.2 -35.0 28.9 -34.65 28.65 -34.3 28.3 -34.0 28.2 -33.9 27.3 -33.3 28.45 -36.15 28.5 -36.35 28.7 -36.95 28.75 -37.55 28.75 -38.1 28.65 -38.6 28.55 -39.05 28.35 -39.5 28.15 -39.9 27.8 -40.25 27.5 -40.55 27.1 -40.85 26.7 -41.1 26.25 -41.3 25.8 -41.45 25.3 -41.6 24.8 -41.7 24.25 -41.7 23.95 -41.7 23.6 -41.7 23.3 -41.7 22.95 -41.65 22.65 -41.6 22.35 -41.55 22.05 -41.5 21.75 -41.4 21.45 -41.3 21.15 -41.2 20.9 -41.1 20.6 -40.95 20.3 -40.85 20.0 -40.7 19.75 -40.55 19.45 -40.4 19.25 -40.25 18.75 -39.95 18.3 -39.65 18.0 -39.5 17.95 -39.75 17.85 -40.15 17.7 -40.65 17.65 -40.85 17.55 -41.25 17.45 -41.6 17.3 -42.0 17.2 -42.35 17.05 -42.75 16.9 -43.1 16.7 -43.45 16.5 -43.8 16.35 -44.15 16.1 -44.45 15.9 -44.8 15.65 -45.1 15.4 -45.45 15.1 -45.75 14.85 -46.05 14.55 -46.35 14.3 -46.6 14.05 -46.8 13.8 -46.95 13.55 -47.1 13.25 -47.25 13.0 -47.35 12.75 -47.5 12.45 -47.55 12.2 -47.6 11.9 -47.65 11.6 -47.65 11.3 -47.65 11.05 -47.65 10.7 -47.6 10.4 -47.55 10.1 -47.5 9.35 -47.3 8.6 -47.1 7.85 -46.85 7.1 -46.6 6.4 -46.35 5.7 -46.05 4.95 -45.75 4.3 -45.45 3.6 -45.1 2.9 -44.75 2.25 -44.35 1.6 -43.95 0.95 -43.55 0.35 -43.1 -0.3 -42.65 -0.9 -42.2 -1.25 -41.9 -2.35 -41.05 -2.35 -41.05 -2.4 -41.05 -2.45 -41.05 -2.55 -41.0 L-2.55 -41.0" fill="#000000" fill-rule="evenodd" stroke="none"/>
  </g>
</svg>
