<?xml version="1.0" encoding="UTF-8" standalone="no"?>
<svg xmlns:xlink="http://www.w3.org/1999/xlink" height="17.1px" width="94.15px" xmlns="http://www.w3.org/2000/svg">
  <g transform="matrix(1.0, 0.0, 0.0, 1.0, 60.8, 16.15)">
    <path d="M4.95 -0.9 Q5.7 -0.4 6.3 0.1 6.85 0.65 7.25 1.15 7.65 1.65 7.85 2.15 8.05 2.7 8.1 3.2 8.15 3.7 8.0 4.25 7.85 4.75 7.55 5.3 7.2 5.8 6.7 6.35 6.2 6.85 5.55 7.4 5.45 7.5 5.35 7.5 5.25 7.55 5.2 7.6 5.1 7.6 5.0 7.6 4.9 7.6 4.85 7.55 4.75 7.55 4.7 7.45 4.6 7.4 4.5 7.3 4.45 7.25 4.35 7.1 4.3 7.0 4.25 6.85 3.95 6.2 3.7 5.6 3.5 5.0 3.35 4.4 3.2 3.85 3.15 3.3 3.1 2.8 3.15 2.3 3.2 1.85 3.35 1.4 3.45 0.95 3.7 0.55 3.9 0.15 4.2 -0.2 4.55 -0.6 4.95 -0.9 M18.75 -4.05 Q19.65 -3.6 20.4 -3.1 21.15 -2.55 21.75 -2.05 22.35 -1.5 22.8 -0.95 23.25 -0.35 23.55 0.2 23.85 0.8 23.95 1.45 24.1 2.05 24.1 2.75 24.1 3.4 23.95 4.1 23.75 4.75 23.45 5.5 23.4 5.6 23.35 5.65 23.3 5.75 23.25 5.8 23.2 5.85 23.15 5.85 23.05 5.9 23.0 5.9 22.9 5.9 22.85 5.85 22.75 5.85 22.65 5.8 22.55 5.8 22.45 5.7 22.35 5.65 22.2 5.6 21.3 4.95 20.55 4.3 19.8 3.65 19.25 3.0 18.7 2.4 18.3 1.75 17.9 1.15 17.7 0.55 17.5 -0.05 17.45 -0.65 17.4 -1.25 17.55 -1.8 17.65 -2.4 17.95 -2.95 18.3 -3.5 18.75 -4.05 M-43.4 -5.25 Q-42.9 -4.75 -42.6 -4.25 -42.25 -3.75 -42.1 -3.25 -41.95 -2.75 -41.95 -2.25 -41.95 -1.75 -42.15 -1.25 -42.3 -0.75 -42.65 -0.25 -43.0 0.25 -43.5 0.75 -44.0 1.25 -44.7 1.75 -45.35 2.25 -46.2 2.75 -46.65 3.0 -47.0 3.15 -47.35 3.35 -47.65 3.4 -47.95 3.5 -48.15 3.45 -48.4 3.45 -48.55 3.3 -48.7 3.2 -48.8 3.0 -48.9 2.8 -48.9 2.5 -48.9 2.2 -48.85 1.8 -48.8 1.45 -48.7 0.95 -48.55 0.4 -48.4 -0.15 -48.2 -0.65 -47.95 -1.15 -47.75 -1.6 -47.45 -2.05 -47.2 -2.45 -46.85 -2.85 -46.5 -3.25 -46.15 -3.6 -45.75 -3.95 -45.3 -4.25 -44.9 -4.55 -44.4 -4.8 -43.95 -5.05 -43.4 -5.25 M-16.5 -2.05 Q-15.8 -1.3 -15.25 -0.6 -14.7 0.15 -14.35 0.9 -14.0 1.65 -13.85 2.4 -13.65 3.15 -13.7 3.9 -13.7 4.65 -13.9 5.45 -14.1 6.2 -14.5 7.0 -14.85 7.75 -15.45 8.55 -16.0 9.3 -16.75 10.1 -17.0 10.35 -17.25 10.5 -17.45 10.7 -17.65 10.8 -17.9 10.9 -18.05 10.9 -18.25 10.95 -18.45 10.9 -18.6 10.85 -18.75 10.7 -18.95 10.6 -19.05 10.4 -19.2 10.2 -19.35 9.95 -19.45 9.7 -19.55 9.35 -19.85 8.45 -20.0 7.6 -20.15 6.8 -20.2 6.0 -20.25 5.2 -20.2 4.4 -20.1 3.65 -19.95 2.95 -19.75 2.25 -19.45 1.55 -19.1 0.9 -18.7 0.3 -18.25 -0.35 -17.7 -0.95 -17.2 -1.5 -16.5 -2.05" fill="#b75a5a" fill-rule="evenodd" stroke="none"/>
  </g>
</svg>
