<?xml version="1.0" encoding="UTF-8" standalone="no"?>
<svg xmlns:xlink="http://www.w3.org/1999/xlink" height="25.7px" width="111.05px" xmlns="http://www.w3.org/2000/svg">
  <g transform="matrix(1.0, 0.0, 0.0, 1.0, 65.0, 16.85)">
    <path d="M0.9 3.05 Q0.85 3.05 0.8 3.05 0.7 3.05 0.7 3.05 0.65 3.1 0.6 3.1 0.55 3.1 0.5 3.1 0.45 3.1 0.4 3.15 0.35 3.15 0.3 3.15 0.25 3.15 0.2 3.2 0.15 3.2 0.1 3.25 0.05 3.3 0.05 3.3 0.0 3.35 0.0 3.4 0.0 3.4 0.0 3.45 -0.05 3.5 -0.05 3.55 -0.05 3.6 -0.05 3.65 -0.05 3.7 -0.05 3.75 -0.05 3.8 -0.05 3.85 -0.05 3.9 -0.1 3.95 -0.3 4.7 -0.55 5.4 -0.8 6.1 -1.05 6.8 -1.3 7.5 -1.6 8.2 -1.9 8.9 -2.2 9.55 -2.55 10.25 -2.9 10.9 -3.25 11.55 -3.6 12.2 -4.0 12.85 -4.4 13.5 -4.85 14.1 -5.25 14.75 -6.7 16.65 -7.3 17.3 -7.35 17.35 -7.45 17.5 -7.5 17.55 -7.45 17.65 -7.45 17.7 -7.35 17.7 -7.15 17.7 -6.8 17.7 -6.3 17.7 -6.25 17.7 -6.1 17.7 -6.05 17.7 -6.0 17.75 -6.0 17.8 -5.95 17.85 -5.95 17.95 -5.95 18.25 -5.95 18.3 -6.0 18.3 -6.05 18.35 -6.1 18.35 -6.15 18.35 -6.2 18.35 -6.25 18.35 -6.3 18.35 -6.35 18.35 -6.4 18.4 -6.45 18.4 -6.5 18.4 -6.55 18.4 -6.5 18.4 -6.65 18.4 -6.7 18.4 -6.75 18.4 -7.8 18.4 -10.2 18.4 -12.45 18.45 -13.7 18.45 -14.55 18.45 -25.7 18.35 -25.75 18.35 -25.75 18.35 -25.7 18.35 -25.8 18.35 -25.85 18.35 -25.9 18.35 -25.9 18.35 -25.95 18.35 -26.0 18.35 -26.0 18.35 -26.05 18.35 -26.1 18.35 -26.1 18.35 -26.15 18.35 -26.2 18.3 -26.2 18.3 -26.15 18.15 -25.65 17.2 -25.4 16.75 -25.2 16.35 -25.0 15.9 -24.8 15.45 -24.6 15.0 -24.45 14.55 -24.25 14.1 -24.1 13.65 -23.95 13.2 -23.8 12.75 -23.65 12.3 -23.5 11.8 -23.4 11.35 -23.25 10.9 -23.15 10.4 -23.05 9.95 -23.0 9.65 -22.7 8.1 -22.7 8.0 -22.7 7.95 -22.65 7.9 -22.7 7.85 -22.7 7.85 -22.75 7.8 -22.8 7.8 -22.85 7.8 -22.9 7.8 -23.0 7.8 -23.2 7.85 -23.35 7.85 -23.4 7.85 -23.55 7.9 -23.6 7.85 -23.6 7.8 -23.65 7.8 -23.6 7.75 -23.65 7.8 -23.6 7.7 -23.6 7.65 -23.55 7.55 -23.55 7.5 -23.5 7.45 -23.5 7.4 -23.45 7.35 -23.45 7.35 -23.4 7.3 -23.35 7.25 -23.3 7.25 -23.25 7.2 -23.2 7.2 -23.15 7.15 -23.1 7.15 -23.0 7.15 -22.95 7.1 -22.05 6.95 -21.1 6.8 -20.2 6.65 -19.3 6.45 -18.4 6.3 -17.5 6.15 -16.55 6.0 -15.65 5.8 -14.75 5.65 -13.85 5.45 -12.95 5.3 -12.05 5.1 -11.15 4.95 -10.2 4.75 -9.3 4.55 -8.4 4.4 -1.05 2.85 1.9 2.1 3.15 1.8 4.35 1.45 5.6 1.1 6.8 0.75 8.0 0.4 9.2 0.05 10.4 -0.35 11.6 -0.75 12.8 -1.15 14.0 -1.55 15.2 -1.95 16.35 -2.4 17.55 -2.85 18.7 -3.35 19.9 -3.8 21.05 -4.3 21.45 -4.5 21.85 -4.65 22.25 -4.85 22.65 -5.05 23.05 -5.25 23.45 -5.4 23.85 -5.6 24.25 -5.8 24.65 -6.05 25.05 -6.25 25.45 -6.45 25.8 -6.65 26.2 -6.9 26.6 -7.1 27.0 -7.35 27.35 -7.55 27.4 -7.6 27.5 -7.65 27.55 -7.65 27.6 -7.7 27.65 -7.75 27.7 -7.8 27.8 -7.8 27.85 -7.85 27.9 -7.9 27.95 -7.95 28.0 -8.0 28.05 -8.05 28.15 -8.05 28.2 -8.1 28.25 -8.15 28.3 -8.2 28.35 -8.25 28.35 -8.25 28.4 -8.25 28.45 -8.3 28.45 -8.3 28.5 -8.3 28.55 -8.3 28.6 -8.3 28.6 -8.25 28.65 -8.25 28.7 -8.25 28.7 -8.2 28.75 -8.2 28.75 -8.15 28.75 -8.15 28.8 -8.1 28.8 -8.1 28.8 -8.05 28.8 -8.05 28.8 -8.0 28.8 -8.0 28.8 -7.95 28.8 -7.95 28.8 -7.9 28.8 -7.85 28.8 -7.85 28.75 -7.8 28.75 -7.75 28.75 -7.7 28.7 -7.7 28.7 -7.65 28.7 -7.6 28.7 -7.55 28.7 -7.5 28.7 -7.5 28.7 -7.45 28.7 -7.4 28.7 -7.35 28.75 -7.35 28.75 -7.3 28.75 -7.25 28.75 -7.2 29.0 -6.5 29.2 -5.85 29.45 -5.15 29.65 -4.45 29.9 -3.8 30.1 -3.1 30.3 -2.4 30.5 -1.7 30.7 -1.05 30.9 -0.35 31.1 0.35 31.25 1.05 31.45 1.75 31.6 2.45 31.8 3.15 31.95 3.85 32.45 6.0 33.0 8.95 33.05 9.0 33.15 9.0 34.2 8.75 33.3 8.95 33.35 8.95 33.35 8.95 33.4 8.95 33.45 8.95 33.45 8.95 33.5 8.95 33.55 8.95 33.55 8.95 33.6 9.0 33.6 9.0 33.65 9.0 33.65 9.05 33.65 9.05 33.7 9.1 33.7 9.1 33.7 9.15 33.7 9.15 33.7 9.2 33.75 9.2 33.75 9.25 33.75 9.25 33.75 9.3 33.7 9.3 33.7 9.35 33.7 9.35 33.7 9.4 33.7 9.4 33.65 9.45 33.65 9.45 33.6 9.5 33.6 9.5 33.55 9.55 33.3 9.7 33.1 9.8 32.65 10.0 32.25 10.25 31.85 10.45 31.4 10.65 31.0 10.85 30.55 11.05 30.15 11.25 29.7 11.45 29.3 11.65 28.85 11.85 28.45 12.05 28.0 12.2 27.55 12.4 27.15 12.6 26.7 12.75 26.25 12.9 25.65 13.15 25.05 13.35 24.45 13.55 23.85 13.8 23.25 14.0 22.65 14.2 22.05 14.4 21.45 14.6 20.85 14.75 20.25 14.95 19.6 15.15 19.0 15.3 18.4 15.5 17.8 15.65 17.15 15.85 16.55 16.0 16.2 16.1 16.15 16.1 16.05 16.05 16.05 16.05 16.0 16.0 16.0 15.95 16.0 15.95 16.0 15.9 16.0 15.85 16.0 15.8 16.0 15.7 16.0 15.7 16.0 15.65 16.0 15.65 16.0 15.6 16.0 15.55 16.05 15.5 16.05 15.45 16.1 15.45 16.15 15.4 16.2 15.4 16.25 15.35 16.3 15.35 16.3 15.3 16.35 15.3 16.35 15.25 16.35 15.2 16.35 15.15 16.35 15.1 16.35 15.05 16.35 15.05 16.35 15.0 16.25 11.3 16.2 10.55 16.05 8.5 15.9 7.5 15.85 7.0 15.75 6.55 15.65 6.1 15.55 5.65 15.45 5.15 15.35 4.7 15.2 4.25 15.1 3.8 14.95 3.35 14.8 2.95 14.6 2.5 14.45 2.05 14.25 1.65 14.05 1.2 13.85 0.75 13.65 0.35 13.6 0.3 13.6 0.25 13.55 0.2 13.55 0.15 13.5 0.1 13.5 0.05 13.45 0.0 13.45 -0.05 13.4 -0.1 13.4 -0.15 13.35 -0.2 13.35 -0.3 13.35 -0.35 13.3 -0.4 13.3 -0.45 13.3 -0.5 13.25 -0.55 13.2 -0.55 13.15 -0.55 13.15 -0.55 13.1 -0.55 13.05 -0.5 12.4 -0.3 12.3 -0.2 12.3 -0.2 12.15 0.55 12.1 0.9 12.0 1.25 11.95 1.6 11.85 1.95 11.8 2.35 11.7 2.7 11.65 3.05 11.55 3.4 11.5 3.75 11.4 4.1 11.3 4.45 11.2 4.8 11.1 5.15 11.05 5.5 10.95 5.85 10.85 6.2 10.7 6.65 10.6 7.1 10.45 7.55 10.3 8.0 10.15 8.45 10.0 8.85 9.85 9.3 9.75 9.75 9.55 10.2 9.4 10.6 9.25 11.05 9.1 11.5 8.95 11.95 8.75 12.35 8.6 12.8 8.45 13.25 8.35 13.45 8.3 13.65 8.2 13.85 8.1 14.05 8.0 14.25 7.9 14.45 7.85 14.65 7.75 14.8 7.65 15.0 7.55 15.2 7.45 15.4 7.35 15.6 7.25 15.8 7.15 16.0 7.05 16.15 6.95 16.35 6.65 16.85 6.65 16.95 6.7 17.0 6.7 17.0 6.75 17.05 6.8 17.05 6.85 17.05 6.9 17.05 6.95 17.05 7.0 17.05 7.0 17.05 7.05 17.05 7.1 17.1 7.1 17.1 7.1 17.15 7.1 17.2 7.1 17.2 7.1 17.25 7.1 17.45 7.1 17.6 6.5 17.8 2.35 18.05 -1.8 18.35 -2.75 18.25 -2.8 18.15 -2.75 18.1 -2.75 18.05 -2.7 17.95 -2.65 17.9 -2.6 17.85 -2.6 17.8 -2.55 17.75 -2.55 17.75 -2.55 17.7 -2.5 17.7 -2.45 17.65 -2.45 17.65 -2.4 17.65 -2.35 17.65 -2.3 17.6 -2.25 17.6 -2.2 17.6 -2.15 17.6 -2.1 17.6 -2.05 17.6 -2.0 17.6 -1.95 17.6 -1.9 17.6 -1.85 17.6 -1.8 17.6 -1.75 17.6 -1.7 17.6 -1.65 17.55 -1.65 17.55 -1.6 17.5 -1.55 17.45 -1.55 17.4 -1.4 16.75 -1.3 16.35 -1.25 15.9 -1.15 15.5 -1.1 15.1 -1.05 14.65 -1.0 14.25 -0.95 13.8 -0.9 13.4 -0.85 13.0 -0.85 12.55 -0.8 12.15 -0.8 11.7 -0.8 11.3 -0.75 10.85 -0.75 10.45 -0.8 10.0 -0.8 9.95 -0.8 9.9 -0.8 9.9 -0.8 9.85 -0.8 9.8 -0.8 9.75 -0.8 9.6 -0.8 9.4 -0.8 9.25 -0.8 9.05 -0.8 8.9 -0.75 8.75 -0.75 8.55 -0.7 8.4 -0.7 8.25 -0.65 8.05 -0.6 7.9 -0.55 7.75 -0.5 7.55 -0.45 7.4 -0.4 7.25 -0.3 7.1 0.25 5.75 0.9 3.65 0.9 3.55 0.95 3.4 1.0 3.2 1.0 3.2 1.0 3.15 1.05 3.15 1.05 3.1 1.05 3.1 1.0 3.05 1.0 3.05 0.95 3.05 0.9 3.05 L0.9 3.05 M25.7 12.35 Q25.75 12.35 26.3 12.2 26.35 12.2 26.4 12.15 26.45 12.15 26.5 12.15 26.55 12.1 26.55 12.1 26.6 12.05 26.65 12.0 26.65 12.0 26.7 11.95 26.7 11.9 26.75 11.85 26.75 11.85 26.75 11.75 26.75 11.7 26.75 11.65 26.75 11.6 26.85 11.15 26.9 10.85 27.0 10.55 27.05 10.3 27.1 10.0 27.15 9.7 27.2 9.4 27.25 9.1 27.3 8.8 27.35 8.5 27.4 8.25 27.4 7.95 27.45 7.65 27.45 7.35 27.45 7.05 27.5 6.75 27.5 6.45 27.5 5.3 27.5 3.25 27.5 2.8 27.5 2.4 27.45 1.95 27.45 1.5 27.4 1.1 27.4 0.65 27.35 0.2 27.3 -0.2 27.25 -0.65 27.2 -1.1 27.15 -1.5 27.1 -1.95 27.05 -2.4 26.95 -2.8 26.9 -3.25 26.8 -3.7 26.5 -5.25 26.25 -6.05 26.2 -6.05 26.15 -6.05 26.1 -6.05 26.05 -6.0 26.05 -6.0 26.0 -6.0 25.95 -6.0 25.9 -5.95 25.9 -5.95 25.85 -5.9 25.8 -5.9 25.8 -5.9 25.75 -5.85 25.7 -5.85 25.65 -5.8 25.65 -5.8 25.6 -5.8 25.55 -5.75 25.55 -5.7 25.55 -5.65 25.5 -5.65 25.5 -5.6 25.5 -5.55 25.55 -5.5 25.55 -5.4 25.6 -5.1 25.7 -4.6 25.8 -4.1 25.9 -3.6 26.0 -3.1 26.1 -2.6 26.2 -2.1 26.25 -1.6 26.3 -1.1 26.35 -0.6 26.4 -0.1 26.45 0.45 26.5 0.95 26.55 1.45 26.55 1.95 26.55 2.45 26.55 3.0 26.55 3.2 26.55 3.35 26.55 3.55 26.55 3.7 26.55 3.9 26.55 4.05 26.55 4.25 26.55 4.4 26.6 4.6 26.55 4.8 26.55 4.95 26.55 5.15 26.55 5.3 26.55 5.5 26.55 5.65 26.55 5.85 26.55 6.25 26.5 6.6 26.5 7.05 26.5 7.4 26.45 7.8 26.45 8.15 26.4 8.55 26.35 8.95 26.3 9.35 26.25 9.7 26.2 10.1 26.15 10.45 26.05 10.85 25.95 11.2 25.9 11.6 25.8 11.95 25.75 12.05 25.7 12.35 L25.7 12.35 M-21.5 17.75 Q-21.5 17.75 -21.5 17.75 -20.95 17.75 -20.9 17.75 -20.85 17.75 -20.8 17.75 -20.8 17.75 -20.75 17.7 -20.7 17.7 -20.7 17.7 -20.7 17.65 -20.65 17.6 -20.65 17.55 -20.6 17.5 -20.6 17.45 -20.55 17.4 -20.55 17.35 -20.5 17.3 -20.45 17.25 -20.45 17.25 -20.4 17.2 -20.35 17.15 -20.3 17.1 -20.25 17.1 -20.2 17.05 -20.15 17.0 -20.1 16.95 -20.1 16.95 -19.25 16.2 -19.05 16.0 -18.9 15.85 -18.65 15.45 -18.65 15.4 -18.65 15.4 -18.65 15.35 -18.65 15.3 -18.65 15.25 -18.65 15.2 -18.7 15.2 -18.7 15.15 -18.75 15.1 -18.75 15.1 -18.8 15.05 -18.85 15.05 -18.85 15.0 -18.9 15.0 -18.95 15.0 -19.0 14.95 -19.0 14.95 -19.05 14.95 -19.1 15.0 -19.1 15.0 -19.15 15.0 -19.2 15.05 -19.25 15.05 -19.3 15.1 -19.3 15.1 -19.35 15.15 -19.4 15.15 -19.4 15.2 -19.45 15.2 -19.45 15.25 -19.5 15.3 -19.5 15.3 -19.6 15.45 -19.75 15.55 -19.9 15.7 -20.0 15.85 -20.15 15.95 -20.3 16.1 -20.4 16.2 -20.55 16.35 -20.7 16.45 -20.85 16.6 -20.95 16.7 -21.1 16.8 -21.25 16.9 -21.4 17.05 -21.5 17.15 -21.65 17.3 -21.75 17.35 -22.0 17.5 -22.05 17.6 -22.05 17.6 -22.05 17.65 -22.05 17.7 -22.05 17.75 -21.95 17.75 -22.05 17.75 -21.85 17.75 -21.8 17.75 -21.65 17.75 -21.5 17.75 -21.5 17.75 L-21.5 17.75" fill="#c30202" fill-rule="evenodd" stroke="none"/>
    <path d="M-27.1 7.85 Q-27.1 7.9 -27.05 7.95 -27.05 7.95 -27.05 8.0 -27.05 8.05 -27.05 8.1 -27.0 8.1 -27.0 8.15 -27.0 8.2 -27.0 8.25 -27.0 8.3 -27.0 8.35 -27.0 8.35 -27.05 8.4 -27.05 8.4 -27.1 8.45 -27.1 8.45 -27.15 8.5 -27.2 8.5 -27.25 8.5 -27.25 8.5 -27.3 8.5 -27.95 8.6 -28.0 8.65 -28.0 8.65 -28.05 8.7 -28.05 8.75 -28.1 8.75 -28.1 8.8 -28.1 8.85 -28.1 8.9 -28.15 8.95 -28.15 8.95 -28.15 9.0 -28.2 9.1 -28.2 9.1 -28.2 9.15 -28.2 9.2 -28.2 9.25 -28.2 9.25 -28.35 9.65 -28.55 10.1 -28.7 10.5 -28.9 10.9 -29.05 11.3 -29.25 11.75 -29.45 12.15 -29.65 12.55 -29.85 12.95 -30.05 13.35 -30.25 13.7 -30.45 14.1 -30.7 14.5 -30.9 14.9 -31.15 15.25 -31.4 15.65 -31.6 15.95 -32.45 17.25 -32.45 17.3 -32.5 17.3 -32.5 17.35 -32.5 17.4 -32.5 17.4 -32.5 17.45 -32.5 17.5 -32.5 17.55 -32.5 17.55 -32.5 17.6 -32.5 17.65 -32.5 17.65 -32.45 17.7 -32.45 17.75 -32.45 17.8 -32.45 17.8 -32.45 17.85 -32.45 17.9 -32.5 17.95 -32.5 18.0 -32.5 18.0 -32.5 18.05 -32.5 18.1 -32.55 18.15 -32.55 18.15 -32.55 18.2 -33.8 18.2 -34.7 18.15 -37.75 18.0 -39.3 17.9 -40.8 17.85 -43.75 17.6 -44.15 17.55 -45.4 17.45 -46.45 17.35 -47.05 17.25 -47.35 17.2 -47.7 17.2 -48.0 17.15 -48.3 17.1 -48.65 17.05 -48.95 17.05 -49.3 17.0 -49.6 16.95 -49.9 16.9 -50.25 16.85 -50.55 16.8 -50.85 16.75 -51.2 16.7 -51.5 16.65 -51.8 16.6 -52.15 16.55 -55.0 16.1 -57.1 15.65 -58.85 15.35 -61.85 14.7 -62.2 14.65 -63.1 14.35 -63.15 14.35 -63.2 14.3 -63.2 14.25 -63.25 14.2 -63.25 14.2 -63.3 14.15 -63.3 14.1 -63.3 14.05 -63.3 14.0 -63.3 13.95 -63.3 13.9 -63.25 13.9 -63.25 13.85 -63.25 13.85 -63.2 13.8 -63.2 13.8 -63.15 13.8 -63.15 13.75 -63.1 13.75 -63.1 13.75 -63.05 13.7 -63.0 13.7 -63.0 13.7 -62.95 13.7 -62.9 13.7 -62.9 13.7 -62.85 13.7 -62.85 13.7 -62.8 13.75 -62.75 13.75 -62.75 13.75 -62.7 13.75 -62.65 13.8 -62.65 13.8 -62.6 13.8 -62.55 13.8 -62.55 13.8 -62.5 13.8 -62.45 13.8 -62.45 13.8 -62.4 13.8 -62.4 13.75 -62.4 13.75 -62.35 13.25 -62.3 12.9 -62.3 12.3 -62.3 12.25 -62.3 12.2 -62.3 12.2 -62.35 12.15 -62.35 12.15 -62.4 12.1 -62.45 12.1 -62.5 12.1 -62.65 12.1 -62.95 12.1 -63.25 12.1 -63.35 12.1 -63.75 12.05 -63.75 12.05 -63.8 12.05 -63.85 12.0 -63.85 12.0 -63.9 11.95 -63.9 11.95 -63.95 11.9 -63.95 11.85 -63.95 11.85 -63.95 11.8 -63.95 11.75 -63.95 11.7 -63.95 11.65 -63.95 11.65 -63.9 11.6 -63.9 11.55 -63.85 11.55 -63.85 11.5 -63.8 11.5 -63.75 11.45 -63.7 11.45 -63.7 11.45 -63.65 11.45 -63.6 11.4 -63.55 11.4 -63.5 11.4 -63.45 11.4 -63.4 11.4 -63.35 11.4 -62.8 11.4 -61.6 11.45 -60.45 11.45 -59.8 11.45 -59.45 11.45 -59.15 11.45 -58.8 11.45 -58.5 11.45 -58.15 11.5 -57.8 11.45 -57.5 11.45 -57.15 11.45 -56.85 11.45 -56.5 11.45 -56.15 11.4 -55.85 11.4 -55.5 11.4 -55.15 11.35 -54.85 11.35 -54.5 11.3 -51.2 11.1 -50.2 11.0 -49.35 10.9 -47.4 10.7 -46.75 10.6 -45.55 10.45 -44.25 10.3 -43.7 10.2 -41.8 9.95 -39.2 9.6 -36.45 9.2 -35.1 9.0 -33.8 8.8 -30.25 8.25 -29.5 8.15 -27.35 7.85 -27.3 7.85 -27.1 7.85 L-27.1 7.85 M-38.95 17.2 Q-38.9 16.9 -38.85 16.6 -38.75 16.3 -38.7 16.0 -38.65 15.75 -38.6 15.45 -38.55 15.15 -38.5 14.85 -38.45 14.55 -38.4 14.25 -38.35 13.95 -38.3 13.65 -38.25 13.35 -38.25 13.05 -38.2 12.75 -38.15 12.45 -38.1 12.0 -37.95 10.35 -37.95 10.3 -37.95 10.25 -37.95 10.2 -37.95 10.2 -38.0 10.15 -38.0 10.15 -38.05 10.1 -38.1 10.1 -38.1 10.1 -38.15 10.15 -38.75 10.2 -38.8 10.3 -38.85 10.6 -38.9 11.05 -38.9 11.35 -38.95 11.65 -39.0 11.95 -39.05 12.2 -39.1 12.5 -39.2 12.75 -39.25 13.05 -39.35 13.3 -39.45 13.55 -39.6 13.8 -39.7 14.1 -39.85 14.3 -40.0 14.55 -40.15 14.8 -40.3 15.05 -40.5 15.3 -40.75 15.6 -41.6 16.75 -41.7 16.9 -41.7 16.9 -41.75 16.95 -41.75 17.05 -41.7 17.1 -41.65 17.1 -41.65 17.1 -41.6 17.1 -41.5 17.1 -41.5 17.1 -41.4 17.1 -41.25 17.1 -41.15 17.15 -41.05 17.15 -40.9 17.15 -40.8 17.15 -40.7 17.15 -40.55 17.2 -40.45 17.2 -40.35 17.2 -40.2 17.2 -40.1 17.2 -40.0 17.2 -39.85 17.25 -39.75 17.25 -39.65 17.25 -39.1 17.25 -38.95 17.2 L-38.95 17.2 M-54.0 12.25 Q-54.0 12.2 -54.0 12.15 -54.0 12.1 -54.0 12.05 -54.0 12.0 -54.05 12.0 -54.05 12.0 -54.1 11.95 -54.15 11.95 -54.25 11.95 -54.3 11.95 -54.5 12.0 -54.6 12.0 -54.65 12.0 -54.7 12.0 -54.75 12.05 -54.8 12.05 -54.8 12.1 -54.85 12.15 -54.85 12.2 -54.85 12.25 -54.9 12.35 -55.2 14.05 -55.35 14.95 -55.35 15.0 -55.35 15.05 -55.4 15.1 -55.4 15.1 -55.4 15.15 -55.4 15.2 -55.4 15.2 -55.35 15.25 -55.35 15.25 -55.35 15.3 -55.3 15.3 -55.25 15.3 -55.25 15.35 -55.2 15.35 -55.15 15.35 -55.05 15.4 -55.0 15.4 -54.85 15.4 -54.7 15.4 -54.65 15.4 -54.6 15.4 -54.55 15.35 -54.55 15.3 -54.5 15.15 -54.45 14.7 -54.3 13.95 -54.15 13.25 -54.0 12.25 L-54.0 12.25" fill="#c40303" fill-rule="evenodd" stroke="none"/>
    <path d="M0.9 3.05 Q1.0 3.0 1.05 3.1 1.05 3.1 1.05 3.15 1.0 3.15 1.0 3.2 0.95 3.15 0.9 3.05 L0.9 3.05" fill="#ffffff" fill-rule="evenodd" stroke="none"/>
  </g>
</svg>
