<?xml version="1.0" encoding="UTF-8" standalone="no"?>
<svg xmlns:xlink="http://www.w3.org/1999/xlink" height="59.4px" width="113.3px" xmlns="http://www.w3.org/2000/svg">
  <g transform="matrix(1.0, 0.0, 0.0, 1.0, 68.1, 23.35)">
    <path d="M23.35 2.8 Q23.35 2.65 23.15 0.0 23.05 -1.95 22.95 -3.25 22.95 -3.45 22.9 -3.65 22.9 -3.85 22.85 -4.05 22.85 -4.25 22.8 -4.45 22.75 -4.65 22.7 -4.85 22.7 -5.05 22.65 -5.25 22.6 -5.45 22.55 -5.65 22.5 -5.85 22.45 -6.05 22.4 -6.25 22.35 -6.45 22.25 -6.75 22.2 -7.05 22.1 -7.35 22.0 -7.65 21.85 -7.95 21.75 -8.2 21.65 -8.5 21.5 -8.75 21.4 -9.05 21.25 -9.3 21.1 -9.6 20.95 -9.85 20.8 -10.15 20.6 -10.4 20.45 -10.65 20.25 -10.9 20.2 -10.95 20.1 -11.15 20.0 -11.3 19.95 -11.4 19.95 -11.45 19.95 -11.5 19.95 -11.5 20.0 -11.55 20.0 -11.6 20.05 -11.65 20.05 -11.65 20.1 -11.65 20.15 -11.65 20.2 -11.65 20.25 -11.65 20.25 -11.65 20.3 -11.6 20.45 -11.45 20.7 -11.15 20.95 -10.85 21.2 -10.55 21.4 -10.25 21.65 -9.95 21.85 -9.6 22.05 -9.3 22.25 -8.95 22.4 -8.65 22.6 -8.3 22.75 -7.95 22.9 -7.6 23.05 -7.25 23.2 -6.9 23.35 -6.55 23.45 -6.15 23.55 -5.9 23.6 -5.6 23.7 -5.3 23.8 -5.05 23.85 -4.75 23.9 -4.5 24.0 -4.2 24.05 -3.9 24.1 -3.65 24.15 -3.35 24.2 -3.05 24.25 -2.8 24.3 -2.5 24.35 -2.2 24.4 -1.9 24.4 -1.6 24.75 1.75 24.85 3.1 24.9 3.65 24.9 4.25 24.95 4.8 24.95 5.35 24.95 5.95 24.9 6.5 24.9 7.05 24.85 7.6 24.8 8.15 24.75 8.75 24.65 9.3 24.55 9.85 24.45 10.4 24.3 10.95 24.2 11.5 24.0 12.05 23.95 12.3 23.85 12.5 23.8 12.75 23.7 13.0 23.6 13.2 23.55 13.45 23.45 13.65 23.35 13.9 23.25 14.1 23.15 14.35 23.05 14.55 22.95 14.8 22.85 15.0 22.7 15.2 22.6 15.45 22.5 15.65 22.35 15.95 22.15 16.25 21.95 16.55 21.8 16.85 21.6 17.15 21.4 17.45 21.25 17.7 21.05 18.0 20.85 18.3 20.65 18.55 20.45 18.85 20.2 19.15 20.05 19.4 19.8 19.7 19.6 19.95 19.4 20.25 18.9 20.9 17.75 22.4 17.7 22.4 17.65 22.5 17.65 22.55 17.6 22.55 17.55 22.55 17.5 22.6 17.45 22.6 17.45 22.6 17.4 22.6 17.35 22.6 17.35 22.6 17.3 22.55 17.3 22.5 17.25 22.45 17.25 22.4 17.25 22.35 17.25 22.3 17.25 22.3 17.3 22.25 17.3 22.25 17.3 22.2 17.3 22.2 17.35 22.15 17.35 22.1 17.35 22.1 17.4 22.05 17.4 22.05 17.4 22.0 17.45 22.0 17.45 21.95 17.45 21.9 17.5 21.9 17.9 21.2 18.5 20.25 18.7 19.95 18.9 19.65 19.05 19.35 19.25 19.05 19.45 18.75 19.6 18.45 19.8 18.15 19.95 17.85 20.15 17.5 20.3 17.2 20.5 16.9 20.65 16.6 20.8 16.3 20.95 15.95 21.15 15.65 21.3 15.35 21.5 14.9 21.7 14.45 21.9 14.0 22.05 13.55 22.2 13.1 22.35 12.65 22.5 12.2 22.6 11.7 22.75 11.25 22.85 10.8 22.9 10.3 23.0 9.85 23.1 9.35 23.15 8.9 23.2 8.4 23.25 7.9 23.4 6.4 23.35 2.8 L23.35 2.8" fill="#000000" fill-rule="evenodd" stroke="none"/>
    <path d="M9.95 -2.95 Q9.95 -2.45 9.9 -1.95 9.9 -1.5 9.85 -1.05 9.8 -0.55 9.75 -0.1 9.7 0.35 9.6 0.8 9.55 1.25 9.45 1.65 9.4 2.1 9.3 2.5 9.2 2.95 9.05 3.35 8.95 3.8 8.85 4.2 8.55 5.1 8.3 5.9 8.0 6.8 7.7 7.6 7.4 8.5 7.1 9.3 6.8 10.15 6.45 11.0 6.1 11.8 5.75 12.65 5.4 13.5 5.05 14.3 4.65 15.1 4.3 15.9 3.9 16.75 3.5 17.5 3.3 17.9 3.05 18.3 2.85 18.7 2.6 19.1 2.35 19.45 2.1 19.85 1.8 20.2 1.55 20.55 1.25 20.9 0.95 21.25 0.7 21.6 0.35 21.9 0.05 22.25 -0.25 22.55 -0.6 22.85 -0.9 23.15 -1.1 23.3 -2.1 24.1 -2.15 24.15 -2.2 24.15 -2.25 24.2 -2.25 24.2 -2.3 24.2 -2.35 24.2 -2.4 24.2 -2.45 24.2 -2.5 24.15 -2.5 24.15 -2.55 24.1 -2.55 24.05 -2.6 24.0 -2.55 23.95 -2.55 23.9 -2.5 23.9 -2.45 23.85 -2.45 23.8 -2.4 23.75 -2.4 23.75 -2.35 23.7 -2.3 23.65 -2.1 23.45 -1.9 23.3 -1.7 23.1 -1.55 22.9 -1.35 22.7 -1.2 22.5 -1.0 22.3 -0.85 22.1 -0.65 21.85 -0.5 21.65 -0.35 21.45 -0.15 21.25 0.0 21.0 0.15 20.8 0.3 20.6 0.5 20.35 0.6 20.2 0.7 20.1 0.75 19.95 0.85 19.8 0.95 19.7 1.0 19.55 1.1 19.4 1.2 19.25 1.25 19.1 1.35 19.0 1.4 18.85 1.5 18.7 1.55 18.55 1.65 18.4 1.7 18.25 1.75 18.1 3.4 14.5 5.25 9.7 6.9 5.45 7.8 3.1 7.95 2.75 8.05 2.4 8.15 2.05 8.3 1.7 8.4 1.35 8.5 1.0 8.6 0.65 8.65 0.3 8.75 -0.05 8.8 -0.4 8.9 -0.75 8.95 -1.15 9.0 -1.5 9.1 -1.85 9.15 -2.2 9.2 -2.6 9.25 -3.05 9.25 -3.8 9.25 -4.95 9.25 -5.0 9.3 -5.55 9.3 -5.55 9.3 -5.6 9.3 -5.65 9.35 -5.65 9.4 -5.7 9.45 -5.7 9.45 -5.7 9.5 -5.7 9.55 -5.7 9.55 -5.7 9.6 -5.65 9.65 -5.65 9.65 -5.6 9.65 -5.6 9.7 -5.55 9.7 -5.5 9.7 -5.45 9.7 -5.45 9.7 -5.4 9.8 -4.5 9.95 -2.95 L9.95 -2.95" fill="#000000" fill-rule="evenodd" stroke="none"/>
    <path d="M-54.95 25.15 Q-54.7 22.8 -54.55 21.7 -54.45 20.9 -54.3 20.05 -54.15 19.25 -54.0 18.4 -53.8 17.6 -53.65 16.8 -53.45 16.0 -53.25 15.15 -53.05 14.35 -52.85 13.55 -52.6 12.75 -52.4 11.95 -52.15 11.15 -51.9 10.35 -51.65 9.55 -51.4 8.75 -51.1 7.95 -50.8 7.1 -50.5 6.3 -50.2 5.45 -49.9 4.65 -49.55 3.85 -49.25 3.0 -48.9 2.2 -48.55 1.4 -48.2 0.6 -47.85 -0.2 -47.45 -1.0 -47.1 -1.8 -46.7 -2.6 -46.35 -3.4 -45.95 -4.15 -45.9 -4.2 -45.9 -4.25 -45.85 -4.3 -45.85 -4.35 -45.8 -4.4 -45.8 -4.5 -45.75 -4.55 -45.75 -4.6 -45.7 -4.65 -45.7 -4.7 -45.65 -4.75 -45.65 -4.8 -45.6 -4.85 -45.55 -4.9 -45.55 -4.95 -45.5 -5.0 -45.5 -5.05 -45.45 -5.05 -45.45 -5.1 -45.4 -5.15 -45.4 -5.15 -45.35 -5.2 -45.35 -5.2 -45.3 -5.25 -45.3 -5.25 -45.2 -5.25 -45.15 -5.25 -45.15 -5.25 -45.1 -5.25 -45.05 -5.2 -45.05 -5.15 -45.05 -5.1 -45.05 -5.05 -45.05 -5.0 -45.05 -5.0 -45.05 -4.95 -45.05 -4.9 -45.1 -4.85 -46.7 -0.75 -49.8 8.95 -52.5 17.4 -53.45 21.05 -53.65 21.85 -53.95 23.1 -54.4 25.0 -54.45 25.2 -54.55 25.5 -54.6 25.55 -54.6 25.6 -54.65 25.6 -54.7 25.65 -54.75 25.65 -54.8 25.65 -54.85 25.6 -54.9 25.55 -54.9 25.5 -54.95 25.45 -54.95 25.15 L-54.95 25.15" fill="#000000" fill-rule="evenodd" stroke="none"/>
    <path d="M-61.4 21.85 Q-61.4 21.4 -61.4 20.95 -61.35 20.5 -61.35 20.05 -61.35 19.6 -61.3 19.15 -61.3 18.7 -61.25 18.25 -61.2 17.8 -61.15 17.35 -61.15 16.9 -61.1 16.45 -61.05 16.0 -61.0 15.55 -60.95 15.05 -60.85 14.65 -60.35 10.6 -60.05 8.55 -60.0 8.25 -59.95 7.95 -59.9 7.65 -59.85 7.35 -59.75 7.05 -59.7 6.75 -59.65 6.45 -59.6 6.15 -59.5 5.85 -59.45 5.6 -59.4 5.3 -59.3 5.0 -59.25 4.7 -59.15 4.4 -59.05 4.1 -59.0 3.8 -58.8 3.35 -58.75 3.25 -58.75 3.25 -58.7 3.25 -58.65 3.2 -58.6 3.2 -58.55 3.2 -58.55 3.2 -58.5 3.2 -58.5 3.25 -58.45 3.25 -58.45 3.3 -58.4 3.35 -58.4 3.35 -58.45 3.6 -58.45 3.75 -58.5 4.0 -58.55 4.3 -58.6 4.55 -58.65 4.85 -58.7 5.1 -58.75 5.4 -58.75 5.65 -58.8 5.9 -58.85 6.2 -58.85 6.45 -58.9 6.75 -58.9 7.0 -58.95 7.3 -58.95 7.55 -59.0 7.8 -59.0 8.1 -59.1 9.6 -59.4 14.6 -59.75 19.7 -59.9 22.4 -60.0 24.65 -59.95 30.25 -59.95 30.5 -59.95 30.7 -59.95 30.95 -59.95 31.15 -59.95 31.4 -59.9 31.65 -59.9 31.85 -59.9 32.1 -59.9 32.3 -59.85 32.55 -59.85 32.75 -59.8 33.0 -59.8 33.25 -59.75 33.45 -59.7 33.7 -59.7 33.9 -59.65 34.15 -59.65 34.7 -59.65 34.75 -59.65 34.8 -59.65 34.85 -59.65 34.85 -59.7 34.9 -59.7 34.9 -59.75 34.95 -59.8 34.95 -59.85 34.95 -59.85 34.95 -59.9 34.95 -59.9 34.95 -59.95 34.95 -59.95 34.9 -60.0 34.85 -60.0 34.85 -60.05 34.8 -60.05 34.75 -60.05 34.7 -60.05 34.65 -60.1 34.6 -60.1 34.6 -60.2 34.25 -60.3 33.85 -60.4 33.5 -60.45 33.15 -60.55 32.75 -60.6 32.4 -60.7 32.0 -60.75 31.65 -60.8 31.3 -60.85 30.9 -60.9 30.55 -60.95 30.15 -61.0 29.8 -61.05 29.4 -61.1 29.0 -61.1 28.65 -61.35 26.1 -61.35 25.2 -61.4 24.7 -61.4 21.85 L-61.4 21.85" fill="#000000" fill-rule="evenodd" stroke="none"/>
    <path d="M-2.95 -0.6 Q-3.25 0.95 -3.45 1.8 -3.55 2.25 -3.65 2.7 -3.8 3.2 -3.9 3.65 -4.05 4.1 -4.15 4.55 -4.3 5.0 -4.4 5.45 -4.55 5.9 -4.7 6.35 -4.85 6.8 -5.0 7.25 -5.2 7.7 -5.35 8.15 -5.5 8.6 -5.7 9.0 -5.9 9.55 -6.15 10.1 -6.4 10.65 -6.7 11.15 -6.95 11.7 -7.25 12.2 -7.55 12.7 -7.85 13.2 -8.15 13.65 -8.5 14.15 -8.85 14.65 -9.2 15.1 -9.55 15.55 -9.95 16.0 -10.35 16.45 -10.75 16.9 -11.2 17.35 -11.65 17.8 -12.1 18.3 -12.55 18.7 -13.05 19.15 -13.5 19.6 -14.0 20.0 -14.5 20.4 -15.0 20.8 -15.5 21.2 -16.0 21.6 -16.55 21.95 -17.05 22.35 -17.6 22.7 -18.15 23.05 -18.7 23.4 -18.75 23.4 -18.75 23.45 -18.8 23.45 -18.85 23.5 -18.85 23.5 -18.9 23.55 -18.95 23.55 -19.0 23.55 -19.0 23.6 -19.05 23.6 -19.1 23.65 -19.15 23.65 -19.15 23.65 -19.2 23.7 -19.25 23.7 -19.3 23.7 -19.3 23.7 -19.35 23.7 -19.4 23.7 -19.45 23.7 -19.5 23.65 -19.5 23.65 -19.5 23.6 -19.55 23.55 -19.55 23.55 -19.55 23.5 -19.55 23.45 -19.5 23.4 -19.4 23.3 -19.15 23.1 -18.75 22.75 -18.3 22.4 -17.9 22.05 -17.5 21.7 -17.1 21.35 -16.7 20.95 -16.3 20.6 -15.9 20.2 -15.5 19.85 -15.15 19.45 -14.75 19.05 -14.35 18.65 -14.0 18.3 -13.6 17.85 -13.25 17.5 -12.9 17.05 -12.35 16.5 -11.85 15.9 -11.4 15.3 -10.9 14.7 -10.45 14.1 -10.0 13.5 -9.55 12.85 -9.1 12.25 -8.7 11.6 -8.3 10.95 -7.95 10.3 -7.55 9.6 -7.2 8.95 -6.85 8.25 -6.55 7.55 -6.2 6.85 -6.05 6.45 -5.9 6.1 -5.75 5.75 -5.6 5.35 -5.45 5.0 -5.3 4.6 -5.15 4.25 -5.0 3.85 -4.85 3.5 -4.7 3.1 -4.55 2.75 -4.4 2.35 -4.25 2.0 -4.15 1.6 -4.0 1.2 -3.85 0.85 -3.75 0.6 -3.65 0.1 -3.5 -0.4 -3.45 -0.65 -3.4 -0.7 -3.4 -0.8 -3.35 -0.9 -3.3 -0.95 -3.25 -1.05 -3.15 -1.05 -3.1 -1.0 -3.1 -1.0 -3.05 -0.95 -3.0 -0.95 -3.0 -0.9 -2.95 -0.9 -2.95 -0.85 -2.95 -0.8 -2.95 -0.7 -2.95 -0.6 L-2.95 -0.6" fill="#000000" fill-rule="evenodd" stroke="none"/>
    <path d="M-28.8 3.15 Q-28.85 3.3 -28.95 4.1 -29.05 4.7 -29.15 5.1 -29.3 5.75 -29.45 6.35 -29.6 7.0 -29.75 7.6 -29.9 8.25 -30.1 8.85 -30.3 9.5 -30.5 10.1 -30.7 10.7 -30.9 11.3 -31.1 11.95 -31.35 12.55 -31.6 13.15 -31.85 13.75 -32.1 14.35 -32.4 14.9 -32.5 15.15 -32.65 15.4 -32.8 15.7 -32.9 15.95 -33.05 16.2 -33.2 16.45 -33.35 16.7 -33.45 16.95 -33.6 17.2 -33.75 17.45 -33.9 17.65 -34.1 17.9 -34.25 18.15 -34.4 18.4 -34.55 18.6 -34.75 18.85 -35.0 19.2 -35.2 19.45 -35.45 19.8 -35.65 20.1 -35.9 20.4 -36.1 20.7 -36.35 21.0 -36.6 21.3 -36.8 21.6 -37.05 21.9 -37.3 22.2 -37.55 22.45 -37.8 22.75 -38.1 23.05 -38.35 23.3 -38.6 23.6 -38.65 23.65 -38.8 23.75 -38.9 23.85 -38.95 23.9 -39.0 23.9 -39.05 23.9 -39.1 23.9 -39.15 23.9 -39.2 23.85 -39.2 23.8 -39.2 23.75 -39.25 23.75 -39.25 23.7 -39.25 23.65 -39.25 23.6 -39.2 23.6 -39.2 23.55 -39.2 23.55 -39.15 23.5 -39.15 23.5 -39.15 23.45 -39.1 23.4 -39.1 23.4 -39.1 23.35 -39.05 23.35 -39.05 23.3 -39.05 23.3 -39.0 23.25 -39.0 23.25 -39.0 23.2 -38.7 22.75 -38.4 22.3 -38.1 21.85 -37.8 21.35 -37.5 20.9 -37.2 20.45 -36.9 19.95 -36.65 19.5 -36.35 19.05 -36.1 18.55 -35.8 18.05 -35.55 17.6 -35.3 17.1 -35.05 16.6 -34.8 16.15 -34.5 15.65 -33.55 13.8 -31.4 8.75 -30.1 5.7 -29.5 3.75 -29.45 3.6 -29.25 2.95 -29.25 2.9 -29.2 2.85 -29.2 2.8 -29.15 2.8 -29.15 2.75 -29.1 2.75 -29.05 2.7 -29.05 2.7 -29.0 2.7 -29.0 2.75 -28.95 2.75 -28.95 2.8 -28.9 2.8 -28.9 2.85 -28.85 2.9 -28.85 2.9 -28.8 3.0 -28.8 3.0 -28.8 2.95 -28.8 3.05 -28.8 3.1 -28.8 3.15 L-28.8 3.15" fill="#000000" fill-rule="evenodd" stroke="none"/>
    <path d="M-16.75 5.85 Q-17.1 7.7 -17.2 8.0 -17.3 8.4 -17.45 8.75 -17.55 9.1 -17.7 9.5 -17.8 9.85 -17.95 10.2 -18.1 10.55 -18.25 10.9 -18.4 11.3 -18.55 11.65 -18.75 12.0 -18.9 12.35 -19.1 12.7 -19.3 13.0 -19.45 13.35 -19.7 13.7 -19.95 14.1 -20.2 14.45 -20.45 14.8 -20.75 15.15 -21.0 15.5 -21.3 15.85 -21.6 16.15 -21.95 16.45 -22.25 16.75 -22.6 17.05 -22.9 17.3 -23.3 17.6 -23.65 17.85 -24.0 18.1 -24.35 18.35 -24.75 18.6 -24.8 18.65 -24.85 18.65 -24.85 18.65 -24.9 18.7 -24.95 18.7 -25.0 18.7 -25.05 18.75 -25.1 18.75 -25.15 18.75 -25.2 18.75 -25.2 18.75 -25.25 18.75 -25.3 18.75 -25.35 18.7 -25.35 18.65 -25.35 18.65 -25.4 18.6 -25.4 18.55 -25.35 18.55 -25.35 18.5 -25.35 18.45 -25.3 18.4 -25.25 18.4 -25.25 18.35 -25.2 18.3 -25.15 18.25 -24.85 17.95 -24.55 17.6 -24.25 17.3 -23.95 16.95 -23.65 16.6 -23.4 16.25 -23.1 15.95 -22.85 15.6 -22.6 15.25 -22.3 14.85 -22.05 14.5 -21.8 14.15 -21.6 13.8 -21.35 13.4 -21.1 13.05 -20.9 12.65 -20.35 11.7 -18.35 8.25 -18.25 8.1 -18.2 7.95 -18.1 7.85 -18.05 7.7 -18.0 7.55 -17.9 7.4 -17.85 7.25 -17.75 7.1 -17.7 6.95 -17.65 6.8 -17.6 6.65 -17.5 6.5 -17.45 6.35 -17.4 6.2 -17.35 6.05 -17.3 5.9 -17.2 5.6 -17.2 5.6 -17.2 5.55 -17.15 5.55 -17.1 5.5 -17.1 5.45 -17.05 5.45 -17.0 5.4 -17.0 5.4 -16.95 5.4 -16.9 5.4 -16.9 5.4 -16.85 5.4 -16.85 5.45 -16.8 5.45 -16.8 5.5 -16.8 5.55 -16.8 5.6 -16.75 5.65 -16.75 5.7 -16.75 5.7 -16.75 5.75 -16.75 5.8 -16.8 5.8 -16.75 5.85 -16.75 5.85 L-16.75 5.85" fill="#000000" fill-rule="evenodd" stroke="none"/>
  </g>
</svg>
