<?xml version="1.0" encoding="UTF-8" standalone="no"?>
<svg xmlns:xlink="http://www.w3.org/1999/xlink" height="200.0px" width="200.0px" xmlns="http://www.w3.org/2000/svg">
  <g transform="matrix(1.0, 0.0, 0.0, 1.0, 100.0, 100.0)">
    <path d="M76.75 -1.75 Q76.5 -1.9 74.95 -2.85 70.7 -5.45 68.95 -6.7 68.6 -6.95 68.3 -7.2 67.95 -7.45 67.6 -7.7 67.3 -7.95 66.95 -8.2 66.65 -8.45 66.35 -8.7 66.0 -8.95 65.7 -9.2 65.35 -9.45 65.05 -9.75 64.75 -10.0 64.45 -10.3 64.1 -10.55 63.8 -10.8 63.75 -10.85 63.7 -10.9 63.65 -10.95 63.65 -11.0 63.6 -11.0 63.55 -11.05 63.55 -11.1 63.5 -11.15 63.5 -11.2 63.45 -11.25 63.45 -11.3 63.4 -11.35 63.4 -11.4 63.4 -11.45 63.35 -11.55 63.35 -11.6 63.35 -11.85 63.1 -12.7 63.1 -12.75 63.05 -12.8 63.05 -12.85 63.05 -12.9 63.05 -12.95 63.05 -13.0 63.05 -13.05 63.05 -13.1 63.1 -13.2 63.1 -13.3 63.1 -13.35 63.15 -13.45 63.15 -13.55 63.15 -13.65 63.15 -13.7 63.15 -13.8 63.1 -13.9 63.1 -14.0 63.1 -14.05 63.05 -14.15 63.05 -14.25 63.0 -14.35 63.0 -14.4 62.95 -14.5 62.85 -14.75 61.95 -17.2 61.65 -17.95 61.35 -18.7 61.05 -19.45 60.75 -20.15 60.45 -20.9 60.1 -21.65 59.8 -22.4 59.45 -23.1 59.1 -23.85 58.75 -24.55 58.4 -25.3 58.05 -26.0 57.65 -26.7 57.3 -27.4 56.9 -28.1 56.5 -28.8 56.4 -29.05 56.3 -29.2 56.3 -29.25 56.25 -29.25 56.25 -29.3 56.25 -29.3 56.2 -29.35 56.2 -29.35 56.2 -29.4 56.2 -29.4 56.2 -29.45 56.2 -29.45 56.2 -29.5 56.25 -29.5 56.25 -29.55 56.25 -29.55 56.3 -29.6 56.3 -29.6 56.35 -29.65 56.35 -29.65 56.4 -29.7 56.4 -29.75 56.45 -29.8 56.45 -29.8 56.45 -29.85 56.45 -29.9 56.5 -29.95 56.5 -29.95 56.5 -30.05 56.5 -30.1 56.5 -30.15 56.5 -30.2 56.5 -30.3 56.5 -30.35 56.5 -30.4 56.5 -30.45 56.5 -30.55 56.45 -30.6 56.45 -30.65 56.45 -30.7 56.4 -30.75 56.4 -30.85 56.35 -30.9 56.35 -30.95 56.25 -31.1 56.05 -31.45 55.85 -31.75 55.75 -31.9 55.45 -32.35 55.15 -32.8 54.85 -33.25 54.55 -33.65 54.25 -34.1 53.9 -34.55 53.6 -34.95 53.3 -35.4 52.95 -35.8 52.65 -36.25 52.3 -36.65 52.0 -37.1 51.65 -37.5 51.3 -37.9 51.0 -38.3 50.65 -38.75 50.3 -39.15 50.0 -39.5 49.7 -39.9 49.4 -40.3 49.05 -40.7 48.75 -41.05 48.45 -41.45 48.15 -41.85 47.85 -42.25 47.55 -42.65 47.25 -43.05 47.0 -43.45 46.7 -43.9 46.4 -44.3 46.15 -44.7 45.85 -45.15 45.3 -46.0 43.1 -49.6 42.8 -50.05 42.5 -50.5 42.2 -50.95 41.9 -51.4 41.6 -51.85 41.3 -52.25 40.95 -52.7 40.6 -53.1 40.25 -53.5 39.9 -53.9 39.55 -54.3 39.15 -54.65 38.75 -55.05 38.35 -55.4 37.95 -55.75 37.55 -56.1 37.3 -56.3 37.05 -56.5 36.75 -56.7 36.5 -56.9 36.25 -57.05 35.95 -57.25 35.7 -57.45 35.45 -57.6 35.15 -57.75 34.9 -57.95 34.6 -58.1 34.3 -58.25 34.0 -58.4 33.75 -58.55 33.45 -58.7 33.15 -58.8 32.9 -58.9 32.6 -59.05 32.35 -59.15 32.1 -59.25 31.8 -59.35 31.55 -59.45 31.3 -59.55 31.0 -59.65 30.75 -59.7 30.45 -59.8 30.2 -59.9 29.9 -59.95 29.65 -60.05 29.35 -60.1 29.1 -60.2 28.8 -60.25 28.55 -60.3 28.3 -60.4 28.05 -60.45 27.8 -60.5 27.55 -60.55 27.25 -60.55 27.0 -60.6 26.75 -60.6 26.5 -60.65 26.25 -60.65 26.0 -60.7 25.75 -60.7 25.5 -60.7 25.2 -60.7 24.95 -60.7 24.7 -60.7 24.6 -60.7 21.2 -60.2 19.0 -59.9 18.25 -59.95 18.0 -60.0 17.75 -60.0 17.5 -60.05 17.25 -60.1 17.0 -60.15 16.75 -60.2 16.5 -60.25 16.25 -60.3 16.0 -60.4 15.75 -60.45 15.5 -60.55 15.3 -60.6 15.05 -60.7 14.8 -60.8 14.55 -60.9 14.35 -61.0 14.05 -61.15 13.55 -61.4 12.95 -61.65 12.7 -61.75 12.6 -61.8 12.45 -61.85 12.3 -61.9 12.2 -61.95 12.05 -62.0 11.95 -62.05 11.8 -62.05 11.65 -62.1 11.55 -62.1 11.4 -62.1 11.25 -62.1 11.1 -62.15 11.0 -62.15 10.85 -62.1 10.7 -62.1 10.55 -62.1 10.5 -62.1 10.45 -62.1 10.4 -62.1 10.35 -62.05 10.3 -62.05 10.25 -62.0 10.2 -62.0 10.2 -61.95 10.15 -61.95 10.15 -61.9 10.1 -61.85 10.1 -61.8 10.1 -61.8 10.05 -61.7 10.05 -61.65 10.05 -61.6 10.05 -61.55 10.05 -61.5 10.05 -61.5 10.05 -61.45 10.05 -61.4 10.05 -61.35 10.0 -61.35 10.0 -61.3 10.0 -61.25 9.95 -61.2 9.95 -61.15 9.9 -61.15 9.9 -61.1 9.85 -61.1 9.75 -61.15 9.65 -61.15 9.55 -61.15 9.45 -61.15 9.35 -61.15 9.25 -61.15 9.15 -61.15 9.05 -61.15 8.95 -61.15 8.85 -61.1 8.65 -61.1 8.65 -61.1 8.55 -61.1 8.45 -61.1 8.35 -61.1 8.25 -61.1 8.15 -61.1 8.05 -61.1 7.95 -61.1 7.85 -61.05 7.75 -61.05 7.6 -61.05 7.5 -61.05 7.4 -61.0 7.3 -61.0 7.2 -61.0 7.1 -60.95 7.0 -60.95 6.9 -60.9 6.8 -60.9 6.7 -60.9 6.6 -60.85 5.55 -60.65 2.5 -59.75 2.7 -59.05 2.9 -58.4 3.15 -57.7 3.3 -57.0 3.5 -56.35 3.7 -55.65 3.85 -54.95 4.05 -54.25 4.2 -53.55 4.35 -52.85 4.5 -52.15 4.6 -51.45 4.75 -50.75 4.85 -50.05 5.0 -49.35 5.1 -48.65 5.25 -47.5 5.4 -46.35 5.55 -45.2 5.65 -44.05 5.75 -42.9 5.8 -41.75 5.85 -40.6 5.9 -39.45 5.95 -38.3 5.95 -37.15 5.95 -36.0 5.9 -34.85 5.85 -33.7 5.8 -32.55 5.75 -31.4 5.65 -30.25 5.35 -26.55 4.35 -20.65 4.1 -19.1 2.95 -9.6 2.4 -5.05 1.85 -2.0 1.9 -2.0 1.9 -1.95 1.9 -1.9 1.95 -1.9 1.95 -1.85 1.95 -1.85 2.15 -1.05 2.25 -0.55 3.1 3.75 3.5 6.6 3.85 9.35 3.95 11.05 3.95 11.3 4.0 11.55 4.0 11.8 4.0 12.05 4.05 12.3 4.05 12.55 4.05 12.8 4.05 13.05 4.05 13.3 4.1 13.55 4.1 13.8 4.1 14.1 4.1 14.35 4.1 14.6 4.1 14.85 4.1 15.1 4.1 15.3 4.1 15.5 4.1 15.7 4.1 15.9 4.1 16.1 4.1 16.3 4.1 16.5 4.1 16.7 4.1 16.95 4.1 17.15 4.1 17.35 4.1 17.55 4.05 17.75 4.05 17.95 4.05 18.15 4.0 18.35 3.9 19.95 3.85 20.8 3.85 20.95 3.85 21.05 3.85 21.15 3.85 21.2 3.85 21.3 3.9 21.35 3.9 21.4 3.95 21.45 4.0 21.5 4.05 21.5 4.1 21.55 4.15 21.55 4.25 21.55 4.35 21.55 4.45 21.55 4.6 21.55 4.6 21.55 4.6 21.55 4.65 21.55 4.65 21.55 4.7 21.55 4.75 21.55 4.85 21.55 4.9 21.55 4.95 21.5 5.0 21.5 5.05 21.5 5.1 21.45 5.1 21.45 5.15 21.4 5.2 21.35 5.25 21.3 5.25 21.25 5.3 21.2 5.3 21.15 5.35 21.1 5.5 20.65 5.75 20.0 6.05 19.1 6.1 18.9 6.85 16.65 7.85 12.45 7.95 12.1 8.0 11.75 8.1 11.4 8.15 11.05 8.25 10.7 8.3 10.35 8.35 10.0 8.45 9.65 8.5 9.3 8.55 8.9 8.6 8.55 8.7 8.2 8.75 7.85 8.8 7.5 8.85 7.15 8.9 6.8 8.95 6.5 9.0 6.15 9.05 5.85 9.05 5.55 9.1 5.2 9.15 4.9 9.2 4.6 9.25 4.3 9.3 3.95 9.35 3.65 9.4 3.35 9.45 3.05 9.55 2.7 9.6 2.4 9.65 2.1 9.7 1.8 9.7 1.8 9.8 1.1 10.0 0.05 10.05 -0.6 10.1 -0.8 10.3 -1.5 10.4 -1.45 10.4 -1.35 10.4 -1.1 10.35 -1.2 10.35 -1.15 10.35 -1.1 10.35 -1.05 10.35 -1.0 10.35 -1.0 10.35 -0.95 10.35 -0.9 10.35 -0.85 10.2 0.35 10.1 1.25 10.1 1.35 10.05 1.55 9.95 1.75 9.95 1.8 9.95 2.0 9.9 2.35 9.85 2.7 9.8 2.85 9.7 4.1 9.65 4.4 9.55 4.7 9.05 7.8 8.45 11.6 8.15 13.05 8.0 13.8 7.8 14.55 7.6 15.3 7.4 16.05 7.2 16.8 7.0 17.55 6.75 18.25 6.5 19.0 6.25 19.75 6.0 20.45 5.7 21.2 5.4 21.9 5.15 22.6 4.8 23.3 4.5 24.0 4.15 24.7 4.1 24.8 4.1 24.85 4.05 24.95 4.05 25.05 4.0 25.1 4.0 25.2 4.0 25.25 4.0 25.35 4.0 25.45 3.95 25.5 3.95 25.6 4.0 25.7 4.0 25.75 4.0 25.85 4.0 25.95 4.0 26.0 4.0 26.05 4.0 26.1 4.05 26.15 4.05 26.15 4.1 26.2 4.1 26.2 4.15 26.25 4.2 26.25 4.2 26.25 4.25 26.3 4.35 26.3 4.4 26.3 4.5 26.3 4.6 26.3 4.7 26.3 4.75 26.3 4.85 26.3 4.9 26.3 5.0 26.25 5.05 26.25 5.15 26.2 5.2 26.15 5.3 26.15 5.35 26.1 5.4 26.0 5.5 25.95 5.55 25.9 5.75 25.65 6.0 25.45 6.2 25.2 6.45 24.95 6.65 24.7 6.9 24.5 7.1 24.25 7.3 24.0 7.55 23.75 7.75 23.5 7.95 23.25 8.15 23.0 8.35 22.75 8.55 22.5 8.75 22.25 8.95 22.0 9.15 21.7 9.4 21.4 9.6 21.1 9.8 20.75 10.05 20.45 10.25 20.15 10.45 19.8 10.7 19.5 10.9 19.15 11.1 18.85 11.3 18.5 11.5 18.2 11.7 17.85 11.9 17.55 12.1 17.2 12.3 16.85 12.5 16.55 14.0 13.95 14.5 12.9 15.65 10.7 15.95 9.85 16.2 9.25 16.4 8.65 16.65 8.1 16.85 7.5 17.1 6.9 17.3 6.3 17.5 5.7 17.7 5.1 17.9 4.5 18.1 3.85 18.25 3.25 18.45 2.65 18.65 2.05 18.8 1.45 19.0 0.85 19.15 0.2 19.4 -0.65 20.75 -5.9 20.75 -5.95 20.8 -6.0 20.8 -6.05 20.8 -6.05 20.8 -6.1 20.85 -6.1 20.85 -6.15 20.9 -6.2 20.95 -6.2 21.0 -6.2 21.0 -6.05 21.1 -5.7 21.2 -5.2 21.3 -4.75 21.35 -4.3 21.45 -3.85 21.55 -3.35 21.6 -2.9 21.65 -2.4 21.75 -1.95 21.8 -1.5 21.85 -1.0 21.9 -0.55 21.9 -0.05 21.95 0.4 21.95 0.9 22.0 1.35 22.0 1.85 22.0 1.9 22.0 1.95 22.0 2.0 22.0 2.0 22.0 2.05 22.0 2.1 22.0 2.15 22.0 2.2 22.0 2.25 22.0 2.3 22.0 2.35 22.0 2.4 22.0 2.4 22.0 2.45 22.05 2.5 22.05 2.55 22.05 2.6 22.05 2.65 22.05 2.7 22.05 2.75 22.05 2.85 22.05 2.9 22.05 2.95 22.05 3.0 22.05 3.05 22.05 3.1 22.05 3.15 22.05 3.2 22.05 3.25 22.05 3.3 22.05 3.35 22.05 3.4 22.05 3.55 22.0 3.7 22.0 3.85 22.0 4.0 22.0 4.15 22.0 4.3 22.0 4.45 21.95 4.6 21.95 4.75 21.95 4.85 21.95 5.0 21.95 5.15 21.95 5.3 22.0 5.45 22.0 5.6 22.0 5.75 22.0 5.85 22.0 5.9 22.0 5.95 22.05 6.0 22.05 6.05 22.1 6.1 22.1 6.15 22.15 6.2 22.15 6.2 22.2 6.25 22.25 6.25 22.3 6.25 22.35 6.3 22.4 6.3 22.5 6.3 22.55 6.3 22.65 6.3 22.7 6.3 22.8 6.3 22.85 6.3 22.9 6.25 22.95 6.25 23.05 6.25 23.05 6.2 23.1 6.15 23.15 6.15 23.2 6.1 23.2 6.05 23.25 6.0 23.25 5.9 23.3 5.85 23.3 5.75 23.3 5.7 23.35 5.7 23.35 5.65 23.35 5.6 23.4 5.6 23.4 5.55 23.5 5.2 23.6 4.85 23.65 4.5 23.75 4.15 23.85 3.85 23.9 3.5 24.0 3.15 24.1 2.8 24.15 2.45 24.25 2.1 24.3 1.75 24.35 1.4 24.45 1.05 24.5 0.7 24.55 0.35 24.65 0.0 25.1 -2.9 25.35 -5.0 25.8 -9.9 25.85 -10.25 25.85 -10.5 25.9 -10.85 25.95 -11.35 26.0 -11.45 25.95 -11.5 26.0 -11.5 26.0 -11.5 26.05 -11.5 26.1 -11.45 26.15 -11.45 26.15 -11.4 26.2 -11.35 26.3 -11.15 27.15 -9.35 27.75 -8.15 28.1 -7.35 28.8 -5.75 29.9 -2.4 30.05 -1.95 30.2 -1.45 30.3 -1.0 30.45 -0.55 30.6 -0.05 30.7 0.4 30.85 0.85 30.95 1.35 31.05 1.8 31.15 2.3 31.25 2.75 31.35 3.25 31.45 3.7 31.55 4.2 31.65 4.7 31.75 5.15 32.0 7.1 32.0 7.25 32.0 7.35 32.05 7.45 32.05 7.5 32.1 7.55 32.1 7.65 32.15 7.7 32.15 7.75 32.2 7.75 32.25 7.8 32.3 7.85 32.35 7.85 32.45 7.85 32.5 7.9 32.6 7.9 32.65 7.9 32.75 7.9 32.8 7.9 32.85 7.9 32.9 7.9 32.95 7.9 33.0 7.9 33.05 7.9 33.1 7.9 33.15 7.85 33.2 7.85 33.2 7.85 33.25 7.8 33.3 7.8 33.3 7.8 33.35 7.75 33.35 7.75 33.35 7.7 33.4 7.65 33.4 7.65 33.4 7.6 33.4 7.55 33.4 7.5 33.45 7.45 33.5 6.35 33.6 5.85 33.9 4.15 33.95 1.1 33.95 1.1 34.0 -2.8 34.05 -2.8 34.1 -2.8 34.1 -2.75 34.15 -2.7 34.35 -2.0 34.6 0.05 34.6 0.15 34.6 1.55 34.6 1.65 34.6 1.8 34.65 1.9 34.65 2.05 34.65 2.15 34.7 2.25 34.7 2.4 34.7 2.5 34.75 2.6 34.75 2.7 34.8 2.85 34.8 2.95 34.85 3.05 34.9 3.15 34.9 3.3 34.95 3.4 36.75 9.05 37.5 11.5 37.6 11.85 37.7 12.15 37.8 12.5 37.9 12.85 37.95 13.15 38.05 13.5 38.15 13.85 38.2 14.2 38.3 14.5 38.4 14.85 38.45 15.2 38.55 15.55 38.6 15.85 38.65 16.2 38.75 16.55 38.8 16.9 38.85 17.2 38.9 17.5 38.95 17.8 39.0 18.1 39.05 18.4 39.1 18.7 39.1 19.0 39.15 19.3 39.2 19.6 39.25 19.9 39.25 20.2 39.3 20.5 39.35 20.8 39.35 21.1 39.4 21.4 39.4 21.7 39.4 21.75 39.4 21.8 39.45 21.85 39.45 21.9 39.45 21.95 39.5 22.0 39.5 22.0 39.55 22.05 39.55 22.05 39.6 22.1 39.6 22.1 39.65 22.1 39.7 22.1 39.75 22.15 39.8 22.15 39.85 22.15 40.0 22.15 40.4 22.1 40.45 22.1 40.45 22.1 40.5 22.1 40.55 22.05 40.55 22.05 40.6 22.05 40.6 22.0 40.65 22.0 40.65 21.95 40.7 21.95 40.7 21.95 40.7 21.9 40.75 21.85 40.75 21.85 40.75 21.8 40.75 21.75 40.8 21.65 40.95 21.35 40.95 21.3 41.05 21.3 41.1 21.25 41.15 21.35 41.25 21.75 41.3 21.85 41.35 21.9 41.35 22.0 41.4 22.05 41.4 22.1 41.4 22.2 41.45 22.25 41.45 22.3 41.45 22.4 41.45 22.45 41.45 22.5 41.4 22.6 41.4 22.65 41.4 22.75 41.35 22.8 41.35 22.85 41.35 22.95 40.3 25.65 40.25 25.65 40.2 25.75 40.2 25.8 40.15 25.9 40.1 26.0 40.1 26.1 40.05 26.15 40.05 26.25 40.0 26.35 40.0 26.45 39.95 26.55 39.95 26.6 39.9 26.7 39.9 26.8 39.9 26.9 39.85 26.95 39.85 27.05 39.8 27.5 39.7 27.9 39.65 28.3 39.55 28.75 39.45 29.15 39.4 29.55 39.3 30.0 39.2 30.4 39.1 30.8 39.0 31.2 38.9 31.65 38.8 32.05 38.65 32.45 38.55 32.85 38.45 33.25 38.3 33.65 38.0 34.55 37.5 36.0 37.5 36.1 37.45 36.15 37.45 36.25 37.4 36.3 37.4 36.4 37.4 36.5 37.4 36.55 37.35 36.65 37.35 36.75 37.35 36.8 37.35 36.9 37.35 36.95 37.35 37.05 37.4 37.15 37.4 37.2 37.4 37.3 37.4 37.35 37.45 37.4 37.45 37.45 37.45 37.45 37.5 37.5 37.5 37.55 37.55 37.55 37.6 37.55 37.7 37.55 37.75 37.6 37.85 37.6 37.9 37.65 38.0 37.65 38.05 37.65 38.15 37.65 38.2 37.65 38.3 37.65 38.35 37.65 38.45 37.65 38.5 37.6 38.6 37.6 38.65 37.55 38.7 37.5 38.8 37.45 39.0 37.25 39.35 36.95 39.75 36.55 39.9 36.4 39.9 36.4 39.95 36.35 39.95 36.35 40.0 36.3 40.0 36.3 40.05 36.25 40.05 36.25 40.1 36.2 40.1 36.2 40.15 36.2 40.15 36.15 40.2 36.15 40.2 36.1 40.25 36.1 40.25 36.1 40.3 36.1 40.35 36.15 40.35 36.2 40.35 36.25 40.35 36.3 40.35 36.35 40.35 36.4 40.3 36.55 40.35 36.5 40.3 36.8 40.2 37.25 40.05 37.95 40.05 38.05 39.65 39.85 39.6 40.15 39.55 40.35 39.55 40.45 39.55 40.6 39.55 40.7 39.55 40.85 39.6 40.9 39.6 41.0 39.65 41.0 39.7 41.05 39.75 41.1 39.85 41.1 39.95 41.15 40.05 41.15 40.25 41.15 40.35 41.1 40.6 41.1 40.65 41.1 40.65 41.1 40.7 41.1 40.75 41.05 40.75 41.05 40.8 41.05 40.85 41.05 40.85 41.0 40.9 41.0 40.95 41.0 40.95 40.95 41.0 40.95 41.05 40.95 41.05 40.9 41.0 40.95 41.15 40.85 42.3 40.15 42.95 39.7 43.2 39.55 43.45 39.35 43.65 39.2 43.9 39.0 44.15 38.85 44.35 38.65 44.55 38.45 44.75 38.25 45.0 38.05 45.2 37.85 45.4 37.65 45.6 37.45 45.75 37.25 45.95 37.0 46.15 36.8 46.3 36.55 46.45 36.4 46.55 36.25 46.7 36.05 46.8 35.9 46.95 35.75 47.05 35.55 47.15 35.4 47.3 35.2 47.4 35.05 47.5 34.85 47.6 34.7 47.7 34.5 47.8 34.3 47.9 34.15 48.0 33.95 48.1 33.75 48.25 33.45 48.55 32.95 48.6 32.95 48.6 32.95 48.65 32.9 48.7 32.9 48.7 32.9 48.75 32.95 48.75 33.0 48.75 33.0 48.9 34.85 48.9 34.95 48.9 35.05 48.9 35.15 48.95 35.25 48.95 35.3 49.0 35.35 49.0 35.4 49.05 35.45 49.1 35.5 49.1 35.55 49.2 35.55 49.25 35.6 49.3 35.6 49.35 35.6 49.45 35.6 49.55 35.6 49.65 35.6 49.75 35.6 49.8 35.6 49.85 35.6 49.95 35.55 50.0 35.55 50.05 35.5 50.15 35.5 50.2 35.45 50.25 35.45 50.3 35.4 50.35 35.35 50.4 35.3 50.45 35.25 50.5 35.2 50.55 35.15 50.55 35.05 50.6 35.0 50.6 34.95 50.65 34.9 50.65 34.9 50.7 34.85 50.7 34.8 50.75 34.75 50.75 34.7 50.8 34.65 50.8 34.6 50.85 34.6 50.85 34.55 50.85 34.5 50.9 34.45 50.9 34.4 50.95 34.35 51.05 34.1 51.15 33.85 51.25 33.65 51.35 33.4 51.45 33.15 51.55 32.9 51.65 32.65 51.75 32.4 51.8 32.15 51.9 31.9 52.0 31.7 52.05 31.4 52.15 31.2 52.2 30.9 52.3 30.7 52.35 30.4 52.6 29.6 53.95 23.85 54.0 23.6 54.4 21.9 54.4 21.8 54.5 21.8 54.55 21.8 54.6 21.85 54.65 21.9 54.65 21.9 54.7 21.95 54.7 22.0 54.75 22.0 54.75 22.05 54.8 22.1 54.8 22.1 54.8 22.15 54.85 22.2 54.85 22.2 54.9 22.25 54.9 22.3 54.95 22.3 54.95 22.35 55.0 22.4 55.65 23.5 56.45 25.15 56.9 26.1 58.0 28.0 58.05 28.1 58.1 28.15 58.15 28.25 58.25 28.3 58.3 28.35 58.35 28.4 58.45 28.45 58.5 28.5 58.6 28.5 58.65 28.55 58.75 28.55 58.85 28.55 58.9 28.6 59.0 28.6 59.1 28.6 59.2 28.55 59.25 28.55 59.3 28.55 59.35 28.55 59.35 28.5 59.4 28.5 59.45 28.5 59.45 28.5 59.45 28.45 59.5 28.45 59.5 28.4 59.55 28.4 59.55 28.35 59.55 28.3 59.55 28.3 59.55 28.25 59.55 28.2 59.55 28.1 59.55 28.0 59.6 27.9 59.6 27.8 59.6 27.7 59.55 27.6 59.55 27.5 59.55 27.45 59.55 27.35 59.5 27.25 59.5 27.15 59.45 27.05 59.45 26.95 59.4 26.85 59.35 26.8 59.35 26.7 59.35 26.65 59.3 26.6 59.3 26.55 59.25 26.55 59.25 26.5 59.25 26.45 59.2 26.4 59.2 26.35 59.2 26.3 59.15 26.25 59.15 26.2 59.15 26.2 59.1 26.15 59.1 26.1 59.1 26.05 59.1 26.0 59.0 25.65 58.9 25.35 58.8 25.0 58.7 24.7 58.6 24.35 58.5 24.05 58.4 23.7 58.3 23.4 58.25 23.05 58.15 22.75 58.1 22.4 58.0 22.05 57.95 21.75 57.85 21.4 57.8 21.05 57.75 20.75 57.35 18.25 57.3 16.75 57.3 16.55 57.3 16.35 57.3 16.15 57.3 15.95 57.3 15.75 57.35 15.55 57.35 15.35 57.35 15.15 57.4 14.95 57.4 14.75 57.4 14.55 57.45 14.3 57.45 14.15 57.5 13.9 57.5 13.7 57.55 13.5 57.6 13.25 57.6 13.05 57.65 12.8 57.65 12.6 57.7 12.35 57.75 12.15 57.8 11.9 57.85 11.7 57.9 11.45 57.9 11.2 57.95 11.0 58.0 10.75 58.1 10.55 58.15 10.3 58.2 10.1 58.25 9.85 58.25 9.85 58.55 8.8 58.75 8.15 58.8 7.75 58.8 7.7 58.85 7.6 58.85 7.55 58.9 7.5 58.9 7.45 58.9 7.4 58.95 7.35 58.95 7.25 59.0 7.2 59.0 7.15 59.05 7.1 59.1 7.05 59.1 7.0 59.15 6.95 59.2 6.9 59.25 6.85 59.3 6.8 59.35 6.7 59.4 6.6 59.45 6.5 59.5 6.4 59.55 6.4 59.6 6.35 59.65 6.35 59.7 6.35 59.75 6.35 59.8 6.35 59.9 6.4 60.15 6.6 60.2 6.6 60.3 6.65 60.35 6.7 60.45 6.7 60.5 6.75 60.6 6.75 60.7 6.8 60.75 6.8 60.85 6.8 60.95 6.85 61.0 6.85 61.1 6.85 61.2 6.85 61.25 6.85 61.35 6.8 61.45 6.8 61.5 6.75 61.55 6.75 61.6 6.75 61.65 6.7 61.65 6.7 61.7 6.65 61.7 6.6 61.75 6.5 61.75 6.45 61.75 6.35 61.75 6.25 61.75 6.15 61.75 6.05 61.75 6.0 61.75 5.9 61.7 5.8 61.65 5.75 61.65 5.65 61.6 5.55 61.55 5.5 61.5 5.45 61.4 5.35 61.35 5.3 61.3 5.25 61.25 5.2 61.2 5.2 61.15 5.15 61.1 5.1 61.05 5.05 61.0 5.0 60.95 5.0 60.9 4.95 60.9 4.9 60.85 4.85 60.8 4.8 60.75 4.75 60.7 4.75 60.65 4.7 60.6 4.65 60.5 4.55 60.45 4.5 60.4 4.4 60.45 4.35 60.45 4.25 60.5 4.1 60.55 4.0 60.6 3.85 60.7 3.75 60.75 3.6 60.8 3.5 60.85 3.35 60.9 3.25 60.95 3.1 61.0 3.0 61.05 2.85 61.1 2.75 61.15 2.6 61.2 2.45 61.25 2.35 61.25 2.2 61.3 2.05 61.35 1.95 61.65 0.7 61.7 0.5 61.7 0.45 61.75 0.4 61.8 0.4 61.9 0.4 62.05 0.45 62.35 0.5 62.6 0.55 62.9 0.65 63.2 0.7 63.5 0.75 63.75 0.75 64.05 0.8 64.35 0.85 64.65 0.85 64.95 0.9 65.2 0.9 65.5 0.95 65.8 0.95 66.1 1.0 66.35 1.0 66.65 1.0 67.35 1.05 68.45 1.0 69.9 1.0 70.2 1.0 70.5 1.0 70.8 1.0 71.1 1.0 71.4 0.95 71.7 0.95 72.05 0.9 72.3 0.9 72.65 0.85 72.95 0.8 73.25 0.8 73.55 0.75 73.85 0.7 74.15 0.65 74.45 0.6 74.7 0.5 75.0 0.45 75.7 0.3 76.75 -0.05 76.85 -0.05 76.9 -0.1 76.95 -0.1 77.0 -0.15 77.1 -0.15 77.1 -0.2 77.15 -0.25 77.2 -0.25 77.2 -0.3 77.2 -0.35 77.25 -0.4 77.25 -0.45 77.25 -0.5 77.25 -0.6 77.25 -0.65 77.25 -0.75 77.25 -0.8 77.25 -0.8 77.25 -0.85 77.25 -0.9 77.25 -0.95 77.25 -1.05 77.25 -1.1 77.25 -1.15 77.2 -1.2 77.2 -1.3 77.2 -1.35 77.15 -1.4 77.1 -1.45 77.1 -1.5 77.05 -1.55 77.0 -1.6 76.95 -1.65 76.9 -1.65 76.85 -1.7 76.75 -1.75 L76.75 -1.75" fill="#bc596f" fill-rule="evenodd" stroke="none"/>
  </g>
</svg>
