<?xml version="1.0" encoding="UTF-8" standalone="no"?>
<svg xmlns:xlink="http://www.w3.org/1999/xlink" height="26.45px" width="104.65px" xmlns="http://www.w3.org/2000/svg">
  <g transform="matrix(1.0, 0.0, 0.0, 1.0, 32.65, 37.65)">
    <path d="M-6.4 -5.35 Q-7.95 -5.1 -9.5 -4.85 -11.1 -4.6 -12.7 -4.35 -14.3 -4.1 -15.9 -3.9 -17.5 -3.65 -19.15 -3.4 -20.8 -3.2 -22.45 -3.0 -24.1 -2.75 -25.8 -2.55 -27.5 -2.35 -29.2 -2.15 -30.9 -1.95 -32.65 -1.75 L-11.8 -0.7 Q-11.0 -1.4 -9.1 -3.0 -7.3 -4.5 -6.4 -5.35 L-6.4 -5.35" fill="url(#gradient0)" fill-rule="evenodd" stroke="none"/>
    <path d="M61.9 -26.4 Q58.95 -24.8 55.75 -23.3 52.55 -21.8 49.1 -20.35 45.65 -18.95 42.0 -17.6 38.3 -16.25 34.4 -15.0 30.5 -13.75 26.35 -12.6 22.2 -11.4 17.85 -10.35 13.45 -9.25 8.85 -8.25 4.25 -7.25 -0.6 -6.35 -0.5 -6.25 -0.4 -6.2 -0.25 -6.1 -0.15 -6.0 -0.05 -5.9 0.05 -5.8 0.1 -5.7 0.2 -5.6 0.3 -5.5 0.35 -5.35 0.4 -5.25 0.5 -5.15 0.55 -5.0 0.6 -4.9 0.65 -4.75 0.7 -4.6 0.75 -4.45 0.75 -4.3 0.8 -4.2 0.85 -4.05 0.9 -3.9 0.95 -3.75 0.95 -3.6 1.0 -3.45 1.05 -3.3 1.1 -3.2 1.15 -3.05 1.2 -2.9 1.25 -2.75 1.3 -2.6 1.35 -2.45 1.4 -2.35 1.5 -2.1 1.75 -1.45 1.75 -1.4 1.8 -1.4 1.8 -1.35 1.8 -1.3 1.85 -1.15 2.05 -0.8 2.15 -0.55 2.4 0.0 4.1 0.0 5.75 0.0 7.45 0.0 9.1 0.0 10.75 0.0 12.4 -0.05 14.1 -0.1 15.7 -0.15 17.35 -0.2 19.0 -0.25 20.65 -0.3 22.25 -0.4 23.9 -0.5 25.5 -0.6 27.1 -0.7 28.7 -0.8 30.5 -0.95 33.7 -1.2 L48.55 -3.0 Q50.15 -3.25 51.75 -3.55 53.35 -3.85 54.85 -4.15 56.4 -4.45 57.9 -4.8 59.4 -5.15 60.9 -5.5 62.35 -5.85 63.8 -6.25 65.2 -6.6 66.6 -7.0 68.0 -7.4 69.35 -7.85 70.7 -8.25 72.0 -8.7 71.7 -9.55 71.3 -10.45 70.95 -11.35 70.45 -12.35 70.0 -13.3 69.45 -14.35 68.9 -15.4 68.25 -16.5 67.65 -17.6 66.95 -18.75 66.2 -19.95 65.4 -21.2 64.6 -22.45 63.75 -23.75 62.85 -25.05 61.9 -26.4 L61.9 -26.4" fill="url(#gradient1)" fill-rule="evenodd" stroke="none"/>
    <path d="M-49.25 39.25 Q-49.25 39.25 -49.35 39.25 -49.4 39.2 -49.4 39.2 -49.45 39.2 -49.45 39.15 -49.5 39.1 -49.5 39.05 -49.45 39.05 -49.45 39.0 -49.4 39.0 -49.35 39.0 -49.35 39.0 -49.3 39.0 -49.25 39.05 -49.25 39.05 -49.25 39.05 -49.25 39.25 L-49.25 39.25" fill="#fefefe" fill-rule="evenodd" stroke="none"/>
    <path d="M-17.55 18.15 Q-17.55 18.2 -17.55 18.25 -17.5 18.35 -17.5 18.35 -17.5 18.4 -17.5 18.4 -17.55 18.45 -17.6 18.45 -17.6 18.45 -17.65 18.45 -17.7 18.45 -17.75 18.4 -17.75 18.4 -17.8 18.35 -17.7 18.3 -17.55 18.15 L-17.55 18.15" fill="#fefefe" fill-rule="evenodd" stroke="none"/>
    <path d="M17.35 28.55 Q17.3 28.55 17.25 28.6 17.25 28.6 17.2 28.6 17.15 28.6 17.15 28.6 17.15 28.6 17.15 28.55 17.1 28.55 17.1 28.5 17.1 28.5 17.1 28.45 17.15 28.4 17.15 28.4 17.15 28.35 17.2 28.3 17.2 28.35 17.3 28.4 17.35 28.5 17.35 28.55 L17.35 28.55" fill="#fefefe" fill-rule="evenodd" stroke="none"/>
  </g>
  <defs>
    <linearGradient gradientTransform="matrix(0.0962, 0.0, 0.0, 0.0962, 46.1, -2.95)" gradientUnits="userSpaceOnUse" id="gradient0" spreadMethod="pad" x1="-819.2" x2="819.2">
      <stop offset="0.00392156862745098" stop-color="#020202"/>
      <stop offset="1.0" stop-color="#000000"/>
    </linearGradient>
    <linearGradient gradientTransform="matrix(0.2658, 0.0, 0.0, 0.2658, 217.1, -13.15)" gradientUnits="userSpaceOnUse" id="gradient1" spreadMethod="pad" x1="-819.2" x2="819.2">
      <stop offset="0.00392156862745098" stop-color="#020202"/>
      <stop offset="1.0" stop-color="#000000"/>
    </linearGradient>
  </defs>
</svg>
