<?xml version="1.0" encoding="UTF-8" standalone="no"?>
<svg xmlns:xlink="http://www.w3.org/1999/xlink" height="159.35px" width="66.45px" xmlns="http://www.w3.org/2000/svg">
  <g transform="matrix(1.0, 0.0, 0.0, 1.0, -10.95, 63.95)">
    <path d="M93.05 20.95 Q92.9 20.9 92.75 20.8 92.55 20.65 92.3 20.5 92.0 20.3 91.7 20.1 91.3 19.9 90.95 19.6 90.55 19.35 90.1 19.0 89.65 18.65 89.2 18.3 88.7 17.85 88.2 17.4 87.65 16.95 87.1 16.45 86.3 15.7 85.6 14.9 85.0 14.25 84.35 13.5 83.9 12.95 83.25 12.15 82.0 10.55 82.25 10.9 81.7 10.15 81.2 9.6 80.65 8.95 80.05 8.35 79.4 7.65 78.7 7.05 77.9 6.35 77.0 5.65 76.9 5.6 76.85 5.55 76.75 5.45 76.7 5.4 76.6 5.35 76.55 5.3 76.45 5.25 76.4 5.2 76.35 5.15 76.25 5.1 76.2 5.05 76.15 5.05 76.1 5.0 76.05 4.95 76.0 4.9 75.95 4.9 76.15 4.95 76.35 4.95 76.55 5.0 76.8 5.0 77.05 5.05 77.3 5.05 77.6 5.1 77.85 5.1 78.15 5.1 78.45 5.05 78.8 5.05 79.1 5.0 79.45 4.95 79.8 4.9 80.15 4.85 80.5 4.75 81.0 4.6 81.5 4.45 81.95 4.3 82.35 4.05 82.75 3.9 83.15 3.65 83.5 3.45 83.85 3.2 84.15 2.95 84.5 2.7 84.75 2.5 85.05 2.25 85.25 2.05 85.5 1.8 85.65 1.65 85.9 1.4 86.3 1.0 86.7 0.55 87.05 0.1 87.4 -0.35 87.7 -0.8 87.95 -1.25 88.25 -1.65 88.45 -2.1 88.7 -2.5 88.9 -2.9 89.05 -3.3 89.2 -3.65 89.35 -4.0 89.45 -4.4 89.6 -4.7 89.65 -5.0 89.4 -4.9 89.1 -4.85 88.8 -4.8 88.5 -4.75 88.15 -4.65 87.8 -4.6 87.4 -4.55 87.05 -4.55 86.65 -4.5 86.25 -4.5 85.8 -4.45 85.4 -4.5 84.95 -4.5 84.5 -4.55 84.0 -4.6 83.55 -4.7 83.35 -4.75 83.15 -4.8 82.85 -4.85 82.5 -4.95 82.15 -5.05 81.7 -5.25 81.25 -5.4 80.75 -5.65 80.2 -5.95 79.6 -6.3 78.95 -6.7 78.3 -7.15 77.55 -7.65 76.8 -8.25 76.0 -8.9 75.2 -9.65 74.6 -10.2 74.0 -10.8 73.45 -11.4 72.9 -12.05 72.35 -12.65 71.8 -13.35 71.3 -14.05 70.7 -14.8 70.2 -15.55 69.6 -16.45 69.05 -17.25 68.35 -18.3 67.8 -19.15 67.05 -20.35 66.5 -21.15 65.55 -22.7 64.55 -24.25 63.85 -25.45 63.45 -26.1 62.9 -27.0 62.5 -27.65 62.3 -27.95 62.05 -28.4 61.6 -29.0 61.6 -29.0 61.4 -29.25 61.15 -29.6 60.8 -30.0 60.35 -30.5 59.85 -31.1 59.25 -31.75 58.55 -32.45 57.8 -33.25 56.95 -34.05 56.0 -34.95 55.05 -35.75 53.95 -36.65 52.85 -37.5 51.65 -38.4 50.4 -39.15 49.15 -39.95 47.85 -40.6 46.5 -41.25 45.0 -41.8 43.5 -42.35 41.85 -42.8 40.15 -43.3 38.25 -43.65 36.35 -44.0 34.15 -44.3 32.0 -44.55 29.5 -44.75 27.05 -44.9 24.2 -45.0 21.4 -45.15 18.2 -45.15 9.4 -45.25 5.3 -45.2 7.95 -42.85 9.95 -40.95 10.5 -40.45 11.0 -39.95 11.5 -39.45 12.0 -38.95 12.5 -38.45 13.0 -37.95 13.5 -37.4 14.0 -36.9 14.5 -36.35 15.0 -35.85 15.5 -35.3 15.95 -34.8 16.45 -34.25 16.9 -33.7 17.35 -33.15 17.8 -32.6 18.35 -31.9 18.85 -31.3 19.4 -30.6 19.9 -29.95 20.4 -29.3 20.9 -28.6 21.4 -27.9 21.85 -27.25 22.35 -26.55 22.8 -25.85 23.25 -25.15 23.65 -24.4 24.1 -23.7 24.5 -22.95 24.9 -22.2 25.25 -21.45 25.45 -21.0 25.65 -20.6 25.85 -20.15 26.05 -19.7 26.25 -19.25 26.45 -18.85 26.6 -18.4 26.8 -17.95 27.0 -17.5 27.15 -17.05 27.35 -16.6 27.5 -16.15 27.65 -15.7 27.8 -15.25 27.95 -14.8 28.1 -14.35 28.7 -12.35 29.5 -8.4 29.7 -7.45 29.85 -6.5 30.0 -5.55 30.15 -4.6 30.3 -3.6 30.45 -2.65 30.55 -1.7 30.65 -0.75 30.75 0.25 30.85 1.2 30.95 2.2 31.0 3.15 31.05 4.1 31.1 5.1 31.15 6.05 31.15 7.0 31.2 11.3 31.1 12.55 31.1 12.6 31.15 12.65 31.15 12.65 31.2 12.7 31.2 12.75 31.25 12.8 31.25 12.8 31.3 12.85 31.3 12.9 31.35 12.95 31.35 13.0 31.4 13.0 31.4 13.05 31.4 13.1 31.45 13.15 31.45 13.2 31.9 14.05 32.1 15.0 32.3 15.9 32.3 16.85 32.35 17.75 32.2 18.7 32.05 19.5 31.85 20.4 31.6 21.15 31.35 21.95 31.1 22.55 30.8 23.2 30.55 23.7 30.3 24.15 30.15 24.45 30.0 24.75 29.9 24.9 29.8 25.1 29.7 25.25 29.6 25.4 29.5 25.55 29.35 25.7 29.25 25.85 29.15 26.0 29.1 26.15 29.0 26.25 28.9 26.4 28.8 26.5 28.7 26.6 28.6 26.7 28.55 26.8 28.45 26.9 28.65 26.9 28.9 26.9 29.1 26.9 29.35 26.9 29.6 26.9 29.85 26.85 30.15 26.85 30.4 26.8 30.7 26.8 31.0 26.75 31.3 26.7 31.6 26.65 31.9 26.6 32.2 26.5 32.55 26.45 32.85 26.35 33.5 26.15 34.15 25.9 34.75 25.7 35.3 25.4 35.85 25.15 36.35 24.8 36.85 24.55 37.3 24.2 37.7 23.9 38.1 23.6 38.5 23.3 38.85 22.95 39.15 22.7 39.45 22.4 39.7 22.2 40.0 21.85 40.75 21.1 41.45 20.3 42.1 19.55 42.65 18.7 43.2 17.95 43.65 17.1 44.1 16.35 44.45 15.55 44.8 14.8 45.1 14.05 45.35 13.4 45.6 12.7 45.8 12.1 45.95 11.45 46.1 10.95 46.2 10.45 46.35 10.7 46.5 11.0 46.7 11.3 46.9 11.55 47.05 11.9 47.25 12.2 47.5 12.5 47.7 12.85 47.95 13.15 48.15 13.5 48.4 13.85 48.65 14.2 48.95 14.55 49.2 14.95 49.5 15.3 49.8 15.65 50.55 16.6 51.3 17.45 52.05 18.3 52.8 19.1 53.5 19.8 54.25 20.5 54.9 21.1 55.6 21.7 56.25 22.25 56.85 22.75 57.4 23.2 57.95 23.6 58.45 23.95 58.9 24.25 59.25 24.5 59.6 24.75 60.15 25.1 60.5 25.35 61.0 25.65 61.5 25.95 62.05 26.3 62.6 26.6 63.2 26.95 63.8 27.25 64.5 27.6 65.15 27.9 65.9 28.25 66.6 28.55 67.4 28.85 68.2 29.15 69.05 29.4 69.95 29.65 70.4 29.75 70.85 29.9 71.55 30.05 72.25 30.15 73.2 30.35 74.1 30.45 75.25 30.6 76.35 30.65 77.65 30.75 78.95 30.7 80.4 30.65 81.85 30.5 83.4 30.35 84.95 30.05 86.65 29.7 88.25 29.2 89.1 28.95 90.0 28.6 90.8 28.3 91.6 27.95 92.35 27.65 93.1 27.3 93.85 26.95 94.55 26.55 95.2 26.2 95.85 25.8 96.45 25.4 97.05 25.05 97.6 24.65 98.15 24.25 98.65 23.9 99.1 23.55 98.8 23.45 98.5 23.35 98.15 23.25 97.85 23.15 97.5 23.0 97.15 22.9 96.75 22.75 96.4 22.6 96.0 22.45 95.6 22.25 95.2 22.1 94.8 21.9 94.35 21.65 93.95 21.45 93.5 21.2 93.05 20.95 L93.05 20.95" fill="#1371ff" fill-rule="evenodd" stroke="none"/>
    <path d="M-18.4 14.8 Q-18.4 14.85 -18.4 14.9 -18.35 15.0 -18.35 15.0 -18.35 15.05 -18.35 15.05 -18.4 15.1 -18.45 15.1 -18.45 15.15 -18.5 15.1 -18.55 15.1 -18.6 15.1 -18.6 15.05 -18.65 15.0 -18.55 14.95 -18.4 14.8 L-18.4 14.8" fill="#fefefe" fill-rule="evenodd" stroke="none"/>
    <path d="M16.5 25.2 Q16.45 25.2 16.4 25.25 16.4 25.25 16.35 25.25 16.3 25.25 16.3 25.25 16.3 25.25 16.25 25.2 16.25 25.2 16.25 25.15 16.25 25.15 16.25 25.1 16.3 25.1 16.3 25.05 16.3 25.0 16.35 24.95 16.4 25.05 16.5 25.2 L16.5 25.2" fill="#fefefe" fill-rule="evenodd" stroke="none"/>
  </g>
</svg>
