<?xml version="1.0" encoding="UTF-8" standalone="no"?>
<svg xmlns:xlink="http://www.w3.org/1999/xlink" height="200.0px" width="200.0px" xmlns="http://www.w3.org/2000/svg">
  <g transform="matrix(1.0, 0.0, 0.0, 1.0, 100.0, 100.0)">
    <path d="M-62.1 1.25 Q-61.9 1.25 -61.65 1.25 -61.4 1.25 -61.3 1.25 -55.0 1.25 -49.8 1.25 -49.4 1.25 -49.0 1.25 -48.6 1.25 -48.2 1.25 -47.75 1.2 -47.35 1.2 -46.95 1.2 -46.55 1.2 -46.15 1.15 -45.75 1.15 -45.35 1.15 -44.95 1.1 -44.55 1.1 -44.15 1.05 -43.75 1.0 -43.35 1.0 -43.05 1.0 -41.3 0.85 -40.05 0.75 -39.3 0.7 -37.1 0.45 -34.55 0.05 -34.2 0.0 -30.7 -0.55 -30.65 -0.55 -30.6 -0.55 -30.55 -0.55 -30.55 -0.6 -30.5 -0.6 -30.45 -0.6 -30.4 -0.6 -30.35 -0.6 -30.3 -0.6 -30.25 -0.6 -30.2 -0.6 -30.15 -0.6 -30.15 -0.6 -30.1 -0.6 -30.05 -0.6 -30.0 -0.6 -29.45 -0.6 -28.15 -0.6 -27.0 -0.6 -26.3 -0.65 -22.35 -0.7 -19.45 -0.8 -19.15 -0.8 -18.85 -0.8 -18.55 -0.85 -18.25 -0.85 -17.95 -0.85 -17.65 -0.9 -17.35 -0.9 -17.05 -0.9 -16.75 -0.95 -16.4 -0.95 -16.1 -0.95 -15.8 -1.0 -15.5 -1.0 -15.2 -1.0 -14.9 -1.05 -14.6 -1.05 -10.65 -1.4 -8.65 -1.6 -8.25 -1.65 -7.8 -1.7 -7.4 -1.75 -6.95 -1.8 -6.55 -1.85 -6.1 -1.9 -5.7 -1.95 -5.25 -2.0 -4.85 -2.05 -4.4 -2.1 -4.0 -2.15 -3.6 -2.2 -3.15 -2.3 -2.75 -2.35 -2.3 -2.4 -1.9 -2.45 4.1 -3.4 12.0 -5.25 19.1 -6.9 27.9 -9.05 36.5 -11.1 42.7 -13.05 43.65 -13.35 44.55 -13.65 45.45 -13.95 46.4 -14.3 47.3 -14.6 48.2 -14.95 49.1 -15.3 50.0 -15.7 50.9 -16.05 51.8 -16.45 52.7 -16.8 53.6 -17.25 54.45 -17.65 55.35 -18.05 56.2 -18.5 57.1 -18.95 57.3 -19.05 59.45 -20.3 59.5 -20.35 59.5 -20.35 59.55 -20.4 59.6 -20.4 59.6 -20.4 59.65 -20.45 59.65 -20.45 59.7 -20.5 59.75 -20.5 59.85 -20.45 59.9 -20.45 59.95 -20.45 60.05 -20.4 60.1 -20.4 60.15 -20.35 60.2 -20.3 60.25 -20.3 60.3 -20.25 60.35 -20.2 60.4 -20.2 60.45 -20.15 60.5 -20.1 60.55 -20.05 60.6 -20.0 61.45 -19.15 62.75 -17.85 62.8 -17.8 63.2 -17.35 63.4 -17.15 63.55 -16.95 63.7 -16.75 63.85 -16.55 64.05 -16.35 64.2 -16.15 64.35 -15.95 64.5 -15.75 64.6 -15.55 64.75 -15.3 64.9 -15.1 65.0 -14.85 65.15 -14.65 65.25 -14.4 65.35 -14.15 65.45 -13.95 65.6 -13.55 67.55 -9.85 67.6 -9.8 67.6 -9.75 67.65 -9.65 67.65 -9.6 67.7 -9.55 67.7 -9.5 67.75 -9.45 67.75 -9.4 67.8 -9.35 67.8 -9.3 67.85 -9.2 67.9 -9.15 67.9 -9.1 67.95 -9.05 68.0 -9.0 68.0 -8.95 68.15 -8.75 68.25 -8.55 68.35 -8.35 68.5 -8.15 68.6 -7.95 68.65 -7.75 68.75 -7.55 68.85 -7.35 68.9 -7.15 69.0 -6.9 69.05 -6.75 69.15 -6.45 69.25 -6.15 69.3 -6.05 69.4 -5.8 69.45 -5.6 69.45 -5.55 69.45 -5.55 69.5 -5.5 69.5 -5.45 69.45 -5.55 69.5 -5.35 69.5 -5.3 69.5 -5.3 69.55 -5.1 69.55 -5.05 69.6 -4.95 69.65 -4.85 69.7 -4.75 69.75 -4.7 69.8 -4.6 69.8 -4.5 69.85 -4.45 69.9 -4.35 69.9 -4.25 69.95 -4.15 69.95 -4.05 70.0 -3.95 70.0 -3.85 70.0 -3.75 70.05 -3.65 70.05 -3.55 69.7 -3.4 69.5 -3.35 68.35 -3.0 67.2 -2.6 66.1 -2.25 64.95 -1.9 63.8 -1.6 62.65 -1.25 61.5 -0.9 60.35 -0.6 59.2 -0.3 58.05 0.0 56.9 0.3 55.75 0.6 54.6 0.9 53.4 1.2 52.25 1.45 51.1 1.75 46.2 2.9 42.3 3.65 41.95 3.7 41.8 3.7 39.7 3.65 35.25 3.5 35.15 3.45 34.95 3.45 35.2 3.35 35.55 3.25 35.3 3.1 35.25 3.1 34.6 3.0 33.95 2.9 33.3 2.75 32.6 2.65 31.95 2.5 31.3 2.35 30.65 2.2 30.0 2.05 29.4 1.9 28.75 1.75 28.1 1.6 27.45 1.4 26.8 1.25 26.15 1.05 25.5 0.85 24.9 0.65 24.25 0.45 23.65 0.25 23.05 0.05 22.45 -0.2 21.85 -0.4 21.25 -0.65 20.65 -0.9 20.05 -1.15 19.45 -1.4 18.9 -1.65 18.3 -1.95 17.7 -2.25 17.15 -2.5 16.6 -2.85 16.0 -3.15 15.45 -3.5 14.9 -3.8 14.7 -4.0 14.65 -4.05 14.6 -4.05 14.6 -4.05 14.55 -4.1 14.5 -4.1 14.45 -4.1 14.4 -4.1 14.4 -4.1 14.35 -4.1 14.3 -4.1 14.25 -4.1 14.2 -4.1 14.2 -4.1 14.15 -4.1 14.1 -4.1 14.05 -4.1 12.5 -3.75 7.7 -2.65 7.7 -2.65 7.4 -2.55 7.4 -2.5 7.4 -2.45 7.4 -2.4 7.4 -2.35 7.4 -2.35 7.4 -2.3 7.45 -2.25 7.45 -2.25 7.45 -2.2 7.5 -2.15 7.5 -2.15 7.55 -2.1 7.55 -2.1 7.55 -2.05 7.6 -2.0 7.6 -2.0 7.9 -1.55 8.2 -1.1 8.45 -0.65 8.75 -0.25 9.05 0.2 9.35 0.65 9.65 1.05 9.95 1.5 10.25 1.95 10.55 2.35 10.85 2.8 11.2 3.2 11.5 3.6 11.8 4.05 12.1 4.45 12.45 4.9 12.65 5.15 13.2 5.9 13.7 5.9 14.75 5.9 14.9 6.35 15.25 7.25 15.25 7.3 15.2 7.3 15.2 7.35 15.15 7.35 15.15 7.35 15.1 7.4 15.05 7.4 15.05 7.4 15.0 7.4 15.0 7.4 14.95 7.4 14.9 7.4 14.9 7.4 14.85 7.4 14.8 7.4 14.8 7.45 13.0 7.55 10.2 7.75 9.9 7.75 7.15 7.95 6.8 7.95 5.8 8.0 5.0 8.05 4.5 8.1 2.0 8.2 0.4 8.25 0.2 8.25 -0.45 8.3 -1.0 8.35 -1.3 8.35 -1.35 8.35 -1.4 8.35 -1.45 8.35 -1.5 8.35 -1.55 8.35 -1.6 8.35 -1.65 8.35 -1.65 8.3 -1.7 8.3 -1.75 8.3 -1.8 8.3 -1.85 8.25 -1.9 8.25 -1.9 8.2 -1.95 8.2 -2.0 8.15 -3.2 7.25 -3.5 6.95 -3.5 6.9 -3.45 6.85 -3.45 6.85 -3.4 6.85 -3.35 6.8 -3.3 6.85 -3.35 6.8 -3.25 6.85 -3.2 6.85 -3.15 6.85 -3.05 6.8 -2.8 6.8 -2.8 6.75 -2.75 6.7 -2.75 6.65 -2.8 6.65 -2.8 6.6 -2.8 6.6 -2.8 6.55 -2.85 6.55 -2.85 6.5 -2.9 6.5 -2.9 6.5 -2.95 6.45 -3.0 6.45 -3.0 6.45 -3.05 6.4 -3.05 6.4 -3.1 6.35 -4.75 5.2 -5.8 4.45 -6.45 3.95 -7.4 3.25 -10.25 1.0 -10.3 0.95 -10.6 0.65 -10.85 0.4 -11.0 0.25 -11.2 0.25 -13.2 0.4 -14.5 0.5 -15.4 0.55 -15.95 0.6 -19.8 0.8 -19.75 1.05 -19.75 1.1 -19.35 1.9 -18.1 3.8 -16.85 5.75 -15.95 6.9 -15.6 6.9 -14.7 6.95 -14.6 7.45 -14.45 8.4 -14.5 8.5 -14.6 8.5 -14.65 8.5 -14.8 8.5 -15.8 8.5 -16.75 8.5 -18.15 8.45 -20.35 8.35 -20.45 8.35 -20.6 8.35 -20.8 8.35 -20.85 8.35 -20.95 8.35 -21.0 8.35 -21.05 8.35 -21.15 8.35 -21.2 8.3 -21.25 8.3 -21.3 8.25 -21.4 8.25 -21.45 8.2 -21.5 8.15 -21.55 8.15 -21.6 8.1 -21.65 8.05 -21.65 8.0 -21.7 7.95 -21.75 7.9 -21.85 7.75 -22.6 6.75 -22.5 6.7 -22.3 6.6 -22.4 6.5 -22.45 6.4 -22.55 6.3 -22.65 6.2 -22.7 6.1 -22.8 6.05 -22.9 5.95 -23.0 5.85 -23.05 5.8 -23.15 5.7 -23.3 5.55 -23.3 5.5 -23.4 5.4 -23.5 5.35 -23.6 5.25 -23.65 5.2 -23.9 4.95 -24.3 4.5 -24.85 3.95 -24.95 3.85 -25.05 3.75 -25.6 3.15 -26.0 2.7 -26.3 2.45 -26.8 1.85 -27.55 1.0 -27.95 0.95 -30.15 1.0 -32.4 1.0 -32.9 1.1 -33.1 1.5 -33.3 2.1 -33.65 3.15 -33.65 3.15 -33.6 3.2 -33.5 3.35 -33.45 3.45 -33.4 3.55 -33.3 3.65 -33.25 3.75 -33.2 3.85 -33.1 3.95 -33.05 4.05 -33.05 4.2 -33.0 4.3 -32.95 4.4 -32.95 4.5 -32.95 4.65 -32.9 4.75 -32.9 4.85 -32.9 5.0 -32.95 5.1 -32.95 5.25 -33.0 5.35 -33.1 5.85 -33.1 7.05 -33.1 7.2 -33.1 7.55 -33.2 7.55 -33.3 7.55 -33.35 7.55 -33.4 7.55 -34.3 7.45 -35.8 7.3 -37.6 7.15 -38.2 7.1 -39.05 7.0 -39.65 6.95 -40.75 6.9 -43.3 6.5 -43.95 6.4 -44.9 6.25 -46.5 6.0 -46.5 6.0 -47.3 5.85 -48.05 5.75 -48.8 5.6 -49.55 5.45 -50.35 5.3 -51.05 5.15 -51.85 5.0 -52.55 4.8 -53.35 4.65 -54.05 4.45 -54.85 4.25 -55.55 4.0 -56.3 3.8 -57.05 3.55 -57.8 3.3 -58.5 3.05 -58.7 2.95 -58.9 2.9 -59.15 2.8 -59.35 2.75 -59.55 2.65 -59.75 2.55 -59.95 2.45 -60.15 2.4 -60.4 2.3 -60.55 2.2 -60.8 2.1 -60.95 2.0 -61.15 1.85 -61.35 1.75 -61.55 1.65 -61.75 1.55 -61.8 1.55 -61.8 1.5 -61.8 1.55 -61.9 1.45 -61.95 1.4 -61.95 1.35 -62.0 1.3 -62.1 1.25 L-62.1 1.25 M60.15 -9.8 Q60.15 -9.85 60.2 -9.85 60.2 -9.85 60.25 -9.9 60.25 -9.9 60.15 -9.95 60.15 -9.95 60.1 -10.0 60.1 -10.0 60.05 -9.95 60.0 -9.95 60.0 -9.9 60.05 -9.9 60.05 -9.85 60.1 -9.85 60.15 -9.8 L60.15 -9.8 M47.5 -6.9 Q47.45 -6.8 47.45 -6.8 47.45 -6.8 47.5 -6.75 47.5 -6.75 47.5 -6.75 47.55 -6.8 47.6 -6.85 47.55 -6.85 47.55 -6.85 47.55 -6.9 47.5 -6.9 L47.5 -6.9" fill="#000000" fill-rule="evenodd" stroke="none"/>
    <path d="M14.95 -7.9 Q14.9 -7.9 14.85 -8.0 14.85 -8.0 14.9 -8.05 14.95 -8.05 14.95 -8.05 14.95 -8.05 15.0 -8.0 15.05 -7.95 15.05 -7.95 15.05 -7.95 14.95 -7.9 L14.95 -7.9" fill="#ffffff" fill-rule="evenodd" stroke="none"/>
    <path d="M2.35 -4.95 Q2.35 -4.95 2.4 -4.9 2.4 -4.85 2.35 -4.8 2.35 -4.8 2.3 -4.85 2.3 -4.85 2.3 -4.85 2.3 -4.85 2.3 -4.9 2.35 -4.95 2.35 -4.95 L2.35 -4.95" fill="#ffffff" fill-rule="evenodd" stroke="none"/>
  </g>
</svg>
