<?xml version="1.0" encoding="UTF-8" standalone="no"?>
<svg xmlns:xlink="http://www.w3.org/1999/xlink" height="200.0px" width="200.0px" xmlns="http://www.w3.org/2000/svg">
  <g transform="matrix(1.0, 0.0, 0.0, 1.0, 100.0, 100.0)">
    <path d="M-18.95 -58.0 Q-18.95 -57.95 -18.95 -57.95 -18.95 -57.9 -18.95 -57.85 -18.9 -57.75 -18.9 -57.7 -18.85 -57.65 -18.8 -57.65 -18.8 -57.65 -18.7 -57.65 -18.2 -57.8 -17.45 -58.0 -16.25 -58.3 -16.15 -58.3 -8.7 -60.25 -3.75 -61.55 -3.4 -61.65 -3.0 -61.75 -2.65 -61.8 -2.3 -61.9 -1.9 -62.0 -1.55 -62.05 -1.15 -62.15 -0.8 -62.2 -0.4 -62.25 -0.05 -62.35 0.35 -62.4 0.7 -62.45 1.1 -62.5 1.45 -62.55 1.85 -62.6 2.2 -62.65 2.5 -62.65 2.8 -62.7 3.1 -62.7 3.35 -62.75 3.65 -62.75 3.95 -62.75 4.25 -62.75 4.55 -62.75 4.8 -62.8 5.1 -62.8 5.4 -62.8 5.7 -62.75 6.0 -62.75 6.3 -62.75 6.55 -62.75 6.85 -62.75 7.2 -62.7 7.6 -62.7 7.95 -62.65 8.3 -62.6 8.7 -62.55 9.05 -62.5 9.4 -62.45 9.75 -62.4 10.15 -62.3 10.5 -62.25 10.85 -62.15 11.2 -62.05 11.55 -62.0 11.9 -61.9 12.25 -61.8 12.6 -61.7 13.05 -61.55 13.5 -61.4 13.95 -61.25 14.4 -61.05 14.85 -60.85 15.3 -60.65 15.75 -60.45 16.15 -60.25 16.6 -60.05 17.0 -59.8 17.45 -59.6 17.85 -59.35 18.25 -59.1 18.65 -58.85 19.05 -58.6 19.45 -58.3 20.05 -57.9 20.65 -57.45 21.3 -57.05 21.9 -56.7 22.55 -56.3 23.2 -55.95 23.85 -55.6 24.5 -55.25 25.15 -54.9 25.8 -54.6 26.45 -54.3 27.15 -53.95 27.8 -53.65 28.5 -53.4 29.15 -53.1 29.85 -52.85 30.55 -52.55 31.3 -52.3 32.05 -52.0 32.75 -51.75 33.5 -51.5 34.25 -51.25 35.0 -51.0 35.7 -50.75 36.45 -50.55 37.2 -50.3 37.95 -50.1 38.7 -49.9 39.45 -49.7 40.2 -49.5 40.95 -49.3 41.7 -49.15 42.2 -49.05 42.65 -48.9 43.15 -48.8 43.65 -48.7 44.15 -48.6 44.6 -48.5 45.1 -48.4 45.6 -48.3 46.1 -48.25 46.55 -48.15 47.05 -48.05 47.55 -48.0 48.05 -47.9 48.55 -47.85 49.0 -47.8 49.5 -47.7 50.1 -47.65 50.7 -47.55 51.3 -47.5 51.9 -47.45 52.5 -47.4 53.1 -47.35 53.7 -47.3 54.3 -47.3 54.9 -47.25 55.5 -47.25 56.1 -47.2 56.7 -47.2 57.3 -47.2 57.9 -47.2 58.5 -47.2 59.1 -47.25 61.05 -47.3 63.8 -47.55 64.25 -47.6 65.05 -47.65 65.1 -47.65 65.15 -47.65 65.15 -47.65 65.2 -47.65 65.25 -47.65 65.3 -47.65 65.3 -47.6 65.35 -47.6 65.4 -47.55 65.4 -47.55 65.4 -47.5 65.4 -47.5 65.45 -47.45 65.45 -47.4 65.45 -47.4 65.45 -47.35 65.45 -47.3 65.45 -47.25 65.4 -47.25 65.4 -47.2 65.4 -47.15 65.4 -47.15 65.35 -47.1 65.35 -47.1 65.35 -47.05 65.3 -47.05 65.3 -47.0 65.25 -47.0 65.25 -46.95 65.2 -46.95 65.2 -46.95 65.15 -46.9 65.1 -46.85 64.85 -46.7 64.65 -46.6 64.55 -46.55 62.8 -45.65 61.2 -44.85 60.2 -44.35 57.65 -43.55 54.1 -42.4 42.15 -38.5 41.7 -38.35 39.95 -37.75 39.85 -37.75 39.8 -37.7 39.75 -37.7 39.7 -37.65 39.7 -37.55 39.85 -37.55 40.5 -37.55 41.1 -37.5 41.75 -37.45 42.4 -37.4 43.0 -37.3 43.65 -37.2 44.25 -37.1 44.85 -37.0 45.45 -36.85 46.1 -36.7 46.7 -36.55 47.3 -36.35 47.9 -36.2 48.5 -36.0 49.1 -35.8 49.7 -35.6 51.95 -34.8 55.75 -33.15 56.0 -33.05 56.05 -33.0 56.1 -33.0 56.1 -32.95 56.1 -32.95 56.15 -32.9 56.15 -32.9 56.2 -32.85 56.2 -32.8 56.2 -32.8 56.2 -32.75 56.2 -32.7 56.2 -32.7 56.2 -32.65 56.2 -32.6 56.2 -32.6 56.2 -32.55 56.2 -32.55 56.15 -32.5 56.15 -32.45 56.1 -32.45 56.05 -32.4 55.95 -32.4 55.8 -32.35 55.6 -32.35 55.2 -32.35 54.85 -32.3 54.65 -32.3 54.25 -32.3 53.85 -32.35 53.45 -32.35 53.1 -32.4 52.7 -32.4 52.3 -32.45 51.9 -32.45 51.55 -32.5 51.15 -32.55 50.75 -32.6 50.35 -32.65 50.0 -32.75 49.6 -32.8 49.2 -32.85 48.8 -32.95 48.45 -33.05 48.1 -33.15 47.7 -33.25 47.35 -33.35 46.95 -33.45 46.6 -33.55 46.25 -33.7 45.9 -33.8 45.5 -33.95 45.15 -34.1 44.8 -34.2 44.45 -34.35 44.1 -34.5 43.75 -34.65 43.4 -34.85 43.05 -35.0 42.7 -35.15 42.45 -35.3 42.05 -35.45 42.05 -35.45 42.0 -35.45 42.05 -35.45 41.9 -35.45 41.85 -35.4 41.9 -35.35 41.85 -35.4 42.0 -35.25 42.3 -35.0 42.6 -34.7 42.9 -34.4 43.2 -34.1 43.5 -33.8 43.75 -33.45 44.0 -33.15 44.25 -32.8 44.5 -32.5 44.75 -32.15 45.0 -31.85 45.25 -31.45 45.45 -31.15 45.7 -30.75 45.9 -30.4 46.1 -30.05 47.4 -27.75 49.45 -24.05 49.8 -23.55 50.05 -23.2 52.6 -19.95 53.55 -18.75 53.95 -18.25 54.3 -17.7 54.65 -17.2 55.0 -16.65 55.35 -16.15 55.65 -15.6 56.0 -15.05 56.3 -14.5 56.55 -13.9 56.85 -13.35 57.15 -12.8 57.4 -12.2 57.65 -11.65 57.9 -11.05 58.15 -10.45 58.35 -9.85 58.5 -9.45 58.65 -9.05 58.8 -8.65 58.95 -8.2 59.1 -7.8 59.25 -7.4 59.35 -7.0 59.5 -6.55 59.65 -6.15 59.75 -5.75 59.9 -5.3 60.0 -4.9 60.1 -4.5 60.25 -4.05 60.35 -3.65 60.45 -3.2 60.9 -1.6 62.1 3.25 62.1 3.3 62.1 3.35 62.15 3.4 62.15 3.4 62.15 3.45 62.15 3.5 62.2 3.55 62.2 3.6 62.2 3.65 62.25 3.7 62.25 3.7 62.25 3.75 62.3 3.8 62.3 3.85 62.35 3.9 62.35 3.95 62.75 4.65 63.15 5.35 63.6 6.05 64.0 6.75 64.45 7.4 64.9 8.05 65.4 8.75 65.85 9.4 66.35 10.05 66.85 10.65 67.35 11.3 67.9 11.9 68.45 12.5 69.0 13.1 69.55 13.7 70.1 14.3 70.7 14.9 71.75 15.8 73.0 16.95 73.4 17.3 73.55 17.45 73.9 17.75 73.95 17.8 73.95 17.8 73.95 17.85 74.0 17.9 74.0 17.9 74.0 17.95 74.05 18.0 74.05 18.05 74.05 18.05 74.05 18.1 74.05 18.15 74.05 18.2 74.05 18.25 74.05 18.25 74.05 18.3 74.05 18.35 74.05 18.35 74.0 18.4 74.0 18.4 74.0 18.45 73.95 18.45 73.9 18.45 73.9 18.5 73.85 18.5 73.8 18.5 73.75 18.5 73.7 18.5 73.65 18.5 73.65 18.5 73.6 18.5 73.55 18.5 73.5 18.5 73.45 18.5 73.45 18.5 73.4 18.45 73.35 18.45 73.3 18.45 73.25 18.45 73.25 18.45 73.2 18.45 73.15 18.4 73.1 18.4 72.8 18.35 72.45 18.25 72.15 18.15 71.85 18.05 71.5 17.95 71.2 17.85 70.9 17.75 70.6 17.65 70.3 17.5 70.0 17.4 69.7 17.25 69.4 17.15 69.1 17.0 68.8 16.85 68.5 16.7 68.2 16.55 66.95 15.95 64.2 14.4 62.45 13.4 62.0 13.2 61.95 13.15 61.9 13.15 61.85 13.1 61.8 13.1 61.75 13.05 61.75 13.1 61.7 13.1 61.65 13.1 61.6 13.1 61.6 13.15 61.6 13.2 61.55 13.2 61.55 13.25 61.55 13.25 61.55 13.3 61.55 13.3 61.55 13.35 61.55 13.35 61.55 13.4 61.55 13.45 61.55 13.45 61.55 13.5 61.55 13.5 61.55 13.55 61.75 13.95 62.05 14.7 62.8 16.5 63.3 17.8 63.3 17.85 63.35 17.9 63.35 17.95 63.4 17.95 63.4 18.0 63.4 18.05 63.45 18.1 63.45 18.15 63.45 18.2 63.45 18.25 63.5 18.25 63.5 18.3 63.5 18.35 63.5 18.4 63.5 18.45 63.5 18.5 63.5 18.55 63.5 18.6 63.45 18.6 63.45 18.65 63.45 18.7 63.4 18.7 63.35 18.75 63.35 18.75 63.3 18.75 63.25 18.75 63.2 18.75 63.15 18.75 63.1 18.75 63.05 18.75 63.0 18.75 63.0 18.75 62.95 18.75 62.9 18.75 62.85 18.7 62.8 18.7 62.75 18.7 62.7 18.65 62.7 18.65 62.65 18.65 62.6 18.6 62.55 18.6 62.35 18.5 62.2 18.4 62.0 18.3 61.8 18.2 61.65 18.1 61.45 18.0 61.3 17.9 61.1 17.8 60.95 17.7 60.8 17.6 60.6 17.5 60.45 17.35 60.25 17.25 60.1 17.15 59.95 17.0 59.8 16.9 59.75 16.85 59.6 16.75 59.5 16.7 59.45 16.65 59.4 16.6 59.35 16.55 59.3 16.55 59.25 16.55 59.25 16.55 59.2 16.6 59.15 16.6 59.1 16.7 59.05 16.7 59.05 16.75 58.95 16.85 58.85 17.0 58.75 17.1 58.6 17.2 58.5 17.35 58.4 17.45 58.25 17.55 58.15 17.65 58.05 17.75 57.9 17.85 57.8 17.95 57.65 18.05 57.55 18.15 57.4 18.25 57.3 18.35 57.15 18.4 56.9 18.65 56.85 18.7 56.85 18.8 57.05 19.1 57.6 20.2 58.15 21.1 58.25 21.3 58.35 21.5 58.5 21.7 58.6 21.9 58.7 22.1 58.8 22.3 58.9 22.5 59.05 22.7 59.15 22.95 59.25 23.15 59.35 23.35 59.45 23.55 59.55 23.75 59.65 23.95 59.75 24.2 59.85 24.4 59.95 24.6 60.0 24.75 60.1 24.95 60.2 25.1 60.3 25.3 60.35 25.45 60.45 25.65 60.55 25.8 60.65 26.0 60.75 26.15 60.85 26.35 60.95 26.5 61.05 26.7 61.15 26.85 61.3 27.0 61.4 27.2 61.55 27.4 61.6 27.6 61.7 27.8 61.75 28.05 61.8 28.25 61.75 28.45 61.75 28.7 61.7 28.9 61.6 29.1 61.5 29.3 61.4 29.5 61.25 29.65 61.1 29.85 60.95 29.95 60.75 30.1 60.55 30.2 60.55 30.2 60.05 30.4 60.05 30.5 60.05 30.55 60.05 30.6 60.1 30.7 60.15 30.85 60.15 30.85 60.2 30.95 60.25 31.1 60.35 31.25 60.4 31.35 60.45 31.5 60.5 31.65 60.5 31.75 60.55 31.9 60.6 32.05 60.65 32.15 60.7 32.3 60.7 32.45 60.75 32.55 60.8 32.7 60.8 32.85 60.85 33.0 60.9 33.2 60.9 33.4 60.9 33.6 60.9 33.8 60.85 34.0 60.8 34.15 60.75 34.35 60.65 34.5 60.6 34.65 60.45 34.8 60.35 34.95 60.2 35.05 60.1 35.2 59.9 35.3 59.75 35.4 59.55 35.45 59.45 35.5 59.35 35.5 59.3 35.55 59.2 35.55 59.1 35.55 59.0 35.55 58.95 35.55 58.85 35.55 58.75 35.55 58.65 35.55 58.55 35.55 58.5 35.55 58.4 35.5 58.3 35.5 58.2 35.45 58.1 35.45 58.0 35.4 57.9 35.35 57.8 35.3 57.7 35.25 57.6 35.2 57.5 35.1 57.4 35.05 57.3 34.95 57.25 34.9 57.15 34.8 57.05 34.75 56.95 34.65 56.9 34.6 56.8 34.5 56.75 34.4 56.65 34.3 56.6 34.2 56.45 34.05 56.35 33.85 56.3 33.75 56.25 33.7 56.25 33.65 56.2 33.65 56.2 33.6 56.15 33.55 56.15 33.5 56.1 33.45 56.1 33.4 56.05 33.35 56.05 33.3 56.0 33.25 56.0 33.25 55.95 33.2 55.9 33.15 55.85 33.15 55.8 33.1 55.75 33.15 55.7 33.95 55.2 39.05 54.9 40.45 54.85 40.85 54.75 41.25 54.65 41.65 54.55 42.0 54.5 42.4 54.4 42.8 54.3 43.2 54.15 43.55 54.05 43.95 53.95 44.35 53.8 44.7 53.65 45.1 53.5 45.5 53.35 45.85 53.2 46.25 53.05 46.6 53.0 46.7 52.95 46.8 52.9 46.95 52.85 47.05 52.8 47.15 52.8 47.25 52.75 47.4 52.7 47.5 52.65 47.6 52.6 47.7 52.6 47.85 52.55 47.95 52.5 48.05 52.5 48.2 52.45 48.3 52.4 48.4 52.1 49.65 51.05 53.0 50.7 54.2 50.25 56.25 49.8 58.1 48.7 63.2 48.65 63.4 48.55 63.95 48.55 64.1 48.5 64.2 48.45 64.35 48.35 64.45 48.3 64.55 48.2 64.65 48.15 64.75 48.0 64.85 47.9 64.9 47.8 64.95 47.65 65.05 47.55 65.05 47.4 65.1 47.3 65.15 47.15 65.15 47.0 65.1 46.85 65.1 46.75 65.05 46.6 65.0 46.5 64.95 46.35 64.9 46.25 64.85 46.15 64.75 46.1 64.65 46.0 64.55 45.95 64.45 45.85 64.35 45.8 64.2 45.75 64.1 45.75 63.95 45.7 63.8 45.7 63.65 45.7 63.6 45.7 63.5 45.7 63.45 45.7 63.4 45.7 63.35 45.7 63.25 45.65 63.2 45.65 63.15 45.65 63.1 45.6 63.0 45.6 62.95 45.55 62.9 45.55 62.85 45.55 62.75 45.5 62.7 45.45 62.65 44.25 59.6 43.6 57.65 43.55 57.55 43.55 57.45 43.5 57.35 43.45 57.3 43.4 57.2 43.35 57.1 43.35 57.0 43.3 56.95 43.25 56.85 43.2 56.75 43.1 56.7 43.05 56.6 43.0 56.55 42.95 56.45 42.85 56.4 42.8 56.3 42.75 56.25 42.65 56.15 42.6 56.1 42.55 56.05 42.5 56.0 42.45 55.9 42.35 55.85 42.3 55.75 42.25 55.7 42.2 55.6 42.15 55.55 42.1 55.45 42.05 55.4 42.0 55.3 41.95 55.25 41.9 55.15 41.85 55.1 41.8 55.0 41.75 54.95 41.7 54.85 41.65 54.8 41.65 54.7 41.6 54.6 41.6 54.55 41.55 54.45 41.55 54.4 41.55 54.3 41.5 54.2 41.5 54.1 41.5 54.05 41.5 53.95 41.5 53.85 41.5 53.75 41.5 53.65 41.5 53.55 41.5 53.45 41.5 53.4 41.5 53.3 41.55 53.2 41.55 53.1 41.55 53.0 41.55 52.9 41.6 52.8 41.6 52.7 41.6 52.65 41.65 52.55 41.65 52.45 41.65 52.35 42.4 49.3 42.55 47.9 42.55 47.75 42.6 47.6 42.6 47.45 42.65 47.3 42.65 47.15 42.7 47.0 42.7 46.85 42.75 46.7 42.75 46.55 42.75 46.4 42.8 46.25 42.8 46.1 42.8 46.0 42.85 45.85 42.85 45.7 42.9 45.55 42.95 45.25 43.15 43.0 43.15 42.9 43.15 42.7 43.15 42.4 43.15 42.3 43.0 42.5 42.75 43.15 40.75 48.35 40.25 49.45 39.85 50.35 37.3 55.9 37.3 55.95 37.25 56.0 37.2 56.05 37.2 56.1 37.2 56.15 37.15 56.15 37.15 56.2 37.1 56.2 37.05 56.25 37.0 56.25 36.9 56.25 36.85 56.3 36.75 56.3 36.7 56.3 36.65 56.3 36.6 56.3 36.5 56.25 36.5 56.25 36.45 56.2 36.4 56.15 36.35 56.1 36.35 56.05 36.3 56.0 36.3 55.95 36.3 55.85 36.3 55.75 36.3 55.6 36.55 53.7 36.6 53.45 36.6 53.2 36.65 52.95 36.65 52.7 36.65 52.45 36.7 52.2 36.7 51.95 36.7 51.7 36.75 51.45 36.75 51.2 36.75 50.95 36.75 50.7 36.8 50.45 36.8 50.15 36.8 49.9 36.8 49.65 36.8 49.3 36.8 48.9 36.8 48.55 36.8 48.2 36.8 47.85 36.75 47.45 36.75 47.1 36.75 46.75 36.7 46.35 36.65 46.0 36.65 45.65 36.6 45.3 36.55 44.9 36.5 44.55 36.45 44.2 36.35 43.85 36.35 43.7 36.2 43.2 36.15 43.2 36.15 43.25 36.1 43.25 36.05 43.3 36.05 43.3 36.0 43.35 36.0 43.4 36.0 43.4 35.95 43.45 35.95 43.5 35.95 43.5 35.9 43.55 35.9 43.6 35.9 43.6 35.9 43.65 35.85 43.7 35.55 44.3 34.7 46.0 34.0 47.45 33.55 48.35 33.35 48.75 33.05 49.4 32.6 50.2 32.5 50.4 32.2 51.05 30.75 52.9 30.7 52.95 30.7 52.95 30.65 53.0 30.6 53.05 30.55 53.05 30.5 53.05 30.5 53.1 30.45 53.1 30.4 53.1 30.35 53.1 30.3 53.1 30.25 53.1 30.2 53.1 30.15 53.1 30.1 53.05 30.05 53.05 30.0 53.05 30.0 53.0 29.95 53.0 29.95 53.0 29.9 52.95 29.9 52.9 29.85 52.9 29.85 52.85 29.85 52.8 29.85 52.75 29.85 52.7 29.85 52.65 29.85 52.6 29.85 52.55 29.85 52.5 29.85 52.45 29.85 52.4 29.85 52.35 29.85 52.3 29.85 52.25 29.9 52.25 29.9 52.2 29.9 52.15 29.9 52.1 29.95 52.05 29.95 52.0 30.7 49.75 31.1 48.3 31.2 47.9 31.35 47.45 31.45 47.05 31.55 46.65 31.65 46.2 31.7 45.8 31.8 45.4 31.9 44.95 31.95 44.55 32.05 44.1 32.1 43.7 32.15 43.3 32.2 42.85 32.25 42.45 32.3 42.0 32.35 41.55 32.35 41.3 32.4 41.05 32.4 40.75 32.4 40.5 32.4 40.25 32.4 40.0 32.4 39.75 32.4 39.45 32.4 39.2 32.4 38.95 32.4 38.7 32.4 38.45 32.35 38.15 32.35 37.9 32.3 37.65 32.3 37.4 32.3 37.2 32.15 35.25 32.1 34.6 32.0 33.2 31.9 31.85 31.8 31.15 31.75 30.65 31.7 30.15 31.65 29.65 31.55 29.1 31.5 28.6 31.4 28.1 31.3 27.6 31.2 27.15 31.1 26.65 31.0 26.15 30.9 25.65 30.75 25.15 30.65 24.65 30.5 24.15 30.35 23.7 30.2 23.2 29.15 19.85 27.0 14.15 26.65 13.2 25.85 11.1 25.8 10.95 25.7 10.6 25.65 10.65 25.65 10.65 25.6 10.7 25.6 10.75 25.6 10.75 25.6 10.8 25.6 10.8 25.6 10.85 25.6 10.85 25.6 10.9 25.6 10.9 25.6 10.95 25.6 11.0 25.6 11.0 25.65 11.05 25.65 11.05 25.75 11.45 25.8 11.85 25.9 12.25 25.95 12.65 26.05 13.05 26.1 13.45 26.2 13.9 26.25 14.3 26.35 14.7 26.4 15.1 26.45 15.5 26.5 15.95 26.6 16.35 26.65 16.75 26.7 17.15 26.75 17.6 27.15 20.6 27.35 22.95 27.35 23.0 27.75 27.3 27.75 27.4 27.75 27.6 27.75 27.8 27.75 27.9 27.75 27.95 27.75 27.95 27.75 28.0 27.7 28.05 27.7 28.05 27.7 28.1 27.65 28.1 27.65 28.1 27.6 28.15 27.6 28.15 27.6 28.15 27.55 28.15 27.5 28.15 27.5 28.2 27.45 28.2 27.4 28.2 27.35 28.2 27.35 28.2 27.3 28.2 27.3 28.15 27.25 28.15 27.2 28.15 27.2 28.15 27.15 28.1 27.15 28.1 27.1 28.05 27.1 28.05 27.05 28.05 27.05 28.0 27.05 27.95 27.0 27.95 27.0 27.9 26.75 27.35 26.7 27.25 25.35 24.2 23.25 19.55 19.9 12.05 19.85 11.85 19.55 11.3 19.5 11.3 19.45 11.2 19.4 11.15 19.35 11.05 19.3 11.0 19.25 10.9 19.2 10.85 19.15 10.75 19.1 10.65 19.1 10.6 19.05 10.5 19.05 10.4 19.05 10.3 19.05 10.25 19.05 10.15 19.05 10.05 19.05 9.95 19.0 9.95 18.95 9.95 18.9 9.95 18.9 10.0 18.85 10.0 18.85 10.05 18.85 10.0 18.8 10.1 17.85 12.0 15.8 15.05 15.75 15.1 15.75 15.15 15.7 15.2 15.7 15.25 15.65 15.3 15.65 15.35 15.6 15.4 15.6 15.45 15.55 15.55 15.55 15.6 15.5 15.65 15.5 15.7 15.5 15.75 15.45 15.8 15.45 15.85 15.45 15.9 14.85 18.9 14.45 21.15 14.1 23.8 14.0 25.0 13.8 26.75 13.75 27.85 13.75 28.05 13.75 28.3 13.75 28.5 13.7 28.75 13.7 28.95 13.7 29.2 13.7 29.4 13.7 29.65 13.7 29.85 13.7 30.1 13.75 30.3 13.75 30.55 13.75 30.75 13.75 31.0 13.75 31.2 13.8 31.45 13.8 31.7 13.85 31.95 13.85 32.2 13.85 32.45 13.9 32.7 13.9 32.95 13.9 33.2 13.95 33.45 13.95 33.7 14.0 33.95 14.05 34.2 14.05 34.45 14.1 34.7 14.15 34.95 14.2 35.2 14.25 35.45 14.25 35.5 14.25 35.5 14.25 35.55 14.25 35.6 14.25 35.6 14.25 35.65 14.25 35.7 14.25 35.7 14.3 35.75 14.3 35.8 14.3 35.8 14.3 35.85 14.3 35.9 14.3 35.9 14.3 35.95 14.3 36.0 14.3 36.05 14.3 36.1 14.25 36.15 14.25 36.2 14.25 36.2 14.2 36.25 14.2 36.3 14.15 36.3 14.1 36.3 14.05 36.35 14.05 36.35 14.0 36.35 13.95 36.35 13.9 36.35 13.85 36.35 13.8 36.3 13.75 36.3 13.7 36.25 13.65 36.25 13.6 36.2 13.6 36.2 13.55 36.15 13.55 36.1 13.5 36.05 13.15 35.6 12.8 35.2 12.5 34.75 12.2 34.3 11.9 33.85 11.6 33.4 11.3 32.9 11.1 32.45 10.85 31.95 10.6 31.45 10.4 30.95 10.2 30.45 10.05 29.95 9.9 29.4 9.75 28.9 9.65 28.35 9.6 28.15 9.6 27.95 9.55 27.75 9.55 27.6 9.5 27.4 9.5 27.2 9.5 27.0 9.55 26.85 9.55 26.65 9.55 26.45 9.6 26.25 9.6 26.05 9.65 25.9 9.7 25.7 9.75 25.5 9.85 25.3 10.0 24.85 10.15 24.4 10.3 23.95 10.45 23.45 10.6 23.0 10.7 22.55 10.85 22.05 10.95 21.6 11.1 21.15 11.2 20.65 11.3 20.2 11.45 19.7 11.55 19.25 11.65 18.75 11.75 18.3 11.85 17.8 11.9 17.3 11.85 17.2 11.85 17.2 11.8 17.2 11.75 17.15 11.75 17.15 11.7 17.15 11.55 17.15 11.4 17.1 11.35 17.1 11.3 17.1 11.25 17.15 11.2 17.15 11.15 17.15 11.1 17.2 11.1 17.2 11.05 17.25 11.0 17.3 11.0 17.35 10.95 17.45 11.0 17.4 10.85 17.65 10.05 19.6 8.85 22.5 6.9 27.15 6.85 27.4 6.65 27.9 6.45 28.35 6.25 28.8 6.05 29.3 5.85 29.75 5.7 30.25 5.5 30.7 5.3 31.2 5.15 31.65 4.95 32.15 4.8 32.65 4.6 33.1 4.45 33.6 4.25 34.05 4.1 34.55 3.95 35.05 3.8 35.55 3.6 36.05 3.45 36.6 3.3 37.1 3.15 37.6 3.0 38.1 2.85 38.6 2.75 39.15 2.6 39.65 2.5 40.15 2.35 40.7 2.25 41.2 2.1 41.7 2.0 42.25 1.9 42.75 1.85 43.3 1.8 43.4 1.75 43.75 1.75 43.8 1.75 43.8 1.7 43.85 1.7 43.9 1.7 43.9 1.65 43.9 1.65 43.95 1.65 43.95 1.6 44.0 1.6 44.0 1.55 44.0 1.55 44.0 1.55 44.0 1.5 44.05 1.45 44.05 1.45 44.05 1.4 44.05 1.35 44.05 1.3 44.05 1.25 44.0 1.2 44.0 1.15 44.0 1.15 43.95 1.1 43.9 1.05 43.9 1.05 43.85 1.0 43.75 0.9 43.45 0.75 43.1 0.65 42.7 0.55 42.35 0.45 41.95 0.35 41.6 0.25 41.2 0.2 40.8 0.15 40.45 0.1 40.05 0.05 39.65 0.0 39.25 0.0 38.9 0.0 38.5 0.0 38.1 0.0 37.7 0.0 37.3 0.0 37.05 0.05 36.8 0.1 36.55 0.1 36.35 0.15 36.1 0.2 35.85 0.25 35.6 0.3 35.35 0.35 35.15 0.45 34.9 0.5 34.65 0.6 34.45 0.65 34.2 0.75 33.95 0.8 33.75 0.9 33.5 2.75 28.25 3.65 25.0 3.75 24.65 3.85 24.3 3.9 24.0 4.0 23.65 4.1 23.3 4.15 22.95 4.25 22.6 4.3 22.25 4.4 21.9 4.45 21.55 4.5 21.25 4.6 20.9 4.65 20.55 4.7 20.2 4.75 19.85 4.8 19.5 4.9 18.95 5.0 18.0 5.15 16.95 5.25 16.5 5.25 16.5 5.25 16.4 5.25 16.35 5.2 16.35 5.25 16.3 5.15 16.3 5.05 16.3 5.15 16.3 5.1 16.3 5.1 16.3 5.1 16.35 5.05 16.5 4.85 17.2 4.3 18.85 3.9 20.1 2.15 24.55 -2.15 35.35 -2.45 36.05 -2.7 36.65 -2.95 37.25 -3.2 37.85 -3.5 38.45 -3.75 39.05 -4.05 39.6 -4.35 40.2 -4.65 40.8 -4.95 41.35 -5.25 41.9 -5.55 42.5 -5.9 43.05 -6.2 43.6 -6.55 44.15 -6.9 44.7 -7.25 45.25 -7.45 45.55 -7.65 45.9 -7.85 46.2 -8.05 46.5 -8.3 46.8 -8.5 47.1 -8.7 47.4 -8.9 47.7 -9.15 48.0 -9.35 48.3 -9.55 48.6 -9.8 48.9 -10.0 49.2 -10.25 49.5 -10.45 49.8 -10.7 50.1 -10.75 50.2 -11.2 50.7 -11.25 50.75 -11.25 50.75 -11.3 50.8 -11.35 50.85 -11.35 50.85 -11.4 50.85 -11.45 50.9 -11.5 50.9 -11.55 50.9 -11.6 50.9 -11.65 50.9 -11.7 50.9 -11.75 50.9 -11.75 50.9 -11.8 50.9 -11.85 50.9 -11.85 50.85 -11.9 50.85 -11.9 50.8 -11.9 50.8 -11.95 50.75 -11.95 50.75 -11.95 50.7 -11.95 50.65 -12.0 50.65 -12.0 50.6 -12.0 50.55 -12.0 50.5 -12.0 50.45 -12.0 50.4 -11.95 50.4 -11.95 50.35 -11.95 50.3 -11.95 50.25 -11.95 50.2 -11.9 50.15 -11.9 50.15 -11.9 50.1 -11.9 50.05 -11.85 50.0 -11.85 49.95 -11.85 49.95 -11.75 49.6 -11.65 49.25 -11.5 48.9 -11.4 48.55 -11.3 48.2 -11.2 47.85 -11.1 47.5 -11.05 47.15 -10.95 46.8 -10.85 46.45 -10.75 46.1 -10.7 45.75 -10.6 45.4 -10.5 45.05 -10.45 44.7 -10.35 44.35 -10.25 43.95 -10.2 43.55 -10.1 43.15 -10.05 42.75 -10.0 42.35 -9.95 41.95 -9.85 41.5 -9.8 41.1 -9.75 40.7 -9.75 40.3 -9.7 39.9 -9.65 39.5 -9.6 39.1 -9.6 38.7 -9.55 38.3 -9.55 37.85 -9.55 37.25 -9.55 36.6 -9.55 36.0 -9.6 35.35 -9.6 34.75 -9.65 34.15 -9.75 33.55 -9.8 32.9 -9.9 32.3 -10.0 31.7 -10.15 31.1 -10.3 30.5 -10.4 29.9 -10.6 29.3 -10.75 28.7 -10.95 28.1 -10.95 28.05 -10.95 28.0 -11.0 27.95 -11.0 27.95 -11.0 27.9 -11.0 27.85 -11.05 27.8 -11.05 27.8 -11.05 27.8 -11.1 27.75 -11.1 27.75 -11.15 27.7 -11.15 27.75 -11.2 28.15 -11.25 28.65 -11.25 29.05 -11.3 29.5 -11.35 29.95 -11.4 30.4 -11.45 30.85 -11.5 31.3 -11.55 31.75 -11.6 32.2 -11.7 32.6 -11.75 33.05 -11.85 33.5 -11.95 33.95 -12.05 34.4 -12.15 34.85 -12.25 35.25 -12.35 35.6 -12.45 35.95 -12.55 36.3 -12.7 36.65 -12.8 37.0 -12.95 37.3 -13.05 37.65 -13.2 38.0 -13.35 38.3 -13.5 38.65 -13.65 38.95 -13.85 39.3 -14.0 39.6 -14.2 39.9 -14.4 40.2 -14.6 40.55 -14.85 40.95 -15.0 41.05 -15.0 41.1 -15.05 41.15 -15.1 41.15 -15.1 41.2 -15.15 41.2 -15.2 41.2 -15.25 41.25 -15.3 41.25 -15.35 41.25 -15.4 41.25 -15.45 41.25 -15.5 41.25 -15.55 41.2 -15.55 41.2 -15.6 41.15 -15.65 41.15 -15.65 41.1 -15.65 41.05 -15.7 41.0 -15.7 40.95 -15.7 40.9 -15.7 40.85 -15.7 40.8 -15.7 40.75 -15.7 40.75 -15.7 40.7 -15.7 40.65 -15.7 40.6 -15.7 40.55 -15.7 40.5 -15.7 40.45 -15.65 40.4 -15.65 40.35 -15.65 40.3 -15.65 40.3 -15.65 40.25 -15.1 37.7 -14.85 35.95 -14.55 33.85 -14.4 32.1 -14.35 31.6 -14.3 31.1 -14.25 30.65 -14.25 30.15 -14.2 29.65 -14.15 29.15 -14.15 28.7 -14.1 28.2 -14.1 27.7 -14.05 27.2 -14.05 26.75 -14.05 26.25 -14.0 25.75 -14.0 25.25 -14.0 24.8 -14.0 24.3 -14.0 23.75 -14.05 20.5 -14.05 20.5 -14.1 19.9 -14.1 19.55 -14.1 19.3 -14.15 17.8 -14.45 11.9 -14.55 9.4 -14.8 5.95 -15.3 0.05 -15.45 -1.05 -15.6 -2.75 -15.9 -5.15 -15.9 -5.2 -15.9 -5.25 -15.9 -5.25 -15.9 -5.3 -15.9 -5.35 -15.9 -5.4 -15.9 -5.5 -15.95 -5.6 -15.85 -5.1 -15.95 -5.75 -16.0 -5.85 -16.0 -5.9 -16.0 -5.9 -16.05 -5.95 -16.05 -5.95 -16.1 -6.0 -16.15 -6.0 -16.2 -6.0 -16.25 -6.0 -16.4 -6.0 -16.65 -6.05 -16.65 -6.05 -18.35 -6.15 -24.25 -6.2 -24.7 -6.2 -25.35 -6.2 -26.35 -6.2 -26.45 -6.2 -27.3 -6.2 -30.3 -5.85 -30.9 -5.8 -32.05 -5.6 -33.2 -5.45 -33.75 -5.35 -33.8 -5.35 -33.85 -5.35 -33.95 -5.35 -34.0 -5.3 -34.05 -5.3 -34.1 -5.3 -34.1 -5.25 -34.15 -5.25 -34.2 -5.2 -34.25 -5.2 -34.3 -5.15 -34.3 -5.1 -34.35 -5.05 -34.4 -5.0 -34.4 -5.0 -34.45 -4.95 -34.6 -4.7 -34.75 -4.5 -34.9 -4.3 -35.05 -4.1 -35.25 -3.9 -35.4 -3.7 -35.6 -3.55 -35.8 -3.4 -36.0 -3.2 -36.2 -3.05 -36.4 -2.95 -36.65 -2.8 -36.85 -2.65 -37.1 -2.55 -37.3 -2.45 -37.55 -2.3 -38.1 -2.1 -39.7 -1.65 -39.9 -1.6 -40.15 -1.5 -40.35 -1.45 -40.55 -1.4 -40.75 -1.3 -40.95 -1.25 -41.2 -1.15 -41.4 -1.1 -41.6 -1.0 -41.8 -0.9 -42.0 -0.85 -42.2 -0.75 -42.4 -0.65 -42.6 -0.55 -42.8 -0.45 -43.0 -0.35 -43.1 -0.3 -43.2 -0.25 -43.3 -0.2 -43.4 -0.15 -43.45 -0.1 -43.55 -0.05 -43.65 0.0 -43.75 0.05 -43.85 0.15 -43.95 0.2 -44.0 0.25 -44.1 0.3 -44.2 0.4 -44.25 0.45 -44.35 0.5 -44.45 0.6 -44.7 0.8 -44.95 1.05 -45.2 1.25 -45.45 1.5 -45.7 1.7 -45.95 1.95 -46.2 2.2 -46.4 2.4 -46.65 2.65 -46.9 2.9 -47.1 3.15 -47.35 3.4 -47.55 3.65 -47.75 3.95 -47.95 4.2 -48.2 4.45 -48.25 4.55 -48.3 4.6 -48.4 4.7 -48.45 4.8 -48.5 4.85 -48.55 4.95 -48.65 5.05 -48.7 5.1 -48.75 5.2 -48.85 5.25 -48.9 5.35 -48.95 5.45 -49.05 5.5 -49.1 5.6 -49.2 5.65 -49.25 5.75 -49.35 5.8 -49.35 5.85 -49.45 5.95 -49.5 6.0 -49.55 6.05 -49.6 6.1 -49.65 6.15 -49.75 6.2 -49.8 6.25 -49.85 6.3 -49.95 6.35 -50.0 6.4 -50.05 6.45 -50.15 6.5 -50.2 6.55 -50.25 6.6 -50.3 6.6 -50.3 6.65 -50.35 6.65 -50.4 6.7 -50.4 6.7 -50.45 6.75 -50.45 6.75 -50.5 6.8 -50.5 6.8 -50.5 6.85 -50.55 6.85 -50.55 6.9 -50.55 6.95 -50.55 7.0 -50.55 7.0 -50.55 7.05 -50.65 8.0 -50.65 8.1 -50.65 8.9 -50.75 10.45 -50.8 12.0 -50.8 12.75 -50.8 13.1 -50.8 13.7 -50.8 14.35 -50.8 14.65 -50.85 17.9 -50.75 21.85 -50.6 25.5 -50.35 28.8 -50.1 32.0 -49.6 36.05 -49.5 36.7 -49.45 37.35 -49.35 38.0 -49.25 38.65 -49.15 39.3 -49.05 39.95 -48.95 40.6 -48.85 41.25 -48.75 41.9 -48.65 42.55 -48.55 43.2 -48.45 43.85 -48.3 44.45 -48.2 45.1 -48.05 45.75 -47.95 46.4 -47.3 49.7 -46.15 54.2 -46.0 54.9 -46.0 55.05 -46.0 55.1 -46.0 55.15 -46.0 55.15 -46.0 55.2 -46.0 55.25 -46.0 55.3 -46.05 55.3 -46.05 55.35 -46.1 55.35 -46.15 55.4 -46.2 55.4 -46.2 55.4 -46.25 55.45 -46.3 55.45 -46.35 55.45 -46.35 55.4 -46.4 55.4 -46.45 55.4 -46.5 55.4 -46.5 55.4 -46.55 55.35 -46.55 55.35 -46.6 55.35 -46.65 55.3 -46.65 55.3 -46.65 55.25 -46.65 55.2 -46.7 55.2 -46.7 55.15 -46.75 55.15 -46.75 55.1 -46.75 55.05 -46.8 55.05 -46.8 55.0 -46.8 55.0 -46.85 54.95 -46.85 54.95 -46.85 54.9 -46.9 54.85 -46.9 54.85 -46.9 54.8 -46.9 54.8 -47.3 54.0 -48.4 51.8 -48.45 51.7 -48.6 51.4 -49.45 52.45 -49.65 52.65 -49.75 52.7 -49.8 52.8 -49.9 52.85 -49.95 52.9 -50.05 52.95 -50.15 53.0 -50.2 53.05 -50.3 53.1 -50.4 53.2 -50.5 53.25 -50.6 53.3 -50.65 53.3 -50.75 53.35 -50.85 53.4 -50.95 53.45 -51.05 53.5 -51.5 53.65 -52.6 53.85 -52.6 53.9 -52.6 53.95 -52.6 53.95 -52.6 54.0 -52.6 54.05 -52.6 54.05 -52.6 54.1 -52.6 54.15 -52.6 54.15 -52.55 54.2 -52.55 54.2 -52.55 54.25 -52.55 54.3 -52.5 54.3 -52.5 54.35 -52.5 54.4 -51.6 57.85 -50.0 62.4 -49.8 63.0 -49.5 63.9 -49.5 63.95 -49.45 64.0 -49.45 64.05 -49.45 64.1 -49.45 64.1 -49.4 64.15 -49.4 64.2 -49.4 64.25 -49.4 64.3 -49.4 64.35 -49.4 64.4 -49.4 64.45 -49.4 64.5 -49.4 64.55 -49.4 64.55 -49.4 64.6 -49.4 64.65 -49.4 64.7 -49.45 64.75 -49.45 64.75 -49.45 64.8 -49.5 64.8 -49.55 64.85 -49.55 64.85 -49.6 64.85 -49.65 64.85 -49.7 64.85 -49.75 64.85 -49.8 64.85 -49.85 64.85 -49.9 64.85 -49.95 64.8 -50.0 64.8 -50.05 64.75 -50.1 64.7 -50.2 64.6 -50.3 64.5 -50.3 64.45 -51.6 63.0 -52.7 61.75 -52.9 61.55 -53.05 61.3 -53.25 61.1 -53.4 60.85 -53.6 60.65 -53.8 60.4 -53.95 60.15 -54.15 59.95 -54.3 59.7 -54.45 59.45 -54.65 59.25 -54.8 59.0 -54.95 58.75 -55.15 58.5 -55.3 58.25 -55.45 58.05 -55.65 57.75 -55.7 57.7 -55.75 57.65 -55.75 57.6 -55.8 57.6 -55.85 57.55 -55.85 57.55 -55.9 57.55 -55.95 57.55 -56.0 57.55 -56.05 57.55 -56.1 57.55 -56.15 57.55 -56.2 57.6 -56.3 57.6 -56.35 57.6 -56.4 57.65 -56.45 57.65 -56.5 57.65 -56.6 57.65 -56.65 57.65 -56.7 57.7 -56.75 57.7 -56.85 57.7 -56.9 57.7 -56.95 57.7 -57.0 57.7 -57.1 57.7 -57.3 57.7 -57.45 57.7 -57.65 57.7 -57.85 57.7 -58.05 57.7 -58.2 57.65 -58.4 57.65 -58.55 57.6 -58.75 57.55 -58.9 57.5 -59.1 57.4 -59.25 57.35 -59.45 57.25 -59.6 57.2 -59.75 57.1 -59.95 57.0 -60.9 56.35 -61.2 56.05 -61.25 56.0 -61.3 56.0 -61.4 55.95 -61.4 55.95 -61.4 56.0 -61.4 56.0 -61.45 56.05 -61.45 56.1 -61.45 56.1 -61.45 56.2 -61.45 56.25 -61.45 56.3 -61.5 56.35 -61.5 56.35 -61.55 56.4 -61.6 56.4 -61.65 56.4 -61.65 56.45 -61.7 56.45 -61.7 56.45 -61.75 56.45 -61.8 56.45 -61.8 56.45 -61.85 56.45 -61.9 56.45 -61.9 56.45 -61.95 56.45 -62.0 56.45 -62.0 56.45 -62.05 56.4 -62.05 56.4 -62.1 56.4 -62.1 56.4 -62.35 56.15 -62.55 56.0 -62.7 55.8 -62.9 55.65 -63.1 55.45 -63.25 55.25 -63.4 55.1 -63.6 54.9 -63.75 54.7 -63.9 54.5 -64.1 54.3 -64.25 54.1 -64.4 53.9 -64.55 53.7 -64.7 53.5 -64.85 53.3 -65.0 53.1 -65.75 52.0 -67.0 49.8 -67.0 49.75 -67.05 49.75 -67.05 49.7 -67.1 49.65 -67.1 49.65 -67.15 49.6 -67.15 49.55 -67.15 49.5 -67.2 49.5 -67.2 49.45 -67.25 49.4 -67.25 49.4 -67.3 49.35 -67.3 49.3 -67.35 49.3 -67.35 49.25 -67.4 49.3 -67.4 49.3 -67.45 49.35 -67.45 49.4 -67.45 49.4 -67.45 49.45 -67.45 49.5 -67.45 49.5 -67.45 49.55 -67.45 49.6 -67.45 49.95 -67.45 49.65 -67.45 49.7 -67.45 49.7 -67.45 49.75 -67.45 49.75 -67.45 50.15 -67.45 51.85 -67.45 51.95 -67.45 52.25 -67.45 52.3 -67.5 52.35 -67.5 52.35 -67.5 52.4 -67.55 52.4 -67.55 52.45 -67.6 52.45 -67.65 52.45 -67.7 52.5 -67.75 52.5 -67.8 52.5 -68.05 52.45 -68.1 52.45 -68.15 52.45 -68.2 52.45 -68.2 52.4 -68.25 52.35 -68.25 52.3 -68.35 52.0 -68.35 51.85 -68.85 49.3 -69.15 47.6 -69.15 47.5 -69.2 47.4 -69.2 47.3 -69.25 47.25 -69.3 47.15 -69.3 47.05 -69.35 47.0 -69.4 46.9 -69.45 46.8 -69.5 46.75 -69.55 46.65 -69.6 46.55 -69.65 46.5 -69.7 46.4 -69.75 46.35 -69.85 46.25 -70.05 46.0 -72.4 43.4 -72.45 43.35 -72.65 43.15 -72.65 43.15 -72.65 43.15 -72.65 43.05 -72.75 43.0 -72.75 43.0 -72.75 43.0 -72.75 43.0 -72.75 43.0 -74.15 41.2 -74.55 40.6 -74.55 40.55 -74.6 40.55 -74.6 40.55 -74.65 40.55 -74.7 40.55 -74.75 40.6 -74.75 40.6 -74.8 40.65 -74.8 40.75 -74.8 40.75 -74.85 40.85 -74.95 41.0 -75.05 41.1 -75.1 41.2 -75.2 41.3 -75.25 41.4 -75.35 41.55 -75.45 41.65 -75.5 41.75 -75.6 41.85 -75.7 41.95 -75.8 42.05 -75.85 42.15 -75.95 42.3 -76.05 42.4 -76.15 42.5 -76.3 42.7 -76.5 42.9 -76.65 43.05 -76.85 43.25 -77.0 43.45 -77.2 43.65 -77.35 43.8 -77.55 44.0 -77.7 44.2 -77.9 44.35 -78.1 44.55 -78.25 44.75 -78.45 44.9 -78.65 45.1 -78.8 45.25 -79.0 45.45 -79.45 45.85 -79.9 46.25 -80.3 46.65 -80.8 47.05 -81.25 47.45 -81.7 47.8 -82.15 48.2 -82.6 48.55 -83.1 48.9 -83.55 49.3 -84.05 49.65 -84.55 50.0 -85.0 50.3 -85.5 50.65 -86.0 51.0 -86.5 51.35 -86.55 51.4 -86.6 51.4 -86.65 51.45 -86.7 51.45 -86.75 51.5 -86.8 51.5 -86.85 51.5 -86.9 51.5 -86.95 51.55 -87.0 51.55 -87.1 51.55 -87.15 51.55 -87.2 51.55 -87.25 51.55 -87.3 51.55 -87.35 51.55 -87.4 51.55 -87.45 51.5 -87.5 51.5 -87.5 51.5 -87.55 51.45 -87.55 51.4 -87.55 51.4 -87.6 51.35 -87.6 51.3 -87.6 51.25 -87.6 51.15 -87.6 51.1 -87.6 51.05 -87.55 51.0 -87.55 50.95 -87.55 50.9 -87.5 50.85 -87.5 50.8 -87.45 50.75 -87.45 50.7 -87.4 50.65 -87.4 50.6 -87.5 50.85 -87.35 50.5 -87.05 49.9 -86.75 49.3 -86.4 48.7 -86.15 48.1 -85.85 47.5 -85.55 46.9 -85.25 46.3 -85.0 45.7 -84.75 45.1 -84.5 44.45 -84.25 43.85 -84.0 43.2 -83.75 42.6 -83.55 41.95 -83.3 41.35 -83.1 40.7 -82.85 39.95 -82.65 39.25 -82.4 38.5 -82.2 37.8 -81.95 37.05 -81.75 36.35 -81.55 35.6 -81.4 34.85 -81.2 34.1 -81.05 33.35 -80.85 32.6 -80.75 31.9 -80.6 31.1 -80.5 30.4 -80.4 29.6 -80.3 28.85 -80.25 28.55 -80.25 28.25 -80.2 27.95 -80.2 27.7 -80.2 27.4 -80.15 27.1 -80.15 26.8 -80.15 26.5 -80.15 26.2 -80.15 25.9 -80.15 25.6 -80.2 25.35 -80.2 25.05 -80.2 24.75 -80.25 24.45 -80.25 24.15 -80.3 23.85 -80.35 23.55 -80.4 23.25 -80.45 22.95 -80.5 22.65 -80.55 22.3 -80.6 22.0 -80.65 21.7 -80.75 21.4 -80.8 21.1 -80.9 20.85 -80.95 20.5 -81.05 20.25 -81.15 19.95 -81.2 19.65 -81.3 19.35 -81.35 19.2 -81.4 19.05 -81.45 18.9 -81.5 18.8 -81.55 18.65 -81.6 18.5 -81.65 18.35 -81.7 18.2 -81.8 18.1 -81.85 17.95 -81.9 17.8 -81.95 17.65 -82.05 17.55 -82.1 17.4 -82.2 17.25 -82.25 17.15 -82.25 17.15 -82.3 17.1 -82.3 17.0 -82.3 17.05 -82.3 17.0 -82.35 17.0 -82.35 16.95 -82.35 16.95 -82.4 16.9 -82.4 16.9 -82.4 16.85 -82.45 16.85 -82.45 16.85 -82.5 16.8 -82.5 16.8 -82.55 16.8 -82.55 16.85 -82.6 16.85 -82.6 16.9 -82.65 16.9 -82.65 16.95 -82.65 17.0 -82.7 17.0 -82.7 17.05 -82.7 17.1 -82.7 17.1 -82.7 17.15 -82.75 17.2 -82.75 17.25 -82.75 17.25 -82.75 17.3 -82.8 17.3 -83.65 19.75 -84.1 21.0 -84.25 21.4 -84.45 21.8 -84.6 22.25 -84.8 22.6 -84.95 23.05 -85.15 23.4 -85.35 23.8 -85.55 24.2 -85.75 24.6 -85.95 24.95 -86.2 25.35 -86.4 25.7 -86.65 26.1 -86.9 26.45 -87.15 26.8 -87.4 27.15 -87.5 27.35 -87.7 27.6 -87.75 27.65 -87.75 27.65 -87.8 27.7 -87.85 27.7 -87.85 27.7 -87.9 27.75 -87.95 27.75 -87.95 27.75 -88.0 27.75 -88.05 27.75 -88.1 27.75 -88.15 27.75 -88.15 27.75 -88.2 27.75 -88.25 27.75 -88.25 27.75 -88.3 27.75 -88.3 27.7 -88.35 27.7 -88.35 27.7 -88.35 27.65 -88.4 27.65 -88.4 27.6 -88.4 27.55 -88.4 27.55 -88.4 27.5 -88.4 27.45 -88.4 27.35 -88.4 27.3 -88.4 27.25 -88.4 27.2 -88.4 27.1 -88.4 27.05 -88.35 27.0 -88.35 26.95 -88.35 26.9 -88.35 26.8 -88.3 26.75 -88.3 26.7 -88.25 26.65 -88.25 26.6 -88.25 26.5 -87.9 25.75 -87.55 24.65 -87.4 24.15 -87.2 23.65 -87.05 23.15 -86.9 22.6 -86.75 22.1 -86.6 21.6 -86.45 21.1 -86.35 20.55 -86.2 20.05 -86.1 19.55 -85.95 19.05 -85.85 18.5 -85.75 18.0 -85.6 17.45 -85.5 16.95 -85.4 16.4 -85.35 16.25 -85.35 16.1 -85.35 15.95 -85.3 15.85 -85.3 15.7 -85.25 15.55 -85.25 15.4 -85.25 15.25 -85.25 15.1 -85.25 14.95 -85.2 14.8 -85.2 14.7 -85.25 14.55 -85.25 14.4 -85.25 14.25 -85.25 14.1 -85.25 14.05 -85.25 14.0 -85.3 13.95 -85.3 13.95 -85.3 13.9 -85.3 13.85 -85.35 13.8 -85.35 13.8 -85.35 13.75 -85.4 13.7 -85.4 13.65 -85.4 13.65 -85.45 13.6 -85.45 13.55 -85.5 13.55 -85.5 13.5 -85.6 13.4 -85.65 13.3 -85.75 13.2 -85.8 13.1 -85.9 13.0 -85.95 12.9 -86.05 12.75 -86.1 12.65 -86.2 12.55 -86.25 12.45 -86.35 12.35 -86.4 12.25 -86.45 12.1 -86.55 12.0 -86.6 11.9 -86.65 11.8 -86.65 11.75 -86.7 11.7 -86.7 11.65 -86.7 11.65 -86.75 11.6 -86.75 11.55 -86.8 11.55 -86.85 11.5 -86.85 11.5 -86.95 11.5 -87.15 11.6 -87.5 11.8 -89.15 12.75 -89.85 13.15 -90.05 13.25 -90.2 13.35 -90.4 13.45 -90.6 13.5 -90.75 13.6 -90.95 13.7 -91.15 13.8 -91.3 13.85 -91.5 13.95 -91.7 14.0 -91.9 14.1 -92.05 14.15 -92.25 14.25 -92.45 14.3 -92.65 14.35 -92.85 14.45 -93.0 14.5 -93.2 14.55 -93.35 14.6 -93.5 14.6 -93.7 14.65 -93.85 14.7 -94.05 14.75 -94.2 14.75 -94.35 14.8 -94.55 14.85 -94.7 14.85 -94.9 14.9 -95.05 14.95 -95.25 14.95 -95.4 15.0 -95.55 15.0 -95.6 15.0 -95.65 15.0 -95.75 15.05 -95.8 15.05 -95.85 15.05 -95.9 15.05 -95.95 15.1 -96.05 15.1 -96.1 15.1 -96.15 15.1 -96.2 15.1 -96.25 15.1 -96.3 15.15 -96.4 15.15 -96.45 15.15 -96.5 15.15 -96.55 15.15 -96.6 15.15 -96.65 15.15 -96.7 15.15 -96.7 15.1 -96.75 15.1 -96.8 15.1 -96.8 15.05 -96.85 15.05 -96.85 15.0 -96.85 14.95 -96.85 14.9 -96.85 14.9 -96.85 14.85 -96.85 14.8 -96.85 14.75 -96.85 14.7 -96.85 14.7 -96.85 14.65 -96.85 14.65 -96.8 14.6 -96.8 14.55 -96.8 14.55 -96.8 14.5 -96.75 14.5 -96.75 14.45 -96.75 14.45 -96.7 14.4 -96.7 14.4 -96.7 14.35 -96.65 14.35 -96.65 14.35 -96.25 13.9 -95.85 13.5 -95.6 13.25 -95.35 13.0 -95.1 12.75 -94.9 12.5 -94.65 12.25 -94.4 12.0 -94.2 11.7 -93.95 11.45 -93.75 11.2 -93.5 10.95 -93.3 10.65 -93.05 10.4 -92.85 10.1 -92.65 9.85 -92.45 9.55 -92.25 9.25 -91.75 8.6 -91.3 7.9 -90.85 7.2 -90.4 6.5 -89.95 5.85 -89.5 5.1 -89.05 4.4 -88.65 3.7 -88.25 3.0 -87.85 2.25 -87.45 1.55 -87.05 0.8 -86.65 0.1 -86.25 -0.65 -85.9 -1.35 -85.5 -2.15 -83.65 -5.9 -81.15 -12.05 -79.55 -15.85 -78.45 -18.0 -78.35 -18.25 -78.25 -18.45 -78.1 -18.7 -78.0 -18.9 -77.9 -19.15 -77.8 -19.35 -77.7 -19.6 -77.6 -19.8 -77.5 -20.05 -77.4 -20.25 -77.3 -20.5 -77.25 -20.75 -77.15 -20.95 -77.05 -21.2 -76.95 -21.45 -76.9 -21.65 -76.8 -21.95 -76.7 -22.2 -76.6 -22.5 -76.5 -22.75 -76.4 -23.05 -76.3 -23.3 -76.15 -23.6 -76.05 -23.85 -75.95 -24.1 -75.85 -24.4 -75.75 -24.65 -75.6 -24.9 -75.5 -25.2 -75.35 -25.45 -75.25 -25.7 -75.15 -26.0 -74.95 -26.4 -74.8 -26.75 -74.6 -27.1 -74.4 -27.45 -74.2 -27.8 -74.0 -28.15 -73.8 -28.5 -73.6 -28.85 -73.35 -29.2 -73.1 -29.5 -72.9 -29.85 -72.65 -30.2 -72.4 -30.5 -72.1 -30.8 -71.85 -31.1 -71.55 -31.4 -71.55 -31.4 -71.55 -31.45 -71.5 -31.5 -71.5 -31.55 -71.5 -31.55 -71.5 -31.55 -71.45 -31.55 -71.45 -31.55 -71.4 -31.55 -71.4 -31.6 -71.35 -31.6 -71.3 -31.65 -71.3 -31.7 -71.3 -31.75 -71.3 -31.75 -71.3 -31.75 -71.15 -31.75 -71.15 -31.9 -71.15 -31.9 -71.15 -31.9 -71.15 -31.9 -71.15 -31.9 -71.1 -31.9 -71.1 -31.9 -71.05 -31.9 -71.05 -31.95 -71.0 -31.95 -71.0 -32.0 -70.7 -32.25 -70.25 -32.55 -70.05 -32.7 -69.8 -32.85 -69.6 -33.0 -69.4 -33.15 -69.15 -33.3 -68.95 -33.45 -68.7 -33.55 -68.5 -33.7 -68.25 -33.8 -68.0 -33.95 -67.8 -34.05 -67.55 -34.15 -67.3 -34.25 -67.05 -34.35 -66.85 -34.45 -66.6 -34.55 -66.55 -34.55 -66.5 -34.6 -66.4 -34.6 -66.35 -34.65 -66.3 -34.7 -66.25 -34.7 -66.2 -34.75 -66.1 -34.75 -66.05 -34.8 -66.0 -34.8 -65.95 -34.85 -65.9 -34.9 -65.85 -34.9 -65.8 -34.95 -65.75 -35.0 -65.7 -35.0 -64.35 -36.0 -62.0 -37.35 -61.8 -37.45 -61.6 -37.55 -61.4 -37.65 -61.15 -37.75 -60.95 -37.85 -60.75 -37.95 -60.55 -38.05 -60.3 -38.1 -60.1 -38.2 -59.9 -38.3 -59.7 -38.35 -59.45 -38.4 -59.25 -38.5 -59.0 -38.55 -58.8 -38.6 -58.55 -38.65 -56.5 -39.15 -55.0 -39.35 -54.95 -39.35 -54.95 -39.35 -54.9 -39.35 -54.9 -39.35 -54.85 -39.4 -54.8 -39.4 -54.8 -39.4 -54.75 -39.4 -54.75 -39.4 -54.7 -39.4 -54.65 -39.45 -54.65 -39.45 -54.6 -39.45 -54.6 -39.45 -54.55 -39.45 -54.55 -39.45 -53.8 -39.7 -52.6 -40.05 -50.8 -40.55 -50.7 -40.55 -50.4 -40.65 -47.55 -41.55 -47.45 -41.6 -47.35 -41.65 -47.2 -41.7 -47.15 -41.75 -47.1 -41.75 -47.05 -41.75 -47.0 -41.75 -46.95 -41.75 -45.1 -42.4 -43.25 -43.1 -43.2 -43.1 -43.2 -43.1 -43.15 -43.15 -43.1 -43.15 -43.1 -43.15 -43.05 -43.2 -43.05 -43.2 -43.0 -43.2 -42.95 -43.25 -42.95 -43.25 -42.9 -43.3 -42.9 -43.3 -42.85 -43.3 -42.85 -43.35 -43.2 -43.05 -42.8 -43.4 -42.65 -43.5 -42.55 -43.6 -42.4 -43.75 -42.3 -43.85 -42.2 -44.0 -42.05 -44.1 -41.95 -44.25 -41.85 -44.35 -41.75 -44.5 -41.65 -44.6 -41.55 -44.75 -41.45 -44.9 -41.35 -45.0 -41.25 -45.15 -41.15 -45.3 -41.05 -45.45 -40.85 -45.7 -40.7 -45.95 -40.5 -46.25 -40.3 -46.5 -40.1 -46.75 -39.95 -47.0 -39.75 -47.25 -39.55 -47.5 -39.35 -47.75 -39.15 -47.95 -38.95 -48.2 -38.75 -48.45 -38.55 -48.7 -38.35 -48.9 -38.1 -49.15 -37.9 -49.4 -37.9 -49.4 -37.8 -49.55 L-37.85 -49.6 Q-37.85 -49.6 -37.8 -49.55 -37.8 -49.55 -37.8 -49.55 -37.75 -49.55 -37.7 -49.6 -37.7 -49.6 -37.65 -49.6 -37.65 -49.65 -37.6 -49.65 -37.6 -49.7 -37.6 -49.75 -37.55 -49.8 -37.5 -49.8 -37.5 -49.85 -37.45 -49.85 -37.4 -49.9 -37.35 -49.9 -37.35 -49.95 -37.3 -49.95 -37.25 -50.0 -37.2 -50.0 -37.2 -50.05 -37.15 -50.05 -37.1 -50.1 -37.1 -50.1 -37.05 -50.15 -37.0 -50.2 -36.9 -50.3 -36.75 -50.4 -36.65 -50.55 -36.5 -50.65 -36.4 -50.75 -36.25 -50.85 -36.1 -50.95 -35.95 -51.0 -35.85 -51.1 -35.7 -51.2 -35.55 -51.3 -35.4 -51.35 -35.3 -51.45 -35.15 -51.55 -35.0 -51.6 -34.85 -51.7 -34.5 -51.9 -34.15 -52.05 -33.85 -52.25 -33.5 -52.4 -33.15 -52.6 -32.8 -52.75 -32.45 -52.9 -32.1 -53.1 -31.75 -53.25 -31.4 -53.4 -31.05 -53.55 -30.7 -53.7 -30.35 -53.85 -30.0 -54.0 -29.65 -54.15 -29.3 -54.3 -29.15 -54.35 -26.35 -55.45 -24.55 -56.15 -23.35 -56.6 -19.75 -57.9 -19.6 -57.95 -19.6 -57.95 -19.5 -57.95 -19.45 -58.0 -19.45 -58.0 -19.4 -58.0 -19.35 -58.0 -19.3 -58.0 -19.25 -58.0 -19.25 -58.0 -19.2 -58.0 -19.15 -58.0 -19.1 -58.0 -19.05 -58.0 -19.05 -58.0 -19.0 -58.0 -18.95 -58.0 L-18.95 -58.0 M-36.2 -49.8 Q-36.25 -49.8 -36.35 -49.85 -36.4 -49.85 -36.45 -49.85 -36.5 -49.85 -36.55 -49.8 -36.6 -49.8 -36.65 -49.8 -36.7 -49.75 -36.75 -49.75 -36.8 -49.7 -36.85 -49.65 -36.9 -49.65 -36.9 -49.6 -36.95 -49.6 -37.0 -49.55 -37.1 -49.45 -37.25 -49.35 -37.35 -49.2 -37.45 -49.1 -37.6 -49.0 -37.7 -48.85 -37.8 -48.75 -37.9 -48.65 -38.05 -48.5 -38.15 -48.4 -38.25 -48.25 -38.35 -48.15 -38.45 -48.05 -38.55 -47.9 -38.65 -47.8 -38.75 -47.65 -38.75 -47.65 -38.8 -47.65 -38.8 -47.6 -38.8 -47.6 -38.8 -47.6 -38.85 -47.55 -38.85 -47.55 -38.85 -47.55 -38.85 -47.5 -38.85 -47.5 -38.85 -47.5 -38.85 -47.45 -38.85 -47.45 -38.8 -47.4 -38.8 -47.35 -38.75 -47.35 -37.7 -48.5 -37.55 -48.65 -37.3 -48.9 -36.9 -49.2 -36.25 -49.75 -36.2 -49.8 L-36.2 -49.8 M-61.6 -36.65 Q-61.65 -36.65 -61.75 -36.7 -61.8 -36.7 -61.85 -36.7 -61.95 -36.7 -62.0 -36.7 -62.05 -36.65 -62.1 -36.65 -62.15 -36.65 -62.2 -36.6 -62.25 -36.6 -62.35 -36.55 -62.4 -36.55 -62.45 -36.5 -62.5 -36.45 -62.55 -36.45 -62.8 -36.3 -63.65 -35.75 -63.5 -35.8 -63.35 -35.85 -63.2 -35.9 -63.1 -35.95 -62.95 -36.0 -62.8 -36.1 -62.7 -36.15 -62.55 -36.2 -62.45 -36.25 -62.3 -36.3 -62.2 -36.35 -62.05 -36.4 -61.95 -36.5 -61.85 -36.55 -61.7 -36.6 -61.6 -36.65 L-61.6 -36.65" fill="#0700ff" fill-rule="evenodd" stroke="none"/>
    <path d="M-37.8 -49.55 Q-37.8 -49.55 -37.85 -49.45 -37.85 -49.4 -37.9 -49.4 -38.1 -49.15 -38.35 -48.95 -38.55 -48.7 -38.75 -48.45 -38.95 -48.2 -39.15 -48.0 -39.35 -47.75 -39.55 -47.5 -39.75 -47.25 -39.95 -47.0 -40.1 -46.75 -40.3 -46.5 -40.5 -46.25 -40.65 -45.95 -40.85 -45.7 -41.05 -45.45 -41.15 -45.3 -41.25 -45.15 -41.35 -45.05 -41.45 -44.9 -41.55 -44.75 -41.65 -44.6 -41.75 -44.5 -41.85 -44.35 -41.95 -44.25 -42.05 -44.1 -42.2 -43.95 -42.3 -43.85 -42.4 -43.75 -42.55 -43.6 -42.65 -43.5 -42.8 -43.4 -42.85 -43.35 -42.85 -43.35 -42.85 -43.35 -42.9 -43.3 -42.9 -43.3 -42.95 -43.25 -42.95 -43.25 -43.0 -43.2 -43.0 -43.2 -43.05 -43.2 -43.1 -43.15 -43.1 -43.15 -43.15 -43.15 -43.15 -43.1 -43.2 -43.1 -43.25 -43.1 -44.85 -42.5 -46.95 -41.75 -47.0 -41.75 -47.05 -41.75 -47.05 -41.75 -47.1 -41.75 -47.15 -41.75 -47.15 -41.75 -47.15 -41.75 -46.6 -42.25 -46.25 -42.5 -46.0 -42.7 -45.85 -42.8 -45.75 -42.9 -45.6 -43.0 -45.45 -43.15 -45.35 -43.25 -45.25 -43.35 -45.1 -43.5 -45.0 -43.6 -44.9 -43.75 -44.75 -43.85 -44.65 -44.0 -44.55 -44.1 -44.45 -44.25 -44.35 -44.4 -44.3 -44.45 -44.15 -44.65 -44.1 -44.75 -43.45 -45.6 -43.25 -45.85 -43.05 -46.15 -42.85 -46.4 -42.65 -46.6 -42.4 -46.85 -42.2 -47.1 -41.95 -47.3 -41.7 -47.55 -41.5 -47.75 -41.25 -47.95 -40.95 -48.15 -40.7 -48.35 -40.45 -48.5 -40.15 -48.65 -39.9 -48.85 -39.6 -49.0 -39.35 -49.1 -38.95 -49.3 -38.35 -49.5 -38.25 -49.55 -38.2 -49.55 -38.15 -49.6 -38.1 -49.6 -38.05 -49.6 -38.0 -49.6 -38.0 -49.6 -37.95 -49.6 -37.9 -49.6 -37.85 -49.55 -37.8 -49.55 L-37.8 -49.55" fill="#c8c8ca" fill-rule="evenodd" stroke="none"/>
    <path d="M-37.6 -49.75 Q-37.6 -49.7 -37.65 -49.65 -37.65 -49.6 -37.7 -49.6 -37.75 -49.55 -37.8 -49.55 -37.8 -49.6 -37.8 -49.65 -37.75 -49.7 -37.75 -49.7 -37.7 -49.75 -37.65 -49.75 -37.65 -49.75 -37.6 -49.75 L-37.6 -49.75" fill="#c8c8ca" fill-rule="evenodd" stroke="none"/>
    <path d="M-71.3 -31.75 Q-71.3 -31.7 -71.3 -31.65 -71.35 -31.6 -71.4 -31.6 -71.4 -31.55 -71.45 -31.55 -71.5 -31.6 -71.5 -31.65 -71.5 -31.7 -71.45 -31.7 -71.45 -31.75 -71.45 -31.75 -71.4 -31.75 -71.35 -31.75 -71.35 -31.75 -71.3 -31.75 L-71.3 -31.75" fill="#c8c8ca" fill-rule="evenodd" stroke="none"/>
    <path d="M-71.0 -32.0 Q-71.05 -31.9 -71.15 -31.9 -71.15 -31.95 -71.15 -31.95 -71.1 -32.0 -71.1 -32.0 -71.05 -32.0 -71.0 -32.0 L-71.0 -32.0" fill="#c8c8ca" fill-rule="evenodd" stroke="none"/>
    <path d="M-71.15 -31.9 Q-71.15 -31.85 -71.15 -31.8 -71.2 -31.8 -71.2 -31.75 -71.25 -31.75 -71.3 -31.75 -71.3 -31.9 -71.15 -31.9 L-71.15 -31.9" fill="#c8c8ca" fill-rule="evenodd" stroke="none"/>
    <path d="M-72.75 43.0 Q-72.7 43.0 -72.65 43.05 -72.65 43.1 -72.65 43.15 -72.75 43.15 -72.75 43.0 L-72.75 43.0" fill="#c8c8ca" fill-rule="evenodd" stroke="none"/>
    <path d="M-108.0 208.8 Q-108.05 208.8 -108.1 208.85 -108.1 208.8 -108.05 208.8 -108.05 208.8 -108.05 208.75 -108.05 208.75 -108.0 208.8 L-108.0 208.8" fill="#c8c8ca" fill-rule="evenodd" stroke="none"/>
    <path d="M-12.65 42.45 Q-12.65 42.45 -12.6 42.4 -12.6 42.4 -12.6 42.45 -12.6 42.45 -12.6 42.45 -12.6 42.45 -12.65 42.45 -12.65 42.5 -12.65 42.5 -12.65 42.5 -12.65 42.45 L-12.65 42.45" fill="#ffffff" fill-rule="evenodd" stroke="none"/>
    <path d="M-36.2 -49.8 Q-36.25 -49.75 -36.9 -49.2 -37.3 -48.9 -37.55 -48.65 -37.8 -48.4 -38.15 -48.0 -38.7 -47.4 -38.75 -47.35 -38.8 -47.4 -38.8 -47.45 -38.85 -47.45 -38.85 -47.5 -38.85 -47.5 -38.85 -47.55 -38.85 -47.55 -38.8 -47.6 -38.8 -47.6 -38.8 -47.6 -38.75 -47.65 -38.75 -47.65 -38.75 -47.65 -38.75 -47.7 -38.65 -47.8 -38.55 -47.95 -38.45 -48.05 -38.35 -48.15 -38.25 -48.3 -38.15 -48.4 -38.0 -48.5 -37.9 -48.65 -37.8 -48.75 -37.7 -48.85 -37.6 -49.0 -37.45 -49.1 -37.35 -49.2 -37.25 -49.3 -37.1 -49.45 -37.0 -49.55 -36.95 -49.6 -36.9 -49.6 -36.85 -49.65 -36.85 -49.7 -36.8 -49.7 -36.75 -49.75 -36.7 -49.75 -36.65 -49.8 -36.6 -49.8 -36.55 -49.8 -36.5 -49.85 -36.45 -49.85 -36.4 -49.85 -36.3 -49.85 -36.25 -49.8 -36.2 -49.8 L-36.2 -49.8" fill="#c8c8ca" fill-rule="evenodd" stroke="none"/>
    <path d="M-61.6 -36.65 Q-61.7 -36.6 -61.85 -36.55 -61.95 -36.45 -62.05 -36.4 -62.2 -36.35 -62.3 -36.3 -62.45 -36.25 -62.55 -36.2 -62.7 -36.15 -62.8 -36.1 -62.95 -36.0 -63.1 -35.95 -63.2 -35.9 -63.35 -35.85 -63.5 -35.8 -63.65 -35.75 -62.85 -36.25 -62.55 -36.45 -62.5 -36.5 -62.45 -36.5 -62.4 -36.55 -62.35 -36.55 -62.25 -36.6 -62.2 -36.6 -62.15 -36.65 -62.1 -36.65 -62.05 -36.65 -62.0 -36.7 -61.95 -36.7 -61.85 -36.7 -61.8 -36.7 -61.75 -36.7 -61.65 -36.7 -61.6 -36.65 L-61.6 -36.65" fill="#c8c8ca" fill-rule="evenodd" stroke="none"/>
  </g>
</svg>
