<?xml version="1.0" encoding="UTF-8" standalone="no"?>
<svg xmlns:xlink="http://www.w3.org/1999/xlink" height="200.0px" width="200.0px" xmlns="http://www.w3.org/2000/svg">
  <g transform="matrix(1.0, 0.0, 0.0, 1.0, 100.0, 100.0)">
    <path d="M74.4 -4.1 Q74.4 -4.15 74.4 -4.2 74.35 -4.25 74.35 -4.25 74.35 -4.3 74.3 -4.35 74.3 -4.35 74.25 -4.4 74.25 -4.45 74.2 -4.45 74.05 -4.6 73.75 -4.9 70.95 -7.45 70.45 -7.95 69.85 -8.5 69.3 -9.1 68.75 -9.7 68.25 -10.3 67.7 -10.9 67.2 -11.55 66.7 -12.2 66.2 -12.85 65.7 -13.5 65.25 -14.15 64.8 -14.8 64.35 -15.5 63.9 -16.2 63.5 -16.9 63.1 -17.55 62.7 -18.3 62.65 -18.35 62.65 -18.4 62.65 -18.4 62.6 -18.45 62.6 -18.5 62.55 -18.55 62.55 -18.6 62.55 -18.6 62.5 -18.65 62.5 -18.7 62.5 -18.75 62.5 -18.8 62.45 -18.85 62.45 -18.9 62.45 -18.9 62.45 -18.95 62.2 -19.85 61.6 -22.2 61.1 -24.25 60.8 -25.4 60.7 -25.85 60.55 -26.25 60.45 -26.7 60.35 -27.1 60.2 -27.55 60.1 -27.95 59.95 -28.35 59.85 -28.8 59.7 -29.2 59.55 -29.6 59.45 -30.05 59.3 -30.45 59.15 -30.85 59.0 -31.25 58.85 -31.7 58.7 -32.1 58.45 -32.7 58.25 -33.25 58.0 -33.85 57.7 -34.45 57.45 -35.0 57.2 -35.55 56.9 -36.15 56.6 -36.7 56.3 -37.25 56.0 -37.8 55.65 -38.35 55.35 -38.85 55.0 -39.4 54.65 -39.9 54.25 -40.45 53.9 -40.95 53.9 -40.95 50.4 -45.4 50.35 -45.45 50.3 -45.5 50.25 -45.55 50.25 -45.6 50.2 -45.65 50.15 -45.75 50.1 -45.8 50.1 -45.85 50.05 -45.9 50.0 -45.95 49.95 -46.0 49.95 -46.05 49.9 -46.1 49.85 -46.15 49.85 -46.25 49.8 -46.3 49.45 -46.95 48.1 -49.3 47.1 -51.15 46.45 -52.25 46.25 -52.6 46.0 -53.0 45.8 -53.35 45.55 -53.7 45.35 -54.05 45.1 -54.4 44.85 -54.7 44.6 -55.05 44.35 -55.4 44.1 -55.7 43.8 -56.0 43.55 -56.3 43.25 -56.6 42.95 -56.9 42.65 -57.2 42.35 -57.5 42.25 -57.55 42.25 -57.55 42.2 -57.6 42.25 -57.7 42.3 -57.7 42.3 -57.7 42.35 -57.7 42.4 -57.7 42.5 -57.65 42.7 -57.55 42.95 -57.4 43.05 -57.4 43.4 -57.2 43.75 -57.05 44.1 -56.9 44.45 -56.75 44.8 -56.6 45.15 -56.45 45.5 -56.3 45.85 -56.15 46.2 -56.05 46.55 -55.9 46.95 -55.8 47.3 -55.65 47.65 -55.55 48.05 -55.45 48.4 -55.35 48.8 -55.25 49.15 -55.15 49.55 -55.1 49.95 -55.0 50.3 -54.95 50.7 -54.9 51.1 -54.8 51.45 -54.75 51.85 -54.75 52.25 -54.7 52.65 -54.65 53.0 -54.65 53.4 -54.6 53.8 -54.6 54.2 -54.55 54.6 -54.55 55.0 -54.55 55.2 -54.55 56.1 -54.6 56.15 -54.6 56.2 -54.6 56.25 -54.6 56.3 -54.6 56.35 -54.6 56.35 -54.65 56.45 -54.65 56.5 -54.75 56.5 -54.8 56.55 -54.8 56.55 -54.85 56.55 -54.85 56.55 -54.9 56.55 -54.95 56.55 -55.0 56.55 -55.0 56.55 -55.05 56.5 -55.1 56.5 -55.1 56.5 -55.15 56.45 -55.15 56.45 -55.2 56.4 -55.2 56.4 -55.2 56.35 -55.25 56.35 -55.25 56.3 -55.25 56.25 -55.3 56.2 -55.3 56.15 -55.35 56.2 -55.35 56.1 -55.35 52.4 -56.95 50.05 -57.8 49.45 -58.0 48.85 -58.2 48.25 -58.4 47.65 -58.6 47.0 -58.75 46.4 -58.9 45.8 -59.05 45.2 -59.2 44.55 -59.35 43.95 -59.45 43.35 -59.55 42.7 -59.6 42.05 -59.7 41.45 -59.7 40.8 -59.75 40.15 -59.75 40.05 -59.75 40.05 -59.85 40.1 -59.9 40.15 -59.95 40.15 -59.95 40.25 -60.0 40.7 -60.15 41.35 -60.35 42.2 -60.65 42.45 -60.75 49.8 -63.1 58.0 -65.75 60.5 -66.55 61.55 -67.05 62.45 -67.55 64.85 -68.75 65.0 -68.8 65.5 -69.15 65.55 -69.15 65.55 -69.2 65.6 -69.2 65.65 -69.25 65.65 -69.25 65.7 -69.3 65.7 -69.3 65.7 -69.35 65.75 -69.4 65.75 -69.4 65.75 -69.45 65.75 -69.5 65.75 -69.5 65.75 -69.55 65.75 -69.6 65.75 -69.6 65.75 -69.65 65.75 -69.7 65.75 -69.7 65.75 -69.75 65.7 -69.8 65.7 -69.8 65.65 -69.85 65.6 -69.85 65.6 -69.85 65.55 -69.85 65.5 -69.9 65.45 -69.9 65.45 -69.9 65.4 -69.9 65.15 -69.85 64.75 -69.85 64.3 -69.8 64.1 -69.8 63.8 -69.75 63.5 -69.75 63.25 -69.7 62.95 -69.7 62.65 -69.65 62.35 -69.6 62.05 -69.6 61.75 -69.6 61.45 -69.55 61.2 -69.55 60.9 -69.5 60.6 -69.5 60.3 -69.5 60.0 -69.45 59.7 -69.45 59.4 -69.45 58.8 -69.45 58.2 -69.45 57.6 -69.4 57.0 -69.45 56.4 -69.45 55.8 -69.45 55.2 -69.5 54.6 -69.5 54.0 -69.55 53.4 -69.6 52.85 -69.65 52.25 -69.7 51.65 -69.75 51.05 -69.8 50.45 -69.85 49.85 -69.95 49.35 -70.0 48.85 -70.1 48.35 -70.15 47.9 -70.2 47.4 -70.3 46.9 -70.35 46.4 -70.45 45.95 -70.55 45.45 -70.65 44.95 -70.7 44.45 -70.8 44.0 -70.9 43.5 -71.0 43.0 -71.15 42.55 -71.25 42.05 -71.35 41.3 -71.55 40.55 -71.7 39.8 -71.9 39.05 -72.1 38.3 -72.3 37.55 -72.55 36.8 -72.75 36.05 -73.0 35.3 -73.2 34.55 -73.45 33.85 -73.7 33.1 -73.95 32.35 -74.2 31.65 -74.5 30.9 -74.75 30.2 -75.05 29.5 -75.3 28.85 -75.6 28.15 -75.9 27.45 -76.2 26.8 -76.5 26.15 -76.8 25.45 -77.15 24.8 -77.45 24.15 -77.8 23.55 -78.15 22.9 -78.55 22.25 -78.9 21.6 -79.3 21.0 -79.7 20.4 -80.1 19.8 -80.55 19.4 -80.8 19.0 -81.1 18.6 -81.35 18.2 -81.6 17.75 -81.8 17.35 -82.05 16.9 -82.25 16.5 -82.5 16.05 -82.7 15.65 -82.9 15.2 -83.1 14.75 -83.25 14.3 -83.45 13.85 -83.6 13.4 -83.75 12.95 -83.9 12.6 -84.0 12.25 -84.1 11.9 -84.2 11.55 -84.3 11.2 -84.4 10.8 -84.45 10.45 -84.55 10.1 -84.6 9.75 -84.65 9.4 -84.7 9.0 -84.75 8.65 -84.8 8.3 -84.85 7.95 -84.9 7.55 -84.9 7.2 -84.95 6.9 -84.95 6.6 -85.0 6.3 -85.0 6.05 -85.0 5.75 -85.0 5.45 -85.0 5.15 -85.0 4.85 -85.0 4.55 -85.0 4.3 -84.95 4.0 -84.95 3.7 -84.95 3.4 -84.9 3.1 -84.9 2.85 -84.9 2.55 -84.85 2.15 -84.8 1.8 -84.75 1.4 -84.7 1.05 -84.65 0.65 -84.6 0.3 -84.55 -0.1 -84.5 -0.45 -84.4 -0.85 -84.35 -1.2 -84.3 -1.55 -84.2 -1.95 -84.1 -2.3 -84.05 -2.7 -83.95 -3.05 -83.85 -3.4 -83.75 -5.75 -83.15 -15.85 -80.55 -16.65 -80.3 -18.35 -79.9 -18.45 -79.85 -18.5 -79.85 -18.55 -79.85 -18.55 -79.9 -18.55 -79.95 -18.6 -80.1 -18.6 -80.1 -18.6 -80.15 -18.6 -80.2 -18.6 -80.2 -18.65 -80.2 -18.7 -80.2 -18.75 -80.2 -18.75 -80.25 -18.8 -80.25 -18.85 -80.25 -18.9 -80.2 -18.95 -80.2 -19.0 -80.2 -19.0 -80.2 -19.05 -80.2 -19.1 -80.2 -19.15 -80.2 -19.2 -80.15 -19.2 -80.15 -19.25 -80.15 -19.85 -79.95 -23.0 -78.8 -24.85 -78.1 -28.95 -76.5 -29.3 -76.35 -29.65 -76.2 -30.05 -76.05 -30.35 -75.9 -30.75 -75.75 -31.1 -75.6 -31.45 -75.45 -31.8 -75.3 -32.15 -75.15 -32.45 -75.0 -32.8 -74.8 -33.15 -74.65 -33.5 -74.45 -33.85 -74.3 -34.15 -74.1 -34.5 -73.9 -34.65 -73.8 -34.8 -73.75 -34.95 -73.65 -35.1 -73.6 -35.25 -73.5 -35.35 -73.4 -35.5 -73.35 -35.65 -73.25 -35.8 -73.15 -35.9 -73.05 -36.05 -72.95 -36.2 -72.85 -36.3 -72.75 -36.45 -72.65 -36.55 -72.5 -36.7 -72.4 -36.75 -72.35 -37.25 -71.95 -37.25 -71.9 -37.3 -71.85 -37.35 -71.85 -37.35 -71.8 -37.4 -71.8 -37.45 -71.8 -37.45 -71.8 -37.5 -71.8 L-37.45 -71.75 Q-37.5 -71.75 -37.5 -71.7 -37.55 -71.6 -37.55 -71.6 -37.75 -71.4 -38.0 -71.15 -38.2 -70.9 -38.4 -70.65 -38.6 -70.45 -38.8 -70.2 -39.0 -69.95 -39.2 -69.7 -39.4 -69.45 -39.6 -69.2 -39.8 -68.95 -39.95 -68.7 -40.15 -68.45 -40.35 -68.2 -40.5 -67.95 -40.7 -67.65 -40.8 -67.5 -40.9 -67.4 -41.0 -67.25 -41.1 -67.1 -41.2 -66.95 -41.3 -66.85 -41.4 -66.7 -41.5 -66.55 -41.6 -66.45 -41.75 -66.3 -41.85 -66.2 -41.95 -66.05 -42.1 -65.95 -42.2 -65.85 -42.35 -65.7 -42.45 -65.6 -42.75 -65.35 -42.9 -65.3 -43.45 -65.1 -46.65 -63.95 -46.8 -63.95 -46.85 -63.95 -47.1 -63.8 -47.2 -63.8 -49.4 -63.05 -50.35 -62.8 -50.85 -62.65 -52.3 -62.25 -51.7 -61.85 -50.85 -61.2 -50.5 -60.95 -50.15 -60.7 -49.85 -60.45 -49.5 -60.15 -49.2 -59.9 -48.85 -59.65 -48.55 -59.35 -48.2 -59.1 -47.9 -58.8 -47.6 -58.5 -47.3 -58.2 -46.95 -57.95 -46.65 -57.65 -46.35 -57.35 -46.05 -57.0 -45.8 -56.7 -45.25 -56.1 -44.7 -55.5 -44.15 -54.85 -43.65 -54.25 -43.15 -53.6 -42.65 -52.95 -42.2 -52.3 -41.75 -51.6 -41.3 -50.95 -40.85 -50.25 -40.4 -49.55 -40.0 -48.85 -39.55 -48.15 -39.15 -47.4 -38.75 -46.7 -38.4 -46.0 -37.1 -43.5 -35.4 -39.9 -33.05 -34.65 -32.55 -33.0 -32.45 -32.7 -32.35 -32.35 -32.25 -32.05 -32.15 -31.75 -32.1 -31.4 -32.0 -31.1 -31.9 -30.8 -31.85 -30.45 -31.75 -30.15 -31.7 -29.8 -31.65 -29.5 -31.55 -29.2 -31.5 -28.85 -31.45 -28.55 -31.4 -28.2 -31.35 -27.9 -31.05 -27.95 -30.65 -28.0 -30.1 -28.05 -29.95 -28.05 -27.2 -28.4 -26.1 -28.4 -24.05 -28.4 -23.9 -28.4 -18.55 -28.4 -16.3 -28.25 -16.3 -28.25 -16.05 -28.25 -15.95 -28.25 -15.9 -28.25 -15.8 -28.2 -15.75 -28.2 -15.75 -28.2 -15.7 -28.15 -15.7 -28.15 -15.65 -28.1 -15.65 -28.05 -15.65 -28.0 -15.6 -27.6 -15.6 -27.85 -15.6 -27.75 -15.6 -27.6 -15.6 -27.55 -15.55 -27.55 -15.55 -27.5 -15.55 -27.45 -15.55 -27.45 -15.55 -27.35 -15.45 -26.6 -15.3 -25.3 -15.15 -23.85 -15.1 -23.25 -14.85 -21.2 -14.5 -16.3 -14.25 -13.15 -14.1 -10.3 -13.8 -4.35 -13.75 -2.9 -13.75 -2.85 -13.75 -1.7 -13.65 0.8 -13.65 2.05 -13.65 2.55 -13.65 3.05 -13.7 3.55 -13.7 4.0 -13.7 4.5 -13.75 5.0 -13.75 5.5 -13.75 5.95 -13.8 6.45 -13.8 6.95 -13.85 7.45 -13.9 7.9 -13.9 8.4 -13.95 8.9 -14.0 9.4 -14.05 9.85 -14.2 11.6 -14.5 13.75 -14.75 15.45 -15.3 18.0 -15.3 18.05 -15.3 18.1 -15.35 18.15 -15.35 18.2 -15.35 18.25 -15.35 18.3 -15.35 18.35 -15.35 18.35 -15.35 18.4 -15.35 18.45 -15.35 18.5 -15.35 18.55 -15.35 18.6 -15.35 18.65 -15.35 18.7 -15.35 18.75 -15.35 18.8 -15.35 18.85 -15.3 18.9 -15.3 18.9 -15.25 18.95 -15.25 18.95 -15.2 19.0 -15.15 19.0 -15.1 19.0 -15.05 19.0 -15.0 19.0 -14.95 19.0 -14.9 19.0 -14.85 19.0 -14.85 19.0 -14.8 18.95 -14.75 18.95 -14.7 18.9 -14.65 18.9 -14.65 18.85 -14.5 18.65 -14.25 18.3 -14.05 18.0 -13.85 17.7 -13.7 17.4 -13.5 17.05 -13.35 16.75 -13.2 16.4 -13.0 16.1 -12.9 15.75 -12.75 15.45 -12.6 15.1 -12.45 14.75 -12.35 14.4 -12.25 14.1 -12.15 13.75 -12.0 13.4 -11.9 13.05 -11.8 12.6 -11.7 12.15 -11.6 11.75 -11.5 11.3 -11.45 10.85 -11.35 10.4 -11.3 9.95 -11.2 9.5 -11.15 9.1 -11.1 8.6 -11.05 8.2 -11.0 7.75 -11.0 7.3 -10.95 6.85 -10.9 6.4 -10.85 5.95 -10.85 5.75 -10.85 5.85 -10.85 5.8 -10.85 5.75 -10.85 5.7 -10.85 5.7 -10.85 5.65 -10.85 5.6 -10.8 5.55 -10.8 5.5 -10.7 5.6 -10.7 5.65 -10.65 5.7 -10.65 5.75 -10.6 5.8 -10.6 5.9 -10.4 6.5 -10.25 7.1 -10.1 7.7 -9.95 8.3 -9.8 8.9 -9.7 9.5 -9.6 10.1 -9.5 10.7 -9.4 11.3 -9.35 11.95 -9.3 12.55 -9.25 13.15 -9.2 13.8 -9.2 14.4 -9.2 15.05 -9.25 15.65 -9.25 16.05 -9.3 16.45 -9.3 16.85 -9.35 17.3 -9.35 17.7 -9.4 18.1 -9.45 18.5 -9.5 18.9 -9.55 19.3 -9.6 19.7 -9.65 20.1 -9.75 20.5 -9.8 20.9 -9.85 21.3 -9.95 21.7 -10.05 22.1 -10.1 22.45 -10.2 22.8 -10.25 23.15 -10.35 23.5 -10.45 23.85 -10.5 24.25 -10.6 24.6 -10.7 24.95 -10.8 25.3 -10.9 25.65 -11.0 26.0 -11.1 26.35 -11.2 26.65 -11.3 27.0 -11.4 27.35 -11.5 27.7 -11.5 27.75 -11.55 27.8 -11.55 27.85 -11.55 27.85 -11.55 27.9 -11.6 27.95 -11.6 28.0 -11.6 28.05 -11.6 28.05 -11.6 28.1 -11.65 28.15 -11.65 28.2 -11.65 28.25 -11.65 28.25 -11.65 28.3 -11.65 28.35 -11.65 28.4 -11.65 28.45 -11.65 28.5 -11.6 28.5 -11.6 28.55 -11.6 28.6 -11.55 28.6 -11.55 28.6 -11.55 28.65 -11.5 28.65 -11.45 28.65 -11.45 28.7 -11.4 28.7 -11.35 28.7 -11.3 28.7 -11.25 28.7 -11.2 28.7 -11.15 28.7 -11.1 28.65 -11.1 28.65 -11.05 28.65 -11.0 28.6 -10.95 28.6 -10.95 28.55 -10.9 28.55 -10.85 28.5 -10.75 28.4 -10.6 28.2 -10.4 27.95 -10.35 27.9 -10.1 27.6 -9.9 27.3 -9.65 27.0 -9.45 26.7 -9.25 26.4 -9.0 26.1 -8.8 25.8 -8.6 25.5 -8.35 25.2 -8.15 24.9 -7.95 24.6 -7.75 24.3 -7.55 23.95 -7.35 23.65 -7.1 23.35 -6.9 23.05 -6.55 22.5 -6.2 21.95 -5.85 21.4 -5.55 20.85 -5.2 20.25 -4.9 19.7 -4.6 19.15 -4.3 18.55 -4.0 18.0 -3.7 17.4 -3.4 16.8 -3.15 16.25 -2.9 15.65 -2.6 15.05 -2.35 14.45 -2.1 13.85 -1.05 11.15 2.45 2.35 4.2 -1.95 4.65 -3.35 4.9 -4.2 5.4 -5.7 5.4 -5.75 5.4 -5.8 5.45 -5.85 5.45 -5.9 5.45 -5.95 5.5 -5.9 5.55 -5.95 5.55 -5.9 5.55 -5.85 5.55 -5.8 5.55 -5.75 5.55 -5.7 5.45 -4.95 5.15 -2.75 5.1 -2.4 5.05 -2.05 5.0 -1.7 4.9 -1.35 4.85 -1.0 4.8 -0.65 4.7 -0.3 4.65 0.05 4.6 0.4 4.5 0.75 4.4 1.1 4.35 1.45 4.25 1.75 4.15 2.1 4.05 2.45 4.0 2.8 3.0 6.25 1.2 11.3 1.1 11.55 1.05 11.75 0.95 12.0 0.9 12.2 0.85 12.45 0.75 12.7 0.7 12.95 0.65 13.15 0.6 13.4 0.55 13.65 0.5 13.9 0.45 14.1 0.4 14.35 0.4 14.6 0.35 14.85 0.35 15.1 0.3 15.5 0.3 15.9 0.3 16.3 0.35 16.65 0.35 17.05 0.4 17.45 0.4 17.85 0.45 18.2 0.55 18.6 0.6 19.0 0.7 19.35 0.8 19.75 0.85 20.1 1.0 20.5 1.1 20.85 1.25 21.25 1.3 21.4 1.4 21.6 1.4 21.65 1.45 21.7 1.45 21.75 1.5 21.75 1.55 21.8 1.6 21.8 1.6 21.8 1.65 21.8 1.7 21.8 1.75 21.8 1.8 21.8 1.8 21.8 1.85 21.8 1.85 21.8 1.9 21.8 1.9 21.75 1.95 21.75 1.95 21.75 2.0 21.7 2.0 21.7 2.0 21.7 2.05 21.65 2.05 21.65 2.05 21.6 2.05 21.55 2.05 21.55 2.05 21.5 2.05 21.5 2.1 21.45 2.1 21.4 2.1 21.4 2.1 21.35 2.1 21.35 2.1 21.3 2.1 21.25 2.15 21.25 2.15 21.2 2.15 21.2 2.15 21.15 2.15 21.15 2.15 21.1 2.15 21.05 2.25 20.55 2.35 20.0 2.45 19.5 2.55 18.95 2.7 18.45 2.8 17.95 2.95 17.45 3.05 16.9 3.2 16.4 3.35 15.9 3.5 15.35 3.65 14.85 3.8 14.35 3.95 13.85 4.1 13.35 4.3 12.85 5.35 9.55 7.15 5.15 11.0 -4.05 11.2 -4.55 11.3 -4.85 11.3 -4.75 11.35 -4.85 11.35 -4.9 11.4 -4.95 11.4 -5.0 11.45 -5.05 11.5 -5.05 11.5 -5.1 11.55 -5.1 11.6 -5.1 11.7 -5.1 11.75 -5.1 11.85 -5.1 12.0 -5.05 12.05 -5.05 12.1 -5.05 12.2 -5.0 12.2 -4.95 12.2 -4.95 12.2 -4.9 12.2 -4.85 12.2 -4.8 12.2 -4.8 12.2 -4.75 12.2 -4.7 12.2 -4.65 12.2 -4.65 12.2 -4.6 12.2 -4.55 12.2 -4.55 12.15 -4.5 12.15 -4.45 12.15 -4.4 12.05 -3.9 11.95 -3.45 11.85 -2.95 11.75 -2.5 11.65 -2.0 11.55 -1.55 11.4 -1.1 11.3 -0.6 11.2 -0.15 11.05 0.3 10.9 0.8 10.75 1.25 10.65 1.7 10.5 2.2 10.3 2.65 10.15 3.1 10.1 3.3 10.05 3.5 10.0 3.65 9.95 3.85 9.9 4.05 9.9 4.25 9.85 4.4 9.85 4.6 9.85 4.8 9.85 5.0 9.85 5.15 9.85 5.35 9.9 5.55 9.9 5.75 9.95 5.95 9.95 6.1 10.05 6.65 10.2 7.2 10.35 7.7 10.55 8.25 10.7 8.75 10.95 9.25 11.15 9.75 11.4 10.2 11.65 10.7 11.95 11.15 12.2 11.6 12.5 12.1 12.8 12.55 13.15 12.95 13.45 13.4 13.8 13.85 14.05 14.05 14.1 14.1 14.15 14.1 14.2 14.15 14.25 14.15 14.3 14.15 14.35 14.15 14.4 14.1 14.45 14.1 14.45 14.1 14.5 14.05 14.55 14.05 14.55 14.0 14.6 13.95 14.6 13.9 14.6 13.85 14.6 13.85 14.6 13.75 14.6 13.7 14.6 13.7 14.6 13.65 14.6 13.65 14.6 13.6 14.6 13.55 14.6 13.55 14.6 13.5 14.6 13.45 14.6 13.45 14.6 13.4 14.6 13.35 14.6 13.35 14.6 13.3 14.6 13.25 14.55 13.25 14.25 11.6 14.1 9.2 14.1 9.0 14.1 8.75 14.05 8.55 14.05 8.3 14.05 8.1 14.05 7.85 14.05 7.65 14.05 7.4 14.05 7.2 14.05 6.95 14.05 6.75 14.05 6.5 14.05 6.3 14.1 6.05 14.1 5.85 14.1 5.6 14.15 5.0 14.3 2.75 14.45 1.2 14.8 -1.05 15.15 -3.3 15.8 -6.3 15.8 -6.35 15.8 -6.4 15.85 -6.45 15.85 -6.55 15.85 -6.6 15.9 -6.65 15.9 -6.7 15.9 -6.75 15.95 -6.8 15.95 -6.85 16.0 -6.9 16.0 -6.95 16.05 -7.0 16.05 -7.05 16.1 -7.1 16.15 -7.15 18.25 -10.3 19.15 -12.1 19.15 -12.15 19.15 -12.15 19.2 -12.2 19.2 -12.2 19.2 -12.25 19.25 -12.25 19.25 -12.25 19.3 -12.25 19.35 -12.3 19.4 -12.25 19.4 -12.15 19.4 -12.05 19.35 -12.0 19.4 -11.9 19.4 -11.8 19.4 -11.7 19.45 -11.65 19.45 -11.55 19.5 -11.45 19.55 -11.4 19.55 -11.3 19.6 -11.25 19.65 -11.15 19.7 -11.1 19.8 -11.0 19.85 -10.95 19.95 -10.8 20.15 -10.35 22.25 -5.7 27.0 5.05 27.0 5.1 27.05 5.15 27.05 5.15 27.1 5.2 27.1 5.25 27.15 5.3 27.15 5.3 27.15 5.35 27.2 5.4 27.2 5.45 27.25 5.5 27.25 5.5 27.25 5.55 27.3 5.6 27.3 5.65 27.35 5.7 27.35 5.75 27.4 5.75 27.4 5.8 27.4 5.8 27.45 5.85 27.45 5.85 27.5 5.9 27.5 5.9 27.55 5.9 27.55 5.9 27.6 5.95 27.6 5.95 27.65 5.95 27.7 5.95 27.7 5.95 27.75 5.95 27.8 5.95 27.8 5.95 27.85 5.95 27.9 5.95 27.9 5.95 27.95 5.9 27.95 5.9 28.0 5.9 28.0 5.9 28.0 5.85 28.05 5.85 28.05 5.8 28.05 5.8 28.05 5.75 28.05 5.75 28.05 5.7 28.05 5.65 28.05 5.6 28.05 5.6 28.05 5.55 28.05 5.5 28.05 5.45 28.05 5.45 28.05 5.4 28.05 5.35 28.05 5.3 28.05 5.3 28.05 5.25 28.05 5.2 28.05 5.15 28.05 5.15 28.05 5.1 28.0 4.35 27.85 2.9 27.75 1.4 27.65 0.7 27.5 -1.5 27.1 -4.65 26.55 -8.55 25.95 -11.2 25.95 -11.2 25.95 -11.25 26.1 -10.7 25.95 -11.3 25.9 -11.35 25.9 -11.35 25.9 -11.4 25.9 -11.4 25.9 -11.45 25.9 -11.45 25.9 -11.5 25.95 -11.5 25.95 -11.55 25.95 -11.55 26.0 -11.6 26.0 -11.6 26.1 -11.4 26.2 -11.1 26.8 -9.5 27.35 -8.05 29.45 -2.5 30.55 0.95 30.7 1.45 30.85 1.95 31.0 2.45 31.1 2.9 31.25 3.4 31.35 3.9 31.45 4.4 31.55 4.9 31.65 5.4 31.75 5.9 31.85 6.4 31.9 6.9 32.0 7.4 32.05 7.9 32.1 8.4 32.15 8.9 32.15 9.05 32.45 13.05 32.5 13.35 32.55 14.1 32.6 14.75 32.6 15.15 32.65 15.4 32.65 15.7 32.7 15.95 32.7 16.2 32.7 16.45 32.75 16.75 32.75 17.0 32.75 17.25 32.75 17.5 32.75 17.8 32.75 18.05 32.75 18.3 32.7 18.55 32.7 18.85 32.7 19.1 32.65 19.35 32.6 19.8 32.6 20.2 32.55 20.65 32.5 21.05 32.45 21.5 32.35 21.9 32.3 22.3 32.2 22.75 32.15 23.15 32.05 23.6 31.95 24.0 31.85 24.4 31.75 24.85 31.65 25.25 31.55 25.65 31.45 26.1 31.0 27.6 30.3 29.75 30.3 29.8 30.25 29.85 30.25 29.9 30.25 29.95 30.2 30.0 30.2 30.05 30.2 30.1 30.2 30.15 30.15 30.2 30.15 30.25 30.15 30.3 30.15 30.35 30.15 30.4 30.15 30.45 30.15 30.5 30.15 30.55 30.15 30.6 30.2 30.65 30.2 30.65 30.2 30.7 30.25 30.75 30.25 30.75 30.3 30.8 30.35 30.8 30.35 30.8 30.4 30.85 30.45 30.85 30.5 30.85 30.55 30.9 30.6 30.9 30.65 30.9 30.7 30.9 30.7 30.9 30.75 30.85 30.8 30.85 30.85 30.85 30.9 30.85 30.9 30.8 30.95 30.8 31.0 30.75 31.05 30.7 31.05 30.7 32.55 28.8 32.85 28.2 33.05 27.8 33.35 27.15 33.75 26.4 33.9 26.1 34.35 25.25 35.05 23.8 35.9 22.05 36.2 21.45 36.2 21.4 36.25 21.4 36.25 21.35 36.25 21.3 36.3 21.3 36.3 21.25 36.3 21.2 36.3 21.2 36.35 21.15 36.35 21.1 36.4 21.1 36.4 21.05 36.45 21.05 36.45 21.0 36.5 21.0 36.55 20.95 36.55 21.0 36.65 21.3 36.7 21.5 36.7 21.6 36.75 21.95 36.8 22.35 36.9 22.7 36.9 23.05 36.95 23.4 37.0 23.8 37.05 24.15 37.05 24.5 37.1 24.9 37.1 25.25 37.15 25.6 37.15 26.0 37.15 26.35 37.15 26.7 37.15 27.1 37.15 27.45 37.15 27.7 37.15 27.95 37.1 28.2 37.1 28.45 37.1 28.7 37.1 28.95 37.05 29.25 37.05 29.5 37.05 29.75 37.0 30.0 37.0 30.25 37.0 30.5 36.95 30.75 36.95 31.0 36.9 31.25 36.85 31.5 36.75 32.75 36.65 33.55 36.65 33.65 36.65 33.7 36.65 33.8 36.65 33.85 36.7 33.9 36.75 33.95 36.75 34.0 36.8 34.0 36.85 34.05 36.9 34.05 36.95 34.1 37.05 34.1 37.1 34.1 37.2 34.05 37.25 34.05 37.35 34.05 37.4 34.05 37.45 34.0 37.45 34.0 37.5 33.95 37.5 33.9 37.55 33.85 37.55 33.85 37.6 33.8 37.6 33.7 37.6 33.7 39.75 29.05 40.6 27.2 40.9 26.55 43.1 20.9 43.4 20.25 43.5 20.1 43.5 20.25 43.5 20.45 43.5 20.7 43.5 20.8 43.45 21.3 43.35 22.05 43.25 23.05 43.2 23.3 43.1 24.1 42.9 25.7 42.75 26.8 42.0 30.1 42.0 30.2 41.95 30.3 41.95 30.4 41.95 30.5 41.9 30.6 41.9 30.7 41.9 30.8 41.85 30.85 41.85 30.95 41.85 31.05 41.85 31.15 41.85 31.25 41.85 31.35 41.85 31.45 41.8 31.55 41.8 31.65 41.8 31.75 41.8 31.8 41.8 31.9 41.85 32.0 41.85 32.1 41.85 32.15 41.9 32.25 41.9 32.35 41.95 32.4 41.95 32.5 42.0 32.55 42.05 32.65 42.1 32.7 42.1 32.8 42.15 32.9 42.2 32.95 42.25 33.05 42.3 33.1 42.35 33.2 42.4 33.25 42.5 33.35 42.55 33.4 42.6 33.5 42.65 33.55 42.7 33.6 42.75 33.7 42.8 33.75 42.9 33.85 42.95 33.9 43.0 33.95 43.05 34.05 43.15 34.1 43.2 34.15 43.3 34.25 43.35 34.3 43.4 34.4 43.45 34.45 43.5 34.55 43.55 34.65 43.6 34.7 43.65 34.8 43.7 34.9 43.75 35.0 43.8 35.05 43.8 35.15 43.85 35.25 43.9 35.35 43.9 35.45 44.0 35.75 44.1 36.1 44.25 36.4 44.35 36.7 44.45 37.0 44.55 37.35 44.7 37.65 44.8 37.95 44.95 38.25 45.05 38.6 45.15 38.9 45.3 39.2 45.4 39.5 45.55 39.8 45.7 40.1 45.8 40.45 45.85 40.5 45.85 40.55 45.9 40.65 45.9 40.7 45.95 40.75 45.95 40.8 45.95 40.85 46.0 40.9 46.0 41.0 46.0 41.05 46.05 41.1 46.05 41.15 46.05 41.25 46.05 41.3 46.05 41.35 46.05 41.45 46.05 41.6 46.05 41.75 46.1 41.85 46.15 42.0 46.2 42.1 46.25 42.25 46.3 42.35 46.4 42.45 46.5 42.55 46.6 42.6 46.7 42.7 46.8 42.75 46.95 42.8 47.05 42.85 47.2 42.9 47.35 42.9 47.5 42.9 47.6 42.9 47.75 42.9 47.9 42.85 48.0 42.8 48.15 42.75 48.25 42.7 48.35 42.6 48.45 42.55 48.55 42.45 48.65 42.35 48.7 42.25 48.75 42.1 48.8 42.0 48.85 41.9 48.9 41.75 48.9 41.7 48.9 41.65 48.9 41.6 48.9 41.55 48.9 41.5 48.95 41.45 48.95 41.4 48.95 41.35 48.95 41.3 48.95 41.25 48.95 41.2 49.0 41.15 49.0 41.1 49.0 41.05 49.0 41.0 49.0 40.95 49.25 39.8 49.8 37.5 50.3 35.15 50.6 34.0 51.0 32.15 51.4 30.8 52.45 27.3 52.75 26.2 52.8 26.1 52.8 25.95 52.85 25.85 52.9 25.75 52.9 25.6 52.95 25.5 53.0 25.4 53.05 25.25 53.05 25.15 53.1 25.05 53.15 24.95 53.2 24.8 53.25 24.7 53.3 24.6 53.35 24.5 53.4 24.4 53.55 24.05 53.7 23.65 53.85 23.25 54.0 22.9 54.15 22.5 54.25 22.1 54.4 21.75 54.5 21.35 54.6 20.95 54.7 20.55 54.8 20.2 54.9 19.8 55.0 19.4 55.1 19.0 55.15 18.6 55.25 18.2 55.55 16.75 56.05 11.75 56.05 11.7 56.05 11.65 56.05 11.6 56.05 11.55 56.05 11.45 56.05 11.4 56.05 11.35 56.05 11.3 56.05 11.25 56.05 11.2 56.05 11.15 56.05 11.1 56.1 11.05 56.1 11.0 56.1 10.95 56.15 10.9 56.2 10.9 56.25 10.95 56.3 11.0 56.3 11.0 56.35 11.05 56.4 11.1 56.4 11.15 56.45 11.2 56.45 11.2 56.45 11.3 56.5 11.35 56.5 11.35 56.55 11.4 56.55 11.45 56.6 11.5 56.6 11.55 56.7 11.65 56.8 11.8 56.95 12.0 57.0 12.1 57.05 12.2 57.15 12.3 57.25 12.35 57.3 12.45 57.4 12.55 57.45 12.6 57.55 12.7 57.65 12.75 57.75 12.8 57.85 12.9 57.95 12.95 58.05 13.0 58.15 13.05 58.25 13.1 58.35 13.15 58.45 13.2 58.55 13.25 58.65 13.25 58.7 13.3 58.8 13.3 58.9 13.35 59.0 13.35 59.1 13.35 59.15 13.35 59.25 13.35 59.35 13.35 59.45 13.35 59.55 13.35 59.6 13.3 59.7 13.3 59.8 13.25 59.9 13.25 60.1 13.2 60.25 13.1 60.4 13.0 60.55 12.85 60.7 12.75 60.8 12.6 60.9 12.45 61.0 12.3 61.1 12.1 61.15 11.95 61.2 11.75 61.25 11.55 61.25 11.4 61.25 11.2 61.25 11.0 61.2 10.75 61.15 10.6 61.15 10.5 61.1 10.35 61.05 10.2 61.0 10.05 61.0 9.95 60.95 9.8 60.9 9.65 60.85 9.55 60.8 9.4 60.75 9.25 60.7 9.15 60.65 9.0 60.6 8.85 60.55 8.75 60.5 8.6 60.5 8.6 60.5 8.55 60.5 8.6 60.45 8.5 60.45 8.5 60.4 8.45 60.4 8.45 60.4 8.4 60.4 8.4 60.4 8.35 60.35 8.35 60.35 8.3 60.35 8.25 60.35 8.25 60.35 8.2 60.4 8.15 60.45 8.15 60.45 8.15 60.5 8.15 60.5 8.1 60.55 8.1 60.55 8.1 60.6 8.1 60.6 8.1 60.65 8.05 60.7 8.05 60.7 8.05 60.75 8.05 60.75 8.0 60.8 8.0 60.85 8.0 60.85 8.0 61.05 7.9 61.25 7.75 61.45 7.6 61.6 7.45 61.75 7.3 61.85 7.1 61.95 6.9 62.0 6.65 62.1 6.45 62.1 6.25 62.1 6.0 62.05 5.8 62.05 5.6 61.95 5.35 61.85 5.15 61.7 4.95 61.6 4.8 61.5 4.6 61.35 4.45 61.25 4.3 61.15 4.1 61.05 3.95 60.95 3.8 60.9 3.6 60.8 3.45 60.7 3.25 60.6 3.1 60.5 2.9 60.45 2.7 60.35 2.55 60.25 2.35 60.15 2.2 60.05 2.0 59.95 1.75 59.85 1.55 59.75 1.35 59.65 1.15 59.55 0.9 59.45 0.7 59.35 0.5 59.25 0.3 59.15 0.1 59.05 -0.1 58.9 -0.3 58.8 -0.55 58.7 -0.75 58.6 -0.95 58.45 -1.15 58.4 -1.25 57.35 -3.1 57.2 -3.45 57.2 -3.55 57.2 -3.6 57.25 -3.65 57.3 -3.65 57.3 -3.7 57.35 -3.7 57.4 -3.75 57.45 -3.8 57.5 -3.8 57.65 -3.9 57.75 -4.0 57.9 -4.1 58.0 -4.15 58.15 -4.25 58.25 -4.35 58.35 -4.45 58.5 -4.55 58.6 -4.7 58.7 -4.8 58.85 -4.9 58.95 -5.0 59.05 -5.1 59.15 -5.25 59.25 -5.35 59.35 -5.45 59.4 -5.5 59.4 -5.5 59.45 -5.6 59.5 -5.6 59.55 -5.65 59.6 -5.65 59.65 -5.65 59.7 -5.65 59.7 -5.65 59.8 -5.6 59.85 -5.55 59.85 -5.55 59.9 -5.5 59.9 -5.5 59.95 -5.45 60.0 -5.45 60.0 -5.4 60.05 -5.4 60.1 -5.35 60.1 -5.35 60.25 -5.2 60.45 -5.1 60.6 -5.0 60.75 -4.85 60.95 -4.75 61.1 -4.65 61.3 -4.5 61.45 -4.4 61.65 -4.3 61.8 -4.2 62.0 -4.1 62.15 -4.0 62.35 -3.9 62.5 -3.8 62.7 -3.7 62.9 -3.65 62.95 -3.6 63.0 -3.6 63.0 -3.6 63.05 -3.55 63.1 -3.55 63.15 -3.5 63.2 -3.5 63.2 -3.5 63.25 -3.5 63.3 -3.45 63.35 -3.45 63.4 -3.45 63.45 -3.45 63.5 -3.45 63.55 -3.45 63.6 -3.45 63.65 -3.45 63.65 -3.45 63.7 -3.5 63.75 -3.5 63.75 -3.55 63.8 -3.55 63.8 -3.6 63.8 -3.65 63.8 -3.65 63.8 -3.7 63.8 -3.75 63.8 -3.8 63.8 -3.85 63.8 -3.9 63.8 -3.95 63.8 -4.0 63.8 -4.05 63.8 -4.1 63.75 -4.1 63.75 -4.15 63.75 -4.2 63.7 -4.25 63.7 -4.3 63.7 -4.35 63.7 -4.35 63.65 -4.4 63.1 -5.75 62.4 -7.5 62.2 -7.95 61.9 -8.65 61.9 -8.7 61.9 -8.7 61.85 -8.75 61.85 -8.8 61.85 -8.8 61.85 -8.85 61.85 -8.85 61.85 -8.9 61.85 -8.95 61.85 -8.95 61.9 -9.0 61.9 -9.0 61.9 -9.05 61.9 -9.05 61.95 -9.1 61.95 -9.1 62.0 -9.15 62.05 -9.15 62.05 -9.15 62.1 -9.15 62.15 -9.15 62.2 -9.1 62.2 -9.1 62.25 -9.1 62.35 -9.05 62.35 -9.05 62.65 -8.9 64.55 -7.8 67.3 -6.25 68.5 -5.65 68.8 -5.5 69.1 -5.35 69.4 -5.2 69.7 -5.1 70.0 -4.95 70.3 -4.85 70.6 -4.7 70.9 -4.6 71.25 -4.45 71.55 -4.35 71.85 -4.25 72.15 -4.15 72.5 -4.05 72.8 -3.95 73.1 -3.9 73.45 -3.8 73.55 -3.8 73.55 -3.8 73.55 -3.8 73.6 -3.75 73.65 -3.75 73.7 -3.75 73.75 -3.75 73.75 -3.75 73.8 -3.75 73.85 -3.75 73.9 -3.75 73.95 -3.7 73.95 -3.7 74.0 -3.7 74.05 -3.7 74.1 -3.7 74.15 -3.7 74.2 -3.7 74.2 -3.75 74.25 -3.75 74.3 -3.75 74.3 -3.8 74.35 -3.8 74.35 -3.8 74.35 -3.85 74.4 -3.9 74.4 -3.9 74.4 -3.95 74.4 -4.0 74.4 -4.0 74.4 -4.05 74.4 -4.1 L74.4 -4.1 M-37.2 -70.85 Q-37.4 -70.65 -38.45 -69.55 -38.5 -69.6 -38.5 -69.65 -38.55 -69.65 -38.55 -69.7 -38.55 -69.75 -38.5 -69.75 -38.5 -69.8 -38.5 -69.8 -38.5 -69.8 -38.45 -69.85 -38.45 -69.85 -38.4 -69.85 -38.4 -69.9 -38.4 -69.9 -38.3 -70.0 -38.2 -70.15 -38.1 -70.25 -38.0 -70.4 -37.9 -70.5 -37.8 -70.6 -37.7 -70.75 -37.6 -70.85 -37.45 -70.95 -37.35 -71.1 -37.25 -71.2 -37.15 -71.3 -37.0 -71.4 -36.9 -71.55 -36.8 -71.65 -36.65 -71.75 -36.6 -71.8 -36.6 -71.8 -36.55 -71.85 -36.5 -71.9 -36.45 -71.95 -36.4 -71.95 -36.35 -72.0 -36.3 -72.0 -36.25 -72.0 -36.2 -72.05 -36.15 -72.05 -36.1 -72.05 -36.05 -72.05 -36.0 -72.05 -35.9 -72.05 -35.85 -72.0 -36.85 -71.2 -37.2 -70.85 L-37.2 -70.85" fill="#0700ff" fill-rule="evenodd" stroke="none"/>
    <path d="M-37.25 -71.95 Q-37.25 -71.9 -37.3 -71.85 -37.35 -71.85 -37.35 -71.8 -37.4 -71.8 -37.45 -71.8 -37.45 -71.85 -37.45 -71.9 -37.45 -71.9 -37.4 -71.95 -37.4 -71.95 -37.35 -71.95 -37.3 -71.95 -37.25 -71.95 L-37.25 -71.95" fill="#c8c8ca" fill-rule="evenodd" stroke="none"/>
    <path d="M-72.4 20.8 Q-72.3 20.8 -72.3 20.95 -72.35 20.95 -72.35 20.9 -72.4 20.9 -72.4 20.85 -72.45 20.85 -72.4 20.8 L-72.4 20.8" fill="#c8c8ca" fill-rule="evenodd" stroke="none"/>
    <path d="M-12.35 20.25 Q-12.3 20.25 -12.25 20.2 -12.25 20.2 -12.25 20.2 -12.3 20.25 -12.3 20.25 -12.3 20.25 -12.35 20.25 -12.35 20.25 -12.35 20.25 L-12.35 20.25" fill="#ffffff" fill-rule="evenodd" stroke="none"/>
  </g>
</svg>
