<?xml version="1.0" encoding="UTF-8" standalone="no"?>
<svg xmlns:xlink="http://www.w3.org/1999/xlink" height="200.0px" width="200.0px" xmlns="http://www.w3.org/2000/svg">
  <g transform="matrix(1.0, 0.0, 0.0, 1.0, 100.0, 100.0)">
    <path d="M18.65 -34.1 Q19.0 -33.1 19.2 -32.15 19.45 -31.15 19.55 -30.15 19.65 -29.1 19.7 -27.95 19.7 -26.85 19.65 -25.5 19.6 -24.2 19.45 -22.6 19.3 -21.15 19.1 -19.1 18.9 -17.6 18.6 -14.85 18.15 -10.75 18.0 -9.8 17.75 -7.6 17.5 -5.4 17.3 -3.3 17.05 -1.25 16.85 0.7 16.65 2.65 16.45 4.5 16.25 6.3 16.1 7.95 15.95 9.65 15.8 11.15 15.65 12.7 15.5 14.05 15.4 15.4 15.25 16.6 15.15 17.8 14.95 17.35 14.8 16.85 14.6 16.35 14.4 15.85 14.25 15.25 14.05 14.7 13.85 14.1 13.7 13.45 13.55 12.8 13.4 12.1 13.25 11.4 13.1 10.7 12.95 9.95 12.85 9.2 12.75 8.4 12.7 7.6 12.6 6.5 12.6 5.4 12.6 4.4 12.65 3.35 12.7 2.45 12.8 1.5 12.9 0.65 13.05 -0.25 13.2 -1.05 13.35 -1.85 13.5 -2.55 13.7 -3.4 13.75 -3.7 14.05 -4.8 14.25 -5.6 14.35 -6.1 14.8 -8.05 15.05 -10.1 15.3 -12.0 15.4 -14.0 15.5 -15.85 15.5 -17.7 15.45 -19.45 15.35 -21.2 15.2 -22.8 15.0 -24.4 14.8 -25.8 14.55 -27.2 14.3 -28.5 14.05 -29.65 13.8 -30.7 13.5 -31.65 13.25 -32.55 12.95 -33.4 12.55 -34.55 12.1 -35.65 11.55 -36.9 10.85 -38.2 10.1 -39.65 9.2 -41.05 8.2 -42.6 7.05 -44.1 5.75 -45.75 4.3 -47.35 2.7 -49.05 0.9 -50.6 -1.05 -52.3 -3.25 -53.9 -0.3 -52.65 2.25 -51.3 4.65 -49.95 6.75 -48.55 8.7 -47.2 10.4 -45.75 11.9 -44.45 13.2 -43.0 14.35 -41.75 15.35 -40.4 16.2 -39.2 16.85 -38.0 17.45 -36.95 17.95 -35.85 18.3 -35.0 18.65 -34.1 L18.65 -34.1" fill="#ffff66" fill-rule="evenodd" stroke="none"/>
  </g>
</svg>
