<?xml version="1.0" encoding="UTF-8" standalone="no"?>
<svg xmlns:xlink="http://www.w3.org/1999/xlink" height="49.8px" width="103.7px" xmlns="http://www.w3.org/2000/svg">
  <g transform="matrix(1.0, 0.0, 0.0, 1.0, 78.15, 22.75)">
    <path d="M30.5 9.5 Q30.7 9.8 30.85 10.1 31.0 10.4 31.2 10.75 31.35 11.05 31.5 11.4 31.65 11.75 31.8 12.15 31.95 12.5 32.1 12.9 32.25 13.3 32.35 13.75 32.5 14.15 32.65 14.6 32.75 15.05 32.85 15.5 32.25 14.5 31.7 13.6 31.15 12.7 30.6 11.85 30.1 11.05 29.6 10.3 29.1 9.55 28.6 8.9 28.15 8.25 27.7 7.7 27.25 7.1 26.85 6.65 26.45 6.15 26.05 5.75 25.65 5.35 25.3 5.05 25.8 5.3 26.2 5.6 26.65 5.85 27.05 6.15 27.45 6.4 27.8 6.7 28.2 7.0 28.5 7.25 28.85 7.55 29.1 7.8 29.4 8.1 29.65 8.35 29.9 8.65 30.15 8.95 30.35 9.2 30.5 9.5 M-53.55 0.75 Q-53.45 0.75 -53.4 0.75 -53.3 0.75 -53.2 0.75 -53.15 0.8 -53.05 0.8 -52.95 0.85 -52.85 0.9 -52.75 0.9 -52.65 1.0 -52.55 1.05 -52.45 1.1 -52.4 1.15 -52.25 1.25 -52.15 1.3 -52.05 1.4 -51.15 2.25 -50.25 3.1 -49.4 3.95 -48.6 4.8 -47.8 5.65 -47.05 6.5 -46.3 7.35 -45.6 8.15 -44.9 9.0 -44.25 9.85 -43.6 10.7 -43.0 11.5 -42.4 12.35 -41.85 13.15 -41.3 14.0 -40.8 14.85 -40.9 14.8 -41.0 14.75 -41.1 14.7 -41.2 14.65 -41.3 14.6 -41.4 14.55 -41.5 14.5 -41.6 14.45 -41.7 14.35 -41.8 14.3 -41.85 14.2 -41.95 14.1 -42.05 14.05 -42.1 13.95 -42.2 13.85 -42.3 13.75 -43.0 12.9 -43.7 12.05 -44.4 11.25 -45.1 10.4 -45.85 9.6 -46.55 8.75 -47.25 7.95 -47.95 7.15 -48.65 6.3 -49.35 5.5 -50.05 4.7 -50.75 3.9 -51.45 3.1 -52.15 2.35 -52.85 1.55 -53.55 0.75 M-73.0 20.95 Q-73.25 20.55 -73.55 20.15 -73.8 19.8 -74.1 19.4 -74.4 19.05 -74.7 18.7 -75.0 18.35 -75.3 18.0 -75.65 17.65 -75.95 17.35 -76.3 17.0 -76.65 16.7 -77.0 16.4 -77.4 16.1 -77.75 15.8 -78.15 15.5 -77.85 15.65 -77.6 15.8 -77.3 16.0 -77.0 16.2 -76.7 16.35 -76.4 16.6 -76.1 16.8 -75.85 17.0 -75.55 17.25 -75.25 17.5 -74.95 17.75 -74.65 18.0 -74.35 18.25 -74.05 18.55 -73.75 18.85 -73.45 19.15 -73.15 19.45 -72.85 19.85 -72.55 20.2 -72.25 20.65 -71.95 21.1 -71.65 21.65 -71.35 22.15 -71.05 22.75 -70.8 23.4 -70.5 24.05 -70.2 24.75 -69.95 25.5 -69.65 26.25 -69.35 27.1 -69.1 27.9 -68.8 28.8 -69.05 28.2 -69.35 27.65 -69.6 27.1 -69.85 26.55 -70.15 26.0 -70.4 25.5 -70.65 25.0 -70.9 24.5 -71.2 24.0 -71.45 23.55 -71.7 23.05 -71.95 22.6 -72.2 22.2 -72.5 21.75 -72.75 21.35 -73.0 20.95 M-61.85 13.1 Q-58.75 15.75 -56.55 17.35 -56.3 17.55 -56.0 17.85 -55.75 18.1 -55.5 18.5 -55.25 18.9 -55.0 19.35 -54.7 19.85 -54.5 20.4 -54.25 20.95 -54.0 21.6 -53.75 22.25 -53.5 23.0 -53.3 23.75 -53.05 24.6 -52.85 25.45 -52.6 26.4 -52.95 25.55 -53.35 24.8 -53.7 24.0 -54.05 23.25 -54.45 22.55 -54.8 21.9 -55.2 21.2 -55.55 20.6 -55.95 20.0 -56.35 19.45 -56.7 18.9 -57.1 18.4 -57.5 17.9 -57.85 17.45 -58.25 17.05 -58.65 16.65 -59.05 16.25 -59.4 15.95 -59.75 15.6 -60.05 15.3 -60.35 15.0 -60.6 14.75 -60.8 14.45 -61.0 14.25 -61.2 14.05 -61.35 13.85 -61.55 13.65 -61.65 13.5 -61.75 13.4 -61.8 13.3 -61.85 13.15 -61.85 13.1 M-1.05 9.55 Q-0.45 9.8 4.5 11.15 3.35 10.6 2.25 10.0 1.2 9.45 0.15 8.9 -0.85 8.4 -1.8 7.85 -2.75 7.35 -3.6 6.8 -4.5 6.3 -5.3 5.8 -6.1 5.3 -6.8 4.85 -7.55 4.35 -8.2 3.9 -8.9 3.45 -9.5 3.0 -8.95 3.55 -8.45 4.05 -7.9 4.6 -7.4 5.05 -6.85 5.55 -6.35 6.0 -5.8 6.45 -5.3 6.85 -4.75 7.25 -4.2 7.65 -3.7 8.0 -3.15 8.35 -2.65 8.7 -2.1 9.0 -1.55 9.3 -1.05 9.55 M-28.75 -4.75 Q-25.95 -2.6 -23.9 -1.2 -23.65 -1.05 -23.4 -0.8 -23.15 -0.55 -22.9 -0.25 -22.65 0.05 -22.4 0.4 -22.15 0.8 -21.9 1.25 -21.65 1.7 -21.4 2.2 -21.15 2.7 -20.95 3.3 -20.7 3.9 -20.45 4.55 -20.2 5.2 -19.95 5.9 -20.3 5.25 -20.7 4.65 -21.05 4.0 -21.4 3.45 -21.75 2.9 -22.15 2.35 -22.5 1.8 -22.85 1.35 -23.2 0.85 -23.6 0.4 -23.95 -0.05 -24.3 -0.45 -24.7 -0.85 -25.05 -1.2 -25.4 -1.55 -25.75 -1.85 -26.1 -2.15 -26.45 -2.45 -26.75 -2.7 -27.05 -2.95 -27.3 -3.2 -27.55 -3.4 -27.8 -3.65 -27.95 -3.8 -28.15 -4.0 -28.3 -4.15 -28.45 -4.3 -28.55 -4.4 -28.65 -4.5 -28.7 -4.6 -28.75 -4.7 -28.75 -4.75 M-39.5 -1.9 Q-39.25 -1.75 -38.95 -1.6 -38.65 -1.45 -38.4 -1.25 -38.1 -1.05 -37.8 -0.85 -37.5 -0.65 -37.2 -0.45 -36.85 -0.25 -36.55 0.0 -36.25 0.25 -35.95 0.5 -35.6 0.75 -35.3 1.05 -34.95 1.35 -34.65 1.65 -34.1 2.2 -33.55 2.75 -33.05 3.3 -32.6 3.85 -32.2 4.4 -31.8 4.95 -31.4 5.5 -31.05 6.0 -30.75 6.55 -30.45 7.05 -30.2 7.55 -29.95 8.0 -29.7 8.45 -29.5 8.9 -29.35 9.3 -29.2 9.7 -29.6 9.15 -29.95 8.65 -30.35 8.1 -30.8 7.6 -31.2 7.05 -31.65 6.5 -32.05 5.95 -32.5 5.4 -33.0 4.85 -33.45 4.3 -33.95 3.75 -34.45 3.2 -34.95 2.65 -35.45 2.1 -36.0 1.55 -36.5 1.0 -36.7 0.8 -36.9 0.6 -37.05 0.45 -37.25 0.25 -37.45 0.05 -37.65 -0.15 -37.85 -0.3 -38.0 -0.5 -38.2 -0.7 -38.4 -0.85 -38.6 -1.05 -38.75 -1.2 -38.95 -1.4 -39.15 -1.55 -39.3 -1.7 -39.5 -1.9 L-39.5 -1.9" fill="#86549b" fill-rule="evenodd" stroke="none"/>
  </g>
</svg>
