<?xml version="1.0" encoding="UTF-8" standalone="no"?>
<svg xmlns:xlink="http://www.w3.org/1999/xlink" height="150.0px" width="100.0px" xmlns="http://www.w3.org/2000/svg">
  <g transform="matrix(1.0, 0.0, 0.0, 1.0, 50.0, 100.0)">
    <path d="M10.45 0.95 Q8.6 -0.85 6.65 -2.45 4.8 -4.0 2.85 -5.4 1.0 -6.75 -0.95 -7.95 -2.75 -9.05 -4.65 -10.05 -6.35 -11.0 -8.15 -11.8 -9.8 -12.55 -11.45 -13.25 -12.95 -13.85 -14.45 -14.4 -15.8 -14.85 -17.1 -15.25 -15.65 -14.3 -14.15 -13.35 -12.65 -12.35 -11.2 -11.3 -9.65 -10.3 -8.15 -9.25 -6.65 -8.15 -5.1 -7.05 -3.55 -5.95 -2.05 -4.8 -0.45 -3.65 1.1 -2.45 2.65 -1.25 4.2 0.0 5.8 1.25 7.4 2.5 8.3 3.25 9.2 4.0 10.1 4.7 11.0 5.45 11.85 6.2 12.75 6.95 13.6 7.7 14.45 8.45 15.3 9.15 16.15 9.9 17.0 10.65 17.8 11.35 18.6 12.1 19.4 12.85 20.2 13.55 21.0 14.3 20.55 13.55 20.05 12.75 19.55 11.95 19.0 11.2 18.45 10.35 17.85 9.55 17.25 8.7 16.6 7.85 15.95 7.0 15.25 6.15 14.5 5.3 13.75 4.45 13.0 3.55 12.15 2.7 11.3 1.8 10.45 0.95 L10.45 0.95" fill="#ffff66" fill-rule="evenodd" stroke="none"/>
  </g>
</svg>
