<?xml version="1.0" encoding="UTF-8" standalone="no"?>
<svg xmlns:xlink="http://www.w3.org/1999/xlink" height="53.4px" width="43.55px" xmlns="http://www.w3.org/2000/svg">
  <g transform="matrix(1.0, 0.0, 0.0, 1.0, 21.8, 26.7)">
    <path d="M20.25 19.7 Q19.6 17.0 17.75 9.1 17.6 8.6 17.6 8.3 17.6 8.2 17.55 8.05 17.55 7.95 17.5 7.85 17.5 7.75 17.45 7.65 17.4 7.6 17.35 7.5 17.3 7.4 17.25 7.35 17.2 7.3 17.1 7.2 17.05 7.15 16.95 7.1 16.85 7.05 16.8 7.0 14.7 6.15 13.95 5.9 13.35 5.7 9.35 4.45 9.4 4.25 9.4 4.25 10.15 3.55 11.35 1.95 12.6 0.35 13.3 -0.35 13.35 -0.4 13.4 -0.5 13.45 -0.55 13.5 -0.65 13.55 -0.7 13.6 -0.8 13.65 -0.85 13.7 -0.95 13.75 -1.05 13.8 -1.15 13.8 -1.2 13.85 -1.3 13.9 -1.4 13.95 -1.5 13.9 -1.4 14.0 -1.65 14.15 -2.1 14.4 -2.8 14.75 -3.75 14.8 -3.95 14.85 -4.15 14.95 -4.4 15.0 -4.5 15.15 -4.85 15.25 -5.1 15.3 -5.3 15.4 -5.5 15.5 -5.7 15.55 -5.95 15.65 -6.15 15.7 -6.4 15.75 -6.65 15.8 -6.85 15.85 -7.1 15.85 -7.35 15.9 -7.55 15.9 -7.9 15.9 -8.25 15.9 -8.65 15.9 -9.0 15.9 -9.35 15.85 -9.7 15.85 -10.05 15.8 -10.4 15.75 -10.75 15.75 -11.1 15.7 -11.45 15.65 -11.8 15.6 -12.15 15.55 -12.5 15.45 -12.85 15.4 -13.2 15.35 -13.55 15.25 -13.9 15.15 -14.25 15.0 -14.6 14.9 -14.9 14.75 -15.25 14.6 -15.55 14.45 -15.85 14.3 -16.15 14.1 -16.5 13.95 -16.75 13.8 -17.1 13.65 -17.35 13.4 -17.7 13.05 -18.25 13.05 -18.3 12.8 -18.7 12.5 -19.1 12.25 -19.5 11.95 -19.9 11.65 -20.25 11.35 -20.6 11.05 -20.95 10.7 -21.25 10.4 -21.6 10.0 -21.9 9.65 -22.2 9.3 -22.45 8.95 -22.75 8.55 -22.95 8.15 -23.2 7.7 -23.45 7.55 -23.55 7.4 -23.6 7.25 -23.7 7.1 -23.75 6.95 -23.85 6.8 -23.9 6.65 -24.0 6.5 -24.05 6.35 -24.1 6.2 -24.2 6.0 -24.25 5.85 -24.35 5.7 -24.4 5.55 -24.5 5.4 -24.55 5.25 -24.6 5.15 -24.65 5.1 -24.65 5.0 -24.7 4.9 -24.7 4.85 -24.7 4.75 -24.65 4.7 -24.65 4.65 -24.6 4.55 -24.6 4.5 -24.55 4.45 -24.5 4.4 -24.45 4.3 -24.35 4.25 -24.3 4.2 -24.25 4.15 -24.15 4.1 -24.05 4.1 -24.0 4.05 -23.9 4.05 -23.85 4.05 -23.75 4.05 -23.7 4.05 -23.6 4.05 -23.55 4.05 -23.45 4.1 -23.4 4.1 -23.3 4.15 -23.25 4.15 -23.15 4.2 -23.1 4.25 -23.0 4.3 -22.95 5.1 -22.05 6.45 -20.45 6.75 -20.05 6.95 -19.9 7.2 -19.55 7.4 -19.3 7.65 -19.0 7.9 -18.7 8.1 -18.4 8.35 -18.1 8.55 -17.8 8.75 -17.5 9.0 -17.2 9.15 -16.85 9.35 -16.55 9.55 -16.2 9.7 -15.85 9.85 -15.5 10.0 -15.25 10.0 -15.2 10.1 -15.05 10.15 -14.9 10.2 -14.75 10.3 -14.6 10.35 -14.4 10.4 -14.25 10.45 -14.1 10.5 -13.95 10.55 -13.8 10.6 -13.6 10.65 -13.45 10.65 -13.3 10.7 -13.15 10.7 -13.0 10.7 -12.7 10.7 -12.4 10.75 -12.05 10.75 -11.75 10.75 -11.45 10.75 -11.15 10.7 -10.8 10.7 -10.5 10.7 -10.2 10.7 -9.9 10.65 -9.6 10.65 -9.3 10.6 -8.95 10.55 -8.65 10.55 -8.35 10.5 -8.05 10.45 -7.85 10.45 -7.7 10.4 -7.5 10.35 -7.3 10.3 -7.15 10.2 -6.95 10.15 -6.75 10.1 -6.6 10.0 -6.4 9.9 -6.25 9.85 -6.05 9.75 -5.9 9.65 -5.7 9.55 -5.55 9.5 -5.4 9.4 -5.25 9.35 -5.15 9.25 -5.05 9.2 -4.95 9.1 -4.8 8.9 -4.5 8.95 -4.6 8.9 -4.5 8.85 -4.4 8.75 -4.25 8.7 -4.15 8.65 -4.05 8.6 -3.95 8.5 -3.85 8.45 -3.7 8.4 -3.6 8.4 -3.45 8.4 -3.4 8.35 -3.4 8.4 -3.4 8.35 -3.3 8.3 -3.25 8.3 -3.25 8.3 -3.2 8.25 -3.15 7.65 -2.4 7.2 -1.9 5.15 0.2 4.3 1.15 4.25 1.2 4.2 1.2 4.2 1.25 4.15 1.3 4.1 1.3 4.1 1.3 4.05 1.3 4.0 1.3 3.95 1.35 3.95 1.3 3.9 1.3 3.85 1.3 3.8 1.3 3.75 1.25 3.7 1.25 3.7 1.2 3.3 0.95 2.95 0.7 2.6 0.4 2.25 0.15 1.85 -0.1 1.5 -0.4 1.15 -0.65 0.8 -0.9 0.45 -1.2 0.1 -1.5 -0.25 -1.8 -0.6 -2.05 -0.9 -2.35 -1.25 -2.7 -1.6 -3.0 -1.9 -3.3 -1.95 -3.35 -2.05 -3.45 -2.15 -3.6 -2.15 -3.6 -2.25 -3.65 -2.3 -3.7 -2.4 -3.8 -2.45 -3.85 -2.55 -3.9 -2.6 -3.95 -2.7 -4.0 -2.8 -4.0 -2.85 -4.05 -2.95 -4.05 -3.05 -4.05 -3.2 -4.05 -3.25 -4.05 -3.25 -4.05 -3.3 -4.1 -3.35 -4.15 -3.45 -4.25 -3.45 -4.25 -3.5 -4.3 -3.5 -4.35 -3.55 -4.35 -3.6 -4.4 -3.6 -4.4 -3.65 -4.5 -3.7 -4.55 -3.75 -4.55 -3.75 -4.6 -3.8 -4.65 -3.85 -4.7 -3.85 -4.7 -3.9 -4.75 -3.95 -4.8 -4.0 -4.8 -4.05 -4.85 -4.15 -4.9 -4.25 -4.95 -4.3 -5.05 -4.4 -5.1 -4.45 -5.2 -4.55 -5.25 -4.6 -5.35 -4.65 -5.45 -4.7 -5.5 -4.75 -5.6 -4.8 -5.7 -4.85 -5.8 -4.9 -5.9 -5.0 -6.0 -4.95 -6.0 -5.1 -6.2 -5.75 -7.6 -6.25 -8.35 -6.55 -8.8 -7.85 -10.5 -8.8 -11.8 -9.35 -12.7 -9.7 -13.25 -10.05 -13.8 -10.4 -14.35 -10.7 -14.95 -11.05 -15.5 -11.35 -16.05 -11.7 -16.65 -11.95 -17.25 -12.25 -17.8 -12.55 -18.4 -12.85 -19.0 -13.1 -19.6 -13.35 -20.2 -13.6 -20.85 -13.85 -21.45 -14.1 -22.05 -14.15 -22.15 -14.15 -22.2 -14.2 -22.3 -14.25 -22.4 -14.3 -22.45 -14.35 -22.5 -14.4 -22.55 -14.45 -22.6 -14.5 -22.65 -14.55 -22.7 -14.6 -22.75 -14.65 -22.8 -14.7 -22.8 -14.8 -22.8 -14.85 -22.85 -14.9 -22.85 -14.95 -22.85 -15.0 -22.8 -15.0 -22.8 -15.05 -22.75 -15.1 -22.75 -15.15 -22.7 -15.15 -22.7 -15.2 -22.65 -15.25 -22.65 -15.3 -22.65 -15.3 -22.6 -15.35 -22.6 -15.4 -22.55 -15.45 -22.55 -15.45 -22.5 -15.5 -22.5 -15.55 -22.45 -15.6 -22.45 -15.65 -22.4 -15.65 -22.4 -15.8 -22.25 -16.05 -22.05 -16.2 -21.95 -16.45 -21.75 -16.5 -21.7 -16.55 -21.65 -16.65 -21.55 -16.7 -21.5 -16.75 -21.45 -16.8 -21.35 -16.85 -21.3 -16.9 -21.25 -17.0 -21.15 -17.05 -21.1 -17.1 -21.0 -17.15 -20.95 -17.2 -20.85 -17.25 -20.8 -17.3 -20.7 -17.35 -20.65 -17.4 -20.5 -18.05 -19.4 -18.5 -18.6 -18.75 -18.1 -18.7 -18.0 -18.6 -17.65 -18.5 -17.35 -18.4 -17.15 -18.05 -16.25 -17.7 -15.35 -17.3 -14.5 -16.9 -13.6 -16.5 -12.75 -16.05 -11.9 -15.6 -11.1 -15.15 -10.25 -14.65 -9.45 -14.15 -8.6 -13.7 -7.8 -13.15 -7.0 -12.65 -6.25 -12.1 -5.45 -11.6 -4.65 -11.05 -3.85 -10.95 -3.7 -10.8 -3.55 -10.7 -3.4 -10.6 -3.25 -10.45 -3.15 -10.35 -3.0 -10.2 -2.9 -10.05 -2.75 -10.0 -2.65 -9.8 -2.45 -9.65 -2.3 -9.55 -2.2 -9.4 -2.05 -9.3 -1.95 -9.15 -1.8 -9.0 -1.65 -8.95 -1.6 -8.9 -1.55 -8.85 -1.5 -8.8 -1.45 -8.8 -1.4 -8.75 -1.3 -8.7 -1.25 -8.65 -1.2 -8.6 -1.15 -8.55 -1.1 -8.55 -1.05 -8.5 -0.95 -8.45 -0.9 -8.4 -0.85 -8.4 -0.8 -8.35 -0.7 -8.25 -0.55 -8.2 -0.45 -8.1 -0.3 -8.0 -0.2 -7.95 -0.05 -7.85 0.05 -7.75 0.15 -7.65 0.25 -7.55 0.35 -7.4 0.45 -7.3 0.55 -7.2 0.6 -7.05 0.7 -6.95 0.75 -6.8 0.85 -6.65 0.9 -6.6 0.9 -6.6 0.95 -6.55 0.95 -6.5 0.95 -6.45 0.95 -6.45 1.0 -6.4 1.0 -6.35 1.0 -6.35 1.05 -6.3 1.05 -6.25 1.05 -6.2 1.1 -6.2 1.1 -6.15 1.15 -6.1 1.15 -6.1 1.2 -6.1 1.2 -4.1 2.75 -3.35 3.35 -1.2 5.05 -1.25 5.05 -1.3 5.1 -1.35 5.15 -1.35 5.15 -2.3 5.65 -3.2 6.05 -4.1 6.5 -5.0 6.9 -5.95 7.3 -6.9 7.65 -7.85 8.0 -8.75 8.3 -9.75 8.6 -10.7 8.85 -11.65 9.05 -12.65 9.25 -13.65 9.4 -14.6 9.5 -15.65 9.55 -16.65 9.55 -16.8 9.55 -16.9 9.55 -17.05 9.6 -17.15 9.6 -17.25 9.65 -17.35 9.7 -17.45 9.75 -17.5 9.85 -17.6 9.9 -17.65 10.0 -17.7 10.1 -17.75 10.2 -17.75 10.35 -17.8 10.45 -17.85 10.6 -17.85 10.8 -17.9 11.05 -17.9 11.25 -17.95 11.5 -18.0 11.75 -18.0 11.95 -18.05 12.2 -18.1 12.45 -18.15 12.65 -18.2 12.9 -18.25 13.1 -18.35 13.35 -18.4 13.55 -18.5 13.8 -18.55 14.0 -18.65 14.2 -18.75 14.45 -18.75 14.45 -18.85 14.85 -18.85 14.9 -19.55 17.5 -19.95 19.1 -20.25 20.15 -20.3 20.3 -20.3 20.4 -20.35 20.5 -20.35 20.6 -20.35 20.7 -20.35 20.8 -20.35 20.9 -20.35 21.0 -20.3 21.1 -20.25 21.15 -20.2 21.25 -20.15 21.35 -20.1 21.4 -20.0 21.45 -19.9 21.55 -19.8 21.6 -19.45 21.8 -19.1 21.95 -18.75 22.15 -18.4 22.3 -18.05 22.45 -17.7 22.6 -17.35 22.75 -17.0 22.9 -16.65 23.05 -16.3 23.15 -15.9 23.3 -15.55 23.4 -15.2 23.5 -14.8 23.6 -14.45 23.7 -14.05 23.8 -13.0 24.05 -12.2 24.2 -11.2 24.4 -10.35 24.55 -9.4 24.75 -8.5 24.9 -7.55 25.05 -6.65 25.2 -5.7 25.35 -4.75 25.4 -3.8 25.5 -2.9 25.55 -1.95 25.6 -1.0 25.6 -0.05 25.6 0.9 25.55 6.2 25.25 9.25 24.8 9.9 24.7 10.6 24.55 11.2 24.4 11.9 24.2 12.5 24.05 13.15 23.8 13.8 23.6 14.45 23.35 15.05 23.15 15.7 22.85 16.3 22.6 16.95 22.35 17.5 22.1 18.2 21.8 18.5 21.65 19.45 21.25 19.5 21.2 19.6 21.15 19.75 21.05 19.8 21.0 19.9 20.95 19.95 20.9 20.05 20.8 20.1 20.75 20.15 20.7 20.2 20.6 20.25 20.55 20.25 20.45 20.3 20.35 20.3 20.3 20.3 20.2 20.3 20.1 20.3 20.0 20.3 19.9 20.3 19.8 20.25 19.7 L20.25 19.7 M13.95 7.95 Q14.0 7.95 14.05 7.95 14.05 7.95 14.1 7.95 14.3 8.0 14.5 8.05 14.7 8.1 14.9 8.2 15.1 8.3 15.25 8.4 15.4 8.5 15.55 8.6 15.65 8.75 15.75 8.9 15.9 9.05 15.95 9.25 16.05 9.45 16.1 9.65 16.15 9.9 16.15 10.15 16.15 10.25 16.55 11.55 15.75 11.3 15.15 11.1 14.45 10.85 13.8 10.6 13.1 10.35 12.45 10.1 11.75 9.85 11.1 9.6 10.45 9.35 9.8 9.05 9.15 8.8 8.5 8.5 7.8 8.2 7.2 7.9 6.55 7.55 5.9 7.2 6.15 7.0 6.75 6.55 7.25 6.1 7.55 5.9 7.6 5.9 7.6 5.85 7.65 5.85 7.7 5.85 7.75 5.85 7.8 5.85 7.8 5.85 7.85 5.85 7.9 5.85 7.95 5.9 9.7 6.45 13.95 7.95 L13.95 7.95 M16.6 13.65 Q14.3 14.8 13.6 15.1 12.95 15.35 12.3 15.6 11.7 15.8 11.05 16.0 10.4 16.2 9.7 16.35 9.1 16.5 8.4 16.65 7.75 16.75 7.1 16.85 6.45 16.95 5.75 17.0 5.1 17.1 4.4 17.15 3.75 17.2 3.05 17.2 2.1 17.25 1.2 17.25 0.25 17.3 -0.65 17.3 -1.6 17.3 -2.5 17.3 -3.45 17.25 -4.35 17.2 -5.3 17.15 -6.2 17.1 -7.1 17.0 -8.05 16.9 -8.95 16.8 -9.85 16.65 -10.8 16.5 -11.7 16.35 -11.95 16.3 -12.4 16.2 -13.05 16.05 -13.05 16.05 -12.55 16.0 -12.1 15.9 -11.6 15.8 -11.15 15.7 -10.65 15.6 -10.2 15.5 -9.7 15.4 -9.25 15.25 -8.8 15.1 -8.3 14.95 -7.85 14.8 -7.4 14.65 -6.95 14.5 -6.45 14.35 -6.05 14.2 -5.55 14.05 -4.95 13.8 -4.3 13.55 -3.7 13.3 -3.1 13.0 -2.5 12.75 -1.9 12.4 -1.3 12.1 -0.75 11.75 -0.15 11.45 0.4 11.1 0.95 10.75 1.55 10.35 2.1 10.0 2.65 9.6 3.2 9.25 3.75 8.8 3.8 8.75 3.85 8.75 3.9 8.7 4.0 8.65 4.05 8.65 4.1 8.65 4.15 8.6 4.2 8.6 4.25 8.6 4.3 8.6 4.35 8.6 4.4 8.65 4.45 8.65 4.5 8.65 4.6 8.7 4.65 8.75 7.6 10.4 14.65 13.0 14.85 13.1 15.6 13.3 16.2 13.5 16.6 13.65 L16.6 13.65 M12.05 -0.35 Q12.2 -0.4 12.35 -0.5 12.5 -0.55 12.6 -0.65 12.75 -0.75 12.85 -0.9 12.95 -1.0 13.05 -1.1 13.15 -1.25 13.2 -1.35 13.3 -1.5 13.35 -1.65 13.45 -1.75 13.5 -1.95 13.55 -2.05 13.65 -2.2 13.65 -2.0 13.6 -1.75 13.55 -1.55 13.45 -1.35 13.4 -1.2 13.3 -1.0 13.2 -0.85 13.1 -0.7 12.95 -0.55 12.85 -0.45 12.7 -0.35 12.6 -0.3 12.45 -0.25 12.3 -0.25 12.15 -0.25 12.05 -0.35 L12.05 -0.35 M9.5 -19.85 Q9.85 -19.55 9.95 -19.35 10.0 -19.3 10.0 -19.3 10.05 -19.25 10.1 -19.2 10.1 -19.2 10.15 -19.15 10.2 -19.1 10.2 -19.05 10.25 -19.05 10.3 -19.0 10.3 -18.95 10.35 -18.95 10.35 -18.9 10.4 -18.85 10.45 -18.8 10.45 -18.75 11.9 -16.65 12.6 -15.55 12.75 -15.3 12.85 -15.05 13.0 -14.85 13.1 -14.6 13.2 -14.35 13.25 -14.1 13.35 -13.85 13.45 -13.55 13.5 -13.3 13.55 -13.05 13.6 -12.8 13.7 -12.5 13.75 -12.25 13.8 -11.95 13.8 -11.75 13.85 -11.45 13.9 -11.0 13.95 -10.6 14.0 -10.15 14.0 -9.75 14.05 -9.3 14.0 -8.9 14.0 -8.5 13.95 -8.05 13.9 -7.65 13.85 -7.25 13.8 -6.85 13.7 -6.45 13.6 -6.05 13.45 -5.65 13.35 -5.2 13.15 -4.8 13.1 -4.7 12.9 -4.2 12.4 -4.5 11.45 -5.15 11.65 -5.55 11.85 -6.0 12.0 -6.4 12.15 -6.85 12.25 -7.3 12.35 -7.75 12.4 -8.2 12.45 -8.65 12.5 -9.1 12.55 -9.55 12.55 -9.95 12.55 -10.5 12.55 -10.7 12.6 -11.4 12.6 -12.0 12.6 -12.35 12.6 -12.6 12.6 -12.9 12.6 -13.15 12.55 -13.4 12.5 -13.65 12.45 -13.9 12.4 -14.15 12.35 -14.4 12.25 -14.65 12.15 -14.9 12.1 -15.15 12.0 -15.4 11.9 -15.6 11.75 -15.85 11.65 -16.1 11.55 -16.3 11.45 -16.45 9.5 -19.85 L9.5 -19.85 M11.55 -3.2 Q11.85 -3.0 12.3 -2.7 12.9 -2.25 13.05 -2.15 13.05 -2.05 13.0 -1.95 12.95 -1.8 12.9 -1.7 12.85 -1.6 12.8 -1.45 12.75 -1.35 12.65 -1.25 12.55 -1.15 12.45 -1.05 12.4 -0.95 12.3 -0.9 12.2 -0.8 12.1 -0.8 12.0 -0.75 11.9 -0.7 11.85 -0.7 11.85 -0.7 11.8 -0.7 11.75 -0.75 11.7 -0.75 11.65 -0.8 11.6 -0.8 11.6 -0.85 11.55 -0.85 11.5 -0.9 10.2 -2.1 9.55 -2.75 9.5 -2.8 9.5 -2.8 9.45 -2.85 9.45 -2.9 9.45 -2.95 9.4 -2.95 9.4 -3.0 9.4 -3.05 9.35 -3.1 9.35 -3.15 9.35 -3.2 9.35 -3.2 9.35 -3.25 9.35 -3.25 9.4 -3.3 9.4 -3.3 9.5 -3.5 10.05 -4.5 11.0 -3.65 11.55 -3.2 L11.55 -3.2 M9.9 -4.95 Q9.5 -4.35 8.85 -3.25 8.85 -3.35 8.85 -3.5 8.85 -3.6 8.85 -3.7 8.9 -3.85 8.95 -3.95 9.0 -4.1 9.05 -4.2 9.15 -4.3 9.25 -4.45 9.3 -4.55 9.45 -4.65 9.55 -4.75 9.65 -4.8 9.75 -4.9 9.9 -4.95 L9.9 -4.95 M-3.65 -3.55 Q-4.0 -3.85 -4.65 -4.5 -4.6 -4.55 -4.5 -4.55 -4.4 -4.55 -4.35 -4.55 -4.25 -4.5 -4.15 -4.45 -4.1 -4.4 -4.0 -4.35 -3.95 -4.25 -3.85 -4.15 -3.8 -4.05 -3.75 -3.95 -3.7 -3.85 -3.7 -3.75 -3.65 -3.65 -3.65 -3.55 L-3.65 -3.55 M-8.4 -3.35 Q-9.65 -5.05 -10.55 -6.4 -11.05 -7.15 -11.55 -7.9 -12.05 -8.65 -12.5 -9.45 -12.95 -10.15 -13.4 -10.95 -13.85 -11.65 -14.25 -12.4 -14.65 -13.15 -15.05 -13.9 -15.45 -14.6 -15.8 -15.35 -16.15 -16.05 -16.5 -16.8 -16.85 -17.5 -17.2 -18.2 -16.75 -19.05 -16.4 -19.55 -16.35 -19.65 -16.3 -19.7 -16.25 -19.8 -16.2 -19.85 -16.15 -19.95 -16.05 -20.05 -16.0 -20.1 -15.95 -20.15 -15.9 -20.25 -15.85 -20.3 -15.8 -20.4 -15.75 -20.45 -15.7 -20.5 -15.65 -20.6 -15.6 -20.65 -15.55 -20.7 -15.15 -19.6 -14.65 -18.55 -14.2 -17.5 -13.65 -16.45 -13.15 -15.45 -12.6 -14.45 -12.05 -13.45 -11.45 -12.5 -10.85 -11.55 -10.2 -10.6 -9.6 -9.65 -8.95 -8.7 -8.35 -7.85 -7.65 -6.9 -7.0 -6.0 -6.3 -5.1 -7.0 -4.5 -8.4 -3.35 L-8.4 -3.35 M-8.1 -1.45 Q-7.6 -0.85 -6.5 0.45 -6.65 0.4 -6.85 0.35 -7.0 0.25 -7.15 0.15 -7.3 0.05 -7.45 -0.1 -7.6 -0.2 -7.75 -0.35 -7.85 -0.5 -7.95 -0.65 -8.05 -0.8 -8.1 -0.95 -8.15 -1.1 -8.15 -1.25 -8.15 -1.35 -8.1 -1.45 L-8.1 -1.45 M-6.25 -0.5 Q-6.3 -0.45 -6.3 -0.45 -6.35 -0.4 -6.4 -0.4 -6.45 -0.35 -6.45 -0.35 -6.5 -0.35 -6.5 -0.35 -7.2 -0.95 -7.45 -1.25 -7.5 -1.3 -7.5 -1.35 -7.55 -1.4 -7.55 -1.45 -7.6 -1.5 -7.6 -1.55 -7.65 -1.6 -7.65 -1.7 -7.65 -1.75 -7.65 -1.8 -7.65 -1.85 -7.6 -1.95 -7.6 -2.0 -7.55 -2.05 -7.5 -2.15 -7.45 -2.2 -7.35 -2.35 -7.2 -2.5 -7.1 -2.65 -6.95 -2.8 -6.85 -2.95 -6.7 -3.05 -6.55 -3.15 -6.4 -3.3 -6.3 -3.4 -6.15 -3.5 -6.0 -3.6 -5.8 -3.7 -5.7 -3.8 -5.5 -3.9 -5.45 -3.95 -5.2 -4.05 -5.15 -4.1 -5.05 -4.1 -5.0 -4.1 -4.9 -4.05 -4.8 -4.05 -4.7 -3.95 -4.6 -3.9 -4.5 -3.85 -4.4 -3.75 -4.3 -3.7 -4.25 -3.6 -4.15 -3.5 -4.1 -3.4 -4.05 -3.3 -4.05 -3.25 -4.05 -3.15 -4.05 -3.1 -4.1 -3.1 -4.1 -3.05 -4.1 -3.05 -4.15 -3.0 -4.15 -2.95 -4.15 -2.9 -4.2 -2.9 -4.2 -2.85 -4.25 -2.8 -4.25 -2.8 -6.25 -0.5 L-6.25 -0.5 M-3.85 0.5 Q-4.05 0.35 -4.15 0.3 -4.25 0.2 -4.3 0.1 -4.4 0.05 -4.45 -0.05 -4.5 -0.1 -4.5 -0.15 -4.5 -0.25 -4.45 -0.3 -4.45 -0.4 -4.4 -0.5 -4.3 -0.6 -4.2 -0.7 -4.15 -0.8 -4.0 -1.0 -3.8 -1.2 -3.75 -1.3 -3.65 -1.45 -3.55 -1.55 -3.45 -1.6 -3.4 -1.65 -3.3 -1.7 -3.25 -1.7 -3.15 -1.7 -3.1 -1.7 -3.0 -1.65 -2.9 -1.6 -2.8 -1.5 -2.65 -1.4 -2.65 -1.4 -2.4 -1.15 -1.45 -0.35 -0.05 0.8 2.15 2.55 2.4 2.75 1.05 3.7 0.8 3.85 0.8 3.85 0.75 3.85 0.75 3.85 0.7 3.85 0.65 3.85 0.65 3.85 0.6 3.85 0.55 3.85 0.55 3.85 0.5 3.85 0.45 3.8 0.45 3.8 0.4 3.8 0.35 3.8 0.35 3.75 0.3 3.75 0.25 3.75 -1.8 2.15 -3.05 1.15 -3.85 0.5 L-3.85 0.5 M-16.1 11.7 Q-14.25 11.5 -12.5 11.15 -10.7 10.8 -9.0 10.35 -7.25 9.9 -5.6 9.3 -3.95 8.65 -2.4 7.9 -0.75 7.1 0.7 6.2 2.25 5.25 3.7 4.1 5.15 3.0 6.45 1.65 7.85 0.35 9.1 -1.2 9.55 -0.8 10.45 0.0 10.25 0.3 10.05 0.55 9.8 0.85 9.6 1.15 9.4 1.4 9.15 1.65 8.95 1.95 8.7 2.2 8.5 2.45 8.25 2.7 8.0 2.95 7.75 3.15 7.5 3.4 7.25 3.6 7.0 3.85 6.75 4.05 6.05 4.6 5.5 5.1 4.8 5.65 4.2 6.1 3.55 6.65 2.9 7.1 2.25 7.6 1.6 8.05 0.9 8.5 0.25 8.95 -0.45 9.4 -1.1 9.8 -1.85 10.2 -2.55 10.55 -3.25 10.95 -4.0 11.25 -4.75 11.6 -5.4 11.85 -6.15 12.2 -6.85 12.45 -7.6 12.7 -8.3 12.95 -9.05 13.2 -9.75 13.35 -10.5 13.55 -11.25 13.7 -12.0 13.85 -12.75 13.95 -13.55 14.0 -14.3 14.05 -15.05 14.1 -15.85 14.05 -16.3 14.0 -16.6 14.0 -16.4 13.15 -16.1 11.7 L-16.1 11.7 M14.15 21.35 Q13.5 21.6 12.8 21.85 12.15 22.05 11.5 22.25 10.85 22.45 10.15 22.6 9.5 22.75 8.8 22.9 8.1 23.0 7.4 23.1 6.75 23.2 6.05 23.3 5.35 23.35 4.65 23.4 4.0 23.45 3.3 23.5 2.75 23.55 2.25 23.55 1.7 23.6 1.2 23.6 0.65 23.6 0.1 23.65 -0.4 23.65 -0.95 23.65 -1.45 23.65 -2.0 23.6 -2.5 23.6 -3.05 23.6 -3.55 23.55 -4.1 23.5 -4.6 23.45 -5.15 23.4 -5.8 23.3 -6.45 23.25 -7.1 23.15 -7.7 23.05 -8.4 22.95 -9.0 22.85 -9.65 22.7 -10.3 22.6 -10.95 22.45 -11.55 22.35 -12.2 22.2 -12.85 22.05 -13.5 21.9 -14.1 21.75 -14.75 21.6 -15.35 21.4 -15.6 21.35 -18.25 20.3 -17.95 19.05 -17.35 16.8 -17.0 16.9 -15.9 17.25 -15.0 17.55 -14.45 17.7 -13.95 17.85 -13.4 18.0 -12.9 18.1 -12.35 18.25 -11.85 18.35 -11.3 18.45 -10.75 18.55 -10.25 18.65 -9.7 18.7 -9.15 18.75 -8.65 18.85 -8.1 18.9 -7.6 18.95 -7.05 19.0 -6.5 19.0 -5.95 19.05 -0.85 19.3 3.15 19.15 4.0 19.15 4.8 19.05 5.65 19.0 6.45 18.9 7.3 18.8 8.1 18.7 8.9 18.55 9.7 18.35 10.55 18.2 11.3 17.95 12.15 17.7 12.9 17.45 13.7 17.15 14.45 16.85 15.25 16.5 16.0 16.15 16.25 16.0 16.65 15.8 17.15 15.5 17.3 15.45 17.65 16.85 18.35 19.65 18.05 19.75 14.15 21.35 L14.15 21.35" fill="#000000" fill-rule="evenodd" stroke="none"/>
  </g>
</svg>
