<?xml version="1.0" encoding="UTF-8" standalone="no"?>
<svg xmlns:xlink="http://www.w3.org/1999/xlink" height="28.45px" width="28.5px" xmlns="http://www.w3.org/2000/svg">
  <g transform="matrix(1.0, 0.0, 0.0, 1.0, 14.25, 14.25)">
    <path d="M7.9 11.1 Q7.95 10.9 7.95 10.7 7.95 10.5 7.95 10.3 8.0 10.15 7.95 9.95 7.95 9.75 7.95 9.6 7.95 9.45 7.9 9.3 7.9 9.15 7.9 9.0 7.85 8.9 7.85 8.75 7.8 8.7 7.8 8.55 7.75 8.3 7.7 8.05 7.65 7.85 7.55 7.65 7.55 7.55 7.45 7.3 7.4 7.1 7.35 7.0 7.3 6.85 7.3 6.75 7.25 6.6 7.25 6.5 7.25 6.35 7.25 6.25 7.25 6.1 7.3 5.95 7.6 5.15 7.6 5.15 7.85 4.2 7.85 3.85 7.85 3.75 7.85 3.65 7.85 3.55 7.85 3.45 7.85 3.35 7.85 3.25 7.8 3.15 7.8 3.05 7.75 2.95 7.75 2.8 7.7 2.7 7.65 2.55 7.6 2.45 7.55 2.3 7.55 2.2 7.45 2.0 7.0 0.6 7.0 0.25 7.0 0.15 7.0 -0.25 7.0 -0.55 7.0 -0.85 7.05 -1.4 7.0 -1.75 7.0 -2.0 7.0 -2.1 6.95 -2.3 6.95 -2.4 6.95 -2.55 6.9 -2.7 6.9 -2.85 6.85 -3.0 6.85 -3.1 6.8 -3.25 6.75 -3.35 6.7 -3.45 6.65 -3.6 6.6 -3.7 6.55 -3.8 6.45 -3.9 6.4 -3.95 6.3 -4.05 6.25 -4.1 6.2 -4.15 6.15 -4.15 6.1 -4.2 5.9 -4.35 5.95 -4.3 5.9 -4.35 5.85 -4.4 5.8 -4.45 5.7 -4.5 5.65 -4.55 5.6 -4.6 5.55 -4.7 5.45 -4.8 5.4 -4.85 5.4 -4.9 5.35 -4.95 5.35 -5.0 5.3 -5.05 5.3 -5.15 5.25 -5.2 5.25 -5.25 5.2 -5.3 5.2 -5.35 5.2 -5.4 5.15 -5.45 5.15 -5.5 5.1 -5.6 5.1 -5.65 5.1 -5.7 5.05 -5.85 5.05 -5.95 5.0 -6.05 5.0 -6.15 4.95 -6.25 4.95 -6.35 4.95 -6.4 4.95 -6.5 4.9 -6.6 4.9 -6.65 4.9 -6.75 4.9 -6.8 4.85 -6.9 4.85 -7.0 4.8 -7.1 4.8 -7.2 4.75 -7.25 4.75 -7.35 4.7 -7.4 4.7 -7.5 4.65 -7.55 4.6 -7.6 4.6 -7.65 4.55 -7.7 4.55 -7.75 4.5 -7.8 4.5 -7.85 4.45 -7.9 4.45 -7.95 4.4 -8.0 4.4 -8.0 4.35 -8.05 4.3 -8.1 4.3 -8.15 4.25 -8.2 4.2 -8.3 4.15 -8.35 4.1 -8.4 4.05 -8.5 3.95 -8.55 3.9 -8.65 3.8 -8.7 3.75 -8.8 3.65 -8.85 3.55 -8.95 3.45 -9.0 3.35 -9.1 3.2 -9.15 3.05 -9.1 2.85 -9.05 2.7 -9.0 2.5 -8.95 2.35 -8.9 2.15 -8.9 1.95 -8.85 1.75 -8.8 1.55 -8.75 1.35 -8.75 1.15 -8.7 0.95 -8.65 0.7 -8.65 0.5 -8.6 0.25 -8.6 0.05 -8.55 -0.35 -8.5 -0.75 -8.5 -1.15 -8.5 -1.5 -8.5 -1.9 -8.55 -2.25 -8.55 -2.6 -8.6 -2.95 -8.6 -3.25 -8.65 -3.6 -8.7 -3.9 -8.75 -4.2 -8.8 -4.45 -8.85 -4.75 -8.95 -5.0 -9.0 -5.25 -9.05 -5.2 -8.9 -5.15 -8.75 -5.15 -8.6 -5.1 -8.45 -5.1 -8.35 -5.05 -8.2 -5.05 -8.05 -5.0 -7.95 -5.0 -7.85 -5.0 -7.7 -4.95 -7.6 -4.95 -7.5 -4.95 -7.4 -4.95 -7.3 -4.95 -7.2 -4.9 -7.1 -4.9 -7.0 -4.9 -6.95 -4.9 -6.9 -4.9 -6.8 -4.9 -6.75 -4.9 -6.7 -4.9 -6.6 -4.85 -6.55 -4.85 -6.45 -4.85 -6.4 -4.8 -6.35 -4.8 -6.25 -4.75 -6.2 -4.7 -6.15 -4.7 -6.05 -4.65 -6.0 -4.6 -5.95 -4.6 -5.9 -4.55 -5.9 -4.55 -5.85 -4.5 -5.85 -4.45 -5.8 -4.45 -5.75 -4.4 -5.75 -4.4 -5.7 -4.35 -5.7 -4.35 -5.65 -4.3 -5.65 -4.3 -5.6 -4.3 -5.55 -4.25 -5.55 -4.25 -5.5 -4.2 -5.45 -4.2 -5.4 -4.2 -5.35 -4.2 -5.3 -4.15 -5.25 -4.15 -5.2 -4.15 -5.15 -4.15 -5.1 -4.15 -5.25 -4.15 -5.0 -4.15 -4.95 -4.15 -4.9 -4.15 -4.85 -4.15 -4.75 -4.1 -4.7 -4.1 -4.6 -4.1 -4.5 -4.05 -4.45 -4.05 -4.4 -4.0 -4.3 -4.0 -4.25 -4.0 -4.2 -3.95 -4.15 -3.95 -4.1 -3.95 -4.05 -3.95 -4.05 -3.9 -4.0 -3.9 -3.95 -3.9 -3.95 -3.9 -3.9 -3.95 -3.85 -3.95 -3.85 -3.95 -3.8 -4.0 -3.8 -4.0 -3.8 -4.05 -3.8 -4.05 -3.75 -4.1 -3.75 -4.15 -3.75 -4.15 -3.75 -4.2 -3.75 -4.25 -3.75 -4.3 -3.75 -4.3 -3.75 -4.35 -3.7 -4.4 -3.7 -4.45 -3.7 -4.45 -3.65 -4.5 -3.6 -4.55 -3.6 -4.55 -3.55 -4.6 -3.5 -4.6 -3.45 -4.65 -3.4 -4.65 -3.35 -4.65 -3.3 -4.7 -3.25 -4.7 -3.2 -4.7 -3.15 -4.7 -3.1 -4.7 -3.05 -4.7 -2.95 -4.7 -2.85 -4.7 -2.85 -4.7 -2.65 -4.75 -2.45 -4.8 -2.3 -4.8 -2.15 -4.85 -2.0 -4.9 -1.9 -4.9 -1.85 -4.95 -1.7 -5.0 -1.6 -5.05 -1.5 -5.05 -1.4 -5.1 -1.35 -5.1 -1.25 -5.1 -1.15 -5.1 -1.05 -5.05 -0.9 -5.05 -0.85 -5.05 -0.8 -5.05 -0.75 -5.0 -0.7 -5.0 -0.65 -5.0 -0.55 -4.95 -0.5 -4.95 -0.45 -4.9 -0.35 -4.85 -0.3 -4.8 -0.2 -4.75 -0.1 -4.7 -0.05 -4.65 0.05 -4.6 0.15 -4.5 0.2 -4.5 0.25 -4.5 0.3 -4.5 0.35 -4.45 0.4 -4.45 0.45 -4.45 0.5 -4.45 0.55 -4.45 0.6 -4.45 0.65 -4.45 0.7 -4.45 0.75 -4.45 0.8 -4.5 0.9 -4.5 0.95 -4.5 1.0 -4.55 1.05 -4.55 1.1 -4.6 1.15 -4.6 1.2 -4.65 1.25 -4.65 1.3 -4.7 1.3 -4.7 1.35 -4.75 1.4 -4.75 1.4 -4.8 1.45 -4.85 1.5 -4.85 1.5 -4.9 1.55 -4.9 1.55 -4.95 1.6 -4.95 1.65 -5.0 1.7 -5.05 1.8 -5.1 1.85 -5.1 1.95 -5.15 2.05 -5.15 2.1 -5.15 2.2 -5.15 2.3 -5.15 2.4 -5.15 2.5 -5.15 2.55 -5.15 2.7 -5.15 2.8 -5.15 2.9 -5.15 2.6 -5.1 3.15 -5.1 3.25 -5.1 3.35 -5.05 3.45 -5.05 3.6 -5.05 3.7 -5.05 3.85 -5.0 3.95 -5.0 4.1 -5.0 4.25 -5.0 4.4 -4.95 4.55 -4.95 4.7 -4.95 4.85 -4.95 5.05 -4.95 5.2 -4.9 5.4 L-4.05 5.75 Q-4.0 6.0 -3.9 6.5 -3.9 6.55 -3.95 6.55 -3.95 6.6 -4.0 6.65 -4.0 6.7 -4.0 6.75 -4.05 6.8 -4.05 6.85 -4.1 6.9 -4.1 6.95 -4.1 7.0 -4.15 7.1 -4.15 7.15 -4.15 7.2 -4.2 7.25 -4.2 7.35 -4.25 7.55 -4.3 7.8 -4.35 8.05 -4.35 8.25 -4.35 8.45 -4.35 8.65 -4.35 8.85 -4.35 9.05 -4.35 9.2 -4.35 9.4 -4.3 9.55 -4.3 9.7 -4.3 9.8 -4.25 9.9 -4.25 10.0 -4.25 10.05 -4.25 10.1 -4.25 10.15 -4.2 10.2 -4.2 10.25 -4.2 10.3 -4.15 10.35 -4.15 10.4 -4.15 10.5 -4.15 10.55 -4.1 10.6 -4.1 10.7 -4.1 10.75 -4.1 10.85 -4.1 10.9 -4.05 11.0 -4.05 11.1 -4.0 11.7 -4.0 12.0 -4.0 12.0 -4.4 13.15 -4.45 13.3 -4.5 13.4 -4.55 13.55 -4.55 13.65 -4.6 13.8 -4.65 13.9 -4.7 14.0 -4.7 14.1 -4.7 14.25 -4.75 14.35 -4.75 14.5 -4.75 14.6 -4.75 14.7 -4.7 14.8 -4.7 14.95 -4.65 15.05 -4.65 15.1 -4.6 15.15 -4.6 15.2 -4.6 15.25 -4.55 15.25 -4.55 15.3 -4.55 15.3 -4.5 15.35 -4.5 15.4 -4.45 15.45 -4.45 15.45 -4.45 15.5 -4.4 15.55 -4.4 15.6 -4.4 15.65 -4.4 15.7 -4.4 15.75 -4.4 15.75 -4.4 15.8 -4.35 15.85 -4.35 15.9 -4.35 15.95 -4.35 16.0 -4.4 16.05 -4.4 16.1 -4.4 16.2 -4.4 16.3 -4.45 16.4 -4.45 16.5 -4.5 16.6 -4.5 16.75 -4.55 16.9 -4.6 17.15 -4.7 17.5 -4.45 17.55 -4.2 17.6 -3.9 17.6 -3.65 17.65 -3.4 17.7 -3.1 17.7 -2.85 17.75 -2.55 17.75 -2.3 17.8 -2.0 17.8 -1.7 17.8 -1.4 17.85 -1.1 17.85 -0.8 17.85 -0.5 17.85 -0.2 17.85 0.35 17.85 0.9 17.85 1.45 17.85 2.0 17.8 2.5 17.75 3.0 17.7 3.5 17.7 4.0 17.6 4.45 17.55 4.95 17.5 5.4 17.45 5.85 17.35 6.3 17.25 6.7 17.2 7.1 17.1 7.5 17.0 7.4 16.65 7.15 15.85 7.2 15.8 7.2 15.8 7.25 15.75 7.25 15.75 7.3 15.7 7.35 15.65 7.35 15.6 7.4 15.55 7.45 15.5 7.45 15.45 7.5 15.4 7.55 15.35 7.55 15.3 7.6 15.25 7.6 15.2 7.65 15.1 7.65 15.05 7.7 15.0 7.7 14.95 7.7 14.9 7.7 14.85 7.75 14.8 7.75 14.75 7.75 14.7 7.75 14.65 7.75 14.6 7.75 14.5 7.75 14.45 7.75 14.35 7.75 14.25 7.75 14.15 7.75 14.05 7.75 13.85 7.75 13.7 7.75 13.55 7.75 13.4 7.75 13.3 7.7 13.15 7.7 13.1 7.7 12.95 7.7 12.85 7.7 12.75 7.7 12.65 7.7 12.6 7.7 12.5 7.7 12.4 7.7 12.3 7.7 12.15 7.7 12.05 7.7 12.0 7.7 11.9 7.75 11.85 7.75 11.8 7.75 11.75 7.75 11.7 7.8 11.65 7.8 11.6 7.8 11.5 7.8 11.45 7.85 11.4 7.85 11.35 7.85 11.25 7.9 11.2 7.9 11.1 L7.9 11.1 M0.15 -2.05 Q0.15 -2.1 0.2 -2.15 0.2 -2.15 0.25 -2.2 0.25 -2.25 0.3 -2.25 0.35 -2.3 0.35 -2.35 0.4 -2.35 0.45 -2.4 0.45 -2.4 0.5 -2.45 0.55 -2.45 0.6 -2.45 0.65 -2.5 0.65 -2.5 0.7 -2.5 0.75 -2.5 0.75 -2.55 0.8 -2.55 0.85 -2.55 0.9 -2.55 0.95 -2.55 0.95 -2.55 1.0 -2.55 1.05 -2.5 1.1 -2.5 1.15 -2.5 1.15 -2.5 1.2 -2.5 1.25 -2.45 1.3 -2.45 1.35 -2.45 1.35 -2.4 1.4 -2.4 1.45 -2.35 1.45 -2.35 1.5 -2.3 1.55 -2.3 1.55 -2.25 1.6 -2.2 1.6 -2.2 1.65 -2.15 1.65 -2.1 1.7 -2.1 1.7 -2.05 1.7 -2.0 1.75 -2.0 1.75 -1.95 1.75 -1.9 1.75 -1.9 1.8 -1.85 1.8 -1.8 1.8 -1.75 1.8 -1.7 1.8 -1.65 1.8 -1.6 1.8 -1.55 1.8 -1.55 1.8 -1.5 1.8 -1.45 1.75 -1.4 1.75 -1.35 1.75 -1.3 1.75 -1.25 1.7 -1.2 1.7 -1.15 1.65 -1.15 1.65 -1.1 1.6 -1.1 1.6 -1.05 1.6 -1.05 1.55 -1.0 1.55 -1.0 1.5 -0.95 1.5 -0.95 1.45 -0.9 1.45 -0.9 1.4 -0.9 1.4 -0.85 1.35 -0.85 1.3 -0.85 1.3 -0.85 1.25 -0.8 1.2 -0.8 1.15 -0.8 1.1 -0.8 1.05 -0.8 1.05 -0.8 1.0 -0.8 0.95 -0.8 0.9 -0.8 0.85 -0.8 0.8 -0.8 0.75 -0.8 0.7 -0.8 0.65 -0.85 0.6 -0.85 0.55 -0.85 0.5 -0.9 0.45 -0.9 0.4 -0.95 0.35 -0.95 0.3 -1.0 0.3 -1.05 0.25 -1.05 0.2 -1.1 0.15 -1.15 0.1 -1.2 0.1 -1.3 0.05 -1.35 0.05 -1.4 0.0 -1.5 0.0 -1.55 0.0 -1.6 0.0 -1.7 0.0 -1.75 0.05 -1.8 0.05 -1.9 0.05 -1.95 0.1 -2.0 0.15 -2.05 L0.15 -2.05 M2.35 7.25 Q2.35 7.25 2.35 7.3 2.35 7.35 2.35 7.35 2.35 7.4 2.35 7.45 2.35 7.45 2.35 7.45 2.35 7.5 2.3 7.55 2.25 7.6 2.25 7.65 2.25 7.65 2.25 7.65 2.25 7.65 2.25 7.65 2.25 7.65 2.2 7.75 2.2 7.75 2.15 7.8 2.15 7.8 2.1 7.8 2.1 7.85 2.05 7.85 2.0 7.9 2.0 7.9 2.0 7.9 1.95 7.95 1.95 7.95 1.9 7.95 1.8 8.0 1.8 8.0 1.8 8.0 1.8 8.0 1.75 8.0 1.7 8.0 1.65 8.05 1.6 8.05 1.6 8.05 1.6 8.05 1.6 8.05 1.55 8.05 1.55 8.05 1.35 8.0 1.35 8.0 1.35 8.0 1.3 7.95 1.15 7.9 1.15 7.9 1.1 7.9 1.05 7.85 0.95 7.75 0.9 7.75 0.9 7.7 0.9 7.7 0.85 7.7 0.85 7.65 0.8 7.6 0.75 7.55 0.75 7.5 0.7 7.5 0.7 7.5 0.7 7.45 0.65 7.3 0.65 7.3 0.65 7.3 0.65 7.3 0.65 7.25 0.65 7.25 0.6 7.2 0.6 7.15 0.6 7.1 0.6 7.1 0.6 7.05 0.6 7.05 0.6 6.95 0.6 6.95 0.65 6.85 0.65 6.85 0.65 6.85 0.65 6.85 0.65 6.8 0.7 6.7 0.7 6.7 0.7 6.7 0.7 6.7 0.7 6.65 0.75 6.6 0.8 6.55 0.8 6.55 0.8 6.55 0.8 6.55 0.85 6.55 0.85 6.55 0.85 6.5 0.9 6.5 0.95 6.45 0.95 6.4 0.95 6.4 1.0 6.4 1.0 6.4 1.0 6.4 1.0 6.4 1.1 6.35 1.15 6.35 1.15 6.35 1.15 6.35 1.2 6.35 1.25 6.35 1.3 6.3 1.3 6.3 1.4 6.3 1.4 6.3 1.4 6.3 1.4 6.3 1.4 6.3 1.45 6.3 1.45 6.3 1.5 6.3 1.5 6.3 1.55 6.3 1.6 6.3 1.65 6.3 1.7 6.35 1.75 6.35 1.75 6.35 1.8 6.35 1.85 6.4 1.9 6.45 2.0 6.5 2.0 6.5 2.05 6.55 2.15 6.6 2.15 6.65 2.2 6.7 2.2 6.7 2.25 6.75 2.3 6.8 2.3 6.85 2.3 6.85 2.3 6.9 2.35 6.9 2.35 6.95 2.35 7.0 2.35 7.05 2.35 7.05 2.35 7.1 2.35 7.15 2.35 7.15 2.35 7.25 L2.35 7.25" fill="#bf7ca9" fill-rule="evenodd" stroke="none"/>
  </g>
</svg>
