<?xml version="1.0" encoding="UTF-8" standalone="no"?>
<svg xmlns:xlink="http://www.w3.org/1999/xlink" height="47.8px" width="28.75px" xmlns="http://www.w3.org/2000/svg">
  <g transform="matrix(1.0, 0.0, 0.0, 1.0, 14.4, 23.9)">
    <path d="M-8.1 10.2 Q-8.35 10.45 -8.5 10.7 -8.7 10.9 -8.85 11.2 -8.95 11.45 -9.05 11.7 -9.15 11.95 -9.2 12.25 -9.3 12.5 -9.3 12.8 -9.35 13.05 -9.35 13.35 -9.35 13.6 -9.35 13.9 -9.35 14.15 -9.3 14.45 -9.25 14.55 -9.2 14.6 -9.1 14.7 -9.0 14.7 -8.85 14.75 -8.75 14.75 -8.6 14.75 -8.45 14.75 -8.35 14.75 -8.2 14.7 -8.1 14.65 -8.0 14.6 -7.9 14.55 -7.8 14.45 -7.75 14.4 -7.75 14.3 -7.6 14.05 -7.5 13.85 -7.4 13.6 -7.35 13.35 -7.25 13.1 -7.2 12.85 -7.15 12.6 -7.1 12.35 -7.05 12.15 -7.05 11.9 -7.0 11.65 -7.0 11.4 -7.0 11.15 -7.05 10.9 -7.05 10.65 -7.1 10.4 -7.1 10.35 -7.15 10.3 -7.2 10.25 -7.25 10.25 -7.3 10.2 -7.35 10.2 -7.4 10.15 -7.5 10.15 -7.55 10.15 -7.65 10.15 -7.7 10.15 -7.8 10.15 -7.9 10.15 -7.95 10.15 -8.05 10.15 -8.1 10.2 L-8.1 10.2" fill="#0000ff" fill-rule="evenodd" stroke="none"/>
    <path d="M-8.1 10.2 Q-8.35 10.45 -8.5 10.7 -8.7 10.9 -8.85 11.2 -8.95 11.45 -9.05 11.7 -9.15 11.95 -9.2 12.25 -9.3 12.5 -9.3 12.8 -9.35 13.05 -9.35 13.35 -9.35 13.6 -9.35 13.9 -9.35 14.15 -9.3 14.45 -9.25 14.55 -9.2 14.6 -9.1 14.7 -9.0 14.7 -8.85 14.75 -8.75 14.75 -8.6 14.75 -8.45 14.75 -8.35 14.75 -8.2 14.7 -8.1 14.65 -8.0 14.6 -7.9 14.55 -7.8 14.45 -7.75 14.4 -7.75 14.3 -7.6 14.05 -7.5 13.85 -7.4 13.6 -7.35 13.35 -7.25 13.1 -7.2 12.85 -7.15 12.6 -7.1 12.35 -7.05 12.15 -7.05 11.9 -7.0 11.65 -7.0 11.4 -7.0 11.15 -7.05 10.9 -7.05 10.65 -7.1 10.4 -7.1 10.35 -7.15 10.3 -7.2 10.25 -7.25 10.25 -7.3 10.2 -7.35 10.2 -7.4 10.15 -7.5 10.15 -7.55 10.15 -7.65 10.15 -7.7 10.15 -7.8 10.15 -7.9 10.15 -7.95 10.15 -8.05 10.15 -8.1 10.2 L-8.1 10.2 Z" fill="none" stroke="#ff0000" stroke-linecap="round" stroke-linejoin="round" stroke-width="1.0"/>
    <path d="M3.85 7.9 Q3.5 7.9 3.1 7.95 2.75 8.0 2.4 8.05 2.05 8.1 1.65 8.2 1.3 8.25 0.95 8.4 0.6 8.5 0.25 8.6 -0.1 8.75 -0.4 8.9 -0.75 9.05 -1.1 9.25 -1.4 9.4 -1.7 9.6 -2.0 9.75 -2.25 9.95 -2.55 10.1 -2.8 10.3 -3.1 10.45 -3.35 10.65 -3.6 10.85 -3.85 11.05 -4.15 11.25 -4.4 11.45 -4.65 11.65 -4.85 11.85 -5.1 12.05 -5.35 12.3 -5.6 12.5 -5.8 12.75 -5.85 12.9 -5.9 13.1 -5.9 13.25 -5.95 13.45 -6.0 13.75 -6.05 13.85 -6.1 14.05 -6.1 14.2 -6.15 14.4 -6.25 14.55 -6.3 14.75 -6.35 14.9 -6.45 15.1 -6.55 15.25 -6.65 15.4 -6.75 15.55 -6.85 15.7 -7.0 15.8 -7.15 15.95 -7.3 16.05 -7.45 16.15 -7.6 16.2 -7.75 16.3 -7.95 16.35 -8.1 16.4 -8.3 16.4 -8.45 16.4 -8.65 16.4 -8.8 16.35 -9.0 16.3 -9.15 16.25 -9.3 16.15 -9.45 16.05 -9.55 15.95 -9.65 15.85 -9.75 15.75 -9.85 15.65 -9.9 15.5 -10.0 15.4 -10.05 15.25 -10.1 15.1 -10.15 14.95 -10.2 14.8 -10.25 14.65 -10.3 14.55 -10.35 14.35 -10.75 12.85 -10.4 14.1 -10.45 14.0 -10.55 13.95 -10.6 13.9 -10.65 13.9 -10.75 13.9 -10.85 13.9 -10.9 13.9 -11.0 13.9 -11.05 13.9 -11.2 13.9 -11.35 13.95 -11.35 13.95 -11.45 13.95 -11.5 13.95 -11.6 13.95 -11.7 13.95 -11.75 13.95 -11.85 13.95 -11.95 14.0 -12.05 14.0 -12.1 14.0 -12.2 14.0 -12.3 14.0 -12.35 14.0 -12.45 14.0 -12.55 14.05 -12.6 14.05 -12.7 14.05 -12.8 14.05 -12.85 14.1 -12.95 14.1 -13.0 14.15 -13.05 14.25 -13.1 14.3 -13.1 14.4 -13.15 14.5 -13.15 14.55 -13.15 14.65 -13.15 14.75 -13.1 14.85 -13.1 14.9 -13.1 15.05 -13.05 15.25 -13.05 15.2 -13.05 15.35 -13.05 15.4 -13.05 15.5 -13.05 15.6 -13.0 15.85 -12.9 16.55 -12.85 17.15 -12.75 17.5 -12.65 17.6 -12.5 17.7 -12.4 17.8 -12.25 17.9 -12.1 18.0 -11.95 18.1 -11.85 18.15 -11.65 18.25 -11.4 18.4 -11.35 18.4 -11.2 18.5 -11.1 18.6 -10.95 18.65 -10.8 18.75 -10.65 18.85 -10.55 18.95 -9.9 19.45 -9.2 19.85 -8.55 20.3 -7.85 20.65 -7.15 21.0 -6.4 21.3 -5.65 21.6 -4.9 21.85 -4.15 22.1 -3.35 22.3 -2.65 22.5 -1.85 22.65 -1.1 22.8 -0.3 22.9 0.5 23.05 1.3 23.15 1.65 23.2 2.0 23.2 2.35 23.2 2.7 23.25 3.05 23.25 3.4 23.25 3.75 23.25 4.1 23.25 4.45 23.25 4.85 23.25 5.2 23.25 5.55 23.2 5.9 23.2 6.25 23.2 6.6 23.2 6.95 23.15 7.35 23.1 7.75 23.05 8.15 23.0 8.5 22.95 8.9 22.9 9.3 22.85 9.7 22.8 10.05 22.75 10.45 22.65 10.85 22.6 11.25 22.5 11.6 22.4 12.0 22.35 12.35 22.25 12.75 22.1 13.1 22.0 13.7 21.35 14.7 20.1 15.15 17.0 15.05 16.05 15.0 15.75 14.9 15.45 14.85 15.2 14.75 14.9 14.65 14.6 14.5 14.35 14.4 14.1 14.25 13.8 14.1 13.55 13.9 13.3 13.75 13.05 13.55 12.85 13.4 12.6 13.2 12.4 13.0 12.15 12.8 11.95 12.4 11.55 11.75 10.8 10.9 9.9 10.75 9.65 10.6 9.6 10.5 9.55 10.35 9.5 10.2 9.45 10.05 9.4 9.9 9.35 9.8 9.3 9.65 9.25 8.7 8.95 9.35 9.15 9.2 9.1 9.1 9.1 8.95 9.05 8.8 9.0 8.65 8.95 8.55 8.9 8.2 8.8 7.95 8.7 7.65 8.6 7.4 8.55 7.1 8.45 6.8 8.35 6.5 8.3 6.2 8.2 5.9 8.15 5.65 8.1 5.3 8.05 5.05 8.0 4.75 7.95 4.45 7.95 4.15 7.9 3.85 7.9 L3.85 7.9 M4.75 10.5 Q4.85 10.5 5.0 10.5 5.15 10.55 5.25 10.6 5.4 10.65 5.5 10.7 5.65 10.8 5.75 10.9 5.85 11.0 5.9 11.1 6.0 11.2 6.05 11.35 6.1 11.45 6.1 11.6 6.1 11.75 6.05 11.9 6.0 11.95 5.95 12.0 5.9 12.05 5.85 12.05 5.8 12.1 5.7 12.1 5.65 12.15 5.55 12.15 5.5 12.15 5.4 12.15 5.35 12.15 5.3 12.15 5.25 12.2 5.15 12.2 5.05 12.2 5.0 12.2 4.9 12.2 4.8 12.15 4.7 12.1 4.6 12.05 4.5 11.95 4.4 11.9 4.3 11.8 4.25 11.65 4.15 11.55 4.1 11.45 4.05 11.3 4.05 11.2 4.05 11.05 4.05 10.95 4.1 10.8 4.15 10.7 4.2 10.65 4.2 10.65 4.25 10.6 4.25 10.6 4.3 10.55 4.35 10.55 4.4 10.55 4.4 10.5 4.45 10.5 4.5 10.5 4.55 10.5 4.6 10.5 4.65 10.5 4.65 10.5 4.7 10.45 4.75 10.5 L4.75 10.5 M9.3 10.5 Q9.4 10.5 9.55 10.55 9.65 10.55 9.8 10.6 9.9 10.65 10.05 10.7 10.15 10.8 10.25 10.85 10.35 10.95 10.45 11.05 10.55 11.15 10.6 11.25 10.65 11.4 10.7 11.5 10.7 11.65 10.7 11.8 10.65 11.95 10.55 12.05 10.5 12.15 10.4 12.2 10.35 12.25 10.25 12.3 10.15 12.3 10.05 12.3 9.95 12.3 9.85 12.3 9.75 12.3 9.65 12.25 9.55 12.25 9.45 12.2 9.4 12.15 9.3 12.15 9.2 12.15 9.1 12.05 9.0 12.0 8.9 11.95 8.85 11.85 8.75 11.75 8.7 11.65 8.65 11.55 8.6 11.4 8.6 11.3 8.6 11.15 8.6 11.05 8.65 10.95 8.7 10.85 8.75 10.7 8.85 10.65 8.9 10.65 8.9 10.6 8.95 10.6 8.95 10.6 9.0 10.55 9.0 10.55 9.05 10.55 9.05 10.55 9.1 10.5 9.1 10.5 9.15 10.5 9.2 10.5 9.2 10.5 9.25 10.5 9.25 10.5 9.3 10.5 L9.3 10.5 M-0.05 11.25 Q0.1 11.25 0.2 11.25 0.35 11.3 0.5 11.3 0.6 11.35 0.75 11.4 0.85 11.45 0.95 11.55 1.1 11.6 1.15 11.7 1.25 11.8 1.3 11.95 1.35 12.05 1.35 12.2 1.4 12.35 1.35 12.5 1.3 12.6 1.25 12.65 1.2 12.75 1.1 12.75 1.05 12.8 0.95 12.85 0.9 12.85 0.8 12.85 0.7 12.85 0.6 12.85 0.55 12.85 0.4 12.85 0.3 12.85 0.25 12.8 0.15 12.8 0.05 12.8 -0.05 12.8 -0.15 12.75 -0.25 12.7 -0.3 12.65 -0.4 12.55 -0.45 12.5 -0.55 12.4 -0.6 12.3 -0.65 12.25 -0.7 12.15 -0.7 12.0 -0.7 11.9 -0.75 11.8 -0.7 11.7 -0.7 11.6 -0.65 11.5 -0.6 11.45 -0.6 11.45 -0.55 11.4 -0.5 11.4 -0.5 11.35 -0.45 11.35 -0.4 11.3 -0.35 11.3 -0.35 11.3 -0.3 11.25 -0.25 11.25 -0.2 11.25 -0.15 11.25 -0.1 11.25 -0.05 11.25 -0.05 11.25 L-0.05 11.25 M8.65 14.25 Q8.7 14.2 8.8 14.2 8.9 14.2 9.05 14.25 9.2 14.25 9.35 14.35 9.5 14.4 9.65 14.5 9.85 14.6 9.95 14.7 10.1 14.8 10.15 14.95 10.2 15.1 10.2 15.25 10.15 15.45 10.05 15.6 10.0 15.7 9.9 15.75 9.8 15.85 9.7 15.9 9.6 15.9 9.45 15.95 9.35 15.95 9.25 15.95 9.1 15.95 9.0 15.9 8.9 15.9 8.8 15.85 8.65 15.8 8.55 15.75 8.45 15.7 8.4 15.65 8.3 15.6 8.25 15.5 8.15 15.45 8.1 15.35 8.05 15.25 8.05 15.15 8.0 15.0 8.0 14.9 8.0 14.8 8.0 14.7 8.05 14.6 8.1 14.5 8.15 14.45 8.25 14.35 8.3 14.3 8.45 14.3 8.5 14.3 8.5 14.3 8.55 14.3 8.6 14.3 8.6 14.25 8.65 14.25 L8.65 14.25 M3.6 14.55 Q3.75 14.55 3.9 14.6 4.05 14.6 4.15 14.65 4.3 14.7 4.45 14.75 4.6 14.85 4.7 14.9 4.8 15.0 4.9 15.1 4.95 15.2 5.0 15.3 5.05 15.4 5.05 15.55 5.05 15.65 5.0 15.8 4.95 15.9 4.9 15.95 4.85 16.05 4.8 16.05 4.75 16.1 4.65 16.15 4.6 16.15 4.5 16.15 4.4 16.15 4.35 16.15 4.25 16.15 4.15 16.15 3.95 16.15 4.0 16.15 3.9 16.15 3.85 16.15 3.75 16.15 3.65 16.1 3.5 16.05 3.4 16.0 3.3 15.9 3.25 15.85 3.15 15.75 3.1 15.65 3.05 15.55 3.0 15.45 2.95 15.3 2.95 15.2 2.95 15.1 2.95 14.95 3.0 14.85 3.05 14.75 3.1 14.7 3.1 14.7 3.15 14.65 3.2 14.65 3.2 14.65 3.25 14.6 3.3 14.6 3.3 14.6 3.35 14.6 3.4 14.6 3.45 14.6 3.45 14.55 3.5 14.55 3.55 14.55 3.6 14.55 3.6 14.55 L3.6 14.55" fill="#0000ff" fill-rule="evenodd" stroke="none"/>
    <path d="M3.85 7.9 Q3.5 7.9 3.1 7.95 2.75 8.0 2.4 8.05 2.05 8.1 1.65 8.2 1.3 8.25 0.95 8.4 0.6 8.5 0.25 8.6 -0.1 8.75 -0.4 8.9 -0.75 9.05 -1.1 9.25 -1.4 9.4 -1.7 9.6 -2.0 9.75 -2.25 9.95 -2.55 10.1 -2.8 10.3 -3.1 10.45 -3.35 10.65 -3.6 10.85 -3.85 11.05 -4.15 11.25 -4.4 11.45 -4.65 11.65 -4.85 11.85 -5.1 12.05 -5.35 12.3 -5.6 12.5 -5.8 12.75 -5.85 12.9 -5.9 13.1 -5.9 13.25 -5.95 13.45 -6.0 13.75 -6.05 13.85 -6.1 14.05 -6.1 14.2 -6.15 14.4 -6.25 14.55 -6.3 14.75 -6.35 14.9 -6.45 15.1 -6.55 15.25 -6.65 15.4 -6.75 15.55 -6.85 15.7 -7.0 15.8 -7.15 15.95 -7.3 16.05 -7.45 16.15 -7.6 16.2 -7.75 16.3 -7.95 16.35 -8.1 16.4 -8.3 16.4 -8.45 16.4 -8.65 16.4 -8.8 16.35 -9.0 16.3 -9.15 16.25 -9.3 16.15 -9.45 16.05 -9.55 15.95 -9.65 15.85 -9.75 15.75 -9.85 15.65 -9.9 15.5 -10.0 15.4 -10.05 15.25 -10.1 15.1 -10.15 14.95 -10.2 14.8 -10.25 14.65 -10.3 14.55 -10.35 14.35 -10.75 12.85 -10.4 14.1 -10.45 14.0 -10.55 13.95 -10.6 13.9 -10.65 13.9 -10.75 13.9 -10.85 13.9 -10.9 13.9 -11.0 13.9 -11.05 13.9 -11.2 13.9 -11.35 13.95 -11.35 13.95 -11.45 13.95 -11.5 13.95 -11.6 13.95 -11.7 13.95 -11.75 13.95 -11.85 13.95 -11.95 14.0 -12.05 14.0 -12.1 14.0 -12.2 14.0 -12.3 14.0 -12.35 14.0 -12.45 14.0 -12.55 14.05 -12.6 14.05 -12.7 14.05 -12.8 14.05 -12.85 14.1 -12.95 14.1 -13.0 14.15 -13.05 14.25 -13.1 14.3 -13.1 14.4 -13.15 14.5 -13.15 14.55 -13.15 14.65 -13.15 14.75 -13.1 14.85 -13.1 14.9 -13.1 15.05 -13.05 15.25 -13.05 15.2 -13.05 15.35 -13.05 15.4 -13.05 15.5 -13.05 15.6 -13.0 15.85 -12.9 16.55 -12.85 17.15 -12.75 17.5 -12.65 17.6 -12.5 17.7 -12.4 17.8 -12.25 17.9 -12.1 18.0 -11.95 18.1 -11.85 18.15 -11.65 18.25 -11.4 18.4 -11.35 18.4 -11.2 18.5 -11.1 18.6 -10.95 18.65 -10.8 18.75 -10.65 18.85 -10.55 18.95 -9.9 19.45 -9.2 19.85 -8.55 20.3 -7.85 20.65 -7.15 21.0 -6.4 21.3 -5.65 21.6 -4.9 21.85 -4.15 22.1 -3.35 22.3 -2.65 22.5 -1.85 22.65 -1.1 22.8 -0.3 22.9 0.5 23.05 1.3 23.15 1.65 23.2 2.0 23.2 2.35 23.2 2.7 23.25 3.05 23.25 3.4 23.25 3.75 23.25 4.1 23.25 4.45 23.25 4.85 23.25 5.2 23.25 5.55 23.2 5.9 23.2 6.25 23.2 6.6 23.2 6.95 23.15 7.35 23.1 7.75 23.05 8.15 23.0 8.5 22.95 8.9 22.9 9.3 22.85 9.7 22.8 10.05 22.75 10.45 22.65 10.85 22.6 11.25 22.5 11.6 22.4 12.0 22.35 12.35 22.25 12.75 22.1 13.1 22.0 13.7 21.35 14.7 20.1 15.15 17.0 15.05 16.05 15.0 15.75 14.9 15.45 14.85 15.2 14.75 14.9 14.65 14.6 14.5 14.35 14.4 14.1 14.25 13.8 14.1 13.55 13.9 13.3 13.75 13.05 13.55 12.85 13.4 12.6 13.2 12.4 13.0 12.15 12.8 11.95 12.4 11.55 11.75 10.8 10.9 9.9 10.75 9.65 10.6 9.6 10.5 9.55 10.35 9.5 10.2 9.45 10.05 9.4 9.9 9.35 9.8 9.3 9.65 9.25 8.7 8.95 9.35 9.15 9.2 9.1 9.1 9.1 8.95 9.05 8.8 9.0 8.65 8.95 8.55 8.9 8.2 8.8 7.95 8.7 7.65 8.6 7.4 8.55 7.1 8.45 6.8 8.35 6.5 8.3 6.2 8.2 5.9 8.15 5.65 8.1 5.3 8.05 5.05 8.0 4.75 7.95 4.45 7.95 4.15 7.9 3.85 7.9 L3.85 7.9 M4.75 10.5 Q4.85 10.5 5.0 10.5 5.15 10.55 5.25 10.6 5.4 10.65 5.5 10.7 5.65 10.8 5.75 10.9 5.85 11.0 5.9 11.1 6.0 11.2 6.05 11.35 6.1 11.45 6.1 11.6 6.1 11.75 6.05 11.9 6.0 11.95 5.95 12.0 5.9 12.05 5.85 12.05 5.8 12.1 5.7 12.1 5.65 12.15 5.55 12.15 5.5 12.15 5.4 12.15 5.35 12.15 5.3 12.15 5.25 12.2 5.15 12.2 5.05 12.2 5.0 12.2 4.9 12.2 4.8 12.15 4.7 12.1 4.6 12.05 4.5 11.95 4.4 11.9 4.3 11.8 4.25 11.65 4.15 11.55 4.1 11.45 4.05 11.3 4.05 11.2 4.05 11.05 4.05 10.95 4.1 10.8 4.15 10.7 4.2 10.65 4.2 10.65 4.25 10.6 4.25 10.6 4.3 10.55 4.35 10.55 4.4 10.55 4.4 10.5 4.45 10.5 4.5 10.5 4.55 10.5 4.6 10.5 4.65 10.5 4.65 10.5 4.7 10.45 4.75 10.5 L4.75 10.5 M9.3 10.5 Q9.4 10.5 9.55 10.55 9.65 10.55 9.8 10.6 9.9 10.65 10.05 10.7 10.15 10.8 10.25 10.85 10.35 10.95 10.45 11.05 10.55 11.15 10.6 11.25 10.65 11.4 10.7 11.5 10.7 11.65 10.7 11.8 10.65 11.95 10.55 12.05 10.5 12.15 10.4 12.2 10.35 12.25 10.25 12.3 10.15 12.3 10.05 12.3 9.95 12.3 9.85 12.3 9.75 12.3 9.65 12.25 9.55 12.25 9.45 12.2 9.4 12.15 9.3 12.15 9.2 12.15 9.1 12.05 9.0 12.0 8.9 11.95 8.85 11.85 8.75 11.75 8.7 11.65 8.65 11.55 8.6 11.4 8.6 11.3 8.6 11.15 8.6 11.05 8.65 10.95 8.7 10.85 8.75 10.7 8.85 10.65 8.9 10.65 8.9 10.6 8.95 10.6 8.95 10.6 9.0 10.55 9.0 10.55 9.05 10.55 9.05 10.55 9.1 10.5 9.1 10.5 9.15 10.5 9.2 10.5 9.2 10.5 9.25 10.5 9.25 10.5 9.3 10.5 L9.3 10.5 M-0.05 11.25 Q0.1 11.25 0.2 11.25 0.35 11.3 0.5 11.3 0.6 11.35 0.75 11.4 0.85 11.45 0.95 11.55 1.1 11.6 1.15 11.7 1.25 11.8 1.3 11.95 1.35 12.05 1.35 12.2 1.4 12.35 1.35 12.5 1.3 12.6 1.25 12.65 1.2 12.75 1.1 12.75 1.05 12.8 0.95 12.85 0.9 12.85 0.8 12.85 0.7 12.85 0.6 12.85 0.55 12.85 0.4 12.85 0.3 12.85 0.25 12.8 0.15 12.8 0.05 12.8 -0.05 12.8 -0.15 12.75 -0.25 12.7 -0.3 12.65 -0.4 12.55 -0.45 12.5 -0.55 12.4 -0.6 12.3 -0.65 12.25 -0.7 12.15 -0.7 12.0 -0.7 11.9 -0.75 11.8 -0.7 11.7 -0.7 11.6 -0.65 11.5 -0.6 11.45 -0.6 11.45 -0.55 11.4 -0.5 11.4 -0.5 11.35 -0.45 11.35 -0.4 11.3 -0.35 11.3 -0.35 11.3 -0.3 11.25 -0.25 11.25 -0.2 11.25 -0.15 11.25 -0.1 11.25 -0.05 11.25 -0.05 11.25 L-0.05 11.25 M8.65 14.25 Q8.7 14.2 8.8 14.2 8.9 14.2 9.05 14.25 9.2 14.25 9.35 14.35 9.5 14.4 9.65 14.5 9.85 14.6 9.95 14.7 10.1 14.8 10.15 14.95 10.2 15.1 10.2 15.25 10.15 15.45 10.05 15.6 10.0 15.7 9.9 15.75 9.8 15.85 9.7 15.9 9.6 15.9 9.45 15.95 9.35 15.95 9.25 15.95 9.1 15.95 9.0 15.9 8.9 15.9 8.8 15.85 8.65 15.8 8.55 15.75 8.45 15.7 8.4 15.65 8.3 15.6 8.25 15.5 8.15 15.45 8.1 15.35 8.05 15.25 8.05 15.15 8.0 15.0 8.0 14.9 8.0 14.8 8.0 14.7 8.05 14.6 8.1 14.5 8.15 14.45 8.25 14.35 8.3 14.3 8.45 14.3 8.5 14.3 8.5 14.3 8.55 14.3 8.6 14.3 8.6 14.25 8.65 14.25 L8.65 14.25 M3.6 14.55 Q3.75 14.55 3.9 14.6 4.05 14.6 4.15 14.65 4.3 14.7 4.45 14.75 4.6 14.85 4.7 14.9 4.8 15.0 4.9 15.1 4.95 15.2 5.0 15.3 5.05 15.4 5.05 15.55 5.05 15.65 5.0 15.8 4.95 15.9 4.9 15.95 4.85 16.05 4.8 16.05 4.75 16.1 4.65 16.15 4.6 16.15 4.5 16.15 4.4 16.15 4.35 16.15 4.25 16.15 4.15 16.15 3.95 16.15 4.0 16.15 3.9 16.15 3.85 16.15 3.75 16.15 3.65 16.1 3.5 16.05 3.4 16.0 3.3 15.9 3.25 15.85 3.15 15.75 3.1 15.65 3.05 15.55 3.0 15.45 2.95 15.3 2.95 15.2 2.95 15.1 2.95 14.95 3.0 14.85 3.05 14.75 3.1 14.7 3.1 14.7 3.15 14.65 3.2 14.65 3.2 14.65 3.25 14.6 3.3 14.6 3.3 14.6 3.35 14.6 3.4 14.6 3.45 14.6 3.45 14.55 3.5 14.55 3.55 14.55 3.6 14.55 3.6 14.55 L3.6 14.55 Z" fill="none" stroke="#ff0000" stroke-linecap="round" stroke-linejoin="round" stroke-width="1.0"/>
  </g>
</svg>
