<?xml version="1.0" encoding="UTF-8" standalone="no"?>
<svg xmlns:xlink="http://www.w3.org/1999/xlink" height="9.45px" width="4.55px" xmlns="http://www.w3.org/2000/svg">
  <g transform="matrix(1.0, 0.0, 0.0, 1.0, 2.25, 4.75)">
    <path d="M0.25 -0.85 Q0.15 -0.85 -0.5 -0.65 -0.95 -0.45 -1.1 -0.45 -1.25 -0.4 -1.35 -0.4 -1.5 -0.4 -1.6 -0.45 -1.7 -0.5 -1.8 -0.55 -1.9 -0.6 -2.0 -0.65 -2.05 -0.75 -2.1 -0.85 -2.15 -0.95 -2.2 -1.05 -2.25 -1.15 -2.25 -1.3 -2.25 -1.4 -2.2 -1.55 -2.2 -1.65 -2.15 -1.8 -2.15 -1.9 -2.1 -2.0 -2.05 -2.1 -2.0 -2.2 -1.95 -2.3 -1.9 -2.4 -1.85 -2.5 -1.75 -2.6 -1.7 -2.7 -1.6 -2.8 -1.55 -2.85 -1.45 -2.95 -1.35 -3.05 -1.25 -3.1 -1.2 -3.15 -1.15 -3.2 -1.1 -3.2 -1.05 -3.25 -1.0 -3.25 -0.95 -3.3 -0.9 -3.3 -0.85 -3.3 -0.75 -3.35 -0.7 -3.35 -0.65 -3.35 -0.6 -3.35 -0.55 -3.35 -0.5 -3.35 -0.4 -3.35 -0.35 -3.35 -0.2 -3.3 -0.1 -3.3 0.05 -3.25 0.15 -3.2 0.25 -3.15 0.4 -3.15 0.5 -3.1 0.6 -3.05 0.75 -3.0 0.85 -2.9 0.95 -2.85 1.05 -2.8 1.2 -2.7 1.3 -2.65 1.4 -2.55 1.5 -2.45 1.55 -2.4 1.55 -2.4 1.6 -2.35 1.6 -2.3 1.65 -2.25 1.65 -2.25 1.7 -2.2 1.7 -2.15 1.75 -2.1 1.75 -2.05 1.8 -2.05 1.8 -2.0 1.85 -1.95 1.85 -1.9 1.85 -1.85 1.9 -1.8 1.9 -1.7 1.95 -1.65 1.95 -1.55 1.95 -1.5 1.95 -1.4 1.9 -1.35 1.9 -1.3 1.85 -1.25 1.8 -1.15 1.75 -1.1 1.7 -1.05 1.65 -1.0 1.6 -0.95 1.55 -0.95 1.45 -0.9 1.35 -0.9 1.2 -0.85 0.75 -0.85 1.7 -1.0 0.6 -0.85 0.5 -0.85 0.45 -0.75 0.4 -0.8 0.4 -0.8 0.4 -0.85 0.4 -0.9 0.4 -0.95 0.4 -1.0 0.35 -1.05 0.35 -1.05 0.3 -1.0 0.25 -0.85 L0.25 -0.85" fill="#000000" fill-opacity="0.23137255" fill-rule="evenodd" stroke="none"/>
    <path d="M0.25 -0.85 Q0.25 -0.9 0.3 -0.9 0.3 -0.95 0.3 -1.0 0.35 -1.0 0.35 -1.05 0.35 -1.0 0.4 -1.0 0.4 -0.95 0.4 -0.9 0.4 -0.85 0.4 -0.85 0.45 -0.8 0.45 -0.75 0.5 -0.7 0.5 -0.65 0.55 -0.6 0.6 -0.55 0.65 -0.5 0.65 -0.45 0.7 -0.4 0.75 -0.35 0.75 -0.3 0.8 -0.2 0.85 -0.15 0.85 -0.1 0.9 -0.05 0.95 0.0 0.95 0.05 1.0 0.1 1.05 0.2 1.1 0.25 1.15 0.35 1.2 0.45 1.25 0.5 1.3 0.6 1.35 0.65 1.4 0.75 1.45 0.8 1.5 0.9 1.55 0.95 1.65 1.0 1.7 1.1 1.75 1.15 1.8 1.25 1.9 1.3 2.0 1.45 2.1 1.5 2.2 1.6 2.25 1.7 2.3 1.75 2.3 1.85 2.3 1.9 2.3 1.95 2.3 2.0 2.25 2.1 2.2 2.15 2.15 2.2 2.05 2.25 1.95 2.35 1.9 2.4 1.7 2.5 1.65 2.55 1.6 2.55 1.6 2.55 1.55 2.6 1.45 2.65 1.4 2.65 1.3 2.65 1.25 2.7 1.2 2.7 1.15 2.7 1.1 2.7 1.05 2.65 1.0 2.65 0.95 2.6 0.9 2.6 0.85 2.55 0.8 2.5 0.75 2.45 0.7 2.4 0.7 2.3 0.6 2.15 0.55 1.95 0.45 1.8 0.4 1.65 0.35 1.45 0.3 1.3 0.25 1.1 0.25 0.95 0.2 0.75 0.2 0.6 0.2 0.4 0.2 0.25 0.2 0.05 0.2 -0.15 0.2 -0.3 0.25 -0.5 0.25 -0.6 0.25 -0.85 L0.25 -0.85" fill="#030303" fill-rule="evenodd" stroke="none"/>
  </g>
</svg>
