<?xml version="1.0" encoding="UTF-8" standalone="no"?>
<svg xmlns:xlink="http://www.w3.org/1999/xlink" height="143.25px" width="154.95px" xmlns="http://www.w3.org/2000/svg">
  <g transform="matrix(1.0, 0.0, 0.0, 1.0, 77.5, 71.6)">
    <path d="M12.4 -14.5 Q11.85 -14.35 11.5 -14.25 10.95 -14.15 10.45 -14.0 9.9 -13.8 9.35 -13.6 8.7 -13.35 8.15 -13.1 7.5 -12.8 6.9 -12.45 6.25 -12.1 5.65 -11.65 5.0 -11.2 4.4 -10.65 3.75 -10.1 3.2 -9.45 2.75 -8.9 2.35 -8.35 1.95 -7.8 1.65 -7.2 1.3 -6.65 1.05 -6.1 0.85 -5.55 0.6 -5.0 0.45 -4.5 0.3 -4.0 0.15 -3.5 0.05 -3.0 -0.05 -2.6 -0.15 -2.1 -0.2 -1.85 -0.3 -1.35 -0.4 -0.95 -0.45 -0.65 -0.5 -0.15 -0.55 0.3 -0.65 0.9 -0.65 1.45 -0.7 2.15 -0.7 2.8 -0.7 3.6 -0.65 4.35 -0.55 5.15 -0.4 5.95 -0.25 6.85 0.0 7.7 0.25 8.65 0.6 9.55 0.85 10.2 1.2 10.85 1.45 11.45 1.8 12.05 2.1 12.55 2.45 13.1 2.8 13.55 3.15 14.0 3.5 14.45 3.85 14.85 4.15 15.2 4.5 15.55 4.75 15.9 5.1 16.2 5.3 16.4 5.65 16.75 6.3 17.4 7.05 18.0 7.7 18.55 8.4 19.05 9.0 19.5 9.7 19.9 10.25 20.25 10.9 20.6 11.4 20.9 11.95 21.15 12.4 21.35 12.8 21.55 13.15 21.7 13.5 21.8 13.7 21.9 13.9 21.95 14.35 22.1 14.7 22.2 15.15 22.35 15.6 22.5 16.15 22.65 16.7 22.75 17.3 22.9 17.95 23.0 18.6 23.1 19.3 23.15 20.05 23.2 20.75 23.2 21.55 23.2 22.35 23.15 23.2 23.05 24.05 22.85 24.8 22.7 25.55 22.5 26.25 22.3 26.95 22.0 27.55 21.8 28.15 21.5 28.7 21.2 29.25 20.9 29.7 20.65 30.2 20.35 30.6 20.1 31.0 19.8 31.3 19.55 31.65 19.3 31.85 19.15 32.15 18.9 32.55 18.6 32.7 18.45 33.05 18.15 33.3 17.9 33.65 17.6 33.95 17.3 34.3 17.0 34.6 16.65 34.9 16.3 35.2 15.9 35.55 15.5 35.8 15.05 36.15 14.6 36.4 14.15 36.65 13.6 36.9 13.05 37.1 12.55 37.3 12.05 37.45 11.55 37.55 11.05 37.65 10.6 37.75 10.1 37.8 9.65 37.85 9.2 37.9 8.75 37.9 8.25 37.9 7.85 37.9 7.35 37.9 6.95 37.85 6.45 37.85 6.15 37.8 5.55 37.75 4.7 37.65 3.9 37.55 3.15 37.4 2.35 37.3 1.7 37.1 1.0 36.95 0.4 36.8 -0.2 36.6 -0.7 36.45 -1.2 36.3 -1.65 36.1 -2.05 36.0 -2.35 35.85 -2.65 35.75 -2.8 35.65 -3.0 35.6 -3.15 35.5 -3.35 35.35 -3.6 35.2 -3.85 35.0 -4.2 34.8 -4.55 34.55 -4.95 34.25 -5.4 33.95 -5.85 33.6 -6.3 33.2 -6.8 32.8 -7.3 32.35 -7.85 31.85 -8.35 31.35 -8.9 30.75 -9.45 30.4 -9.8 30.1 -10.05 29.7 -10.4 29.35 -10.7 28.95 -11.05 28.5 -11.4 28.0 -11.75 27.5 -12.1 26.95 -12.45 26.4 -12.75 25.75 -13.1 25.15 -13.4 24.45 -13.75 23.75 -14.0 23.0 -14.3 22.2 -14.5 21.35 -14.7 20.55 -14.85 19.75 -15.0 18.95 -15.05 18.2 -15.15 17.5 -15.15 16.8 -15.15 16.15 -15.1 15.55 -15.05 14.95 -15.0 14.45 -14.9 13.9 -14.85 13.5 -14.75 13.05 -14.65 12.75 -14.6 12.4 -14.5 L12.4 -14.5" fill="#013017" fill-rule="evenodd" stroke="none"/>
  </g>
</svg>
