<?xml version="1.0" encoding="UTF-8" standalone="no"?>
<svg xmlns:xlink="http://www.w3.org/1999/xlink" height="155.9px" width="186.05px" xmlns="http://www.w3.org/2000/svg">
  <g transform="matrix(1.0, 0.0, 0.0, 1.0, 93.05, 77.95)">
    <path d="M-13.25 57.75 Q-15.15 57.4 -16.75 57.1 -18.55 56.75 -20.1 56.4 -21.8 56.05 -23.3 55.7 -24.9 55.35 -26.35 54.95 -27.9 54.55 -29.35 54.15 -30.85 53.7 -32.25 53.25 -33.7 52.75 -35.05 52.25 -36.45 51.7 -37.8 51.1 -38.25 50.9 -38.65 50.75 -39.05 50.55 -39.45 50.35 -39.85 50.15 -40.25 49.95 -40.6 49.7 -41.0 49.5 -41.4 49.25 -41.75 49.0 -42.1 48.75 -42.45 48.45 -42.8 48.15 -43.15 47.9 -43.5 47.55 -43.8 47.25 -44.3 46.75 -44.7 46.2 -45.1 45.65 -45.35 45.05 -45.65 44.5 -45.85 43.9 -46.0 43.35 -46.1 42.7 -46.2 42.1 -46.25 41.45 -46.3 40.85 -46.25 40.2 -46.25 39.6 -46.2 38.9 -46.15 38.35 -46.1 37.6 -45.9 35.45 -45.15 32.1 -44.15 27.8 -43.95 26.65 -43.2 22.15 -42.5 18.9 -42.45 18.7 -42.45 18.6 -42.45 18.45 -42.45 18.3 -42.45 18.2 -42.5 18.15 -42.55 18.05 -42.6 18.0 -42.65 17.9 -42.75 17.9 -42.85 17.85 -42.95 17.8 -43.05 17.8 -43.2 17.75 -43.35 17.75 -43.5 17.75 -42.75 17.8 -45.3 17.65 -46.35 17.6 -47.05 17.55 -48.05 17.5 -48.85 17.45 -49.8 17.4 -50.65 17.3 -51.55 17.2 -52.4 17.05 -53.3 16.9 -54.15 16.7 -55.05 16.55 -55.85 16.3 -56.75 16.05 -57.55 15.7 -58.5 15.35 -59.35 14.75 -60.1 14.2 -60.7 13.5 -61.3 12.8 -61.65 12.0 -62.05 11.2 -62.2 10.3 -62.35 9.45 -62.25 8.55 -62.2 7.65 -61.85 6.8 -61.55 5.9 -61.0 5.1 -60.4 4.3 -59.65 3.6 -59.55 3.5 -59.4 3.4 -59.3 3.3 -59.25 3.15 -59.15 3.05 -59.1 2.95 -59.0 2.85 -58.95 2.7 -58.9 2.6 -58.85 2.5 -58.8 2.35 -58.75 2.25 -58.7 2.1 -58.7 2.0 -58.65 1.85 -58.6 1.7 -58.25 0.1 -57.8 -4.15 -57.4 -7.9 -56.8 -10.0 -56.6 -10.7 -56.35 -11.35 -56.15 -12.0 -55.85 -12.6 -55.55 -13.2 -55.2 -13.75 -54.85 -14.35 -54.45 -14.85 -54.05 -15.35 -53.6 -15.8 -53.1 -16.3 -52.6 -16.7 -52.05 -17.1 -51.45 -17.45 -50.85 -17.8 -50.15 -18.1 -49.95 -18.2 -49.8 -18.25 -49.65 -18.35 -49.5 -18.45 -49.35 -18.6 -49.2 -18.7 -49.05 -18.85 -48.95 -18.95 -48.85 -19.1 -48.75 -19.25 -48.65 -19.4 -48.55 -19.55 -48.5 -19.7 -48.4 -19.9 -48.35 -20.05 -48.3 -20.25 -48.2 -20.6 -48.1 -20.9 -48.0 -21.25 -47.95 -21.55 -47.85 -21.9 -47.75 -22.25 -47.65 -22.6 -47.6 -22.9 -47.55 -23.25 -47.45 -23.55 -47.4 -23.9 -47.35 -24.25 -47.3 -24.6 -47.3 -24.95 -47.25 -25.3 -47.25 -25.65 -47.2 -26.4 -47.15 -27.0 -47.1 -27.75 -47.05 -28.4 -47.0 -29.1 -46.9 -29.75 -46.75 -30.45 -46.6 -31.1 -46.45 -31.75 -46.3 -32.4 -46.1 -33.05 -45.85 -33.7 -45.55 -34.35 -45.25 -34.95 -44.9 -35.55 -44.5 -36.15 -44.15 -36.7 -43.75 -37.15 -43.4 -37.65 -43.0 -38.05 -42.55 -38.5 -42.15 -38.9 -41.7 -39.3 -41.2 -39.65 -40.7 -40.0 -40.2 -40.25 -39.7 -40.55 -39.15 -40.8 -38.6 -41.05 -38.0 -41.2 -37.4 -41.4 -36.75 -41.5 -27.8 -43.3 -12.15 -44.15 -10.25 -44.25 0.2 -44.95 7.75 -45.45 12.6 -45.55 13.4 -45.55 14.2 -45.6 15.0 -45.6 15.75 -45.6 16.55 -45.55 17.3 -45.55 18.1 -45.5 18.9 -45.5 19.7 -45.45 20.45 -45.35 21.25 -45.3 22.0 -45.2 22.8 -45.15 23.55 -45.0 24.35 -44.9 25.1 -44.75 25.65 -44.65 26.3 -44.6 26.8 -44.5 27.5 -44.45 27.8 -44.4 28.65 -44.35 29.45 -44.25 29.85 -44.2 30.5 -44.15 31.05 -44.1 31.7 -44.0 32.25 -43.9 32.85 -43.8 33.4 -43.65 34.0 -43.5 34.55 -43.3 35.1 -43.1 35.6 -42.95 36.15 -42.75 36.7 -42.55 37.2 -42.35 37.7 -42.15 38.25 -41.9 38.75 -41.7 39.25 -41.45 39.8 -41.2 40.3 -40.95 40.8 -40.7 41.3 -40.45 41.75 -40.15 42.25 -39.9 42.75 -39.6 43.25 -39.3 43.75 -38.9 44.2 -38.55 44.6 -38.15 45.0 -37.75 45.4 -37.3 45.75 -36.9 46.1 -36.4 46.45 -35.95 46.75 -35.45 47.05 -35.0 47.35 -34.45 47.65 -34.0 47.95 -33.45 48.15 -33.1 48.5 -32.45 49.0 -31.55 49.45 -30.6 49.85 -29.7 50.3 -28.7 50.65 -27.8 51.05 -26.8 51.4 -25.9 51.8 -24.9 52.1 -24.0 52.5 -22.95 52.75 -22.1 53.15 -21.0 53.35 -20.35 53.8 -19.05 54.2 -17.75 54.45 -17.1 54.5 -16.95 54.55 -16.8 54.6 -16.65 54.65 -16.55 54.7 -16.4 54.75 -16.3 54.8 -16.15 54.9 -16.05 54.95 -15.95 55.05 -15.85 55.15 -15.7 55.25 -15.65 55.35 -15.55 55.45 -15.45 55.55 -15.4 55.7 -15.35 56.55 -15.0 57.3 -14.55 58.0 -14.1 58.6 -13.6 59.2 -13.05 59.75 -12.45 60.25 -11.85 60.65 -11.2 61.05 -10.55 61.4 -9.8 61.75 -9.15 62.0 -8.35 62.3 -7.6 62.5 -6.8 62.7 -6.05 62.9 -5.2 63.1 -4.3 63.3 -3.45 63.45 -2.55 63.65 -1.65 63.8 -0.75 64.0 0.1 64.15 1.05 64.3 1.9 64.45 2.8 64.55 3.7 64.7 4.6 64.8 5.5 64.9 6.4 65.0 7.3 65.1 8.2 65.15 9.1 65.2 9.45 65.15 9.8 65.15 10.15 65.1 10.45 65.05 10.75 64.95 11.05 64.85 11.35 64.7 11.65 64.55 11.95 64.4 12.2 64.2 12.45 64.0 12.7 63.8 12.95 63.55 13.15 63.3 13.4 63.05 13.6 63.0 13.65 62.9 13.7 62.8 13.8 62.75 13.8 62.65 13.85 62.6 13.9 62.55 13.95 62.5 14.05 62.45 14.1 62.4 14.15 62.35 14.25 62.35 14.3 62.3 14.4 62.3 14.5 62.3 14.6 62.35 14.7 62.45 15.05 62.5 15.4 62.55 15.75 62.65 16.15 62.65 16.15 62.75 16.85 62.85 17.3 62.9 17.6 62.95 18.0 63.05 18.3 63.1 18.7 63.2 19.05 63.3 19.4 63.4 19.75 63.5 20.1 63.65 20.45 63.75 20.7 63.85 20.9 63.95 21.05 64.0 21.2 64.1 21.35 64.2 21.4 64.3 21.5 64.4 21.5 64.5 21.55 64.6 21.5 64.75 21.45 64.85 21.4 65.0 21.3 65.15 21.2 65.3 21.05 65.5 20.9 65.65 20.75 65.85 20.6 66.0 20.45 66.2 20.35 66.4 20.25 66.6 20.15 66.75 20.05 66.95 19.95 67.15 19.9 67.4 19.85 67.6 19.8 67.8 19.75 68.0 19.75 68.25 19.75 68.45 19.75 68.7 19.8 68.9 19.8 69.05 19.85 69.25 19.9 69.4 19.95 69.6 20.05 69.75 20.15 69.85 20.2 70.0 20.3 70.15 20.45 70.25 20.55 70.35 20.7 70.4 20.85 70.5 21.0 70.55 21.15 70.6 21.35 70.65 21.55 70.65 21.75 70.65 21.95 70.65 22.15 70.65 22.3 70.6 22.5 70.55 22.65 70.5 22.8 70.4 22.95 70.3 23.1 70.2 23.25 70.1 23.4 69.95 23.5 69.8 23.65 69.65 23.75 69.45 23.85 69.25 23.9 69.1 23.95 68.9 24.05 68.75 24.1 68.6 24.15 68.4 24.2 68.25 24.25 68.05 24.25 67.9 24.3 67.75 24.3 67.55 24.3 67.4 24.35 67.2 24.35 67.05 24.3 66.85 24.3 66.7 24.3 66.5 24.25 66.35 24.2 66.2 24.2 66.1 24.2 66.0 24.2 65.95 24.25 65.85 24.3 65.8 24.3 65.8 24.4 65.75 24.45 65.75 24.5 65.75 24.6 65.75 24.7 65.75 24.75 65.75 24.85 65.75 24.95 65.8 25.1 65.8 25.2 65.85 25.3 65.9 25.4 65.9 25.5 65.95 25.6 66.0 25.7 66.05 25.75 66.1 25.85 66.15 25.95 66.2 26.05 66.25 26.15 66.35 26.2 66.4 26.3 66.45 26.35 66.55 26.45 66.6 26.55 66.7 26.65 66.8 26.75 66.9 26.8 67.0 26.85 67.1 26.9 67.2 26.95 67.3 26.95 67.4 26.95 67.5 26.95 67.6 26.95 67.7 26.9 67.8 26.85 67.9 26.8 68.0 26.7 68.1 26.65 68.25 26.5 68.5 26.3 68.7 26.1 68.95 25.95 69.2 25.8 69.5 25.65 69.75 25.55 70.0 25.4 70.3 25.35 70.55 25.25 70.85 25.2 71.15 25.15 71.45 25.15 71.75 25.1 72.05 25.15 72.35 25.15 72.7 25.25 72.85 25.3 73.0 25.3 73.15 25.35 73.25 25.4 73.4 25.45 73.5 25.5 73.65 25.6 73.75 25.65 73.85 25.75 73.95 25.85 74.05 25.95 74.1 26.05 74.2 26.15 74.25 26.3 74.3 26.4 74.35 26.55 74.4 26.7 74.4 26.9 74.4 27.05 74.35 27.2 74.35 27.35 74.3 27.45 74.25 27.6 74.15 27.7 74.1 27.85 74.0 27.95 73.9 28.05 73.8 28.2 73.7 28.3 73.55 28.35 73.45 28.45 73.3 28.55 73.05 28.7 72.8 28.8 72.55 28.95 72.3 29.05 72.05 29.1 71.8 29.2 71.5 29.25 71.25 29.3 71.0 29.35 70.7 29.4 70.45 29.4 70.15 29.4 69.9 29.45 69.6 29.45 69.35 29.45 69.1 29.45 68.95 29.45 68.85 29.45 68.7 29.45 68.6 29.45 68.5 29.5 68.45 29.5 68.35 29.55 68.3 29.6 68.2 29.65 68.15 29.7 68.1 29.75 68.05 29.85 68.05 29.95 68.0 30.05 68.0 30.15 68.0 30.3 68.0 30.45 68.0 30.55 68.0 30.65 68.0 30.75 68.0 30.85 68.0 30.9 68.05 31.0 68.05 31.05 68.1 31.1 68.15 31.15 68.25 31.2 68.35 31.2 68.45 31.2 68.55 31.15 68.7 31.1 68.85 31.05 69.15 30.95 69.4 30.85 69.7 30.75 70.0 30.7 70.3 30.65 70.55 30.65 70.85 30.6 71.15 30.65 71.4 30.65 71.7 30.65 72.0 30.7 72.3 30.75 72.55 30.85 72.85 30.95 73.1 31.0 73.4 31.15 73.6 31.25 73.8 31.35 74.0 31.4 74.15 31.55 74.35 31.65 74.5 31.75 74.65 31.9 74.75 32.0 74.9 32.15 75.0 32.35 75.1 32.5 75.15 32.7 75.2 32.85 75.25 33.1 75.25 33.3 75.2 33.55 75.15 33.75 75.1 33.95 75.05 34.15 74.95 34.3 74.8 34.45 74.7 34.55 74.55 34.7 74.4 34.75 74.25 34.85 74.05 34.9 73.9 35.0 73.7 35.05 73.5 35.1 73.3 35.1 73.1 35.15 72.9 35.15 72.6 35.2 72.35 35.2 72.05 35.2 71.8 35.15 71.5 35.15 71.25 35.1 71.0 35.05 70.7 35.0 70.45 34.95 70.2 34.85 69.95 34.8 69.7 34.7 69.45 34.6 69.15 34.45 68.9 34.35 68.65 34.25 68.6 34.2 68.5 34.15 68.25 34.0 68.35 34.1 68.3 34.0 68.2 34.0 68.15 33.95 68.05 33.95 68.0 33.9 67.95 33.9 67.85 33.9 67.75 33.95 67.7 33.95 67.6 34.05 67.55 34.1 67.45 34.2 67.4 34.3 67.35 34.4 67.3 34.45 67.25 34.55 67.2 34.65 67.2 34.75 67.15 34.85 67.15 34.95 67.15 35.05 67.15 35.15 67.15 35.25 67.15 35.3 67.15 35.4 67.2 35.5 67.25 35.6 67.25 35.7 67.3 35.8 67.4 35.9 67.45 35.95 67.5 35.95 67.55 36.0 67.65 36.0 67.7 35.95 67.8 35.95 67.85 35.9 67.95 35.85 67.35 36.2 68.05 35.8 68.15 35.75 68.2 35.7 68.3 35.7 68.35 35.65 68.7 35.6 69.05 35.6 69.35 35.6 69.7 35.65 70.0 35.65 70.3 35.75 70.65 35.8 70.95 35.9 71.25 36.0 71.5 36.1 71.8 36.25 72.1 36.4 72.35 36.6 72.6 36.8 72.9 37.0 73.1 37.25 73.25 37.35 73.35 37.5 73.45 37.6 73.55 37.75 73.65 37.9 73.7 38.05 73.75 38.2 73.8 38.35 73.8 38.5 73.8 38.65 73.8 38.85 73.75 39.0 73.7 39.15 73.65 39.35 73.55 39.5 73.45 39.65 73.35 39.8 73.2 39.95 73.05 40.05 72.9 40.15 72.75 40.25 72.6 40.3 72.45 40.4 72.3 40.45 72.1 40.5 71.95 40.5 71.8 40.5 71.6 40.5 71.45 40.5 71.25 40.45 71.05 40.45 70.9 40.35 70.35 40.2 69.5 39.85 68.3 39.3 68.15 39.25 67.9 39.15 67.65 39.15 67.4 39.1 67.15 39.15 66.95 39.2 66.7 39.25 66.5 39.35 66.25 39.5 66.05 39.65 65.9 39.8 65.7 40.0 65.6 40.2 65.45 40.4 65.4 40.65 65.3 40.9 65.3 41.15 65.3 41.25 65.3 41.3 65.3 41.35 65.35 41.4 65.35 41.45 65.4 41.45 65.4 41.5 65.45 41.5 65.5 41.55 65.55 41.55 65.55 41.55 65.6 41.6 65.8 41.65 65.7 41.6 65.75 41.65 65.8 41.65 67.85 42.4 68.15 42.55 68.4 42.7 68.6 42.85 68.8 43.0 68.95 43.15 69.1 43.3 69.2 43.5 69.35 43.7 69.4 43.9 69.45 44.1 69.5 44.3 69.55 44.55 69.5 44.75 69.5 45.0 69.45 45.2 69.4 45.45 69.3 45.65 69.2 45.85 69.1 46.0 69.0 46.2 68.85 46.3 68.7 46.45 68.55 46.55 68.4 46.65 68.2 46.75 68.0 46.8 67.8 46.8 67.6 46.85 67.4 46.85 67.15 46.85 66.95 46.8 66.7 46.75 66.45 46.7 66.2 46.6 65.95 46.5 65.7 46.4 65.45 46.3 65.25 46.2 65.0 46.05 64.8 45.9 64.6 45.75 64.4 45.6 64.25 45.45 64.05 45.25 63.95 45.05 63.8 44.85 63.65 44.6 63.55 44.4 63.45 44.1 63.4 43.95 63.35 43.9 63.35 43.8 63.3 43.75 63.25 43.65 63.15 43.65 63.1 43.6 63.05 43.6 63.0 43.6 62.95 43.6 62.85 43.6 62.8 43.6 62.75 43.6 62.65 43.65 62.6 43.65 62.45 43.7 62.35 43.75 62.25 43.8 62.15 43.85 62.05 43.9 61.95 43.95 61.85 44.0 61.75 44.05 61.65 44.1 61.55 44.2 61.5 44.25 61.4 44.3 61.3 44.4 61.25 44.5 61.15 44.55 61.05 44.65 61.0 44.75 60.75 45.1 60.45 45.45 60.15 45.75 59.8 46.05 59.5 46.3 59.15 46.6 58.8 46.85 58.45 47.05 58.1 47.3 57.7 47.5 57.35 47.7 56.95 47.85 56.55 48.0 56.15 48.15 55.75 48.3 55.3 48.4 51.6 49.35 46.45 50.35 76.5 44.75 37.5 51.95 33.4 52.7 22.65 54.95 13.3 56.9 7.8 57.8 6.35 58.05 4.95 58.25 3.5 58.45 2.1 58.6 0.65 58.7 -0.7 58.8 -2.1 58.9 -3.4 58.9 -4.8 58.95 -6.05 58.85 -7.35 58.8 -8.6 58.7 -9.85 58.55 -11.0 58.3 -12.2 58.1 -13.25 57.75 L-13.25 57.75 M-0.7 54.8 Q0.0 54.7 1.3 54.55 2.7 54.4 3.3 54.35 8.85 53.7 17.05 52.0 30.15 49.3 30.7 49.2 45.35 46.45 54.05 44.0 54.8 43.8 55.4 43.55 56.0 43.3 56.45 43.05 56.95 42.75 57.3 42.45 57.65 42.1 57.9 41.7 58.15 41.35 58.3 40.85 58.45 40.4 58.55 39.85 58.6 39.3 58.6 38.65 58.6 38.0 58.55 37.25 58.45 36.1 58.35 35.0 58.2 33.85 58.1 32.75 57.95 31.65 57.8 30.5 57.65 29.4 57.5 28.3 57.35 27.15 57.15 26.05 57.0 24.95 56.8 23.8 56.6 22.7 56.4 21.6 56.15 20.5 55.95 19.35 55.4 16.8 54.8 14.25 54.15 11.75 53.4 9.2 52.7 6.75 51.9 4.25 51.1 1.8 50.2 -0.65 49.35 -3.1 48.4 -5.5 47.45 -7.9 46.4 -10.35 45.4 -12.7 44.3 -15.1 43.25 -17.45 42.1 -19.8 41.95 -20.15 41.7 -20.5 41.55 -20.85 41.3 -21.2 41.1 -21.5 40.85 -21.85 40.6 -22.15 40.35 -22.45 40.1 -22.75 39.85 -23.05 39.6 -23.35 39.3 -23.65 39.05 -23.9 38.75 -24.25 38.55 -24.45 38.2 -24.8 38.1 -24.9 38.05 -24.95 38.0 -25.05 37.9 -25.1 37.85 -25.2 37.75 -25.25 37.65 -25.3 37.55 -25.35 37.45 -25.35 37.4 -25.35 37.3 -25.35 37.2 -25.3 37.15 -25.2 37.05 -25.1 37.0 -24.95 36.95 -24.7 36.9 -24.4 36.8 -24.15 36.7 -23.9 36.55 -23.65 36.4 -23.45 36.25 -23.25 36.1 -23.05 35.9 -22.9 35.7 -22.7 35.5 -22.6 35.3 -22.45 35.05 -22.35 34.8 -22.25 34.55 -22.15 34.3 -22.05 34.05 -22.0 33.6 -21.9 33.1 -21.75 32.65 -21.65 32.15 -21.55 31.7 -21.45 31.2 -21.4 30.7 -21.3 30.25 -21.25 29.75 -21.2 29.25 -21.15 28.8 -21.1 28.3 -21.05 27.85 -21.0 27.35 -21.0 26.85 -20.95 26.4 -20.95 26.0 -20.95 25.6 -21.05 25.2 -21.1 24.8 -21.3 24.45 -21.5 24.15 -21.75 23.85 -22.0 23.6 -22.3 23.35 -22.65 23.15 -23.0 23.0 -23.35 22.9 -23.75 22.8 -24.15 22.8 -24.55 22.8 -24.95 22.95 -25.35 23.0 -25.5 23.0 -25.65 23.05 -25.8 23.0 -25.9 23.0 -26.0 22.95 -26.05 22.95 -26.1 22.9 -26.15 22.8 -26.2 22.75 -26.25 22.65 -26.25 22.55 -26.25 22.5 -26.3 22.35 -26.3 22.3 -26.3 22.1 -26.3 20.55 -26.35 19.0 -26.4 17.45 -26.45 15.85 -26.45 14.3 -26.5 12.75 -26.5 11.2 -26.5 9.65 -26.5 8.1 -26.5 6.55 -26.45 4.95 -26.4 3.4 -26.4 1.85 -26.35 0.3 -26.25 -1.25 -26.2 -2.8 -26.1 -3.25 -26.1 -3.45 -26.05 -3.7 -26.05 -3.9 -26.05 -4.1 -26.0 -4.25 -25.95 -4.4 -25.9 -4.5 -25.8 -4.55 -25.7 -4.6 -25.55 -4.7 -25.4 -4.7 -25.2 -4.75 -25.05 -4.75 -24.75 -4.75 -24.55 -4.75 -24.1 -4.75 -23.45 -4.85 -22.95 -4.9 -22.45 -5.0 -22.0 -5.1 -21.6 -5.25 -21.25 -5.45 -20.9 -5.65 -20.6 -5.9 -20.35 -6.2 -20.1 -6.55 -19.9 -6.95 -19.7 -7.3 -19.5 -7.85 -19.35 -8.3 -19.25 -8.9 -19.1 -9.3 -19.0 -9.65 -18.95 -10.05 -18.9 -10.45 -18.8 -10.8 -18.75 -11.2 -18.7 -11.6 -18.65 -12.0 -18.6 -12.35 -18.55 -12.75 -18.5 -13.15 -18.45 -13.5 -18.45 -13.9 -18.4 -14.3 -18.35 -14.65 -18.35 -15.05 -18.3 -15.55 -18.25 -16.05 -18.35 -16.5 -18.4 -16.9 -18.6 -17.3 -18.75 -17.65 -19.0 -17.95 -19.2 -18.25 -19.55 -18.5 -19.85 -18.7 -20.2 -18.85 -20.6 -18.95 -21.0 -19.05 -21.45 -19.05 -21.9 -19.05 -22.4 -18.95 -22.9 -18.9 -23.1 -18.9 -23.3 -18.85 -23.5 -18.9 -23.65 -18.9 -23.8 -18.95 -23.9 -19.0 -24.0 -19.05 -24.1 -19.15 -24.2 -19.25 -24.25 -19.35 -24.3 -19.5 -24.3 -19.65 -24.35 -19.8 -24.3 -20.0 -24.3 -20.2 -24.25 -20.3 -24.25 -20.45 -24.2 -20.55 -24.2 -20.75 -24.2 -20.95 -24.15 -21.0 -24.15 -21.15 -24.15 -21.3 -24.1 -21.4 -24.1 -21.55 -24.05 -21.7 -24.05 -21.8 -24.0 -21.95 -23.95 -22.05 -23.9 -22.15 -23.85 -22.3 -23.8 -21.65 -22.9 -21.05 -22.15 -20.45 -21.25 -19.85 -20.45 -19.25 -19.6 -18.7 -18.75 -18.15 -17.9 -17.65 -17.05 -17.1 -16.15 -16.6 -15.25 -16.15 -14.35 -15.7 -13.45 -15.25 -12.5 -14.85 -11.6 -14.45 -10.6 -14.1 -9.65 -12.9 -6.15 -11.4 -0.75 -8.95 8.0 -8.9 8.15 -3.5 26.8 -1.6 35.45 -1.35 36.6 -1.15 37.85 -0.95 39.0 -0.85 40.25 -0.75 41.4 -0.65 42.65 -0.6 43.75 -0.6 45.05 -0.55 46.15 -0.55 47.45 -0.6 48.5 -0.6 49.9 -0.6 48.9 -0.65 52.35 -0.7 53.8 -0.7 54.8 L-0.7 54.8 M27.55 -40.75 Q26.6 -40.9 25.7 -41.05 24.75 -41.2 23.9 -41.3 23.0 -41.45 22.1 -41.55 21.25 -41.65 20.4 -41.7 19.5 -41.8 18.65 -41.85 17.8 -41.9 16.95 -41.95 16.1 -41.95 15.3 -42.0 14.45 -42.0 13.6 -42.0 8.85 -41.9 1.35 -41.4 -8.85 -40.7 -10.9 -40.6 -25.25 -39.9 -34.7 -38.25 -35.45 -38.15 -36.1 -37.95 -36.8 -37.75 -37.4 -37.45 -38.0 -37.15 -38.55 -36.8 -39.05 -36.45 -39.55 -36.05 -40.0 -35.6 -40.4 -35.1 -40.8 -34.6 -41.1 -34.0 -41.45 -33.45 -41.7 -32.8 -42.0 -32.15 -42.2 -31.4 -42.85 -28.95 -43.95 -21.7 -44.05 -21.1 -44.15 -20.6 -44.3 -20.05 -44.45 -19.55 -44.65 -19.0 -44.85 -18.55 -45.1 -18.1 -45.35 -17.65 -45.65 -17.2 -45.95 -16.85 -46.3 -16.45 -46.7 -16.1 -47.1 -15.75 -47.55 -15.45 -48.05 -15.15 -48.55 -14.9 -49.2 -14.6 -49.75 -14.25 -50.25 -13.9 -50.75 -13.45 -51.2 -13.05 -51.6 -12.55 -51.95 -12.1 -52.25 -11.6 -52.55 -11.1 -52.8 -10.5 -53.05 -10.0 -53.25 -9.35 -53.4 -8.8 -53.55 -8.15 -53.7 -7.55 -53.8 -6.9 -54.0 -5.55 -54.35 -2.9 -54.65 -0.2 -54.85 1.1 -54.95 1.8 -55.0 2.1 -55.05 2.55 -55.05 2.85 -55.1 3.2 -55.05 3.4 -55.0 3.65 -54.9 3.85 -54.75 4.0 -54.55 4.15 -54.35 4.3 -54.05 4.45 -53.8 4.6 -53.35 4.75 -53.05 4.85 -52.35 5.05 -51.6 5.3 -50.8 5.5 -50.0 5.7 -49.2 5.85 -48.45 6.0 -47.6 6.15 -46.85 6.25 -46.0 6.35 -45.25 6.4 -44.4 6.45 -43.65 6.5 -42.8 6.55 -42.1 6.6 -41.15 6.65 -41.25 6.65 -39.55 6.7 -39.1 6.7 -38.65 6.7 -38.2 6.75 -37.75 6.7 -37.3 6.7 -36.9 6.7 -36.45 6.7 -36.0 6.65 -35.55 6.6 -35.15 6.6 -34.7 6.55 -34.25 6.45 -33.8 6.4 -33.4 6.35 -32.95 6.25 -32.55 6.15 -32.1 6.05 -31.8 5.95 -31.45 5.85 -31.15 5.7 -30.8 5.6 -30.55 5.45 -30.3 5.25 -30.1 5.05 -29.9 4.85 -29.75 4.6 -29.6 4.3 -29.5 4.0 -29.4 3.65 -29.35 3.25 -29.35 2.85 -29.35 2.35 -29.4 2.05 -29.25 -1.4 -29.2 -2.15 -29.2 -2.65 -29.2 -3.35 -29.15 -3.95 -29.15 -4.6 -29.15 -5.2 -29.15 -5.9 -29.15 -6.5 -29.15 -7.15 -29.2 -7.75 -29.25 -8.4 -29.3 -9.0 -29.35 -9.65 -29.4 -10.3 -29.5 -10.9 -29.6 -11.55 -29.65 -11.8 -29.7 -12.05 -29.75 -12.3 -29.85 -12.55 -29.9 -12.8 -30.0 -13.0 -30.1 -13.25 -30.2 -13.45 -30.35 -13.65 -30.5 -13.85 -30.65 -14.0 -30.8 -14.2 -30.95 -14.35 -31.15 -14.5 -31.4 -14.65 -31.6 -14.75 -31.8 -14.85 -32.0 -15.0 -32.2 -15.1 -32.35 -15.25 -32.5 -15.4 -32.65 -15.55 -32.75 -15.7 -32.85 -15.85 -33.0 -16.0 -33.1 -16.2 -33.15 -16.35 -33.25 -16.55 -33.35 -16.75 -33.4 -16.95 -33.5 -17.1 -33.55 -17.35 -33.6 -17.5 -33.65 -17.7 -33.7 -17.85 -33.75 -18.05 -33.75 -18.25 -33.8 -18.45 -33.8 -18.55 -33.8 -18.8 -33.85 -19.05 -33.85 -19.15 -33.85 -19.35 -33.9 -19.5 -33.9 -19.7 -33.95 -19.9 -34.0 -20.05 -34.05 -20.2 -34.15 -20.55 -34.2 -20.85 -34.25 -21.15 -34.25 -21.45 -34.2 -21.7 -34.15 -21.95 -34.1 -22.2 -33.95 -22.45 -33.85 -22.65 -33.7 -22.9 -33.55 -23.1 -33.35 -23.3 -33.15 -23.5 -32.95 -23.7 -32.75 -23.85 -32.5 -24.05 -32.35 -24.2 -32.15 -24.3 -32.0 -24.4 -31.8 -24.55 -31.65 -24.65 -31.45 -24.75 -31.25 -24.85 -31.05 -24.95 -30.9 -25.05 -30.7 -25.1 -30.5 -25.2 -30.3 -25.3 -30.1 -25.35 -29.9 -25.45 -29.8 -25.5 -29.5 -25.6 -29.0 -25.8 -28.45 -26.0 -27.9 -26.2 -27.35 -26.4 -26.8 -26.55 -26.25 -26.7 -25.7 -26.85 -25.15 -27.0 -24.6 -27.1 -24.05 -27.25 -23.5 -27.35 -22.9 -27.45 -22.4 -27.55 -21.8 -27.65 -21.3 -27.75 -20.65 -27.85 -20.5 -27.9 -20.4 -27.9 -20.3 -27.9 -20.2 -27.95 -20.1 -28.0 -20.0 -28.0 -19.95 -28.05 -19.9 -28.1 -19.8 -28.15 -19.8 -28.25 -19.75 -28.3 -19.75 -28.45 -19.7 -28.55 -19.7 -28.65 -19.7 -28.8 -19.75 -28.95 -19.8 -29.3 -19.85 -29.65 -19.85 -29.95 -19.85 -30.2 -19.8 -30.5 -19.75 -30.7 -19.65 -30.95 -19.55 -31.15 -19.45 -31.35 -19.25 -31.5 -19.1 -31.65 -18.85 -31.85 -18.65 -32.0 -18.35 -32.15 -18.05 -32.25 -17.7 -32.4 -17.3 -32.55 -16.9 -32.7 -16.5 -32.85 -16.1 -32.95 -15.7 -33.1 -15.3 -33.2 -14.9 -33.3 -14.45 -33.35 -14.05 -33.45 -13.65 -33.55 -13.25 -33.6 -12.8 -33.65 -12.4 -33.7 -11.95 -33.75 -11.55 -33.8 -11.1 -33.85 -10.55 -33.9 -10.05 -33.9 -9.6 -33.9 -9.2 -33.8 -8.8 -33.75 -8.45 -33.65 -8.1 -33.55 -7.8 -33.35 -7.5 -33.2 -7.25 -32.9 -7.0 -32.65 -6.8 -32.35 -6.55 -32.0 -6.35 -31.55 -6.15 -31.15 -5.9 -30.65 -5.85 -30.5 -5.8 -30.4 -5.7 -30.25 -5.65 -30.15 -5.6 -30.05 -5.5 -29.95 -5.45 -29.85 -5.35 -29.8 -5.25 -29.75 -5.15 -29.7 -5.05 -29.65 -4.95 -29.65 -4.85 -29.6 -4.7 -29.6 -4.55 -29.6 -4.4 -29.6 -2.8 -29.7 -1.2 -29.8 0.4 -29.9 2.0 -29.95 3.55 -30.0 5.15 -30.05 6.75 -30.1 8.35 -30.1 9.95 -30.15 11.55 -30.1 13.15 -30.1 14.75 -30.1 16.35 -30.05 17.95 -30.05 19.5 -30.0 21.1 -29.9 21.35 -29.9 21.55 -29.9 21.75 -29.9 21.85 -29.95 22.0 -30.0 22.1 -30.05 22.2 -30.1 22.25 -30.2 22.3 -30.3 22.3 -30.4 22.35 -30.5 22.35 -30.65 22.35 -30.8 22.3 -30.95 22.3 -31.1 22.25 -31.3 22.15 -31.7 22.15 -32.05 22.1 -32.4 22.1 -32.7 22.1 -33.0 22.2 -33.25 22.25 -33.5 22.35 -33.75 22.5 -33.95 22.65 -34.15 22.85 -34.35 23.1 -34.5 23.3 -34.65 23.65 -34.8 23.95 -34.95 24.35 -35.1 24.8 -35.25 25.25 -35.4 25.7 -35.55 26.15 -35.7 26.6 -35.85 27.05 -35.95 27.5 -36.05 28.0 -36.15 28.45 -36.2 28.9 -36.3 29.4 -36.35 29.85 -36.4 30.35 -36.45 30.8 -36.5 31.3 -36.5 31.75 -36.55 32.1 -36.55 32.4 -36.55 32.7 -36.5 33.0 -36.45 33.25 -36.35 33.55 -36.25 33.8 -36.15 34.05 -36.0 34.3 -35.85 34.5 -35.7 34.75 -35.5 34.95 -35.3 35.1 -35.05 35.3 -34.8 35.45 -34.5 35.6 -34.2 35.7 -33.95 35.85 -33.7 35.95 -33.45 36.05 -33.2 36.15 -32.95 36.25 -32.7 36.35 -32.45 36.45 -32.2 36.55 -31.95 36.6 -31.7 36.7 -31.4 36.75 -31.15 36.8 -30.9 36.9 -30.6 36.95 -30.35 37.0 -30.1 37.0 -29.95 37.05 -29.9 37.05 -29.8 37.05 -29.75 37.1 -29.65 37.1 -29.55 37.15 -29.5 37.2 -29.4 37.2 -29.35 37.3 -29.3 37.35 -29.2 37.4 -29.15 37.5 -29.1 37.6 -29.1 37.7 -29.05 37.85 -29.0 38.15 -28.95 38.4 -28.85 38.65 -28.8 38.95 -28.7 39.2 -28.6 39.45 -28.45 39.65 -28.3 39.9 -28.15 40.1 -28.0 40.35 -27.8 40.55 -27.65 40.75 -27.45 40.95 -27.25 41.15 -27.0 41.3 -26.8 41.5 -26.6 41.9 -26.15 42.3 -25.65 42.65 -25.15 43.0 -24.65 43.35 -24.2 43.7 -23.65 44.05 -23.2 44.4 -22.65 44.7 -22.15 45.0 -21.6 45.35 -21.1 45.65 -20.55 45.9 -20.05 46.2 -19.5 46.5 -18.95 46.75 -18.4 50.45 -11.05 55.0 2.1 55.0 2.15 55.05 2.25 54.9 1.65 55.1 2.4 55.1 2.5 55.15 2.6 55.15 2.65 55.2 2.75 55.2 2.8 55.25 2.9 55.3 2.95 55.3 3.0 55.35 3.1 55.4 3.15 55.45 3.2 55.5 3.25 55.6 3.35 55.9 3.3 56.15 3.3 56.5 3.2 56.85 3.1 57.3 2.95 57.7 2.75 58.1 2.55 58.55 2.35 58.9 2.1 59.3 1.9 59.6 1.65 59.9 1.45 60.1 1.25 60.3 1.0 60.3 0.85 60.3 0.8 60.3 0.75 60.35 0.7 60.3 0.65 60.3 0.6 60.3 0.55 60.3 0.55 60.3 0.45 60.2 -0.2 60.15 -0.7 60.05 -1.3 59.95 -1.8 59.85 -2.4 59.75 -2.9 59.65 -3.5 59.5 -4.05 59.4 -4.6 59.25 -5.15 59.1 -5.7 58.9 -6.2 58.75 -6.8 58.55 -7.3 58.35 -7.85 58.1 -8.35 57.95 -8.65 57.8 -8.95 57.65 -9.25 57.5 -9.55 57.3 -9.8 57.1 -10.05 56.9 -10.35 56.7 -10.55 56.5 -10.8 56.25 -11.0 56.0 -11.2 55.75 -11.35 55.5 -11.55 55.2 -11.7 54.9 -11.85 54.55 -11.95 54.2 -12.05 53.85 -12.25 53.5 -12.4 53.25 -12.6 52.95 -12.75 52.7 -13.0 52.45 -13.2 52.25 -13.5 52.0 -13.75 51.85 -14.0 51.65 -14.3 51.5 -14.6 51.35 -14.95 51.2 -15.3 51.05 -15.6 50.95 -16.0 50.6 -17.2 50.3 -18.1 49.95 -19.2 49.6 -20.15 49.25 -21.25 48.9 -22.25 48.55 -23.3 48.15 -24.25 47.75 -25.35 47.35 -26.3 46.95 -27.35 46.5 -28.3 46.05 -29.3 45.55 -30.3 45.05 -31.3 44.5 -32.2 44.25 -32.7 43.95 -33.15 43.65 -33.6 43.35 -34.0 43.0 -34.4 42.65 -34.8 42.3 -35.15 41.95 -35.5 41.55 -35.85 41.15 -36.2 40.75 -36.5 40.3 -36.8 39.9 -37.1 39.4 -37.35 38.95 -37.6 38.45 -37.85 37.75 -38.2 37.1 -38.5 36.4 -38.8 35.7 -39.05 35.0 -39.3 34.3 -39.55 33.6 -39.75 32.9 -39.95 32.25 -40.1 31.55 -40.25 30.85 -40.4 30.2 -40.5 29.5 -40.6 28.85 -40.65 28.2 -40.7 27.55 -40.75 L27.55 -40.75 M-15.75 53.25 Q-10.95 54.05 -6.8 54.7 -6.45 54.75 -6.15 54.8 -5.85 54.8 -5.55 54.8 -5.3 54.75 -5.1 54.7 -4.9 54.6 -4.7 54.5 -4.55 54.4 -4.4 54.2 -4.3 54.05 -4.2 53.8 -4.1 53.55 -4.05 53.25 -4.0 53.0 -3.95 52.6 -3.9 51.9 -3.85 51.2 -3.8 50.55 -3.8 49.85 -3.75 49.15 -3.75 48.45 -3.75 47.75 -3.75 47.05 -3.75 46.35 -3.75 45.7 -3.8 45.0 -3.8 44.3 -3.85 43.6 -3.9 42.9 -3.95 42.2 -4.0 41.5 -4.1 40.25 -4.3 38.95 -4.5 37.7 -4.75 36.4 -5.0 35.2 -5.3 33.85 -5.6 32.7 -5.95 31.4 -6.25 30.25 -6.65 28.9 -6.95 27.9 -7.4 26.45 -8.4 23.0 -8.15 23.95 -8.55 22.55 -8.85 21.5 -14.3 2.55 -16.45 -5.35 -16.6 -5.9 -16.75 -6.4 -16.9 -6.95 -17.05 -7.45 -17.25 -7.95 -17.45 -8.45 -17.6 -9.0 -17.8 -9.45 -18.0 -10.0 -18.25 -10.45 -18.45 -10.95 -18.7 -11.45 -18.95 -11.95 -19.2 -12.4 -19.45 -12.9 -19.75 -13.35 -19.95 -13.7 -20.4 -14.5 -20.85 -15.2 -21.05 -15.6 -21.4 -16.25 -21.7 -16.75 -22.1 -17.35 -22.4 -17.85 -22.8 -18.4 -23.15 -18.9 -23.55 -19.45 -23.9 -19.95 -24.35 -20.5 -24.75 -20.95 -25.2 -21.45 -25.65 -21.9 -25.8 -22.05 -26.1 -22.15 -26.35 -22.25 -26.65 -22.25 -27.0 -22.3 -27.35 -22.25 -27.7 -22.2 -28.05 -22.15 -28.4 -22.05 -28.75 -21.9 -29.1 -21.8 -29.35 -21.6 -29.65 -21.45 -29.8 -21.25 -30.0 -21.05 -30.1 -20.85 -30.15 -20.7 -30.15 -20.4 -30.15 -20.15 -30.1 -19.8 -30.05 -19.5 -29.95 -19.1 -29.85 -18.75 -29.7 -18.35 -29.6 -17.95 -29.45 -17.65 -29.3 -17.25 -29.15 -17.0 -28.95 -16.7 -28.8 -16.5 -28.65 -16.3 -28.45 -16.25 -28.05 -16.1 -27.75 -15.85 -27.45 -15.65 -27.2 -15.4 -26.95 -15.15 -26.75 -14.85 -26.6 -14.6 -26.45 -14.3 -26.35 -14.0 -26.25 -13.65 -26.15 -13.35 -26.1 -13.0 -26.05 -12.65 -26.0 -12.3 -26.0 -11.95 -26.0 -11.55 -25.95 -9.2 -25.9 -4.6 -25.85 0.1 -25.8 2.4 -25.8 2.65 -25.8 2.95 -25.8 3.2 -25.85 3.55 -26.5 11.7 -25.9 4.1 -25.9 4.45 -25.95 4.7 -25.95 5.0 -25.95 5.25 -25.95 5.6 -25.9 5.85 -25.9 6.15 -25.8 6.4 -25.75 6.7 -25.65 7.0 -25.25 7.95 -25.1 8.95 -24.95 9.9 -25.05 10.85 -25.15 11.8 -25.45 12.65 -25.75 13.5 -26.2 14.25 -26.7 15.05 -27.35 15.65 -28.05 16.3 -28.85 16.75 -29.65 17.2 -30.6 17.5 -31.6 17.8 -32.65 17.85 -33.6 17.9 -35.1 17.95 -37.2 18.0 -37.55 18.0 -37.7 18.0 -37.8 18.0 -37.95 18.05 -38.05 18.05 -38.15 18.1 -38.25 18.1 -38.35 18.15 -38.45 18.2 -38.55 18.3 -38.6 18.35 -38.7 18.45 -38.75 18.55 -38.8 18.65 -38.85 18.8 -38.9 18.95 -38.9 19.15 -39.95 26.25 -42.0 36.35 -42.25 37.65 -42.4 38.65 -42.5 39.7 -42.5 40.5 -42.5 41.4 -42.35 42.1 -42.2 42.8 -41.85 43.45 -41.55 44.05 -41.0 44.55 -40.5 45.1 -39.8 45.6 -39.1 46.05 -38.15 46.55 -37.3 47.0 -36.05 47.5 -34.85 48.0 -33.6 48.5 -32.4 48.95 -31.1 49.35 -29.9 49.8 -28.6 50.15 -27.35 50.55 -26.05 50.9 -24.8 51.25 -23.5 51.55 -22.25 51.85 -20.9 52.15 -19.7 52.45 -18.35 52.75 -17.15 53.0 -15.75 53.25 L-15.75 53.25 M-50.5 13.55 Q-47.65 13.9 -43.65 14.05 -50.95 13.8 -36.85 14.25 -36.6 14.25 -36.2 14.25 -35.75 14.3 -35.55 14.3 -35.15 14.3 -34.9 14.3 -34.55 14.3 -34.25 14.3 -33.9 14.3 -33.6 14.25 -33.25 14.25 -32.95 14.2 -32.6 14.15 -32.3 14.05 -31.95 14.0 -31.65 13.9 -31.3 13.75 -30.95 13.65 -30.65 13.5 -30.35 13.3 -30.1 13.15 -29.85 12.95 -29.65 12.8 -29.45 12.55 -29.25 12.35 -29.15 12.1 -29.0 11.9 -28.9 11.6 -28.8 11.35 -28.7 11.05 -28.65 10.75 -28.65 10.45 -28.6 10.15 -28.6 10.0 -28.6 9.75 -28.65 9.6 -28.65 9.45 -28.7 9.35 -28.75 9.25 -28.8 9.15 -28.9 9.1 -29.0 9.05 -29.1 9.05 -29.25 9.05 -29.4 9.05 -29.6 9.1 -29.8 9.15 -30.05 9.2 -30.65 9.35 -31.2 9.5 -31.8 9.65 -32.4 9.8 -32.95 9.9 -33.55 10.0 -34.15 10.1 -34.75 10.2 -35.35 10.25 -35.9 10.3 -36.5 10.35 -37.1 10.4 -37.7 10.4 -38.3 10.4 -38.9 10.4 -39.5 10.4 -44.4 10.2 -41.75 10.3 -43.05 10.25 -44.0 10.2 -45.25 10.1 -46.25 10.0 -47.45 9.9 -48.5 9.75 -49.65 9.6 -50.7 9.35 -51.8 9.1 -52.85 8.75 -53.95 8.4 -54.95 8.0 -56.05 7.5 -57.05 6.95 -57.1 6.9 -57.15 6.9 -57.2 6.85 -57.25 6.85 -57.25 6.85 -57.3 6.8 -57.35 6.8 -57.4 6.8 -57.45 6.8 -57.5 6.8 -57.55 6.8 -57.6 6.8 -57.6 6.85 -57.65 6.85 -57.7 6.9 -57.8 6.95 -58.05 7.15 -58.2 7.45 -58.35 7.75 -58.45 8.1 -58.55 8.45 -58.6 8.8 -58.6 9.2 -58.55 9.6 -58.5 10.0 -58.4 10.35 -58.3 10.7 -58.1 11.0 -57.95 11.3 -57.7 11.55 -57.45 11.8 -57.2 11.9 -56.8 12.1 -56.4 12.25 -56.0 12.4 -55.55 12.55 -55.15 12.65 -54.75 12.8 -54.35 12.9 -53.9 13.0 -53.5 13.1 -53.05 13.15 -52.65 13.25 -52.2 13.3 -51.8 13.4 -51.35 13.45 -50.95 13.5 -50.5 13.55 L-50.5 13.55 M66.1 29.7 Q66.2 29.55 66.3 29.4 66.35 29.3 66.4 29.2 66.4 29.05 66.4 28.95 66.4 28.85 66.4 28.75 66.35 28.7 66.3 28.6 66.25 28.5 66.15 28.45 66.1 28.35 66.0 28.3 65.9 28.25 65.8 28.15 65.7 28.1 65.6 28.0 65.5 27.95 65.45 27.9 65.35 27.8 65.25 27.75 65.15 27.65 65.1 27.55 65.0 27.5 64.95 27.4 64.85 27.3 64.8 27.2 64.75 27.1 64.65 27.0 64.6 26.9 64.55 26.8 64.45 26.6 64.35 26.4 64.3 26.2 64.25 25.95 64.2 25.75 64.2 25.5 64.15 25.35 64.15 25.05 64.1 24.75 64.1 24.6 64.1 24.4 64.05 24.2 64.05 24.0 63.95 23.8 63.9 23.65 63.8 23.5 63.7 23.35 63.55 23.15 63.45 23.0 63.3 22.8 63.2 22.7 63.0 22.45 62.8 22.25 62.7 22.15 62.55 21.95 62.4 21.8 62.25 21.6 62.15 21.4 62.0 21.2 61.95 21.0 61.85 20.8 61.8 20.6 61.55 19.7 61.25 18.25 60.85 16.45 60.75 15.9 60.75 15.85 60.7 15.75 60.7 15.7 60.7 15.6 60.7 15.5 60.7 15.4 60.7 15.35 60.65 15.25 60.65 15.2 60.6 15.15 60.55 15.1 60.5 15.05 60.4 15.05 60.3 15.05 60.2 15.05 60.05 15.1 59.95 15.15 59.8 15.15 59.65 15.2 59.6 15.25 59.45 15.25 59.4 15.3 59.25 15.35 59.2 15.4 59.1 15.45 59.05 15.55 59.0 15.65 59.0 15.75 58.95 15.85 58.95 16.0 59.0 16.15 59.05 16.35 59.1 16.5 59.15 16.7 59.2 16.85 59.25 17.0 59.3 17.2 59.35 17.35 59.35 17.5 59.4 17.7 59.4 17.8 59.45 18.05 59.5 18.25 59.55 18.4 59.55 18.6 59.6 18.75 59.65 18.9 59.7 19.1 60.1 20.65 60.4 21.8 60.75 23.3 61.05 24.55 61.4 26.0 61.65 27.3 61.9 28.7 62.1 30.05 62.35 31.45 62.5 32.8 62.65 34.25 62.7 35.6 62.75 37.05 62.75 38.4 62.7 39.85 62.55 41.25 62.55 41.3 62.55 41.3 62.55 41.4 62.55 41.4 62.55 41.45 62.55 41.45 62.55 41.5 62.55 41.5 62.55 41.55 62.55 41.6 62.55 41.6 62.6 41.65 62.6 41.65 62.65 41.65 62.7 41.7 62.75 41.7 62.8 41.7 62.85 41.7 62.9 41.7 62.95 41.7 63.0 41.7 63.05 41.7 63.1 41.65 63.15 41.65 63.2 41.65 63.25 41.6 63.25 41.55 63.3 41.55 63.35 41.5 63.35 41.45 63.4 41.4 63.4 41.35 63.45 41.25 63.45 41.15 63.5 41.1 63.5 40.95 63.5 40.95 63.55 40.75 63.6 40.65 63.6 40.6 63.65 40.45 63.65 40.4 63.7 40.3 63.7 40.2 63.75 40.1 63.8 40.05 63.85 39.95 63.9 39.85 63.95 39.8 64.3 39.25 64.55 38.9 64.7 38.7 64.9 38.35 65.05 38.1 65.25 37.75 65.35 37.5 65.5 37.15 65.6 36.85 65.65 36.5 65.65 36.15 65.7 35.8 65.6 35.45 65.55 35.05 65.4 34.65 65.6 34.35 65.75 34.05 65.85 33.75 66.0 33.45 66.1 33.15 66.15 32.85 66.25 32.55 66.3 32.2 66.3 31.9 66.3 31.6 66.35 31.3 66.3 30.95 66.3 30.65 66.25 30.35 66.2 30.0 66.1 29.7 L66.1 29.7 M33.9 -25.95 Q33.95 -26.35 33.95 -26.8 34.0 -27.2 34.0 -27.6 34.0 -28.05 33.95 -28.45 33.95 -28.85 33.9 -29.25 33.85 -29.65 33.75 -30.05 33.65 -30.45 33.55 -30.85 33.45 -31.25 33.3 -31.65 33.15 -32.05 32.95 -32.4 32.9 -32.55 32.85 -32.6 32.8 -32.7 32.75 -32.8 32.7 -32.9 32.65 -32.95 32.6 -33.05 32.55 -33.1 32.45 -33.15 32.4 -33.25 32.3 -33.3 32.2 -33.3 32.1 -33.35 32.0 -33.35 31.9 -33.4 31.75 -33.35 31.35 -33.35 31.0 -33.3 30.65 -33.25 30.25 -33.2 29.9 -33.2 29.55 -33.15 29.15 -33.05 28.8 -33.0 28.45 -32.95 28.1 -32.9 27.7 -32.8 27.35 -32.7 27.0 -32.65 26.65 -32.55 26.3 -32.45 25.95 -32.3 25.85 -32.3 25.8 -32.25 25.75 -32.25 25.7 -32.2 25.65 -32.2 25.6 -32.15 25.55 -32.15 25.5 -32.1 25.45 -32.05 25.45 -32.0 25.4 -31.95 25.4 -31.9 25.4 -31.85 25.4 -31.75 25.4 -31.65 25.4 -31.55 25.65 -30.3 25.95 -28.3 26.4 -25.75 26.5 -25.05 26.5 -24.95 26.55 -24.85 26.55 -24.75 26.6 -24.65 26.65 -24.6 26.7 -24.5 26.7 -24.45 26.8 -24.35 26.85 -24.3 26.9 -24.25 27.0 -24.2 27.05 -24.2 27.15 -24.15 27.3 -24.15 27.4 -24.15 27.5 -24.15 28.6 -24.35 30.3 -24.6 32.5 -24.9 33.1 -25.0 33.2 -25.0 33.3 -25.05 33.35 -25.05 33.45 -25.1 33.5 -25.15 33.6 -25.2 33.65 -25.25 33.7 -25.3 33.75 -25.35 33.8 -25.4 33.85 -25.5 33.9 -25.55 33.9 -25.65 33.9 -25.75 33.9 -25.85 33.9 -25.95 L33.9 -25.95 M-8.0 -23.5 Q-7.95 -23.9 -7.95 -24.3 -7.95 -24.75 -7.95 -25.15 -7.95 -25.55 -8.0 -25.95 -8.0 -26.35 -8.05 -26.75 -8.15 -27.15 -8.2 -27.55 -8.3 -27.9 -8.4 -28.3 -8.55 -28.7 -8.7 -29.05 -8.85 -29.45 -9.0 -29.85 -9.05 -29.95 -9.1 -30.05 -9.15 -30.15 -9.2 -30.2 -9.25 -30.3 -9.3 -30.35 -9.4 -30.45 -9.45 -30.5 -9.55 -30.55 -9.6 -30.6 -9.7 -30.65 -9.8 -30.7 -9.9 -30.7 -10.0 -30.7 -10.15 -30.75 -10.25 -30.7 -10.6 -30.65 -10.95 -30.65 -11.35 -30.6 -11.7 -30.55 -12.05 -30.5 -12.4 -30.45 -12.8 -30.4 -13.1 -30.35 -13.5 -30.3 -13.85 -30.25 -14.2 -30.15 -14.55 -30.05 -14.9 -30.0 -15.25 -29.9 -15.6 -29.8 -15.95 -29.7 -16.0 -29.7 -16.05 -29.65 -16.15 -29.65 -16.2 -29.6 -16.25 -29.6 -16.3 -29.6 -16.35 -29.55 -16.4 -29.5 -16.45 -29.5 -16.5 -29.45 -16.5 -29.4 -16.55 -29.35 -16.55 -29.25 -16.55 -29.15 -16.55 -29.1 -16.55 -29.0 -16.5 -28.7 -16.05 -25.65 -15.75 -23.6 -15.4 -22.3 -15.35 -22.2 -15.35 -22.1 -15.3 -22.0 -15.25 -21.95 -15.25 -21.85 -15.2 -21.8 -15.15 -21.7 -15.05 -21.65 -15.0 -21.6 -14.95 -21.6 -14.85 -21.55 -14.75 -21.55 -14.65 -21.5 -14.55 -21.5 -14.45 -21.5 -14.35 -21.55 -11.65 -21.95 -9.05 -22.3 -8.9 -22.3 -8.8 -22.35 -8.7 -22.4 -8.6 -22.45 -8.45 -22.45 -8.4 -22.55 -8.3 -22.6 -8.25 -22.65 -8.15 -22.75 -8.1 -22.8 -8.05 -22.9 -8.05 -23.0 -8.0 -23.1 -8.0 -23.25 -8.0 -23.35 -8.0 -23.5 L-8.0 -23.5 M61.55 9.65 Q61.5 8.9 61.4 7.75 61.2 5.95 61.2 5.7 61.2 5.6 61.15 5.5 61.15 5.4 61.1 5.35 61.05 5.3 61.0 5.3 61.0 5.25 60.95 5.25 60.9 5.25 60.8 5.25 60.75 5.25 60.7 5.3 60.65 5.3 60.55 5.35 60.5 5.35 60.45 5.4 60.25 5.5 60.05 5.6 59.85 5.7 59.65 5.8 59.45 5.9 59.25 6.0 59.05 6.1 58.85 6.2 58.65 6.25 58.45 6.35 58.25 6.4 58.05 6.5 57.8 6.55 57.6 6.6 57.4 6.65 57.15 6.7 57.05 6.75 57.05 6.75 57.0 6.75 56.95 6.75 56.9 6.75 56.9 6.8 56.85 6.8 56.8 6.85 56.75 6.85 56.75 6.85 56.7 6.9 56.7 6.95 56.65 6.95 56.65 7.0 56.65 7.05 56.65 7.1 56.8 7.6 58.0 11.8 58.0 11.85 58.1 11.9 58.2 11.95 58.4 11.9 58.6 11.85 58.85 11.75 59.1 11.65 59.4 11.5 59.7 11.35 60.0 11.15 60.3 10.95 60.55 10.75 60.85 10.55 61.05 10.35 61.25 10.15 61.4 10.0 61.55 9.8 61.55 9.65 L61.55 9.65 M71.85 38.5 Q71.6 38.3 71.35 38.15 71.1 38.0 70.9 37.9 70.65 37.75 70.45 37.7 70.25 37.6 70.05 37.55 69.85 37.5 69.65 37.5 69.5 37.45 69.3 37.5 69.1 37.5 68.9 37.55 68.75 37.55 68.5 37.65 68.75 37.8 68.95 37.95 69.15 38.1 69.3 38.2 69.5 38.3 69.7 38.4 69.9 38.45 70.1 38.5 70.25 38.55 70.45 38.6 70.65 38.6 70.9 38.6 71.1 38.6 71.35 38.6 71.6 38.55 71.85 38.5 L71.85 38.5 M69.75 32.65 Q69.95 32.8 70.15 32.9 70.4 33.0 70.6 33.1 70.8 33.2 71.05 33.25 71.25 33.3 71.45 33.35 71.7 33.4 71.9 33.4 72.15 33.4 72.35 33.4 72.6 33.4 72.85 33.35 73.1 33.3 73.3 33.2 73.1 33.05 72.9 32.95 72.7 32.8 72.45 32.7 72.25 32.65 72.05 32.6 71.8 32.5 71.6 32.5 71.4 32.45 71.15 32.45 70.95 32.45 70.7 32.5 70.5 32.5 70.25 32.55 70.0 32.6 69.75 32.65 L69.75 32.65 M65.1 43.45 Q65.15 43.6 65.25 43.75 65.35 43.9 65.45 44.0 65.55 44.1 65.65 44.2 65.75 44.35 65.85 44.4 66.0 44.5 66.1 44.6 66.2 44.65 66.35 44.7 66.5 44.8 66.6 44.85 66.75 44.9 66.9 44.95 67.2 45.05 67.0 45.0 67.05 45.0 67.1 45.0 67.15 45.05 67.2 45.05 67.25 45.05 67.3 45.05 67.35 45.05 67.4 45.05 67.45 45.05 67.5 45.0 67.55 45.0 67.6 44.95 67.6 44.9 67.65 44.85 67.7 44.8 67.7 44.7 67.7 44.65 67.7 44.6 67.7 44.55 67.65 44.5 67.65 44.45 67.6 44.4 67.6 44.35 67.55 44.3 67.5 44.3 67.45 44.25 67.4 44.2 67.35 44.15 67.3 44.15 67.2 44.1 67.1 44.05 66.95 43.95 66.85 43.9 66.75 43.85 66.6 43.8 66.5 43.75 66.35 43.7 66.25 43.65 66.1 43.65 65.95 43.6 65.85 43.55 65.7 43.55 65.55 43.5 65.4 43.5 65.25 43.45 65.1 43.45 L65.1 43.45 M66.5 22.6 Q66.65 22.55 66.85 22.55 67.0 22.5 67.15 22.5 67.2 22.5 67.5 22.5 67.65 22.5 67.75 22.45 67.95 22.45 68.05 22.45 68.2 22.4 68.3 22.35 68.45 22.3 68.55 22.2 68.7 22.15 68.8 22.0 68.8 22.0 68.8 21.95 68.8 21.95 68.8 21.9 68.8 21.85 68.75 21.8 68.75 21.75 68.7 21.75 68.7 21.7 68.65 21.7 68.5 21.65 68.35 21.6 68.2 21.6 68.1 21.6 67.95 21.6 67.8 21.6 67.7 21.65 67.55 21.7 67.4 21.75 67.3 21.8 67.15 21.9 67.05 22.0 66.9 22.15 66.8 22.25 66.65 22.4 66.5 22.6 L66.5 22.6" fill="#050505" fill-rule="evenodd" stroke="none"/>
    <path d="M-50.5 13.55 Q-50.95 13.5 -51.35 13.45 -51.8 13.4 -52.2 13.3 -52.65 13.25 -53.05 13.15 -53.5 13.1 -53.9 13.0 -54.35 12.9 -54.75 12.8 -55.15 12.65 -55.55 12.55 -56.0 12.4 -56.4 12.25 -56.8 12.1 -57.2 11.9 -57.5 11.8 -57.7 11.55 -57.95 11.3 -58.1 11.0 -58.3 10.7 -58.4 10.35 -58.5 9.95 -58.55 9.6 -58.6 9.2 -58.55 8.8 -58.55 8.45 -58.45 8.1 -58.35 7.75 -58.2 7.45 -58.0 7.15 -57.8 6.95 -57.75 6.9 -57.7 6.85 -57.65 6.85 -57.6 6.8 -57.55 6.8 -57.5 6.8 -57.45 6.8 -57.4 6.8 -57.35 6.8 -57.3 6.8 -57.25 6.85 -57.2 6.85 -57.2 6.85 -57.15 6.9 -57.1 6.9 -57.05 6.95 -56.05 7.5 -55.0 8.0 -53.95 8.4 -52.85 8.75 -51.8 9.1 -50.7 9.35 -49.65 9.6 -48.5 9.75 -47.45 9.9 -46.25 10.0 -45.25 10.1 -44.05 10.2 -43.1 10.25 -41.8 10.3 -43.45 10.25 -39.5 10.4 -38.9 10.4 -38.3 10.4 -37.7 10.4 -37.1 10.4 -36.5 10.35 -35.9 10.3 -35.35 10.25 -34.75 10.2 -34.15 10.1 -33.55 10.0 -32.95 9.9 -32.4 9.8 -31.8 9.7 -31.2 9.55 -30.65 9.4 -30.05 9.2 -29.8 9.15 -29.6 9.1 -29.4 9.05 -29.25 9.05 -29.1 9.05 -29.0 9.05 -28.9 9.1 -28.8 9.15 -28.75 9.2 -28.7 9.35 -28.65 9.45 -28.6 9.6 -28.6 9.75 -28.6 9.95 -28.6 10.15 -28.65 10.45 -28.65 10.8 -28.75 11.05 -28.8 11.35 -28.9 11.65 -29.0 11.9 -29.15 12.15 -29.3 12.35 -29.45 12.55 -29.65 12.8 -29.9 12.95 -30.1 13.15 -30.4 13.3 -30.65 13.5 -30.95 13.6 -31.3 13.75 -31.65 13.9 -31.95 14.0 -32.3 14.1 -32.6 14.15 -32.95 14.2 -33.25 14.25 -33.6 14.25 -33.9 14.3 -34.25 14.3 -34.55 14.3 -34.9 14.3 -35.15 14.3 -35.55 14.3 -35.75 14.3 -36.2 14.25 -36.6 14.25 -36.85 14.25 -61.8 13.4 -43.65 14.05 -47.65 13.9 -50.5 13.55 L-50.5 13.55" fill="#000000" fill-opacity="0.27058825" fill-rule="evenodd" stroke="none"/>
    <path d="M33.9 -25.95 Q33.9 -25.85 33.9 -25.75 33.9 -25.65 33.9 -25.55 33.85 -25.45 33.8 -25.4 33.75 -25.35 33.7 -25.3 33.65 -25.25 33.6 -25.2 33.5 -25.15 33.45 -25.1 33.35 -25.05 33.25 -25.05 33.2 -25.05 33.1 -25.0 32.65 -24.95 30.3 -24.6 28.6 -24.35 27.5 -24.15 27.35 -24.15 27.25 -24.15 27.15 -24.15 27.05 -24.2 27.0 -24.2 26.9 -24.25 26.85 -24.3 26.8 -24.35 26.7 -24.45 26.7 -24.5 26.65 -24.6 26.6 -24.65 26.55 -24.75 26.55 -24.85 26.5 -24.95 26.5 -25.05 26.4 -25.6 25.95 -28.3 25.65 -30.3 25.4 -31.55 25.4 -31.65 25.4 -31.75 25.4 -31.8 25.4 -31.9 25.4 -31.95 25.45 -32.0 25.45 -32.05 25.5 -32.1 25.55 -32.15 25.6 -32.2 25.65 -32.2 25.7 -32.25 25.75 -32.25 25.8 -32.3 25.85 -32.3 25.95 -32.3 26.3 -32.4 26.65 -32.5 27.0 -32.6 27.35 -32.7 27.75 -32.8 28.1 -32.85 28.45 -32.95 28.8 -33.0 29.15 -33.1 29.55 -33.15 29.9 -33.2 30.25 -33.25 30.65 -33.25 31.0 -33.3 31.35 -33.35 31.75 -33.35 31.9 -33.35 32.0 -33.35 32.1 -33.35 32.2 -33.3 32.3 -33.3 32.4 -33.2 32.45 -33.15 32.55 -33.1 32.6 -33.05 32.65 -32.95 32.7 -32.9 32.75 -32.8 32.8 -32.7 32.85 -32.6 32.9 -32.55 32.95 -32.4 33.15 -32.0 33.3 -31.65 33.45 -31.25 33.55 -30.85 33.65 -30.45 33.75 -30.05 33.85 -29.65 33.9 -29.25 33.95 -28.85 33.95 -28.45 34.0 -28.05 34.0 -27.6 34.0 -27.2 33.95 -26.8 33.95 -26.4 33.9 -25.95 L33.9 -25.95" fill="#000000" fill-opacity="0.27058825" fill-rule="evenodd" stroke="none"/>
    <path d="M-8.0 -23.5 Q-8.0 -23.35 -8.0 -23.25 -8.0 -23.1 -8.05 -23.0 -8.05 -22.9 -8.1 -22.8 -8.15 -22.7 -8.25 -22.65 -8.3 -22.6 -8.4 -22.55 -8.45 -22.5 -8.55 -22.45 -8.7 -22.4 -8.8 -22.35 -8.9 -22.35 -9.05 -22.3 -11.8 -21.95 -14.35 -21.55 -14.45 -21.55 -14.6 -21.5 -14.7 -21.5 -14.75 -21.55 -14.85 -21.55 -14.95 -21.6 -15.0 -21.6 -15.05 -21.65 -15.15 -21.7 -15.2 -21.8 -15.25 -21.85 -15.25 -21.95 -15.3 -22.0 -15.35 -22.1 -15.4 -22.2 -15.4 -22.3 -15.75 -23.6 -16.05 -25.65 -16.5 -28.8 -16.55 -29.0 -16.55 -29.1 -16.55 -29.2 -16.55 -29.25 -16.55 -29.35 -16.5 -29.4 -16.5 -29.45 -16.45 -29.5 -16.4 -29.5 -16.35 -29.55 -16.3 -29.6 -16.25 -29.6 -16.15 -29.6 -16.15 -29.65 -16.05 -29.65 -15.95 -29.65 -15.95 -29.7 -15.6 -29.8 -15.25 -29.9 -14.9 -30.0 -14.55 -30.1 -14.2 -30.15 -13.85 -30.25 -13.5 -30.3 -13.15 -30.35 -12.8 -30.4 -12.4 -30.5 -12.05 -30.55 -11.7 -30.55 -11.35 -30.6 -11.0 -30.65 -10.65 -30.7 -10.25 -30.7 -10.1 -30.7 -10.0 -30.7 -9.9 -30.7 -9.8 -30.65 -9.7 -30.65 -9.6 -30.6 -9.55 -30.55 -9.45 -30.5 -9.4 -30.45 -9.3 -30.35 -9.25 -30.3 -9.2 -30.2 -9.15 -30.15 -9.1 -30.05 -9.05 -29.95 -9.0 -29.85 -8.85 -29.45 -8.7 -29.1 -8.55 -28.7 -8.4 -28.3 -8.3 -27.95 -8.2 -27.55 -8.15 -27.15 -8.05 -26.75 -8.0 -26.35 -8.0 -25.95 -7.95 -25.55 -7.95 -25.15 -7.95 -24.75 -7.95 -24.35 -7.95 -23.9 -8.0 -23.5 L-8.0 -23.5" fill="#000000" fill-opacity="0.27058825" fill-rule="evenodd" stroke="none"/>
    <path d="M61.55 9.65 Q61.55 9.8 61.4 10.0 61.25 10.15 61.05 10.35 60.8 10.55 60.55 10.75 60.3 10.95 60.0 11.15 59.7 11.35 59.4 11.5 59.1 11.65 58.85 11.75 58.6 11.85 58.4 11.9 58.2 11.95 58.1 11.9 58.05 11.9 58.05 11.85 58.0 11.85 58.0 11.8 56.95 8.15 56.65 7.1 56.65 7.05 56.65 7.0 56.65 6.95 56.7 6.95 56.7 6.9 56.75 6.9 56.75 6.85 56.8 6.85 56.85 6.8 56.9 6.8 56.95 6.75 57.0 6.75 57.05 6.75 57.1 6.75 57.1 6.7 57.15 6.7 57.35 6.65 57.6 6.6 57.8 6.55 58.0 6.5 58.2 6.4 58.45 6.35 58.65 6.25 58.85 6.2 59.05 6.1 59.25 6.0 59.45 5.9 59.65 5.8 59.85 5.7 60.05 5.6 60.2 5.5 60.45 5.4 60.5 5.35 60.6 5.35 60.65 5.3 60.7 5.3 60.75 5.25 60.8 5.25 60.9 5.25 60.95 5.25 61.0 5.25 61.0 5.3 61.05 5.3 61.1 5.35 61.15 5.45 61.15 5.5 61.2 5.6 61.2 5.7 61.25 6.6 61.55 9.65 L61.55 9.65" fill="#000000" fill-opacity="0.27058825" fill-rule="evenodd" stroke="none"/>
    <path d="M46.8 14.9 Q46.55 16.7 45.95 18.35 45.35 20.0 44.45 21.45 43.6 22.9 42.45 24.1 41.3 25.35 39.95 26.3 38.6 27.3 37.05 28.0 35.5 28.7 33.85 29.15 32.2 29.6 30.45 29.7 28.65 29.85 26.85 29.6 24.9 29.4 22.95 28.8 21.1 28.2 19.3 27.25 17.5 26.35 15.9 25.15 14.3 23.9 12.9 22.45 11.55 20.95 10.4 19.3 9.3 17.55 8.45 15.7 7.65 13.8 7.15 11.8 6.7 9.7 6.65 7.6 6.6 5.7 6.9 3.85 7.2 2.05 7.9 0.4 8.55 -1.25 9.5 -2.75 10.5 -4.25 11.75 -5.5 12.95 -6.75 14.45 -7.75 15.9 -8.75 17.55 -9.45 19.25 -10.15 21.05 -10.5 22.9 -10.9 24.8 -10.85 26.9 -10.85 29.05 -10.35 31.1 -9.9 33.15 -9.05 35.1 -8.15 36.95 -6.95 38.75 -5.7 40.35 -4.15 41.95 -2.55 43.2 -0.7 44.5 1.15 45.4 3.25 46.3 5.35 46.75 7.6 47.2 9.95 47.2 12.4 47.2 12.55 47.2 12.7 47.15 12.85 47.15 13.0 47.1 13.15 47.1 13.3 47.05 13.45 47.05 13.65 47.0 13.75 46.95 13.95 46.9 14.2 46.9 14.25 46.85 14.45 46.85 14.55 46.8 14.75 46.8 14.9 L46.8 14.9 M30.15 4.5 Q32.8 -4.95 33.1 -5.9 33.15 -6.1 33.2 -6.25 33.2 -6.4 33.2 -6.5 33.2 -6.65 33.15 -6.75 33.1 -6.8 33.05 -6.9 32.95 -6.95 32.9 -7.0 32.8 -7.05 32.7 -7.1 32.6 -7.15 32.5 -7.2 32.45 -7.25 32.25 -7.3 31.75 -7.45 31.3 -7.65 30.8 -7.8 30.3 -7.9 29.8 -8.05 29.3 -8.15 28.8 -8.25 28.3 -8.35 27.8 -8.4 27.3 -8.5 26.8 -8.55 26.3 -8.55 25.8 -8.6 25.3 -8.6 24.75 -8.6 24.25 -8.6 22.6 -8.55 21.0 -8.1 19.45 -7.75 18.0 -7.05 16.55 -6.35 15.3 -5.4 14.05 -4.45 13.05 -3.25 12.0 -2.1 11.2 -0.75 10.4 0.6 9.9 2.1 9.4 3.6 9.2 5.2 8.95 6.8 9.1 8.45 9.25 10.2 9.65 11.85 10.1 13.5 10.8 15.1 11.45 16.6 12.4 18.05 13.3 19.45 14.45 20.65 15.55 21.9 16.9 22.95 18.2 24.0 19.65 24.8 21.15 25.6 22.8 26.2 24.4 26.75 26.15 27.05 26.65 27.15 27.1 27.2 27.6 27.25 28.05 27.3 28.55 27.3 29.0 27.3 29.5 27.3 30.0 27.3 30.45 27.3 30.95 27.2 31.45 27.15 31.95 27.1 32.45 27.0 32.95 26.85 33.5 26.75 34.0 26.55 33.75 26.45 32.6 26.1 32.2 26.0 31.9 25.8 31.55 25.65 31.25 25.45 31.0 25.25 30.75 25.05 30.5 24.8 30.25 24.55 30.05 24.3 29.9 24.0 29.75 23.7 29.6 23.4 29.45 23.05 29.35 22.7 29.3 22.35 29.2 22.0 29.15 21.7 29.15 21.35 29.15 21.05 29.2 20.7 29.25 20.4 29.35 20.1 29.45 19.8 29.55 19.5 29.7 19.25 29.85 19.0 30.0 18.75 30.2 18.5 30.45 18.3 30.65 18.1 30.9 17.9 31.15 17.75 31.4 17.6 31.65 17.55 31.95 17.45 32.2 17.4 32.45 17.35 32.75 17.35 33.05 17.35 33.3 17.4 33.6 17.45 33.85 17.55 34.15 17.65 34.4 17.75 34.65 17.9 34.9 18.1 35.15 18.25 35.4 18.5 35.6 18.7 35.8 18.9 36.0 19.1 36.15 19.35 36.3 19.55 36.45 19.8 36.55 20.0 36.65 20.25 36.75 20.5 36.85 20.75 36.9 21.0 36.95 21.3 37.0 21.55 37.0 21.8 37.0 22.1 37.0 22.4 37.0 22.7 36.95 22.95 36.9 23.25 36.85 23.5 36.75 23.75 36.65 24.0 36.55 24.25 36.45 24.5 36.3 24.7 36.1 24.9 35.95 25.1 35.75 25.3 35.5 25.5 35.25 25.65 35.0 25.8 34.75 25.9 34.85 25.95 35.0 26.0 35.1 26.05 35.2 26.05 35.3 26.1 35.45 26.05 35.55 26.05 35.65 26.05 35.75 26.0 35.85 26.0 35.9 25.95 36.05 25.9 36.1 25.9 36.2 25.8 36.4 25.75 36.4 25.75 37.55 25.2 38.6 24.5 39.65 23.75 40.55 22.9 41.45 22.0 42.25 21.0 43.0 20.0 43.55 18.9 44.15 17.8 44.55 16.6 44.95 15.4 45.2 14.15 45.4 12.9 45.4 11.6 45.45 10.35 45.25 9.05 45.25 8.9 45.2 8.8 45.15 8.65 45.15 8.6 45.1 8.5 45.05 8.4 45.0 8.35 44.95 8.3 44.9 8.25 44.8 8.2 44.75 8.2 44.65 8.15 44.55 8.15 44.45 8.15 44.35 8.15 44.2 8.15 38.35 8.85 33.45 9.35 33.3 9.35 33.2 9.35 33.1 9.4 33.0 9.4 32.95 9.45 32.85 9.5 32.8 9.5 32.7 9.55 32.65 9.65 32.6 9.7 32.55 9.75 32.5 9.85 32.5 9.95 32.45 10.05 32.4 10.15 32.4 10.3 32.35 10.6 32.25 10.85 32.2 11.1 32.05 11.35 31.95 11.55 31.8 11.75 31.65 11.95 31.5 12.15 31.3 12.3 31.1 12.45 30.9 12.6 30.7 12.75 30.45 12.85 30.2 12.95 29.95 13.05 29.65 13.1 29.3 13.2 28.95 13.2 28.6 13.25 28.25 13.2 27.9 13.15 27.6 13.05 27.25 12.95 26.95 12.8 26.6 12.6 26.3 12.4 26.0 12.2 25.75 11.9 25.45 11.65 25.2 11.3 24.95 11.0 24.75 10.65 24.55 10.3 24.4 9.95 24.25 9.6 24.15 9.2 24.05 8.85 24.0 8.45 23.95 8.1 23.95 7.75 24.0 7.35 24.05 7.0 24.1 6.65 24.25 6.3 24.35 6.0 24.55 5.7 24.7 5.35 24.95 5.1 25.15 4.85 25.4 4.65 25.65 4.4 25.9 4.25 26.2 4.1 26.45 4.05 26.75 3.95 27.1 3.9 27.4 3.85 27.75 3.9 28.1 3.9 28.45 4.0 28.85 4.05 29.25 4.2 29.7 4.35 30.15 4.5 L30.15 4.5 M34.8 -6.1 Q33.25 -0.55 31.65 5.25 31.6 5.4 31.6 5.6 31.6 5.75 31.65 5.95 31.7 6.15 31.75 6.35 31.85 6.55 31.95 6.75 32.05 6.95 32.15 7.1 32.25 7.25 32.4 7.4 32.55 7.5 32.65 7.55 32.8 7.65 32.9 7.6 35.5 7.35 44.75 6.45 44.45 5.4 44.05 4.45 43.65 3.5 43.2 2.6 42.75 1.7 42.2 0.85 41.65 0.0 41.05 -0.8 40.4 -1.55 39.7 -2.3 39.0 -3.0 38.25 -3.65 37.45 -4.35 36.6 -4.95 35.75 -5.55 34.8 -6.1 L34.8 -6.1 M35.1 22.2 Q35.15 21.95 35.1 21.7 35.1 21.45 35.05 21.25 35.0 21.0 34.9 20.8 34.8 20.6 34.65 20.4 34.55 20.2 34.4 20.05 34.2 19.9 34.05 19.8 33.85 19.7 33.65 19.6 33.4 19.55 33.2 19.55 33.0 19.55 32.8 19.55 32.6 19.6 32.45 19.65 32.25 19.7 32.1 19.75 31.95 19.85 31.85 19.95 31.7 20.05 31.6 20.2 31.5 20.3 31.4 20.45 31.3 20.65 31.25 20.85 31.2 21.0 31.15 21.25 31.1 21.5 31.15 21.7 31.15 21.95 31.2 22.15 31.25 22.4 31.35 22.6 31.45 22.8 31.55 23.0 31.7 23.2 31.85 23.35 32.0 23.5 32.2 23.65 32.4 23.75 32.6 23.85 32.8 23.95 33.0 23.95 33.2 24.0 33.4 24.0 33.6 23.95 33.75 23.95 33.95 23.9 34.1 23.8 34.25 23.7 34.4 23.6 34.5 23.5 34.65 23.35 34.75 23.2 34.85 23.0 34.95 22.85 35.0 22.65 35.05 22.45 35.1 22.2 L35.1 22.2" fill="#050505" fill-rule="evenodd" stroke="none"/>
    <path d="M34.8 -6.1 Q35.75 -5.55 36.6 -4.95 37.45 -4.35 38.25 -3.65 39.0 -3.0 39.7 -2.3 40.4 -1.55 41.05 -0.8 41.65 0.0 42.2 0.85 42.75 1.65 43.2 2.55 43.65 3.45 44.05 4.45 44.45 5.4 44.75 6.45 43.15 6.6 38.8 7.05 35.1 7.4 32.9 7.6 32.8 7.6 32.65 7.55 32.5 7.5 32.4 7.4 32.25 7.25 32.15 7.1 32.05 6.95 31.95 6.75 31.85 6.55 31.75 6.35 31.7 6.15 31.65 5.95 31.6 5.75 31.6 5.55 31.6 5.4 31.65 5.25 32.65 1.55 34.8 -6.1 L34.8 -6.1" fill="#000000" fill-opacity="0.27058825" fill-rule="evenodd" stroke="none"/>
    <path d="M35.1 22.2 Q35.05 22.45 35.0 22.65 34.95 22.85 34.85 23.0 34.75 23.2 34.65 23.35 34.5 23.5 34.4 23.6 34.25 23.7 34.1 23.8 33.95 23.9 33.75 23.95 33.6 24.0 33.4 24.0 33.2 24.0 33.0 23.95 32.8 23.9 32.6 23.85 32.4 23.75 32.2 23.65 32.0 23.5 31.85 23.35 31.7 23.2 31.55 23.0 31.45 22.8 31.35 22.6 31.25 22.4 31.2 22.15 31.15 21.95 31.15 21.7 31.15 21.45 31.15 21.25 31.2 21.05 31.25 20.85 31.3 20.65 31.4 20.5 31.5 20.3 31.6 20.2 31.7 20.05 31.85 19.95 31.95 19.85 32.1 19.75 32.25 19.7 32.45 19.65 32.6 19.6 32.8 19.55 33.0 19.55 33.2 19.55 33.4 19.55 33.65 19.6 33.85 19.7 34.05 19.8 34.2 19.9 34.4 20.05 34.55 20.2 34.65 20.4 34.8 20.6 34.9 20.8 35.0 21.0 35.05 21.25 35.1 21.45 35.1 21.7 35.15 21.95 35.1 22.2 L35.1 22.2" fill="#000000" fill-opacity="0.27058825" fill-rule="evenodd" stroke="none"/>
    <path d="M14.55 5.45 Q15.05 5.55 15.55 5.75 16.05 5.95 16.45 6.2 16.85 6.5 17.2 6.85 17.55 7.2 17.85 7.6 18.1 8.0 18.3 8.45 18.5 8.9 18.6 9.4 18.7 9.85 18.7 10.35 18.7 10.9 18.6 11.4 18.5 11.8 18.35 12.2 18.2 12.55 17.95 12.9 17.75 13.2 17.45 13.5 17.2 13.75 16.85 13.95 16.55 14.2 16.2 14.35 15.85 14.5 15.45 14.55 15.05 14.65 14.65 14.65 14.25 14.65 13.85 14.55 13.35 14.45 12.9 14.25 12.45 14.05 12.05 13.75 11.65 13.5 11.3 13.15 10.95 12.8 10.65 12.35 10.4 11.95 10.15 11.5 9.95 11.05 9.85 10.6 9.75 10.1 9.7 9.65 9.7 9.15 9.8 8.7 9.9 8.25 10.05 7.9 10.2 7.5 10.4 7.15 10.6 6.8 10.9 6.55 11.15 6.25 11.45 6.05 11.8 5.85 12.15 5.7 12.5 5.55 12.9 5.45 13.3 5.4 13.7 5.4 14.15 5.4 14.55 5.45 L14.55 5.45 M16.6 10.6 Q16.65 10.35 16.65 10.15 16.65 9.9 16.55 9.65 16.5 9.45 16.4 9.2 16.3 9.0 16.15 8.8 16.0 8.55 15.8 8.4 15.65 8.2 15.45 8.1 15.2 7.95 15.0 7.85 14.75 7.75 14.5 7.7 14.3 7.65 14.1 7.65 13.85 7.65 13.65 7.7 13.45 7.75 13.25 7.8 13.05 7.9 12.9 8.0 12.7 8.1 12.55 8.25 12.4 8.4 12.3 8.55 12.15 8.75 12.1 8.95 12.0 9.1 11.95 9.3 11.9 9.55 11.9 9.75 11.95 10.0 12.0 10.25 12.05 10.5 12.15 10.7 12.25 10.9 12.4 11.15 12.55 11.35 12.75 11.5 12.9 11.7 13.1 11.85 13.35 11.95 13.55 12.1 13.8 12.2 14.05 12.25 14.25 12.3 14.45 12.3 14.7 12.3 14.9 12.25 15.1 12.2 15.3 12.1 15.5 12.05 15.65 11.9 15.85 11.8 16.0 11.65 16.15 11.5 16.25 11.35 16.4 11.15 16.5 11.0 16.55 10.8 16.6 10.6 L16.6 10.6" fill="#050505" fill-rule="evenodd" stroke="none"/>
    <path d="M26.15 20.85 Q26.1 21.3 25.95 21.65 25.8 22.05 25.6 22.4 25.4 22.75 25.15 23.0 24.9 23.3 24.55 23.5 24.25 23.75 23.95 23.9 23.6 24.05 23.2 24.15 22.85 24.2 22.45 24.2 22.05 24.25 21.6 24.15 21.15 24.05 20.7 23.9 20.3 23.7 19.9 23.45 19.5 23.2 19.2 22.85 18.85 22.5 18.6 22.1 18.3 21.75 18.15 21.3 17.95 20.85 17.8 20.4 17.7 19.9 17.7 19.45 17.7 18.95 17.75 18.5 17.8 18.05 17.95 17.65 18.1 17.3 18.3 16.95 18.5 16.6 18.8 16.3 19.05 16.0 19.35 15.8 19.65 15.55 20.0 15.4 20.35 15.25 20.7 15.15 21.1 15.05 21.5 15.05 21.9 15.05 22.3 15.1 22.8 15.2 23.25 15.35 23.65 15.55 24.05 15.8 24.45 16.05 24.8 16.4 25.1 16.7 25.35 17.1 25.65 17.5 25.8 17.9 26.0 18.35 26.1 18.85 26.2 19.3 26.2 19.8 26.2 20.35 26.15 20.85 L26.15 20.85 M22.3 17.35 Q22.1 17.3 21.85 17.3 21.65 17.3 21.45 17.35 21.25 17.4 21.05 17.5 20.85 17.6 20.7 17.7 20.5 17.8 20.4 17.95 20.25 18.1 20.15 18.3 20.0 18.45 19.95 18.65 19.85 18.85 19.85 19.05 19.8 19.3 19.8 19.55 19.8 19.75 19.9 20.0 19.95 20.2 20.05 20.45 20.1 20.65 20.25 20.85 20.4 21.05 20.55 21.2 20.7 21.35 20.9 21.5 21.1 21.65 21.35 21.75 21.55 21.85 21.8 21.9 22.0 21.95 22.2 21.95 22.4 21.95 22.6 21.9 22.8 21.85 23.0 21.75 23.2 21.65 23.35 21.55 23.5 21.45 23.65 21.3 23.8 21.1 23.9 20.95 24.05 20.75 24.1 20.55 24.2 20.35 24.2 20.15 24.25 19.9 24.25 19.65 24.25 19.45 24.2 19.2 24.15 19.0 24.05 18.75 23.95 18.55 23.8 18.35 23.7 18.15 23.5 18.0 23.35 17.85 23.15 17.7 22.95 17.6 22.75 17.5 22.5 17.4 22.3 17.35 L22.3 17.35" fill="#050505" fill-rule="evenodd" stroke="none"/>
    <path d="M17.25 4.6 Q16.75 4.5 16.3 4.3 15.85 4.15 15.4 3.85 15.0 3.6 14.65 3.25 14.3 2.9 14.0 2.5 13.7 2.15 13.5 1.7 13.3 1.25 13.2 0.8 13.05 0.35 13.05 -0.1 13.0 -0.6 13.1 -1.05 13.15 -1.45 13.3 -1.8 13.45 -2.15 13.65 -2.5 13.85 -2.8 14.1 -3.05 14.35 -3.3 14.65 -3.5 14.95 -3.7 15.3 -3.85 15.65 -3.95 16.0 -4.05 16.4 -4.1 16.75 -4.1 17.2 -4.1 17.6 -4.0 18.1 -3.9 18.55 -3.7 19.0 -3.55 19.45 -3.25 19.85 -3.0 20.2 -2.65 20.5 -2.3 20.8 -1.9 21.05 -1.5 21.25 -1.05 21.45 -0.6 21.55 -0.15 21.65 0.35 21.65 0.85 21.65 1.35 21.55 1.85 21.45 2.25 21.35 2.6 21.2 2.9 21.0 3.2 20.8 3.5 20.55 3.75 20.35 4.0 20.05 4.15 19.75 4.35 19.45 4.45 19.1 4.6 18.75 4.65 18.4 4.7 18.0 4.7 17.65 4.7 17.25 4.6 L17.25 4.6 M19.65 0.85 Q19.7 0.6 19.65 0.35 19.6 0.15 19.55 -0.1 19.45 -0.35 19.35 -0.55 19.25 -0.8 19.05 -1.0 18.9 -1.2 18.75 -1.35 18.55 -1.5 18.35 -1.65 18.1 -1.8 17.9 -1.85 17.65 -1.95 17.45 -1.95 17.25 -2.0 17.05 -1.95 16.85 -1.95 16.65 -1.9 16.5 -1.85 16.3 -1.75 16.15 -1.7 16.0 -1.55 15.85 -1.45 15.7 -1.3 15.55 -1.15 15.45 -1.0 15.35 -0.85 15.3 -0.65 15.25 -0.45 15.2 -0.25 15.15 0.0 15.2 0.2 15.25 0.45 15.3 0.7 15.4 0.9 15.5 1.1 15.65 1.35 15.8 1.55 15.95 1.75 16.15 1.9 16.3 2.05 16.55 2.2 16.75 2.3 16.95 2.4 17.2 2.5 17.45 2.55 17.65 2.55 17.85 2.55 18.0 2.55 18.2 2.5 18.4 2.45 18.55 2.35 18.7 2.25 18.85 2.15 19.0 2.0 19.15 1.9 19.25 1.75 19.35 1.55 19.45 1.4 19.55 1.2 19.6 1.05 19.65 0.85 L19.65 0.85" fill="#050505" fill-rule="evenodd" stroke="none"/>
    <path d="M22.0 -5.0 Q22.05 -5.35 22.15 -5.7 22.25 -6.05 22.45 -6.35 22.6 -6.6 22.8 -6.85 23.0 -7.1 23.25 -7.3 23.5 -7.45 23.8 -7.6 24.05 -7.7 24.4 -7.8 24.7 -7.85 25.05 -7.9 25.4 -7.9 25.75 -7.85 26.2 -7.8 26.65 -7.6 27.1 -7.45 27.5 -7.2 27.9 -6.95 28.25 -6.6 28.6 -6.25 28.9 -5.9 29.15 -5.5 29.4 -5.1 29.6 -4.65 29.75 -4.2 29.85 -3.75 29.9 -3.3 29.95 -2.8 29.85 -2.35 29.8 -2.0 29.7 -1.65 29.6 -1.35 29.4 -1.05 29.25 -0.75 29.05 -0.5 28.85 -0.25 28.6 -0.05 28.35 0.1 28.05 0.25 27.75 0.4 27.45 0.45 27.1 0.55 26.75 0.55 26.4 0.6 26.05 0.55 25.6 0.5 25.15 0.3 24.75 0.15 24.35 -0.15 23.95 -0.4 23.6 -0.7 23.25 -1.05 22.95 -1.45 22.65 -1.85 22.45 -2.25 22.25 -2.7 22.1 -3.15 22.0 -3.6 21.95 -4.05 21.9 -4.55 22.0 -5.0 L22.0 -5.0 M28.0 -3.05 Q28.05 -3.3 28.0 -3.5 28.0 -3.75 27.95 -3.95 27.85 -4.2 27.75 -4.4 27.65 -4.6 27.5 -4.8 27.35 -5.0 27.2 -5.15 27.0 -5.3 26.8 -5.45 26.6 -5.55 26.35 -5.65 26.15 -5.75 25.9 -5.75 25.7 -5.8 25.5 -5.8 25.3 -5.8 25.15 -5.75 25.0 -5.7 24.85 -5.65 24.7 -5.6 24.55 -5.5 24.45 -5.4 24.35 -5.3 24.25 -5.15 24.15 -5.0 24.05 -4.85 24.0 -4.7 23.95 -4.5 23.9 -4.3 23.85 -4.1 23.9 -3.85 23.9 -3.65 23.95 -3.4 24.05 -3.15 24.15 -2.95 24.25 -2.75 24.4 -2.55 24.55 -2.35 24.75 -2.2 24.9 -2.0 25.1 -1.9 25.3 -1.75 25.55 -1.7 25.75 -1.6 26.0 -1.6 26.2 -1.6 26.35 -1.6 26.55 -1.6 26.7 -1.6 26.9 -1.65 27.05 -1.7 27.2 -1.75 27.3 -1.85 27.45 -1.95 27.55 -2.05 27.65 -2.2 27.75 -2.35 27.85 -2.5 27.9 -2.65 27.95 -2.85 28.0 -3.05 L28.0 -3.05" fill="#050505" fill-rule="evenodd" stroke="none"/>
    <path d="M43.85 15.85 Q43.8 16.25 43.65 16.55 43.55 16.9 43.4 17.2 43.25 17.5 43.05 17.75 42.85 18.0 42.6 18.15 42.35 18.35 42.1 18.5 41.8 18.65 41.5 18.7 41.2 18.8 40.9 18.8 40.6 18.8 40.25 18.75 39.85 18.7 39.45 18.5 39.05 18.35 38.7 18.1 38.35 17.85 38.05 17.5 37.75 17.2 37.5 16.8 37.25 16.45 37.1 16.0 36.9 15.6 36.8 15.15 36.7 14.7 36.7 14.2 36.7 13.75 36.75 13.3 36.8 12.95 36.9 12.6 37.05 12.25 37.2 12.0 37.35 11.7 37.55 11.45 37.75 11.2 37.95 11.05 38.2 10.85 38.45 10.7 38.7 10.6 39.0 10.5 39.3 10.4 39.6 10.4 39.95 10.4 40.25 10.45 40.7 10.5 41.1 10.7 41.5 10.85 41.85 11.1 42.2 11.3 42.5 11.65 42.8 11.95 43.05 12.35 43.3 12.7 43.5 13.1 43.65 13.55 43.75 14.0 43.9 14.45 43.9 14.9 43.9 15.35 43.85 15.85 L43.85 15.85 M42.15 15.35 Q42.2 15.1 42.2 14.85 42.2 14.6 42.15 14.35 42.1 14.15 42.0 13.9 41.95 13.7 41.8 13.5 41.7 13.35 41.55 13.15 41.4 13.0 41.2 12.9 41.05 12.75 40.85 12.7 40.65 12.6 40.45 12.55 40.25 12.5 40.1 12.5 39.9 12.5 39.75 12.55 39.55 12.6 39.4 12.65 39.25 12.75 39.1 12.85 38.95 12.95 38.85 13.05 38.75 13.2 38.65 13.3 38.55 13.45 38.5 13.65 38.45 13.8 38.4 14.0 38.35 14.2 38.4 14.45 38.4 14.65 38.45 14.85 38.5 15.05 38.6 15.25 38.7 15.45 38.85 15.65 38.95 15.8 39.1 16.0 39.25 16.15 39.45 16.25 39.6 16.4 39.8 16.45 40.0 16.55 40.2 16.6 40.4 16.65 40.6 16.65 40.8 16.65 40.95 16.6 41.15 16.6 41.25 16.5 41.4 16.45 41.55 16.35 41.65 16.3 41.75 16.15 41.85 16.05 41.9 15.95 42.0 15.8 42.05 15.65 42.1 15.5 42.15 15.35 L42.15 15.35" fill="#050505" fill-rule="evenodd" stroke="none"/>
    <path d="M16.6 10.6 Q16.55 10.8 16.45 11.0 16.4 11.2 16.25 11.35 16.15 11.5 16.0 11.65 15.85 11.8 15.65 11.9 15.5 12.05 15.3 12.1 15.1 12.2 14.9 12.25 14.65 12.3 14.45 12.3 14.25 12.3 14.05 12.25 13.8 12.2 13.55 12.1 13.35 12.0 13.1 11.85 12.9 11.7 12.75 11.5 12.55 11.35 12.4 11.15 12.25 10.95 12.15 10.7 12.05 10.5 12.0 10.25 11.95 10.0 11.95 9.8 11.9 9.55 11.95 9.3 12.0 9.1 12.1 8.9 12.15 8.75 12.3 8.55 12.4 8.4 12.55 8.25 12.7 8.1 12.9 8.0 13.05 7.9 13.25 7.8 13.45 7.75 13.65 7.7 13.9 7.65 14.1 7.65 14.3 7.65 14.5 7.7 14.75 7.75 15.0 7.85 15.2 7.95 15.4 8.1 15.65 8.2 15.8 8.4 16.0 8.55 16.15 8.8 16.3 9.0 16.4 9.2 16.5 9.4 16.55 9.65 16.65 9.9 16.65 10.1 16.65 10.35 16.6 10.6 L16.6 10.6" fill="#000000" fill-opacity="0.27058825" fill-rule="evenodd" stroke="none"/>
    <path d="M22.3 17.35 Q22.55 17.4 22.75 17.5 22.95 17.6 23.15 17.7 23.35 17.85 23.5 18.0 23.7 18.15 23.8 18.35 23.95 18.55 24.05 18.75 24.15 19.0 24.2 19.2 24.25 19.45 24.25 19.65 24.25 19.9 24.2 20.15 24.15 20.35 24.1 20.55 24.0 20.75 23.9 20.95 23.8 21.1 23.65 21.3 23.5 21.4 23.35 21.55 23.2 21.65 23.0 21.75 22.8 21.85 22.6 21.85 22.4 21.9 22.2 21.9 22.0 21.9 21.8 21.9 21.55 21.85 21.35 21.75 21.1 21.65 20.9 21.5 20.75 21.4 20.55 21.2 20.4 21.05 20.25 20.85 20.1 20.65 20.05 20.45 19.95 20.2 19.85 20.0 19.8 19.75 19.8 19.55 19.8 19.3 19.85 19.05 19.9 18.85 19.95 18.65 20.05 18.45 20.15 18.25 20.25 18.1 20.4 17.95 20.5 17.8 20.7 17.7 20.85 17.6 21.05 17.5 21.25 17.4 21.45 17.4 21.65 17.35 21.85 17.35 22.05 17.35 22.3 17.35 L22.3 17.35" fill="#000000" fill-opacity="0.27058825" fill-rule="evenodd" stroke="none"/>
    <path d="M19.65 0.85 Q19.6 1.05 19.55 1.25 19.5 1.4 19.4 1.55 19.3 1.75 19.15 1.9 19.0 2.0 18.85 2.15 18.7 2.25 18.55 2.35 18.4 2.4 18.2 2.5 18.0 2.55 17.85 2.55 17.65 2.55 17.45 2.55 17.2 2.5 16.95 2.4 16.75 2.35 16.55 2.2 16.3 2.05 16.15 1.9 15.95 1.75 15.8 1.55 15.65 1.35 15.5 1.1 15.4 0.9 15.3 0.65 15.25 0.45 15.2 0.2 15.2 -0.05 15.2 -0.25 15.25 -0.45 15.3 -0.65 15.35 -0.8 15.45 -1.0 15.55 -1.15 15.7 -1.3 15.8 -1.45 15.95 -1.55 16.15 -1.7 16.3 -1.75 16.45 -1.85 16.65 -1.9 16.85 -1.95 17.05 -2.0 17.25 -2.0 17.45 -1.95 17.7 -1.95 17.9 -1.85 18.15 -1.75 18.35 -1.65 18.55 -1.5 18.75 -1.35 18.9 -1.2 19.05 -1.0 19.25 -0.8 19.35 -0.55 19.45 -0.35 19.55 -0.1 19.6 0.15 19.65 0.35 19.65 0.6 19.65 0.85 L19.65 0.85" fill="#000000" fill-opacity="0.27058825" fill-rule="evenodd" stroke="none"/>
    <path d="M28.0 -3.05 Q27.95 -2.85 27.9 -2.65 27.85 -2.45 27.75 -2.3 27.65 -2.2 27.55 -2.05 27.45 -1.95 27.3 -1.85 27.2 -1.75 27.05 -1.7 26.9 -1.65 26.7 -1.6 26.55 -1.6 26.35 -1.55 26.2 -1.55 26.0 -1.6 25.75 -1.6 25.55 -1.7 25.35 -1.75 25.1 -1.9 24.9 -2.0 24.75 -2.2 24.55 -2.35 24.4 -2.55 24.25 -2.75 24.15 -2.95 24.05 -3.2 23.95 -3.4 23.9 -3.65 23.9 -3.85 23.85 -4.1 23.9 -4.3 23.95 -4.5 24.0 -4.7 24.05 -4.85 24.15 -5.0 24.25 -5.15 24.35 -5.3 24.45 -5.4 24.55 -5.5 24.7 -5.6 24.85 -5.65 25.0 -5.75 25.15 -5.75 25.3 -5.8 25.5 -5.8 25.7 -5.8 25.9 -5.75 26.15 -5.7 26.35 -5.65 26.6 -5.55 26.8 -5.45 27.0 -5.3 27.15 -5.15 27.35 -5.0 27.5 -4.8 27.65 -4.6 27.75 -4.4 27.85 -4.2 27.9 -4.0 28.0 -3.75 28.0 -3.5 28.0 -3.3 28.0 -3.05 L28.0 -3.05" fill="#000000" fill-opacity="0.27058825" fill-rule="evenodd" stroke="none"/>
    <path d="M42.15 15.35 Q42.1 15.5 42.05 15.65 42.0 15.8 41.9 15.95 41.85 16.05 41.75 16.15 41.65 16.3 41.55 16.35 41.4 16.45 41.25 16.5 41.15 16.6 40.95 16.6 40.8 16.65 40.6 16.65 40.4 16.65 40.2 16.6 40.0 16.55 39.8 16.45 39.6 16.4 39.45 16.25 39.25 16.15 39.1 16.0 38.95 15.8 38.85 15.65 38.7 15.45 38.6 15.25 38.5 15.05 38.45 14.85 38.4 14.65 38.4 14.4 38.4 14.2 38.4 14.0 38.45 13.8 38.5 13.65 38.55 13.5 38.65 13.35 38.75 13.2 38.85 13.05 38.95 12.95 39.1 12.85 39.25 12.75 39.4 12.65 39.55 12.6 39.7 12.55 39.9 12.55 40.05 12.55 40.25 12.5 40.45 12.55 40.65 12.6 40.85 12.7 41.05 12.75 41.25 12.9 41.4 13.0 41.55 13.15 41.7 13.35 41.8 13.5 41.95 13.7 42.0 13.9 42.1 14.15 42.15 14.35 42.2 14.6 42.2 14.85 42.2 15.1 42.15 15.35 L42.15 15.35" fill="#000000" fill-opacity="0.27058825" fill-rule="evenodd" stroke="none"/>
  </g>
</svg>
