<?xml version="1.0" encoding="UTF-8" standalone="no"?>
<svg xmlns:xlink="http://www.w3.org/1999/xlink" height="200.0px" width="300.0px" xmlns="http://www.w3.org/2000/svg">
  <g transform="matrix(1.0, 0.0, 0.0, 1.0, 150.0, 100.0)">
    <path d="M81.05 -4.85 Q81.05 -5.25 81.1 -5.7 81.15 -6.25 81.15 -6.85 81.2 -7.55 81.2 -8.3 81.25 -9.2 81.3 -10.1 81.3 -11.1 81.35 -12.1 81.35 -13.25 81.35 -14.4 81.4 -15.6 81.4 -16.9 81.4 -18.25 81.4 -19.55 81.35 -23.2 81.25 -26.45 L43.4 -39.8 Q3.55 -32.95 -73.35 -19.75 -73.5 -15.0 -73.8 -5.5 -76.15 -2.3 -80.85 4.0 -81.0 5.65 -81.1 7.3 -81.2 9.0 -81.25 10.7 -81.35 12.45 -81.4 14.2 -81.45 16.0 -81.5 17.8 -81.5 19.65 -81.5 21.45 -81.5 23.35 -81.45 25.2 -81.4 27.15 -81.35 29.05 -81.25 31.0 -81.15 32.95 -81.1 33.9 -81.05 34.9 -80.95 35.85 -80.9 36.8 -80.85 37.75 -80.75 38.7 -80.65 39.65 -80.6 40.6 -80.5 41.5 -80.4 42.45 -80.3 43.35 -80.2 44.25 -80.1 45.15 -80.0 46.05 -79.9 46.95 -79.8 47.85 L-73.65 57.8 Q-73.45 60.3 -72.9 68.35 -72.25 69.05 -70.9 70.5 -70.25 73.25 -69.05 78.6 -57.6 84.75 -34.75 97.0 2.05 86.4 76.5 65.0 76.6 64.6 77.0 62.85 77.35 61.55 77.55 60.7 77.6 60.4 77.7 60.1 77.75 59.8 77.85 59.5 77.9 59.2 77.95 58.9 78.05 58.6 78.1 58.3 78.15 58.0 78.25 57.7 78.3 57.4 78.35 57.1 78.45 56.85 78.5 56.55 78.55 56.25 78.6 55.95 79.55 55.45 81.4 54.4 81.4 53.25 81.4 50.35 81.4 46.05 81.4 44.6 81.35 31.0 81.0 12.55 80.75 1.5 81.05 -4.85 L81.05 -4.85 M51.0 49.95 Q50.95 50.7 50.9 51.3 50.85 52.05 50.75 52.7 50.65 53.45 50.5 54.1 50.35 54.8 50.15 55.4 49.9 56.05 49.6 56.65 49.3 57.3 48.9 57.85 48.5 58.4 48.05 58.85 47.55 59.35 46.95 59.75 46.8 59.85 46.6 59.95 46.45 60.05 46.25 60.15 46.1 60.25 45.9 60.3 45.7 60.4 45.5 60.5 45.35 60.55 45.15 60.6 45.0 60.7 44.75 60.75 44.65 60.8 44.4 60.9 44.15 60.95 44.0 61.0 43.8 61.05 43.65 61.15 43.45 61.2 43.25 61.25 43.05 61.3 42.85 61.4 42.7 61.45 42.5 61.5 42.3 61.55 42.1 61.6 41.9 61.65 41.7 61.7 41.55 61.75 41.35 61.85 41.15 61.9 40.95 61.95 38.6 62.55 34.6 63.3 29.6 64.25 28.2 64.6 26.1 65.05 21.7 66.4 18.85 67.25 7.7 70.75 -0.55 73.35 -6.25 74.95 -7.95 75.45 -9.75 75.9 -12.4 76.6 -12.75 76.65 -12.8 76.75 -12.9 76.85 -12.95 76.95 -13.05 77.0 -13.1 77.1 -13.2 77.2 -13.3 77.25 -13.35 77.35 -13.45 77.4 -13.55 77.45 -13.65 77.55 -13.75 77.6 -13.85 77.65 -13.95 77.65 -14.05 77.7 -14.2 77.75 -14.55 77.85 -14.95 77.95 -15.3 78.0 -15.75 78.1 -16.05 78.15 -16.5 78.2 -20.85 78.9 -17.3 78.35 -17.75 78.4 -18.1 78.45 -18.5 78.55 -18.85 78.6 -19.3 78.7 -19.65 78.8 -20.05 78.95 -20.4 79.05 -20.45 79.1 -20.55 79.1 -20.6 79.15 -20.65 79.2 -20.75 79.2 -20.8 79.25 -20.9 79.25 -20.95 79.3 -21.05 79.3 -21.1 79.3 -21.2 79.35 -21.25 79.35 -21.35 79.35 -21.4 79.35 -21.5 79.35 -21.55 79.35 -21.8 79.35 -22.2 79.25 -22.25 79.25 -22.3 79.25 -22.35 79.25 -22.35 79.2 -22.4 79.2 -22.45 79.2 -22.5 79.2 -22.55 79.15 -22.55 79.15 -22.6 79.15 -22.65 79.1 -22.7 79.1 -22.7 79.1 -22.75 79.05 -22.8 79.05 -22.85 79.0 -23.0 79.1 -23.2 79.2 -23.4 79.3 -23.6 79.35 -23.75 79.45 -23.95 79.45 -24.2 79.5 -24.4 79.55 -24.6 79.55 -24.8 79.55 -25.0 79.5 -25.2 79.5 -25.4 79.45 -25.6 79.35 -25.8 79.3 -25.95 79.2 -26.1 79.1 -26.3 79.0 -26.45 78.85 -26.55 78.75 -26.7 78.6 -26.85 78.45 -26.95 78.35 -27.05 78.2 -27.15 78.05 -27.25 77.85 -27.35 77.7 -27.4 77.55 -27.5 77.4 -27.6 77.2 -27.65 77.05 -27.7 76.85 -27.8 76.55 -27.9 76.2 -28.0 75.85 -28.05 75.55 -28.1 75.2 -28.15 74.85 -28.2 74.55 -28.2 74.2 -28.2 73.85 -28.2 73.5 -28.2 73.2 -28.15 72.85 -28.1 72.5 -28.1 72.15 -28.05 71.85 -28.0 71.5 -27.75 70.0 -27.05 67.55 -27.05 67.5 -27.05 67.5 -27.05 67.45 -27.05 67.4 -27.05 67.35 -27.05 67.35 -27.05 67.3 -27.05 67.25 -27.05 67.2 -27.05 67.2 -27.0 67.15 -27.0 67.1 -27.0 67.05 -27.0 67.05 -27.0 67.0 -26.95 66.95 -26.95 66.8 -26.85 65.95 -26.8 65.25 -26.75 64.55 -26.7 63.85 -26.7 63.15 -26.65 62.45 -26.65 61.75 -26.65 61.05 -26.65 60.3 -26.65 59.65 -26.7 58.9 -26.7 58.25 -26.75 57.5 -26.8 56.85 -26.8 56.1 -26.85 55.45 -26.9 54.7 -27.4 47.25 -27.55 43.3 -27.7 39.6 -27.75 36.9 -27.8 36.6 -27.85 36.25 -27.9 35.95 -27.9 35.65 -27.95 35.3 -27.95 35.0 -28.0 34.7 -28.05 34.35 -28.05 34.05 -28.05 33.7 -28.1 33.4 -28.1 33.1 -28.1 32.75 -28.1 32.45 -28.15 32.15 -28.15 31.8 -28.15 31.4 -28.15 31.0 -28.15 30.6 -28.15 30.2 -28.15 29.85 -28.15 29.45 -28.1 29.05 -28.1 28.65 -28.1 28.25 -28.1 27.85 -28.05 27.45 -28.05 27.05 -28.0 26.65 -28.0 26.25 -27.95 25.9 -27.95 25.45 -27.95 22.05 -27.9 19.4 -27.75 13.0 -27.35 7.55 -27.35 7.45 -27.35 7.3 -27.3 7.2 -27.3 7.1 -27.3 7.0 -27.25 6.9 -27.2 6.8 -27.2 6.7 -27.15 6.6 -27.1 6.5 -27.05 6.4 -27.0 6.3 -26.95 6.2 -26.9 6.1 -26.8 6.0 -26.75 5.95 -26.75 5.9 -26.75 5.85 -26.75 5.75 -26.75 5.6 -26.75 5.5 -26.7 5.4 -26.7 5.25 -26.65 5.15 -26.6 5.05 -26.55 4.95 -26.5 4.8 -26.45 4.7 -26.4 4.6 -26.35 4.5 -26.25 4.4 -26.2 4.3 -26.1 4.2 -26.05 4.15 -26.0 4.1 -25.9 4.0 -25.8 3.95 -25.75 3.9 -25.65 3.85 -25.6 3.8 -25.5 3.75 -25.45 3.7 -25.35 3.65 -25.25 3.65 -25.2 3.6 -25.1 3.6 -25.0 3.55 -24.9 3.55 -24.85 3.5 -24.75 3.5 -24.6 3.3 -24.5 3.2 -24.4 3.1 -24.35 3.05 -24.25 3.0 -24.15 2.9 -24.05 2.85 -23.95 2.8 -23.85 2.75 -23.7 2.7 -23.6 2.65 -23.5 2.6 -23.4 2.6 -23.25 2.55 -23.15 2.55 -23.05 2.5 -22.9 2.5 -22.8 2.5 -22.7 2.5 -22.6 2.5 -22.5 2.5 -22.4 2.5 -22.3 2.5 -22.2 2.5 -22.1 2.5 -22.0 2.5 -21.95 2.5 -21.85 2.5 -21.75 2.5 -21.65 2.5 -21.55 2.5 -21.45 2.45 -21.35 2.45 -21.25 2.45 -21.25 2.4 -21.2 2.35 -21.2 2.3 -21.2 2.3 -21.15 2.25 -21.15 2.2 -21.1 2.15 -21.1 2.1 -21.1 2.05 -21.05 2.05 -21.0 1.95 -20.9 1.85 -20.85 1.75 -20.75 1.65 -20.7 1.55 -20.6 1.5 -20.55 1.4 -20.45 1.35 -20.35 1.25 -20.25 1.2 -20.15 1.15 -20.05 1.1 -19.95 1.05 -19.85 1.0 -19.7 0.95 -19.6 0.9 -19.3 0.8 -19.0 0.7 -18.7 0.6 -18.4 0.55 -18.1 0.45 -17.8 0.35 -17.45 0.3 -17.2 0.2 -16.85 0.15 -16.55 0.1 -16.25 0.05 -15.95 0.0 -15.6 -0.05 -15.3 -0.05 -15.0 -0.1 -14.65 -0.1 -14.55 -0.1 -14.45 -0.1 -14.35 -0.1 -14.25 -0.05 -14.15 -0.05 -14.05 0.0 -13.95 0.0 -13.85 0.05 -13.75 0.1 -13.65 0.15 -13.55 0.2 -13.5 0.25 -13.4 0.3 -13.3 0.35 -13.25 0.4 -13.15 0.45 -13.05 0.4 -13.0 0.35 -12.9 0.25 -12.8 0.2 -12.7 0.15 -12.6 0.15 -12.5 0.1 -12.4 0.05 -12.3 0.0 -12.2 0.0 -12.1 -0.05 -12.0 -0.05 -11.9 -0.05 -11.8 -0.1 -11.7 -0.1 -11.6 -0.1 -11.5 -0.1 -11.45 -0.1 -11.35 -0.1 -11.25 -0.1 -11.15 -0.1 -11.1 -0.1 -11.0 -0.1 -10.9 -0.1 -10.8 -0.1 -10.75 -0.1 -10.65 -0.1 -10.55 -0.1 -10.45 -0.1 -10.4 -0.15 -10.3 -0.15 -10.2 -0.15 -10.15 -0.15 -10.1 -0.15 -10.0 -0.15 -9.9 -0.2 -9.75 -0.2 -9.65 -0.2 -9.55 -0.2 -9.45 -0.2 -9.35 -0.2 -9.25 -0.2 -9.15 -0.2 -9.0 -0.2 -8.9 -0.15 -8.8 -0.15 -8.7 -0.1 -8.6 -0.1 -8.5 -0.05 -8.4 0.0 -8.35 -0.05 -8.3 -0.15 -8.2 -0.2 -8.15 -0.25 -8.1 -0.3 -8.0 -0.35 -7.95 -0.4 -7.85 -0.45 -7.8 -0.5 -7.7 -0.55 -7.6 -0.6 -7.55 -0.65 -7.45 -0.7 -7.35 -0.7 -7.3 -0.75 -7.2 -0.75 -7.1 -0.8 -6.65 -0.95 -6.65 -0.95 -6.6 -0.95 -6.6 -0.95 -6.55 -1.0 -6.45 -1.05 -6.35 -1.1 -6.25 -1.15 -6.1 -1.2 -6.0 -1.25 -5.9 -1.25 -5.75 -1.3 -5.65 -1.3 -5.5 -1.3 -5.4 -1.3 -5.3 -1.3 -5.15 -1.3 -5.05 -1.3 -4.9 -1.3 -4.8 -1.25 -4.7 -1.25 -4.65 -1.25 -4.55 -1.2 -4.5 -1.2 -4.4 -1.15 -4.35 -1.15 -4.3 -1.1 -4.2 -1.05 -4.15 -1.0 -4.1 -1.0 -4.05 -0.95 -3.95 -0.9 -3.9 -0.85 -3.85 -0.8 -3.8 -0.75 -3.75 -0.75 -3.7 -0.7 -3.7 -0.7 -3.65 -0.7 -3.65 -0.75 -3.65 -0.75 -3.6 -0.8 -3.6 -0.85 -3.6 -0.85 -3.6 -0.9 -3.55 -0.9 -3.55 -0.95 -3.55 -1.0 -3.55 -1.0 -3.5 -1.05 -3.5 -1.05 -3.5 -1.1 -3.45 -1.15 -3.45 -1.15 -3.45 -1.2 -3.4 -1.3 -3.35 -1.35 -3.25 -1.45 -3.2 -1.55 -3.1 -1.65 -3.0 -1.75 -2.9 -1.8 -2.8 -1.9 -2.7 -1.95 -2.6 -2.05 -2.5 -2.1 -2.4 -2.15 -2.3 -2.2 -2.2 -2.25 -2.1 -2.3 -2.0 -2.3 -1.75 -2.35 -1.5 -2.35 -1.25 -2.4 -1.0 -2.4 -0.75 -2.45 -0.55 -2.45 -0.3 -2.5 -0.05 -2.5 0.2 -2.55 0.45 -2.55 0.7 -2.55 0.95 -2.55 1.2 -2.55 1.45 -2.6 1.65 -2.6 1.9 -2.6 3.5 -2.55 4.25 -2.55 4.4 -2.6 4.75 -2.65 6.8 -3.1 11.6 -4.15 16.0 -5.15 18.45 -5.7 19.5 -5.95 21.85 -6.55 24.0 -7.1 25.25 -7.4 27.85 -8.0 31.95 -8.65 41.3 -10.1 45.2 -11.35 45.25 -11.35 45.35 -11.4 45.4 -11.4 45.5 -11.4 45.55 -11.45 45.6 -11.45 45.7 -11.45 45.75 -11.45 45.85 -11.45 45.9 -11.45 45.95 -11.45 46.05 -11.45 46.1 -11.45 46.15 -11.4 46.25 -11.4 46.3 -11.4 46.5 -11.45 46.75 -11.45 46.95 -11.45 47.2 -11.4 47.4 -11.35 47.65 -11.25 47.85 -11.2 48.05 -11.05 48.25 -10.95 48.4 -10.8 48.55 -10.65 48.7 -10.45 48.85 -10.25 48.95 -10.05 49.05 -9.85 49.1 -9.65 49.15 -9.45 49.2 -9.2 49.25 -9.0 49.3 -8.75 49.3 -8.5 49.35 -8.3 49.4 -8.05 49.45 -7.85 49.45 -7.6 49.5 -7.4 49.5 -7.15 49.55 -6.9 49.55 -6.7 49.6 -6.45 49.6 -6.25 49.65 -6.0 49.85 -3.6 49.65 0.6 49.5 4.95 49.5 7.2 49.5 16.3 50.05 22.05 50.15 22.95 50.2 23.9 50.3 24.8 50.4 25.7 50.45 26.65 50.5 27.55 50.6 28.45 50.65 29.4 50.7 30.3 50.75 31.25 50.8 32.15 50.85 33.1 50.85 34.0 50.9 34.95 50.95 35.85 50.95 36.8 51.2 44.35 51.0 49.95 L51.0 49.95 M61.45 38.75 Q61.3 38.9 61.15 39.0 61.0 39.1 60.85 39.2 60.7 39.3 60.5 39.35 60.35 39.4 60.15 39.45 59.95 39.5 59.8 39.5 59.6 39.5 59.4 39.45 59.25 39.45 59.05 39.4 58.9 39.3 58.7 39.25 58.35 39.05 58.15 38.8 58.0 38.55 57.9 38.2 57.85 37.9 57.9 37.6 57.95 37.25 58.05 36.95 58.2 36.6 58.4 36.3 58.55 36.0 58.8 35.7 59.0 35.45 59.25 35.2 59.5 35.0 59.75 34.85 59.8 34.8 59.85 34.8 59.9 34.75 60.0 34.75 60.05 34.7 60.1 34.7 60.15 34.7 60.2 34.7 60.3 34.7 60.35 34.7 60.4 34.7 60.45 34.7 60.5 34.7 60.6 34.75 60.65 34.75 60.7 34.8 60.75 34.8 60.85 34.8 60.9 34.8 61.0 34.8 61.05 34.85 61.1 34.85 61.2 34.85 61.25 34.9 61.3 34.9 61.4 34.95 61.45 35.0 61.5 35.05 61.55 35.05 61.65 35.1 61.7 35.15 61.75 35.2 61.8 35.25 61.9 35.35 61.95 35.4 62.0 35.5 62.05 35.55 62.1 35.65 62.15 35.75 62.15 35.8 62.2 35.9 62.2 36.0 62.25 36.1 62.25 36.15 62.3 36.25 62.3 36.35 62.3 36.45 62.3 36.55 62.3 36.7 62.3 36.85 62.3 37.0 62.25 37.15 62.2 37.3 62.2 37.45 62.15 37.6 62.1 37.75 62.0 37.85 61.95 38.0 61.9 38.15 61.8 38.25 61.7 38.4 61.6 38.5 61.55 38.65 61.45 38.75 L61.45 38.75 M71.0 36.55 Q70.9 36.7 70.75 36.85 70.65 36.95 70.5 37.05 70.35 37.15 70.2 37.2 70.05 37.25 69.9 37.3 69.75 37.35 69.55 37.35 69.4 37.35 69.25 37.3 69.05 37.3 68.9 37.25 68.7 37.2 68.55 37.15 68.45 37.1 68.35 37.05 68.25 36.95 68.15 36.9 68.05 36.8 68.0 36.75 67.9 36.65 67.85 36.55 67.75 36.45 67.7 36.35 67.65 36.25 67.6 36.15 67.55 36.05 67.5 35.9 67.45 35.8 67.4 35.7 67.35 35.6 67.35 35.5 67.35 35.35 67.35 35.25 67.3 35.15 67.3 35.0 67.3 34.9 67.35 34.8 67.35 34.65 67.35 34.55 67.4 34.45 67.4 34.35 67.45 34.25 67.5 34.1 67.55 34.0 67.6 33.9 67.7 33.75 67.75 33.65 67.85 33.55 68.0 33.45 68.1 33.4 68.2 33.3 68.35 33.25 68.45 33.2 68.6 33.15 68.75 33.15 68.85 33.15 69.0 33.1 69.15 33.1 69.3 33.15 69.45 33.15 69.6 33.2 69.65 33.2 69.7 33.2 69.75 33.25 69.8 33.25 69.85 33.3 69.9 33.3 69.95 33.35 70.0 33.35 70.0 33.4 70.05 33.45 70.1 33.45 70.15 33.5 70.15 33.55 70.2 33.6 70.2 33.65 70.25 33.7 70.3 33.7 70.35 33.75 70.4 33.75 70.45 33.75 70.5 33.8 70.55 33.8 70.6 33.85 70.65 33.9 70.65 33.9 70.7 33.95 70.75 34.0 70.8 34.0 70.85 34.05 70.85 34.1 70.9 34.15 70.95 34.2 71.05 34.3 71.1 34.45 71.15 34.6 71.2 34.75 71.25 34.9 71.25 35.05 71.3 35.2 71.3 35.35 71.3 35.5 71.3 35.65 71.25 35.85 71.25 35.95 71.2 36.15 71.15 36.25 71.05 36.4 71.0 36.55 L71.0 36.55 M71.9 21.65 Q71.9 21.75 71.9 21.85 71.9 21.95 71.9 22.05 71.9 22.2 71.85 22.3 71.85 22.4 71.85 22.5 71.85 22.6 71.8 22.7 71.8 22.8 71.75 22.9 71.75 23.0 71.75 23.1 71.7 23.25 71.7 23.35 71.7 23.45 71.65 23.65 71.65 23.85 71.6 23.95 71.55 24.15 71.55 24.3 71.5 24.45 71.4 24.65 71.35 24.8 71.3 24.95 71.2 25.1 71.1 25.3 71.05 25.45 70.95 25.55 70.85 25.7 70.7 25.85 70.6 26.0 70.45 26.15 70.35 26.25 70.2 26.4 70.15 26.45 70.1 26.55 70.05 26.6 69.95 26.7 69.9 26.75 69.85 26.85 69.8 26.9 69.7 27.0 69.65 27.05 69.6 27.15 69.5 27.2 69.45 27.3 69.35 27.35 69.3 27.4 69.25 27.5 69.15 27.55 68.85 27.85 68.5 28.1 68.2 28.3 67.85 28.5 67.5 28.75 67.1 28.9 66.75 29.05 66.35 29.2 65.95 29.3 65.6 29.35 65.2 29.45 64.8 29.45 64.35 29.5 63.95 29.45 63.55 29.45 63.15 29.4 62.95 29.35 62.75 29.3 62.6 29.25 62.4 29.2 62.2 29.15 62.05 29.05 61.85 29.0 61.65 28.9 61.5 28.8 61.3 28.75 61.15 28.65 61.0 28.55 60.8 28.45 60.65 28.35 60.5 28.2 60.35 28.1 60.25 28.05 60.15 28.0 60.05 27.9 59.95 27.85 59.85 27.8 59.75 27.7 59.65 27.65 59.55 27.55 59.45 27.5 59.35 27.4 59.25 27.35 59.2 27.25 59.1 27.2 59.0 27.1 58.9 27.0 58.85 26.95 58.75 26.85 58.65 26.7 58.55 26.55 58.45 26.45 58.35 26.3 58.25 26.15 58.15 26.0 58.05 25.85 58.0 25.75 57.9 25.6 57.85 25.45 57.8 25.3 57.7 25.15 57.65 25.0 57.6 24.85 57.55 24.7 57.5 24.55 57.45 24.4 57.4 24.25 57.35 24.1 57.3 23.95 57.25 23.8 57.2 23.65 57.15 23.5 57.15 23.3 57.1 23.15 57.1 23.0 57.05 22.85 57.05 22.7 57.05 22.55 57.05 22.35 57.05 22.2 57.05 22.0 57.05 21.85 57.05 21.7 57.05 21.5 57.1 21.35 57.1 21.15 57.1 21.0 57.15 20.8 57.15 20.65 57.2 20.45 57.25 20.3 57.3 20.1 57.35 19.95 57.4 19.8 57.45 19.6 57.5 19.45 57.5 19.4 57.55 19.35 57.55 19.3 57.55 19.25 57.6 19.25 57.6 19.2 57.65 19.15 57.65 19.1 57.65 19.05 57.7 19.0 57.7 19.0 57.75 18.95 57.75 18.9 57.75 18.85 57.8 18.8 57.8 18.75 57.85 18.55 57.95 18.4 58.05 18.25 58.1 18.05 58.2 17.9 58.3 17.7 58.4 17.55 58.45 17.4 58.55 17.2 58.7 17.05 58.8 16.9 58.9 16.75 59.0 16.6 59.15 16.45 59.25 16.25 59.4 16.15 59.65 15.85 59.9 15.6 60.2 15.35 60.5 15.1 60.8 14.85 61.1 14.65 61.45 14.45 61.75 14.3 62.1 14.1 62.45 14.0 62.8 13.85 63.2 13.75 63.55 13.65 63.95 13.6 64.3 13.55 64.7 13.55 65.05 13.55 65.4 13.55 65.75 13.6 66.1 13.7 66.45 13.75 66.8 13.85 67.1 14.0 67.45 14.15 67.75 14.3 68.05 14.5 68.35 14.65 68.65 14.9 68.95 15.1 69.2 15.35 69.45 15.6 69.7 15.85 69.95 16.15 70.2 16.45 70.45 16.8 70.65 17.1 70.85 17.45 71.0 17.8 71.2 18.2 71.35 18.55 71.5 18.9 71.6 19.3 71.7 19.7 71.8 20.05 71.85 20.45 71.9 20.85 71.9 21.25 71.9 21.65 L71.9 21.65 M72.75 -0.55 Q72.7 -0.25 72.6 0.05 72.55 0.3 72.45 0.6 72.35 0.9 72.2 1.15 72.1 1.45 71.95 1.7 71.8 1.95 71.65 2.2 71.5 2.45 71.3 2.7 71.15 2.95 70.95 3.15 70.75 3.35 70.5 3.55 70.3 3.75 70.1 3.9 69.9 4.05 69.65 4.2 69.45 4.35 69.2 4.5 68.95 4.6 68.7 4.75 68.45 4.85 68.2 4.95 67.95 5.05 67.7 5.1 67.45 5.2 67.2 5.25 66.95 5.3 66.65 5.35 66.6 5.35 66.5 5.35 66.45 5.4 66.4 5.4 66.35 5.4 66.25 5.4 66.2 5.4 66.15 5.45 66.05 5.45 66.0 5.45 65.95 5.45 65.85 5.45 65.8 5.45 65.75 5.45 65.65 5.45 65.6 5.45 65.3 5.55 65.0 5.65 64.7 5.75 64.45 5.85 64.15 5.9 63.8 5.95 63.5 6.0 63.2 6.0 62.9 6.05 62.6 6.0 62.3 6.0 62.0 5.95 61.7 5.95 61.4 5.85 61.05 5.8 60.75 5.65 60.45 5.55 60.2 5.45 59.9 5.3 59.65 5.15 59.4 5.0 59.1 4.85 58.85 4.65 58.65 4.45 58.4 4.25 58.2 4.05 57.95 3.8 57.75 3.6 57.6 3.35 57.4 3.1 57.25 2.85 57.1 2.55 57.0 2.3 56.9 2.05 56.8 1.8 56.7 1.55 56.65 1.3 56.55 1.0 56.5 0.75 56.45 0.5 56.4 0.2 56.4 -0.05 56.35 -0.3 56.35 -0.6 56.3 -0.85 56.3 -1.15 56.3 -1.4 56.35 -1.7 56.35 -1.95 56.4 -2.2 56.4 -2.5 56.45 -2.75 56.5 -3.0 56.55 -3.3 56.6 -3.55 56.65 -3.85 56.7 -4.1 56.8 -4.35 56.85 -4.65 56.95 -4.9 57.05 -5.15 57.15 -5.4 57.25 -5.7 57.35 -5.95 57.4 -6.0 57.4 -6.1 57.45 -6.15 57.45 -6.25 57.5 -6.3 57.55 -6.4 57.55 -6.45 57.6 -6.55 57.65 -6.6 57.65 -6.7 57.7 -6.75 57.75 -6.85 57.8 -6.9 57.8 -6.95 57.85 -7.05 57.9 -7.1 58.05 -7.35 58.25 -7.6 58.4 -7.85 58.6 -8.1 58.8 -8.3 59.05 -8.5 59.25 -8.75 59.5 -8.95 59.75 -9.15 60.0 -9.3 60.25 -9.5 60.5 -9.65 60.75 -9.8 61.0 -9.95 61.3 -10.1 61.55 -10.25 61.85 -10.4 62.15 -10.5 62.45 -10.65 62.75 -10.75 63.1 -10.85 63.4 -10.95 63.7 -11.0 64.05 -11.1 64.35 -11.15 64.7 -11.15 65.0 -11.2 65.35 -11.2 65.65 -11.2 66.0 -11.2 66.3 -11.15 66.65 -11.1 66.9 -11.05 67.1 -11.0 67.35 -10.9 67.55 -10.85 67.75 -10.75 68.0 -10.65 68.2 -10.55 68.4 -10.4 68.6 -10.3 68.8 -10.15 69.0 -10.05 69.15 -9.9 69.35 -9.75 69.5 -9.55 69.7 -9.4 69.85 -9.25 70.05 -9.15 70.2 -9.0 70.4 -8.9 70.55 -8.75 70.75 -8.6 70.9 -8.45 71.05 -8.3 71.2 -8.1 71.35 -7.95 71.45 -7.8 71.6 -7.6 71.7 -7.4 71.85 -7.2 71.95 -7.0 72.05 -6.8 72.15 -6.6 72.3 -6.25 72.45 -5.9 72.55 -5.5 72.65 -5.15 72.75 -4.75 72.85 -4.4 72.9 -4.0 72.95 -3.65 72.95 -3.25 73.0 -2.85 73.0 -2.45 72.95 -2.1 72.95 -1.7 72.9 -1.3 72.85 -0.95 72.75 -0.55 L72.75 -0.55" fill="#e7b19b" fill-rule="evenodd" stroke="none"/>
  </g>
</svg>
