<?xml version="1.0" encoding="UTF-8" standalone="no"?>
<svg xmlns:xlink="http://www.w3.org/1999/xlink" height="300.0px" width="300.0px" xmlns="http://www.w3.org/2000/svg">
  <g transform="matrix(1.0, 0.0, 0.0, 1.0, 150.0, 150.0)">
    <path d="M67.75 -2.65 Q67.75 1.4 67.75 9.55 67.75 9.65 67.7 9.85 67.65 10.05 67.65 10.1 67.65 10.2 67.65 10.45 67.65 10.65 67.65 10.75 67.5 15.0 67.45 15.5 67.15 19.5 67.1 20.1 67.05 20.6 66.9 21.85 66.75 23.3 66.5 25.15 66.25 27.05 66.1 28.15 66.0 28.95 65.85 30.15 65.6 31.85 65.55 32.15 65.5 32.35 65.5 32.6 65.45 32.8 65.45 33.0 65.4 33.25 65.35 33.45 65.35 33.65 65.3 33.9 65.25 34.1 65.2 34.3 65.2 34.55 65.15 34.75 65.1 34.95 65.05 35.2 65.0 35.4 65.0 35.6 64.9 36.0 64.8 36.45 64.75 36.85 64.65 37.25 64.55 37.65 64.45 38.1 64.35 38.5 64.25 38.9 64.15 39.3 64.05 39.7 63.95 40.1 63.8 40.55 63.7 40.95 63.6 41.35 63.5 41.75 63.4 42.15 62.15 46.4 61.3 49.5 60.5 52.55 60.1 54.85 60.05 55.1 60.0 55.4 59.95 55.65 59.9 55.9 59.85 56.2 59.8 56.45 59.8 56.75 59.75 57.0 59.7 57.25 59.65 57.55 59.6 57.8 59.6 58.05 59.55 58.35 59.55 58.6 59.5 58.9 59.45 59.15 59.25 61.65 59.2 63.3 59.2 63.75 59.2 64.2 59.2 64.65 59.2 65.1 59.2 65.55 59.25 66.05 59.25 66.5 59.3 66.95 59.3 67.4 59.35 67.85 59.35 68.3 59.4 68.75 59.45 69.2 59.5 69.65 59.55 70.1 59.65 70.55 59.7 70.8 59.7 71.1 59.75 71.35 59.8 71.6 59.85 71.85 59.9 72.15 59.9 72.4 59.95 72.65 60.0 72.9 60.05 73.15 60.1 73.4 60.15 73.7 60.2 73.95 60.25 74.2 60.3 74.45 60.4 74.7 60.5 75.1 60.6 75.55 60.7 76.0 60.8 76.4 60.9 76.8 61.05 77.25 61.15 77.65 61.3 78.1 61.4 78.5 61.55 78.9 61.7 79.3 61.85 79.75 62.0 80.15 62.15 80.55 62.3 80.95 62.45 81.4 62.75 82.15 63.0 82.9 63.25 83.65 63.5 84.4 63.75 85.15 64.0 85.9 64.2 86.65 64.4 87.4 64.65 88.2 64.85 88.95 65.0 89.75 65.2 90.5 65.35 91.3 65.5 92.05 65.65 92.85 65.8 93.6 66.1 95.65 66.15 97.0 66.2 97.5 66.2 98.0 66.2 98.5 66.2 99.0 66.2 99.5 66.15 100.0 66.15 100.5 66.1 101.0 66.1 101.5 66.05 102.0 66.0 102.5 65.95 103.0 65.85 103.5 65.8 104.0 65.75 104.5 65.65 105.0 65.6 105.4 65.5 105.8 65.45 106.25 65.35 106.65 65.3 107.05 65.2 107.45 65.1 107.85 65.05 108.3 64.95 108.7 64.85 109.1 64.75 109.5 64.65 109.9 64.55 110.3 64.45 110.7 64.35 111.1 64.25 111.55 64.2 111.75 63.85 112.95 63.85 113.0 63.8 113.1 63.75 113.15 63.75 113.2 63.7 113.25 63.7 113.35 63.65 113.4 63.65 113.45 63.6 113.5 63.55 113.55 63.5 113.6 63.5 113.65 63.45 113.7 63.4 113.75 63.35 113.8 63.3 113.85 63.25 113.95 63.15 114.0 63.1 114.05 63.0 114.15 62.95 114.2 62.85 114.25 62.8 114.3 62.7 114.35 62.6 114.4 62.5 114.4 62.4 114.45 62.35 114.45 62.25 114.5 62.15 114.5 62.05 114.5 61.9 114.5 61.85 114.5 61.8 114.5 61.8 114.5 61.75 114.5 61.7 114.5 61.65 114.5 61.6 114.45 61.55 114.45 61.5 114.45 61.5 114.45 61.45 114.45 61.4 114.45 61.35 114.4 61.3 114.4 61.25 114.4 61.2 114.4 61.15 114.4 61.1 114.35 61.05 114.35 61.0 114.3 60.95 114.3 60.9 114.25 60.85 114.2 60.8 114.2 60.75 114.15 60.7 114.15 60.65 114.1 60.55 114.1 60.5 114.05 60.45 114.0 60.4 114.0 60.35 113.95 60.25 113.85 60.1 113.8 60.0 113.7 59.85 113.65 59.7 113.55 59.6 113.5 59.45 113.45 59.35 113.35 59.2 113.3 59.1 113.2 58.95 113.15 58.8 113.1 58.7 113.0 58.55 112.95 58.4 112.9 58.3 112.8 57.95 112.65 57.55 112.5 57.2 112.35 56.85 112.2 56.45 112.05 56.1 111.95 55.7 111.8 55.35 111.7 54.95 111.6 54.6 111.55 54.2 111.45 53.8 111.4 53.45 111.35 53.05 111.3 52.65 111.25 52.25 111.25 52.1 111.25 51.9 111.25 51.75 111.25 51.6 111.25 51.4 111.25 51.25 111.25 51.05 111.25 50.9 111.25 50.75 111.25 50.55 111.3 50.4 111.3 50.25 111.3 50.05 111.35 49.9 111.35 49.75 111.35 49.55 111.4 49.35 111.45 49.1 111.5 48.9 111.5 48.65 111.55 48.45 111.6 48.2 111.7 48.0 111.75 47.8 111.8 47.55 111.85 47.35 111.95 47.15 112.0 46.9 112.1 46.7 112.15 46.5 112.25 46.3 112.35 46.05 112.4 44.85 112.95 43.05 113.65 36.15 116.5 33.7 117.6 33.35 117.8 32.6 118.05 32.2 118.2 31.75 118.35 31.35 118.5 30.95 118.65 30.5 118.75 30.1 118.85 29.7 119.0 29.25 119.05 28.85 119.15 28.4 119.25 27.95 119.3 27.55 119.4 27.1 119.45 26.65 119.5 26.25 119.55 25.8 119.55 25.3 119.6 24.75 119.6 24.25 119.6 23.75 119.6 23.2 119.6 22.7 119.6 22.2 119.55 21.65 119.5 21.15 119.45 20.65 119.4 20.15 119.35 19.65 119.25 19.1 119.15 18.6 119.05 18.1 118.95 17.6 118.85 12.4 117.6 9.9 116.95 0.45 114.6 -1.9 114.1 -4.75 113.45 -6.5 113.3 -6.9 113.25 -7.25 113.25 -7.65 113.25 -8.0 113.25 -8.4 113.25 -8.75 113.25 -9.1 113.3 -9.5 113.3 -9.85 113.35 -10.25 113.4 -10.6 113.45 -10.95 113.5 -11.35 113.55 -11.7 113.65 -12.05 113.7 -12.45 113.8 -12.65 113.85 -12.9 113.9 -13.1 114.0 -13.3 114.05 -13.5 114.1 -13.7 114.2 -13.95 114.25 -14.15 114.35 -14.35 114.4 -14.55 114.5 -14.75 114.6 -14.95 114.7 -15.15 114.75 -15.35 114.85 -15.55 114.95 -15.75 115.05 -19.25 116.8 -20.15 117.25 -20.45 117.4 -20.8 117.55 -21.1 117.7 -21.4 117.85 -21.75 118.0 -22.05 118.15 -22.35 118.3 -22.7 118.45 -23.0 118.6 -23.3 118.7 -23.65 118.85 -23.95 119.0 -24.3 119.1 -24.6 119.25 -24.95 119.35 -25.25 119.5 -27.0 120.1 -27.85 120.25 -27.9 120.25 -27.9 120.3 -27.95 120.3 -28.0 120.35 -28.0 120.35 -28.05 120.35 -28.7 120.35 -29.95 120.35 -29.95 120.35 -30.0 120.3 -30.0 120.25 -30.05 120.25 -30.15 120.2 -30.25 120.15 -30.3 120.05 -30.4 120.0 -30.45 119.95 -30.55 119.85 -30.6 119.8 -30.65 119.7 -30.7 119.6 -30.75 119.5 -30.8 119.45 -30.85 119.35 -30.85 119.25 -30.9 119.15 -30.9 119.05 -30.95 118.9 -31.0 118.75 -31.05 118.5 -31.1 118.2 -31.1 118.05 -31.45 116.4 -32.5 111.05 -32.5 111.0 -32.5 111.0 -32.5 110.95 -32.55 110.9 -32.55 110.9 -32.55 110.85 -32.55 110.8 -32.55 110.8 -32.55 110.75 -32.6 110.7 -32.6 110.7 -32.6 110.65 -32.6 110.6 -32.6 110.6 -32.65 110.55 -32.65 110.5 -32.65 110.45 -32.7 110.35 -32.75 110.3 -32.8 110.25 -32.9 110.2 -32.95 110.15 -33.0 110.15 -33.1 110.1 -33.15 110.1 -33.25 110.1 -33.35 110.1 -33.7 110.2 -33.95 110.25 -34.1 110.25 -34.25 110.3 -34.4 110.3 -34.55 110.35 -34.7 110.35 -34.85 110.35 -35.0 110.4 -35.15 110.4 -35.3 110.45 -35.45 110.45 -35.6 110.45 -35.75 110.5 -35.9 110.5 -36.05 110.5 -36.2 110.5 -36.35 110.5 -36.5 110.55 -36.9 110.55 -37.35 110.55 -37.75 110.55 -38.2 110.55 -38.6 110.55 -39.05 110.55 -39.45 110.5 -39.9 110.5 -40.3 110.45 -40.75 110.4 -41.15 110.4 -41.6 110.35 -42.0 110.3 -42.45 110.25 -42.85 110.2 -43.3 110.15 -44.75 109.9 -45.95 109.75 -49.05 109.3 -50.95 108.95 -51.35 108.9 -51.75 108.8 -52.15 108.75 -52.55 108.65 -52.95 108.55 -53.35 108.5 -53.75 108.4 -54.1 108.3 -54.5 108.2 -54.9 108.1 -55.3 108.0 -55.7 107.9 -56.05 107.8 -56.45 107.7 -56.85 107.6 -57.25 107.5 -57.7 107.35 -58.15 107.2 -58.6 107.05 -59.05 106.9 -59.5 106.75 -59.95 106.6 -60.4 106.4 -60.85 106.25 -61.25 106.05 -61.7 105.85 -62.15 105.65 -62.55 105.45 -63.0 105.25 -63.4 105.05 -63.85 104.8 -64.25 104.6 -64.6 104.4 -65.0 104.15 -65.35 103.95 -65.7 103.75 -66.05 103.5 -66.4 103.3 -66.75 103.05 -67.1 102.8 -67.45 102.6 -67.75 102.35 -68.1 102.1 -68.45 101.85 -68.8 101.6 -69.1 101.35 -69.45 101.1 -69.75 100.8 -70.7 100.0 -74.2 97.0 -74.25 96.95 -74.3 96.9 -74.35 96.9 -74.35 96.85 -74.4 96.8 -74.45 96.75 -74.5 96.75 -74.55 96.7 -74.55 96.65 -74.6 96.6 -74.65 96.55 -74.7 96.55 -74.7 96.5 -74.75 96.45 -74.8 96.4 -74.85 96.35 -74.95 96.25 -75.0 96.15 -75.05 96.1 -75.15 96.0 -75.2 95.9 -75.25 95.8 -75.3 95.7 -75.35 95.6 -75.4 95.45 -75.45 95.35 -75.5 95.25 -75.55 95.15 -75.6 95.05 -75.6 94.9 -75.65 94.8 -75.7 94.7 -75.55 95.65 -75.75 94.5 -75.75 94.35 -75.75 94.3 -75.75 94.15 -75.8 94.05 -75.8 93.95 -75.8 93.85 -75.8 93.75 -75.8 93.65 -75.8 93.55 -75.8 93.45 -75.8 93.35 -75.8 93.25 -75.75 93.15 -75.75 93.05 -75.7 92.8 -75.65 92.45 -75.6 91.95 -75.6 91.85 -75.15 89.05 -74.35 85.45 -73.45 81.4 -72.05 76.4 -70.6 71.4 -69.65 68.65 -69.4 68.0 -69.05 67.0 -68.95 66.75 -68.9 66.45 -68.8 66.2 -68.75 65.95 -68.65 65.65 -68.6 65.4 -68.5 65.15 -68.45 64.85 -68.35 64.6 -68.3 64.35 -68.25 64.05 -68.15 63.8 -68.1 63.5 -68.05 63.25 -68.0 63.0 -67.95 62.7 -67.35 59.9 -67.05 58.0 -67.0 57.8 -67.0 57.55 -66.95 57.35 -66.95 57.15 -66.9 56.95 -66.9 56.7 -66.85 56.5 -66.85 56.3 -66.8 56.05 -66.8 55.85 -66.75 55.65 -66.75 55.4 -66.75 55.2 -66.7 55.0 -66.7 54.75 -66.7 54.55 -66.7 54.3 -66.65 54.05 -66.65 53.85 -66.65 53.6 -66.65 53.35 -66.65 53.1 -66.65 52.9 -66.65 52.65 -66.65 52.4 -66.65 52.15 -66.65 51.9 -66.65 51.7 -66.65 51.45 -66.65 51.2 -66.7 50.95 -66.7 50.75 -66.85 48.95 -67.35 46.35 -67.85 43.8 -68.8 40.05 -70.5 33.55 -71.35 29.25 -71.95 26.1 -72.25 24.4 -72.35 23.8 -72.5 22.55 -72.7 21.35 -72.8 20.7 -72.95 19.5 -73.15 17.65 -73.2 17.25 -73.35 15.2 -73.4 14.9 -73.4 14.6 -73.45 14.3 -73.45 14.05 -73.5 13.75 -73.5 13.45 -73.5 13.15 -73.55 12.85 -73.55 12.55 -73.6 12.25 -73.6 11.95 -73.6 11.7 -73.6 11.4 -73.6 11.1 -73.65 10.8 -73.65 10.5 -73.7 3.95 -73.5 0.6 -73.3 -2.5 -73.3 -2.9 -73.0 -6.05 -72.7 -8.1 -72.65 -8.45 -72.6 -8.8 -72.55 -9.15 -72.5 -9.5 -72.45 -9.85 -72.4 -10.2 -72.35 -10.55 -72.3 -10.9 -72.25 -11.25 -72.2 -11.6 -72.15 -11.95 -72.1 -12.3 -72.05 -12.65 -72.0 -13.0 -71.9 -13.35 -71.85 -13.7 -71.75 -14.2 -71.65 -14.75 -71.55 -15.25 -71.45 -15.75 -71.35 -16.25 -71.25 -16.8 -71.1 -17.3 -71.0 -17.8 -70.9 -18.3 -70.75 -18.85 -70.65 -19.35 -70.5 -19.85 -70.4 -20.35 -70.25 -20.85 -70.15 -21.4 -70.0 -21.9 -69.7 -23.1 -69.3 -24.25 -68.95 -25.45 -68.6 -26.6 -68.2 -27.75 -67.8 -28.9 -67.4 -30.05 -66.95 -31.2 -66.5 -32.35 -66.05 -33.5 -65.6 -34.6 -65.1 -35.75 -64.6 -36.85 -64.1 -37.95 -63.55 -39.1 -63.0 -40.2 -62.35 -41.45 -61.7 -42.65 -61.0 -43.85 -60.25 -45.05 -59.5 -46.2 -58.7 -47.3 -57.9 -48.4 -57.0 -49.5 -56.15 -50.55 -55.25 -51.6 -54.3 -52.6 -53.35 -53.6 -52.35 -54.55 -51.35 -55.5 -50.3 -56.4 -49.2 -57.3 -48.6 -57.8 -47.95 -58.3 -47.3 -58.75 -46.7 -59.25 -46.05 -59.7 -45.4 -60.15 -44.75 -60.6 -44.05 -61.05 -43.4 -61.45 -42.7 -61.85 -42.05 -62.3 -41.35 -62.7 -40.65 -63.1 -39.95 -63.45 -39.25 -63.85 -38.55 -64.2 -37.75 -64.6 -36.95 -65.0 -36.15 -65.4 -35.35 -65.75 -34.55 -66.1 -33.75 -66.45 -32.9 -66.8 -32.1 -67.15 -31.25 -67.45 -30.45 -67.75 -29.6 -68.05 -28.75 -68.35 -27.9 -68.65 -27.05 -68.9 -26.25 -69.15 -25.35 -69.4 -24.75 -69.55 -24.15 -69.75 -23.6 -69.9 -23.0 -70.05 -22.4 -70.2 -21.8 -70.35 -21.2 -70.5 -20.6 -70.65 -20.0 -70.8 -19.4 -70.9 -18.8 -71.05 -18.2 -71.15 -17.6 -71.3 -17.0 -71.4 -16.4 -71.5 -15.8 -71.6 -15.5 -71.65 -15.2 -71.7 -14.9 -71.75 -14.6 -71.8 -14.25 -71.85 -13.95 -71.9 -13.65 -71.95 -13.35 -72.0 -13.05 -72.05 -12.75 -72.1 -12.45 -72.15 -12.15 -72.2 -11.85 -72.2 -11.5 -72.25 -11.2 -72.3 -10.9 -72.35 -8.55 -72.6 -6.8 -72.75 -6.05 -72.8 -4.9 -72.85 -3.2 -72.95 -3.0 -72.95 -2.95 -72.95 -2.7 -72.95 -2.5 -73.0 -2.35 -73.0 -2.3 -73.0 -2.0 -73.1 -0.25 -73.1 3.25 -73.1 3.5 -73.0 3.55 -73.0 3.8 -72.95 4.25 -72.95 4.65 -72.95 5.1 -72.9 5.5 -72.9 5.95 -72.85 6.35 -72.85 6.75 -72.85 7.2 -72.8 7.6 -72.75 8.0 -72.75 8.45 -72.7 8.85 -72.7 9.25 -72.65 9.65 -72.6 10.1 -72.55 10.5 -72.55 10.9 -72.5 11.25 -72.45 11.55 -72.45 11.85 -72.4 12.2 -72.35 12.5 -72.3 12.85 -72.3 13.15 -72.25 13.5 -72.2 13.8 -72.15 14.1 -72.1 14.45 -72.1 14.75 -72.05 15.1 -72.0 15.4 -71.95 15.7 -71.9 16.05 -71.85 16.45 -71.8 16.85 -71.75 17.25 -71.65 17.65 -71.6 18.05 -71.55 18.45 -71.5 18.85 -71.4 19.25 -71.35 19.65 -71.25 20.05 -71.2 20.45 -71.1 20.85 -71.05 21.25 -70.95 21.65 -70.9 22.05 -70.8 22.45 -70.7 23.1 -70.55 23.75 -70.4 24.4 -70.25 25.05 -70.1 25.75 -69.95 26.4 -69.75 27.05 -69.6 27.65 -69.4 28.3 -69.2 28.95 -69.0 29.6 -68.8 30.25 -68.6 30.9 -68.35 31.5 -68.15 32.15 -67.9 32.8 -67.65 33.75 -67.3 34.65 -66.9 35.55 -66.55 36.5 -66.1 37.4 -65.7 38.25 -65.25 39.15 -64.85 40.05 -64.35 40.9 -63.9 41.75 -63.4 42.6 -62.9 43.45 -62.35 44.3 -61.8 45.15 -61.25 45.95 -60.7 46.75 -60.1 47.45 -59.6 48.1 -59.05 48.8 -58.5 49.45 -57.95 50.1 -57.4 50.7 -56.8 51.3 -56.25 51.9 -55.6 52.5 -55.0 53.1 -54.4 53.65 -53.75 54.2 -53.1 54.75 -52.45 55.25 -51.75 55.75 -51.05 56.25 -50.35 56.45 -50.05 56.65 -49.8 56.8 -49.5 57.0 -49.25 57.2 -48.95 57.35 -48.65 57.55 -48.4 57.75 -48.1 57.9 -47.8 58.1 -47.5 58.25 -47.25 58.4 -46.95 58.6 -46.65 58.75 -46.35 58.9 -46.05 59.1 -45.75 59.5 -45.05 59.85 -44.35 60.2 -43.65 60.55 -42.95 60.9 -42.25 61.2 -41.55 61.55 -40.8 61.85 -40.1 62.15 -39.35 62.45 -38.65 62.75 -37.9 63.0 -37.15 63.3 -36.4 63.55 -35.7 63.8 -34.95 64.05 -34.15 64.15 -33.75 64.25 -33.4 64.4 -33.0 64.5 -32.65 64.6 -32.25 64.7 -31.9 64.8 -31.5 64.9 -31.1 64.95 -30.75 65.05 -30.35 65.15 -29.95 65.25 -29.55 65.35 -29.2 65.4 -28.8 65.5 -28.4 65.55 -28.0 65.6 -27.7 65.65 -27.4 65.75 -27.1 65.8 -26.8 65.85 -26.5 65.9 -26.25 65.95 -25.95 66.0 -25.65 66.05 -25.35 66.1 -25.05 66.15 -24.75 66.2 -24.45 66.25 -24.15 66.3 -23.85 66.35 -23.55 66.35 -23.25 66.4 -23.1 66.4 -22.9 66.4 -22.75 66.45 -22.55 66.45 -22.4 66.5 -22.2 66.5 -22.05 66.55 -21.85 66.55 -21.7 66.6 -21.5 66.6 -21.35 66.65 -21.15 66.65 -21.0 66.65 -20.85 66.7 -20.65 66.7 -20.5 66.7 -20.35 66.75 -20.2 66.75 -20.05 66.75 -19.9 66.8 -19.75 66.8 -19.6 66.85 -19.45 66.85 -19.3 66.85 -19.15 66.85 -19.0 66.9 -18.85 66.9 -18.7 66.9 -18.55 66.95 -18.4 66.95 -18.25 66.95 -18.1 67.05 -17.15 67.15 -15.35 67.35 -13.4 67.4 -11.7 67.45 -11.25 67.45 -10.8 67.5 -10.35 67.5 -9.85 67.5 -9.4 67.55 -8.95 67.55 -8.5 67.55 -8.05 67.6 -7.6 67.6 -7.15 67.6 -6.7 67.6 -6.2 67.65 -5.75 67.65 -5.3 67.65 -4.85 67.65 -4.4 67.65 -4.25 67.65 -4.0 67.65 -3.7 67.65 -3.6 67.65 -3.55 67.65 -3.5 67.65 -3.4 67.65 -3.35 67.65 -3.3 67.65 -3.25 67.65 -3.2 67.7 -3.15 67.7 -3.05 67.7 -3.0 67.7 -2.95 67.7 -2.9 67.75 -2.85 67.75 -2.8 67.75 -2.75 67.75 -2.65 L67.75 -2.65 M-33.85 106.75 Q-33.85 106.75 -33.85 106.7 -33.85 106.65 -33.85 106.6 -33.95 106.2 -34.0 106.15 -34.15 105.6 -34.45 104.9 -34.6 104.55 -34.75 104.2 -34.9 103.85 -35.0 103.5 -35.15 103.15 -35.3 102.8 -35.4 102.45 -35.55 102.05 -35.65 101.7 -35.8 101.35 -35.9 101.0 -36.0 100.65 -36.15 100.3 -36.25 99.9 -36.35 99.55 -36.45 99.2 -36.6 98.8 -36.7 98.35 -36.8 97.9 -36.95 97.5 -37.05 97.05 -37.15 96.65 -37.25 96.2 -37.35 95.8 -37.45 95.35 -37.55 94.9 -37.6 94.5 -37.7 94.05 -37.8 93.6 -37.85 93.2 -37.95 92.75 -38.0 92.3 -38.1 91.7 -38.2 90.75 -38.35 89.45 -38.4 89.25 -38.45 88.7 -38.5 87.95 -38.6 86.65 -38.6 86.6 -38.6 86.3 -38.65 86.0 -38.65 85.7 -38.65 85.4 -38.65 85.1 -38.65 84.75 -38.7 84.45 -38.7 84.15 -38.7 83.85 -38.7 83.55 -38.65 83.25 -38.65 82.9 -38.65 82.6 -38.65 82.3 -38.65 82.0 -38.6 81.7 -38.6 81.35 -38.6 81.0 -38.55 80.7 -38.55 80.35 -38.55 80.0 -38.5 79.65 -38.5 79.35 -38.45 79.0 -38.45 78.65 -38.45 78.3 -38.4 78.0 -38.35 77.65 -38.35 77.3 -38.3 77.0 -38.3 76.65 -38.25 76.3 -38.15 75.4 -37.95 73.8 -37.8 72.0 -37.7 71.25 -37.15 66.75 -37.05 65.5 -37.05 65.2 -37.0 64.95 -37.0 64.65 -36.95 64.4 -36.95 64.15 -36.95 63.85 -36.9 63.6 -36.9 63.3 -36.9 63.05 -36.85 62.75 -36.85 62.5 -36.85 62.2 -36.85 61.95 -36.8 61.65 -36.8 61.4 -36.8 61.1 -36.8 60.7 -36.8 60.35 -36.8 59.95 -36.8 59.6 -36.8 59.2 -36.8 58.8 -36.8 58.45 -36.85 58.05 -36.85 57.7 -36.9 57.3 -36.9 56.9 -36.95 56.55 -36.95 56.15 -37.0 55.8 -37.0 55.4 -37.05 55.0 -37.1 54.65 -37.1 54.35 -37.15 54.0 -37.2 53.65 -37.25 53.35 -37.3 53.0 -37.35 52.65 -37.4 52.35 -37.45 52.0 -37.5 51.65 -37.6 51.35 -37.65 51.0 -37.7 50.7 -37.8 50.35 -37.85 50.0 -37.9 49.7 -37.95 49.6 -37.95 49.5 -38.0 49.4 -38.0 49.3 -38.05 49.2 -38.05 49.1 -38.1 49.0 -38.1 48.9 -38.15 48.8 -38.15 48.65 -38.2 48.6 -38.25 48.45 -38.25 48.35 -38.3 48.25 -38.3 48.15 -38.35 48.05 -38.4 47.9 -38.45 47.75 -38.5 47.55 -38.6 47.45 -38.65 47.3 -38.75 47.15 -38.85 47.0 -38.95 46.85 -39.05 46.75 -39.15 46.6 -39.25 46.5 -39.35 46.35 -39.5 46.25 -39.6 46.15 -39.75 46.05 -39.9 45.95 -40.0 45.9 -40.05 45.85 -40.15 45.8 -40.2 45.75 -40.3 45.65 -40.35 45.6 -40.45 45.55 -40.5 45.5 -40.55 45.4 -40.65 45.35 -40.7 45.3 -40.75 45.2 -40.8 45.15 -40.9 45.05 -40.95 45.0 -41.0 44.9 -41.2 44.7 -41.45 44.35 -41.6 44.15 -41.75 43.95 -41.85 43.75 -42.0 43.55 -42.15 43.35 -42.3 43.15 -42.45 42.95 -42.55 42.75 -42.7 42.55 -42.85 42.35 -42.95 42.15 -43.1 41.95 -43.25 41.75 -43.35 41.55 -43.5 41.35 -43.65 41.15 -44.05 40.55 -44.4 39.9 -44.8 39.25 -45.15 38.65 -45.5 38.0 -45.85 37.35 -46.2 36.7 -46.55 36.05 -46.85 35.4 -47.2 34.75 -47.5 34.1 -47.8 33.45 -48.1 32.8 -48.4 32.1 -48.7 31.45 -49.0 30.75 -49.5 29.6 -49.9 28.45 -50.35 27.3 -50.75 26.15 -51.15 25.0 -51.5 23.8 -51.85 22.65 -52.2 21.45 -52.5 20.3 -52.8 19.1 -53.1 17.9 -53.35 16.7 -53.6 15.5 -53.8 14.25 -54.05 13.05 -54.25 11.85 -54.45 10.65 -54.85 7.45 -54.9 7.0 -55.05 5.3 -55.2 4.05 -55.25 2.9 -55.4 1.35 -55.4 0.4 -55.4 0.1 -55.35 -1.45 -55.35 -1.5 -55.35 -1.5 -55.35 -1.55 -55.3 -1.6 -55.3 -1.65 -55.3 -1.65 -55.25 -1.75 -55.15 -1.7 -55.1 -1.7 -55.1 -1.65 -55.05 -1.65 -55.05 -1.6 -55.0 -1.6 -55.0 -1.55 -54.9 -1.45 -54.85 -1.3 -54.8 -1.2 -54.7 -1.05 -54.65 -0.9 -54.6 -0.8 -54.55 -0.65 -54.45 -0.5 -54.4 -0.4 -54.35 -0.25 -54.3 -0.1 -54.25 0.0 -54.25 0.15 -54.2 0.3 -54.15 0.45 -54.1 0.55 -54.0 1.05 -53.8 1.8 -53.55 2.75 -53.45 3.05 -51.65 10.15 -51.45 10.8 -51.1 12.15 -50.15 15.85 -49.3 19.05 -48.8 20.95 -48.65 21.5 -48.5 22.1 -48.35 22.65 -48.2 23.2 -48.05 23.75 -47.85 24.35 -47.7 24.9 -47.5 25.45 -47.35 26.0 -47.15 26.55 -46.95 27.1 -46.7 27.65 -46.5 28.2 -46.3 28.75 -46.05 29.25 -45.85 29.8 -45.7 30.2 -45.5 30.55 -45.35 30.9 -45.2 31.25 -45.0 31.6 -44.85 31.95 -44.65 32.35 -44.5 32.7 -44.3 33.05 -44.1 33.4 -43.95 33.75 -43.75 34.1 -43.55 34.45 -43.35 34.8 -43.15 35.15 -42.95 35.45 -42.9 35.6 -42.65 35.95 -42.65 35.95 -42.6 35.95 -42.55 35.95 -42.55 35.95 -42.55 35.95 -42.55 35.9 -42.5 35.9 -42.5 35.9 -42.5 35.8 -42.5 35.75 -42.45 35.65 -42.45 35.6 -42.45 35.5 -42.45 35.4 -42.45 35.35 -42.5 35.25 -42.5 35.2 -42.5 35.1 -42.5 35.0 -42.5 34.95 -42.5 34.85 -42.55 34.8 -42.55 34.7 -42.55 34.65 -42.6 34.4 -42.6 34.2 -42.65 34.0 -42.7 33.75 -42.75 33.55 -42.75 33.3 -42.8 33.1 -42.85 32.85 -42.9 32.65 -42.95 32.45 -42.95 32.2 -43.0 32.0 -43.05 31.75 -43.1 31.55 -43.15 31.35 -43.2 31.1 -43.75 28.7 -44.3 26.4 -44.4 26.0 -44.5 25.55 -44.6 25.15 -44.65 24.75 -44.75 24.3 -44.85 23.9 -44.9 23.5 -45.0 23.05 -45.1 22.65 -45.15 22.2 -45.2 21.8 -45.3 21.35 -45.35 20.95 -45.4 20.55 -45.45 20.1 -45.55 19.7 -45.6 19.1 -45.7 18.2 -45.85 17.0 -45.9 16.75 -46.1 14.8 -46.15 13.5 -46.15 13.3 -46.2 13.0 -46.2 12.6 -46.2 12.5 -46.2 12.2 -46.25 11.85 -46.25 11.55 -46.25 11.2 -46.3 10.9 -46.3 10.6 -46.3 10.25 -46.3 9.95 -46.3 9.65 -46.3 9.3 -46.3 9.0 -46.3 8.65 -46.3 8.35 -46.3 8.05 -46.25 7.7 -46.25 7.4 -46.25 6.95 -46.2 6.55 -46.2 6.1 -46.15 5.65 -46.15 5.2 -46.1 4.8 -46.1 4.35 -46.05 3.9 -46.0 3.45 -45.95 3.05 -45.95 2.6 -45.9 2.15 -45.85 1.75 -45.8 1.3 -45.75 0.85 -45.7 0.45 -45.65 0.1 -45.6 -0.25 -45.6 -0.6 -45.55 -0.95 -45.5 -1.3 -45.45 -1.65 -45.4 -2.0 -45.35 -2.35 -45.3 -2.7 -45.25 -3.05 -45.2 -3.4 -45.15 -3.75 -45.1 -4.1 -45.05 -4.45 -44.95 -4.8 -44.9 -5.15 -44.85 -5.6 -44.75 -6.0 -44.65 -6.45 -44.55 -6.85 -44.5 -7.3 -44.4 -7.7 -44.3 -8.15 -44.2 -8.55 -44.1 -9.0 -44.0 -9.4 -43.9 -9.85 -43.75 -10.25 -43.65 -10.7 -43.55 -11.1 -43.4 -11.5 -43.3 -11.95 -43.05 -12.75 -42.8 -13.5 -42.55 -14.25 -42.25 -15.0 -41.95 -15.75 -41.6 -16.5 -41.3 -17.2 -40.9 -17.9 -40.55 -18.65 -40.15 -19.3 -39.75 -20.0 -39.3 -20.7 -38.9 -21.35 -38.4 -22.0 -37.95 -22.7 -37.45 -23.3 -37.0 -23.9 -35.75 -25.4 -35.75 -25.45 -35.7 -25.45 -35.7 -25.45 -35.65 -25.5 -35.65 -25.5 -35.6 -25.55 -35.6 -25.55 -35.6 -25.6 -35.55 -25.6 -35.55 -25.65 -35.5 -25.65 -35.5 -25.65 -35.45 -25.7 -35.45 -25.7 -35.45 -25.7 -35.4 -25.75 -35.35 -25.75 -35.35 -25.8 -35.3 -25.8 -35.25 -25.8 -35.25 -25.85 -35.2 -25.85 -35.15 -25.85 -35.1 -25.85 -35.05 -25.85 -35.0 -25.85 -34.95 -25.85 -34.9 -25.85 -34.85 -25.8 -34.85 -25.8 -34.8 -25.75 -34.75 -25.75 -34.7 -25.7 -34.7 -25.65 -34.7 -25.65 -34.65 -25.6 -34.65 -25.55 -34.65 -25.5 -34.65 -25.5 -34.65 -25.45 -34.65 -25.4 -34.65 -25.35 -34.65 -25.3 -34.65 -25.3 -34.7 -25.25 -34.7 -25.25 -34.7 -25.2 -34.75 -25.15 -34.75 -25.15 -34.75 -25.1 -34.75 -25.05 -34.8 -25.05 -34.8 -25.0 -34.8 -25.0 -34.8 -24.95 -34.85 -24.9 -34.85 -24.9 -34.85 -24.85 -35.2 -24.3 -35.3 -24.1 -35.45 -23.85 -35.75 -23.2 -36.0 -22.6 -36.15 -22.3 -36.8 -21.0 -37.05 -20.25 -37.5 -19.3 -38.1 -17.6 -38.4 -16.75 -38.7 -15.9 -39.0 -15.05 -39.3 -14.15 -39.55 -13.3 -39.8 -12.45 -40.05 -11.55 -40.3 -10.7 -40.5 -9.8 -40.75 -8.9 -40.95 -8.05 -41.15 -7.15 -41.35 -6.25 -41.5 -5.35 -41.7 -4.5 -41.85 -3.6 -41.9 -3.25 -41.95 -2.95 -42.0 -2.6 -42.05 -2.3 -42.1 -1.95 -42.15 -1.65 -42.2 -1.3 -42.25 -1.0 -42.25 -0.65 -42.3 -0.35 -42.35 0.0 -42.4 0.3 -42.45 0.65 -42.45 0.95 -42.5 1.3 -42.55 1.6 -42.8 4.4 -42.85 6.2 -42.85 6.5 -42.85 6.9 -42.85 7.35 -42.9 7.8 -42.9 8.25 -42.95 8.7 -42.95 9.15 -42.95 9.55 -42.95 10.0 -42.95 10.45 -42.95 10.9 -42.95 11.35 -42.95 11.8 -42.95 12.2 -42.9 12.65 -42.9 13.1 -42.85 13.55 -42.85 14.0 -42.8 14.5 -42.75 15.3 -42.65 16.25 -42.6 16.6 -42.6 16.9 -42.45 18.15 -42.4 18.15 -42.3 18.1 -42.25 18.05 -42.25 18.05 -42.2 17.9 -42.05 17.45 -41.8 16.7 -41.55 16.0 -41.25 15.3 -40.95 14.55 -40.7 13.85 -40.35 13.15 -40.05 12.45 -39.7 11.75 -39.4 11.1 -39.05 10.4 -38.65 9.75 -38.3 9.05 -37.9 8.4 -37.5 7.75 -37.1 7.1 -36.7 6.45 -36.45 6.05 -36.15 5.65 -35.9 5.25 -35.6 4.85 -35.35 4.45 -35.05 4.05 -34.75 3.65 -34.45 3.3 -34.15 2.9 -33.85 2.5 -33.55 2.15 -33.25 1.75 -32.95 1.4 -32.6 1.0 -32.3 0.65 -32.0 0.25 -31.25 -0.6 -30.5 -1.45 -29.75 -2.3 -28.95 -3.1 -28.2 -3.9 -27.4 -4.7 -26.6 -5.5 -25.8 -6.3 -25.0 -7.1 -24.15 -7.85 -23.35 -8.6 -22.5 -9.35 -21.65 -10.1 -20.8 -10.85 -19.95 -11.55 -19.05 -12.3 -17.95 -13.2 -16.85 -14.05 -15.75 -14.9 -14.65 -15.75 -13.5 -16.55 -12.35 -17.4 -11.25 -18.2 -10.1 -18.95 -8.95 -19.75 -7.75 -20.5 -6.6 -21.3 -5.4 -22.0 -4.2 -22.75 -3.0 -23.45 -1.8 -24.2 -0.55 -24.85 0.6 -25.5 1.75 -26.15 2.95 -26.75 4.1 -27.35 5.3 -27.95 6.5 -28.55 7.7 -29.1 8.9 -29.65 10.1 -30.2 11.3 -30.75 12.55 -31.25 13.75 -31.75 15.0 -32.25 16.25 -32.7 17.5 -33.15 18.75 -33.6 19.7 -33.9 20.3 -34.05 20.45 -34.1 20.65 -34.15 20.8 -34.2 21.0 -34.2 21.15 -34.25 21.35 -34.25 21.5 -34.3 21.7 -34.3 21.85 -34.35 22.05 -34.35 22.2 -34.35 22.4 -34.4 22.55 -34.4 22.75 -34.4 22.9 -34.4 23.1 -34.4 23.3 -34.4 23.45 -34.4 23.65 -34.35 23.8 -34.35 24.0 -34.35 24.2 -34.3 24.35 -34.3 24.55 -34.25 24.7 -34.2 24.9 -34.2 25.1 -34.15 25.25 -34.1 25.45 -34.05 25.6 -34.0 25.8 -33.95 25.95 -33.9 26.15 -33.85 26.4 -33.75 26.6 -33.65 26.85 -33.6 27.05 -33.5 27.25 -33.4 27.5 -33.3 27.7 -33.2 27.9 -33.1 28.1 -33.0 28.3 -32.9 28.5 -32.8 28.75 -32.65 28.95 -32.55 29.15 -32.45 29.35 -32.3 29.55 -32.2 29.7 -32.05 29.9 -31.95 30.05 -31.85 30.25 -31.7 30.45 -31.6 30.6 -31.45 30.8 -31.35 30.95 -31.2 31.15 -31.1 31.3 -30.95 31.5 -30.8 31.65 -30.7 31.8 -30.55 32.0 -30.4 32.15 -30.3 32.95 -29.65 33.7 -29.0 34.45 -28.35 35.2 -27.7 35.95 -27.0 36.7 -26.3 37.4 -25.6 38.1 -24.9 38.8 -24.2 39.5 -23.45 40.2 -22.7 40.85 -21.95 41.5 -21.2 42.15 -20.45 42.8 -19.7 43.45 -18.9 44.0 -18.2 44.5 -17.5 45.05 -16.85 45.55 -16.1 46.1 -15.4 46.6 -14.7 47.1 -14.0 47.55 -13.25 48.05 -12.55 48.55 -11.8 49.0 -11.05 49.45 -10.3 49.9 -9.6 50.35 -8.85 50.8 -8.1 51.25 -7.3 51.7 -6.55 52.1 -5.8 52.55 -5.05 52.95 -4.25 53.35 -3.5 53.75 -2.7 54.15 -1.95 54.55 -1.15 54.95 -0.4 55.35 0.4 55.7 1.2 56.1 2.0 56.5 2.75 56.85 3.55 57.2 4.35 57.6 5.15 58.05 6.1 58.45 7.05 58.85 8.05 59.25 9.0 59.7 9.95 60.05 10.95 60.45 11.9 60.8 12.9 61.15 13.85 61.5 14.85 61.85 15.85 62.15 16.85 62.5 17.85 62.8 18.85 63.1 19.85 63.35 20.85 63.35 20.9 63.35 20.95 63.4 20.95 63.4 21.0 63.4 21.05 63.45 21.1 63.45 21.1 63.45 21.15 63.45 21.2 63.5 21.2 63.5 21.25 63.55 21.25 63.6 21.3 63.6 21.3 63.65 21.3 63.7 21.3 63.75 21.3 63.85 21.25 63.9 21.2 63.9 21.1 63.95 20.85 63.95 20.5 64.1 17.7 64.15 16.85 64.3 13.9 64.4 12.0 64.5 10.05 64.55 7.45 64.55 6.8 64.55 6.15 64.6 5.5 64.6 4.85 64.6 4.2 64.6 3.55 64.6 2.9 64.6 2.2 64.6 1.55 64.6 0.9 64.6 0.25 64.6 -0.4 64.6 -1.05 64.55 -1.7 64.55 -2.35 64.55 -3.0 64.55 -3.4 64.5 -3.75 64.4 -6.9 64.25 -9.85 64.2 -11.0 64.05 -13.4 64.0 -14.3 63.9 -15.65 63.8 -17.1 63.65 -18.35 63.4 -21.05 63.25 -21.95 63.2 -22.25 63.2 -22.55 63.15 -22.85 63.1 -23.1 63.05 -23.4 63.05 -23.7 63.0 -24.0 62.95 -24.3 62.9 -24.55 62.85 -24.85 62.8 -25.15 62.75 -25.45 62.7 -25.7 62.65 -26.0 62.6 -26.3 62.55 -26.6 62.45 -27.05 62.35 -27.5 62.25 -28.0 62.15 -28.45 62.05 -28.9 61.95 -29.35 61.85 -29.8 61.75 -30.3 61.6 -30.75 61.5 -31.2 61.4 -31.65 61.25 -32.1 61.1 -32.55 61.0 -33.0 60.85 -33.45 60.7 -33.9 60.5 -34.55 60.25 -35.2 60.05 -35.85 59.8 -36.5 59.55 -37.1 59.3 -37.75 59.05 -38.4 58.75 -39.0 58.5 -39.65 58.2 -40.25 57.9 -40.9 57.6 -41.5 57.3 -42.1 57.0 -42.75 56.7 -43.35 56.35 -43.95 56.15 -44.35 55.95 -44.7 55.75 -45.05 55.5 -45.45 55.3 -45.8 55.1 -46.15 54.85 -46.55 54.65 -46.9 54.4 -47.25 54.15 -47.6 53.95 -47.95 53.7 -48.3 53.45 -48.65 53.2 -49.0 52.95 -49.35 52.7 -49.7 52.3 -50.25 51.85 -50.8 51.4 -51.35 50.95 -51.85 50.5 -52.4 50.05 -52.9 49.55 -53.4 49.1 -53.9 48.6 -54.35 48.1 -54.85 47.6 -55.3 47.05 -55.75 46.5 -56.2 46.0 -56.6 45.45 -57.05 44.85 -57.45 43.3 -58.5 42.1 -59.3 40.75 -60.15 39.35 -60.9 38.0 -61.7 36.6 -62.4 35.2 -63.1 33.75 -63.7 32.3 -64.3 30.85 -64.85 29.4 -65.4 27.9 -65.9 26.4 -66.35 24.85 -66.8 23.35 -67.2 21.8 -67.55 20.3 -67.85 18.7 -68.15 17.3 -68.4 15.25 -68.7 13.85 -68.9 11.95 -69.1 11.6 -69.15 9.35 -69.3 9.05 -69.35 8.75 -69.35 8.4 -69.4 8.1 -69.4 7.8 -69.45 7.5 -69.45 7.2 -69.5 6.9 -69.5 6.55 -69.5 6.25 -69.55 5.95 -69.55 5.65 -69.55 5.35 -69.55 5.05 -69.6 4.75 -69.6 4.4 -69.6 2.25 -69.65 1.8 -69.65 -2.65 -69.65 -6.15 -69.4 -7.45 -69.3 -8.35 -69.2 -8.55 -69.2 -8.8 -69.15 -9.0 -69.15 -9.25 -69.1 -9.45 -69.1 -9.7 -69.1 -9.9 -69.05 -10.15 -69.05 -10.35 -69.0 -10.6 -69.0 -10.8 -68.95 -11.0 -68.95 -11.25 -68.9 -11.45 -68.85 -11.7 -68.85 -11.9 -68.8 -14.05 -68.55 -15.7 -68.3 -16.2 -68.2 -16.75 -68.1 -17.25 -68.0 -17.8 -67.9 -18.3 -67.8 -18.8 -67.7 -19.35 -67.6 -19.85 -67.45 -20.35 -67.35 -20.9 -67.2 -21.4 -67.1 -21.9 -66.95 -22.45 -66.85 -22.95 -66.7 -23.45 -66.55 -23.95 -66.4 -25.15 -66.05 -26.35 -65.7 -27.55 -65.3 -28.7 -64.9 -29.9 -64.45 -31.05 -64.0 -32.2 -63.55 -33.3 -63.05 -34.45 -62.55 -35.6 -62.0 -36.7 -61.45 -37.8 -60.85 -38.9 -60.3 -39.95 -59.65 -41.05 -59.05 -42.1 -58.35 -42.95 -57.85 -43.75 -57.25 -44.6 -56.7 -45.35 -56.15 -46.15 -55.55 -46.95 -54.95 -47.7 -54.35 -48.45 -53.7 -49.15 -53.05 -49.9 -52.35 -50.6 -51.7 -51.3 -51.0 -51.95 -50.3 -52.65 -49.55 -53.3 -48.85 -53.95 -48.05 -54.45 -47.45 -54.9 -46.85 -55.4 -46.25 -55.85 -45.6 -56.3 -45.0 -56.75 -44.35 -57.15 -43.7 -57.6 -43.05 -58.0 -42.4 -58.4 -41.75 -58.8 -41.1 -59.15 -40.4 -59.55 -39.75 -59.9 -39.05 -60.25 -38.35 -60.6 -37.65 -60.8 -37.2 -61.05 -36.75 -61.25 -36.3 -61.45 -35.85 -61.65 -35.4 -61.9 -34.95 -62.1 -34.5 -62.3 -34.0 -62.5 -33.55 -62.65 -33.1 -62.85 -32.65 -63.05 -32.15 -63.25 -31.7 -63.4 -31.25 -63.6 -30.8 -63.8 -30.3 -64.1 -29.5 -64.35 -28.75 -64.65 -27.95 -64.9 -27.15 -65.2 -26.35 -65.45 -25.6 -65.7 -24.8 -65.95 -24.0 -66.2 -23.2 -66.4 -22.4 -66.65 -21.6 -66.85 -20.8 -67.05 -20.0 -67.25 -19.15 -67.45 -18.35 -67.65 -17.55 -68.45 -13.95 -68.9 -11.15 -69.3 -8.65 -69.45 -7.4 -69.6 -6.25 -69.8 -4.4 -69.9 -3.35 -70.05 -1.75 -70.05 -1.6 -70.15 0.05 -70.25 1.15 -70.25 1.9 -70.3 2.55 -70.3 3.2 -70.3 3.85 -70.35 4.5 -70.35 5.15 -70.35 5.8 -70.35 6.5 -70.35 7.1 -70.35 7.8 -70.35 8.45 -70.35 9.1 -70.3 9.75 -70.3 10.4 -70.25 11.05 -70.25 11.7 -70.2 12.35 -70.0 15.6 -69.7 18.15 -69.5 20.2 -69.05 22.85 -68.6 26.15 -67.7 30.35 -67.55 31.05 -67.4 31.75 -67.3 32.4 -67.15 33.1 -67.0 33.8 -66.8 34.5 -66.65 35.2 -66.5 35.85 -66.35 36.55 -66.2 37.25 -66.0 37.9 -65.85 38.6 -65.7 39.3 -65.5 40.0 -65.35 40.65 -65.15 41.35 -65.05 41.8 -64.9 42.25 -64.8 42.7 -64.7 43.1 -64.6 43.6 -64.5 44.0 -64.4 44.45 -64.3 44.9 -64.2 45.35 -64.15 45.8 -64.05 46.25 -64.0 46.7 -63.9 47.15 -63.85 47.6 -63.8 48.05 -63.75 48.5 -63.5 50.25 -63.5 51.45 -63.5 51.8 -63.5 52.1 -63.45 52.45 -63.45 52.75 -63.45 53.1 -63.45 53.4 -63.45 53.75 -63.45 54.05 -63.45 54.4 -63.5 54.7 -63.5 55.05 -63.5 55.35 -63.5 55.7 -63.55 56.0 -63.55 56.35 -63.6 56.7 -63.8 58.5 -64.0 59.75 -64.05 60.1 -64.15 60.45 -64.2 60.85 -64.3 61.2 -64.35 61.55 -64.45 61.9 -64.5 62.25 -64.6 62.65 -64.65 63.0 -64.75 63.35 -64.85 63.7 -64.95 64.05 -65.0 64.4 -65.1 64.75 -65.2 65.1 -65.3 65.5 -66.2 68.8 -67.55 72.85 -69.1 77.7 -70.15 81.7 -70.3 82.35 -70.45 83.0 -70.65 83.65 -70.8 84.25 -70.95 84.9 -71.05 85.55 -71.2 86.2 -71.35 86.85 -71.5 87.5 -71.6 88.15 -71.75 88.8 -71.85 89.45 -72.0 90.15 -72.1 90.8 -72.2 91.45 -72.3 92.1 -72.4 92.55 -72.5 93.25 -72.5 93.35 -72.5 93.4 -72.5 93.5 -72.5 93.55 -72.5 93.6 -72.5 93.7 -72.5 93.75 -72.45 93.8 -72.45 93.9 -72.4 93.95 -72.4 94.0 -72.35 94.05 -72.3 94.1 -72.25 94.2 -72.2 94.25 -72.15 94.3 -72.1 94.35 -72.0 94.45 -71.85 94.6 -71.8 94.6 -71.6 94.8 -71.4 95.0 -71.2 95.2 -71.0 95.4 -70.8 95.6 -70.6 95.8 -70.35 95.95 -70.15 96.15 -69.95 96.35 -69.75 96.55 -69.55 96.75 -69.3 96.9 -69.1 97.1 -68.9 97.3 -68.7 97.45 -68.45 97.65 -68.2 97.85 -67.95 98.05 -67.7 98.3 -67.45 98.5 -67.2 98.7 -66.9 98.9 -66.65 99.1 -66.4 99.3 -66.15 99.45 -65.85 99.65 -65.6 99.85 -65.35 100.05 -65.05 100.25 -64.8 100.4 -64.5 100.6 -64.25 100.75 -63.8 101.05 -63.35 101.3 -62.9 101.6 -62.45 101.85 -61.95 102.1 -61.5 102.35 -61.05 102.55 -60.55 102.8 -60.1 103.0 -59.6 103.2 -59.1 103.4 -58.6 103.6 -58.1 103.8 -57.65 103.95 -57.1 104.1 -56.6 104.25 -56.0 104.45 -55.35 104.6 -54.7 104.8 -54.1 104.95 -53.45 105.1 -52.8 105.25 -52.2 105.35 -51.55 105.5 -50.9 105.65 -50.25 105.75 -49.6 105.85 -48.95 106.0 -48.3 106.1 -47.65 106.2 -47.05 106.3 -46.35 106.4 -46.0 106.45 -44.95 106.55 -44.05 106.7 -43.55 106.75 -41.15 107.05 -39.1 107.25 -38.8 107.25 -38.5 107.3 -38.25 107.3 -37.95 107.3 -37.65 107.3 -37.35 107.3 -37.05 107.3 -36.75 107.25 -36.5 107.25 -36.2 107.2 -35.9 107.2 -35.6 107.15 -35.3 107.1 -35.05 107.1 -34.75 107.05 -34.45 107.0 -34.4 107.0 -34.35 107.0 -34.4 107.0 -34.3 106.95 -34.25 106.95 -34.2 106.95 -34.15 106.95 -34.15 106.9 -34.1 106.9 -34.05 106.9 -34.05 106.9 -34.0 106.85 -33.95 106.85 -33.9 106.8 -33.9 106.8 -33.85 106.75 L-33.85 106.75 M-35.4 83.6 Q-35.4 84.0 -35.4 84.4 -35.4 84.8 -35.4 85.2 -35.4 85.6 -35.35 85.95 -35.35 86.35 -35.35 86.75 -35.3 87.1 -35.3 87.5 -35.25 87.85 -35.25 88.25 -35.2 88.6 -35.15 89.0 -35.1 89.35 -35.05 89.75 -35.0 90.1 -34.95 90.5 -34.9 90.85 -34.85 91.2 -34.8 91.6 -34.75 91.95 -34.7 92.3 -34.6 92.65 -34.55 93.05 -34.45 93.4 -34.4 93.75 -34.35 94.15 -34.25 94.5 -34.15 94.85 -34.1 95.2 -34.0 95.6 -33.9 96.1 -33.75 96.6 -33.6 97.1 -33.45 97.65 -33.3 98.15 -33.15 98.65 -33.0 99.15 -32.85 99.65 -32.7 100.15 -32.55 100.65 -32.35 101.15 -32.2 101.65 -32.0 102.1 -31.85 102.6 -31.65 103.1 -31.45 103.6 -31.2 104.3 -30.95 105.0 -30.7 105.7 -30.45 106.4 -30.2 107.1 -30.0 107.85 -29.8 108.55 -29.6 109.25 -29.4 109.95 -29.25 110.7 -29.05 111.4 -28.9 112.15 -28.75 112.85 -28.6 113.6 -28.45 114.35 -28.35 115.1 -28.35 115.1 -28.25 115.55 -28.2 115.85 -28.15 116.0 -28.1 116.15 -28.1 116.25 -28.05 116.35 -28.0 116.4 -27.95 116.5 -27.9 116.55 -27.85 116.6 -27.8 116.65 -27.75 116.7 -27.65 116.7 -27.6 116.75 -27.5 116.75 -27.4 116.75 -27.3 116.75 -27.2 116.7 -27.05 116.7 -27.0 116.7 -26.9 116.65 -26.8 116.6 -26.75 116.6 -26.55 116.5 -26.05 116.3 -23.8 115.4 -20.55 113.8 -19.9 113.5 -18.6 112.85 -17.35 112.2 -16.7 111.9 -16.2 111.65 -15.65 111.45 -15.15 111.2 -14.6 111.0 -14.05 110.85 -13.5 110.7 -13.0 110.55 -12.45 110.4 -11.9 110.3 -11.35 110.2 -10.75 110.1 -10.2 110.05 -9.65 110.0 -9.1 109.95 -8.5 109.95 -7.95 109.95 -7.6 109.95 -7.3 109.95 -6.95 110.0 -6.65 110.0 -6.3 110.0 -6.0 110.05 -5.65 110.1 -5.35 110.15 -5.0 110.15 -4.7 110.2 -4.35 110.25 -4.05 110.3 -3.7 110.4 -3.4 110.45 -3.05 110.5 -2.75 110.6 0.7 111.35 4.55 112.25 11.05 113.75 16.45 115.25 16.9 115.35 17.3 115.45 17.75 115.55 18.15 115.65 18.6 115.75 19.0 115.85 19.45 115.9 19.85 116.0 20.3 116.05 20.75 116.1 21.15 116.15 21.6 116.2 22.05 116.25 22.45 116.25 22.9 116.3 23.35 116.3 23.8 116.3 24.2 116.3 24.6 116.3 25.05 116.25 25.45 116.25 25.9 116.2 26.3 116.2 26.7 116.15 27.15 116.1 27.55 116.0 27.95 115.95 28.4 115.85 28.8 115.8 29.2 115.7 29.6 115.6 30.0 115.5 30.3 115.4 30.6 115.3 30.85 115.25 31.15 115.15 31.45 115.05 31.7 114.95 32.0 114.85 32.3 114.7 32.55 114.6 32.85 114.5 33.1 114.4 33.4 114.25 33.65 114.15 33.9 114.0 34.2 113.9 34.45 113.75 35.15 113.4 35.85 113.1 36.55 112.8 37.25 112.45 37.95 112.15 38.65 111.85 39.35 111.55 40.1 111.25 40.8 110.95 41.5 110.7 42.2 110.4 42.95 110.1 43.65 109.85 44.35 109.55 45.1 109.3 45.8 109.05 46.05 108.95 46.25 108.9 46.5 108.8 46.75 108.75 47.0 108.65 47.25 108.6 47.45 108.5 47.7 108.45 47.95 108.4 48.2 108.35 48.45 108.3 48.7 108.25 48.9 108.2 49.15 108.15 49.4 108.1 49.65 108.1 50.0 108.05 50.4 108.0 50.75 108.0 51.1 107.95 51.45 107.95 51.85 107.95 52.2 107.95 52.55 108.0 52.9 108.0 53.25 108.05 53.65 108.1 54.0 108.15 54.35 108.2 54.7 108.25 55.05 108.3 55.4 108.4 55.6 108.45 55.75 108.5 55.95 108.55 56.15 108.6 56.3 108.65 56.5 108.7 56.7 108.75 56.85 108.8 57.05 108.85 57.25 108.95 57.4 109.0 57.6 109.05 57.75 109.1 57.95 109.2 58.1 109.25 58.3 109.3 58.75 109.45 59.5 109.75 60.35 110.1 60.65 110.25 60.7 110.25 60.75 110.3 60.8 110.3 60.85 110.3 60.9 110.35 60.95 110.35 61.0 110.35 61.05 110.35 61.05 110.35 61.1 110.35 61.15 110.35 61.15 110.3 61.15 110.25 61.2 110.25 61.2 110.2 61.2 110.15 61.25 110.15 61.25 110.1 61.25 110.05 61.25 110.0 61.3 109.75 61.4 109.5 61.45 109.25 61.5 108.95 61.6 108.7 61.65 108.45 61.7 108.2 61.75 107.95 61.8 107.65 61.85 107.4 61.95 107.15 62.0 106.9 62.05 106.6 62.1 106.35 62.15 106.1 62.2 105.85 62.25 105.65 62.25 105.45 62.3 105.25 62.35 105.05 62.35 104.9 62.4 104.7 62.4 104.5 62.45 104.3 62.45 104.1 62.5 103.9 62.55 103.7 62.55 103.55 62.6 103.35 62.6 103.15 62.65 102.95 62.65 102.75 62.8 101.8 62.9 99.85 62.9 99.5 62.95 99.2 62.95 98.85 62.95 98.5 62.95 98.2 62.95 97.85 62.9 97.5 62.9 97.2 62.9 96.85 62.85 96.5 62.85 96.2 62.8 95.85 62.75 95.5 62.7 95.2 62.7 94.85 62.65 94.55 62.6 94.25 62.55 93.95 62.5 93.65 62.45 93.35 62.4 93.05 62.3 92.75 62.25 92.45 62.2 92.15 62.15 91.85 62.05 91.55 62.0 91.25 61.95 90.95 61.85 90.65 61.8 90.4 61.7 90.1 61.65 89.8 61.5 89.3 61.4 88.75 61.25 88.25 61.1 87.75 60.95 87.25 60.8 86.7 60.65 86.2 60.5 85.7 60.3 85.2 60.15 84.7 60.0 84.2 59.8 83.7 59.65 83.2 59.45 82.7 59.3 82.2 59.1 81.7 58.5 80.05 58.05 78.7 57.85 78.1 57.7 77.5 57.55 76.85 57.4 76.25 57.25 75.65 57.1 75.05 56.95 74.4 56.85 73.8 56.7 73.2 56.6 72.55 56.5 71.95 56.4 71.3 56.35 70.7 56.25 70.05 56.2 69.45 56.15 68.8 56.1 68.5 56.1 68.2 56.05 67.9 56.05 67.6 56.0 67.3 56.0 67.0 56.0 66.7 55.95 66.4 55.95 66.1 55.95 65.8 55.95 65.5 55.95 65.15 55.95 64.85 55.95 64.55 55.95 64.25 55.95 63.95 55.95 63.5 55.95 63.0 55.95 62.5 56.0 62.05 56.0 61.55 56.05 61.1 56.05 60.6 56.1 60.15 56.15 59.7 56.15 59.2 56.2 58.75 56.25 58.25 56.3 57.8 56.4 57.3 56.45 56.85 56.5 56.35 56.55 55.95 56.65 55.55 56.7 55.15 56.8 54.75 56.85 54.3 56.95 53.9 57.0 53.5 57.1 53.1 57.2 52.7 57.25 52.3 57.35 51.9 57.45 51.5 57.55 51.1 57.65 50.7 57.75 50.3 57.85 49.9 58.35 47.95 59.75 43.2 61.1 38.45 61.65 35.95 61.7 35.65 61.8 35.35 61.85 35.05 61.9 34.75 61.95 34.45 62.0 34.2 62.05 33.9 62.1 33.6 62.1 33.3 62.15 33.0 62.15 32.7 62.2 32.4 62.2 32.05 62.2 31.75 62.2 31.45 62.2 31.15 62.2 31.0 62.2 30.9 62.2 30.75 62.15 30.6 62.15 30.5 62.15 30.35 62.15 30.25 62.1 30.1 62.1 29.95 62.1 29.85 62.1 29.7 62.05 29.55 62.05 29.45 62.0 29.3 62.0 29.15 62.0 29.05 62.0 29.0 61.95 29.0 61.9 29.0 61.85 28.95 61.85 28.95 61.85 28.95 61.8 29.0 61.8 29.0 61.8 29.05 61.75 29.05 61.75 29.1 61.7 29.1 61.7 29.15 61.65 29.2 61.65 29.2 61.6 29.25 61.5 29.45 61.35 29.7 61.25 29.9 61.1 30.15 61.0 30.35 60.85 30.55 60.7 30.75 60.55 31.0 60.45 31.2 60.3 31.4 60.15 31.6 60.0 31.8 59.85 32.0 59.7 32.2 59.55 32.4 59.4 32.6 59.2 32.9 58.95 33.15 58.75 33.45 58.5 33.7 58.3 34.0 58.05 34.25 57.85 34.55 57.6 34.8 57.35 35.05 57.15 35.35 56.9 35.6 56.65 35.85 56.45 36.15 56.2 36.4 55.95 36.65 55.7 36.9 55.55 37.05 55.4 37.2 55.25 37.35 55.1 37.5 54.95 37.7 54.8 37.85 54.65 38.0 54.5 38.1 54.35 38.25 54.2 38.4 54.05 38.55 53.9 38.7 53.75 38.85 53.55 39.0 53.4 39.15 53.25 39.25 53.0 39.45 52.7 39.7 52.45 39.9 52.2 40.1 51.9 40.3 51.65 40.5 51.35 40.7 51.05 40.85 50.8 41.05 50.5 41.2 50.2 41.4 49.9 41.55 49.6 41.7 49.3 41.85 49.0 42.0 48.7 42.1 48.3 42.25 47.9 42.4 47.5 42.55 47.15 42.7 46.75 42.85 46.35 42.95 45.95 43.05 45.5 43.15 45.1 43.25 44.7 43.35 44.3 43.4 43.9 43.45 43.5 43.55 43.05 43.6 42.65 43.6 42.25 43.65 41.9 43.65 41.55 43.65 41.2 43.7 40.9 43.65 40.55 43.65 40.2 43.65 39.85 43.65 39.55 43.6 39.2 43.55 38.85 43.55 38.55 43.5 38.2 43.45 37.85 43.4 37.55 43.3 37.2 43.25 36.85 43.2 36.55 43.15 36.25 43.05 36.0 43.0 35.7 42.9 35.4 42.8 35.1 42.7 34.8 42.6 34.55 42.5 34.25 42.4 33.95 42.3 33.7 42.2 33.4 42.1 33.15 42.0 32.85 41.85 32.55 41.75 32.3 41.65 31.0 41.05 30.05 40.65 29.45 40.4 28.9 40.2 28.3 40.0 27.7 39.85 27.1 39.65 26.5 39.5 25.9 39.35 25.3 39.2 24.7 39.1 24.1 39.0 23.5 38.9 22.9 38.8 22.3 38.7 21.7 38.65 21.05 38.6 20.45 38.55 20.15 38.55 19.85 38.5 19.5 38.5 19.2 38.5 18.9 38.5 18.6 38.5 18.25 38.5 17.95 38.5 17.65 38.5 17.35 38.5 17.0 38.5 16.7 38.55 16.4 38.55 16.1 38.55 15.75 38.6 15.45 38.6 15.1 38.65 14.75 38.7 14.4 38.7 14.05 38.75 13.7 38.8 13.3 38.9 12.95 38.95 12.6 39.0 12.25 39.05 11.9 39.1 11.55 39.2 11.2 39.25 10.85 39.35 10.5 39.4 10.15 39.5 9.8 39.55 8.45 39.9 5.55 40.8 1.5 42.1 -0.3 42.55 -0.8 42.7 -1.3 42.8 -1.8 42.95 -2.35 43.05 -2.85 43.15 -3.35 43.25 -3.85 43.35 -4.4 43.45 -4.9 43.5 -5.4 43.6 -5.9 43.65 -6.45 43.7 -6.95 43.75 -7.5 43.8 -8.0 43.85 -8.5 43.85 -8.95 43.9 -9.35 43.9 -9.8 43.9 -10.25 43.9 -10.65 43.9 -11.1 43.9 -11.55 43.9 -11.95 43.9 -12.4 43.9 -12.85 43.85 -13.25 43.85 -13.7 43.8 -14.15 43.75 -14.55 43.75 -15.0 43.7 -15.4 43.65 -15.7 43.6 -16.05 43.55 -16.35 43.5 -16.65 43.45 -16.95 43.4 -17.25 43.35 -17.6 43.3 -17.9 43.25 -18.2 43.2 -18.5 43.1 -18.8 43.05 -19.1 43.0 -19.4 42.9 -19.7 42.85 -20.05 42.75 -20.35 42.7 -21.45 42.4 -22.55 42.05 -23.65 41.7 -24.75 41.3 -25.8 40.9 -26.85 40.45 -27.9 39.95 -28.9 39.45 -29.9 38.95 -30.9 38.35 -31.85 37.8 -32.8 37.15 -33.8 36.55 -34.7 35.85 -35.65 35.15 -36.5 34.4 -37.0 34.0 -38.45 32.75 -38.5 32.7 -38.6 32.6 -38.7 32.55 -38.75 32.5 -38.75 32.5 -38.95 32.45 -38.95 32.5 -39.0 32.5 -39.0 32.55 -39.0 32.6 -39.0 32.65 -39.0 32.65 -39.0 32.75 -39.0 32.85 -38.95 32.95 -38.95 33.05 -38.95 33.15 -38.95 33.25 -38.9 33.35 -38.9 33.45 -38.9 33.55 -38.85 33.65 -38.85 33.75 -38.85 33.85 -38.8 33.95 -38.8 34.05 -38.8 34.15 -38.75 34.25 -38.7 34.6 -38.6 35.0 -38.55 35.35 -38.45 35.7 -38.4 36.1 -38.3 36.45 -38.2 36.8 -38.15 37.2 -38.05 37.55 -37.95 37.9 -37.85 38.25 -37.75 38.65 -37.65 39.0 -37.55 39.35 -37.45 39.7 -37.35 40.1 -37.25 40.5 -37.1 40.9 -37.0 41.3 -36.85 41.65 -36.75 42.05 -36.65 42.45 -36.5 42.85 -36.4 43.25 -36.3 43.65 -36.15 44.05 -36.05 44.45 -35.9 44.8 -35.8 45.2 -35.65 45.6 -35.55 46.0 -35.45 46.4 -35.3 46.9 -35.15 47.4 -35.0 47.85 -34.9 48.35 -34.75 48.85 -34.65 49.35 -34.55 49.85 -34.45 50.35 -34.35 50.85 -34.25 51.35 -34.15 51.85 -34.05 52.35 -34.0 52.85 -33.9 53.4 -33.85 53.9 -33.8 54.4 -33.75 54.65 -33.75 54.95 -33.7 55.2 -33.7 55.5 -33.7 55.75 -33.65 56.05 -33.65 56.3 -33.65 56.6 -33.6 56.85 -33.6 57.1 -33.6 57.4 -33.6 57.65 -33.55 57.95 -33.55 58.2 -33.55 58.5 -33.55 58.75 -33.55 59.05 -33.55 59.4 -33.55 59.7 -33.55 60.05 -33.55 60.35 -33.55 60.65 -33.55 61.0 -33.55 61.3 -33.55 61.6 -33.55 61.95 -33.6 62.25 -33.6 62.6 -33.6 62.9 -33.6 63.2 -33.65 63.55 -33.65 63.85 -33.7 64.9 -33.9 67.1 -34.1 69.05 -34.3 70.75 -34.4 71.75 -34.6 73.3 -34.9 75.75 -34.9 75.85 -35.0 76.85 -35.1 77.75 -35.35 80.8 -35.35 80.85 -35.35 81.4 -35.4 82.3 -35.4 83.3 -35.4 83.6 L-35.4 83.6 M-39.7 24.45 Q-39.7 24.5 -39.7 25.5 -39.7 25.6 -39.7 25.7 -39.65 25.8 -39.65 25.9 -39.65 26.0 -39.6 26.1 -39.6 26.2 -39.55 26.3 -39.5 26.4 -39.45 26.5 -39.4 26.6 -39.4 26.7 -39.35 26.8 -39.25 26.9 -39.2 26.95 -39.15 27.05 -39.05 27.25 -38.8 27.5 -38.4 28.0 -38.0 28.45 -37.6 28.9 -37.2 29.35 -36.8 29.8 -36.35 30.2 -35.9 30.65 -35.45 31.05 -35.05 31.45 -34.55 31.85 -34.1 32.25 -33.65 32.65 -33.15 33.0 -32.65 33.4 -32.15 33.75 -31.65 34.1 -31.1 34.5 -30.55 34.85 -29.95 35.2 -29.4 35.55 -28.8 35.85 -28.2 36.2 -27.65 36.5 -27.05 36.8 -26.45 37.1 -25.8 37.35 -25.2 37.6 -24.6 37.85 -23.95 38.1 -23.35 38.35 -22.7 38.6 -22.05 38.8 -21.4 39.0 -20.8 39.2 -20.15 39.4 -19.5 39.55 -18.85 39.7 -18.2 39.85 -17.55 40.0 -16.9 40.1 -16.25 40.25 -15.6 40.3 -14.95 40.4 -14.3 40.5 -13.65 40.55 -12.95 40.6 -12.3 40.65 -11.65 40.7 -11.3 40.7 -11.0 40.7 -10.65 40.7 -10.3 40.7 -10.0 40.7 -9.65 40.7 -9.3 40.7 -9.0 40.7 -8.65 40.65 -8.3 40.65 -8.0 40.6 -7.65 40.6 -7.3 40.55 -7.0 40.55 -6.65 40.5 -6.3 40.45 -6.05 40.45 -5.85 40.4 -5.6 40.35 -5.35 40.35 -5.15 40.3 -4.9 40.3 -4.65 40.25 -4.45 40.2 -4.2 40.15 -3.95 40.15 -3.75 40.1 -3.5 40.05 -3.25 40.0 -3.05 39.95 -2.8 39.9 -2.55 39.85 -2.2 39.75 -1.8 39.7 -1.45 39.6 -1.05 39.5 -0.7 39.4 -0.3 39.3 0.05 39.2 0.45 39.1 0.8 39.0 1.2 38.9 1.55 38.75 1.9 38.65 2.3 38.5 2.65 38.4 3.0 38.25 3.35 38.15 3.65 38.05 3.9 37.95 4.2 37.85 4.45 37.75 4.75 37.65 5.0 37.55 5.3 37.45 5.6 37.35 5.85 37.25 6.15 37.2 6.4 37.1 6.7 37.0 7.0 36.9 7.25 36.85 7.55 36.75 7.8 36.65 8.3 36.5 8.75 36.4 9.25 36.3 9.7 36.15 10.2 36.05 10.65 35.95 11.15 35.85 11.6 35.8 12.1 35.7 12.55 35.65 13.05 35.55 13.55 35.5 14.0 35.45 14.5 35.4 15.0 35.4 15.45 35.35 16.0 35.35 16.55 35.3 17.1 35.3 17.6 35.3 18.15 35.3 18.7 35.3 19.2 35.35 19.75 35.35 20.3 35.4 20.8 35.4 21.35 35.45 21.9 35.5 22.45 35.55 22.95 35.6 23.5 35.7 24.0 35.75 24.45 35.85 24.95 35.9 25.4 36.0 25.85 36.1 26.35 36.2 26.8 36.3 27.25 36.4 27.7 36.5 28.15 36.65 28.65 36.75 29.1 36.9 29.55 37.05 30.0 37.15 30.45 37.3 30.9 37.45 31.3 37.65 32.6 38.1 34.7 39.05 35.0 39.2 35.35 39.3 35.65 39.45 36.0 39.55 36.3 39.65 36.65 39.8 36.95 39.9 37.3 39.95 37.65 40.05 37.95 40.15 38.3 40.2 38.65 40.25 39.0 40.35 39.35 40.4 39.7 40.45 40.05 40.45 40.35 40.5 40.7 40.5 41.0 40.5 41.3 40.5 41.65 40.55 41.95 40.5 42.25 40.5 42.55 40.45 42.9 40.45 43.2 40.4 43.5 40.35 43.8 40.3 44.15 40.25 44.45 40.15 44.75 40.1 45.05 40.0 45.4 39.9 45.7 39.8 46.05 39.7 46.35 39.6 46.7 39.45 47.0 39.3 47.3 39.2 47.6 39.05 47.9 38.9 48.2 38.7 48.5 38.55 48.8 38.4 49.1 38.2 49.4 38.0 49.65 37.8 49.95 37.6 50.25 37.4 50.55 37.15 50.85 36.95 51.15 36.7 51.45 36.45 51.75 36.2 52.0 35.95 52.3 35.7 52.6 35.45 52.85 35.2 53.1 34.95 53.4 34.7 53.65 34.4 53.9 34.15 54.2 33.85 54.45 33.6 54.85 33.15 55.25 32.65 55.65 32.15 56.05 31.65 56.45 31.15 56.8 30.65 57.15 30.1 57.5 29.6 57.85 29.05 58.2 28.55 58.5 28.0 58.8 27.45 59.15 26.9 59.4 26.35 59.7 25.8 60.0 25.2 60.05 25.05 60.2 24.75 60.25 24.65 60.25 24.55 60.3 24.45 60.35 24.35 60.35 24.25 60.35 24.15 60.4 24.05 60.4 23.95 60.45 23.85 60.45 23.75 60.45 23.65 60.45 23.55 60.45 23.45 60.45 23.35 60.45 23.25 60.45 23.15 60.45 23.05 60.45 23.0 60.45 22.9 60.45 22.8 60.4 22.75 60.4 22.65 60.4 22.55 60.4 22.45 60.35 22.4 60.35 22.3 60.35 22.25 60.3 22.15 60.3 22.05 60.25 22.0 60.25 21.9 60.2 21.8 60.05 21.25 59.9 20.75 59.75 20.2 59.6 19.7 59.45 19.15 59.3 18.65 59.15 18.1 58.95 17.6 58.8 17.05 58.6 16.55 58.45 16.05 58.25 15.5 58.1 15.0 57.9 14.45 57.7 13.95 57.5 13.45 57.05 12.25 56.6 11.05 56.1 9.9 55.6 8.7 55.1 7.55 54.6 6.4 54.05 5.25 53.5 4.1 52.95 2.95 52.4 1.8 51.85 0.7 51.25 -0.45 50.65 -1.55 50.05 -2.7 49.45 -3.8 48.8 -4.9 48.7 -5.1 48.55 -5.35 48.45 -5.55 48.3 -5.8 48.15 -6.0 48.0 -6.2 47.85 -6.4 47.7 -6.6 47.6 -6.8 47.4 -7.05 47.25 -7.25 47.1 -7.45 46.95 -7.6 46.8 -7.8 46.6 -8.0 46.45 -8.2 46.1 -8.6 45.75 -8.95 45.4 -9.3 45.05 -9.65 44.65 -10.0 44.25 -10.3 43.9 -10.65 43.5 -10.95 43.1 -11.25 42.7 -11.55 42.25 -11.85 41.85 -12.1 41.4 -12.4 41.0 -12.65 40.55 -12.9 40.1 -13.15 39.65 -13.4 39.15 -13.6 38.7 -13.85 38.2 -14.05 37.75 -14.3 37.25 -14.5 36.8 -14.7 36.3 -14.85 35.8 -15.05 35.35 -15.25 34.85 -15.4 34.35 -15.55 33.85 -15.75 33.35 -15.9 32.85 -16.05 32.35 -16.15 32.05 -16.25 31.7 -16.35 31.4 -16.4 31.1 -16.5 30.75 -16.55 30.45 -16.65 30.1 -16.7 29.8 -16.8 29.5 -16.85 29.15 -16.9 28.85 -16.95 28.5 -17.05 28.2 -17.1 27.85 -17.15 27.55 -17.2 27.2 -17.25 26.0 -17.45 24.55 -17.6 24.05 -17.65 23.15 -17.7 22.15 -17.8 21.75 -17.8 20.1 -17.95 17.4 -17.95 17.15 -17.95 16.85 -17.95 16.6 -17.95 16.35 -17.9 16.05 -17.9 15.8 -17.9 15.55 -17.85 15.25 -17.85 15.0 -17.8 14.75 -17.8 14.5 -17.75 14.2 -17.7 13.95 -17.7 13.65 -17.65 13.4 -17.6 13.15 -17.55 12.8 -17.5 12.4 -17.45 12.05 -17.4 11.7 -17.3 11.35 -17.25 10.95 -17.2 10.6 -17.15 10.25 -17.1 9.9 -17.0 9.55 -16.95 9.15 -16.9 8.8 -16.8 8.45 -16.75 8.1 -16.65 7.75 -16.6 7.35 -16.5 6.65 -16.35 6.0 -16.2 5.3 -16.05 4.6 -15.9 3.9 -15.75 3.25 -15.6 2.55 -15.45 1.85 -15.25 1.2 -15.1 0.5 -14.9 -0.15 -14.7 -0.85 -14.55 -1.5 -14.35 -2.2 -14.15 -2.85 -13.95 -3.55 -13.75 -4.4 -13.5 -5.25 -13.2 -6.1 -12.95 -6.95 -12.65 -7.8 -12.35 -8.65 -12.05 -9.45 -11.75 -10.3 -11.4 -11.15 -11.1 -11.95 -10.8 -12.8 -10.45 -13.65 -10.1 -14.45 -9.8 -15.3 -9.45 -16.1 -9.1 -16.9 -8.7 -17.65 -8.4 -18.65 -7.9 -18.8 -7.8 -19.0 -7.7 -19.15 -7.6 -19.3 -7.55 -19.45 -7.45 -19.6 -7.35 -19.75 -7.2 -19.95 -7.1 -20.1 -7.0 -20.25 -6.9 -20.4 -6.8 -20.55 -6.65 -20.7 -6.55 -20.8 -6.45 -20.95 -6.3 -21.1 -6.2 -21.2 -6.1 -22.25 -5.15 -22.75 -4.7 -23.25 -4.25 -23.75 -3.75 -24.25 -3.3 -24.75 -2.8 -25.2 -2.35 -25.7 -1.85 -26.2 -1.35 -26.65 -0.85 -27.1 -0.35 -27.6 0.15 -28.05 0.65 -28.5 1.15 -28.95 1.65 -29.4 2.2 -29.85 2.7 -30.25 3.2 -30.65 3.7 -31.1 4.25 -31.45 4.75 -31.85 5.3 -32.25 5.8 -32.65 6.35 -33.0 6.9 -33.4 7.45 -33.75 7.95 -34.1 8.55 -34.45 9.1 -34.8 9.65 -35.1 10.2 -35.45 10.8 -35.75 11.35 -35.9 11.65 -36.1 12.0 -36.25 12.3 -36.4 12.65 -36.6 12.95 -36.75 13.3 -36.9 13.6 -37.05 13.95 -37.2 14.25 -37.35 14.6 -37.5 14.95 -37.6 15.25 -37.75 15.6 -37.85 15.95 -38.0 16.3 -38.1 16.65 -38.25 17.1 -38.4 17.6 -38.6 18.1 -38.7 18.55 -38.85 19.05 -38.95 19.5 -39.1 20.0 -39.2 20.5 -39.3 21.0 -39.35 21.5 -39.45 21.95 -39.5 22.45 -39.6 22.95 -39.6 23.45 -39.65 23.95 -39.7 24.45 L-39.7 24.45 M40.65 -16.6 Q40.65 -16.6 40.7 -16.6 40.75 -16.65 40.8 -16.65 40.85 -16.7 40.8 -16.8 40.6 -17.05 40.2 -17.55 39.85 -18.0 39.45 -18.45 39.1 -18.9 38.75 -19.35 38.35 -19.8 38.0 -20.25 37.6 -20.7 37.2 -21.15 36.8 -21.55 36.4 -22.0 36.0 -22.4 35.6 -22.85 35.2 -23.25 34.8 -23.65 34.35 -24.1 33.95 -24.5 33.55 -24.85 33.2 -25.2 32.8 -25.55 32.4 -25.85 32.0 -26.2 31.6 -26.55 31.2 -26.85 30.8 -27.2 30.4 -27.5 30.0 -27.8 29.55 -28.1 29.15 -28.4 28.75 -28.75 28.3 -29.0 27.9 -29.3 27.45 -29.6 27.35 -29.65 27.2 -29.75 27.1 -29.8 27.0 -29.9 26.9 -29.95 26.75 -30.0 26.65 -30.05 26.55 -30.15 26.4 -30.2 26.3 -30.25 26.15 -30.3 26.05 -30.35 25.9 -30.4 25.8 -30.45 25.65 -30.55 25.55 -30.55 25.35 -30.65 25.15 -30.7 24.95 -30.75 24.75 -30.8 24.55 -30.85 24.35 -30.9 24.15 -30.95 23.95 -31.0 23.75 -31.05 23.55 -31.05 23.3 -31.05 23.1 -31.1 22.9 -31.1 22.7 -31.1 22.5 -31.1 22.3 -31.05 22.15 -31.05 22.0 -31.05 21.85 -31.0 21.7 -31.0 21.5 -30.95 21.35 -30.95 21.2 -30.9 21.05 -30.9 20.9 -30.85 20.75 -30.85 20.6 -30.8 20.45 -30.75 20.3 -30.7 20.15 -30.65 20.0 -30.6 19.9 -30.55 19.1 -30.3 18.1 -29.9 16.85 -29.45 15.6 -28.95 14.4 -28.5 13.15 -27.95 11.95 -27.45 10.75 -26.9 9.5 -26.35 8.3 -25.8 7.15 -25.25 5.95 -24.65 4.75 -24.05 3.6 -23.45 2.4 -22.8 1.25 -22.15 0.1 -21.55 -1.05 -20.85 -1.55 -20.55 -2.0 -20.3 -2.5 -20.0 -2.95 -19.7 -3.45 -19.45 -3.9 -19.15 -4.4 -18.85 -4.85 -18.55 -5.3 -18.25 -5.75 -17.9 -6.25 -17.6 -6.7 -17.3 -7.15 -17.0 -7.6 -16.65 -8.05 -16.35 -8.5 -16.0 -8.6 -15.95 -8.75 -15.8 -8.95 -15.7 -9.0 -15.65 -9.05 -15.65 -9.05 -15.6 -9.05 -15.55 -9.05 -15.5 -9.05 -15.5 -9.0 -15.5 -9.0 -15.5 -9.0 -15.5 -8.95 -15.5 -8.9 -15.5 -8.85 -15.5 -8.85 -15.5 -8.8 -15.55 -8.75 -15.55 -8.7 -15.55 -8.65 -15.55 -8.65 -15.55 -8.6 -15.55 -8.55 -15.55 -8.5 -15.6 -8.5 -15.6 -8.45 -15.6 -8.4 -15.6 -8.35 -15.65 -0.8 -17.9 0.85 -18.35 7.55 -20.1 11.85 -20.7 14.05 -21.0 15.55 -21.1 16.15 -21.15 16.8 -21.15 17.4 -21.15 18.0 -21.15 18.6 -21.2 19.25 -21.2 19.85 -21.15 20.45 -21.15 21.05 -21.15 21.65 -21.1 22.3 -21.1 22.9 -21.05 23.5 -21.0 24.1 -20.95 24.7 -20.9 25.3 -20.8 25.6 -20.75 25.9 -20.75 26.15 -20.7 26.45 -20.65 26.75 -20.65 27.05 -20.6 27.3 -20.55 27.6 -20.5 27.9 -20.45 28.15 -20.4 28.45 -20.35 28.75 -20.3 29.0 -20.25 29.3 -20.2 29.6 -20.15 29.85 -20.1 30.5 -19.95 31.15 -19.8 31.8 -19.65 32.45 -19.5 33.1 -19.35 33.75 -19.15 34.4 -18.95 35.05 -18.75 35.7 -18.55 36.3 -18.35 36.95 -18.1 37.6 -17.9 38.2 -17.65 38.8 -17.4 39.45 -17.15 40.05 -16.85 40.1 -16.85 40.15 -16.8 40.15 -16.8 40.2 -16.8 40.25 -16.8 40.25 -16.75 40.3 -16.75 40.35 -16.75 40.4 -16.7 40.4 -16.7 40.45 -16.7 40.5 -16.7 40.55 -16.65 40.55 -16.65 40.6 -16.65 40.65 -16.6 L40.65 -16.6" fill="#000000" fill-rule="evenodd" stroke="none"/>
    <path d="M-8.75 -15.6 Q-8.75 -15.6 -8.85 -15.55 -8.9 -15.55 -8.9 -15.55 -8.95 -15.5 -9.0 -15.5 -9.05 -15.5 -9.05 -15.5 -9.1 -15.5 -9.15 -15.5 -9.15 -15.5 -9.2 -15.5 -9.25 -15.55 -9.25 -15.55 -9.3 -15.6 -9.35 -15.65 -9.2 -15.7 -8.9 -15.8 -8.85 -15.75 -8.75 -15.6 L-8.75 -15.6" fill="#fefefe" fill-rule="evenodd" stroke="none"/>
    <path d="M40.75 -16.8 Q40.8 -16.8 40.85 -16.75 40.9 -16.75 40.9 -16.75 40.95 -16.7 40.95 -16.65 40.95 -16.65 40.9 -16.6 40.9 -16.6 40.6 -16.65 40.65 -16.7 40.75 -16.8 L40.75 -16.8" fill="#fefefe" fill-rule="evenodd" stroke="none"/>
  </g>
</svg>
