<?xml version="1.0" encoding="UTF-8" standalone="no"?>
<svg xmlns:xlink="http://www.w3.org/1999/xlink" height="69.1px" width="79.55px" xmlns="http://www.w3.org/2000/svg">
  <g transform="matrix(1.0, 0.0, 0.0, 1.0, 1.0, 1.0)">
    <path d="M62.05 18.35 Q62.95 18.25 63.45 18.3 63.6 18.3 63.75 18.3 63.9 18.3 64.1 18.35 64.25 18.35 64.4 18.4 64.55 18.45 64.7 18.5 64.85 18.55 64.95 18.6 65.1 18.65 65.25 18.7 65.4 18.8 65.55 18.9 65.65 18.95 65.8 19.05 65.85 19.1 65.95 19.15 66.0 19.25 66.1 19.3 66.15 19.35 66.2 19.45 66.3 19.5 66.35 19.55 66.4 19.65 66.45 19.7 66.5 19.75 66.6 19.85 66.65 19.9 66.7 20.0 66.75 20.05 66.8 20.15 66.95 20.4 67.1 20.65 67.2 20.85 67.35 21.1 67.45 21.35 67.55 21.6 67.65 21.85 67.75 22.15 67.85 22.4 67.9 22.65 68.0 22.9 68.05 23.2 68.1 23.45 68.15 23.7 68.2 24.0 68.25 24.25 68.25 24.4 68.3 24.55 68.3 24.7 68.3 24.85 68.3 25.0 68.3 25.1 68.35 25.25 68.35 25.4 68.35 25.55 68.35 25.7 68.35 25.85 68.35 26.0 68.35 26.15 68.35 26.25 68.35 26.4 68.3 26.55 68.3 26.7 68.25 27.25 68.4 27.25 68.7 27.25 68.9 27.25 69.05 27.25 69.25 27.25 69.45 27.25 69.6 27.3 69.8 27.3 70.0 27.35 70.15 27.4 70.35 27.4 70.5 27.45 70.7 27.5 70.85 27.6 71.05 27.65 71.2 27.7 71.4 27.8 71.55 27.9 71.6 27.9 71.6 27.95 71.65 27.95 71.7 28.0 71.75 28.0 71.75 28.0 71.8 28.05 71.85 28.05 71.9 28.1 71.9 28.1 71.95 28.15 72.0 28.15 72.05 28.15 72.05 28.2 72.1 28.2 72.15 28.25 72.45 28.45 72.7 28.7 72.95 28.95 73.15 29.15 73.4 29.4 73.6 29.7 73.85 29.95 74.0 30.2 74.2 30.5 74.35 30.8 74.55 31.1 74.65 31.4 74.8 31.7 74.9 32.05 75.0 32.4 75.05 32.75 75.1 32.95 75.1 33.1 75.15 33.25 75.15 33.4 75.2 33.6 75.2 33.75 75.25 33.9 75.25 34.05 75.25 34.25 75.3 34.4 75.3 34.55 75.3 34.75 75.3 34.9 75.3 35.05 75.3 35.25 75.3 35.4 75.3 35.55 75.25 35.65 75.25 35.8 75.25 35.9 75.25 36.05 75.2 36.15 75.2 36.3 75.15 36.4 75.15 36.55 75.1 36.65 75.1 36.8 75.05 36.9 75.0 37.05 74.95 37.15 74.9 37.3 74.85 37.4 74.75 37.7 74.7 37.75 74.6 37.85 74.5 37.85 74.4 37.85 74.1 37.75 69.95 36.25 69.2 35.95 68.55 35.7 67.95 35.5 67.35 35.3 66.7 35.1 66.1 34.9 65.45 34.7 64.85 34.5 64.2 34.3 63.55 34.1 62.95 33.9 62.3 33.75 61.65 33.6 61.0 33.4 60.4 33.25 59.75 33.1 59.1 32.95 58.45 32.8 57.85 32.7 57.2 32.55 56.55 32.45 55.9 32.35 55.3 32.25 54.65 32.15 54.0 32.1 53.4 32.0 52.75 31.95 52.1 31.9 51.45 31.85 50.8 31.85 50.15 31.8 49.5 31.8 48.9 31.8 46.5 31.85 43.6 32.05 41.7 32.15 39.0 32.45 38.65 32.5 38.35 32.5 38.0 32.55 37.65 32.6 37.35 32.65 37.0 32.7 36.65 32.75 36.3 32.8 36.0 32.85 35.65 32.9 35.3 32.95 35.0 33.0 34.65 33.1 34.3 33.15 34.0 33.2 33.65 33.25 29.15 34.2 26.05 35.0 25.65 35.1 25.2 35.25 24.8 35.35 24.4 35.5 24.0 35.65 23.6 35.8 23.15 35.9 22.75 36.1 22.35 36.25 21.95 36.4 21.55 36.55 21.2 36.75 20.8 36.9 20.4 37.1 20.0 37.3 19.65 37.5 16.35 39.1 15.5 39.5 15.05 39.7 14.6 39.9 14.2 40.1 13.75 40.35 13.3 40.55 12.9 40.8 12.45 41.05 12.05 41.25 11.6 41.5 11.2 41.75 10.8 42.0 10.35 42.25 9.95 42.5 9.55 42.75 9.15 43.0 8.7 43.3 7.9 43.8 6.45 44.75 4.85 45.8 4.2 46.25 3.5 46.65 3.4 46.75 3.3 46.8 3.25 46.8 3.15 46.85 3.1 46.85 3.0 46.85 2.95 46.85 2.85 46.85 2.8 46.8 2.75 46.8 2.65 46.75 2.6 46.7 2.55 46.65 2.5 46.6 2.45 46.55 2.4 46.45 2.35 46.4 2.35 46.35 2.3 46.3 2.3 46.25 2.3 46.2 2.25 46.15 2.25 46.1 2.25 46.05 2.25 46.0 2.25 45.9 2.25 45.85 2.25 45.8 2.25 45.75 2.3 45.7 2.3 45.65 2.3 45.6 2.35 45.55 2.45 45.3 2.55 45.1 2.6 44.9 2.7 44.65 2.8 44.45 2.9 44.25 3.0 44.0 3.1 43.8 3.2 43.6 3.35 43.4 3.45 43.15 3.55 42.95 3.65 42.75 3.8 42.55 3.9 42.35 4.0 42.15 4.05 42.1 4.05 42.05 4.05 42.05 4.1 42.0 4.1 41.95 4.1 41.95 4.1 41.9 4.1 41.85 4.1 41.85 4.1 41.8 4.1 41.75 4.1 41.7 4.1 41.7 4.1 41.65 4.05 41.6 4.05 41.6 4.0 41.45 3.95 41.35 3.85 41.2 3.8 41.05 3.75 40.9 3.7 40.8 3.65 40.65 3.6 40.5 3.55 40.35 3.5 40.25 3.45 40.1 3.4 39.95 3.35 39.8 3.35 39.7 3.3 39.55 3.25 39.4 3.15 39.0 3.15 38.65 3.1 38.25 3.1 37.9 3.1 37.5 3.15 37.15 3.15 36.75 3.25 36.4 3.3 36.05 3.4 35.7 3.5 35.35 3.65 35.0 3.8 34.65 4.0 34.3 4.15 34.0 4.35 33.65 4.45 33.45 4.6 33.3 4.7 33.1 4.85 32.9 4.95 32.75 5.1 32.6 5.25 32.4 5.4 32.25 5.55 32.1 5.7 31.95 5.85 31.8 6.05 31.65 6.2 31.5 6.35 31.35 6.55 31.2 6.7 31.1 7.0 30.85 7.35 30.65 7.65 30.45 7.95 30.3 8.3 30.1 8.65 29.95 8.95 29.8 9.3 29.65 9.65 29.5 10.0 29.4 10.35 29.3 10.7 29.2 11.05 29.1 11.45 29.0 11.8 28.95 12.2 28.9 12.4 28.85 12.55 28.85 12.75 28.8 12.95 28.8 13.1 28.75 13.3 28.75 13.5 28.75 13.65 28.75 13.85 28.7 14.05 28.7 14.2 28.7 14.4 28.7 14.6 28.7 14.8 28.7 14.95 28.7 15.15 28.7 15.15 28.7 15.25 28.7 15.25 28.65 15.2 28.55 15.2 28.5 15.2 28.45 15.05 28.0 15.0 27.5 14.9 27.05 14.85 26.6 14.85 26.15 14.85 25.7 14.85 25.2 14.9 24.75 14.95 24.3 15.05 23.85 15.15 23.45 15.25 23.0 15.4 22.55 15.55 22.1 15.75 21.65 15.95 21.25 16.0 21.15 16.05 21.05 16.1 20.95 16.15 20.85 16.2 20.75 16.3 20.65 16.35 20.55 16.4 20.45 16.5 20.35 16.55 20.25 16.6 20.2 16.7 20.1 16.8 20.0 16.85 19.95 16.95 19.85 17.0 19.75 17.2 19.55 17.45 19.35 17.65 19.15 17.9 19.0 18.15 18.85 18.35 18.7 18.6 18.5 18.85 18.4 19.1 18.25 19.4 18.15 19.65 18.05 19.9 17.95 20.2 17.85 20.45 17.8 20.75 17.7 21.05 17.65 21.2 17.65 21.3 17.6 21.45 17.6 21.55 17.6 21.7 17.6 21.85 17.6 21.95 17.6 22.1 17.6 22.2 17.65 22.35 17.65 22.5 17.65 22.6 17.7 22.75 17.7 22.85 17.75 23.0 17.75 23.1 17.8 23.25 17.85 23.6 17.95 23.55 17.45 23.6 16.8 23.6 16.55 23.6 16.3 23.65 16.0 23.65 15.75 23.7 15.5 23.75 15.25 23.8 15.0 23.9 14.75 23.95 14.5 24.05 14.3 24.1 14.05 24.2 13.8 24.3 13.55 24.45 13.35 24.55 13.1 24.7 12.85 24.8 12.7 24.9 12.55 25.0 12.4 25.05 12.2 25.15 12.05 25.25 11.9 25.4 11.75 25.5 11.6 25.6 11.45 25.7 11.3 25.85 11.2 25.95 11.05 26.05 10.9 26.2 10.75 26.3 10.6 26.45 10.5 26.75 10.2 27.05 9.95 27.4 9.7 27.7 9.5 28.05 9.3 28.4 9.15 28.75 9.0 29.1 8.85 29.45 8.75 29.8 8.7 30.2 8.6 30.55 8.6 30.95 8.55 31.35 8.55 31.75 8.55 32.15 8.6 32.4 8.65 32.7 8.7 32.95 8.75 33.25 8.8 33.5 8.85 33.75 8.95 34.0 9.0 34.25 9.1 34.5 9.2 34.75 9.3 35.0 9.4 35.25 9.5 35.5 9.6 35.75 9.7 36.0 9.8 36.25 9.95 36.3 9.95 36.35 10.0 36.45 10.05 36.5 10.1 36.5 10.1 36.6 10.1 36.65 9.8 36.65 9.65 36.65 9.25 36.7 8.85 36.8 8.45 36.85 8.1 36.95 7.7 37.1 7.35 37.2 7.0 37.35 6.65 37.5 6.3 37.7 6.0 37.9 5.7 38.15 5.35 38.35 5.05 38.6 4.8 38.9 4.5 39.15 4.2 39.5 3.85 39.9 3.6 40.3 3.35 40.7 3.15 41.1 2.95 41.5 2.8 41.95 2.7 42.35 2.65 42.8 2.55 43.25 2.55 43.7 2.55 44.15 2.65 44.6 2.7 45.05 2.85 45.5 2.95 45.95 3.15 46.1 3.25 46.3 3.3 46.45 3.4 46.6 3.5 46.8 3.6 46.95 3.7 47.1 3.85 47.25 3.95 47.35 4.05 47.5 4.2 47.65 4.3 47.8 4.45 47.9 4.6 48.05 4.7 48.15 4.85 48.3 5.0 48.4 5.1 48.5 5.25 48.6 5.35 48.7 5.5 48.8 5.6 48.85 5.75 48.95 5.85 49.05 6.0 49.1 6.1 49.2 6.25 49.3 6.4 49.35 6.5 49.45 6.65 49.5 6.8 49.6 6.95 49.65 7.05 49.85 7.45 50.2 8.2 50.55 9.05 50.7 9.4 50.75 9.45 50.8 9.6 50.85 9.6 50.9 9.55 51.0 9.55 51.05 9.5 51.1 9.5 51.15 9.45 51.2 9.45 51.3 9.4 51.35 9.4 51.4 9.35 51.45 9.35 51.5 9.3 51.55 9.3 51.65 9.25 51.7 9.25 51.75 9.2 51.95 9.1 52.1 9.05 52.3 9.0 52.5 8.95 52.65 8.9 52.85 8.85 53.05 8.8 53.25 8.8 53.4 8.75 53.6 8.75 53.8 8.75 54.0 8.75 54.2 8.75 54.4 8.8 54.55 8.8 54.75 8.85 55.25 8.9 55.75 9.05 56.25 9.15 56.7 9.35 57.15 9.5 57.55 9.7 58.0 9.9 58.4 10.2 58.8 10.45 59.15 10.75 59.5 11.05 59.85 11.4 60.15 11.75 60.45 12.15 60.75 12.55 61.05 13.0 61.2 13.3 61.35 13.55 61.5 13.85 61.6 14.15 61.75 14.45 61.8 14.75 61.9 15.05 61.95 15.4 62.05 15.7 62.05 16.0 62.1 16.3 62.15 16.65 62.15 16.95 62.15 17.3 62.1 17.6 62.1 17.95 62.1 18.05 62.05 18.35 L62.05 18.35 M3.9 45.0 Q3.95 44.95 4.1 44.9 4.2 44.8 4.25 44.8 6.3 43.45 8.1 42.3 8.5 42.05 8.85 41.8 9.25 41.55 9.65 41.3 10.05 41.05 10.4 40.85 10.8 40.6 11.2 40.4 11.6 40.15 12.0 39.95 12.4 39.7 12.8 39.5 13.2 39.3 13.6 39.1 14.0 38.85 14.4 38.7 17.3 37.3 19.45 36.25 19.8 36.05 20.15 35.9 20.55 35.75 20.9 35.55 21.25 35.4 21.6 35.25 22.0 35.1 22.35 34.95 22.7 34.8 23.1 34.7 23.45 34.55 23.85 34.45 24.2 34.3 24.6 34.2 25.0 34.1 25.35 33.95 28.25 33.2 32.05 32.4 32.55 32.3 33.05 32.2 33.55 32.1 34.0 32.0 34.5 31.9 35.0 31.8 35.5 31.75 36.0 31.65 36.5 31.55 37.0 31.5 37.5 31.4 38.0 31.35 38.5 31.3 39.0 31.25 39.5 31.2 40.0 31.15 43.1 30.85 46.9 30.65 47.65 30.6 48.45 30.6 49.2 30.6 49.95 30.6 50.75 30.65 51.5 30.7 52.25 30.75 53.05 30.8 53.8 30.9 54.55 30.95 55.3 31.05 56.05 31.2 56.8 31.3 57.55 31.45 58.35 31.55 59.1 31.75 59.55 31.85 60.05 31.95 60.55 32.05 61.0 32.2 61.45 32.3 61.95 32.4 62.4 32.55 62.9 32.7 63.35 32.8 63.85 32.95 64.3 33.1 64.8 33.25 65.25 33.35 65.7 33.5 66.15 33.65 66.65 33.85 67.55 34.15 73.25 36.15 73.45 36.25 73.9 36.4 73.9 36.35 73.95 36.35 73.95 36.3 73.95 36.25 74.0 36.2 74.0 36.2 74.05 35.9 74.1 35.65 74.1 35.35 74.1 35.05 74.15 34.8 74.1 34.5 74.1 34.2 74.05 33.95 74.05 33.65 74.0 33.4 73.95 33.1 73.85 32.85 73.8 32.55 73.7 32.3 73.6 32.05 73.5 31.75 73.4 31.55 73.35 31.35 73.25 31.2 73.15 31.0 73.0 30.8 72.9 30.65 72.8 30.5 72.65 30.3 72.5 30.15 72.35 30.0 72.2 29.85 72.05 29.7 71.9 29.6 71.75 29.45 71.55 29.3 71.4 29.2 71.3 29.15 71.25 29.1 71.15 29.0 71.05 28.95 70.95 28.9 70.9 28.85 70.8 28.8 70.7 28.8 70.6 28.75 70.5 28.7 70.4 28.65 70.3 28.65 70.2 28.6 70.1 28.6 70.05 28.55 69.95 28.55 69.75 28.5 69.55 28.5 69.35 28.45 69.2 28.45 69.0 28.4 68.8 28.4 68.6 28.4 68.4 28.4 68.2 28.4 68.05 28.4 67.85 28.4 67.65 28.4 67.45 28.4 67.3 28.45 67.1 28.5 66.9 28.55 66.85 28.55 66.85 28.55 66.8 28.55 66.75 28.55 66.8 28.3 66.9 27.85 67.0 27.4 67.05 27.2 67.2 26.55 67.15 26.25 67.15 26.1 67.15 26.0 67.15 25.85 67.15 25.75 67.15 25.6 67.15 25.45 67.1 25.35 67.1 25.2 67.1 25.1 67.1 24.95 67.1 24.8 67.05 24.7 67.05 24.55 67.05 24.4 67.05 24.3 67.0 24.15 67.0 23.9 66.95 23.7 66.9 23.45 66.85 23.25 66.8 23.0 66.75 22.8 66.65 22.6 66.6 22.35 66.5 22.15 66.4 21.95 66.3 21.75 66.2 21.55 66.1 21.35 66.0 21.1 65.85 20.9 65.75 20.75 65.65 20.6 65.6 20.5 65.5 20.4 65.4 20.3 65.3 20.15 65.2 20.1 65.05 20.0 64.95 19.9 64.85 19.85 64.7 19.75 64.6 19.7 64.45 19.65 64.3 19.6 64.2 19.55 64.05 19.55 63.9 19.5 63.8 19.5 63.65 19.5 63.55 19.45 63.45 19.45 63.35 19.45 63.2 19.45 63.1 19.45 63.0 19.45 62.9 19.45 62.75 19.45 62.65 19.45 62.55 19.45 62.45 19.5 62.3 19.5 62.2 19.5 62.1 19.55 61.8 19.6 60.9 19.75 60.9 19.7 60.9 19.65 60.9 19.6 60.9 19.6 60.9 19.55 60.9 19.5 60.9 19.45 60.9 19.4 60.95 19.35 60.95 19.3 61.0 19.1 61.0 18.85 61.0 18.65 61.05 18.45 61.05 18.2 61.05 18.0 61.05 17.8 61.05 17.55 61.05 17.35 61.05 17.15 61.05 16.9 61.0 16.7 61.0 16.5 60.95 16.25 60.9 16.05 60.85 15.85 60.8 15.65 60.75 15.5 60.7 15.35 60.65 15.2 60.6 15.05 60.55 14.9 60.5 14.7 60.45 14.55 60.4 14.4 60.35 14.25 60.3 14.1 60.2 13.95 60.15 13.8 60.05 13.65 59.95 13.5 59.9 13.4 59.75 13.15 59.55 12.9 59.35 12.65 59.15 12.45 58.95 12.2 58.75 12.0 58.55 11.8 58.3 11.6 58.1 11.45 57.85 11.3 57.6 11.1 57.35 10.95 57.1 10.8 56.8 10.7 56.55 10.55 56.25 10.45 56.1 10.4 55.95 10.35 55.8 10.25 55.65 10.25 55.5 10.2 55.35 10.15 55.2 10.1 55.05 10.1 54.9 10.05 54.75 10.0 54.6 10.0 54.45 10.0 54.3 9.95 54.15 9.95 54.0 9.95 53.85 9.95 53.75 9.95 53.65 9.95 53.6 9.95 53.5 9.95 53.4 10.0 53.3 10.0 53.25 10.0 53.15 10.0 53.05 10.0 53.0 10.05 52.9 10.05 52.8 10.1 52.75 10.1 52.65 10.15 52.55 10.15 52.5 10.2 52.35 10.25 52.25 10.3 52.15 10.35 52.0 10.4 51.9 10.4 51.75 10.5 51.65 10.55 51.55 10.6 51.4 10.65 51.3 10.7 51.2 10.75 51.05 10.85 50.95 10.9 50.85 10.95 50.75 11.05 50.65 11.1 50.6 11.15 50.45 11.2 50.4 11.1 50.25 10.7 50.05 10.3 49.7 9.55 49.3 8.7 49.15 8.35 49.05 8.15 48.9 7.9 48.8 7.7 48.7 7.5 48.55 7.3 48.4 7.05 48.3 6.85 48.15 6.65 48.0 6.45 47.85 6.3 47.7 6.1 47.5 5.9 47.35 5.7 47.2 5.55 47.0 5.35 46.85 5.2 46.6 4.95 46.3 4.75 46.05 4.55 45.75 4.4 45.5 4.25 45.2 4.1 44.9 4.0 44.6 3.9 44.3 3.8 43.95 3.8 43.65 3.75 43.35 3.75 43.0 3.75 42.65 3.8 42.35 3.85 42.0 3.95 41.75 4.0 41.45 4.15 41.2 4.25 40.95 4.35 40.75 4.5 40.5 4.65 40.3 4.8 40.1 4.95 39.9 5.1 39.7 5.3 39.55 5.5 39.35 5.7 39.2 5.95 39.05 6.15 38.9 6.4 38.75 6.65 38.6 6.9 38.5 7.15 38.35 7.4 38.25 7.7 38.15 7.95 38.05 8.2 38.0 8.5 37.9 8.75 37.85 9.05 37.8 9.3 37.75 9.6 37.7 9.85 37.7 10.15 37.65 10.45 37.65 10.7 37.65 11.0 37.65 11.05 37.65 11.75 37.6 11.75 37.55 11.7 37.5 11.7 37.5 11.7 37.45 11.65 37.4 11.65 37.4 11.65 37.35 11.65 36.7 11.3 36.35 11.15 36.05 11.05 35.45 10.8 34.8 10.55 34.5 10.45 34.35 10.4 34.15 10.35 34.0 10.25 33.85 10.2 33.7 10.15 33.5 10.1 33.35 10.05 33.2 10.0 33.0 10.0 32.85 9.95 32.65 9.9 32.5 9.85 32.3 9.85 32.15 9.8 32.0 9.8 31.8 9.75 31.55 9.75 31.3 9.7 31.0 9.7 30.75 9.75 30.5 9.75 30.3 9.8 30.05 9.85 29.8 9.9 29.55 9.95 29.3 10.05 29.1 10.15 28.85 10.25 28.65 10.35 28.4 10.5 28.2 10.6 27.95 10.75 27.8 10.85 27.65 10.95 27.55 11.1 27.4 11.2 27.3 11.35 27.15 11.45 27.05 11.6 26.9 11.75 26.8 11.85 26.7 12.0 26.6 12.15 26.5 12.3 26.4 12.45 26.25 12.6 26.2 12.7 26.05 12.9 25.85 13.2 25.65 13.55 25.5 13.85 25.35 14.2 25.2 14.5 25.1 14.85 25.0 15.2 24.9 15.55 24.85 15.9 24.8 16.25 24.75 16.6 24.75 17.0 24.7 17.35 24.75 17.7 24.75 18.1 24.8 18.45 24.8 18.6 24.9 19.15 24.8 19.1 24.65 19.1 24.5 19.05 24.45 19.05 24.3 19.0 24.15 18.95 23.95 18.9 23.8 18.85 23.65 18.85 23.5 18.8 23.3 18.8 23.15 18.75 23.0 18.75 22.8 18.75 22.65 18.75 22.5 18.7 22.3 18.7 22.15 18.7 22.0 18.75 21.8 18.75 21.5 18.75 21.25 18.8 20.95 18.85 20.7 18.95 20.4 19.0 20.15 19.1 19.9 19.2 19.65 19.3 19.4 19.4 19.2 19.55 18.95 19.7 18.75 19.85 18.5 20.05 18.3 20.2 18.1 20.4 17.85 20.6 17.8 20.65 17.75 20.7 17.7 20.8 17.65 20.85 17.6 20.9 17.55 21.0 17.45 21.05 17.4 21.1 17.35 21.2 17.3 21.25 17.3 21.3 17.25 21.4 17.2 21.45 17.15 21.55 17.1 21.6 17.05 21.7 16.9 22.0 16.75 22.3 16.65 22.6 16.55 22.9 16.4 23.2 16.35 23.5 16.25 23.85 16.2 24.15 16.1 24.45 16.1 24.8 16.05 25.1 16.05 25.45 16.0 25.75 16.05 26.1 16.05 26.4 16.1 26.75 16.15 27.1 16.5 29.4 16.55 29.5 16.55 29.7 16.3 29.7 15.85 29.7 15.3 29.7 15.15 29.7 14.95 29.7 14.7 29.7 14.5 29.75 14.3 29.75 14.05 29.75 13.85 29.8 13.65 29.85 13.45 29.85 13.2 29.9 13.0 29.95 12.8 29.95 12.6 30.0 12.4 30.05 12.15 30.1 11.95 30.1 11.75 30.15 11.5 30.2 11.2 30.3 10.95 30.35 10.7 30.45 10.45 30.5 10.2 30.6 9.95 30.7 9.7 30.8 9.45 30.9 9.2 31.0 8.95 31.1 8.7 31.25 8.45 31.35 8.25 31.5 8.0 31.65 7.8 31.8 7.55 31.95 7.35 32.1 7.1 32.3 6.9 32.45 6.7 32.65 6.5 32.8 6.3 33.0 6.15 33.2 5.95 33.4 5.8 33.6 5.65 33.85 5.5 34.05 5.35 34.3 5.2 34.55 5.1 34.75 4.95 35.0 4.8 35.35 4.65 35.7 4.55 36.0 4.45 36.35 4.4 36.7 4.35 37.05 4.3 37.35 4.3 37.7 4.3 38.05 4.3 38.4 4.35 38.75 4.4 39.05 4.5 39.4 4.6 39.75 4.7 40.1 4.85 40.45 5.0 40.75 5.4 41.6 5.4 41.65 5.45 41.7 5.45 41.75 5.45 41.8 5.45 41.85 5.45 41.85 5.45 41.9 5.4 41.95 4.8 43.2 4.75 43.25 4.15 44.35 4.05 44.6 4.05 44.65 3.9 45.0 L3.9 45.0" fill="#000000" fill-rule="evenodd" stroke="none"/>
    <path d="M34.4 19.05 Q34.35 19.2 34.3 19.3 34.3 19.4 34.3 19.55 34.25 19.65 34.3 19.75 34.3 19.9 34.3 20.0 34.35 20.1 34.4 20.2 34.4 20.3 34.45 20.4 34.55 20.5 34.6 20.6 34.7 20.7 34.75 20.8 34.8 20.85 34.9 20.9 34.95 21.0 35.05 21.05 35.1 21.1 35.2 21.15 35.25 21.2 35.35 21.25 35.45 21.25 35.5 21.3 35.6 21.35 35.7 21.35 35.8 21.4 35.85 21.4 35.95 21.4 36.05 21.45 36.85 21.5 37.4 21.5 37.5 21.5 37.55 21.5 37.65 21.5 37.7 21.45 37.8 21.45 37.85 21.4 37.9 21.4 38.0 21.35 38.05 21.35 38.1 21.3 38.15 21.25 38.2 21.2 38.25 21.15 38.3 21.1 38.35 21.0 38.4 20.95 39.05 19.8 39.35 19.3 39.45 19.15 39.45 19.1 39.55 19.0 39.55 18.95 39.6 18.85 39.65 18.85 39.7 18.8 39.75 18.75 39.8 18.75 39.85 18.75 39.9 18.7 40.0 18.7 40.05 18.75 40.15 18.75 40.25 18.75 40.4 18.8 40.5 18.8 40.55 18.8 40.65 18.85 40.7 18.85 40.8 18.85 40.9 18.85 40.95 18.9 41.05 18.9 41.1 18.9 41.2 18.95 41.3 18.95 41.35 19.0 41.45 19.0 41.5 19.05 41.6 19.05 41.65 19.05 41.7 19.05 41.75 19.1 41.8 19.1 41.8 19.15 41.85 19.15 41.9 19.15 41.95 19.2 41.95 19.2 42.0 19.25 42.05 19.25 42.1 19.3 42.1 19.3 42.15 19.35 42.2 19.35 42.2 19.4 42.25 19.45 42.3 19.5 42.35 19.55 42.4 19.6 42.4 19.65 42.45 19.7 42.5 19.75 42.5 19.8 42.5 19.85 42.55 19.95 42.55 20.0 42.55 20.05 42.55 20.1 42.55 20.2 42.55 20.25 42.5 20.3 42.5 20.4 42.45 20.45 42.45 20.5 42.4 20.55 42.4 20.6 42.35 20.65 42.35 20.7 42.3 20.8 42.3 20.85 42.25 20.9 42.2 20.95 42.2 21.0 42.15 21.05 42.15 21.1 42.1 21.15 42.05 21.2 42.05 21.25 41.95 21.4 41.85 21.55 41.75 21.7 41.65 21.85 41.55 22.0 41.5 22.15 41.4 22.3 41.3 22.45 41.25 22.6 41.2 22.8 41.1 22.95 41.05 23.1 41.0 23.25 40.95 23.45 40.9 23.6 40.85 23.8 40.8 24.05 40.7 25.05 40.7 25.1 40.7 25.15 40.7 25.2 40.7 25.25 40.7 25.3 40.75 25.35 40.75 25.35 40.75 25.4 40.8 25.45 40.8 25.5 40.8 25.55 40.85 25.6 40.85 25.65 40.9 25.7 40.9 25.7 40.95 25.75 41.0 25.85 41.1 26.0 41.15 26.1 41.25 26.25 41.3 26.35 41.4 26.45 41.5 26.55 41.55 26.7 41.65 26.8 41.75 26.9 41.85 27.0 41.95 27.1 42.0 27.2 42.1 27.3 42.2 27.4 42.3 27.5 42.6 27.75 42.75 27.95 42.8 28.0 42.8 28.0 42.85 28.05 42.85 28.1 42.9 28.1 42.9 28.15 42.95 28.2 42.95 28.25 43.0 28.3 43.0 28.3 43.05 28.4 43.05 28.45 43.1 28.55 43.1 28.65 43.1 28.7 43.05 28.8 43.05 28.85 43.05 28.95 43.0 29.0 42.95 29.05 42.9 29.1 42.85 29.15 42.8 29.2 42.75 29.25 42.65 29.3 42.55 29.35 42.5 29.35 42.45 29.35 42.4 29.4 42.35 29.4 42.3 29.4 42.25 29.4 42.2 29.4 42.15 29.4 42.1 29.45 42.05 29.45 42.0 29.45 41.95 29.45 41.9 29.45 41.85 29.45 41.8 29.45 41.75 29.45 41.45 29.45 41.2 29.45 40.9 29.45 40.65 29.4 40.4 29.4 40.1 29.35 39.85 29.3 39.6 29.2 39.3 29.15 39.05 29.1 38.8 29.0 38.55 28.9 38.3 28.8 38.05 28.7 37.8 28.6 37.55 28.5 37.15 28.3 36.75 28.1 36.35 27.9 36.0 27.7 35.6 27.5 35.2 27.25 34.85 27.05 34.5 26.8 34.1 26.55 33.75 26.3 33.4 26.05 33.1 25.75 32.75 25.5 32.4 25.2 32.1 24.9 31.8 24.6 31.45 24.25 31.15 23.95 30.85 23.6 30.6 23.25 30.3 22.85 30.05 22.5 29.8 22.1 29.6 21.75 29.35 21.35 29.2 20.95 29.0 20.55 28.85 20.1 28.7 19.7 28.55 19.25 28.45 18.8 28.35 18.35 28.3 18.15 28.3 17.95 28.25 17.75 28.25 17.6 28.25 17.4 28.25 17.2 28.25 17.0 28.25 16.8 28.25 16.6 28.25 16.45 28.25 16.25 28.3 16.05 28.35 15.85 28.35 15.7 28.4 15.5 28.45 15.3 28.5 15.15 28.55 15.0 28.65 14.85 28.7 14.7 28.75 14.55 28.85 14.4 28.95 14.25 29.05 14.15 29.15 14.0 29.25 13.9 29.35 13.75 29.45 13.65 29.6 13.55 29.7 13.45 29.85 13.35 30.0 13.25 30.2 13.15 30.35 13.0 30.55 12.9 30.75 12.8 30.95 12.7 31.1 12.65 31.3 12.55 31.5 12.45 31.7 12.4 31.9 12.3 32.1 12.25 32.3 12.2 32.5 12.1 32.75 12.05 32.95 12.0 33.15 11.95 33.3 11.9 33.6 11.85 33.9 11.8 34.05 11.8 34.15 11.8 34.25 11.75 34.35 11.75 34.45 11.75 34.5 11.75 34.6 11.75 34.7 11.75 34.8 11.8 34.85 11.8 34.95 11.8 35.05 11.85 35.15 11.85 35.2 11.9 35.3 11.95 35.4 11.95 35.45 12.0 35.65 12.1 35.85 12.2 36.05 12.35 36.25 12.5 36.4 12.6 36.55 12.75 36.7 12.9 36.85 13.1 37.0 13.25 37.1 13.45 37.2 13.6 37.3 13.85 37.4 14.05 37.45 14.25 37.5 14.45 37.55 14.7 37.6 14.9 37.6 15.05 37.65 15.25 37.65 15.45 37.7 15.6 37.7 15.8 37.7 16.0 37.7 16.15 37.7 16.35 37.65 16.55 37.65 16.75 37.6 16.9 37.6 17.1 37.55 17.25 37.5 17.45 37.45 17.65 37.4 17.85 37.3 18.0 37.25 18.15 37.15 18.3 37.1 18.4 36.95 18.55 36.85 18.65 36.75 18.75 36.65 18.85 36.5 18.9 36.35 19.0 36.2 19.05 36.05 19.1 35.85 19.1 35.7 19.15 35.5 19.15 35.35 19.15 35.1 19.15 34.7 19.1 34.65 19.1 34.55 19.1 34.4 19.05 L34.4 19.05 M40.3 19.9 Q40.3 19.95 40.25 19.95 40.25 20.0 40.2 20.05 40.2 20.05 40.2 20.1 40.2 20.1 40.15 20.15 40.1 20.25 40.05 20.35 40.05 20.45 40.0 20.6 39.95 20.7 39.9 20.8 39.85 20.9 39.8 21.0 39.7 21.1 39.65 21.2 39.6 21.3 39.55 21.4 39.45 21.5 39.4 21.6 39.35 21.7 39.25 21.75 39.2 21.85 39.1 21.9 39.05 22.0 39.0 22.05 38.9 22.15 38.85 22.2 38.75 22.25 38.7 22.3 38.6 22.4 38.5 22.4 38.45 22.45 38.35 22.5 38.25 22.55 38.15 22.6 38.05 22.6 37.95 22.6 37.75 22.65 37.6 22.65 37.4 22.7 37.25 22.7 37.05 22.7 36.9 22.7 36.7 22.7 36.55 22.7 36.35 22.7 36.2 22.65 36.05 22.65 35.85 22.6 35.7 22.6 35.5 22.55 35.35 22.5 35.2 22.4 34.9 22.3 34.6 22.15 34.35 22.0 34.1 21.8 33.85 21.6 33.7 21.35 33.5 21.1 33.35 20.85 33.2 20.55 33.15 20.25 33.1 19.95 33.1 19.6 33.1 19.25 33.2 18.95 33.3 18.55 33.45 18.2 33.55 18.0 33.6 17.95 33.7 17.85 33.8 17.85 33.85 17.85 34.1 17.9 34.2 17.9 34.3 17.95 34.35 17.95 34.45 17.95 34.55 17.95 34.65 18.0 34.75 18.0 34.85 18.0 34.9 18.0 35.0 18.0 35.1 18.0 35.2 18.0 35.3 18.0 35.4 17.95 35.45 17.95 35.6 17.95 35.65 17.95 35.7 17.95 35.75 17.95 35.8 17.9 35.85 17.9 35.9 17.9 35.95 17.85 36.0 17.85 36.05 17.8 36.05 17.75 36.1 17.75 36.15 17.7 36.15 17.65 36.2 17.6 36.2 17.55 36.25 17.5 36.3 17.3 36.35 17.1 36.4 16.9 36.45 16.7 36.5 16.5 36.5 16.3 36.5 16.1 36.5 15.9 36.5 15.7 36.5 15.5 36.45 15.3 36.45 15.1 36.4 14.9 36.35 14.7 36.3 14.5 36.2 14.3 36.15 14.2 36.1 14.1 36.05 14.0 36.0 13.95 35.95 13.85 35.85 13.75 35.8 13.7 35.75 13.6 35.65 13.55 35.55 13.45 35.5 13.4 35.4 13.35 35.3 13.3 35.25 13.25 35.15 13.15 35.05 13.1 35.0 13.05 34.9 13.05 34.85 13.0 34.75 13.0 34.7 12.95 34.6 12.95 34.55 12.95 34.45 12.95 34.4 12.95 34.3 12.95 34.25 12.95 34.15 12.95 34.1 13.0 34.0 13.0 33.95 13.0 33.85 13.05 33.85 13.05 33.8 13.05 33.6 13.1 33.4 13.15 33.2 13.2 33.0 13.25 32.8 13.3 32.6 13.35 32.4 13.4 32.2 13.45 32.0 13.55 31.8 13.6 31.65 13.7 31.45 13.8 31.25 13.9 31.1 14.0 30.9 14.1 30.7 14.2 30.6 14.25 30.5 14.35 30.4 14.45 30.3 14.5 30.2 14.6 30.1 14.7 30.0 14.8 29.95 14.9 29.9 15.0 29.8 15.15 29.75 15.25 29.7 15.35 29.65 15.5 29.6 15.6 29.55 15.75 29.55 15.9 29.5 16.05 29.5 16.15 29.45 16.3 29.45 16.4 29.45 16.55 29.45 16.7 29.4 16.8 29.4 16.95 29.4 17.1 29.45 17.2 29.45 17.35 29.45 17.5 29.45 17.6 29.45 17.75 29.5 17.9 29.5 18.0 29.55 18.45 29.7 18.85 29.8 19.25 29.95 19.65 30.05 20.05 30.25 20.4 30.4 20.8 30.6 21.15 30.8 21.5 31.05 21.85 31.25 22.2 31.55 22.5 31.8 22.85 32.05 23.15 32.35 23.45 32.65 23.75 32.95 24.05 33.25 24.3 33.55 24.6 33.9 24.85 34.2 25.1 34.55 25.35 34.85 25.6 35.2 25.85 35.55 26.05 35.9 26.25 36.25 26.5 36.6 26.7 36.95 26.9 37.3 27.05 37.7 27.25 38.05 27.4 38.2 27.45 38.3 27.5 38.45 27.6 38.6 27.65 38.7 27.7 38.85 27.75 39.0 27.8 39.1 27.85 39.25 27.9 39.4 27.95 39.5 28.0 39.65 28.0 39.8 28.05 39.9 28.1 40.05 28.1 40.2 28.15 40.2 28.15 40.35 28.15 40.4 28.2 40.45 28.2 40.55 28.2 40.6 28.2 40.7 28.25 40.75 28.25 40.8 28.25 40.9 28.25 40.95 28.25 41.05 28.25 41.1 28.25 41.2 28.25 41.25 28.25 41.35 28.25 41.1 28.0 41.1 28.0 40.95 27.75 40.5 27.15 40.1 26.65 39.9 26.35 39.85 26.25 39.8 26.2 39.75 26.1 39.7 26.0 39.7 25.9 39.65 25.8 39.6 25.7 39.6 25.65 39.55 25.55 39.55 25.45 39.55 25.35 39.55 25.25 39.5 25.15 39.5 25.05 39.5 24.95 39.5 24.85 39.5 24.7 39.55 24.5 39.55 24.35 39.6 24.15 39.6 24.0 39.65 23.85 39.65 23.65 39.7 23.5 39.75 23.35 39.8 23.15 39.85 23.0 39.9 22.85 39.95 22.7 40.0 22.5 40.05 22.35 40.15 22.2 40.2 22.1 40.25 22.0 40.3 21.9 40.35 21.75 40.4 21.65 40.45 21.55 40.5 21.45 40.55 21.35 40.65 21.25 40.7 21.15 40.75 21.05 40.8 20.95 40.9 20.85 40.95 20.75 41.0 20.65 41.1 20.55 41.1 20.5 41.15 20.5 41.15 20.45 41.15 20.4 41.2 20.35 41.2 20.35 41.25 20.3 41.25 20.25 41.3 20.2 41.3 20.15 40.95 20.05 40.3 19.9 L40.3 19.9" fill="#000000" fill-rule="evenodd" stroke="none"/>
    <path d="M49.9 13.85 Q49.9 14.05 49.9 14.25 49.85 14.5 49.85 14.7 49.8 14.9 49.8 15.1 49.75 15.3 49.7 15.5 49.65 15.75 49.6 15.95 49.55 16.15 49.5 16.35 49.4 16.55 49.35 16.75 49.25 16.95 49.15 17.15 49.05 17.35 48.95 17.55 48.8 17.75 48.7 17.9 48.55 18.1 48.45 18.25 48.3 18.4 48.15 18.55 47.95 18.7 47.8 18.85 47.65 19.0 47.45 19.1 47.25 19.2 47.05 19.3 46.85 19.4 46.65 19.5 46.4 19.6 46.15 19.65 45.9 19.7 45.65 19.7 45.4 19.7 45.2 19.7 44.95 19.7 44.7 19.65 44.45 19.65 44.25 19.55 44.0 19.5 43.8 19.45 43.55 19.35 43.3 19.25 43.1 19.1 42.9 19.0 42.65 18.85 42.4 18.7 42.2 18.55 41.95 18.35 41.75 18.15 41.55 17.95 41.35 17.8 41.15 17.55 40.95 17.35 40.8 17.15 40.65 16.95 40.5 16.7 40.35 16.45 40.2 16.2 40.05 15.95 39.9 15.7 39.7 15.3 39.55 14.95 39.4 14.55 39.25 14.15 39.15 13.75 39.05 13.35 38.95 12.95 38.9 12.55 38.85 12.15 38.8 11.75 38.8 11.35 38.8 10.9 38.8 10.5 38.9 10.1 38.95 9.65 39.0 9.25 39.05 9.1 39.05 9.0 39.1 8.85 39.15 8.75 39.2 8.6 39.25 8.45 39.3 8.35 39.35 8.2 39.4 8.1 39.45 7.95 39.5 7.85 39.55 7.75 39.65 7.6 39.7 7.5 39.75 7.4 39.85 7.25 40.05 6.9 40.3 6.6 40.6 6.35 40.85 6.1 41.15 5.9 41.5 5.7 41.8 5.55 42.15 5.45 42.5 5.3 42.85 5.3 43.2 5.25 43.6 5.25 43.95 5.3 44.35 5.35 44.7 5.45 45.1 5.6 45.3 5.7 45.5 5.8 45.7 5.9 45.9 6.0 46.1 6.1 46.25 6.25 46.45 6.35 46.6 6.5 46.75 6.65 46.95 6.8 47.1 6.95 47.25 7.1 47.4 7.25 47.55 7.4 47.7 7.6 47.8 7.75 48.0 8.05 48.2 8.3 48.4 8.6 48.55 8.9 48.75 9.2 48.9 9.5 49.05 9.8 49.15 10.1 49.3 10.4 49.4 10.75 49.5 11.05 49.55 11.4 49.65 11.7 49.7 12.05 49.75 12.4 49.8 12.7 49.8 12.75 49.9 13.85 L49.9 13.85 M48.35 15.1 Q48.35 15.05 48.4 14.85 48.4 14.75 48.45 14.65 48.45 14.5 48.5 14.4 48.5 14.25 48.5 14.15 48.5 14.0 48.5 13.85 48.5 13.75 48.5 13.6 48.5 13.45 48.5 13.35 48.5 13.2 48.5 13.05 48.45 12.95 48.45 12.8 48.45 12.65 48.4 12.55 48.35 12.2 48.3 11.9 48.25 11.6 48.15 11.3 48.1 11.0 48.0 10.7 47.9 10.4 47.75 10.1 47.65 9.8 47.5 9.55 47.35 9.25 47.15 9.0 47.0 8.75 46.8 8.5 46.6 8.25 46.4 8.0 46.3 7.9 46.2 7.8 46.1 7.7 46.0 7.6 45.9 7.5 45.8 7.4 45.7 7.3 45.55 7.25 45.45 7.15 45.35 7.05 45.2 7.0 45.1 6.95 44.95 6.85 44.85 6.8 44.7 6.75 44.55 6.7 44.35 6.6 44.15 6.6 43.95 6.55 43.75 6.5 43.55 6.5 43.35 6.5 43.2 6.5 43.0 6.55 42.8 6.6 42.65 6.65 42.45 6.7 42.3 6.8 42.1 6.9 41.95 7.0 41.8 7.15 41.6 7.3 41.5 7.4 41.4 7.5 41.3 7.6 41.2 7.75 41.15 7.85 41.05 7.95 40.95 8.1 40.9 8.2 40.85 8.35 40.75 8.45 40.7 8.6 40.65 8.75 40.6 8.85 40.55 9.0 40.5 9.15 40.45 9.3 40.35 9.75 40.25 10.2 40.2 10.6 40.2 11.05 40.15 11.45 40.2 11.9 40.2 12.3 40.3 12.75 40.35 13.15 40.45 13.55 40.6 13.95 40.75 14.35 40.9 14.75 41.1 15.15 41.3 15.55 41.5 15.95 41.5 15.95 41.55 16.0 41.6 16.05 41.65 16.05 41.65 16.0 41.7 15.85 41.75 15.75 41.75 15.65 41.8 15.55 41.85 15.45 41.9 15.3 41.95 15.25 42.0 15.15 42.1 15.05 42.15 14.95 42.2 14.85 42.3 14.8 42.35 14.7 42.45 14.6 42.55 14.55 42.65 14.45 42.7 14.4 43.0 14.15 43.35 14.0 43.7 13.85 44.1 13.75 44.45 13.65 44.85 13.6 45.2 13.6 45.6 13.65 46.0 13.65 46.35 13.75 46.7 13.85 47.05 14.05 47.4 14.2 47.65 14.4 47.95 14.65 48.2 14.95 48.25 15.0 48.35 15.1 L48.35 15.1 M44.95 14.6 Q44.85 14.6 44.75 14.6 44.65 14.6 44.55 14.65 44.4 14.65 44.3 14.7 44.2 14.75 44.05 14.8 43.95 14.85 43.85 14.9 43.75 14.95 43.65 15.05 43.5 15.1 43.4 15.2 43.3 15.3 43.2 15.4 43.1 15.5 43.05 15.65 42.95 15.8 42.9 15.9 42.85 16.05 42.8 16.2 42.8 16.35 42.8 16.45 42.8 16.6 42.8 16.75 42.85 16.9 42.9 17.0 42.95 17.15 43.0 17.3 43.1 17.4 43.2 17.5 43.25 17.55 43.25 17.6 43.3 17.6 43.3 17.65 43.35 17.7 43.4 17.75 43.4 17.75 43.45 17.8 43.5 17.85 43.55 17.85 43.55 17.9 43.6 17.95 43.65 17.95 43.7 18.0 43.75 18.0 43.75 18.05 43.95 18.15 44.15 18.25 44.35 18.3 44.55 18.35 44.8 18.4 45.0 18.45 45.25 18.45 45.45 18.4 45.7 18.4 45.9 18.35 46.15 18.25 46.35 18.15 46.6 18.05 46.8 17.9 47.0 17.75 47.2 17.55 47.25 17.5 47.3 17.45 47.35 17.35 47.35 17.3 47.4 17.25 47.45 17.2 47.45 17.1 47.5 17.05 47.5 17.0 47.55 16.9 47.55 16.85 47.55 16.75 47.6 16.7 47.6 16.65 47.6 16.55 47.6 16.45 47.6 16.35 47.6 16.25 47.55 16.15 47.55 16.05 47.5 15.95 47.45 15.9 47.45 15.8 47.4 15.7 47.35 15.65 47.3 15.55 47.2 15.5 47.15 15.4 47.1 15.35 47.0 15.25 46.95 15.2 46.85 15.15 46.75 15.1 46.65 15.0 46.55 14.95 46.45 14.9 46.35 14.85 46.25 14.8 46.15 14.75 46.05 14.7 45.95 14.7 45.8 14.65 45.7 14.65 45.55 14.6 45.4 14.6 45.25 14.6 45.1 14.6 44.95 14.6 L44.95 14.6" fill="#000000" fill-rule="evenodd" stroke="none"/>
    <path d="M50.05 17.95 Q50.95 18.55 51.2 18.7 51.3 18.75 51.4 18.8 51.5 18.9 51.6 18.95 51.75 19.0 51.85 19.05 51.95 19.1 52.05 19.1 52.2 19.15 52.3 19.2 52.4 19.25 52.55 19.25 52.65 19.3 52.75 19.35 52.9 19.35 53.0 19.4 53.15 19.4 53.25 19.45 53.4 19.45 53.5 19.4 53.6 19.4 53.7 19.4 53.8 19.35 53.9 19.3 53.95 19.25 54.05 19.15 54.1 19.1 54.15 19.0 54.25 18.9 54.3 18.75 54.35 18.65 54.4 18.5 54.35 18.5 54.3 18.5 54.25 18.45 54.2 18.45 54.15 18.45 54.15 18.45 54.1 18.45 54.05 18.45 54.0 18.4 53.95 18.4 53.75 18.4 53.6 18.35 53.4 18.3 53.2 18.25 53.05 18.2 52.9 18.1 52.7 18.05 52.55 17.95 52.4 17.85 52.25 17.75 52.1 17.65 52.0 17.55 51.85 17.4 51.75 17.25 51.6 17.1 51.5 16.95 51.4 16.8 51.35 16.7 51.25 16.55 51.2 16.45 51.15 16.3 51.1 16.15 51.1 16.05 51.05 15.9 51.0 15.75 51.0 15.6 51.0 15.45 51.0 15.35 51.0 15.2 51.0 15.05 51.05 14.9 51.05 14.75 51.1 14.6 51.1 14.45 51.15 14.25 51.2 14.1 51.25 13.95 51.3 13.8 51.35 13.65 51.4 13.5 51.5 13.35 51.55 13.2 51.6 13.05 51.7 12.9 51.75 12.75 51.85 12.65 51.9 12.5 52.0 12.35 52.05 12.25 52.1 12.15 52.2 12.05 52.25 12.0 52.35 11.9 52.4 11.85 52.5 11.8 52.6 11.75 52.7 11.7 52.8 11.65 52.9 11.6 53.0 11.6 53.1 11.55 53.2 11.55 53.3 11.55 53.4 11.55 53.5 11.55 53.65 11.55 53.75 11.55 53.85 11.55 54.0 11.55 54.1 11.6 54.2 11.6 54.3 11.65 54.4 11.65 54.55 11.7 54.65 11.7 54.75 11.75 54.85 11.8 54.95 11.85 55.05 11.85 55.15 11.9 55.45 12.05 55.7 12.15 55.95 12.3 56.2 12.45 56.45 12.6 56.7 12.75 56.95 12.95 57.2 13.1 57.4 13.3 57.65 13.45 57.85 13.65 58.05 13.85 58.3 14.05 58.5 14.3 58.65 14.5 58.85 14.75 59.05 15.0 59.25 15.3 59.45 15.55 59.6 15.85 59.75 16.1 59.85 16.4 60.0 16.7 60.1 17.0 60.2 17.3 60.25 17.6 60.35 17.9 60.4 18.25 60.4 18.55 60.4 18.85 60.45 19.2 60.4 19.55 60.4 19.75 60.35 20.0 60.35 20.2 60.3 20.45 60.25 20.65 60.2 20.85 60.15 21.1 60.1 21.3 60.0 21.5 59.95 21.75 59.9 21.95 59.8 22.15 59.75 22.35 59.65 22.55 59.55 22.75 59.45 23.0 59.3 23.3 59.15 23.6 59.0 23.95 58.85 24.2 58.65 24.5 58.45 24.8 58.3 25.05 58.1 25.35 57.85 25.6 57.65 25.85 57.4 26.1 57.2 26.35 56.95 26.6 56.7 26.85 56.4 27.05 56.15 27.3 54.7 28.35 54.35 28.55 54.25 28.6 54.2 28.65 54.1 28.7 54.0 28.75 53.9 28.8 53.8 28.8 53.75 28.85 53.65 28.9 53.55 28.9 53.45 28.95 53.35 29.0 53.25 29.0 53.15 29.0 53.05 29.05 52.95 29.05 52.85 29.05 52.8 29.05 52.75 29.05 52.7 29.05 52.65 29.05 52.65 29.05 52.6 29.05 52.55 29.05 52.5 29.05 52.35 29.05 52.25 29.0 52.15 28.95 52.05 28.9 51.95 28.85 51.9 28.8 51.8 28.75 51.75 28.65 51.7 28.55 51.65 28.45 51.6 28.35 51.6 28.25 51.55 28.15 51.6 28.05 51.6 27.95 51.6 27.8 51.6 27.75 51.6 27.7 51.65 27.7 51.65 27.65 51.65 27.6 51.7 27.55 51.7 27.5 51.7 27.5 51.7 27.45 51.75 27.4 51.75 27.35 51.75 27.3 51.8 27.3 51.8 27.25 51.85 27.2 51.85 27.15 51.95 26.9 52.05 26.7 52.15 26.45 52.2 26.2 52.25 26.0 52.25 25.75 52.3 25.55 52.3 25.3 52.3 25.05 52.25 24.85 52.2 24.6 52.15 24.35 52.1 24.15 52.0 23.9 51.9 23.65 51.8 23.45 51.55 22.9 50.75 21.55 50.7 21.5 50.6 21.3 50.5 21.15 50.45 21.1 50.4 20.95 50.35 20.85 50.25 20.7 50.2 20.6 50.15 20.45 50.1 20.35 50.05 20.2 50.0 20.1 49.95 19.95 49.9 19.8 49.85 19.7 49.85 19.55 49.85 19.45 49.8 19.35 49.8 19.25 49.8 19.15 49.75 19.05 49.75 18.95 49.75 18.85 49.75 18.75 49.8 18.65 49.8 18.55 49.8 18.45 49.85 18.35 49.9 18.25 49.95 18.15 49.95 18.05 50.05 17.95 L50.05 17.95 M51.05 19.7 Q51.15 19.95 51.15 20.0 51.3 20.3 51.95 21.35 52.05 21.5 52.45 22.2 52.75 22.75 52.95 23.1 53.1 23.35 53.2 23.65 53.25 23.9 53.35 24.2 53.4 24.45 53.45 24.75 53.45 25.0 53.45 25.3 53.45 25.55 53.45 25.85 53.4 26.15 53.35 26.4 53.3 26.7 53.2 26.95 53.1 27.25 53.0 27.5 52.95 27.55 52.85 27.85 52.9 27.85 53.0 27.85 53.05 27.8 53.1 27.8 53.15 27.8 53.2 27.8 53.3 27.75 53.35 27.75 53.4 27.75 53.45 27.7 53.5 27.7 53.55 27.65 53.6 27.65 53.65 27.6 53.7 27.55 53.75 27.55 53.8 27.55 54.55 26.95 55.05 26.6 55.4 26.35 55.75 26.1 56.1 25.8 56.4 25.5 56.7 25.15 56.95 24.85 57.25 24.5 57.5 24.15 57.7 23.8 57.95 23.45 58.1 23.05 58.3 22.7 58.5 22.3 58.65 21.9 58.8 21.45 58.9 21.05 59.05 20.6 59.15 20.25 59.2 19.9 59.25 19.55 59.25 19.25 59.25 18.9 59.2 18.55 59.2 18.25 59.1 17.9 59.05 17.6 58.95 17.3 58.85 17.0 58.7 16.65 58.55 16.35 58.35 16.05 58.15 15.8 57.95 15.5 57.8 15.3 57.6 15.1 57.45 14.9 57.25 14.7 57.05 14.55 56.85 14.35 56.65 14.2 56.45 14.05 56.25 13.9 56.05 13.75 55.8 13.6 55.6 13.45 55.35 13.35 55.15 13.25 54.9 13.1 54.65 13.0 54.35 12.85 53.55 12.75 53.5 12.75 53.45 12.75 53.4 12.75 53.35 12.75 53.35 12.75 53.3 12.75 53.25 12.75 53.2 12.75 53.15 12.8 53.15 12.8 53.1 12.85 53.05 12.85 53.05 12.9 53.0 12.95 53.0 13.0 52.95 13.05 52.9 13.15 52.85 13.25 52.8 13.35 52.75 13.45 52.7 13.55 52.65 13.65 52.6 13.75 52.55 13.85 52.5 13.95 52.5 14.05 52.45 14.2 52.4 14.3 52.35 14.4 52.35 14.5 52.3 14.6 52.3 14.7 52.3 14.75 52.25 14.8 52.25 14.85 52.25 14.9 52.25 15.0 52.2 15.05 52.2 15.1 52.2 15.15 52.2 15.2 52.2 15.25 52.2 15.3 52.2 15.35 52.2 15.4 52.2 15.45 52.2 15.5 52.2 15.55 52.2 15.7 52.25 15.8 52.3 15.95 52.35 16.05 52.4 16.15 52.45 16.25 52.55 16.4 52.6 16.45 52.7 16.55 52.75 16.65 52.85 16.75 52.95 16.8 53.05 16.9 53.2 16.95 53.3 17.0 53.4 17.05 53.5 17.1 53.6 17.1 53.65 17.15 53.75 17.2 53.85 17.2 53.95 17.25 54.0 17.25 54.1 17.25 54.2 17.3 54.3 17.3 54.4 17.3 54.5 17.35 54.55 17.35 54.65 17.35 54.75 17.35 54.85 17.35 54.9 17.35 54.95 17.35 55.0 17.35 55.0 17.35 55.05 17.35 55.1 17.35 55.15 17.35 55.2 17.35 55.2 17.35 55.25 17.35 55.3 17.35 55.35 17.4 55.4 17.4 55.4 17.4 55.45 17.4 55.5 17.45 55.5 17.6 55.5 17.75 55.5 17.9 55.5 18.05 55.45 18.2 55.45 18.35 55.45 18.5 55.4 18.65 55.35 18.8 55.35 18.9 55.3 19.05 55.25 19.2 55.2 19.3 55.2 19.4 55.15 19.5 55.1 19.6 55.05 19.7 54.95 19.85 54.9 19.95 54.8 20.05 54.75 20.1 54.65 20.2 54.55 20.25 54.45 20.35 54.35 20.4 54.25 20.45 54.1 20.5 54.0 20.5 53.9 20.55 53.75 20.55 53.6 20.55 53.5 20.55 53.4 20.55 53.25 20.55 53.15 20.55 53.0 20.5 52.9 20.5 52.8 20.5 52.65 20.45 52.55 20.45 52.45 20.4 52.3 20.35 52.2 20.35 52.1 20.3 52.0 20.25 51.9 20.2 51.75 20.15 51.65 20.05 51.55 20.0 51.05 19.7 L51.05 19.7" fill="#000000" fill-rule="evenodd" stroke="none"/>
    <path d="M22.45 20.15 Q22.75 20.15 23.05 20.2 23.35 20.2 23.6 20.3 23.85 20.35 24.1 20.45 24.35 20.55 24.6 20.7 24.85 20.8 25.05 21.0 25.25 21.15 25.45 21.35 25.65 21.55 25.8 21.8 25.95 22.0 26.1 22.3 26.15 22.35 26.2 22.45 26.2 22.5 26.25 22.55 26.25 22.65 26.3 22.7 26.35 22.75 26.35 22.85 26.35 22.9 26.4 23.0 26.4 23.05 26.4 23.1 26.45 23.2 26.45 23.25 26.45 23.35 26.45 23.4 26.45 23.6 26.45 23.75 26.45 23.9 26.4 24.05 26.35 24.2 26.3 24.35 26.25 24.5 26.15 24.6 26.1 24.75 26.0 24.85 25.9 24.95 25.8 25.05 25.7 25.15 25.55 25.25 25.4 25.35 25.3 25.45 25.2 25.5 24.75 25.75 24.4 25.9 24.2 26.05 24.1 26.1 24.1 26.15 24.05 26.15 24.05 26.2 24.05 26.25 24.05 26.3 24.05 26.35 24.1 26.45 24.1 26.5 24.15 26.6 24.2 26.65 24.25 26.7 24.25 26.75 24.3 26.8 24.35 26.85 24.4 26.9 24.45 26.9 24.5 26.95 24.55 27.0 24.65 27.0 24.7 27.05 24.75 27.05 24.8 27.1 24.9 27.1 25.05 27.15 25.2 27.15 25.35 27.15 25.5 27.15 25.65 27.2 25.8 27.15 25.95 27.15 26.1 27.15 26.25 27.1 26.35 27.05 26.5 27.05 26.65 27.0 26.8 26.9 26.95 26.85 27.05 26.8 27.2 26.7 27.5 26.5 28.55 25.65 28.7 25.55 28.75 25.5 28.8 25.5 28.9 25.5 28.95 25.5 29.1 25.6 29.95 26.3 30.6 26.75 31.3 27.25 33.4 28.8 33.45 28.8 33.45 28.85 33.55 28.9 33.55 28.9 33.6 28.95 33.6 28.95 33.65 29.0 33.7 29.05 33.7 29.05 33.75 29.1 33.75 29.1 33.75 29.15 33.8 29.15 33.8 29.2 33.8 29.25 33.85 29.25 33.85 29.3 33.85 29.3 33.9 29.35 33.9 29.35 33.9 29.4 33.9 29.45 33.9 29.45 33.9 29.5 33.9 29.55 33.9 29.6 33.95 29.65 33.9 29.7 33.9 29.7 33.9 29.75 33.9 29.8 33.9 29.8 33.85 29.85 33.85 29.85 33.8 29.9 33.75 29.9 33.75 29.95 33.7 29.95 33.65 29.95 33.6 30.0 33.15 30.1 31.9 30.4 30.8 30.7 30.15 30.8 30.15 30.8 26.05 31.65 25.95 31.65 25.9 31.7 25.8 31.7 25.75 31.7 25.65 31.7 25.6 31.7 25.5 31.7 25.4 31.7 25.35 31.7 25.25 31.7 25.2 31.7 25.1 31.65 25.0 31.65 24.95 31.65 24.85 31.6 24.8 31.6 24.5 31.5 24.25 31.45 23.95 31.35 23.7 31.25 23.4 31.15 23.15 31.05 22.9 30.95 22.6 30.8 22.35 30.7 22.1 30.6 21.8 30.45 21.55 30.35 21.3 30.2 21.05 30.05 20.8 29.9 20.55 29.8 20.4 29.7 20.25 29.6 20.1 29.5 19.95 29.4 19.85 29.3 19.7 29.2 19.55 29.1 19.45 28.95 19.3 28.85 19.2 28.7 19.1 28.6 18.95 28.45 18.85 28.35 18.75 28.2 18.65 28.05 18.55 27.9 18.35 27.6 18.2 27.3 18.05 27.0 17.95 26.7 17.85 26.4 17.75 26.1 17.7 25.8 17.65 25.45 17.65 25.15 17.65 24.85 17.65 24.55 17.7 24.2 17.8 23.9 17.85 23.55 17.95 23.25 18.1 22.9 18.3 22.55 18.35 22.35 18.5 22.1 18.65 21.9 18.8 21.7 18.95 21.5 19.1 21.35 19.3 21.15 19.5 21.0 19.7 20.9 19.9 20.75 20.1 20.65 20.3 20.55 20.55 20.45 20.8 20.35 21.05 20.3 21.3 20.25 21.55 20.2 21.65 20.2 21.85 20.2 22.1 20.15 22.15 20.15 22.15 20.15 22.45 20.15 L22.45 20.15 M28.75 26.85 Q28.3 27.25 28.25 27.3 28.05 27.45 27.9 27.55 27.7 27.7 27.5 27.8 27.35 27.9 27.15 28.0 26.95 28.1 26.75 28.15 26.55 28.2 26.35 28.25 26.15 28.3 25.9 28.3 25.7 28.35 25.5 28.35 25.25 28.35 25.05 28.3 24.85 28.3 24.7 28.25 24.55 28.2 24.35 28.15 24.2 28.1 24.05 28.05 23.95 28.0 23.8 27.9 23.65 27.8 23.55 27.7 23.45 27.6 23.35 27.5 23.2 27.35 23.15 27.2 23.05 27.05 23.0 26.9 22.95 26.75 22.9 26.65 22.85 26.5 22.85 26.4 22.85 26.25 22.85 26.15 22.85 26.05 22.9 25.9 22.9 25.8 22.95 25.7 23.0 25.6 23.05 25.5 23.15 25.4 23.2 25.3 23.3 25.2 23.4 25.1 23.45 25.05 23.85 24.85 23.9 24.8 24.3 24.65 24.55 24.5 24.75 24.4 24.85 24.35 24.9 24.3 25.0 24.2 25.05 24.15 25.1 24.05 25.15 24.0 25.2 23.9 25.2 23.85 25.25 23.75 25.25 23.65 25.25 23.6 25.25 23.5 25.25 23.4 25.25 23.3 25.2 23.2 25.2 23.1 25.2 23.05 25.15 23.0 25.1 22.9 25.1 22.85 25.0 22.7 24.95 22.6 24.85 22.45 24.75 22.35 24.65 22.25 24.55 22.15 24.45 22.05 24.35 21.95 24.25 21.85 24.1 21.8 24.0 21.7 23.85 21.65 23.75 21.55 23.6 21.5 23.45 21.45 23.3 21.45 23.15 21.4 22.95 21.4 22.8 21.35 22.65 21.35 22.45 21.35 22.3 21.35 22.15 21.35 21.95 21.35 21.8 21.35 21.65 21.4 21.5 21.4 21.35 21.45 21.15 21.5 21.0 21.55 20.85 21.6 20.7 21.7 20.65 21.7 20.6 21.75 20.55 21.75 20.5 21.8 20.45 21.8 20.4 21.85 20.35 21.9 20.3 21.9 20.25 21.95 20.2 22.0 20.15 22.0 20.1 22.05 20.05 22.1 20.05 22.15 20.0 22.2 19.95 22.2 19.75 22.4 19.6 22.65 19.4 22.9 19.25 23.2 19.15 23.5 19.05 23.8 18.95 24.1 18.9 24.4 18.85 24.75 18.85 25.05 18.85 25.4 18.9 25.75 18.95 26.1 19.1 26.4 19.2 26.75 19.4 27.05 19.5 27.2 19.55 27.3 19.65 27.45 19.75 27.55 19.85 27.7 19.95 27.8 20.05 27.9 20.15 28.0 20.25 28.1 20.4 28.2 20.5 28.3 20.6 28.4 20.75 28.5 20.85 28.55 21.0 28.65 21.1 28.75 21.35 28.9 21.6 29.0 21.8 29.15 22.05 29.25 22.3 29.4 22.55 29.5 22.8 29.6 23.05 29.7 23.3 29.8 23.55 29.9 23.8 30.0 24.05 30.1 24.3 30.2 24.55 30.3 24.8 30.35 25.1 30.45 25.15 30.45 25.2 30.5 25.25 30.5 25.3 30.5 25.35 30.5 25.4 30.5 25.45 30.5 25.55 30.5 25.6 30.5 25.65 30.5 25.7 30.5 25.75 30.5 25.8 30.5 25.85 30.5 25.9 30.45 25.95 30.45 26.2 30.4 27.75 30.1 28.8 29.9 29.5 29.8 29.9 29.75 30.5 29.65 31.4 29.55 31.5 29.55 31.6 29.55 31.8 29.5 32.05 29.45 32.15 29.4 31.0 28.55 28.75 26.85 L28.75 26.85" fill="#000000" fill-rule="evenodd" stroke="none"/>
    <path d="M6.25 37.65 Q6.4 36.7 6.45 36.55 6.5 36.35 6.6 36.1 6.7 35.9 6.8 35.7 6.85 35.5 7.0 35.3 7.1 35.1 7.2 34.95 7.35 34.75 7.45 34.6 7.6 34.4 7.75 34.25 7.9 34.1 8.05 33.95 8.25 33.8 8.45 33.65 8.7 33.45 9.0 33.25 9.25 33.1 9.55 32.95 9.8 32.75 10.1 32.65 10.4 32.5 10.7 32.35 11.0 32.25 11.3 32.15 11.6 32.05 11.95 31.95 12.25 31.85 12.55 31.8 12.9 31.75 13.2 31.7 13.6 31.65 14.05 31.6 14.45 31.55 14.9 31.55 15.3 31.55 15.75 31.55 16.15 31.55 16.6 31.6 17.0 31.65 17.4 31.7 17.8 31.75 18.25 31.85 18.65 31.9 19.05 32.0 19.45 32.1 19.9 32.25 19.95 32.25 20.0 32.25 20.0 32.3 20.05 32.3 20.1 32.3 20.15 32.3 20.2 32.35 20.25 32.35 20.3 32.35 20.3 32.4 20.4 32.45 20.5 32.5 20.6 32.6 20.65 32.65 20.7 32.75 20.75 32.8 20.8 32.9 20.85 33.0 20.85 33.1 20.9 33.2 20.9 33.3 20.9 33.4 20.85 33.5 20.85 33.6 20.8 33.7 20.75 33.8 20.7 33.85 20.65 33.9 20.65 33.95 20.6 34.0 20.55 34.05 20.5 34.1 20.45 34.15 20.4 34.2 20.35 34.25 20.3 34.3 20.25 34.3 20.2 34.35 20.1 34.4 20.05 34.4 20.0 34.45 19.95 34.5 19.05 34.85 18.75 34.9 18.4 35.0 18.05 35.1 17.7 35.25 17.35 35.35 17.0 35.5 16.65 35.65 16.3 35.8 15.95 35.95 15.65 36.1 15.3 36.25 14.95 36.45 14.6 36.6 14.3 36.8 13.95 36.95 13.65 37.15 13.3 37.35 12.9 37.6 11.95 38.15 11.1 38.7 10.6 39.0 9.75 39.45 9.2 39.6 9.1 39.65 9.0 39.65 8.85 39.7 8.75 39.75 8.65 39.75 8.55 39.75 8.4 39.75 8.3 39.75 8.2 39.75 8.1 39.75 7.95 39.75 7.85 39.7 7.75 39.7 7.6 39.65 7.5 39.6 7.4 39.55 7.25 39.5 7.15 39.45 7.05 39.35 6.95 39.3 6.85 39.2 6.75 39.1 6.65 39.0 6.6 38.9 6.55 38.8 6.45 38.7 6.4 38.6 6.4 38.45 6.35 38.35 6.3 38.2 6.3 38.1 6.3 37.95 6.3 37.9 6.3 37.65 6.25 37.65 6.25 37.65 L6.25 37.65 M19.45 33.45 Q19.4 33.4 19.4 33.35 18.6 33.1 18.4 33.1 18.1 33.05 17.8 33.0 17.5 32.9 17.2 32.9 16.9 32.85 16.6 32.8 16.25 32.75 15.95 32.75 15.65 32.75 15.35 32.7 15.05 32.7 14.75 32.75 14.45 32.75 14.1 32.75 13.8 32.8 13.5 32.85 13.2 32.9 12.9 32.95 12.6 33.0 12.3 33.1 12.0 33.15 11.75 33.25 11.45 33.35 11.2 33.45 10.9 33.55 10.65 33.7 10.35 33.8 10.1 33.95 9.85 34.1 9.6 34.3 9.35 34.45 9.1 34.65 8.95 34.75 8.8 34.9 8.65 35.0 8.55 35.15 8.45 35.25 8.3 35.4 8.2 35.55 8.1 35.7 8.0 35.85 7.95 36.05 7.85 36.2 7.8 36.35 7.7 36.5 7.65 36.7 7.6 36.85 7.55 37.05 7.55 37.1 7.55 37.1 7.5 37.15 7.5 37.2 7.5 37.25 7.5 37.25 7.5 37.3 7.5 37.35 7.5 37.35 7.45 37.4 7.45 37.45 7.45 37.5 7.45 37.5 7.45 37.55 7.45 37.6 7.45 37.6 7.45 37.75 7.45 37.85 7.45 37.95 7.5 38.05 7.5 38.15 7.55 38.2 7.6 38.3 7.65 38.35 7.75 38.4 7.8 38.45 7.9 38.5 8.0 38.5 8.1 38.55 8.2 38.55 8.3 38.55 8.45 38.55 8.5 38.55 8.55 38.55 8.55 38.55 8.6 38.55 8.65 38.55 8.7 38.55 8.75 38.5 8.8 38.5 8.85 38.5 8.85 38.5 8.9 38.5 8.95 38.45 9.0 38.45 9.05 38.45 9.05 38.4 9.1 38.4 9.15 38.4 9.2 38.35 9.25 38.35 9.35 38.3 9.4 38.3 9.45 38.25 9.5 38.2 9.55 38.2 9.6 38.15 9.65 38.15 9.7 38.1 9.75 38.1 9.8 38.05 9.85 38.0 9.9 38.0 9.95 37.95 10.5 37.65 11.65 36.95 12.1 36.7 12.5 36.45 12.95 36.2 13.35 35.95 13.8 35.7 14.2 35.5 14.65 35.25 15.05 35.05 15.5 34.85 15.95 34.65 16.4 34.45 16.85 34.3 17.35 34.1 17.8 33.95 18.25 33.8 18.75 33.7 18.9 33.65 19.1 33.55 19.4 33.45 19.45 33.45 L19.45 33.45" fill="#000000" fill-rule="evenodd" stroke="none"/>
    <path d="M62.85 21.4 Q62.95 21.4 63.05 21.4 63.15 21.4 63.3 21.45 63.4 21.45 63.5 21.5 63.6 21.5 63.7 21.55 63.8 21.6 63.9 21.65 64.0 21.7 64.1 21.8 64.2 21.85 64.3 21.95 64.4 22.0 64.5 22.1 64.65 22.25 64.8 22.4 64.95 22.55 65.1 22.7 65.2 22.85 65.35 23.05 65.45 23.2 65.6 23.4 65.7 23.55 65.8 23.75 65.9 23.95 66.0 24.15 66.1 24.3 66.15 24.5 66.25 24.7 66.35 24.9 66.4 25.05 66.45 25.2 66.45 25.35 66.5 25.45 66.5 25.6 66.55 25.75 66.55 25.9 66.55 26.05 66.55 26.2 66.5 26.3 66.5 26.45 66.5 26.6 66.45 26.75 66.4 26.9 66.4 27.05 66.35 27.15 66.3 27.3 66.25 27.4 66.25 27.5 66.2 27.65 66.15 27.75 66.1 27.9 66.05 28.0 66.05 28.1 66.0 28.25 65.95 28.35 65.9 28.45 65.85 28.6 65.8 28.7 65.75 28.8 65.7 28.95 65.65 29.05 65.55 29.25 65.45 29.45 65.35 29.6 65.2 29.75 65.1 29.95 64.95 30.1 64.8 30.2 64.6 30.35 64.45 30.45 64.3 30.6 64.1 30.7 63.95 30.8 63.75 30.85 63.55 30.95 63.35 31.05 63.15 31.1 63.05 31.15 62.95 31.15 62.85 31.15 62.8 31.2 62.7 31.2 62.6 31.2 62.5 31.2 62.4 31.2 62.3 31.15 62.2 31.15 62.15 31.15 62.05 31.1 61.95 31.1 61.85 31.05 61.75 31.05 61.65 31.0 61.6 31.0 61.55 30.95 61.5 30.95 61.45 30.9 61.4 30.9 61.3 30.9 61.25 30.85 61.2 30.85 61.15 30.8 61.1 30.8 61.05 30.75 61.0 30.75 60.95 30.75 60.9 30.7 60.85 30.7 60.75 30.65 60.5 30.55 60.2 30.4 59.95 30.3 59.65 30.2 59.4 30.1 59.1 30.05 58.8 29.95 58.55 29.9 58.25 29.85 57.95 29.8 57.65 29.7 57.4 29.7 57.1 29.65 56.8 29.6 56.5 29.6 56.2 29.6 56.15 29.6 56.05 29.6 56.0 29.55 55.95 29.55 55.9 29.55 55.9 29.5 55.85 29.5 55.8 29.45 55.8 29.4 55.8 29.35 55.75 29.3 55.75 29.25 55.75 29.2 55.8 29.15 55.8 29.1 55.8 29.05 55.8 29.0 55.85 28.95 55.85 28.95 55.9 28.9 55.9 28.85 55.95 28.8 55.95 28.8 56.0 28.75 56.05 28.7 56.05 28.65 56.1 28.65 56.1 28.6 56.15 28.55 56.2 28.5 56.2 28.5 56.25 28.45 56.3 28.4 56.3 28.35 56.35 28.3 56.4 28.3 56.4 28.25 56.45 28.2 56.5 28.2 56.55 28.15 56.65 28.05 56.8 27.95 56.9 27.85 57.05 27.75 57.15 27.6 57.3 27.5 57.4 27.4 57.55 27.3 57.65 27.2 57.8 27.1 57.9 27.0 58.05 26.9 58.2 26.8 58.3 26.7 58.45 26.6 58.55 26.5 58.65 26.45 59.3 26.15 59.35 26.15 59.4 26.1 59.45 26.1 59.5 26.1 59.5 26.1 59.55 26.1 59.6 26.15 59.65 26.15 59.7 26.2 59.7 26.2 59.85 26.3 60.15 26.55 60.2 26.6 60.3 26.65 60.35 26.65 60.45 26.7 60.55 26.7 60.6 26.75 60.7 26.75 60.75 26.75 60.85 26.75 60.9 26.75 61.0 26.75 61.1 26.75 61.15 26.75 61.25 26.75 61.3 26.75 61.4 26.7 61.5 26.7 61.6 26.65 61.65 26.65 61.75 26.6 61.8 26.55 61.85 26.5 61.9 26.45 61.9 26.4 61.9 26.3 61.9 26.25 61.9 26.2 61.9 26.1 61.9 26.05 61.85 25.95 61.8 25.9 61.75 25.8 61.7 25.75 61.55 25.65 61.35 25.5 61.35 25.45 60.4 24.7 60.2 24.5 60.1 24.4 60.0 24.3 59.9 24.2 59.85 24.05 59.8 23.95 59.75 23.85 59.7 23.75 59.7 23.65 59.7 23.5 59.7 23.4 59.7 23.3 59.75 23.15 59.8 23.05 59.85 22.95 59.9 22.8 60.0 22.7 60.05 22.6 60.1 22.55 60.15 22.45 60.2 22.4 60.25 22.35 60.35 22.25 60.4 22.2 60.45 22.15 60.5 22.1 60.6 22.05 60.65 22.0 60.75 21.95 60.8 21.9 60.9 21.85 60.95 21.8 61.05 21.75 61.15 21.7 61.25 21.7 61.35 21.65 61.45 21.6 61.55 21.6 61.65 21.55 61.8 21.55 61.9 21.5 62.0 21.5 62.15 21.5 62.25 21.45 62.35 21.45 62.5 21.45 62.6 21.45 62.7 21.4 62.85 21.4 L62.85 21.4 M57.8 28.6 Q57.85 28.6 57.9 28.6 57.95 28.6 58.0 28.6 58.0 28.65 58.05 28.65 58.1 28.65 58.1 28.65 58.15 28.65 58.15 28.65 58.35 28.7 58.55 28.7 58.75 28.75 59.0 28.8 59.2 28.85 59.4 28.9 59.6 28.95 59.8 29.0 59.95 29.05 60.15 29.15 60.35 29.2 60.55 29.3 60.75 29.35 60.95 29.45 61.15 29.5 61.35 29.6 61.4 29.6 61.45 29.65 61.5 29.65 61.55 29.7 61.6 29.7 61.65 29.75 61.7 29.75 61.75 29.8 61.8 29.8 61.85 29.8 61.9 29.85 61.95 29.85 62.0 29.85 62.05 29.9 62.1 29.9 62.15 29.9 62.2 29.9 62.25 29.9 62.3 29.95 62.35 29.95 62.4 29.95 62.45 29.95 62.5 29.95 62.55 29.95 62.6 29.95 62.6 29.95 62.65 29.95 62.7 29.95 62.75 29.95 62.8 29.95 62.85 29.95 62.9 29.95 63.05 29.9 63.15 29.85 63.3 29.8 63.4 29.7 63.55 29.65 63.65 29.6 63.8 29.5 63.9 29.4 64.0 29.3 64.1 29.25 64.2 29.15 64.3 29.0 64.4 28.9 64.45 28.8 64.55 28.65 64.6 28.5 64.65 28.4 64.7 28.3 64.7 28.2 64.75 28.1 64.8 28.0 64.85 27.9 64.9 27.8 64.9 27.7 64.95 27.6 65.0 27.5 65.0 27.4 65.05 27.3 65.1 27.2 65.15 27.05 65.15 26.95 65.2 26.85 65.25 26.75 65.25 26.65 65.3 26.55 65.3 26.5 65.3 26.4 65.3 26.3 65.35 26.2 65.35 26.1 65.35 26.0 65.35 25.9 65.35 25.8 65.3 25.75 65.3 25.65 65.3 25.55 65.25 25.45 65.2 25.35 65.15 25.2 65.1 25.0 65.0 24.85 64.95 24.7 64.85 24.5 64.8 24.35 64.7 24.2 64.6 24.05 64.5 23.9 64.4 23.75 64.3 23.6 64.2 23.5 64.05 23.35 63.95 23.2 63.8 23.1 63.7 22.95 63.65 22.9 63.6 22.85 63.5 22.8 63.45 22.8 63.4 22.75 63.35 22.7 63.3 22.7 63.2 22.65 63.15 22.65 63.1 22.65 63.0 22.6 62.95 22.6 62.9 22.6 62.8 22.6 62.75 22.6 62.65 22.6 62.6 22.6 62.5 22.6 62.45 22.65 62.35 22.65 62.3 22.65 62.25 22.7 62.15 22.7 62.1 22.7 62.0 22.75 61.95 22.75 61.9 22.75 61.8 22.8 61.75 22.8 61.65 22.85 61.6 22.85 61.55 22.85 61.5 22.85 61.45 22.9 61.4 22.95 61.3 22.95 61.25 23.0 61.25 23.05 61.2 23.05 61.15 23.1 61.1 23.15 61.05 23.2 61.0 23.25 61.0 23.35 60.95 23.4 60.95 23.45 60.9 23.5 60.9 23.6 60.95 23.6 61.0 23.7 61.1 23.75 61.15 23.8 61.2 23.85 61.25 23.9 61.3 23.95 61.4 23.95 61.45 24.0 61.5 24.05 61.55 24.1 61.6 24.15 61.65 24.2 61.7 24.25 61.75 24.3 61.8 24.3 61.9 24.35 61.95 24.4 62.0 24.45 62.05 24.5 62.6 25.0 62.65 25.05 62.75 25.15 62.8 25.3 62.9 25.45 62.95 25.6 63.0 25.7 63.05 25.85 63.05 26.0 63.05 26.15 63.05 26.25 63.05 26.4 63.0 26.55 63.0 26.65 62.95 26.8 62.85 26.9 62.8 27.05 62.7 27.15 62.6 27.25 62.5 27.35 62.4 27.45 62.3 27.5 62.2 27.6 62.05 27.65 61.95 27.7 61.8 27.75 61.7 27.8 61.55 27.85 61.45 27.85 61.3 27.9 61.2 27.9 61.05 27.9 60.9 27.9 60.75 27.9 60.65 27.9 60.55 27.9 60.45 27.9 60.4 27.85 60.3 27.85 60.2 27.8 60.1 27.8 60.05 27.75 59.95 27.7 59.85 27.65 59.75 27.65 59.7 27.6 59.6 27.55 59.5 27.5 59.45 27.45 59.35 27.35 58.85 27.75 57.8 28.6 L57.8 28.6" fill="#000000" fill-rule="evenodd" stroke="none"/>
    <path d="M43.1 24.9 Q43.1 24.6 43.1 24.35 43.1 24.1 43.15 23.85 43.2 23.65 43.2 23.4 43.25 23.2 43.3 23.0 43.4 22.75 43.45 22.6 43.55 22.4 43.65 22.2 43.7 22.0 43.85 21.85 43.95 21.65 44.05 21.5 44.25 21.25 44.45 21.05 44.7 20.85 44.95 20.7 45.2 20.55 45.45 20.4 45.7 20.3 46.0 20.25 46.25 20.15 46.55 20.15 46.85 20.1 47.15 20.15 47.45 20.15 47.7 20.25 48.0 20.3 48.3 20.45 48.5 20.55 48.65 20.6 48.8 20.7 49.0 20.8 49.15 20.95 49.3 21.05 49.45 21.15 49.6 21.3 49.7 21.4 49.85 21.55 50.0 21.7 50.1 21.85 50.2 22.0 50.35 22.15 50.45 22.35 50.55 22.5 50.7 22.8 50.85 23.1 51.0 23.4 51.1 23.7 51.2 24.0 51.25 24.3 51.3 24.65 51.35 24.95 51.4 25.25 51.4 25.55 51.4 25.9 51.35 26.2 51.3 26.55 51.2 26.85 51.15 27.2 51.0 27.5 51.0 27.55 50.95 27.6 50.95 27.65 50.9 27.75 50.9 27.8 50.85 27.85 50.85 27.9 50.8 27.95 50.75 28.0 50.75 28.05 50.7 28.1 50.7 28.2 50.65 28.25 50.6 28.3 50.6 28.35 50.55 28.4 50.35 28.65 50.15 28.9 49.9 29.15 49.65 29.3 49.4 29.5 49.15 29.65 48.9 29.75 48.6 29.85 48.3 29.9 48.0 29.95 47.7 30.0 47.4 29.95 47.05 29.95 46.75 29.85 46.45 29.8 46.15 29.65 45.9 29.55 45.7 29.4 45.45 29.3 45.25 29.1 45.05 28.95 44.85 28.8 44.7 28.65 44.55 28.45 44.35 28.25 44.2 28.05 44.05 27.85 43.95 27.65 43.8 27.4 43.7 27.2 43.6 26.95 43.5 26.7 43.45 26.55 43.4 26.45 43.35 26.3 43.3 26.2 43.3 26.05 43.25 25.95 43.2 25.8 43.2 25.7 43.15 25.55 43.15 25.45 43.1 25.35 43.1 25.25 43.1 25.15 43.1 25.05 43.1 24.95 43.1 24.9 L43.1 24.9 M44.2 24.6 Q44.2 24.65 44.25 25.1 44.3 25.4 44.35 25.6 44.4 25.8 44.45 26.0 44.5 26.2 44.55 26.35 44.65 26.55 44.7 26.7 44.8 26.9 44.9 27.05 45.0 27.2 45.1 27.35 45.2 27.5 45.35 27.65 45.5 27.8 45.6 27.95 45.75 28.05 45.9 28.2 46.15 28.4 46.45 28.55 46.75 28.65 47.05 28.75 47.35 28.8 47.6 28.8 47.9 28.8 48.15 28.7 48.45 28.65 48.7 28.5 48.95 28.4 49.15 28.2 49.35 28.0 49.55 27.75 49.75 27.5 49.9 27.2 50.0 27.0 50.05 26.8 50.1 26.6 50.15 26.4 50.2 26.2 50.2 26.0 50.25 25.8 50.25 25.6 50.25 25.4 50.25 25.2 50.2 25.0 50.2 24.8 50.15 24.6 50.1 24.4 50.05 24.2 50.0 24.0 49.95 23.8 49.85 23.65 49.8 23.5 49.7 23.35 49.65 23.2 49.55 23.05 49.45 22.9 49.35 22.75 49.25 22.6 49.15 22.45 49.0 22.35 48.9 22.2 48.75 22.1 48.65 22.0 48.5 21.85 48.35 21.75 48.1 21.6 47.85 21.5 47.55 21.4 47.3 21.35 47.05 21.3 46.8 21.3 46.55 21.3 46.3 21.4 46.05 21.45 45.85 21.55 45.6 21.65 45.4 21.85 45.2 22.0 45.0 22.2 44.85 22.45 44.7 22.7 44.65 22.8 44.6 22.9 44.55 23.05 44.5 23.15 44.45 23.25 44.4 23.4 44.35 23.5 44.35 23.6 44.3 23.75 44.3 23.85 44.25 23.95 44.25 24.1 44.25 24.2 44.2 24.35 44.2 24.45 44.2 24.6 L44.2 24.6" fill="#000000" fill-rule="evenodd" stroke="none"/>
    <path d="M68.5 29.15 Q68.8 29.15 69.1 29.15 69.4 29.2 69.7 29.25 70.0 29.3 70.25 29.4 70.5 29.5 70.75 29.6 71.0 29.7 71.25 29.9 71.5 30.05 71.7 30.2 71.9 30.4 72.1 30.65 72.3 30.85 72.5 31.15 72.6 31.3 72.7 31.45 72.75 31.55 72.85 31.7 72.95 31.85 73.0 32.0 73.05 32.15 73.15 32.35 73.2 32.5 73.25 32.65 73.3 32.8 73.35 32.95 73.35 33.15 73.4 33.3 73.45 33.45 73.45 33.65 73.45 33.75 73.45 33.85 73.5 33.95 73.5 34.0 73.5 34.1 73.45 34.2 73.45 34.25 73.45 34.35 73.4 34.45 73.4 34.5 73.35 34.6 73.3 34.65 73.25 34.75 73.2 34.8 73.1 34.9 73.05 34.95 72.95 35.0 72.9 35.05 72.8 35.1 72.7 35.15 72.65 35.15 72.55 35.15 72.45 35.2 72.35 35.2 72.3 35.2 72.2 35.2 72.1 35.15 72.0 35.15 71.9 35.15 71.85 35.1 71.75 35.05 71.65 35.05 71.15 34.8 70.95 34.65 70.7 34.45 70.45 34.3 70.2 34.15 69.95 34.0 69.7 33.85 69.45 33.75 69.15 33.6 68.9 33.5 68.6 33.35 68.35 33.25 68.05 33.15 67.8 33.1 67.5 33.0 67.2 32.9 66.9 32.85 66.6 32.75 66.5 32.75 66.45 32.7 66.35 32.7 66.3 32.7 66.2 32.65 66.15 32.65 66.05 32.65 66.0 32.6 65.9 32.6 65.8 32.55 65.75 32.55 65.65 32.5 65.6 32.5 65.5 32.45 65.45 32.45 65.35 32.4 65.3 32.4 65.25 32.4 65.25 32.35 65.2 32.35 65.15 32.35 65.1 32.3 65.05 32.3 65.05 32.3 65.0 32.25 64.95 32.25 64.9 32.2 64.9 32.2 64.85 32.2 64.8 32.15 64.8 32.15 64.75 32.1 64.65 32.0 64.55 31.9 64.45 31.8 64.4 31.7 64.35 31.6 64.35 31.5 64.3 31.4 64.3 31.3 64.3 31.15 64.35 31.05 64.4 30.95 64.45 30.85 64.5 30.75 64.6 30.65 64.65 30.55 64.8 30.45 64.85 30.45 64.85 30.4 64.9 30.4 64.95 30.35 64.95 30.35 65.0 30.3 65.05 30.3 65.05 30.25 65.1 30.25 65.15 30.2 65.2 30.2 65.2 30.15 65.25 30.15 65.3 30.1 65.35 30.1 65.4 30.1 65.6 30.0 65.75 29.9 65.95 29.8 66.15 29.75 66.3 29.65 66.5 29.55 66.7 29.5 66.9 29.45 67.1 29.35 67.3 29.3 67.5 29.25 67.7 29.2 67.9 29.2 68.1 29.15 68.3 29.15 68.5 29.15 L68.5 29.15 M72.25 34.0 Q72.3 33.8 72.25 33.75 72.25 33.6 72.2 33.5 72.2 33.35 72.15 33.2 72.1 33.1 72.1 32.95 72.05 32.8 72.0 32.7 71.95 32.55 71.9 32.45 71.85 32.35 71.75 32.2 71.7 32.1 71.65 32.0 71.55 31.85 71.5 31.75 71.35 31.6 71.25 31.45 71.1 31.3 70.95 31.15 70.8 31.0 70.65 30.9 70.5 30.8 70.35 30.7 70.15 30.6 70.0 30.55 69.8 30.5 69.6 30.45 69.4 30.4 69.2 30.35 69.0 30.35 68.8 30.3 68.6 30.3 68.4 30.3 68.25 30.35 68.05 30.35 67.85 30.4 67.7 30.45 67.5 30.45 67.35 30.55 67.15 30.6 67.0 30.65 66.8 30.7 66.65 30.8 66.5 30.85 66.3 30.95 66.15 31.0 65.95 31.1 65.95 31.1 65.9 31.15 65.85 31.2 65.85 31.2 65.85 31.2 65.8 31.25 65.8 31.25 65.75 31.3 65.8 31.3 65.85 31.35 65.95 31.35 65.95 31.4 66.05 31.4 66.25 31.45 66.5 31.55 66.6 31.55 66.95 31.6 67.3 31.7 67.6 31.8 67.95 31.9 68.3 32.0 68.6 32.1 68.95 32.2 69.25 32.35 69.6 32.5 69.9 32.65 70.2 32.8 70.5 32.95 70.8 33.1 71.1 33.3 71.4 33.5 71.7 33.7 71.75 33.75 72.25 34.0 L72.25 34.0" fill="#000000" fill-rule="evenodd" stroke="none"/>
  </g>
</svg>
