<?xml version="1.0" encoding="UTF-8" standalone="no"?>
<svg xmlns:xlink="http://www.w3.org/1999/xlink" height="140.7px" width="163.0px" xmlns="http://www.w3.org/2000/svg">
  <g transform="matrix(1.0, 0.0, 0.0, 1.0, 100.0, 100.0)">
    <path d="M42.15 -4.1 Q41.95 -4.1 41.8 -4.05 41.6 -4.0 41.45 -3.9 41.3 -3.85 41.15 -3.75 41.0 -3.7 40.9 -3.6 40.8 -3.55 40.7 -3.45 40.6 -3.4 40.5 -3.3 40.45 -3.25 40.35 -3.15 40.3 -3.1 40.25 -3.05 40.05 -2.85 39.9 -2.6 39.8 -2.4 39.65 -2.2 39.55 -1.95 39.5 -1.75 39.45 -1.55 39.4 -1.3 39.35 -1.1 39.3 -0.9 39.3 -0.75 39.3 -0.55 39.3 -0.4 39.3 -0.25 39.3 -0.15 39.3 0.0 39.3 0.3 39.35 0.6 39.4 0.85 39.45 1.1 39.5 1.35 39.6 1.6 39.7 1.8 39.8 2.0 39.85 2.2 39.95 2.35 40.05 2.5 40.15 2.65 40.25 2.8 40.35 2.9 40.4 3.0 40.45 3.1 40.7 3.35 40.6 3.25 40.7 3.35 40.75 3.45 40.85 3.55 40.95 3.65 41.05 3.75 41.15 3.8 41.25 3.9 41.35 4.0 41.45 4.1 41.6 4.15 41.75 4.25 41.9 4.35 42.05 4.4 42.2 4.45 42.25 4.45 42.35 4.5 42.4 4.55 42.5 4.55 42.65 4.6 42.75 4.6 42.9 4.65 43.0 4.65 43.15 4.65 43.3 4.65 43.5 4.65 43.65 4.65 43.85 4.6 44.0 4.6 44.2 4.55 44.4 4.45 44.6 4.35 44.8 4.25 44.95 4.15 45.15 4.0 45.3 3.9 45.4 3.75 45.55 3.6 45.65 3.5 45.75 3.35 45.85 3.2 45.9 3.1 45.95 2.95 46.0 2.85 46.05 2.75 46.1 2.7 46.15 2.6 46.25 2.4 46.3 2.2 46.35 2.05 46.35 1.85 46.4 1.65 46.4 1.45 46.4 1.25 46.4 1.05 46.4 0.9 46.35 0.7 46.35 0.5 46.3 0.3 46.3 0.15 46.25 -0.05 46.25 -0.2 46.2 -0.45 46.1 -0.8 46.15 -0.75 46.1 -0.9 46.05 -1.05 46.05 -1.2 46.0 -1.3 45.95 -1.45 45.9 -1.55 45.9 -1.7 45.85 -1.8 45.8 -1.9 45.75 -2.05 45.7 -2.15 45.6 -2.25 45.55 -2.35 45.45 -2.5 45.35 -2.65 45.2 -2.8 45.05 -3.0 44.9 -3.15 44.7 -3.3 44.55 -3.45 44.35 -3.6 44.15 -3.7 43.9 -3.85 43.7 -3.95 43.45 -4.0 43.2 -4.1 42.95 -4.15 42.7 -4.15 42.4 -4.15 42.15 -4.1 L42.15 -4.1" fill="#6d6b24" fill-rule="evenodd" stroke="none"/>
    <path d="M44.0 -7.55 Q43.95 -7.35 43.85 -7.15 43.75 -7.0 43.65 -6.85 43.5 -6.7 43.4 -6.55 43.25 -6.45 43.1 -6.3 42.95 -6.2 42.8 -6.15 42.7 -6.05 42.55 -6.0 42.45 -5.95 42.3 -5.9 42.25 -5.85 42.15 -5.8 42.05 -5.75 42.0 -5.75 41.9 -5.7 41.85 -5.7 41.7 -5.65 41.6 -5.65 41.45 -5.6 41.3 -5.6 41.15 -5.55 41.0 -5.55 40.8 -5.55 40.65 -5.55 40.45 -5.55 40.25 -5.6 40.05 -5.65 39.85 -5.7 39.75 -5.75 39.7 -5.75 39.65 -5.8 39.55 -5.8 39.45 -5.85 39.35 -5.9 39.2 -5.95 39.1 -6.05 39.0 -6.1 38.85 -6.2 38.75 -6.3 38.65 -6.4 38.5 -6.55 38.4 -6.65 38.3 -6.8 38.2 -7.0 38.15 -7.05 38.15 -7.1 38.1 -7.15 38.1 -7.2 38.05 -7.3 38.0 -7.4 38.0 -7.5 37.95 -7.6 37.9 -7.75 37.9 -7.85 37.9 -8.0 37.9 -8.15 37.9 -8.3 37.9 -8.45 37.9 -8.6 37.95 -8.75 38.0 -8.9 38.05 -9.05 38.1 -9.2 38.2 -9.3 38.25 -9.4 38.35 -9.55 38.45 -9.65 38.5 -9.7 38.6 -9.8 38.7 -9.9 38.75 -9.95 38.85 -10.0 38.95 -10.05 39.0 -10.1 39.05 -10.15 39.15 -10.2 39.15 -10.2 39.25 -10.25 39.35 -10.35 39.5 -10.4 39.65 -10.45 39.85 -10.55 40.1 -10.65 40.3 -10.7 40.6 -10.75 40.85 -10.75 41.15 -10.8 41.45 -10.75 41.75 -10.75 42.05 -10.65 42.35 -10.55 42.65 -10.35 42.8 -10.25 42.95 -10.1 43.1 -10.0 43.25 -9.85 43.4 -9.7 43.5 -9.5 43.65 -9.35 43.75 -9.15 43.85 -9.0 43.9 -8.8 44.0 -8.6 44.0 -8.4 44.05 -8.15 44.05 -7.95 44.05 -7.75 44.0 -7.55 L44.0 -7.55" fill="#6d6b24" fill-rule="evenodd" stroke="none"/>
  </g>
</svg>
