<?xml version="1.0" encoding="UTF-8" standalone="no"?>
<svg xmlns:xlink="http://www.w3.org/1999/xlink" height="200.0px" width="200.0px" xmlns="http://www.w3.org/2000/svg">
  <g transform="matrix(1.0, 0.0, 0.0, 1.0, 100.0, 100.0)">
    <path d="M-69.05 5.65 Q-69.0 5.6 -68.9 5.5 -68.85 5.45 -68.8 5.4 -68.7 5.3 -68.6 5.25 -68.55 5.2 -68.45 5.15 -68.35 5.05 -68.25 5.0 -68.15 4.95 -68.0 4.9 -67.9 4.85 -67.8 4.8 -67.65 4.75 -67.5 4.7 -67.3 4.65 -67.05 4.6 -66.85 4.6 -66.65 4.6 -66.45 4.55 -66.25 4.6 -66.05 4.6 -65.85 4.65 -65.65 4.7 -65.45 4.75 -65.25 4.8 -65.0 4.9 -64.85 4.95 -64.6 5.0 -64.3 5.1 -64.15 5.15 -63.95 5.2 -63.75 5.3 -63.5 5.35 -63.25 5.4 -63.05 5.5 -62.75 5.55 -62.5 5.65 -62.25 5.7 -61.95 5.75 -61.65 5.8 -61.35 5.9 -61.0 5.95 -60.7 6.0 -60.35 6.05 -60.0 6.1 -59.65 6.15 -59.9 5.3 -60.4 3.65 -60.2 3.15 -60.0 2.7 -59.8 2.2 -59.55 1.7 -59.3 1.15 -59.05 0.65 -58.8 0.1 -58.5 -0.45 -58.2 -1.05 -57.85 -1.6 -57.5 -2.2 -57.15 -2.75 -56.75 -3.35 -56.35 -3.95 -55.95 -4.55 -55.5 -5.15 -55.0 -5.85 -54.5 -6.5 -54.0 -7.1 -53.45 -7.7 -52.95 -8.3 -52.4 -8.85 -51.95 -9.4 -51.4 -9.9 -50.95 -10.35 -50.4 -10.85 -49.95 -11.25 -49.45 -11.7 -49.0 -12.1 -48.55 -12.45 -48.1 -12.8 -47.7 -13.15 -46.5 -6.2 -44.15 7.6 -42.15 7.65 -38.2 7.75 -40.15 -6.8 -40.8 -15.95 -40.85 -16.6 -40.9 -17.1 -40.9 -17.75 -40.95 -18.35 -40.95 -19.0 -41.0 -19.6 -41.0 -20.25 -41.05 -20.9 -41.05 -21.6 -41.05 -22.3 -41.05 -23.05 -41.0 -23.75 -41.0 -24.55 -40.95 -25.3 -40.95 -26.1 -40.85 -26.95 -40.85 -27.35 -40.8 -27.7 -40.75 -28.05 -40.75 -28.4 -40.7 -28.75 -40.65 -29.1 -40.65 -29.45 -40.6 -29.75 -40.55 -30.05 -40.55 -30.35 -40.5 -30.65 -40.45 -30.9 -40.45 -31.2 -40.4 -31.45 -40.35 -31.65 -40.35 -31.9 -40.6 -31.7 -40.85 -31.5 -41.15 -31.25 -41.45 -31.05 -41.75 -30.75 -42.05 -30.5 -42.4 -30.25 -42.7 -29.95 -43.05 -29.65 -43.45 -29.3 -43.8 -29.0 -44.15 -28.65 -44.55 -28.3 -44.95 -27.95 -45.35 -27.55 -45.75 -27.15 -46.45 -26.45 -47.05 -25.85 -47.75 -25.1 -48.55 -24.2 -49.45 -23.15 -50.6 -21.75 -51.85 -20.2 -53.5 -18.15 -55.15 -15.95 -57.4 -13.0 -63.95 -4.35 -66.0 -0.65 -66.25 -0.2 -66.5 0.3 -66.75 0.75 -66.95 1.2 -67.2 1.6 -67.4 2.05 -67.6 2.45 -67.8 2.85 -68.0 3.25 -68.15 3.65 -68.35 4.0 -68.5 4.35 -68.65 4.7 -68.8 5.0 -68.95 5.3 -69.05 5.65 L-69.05 5.65" fill="#38705c" fill-rule="evenodd" stroke="none"/>
    <path d="M-39.95 -32.45 Q-39.25 -32.4 -37.9 -32.35 -38.05 -28.85 -38.05 -25.95 -38.0 -21.2 -37.1 -13.6 -36.9 -11.85 -36.7 -10.15 -36.45 -8.5 -36.25 -6.95 -36.0 -5.45 -35.8 -4.0 -35.55 -2.7 -35.35 -1.4 -35.15 -0.25 -34.9 0.9 -34.75 1.85 -34.55 2.8 -34.4 3.6 -34.25 4.4 -34.1 4.95 -33.95 5.55 -33.85 6.0 -33.75 6.45 -33.65 6.85 -33.55 7.3 -33.5 7.7 -33.4 8.1 -33.3 8.45 -33.2 8.85 -33.15 9.2 -33.05 9.55 -32.95 9.9 -32.9 10.2 -32.8 10.5 -32.75 10.8 -32.65 11.1 -32.6 11.35 -33.35 11.3 -34.1 11.3 -34.9 11.25 -35.7 11.25 -36.55 11.25 -37.35 11.25 -38.2 11.25 -39.1 11.3 -39.95 11.35 -40.85 11.4 -41.8 11.45 -42.7 11.55 -43.65 11.65 -44.6 11.8 -45.55 11.9 -46.55 12.05 -47.0 12.1 -47.4 12.2 -47.85 12.25 -48.25 12.35 -48.65 12.45 -49.05 12.5 -49.5 12.6 -49.9 12.7 -50.3 12.8 -50.7 12.85 -51.05 12.95 -51.45 13.05 -51.85 13.15 -52.2 13.25 -52.6 13.35 -52.95 13.45 -53.15 14.05 -53.3 14.65 -53.5 15.4 -53.65 16.1 -53.8 16.9 -53.95 17.7 -54.1 18.6 -54.2 19.5 -54.3 20.5 -54.35 21.5 -54.45 22.55 -54.45 23.6 -54.45 24.7 -54.35 25.85 -54.3 27.05 -54.1 28.2 -54.0 29.1 -53.8 30.0 -53.65 30.8 -53.5 31.65 -53.3 32.4 -53.1 33.15 -52.9 33.85 -52.65 34.55 -52.45 35.2 -52.2 35.8 -52.0 36.4 -51.8 36.95 -51.55 37.4 -51.35 37.9 -51.15 38.3 -51.0 38.7 -50.25 40.3 -49.3 41.8 -48.45 43.15 -47.45 44.5 -46.55 45.7 -45.55 46.8 -44.65 47.85 -43.65 48.8 -42.75 49.65 -41.8 50.4 -41.0 51.1 -40.15 51.75 -39.45 52.25 -38.75 52.75 -38.2 53.1 -37.65 53.4 -37.25 53.65 -36.8 53.9 -36.2 54.25 -35.55 54.6 -34.75 55.0 -33.9 55.4 -32.9 55.85 -31.9 56.25 -30.75 56.65 -29.55 57.05 -28.2 57.45 -26.85 57.75 -25.4 58.1 -23.9 58.3 -22.25 58.55 -20.65 58.65 -19.65 58.7 -18.7 58.7 -17.8 58.7 -16.9 58.65 -16.0 58.55 -15.1 58.45 -14.3 58.35 -13.4 58.2 -12.55 58.05 -11.6 57.85 -10.8 57.7 -9.8 57.45 -8.95 57.25 -7.85 56.95 -7.2 56.8 -5.8 56.4 -4.85 56.15 -3.9 55.9 -2.75 55.55 -1.6 55.2 -0.25 54.75 1.15 54.25 2.65 53.7 4.2 53.1 5.9 52.4 7.55 51.65 9.4 50.85 11.2 49.95 13.1 48.95 15.0 47.9 17.0 46.75 18.95 45.55 20.9 44.3 21.75 43.75 23.2 42.85 24.2 42.15 25.4 41.4 26.3 40.75 27.3 40.05 28.1 39.45 28.95 38.8 29.6 38.25 30.3 37.65 30.85 37.05 31.35 36.5 31.8 35.9 32.2 35.35 32.5 34.75 32.6 34.6 32.9 33.95 33.2 33.35 33.4 32.9 33.7 32.3 34.0 31.75 34.4 31.1 34.8 30.5 35.2 29.85 35.65 29.3 36.2 28.65 36.7 28.1 37.3 27.5 37.9 27.05 38.55 26.55 39.25 26.25 39.4 26.15 39.55 26.1 39.7 26.05 39.85 26.0 40.0 25.9 40.15 25.9 40.3 25.85 40.45 25.8 40.6 25.8 40.75 25.75 40.9 25.75 41.05 25.75 41.2 25.8 41.35 25.8 41.5 25.85 41.65 25.9 41.9 26.0 42.1 26.2 42.3 26.4 42.45 26.7 42.6 26.95 42.7 27.25 42.8 27.55 42.85 27.9 42.9 28.25 42.95 28.6 42.95 28.95 42.9 29.35 42.9 29.7 42.85 30.05 42.75 30.4 42.65 30.75 42.55 31.0 42.45 31.2 42.35 31.45 42.25 31.65 42.15 31.8 42.0 32.0 41.9 32.15 41.75 32.35 41.65 32.5 41.5 32.65 41.4 32.75 41.3 32.9 41.2 33.0 41.05 33.1 41.0 33.15 40.85 33.3 39.95 34.1 37.85 36.3 35.95 38.25 34.75 39.25 33.85 40.0 33.15 40.6 32.5 41.2 32.0 41.7 31.55 42.15 31.1 42.6 30.85 42.9 30.4 43.35 29.95 43.9 29.75 44.1 29.4 44.5 29.05 44.85 28.6 45.25 28.1 45.7 27.55 46.2 26.85 46.75 24.5 48.6 17.65 52.5 9.55 57.1 6.7 58.3 5.6 58.8 4.45 59.2 3.4 59.6 2.35 60.0 1.3 60.35 0.25 60.65 -0.7 60.95 -1.7 61.2 -2.65 61.45 -3.65 61.7 -4.55 61.9 -5.55 62.1 -6.4 62.3 -7.4 62.5 -8.1 62.6 -9.25 62.85 -10.85 63.15 -11.55 63.3 -12.7 63.5 -13.6 63.65 -14.6 63.85 -15.45 63.95 -16.35 64.1 -17.15 64.2 -17.95 64.3 -18.75 64.35 -19.55 64.45 -20.35 64.45 -21.15 64.45 -21.95 64.45 -22.75 64.45 -23.65 64.35 -24.2 64.3 -24.75 64.25 -25.45 64.2 -26.15 64.1 -26.95 64.0 -27.75 63.85 -28.65 63.7 -29.55 63.5 -30.55 63.25 -31.5 62.95 -32.6 62.65 -33.65 62.3 -34.8 61.9 -35.9 61.45 -37.1 60.95 -38.25 60.4 -38.65 60.2 -39.0 60.05 -39.5 59.75 -40.05 59.45 -40.7 59.1 -41.35 58.7 -42.15 58.2 -42.9 57.7 -43.75 57.1 -44.6 56.45 -45.55 55.75 -46.45 55.0 -47.45 54.15 -48.4 53.25 -49.4 52.3 -50.35 51.3 -51.35 50.25 -51.85 49.7 -52.7 48.75 -53.35 47.95 -54.2 47.0 -54.9 46.05 -55.7 45.0 -56.35 44.0 -57.1 42.9 -57.7 41.75 -58.35 40.55 -58.85 39.35 -59.4 38.05 -59.75 36.75 -60.15 35.3 -60.3 33.9 -60.4 33.15 -60.45 32.45 -60.5 31.85 -60.5 31.1 -60.5 30.5 -60.45 29.6 -60.4 29.15 -60.3 27.75 -60.25 26.4 -60.15 25.4 -60.1 23.85 -60.05 22.3 -59.95 20.35 -59.9 18.25 -59.85 15.8 -59.85 13.05 -59.85 12.35 -59.85 11.2 -60.05 11.05 -60.25 10.9 -60.45 10.8 -60.65 10.65 -60.85 10.5 -61.05 10.35 -61.25 10.2 -61.45 10.05 -61.7 9.9 -61.9 9.8 -62.15 9.65 -62.4 9.5 -62.65 9.35 -62.9 9.2 -63.15 9.05 -63.4 8.9 -63.75 8.7 -64.15 8.5 -64.5 8.35 -64.85 8.15 -65.2 8.0 -65.55 7.85 -65.9 7.7 -66.25 7.55 -66.55 7.45 -66.9 7.3 -67.2 7.2 -67.55 7.1 -67.85 7.0 -68.15 6.9 -68.45 6.8 -68.75 6.7 -68.85 6.35 -69.05 5.65 -68.9 5.55 -68.75 5.5 -68.6 5.4 -68.4 5.35 -68.25 5.25 -68.05 5.2 -67.85 5.1 -67.65 5.05 -67.45 5.0 -67.25 4.9 -67.0 4.85 -66.8 4.8 -66.55 4.75 -66.3 4.75 -66.05 4.7 -65.8 4.65 -65.15 4.6 -64.5 4.65 -63.9 4.7 -63.3 4.8 -62.75 4.95 -62.2 5.15 -61.7 5.3 -61.2 5.55 -60.8 5.75 -60.4 6.0 -60.05 6.2 -59.7 6.4 -59.45 6.6 -59.2 6.8 -59.05 6.95 -58.85 7.1 -59.25 5.9 -59.95 3.5 -59.75 3.1 -59.6 2.65 -59.4 2.2 -59.2 1.8 -58.95 1.3 -58.75 0.85 -58.5 0.4 -58.25 -0.1 -58.0 -0.55 -57.7 -1.05 -57.4 -1.55 -57.1 -2.05 -56.8 -2.55 -56.45 -3.05 -56.1 -3.6 -55.75 -4.1 -55.25 -4.8 -54.75 -5.45 -54.25 -6.1 -53.7 -6.7 -53.2 -7.25 -52.7 -7.85 -52.2 -8.35 -51.65 -8.9 -51.15 -9.35 -50.65 -9.85 -50.2 -10.25 -49.7 -10.7 -49.25 -11.1 -48.8 -11.45 -48.35 -11.8 -47.9 -12.15 -47.85 -11.75 -47.8 -11.35 -47.75 -10.9 -47.7 -10.5 -47.65 -10.1 -47.6 -9.65 -47.5 -9.25 -47.45 -8.8 -47.4 -8.4 -47.35 -7.95 -47.25 -7.55 -47.2 -7.1 -47.15 -6.7 -47.05 -6.25 -47.0 -5.85 -46.9 -5.4 -46.75 -4.55 -46.6 -3.7 -46.45 -2.85 -46.3 -2.0 -46.15 -1.15 -45.95 -0.3 -45.8 0.5 -45.65 1.3 -45.45 2.15 -45.3 2.95 -45.1 3.75 -44.9 4.5 -44.75 5.3 -44.55 6.1 -44.35 6.85 -44.15 7.6 -42.15 7.65 -38.2 7.75 -38.15 5.5 -38.25 2.7 -38.3 1.3 -38.4 -0.1 -38.5 -1.4 -38.6 -2.7 -38.7 -3.85 -38.85 -5.05 -38.95 -6.05 -39.1 -7.15 -39.25 -8.1 -39.4 -9.1 -39.5 -9.8 -39.65 -10.9 -39.85 -12.15 -39.9 -12.5 -40.0 -13.35 -40.1 -14.0 -40.2 -14.85 -40.3 -15.7 -40.4 -16.6 -40.45 -17.55 -40.55 -18.55 -40.6 -19.6 -40.65 -20.7 -40.65 -21.8 -40.65 -23.0 -40.65 -24.2 -40.6 -25.5 -40.5 -26.8 -40.45 -28.15 -40.3 -29.55 -40.15 -31.0 -39.95 -32.45 L-39.95 -32.45" fill="#38705c" fill-rule="evenodd" stroke="none"/>
  </g>
</svg>
