<?xml version="1.0" encoding="UTF-8" standalone="no"?>
<svg xmlns:xlink="http://www.w3.org/1999/xlink" height="31.3px" width="64.45px" xmlns="http://www.w3.org/2000/svg">
  <g transform="matrix(1.0, 0.0, 0.0, 1.0, 32.25, 15.65)">
    <path d="M-27.05 9.55 Q-27.05 9.45 -27.05 9.35 -27.05 9.25 -27.0 9.15 -27.0 9.05 -26.95 8.95 -26.9 8.85 -26.85 8.75 -26.8 8.65 -26.75 8.55 -26.7 8.5 -26.6 8.4 -26.55 8.3 -26.45 8.2 -26.4 8.15 -26.3 8.05 -26.25 8.0 -26.25 7.95 -26.2 7.95 -26.2 7.9 -26.15 7.85 -26.1 7.85 -26.1 7.8 -26.05 7.8 -26.05 7.75 -26.0 7.75 -25.95 7.7 -25.95 7.7 -25.9 7.65 -25.85 7.65 -25.85 7.65 -25.8 7.6 -25.75 7.6 -25.7 7.55 -25.65 7.55 -25.6 7.55 -25.55 7.5 -25.5 7.5 -25.45 7.5 -25.4 7.5 -25.35 7.5 -25.3 7.5 -25.3 7.45 -25.25 7.45 -25.2 7.45 -25.15 7.45 -25.15 7.45 -25.1 7.45 -25.1 7.45 -25.05 7.45 -25.0 7.45 -24.95 7.45 -24.9 7.45 -24.85 7.45 -24.8 7.5 -24.75 7.5 -24.7 7.5 -24.6 7.5 -24.55 7.55 -24.45 7.55 -24.4 7.55 -24.3 7.6 -24.25 7.65 -24.15 7.65 -23.9 7.8 -23.45 8.15 -23.25 8.3 -22.45 9.1 -21.95 9.5 -21.8 9.6 -21.75 9.65 -21.7 9.65 -21.6 9.7 -21.55 9.7 -21.5 9.75 -21.45 9.75 -21.4 9.8 -21.35 9.8 -21.35 9.8 -21.3 9.8 -21.25 9.85 -21.25 9.85 -21.2 9.85 -21.2 9.85 -21.15 9.85 -21.15 9.85 -21.1 9.85 -21.05 9.85 -21.0 9.85 -20.95 9.85 -20.9 9.85 -20.9 9.85 -20.85 9.85 -20.8 9.85 -20.8 9.85 -20.75 9.85 -20.75 9.85 -20.7 9.85 -20.7 9.85 -20.7 9.85 -20.6 9.85 -20.35 9.8 -20.35 9.8 -20.3 9.8 -20.1 9.8 -20.25 9.8 -20.15 9.8 -20.1 9.8 -20.05 9.8 -20.0 9.8 -19.9 9.8 -19.85 9.85 -19.75 9.85 -19.65 9.85 -19.55 9.9 -19.5 9.95 -19.4 9.95 -19.3 10.0 -19.25 10.05 -19.25 10.05 -19.2 10.1 -19.2 10.15 -19.15 10.15 -19.15 10.2 -19.1 10.2 -19.05 10.25 -19.0 10.3 -18.95 10.35 -18.95 10.35 -18.9 10.4 -18.85 10.4 -18.85 10.4 -18.8 10.45 -18.8 10.45 -18.75 10.5 -18.7 10.5 -18.65 10.5 -18.65 10.55 -18.6 10.55 -18.55 10.55 -18.5 10.6 -18.45 10.6 -18.4 10.6 -18.35 10.65 -18.35 10.65 -18.3 10.65 -18.3 10.65 -18.25 10.65 -18.25 10.65 -18.2 10.7 -18.15 10.7 -18.15 10.7 -18.1 10.7 -18.05 10.7 -18.0 10.7 -17.95 10.7 -17.95 10.7 -17.9 10.7 -17.85 10.7 -17.8 10.7 -17.75 10.7 -17.7 10.7 -17.65 10.7 -17.6 10.65 -17.55 10.65 -17.5 10.65 -17.4 10.65 -17.3 10.6 -16.9 10.6 -16.8 10.6 -16.75 10.6 -16.75 10.6 -16.7 10.6 -16.65 10.6 -16.6 10.65 -16.55 10.65 -16.5 10.65 -16.45 10.7 -16.4 10.7 -16.35 10.75 -16.3 10.8 -16.3 10.8 -16.25 10.8 -16.25 10.85 -16.25 10.85 -16.2 10.9 -16.2 10.9 -16.15 10.95 -16.1 10.95 -16.1 11.0 -16.1 11.0 -16.05 11.05 -16.0 11.05 -16.0 11.05 -15.95 11.1 -15.95 11.1 -15.9 11.1 -15.85 11.15 -15.85 11.15 -15.8 11.15 -15.75 11.2 -15.75 11.2 -15.7 11.2 -15.65 11.2 -15.6 11.2 -15.55 11.25 -15.5 11.25 -15.45 11.25 -15.4 11.25 -15.35 11.2 -15.3 11.2 -15.3 11.2 -15.25 11.2 -15.2 11.15 -15.15 11.15 -15.15 11.15 -15.1 11.1 -15.1 11.1 -15.05 11.1 -15.05 11.1 -15.05 11.1 -15.05 11.05 -15.0 11.05 -14.95 11.0 -14.95 11.0 -14.9 10.95 -14.9 10.95 -14.85 10.9 -14.85 10.9 -14.85 10.9 -14.8 10.85 -14.8 10.85 -14.8 10.85 -14.75 10.85 -14.75 10.8 -14.7 10.8 -14.7 10.8 -14.65 10.8 -14.65 10.8 -14.6 10.8 -14.6 10.75 -14.55 10.75 -14.5 10.75 -14.5 10.75 -14.45 10.75 -14.45 10.75 -14.4 10.7 -14.35 10.7 -14.35 10.7 -14.25 10.7 -14.2 10.7 -14.2 10.7 -14.1 10.65 -14.05 10.65 -14.0 10.65 -13.95 10.65 -13.85 10.65 -13.8 10.65 -13.7 10.65 -13.65 10.65 -13.55 10.65 -13.45 10.7 -13.4 10.7 -13.3 10.7 -13.2 10.7 -13.15 10.75 -13.05 10.75 -12.95 10.8 -12.9 10.8 -12.8 10.85 -12.75 10.85 -12.7 10.9 -12.65 10.95 -12.55 10.95 -12.5 11.0 -12.45 11.0 -12.4 11.05 -12.35 11.1 -12.35 11.1 -12.3 11.15 -12.2 11.2 -11.5 11.8 -11.0 12.2 -10.75 12.4 -10.65 12.45 -10.6 12.5 -10.55 12.55 -10.5 12.55 -10.45 12.6 -10.4 12.65 -10.35 12.65 -10.3 12.7 -10.25 12.7 -10.2 12.75 -10.15 12.75 -10.15 12.75 -10.1 12.8 -10.05 12.8 -10.0 12.8 -9.95 12.85 -9.9 12.85 -9.8 12.85 -9.75 12.9 -9.7 12.9 -9.65 12.9 -9.6 12.9 -9.5 12.9 -9.45 12.9 -9.4 12.9 -9.35 12.9 -9.3 12.85 -9.3 12.85 -9.25 12.85 -9.2 12.85 -9.15 12.85 -9.15 12.85 -8.95 12.8 -8.35 12.45 -8.3 12.4 -8.2 12.35 -8.15 12.35 -8.1 12.3 -8.1 12.3 -8.05 12.25 -8.3 12.4 -7.95 12.2 -7.95 12.2 -7.9 12.15 -7.85 12.15 -7.85 12.1 -7.8 12.1 -7.75 12.1 -7.7 12.05 -7.65 12.05 -7.6 12.0 -7.55 12.0 -7.5 12.0 -7.5 11.95 -7.45 11.95 -7.4 11.9 -7.35 11.9 -7.35 11.9 -7.3 11.85 -7.25 11.85 -7.2 11.85 -7.15 11.8 -7.1 11.8 -7.05 11.8 -7.0 11.8 -6.95 11.8 -6.9 11.8 -6.9 11.8 -6.85 11.8 -6.8 11.8 -6.75 11.75 -6.75 11.75 -6.7 11.75 -6.65 11.75 -6.6 11.75 -6.55 11.8 -6.5 11.8 -6.45 11.8 -6.4 11.8 -6.35 11.85 -6.25 11.85 -6.2 11.85 -6.05 11.95 -5.85 12.15 -5.6 12.4 -5.6 12.4 -5.55 12.4 -5.3 12.6 -5.25 12.65 -5.2 12.65 -5.15 12.7 -5.15 12.7 -5.1 12.75 -5.05 12.75 -5.05 12.75 -5.05 12.8 -5.0 12.8 -5.0 12.8 -4.95 12.85 -4.95 12.85 -4.95 12.85 -4.9 12.9 -4.9 12.9 -4.85 12.9 -4.85 12.9 -4.8 12.95 -4.75 12.95 -4.75 12.95 -4.7 13.0 -4.7 13.0 -4.65 13.0 -4.6 13.05 -4.55 13.05 -4.55 13.05 -4.5 13.1 -4.45 13.1 -4.4 13.1 -4.35 13.1 -4.3 13.15 -4.25 13.15 -4.25 13.15 -4.2 13.15 -4.2 13.15 -4.15 13.15 -4.15 13.15 -4.1 13.15 -4.1 13.15 -4.05 13.15 -4.05 13.15 -4.0 13.15 -3.95 13.15 -3.9 13.15 -3.9 13.15 -3.85 13.15 -3.8 13.1 -3.75 13.1 -3.7 13.1 -3.6 13.05 -3.45 13.0 -3.15 12.85 -3.0 12.8 -2.95 12.75 -4.0 13.4 -2.85 12.65 -2.8 12.65 -2.75 12.65 -2.65 12.6 -2.55 12.6 -2.5 12.55 -2.4 12.55 -2.3 12.55 -2.25 12.55 -2.15 12.55 -2.1 12.55 -2.05 12.55 -1.95 12.55 -1.9 12.6 -1.85 12.6 -1.8 12.6 -1.8 12.6 -1.75 12.6 -1.75 12.65 -1.7 12.65 -1.65 12.7 -1.6 12.7 -1.55 12.7 -1.55 12.7 -1.5 12.75 -1.45 12.75 -1.4 12.8 -1.4 12.8 -1.35 12.8 -1.35 12.8 -1.35 12.85 -1.3 12.85 -1.3 12.85 -1.25 12.9 -1.2 12.9 -1.2 12.9 -1.15 12.95 -1.15 12.95 -1.15 13.0 -1.1 13.0 -1.05 13.0 -1.05 13.0 -1.0 13.0 -1.0 13.05 -0.95 13.05 -0.95 13.05 -0.9 13.1 -0.85 13.1 -0.8 13.1 -0.75 13.15 -0.7 13.15 -0.65 13.15 -0.6 13.15 -0.55 13.15 -0.5 13.15 -0.45 13.15 -0.4 13.1 -0.35 13.1 -0.3 13.1 -0.25 13.05 -0.25 13.05 -0.2 13.05 -0.15 13.0 -0.15 13.0 -0.1 13.0 -0.1 12.95 -0.05 12.95 -0.05 12.9 0.0 12.9 0.0 12.9 0.05 12.85 0.05 12.9 0.2 12.9 0.2 12.9 0.25 12.9 0.3 12.9 0.35 12.9 0.35 12.9 0.4 12.9 0.45 12.95 0.5 12.95 0.55 12.95 0.6 13.0 0.65 13.0 0.65 13.05 0.7 13.05 0.75 13.1 0.75 13.1 0.8 13.15 0.85 13.15 0.85 13.15 0.85 13.15 0.85 13.2 0.9 13.2 0.9 13.2 0.95 13.25 0.95 13.25 1.0 13.25 1.0 13.3 1.05 13.3 1.1 13.35 1.15 13.35 1.2 13.4 1.2 13.4 1.25 13.4 1.3 13.45 1.35 13.45 1.4 13.45 1.5 13.5 1.55 13.5 1.65 13.5 1.7 13.5 1.75 13.5 1.8 13.5 1.9 13.45 1.95 13.45 2.0 13.45 2.05 13.45 2.05 13.4 2.1 13.4 2.15 13.4 2.15 13.4 2.2 13.4 2.3 13.35 2.5 13.2 2.55 13.15 2.6 13.1 2.65 13.1 2.7 13.05 2.75 13.0 2.75 13.0 2.8 12.95 2.85 12.9 2.95 12.8 2.9 12.85 2.95 12.85 2.95 12.8 3.0 12.75 3.05 12.75 3.1 12.7 3.15 12.65 3.2 12.6 4.0 12.15 4.0 12.15 4.05 12.1 4.1 12.1 4.1 12.05 4.15 12.05 4.2 12.05 4.2 12.05 4.25 12.0 4.3 12.0 4.35 12.0 4.35 12.0 4.4 12.0 4.4 12.0 4.45 12.0 4.5 12.0 4.55 12.0 4.6 12.0 4.65 12.0 4.7 12.0 4.75 12.05 4.8 12.05 4.85 12.1 4.9 12.1 4.95 12.15 4.95 12.15 5.05 12.2 5.5 12.55 5.6 12.6 6.1 12.7 6.2 12.7 6.25 12.7 6.3 12.7 6.35 12.7 6.4 12.7 6.45 12.7 6.45 12.65 6.5 12.65 6.55 12.65 6.6 12.65 6.6 12.6 6.65 12.6 6.7 12.6 6.7 12.55 6.75 12.55 6.75 12.55 6.8 12.55 6.85 12.55 6.85 12.5 6.85 12.5 6.9 12.5 6.9 12.45 6.95 12.45 6.9 12.45 6.95 12.4 7.0 12.4 7.0 12.4 7.05 12.35 7.05 12.35 7.1 12.3 7.15 12.3 7.15 12.25 7.2 12.2 7.7 11.9 7.85 11.8 7.9 11.8 7.95 11.75 8.05 11.75 8.1 11.75 8.15 11.75 8.2 11.75 8.25 11.75 8.3 11.7 8.35 11.7 8.35 11.7 8.4 11.7 8.45 11.7 8.45 11.7 8.5 11.7 8.5 11.7 8.55 11.75 8.6 11.75 8.6 11.75 8.65 11.75 8.7 11.75 8.7 11.75 8.75 11.75 8.8 11.75 8.8 11.8 8.85 11.8 8.85 11.8 8.9 11.8 8.9 11.8 8.95 11.8 9.0 11.85 9.0 11.85 9.05 11.85 9.1 11.85 9.15 11.9 9.15 11.9 9.2 11.9 9.25 11.95 9.25 11.95 9.3 11.95 9.35 12.0 9.35 12.0 9.4 12.05 9.4 12.05 9.45 12.05 9.5 12.1 9.55 12.1 9.6 12.15 9.65 12.15 9.7 12.2 9.75 12.2 9.8 12.2 9.8 12.25 9.85 12.25 9.9 12.25 9.95 12.3 9.95 12.3 10.0 12.3 10.05 12.3 10.05 12.35 10.1 12.35 10.15 12.35 10.2 12.35 10.2 12.35 10.25 12.35 10.25 12.35 10.3 12.35 10.35 12.35 10.35 12.35 10.4 12.35 10.45 12.35 10.5 12.35 10.55 12.35 10.6 12.35 10.65 12.35 10.7 12.35 10.75 12.3 10.8 12.3 10.85 12.25 10.9 12.25 10.95 12.2 11.0 12.2 11.0 12.15 11.05 12.15 11.1 12.15 11.1 12.1 11.15 12.1 11.2 12.05 11.25 12.0 11.3 11.95 11.4 11.9 11.4 11.85 11.45 11.8 11.5 11.8 11.5 11.75 11.5 11.75 11.55 11.7 11.6 11.7 11.65 11.65 11.65 11.65 11.7 11.65 11.75 11.65 11.8 11.65 11.85 11.65 11.9 11.65 11.9 11.65 11.95 11.65 12.0 11.65 12.05 11.65 12.05 11.65 12.1 11.65 12.1 11.65 12.15 11.65 12.2 11.65 12.25 11.7 12.4 11.75 12.35 11.7 12.4 11.75 12.45 11.75 12.45 11.75 12.5 11.75 12.5 11.75 12.55 11.75 12.55 11.8 12.6 11.8 12.65 11.8 12.7 11.8 12.75 11.8 12.75 11.8 12.8 11.85 12.85 11.85 12.9 11.85 12.95 11.85 13.0 11.85 13.1 11.85 13.15 11.85 13.15 11.85 13.2 11.85 13.2 11.85 13.25 11.85 13.3 11.85 13.35 11.85 13.4 11.85 13.45 11.85 13.5 11.85 13.55 11.8 13.6 11.8 13.65 11.8 13.7 11.8 13.75 11.75 13.8 11.75 13.8 11.75 13.85 11.75 13.85 11.7 13.9 11.7 13.9 11.7 13.95 11.7 13.95 11.65 14.0 11.65 14.0 11.65 14.05 11.6 14.1 11.6 14.1 11.55 14.15 11.55 14.2 11.5 14.2 11.5 14.25 11.45 14.3 11.4 14.35 11.4 14.35 11.35 14.4 11.35 14.4 11.3 14.45 11.25 14.45 11.25 14.5 11.2 14.5 11.2 14.5 11.2 14.55 11.15 14.6 11.1 14.55 11.15 14.65 11.0 14.65 10.95 14.7 10.9 14.7 10.9 14.75 10.9 14.75 10.85 14.75 10.85 14.8 10.8 14.8 10.8 14.8 10.8 14.85 10.8 14.85 10.75 14.9 10.75 14.9 10.75 14.95 10.7 14.95 10.7 15.0 10.7 15.0 10.65 15.05 10.65 15.05 10.65 15.1 10.65 15.1 10.65 15.1 10.6 15.15 10.6 15.15 10.6 15.2 10.6 15.2 10.6 15.25 10.6 15.25 10.55 15.3 10.55 15.35 10.55 15.4 10.55 15.4 10.55 15.45 10.55 15.5 10.55 15.6 10.55 15.9 10.7 15.95 10.7 16.2 10.8 16.5 10.9 16.7 10.95 16.75 10.95 16.8 10.95 16.85 10.95 16.95 10.95 17.0 10.95 17.05 10.95 17.1 10.95 17.1 10.95 17.15 10.95 17.2 10.95 17.25 10.95 17.25 10.95 17.3 10.95 17.35 10.95 17.35 10.95 17.35 10.95 17.45 10.95 17.55 10.9 17.65 10.9 17.7 10.85 17.8 10.8 17.9 10.8 17.95 10.75 18.0 10.7 18.1 10.65 18.15 10.65 18.2 10.6 18.25 10.55 18.3 10.55 18.35 10.5 18.35 10.5 18.4 10.45 18.6 10.3 18.8 10.1 19.05 9.85 19.1 9.85 19.1 9.85 19.15 9.8 19.15 9.8 19.2 9.8 19.2 9.8 19.25 9.75 19.3 9.75 19.3 9.75 19.35 9.75 19.4 9.75 19.45 9.75 19.5 9.75 19.55 9.75 19.6 9.75 19.65 9.75 19.75 9.75 19.95 9.8 20.0 9.8 20.05 9.8 20.15 9.85 20.2 9.85 20.25 9.85 20.3 9.9 20.35 9.9 20.35 9.9 20.4 9.95 20.5 9.95 20.5 9.95 20.55 9.95 20.55 10.0 20.6 10.0 20.65 10.0 20.7 10.0 20.75 10.05 20.75 10.05 20.8 10.05 20.75 10.05 20.85 10.05 20.9 10.05 20.95 10.05 20.95 10.05 21.0 10.05 21.05 10.05 21.1 10.05 21.15 10.05 21.2 10.05 21.25 10.05 21.3 10.0 21.35 10.0 21.4 10.0 21.45 10.0 21.5 9.95 21.5 9.95 21.55 9.9 21.6 9.9 21.6 9.85 21.65 9.85 21.65 9.85 21.7 9.8 21.7 9.8 21.75 9.75 21.75 9.75 21.8 9.7 21.85 9.7 21.85 9.65 21.9 9.65 21.9 9.6 21.95 9.6 21.95 9.55 22.0 9.55 22.0 9.5 22.0 9.5 22.05 9.45 22.05 9.45 22.05 9.4 22.1 9.4 22.15 9.35 22.5 8.75 22.5 8.7 22.55 8.7 22.55 8.65 22.6 8.6 22.65 8.55 22.7 8.55 22.7 8.5 22.75 8.5 22.8 8.45 22.85 8.45 22.9 8.4 22.95 8.4 23.0 8.4 23.05 8.4 23.1 8.4 23.2 8.45 23.0 8.35 23.45 8.5 23.45 8.55 24.0 8.7 24.2 8.75 24.5 8.85 24.45 8.85 24.95 8.95 25.3 9.0 25.55 9.05 25.55 9.3 25.7 11.15 25.7 11.5 25.7 11.55 25.75 11.75 25.75 11.9 25.75 12.05 25.75 12.2 25.75 12.35 25.7 12.45 25.7 12.55 25.7 12.65 25.7 12.75 25.65 12.8 25.65 12.85 25.6 12.9 25.55 12.95 25.5 13.0 25.45 13.0 25.4 13.05 25.4 13.05 25.35 13.05 25.3 13.05 25.25 13.0 25.2 13.0 25.15 13.0 25.25 13.05 25.0 12.95 24.95 12.95 24.85 12.9 24.75 12.9 24.65 12.9 24.55 12.85 24.4 12.85 24.25 12.85 23.1 12.85 22.85 12.85 22.65 12.85 22.45 12.85 22.3 12.85 22.15 12.85 22.05 12.85 22.0 12.85 21.85 12.85 21.75 12.8 21.7 12.8 21.65 12.8 21.6 12.8 21.55 12.85 21.5 12.85 21.45 12.85 21.35 12.85 21.25 12.85 21.15 12.9 21.05 12.95 21.0 12.95 20.95 13.0 20.85 13.0 20.85 13.05 20.75 13.1 20.65 13.15 20.6 13.15 20.5 13.2 20.45 13.25 20.35 13.3 20.2 13.35 20.05 13.4 19.9 13.45 19.75 13.5 19.65 13.55 19.5 13.6 19.4 13.6 19.25 13.65 19.15 13.7 19.05 13.7 18.95 13.75 18.8 13.75 18.7 13.75 18.6 13.8 18.5 13.8 18.45 13.85 18.35 13.85 18.3 13.85 18.2 13.85 18.05 13.9 17.9 13.9 17.8 13.9 17.7 13.95 17.6 13.95 17.5 13.95 17.35 13.95 17.35 13.95 17.25 14.0 17.2 14.0 17.1 14.0 17.05 14.0 17.0 14.0 16.9 14.05 16.85 14.05 16.75 14.1 16.65 14.15 16.55 14.2 16.45 14.2 16.35 14.25 16.3 14.3 16.25 14.35 16.2 14.35 16.15 14.4 16.05 14.45 16.05 14.5 15.95 14.55 15.9 14.55 15.85 14.6 15.8 14.6 15.7 14.65 15.6 14.7 15.45 14.75 15.3 14.75 15.2 14.75 15.05 14.75 14.95 14.75 14.8 14.75 14.75 14.75 14.6 14.7 14.45 14.65 14.4 14.65 14.25 14.65 14.15 14.65 14.0 14.65 13.9 14.65 13.75 14.65 13.6 14.7 13.5 14.75 13.4 14.75 13.35 14.8 13.3 14.85 13.2 14.9 13.15 14.95 13.15 14.95 13.05 15.05 13.0 15.1 12.95 15.15 12.9 15.2 12.85 15.25 12.8 15.3 12.7 15.35 12.6 15.4 12.5 15.5 12.3 15.6 12.15 15.65 12.0 15.65 11.8 15.7 11.65 15.7 11.5 15.7 11.35 15.65 11.15 15.65 10.85 15.6 10.8 15.6 10.6 15.55 10.4 15.55 10.15 15.55 9.9 15.55 9.65 15.55 9.35 15.6 9.3 15.6 7.3 16.15 5.5 16.6 5.2 16.6 5.0 16.6 4.85 16.55 4.75 16.5 4.6 16.5 4.5 16.45 4.35 16.4 4.3 16.35 4.15 16.25 4.05 16.2 3.95 16.15 3.85 16.1 3.7 16.05 3.6 16.0 3.45 16.0 3.25 15.95 3.1 15.95 2.9 15.95 1.4 16.2 0.1 16.4 -0.1 16.35 -0.25 16.35 -0.4 16.3 -0.5 16.25 -0.6 16.2 -0.7 16.15 -0.75 16.1 -0.85 16.05 -0.9 16.0 -1.0 15.95 -1.05 15.9 -1.15 15.85 -1.2 15.85 -1.3 15.8 -1.35 15.8 -1.45 15.75 -1.55 15.75 -1.7 15.75 -1.8 15.8 -1.9 15.8 -2.05 15.9 -2.1 15.95 -2.2 16.05 -2.3 16.1 -2.4 16.2 -2.5 16.3 -2.6 16.35 -2.7 16.45 -2.75 16.5 -2.9 16.55 -3.0 16.6 -3.15 16.65 -3.3 16.65 -3.4 16.65 -3.5 16.65 -3.55 16.65 -3.65 16.6 -3.7 16.6 -3.75 16.55 -3.8 16.5 -3.9 16.45 -4.05 16.4 -4.05 16.35 -4.15 16.3 -4.25 16.25 -4.35 16.2 -4.5 16.15 -4.65 16.1 -4.8 16.05 -5.05 15.95 -7.05 15.95 -8.9 15.9 -9.25 15.85 -9.4 15.85 -9.55 15.8 -9.7 15.75 -9.8 15.75 -9.95 15.7 -10.05 15.7 -4.4 17.15 -10.3 15.6 -10.4 15.6 -10.5 15.55 -10.65 15.55 -10.75 15.5 -10.9 15.5 -11.05 15.45 -11.2 15.45 -11.35 15.45 -11.45 15.45 -11.55 15.45 -11.65 15.4 -11.75 15.4 -11.85 15.4 -11.95 15.4 -12.05 15.4 -12.15 15.4 -12.2 15.4 -12.3 15.4 -12.4 15.4 -12.45 15.45 -12.55 15.45 -12.6 15.45 -12.65 15.45 -12.7 15.45 -12.9 15.45 -13.05 15.45 -13.2 15.45 -13.35 15.45 -13.5 15.4 -13.65 15.4 -13.8 15.35 -13.9 15.35 -14.05 15.3 -14.15 15.25 -14.25 15.2 -14.35 15.2 -14.45 15.15 -14.55 15.1 -14.6 15.05 -14.7 15.0 -14.8 14.95 -14.85 14.9 -14.95 14.85 -15.0 14.8 -15.05 14.75 -15.15 14.7 -15.25 14.6 -15.25 14.6 -15.3 14.55 -15.4 14.5 -15.45 14.45 -15.5 14.4 -15.6 14.35 -15.7 14.3 -15.8 14.25 -15.9 14.2 -16.0 14.15 -16.05 14.15 -16.1 14.15 -16.2 14.15 -16.25 14.1 -16.3 14.1 -16.35 14.1 -16.4 14.1 -16.5 14.1 -16.55 14.05 -16.65 14.05 -16.75 14.05 -16.85 14.0 -16.95 14.0 -17.05 13.95 -17.2 13.95 -17.3 13.9 -17.45 13.9 -17.5 13.85 -17.6 13.8 -17.65 13.8 -17.75 13.75 -17.75 13.75 -17.85 13.7 -17.9 13.7 -17.95 13.7 -18.0 13.65 -18.05 13.65 -18.15 13.6 -18.2 13.6 -18.3 13.6 -18.35 13.55 -18.4 13.55 -19.85 13.45 -21.1 13.4 -21.35 13.3 -21.5 13.25 -21.65 13.15 -21.75 13.1 -21.85 13.0 -21.95 12.95 -22.05 12.85 -22.1 12.8 -22.2 12.7 -22.35 12.55 -22.4 12.5 -22.5 12.4 -22.6 12.3 -22.7 12.2 -22.85 12.1 -23.0 12.0 -23.15 11.95 -23.25 11.9 -24.7 11.45 -26.0 11.0 -26.25 10.85 -26.25 10.85 -26.35 10.75 -26.4 10.7 -26.45 10.65 -26.55 10.6 -26.6 10.55 -26.65 10.45 -26.7 10.4 -26.8 10.3 -26.85 10.2 -26.9 10.1 -26.95 10.0 -27.0 9.9 -27.05 9.8 -27.05 9.65 -27.05 9.55 L-27.05 9.55" fill="#ff00ff" fill-rule="evenodd" stroke="none"/>
  </g>
</svg>
