<?xml version="1.0" encoding="UTF-8" standalone="no"?>
<svg xmlns:xlink="http://www.w3.org/1999/xlink" height="9.1px" width="47.05px" xmlns="http://www.w3.org/2000/svg">
  <g transform="matrix(1.0, 0.0, 0.0, 1.0, 24.25, 4.05)">
    <path d="M20.6 -4.1 Q20.8 -3.95 21.0 -3.8 21.2 -3.65 21.4 -3.45 21.55 -3.25 21.7 -3.05 21.8 -2.85 21.9 -2.6 22.0 -2.4 22.05 -2.15 22.15 -1.9 22.15 -1.65 22.2 -1.4 22.15 -1.1 22.15 -0.85 22.1 -0.6 22.05 -0.35 21.95 -0.1 21.85 0.15 21.75 0.4 21.6 0.6 21.45 0.8 21.3 1.0 21.1 1.2 20.95 1.4 20.7 1.55 20.5 1.7 20.3 1.8 20.05 1.9 19.8 2.0 19.55 2.05 19.3 2.1 17.95 2.35 16.65 2.55 15.2 2.75 13.8 2.9 12.35 3.1 10.85 3.2 9.3 3.35 7.7 3.45 6.1 3.55 4.45 3.6 2.75 3.65 1.05 3.65 -0.7 3.65 -2.45 3.6 -4.25 3.55 -6.1 3.4 -7.15 3.35 -8.2 3.25 -9.2 3.15 -10.2 3.05 -11.2 2.9 -12.2 2.8 -13.15 2.7 -14.1 2.55 -15.05 2.4 -16.0 2.25 -16.9 2.1 -17.8 1.95 -18.7 1.8 -19.6 1.65 -20.45 1.45 -21.3 1.3 -21.3 1.3 -21.4 1.2 -21.45 1.15 -21.55 1.1 -21.6 1.0 -21.7 0.9 -21.75 0.8 -21.85 0.7 -21.95 0.6 -22.0 0.5 -22.1 0.35 -22.15 0.2 -22.25 0.05 -22.3 -0.1 -22.35 -0.25 -22.4 -0.4 -22.45 -0.6 -22.4 -0.85 -22.4 -1.1 -22.35 -1.3 -22.3 -1.55 -22.2 -1.75 -22.1 -1.95 -21.95 -2.15 -21.8 -2.4 -21.65 -2.55 -21.45 -2.75 -21.25 -2.95 -21.05 -3.1 -20.8 -3.25 -20.55 -3.4 -20.3 -3.5 -19.55 -3.35 -19.0 -3.25 -18.25 -3.1 -17.6 -3.0 -16.8 -2.85 -16.0 -2.75 -15.15 -2.6 -14.3 -2.45 -13.35 -2.3 -12.45 -2.15 -11.45 -2.05 -10.5 -1.9 -9.45 -1.75 -8.4 -1.65 -7.3 -1.5 -6.2 -1.4 0.3 -0.7 3.5 -0.8 4.3 -0.8 5.1 -0.85 5.95 -0.85 6.85 -0.95 7.8 -1.0 8.75 -1.15 9.8 -1.25 10.85 -1.45 11.95 -1.65 13.1 -1.85 14.25 -2.15 15.45 -2.45 16.7 -2.8 17.95 -3.2 19.3 -3.6 20.6 -4.1 L20.6 -4.1" fill="#000000" fill-rule="evenodd" stroke="none"/>
  </g>
</svg>
