<?xml version="1.0" encoding="UTF-8" standalone="no"?>
<svg xmlns:xlink="http://www.w3.org/1999/xlink" height="197.9px" width="257.7px" xmlns="http://www.w3.org/2000/svg">
  <g transform="matrix(1.0, 0.0, 0.0, 1.0, 128.85, 98.95)">
    <path d="M3.25 115.2 Q1.0 116.55 -0.8 117.5 -1.65 117.9 -3.0 118.55 -4.25 119.15 -6.0 119.8 -6.5 120.0 -7.05 120.3 -7.5 120.6 -7.95 120.95 -8.35 121.3 -8.8 121.7 -9.1 122.0 -9.6 122.55 -10.25 123.2 -10.4 123.35 -10.85 123.8 -11.2 124.15 -11.7 124.55 -12.1 124.85 -12.6 125.2 -13.1 125.45 -13.4 125.6 -13.75 125.8 -14.05 126.0 -14.4 126.25 -14.7 126.4 -15.0 126.65 -15.3 126.85 -15.6 127.1 -15.85 127.3 -16.2 127.6 -16.65 127.95 -16.85 128.05 -17.15 128.35 -17.45 128.55 -17.75 128.75 -18.05 128.95 -18.15 129.05 -18.25 129.1 -18.4 129.15 -18.5 129.2 -18.6 129.3 -18.75 129.3 -18.85 129.35 -18.95 129.35 -19.1 129.4 -19.2 129.4 -19.35 129.35 -19.45 129.35 -19.55 129.3 -19.65 129.2 -19.8 129.15 -19.9 129.0 -20.0 128.9 -20.05 128.8 -20.1 128.7 -20.1 128.6 -20.1 128.5 -20.1 128.4 -20.1 128.35 -20.05 128.25 -20.0 128.15 -19.95 128.05 -19.9 127.95 -19.85 127.85 -19.75 127.7 -19.75 127.65 -19.65 127.55 -19.65 127.45 -19.2 126.45 -19.0 125.5 -18.75 124.55 -18.7 123.6 -18.65 122.7 -18.8 121.8 -18.9 120.9 -19.2 120.05 -19.5 119.2 -19.95 118.4 -20.4 117.6 -21.0 116.85 -21.6 116.1 -22.35 115.4 -23.1 114.75 -24.0 114.1 -25.05 113.3 -26.35 112.55 -27.45 111.9 -28.8 111.2 -29.75 110.7 -31.35 109.95 -33.25 109.0 -33.85 108.7 -35.3 107.95 -36.35 107.35 -37.7 106.6 -38.8 105.9 -40.0 105.05 -41.05 104.2 -42.2 103.2 -43.2 102.15 -43.15 102.55 -43.05 102.9 -42.95 103.35 -42.85 103.8 -42.7 104.3 -42.55 104.8 -42.35 105.4 -42.15 105.95 -41.9 106.55 -41.6 107.15 -41.3 107.8 -40.95 108.45 -40.6 109.1 -40.15 109.75 -39.7 110.4 -39.15 111.05 -38.8 111.5 -38.35 111.95 -38.0 112.35 -37.6 112.75 -37.2 113.1 -36.8 113.45 -36.45 113.75 -36.05 114.05 -35.65 114.3 -35.3 114.55 -34.95 114.8 -34.6 115.05 -34.25 115.25 -33.95 115.4 -33.65 115.55 -33.35 115.75 -29.95 116.65 -28.85 116.75 -28.85 116.75 -28.75 116.75 -28.7 116.75 -28.65 116.8 -28.55 116.8 -28.5 116.8 -28.4 116.8 -28.35 116.85 -28.25 116.85 -28.2 116.9 -28.1 116.95 -28.05 117.0 -27.95 117.0 -27.9 117.1 -27.85 117.15 -27.8 117.2 -27.8 117.25 -27.75 117.25 -27.75 117.3 -27.75 117.3 -27.75 117.35 -27.7 117.4 -27.7 117.4 -27.7 117.45 -27.7 117.5 -27.7 117.5 -27.7 117.55 -27.7 117.6 -27.7 117.65 -27.7 117.65 -27.7 117.7 -27.7 117.75 -27.7 117.9 -27.75 118.0 -27.75 118.1 -27.85 118.2 -27.9 118.3 -27.95 118.35 -28.05 118.45 -28.1 118.5 -28.2 118.55 -28.3 118.55 -28.4 118.6 -28.5 118.6 -28.6 118.65 -28.7 118.65 -28.85 118.65 -28.95 118.65 -29.95 118.65 -31.55 118.65 -33.65 118.65 -34.15 118.65 -35.6 118.65 -36.75 118.6 -38.15 118.6 -39.3 118.5 -40.7 118.45 -41.9 118.3 -43.25 118.15 -44.45 117.95 -45.8 117.7 -47.0 117.4 -48.3 117.05 -49.55 116.6 -50.25 116.35 -50.9 116.05 -51.6 115.75 -52.2 115.4 -52.85 115.05 -53.45 114.7 -54.05 114.3 -54.6 113.85 -55.15 113.4 -55.65 112.95 -56.2 112.45 -56.65 111.9 -57.15 111.35 -57.6 110.8 -58.05 110.2 -58.45 109.55 -58.55 109.4 -58.65 109.25 -58.75 109.1 -58.9 108.95 -59.0 108.8 -59.15 108.65 -59.25 108.5 -59.4 108.35 -59.5 108.25 -59.65 108.1 -61.5 106.15 -59.9 107.8 -60.05 107.65 -60.15 107.55 -60.3 107.4 -60.4 107.25 -60.95 107.55 -60.95 107.6 -61.65 109.3 -62.6 110.75 -63.5 112.15 -64.6 113.3 -65.7 114.4 -66.95 115.2 -68.2 116.05 -69.6 116.6 -70.95 117.2 -72.5 117.55 -73.95 117.85 -75.6 117.95 -77.15 118.1 -78.9 118.0 -80.5 117.9 -82.3 117.65 -82.45 117.65 -82.6 117.6 -82.75 117.6 -82.85 117.55 -83.0 117.55 -83.15 117.5 -83.3 117.5 -83.45 117.45 -83.6 117.4 -83.7 117.35 -83.85 117.35 -84.0 117.3 -84.15 117.25 -84.25 117.15 -84.4 117.1 -84.5 117.05 -84.65 116.95 -84.9 116.85 -85.25 116.65 -85.35 116.6 -85.65 116.45 -85.8 116.35 -86.05 116.2 -86.25 116.05 -86.45 115.9 -86.55 115.75 -86.75 115.55 -86.85 115.4 -86.95 115.2 -86.95 115.0 -87.0 114.75 -86.95 114.55 -86.9 114.3 -86.8 114.1 -86.65 113.95 -86.5 113.9 -86.35 113.8 -86.2 113.8 -86.0 113.8 -85.8 113.85 -85.6 113.85 -85.35 113.9 -85.3 113.95 -84.95 114.05 -84.7 114.1 -84.55 114.15 -84.3 114.2 -84.15 114.2 -83.4 114.25 -82.65 114.1 -81.9 113.95 -81.15 113.7 -80.4 113.4 -79.7 112.95 -78.95 112.55 -78.25 112.0 -77.6 111.4 -76.95 110.7 -76.3 110.0 -75.7 109.2 -75.15 108.4 -74.65 107.45 -74.1 106.55 -73.7 105.5 -74.35 105.75 -75.0 105.95 -75.65 106.1 -76.3 106.25 -76.95 106.35 -77.6 106.4 -78.2 106.5 -78.85 106.5 -79.45 106.5 -80.1 106.5 -80.7 106.45 -81.3 106.4 -81.9 106.35 -82.55 106.25 -83.15 106.15 -83.8 106.0 -84.1 105.95 -84.45 105.85 -84.75 105.8 -85.05 105.7 -85.35 105.6 -85.7 105.5 -86.0 105.4 -86.3 105.3 -86.6 105.2 -86.9 105.05 -87.2 104.95 -87.5 104.8 -87.75 104.65 -88.05 104.5 -88.35 104.4 -88.65 104.25 -88.8 104.15 -88.85 104.1 -89.0 104.05 -89.1 104.0 -89.2 103.9 -89.3 103.8 -89.4 103.75 -89.45 103.65 -89.55 103.55 -89.6 103.45 -89.65 103.35 -89.65 103.25 -89.65 103.1 -89.65 102.95 -89.6 102.85 -89.55 102.7 -89.5 102.55 -89.4 102.45 -89.35 102.35 -89.25 102.25 -89.15 102.2 -89.05 102.15 -88.95 102.1 -88.85 102.05 -88.75 102.05 -88.6 102.05 -88.5 102.05 -88.35 102.05 -88.25 102.05 -88.1 102.1 -88.15 102.05 -87.85 102.1 -86.65 102.25 -85.5 102.2 -84.4 102.2 -83.4 102.0 -82.4 101.8 -81.5 101.4 -80.65 101.05 -79.85 100.5 -79.05 99.95 -78.4 99.2 -77.75 98.5 -77.15 97.6 -76.6 96.7 -76.2 95.65 -75.75 94.6 -75.4 93.35 -75.25 92.7 -75.15 92.15 -75.05 91.6 -75.0 91.1 -75.0 90.65 -75.1 90.2 -75.15 89.8 -75.3 89.4 -75.45 89.05 -75.75 88.7 -76.0 88.35 -76.35 88.05 -76.7 87.75 -77.2 87.4 -77.65 87.1 -78.25 86.8 -78.45 86.7 -79.3 86.2 -79.9 85.85 -80.3 85.7 -80.75 85.5 -81.15 85.25 -81.5 85.05 -81.8 84.75 -82.15 84.5 -82.35 84.25 -82.6 83.95 -82.7 83.65 -82.85 83.3 -82.9 82.95 -82.95 82.6 -82.9 82.2 -82.85 81.8 -82.7 81.35 -82.5 80.9 -82.25 80.45 -82.05 80.1 -81.9 79.8 -81.8 79.45 -81.7 79.1 -81.6 78.75 -81.55 78.45 -81.5 78.1 -81.5 77.75 -81.5 77.4 -81.6 77.1 -81.65 76.75 -81.8 76.4 -81.9 76.05 -82.1 75.75 -82.3 75.4 -82.6 75.05 -82.95 74.6 -83.15 74.15 -83.35 73.75 -83.4 73.3 -83.5 72.85 -83.45 72.4 -83.45 72.0 -83.3 71.55 -83.2 71.2 -83.0 70.75 -82.85 70.35 -82.6 69.95 -82.4 69.6 -82.15 69.15 -82.2 69.25 -81.65 68.4 -81.4 68.05 -81.25 67.7 -81.1 67.4 -81.0 67.1 -80.9 66.8 -80.9 66.55 -80.9 66.25 -80.95 66.05 -81.0 65.8 -81.15 65.6 -81.3 65.4 -81.5 65.25 -81.75 65.1 -82.05 64.95 -82.4 64.8 -82.8 64.7 -83.25 64.6 -83.6 64.45 -84.0 64.3 -84.3 64.1 -84.55 63.9 -84.8 63.7 -85.0 63.45 -85.15 63.2 -85.3 62.95 -85.4 62.65 -85.45 62.35 -85.45 62.0 -85.45 61.65 -85.35 61.25 -85.25 60.9 -85.1 60.45 -85.0 60.2 -84.95 60.0 -84.95 59.75 -84.95 59.55 -84.95 59.35 -85.0 59.15 -85.0 58.95 -85.1 58.75 -85.2 58.55 -85.3 58.35 -85.4 58.2 -85.5 58.0 -85.65 57.85 -85.8 57.65 -85.9 57.5 -86.05 57.3 -86.4 56.85 -86.7 56.45 -87.0 56.0 -87.2 55.55 -87.45 55.1 -87.55 54.65 -87.7 54.2 -87.75 53.75 -87.85 53.25 -87.8 52.8 -87.8 52.3 -87.7 51.8 -87.6 51.3 -87.45 50.8 -87.25 50.3 -87.0 49.8 -86.8 49.35 -86.55 48.8 -86.35 48.35 -86.15 47.75 -86.05 47.5 -85.75 46.75 -85.5 46.05 -85.35 45.7 -85.1 45.1 -84.9 44.65 -84.7 44.15 -84.45 43.65 -84.2 43.15 -83.9 42.7 -83.6 42.2 -83.25 41.75 -83.1 41.5 -82.95 41.3 -82.85 41.1 -82.8 40.9 -82.75 40.65 -82.75 40.45 -82.75 40.25 -82.8 40.05 -82.85 39.8 -82.95 39.6 -83.05 39.4 -83.2 39.15 -83.35 38.95 -83.55 38.7 -83.75 38.45 -84.0 38.2 -84.85 37.35 -85.45 36.55 -86.05 35.75 -86.45 35.0 -86.9 34.25 -87.1 33.5 -87.3 32.8 -87.3 32.1 -87.3 31.35 -87.1 30.65 -86.85 29.95 -86.4 29.25 -86.0 28.5 -85.3 27.75 -84.65 27.05 -83.75 26.25 -83.1 25.7 -82.5 25.15 -81.9 24.55 -81.35 24.0 -80.8 23.4 -80.3 22.75 -79.8 22.15 -79.4 21.5 -78.95 20.8 -78.55 20.1 -78.2 19.35 -77.9 18.6 -77.6 17.8 -77.4 16.95 -77.2 16.1 -77.1 15.2 -76.8 12.7 -76.6 10.1 -76.4 7.65 -76.25 5.05 -76.1 2.55 -76.05 -0.05 -75.95 -2.5 -75.95 -5.1 -75.9 -7.6 -75.95 -10.2 -75.95 -12.65 -76.0 -15.25 -76.05 -17.7 -76.15 -20.35 -76.25 -22.75 -76.35 -25.45 -76.4 -27.0 -76.4 -28.55 -76.35 -30.1 -76.25 -31.65 -76.1 -33.15 -75.9 -34.7 -75.7 -36.2 -75.4 -37.7 -75.15 -39.2 -74.8 -40.75 -74.45 -42.2 -74.05 -43.7 -73.65 -45.15 -73.2 -46.65 -72.75 -48.1 -72.25 -49.6 -72.0 -50.4 -71.65 -51.2 -71.4 -52.0 -71.05 -52.8 -70.7 -53.55 -70.35 -54.4 -70.0 -55.15 -69.6 -55.95 -69.25 -56.65 -68.85 -57.5 -68.55 -58.1 -68.05 -59.05 -67.4 -60.4 -67.3 -60.6 -66.85 -61.5 -66.55 -62.15 -65.85 -63.6 -64.9 -64.95 -64.05 -66.25 -63.0 -67.45 -62.0 -68.6 -60.85 -69.7 -59.75 -70.75 -58.5 -71.75 -57.35 -72.7 -56.0 -73.65 -54.9 -74.45 -53.45 -75.45 -52.8 -75.9 -50.85 -77.2 -49.2 -78.3 -48.25 -78.95 -47.1 -79.75 -45.9 -80.5 -44.7 -81.25 -43.45 -82.0 -42.25 -82.7 -40.95 -83.4 -39.7 -84.05 -38.45 -84.7 -37.15 -85.3 -35.85 -85.9 -34.6 -86.5 -33.25 -87.05 -31.95 -87.6 -30.6 -88.15 -29.3 -88.65 -27.95 -89.15 -25.35 -90.1 -23.0 -90.9 -20.4 -91.75 -18.05 -92.5 -15.45 -93.35 -13.0 -94.0 -10.45 -94.75 -8.0 -95.4 -5.4 -96.05 -2.9 -96.55 -0.3 -97.1 2.25 -97.55 4.85 -98.0 7.4 -98.3 10.05 -98.6 12.65 -98.8 15.05 -98.95 17.45 -98.9 19.8 -98.8 22.1 -98.45 24.35 -98.15 26.6 -97.6 28.75 -97.05 30.95 -96.3 33.05 -95.55 35.15 -94.6 37.2 -93.65 39.25 -92.5 41.25 -91.35 43.25 -90.05 45.2 -88.75 47.15 -87.25 48.05 -86.55 48.95 -85.8 49.8 -85.05 50.7 -84.2 51.45 -83.45 52.3 -82.6 53.05 -81.85 53.9 -80.9 54.55 -80.2 55.45 -79.2 55.4 -79.3 56.95 -77.5 57.9 -76.5 58.5 -75.8 59.35 -74.85 60.1 -74.1 61.2 -72.95 62.25 -71.7 63.25 -70.5 64.25 -69.2 65.2 -67.95 66.15 -66.6 67.0 -65.35 67.9 -63.95 68.7 -62.65 69.55 -61.2 70.3 -59.9 71.1 -58.45 71.85 -57.15 72.6 -55.65 73.3 -54.35 74.1 -52.8 74.55 -51.9 74.95 -50.9 75.3 -49.95 75.6 -48.9 75.9 -47.95 76.15 -46.9 76.35 -45.9 76.55 -44.85 76.7 -43.85 76.85 -42.75 77.0 -41.85 77.15 -40.65 77.05 -41.25 77.4 -38.55 77.55 -37.3 77.65 -36.45 77.9 -34.45 78.1 -32.4 78.25 -30.4 78.35 -28.3 78.4 -26.3 78.4 -24.25 78.4 -22.25 78.3 -20.2 78.25 -18.2 78.1 -16.15 77.95 -14.2 77.8 -12.1 77.6 -10.15 77.35 -8.05 77.1 -6.1 76.85 -4.0 76.6 -2.25 76.45 -0.5 76.3 1.2 76.2 2.95 76.1 4.7 76.05 6.45 76.05 8.15 76.1 9.9 76.1 11.65 76.2 13.4 76.3 15.1 76.4 16.85 76.55 18.6 76.75 20.35 76.95 22.05 77.2 23.8 77.3 24.45 77.4 25.05 77.55 25.65 77.7 26.25 77.9 26.8 78.1 27.4 78.35 27.95 78.6 28.5 78.9 29.0 79.2 29.5 79.55 30.05 79.95 30.5 80.35 31.0 80.8 31.4 81.25 31.85 81.75 32.25 82.1 32.55 82.45 32.85 82.75 33.15 83.05 33.5 83.3 33.85 83.55 34.2 83.75 34.55 83.9 34.9 84.05 35.3 84.15 35.7 84.2 36.1 84.2 36.45 84.2 36.9 84.1 37.3 84.0 37.7 83.8 38.1 83.55 38.65 83.4 39.2 83.3 39.7 83.3 40.2 83.25 40.7 83.35 41.15 83.4 41.6 83.55 42.05 83.7 42.5 83.9 42.9 84.1 43.3 84.35 43.75 84.55 44.1 84.85 44.5 84.9 44.6 85.35 45.3 85.85 46.0 86.05 46.4 86.45 46.95 86.75 47.45 87.05 48.0 87.3 48.5 87.55 49.1 87.7 49.6 87.9 50.2 87.95 50.75 88.0 51.3 87.95 51.9 87.85 52.5 87.65 53.15 87.45 53.8 87.05 54.45 86.95 54.65 86.9 54.85 86.85 55.05 86.8 55.25 86.8 55.45 86.8 55.65 86.8 55.9 86.85 56.1 86.9 56.3 87.0 56.55 87.05 56.75 87.1 56.95 87.2 57.15 87.3 57.4 87.35 57.55 87.45 57.8 87.6 58.2 87.7 58.35 87.8 58.65 87.9 58.9 88.0 59.2 88.05 59.45 88.15 59.75 88.2 60.0 88.25 60.3 88.25 60.55 88.25 60.85 88.2 61.1 88.15 61.4 88.05 61.7 87.9 61.95 87.75 62.25 87.65 62.4 87.6 62.55 87.55 62.7 87.55 62.85 87.55 63.0 87.6 63.1 87.65 63.25 87.7 63.4 87.75 63.5 87.85 63.65 87.85 63.7 87.95 63.9 88.05 64.05 88.1 64.1 88.2 64.25 88.25 64.35 88.45 64.9 89.15 66.35 89.7 67.6 89.95 68.35 90.5 69.85 90.85 71.0 91.2 72.2 91.4 73.2 91.55 74.2 91.55 75.1 91.5 75.95 91.25 76.75 91.05 77.55 90.55 78.3 90.1 79.05 89.4 79.8 88.7 80.5 87.7 81.35 86.8 82.1 85.5 83.05 85.0 83.4 84.6 83.8 84.2 84.2 83.9 84.6 83.6 85.05 83.4 85.5 83.2 85.95 83.05 86.4 82.95 86.9 82.85 87.4 82.8 87.9 82.8 88.4 82.75 88.9 82.8 89.45 82.85 89.95 82.95 90.55 83.1 91.6 83.45 92.65 83.75 93.65 84.25 94.6 84.75 95.55 85.4 96.4 86.05 97.25 86.85 98.0 87.6 98.75 88.5 99.4 89.35 100.0 90.35 100.5 91.3 101.0 92.35 101.3 93.35 101.6 94.45 101.75 94.55 101.75 94.75 101.75 94.8 101.8 95.0 101.8 95.2 101.8 95.3 101.8 95.5 101.8 95.6 101.85 95.75 101.85 95.85 101.9 96.0 101.95 96.1 102.05 96.2 102.1 96.3 102.25 96.4 102.35 96.45 102.55 96.5 102.75 96.5 102.9 96.5 103.1 96.45 103.25 96.4 103.4 96.3 103.5 96.25 103.65 96.15 103.75 96.0 103.85 95.9 103.95 95.8 104.05 95.6 104.15 95.2 104.45 95.35 104.35 95.2 104.45 95.1 104.5 94.2 105.25 93.3 105.75 92.4 106.3 91.55 106.65 90.7 107.0 89.85 107.15 89.0 107.3 88.1 107.25 87.25 107.2 86.4 106.95 85.55 106.7 84.65 106.3 83.75 105.85 82.85 105.25 81.95 104.6 81.0 103.8 80.85 104.6 80.85 105.45 80.8 106.25 80.9 107.0 81.0 107.8 81.25 108.5 81.45 109.25 81.8 109.9 82.15 110.6 82.6 111.2 83.05 111.8 83.6 112.3 84.15 112.85 84.8 113.25 85.45 113.7 86.2 114.05 86.3 114.1 86.45 114.15 76.4 110.5 86.7 114.25 86.85 114.3 86.95 114.35 87.05 114.4 87.15 114.45 87.3 114.5 87.35 114.6 87.45 114.65 87.5 114.75 87.6 114.85 87.6 114.95 87.65 115.1 87.65 115.25 87.65 115.45 87.6 115.6 87.55 115.75 87.45 115.85 87.4 115.95 87.3 116.05 87.2 116.1 87.05 116.15 86.9 116.2 86.8 116.25 86.65 116.25 86.5 116.3 86.35 116.3 86.2 116.3 86.3 116.3 85.9 116.35 84.65 116.45 83.5 116.45 82.3 116.45 81.2 116.35 80.05 116.25 79.0 116.05 77.85 115.8 76.85 115.45 75.75 115.1 74.8 114.6 73.8 114.05 72.9 113.3 72.0 112.55 71.15 111.65 70.35 110.65 69.6 109.5 69.15 110.4 68.65 111.25 68.1 112.05 67.55 112.85 67.0 113.6 66.4 114.3 65.8 115.05 65.15 115.7 64.5 116.35 63.8 116.95 63.1 117.55 62.3 118.15 61.6 118.7 60.75 119.2 60.0 119.7 59.15 120.15 58.6 120.45 58.3 120.6 57.85 120.85 57.45 121.0 57.0 121.25 56.6 121.45 56.2 121.65 55.75 121.8 55.35 122.0 54.9 122.15 54.45 122.35 54.0 122.45 53.55 122.6 53.1 122.75 52.65 122.85 52.2 122.95 52.1 122.95 52.0 122.95 51.9 123.0 51.85 123.0 51.75 123.0 51.65 123.0 51.55 123.0 51.5 123.0 51.4 122.95 51.35 122.95 51.25 122.9 51.15 122.85 51.1 122.8 51.05 122.75 50.95 122.7 50.9 122.6 50.85 122.5 50.8 122.4 50.75 122.3 50.75 122.2 50.75 122.1 50.75 122.0 50.75 121.95 50.8 121.85 50.8 121.75 50.85 121.7 50.9 121.6 50.95 121.55 51.0 121.5 51.1 121.45 51.15 121.4 51.25 121.35 51.8 121.1 52.25 120.8 52.7 120.5 53.1 120.15 53.45 119.8 53.8 119.4 54.1 119.05 54.35 118.6 54.6 118.15 54.8 117.7 55.0 117.25 55.15 116.75 55.25 116.25 55.35 115.7 55.45 115.2 55.55 114.6 55.6 113.9 55.6 113.25 55.65 112.6 55.6 111.9 55.55 111.25 55.4 110.6 55.3 109.95 55.15 109.3 55.0 108.65 54.8 108.05 54.6 107.4 54.4 106.75 54.15 106.15 53.85 105.5 53.6 104.9 53.3 104.3 53.0 103.7 52.65 103.15 52.3 102.6 51.85 102.1 51.45 101.6 51.0 101.1 50.55 100.7 50.05 100.25 49.65 99.85 49.1 99.4 48.75 99.1 48.1 98.55 47.4 98.0 47.1 97.75 46.55 97.3 46.1 96.9 45.9 96.7 45.75 96.6 45.55 96.5 45.4 96.5 45.3 96.45 45.15 96.5 45.05 96.55 44.95 96.6 44.9 96.7 44.8 96.85 44.75 96.95 44.7 97.15 44.65 97.25 44.6 97.45 44.55 97.6 44.5 97.8 44.45 98.2 44.4 98.6 44.35 99.0 44.35 99.4 44.35 99.8 44.35 100.2 44.35 100.6 44.4 101.0 44.45 101.4 44.5 101.8 44.55 102.2 44.65 102.6 44.7 102.95 44.8 103.35 44.9 103.75 45.0 104.15 45.25 104.95 45.5 105.7 45.75 106.5 46.05 107.25 46.35 108.0 46.7 108.7 47.05 109.4 47.45 110.1 47.9 110.8 48.35 111.4 48.85 112.1 49.4 112.7 49.95 113.3 50.55 113.85 51.15 114.45 51.85 114.95 50.9 115.15 50.0 115.15 49.05 115.15 48.1 115.0 47.1 114.8 46.05 114.4 45.0 114.0 43.85 113.35 42.7 112.7 41.4 111.85 40.1 110.95 38.6 109.8 37.15 108.7 35.45 107.25 33.8 105.85 31.9 104.1 31.75 104.45 31.6 104.9 31.45 105.25 31.3 105.7 31.25 106.0 31.1 106.5 30.95 107.1 30.85 107.35 30.75 107.8 30.6 108.1 30.45 108.55 30.3 108.9 30.15 109.3 29.95 109.6 29.75 110.0 29.5 110.3 28.35 111.75 27.15 113.0 25.95 114.25 24.65 115.35 23.4 116.45 22.0 117.4 20.6 118.35 19.15 119.15 17.7 119.9 16.15 120.5 14.6 121.1 12.95 121.55 11.3 122.0 9.6 122.25 7.85 122.5 6.05 122.6 5.9 122.6 5.8 122.6 5.65 122.6 5.55 122.6 5.4 122.6 5.25 122.6 5.15 122.55 5.05 122.5 4.9 122.5 4.8 122.45 4.7 122.35 4.6 122.3 4.55 122.2 4.45 122.1 4.4 121.95 4.35 121.8 4.35 121.75 4.35 121.75 4.35 121.7 4.35 121.65 4.35 121.6 4.35 121.6 4.35 121.55 4.35 121.5 4.35 121.5 4.35 121.45 4.35 121.4 4.35 121.4 4.35 121.35 4.35 121.3 4.4 121.3 4.4 121.25 4.45 121.15 4.5 121.05 4.55 121.0 4.65 120.9 4.7 120.8 4.8 120.75 4.9 120.7 5.0 120.6 5.1 120.55 5.2 120.5 5.3 120.45 5.35 120.4 5.4 120.4 5.45 120.35 5.5 120.35 5.5 120.35 5.75 120.25 6.1 120.0 6.45 119.75 6.85 119.4 7.25 119.05 7.7 118.55 8.15 118.1 8.6 117.6 9.05 117.05 9.5 116.5 9.95 115.9 10.35 115.25 10.8 114.65 11.15 114.0 11.55 113.4 11.85 112.75 12.0 112.5 12.1 112.2 12.25 111.9 12.4 111.6 12.55 111.25 12.65 110.9 12.8 110.55 12.95 110.15 13.05 109.75 13.15 109.3 13.3 108.85 13.4 108.4 13.5 107.9 13.6 107.45 13.65 106.9 13.75 106.4 13.6 106.6 13.45 106.8 13.3 107.05 13.15 107.25 12.95 107.5 12.8 107.75 12.6 108.0 12.4 108.25 12.15 108.55 11.95 108.8 11.7 109.1 11.45 109.35 11.2 109.65 10.9 109.95 10.65 110.25 10.35 110.5 8.9 111.9 3.25 115.2 L3.25 115.2 M80.5 71.05 Q80.55 71.05 80.55 71.05 80.6 71.05 80.65 71.05 80.7 71.05 80.7 71.05 80.75 71.05 80.8 71.05 80.85 71.05 80.9 71.05 80.95 71.05 81.0 71.05 81.05 71.0 81.1 71.0 81.15 71.0 81.2 71.0 81.35 70.95 81.5 70.9 81.65 70.85 81.8 70.8 81.95 70.7 82.1 70.65 82.2 70.55 82.3 70.5 82.45 70.4 82.55 70.3 82.65 70.25 82.7 70.15 82.8 70.1 82.9 70.0 82.95 69.95 83.05 69.85 83.15 69.75 83.2 69.7 83.3 69.6 83.35 69.55 83.45 69.45 83.5 69.35 83.55 69.3 83.6 69.2 83.65 69.15 83.7 69.05 83.75 69.0 83.75 68.9 83.8 68.8 83.8 68.75 83.8 68.65 83.8 68.6 83.8 68.55 83.75 68.5 83.75 68.45 83.75 68.4 83.7 68.35 83.7 68.3 83.65 68.3 83.65 68.25 83.6 68.2 83.55 68.15 83.55 68.15 83.5 68.1 83.45 68.05 83.45 68.05 83.4 68.05 83.35 68.0 83.25 68.0 83.2 68.0 83.1 68.0 83.0 68.05 82.85 68.1 82.75 68.2 82.6 68.3 82.45 68.45 82.25 68.65 82.05 68.85 81.85 69.1 81.65 69.45 81.4 69.75 81.1 70.15 80.85 70.6 80.55 71.1 80.4 71.2 80.35 71.25 80.35 71.25 80.35 71.3 80.35 71.35 80.35 71.35 L80.5 71.05 80.5 71.05 M-67.55 75.15 L-67.35 75.45 Q-67.35 75.4 -67.35 75.35 -67.35 75.3 -67.35 75.3 -67.4 75.25 -67.6 75.2 -67.9 74.7 -68.25 74.25 -68.6 73.85 -69.05 73.45 -69.45 73.1 -69.9 72.75 -70.3 72.45 -70.8 72.1 -71.2 71.9 -71.75 71.55 -72.8 70.9 -72.7 70.95 -73.25 70.6 -73.65 70.35 -74.15 70.05 -74.55 69.7 -74.65 69.65 -74.75 69.5 -75.15 69.15 -75.0 69.3 -75.15 69.15 -75.25 69.1 -75.4 68.95 -75.5 68.9 -75.65 68.85 -75.8 68.8 -75.95 68.8 -76.1 68.8 -76.2 68.85 -76.35 68.95 -76.5 69.1 -76.65 69.3 -76.75 69.5 -76.85 69.65 -76.9 69.85 -76.9 70.0 -76.9 70.2 -76.85 70.35 -76.8 70.5 -76.75 70.65 -76.65 70.8 -76.55 70.95 -76.45 71.05 -76.3 71.2 -76.15 71.3 -76.0 71.45 -75.85 71.55 -75.65 71.7 -75.2 72.0 -74.7 72.3 -74.25 72.6 -73.75 72.85 -73.3 73.15 -72.8 73.4 -72.3 73.6 -71.8 73.85 -71.3 74.05 -70.75 74.25 -70.25 74.45 -69.75 74.6 -69.2 74.75 -68.65 74.9 -68.1 75.05 -67.55 75.15 L-67.55 75.15 M-63.5 54.8 L-63.3 55.15 Q-63.3 55.1 -63.3 55.05 -63.3 54.95 -63.3 54.95 -63.3 54.95 -63.55 54.85 -64.1 54.1 -64.8 53.4 -65.4 52.75 -66.1 52.1 -66.75 51.5 -67.55 50.9 -68.2 50.35 -69.0 49.8 -69.7 49.3 -70.55 48.75 -71.2 48.35 -72.1 47.75 -63.05 53.45 -73.7 46.8 -74.6 46.2 -75.25 45.8 -75.35 45.7 -75.5 45.6 -75.6 45.5 -75.8 45.3 -76.0 45.1 -76.1 45.05 -76.25 44.9 -76.35 44.8 -76.5 44.65 -76.65 44.6 -76.8 44.55 -76.95 44.55 -77.1 44.55 -77.25 44.6 -77.4 44.7 -77.55 44.85 -77.7 45.05 -77.85 45.25 -77.95 45.45 -77.95 45.7 -78.0 45.9 -78.0 46.15 -77.95 46.35 -77.9 46.55 -77.8 46.75 -77.7 47.0 -77.6 47.2 -77.45 47.35 -77.25 47.55 -77.1 47.75 -76.9 47.9 -76.65 48.05 -75.9 48.6 -75.1 49.1 -74.35 49.6 -73.55 50.05 -72.75 50.5 -71.95 50.95 -71.15 51.4 -70.3 51.8 -69.5 52.2 -68.6 52.6 -67.8 53.0 -66.95 53.4 -66.1 53.75 -65.25 54.1 -64.4 54.45 -63.5 54.8 L-63.5 54.8 M56.95 118.8 Q57.3 118.8 57.6 118.7 57.9 118.65 58.2 118.5 58.45 118.4 58.75 118.25 58.95 118.1 59.25 117.9 59.45 117.75 59.7 117.5 59.6 117.6 60.2 117.15 60.45 116.9 60.65 116.75 60.9 116.55 61.15 116.4 62.0 115.85 62.75 115.3 63.55 114.7 64.2 114.05 64.9 113.4 65.45 112.75 66.05 112.05 66.5 111.3 67.0 110.5 67.35 109.7 67.7 108.85 67.95 107.95 68.2 107.05 68.3 106.1 68.4 105.1 68.35 104.05 68.35 103.75 68.35 103.4 68.35 103.1 68.4 102.75 68.45 102.45 68.5 102.1 68.55 101.8 68.6 101.45 68.65 101.2 68.7 100.85 68.75 100.65 68.85 100.2 68.95 99.8 69.0 99.55 69.05 99.2 69.15 98.95 69.25 98.25 69.35 97.6 69.45 96.9 69.5 96.25 69.5 95.55 69.5 94.9 69.5 94.2 69.45 93.55 69.4 92.9 69.3 92.25 69.2 91.6 69.0 91.0 68.85 90.35 68.6 89.75 68.35 89.15 68.0 88.6 67.7 88.05 67.45 87.55 67.25 87.05 67.1 86.55 66.95 86.1 66.9 85.65 66.85 85.2 66.9 84.75 66.9 84.3 67.05 83.9 67.15 83.45 67.35 83.05 67.5 82.6 67.8 82.2 68.05 81.75 68.4 81.3 68.65 80.95 68.85 80.4 69.0 79.9 69.1 79.25 69.2 78.6 69.25 77.85 69.25 77.15 69.2 76.4 69.15 75.65 69.05 74.95 68.9 74.2 68.75 73.6 68.55 72.95 68.3 72.5 68.05 72.0 67.7 71.7 67.4 71.45 67.2 71.15 66.95 70.9 66.8 70.6 66.6 70.35 66.5 70.05 66.4 69.75 66.35 69.45 66.3 69.2 66.3 68.9 66.3 68.6 66.35 68.3 66.4 67.95 66.5 67.65 66.6 67.35 66.8 67.05 66.95 66.75 67.05 66.45 67.15 66.15 67.2 65.9 67.25 65.6 67.25 65.35 67.25 65.1 67.15 64.85 67.1 64.65 67.0 64.4 66.95 64.15 66.8 63.9 66.65 63.7 66.5 63.4 66.3 63.2 66.1 62.95 65.7 62.4 65.35 61.9 65.0 61.35 64.75 60.8 64.55 60.25 64.4 59.7 64.25 59.15 64.15 58.6 64.1 58.0 64.15 57.45 64.2 56.85 64.3 56.25 64.45 55.65 64.7 55.05 64.9 54.4 65.25 53.8 65.75 52.8 66.25 51.75 66.7 50.75 67.15 49.7 67.55 48.65 67.95 47.6 68.35 46.55 68.7 45.5 69.0 44.4 69.3 43.35 69.6 42.25 69.9 41.15 70.15 40.05 70.35 38.95 70.55 37.85 70.75 36.7 70.75 36.55 70.8 36.3 70.8 36.2 70.8 35.9 70.8 35.6 70.8 35.45 70.8 35.2 70.85 35.0 70.85 34.8 70.95 34.65 71.0 34.45 71.1 34.35 71.2 34.25 71.4 34.2 71.55 34.15 71.8 34.15 72.1 34.2 72.3 34.3 72.5 34.4 72.65 34.55 72.75 34.7 72.85 34.9 72.9 35.1 72.9 35.35 72.95 35.55 72.9 35.8 72.9 36.05 72.85 36.3 72.85 36.5 72.8 36.8 72.75 37.15 72.75 37.3 72.75 37.4 72.7 37.6 72.6 37.75 72.6 37.85 72.45 38.95 72.2 40.05 71.95 41.1 71.65 42.2 71.35 43.2 71.0 44.3 70.65 45.3 70.25 46.4 69.9 47.35 69.45 48.45 69.1 49.35 68.6 50.5 68.45 50.85 67.75 52.55 67.25 53.75 66.9 54.55 66.7 55.05 66.55 55.55 66.4 56.05 66.3 56.5 66.15 57.0 66.15 57.45 66.1 57.9 66.1 58.35 66.15 58.85 66.2 59.25 66.3 59.75 66.5 60.15 66.65 60.6 66.9 61.05 67.15 61.5 67.5 61.9 67.6 62.05 67.7 62.15 67.8 62.25 67.9 62.35 68.0 62.5 68.1 62.55 68.25 62.65 68.35 62.7 68.45 62.75 68.55 62.75 68.7 62.75 68.8 62.7 68.95 62.65 69.1 62.55 69.2 62.45 69.35 62.3 69.65 61.95 70.05 61.55 70.3 61.25 70.75 60.8 71.35 60.15 71.45 60.05 71.85 59.65 72.1 59.3 72.5 58.9 72.8 58.55 73.15 58.15 73.4 57.75 73.75 57.35 74.0 56.95 74.3 56.55 74.5 56.1 75.1 55.05 75.65 54.0 76.2 52.95 76.7 51.85 77.25 50.8 77.7 49.7 78.2 48.6 78.7 47.5 79.15 46.4 79.6 45.3 80.0 44.2 80.4 43.05 80.8 41.9 81.15 40.8 81.55 39.65 81.85 38.5 81.95 38.1 82.05 37.75 82.1 37.4 82.1 37.05 82.15 36.7 82.1 36.4 82.1 36.05 82.0 35.75 81.95 35.45 81.8 35.2 81.7 34.9 81.5 34.65 81.3 34.35 81.05 34.1 80.8 33.85 80.5 33.6 79.9 33.1 79.35 32.55 78.85 32.05 78.4 31.45 77.95 30.85 77.55 30.25 77.2 29.65 76.85 28.95 76.55 28.35 76.3 27.65 76.05 26.95 75.85 26.25 75.65 25.55 75.5 24.8 75.35 24.05 75.25 23.25 74.95 21.2 74.75 19.1 74.55 17.1 74.4 15.0 74.3 12.95 74.25 10.9 74.25 8.85 74.3 6.75 74.3 4.75 74.45 2.65 74.55 0.6 74.7 -1.5 74.9 -3.5 75.1 -5.6 75.3 -7.6 75.6 -9.75 75.95 -12.4 76.15 -14.9 76.4 -17.55 76.5 -20.1 76.6 -22.7 76.6 -25.25 76.6 -27.85 76.45 -30.35 76.25 -32.95 75.95 -35.45 75.65 -38.05 75.15 -40.55 74.65 -43.1 74.0 -45.6 73.3 -48.15 72.4 -50.65 71.9 -52.0 71.35 -53.35 70.8 -54.7 70.2 -56.0 69.55 -57.3 68.9 -58.55 68.2 -59.8 67.45 -61.05 66.7 -62.25 65.9 -63.45 65.1 -64.65 64.25 -65.8 63.4 -66.95 62.5 -68.1 61.6 -69.25 60.65 -70.35 59.95 -71.15 58.85 -72.45 57.5 -74.05 57.1 -74.55 56.1 -75.75 55.3 -76.65 54.35 -77.75 53.5 -78.7 52.55 -79.75 51.65 -80.65 50.65 -81.7 49.7 -82.6 48.65 -83.55 47.65 -84.45 46.55 -85.35 45.45 -86.15 43.65 -87.5 41.9 -88.7 40.05 -89.9 38.25 -90.9 36.35 -91.95 34.5 -92.85 32.55 -93.75 30.6 -94.45 28.65 -95.15 26.65 -95.7 24.6 -96.2 22.55 -96.55 20.4 -96.85 18.3 -96.95 16.1 -97.1 13.9 -97.0 11.3 -96.9 8.7 -96.6 6.15 -96.35 3.55 -95.9 1.05 -95.5 -1.55 -95.0 -4.05 -94.45 -6.65 -93.8 -9.05 -93.2 -11.65 -92.5 -14.05 -91.8 -16.6 -91.0 -18.95 -90.25 -21.55 -89.4 -23.85 -88.65 -26.5 -87.7 -27.95 -87.2 -29.4 -86.65 -30.85 -86.05 -32.3 -85.45 -33.7 -84.85 -35.1 -84.2 -36.5 -83.55 -37.9 -82.85 -39.25 -82.15 -40.65 -81.4 -42.0 -80.65 -43.35 -79.85 -44.65 -79.1 -46.0 -78.25 -47.3 -77.45 -48.6 -76.55 -79.25 -56.3 -50.6 -75.2 -51.8 -74.45 -52.65 -73.85 -53.75 -73.1 -54.65 -72.45 -55.7 -71.7 -56.55 -71.0 -57.55 -70.2 -58.4 -69.4 -59.35 -68.6 -60.15 -67.75 -61.0 -66.85 -61.7 -65.9 -62.45 -64.95 -63.1 -63.95 -64.45 -61.75 -65.7 -59.5 -66.9 -57.2 -67.95 -54.9 -69.05 -52.6 -69.95 -50.25 -70.85 -47.85 -71.55 -45.45 -72.3 -43.0 -72.85 -40.55 -73.4 -38.05 -73.75 -35.55 -74.15 -33.05 -74.3 -30.5 -74.5 -27.9 -74.45 -25.3 -74.45 -22.2 -74.3 -14.25 -74.15 -7.25 -74.2 -3.25 -74.2 2.85 -74.5 7.8 -74.6 9.5 -74.75 11.0 -74.9 12.65 -75.15 14.1 -75.45 15.65 -75.8 17.05 -76.2 18.55 -76.75 19.9 -77.3 21.3 -78.0 22.55 -78.75 23.9 -79.65 25.05 -80.6 26.3 -81.7 27.4 -82.9 28.5 -84.25 29.5 -84.6 29.75 -84.9 30.05 -85.15 30.35 -85.3 30.65 -85.45 31.0 -85.5 31.35 -85.55 31.65 -85.55 32.0 -85.55 32.35 -85.45 32.7 -85.35 33.05 -85.2 33.4 -85.05 33.7 -84.85 34.05 -84.65 34.35 -84.4 34.7 -83.75 35.5 -83.15 36.2 -82.45 36.95 -81.8 37.65 -81.15 38.35 -80.45 39.05 -79.75 39.75 -79.05 40.4 -78.3 41.05 -77.6 41.7 -76.8 42.3 -76.05 42.9 -75.25 43.45 -74.45 44.0 -73.65 44.55 -72.8 45.0 -71.65 45.65 -70.45 46.45 -69.4 47.2 -68.25 48.0 -67.25 48.8 -66.15 49.7 -65.15 50.5 -64.1 51.45 -63.2 52.3 -62.15 53.3 -61.3 54.05 -60.15 55.15 -61.1 54.25 -58.25 57.0 -57.1 58.1 -56.3 58.85 -56.2 58.95 -56.1 59.05 -56.05 59.1 -55.95 59.25 -55.85 59.4 -55.8 59.45 -55.7 59.6 -55.6 59.65 -55.5 59.75 -55.45 59.8 -55.3 59.9 -55.2 59.9 -55.1 59.95 -55.0 59.9 -54.85 59.9 -54.7 59.8 -54.6 59.75 -54.5 59.65 -54.45 59.55 -54.35 59.45 -54.3 59.35 -54.3 59.25 -54.3 59.1 -54.3 59.0 -54.3 58.85 -54.3 58.75 -54.3 58.6 -54.35 58.45 -54.4 58.35 -54.45 58.2 -54.5 58.1 -54.6 57.95 -58.7 50.45 -59.25 49.6 -59.9 48.5 -60.55 47.3 -61.1 46.2 -61.65 44.95 -62.15 43.8 -62.6 42.55 -63.05 41.4 -63.45 40.1 -63.8 38.95 -64.15 37.65 -64.5 36.45 -64.85 35.15 -65.1 33.95 -65.4 32.6 -65.65 31.55 -66.0 30.05 -66.05 29.9 -66.05 29.75 -66.05 29.6 -66.1 29.45 -66.1 29.3 -66.1 29.2 -66.05 29.05 -66.05 28.9 -66.0 28.75 -65.9 28.65 -65.85 28.55 -65.75 28.45 -65.65 28.4 -65.5 28.3 -65.35 28.25 -65.15 28.25 -65.0 28.25 -64.85 28.25 -64.7 28.3 -64.6 28.35 -64.55 28.4 -64.45 28.5 -64.4 28.6 -64.35 28.7 -64.3 28.8 -64.25 28.95 -64.25 29.05 -64.2 29.2 -64.2 29.3 -64.2 29.45 -64.15 29.65 -64.15 29.7 -63.85 31.45 -63.45 33.25 -63.05 35.0 -62.5 36.7 -62.0 38.4 -61.35 40.1 -60.75 41.7 -60.05 43.4 -59.35 45.0 -58.55 46.65 -57.85 48.2 -56.95 49.85 -56.2 51.3 -55.25 53.0 -54.5 54.4 -53.5 56.1 -53.4 56.25 -53.3 56.45 -53.4 56.3 -53.1 56.8 -52.95 57.0 -52.85 57.15 -52.75 57.35 -52.7 57.5 -52.6 57.7 -52.55 57.9 -52.45 58.05 -52.45 58.25 -52.4 58.45 -52.45 58.65 -52.45 58.85 -52.55 59.05 -52.7 59.55 -52.85 60.05 -52.95 60.55 -53.0 61.05 -53.0 61.55 -53.0 62.05 -53.0 62.55 -52.95 63.05 -52.9 63.5 -52.8 64.0 -52.75 64.45 -52.65 65.0 -52.55 65.4 -52.4 66.0 -52.2 66.95 -52.2 66.95 -52.15 67.25 -52.1 67.5 -52.1 67.8 -52.1 68.05 -52.15 68.35 -52.2 68.6 -52.25 68.85 -52.35 69.1 -52.4 69.35 -52.55 69.6 -52.65 69.85 -52.75 70.05 -52.9 70.3 -53.05 70.55 -53.2 70.75 -53.35 71.0 -53.45 71.15 -53.65 71.4 -53.75 71.5 -53.95 71.75 -54.2 72.05 -54.25 72.1 -54.45 72.3 -54.55 72.5 -54.7 72.7 -54.85 72.85 -54.95 73.05 -55.05 73.25 -55.2 73.5 -55.25 73.7 -55.3 73.95 -55.35 74.15 -56.75 84.55 -56.75 84.85 -57.5 91.0 -57.75 95.6 -57.75 95.85 -57.75 96.25 -57.8 95.15 -57.7 96.95 -57.7 97.35 -57.7 97.6 -57.7 97.95 -57.75 98.25 -57.8 98.6 -57.95 98.85 -58.05 99.2 -58.25 99.4 -58.5 99.7 -58.8 99.9 -59.15 100.1 -59.6 100.25 -59.7 100.3 -59.8 100.35 -59.85 100.45 -59.9 100.5 -59.9 100.6 -59.9 100.7 -59.9 100.8 -59.9 100.9 -59.85 101.0 -59.8 101.1 -59.8 101.15 -59.75 101.35 -59.7 101.45 -59.65 101.55 -59.65 101.65 -59.6 101.75 -59.2 103.9 -58.4 105.75 -57.65 107.6 -56.55 109.1 -55.5 110.6 -54.1 111.8 -52.75 112.95 -51.15 113.85 -49.55 114.7 -47.75 115.3 -45.95 115.85 -44.0 116.15 -42.05 116.45 -40.0 116.45 -37.95 116.45 -35.8 116.2 -37.0 115.4 -38.05 114.5 -39.1 113.65 -40.0 112.65 -40.95 111.7 -41.7 110.7 -42.5 109.65 -43.15 108.55 -43.8 107.45 -44.35 106.25 -44.85 105.1 -45.25 103.85 -45.65 102.6 -45.9 101.25 -46.15 99.95 -46.3 98.55 -46.3 98.5 -46.3 98.4 -46.35 98.35 -46.35 98.3 -46.4 98.2 -46.4 98.15 -46.45 98.05 -46.45 98.0 -46.5 97.95 -46.55 97.85 -46.6 97.8 -46.6 97.75 -46.65 97.7 -46.7 97.65 -46.75 97.55 -46.8 97.5 -47.35 96.9 -47.75 96.25 -48.2 95.6 -48.5 94.9 -48.8 94.25 -49.05 93.55 -49.3 92.85 -49.45 92.1 -49.6 91.4 -49.75 90.65 -49.85 89.95 -49.95 89.15 -50.0 88.6 -50.1 87.65 -50.2 86.55 -50.25 86.15 -50.25 85.95 -50.3 85.9 -50.3 85.75 -50.3 85.65 -50.3 85.5 -50.3 85.35 -50.3 85.25 -50.25 85.1 -50.2 85.0 -50.15 84.9 -50.1 84.8 -50.05 84.7 -49.95 84.65 -49.8 84.6 -49.7 84.55 -49.5 84.5 -49.35 84.5 -49.2 84.5 -49.05 84.55 -48.95 84.6 -48.85 84.65 -48.8 84.75 -48.7 84.85 -48.65 84.95 -48.6 85.05 -48.6 85.15 -48.55 85.3 -48.5 85.4 -48.5 85.55 -48.5 85.7 -48.5 85.8 -48.5 85.95 -48.45 86.4 -48.4 86.8 -48.35 87.25 -48.3 87.65 -48.2 88.05 -48.1 88.5 -48.0 88.9 -47.9 89.3 -47.8 89.7 -47.65 90.15 -47.55 90.5 -47.4 90.95 -47.25 91.3 -47.1 91.75 -47.0 92.0 -46.8 92.55 -46.4 93.75 -45.9 94.85 -45.4 95.9 -44.8 96.95 -44.2 97.95 -43.5 98.85 -42.85 99.8 -42.1 100.65 -41.3 101.45 -40.45 102.2 -39.6 103.0 -38.65 103.65 -37.7 104.35 -36.7 104.95 -35.65 105.55 -34.5 106.05 -32.7 106.9 -29.8 108.55 -26.4 110.55 -25.1 111.2 -24.0 111.75 -23.1 112.4 -22.1 113.0 -21.3 113.75 -20.5 114.45 -19.8 115.25 -19.15 116.05 -18.6 116.95 -18.05 117.85 -17.65 118.85 -17.25 119.85 -17.0 120.95 -16.75 122.1 -16.7 123.3 -16.6 124.55 -16.65 125.85 -16.35 125.6 -14.3 123.9 -13.0 122.8 -12.15 122.2 -10.95 121.3 -9.95 120.35 -8.95 119.4 -8.15 118.4 -7.4 117.4 -6.8 116.4 -6.2 115.35 -5.85 114.25 -5.45 113.15 -5.25 111.95 -5.05 110.8 -5.1 109.55 -5.1 108.3 -5.3 107.0 -5.5 105.7 -5.9 104.25 -5.95 104.15 -6.0 104.0 -6.3 103.15 -6.05 103.75 -6.1 103.65 -6.15 103.55 -6.15 103.4 -6.2 103.3 -6.2 103.2 -6.15 103.1 -6.15 103.0 -6.1 102.9 -6.05 102.8 -5.9 102.7 -5.8 102.65 -5.65 102.55 -5.5 102.5 -5.35 102.5 -5.2 102.45 -5.1 102.5 -4.95 102.5 -4.85 102.6 -4.75 102.65 -4.65 102.7 -4.6 102.8 -4.5 102.9 -4.45 103.0 -4.4 103.15 -4.35 103.25 -4.25 103.35 -4.2 103.45 -4.15 103.6 -3.9 104.25 -3.7 104.85 -3.45 105.5 -3.3 106.1 -3.15 106.75 -3.05 107.35 -2.95 108.0 -2.9 108.6 -2.85 109.25 -2.85 109.9 -2.9 110.55 -2.95 111.15 -3.05 111.8 -3.25 112.45 -3.4 113.1 -3.65 113.75 -3.7 113.9 -3.8 114.15 -3.85 114.25 -4.0 114.5 -4.1 114.75 -4.15 114.9 -4.25 115.1 -4.35 115.3 -4.4 115.5 -4.45 115.7 -4.5 115.95 -4.55 116.15 -4.55 116.4 -4.5 116.6 -4.5 116.85 -4.4 117.1 -3.1 116.55 -1.95 116.05 -0.7 115.5 0.45 114.9 1.6 114.3 2.7 113.65 3.85 112.95 4.85 112.25 5.95 111.5 6.9 110.7 7.9 109.85 8.8 108.95 9.75 108.05 10.55 107.05 11.4 106.0 12.15 104.85 12.25 104.7 12.35 104.55 12.5 104.4 12.6 104.25 12.7 104.1 12.85 103.95 13.0 103.85 13.1 103.7 13.25 103.6 13.4 103.5 13.55 103.45 13.7 103.35 13.85 103.3 14.05 103.3 14.2 103.3 14.35 103.3 14.55 103.35 14.75 103.45 14.9 103.55 15.0 103.65 15.15 103.8 15.2 103.95 15.3 104.1 15.3 104.3 15.35 104.5 15.4 104.7 15.4 104.85 15.4 105.05 15.4 105.2 15.4 105.45 15.4 105.45 15.35 105.8 15.3 106.85 15.15 107.9 15.0 108.85 14.75 109.75 14.55 110.6 14.3 111.4 14.05 112.15 13.75 112.85 13.55 113.4 13.25 114.0 13.05 114.4 12.85 114.8 12.7 115.1 12.55 115.35 12.5 115.45 12.4 115.55 12.25 115.8 12.15 116.0 12.0 116.3 11.85 116.55 11.7 116.8 11.5 117.1 11.35 117.35 11.15 117.65 10.95 117.95 10.75 118.25 10.5 118.6 10.3 118.9 10.05 119.25 9.8 119.55 9.55 119.9 9.3 120.25 9.4 120.25 9.5 120.25 9.65 120.2 9.75 120.2 9.85 120.2 10.0 120.15 10.15 120.15 10.3 120.15 10.45 120.1 10.6 120.1 10.75 120.05 10.9 120.05 11.05 120.0 11.25 120.0 11.4 119.95 11.6 119.9 11.95 119.85 12.45 119.7 13.05 119.55 13.75 119.3 14.6 119.0 15.45 118.65 16.45 118.25 17.45 117.75 18.6 117.15 19.7 116.5 20.95 115.75 22.05 114.9 23.35 114.0 24.5 113.0 25.75 111.85 26.85 110.65 27.45 110.0 27.9 109.35 28.4 108.65 28.8 107.95 29.2 107.2 29.5 106.45 29.8 105.65 29.95 104.9 30.1 104.1 30.15 103.25 30.2 102.4 30.05 101.55 29.95 100.7 29.65 99.8 29.35 98.95 28.9 98.05 28.65 97.5 28.4 96.95 28.15 96.4 27.95 95.75 27.8 95.2 27.6 94.6 27.45 94.05 27.35 93.4 27.2 92.85 27.1 92.2 27.0 91.7 26.85 90.95 26.5 88.85 26.65 89.75 26.5 89.05 26.4 88.5 26.35 88.35 26.35 88.25 26.35 88.1 26.35 88.0 26.3 87.85 26.35 87.75 26.35 87.6 26.35 87.5 26.4 87.35 26.45 87.3 26.5 87.2 26.6 87.1 26.65 87.0 26.8 86.95 26.9 86.9 27.05 86.9 27.2 86.85 27.35 86.85 27.5 86.9 27.6 86.9 27.7 86.95 27.8 87.05 27.9 87.1 27.95 87.2 28.0 87.3 28.1 87.4 28.15 87.55 28.2 87.65 28.2 87.75 28.25 87.9 28.3 88.0 28.35 88.15 28.4 88.4 28.45 88.85 28.5 89.4 28.55 89.6 28.8 91.45 29.25 93.15 29.7 94.85 30.3 96.45 30.9 98.05 31.65 99.55 32.4 101.0 33.35 102.35 34.3 103.7 35.4 104.95 36.5 106.2 37.8 107.3 39.1 108.4 40.55 109.35 42.05 110.35 43.7 111.2 43.8 111.25 43.95 111.35 43.85 111.3 44.15 111.45 44.3 111.55 44.4 111.6 44.55 111.7 44.65 111.75 44.8 111.8 44.95 111.8 45.1 111.8 45.25 111.8 45.4 111.75 45.55 111.7 45.7 111.65 45.85 111.5 45.6 110.6 45.55 110.45 45.05 109.4 44.75 108.7 44.3 107.75 44.0 106.9 43.6 106.0 43.35 105.15 43.05 104.2 42.85 103.35 42.65 102.4 42.55 101.5 42.45 100.55 42.45 99.6 42.5 98.65 42.65 97.7 42.85 96.7 43.2 95.7 43.25 95.55 43.25 95.45 43.3 95.35 43.3 95.25 43.25 95.15 43.25 95.05 43.2 94.95 43.15 94.85 43.1 94.8 43.05 94.7 42.95 94.65 42.9 94.6 42.85 94.55 42.75 94.45 42.7 94.45 42.55 94.3 42.45 94.25 42.3 94.15 42.1 94.0 42.05 94.0 41.95 93.9 41.85 93.8 41.7 93.7 41.65 93.6 41.55 93.5 41.5 93.4 41.45 93.3 41.45 93.15 41.45 93.05 41.5 92.9 41.55 92.7 41.65 92.55 41.8 92.35 41.95 92.25 42.1 92.15 42.25 92.1 42.4 92.1 42.55 92.1 42.7 92.1 42.85 92.2 42.95 92.25 43.1 92.35 43.25 92.45 43.4 92.55 43.4 92.55 43.65 92.75 43.8 92.9 43.9 92.95 44.75 93.55 46.3 94.8 47.9 96.05 48.75 96.6 49.9 97.45 50.95 98.35 51.95 99.25 52.8 100.25 53.65 101.25 54.3 102.35 55.0 103.4 55.55 104.55 56.05 105.7 56.45 106.9 56.8 108.1 57.05 109.4 57.25 110.7 57.35 112.05 57.45 113.4 57.4 114.85 57.4 115.1 57.35 115.35 57.3 115.55 57.2 115.85 57.2 116.0 57.1 116.3 57.0 116.65 56.95 116.8 56.85 117.05 56.85 117.3 56.8 117.55 56.8 117.8 56.75 118.05 56.8 118.3 56.85 118.55 56.95 118.8 L56.95 118.8 M-56.3 71.65 Q-55.7 70.9 -55.25 70.15 -54.85 69.35 -54.6 68.55 -54.35 67.8 -54.25 67.0 -54.2 66.2 -54.3 65.45 -54.4 64.7 -54.65 64.0 -54.95 63.3 -55.4 62.65 -55.85 62.0 -56.5 61.5 -57.1 60.95 -57.9 60.55 -59.45 59.75 -65.0 56.7 -69.35 54.3 -72.15 52.95 -72.45 52.8 -73.65 52.25 -74.6 51.8 -75.15 51.55 -76.0 51.1 -76.6 50.7 -77.35 50.25 -77.85 49.75 -78.5 49.2 -78.9 48.6 -79.35 47.9 -79.55 47.15 -79.8 46.35 -79.8 45.4 -79.8 44.4 -79.5 43.25 -79.5 43.2 -79.5 43.1 -79.55 43.0 -79.55 42.95 -79.55 42.85 -79.6 42.7 -79.6 42.6 -79.65 42.5 -79.65 42.4 -79.7 42.3 -79.75 42.2 -79.85 42.1 -79.9 42.0 -79.95 41.95 -80.05 41.85 -80.1 41.8 -80.2 41.75 -80.3 41.7 -80.4 41.65 -80.5 41.6 -80.65 41.55 -80.75 41.55 -80.85 41.55 -80.95 41.6 -81.05 41.6 -81.1 41.7 -81.2 41.75 -81.25 41.85 -81.3 41.9 -81.35 42.0 -81.4 42.1 -81.45 42.2 -81.45 42.25 -81.5 42.45 -81.55 42.55 -81.6 42.65 -82.05 43.7 -82.95 45.45 -84.0 47.45 -84.35 48.25 -84.55 48.65 -85.05 49.75 -85.4 50.55 -85.6 51.0 -85.85 51.65 -86.0 52.1 -86.1 52.6 -86.1 53.05 -86.1 53.55 -86.0 54.0 -85.8 54.5 -85.5 55.0 -85.15 55.5 -84.6 56.05 -84.1 56.65 -83.3 57.3 -83.15 57.4 -83.05 57.55 -82.95 57.7 -82.85 57.85 -82.75 58.0 -82.7 58.15 -82.6 58.3 -82.6 58.45 -82.55 58.6 -82.5 58.75 -82.5 58.9 -82.5 59.05 -82.5 59.25 -82.55 59.4 -82.55 59.55 -82.6 59.7 -82.75 60.15 -82.8 60.55 -82.85 60.9 -82.8 61.25 -82.75 61.6 -82.65 61.85 -82.55 62.15 -82.35 62.4 -82.15 62.65 -81.9 62.85 -81.7 63.1 -81.4 63.3 -81.15 63.45 -80.8 63.7 -80.55 63.85 -80.15 64.1 -85.2 61.2 -77.2 65.8 -75.45 66.8 -74.25 67.55 -72.65 68.5 -71.35 69.4 -69.85 70.4 -68.6 71.35 -67.25 72.45 -66.05 73.55 -64.8 74.75 -63.75 76.05 -62.65 77.4 -61.75 78.85 -60.8 80.35 -60.1 82.05 -60.05 82.15 -60.0 82.2 -59.95 82.3 -59.9 82.35 -59.85 82.45 -59.8 82.5 -59.75 82.55 -59.7 82.6 -59.65 82.65 -59.55 82.7 -59.5 82.75 -59.4 82.75 -59.3 82.75 -59.2 82.8 -59.15 82.8 -59.0 82.8 -58.9 82.8 -58.8 82.75 -58.7 82.7 -58.65 82.65 -58.55 82.6 -58.5 82.55 -58.45 82.5 -58.45 82.4 -58.4 82.35 -58.4 82.25 -58.35 82.2 -58.35 82.1 -58.35 82.1 -58.3 81.9 -58.25 81.8 -58.25 81.75 -58.15 81.35 -58.05 80.9 -57.95 80.5 -57.85 80.05 -57.75 79.65 -57.7 79.2 -57.6 78.8 -57.55 78.35 -57.5 77.9 -57.45 77.5 -57.4 77.05 -57.35 76.6 -57.3 76.2 -57.25 75.75 -57.25 75.35 -57.2 74.9 -57.2 74.55 -57.2 74.2 -57.2 73.9 -57.25 73.6 -57.35 73.25 -57.4 73.0 -57.5 72.7 -57.65 72.45 -57.8 72.15 -57.95 71.95 -58.1 71.7 -58.3 71.45 -58.5 71.25 -58.75 71.05 -59.0 70.85 -59.25 70.65 -60.0 70.1 -60.8 69.6 -61.55 69.05 -62.35 68.55 -63.15 68.05 -63.95 67.55 -64.75 67.1 -65.55 66.65 -66.35 66.15 -67.2 65.75 -68.05 65.3 -68.85 64.9 -69.7 64.5 -70.55 64.15 -71.45 63.75 -72.3 63.4 -72.8 63.2 -73.3 63.0 -73.85 62.75 -74.3 62.5 -74.8 62.25 -75.3 62.0 -75.75 61.7 -76.25 61.4 -76.7 61.1 -77.15 60.8 -77.6 60.45 -78.0 60.1 -78.45 59.75 -78.85 59.4 -79.25 59.0 -79.65 58.6 -78.3 59.35 -76.7 60.1 -75.4 60.7 -73.65 61.5 -75.75 60.55 -70.6 62.8 -68.8 63.6 -67.55 64.2 -65.9 64.95 -64.55 65.7 -63.0 66.5 -61.7 67.35 -60.2 68.3 -58.9 69.3 -57.5 70.4 -56.3 71.65 L-56.3 71.65 M-60.2 97.5 Q-60.15 97.1 -60.15 96.6 -60.15 96.45 -60.1 95.75 -60.1 95.2 -60.1 94.85 -60.05 94.35 -60.0 94.0 -59.95 93.5 -59.9 93.1 -59.8 92.65 -59.7 92.25 -59.55 91.85 -59.35 91.45 -59.15 91.0 -58.9 90.65 -58.8 90.5 -58.75 90.35 -58.7 90.2 -58.65 90.0 -58.6 89.85 -58.6 89.65 -58.6 89.5 -58.65 89.3 -58.65 89.1 -58.7 88.9 -58.7 88.75 -58.75 88.55 -58.8 88.35 -58.9 88.15 -58.95 88.0 -59.0 87.8 -59.5 86.65 -60.05 85.65 -60.6 84.6 -61.25 83.65 -61.9 82.65 -62.65 81.8 -63.35 80.95 -64.15 80.2 -65.0 79.4 -65.9 78.75 -66.8 78.1 -67.8 77.5 -68.8 76.95 -69.9 76.45 -71.05 76.0 -72.25 75.6 -73.15 75.35 -73.6 75.15 -74.35 74.9 -74.95 74.65 -75.7 74.35 -76.25 74.0 -76.9 73.65 -77.35 73.2 -77.9 72.7 -78.25 72.1 -78.6 71.5 -78.75 70.75 -78.9 70.0 -78.85 69.05 -78.75 68.1 -78.4 67.0 -79.25 67.95 -79.8 68.8 -80.4 69.65 -80.75 70.4 -81.15 71.2 -81.25 71.9 -81.4 72.6 -81.3 73.3 -81.2 73.95 -80.9 74.6 -80.6 75.25 -80.05 75.9 -79.55 76.5 -78.8 77.2 -78.05 77.8 -77.1 78.5 -76.8 78.75 -76.45 78.95 -76.15 79.15 -75.8 79.35 -75.45 79.55 -75.1 79.75 -74.75 79.95 -74.4 80.15 -74.05 80.3 -73.7 80.5 -73.35 80.65 -72.95 80.85 -72.65 81.0 -72.25 81.15 -71.95 81.3 -71.5 81.5 -70.8 81.8 -70.15 82.1 -69.45 82.45 -68.85 82.8 -68.15 83.15 -67.55 83.5 -66.9 83.9 -66.3 84.3 -65.65 84.7 -65.05 85.1 -64.45 85.55 -63.9 86.0 -63.3 86.45 -62.75 86.95 -62.2 87.45 -61.65 87.95 -61.55 88.05 -61.4 88.15 -61.35 88.2 -61.15 88.4 -60.95 88.5 -60.85 88.6 -60.7 88.75 -60.6 88.85 -60.5 89.0 -60.4 89.15 -60.3 89.3 -60.25 89.45 -60.2 89.6 -60.2 89.8 -60.2 90.0 -60.25 90.2 -60.8 90.35 -60.8 90.3 -61.65 89.45 -62.6 88.6 -63.45 87.85 -64.45 87.1 -65.4 86.4 -66.45 85.75 -67.4 85.15 -68.5 84.5 -69.45 83.95 -70.65 83.35 -71.5 82.9 -72.75 82.25 -81.6 77.8 -74.95 81.15 -76.2 80.55 -77.1 80.05 -77.6 79.8 -78.0 79.6 -78.4 79.4 -78.7 79.35 -79.0 79.25 -79.25 79.2 -79.5 79.2 -79.7 79.3 -79.9 79.4 -80.1 79.6 -80.25 79.8 -80.35 80.1 -80.5 80.4 -80.6 80.8 -80.75 81.2 -80.85 81.8 -80.9 82.15 -80.9 82.4 -80.9 82.7 -80.85 82.9 -80.75 83.1 -80.65 83.3 -80.5 83.45 -80.35 83.6 -80.2 83.75 -80.0 83.85 -79.8 83.95 -79.6 84.05 -79.55 84.05 -79.2 84.25 -78.95 84.35 -78.8 84.4 -77.05 85.3 -76.3 85.7 -74.95 86.4 -73.85 87.0 -72.55 87.75 -71.45 88.4 -70.2 89.15 -69.1 89.85 -67.95 90.65 -66.85 91.45 -65.75 92.35 -64.75 93.25 -63.65 94.15 -62.75 95.2 -61.75 96.25 -60.9 97.35 -60.9 97.35 -60.2 97.5 L-60.2 97.5 M71.1 94.05 Q74.4 91.55 79.3 86.6 84.75 81.15 87.1 79.2 87.8 78.65 88.25 78.0 88.75 77.4 89.1 76.7 89.4 76.0 89.55 75.25 89.7 74.5 89.7 73.7 89.7 72.9 89.5 72.0 89.35 71.15 89.0 70.2 88.7 69.3 88.2 68.3 87.75 67.3 87.15 66.2 87.1 66.1 87.0 65.95 86.9 65.75 86.85 65.65 86.75 65.5 86.7 65.4 86.6 65.3 86.5 65.2 86.4 65.1 86.3 65.0 86.2 64.95 86.1 64.9 85.95 64.9 85.8 64.95 85.65 64.95 85.5 65.05 85.35 65.15 85.25 65.25 85.2 65.35 85.15 65.45 85.1 65.6 85.05 65.75 85.05 65.85 85.05 66.0 85.1 66.15 85.15 66.3 85.2 66.45 85.25 66.55 85.3 66.7 85.4 66.85 85.5 66.95 85.6 67.1 85.9 67.4 86.05 67.7 86.25 68.0 86.35 68.25 86.45 68.55 86.45 68.8 86.5 69.05 86.4 69.25 86.35 69.5 86.2 69.75 86.05 69.95 85.85 70.15 85.65 70.35 85.4 70.6 85.1 70.75 84.8 70.95 83.9 71.5 81.0 73.4 78.7 74.9 77.2 75.75 76.5 76.1 75.9 76.55 75.25 76.95 74.65 77.4 74.05 77.85 73.45 78.3 72.9 78.8 72.4 79.3 71.85 79.85 71.4 80.4 70.9 80.95 70.45 81.55 70.0 82.2 69.6 82.8 69.2 83.45 68.85 84.15 68.7 84.4 68.65 84.6 68.6 84.8 68.55 85.0 68.55 85.2 68.55 85.4 68.6 85.55 68.65 85.75 68.7 85.9 68.8 86.05 68.9 86.2 69.0 86.4 69.1 86.5 69.25 86.7 69.35 86.8 69.5 86.95 69.6 87.05 69.7 87.1 69.75 87.15 69.85 87.2 69.95 87.2 70.0 87.2 70.1 87.15 70.15 87.1 70.2 87.05 70.3 87.0 70.35 86.95 70.4 86.85 70.45 86.8 70.5 86.7 70.55 86.65 70.55 86.55 70.85 86.0 71.25 85.5 71.6 85.05 72.05 84.6 72.45 84.2 72.95 83.8 73.4 83.45 73.95 83.05 74.3 82.8 74.95 82.35 75.6 81.9 75.95 81.65 76.5 81.25 76.9 80.9 77.4 80.5 77.85 80.1 78.05 79.9 78.3 79.7 78.5 79.5 78.75 79.3 79.0 79.1 79.2 78.9 79.5 78.75 79.75 78.55 80.0 78.4 80.3 78.25 80.6 78.1 80.85 78.0 81.2 77.85 81.5 77.8 81.8 77.7 82.1 77.65 82.15 77.85 82.2 78.05 82.2 78.25 82.2 78.4 82.15 78.5 82.1 78.65 82.05 78.75 81.95 78.85 81.9 78.95 81.8 79.0 81.7 79.1 81.6 79.15 81.55 79.15 81.35 79.3 81.25 79.35 81.15 79.4 78.9 81.0 74.05 84.8 73.45 85.25 73.0 85.75 72.55 86.2 72.15 86.7 71.8 87.2 71.55 87.75 71.25 88.25 71.1 88.85 70.9 89.4 70.85 90.0 70.75 90.6 70.75 91.25 70.75 91.9 70.85 92.6 70.95 93.3 71.1 94.05 L71.1 94.05 M71.55 77.55 L78.8 69.85 Q79.85 68.7 82.25 65.75 84.4 63.1 85.7 61.7 85.95 61.4 86.1 61.15 86.25 60.9 86.35 60.65 86.4 60.4 86.35 60.15 86.35 59.95 86.25 59.75 86.2 59.55 86.05 59.35 85.9 59.2 85.75 59.0 85.6 58.85 85.4 58.65 85.45 58.7 85.1 58.35 84.9 58.15 84.7 58.05 84.5 57.95 84.35 57.95 84.2 57.95 84.05 58.05 83.95 58.1 83.85 58.25 83.75 58.35 83.65 58.5 83.6 58.6 83.5 58.85 83.35 59.05 83.3 59.15 83.2 59.3 83.15 59.35 L76.15 67.1 Q76.1 67.2 76.0 67.3 77.0 66.05 75.8 67.5 75.7 67.65 75.6 67.75 75.5 67.85 75.4 67.9 75.3 68.0 75.2 68.05 75.05 68.1 74.95 68.1 74.8 68.1 74.65 68.05 74.5 68.0 74.3 67.85 74.25 67.7 74.3 67.55 74.3 67.4 74.3 67.3 74.35 67.2 74.4 67.05 74.45 66.95 74.55 66.85 74.6 66.8 74.7 66.7 74.8 66.6 74.9 66.5 75.05 66.4 75.05 66.35 75.15 66.25 75.25 66.15 75.85 65.45 76.65 64.55 75.2 66.2 78.05 63.0 78.85 62.05 79.4 61.4 80.15 60.55 80.75 59.8 81.45 58.9 82.05 58.15 82.7 57.25 83.3 56.4 83.9 55.5 84.45 54.6 85.0 53.6 85.45 52.65 85.7 52.1 85.85 51.65 85.9 51.2 85.85 50.85 85.85 50.55 85.65 50.25 85.55 50.05 85.3 49.8 85.2 49.65 84.9 49.4 84.65 49.15 84.5 49.0 84.3 48.8 84.2 48.6 84.1 48.3 84.15 48.05 84.2 48.6 84.1 49.15 84.05 49.65 83.85 50.1 83.7 50.5 83.45 50.9 83.25 51.25 82.9 51.65 82.65 51.95 82.3 52.3 82.0 52.55 81.6 52.9 75.75 57.9 80.9 53.5 80.5 53.85 80.2 54.1 79.6 54.65 78.75 55.45 80.5 53.8 77.3 56.8 76.45 57.6 75.85 58.15 75.05 58.9 74.45 59.55 73.7 60.25 73.05 60.95 72.35 61.7 71.75 62.45 71.1 63.25 70.55 64.05 69.95 64.85 69.45 65.7 69.2 66.1 69.05 66.4 68.85 66.75 68.7 67.1 68.55 67.45 68.5 67.75 68.4 68.1 68.35 68.4 68.35 68.75 68.4 69.1 68.45 69.4 68.65 69.75 68.8 70.05 69.1 70.35 69.4 70.7 69.8 71.0 70.0 71.15 70.1 71.3 70.25 71.45 70.35 71.6 70.45 71.75 70.5 71.95 70.55 72.1 70.6 72.3 70.65 72.5 70.65 72.7 70.7 72.9 70.7 73.1 70.7 73.25 70.7 73.55 70.75 73.85 70.75 73.95 70.75 74.15 70.75 74.35 70.75 74.35 70.75 74.8 70.7 75.05 70.7 75.25 70.7 75.5 70.75 75.7 70.75 75.95 70.8 76.15 70.85 76.4 70.95 76.6 71.05 76.85 71.2 77.05 71.35 77.3 71.55 77.55 L71.55 77.55 M-80.85 115.85 Q-80.2 116.0 -79.5 116.1 -78.85 116.2 -78.2 116.25 -77.6 116.3 -76.95 116.25 -76.35 116.25 -75.7 116.15 -75.15 116.1 -74.5 116.0 -73.95 115.9 -73.35 115.75 -72.8 115.65 -72.15 115.5 -71.75 115.4 -71.05 115.2 -69.7 114.85 -68.4 114.05 -67.2 113.3 -66.05 112.15 -64.95 111.05 -64.1 109.65 -63.25 108.3 -62.65 106.85 -62.1 105.35 -61.85 103.85 -61.65 102.35 -61.85 100.95 -62.05 99.45 -62.75 98.25 -63.45 96.95 -64.65 96.0 -64.8 95.85 -65.0 95.7 -65.15 95.5 -65.3 95.3 -65.25 95.4 -65.65 94.9 -65.85 94.65 -65.95 94.5 -66.15 94.3 -66.3 94.15 -66.5 94.0 -66.65 93.9 -66.85 93.8 -67.05 93.8 -67.25 93.75 -67.45 93.85 -67.65 93.9 -67.85 94.05 -68.0 94.15 -68.1 94.35 -68.2 94.5 -68.3 94.75 -68.35 94.95 -68.4 95.2 -68.45 95.4 -68.45 95.7 -68.45 95.85 -68.5 96.2 -68.5 96.55 -68.55 96.7 -68.55 96.95 -68.6 97.15 -68.9 98.65 -69.25 100.0 -69.65 101.45 -70.1 102.75 -70.6 104.1 -71.15 105.35 -71.75 106.65 -72.45 107.8 -73.2 109.05 -74.05 110.1 -74.95 111.25 -75.95 112.2 -77.0 113.25 -78.2 114.15 -79.45 115.05 -80.85 115.85 L-80.85 115.85 M80.35 88.15 Q79.9 88.55 79.45 89.0 79.05 89.4 78.6 89.85 78.2 90.25 77.8 90.7 77.45 91.1 77.0 91.55 76.7 91.9 76.25 92.4 76.05 92.6 75.5 93.2 75.05 93.75 74.8 94.05 74.35 94.5 74.05 94.9 73.35 95.65 72.8 96.4 72.2 97.15 71.8 97.95 71.3 98.7 71.0 99.5 70.65 100.3 70.45 101.1 70.25 101.95 70.2 102.8 70.15 103.65 70.25 104.5 70.35 105.4 70.55 106.25 70.8 107.2 71.2 108.1 71.6 109.0 72.1 109.75 72.6 110.5 73.2 111.1 73.75 111.7 74.45 112.2 75.1 112.65 75.85 113.05 76.55 113.4 77.4 113.7 78.2 113.95 79.1 114.15 79.95 114.3 80.9 114.45 81.8 114.55 82.8 114.6 81.55 113.1 80.65 111.45 79.85 109.9 79.4 108.25 79.0 106.7 78.85 105.0 78.7 103.45 78.8 101.7 78.85 100.2 79.1 98.35 79.2 97.2 79.55 94.95 79.9 92.7 80.0 91.55 80.25 89.65 80.35 88.15 L80.35 88.15 M-81.95 104.15 Q-80.8 104.5 -79.7 104.6 -78.6 104.75 -77.65 104.6 -76.65 104.5 -75.75 104.2 -74.85 103.85 -74.05 103.3 -73.3 102.75 -72.6 102.0 -71.9 101.2 -71.35 100.25 -70.8 99.25 -70.35 98.05 -69.9 96.85 -69.55 95.4 -69.4 94.7 -69.3 94.15 -69.2 93.55 -69.2 93.1 -69.2 92.65 -69.3 92.3 -69.4 91.9 -69.6 91.65 -69.8 91.35 -70.1 91.1 -70.45 90.9 -70.85 90.7 -71.3 90.55 -71.9 90.4 -72.45 90.25 -73.15 90.15 -73.2 91.3 -73.4 92.4 -73.55 93.5 -73.9 94.5 -74.2 95.5 -74.6 96.45 -75.05 97.4 -75.6 98.25 -76.15 99.1 -76.85 99.9 -77.5 100.7 -78.3 101.45 -79.1 102.2 -80.0 102.85 -80.9 103.55 -81.95 104.15 L-81.95 104.15 M92.75 103.8 Q91.7 103.35 90.75 102.9 89.8 102.45 88.95 101.95 88.0 101.4 87.25 100.8 86.4 100.2 85.7 99.55 85.0 98.85 84.35 98.1 83.7 97.35 83.2 96.5 82.65 95.6 82.25 94.6 81.8 93.6 81.45 92.5 81.15 93.45 80.95 94.3 80.75 95.2 80.6 96.0 80.5 96.85 80.5 97.6 80.5 98.4 80.65 99.15 80.8 99.85 81.05 100.55 81.35 101.25 81.75 101.85 82.2 102.5 82.8 103.05 83.4 103.6 84.2 104.1 84.7 104.45 85.2 104.65 85.7 104.9 86.25 105.1 86.75 105.25 87.3 105.35 87.8 105.45 88.35 105.45 88.9 105.4 89.4 105.3 89.95 105.2 90.5 105.0 91.05 104.8 91.6 104.5 92.2 104.2 92.75 103.8 L92.75 103.8 M81.1 47.15 L80.1 49.3 78.0 53.85 Q78.4 53.7 78.8 53.5 79.2 53.35 79.55 53.1 79.9 52.85 80.2 52.6 80.5 52.35 80.75 52.05 81.0 51.75 81.2 51.45 81.4 51.1 81.55 50.8 81.65 50.45 81.75 50.1 81.8 49.75 81.8 49.4 81.8 49.2 81.8 49.05 81.8 48.9 81.75 48.7 81.7 48.55 81.7 48.4 81.65 48.25 81.6 48.1 81.55 47.95 81.45 47.8 81.4 47.7 81.35 47.55 81.3 47.45 81.25 47.35 81.15 47.25 81.1 47.15 L81.1 47.15 M79.1 52.0 L79.0 52.2 79.15 52.2 79.1 52.0 79.1 52.0 M9.3 120.25 L9.1 120.15 9.1 120.3 9.3 120.25 9.3 120.25" fill="#000000" fill-rule="evenodd" stroke="none"/>
    <path d="M79.1 52.0 L79.15 52.2 79.0 52.2 79.1 52.0 M-63.55 54.85 Q-63.4 54.9 -63.45 54.85 -63.4 54.9 -63.4 54.9 -63.35 54.9 -63.3 54.95 -63.3 54.95 -63.3 55.0 -63.3 55.1 -63.3 55.1 L-63.5 54.8 Q-63.55 54.8 -63.55 54.85 L-63.55 54.85 M80.5 71.05 L80.35 71.35 Q80.35 71.3 80.35 71.3 80.35 71.25 80.35 71.25 80.4 71.2 80.55 71.1 80.5 71.1 80.5 71.05 L80.5 71.05 M-67.6 75.2 Q-67.4 75.25 -67.35 75.3 -67.35 75.3 -67.35 75.35 -67.35 75.45 -67.35 75.45 L-67.55 75.15 Q-67.6 75.15 -67.6 75.2 L-67.6 75.2" fill="#000000" fill-rule="evenodd" stroke="none"/>
    <path d="M-78.75 -81.85 L-78.85 -81.8 -78.85 -81.85 -78.75 -81.85" fill="#c7c7c7" fill-rule="evenodd" stroke="none"/>
    <path d="M81.05 45.6 Q80.9 45.95 80.7 46.25 80.55 46.6 80.35 46.95 80.2 47.3 80.0 47.6 79.85 47.95 79.7 48.3 79.5 48.65 79.35 49.0 79.15 49.35 79.0 49.7 78.85 50.05 78.65 50.4 78.5 50.75 78.35 51.15 77.4 53.15 76.4 55.55 76.5 55.5 76.6 55.5 76.7 55.45 76.8 55.4 76.9 55.4 77.0 55.35 77.15 55.3 77.25 55.25 77.4 55.2 77.5 55.15 77.65 55.05 77.8 55.0 77.9 54.95 78.05 54.85 78.2 54.75 78.35 54.7 78.45 54.65 78.55 54.55 78.65 54.5 78.75 54.4 78.85 54.35 78.95 54.25 79.05 54.2 79.1 54.1 79.2 54.05 79.25 53.95 79.35 53.9 79.4 53.85 79.5 53.8 79.55 53.7 79.55 53.7 79.7 53.6 80.15 53.15 80.55 52.8 80.9 52.45 81.2 52.15 81.45 51.95 81.7 51.75 81.8 51.6 82.05 51.45 82.2 51.3 82.25 51.2 82.35 51.1 82.45 51.05 82.5 51.0 82.55 50.9 82.6 50.85 82.65 50.75 82.8 50.45 82.85 50.05 82.9 49.7 82.85 49.35 82.8 49.0 82.7 48.6 82.55 48.25 82.4 47.85 82.25 47.55 82.05 47.2 81.9 46.9 81.7 46.55 81.55 46.3 81.35 46.05 81.2 45.8 81.05 45.6 L81.05 45.6 M79.05 72.35 Q79.1 72.2 79.15 72.05 79.25 71.9 79.3 71.7 79.35 71.55 79.45 71.35 79.55 71.15 79.65 71.0 79.75 70.8 79.85 70.6 79.95 70.4 80.1 70.2 80.2 70.0 80.35 69.8 80.5 69.6 80.65 69.4 80.85 69.15 80.95 69.0 81.15 68.8 81.3 68.65 81.45 68.4 81.65 68.25 81.85 68.05 82.0 67.9 82.2 67.7 82.4 67.6 82.6 67.45 82.8 67.4 83.0 67.3 83.2 67.3 83.4 67.25 83.6 67.3 83.75 67.35 83.85 67.4 83.95 67.45 84.1 67.55 84.2 67.6 84.3 67.7 84.4 67.8 84.5 67.95 84.55 68.05 84.65 68.2 84.7 68.3 84.75 68.45 84.8 68.6 84.8 68.75 84.85 68.9 84.85 69.0 84.85 69.05 84.85 69.1 84.85 69.2 84.8 69.25 84.8 69.35 84.75 69.4 84.75 69.5 84.7 69.6 84.65 69.7 84.55 69.8 84.5 69.95 84.4 70.05 84.3 70.2 84.15 70.3 84.0 70.45 83.85 70.6 83.55 70.85 83.25 71.05 82.95 71.25 82.6 71.45 82.3 71.6 81.95 71.75 81.65 71.85 81.35 71.95 81.05 72.05 80.7 72.1 80.4 72.2 80.1 72.25 79.85 72.25 79.55 72.3 79.3 72.3 79.05 72.35 L79.05 72.35 M-77.35 43.35 Q-76.8 43.6 -76.25 43.85 -75.65 44.15 -75.05 44.45 -74.4 44.75 -73.8 45.1 -73.15 45.45 -72.5 45.85 -71.8 46.25 -71.15 46.7 -70.45 47.15 -69.75 47.6 -69.05 48.1 -68.35 48.65 -67.6 49.2 -66.9 49.8 -66.3 50.3 -65.75 50.75 -65.2 51.25 -64.65 51.75 -64.15 52.2 -63.65 52.7 -63.2 53.2 -62.7 53.65 -62.3 54.15 -61.85 54.6 -61.45 55.05 -61.05 55.5 -60.7 55.95 -60.35 56.4 -60.0 56.85 -59.65 57.25 L-72.0 51.15 Q-72.0 51.15 -72.5 51.0 -72.95 50.85 -73.6 50.5 -75.1 49.75 -76.25 49.3 -77.0 49.0 -77.1 48.9 -77.15 48.9 -77.3 48.75 -77.55 48.5 -77.75 48.25 -77.9 48.05 -78.05 47.8 -78.2 47.55 -78.3 47.35 -78.4 47.15 -78.45 46.95 -78.5 46.75 -78.55 46.6 -78.6 46.45 -78.6 46.35 -78.65 46.25 -78.65 46.15 -78.65 46.15 -78.65 46.1 -78.65 45.8 -78.6 45.55 -78.6 45.3 -78.5 45.05 -78.45 44.8 -78.3 44.6 -78.2 44.4 -78.1 44.2 -78.0 44.05 -77.85 43.9 -77.75 43.75 -77.65 43.65 -77.55 43.55 -77.5 43.45 -77.4 43.4 -77.35 43.35 L-77.35 43.35 M-77.2 67.7 Q-76.75 67.9 -76.35 68.1 -75.85 68.3 -75.4 68.55 -74.95 68.8 -74.45 69.05 -73.95 69.35 -73.45 69.65 -72.9 69.95 -72.4 70.25 -71.85 70.6 -71.35 71.0 -70.75 71.4 -70.25 71.8 -69.65 72.2 -69.15 72.65 -68.7 73.0 -68.25 73.4 -67.85 73.8 -67.4 74.15 -67.05 74.55 -66.65 74.95 -66.3 75.3 -65.9 75.65 -65.6 76.05 -65.25 76.4 -64.95 76.75 -64.65 77.1 -64.35 77.45 -64.1 77.8 -63.8 78.1 -63.55 78.45 L-73.05 73.7 Q-73.05 73.7 -73.15 73.65 -73.3 73.65 -73.4 73.6 -73.75 73.5 -74.3 73.2 -75.45 72.65 -76.35 72.25 -76.9 72.05 -77.0 71.95 -77.0 71.95 -77.05 71.9 -77.1 71.9 -77.1 71.85 -77.3 71.65 -77.45 71.45 -77.6 71.3 -77.7 71.1 -77.8 70.95 -77.9 70.75 -77.95 70.6 -78.0 70.45 -78.05 70.3 -78.1 70.2 -78.15 70.1 -78.15 70.0 -78.15 69.9 -78.15 69.85 -78.15 69.8 -78.15 69.8 -78.15 69.6 -78.15 69.35 -78.1 69.15 -78.05 69.0 -78.0 68.8 -77.9 68.65 -77.85 68.5 -77.75 68.35 -77.65 68.2 -77.55 68.1 -77.5 68.0 -77.4 67.9 -77.35 67.8 -77.25 67.75 -77.25 67.7 -77.2 67.7 L-77.2 67.7" fill="#000000" fill-opacity="0.30980393" fill-rule="evenodd" stroke="none"/>
  </g>
</svg>
