<?xml version="1.0" encoding="UTF-8" standalone="no"?>
<svg xmlns:xlink="http://www.w3.org/1999/xlink" height="236.95px" width="218.95px" xmlns="http://www.w3.org/2000/svg">
  <g transform="matrix(1.0, 0.0, 0.0, 1.0, 109.5, 118.45)">
    <path d="M-69.7 70.2 Q-69.6 70.2 -69.5 70.5 -69.4 70.8 -69.3 71.45 -69.2 72.0 -69.05 73.0 -69.0 73.35 -68.7 75.15 -68.5 76.7 -68.3 77.85 -68.05 79.55 -67.8 81.15 -67.45 83.05 -67.1 84.95 -66.7 87.1 -66.25 89.25 -66.15 89.65 -66.1 90.0 -66.0 90.4 -65.95 90.75 -65.85 91.15 -65.8 91.55 -65.7 91.95 -65.6 92.4 -65.5 92.8 -65.4 93.25 -65.3 93.7 -65.2 94.15 -65.1 94.65 -65.0 95.15 -64.85 95.65 -64.75 96.15 -63.45 101.4 -60.15 111.5 -55.7 124.95 -55.1 126.2 -54.5 127.35 -54.2 127.9 -53.7 128.85 -53.3 129.6 -52.8 130.5 -52.3 131.25 -51.8 132.15 -51.25 132.9 -50.65 133.75 -50.0 134.45 -49.35 135.25 -48.65 135.95 -47.9 136.7 -47.1 137.35 -46.2 138.0 -45.3 138.6 -44.4 139.15 -43.45 139.65 -42.55 140.05 -41.65 140.45 -40.75 140.75 -39.85 141.05 -39.0 141.3 -38.15 141.45 -37.35 141.6 -36.55 141.75 -35.85 141.85 -35.1 141.9 -34.45 141.95 -33.8 141.95 -33.25 142.0 -32.7 141.95 -32.6 140.45 -32.4 137.4 -31.85 137.85 -31.3 138.25 -30.65 138.65 -30.1 139.05 -29.45 139.45 -28.85 139.8 -28.15 140.15 -27.55 140.4 -26.9 140.7 -26.25 140.85 -25.6 141.05 -25.05 141.1 -24.4 141.15 -23.85 141.1 -23.25 141.0 -22.75 140.75 -22.15 140.45 -21.7 139.95 -21.3 139.45 -20.95 138.75 -20.65 138.05 -20.45 137.1 -20.25 136.2 -20.15 135.05 -20.0 133.95 -19.95 132.5 -19.85 131.35 -19.8 129.55 -19.85 130.25 -19.7 126.1 -19.6 123.9 -19.55 122.2 -19.45 120.05 -19.3 117.8 -19.15 115.55 -19.0 113.4 -18.85 111.25 -18.65 109.2 -18.45 107.2 -18.25 105.4 -18.05 103.6 -17.85 102.15 -17.65 100.65 -17.4 99.65 -17.2 98.55 -17.0 98.0 -16.8 97.4 -16.65 97.4 -16.5 97.4 -16.35 97.9 -16.2 98.4 -16.0 99.4 -15.9 100.35 -15.7 101.9 -15.55 103.1 -15.35 105.3 -12.55 132.7 -14.9 109.65 -14.6 112.45 -14.35 114.8 -14.0 117.95 -13.65 120.85 -13.25 124.35 -12.8 127.75 -12.65 128.8 -12.5 129.85 -12.4 130.85 -12.25 131.85 -12.1 132.8 -11.95 133.75 -11.85 134.65 -11.7 135.55 -11.6 136.4 -11.45 137.25 -11.35 138.0 -11.25 138.8 -11.1 139.5 -11.0 140.2 -10.9 140.85 -10.8 141.5 -10.5 141.6 -10.15 141.7 -9.7 141.85 -9.2 142.0 -8.55 142.15 -7.95 142.25 -7.2 142.4 -6.5 142.45 -5.65 142.5 -4.85 142.45 -3.95 142.4 -3.1 142.25 -2.2 142.1 -1.35 141.75 -0.45 141.4 0.35 140.9 0.8 140.65 1.15 140.35 1.55 140.05 1.9 139.7 2.2 139.4 2.55 139.05 2.8 138.7 3.1 138.3 3.35 138.0 3.6 137.6 3.85 137.25 4.1 136.8 4.3 136.45 4.55 136.05 4.7 135.75 4.95 135.25 5.25 134.65 5.55 134.1 5.8 133.55 6.0 132.95 6.25 132.4 6.45 131.8 6.6 131.25 6.8 130.6 6.95 129.95 7.15 129.25 7.3 128.6 7.45 127.75 7.6 127.05 7.8 126.0 7.6 127.0 8.2 124.05 8.55 122.3 9.25 118.9 9.95 115.45 10.3 113.8 10.45 113.05 10.6 112.25 10.75 111.4 10.95 110.55 11.15 109.65 11.35 108.7 11.55 107.75 11.75 106.75 12.0 105.7 12.25 104.65 12.5 103.5 12.8 102.4 13.05 101.2 13.35 100.05 13.7 98.8 14.0 97.55 14.1 98.55 14.2 99.55 14.3 100.6 14.35 101.7 14.4 102.8 14.45 103.95 14.45 105.15 14.45 106.3 14.45 107.55 14.4 108.8 14.35 110.1 14.25 111.4 14.2 112.75 14.05 114.05 13.9 115.45 13.7 116.85 13.4 119.0 13.0 121.1 12.6 123.1 12.1 125.1 11.6 127.0 11.05 128.85 10.55 130.6 9.9 132.35 9.35 133.95 8.7 135.55 8.1 137.05 7.45 138.5 6.85 139.85 6.2 141.15 5.6 142.35 4.95 143.5 5.9 143.6 6.8 143.65 7.85 143.7 8.85 143.7 9.95 143.75 11.05 143.75 12.25 143.75 13.45 143.7 14.75 143.65 16.0 143.55 17.35 143.45 18.65 143.3 20.1 143.15 21.5 142.95 22.95 142.7 24.4 142.45 26.55 142.05 27.5 141.85 29.15 141.5 30.4 141.2 31.85 140.9 33.05 140.55 34.4 140.2 35.5 139.8 36.75 139.4 37.85 138.9 38.95 138.4 40.0 137.85 41.05 137.25 42.0 136.5 43.0 135.8 43.95 134.95 45.05 133.9 46.0 132.7 46.9 131.55 47.65 130.2 48.4 128.95 49.0 127.5 49.55 126.05 50.05 124.4 50.5 122.85 50.95 121.0 51.3 119.3 51.7 117.2 52.0 115.4 52.35 113.0 52.6 111.5 53.05 108.25 53.3 106.75 53.45 105.2 53.65 103.75 53.8 102.3 53.9 100.9 54.0 99.5 54.1 98.2 54.2 96.9 54.25 95.65 54.3 94.45 54.3 93.3 54.3 92.15 54.35 91.15 54.35 90.1 54.3 89.15 54.3 88.2 54.75 89.45 55.1 90.65 55.6 92.15 56.0 93.7 56.45 95.45 56.8 97.25 57.2 99.25 57.45 101.25 57.7 103.5 57.85 105.7 57.95 108.15 57.9 110.55 57.8 113.15 57.5 115.7 57.2 118.45 56.6 121.15 56.3 122.55 55.9 123.95 55.55 125.3 55.1 126.6 54.7 127.85 54.25 129.1 53.8 130.3 53.3 131.45 52.85 132.5 52.35 133.6 51.85 134.6 51.35 135.6 50.9 136.5 50.35 137.4 49.9 138.25 49.4 139.05 49.9 139.15 50.4 139.2 50.95 139.3 51.55 139.35 52.15 139.4 52.8 139.45 53.45 139.45 54.15 139.45 54.9 139.5 55.65 139.45 56.4 139.4 57.2 139.3 58.05 139.25 58.85 139.1 59.7 138.95 60.6 138.75 61.15 138.6 61.65 138.5 62.4 138.3 63.15 138.05 64.1 137.7 65.05 137.35 66.15 136.9 67.2 136.4 68.35 135.8 69.45 135.1 70.7 134.3 71.8 133.4 73.05 132.45 74.1 131.35 75.25 130.15 76.2 128.8 77.0 127.7 77.6 126.55 78.2 125.45 78.7 124.25 79.15 123.15 79.45 121.95 79.8 120.85 80.0 119.6 80.2 118.45 80.35 117.2 80.45 116.1 80.55 114.8 80.6 113.7 80.6 112.3 80.65 111.4 80.65 109.8 80.65 108.9 80.6 108.2 80.55 107.25 80.4 106.05 80.25 104.75 79.9 102.7 79.55 100.65 78.95 97.45 78.35 94.4 77.45 89.6 74.8 75.95 73.8 71.2 71.65 60.9 69.15 49.6 68.55 47.85 67.95 46.15 67.35 44.3 66.75 42.45 66.1 40.5 65.5 38.5 64.85 36.45 64.2 34.4 63.55 32.25 62.9 30.05 62.25 27.8 61.6 25.55 60.95 23.2 60.35 20.8 59.65 18.35 59.05 15.9 58.55 13.95 58.2 12.6 57.75 10.65 57.3 8.9 56.8 6.75 56.3 4.75 55.8 2.45 55.3 0.15 54.75 -2.35 54.25 -4.85 53.7 -7.55 53.2 -10.3 52.7 -13.2 52.2 -16.15 51.7 -19.25 51.25 -22.4 50.75 -25.75 50.5 -27.45 50.15 -30.1 49.85 -32.2 49.5 -34.6 49.25 -36.7 49.0 -39.0 48.75 -41.1 48.55 -43.35 48.35 -45.45 48.2 -47.7 48.1 -49.85 47.95 -52.1 47.9 -54.4 47.85 -56.75 47.85 -59.15 47.95 -72.3 47.25 -82.3 47.1 -84.2 47.05 -85.25 46.95 -86.75 46.85 -87.9 46.75 -89.15 46.65 -90.15 46.55 -91.25 46.4 -92.2 46.3 -93.15 46.15 -93.95 46.05 -94.75 45.9 -95.5 45.7 -96.2 45.55 -96.85 45.35 -97.5 45.1 -98.1 44.35 -100.05 43.2 -101.8 42.15 -103.5 40.8 -105.05 39.55 -106.5 38.0 -107.85 36.6 -109.1 34.9 -110.25 33.4 -111.3 31.65 -112.3 30.1 -113.2 28.3 -114.1 26.8 -114.85 24.95 -115.7 23.9 -116.15 21.8 -117.1 18.4 -118.6 14.85 -119.75 11.55 -120.8 8.1 -121.5 5.0 -122.2 1.8 -122.6 -1.1 -122.95 -4.05 -123.1 -6.65 -123.25 -9.25 -123.2 -11.55 -123.15 -13.8 -123.0 -15.65 -122.85 -17.5 -122.65 -18.75 -122.5 -20.3 -122.3 -22.7 -121.95 -23.85 -121.8 -25.85 -121.45 -27.45 -121.2 -29.35 -120.85 -31.0 -120.45 -32.9 -120.0 -34.6 -119.45 -36.45 -118.9 -38.2 -118.2 -40.0 -117.45 -41.7 -116.55 -43.55 -115.6 -45.2 -114.45 -47.0 -113.3 -48.65 -111.85 -50.2 -110.55 -51.6 -109.05 -52.95 -107.7 -54.15 -106.15 -55.3 -104.75 -56.3 -103.25 -57.25 -101.85 -58.15 -100.35 -58.9 -99.0 -59.65 -97.55 -60.25 -96.3 -60.85 -94.95 -61.35 -93.85 -61.85 -92.65 -62.15 -91.9 -62.65 -90.6 -63.05 -89.6 -63.3 -88.95 -63.65 -87.95 -63.95 -87.05 -64.35 -85.95 -64.65 -84.9 -65.05 -83.65 -65.35 -82.45 -65.65 -81.15 -65.95 -79.8 -66.2 -78.35 -66.4 -76.9 -66.6 -75.35 -66.7 -73.8 -66.8 -72.15 -66.8 -70.5 -66.8 -69.1 -66.7 -67.8 -66.65 -66.65 -66.5 -65.5 -66.35 -64.6 -66.15 -63.45 -66.2 -63.6 -65.8 -61.45 -65.6 -60.25 -65.5 -59.35 -65.3 -58.2 -65.2 -57.05 -65.1 -55.75 -65.05 -54.35 -65.0 -52.8 -65.05 -51.05 -65.1 -49.85 -65.15 -48.55 -65.2 -47.4 -65.35 -46.15 -65.45 -45.05 -65.55 -43.95 -65.65 -42.95 -65.8 -41.95 -65.9 -41.1 -66.05 -40.25 -66.15 -39.55 -66.25 -38.9 -66.35 -38.4 -66.4 -37.9 -66.45 -37.65 -66.5 -37.4 -66.8 -35.85 -67.35 -33.65 -68.95 -26.75 -70.65 -19.0 -71.7 -14.15 -72.5 -11.2 -73.15 -8.75 -73.8 -6.7 -74.3 -5.0 -75.0 -3.0 -75.0 -2.95 -76.3 0.75 -77.2 3.2 -77.9 5.4 -79.0 8.75 -80.05 12.15 -81.0 15.35 -81.9 18.6 -82.7 21.6 -83.5 24.65 -84.2 27.5 -84.85 30.4 -85.45 33.0 -86.0 35.7 -86.5 38.1 -87.0 40.6 -87.4 42.7 -87.8 45.05 -88.05 46.5 -88.55 49.05 -88.8 50.35 -89.0 51.65 -89.25 53.1 -89.45 54.5 -89.7 56.0 -89.95 57.45 -90.15 59.05 -90.4 60.65 -90.65 62.3 -90.85 64.0 -91.1 65.75 -91.3 67.5 -91.55 69.35 -91.75 71.2 -92.0 73.1 -92.2 75.0 -92.1 79.15 -91.8 83.2 -91.5 87.15 -90.95 90.95 -90.4 94.65 -89.7 98.2 -88.95 101.6 -88.05 104.8 -87.15 107.95 -86.1 110.8 -85.1 113.65 -83.9 116.15 -82.7 118.6 -81.4 120.75 -80.15 122.85 -78.75 124.55 -77.65 125.9 -76.45 127.2 -75.35 128.35 -74.15 129.45 -73.05 130.4 -71.95 131.3 -70.95 132.1 -69.9 132.8 -69.05 133.4 -68.2 133.95 -67.5 134.4 -66.85 134.75 -66.35 135.0 -65.95 135.25 -65.8 135.3 -65.65 135.4 -64.8 135.8 -63.95 136.15 -63.1 136.45 -62.25 136.75 -61.45 137.05 -60.65 137.25 -59.9 137.45 -59.1 137.65 -58.4 137.8 -57.7 137.95 -57.0 138.1 -56.35 138.2 -55.7 138.25 -55.1 138.35 -54.55 138.4 -54.0 138.45 -54.75 137.2 -55.5 136.0 -56.3 134.65 -57.05 133.3 -57.8 131.85 -58.55 130.4 -59.35 128.9 -60.1 127.35 -60.85 125.7 -61.55 124.05 -62.3 122.3 -63.0 120.55 -63.7 118.75 -64.35 116.9 -65.05 114.95 -65.65 113.0 -65.9 112.25 -66.1 111.5 -66.4 110.45 -66.7 109.35 -67.05 107.95 -67.4 106.5 -67.8 104.85 -68.15 103.1 -68.55 101.15 -68.9 99.2 -69.25 97.0 -69.55 94.8 -69.85 92.35 -70.05 89.9 -70.3 87.3 -70.4 84.7 -70.45 83.3 -70.5 81.9 -70.5 80.6 -70.5 79.25 -70.5 78.0 -70.45 76.85 -70.45 75.7 -70.4 74.65 -70.35 73.65 -70.25 72.85 -70.2 72.0 -70.1 71.45 -70.0 70.85 -69.9 70.55 -69.8 70.2 -69.7 70.2 L-69.7 70.2" fill="#0091be" fill-rule="evenodd" stroke="none"/>
    <path d="M-77.5 128.65 Q-77.9 128.45 -78.25 128.3 -78.65 128.1 -79.1 127.9 -79.5 127.65 -79.95 127.4 -80.4 127.15 -80.85 126.9 -81.3 126.65 -81.8 126.35 -82.3 126.05 -82.75 125.7 -83.25 125.4 -83.75 125.05 -84.3 124.65 -84.8 124.3 -85.7 123.6 -86.6 122.85 -87.4 122.15 -88.2 121.45 -88.9 120.75 -89.6 120.05 -90.25 119.4 -90.85 118.7 -91.4 118.05 -91.9 117.4 -92.35 116.85 -92.8 116.25 -93.2 115.75 -93.6 115.2 -93.85 114.85 -94.2 114.3 -94.95 113.25 -95.6 112.2 -96.25 111.2 -96.8 110.15 -97.35 109.2 -97.85 108.2 -98.3 107.3 -98.75 106.4 -99.1 105.55 -99.45 104.65 -99.75 103.9 -100.05 103.1 -100.3 102.45 -100.55 101.75 -100.75 101.25 -100.95 100.55 -101.25 99.65 -101.55 98.7 -101.8 97.85 -102.0 97.0 -102.2 96.15 -102.4 95.35 -102.6 94.55 -102.75 93.8 -102.9 93.05 -103.05 92.3 -103.15 91.65 -103.25 90.9 -103.35 90.3 -103.45 89.6 -103.55 89.15 -103.65 88.35 -103.8 87.4 -103.9 86.45 -104.0 85.55 -104.1 84.65 -104.15 83.8 -104.25 82.95 -104.3 82.2 -104.35 81.4 -104.4 80.7 -104.4 80.0 -104.45 79.35 -104.45 78.7 -104.45 78.15 -104.5 77.6 -104.5 77.1 -104.5 76.65 -104.5 75.15 -104.45 73.7 -104.4 72.3 -104.3 70.95 -104.2 69.65 -104.05 68.35 -103.95 67.1 -103.75 65.9 -103.6 64.75 -103.45 63.6 -103.3 62.6 -103.1 61.5 -102.9 60.55 -102.7 59.5 -102.55 58.75 -102.35 57.65 -101.9 55.5 -99.5 46.25 -96.4 34.2 -93.75 25.25 -91.25 16.7 -90.1 13.3 -87.45 5.65 -82.75 -5.25 -81.6 -7.85 -80.55 -10.1 -79.45 -12.4 -77.9 -15.9 -77.5 -16.75 -76.95 -18.05 -76.3 -19.6 -76.1 -20.05 -75.65 -21.1 -75.3 -21.85 -74.85 -22.8 -74.5 -23.6 -74.1 -24.5 -73.7 -25.25 -73.3 -26.15 -72.85 -26.95 -72.4 -27.8 -71.95 -28.65 -71.45 -29.55 -70.95 -30.45 -70.75 -30.8 -70.55 -31.15 -70.35 -31.45 -70.15 -31.75 -69.95 -32.05 -69.8 -32.35 -69.6 -32.65 -69.4 -32.95 -69.25 -33.2 -69.1 -33.45 -68.95 -33.7 -68.8 -33.95 -68.65 -34.15 -68.5 -34.35 -68.4 -34.55 -68.25 -34.75 -68.2 -34.8 -68.15 -34.85 -68.1 -34.9 -68.05 -34.95 -68.0 -35.0 -67.95 -35.05 -67.95 -35.05 -67.9 -35.1 -67.85 -35.1 -67.85 -35.1 -67.8 -35.1 -67.8 -35.1 -67.75 -35.15 -67.75 -35.1 -67.75 -35.1 -67.7 -35.1 -67.6 -35.05 -67.55 -34.75 -67.55 -34.45 -67.65 -33.95 -67.7 -33.45 -67.85 -32.8 -68.0 -32.15 -68.2 -31.4 -68.35 -30.65 -68.6 -29.8 -68.85 -29.0 -69.1 -28.1 -69.35 -27.3 -69.6 -26.45 -69.85 -25.65 -70.1 -24.95 -70.6 -23.35 -72.85 -17.6 -76.4 -8.4 -77.5 -5.7 -78.4 -3.6 -79.2 -1.75 -80.2 0.55 -80.3 0.7 -80.85 2.0 -81.5 3.7 -81.8 4.5 -82.1 5.25 -82.4 6.0 -82.65 6.75 -82.9 7.4 -83.15 8.1 -83.35 8.7 -83.55 9.3 -83.75 9.85 -83.95 10.35 -84.1 10.85 -84.25 11.3 -84.35 11.65 -84.5 12.0 -84.55 12.25 -84.65 12.55 -84.95 13.5 -87.95 24.1 -88.95 27.6 -89.6 29.85 -90.05 31.35 -90.4 32.65 -90.7 33.85 -91.0 35.05 -91.3 36.15 -91.55 37.25 -91.8 38.3 -92.05 39.35 -92.25 40.25 -92.45 41.2 -92.65 42.05 -92.85 42.85 -93.0 43.6 -93.1 44.3 -93.25 44.9 -93.35 45.45 -93.45 45.9 -93.55 46.4 -93.75 47.5 -93.95 48.65 -94.15 49.7 -94.3 50.7 -94.45 51.7 -94.6 52.65 -94.75 53.5 -94.85 54.35 -95.0 55.1 -95.1 55.8 -95.15 56.45 -95.25 57.05 -95.3 57.5 -95.35 58.0 -95.4 58.3 -95.45 58.65 -95.55 59.55 -95.6 60.1 -95.7 61.0 -95.8 61.75 -95.9 62.65 -96.0 63.5 -96.05 64.45 -96.15 65.4 -96.2 66.45 -96.3 67.45 -96.35 68.55 -96.4 69.65 -96.45 70.8 -96.5 72.0 -96.5 73.25 -96.5 74.5 -96.5 75.25 -96.5 75.75 -96.5 76.4 -96.5 76.95 -96.5 77.6 -96.5 78.15 -96.5 78.8 -96.45 79.35 -96.45 80.0 -96.4 80.55 -96.35 81.2 -96.3 81.85 -96.25 82.5 -96.15 83.15 -96.1 83.8 -96.0 84.55 -95.9 85.2 -95.8 85.8 -95.7 86.4 -95.6 87.0 -95.45 87.6 -95.35 88.15 -95.25 88.7 -95.1 89.2 -95.0 89.75 -94.85 90.25 -94.75 90.75 -94.6 91.25 -94.5 91.7 -94.35 92.2 -94.25 92.6 -94.05 93.2 -93.8 94.15 -93.5 95.05 -93.25 95.95 -93.0 96.8 -92.7 97.6 -92.45 98.45 -92.2 99.2 -91.9 99.95 -91.65 100.65 -91.4 101.35 -91.15 102.0 -90.85 102.65 -90.65 103.2 -90.4 103.85 -90.2 104.3 -89.95 105.0 -86.95 111.8 -84.9 115.85 -84.55 116.55 -84.2 117.2 -83.8 117.95 -83.4 118.65 -83.0 119.4 -82.6 120.15 -82.15 120.95 -81.7 121.75 -81.2 122.55 -80.75 123.4 -80.25 124.25 -79.75 125.1 -79.2 125.95 -78.65 126.85 -78.1 127.75 -77.5 128.65 L-77.5 128.65" fill="#0091be" fill-rule="evenodd" stroke="none"/>
    <path d="M72.85 61.4 Q73.05 61.15 73.2 60.95 73.4 60.7 73.6 60.45 73.8 60.15 74.0 59.9 74.2 59.6 74.4 59.3 74.6 59.0 74.85 58.7 75.05 58.4 75.3 58.1 75.5 57.75 75.75 57.4 75.95 57.05 76.2 56.7 76.4 56.4 76.55 56.2 76.75 55.9 76.9 55.6 77.15 55.25 77.35 54.9 77.6 54.5 77.85 54.1 78.1 53.65 78.35 53.25 78.6 52.75 78.85 52.25 79.15 51.75 79.4 51.25 79.7 50.65 80.0 50.1 80.4 49.25 80.6 48.85 80.95 48.15 81.15 47.65 81.45 47.0 81.7 46.45 82.0 45.8 82.2 45.25 82.45 44.6 82.65 44.0 82.85 43.35 83.05 42.7 83.25 42.05 83.4 41.35 83.55 40.65 83.65 39.9 83.7 39.65 83.75 39.4 83.8 39.05 83.85 38.7 83.9 38.25 83.9 37.85 83.95 37.35 84.0 36.85 84.0 36.3 84.0 35.75 84.05 35.1 84.0 34.5 84.0 33.8 83.95 33.15 83.9 32.45 83.8 31.75 83.6 29.9 82.2 24.8 80.7 19.45 79.5 16.75 79.15 15.9 76.95 11.8 71.45 1.4 70.5 -0.2 69.8 -1.4 69.2 -2.25 68.1 -4.0 68.45 -3.5 68.0 -4.2 67.35 -5.25 65.55 -8.4 62.6 -14.55 57.3 -25.7 56.15 -28.95 53.75 -35.55 53.75 -35.9 53.75 -35.85 53.75 -36.15 53.7 -36.3 53.7 -36.45 53.65 -36.65 53.65 -36.85 53.6 -37.05 53.55 -37.25 53.5 -37.5 53.4 -37.7 53.35 -37.95 53.25 -38.2 53.1 -38.4 53.0 -38.65 52.85 -38.9 52.65 -39.1 52.6 -39.15 52.55 -39.25 52.45 -39.3 52.4 -39.4 52.3 -39.5 52.2 -39.6 52.1 -39.7 51.95 -39.8 51.85 -39.9 51.7 -40.0 51.55 -40.05 51.35 -40.15 51.2 -40.2 51.0 -40.25 50.8 -40.3 50.6 -40.3 50.55 -40.3 50.45 -40.3 50.35 -40.3 50.3 -40.3 50.2 -40.3 50.15 -40.3 50.05 -40.3 49.95 -40.3 49.9 -40.3 49.8 -40.25 49.75 -40.25 49.7 -40.25 49.6 -40.2 49.55 -40.2 49.5 -40.15 49.45 -40.1 49.1 -39.85 49.0 -39.2 48.9 -38.55 49.0 -37.55 49.15 -36.6 49.45 -35.35 49.7 -34.2 50.15 -32.8 50.5 -31.6 51.0 -30.2 51.4 -29.0 51.9 -27.65 52.3 -26.6 52.75 -25.45 53.0 -24.8 53.45 -23.8 53.7 -23.1 54.4 -21.35 55.55 -18.5 56.1 -17.15 57.5 -13.6 57.9 -12.45 61.55 -3.2 62.35 -1.35 62.9 -0.15 63.65 1.45 64.45 3.15 64.85 4.0 65.55 5.55 66.3 7.35 67.35 9.95 67.85 11.5 68.5 13.75 69.2 18.5 70.0 23.75 70.15 25.15 70.25 26.25 70.3 26.65 70.35 27.5 70.4 28.05 70.45 28.8 70.45 29.4 70.5 30.05 70.5 30.65 70.5 31.25 70.5 31.85 70.45 32.45 70.4 33.0 70.35 33.65 70.25 34.2 70.15 34.85 70.05 35.45 69.95 35.8 69.9 36.1 69.8 36.45 69.7 36.8 69.6 37.15 69.45 37.5 69.35 37.9 69.2 38.3 69.05 38.7 68.9 39.05 68.75 39.5 68.55 39.9 68.35 40.3 68.15 40.7 67.9 41.15 67.7 41.6 67.8 42.05 67.9 42.5 67.95 42.95 68.05 43.45 68.15 43.9 68.25 44.35 68.35 44.8 68.45 45.3 68.55 45.75 68.7 46.25 68.8 46.7 68.9 47.2 69.0 47.65 69.15 48.15 69.25 48.6 69.35 49.1 69.55 49.9 69.75 50.7 69.95 51.5 70.2 52.3 70.4 53.1 70.6 53.9 70.8 54.65 71.05 55.45 71.25 56.2 71.5 56.95 71.7 57.7 71.9 58.45 72.15 59.2 72.4 59.95 72.6 60.65 72.85 61.4 L72.85 61.4" fill="#0091be" fill-rule="evenodd" stroke="none"/>
  </g>
</svg>
