<?xml version="1.0" encoding="UTF-8" standalone="no"?>
<svg xmlns:xlink="http://www.w3.org/1999/xlink" height="164.3px" width="156.65px" xmlns="http://www.w3.org/2000/svg">
  <g transform="matrix(1.0, 0.0, 0.0, 1.0, 78.35, 82.15)">
    <path d="M67.45 -13.2 Q67.4 -12.55 67.35 -11.85 67.3 -11.1 67.3 -10.35 67.3 -9.5 67.3 -8.65 67.35 -7.7 67.45 -6.8 67.55 -5.8 67.7 -4.8 67.9 -3.75 68.1 -2.7 68.4 -1.6 68.7 -0.55 69.1 0.6 69.5 1.7 69.8 2.5 70.2 3.25 70.55 4.0 70.9 4.7 71.25 5.35 71.65 6.0 72.0 6.55 72.35 7.1 72.7 7.65 73.0 8.1 73.3 8.55 73.65 8.95 73.9 9.3 74.15 9.6 74.35 9.85 74.6 10.1 75.1 10.65 75.6 11.2 76.1 11.75 76.6 12.25 77.1 12.75 77.65 13.25 78.2 13.7 78.8 14.2 79.35 14.65 79.95 15.15 80.5 15.55 81.2 16.05 81.75 16.5 82.5 17.05 82.95 17.35 83.9 18.05 84.2 18.25 84.5 18.5 84.8 18.7 85.1 18.9 85.35 19.1 85.65 19.25 85.9 19.45 86.15 19.65 86.4 19.8 86.65 19.95 86.85 20.1 87.1 20.25 87.3 20.4 87.5 20.55 87.7 20.65 87.9 20.8 87.85 20.45 87.75 20.1 87.65 19.7 87.55 19.3 87.45 18.85 87.35 18.45 87.2 17.95 87.1 17.5 86.95 17.0 86.8 16.5 86.6 16.0 86.45 15.45 86.25 14.9 86.05 14.35 85.85 13.8 85.6 13.2 85.2 12.2 84.8 11.3 84.4 10.5 84.0 9.7 83.6 9.0 83.15 8.25 82.75 7.65 82.25 6.9 81.9 6.4 81.3 5.5 80.5 4.35 80.25 3.95 79.6 3.0 79.05 2.15 78.35 1.1 77.7 0.0 76.75 -1.55 75.8 -3.2 75.0 -4.55 74.2 -6.1 73.65 -7.15 72.85 -8.7 71.9 -10.45 71.7 -10.9 71.1 -12.0 70.7 -12.65 70.25 -13.45 69.9 -13.95 69.5 -14.45 69.15 -14.65 68.8 -14.9 68.5 -14.8 68.4 -14.8 68.3 -14.7 68.2 -14.65 68.1 -14.6 68.05 -14.5 67.95 -14.4 67.9 -14.3 67.8 -14.2 67.75 -14.1 67.7 -13.95 67.65 -13.85 67.6 -13.7 67.55 -13.6 67.5 -13.45 67.5 -13.35 67.45 -13.2 L67.45 -13.2" fill="#3aff77" fill-rule="evenodd" stroke="none"/>
    <path d="M53.8 96.75 Q53.9 96.5 53.95 96.3 54.05 96.1 54.1 95.95 54.2 95.75 54.25 95.6 54.35 95.45 54.4 95.3 54.5 95.2 54.55 95.1 54.65 94.95 54.75 94.9 54.85 94.8 54.95 94.75 55.05 94.7 55.15 94.65 55.3 94.6 55.5 94.65 55.7 94.65 55.85 94.7 56.05 94.8 56.25 94.9 56.4 95.0 56.6 95.15 56.75 95.3 56.9 95.45 57.05 95.6 57.2 95.75 57.35 95.9 57.45 96.1 57.6 96.25 57.7 96.4 57.85 96.65 58.0 96.9 58.1 97.15 58.15 97.35 58.25 97.6 58.3 97.85 58.35 98.0 58.4 98.3 58.45 98.7 58.45 98.8 58.5 99.15 58.6 99.4 58.65 99.75 58.75 100.1 58.9 100.45 59.05 100.85 59.1 101.0 59.15 101.1 59.2 101.2 59.25 101.35 59.35 101.45 59.4 101.6 59.45 101.75 59.55 101.9 59.6 102.05 59.7 102.2 59.8 102.35 59.9 102.5 60.0 102.65 60.1 102.85 60.2 103.0 60.35 103.15 60.6 103.5 60.9 103.8 61.15 104.1 61.4 104.3 61.6 104.5 61.85 104.75 62.0 104.8 62.3 105.05 62.55 105.25 62.65 105.35 62.85 105.5 62.95 105.65 63.1 105.8 63.2 106.0 63.3 106.15 63.3 106.4 63.35 106.6 63.35 106.8 63.35 107.0 63.3 107.2 63.3 107.4 63.2 107.6 63.15 107.8 63.05 107.95 62.95 108.15 62.85 108.35 62.7 108.5 62.55 108.65 62.45 108.8 62.25 108.95 62.1 109.05 61.95 109.15 61.75 109.25 61.55 109.3 61.35 109.35 61.1 109.3 60.85 109.3 60.6 109.25 60.35 109.2 60.05 109.1 59.75 109.0 59.4 108.85 59.05 108.7 58.65 108.5 58.3 108.35 57.85 108.1 57.55 108.0 56.9 107.65 56.55 107.5 56.4 107.4 56.1 107.25 55.95 107.15 55.7 107.05 55.55 106.95 55.35 106.85 55.2 106.75 55.05 106.7 54.9 106.6 54.75 106.5 54.65 106.4 54.55 106.3 54.45 106.25 54.35 106.15 54.25 106.05 54.0 105.75 53.75 105.4 53.55 105.1 53.4 104.75 53.25 104.4 53.15 104.05 53.05 103.7 53.0 103.35 52.95 103.0 52.9 102.65 52.85 102.35 52.85 101.95 52.85 101.7 52.85 101.35 52.85 101.15 52.85 100.75 52.85 100.45 52.9 100.1 52.9 99.8 52.95 99.55 53.0 99.25 53.05 99.0 53.1 98.75 53.2 98.5 53.25 98.25 53.3 98.0 53.4 97.8 53.45 97.55 53.55 97.4 53.65 97.15 53.7 97.0 53.8 96.75 L53.8 96.75" fill="#3aff77" fill-rule="evenodd" stroke="none"/>
  </g>
</svg>
