<?xml version="1.0" encoding="UTF-8" standalone="no"?>
<svg xmlns:xlink="http://www.w3.org/1999/xlink" height="67.7px" width="107.8px" xmlns="http://www.w3.org/2000/svg">
  <g transform="matrix(1.0, 0.0, 0.0, 1.0, 53.9, 33.85)">
    <path d="M-21.3 -5.5 Q-21.35 -5.5 -21.35 -5.5 -21.4 -5.5 -21.3 -5.5 L-21.3 -5.5 -21.3 -5.5" fill="#000000" fill-rule="evenodd" stroke="none"/>
    <path d="M-21.2 -5.5 Q-21.25 -5.5 -21.25 -5.5 -21.3 -5.5 -21.3 -5.5 -21.3 -5.5 -21.3 -5.5 -21.25 -5.55 -21.2 -5.55 -21.2 -5.55 -21.2 -5.5 L-21.2 -5.5" fill="#000000" fill-rule="evenodd" stroke="none"/>
    <path d="M42.0 -48.65 Q41.95 -49.95 41.9 -50.6 41.85 -51.65 41.8 -52.45 41.75 -53.45 41.65 -54.3 41.55 -55.2 41.4 -56.05 41.25 -57.0 41.05 -57.85 40.85 -58.75 40.55 -59.6 40.25 -60.5 39.9 -61.4 39.5 -62.3 39.05 -63.25 38.7 -63.95 38.5 -64.25 38.2 -64.85 37.9 -65.3 37.55 -65.9 37.2 -66.4 36.8 -67.0 36.4 -67.55 35.95 -68.1 35.45 -68.6 34.9 -69.15 34.35 -69.6 33.7 -70.15 33.05 -70.55 32.3 -71.0 31.55 -71.35 31.25 -71.5 31.05 -71.55 30.65 -71.7 30.3 -71.85 29.8 -72.05 29.35 -72.15 28.8 -72.35 28.25 -72.45 27.6 -72.6 27.0 -72.65 26.3 -72.7 25.65 -72.65 24.95 -72.65 24.25 -72.5 23.55 -72.35 22.9 -72.1 22.55 -71.95 22.2 -71.75 21.85 -71.55 21.5 -71.25 21.1 -70.95 20.75 -70.6 20.35 -70.15 20.0 -69.6 19.6 -69.05 19.2 -68.35 18.8 -67.55 18.4 -66.65 17.95 -65.7 17.55 -64.5 17.1 -63.3 16.6 -61.9 16.1 -60.35 15.75 -58.9 15.4 -57.6 15.1 -56.3 14.85 -55.15 14.65 -53.9 14.45 -52.9 14.25 -51.65 14.5 -53.15 13.95 -49.45 13.75 -48.15 13.6 -47.15 13.35 -45.9 13.1 -44.75 12.85 -43.4 12.5 -42.1 12.35 -41.5 12.2 -40.9 12.0 -40.25 11.8 -39.6 11.6 -38.9 11.4 -38.2 11.15 -37.45 10.85 -36.65 10.6 -35.85 10.3 -35.05 9.95 -34.2 9.6 -33.35 9.25 -32.45 8.85 -31.55 8.4 -30.6 7.95 -29.65 L7.95 -29.65 7.95 -29.65 7.95 -29.65 Q7.5 -29.15 7.05 -28.6 5.25 -28.05 3.2 -27.55 1.1 -27.0 -6.9 -25.3 -7.65 -25.15 -8.4 -24.95 -9.2 -24.8 -10.0 -24.6 -10.9 -24.4 -11.75 -24.15 -12.75 -23.9 -13.7 -23.65 -14.7 -23.4 -15.7 -23.1 -16.8 -22.8 -17.9 -22.45 -19.0 -22.15 -20.15 -21.75 -21.35 -21.4 -22.55 -21.0 -22.6 -21.0 -22.8 -21.0 -22.95 -21.0 -23.0 -21.0 -23.15 -21.0 -23.35 -21.0 -23.5 -20.95 -23.65 -20.95 -23.8 -20.9 -23.95 -20.85 -24.05 -20.8 -24.2 -20.75 -24.3 -20.7 -24.4 -20.65 -24.5 -20.55 -24.6 -20.5 -24.7 -20.45 -24.75 -20.4 -24.85 -20.35 -24.9 -20.3 -25.1 -20.9 -25.25 -21.5 -25.5 -22.3 -25.8 -23.05 -26.1 -24.0 -26.45 -24.95 -26.85 -26.05 -27.25 -27.1 -27.7 -28.25 -28.15 -29.4 -28.65 -30.65 -29.2 -31.8 -29.8 -33.1 -30.4 -34.25 -31.0 -35.55 -31.7 -36.7 -31.7 -36.7 -31.8 -36.85 -31.9 -37.05 -32.05 -37.25 -32.25 -37.6 -32.45 -37.9 -32.75 -38.35 -33.05 -38.75 -33.4 -39.25 -33.8 -39.75 -34.2 -40.3 -34.65 -40.85 -35.15 -41.45 -35.7 -42.0 -36.25 -42.65 -36.85 -43.2 -37.0 -43.35 -37.1 -43.45 -37.3 -43.6 -37.45 -43.75 -37.6 -43.9 -37.8 -44.05 -38.05 -44.25 -38.25 -44.4 -38.5 -44.6 -38.75 -44.8 -39.05 -44.95 -39.3 -45.15 -39.65 -45.3 -39.95 -45.5 -40.3 -45.65 -40.65 -45.8 -40.65 -45.8 -40.8 -45.85 -41.35 -46.1 -41.9 -46.25 -42.4 -46.4 -43.0 -46.5 -43.5 -46.6 -44.0 -46.65 -44.5 -46.7 -45.0 -46.75 -45.45 -46.75 -45.9 -46.75 -46.3 -46.7 -46.7 -46.7 -47.05 -46.65 -47.35 -46.6 -47.65 -46.55 -47.9 -46.5 -49.15 -46.2 -50.3 -45.5 -51.4 -44.8 -52.45 -43.7 -53.45 -42.65 -54.3 -41.25 -55.15 -39.95 -55.85 -38.35 -56.55 -36.8 -57.05 -35.1 -57.6 -33.4 -57.95 -31.65 -58.25 -29.85 -58.4 -28.15 -58.55 -26.35 -58.5 -24.7 -58.45 -23.95 -58.4 -23.15 -58.3 -22.4 -58.2 -21.6 -58.1 -20.85 -57.95 -20.1 -57.85 -19.45 -57.7 -18.8 -57.6 -18.2 -57.45 -17.65 -57.35 -17.2 -57.25 -16.75 -57.2 -16.45 -57.1 -16.2 -57.1 -16.1 -57.05 -16.0 -57.0 -15.55 -56.9 -15.15 -56.85 -14.75 -56.75 -14.35 -56.7 -13.95 -56.6 -13.55 -56.55 -13.2 -56.45 -12.85 -56.35 -12.5 -56.3 -12.2 -56.2 -11.9 -56.15 -11.55 -56.1 -11.3 -56.0 -11.0 -55.95 -10.75 -55.85 -10.5 -55.65 -9.7 -55.3 -8.55 -54.85 -6.95 -54.5 -5.75 -53.95 -3.75 -53.55 -2.15 -52.9 0.2 -52.15 3.5 -52.35 3.95 -52.45 4.35 -52.6 4.8 -52.75 5.15 -52.85 5.5 -52.95 5.8 -53.05 6.1 -53.1 6.4 -53.2 6.7 -53.25 7.0 -53.3 7.25 -53.35 7.5 -53.4 7.8 -53.45 8.05 -53.5 8.3 -53.55 8.6 L-54.0 8.55 Q-54.15 9.35 -54.25 10.05 -54.3 10.7 -54.4 11.3 -54.45 11.85 -54.45 12.35 -54.5 12.75 -54.5 13.2 -54.55 13.4 -54.55 13.9 -54.55 14.3 -54.55 14.5 -54.6 14.8 -54.6 15.05 -54.65 15.35 -54.7 15.6 -54.75 15.8 -54.8 15.95 -54.8 16.15 -54.85 16.3 -54.9 16.45 -54.95 16.6 -55.0 16.75 -55.05 16.9 -55.1 17.0 -55.15 17.15 -55.2 17.25 -55.25 17.35 -55.3 17.4 -55.35 17.5 -55.4 17.65 -55.4 17.65 -56.3 19.55 -56.75 20.5 -57.45 21.95 -57.9 23.05 -58.5 24.35 -58.95 25.35 -59.4 26.5 -59.75 27.5 -60.15 28.55 -60.45 29.5 -60.7 30.5 -60.9 31.4 -61.1 32.35 -61.2 33.25 -61.3 34.15 -61.25 35.1 -61.25 35.45 -61.25 35.8 -61.2 36.2 -61.2 36.6 -61.15 37.05 -61.1 37.5 -61.0 37.95 -60.9 38.45 -60.8 38.95 -60.65 39.45 -60.55 40.0 -60.35 40.55 -60.15 41.1 -59.95 41.7 -59.7 42.3 -59.4 42.9 -58.9 41.25 -58.45 39.8 -57.95 38.45 -57.55 37.2 -57.1 36.05 -56.7 35.05 -56.3 34.1 -55.95 33.3 -55.6 32.55 -55.25 31.9 -54.95 31.3 -54.6 30.85 -54.35 30.4 -54.05 30.05 -53.8 29.75 -53.55 29.5 -53.45 29.4 -53.4 29.35 -53.25 29.25 -53.15 29.15 -53.0 29.0 -52.85 28.85 -52.7 28.65 -52.55 28.45 -52.4 28.25 -52.25 28.05 -52.05 27.75 -51.95 27.5 -51.75 27.2 -51.65 26.95 -51.5 26.6 -51.45 26.3 -51.4 26.15 -51.35 26.0 -51.35 25.85 -51.3 25.7 -51.3 25.55 -51.25 25.4 -51.25 25.25 -51.25 25.1 -51.25 25.0 -51.25 24.85 -51.25 24.75 -51.25 24.6 -51.25 24.5 -51.25 24.4 -51.25 24.3 -51.25 24.2 -48.2 20.6 -41.9 13.2 -41.85 12.65 -41.8 12.1 -41.75 11.55 -41.7 10.95 -41.65 10.35 -41.6 9.75 -41.55 9.1 -41.5 8.45 -41.5 7.8 -41.5 7.1 -41.45 6.4 -41.45 5.7 -41.45 5.0 -41.45 4.25 -41.5 3.5 -41.5 2.75 -41.5 2.35 -41.55 2.0 -41.55 1.55 -41.6 1.05 -41.65 0.5 -41.7 -0.1 -41.75 -0.75 -41.85 -1.4 -41.95 -2.2 -42.05 -2.95 -42.15 -3.75 -42.25 -4.6 -42.4 -5.5 -42.6 -6.4 -42.75 -7.4 -42.95 -8.35 -43.15 -9.35 -43.45 -10.45 -43.65 -11.3 -43.95 -12.45 -43.8 -12.0 -44.45 -14.35 -44.75 -15.5 -44.95 -16.3 -45.2 -17.35 -45.4 -18.25 -45.65 -19.3 -45.8 -20.3 -46.0 -21.4 -46.15 -22.45 -46.35 -23.65 -46.45 -24.8 -46.5 -25.35 -46.5 -25.3 -46.5 -25.6 -46.5 -25.85 -46.55 -26.2 -46.5 -26.55 -46.5 -26.95 -46.45 -27.3 -46.4 -27.7 -46.35 -28.05 -46.25 -28.5 -46.1 -28.85 -45.95 -29.3 -45.75 -29.65 -45.5 -30.05 -45.25 -30.4 -45.05 -30.6 -45.1 -30.55 -45.0 -30.7 -44.9 -30.8 -44.75 -30.9 -44.65 -31.05 -44.45 -31.2 -44.3 -31.3 -44.1 -31.45 -43.9 -31.6 -43.7 -31.7 -43.45 -31.8 -43.2 -31.9 -42.95 -32.0 -42.7 -32.05 -42.4 -32.1 -42.2 -32.1 -42.0 -32.1 -41.8 -32.1 -41.6 -32.05 -41.4 -32.05 -41.2 -32.0 -41.05 -31.95 -40.9 -31.9 -40.75 -31.85 -40.6 -31.75 -40.45 -31.7 -40.3 -31.65 -40.2 -31.55 -40.1 -31.5 -40.0 -31.45 -39.9 -31.4 -39.3 -31.05 -38.65 -30.35 -38.0 -29.75 -37.35 -28.85 -36.8 -28.05 -36.2 -27.05 -35.65 -26.2 -35.1 -25.15 -34.65 -24.3 -34.15 -23.35 -33.8 -22.55 -33.4 -21.7 -33.15 -21.1 -32.9 -20.55 -32.75 -20.2 -32.65 -19.9 -32.3 -19.2 -32.0 -18.45 -31.7 -17.75 -31.45 -17.1 -31.2 -16.45 -30.95 -15.8 -30.75 -15.15 -30.55 -14.55 -30.35 -14.0 -30.2 -13.4 -30.0 -12.9 -29.9 -12.35 -29.75 -11.85 -29.65 -11.4 -29.5 -10.95 -29.4 -10.5 -28.9 -8.2 -28.2 -3.75 -27.9 -1.7 -27.65 0.1 -27.1 -0.6 -26.55 -1.2 -26.05 -1.85 -25.5 -2.4 -25.0 -2.95 -24.45 -3.5 -23.95 -4.0 -23.45 -4.45 -22.95 -4.9 -22.45 -5.3 -22.0 -5.7 -21.5 -6.05 -21.05 -6.4 -20.65 -6.7 -20.2 -7.0 -19.8 -7.3 -18.5 -8.15 -12.15 -11.5 -6.95 -14.2 -5.15 -14.95 -4.4 -15.25 -3.5 -15.55 -2.2 -16.0 -1.9 -16.1 -0.85 -16.5 0.4 -17.0 0.9 -17.2 1.3 -17.35 1.7 -17.55 2.05 -17.7 2.3 -17.8 2.6 -17.9 2.8 -18.0 3.05 -18.15 3.35 -18.25 3.45 -18.3 3.7 -18.4 3.85 -18.5 4.05 -18.55 4.25 -18.65 4.5 -18.75 4.75 -18.85 5.35 -19.05 5.9 -19.25 6.4 -19.4 6.9 -19.5 7.4 -19.65 7.85 -19.75 8.3 -19.8 8.8 -19.9 9.15 -19.95 9.65 -20.0 9.4 -20.0 10.55 -20.15 11.1 -20.2 11.5 -20.25 12.0 -20.35 12.5 -20.45 12.65 -20.5 12.85 -20.5 13.0 -20.55 13.2 -20.6 13.35 -20.6 13.55 -20.65 13.7 -20.7 13.9 -20.75 14.1 -20.8 14.3 -20.85 14.5 -20.9 14.7 -20.95 14.9 -21.0 15.1 -21.05 15.35 -21.1 15.55 -21.15 15.6 -21.15 16.5 -21.45 16.5 -21.5 16.45 -21.6 16.45 -21.65 16.4 -21.75 16.4 -21.8 16.4 -21.85 16.35 -21.95 16.35 -22.0 16.3 -22.05 16.3 -22.1 16.25 -22.2 16.25 -22.25 16.2 -22.3 16.2 -22.35 16.15 -22.45 16.1 -22.5 16.55 -22.7 17.15 -23.0 17.75 -23.65 18.3 -24.35 18.85 -25.0 19.35 -25.65 19.8 -26.25 20.2 -26.9 20.55 -27.5 20.9 -28.1 21.2 -28.65 21.5 -29.25 21.75 -29.75 22.0 -30.3 22.2 -30.75 22.35 -31.25 22.55 -31.7 22.65 -32.15 22.8 -32.6 22.95 -33.1 23.05 -33.55 23.15 -34.05 23.25 -34.55 23.35 -35.1 23.45 -35.65 23.55 -36.25 23.6 -36.85 23.7 -37.55 23.75 -38.2 23.8 -39.0 23.9 -39.7 23.95 -40.6 24.0 -41.2 24.1 -42.45 24.2 -43.35 24.25 -44.2 24.3 -44.9 24.35 -45.6 24.35 -46.1 24.4 -46.7 24.4 -47.45 24.45 -47.6 24.45 -48.05 24.5 -48.4 24.5 -48.75 24.55 -49.1 24.6 -49.45 24.65 -49.85 24.75 -50.2 24.85 -50.65 24.95 -51.15 25.05 -51.55 25.2 -52.2 25.35 -52.8 25.55 -53.5 25.8 -54.15 26.05 -54.95 26.3 -55.6 26.6 -56.35 26.9 -56.95 27.3 -57.6 27.65 -58.1 28.05 -58.65 28.5 -58.95 28.95 -59.25 29.45 -59.3 30.0 -59.35 30.65 -59.1 31.3 -58.85 31.95 -58.25 32.65 -57.7 33.3 -56.85 33.95 -56.05 34.6 -55.0 35.2 -54.0 35.75 -52.85 36.3 -51.65 36.75 -50.4 37.2 -49.05 37.5 -47.75 37.8 -46.4 37.9 -45.05 38.05 -43.25 37.85 -41.4 37.7 -39.7 37.2 -38.0 36.75 -36.45 36.05 -34.9 35.45 -33.55 34.65 -32.15 33.9 -30.95 33.05 -29.8 32.3 -28.75 31.45 -27.8 30.8 -27.0 30.05 -26.25 29.55 -25.75 29.0 -25.2 30.85 -25.45 34.6 -25.9 35.0 -26.3 35.35 -26.7 35.8 -27.15 36.2 -27.65 36.65 -28.2 37.05 -28.75 37.5 -29.35 37.95 -29.95 38.4 -30.65 38.8 -31.35 39.25 -32.1 39.65 -32.85 40.05 -33.65 40.4 -34.5 40.75 -35.4 41.05 -36.3 41.3 -37.05 41.5 -37.8 41.65 -38.55 41.8 -39.25 41.95 -40.0 42.0 -40.7 42.1 -41.4 42.1 -42.15 42.15 -42.85 42.15 -43.65 42.15 -44.35 42.15 -45.2 42.15 -45.9 42.1 -46.85 42.1 -47.3 42.0 -48.65 L42.0 -48.65 M-23.1 -7.8 Q-23.15 -7.8 -23.15 -7.8 -23.15 -7.8 -23.1 -7.8 -23.1 -7.8 -23.1 -7.8 -23.05 -7.8 -23.05 -7.85 -23.05 -7.85 -23.0 -7.85 -23.0 -7.85 -23.0 -7.8 -23.05 -7.8 -23.1 -7.8 L-23.1 -7.8" fill="#000000" fill-rule="evenodd" stroke="none"/>
    <path d="M-21.3 -5.5 Q-21.35 -5.5 -21.35 -5.5 -21.4 -5.5 -21.3 -5.5 L-21.3 -5.5 -21.3 -5.5" fill="#000000" fill-rule="evenodd" stroke="none"/>
    <path d="M-21.2 -5.5 Q-21.25 -5.5 -21.25 -5.5 -21.3 -5.5 -21.3 -5.5 -21.3 -5.5 -21.3 -5.5 -21.25 -5.55 -21.2 -5.55 -21.2 -5.55 -21.2 -5.5 L-21.2 -5.5" fill="#000000" fill-rule="evenodd" stroke="none"/>
  </g>
</svg>
