<?xml version="1.0" encoding="UTF-8" standalone="no"?>
<svg xmlns:xlink="http://www.w3.org/1999/xlink" height="155.65px" width="154.2px" xmlns="http://www.w3.org/2000/svg">
  <g transform="matrix(1.0, 0.0, 0.0, 1.0, 77.1, 77.85)">
    <path d="M55.25 -41.15 Q55.65 -40.6 56.15 -40.2 56.6 -39.8 57.15 -39.5 57.65 -39.2 58.25 -39.05 58.8 -38.9 59.35 -38.9 59.95 -38.9 60.55 -39.0 61.2 -39.1 61.8 -39.35 62.4 -39.6 63.0 -40.0 63.65 -40.35 64.25 -40.85 64.5 -40.6 64.65 -40.45 64.8 -40.25 64.9 -40.05 65.0 -39.9 65.05 -39.75 65.1 -39.6 65.1 -39.45 65.1 -39.3 65.0 -39.2 64.95 -39.05 64.8 -38.9 64.65 -38.75 64.45 -38.6 64.25 -38.45 64.0 -38.3 63.45 -37.95 62.8 -37.65 62.2 -37.4 61.55 -37.25 60.95 -37.1 60.3 -37.05 59.65 -37.0 59.0 -37.1 58.35 -37.15 57.7 -37.35 57.1 -37.5 56.5 -37.8 55.9 -38.05 55.35 -38.45 54.8 -38.85 54.35 -39.3 54.2 -39.45 53.6 -40.1 53.05 -39.9 51.9 -39.45 52.3 -38.6 52.9 -37.9 53.5 -37.2 54.3 -36.65 55.05 -36.15 56.0 -35.85 56.9 -35.5 57.9 -35.4 58.9 -35.25 59.95 -35.3 61.0 -35.4 62.05 -35.65 63.15 -35.9 64.2 -36.4 65.3 -36.85 66.3 -37.55 66.35 -37.45 66.4 -37.3 66.5 -37.2 66.6 -37.05 66.7 -36.85 66.75 -36.8 66.85 -36.65 66.9 -36.55 66.95 -36.4 67.0 -36.3 67.0 -36.15 67.0 -36.0 67.0 -35.85 66.95 -35.7 66.9 -35.5 66.75 -35.35 67.95 -34.3 68.05 -34.2 68.1 -34.15 68.1 -34.1 68.15 -34.05 68.15 -34.0 68.2 -33.95 68.2 -33.9 68.25 -33.85 68.25 -33.8 68.25 -33.75 68.25 -33.7 68.25 -33.65 68.25 -33.6 68.25 -33.55 68.25 -33.5 68.25 -33.45 68.25 -33.4 68.25 -33.35 68.2 -33.35 68.2 -33.3 68.15 -33.3 68.1 -33.25 68.05 -33.25 68.0 -33.25 67.95 -33.2 67.85 -33.2 67.8 -33.2 67.75 -33.2 67.7 -33.2 67.65 -33.2 67.6 -33.2 67.55 -33.2 67.5 -33.2 67.15 -33.3 64.7 -34.25 64.55 -34.15 64.35 -34.1 64.15 -34.0 63.95 -34.0 63.75 -33.95 63.5 -33.95 63.3 -33.95 63.05 -33.95 62.85 -33.95 62.55 -34.0 62.35 -34.0 62.05 -34.05 61.65 -34.1 61.55 -34.1 61.25 -34.15 61.05 -34.15 60.9 -34.15 60.7 -34.15 60.55 -34.15 60.35 -34.15 60.2 -34.15 60.0 -34.15 59.85 -34.15 59.65 -34.1 59.5 -34.1 59.3 -34.05 59.15 -34.0 59.0 -34.0 58.8 -33.95 58.65 -33.9 58.5 -33.85 58.3 -33.8 58.1 -33.75 57.9 -33.7 57.65 -33.7 57.45 -33.65 57.25 -33.65 57.05 -33.65 56.85 -33.65 56.7 -33.65 56.5 -33.7 56.3 -33.75 56.1 -33.75 55.9 -33.85 55.7 -33.9 55.55 -34.0 55.35 -34.1 55.15 -34.2 55.05 -34.25 55.0 -34.3 54.9 -34.35 54.85 -34.35 54.75 -34.35 54.7 -34.35 54.65 -34.4 54.55 -34.35 54.5 -34.35 54.45 -34.3 54.35 -34.3 54.3 -34.25 54.25 -34.2 54.15 -34.1 54.1 -34.05 54.05 -34.0 53.95 -33.9 53.9 -33.8 53.8 -33.7 53.7 -33.6 53.6 -33.55 53.5 -33.45 53.4 -33.35 53.3 -33.25 53.25 -33.2 53.15 -33.1 53.05 -33.05 52.95 -32.95 52.85 -32.85 52.7 -32.8 52.6 -32.75 52.5 -32.65 52.1 -32.35 51.7 -32.15 51.3 -31.95 50.9 -31.85 50.55 -31.7 50.15 -31.65 49.8 -31.6 49.45 -31.65 49.05 -31.65 48.7 -31.75 48.35 -31.85 47.95 -32.05 47.6 -32.2 47.25 -32.45 46.85 -32.7 46.45 -33.0 46.4 -33.05 46.3 -33.1 46.25 -33.15 46.15 -33.2 46.1 -33.25 46.0 -33.3 45.9 -33.35 45.85 -33.4 45.75 -33.45 45.65 -33.45 45.6 -33.5 45.5 -33.55 45.4 -33.55 45.3 -33.6 45.2 -33.6 45.15 -33.65 42.65 -34.3 41.9 -34.35 41.7 -34.35 41.45 -34.4 41.25 -34.4 41.05 -34.4 40.85 -34.4 40.6 -34.4 40.4 -34.35 40.15 -34.35 40.0 -34.35 39.7 -34.35 39.35 -34.3 39.25 -34.3 39.0 -34.3 38.85 -34.25 38.6 -34.25 38.4 -34.25 37.6 -34.25 35.8 -34.2 34.1 -34.2 33.2 -34.2 32.3 -34.15 30.75 -34.1 29.0 -34.0 28.3 -33.95 28.8 -34.4 29.95 -35.45 29.45 -35.9 28.8 -36.45 28.6 -36.35 28.35 -36.25 28.15 -36.2 27.9 -36.1 27.45 -35.9 27.45 -35.9 27.25 -35.8 27.05 -35.75 26.8 -35.65 26.6 -35.6 26.4 -35.5 26.2 -35.45 26.0 -35.35 25.8 -35.3 25.55 -35.25 25.35 -35.2 25.1 -35.15 24.9 -35.15 24.65 -35.15 24.45 -35.2 24.2 -35.25 24.0 -35.35 23.8 -35.4 23.6 -35.5 23.4 -35.65 23.2 -35.75 23.05 -35.9 22.85 -36.05 22.65 -36.2 22.5 -36.35 22.35 -36.5 22.15 -36.7 21.65 -36.3 20.6 -35.35 21.8 -34.55 23.95 -33.2 23.6 -33.0 23.35 -32.85 23.05 -32.7 22.8 -32.6 22.5 -32.55 22.25 -32.5 22.0 -32.5 21.75 -32.6 21.5 -32.65 21.2 -32.8 20.9 -32.95 20.6 -33.15 20.3 -33.4 19.9 -33.7 19.55 -34.0 19.05 -34.45 18.55 -34.25 17.3 -33.7 18.0 -32.9 19.4 -31.4 19.1 -31.3 18.85 -31.25 18.55 -31.2 18.3 -31.2 18.0 -31.15 17.75 -31.15 17.45 -31.15 17.2 -31.15 16.95 -31.15 16.65 -31.2 16.4 -31.25 16.15 -31.3 15.85 -31.4 15.6 -31.45 15.35 -31.55 15.1 -31.7 15.15 -31.75 15.15 -31.8 15.2 -31.85 15.25 -31.9 15.25 -31.95 15.3 -32.05 15.35 -32.1 15.4 -32.15 15.4 -32.2 15.45 -32.25 15.45 -32.3 15.5 -32.35 15.5 -32.4 15.5 -32.4 15.55 -32.45 15.55 -32.5 15.55 -32.55 15.5 -32.6 15.5 -32.65 15.45 -32.75 15.45 -32.8 15.4 -32.85 15.35 -32.95 15.35 -33.0 15.3 -33.05 15.25 -33.1 15.2 -33.15 15.15 -33.2 15.15 -33.2 15.1 -33.25 15.05 -33.25 15.05 -33.25 14.85 -33.2 14.65 -33.2 14.5 -33.2 14.25 -33.2 14.15 -33.2 13.85 -33.25 13.6 -33.25 13.5 -33.25 13.25 -33.3 13.1 -33.25 12.85 -33.25 12.7 -33.25 12.5 -33.2 12.3 -33.1 12.1 -33.0 11.9 -32.9 11.85 -32.85 11.75 -32.8 11.65 -32.8 11.55 -32.8 11.45 -32.8 11.35 -32.8 11.25 -32.8 11.1 -32.85 11.0 -32.85 10.85 -32.9 16.7 -31.65 10.55 -32.95 10.4 -32.95 10.3 -33.0 10.15 -33.0 10.05 -33.05 10.15 -33.3 10.25 -33.8 10.15 -33.85 9.65 -34.05 9.3 -34.2 9.05 -34.25 9.0 -34.25 8.95 -34.3 8.9 -34.3 8.85 -34.3 8.8 -34.3 8.75 -34.3 8.7 -34.3 8.65 -34.35 8.6 -34.35 8.6 -34.35 8.55 -34.35 8.5 -34.3 8.45 -34.3 8.45 -34.3 8.4 -34.3 8.4 -34.25 8.3 -34.05 8.2 -33.95 8.05 -33.8 7.95 -33.7 7.8 -33.65 7.65 -33.6 7.5 -33.55 7.35 -33.5 7.2 -33.5 7.05 -33.5 6.9 -33.5 6.75 -33.55 6.6 -33.55 6.4 -33.6 6.2 -33.65 6.1 -33.65 5.25 -33.75 5.1 -33.75 5.75 -34.35 7.0 -35.45 6.45 -35.9 5.6 -36.65 5.1 -36.25 4.65 -36.0 4.2 -35.7 3.75 -35.5 3.35 -35.35 2.95 -35.25 2.55 -35.15 2.2 -35.15 1.85 -35.15 1.45 -35.25 1.1 -35.35 0.75 -35.55 0.35 -35.75 -0.05 -36.0 -0.4 -36.3 -0.8 -36.7 -1.25 -36.3 -2.2 -35.5 -1.9 -35.15 -1.35 -34.5 -5.65 -34.1 -7.0 -33.95 -8.1 -33.8 -9.85 -33.6 -12.3 -33.3 -12.7 -33.25 -12.7 -33.35 -12.8 -33.5 -12.85 -33.6 -12.95 -33.75 -13.1 -33.85 -13.25 -33.95 -13.35 -34.05 -13.5 -34.15 -13.7 -34.25 -13.85 -34.3 -14.0 -34.35 -14.15 -34.35 -14.3 -34.4 -14.4 -34.35 -14.5 -34.35 -14.55 -34.25 -14.75 -34.05 -14.9 -33.9 -15.1 -33.7 -15.3 -33.55 -15.5 -33.4 -15.75 -33.25 -15.95 -33.15 -16.15 -33.0 -16.35 -32.9 -16.6 -32.75 -16.8 -32.65 -17.05 -32.55 -17.2 -32.5 -17.55 -32.35 -17.85 -32.2 -18.0 -32.1 -18.35 -31.95 -18.65 -31.8 -19.0 -31.7 -19.3 -31.6 -19.6 -31.55 -19.95 -31.5 -20.25 -31.45 -20.55 -31.4 -20.85 -31.4 -21.2 -31.4 -21.5 -31.45 -21.8 -31.5 -22.1 -31.55 -22.4 -31.65 -22.7 -31.7 -23.0 -31.85 -23.25 -31.95 -23.5 -32.1 -23.75 -32.2 -24.05 -32.35 -24.25 -32.45 -24.55 -32.65 -24.75 -32.75 -25.05 -32.95 -25.25 -33.05 -25.5 -33.25 -25.3 -33.1 -26.0 -33.55 -26.3 -33.75 -26.5 -33.9 -26.75 -34.05 -26.95 -34.2 -26.95 -34.3 -26.9 -34.5 -27.5 -34.2 -28.75 -33.5 -32.3 -33.8 -40.0 -34.4 -39.7 -34.7 -39.0 -35.5 -39.5 -35.9 -40.35 -36.65 -40.85 -36.25 -41.3 -36.0 -41.75 -35.7 -42.15 -35.5 -42.55 -35.35 -42.95 -35.25 -43.35 -35.15 -43.7 -35.15 -44.1 -35.15 -44.45 -35.25 -44.8 -35.35 -45.2 -35.55 -45.55 -35.75 -45.95 -36.0 -46.35 -36.3 -46.75 -36.7 -47.0 -36.45 -48.15 -35.45 -47.6 -34.95 -46.45 -33.85 -46.65 -33.85 -46.9 -33.85 -47.1 -33.85 -47.35 -33.8 -47.1 -33.85 -47.8 -33.7 -48.05 -33.65 -48.25 -33.65 -48.45 -33.6 -48.65 -33.65 -48.85 -33.65 -49.05 -33.75 -49.25 -33.85 -49.4 -34.0 -49.6 -34.2 -49.75 -34.5 -50.35 -34.25 -51.55 -33.75 -51.1 -33.2 -50.3 -32.15 -50.6 -31.85 -50.95 -31.65 -51.3 -31.4 -51.65 -31.2 -52.05 -31.05 -52.45 -30.95 -52.85 -30.8 -53.3 -30.75 -53.7 -30.7 -54.15 -30.7 -54.6 -30.75 -55.0 -30.8 -55.45 -30.9 -55.85 -31.05 -56.25 -31.15 -56.65 -31.4 -57.0 -31.6 -57.0 -31.6 -57.2 -31.7 -57.4 -31.8 -57.55 -31.9 -57.7 -32.0 -57.9 -32.15 -58.05 -32.3 -58.2 -32.4 -58.3 -32.6 -58.45 -32.75 -58.55 -32.95 -58.65 -33.15 -58.7 -33.35 -58.75 -33.6 -58.75 -33.85 -59.2 -34.0 -60.3 -34.45 -60.45 -34.2 -60.65 -34.05 -60.8 -33.85 -61.0 -33.8 -61.15 -33.7 -61.35 -33.7 -61.55 -33.65 -61.8 -33.7 -61.95 -33.7 -62.2 -33.75 -62.55 -33.8 -62.65 -33.8 -62.9 -33.85 -63.1 -33.85 -63.4 -33.85 -63.6 -33.85 -62.9 -34.45 -61.85 -35.35 -62.45 -35.9 -63.35 -36.7 -63.8 -36.3 -64.2 -36.0 -64.65 -35.7 -65.0 -35.5 -65.4 -35.35 -65.8 -35.25 -66.15 -35.15 -66.55 -35.15 -66.9 -35.15 -67.3 -35.2 -67.65 -35.3 -68.05 -35.5 -68.45 -35.7 -68.85 -36.0 -69.3 -36.3 -69.75 -36.65 -70.05 -36.4 -70.7 -35.9 -70.75 -35.9 -70.8 -35.95 -70.8 -35.95 -70.85 -36.0 -69.05 -39.25 -68.2 -40.65 -68.2 -40.7 -68.15 -40.7 -68.1 -40.75 -68.05 -40.75 -68.0 -40.75 -67.95 -40.8 -67.9 -40.8 -67.85 -40.8 -67.75 -40.8 -67.7 -40.8 -67.65 -40.8 -67.55 -40.85 -67.5 -40.85 -67.4 -40.85 -67.35 -40.8 -67.3 -40.8 -66.6 -40.75 -65.95 -40.8 -65.3 -40.85 -64.7 -40.95 -64.05 -41.1 -63.5 -41.25 -62.9 -41.45 -62.35 -41.7 -61.8 -42.0 -61.3 -42.3 -60.8 -42.65 -60.3 -43.05 -59.85 -43.5 -59.4 -43.95 -58.95 -44.45 -58.55 -45.0 -59.15 -45.25 -60.3 -45.75 -60.65 -45.35 -60.95 -45.05 -61.3 -44.7 -61.65 -44.4 -62.05 -44.1 -62.4 -43.85 -62.8 -43.65 -63.2 -43.45 -63.65 -43.25 -64.05 -43.1 -64.5 -42.95 -64.95 -42.85 -65.45 -42.75 -65.95 -42.7 -66.45 -42.7 -67.0 -42.7 -67.0 -42.75 -66.8 -43.05 -66.7 -43.25 -66.65 -43.4 -66.55 -43.6 -66.45 -43.7 -66.35 -43.9 -66.25 -44.0 -66.15 -44.15 -66.0 -44.25 -65.85 -44.4 -65.7 -44.5 -65.55 -44.6 -65.4 -44.65 -65.2 -44.75 -64.95 -44.8 -64.75 -44.85 -64.55 -44.95 -64.35 -45.0 -64.15 -45.1 -64.0 -45.2 -63.75 -45.3 -63.6 -45.4 -63.4 -45.55 -63.2 -45.65 -63.0 -45.8 -62.3 -46.25 -62.6 -46.05 -62.35 -46.2 -62.15 -46.3 -61.95 -46.45 -61.7 -46.55 -62.45 -47.2 -63.65 -48.2 -63.3 -48.65 -62.5 -49.85 -62.0 -49.35 -61.5 -48.9 -61.0 -48.45 -60.5 -48.1 -59.95 -47.75 -59.4 -47.45 -58.85 -47.15 -58.25 -46.95 -57.7 -46.75 -57.1 -46.65 -56.5 -46.5 -55.85 -46.45 -55.2 -46.4 -54.55 -46.45 -53.9 -46.5 -53.25 -46.6 -52.75 -46.7 -52.3 -46.8 -51.85 -46.95 -51.4 -47.1 -50.95 -47.3 -50.55 -47.5 -50.15 -47.7 -49.75 -47.95 -49.35 -48.25 -49.0 -48.55 -48.65 -48.8 -48.3 -49.15 -47.95 -49.5 -47.65 -49.85 -47.35 -50.25 -47.05 -50.65 -47.85 -50.95 -47.85 -51.0 -48.0 -51.1 -48.1 -51.15 -48.25 -51.2 -48.35 -51.2 -48.45 -51.25 -48.55 -51.25 -48.65 -51.25 -48.75 -51.2 -48.85 -51.2 -48.95 -51.15 -49.05 -51.1 -49.15 -51.0 -49.25 -50.95 -49.35 -50.85 -49.45 -50.75 -49.55 -50.65 -50.15 -50.0 -50.9 -49.55 -51.6 -49.1 -52.4 -48.8 -53.2 -48.5 -54.0 -48.4 -54.85 -48.3 -55.65 -48.35 -56.5 -48.45 -57.3 -48.7 -58.1 -48.95 -58.85 -49.35 -59.55 -49.75 -60.2 -50.35 -60.85 -50.95 -61.35 -51.7 -56.9 -56.4 -55.9 -57.4 -55.85 -57.45 -55.8 -57.5 -55.75 -57.55 -55.65 -57.55 -55.6 -57.6 -55.5 -57.6 -55.45 -57.65 -55.35 -57.65 -55.25 -57.65 -55.15 -57.7 -55.1 -57.7 -55.0 -57.7 -54.9 -57.7 -54.85 -57.7 -54.75 -57.7 -54.65 -57.75 -54.05 -57.8 -53.5 -57.85 -52.9 -57.95 -52.4 -58.1 -51.85 -58.25 -51.35 -58.45 -50.85 -58.65 -50.35 -58.9 -49.9 -59.15 -49.45 -59.5 -49.0 -59.8 -48.6 -60.2 -48.2 -60.55 -47.8 -61.0 -47.4 -61.45 -47.05 -61.95 -47.7 -62.2 -48.85 -62.65 -49.05 -62.4 -49.25 -62.2 -49.5 -61.95 -49.7 -61.75 -49.95 -61.5 -50.2 -61.35 -50.45 -61.15 -50.7 -60.95 -50.95 -60.8 -51.25 -60.65 -51.5 -60.5 -51.8 -60.4 -52.1 -60.3 -52.45 -60.2 -52.75 -60.1 -53.1 -60.05 -52.7 -60.35 -50.75 -61.85 -49.35 -62.95 -48.45 -63.7 -48.35 -63.8 -48.25 -63.85 -48.15 -63.9 -48.05 -63.95 -47.95 -64.0 -47.85 -64.0 -47.75 -64.05 -47.65 -64.05 -47.55 -64.05 -47.45 -64.05 -47.35 -64.05 -47.25 -64.05 -47.1 -64.0 -47.0 -64.0 -46.9 -63.95 -46.75 -63.9 -46.0 -63.65 -45.2 -63.5 -44.4 -63.35 -43.6 -63.35 -42.8 -63.35 -42.05 -63.45 -41.25 -63.6 -40.5 -63.85 -39.75 -64.1 -39.1 -64.45 -38.4 -64.8 -37.75 -65.3 -37.15 -65.75 -36.6 -66.35 -36.05 -66.9 -35.65 -67.6 -35.85 -67.7 -35.95 -67.75 -36.1 -67.85 -36.3 -67.95 -36.45 -68.0 -36.6 -68.05 -36.75 -68.1 -36.9 -68.1 -37.05 -68.1 -37.15 -68.05 -37.3 -68.05 -37.45 -68.0 -37.6 -67.95 -37.75 -67.85 -37.9 -67.75 -38.05 -67.65 -38.2 -67.5 -38.35 -67.35 -38.7 -67.0 -39.1 -66.7 -39.5 -66.4 -39.9 -66.15 -40.3 -65.9 -40.75 -65.75 -41.2 -65.55 -41.65 -65.45 -42.1 -65.35 -42.55 -65.3 -43.0 -65.25 -43.5 -65.25 -44.0 -65.25 -44.5 -65.3 -45.0 -65.35 -45.5 -65.5 -45.55 -65.55 -45.65 -65.75 -45.5 -65.85 -45.3 -65.95 -45.15 -66.0 -44.95 -66.1 -44.65 -66.3 -44.6 -66.3 -44.4 -66.4 -44.25 -66.5 -44.05 -66.6 -43.9 -66.65 -43.7 -66.75 -43.5 -66.85 -43.35 -66.9 -43.15 -67.0 -42.95 -67.05 -42.8 -67.1 -42.55 -67.15 -42.3 -67.25 -42.05 -67.3 -41.85 -67.4 -41.6 -67.45 -41.4 -67.55 -41.15 -67.65 -40.95 -67.75 -40.75 -67.85 -40.55 -67.95 -40.35 -68.1 -40.15 -68.2 -39.95 -68.35 -39.75 -68.5 -39.6 -68.7 -39.4 -68.85 -39.35 -68.9 -39.3 -68.95 -39.3 -69.0 -39.25 -69.1 -39.2 -69.15 -39.15 -69.25 -39.1 -69.4 -39.1 -69.35 -39.05 -69.45 -39.05 -69.5 -39.0 -69.55 -38.95 -69.6 -38.9 -69.7 -38.9 -69.7 -38.85 -69.8 -38.8 -69.8 -38.65 -69.9 -38.5 -70.0 -38.35 -70.1 -38.2 -70.15 -38.05 -70.2 -37.9 -70.25 -37.75 -70.3 -37.55 -70.3 -37.4 -70.3 -37.25 -70.3 -37.1 -70.25 -36.9 -70.25 -36.75 -70.2 -36.55 -70.1 -36.4 -70.05 -36.2 -69.95 -35.4 -69.55 -34.6 -69.3 -33.75 -69.1 -32.9 -69.0 -32.05 -68.95 -31.2 -69.0 -30.35 -69.1 -29.55 -69.3 -28.75 -69.55 -27.95 -69.9 -27.2 -70.25 -26.5 -70.75 -25.8 -71.25 -25.2 -71.85 -24.6 -72.5 -24.15 -73.2 -24.2 -73.2 -24.25 -73.25 -24.3 -73.25 -24.35 -73.3 -24.4 -73.3 -24.45 -73.35 -24.55 -73.35 -24.55 -73.4 -24.6 -73.4 -24.65 -73.4 -24.7 -73.45 -24.75 -73.45 -24.8 -73.5 -24.85 -73.5 -24.9 -73.55 -24.95 -73.55 -25.05 -73.65 -25.2 -73.7 -25.3 -73.75 -25.4 -73.8 -25.5 -73.8 -25.6 -73.8 -25.7 -73.8 -25.8 -73.8 -25.9 -73.75 -25.95 -73.7 -26.05 -73.7 -26.15 -73.6 -26.25 -73.55 -26.35 -73.45 -26.45 -73.35 -26.55 -73.25 -26.95 -72.8 -27.4 -72.45 -27.85 -72.1 -28.4 -71.8 -28.9 -71.55 -29.45 -71.35 -30.0 -71.15 -30.55 -71.05 -31.1 -70.95 -31.7 -70.9 -32.25 -70.9 -32.85 -70.95 -33.45 -71.0 -34.0 -71.2 -34.6 -71.35 -35.1 -71.6 -31.95 -72.65 -31.65 -72.7 -31.3 -72.8 -31.05 -72.85 -30.7 -72.9 -30.45 -73.0 -30.1 -73.1 -29.85 -73.2 -29.55 -73.3 -29.3 -73.45 -29.05 -73.6 -28.8 -73.75 -28.55 -73.9 -28.35 -74.1 -28.1 -74.35 -27.9 -74.55 -27.7 -74.85 -27.55 -75.15 -27.5 -75.25 -27.4 -75.35 -27.3 -75.45 -27.15 -75.5 -27.0 -75.6 -26.8 -75.65 -26.65 -75.7 -26.45 -75.75 -26.3 -75.8 -26.1 -75.85 -25.95 -75.85 -25.75 -75.85 -25.6 -75.85 -25.45 -75.85 -25.3 -75.8 -25.2 -75.75 -24.35 -75.35 -23.55 -75.15 -22.75 -74.9 -22.0 -74.75 -21.2 -74.65 -20.45 -74.65 -19.7 -74.65 -19.0 -74.8 -18.25 -74.9 -17.55 -75.15 -16.85 -75.4 -16.15 -75.8 -15.45 -76.15 -14.75 -76.65 -14.05 -77.15 -13.35 -77.75 -13.1 -78.0 -12.8 -78.2 -12.5 -78.4 -12.15 -78.55 -11.85 -78.7 -11.5 -78.8 -11.15 -78.9 -10.8 -78.95 -10.4 -79.05 -10.05 -79.05 -9.65 -79.1 -9.3 -79.05 -8.9 -79.05 -8.5 -79.0 -8.15 -78.95 -7.75 -78.85 -7.45 -78.8 -6.8 -78.75 -6.15 -78.7 -5.9 -78.65 -5.85 -78.65 -5.8 -78.6 -5.75 -78.6 -5.7 -78.6 -5.65 -78.55 -5.6 -78.55 -5.55 -78.5 -5.5 -78.5 -5.45 -78.45 -5.4 -78.45 -5.35 -78.4 -5.3 -78.35 -5.25 -78.35 -5.25 -78.3 -5.2 -78.25 -5.15 -78.2 -4.35 -77.35 -3.5 -76.65 -2.6 -76.0 -1.7 -75.55 -0.75 -75.1 0.25 -74.85 1.2 -74.6 2.2 -74.6 3.2 -74.6 4.2 -74.8 5.2 -75.0 6.15 -75.4 7.1 -75.85 7.95 -76.5 8.9 -77.15 9.7 -78.0 9.85 -78.15 10.0 -78.25 10.1 -78.3 10.25 -78.35 10.4 -78.4 10.55 -78.4 10.65 -78.4 10.8 -78.4 10.95 -78.4 11.1 -78.35 11.35 -78.3 11.4 -78.3 11.55 -78.25 11.65 -78.25 11.8 -78.25 11.95 -78.25 12.05 -77.9 12.2 -77.65 12.3 -77.4 12.45 -77.2 12.65 -77.0 12.8 -76.85 13.0 -76.7 13.2 -76.65 13.4 -76.55 13.65 -76.55 13.9 -76.55 14.2 -76.6 14.45 -76.65 14.75 -76.8 15.05 -76.95 15.4 -77.1 15.8 -76.7 16.6 -75.85 16.3 -75.55 15.95 -75.3 15.6 -75.05 15.25 -74.9 14.9 -74.75 14.55 -74.7 14.2 -74.65 13.8 -74.65 13.45 -74.65 13.05 -74.75 12.65 -74.9 12.25 -75.05 11.85 -75.25 11.45 -75.55 11.05 -75.8 10.65 -76.15 10.2 -75.8 9.35 -75.05 9.7 -74.5 10.2 -74.1 10.65 -73.7 11.25 -73.4 11.8 -73.1 12.45 -72.95 13.05 -72.75 13.7 -72.75 14.35 -72.7 15.0 -72.8 15.65 -72.9 16.2 -73.15 16.8 -73.4 17.3 -73.75 17.8 -74.15 18.15 -74.65 18.2 -74.7 18.2 -74.75 18.25 -74.8 18.25 -74.9 18.3 -74.95 18.3 -75.05 18.65 -76.2 18.35 -75.2 18.35 -75.25 18.4 -75.3 18.4 -75.4 18.45 -75.45 18.45 -75.5 18.5 -75.55 18.55 -75.6 18.6 -75.65 18.75 -75.75 18.85 -75.8 19.0 -75.9 19.1 -75.95 19.25 -76.0 19.35 -76.0 19.5 -76.05 19.65 -76.05 19.75 -76.05 19.9 -76.05 20.05 -76.05 20.2 -76.0 20.35 -76.0 20.5 -75.95 20.65 -75.85 20.85 -75.8 21.1 -75.7 21.35 -75.6 21.6 -75.5 21.9 -75.45 22.15 -75.35 22.4 -75.3 22.65 -75.2 22.95 -75.15 23.2 -75.1 23.5 -75.0 23.6 -75.0 24.05 -74.9 24.4 -74.85 24.6 -74.8 24.9 -74.7 25.15 -74.65 25.2 -74.65 25.25 -74.65 25.3 -74.65 25.35 -74.6 25.4 -74.6 25.5 -74.6 25.55 -74.6 25.6 -74.6 25.65 -74.6 25.7 -74.6 25.8 -74.6 25.85 -74.6 25.9 -74.6 25.95 -74.55 26.0 -74.55 26.05 -74.5 29.25 -72.35 30.1 -71.7 30.4 -71.4 30.75 -71.15 31.05 -70.9 31.4 -70.7 31.75 -70.45 32.1 -70.25 32.45 -70.05 32.8 -69.9 33.15 -69.7 33.55 -69.6 33.9 -69.45 34.3 -69.35 34.7 -69.2 35.1 -69.15 35.5 -69.05 35.9 -69.05 36.0 -69.05 36.05 -69.05 36.1 -69.0 36.2 -69.0 36.25 -69.0 36.35 -69.0 36.4 -68.95 36.5 -68.95 36.55 -68.9 36.6 -68.9 36.7 -68.9 36.75 -68.85 36.8 -68.85 36.85 -68.8 36.95 -68.75 37.0 -68.75 38.65 -67.65 42.2 -65.3 45.65 -63.05 47.5 -61.85 47.3 -61.7 47.1 -61.6 46.95 -61.45 46.85 -61.35 46.75 -61.25 46.65 -61.1 46.6 -61.0 46.6 -60.9 46.55 -60.8 46.6 -60.65 46.6 -60.55 46.7 -60.45 46.75 -60.35 46.9 -60.25 47.0 -60.15 47.15 -60.0 47.2 -59.95 47.3 -59.9 47.35 -59.9 47.45 -59.85 47.55 -59.8 47.6 -59.75 47.7 -59.75 47.8 -59.7 47.85 -59.65 47.95 -59.65 48.05 -59.65 48.1 -59.65 48.2 -59.6 48.25 -59.65 48.3 -59.65 48.35 -59.65 48.55 -59.75 48.75 -59.8 48.95 -59.8 49.15 -59.8 49.3 -59.8 49.45 -59.75 49.6 -59.7 49.75 -59.6 49.9 -59.55 50.0 -59.45 50.15 -59.35 50.25 -59.25 50.35 -59.15 50.5 -59.0 50.7 -58.8 50.75 -58.75 50.5 -58.45 50.2 -58.25 49.9 -58.05 49.6 -57.9 49.25 -57.8 48.9 -57.75 48.55 -57.7 48.2 -57.7 47.8 -57.75 47.45 -57.85 47.05 -58.0 46.65 -58.15 46.25 -58.35 45.9 -58.65 45.5 -58.9 45.1 -59.25 44.7 -58.9 43.85 -58.15 44.1 -57.65 44.5 -57.25 44.85 -56.85 45.35 -56.6 45.8 -56.3 46.3 -56.15 46.85 -55.95 47.4 -55.9 48.0 -55.85 48.6 -55.9 49.2 -55.95 49.8 -56.1 50.45 -56.3 51.05 -56.6 51.65 -56.9 52.25 -57.3 52.65 -56.85 53.45 -56.0 52.9 -55.45 52.3 -55.0 51.7 -54.6 51.0 -54.35 50.35 -54.1 49.65 -54.0 48.9 -53.9 48.15 -54.0 47.4 -54.05 46.65 -54.25 45.85 -54.5 45.1 -54.85 44.3 -55.25 43.55 -55.8 42.75 -56.35 42.05 -57.0 41.5 -56.8 40.4 -56.35 40.8 -55.65 41.4 -55.0 42.0 -54.35 42.8 -53.8 43.55 -53.25 44.45 -52.9 45.4 -52.5 46.35 -52.3 47.4 -52.1 48.4 -52.1 49.5 -52.1 50.6 -52.35 51.7 -52.65 52.8 -53.2 53.9 -53.75 54.95 -54.6 55.35 -54.2 56.2 -53.2 55.85 -52.95 55.05 -52.35 57.25 -50.8 57.3 -50.75 57.7 -50.55 57.8 -50.5 58.0 -50.35 58.15 -50.3 58.35 -50.2 58.45 -50.1 58.6 -50.0 58.7 -49.9 58.8 -49.8 58.9 -49.65 59.0 -49.5 59.15 -49.35 59.25 -49.2 59.35 -48.95 59.45 -48.8 59.65 -48.45 59.3 -48.4 59.0 -48.4 58.65 -48.4 58.3 -48.45 57.95 -48.5 57.55 -48.6 57.2 -48.75 56.85 -48.9 56.45 -49.1 56.05 -49.35 55.65 -49.6 55.25 -49.9 54.85 -50.2 54.4 -50.55 54.0 -50.95 53.55 -51.35 53.0 -51.15 51.8 -50.65 52.15 -50.15 52.55 -49.7 52.95 -49.25 53.4 -48.85 53.8 -48.45 54.25 -48.15 54.7 -47.8 55.2 -47.55 55.7 -47.3 56.2 -47.1 56.75 -46.9 57.3 -46.75 57.85 -46.6 58.45 -46.55 59.05 -46.5 59.65 -46.5 59.85 -46.5 60.05 -46.5 60.25 -46.45 60.4 -46.45 60.6 -46.4 60.75 -46.35 60.85 -46.3 61.0 -46.2 61.15 -46.1 61.25 -46.0 61.35 -45.9 61.45 -45.8 61.55 -45.65 61.65 -45.5 61.75 -45.4 61.85 -45.2 62.0 -44.95 62.8 -43.5 63.4 -42.45 63.75 -41.75 63.5 -41.9 63.0 -42.3 62.5 -41.9 62.1 -41.65 61.65 -41.35 61.25 -41.15 60.85 -40.95 60.45 -40.85 60.05 -40.75 59.7 -40.75 59.3 -40.8 58.95 -40.85 58.55 -40.95 58.2 -41.15 57.8 -41.35 57.4 -41.65 57.05 -41.95 56.6 -42.35 56.2 -41.95 55.25 -41.15 L55.25 -41.15 M-28.55 -45.05 Q-27.9 -44.0 -27.0 -43.2 -26.15 -42.4 -25.1 -41.9 -24.05 -41.35 -22.9 -41.1 -21.75 -40.8 -20.55 -40.8 -19.4 -40.8 -18.25 -41.1 -17.1 -41.35 -16.1 -41.85 -15.05 -42.4 -14.2 -43.2 -13.3 -44.0 -12.7 -45.0 -13.05 -45.15 -13.2 -45.25 -13.45 -45.35 -13.6 -45.4 -13.75 -45.5 -13.9 -45.5 -14.05 -45.55 -14.15 -45.5 -14.3 -45.5 -14.45 -45.45 -14.55 -45.4 -14.7 -45.25 -14.85 -45.2 -15.05 -45.0 -15.15 -44.9 -15.45 -44.65 -15.8 -44.35 -16.2 -44.05 -16.6 -43.8 -17.0 -43.6 -17.4 -43.35 -17.8 -43.2 -18.2 -43.05 -18.65 -42.9 -19.05 -42.8 -19.5 -42.75 -19.95 -42.7 -20.4 -42.7 -20.85 -42.7 -21.3 -42.75 -21.8 -42.75 -22.3 -42.85 -22.65 -42.95 -23.0 -43.05 -23.3 -43.15 -23.6 -43.3 -23.95 -43.4 -24.25 -43.55 -24.5 -43.75 -24.8 -43.9 -25.1 -44.1 -25.35 -44.3 -25.6 -44.5 -25.85 -44.75 -26.1 -45.0 -26.35 -45.25 -26.6 -45.5 -26.8 -45.75 -27.4 -45.5 -28.55 -45.05 L-28.55 -45.05 M44.7 -50.6 Q44.5 -50.75 44.3 -50.85 44.15 -51.0 43.95 -51.05 43.8 -51.1 43.65 -51.15 43.45 -51.15 43.3 -51.15 43.15 -51.15 42.95 -51.05 42.8 -51.0 42.65 -50.9 42.5 -50.8 42.3 -50.65 42.15 -50.55 41.95 -50.35 41.6 -50.0 41.25 -49.7 40.85 -49.45 40.5 -49.2 40.1 -49.0 39.7 -48.8 39.25 -48.65 38.85 -48.55 38.4 -48.45 37.95 -48.35 37.55 -48.3 37.05 -48.3 36.6 -48.3 36.15 -48.35 35.65 -48.4 35.15 -48.5 34.8 -48.55 34.45 -48.7 34.15 -48.8 33.8 -48.9 33.5 -49.05 33.2 -49.2 32.9 -49.35 32.65 -49.55 32.35 -49.75 32.1 -49.95 31.85 -50.15 31.55 -50.4 31.3 -50.6 31.1 -50.85 30.85 -51.1 30.6 -51.4 30.0 -51.15 28.9 -50.7 29.5 -49.65 30.35 -48.85 31.2 -48.05 32.25 -47.55 33.3 -47.0 34.45 -46.75 35.55 -46.45 36.75 -46.45 37.9 -46.45 39.05 -46.7 40.2 -46.95 41.25 -47.5 42.3 -48.0 43.2 -48.8 44.1 -49.6 44.7 -50.6 L44.7 -50.6 M5.85 -50.65 Q6.25 -50.1 6.7 -49.6 7.15 -49.15 7.6 -48.7 8.1 -48.3 8.6 -47.95 9.1 -47.65 9.65 -47.35 10.2 -47.1 10.75 -46.9 11.35 -46.75 11.95 -46.6 12.55 -46.5 13.2 -46.45 13.85 -46.45 14.55 -46.45 15.15 -46.5 15.7 -46.6 16.25 -46.7 16.75 -46.85 17.25 -47.0 17.75 -47.2 18.25 -47.4 18.7 -47.7 19.15 -47.95 19.55 -48.25 19.95 -48.55 20.35 -48.95 20.75 -49.3 21.1 -49.7 21.45 -50.1 21.8 -50.6 21.6 -50.75 21.4 -50.85 21.2 -51.0 21.05 -51.05 20.85 -51.1 20.7 -51.15 20.5 -51.15 20.35 -51.15 20.15 -51.15 20.0 -51.05 19.85 -51.0 19.7 -50.9 19.5 -50.8 19.35 -50.65 19.15 -50.55 19.0 -50.35 18.65 -50.0 18.3 -49.7 17.9 -49.45 17.5 -49.2 17.15 -49.0 16.7 -48.8 16.3 -48.65 15.9 -48.55 15.45 -48.45 15.0 -48.35 14.55 -48.3 14.1 -48.3 13.65 -48.3 13.15 -48.35 12.7 -48.4 12.2 -48.5 11.85 -48.55 11.5 -48.7 11.2 -48.8 10.85 -48.9 10.55 -49.05 10.25 -49.2 9.95 -49.35 9.65 -49.55 9.4 -49.75 9.1 -49.95 8.85 -50.15 8.6 -50.4 8.35 -50.6 8.1 -50.85 7.85 -51.1 7.65 -51.4 7.05 -51.15 5.85 -50.65 L5.85 -50.65 M-17.05 -73.25 Q-16.4 -72.2 -15.45 -71.4 -14.6 -70.6 -13.5 -70.1 -12.45 -69.55 -11.3 -69.3 -10.15 -69.0 -8.95 -69.0 -7.8 -69.0 -6.65 -69.3 -5.5 -69.55 -4.5 -70.1 -3.45 -70.6 -2.65 -71.4 -1.8 -72.2 -1.2 -73.25 -1.55 -73.4 -1.7 -73.45 -1.95 -73.55 -2.1 -73.65 -2.3 -73.7 -2.45 -73.7 -2.6 -73.7 -2.7 -73.7 -2.85 -73.7 -2.95 -73.6 -3.1 -73.55 -3.25 -73.45 -3.35 -73.35 -3.55 -73.2 -3.65 -73.1 -4.0 -72.85 -4.35 -72.55 -4.75 -72.25 -5.15 -72.0 -5.55 -71.75 -5.9 -71.55 -6.35 -71.4 -6.75 -71.25 -7.2 -71.1 -7.6 -71.0 -8.05 -70.95 -8.5 -70.9 -8.95 -70.9 -9.4 -70.9 -9.85 -70.95 -10.35 -71.0 -10.8 -71.1 -11.15 -71.15 -11.5 -71.25 -11.8 -71.35 -12.15 -71.5 -12.45 -71.65 -12.75 -71.8 -13.05 -71.95 -13.35 -72.15 -13.6 -72.3 -13.85 -72.55 -14.15 -72.75 -14.4 -72.95 -14.65 -73.2 -14.85 -73.45 -15.1 -73.7 -15.35 -73.95 -15.95 -73.7 -17.05 -73.25 L-17.05 -73.25 M21.75 -73.15 Q21.55 -73.3 21.35 -73.4 21.2 -73.55 21.0 -73.6 20.85 -73.65 20.65 -73.7 20.5 -73.75 20.35 -73.7 20.2 -73.7 20.0 -73.65 19.85 -73.6 19.7 -73.5 19.5 -73.4 19.35 -73.25 19.2 -73.1 19.0 -72.9 18.65 -72.55 18.3 -72.25 17.9 -72.0 17.55 -71.75 17.15 -71.55 16.75 -71.4 16.3 -71.2 15.9 -71.1 15.45 -71.0 15.0 -70.95 14.55 -70.9 14.1 -70.9 13.65 -70.85 13.15 -70.9 12.7 -70.95 12.2 -71.05 11.85 -71.1 11.5 -71.25 11.2 -71.35 10.85 -71.45 10.55 -71.6 10.25 -71.75 9.95 -71.9 9.7 -72.1 9.4 -72.3 9.15 -72.5 8.85 -72.7 8.6 -72.95 8.35 -73.15 8.1 -73.4 7.9 -73.65 7.65 -73.95 7.1 -73.7 5.95 -73.25 6.55 -72.2 7.4 -71.4 8.25 -70.65 9.25 -70.1 10.3 -69.55 11.45 -69.3 12.55 -69.0 13.75 -69.0 14.9 -69.0 16.05 -69.25 17.2 -69.55 18.25 -70.05 19.35 -70.6 20.2 -71.35 21.1 -72.15 21.75 -73.15 L21.75 -73.15 M5.85 -39.4 Q6.25 -38.85 6.65 -38.4 7.1 -37.9 7.55 -37.5 8.05 -37.1 8.5 -36.75 9.0 -36.4 9.55 -36.15 10.05 -35.9 10.65 -35.7 11.2 -35.5 11.8 -35.35 12.4 -35.25 13.05 -35.2 13.65 -35.15 14.35 -35.2 14.95 -35.2 15.5 -35.3 16.05 -35.4 16.6 -35.55 17.15 -35.7 17.65 -35.9 18.1 -36.1 18.6 -36.35 19.05 -36.65 19.5 -36.95 19.95 -37.25 20.35 -37.65 20.75 -38.0 21.1 -38.45 21.5 -38.9 21.85 -39.35 21.45 -39.5 21.3 -39.6 21.05 -39.7 20.9 -39.75 20.7 -39.8 20.55 -39.85 20.4 -39.85 20.25 -39.85 20.15 -39.85 20.0 -39.75 19.85 -39.7 19.7 -39.6 19.6 -39.5 19.4 -39.35 19.25 -39.25 18.95 -38.95 18.6 -38.65 18.2 -38.4 17.85 -38.1 17.45 -37.9 17.05 -37.7 16.65 -37.55 16.25 -37.4 15.8 -37.3 15.4 -37.15 14.95 -37.1 14.5 -37.05 14.05 -37.05 13.6 -37.05 13.15 -37.1 12.7 -37.15 12.2 -37.2 11.85 -37.3 11.5 -37.4 11.2 -37.5 10.85 -37.6 10.55 -37.75 10.25 -37.9 9.95 -38.05 9.7 -38.25 9.4 -38.45 9.15 -38.65 8.85 -38.85 8.6 -39.1 8.35 -39.35 8.1 -39.6 7.9 -39.85 7.65 -40.1 7.05 -39.85 5.85 -39.4 L5.85 -39.4 M-1.2 -50.65 Q-1.55 -50.8 -1.7 -50.9 -1.95 -51.0 -2.1 -51.05 -2.3 -51.15 -2.4 -51.15 -2.55 -51.2 -2.7 -51.15 -2.8 -51.15 -2.95 -51.1 -3.05 -51.0 -3.2 -50.9 -3.35 -50.8 -3.55 -50.65 -3.65 -50.55 -3.95 -50.3 -4.3 -50.0 -4.7 -49.7 -5.1 -49.45 -5.5 -49.2 -5.9 -49.0 -6.3 -48.85 -6.7 -48.65 -7.15 -48.55 -7.55 -48.45 -8.0 -48.4 -8.45 -48.35 -8.9 -48.35 -9.35 -48.3 -9.85 -48.35 -10.3 -48.4 -10.8 -48.5 -11.15 -48.55 -11.5 -48.7 -11.8 -48.8 -12.15 -48.9 -12.45 -49.05 -12.75 -49.2 -13.05 -49.35 -13.3 -49.55 -13.6 -49.75 -13.85 -49.95 -14.15 -50.15 -14.4 -50.4 -14.65 -50.6 -14.85 -50.9 -15.1 -51.15 -15.35 -51.4 -15.95 -51.15 -17.05 -50.7 -16.4 -49.65 -15.5 -48.85 -14.65 -48.05 -13.6 -47.55 -12.55 -47.0 -11.4 -46.75 -10.25 -46.45 -9.1 -46.45 -7.9 -46.45 -6.75 -46.7 -5.6 -47.0 -4.6 -47.5 -3.55 -48.05 -2.7 -48.8 -1.8 -49.65 -1.2 -50.65 L-1.2 -50.65 M-24.15 -50.65 Q-24.5 -50.8 -24.65 -50.9 -24.9 -51.0 -25.05 -51.05 -25.25 -51.1 -25.4 -51.15 -25.55 -51.15 -25.65 -51.15 -25.8 -51.1 -25.95 -51.05 -26.05 -51.0 -26.2 -50.9 -26.35 -50.8 -26.55 -50.65 -26.65 -50.55 -26.95 -50.3 -27.3 -50.0 -27.7 -49.7 -28.1 -49.45 -28.5 -49.2 -28.9 -49.0 -29.3 -48.85 -29.7 -48.65 -30.15 -48.55 -30.55 -48.45 -31.0 -48.4 -31.45 -48.35 -31.9 -48.3 -32.35 -48.3 -32.85 -48.35 -33.3 -48.4 -33.8 -48.5 -34.15 -48.6 -34.5 -48.7 -34.8 -48.8 -35.1 -48.95 -35.45 -49.05 -35.75 -49.2 -36.0 -49.4 -36.3 -49.55 -36.6 -49.75 -36.85 -49.95 -37.1 -50.15 -37.35 -50.4 -37.6 -50.65 -37.85 -50.9 -38.05 -51.15 -38.3 -51.4 -38.95 -51.1 -40.0 -50.65 -39.35 -49.6 -38.45 -48.8 -37.55 -48.05 -36.5 -47.5 -35.45 -47.0 -34.3 -46.7 -33.15 -46.45 -31.95 -46.45 -30.8 -46.45 -29.65 -46.75 -28.5 -47.0 -27.5 -47.5 -26.45 -48.05 -25.6 -48.85 -24.75 -49.65 -24.15 -50.65 L-24.15 -50.65 M-35.65 -56.25 Q-35.85 -56.4 -36.05 -56.5 -36.2 -56.65 -36.4 -56.7 -36.6 -56.75 -36.75 -56.8 -36.9 -56.8 -37.1 -56.8 -37.25 -56.75 -37.4 -56.7 -37.55 -56.65 -37.75 -56.55 -37.9 -56.45 -38.05 -56.3 -38.25 -56.15 -38.4 -56.0 -38.95 -55.5 -39.55 -55.1 -40.15 -54.7 -40.85 -54.45 -41.5 -54.2 -42.2 -54.05 -42.9 -53.9 -43.6 -53.9 -44.3 -53.9 -45.0 -54.05 -45.7 -54.2 -46.35 -54.45 -47.0 -54.7 -47.6 -55.1 -48.2 -55.5 -48.75 -56.05 -48.9 -56.2 -49.1 -56.35 -49.25 -56.45 -49.4 -56.55 -49.55 -56.65 -49.7 -56.7 -49.85 -56.75 -50.0 -56.8 -50.15 -56.8 -50.3 -56.8 -50.45 -56.75 -50.65 -56.7 -50.8 -56.65 -50.95 -56.6 -51.1 -56.5 -51.3 -56.4 -51.35 -56.4 -51.45 -56.3 -50.85 -55.3 -50.0 -54.45 -49.15 -53.7 -48.15 -53.15 -47.1 -52.65 -45.95 -52.35 -44.85 -52.1 -43.65 -52.1 -42.5 -52.1 -41.35 -52.35 -40.2 -52.6 -39.15 -53.15 -38.1 -53.65 -37.2 -54.4 -36.3 -55.25 -35.65 -56.25 L-35.65 -56.25 M-28.6 -67.55 Q-28.2 -67.0 -27.75 -66.5 -27.3 -66.05 -26.8 -65.65 -26.35 -65.2 -25.85 -64.9 -25.35 -64.55 -24.8 -64.3 -24.25 -64.0 -23.7 -63.85 -23.1 -63.65 -22.5 -63.55 -21.9 -63.4 -21.25 -63.4 -20.6 -63.35 -19.95 -63.4 -19.35 -63.45 -18.8 -63.55 -18.25 -63.6 -17.75 -63.75 -17.2 -63.95 -16.75 -64.15 -16.25 -64.35 -15.8 -64.6 -15.35 -64.85 -14.9 -65.2 -14.5 -65.5 -14.1 -65.9 -13.7 -66.25 -13.3 -66.65 -12.95 -67.1 -12.6 -67.55 -13.0 -67.7 -13.15 -67.8 -13.4 -67.9 -13.55 -67.95 -13.75 -68.0 -13.9 -68.05 -14.05 -68.05 -14.2 -68.05 -14.3 -68.05 -14.45 -68.0 -14.6 -67.9 -14.75 -67.8 -14.85 -67.7 -15.05 -67.55 -15.2 -67.45 -15.5 -67.2 -16.05 -66.7 -16.7 -66.3 -17.35 -65.95 -18.05 -65.7 -18.7 -65.45 -19.45 -65.35 -20.15 -65.2 -20.85 -65.25 -21.55 -65.25 -22.3 -65.45 -23.0 -65.6 -23.65 -65.85 -24.35 -66.15 -24.95 -66.55 -25.55 -67.0 -26.1 -67.55 -26.15 -67.6 -26.8 -68.3 -27.45 -68.05 -28.3 -67.7 -28.35 -67.7 -28.6 -67.55 L-28.6 -67.55 M10.3 -67.6 Q9.95 -67.75 9.8 -67.85 9.55 -67.95 9.4 -68.0 9.2 -68.05 9.05 -68.05 8.9 -68.1 8.8 -68.05 8.65 -68.05 8.5 -68.0 8.4 -67.95 8.25 -67.8 8.1 -67.7 7.9 -67.55 7.8 -67.45 7.5 -67.2 7.15 -66.9 6.75 -66.6 6.35 -66.35 5.95 -66.15 5.55 -65.9 5.15 -65.75 4.75 -65.6 4.3 -65.5 3.9 -65.35 3.45 -65.3 3.0 -65.25 2.55 -65.25 2.1 -65.25 1.65 -65.3 1.15 -65.35 0.65 -65.45 0.3 -65.5 -0.05 -65.6 -0.35 -65.75 -0.65 -65.85 -1.0 -66.0 -1.3 -66.15 -1.55 -66.3 -1.85 -66.5 -2.1 -66.65 -2.4 -66.9 -2.65 -67.1 -2.9 -67.3 -3.15 -67.55 -3.4 -67.8 -3.6 -68.05 -3.85 -68.3 -4.45 -68.05 -5.55 -67.6 -4.9 -66.55 -4.0 -65.75 -3.1 -64.95 -2.05 -64.45 -1.0 -63.9 0.15 -63.65 1.3 -63.4 2.5 -63.4 3.65 -63.4 4.8 -63.65 5.95 -63.9 6.95 -64.45 8.0 -65.0 8.85 -65.75 9.7 -66.55 10.3 -67.6 L10.3 -67.6 M17.4 -67.6 Q18.0 -66.55 18.9 -65.75 19.75 -65.0 20.85 -64.45 21.85 -63.9 23.0 -63.65 24.15 -63.4 25.3 -63.4 26.5 -63.4 27.65 -63.65 28.8 -63.9 29.8 -64.4 30.9 -64.95 31.75 -65.75 32.65 -66.55 33.25 -67.55 32.9 -67.75 32.75 -67.8 32.5 -67.9 32.35 -68.0 32.2 -68.05 32.05 -68.1 31.9 -68.1 31.75 -68.1 31.65 -68.05 31.5 -68.0 31.4 -67.95 31.25 -67.85 31.1 -67.75 30.9 -67.6 30.8 -67.5 30.5 -67.2 30.15 -66.9 29.75 -66.6 29.35 -66.35 28.95 -66.15 28.55 -65.9 28.15 -65.75 27.75 -65.6 27.3 -65.5 26.9 -65.35 26.45 -65.3 26.0 -65.25 25.55 -65.25 25.1 -65.25 24.6 -65.3 24.15 -65.35 23.65 -65.45 23.3 -65.5 22.95 -65.6 22.65 -65.7 22.35 -65.85 22.0 -66.0 21.7 -66.15 21.4 -66.3 21.15 -66.5 20.85 -66.65 20.6 -66.85 20.35 -67.1 20.1 -67.3 19.85 -67.55 19.6 -67.8 19.35 -68.05 19.1 -68.3 18.55 -68.05 17.4 -67.6 L17.4 -67.6 M-15.35 -40.1 Q-15.9 -39.85 -17.05 -39.4 -16.45 -38.35 -15.55 -37.55 -14.7 -36.8 -13.65 -36.25 -12.6 -35.7 -11.45 -35.45 -10.35 -35.2 -9.15 -35.2 -7.95 -35.2 -6.85 -35.45 -5.65 -35.7 -4.65 -36.2 -3.6 -36.75 -2.75 -37.55 -1.85 -38.35 -1.2 -39.35 -1.55 -39.55 -1.7 -39.6 -1.95 -39.7 -2.1 -39.8 -2.25 -39.85 -2.4 -39.9 -2.55 -39.9 -2.7 -39.9 -2.8 -39.9 -2.95 -39.8 -3.05 -39.75 -3.2 -39.65 -3.35 -39.55 -3.55 -39.4 -3.65 -39.3 -3.95 -39.0 -4.3 -38.7 -4.7 -38.4 -5.1 -38.15 -5.5 -37.95 -5.9 -37.7 -6.3 -37.55 -6.7 -37.4 -7.15 -37.3 -7.55 -37.15 -8.0 -37.1 -8.45 -37.05 -8.9 -37.05 -9.35 -37.05 -9.8 -37.1 -10.3 -37.15 -10.8 -37.25 -11.15 -37.3 -11.5 -37.4 -11.8 -37.5 -12.1 -37.65 -12.45 -37.8 -12.75 -37.95 -13.0 -38.1 -13.3 -38.3 -13.6 -38.45 -13.85 -38.65 -14.1 -38.9 -14.35 -39.1 -14.6 -39.35 -14.85 -39.6 -15.1 -39.85 -15.35 -40.1 L-15.35 -40.1 M-38.3 -40.1 Q-38.9 -39.85 -40.0 -39.4 -39.4 -38.35 -38.5 -37.55 -37.65 -36.8 -36.55 -36.25 -35.55 -35.7 -34.4 -35.45 -33.25 -35.2 -32.05 -35.2 -30.9 -35.2 -29.75 -35.45 -28.6 -35.7 -27.6 -36.25 -26.5 -36.75 -25.65 -37.55 -24.8 -38.35 -24.15 -39.35 -24.5 -39.5 -24.65 -39.6 -24.9 -39.7 -25.05 -39.75 -25.25 -39.85 -25.35 -39.85 -25.5 -39.85 -25.65 -39.85 -25.75 -39.85 -25.9 -39.8 -26.0 -39.7 -26.15 -39.6 -26.3 -39.55 -26.5 -39.35 -29.2 -37.35 -26.95 -39.05 -27.15 -38.9 -27.3 -38.8 -27.5 -38.65 -27.7 -38.5 -27.9 -38.35 -28.1 -38.25 -28.3 -38.15 -28.5 -38.0 -28.75 -37.9 -28.95 -37.8 -29.15 -37.7 -29.35 -37.6 -29.6 -37.5 -29.8 -37.45 -30.0 -37.35 -30.25 -37.3 -30.85 -37.15 -31.4 -37.1 -32.0 -37.0 -32.55 -37.05 -33.1 -37.05 -33.6 -37.15 -34.15 -37.25 -34.65 -37.45 -35.15 -37.65 -35.65 -37.9 -36.1 -38.15 -36.55 -38.5 -37.0 -38.8 -37.45 -39.25 -37.9 -39.65 -38.3 -40.1 L-38.3 -40.1 M-47.1 -39.4 Q-47.45 -39.55 -47.65 -39.6 -47.85 -39.7 -48.05 -39.8 -48.25 -39.85 -48.35 -39.85 -48.5 -39.9 -48.65 -39.85 -48.8 -39.85 -48.9 -39.8 -49.05 -39.7 -49.2 -39.6 -49.35 -39.5 -49.5 -39.35 -49.65 -39.25 -49.95 -38.95 -50.5 -38.45 -51.15 -38.05 -51.8 -37.7 -52.5 -37.45 -53.15 -37.25 -53.9 -37.1 -54.6 -37.0 -55.3 -37.05 -56.05 -37.05 -56.75 -37.2 -57.45 -37.4 -58.1 -37.65 -58.8 -37.95 -59.4 -38.4 -60.0 -38.8 -60.55 -39.35 -60.65 -39.45 -61.3 -40.1 -61.9 -39.85 -62.95 -39.4 -62.35 -38.4 -61.5 -37.6 -60.65 -36.85 -59.6 -36.3 -58.6 -35.75 -57.5 -35.45 -56.4 -35.2 -55.2 -35.15 -54.05 -35.15 -52.95 -35.4 -51.75 -35.65 -50.75 -36.15 -49.65 -36.7 -48.75 -37.5 -47.8 -38.3 -47.1 -39.4 L-47.1 -39.4 M28.9 -39.4 Q29.55 -38.35 30.45 -37.55 31.3 -36.8 32.35 -36.25 33.4 -35.7 34.55 -35.45 35.7 -35.2 36.85 -35.2 38.05 -35.2 39.2 -35.45 40.35 -35.7 41.35 -36.25 42.4 -36.75 43.25 -37.55 44.15 -38.35 44.75 -39.4 44.4 -39.55 44.25 -39.65 44.0 -39.75 43.85 -39.8 43.65 -39.85 43.5 -39.9 43.35 -39.9 43.25 -39.9 43.1 -39.85 43.0 -39.8 42.85 -39.75 42.7 -39.65 42.6 -39.55 42.4 -39.35 42.3 -39.3 41.95 -39.0 41.6 -38.7 41.2 -38.4 40.8 -38.15 40.45 -37.95 40.05 -37.7 39.6 -37.55 39.2 -37.4 38.8 -37.3 38.35 -37.15 37.9 -37.1 37.45 -37.05 37.0 -37.05 36.55 -37.05 36.1 -37.1 35.6 -37.15 35.15 -37.25 34.8 -37.3 34.45 -37.4 34.15 -37.5 33.8 -37.65 33.5 -37.8 33.2 -37.95 32.9 -38.1 32.6 -38.3 32.35 -38.45 32.05 -38.7 31.8 -38.9 31.55 -39.1 31.3 -39.35 31.05 -39.6 30.85 -39.85 30.6 -40.1 30.0 -39.85 28.9 -39.4 L28.9 -39.4 M-26.8 -57.05 Q-27.5 -56.75 -28.55 -56.3 -27.9 -55.25 -27.0 -54.45 -26.1 -53.7 -25.05 -53.15 -24.0 -52.65 -22.8 -52.35 -21.7 -52.1 -20.5 -52.1 -19.3 -52.1 -18.2 -52.35 -17.05 -52.65 -16.0 -53.15 -15.0 -53.7 -14.15 -54.5 -13.25 -55.3 -12.7 -56.3 -12.75 -56.35 -12.9 -56.4 -13.05 -56.5 -13.15 -56.55 -13.3 -56.65 -13.45 -56.7 -13.6 -56.75 -13.75 -56.8 -13.85 -56.85 -14.0 -56.85 -14.1 -56.85 -14.25 -56.85 -14.35 -56.8 -14.5 -56.75 -14.6 -56.7 -14.75 -56.6 -14.85 -56.5 -15.0 -56.4 -15.15 -56.3 -15.25 -56.15 -15.5 -55.9 -15.8 -55.65 -16.05 -55.4 -16.35 -55.2 -16.65 -55.0 -16.95 -54.85 -17.3 -54.65 -17.6 -54.55 -17.95 -54.4 -18.3 -54.3 -18.65 -54.2 -19.0 -54.1 -19.35 -54.05 -19.7 -54.0 -20.1 -54.0 -20.45 -53.95 -20.95 -53.95 -21.4 -54.0 -21.85 -54.05 -22.3 -54.15 -22.75 -54.25 -23.2 -54.4 -23.6 -54.55 -24.0 -54.75 -24.4 -54.95 -24.75 -55.2 -25.1 -55.4 -25.5 -55.7 -25.85 -56.0 -26.15 -56.35 -26.5 -56.65 -26.8 -57.05 L-26.8 -57.05 M10.3 -56.3 Q9.95 -56.45 9.8 -56.55 9.55 -56.65 9.4 -56.7 9.2 -56.75 9.05 -56.75 8.9 -56.8 8.8 -56.8 8.65 -56.75 8.5 -56.7 8.4 -56.65 8.25 -56.55 8.1 -56.45 7.9 -56.25 7.8 -56.2 7.5 -55.9 7.15 -55.6 6.75 -55.3 6.35 -55.05 5.95 -54.85 5.55 -54.6 5.15 -54.45 4.75 -54.3 4.3 -54.2 3.9 -54.1 3.45 -54.0 3.0 -53.95 2.55 -53.95 2.1 -53.95 1.6 -54.0 1.15 -54.05 0.65 -54.15 0.3 -54.25 -0.05 -54.35 -0.35 -54.45 -0.65 -54.55 -1.0 -54.7 -1.3 -54.85 -1.55 -55.05 -1.85 -55.2 -2.15 -55.4 -2.4 -55.6 -2.65 -55.8 -2.9 -56.05 -3.15 -56.3 -3.4 -56.55 -3.65 -56.75 -3.85 -57.05 -4.45 -56.8 -5.55 -56.3 -4.9 -55.25 -4.0 -54.45 -3.15 -53.7 -2.1 -53.15 -1.05 -52.65 0.1 -52.35 1.2 -52.1 2.35 -52.1 3.5 -52.1 4.65 -52.35 5.75 -52.65 6.8 -53.15 7.85 -53.7 8.75 -54.45 9.65 -55.25 10.3 -56.3 L10.3 -56.3 M17.35 -56.3 Q17.75 -55.75 18.2 -55.25 18.65 -54.75 19.1 -54.35 19.6 -53.95 20.1 -53.6 20.6 -53.25 21.15 -53.0 21.7 -52.75 22.25 -52.55 22.85 -52.35 23.45 -52.25 24.05 -52.15 24.7 -52.1 25.35 -52.05 26.0 -52.1 26.6 -52.15 27.15 -52.25 27.7 -52.35 28.2 -52.5 28.7 -52.65 29.2 -52.85 29.7 -53.05 30.15 -53.3 30.6 -53.6 31.05 -53.9 31.45 -54.2 31.85 -54.55 32.25 -54.95 32.6 -55.35 32.95 -55.75 33.3 -56.2 33.1 -56.35 32.9 -56.5 32.7 -56.6 32.5 -56.65 32.35 -56.75 32.15 -56.75 32.0 -56.8 31.8 -56.75 31.65 -56.75 31.45 -56.7 31.3 -56.6 31.15 -56.5 30.95 -56.4 30.8 -56.25 30.6 -56.1 30.4 -55.95 29.85 -55.45 29.2 -55.05 28.6 -54.65 27.9 -54.4 27.25 -54.15 26.55 -54.05 25.85 -53.9 25.1 -53.95 24.4 -53.95 23.7 -54.15 22.95 -54.3 22.3 -54.6 21.6 -54.85 21.0 -55.3 20.4 -55.7 19.85 -56.25 19.7 -56.4 19.45 -56.65 19.15 -57.0 19.1 -57.05 18.5 -56.8 17.35 -56.3 L17.35 -56.3 M-51.55 -45.0 Q-51.15 -44.45 -50.7 -43.95 -50.25 -43.5 -49.8 -43.05 -49.3 -42.65 -48.8 -42.35 -48.3 -42.0 -47.75 -41.75 -47.25 -41.45 -46.65 -41.25 -46.1 -41.1 -45.45 -40.95 -44.85 -40.85 -44.2 -40.85 -43.55 -40.8 -42.85 -40.85 -42.25 -40.9 -41.75 -41.0 -41.2 -41.05 -40.65 -41.2 -40.15 -41.35 -39.65 -41.6 -39.2 -41.8 -38.75 -42.05 -38.3 -42.3 -37.85 -42.6 -37.45 -42.95 -37.05 -43.3 -36.7 -43.65 -36.3 -44.05 -35.95 -44.5 -35.65 -44.95 -35.85 -45.1 -36.05 -45.2 -36.25 -45.35 -36.4 -45.4 -36.6 -45.5 -36.75 -45.5 -36.9 -45.55 -37.1 -45.5 -37.25 -45.5 -37.4 -45.45 -37.6 -45.35 -37.75 -45.25 -37.9 -45.15 -38.1 -45.05 -38.25 -44.9 -38.45 -44.7 -38.8 -44.35 -39.15 -44.05 -39.5 -43.8 -39.9 -43.55 -40.3 -43.35 -40.7 -43.2 -41.1 -43.0 -41.55 -42.9 -41.95 -42.8 -42.4 -42.75 -42.85 -42.7 -43.35 -42.65 -43.8 -42.65 -44.25 -42.7 -44.75 -42.75 -45.2 -42.85 -45.55 -42.9 -45.9 -43.05 -46.25 -43.15 -46.55 -43.25 -46.85 -43.4 -47.15 -43.55 -47.45 -43.7 -47.75 -43.9 -48.05 -44.1 -48.3 -44.3 -48.55 -44.5 -48.8 -44.75 -49.05 -44.95 -49.3 -45.25 -49.55 -45.5 -49.8 -45.75 -50.4 -45.5 -51.55 -45.0 L-51.55 -45.0 M-24.2 -61.9 Q-24.4 -62.05 -24.6 -62.15 -24.75 -62.3 -24.95 -62.35 -25.1 -62.4 -25.3 -62.45 -25.45 -62.45 -25.6 -62.45 -25.75 -62.4 -25.95 -62.35 -26.1 -62.3 -26.25 -62.2 -26.45 -62.1 -26.6 -61.95 -26.75 -61.8 -26.95 -61.6 -27.3 -61.25 -27.65 -61.0 -28.05 -60.7 -28.45 -60.5 -28.8 -60.25 -29.25 -60.1 -29.65 -59.95 -30.05 -59.8 -30.5 -59.7 -30.95 -59.65 -31.4 -59.6 -31.85 -59.6 -32.3 -59.6 -32.8 -59.65 -33.25 -59.7 -33.75 -59.8 -34.1 -59.85 -34.45 -59.95 -34.75 -60.05 -35.1 -60.2 -35.4 -60.35 -35.7 -60.5 -36.0 -60.65 -36.25 -60.85 -36.55 -61.0 -36.8 -61.25 -37.1 -61.45 -37.35 -61.65 -37.6 -61.9 -37.85 -62.15 -38.05 -62.4 -38.3 -62.65 -38.9 -62.45 -40.0 -61.95 -39.4 -60.9 -38.5 -60.1 -37.65 -59.35 -36.6 -58.8 -35.6 -58.25 -34.45 -58.0 -33.3 -57.75 -32.15 -57.75 -30.95 -57.75 -29.8 -58.0 -28.65 -58.25 -27.65 -58.75 -26.55 -59.3 -25.7 -60.05 -24.8 -60.85 -24.2 -61.9 L-24.2 -61.9 M-17.05 -61.95 Q-16.4 -60.9 -15.5 -60.1 -14.65 -59.35 -13.6 -58.8 -12.55 -58.25 -11.4 -58.0 -10.25 -57.75 -9.1 -57.75 -7.9 -57.75 -6.8 -58.0 -5.65 -58.25 -4.6 -58.8 -3.55 -59.35 -2.7 -60.1 -1.8 -60.9 -1.2 -61.95 -1.55 -62.1 -1.7 -62.2 -1.95 -62.3 -2.1 -62.35 -2.3 -62.4 -2.4 -62.45 -2.55 -62.45 -2.7 -62.45 -2.8 -62.4 -2.95 -62.35 -3.05 -62.3 -3.2 -62.2 -3.35 -62.1 -3.55 -61.95 -3.65 -61.85 -3.95 -61.55 -4.3 -61.25 -4.7 -60.95 -5.1 -60.7 -5.5 -60.5 -5.9 -60.25 -6.3 -60.1 -6.7 -59.95 -7.15 -59.85 -7.55 -59.75 -8.0 -59.65 -8.45 -59.6 -8.9 -59.6 -9.35 -59.6 -9.85 -59.65 -10.3 -59.7 -10.8 -59.8 -11.15 -59.85 -11.5 -59.95 -11.8 -60.1 -12.15 -60.2 -12.45 -60.35 -12.75 -60.5 -13.05 -60.65 -13.3 -60.85 -13.6 -61.05 -13.85 -61.25 -14.1 -61.45 -14.4 -61.65 -14.6 -61.9 -14.85 -62.15 -15.1 -62.4 -15.35 -62.65 -15.9 -62.45 -17.05 -61.95 L-17.05 -61.95 M21.75 -61.9 Q21.55 -62.05 21.35 -62.15 21.2 -62.25 21.0 -62.35 20.85 -62.4 20.65 -62.45 20.5 -62.45 20.35 -62.45 20.2 -62.4 20.0 -62.35 19.85 -62.3 19.7 -62.2 19.5 -62.1 19.35 -61.95 19.2 -61.8 19.0 -61.65 18.65 -61.3 18.3 -61.0 17.9 -60.75 17.5 -60.5 17.15 -60.25 16.7 -60.1 16.3 -59.95 15.9 -59.8 15.45 -59.7 15.0 -59.65 14.55 -59.6 14.1 -59.6 13.65 -59.6 13.15 -59.65 12.7 -59.7 12.2 -59.8 11.85 -59.85 11.5 -59.95 11.2 -60.05 10.85 -60.2 10.55 -60.35 10.25 -60.5 9.95 -60.65 9.65 -60.85 9.4 -61.0 9.15 -61.2 8.85 -61.45 8.6 -61.65 8.35 -61.9 8.1 -62.15 7.85 -62.4 7.65 -62.65 7.05 -62.45 5.95 -61.95 6.55 -60.9 7.4 -60.1 8.25 -59.35 9.3 -58.8 10.3 -58.3 11.45 -58.0 12.6 -57.75 13.75 -57.75 14.95 -57.75 16.1 -58.0 17.25 -58.25 18.25 -58.75 19.35 -59.3 20.2 -60.05 21.1 -60.85 21.75 -61.9 L21.75 -61.9 M28.9 -61.95 Q29.55 -60.9 30.45 -60.1 31.3 -59.35 32.4 -58.8 33.4 -58.25 34.55 -58.0 35.7 -57.75 36.9 -57.75 38.05 -57.75 39.2 -58.0 40.35 -58.25 41.35 -58.8 42.4 -59.35 43.25 -60.1 44.15 -60.9 44.75 -61.95 44.4 -62.1 44.25 -62.2 44.0 -62.3 43.85 -62.35 43.65 -62.4 43.5 -62.45 43.35 -62.45 43.25 -62.45 43.1 -62.4 43.0 -62.35 42.85 -62.3 42.7 -62.2 42.6 -62.1 42.4 -61.9 42.3 -61.85 41.95 -61.55 41.6 -61.25 41.2 -60.95 40.8 -60.7 40.4 -60.5 40.05 -60.25 39.6 -60.1 39.2 -59.95 38.8 -59.85 38.35 -59.75 37.9 -59.65 37.45 -59.6 37.0 -59.6 36.55 -59.6 36.1 -59.65 35.6 -59.7 35.15 -59.8 34.8 -59.85 34.45 -60.0 34.15 -60.1 33.8 -60.2 33.5 -60.35 33.2 -60.5 32.9 -60.65 32.6 -60.85 32.35 -61.05 32.05 -61.25 31.8 -61.45 31.55 -61.7 31.3 -61.9 31.05 -62.15 30.85 -62.4 30.6 -62.7 30.0 -62.45 28.9 -61.95 L28.9 -61.95 M56.2 -45.0 Q55.85 -45.2 55.7 -45.25 55.45 -45.35 55.3 -45.4 55.15 -45.5 55.0 -45.5 54.85 -45.55 54.75 -45.5 54.6 -45.5 54.5 -45.45 54.35 -45.4 54.2 -45.3 54.05 -45.2 53.9 -45.0 53.75 -44.95 53.45 -44.65 53.1 -44.35 52.7 -44.05 52.3 -43.8 51.9 -43.6 51.55 -43.35 51.1 -43.2 50.7 -43.05 50.3 -42.9 49.85 -42.8 49.4 -42.75 48.95 -42.7 48.5 -42.7 48.05 -42.7 47.6 -42.75 47.1 -42.75 46.65 -42.85 46.3 -42.95 45.95 -43.05 45.65 -43.15 45.3 -43.3 45.0 -43.4 44.7 -43.55 44.4 -43.75 44.1 -43.9 43.85 -44.1 43.55 -44.3 43.3 -44.5 43.05 -44.75 42.8 -45.0 42.55 -45.25 42.3 -45.5 42.1 -45.75 41.5 -45.5 40.4 -45.05 41.0 -44.0 41.9 -43.2 42.75 -42.4 43.8 -41.9 44.85 -41.35 46.0 -41.1 47.15 -40.85 48.3 -40.8 49.5 -40.8 50.65 -41.1 51.8 -41.35 52.8 -41.85 53.85 -42.4 54.7 -43.15 55.6 -44.0 56.2 -45.0 L56.2 -45.0 M33.3 -45.0 Q32.95 -45.15 32.75 -45.25 32.5 -45.35 32.35 -45.4 32.15 -45.45 32.05 -45.5 31.9 -45.5 31.75 -45.5 31.6 -45.5 31.5 -45.4 31.35 -45.35 31.2 -45.25 31.1 -45.15 30.9 -45.0 30.75 -44.9 30.45 -44.65 30.1 -44.35 29.7 -44.05 29.3 -43.8 28.9 -43.55 28.5 -43.35 28.1 -43.2 27.7 -43.05 27.25 -42.9 26.85 -42.8 26.4 -42.75 25.95 -42.7 25.5 -42.7 25.05 -42.7 24.6 -42.75 24.1 -42.8 23.6 -42.9 23.25 -42.95 22.9 -43.05 22.6 -43.15 22.3 -43.3 22.0 -43.45 21.7 -43.6 21.4 -43.75 21.1 -43.95 20.85 -44.1 20.55 -44.35 20.3 -44.55 20.05 -44.75 19.8 -45.0 19.55 -45.25 19.35 -45.5 19.1 -45.75 18.5 -45.5 17.4 -45.05 18.05 -44.0 18.95 -43.2 19.85 -42.45 20.9 -41.9 21.9 -41.35 23.05 -41.1 24.15 -40.85 25.3 -40.85 26.5 -40.85 27.6 -41.1 28.75 -41.35 29.75 -41.85 30.8 -42.4 31.7 -43.2 32.6 -44.0 33.3 -45.0 L33.3 -45.0 M10.3 -45.0 Q9.95 -45.15 9.8 -45.25 9.55 -45.35 9.4 -45.4 9.2 -45.45 9.05 -45.5 8.9 -45.5 8.8 -45.5 8.65 -45.5 8.5 -45.4 8.4 -45.35 8.25 -45.25 8.1 -45.15 7.9 -45.0 7.8 -44.9 7.5 -44.65 7.15 -44.35 6.75 -44.05 6.35 -43.8 5.95 -43.55 5.55 -43.35 5.15 -43.2 4.75 -43.05 4.3 -42.9 3.9 -42.8 3.45 -42.75 3.0 -42.7 2.55 -42.7 2.1 -42.7 1.6 -42.75 1.15 -42.8 0.65 -42.9 0.3 -42.95 -0.05 -43.05 -0.35 -43.15 -0.65 -43.3 -1.0 -43.45 -1.3 -43.6 -1.55 -43.75 -1.85 -43.95 -2.15 -44.1 -2.4 -44.35 -2.65 -44.55 -2.9 -44.75 -3.15 -45.0 -3.4 -45.25 -3.6 -45.5 -3.85 -45.75 -4.45 -45.5 -5.55 -45.05 -4.9 -44.0 -4.0 -43.2 -3.15 -42.45 -2.1 -41.9 -1.05 -41.35 0.05 -41.1 1.2 -40.85 2.35 -40.85 3.5 -40.85 4.65 -41.1 5.75 -41.35 6.8 -41.85 7.85 -42.4 8.75 -43.2 9.65 -44.0 10.3 -45.0 L10.3 -45.0 M-17.45 -36.7 Q-17.6 -36.5 -17.75 -36.35 -17.95 -36.2 -18.1 -36.05 -18.3 -35.9 -18.45 -35.8 -18.65 -35.7 -18.85 -35.6 -19.05 -35.5 -19.25 -35.4 -19.45 -35.35 -19.7 -35.25 -19.9 -35.2 -20.15 -35.2 -20.35 -35.15 -20.6 -35.15 -20.85 -35.15 -21.1 -35.2 -21.3 -35.2 -21.55 -35.25 -21.75 -35.35 -21.95 -35.4 -22.15 -35.5 -22.35 -35.6 -22.55 -35.7 -22.75 -35.8 -22.95 -35.95 -23.1 -36.1 -23.3 -36.2 -23.45 -36.4 -23.65 -36.55 -23.8 -36.7 -24.25 -36.3 -25.1 -35.5 -24.7 -34.95 -24.15 -34.5 -23.65 -34.1 -23.05 -33.8 -22.45 -33.55 -21.8 -33.4 -21.2 -33.25 -20.55 -33.25 -19.9 -33.25 -19.25 -33.4 -18.6 -33.55 -18.05 -33.85 -17.45 -34.1 -17.0 -34.55 -16.45 -35.0 -16.1 -35.55 -16.5 -35.9 -17.45 -36.7 L-17.45 -36.7 M51.5 -36.7 Q51.35 -36.5 51.15 -36.35 51.0 -36.2 50.8 -36.05 50.65 -35.95 50.45 -35.8 50.25 -35.7 50.05 -35.6 49.85 -35.5 49.65 -35.4 49.45 -35.35 49.2 -35.25 49.0 -35.2 48.75 -35.2 48.55 -35.15 48.3 -35.15 48.05 -35.15 47.8 -35.2 47.6 -35.2 47.35 -35.3 47.15 -35.35 46.95 -35.4 46.75 -35.5 46.55 -35.6 46.35 -35.7 46.15 -35.85 45.95 -35.95 45.8 -36.1 45.6 -36.2 45.45 -36.4 45.3 -36.55 45.1 -36.7 44.25 -35.95 43.8 -35.5 44.2 -34.95 44.75 -34.5 45.25 -34.1 45.85 -33.8 46.45 -33.55 47.1 -33.4 47.75 -33.25 48.4 -33.25 49.05 -33.25 49.65 -33.4 50.3 -33.55 50.85 -33.85 51.45 -34.1 51.95 -34.55 52.45 -35.0 52.8 -35.55 52.35 -35.95 51.5 -36.7 L51.5 -36.7 M-13.65 -75.0 Q-13.2 -74.45 -12.65 -74.0 -12.15 -73.6 -11.5 -73.3 -10.9 -73.0 -10.25 -72.9 -9.6 -72.75 -8.95 -72.75 -8.3 -72.75 -7.65 -72.9 -7.05 -73.05 -6.5 -73.35 -5.9 -73.6 -5.45 -74.05 -4.95 -74.5 -4.65 -75.05 -5.05 -75.4 -5.9 -76.15 -6.35 -75.75 -6.8 -75.45 -7.2 -75.2 -7.6 -75.0 -8.0 -74.8 -8.4 -74.7 -8.8 -74.6 -9.15 -74.6 -9.55 -74.6 -9.9 -74.7 -10.3 -74.8 -10.7 -75.0 -11.05 -75.2 -11.5 -75.5 -11.85 -75.75 -12.3 -76.15 -12.75 -75.8 -13.65 -75.0 L-13.65 -75.0 M-25.15 -69.35 Q-24.7 -68.8 -24.15 -68.35 -23.6 -67.95 -22.95 -67.65 -22.35 -67.35 -21.7 -67.25 -21.05 -67.1 -20.4 -67.1 -19.75 -67.1 -19.1 -67.25 -18.5 -67.4 -17.95 -67.7 -17.35 -68.0 -16.9 -68.4 -16.45 -68.85 -16.1 -69.4 -16.55 -69.8 -17.4 -70.5 -17.85 -70.1 -18.25 -69.85 -18.7 -69.55 -19.1 -69.35 -19.5 -69.15 -19.85 -69.05 -20.25 -68.95 -20.6 -68.95 -21.0 -68.95 -21.4 -69.05 -21.75 -69.15 -22.15 -69.35 -22.55 -69.55 -22.95 -69.85 -23.35 -70.15 -23.8 -70.5 -24.25 -70.15 -25.15 -69.35 L-25.15 -69.35 M5.55 -70.5 Q5.1 -70.1 4.7 -69.85 4.3 -69.55 3.9 -69.35 3.5 -69.15 3.1 -69.05 2.75 -68.95 2.35 -68.95 2.0 -68.95 1.6 -69.05 1.2 -69.15 0.8 -69.35 0.45 -69.55 0.0 -69.85 -0.4 -70.15 -0.85 -70.55 -1.3 -70.15 -2.15 -69.35 -1.7 -68.8 -1.15 -68.35 -0.6 -67.95 0.0 -67.65 0.65 -67.35 1.3 -67.25 1.95 -67.1 2.6 -67.1 3.25 -67.1 3.85 -67.25 4.5 -67.4 5.05 -67.7 5.6 -68.0 6.05 -68.4 6.55 -68.85 6.85 -69.4 6.45 -69.75 5.55 -70.5 L5.55 -70.5 M20.85 -69.4 Q21.2 -68.85 21.7 -68.4 22.2 -68.0 22.75 -67.7 23.35 -67.4 23.95 -67.25 24.6 -67.1 25.25 -67.1 25.9 -67.1 26.55 -67.25 27.15 -67.4 27.75 -67.65 28.4 -67.95 28.9 -68.35 29.45 -68.8 29.85 -69.35 29.4 -69.75 28.55 -70.5 28.1 -70.1 27.7 -69.85 27.3 -69.55 26.9 -69.35 26.5 -69.15 26.15 -69.05 25.75 -68.95 25.35 -68.95 25.0 -68.95 24.6 -69.05 24.25 -69.15 23.85 -69.35 23.45 -69.55 23.0 -69.85 22.6 -70.1 22.1 -70.5 21.75 -70.15 20.85 -69.4 L20.85 -69.4 M-36.6 -63.7 Q-36.2 -63.15 -35.65 -62.7 -35.15 -62.3 -34.55 -62.0 -33.95 -61.75 -33.3 -61.6 -32.65 -61.45 -32.0 -61.45 -31.35 -61.45 -30.7 -61.6 -30.1 -61.75 -29.5 -62.05 -28.95 -62.35 -28.45 -62.75 -27.95 -63.2 -27.6 -63.75 -28.0 -64.1 -28.9 -64.9 -29.05 -64.7 -29.25 -64.55 -29.4 -64.4 -29.6 -64.25 -29.75 -64.15 -29.95 -64.0 -30.15 -63.9 -30.35 -63.8 -30.55 -63.7 -30.75 -63.6 -30.95 -63.55 -31.15 -63.45 -31.4 -63.4 -31.6 -63.4 -31.85 -63.35 -32.1 -63.35 -32.35 -63.35 -32.6 -63.4 -32.8 -63.4 -33.05 -63.5 -33.25 -63.55 -33.45 -63.6 -33.65 -63.7 -33.85 -63.8 -34.05 -63.9 -34.25 -64.05 -34.4 -64.15 -34.6 -64.3 -34.75 -64.4 -34.95 -64.6 -35.1 -64.75 -35.3 -64.9 -35.75 -64.45 -36.6 -63.7 L-36.6 -63.7 M-13.6 -63.7 Q-13.2 -63.15 -12.65 -62.7 -12.15 -62.3 -11.55 -62.0 -10.95 -61.75 -10.3 -61.6 -9.7 -61.45 -9.05 -61.45 -8.4 -61.45 -7.75 -61.6 -7.1 -61.75 -6.55 -62.05 -5.95 -62.35 -5.5 -62.75 -5.0 -63.2 -4.6 -63.75 -5.05 -64.1 -5.95 -64.9 -6.1 -64.7 -6.3 -64.55 -6.45 -64.4 -6.6 -64.25 -6.8 -64.15 -7.0 -64.0 -7.15 -63.9 -7.35 -63.8 -7.55 -63.7 -7.75 -63.6 -8.0 -63.55 -8.2 -63.45 -8.4 -63.4 -8.65 -63.4 -8.9 -63.35 -9.15 -63.35 -9.4 -63.35 -9.65 -63.4 -9.85 -63.4 -10.05 -63.5 -10.3 -63.55 -10.5 -63.6 -10.7 -63.7 -10.9 -63.8 -11.1 -63.9 -11.25 -64.05 -11.45 -64.15 -11.65 -64.3 -11.8 -64.4 -12.0 -64.6 -12.15 -64.75 -12.3 -64.9 -12.8 -64.5 -13.6 -63.7 L-13.6 -63.7 M9.35 -63.7 Q9.75 -63.15 10.3 -62.7 10.8 -62.3 11.4 -62.0 12.0 -61.75 12.65 -61.6 13.3 -61.45 13.95 -61.45 14.6 -61.45 15.2 -61.6 15.85 -61.75 16.4 -62.05 17.0 -62.35 17.5 -62.75 18.0 -63.2 18.35 -63.75 17.9 -64.15 17.05 -64.9 16.9 -64.7 16.7 -64.55 16.55 -64.4 16.35 -64.25 16.15 -64.15 16.0 -64.0 15.8 -63.9 15.6 -63.8 15.4 -63.7 15.2 -63.6 15.0 -63.55 14.75 -63.45 14.55 -63.4 14.3 -63.4 14.1 -63.35 13.85 -63.35 13.6 -63.35 13.35 -63.4 13.15 -63.4 12.9 -63.5 12.7 -63.55 12.5 -63.6 12.3 -63.7 12.1 -63.8 11.9 -63.9 11.7 -64.05 11.5 -64.15 11.35 -64.3 11.15 -64.4 11.0 -64.6 10.8 -64.75 10.65 -64.9 10.2 -64.5 9.35 -63.7 L9.35 -63.7 M40.05 -64.9 Q39.6 -64.5 39.2 -64.2 38.75 -63.9 38.35 -63.7 38.0 -63.5 37.6 -63.45 37.2 -63.35 36.85 -63.35 36.45 -63.35 36.05 -63.4 35.7 -63.5 35.3 -63.7 34.9 -63.9 34.45 -64.2 34.05 -64.5 33.6 -64.9 33.15 -64.5 32.3 -63.7 32.75 -63.15 33.3 -62.7 33.85 -62.3 34.5 -62.0 35.1 -61.75 35.75 -61.6 36.4 -61.45 37.05 -61.45 37.7 -61.45 38.35 -61.6 38.95 -61.75 39.5 -62.05 40.1 -62.35 40.5 -62.75 41.0 -63.2 41.3 -63.75 40.9 -64.1 40.05 -64.9 L40.05 -64.9 M-48.1 -58.05 Q-47.65 -57.5 -47.1 -57.05 -46.55 -56.65 -45.9 -56.35 -45.3 -56.1 -44.6 -55.95 -43.95 -55.8 -43.3 -55.8 -42.65 -55.85 -42.05 -56.0 -41.4 -56.15 -40.85 -56.4 -40.3 -56.7 -39.85 -57.15 -39.4 -57.6 -39.1 -58.15 -39.5 -58.5 -40.35 -59.25 -40.8 -58.85 -41.2 -58.55 -41.65 -58.25 -42.0 -58.1 -42.4 -57.9 -42.8 -57.8 -43.2 -57.7 -43.55 -57.7 -43.95 -57.7 -44.3 -57.8 -44.7 -57.9 -45.1 -58.05 -45.5 -58.25 -45.9 -58.55 -46.3 -58.85 -46.8 -59.25 -47.2 -58.85 -48.1 -58.05 L-48.1 -58.05 M-25.15 -58.05 Q-24.7 -57.5 -24.15 -57.05 -23.6 -56.65 -23.0 -56.35 -22.4 -56.1 -21.75 -55.95 -21.15 -55.8 -20.5 -55.8 -19.85 -55.8 -19.25 -55.95 -18.65 -56.1 -18.1 -56.4 -17.5 -56.7 -17.0 -57.1 -16.5 -57.55 -16.1 -58.1 -16.6 -58.55 -17.4 -59.25 -17.85 -58.85 -18.25 -58.55 -18.65 -58.25 -19.0 -58.1 -19.4 -57.9 -19.8 -57.8 -20.15 -57.7 -20.55 -57.7 -20.9 -57.7 -21.3 -57.8 -21.7 -57.9 -22.1 -58.1 -22.5 -58.25 -22.95 -58.55 -23.35 -58.85 -23.8 -59.25 -24.25 -58.85 -25.15 -58.05 L-25.15 -58.05 M5.6 -59.25 Q5.15 -58.85 4.75 -58.55 4.35 -58.25 3.95 -58.1 3.55 -57.9 3.2 -57.8 2.8 -57.7 2.4 -57.7 2.05 -57.7 1.65 -57.8 1.25 -57.9 0.85 -58.1 0.45 -58.25 0.05 -58.55 -0.4 -58.85 -0.85 -59.25 -1.25 -58.9 -2.15 -58.05 -1.7 -57.5 -1.15 -57.05 -0.6 -56.65 0.0 -56.35 0.55 -56.1 1.2 -55.95 1.8 -55.8 2.45 -55.8 3.1 -55.8 3.7 -55.95 4.3 -56.1 4.9 -56.4 5.45 -56.7 5.95 -57.1 6.45 -57.55 6.9 -58.1 6.45 -58.45 5.6 -59.25 L5.6 -59.25 M28.5 -59.3 Q28.35 -59.1 28.2 -58.95 28.0 -58.8 27.85 -58.65 27.65 -58.5 27.45 -58.35 27.3 -58.25 27.1 -58.15 26.9 -58.05 26.7 -57.95 26.5 -57.9 26.25 -57.85 26.05 -57.8 25.8 -57.75 25.55 -57.75 25.3 -57.75 25.05 -57.75 24.8 -57.75 24.6 -57.8 24.4 -57.85 24.15 -57.9 23.95 -58.0 23.75 -58.05 23.55 -58.15 23.35 -58.25 23.2 -58.4 23.0 -58.5 22.8 -58.65 22.65 -58.8 22.45 -58.95 22.3 -59.1 22.15 -59.25 21.65 -58.85 20.85 -58.1 21.25 -57.55 21.8 -57.1 22.3 -56.7 22.9 -56.4 23.5 -56.1 24.15 -55.95 24.75 -55.8 25.4 -55.8 26.05 -55.8 26.7 -55.95 27.3 -56.1 27.9 -56.4 28.5 -56.7 28.95 -57.1 29.45 -57.55 29.85 -58.1 29.4 -58.5 28.5 -59.3 L28.5 -59.3 M-50.5 -52.45 Q-51.0 -52.85 -51.85 -53.6 -52.3 -53.2 -52.7 -52.9 -53.1 -52.6 -53.5 -52.45 -53.9 -52.25 -54.3 -52.15 -54.65 -52.05 -55.05 -52.05 -55.4 -52.05 -55.8 -52.15 -56.2 -52.25 -56.6 -52.45 -56.95 -52.65 -57.4 -52.9 -57.8 -53.2 -58.25 -53.6 -58.7 -53.2 -59.55 -52.4 -59.1 -51.85 -58.55 -51.4 -58.05 -51.0 -57.45 -50.75 -56.85 -50.45 -56.25 -50.3 -55.65 -50.15 -55.0 -50.2 -54.35 -50.2 -53.75 -50.3 -53.15 -50.45 -52.55 -50.75 -52.0 -51.05 -51.45 -51.45 -50.95 -51.9 -50.5 -52.45 L-50.5 -52.45 M-28.9 -53.65 Q-29.05 -53.45 -29.25 -53.3 -29.4 -53.15 -29.6 -53.0 -29.75 -52.85 -29.95 -52.7 -30.15 -52.6 -30.35 -52.5 -30.55 -52.4 -30.75 -52.3 -30.95 -52.25 -31.15 -52.2 -31.4 -52.15 -31.6 -52.1 -31.85 -52.1 -32.1 -52.1 -32.35 -52.1 -32.6 -52.1 -32.8 -52.15 -33.05 -52.2 -33.25 -52.25 -33.45 -52.35 -33.65 -52.4 -33.85 -52.5 -34.05 -52.6 -34.25 -52.75 -34.4 -52.85 -34.6 -53.0 -34.75 -53.15 -34.95 -53.3 -35.1 -53.45 -35.3 -53.65 -35.75 -53.2 -36.6 -52.45 -36.2 -51.9 -35.65 -51.45 -35.15 -51.05 -34.55 -50.75 -33.95 -50.45 -33.3 -50.3 -32.65 -50.2 -32.0 -50.2 -31.35 -50.2 -30.7 -50.3 -30.1 -50.45 -29.5 -50.75 -28.95 -51.05 -28.45 -51.45 -27.95 -51.9 -27.6 -52.45 -28.0 -52.85 -28.9 -53.65 L-28.9 -53.65 M-13.65 -52.45 Q-13.2 -51.9 -12.65 -51.45 -12.15 -51.05 -11.5 -50.75 -10.9 -50.45 -10.25 -50.3 -9.6 -50.2 -8.95 -50.2 -8.3 -50.2 -7.7 -50.35 -7.05 -50.5 -6.5 -50.75 -5.9 -51.05 -5.45 -51.5 -4.95 -51.9 -4.6 -52.5 -5.05 -52.85 -5.9 -53.6 -6.35 -53.2 -6.8 -52.9 -7.2 -52.65 -7.6 -52.45 -8.0 -52.25 -8.4 -52.15 -8.8 -52.05 -9.15 -52.05 -9.55 -52.05 -9.9 -52.15 -10.3 -52.25 -10.7 -52.45 -11.05 -52.65 -11.5 -52.95 -11.85 -53.2 -12.3 -53.6 -12.75 -53.25 -13.65 -52.45 L-13.65 -52.45 M9.35 -52.45 Q9.75 -51.9 10.25 -51.45 10.75 -51.05 11.35 -50.75 11.95 -50.45 12.6 -50.3 13.2 -50.2 13.85 -50.2 14.5 -50.2 15.15 -50.3 15.8 -50.45 16.35 -50.75 16.95 -51.05 17.45 -51.45 18.0 -51.9 18.35 -52.45 17.9 -52.85 17.0 -53.6 16.85 -53.4 16.65 -53.25 16.5 -53.1 16.3 -52.95 16.15 -52.8 15.95 -52.7 15.8 -52.6 15.6 -52.5 15.4 -52.4 15.2 -52.3 15.0 -52.25 14.75 -52.2 14.55 -52.15 14.3 -52.1 14.1 -52.1 13.85 -52.1 13.6 -52.1 13.35 -52.1 13.15 -52.15 12.9 -52.2 12.7 -52.25 12.5 -52.35 12.3 -52.4 12.1 -52.5 11.9 -52.6 11.7 -52.75 11.5 -52.85 11.35 -53.0 11.15 -53.15 11.0 -53.3 10.85 -53.45 10.65 -53.65 10.2 -53.2 9.35 -52.45 L9.35 -52.45 M32.3 -52.4 Q32.75 -51.85 33.35 -51.4 33.9 -51.0 34.5 -50.75 35.1 -50.45 35.75 -50.3 36.35 -50.2 37.0 -50.2 37.65 -50.2 38.25 -50.35 38.85 -50.5 39.4 -50.75 39.95 -51.05 40.45 -51.45 40.95 -51.9 41.35 -52.45 40.9 -52.85 39.95 -53.65 39.8 -53.45 39.65 -53.3 39.45 -53.1 39.3 -53.0 39.1 -52.85 38.95 -52.7 38.75 -52.6 38.55 -52.5 38.35 -52.4 38.15 -52.3 37.95 -52.25 37.75 -52.2 37.5 -52.15 37.3 -52.1 37.05 -52.1 36.8 -52.1 36.55 -52.1 36.3 -52.1 36.1 -52.15 35.9 -52.2 35.65 -52.25 35.45 -52.35 35.25 -52.4 35.05 -52.5 34.85 -52.6 34.65 -52.75 34.5 -52.85 34.3 -53.0 34.15 -53.15 33.95 -53.3 33.8 -53.45 33.65 -53.65 33.2 -53.25 32.3 -52.4 L32.3 -52.4 M-46.75 -48.0 Q-47.25 -47.55 -48.1 -46.75 -47.65 -46.2 -47.1 -45.75 -46.55 -45.35 -45.95 -45.1 -45.35 -44.8 -44.7 -44.65 -44.05 -44.55 -43.45 -44.55 -42.8 -44.55 -42.2 -44.7 -41.6 -44.85 -41.0 -45.1 -40.45 -45.4 -39.95 -45.85 -39.45 -46.25 -39.05 -46.8 -39.5 -47.2 -40.4 -47.95 -40.8 -47.55 -41.25 -47.3 -41.65 -47.0 -42.05 -46.8 -42.45 -46.6 -42.8 -46.5 -43.2 -46.4 -43.6 -46.4 -44.0 -46.4 -44.4 -46.5 -44.75 -46.6 -45.15 -46.8 -45.55 -47.0 -45.95 -47.3 -46.35 -47.6 -46.75 -48.0 L-46.75 -48.0 M-17.4 -47.95 Q-17.85 -47.55 -18.3 -47.25 -18.7 -47.0 -19.1 -46.8 -19.5 -46.6 -19.9 -46.5 -20.25 -46.4 -20.65 -46.4 -21.0 -46.4 -21.4 -46.5 -21.8 -46.6 -22.15 -46.8 -22.55 -47.0 -22.95 -47.3 -23.35 -47.6 -23.8 -48.0 -24.25 -47.6 -25.1 -46.8 -24.65 -46.25 -24.1 -45.8 -23.6 -45.4 -23.0 -45.1 -22.35 -44.8 -21.7 -44.7 -21.1 -44.55 -20.4 -44.55 -19.75 -44.55 -19.15 -44.7 -18.5 -44.85 -17.95 -45.15 -17.4 -45.4 -16.95 -45.85 -16.45 -46.3 -16.1 -46.85 -16.55 -47.2 -17.4 -47.95 L-17.4 -47.95 M-2.15 -46.8 Q-1.7 -46.25 -1.15 -45.8 -0.6 -45.4 0.0 -45.1 0.55 -44.8 1.2 -44.7 1.8 -44.55 2.45 -44.55 3.1 -44.55 3.7 -44.7 4.3 -44.85 4.9 -45.1 5.45 -45.4 5.95 -45.8 6.5 -46.25 6.9 -46.8 6.45 -47.2 5.55 -47.95 5.1 -47.55 4.7 -47.25 4.3 -47.0 3.9 -46.8 3.55 -46.6 3.15 -46.5 2.8 -46.4 2.4 -46.4 2.05 -46.4 1.65 -46.5 1.25 -46.6 0.85 -46.8 0.45 -47.0 0.05 -47.3 -0.4 -47.55 -0.85 -47.95 -1.25 -47.6 -2.15 -46.8 L-2.15 -46.8 M28.55 -47.95 Q28.1 -47.55 27.65 -47.25 27.25 -47.0 26.85 -46.8 26.45 -46.6 26.05 -46.5 25.65 -46.4 25.3 -46.4 24.9 -46.4 24.5 -46.5 24.15 -46.6 23.75 -46.8 23.4 -47.0 22.95 -47.3 22.55 -47.6 22.15 -48.0 21.7 -47.6 20.85 -46.8 21.25 -46.25 21.8 -45.8 22.35 -45.4 22.95 -45.1 23.55 -44.8 24.2 -44.7 24.85 -44.55 25.5 -44.55 26.15 -44.55 26.75 -44.7 27.4 -44.85 27.95 -45.1 28.55 -45.4 29.0 -45.85 29.5 -46.3 29.85 -46.85 29.4 -47.2 28.55 -47.95 L28.55 -47.95 M43.8 -46.85 Q44.15 -46.3 44.65 -45.85 45.15 -45.4 45.7 -45.15 46.3 -44.85 46.9 -44.7 47.55 -44.55 48.2 -44.55 48.85 -44.55 49.5 -44.7 50.15 -44.8 50.75 -45.1 51.35 -45.4 51.85 -45.8 52.4 -46.25 52.8 -46.8 52.4 -47.2 51.5 -47.95 51.05 -47.55 50.65 -47.25 50.25 -47.0 49.85 -46.8 49.45 -46.6 49.1 -46.5 48.7 -46.4 48.35 -46.4 47.95 -46.4 47.6 -46.5 47.2 -46.6 46.8 -46.8 46.4 -47.0 45.95 -47.3 45.55 -47.55 45.1 -47.95 44.7 -47.6 43.8 -46.85 L43.8 -46.85 M-59.6 -41.15 Q-59.15 -40.6 -58.55 -40.15 -58.0 -39.75 -57.4 -39.45 -56.75 -39.2 -56.1 -39.05 -55.45 -38.9 -54.8 -38.9 -54.15 -38.9 -53.5 -39.05 -52.9 -39.2 -52.35 -39.5 -51.8 -39.8 -51.35 -40.2 -50.9 -40.65 -50.6 -41.2 -51.0 -41.6 -51.85 -42.3 -52.3 -41.9 -52.7 -41.65 -53.1 -41.35 -53.5 -41.15 -53.9 -40.95 -54.25 -40.85 -54.65 -40.75 -55.05 -40.75 -55.4 -40.75 -55.8 -40.85 -56.15 -40.95 -56.55 -41.15 -56.95 -41.35 -57.4 -41.65 -57.8 -41.9 -58.25 -42.3 -58.7 -41.95 -59.6 -41.15 L-59.6 -41.15 M-36.6 -41.15 Q-36.2 -40.6 -35.65 -40.15 -35.15 -39.75 -34.55 -39.45 -33.95 -39.2 -33.3 -39.05 -32.7 -38.9 -32.05 -38.9 -31.4 -38.9 -30.75 -39.05 -30.1 -39.2 -29.55 -39.45 -28.95 -39.75 -28.45 -40.2 -27.95 -40.6 -27.6 -41.2 -28.0 -41.55 -28.9 -42.35 -29.05 -42.15 -29.25 -42.0 -29.4 -41.85 -29.6 -41.7 -29.75 -41.55 -29.95 -41.45 -30.15 -41.3 -30.3 -41.2 -30.5 -41.1 -30.75 -41.05 -30.95 -40.95 -31.15 -40.9 -31.4 -40.85 -31.6 -40.85 -31.85 -40.8 -32.1 -40.8 -32.35 -40.8 -32.6 -40.85 -32.8 -40.85 -33.05 -40.9 -33.25 -40.95 -33.45 -41.05 -33.65 -41.15 -33.85 -41.25 -34.05 -41.35 -34.25 -41.45 -34.4 -41.6 -34.6 -41.75 -34.75 -41.85 -34.95 -42.0 -35.1 -42.15 -35.3 -42.35 -35.75 -41.9 -36.6 -41.15 L-36.6 -41.15 M-13.6 -41.2 Q-13.25 -40.65 -12.75 -40.2 -12.25 -39.8 -11.7 -39.5 -11.15 -39.2 -10.5 -39.05 -9.85 -38.9 -9.2 -38.9 -8.55 -38.9 -7.95 -39.05 -7.3 -39.2 -6.7 -39.45 -6.05 -39.75 -5.55 -40.15 -5.0 -40.6 -4.6 -41.15 -5.05 -41.55 -5.9 -42.3 -6.35 -41.9 -6.75 -41.65 -7.15 -41.35 -7.55 -41.15 -7.95 -40.95 -8.3 -40.85 -8.7 -40.75 -9.1 -40.75 -9.45 -40.75 -9.85 -40.85 -10.2 -40.95 -10.6 -41.15 -11.0 -41.35 -11.45 -41.65 -11.85 -41.9 -12.35 -42.3 -12.75 -41.95 -13.6 -41.2 L-13.6 -41.2 M17.05 -42.35 Q16.6 -41.95 16.25 -41.65 15.85 -41.35 15.45 -41.2 15.05 -41.0 14.7 -40.9 14.3 -40.8 13.95 -40.8 13.55 -40.8 13.2 -40.85 12.8 -40.95 12.4 -41.15 12.0 -41.35 11.55 -41.65 11.1 -41.9 10.6 -42.3 10.15 -41.9 9.35 -41.1 9.8 -40.55 10.35 -40.15 10.9 -39.7 11.5 -39.45 12.1 -39.15 12.75 -39.05 13.35 -38.9 14.0 -38.9 14.65 -38.9 15.25 -39.05 15.85 -39.2 16.4 -39.5 17.0 -39.75 17.45 -40.2 17.95 -40.6 18.35 -41.15 17.95 -41.55 17.05 -42.35 L17.05 -42.35 M40.0 -42.35 Q39.85 -42.15 39.65 -42.0 39.5 -41.85 39.3 -41.7 39.1 -41.55 38.95 -41.45 38.75 -41.3 38.55 -41.2 38.35 -41.1 38.15 -41.05 37.95 -40.95 37.75 -40.9 37.5 -40.85 37.3 -40.85 37.05 -40.8 36.8 -40.8 36.55 -40.8 36.3 -40.85 36.1 -40.85 35.9 -40.9 35.65 -40.95 35.45 -41.05 35.25 -41.15 35.05 -41.25 34.85 -41.35 34.65 -41.45 34.5 -41.6 34.3 -41.7 34.15 -41.85 33.95 -42.05 33.8 -42.2 33.6 -42.35 33.15 -41.9 32.3 -41.1 32.75 -40.55 33.35 -40.15 33.9 -39.7 34.5 -39.45 35.1 -39.15 35.75 -39.05 36.35 -38.9 37.0 -38.9 37.65 -38.9 38.25 -39.05 38.85 -39.2 39.4 -39.5 39.95 -39.75 40.45 -40.2 40.95 -40.6 41.35 -41.15 41.2 -41.3 40.85 -41.6 40.55 -41.9 40.35 -42.05 40.0 -42.3 40.0 -42.35 L40.0 -42.35 M-9.1 -78.4 Q-9.1 -78.4 -9.1 -78.4 -9.15 -78.4 -9.2 -78.4 -9.25 -78.4 -9.35 -78.4 -9.35 -78.4 -9.45 -78.4 -9.55 -78.4 -9.6 -78.4 -9.65 -78.4 -9.7 -78.4 -9.75 -78.4 -9.8 -78.4 -9.85 -78.4 -9.9 -78.4 -10.0 -78.4 -10.05 -78.4 -10.05 -78.4 -10.15 -78.35 -10.2 -78.35 -10.25 -78.35 -10.3 -78.35 -10.35 -78.3 -10.45 -78.3 -10.5 -78.3 -10.55 -78.25 -10.6 -78.25 -10.65 -78.2 -10.65 -78.2 -10.7 -78.15 -10.75 -78.15 -10.75 -78.1 -10.8 -78.05 -10.8 -78.0 -10.8 -77.95 -10.8 -77.95 -10.8 -77.9 -10.8 -77.85 -10.8 -77.8 -10.8 -77.75 -10.8 -77.7 -10.75 -77.6 -10.75 -77.55 -10.75 -77.5 -10.7 -77.45 -10.7 -77.4 -10.65 -77.35 -10.65 -77.3 -10.6 -77.3 -10.5 -77.15 -10.35 -77.0 -10.2 -76.85 -10.05 -76.75 -9.85 -76.65 -9.7 -76.6 -9.5 -76.55 -9.3 -76.55 -9.15 -76.5 -8.95 -76.5 -8.75 -76.55 -8.55 -76.6 -8.4 -76.65 -8.25 -76.75 -8.05 -76.85 -7.9 -77.0 -7.85 -77.05 -7.8 -77.1 -7.8 -77.15 -7.75 -77.2 -7.7 -77.3 -7.7 -77.35 -7.65 -77.4 -7.65 -77.5 -7.6 -77.55 -7.6 -77.65 -7.5 -77.85 -7.55 -77.8 -7.5 -77.9 -7.5 -77.95 -7.45 -78.0 -7.4 -78.1 -7.55 -78.15 -7.9 -78.25 -8.2 -78.35 -8.4 -78.35 -8.5 -78.4 -9.1 -78.4 L-9.1 -78.4 M-32.1 -55.8 Q-32.1 -55.8 -32.1 -55.85 -32.15 -55.85 -32.2 -55.85 -32.25 -55.85 -32.3 -55.85 -32.35 -55.85 -32.45 -55.85 -32.5 -55.85 -32.55 -55.85 -32.6 -55.85 -32.65 -55.85 -32.7 -55.85 -32.8 -55.85 -32.85 -55.85 -32.9 -55.85 -32.95 -55.85 -33.0 -55.8 -33.05 -55.8 -33.1 -55.8 -33.15 -55.8 -33.2 -55.75 -33.3 -55.75 -33.35 -55.75 -33.4 -55.75 -33.45 -55.7 -33.5 -55.7 -33.55 -55.65 -33.6 -55.65 -33.65 -55.65 -33.65 -55.6 -33.7 -55.55 -33.75 -55.55 -33.75 -55.5 -33.75 -55.45 -33.8 -55.4 -33.8 -55.4 -33.8 -55.35 -33.8 -55.3 -33.75 -55.25 -33.75 -55.15 -33.75 -55.1 -33.75 -55.05 -33.7 -55.0 -33.7 -54.95 -33.7 -54.9 -33.65 -54.85 -33.6 -54.8 -33.6 -54.75 -33.55 -54.7 -33.45 -54.55 -33.3 -54.4 -33.15 -54.3 -33.0 -54.2 -32.85 -54.1 -32.65 -54.05 -32.45 -54.0 -32.3 -53.95 -32.1 -53.95 -31.9 -53.95 -31.7 -54.0 -31.55 -54.05 -31.35 -54.1 -31.2 -54.2 -31.05 -54.3 -30.9 -54.4 -30.85 -54.45 -30.8 -54.5 -30.75 -54.55 -30.7 -54.65 -30.7 -54.7 -30.65 -54.8 -30.65 -54.85 -30.6 -54.95 -30.6 -55.0 -30.55 -55.1 -30.65 -54.75 -30.5 -55.25 -30.45 -55.3 -30.45 -55.4 -30.4 -55.45 -30.4 -55.5 -31.05 -55.75 -31.35 -55.8 -31.45 -55.8 -32.1 -55.8 L-32.1 -55.8 M-43.5 -50.2 Q-43.5 -50.2 -43.5 -50.2 -43.55 -50.2 -43.6 -50.2 -43.65 -50.2 -43.75 -50.2 -43.8 -50.2 -43.85 -50.2 -43.95 -50.2 -44.0 -50.2 -44.05 -50.2 -44.1 -50.2 -44.15 -50.2 -44.2 -50.2 -44.25 -50.2 -44.3 -50.2 -44.4 -50.2 -44.45 -50.15 -44.5 -50.15 -44.55 -50.15 -44.6 -50.15 -44.65 -50.1 -44.75 -50.1 -44.8 -50.1 -44.85 -50.05 -44.9 -50.05 -44.95 -50.05 -45.0 -50.0 -45.05 -50.0 -45.1 -49.95 -45.15 -49.95 -45.2 -49.9 -45.25 -49.85 -45.25 -49.8 -45.25 -49.8 -45.3 -49.75 -45.3 -49.7 -45.3 -49.65 -45.3 -49.6 -45.25 -49.55 -45.25 -49.5 -45.25 -49.45 -45.2 -49.4 -45.2 -49.35 -45.15 -49.3 -45.15 -49.25 -45.1 -49.2 -45.1 -49.15 -45.05 -49.1 -45.0 -49.05 -44.9 -48.9 -44.75 -48.75 -44.6 -48.65 -44.45 -48.55 -44.3 -48.45 -44.1 -48.4 -43.95 -48.35 -43.75 -48.3 -43.6 -48.3 -43.4 -48.3 -43.25 -48.35 -43.05 -48.4 -42.9 -48.45 -42.7 -48.55 -42.55 -48.6 -42.4 -48.75 -42.35 -48.8 -42.3 -48.85 -42.25 -48.9 -42.2 -49.0 -42.2 -49.05 -42.15 -49.1 -42.1 -49.15 -42.1 -49.25 -42.05 -49.3 -42.05 -49.4 -41.95 -49.6 -42.0 -49.55 -41.95 -49.65 -41.9 -49.7 -41.9 -49.75 -41.85 -49.85 -41.95 -49.9 -42.35 -50.0 -42.7 -50.1 -42.9 -50.15 -43.0 -50.2 -43.5 -50.2 L-43.5 -50.2 M-55.0 -55.8 Q-55.0 -55.8 -55.0 -55.8 -55.65 -55.85 -55.9 -55.8 -55.95 -55.8 -56.0 -55.8 -56.1 -55.75 -56.15 -55.75 -56.2 -55.75 -56.3 -55.75 -56.35 -55.7 -56.4 -55.7 -56.45 -55.7 -56.5 -55.65 -56.55 -55.65 -56.6 -55.6 -56.65 -55.6 -56.7 -55.55 -56.7 -55.5 -56.75 -55.5 -56.75 -55.45 -56.75 -55.4 -56.75 -55.35 -56.75 -55.3 -56.75 -55.25 -56.75 -55.15 -56.7 -55.1 -56.7 -55.05 -56.65 -55.0 -56.65 -54.95 -56.6 -54.85 -56.6 -54.8 -56.55 -54.75 -56.5 -54.7 -56.5 -54.65 -56.45 -54.6 -56.35 -54.45 -56.2 -54.35 -56.1 -54.25 -55.95 -54.15 -55.8 -54.1 -55.65 -54.05 -55.5 -54.0 -55.3 -53.95 -55.15 -53.95 -55.0 -53.95 -54.8 -53.95 -54.65 -54.0 -54.5 -54.0 -54.35 -54.1 -54.2 -54.15 -54.05 -54.25 -54.0 -54.3 -53.95 -54.35 -53.9 -54.45 -53.85 -54.5 -53.8 -54.55 -53.75 -54.65 -53.7 -54.7 -53.65 -54.8 -53.6 -54.9 -53.6 -55.0 -53.5 -55.15 -53.5 -55.15 -53.45 -55.25 -53.4 -55.3 -53.35 -55.4 -53.35 -55.45 -54.05 -55.7 -54.45 -55.8 -54.5 -55.8 -55.0 -55.8 L-55.0 -55.8 M25.35 -61.45 Q25.35 -61.45 25.35 -61.45 24.65 -61.5 24.4 -61.45 24.35 -61.45 24.3 -61.45 24.25 -61.4 24.2 -61.4 24.15 -61.4 24.1 -61.4 24.05 -61.35 24.0 -61.35 23.9 -61.35 23.9 -61.3 23.85 -61.3 23.8 -61.25 23.75 -61.25 23.7 -61.2 23.7 -61.2 23.65 -61.15 23.65 -61.1 23.65 -61.05 23.65 -61.05 23.65 -61.0 23.65 -60.95 23.65 -60.85 23.65 -60.8 23.65 -60.75 23.7 -60.7 23.7 -60.65 23.7 -60.6 23.75 -60.55 23.75 -60.5 23.8 -60.45 23.8 -60.4 23.85 -60.35 23.95 -60.2 24.1 -60.05 24.25 -59.9 24.45 -59.85 24.6 -59.75 24.8 -59.7 25.0 -59.6 25.2 -59.6 25.35 -59.6 25.55 -59.6 25.75 -59.65 25.95 -59.7 26.15 -59.75 26.3 -59.85 26.45 -60.0 26.6 -60.15 26.65 -60.2 27.05 -61.15 26.2 -61.4 26.05 -61.45 26.0 -61.45 25.35 -61.45 L25.35 -61.45 M2.4 -61.45 Q2.4 -61.45 2.4 -61.45 1.7 -61.5 1.5 -61.45 1.45 -61.45 1.4 -61.45 1.3 -61.45 1.25 -61.4 1.2 -61.4 1.15 -61.4 1.1 -61.4 1.0 -61.35 0.95 -61.35 0.9 -61.35 0.85 -61.3 0.85 -61.3 0.8 -61.25 0.75 -61.25 0.75 -61.2 0.75 -61.2 0.75 -61.15 0.7 -61.1 0.7 -61.05 0.7 -61.0 0.7 -60.9 0.7 -60.85 0.7 -60.8 0.75 -60.75 0.75 -60.7 0.75 -60.6 0.8 -60.55 0.8 -60.5 0.85 -60.45 0.85 -60.4 0.9 -60.35 0.9 -60.3 1.0 -60.15 1.15 -60.0 1.3 -59.9 1.5 -59.8 1.65 -59.75 1.8 -59.65 2.0 -59.6 2.15 -59.6 2.35 -59.6 2.55 -59.6 2.7 -59.6 2.9 -59.65 3.05 -59.7 3.25 -59.8 3.4 -59.9 3.55 -60.05 3.6 -60.1 3.65 -60.15 3.7 -60.2 3.7 -60.25 3.75 -60.35 3.8 -60.4 3.8 -60.45 3.85 -60.55 3.85 -60.6 3.9 -60.7 4.0 -60.9 3.95 -60.85 4.0 -60.9 4.0 -61.0 4.05 -61.05 4.1 -61.15 3.9 -61.2 3.55 -61.3 3.2 -61.4 3.0 -61.45 2.95 -61.45 2.4 -61.45 L2.4 -61.45 M-20.6 -61.45 Q-20.6 -61.45 -20.6 -61.45 -21.25 -61.5 -21.5 -61.45 -21.55 -61.45 -21.6 -61.45 -21.65 -61.4 -21.75 -61.4 -21.8 -61.4 -21.85 -61.4 -21.9 -61.35 -21.95 -61.35 -22.0 -61.35 -22.05 -61.3 -22.1 -61.3 -22.15 -61.25 -22.2 -61.25 -22.2 -61.25 -22.25 -61.2 -22.25 -61.15 -22.25 -61.1 -22.25 -61.05 -22.25 -61.0 -22.25 -60.95 -22.25 -60.9 -22.25 -60.85 -22.25 -60.8 -22.25 -60.7 -22.2 -60.65 -22.2 -60.6 -22.15 -60.55 -22.15 -60.5 -22.1 -60.45 -22.1 -60.4 -22.05 -60.35 -22.05 -60.3 -21.95 -60.15 -21.8 -60.05 -21.65 -59.9 -21.5 -59.8 -21.35 -59.75 -21.15 -59.7 -21.0 -59.6 -20.8 -59.6 -20.65 -59.6 -20.45 -59.6 -20.3 -59.6 -20.15 -59.65 -19.95 -59.7 -19.8 -59.8 -19.65 -59.85 -19.5 -60.0 -19.45 -60.05 -19.4 -60.1 -19.35 -60.15 -19.3 -60.25 -19.25 -60.3 -19.25 -60.35 -19.2 -60.45 -19.15 -60.5 -19.15 -60.6 -19.1 -60.7 -19.5 -59.7 -19.05 -60.85 -19.0 -60.95 -18.95 -61.0 -18.95 -61.1 -18.9 -61.15 -19.95 -61.45 -19.95 -61.45 -20.0 -61.45 -20.6 -61.45 L-20.6 -61.45 M-43.5 -61.45 Q-43.5 -61.45 -43.5 -61.45 -44.25 -61.5 -44.45 -61.45 -44.5 -61.45 -44.55 -61.45 -44.65 -61.4 -44.7 -61.4 -44.75 -61.4 -44.8 -61.35 -44.85 -61.35 -44.95 -61.35 -45.0 -61.3 -45.05 -61.3 -45.1 -61.25 -45.15 -61.25 -45.2 -61.2 -45.2 -61.2 -45.25 -61.15 -45.25 -61.1 -45.25 -61.05 -45.25 -61.0 -45.25 -60.95 -45.25 -60.9 -45.25 -60.85 -45.25 -60.8 -45.25 -60.75 -45.2 -60.7 -45.2 -60.6 -45.15 -60.55 -45.15 -60.5 -45.1 -60.45 -45.05 -60.4 -45.05 -60.35 -45.0 -60.3 -44.95 -60.25 -44.85 -60.1 -44.7 -60.0 -44.6 -59.9 -44.45 -59.8 -44.3 -59.75 -44.15 -59.7 -44.0 -59.65 -43.8 -59.6 -43.65 -59.6 -43.5 -59.6 -43.35 -59.6 -43.15 -59.65 -43.0 -59.65 -42.85 -59.75 -42.7 -59.8 -42.6 -59.9 -42.55 -59.95 -42.45 -60.0 -42.4 -60.1 -42.35 -60.15 -42.3 -60.2 -42.25 -60.3 -42.2 -60.35 -42.2 -60.45 -42.15 -60.55 -42.1 -60.6 -42.15 -60.55 -42.0 -60.8 -41.95 -60.9 -41.95 -60.95 -41.9 -61.05 -41.85 -61.1 -42.65 -61.35 -43.0 -61.45 -43.0 -61.45 -43.5 -61.45 L-43.5 -61.45 M-54.9 -42.55 Q-53.65 -43.4 -53.55 -43.45 -53.5 -43.5 -53.5 -43.5 -53.45 -43.55 -53.45 -43.6 -53.45 -43.65 -53.4 -43.7 -53.4 -43.75 -53.4 -43.8 -53.35 -43.85 -53.35 -43.95 -53.35 -44.0 -53.35 -44.05 -53.35 -44.1 -53.35 -44.15 -53.4 -44.2 -53.4 -44.25 -53.4 -44.3 -53.45 -44.3 -53.45 -44.35 -53.5 -44.35 -53.55 -44.4 -53.6 -44.4 -53.65 -44.4 -53.7 -44.45 -53.75 -44.45 -53.8 -44.5 -53.85 -44.5 -53.9 -44.5 -53.95 -44.5 -54.05 -44.5 -54.1 -44.55 -54.15 -44.55 -54.25 -44.55 -54.35 -44.55 -54.45 -44.55 -54.5 -44.55 -54.6 -44.55 -54.7 -44.55 -54.8 -44.55 -54.9 -44.55 -55.0 -44.55 -55.1 -44.55 -55.2 -44.55 -55.3 -44.55 -55.4 -44.55 -55.45 -44.55 -55.55 -44.55 -55.65 -44.5 -55.8 -44.5 -56.8 -44.15 -56.15 -43.1 -56.1 -43.05 -56.05 -43.0 -54.9 -42.55 L-54.9 -42.55 M-32.05 -44.55 Q-32.05 -44.55 -32.05 -44.55 -32.95 -44.55 -33.0 -44.55 -32.4 -44.7 -33.1 -44.55 -33.15 -44.5 -33.2 -44.5 -33.25 -44.5 -33.3 -44.45 -33.4 -44.45 -33.45 -44.45 -33.5 -44.4 -33.55 -44.4 -33.6 -44.4 -33.6 -44.35 -33.65 -44.35 -33.7 -44.3 -33.75 -44.25 -33.75 -44.25 -33.75 -44.2 -33.75 -44.15 -33.8 -44.1 -33.8 -44.05 -33.8 -44.0 -33.75 -43.95 -33.75 -43.9 -33.75 -43.85 -33.75 -43.8 -33.7 -43.75 -33.7 -43.7 -33.7 -43.65 -33.65 -43.6 -33.65 -43.55 -33.6 -43.5 -33.6 -43.45 -33.5 -43.3 -33.35 -43.15 -33.2 -43.0 -33.0 -42.9 -32.85 -42.8 -32.65 -42.75 -32.45 -42.7 -32.25 -42.7 -32.05 -42.65 -31.85 -42.7 -31.65 -42.7 -31.5 -42.8 -31.3 -42.85 -31.15 -42.95 -30.95 -43.05 -30.8 -43.2 -30.8 -43.2 -30.4 -44.25 -30.5 -44.25 -30.85 -44.4 -31.15 -44.5 -31.35 -44.55 -31.4 -44.55 -31.45 -44.55 -31.5 -44.55 -31.55 -44.55 -31.55 -44.55 -31.6 -44.55 -31.65 -44.55 -31.7 -44.55 -31.75 -44.55 -31.8 -44.55 -31.85 -44.55 -31.9 -44.55 -31.95 -44.55 -32.0 -44.55 -32.05 -44.55 -32.05 -44.55 L-32.05 -44.55 M-9.0 -44.55 Q-9.0 -44.55 -9.0 -44.55 -9.95 -44.55 -10.15 -44.55 -10.2 -44.55 -10.25 -44.55 -10.3 -44.5 -10.35 -44.5 -10.4 -44.5 -10.45 -44.5 -10.5 -44.45 -10.5 -44.45 -10.55 -44.4 -10.6 -44.4 -10.65 -44.35 -10.7 -44.35 -10.7 -44.3 -10.75 -44.3 -10.75 -44.25 -10.8 -44.25 -10.8 -44.2 -10.8 -44.15 -10.85 -44.15 -10.85 -44.1 -10.85 -44.05 -10.8 -44.0 -10.8 -43.95 -10.8 -43.9 -10.8 -43.85 -10.8 -43.8 -10.75 -43.75 -10.75 -43.7 -10.75 -43.65 -10.7 -43.6 -10.7 -43.55 -10.65 -43.5 -10.55 -43.35 -10.4 -43.2 -10.3 -43.1 -10.15 -43.0 -10.0 -42.9 -9.8 -42.8 -9.65 -42.75 -9.45 -42.7 -9.3 -42.65 -9.1 -42.65 -8.9 -42.65 -8.75 -42.7 -8.55 -42.75 -8.4 -42.85 -8.2 -42.9 -8.05 -43.05 -8.0 -43.1 -7.95 -43.15 -7.9 -43.2 -7.85 -43.25 -7.8 -43.35 -7.75 -43.4 -7.75 -43.45 -7.7 -43.55 -7.65 -43.6 -7.6 -43.7 -7.5 -43.95 -7.55 -43.85 -7.5 -43.95 -7.45 -44.0 -7.4 -44.1 -7.4 -44.15 -8.2 -44.45 -8.5 -44.55 -8.55 -44.55 -8.55 -44.55 -8.6 -44.55 -8.65 -44.55 -8.65 -44.55 -8.7 -44.55 -8.7 -44.55 -8.75 -44.55 -8.8 -44.55 -8.8 -44.55 -8.85 -44.55 -8.9 -44.55 -8.95 -44.55 -8.95 -44.55 -9.0 -44.55 -9.0 -44.55 L-9.0 -44.55 M36.8 -67.1 Q36.05 -67.1 36.0 -67.1 35.95 -67.1 35.9 -67.1 35.8 -67.05 35.75 -67.05 35.65 -67.05 35.6 -67.0 35.55 -67.0 35.5 -67.0 35.4 -66.95 35.35 -66.95 35.3 -66.9 35.25 -66.9 35.25 -66.85 35.2 -66.85 35.15 -66.8 35.15 -66.8 35.15 -66.75 35.15 -66.7 35.1 -66.65 35.15 -66.6 35.15 -66.55 35.15 -66.45 35.15 -66.4 35.2 -66.35 35.2 -66.3 35.2 -66.25 35.25 -66.15 35.3 -66.1 35.3 -66.05 35.35 -66.0 35.4 -65.95 35.4 -65.9 35.55 -65.75 35.7 -65.6 35.85 -65.5 36.05 -65.4 36.2 -65.35 36.4 -65.3 36.6 -65.25 36.8 -65.25 37.0 -65.25 37.15 -65.25 37.35 -65.3 37.55 -65.4 37.7 -65.45 37.9 -65.55 38.05 -65.7 38.2 -65.85 38.25 -65.9 38.25 -65.95 38.3 -66.0 38.35 -66.05 38.35 -66.1 38.35 -66.2 38.4 -66.25 38.4 -66.3 38.45 -66.35 38.45 -66.45 38.45 -66.5 38.45 -66.55 38.45 -66.65 38.45 -66.7 38.45 -66.75 38.45 -66.8 38.45 -66.85 38.45 -66.85 38.4 -66.85 38.35 -66.9 38.3 -66.9 38.25 -66.95 38.2 -66.95 38.15 -67.0 38.1 -67.0 38.0 -67.0 37.95 -67.05 37.9 -67.05 37.8 -67.05 37.75 -67.05 37.7 -67.1 37.6 -67.1 37.6 -67.1 36.8 -67.1 L36.8 -67.1 M36.8 -44.55 Q36.8 -44.55 36.8 -44.55 35.95 -44.55 35.9 -44.55 35.8 -44.55 35.8 -44.55 35.75 -44.5 35.7 -44.5 35.6 -44.5 35.55 -44.45 35.5 -44.45 35.45 -44.45 35.4 -44.4 35.35 -44.4 35.3 -44.35 35.25 -44.35 35.25 -44.3 35.2 -44.3 35.15 -44.25 35.15 -44.25 35.15 -44.2 35.15 -44.15 35.1 -44.1 35.1 -44.05 35.1 -44.0 35.15 -43.95 35.15 -43.9 35.15 -43.85 35.15 -43.8 35.2 -43.75 35.2 -43.7 35.25 -43.65 35.25 -43.6 35.3 -43.55 35.3 -43.5 35.35 -43.45 35.45 -43.3 35.6 -43.15 35.75 -43.0 35.95 -42.9 36.1 -42.8 36.3 -42.75 36.45 -42.7 36.65 -42.7 36.85 -42.65 37.05 -42.7 37.25 -42.7 37.45 -42.8 37.6 -42.85 37.8 -42.95 37.95 -43.05 38.1 -43.2 38.1 -43.25 38.5 -44.25 37.55 -44.55 37.55 -44.55 37.5 -44.55 37.45 -44.55 37.4 -44.55 37.35 -44.55 37.35 -44.55 37.3 -44.55 37.25 -44.55 37.2 -44.55 37.15 -44.55 37.1 -44.55 37.05 -44.55 37.0 -44.55 36.95 -44.55 36.9 -44.55 36.85 -44.55 36.8 -44.55 L36.8 -44.55 M59.75 -44.55 Q58.95 -44.55 58.9 -44.55 58.9 -44.55 58.7 -44.5 58.6 -44.5 58.55 -44.45 58.45 -44.45 58.35 -44.4 58.25 -44.4 58.2 -44.35 58.15 -44.3 58.15 -44.25 58.15 -44.2 58.15 -44.15 58.1 -44.1 58.1 -44.05 58.15 -44.0 58.15 -43.95 58.15 -43.9 58.15 -43.8 58.15 -43.75 58.2 -43.7 58.2 -43.65 58.25 -43.6 58.25 -43.55 58.3 -43.5 58.3 -43.45 58.35 -43.4 58.5 -43.25 58.65 -43.1 58.8 -42.95 59.0 -42.85 59.15 -42.8 59.35 -42.75 59.55 -42.7 59.75 -42.7 59.95 -42.65 60.15 -42.7 60.35 -42.75 60.5 -42.85 60.7 -42.9 60.9 -43.05 61.05 -43.15 61.2 -43.3 61.25 -43.35 61.25 -43.4 61.3 -43.45 61.3 -43.5 61.35 -43.55 61.4 -43.65 61.4 -43.7 61.4 -43.75 61.45 -43.8 61.45 -43.85 61.45 -43.95 61.45 -44.0 61.5 -44.05 61.45 -44.1 61.45 -44.15 61.45 -44.2 61.45 -44.25 61.4 -44.25 61.4 -44.3 61.35 -44.3 61.3 -44.35 61.25 -44.35 61.2 -44.4 61.15 -44.4 61.1 -44.45 61.0 -44.45 60.95 -44.45 60.9 -44.5 60.85 -44.5 60.75 -44.5 60.7 -44.5 60.65 -44.55 60.6 -44.55 60.55 -44.55 60.5 -44.55 60.4 -44.55 60.35 -44.55 60.3 -44.55 60.25 -44.55 60.2 -44.55 60.15 -44.55 60.05 -44.55 60.0 -44.55 59.95 -44.55 59.9 -44.55 59.85 -44.55 59.8 -44.55 59.75 -44.55 L59.75 -44.55 M-20.55 -50.2 Q-20.55 -50.2 -20.55 -50.2 -20.6 -50.2 -20.65 -50.2 -20.7 -50.2 -20.8 -50.2 -20.8 -50.2 -20.9 -50.2 -20.95 -50.2 -21.0 -50.2 -21.05 -50.2 -21.1 -50.2 -21.2 -50.2 -21.25 -50.2 -21.3 -50.2 -21.35 -50.2 -21.4 -50.2 -21.45 -50.15 -21.5 -50.15 -21.55 -50.15 -21.65 -50.15 -21.7 -50.1 -21.75 -50.1 -21.8 -50.1 -21.9 -50.05 -21.95 -50.05 -22.0 -50.05 -22.05 -50.0 -22.1 -50.0 -22.15 -49.95 -22.2 -49.95 -22.25 -49.9 -22.25 -49.85 -22.3 -49.8 -22.3 -49.8 -22.3 -49.75 -22.35 -49.7 -22.3 -49.65 -22.3 -49.6 -22.3 -49.55 -22.3 -49.5 -22.25 -49.45 -22.25 -49.4 -22.25 -49.35 -22.2 -49.3 -22.2 -49.25 -22.15 -49.2 -22.1 -49.15 -22.1 -49.1 -22.05 -49.05 -21.95 -48.9 -21.8 -48.75 -21.65 -48.65 -21.5 -48.55 -21.35 -48.45 -21.15 -48.4 -21.0 -48.35 -20.8 -48.3 -20.6 -48.3 -20.45 -48.3 -20.25 -48.35 -20.1 -48.4 -19.9 -48.45 -19.75 -48.55 -19.6 -48.6 -19.45 -48.75 -19.4 -48.8 -18.9 -49.85 -18.95 -49.85 -19.4 -50.0 -19.7 -50.1 -19.95 -50.15 -20.0 -50.2 -20.55 -50.2 L-20.55 -50.2 M2.4 -50.2 Q2.4 -50.2 2.4 -50.2 2.35 -50.2 2.3 -50.2 2.25 -50.2 2.2 -50.2 2.15 -50.2 2.05 -50.2 2.0 -50.2 1.95 -50.2 1.9 -50.2 1.85 -50.2 1.8 -50.2 1.75 -50.2 1.65 -50.2 1.6 -50.2 1.55 -50.2 1.5 -50.15 1.45 -50.15 1.4 -50.15 1.35 -50.15 1.25 -50.1 1.2 -50.1 1.15 -50.1 1.1 -50.05 1.05 -50.05 0.95 -50.05 0.9 -50.0 0.85 -50.0 0.85 -49.95 0.8 -49.95 0.75 -49.9 0.7 -49.85 0.7 -49.8 0.7 -49.8 0.65 -49.75 0.65 -49.7 0.65 -49.65 0.65 -49.6 0.65 -49.55 0.7 -49.5 0.7 -49.45 0.7 -49.4 0.75 -49.35 0.75 -49.3 0.8 -49.25 0.8 -49.2 0.85 -49.15 0.9 -49.1 0.9 -49.05 1.0 -48.9 1.15 -48.75 1.3 -48.65 1.45 -48.55 1.65 -48.45 1.8 -48.4 2.0 -48.35 2.15 -48.3 2.35 -48.3 2.5 -48.3 2.7 -48.35 2.9 -48.4 3.05 -48.45 3.2 -48.55 3.4 -48.6 3.5 -48.75 3.6 -48.8 4.1 -49.85 3.95 -49.9 3.55 -50.0 3.25 -50.1 3.05 -50.15 2.95 -50.2 2.4 -50.2 L2.4 -50.2 M25.35 -50.2 Q25.35 -50.2 25.35 -50.2 25.3 -50.2 25.25 -50.2 25.15 -50.2 25.1 -50.2 25.1 -50.2 25.0 -50.2 24.9 -50.2 24.85 -50.2 24.8 -50.2 24.75 -50.2 24.7 -50.2 24.65 -50.2 24.6 -50.2 24.5 -50.2 24.45 -50.2 24.4 -50.2 24.4 -50.2 24.3 -50.15 24.25 -50.15 24.2 -50.15 24.15 -50.15 24.1 -50.1 24.0 -50.1 23.95 -50.05 23.9 -50.05 23.85 -50.05 23.8 -50.0 23.8 -50.0 23.75 -49.95 23.7 -49.95 23.7 -49.9 23.65 -49.85 23.65 -49.8 23.65 -49.75 23.65 -49.75 23.65 -49.7 23.65 -49.65 23.65 -49.6 23.65 -49.55 23.65 -49.45 23.7 -49.4 23.7 -49.35 23.7 -49.3 23.75 -49.25 23.75 -49.2 23.8 -49.15 23.85 -49.1 23.85 -49.05 23.95 -48.9 24.1 -48.75 24.25 -48.65 24.45 -48.55 24.6 -48.45 24.75 -48.4 24.95 -48.35 25.15 -48.3 25.35 -48.3 25.5 -48.3 25.7 -48.35 25.9 -48.4 26.05 -48.45 26.25 -48.55 26.4 -48.65 26.55 -48.8 26.6 -48.85 26.65 -48.9 26.7 -48.95 26.7 -49.0 26.75 -49.1 26.75 -49.15 26.8 -49.2 26.85 -49.3 26.85 -49.35 26.9 -49.45 27.0 -49.8 26.9 -49.6 26.95 -49.7 26.95 -49.75 27.0 -49.85 27.05 -49.9 26.95 -49.95 26.55 -50.05 26.25 -50.15 26.05 -50.15 25.95 -50.2 25.35 -50.2 L25.35 -50.2 M48.35 -50.2 Q48.35 -50.2 48.35 -50.2 48.3 -50.2 48.25 -50.2 48.15 -50.2 48.1 -50.2 48.05 -50.2 48.0 -50.2 47.9 -50.2 47.85 -50.2 47.8 -50.2 47.75 -50.2 47.7 -50.2 47.65 -50.2 47.6 -50.2 47.5 -50.2 47.45 -50.2 47.4 -50.2 47.45 -50.2 47.25 -50.15 47.1 -50.15 47.05 -50.1 46.95 -50.1 46.85 -50.05 46.75 -50.0 46.7 -50.0 46.65 -49.95 46.65 -49.9 46.65 -49.85 46.65 -49.8 46.65 -49.75 46.65 -49.7 46.65 -49.65 46.65 -49.55 46.65 -49.5 46.65 -49.45 46.7 -49.4 46.7 -49.35 46.75 -49.25 46.75 -49.2 46.8 -49.15 46.8 -49.1 46.85 -49.05 46.85 -49.0 46.95 -48.85 47.1 -48.75 47.25 -48.6 47.4 -48.55 47.55 -48.45 47.75 -48.4 47.9 -48.35 48.1 -48.3 48.25 -48.3 48.45 -48.3 48.6 -48.3 48.75 -48.35 48.95 -48.4 49.1 -48.5 49.25 -48.6 49.4 -48.7 49.45 -48.75 49.5 -48.8 49.55 -48.85 49.6 -48.95 49.65 -49.0 49.7 -49.1 49.7 -49.15 49.75 -49.25 49.75 -49.3 49.8 -49.4 50.1 -50.15 49.85 -49.55 49.9 -49.65 49.95 -49.7 50.0 -49.8 50.0 -49.85 49.25 -50.1 48.95 -50.15 48.85 -50.2 48.35 -50.2 L48.35 -50.2 M36.85 -55.8 Q36.85 -55.8 36.85 -55.85 36.75 -55.85 36.4 -55.85 36.1 -55.85 35.95 -55.8 35.9 -55.8 35.85 -55.8 35.8 -55.8 35.7 -55.75 35.65 -55.75 35.6 -55.75 35.55 -55.75 35.5 -55.7 35.4 -55.7 35.35 -55.7 35.3 -55.65 35.3 -55.65 35.25 -55.65 35.2 -55.6 35.2 -55.6 35.2 -55.55 35.2 -55.5 35.15 -55.45 35.15 -55.4 35.15 -55.35 35.15 -55.3 35.15 -55.2 35.2 -55.15 35.2 -55.1 35.2 -55.05 35.2 -55.0 35.25 -54.95 35.25 -54.85 35.3 -54.8 35.3 -54.75 35.35 -54.7 35.4 -54.65 35.5 -54.5 35.65 -54.4 35.8 -54.25 35.95 -54.15 36.1 -54.1 36.3 -54.05 36.45 -54.0 36.65 -53.95 36.8 -53.95 37.0 -53.95 37.15 -53.95 37.35 -54.05 37.5 -54.1 37.7 -54.2 37.85 -54.25 38.0 -54.4 38.05 -54.45 38.1 -54.5 38.15 -54.55 38.15 -54.65 38.2 -54.7 38.25 -54.75 38.25 -54.8 38.3 -54.9 38.3 -54.95 38.35 -55.05 38.45 -55.25 38.4 -55.2 38.45 -55.3 38.45 -55.35 38.5 -55.4 38.55 -55.5 38.4 -55.55 38.0 -55.65 37.65 -55.75 37.45 -55.8 37.4 -55.8 36.85 -55.8 L36.85 -55.8 M13.8 -67.1 Q13.8 -67.1 13.8 -67.1 13.1 -67.1 12.95 -67.1 12.9 -67.1 12.85 -67.1 12.8 -67.05 12.75 -67.05 12.65 -67.05 12.6 -67.05 12.55 -67.0 12.5 -67.0 12.45 -67.0 12.4 -66.95 12.35 -66.95 12.3 -66.9 12.25 -66.9 12.25 -66.85 12.2 -66.85 12.2 -66.8 12.2 -66.75 12.2 -66.7 12.2 -66.65 12.2 -66.6 12.2 -66.55 12.2 -66.5 12.2 -66.4 12.2 -66.35 12.25 -66.3 12.25 -66.25 12.3 -66.2 12.3 -66.15 12.35 -66.1 12.35 -66.05 12.4 -66.0 12.4 -65.95 12.55 -65.8 12.7 -65.65 12.85 -65.5 13.05 -65.4 13.25 -65.35 13.45 -65.3 13.6 -65.25 13.8 -65.25 14.0 -65.25 14.2 -65.25 14.4 -65.3 14.6 -65.4 14.8 -65.5 14.95 -65.6 15.1 -65.75 15.25 -65.9 15.3 -65.95 15.3 -66.0 15.35 -66.05 15.4 -66.1 15.4 -66.15 15.45 -66.2 15.45 -66.25 15.5 -66.35 15.5 -66.4 15.5 -66.45 15.55 -66.5 15.55 -66.55 15.55 -66.6 15.55 -66.65 15.55 -66.7 15.5 -66.75 15.5 -66.8 15.45 -66.8 15.45 -66.85 15.4 -66.9 15.35 -66.9 15.3 -66.95 15.25 -66.95 15.2 -67.0 15.15 -67.0 15.05 -67.0 15.0 -67.05 14.95 -67.05 14.9 -67.05 14.8 -67.05 14.75 -67.1 14.7 -67.1 14.65 -67.1 13.8 -67.1 L13.8 -67.1 M-9.05 -67.1 Q-9.05 -67.1 -9.05 -67.1 -9.85 -67.1 -10.0 -67.1 -10.1 -67.1 -10.1 -67.05 -10.15 -67.05 -10.2 -67.05 -10.3 -67.05 -10.35 -67.0 -10.4 -67.0 -10.45 -67.0 -10.5 -66.95 -10.55 -66.95 -10.6 -66.9 -10.65 -66.9 -10.7 -66.85 -10.75 -66.8 -10.8 -66.8 -10.8 -66.75 -10.8 -66.7 -10.85 -66.7 -10.85 -66.65 -10.85 -66.6 -10.85 -66.55 -10.8 -66.5 -10.8 -66.45 -10.8 -66.4 -10.75 -66.3 -10.75 -66.25 -10.7 -66.2 -10.7 -66.15 -10.65 -66.1 -10.65 -66.05 -10.6 -66.0 -10.55 -65.95 -10.45 -65.8 -10.3 -65.65 -10.15 -65.55 -10.0 -65.45 -9.85 -65.35 -9.65 -65.3 -9.5 -65.25 -9.3 -65.25 -9.15 -65.2 -8.95 -65.25 -8.8 -65.25 -8.6 -65.3 -8.45 -65.35 -8.25 -65.45 -8.1 -65.55 -7.95 -65.65 -7.9 -65.7 -7.85 -65.75 -7.8 -65.8 -7.75 -65.9 -7.75 -65.95 -7.7 -66.05 -7.65 -66.1 -7.65 -66.15 -7.6 -66.25 -7.6 -66.3 -7.5 -66.5 -7.5 -66.45 -7.5 -66.55 -7.45 -66.6 -7.45 -66.7 -7.4 -66.75 -8.25 -67.05 -8.45 -67.1 -8.5 -67.1 -8.5 -67.1 -8.55 -67.1 -8.6 -67.1 -8.65 -67.1 -8.65 -67.1 -8.7 -67.1 -8.75 -67.1 -8.8 -67.1 -8.85 -67.1 -8.9 -67.1 -8.9 -67.1 -8.95 -67.1 -9.0 -67.1 -9.05 -67.1 -9.05 -67.1 L-9.05 -67.1 M-32.05 -67.1 Q-32.05 -67.1 -32.05 -67.1 -32.85 -67.1 -33.0 -67.1 -33.05 -67.1 -33.1 -67.1 -33.15 -67.05 -33.2 -67.05 -33.3 -67.05 -33.35 -67.05 -33.4 -67.0 -33.45 -67.0 -33.5 -67.0 -33.55 -66.95 -33.6 -66.95 -33.65 -66.9 -33.7 -66.9 -33.7 -66.85 -33.75 -66.85 -33.75 -66.8 -33.75 -66.75 -33.75 -66.7 -33.75 -66.65 -33.75 -66.6 -33.75 -66.55 -33.75 -66.5 -33.75 -66.4 -33.7 -66.35 -33.7 -66.3 -33.7 -66.25 -33.65 -66.2 -33.65 -66.15 -33.6 -66.1 -33.6 -66.05 -33.55 -66.0 -33.5 -65.95 -33.4 -65.8 -33.25 -65.7 -33.1 -65.55 -32.95 -65.45 -32.8 -65.4 -32.65 -65.3 -32.5 -65.25 -32.3 -65.25 -32.15 -65.2 -31.95 -65.25 -31.8 -65.25 -31.6 -65.3 -31.45 -65.35 -31.3 -65.45 -31.1 -65.5 -31.0 -65.65 -30.95 -65.7 -30.9 -65.75 -30.85 -65.8 -30.8 -65.9 -30.75 -65.95 -30.7 -66.0 -30.7 -66.1 -30.65 -66.15 -30.6 -66.25 -30.6 -66.3 -30.6 -66.3 -30.5 -66.5 -30.5 -66.55 -30.45 -66.65 -30.4 -66.7 -30.4 -66.8 -30.5 -66.8 -30.9 -66.95 -31.25 -67.05 -31.45 -67.1 -31.5 -67.1 -31.5 -67.1 -31.55 -67.1 -31.6 -67.1 -31.65 -67.1 -31.7 -67.1 -31.7 -67.1 -31.75 -67.1 -31.8 -67.1 -31.85 -67.1 -31.9 -67.1 -31.9 -67.1 -31.95 -67.1 -32.0 -67.1 -32.05 -67.1 -32.05 -67.1 L-32.05 -67.1 M25.35 -72.75 Q25.35 -72.75 25.35 -72.75 24.5 -72.75 24.45 -72.75 24.3 -72.7 24.35 -72.75 24.25 -72.7 24.2 -72.7 24.15 -72.7 24.1 -72.65 24.05 -72.65 24.0 -72.65 23.95 -72.6 23.9 -72.6 23.85 -72.6 23.8 -72.55 23.75 -72.55 23.75 -72.5 23.7 -72.5 23.7 -72.45 23.7 -72.4 23.7 -72.35 23.65 -72.3 23.65 -72.25 23.7 -72.2 23.7 -72.15 23.7 -72.05 23.7 -72.0 23.7 -71.95 23.75 -71.9 23.75 -71.85 23.8 -71.8 23.8 -71.75 23.85 -71.7 23.85 -71.65 23.9 -71.6 24.0 -71.45 24.15 -71.3 24.3 -71.2 24.45 -71.1 24.6 -71.0 24.75 -70.95 24.95 -70.9 25.1 -70.9 25.3 -70.85 25.45 -70.85 25.65 -70.9 25.8 -70.95 25.95 -71.0 26.15 -71.05 26.3 -71.15 26.45 -71.25 26.5 -71.3 26.55 -71.35 26.6 -71.4 26.65 -71.5 26.65 -71.55 26.7 -71.65 26.75 -71.7 26.8 -71.8 26.8 -71.85 26.85 -71.95 26.9 -72.1 26.9 -72.1 26.95 -72.2 26.95 -72.25 27.0 -72.35 27.05 -72.4 26.3 -72.65 26.0 -72.75 25.95 -72.75 25.9 -72.75 25.9 -72.75 25.85 -72.75 25.8 -72.75 25.75 -72.75 25.75 -72.75 25.7 -72.75 25.65 -72.75 25.6 -72.75 25.55 -72.75 25.5 -72.75 25.5 -72.75 25.45 -72.75 25.4 -72.75 25.35 -72.75 L25.35 -72.75 M13.9 -44.55 Q13.9 -44.55 13.9 -44.55 13.0 -44.55 13.0 -44.55 12.9 -44.55 12.9 -44.5 12.8 -44.5 12.75 -44.5 12.7 -44.45 12.65 -44.45 12.55 -44.45 12.5 -44.4 12.45 -44.4 12.4 -44.35 12.35 -44.35 12.3 -44.3 12.25 -44.3 12.25 -44.25 12.2 -44.2 12.15 -44.2 12.15 -44.15 12.15 -44.15 12.1 -44.1 12.15 -44.05 12.15 -44.0 12.15 -43.95 12.15 -43.9 12.2 -43.8 12.2 -43.75 12.2 -43.7 12.25 -43.65 12.3 -43.6 12.3 -43.55 12.35 -43.5 12.35 -43.45 12.4 -43.4 12.5 -43.25 12.65 -43.1 12.8 -43.0 12.95 -42.9 13.1 -42.8 13.3 -42.75 13.45 -42.7 13.65 -42.7 13.85 -42.65 14.0 -42.7 14.2 -42.7 14.35 -42.75 14.55 -42.8 14.7 -42.9 14.85 -43.0 15.0 -43.1 15.05 -43.15 15.55 -44.2 14.65 -44.5 14.5 -44.55 14.45 -44.55 14.45 -44.55 14.4 -44.55 14.35 -44.55 14.35 -44.55 14.3 -44.55 14.25 -44.55 14.2 -44.55 14.2 -44.55 14.15 -44.55 14.1 -44.55 14.05 -44.55 14.0 -44.55 14.0 -44.55 13.95 -44.55 13.9 -44.55 L13.9 -44.55 M-66.45 -38.9 Q-66.45 -38.9 -66.45 -38.9 -67.3 -38.95 -67.5 -38.9 -67.55 -38.9 -67.6 -38.9 -67.65 -38.85 -67.7 -38.85 -67.75 -38.85 -67.8 -38.8 -67.85 -38.8 -67.9 -38.8 -67.95 -38.75 -68.0 -38.75 -68.05 -38.7 -68.1 -38.7 -68.15 -38.65 -68.15 -38.65 -68.2 -38.6 -68.2 -38.55 -68.2 -38.55 -68.25 -38.5 -68.25 -38.45 -68.25 -38.4 -68.25 -38.35 -68.25 -38.35 -68.25 -38.3 -68.25 -38.25 -68.2 -38.2 -68.2 -38.15 -68.2 -38.1 -68.15 -38.05 -68.15 -38.0 -68.1 -37.95 -68.1 -37.9 -68.05 -37.85 -67.95 -37.7 -67.85 -37.55 -67.7 -37.45 -67.55 -37.35 -67.4 -37.25 -67.25 -37.2 -67.1 -37.1 -66.9 -37.05 -66.75 -37.05 -66.55 -37.05 -66.4 -37.05 -66.2 -37.05 -66.05 -37.1 -65.85 -37.15 -65.7 -37.25 -65.55 -37.35 -65.5 -37.4 -65.45 -37.45 -65.4 -37.5 -65.35 -37.6 -65.3 -37.65 -65.25 -37.75 -65.2 -37.8 -65.15 -37.9 -65.1 -37.95 -65.05 -38.05 -64.85 -38.5 -65.0 -38.2 -64.95 -38.3 -64.9 -38.4 -64.85 -38.45 -64.8 -38.55 -65.0 -38.6 -65.4 -38.7 -65.75 -38.85 -65.95 -38.9 -66.0 -38.9 -66.0 -38.9 -66.05 -38.9 -66.05 -38.9 -66.1 -38.9 -66.15 -38.9 -66.15 -38.9 -66.2 -38.9 -66.25 -38.9 -66.25 -38.9 -66.3 -38.9 -66.35 -38.9 -66.35 -38.9 -66.4 -38.9 -66.45 -38.9 -66.45 -38.9 L-66.45 -38.9 M-43.4 -36.9 Q-42.1 -37.8 -42.0 -37.9 -41.9 -38.0 -41.85 -38.1 -41.8 -38.2 -41.8 -38.3 -41.75 -38.4 -41.8 -38.45 -41.8 -38.55 -41.85 -38.6 -41.9 -38.7 -41.95 -38.75 -42.0 -38.8 -42.1 -38.85 -42.2 -38.85 -42.3 -38.9 -42.45 -38.9 -42.6 -38.9 -43.7 -38.95 -44.2 -38.9 -44.2 -38.9 -45.3 -38.6 -44.75 -37.5 -44.65 -37.45 -44.6 -37.35 -43.4 -36.9 L-43.4 -36.9 M-20.6 -38.9 Q-20.6 -38.9 -20.6 -38.9 -21.35 -38.9 -21.5 -38.9 -21.55 -38.9 -21.6 -38.9 -21.65 -38.85 -21.75 -38.85 -21.8 -38.85 -21.85 -38.85 -21.9 -38.8 -21.95 -38.8 -22.0 -38.8 -22.05 -38.75 -22.1 -38.75 -22.15 -38.7 -22.2 -38.7 -22.2 -38.65 -22.25 -38.65 -22.25 -38.6 -22.25 -38.55 -22.3 -38.5 -22.3 -38.45 -22.3 -38.4 -22.3 -38.35 -22.3 -38.3 -22.3 -38.25 -22.25 -38.2 -22.25 -38.15 -22.25 -38.1 -22.2 -38.05 -22.2 -38.0 -22.15 -37.95 -22.15 -37.9 -22.1 -37.85 -22.1 -37.8 -22.0 -37.65 -21.85 -37.5 -21.7 -37.35 -21.5 -37.25 -21.35 -37.2 -21.15 -37.1 -20.95 -37.05 -20.75 -37.05 -20.55 -37.05 -20.35 -37.05 -20.2 -37.05 -20.0 -37.15 -19.8 -37.2 -19.65 -37.3 -19.45 -37.4 -19.35 -37.55 -19.3 -37.6 -18.9 -38.6 -19.8 -38.9 -19.9 -38.9 -19.95 -38.9 -20.0 -38.9 -20.0 -38.9 -20.05 -38.9 -20.1 -38.9 -20.15 -38.9 -20.2 -38.9 -20.25 -38.9 -20.25 -38.9 -20.35 -38.9 -20.4 -38.9 -20.4 -38.9 -20.45 -38.9 -20.5 -38.9 -20.55 -38.9 -20.6 -38.9 L-20.6 -38.9 M2.35 -38.9 Q2.35 -38.9 2.35 -38.9 1.6 -38.9 1.45 -38.9 1.4 -38.9 1.35 -38.9 1.3 -38.85 1.25 -38.85 1.15 -38.85 1.1 -38.85 1.05 -38.8 1.0 -38.8 0.95 -38.8 0.9 -38.75 0.85 -38.75 0.8 -38.7 0.8 -38.7 0.75 -38.65 0.7 -38.65 0.7 -38.6 0.7 -38.55 0.7 -38.5 0.65 -38.45 0.65 -38.4 0.65 -38.35 0.7 -38.3 0.7 -38.25 0.7 -38.2 0.7 -38.15 0.75 -38.1 0.75 -38.05 0.75 -38.0 0.8 -37.95 0.8 -37.9 0.85 -37.85 0.9 -37.8 1.0 -37.65 1.15 -37.5 1.3 -37.35 1.5 -37.25 1.65 -37.2 1.85 -37.1 2.0 -37.05 2.2 -37.05 2.4 -37.05 2.6 -37.05 2.8 -37.05 2.95 -37.15 3.15 -37.2 3.35 -37.3 3.5 -37.4 3.65 -37.55 3.65 -37.55 4.05 -38.6 3.25 -38.85 3.1 -38.9 3.05 -38.9 3.0 -38.9 2.95 -38.9 2.9 -38.9 2.9 -38.9 2.85 -38.9 2.8 -38.9 2.75 -38.9 2.7 -38.9 2.65 -38.9 2.55 -38.9 2.55 -38.9 2.5 -38.9 2.45 -38.9 2.4 -38.9 2.35 -38.9 L2.35 -38.9 M25.45 -36.9 Q26.7 -37.7 26.8 -37.8 26.85 -37.85 26.85 -37.85 26.9 -37.9 26.9 -37.95 26.95 -38.0 26.95 -38.05 27.0 -38.1 27.0 -38.15 27.0 -38.2 27.0 -38.3 27.05 -38.35 27.05 -38.4 27.05 -38.45 27.0 -38.5 27.0 -38.55 27.0 -38.6 27.0 -38.65 26.95 -38.65 26.95 -38.7 26.9 -38.7 26.85 -38.75 26.8 -38.75 26.75 -38.8 26.7 -38.8 26.65 -38.8 26.6 -38.85 26.55 -38.85 26.5 -38.85 26.45 -38.85 26.35 -38.9 26.3 -38.9 26.25 -38.9 26.15 -38.9 26.05 -38.9 25.95 -38.9 25.9 -38.9 25.8 -38.95 25.7 -38.95 25.6 -38.95 25.5 -38.95 25.4 -38.95 25.3 -38.95 25.2 -38.9 25.1 -38.9 25.0 -38.9 24.95 -38.9 24.85 -38.9 24.75 -38.9 24.75 -38.9 23.6 -38.55 24.15 -37.55 24.3 -37.4 24.35 -37.35 25.45 -36.9 L25.45 -36.9 M48.25 -38.9 Q48.25 -38.9 48.25 -38.9 47.55 -38.9 47.4 -38.9 47.35 -38.9 47.3 -38.9 47.25 -38.85 47.2 -38.85 47.1 -38.85 47.05 -38.85 47.0 -38.8 46.95 -38.8 46.9 -38.8 46.85 -38.75 46.8 -38.75 46.75 -38.7 46.7 -38.7 46.7 -38.65 46.65 -38.65 46.65 -38.6 46.65 -38.55 46.65 -38.5 46.65 -38.45 46.65 -38.4 46.65 -38.35 46.65 -38.3 46.65 -38.2 46.65 -38.15 46.7 -38.1 46.7 -38.05 46.75 -38.0 46.75 -37.95 46.8 -37.9 46.8 -37.85 46.85 -37.8 46.85 -37.75 47.0 -37.6 47.15 -37.45 47.3 -37.3 47.5 -37.2 47.7 -37.15 47.9 -37.1 48.05 -37.05 48.3 -37.05 48.5 -37.05 48.65 -37.05 48.85 -37.1 49.05 -37.2 49.25 -37.3 49.4 -37.4 49.55 -37.55 49.7 -37.7 49.75 -37.75 49.75 -37.8 49.8 -37.85 49.85 -37.9 49.85 -37.95 49.9 -38.0 49.9 -38.05 49.95 -38.15 49.95 -38.2 49.95 -38.25 50.0 -38.3 50.0 -38.35 50.0 -38.4 50.0 -38.45 50.0 -38.5 49.95 -38.55 49.95 -38.6 49.9 -38.6 49.9 -38.65 49.85 -38.7 49.8 -38.7 49.75 -38.75 49.7 -38.75 49.65 -38.8 49.6 -38.8 49.5 -38.8 49.45 -38.85 49.4 -38.85 49.35 -38.85 49.25 -38.85 49.2 -38.9 49.15 -38.9 49.1 -38.9 48.25 -38.9 L48.25 -38.9 M2.5 -70.75 Q3.7 -71.5 3.85 -71.65 3.9 -71.7 3.9 -71.7 3.95 -71.75 3.95 -71.8 4.0 -71.85 4.0 -71.9 4.0 -71.95 4.05 -72.0 4.05 -72.05 4.05 -72.15 4.05 -72.2 4.05 -72.25 4.05 -72.3 4.05 -72.35 4.05 -72.4 4.05 -72.45 4.05 -72.5 4.0 -72.5 3.95 -72.55 3.9 -72.55 3.9 -72.6 3.85 -72.6 3.8 -72.6 3.75 -72.65 3.7 -72.65 3.6 -72.7 3.55 -72.7 3.5 -72.7 3.45 -72.7 3.4 -72.7 3.35 -72.75 3.3 -72.75 3.2 -72.75 3.1 -72.75 3.0 -72.75 2.9 -72.75 2.8 -72.75 2.7 -72.75 2.6 -72.75 2.5 -72.75 2.4 -72.75 2.35 -72.75 2.25 -72.75 2.15 -72.75 2.05 -72.75 1.95 -72.75 1.85 -72.75 1.75 -72.7 1.6 -72.7 0.6 -72.35 0.65 -72.3 0.7 -72.2 0.75 -72.15 0.8 -72.05 0.8 -72.0 0.85 -71.9 0.9 -71.8 0.95 -71.75 1.0 -71.7 1.05 -71.6 1.1 -71.55 1.1 -71.5 1.15 -71.4 1.2 -71.35 1.25 -71.3 1.35 -71.25 1.4 -71.15 2.5 -70.75 L2.5 -70.75 M13.9 -55.8 Q13.9 -55.8 13.9 -55.85 13.8 -55.85 13.45 -55.85 13.15 -55.85 13.0 -55.8 12.95 -55.8 12.9 -55.8 12.8 -55.8 12.75 -55.75 12.7 -55.75 12.65 -55.75 12.55 -55.75 12.5 -55.7 12.45 -55.7 12.4 -55.7 12.35 -55.65 12.3 -55.65 12.25 -55.65 12.25 -55.6 12.2 -55.6 12.2 -55.55 12.2 -55.5 12.2 -55.45 12.2 -55.4 12.2 -55.35 12.2 -55.3 12.2 -55.2 12.2 -55.15 12.2 -55.1 12.25 -55.05 12.25 -55.0 12.25 -54.95 12.3 -54.85 12.3 -54.8 12.35 -54.75 12.35 -54.7 12.4 -54.7 12.5 -54.55 12.65 -54.4 12.8 -54.3 12.95 -54.2 13.15 -54.1 13.3 -54.05 13.45 -54.0 13.65 -53.95 13.85 -53.95 14.0 -53.95 14.2 -53.95 14.35 -54.05 14.55 -54.1 14.7 -54.15 14.9 -54.25 15.0 -54.4 15.05 -54.45 15.55 -55.5 15.45 -55.5 15.05 -55.65 14.7 -55.75 14.5 -55.8 14.45 -55.8 13.9 -55.8 L13.9 -55.8 M-9.05 -55.8 Q-9.05 -55.8 -9.05 -55.8 -9.75 -55.85 -9.95 -55.8 -10.0 -55.8 -10.1 -55.8 -10.15 -55.75 -10.2 -55.75 -10.3 -55.75 -10.35 -55.75 -10.4 -55.7 -10.45 -55.7 -10.55 -55.65 -10.6 -55.65 -10.65 -55.65 -10.7 -55.6 -10.75 -55.55 -10.75 -55.55 -10.8 -55.5 -10.8 -55.5 -10.8 -55.45 -10.8 -55.4 -10.8 -55.35 -10.8 -55.3 -10.8 -55.25 -10.8 -55.15 -10.8 -55.1 -10.75 -55.05 -10.75 -55.0 -10.7 -54.95 -10.7 -54.85 -10.65 -54.8 -10.6 -54.75 -10.6 -54.7 -10.55 -54.65 -10.5 -54.6 -10.4 -54.45 -10.25 -54.35 -10.15 -54.25 -10.0 -54.15 -9.85 -54.1 -9.7 -54.05 -9.55 -54.0 -9.35 -53.95 -9.2 -53.95 -9.05 -53.95 -8.9 -53.95 -8.7 -54.0 -8.55 -54.0 -8.4 -54.1 -8.25 -54.15 -8.15 -54.25 -8.1 -54.3 -8.0 -54.35 -7.95 -54.45 -7.9 -54.5 -7.85 -54.6 -7.8 -54.65 -7.75 -54.75 -7.7 -54.8 -7.7 -54.9 -7.65 -55.0 -7.7 -54.9 -7.55 -55.15 -7.5 -55.25 -7.5 -55.3 -7.45 -55.4 -7.4 -55.45 -8.1 -55.7 -8.55 -55.8 -8.6 -55.8 -9.05 -55.8 L-9.05 -55.8 M-20.55 -72.75 Q-20.55 -72.75 -20.55 -72.75 -21.45 -72.75 -21.45 -72.75 -21.4 -72.75 -21.55 -72.7 -21.65 -72.7 -21.7 -72.7 -21.75 -72.65 -21.85 -72.65 -21.9 -72.65 -21.95 -72.6 -22.0 -72.6 -22.05 -72.55 -22.15 -72.55 -22.15 -72.5 -22.2 -72.5 -22.25 -72.45 -22.25 -72.45 -22.3 -72.4 -22.3 -72.35 -22.3 -72.3 -22.3 -72.25 -22.3 -72.2 -22.3 -72.15 -22.3 -72.1 -22.25 -72.0 -22.25 -71.95 -22.2 -71.9 -22.2 -71.85 -22.15 -71.8 -22.15 -71.75 -22.1 -71.7 -22.05 -71.65 -22.05 -71.55 -22.0 -71.55 -21.9 -71.4 -21.75 -71.3 -21.65 -71.2 -21.5 -71.1 -21.35 -71.0 -21.2 -70.95 -21.0 -70.9 -20.85 -70.9 -20.7 -70.85 -20.55 -70.85 -20.35 -70.85 -20.2 -70.9 -20.05 -70.95 -19.9 -71.0 -19.75 -71.1 -19.6 -71.2 -19.55 -71.25 -19.5 -71.3 -19.45 -71.35 -19.4 -71.45 -19.35 -71.5 -19.3 -71.6 -19.25 -71.65 -19.2 -71.75 -19.15 -71.8 -19.1 -71.9 -18.9 -72.4 -19.05 -72.05 -19.0 -72.15 -18.95 -72.25 -18.9 -72.3 -18.9 -72.4 -18.9 -72.4 -19.45 -72.55 -19.8 -72.65 -20.05 -72.75 -20.15 -72.75 -20.3 -72.75 -20.5 -72.75 -20.55 -72.75 L-20.55 -72.75 M-55.05 -33.25 Q-55.05 -33.25 -55.05 -33.25 -55.75 -33.3 -55.95 -33.25 -56.0 -33.25 -56.05 -33.25 -56.1 -33.2 -56.2 -33.2 -56.25 -33.2 -56.3 -33.2 -56.35 -33.15 -56.4 -33.15 -56.45 -33.15 -56.5 -33.1 -56.55 -33.1 -56.6 -33.05 -56.65 -33.05 -56.65 -33.0 -56.7 -33.0 -56.7 -32.95 -56.7 -32.9 -56.75 -32.85 -56.75 -32.85 -56.75 -32.75 -56.75 -32.75 -56.75 -32.65 -56.75 -32.6 -56.7 -32.55 -56.7 -32.5 -56.7 -32.45 -56.65 -32.4 -56.65 -32.35 -56.6 -32.3 -56.6 -32.25 -56.55 -32.2 -56.55 -32.15 -56.45 -32.0 -56.3 -31.85 -56.15 -31.7 -55.95 -31.65 -55.8 -31.55 -55.6 -31.5 -55.4 -31.4 -55.2 -31.4 -55.0 -31.4 -54.8 -31.4 -54.65 -31.45 -54.45 -31.5 -54.25 -31.55 -54.1 -31.65 -53.9 -31.8 -53.8 -31.95 -53.7 -32.0 -53.35 -32.95 -54.15 -33.2 -54.35 -33.25 -54.4 -33.25 -55.05 -33.25 L-55.05 -33.25" fill="#ff66cc" fill-rule="evenodd" stroke="none"/>
    <path d="M-3.25 -79.15 Q-0.1 -78.75 0.55 -78.7 0.75 -78.7 1.0 -78.65 1.05 -78.65 1.4 -78.6 1.7 -78.55 1.85 -78.55 2.1 -78.5 2.3 -78.5 2.5 -78.5 2.7 -78.5 2.95 -78.5 3.15 -78.5 3.35 -78.5 3.55 -78.55 3.75 -78.6 3.9 -78.65 4.15 -78.75 4.4 -78.8 4.6 -78.85 4.85 -78.85 5.05 -78.9 5.3 -78.9 5.5 -78.9 5.75 -78.85 5.95 -78.85 6.2 -78.8 7.05 -78.7 6.65 -78.75 6.9 -78.75 7.1 -78.7 7.35 -78.7 7.55 -78.7 7.1 -78.15 6.5 -77.75 5.9 -77.35 5.2 -77.05 4.5 -76.8 3.75 -76.65 3.0 -76.55 2.2 -76.6 1.45 -76.6 0.65 -76.8 -0.1 -76.95 -0.8 -77.25 -1.55 -77.6 -2.15 -78.05 -2.75 -78.55 -3.25 -79.15 L-3.25 -79.15" fill="#ff66cc" fill-rule="evenodd" stroke="none"/>
    <path d="M-68.9 -33.65 Q-69.1 -33.65 -69.3 -33.6 -69.45 -33.55 -69.7 -33.5 -69.2 -33.65 -70.1 -33.35 -70.35 -33.25 -70.5 -33.2 -70.75 -33.15 -70.9 -33.15 -71.15 -33.15 -71.3 -33.2 -71.5 -33.25 -71.7 -33.4 -71.9 -33.55 -72.1 -33.8 -71.85 -34.25 -71.2 -35.35 -70.4 -34.8 -68.9 -33.65 L-68.9 -33.65" fill="#ff66cc" fill-rule="evenodd" stroke="none"/>
    <path d="M1.2 44.95 Q1.45 45.4 1.6 45.85 1.75 46.25 1.85 46.75 1.95 47.2 1.95 47.7 2.0 48.2 1.95 48.8 1.95 49.3 1.9 50.05 1.9 50.15 1.85 51.4 1.75 52.35 1.75 53.0 1.7 53.95 1.65 54.8 1.65 55.45 1.65 55.65 1.65 56.1 1.65 56.45 1.65 56.9 1.65 57.25 1.65 57.7 1.65 58.1 1.7 58.5 1.7 58.9 1.75 59.35 1.8 59.75 1.85 60.2 1.9 60.65 1.95 61.1 2.0 61.6 2.15 62.4 2.2 62.7 2.3 63.25 2.35 63.65 2.45 64.15 2.5 64.5 2.6 64.95 2.7 65.25 2.8 65.65 2.9 65.95 3.0 66.25 3.15 66.55 3.25 66.8 3.4 67.05 3.55 67.35 3.75 67.55 4.35 68.35 5.2 69.0 5.95 69.55 6.95 69.95 7.8 70.3 8.85 70.5 9.75 70.7 10.75 70.8 11.65 70.85 12.55 70.85 13.35 70.85 14.1 70.8 14.7 70.75 15.3 70.65 15.6 70.6 15.9 70.55 16.2 70.5 16.35 70.45 16.6 70.45 16.8 70.4 17.05 70.35 17.3 70.3 17.5 70.25 17.75 70.15 17.95 70.1 18.2 70.0 18.45 69.9 18.65 69.8 18.9 69.7 19.1 69.6 19.35 69.45 19.6 69.3 20.1 69.0 20.55 68.55 20.95 68.2 21.3 67.75 21.65 67.35 21.95 66.9 22.25 66.45 22.5 66.0 22.7 65.6 22.9 65.15 23.05 64.8 23.2 64.4 23.35 64.05 23.45 63.7 23.5 63.5 23.6 63.2 23.75 62.7 23.85 62.25 23.95 61.85 24.05 61.4 24.1 61.1 24.15 60.7 24.25 60.2 24.25 60.05 24.3 59.75 24.35 59.55 24.45 59.25 24.55 59.05 24.65 58.8 24.75 58.65 24.95 58.4 25.15 58.25 25.35 58.1 25.55 57.95 25.8 57.8 26.05 57.7 26.3 57.55 26.55 57.5 26.8 57.4 27.1 57.35 27.35 57.3 27.6 57.3 27.9 57.3 28.15 57.35 28.4 57.4 28.6 57.45 28.85 57.55 29.0 57.7 29.35 57.95 29.6 58.45 29.85 58.9 29.95 59.55 30.05 60.15 30.05 60.9 30.0 61.6 29.9 62.4 29.75 63.2 29.55 64.05 29.35 64.9 29.05 65.75 28.75 66.6 28.4 67.4 28.05 68.2 27.65 68.9 26.95 70.1 26.05 71.15 25.2 72.15 24.2 73.0 23.25 73.8 22.15 74.5 21.15 75.1 20.05 75.65 19.1 76.1 18.05 76.5 17.15 76.85 16.2 77.15 15.4 77.35 14.6 77.55 14.0 77.7 13.4 77.8 11.75 77.6 10.2 77.3 8.65 77.0 7.15 76.6 5.7 76.2 4.4 75.7 3.05 75.25 1.9 74.7 0.75 74.1 -0.25 73.45 -1.25 72.85 -2.05 72.15 -2.85 71.4 -3.4 70.65 -4.0 69.9 -4.3 69.05 -4.35 68.9 -4.4 68.75 -4.5 68.5 -4.6 68.25 -4.65 68.0 -4.75 67.65 -4.85 67.3 -5.0 66.95 -5.1 66.55 -5.2 66.15 -5.3 65.65 -5.4 65.2 -5.5 64.7 -5.6 64.2 -5.7 63.65 -5.8 63.1 -6.0 61.7 -6.15 57.25 -6.25 54.15 -6.2 52.3 -6.2 50.95 -6.1 50.2 -5.95 49.1 -5.95 49.4 -5.9 49.05 -6.0 48.25 -6.05 48.0 -6.05 47.9 -6.1 47.65 -6.1 47.45 -6.15 47.2 -6.15 47.0 -6.15 46.75 -6.15 46.55 -6.1 46.3 -6.05 46.05 -6.05 45.8 -5.95 45.55 -5.85 45.35 -5.75 45.1 -5.6 44.9 -5.45 44.7 -5.35 44.6 -5.3 44.55 -5.2 44.45 -5.1 44.4 -5.05 44.35 -4.95 44.3 -4.85 44.2 -4.75 44.2 -4.7 44.15 -4.6 44.1 -4.5 44.05 -4.4 44.0 -4.35 44.0 -4.25 43.95 -4.2 43.95 -4.1 43.9 -4.25 18.4 -4.55 -33.2 -3.2 -33.3 -0.4 -33.55 -0.2 -17.9 -0.05 -0.45 -0.05 2.05 0.0 4.5 0.0 7.0 0.0 9.45 0.05 11.95 0.05 14.4 0.05 16.9 0.05 19.35 0.05 21.85 0.05 24.3 0.1 26.8 0.1 29.25 0.1 31.75 0.1 34.2 0.1 36.7 0.1 39.15 0.05 39.35 0.05 39.55 0.05 39.75 0.0 39.95 0.0 40.2 0.0 40.45 0.0 40.7 0.0 40.95 0.0 41.2 0.05 41.45 0.05 41.75 0.1 42.05 0.15 42.3 0.25 42.6 0.3 42.9 0.4 43.2 0.45 43.35 0.5 43.5 0.55 43.65 0.65 43.8 0.7 43.95 0.75 44.05 0.8 44.15 0.85 44.3 0.9 44.4 0.95 44.5 1.0 44.55 1.05 44.65 1.1 44.7 1.15 44.8 1.2 44.9 1.2 44.95 L1.2 44.95" fill="#ff66cc" fill-rule="evenodd" stroke="none"/>
    <path d="M-5.6 -80.25 Q-4.6 -83.65 -2.8 -89.65 -1.85 -86.75 0.0 -80.85 -1.85 -80.65 -5.6 -80.25 L-5.6 -80.25" fill="#ff66cc" fill-rule="evenodd" stroke="none"/>
  </g>
</svg>
