<?xml version="1.0" encoding="UTF-8" standalone="no"?>
<svg xmlns:xlink="http://www.w3.org/1999/xlink" height="11.6px" width="25.25px" xmlns="http://www.w3.org/2000/svg">
  <g transform="matrix(1.0, 0.0, 0.0, 1.0, 12.6, 5.8)">
    <path d="M6.3 4.95 L4.35 4.45 3.15 4.1 1.9 3.75 0.1 3.0 -1.75 2.25 -3.6 1.35 -5.5 0.4 -6.65 -0.45 -7.8 -1.25 -8.95 -2.25 -10.1 -3.2 -10.25 -3.2 -10.4 -3.2 -11.4 -3.95 -12.35 -4.7 -12.45 -4.9 -12.55 -5.1 -12.45 -5.3 -12.35 -5.55 -11.5 -4.9 -10.6 -4.25 -10.1 -3.75 -9.55 -3.2 -7.55 -1.8 -5.5 -0.45 -3.15 0.7 -0.8 1.85 1.2 2.6 3.25 3.35 4.15 3.55 5.05 3.8 6.85 4.35 8.65 4.9 9.0 4.3 9.35 3.75 9.6 3.65 9.85 3.5 10.15 3.85 10.5 4.25 10.7 3.95 10.9 3.7 11.5 2.6 12.1 1.5 12.3 1.25 12.5 1.0 12.5 1.5 12.45 2.0 11.75 3.2 11.05 4.45 10.75 4.75 10.5 5.05 10.2 4.85 9.95 4.6 9.75 4.6 9.6 4.6 9.35 4.95 9.1 5.25 8.7 5.35 8.3 5.45 6.3 4.95 6.3 4.95" fill="#cfcfcf" fill-rule="evenodd" stroke="none"/>
    <path d="M6.8 5.05 L5.25 4.65 3.6 4.2 2.0 3.75 0.2 3.05 -1.65 2.3 -3.15 1.55 -4.7 0.8 -5.55 0.25 -6.45 -0.25 -8.3 -1.75 -10.1 -3.2 -10.25 -3.2 -10.35 -3.2 -11.4 -4.0 -12.45 -4.8 -12.45 -5.1 -12.45 -5.4 -12.2 -5.35 -12.0 -5.3 -11.15 -4.6 -10.25 -3.85 -9.9 -3.5 -9.5 -3.15 -7.55 -1.8 -5.65 -0.5 -3.45 0.6 -1.2 1.65 0.35 2.3 1.9 2.9 3.4 3.35 4.9 3.75 6.8 4.3 8.7 4.9 9.15 4.2 9.55 3.55 9.75 3.55 9.9 3.55 10.15 3.9 10.4 4.2 10.6 4.05 10.8 3.95 11.55 2.6 12.25 1.25 12.4 1.25 12.5 1.25 12.4 1.7 12.3 2.2 11.65 3.4 10.95 4.6 10.7 4.85 10.4 5.05 10.25 4.85 10.05 4.6 9.8 4.6 9.55 4.6 9.3 4.95 9.05 5.25 8.7 5.35 8.35 5.45 6.8 5.05 6.8 5.05" fill="#aeaeae" fill-rule="evenodd" stroke="none"/>
    <path d="M6.85 5.05 L5.3 4.65 3.7 4.2 2.05 3.75 0.2 3.0 -1.65 2.25 -3.55 1.3 -5.45 0.35 -6.85 -0.65 -8.25 -1.7 -9.15 -2.45 -10.0 -3.2 -10.15 -3.2 -10.3 -3.2 -11.3 -3.95 -12.25 -4.7 -12.4 -5.0 -12.55 -5.3 -12.25 -5.3 -12.0 -5.3 -11.35 -4.8 -10.7 -4.3 -10.3 -3.85 -9.9 -3.45 -8.7 -2.6 -7.5 -1.7 -6.55 -1.1 -5.6 -0.45 -3.7 0.5 -1.8 1.45 0.3 2.3 2.45 3.15 4.75 3.75 7.05 4.4 7.9 4.65 8.7 4.9 9.2 4.2 9.65 3.5 10.05 3.85 10.5 4.2 10.55 4.2 10.65 4.2 11.35 2.95 12.05 1.7 12.2 1.45 12.4 1.25 12.4 1.55 12.4 1.85 11.8 3.0 11.25 4.1 11.0 4.45 10.75 4.85 10.55 4.85 10.35 4.85 9.95 4.7 9.55 4.55 9.3 4.9 9.05 5.2 8.7 5.3 8.35 5.4 6.85 5.05 6.85 5.05" fill="#8e8e8e" fill-rule="evenodd" stroke="none"/>
    <path d="M7.4 5.15 L7.3 5.05 5.35 4.6 3.4 4.15 2.5 3.85 1.55 3.55 -0.25 2.8 -2.05 2.05 -3.35 1.45 -4.6 0.8 -5.75 0.1 -6.85 -0.65 -8.45 -1.9 -10.0 -3.2 -10.2 -3.2 -10.35 -3.2 -11.35 -4.0 -12.35 -4.8 -12.4 -5.05 -12.4 -5.3 -12.25 -5.3 -12.1 -5.3 -11.4 -4.8 -10.7 -4.3 -10.4 -3.9 -10.1 -3.55 -8.2 -2.2 -6.25 -0.85 -5.35 -0.35 -4.45 0.15 -2.85 0.9 -1.3 1.65 0.25 2.3 1.85 2.9 2.9 3.25 4.0 3.55 5.9 4.1 7.75 4.65 8.25 4.75 8.7 4.9 9.05 4.35 9.4 3.85 9.6 3.7 9.8 3.55 10.05 3.85 10.35 4.2 10.5 4.2 10.65 4.2 11.5 2.7 12.35 1.2 12.4 1.5 12.45 1.75 12.1 2.45 11.75 3.15 11.25 4.0 10.7 4.85 10.15 4.7 9.55 4.6 9.3 4.9 9.0 5.25 8.25 5.25 7.5 5.2 7.4 5.15 7.4 5.15" fill="#6f6f6f" fill-rule="evenodd" stroke="none"/>
    <path d="M5.25 4.6 L2.9 4.0 1.15 3.35 -0.6 2.7 -2.8 1.65 -4.95 0.6 -6.05 -0.15 -7.15 -0.85 -8.55 -2.0 -9.9 -3.1 -10.4 -3.4 -10.95 -3.65 -11.65 -4.2 -12.35 -4.8 -12.4 -5.05 -12.4 -5.3 -12.25 -5.3 -12.1 -5.3 -11.35 -4.75 -10.6 -4.2 -10.3 -3.8 -10.0 -3.45 -7.85 -1.95 -5.75 -0.5 -3.8 0.45 -1.8 1.45 -0.3 2.05 1.2 2.7 2.2 3.05 3.15 3.35 5.05 3.9 6.95 4.4 7.85 4.65 8.75 4.9 9.05 4.35 9.4 3.85 9.6 3.7 9.8 3.55 10.1 3.9 10.4 4.25 10.6 4.15 10.8 4.0 11.55 2.6 12.35 1.25 12.4 1.3 12.45 1.4 12.35 1.85 12.25 2.25 11.65 3.3 11.05 4.35 10.85 4.6 10.65 4.85 10.35 4.75 10.0 4.6 9.75 4.6 9.45 4.6 9.25 4.9 9.05 5.25 8.3 5.2 7.6 5.2 5.25 4.6 5.25 4.6" fill="#505050" fill-rule="evenodd" stroke="none"/>
    <path d="M6.25 4.8 L4.7 4.4 3.45 4.1 2.2 3.75 -0.1 2.85 -2.35 1.9 -3.85 1.15 -5.3 0.35 -5.8 0.05 -6.25 -0.25 -8.05 -1.65 -9.8 -3.0 -9.75 -3.1 -9.7 -3.2 -8.2 -2.15 -6.7 -1.1 -6.0 -0.7 -5.3 -0.25 -3.6 0.6 -1.9 1.4 -0.4 2.05 1.15 2.7 2.1 3.0 3.05 3.35 5.0 3.9 6.95 4.4 7.5 4.6 8.0 4.8 8.4 4.85 8.75 4.85 9.25 4.2 9.7 3.55 10.05 3.9 10.4 4.25 10.6 4.1 10.8 4.0 11.6 2.6 12.35 1.25 12.4 1.35 12.45 1.4 12.35 1.8 12.25 2.2 11.5 3.5 10.75 4.85 10.55 4.85 10.4 4.85 10.05 4.6 9.75 4.35 9.3 4.8 8.9 5.25 8.35 5.2 7.75 5.2 6.25 4.8 M-10.35 -3.35 L-10.55 -3.4 -11.35 -4.05 -12.2 -4.65 -12.3 -4.85 -12.45 -5.05 -12.4 -5.2 -12.3 -5.35 -11.45 -4.8 -10.6 -4.2 -10.25 -3.7 -9.85 -3.2 -10.0 -3.2 -10.2 -3.25 -10.35 -3.35 -10.35 -3.35" fill="#2f2f2f" fill-rule="evenodd" stroke="none"/>
    <path d="M6.45 4.8 L4.95 4.45 3.6 4.1 2.25 3.75 0.2 2.9 -1.9 2.05 -3.55 1.2 -5.2 0.4 -5.85 -0.05 -6.55 -0.5 -7.75 -1.45 -8.95 -2.4 -8.9 -2.5 -8.85 -2.6 -7.8 -1.85 -6.8 -1.1 -5.9 -0.6 -5.05 -0.05 -3.05 0.9 -1.05 1.85 0.6 2.5 2.25 3.15 4.45 3.8 6.7 4.4 7.7 4.7 8.7 5.05 9.1 4.4 9.5 3.75 9.8 3.75 10.05 3.75 10.1 4.0 10.15 4.2 10.45 4.2 10.75 4.2 11.5 2.8 12.25 1.45 12.35 1.45 12.4 1.45 12.3 1.8 12.2 2.2 11.65 3.2 11.1 4.2 10.8 4.55 10.5 4.9 10.2 4.65 9.9 4.4 9.75 4.4 9.6 4.4 9.3 4.85 8.95 5.25 8.45 5.2 7.95 5.2 6.45 4.8 M-9.4 -2.75 L-9.55 -2.95 -9.45 -2.95 -9.3 -2.95 -9.15 -2.75 -8.95 -2.6 -9.1 -2.6 -9.25 -2.6 -9.4 -2.75 M-11.45 -4.15 L-12.4 -4.9 -12.4 -5.1 -12.4 -5.3 -12.3 -5.3 -12.2 -5.3 -11.3 -4.65 -10.45 -4.0 -10.25 -3.7 -10.1 -3.4 -10.3 -3.4 -10.55 -3.4 -11.45 -4.15 -11.45 -4.15" fill="#050505" fill-rule="evenodd" stroke="none"/>
  </g>
</svg>
