<?xml version="1.0" encoding="UTF-8" standalone="no"?>
<svg xmlns:xlink="http://www.w3.org/1999/xlink" height="123.1px" width="126.9px" xmlns="http://www.w3.org/2000/svg">
  <g transform="matrix(1.0, 0.0, 0.0, 1.0, 0.0, 0.0)">
    <path d="M18.5 103.5 L18.6 103.6 Q19.65 104.45 20.7 105.3 21.8 106.15 22.95 106.95 24.15 107.75 25.35 108.5 26.6 109.3 27.9 110.05 29.15 110.8 30.55 111.5 31.9 112.2 33.3 112.85 34.75 113.55 36.25 114.2 37.75 114.85 39.3 115.45 41.4 116.1 43.45 116.7 45.5 117.3 47.5 117.8 49.45 118.35 51.4 118.75 53.35 119.2 55.2 119.6 57.1 119.95 58.9 120.25 60.75 120.55 62.5 120.8 64.25 121.0 66.0 121.15 67.7 121.3 69.35 121.4 L82.65 122.0 92.25 120.35 Q93.2 120.2 94.25 119.95 95.25 119.7 96.35 119.4 97.45 119.1 98.6 118.75 99.75 118.4 100.95 117.95 102.15 117.5 103.45 117.0 104.75 116.5 106.1 115.9 107.45 115.3 108.85 114.65 110.25 114.0 111.75 113.3 112.85 112.7 113.85 112.0 114.85 111.35 115.75 110.7 116.65 110.0 117.5 109.3 118.3 108.55 119.05 107.8 119.8 107.05 120.45 106.3 121.1 105.5 121.65 104.7 122.2 103.9 122.7 103.05 123.15 102.2 123.55 101.35 123.75 100.8 123.9 100.3 124.05 99.75 124.2 99.2 124.3 98.65 124.4 98.1 124.5 97.6 124.55 97.05 124.6 96.45 124.65 95.9 124.65 95.35 124.65 94.8 124.65 94.25 124.6 93.7 124.55 93.1 124.5 92.55 124.3 91.05 124.15 89.7 124.05 88.35 123.95 87.1 123.85 85.85 123.85 84.7 123.85 83.55 123.85 82.5 123.9 81.5 124.0 80.55 124.1 79.65 124.25 78.8 124.4 78.0 124.6 77.3 124.8 76.6 125.05 76.0 125.45 72.7 125.65 69.55 125.85 66.35 125.8 63.3 125.8 60.25 125.6 57.25 125.35 54.3 124.9 51.5 124.5 48.65 123.85 45.9 123.2 43.15 122.35 40.55 121.5 37.9 120.45 35.4 119.4 32.9 118.15 30.5 117.4 28.85 116.4 27.25 115.45 25.7 114.3 24.15 113.1 22.65 111.75 21.15 110.4 19.7 108.85 18.3 107.25 16.9 105.5 15.55 103.75 14.2 101.8 12.9 99.8 11.6 97.65 10.4 95.5 9.15 93.15 8.0 L93.1 7.95 Q92.1 7.55 91.1 7.15 90.05 6.7 89.0 6.35 87.95 5.95 86.85 5.55 85.75 5.2 84.6 4.85 83.5 4.45 82.3 4.1 81.15 3.75 79.95 3.45 78.75 3.1 77.55 2.8 76.3 2.45 75.05 2.15 70.9 1.45 66.85 1.2 62.85 0.95 59.0 1.15 55.1 1.35 51.4 1.95 47.7 2.6 44.1 3.65 40.55 4.7 37.1 6.2 33.7 7.65 30.4 9.6 27.15 11.5 24.0 13.85 20.9 16.2 17.9 19.0 16.0 20.9 14.35 23.0 12.7 25.15 11.3 27.45 9.9 29.75 8.75 32.25 7.55 34.7 6.65 37.4 5.75 40.1 5.1 43.0 4.45 45.85 4.0 48.95 3.6 52.05 3.45 55.3 3.25 58.6 3.35 62.05 3.65 65.4 3.6 65.05 3.8 67.3 4.1 69.35 4.45 72.0 4.9 74.55 5.45 77.55 6.2 80.4 7.0 83.6 8.05 86.5 9.25 89.8 10.7 92.65 12.25 95.8 14.15 98.45 16.2 101.35 18.6 103.6" fill="none" stroke="#54453c" stroke-linecap="round" stroke-linejoin="round" stroke-width="2.2"/>
  </g>
</svg>
