<?xml version="1.0" encoding="UTF-8" standalone="no"?>
<svg xmlns:xlink="http://www.w3.org/1999/xlink" height="136.55px" width="126.9px" xmlns="http://www.w3.org/2000/svg">
  <g transform="matrix(1.0, 0.0, 0.0, 1.0, 0.0, 0.0)">
    <path d="M62.35 1.3 Q60.55 1.3 58.7 1.4 56.9 1.5 55.1 1.7 53.3 1.9 51.5 2.15 49.7 2.45 47.95 2.85 46.15 3.25 44.4 3.75 42.65 4.3 40.95 4.9 39.25 5.5 37.6 6.2 35.9 6.95 34.3 7.75 33.0 8.4 31.75 9.1 30.45 9.8 29.2 10.55 27.95 11.35 26.75 12.15 25.55 12.95 24.4 13.8 23.2 14.7 22.1 15.6 20.95 16.5 19.9 17.5 18.8 18.45 17.8 19.5 16.75 20.5 15.8 21.6 14.5 23.1 13.3 24.8 12.15 26.4 11.15 28.15 10.15 29.85 9.25 31.7 8.4 33.5 7.65 35.4 6.9 37.25 6.3 39.2 5.75 41.1 5.3 43.05 4.8 45.0 4.5 47.0 4.2 49.0 4.0 51.0 3.85 52.15 3.75 53.2 3.65 54.35 3.6 55.4 3.55 56.55 3.5 57.6 3.5 58.75 3.5 59.85 3.55 60.95 3.6 62.05 3.65 63.15 3.8 64.25 3.9 65.35 4.1 66.45 4.25 67.55 4.5 68.6 4.7 69.55 4.9 70.4 5.1 71.3 5.3 72.15 5.5 73.05 5.75 73.95 5.95 74.85 6.2 75.7 6.45 76.6 6.7 77.45 6.95 78.35 7.25 79.2 7.55 80.05 7.85 80.9 8.15 81.75 8.45 82.6 10.1 86.2 14.55 95.15 18.55 103.1 20.55 107.75 20.65 107.95 20.75 108.2 20.8 108.4 20.9 108.65 20.95 108.8 21.05 109.15 21.1 109.45 21.2 109.6 21.25 109.85 21.35 110.05 21.45 110.3 21.55 110.5 21.65 110.7 21.8 110.9 21.95 111.1 22.1 111.25 25.2 112.75 35.8 117.1 44.35 120.6 49.25 123.4 50.45 124.05 51.65 124.75 52.8 125.45 54.0 126.15 55.2 126.85 56.4 127.55 57.55 128.25 58.75 129.0 59.9 129.75 61.05 130.5 62.2 131.25 63.35 132.0 64.5 132.75 65.65 133.55 66.8 134.3 67.95 135.1 68.2 135.15 68.5 135.2 68.75 135.25 69.05 135.25 69.3 135.25 69.6 135.25 69.85 135.2 70.15 135.2 70.35 135.2 70.7 135.15 71.1 135.1 71.3 135.1 71.6 135.1 71.85 135.05 72.15 135.05 72.4 135.05 72.8 135.05 83.8 134.55 90.65 134.25 95.15 134.0 95.4 133.95 95.6 133.8 95.8 133.65 95.9 133.5 96.0 133.3 96.05 133.1 96.1 132.9 96.1 132.65 96.15 132.4 96.1 132.15 96.1 132.05 96.1 131.65 96.05 131.35 96.05 131.15 96.05 130.9 96.1 130.75 96.1 130.5 96.1 130.25 96.1 130.0 96.1 129.75 96.1 129.55 96.1 129.2 96.1 128.85 96.1 128.7 96.1 128.4 96.1 128.2 96.1 127.9 96.1 127.7 96.1 127.4 96.1 127.2 96.15 126.95 96.2 126.7 96.25 126.8 96.3 126.95 96.35 127.05 96.35 127.2 96.4 127.35 96.4 127.55 96.4 127.65 96.35 127.85 96.35 127.95 96.35 128.2 96.35 128.45 96.35 128.55 96.3 128.75 96.3 128.9 96.35 129.05 96.35 129.2 96.35 129.45 96.35 129.75 96.35 129.95 96.35 130.25 96.35 130.4 96.35 130.8 96.35 131.15 96.35 131.35 96.3 131.65 96.3 131.9 96.35 132.15 96.35 132.4 96.35 132.7 96.4 132.95 96.45 133.2 96.55 133.45 96.75 133.6 96.95 133.7 97.15 133.8 97.4 133.8 97.6 133.85 97.85 133.9 98.05 133.9 98.3 133.9 98.5 133.85 98.8 133.85 99.7 133.75 99.3 133.8 99.55 133.75 99.75 133.75 100.0 133.75 100.2 133.75 100.55 133.7 101.05 133.7 101.1 133.7 101.9 133.7 102.4 133.65 102.75 133.65 103.2 133.6 103.6 133.6 104.05 133.55 104.4 133.45 104.85 133.35 105.2 133.2 105.6 133.05 105.95 132.85 106.35 132.65 106.7 132.4 107.45 131.85 107.9 131.5 108.55 131.05 109.05 130.6 109.65 130.15 110.2 129.7 110.8 129.2 111.35 128.7 111.9 128.2 112.4 127.7 112.95 127.2 113.45 126.65 113.95 126.1 114.4 125.55 114.9 124.95 115.3 124.35 115.5 124.0 115.65 123.65 115.85 123.25 116.0 122.9 116.2 122.5 116.35 122.15 116.5 121.75 116.65 121.4 116.8 121.0 116.9 120.6 117.05 120.2 117.15 119.8 117.25 119.4 117.35 119.05 117.4 118.65 117.45 118.25 117.25 117.4 116.5 115.6 115.8 113.95 115.6 112.95 115.9 112.25 116.3 111.55 116.65 110.9 117.1 110.25 117.5 109.65 118.0 108.95 118.35 108.45 118.9 107.65 119.8 106.4 119.8 106.4 120.35 105.7 120.7 105.1 121.2 104.45 121.6 103.8 122.0 103.1 122.35 102.45 122.6 101.95 122.85 101.5 123.1 101.0 123.3 100.5 123.5 100.0 123.7 99.5 123.85 98.95 124.0 98.45 124.15 97.9 124.2 97.4 124.3 96.85 124.35 96.3 124.4 95.8 124.4 95.25 124.4 94.7 124.35 94.15 124.35 93.8 123.95 89.05 123.75 86.05 123.75 84.0 123.75 83.5 123.75 83.0 123.75 82.45 123.75 81.95 123.75 81.45 123.8 80.95 123.85 80.45 123.9 79.95 123.95 79.4 124.05 78.9 124.15 78.4 124.25 77.9 124.35 77.4 124.5 76.9 124.6 76.4 124.75 75.95 124.9 75.05 125.0 74.15 125.15 73.25 125.25 72.3 125.35 71.45 125.4 70.5 125.45 69.6 125.5 68.7 125.55 67.8 125.6 66.85 125.6 65.95 125.65 65.0 125.65 64.15 125.65 63.2 125.65 62.35 125.6 61.4 125.55 59.3 125.4 57.25 125.25 55.2 124.95 53.15 124.7 51.1 124.3 49.05 123.9 47.0 123.4 45.05 122.9 43.0 122.3 41.05 121.7 39.05 120.95 37.15 120.2 35.2 119.35 33.35 118.45 31.45 117.5 29.65 116.7 28.05 115.7 26.55 114.7 25.05 113.6 23.6 112.5 22.25 111.2 20.9 110.0 19.65 108.65 18.4 107.35 17.25 105.9 16.1 104.5 15.0 102.95 13.95 101.5 12.95 99.95 12.0 98.45 11.1 96.85 10.2 95.9 9.65 94.9 9.1 93.95 8.6 92.9 8.15 91.9 7.7 90.85 7.25 89.85 6.85 88.75 6.45 87.75 6.1 86.65 5.7 85.65 5.4 84.5 5.0 83.6 4.75 82.4 4.35 81.9 4.2 80.25 3.7 79.2 3.35 78.05 3.1 77.0 2.8 75.85 2.55 74.75 2.35 73.65 2.15 72.55 1.95 71.4 1.8 70.3 1.65 69.15 1.55 68.05 1.45 66.9 1.4 65.75 1.35 64.6 1.3 63.5 1.25 62.35 1.3 L62.35 1.3" fill="#ffccaa" fill-rule="evenodd" stroke="none"/>
  </g>
</svg>
