<?xml version="1.0" encoding="UTF-8" standalone="no"?>
<svg xmlns:xlink="http://www.w3.org/1999/xlink" height="128.2px" width="126.9px" xmlns="http://www.w3.org/2000/svg">
  <g transform="matrix(1.0, 0.0, 0.0, 1.0, 0.0, 0.0)">
    <path d="M61.3 1.35 Q59.65 1.35 57.95 1.4 56.25 1.5 54.6 1.7 52.95 1.9 51.25 2.15 49.6 2.45 47.95 2.85 46.35 3.2 44.7 3.65 43.1 4.15 41.5 4.7 39.9 5.25 38.35 5.9 36.8 6.55 35.3 7.25 34.0 7.85 32.8 8.55 31.55 9.2 30.3 9.9 29.1 10.65 27.9 11.4 26.7 12.15 25.55 12.95 24.4 13.8 23.3 14.65 22.2 15.5 21.1 16.45 20.05 17.35 19.0 18.3 17.95 19.3 17.0 20.3 15.5 21.85 14.15 23.6 12.85 25.3 11.7 27.15 10.55 29.0 9.6 30.95 8.6 32.85 7.8 34.9 7.0 36.9 6.35 39.0 5.75 41.05 5.25 43.2 4.75 45.3 4.4 47.45 4.1 49.6 3.9 51.75 3.8 52.8 3.75 53.7 3.65 54.75 3.6 55.65 3.55 56.7 3.55 57.6 3.5 58.65 3.5 59.6 3.5 60.6 3.55 61.55 3.6 62.55 3.7 63.5 3.75 64.5 3.9 65.45 4.05 66.4 4.25 67.35 4.6 69.2 5.0 71.05 5.45 72.85 5.95 74.7 6.4 76.5 6.95 78.35 7.5 80.15 8.1 81.95 8.7 83.7 9.4 85.5 10.05 87.25 10.75 89.0 11.45 90.75 12.2 92.5 12.95 94.2 13.75 95.9 14.25 96.95 14.6 97.55 15.05 98.5 15.45 99.25 15.9 100.1 16.3 100.85 16.8 101.75 17.25 102.5 17.7 103.3 18.2 104.05 18.75 104.85 19.25 105.6 19.8 106.35 20.4 107.05 21.0 107.8 21.6 108.45 22.15 109.0 22.8 109.55 23.4 110.05 24.05 110.55 24.65 111.05 25.35 111.5 26.0 111.95 26.7 112.35 27.4 112.8 28.1 113.15 28.8 113.55 29.55 113.9 30.2 114.25 31.0 114.6 31.65 114.95 32.45 115.3 33.95 116.0 35.45 116.6 36.95 117.25 38.45 117.85 40.0 118.45 41.55 119.0 43.1 119.55 44.6 120.05 46.2 120.55 47.75 121.0 49.3 121.5 50.9 121.9 52.5 122.3 54.05 122.65 55.65 123.05 57.25 123.35 58.95 123.7 60.7 124.0 62.4 124.3 64.2 124.6 65.9 124.85 67.65 125.1 69.35 125.35 71.15 125.55 72.85 125.8 74.65 125.95 76.35 126.15 78.1 126.35 79.85 126.5 81.6 126.65 83.35 126.8 85.1 126.9 86.85 126.7 88.6 126.4 90.3 126.05 92.0 125.6 93.65 125.15 95.35 124.55 97.0 124.0 98.6 123.3 100.2 122.6 101.8 121.8 103.35 121.05 104.9 120.15 106.4 119.3 107.85 118.3 109.3 117.35 110.75 116.3 111.45 115.75 112.2 115.25 112.9 114.7 113.6 114.15 114.3 113.6 114.95 113.0 115.65 112.45 116.35 111.85 117.0 111.25 117.65 110.65 118.35 110.05 119.0 109.45 119.65 108.85 120.25 108.2 120.9 107.6 121.5 106.95 121.85 106.5 122.15 106.05 122.45 105.6 122.7 105.1 122.95 104.6 123.15 104.05 123.35 103.55 123.55 103.05 123.7 102.5 123.85 101.95 124.0 101.45 124.1 100.9 124.2 100.35 124.3 99.8 124.4 99.25 124.45 98.7 124.5 98.0 124.55 97.2 124.55 96.5 124.55 95.75 124.55 95.05 124.5 94.25 124.45 93.6 124.4 92.8 124.35 92.15 124.25 91.35 124.2 90.7 124.1 89.85 123.85 87.2 123.95 88.4 123.85 87.55 123.8 86.9 123.75 86.2 123.7 85.55 123.7 84.85 123.65 84.2 123.65 83.5 123.65 82.85 123.7 82.15 123.7 81.5 123.75 80.8 123.85 80.1 123.95 79.4 124.05 78.75 124.2 78.05 124.35 77.4 124.55 76.75 124.75 76.1 124.9 75.25 125.0 74.35 125.15 73.45 125.2 72.55 125.3 71.7 125.4 70.75 125.45 69.9 125.5 69.0 125.55 68.1 125.55 67.2 125.6 66.3 125.6 65.4 125.65 64.55 125.65 63.6 125.65 62.75 125.6 61.8 125.55 59.85 125.45 58.0 125.3 56.05 125.05 54.15 124.85 52.25 124.55 50.35 124.2 48.45 123.8 46.6 123.4 44.7 122.85 42.9 122.35 41.05 121.7 39.25 121.1 37.4 120.35 35.65 119.6 33.85 118.8 32.15 118.4 31.3 117.95 30.45 117.5 29.6 117.05 28.75 116.55 27.9 116.05 27.1 115.55 26.3 115.0 25.5 114.45 24.75 113.85 24.0 113.3 23.25 112.65 22.5 112.05 21.8 111.4 21.1 110.7 20.4 110.0 19.75 109.05 18.8 108.0 17.9 106.95 17.0 105.9 16.15 104.8 15.3 103.7 14.45 102.6 13.65 101.45 12.9 100.3 12.15 99.1 11.45 97.95 10.75 96.7 10.1 95.5 9.45 94.25 8.85 93.05 8.25 91.8 7.65 90.8 7.25 89.8 6.85 88.8 6.45 87.8 6.1 86.8 5.75 85.75 5.4 84.75 5.05 83.7 4.75 82.7 4.4 81.65 4.1 80.65 3.8 79.6 3.5 78.55 3.25 77.5 3.0 76.5 2.75 75.45 2.5 74.6 2.3 73.7 2.15 72.85 2.0 71.95 1.9 71.1 1.75 70.2 1.7 69.3 1.6 68.4 1.55 67.55 1.45 66.65 1.4 65.8 1.4 64.85 1.35 64.0 1.35 63.1 1.35 62.25 1.35 61.3 1.35 L61.3 1.35" fill="#ffccaa" fill-rule="evenodd" stroke="none"/>
  </g>
</svg>
