<?xml version="1.0" encoding="UTF-8" standalone="no"?>
<svg xmlns:xlink="http://www.w3.org/1999/xlink" height="128.2px" width="126.9px" xmlns="http://www.w3.org/2000/svg">
  <g transform="matrix(1.0, 0.0, 0.0, 1.0, 0.0, 0.0)">
    <path d="M8.25 82.85 Q8.35 83.2 8.7 84.25 9.15 85.5 9.75 87.0 10.45 88.85 11.2 90.7 12.15 92.95 13.1 95.0 14.2 97.35 15.25 99.45 16.5 101.75 17.7 103.65 19.0 105.7 20.25 107.2 21.6 108.85 22.85 109.8 23.3 110.3 23.95 110.8 24.6 111.3 25.45 111.85 26.25 112.4 27.3 112.95 28.3 113.55 29.5 114.15 30.7 114.75 32.1 115.35 33.45 116.0 35.05 116.65 36.6 117.3 38.35 118.0 40.1 118.7 42.05 119.4 44.0 120.1 46.1 120.75 48.25 121.4 50.55 122.0 52.85 122.6 55.35 123.15 57.9 123.7 60.6 124.2 63.3 124.65 66.15 125.1 69.05 125.5 72.15 125.85 75.25 126.25 78.5 126.55 81.8 126.85 85.25 127.1 87.6 126.85 89.95 126.3 92.25 125.8 94.6 125.05 96.9 124.25 99.2 123.25 101.5 122.25 103.8 121.0 106.1 119.75 108.35 118.2 110.65 116.7 112.9 114.95 115.15 113.2 117.4 111.2 119.6 109.2 121.85 106.95 122.35 106.2 122.75 105.4 123.15 104.6 123.5 103.75 123.8 102.9 124.05 101.95 124.3 101.05 124.45 100.05 124.6 99.05 124.7 97.95 124.75 96.9 124.75 95.75 124.75 94.6 124.65 93.4 124.55 92.2 124.4 90.95 124.2 89.7 124.1 88.5 123.95 87.3 123.9 86.2 123.85 85.1 123.8 84.05 123.8 83.05 123.85 82.1 123.9 81.2 123.95 80.35 124.05 79.5 124.2 78.7 124.35 77.95 124.6 77.25 124.8 76.6 125.05 76.0 125.45 72.7 125.65 69.55 125.85 66.35 125.8 63.3 125.8 60.25 125.6 57.25 125.35 54.3 124.9 51.5 124.5 48.65 123.85 45.9 123.2 43.15 122.35 40.55 121.5 37.9 120.45 35.4 119.4 32.9 118.15 30.5 117.4 28.85 116.4 27.25 115.45 25.7 114.3 24.15 113.1 22.65 111.75 21.15 110.4 19.7 108.85 18.3 107.25 16.9 105.5 15.55 103.75 14.2 101.8 12.9 99.8 11.6 97.65 10.4 95.5 9.15 93.15 8.0 L93.1 7.95 Q92.1 7.55 91.1 7.15 90.05 6.7 89.0 6.35 87.95 5.95 86.85 5.55 85.75 5.2 84.6 4.85 83.5 4.45 82.3 4.1 81.15 3.75 79.95 3.45 78.75 3.1 77.55 2.8 76.3 2.45 75.05 2.15 70.9 1.45 66.85 1.2 62.85 0.95 59.0 1.15 55.1 1.35 51.4 1.95 47.7 2.6 44.1 3.65 40.55 4.7 37.1 6.2 33.7 7.65 30.4 9.6 27.15 11.5 24.0 13.85 20.9 16.2 17.9 19.0 16.0 20.9 14.35 23.0 12.7 25.15 11.3 27.45 9.9 29.75 8.75 32.25 7.55 34.7 6.65 37.4 5.75 40.1 5.1 43.0 4.45 45.85 4.0 48.95 3.6 52.05 3.45 55.3 3.25 58.6 3.35 62.05 3.45 63.2 3.6 64.35 3.75 65.55 3.95 66.75 4.15 68.0 4.4 69.25 4.65 70.5 5.0 71.8 5.3 73.1 5.65 74.45 6.0 75.8 6.4 77.15 6.8 78.55 7.3 79.95 7.75 81.4 8.25 82.85" fill="none" stroke="#54453c" stroke-linecap="round" stroke-linejoin="round" stroke-width="2.2"/>
  </g>
</svg>
