<?xml version="1.0" encoding="UTF-8" standalone="no"?>
<svg xmlns:xlink="http://www.w3.org/1999/xlink" height="155.25px" width="126.9px" xmlns="http://www.w3.org/2000/svg">
  <g transform="matrix(1.0, 0.0, 0.0, 1.0, 0.0, 0.0)">
    <path d="M8.25 82.85 Q9.0 84.8 9.95 86.9 10.8 88.8 11.8 90.8 12.7 92.55 13.7 94.4 14.6 95.95 15.6 97.65 16.3 98.9 17.3 100.5 18.9 103.15 18.7 102.8 19.35 103.9 19.65 104.5 20.05 105.2 20.1 105.45 20.75 108.25 21.55 110.9 22.35 113.55 23.35 116.05 24.3 118.6 25.45 121.0 26.65 123.4 27.95 125.65 29.3 127.95 30.85 130.1 32.35 132.25 34.1 134.25 35.85 136.25 37.75 138.15 39.7 140.0 41.85 141.75 44.0 143.5 46.35 145.0 48.65 146.5 51.2 147.75 53.7 149.0 56.4 150.0 59.1 151.0 61.95 151.8 64.85 152.55 67.9 153.05 70.95 153.55 74.2 153.85 77.45 154.1 80.85 154.15 84.3 154.15 87.9 153.95 90.75 153.55 93.4 153.0 96.05 152.45 98.45 151.75 100.85 151.05 103.0 150.15 105.2 149.25 107.15 148.2 109.1 147.15 110.8 145.95 112.55 144.7 114.05 143.35 115.55 141.95 116.8 140.4 118.05 138.85 119.1 137.1 120.15 135.35 121.0 133.45 121.85 131.5 122.55 129.35 123.25 127.2 123.75 124.85 124.3 122.5 124.65 119.95 125.0 117.4 125.15 114.65 125.35 111.85 125.35 108.9 125.35 105.95 125.15 102.75 125.0 99.6 124.65 96.2 L124.65 95.55 124.5 92.55 Q124.3 91.05 124.15 89.7 124.05 88.35 123.95 87.1 123.85 85.85 123.85 84.7 123.85 83.55 123.85 82.5 123.9 81.5 124.0 80.55 124.1 79.65 124.25 78.8 124.4 78.0 124.6 77.3 124.8 76.6 125.05 76.0 125.45 72.7 125.65 69.55 125.85 66.35 125.8 63.3 125.8 60.25 125.6 57.25 125.35 54.3 124.9 51.5 124.5 48.65 123.85 45.9 123.2 43.15 122.35 40.55 121.5 37.9 120.45 35.4 119.4 32.9 118.15 30.5 117.4 28.85 116.4 27.25 115.45 25.7 114.3 24.15 113.1 22.65 111.75 21.15 110.4 19.7 108.85 18.3 107.25 16.9 105.5 15.55 103.75 14.2 101.8 12.9 99.8 11.6 97.65 10.4 95.5 9.15 93.15 8.0 L93.1 7.95 Q92.1 7.55 91.1 7.15 90.05 6.7 89.0 6.35 87.95 5.95 86.85 5.55 85.75 5.2 84.6 4.85 83.5 4.45 82.3 4.1 81.15 3.75 79.95 3.45 78.75 3.1 77.55 2.8 76.3 2.45 75.05 2.15 70.9 1.45 66.85 1.2 62.85 0.95 59.0 1.15 55.1 1.35 51.4 1.95 47.7 2.6 44.1 3.65 40.55 4.7 37.1 6.2 33.7 7.65 30.4 9.6 27.15 11.5 24.0 13.85 20.9 16.2 17.9 19.0 16.0 20.9 14.35 23.0 12.7 25.15 11.3 27.45 9.9 29.75 8.75 32.25 7.55 34.7 6.65 37.4 5.75 40.1 5.1 43.0 4.45 45.85 4.0 48.95 3.6 52.05 3.45 55.3 3.25 58.6 3.35 62.05 3.45 63.2 3.6 64.35 3.75 65.55 3.95 66.75 4.15 68.0 4.4 69.25 4.65 70.5 5.0 71.8 5.3 73.1 5.65 74.45 6.0 75.8 6.4 77.15 6.8 78.55 7.3 79.95 7.75 81.4 8.25 82.85" fill="none" stroke="#54453c" stroke-linecap="round" stroke-linejoin="round" stroke-width="2.2"/>
  </g>
</svg>
