<?xml version="1.0" encoding="UTF-8" standalone="no"?>
<svg xmlns:xlink="http://www.w3.org/1999/xlink" height="127.0px" width="128.2px" xmlns="http://www.w3.org/2000/svg">
  <g transform="matrix(1.0, 0.0, 0.0, 1.0, 0.0, 0.0)">
    <path d="M61.35 1.25 Q59.2 1.25 57.05 1.45 54.9 1.6 52.75 1.95 50.6 2.25 48.5 2.7 46.4 3.2 44.3 3.8 42.25 4.4 40.2 5.15 38.15 5.9 36.2 6.8 34.25 7.7 32.35 8.75 30.45 9.8 28.6 10.95 27.35 11.75 26.15 12.6 24.9 13.45 23.75 14.3 22.5 15.25 21.4 16.15 20.25 17.15 19.2 18.15 18.05 19.15 17.05 20.2 16.05 21.3 15.1 22.4 14.15 23.55 13.3 24.75 12.4 26.0 11.65 27.25 10.65 28.9 9.75 30.65 8.85 32.35 8.1 34.15 7.4 35.9 6.75 37.75 6.15 39.55 5.65 41.45 5.2 43.3 4.8 45.25 4.45 47.1 4.2 49.05 3.95 50.95 3.8 52.95 3.6 54.85 3.55 56.8 3.5 57.5 3.5 58.15 3.45 58.85 3.5 59.5 3.5 60.2 3.5 60.9 3.55 61.55 3.6 62.25 3.65 62.9 3.7 63.6 3.75 64.25 3.85 64.95 3.95 65.6 4.05 66.3 4.2 66.95 4.3 67.65 4.6 69.1 4.9 70.5 5.2 71.95 5.55 73.4 5.95 74.8 6.35 76.2 6.75 77.65 7.15 79.05 7.6 80.45 8.1 81.8 8.6 83.2 9.1 84.6 9.65 85.95 10.25 87.3 10.8 88.65 11.45 89.95 11.9 90.85 12.45 91.8 12.9 92.65 13.5 93.65 13.95 94.35 14.6 95.45 15.85 97.45 15.75 97.25 16.35 98.25 16.85 99.05 17.4 100.0 17.85 100.85 18.4 101.8 18.85 102.75 19.3 103.7 19.65 104.65 20.05 105.55 20.6 106.35 21.1 107.15 21.75 107.9 22.4 108.6 23.1 109.25 23.8 109.9 24.6 110.5 25.4 111.05 26.25 111.55 27.05 112.05 27.95 112.45 28.8 112.9 29.75 113.25 30.6 113.6 31.55 113.95 32.3 114.2 33.05 114.45 33.8 114.65 34.55 114.85 35.3 115.05 36.1 115.25 36.85 115.4 37.65 115.55 38.4 115.7 39.2 115.85 39.95 115.95 40.8 116.1 41.5 116.2 42.35 116.35 43.05 116.4 43.95 116.55 45.3 117.05 47.9 118.3 50.5 119.55 51.85 120.05 53.75 120.85 55.65 121.5 57.55 122.2 59.5 122.8 61.45 123.35 63.4 123.85 65.4 124.35 67.35 124.7 69.4 125.05 71.35 125.3 73.4 125.55 75.4 125.65 77.45 125.75 79.45 125.7 81.5 125.65 83.5 125.4 85.05 125.25 86.6 125.05 88.15 124.85 89.65 124.5 91.2 124.2 92.7 123.8 94.2 123.4 95.7 122.9 97.15 122.4 98.65 121.85 100.1 121.3 101.55 120.65 102.95 120.05 104.35 119.35 105.75 118.65 107.1 117.9 107.4 117.8 107.7 117.7 108.0 117.6 108.35 117.5 110.45 116.85 108.95 117.3 109.3 117.2 109.6 117.1 109.9 117.0 110.2 116.9 110.5 116.75 110.8 116.65 111.1 116.55 111.4 116.4 111.7 116.25 112.0 116.1 112.75 115.75 113.35 115.4 114.1 115.05 114.75 114.7 115.45 114.3 116.1 113.95 116.8 113.55 117.4 113.15 118.1 112.7 118.7 112.3 119.35 111.8 119.95 111.35 120.55 110.9 121.1 110.35 121.7 109.85 122.25 109.3 123.05 108.45 123.75 107.45 124.4 106.5 124.9 105.45 125.45 104.45 125.8 103.3 126.2 102.2 126.45 101.05 126.7 99.9 126.8 98.75 126.9 97.55 126.9 96.4 126.9 95.2 126.75 94.05 126.6 92.85 126.35 91.75 126.25 91.1 126.05 90.4 125.9 89.8 125.7 89.1 125.55 88.6 125.3 87.75 125.0 86.85 124.9 86.45 124.65 85.7 124.5 85.1 124.35 84.4 124.2 83.8 124.1 83.05 124.05 82.4 124.0 81.7 124.05 81.05 124.05 80.75 124.05 80.45 124.0 80.1 124.05 79.8 124.05 79.5 124.05 79.2 124.1 78.9 124.15 78.6 124.15 78.3 124.25 78.0 124.3 77.7 124.35 77.4 124.4 77.1 124.5 76.8 124.6 76.5 124.7 76.2 124.9 75.3 125.05 74.35 125.15 73.45 125.25 72.5 125.35 71.6 125.4 70.6 125.45 69.75 125.5 68.75 125.5 67.85 125.5 66.85 125.5 66.1 125.5 64.95 125.5 62.5 125.5 63.1 125.5 62.0 125.5 61.2 125.5 59.95 125.45 58.65 125.4 57.4 125.3 56.1 125.2 54.85 125.05 53.55 124.9 52.3 124.65 51.05 124.45 49.8 124.2 48.5 123.95 47.25 123.65 46.0 123.4 44.8 123.05 43.55 122.7 42.3 122.35 41.1 122.0 40.1 121.7 39.15 121.35 38.15 120.95 37.2 120.6 36.25 120.2 35.3 119.8 34.35 119.35 33.4 118.9 32.45 118.45 31.55 118.0 30.6 117.5 29.7 117.05 28.8 116.5 27.9 116.0 27.0 115.45 26.15 114.45 24.7 113.35 23.3 112.25 21.95 111.0 20.7 109.8 19.45 108.45 18.25 107.15 17.1 105.75 16.0 104.4 14.95 102.9 13.9 101.45 12.95 99.9 12.0 98.45 11.1 96.85 10.2 95.4 9.35 93.75 8.55 92.7 8.05 91.55 7.6 90.5 7.1 89.35 6.7 88.25 6.25 87.1 5.85 86.0 5.45 84.85 5.1 83.75 4.75 82.55 4.4 81.45 4.05 80.25 3.7 79.15 3.4 77.95 3.1 76.85 2.8 75.65 2.5 74.8 2.3 73.9 2.15 73.0 2.05 72.1 1.9 71.25 1.8 70.35 1.7 69.45 1.6 68.55 1.5 67.65 1.45 66.75 1.4 65.85 1.35 64.95 1.3 64.1 1.3 63.15 1.3 62.3 1.25 61.35 1.25 L61.35 1.25" fill="#ffccaa" fill-rule="evenodd" stroke="none"/>
  </g>
</svg>
