<?xml version="1.0" encoding="UTF-8" standalone="no"?>
<svg xmlns:xlink="http://www.w3.org/1999/xlink" height="86.55px" width="97.15px" xmlns="http://www.w3.org/2000/svg">
  <g transform="matrix(1.0, 0.0, 0.0, 1.0, 48.6, 43.25)">
    <path d="M-25.6 6.25 Q-26.5 7.8 -28.1 10.6 -28.0 10.7 -27.85 10.8 -27.7 10.9 -27.6 11.05 -27.45 11.15 -27.3 11.25 -27.1 11.4 -26.95 11.5 -26.75 11.65 -26.6 11.75 -26.4 11.85 -26.2 12.0 -25.95 12.1 -25.75 12.2 -25.55 12.35 -25.3 12.45 -25.05 12.55 -24.8 12.65 -24.55 12.75 -24.35 12.85 -24.1 12.9 -23.85 13.0 -23.65 13.05 -23.4 13.1 -23.2 13.15 -23.0 13.2 -22.8 13.25 -22.6 13.3 -22.45 13.35 -22.25 13.35 -22.1 13.4 -21.9 13.4 -21.7 13.1 -21.35 12.55 -21.25 12.55 -21.1 12.5 -21.0 12.5 -20.9 12.5 -20.75 12.5 -20.65 12.5 -20.5 12.5 -20.35 12.5 -20.25 12.5 -20.1 12.55 -19.95 12.55 -19.85 12.6 -19.7 12.65 -19.6 12.7 -19.45 12.75 -19.35 12.85 -19.25 12.9 -19.2 12.95 -19.15 13.0 -19.1 13.05 -19.05 13.1 -19.0 13.1 -18.95 13.15 -18.9 13.2 -19.05 13.05 -18.85 13.3 -18.8 13.35 -18.75 13.4 -18.7 13.45 -18.65 13.5 -18.6 13.6 -18.5 13.65 -18.4 13.75 -18.25 13.8 -18.15 13.9 -18.05 13.95 -17.9 14.0 -17.75 14.05 -17.65 14.1 -17.45 14.1 -17.3 14.15 -17.1 14.15 -16.95 14.2 -16.7 14.2 -16.7 14.2 -16.25 14.25 -15.95 14.3 -15.7 14.35 -15.2 14.4 -14.85 14.45 -14.55 14.5 -14.35 14.55 -14.3 14.55 -14.05 14.6 -13.9 14.65 -13.75 14.65 -13.6 14.65 -13.4 14.65 -13.25 14.65 -13.1 14.65 -12.9 14.65 -12.7 14.65 -12.5 14.65 -12.3 14.65 -12.1 14.65 -11.9 14.6 -11.65 14.6 -11.4 14.55 -11.15 14.5 -10.9 14.45 -10.65 14.35 -10.35 14.3 -10.1 14.2 -9.8 14.1 -9.75 14.1 -9.7 14.1 -9.65 14.1 -9.6 14.1 -9.5 14.15 -9.45 14.15 -9.4 14.15 -9.3 14.15 -9.25 14.2 -9.15 14.2 -9.1 14.2 -9.0 14.25 -8.95 14.25 -8.85 14.3 -8.8 14.3 -8.7 14.35 -8.55 14.4 -7.5 14.9 -7.35 14.95 -7.25 15.0 -7.1 15.05 -7.0 15.1 -6.9 15.15 -6.75 15.15 -6.65 15.2 -6.55 15.25 -6.4 15.25 -6.3 15.25 -6.2 15.3 -6.05 15.3 -5.95 15.3 -5.85 15.35 -5.75 15.35 -5.6 15.35 -5.45 15.35 -5.3 15.4 -5.2 15.4 -5.05 15.4 -4.9 15.4 -4.75 15.4 -4.65 15.4 -4.45 15.35 -4.35 15.35 -4.15 15.35 -4.0 15.3 -3.8 15.3 -3.65 15.3 -3.45 15.25 -3.3 15.25 -3.0 15.2 -2.7 15.15 -2.45 15.1 -2.25 15.1 -2.0 15.05 -1.85 15.0 -1.65 14.95 -1.4 14.9 -1.35 14.9 -1.2 14.85 -1.1 14.85 -0.95 14.85 -0.8 14.8 -0.7 14.8 -0.55 14.8 -0.4 14.8 -0.2 14.8 0.15 14.8 1.6 14.95 2.0 15.0 2.35 15.05 2.65 15.1 2.95 15.15 3.15 15.15 3.35 15.2 3.45 15.2 3.7 15.25 3.85 15.3 3.95 15.3 4.1 15.3 4.2 15.35 4.3 15.35 4.4 15.35 4.55 15.35 4.7 15.35 4.95 15.35 5.1 15.35 5.3 15.4 5.45 15.4 5.65 15.4 5.85 15.35 6.05 15.35 6.25 15.35 6.45 15.35 6.6 15.3 6.8 15.3 7.0 15.25 7.2 15.2 7.4 15.1 7.6 15.05 7.8 14.95 7.95 14.85 8.1 14.8 8.25 14.7 8.35 14.65 8.45 14.6 8.55 14.5 8.6 14.45 8.7 14.35 8.8 14.25 8.9 14.15 9.0 14.1 9.1 14.0 9.25 13.9 9.4 13.8 9.6 13.7 9.8 13.6 9.85 13.55 9.95 13.5 10.05 13.45 10.15 13.4 10.3 13.35 10.45 13.3 10.6 13.25 10.75 13.2 10.95 13.15 11.15 13.1 11.4 13.05 11.6 13.0 11.85 12.95 12.1 12.9 12.35 12.9 12.6 12.9 12.75 12.9 12.85 12.9 12.95 12.9 13.05 12.9 13.2 12.9 13.3 12.9 13.4 12.9 13.5 12.95 13.6 12.95 13.65 13.0 13.75 13.0 13.85 13.05 13.9 13.1 14.0 13.15 14.05 13.2 14.1 13.3 14.15 13.35 14.2 13.45 14.2 13.55 14.25 13.6 14.25 13.7 14.25 13.8 14.25 13.85 14.25 13.95 14.25 14.05 14.25 14.1 14.25 14.15 14.2 14.25 14.2 14.3 14.2 14.35 14.2 14.4 14.15 14.45 14.35 14.4 14.55 14.4 14.7 14.35 14.9 14.35 15.05 14.3 15.2 14.3 15.4 14.25 15.55 14.25 15.65 14.2 15.8 14.2 15.95 14.2 16.1 14.15 16.2 14.15 16.3 14.15 16.4 14.1 16.5 14.1 16.2 14.15 17.2 14.0 17.6 13.95 17.8 13.9 18.1 13.9 18.3 13.85 18.55 13.8 18.75 13.75 18.95 13.7 19.15 13.65 19.3 13.55 19.45 13.5 19.6 13.4 19.75 13.3 19.85 13.2 19.95 13.05 20.0 13.0 20.05 12.95 20.05 12.9 20.1 12.85 20.15 12.8 20.15 12.75 20.2 12.7 20.25 12.65 20.25 12.6 20.25 12.55 20.3 12.5 20.3 12.5 20.35 12.45 20.35 12.4 20.35 12.35 20.35 12.3 21.45 12.15 23.65 11.8 23.65 12.3 23.65 13.35 23.75 13.35 23.85 13.35 23.95 13.35 24.0 13.35 24.1 13.35 24.2 13.35 24.3 13.35 24.45 13.35 24.55 13.35 24.65 13.35 24.75 13.3 24.85 13.3 24.95 13.3 25.1 13.3 25.2 13.25 25.3 13.25 25.65 13.2 26.05 13.05 26.35 12.95 26.7 12.85 27.0 12.7 27.3 12.55 27.55 12.4 27.85 12.25 28.1 12.1 28.3 11.95 28.5 11.8 28.7 11.6 28.9 11.45 29.05 11.3 29.2 11.2 29.35 11.05 29.5 11.0 29.65 10.95 29.8 10.85 30.0 10.8 30.15 10.7 30.35 10.6 30.5 10.55 30.7 10.45 30.9 10.3 31.1 10.2 31.3 10.1 31.45 9.95 31.65 9.85 31.85 9.7 32.05 9.55 32.25 9.4 32.35 9.3 32.45 9.25 32.55 9.15 32.6 9.1 32.7 9.0 32.8 8.95 32.85 8.85 32.95 8.8 33.05 8.7 33.1 8.65 33.2 8.55 33.25 8.5 33.3 8.4 33.4 8.35 33.45 8.25 33.5 8.2 32.7 7.0 31.0 4.7 31.05 4.6 31.1 4.5 31.15 4.35 31.2 4.25 31.25 4.15 31.3 4.0 31.35 3.85 31.4 3.75 31.45 3.6 31.5 3.45 31.55 3.3 31.6 3.15 31.65 3.0 31.7 2.85 31.75 2.65 31.8 2.5 31.9 2.25 31.9 2.1 32.0 1.85 32.05 1.65 32.1 1.35 32.15 1.15 32.2 0.85 32.25 0.6 32.3 0.3 32.35 0.0 32.4 -0.3 32.4 -0.6 32.45 -0.95 32.45 -1.25 32.45 -1.6 32.45 -1.95 32.4 -2.35 32.35 -2.7 32.3 -3.1 32.25 -3.45 32.15 -3.75 32.05 -4.1 31.95 -4.4 31.85 -4.7 31.75 -5.0 31.6 -5.25 31.5 -5.5 31.4 -5.75 31.3 -6.0 31.15 -6.25 31.05 -6.4 30.95 -6.65 30.7 -7.1 30.45 -7.5 30.2 -7.85 29.95 -8.25 29.7 -8.55 29.4 -8.9 29.15 -9.2 28.9 -9.45 28.65 -9.7 28.4 -9.95 28.2 -10.15 27.95 -10.35 27.8 -10.55 27.6 -10.7 27.4 -10.8 27.25 -10.95 26.95 -11.2 26.6 -11.4 26.3 -11.6 25.95 -11.8 25.65 -12.0 25.35 -12.15 25.05 -12.3 24.75 -12.45 24.45 -12.6 24.2 -12.7 23.9 -12.8 23.65 -12.9 23.4 -13.0 23.15 -13.05 22.95 -13.15 22.7 -13.2 22.7 -13.7 22.7 -14.8 22.75 -14.8 22.8 -14.8 22.9 -14.75 22.95 -14.75 23.0 -14.75 23.1 -14.75 23.15 -14.75 23.2 -14.7 23.3 -14.7 23.35 -14.7 23.45 -14.7 23.55 -14.7 23.6 -14.7 23.7 -14.7 23.8 -14.7 23.85 -14.7 24.05 -14.7 24.15 -14.7 24.35 -14.7 24.45 -14.7 24.6 -14.65 24.7 -14.7 24.85 -14.7 24.95 -14.7 25.05 -14.7 25.15 -14.7 25.25 -14.75 25.3 -14.75 25.4 -14.8 25.5 -14.8 25.55 -14.85 25.65 -14.9 25.75 -14.95 25.85 -15.05 25.9 -15.1 26.0 -15.2 26.1 -15.25 26.15 -15.35 26.25 -15.45 26.3 -15.55 26.35 -15.65 26.4 -15.75 26.45 -15.9 26.5 -16.0 26.55 -16.15 26.55 -16.25 26.55 -16.4 26.55 -16.5 26.55 -16.65 26.55 -16.8 26.5 -16.95 26.45 -17.1 26.4 -17.25 26.35 -17.35 26.3 -17.5 26.2 -17.6 26.1 -17.75 26.0 -17.85 25.9 -17.95 25.8 -18.0 25.7 -18.1 25.55 -18.2 25.45 -18.25 25.3 -18.3 25.15 -18.35 25.0 -18.4 24.85 -18.4 24.7 -18.4 24.55 -18.45 24.4 -18.4 24.25 -18.4 24.1 -18.35 24.0 -18.35 23.85 -18.3 23.7 -18.25 23.6 -18.15 23.5 -18.1 23.35 -18.0 23.25 -17.95 23.2 -17.85 23.1 -17.75 23.05 -17.65 22.95 -17.55 22.9 -17.4 22.85 -17.3 22.85 -17.2 22.8 -17.1 22.75 -16.95 22.75 -16.85 22.7 -16.75 22.7 -16.65 22.65 -16.55 22.6 -16.45 22.55 -16.4 22.45 -16.3 22.4 -16.25 22.35 -16.2 22.25 -16.15 22.2 -16.1 22.1 -16.1 22.05 -16.1 21.95 -16.05 21.9 -16.05 21.8 -16.05 21.7 -16.05 21.6 -16.1 21.65 -16.05 21.35 -16.1 21.2 -16.1 21.1 -16.1 20.95 -16.1 20.75 -16.1 20.5 -16.1 20.35 -16.1 20.1 -16.1 19.9 -16.1 19.7 -16.1 19.5 -16.1 19.3 -16.05 19.1 -16.05 18.9 -16.0 18.75 -15.95 18.55 -15.9 18.4 -15.85 18.2 -15.75 18.05 -15.65 17.9 -15.55 17.8 -15.45 17.7 -15.35 17.55 -15.2 17.5 -15.05 17.4 -14.9 17.35 -14.75 17.3 -14.6 17.25 -14.5 17.2 -14.35 17.15 -14.2 17.15 -14.1 17.1 -14.0 17.1 -13.9 17.1 -13.8 17.1 -13.75 17.1 -13.7 17.1 -13.65 17.1 -13.55 17.1 -13.5 17.1 -13.4 17.1 -13.35 17.1 -13.3 17.15 -13.2 17.15 -13.15 17.15 -13.1 17.15 -13.0 17.2 -12.95 17.2 -12.9 17.2 -12.85 17.2 -12.8 17.25 -12.75 17.25 -12.7 17.25 -12.65 17.2 -12.6 17.1 -12.6 17.05 -12.55 16.95 -12.5 16.85 -12.5 16.8 -12.45 16.7 -12.4 16.6 -12.35 16.5 -12.3 16.4 -12.25 16.3 -12.2 16.2 -12.15 16.1 -12.1 16.0 -12.05 15.9 -12.0 15.75 -11.9 15.5 -11.75 15.35 -11.65 15.1 -11.55 14.9 -11.4 14.65 -11.25 14.4 -11.1 14.15 -10.9 13.9 -10.7 13.6 -10.5 13.35 -10.3 13.1 -10.05 12.8 -9.8 12.55 -9.55 12.3 -9.25 12.0 -8.95 11.75 -8.65 11.65 -8.5 11.5 -8.35 11.4 -8.15 11.25 -8.0 11.1 -7.75 11.0 -7.55 10.85 -7.3 10.7 -7.05 10.6 -6.8 10.45 -6.55 10.3 -6.25 10.2 -5.95 10.05 -5.6 9.95 -5.3 9.85 -4.95 9.75 -4.55 9.7 -4.55 9.65 -4.6 9.55 -4.6 9.45 -4.65 9.35 -4.65 9.25 -4.7 9.15 -4.7 9.05 -4.7 8.95 -4.7 8.8 -4.7 8.65 -4.7 8.55 -4.7 8.4 -4.7 8.25 -4.65 8.1 -4.6 7.95 -4.55 7.75 -4.5 7.6 -4.4 7.45 -4.3 7.3 -4.2 7.15 -4.1 7.05 -4.0 6.95 -3.9 6.85 -3.75 6.75 -3.65 6.65 -3.55 6.6 -3.45 6.55 -3.3 6.5 -3.2 6.45 -3.1 6.4 -3.05 6.35 -2.95 6.3 -2.9 6.3 -2.8 6.2 -2.65 6.2 -2.5 6.1 -2.35 6.05 -2.15 6.0 -1.95 6.0 -1.7 5.95 -1.45 5.95 -1.2 5.95 -0.95 6.0 -0.65 6.05 -0.35 6.15 -0.1 6.3 0.2 6.45 0.5 6.6 0.7 6.75 0.85 6.9 1.05 7.05 1.2 7.25 1.35 7.45 1.45 7.65 1.6 7.85 1.7 8.05 1.75 8.3 1.85 8.5 1.9 8.75 1.95 8.95 2.0 9.2 2.0 9.45 2.0 9.7 2.0 9.75 2.2 9.85 2.4 9.9 2.6 10.0 2.75 10.05 3.0 10.15 3.2 10.25 3.4 10.35 3.6 10.45 3.85 10.55 4.05 10.65 4.25 10.8 4.5 10.9 4.75 11.05 4.95 11.15 5.2 11.3 5.45 11.45 5.7 11.6 5.95 11.75 6.2 11.95 6.45 12.1 6.7 12.25 6.9 12.4 7.15 12.6 7.35 12.75 7.55 12.9 7.8 13.05 8.0 13.2 8.15 13.35 8.35 13.5 8.55 13.65 8.7 13.8 8.85 12.9 8.9 11.05 9.0 11.05 8.95 11.05 8.9 11.05 8.8 11.05 8.75 11.0 8.65 11.0 8.55 10.95 8.45 10.95 8.35 10.9 8.25 10.85 8.15 10.85 8.05 10.75 7.95 10.7 7.85 10.65 7.7 10.55 7.6 10.5 7.5 10.45 7.45 10.4 7.4 10.35 7.35 10.3 7.3 10.25 7.2 10.15 7.15 10.1 7.05 10.0 7.0 9.9 6.9 9.8 6.85 9.65 6.75 9.55 6.7 9.4 6.65 9.25 6.6 9.1 6.55 8.95 6.5 8.8 6.45 8.6 6.45 8.45 6.45 8.3 6.5 8.15 6.5 7.95 6.5 7.8 6.55 7.65 6.6 7.5 6.65 7.35 6.75 7.2 6.8 7.05 6.9 6.95 7.0 6.85 7.1 6.7 7.2 6.65 7.3 6.6 7.4 6.55 7.5 6.5 7.6 6.45 7.7 6.45 7.8 6.4 7.9 6.4 7.9 6.4 8.1 6.35 8.2 6.35 8.25 6.35 8.35 6.3 8.45 6.25 8.55 6.2 8.65 6.15 8.7 6.05 8.8 6.0 8.85 5.95 8.9 5.9 8.95 5.8 9.0 5.75 9.05 5.7 9.1 5.6 9.15 5.55 9.15 5.5 9.2 5.4 9.2 5.35 9.25 5.3 9.25 5.25 9.3 5.15 9.3 5.1 9.3 5.05 9.35 4.7 9.45 4.35 9.5 4.05 9.55 3.75 9.6 3.45 9.6 3.2 9.65 2.95 9.65 2.7 9.65 2.55 9.7 2.35 9.7 2.2 9.7 2.1 9.7 2.0 9.7 1.95 9.7 1.9 9.7 1.85 9.7 1.5 9.65 1.2 9.65 0.95 9.65 0.7 9.65 0.5 9.65 0.3 9.7 0.2 9.7 -0.15 9.75 -0.5 9.75 -0.7 9.8 -1.1 9.85 -1.5 9.85 -1.95 9.9 -2.55 9.9 -3.2 9.9 -4.0 9.9 -4.5 9.9 -5.0 9.9 -5.5 9.9 -5.95 9.85 -6.4 9.85 -6.85 9.85 -7.2 9.85 -7.6 9.8 -7.95 9.8 -8.25 9.75 -8.55 9.75 -8.8 9.75 -9.05 9.7 -9.25 9.7 -9.4 9.7 -9.55 9.7 -9.95 9.65 -10.75 9.55 -10.7 9.45 -10.65 9.35 -10.6 9.25 -10.55 9.15 -10.5 9.05 -10.4 8.95 -10.35 8.85 -10.3 8.75 -10.2 8.65 -10.15 8.55 -10.05 8.45 -10.0 8.35 -9.9 8.25 -9.8 8.1 -9.7 8.0 -9.6 7.9 -9.45 7.75 -9.35 7.6 -9.2 7.45 -9.05 7.3 -8.95 7.2 -8.8 7.05 -8.65 6.95 -8.55 6.85 -8.4 6.7 -8.25 6.6 -8.15 6.5 -8.0 6.45 -7.9 6.35 -7.8 6.25 -7.65 6.2 -7.55 6.1 -7.55 6.15 -7.55 6.2 -7.5 6.25 -7.5 6.35 -7.45 6.5 -7.4 6.6 -7.35 6.75 -7.25 6.85 -7.2 7.0 -7.1 7.15 -7.0 7.3 -6.85 7.45 -6.7 7.6 -6.55 7.7 -6.35 7.8 -6.15 7.9 -6.0 7.95 -5.85 8.0 -5.75 8.05 -5.6 8.05 -5.45 8.05 -5.35 8.05 -5.2 8.05 -5.1 8.05 -5.0 8.05 -4.9 8.0 -4.8 8.0 -4.7 8.0 -4.65 7.95 -4.55 7.95 -4.5 7.9 -4.45 7.9 -4.3 7.85 -4.2 7.8 -4.05 7.7 -3.95 7.65 -3.85 7.55 -3.7 7.45 -3.6 7.35 -3.5 7.25 -3.45 7.15 -3.35 7.05 -3.25 6.9 -3.2 6.8 -3.15 6.65 -3.1 6.55 -3.05 6.4 -3.0 6.3 -2.95 6.1 -2.95 5.85 -2.95 5.65 -3.0 5.4 -3.05 5.2 -3.15 5.0 -3.25 4.75 -3.4 4.55 -3.55 4.35 -3.7 4.15 -3.9 3.95 -4.1 3.8 -4.3 3.65 -4.55 3.5 -4.8 3.4 -5.1 3.3 -3.75 2.05 -2.4 0.75 L-2.4 0.75 Q-2.4 0.75 -2.35 0.75 -2.3 0.75 -2.2 0.8 -2.1 0.8 -2.0 0.8 -1.9 0.85 -1.75 0.85 -1.6 0.85 -1.45 0.9 -1.25 0.9 -1.1 0.9 -0.9 0.95 -0.75 0.95 -0.55 0.95 -0.35 0.95 -0.3 0.95 -0.25 0.95 -0.2 0.95 -0.15 0.95 -0.1 0.95 0.0 0.95 0.05 0.95 0.1 0.95 0.2 0.95 0.25 0.95 0.35 0.9 0.45 0.9 0.5 0.9 0.6 0.9 0.7 0.9 0.8 0.9 1.7 1.65 3.5 3.2 3.25 3.75 2.75 4.85 2.85 4.85 3.0 4.9 3.15 4.9 3.25 4.95 3.4 4.95 3.55 5.0 3.65 5.0 3.8 5.0 3.95 5.05 4.1 5.05 4.25 5.05 4.35 5.1 4.5 5.1 4.65 5.1 4.8 5.15 4.95 5.15 5.1 5.15 5.25 5.15 5.4 5.15 5.55 5.2 5.65 5.2 5.8 5.2 5.95 5.2 6.1 5.2 6.2 5.2 6.35 5.2 6.45 5.2 6.6 5.2 6.75 5.2 6.85 5.2 7.0 5.2 7.1 5.2 6.65 3.7 5.8 0.7 5.35 1.05 4.45 1.75 3.65 1.0 2.0 -0.5 1.95 -1.0 1.95 -2.2 1.9 -2.7 1.85 -3.7 3.45 -5.65 6.6 -9.5 6.6 -9.45 6.65 -9.4 6.65 -9.35 6.7 -9.25 6.7 -9.15 6.75 -9.1 6.8 -9.0 6.9 -8.9 6.95 -8.8 7.05 -8.7 7.1 -8.55 7.2 -8.45 7.35 -8.35 7.45 -8.25 7.6 -8.15 7.75 -8.05 7.9 -8.0 8.0 -7.95 8.15 -7.85 8.3 -7.85 8.45 -7.8 8.6 -7.75 8.75 -7.75 8.95 -7.75 9.1 -7.75 9.25 -7.75 9.4 -7.8 9.6 -7.85 9.75 -7.9 9.9 -7.95 10.05 -8.05 10.2 -8.15 10.35 -8.25 10.5 -8.4 10.6 -8.5 10.75 -8.65 10.85 -8.8 10.9 -8.95 11.0 -9.15 11.05 -9.3 11.1 -9.45 11.15 -9.65 11.15 -9.85 11.15 -10.0 11.15 -10.2 11.15 -10.35 11.1 -10.55 11.05 -10.7 11.0 -10.9 10.9 -11.05 10.85 -11.25 10.75 -11.4 10.6 -11.55 10.5 -11.7 10.35 -11.8 10.2 -11.95 10.05 -12.05 9.9 -12.15 9.7 -12.25 9.55 -12.3 9.35 -12.35 9.15 -12.4 8.95 -12.45 8.75 -12.45 9.5 -13.65 11.0 -16.0 11.0 -15.95 11.05 -15.9 11.05 -15.8 11.1 -15.7 11.1 -15.6 11.15 -15.5 11.2 -15.4 11.25 -15.25 11.3 -15.15 11.4 -15.0 11.45 -14.9 11.55 -14.75 11.65 -14.65 11.75 -14.5 11.9 -14.4 12.05 -14.3 12.2 -14.15 12.4 -14.05 12.6 -13.95 12.8 -13.85 13.0 -13.8 13.2 -13.75 13.4 -13.7 13.6 -13.7 13.8 -13.7 14.0 -13.7 14.2 -13.7 14.4 -13.75 14.55 -13.8 14.75 -13.85 14.9 -13.9 15.1 -14.0 15.3 -14.1 16.6 -15.75 18.1 -17.8 18.2 -18.05 18.15 -17.95 18.25 -18.2 18.3 -18.35 18.3 -18.45 18.35 -18.6 18.35 -18.75 18.4 -18.9 18.4 -19.05 18.4 -19.25 18.4 -19.4 18.4 -19.6 18.4 -19.8 18.35 -20.0 18.3 -20.15 18.25 -20.35 18.15 -20.55 18.05 -20.75 17.9 -20.9 17.75 -21.1 17.55 -21.25 17.4 -21.4 17.15 -21.5 16.95 -21.6 16.7 -21.7 16.5 -21.8 16.25 -21.85 15.95 -21.9 15.7 -21.95 15.4 -22.0 15.15 -21.95 14.85 -21.95 14.55 -21.9 15.7 -24.45 16.45 -26.1 18.25 -29.95 19.95 -33.5 19.95 -33.5 20.05 -33.45 20.1 -33.4 20.15 -33.4 20.25 -33.35 20.3 -33.3 20.4 -33.3 20.45 -33.25 20.55 -33.2 20.65 -33.2 20.75 -33.15 20.85 -33.1 21.0 -33.1 21.1 -33.1 21.2 -33.05 21.35 -33.05 21.5 -33.05 21.65 -33.05 21.75 -33.05 21.9 -33.1 22.0 -33.1 22.15 -33.15 22.25 -33.2 22.35 -33.25 22.45 -33.25 22.55 -33.3 22.6 -33.35 22.7 -33.4 22.75 -33.45 22.8 -33.45 22.85 -33.5 22.9 -33.5 22.2 -36.15 20.7 -41.6 20.25 -41.3 19.25 -40.6 19.1 -40.05 18.75 -39.15 18.35 -38.1 17.95 -37.0 17.6 -35.95 17.15 -34.9 16.75 -33.9 16.35 -32.85 15.9 -31.85 15.5 -30.8 15.05 -29.8 14.6 -28.8 14.15 -27.8 13.7 -26.8 13.25 -25.85 12.8 -24.85 12.35 -23.9 11.85 -22.95 11.8 -22.95 11.75 -23.0 11.65 -23.0 11.6 -23.0 11.5 -23.05 11.4 -23.05 11.35 -23.05 11.25 -23.05 11.15 -23.05 11.05 -23.05 10.95 -23.05 10.85 -23.05 10.7 -23.05 10.6 -23.05 10.5 -23.05 10.35 -23.0 10.3 -23.0 10.2 -22.95 10.1 -22.95 9.95 -22.9 9.8 -22.85 9.6 -22.75 9.45 -22.7 9.25 -22.6 9.05 -22.5 8.9 -22.35 8.7 -22.2 8.55 -22.0 8.35 -21.85 8.25 -21.6 8.15 -21.4 8.1 -21.1 8.05 -20.95 8.05 -20.75 8.05 -20.6 8.05 -20.45 8.05 -20.25 8.1 -20.1 8.15 -19.95 8.2 -19.8 8.3 -19.6 8.4 -19.45 8.45 -19.3 8.6 -19.15 8.7 -19.0 8.85 -18.9 8.95 -18.75 9.1 -18.65 9.05 -18.55 9.0 -18.45 8.95 -18.3 8.9 -18.2 8.85 -18.05 8.75 -17.95 8.7 -17.8 8.65 -17.65 8.55 -17.5 8.5 -17.35 8.4 -17.2 8.3 -17.05 8.25 -16.9 8.15 -16.75 8.05 -16.55 7.95 -16.4 7.75 -16.05 7.55 -15.7 7.35 -15.35 7.15 -15.05 6.9 -14.7 6.7 -14.4 6.45 -14.05 6.2 -13.75 6.0 -13.4 5.7 -13.05 5.45 -12.7 5.15 -12.35 4.9 -12.0 4.55 -11.6 4.25 -11.25 3.9 -10.85 3.5 -10.35 3.05 -9.9 2.65 -9.45 2.25 -9.0 1.9 -8.6 1.5 -8.15 1.15 -7.8 0.8 -7.4 0.45 -7.05 0.15 -6.7 -0.15 -6.4 -0.45 -6.1 -0.75 -5.8 -1.0 -5.55 -1.2 -5.3 -1.45 -5.1 -4.95 -1.6 -7.85 0.85 -8.4 1.3 -8.7 1.55 -9.15 1.95 -9.55 2.3 -10.05 2.65 -10.5 3.0 -11.0 3.4 -11.45 3.75 -12.0 4.15 -12.5 4.55 -13.05 4.95 -13.6 5.3 -14.2 5.7 -14.8 6.1 -15.45 6.5 -16.1 6.9 -16.3 7.05 -16.55 7.15 -16.75 7.3 -16.95 7.4 -17.15 7.55 -17.35 7.65 -17.55 7.75 -17.75 7.85 -17.9 7.95 -18.1 8.05 -18.25 8.15 -18.4 8.2 -18.55 8.3 -18.7 8.4 -18.85 8.45 -19.0 8.55 -20.2 8.35 -21.0 8.1 -21.35 8.0 -21.7 7.9 -22.0 7.8 -22.35 7.7 -22.65 7.6 -22.95 7.5 -23.25 7.35 -23.55 7.25 -23.85 7.15 -24.1 7.0 -24.35 6.9 -24.65 6.75 -24.9 6.6 -25.15 6.5 -25.35 6.35 -25.6 6.25 L-25.6 6.25" fill="#2887bc" fill-rule="evenodd" stroke="none"/>
    <path d="M22.0 -26.55 Q21.9 -27.9 21.7 -30.6 22.6 -30.0 24.5 -28.75 25.7 -29.35 28.25 -30.6 27.9 -29.05 27.2 -26.0 28.1 -25.05 29.85 -23.2 28.45 -23.05 25.7 -22.8 24.75 -21.55 22.9 -19.05 22.7 -20.4 22.25 -23.1 21.2 -23.8 19.05 -25.2 20.05 -25.65 22.0 -26.55 L22.0 -26.55" fill="#2887bc" fill-rule="evenodd" stroke="none"/>
  </g>
</svg>
