<?xml version="1.0" encoding="UTF-8" standalone="no"?>
<svg xmlns:xlink="http://www.w3.org/1999/xlink" height="12.0px" width="29.85px" xmlns="http://www.w3.org/2000/svg">
  <g transform="matrix(1.0, 0.0, 0.0, 1.0, 14.95, 6.0)">
    <path d="M-6.25 2.35 L-6.45 2.2 -6.55 2.1 -6.7 2.0 -6.65 1.55 -6.65 1.15 -6.35 0.8 -6.0 0.5 -5.95 0.5 -5.9 0.5 -5.8 0.4 -5.7 0.35 -5.4 0.2 -5.1 0.05 -4.65 -0.15 -4.25 -0.35 -4.0 -0.45 -3.7 -0.6 -3.3 -0.7 -2.95 -0.85 -2.85 -0.9 -2.8 -0.95 -2.7 -0.95 -2.55 -0.95 -2.45 -1.0 -2.3 -1.05 -2.05 -1.15 -1.85 -1.2 -1.55 -1.25 -1.3 -1.3 -1.25 -1.35 -1.25 -1.45 -1.0 -1.45 -0.75 -1.45 -0.75 -1.5 -0.75 -1.55 -0.5 -1.55 -0.25 -1.55 -0.25 -1.65 -0.2 -1.7 0.0 -1.7 0.15 -1.7 0.25 -1.8 0.4 -1.85 0.85 -1.9 1.3 -2.0 1.7 -2.05 2.05 -2.15 2.35 -2.15 2.7 -2.2 2.8 -2.25 2.95 -2.35 4.45 -2.3 5.95 -2.3 6.2 -2.25 6.45 -2.2 6.45 -2.1 6.45 -2.05 6.55 -2.05 6.7 -2.05 7.0 -1.7 7.35 -1.35 7.35 -0.95 7.35 -0.55 7.2 -0.35 7.05 -0.15 6.8 0.1 6.55 0.35 6.3 0.5 6.1 0.7 5.75 0.85 5.45 1.0 5.15 1.0 4.8 1.0 4.75 1.05 4.7 1.15 4.35 1.15 4.0 1.15 3.9 1.2 3.8 1.25 2.95 1.3 2.15 1.35 2.1 1.4 2.1 1.5 2.0 1.45 1.95 1.4 2.1 1.25 2.25 1.15 2.3 1.15 2.4 1.15 2.8 0.95 3.15 0.75 3.35 0.65 3.55 0.55 3.7 0.5 3.85 0.4 4.1 0.2 4.4 0.0 4.5 -0.2 4.6 -0.4 4.6 -0.6 4.6 -0.8 4.35 -1.1 4.1 -1.45 3.9 -1.55 3.7 -1.65 3.25 -1.7 2.8 -1.7 2.5 -1.6 2.2 -1.5 2.05 -1.5 1.85 -1.5 1.45 -1.35 1.05 -1.2 0.45 -1.1 -0.1 -0.95 -0.45 -0.85 -0.8 -0.75 -1.5 -0.5 -2.15 -0.25 -2.4 -0.15 -2.65 -0.05 -3.35 0.3 -4.05 0.6 -4.2 0.7 -4.4 0.75 -4.6 0.95 -4.85 1.15 -4.85 1.35 -4.85 1.6 -4.75 1.7 -4.65 1.8 -2.45 1.75 -0.25 1.7 -0.25 1.75 -0.25 1.85 -0.45 1.85 -0.6 1.85 -0.6 1.9 -0.6 1.95 -0.95 2.0 -1.25 2.05 -1.55 2.05 -1.85 2.1 -1.95 2.15 -2.1 2.25 -2.4 2.25 -2.75 2.3 -3.1 2.4 -3.5 2.45 -4.8 2.5 -6.05 2.55 -6.25 2.35 -6.25 2.35" fill="#d2d2d2" fill-rule="evenodd" stroke="none"/>
    <path d="M-6.4 2.25 L-6.65 2.0 -6.65 1.6 -6.65 1.15 -6.35 0.85 -6.05 0.6 -5.95 0.6 -5.9 0.6 -5.9 0.5 -5.9 0.45 -5.2 0.15 -4.55 -0.2 -4.4 -0.25 -4.25 -0.3 -4.0 -0.4 -3.75 -0.55 -3.7 -0.55 -3.6 -0.55 -3.35 -0.65 -3.05 -0.8 -2.95 -0.8 -2.9 -0.8 -2.8 -0.85 -2.65 -0.95 -2.3 -1.05 -1.9 -1.15 -1.8 -1.15 -1.65 -1.15 -1.6 -1.2 -1.6 -1.3 -1.4 -1.3 -1.25 -1.3 -1.2 -1.35 -1.15 -1.4 -0.95 -1.45 -0.7 -1.5 -0.15 -1.65 0.4 -1.8 0.55 -1.8 0.7 -1.8 0.75 -1.85 0.8 -1.9 1.05 -1.9 1.3 -1.9 1.35 -2.0 1.45 -2.05 1.75 -2.1 2.05 -2.1 2.5 -2.2 2.95 -2.25 4.05 -2.3 5.1 -2.35 5.75 -2.25 6.35 -2.2 6.5 -2.1 6.65 -2.0 6.85 -1.8 7.1 -1.6 7.25 -1.4 7.35 -1.25 7.3 -1.1 7.2 -0.95 7.3 -0.8 7.35 -0.65 7.25 -0.45 7.15 -0.25 6.7 0.15 6.25 0.55 6.05 0.65 5.85 0.75 5.85 0.8 5.85 0.85 5.7 0.85 5.6 0.85 5.5 0.9 5.45 1.0 5.05 1.0 4.7 1.05 3.95 1.15 3.25 1.2 3.1 1.3 3.0 1.35 2.6 1.35 2.15 1.35 2.15 1.25 2.15 1.2 2.25 1.2 2.35 1.2 2.8 1.0 3.25 0.8 3.35 0.7 3.45 0.65 3.7 0.55 3.95 0.4 4.0 0.3 4.1 0.25 4.25 0.15 4.35 0.1 4.5 -0.1 4.6 -0.35 4.6 -0.65 4.6 -0.95 4.25 -1.25 3.95 -1.6 3.5 -1.7 3.05 -1.8 2.4 -1.65 1.8 -1.5 1.25 -1.35 0.65 -1.15 0.3 -1.1 -0.1 -1.0 -0.9 -0.75 -1.7 -0.45 -2.0 -0.35 -2.3 -0.25 -3.15 0.15 -4.05 0.6 -4.1 0.6 -4.2 0.6 -4.2 0.65 -4.2 0.7 -4.3 0.7 -4.35 0.7 -4.6 0.9 -4.85 1.1 -4.85 1.35 -4.85 1.65 -4.7 1.75 -4.6 1.8 -3.2 1.8 -1.75 1.85 -1.15 1.75 -0.5 1.7 -0.5 1.7 -0.45 1.75 -0.6 1.85 -0.7 1.95 -1.05 1.95 -1.35 1.95 -1.4 2.05 -1.45 2.1 -1.65 2.1 -1.85 2.1 -2.15 2.15 -2.45 2.25 -3.0 2.35 -3.6 2.45 -4.9 2.45 -6.15 2.45 -6.4 2.25" fill="#b2b2b2" fill-rule="evenodd" stroke="none"/>
    <path d="M-6.35 2.25 L-6.6 2.05 -6.6 1.6 -6.6 1.15 -6.5 1.0 -6.4 0.9 -6.05 0.65 -5.7 0.4 -5.0 0.05 -4.25 -0.3 -4.05 -0.35 -3.85 -0.4 -3.85 -0.45 -3.8 -0.55 -3.7 -0.55 -3.6 -0.55 -3.3 -0.65 -3.0 -0.8 -2.65 -0.9 -2.3 -1.0 -2.0 -1.1 -1.7 -1.15 -1.55 -1.25 -1.45 -1.3 -1.3 -1.3 -1.2 -1.3 -1.15 -1.35 -1.1 -1.4 -0.85 -1.45 -0.65 -1.5 -0.25 -1.6 0.2 -1.7 0.3 -1.75 0.4 -1.75 0.6 -1.8 0.8 -1.85 1.1 -1.9 1.45 -2.0 1.8 -2.05 2.15 -2.1 2.7 -2.2 3.25 -2.3 4.7 -2.25 6.15 -2.25 6.45 -2.05 6.8 -1.9 7.0 -1.7 7.25 -1.45 7.25 -1.0 7.3 -0.55 7.2 -0.4 7.05 -0.25 6.95 -0.1 6.85 0.05 6.45 0.35 6.0 0.7 5.75 0.8 5.45 0.95 4.65 1.05 3.85 1.15 3.45 1.2 3.05 1.3 2.65 1.3 2.25 1.35 2.25 1.3 2.25 1.25 2.45 1.15 2.7 1.05 3.1 0.85 3.5 0.65 3.75 0.5 3.95 0.4 4.2 0.2 4.4 0.05 4.55 -0.2 4.7 -0.45 4.65 -0.7 4.6 -0.95 4.25 -1.3 3.95 -1.65 3.75 -1.65 3.5 -1.7 3.2 -1.75 2.95 -1.8 2.3 -1.65 1.7 -1.5 1.35 -1.4 1.0 -1.3 0.35 -1.15 -0.3 -0.95 -0.8 -0.8 -1.35 -0.6 -1.95 -0.4 -2.5 -0.2 -3.3 0.2 -4.1 0.6 -4.1 0.6 -4.15 0.6 -4.5 0.8 -4.8 1.0 -4.85 1.1 -4.9 1.15 -4.9 1.35 -4.9 1.5 -4.8 1.7 -4.7 1.85 -2.7 1.8 -0.7 1.8 -0.7 1.85 -0.75 1.95 -1.05 1.95 -1.4 2.0 -2.45 2.2 -3.5 2.4 -4.8 2.45 -6.15 2.45 -6.35 2.25 -6.35 2.25" fill="#8f8f8f" fill-rule="evenodd" stroke="none"/>
    <path d="M-6.35 2.2 L-6.6 2.0 -6.6 1.6 -6.6 1.2 -6.5 1.05 -6.4 0.9 -6.05 0.65 -5.7 0.4 -5.1 0.1 -4.5 -0.2 -4.45 -0.2 -4.4 -0.2 -4.05 -0.35 -3.65 -0.55 -3.6 -0.55 -3.55 -0.55 -3.25 -0.65 -2.95 -0.8 -2.5 -0.9 -2.1 -1.05 -1.95 -1.1 -1.85 -1.15 -1.35 -1.3 -0.85 -1.45 -0.55 -1.5 -0.25 -1.55 0.05 -1.65 0.3 -1.7 0.6 -1.8 0.9 -1.85 1.2 -1.9 1.5 -2.0 2.2 -2.1 2.9 -2.2 4.25 -2.25 5.6 -2.25 5.95 -2.2 6.35 -2.1 6.55 -2.0 6.75 -1.9 7.0 -1.65 7.2 -1.4 7.25 -1.35 7.25 -1.35 7.25 -0.95 7.25 -0.55 7.1 -0.35 6.95 -0.15 6.75 0.1 6.5 0.3 6.1 0.6 5.7 0.85 5.2 0.95 4.75 1.0 4.3 1.05 3.8 1.15 3.35 1.2 2.95 1.3 2.6 1.3 2.25 1.35 2.25 1.3 2.25 1.2 2.3 1.2 2.4 1.2 2.75 1.05 3.15 0.85 3.15 0.85 3.2 0.85 3.8 0.5 4.35 0.15 4.5 -0.1 4.65 -0.35 4.65 -0.65 4.6 -0.95 4.4 -1.2 4.15 -1.5 3.9 -1.6 3.65 -1.75 3.1 -1.75 2.55 -1.75 2.0 -1.6 1.45 -1.45 0.6 -1.2 -0.25 -1.0 -0.8 -0.8 -1.4 -0.6 -2.0 -0.4 -2.6 -0.2 -3.5 0.3 -4.45 0.75 -4.7 0.9 -4.9 1.1 -4.9 1.4 -4.9 1.7 -4.8 1.75 -4.65 1.85 -2.7 1.85 -0.75 1.85 -0.8 1.85 -0.8 1.9 -1.15 1.95 -1.5 2.0 -2.15 2.15 -2.8 2.25 -3.15 2.3 -3.5 2.4 -4.75 2.45 -6.05 2.45 -6.35 2.2 -6.35 2.2" fill="#707070" fill-rule="evenodd" stroke="none"/>
    <path d="M-6.3 2.25 L-6.6 2.0 -6.6 1.6 -6.6 1.15 -6.3 0.9 -6.05 0.7 -5.85 0.55 -5.65 0.4 -5.05 0.1 -4.45 -0.15 -4.0 -0.35 -3.5 -0.55 -3.3 -0.65 -3.05 -0.7 -2.8 -0.8 -2.5 -0.9 -2.4 -0.95 -2.25 -1.0 -1.95 -1.1 -1.6 -1.15 -1.3 -1.25 -1.0 -1.35 -0.7 -1.45 -0.35 -1.5 -0.2 -1.6 -0.05 -1.65 0.1 -1.65 0.2 -1.65 0.35 -1.7 0.45 -1.75 0.8 -1.85 1.15 -1.9 1.65 -2.0 2.15 -2.05 2.55 -2.15 2.95 -2.2 4.2 -2.25 5.45 -2.25 5.85 -2.2 6.3 -2.1 6.5 -2.0 6.7 -1.9 6.95 -1.65 7.2 -1.35 7.25 -1.3 7.25 -1.2 7.25 -0.85 7.25 -0.55 7.05 -0.3 6.9 -0.05 6.5 0.25 6.15 0.55 5.85 0.75 5.5 0.9 5.1 0.95 4.7 1.0 4.2 1.05 3.7 1.15 3.35 1.2 2.95 1.25 2.65 1.3 2.3 1.35 2.3 1.3 2.3 1.2 2.4 1.2 2.45 1.2 2.8 1.05 3.15 0.85 3.2 0.85 3.25 0.85 3.8 0.5 4.35 0.15 4.55 -0.1 4.75 -0.4 4.75 -0.5 4.7 -0.65 4.6 -0.9 4.45 -1.2 4.25 -1.4 4.0 -1.6 3.75 -1.7 3.55 -1.8 3.1 -1.8 2.65 -1.8 2.2 -1.65 1.8 -1.55 0.75 -1.3 -0.3 -1.0 -0.9 -0.8 -1.5 -0.6 -1.95 -0.45 -2.4 -0.25 -2.75 -0.1 -3.05 0.05 -3.8 0.4 -4.5 0.75 -4.75 0.95 -5.0 1.2 -5.0 1.35 -5.0 1.55 -4.85 1.7 -4.7 1.85 -2.75 1.85 -0.8 1.85 -0.85 1.85 -0.9 1.9 -1.5 2.0 -2.1 2.1 -2.5 2.2 -2.85 2.25 -3.2 2.3 -3.55 2.4 -4.8 2.45 -6.05 2.45 -6.3 2.25 -6.3 2.25" fill="#4f4f4f" fill-rule="evenodd" stroke="none"/>
    <path d="M-6.1 2.35 L-6.25 2.25 -6.4 2.15 -6.6 2.0 -6.6 1.6 -6.6 1.15 -6.35 0.95 -6.1 0.75 -5.75 0.5 -5.35 0.25 -4.85 0.05 -4.3 -0.2 -4.1 -0.3 -3.9 -0.4 -3.55 -0.5 -3.2 -0.6 -3.15 -0.65 -3.05 -0.7 -2.6 -0.85 -2.1 -1.0 -1.55 -1.2 -0.95 -1.35 -0.8 -1.35 -0.7 -1.35 -0.65 -1.4 -0.6 -1.5 -0.4 -1.5 -0.15 -1.55 0.25 -1.65 0.65 -1.8 1.05 -1.85 1.45 -1.95 1.8 -2.0 2.2 -2.05 2.6 -2.15 3.05 -2.2 4.3 -2.2 5.6 -2.25 5.95 -2.15 6.35 -2.1 6.6 -1.95 6.85 -1.8 7.05 -1.6 7.2 -1.35 7.2 -0.95 7.2 -0.5 7.0 -0.25 6.8 0.05 6.35 0.35 5.95 0.65 5.7 0.75 5.45 0.9 5.05 0.95 4.6 1.0 4.15 1.05 3.65 1.15 3.25 1.2 2.9 1.25 2.6 1.25 2.35 1.25 2.5 1.2 2.7 1.1 3.25 0.85 3.8 0.55 4.1 0.4 4.35 0.2 4.5 -0.05 4.6 -0.25 4.65 -0.25 4.75 -0.25 4.75 -0.5 4.75 -0.8 4.5 -1.1 4.3 -1.4 4.1 -1.55 3.95 -1.7 3.55 -1.8 3.2 -1.85 2.85 -1.8 2.55 -1.75 1.9 -1.6 1.25 -1.45 0.3 -1.2 -0.6 -0.95 -1.3 -0.7 -2.05 -0.45 -2.65 -0.15 -3.3 0.1 -3.95 0.45 -4.6 0.8 -4.8 0.95 -5.0 1.1 -5.0 1.3 -5.05 1.45 -4.95 1.65 -4.85 1.8 -4.3 1.85 -3.8 1.9 -2.3 1.85 -0.85 1.8 -0.9 1.85 -0.9 1.9 -1.6 2.0 -2.25 2.1 -2.6 2.2 -2.95 2.25 -3.3 2.3 -3.65 2.4 -4.8 2.4 -6.0 2.45 -6.1 2.35 -6.1 2.35" fill="#2f2f2f" fill-rule="evenodd" stroke="none"/>
    <path d="M-6.3 2.15 L-6.6 1.95 -6.6 1.65 -6.6 1.35 -6.5 1.2 -6.4 1.05 -6.25 0.85 -6.05 0.7 -6.0 0.7 -5.95 0.7 -5.85 0.65 -5.75 0.55 -5.6 0.45 -5.45 0.35 -5.15 0.2 -4.9 0.1 -4.55 -0.1 -4.2 -0.25 -3.65 -0.45 -3.15 -0.6 -3.1 -0.7 -3.0 -0.75 -2.85 -0.75 -2.7 -0.75 -2.65 -0.8 -2.6 -0.9 -2.45 -0.9 -2.3 -0.9 -2.25 -0.95 -2.2 -1.0 -2.05 -1.0 -1.9 -1.0 -1.35 -1.2 -0.8 -1.35 -0.55 -1.45 -0.3 -1.5 0.0 -1.6 0.3 -1.65 0.6 -1.7 0.9 -1.8 1.2 -1.85 1.5 -1.95 1.9 -2.0 2.25 -2.05 2.7 -2.1 3.1 -2.2 4.0 -2.25 4.9 -2.3 5.5 -2.2 6.1 -2.1 6.3 -2.05 6.55 -1.95 6.85 -1.7 7.15 -1.4 7.15 -0.95 7.15 -0.45 6.75 -0.05 6.35 0.35 6.05 0.55 5.75 0.75 5.45 0.85 5.2 0.9 4.8 0.95 4.4 1.0 3.7 1.1 2.95 1.2 2.7 1.25 2.4 1.25 2.6 1.2 2.75 1.1 3.15 0.9 3.6 0.7 3.8 0.6 4.0 0.45 4.15 0.35 4.25 0.25 4.3 0.25 4.35 0.25 4.6 -0.1 4.8 -0.4 4.75 -0.65 4.75 -0.85 4.55 -1.1 4.35 -1.4 4.15 -1.55 4.0 -1.7 3.6 -1.8 3.2 -1.9 2.75 -1.85 2.35 -1.75 1.9 -1.65 1.5 -1.55 1.25 -1.5 1.0 -1.45 0.4 -1.25 -0.25 -1.1 -0.7 -0.95 -1.15 -0.8 -1.6 -0.6 -2.1 -0.45 -2.25 -0.4 -2.4 -0.35 -2.65 -0.2 -2.95 -0.1 -3.65 0.25 -4.3 0.6 -4.6 0.75 -4.9 0.95 -5.05 1.2 -5.15 1.4 -5.05 1.6 -5.0 1.75 -4.8 1.85 -4.6 1.95 -3.0 1.9 -1.45 1.9 -1.45 1.95 -1.5 1.95 -1.95 2.05 -2.4 2.1 -2.7 2.15 -3.0 2.25 -3.4 2.3 -3.85 2.4 -4.95 2.4 -6.05 2.4 -6.3 2.15 -6.3 2.15 M-1.3 1.85 L-1.25 1.8 -1.15 1.85 -1.05 1.9 -1.25 1.9 -1.4 1.9 -1.3 1.85" fill="#010101" fill-rule="evenodd" stroke="none"/>
  </g>
</svg>
