<?xml version="1.0" encoding="UTF-8" standalone="no"?>
<svg xmlns:xlink="http://www.w3.org/1999/xlink" height="10.7px" width="28.55px" xmlns="http://www.w3.org/2000/svg">
  <g transform="matrix(1.0, 0.0, 0.0, 1.0, 14.3, 5.35)">
    <path d="M13.7 3.1 Q13.7 2.85 12.55 2.9 11.35 2.95 9.75 3.3 8.1 3.6 6.95 4.0 5.8 4.4 5.8 4.6 5.85 4.85 7.0 4.8 8.15 4.75 9.8 4.4 11.4 4.1 12.55 3.7 13.7 3.3 13.7 3.1 L13.7 3.1" fill="#ff00ff" fill-rule="evenodd" stroke="none"/>
    <path d="M13.7 3.1 Q13.7 2.85 12.55 2.9 11.35 2.95 9.75 3.3 8.1 3.6 6.95 4.0 5.8 4.4 5.8 4.6 5.85 4.85 7.0 4.8 8.15 4.75 9.8 4.4 11.4 4.1 12.55 3.7 13.7 3.3 13.7 3.1 L13.7 3.1 Z" fill="none" stroke="#ff0000" stroke-linecap="round" stroke-linejoin="round" stroke-width="1.1"/>
  </g>
</svg>
