<?xml version="1.0" encoding="UTF-8" standalone="no"?>
<svg xmlns:xlink="http://www.w3.org/1999/xlink" height="41.1px" width="30.35px" xmlns="http://www.w3.org/2000/svg">
  <g transform="matrix(1.0, 0.0, 0.0, 1.0, 0.0, 20.55)">
    <path d="M6.75 -9.2 Q6.7 -9.05 6.65 -8.85 6.55 -8.7 6.5 -8.5 6.45 -8.3 6.35 -8.15 6.25 -7.95 6.15 -7.75 6.05 -7.55 5.95 -7.35 5.8 -7.1 5.65 -6.9 5.5 -6.7 5.35 -6.5 5.2 -6.3 5.05 -6.1 4.85 -5.9 4.65 -5.7 4.5 -5.55 4.3 -5.4 4.2 -5.3 4.0 -5.15 3.9 -5.1 3.7 -5.0 3.5 -4.85 3.4 -4.8 3.25 -4.65 3.1 -4.55 2.95 -4.45 2.75 -4.3 2.6 -4.1 2.4 -3.9 2.15 -3.65 1.95 -3.35 1.7 -3.1 1.5 -2.8 1.35 -2.5 1.2 -2.2 1.0 -1.95 0.9 -1.6 0.75 -1.35 0.65 -1.0 0.5 -0.75 0.4 -0.4 0.3 -0.15 0.2 0.2 0.15 0.4 0.0 0.8 -0.05 1.0 -0.1 1.2 -0.15 1.35 -0.2 1.55 -0.25 1.7 -0.3 1.9 -0.35 2.05 -0.4 2.25 -0.4 2.4 -0.45 2.55 -0.5 2.7 -0.5 2.85 -0.55 2.95 -0.55 3.1 -0.6 3.2 -0.6 3.35 -0.7 3.5 -0.8 3.65 -0.95 3.8 -1.05 3.95 -1.2 4.15 -1.3 4.35 -1.45 4.55 -1.55 4.75 -1.7 5.0 -1.8 5.2 -1.95 5.5 -2.05 5.75 -2.15 6.0 -2.25 6.3 -2.35 6.6 -2.45 6.9 -2.6 7.35 -2.65 7.8 -2.75 8.25 -2.8 8.65 -2.8 9.05 -2.8 9.5 -2.85 9.85 -2.8 10.2 -2.8 10.55 -2.75 10.9 -2.7 11.2 -2.65 11.5 -2.6 11.75 -2.55 12.0 -2.5 12.2 -2.45 12.4 -2.55 12.45 -2.6 12.55 -2.7 12.65 -2.75 12.7 -2.85 12.8 -2.95 12.95 -3.05 13.05 -3.15 13.2 -3.25 13.35 -3.35 13.5 -3.45 13.65 -3.5 13.8 -3.6 14.0 -3.7 14.2 -3.75 14.4 -3.8 14.6 -3.9 14.9 -3.95 15.25 -4.0 15.55 -4.0 15.85 -4.0 16.1 -4.0 16.4 -3.95 16.65 -3.9 16.9 -3.85 17.1 -3.8 17.35 -3.75 17.5 -3.7 17.7 -3.6 17.85 -3.55 17.95 -3.5 18.05 -3.5 18.15 -0.8 19.25 4.7 21.5 7.35 16.9 12.7 7.8 12.8 7.85 12.9 7.85 13.0 7.9 13.1 7.95 13.2 8.0 13.3 8.0 13.4 8.05 13.55 8.1 13.65 8.15 13.8 8.2 13.9 8.3 14.05 8.35 14.15 8.4 14.3 8.45 14.45 8.55 14.55 8.6 14.85 8.8 15.15 8.95 15.45 9.15 15.7 9.35 15.95 9.55 16.2 9.75 16.4 9.9 16.6 10.1 16.8 10.3 16.95 10.45 17.1 10.6 17.25 10.8 17.35 10.9 17.5 11.05 17.5 11.1 17.65 11.25 19.6 13.55 25.0 18.85 25.05 18.85 25.1 18.85 25.2 18.8 25.25 18.8 25.35 18.8 25.4 18.8 25.5 18.75 25.55 18.75 25.65 18.75 25.75 18.7 25.8 18.7 25.9 18.65 26.0 18.6 26.1 18.6 26.2 18.55 26.3 18.5 26.6 18.35 26.9 18.15 27.15 17.95 27.4 17.75 27.6 17.5 27.8 17.25 28.0 17.0 28.2 16.7 28.35 16.4 28.5 16.1 28.65 15.8 28.8 15.5 28.9 15.2 29.05 14.85 29.1 14.65 29.25 14.25 29.35 14.0 29.4 13.85 29.45 13.7 29.5 13.55 29.6 13.35 29.65 13.25 29.7 13.1 29.7 12.95 29.75 12.85 29.8 12.7 29.8 12.6 29.8 12.5 29.85 12.4 29.85 12.3 29.85 12.15 29.85 12.05 29.85 11.75 29.75 11.4 29.65 11.15 29.55 10.85 29.45 10.6 29.3 10.35 29.2 10.15 29.0 9.9 28.85 9.6 28.75 9.5 28.65 9.3 28.6 9.15 28.5 8.95 28.5 8.8 28.5 8.65 28.6 8.5 28.65 8.4 28.7 8.35 28.8 8.25 28.9 8.25 28.95 8.2 29.05 8.15 29.15 8.15 29.3 8.15 29.45 8.1 29.55 8.1 29.7 8.05 29.8 8.0 29.95 7.95 30.1 7.9 30.2 7.8 30.35 7.7 30.45 7.65 30.5 7.55 30.55 7.45 30.6 7.35 30.7 7.25 30.7 7.1 30.75 6.95 30.8 6.75 30.85 6.55 30.9 6.3 30.95 6.0 30.95 5.65 31.0 5.3 31.05 4.85 31.05 4.4 31.1 3.8 31.15 3.3 31.15 2.95 31.15 2.55 31.2 2.25 31.2 1.95 31.2 1.7 31.2 1.45 31.2 1.25 31.2 1.05 31.15 0.9 31.15 0.75 31.1 0.6 31.1 0.45 31.05 0.35 31.05 0.25 31.0 0.1 30.95 -0.05 30.9 -0.2 30.85 -0.3 30.75 -0.45 30.7 -0.55 30.65 -0.7 30.55 -0.8 30.5 -0.9 30.45 -1.05 30.35 -1.15 30.3 -1.25 30.25 -1.35 30.15 -1.45 30.1 -1.55 30.05 -1.6 29.95 -1.7 29.8 -1.9 29.65 -2.1 29.55 -2.25 29.4 -2.4 29.25 -2.55 29.1 -2.7 29.0 -2.8 28.85 -2.95 28.75 -3.05 28.6 -3.2 28.25 -3.5 28.3 -3.45 28.15 -3.6 28.0 -3.7 27.8 -3.85 27.65 -4.0 27.3 -4.35 27.05 -4.65 26.8 -4.95 26.6 -5.2 26.45 -5.45 26.25 -5.7 26.15 -5.85 26.0 -6.15 25.85 -6.4 25.75 -6.55 25.65 -6.75 25.5 -6.9 25.35 -7.05 25.2 -7.25 25.0 -7.4 24.75 -7.6 24.6 -7.7 24.5 -7.75 24.35 -7.85 24.2 -7.9 24.0 -8.0 23.85 -8.1 23.65 -8.15 23.45 -8.2 23.25 -8.3 23.0 -8.35 22.8 -8.4 22.55 -8.45 22.25 -8.5 22.0 -8.5 21.7 -8.55 21.4 -8.55 21.4 -8.7 21.35 -8.85 21.35 -9.0 21.3 -9.15 21.25 -9.35 21.2 -9.55 21.15 -9.75 21.1 -9.9 21.0 -10.15 20.9 -10.3 20.8 -10.55 20.7 -10.7 20.55 -10.95 20.4 -11.1 20.25 -11.3 20.1 -11.5 19.9 -11.7 19.65 -11.85 19.4 -12.0 19.15 -12.15 18.9 -12.25 18.6 -12.35 18.35 -12.4 18.0 -12.45 17.7 -12.5 17.35 -12.55 17.05 -12.6 16.65 -12.6 16.3 -12.6 15.9 -12.65 15.6 -12.65 15.0 -12.65 14.55 -12.65 14.35 -12.65 14.0 -12.65 13.75 -12.65 13.4 -12.65 13.15 -12.6 12.85 -12.6 12.55 -12.55 12.25 -12.5 11.95 -12.45 11.65 -12.4 11.35 -12.35 11.05 -12.25 10.7 -12.15 10.4 -12.0 10.1 -11.85 9.8 -11.7 9.5 -11.55 9.2 -11.4 8.9 -11.2 8.65 -11.05 8.45 -10.85 8.2 -10.7 8.0 -10.5 7.8 -10.35 7.6 -10.15 7.45 -10.0 7.25 -9.8 7.1 -9.65 7.0 -9.5 6.85 -9.35 6.75 -9.2 L6.75 -9.2" fill="#3737b5" fill-rule="evenodd" stroke="none"/>
  </g>
</svg>
