<?xml version="1.0" encoding="UTF-8" standalone="no"?>
<svg xmlns:xlink="http://www.w3.org/1999/xlink" height="102.5px" width="57.85px" xmlns="http://www.w3.org/2000/svg">
  <g transform="matrix(1.0, 0.0, 0.0, 1.0, 28.9, 51.25)">
    <path d="M-11.45 21.95 Q-11.45 21.3 -12.55 20.85 -13.7 20.4 -15.25 20.4 -16.8 20.4 -17.9 20.85 -19.0 21.3 -19.0 21.95 -19.0 22.6 -17.9 23.05 -16.8 23.5 -15.25 23.5 -13.7 23.5 -12.55 23.05 -11.45 22.6 -11.45 21.95 L-11.45 21.95" fill="#874538" fill-rule="evenodd" stroke="none"/>
    <path d="M26.2 20.25 Q26.2 19.6 25.2 19.15 24.2 18.7 22.8 18.7 21.4 18.7 20.4 19.15 19.4 19.6 19.4 20.25 19.4 20.85 20.4 21.3 21.4 21.75 22.8 21.75 24.2 21.75 25.2 21.3 26.2 20.85 26.2 20.25 L26.2 20.25" fill="#874538" fill-rule="evenodd" stroke="none"/>
  </g>
</svg>
