<?xml version="1.0" encoding="UTF-8" standalone="no"?>
<svg xmlns:xlink="http://www.w3.org/1999/xlink" height="154.45px" width="131.6px" xmlns="http://www.w3.org/2000/svg">
  <g transform="matrix(1.0, 0.0, 0.0, 1.0, 65.8, 77.2)">
    <path d="M-40.1 -16.1 Q-38.9 -15.65 -37.65 -15.2 -36.5 -14.85 -35.3 -14.45 -34.2 -14.1 -33.05 -13.8 -32.0 -13.55 -30.95 -13.25 -29.95 -13.05 -28.95 -12.8 -28.0 -12.6 -27.05 -12.45 -26.2 -12.3 -25.35 -12.15 -24.55 -12.0 -23.75 -11.9 -21.9 -11.65 -20.9 -11.5 -19.45 -11.3 -18.35 -11.2 -17.1 -11.05 -16.1 -11.0 -15.0 -10.9 -14.05 -10.9 -13.05 -10.9 -12.2 -11.0 -11.3 -11.1 -10.45 -11.3 -9.65 -11.5 -8.85 -11.85 -8.0 -12.15 -7.25 -12.6 -6.45 -13.05 -5.7 -13.6 -5.0 -14.15 -4.4 -14.75 -3.8 -15.35 -3.25 -16.0 -2.7 -16.6 -2.25 -17.3 -1.8 -17.95 -1.35 -18.7 -1.0 -19.35 -0.6 -20.1 -0.3 -20.75 0.1 -21.55 0.3 -22.0 0.75 -22.9 1.25 -23.95 1.45 -24.5 1.85 -25.4 2.15 -26.15 2.5 -27.05 2.8 -27.85 3.1 -28.75 3.3 -29.6 3.5 -30.5 3.6 -31.35 3.7 -32.2 3.65 -33.05 3.6 -33.9 3.4 -34.7 3.2 -35.55 2.8 -36.3 2.45 -36.95 2.0 -37.45 1.6 -38.0 1.05 -38.45 0.5 -38.9 -0.1 -39.25 -0.7 -39.6 -1.35 -39.9 -2.0 -40.2 -2.75 -40.45 -3.4 -40.7 -4.2 -40.95 -4.85 -41.1 -5.7 -41.35 -6.2 -41.45 -7.25 -41.7 -8.5 -42.0 -9.75 -42.2 -10.9 -42.4 -12.05 -42.45 -13.05 -42.55 -14.25 -42.55 -15.0 -42.6 -16.45 -42.6 -18.0 -42.6 -18.85 -42.6 -20.2 -42.6 -21.45 -42.7 -22.95 -42.8 -24.45 -42.95 -26.15 -43.15 -27.95 -43.45 -28.85 -43.6 -29.6 -43.75 -30.35 -43.9 -30.95 -44.05 -31.5 -44.2 -31.95 -44.35 -32.35 -44.5 -32.7 -44.65 -33.0 -44.75 -33.2 -44.9 -33.4 -45.05 -33.55 -45.15 -33.7 -45.3 -33.75 -45.45 -33.85 -45.55 -33.9 -45.7 -34.05 -46.2 -33.85 -46.8 -33.7 -47.4 -33.2 -48.05 -32.75 -48.7 -32.05 -49.4 -31.35 -50.1 -30.45 -50.8 -29.55 -51.5 -28.5 -52.2 -27.45 -52.9 -26.3 -53.55 -25.15 -54.15 -23.95 -54.7 -22.7 -55.25 -21.55 -55.7 -21.0 -55.9 -20.45 -56.05 -19.9 -56.25 -19.3 -56.35 -18.75 -56.5 -18.1 -56.65 -17.5 -56.75 -16.8 -56.85 -16.15 -56.95 -15.35 -57.05 -14.65 -57.15 -13.75 -57.25 -12.95 -57.35 -11.95 -57.45 -11.2 -57.5 -9.9 -57.65 -7.7 -57.85 -6.55 -57.95 -4.85 -58.15 -3.6 -58.25 -2.15 -58.35 -1.0 -58.4 0.25 -58.5 1.25 -58.5 2.35 -58.5 3.25 -58.45 4.2 -58.4 5.0 -58.25 5.85 -58.15 6.6 -57.95 7.3 -57.75 8.0 -57.45 9.05 -57.0 10.05 -56.35 10.95 -55.8 11.8 -55.1 12.6 -54.5 13.3 -53.75 14.0 -53.05 14.6 -52.3 15.15 -51.65 15.7 -50.95 16.1 -50.3 16.55 -49.65 16.85 -49.1 17.2 -48.5 17.4 -48.2 17.7 -47.65 18.0 -47.1 18.2 -46.65 18.45 -46.15 18.65 -45.6 18.85 -45.05 19.05 -44.35 19.25 -43.7 19.55 -42.7 19.8 -41.95 20.2 -40.5 21.05 -37.4 21.0 -37.6 21.55 -35.65 22.1 -33.8 22.8 -31.45 23.5 -28.95 23.8 -27.9 24.35 -26.2 24.65 -26.25 24.95 -26.35 25.25 -26.4 25.55 -26.45 25.95 -26.55 26.3 -26.6 26.7 -26.65 27.05 -26.7 27.5 -26.75 27.9 -26.8 28.35 -26.8 28.8 -26.85 29.3 -26.85 29.75 -26.85 30.25 -26.85 30.75 -26.8 31.35 -26.75 31.65 -26.75 32.2 -26.7 32.6 -26.65 33.15 -26.6 33.6 -26.55 34.1 -26.45 34.55 -26.35 35.05 -26.2 35.55 -26.05 36.0 -25.9 36.45 -25.7 36.9 -25.45 37.35 -25.2 37.75 -24.9 38.1 -24.55 38.5 -24.2 38.8 -23.75 39.1 -23.3 39.35 -22.85 39.55 -22.4 39.75 -21.85 39.9 -21.4 40.0 -20.9 40.1 -20.4 40.15 -19.9 40.2 -19.45 40.2 -18.9 40.25 -18.5 40.25 -17.95 40.25 -17.75 40.25 -17.1 40.35 -7.45 41.9 11.3 42.0 12.3 42.0 12.4 42.05 13.1 42.05 13.65 42.1 14.35 42.1 14.95 42.15 15.7 42.1 16.4 42.05 17.15 42.0 17.9 41.9 18.7 41.75 19.5 41.6 20.35 41.4 21.2 41.2 22.05 40.85 22.95 40.7 23.35 40.55 23.7 40.45 24.1 40.25 24.45 40.15 24.8 39.95 25.1 39.8 25.45 39.65 25.75 39.5 26.05 39.35 26.35 39.2 26.6 39.05 26.85 38.95 27.1 38.8 27.3 38.65 27.55 38.5 27.75 38.65 27.85 38.8 27.9 39.0 28.0 39.2 28.05 39.4 28.15 39.6 28.2 39.8 28.3 40.0 28.35 40.25 28.4 40.45 28.45 40.7 28.5 40.95 28.5 41.2 28.55 41.45 28.55 41.75 28.55 42.0 28.55 42.5 28.5 42.95 28.4 43.4 28.3 43.8 28.1 44.2 27.9 44.6 27.65 44.9 27.45 45.3 27.1 45.6 26.85 46.05 26.5 48.3 24.5 46.85 25.8 47.3 25.4 47.7 25.1 48.15 24.7 48.65 24.35 49.4 23.8 50.3 23.35 51.1 22.9 52.0 22.5 52.8 22.15 53.65 21.85 54.45 21.6 55.25 21.45 56.0 21.3 56.65 21.2 57.35 21.15 57.85 21.2 58.4 21.2 58.75 21.35 59.1 21.5 59.25 21.7 59.3 21.8 59.35 21.9 59.35 22.0 59.35 22.1 59.3 22.25 59.25 22.4 59.2 22.55 59.1 22.8 59.0 23.0 58.85 23.25 58.7 23.5 58.45 23.8 58.3 24.1 58.0 24.5 57.75 24.85 57.4 25.4 55.3 28.45 52.85 31.95 51.6 33.7 50.6 35.1 50.0 35.9 49.55 36.55 49.15 37.15 48.8 37.65 48.55 38.1 48.3 38.5 48.15 38.75 47.9 39.15 47.65 39.55 47.6 39.7 47.4 40.0 47.25 40.25 47.0 40.6 46.75 40.95 46.45 41.35 46.1 41.85 45.4 42.75 45.1 43.1 44.5 43.85 44.0 44.4 43.4 45.05 42.9 45.65 42.25 46.3 41.65 46.85 41.0 47.45 40.35 48.0 39.65 48.55 38.95 49.0 38.2 49.5 37.45 49.9 36.6 50.3 35.75 50.6 34.95 50.9 34.25 51.0 33.65 51.15 33.0 51.2 32.5 51.2 31.9 51.15 31.5 51.1 30.8 51.0 30.0 50.9 29.65 50.85 28.9 50.75 28.25 50.75 27.4 50.7 26.55 50.75 25.55 50.85 24.45 51.0 23.6 51.15 22.9 51.3 22.25 51.5 21.6 51.7 21.1 51.9 20.5 52.15 20.05 52.3 19.35 52.65 18.35 53.1 18.05 53.25 17.25 53.6 16.5 53.95 15.55 54.35 14.5 54.7 13.25 55.15 11.85 55.6 11.05 55.85 10.25 56.1 9.45 56.35 8.7 56.55 7.95 56.75 7.25 56.95 6.55 57.15 5.85 57.3 5.2 57.45 4.55 57.6 3.95 57.75 3.35 57.85 2.8 58.0 2.25 58.1 1.75 58.2 1.25 58.25 0.0 58.5 -0.65 58.6 -1.6 58.75 -2.35 58.85 -3.15 59.0 -3.85 59.1 -4.6 59.2 -5.25 59.25 -5.95 59.3 -6.6 59.35 -7.3 59.35 -7.9 59.35 -8.6 59.35 -9.25 59.25 -9.9 59.2 -10.6 59.1 -11.4 58.95 -11.8 58.9 -12.55 58.75 -13.15 58.65 -13.85 58.45 -14.5 58.3 -15.25 58.1 -15.9 57.85 -16.6 57.6 -17.25 57.25 -17.9 56.9 -18.5 56.5 -19.15 56.1 -19.7 55.55 -20.25 55.0 -20.7 54.4 -20.95 54.05 -21.2 53.65 -21.4 53.25 -21.6 52.85 -21.8 52.45 -21.95 51.95 -22.15 51.5 -22.3 50.95 -22.45 50.45 -22.6 49.8 -22.75 49.25 -22.9 48.5 -23.05 47.9 -23.2 47.05 -23.35 46.55 -23.55 45.4 -23.65 44.85 -23.8 44.25 -23.85 43.8 -23.95 43.3 -24.1 42.45 -24.1 42.5 -24.15 42.1 -24.25 41.8 -24.3 41.5 -24.35 41.25 -24.45 41.0 -24.55 40.75 -24.65 40.5 -24.8 40.25 -24.9 40.05 -25.1 39.8 -25.4 39.4 -25.75 39.05 -26.05 38.75 -26.45 38.5 -26.8 38.3 -27.2 38.1 -27.55 37.95 -28.0 37.8 -28.3 37.7 -28.9 37.55 -29.5 37.35 -29.85 37.25 -30.4 37.05 -30.9 36.85 -31.5 36.6 -32.05 36.3 -33.1 35.75 -34.0 35.05 -34.9 34.45 -35.7 33.65 -36.4 32.95 -37.05 32.15 -37.65 31.4 -38.15 30.6 -38.6 29.9 -39.05 29.15 -39.35 28.55 -39.65 27.9 -39.9 27.4 -40.1 26.9 -40.2 26.65 -40.3 26.3 -40.6 25.55 -40.8 24.75 -40.95 24.05 -41.1 23.3 -41.2 22.6 -41.25 21.9 -41.35 21.25 -41.35 20.6 -41.35 20.0 -41.3 19.4 -41.3 18.9 -41.25 18.35 -41.2 17.9 -41.15 17.45 -41.1 17.25 -41.05 16.7 -40.85 15.45 -40.7 14.05 -40.55 12.65 -40.45 11.1 -40.3 9.45 -40.2 7.7 -40.1 5.9 -40.05 3.9 -39.95 1.9 -39.9 -0.3 -39.9 -2.6 -39.9 -5.05 -39.9 -7.6 -39.95 -10.3 -40.0 -13.1 -40.1 -16.1 L-40.1 -16.1" fill="#8e0c0c" fill-rule="evenodd" stroke="none"/>
  </g>
</svg>
