<?xml version="1.0" encoding="UTF-8" standalone="no"?>
<svg xmlns:xlink="http://www.w3.org/1999/xlink" height="99.2px" width="56.0px" xmlns="http://www.w3.org/2000/svg">
  <g transform="matrix(1.0, 0.0, 0.0, 1.0, 28.0, 49.6)">
    <path d="M-3.55 -34.25 Q-3.7 -32.9 -3.8 -31.6 -3.95 -30.35 -4.05 -29.05 -4.15 -27.9 -4.2 -26.7 -4.3 -25.55 -4.4 -24.45 -4.45 -23.4 -4.5 -22.4 -4.55 -21.4 -4.6 -20.45 -4.65 -19.55 -4.65 -18.7 -4.7 -17.85 -4.7 -17.05 -4.75 -16.1 -4.75 -15.2 -4.75 -14.25 -4.8 -13.3 -4.8 -12.3 -4.8 -11.3 -4.8 -10.3 -4.8 -9.25 -4.75 -8.2 -4.75 -7.15 -4.7 -6.1 -4.65 -5.0 -4.65 -3.9 -4.6 -2.8 -4.5 -1.65 -4.45 -0.5 -4.45 -0.2 -4.4 0.05 -4.4 0.35 -4.4 0.6 -4.35 0.85 -4.35 1.1 -4.35 1.35 -4.3 1.6 -4.3 1.8 -4.3 2.05 -4.25 2.25 -4.25 2.45 -4.25 2.65 -4.2 2.8 -4.2 3.0 -4.2 3.15 -4.3 3.4 -4.4 3.65 -4.5 3.95 -4.6 4.25 -4.7 4.6 -4.8 4.9 -4.95 5.25 -5.05 5.6 -5.2 6.0 -5.3 6.35 -5.4 6.75 -5.55 7.15 -5.65 7.6 -5.8 8.05 -5.9 8.5 -6.05 8.95 -6.45 10.55 -7.2 14.45 -7.4 15.55 -8.65 21.8 -8.6 21.9 -8.6 22.05 -8.55 22.15 -8.5 22.3 -8.5 22.4 -8.45 22.55 -8.4 22.65 -8.35 22.8 -8.3 22.95 -8.25 23.05 -8.2 23.2 -8.15 23.35 -8.05 23.5 -8.0 23.65 -7.95 23.8 -7.85 23.9 -7.8 24.05 -7.75 24.15 -7.65 24.3 -7.6 24.4 -7.55 24.5 -7.45 24.65 -7.4 24.75 -7.35 24.85 -7.3 24.95 -7.2 25.05 -7.15 25.15 -7.1 25.25 -7.0 25.35 -6.95 25.45 -6.9 25.55 -6.8 25.65 -6.75 25.8 -6.7 25.95 -6.6 26.15 -6.55 26.3 -6.5 26.4 -6.45 26.55 -6.4 26.7 -6.35 26.85 -6.25 26.95 -6.2 27.1 -6.15 27.2 -6.1 27.3 -6.05 27.45 -6.0 27.55 -5.95 27.65 -5.9 27.75 -5.35 28.8 -4.1 30.6 -4.0 30.7 -3.95 30.8 -3.85 30.95 -3.8 31.05 -3.7 31.15 -3.65 31.25 -3.6 31.35 -3.5 31.4 -3.45 31.5 -3.4 31.6 -3.35 31.65 -3.3 31.75 -3.2 31.8 -3.15 31.9 -3.1 31.95 -3.1 32.0 -3.25 32.4 -3.4 32.85 -3.55 33.25 -3.6 33.65 -3.7 34.0 -3.75 34.4 -3.8 34.7 -3.8 35.05 -3.85 35.35 -3.85 35.65 -3.85 35.9 -3.8 36.15 -3.8 36.4 -3.8 36.6 -3.75 36.75 -3.75 36.95 -3.65 37.5 -2.75 39.85 -2.6 40.25 -2.5 40.55 -2.35 40.85 -2.25 41.05 -2.15 41.3 -2.05 41.5 -1.95 41.7 -1.85 41.8 -1.8 41.95 -1.7 42.05 -1.65 42.15 -1.55 42.2 -1.5 42.25 -1.45 42.25 -1.35 42.3 -1.3 42.3 -1.25 42.3 -1.2 42.3 -1.15 42.25 -1.05 42.25 -1.05 42.2 -0.95 42.15 -0.95 42.1 -0.85 42.05 -0.75 41.9 -0.7 41.9 -0.6 41.8 -0.5 41.7 -0.4 41.6 -0.25 41.5 -0.1 41.35 0.05 41.25 0.15 41.2 0.25 41.1 0.3 41.05 0.4 41.0 0.45 41.0 0.55 40.95 0.6 40.9 0.65 40.85 0.8 40.8 0.8 40.8 0.9 40.75 0.95 40.7 1.05 40.65 1.15 40.6 1.25 40.55 1.4 40.45 1.65 40.3 1.75 40.25 1.9 40.15 2.0 40.05 2.15 39.95 2.25 39.85 2.4 39.8 2.45 39.7 2.55 39.65 2.65 39.55 2.75 39.5 2.8 39.4 2.85 39.35 2.9 39.25 2.95 39.15 3.0 39.1 3.05 38.95 3.1 38.8 3.1 38.65 3.1 38.5 3.1 38.35 3.05 38.2 3.05 38.15 3.0 37.95 2.95 37.75 2.95 37.7 2.9 37.55 2.9 37.4 2.9 37.25 2.95 37.1 2.95 36.95 3.05 36.8 3.1 36.65 3.15 36.55 3.25 36.45 3.3 36.4 3.35 36.3 3.45 36.25 3.5 36.2 3.6 36.1 3.7 36.05 3.75 36.0 3.8 35.95 3.85 35.9 3.9 35.8 3.95 35.75 4.0 35.65 4.0 35.55 4.05 35.4 4.0 35.25 4.0 35.05 3.95 34.9 3.9 34.75 3.85 34.6 3.75 34.45 3.65 34.3 3.55 34.2 3.45 34.05 3.4 33.95 3.3 33.85 3.2 33.75 3.1 33.65 3.05 33.6 2.95 33.55 2.9 33.5 2.8 33.4 2.75 33.35 2.7 33.3 2.6 33.25 2.55 33.2 2.5 33.15 2.45 33.1 2.35 33.05 2.3 33.0 2.25 33.0 2.2 32.95 2.15 32.9 2.1 32.9 2.05 32.85 2.0 32.85 2.05 32.65 2.25 32.25 2.5 31.7 2.55 31.55 3.55 29.25 3.8 28.3 3.85 28.05 3.9 27.75 3.95 27.5 4.0 27.25 4.0 27.05 4.05 26.8 4.1 26.5 4.1 26.4 4.15 26.2 4.15 26.05 4.2 25.9 4.25 25.8 4.25 25.7 4.3 25.65 4.35 25.6 4.45 25.6 4.45 25.6 4.45 25.6 4.5 25.6 4.5 25.6 4.5 25.6 4.55 25.6 4.55 25.6 4.6 25.6 4.6 25.6 4.65 25.65 4.65 25.65 4.7 25.7 4.7 25.7 4.75 25.75 4.8 25.75 4.85 25.8 4.95 25.9 5.05 26.05 5.15 26.2 5.2 26.35 5.25 26.5 5.3 26.65 5.35 26.8 5.4 26.95 5.4 27.1 5.45 27.25 5.45 27.4 5.45 27.55 5.45 27.65 5.45 27.9 5.5 28.1 5.5 28.2 5.5 28.35 5.55 28.55 5.55 28.7 5.55 28.85 5.6 29.0 5.65 29.15 5.65 29.3 5.7 29.45 5.75 29.65 5.8 29.8 5.85 29.95 5.9 30.15 5.95 30.35 6.0 30.6 6.05 30.7 6.15 31.05 6.25 31.4 6.3 31.6 6.4 31.85 6.45 32.05 6.55 32.3 6.65 32.5 6.7 32.7 6.8 32.85 6.9 33.05 6.95 33.2 7.05 33.35 7.15 33.45 7.3 33.6 7.4 33.7 7.55 33.85 7.7 33.9 7.7 33.9 7.8 33.95 7.85 34.0 7.95 34.05 8.05 34.1 8.15 34.15 8.3 34.2 8.4 34.25 8.6 34.3 8.75 34.3 8.9 34.35 9.05 34.35 9.25 34.35 9.4 34.3 9.55 34.25 9.75 34.2 9.85 34.15 10.0 34.05 10.1 33.95 10.15 33.8 10.25 33.7 10.3 33.6 10.35 33.5 10.4 33.35 10.45 33.25 10.5 33.1 10.55 33.0 10.55 32.9 10.6 32.8 10.6 32.7 10.6 32.65 10.6 32.6 10.65 32.35 10.65 32.15 10.65 31.95 10.6 31.75 10.55 31.6 10.5 31.4 10.45 31.25 10.35 31.05 10.2 30.55 10.2 30.65 10.15 30.4 10.05 30.2 10.0 29.95 9.95 29.7 9.85 29.4 9.85 29.1 9.8 28.9 9.8 28.7 9.8 28.55 9.8 28.4 9.8 28.3 9.8 28.2 9.8 28.1 9.85 28.0 9.85 27.9 9.85 27.8 9.9 27.7 9.9 27.6 9.9 27.45 9.85 27.35 9.85 27.15 9.85 26.95 9.8 26.75 9.75 26.55 9.7 26.35 9.65 26.15 9.6 26.0 9.55 25.8 9.25 25.0 9.4 25.45 9.35 25.25 9.3 25.1 9.25 24.9 9.2 24.7 9.15 24.45 9.1 24.25 9.05 24.0 9.0 23.7 9.0 23.45 8.95 22.65 8.95 22.4 8.9 22.15 8.9 21.9 8.85 21.65 8.85 21.4 8.8 21.1 8.75 20.85 8.7 20.6 8.65 20.35 8.6 20.1 8.55 19.8 8.5 19.5 8.45 19.25 8.35 18.95 8.3 18.65 8.2 18.3 8.15 18.15 6.4 10.7 6.35 10.45 6.3 10.3 6.25 10.05 6.2 9.9 6.15 9.7 6.15 9.55 6.1 9.35 6.1 9.2 6.05 9.0 6.05 8.85 6.05 8.65 6.1 8.5 6.1 8.35 6.15 8.15 6.15 8.0 6.2 7.8 6.25 7.6 6.35 7.45 6.4 7.3 6.5 7.15 6.55 7.05 6.65 6.9 6.8 6.65 6.8 6.65 6.9 6.5 6.95 6.35 7.0 6.25 7.05 6.1 7.1 5.95 7.15 5.8 7.15 5.65 7.15 5.45 7.15 5.3 7.15 5.2 7.15 5.1 7.1 5.0 7.1 4.95 7.05 4.85 7.0 4.8 6.95 4.65 6.9 4.5 6.9 4.5 6.85 4.35 6.8 4.25 6.75 4.15 6.7 4.0 6.65 3.8 6.6 3.6 6.55 3.4 6.55 3.25 6.5 3.05 6.5 2.9 6.5 2.7 6.5 2.55 6.5 2.4 6.5 2.2 6.5 2.05 6.5 1.9 6.55 1.75 6.55 1.55 6.55 1.4 6.6 1.25 6.6 1.15 6.65 0.95 6.7 0.75 6.7 0.5 6.75 0.3 6.8 0.1 6.85 -0.1 6.9 -0.25 6.95 -0.45 7.0 -0.6 7.0 -0.75 7.05 -0.9 7.1 -1.0 7.15 -1.15 7.15 -1.25 7.2 -1.35 7.2 -1.3 7.25 -1.5 7.6 -2.4 8.6 -8.55 8.95 -10.7 9.15 -12.05 9.25 -12.7 9.3 -13.1 9.45 -13.9 9.6 -14.65 9.75 -15.3 9.9 -15.95 10.05 -16.55 10.2 -17.15 10.35 -17.65 10.5 -18.25 10.6 -18.65 10.85 -19.35 11.05 -20.1 11.15 -20.5 11.35 -21.2 11.5 -21.75 11.7 -22.5 11.9 -23.2 12.0 -23.6 12.1 -23.95 12.2 -24.35 12.25 -24.8 12.35 -25.25 12.45 -25.7 12.55 -26.2 12.65 -26.65 12.8 -27.2 12.85 -27.75 12.95 -28.3 13.05 -28.85 13.15 -29.45 13.25 -30.05 13.35 -30.7 13.45 -31.3 7.75 -32.3 -3.55 -34.25 L-3.55 -34.25" fill="#edabab" fill-rule="evenodd" stroke="none"/>
  </g>
</svg>
