<?xml version="1.0" encoding="UTF-8" standalone="no"?>
<svg xmlns:xlink="http://www.w3.org/1999/xlink" height="63.5px" width="91.45px" xmlns="http://www.w3.org/2000/svg">
  <g transform="matrix(1.0, 0.0, 0.0, 1.0, 45.7, 31.75)">
    <path d="M24.25 -31.3 Q24.15 -31.4 24.0 -31.5 23.9 -31.55 23.75 -31.6 23.6 -31.65 23.45 -31.7 23.25 -31.7 23.1 -31.7 22.95 -31.7 22.8 -31.65 22.65 -31.6 22.5 -31.55 22.35 -31.5 22.25 -31.4 22.1 -31.3 22.05 -31.15 21.95 -31.05 21.9 -30.95 21.85 -30.85 21.8 -30.75 21.8 -30.65 21.75 -30.55 21.75 -30.4 21.75 -30.3 21.75 -30.2 21.75 -30.1 21.75 -29.95 21.8 -29.85 21.8 -29.75 21.85 -29.65 21.9 -29.55 21.95 -29.45 22.05 -29.3 22.15 -29.2 22.25 -29.1 22.35 -29.0 22.45 -28.9 22.6 -28.85 22.75 -28.8 22.9 -28.75 23.0 -28.7 23.15 -28.65 23.3 -28.65 23.45 -28.65 23.6 -28.65 23.75 -28.7 23.85 -28.75 24.0 -28.8 24.15 -28.9 24.25 -29.0 24.4 -29.15 24.5 -29.3 24.55 -29.45 24.65 -29.6 24.7 -29.8 24.7 -29.95 24.7 -30.15 24.7 -30.35 24.7 -30.5 24.65 -30.7 24.6 -30.85 24.5 -31.0 24.4 -31.15 24.25 -31.3 L24.25 -31.3" fill="#ffd8ff" fill-rule="evenodd" stroke="none"/>
  </g>
</svg>
