<?xml version="1.0" encoding="UTF-8" standalone="no"?>
<svg xmlns:xlink="http://www.w3.org/1999/xlink" height="73.55px" width="94.45px" xmlns="http://www.w3.org/2000/svg">
  <g transform="matrix(1.0, 0.0, 0.0, 1.0, 47.2, 36.8)">
    <path d="M-1.65 -24.2 Q-1.6 -24.15 -1.55 -24.1 -1.55 -24.1 -1.45 -24.05 -1.4 -23.95 -1.35 -23.95 -1.3 -23.9 -1.25 -23.9 -1.2 -23.85 -1.2 -23.8 -1.15 -23.7 -1.15 -23.65 -1.15 -23.6 -1.2 -23.5 -1.25 -23.4 -1.3 -23.3 -1.45 -23.6 -1.75 -24.15 -1.7 -24.2 -1.65 -24.2 L-1.65 -24.2" fill="#fefefe" fill-rule="evenodd" stroke="none"/>
    <path d="M-8.3 -10.9 Q-8.1 -10.6 -7.85 -10.25 -7.7 -10.1 -7.5 -9.75 -7.3 -9.5 -7.2 -9.35 -7.1 -9.2 -7.0 -9.05 -6.9 -8.9 -6.8 -8.75 -6.7 -8.6 -6.65 -8.5 -6.6 -8.35 -6.5 -8.2 -6.45 -8.05 -6.4 -7.9 -6.3 -7.55 -6.2 -7.25 -6.1 -6.9 -6.0 -6.6 -5.95 -6.3 -5.9 -6.0 -5.9 -5.7 -5.85 -5.45 -5.85 -5.2 -5.85 -4.9 -5.85 -4.7 -5.85 -4.45 -5.85 -4.3 -5.85 -4.05 -5.85 -4.05 -5.85 -3.75 -5.9 -3.05 -5.9 -2.45 -5.9 -1.9 -5.85 -1.45 -5.8 -1.05 -5.75 -0.55 -5.75 -0.35 -5.6 0.3 -5.5 0.9 -5.45 1.35 -5.35 2.05 -5.3 2.75 -5.25 3.6 -5.15 4.55 -5.1 5.7 -5.1 7.05 -5.1 7.4 -5.1 7.75 -5.05 8.15 -5.05 8.6 -5.05 9.1 -5.05 9.6 -5.05 10.15 -5.05 10.75 -5.05 11.4 -5.05 12.0 -5.1 12.7 -5.1 13.4 -5.15 14.15 -5.15 14.85 -5.2 15.65 -5.25 16.4 -5.35 17.8 -5.35 20.0 -5.35 22.9 -5.35 23.55 -5.35 23.55 -5.35 23.65 -5.35 23.7 -5.35 23.8 -5.35 23.85 -5.35 23.95 -5.35 24.05 -5.35 24.15 -5.35 24.3 -5.3 24.4 -5.3 24.55 -5.3 24.7 -5.3 24.85 -5.25 25.0 -5.25 25.15 -5.2 25.3 -5.15 25.5 -5.15 25.65 -5.1 25.85 -5.1 26.0 -5.05 26.2 -5.0 26.35 -5.0 26.5 -4.95 26.65 -4.9 26.85 -4.85 27.0 -4.75 27.15 -4.7 27.3 -4.6 27.45 -4.55 27.6 -4.45 27.7 -4.35 27.85 -4.25 28.0 -4.15 28.1 -4.05 28.2 -3.95 28.3 -3.8 28.4 -3.7 28.5 -3.6 28.55 -3.45 28.65 -3.3 28.75 -3.15 28.8 -3.0 28.9 -2.8 29.0 -2.65 29.05 -2.45 29.15 -2.3 29.2 -2.0 29.35 -1.7 29.5 -1.5 29.55 -1.35 29.65 -1.1 29.7 -0.7 29.8 -0.55 29.85 -0.1 30.0 0.4 30.2 0.7 30.3 1.1 30.45 1.25 30.5 1.65 30.65 1.95 30.8 2.1 30.85 2.35 30.9 2.55 30.95 2.75 31.05 2.9 31.05 3.05 31.1 3.25 31.15 3.4 31.15 3.6 31.15 3.75 31.15 3.95 31.1 4.05 31.1 4.15 31.05 4.25 31.05 4.3 31.0 4.4 31.0 4.45 30.95 4.55 30.95 4.6 30.9 4.7 30.9 4.75 30.85 4.8 30.8 4.85 30.8 4.9 30.75 4.95 30.75 5.0 30.75 5.05 30.7 5.3 30.55 5.5 30.4 5.7 30.25 5.9 30.05 6.05 29.85 6.2 29.65 6.35 29.45 6.5 29.2 6.65 29.0 6.75 28.75 6.85 28.55 7.0 28.3 7.05 28.1 7.2 27.8 7.5 27.05 7.4 27.3 7.5 27.05 7.6 26.85 7.7 26.6 7.8 26.35 7.9 26.1 8.05 25.8 8.2 25.5 8.3 25.25 8.45 24.95 8.6 24.65 8.8 24.3 8.95 24.0 9.15 23.65 9.3 23.3 9.5 22.95 9.7 22.6 7.9 14.65 7.4 12.5 6.5 8.55 6.05 6.45 5.85 5.5 5.75 5.05 2.1 -8.3 0.8 -11.8 0.75 -11.85 0.75 -11.95 0.7 -12.05 0.65 -12.15 0.6 -12.3 0.55 -12.45 0.55 -12.6 0.5 -12.75 0.45 -12.95 0.4 -13.15 0.4 -13.35 0.35 -13.55 0.35 -13.8 0.35 -14.0 0.35 -14.25 0.35 -14.5 0.35 -14.6 0.35 -14.75 0.4 -14.85 0.4 -14.95 0.4 -15.05 0.4 -15.15 0.45 -15.2 0.45 -15.3 0.45 -15.4 0.5 -15.45 0.5 -15.5 0.5 -15.55 0.55 -15.6 0.55 -15.65 0.55 -15.7 0.55 -15.75 0.6 -15.95 0.7 -16.1 0.75 -16.25 0.85 -16.4 0.9 -16.55 1.0 -16.7 1.05 -16.85 1.15 -16.95 1.2 -17.1 1.3 -17.2 1.35 -17.3 1.5 -17.45 1.6 -17.6 1.65 -17.7 1.75 -17.8 1.85 -17.9 1.95 -18.1 2.1 -18.3 2.2 -18.5 2.25 -18.65 2.35 -18.85 2.45 -19.05 2.5 -19.25 2.55 -19.45 2.6 -19.6 2.65 -19.85 2.7 -20.0 2.75 -20.2 2.8 -20.4 2.85 -20.6 2.85 -20.75 2.95 -21.05 3.05 -21.45 3.05 -21.8 3.1 -22.1 3.1 -22.4 3.1 -22.65 3.1 -22.9 3.05 -23.0 3.05 -23.3 3.0 -23.55 3.0 -23.7 3.0 -23.85 3.0 -24.05 3.05 -24.2 3.1 -24.4 3.15 -24.6 3.3 -24.85 3.35 -25.0 3.45 -25.15 3.5 -25.25 3.6 -25.4 3.65 -25.45 3.8 -25.65 3.9 -25.8 3.95 -25.9 4.05 -26.05 4.15 -26.2 4.2 -26.35 4.3 -26.5 4.4 -26.7 4.45 -26.9 4.55 -27.1 4.6 -27.35 4.65 -27.5 4.65 -27.65 4.7 -27.75 4.7 -27.85 4.7 -27.95 4.7 -28.05 4.7 -28.15 4.7 -28.2 4.7 -28.25 4.7 -28.3 4.7 -28.35 4.65 -28.4 4.65 -28.45 4.65 -28.45 4.6 -28.5 4.6 -28.5 4.55 -28.6 4.4 -28.65 4.3 -28.65 4.2 -28.7 4.05 -28.7 3.9 -28.7 3.75 -28.7 3.6 -28.65 3.45 -28.6 3.3 -28.55 3.15 -28.55 3.05 -28.45 2.9 -28.4 2.75 -28.35 2.65 -28.3 2.55 -28.25 2.35 -28.15 2.15 -28.0 2.0 -27.9 1.8 -27.75 1.65 -27.6 1.55 -27.45 1.4 -27.35 1.25 -27.15 1.15 -27.05 1.05 -26.9 0.95 -26.75 0.9 -26.6 0.8 -26.45 0.75 -26.3 0.7 -26.2 0.65 -26.05 0.65 -26.4 0.6 -26.75 0.6 -27.1 0.55 -27.45 0.55 -27.75 0.5 -28.05 0.45 -28.35 0.4 -28.65 0.35 -28.9 0.3 -29.15 0.2 -29.4 0.15 -29.65 0.1 -29.85 0.05 -30.05 -0.05 -30.25 -0.1 -30.45 -0.2 -30.8 -0.35 -31.1 -0.45 -31.35 -0.6 -31.6 -0.7 -31.8 -0.8 -32.0 -0.95 -32.15 -1.05 -32.3 -1.15 -32.45 -1.25 -32.55 -1.35 -32.6 -1.45 -32.7 -1.5 -32.75 -1.6 -32.8 -1.7 -32.8 -1.75 -32.85 -1.85 -32.9 -1.85 -32.9 -1.9 -32.9 -1.95 -32.9 -2.05 -32.95 -2.1 -32.95 -2.2 -32.95 -2.3 -33.0 -2.4 -33.0 -2.5 -33.0 -2.6 -33.0 -2.7 -33.0 -2.8 -32.95 -2.9 -32.95 -3.0 -32.9 -3.1 -32.85 -3.25 -32.75 -3.35 -32.6 -3.45 -32.5 -3.55 -32.35 -3.6 -32.2 -3.65 -32.0 -3.7 -31.9 -3.75 -31.6 -3.85 -31.35 -3.9 -31.25 -3.95 -31.0 -4.05 -30.85 -4.15 -30.65 -4.25 -30.45 -4.4 -30.3 -4.6 -30.15 -4.65 -30.1 -5.4 -29.75 -6.0 -29.45 -6.55 -29.2 -4.75 -30.0 -7.15 -28.95 -7.4 -28.85 -7.6 -28.75 -7.75 -28.65 -7.85 -28.55 -8.0 -28.45 -8.1 -28.3 -8.2 -28.2 -8.3 -28.05 -8.4 -27.95 -8.45 -27.8 -8.55 -27.65 -8.6 -27.45 -8.7 -27.3 -8.75 -27.1 -8.8 -27.05 -8.95 -26.75 -9.05 -26.5 -9.1 -26.3 -9.4 -25.65 -9.7 -25.05 -9.95 -24.55 -10.25 -24.1 -10.5 -23.7 -10.75 -23.3 -10.8 -23.25 -11.2 -22.7 -11.45 -22.35 -11.6 -22.15 -11.75 -21.85 -11.9 -21.6 -12.0 -21.3 -12.1 -21.0 -12.2 -20.65 -12.2 -20.25 -12.2 -20.05 -12.25 -19.85 -12.25 -19.65 -12.25 -19.45 -12.2 -19.3 -12.2 -19.1 -12.2 -18.9 -12.15 -18.7 -12.1 -18.55 -12.05 -18.35 -12.05 -18.2 -11.95 -17.95 -11.95 -17.8 -11.85 -17.55 -11.8 -17.45 -11.75 -17.15 -11.65 -16.8 -11.5 -16.45 -11.4 -16.1 -11.25 -15.75 -11.1 -15.45 -10.9 -15.1 -10.75 -14.75 -10.5 -14.4 -10.3 -14.05 -10.05 -13.65 -9.85 -13.25 -9.55 -12.85 -9.3 -12.45 -8.95 -11.95 -8.7 -11.55 -8.3 -10.9 L-8.3 -10.9" fill="#b5b5b5" fill-rule="evenodd" stroke="none"/>
  </g>
</svg>
