<?xml version="1.0" encoding="UTF-8" standalone="no"?>
<svg xmlns:xlink="http://www.w3.org/1999/xlink" height="200.0px" width="100.0px" xmlns="http://www.w3.org/2000/svg">
  <g transform="matrix(1.0, 0.0, 0.0, 1.0, 50.0, 100.0)">
    <path d="M-8.8 -39.3 Q-8.4 -38.9 -8.35 -38.85 -7.4 -38.0 -7.2 -37.85 -7.15 -37.8 -7.1 -37.75 -7.05 -37.7 -7.05 -37.6 -7.0 -37.55 -7.0 -37.45 -6.95 -37.4 -6.95 -37.3 -6.95 -37.2 -6.95 -37.15 -6.95 -37.05 -6.95 -36.95 -6.95 -36.9 -6.95 -36.85 -6.95 -36.75 -7.0 -36.7 -7.0 -36.7 -7.0 -36.65 -7.05 -36.65 -7.1 -36.6 -7.1 -36.6 -7.15 -36.6 -7.25 -36.55 -7.7 -36.5 -7.65 -36.5 -7.6 -36.45 -7.55 -36.4 -7.5 -36.4 -7.45 -36.4 -7.45 -36.35 -7.4 -36.35 -7.4 -36.3 -7.35 -36.3 -7.3 -36.3 -7.3 -36.25 -7.25 -36.25 -7.25 -36.25 -7.2 -36.2 -7.15 -36.2 -7.15 -36.2 -7.1 -36.15 -7.05 -36.15 -7.05 -36.15 -7.0 -36.15 -6.8 -36.1 -6.65 -36.0 -6.45 -35.9 -6.3 -35.8 -6.1 -35.7 -5.95 -35.55 -5.8 -35.45 -5.65 -35.3 -5.5 -35.2 -5.35 -35.05 -5.2 -34.9 -5.05 -34.75 -4.95 -34.65 -4.8 -34.5 -4.45 -34.1 -4.5 -34.2 -4.5 -34.2 -4.45 -34.15 -4.45 -34.15 -4.4 -34.1 -4.4 -34.1 -4.4 -34.05 -4.35 -34.05 -4.35 -34.0 -4.3 -34.0 -4.3 -33.95 -4.3 -33.95 -4.25 -33.9 -4.25 -33.9 -4.2 -33.85 -4.2 -33.85 -4.15 -33.8 -4.15 -34.05 -4.1 -34.45 -4.1 -34.5 -4.1 -34.55 -4.05 -34.55 -4.05 -34.6 -4.0 -34.6 -3.95 -34.6 -3.55 -34.7 -3.45 -34.65 -2.25 -34.5 -1.35 -34.35 -1.25 -34.35 -1.15 -34.3 -1.05 -34.3 -1.0 -34.25 -0.9 -34.2 -0.8 -34.2 -0.7 -34.15 -0.6 -34.1 -0.5 -34.1 -0.4 -34.05 -0.35 -34.0 -0.25 -33.95 -0.15 -33.9 -0.05 -33.85 0.05 -33.85 0.1 -33.8 0.15 -33.8 0.15 -33.75 0.2 -33.75 0.2 -33.7 0.25 -33.7 0.25 -33.7 0.25 -33.65 0.3 -33.65 0.3 -33.6 0.3 -33.6 0.35 -33.55 0.35 -33.55 0.35 -33.5 0.35 -33.5 0.35 -33.45 0.4 -33.4 0.4 -33.3 0.4 -33.25 0.4 -33.2 0.4 -33.15 0.4 -33.05 0.4 -33.0 0.4 -32.95 0.4 -32.85 0.35 -32.8 0.35 -32.75 0.3 -32.7 0.25 -32.65 0.2 -32.6 0.15 -32.55 0.1 -32.5 0.05 -32.45 -0.15 -32.35 -0.5 -32.05 -0.85 -31.8 -1.0 -31.7 -1.1 -31.65 -1.2 -31.6 -1.3 -31.55 -1.35 -31.5 -1.45 -31.45 -1.55 -31.4 -1.65 -31.35 -1.75 -31.35 -1.85 -31.3 -1.95 -31.3 -2.05 -31.25 -2.15 -31.25 -2.25 -31.25 -2.4 -31.3 -2.5 -31.3 -2.6 -31.3 -2.5 -31.2 -2.45 -31.15 -2.35 -31.05 -2.3 -30.95 -2.25 -30.85 -2.2 -30.75 -2.15 -30.65 -2.1 -30.55 -2.1 -30.45 -2.05 -30.3 -2.05 -30.2 -2.0 -30.1 -2.0 -30.0 -2.0 -29.9 -2.0 -29.8 -1.95 -29.65 -1.95 -29.6 -1.95 -29.5 -1.95 -29.45 -1.95 -29.35 -1.95 -29.3 -1.95 -29.2 -2.0 -29.15 -2.0 -29.05 -2.0 -29.0 -2.0 -28.9 -2.05 -28.85 -2.05 -28.75 -2.05 -28.7 -2.1 -28.6 -2.1 -28.55 -2.15 -28.45 -2.2 -28.2 -2.3 -28.0 -2.4 -27.75 -2.5 -27.5 -2.6 -27.3 -2.75 -27.05 -2.85 -26.85 -2.95 -26.65 -3.1 -26.45 -3.2 -26.2 -3.35 -26.0 -3.5 -25.8 -3.65 -25.6 -3.8 -25.4 -3.9 -25.2 -4.1 -25.0 -4.3 -24.7 -4.6 -24.3 -5.05 -23.65 -5.1 -23.6 -5.15 -23.5 -5.25 -23.4 -5.35 -23.3 -5.4 -23.25 -5.5 -23.15 -5.6 -23.05 -5.7 -23.0 -5.8 -22.95 -5.9 -22.85 -6.0 -22.8 -6.1 -22.75 -6.2 -22.7 -6.3 -22.6 -6.45 -22.6 -6.55 -22.55 -6.65 -22.5 -6.75 -22.45 -6.85 -22.45 -6.9 -22.4 -7.0 -22.4 -7.1 -22.35 -7.2 -22.35 -7.25 -22.3 -7.35 -22.3 -7.45 -22.25 -7.55 -22.25 -7.65 -22.25 -7.7 -22.2 -7.8 -22.2 -7.9 -22.15 -8.0 -22.15 -8.1 -22.15 -8.25 -22.1 -8.4 -22.1 -8.55 -22.05 -8.75 -22.0 -8.9 -22.0 -9.05 -21.95 -9.2 -21.9 -9.35 -21.9 -9.55 -21.85 -9.7 -21.85 -9.85 -21.8 -10.0 -21.75 -10.2 -21.75 -10.35 -21.7 -10.5 -21.7 -10.65 -21.65 -10.8 -21.65 -10.9 -21.65 -11.0 -21.65 -11.05 -21.65 -11.15 -21.65 -11.2 -21.7 -11.25 -21.7 -11.3 -21.75 -11.35 -21.8 -11.35 -21.85 -11.4 -21.9 -11.4 -22.0 -11.4 -22.1 -11.4 -22.2 -11.4 -22.3 -11.35 -22.4 -11.35 -22.45 -11.35 -22.55 -11.4 -22.55 -12.1 -22.25 -12.55 -22.05 -12.85 -21.95 -14.6 -21.4 -17.75 -20.4 -19.45 -19.95 -19.7 -19.9 -19.75 -19.85 -19.85 -19.8 -20.0 -19.75 -20.05 -19.75 -20.05 -19.7 -20.0 -19.7 -19.75 -19.75 -19.3 -19.85 -18.25 -20.15 -17.6 -20.3 -17.55 -20.3 -17.5 -20.3 -17.45 -20.3 -17.4 -20.3 -17.4 -20.3 -17.35 -20.3 -17.3 -20.3 -17.25 -20.3 -17.1 -20.3 -17.05 -20.25 -16.95 -20.25 -16.95 -20.15 -16.9 -20.1 -16.9 -19.95 -16.9 -19.9 -16.9 -19.85 -16.9 -19.8 -16.9 -19.75 -16.9 -19.7 -16.9 -19.65 -16.9 -19.6 -16.9 -19.55 -16.9 -19.5 -16.95 -19.45 -16.95 -19.4 -16.95 -19.35 -16.95 -19.3 -17.0 -19.3 -17.0 -19.25 -17.05 -19.2 -17.1 -19.1 -17.15 -19.0 -17.2 -18.9 -17.25 -18.85 -17.25 -18.75 -17.3 -18.65 -17.35 -18.55 -17.4 -18.45 -17.45 -18.35 -17.5 -18.3 -17.55 -18.2 -17.6 -18.1 -17.65 -18.0 -17.7 -17.9 -17.75 -17.8 -17.8 -17.75 -17.95 -17.45 -18.1 -17.15 -18.2 -16.9 -18.3 -16.6 -18.45 -16.3 -18.55 -16.0 -18.65 -15.7 -18.75 -15.4 -18.85 -15.1 -18.9 -14.75 -19.0 -14.45 -19.05 -14.15 -19.15 -13.85 -19.2 -13.55 -19.25 -13.2 -19.3 -12.9 -19.4 -12.4 -19.55 -11.2 -19.7 -10.15 -19.8 -9.55 -19.95 -8.75 -20.4 -6.6 -20.75 -4.75 -20.95 -3.65 -21.2 -2.25 -21.65 0.8 -21.7 1.1 -21.75 2.3 -21.75 2.35 -21.75 3.05 -21.75 3.5 -21.8 3.8 -21.85 5.1 -21.7 9.45 -21.65 10.6 -21.3 12.7 -21.25 13.0 -21.2 13.3 -21.15 13.6 -21.1 13.9 -21.05 14.2 -21.0 14.5 -20.95 14.85 -20.9 15.15 -20.9 15.45 -20.85 15.75 -20.8 16.05 -20.8 16.35 -20.8 16.65 -20.8 16.95 -20.75 17.3 -20.75 17.6 -20.75 17.7 -20.65 20.6 -20.65 20.75 -20.7 21.0 -20.7 21.25 -20.7 21.4 -20.7 21.55 -20.75 22.85 -20.75 22.9 -20.8 23.6 -20.8 24.05 -20.8 24.35 -21.0 26.45 -21.0 26.55 -21.05 27.1 -21.2 28.0 -21.25 28.2 -21.3 28.35 -21.3 28.55 -21.35 28.75 -21.4 28.9 -21.5 29.1 -21.55 29.25 -21.6 29.45 -21.65 29.6 -21.75 29.75 -21.8 29.95 -21.85 30.1 -21.95 30.25 -22.0 30.45 -22.05 30.55 -22.15 30.8 -22.3 31.15 -22.45 31.5 -22.65 31.85 -22.8 32.2 -23.0 32.5 -23.15 32.85 -23.35 33.2 -23.55 33.5 -23.75 33.85 -23.95 34.15 -24.2 34.45 -24.4 34.75 -24.65 35.1 -24.85 35.4 -25.1 35.7 -25.35 35.95 -25.55 36.2 -25.75 36.4 -26.0 36.65 -26.2 36.85 -26.4 37.1 -26.65 37.3 -26.85 37.5 -27.1 37.7 -27.3 37.9 -27.55 38.1 -27.8 38.3 -28.05 38.45 -28.3 38.65 -28.55 38.8 -28.8 39.0 -29.05 39.15 -29.25 39.25 -29.45 39.35 -29.65 39.5 -29.85 39.6 -30.1 39.65 -30.3 39.75 -30.5 39.85 -30.75 39.9 -30.95 39.95 -31.15 40.0 -31.4 40.05 -31.6 40.1 -31.85 40.15 -32.05 40.15 -32.3 40.2 -32.55 40.2 -32.75 40.2 -32.95 40.2 -33.2 40.15 -33.4 40.15 -33.6 40.1 -33.8 40.05 -34.0 40.0 -34.2 39.9 -34.35 39.85 -34.55 39.75 -34.75 39.65 -34.9 39.5 -35.05 39.4 -35.2 39.25 -35.4 39.05 -35.5 38.9 -35.65 38.7 -35.8 38.5 -35.95 38.25 -36.15 38.05 -36.3 37.85 -36.45 37.6 -36.6 37.4 -36.7 37.2 -36.85 37.0 -37.0 36.75 -37.15 36.55 -37.3 36.3 -37.45 36.1 -37.55 35.9 -37.7 35.65 -37.85 35.45 -38.05 35.1 -38.25 34.8 -38.45 34.45 -38.6 34.1 -38.8 33.75 -39.0 33.45 -39.15 33.1 -39.35 32.75 -39.5 32.4 -39.7 32.05 -39.85 31.7 -40.0 31.35 -40.2 31.0 -40.35 30.65 -40.5 30.3 -40.65 29.95 -40.75 29.7 -40.85 29.4 -40.95 29.15 -41.05 28.85 -41.15 28.6 -41.2 28.3 -41.3 28.0 -41.35 27.75 -41.45 27.45 -41.5 27.15 -41.55 26.9 -41.6 26.6 -41.6 26.3 -41.65 26.0 -41.7 25.75 -41.7 25.45 -41.85 23.15 -41.9 22.1 -41.9 21.8 -41.8 20.15 -41.75 19.75 -41.75 19.35 -41.7 18.95 -41.65 18.5 -41.55 18.1 -41.5 17.7 -41.45 17.3 -41.35 16.9 -41.25 16.5 -41.15 16.1 -41.1 15.75 -41.0 15.3 -40.9 14.95 -40.8 14.5 -40.7 14.15 -40.55 13.75 -38.9 7.5 -38.5 5.9 -37.0 0.1 -35.55 -4.15 -35.35 -4.75 -35.15 -5.3 -34.95 -5.9 -34.75 -6.5 -34.5 -7.05 -34.3 -7.65 -34.1 -8.2 -33.85 -8.8 -33.65 -9.35 -33.4 -9.95 -33.15 -10.5 -32.9 -11.1 -32.7 -11.65 -32.45 -12.2 -32.2 -12.8 -31.95 -13.35 -30.75 -16.1 -29.25 -20.15 -29.15 -20.4 -28.6 -22.05 -28.55 -22.15 -28.55 -22.25 -28.5 -22.3 -28.45 -22.4 -28.45 -22.5 -28.4 -22.6 -28.4 -22.7 -28.35 -22.8 -28.35 -22.9 -28.3 -22.95 -28.3 -23.05 -28.25 -23.15 -28.25 -23.25 -28.25 -23.35 -28.2 -23.45 -28.2 -23.55 -28.1 -24.1 -27.75 -25.6 -26.55 -30.0 -26.35 -30.95 -26.3 -31.25 -26.2 -31.5 -26.15 -31.75 -26.05 -32.05 -25.95 -32.3 -25.9 -32.55 -25.8 -32.85 -25.7 -33.1 -25.6 -33.35 -25.45 -33.6 -25.35 -33.85 -25.2 -34.1 -25.1 -34.35 -24.95 -34.6 -24.8 -34.85 -24.65 -35.05 -23.9 -36.15 -22.85 -37.55 -22.65 -37.8 -22.5 -38.05 -22.3 -38.35 -22.1 -38.6 -21.9 -38.85 -21.7 -39.1 -21.55 -39.35 -21.35 -39.6 -21.15 -39.85 -20.95 -40.15 -20.75 -40.4 -20.55 -40.65 -20.35 -40.9 -20.2 -41.15 -20.0 -41.4 -19.8 -41.65 -19.6 -41.9 -18.35 -43.3 -18.3 -43.35 -18.25 -43.35 -18.2 -43.4 -18.2 -43.45 -18.15 -43.45 -18.1 -43.5 -18.05 -43.5 -18.0 -43.55 -17.95 -43.55 -17.9 -43.6 -17.85 -43.6 -17.8 -43.6 -17.75 -43.65 -17.7 -43.65 -17.65 -43.65 -17.55 -43.7 -17.35 -43.75 -17.15 -43.8 -16.95 -43.85 -16.75 -43.9 -16.55 -43.9 -16.3 -43.95 -16.1 -43.95 -15.9 -44.0 -15.7 -44.0 -15.5 -44.0 -15.3 -44.05 -15.05 -44.05 -14.85 -44.05 -14.65 -44.05 -14.45 -44.05 -14.2 -44.05 -12.95 -44.1 -9.85 -44.15 -7.1 -44.2 -5.5 -44.2 -5.2 -44.2 -4.9 -44.2 -4.65 -44.25 -4.35 -44.25 -4.05 -44.25 -3.75 -44.3 -3.5 -44.3 -3.2 -44.35 -2.9 -44.35 -2.6 -44.4 -2.3 -44.45 -2.05 -44.5 -1.75 -44.5 -1.45 -44.55 -1.15 -44.6 -0.9 -44.65 -0.7 -44.7 -0.45 -44.7 -0.25 -44.75 0.0 -44.8 0.2 -44.85 0.4 -44.85 0.65 -44.9 0.85 -44.95 1.05 -45.0 1.3 -45.0 1.5 -45.05 1.7 -45.1 1.95 -45.15 2.15 -45.2 2.35 -45.25 2.6 -45.3 4.25 -45.6 4.5 -45.6 4.55 -45.6 4.65 -45.6 4.7 -45.6 4.75 -45.6 4.8 -45.6 4.9 -45.6 4.95 -45.6 5.0 -45.6 5.05 -45.6 5.15 -45.6 5.2 -45.6 5.25 -45.55 5.3 -45.55 5.4 -45.55 5.4 -45.55 5.5 -45.55 5.55 -45.55 5.55 -45.5 5.6 -45.5 5.65 -45.5 5.65 -45.45 5.7 -45.4 5.7 -45.4 5.7 -45.35 5.7 -45.3 5.7 -45.3 5.75 -45.25 5.75 -45.2 5.75 -45.15 5.75 -45.15 5.75 -45.1 5.75 -45.05 5.8 -45.0 5.8 -44.95 5.8 -44.95 5.8 -44.9 5.8 -44.85 5.8 -44.8 5.8 -44.8 5.8 -44.75 5.8 -44.6 5.8 -44.45 5.75 -44.35 5.75 -44.2 5.7 -44.05 5.7 -43.95 5.65 -43.8 5.6 -43.65 5.55 -43.55 5.5 -43.4 5.5 -43.3 5.45 -43.15 5.4 -43.0 5.3 -42.9 5.25 -42.75 5.2 -42.65 5.1 -42.45 5.0 -42.2 4.85 -42.0 4.75 -41.85 4.6 -41.65 4.45 -41.45 4.3 -41.3 4.15 -41.15 4.0 -40.95 3.8 -40.85 3.65 -40.7 3.45 -40.55 3.25 -40.45 3.05 -40.35 2.85 -40.25 2.6 -40.15 1.75 -39.8 1.7 -39.8 1.65 -39.8 1.6 -39.75 1.55 -39.75 1.5 -39.75 1.45 -39.7 1.4 -39.7 1.35 -39.7 1.3 -39.7 1.25 -39.65 1.2 -39.65 1.15 -39.65 1.1 -39.65 1.05 -39.65 1.0 -39.65 0.95 -39.6 0.85 -39.6 -1.8 -39.45 -2.2 -39.4 -2.6 -39.4 -3.95 -39.3 -5.0 -39.25 -5.65 -39.25 -6.05 -39.25 -8.65 -39.3 -8.7 -39.3 -8.8 -39.3 L-8.8 -39.3 M-7.8 -33.3 Q-7.7 -33.3 -7.55 -33.2 -7.55 -33.25 -7.55 -33.3 -7.65 -33.3 -7.8 -33.3 -7.8 -33.35 -7.85 -33.4 -7.85 -33.4 -7.9 -33.45 -7.9 -33.45 -7.95 -33.45 -8.0 -33.5 -8.05 -33.5 -8.4 -33.6 -9.9 -34.15 -9.9 -34.15 -10.1 -34.2 -10.1 -34.15 -10.1 -34.1 -9.5 -33.9 -7.8 -33.3 L-7.8 -33.3 M-3.5 -32.8 Q-3.5 -32.75 -3.5 -32.7 -3.5 -32.65 -3.5 -32.6 -3.5 -32.6 -3.5 -32.55 -3.5 -32.5 -3.5 -32.45 -3.5 -32.4 -3.5 -32.35 -3.5 -32.3 -3.5 -32.25 -3.5 -32.2 -3.5 -32.15 -3.5 -32.15 -3.5 -32.1 -3.5 -32.05 -3.5 -32.0 -3.5 -31.95 -3.55 -31.9 -3.55 -31.9 -3.6 -31.85 -3.6 -31.85 -3.65 -31.8 -3.7 -31.8 -3.75 -31.8 -3.95 -31.8 -4.35 -31.85 -4.35 -31.85 -4.4 -31.85 -4.45 -31.85 -4.45 -31.85 -4.5 -31.85 -4.55 -31.85 -4.55 -31.85 -4.6 -31.85 -4.5 -31.8 -4.4 -31.75 -4.35 -31.7 -4.25 -31.65 -4.15 -31.6 -4.05 -31.6 -3.95 -31.6 -3.85 -31.55 -3.8 -31.55 -3.65 -31.55 -3.6 -31.55 -3.5 -31.55 -3.35 -31.55 -3.3 -31.55 -3.15 -31.55 -3.1 -31.55 -3.1 -31.6 -3.15 -31.7 -3.15 -31.75 -3.15 -31.9 -3.15 -32.0 -3.2 -32.05 -3.2 -32.15 -3.2 -32.2 -3.25 -32.3 -3.25 -32.35 -3.25 -32.45 -3.3 -32.55 -3.35 -32.6 -3.4 -32.65 -3.45 -32.75 -3.5 -32.8 L-3.5 -32.8 M-7.2 -33.15 Q-7.25 -33.1 -7.25 -33.1 -7.2 -33.05 -7.05 -33.05 -7.05 -33.05 -7.05 -33.05 -7.1 -33.1 -7.2 -33.15 L-7.2 -33.15" fill="#000000" fill-rule="evenodd" stroke="none"/>
    <path d="M29.9 -28.85 Q29.9 -28.95 29.85 -29.05 29.85 -29.2 29.85 -29.3 29.85 -29.4 29.85 -29.5 29.85 -29.6 29.9 -29.7 29.9 -29.8 29.95 -29.9 29.95 -30.0 30.0 -30.1 30.05 -30.2 30.05 -30.3 30.1 -30.4 30.15 -30.5 30.4 -31.0 32.1 -34.35 32.15 -34.45 32.2 -34.55 32.25 -34.6 32.3 -34.7 32.35 -34.8 32.45 -34.85 32.5 -34.95 32.55 -35.0 32.65 -35.1 32.7 -35.2 32.75 -35.25 32.85 -35.3 32.9 -35.4 33.0 -35.45 33.05 -35.55 33.15 -35.6 33.25 -35.7 33.35 -35.75 33.45 -35.85 33.6 -35.9 33.7 -35.95 33.8 -36.0 33.95 -36.05 34.05 -36.1 34.15 -36.1 34.3 -36.15 34.4 -36.15 34.55 -36.15 34.7 -36.2 34.8 -36.2 34.95 -36.2 35.05 -36.2 35.1 -36.2 35.15 -36.2 35.2 -36.2 35.25 -36.2 35.25 -36.2 35.3 -36.2 35.35 -36.2 35.4 -36.2 35.45 -36.15 35.5 -36.15 35.5 -36.15 35.55 -36.15 35.6 -36.15 35.65 -36.15 35.7 -36.1 35.75 -36.1 35.85 -36.1 35.9 -36.05 35.95 -36.05 36.05 -36.0 36.1 -36.0 36.2 -35.95 36.25 -35.9 36.3 -35.85 36.4 -35.85 36.45 -35.8 36.5 -35.75 36.55 -35.7 36.6 -35.6 36.65 -35.55 36.7 -35.5 36.75 -35.45 36.8 -35.35 36.85 -35.3 36.9 -35.2 37.0 -35.15 37.05 -35.05 37.1 -35.0 37.15 -34.9 37.2 -34.85 37.25 -34.75 37.3 -34.65 37.35 -34.6 37.4 -34.5 37.45 -34.45 37.5 -34.35 37.55 -34.3 37.6 -34.2 37.6 -34.2 37.7 -34.0 37.8 -33.9 37.85 -33.8 37.9 -33.7 37.95 -33.65 38.05 -33.55 38.1 -33.45 38.15 -33.35 38.25 -33.25 38.3 -33.2 38.35 -33.1 38.45 -33.0 38.55 -32.95 38.6 -32.85 38.7 -32.8 38.85 -32.7 38.85 -32.65 38.95 -32.6 39.05 -32.55 39.15 -32.5 39.2 -32.45 39.3 -32.4 39.4 -32.3 39.45 -32.25 39.55 -32.15 39.6 -32.1 39.7 -32.0 39.75 -31.95 39.8 -31.85 39.9 -31.75 39.95 -31.7 40.0 -31.6 40.1 -31.5 40.3 -31.25 40.45 -31.0 40.6 -30.75 40.75 -30.5 40.9 -30.25 41.05 -30.0 41.15 -29.75 41.3 -29.5 41.4 -29.2 41.5 -28.95 41.6 -28.65 41.7 -28.4 41.8 -28.1 41.9 -27.85 41.95 -27.55 42.0 -27.25 42.15 -26.6 42.25 -24.3 42.25 -23.6 42.3 -23.2 42.3 -23.2 42.4 -22.9 42.55 -22.45 42.55 -22.4 42.6 -21.75 42.7 -20.45 42.85 -16.95 42.9 -16.0 42.95 -15.1 43.2 -12.3 43.25 -11.75 43.35 -10.9 43.5 -9.6 43.5 -9.5 43.55 -9.15 43.55 -8.85 43.6 -8.5 43.65 -8.15 43.7 -7.85 43.75 -7.5 43.8 -7.15 43.85 -6.85 43.95 -6.5 44.0 -6.2 44.05 -5.85 44.15 -5.55 44.2 -5.2 44.3 -4.9 44.35 -4.55 44.45 -4.25 44.55 -3.95 44.65 -3.6 44.7 -3.3 44.8 -2.95 44.9 -2.65 44.95 -2.3 45.05 -2.0 45.1 -1.65 45.15 -1.3 45.25 -1.0 45.3 -0.65 45.35 -0.35 45.4 0.0 45.45 0.35 45.5 0.65 45.55 1.0 45.75 2.35 46.65 8.75 47.05 11.8 47.35 13.65 47.4 13.95 47.4 14.2 47.45 14.5 47.5 14.75 47.5 15.05 47.55 15.35 47.55 15.6 47.6 15.9 47.6 16.15 47.6 16.45 47.65 16.75 47.65 17.0 47.65 17.3 47.7 17.55 47.7 17.85 47.7 18.15 47.7 18.35 47.75 19.35 47.75 20.05 47.75 20.55 47.75 20.6 47.75 21.5 47.75 21.8 47.75 22.4 47.75 23.0 47.75 23.3 47.75 23.45 47.75 23.7 47.7 24.05 47.7 24.15 47.7 24.3 47.7 24.45 47.7 24.65 47.65 24.8 47.65 24.95 47.65 25.1 47.65 25.25 47.6 25.4 47.6 25.6 47.55 25.75 47.55 25.9 47.5 26.05 47.5 26.2 47.45 26.35 47.45 26.5 47.4 26.7 47.35 27.0 47.25 27.25 47.2 27.5 47.1 27.8 47.0 28.05 46.9 28.3 46.8 28.6 46.65 28.85 46.55 29.1 46.4 29.35 46.25 29.6 46.15 29.85 46.0 30.05 45.8 30.3 45.65 30.55 45.5 30.8 45.3 31.1 45.1 31.35 44.85 31.65 44.65 31.9 44.4 32.15 44.2 32.45 43.95 32.7 43.75 32.95 43.5 33.2 43.25 33.45 43.0 33.7 42.75 33.95 42.5 34.2 42.25 34.45 42.0 34.7 41.75 34.9 41.55 35.1 41.35 35.25 41.15 35.45 40.95 35.6 40.75 35.8 40.55 35.95 40.35 36.15 40.15 36.3 39.95 36.5 39.75 36.65 39.55 36.85 39.35 37.0 39.1 37.15 38.9 37.35 38.7 37.5 38.5 37.65 38.35 37.75 38.25 37.85 38.1 37.95 37.95 38.05 37.85 38.15 37.7 38.2 37.55 38.3 37.4 38.35 37.25 38.4 37.1 38.45 36.95 38.55 36.8 38.55 36.65 38.6 36.5 38.65 36.3 38.7 36.15 38.7 35.85 38.75 35.6 38.8 35.3 38.8 35.05 38.8 34.75 38.8 34.5 38.8 34.2 38.8 33.95 38.75 33.65 38.7 33.4 38.65 33.15 38.6 32.85 38.5 32.6 38.45 32.35 38.35 32.05 38.2 31.8 38.1 31.45 37.95 31.1 37.7 30.75 37.5 30.45 37.3 30.2 37.05 29.9 36.8 29.65 36.5 29.45 36.25 29.2 35.95 29.0 35.6 28.8 35.3 28.65 34.95 28.45 34.65 28.35 34.25 28.2 33.9 28.1 33.5 27.95 33.05 27.8 31.25 27.7 30.35 27.7 29.2 27.7 29.05 27.75 28.1 27.95 24.5 28.05 22.95 28.05 22.8 28.2 21.0 28.3 19.8 28.35 19.05 28.4 18.55 28.45 17.35 28.5 16.25 28.5 15.65 28.5 15.3 28.55 14.95 28.6 14.6 28.6 14.2 28.65 13.85 28.7 13.5 28.7 13.15 28.75 12.8 28.8 12.45 28.85 12.1 28.9 11.75 28.95 11.4 29.0 11.05 29.05 10.7 29.1 10.35 29.15 10.0 29.65 7.05 31.2 0.5 31.5 -0.8 32.2 -3.75 32.8 -6.55 33.15 -8.05 33.25 -8.4 33.3 -8.75 33.4 -9.1 33.45 -9.45 33.5 -9.8 33.6 -10.15 33.65 -10.5 33.7 -10.85 33.75 -11.2 33.8 -11.55 33.85 -11.9 33.9 -12.3 33.95 -12.65 34.0 -13.0 34.05 -13.35 34.1 -13.7 34.3 -15.65 34.3 -16.35 34.3 -16.5 34.3 -16.65 34.3 -16.8 34.25 -16.95 34.25 -17.1 34.25 -17.25 34.2 -17.4 34.2 -17.55 34.15 -17.7 34.15 -17.85 34.1 -18.0 34.1 -18.15 34.05 -18.3 34.0 -18.45 33.95 -18.6 33.95 -18.75 33.85 -19.05 33.55 -20.2 33.55 -20.2 33.55 -20.3 33.55 -20.4 33.55 -20.45 33.55 -20.55 33.55 -20.6 33.55 -20.65 33.6 -20.7 33.65 -20.75 33.65 -20.8 33.7 -20.85 33.75 -20.85 33.8 -20.9 33.9 -20.9 33.95 -20.9 34.05 -20.9 34.1 -20.9 34.2 -20.9 34.3 -20.9 34.5 -20.85 34.7 -20.8 34.75 -20.8 34.75 -20.8 34.85 -20.8 34.9 -20.8 34.95 -20.8 34.95 -20.85 34.95 -20.9 34.9 -20.9 34.75 -20.95 34.65 -21.0 34.6 -21.0 34.4 -21.05 34.05 -21.15 33.65 -21.2 33.45 -21.25 33.25 -21.3 33.05 -21.4 32.85 -21.45 32.65 -21.55 32.45 -21.6 32.25 -21.7 32.1 -21.8 31.9 -21.9 31.7 -22.0 31.55 -22.15 31.35 -22.25 31.2 -22.4 31.0 -22.5 30.85 -22.65 30.7 -22.8 30.55 -22.95 30.5 -23.0 30.45 -23.05 30.4 -23.05 30.35 -23.1 30.3 -23.15 30.25 -23.15 30.15 -23.2 30.1 -23.25 30.05 -23.25 30.0 -23.3 29.95 -23.3 29.9 -23.3 29.8 -23.35 29.75 -23.35 29.7 -23.4 29.65 -23.4 29.55 -23.4 29.45 -23.45 29.35 -23.45 29.25 -23.5 29.15 -23.5 29.1 -23.55 29.0 -23.55 28.9 -23.6 28.8 -23.6 28.7 -23.65 28.6 -23.65 28.55 -23.7 28.45 -23.75 28.35 -23.75 28.25 -23.8 28.15 -23.85 27.85 -23.95 27.55 -24.1 27.25 -24.2 26.95 -24.35 26.65 -24.45 26.35 -24.6 26.05 -24.75 25.75 -24.85 25.5 -25.0 25.2 -25.15 24.9 -25.3 24.6 -25.45 24.3 -25.6 24.05 -25.75 23.75 -25.9 23.45 -26.1 22.95 -26.4 22.0 -26.9 21.0 -27.5 20.55 -27.75 20.3 -27.9 20.1 -28.05 19.85 -28.2 19.65 -28.35 19.45 -28.55 19.25 -28.75 19.1 -28.95 18.95 -29.15 18.8 -29.35 18.65 -29.55 18.5 -29.8 18.4 -30.0 18.25 -30.25 18.2 -30.5 18.1 -30.75 18.0 -31.05 17.95 -31.2 17.9 -31.3 17.85 -31.45 17.8 -31.55 17.75 -31.7 17.7 -31.8 17.6 -31.95 17.55 -32.05 17.45 -32.15 17.4 -32.25 17.3 -32.4 17.2 -32.5 17.1 -32.6 17.0 -32.7 16.9 -32.8 16.8 -32.85 16.65 -33.0 16.5 -33.15 16.4 -33.25 16.3 -33.4 16.2 -33.55 16.1 -33.7 16.05 -33.9 16.0 -34.05 15.95 -34.2 15.9 -34.4 15.9 -34.55 15.9 -34.75 15.85 -34.9 15.9 -35.1 15.9 -35.3 15.95 -35.45 15.95 -35.5 15.95 -35.5 15.95 -35.55 15.95 -35.6 16.0 -35.6 16.0 -35.65 16.0 -35.65 16.05 -35.7 16.05 -35.7 16.05 -35.7 16.1 -35.75 16.1 -35.75 16.15 -35.75 16.15 -35.8 16.2 -35.8 16.2 -35.8 16.3 -35.8 16.4 -35.85 16.5 -35.85 16.6 -35.85 16.7 -35.85 16.8 -35.85 16.9 -35.9 17.0 -35.85 17.1 -35.85 17.2 -35.85 17.3 -35.85 17.4 -35.8 17.5 -35.8 17.6 -35.75 17.7 -35.7 17.8 -35.65 17.85 -35.65 17.9 -35.6 17.95 -35.6 18.0 -35.55 18.0 -35.55 18.05 -35.5 18.1 -35.5 18.15 -35.45 18.2 -35.4 18.25 -35.4 18.3 -35.35 18.35 -35.35 18.4 -35.3 18.45 -35.3 18.45 -35.25 18.5 -35.2 18.7 -35.1 18.85 -34.95 19.05 -34.85 19.2 -34.7 19.4 -34.6 19.6 -34.5 19.8 -34.4 19.95 -34.25 20.15 -34.15 20.35 -34.05 20.55 -33.95 20.7 -33.85 20.9 -33.75 21.1 -33.65 21.3 -33.55 21.5 -33.45 21.55 -33.45 21.6 -33.4 21.65 -33.4 21.7 -33.35 21.75 -33.35 21.8 -33.3 21.85 -33.3 21.9 -33.3 21.95 -33.25 22.0 -33.25 22.05 -33.25 22.1 -33.25 22.15 -33.2 22.2 -33.2 22.25 -33.2 22.3 -33.2 22.35 -33.2 22.4 -33.2 22.4 -33.2 22.45 -33.2 22.5 -33.2 22.55 -33.2 22.6 -33.2 22.65 -33.2 22.7 -33.25 22.7 -33.25 22.75 -33.25 22.85 -33.25 22.9 -33.3 22.95 -33.3 23.0 -33.3 23.1 -33.35 23.2 -33.35 23.2 -33.35 23.3 -33.35 23.35 -33.4 23.4 -33.4 23.5 -33.4 23.55 -33.4 23.6 -33.4 23.65 -33.45 23.75 -33.45 23.8 -33.45 23.85 -33.45 23.95 -33.45 24.0 -33.45 24.05 -33.45 24.1 -33.4 24.2 -33.4 24.25 -33.4 24.3 -33.4 24.35 -33.4 24.45 -33.35 24.5 -33.35 24.55 -33.35 24.6 -33.35 24.7 -33.3 24.75 -33.3 24.8 -33.3 24.85 -33.3 24.9 -33.25 24.95 -33.25 25.0 -33.25 25.05 -33.25 25.1 -33.25 25.15 -33.25 25.2 -33.25 25.25 -33.25 25.3 -33.25 25.35 -33.25 25.4 -33.25 25.45 -33.3 25.45 -33.3 25.5 -33.3 25.55 -33.3 25.6 -33.3 25.65 -33.35 25.7 -33.35 25.75 -33.35 25.8 -33.35 25.85 -33.35 25.9 -33.4 25.9 -33.4 25.95 -33.4 26.0 -33.4 26.05 -33.4 26.1 -33.4 26.15 -33.4 26.2 -33.4 26.25 -33.4 26.3 -33.4 26.35 -33.4 26.4 -33.4 26.45 -33.4 26.5 -33.35 26.5 -33.35 26.55 -33.35 26.55 -33.3 26.55 -33.3 26.6 -33.25 26.6 -33.25 26.6 -33.2 26.6 -33.15 26.65 -33.1 26.65 -33.05 26.65 -33.0 26.75 -32.4 26.8 -32.2 26.85 -32.05 26.85 -31.95 26.9 -31.8 26.95 -31.65 27.0 -31.55 27.05 -31.4 27.1 -31.3 27.15 -31.2 27.2 -31.05 27.3 -30.95 27.35 -30.8 27.45 -30.7 27.5 -30.6 27.6 -30.5 27.7 -30.4 27.8 -30.25 27.85 -30.2 27.9 -30.1 28.0 -30.05 28.05 -30.0 28.1 -29.95 28.2 -29.9 28.25 -29.85 28.35 -29.8 28.4 -29.75 28.5 -29.7 28.6 -29.65 28.65 -29.65 28.75 -29.6 28.85 -29.6 28.95 -29.55 29.05 -29.55 29.1 -29.55 29.2 -29.55 29.25 -29.55 29.3 -29.5 29.35 -29.5 29.4 -29.5 29.45 -29.45 29.5 -29.4 29.55 -29.4 29.6 -29.35 29.65 -29.3 29.65 -29.25 29.7 -29.2 29.7 -29.15 29.75 -29.1 29.75 -29.05 29.75 -29.0 29.8 -28.95 29.8 -28.95 29.8 -28.9 29.8 -28.9 29.85 -28.9 29.85 -28.85 29.9 -28.85 L29.9 -28.85 M35.95 -30.7 Q35.7 -30.5 35.15 -30.0 35.4 -30.0 35.95 -30.0 35.95 -30.25 35.95 -30.7 L35.95 -30.7 M35.95 -25.65 Q35.45 -25.65 34.4 -25.7 34.5 -25.65 34.6 -25.55 34.7 -25.5 34.8 -25.45 34.9 -25.45 35.0 -25.4 35.1 -25.4 35.2 -25.4 35.3 -25.35 35.4 -25.4 35.5 -25.4 35.6 -25.45 35.7 -25.45 35.8 -25.5 35.9 -25.55 35.95 -25.65 L35.95 -25.65 M37.25 -26.9 Q37.3 -26.95 37.35 -27.05 37.4 -27.15 37.45 -27.2 37.45 -27.3 37.45 -27.4 37.5 -27.5 37.5 -27.6 37.45 -27.7 37.45 -27.8 37.45 -27.85 37.4 -27.95 37.35 -28.05 37.3 -28.15 37.25 -28.25 37.2 -28.35 37.2 -27.9 37.25 -26.9 L37.25 -26.9" fill="#000000" fill-rule="evenodd" stroke="none"/>
    <path d="M24.4 -40.25 Q24.35 -40.2 24.35 -40.2 24.3 -40.15 24.3 -40.1 24.25 -40.05 24.25 -40.0 24.25 -40.0 24.2 -39.95 23.95 -39.25 23.9 -39.1 23.85 -39.05 23.85 -39.0 23.8 -38.95 23.75 -38.95 23.75 -38.9 23.7 -38.9 23.65 -38.9 23.55 -38.85 23.5 -38.85 23.45 -38.85 23.4 -38.85 23.3 -38.85 23.25 -38.85 23.2 -38.85 23.1 -38.85 23.05 -38.85 23.0 -38.85 22.95 -38.9 22.9 -38.9 22.8 -38.95 22.75 -39.0 22.7 -39.0 22.6 -39.05 22.5 -39.15 22.4 -39.2 22.3 -39.25 22.2 -39.3 22.1 -39.35 22.0 -39.4 21.9 -39.45 21.8 -39.5 21.7 -39.55 21.6 -39.6 21.5 -39.6 21.4 -39.65 21.25 -39.7 21.15 -39.7 21.05 -39.75 20.45 -39.9 19.15 -40.0 18.8 -40.05 16.4 -40.0 16.1 -40.0 14.95 -39.95 14.05 -39.9 13.5 -39.9 13.2 -39.9 12.9 -39.9 12.6 -39.9 12.3 -39.95 12.05 -39.95 11.75 -40.0 11.45 -40.05 11.15 -40.1 10.85 -40.15 10.6 -40.2 10.3 -40.3 10.05 -40.4 9.75 -40.5 9.45 -40.6 9.2 -40.7 8.95 -40.85 8.75 -40.95 8.55 -41.05 8.4 -41.15 8.2 -41.3 8.05 -41.45 7.9 -41.55 7.75 -41.7 7.6 -41.9 7.5 -42.05 7.4 -42.2 7.25 -42.35 7.15 -42.55 7.05 -42.75 7.0 -42.95 6.9 -43.15 6.8 -43.35 6.75 -43.45 6.75 -43.55 6.7 -43.65 6.7 -43.7 6.65 -43.8 6.65 -43.9 6.6 -44.0 6.6 -44.1 6.55 -44.2 6.55 -44.3 6.55 -44.4 6.5 -44.45 6.5 -44.55 6.5 -44.65 6.5 -44.75 6.5 -44.85 6.5 -44.9 6.5 -44.95 6.5 -45.0 6.5 -45.0 6.5 -45.05 6.5 -45.1 6.5 -45.15 6.5 -45.2 6.5 -45.25 6.5 -45.25 6.5 -45.3 6.5 -45.35 6.5 -45.4 6.55 -45.45 6.55 -45.45 6.55 -45.5 6.55 -45.55 6.6 -45.6 6.6 -45.65 6.65 -45.65 6.65 -45.7 6.7 -45.7 6.75 -45.7 6.8 -45.75 6.8 -45.75 6.85 -45.75 7.0 -45.75 7.15 -45.8 7.25 -45.8 7.4 -45.8 7.55 -45.8 7.7 -45.8 7.8 -45.8 7.95 -45.75 8.1 -45.75 8.25 -45.75 8.35 -45.7 8.5 -45.7 8.65 -45.65 8.75 -45.65 8.9 -45.6 9.05 -45.55 9.2 -45.5 9.35 -45.45 9.5 -45.4 9.65 -45.4 9.8 -45.35 9.95 -45.3 10.1 -45.25 10.25 -45.2 10.4 -45.15 10.6 -45.15 10.75 -45.1 10.9 -45.05 11.05 -45.0 11.2 -44.95 11.35 -44.95 11.5 -44.9 13.85 -44.35 15.25 -44.2 15.4 -44.2 15.55 -44.15 15.7 -44.15 15.85 -44.15 16.0 -44.1 16.2 -44.1 16.35 -44.1 16.5 -44.1 16.65 -44.05 16.8 -44.05 16.95 -44.05 17.1 -44.05 17.25 -44.05 17.4 -44.05 17.55 -44.0 17.7 -44.0 23.8 -43.85 24.05 -43.85 24.25 -43.85 25.1 -43.75 25.15 -43.75 25.2 -43.7 25.25 -43.7 25.25 -43.65 25.3 -43.65 25.35 -43.6 25.35 -43.55 25.35 -43.5 25.4 -43.45 25.4 -43.4 25.4 -43.15 25.4 -42.7 25.5 -42.8 25.65 -43.0 25.85 -43.15 25.95 -43.25 26.0 -43.3 26.0 -43.3 26.05 -43.35 26.05 -43.35 26.1 -43.4 26.15 -43.4 26.15 -43.45 26.2 -43.45 26.25 -43.45 26.3 -43.45 26.45 -43.5 26.65 -43.5 26.8 -43.55 26.95 -43.55 27.15 -43.55 27.3 -43.55 27.45 -43.55 27.6 -43.55 27.8 -43.55 27.95 -43.5 28.1 -43.45 28.25 -43.45 28.45 -43.4 28.6 -43.35 28.75 -43.3 28.9 -43.2 28.95 -43.2 29.05 -43.15 29.1 -43.1 29.15 -43.05 29.2 -43.05 29.25 -43.0 29.3 -42.95 29.35 -42.9 29.4 -42.85 29.4 -42.8 29.45 -42.75 29.5 -42.7 29.5 -42.6 29.55 -42.55 29.55 -42.5 29.6 -42.45 29.65 -42.35 29.65 -42.25 29.65 -42.1 29.7 -42.0 29.7 -41.9 29.75 -41.8 29.75 -41.7 29.75 -41.6 29.8 -41.5 29.8 -41.35 29.8 -41.25 29.8 -41.15 29.8 -41.05 29.8 -40.95 29.8 -40.85 29.8 -40.7 29.8 -40.65 29.8 -40.65 29.8 -40.6 29.75 -40.55 29.75 -40.5 29.75 -40.5 29.7 -40.45 29.7 -40.4 29.7 -40.4 29.65 -40.35 29.65 -40.35 29.65 -40.3 29.6 -40.25 29.6 -40.25 29.55 -40.2 29.55 -40.15 29.35 -39.95 29.25 -39.8 29.1 -39.6 28.95 -39.45 28.8 -39.3 28.65 -39.1 28.5 -38.95 28.4 -38.75 28.25 -38.55 28.15 -38.4 28.0 -38.2 27.9 -38.0 27.75 -37.8 27.65 -37.65 27.55 -37.4 27.45 -37.2 27.4 -37.1 27.35 -37.0 27.3 -36.9 27.25 -36.8 27.2 -36.7 27.15 -36.6 27.15 -36.5 27.1 -36.35 27.05 -36.25 27.0 -36.15 27.0 -36.05 26.95 -35.95 26.9 -35.85 26.9 -35.7 26.85 -35.6 26.85 -35.5 26.8 -35.3 26.7 -34.95 26.55 -34.5 26.5 -34.4 26.5 -34.35 26.5 -34.35 26.5 -34.3 26.5 -34.25 26.45 -34.25 26.45 -34.2 26.45 -34.2 26.45 -34.15 26.45 -34.15 26.4 -34.1 26.4 -34.05 26.4 -34.05 26.4 -34.0 26.35 -34.0 26.35 -33.95 26.35 -33.95 26.35 -33.9 26.3 -33.9 26.3 -33.85 26.25 -33.85 26.25 -33.8 26.25 -33.8 26.2 -33.75 26.2 -33.75 26.15 -33.75 26.15 -33.7 26.1 -33.7 26.1 -33.65 26.05 -33.65 26.05 -33.65 26.0 -33.65 26.0 -33.6 25.9 -33.55 25.8 -33.55 25.7 -33.5 25.6 -33.5 25.45 -33.45 25.35 -33.45 25.25 -33.45 25.15 -33.45 25.05 -33.45 24.95 -33.45 24.85 -33.45 24.7 -33.5 24.6 -33.5 24.5 -33.5 24.4 -33.55 24.3 -33.6 24.25 -33.6 24.2 -33.6 24.2 -33.65 24.15 -33.65 24.1 -33.7 24.1 -33.7 24.05 -33.7 24.05 -33.75 24.0 -33.75 24.0 -33.8 23.95 -33.85 23.95 -33.85 23.9 -33.9 23.9 -33.95 23.85 -33.95 23.85 -34.0 23.65 -34.45 23.6 -34.7 23.55 -34.8 23.55 -34.95 23.5 -35.05 23.5 -35.15 23.45 -35.3 23.45 -35.4 23.4 -35.5 23.4 -35.6 23.4 -35.75 23.4 -35.85 23.4 -36.0 23.4 -36.1 23.4 -36.2 23.4 -36.35 23.4 -36.45 23.4 -36.6 23.45 -36.8 23.45 -37.0 23.5 -37.2 23.55 -37.4 23.6 -37.6 23.65 -37.8 23.7 -38.0 23.75 -38.2 23.8 -38.4 23.85 -38.6 23.95 -38.8 24.0 -39.0 24.05 -39.2 24.1 -39.4 24.2 -39.55 24.25 -39.8 24.3 -39.9 24.4 -40.25 24.45 -40.45 24.6 -40.8 24.65 -40.9 24.7 -41.05 24.7 -41.05 24.65 -41.05 24.65 -41.0 24.6 -40.8 24.55 -40.75 24.55 -40.75 24.55 -40.7 24.5 -40.7 24.5 -40.65 24.45 -40.6 24.45 -40.6 24.45 -40.55 24.45 -40.5 24.4 -40.5 24.4 -40.45 24.4 -40.4 24.4 -40.4 24.4 -40.35 24.4 -40.3 24.4 -40.25 L24.4 -40.25 M25.0 -41.85 Q25.0 -41.8 25.05 -41.8 25.05 -41.85 25.1 -42.0 25.1 -42.0 25.1 -42.0 25.05 -41.95 25.0 -41.85 L25.0 -41.85 M24.9 -41.55 Q24.9 -41.55 24.85 -41.55 24.85 -41.5 24.85 -41.5 24.85 -41.45 24.8 -41.4 24.8 -41.4 24.8 -41.35 24.8 -41.35 24.85 -41.35 24.85 -41.4 24.9 -41.55 L24.9 -41.55" fill="#000000" fill-rule="evenodd" stroke="none"/>
    <path d="M31.25 -40.7 Q31.4 -40.7 31.5 -40.7 31.65 -40.65 31.8 -40.65 31.9 -40.6 32.0 -40.55 32.15 -40.5 32.25 -40.45 32.35 -40.4 32.45 -40.3 32.55 -40.25 32.65 -40.15 32.7 -40.1 32.8 -40.0 32.9 -39.9 32.95 -39.75 33.0 -39.65 33.05 -39.6 33.1 -39.5 33.15 -39.45 33.2 -39.35 33.25 -39.3 33.25 -39.2 33.3 -39.15 33.35 -39.05 33.4 -39.0 33.45 -38.9 33.45 -38.85 33.5 -38.75 33.55 -38.65 33.6 -38.6 33.6 -38.5 33.65 -38.35 33.7 -38.2 33.7 -38.05 33.75 -37.95 33.75 -37.8 33.75 -37.65 33.75 -37.5 33.75 -37.4 33.75 -37.25 33.7 -37.1 33.65 -36.95 33.6 -36.85 33.55 -36.7 33.45 -36.6 33.4 -36.45 33.3 -36.35 33.1 -36.1 32.55 -35.45 32.1 -34.9 31.85 -34.6 31.7 -34.45 31.6 -34.25 31.45 -34.1 31.35 -33.9 31.2 -33.7 31.1 -33.55 31.0 -33.35 30.9 -33.15 30.8 -33.0 30.7 -32.8 30.6 -32.6 30.5 -32.4 30.45 -32.2 30.35 -32.0 30.3 -31.8 30.25 -31.6 30.15 -31.35 30.0 -31.0 29.75 -30.45 29.7 -30.35 29.7 -30.3 29.65 -30.25 29.65 -30.25 29.6 -30.2 29.6 -30.15 29.55 -30.15 29.55 -30.1 29.5 -30.1 29.45 -30.05 29.45 -30.05 29.4 -30.0 29.35 -30.0 29.3 -30.0 29.25 -30.0 29.2 -29.95 29.15 -29.95 29.0 -29.95 28.9 -29.95 28.8 -29.95 28.7 -29.95 28.55 -29.95 28.45 -30.0 28.35 -30.05 28.3 -30.05 28.2 -30.1 28.1 -30.2 28.0 -30.25 27.95 -30.35 27.85 -30.4 27.8 -30.5 27.7 -30.6 27.65 -30.75 27.6 -30.8 27.55 -30.9 27.55 -30.95 27.5 -31.05 27.45 -31.1 27.4 -31.2 27.4 -31.25 27.35 -31.35 27.35 -31.4 27.3 -31.5 27.3 -31.55 27.25 -31.65 27.25 -31.75 27.2 -31.8 27.2 -31.9 27.2 -32.0 27.2 -32.15 27.15 -32.3 27.15 -32.4 27.15 -32.55 27.1 -32.7 27.1 -32.85 27.05 -33.0 27.05 -33.1 27.05 -33.25 27.05 -33.4 27.0 -33.55 27.0 -33.7 27.0 -33.85 26.95 -33.95 26.95 -34.1 26.95 -34.25 26.95 -34.3 26.95 -34.35 26.95 -34.4 26.95 -34.45 26.95 -34.5 26.95 -34.55 26.95 -34.6 26.95 -34.65 26.95 -34.7 27.0 -34.75 27.0 -34.8 27.0 -34.85 27.0 -34.9 27.0 -34.95 27.0 -35.0 27.05 -35.05 27.1 -35.25 27.4 -36.45 27.45 -36.6 27.5 -36.75 27.55 -36.9 27.65 -37.1 27.7 -37.25 27.75 -37.4 27.85 -37.55 27.95 -37.7 28.0 -37.8 28.1 -37.95 28.2 -38.1 28.3 -38.25 28.35 -38.4 28.45 -38.55 28.55 -38.65 28.65 -38.8 28.7 -38.85 28.7 -38.85 28.7 -38.9 28.75 -38.9 28.75 -38.95 28.8 -38.95 28.8 -39.0 28.85 -39.0 28.85 -39.05 28.9 -39.1 28.9 -39.1 28.9 -39.15 28.95 -39.15 28.95 -39.2 29.0 -39.2 29.0 -39.25 29.05 -39.35 29.15 -39.45 29.2 -39.55 29.3 -39.65 29.4 -39.75 29.45 -39.85 29.55 -39.9 29.65 -40.0 29.75 -40.05 29.85 -40.15 29.95 -40.2 30.05 -40.3 30.15 -40.35 30.25 -40.4 30.35 -40.45 30.45 -40.5 30.55 -40.55 31.25 -40.7 L31.25 -40.7" fill="#000000" fill-rule="evenodd" stroke="none"/>
    <path d="M-7.8 -33.3 Q-8.6 -33.6 -10.1 -34.1 -10.1 -34.15 -10.1 -34.2 -10.05 -34.2 -10.0 -34.2 -9.95 -34.15 -9.9 -34.15 -9.0 -33.85 -8.05 -33.5 -7.5 -33.25 -7.9 -33.45 -7.8 -33.4 -7.8 -33.3 L-7.8 -33.3 -7.8 -33.3" fill="#000000" fill-rule="evenodd" stroke="none"/>
    <path d="M-7.8 -33.3 Q-7.75 -33.3 -7.55 -33.3 -7.55 -33.25 -7.55 -33.2 -7.6 -33.25 -7.65 -33.25 -7.7 -33.25 -7.7 -33.3 -7.75 -33.3 -7.8 -33.3 -7.8 -33.3 -7.8 -33.3 L-7.8 -33.3" fill="#000000" fill-rule="evenodd" stroke="none"/>
    <path d="M-7.2 -33.15 Q-7.2 -33.1 -7.15 -33.1 -7.1 -33.1 -7.05 -33.05 -7.05 -33.05 -7.05 -33.05 -7.1 -33.05 -7.15 -33.05 -7.2 -33.05 -7.25 -33.1 -7.25 -33.1 -7.2 -33.15 L-7.2 -33.15" fill="#000000" fill-rule="evenodd" stroke="none"/>
    <path d="M24.6 -40.8 Q24.5 -40.65 24.4 -40.25 24.4 -40.3 24.4 -40.25 24.4 -40.3 24.4 -40.35 24.4 -40.35 24.4 -40.4 24.4 -40.45 24.4 -40.5 24.45 -40.5 24.45 -40.55 24.45 -40.6 24.45 -40.6 24.5 -40.65 24.5 -40.7 24.55 -40.7 24.55 -40.75 24.55 -40.75 24.6 -40.8 L24.6 -40.8 24.6 -40.8" fill="#000000" fill-rule="evenodd" stroke="none"/>
    <path d="M25.0 -41.85 Q25.0 -41.9 25.1 -42.0 25.1 -42.0 25.1 -42.0 25.1 -41.9 25.05 -41.8 25.0 -41.8 25.0 -41.85 L25.0 -41.85" fill="#000000" fill-rule="evenodd" stroke="none"/>
    <path d="M24.9 -41.55 Q24.9 -41.5 24.9 -41.45 24.9 -41.45 24.85 -41.4 24.85 -41.4 24.85 -41.35 24.85 -41.35 24.8 -41.35 24.8 -41.4 24.85 -41.55 24.9 -41.55 24.9 -41.55 L24.9 -41.55" fill="#000000" fill-rule="evenodd" stroke="none"/>
    <path d="M24.6 -40.8 Q24.6 -40.9 24.65 -41.05 24.7 -41.05 24.7 -41.05 24.7 -40.95 24.6 -40.8 24.6 -40.8 24.6 -40.8 L24.6 -40.8" fill="#000000" fill-rule="evenodd" stroke="none"/>
  </g>
</svg>
