<?xml version="1.0" encoding="UTF-8" standalone="no"?>
<svg xmlns:xlink="http://www.w3.org/1999/xlink" height="200.0px" width="200.0px" xmlns="http://www.w3.org/2000/svg">
  <g transform="matrix(1.0, 0.0, 0.0, 1.0, 100.0, 100.0)">
    <path d="M-49.9 -40.35 Q-46.55 -40.25 -39.85 -40.1 -39.75 -40.1 -39.65 -40.1 -39.55 -40.1 -39.45 -40.05 -39.35 -40.05 -39.25 -40.0 -39.2 -40.0 -39.1 -39.95 -39.05 -39.95 -38.95 -39.9 -38.9 -39.85 -38.85 -39.8 -38.8 -39.75 -38.75 -39.7 -38.75 -39.65 -38.7 -39.6 -38.7 -39.55 -38.7 -39.5 -38.7 -39.45 -38.7 -39.4 -38.7 -39.35 -38.7 -39.3 -38.7 -39.25 -38.75 -39.2 -38.75 -39.15 -38.8 -39.1 -38.8 -39.05 -38.85 -39.0 -38.85 -38.95 -38.9 -38.9 -38.95 -38.85 -39.0 -38.75 -39.05 -38.65 -39.1 -38.55 -39.2 -38.45 -39.25 -38.4 -39.3 -38.3 -39.35 -38.2 -39.45 -38.15 -39.5 -38.1 -39.55 -38.05 -39.6 -37.95 -39.65 -37.9 -39.7 -37.9 -39.75 -37.85 -39.75 -37.8 -39.8 -37.8 -39.85 -37.75 -39.95 -37.65 -40.15 -37.55 -40.35 -37.45 -40.55 -37.35 -40.8 -37.25 -41.05 -37.15 -41.35 -37.1 -41.7 -37.0 -42.0 -36.9 -42.4 -36.85 -42.75 -36.8 -43.15 -36.75 -43.55 -36.7 -44.0 -36.65 -44.45 -36.6 -44.9 -36.6 -43.3 -35.4 -42.15 -34.55 -41.95 -34.4 -41.8 -34.3 -41.65 -34.15 -41.5 -34.05 -41.35 -33.95 -41.2 -33.8 -41.05 -33.7 -40.9 -33.6 -40.7 -33.5 -40.55 -33.4 -40.4 -33.3 -40.25 -33.2 -40.05 -33.1 -39.9 -33.0 -39.7 -32.9 -39.5 -32.8 -39.4 -32.75 -39.25 -32.65 -39.15 -32.6 -39.05 -32.55 -38.95 -32.5 -38.85 -32.45 -38.8 -32.4 -38.7 -32.4 -38.6 -32.35 -38.55 -32.3 -38.5 -32.3 -38.45 -32.25 -38.4 -32.25 -38.35 -32.25 -38.3 -32.2 -38.25 -32.2 -38.1 -32.15 -37.9 -32.1 -37.75 -32.05 -37.6 -32.0 -37.45 -31.95 -37.3 -31.9 -37.2 -31.9 -37.05 -31.85 -36.9 -31.85 -36.75 -31.8 -36.65 -31.8 -36.5 -31.75 -36.4 -31.75 -36.25 -31.7 -36.0 -31.7 -35.95 -31.65 -34.65 -31.5 -32.85 -31.05 -30.8 -38.7 -26.65 -54.05 -32.8 -55.4 -45.0 -58.15 -46.65 -52.2 -49.9 -40.35 L-49.9 -40.35" fill="#ecd2bb" fill-rule="evenodd" stroke="none"/>
  </g>
</svg>
