<?xml version="1.0" encoding="UTF-8" standalone="no"?>
<svg xmlns:xlink="http://www.w3.org/1999/xlink" height="133.35px" width="110.45px" xmlns="http://www.w3.org/2000/svg">
  <g transform="matrix(1.0, 0.0, 0.0, 1.0, 55.25, 66.7)">
    <path d="M47.5 21.3 Q47.25 20.55 47.05 19.75 46.8 19.0 46.6 18.25 46.4 17.45 46.2 16.7 46.0 15.9 45.85 15.15 45.7 14.35 45.55 13.55 45.4 12.8 45.25 12.0 45.15 11.2 45.0 10.4 44.9 9.65 44.8 8.85 44.6 7.25 44.35 5.6 44.15 4.0 43.85 2.4 43.55 0.8 43.25 -0.8 42.9 -2.35 42.55 -3.95 42.2 -5.55 41.75 -7.1 41.35 -8.65 40.9 -10.2 40.45 -11.8 39.95 -13.3 39.45 -14.85 38.9 -16.4 38.8 -16.7 38.65 -17.05 38.55 -17.35 38.35 -17.75 38.65 -17.05 38.1 -18.4 37.95 -18.8 37.8 -19.05 37.7 -19.45 37.55 -19.75 37.45 -20.1 37.35 -20.4 37.2 -20.75 37.15 -21.1 37.05 -21.45 37.0 -21.8 36.95 -22.1 36.9 -22.45 36.8 -22.75 36.75 -23.05 36.65 -23.35 36.6 -23.7 36.5 -24.0 36.4 -24.3 36.3 -24.6 36.2 -24.9 36.15 -25.2 36.0 -25.5 35.9 -25.8 35.8 -26.1 35.7 -26.4 35.6 -26.7 35.35 -27.3 35.05 -27.9 34.8 -28.45 34.45 -29.0 34.15 -29.55 33.8 -30.0 33.45 -30.5 33.05 -30.9 32.65 -31.35 32.2 -31.75 31.8 -32.15 31.35 -32.5 30.85 -32.8 30.35 -33.1 29.85 -33.4 29.35 -33.65 29.25 -33.45 29.15 -33.3 29.05 -33.1 28.95 -32.95 28.85 -32.8 28.75 -32.6 28.65 -32.45 28.55 -32.25 28.45 -32.1 28.35 -31.95 28.25 -31.75 28.15 -31.6 28.0 -31.4 27.9 -31.25 27.8 -31.1 27.7 -30.95 27.85 -30.9 28.0 -30.8 28.1 -30.75 28.25 -30.65 28.4 -30.6 28.55 -30.5 28.65 -30.4 28.8 -30.35 28.95 -30.25 29.05 -30.15 29.2 -30.05 29.35 -29.95 29.45 -29.9 29.6 -29.8 29.75 -29.7 29.85 -29.55 30.0 -29.45 31.05 -28.35 30.9 -28.35 30.7 -28.3 30.55 -28.3 30.35 -28.3 30.3 -28.3 30.0 -28.3 29.8 -28.3 29.7 -28.25 29.5 -28.25 29.35 -28.25 29.2 -28.25 29.05 -28.2 28.9 -28.2 28.8 -28.15 28.65 -28.1 28.55 -28.05 28.15 -27.85 27.75 -27.7 27.4 -27.6 27.0 -27.55 26.65 -27.5 26.25 -27.5 25.9 -27.5 25.55 -27.6 25.2 -27.65 24.8 -27.75 24.5 -27.8 24.1 -27.95 23.8 -28.05 23.35 -28.2 22.55 -28.5 22.6 -28.45 21.3 -28.9 19.95 -29.25 18.65 -29.6 17.3 -29.85 16.0 -30.1 14.65 -30.25 13.35 -30.4 12.0 -30.45 10.65 -30.55 9.3 -30.5 7.95 -30.5 6.6 -30.4 5.25 -30.3 3.9 -30.1 2.55 -29.95 1.2 -29.7 -1.25 -29.25 -5.4 -28.4 -10.2 -27.4 -12.0 -27.05 -12.15 -27.0 -12.3 -27.0 -12.45 -27.0 -12.6 -27.0 -12.75 -27.0 -12.9 -27.0 -13.05 -27.0 -13.2 -27.0 -13.35 -27.0 -13.5 -27.05 -13.65 -27.05 -13.85 -27.05 -13.95 -27.1 -14.15 -27.1 -13.6 -27.05 -14.45 -27.15 -14.8 -27.2 -15.2 -27.25 -15.5 -27.3 -15.9 -27.4 -16.05 -27.45 -16.65 -27.55 -17.1 -27.6 -17.4 -27.65 -17.8 -27.75 -18.15 -27.8 -18.5 -27.85 -18.85 -27.9 -19.25 -27.95 -19.6 -28.0 -20.0 -28.0 -20.35 -28.05 -20.85 -28.05 -21.35 -28.0 -21.85 -27.9 -22.35 -27.75 -22.8 -27.6 -23.2 -27.35 -23.65 -27.1 -24.0 -26.8 -24.4 -26.5 -24.7 -26.1 -25.05 -25.75 -25.3 -25.35 -25.55 -24.9 -25.75 -24.45 -25.95 -23.95 -26.05 -23.45 -26.15 -23.0 -26.2 -22.55 -26.3 -22.15 -26.3 -21.7 -26.3 -21.3 -26.25 -20.85 -26.25 -20.45 -26.15 -20.0 -26.05 -19.6 -25.95 -19.2 -25.85 -18.8 -25.65 -18.4 -25.5 -18.0 -25.3 -17.6 -25.1 -17.2 -24.9 -16.8 -22.3 -12.25 -21.7 -10.2 -20.75 -6.85 -18.6 3.3 -18.55 3.6 -18.5 3.9 -18.4 4.2 -18.35 4.5 -18.3 4.8 -18.3 5.1 -18.25 5.4 -18.2 5.7 -18.15 6.0 -18.15 6.3 -18.1 6.6 -18.1 6.9 -18.05 7.2 -18.05 7.5 -18.05 7.8 -18.05 8.1 -18.05 8.45 -18.1 8.75 -18.1 9.05 -18.2 9.35 -18.25 9.65 -18.4 9.9 -18.5 10.15 -18.65 10.4 -18.85 10.65 -19.05 10.85 -19.25 11.05 -19.5 11.25 -19.75 11.45 -20.05 11.55 -20.35 11.7 -20.7 11.85 -21.6 12.15 -28.5 14.65 -28.35 14.65 -27.45 14.8 -26.8 14.9 -26.35 14.95 -25.55 15.0 -24.7 15.0 -23.9 15.0 -23.05 14.9 -22.25 14.8 -21.45 14.65 -20.7 14.55 -19.85 14.3 -19.1 14.15 -18.3 13.9 -17.55 13.65 -16.75 13.35 -16.05 13.1 -15.25 12.8 -14.6 12.55 -13.7 12.2 -13.0 11.95 -12.15 11.6 -11.6 11.35 -10.6 10.95 -9.5 10.5 -9.0 10.3 -8.15 9.95 -7.45 9.65 -6.6 9.35 -5.9 9.1 -5.05 8.75 -4.3 8.55 -3.45 8.25 -2.65 8.05 -1.85 7.8 -1.05 7.65 0.6 7.3 4.0 7.1 4.3 7.1 4.55 7.1 4.85 7.15 5.1 7.2 5.35 7.25 5.6 7.35 5.85 7.45 6.1 7.6 6.3 7.75 6.55 7.9 6.75 8.05 6.95 8.25 7.15 8.4 7.35 8.65 7.55 8.85 7.7 9.05 8.4 10.0 10.3 12.5 11.95 14.65 12.9 15.95 13.05 16.15 13.2 16.35 13.3 16.6 13.35 16.8 13.45 17.0 13.45 17.25 13.45 17.45 13.45 17.65 13.4 17.9 13.35 18.1 13.25 18.3 13.15 18.5 13.05 18.7 12.85 18.9 12.7 19.1 12.5 19.25 12.35 18.95 12.15 18.6 11.95 18.3 11.7 18.0 11.5 17.7 11.25 17.45 11.0 17.15 10.7 16.9 10.45 16.65 10.15 16.45 9.9 16.2 9.6 16.0 9.3 15.85 9.0 15.7 8.7 15.55 8.45 15.45 8.9 15.85 8.95 15.9 9.35 16.25 9.65 16.65 10.0 17.0 10.2 17.35 10.4 17.7 10.55 18.1 10.65 18.45 10.7 18.85 10.7 19.2 10.65 19.6 10.55 19.95 10.4 20.35 10.25 20.75 10.0 21.15 9.75 21.55 9.4 21.95 9.15 22.3 9.3 22.1 9.2 22.15 9.15 22.25 9.1 22.3 9.05 22.35 9.0 22.45 8.95 22.5 8.9 22.6 8.85 22.65 8.8 22.75 8.75 22.8 8.7 22.9 8.65 23.0 8.65 23.05 8.6 23.15 8.55 23.35 8.45 23.45 8.4 23.6 8.3 23.7 8.2 23.8 8.1 23.9 8.0 23.95 7.85 24.0 7.75 24.05 7.6 24.05 7.5 24.05 7.35 24.05 7.2 24.05 7.1 24.0 6.95 24.0 6.8 23.95 6.4 23.85 5.5 23.4 5.1 23.2 4.65 23.0 4.25 22.85 3.8 22.7 3.4 22.55 2.95 22.45 2.55 22.35 2.1 22.25 1.7 22.2 1.25 22.15 0.8 22.05 0.35 22.05 -0.1 22.0 -0.55 21.95 -0.95 21.95 -1.45 21.95 -1.35 22.0 -0.3 22.4 0.15 22.6 0.5 22.7 0.9 22.9 1.25 23.05 1.65 23.25 2.0 23.4 2.4 23.6 2.75 23.8 3.1 24.0 3.45 24.2 3.8 24.45 4.15 24.65 4.45 24.9 4.8 25.2 5.1 25.5 5.4 25.8 5.65 26.1 5.9 26.4 6.1 26.7 6.2 27.05 6.35 27.35 6.4 27.7 6.5 28.0 6.5 28.35 6.5 28.7 6.4 29.0 6.35 29.35 6.2 29.7 6.1 30.0 5.85 30.3 5.65 30.6 5.4 30.9 5.0 31.35 4.55 31.7 4.1 32.05 3.6 32.3 3.15 32.6 2.65 32.8 2.15 33.0 1.65 33.1 1.15 33.25 0.6 33.3 0.1 33.35 -0.45 33.35 -1.0 33.35 -1.55 33.25 -2.1 33.2 -2.7 33.1 -2.95 33.05 -3.4 32.9 -3.9 32.75 -4.15 32.7 -3.8 33.0 -3.45 33.3 -3.1 33.55 -2.75 33.8 -2.35 34.05 -2.0 34.3 -1.6 34.5 -1.2 34.7 -0.8 34.85 -0.4 35.0 0.05 35.1 0.5 35.2 0.95 35.25 1.4 35.25 1.9 35.25 2.4 35.2 2.15 35.45 1.9 35.65 1.7 35.8 1.45 35.95 1.2 36.1 0.95 36.2 0.7 36.3 0.45 36.35 0.2 36.4 -0.05 36.45 -0.3 36.45 -0.6 36.45 -0.85 36.45 -1.1 36.4 -1.35 36.35 -1.6 36.3 -3.0 35.9 -6.2 34.7 -6.4 34.65 -6.6 34.55 -6.8 34.45 -7.0 34.35 -7.15 34.3 -7.4 34.15 -7.7 34.0 -7.8 33.95 -8.05 33.85 -8.2 33.8 -8.45 33.7 -8.6 33.6 -8.85 33.55 -9.0 33.5 -9.25 33.4 -9.45 33.4 -9.85 33.35 -10.3 33.25 -10.7 33.2 -11.1 33.15 -11.55 33.1 -11.95 33.05 -12.35 33.05 -12.8 33.0 -13.2 32.95 -13.65 32.95 -14.05 32.9 -14.5 32.9 -14.9 32.85 -15.35 32.85 -15.75 32.8 -16.2 32.8 -17.55 32.75 -21.1 32.75 -24.25 32.8 -26.05 32.7 -26.6 32.65 -27.1 32.65 -27.65 32.6 -28.2 32.55 -28.75 32.5 -29.25 32.45 -29.8 32.4 -30.3 32.35 -30.85 32.3 -31.4 32.25 -31.95 32.15 -32.45 32.1 -33.0 32.0 -33.5 31.9 -34.05 31.85 -34.55 31.75 -35.0 31.65 -35.45 31.55 -35.9 31.4 -36.25 31.2 -36.65 31.05 -37.0 30.85 -37.4 30.6 -37.65 30.3 -38.0 30.05 -38.2 29.7 -38.45 29.35 -38.65 28.95 -38.8 28.55 -38.9 28.1 -39.0 27.6 -39.0 27.05 -39.0 26.7 -39.15 25.75 -39.25 24.9 -39.25 24.4 -39.25 23.5 -39.2 22.6 -39.15 21.7 -39.05 20.8 -38.95 19.9 -38.8 19.0 -38.65 18.15 -38.5 17.25 -38.3 16.35 -38.1 15.5 -37.9 14.6 -37.65 13.75 -37.45 12.9 -37.15 12.0 -36.9 11.15 -36.6 10.3 -36.1 8.8 -35.65 7.3 -35.2 5.8 -34.8 4.25 -34.4 2.75 -34.0 1.25 -33.6 -0.3 -33.3 -1.8 -32.95 -3.35 -32.65 -4.9 -32.35 -6.45 -32.05 -7.95 -31.8 -9.5 -31.6 -11.05 -31.35 -12.65 -31.2 -14.2 -31.05 -15.5 -30.9 -18.55 -30.8 -21.3 -30.55 -22.85 -30.5 -23.25 -30.4 -23.65 -30.35 -24.05 -30.2 -24.45 -30.15 -24.8 -30.0 -25.2 -29.9 -25.6 -29.75 -26.0 -29.6 -26.35 -29.45 -26.75 -29.35 -27.15 -29.2 -27.55 -29.05 -27.85 -28.9 -28.3 -29.0 -28.0 -28.55 -29.05 -28.5 -29.2 -28.4 -29.35 -28.35 -29.5 -28.25 -29.65 -28.2 -29.8 -28.1 -29.9 -28.0 -30.05 -27.9 -30.15 -27.8 -30.25 -27.65 -30.35 -27.55 -30.45 -27.45 -30.5 -27.3 -30.6 -27.2 -30.7 -27.05 -30.75 -26.9 -30.8 -26.95 -32.9 -27.0 -34.05 -27.4 -33.95 -27.75 -33.85 -28.15 -33.7 -28.45 -33.55 -28.8 -33.4 -29.1 -33.2 -29.45 -33.0 -29.7 -32.75 -30.0 -32.5 -30.3 -32.2 -30.55 -31.9 -30.8 -31.55 -31.05 -31.25 -31.25 -30.85 -31.5 -30.45 -31.7 -30.0 -31.95 -29.55 -32.15 -29.1 -32.35 -28.6 -32.55 -28.15 -32.75 -27.65 -32.9 -27.2 -33.05 -26.7 -33.2 -26.2 -33.35 -25.7 -33.45 -25.2 -33.6 -24.7 -33.65 -24.2 -33.75 -23.7 -33.8 -23.2 -33.85 -22.7 -33.9 -22.15 -33.95 -21.45 -34.0 -19.05 -34.05 -17.1 -34.15 -15.95 -34.25 -14.8 -34.4 -13.6 -34.55 -12.4 -34.7 -11.25 -34.9 -10.05 -35.1 -8.9 -35.3 -7.75 -35.5 -6.55 -35.75 -5.4 -36.0 -4.2 -36.25 -3.1 -36.5 -1.9 -36.8 -0.8 -37.05 0.4 -37.35 1.5 -37.65 2.7 -38.15 4.6 -39.55 9.45 -40.8 13.75 -41.4 16.2 -41.6 17.0 -41.75 17.75 -41.95 18.55 -42.05 19.3 -42.2 20.15 -42.3 20.9 -42.35 21.7 -42.4 22.45 -42.45 23.25 -42.45 24.05 -42.45 24.85 -42.4 25.65 -42.35 26.45 -42.2 27.2 -42.1 28.0 -41.9 28.8 -41.85 28.9 -41.85 29.05 -41.8 29.15 -41.75 29.25 -41.75 29.4 -41.7 29.5 -41.65 29.6 -41.6 29.7 -41.55 29.85 -41.5 29.95 -41.45 30.05 -41.4 30.15 -41.35 30.25 -41.3 30.35 -41.2 30.45 -41.15 30.5 -40.9 30.8 -40.65 31.05 -40.4 31.3 -40.1 31.55 -39.85 31.8 -39.55 32.05 -39.3 32.25 -39.0 32.5 -38.7 32.7 -38.4 32.9 -38.05 33.05 -37.75 33.25 -37.4 33.4 -37.1 33.55 -36.75 33.7 -36.4 33.8 -31.9 35.3 -29.75 35.55 -27.9 35.8 -25.25 35.85 -7.6 36.4 -20.7 35.95 -20.1 36.0 -16.9 36.0 -16.75 36.4 -16.75 36.5 -16.7 37.15 -16.65 38.2 -16.65 38.8 -16.5 39.4 -16.35 40.0 -16.15 40.6 -15.9 41.15 -15.6 41.65 -15.25 42.2 -14.85 42.6 -14.45 43.05 -14.0 43.4 -13.55 43.8 -13.05 44.05 -12.55 44.3 -12.05 44.45 -11.5 44.6 -10.95 44.6 -10.6 44.6 -10.25 44.6 -9.9 44.6 -9.55 44.6 -9.25 44.6 -8.9 44.55 -8.55 44.55 -8.2 44.55 -7.85 44.5 -7.5 44.5 -7.15 44.45 -6.8 44.45 -6.45 44.4 -6.1 44.35 -5.8 44.35 -5.45 44.3 -4.65 44.2 -4.05 44.15 -3.3 44.05 -2.7 43.95 -1.95 43.9 -1.3 43.8 -0.6 43.75 0.1 43.7 0.8 43.65 1.45 43.65 2.15 43.6 2.85 43.6 3.55 43.6 4.2 43.6 4.95 43.65 5.6 43.7 6.05 43.75 6.55 43.75 6.2 43.75 7.25 43.75 7.55 43.75 7.7 43.8 7.9 43.8 8.0 43.9 8.15 43.95 8.2 44.1 8.25 44.25 8.35 44.55 8.35 44.7 8.45 45.2 8.55 45.8 8.6 46.15 8.65 46.4 8.75 46.65 8.85 46.9 8.95 47.1 9.1 47.3 9.25 47.45 9.4 47.6 9.6 47.7 9.8 47.8 10.0 47.85 10.2 47.9 10.45 47.9 10.7 47.9 10.95 47.85 11.2 47.8 11.45 47.7 15.8 46.05 15.9 46.0 16.05 45.95 16.2 45.9 16.35 45.85 16.5 45.85 16.7 45.8 16.85 45.8 17.0 45.8 17.15 45.8 17.3 45.8 17.45 45.8 17.6 45.8 17.75 45.85 17.9 45.9 18.1 45.95 18.25 46.0 18.4 46.1 18.6 46.2 18.8 46.25 19.0 46.3 19.2 46.4 19.45 46.45 19.65 46.5 19.85 46.5 20.1 46.55 20.3 46.6 20.55 46.6 20.75 46.6 20.95 46.6 21.2 46.65 21.4 46.6 21.6 46.6 21.85 46.55 22.45 46.45 23.05 46.35 23.6 46.2 24.2 46.05 24.75 45.85 25.3 45.65 25.85 45.45 26.35 45.2 26.9 44.9 27.4 44.6 27.9 44.35 28.4 44.0 28.9 43.65 29.4 43.3 29.85 42.9 30.3 42.5 32.55 40.5 36.05 37.6 36.45 37.25 36.85 36.95 37.3 36.65 37.7 36.35 38.15 36.05 38.6 35.8 39.05 35.55 39.5 35.3 39.95 35.1 40.4 34.9 40.9 34.7 41.35 34.5 41.85 34.35 42.35 34.2 42.85 34.05 43.35 33.95 43.65 33.9 43.9 33.8 44.2 33.7 44.45 33.55 44.7 33.45 44.9 33.3 45.1 33.15 45.3 33.0 45.5 32.8 45.7 32.65 45.85 32.45 46.05 32.25 46.2 32.05 46.35 31.8 46.45 31.55 46.6 31.3 46.9 30.7 47.15 30.1 47.45 29.5 47.6 28.9 47.8 28.25 47.95 27.65 48.05 27.05 48.1 26.4 48.15 25.8 48.15 25.15 48.15 24.5 48.1 23.9 48.0 23.25 47.85 22.6 47.75 21.95 47.5 21.3 L47.5 21.3 M-5.25 41.35 Q-8.25 41.8 -10.05 41.9 -10.3 41.9 -10.55 41.9 -10.8 41.9 -10.95 41.85 -11.15 41.8 -11.35 41.75 -11.5 41.7 -11.65 41.55 -11.8 41.45 -11.9 41.35 -12.0 41.2 -12.1 41.0 -12.2 40.85 -12.25 40.65 -12.3 40.4 -12.35 40.15 -12.45 39.65 -13.0 36.05 -12.6 36.1 -12.1 36.2 -9.45 36.55 -11.2 36.3 -10.7 36.35 -10.3 36.45 -9.85 36.5 -9.45 36.6 -9.0 36.7 -8.65 36.8 -8.2 36.9 -7.8 37.05 -7.4 37.2 -7.05 37.4 -6.65 37.6 -6.25 37.85 -5.95 38.05 -5.65 38.2 -5.35 38.4 -5.05 38.5 -4.7 38.65 -4.4 38.75 -4.05 38.85 -3.7 38.95 -3.4 39.0 -3.05 39.05 -2.7 39.1 -2.35 39.15 -2.0 39.15 -1.65 39.15 -1.3 39.2 -0.95 39.2 -0.75 39.2 -0.55 39.2 -0.4 39.2 -0.2 39.25 -0.05 39.3 0.1 39.35 0.25 39.4 0.4 39.45 0.55 39.55 0.65 39.6 0.8 39.7 0.9 39.85 1.05 39.95 1.15 40.05 1.25 40.2 1.35 40.35 -4.85 41.3 -5.25 41.35 L-5.25 41.35 M10.2 6.3 Q9.9 6.0 9.6 5.7 9.3 5.4 9.0 5.2 8.7 4.95 8.35 4.75 8.0 4.6 7.65 4.45 7.3 4.3 6.9 4.15 6.55 4.05 6.15 4.0 5.75 3.9 5.35 3.85 4.9 3.85 4.45 3.8 3.55 3.8 2.6 3.85 1.75 3.9 0.85 4.05 -0.05 4.15 -0.95 4.35 -1.8 4.55 -2.7 4.75 -3.5 5.0 -4.4 5.25 -5.2 5.5 -6.1 5.8 -6.9 6.05 -7.8 6.4 -8.5 6.65 -9.5 7.0 -9.65 7.05 -9.85 7.15 -10.0 7.2 -10.2 7.25 -10.35 7.3 -10.55 7.35 -10.7 7.4 -10.9 7.45 -11.05 7.5 -11.25 7.55 -11.4 7.6 -11.6 7.65 -11.8 7.7 -11.95 7.75 -12.15 7.8 -12.3 7.85 -12.45 7.9 -12.6 7.9 -12.7 7.9 -12.85 7.85 -12.95 7.85 -13.1 7.8 -13.2 7.75 -13.3 7.7 -13.4 7.65 -13.5 7.55 -13.6 7.5 -13.7 7.4 -13.75 7.3 -13.85 7.15 -13.9 7.05 -14.0 6.9 -14.2 6.45 -14.4 5.95 -14.6 5.5 -14.75 5.0 -14.9 4.55 -15.05 4.05 -15.2 3.6 -15.3 3.05 -15.4 2.6 -15.5 2.1 -15.6 1.7 -15.7 1.1 -17.45 -8.35 -15.9 0.1 -16.0 -0.5 -16.05 -0.9 -16.3 -2.15 -16.5 -3.05 -16.75 -4.2 -16.95 -5.15 -17.2 -6.25 -17.45 -7.25 -17.75 -8.35 -18.05 -9.35 -18.35 -10.4 -18.7 -11.4 -19.05 -12.45 -19.45 -13.4 -19.9 -14.45 -20.35 -15.4 -20.85 -16.4 -21.4 -17.35 -22.75 -19.6 -23.0 -20.55 -23.15 -21.05 -23.15 -21.55 -23.2 -22.0 -23.1 -22.45 -23.05 -22.85 -22.9 -23.2 -22.7 -23.55 -22.45 -23.85 -22.2 -24.15 -21.9 -24.35 -21.55 -24.6 -21.15 -24.7 -20.75 -24.85 -20.25 -24.9 -19.8 -24.95 -19.25 -24.9 -19.0 -24.85 -18.85 -24.85 -18.6 -24.85 -18.45 -24.8 -18.2 -24.75 -18.0 -24.75 -17.8 -24.7 -17.6 -24.65 -17.4 -24.65 -17.2 -24.6 -17.0 -24.55 -16.8 -24.5 -16.6 -24.45 -16.4 -24.4 -16.2 -24.3 -16.0 -24.25 -15.65 -24.1 -15.25 -24.0 -14.9 -23.9 -14.5 -23.85 -14.15 -23.8 -13.8 -23.75 -13.45 -23.75 -13.05 -23.75 -12.7 -23.75 -12.3 -23.8 -11.95 -23.8 -11.6 -23.9 -11.25 -23.95 -10.85 -24.0 -10.5 -24.05 -10.1 -24.15 -1.3 -26.05 2.15 -26.6 3.35 -26.8 4.5 -26.95 5.65 -27.1 6.8 -27.2 8.0 -27.3 9.15 -27.35 10.3 -27.35 11.45 -27.3 12.65 -27.3 13.8 -27.15 14.95 -27.05 16.1 -26.85 17.25 -26.65 18.4 -26.4 19.55 -26.1 20.7 -25.75 21.7 -25.45 24.85 -24.1 25.05 -24.05 25.2 -24.0 25.4 -23.9 25.55 -23.9 25.7 -23.85 25.9 -23.85 26.05 -23.85 26.2 -23.85 26.4 -23.85 26.55 -23.9 26.7 -23.95 26.85 -24.0 27.05 -24.05 27.2 -24.15 27.4 -24.2 27.55 -24.35 27.8 -24.5 28.1 -24.65 28.35 -24.8 28.65 -24.85 28.9 -24.95 29.2 -25.0 29.5 -25.05 29.8 -25.1 30.05 -25.1 30.35 -25.1 30.65 -25.05 30.95 -25.0 31.25 -24.95 31.55 -24.9 31.85 -24.8 32.1 -24.7 32.3 -24.6 32.5 -24.5 32.7 -24.4 32.85 -24.25 33.05 -24.1 33.15 -23.95 33.3 -23.8 33.4 -23.6 33.5 -23.45 33.55 -23.25 33.65 -23.05 33.7 -22.85 33.7 -22.7 33.75 -22.5 33.75 -22.3 33.75 -22.1 33.7 -21.45 33.7 -20.75 33.75 -20.1 33.85 -19.4 33.9 -18.8 34.05 -18.1 34.15 -17.5 34.35 -16.8 34.45 -16.3 34.7 -15.5 34.95 -14.45 35.0 -14.2 35.2 -13.5 35.35 -12.95 35.5 -12.25 35.6 -11.65 35.75 -10.7 35.9 -9.7 36.05 -8.75 36.15 -7.8 36.25 -6.85 36.35 -5.85 36.45 -4.9 36.5 -3.9 36.55 -2.95 36.6 -1.95 36.65 -1.0 36.7 0.0 36.75 0.95 36.75 1.95 36.75 2.9 36.75 3.9 36.75 4.75 36.75 7.2 33.65 8.05 27.95 9.6 27.95 9.4 28.0 9.1 28.0 9.0 28.05 8.6 28.1 8.3 28.1 8.1 28.15 7.85 28.15 7.6 28.15 7.35 28.15 7.1 28.15 6.85 28.1 6.6 28.05 6.35 27.95 6.1 27.85 5.8 27.7 5.55 27.55 6.0 27.4 6.45 27.25 6.9 27.05 7.3 26.85 7.75 26.65 8.1 26.45 8.5 26.2 8.9 25.95 9.25 25.7 9.6 25.4 9.9 25.1 10.25 24.8 10.55 24.45 10.8 24.15 11.1 23.75 11.35 23.1 11.8 22.0 12.35 20.25 13.25 20.2 13.3 19.9 13.45 17.25 15.0 17.55 11.6 18.2 5.0 18.1 5.0 17.9 4.95 17.8 5.35 17.65 5.9 17.6 6.15 17.45 6.8 17.35 7.4 17.25 7.75 17.15 8.25 17.05 8.7 16.9 9.15 16.75 9.55 16.55 10.05 16.3 10.4 16.1 10.85 15.8 11.2 15.45 11.6 15.1 11.95 14.25 11.0 12.6 9.1 11.0 7.25 10.2 6.3 L10.2 6.3 M6.55 40.0 Q6.55 40.0 6.35 40.25 5.45 39.5 4.0 38.35 6.3 35.55 6.55 35.15 6.8 34.75 7.05 34.35 7.3 33.9 7.55 33.5 7.75 33.1 8.0 32.65 8.25 32.25 8.5 31.85 8.7 31.4 8.95 31.0 9.2 30.55 9.4 30.15 9.65 29.7 9.9 29.3 10.1 28.85 10.3 28.45 10.45 28.15 10.6 27.8 10.75 27.5 10.9 27.15 10.9 27.1 11.2 26.5 11.35 26.1 11.45 25.8 11.6 25.45 11.75 25.2 11.95 24.85 12.1 24.55 12.3 24.25 12.5 23.95 12.75 23.65 12.95 23.4 13.15 23.2 13.8 22.5 14.8 24.3 15.1 24.95 15.1 25.0 15.1 25.0 15.15 25.05 15.15 25.1 15.15 25.15 15.15 25.2 15.15 25.25 15.15 25.3 15.15 25.35 15.15 25.35 15.15 25.4 15.1 25.45 15.1 25.5 15.1 25.55 15.05 25.6 15.05 25.6 12.4 30.15 6.55 40.0 L6.55 40.0 M11.55 44.25 Q10.9 42.1 10.4 40.2 10.4 40.15 10.4 40.15 10.4 40.1 10.35 40.05 10.35 40.0 10.35 40.0 10.35 39.95 10.35 39.9 10.4 39.85 10.4 39.85 10.4 39.8 10.4 39.75 10.4 39.75 10.4 39.7 10.45 39.65 10.45 39.65 10.9 38.75 12.45 35.9 12.8 36.25 13.05 36.7 13.3 37.05 13.55 37.5 13.75 37.9 13.9 38.35 14.05 38.75 14.2 39.25 14.35 39.6 14.5 40.15 13.85 37.9 14.75 41.05 14.9 41.6 15.0 41.95 15.15 42.45 15.3 42.85 14.05 43.3 11.55 44.25 L11.55 44.25 M43.95 29.55 Q43.9 29.7 43.8 29.8 43.75 29.9 43.7 30.0 43.6 30.1 43.5 30.2 43.45 30.3 43.35 30.4 43.25 30.45 43.15 30.55 43.05 30.6 42.9 30.7 42.8 30.75 42.65 30.8 42.5 30.85 42.35 30.9 41.75 31.05 41.2 31.25 40.6 31.45 40.05 31.65 39.5 31.85 38.95 32.1 38.4 32.35 37.9 32.6 37.35 32.9 36.8 33.2 36.3 33.5 35.8 33.8 35.3 34.15 34.8 34.5 34.3 34.9 33.85 35.25 33.55 35.5 31.2 37.5 29.6 38.9 28.55 39.8 28.25 40.1 27.9 40.35 27.6 40.65 27.25 40.9 26.9 41.15 26.55 41.35 26.2 41.6 25.85 41.8 25.45 42.0 25.1 42.2 24.7 42.4 24.35 42.55 23.95 42.7 23.55 42.85 23.15 43.0 22.75 43.15 22.25 43.3 21.85 43.4 21.35 43.5 21.0 43.5 20.55 43.5 20.2 43.45 19.85 43.35 19.5 43.2 19.2 43.0 18.95 42.7 18.65 42.4 18.45 42.0 18.2 41.55 18.05 41.0 17.9 40.45 17.75 39.7 18.4 39.85 19.05 39.95 19.7 40.05 20.25 40.1 20.85 40.1 21.4 40.1 21.95 40.1 22.5 40.0 23.0 39.95 23.5 39.8 23.95 39.65 24.4 39.5 24.85 39.3 25.25 39.05 25.65 38.8 26.0 38.5 25.8 38.55 25.55 38.55 25.35 38.6 25.1 38.65 25.3 38.6 24.7 38.7 24.45 38.75 24.25 38.8 24.05 38.85 23.85 38.85 23.65 38.9 23.45 38.9 23.2 38.95 23.0 38.95 22.8 38.95 22.6 38.95 21.95 38.95 21.55 38.95 21.0 38.95 20.6 38.9 20.15 38.9 19.75 38.8 19.35 38.7 19.0 38.55 18.6 38.4 18.3 38.2 17.95 37.95 17.65 37.6 17.3 37.3 17.05 36.85 16.7 36.35 16.45 35.8 16.4 35.7 14.5 32.25 14.65 32.0 16.25 29.55 17.4 27.9 18.15 26.8 18.25 26.65 18.3 26.55 18.4 26.4 18.45 26.25 18.5 26.15 18.55 26.0 18.6 25.9 18.6 25.75 18.65 25.6 18.65 25.5 18.65 25.35 18.6 25.2 18.6 25.05 18.55 24.9 18.45 24.75 18.4 24.6 17.5 22.95 16.25 20.25 16.25 20.2 16.2 20.15 16.2 20.1 16.2 20.0 16.2 19.95 16.2 19.85 16.2 19.8 16.2 19.7 16.2 19.65 16.25 19.6 16.25 19.5 16.25 19.45 16.3 19.4 16.3 19.35 16.35 19.3 16.35 19.3 15.65 19.7 17.85 18.4 18.7 17.85 19.3 17.5 20.1 17.0 20.8 16.6 21.6 16.15 22.3 15.75 23.1 15.3 23.8 14.9 24.6 14.5 25.4 14.15 26.2 13.8 26.95 13.45 27.8 13.15 28.6 12.85 29.45 12.55 29.8 12.45 30.45 12.2 30.95 12.05 31.6 11.85 32.15 11.7 32.8 11.5 33.35 11.35 34.0 11.15 34.55 11.0 35.2 10.85 35.8 10.75 36.4 10.65 37.05 10.55 37.65 10.5 38.3 10.45 38.5 10.45 38.7 10.4 38.9 10.35 39.05 10.25 39.2 10.2 39.35 10.1 39.45 10.0 39.55 9.9 39.65 9.75 39.75 9.6 39.8 9.45 39.85 9.25 39.9 9.1 39.95 8.85 39.95 8.65 39.95 8.45 39.95 5.3 39.95 -0.95 40.0 -0.95 40.05 -0.95 41.45 7.5 41.45 7.65 41.6 8.6 41.7 9.5 41.85 10.45 42.0 11.35 42.15 12.3 42.3 13.2 42.45 14.15 42.65 15.05 42.8 16.0 43.0 16.85 43.25 17.8 43.45 18.7 43.7 19.6 43.95 20.5 44.2 21.4 44.5 22.3 44.65 22.75 44.75 23.2 44.85 23.7 44.9 24.15 44.95 24.6 45.0 25.05 45.0 25.5 44.95 25.95 44.9 26.4 44.85 26.85 44.75 27.3 44.65 27.75 44.5 28.2 44.35 28.65 44.15 29.1 43.95 29.55 L43.95 29.55" fill="#000000" fill-rule="evenodd" stroke="none"/>
  </g>
</svg>
