<?xml version="1.0" encoding="UTF-8" standalone="no"?>
<svg xmlns:xlink="http://www.w3.org/1999/xlink" height="68.3px" width="90.35px" xmlns="http://www.w3.org/2000/svg">
  <g transform="matrix(1.0, 0.0, 0.0, 1.0, 45.15, 34.15)">
    <path d="M-28.85 -18.95 Q-28.75 -19.1 -28.6 -19.25 -28.5 -19.35 -28.35 -19.5 -28.2 -19.65 -28.05 -19.8 -27.9 -19.9 -27.75 -20.05 -27.6 -20.15 -27.45 -20.3 -27.3 -20.4 -27.15 -20.5 -27.05 -20.6 -26.9 -20.7 -26.85 -20.75 -26.7 -20.85 -26.5 -21.0 -26.3 -21.15 -26.15 -21.25 -25.95 -21.4 -25.75 -21.5 -25.6 -21.6 -25.45 -21.7 -25.25 -21.8 -25.1 -21.9 -24.95 -22.0 -24.85 -22.05 -24.7 -22.15 -24.6 -22.2 -24.5 -22.25 -24.4 -22.3 -24.3 -22.35 -24.05 -22.45 -23.9 -22.55 -23.7 -22.65 -23.55 -22.7 -23.4 -22.75 -23.25 -22.8 -23.15 -22.85 -23.0 -22.9 -22.8 -22.95 -22.8 -23.0 -22.65 -23.05 -22.5 -23.1 -22.35 -23.15 -22.2 -23.2 -22.0 -23.3 -21.8 -23.4 -21.45 -23.55 -21.1 -23.75 -20.85 -23.9 -20.6 -24.05 -20.4 -24.2 -20.15 -24.35 -20.85 -23.9 -19.85 -24.6 -19.65 -24.7 -19.55 -24.8 -19.4 -24.9 -19.25 -24.95 -19.1 -25.0 -18.95 -25.05 -18.8 -25.1 -18.55 -25.1 -18.4 -25.1 -18.25 -25.1 -18.15 -25.1 -18.05 -25.05 -17.95 -25.05 -17.8 -25.0 -17.8 -25.0 -17.6 -24.95 -17.45 -24.9 -17.35 -24.9 -17.2 -24.85 -17.05 -24.85 -16.9 -24.8 -16.7 -24.8 -16.5 -24.8 -16.3 -24.8 -16.15 -24.8 -16.0 -24.8 -15.9 -24.8 -15.75 -24.8 -15.65 -24.8 -15.5 -24.85 -15.4 -24.85 -15.25 -24.85 -15.15 -24.85 -15.05 -24.9 -14.95 -24.9 -14.85 -24.95 -14.75 -24.95 -14.7 -24.95 -14.6 -25.0 -14.5 -25.0 -14.4 -25.05 -14.3 -25.1 -14.2 -25.15 -14.1 -25.2 -14.0 -25.25 -13.9 -25.3 -13.75 -25.4 -13.65 -25.45 -13.5 -25.5 -13.4 -25.6 -13.25 -25.7 -13.1 -25.75 -12.95 -25.85 -12.8 -25.95 -12.65 -26.05 -12.5 -26.15 -12.3 -26.3 -12.15 -26.4 -12.0 -26.55 -11.85 -26.7 -11.7 -26.8 -11.55 -26.95 -11.4 -27.05 -11.25 -27.2 -11.15 -27.3 -11.0 -27.45 -10.8 -27.65 -10.7 -27.75 -10.5 -27.9 -10.35 -28.05 -10.2 -28.2 -10.0 -28.4 -9.85 -28.5 -9.8 -28.6 -9.65 -28.7 -9.55 -28.8 -9.4 -28.9 -9.3 -29.0 -9.15 -29.1 -9.0 -29.25 -8.8 -29.35 -8.65 -29.5 -8.5 -29.6 -8.3 -29.75 -8.15 -29.9 -7.95 -30.0 -7.75 -30.15 -7.55 -30.3 -7.1 -30.3 -6.7 -30.3 -6.3 -30.35 -5.9 -30.4 -5.5 -30.4 -5.15 -30.5 -4.8 -30.55 -4.5 -30.6 -4.15 -30.65 -3.85 -30.75 -3.6 -30.85 -3.3 -30.9 -3.05 -31.0 -2.8 -31.1 -2.55 -31.2 -2.35 -31.3 -2.25 -31.35 -2.0 -31.45 -1.8 -31.55 -1.65 -31.6 -1.4 -31.7 -1.25 -31.75 -1.0 -31.85 -0.8 -31.9 -0.6 -31.95 -0.4 -32.0 -0.15 -32.05 0.05 -32.05 0.25 -32.0 0.4 -32.0 0.6 -31.95 0.75 -31.85 0.8 -31.8 0.85 -31.75 0.95 -31.7 1.0 -31.6 1.05 -31.55 1.05 -31.5 1.1 -31.45 1.15 -31.4 1.15 -31.35 1.2 -31.3 1.2 -31.25 1.25 -31.2 1.25 -31.2 1.25 -31.15 1.25 -31.15 1.25 -31.15 1.3 -31.1 1.3 -31.0 1.3 -30.9 1.35 -30.85 1.35 -30.75 1.35 -30.7 1.35 -30.65 1.35 -30.55 1.35 -30.5 1.35 -30.4 1.35 -30.35 1.35 -30.3 1.3 -30.25 1.3 -30.15 1.3 -30.1 1.25 -30.05 1.2 -29.95 1.15 -29.85 1.1 -29.8 1.05 -29.7 0.95 -29.65 0.85 -29.55 0.75 -29.5 0.65 -29.45 0.55 -29.4 0.4 -29.3 0.3 -29.25 0.15 -29.2 0.0 -29.15 -0.15 -29.1 -0.3 -29.05 -0.5 -29.0 -0.85 -28.9 -1.2 -28.8 -1.5 -28.7 -1.75 -28.6 -2.0 -28.55 -2.25 -28.5 -2.35 -28.45 -2.6 -28.4 -2.85 -28.35 -2.95 -28.3 -3.1 -28.3 -3.25 -28.25 -3.4 -28.2 -3.6 -28.15 -3.75 -28.05 -3.95 -28.0 -4.15 -27.9 -4.25 -27.9 -4.4 -27.8 -4.55 -27.75 -4.7 -27.7 -4.85 -27.6 -5.0 -27.55 -5.15 -27.45 -5.3 -27.35 -5.4 -27.25 -5.55 -27.15 -5.7 -27.05 -5.85 -26.95 -5.95 -26.8 -6.1 -26.7 -6.25 -26.55 -6.35 -26.4 -6.45 -26.3 -6.55 -26.15 -6.65 -26.0 -6.7 -25.9 -6.8 -25.75 -6.85 -25.65 -6.9 -25.5 -7.0 -25.4 -7.05 -25.25 -7.05 -25.15 -7.1 -25.05 -7.15 -24.9 -7.2 -24.8 -7.2 -24.7 -7.25 -24.65 -7.1 -24.7 -6.95 -24.75 -6.75 -24.75 -6.6 -24.8 -6.4 -24.85 -6.25 -24.9 -6.05 -24.9 -5.85 -24.95 -5.65 -25.0 -5.45 -25.0 -5.2 -25.05 -5.0 -25.1 -4.75 -25.1 -4.5 -25.15 -4.25 -25.15 -4.0 -25.15 -3.95 -25.15 -3.85 -25.15 -3.8 -25.15 -3.75 -25.15 -3.65 -25.15 -3.6 -25.2 -3.5 -25.2 -3.45 -25.2 -3.35 -25.2 -3.25 -25.2 -3.2 -25.2 -3.1 -25.2 -3.0 -25.2 -2.9 -25.15 -2.8 -25.15 -2.7 -25.15 -2.4 -25.15 -2.1 -25.1 -1.85 -25.05 -1.55 -25.0 -1.3 -24.9 -1.05 -24.85 -0.8 -24.75 -0.55 -24.65 -0.35 -24.6 -0.1 -24.5 0.1 -24.4 0.35 -24.25 2.65 -23.2 0.8 -24.05 1.05 -23.95 1.25 -23.85 1.45 -23.8 1.6 -23.7 1.8 -23.65 2.0 -23.55 2.2 -23.5 2.4 -23.4 2.65 -23.35 2.9 -23.25 3.15 -23.2 3.4 -23.1 3.65 -23.05 3.9 -22.95 4.2 -22.9 4.5 -22.85 4.8 -22.75 5.1 -22.7 5.1 -22.65 5.1 -22.6 5.1 -22.55 5.1 -22.5 5.05 -22.45 5.05 -22.4 5.05 -22.35 5.05 -22.3 5.0 -22.25 5.0 -22.2 4.95 -22.15 4.95 -22.1 4.9 -22.05 4.85 -22.0 4.85 -21.9 4.8 -21.85 4.75 -21.8 4.65 -21.7 4.6 -21.65 4.5 -21.6 4.4 -21.55 4.35 -21.5 4.25 -21.5 4.15 -21.45 4.05 -21.4 3.9 -21.4 3.8 -21.35 3.7 -21.35 3.55 -21.35 3.45 -21.35 3.3 -21.35 3.2 -21.35 2.85 -21.35 2.45 -21.35 2.1 -21.4 1.7 -21.45 1.3 -21.5 0.9 -21.6 0.55 -21.65 0.15 -21.75 -0.2 -21.8 -0.55 -21.9 -0.85 -22.0 -1.15 -22.05 -1.4 -22.15 -1.65 -22.2 -1.85 -22.25 -2.05 -22.35 -2.6 -22.15 -3.7 -21.8 -3.7 -21.75 -3.7 -21.7 -3.7 -21.65 -3.7 -21.6 -3.7 -21.5 -3.7 -21.45 -3.75 -21.4 -3.75 -21.3 -3.75 -21.25 -3.75 -21.15 -3.8 -21.05 -3.8 -21.0 -3.85 -20.9 -3.85 -20.8 -3.9 -20.75 -3.95 -20.65 -4.0 -20.55 -4.05 -20.45 -4.1 -20.35 -4.2 -20.25 -4.25 -20.15 -4.3 -20.05 -4.35 -20.0 -4.45 -19.95 -4.5 -19.85 -4.55 -19.8 -4.6 -19.75 -4.65 -19.7 -4.7 -19.65 -4.8 -19.65 -4.8 -19.6 -4.85 -19.55 -4.8 -19.5 -4.7 -19.45 -4.65 -19.35 -4.55 -19.3 -4.5 -19.2 -4.4 -19.15 -4.3 -19.1 -4.25 -19.0 -4.15 -18.9 -4.05 -18.85 -3.9 -18.75 -3.8 -18.7 -3.7 -18.6 -3.6 -18.5 -3.45 -18.45 -3.35 -18.35 -3.0 -18.1 -2.6 -17.9 -2.25 -17.7 -1.9 -17.55 -1.6 -17.45 -1.25 -17.25 -0.6 -17.0 -0.65 -17.0 -0.3 -16.9 -0.05 -16.75 0.25 -16.6 0.5 -16.45 0.75 -16.3 1.0 -16.1 1.25 -15.85 1.5 -15.6 1.45 -15.65 1.6 -15.5 1.65 -15.4 1.7 -15.35 1.8 -15.25 1.85 -15.15 1.9 -15.05 1.95 -14.95 2.0 -14.85 2.05 -14.75 2.1 -14.65 2.15 -14.55 2.15 -14.45 2.15 -14.35 2.15 -14.3 2.1 -14.2 2.1 -14.15 2.05 -14.15 2.05 -14.1 2.0 -14.1 1.95 -14.05 1.85 -14.0 1.8 -14.0 1.7 -14.0 1.6 -13.95 1.45 -13.95 1.3 -13.95 1.15 -13.95 0.95 -13.95 0.75 -14.0 0.55 -14.0 0.25 -14.05 -0.05 -14.1 -0.3 -14.15 -0.55 -14.2 -0.8 -14.3 -1.05 -14.35 -1.3 -14.4 -1.5 -14.5 -1.75 -14.55 -1.95 -14.65 -2.2 -14.75 -2.4 -14.8 -2.65 -14.9 -2.8 -15.0 -3.05 -15.1 -3.2 -15.15 -3.5 -15.3 -4.25 -15.65 -4.3 -15.65 -4.75 -15.85 -5.05 -15.95 -5.4 -16.1 -5.7 -16.25 -6.05 -16.35 -6.35 -16.45 -6.65 -16.55 -6.95 -16.65 -7.25 -16.7 -7.5 -16.75 -7.8 -16.8 -8.1 -16.8 -8.4 -16.85 -8.7 -16.8 -8.8 -16.8 -8.9 -16.8 -9.0 -16.8 -9.1 -16.75 -9.2 -16.75 -9.25 -16.75 -9.35 -16.7 -9.4 -16.7 -9.5 -16.7 -9.55 -16.65 -9.6 -16.6 -9.65 -16.6 -9.7 -16.55 -9.7 -16.5 -9.75 -16.45 -9.75 -16.45 -9.8 -16.35 -9.75 -16.25 -9.75 -16.2 -9.7 -16.1 -9.7 -16.0 -9.6 -15.9 -9.55 -15.8 -9.45 -15.7 -9.35 -15.6 -9.25 -15.5 -9.2 -15.4 -9.05 -15.3 -9.0 -15.2 -8.85 -15.15 -8.8 -15.05 -8.7 -14.95 -8.15 -14.5 -6.6 -13.75 -4.3 -12.55 -3.7 -12.05 -3.6 -11.95 -3.55 -11.9 -3.45 -11.85 -3.4 -11.75 -3.3 -11.65 -3.2 -11.6 -3.15 -11.5 -3.05 -11.4 -2.95 -11.3 -2.9 -11.2 -2.85 -11.1 -2.8 -11.0 -2.75 -10.9 -2.75 -10.8 -2.75 -10.7 -2.8 -10.6 -2.8 -10.55 -2.85 -10.5 -2.9 -10.45 -2.95 -10.4 -3.0 -10.35 -3.05 -10.3 -3.1 -10.3 -3.2 -10.25 -3.25 -10.25 -3.3 -10.2 -3.35 -10.2 -3.45 -10.2 -3.5 -10.2 -3.55 -10.15 -3.6 -10.15 -3.65 -10.15 -3.85 -10.1 -4.1 -10.1 -4.3 -10.1 -4.5 -10.15 -4.75 -10.2 -4.95 -10.25 -5.2 -10.35 -5.45 -10.45 -5.7 -10.55 -6.0 -10.7 -6.25 -10.8 -6.6 -11.0 -6.85 -11.15 -7.3 -11.4 -8.05 -11.8 -8.1 -11.85 -8.5 -12.1 -8.85 -12.25 -9.15 -12.45 -9.4 -12.55 -9.7 -12.7 -9.9 -12.8 -10.15 -12.9 -10.3 -13.0 -10.5 -13.1 -10.65 -13.15 -10.8 -13.2 -10.95 -13.25 -11.05 -13.3 -11.2 -13.3 -11.3 -13.35 -11.45 -13.35 -11.6 -13.4 -11.7 -13.4 -11.85 -13.4 -12.0 -13.45 -12.1 -13.45 -12.25 -13.45 -12.4 -13.45 -12.55 -13.45 -12.65 -13.45 -12.8 -13.45 -12.95 -13.45 -13.15 -13.4 -13.3 -13.4 -13.5 -13.4 -13.65 -13.4 -13.9 -13.35 -14.35 -13.3 -14.75 -13.25 -15.1 -13.25 -15.45 -13.2 -15.75 -13.15 -16.05 -13.05 -16.25 -13.05 -16.6 -12.95 -17.0 -12.9 -17.15 -12.85 -17.45 -12.8 -17.7 -12.75 -18.05 -12.7 -18.35 -12.65 -18.65 -12.6 -19.05 -12.6 -19.15 -12.6 -19.3 -12.6 -19.4 -12.6 -19.55 -12.6 -19.7 -12.55 -19.85 -12.55 -20.0 -12.55 -20.15 -12.55 -20.35 -12.6 -20.5 -12.6 -20.7 -12.6 -20.9 -12.6 -21.1 -12.6 -21.3 -12.65 -21.5 -12.65 -21.7 -12.7 -20.95 -8.95 -20.5 -6.15 -20.25 -4.7 -20.1 -3.45 -20.0 -2.45 -19.85 -1.3 -19.9 -1.4 -19.7 0.65 -19.6 1.8 -19.45 2.75 -19.3 4.05 -19.1 5.5 -18.25 11.5 -17.35 15.35 -17.2 15.95 -17.2 15.95 -17.1 16.4 -17.05 16.75 -16.95 17.25 -16.85 17.7 -16.75 18.2 -16.65 18.75 -16.55 19.35 -16.45 19.9 -16.4 20.55 -16.3 21.2 -16.25 21.9 -16.2 22.6 -16.15 23.35 -16.1 24.1 -16.1 24.4 -16.1 24.6 -16.1 24.85 -16.1 25.1 -16.1 25.35 -16.15 25.6 -16.15 25.85 -16.2 26.1 -16.2 26.4 -16.25 26.65 -16.3 26.9 -16.35 27.2 -16.45 27.45 -16.55 27.75 -16.6 28.05 -16.75 28.3 -16.85 28.6 -17.0 28.9 -17.15 29.2 -17.3 29.45 -17.45 29.7 -17.6 29.95 -17.8 30.2 -17.95 30.4 -18.1 30.65 -18.3 30.85 -18.45 31.05 -18.6 31.25 -18.75 31.4 -18.95 31.6 -19.05 31.7 -19.25 31.9 -19.4 32.05 -19.55 32.2 -19.75 32.35 -19.9 32.55 -20.1 32.7 -20.3 32.9 -20.5 33.05 -20.7 33.25 -20.95 33.4 -21.2 33.6 -21.45 33.8 -21.7 33.95 -22.0 34.15 -22.25 34.3 -22.55 34.5 -22.85 34.65 -23.0 34.6 -23.15 34.55 -23.35 34.5 -23.5 34.45 -23.7 34.35 -23.85 34.3 -24.05 34.2 -24.25 34.1 -24.45 34.05 -24.65 33.95 -24.85 33.85 -25.05 33.7 -25.3 33.6 -25.5 33.5 -25.7 33.35 -25.95 33.2 -26.1 33.1 -26.25 33.0 -26.5 32.85 -26.7 32.7 -26.95 32.5 -27.2 32.25 -27.55 32.0 -27.8 31.75 -28.15 31.45 -28.45 31.1 -28.8 30.75 -29.15 30.35 -29.5 29.9 -29.8 29.45 -30.15 28.95 -30.45 28.45 -30.7 28.0 -30.95 27.55 -31.15 27.1 -31.35 26.65 -31.5 26.25 -31.65 25.8 -31.8 25.45 -31.9 25.05 -32.0 24.65 -32.05 24.3 -32.15 24.0 -32.2 23.65 -32.25 23.35 -32.3 23.05 -32.3 22.85 -32.35 22.55 -32.4 22.2 -32.45 21.85 -32.45 21.5 -32.5 21.15 -32.5 20.85 -32.5 20.55 -32.5 20.25 -32.5 19.95 -32.5 19.7 -32.45 19.4 -32.45 19.2 -32.45 18.95 -32.4 18.75 -32.4 18.5 -32.4 18.35 -32.35 18.1 -32.3 17.6 -32.2 17.1 -32.15 16.7 -32.05 16.3 -32.0 15.95 -31.9 15.55 -31.85 15.3 -31.7 14.85 -31.55 14.35 -31.5 14.15 -31.4 13.75 -31.35 13.4 -31.25 12.95 -31.15 12.5 -31.05 12.0 -31.0 11.45 -30.85 10.4 -30.75 7.45 -30.7 5.7 -30.6 4.3 -30.55 3.4 -30.4 2.2 -30.25 0.8 -30.2 0.2 -30.1 -1.0 -30.05 -2.5 -29.7 -12.0 -29.85 -13.75 -29.9 -14.45 -29.9 -14.3 -29.9 -14.6 -29.9 -14.9 -29.9 -15.2 -29.9 -15.55 -29.9 -15.9 -29.85 -16.2 -29.85 -16.6 -29.75 -16.9 -29.7 -17.3 -29.55 -17.6 -29.45 -18.0 -29.25 -18.3 -29.1 -18.65 -28.85 -18.95 L-28.85 -18.95" fill="#b5eafe" fill-rule="evenodd" stroke="none"/>
  </g>
</svg>
