<?xml version="1.0" encoding="UTF-8" standalone="no"?>
<svg xmlns:xlink="http://www.w3.org/1999/xlink" height="200.0px" width="200.0px" xmlns="http://www.w3.org/2000/svg">
  <g transform="matrix(1.0, 0.0, 0.0, 1.0, 100.0, 100.0)">
    <path d="M-44.15 -3.45 Q-44.05 -3.25 -43.95 -3.1 -43.85 -2.9 -43.7 -2.7 -43.6 -2.45 -43.45 -2.25 -43.3 -2.05 -43.15 -1.8 -43.0 -1.6 -42.85 -1.35 -42.65 -1.1 -42.45 -0.85 -42.25 -0.6 -42.05 -0.4 -41.85 -0.1 -41.65 0.1 -41.4 0.4 -41.25 0.55 -41.05 0.8 -40.9 1.0 -40.65 1.2 -40.5 1.4 -40.3 1.6 -40.1 1.75 -39.9 1.95 -39.7 2.1 -39.45 2.3 -39.25 2.45 -39.0 2.6 -38.75 2.75 -38.5 2.9 -38.25 3.05 -37.9 3.2 -37.8 3.25 -37.55 3.35 -37.3 3.45 -37.05 3.55 -36.8 3.65 -36.5 3.75 -36.2 3.8 -35.9 3.9 -35.6 3.9 -35.25 3.95 -35.0 3.9 -34.65 3.9 -34.35 3.8 -34.05 3.7 -33.8 3.55 -33.5 3.4 -33.25 3.15 -33.05 2.95 -32.85 2.7 -32.7 2.45 -32.55 2.2 -32.45 1.95 -32.35 1.65 -32.25 1.4 -32.2 1.15 -32.15 0.95 -32.1 0.75 -32.1 0.55 -32.05 0.4 -32.05 0.3 -32.05 0.2 -32.0 -0.2 -32.05 -0.6 -32.1 -0.95 -32.2 -1.3 -32.25 -1.65 -32.4 -1.95 -32.5 -2.25 -32.65 -2.55 -32.75 -2.8 -32.9 -3.05 -33.05 -3.3 -33.2 -3.5 -33.3 -3.65 -33.45 -3.85 -33.5 -3.9 -33.65 -4.05 -33.85 -4.3 -34.1 -4.55 -34.25 -4.7 -34.5 -4.9 -34.65 -5.0 -34.85 -5.15 -34.95 -5.2 -35.25 -5.4 -35.45 -5.55 -35.6 -5.65 -35.8 -5.8 -36.0 -5.95 -36.2 -6.1 -36.4 -6.35 -36.6 -6.55 -36.85 -6.85 -37.0 -7.05 -37.15 -7.3 -37.25 -7.5 -37.4 -7.7 -37.45 -7.8 -37.55 -8.0 -37.7 -8.25 -37.7 -8.3 -37.8 -8.45 -37.85 -8.55 -37.95 -8.7 -38.05 -8.75 -38.1 -8.85 -38.25 -8.95 -38.35 -9.0 -38.5 -9.05 -38.75 -9.15 -39.0 -9.15 -39.2 -9.2 -39.5 -9.15 -39.7 -9.1 -40.0 -9.05 -40.2 -8.95 -40.45 -8.85 -40.65 -8.75 -40.9 -8.6 -41.05 -8.5 -41.25 -8.35 -41.4 -8.25 -41.55 -8.15 -41.65 -8.1 -41.75 -8.0 -42.1 -7.75 -42.4 -7.4 -42.65 -7.1 -42.9 -6.8 -43.1 -6.5 -43.3 -6.15 -43.45 -5.85 -43.6 -5.5 -43.75 -5.2 -43.85 -4.9 -43.9 -4.6 -44.0 -4.3 -44.05 -4.1 -44.1 -3.85 -44.1 -3.65 -44.15 -3.45 L-44.15 -3.45" fill="#fcdef4" fill-rule="evenodd" stroke="none"/>
    <path d="M-18.5 33.3 Q-18.4 33.7 -18.3 34.1 -18.2 34.45 -18.1 34.85 -18.0 35.2 -17.85 35.55 -17.75 35.85 -17.65 36.2 -17.55 36.5 -17.45 36.8 -17.35 37.05 -17.25 37.35 -17.15 37.6 -17.05 37.85 -16.95 38.1 -16.9 38.3 -16.7 38.85 -16.4 39.45 -16.3 39.75 -16.0 40.45 -15.7 41.0 -15.6 41.3 -15.4 41.75 -15.3 42.05 -15.15 42.45 -15.05 42.8 -15.0 43.15 -14.95 43.45 -14.9 43.8 -14.95 44.1 -15.0 44.4 -15.1 44.75 -15.1 44.8 -15.15 44.9 -15.2 45.0 -15.25 45.1 -15.3 45.25 -15.35 45.35 -15.45 45.5 -15.5 45.65 -15.6 45.8 -15.75 45.95 -15.85 46.15 -16.0 46.25 -16.15 46.45 -16.35 46.55 -16.5 46.7 -16.75 46.8 -17.05 46.95 -17.35 47.0 -17.65 47.1 -17.95 47.1 -18.25 47.1 -18.5 47.1 -18.8 47.05 -19.05 46.95 -19.3 46.9 -19.55 46.85 -19.75 46.75 -19.9 46.65 -20.05 46.6 -20.2 46.55 -20.3 46.5 -20.35 46.45 -20.5 46.35 -20.6 46.3 -20.75 46.2 -20.85 46.1 -20.95 46.0 -21.05 45.9 -21.15 45.8 -21.25 45.65 -21.35 45.55 -21.45 45.4 -29.85 35.2 -21.75 45.1 -21.9 44.85 -22.05 44.7 -22.25 44.45 -22.45 44.25 -22.7 43.95 -22.95 43.7 -23.1 43.5 -23.3 43.35 -23.45 43.2 -23.6 43.05 -23.7 42.95 -23.85 42.8 -24.05 42.65 -24.05 42.65 -24.15 42.55 -24.25 42.45 -24.35 42.35 -24.45 42.25 -24.55 42.15 -24.65 42.0 -24.85 41.75 -24.95 41.6 -25.1 41.4 -25.2 41.2 -25.35 41.0 -25.5 40.75 -25.65 40.55 -25.75 40.3 -25.85 40.05 -25.95 39.8 -26.05 39.55 -26.1 39.3 -26.15 39.05 -26.15 38.8 -26.15 38.55 -26.05 38.3 -26.05 38.2 -26.0 38.1 -25.95 38.0 -25.9 37.85 -25.8 37.75 -25.65 37.6 -25.55 37.45 -25.35 37.3 -25.15 37.15 -24.9 36.95 -24.6 36.7 -24.25 36.5 -23.85 36.25 -23.4 35.95 -22.9 35.65 -22.3 35.3 -22.0 35.15 -21.75 35.0 -21.45 34.85 -21.2 34.7 -20.95 34.55 -20.7 34.4 -20.45 34.3 -20.2 34.15 -19.95 34.05 -19.75 33.9 -19.5 33.8 -19.3 33.7 -19.1 33.6 -18.9 33.5 -18.7 33.4 -18.5 33.3 L-18.5 33.3" fill="#fcdef4" fill-rule="evenodd" stroke="none"/>
  </g>
</svg>
