<?xml version="1.0" encoding="UTF-8" standalone="no"?>
<svg xmlns:xlink="http://www.w3.org/1999/xlink" height="139.65px" width="78.75px" xmlns="http://www.w3.org/2000/svg">
  <g transform="matrix(1.0, 0.0, 0.0, 1.0, 39.4, 69.85)">
    <path d="M26.95 -15.1 Q24.95 -15.4 23.0 -15.6 21.15 -15.75 19.3 -15.8 17.55 -15.85 15.85 -15.75 14.25 -15.7 12.7 -15.55 11.25 -15.35 9.85 -15.1 8.55 -14.85 7.4 -14.55 6.3 -14.25 5.35 -13.85 4.4 -13.5 3.65 -13.05 3.2 -12.8 2.7 -12.45 2.25 -12.2 1.8 -11.85 1.4 -11.55 0.95 -11.25 0.6 -10.95 0.25 -10.65 -0.1 -10.4 -0.4 -10.15 -0.6 -9.95 -0.85 -9.75 -1.0 -9.6 -1.15 -9.5 -1.2 -9.45 -1.25 -9.4 -1.75 -8.9 -1.95 -8.75 -2.3 -8.4 -2.55 -8.15 -2.85 -7.85 -3.1 -7.6 -3.35 -7.3 -3.55 -7.1 -3.75 -6.85 -3.9 -6.6 -4.1 -6.35 -4.25 -6.1 -4.4 -5.85 -4.5 -5.6 -4.6 -5.35 -4.7 -5.1 -4.85 -4.65 -4.9 -4.25 -5.0 -3.8 -4.95 -3.35 -4.95 -2.9 -4.9 -2.4 -4.8 -1.95 -4.7 -1.4 -4.55 -0.9 -4.35 -0.3 -4.15 0.25 -3.9 0.95 -3.65 1.5 -3.35 2.3 -3.1 2.85 -2.65 3.9 -2.3 4.7 -2.15 5.1 -1.9 5.7 -1.7 6.15 -1.45 6.65 -1.25 7.1 -1.05 7.5 -0.85 7.9 -0.65 8.25 -0.5 8.6 -0.3 8.9 -0.1 9.2 0.15 9.5 0.35 9.75 0.55 10.0 0.8 10.2 1.25 10.6 1.7 10.95 2.15 11.25 2.65 11.55 3.15 11.8 3.7 12.0 4.2 12.2 4.8 12.35 5.35 12.45 6.0 12.6 6.6 12.7 7.3 12.8 7.9 12.85 8.7 12.95 9.25 13.0 10.2 13.1 11.4 13.2 12.65 13.25 13.8 13.25 14.95 13.2 16.05 13.15 17.15 13.05 18.15 13.0 19.2 12.85 20.15 12.7 21.1 12.5 21.95 12.35 22.85 12.15 23.6 12.0 24.45 11.8 25.05 11.65 25.95 11.45 26.5 11.3 27.05 11.15 27.6 11.0 28.1 10.85 28.6 10.7 29.1 10.55 29.55 10.4 30.05 10.25 30.45 10.15 30.9 10.0 31.3 9.85 31.7 9.7 32.05 9.6 32.4 9.45 32.75 9.3 33.1 9.2 32.9 12.9 32.65 19.4 32.45 25.1 32.3 32.0 32.2 36.75 32.05 39.0 32.0 40.05 31.9 41.1 31.8 42.3 31.7 43.45 31.6 44.7 31.45 46.0 31.3 47.35 31.1 48.7 30.9 50.2 30.65 51.65 30.4 53.2 30.1 54.75 29.75 56.4 29.4 58.05 29.0 59.75 28.6 61.5 28.4 61.65 28.25 61.75 28.05 61.9 27.85 62.0 27.65 62.15 27.4 62.3 27.15 62.45 26.9 62.6 26.65 62.75 26.4 62.9 26.1 63.05 25.8 63.2 25.5 63.35 25.15 63.45 24.85 63.6 24.5 63.75 24.0 63.95 23.75 64.0 23.3 64.15 22.9 64.3 22.35 64.45 21.9 64.55 21.3 64.7 20.8 64.75 20.15 64.85 19.6 64.85 18.95 64.9 18.35 64.8 17.65 64.75 17.05 64.6 16.35 64.4 15.7 64.15 15.5 64.05 15.35 64.0 15.15 63.9 14.95 63.75 14.7 63.6 14.45 63.45 14.2 63.3 13.9 63.1 13.65 62.9 13.35 62.65 13.05 62.4 12.8 62.1 12.5 61.8 12.2 61.45 11.9 61.05 11.65 60.65 11.5 56.7 11.2 48.8 8.1 48.55 1.85 48.0 1.9 48.7 1.95 49.4 2.0 50.25 2.0 51.0 2.0 51.9 2.0 52.75 2.0 53.7 1.9 54.65 1.85 55.6 1.75 56.55 1.6 57.6 1.45 58.55 1.25 59.6 1.0 60.55 0.75 61.55 0.4 62.5 0.3 62.75 0.25 62.95 0.15 63.2 0.05 63.4 -0.05 63.65 -0.15 63.85 -0.25 64.1 -0.4 64.3 -0.5 64.5 -0.65 64.75 -0.8 64.95 -0.95 65.15 -1.1 65.35 -1.25 65.55 -1.45 65.8 -1.65 66.0 -2.1 66.45 -2.65 66.85 -3.1 67.2 -3.65 67.45 -4.15 67.75 -4.7 67.95 -5.2 68.1 -5.75 68.25 -6.25 68.35 -6.75 68.45 -7.2 68.5 -7.65 68.55 -8.0 68.6 -8.4 68.6 -8.65 68.65 -9.0 68.65 -9.45 68.65 -9.65 68.65 -10.1 68.65 -10.45 68.65 -10.95 68.6 -11.4 68.55 -11.95 68.5 -12.4 68.4 -12.95 68.3 -13.45 68.15 -14.05 68.0 -14.55 67.75 -15.1 67.5 -15.6 67.15 -16.1 66.8 -16.55 66.4 -16.8 66.15 -17.0 65.9 -17.25 65.65 -17.4 65.35 -17.6 65.1 -17.8 64.75 -17.95 64.4 -18.1 64.05 -18.25 63.65 -18.4 63.2 -18.55 62.75 -18.65 62.2 -18.8 61.65 -18.95 61.05 -19.05 60.4 -19.2 59.65 -19.3 59.05 -19.4 58.45 -19.55 57.8 -19.65 57.1 -19.75 56.4 -19.85 55.7 -19.95 54.95 -20.05 54.2 -20.15 53.4 -20.25 52.55 -20.35 51.7 -20.4 50.85 -20.5 49.95 -20.55 49.05 -20.6 48.15 -20.65 47.2 -20.85 47.3 -21.1 47.4 -21.4 47.55 -21.75 47.65 -22.2 47.8 -22.65 47.95 -23.15 48.05 -23.7 48.15 -24.3 48.3 -24.9 48.3 -25.6 48.4 -26.25 48.35 -27.0 48.3 -27.7 48.2 -28.45 48.05 -29.2 47.8 -29.85 47.6 -30.45 47.3 -31.0 47.05 -31.55 46.7 -32.05 46.4 -32.5 46.05 -32.9 45.7 -33.3 45.35 -33.6 45.0 -33.95 44.65 -34.2 44.35 -34.45 44.05 -34.65 43.8 -34.85 43.5 -35.0 43.35 -35.15 43.1 -35.45 42.7 -35.65 42.25 -35.9 41.85 -36.05 41.4 -36.25 40.9 -36.4 40.4 -36.55 39.85 -36.65 39.25 -36.75 38.6 -36.85 37.85 -36.95 37.1 -37.0 36.2 -37.05 35.3 -37.1 34.25 -37.15 33.2 -37.2 31.85 -37.2 30.75 -37.25 29.65 -37.25 28.6 -37.25 27.55 -37.25 26.55 -37.2 25.55 -37.2 24.55 -37.15 23.6 -37.15 22.65 -37.1 21.7 -37.05 20.75 -37.0 19.8 -36.95 18.85 -36.9 17.85 -36.85 16.95 -36.8 15.95 -36.65 13.95 -36.55 12.35 -36.4 10.8 -36.3 9.55 -36.15 8.35 -36.05 7.4 -35.9 6.5 -35.75 5.85 -35.6 5.15 -35.45 4.7 -35.3 4.25 -35.15 3.9 -34.95 3.55 -34.75 3.3 -34.6 3.1 -34.35 2.85 -33.85 2.4 -33.25 2.05 -32.65 1.7 -31.95 1.35 -31.35 1.1 -30.6 0.85 -29.95 0.6 -29.2 0.45 -28.55 0.25 -27.8 0.1 -27.2 0.0 -26.55 -0.1 -26.0 -0.2 -25.4 -0.3 -25.1 -0.35 -24.5 -0.4 -24.25 -0.45 -24.05 -0.45 -23.8 -0.5 -23.6 -0.5 -23.4 -0.5 -23.2 -0.55 -23.0 -0.55 -22.8 -0.55 -22.6 -0.55 -22.4 -0.6 -22.25 -0.6 -22.05 -0.6 -21.9 -0.6 -21.75 -0.6 -21.6 -0.6 -21.45 -0.6 -21.5 -1.15 -21.55 -1.7 -21.55 -2.3 -21.55 -2.95 -21.55 -3.6 -21.55 -4.25 -21.5 -4.95 -21.45 -5.6 -21.4 -6.35 -21.3 -7.1 -21.2 -7.85 -21.05 -8.6 -20.9 -9.4 -20.7 -10.2 -20.5 -11.05 -20.25 -11.85 -20.0 -12.55 -19.9 -12.85 -19.7 -13.5 -19.5 -14.0 -19.25 -14.7 -19.0 -15.3 -18.65 -16.0 -18.3 -16.7 -17.95 -17.45 -17.5 -18.1 -17.05 -18.9 -16.5 -19.6 -15.95 -20.35 -15.3 -21.05 -14.65 -21.8 -13.9 -22.45 -13.35 -22.95 -12.75 -23.4 -12.2 -23.8 -11.65 -24.2 -11.1 -24.55 -10.5 -24.9 -10.0 -25.15 -9.45 -25.45 -8.9 -25.7 -8.4 -25.9 -7.9 -26.1 -7.35 -26.3 -6.95 -26.5 -6.4 -26.65 -6.05 -26.8 -5.55 -26.95 -4.65 -27.25 -4.1 -27.4 -3.15 -27.7 -2.2 -27.9 -1.0 -28.2 0.15 -28.4 1.5 -28.65 2.8 -28.75 4.3 -28.85 5.8 -28.8 7.4 -28.75 8.95 -28.5 10.65 -28.25 12.3 -27.7 14.05 -27.15 15.7 -26.35 16.9 -25.75 18.05 -25.0 19.1 -24.35 20.1 -23.55 21.0 -22.8 21.85 -22.0 22.65 -21.25 23.35 -20.4 24.0 -19.65 24.6 -18.85 25.1 -18.15 25.6 -17.45 26.0 -16.8 26.4 -16.15 26.65 -15.65 26.95 -15.1 L26.95 -15.1" fill="#707070" fill-rule="evenodd" stroke="none"/>
  </g>
</svg>
