<?xml version="1.0" encoding="UTF-8" standalone="no"?>
<svg xmlns:xlink="http://www.w3.org/1999/xlink" height="141.65px" width="80.75px" xmlns="http://www.w3.org/2000/svg">
  <g transform="matrix(1.0, 0.0, 0.0, 1.0, 40.4, 70.85)">
    <path d="M-39.55 24.0 Q-39.1 16.85 -38.55 9.25 -38.3 5.15 -38.05 3.7 -37.95 3.05 -37.75 2.45 -37.55 1.85 -37.3 1.3 -37.05 0.75 -36.7 0.3 -36.35 -0.15 -35.95 -0.55 -35.55 -0.95 -35.1 -1.3 -34.65 -1.65 -34.1 -1.9 -33.55 -2.2 -33.0 -2.4 -32.4 -2.65 -31.75 -2.8 -31.3 -2.9 -30.9 -3.0 -30.5 -3.1 -30.05 -3.2 -29.65 -3.3 -29.25 -3.35 -28.8 -3.45 -28.4 -3.5 -27.95 -3.55 -27.55 -3.55 -27.1 -3.6 -26.65 -3.6 -26.25 -3.6 -25.8 -3.6 -25.35 -3.6 -24.95 -3.55 -24.65 -3.5 -24.45 -3.5 -24.2 -3.5 -24.0 -3.55 -23.8 -3.55 -23.65 -3.65 -23.5 -3.7 -23.4 -3.8 -23.3 -3.9 -23.2 -4.05 -23.1 -4.15 -23.05 -4.35 -22.95 -4.55 -22.9 -4.75 -22.85 -5.0 -22.8 -5.25 -22.75 -5.55 -22.75 -5.85 -22.7 -6.15 -22.65 -6.45 -22.6 -6.75 -22.6 -7.05 -22.55 -7.35 -22.5 -7.65 -22.5 -7.95 -22.45 -8.3 -22.4 -8.6 -22.4 -8.9 -22.35 -9.2 -22.35 -9.5 -22.3 -9.8 -22.25 -10.1 -22.2 -10.85 -22.1 -11.55 -21.95 -12.25 -21.8 -12.95 -21.7 -13.7 -21.5 -14.35 -21.3 -15.05 -21.05 -15.75 -20.85 -16.4 -20.55 -17.1 -20.3 -17.75 -20.0 -18.4 -19.7 -19.05 -19.35 -19.7 -19.0 -20.35 -18.65 -20.95 -16.35 -24.75 -15.2 -26.05 -14.7 -26.65 -14.1 -27.15 -13.55 -27.65 -12.95 -28.1 -12.35 -28.5 -11.7 -28.9 -11.05 -29.25 -10.4 -29.55 -9.7 -29.8 -9.0 -30.05 -8.3 -30.25 -7.55 -30.45 -6.85 -30.6 -6.05 -30.7 -5.3 -30.8 -4.5 -30.85 -3.15 -30.95 -1.95 -31.0 -0.6 -31.05 0.6 -31.05 1.95 -31.05 3.15 -31.0 4.45 -30.95 5.7 -30.85 7.0 -30.75 8.2 -30.55 9.5 -30.4 10.7 -30.15 12.0 -29.9 13.2 -29.55 14.45 -29.2 15.7 -28.8 16.75 -28.4 17.8 -27.95 18.8 -27.5 19.75 -26.95 20.7 -26.45 21.6 -25.8 22.5 -25.2 23.35 -24.55 24.15 -23.85 24.95 -23.1 25.75 -22.35 26.45 -21.55 27.2 -20.75 27.85 -19.85 28.55 -19.0 29.2 -18.05 29.3 -17.9 29.4 -17.7 29.45 -17.55 29.55 -17.35 29.6 -17.15 29.65 -16.95 29.7 -16.75 29.75 -16.55 29.8 -16.4 29.85 -16.1 29.9 -15.8 29.9 -15.7 29.95 -15.45 30.0 -15.3 30.05 -15.05 30.1 -14.9 30.1 -14.9 30.15 -14.8 30.15 -14.7 30.2 -14.65 30.2 -14.6 30.25 -14.55 30.25 -14.5 30.3 -14.4 30.3 -14.35 30.35 -14.3 30.4 -14.25 30.4 -14.2 30.45 -14.2 30.5 -14.15 30.5 -14.1 30.55 -14.1 31.25 -13.75 31.9 -13.3 32.5 -12.85 33.1 -12.35 33.6 -11.85 34.15 -11.3 34.6 -10.8 35.05 -10.2 35.5 -9.6 35.9 -8.95 36.25 -8.35 36.6 -7.7 36.95 -7.05 37.3 -6.35 37.6 -5.7 37.9 -4.95 38.05 -4.65 38.15 -4.3 38.3 -4.0 38.4 -3.65 38.5 -3.35 38.6 -3.0 38.7 -2.65 38.8 -2.3 38.85 -2.0 38.95 -1.65 39.0 -1.3 39.1 -0.95 39.15 -0.65 39.2 -0.25 39.3 0.05 39.35 0.4 39.45 1.1 39.5 1.75 39.55 2.4 39.5 3.05 39.45 3.7 39.3 4.3 39.2 4.95 39.0 5.5 38.8 6.1 38.5 6.7 38.25 7.25 37.9 7.8 37.55 8.35 37.1 8.85 36.7 9.4 36.25 9.9 36.2 9.95 36.15 10.0 36.1 10.05 36.05 10.15 36.0 10.2 35.95 10.25 35.9 10.35 35.9 10.4 35.85 10.5 35.8 10.55 35.8 10.65 35.8 10.7 35.75 10.8 35.75 10.85 35.75 10.9 35.75 11.0 35.95 12.85 36.05 14.75 36.15 16.6 36.2 18.45 36.25 20.3 36.2 22.2 36.2 24.05 36.1 25.9 36.0 27.75 35.85 29.65 35.7 31.45 35.5 33.35 35.3 35.2 35.05 37.05 34.75 38.9 34.45 40.75 33.55 46.15 31.15 59.8 31.1 60.15 31.0 60.45 30.95 60.75 30.85 61.05 30.75 61.35 30.65 61.65 30.55 61.95 30.4 62.25 30.25 62.55 30.1 62.8 29.95 63.1 29.75 63.35 29.6 63.6 29.4 63.85 29.2 64.1 28.95 64.35 28.7 64.6 28.5 64.8 28.25 65.05 28.0 65.25 27.75 65.45 27.45 65.6 27.2 65.8 26.95 65.95 26.65 66.1 26.35 66.2 26.05 66.3 25.75 66.4 25.45 66.45 25.15 66.5 24.8 66.55 24.45 66.55 18.3 66.6 14.95 66.55 14.85 66.55 14.7 66.55 14.55 66.55 14.45 66.5 14.3 66.5 14.2 66.45 14.05 66.45 13.95 66.4 13.8 66.35 13.7 66.3 13.55 66.25 13.45 66.2 13.3 66.15 13.2 66.1 13.1 66.05 13.0 65.95 12.55 65.6 12.15 65.25 11.7 64.9 11.35 64.5 10.95 64.1 10.65 63.7 10.3 63.3 10.05 62.85 9.75 62.4 9.55 61.9 9.3 61.45 9.15 60.9 9.0 60.4 8.9 59.85 8.85 59.3 8.8 58.7 8.8 56.6 9.15 52.5 9.15 52.2 9.15 52.0 9.2 51.75 9.15 51.55 9.15 51.35 9.1 51.2 9.05 51.05 8.95 50.95 8.85 50.8 8.75 50.7 8.6 50.65 8.45 50.55 8.25 50.5 8.05 50.45 7.85 50.4 7.55 50.4 7.4 50.4 7.3 50.35 7.15 50.35 7.05 50.35 6.9 50.35 6.8 50.35 6.65 50.3 6.5 50.3 6.4 50.3 6.25 50.3 6.15 50.3 6.0 50.3 5.9 50.3 5.75 50.3 5.65 50.3 5.5 50.35 5.15 50.35 4.9 50.4 4.65 50.4 4.45 50.45 4.25 50.5 4.1 50.6 3.95 50.65 3.85 50.8 3.75 50.9 3.7 51.05 3.6 51.2 3.6 51.4 3.55 51.6 3.55 51.85 3.5 52.1 3.5 52.45 3.6 58.4 3.6 58.95 3.6 59.25 3.6 59.5 3.6 59.8 3.55 60.1 3.55 60.35 3.55 60.65 3.5 60.9 3.5 61.2 3.5 61.5 3.45 61.75 3.45 62.05 3.4 62.35 3.4 62.6 3.35 62.9 3.35 63.15 3.3 63.45 3.25 63.75 3.2 64.05 3.15 64.35 3.05 64.6 2.95 64.9 2.85 65.15 2.75 65.45 2.6 65.7 2.45 65.95 2.25 66.2 2.1 66.4 1.9 66.65 1.7 66.85 1.5 67.1 1.3 67.3 1.05 67.5 0.55 67.95 0.05 68.35 -0.5 68.75 -1.05 69.05 -1.6 69.4 -2.15 69.65 -2.7 69.95 -3.3 70.15 -3.9 70.4 -4.5 70.55 -5.1 70.75 -5.75 70.85 -6.35 71.0 -7.0 71.05 -7.65 71.15 -8.3 71.15 -9.0 71.2 -9.7 71.2 -10.4 71.2 -11.05 71.15 -11.75 71.1 -12.4 71.05 -13.1 70.95 -13.75 70.85 -14.45 70.7 -15.05 70.55 -15.75 70.35 -16.35 70.1 -17.0 69.9 -17.6 69.55 -18.25 69.25 -18.85 68.9 -19.25 68.65 -19.65 68.35 -20.05 68.05 -20.35 67.75 -20.7 67.45 -21.0 67.1 -21.3 66.75 -21.55 66.4 -21.8 66.05 -22.0 65.65 -22.2 65.2 -22.35 64.8 -22.5 64.3 -22.55 63.85 -22.65 63.35 -22.65 62.8 -22.7 60.55 -22.9 57.05 -23.25 52.25 -23.3 51.35 -23.3 51.2 -23.35 51.05 -23.35 50.9 -23.4 50.8 -23.4 50.7 -23.5 50.6 -23.55 50.5 -23.6 50.45 -23.7 50.4 -23.8 50.35 -23.85 50.3 -24.0 50.25 -24.1 50.25 -24.25 50.25 -24.35 50.2 -24.5 50.25 -28.7 50.35 -29.45 50.35 -29.75 50.35 -30.0 50.3 -30.3 50.3 -30.55 50.25 -30.8 50.2 -31.1 50.15 -31.35 50.05 -31.6 49.95 -31.85 49.9 -32.05 49.75 -32.3 49.65 -32.55 49.45 -32.75 49.3 -33.0 49.15 -33.2 48.95 -33.4 48.7 -33.45 48.65 -33.5 48.6 -33.55 48.55 -33.6 48.5 -33.65 48.45 -33.7 48.4 -33.8 48.35 -33.85 48.35 -33.9 48.3 -34.0 48.25 -34.05 48.2 -34.1 48.2 -34.2 48.15 -34.25 48.1 -34.3 48.05 -34.4 48.05 -34.7 47.9 -34.95 47.75 -35.25 47.55 -35.5 47.35 -35.7 47.15 -35.95 46.95 -36.15 46.75 -36.3 46.5 -36.5 46.25 -36.65 46.0 -36.8 45.75 -36.95 45.45 -37.1 45.15 -37.2 44.85 -37.3 44.55 -37.4 44.25 -37.7 43.15 -38.0 42.0 -38.25 40.85 -38.45 39.7 -38.7 38.55 -38.85 37.35 -39.0 36.15 -39.15 34.9 -39.25 33.7 -39.35 32.4 -39.4 31.15 -39.45 29.75 -39.5 28.45 -39.55 26.95 -39.55 25.6 -39.55 24.0 L-39.55 24.0 M21.2 -16.8 Q21.15 -16.9 20.9 -17.4 20.7 -17.7 20.6 -17.9 20.3 -18.4 19.95 -18.85 19.6 -19.3 19.25 -19.7 18.85 -20.1 18.45 -20.5 18.05 -20.9 17.65 -21.25 17.2 -21.6 16.75 -21.9 16.3 -22.25 15.85 -22.5 15.35 -22.8 14.85 -23.05 14.35 -23.3 13.8 -23.5 12.8 -23.9 11.8 -24.2 10.8 -24.55 9.8 -24.8 8.75 -25.05 7.75 -25.25 6.75 -25.45 5.7 -25.6 4.65 -25.7 3.65 -25.8 2.6 -25.85 1.55 -25.8 0.5 -25.8 -0.55 -25.7 -1.6 -25.6 -2.65 -25.45 -3.95 -25.25 -5.1 -24.9 -6.3 -24.55 -7.35 -24.1 -8.4 -23.65 -9.35 -23.05 -10.3 -22.45 -11.15 -21.7 -11.95 -21.0 -12.65 -20.15 -13.35 -19.25 -13.95 -18.25 -14.55 -17.25 -15.0 -16.15 -15.45 -15.0 -15.8 -13.75 -16.15 -12.55 -16.4 -11.35 -16.7 -10.15 -16.95 -8.95 -17.25 -7.7 -17.45 -6.5 -17.65 -5.3 -17.85 -4.05 -18.05 -2.85 -18.15 -1.6 -18.3 -0.4 -18.4 0.85 -18.5 2.1 -18.55 3.3 -18.6 4.55 -18.65 5.8 -18.9 26.75 -18.9 25.8 -18.9 37.2 -18.2 45.75 -17.95 48.9 -17.5 53.8 -16.9 60.6 -16.75 61.85 -16.75 62.05 -16.7 62.25 -16.65 62.45 -16.6 62.65 -16.55 62.8 -16.5 63.0 -16.4 63.15 -16.3 63.3 -16.2 63.45 -16.1 63.6 -15.95 63.75 -15.8 63.85 -15.65 63.95 -15.5 64.05 -15.3 64.15 -15.1 64.25 -14.5 64.45 -13.9 64.65 -13.3 64.85 -12.75 64.95 -12.15 65.1 -11.55 65.2 -10.95 65.25 -10.4 65.3 -9.8 65.3 -9.2 65.3 -8.6 65.25 -8.05 65.15 -7.45 65.0 -6.85 64.8 -6.25 64.6 -5.65 64.35 -5.0 64.0 -4.45 63.7 -3.95 63.4 -3.55 63.1 -3.15 62.8 -2.85 62.45 -2.55 62.1 -2.35 61.75 -2.15 61.4 -2.05 61.0 -1.95 60.65 -1.9 60.15 -1.85 59.75 -1.85 59.2 -1.85 58.75 -1.9 58.1 -1.95 57.55 -2.0 57.0 -2.0 56.4 -2.05 55.85 -2.05 55.3 -2.05 54.7 -2.05 54.15 -2.05 53.6 -2.05 53.0 -2.05 52.45 -2.05 51.9 -2.0 51.35 -1.95 50.75 -1.9 50.2 -1.85 49.65 -1.8 49.1 -1.75 48.4 -1.6 47.85 -1.45 47.3 -1.3 46.85 -1.1 46.4 -0.85 46.1 -0.6 45.75 -0.25 45.5 0.1 45.3 0.5 45.15 0.9 45.0 1.4 44.95 1.85 44.95 2.45 44.95 3.0 45.0 3.7 45.15 4.85 45.35 5.9 45.55 7.05 45.75 8.1 45.85 9.25 46.0 10.3 46.1 11.45 46.25 12.5 46.3 13.65 46.35 14.7 46.3 15.85 46.3 16.95 46.25 18.05 46.15 19.15 46.0 20.3 45.85 21.4 45.6 21.45 45.6 21.5 45.6 21.55 45.6 21.6 45.6 21.65 45.6 21.7 45.65 21.75 45.65 21.85 45.65 21.85 45.7 21.95 45.7 22.05 45.75 22.05 45.75 22.15 45.75 22.2 45.8 22.25 45.8 22.3 45.8 21.9 46.55 21.85 46.6 21.4 47.0 21.1 47.25 20.65 47.55 20.3 47.85 19.9 48.15 19.55 48.45 19.1 48.75 18.7 49.0 18.3 49.25 17.85 49.5 17.45 49.7 17.0 49.9 16.55 50.1 16.05 50.25 15.55 50.4 15.1 50.5 14.95 50.55 14.8 50.6 14.7 50.6 14.55 50.7 14.45 50.75 14.35 50.8 14.25 50.9 14.2 50.95 14.1 51.05 14.05 51.15 14.0 51.25 13.95 51.4 13.9 51.5 13.9 51.65 13.9 51.75 13.85 51.9 13.85 52.1 13.85 52.35 13.8 52.55 13.8 52.8 13.8 52.95 13.75 53.25 13.75 53.55 13.75 53.7 13.7 53.95 13.7 54.15 13.7 54.35 13.7 54.6 13.7 54.8 13.7 55.0 13.7 55.25 13.7 55.45 13.85 56.95 14.5 60.05 14.55 60.2 14.6 60.35 14.65 60.45 14.7 60.6 14.8 60.7 14.9 60.8 14.95 60.9 15.1 60.95 15.2 61.05 15.3 61.1 15.4 61.15 15.55 61.2 15.7 61.25 15.85 61.25 16.0 61.3 16.15 61.3 16.2 61.3 19.9 61.25 22.15 61.2 23.6 61.15 23.85 61.15 24.05 61.1 24.3 61.05 24.5 61.0 24.7 60.95 24.85 60.85 25.0 60.75 25.15 60.6 25.3 60.5 25.45 60.3 25.55 60.15 25.65 60.0 25.75 59.8 25.85 59.6 25.95 59.4 26.0 59.15 26.05 58.95 26.2 57.75 26.3 57.05 27.3 50.1 27.95 45.45 28.4 42.45 28.5 41.9 28.65 40.95 28.85 39.9 28.9 39.45 29.05 38.65 29.15 37.95 29.25 37.2 29.35 36.5 29.45 35.7 29.55 35.0 29.65 34.2 29.7 33.5 29.75 32.7 29.8 32.0 29.8 31.2 29.8 30.5 29.75 27.4 29.7 22.35 29.6 16.0 29.6 14.25 29.6 14.2 29.5 13.75 29.05 13.9 28.55 14.05 27.55 14.35 26.6 14.65 25.6 14.9 24.6 15.15 23.6 15.45 22.65 15.65 21.6 15.9 20.65 16.1 19.6 16.3 18.65 16.5 17.6 16.65 16.6 16.8 15.6 16.95 14.6 17.05 13.55 17.15 12.55 17.25 11.85 17.3 11.15 17.3 10.4 17.3 9.75 17.25 9.05 17.2 8.35 17.15 7.65 17.05 6.95 16.9 6.3 16.8 5.6 16.6 4.95 16.45 4.25 16.25 3.6 16.05 2.95 15.75 2.3 15.5 1.65 15.2 1.3 15.05 0.95 14.85 0.6 14.65 0.25 14.45 -0.1 14.25 -0.4 14.05 -0.7 13.8 -1.0 13.55 -1.3 13.3 -1.55 13.05 -1.85 12.75 -2.1 12.45 -2.35 12.15 -2.55 11.85 -2.75 11.5 -2.95 11.15 -3.1 10.9 -3.25 10.65 -3.4 10.35 -3.5 10.1 -3.65 9.85 -3.8 9.6 -3.9 9.35 -4.05 9.1 -4.15 8.8 -4.3 8.55 -4.4 8.3 -4.55 8.0 -4.65 7.75 -4.75 7.5 -4.85 7.2 -5.0 6.95 -5.35 6.1 -5.6 5.2 -5.85 4.3 -6.0 3.4 -6.2 2.55 -6.35 1.6 -6.45 0.75 -6.5 -0.2 -6.6 -1.05 -6.65 -2.0 -6.65 -2.9 -6.65 -3.85 -6.65 -4.7 -6.65 -5.7 -6.65 -6.45 -6.6 -7.5 -6.6 -7.85 -6.55 -8.15 -6.5 -8.5 -6.4 -8.8 -6.35 -9.15 -6.25 -9.45 -6.15 -9.75 -6.0 -10.05 -5.85 -10.35 -5.7 -10.6 -5.55 -10.9 -5.35 -11.15 -5.2 -11.45 -5.0 -11.7 -4.8 -11.95 -4.55 -12.25 -4.25 -12.6 -3.95 -12.9 -3.6 -13.2 -3.3 -13.5 -2.95 -13.75 -2.6 -14.0 -2.25 -14.2 -1.85 -14.45 -1.5 -14.6 -1.1 -14.8 -0.7 -14.95 -0.3 -15.1 0.15 -15.25 0.55 -15.35 1.0 -15.45 1.45 -15.55 2.6 -15.75 3.75 -15.95 4.9 -16.1 6.05 -16.25 7.2 -16.35 8.4 -16.45 9.55 -16.55 10.7 -16.65 11.85 -16.7 13.05 -16.75 14.2 -16.8 15.35 -16.8 16.5 -16.8 17.7 -16.8 18.85 -16.8 20.05 -16.8 20.15 -16.8 21.2 -16.8 L21.2 -16.8 M14.6 -11.75 Q9.7 -11.3 8.65 -11.2 8.35 -11.15 8.05 -11.1 7.75 -11.05 7.4 -11.0 7.1 -10.95 6.8 -10.9 6.5 -10.85 6.2 -10.8 5.9 -10.7 5.6 -10.65 5.3 -10.6 5.0 -10.55 4.7 -10.45 4.35 -10.4 4.1 -10.35 3.75 -10.25 3.15 -10.1 2.6 -9.9 2.05 -9.65 1.55 -9.4 1.05 -9.1 0.65 -8.7 0.25 -8.35 -0.1 -7.95 -0.45 -7.5 -0.7 -7.05 -1.0 -6.55 -1.2 -6.0 -1.35 -5.45 -1.5 -4.85 -1.6 -4.25 -1.6 -3.65 -1.7 -2.6 -1.65 -2.25 26.2 861.1 -1.65 -1.5 -1.6 -1.05 -1.6 -0.75 -1.6 -0.35 -1.55 0.0 -1.5 0.4 -1.45 0.75 -1.4 1.15 -1.35 1.5 -1.25 1.85 -1.15 2.2 -1.05 2.55 -0.9 2.9 -0.75 3.25 -0.55 3.6 -0.05 4.45 0.55 5.25 1.1 6.0 1.75 6.65 2.4 7.3 3.15 7.85 3.85 8.45 4.6 8.9 5.4 9.35 6.2 9.7 7.05 10.05 7.95 10.3 8.8 10.6 9.75 10.75 10.7 10.95 11.7 11.0 12.45 11.05 13.2 11.1 13.95 11.1 14.7 11.1 15.4 11.05 16.15 11.0 16.9 10.95 17.65 10.85 18.4 10.75 19.1 10.6 19.85 10.45 20.6 10.3 21.3 10.15 22.05 9.9 22.75 9.75 23.45 9.5 24.0 9.35 24.45 9.2 24.95 9.0 25.4 8.85 25.9 8.65 26.35 8.45 26.85 8.25 27.3 8.05 27.8 7.85 28.25 7.65 28.7 7.4 29.15 7.15 29.6 6.9 30.05 6.6 30.45 6.35 30.85 6.0 31.2 5.75 31.55 5.45 31.9 5.15 32.2 4.85 32.5 4.55 32.75 4.2 33.0 3.85 33.2 3.5 33.45 3.15 33.6 2.75 33.75 2.35 33.85 1.95 34.0 1.55 34.05 1.15 34.1 0.7 34.05 0.25 34.05 -0.35 33.95 -0.95 33.85 -1.6 33.75 -2.15 33.6 -2.75 33.4 -3.25 33.2 -3.85 32.9 -4.35 32.65 -4.85 32.3 -5.3 31.95 -5.8 31.55 -6.2 31.15 -6.65 30.65 -7.0 30.15 -7.4 29.6 -7.7 28.7 -8.2 27.85 -8.65 26.95 -9.1 26.1 -9.5 25.15 -9.9 24.25 -10.25 23.35 -10.6 22.4 -10.85 21.45 -11.15 20.5 -11.35 19.55 -11.55 18.6 -11.65 17.6 -11.75 16.6 -11.8 15.6 -11.85 14.6 -11.75 L14.6 -11.75 M-34.2 25.5 Q-33.75 32.25 -33.2 40.75 -33.2 40.95 -33.15 41.15 -33.1 41.35 -33.05 41.55 -33.0 41.75 -32.9 41.9 -32.8 42.1 -32.7 42.25 -32.6 42.4 -32.5 42.55 -32.35 42.7 -32.25 42.85 -32.1 43.0 -31.95 43.1 -31.8 43.25 -31.6 43.35 -31.25 43.6 -30.9 43.8 -30.55 44.0 -30.2 44.2 -29.85 44.35 -29.45 44.5 -29.1 44.65 -28.7 44.75 -28.35 44.85 -27.95 44.9 -27.55 44.95 -27.15 45.0 -26.75 45.05 -26.35 45.05 -25.95 45.05 -25.5 45.05 -25.35 45.05 -25.2 45.0 -25.1 45.0 -25.0 44.95 -24.85 44.9 -24.75 44.8 -24.65 44.75 -24.6 44.65 -24.5 44.6 -24.45 44.5 -24.4 44.4 -24.35 44.25 -24.3 44.15 -24.25 44.0 -24.25 43.9 -24.2 43.75 -24.2 42.75 -24.2 42.4 -24.9 30.4 -24.95 30.3 -25.25 21.5 -25.2 17.45 -25.2 14.6 -25.0 10.45 -24.55 2.1 -24.65 3.45 -24.65 3.25 -24.65 3.05 -24.65 2.85 -24.7 2.7 -24.7 2.55 -24.75 2.45 -24.8 2.35 -24.9 2.25 -25.0 2.15 -25.1 2.1 -25.2 2.05 -25.35 2.0 -25.5 2.0 -25.7 2.0 -25.85 1.95 -26.1 1.95 -26.65 2.0 -29.65 2.35 -29.85 2.35 -30.0 2.4 -30.15 2.45 -30.35 2.5 -30.5 2.6 -30.6 2.65 -30.75 2.75 -30.9 2.85 -31.0 2.95 -31.1 3.05 -31.2 3.2 -31.3 3.35 -31.4 3.45 -31.45 3.65 -31.55 3.8 -31.6 3.95 -31.7 4.3 -31.8 4.7 -31.9 5.0 -32.05 5.45 -32.25 6.05 -32.3 6.2 -32.4 6.65 -32.5 6.95 -32.65 7.35 -32.7 7.7 -32.85 8.1 -32.9 8.5 -33.0 8.85 -33.05 9.25 -33.1 9.65 -33.15 10.0 -33.3 11.75 -34.2 25.5 L-34.2 25.5" fill="#000000" fill-rule="evenodd" stroke="none"/>
  </g>
</svg>
