<?xml version="1.0" encoding="UTF-8" standalone="no"?>
<svg xmlns:xlink="http://www.w3.org/1999/xlink" height="200.0px" width="200.0px" xmlns="http://www.w3.org/2000/svg">
  <g transform="matrix(1.0, 0.0, 0.0, 1.0, 100.0, 100.0)">
    <path d="M-13.9 -2.55 Q-9.15 -1.1 0.45 1.8 0.6 1.85 0.65 1.9 0.85 2.0 0.95 2.05 1.15 2.15 1.35 2.25 1.55 2.4 1.7 2.55 1.9 2.7 2.1 2.85 2.25 3.05 2.4 3.25 2.55 3.45 2.65 3.65 2.75 3.9 2.8 4.15 2.8 4.25 2.8 4.35 2.8 4.45 2.8 4.55 2.75 4.65 2.75 4.8 2.7 4.9 2.65 5.05 2.6 5.15 2.55 5.3 2.5 5.45 2.4 5.6 2.35 5.75 2.25 5.95 2.2 6.05 2.05 6.3 1.95 6.5 1.85 6.75 1.75 6.9 1.65 7.1 1.55 7.25 1.45 7.45 1.35 7.55 1.2 7.8 1.05 8.0 1.0 8.15 0.85 8.35 0.75 8.55 0.6 8.75 0.5 9.0 0.35 9.3 0.2 9.55 -0.3 10.45 -0.4 10.8 -0.45 11.0 -0.5 11.2 -0.5 11.4 -0.5 11.55 -0.5 11.7 -0.5 11.85 -0.5 12.0 -0.45 12.15 -0.15 14.15 -0.4 12.45 -0.4 12.6 -0.4 12.75 -0.35 12.9 -0.35 13.05 -0.35 13.25 -0.4 13.45 -0.4 13.6 -0.45 13.7 -0.45 13.8 -0.5 13.85 -0.5 13.95 -0.55 14.05 -0.6 14.15 -0.65 14.3 -0.65 14.3 -0.85 14.6 -0.95 14.85 -1.05 15.0 -1.2 15.3 -1.3 15.6 -1.5 15.9 -1.65 16.3 -2.3 17.75 -2.55 18.35 -2.65 18.7 -2.75 19.05 -2.85 19.3 -2.9 19.6 -2.95 19.8 -3.0 20.05 -3.1 20.4 -3.1 20.45 -3.15 20.65 -3.2 20.8 -3.25 20.95 -3.3 21.1 -3.35 21.25 -3.45 21.35 -3.55 21.5 -3.65 21.6 -3.75 21.7 -3.85 21.8 -3.9 21.85 -4.0 21.95 -4.1 22.0 -4.2 22.05 -4.3 22.1 -4.45 22.15 -4.55 22.2 -4.7 22.25 -4.8 22.3 -4.95 22.35 -5.05 22.4 -5.2 22.45 -5.35 22.5 -5.55 22.55 -5.85 22.65 -6.15 22.7 -6.45 22.75 -6.75 22.8 -7.05 22.85 -7.3 22.85 -7.55 22.85 -7.8 22.85 -8.0 22.85 -8.2 22.85 -8.4 22.85 -8.55 22.8 -8.7 22.8 -8.85 22.8 -8.95 22.75 -9.0 22.75 -9.3 22.7 -9.6 22.6 -9.9 22.55 -10.15 22.4 -10.45 22.35 -10.7 22.2 -10.9 22.1 -11.15 21.95 -11.35 21.85 -11.55 21.75 -11.75 21.6 -11.9 21.5 -12.1 21.35 -12.25 21.25 -12.35 21.15 -12.55 21.0 -13.0 20.65 -13.45 20.25 -13.85 19.85 -14.2 19.4 -14.55 19.0 -14.85 18.6 -15.1 18.2 -15.4 17.75 -15.6 17.35 -15.85 16.95 -16.0 16.55 -16.2 16.15 -16.35 15.8 -16.5 15.45 -16.6 15.15 -16.8 14.8 -16.95 14.4 -17.0 14.25 -17.15 13.85 -17.25 13.55 -17.35 13.15 -17.5 12.75 -17.6 12.3 -17.7 11.85 -17.8 11.35 -17.9 10.85 -17.95 10.3 -18.0 9.75 -18.05 9.2 -18.05 8.6 -18.05 7.95 -18.0 7.3 -17.95 6.8 -17.9 6.35 -17.8 5.9 -17.7 5.45 -17.65 5.0 -17.5 4.6 -17.4 4.2 -17.25 3.8 -17.15 3.45 -17.0 3.1 -16.9 2.8 -16.75 2.45 -16.65 2.2 -16.5 1.85 -16.4 1.65 -16.25 1.35 -16.1 1.05 -15.95 0.75 -15.8 0.45 -15.65 0.15 -15.5 -0.1 -15.35 -0.4 -15.2 -0.65 -15.05 -0.9 -14.9 -1.1 -14.75 -1.35 -14.6 -1.55 -14.45 -1.8 -14.35 -2.0 -14.2 -2.15 -14.05 -2.35 -13.9 -2.55 L-13.9 -2.55" fill="#3b8943" fill-rule="evenodd" stroke="none"/>
    <path d="M39.6 -3.85 Q39.35 -4.0 39.1 -4.15 38.9 -4.25 38.65 -4.35 38.4 -4.4 38.15 -4.5 37.95 -4.55 37.7 -4.55 37.5 -4.6 37.25 -4.6 37.05 -4.6 36.85 -4.6 36.7 -4.6 36.5 -4.6 36.35 -4.6 36.2 -4.55 35.95 -4.55 35.7 -4.5 35.5 -4.45 35.2 -4.4 34.95 -4.3 34.7 -4.2 34.4 -4.15 34.1 -4.0 33.8 -3.9 33.5 -3.7 33.15 -3.55 32.75 -3.4 32.45 -3.2 31.95 -3.0 31.65 -2.85 31.05 -2.55 30.65 -2.35 30.3 -2.15 29.95 -1.95 29.7 -1.8 29.4 -1.65 29.15 -1.45 28.9 -1.3 28.65 -1.15 28.45 -1.0 28.25 -0.8 28.05 -0.65 27.9 -0.5 27.75 -0.3 27.6 -0.1 27.45 0.05 27.35 0.3 27.25 0.45 27.2 0.55 27.15 0.7 27.1 0.8 27.05 0.9 27.0 1.05 26.95 1.15 26.95 1.25 26.9 1.3 26.9 1.4 26.85 1.5 26.85 1.55 26.85 1.65 26.85 1.7 26.85 1.75 26.85 1.8 26.85 1.95 26.85 2.1 26.85 2.25 26.9 2.4 26.9 2.55 26.95 2.7 26.95 2.8 27.05 2.95 27.1 3.1 27.15 3.25 27.2 3.35 27.3 3.5 27.35 3.65 27.45 3.8 27.5 3.9 27.6 4.1 27.7 4.3 27.8 4.5 27.9 4.65 28.0 4.75 28.1 4.9 28.2 5.0 28.25 5.05 28.35 5.2 28.45 5.35 28.5 5.4 28.6 5.5 28.65 5.6 28.75 5.7 28.85 5.85 28.9 6.0 29.05 6.2 29.4 6.85 30.0 8.6 30.1 8.95 30.2 9.2 30.3 9.45 30.35 9.7 30.4 9.9 30.45 10.05 30.45 10.1 30.55 10.35 30.55 10.5 30.6 10.55 30.65 10.7 30.65 10.75 30.7 10.85 30.75 10.95 30.8 11.1 30.85 11.2 30.95 11.4 31.1 11.6 31.2 11.75 31.35 11.9 31.45 12.05 31.55 12.15 31.6 12.2 31.75 12.35 31.9 12.45 31.95 12.55 32.05 12.65 32.15 12.75 32.25 12.9 32.35 13.05 32.45 13.25 32.55 13.45 32.65 13.65 32.75 14.05 32.95 14.7 33.25 15.6 33.3 15.8 33.35 15.9 33.4 16.05 33.45 16.2 33.5 16.3 33.55 16.4 33.6 16.5 33.65 16.6 33.7 16.7 33.75 16.75 33.8 16.85 33.9 16.9 33.95 16.95 34.0 17.0 34.05 17.05 34.15 17.1 34.2 17.15 34.3 17.15 34.4 17.15 34.45 17.15 34.55 17.15 34.6 17.15 34.7 17.15 34.75 17.15 34.85 17.15 34.9 17.1 35.0 17.1 35.05 17.05 35.1 17.05 35.2 17.0 35.2 17.0 35.3 17.0 36.4 16.55 37.05 16.4 38.8 15.9 37.75 16.2 38.15 16.1 38.9 15.75 41.15 14.65 42.0 14.0 42.2 13.85 42.3 13.75 42.45 13.65 42.6 13.5 42.75 13.4 42.9 13.25 43.05 13.15 43.2 13.0 43.3 12.85 43.45 12.75 43.6 12.6 43.7 12.4 43.8 12.25 43.95 12.1 44.05 11.9 44.15 11.7 44.3 11.45 44.4 11.15 44.5 10.85 44.55 10.6 44.6 10.3 44.65 10.0 44.7 9.75 44.7 9.45 44.7 9.15 44.65 8.85 44.65 8.55 44.6 8.25 44.6 7.95 44.55 7.6 44.5 7.35 44.45 6.9 44.3 6.0 43.1 2.35 42.95 1.95 42.85 1.65 42.75 1.25 42.6 0.95 42.5 0.55 42.35 0.25 42.2 -0.1 42.05 -0.45 41.9 -0.8 41.75 -1.15 41.55 -1.45 41.35 -1.8 41.15 -2.1 40.95 -2.45 40.7 -2.75 40.45 -3.05 40.4 -3.1 40.35 -3.15 40.3 -3.2 40.3 -3.25 40.25 -3.3 40.2 -3.35 40.15 -3.4 40.1 -3.45 40.05 -3.5 40.0 -3.55 39.9 -3.6 39.85 -3.65 39.8 -3.7 39.75 -3.75 39.65 -3.8 39.6 -3.85 L39.6 -3.85" fill="#3b8943" fill-rule="evenodd" stroke="none"/>
  </g>
</svg>
