<?xml version="1.0" encoding="UTF-8" standalone="no"?>
<svg xmlns:xlink="http://www.w3.org/1999/xlink" height="126.15px" width="88.05px" xmlns="http://www.w3.org/2000/svg">
  <g transform="matrix(1.0, 0.0, 0.0, 1.0, 44.05, 63.1)">
    <path d="M40.85 19.35 Q41.0 19.2 41.15 19.05 41.3 18.95 41.45 18.85 41.65 18.75 41.8 18.7 41.95 18.65 42.15 18.6 42.3 18.55 42.45 18.55 42.55 18.55 42.7 18.55 42.8 18.5 42.9 18.5 42.95 18.5 43.0 18.5 42.8 18.05 42.5 17.55 40.95 14.3 40.75 13.4 40.7 13.2 40.7 13.05 40.65 12.9 40.65 12.8 40.65 12.7 40.7 12.55 40.7 12.5 40.7 12.35 40.7 12.15 40.7 12.05 40.75 11.85 40.75 11.7 40.75 11.45 40.75 11.15 40.75 10.85 40.7 10.5 40.7 10.2 40.65 9.9 40.65 9.65 40.6 9.4 40.6 9.15 40.55 8.95 40.55 8.75 40.5 8.55 40.4 8.1 40.45 8.15 40.4 7.9 40.35 7.7 40.35 7.45 40.3 7.25 40.3 6.95 40.25 6.65 40.2 6.15 40.2 5.8 40.2 5.8 40.25 4.9 40.25 4.15 40.25 3.2 40.25 1.9 40.2 1.1 40.25 2.25 40.1 -0.1 40.05 -0.9 40.05 -2.1 40.05 -1.45 40.05 -2.6 40.05 -2.9 40.05 -3.05 40.05 -3.3 40.05 -3.5 40.05 -3.7 40.0 -3.9 40.0 -4.1 39.95 -4.3 39.95 -4.5 39.9 -4.7 39.85 -4.9 39.8 -5.1 39.75 -5.3 39.7 -5.55 39.65 -5.7 39.6 -5.8 39.55 -5.95 39.5 -6.05 39.45 -6.2 39.35 -6.3 39.3 -6.4 39.25 -6.55 39.2 -6.65 39.15 -6.75 39.1 -6.85 39.05 -6.9 39.0 -7.0 38.95 -7.1 38.9 -7.15 38.85 -7.25 38.7 -7.25 38.55 -7.25 38.35 -7.25 38.2 -7.25 38.0 -7.2 37.85 -7.2 37.65 -7.2 37.45 -7.15 37.25 -7.15 37.05 -7.1 36.8 -7.05 36.6 -7.0 36.4 -6.95 36.15 -6.85 35.95 -6.8 35.7 -6.7 35.45 -6.6 35.2 -6.5 34.95 -6.4 34.75 -6.3 34.55 -6.15 34.3 -6.05 34.15 -5.95 33.95 -5.8 33.75 -5.7 33.6 -5.55 33.45 -5.45 33.25 -5.3 33.15 -5.2 33.0 -5.05 32.9 -5.0 32.7 -4.85 32.35 -4.55 27.2 -0.15 27.05 -0.25 26.9 -0.3 26.75 -0.4 26.65 -0.5 26.45 -0.6 26.35 -0.7 26.15 -0.75 26.0 -0.85 25.85 -0.95 25.7 -1.05 25.55 -1.1 25.35 -1.2 25.2 -1.3 25.0 -1.35 24.85 -1.45 24.65 -1.55 24.15 -1.8 23.65 -2.0 23.15 -2.2 22.65 -2.35 22.2 -2.5 21.7 -2.65 21.25 -2.8 20.75 -2.9 20.35 -3.0 19.9 -3.1 19.45 -3.15 19.05 -3.2 18.65 -3.25 18.25 -3.3 17.9 -3.35 17.5 -3.4 17.15 -3.65 16.75 -3.95 16.45 -4.2 16.1 -4.45 15.75 -4.7 15.45 -4.95 15.15 -5.2 14.85 -5.45 14.55 -5.7 14.3 -5.9 14.0 -6.15 13.75 -6.35 13.55 -6.55 13.3 -6.75 13.1 -6.95 12.85 -7.15 12.55 -7.4 12.15 -7.75 15.9 -4.35 11.55 -8.3 11.2 -8.65 11.0 -8.85 10.7 -9.1 10.45 -9.3 10.15 -9.55 9.9 -9.75 9.65 -9.95 9.35 -10.15 9.05 -10.3 8.75 -10.5 8.45 -10.7 8.1 -10.85 7.85 -10.95 7.6 -11.1 7.35 -11.2 7.1 -11.3 6.85 -11.4 6.6 -11.45 6.4 -11.55 6.15 -11.6 5.95 -11.65 5.7 -11.7 5.5 -11.75 5.3 -11.8 5.15 -11.85 4.95 -11.9 4.75 -11.95 4.6 -11.95 4.4 -11.65 4.2 -11.35 4.0 -11.05 3.8 -10.75 3.65 -10.5 3.45 -10.2 3.3 -9.95 3.15 -9.65 3.0 -9.4 2.9 -9.15 2.75 -8.9 2.65 -8.65 2.55 -8.45 2.45 -8.2 2.35 -8.0 2.25 -7.8 1.85 -6.75 0.65 -1.8 0.55 -1.35 0.45 -0.95 0.35 -0.6 0.3 -0.3 0.25 0.05 0.2 0.3 0.15 0.55 0.1 0.75 0.1 0.95 0.05 1.15 0.05 1.35 0.05 1.5 0.05 1.65 0.05 1.8 0.05 1.95 0.05 2.15 0.1 3.35 0.05 3.8 0.0 3.95 0.0 4.0 0.0 4.15 -0.05 4.25 -0.1 4.4 -0.15 4.55 -0.2 4.75 -0.25 4.9 -0.35 5.1 -0.45 5.25 -0.55 5.45 -0.65 5.6 -0.8 5.8 -0.95 5.95 -1.1 6.1 -1.3 6.25 -1.45 6.4 -1.65 6.5 -1.85 6.6 -2.0 6.7 -2.2 6.75 -2.35 6.85 -2.55 6.9 -2.7 6.9 -2.85 6.95 -3.0 6.95 -3.15 7.0 -3.3 7.0 -3.4 7.0 -3.5 7.0 -3.6 7.0 -3.65 7.0 -3.6 7.05 -3.55 7.05 -3.5 7.1 -3.45 7.15 -3.4 7.2 -3.35 7.3 -3.25 7.35 -3.2 7.4 -3.15 7.5 -3.05 7.6 -3.0 7.65 -2.95 7.75 -2.85 7.85 -2.8 8.0 -2.75 8.1 -2.7 8.2 -3.0 7.3 -2.65 8.35 -2.6 8.45 -2.6 8.55 -2.55 8.6 -2.55 8.7 -2.55 8.8 -2.5 8.9 -2.5 9.0 -2.5 9.1 -2.5 9.2 -2.5 9.3 -2.55 9.4 -2.6 9.5 -2.6 9.6 -2.7 9.7 -2.75 9.75 -2.8 9.85 -2.9 9.9 -2.95 9.95 -3.05 10.0 -3.15 10.05 -3.2 10.1 -3.3 10.1 -3.4 10.15 -3.5 10.15 -3.65 10.2 -3.75 10.2 -3.85 10.2 -3.95 10.15 -4.1 10.15 -4.2 10.15 -3.95 10.6 -3.8 11.0 -3.7 11.2 -3.65 11.35 -3.55 11.5 -3.5 11.6 -3.45 11.75 -3.4 11.85 -3.35 11.95 -3.35 12.0 -3.3 12.1 -3.3 12.15 -3.25 12.2 -3.25 12.25 -3.25 12.3 -3.25 12.35 -3.3 12.4 -3.3 12.45 -3.3 12.5 -3.35 12.6 -3.4 12.65 -3.45 12.7 -3.45 12.75 -3.55 12.8 -3.55 12.85 -3.65 12.9 -3.7 12.95 -3.75 13.0 -3.8 13.0 -3.85 13.05 -3.9 13.05 -3.95 13.1 -3.95 13.1 -4.0 13.1 -4.1 13.15 -4.2 13.2 -4.3 13.2 -4.4 13.25 -4.45 13.25 -4.55 13.25 -4.6 13.25 -4.7 13.3 -4.8 13.3 -4.85 13.3 -4.95 13.3 -5.0 13.3 -5.1 13.35 -5.2 13.35 -5.25 13.4 -5.35 13.45 -5.4 13.5 -5.45 13.5 -5.5 13.55 -5.55 13.6 -5.6 13.6 -5.65 13.65 -5.7 13.7 -5.75 13.75 -5.8 13.8 -5.8 13.85 -5.85 13.85 -5.85 13.9 -5.9 13.95 -5.95 14.0 -5.95 14.05 -5.95 14.1 -5.8 14.7 -5.5 16.0 -5.65 16.2 -6.0 16.55 -6.1 17.05 -6.25 18.05 -8.45 20.15 -12.8 24.35 -12.9 24.3 -12.95 24.2 -13.05 24.15 -13.15 24.05 -13.25 24.0 -13.35 23.9 -13.45 23.8 -13.55 23.7 -13.65 23.6 -13.75 23.5 -13.85 23.4 -13.95 23.3 -14.05 23.15 -14.15 23.05 -14.25 22.9 -14.35 22.75 -14.75 22.2 -15.05 21.6 -15.35 21.0 -15.55 20.35 -15.75 19.75 -15.85 19.1 -15.95 18.45 -16.0 17.75 -16.05 17.1 -16.0 16.4 -16.0 15.75 -15.95 15.0 -15.9 14.35 -15.8 13.55 -15.75 13.1 -15.6 12.15 -15.55 11.9 -15.55 11.65 -15.5 11.35 -15.5 11.1 -15.45 10.8 -15.4 10.5 -15.35 10.2 -15.3 9.9 -15.2 9.55 -15.15 9.2 -15.05 8.85 -14.95 8.45 -14.85 8.1 -14.75 7.7 -14.65 7.3 -14.5 6.9 -14.3 6.3 -14.2 5.95 -14.0 5.45 -13.85 5.0 -13.7 4.55 -13.55 4.1 -13.35 3.65 -13.15 3.2 -12.9 2.75 -12.7 2.35 -12.45 1.9 -12.15 1.5 -11.85 1.05 -11.55 0.65 -11.2 0.25 -10.85 -0.15 -10.4 -0.6 -9.85 -1.0 -9.45 -1.35 -8.95 -1.65 -8.5 -1.9 -8.05 -2.15 -7.75 -2.3 -7.25 -2.55 -6.75 -2.8 -6.55 -2.9 -6.25 -3.05 -6.05 -3.2 -5.85 -3.4 -5.75 -3.55 -5.6 -3.75 -5.6 -3.95 -5.6 -4.2 -5.75 -4.4 -5.9 -4.6 -6.15 -4.8 -6.35 -5.0 -6.65 -5.15 -6.95 -5.35 -7.3 -5.5 -7.65 -5.65 -8.0 -5.75 -8.35 -5.9 -8.7 -6.0 -9.05 -6.1 -9.4 -6.15 -9.7 -6.25 -9.95 -6.3 -10.45 -6.4 -10.95 -6.45 -11.4 -6.5 -11.9 -6.5 -12.3 -6.5 -12.75 -6.45 -13.15 -6.45 -13.6 -6.35 -13.95 -6.3 -14.35 -6.25 -14.65 -6.15 -15.0 -6.1 -15.3 -6.0 -15.6 -5.9 -15.8 -5.85 -16.1 -5.75 -16.65 -5.6 -17.2 -5.35 -17.7 -5.15 -18.2 -4.9 -18.65 -4.7 -19.15 -4.45 -19.55 -4.2 -20.0 -3.9 -20.4 -3.65 -20.85 -3.35 -21.2 -3.05 -21.6 -2.75 -21.95 -2.45 -22.35 -2.15 -22.6 -1.9 -23.15 -1.5 -23.5 -1.2 -23.85 -0.9 -24.15 -0.65 -24.45 -0.35 -24.7 -0.1 -25.0 0.2 -25.25 0.45 -25.5 0.7 -25.7 0.9 -25.9 1.15 -26.05 1.35 -26.25 1.55 -26.4 1.7 -26.55 1.9 -26.65 2.05 -26.75 2.15 -26.9 2.3 -27.0 2.45 -27.1 2.65 -27.25 2.8 -27.35 2.95 -27.45 3.1 -27.55 3.25 -27.65 3.35 -27.75 3.5 -27.85 3.65 -27.95 3.8 -28.05 3.9 -28.1 4.05 -28.2 4.15 -28.25 4.3 -28.35 4.4 -28.45 4.3 -28.5 4.2 -28.55 4.1 -28.65 4.0 -28.75 3.9 -28.8 3.75 -28.9 3.65 -29.0 3.5 -29.05 3.4 -29.15 3.25 -29.25 3.1 -29.35 2.95 -29.4 2.8 -29.5 2.6 -29.6 2.45 -29.65 2.3 -29.8 2.05 -29.9 1.8 -30.0 1.55 -30.05 1.35 -30.15 1.2 -30.2 0.95 -30.3 0.7 -30.3 0.65 -30.4 0.5 -30.45 0.35 -30.5 0.25 -30.55 0.15 -30.6 0.1 -30.7 0.0 -30.75 -0.05 -30.85 -0.1 -31.0 -0.15 -31.2 -0.15 -31.35 -0.15 -31.55 -0.1 -31.75 -0.05 -31.95 0.05 -32.15 0.15 -32.35 0.3 -32.55 0.45 -32.75 0.6 -32.95 0.8 -33.1 1.0 -33.3 1.15 -33.45 1.4 -33.6 1.6 -33.75 1.8 -33.85 1.95 -33.95 2.1 -34.0 2.3 -34.1 2.45 -34.15 2.6 -34.2 2.75 -34.25 2.9 -34.3 3.05 -34.3 3.2 -34.35 3.35 -34.4 3.45 -34.4 3.6 -34.4 3.7 -34.45 3.85 -34.45 3.9 -34.45 4.05 -34.55 4.7 -34.55 5.0 -34.65 5.5 -34.65 5.85 -34.7 6.3 -34.75 6.65 -34.75 7.05 -34.8 7.35 -34.8 7.75 -34.8 8.05 -34.8 8.4 -34.8 8.75 -34.8 9.1 -34.75 9.45 -34.75 9.8 -34.7 10.2 -34.65 10.6 -34.6 10.85 -34.55 11.3 -34.45 11.75 -34.35 12.3 -34.25 12.8 -34.1 13.45 -33.9 14.05 -33.7 14.75 -33.45 15.4 -33.15 16.15 -32.8 16.85 -32.45 17.65 -32.05 18.4 -31.6 19.2 -31.05 19.95 -30.75 20.35 -30.5 20.75 -30.2 21.1 -29.9 21.45 -29.6 21.75 -29.35 22.1 -29.05 22.4 -28.75 22.7 -28.5 22.95 -28.2 23.25 -27.95 23.5 -27.65 23.75 -27.4 23.95 -27.1 24.2 -26.9 24.4 -26.55 24.7 -26.3 24.9 -26.15 25.0 -25.9 25.25 -25.65 25.45 -25.3 25.7 -24.95 25.95 -24.55 26.25 -24.15 26.5 -23.7 26.85 -23.25 27.15 -22.7 27.45 -22.2 27.8 -21.6 28.15 -21.05 28.45 -20.4 28.8 -19.75 29.15 -19.55 29.25 -19.35 29.35 -19.15 29.45 -18.95 29.55 -18.75 29.6 -18.55 29.7 -18.4 29.8 -18.2 29.85 -18.05 29.95 -17.9 30.0 -17.7 30.05 -17.55 30.15 -17.4 30.2 -17.25 30.25 -17.15 30.3 -17.0 30.35 -17.15 30.55 -17.3 30.75 -17.45 30.95 -17.55 31.15 -17.75 31.4 -17.9 31.65 -18.05 31.95 -18.2 32.25 -18.35 32.55 -18.5 32.85 -18.65 33.2 -18.8 33.55 -18.9 33.9 -19.05 34.25 -19.15 34.65 -19.25 35.05 -19.3 35.3 -19.35 35.6 -19.45 35.85 -19.45 36.15 -19.5 36.4 -19.55 36.65 -19.55 36.9 -19.6 37.1 -19.6 37.35 -19.6 37.6 -19.6 37.8 -19.6 38.0 -19.6 38.2 -19.6 38.4 -19.6 38.6 -19.6 38.8 -22.5 42.25 -24.65 44.7 -24.8 44.85 -24.9 45.0 -25.05 45.15 -25.2 45.3 -25.35 45.5 -25.5 45.65 -25.65 45.85 -25.75 46.05 -25.9 46.3 -26.05 46.55 -26.2 46.8 -26.3 47.05 -26.45 47.3 -26.55 47.6 -26.65 47.9 -26.75 48.2 -26.8 48.45 -26.8 48.5 -26.85 48.7 -26.9 48.85 -26.9 49.0 -26.95 49.2 -26.95 49.4 -26.95 49.55 -27.0 49.75 -26.95 49.95 -26.95 50.15 -26.95 50.35 -26.9 50.6 -26.85 50.8 -26.8 51.0 -26.7 51.25 -26.55 51.55 -26.35 51.85 -26.2 52.1 -25.95 52.3 -25.75 52.5 -25.5 52.7 -25.3 52.85 -25.05 53.0 -24.85 53.1 -24.6 53.2 -24.4 53.3 -24.2 53.4 -24.05 53.45 -23.9 53.5 -23.85 53.5 -23.75 53.55 -23.45 53.65 -23.1 53.65 -22.85 53.7 -22.55 53.7 -22.25 53.7 -22.0 53.65 -21.75 53.6 -21.5 53.55 -21.3 53.5 -21.05 53.45 -20.9 53.4 -20.7 53.3 -20.6 53.25 -20.45 53.2 -20.35 53.15 -20.25 53.1 -19.9 52.95 -19.5 52.8 -19.1 52.65 -18.75 52.5 -18.35 52.35 -17.95 52.25 -17.55 52.1 -17.15 51.95 -16.75 51.8 -16.35 51.65 -15.9 51.5 -15.5 51.4 -15.05 51.25 -14.6 51.1 -14.2 51.0 -13.75 50.85 -13.35 50.75 -12.95 50.6 -12.55 50.5 -12.15 50.4 -11.75 50.3 -11.35 50.2 -10.95 50.1 -10.6 50.0 -10.2 49.9 -9.8 49.8 -9.45 49.7 -9.1 49.65 -8.7 49.55 -8.35 49.45 -8.0 49.4 -7.6 49.3 -4.75 49.2 -2.55 49.15 1.1 49.15 3.15 49.25 9.1 49.45 11.7 49.75 12.6 49.9 12.9 49.9 13.5 50.0 13.9 50.05 14.45 50.15 14.85 50.2 15.3 50.3 15.7 50.4 16.1 50.45 16.5 50.55 16.9 50.65 17.25 50.75 17.6 50.9 17.95 51.0 18.3 51.15 18.7 51.3 20.6 52.15 24.45 54.7 25.4 55.3 25.85 55.7 26.05 55.85 26.2 56.05 26.35 56.2 26.5 56.35 26.6 56.45 26.75 56.6 26.35 56.15 26.95 56.8 27.05 56.95 27.1 57.0 27.2 57.1 27.3 57.2 27.4 57.25 27.5 57.35 27.6 57.4 27.75 57.45 27.85 57.5 28.0 57.55 28.15 57.6 28.3 57.65 28.45 57.7 28.6 57.7 28.75 57.75 28.9 57.75 29.05 57.75 29.2 57.75 29.35 57.7 29.5 57.7 29.7 57.65 29.8 57.6 29.95 57.5 30.1 57.45 30.2 57.4 30.25 57.3 30.35 57.25 30.4 57.15 30.45 57.1 30.5 57.0 30.55 56.9 30.6 56.75 30.65 56.65 30.7 56.45 30.85 56.15 30.85 56.05 30.95 55.75 31.05 55.5 31.2 55.2 31.35 54.85 31.45 54.6 31.55 54.35 31.65 54.15 31.75 53.95 31.8 53.85 31.9 53.6 31.95 53.45 32.0 53.35 32.05 53.25 32.1 53.15 32.15 53.0 32.2 52.9 32.2 52.8 32.25 52.7 32.25 52.55 32.3 52.4 32.3 52.3 32.3 52.2 32.3 52.15 32.3 52.05 32.3 52.0 32.3 51.95 32.3 51.9 32.3 51.8 32.3 51.65 32.3 51.6 32.3 51.45 32.25 51.3 32.25 51.15 32.25 50.95 32.25 50.75 32.25 50.5 32.25 50.2 32.25 50.0 32.25 49.75 32.25 49.55 32.25 49.4 32.3 49.25 32.2 50.45 32.3 49.0 32.3 48.9 32.3 48.8 32.3 48.7 32.3 48.6 32.3 48.5 32.3 48.4 32.25 48.3 32.25 48.15 32.25 48.05 32.2 47.95 32.2 47.85 32.15 47.75 32.15 47.65 32.1 47.5 32.1 47.4 32.05 47.25 32.0 47.1 31.95 47.0 31.9 46.85 31.8 46.7 31.75 46.55 31.65 46.4 31.55 46.25 31.45 46.15 31.4 46.1 31.35 46.0 31.3 45.95 31.25 45.9 31.15 45.8 31.1 45.75 31.05 45.7 31.0 45.65 30.95 45.6 30.85 45.55 30.8 45.45 30.7 45.4 30.65 45.35 30.55 45.3 30.5 45.25 30.35 45.15 30.3 45.1 30.25 45.05 30.2 45.0 30.15 44.95 30.05 44.9 30.0 44.85 29.9 44.8 29.8 44.75 29.75 44.65 29.65 44.6 29.5 44.55 29.4 44.45 29.3 44.4 29.2 44.35 29.05 44.25 28.9 44.2 28.8 44.15 28.7 44.1 28.55 44.0 28.45 43.95 28.35 43.9 28.25 43.85 28.1 43.75 28.0 43.7 27.85 43.65 27.7 43.6 27.6 43.55 27.45 43.45 27.3 43.4 27.15 43.35 27.0 43.3 26.8 43.25 26.7 43.25 26.6 43.2 26.35 43.15 26.4 43.15 26.3 43.1 26.2 43.1 26.1 43.05 26.0 43.05 25.9 43.0 25.85 42.95 25.75 42.95 25.65 42.9 25.6 42.85 25.5 42.8 25.4 42.7 25.3 42.65 25.25 42.6 25.2 42.55 25.15 42.5 25.1 42.45 25.05 42.4 25.0 42.35 24.95 42.3 24.95 42.25 24.9 42.2 24.9 42.15 24.9 42.1 24.85 42.05 24.85 42.05 24.85 42.0 24.85 42.0 24.8 41.95 24.8 41.9 24.8 41.85 24.75 41.75 24.75 41.7 24.75 41.65 24.75 41.6 24.75 41.55 24.75 41.5 24.8 41.45 24.8 41.35 24.8 41.3 24.8 41.25 24.8 41.2 24.85 41.15 24.85 41.1 24.85 41.05 24.85 41.0 24.9 40.95 24.9 40.85 24.95 40.8 24.95 40.7 25.0 40.65 25.0 40.55 25.05 40.5 25.1 40.4 25.15 40.3 25.2 40.2 25.25 40.1 25.3 40.05 25.35 39.95 25.45 39.85 25.5 39.75 25.55 39.75 25.6 39.75 25.65 39.75 25.7 39.75 25.75 39.75 25.8 39.8 25.85 39.8 25.9 39.8 25.95 39.8 26.0 39.85 26.1 39.85 26.15 39.85 26.2 39.9 26.25 39.9 26.35 39.95 26.4 39.95 26.45 40.0 26.5 40.0 26.55 40.05 26.65 40.1 26.7 40.15 26.75 40.2 26.85 40.25 26.9 40.3 27.0 40.4 27.1 40.5 27.2 40.6 27.3 40.7 27.4 40.85 27.55 41.0 27.65 41.15 27.8 41.3 27.9 41.45 28.75 42.6 29.65 43.8 29.85 44.0 29.95 44.1 30.0 44.1 30.05 44.2 30.1 44.25 30.2 44.3 30.3 44.35 30.35 44.45 30.45 44.5 30.55 44.55 30.65 44.6 30.75 44.65 30.85 44.7 30.95 44.75 31.1 44.8 31.2 44.85 31.35 44.85 31.45 44.9 31.6 44.9 31.7 44.9 31.85 44.9 31.95 44.9 32.05 44.9 32.15 44.9 32.25 44.9 32.35 44.85 32.45 44.85 32.55 44.85 32.65 44.8 32.7 44.8 32.8 44.75 32.85 44.75 32.9 44.7 33.1 44.65 33.25 44.55 33.4 44.5 33.6 44.4 33.7 44.3 33.85 44.2 33.95 44.1 34.1 44.0 34.2 43.9 34.3 43.8 34.35 43.75 34.45 43.65 34.5 43.6 34.55 43.5 34.6 43.45 34.6 43.4 34.8 43.15 34.95 42.8 35.1 42.5 35.2 42.2 35.3 41.9 35.35 41.55 35.4 41.2 35.4 40.85 35.4 40.55 35.35 40.15 35.35 39.85 35.3 39.45 35.25 39.15 35.2 38.75 35.15 38.55 35.1 38.1 34.95 37.25 34.5 35.75 34.45 35.55 34.4 35.35 34.35 35.2 34.3 35.0 34.25 34.85 34.15 34.65 34.1 34.5 34.05 34.35 34.0 34.2 33.95 34.05 33.9 33.9 33.85 33.75 33.8 33.65 33.75 33.5 33.7 33.4 33.65 33.25 33.7 33.25 33.75 33.3 33.8 33.35 33.85 33.35 33.95 33.4 34.05 33.4 34.1 33.45 34.2 33.45 34.35 33.5 34.45 33.5 34.55 33.5 34.7 33.5 34.8 33.5 34.95 33.5 35.05 33.45 35.2 33.4 35.25 33.4 35.3 33.35 35.35 33.35 35.4 33.35 35.45 33.3 35.5 33.3 35.5 33.3 35.55 33.25 35.6 33.25 35.65 33.2 35.65 33.2 35.7 33.15 35.75 33.15 35.75 33.1 35.8 33.1 35.8 33.1 35.8 32.9 35.75 32.35 35.75 31.45 35.75 31.3 35.8 31.25 35.85 31.15 35.85 31.1 35.95 31.05 36.0 31.0 36.05 30.95 36.1 30.95 36.2 30.9 36.25 30.85 36.35 30.8 36.4 30.8 36.5 30.75 36.55 30.7 36.65 30.7 36.75 30.65 36.85 30.65 36.9 30.6 37.0 30.6 37.05 30.6 37.1 30.55 37.2 30.55 37.3 30.5 37.35 30.5 37.45 30.5 37.55 30.45 37.65 30.45 37.75 30.45 37.85 30.45 38.0 30.45 38.1 30.45 38.2 30.45 38.35 30.45 38.3 30.4 38.3 30.35 38.2 30.3 38.15 30.25 38.1 30.1 38.0 30.0 37.95 29.9 37.85 29.75 37.8 29.6 37.7 29.45 37.65 29.25 37.6 29.1 37.6 28.9 37.6 28.7 37.6 28.5 37.65 28.35 37.7 28.25 37.7 28.15 37.75 28.05 37.8 27.95 37.85 27.9 37.9 27.8 37.95 27.75 38.0 27.65 38.05 27.6 38.1 27.55 38.15 27.5 38.2 27.45 38.25 27.4 38.3 27.35 38.35 27.3 38.4 27.25 38.55 27.15 38.65 27.05 38.8 26.95 38.95 26.9 39.1 26.8 39.2 26.75 39.35 26.7 39.45 26.65 39.6 26.65 39.7 26.6 39.8 26.6 39.9 26.55 40.0 26.55 40.1 26.55 40.2 26.55 40.25 26.55 40.2 26.45 40.2 26.4 40.2 26.35 40.15 26.25 40.15 26.2 40.1 26.1 40.1 26.05 40.05 25.95 40.05 25.85 40.0 25.75 40.0 25.7 39.95 25.6 39.95 25.5 39.9 25.4 39.9 25.3 39.85 25.2 39.8 24.95 39.8 24.9 39.75 24.75 39.75 24.65 39.75 24.55 39.75 24.45 39.7 24.35 39.7 24.25 39.7 24.15 39.7 24.1 39.7 24.0 39.75 23.95 39.75 23.85 39.75 23.8 39.8 23.75 39.85 23.7 39.9 23.6 40.0 23.55 40.1 23.45 40.25 23.45 40.35 23.4 40.45 23.4 40.6 23.35 40.7 23.35 40.8 23.35 40.95 23.35 41.05 23.35 41.15 23.4 41.2 23.4 41.3 23.4 41.35 23.4 41.35 23.45 41.3 23.3 41.3 23.2 41.25 23.05 41.25 22.95 41.2 22.8 41.2 22.7 41.15 22.6 41.1 22.45 41.1 22.35 41.05 22.25 41.0 22.2 41.0 22.1 40.95 22.0 40.9 21.95 40.9 21.85 40.85 21.8 40.8 21.7 40.75 21.55 40.75 21.5 40.65 21.35 40.6 21.2 40.6 21.15 40.55 21.05 40.55 21.0 40.5 20.9 40.5 20.8 40.45 20.7 40.45 20.65 40.45 20.55 40.45 20.45 40.45 20.4 40.45 20.3 40.45 20.2 40.5 20.15 40.5 20.05 40.5 19.95 40.55 19.9 40.6 19.85 40.6 19.75 40.65 19.7 40.65 19.65 40.7 19.6 40.75 19.55 40.75 19.5 40.8 19.45 40.8 19.45 40.85 19.4 40.85 19.35 L40.85 19.35 M12.55 20.9 Q12.45 20.9 12.3 20.9 12.2 20.9 12.05 20.9 11.95 20.9 11.85 20.9 11.7 20.9 11.6 20.85 11.45 20.85 11.35 20.85 11.2 20.8 11.1 20.8 10.95 20.75 10.85 20.75 10.75 20.7 10.6 20.65 10.4 20.6 10.2 20.5 10.0 20.45 9.8 20.35 9.6 20.25 9.4 20.15 9.25 20.05 9.05 19.95 8.85 19.85 8.65 19.75 8.5 19.65 8.3 19.5 8.1 19.4 7.95 19.25 7.75 19.15 7.6 19.0 7.5 18.95 7.4 18.85 7.3 18.8 7.25 18.75 7.15 18.65 7.05 18.6 6.95 18.5 6.9 18.45 6.8 18.35 6.7 18.3 6.6 18.2 6.55 18.15 6.45 18.05 6.4 17.95 6.3 17.85 6.25 17.8 6.15 17.7 6.1 17.6 6.0 17.45 5.9 17.35 5.85 17.25 5.75 17.15 5.7 17.0 5.65 16.9 5.55 16.8 5.5 16.65 5.45 16.55 5.4 16.45 5.35 16.3 5.3 16.2 5.25 16.05 5.2 15.9 5.15 15.75 5.15 15.65 5.1 15.5 5.1 15.35 5.05 15.2 5.05 15.1 5.05 14.95 5.05 14.8 5.05 14.7 5.05 14.55 5.05 14.4 5.05 14.25 5.05 14.15 5.1 14.0 5.1 13.85 5.15 13.7 5.15 13.6 5.2 13.45 5.2 13.35 5.25 13.25 5.25 13.15 5.3 13.0 5.35 12.9 5.4 12.8 5.45 12.7 5.5 12.55 5.5 12.45 5.55 12.35 5.6 12.25 5.65 12.1 5.7 12.05 5.75 11.9 5.8 11.8 5.85 11.7 5.9 11.6 5.95 11.5 6.0 11.4 6.1 11.3 6.15 11.2 6.2 11.1 6.25 11.05 6.35 10.95 6.4 10.85 6.45 10.75 6.55 10.65 6.6 10.55 6.65 10.5 6.75 10.4 6.8 10.35 6.85 10.25 6.9 10.2 7.0 10.1 7.05 10.05 7.1 10.0 7.15 9.9 7.25 9.85 7.3 9.8 7.35 9.75 7.45 9.65 7.5 9.6 7.55 9.55 7.65 9.5 7.7 9.45 7.8 9.4 7.85 9.35 7.85 9.35 7.9 9.3 7.9 9.25 7.95 9.25 8.0 9.2 8.0 9.2 8.05 9.15 8.1 9.15 8.1 9.1 8.15 9.1 8.2 9.05 8.25 9.05 8.25 9.05 8.3 9.0 8.35 9.0 8.4 8.95 8.45 8.9 8.45 8.9 8.5 8.85 8.55 8.8 8.6 8.75 8.65 8.75 8.7 8.7 8.75 8.65 8.8 8.65 8.85 8.6 8.9 8.55 8.95 8.55 8.95 8.5 9.0 8.5 9.05 8.45 9.15 8.4 9.3 8.3 9.4 8.25 9.55 8.2 9.65 8.15 9.8 8.1 9.9 8.1 10.05 8.05 10.15 8.0 10.3 8.0 10.4 7.95 10.55 7.95 10.65 7.9 10.8 7.9 10.9 7.85 11.05 7.85 11.15 7.85 11.25 7.85 11.35 7.85 11.45 7.85 11.55 7.85 11.65 7.85 11.8 7.85 11.9 7.85 12.0 7.85 12.1 7.85 12.2 7.9 12.3 7.9 12.4 7.9 12.5 7.95 12.6 7.95 12.7 8.0 12.8 8.0 12.9 8.05 13.0 8.05 13.1 8.1 13.2 8.1 13.3 8.15 13.4 8.2 13.5 8.2 13.6 8.25 13.7 8.3 13.8 8.35 13.9 8.4 13.95 8.45 14.05 8.5 14.15 8.55 14.25 8.6 14.3 8.6 14.35 8.65 14.45 8.7 14.6 8.75 14.7 8.8 14.8 8.85 14.85 8.9 14.95 8.95 15.05 9.0 15.1 9.05 15.2 9.1 15.3 9.15 15.35 9.2 15.45 9.25 15.5 9.3 15.6 9.35 15.65 9.4 15.75 9.45 15.8 9.5 15.9 9.6 16.0 9.65 16.05 9.7 16.15 9.8 16.2 9.85 16.3 9.9 16.35 9.95 16.45 10.05 16.5 10.1 16.6 10.15 16.65 10.25 16.7 10.3 16.8 10.35 16.85 10.45 16.9 10.5 17.0 10.6 17.05 10.65 17.15 10.75 17.2 10.85 17.25 10.9 17.3 11.0 17.4 11.1 17.45 11.2 17.5 11.25 17.6 11.35 17.65 11.45 17.7 11.55 17.75 11.65 17.8 11.75 17.9 11.8 17.95 11.9 18.0 12.0 18.05 12.1 18.1 12.25 18.15 12.3 18.2 12.4 18.2 12.5 18.25 12.6 18.3 12.7 18.35 12.8 18.35 12.9 18.4 13.0 18.4 13.1 18.45 13.2 18.5 13.3 18.5 13.4 18.55 13.5 18.55 13.6 18.55 13.7 18.55 13.75 18.6 13.85 18.6 13.9 18.6 13.95 18.6 14.05 18.6 14.1 18.65 14.2 18.65 14.25 18.65 14.3 18.65 14.35 18.65 14.45 18.65 14.5 18.65 14.6 18.65 14.65 18.65 14.7 18.65 14.8 18.65 15.2 18.55 15.9 18.5 16.1 18.45 16.3 18.4 16.5 18.35 16.7 18.25 16.9 18.2 17.05 18.1 17.25 18.0 17.45 17.95 17.6 17.8 17.8 17.7 18.0 17.6 18.15 17.5 18.3 17.35 18.5 17.25 18.65 17.1 18.8 17.05 18.85 16.95 18.95 16.9 19.0 16.85 19.1 16.75 19.15 16.7 19.25 16.6 19.3 16.55 19.35 16.45 19.4 16.35 19.5 16.3 19.55 16.2 19.6 16.15 19.65 16.05 19.75 15.95 19.8 15.9 19.85 15.8 19.9 15.7 19.95 15.65 20.0 15.55 20.05 15.45 20.1 15.35 20.15 15.25 20.2 15.15 20.25 15.05 20.3 14.95 20.35 14.85 20.35 14.75 20.4 14.65 20.45 14.55 20.5 14.5 20.5 14.4 20.55 14.3 20.6 14.15 20.6 14.05 20.65 13.95 20.7 13.85 20.7 13.7 20.75 13.6 20.75 13.5 20.8 13.35 20.8 13.25 20.8 13.15 20.85 13.0 20.85 12.9 20.85 12.8 20.85 12.7 20.9 12.55 20.9 L12.55 20.9 M21.7 22.25 Q21.55 22.6 20.85 23.45 20.8 23.5 20.45 24.0 20.45 24.0 20.4 24.0 20.4 24.05 20.35 24.05 20.35 24.1 20.35 24.1 20.3 24.1 20.3 24.15 20.15 24.35 20.1 24.45 20.1 24.45 19.45 25.65 19.2 26.05 18.85 26.7 18.3 27.55 18.2 27.7 18.1 27.85 18.05 27.95 17.95 28.1 17.85 28.2 17.75 28.35 17.7 28.45 17.55 28.55 17.45 28.65 17.35 28.75 17.25 28.85 17.1 28.9 17.0 29.0 16.85 29.05 16.7 29.05 16.55 29.1 16.4 29.1 16.3 29.1 16.25 29.05 16.15 29.05 16.1 29.0 16.0 29.0 15.95 28.95 15.9 28.9 15.85 28.8 15.8 28.75 15.8 28.7 15.75 28.6 15.75 28.55 15.7 28.45 15.7 28.4 15.7 28.3 15.75 28.2 15.75 28.15 15.75 28.1 15.75 28.1 15.8 28.05 15.8 28.0 15.8 27.95 15.85 27.9 15.85 27.85 15.85 27.8 15.8 27.75 15.8 27.7 15.8 27.65 15.8 27.6 15.8 27.55 15.8 27.55 15.8 27.5 15.8 27.45 15.8 27.4 15.9 26.75 16.3 25.45 16.35 25.35 16.35 25.25 16.4 25.15 16.45 25.05 16.45 24.95 16.5 24.85 16.5 24.75 16.55 24.65 16.6 24.55 16.6 24.45 16.65 24.35 16.65 24.3 16.65 24.2 16.7 24.1 16.7 24.0 16.75 23.9 16.85 23.2 16.95 22.65 17.0 22.45 17.0 22.3 17.05 22.15 17.05 22.0 17.1 21.8 17.15 21.65 17.2 21.5 17.25 21.35 17.3 21.2 17.35 21.05 17.45 20.85 17.5 20.7 17.6 20.55 17.65 20.45 17.75 20.3 17.85 20.15 17.9 20.1 17.9 20.05 17.95 20.05 17.95 20.0 18.0 19.95 18.05 19.95 18.1 19.9 18.1 19.9 18.15 19.9 18.15 19.85 18.2 19.85 18.25 19.85 18.25 19.8 18.3 19.8 18.35 19.8 18.35 19.8 18.4 19.8 18.45 19.8 18.45 19.8 18.5 19.8 18.55 19.8 18.6 19.8 18.6 19.8 18.65 19.8 18.15 19.75 18.7 19.8 18.75 19.8 18.8 19.85 18.8 19.85 18.85 19.85 18.9 19.85 18.95 19.85 19.0 19.85 19.0 19.85 19.05 19.85 19.1 19.85 19.15 19.85 19.2 19.85 19.2 19.85 19.25 19.85 19.8 19.9 20.05 19.95 20.15 19.95 20.25 20.0 20.35 20.05 20.4 20.05 20.5 20.1 20.6 20.15 20.7 20.15 20.75 20.2 20.85 20.25 20.95 20.3 21.0 20.35 21.1 20.4 21.15 20.45 21.25 20.55 21.3 20.6 21.4 20.65 21.5 20.75 21.55 20.8 21.6 20.9 21.65 21.0 21.7 21.1 21.75 21.2 21.8 21.3 21.8 21.4 21.85 21.5 21.85 21.6 21.85 21.7 21.85 21.8 21.8 21.9 21.8 22.05 21.75 22.15 21.7 22.25 L21.7 22.25 M35.55 22.25 Q35.5 22.35 35.45 22.45 35.4 22.5 35.35 22.6 35.3 22.7 35.25 22.8 35.2 22.85 35.1 22.95 35.05 23.05 35.0 23.15 34.95 23.2 34.85 23.3 34.8 23.35 34.7 23.45 34.65 23.55 34.6 23.6 34.5 23.7 34.45 23.75 34.35 23.85 34.25 23.9 34.2 24.0 34.1 24.05 34.0 24.15 33.9 24.2 33.85 24.3 33.75 24.35 33.65 24.4 33.55 24.5 33.45 24.55 33.4 24.6 33.3 24.65 33.2 24.75 33.1 24.8 33.0 24.85 32.9 24.9 32.8 24.95 32.7 25.0 32.6 25.05 32.5 25.1 32.4 25.15 32.3 25.2 32.2 25.25 32.1 25.3 32.0 25.3 31.9 25.35 31.8 25.4 31.7 25.45 31.55 25.45 31.45 25.5 31.35 25.5 31.25 25.55 31.15 25.6 31.05 25.6 30.95 25.65 30.8 25.65 30.7 25.7 30.6 25.7 30.5 25.7 30.4 25.75 30.25 25.75 30.15 25.75 30.05 25.75 29.95 25.75 29.85 25.75 29.75 25.75 29.65 25.75 29.5 25.75 29.4 25.75 29.3 25.75 29.2 25.75 29.05 25.7 28.95 25.7 28.85 25.7 28.75 25.65 28.65 25.65 28.55 25.6 28.4 25.6 28.3 25.55 28.2 25.5 28.1 25.5 27.4 25.2 27.05 25.0 26.75 24.85 26.15 24.35 25.95 24.2 25.8 24.05 25.65 23.9 25.5 23.75 25.35 23.6 25.25 23.4 25.1 23.2 25.0 23.0 24.9 22.85 24.8 22.65 24.7 22.45 24.6 22.25 24.5 22.05 24.45 21.8 24.35 21.6 24.3 21.4 24.25 21.3 24.25 21.25 24.2 21.15 24.2 21.05 24.15 21.0 24.15 20.9 24.1 20.8 24.1 20.75 24.05 20.65 24.05 20.55 24.0 20.5 24.0 20.4 24.0 20.3 23.95 20.25 23.95 20.15 23.95 20.05 23.85 19.7 23.8 19.15 23.8 19.05 23.75 18.95 23.75 18.85 23.75 18.8 23.75 18.7 23.75 18.6 23.75 18.5 23.75 18.4 23.75 18.35 23.75 18.25 23.8 18.15 23.8 18.05 23.8 17.95 23.8 17.85 23.85 17.75 23.85 17.65 23.9 17.45 24.1 16.9 24.1 16.85 24.15 16.8 24.15 16.75 24.2 16.65 24.2 16.6 24.25 16.55 24.25 16.5 24.3 16.45 24.3 16.35 24.35 16.3 24.35 16.25 24.4 16.2 24.4 16.15 24.45 16.1 24.45 16.0 24.5 15.95 24.55 15.9 24.55 15.85 24.6 15.8 24.65 15.75 24.65 15.7 24.7 15.65 24.75 15.6 24.8 15.55 24.8 15.5 24.85 15.45 24.9 15.4 24.95 15.35 25.0 15.3 25.0 15.25 25.05 15.2 25.1 15.15 25.1 15.1 25.15 15.1 25.2 15.05 25.2 15.05 25.25 15.0 25.25 15.0 25.3 14.95 25.3 14.95 25.35 14.9 25.35 14.9 25.4 14.85 25.4 14.85 25.45 14.8 25.5 14.8 25.5 14.75 25.55 14.75 25.6 14.7 25.6 14.7 25.65 14.65 25.7 14.6 25.75 14.6 25.75 14.55 25.8 14.5 25.85 14.5 25.9 14.45 25.95 14.45 25.95 14.4 26.0 14.35 26.05 14.35 26.1 14.3 26.15 14.3 26.15 14.25 26.2 14.2 26.25 14.15 26.3 14.1 26.3 14.1 26.35 14.05 26.35 14.05 26.4 14.0 26.45 14.0 26.5 13.95 26.5 13.9 26.55 13.85 26.6 13.85 26.65 13.8 26.7 13.75 26.75 13.75 26.8 13.7 26.8 13.7 26.85 13.65 26.9 13.65 26.95 13.6 27.0 13.6 27.05 13.55 27.65 13.3 27.9 13.25 28.2 13.2 28.85 13.1 28.9 13.1 29.0 13.1 29.05 13.1 29.1 13.1 29.2 13.05 29.25 13.05 29.3 13.05 29.4 13.05 29.45 13.05 29.5 13.05 29.55 13.05 29.65 13.05 29.7 13.05 29.75 13.05 29.85 13.05 29.9 13.05 30.4 13.05 30.75 13.1 30.85 13.1 30.95 13.1 31.05 13.15 31.15 13.15 31.25 13.15 31.35 13.15 31.5 13.2 31.6 13.2 31.7 13.2 31.8 13.25 31.9 13.25 32.0 13.3 32.1 13.3 32.15 13.35 32.25 13.35 32.35 13.4 32.6 13.5 32.8 13.6 33.05 13.65 33.25 13.8 33.5 13.9 33.7 14.05 33.9 14.15 34.1 14.3 34.3 14.45 34.5 14.6 34.65 14.8 34.85 14.95 35.0 15.15 35.15 15.35 35.3 15.55 35.4 15.8 35.5 16.0 35.6 16.15 35.7 16.35 35.75 16.55 35.85 16.75 35.9 16.95 35.95 17.15 36.0 17.35 36.05 17.55 36.1 17.75 36.15 17.95 36.2 18.2 36.2 18.4 36.2 18.6 36.25 18.8 36.25 19.0 36.25 19.2 36.25 19.4 36.25 19.65 36.2 19.85 36.2 20.05 36.15 20.25 36.15 20.45 36.1 20.65 36.05 20.9 36.0 21.1 35.95 21.3 35.9 21.45 35.8 21.65 35.75 21.85 35.65 22.05 35.55 22.25 L35.55 22.25" fill="#d45900" fill-rule="evenodd" stroke="none"/>
  </g>
</svg>
