<?xml version="1.0" encoding="UTF-8" standalone="no"?>
<svg xmlns:xlink="http://www.w3.org/1999/xlink" height="200.0px" width="200.0px" xmlns="http://www.w3.org/2000/svg">
  <g transform="matrix(1.0, 0.0, 0.0, 1.0, 100.0, 100.0)">
    <path d="M-12.3 -66.6 Q-12.0 -66.4 -11.8 -66.15 -11.55 -65.9 -11.4 -65.65 -11.2 -65.4 -11.1 -65.15 -11.0 -64.9 -10.95 -64.6 -10.9 -64.35 -10.9 -64.05 -10.9 -63.75 -10.95 -63.45 -11.0 -63.15 -11.15 -62.85 -11.25 -62.55 -11.45 -62.25 -11.55 -62.05 -11.7 -61.9 -11.8 -61.7 -11.95 -61.55 -12.05 -61.35 -12.2 -61.2 -12.35 -61.05 -12.5 -60.9 -12.65 -60.8 -12.85 -60.65 -13.0 -60.5 -13.2 -60.4 -13.35 -60.25 -13.55 -60.15 -13.75 -60.05 -13.95 -59.95 -14.2 -59.8 -14.5 -59.75 -14.75 -59.65 -15.0 -59.65 -15.25 -59.65 -15.45 -59.7 -15.7 -59.7 -15.85 -59.8 -16.05 -59.9 -16.25 -60.05 -16.4 -60.2 -16.55 -60.4 -16.7 -60.6 -16.8 -60.8 -16.9 -61.05 -17.0 -61.35 -17.0 -61.5 -17.05 -61.8 -17.1 -62.05 -17.15 -62.2 -17.05 -62.65 -16.85 -63.05 -16.7 -63.5 -16.45 -63.9 -16.25 -64.25 -15.95 -64.6 -15.65 -64.95 -15.35 -65.25 -15.0 -65.55 -14.65 -65.8 -14.3 -66.0 -13.9 -66.2 -13.5 -66.35 -13.1 -66.45 -12.7 -66.55 -12.3 -66.6 L-12.3 -66.6" fill="#fefefe" fill-rule="evenodd" stroke="none"/>
  </g>
</svg>
