<?xml version="1.0" encoding="UTF-8" standalone="no"?>
<svg xmlns:xlink="http://www.w3.org/1999/xlink" height="10.95px" width="16.15px" xmlns="http://www.w3.org/2000/svg">
  <g transform="matrix(1.0, 0.0, 0.0, 1.0, 8.1, 5.5)">
    <path d="M-2.1 4.6 Q-2.1 4.6 -2.65 4.35 -2.95 4.2 -3.2 4.1 -3.5 3.95 -3.75 3.8 -4.05 3.65 -4.3 3.45 -4.55 3.3 -4.75 3.1 -5.0 2.9 -5.15 2.7 -5.35 2.45 -5.45 2.2 -5.6 1.95 -5.65 1.7 -5.65 1.6 -5.65 1.5 -5.65 1.4 -5.65 1.25 -5.6 1.2 -5.6 1.05 -5.55 0.95 -5.5 0.85 -5.5 0.8 -5.45 0.55 -5.35 0.4 -5.3 0.25 -5.25 0.05 -5.2 -0.15 -5.15 -0.4 -5.1 -0.65 -5.05 -0.95 -4.95 -1.2 -4.9 -1.5 -4.85 -1.75 -4.85 -1.95 -4.8 -2.2 -4.8 -2.35 -4.75 -2.6 -4.75 -2.75 -4.75 -2.95 -4.7 -3.3 -4.7 -3.3 -4.7 -3.5 -4.7 -3.6 -4.65 -3.8 -4.65 -3.95 -4.6 -4.2 -4.55 -4.4 -4.5 -4.7 -4.4 -4.95 -4.3 -5.2 -4.15 -5.5 -4.05 -5.75 -3.85 -6.05 -3.65 -6.35 -3.45 -6.7 -3.2 -7.0 -2.95 -7.3 -2.65 -7.65 -2.3 -8.0 -1.95 -8.35 -1.5 -8.7 -1.25 -8.55 -0.95 -8.4 -0.65 -8.25 -0.35 -8.1 -0.05 -7.95 0.25 -7.85 0.6 -7.7 0.95 -7.55 1.35 -7.4 1.7 -7.25 2.1 -7.15 2.5 -7.0 2.9 -6.9 3.35 -6.75 3.8 -6.65 4.2 -6.55 4.5 -6.5 4.85 -6.45 5.15 -6.35 5.45 -6.3 5.75 -6.3 6.05 -6.25 6.35 -6.2 6.65 -6.2 6.9 -6.15 7.2 -6.15 7.45 -6.1 7.7 -6.1 7.95 -6.1 8.25 -6.1 8.45 -6.05 8.7 -6.05 8.6 -5.6 8.55 -5.15 8.45 -4.75 8.4 -4.3 8.3 -3.85 8.25 -3.4 8.15 -2.95 8.1 -2.5 8.05 -2.05 7.95 -1.6 7.9 -1.1 7.8 -0.65 7.75 -0.2 7.7 0.25 7.6 0.7 7.55 1.2 7.25 3.05 7.0 5.2 6.0 7.45 5.0 9.7 4.5 9.2 4.0 8.75 3.5 8.3 3.0 7.9 2.5 7.5 2.05 7.15 1.55 6.8 1.1 6.5 0.65 6.2 0.25 5.9 -0.2 5.65 -0.6 5.4 -1.0 5.15 -1.4 4.95 -1.75 4.8 -2.1 4.6 L-2.1 4.6" fill="#434343" fill-rule="evenodd" stroke="none"/>
    <path d="M4.8 -3.3 Q4.8 -3.3 4.85 -3.25 4.8 -3.3 4.8 -3.3 4.8 -3.3 4.8 -3.3 L4.8 -3.3" fill="#000000" fill-rule="evenodd" stroke="none"/>
    <path d="M4.8 -3.35 Q4.8 -3.35 4.85 -3.35 4.85 -3.35 4.8 -3.35 4.8 -3.35 4.8 -3.35 L4.8 -3.35" fill="#000000" fill-rule="evenodd" stroke="none"/>
    <path d="M-5.4 2.6 Q-5.4 2.65 -5.35 2.7 -5.25 2.8 -5.25 2.85 -5.25 2.85 -5.25 2.85 -5.25 2.8 -5.3 2.8 -5.3 2.75 -5.35 2.7 -5.35 2.7 -5.35 2.65 -5.4 2.6 -5.4 2.6 L-5.4 2.6" fill="#000000" fill-rule="evenodd" stroke="none"/>
    <path d="M-5.85 2.05 Q-5.85 2.05 -5.55 2.4 -5.8 2.1 -5.85 2.05 -5.85 2.05 -5.85 2.05 -5.85 2.05 -5.85 2.05 L-5.85 2.05" fill="#000000" fill-rule="evenodd" stroke="none"/>
  </g>
</svg>
