<?xml version="1.0" encoding="UTF-8" standalone="no"?>
<svg xmlns:xlink="http://www.w3.org/1999/xlink" height="22.05px" width="17.8px" xmlns="http://www.w3.org/2000/svg">
  <g transform="matrix(1.0, 0.0, 0.0, 1.0, 8.9, 11.05)">
    <path d="M8.9 -8.55 Q8.0 -5.75 7.1 -2.9 L6.6 1.75 Q6.55 1.95 6.55 2.1 6.5 2.35 6.45 2.55 6.45 2.75 6.4 3.0 6.35 3.25 6.3 3.5 6.25 3.75 6.2 4.0 6.1 4.3 6.05 4.55 6.0 4.85 5.9 5.15 5.85 5.45 5.75 5.75 5.55 6.4 5.45 6.75 5.35 7.25 5.2 7.6 5.1 8.05 4.95 8.4 4.85 8.75 4.7 9.05 4.55 9.35 4.4 9.6 4.25 9.85 4.1 10.05 3.95 10.25 3.75 10.45 3.55 10.6 3.3 10.75 3.2 10.8 3.1 10.85 3.0 10.9 2.85 10.95 2.7 11.05 2.55 11.1 2.35 11.15 2.15 11.15 1.9 11.2 1.65 11.25 1.4 11.25 1.1 11.25 0.8 11.2 0.45 11.15 0.1 11.1 -0.25 11.0 -0.75 11.0 -1.15 10.95 -1.6 10.95 -1.95 10.85 -2.3 10.75 -2.6 10.65 -2.85 10.5 -3.1 10.35 -3.3 10.15 -3.45 9.95 -3.55 9.75 -3.65 9.45 -3.7 9.2 -3.7 8.9 -3.7 8.6 -3.65 8.25 -3.9 8.35 -4.15 8.45 -4.45 8.5 -4.65 8.55 -4.9 8.6 -5.15 8.65 -5.35 8.65 -5.6 8.7 -5.8 8.7 -6.0 8.65 -6.2 8.65 -6.35 8.6 -6.55 8.55 -6.75 8.5 -6.9 8.45 -7.05 8.35 -7.2 8.25 -7.3 8.15 -7.4 8.05 -7.55 7.95 -7.65 7.85 -7.7 7.7 -7.8 7.6 -7.9 7.4 -8.0 7.25 -8.05 7.1 -8.15 6.9 -8.25 6.7 -8.3 6.5 -8.4 6.25 -8.5 6.1 -8.6 5.75 -9.0 4.7 -9.3 3.9 -9.55 3.1 -9.8 2.5 -10.0 1.85 -10.15 1.4 -10.3 0.9 -10.4 0.6 -10.45 0.25 -10.5 0.0 -10.55 -0.2 -10.55 -0.35 -10.55 -0.5 -10.5 -0.6 -10.45 -0.65 -10.35 -0.75 -10.3 -0.8 -10.25 -0.85 -10.2 -0.85 -10.1 -0.9 -10.0 -0.9 -9.9 -0.95 -9.8 -0.95 -9.7 -0.95 -9.55 -0.95 -9.4 -0.9 -9.25 -0.9 -9.05 -0.85 -8.9 -0.8 -8.65 -0.75 -8.45 -0.65 -8.2 -0.55 -7.95 -0.55 -7.5 -0.5 -7.05 -0.5 -6.8 -0.5 -6.3 -1.5 -5.05 -4.05 -4.45 -5.4 -4.15 -6.1 -3.85 -6.45 -3.35 -7.15 -2.75 -8.45 -1.55 -11.05 L-1.55 -10.9 Q-1.35 -10.8 -1.2 -10.75 -1.0 -10.65 -0.8 -10.6 -0.6 -10.5 -0.4 -10.45 -0.2 -10.35 0.0 -10.3 0.2 -10.2 0.4 -10.15 0.6 -10.05 0.8 -10.0 1.05 -9.9 1.25 -9.85 1.5 -9.75 1.7 -9.7 2.2 -9.55 2.7 -9.4 3.2 -9.3 3.7 -9.2 4.15 -9.1 4.65 -9.0 5.1 -8.9 5.6 -8.85 6.0 -8.75 6.45 -8.7 6.9 -8.65 7.3 -8.65 7.7 -8.6 8.15 -8.6 8.5 -8.55 8.9 -8.55 L8.9 -8.55" fill="#434343" fill-rule="evenodd" stroke="none"/>
    <path d="M3.85 -3.9 Q3.85 -3.9 3.9 -3.85 3.85 -3.9 3.85 -3.9 3.85 -3.9 3.85 -3.9 L3.85 -3.9" fill="#000000" fill-rule="evenodd" stroke="none"/>
  </g>
</svg>
