<?xml version="1.0" encoding="UTF-8" standalone="no"?>
<svg xmlns:xlink="http://www.w3.org/1999/xlink" height="21.65px" width="22.3px" xmlns="http://www.w3.org/2000/svg">
  <g transform="matrix(1.0, 0.0, 0.0, 1.0, 11.15, 10.85)">
    <path d="M-0.65 10.8 Q-0.6 10.8 -0.55 10.8 -0.55 10.8 -0.5 10.8 -0.45 10.85 -0.4 10.85 -0.45 10.8 -0.5 10.8 -0.55 10.75 -0.55 10.75 -0.6 10.75 -0.65 10.8 L-0.65 10.8 Q-0.6 10.8 -0.55 10.8 -0.55 10.8 -0.5 10.8 -0.45 10.85 -0.4 10.85 -0.45 10.8 -0.5 10.8 -0.55 10.75 -0.55 10.75 -0.6 10.75 -0.65 10.8 L-0.65 10.8" fill="#000000" fill-rule="evenodd" stroke="none"/>
    <path d="M10.95 -7.85 Q10.95 -7.95 10.9 -8.0 10.9 -8.1 10.85 -8.15 10.8 -8.2 10.75 -8.25 10.7 -8.3 10.65 -8.35 10.6 -8.4 10.55 -8.4 10.45 -8.45 10.4 -8.5 10.3 -8.5 10.25 -8.5 10.2 -8.55 10.1 -8.55 7.85 -9.0 4.3 -9.75 -0.4 -10.7 -1.55 -10.95 -1.65 -10.95 -1.8 -11.0 -1.9 -11.0 -2.0 -10.95 -2.1 -10.95 -2.2 -10.9 -2.3 -10.9 -2.4 -10.85 -2.5 -10.8 -2.6 -10.75 -2.65 -10.7 -2.75 -10.6 -2.85 -10.55 -2.9 -10.45 -2.95 -10.35 -3.05 -10.3 -3.1 -10.2 -3.15 -10.15 -3.2 -10.05 -3.2 -10.0 -3.25 -9.9 -3.3 -9.85 -3.35 -9.75 -3.35 -9.7 -3.4 -9.6 -3.45 -9.55 -3.45 -9.45 -3.5 -9.4 -3.5 -9.3 -3.5 -9.2 -3.55 -9.15 -3.55 -9.05 -3.55 -8.75 -3.6 -8.45 -3.6 -8.2 -3.65 -7.9 -3.7 -7.6 -3.75 -7.35 -3.8 -7.05 -3.9 -6.75 -3.95 -6.5 -4.0 -6.2 -4.1 -5.95 -4.2 -5.65 -4.25 -5.4 -4.35 -5.1 -4.45 -4.85 -4.55 -4.55 -4.55 -4.5 -4.55 -4.5 -4.6 -4.45 -4.6 -4.4 -4.6 -4.4 -4.65 -4.35 -4.65 -4.3 -4.7 -4.25 -4.7 -4.25 -4.7 -4.2 -4.75 -4.15 -4.75 -4.1 -4.8 -4.1 -4.8 -4.05 -6.6 -1.25 -7.0 -0.4 -7.1 -0.25 -7.15 -0.05 -7.25 0.1 -7.3 0.3 -7.4 0.45 -7.45 0.6 -7.5 0.8 -7.55 0.95 -7.6 1.1 -7.65 1.3 -7.7 1.45 -7.75 1.65 -7.8 1.8 -7.8 2.0 -7.85 2.15 -7.85 2.35 -7.9 2.75 -8.0 3.55 -8.0 3.6 -8.0 3.75 -8.15 5.65 -8.25 6.0 -8.25 6.05 -8.3 6.1 -8.25 6.2 -8.2 6.3 -8.15 6.4 -8.1 6.5 -8.05 6.6 -8.0 6.7 -7.95 6.8 -7.9 6.9 -7.85 7.0 -7.8 7.1 -7.75 7.2 -7.7 7.3 -7.65 7.4 -7.6 7.5 -7.6 7.6 -7.55 7.7 -7.55 7.7 -7.55 7.7 -7.45 7.85 -7.3 8.0 -7.2 8.15 -7.1 8.3 -6.95 8.45 -6.8 8.6 -6.7 8.75 -6.55 8.9 -6.4 9.05 -6.25 9.2 -6.1 9.4 -5.95 9.55 -5.8 9.7 -5.65 9.85 -5.5 10.0 -5.3 10.15 -5.15 10.25 -5.05 10.4 -4.9 10.5 -4.8 10.6 -4.65 10.7 -4.5 10.85 -4.4 10.95 -4.25 11.05 -4.15 11.15 -4.0 11.2 -3.85 11.3 -3.75 11.4 -3.6 11.5 -3.5 11.6 -3.35 11.65 -3.25 11.75 -3.05 11.85 -2.85 11.95 -2.65 12.05 -2.5 12.15 -2.3 12.25 -2.1 12.3 -1.95 12.4 -1.8 12.45 -1.65 12.5 -1.45 12.55 -1.35 12.6 -1.2 12.65 -1.05 12.65 -0.9 12.7 -0.8 12.7 -0.7 12.75 -0.55 12.8 -0.4 12.8 -0.25 12.8 -0.05 12.85 0.1 12.85 0.25 12.85 0.35 12.85 0.5 12.85 0.65 12.85 0.8 12.85 0.9 12.85 1.0 12.85 1.1 12.85 1.25 12.85 1.3 12.85 1.4 12.85 1.5 12.85 1.55 12.85 1.6 12.85 1.7 12.85 1.75 12.85 1.85 12.85 1.9 12.85 1.95 12.85 2.0 12.8 2.1 12.8 2.15 12.8 2.2 12.8 2.25 12.8 2.3 12.8 2.35 12.8 2.4 12.8 2.45 12.8 2.5 12.75 2.55 12.75 2.65 12.75 2.7 12.75 2.75 12.7 2.8 12.7 2.85 12.7 2.9 12.7 3.0 12.7 3.05 12.65 3.1 12.65 3.15 12.65 3.2 12.65 3.25 12.65 3.35 12.65 3.7 12.65 4.25 12.65 4.3 12.65 4.35 12.6 4.45 12.6 4.5 12.55 4.6 12.55 4.7 12.55 4.75 12.5 4.85 12.5 4.95 12.45 5.0 12.45 5.1 12.4 5.2 12.4 5.25 12.35 5.35 12.35 5.4 12.3 5.5 12.25 5.55 12.25 5.65 12.2 5.7 12.05 5.8 11.9 5.85 11.7 5.9 11.55 5.95 11.4 6.0 11.2 6.05 11.05 6.1 10.85 6.1 10.7 6.15 10.5 6.15 10.35 6.15 10.15 6.2 10.0 6.2 9.8 6.2 9.6 6.2 9.45 6.2 9.1 6.2 8.35 6.2 7.65 6.2 7.3 6.2 7.05 6.2 6.85 6.2 6.6 6.2 6.35 6.2 6.15 6.25 5.9 6.25 5.7 6.3 5.45 6.3 5.25 6.35 5.0 6.4 4.55 6.45 4.5 6.45 4.25 6.5 4.05 6.5 3.8 6.55 3.6 6.7 1.65 6.9 1.15 7.15 0.4 7.75 -0.95 7.8 -1.1 7.9 -1.4 8.25 -2.45 8.3 -2.55 8.35 -2.6 8.35 -2.65 8.4 -2.7 8.4 -2.75 8.45 -2.75 8.5 -2.8 8.5 -2.85 8.55 -2.85 8.55 -2.9 8.6 -2.95 8.6 -2.95 8.65 -2.95 8.65 -3.0 8.7 -3.0 8.7 -3.0 8.7 -3.05 8.9 -3.25 9.1 -3.4 9.3 -3.6 9.45 -3.8 9.65 -4.0 9.8 -4.2 9.95 -4.4 10.1 -4.6 10.25 -4.8 10.4 -5.05 10.55 -5.25 10.65 -5.5 10.75 -5.75 10.85 -6.0 10.95 -6.25 11.0 -6.5 11.0 -6.6 11.05 -6.65 11.05 -6.75 11.05 -6.85 11.05 -6.9 11.05 -7.0 11.05 -7.1 11.05 -7.15 11.05 -7.25 11.05 -7.35 11.05 -7.45 11.0 -7.5 11.0 -7.6 11.0 -7.7 11.0 -7.75 10.95 -7.85 L10.95 -7.85 M5.85 -1.8 Q5.8 -1.65 5.6 -1.15 L5.6 -1.15 Q5.5 -0.95 5.35 -0.6 5.3 -0.45 5.25 -0.35 5.2 -0.2 5.15 -0.1 5.1 0.05 5.05 0.15 5.05 0.3 5.0 0.4 4.95 0.55 4.9 0.65 4.85 0.8 4.85 0.9 4.8 1.0 4.75 1.15 4.7 1.25 4.7 1.35 4.7 1.5 4.7 1.7 4.65 1.85 4.65 2.05 4.6 2.2 4.55 2.35 4.5 2.5 4.45 2.7 4.45 2.75 4.4 3.05 4.3 3.25 4.3 3.35 4.25 3.55 4.2 3.7 4.15 3.85 4.15 4.0 4.15 4.1 4.1 4.3 4.05 4.5 4.05 4.55 4.05 4.1 4.15 7.4 4.2 9.1 4.1 10.25 4.1 10.3 4.1 10.35 4.1 10.4 4.1 10.5 4.05 10.55 4.05 10.6 4.05 10.65 4.05 10.7 4.05 10.75 4.0 10.8 4.0 10.85 4.0 10.9 3.95 10.95 3.95 11.05 3.95 11.1 3.9 11.15 3.7 11.2 3.45 11.2 3.25 11.2 3.0 11.25 2.75 11.25 2.5 11.25 2.2 11.25 1.95 11.25 1.7 11.2 1.4 11.2 1.1 11.15 0.8 11.1 0.5 11.05 0.2 11.0 -0.1 10.95 -0.4 10.85 -0.45 10.85 -0.5 10.8 -0.65 10.8 -0.65 10.8 -1.1 10.65 -1.55 10.45 -1.95 10.3 -2.3 10.1 -2.7 9.9 -3.05 9.7 -3.35 9.5 -3.65 9.25 -3.95 9.05 -4.2 8.85 -4.45 8.65 -4.65 8.45 -4.85 8.25 -5.05 8.1 -5.15 7.95 -5.35 7.75 -5.45 7.65 -5.55 7.55 -5.65 7.45 -5.7 7.35 -5.8 7.25 -5.9 7.2 -5.95 7.1 -6.05 7.0 -6.15 6.9 -6.2 6.8 -6.3 6.7 -6.35 6.6 -6.45 6.5 -6.5 6.4 -6.55 6.3 -6.65 6.2 -6.55 6.0 -6.5 5.8 -6.4 5.6 -6.35 5.4 -6.3 5.2 -6.25 5.0 -6.2 4.8 -6.15 4.6 -6.1 4.4 -6.05 4.2 -6.0 3.95 -6.0 3.75 -5.95 3.55 -5.95 3.35 -5.9 3.15 -5.9 2.9 -5.9 2.75 -5.85 2.6 -5.85 2.45 -5.8 2.35 -5.8 2.2 -5.75 2.05 -5.7 1.9 -5.65 1.8 -5.6 1.65 -5.55 1.5 -5.5 1.4 -5.45 1.25 -5.4 1.15 -5.3 1.0 -5.25 0.9 -5.15 0.75 -4.55 -0.35 -4.3 -0.85 -4.15 -1.15 -3.7 -1.9 -3.7 -1.9 -3.7 -1.9 -3.65 -1.95 -3.6 -2.1 -3.55 -2.1 -3.55 -2.1 -3.5 -2.15 -3.5 -2.15 -3.45 -2.2 -3.45 -2.2 -3.45 -2.2 -3.4 -2.25 -3.35 -2.35 -3.25 -2.45 -3.2 -2.55 -3.1 -2.65 -3.05 -2.8 -2.95 -2.9 -2.85 -3.1 -2.8 -3.25 -2.7 -3.4 -2.65 -3.6 -2.55 -3.8 -2.5 -4.0 -2.45 -4.2 -2.4 -4.45 -2.35 -4.65 -2.3 -4.9 -1.8 -4.7 -1.3 -4.5 -0.75 -4.3 -0.25 -4.15 0.25 -4.0 0.8 -3.85 1.3 -3.75 1.85 -3.6 2.35 -3.5 2.95 -3.4 3.45 -3.3 4.0 -3.2 4.5 -3.15 5.1 -3.05 5.5 -3.0 6.2 -2.85 6.2 -2.8 6.05 -2.4 5.95 -2.1 5.85 -1.8 L5.85 -1.8 M7.75 -4.95 Q7.75 -4.95 7.7 -4.9 7.7 -4.9 7.65 -4.9 7.6 -4.85 7.55 -4.85 7.55 -4.85 7.5 -4.85 7.45 -4.85 7.4 -4.85 7.35 -4.85 7.35 -4.85 7.3 -4.85 7.25 -4.85 7.2 -4.85 7.15 -4.85 6.55 -4.9 6.0 -4.95 5.45 -5.0 4.9 -5.1 4.3 -5.2 3.75 -5.3 3.2 -5.4 2.65 -5.5 2.05 -5.6 1.5 -5.75 0.95 -5.9 0.4 -6.1 -0.15 -6.25 -0.7 -6.45 -1.25 -6.65 -1.75 -6.9 -1.7 -7.55 -1.55 -8.85 2.5 -8.0 9.05 -6.65 8.0 -5.25 7.75 -4.95 L7.75 -4.95" fill="#000000" fill-rule="evenodd" stroke="none"/>
    <path d="M2.7 1.05 Q2.7 1.1 2.75 1.1 2.75 1.1 2.7 1.05 2.7 1.05 2.7 1.05 L2.7 1.05" fill="#000000" fill-opacity="0.56078434" fill-rule="evenodd" stroke="none"/>
    <path d="M-3.6 -2.1 Q-3.6 -2.05 -3.7 -1.9 -3.6 -2.0 -3.45 -2.2 -3.5 -2.15 -3.5 -2.15 -3.55 -2.1 -3.6 -2.1 L-3.6 -2.1 M7.75 -0.95 Q7.9 -1.35 7.9 -1.4 7.85 -1.25 7.75 -0.95 L7.75 -0.95" fill="#000000" fill-rule="evenodd" stroke="none"/>
    <path d="M2.7 1.05 Q2.7 1.1 2.75 1.1 2.75 1.1 2.7 1.05 2.7 1.05 2.7 1.05 L2.7 1.05" fill="#000000" fill-rule="evenodd" stroke="none"/>
  </g>
</svg>
