<?xml version="1.0" encoding="UTF-8" standalone="no"?>
<svg xmlns:xlink="http://www.w3.org/1999/xlink" height="24.7px" width="20.9px" xmlns="http://www.w3.org/2000/svg">
  <g transform="matrix(1.0, 0.0, 0.0, 1.0, 10.45, 12.35)">
    <path d="M3.3 -3.5 Q3.3 -3.5 3.35 -3.45 3.3 -3.45 3.3 -3.5 3.3 -3.5 3.3 -3.5 L3.3 -3.5" fill="#000000" fill-opacity="0.6" fill-rule="evenodd" stroke="none"/>
    <path d="M8.05 -9.9 Q7.6 -9.95 7.15 -10.0 6.7 -10.1 6.25 -10.15 5.8 -10.2 5.35 -10.3 4.9 -10.35 4.5 -10.45 4.05 -10.55 3.6 -10.65 3.15 -10.75 2.75 -10.85 2.3 -10.95 1.85 -11.1 1.45 -11.25 1.0 -11.4 0.3 -11.65 -1.25 -12.4 -1.35 -12.45 -1.45 -12.5 -1.55 -12.55 -1.65 -12.55 -1.7 -12.55 -1.8 -12.6 -1.9 -12.6 -1.95 -12.6 -2.05 -12.55 -2.15 -12.55 -2.2 -12.5 -2.3 -12.5 -2.4 -12.45 -2.45 -12.35 -2.55 -12.3 -2.65 -12.25 -2.85 -12.05 -2.8 -12.05 -2.95 -11.95 -3.05 -11.85 -3.15 -11.7 -3.25 -11.55 -3.4 -11.4 -3.5 -11.2 -3.6 -11.0 -3.7 -10.8 -3.8 -10.6 -3.85 -10.4 -3.9 -10.15 -3.95 -9.9 -3.95 -9.65 -3.9 -9.4 -3.9 -9.35 -3.9 -9.3 -3.9 -9.3 -3.9 -9.25 -3.9 -9.2 -3.95 -9.15 -3.95 -9.1 -3.95 -9.1 -4.0 -9.05 -4.0 -9.0 -4.05 -8.95 -4.05 -8.9 -4.05 -8.85 -4.1 -8.85 -4.1 -8.8 -4.15 -8.75 -4.15 -8.7 -4.2 -8.65 -4.2 -8.65 -4.25 -8.6 -6.15 -5.55 -6.45 -4.95 -6.55 -4.8 -6.6 -4.6 -6.65 -4.45 -6.75 -4.3 -6.8 -4.1 -6.85 -3.95 -6.95 -3.75 -7.0 -3.6 -7.05 -3.45 -7.1 -3.25 -7.15 -3.1 -7.15 -2.9 -7.2 -2.75 -7.25 -2.55 -7.25 -2.4 -7.3 -2.2 -7.35 -1.6 -7.5 -0.65 -7.6 -0.7 -7.7 -0.8 -7.8 -0.85 -7.9 -0.9 -7.95 -0.95 -8.05 -1.0 -8.15 -1.05 -8.25 -1.1 -8.35 -1.15 -8.45 -1.2 -8.5 -1.25 -8.6 -1.3 -8.7 -1.35 -8.8 -1.4 -8.9 -1.4 -9.0 -1.45 -9.3 -1.55 -9.6 -1.6 -9.9 -1.6 -10.15 -1.6 -10.45 -1.55 -10.7 -1.5 -10.95 -1.4 -11.15 -1.3 -11.4 -1.15 -11.6 -1.0 -11.75 -0.8 -11.9 -0.6 -12.05 -0.35 -12.15 -0.1 -12.3 0.15 -12.35 0.45 -12.35 0.6 -12.4 0.75 -12.4 0.85 -12.4 1.0 -12.4 1.15 -12.35 1.3 -12.35 1.4 -12.35 1.55 -12.3 1.7 -12.3 1.8 -12.25 1.95 -12.25 2.1 -12.2 2.2 -12.15 2.35 -12.1 2.45 -12.1 2.6 -11.8 3.55 -11.1 5.0 -10.25 6.75 -10.0 7.3 -10.0 7.35 -9.95 7.35 -9.95 7.4 -9.9 7.45 -9.9 7.5 -9.85 7.5 -9.85 7.55 -9.8 7.55 -9.75 7.6 -9.75 7.6 -9.55 7.75 -9.35 7.85 -9.15 8.0 -8.95 8.15 -8.75 8.3 -8.55 8.45 -8.35 8.55 -8.15 8.7 -8.0 8.85 -7.8 9.05 -7.6 9.15 -7.45 9.35 -7.25 9.5 -7.05 9.65 -6.9 9.8 -6.7 9.95 -6.6 10.05 -6.5 10.15 -6.4 10.25 -6.25 10.3 -6.15 10.35 -6.05 10.45 -5.9 10.5 -5.8 10.55 -5.65 10.6 -5.5 10.6 -5.4 10.6 -5.25 10.65 -5.1 10.65 -4.95 10.6 -4.8 10.6 -4.65 10.55 -4.6 10.55 -4.6 10.55 -4.55 10.55 -4.5 10.55 -4.45 10.55 -4.45 10.55 -4.4 10.55 -4.35 10.6 -4.3 10.6 -4.3 10.65 -4.15 10.85 -3.95 11.0 -3.75 11.15 -3.55 11.3 -3.4 11.45 -3.15 11.55 -3.0 11.7 -2.75 11.8 -2.55 11.9 -2.35 12.05 -2.15 12.15 -1.9 12.25 -1.75 12.3 -1.45 12.45 -1.15 12.6 -1.0 12.65 -0.7 12.8 -0.45 12.9 -0.2 13.0 0.05 13.05 0.3 13.1 0.5 13.1 0.75 13.1 0.95 13.1 1.15 13.05 1.35 12.95 1.55 12.9 1.8 12.8 2.0 12.65 2.2 12.5 2.45 12.35 2.65 12.1 2.85 11.9 3.05 11.75 3.25 11.55 3.45 11.35 3.6 11.15 3.8 10.95 4.0 10.75 4.15 10.55 4.35 10.35 4.5 10.15 4.65 9.95 4.85 9.75 5.0 9.55 5.2 9.3 5.3 9.15 5.5 8.9 5.65 8.65 5.8 8.45 5.95 8.2 6.1 7.95 6.2 7.75 6.3 7.5 6.4 7.25 6.5 7.0 6.55 6.75 6.65 6.45 6.7 6.2 6.7 5.95 6.75 5.7 6.75 5.4 6.8 5.15 6.75 4.85 6.75 4.7 6.8 3.8 6.8 3.15 6.8 2.75 6.8 2.5 6.8 2.3 6.8 2.05 6.8 1.8 6.8 1.6 6.85 1.35 6.85 1.15 6.9 0.9 6.9 0.7 6.95 0.45 7.05 -0.2 7.0 -0.05 7.05 -0.3 7.05 -0.5 7.1 -0.75 7.1 -0.95 7.35 -3.05 7.45 -3.4 7.8 -4.35 8.6 -6.2 8.65 -6.3 8.75 -6.4 8.8 -6.45 8.85 -6.55 8.9 -6.65 8.95 -6.75 9.0 -6.85 9.0 -6.95 9.05 -7.05 9.1 -7.2 9.15 -7.3 9.15 -7.4 9.2 -7.5 9.2 -7.6 9.2 -7.75 9.25 -7.85 9.25 -7.85 9.3 -7.95 L9.3 -9.05 Q9.25 -9.15 9.2 -9.25 9.15 -9.35 9.1 -9.4 9.05 -9.5 9.0 -9.55 8.9 -9.6 8.85 -9.65 8.75 -9.7 8.65 -9.75 8.6 -9.8 8.5 -9.85 8.4 -9.85 8.3 -9.9 8.2 -9.9 8.05 -9.9 L8.05 -9.9 M7.2 -7.4 Q7.15 -7.3 7.1 -7.15 7.05 -7.05 7.0 -6.9 6.9 -6.8 6.85 -6.7 6.8 -6.6 6.75 -6.45 6.65 -6.35 6.6 -6.25 6.5 -6.15 6.45 -6.0 6.35 -5.9 6.3 -5.8 6.2 -5.7 6.15 -5.6 6.05 -5.45 5.95 -5.15 5.9 -5.0 5.85 -4.9 5.8 -4.75 5.75 -4.65 5.7 -4.5 5.65 -4.4 5.6 -4.25 5.55 -4.15 5.55 -4.0 5.5 -3.9 5.45 -3.8 5.4 -3.65 5.4 -3.55 5.35 -3.4 5.3 -3.3 5.3 -3.2 5.3 -3.05 5.25 -2.85 5.25 -2.7 5.2 -2.5 5.2 -2.35 5.15 -2.2 5.1 -2.05 5.05 -1.85 5.05 -1.9 4.95 -1.55 4.9 -1.35 4.85 -1.2 4.8 -1.0 4.8 -0.85 4.75 -0.7 4.75 -0.55 4.75 -0.5 4.75 -0.5 4.7 -0.45 4.7 -0.4 4.7 -0.4 4.7 -0.35 4.7 -0.3 4.7 -0.25 4.7 -0.25 4.65 -0.2 4.65 -0.15 4.65 -0.15 4.65 -0.1 4.65 -0.05 4.65 -0.05 4.65 0.0 4.65 0.15 4.7 2.85 4.75 4.55 4.7 5.7 4.7 5.85 4.65 6.0 4.65 6.15 4.6 6.3 4.55 6.4 4.5 6.55 4.45 6.7 4.4 6.85 4.35 6.95 4.25 7.1 4.2 7.2 4.1 7.35 4.05 7.45 3.95 7.6 3.85 7.7 3.8 7.85 2.15 9.9 1.15 10.8 1.1 10.85 1.0 10.9 0.95 10.95 0.9 11.0 0.8 11.05 0.75 11.05 0.7 11.05 0.65 11.1 0.55 11.1 0.5 11.1 0.45 11.1 0.35 11.1 0.3 11.1 0.2 11.05 0.15 11.05 0.05 11.0 -1.95 10.3 -2.25 10.15 -2.3 10.15 -2.35 10.1 -2.4 10.1 -2.4 10.05 -2.45 10.05 -2.5 10.0 -2.5 10.0 -2.55 9.95 -2.55 9.9 -2.6 9.9 -2.6 9.85 -2.6 9.8 -2.65 9.8 -2.65 9.75 -2.65 9.7 -2.65 9.65 -2.65 9.6 -2.6 9.55 -2.6 9.5 -2.6 9.45 -2.55 9.45 -2.55 9.4 -2.5 9.35 -2.45 9.35 -2.45 9.35 -2.4 9.3 -2.35 9.3 -2.3 9.3 -2.25 9.25 -2.2 9.25 -2.15 9.25 -2.1 9.25 -2.0 9.25 -1.95 9.25 -1.85 9.25 -1.8 9.25 -1.7 9.2 -1.6 9.2 -1.55 9.2 -1.45 9.2 -1.4 9.2 -1.3 9.2 -1.2 9.15 -1.15 9.15 -1.05 9.15 -1.0 9.1 -0.9 9.1 -0.85 9.1 -0.6 9.05 -0.4 8.95 -0.2 8.9 -0.05 8.8 0.1 8.7 0.25 8.6 0.35 8.5 0.45 8.4 0.5 8.25 0.55 8.1 0.6 7.95 0.6 7.8 0.6 7.65 0.55 7.45 0.55 7.3 0.45 7.05 0.45 7.0 0.45 6.95 0.4 6.95 0.4 6.85 0.4 6.8 0.4 6.75 0.4 6.7 0.35 6.65 0.35 6.6 0.35 6.55 0.3 6.5 0.3 6.45 0.25 6.4 0.25 6.35 0.2 6.3 0.2 6.3 0.15 6.25 0.1 6.25 0.05 6.2 0.0 6.2 -0.05 6.2 -0.1 6.25 -0.15 6.25 -0.2 6.3 -0.25 6.3 -0.3 6.35 -0.4 6.5 -0.35 6.45 -0.4 6.5 -0.45 6.5 -0.5 6.55 -0.55 6.55 -1.2 6.85 -2.4 7.5 -2.55 7.6 -2.7 7.65 -2.85 7.7 -3.05 7.8 -3.2 7.85 -3.35 7.9 -3.55 7.95 -3.7 8.0 -3.85 8.05 -4.05 8.1 -4.2 8.15 -4.4 8.2 -4.55 8.2 -4.75 8.25 -4.9 8.3 -5.1 8.3 -5.15 8.3 -5.2 8.3 -5.25 8.35 -5.35 8.35 -5.4 8.35 -5.45 8.35 -5.5 8.3 -5.55 8.3 -5.6 8.3 -5.65 8.3 -5.7 8.25 -5.75 8.25 -5.75 8.2 -5.8 8.15 -5.85 8.15 -5.9 8.1 -6.0 7.95 -6.15 7.85 -6.25 7.7 -6.4 7.6 -6.5 7.5 -6.65 7.35 -6.75 7.25 -6.9 7.15 -7.05 7.05 -7.2 6.95 -7.3 6.85 -7.5 6.75 -7.6 6.65 -7.75 6.55 -7.85 6.5 -8.05 6.35 -8.1 6.35 -8.15 6.3 -8.15 6.3 -8.2 6.25 -8.25 6.25 -8.3 6.2 -8.3 6.2 -8.35 6.15 -8.35 6.1 -8.4 6.05 -8.6 5.4 -9.25 4.15 -9.85 2.9 -10.05 2.2 -10.1 2.1 -10.1 2.05 -10.15 1.95 -10.15 1.9 -10.2 1.8 -10.2 1.7 -10.25 1.65 -10.25 1.55 -10.3 1.45 -10.3 1.4 -10.3 1.3 -10.3 1.2 -10.35 1.1 -10.35 1.05 -10.35 0.95 -10.3 0.85 -10.3 0.75 -10.3 0.7 -10.25 0.6 -10.25 0.55 -10.25 0.5 -10.2 0.45 -10.15 0.4 -10.1 0.4 -10.1 0.35 -10.05 0.35 -9.95 0.35 -9.9 0.35 -9.85 0.35 -9.75 0.35 -9.7 0.4 -9.6 0.4 -9.5 0.45 -9.4 0.5 -9.3 0.5 -9.25 0.6 -9.15 0.65 -9.05 0.7 -9.0 0.75 -8.9 0.8 -8.85 0.9 -8.75 0.95 -8.7 1.0 -8.65 1.1 -8.6 1.15 -8.5 1.25 -8.45 1.3 -8.4 1.4 -8.35 1.45 -8.35 1.5 -8.35 1.55 -8.35 1.6 -8.35 1.6 -8.35 1.65 -8.35 1.7 -8.4 1.75 -8.4 1.75 -8.45 1.8 -8.5 1.9 -8.65 2.05 -8.8 2.25 -8.85 2.25 -8.9 2.3 -8.95 2.4 -9.0 2.5 -9.0 2.55 -9.05 2.65 -9.05 2.7 -9.05 2.8 -9.05 2.85 -9.05 2.95 -9.05 3.0 -9.05 3.1 -9.0 3.15 -9.0 3.25 -8.95 3.3 -8.9 3.4 -8.85 3.45 -8.8 3.5 -8.7 3.55 -8.65 3.6 -8.6 3.65 -8.5 3.7 -8.45 3.75 -8.35 3.75 -8.25 3.75 -8.2 3.8 -8.1 3.8 -8.0 3.8 -7.95 3.8 -7.85 3.75 -7.75 3.75 -7.7 3.7 -7.6 3.7 -7.5 3.65 -7.45 3.6 -7.35 3.55 -7.3 3.5 -7.25 3.45 -7.15 3.4 -7.1 3.35 -7.05 3.25 -7.0 3.2 -6.95 3.15 -6.9 3.1 -6.85 3.0 -6.8 2.95 -6.75 2.85 -6.7 2.8 -6.65 2.75 -6.5 2.5 -6.35 2.25 -6.2 2.0 -6.05 1.7 -5.95 1.45 -5.85 1.15 -5.75 0.9 -5.7 0.6 -5.6 0.35 -5.55 0.05 -5.5 -0.2 -5.45 -0.5 -5.4 -0.8 -5.35 -1.1 -5.35 -1.35 -5.3 -1.65 -5.3 -1.8 -5.25 -1.95 -5.25 -2.1 -5.2 -2.2 -5.2 -2.35 -5.15 -2.5 -5.1 -2.65 -5.1 -2.75 -5.05 -2.9 -5.0 -3.05 -4.95 -3.15 -4.85 -3.3 -4.8 -3.4 -4.75 -3.55 -4.65 -3.65 -4.55 -3.8 -3.3 -6.15 -2.65 -6.9 -2.6 -6.95 -2.6 -7.0 -2.55 -7.05 -2.5 -7.1 -2.5 -7.15 -2.45 -7.2 -2.45 -7.25 -2.4 -7.3 -2.4 -7.35 -2.35 -7.4 -2.3 -7.45 -2.3 -7.5 -2.25 -7.55 -2.25 -7.6 -2.2 -7.7 -2.2 -7.75 -2.15 -8.0 -2.1 -8.45 -2.0 -8.95 -2.0 -9.15 -2.0 -9.2 -1.85 -9.85 -1.8 -10.3 -1.75 -10.55 -1.2 -10.3 -0.65 -10.05 -0.1 -9.85 0.5 -9.65 1.0 -9.45 1.6 -9.3 2.15 -9.15 2.75 -9.0 3.3 -8.85 3.85 -8.75 4.4 -8.65 5.0 -8.55 5.55 -8.45 6.15 -8.35 6.65 -8.3 7.3 -8.2 7.3 -8.15 7.3 -8.1 7.3 -8.1 7.3 -8.05 7.3 -8.0 7.3 -7.95 7.3 -7.95 7.3 -7.9 7.25 -7.85 7.25 -7.85 7.25 -7.8 7.25 -7.75 7.25 -7.75 7.25 -7.7 7.25 -7.65 7.2 -7.65 7.2 -7.6 7.2 -7.55 7.2 -7.55 7.2 -7.5 7.2 -7.45 7.2 -7.4 L7.2 -7.4" fill="#000000" fill-rule="evenodd" stroke="none"/>
  </g>
</svg>
