<?xml version="1.0" encoding="UTF-8" standalone="no"?>
<svg xmlns:xlink="http://www.w3.org/1999/xlink" height="32.0px" width="22.65px" xmlns="http://www.w3.org/2000/svg">
  <g transform="matrix(1.0, 0.0, 0.0, 1.0, 11.3, 16.0)">
    <path d="M-5.7 -1.0 Q-4.7 -3.85 -3.75 -6.7 L-3.65 -6.7 Q-2.6 -10.8 -1.6 -14.95 -1.35 -14.85 -1.1 -14.7 -0.85 -14.6 -0.6 -14.45 -0.3 -14.35 -0.05 -14.25 0.25 -14.1 0.55 -14.0 0.85 -13.9 1.15 -13.8 1.45 -13.65 1.8 -13.55 2.1 -13.45 2.45 -13.35 2.8 -13.25 3.15 -13.2 3.7 -13.05 4.25 -12.95 4.8 -12.85 5.35 -12.75 5.85 -12.65 6.4 -12.6 6.85 -12.55 7.35 -12.5 7.85 -12.5 8.3 -12.45 8.75 -12.45 9.15 -12.45 9.6 -12.45 10.0 -12.5 10.35 -12.5 10.75 -12.5 8.75 -7.7 4.7 2.1 L4.2 6.75 4.25 7.15 Q4.25 7.35 4.25 7.55 4.2 7.75 4.2 8.0 4.15 8.2 4.1 8.4 4.1 8.65 4.0 8.85 3.95 9.1 3.9 9.3 3.85 9.55 3.75 9.8 3.65 10.0 3.55 10.25 3.45 10.5 3.35 10.75 L3.25 11.0 Q3.25 11.15 3.25 11.25 3.2 11.4 3.2 11.6 3.15 11.75 3.1 11.95 3.05 12.2 3.0 12.4 2.9 12.65 2.8 12.85 2.7 13.15 2.6 13.35 2.45 13.65 2.3 13.9 2.1 14.15 1.9 14.4 1.75 14.55 1.6 14.7 1.5 14.85 1.35 15.0 1.2 15.1 1.05 15.25 0.9 15.35 0.75 15.45 0.6 15.55 0.5 15.65 0.35 15.7 0.25 15.8 0.1 15.85 0.0 15.9 -0.1 15.95 -0.2 16.0 -0.7 16.15 -1.15 16.25 -1.65 16.35 -2.1 16.35 -2.5 16.4 -2.95 16.4 -3.35 16.35 -3.75 16.3 -4.1 16.2 -4.45 16.1 -4.75 15.95 -5.0 15.8 -5.3 15.6 -5.5 15.4 -5.7 15.2 -5.85 14.95 -5.9 14.9 -5.9 14.85 -5.95 14.75 -5.95 14.7 -6.0 14.6 -6.0 14.5 -6.05 14.4 -6.05 14.3 -6.1 14.2 -6.1 14.1 -6.1 13.95 -6.1 13.85 -6.1 13.7 -6.1 13.55 -6.1 13.4 -6.05 13.25 -6.15 13.3 -6.25 13.3 -6.35 13.35 -6.5 13.35 -6.65 13.4 -6.8 13.4 -7.0 13.4 -7.2 13.45 -7.4 13.45 -7.6 13.45 -7.85 13.4 -8.05 13.4 -8.3 13.35 -8.55 13.3 -8.8 13.25 -9.05 13.15 -9.35 13.05 -9.6 12.9 -9.85 12.8 -10.05 12.65 -10.25 12.5 -10.45 12.35 -10.65 12.2 -10.8 12.05 -10.95 11.9 -11.1 11.75 -11.2 11.65 -11.3 11.5 -11.4 11.4 -11.5 11.3 -11.55 11.2 -11.6 11.1 -11.85 10.55 -13.05 8.2 -13.25 7.9 -13.4 7.55 -13.5 7.25 -13.6 6.9 -13.7 6.6 -13.75 6.3 -13.8 6.0 -13.8 5.7 -13.8 5.45 -13.75 5.2 -13.7 4.95 -13.6 4.75 -13.55 4.5 -13.4 4.35 -13.3 4.15 -13.1 4.05 -12.95 3.95 -12.8 3.85 -12.65 3.8 -12.5 3.75 -12.35 3.7 -12.15 3.7 -12.0 3.7 -11.8 3.7 -11.65 3.7 -11.5 3.7 -11.35 3.75 -11.2 3.75 -11.05 3.8 -10.95 3.85 -10.85 3.85 -10.7 3.9 -10.45 3.95 -10.25 4.05 -10.0 4.15 -9.8 4.25 -9.65 4.35 -9.45 4.45 -9.3 4.55 -9.15 4.7 -9.0 4.8 -8.85 4.9 -8.75 5.0 -8.65 5.15 -8.55 5.25 -8.45 5.35 -8.4 5.4 -8.3 5.5 -8.05 4.1 -7.45 0.95 L-7.2 0.7 -6.35 -0.3 Q-6.05 -0.65 -5.7 -1.0 L-5.7 -1.0" fill="#dbdbdb" fill-rule="evenodd" stroke="none"/>
    <path d="M1.4 1.1 Q1.4 1.1 1.45 1.15 1.45 1.1 1.4 1.1 1.4 1.1 1.4 1.1 L1.4 1.1" fill="#000000" fill-rule="evenodd" stroke="none"/>
  </g>
</svg>
