<?xml version="1.0" encoding="UTF-8" standalone="no"?>
<svg xmlns:xlink="http://www.w3.org/1999/xlink" height="29.0px" width="24.65px" xmlns="http://www.w3.org/2000/svg">
  <g transform="matrix(1.0, 0.0, 0.0, 1.0, 12.3, 14.5)">
    <path d="M11.35 -10.35 Q11.3 -10.4 11.25 -10.45 11.2 -10.5 11.15 -10.55 11.1 -10.55 11.05 -10.6 10.95 -10.65 10.9 -10.65 10.85 -10.7 10.75 -10.7 10.65 -10.7 10.6 -10.75 10.5 -10.75 10.4 -10.75 10.3 -10.75 10.2 -10.75 7.2 -10.7 5.65 -10.8 5.65 -10.8 5.55 -10.8 5.35 -10.85 5.2 -10.85 4.95 -10.9 4.65 -10.95 4.3 -11.0 3.95 -11.1 3.5 -11.2 3.1 -11.35 2.6 -11.5 2.05 -11.65 1.5 -11.85 0.95 -12.1 0.3 -12.35 -0.3 -12.65 -0.45 -12.75 -0.75 -12.85 -1.1 -13.0 -1.25 -13.05 -1.5 -13.2 -1.45 -13.15 -1.55 -13.2 -1.6 -13.25 -1.65 -13.25 -1.7 -13.25 -1.75 -13.25 -1.8 -13.25 -1.85 -13.25 -1.85 -13.2 -1.9 -13.2 -1.9 -13.2 -1.9 -13.15 -1.95 -13.15 -1.95 -13.1 -1.95 -13.1 -2.0 -13.05 -2.0 -13.0 -2.0 -13.0 -2.05 -12.95 -2.05 -12.9 -2.05 -12.85 -2.05 -12.85 -2.05 -12.8 -2.25 -12.25 -5.2 -4.0 -5.25 -3.85 -5.3 -3.7 -5.35 -3.55 -5.4 -3.4 -5.35 -3.55 -5.5 -3.05 -5.6 -2.9 -5.65 -2.75 -5.7 -2.6 -5.75 -2.45 -5.8 -2.3 -5.85 -2.15 -5.9 -2.0 -6.0 -1.85 -6.05 -1.7 -6.15 -1.6 -8.0 1.4 -8.35 2.05 -8.45 2.2 -8.5 2.4 -8.6 2.55 -8.65 2.75 -8.7 2.9 -8.8 3.05 -8.85 3.25 -8.9 3.4 -8.95 3.6 -9.0 3.75 -9.05 3.95 -9.1 4.1 -9.1 4.25 -9.15 4.45 -9.2 4.65 -9.2 4.8 -9.25 5.25 -9.4 6.4 -9.4 6.4 -9.45 6.35 -9.4 6.45 -9.45 6.5 -9.45 6.65 -9.5 6.8 -9.55 7.05 -9.6 7.2 -9.65 7.45 -9.7 7.65 -9.75 7.9 -9.8 8.1 -9.9 8.3 -10.0 8.5 -10.1 8.7 -10.2 8.85 -10.35 9.05 -10.45 9.15 -10.6 9.25 -10.8 9.35 -10.85 9.4 -10.85 9.45 -10.25 9.9 -9.9 10.05 -9.65 10.2 -9.15 10.4 -8.6 10.6 -8.4 10.7 -8.35 10.75 -8.25 10.8 -7.95 10.9 -7.65 11.05 -7.35 11.15 -7.1 11.3 -6.85 11.4 -6.6 11.55 -6.35 11.65 -6.15 11.8 -5.9 11.95 -5.7 12.1 -5.5 12.2 -5.35 12.35 -5.15 12.45 -5.0 12.6 -4.85 12.75 -4.7 12.85 -4.4 13.1 -4.05 13.5 -3.55 14.0 -3.5 14.05 -3.5 14.05 -3.55 14.1 -3.3 14.3 -3.0 14.5 -2.75 14.65 -2.45 14.85 -2.15 15.0 -1.85 15.1 -1.55 15.25 -1.2 15.35 -0.9 15.45 -0.6 15.55 -0.25 15.65 0.05 15.7 0.4 15.75 0.75 15.8 1.05 15.85 1.4 15.9 1.75 15.9 2.45 15.95 3.15 15.95 3.5 16.0 3.55 15.95 3.55 15.95 3.55 15.9 3.6 15.9 3.75 15.7 3.9 15.45 4.05 15.2 4.2 15.0 4.3 14.75 4.4 14.5 4.5 14.25 4.6 14.0 4.65 13.75 4.7 13.5 4.75 13.25 4.8 12.95 4.85 12.7 4.85 12.45 4.85 12.15 4.85 11.9 4.85 11.6 4.85 10.85 4.9 10.15 4.85 9.75 4.85 9.55 4.85 9.3 4.85 9.05 4.85 8.85 4.9 8.6 4.9 8.35 4.95 8.15 4.95 7.9 5.0 7.7 5.0 7.45 5.1 7.05 5.1 7.0 5.15 6.7 5.15 6.5 5.2 6.25 5.2 6.05 5.4 4.05 5.55 3.6 5.95 2.6 6.75 0.6 7.25 -0.65 9.0 -4.55 10.4 -7.75 11.15 -9.75 11.15 -9.75 11.15 -9.75 11.15 -9.8 11.2 -9.85 11.2 -9.9 11.2 -9.95 11.25 -10.0 11.25 -10.0 11.25 -10.05 11.3 -10.1 11.3 -10.15 11.3 -10.2 11.3 -10.2 11.3 -10.25 11.35 -10.3 11.35 -10.3 11.35 -10.35 11.35 -10.35 L11.35 -10.35 M7.55 -6.3 Q7.4 -5.95 7.1 -5.25 7.0 -5.0 6.25 -3.35 5.75 -2.2 5.4 -1.4 3.75 2.45 3.35 3.8 3.35 3.95 3.35 4.15 3.3 4.3 3.3 4.5 3.25 4.65 3.2 4.85 3.2 4.95 3.15 5.15 3.1 5.25 3.05 5.5 3.0 5.7 2.95 5.8 2.9 6.0 2.85 6.15 2.85 6.3 2.8 6.5 2.8 6.6 2.7 7.0 2.8 12.15 2.75 12.7 2.75 12.85 2.75 12.95 2.7 13.1 2.7 13.25 2.65 13.35 2.6 13.5 2.55 13.6 2.5 13.75 2.45 13.85 2.4 14.0 2.35 14.1 2.3 14.2 2.2 14.3 2.15 14.45 2.1 14.55 2.0 14.65 1.8 14.6 1.55 14.55 1.35 14.5 1.15 14.45 1.0 14.4 0.8 14.35 0.6 14.3 0.45 14.25 0.3 14.2 0.1 14.15 -0.05 14.05 -0.2 14.0 -0.35 13.95 -0.45 13.9 -0.6 13.85 -0.7 13.75 -1.05 13.6 -1.4 13.4 -1.7 13.25 -1.95 13.05 -2.25 12.85 -2.5 12.65 -2.75 12.45 -3.05 12.2 -3.1 12.2 -3.6 11.75 -3.95 11.45 -4.25 11.25 -4.6 10.95 -4.95 10.7 -5.35 10.4 -5.8 10.1 -5.95 10.0 -6.1 9.9 -6.25 9.8 -6.4 9.7 -6.55 9.6 -6.7 9.5 -6.8 9.45 -6.95 9.35 -7.1 9.25 -7.25 9.15 -7.35 9.1 -7.5 9.0 -7.6 8.95 -7.75 8.85 -7.85 8.8 -8.0 8.75 -7.9 8.55 -7.85 8.35 -7.75 8.15 -7.7 7.95 -7.65 7.75 -7.55 7.5 -7.5 7.3 -7.45 7.1 -7.45 6.9 -7.4 6.65 -7.35 6.45 -7.35 6.25 -7.3 6.0 -7.25 5.8 -7.25 5.6 -7.2 5.35 -7.2 5.2 -7.15 5.05 -7.15 4.95 -7.15 4.8 -7.1 4.65 -7.05 4.5 -7.05 4.4 -7.0 4.25 -6.95 4.1 -6.9 4.0 -6.85 3.85 -6.8 3.7 -6.7 3.6 -6.65 3.45 -6.55 3.35 -6.5 3.2 -5.1 0.75 -4.55 0.15 -4.35 -0.4 -3.25 -3.45 -2.45 -5.65 -1.95 -7.05 -1.95 -7.05 -1.9 -7.05 -1.9 -7.05 -1.85 -7.0 -1.55 -7.7 -1.35 -8.2 -1.3 -8.3 -1.25 -8.4 -1.25 -8.5 -1.2 -8.6 -1.15 -8.65 -1.1 -8.75 -1.1 -8.8 -1.05 -8.9 -1.05 -8.95 -1.0 -9.05 -1.0 -9.1 -0.95 -9.15 -0.95 -9.2 -0.9 -9.3 -0.9 -9.3 -0.9 -9.4 -0.85 -9.45 -0.85 -9.55 -0.8 -9.6 -0.8 -9.7 -0.75 -9.75 -0.7 -9.85 -0.7 -9.9 -0.65 -9.95 -0.65 -10.05 -0.65 -10.1 -0.6 -10.15 -0.6 -10.2 -0.55 -10.25 -0.55 -10.35 -0.55 -10.4 -0.5 -10.45 0.05 -10.2 0.6 -9.95 1.1 -9.75 1.7 -9.55 2.2 -9.4 2.8 -9.25 3.35 -9.15 3.95 -9.05 4.5 -8.95 5.05 -8.85 5.65 -8.8 6.25 -8.75 6.8 -8.7 7.4 -8.7 7.95 -8.7 8.6 -8.7 8.15 -7.65 7.55 -6.3 L7.55 -6.3" fill="#000000" fill-rule="evenodd" stroke="none"/>
    <path d="M1.35 3.5 Q1.4 3.55 1.4 3.55 1.4 3.55 1.35 3.55 1.35 3.55 1.35 3.5 L1.35 3.5" fill="#000000" fill-opacity="0.5686275" fill-rule="evenodd" stroke="none"/>
  </g>
</svg>
