<?xml version="1.0" encoding="UTF-8" standalone="no"?>
<svg xmlns:xlink="http://www.w3.org/1999/xlink" height="20.5px" width="31.4px" xmlns="http://www.w3.org/2000/svg">
  <g transform="matrix(1.0, 0.0, 0.0, 1.0, 10.85, 7.65)">
    <path d="M22.8 -4.3 Q22.85 -3.85 22.9 -3.4 22.9 -2.9 22.95 -2.4 22.95 -1.85 22.95 -1.25 22.95 -0.6 22.9 0.0 22.85 0.7 22.75 1.4 22.65 2.15 22.5 2.85 22.35 3.65 22.15 4.4 21.9 5.2 21.65 6.0 21.45 6.6 21.2 7.25 20.95 7.8 20.7 8.35 20.45 8.9 20.15 9.4 19.9 9.9 19.65 10.4 19.35 10.85 19.1 11.25 18.8 11.65 18.55 12.05 18.3 12.4 18.05 12.75 17.8 13.05 17.55 13.35 16.9 13.5 16.25 13.65 15.55 13.8 14.85 13.95 14.1 14.05 13.35 14.2 12.55 14.3 11.75 14.4 10.95 14.5 10.1 14.6 9.25 14.7 8.35 14.75 7.45 14.8 6.55 14.8 5.6 14.85 4.65 14.85 3.55 14.85 2.45 14.8 1.4 14.75 0.35 14.65 -0.65 14.6 -1.65 14.5 -2.6 14.35 -3.55 14.2 -4.45 14.1 -5.35 13.9 -6.2 13.75 -7.0 13.6 -7.8 13.4 -8.6 13.25 -9.3 13.05 -10.0 12.85 -10.35 12.5 -10.7 12.15 -11.1 11.7 -11.5 11.3 -11.9 10.8 -12.3 10.25 -12.75 9.65 -13.15 9.05 -13.6 8.4 -14.0 7.7 -14.45 6.95 -14.8 6.2 -15.2 5.4 -15.55 4.5 -15.9 3.6 -16.2 2.7 -16.35 2.2 -16.45 1.7 -16.6 1.25 -16.65 0.75 -16.75 0.3 -16.85 -0.15 -16.9 -0.6 -16.95 -1.05 -17.0 -1.5 -17.05 -1.9 -17.1 -2.3 -17.1 -2.7 -17.1 -3.1 -17.1 -3.45 -17.1 -3.8 -17.1 -4.15 -16.35 -4.6 -15.55 -5.0 -14.5 -5.5 -13.45 -6.0 -12.2 -6.55 -10.95 -7.0 -9.45 -7.55 -8.0 -8.0 -6.3 -8.45 -4.6 -8.8 -2.75 -9.15 -0.9 -9.35 1.1 -9.55 3.15 -9.55 5.3 -9.55 7.5 -9.3 8.75 -9.15 10.0 -8.95 11.15 -8.75 12.35 -8.45 13.4 -8.2 14.5 -7.9 15.5 -7.55 16.5 -7.2 17.45 -6.9 18.35 -6.5 19.2 -6.15 20.05 -5.75 20.8 -5.4 21.5 -5.0 22.15 -4.7 22.8 -4.3 L22.8 -4.3" fill="#ffffff" fill-rule="evenodd" stroke="none"/>
  </g>
</svg>
