<?xml version="1.0" encoding="UTF-8" standalone="no"?>
<svg xmlns:xlink="http://www.w3.org/1999/xlink" height="20.65px" width="36.3px" xmlns="http://www.w3.org/2000/svg">
  <g transform="matrix(1.0, 0.0, 0.0, 1.0, 18.45, 10.15)">
    <path d="M-0.05 -20.85 Q0.15 -20.85 0.3 -20.85 0.5 -20.85 0.65 -20.85 0.7 -20.85 0.75 -20.85 0.75 -20.85 0.8 -20.85 0.85 -20.9 0.9 -20.85 0.95 -20.85 0.95 -20.85 1.0 -20.85 1.05 -20.85 1.3 -20.85 1.5 -20.85 1.75 -20.85 2.0 -20.85 2.05 -20.85 2.05 -20.85 2.1 -20.85 2.15 -20.85 2.15 -20.8 2.2 -20.8 2.2 -20.8 2.25 -20.8 2.3 -20.8 2.3 -20.8 2.35 -20.8 2.35 -20.8 2.4 -20.8 2.45 -20.8 2.45 -20.8 2.5 -20.8 2.55 -20.8 2.55 -20.8 2.6 -20.8 2.65 -20.8 2.65 -20.75 2.7 -20.75 2.7 -20.75 2.75 -20.75 2.8 -20.75 2.8 -20.75 2.85 -20.75 2.85 -20.75 2.9 -20.75 2.95 -20.75 2.95 -20.75 3.0 -20.75 3.05 -20.75 3.05 -20.75 3.1 -20.75 3.15 -20.75 3.2 -20.7 3.2 -20.7 3.25 -20.7 3.3 -20.7 3.3 -20.7 3.35 -20.7 3.4 -20.7 3.4 -20.65 3.45 -20.65 3.5 -20.65 3.5 -20.65 3.55 -20.65 3.9 -20.6 4.1 -20.55 4.6 -20.45 4.95 -20.35 5.0 -20.35 5.05 -20.3 5.15 -20.3 5.2 -20.3 5.25 -20.3 5.3 -20.25 5.4 -20.25 5.45 -20.25 5.5 -20.2 5.6 -20.2 5.65 -20.2 5.7 -20.15 5.75 -20.15 5.85 -20.15 5.9 -20.1 5.95 -20.1 6.0 -20.1 6.1 -20.05 6.15 -20.05 6.25 -20.0 6.3 -20.0 6.4 -19.95 6.45 -19.95 6.55 -19.9 6.6 -19.9 6.7 -19.85 6.75 -19.85 6.8 -19.8 6.9 -19.8 6.95 -19.75 7.05 -19.75 7.1 -19.7 7.2 -19.65 7.25 -19.65 7.35 -19.6 7.4 -19.55 7.5 -19.55 7.55 -19.5 7.65 -19.45 7.7 -19.45 7.8 -19.4 7.85 -19.35 7.95 -19.35 8.0 -19.3 8.1 -19.25 8.15 -19.2 8.25 -19.2 8.3 -19.15 8.4 -19.1 8.45 -19.05 8.55 -19.05 8.65 -19.0 8.75 -18.95 8.8 -18.9 8.9 -18.85 9.0 -18.85 9.05 -18.8 9.15 -18.75 9.2 -18.7 9.3 -18.65 9.35 -18.6 9.45 -18.55 9.55 -18.5 9.6 -18.45 9.7 -18.4 9.75 -18.35 9.85 -18.3 9.9 -18.25 10.0 -18.2 10.05 -18.15 10.15 -18.1 10.2 -18.0 10.3 -17.95 10.35 -17.9 10.45 -17.85 10.5 -17.8 10.6 -17.75 10.65 -17.65 10.75 -17.6 10.8 -17.55 10.9 -17.5 10.95 -17.4 11.05 -17.35 11.1 -17.3 11.2 -17.25 11.25 -17.15 11.35 -17.1 11.4 -17.05 11.5 -16.95 11.55 -16.9 11.6 -16.8 11.7 -16.75 11.75 -16.65 11.8 -16.6 11.9 -16.5 11.95 -16.45 12.35 -15.95 12.75 -15.45 12.8 -15.4 12.85 -15.3 12.85 -15.25 12.9 -15.2 12.95 -15.15 13.0 -15.05 13.0 -15.0 13.05 -14.95 13.1 -14.85 13.15 -14.8 13.15 -14.75 13.2 -14.65 13.25 -14.6 13.3 -14.55 13.3 -14.45 13.35 -14.4 13.4 -14.35 13.4 -14.25 13.45 -14.2 13.45 -14.15 13.5 -14.1 13.55 -14.0 13.55 -13.95 13.6 -13.9 13.6 -13.8 13.65 -13.75 13.65 -13.7 13.7 -13.6 13.7 -13.55 13.75 -13.5 13.8 -13.4 13.8 -13.35 13.8 -13.3 13.85 -13.2 13.85 -13.15 13.9 -13.1 13.9 -13.05 13.95 -12.95 13.95 -12.9 14.0 -12.85 14.0 -12.75 14.05 -12.7 14.05 -12.65 14.05 -12.55 14.1 -12.5 14.1 -12.45 14.15 -12.35 14.15 -12.3 14.3 -11.8 14.45 -11.25 14.45 -11.2 14.45 -11.1 14.5 -11.05 14.5 -11.0 14.5 -10.95 14.5 -10.85 14.55 -10.8 14.55 -10.75 14.55 -10.65 14.55 -10.6 14.55 -10.55 14.55 -10.45 14.6 -10.4 14.6 -10.35 14.6 -10.25 14.6 -10.2 14.6 -10.15 14.6 -10.05 14.65 -10.0 14.65 -9.95 14.65 -9.9 14.65 -9.8 14.7 -9.75 14.7 -9.7 14.7 -9.6 14.7 -9.55 14.7 -9.5 14.7 -9.4 14.75 -9.35 14.75 -9.3 14.75 -9.2 14.75 -9.15 14.8 -8.7 14.85 -8.15 14.85 -8.0 14.9 -7.8 14.9 -7.65 14.9 -7.45 14.9 -7.3 14.95 -7.1 14.95 -6.95 14.95 -6.75 14.95 -6.6 14.95 -6.4 14.95 -6.2 14.95 -6.05 14.95 -5.85 14.95 -5.7 14.95 -5.5 14.95 -5.35 14.95 -5.2 14.95 -5.0 14.95 -4.85 14.95 -4.7 14.95 -4.55 14.95 -4.35 14.9 -4.2 14.9 -4.05 14.9 -3.9 14.9 -3.75 14.9 -3.55 14.85 -3.4 14.85 -3.25 14.85 -3.1 14.8 -2.9 14.8 -2.75 14.8 -2.6 14.75 -2.45 14.75 -2.3 14.7 -2.15 14.7 -1.95 14.65 -1.8 14.65 -1.65 14.65 -1.5 14.6 -1.35 14.55 -1.2 14.55 -1.05 14.5 -0.85 14.5 -0.7 14.45 -0.55 14.45 -0.4 14.4 -0.25 14.35 -0.1 14.35 0.05 14.3 0.2 14.25 0.35 14.25 0.45 14.2 0.6 14.15 0.75 14.1 0.9 14.1 1.05 14.05 1.2 14.0 1.35 13.95 1.45 13.95 1.6 13.9 1.75 13.85 1.9 13.8 2.05 13.75 2.2 13.7 2.3 13.7 2.45 13.65 2.6 13.6 2.7 13.55 2.85 13.5 2.95 13.5 3.1 13.45 3.25 13.4 3.35 13.35 3.5 13.3 3.65 13.25 3.75 13.2 3.9 13.15 4.0 13.1 4.15 13.05 4.25 13.0 4.4 12.95 4.5 12.9 4.6 12.85 4.75 12.8 4.85 12.8 4.95 12.75 5.1 12.7 5.2 12.6 5.3 12.55 5.45 12.5 5.55 12.45 5.65 12.4 5.75 12.35 5.9 12.3 6.0 12.25 6.1 12.2 6.2 12.15 6.3 12.1 6.4 12.05 6.55 12.0 6.65 12.0 6.75 11.95 6.85 11.9 6.95 11.8 7.05 11.75 7.15 11.7 7.25 11.65 7.35 11.6 7.45 11.55 7.55 11.5 7.65 11.45 7.75 11.4 7.85 11.35 7.9 11.3 8.0 11.3 8.1 11.25 8.2 11.2 8.25 11.15 8.35 11.1 8.45 11.05 8.5 11.0 8.6 10.95 8.7 10.9 8.8 10.85 8.85 10.8 8.95 10.75 9.05 10.7 9.05 10.7 9.1 10.65 9.1 10.6 9.1 10.55 9.15 10.55 9.15 10.5 9.15 10.45 9.2 10.4 9.2 10.4 9.2 10.35 9.25 10.3 9.25 10.25 9.25 10.25 9.25 10.2 9.3 10.15 9.3 10.1 9.3 10.1 9.35 10.05 9.35 10.0 9.35 9.95 9.4 9.95 9.4 9.9 9.4 9.85 9.45 9.8 9.45 9.8 9.45 9.75 9.5 9.7 9.5 9.65 9.5 9.6 9.5 9.6 9.55 9.55 9.55 9.5 9.55 9.45 9.6 9.4 9.6 9.4 9.6 9.35 9.65 9.3 9.65 9.25 9.65 9.2 9.7 9.15 9.7 9.1 9.7 9.05 9.75 9.0 9.75 9.0 9.75 8.95 9.75 8.9 9.8 8.85 9.8 8.8 9.8 8.75 9.85 8.7 9.85 8.65 9.85 8.6 9.9 8.55 9.9 8.5 9.9 8.45 9.95 8.4 9.95 8.35 9.95 8.3 10.0 8.3 10.0 8.25 10.0 8.2 10.0 8.15 10.05 8.1 10.05 7.7 10.2 7.3 10.35 7.25 10.35 7.2 10.4 7.15 10.4 7.1 10.4 7.05 10.4 7.0 10.45 6.95 10.45 6.9 10.45 6.85 10.5 6.8 10.5 6.75 10.5 6.65 10.55 6.6 10.55 6.55 10.55 6.5 10.6 6.45 10.6 5.95 10.7 5.6 10.8 5.55 10.8 5.5 10.85 5.4 10.85 5.35 10.85 5.3 10.9 5.25 10.9 5.15 10.9 5.1 10.95 5.05 10.95 5.0 10.95 4.95 11.0 4.9 11.0 4.8 11.0 4.75 11.0 4.7 11.05 4.65 11.05 4.15 11.15 3.75 11.25 3.3 11.35 2.7 11.45 2.6 11.45 2.55 11.5 2.45 11.5 2.4 11.5 2.3 11.55 2.25 11.55 2.15 11.55 2.1 11.6 2.0 11.6 1.95 11.6 1.85 11.6 1.8 11.6 1.7 11.65 1.65 11.65 1.55 11.65 1.5 11.65 0.8 11.75 0.1 11.85 -0.9 11.9 -1.45 11.95 -1.55 11.95 -1.65 11.95 -1.75 11.95 -1.85 11.95 -1.95 12.0 -2.05 12.0 -2.15 12.0 -2.25 12.0 -2.35 12.0 -2.45 12.0 -2.55 12.0 -2.7 12.0 -2.8 12.0 -2.9 12.0 -3.0 12.0 -3.1 12.0 -3.2 12.0 -3.3 12.0 -3.45 12.0 -3.55 12.0 -3.65 12.0 -3.75 12.0 -3.9 12.0 -4.0 12.0 -4.1 12.0 -4.2 12.0 -4.3 12.0 -4.4 11.95 -4.55 11.95 -4.65 11.95 -4.75 11.95 -4.85 11.95 -4.95 11.95 -5.1 11.95 -5.2 11.95 -5.3 11.9 -5.45 11.9 -5.55 11.9 -5.7 11.9 -5.8 11.9 -5.9 11.85 -6.05 11.85 -6.15 11.85 -6.3 11.8 -6.4 11.8 -6.5 11.8 -6.65 11.75 -6.75 11.75 -7.8 11.6 -8.35 11.55 -9.2 11.4 -9.9 11.3 -10.0 11.3 -10.1 11.25 -10.2 11.25 -10.3 11.2 -10.4 11.2 -10.5 11.2 -10.6 11.15 -10.65 11.15 -10.75 11.1 -10.85 11.1 -10.95 11.05 -11.05 11.05 -11.15 11.0 -11.2 11.0 -11.3 10.95 -11.4 10.95 -11.5 10.95 -11.6 10.9 -11.7 10.9 -11.75 10.85 -11.85 10.85 -11.95 10.85 -12.05 10.8 -12.15 10.8 -12.25 10.75 -12.3 10.75 -12.4 10.7 -12.5 10.7 -12.6 10.65 -12.65 10.65 -12.75 10.6 -12.85 10.6 -12.95 10.55 -13.0 10.55 -13.1 10.5 -13.2 10.45 -13.3 10.45 -13.35 10.4 -13.45 10.35 -13.55 10.35 -13.6 10.3 -13.7 10.25 -13.8 10.25 -13.85 10.2 -13.95 10.15 -14.05 10.1 -14.1 10.1 -14.2 10.05 -14.3 10.0 -14.35 9.95 -14.45 9.95 -14.55 9.9 -14.65 9.85 -14.7 9.8 -14.8 9.8 -14.9 9.75 -14.95 9.7 -15.05 9.65 -15.15 9.6 -15.2 9.55 -15.3 9.55 -15.4 9.5 -15.45 9.45 -15.55 9.4 -15.65 9.35 -15.7 9.3 -15.8 9.25 -15.85 9.2 -15.95 9.15 -16.05 9.1 -16.1 9.05 -16.2 8.95 -16.25 8.9 -16.35 8.85 -16.4 8.8 -16.5 8.75 -16.55 8.7 -16.65 8.6 -16.75 8.55 -16.8 8.5 -16.85 8.45 -16.95 8.4 -17.0 8.35 -17.1 8.25 -17.15 8.2 -17.25 8.15 -17.3 8.1 -17.4 8.0 -17.45 7.95 -17.55 7.9 -17.6 7.8 -17.65 7.75 -17.75 7.65 -17.8 7.6 -17.9 7.55 -17.95 7.45 -18.05 7.35 -18.1 7.25 -18.2 7.15 -18.3 7.05 -18.4 6.95 -18.45 6.85 -18.55 6.75 -18.65 6.65 -18.7 6.55 -18.8 6.45 -18.85 6.35 -18.95 6.25 -19.0 6.15 -19.1 6.0 -19.15 5.9 -19.25 5.8 -19.3 5.7 -19.35 5.6 -19.45 5.5 -19.5 5.35 -19.55 5.25 -19.6 5.15 -19.65 5.05 -19.7 4.95 -19.8 4.85 -19.85 4.7 -19.9 4.6 -19.95 4.5 -20.0 4.4 -20.05 4.25 -20.1 4.15 -20.15 4.05 -20.2 3.95 -20.25 3.85 -20.3 3.75 -20.35 3.6 -20.4 3.5 -20.45 3.4 -20.45 3.3 -20.5 3.2 -20.55 3.1 -20.6 2.95 -20.65 2.85 -20.65 2.75 -20.7 2.65 -20.75 2.5 -20.75 2.4 -20.8 2.3 -20.8 2.2 -20.85 2.1 -20.85 2.0 -20.9 1.85 -20.9 1.75 -20.95 1.65 -20.95 1.55 -21.0 1.45 -21.0 1.35 -21.05 1.25 -21.05 1.15 -21.05 1.05 -21.1 0.9 -21.1 0.8 -21.15 0.7 -21.15 0.6 -21.15 0.5 -21.15 0.4 -21.2 0.3 -21.2 0.2 -21.2 0.1 -21.2 0.0 -21.25 -0.1 -21.25 -0.2 -21.25 -0.3 -21.25 -0.4 -21.25 -0.5 -21.25 -0.6 -21.3 -0.7 -21.3 -0.8 -21.3 -0.9 -21.3 -1.0 -21.3 -1.1 -21.3 -1.15 -21.3 -1.25 -21.3 -1.35 -21.35 -1.4 -21.35 -1.5 -21.35 -1.6 -21.35 -1.65 -21.35 -1.75 -21.35 -1.85 -21.35 -1.9 -21.35 -2.0 -21.35 -2.1 -21.35 -2.2 -21.35 -2.25 -21.35 -2.35 -21.35 -2.4 -21.35 -2.5 -21.35 -2.55 -21.35 -2.6 -21.35 -2.7 -21.35 -2.75 -21.35 -2.8 -21.35 -2.9 -21.35 -2.95 -21.35 -3.0 -21.35 -3.1 -21.3 -3.15 -21.3 -3.2 -21.3 -3.25 -21.3 -3.35 -21.3 -3.4 -21.3 -3.45 -21.3 -3.5 -21.3 -3.55 -21.3 -3.6 -21.3 -3.65 -21.3 -3.7 -21.3 -3.75 -21.3 -3.8 -21.3 -3.85 -21.3 -3.9 -21.3 -3.95 -21.25 -3.95 -21.25 -4.0 -21.25 -4.05 -21.25 -4.1 -21.25 -4.15 -21.25 -4.2 -21.25 -4.25 -21.25 -4.3 -21.25 -4.3 -21.25 -4.35 -21.25 -4.4 -21.25 -4.45 -21.25 -4.5 -21.25 -4.55 -21.25 -4.55 -21.25 -4.6 -21.3 -4.65 -21.3 -4.7 -21.3 -4.7 -21.3 -4.75 -21.3 -4.8 -21.3 -4.85 -21.3 -4.9 -21.3 -5.0 -21.3 -5.05 -21.3 -5.1 -21.3 -5.15 -21.3 -5.25 -21.3 -5.3 -21.3 -5.35 -21.3 -5.45 -21.3 -5.5 -21.25 -5.55 -21.25 -5.6 -21.25 -5.7 -21.25 -5.75 -21.25 -5.8 -21.25 -5.85 -21.25 -5.95 -21.25 -6.0 -21.25 -6.1 -21.25 -6.15 -21.25 -6.25 -21.25 -6.3 -21.25 -6.4 -21.25 -6.45 -21.25 -6.55 -21.25 -6.6 -21.2 -6.7 -21.2 -6.75 -21.2 -6.85 -21.2 -6.9 -21.2 -7.0 -21.2 -7.1 -21.15 -7.2 -21.15 -7.25 -21.15 -7.35 -21.15 -7.45 -21.1 -7.55 -21.1 -7.6 -21.1 -7.7 -21.05 -7.8 -21.05 -7.85 -21.05 -7.95 -21.0 -8.05 -21.0 -8.15 -21.0 -8.2 -20.95 -8.3 -20.95 -8.4 -20.95 -8.5 -20.9 -8.6 -20.9 -8.7 -20.85 -8.8 -20.85 -8.9 -20.8 -9.0 -20.8 -9.1 -20.8 -9.2 -20.75 -9.3 -20.7 -9.4 -20.7 -9.5 -20.65 -9.6 -20.65 -9.7 -20.6 -9.8 -20.6 -9.9 -20.55 -10.0 -20.5 -10.1 -20.5 -10.2 -20.45 -10.3 -20.4 -10.4 -20.4 -10.5 -20.35 -10.6 -20.3 -10.75 -20.25 -10.85 -20.25 -10.95 -20.2 -11.0 -20.15 -11.1 -20.1 -11.2 -20.1 -11.3 -20.05 -11.4 -20.0 -11.5 -19.95 -11.6 -19.9 -11.7 -19.85 -11.8 -19.8 -11.95 -19.75 -12.05 -19.7 -12.15 -19.65 -12.25 -19.6 -12.35 -19.5 -12.5 -19.45 -12.6 -19.4 -12.7 -19.35 -12.8 -19.3 -12.9 -19.25 -13.0 -19.15 -13.1 -19.1 -13.2 -19.05 -13.3 -19.0 -13.4 -18.9 -13.5 -18.85 -13.6 -18.75 -13.7 -18.7 -13.85 -18.6 -13.95 -18.55 -14.05 -18.45 -14.15 -18.4 -14.25 -18.3 -14.35 -18.25 -14.45 -18.15 -14.55 -18.1 -14.65 -18.0 -14.75 -17.95 -14.85 -17.85 -14.95 -17.8 -15.0 -17.75 -15.05 -17.75 -15.1 -17.7 -15.15 -17.65 -15.2 -17.6 -15.25 -17.6 -15.3 -17.55 -15.35 -17.5 -15.4 -17.45 -15.45 -17.4 -15.5 -17.35 -15.5 -17.35 -15.55 -17.3 -15.6 -17.25 -15.65 -17.2 -15.7 -17.15 -15.75 -17.1 -15.8 -17.05 -15.8 -17.05 -15.85 -17.0 -15.9 -16.95 -15.95 -16.9 -15.95 -16.85 -16.0 -16.8 -16.05 -16.75 -16.1 -16.7 -16.15 -16.65 -16.2 -16.65 -16.2 -16.6 -16.25 -16.55 -16.3 -16.5 -16.35 -16.45 -16.4 -16.4 -16.4 -16.35 -16.45 -16.35 -16.5 -16.3 -16.55 -16.25 -16.55 -16.2 -16.6 -16.15 -16.65 -16.1 -16.65 -16.05 -16.7 -16.0 -16.75 -15.95 -16.75 -15.95 -16.8 -15.9 -16.85 -15.85 -16.85 -15.8 -16.9 -15.75 -16.95 -15.7 -16.95 -15.7 -17.0 -15.65 -17.05 -15.6 -17.05 -15.55 -17.1 -15.55 -17.1 -15.5 -17.15 -15.45 -17.2 -15.4 -17.2 -15.35 -17.25 -15.3 -17.25 -15.3 -17.3 -15.25 -17.35 -15.2 -17.35 -15.15 -17.4 -14.8 -17.65 -14.5 -17.85 -14.15 -18.05 -13.85 -18.2 -13.8 -18.2 -13.8 -18.25 -13.75 -18.25 -13.7 -18.25 -13.65 -18.3 -13.65 -18.3 -13.6 -18.35 -13.55 -18.35 -13.55 -18.35 -13.5 -18.4 -13.45 -18.4 -13.45 -18.4 -13.4 -18.45 -13.35 -18.45 -13.35 -18.5 -13.3 -18.5 -13.25 -18.5 -13.25 -18.55 -13.2 -18.55 -13.15 -18.55 -13.1 -18.6 -13.1 -18.6 -13.05 -18.6 -13.0 -18.65 -13.0 -18.65 -12.95 -18.65 -12.9 -18.7 -12.9 -18.7 -12.85 -18.7 -12.8 -18.7 -12.8 -18.75 -12.75 -18.75 -12.45 -18.85 -12.1 -18.95 -12.05 -18.95 -12.0 -19.0 -12.0 -19.0 -11.95 -19.0 -11.9 -19.05 -11.85 -19.05 -11.85 -19.05 -11.8 -19.1 -11.75 -19.1 -11.7 -19.1 -11.65 -19.15 -11.6 -19.15 -11.6 -19.15 -11.55 -19.15 -11.5 -19.2 -11.45 -19.2 -11.1 -19.3 -10.75 -19.4 -10.45 -19.5 -10.0 -19.6 -9.95 -19.6 -9.9 -19.65 -9.85 -19.65 -9.8 -19.65 -9.8 -19.7 -9.75 -19.7 -9.7 -19.7 -9.65 -19.75 -9.6 -19.75 -9.55 -19.75 -9.5 -19.75 -9.45 -19.75 -9.4 -19.8 -9.35 -19.8 -9.3 -19.8 -9.25 -19.8 -8.85 -19.9 -8.45 -20.0 -8.1 -20.1 -7.6 -20.2 -7.55 -20.2 -7.5 -20.2 -7.45 -20.25 -7.4 -20.25 -7.35 -20.25 -7.3 -20.25 -7.25 -20.3 -7.2 -20.3 -7.15 -20.3 -7.1 -20.3 -7.05 -20.3 -6.95 -20.3 -6.9 -20.35 -6.85 -20.35 -6.8 -20.35 -6.75 -20.35 -6.7 -20.35 -6.65 -20.35 -6.6 -20.4 -6.5 -20.4 -6.45 -20.4 -6.4 -20.4 -6.35 -20.45 -6.3 -20.45 -6.25 -20.45 -6.15 -20.45 -6.1 -20.45 -6.05 -20.45 -6.0 -20.5 -5.9 -20.5 -5.85 -20.5 -5.8 -20.5 -5.35 -20.55 -4.9 -20.6 -4.45 -20.65 -4.0 -20.7 -3.65 -20.75 -3.15 -20.8 -3.1 -20.8 -3.05 -20.8 -3.0 -20.8 -2.95 -20.8 -2.9 -20.8 -2.85 -20.8 -2.8 -20.8 -2.75 -20.8 -2.7 -20.8 -2.65 -20.8 -2.6 -20.8 -2.5 -20.85 -2.45 -20.85 -2.4 -20.85 -2.35 -20.85 -2.3 -20.85 -1.9 -20.85 -1.5 -20.85 -1.1 -20.85 -0.75 -20.85 -0.4 -20.85 -0.05 -20.85 L-0.05 -20.85" fill="#ffffff" fill-rule="evenodd" stroke="none"/>
  </g>
</svg>
