<?xml version="1.0" encoding="UTF-8" standalone="no"?>
<svg xmlns:xlink="http://www.w3.org/1999/xlink" height="10.2px" width="35.75px" xmlns="http://www.w3.org/2000/svg">
  <g transform="matrix(1.0, 0.0, 0.0, 1.0, 17.8, 9.75)">
    <path d="M-20.65 -6.5 Q-20.65 -6.6 -20.65 -6.75 -20.65 -6.9 -20.65 -7.0 -20.65 -7.15 -20.65 -7.3 -20.65 -7.45 -20.65 -7.6 -20.65 -7.75 -20.65 -7.9 -20.6 -8.05 -20.6 -8.2 -20.6 -8.35 -20.55 -8.5 -20.55 -8.7 -20.5 -8.85 -20.45 -9.15 -20.4 -9.4 -20.3 -9.65 -20.25 -9.9 -20.15 -10.15 -20.1 -10.4 -20.0 -10.6 -19.9 -10.85 -19.85 -11.05 -19.75 -11.25 -19.65 -11.45 -19.55 -11.6 -19.45 -11.8 -19.35 -11.95 -19.3 -12.1 -19.2 -12.25 -18.95 -12.65 -18.7 -13.0 -18.35 -13.45 -18.0 -13.9 -17.55 -14.4 -17.1 -14.9 -16.6 -15.45 -16.05 -15.95 -15.45 -16.5 -14.8 -17.0 -14.1 -17.55 -13.4 -18.05 -12.6 -18.55 -11.75 -18.95 -10.85 -19.4 -9.9 -19.75 -9.25 -20.0 -8.6 -20.15 -7.95 -20.35 -7.3 -20.45 -6.7 -20.55 -6.1 -20.65 -5.5 -20.7 -4.9 -20.75 -4.3 -20.75 -3.7 -20.75 -3.2 -20.75 -2.6 -20.7 -2.1 -20.7 -1.5 -20.65 -1.05 -20.6 -0.4 -20.55 0.2 -20.5 0.8 -20.4 1.5 -20.35 2.25 -20.2 3.0 -20.05 3.8 -19.9 4.65 -19.7 5.55 -19.45 6.45 -19.2 7.4 -18.9 8.4 -18.55 9.35 -18.15 10.4 -17.7 11.45 -17.2 12.55 -16.65 13.6 -16.05 14.1 -13.15 14.6 -10.25 14.4 -10.4 14.15 -10.5 13.95 -10.65 13.7 -10.75 13.45 -10.9 13.2 -11.05 12.9 -11.2 12.65 -11.35 12.35 -11.5 12.05 -11.7 11.7 -11.85 11.4 -12.0 11.05 -12.15 10.7 -12.3 10.35 -12.5 10.0 -12.65 8.95 -13.1 8.4 -13.35 7.45 -13.8 6.65 -14.1 5.65 -14.5 4.75 -14.8 3.75 -15.2 2.75 -15.45 1.7 -15.8 0.7 -16.0 -0.4 -16.2 -1.45 -16.35 -2.6 -16.45 -3.65 -16.5 -4.8 -16.5 -5.9 -16.35 -7.4 -16.15 -8.85 -15.7 -10.15 -15.3 -11.45 -14.65 -12.65 -14.1 -13.8 -13.3 -14.85 -12.65 -15.8 -11.8 -16.7 -11.05 -17.55 -10.25 -18.25 -9.5 -18.9 -8.75 -19.45 -8.1 -19.95 -7.45 -20.3 -7.0 -20.65 -6.5 L-20.65 -6.5" fill="#000000" fill-opacity="0.29803923" fill-rule="evenodd" stroke="none"/>
  </g>
</svg>
