<?xml version="1.0" encoding="UTF-8" standalone="no"?>
<svg xmlns:xlink="http://www.w3.org/1999/xlink" height="20.65px" width="36.3px" xmlns="http://www.w3.org/2000/svg">
  <g transform="matrix(1.0, 0.0, 0.0, 1.0, 18.45, 10.15)">
    <path d="M1.05 -19.7 Q1.15 -19.7 1.4 -19.7 1.5 -19.7 1.75 -19.7 1.8 -19.7 1.8 -19.7 1.85 -19.75 1.9 -19.75 1.95 -19.75 1.95 -19.75 2.0 -19.75 2.05 -19.7 2.1 -19.7 2.15 -19.7 2.3 -19.7 2.6 -19.7 2.75 -19.7 3.1 -19.7 3.15 -19.7 3.2 -19.7 3.25 -19.7 3.3 -19.7 3.35 -19.65 3.4 -19.65 3.45 -19.65 3.5 -19.65 3.55 -19.65 3.6 -19.65 3.65 -19.65 3.7 -19.65 3.75 -19.65 3.8 -19.65 3.85 -19.6 3.9 -19.6 3.95 -19.6 4.0 -19.6 4.05 -19.6 4.1 -19.6 4.3 -19.6 4.65 -19.5 4.7 -19.5 4.75 -19.5 4.8 -19.5 4.85 -19.5 4.85 -19.5 4.9 -19.45 4.95 -19.45 5.0 -19.45 5.0 -19.45 5.05 -19.45 5.1 -19.45 5.1 -19.45 5.15 -19.45 5.2 -19.4 5.2 -19.4 5.25 -19.4 5.55 -19.35 6.05 -19.25 6.15 -19.2 6.55 -19.1 6.85 -19.05 7.05 -19.0 7.2 -18.95 8.2 -18.6 8.3 -18.55 8.35 -18.55 8.45 -18.5 8.5 -18.5 8.6 -18.45 8.65 -18.4 8.75 -18.4 8.8 -18.35 8.9 -18.3 8.95 -18.3 9.05 -18.25 9.1 -18.2 9.15 -18.2 9.25 -18.15 9.3 -18.1 9.4 -18.05 9.5 -18.0 9.55 -18.0 9.65 -17.95 9.75 -17.9 9.8 -17.9 9.9 -17.85 10.0 -17.8 10.05 -17.75 10.15 -17.7 10.2 -17.65 10.3 -17.65 10.4 -17.6 10.45 -17.55 10.55 -17.5 10.6 -17.45 10.7 -17.4 10.8 -17.35 10.85 -17.3 10.95 -17.25 11.0 -17.2 11.1 -17.15 11.15 -17.1 11.25 -17.05 11.3 -17.0 11.4 -16.95 11.45 -16.9 11.55 -16.8 11.6 -16.75 11.65 -16.7 11.75 -16.65 11.8 -16.6 11.9 -16.55 12.0 -16.5 12.05 -16.4 12.15 -16.35 12.2 -16.3 12.3 -16.25 12.35 -16.15 12.45 -16.1 12.5 -16.05 12.55 -15.95 12.65 -15.9 12.7 -15.8 12.75 -15.75 12.85 -15.7 12.9 -15.6 12.95 -15.55 13.05 -15.45 13.15 -15.35 13.45 -15.0 13.7 -14.7 13.85 -14.5 14.4 -13.6 14.45 -13.5 14.75 -12.9 14.9 -12.5 15.15 -11.8 15.25 -11.45 15.3 -11.3 15.4 -10.95 15.5 -10.6 15.55 -10.45 15.65 -9.85 15.7 -9.45 15.8 -8.8 15.85 -8.45 15.85 -8.4 15.95 -7.45 15.95 -7.3 16.0 -7.1 16.0 -6.95 16.0 -6.8 16.0 -6.6 16.0 -6.45 16.05 -6.3 16.05 -6.1 16.05 -5.95 16.05 -5.8 16.05 -5.6 16.05 -5.45 16.05 -5.3 16.05 -5.1 16.05 -4.95 16.05 -4.75 16.05 -4.6 16.05 -4.45 16.05 -4.3 16.05 -4.15 16.0 -4.0 16.0 -3.85 16.0 -3.65 16.0 -3.5 16.0 -3.35 16.0 -3.2 15.95 -3.05 15.95 -2.9 15.95 -2.75 15.9 -2.6 15.9 -2.4 15.9 -2.25 15.7 -0.9 15.5 0.15 15.2 1.4 14.9 2.35 14.85 2.5 14.8 2.6 14.8 2.75 14.75 2.85 14.7 3.0 14.65 3.1 14.6 3.25 14.55 3.35 14.5 3.5 14.45 3.65 14.4 3.75 14.4 3.9 14.35 4.0 14.3 4.15 14.25 4.25 14.2 4.4 13.75 5.4 13.4 6.15 13.35 6.25 13.3 6.35 13.25 6.45 13.2 6.55 13.15 6.65 13.1 6.75 13.05 6.85 13.0 6.95 12.95 7.05 12.9 7.15 12.85 7.25 12.8 7.35 12.75 7.45 12.7 7.55 12.65 7.65 12.6 7.75 12.15 8.55 11.85 9.1 11.8 9.1 11.75 9.15 11.75 9.15 11.7 9.15 11.65 9.2 11.6 9.2 11.55 9.2 11.55 9.25 11.5 9.25 11.45 9.25 11.4 9.3 11.4 9.3 11.35 9.3 11.3 9.3 11.25 9.35 11.25 9.35 10.9 9.5 10.65 9.6 10.15 9.75 9.95 9.85 9.8 9.9 9.55 9.95 9.3 10.05 9.2 10.05 8.9 10.2 8.4 10.35 8.35 10.35 8.3 10.4 8.25 10.4 8.2 10.4 8.15 10.4 8.1 10.45 8.05 10.45 7.95 10.45 7.9 10.5 7.85 10.5 7.8 10.5 7.75 10.55 7.7 10.55 7.65 10.55 7.6 10.6 7.55 10.6 7.5 10.6 7.45 10.6 7.4 10.65 7.3 10.65 7.25 10.65 7.2 10.65 7.15 10.7 7.1 10.7 7.05 10.7 7.0 10.7 6.95 10.75 6.9 10.75 6.85 10.75 6.8 10.75 6.75 10.8 6.7 10.8 6.05 10.95 5.75 11.05 5.7 11.05 5.6 11.05 5.55 11.1 5.5 11.1 5.45 11.1 5.4 11.1 5.3 11.1 5.25 11.15 5.2 11.15 5.15 11.15 5.1 11.15 5.05 11.2 5.0 11.2 4.95 11.2 4.9 11.2 4.85 11.25 4.55 11.3 3.8 11.4 3.7 11.4 3.65 11.45 3.55 11.45 3.5 11.5 3.4 11.5 3.35 11.5 3.25 11.5 3.2 11.55 3.1 11.55 3.05 11.55 2.95 11.55 2.9 11.6 2.8 11.6 2.75 11.6 2.65 11.6 2.6 11.6 2.05 11.7 1.2 11.8 0.6 11.85 -0.35 11.9 -0.45 11.9 -0.55 11.9 -0.65 11.9 -0.75 11.9 -0.85 11.95 -0.95 11.95 -1.05 11.95 -1.2 11.95 -1.3 11.95 -1.4 11.95 -1.5 11.95 -1.6 11.95 -1.7 11.95 -1.8 11.95 -1.9 11.95 -2.0 11.95 -2.1 11.95 -2.25 11.95 -2.35 11.95 -2.45 11.95 -2.55 11.95 -2.7 11.95 -2.8 11.95 -2.9 11.95 -3.0 11.95 -3.1 11.95 -3.25 11.95 -3.35 11.9 -3.45 11.9 -3.55 11.9 -3.65 11.9 -3.75 11.9 -3.85 11.9 -4.0 11.9 -4.1 11.9 -4.25 11.85 -4.35 11.85 -4.5 11.85 -4.6 11.85 -4.7 11.85 -4.85 11.8 -4.95 11.8 -5.05 11.8 -5.2 11.8 -5.3 11.75 -5.45 11.75 -5.55 11.75 -5.65 11.7 -6.9 11.55 -7.25 11.5 -7.55 11.45 -8.1 11.4 -8.6 11.3 -8.8 11.25 -8.9 11.25 -9.0 11.2 -9.1 11.2 -9.2 11.2 -9.3 11.15 -9.4 11.15 -9.5 11.15 -9.6 11.1 -9.7 11.1 -9.8 11.05 -9.85 11.05 -9.95 11.05 -10.05 11.0 -10.15 11.0 -10.25 10.95 -10.3 10.95 -11.1 10.8 -11.75 10.6 -11.85 10.55 -11.95 10.55 -12.0 10.5 -12.1 10.5 -12.2 10.45 -12.3 10.4 -12.35 10.4 -12.45 10.35 -12.55 10.3 -12.6 10.3 -12.7 10.25 -12.8 10.2 -12.85 10.2 -12.95 10.15 -13.05 10.1 -13.1 10.05 -13.2 10.0 -13.3 10.0 -13.35 9.95 -13.45 9.9 -13.55 9.9 -13.65 9.85 -13.7 9.8 -13.8 9.75 -13.9 9.75 -13.95 9.7 -14.05 9.65 -14.15 9.6 -14.2 9.55 -14.3 9.55 -14.4 9.5 -14.45 9.45 -14.55 9.4 -14.6 9.35 -14.7 9.3 -14.8 9.25 -14.85 9.2 -14.95 9.15 -15.0 9.1 -15.1 9.05 -15.2 9.0 -15.25 8.95 -15.35 8.85 -15.4 8.8 -15.5 8.75 -15.55 8.7 -15.65 8.65 -15.7 8.6 -15.8 8.55 -15.85 8.5 -15.95 8.4 -16.0 8.35 -16.1 8.3 -16.15 8.25 -16.25 8.2 -16.3 8.1 -16.4 8.05 -16.45 8.0 -16.5 7.9 -16.6 7.85 -16.65 7.8 -16.75 7.7 -16.8 7.65 -16.85 7.55 -16.95 7.45 -17.05 7.35 -17.1 7.3 -17.2 7.2 -17.3 7.1 -17.35 7.0 -17.45 6.9 -17.55 6.8 -17.6 6.7 -17.7 6.6 -17.8 6.5 -17.85 6.4 -17.95 6.3 -18.0 6.2 -18.1 6.1 -18.15 6.0 -18.2 5.9 -18.3 5.8 -18.35 5.7 -18.4 5.55 -18.45 5.45 -18.5 5.35 -18.6 5.25 -18.65 5.15 -18.7 5.05 -18.75 4.95 -18.8 4.85 -18.85 4.7 -18.9 4.6 -18.95 4.5 -19.0 4.4 -19.05 4.3 -19.1 4.2 -19.15 4.1 -19.2 4.0 -19.25 3.9 -19.3 3.8 -19.35 3.65 -19.4 3.55 -19.45 3.45 -19.45 3.35 -19.5 3.25 -19.55 3.15 -19.6 3.05 -19.6 2.95 -19.65 2.8 -19.7 2.7 -19.7 2.6 -19.75 2.5 -19.75 2.4 -19.8 2.3 -19.8 2.2 -19.85 2.1 -19.85 2.0 -19.9 1.9 -19.9 1.8 -19.9 1.7 -19.95 1.6 -19.95 1.5 -20.0 1.35 -20.0 1.25 -20.05 1.15 -20.05 1.05 -20.05 0.95 -20.05 0.85 -20.1 0.75 -20.1 0.65 -20.1 0.55 -20.1 0.5 -20.15 0.4 -20.15 0.3 -20.15 0.2 -20.15 0.1 -20.15 0.0 -20.2 -0.1 -20.2 -0.2 -20.2 -0.3 -20.2 -0.4 -20.2 -0.5 -20.2 -0.6 -20.2 -0.65 -20.2 -0.75 -20.25 -0.85 -20.25 -0.9 -20.25 -1.0 -20.25 -1.05 -20.25 -1.15 -20.25 -1.2 -20.25 -1.3 -20.25 -1.4 -20.25 -1.45 -20.25 -1.55 -20.25 -1.65 -20.25 -1.7 -20.25 -1.8 -20.25 -1.9 -20.25 -1.95 -20.25 -2.0 -20.25 -2.1 -20.25 -2.15 -20.25 -2.2 -20.25 -2.25 -20.25 -2.35 -20.25 -2.4 -20.25 -2.45 -20.25 -2.5 -20.25 -2.6 -20.25 -2.65 -20.25 -2.7 -20.25 -2.75 -20.2 -2.85 -20.2 -2.9 -20.2 -2.95 -20.2 -3.0 -20.2 -3.05 -20.2 -3.1 -20.2 -3.15 -20.2 -3.2 -20.2 -3.2 -20.2 -3.25 -20.2 -3.3 -20.2 -3.35 -20.2 -3.4 -20.2 -3.45 -20.2 -3.5 -20.2 -3.55 -20.15 -3.55 -20.15 -3.6 -20.2 -4.05 -20.2 -4.25 -20.2 -4.3 -20.2 -4.35 -20.2 -4.45 -20.2 -4.5 -20.2 -4.55 -20.2 -4.6 -20.2 -4.65 -20.2 -4.7 -20.2 -4.8 -20.2 -4.85 -20.2 -4.9 -20.2 -4.95 -20.2 -5.0 -20.2 -5.1 -20.15 -5.15 -20.15 -5.2 -20.15 -5.25 -20.15 -5.35 -20.15 -5.4 -20.15 -5.5 -20.15 -5.55 -20.15 -5.65 -20.15 -5.7 -20.15 -5.8 -20.15 -5.85 -20.15 -5.95 -20.15 -6.0 -20.15 -6.05 -20.15 -6.15 -20.15 -6.2 -20.1 -6.3 -20.1 -6.35 -20.1 -6.45 -20.1 -6.5 -20.05 -6.6 -20.05 -6.7 -20.05 -6.8 -20.05 -6.85 -20.0 -6.95 -20.0 -7.05 -20.0 -7.1 -19.95 -7.2 -19.95 -7.3 -19.95 -7.35 -19.9 -7.45 -19.9 -7.55 -19.9 -7.6 -19.85 -7.7 -19.85 -7.8 -19.8 -7.9 -19.8 -8.0 -19.8 -8.1 -19.75 -8.2 -19.75 -8.3 -19.7 -8.4 -19.7 -8.5 -19.65 -8.6 -19.65 -8.65 -19.6 -8.75 -19.6 -8.85 -19.55 -8.95 -19.55 -9.05 -19.5 -9.15 -19.45 -9.25 -19.4 -9.35 -19.4 -9.45 -19.35 -9.55 -19.35 -9.65 -19.3 -9.75 -19.25 -9.85 -19.25 -9.95 -19.2 -10.05 -19.15 -10.15 -19.1 -10.25 -19.1 -10.35 -19.05 -10.45 -19.0 -10.5 -18.95 -10.6 -18.9 -10.7 -18.85 -10.8 -18.8 -10.9 -18.75 -11.0 -18.7 -11.1 -18.65 -11.2 -18.6 -11.35 -18.55 -11.45 -18.5 -11.55 -18.45 -11.65 -18.4 -11.75 -18.35 -11.85 -18.25 -11.95 -18.2 -12.05 -18.15 -12.15 -18.1 -12.25 -18.05 -12.35 -17.95 -12.45 -17.9 -12.55 -17.8 -12.65 -17.75 -12.75 -17.7 -12.85 -17.6 -12.95 -17.55 -13.05 -17.45 -13.15 -17.4 -13.25 -17.3 -13.35 -17.25 -13.45 -17.15 -13.55 -17.1 -13.65 -17.0 -13.75 -16.95 -13.85 -16.85 -13.95 -16.75 -14.0 -16.7 -14.05 -16.7 -14.1 -16.65 -14.15 -16.6 -14.2 -16.55 -14.25 -16.55 -14.3 -16.5 -14.35 -16.45 -14.4 -16.4 -14.45 -16.35 -14.5 -16.35 -14.55 -16.3 -14.55 -16.25 -14.6 -16.2 -14.65 -16.15 -14.7 -16.1 -14.75 -15.7 -15.1 -15.4 -15.35 -15.35 -15.4 -15.3 -15.45 -15.3 -15.45 -15.25 -15.5 -15.2 -15.55 -15.15 -15.6 -15.1 -15.6 -15.05 -15.65 -15.0 -15.7 -15.0 -15.7 -14.95 -15.75 -14.9 -15.8 -14.85 -15.8 -14.8 -15.85 -14.75 -15.85 -14.7 -15.9 -14.45 -16.1 -14.05 -16.4 -13.65 -16.65 -13.4 -16.8 -13.35 -16.85 -13.3 -16.85 -13.3 -16.9 -13.25 -16.9 -13.2 -16.95 -13.15 -16.95 -13.1 -16.95 -13.1 -17.0 -13.05 -17.0 -13.0 -17.05 -12.95 -17.05 -12.9 -17.1 -12.9 -17.1 -12.85 -17.1 -12.8 -17.15 -12.75 -17.15 -12.3 -17.4 -12.2 -17.45 -12.15 -17.45 -12.15 -17.5 -12.1 -17.5 -12.05 -17.5 -12.05 -17.55 -12.0 -17.55 -11.95 -17.55 -11.95 -17.6 -11.9 -17.6 -11.85 -17.6 -11.85 -17.6 -11.8 -17.65 -11.75 -17.65 -11.75 -17.65 -11.7 -17.65 -11.65 -17.7 -11.55 -17.75 -11.35 -17.8 -11.05 -17.85 -11.0 -17.9 -10.95 -17.9 -10.95 -17.95 -10.9 -17.95 -10.85 -17.95 -10.8 -17.95 -10.8 -18.0 -10.75 -18.0 -10.7 -18.0 -10.65 -18.05 -10.6 -18.05 -10.6 -18.05 -10.55 -18.05 -10.5 -18.1 -10.45 -18.1 -10.4 -18.1 -10.35 -18.1 -10.15 -18.2 -9.65 -18.3 -9.4 -18.4 -8.9 -18.5 -8.85 -18.5 -8.8 -18.55 -8.8 -18.55 -8.75 -18.55 -8.7 -18.6 -8.65 -18.6 -8.6 -18.6 -8.55 -18.6 -8.5 -18.65 -8.45 -18.65 -8.4 -18.65 -8.35 -18.65 -8.3 -18.7 -8.25 -18.7 -8.2 -18.7 -8.15 -18.7 -8.0 -18.75 -7.75 -18.8 -7.5 -18.85 -7.35 -18.9 -7.25 -18.95 -6.95 -19.0 -6.65 -19.05 -6.5 -19.1 -6.05 -19.2 -5.65 -19.25 -5.05 -19.35 -4.7 -19.35 -4.4 -19.4 -3.8 -19.45 -3.5 -19.5 -2.9 -19.55 -2.65 -19.6 -2.05 -19.65 -1.55 -19.65 -1.2 -19.7 -0.95 -19.7 -0.4 -19.7 -0.2 -19.7 0.35 -19.7 0.55 -19.7 1.05 -19.7 L1.05 -19.7" fill="#1e1e1e" fill-rule="evenodd" stroke="none"/>
  </g>
</svg>
