<?xml version="1.0" encoding="UTF-8" standalone="no"?>
<svg xmlns:xlink="http://www.w3.org/1999/xlink" height="35.65px" width="53.8px" xmlns="http://www.w3.org/2000/svg">
  <g transform="matrix(1.0, 0.0, 0.0, 1.0, 26.9, 17.85)">
    <path d="M25.3 1.95 Q25.25 1.6 25.15 1.2 25.05 0.9 24.9 0.55 24.75 0.2 24.6 -0.1 24.45 -0.4 24.25 -0.7 24.05 -0.95 23.85 -1.25 23.65 -1.55 23.45 -1.8 23.25 -2.05 23.0 -2.3 22.75 -2.55 22.5 -2.8 22.05 -3.25 21.6 -3.75 21.1 -4.15 20.6 -4.6 20.15 -5.05 19.6 -5.45 19.15 -5.85 18.6 -6.25 18.1 -6.6 17.55 -7.0 17.0 -7.35 16.45 -7.7 15.9 -8.05 15.35 -8.35 14.8 -8.7 14.25 -9.0 14.0 -9.15 13.8 -9.25 13.6 -9.4 13.35 -9.55 13.15 -9.7 12.95 -9.85 12.75 -10.0 12.6 -10.15 12.4 -10.3 12.2 -10.5 12.05 -10.65 11.9 -10.85 11.7 -11.05 11.55 -11.25 11.4 -11.45 11.3 -11.65 11.3 -11.65 10.9 -12.5 10.9 -12.55 10.95 -12.6 10.95 -12.6 11.0 -12.65 11.0 -12.7 11.05 -12.7 13.25 -11.7 16.7 -10.15 16.75 -10.15 16.75 -10.1 16.8 -10.1 16.85 -10.05 16.85 -10.05 16.9 -10.05 16.95 -10.0 16.95 -10.0 17.0 -9.95 17.0 -9.95 17.05 -9.95 17.05 -9.9 17.1 -9.9 17.15 -9.9 17.15 -9.9 17.2 -9.9 17.25 -9.9 17.3 -9.9 17.35 -9.9 17.35 -9.9 17.4 -9.9 17.45 -9.9 17.5 -9.9 17.55 -9.95 17.6 -9.95 17.65 -9.95 17.7 -9.95 17.7 -10.0 17.75 -10.0 17.8 -10.05 17.8 -10.05 17.85 -10.1 17.85 -10.1 17.85 -10.15 17.9 -10.2 17.9 -10.25 17.9 -10.25 17.9 -10.3 17.9 -10.35 17.9 -10.4 17.85 -10.45 17.85 -10.5 17.85 -10.55 17.85 -10.6 17.8 -10.65 17.8 -10.65 17.8 -10.7 17.75 -10.75 17.75 -10.8 17.7 -10.8 17.65 -10.85 17.65 -10.9 17.6 -10.9 17.55 -10.95 17.55 -10.95 17.5 -11.0 17.45 -11.0 17.4 -11.05 17.35 -11.05 17.3 -11.1 17.25 -11.1 17.2 -11.1 17.2 -11.15 17.15 -11.15 12.75 -13.1 11.3 -13.7 11.2 -13.75 11.15 -13.75 11.05 -13.8 11.0 -13.85 10.9 -13.9 10.85 -13.9 10.8 -13.95 10.75 -14.0 10.75 -14.05 10.7 -14.1 10.65 -14.2 10.65 -14.25 10.6 -14.35 10.6 -14.4 10.6 -14.5 10.55 -14.6 10.55 -15.05 10.15 -17.85 9.9 -17.75 9.7 -17.6 9.5 -17.45 9.3 -17.3 9.15 -17.15 9.0 -16.95 8.8 -16.75 8.65 -16.55 8.55 -16.4 8.4 -16.15 8.3 -15.95 8.15 -15.75 8.05 -15.55 7.9 -15.3 7.8 -15.1 7.7 -14.85 7.25 -14.9 5.65 -15.15 4.45 -15.35 3.65 -15.45 3.5 -15.45 3.3 -15.5 3.15 -15.5 3.0 -15.5 2.8 -15.55 2.65 -15.55 2.45 -15.55 2.3 -15.55 2.15 -15.55 1.95 -15.6 1.8 -15.6 1.6 -15.6 1.45 -15.6 1.25 -15.6 1.1 -15.6 0.95 -15.55 0.9 -15.55 0.85 -15.55 0.8 -15.55 0.75 -15.5 0.7 -15.5 0.65 -15.45 0.6 -15.4 0.55 -15.35 0.55 -15.35 0.45 -15.3 0.5 -15.3 0.4 -15.2 0.35 -15.15 0.3 -15.1 0.25 -15.05 0.2 -15.05 0.9 -14.55 1.0 -14.55 2.45 -14.35 7.4 -13.9 7.3 -13.25 7.15 -12.2 5.9 -12.5 5.45 -12.55 1.85 -13.2 0.95 -13.3 0.65 -13.3 0.35 -13.35 0.05 -13.4 -0.25 -13.45 -0.55 -13.55 -0.85 -13.6 -1.15 -13.7 -1.4 -13.8 -1.7 -13.9 -1.95 -14.0 -2.25 -14.1 -2.5 -14.25 -2.8 -14.4 -3.05 -14.55 -3.3 -14.7 -3.55 -14.9 -3.95 -15.15 -6.5 -17.1 -6.8 -17.35 -7.05 -17.55 -7.1 -17.35 -7.1 -17.2 -7.1 -17.0 -7.1 -16.8 -7.05 -16.6 -7.0 -16.4 -7.0 -16.15 -6.9 -15.9 -6.85 -15.65 -6.75 -15.4 -6.65 -15.1 -6.5 -14.75 -6.35 -14.45 -6.15 -14.05 -6.0 -13.65 -5.75 -13.2 -6.0 -13.1 -6.9 -12.85 -7.55 -12.65 -8.0 -12.55 -9.8 -11.9 -10.2 -11.65 -11.6 -10.9 -18.65 -7.05 -19.05 -6.8 -19.5 -6.6 -19.9 -6.4 -20.35 -6.2 -20.8 -6.0 -21.2 -5.8 -21.65 -5.65 -22.1 -5.5 -22.55 -5.35 -23.0 -5.2 -23.45 -5.05 -23.9 -4.95 -24.35 -4.85 -24.85 -4.75 -25.3 -4.65 -25.8 -4.6 -25.8 -4.6 -26.25 -4.5 -25.2 -2.8 -25.1 -2.6 -24.7 -1.9 -24.35 -1.3 -23.9 -0.65 -23.5 -0.05 -23.1 0.6 -22.65 1.2 -22.15 1.8 -21.7 2.35 -21.2 2.95 -20.7 3.5 -20.2 4.05 -19.65 4.55 -19.05 5.05 -18.5 5.5 -17.9 6.0 -17.25 6.4 -16.1 7.2 -14.3 8.25 -11.05 10.1 -11.25 9.95 -11.05 10.05 -10.85 10.2 -10.7 10.3 -10.45 10.45 -10.55 10.4 -10.05 10.7 -9.85 10.9 -9.65 11.0 -9.45 11.1 -9.25 11.25 -9.05 11.35 -8.85 11.45 -8.65 11.6 -8.45 11.7 -8.25 11.8 -8.05 11.9 -7.85 12.0 -7.65 12.05 -7.45 12.15 -7.3 12.25 -7.1 12.35 -7.0 12.4 -6.85 12.5 -6.7 12.6 -6.6 12.7 -6.5 12.8 -6.4 12.9 -6.3 13.0 -6.2 13.1 -6.15 13.2 -6.05 13.3 -5.95 13.45 -5.85 13.65 -5.7 13.8 -5.65 14.0 -5.55 14.2 -5.5 14.4 -5.4 14.6 -5.35 14.75 -5.35 14.95 -5.3 15.15 -5.3 15.3 -5.25 15.5 -5.25 15.65 -5.25 15.8 -5.25 15.95 -5.25 16.1 -5.25 16.25 -4.75 15.5 -4.35 15.05 -4.2 14.85 -3.4 13.95 -3.8 13.65 -4.0 13.55 -7.5 11.45 -7.9 11.2 -8.45 10.9 -8.95 10.55 -9.4 10.2 -9.9 9.8 -10.3 9.45 -10.75 9.0 -11.15 8.6 -11.5 8.15 -11.9 7.7 -12.25 7.2 -12.55 6.75 -12.9 6.2 -13.2 5.75 -13.5 5.2 -13.8 4.7 -14.1 4.15 -14.2 3.95 -14.3 3.7 -14.4 3.5 -14.45 3.3 -14.5 3.05 -14.5 2.85 -14.55 2.6 -14.55 2.4 -14.6 2.15 -14.55 1.95 -14.55 1.7 -14.55 1.5 -14.5 1.25 -14.5 1.05 -14.45 0.8 -14.4 0.6 -14.4 0.55 -14.35 0.45 -14.35 0.4 -14.3 0.35 -14.25 0.3 -14.2 0.25 -14.15 0.15 -14.1 0.1 -14.05 0.05 -14.0 0.0 -13.95 -0.05 -13.85 -0.1 -13.8 -0.15 -13.75 -0.2 -13.65 -0.3 -13.65 -0.3 -13.15 -0.75 -12.55 -1.1 -12.05 -1.45 -11.45 -1.8 -10.9 -2.1 -10.25 -2.4 -9.7 -2.65 -9.05 -2.9 -8.5 -3.1 -7.85 -3.3 -7.25 -3.5 -6.6 -3.7 -5.95 -3.85 -5.3 -4.0 -4.7 -4.15 -4.0 -4.25 -2.8 -4.5 -1.65 -4.65 -0.45 -4.8 0.7 -4.9 1.85 -5.0 3.05 -5.05 4.2 -5.05 5.35 -5.0 6.55 -4.95 7.7 -4.8 8.85 -4.7 10.0 -4.45 11.15 -4.25 12.3 -3.95 13.45 -3.65 14.55 -3.25 16.3 -2.6 18.75 -1.4 24.55 1.45 22.85 0.65 23.2 0.8 25.3 1.95 L25.3 1.95" fill="#000000" fill-rule="evenodd" stroke="none"/>
    <path d="M13.4 15.3 Q9.95 15.3 2.9 15.3 3.05 15.6 3.5 15.8 3.95 16.0 4.6 16.1 5.2 16.25 6.0 16.3 6.75 16.35 7.65 16.3 8.45 16.3 9.35 16.2 10.15 16.1 10.95 16.0 11.7 15.85 12.35 15.7 13.0 15.5 13.4 15.3 L13.4 15.3" fill="#000000" fill-rule="evenodd" stroke="none"/>
  </g>
</svg>
