<?xml version="1.0" encoding="UTF-8" standalone="no"?>
<svg xmlns:xlink="http://www.w3.org/1999/xlink" height="200.0px" width="200.0px" xmlns="http://www.w3.org/2000/svg">
  <g transform="matrix(1.0, 0.0, 0.0, 1.0, 100.0, 100.0)">
    <path d="M25.3 -1.4 Q25.4 -1.5 25.45 -1.6 25.55 -1.75 25.55 -1.85 25.6 -1.95 25.65 -2.05 25.65 -2.15 25.65 -2.3 25.65 -2.4 25.65 -2.5 25.6 -2.6 25.55 -2.7 25.55 -2.8 25.45 -2.9 25.4 -3.0 25.35 -3.1 24.2 -4.55 23.4 -5.4 19.65 -9.35 17.95 -10.65 17.25 -11.2 16.5 -11.7 15.8 -12.2 15.05 -12.7 14.3 -13.15 13.5 -13.6 12.75 -14.05 11.9 -14.4 11.1 -14.8 10.3 -15.15 9.45 -15.5 8.6 -15.85 7.75 -16.15 6.85 -16.4 6.0 -16.7 5.05 -16.95 4.65 -17.05 4.35 -17.15 4.0 -17.2 3.7 -17.3 3.3 -17.4 3.0 -17.45 2.65 -17.55 2.3 -17.6 1.95 -17.65 1.6 -17.7 1.25 -17.75 0.9 -17.8 0.55 -17.85 0.2 -17.85 -0.2 -17.9 -0.55 -17.9 -1.1 -17.9 -1.7 -17.9 -2.25 -17.85 -2.8 -17.8 -3.35 -17.7 -3.9 -17.6 -4.45 -17.5 -5.0 -17.4 -5.55 -17.25 -6.05 -17.1 -6.6 -16.95 -7.1 -16.75 -7.65 -16.55 -8.15 -16.35 -8.65 -16.15 -9.15 -15.9 -9.9 -15.55 -10.6 -15.2 -11.3 -14.85 -12.05 -14.45 -12.75 -14.1 -13.45 -13.7 -14.15 -13.35 -14.85 -12.95 -15.55 -12.55 -16.25 -12.15 -16.95 -11.75 -17.6 -11.35 -18.3 -10.95 -19.0 -10.55 -19.65 -10.1 -20.3 -9.7 -20.35 -9.7 -20.35 -9.65 -20.4 -9.65 -20.45 -9.65 -20.45 -9.65 -20.5 -9.6 -20.55 -9.6 -20.55 -9.6 -20.6 -9.6 -20.65 -9.6 -20.65 -9.6 -20.7 -9.6 -20.75 -9.55 -20.75 -9.6 -20.8 -9.6 -20.8 -9.6 -23.1 -10.2 -26.65 -11.2 -27.25 -11.35 -28.2 -11.65 -29.5 -12.05 -29.8 -12.15 -29.8 -12.1 -29.8 -12.0 -29.8 -11.95 -29.75 -11.95 -26.1 -4.25 -24.15 -1.25 -23.75 -0.65 -23.35 -0.05 -22.9 0.55 -22.45 1.1 -22.0 1.7 -21.5 2.25 -21.05 2.8 -20.55 3.35 -20.05 3.9 -19.55 4.45 -19.05 4.95 -18.5 5.5 -17.95 6.0 -17.4 6.55 -16.9 7.05 -16.3 7.55 -15.95 7.85 -15.4 8.35 -15.4 8.35 -15.45 7.95 -15.45 7.5 -15.5 7.0 -15.5 6.55 -15.5 6.05 -15.5 5.6 -15.45 5.1 -15.45 4.65 -15.4 4.15 -15.4 3.7 -15.35 3.2 -15.3 2.75 -15.25 2.25 -15.2 1.8 -15.1 1.35 -15.05 0.85 -14.95 0.4 -14.95 0.25 -14.9 0.1 -14.9 -0.05 -14.85 -0.15 -14.8 -0.3 -14.8 -0.4 -14.75 -0.55 -14.7 -0.65 -14.7 -0.75 -14.65 -0.85 -14.6 -0.95 -14.55 -1.1 -14.5 -1.2 -14.5 -1.3 -14.45 -1.4 -14.4 -1.5 -14.3 -1.75 -14.3 -1.7 -14.25 -1.8 -14.2 -1.9 -14.15 -2.05 -14.1 -2.15 -14.0 -2.3 -13.95 -2.4 -13.85 -2.55 -13.75 -2.7 -13.65 -2.85 -13.55 -3.0 -13.45 -3.15 -13.3 -3.3 -13.2 -3.5 -13.05 -3.65 -12.95 -3.75 -12.85 -3.85 -12.75 -3.9 -12.65 -4.0 -12.55 -4.05 -12.4 -4.15 -12.25 -4.25 -12.05 -4.35 -12.1 -4.35 -11.65 -4.6 -11.35 -4.75 -11.1 -4.9 -10.8 -5.1 -10.45 -5.3 -10.05 -5.55 -9.65 -5.8 -9.5 -5.9 -9.3 -6.0 -9.15 -6.15 -8.95 -6.25 -8.8 -6.35 -8.6 -6.45 -8.45 -6.55 -8.25 -6.65 -8.05 -6.75 -7.9 -6.85 -7.7 -6.95 -7.5 -7.05 -7.35 -7.1 -7.15 -7.2 -6.95 -7.3 -6.75 -7.4 -6.5 -7.5 -6.2 -7.65 -6.1 -7.7 -5.65 -7.9 -5.3 -8.05 -5.1 -8.15 -4.8 -8.25 -4.55 -8.35 -4.25 -8.5 -3.95 -8.6 -3.65 -8.7 -3.35 -8.75 -3.05 -8.85 -2.75 -8.9 -2.45 -8.95 -2.15 -9.0 0.8 -9.2 2.9 -9.2 3.35 -9.2 3.8 -9.2 4.25 -9.15 4.7 -9.15 5.15 -9.1 5.6 -9.1 6.05 -9.05 6.5 -9.0 6.95 -8.95 7.4 -8.85 7.85 -8.8 8.25 -8.75 8.7 -8.65 9.15 -8.55 9.6 -8.5 10.05 -8.4 10.45 -8.3 10.8 -8.2 11.2 -8.1 11.6 -8.0 11.95 -7.85 12.35 -7.75 12.7 -7.6 13.1 -7.45 13.45 -7.35 13.8 -7.2 14.15 -7.05 14.55 -6.9 14.9 -6.75 15.25 -6.55 15.6 -6.4 15.95 -6.25 19.6 -4.5 20.2 -4.2 20.8 -3.9 25.05 -1.6 25.1 -1.55 25.1 -1.55 25.15 -1.5 25.2 -1.5 25.25 -1.45 25.3 -1.4 L25.3 -1.4" fill="#000000" fill-rule="evenodd" stroke="none"/>
    <path d="M-10.8 16.2 Q-5.85 18.85 -4.95 19.3 -4.25 19.65 -3.15 20.05 -1.55 20.65 -1.35 20.75 -1.2 20.8 -1.05 20.85 -0.9 20.9 -0.75 20.95 -0.55 21.0 -0.4 21.05 -0.25 21.05 -0.1 21.1 0.05 21.1 0.25 21.1 0.4 21.15 0.55 21.15 0.75 21.15 0.9 21.1 1.05 21.1 1.25 21.1 1.95 21.05 2.6 21.0 3.3 20.9 3.95 20.8 4.6 20.75 5.25 20.65 5.95 20.55 6.6 20.4 7.25 20.3 7.9 20.15 8.55 20.0 9.2 19.8 9.85 19.65 10.45 19.45 11.1 19.25 11.75 19.05 12.2 18.9 12.7 18.7 13.15 18.5 13.6 18.3 14.0 18.1 14.45 17.85 14.9 17.65 15.3 17.4 15.75 17.15 16.15 16.9 16.55 16.7 17.0 16.4 17.4 16.15 17.8 15.9 18.2 15.6 18.6 15.35 18.45 15.4 18.35 15.45 18.2 15.45 18.05 15.5 17.9 15.55 17.8 15.6 17.65 15.65 17.5 15.7 17.35 15.7 17.25 15.75 17.1 15.8 16.95 15.85 16.8 15.9 16.7 15.95 16.55 15.95 16.4 16.0 15.75 16.2 15.15 16.4 14.5 16.6 13.9 16.75 13.3 16.95 12.65 17.15 12.0 17.3 11.4 17.45 10.75 17.65 10.15 17.75 9.5 17.9 8.85 18.05 8.2 18.2 7.55 18.3 6.9 18.4 6.25 18.5 5.8 18.55 5.4 18.6 5.0 18.65 4.6 18.7 4.15 18.75 3.75 18.75 3.35 18.8 2.95 18.8 2.5 18.85 2.1 18.85 1.65 18.85 1.25 18.85 0.85 18.85 0.45 18.8 0.0 18.8 -0.4 18.75 -0.8 18.7 -1.25 18.65 -1.65 18.6 -2.05 18.5 -2.45 18.45 -2.85 18.35 -3.25 18.25 -3.65 18.15 -4.05 18.05 -4.45 17.95 -4.85 17.85 -5.25 17.75 -5.6 17.65 -6.05 17.5 -6.4 17.4 -6.8 17.3 -7.5 17.1 -8.8 16.7 -10.15 16.25 -10.75 16.05 -10.75 16.1 -10.8 16.15 -10.8 16.15 -10.8 16.2 L-10.8 16.2" fill="#000000" fill-rule="evenodd" stroke="none"/>
  </g>
</svg>
