<?xml version="1.0" encoding="UTF-8" standalone="no"?>
<svg xmlns:xlink="http://www.w3.org/1999/xlink" height="27.1px" width="33.3px" xmlns="http://www.w3.org/2000/svg">
  <g transform="matrix(1.0, 0.0, 0.0, 1.0, 11.7, 14.75)">
    <path d="M-17.7 3.7 Q-17.9 3.45 -18.0 3.3 -18.25 3.05 -18.4 2.85 -18.65 2.55 -18.85 2.25 -19.05 1.9 -19.25 1.55 -19.5 1.15 -19.7 0.75 -19.9 0.35 -20.1 -0.1 -20.3 -0.6 -20.45 -1.15 -20.6 -1.65 -20.7 -2.25 -20.75 -2.55 -20.8 -2.9 -20.85 -3.2 -20.85 -3.5 -20.85 -3.8 -20.85 -4.1 -20.85 -4.4 -20.85 -4.65 -20.85 -4.95 -20.85 -5.2 -20.8 -5.4 -20.8 -5.65 -20.75 -5.85 -20.7 -6.1 -20.7 -6.3 -20.65 -6.45 -20.1 -6.85 -19.55 -7.2 -18.9 -7.65 -18.2 -8.05 -17.45 -8.5 -16.65 -8.9 -15.75 -9.35 -14.85 -9.7 -13.85 -10.15 -12.85 -10.45 -11.75 -10.8 -10.65 -11.05 -9.45 -11.3 -8.25 -11.45 -6.95 -11.6 -5.7 -11.6 -5.35 -11.6 -5.05 -11.6 -4.7 -11.55 -4.4 -11.55 -4.05 -11.55 -3.75 -11.5 -3.45 -11.45 -3.1 -11.45 -2.8 -11.4 -2.5 -11.35 -2.25 -11.3 -1.95 -11.25 -1.65 -11.25 -1.4 -11.2 -1.1 -11.1 -0.85 -11.05 -0.75 -11.15 -0.65 -11.25 -0.55 -11.3 -0.4 -11.4 -0.3 -11.5 -0.2 -11.55 -0.1 -11.65 0.0 -11.7 0.1 -11.8 0.2 -11.85 0.3 -11.95 0.45 -12.0 0.55 -12.05 0.65 -12.1 0.75 -12.2 0.85 -12.25 2.05 -12.9 3.4 -13.25 4.7 -13.55 6.1 -13.6 7.35 -13.6 8.75 -13.4 9.95 -13.2 11.3 -12.85 12.4 -12.5 13.6 -12.05 14.6 -11.7 15.6 -11.2 16.4 -10.85 17.15 -10.4 17.65 -10.15 18.15 -9.85 18.3 -9.8 18.45 -9.75 18.65 -9.65 18.85 -9.6 19.0 -9.5 19.2 -9.4 19.4 -9.3 19.6 -9.2 19.8 -9.05 20.0 -8.9 20.2 -8.75 20.4 -8.6 20.6 -8.45 20.75 -8.25 20.95 -8.05 21.15 -7.85 21.45 -7.45 21.7 -7.05 21.9 -6.65 22.1 -6.2 22.25 -5.75 22.35 -5.3 22.4 -4.85 22.45 -4.35 22.5 -3.9 22.5 -3.35 22.5 -2.9 22.5 -2.3 22.45 -1.85 22.4 -1.25 22.35 -0.9 22.3 -0.15 22.25 0.15 22.25 0.45 22.2 0.8 22.15 1.15 22.1 1.5 22.0 1.9 21.95 2.3 21.85 2.7 21.75 3.15 21.6 3.6 21.5 4.05 21.35 4.5 21.15 5.0 21.0 5.45 20.8 5.95 20.55 6.45 20.4 6.75 20.3 7.05 20.15 7.3 20.0 7.6 19.85 7.85 19.7 8.1 19.6 8.35 19.45 8.6 19.3 8.85 19.15 9.05 19.0 9.3 18.9 9.5 18.75 9.7 18.6 9.9 18.5 10.05 18.35 10.25 12.75 10.25 1.45 10.3 0.75 10.25 0.1 10.15 -0.6 10.1 -1.3 10.0 -2.0 9.9 -2.7 9.75 -3.45 9.65 -4.15 9.5 -4.9 9.4 -5.65 9.2 -6.4 9.05 -7.15 8.85 -7.9 8.7 -8.65 8.5 -9.45 8.25 -10.25 8.05 -12.05 7.45 -12.85 7.15 -13.1 7.05 -13.35 6.95 -13.6 6.8 -13.85 6.65 -14.15 6.5 -14.45 6.35 -14.75 6.15 -15.05 5.95 -15.4 5.75 -15.7 5.5 -16.05 5.25 -16.35 5.0 -16.7 4.7 -17.05 4.4 -17.35 4.05 -17.7 3.7 L-17.7 3.7" fill="#ffffff" fill-rule="evenodd" stroke="none"/>
  </g>
</svg>
