<?xml version="1.0" encoding="UTF-8" standalone="no"?>
<svg xmlns:xlink="http://www.w3.org/1999/xlink" height="44.95px" width="24.9px" xmlns="http://www.w3.org/2000/svg">
  <g transform="matrix(1.0, 0.0, 0.0, 1.0, 25.0, 21.25)">
    <path d="M-28.9 12.35 Q-28.95 12.15 -28.95 11.95 -29.0 11.75 -29.05 11.55 -29.1 11.3 -29.1 11.05 -29.15 10.8 -29.15 10.55 -29.15 10.3 -29.2 10.0 -29.2 9.75 -29.2 9.45 -29.15 9.15 -29.15 8.85 -29.15 8.5 -29.1 8.2 -29.1 8.0 -29.05 7.8 -29.0 7.55 -28.95 7.3 -28.9 7.0 -28.85 6.7 -28.75 6.35 -28.65 6.0 -28.55 5.65 -28.45 5.3 -28.3 4.9 -28.15 4.55 -27.95 4.1 -27.75 3.75 -27.55 3.3 -27.3 2.9 -27.2 2.75 -27.1 2.6 -26.95 2.35 -26.8 2.15 -26.6 1.9 -26.4 1.65 -26.2 1.35 -25.9 1.1 -25.6 0.75 -25.3 0.45 -24.95 0.1 -24.55 -0.25 -24.1 -0.6 -23.6 -0.95 -23.1 -1.35 -22.55 -1.7 -22.3 -1.85 -22.05 -2.0 -21.7 -2.25 -21.3 -2.45 -20.85 -2.7 -20.3 -2.95 -19.7 -3.25 -19.05 -3.5 -18.35 -3.8 -17.6 -4.05 -16.75 -4.35 -15.85 -4.6 -14.85 -4.9 -13.85 -5.1 -12.75 -5.35 -11.6 -5.5 -10.95 -5.6 -10.45 -5.65 -9.7 -5.75 -9.0 -5.8 -8.15 -5.9 -7.25 -5.9 -6.25 -5.95 -5.25 -5.9 -4.15 -5.9 -3.05 -5.8 -1.85 -5.7 -0.65 -5.5 0.65 -5.3 1.9 -4.95 3.25 -4.6 4.6 -4.15 4.9 -4.05 5.2 -3.9 5.75 -3.7 6.3 -3.5 7.05 -3.15 7.75 -2.85 8.6 -2.45 9.35 -2.0 10.25 -1.5 11.0 -0.95 11.85 -0.35 12.55 0.25 13.3 0.9 13.85 1.6 14.45 2.4 14.75 3.15 14.9 3.5 15.0 3.9 15.1 4.25 15.2 4.6 15.25 4.95 15.3 5.25 15.35 5.55 15.4 5.85 15.4 6.1 15.4 6.35 15.4 6.55 15.4 6.7 15.4 6.85 15.4 6.95 15.4 7.0 15.4 7.05 15.4 7.1 15.4 7.2 15.35 7.3 15.35 7.4 15.35 7.55 15.3 7.7 15.25 7.9 15.2 8.1 15.15 8.3 15.1 8.5 15.05 8.7 14.95 8.95 14.85 9.2 14.75 9.45 14.65 9.7 14.5 9.95 14.3 10.35 14.0 10.75 13.75 11.15 13.45 11.5 13.15 11.85 12.8 12.15 12.5 12.45 12.15 12.75 11.8 13.05 11.35 13.35 11.0 13.6 10.55 13.85 10.15 14.1 9.7 14.35 9.3 14.6 8.8 14.85 8.05 15.25 7.7 15.45 7.1 15.75 6.6 16.0 6.0 16.3 5.45 16.55 4.85 16.8 4.3 17.05 3.65 17.3 3.05 17.55 2.4 17.8 1.75 18.0 1.05 18.2 0.35 18.4 -0.4 18.6 -1.2 18.8 -2.25 19.05 -3.3 19.2 -4.3 19.35 -5.3 19.45 -6.25 19.55 -7.25 19.6 -8.15 19.65 -9.1 19.65 -9.95 19.65 -10.85 19.65 -11.7 19.6 -12.5 19.55 -13.3 19.45 -14.05 19.35 -14.8 19.25 -15.5 19.15 -15.55 19.35 -15.65 19.5 -15.75 19.75 -15.85 19.95 -16.0 20.2 -16.15 20.45 -16.3 20.7 -16.5 20.95 -16.7 21.25 -16.9 21.45 -17.15 21.75 -17.4 22.0 -17.7 22.25 -18.0 22.45 -18.35 22.65 -18.7 22.85 -18.9 22.95 -19.15 23.05 -19.35 23.1 -19.55 23.15 -19.75 23.25 -20.0 23.25 -20.2 23.3 -20.45 23.35 -20.7 23.35 -20.95 23.35 -21.2 23.35 -21.5 23.35 -21.8 23.35 -22.15 23.35 -22.4 23.35 -22.85 23.35 -23.65 23.35 -24.0 23.3 -24.6 23.3 -25.0 23.3 -25.5 23.25 -25.9 23.25 -26.3 23.2 -26.7 23.15 -27.05 23.1 -27.4 23.0 -27.7 22.95 -28.0 22.85 -28.3 22.7 -28.55 22.6 -28.85 22.45 -29.1 22.25 -29.4 22.05 -29.7 21.75 -30.0 21.5 -30.25 21.2 -30.55 20.85 -30.75 20.5 -31.0 20.1 -31.2 19.75 -31.4 19.3 -31.55 18.9 -31.7 18.45 -31.75 18.0 -31.85 17.55 -31.8 17.05 -31.8 16.6 -31.7 16.1 -31.6 15.7 -31.45 15.3 -31.3 14.95 -31.1 14.6 -30.95 14.25 -30.7 13.95 -30.5 13.7 -30.25 13.45 -30.05 13.25 -29.85 13.05 -29.65 12.85 -29.45 12.7 -29.3 12.6 -29.1 12.5 -29.0 12.4 -28.9 12.35 L-28.9 12.35" fill="#ffffff" fill-rule="evenodd" stroke="none"/>
  </g>
</svg>
