<?xml version="1.0" encoding="UTF-8" standalone="no"?>
<svg xmlns:xlink="http://www.w3.org/1999/xlink" height="23.4px" width="19.05px" xmlns="http://www.w3.org/2000/svg">
  <g transform="matrix(1.0, 0.0, 0.0, 1.0, 9.5, 11.7)">
    <path d="M6.85 -13.35 Q5.95 -14.25 4.75 -14.75 3.6 -15.25 2.3 -15.4 1.0 -15.5 -0.3 -15.2 -1.65 -14.9 -2.9 -14.2 -4.2 -13.5 -5.3 -12.45 -6.45 -11.35 -7.3 -9.9 -8.2 -8.35 -8.7 -6.5 -9.25 -4.55 -9.35 -2.35 -9.45 -1.4 -9.5 -1.0 -9.6 -0.2 -9.65 0.4 -9.7 1.15 -9.7 1.85 -9.7 2.65 -9.65 3.35 -9.6 4.15 -9.45 4.9 -9.3 5.7 -9.1 6.45 -8.85 7.25 -8.5 8.05 -8.15 8.85 -7.65 9.65 -7.4 10.1 -7.05 10.45 -6.7 10.85 -6.2 11.15 -5.75 11.45 -5.2 11.7 -4.65 11.95 -4.05 12.15 -3.45 12.35 -2.8 12.5 -2.15 12.65 -1.45 12.75 -0.85 12.85 -0.15 12.9 0.5 13.0 1.15 13.0 2.4 13.1 3.35 13.0 4.35 12.9 5.1 12.65 5.85 12.35 6.45 11.8 7.05 11.2 7.5 10.35 7.95 9.5 8.25 8.25 8.6 7.05 8.85 5.35 9.05 3.8 9.25 1.6 9.4 -0.4 9.55 -3.15 9.55 -3.6 9.55 -4.1 9.5 -4.7 9.45 -5.3 9.4 -6.0 9.3 -6.65 9.2 -7.4 9.05 -8.1 8.9 -8.85 8.7 -9.55 8.5 -10.3 8.25 -11.0 7.95 -11.7 7.65 -12.25 7.25 -12.9 6.85 -13.35 L6.85 -13.35 M0.05 -14.2 Q0.3 -13.6 0.25 -12.95 0.25 -12.35 0.05 -11.8 -0.15 -11.25 -0.55 -10.8 -0.9 -10.3 -1.4 -9.95 -1.9 -9.6 -2.45 -9.4 -3.05 -9.2 -3.6 -9.2 -4.25 -9.15 -4.8 -9.35 -5.45 -9.55 -5.95 -9.95 -5.7 -10.35 -5.4 -10.7 -5.1 -11.1 -4.75 -11.4 -4.45 -11.75 -4.1 -12.05 -3.75 -12.4 -3.35 -12.65 -2.95 -12.95 -2.55 -13.15 -2.15 -13.4 -1.75 -13.6 -1.3 -13.8 -0.85 -13.95 -0.4 -14.1 0.05 -14.2 L0.05 -14.2 M1.8 12.0 Q1.6 12.0 0.5 11.9 -0.35 11.8 -0.9 11.75 -1.75 11.65 -2.4 11.5 -3.2 11.35 -3.85 11.1 -4.6 10.85 -5.25 10.5 -5.9 10.05 -6.4 9.55 -6.95 8.95 -7.3 8.2 -7.7 7.4 -7.85 6.4 -7.65 6.0 -7.15 5.6 -6.6 5.2 -5.85 4.8 -5.05 4.45 -4.1 4.2 -3.1 3.9 -2.0 3.8 -0.85 3.7 0.3 3.85 1.55 3.95 2.7 4.35 3.95 4.8 5.05 5.5 6.25 6.3 7.3 7.4 7.2 8.0 7.1 8.5 7.0 9.0 6.8 9.45 6.6 9.9 6.35 10.25 6.1 10.65 5.8 10.95 5.45 11.25 5.05 11.45 4.65 11.65 4.15 11.8 3.65 11.95 3.1 12.0 2.5 12.05 1.8 12.0 L1.8 12.0" fill="#000000" fill-rule="evenodd" stroke="none"/>
    <path d="M-8.5 6.2 Q-8.4 6.1 -8.25 5.95 -8.1 5.85 -8.0 5.75 -7.85 5.6 -7.65 5.5 -7.5 5.35 -7.35 5.2 -7.15 5.1 -6.95 4.95 -6.75 4.85 -6.55 4.7 -6.3 4.55 -6.1 4.45 -5.85 4.35 -5.6 4.2 -5.2 4.05 -4.8 3.9 -4.45 3.75 -4.05 3.65 -3.7 3.55 -3.35 3.5 -3.0 3.45 -2.7 3.4 -2.4 3.35 -2.05 3.35 -1.8 3.3 -1.5 3.3 -1.3 3.3 -1.05 3.3 -0.85 3.3 -0.65 3.3 -0.15 3.3 0.3 3.4 0.75 3.45 1.2 3.5 1.6 3.6 2.0 3.7 2.35 3.75 2.7 3.9 3.0 3.95 3.25 4.1 3.5 4.15 3.75 4.25 3.9 4.35 4.1 4.4 4.2 4.45 4.3 4.5 4.6 4.65 4.95 4.85 5.25 5.05 5.5 5.25 5.8 5.4 6.05 5.6 6.3 5.8 6.5 6.0 6.7 6.15 6.9 6.35 7.1 6.55 7.3 6.7 7.45 6.85 7.6 7.05 7.7 7.2 7.85 7.35 7.9 7.15 8.15 5.55 8.35 4.25 8.5 3.2 9.0 0.0 9.0 -0.2 9.1 -1.6 8.7 -6.55 8.5 -9.25 8.25 -10.05 8.05 -10.55 8.15 -10.35 8.05 -10.5 8.0 -10.65 7.9 -10.9 7.85 -11.05 7.75 -11.3 7.6 -11.5 7.5 -11.75 7.35 -11.95 7.2 -12.2 7.05 -12.4 6.85 -12.65 6.65 -12.9 6.45 -13.1 6.2 -13.3 5.8 -13.65 5.35 -13.95 4.9 -14.2 4.45 -14.35 4.0 -14.55 3.55 -14.65 3.15 -14.75 2.7 -14.8 2.3 -14.85 1.9 -14.85 1.6 -14.9 1.25 -14.85 1.0 -14.85 0.75 -14.8 0.6 -14.8 0.45 -14.8 0.35 -14.8 0.3 -14.8 0.2 -14.8 0.15 -14.75 0.05 -14.75 0.0 -14.75 -0.1 -14.75 -0.2 -14.75 -0.3 -14.7 -0.4 -14.7 -0.5 -14.7 -0.6 -14.65 -0.7 -14.65 -0.8 -14.6 -0.95 -14.6 -1.05 -14.55 -1.15 -14.5 -1.25 -14.5 -1.3 -14.45 -1.4 -14.4 -1.5 -14.4 -1.6 -14.35 -1.7 -14.3 -1.75 -14.25 -1.85 -14.2 -1.95 -14.15 -2.05 -14.1 -2.2 -14.05 -2.3 -13.95 -2.4 -13.9 -2.55 -13.8 -2.65 -13.75 -3.0 -13.55 -3.1 -13.45 -3.35 -13.3 -3.5 -13.2 -3.75 -13.05 -3.9 -12.95 -4.05 -12.8 -4.25 -12.7 -4.4 -12.6 -4.55 -12.5 -4.7 -12.35 -4.85 -12.25 -5.0 -12.1 -5.15 -12.0 -5.3 -11.85 -5.45 -11.7 -5.55 -11.6 -5.6 -11.55 -5.7 -11.45 -5.8 -11.35 -5.85 -11.25 -5.95 -11.15 -6.05 -11.05 -6.15 -10.9 -6.25 -10.8 -6.35 -10.65 -6.45 -10.55 -6.55 -10.4 -6.65 -10.25 -6.75 -10.15 -6.85 -10.0 -6.95 -9.8 -7.1 -9.5 -7.2 -9.2 -7.35 -8.9 -7.45 -8.6 -7.55 -8.25 -7.7 -7.9 -7.8 -7.55 -7.9 -7.2 -8.05 -6.85 -8.15 -6.45 -8.25 -6.1 -8.35 -5.7 -8.45 -5.3 -8.55 -4.9 -8.6 -4.45 -8.7 -4.05 -8.85 -3.25 -8.95 -2.5 -9.0 -1.75 -9.05 -1.0 -9.1 -0.25 -9.1 0.45 -9.1 1.1 -9.05 1.8 -9.05 2.4 -8.95 3.05 -8.9 3.6 -8.85 4.2 -8.75 4.7 -8.65 5.25 -8.6 5.7 -8.5 6.2 L-8.5 6.2" fill="#000000" fill-rule="evenodd" stroke="none"/>
  </g>
</svg>
