<?xml version="1.0" encoding="UTF-8" standalone="no"?>
<svg xmlns:xlink="http://www.w3.org/1999/xlink" height="14.95px" width="14.75px" xmlns="http://www.w3.org/2000/svg">
  <g transform="matrix(1.0, 0.0, 0.0, 1.0, 7.35, 7.45)">
    <path d="M-3.35 -7.2 Q-3.4 -7.15 -3.5 -7.1 -3.65 -6.95 -3.8 -6.9 -4.05 -6.75 -4.25 -6.65 -4.5 -6.5 -4.75 -6.4 -5.0 -6.3 -5.3 -6.25 -5.6 -6.15 -5.85 -6.15 -6.2 -6.15 -6.45 -6.2 -6.75 -6.3 -7.0 -6.45 -7.2 -6.6 -7.4 -6.75 -7.55 -6.95 -7.7 -7.15 -7.8 -7.35 -7.9 -7.55 -7.95 -7.75 -8.0 -7.95 -8.05 -8.15 -8.1 -8.35 -8.1 -8.55 -8.1 -8.7 -8.15 -8.8 -8.15 -8.95 -8.15 -9.0 -8.15 -9.1 -8.15 -9.3 -8.1 -9.45 -8.1 -9.65 -8.05 -9.8 -8.0 -10.0 -7.95 -10.15 -7.85 -10.3 -7.8 -10.4 -7.75 -10.55 -7.65 -10.7 -7.6 -10.8 -7.5 -10.9 -7.45 -11.0 -7.4 -11.1 -7.35 -11.2 -7.25 -11.3 -7.1 -11.5 -6.9 -11.7 -6.7 -11.95 -6.45 -12.15 -6.2 -12.4 -5.95 -12.6 -5.7 -12.8 -5.4 -13.0 -5.1 -13.15 -4.8 -13.3 -4.5 -13.4 -4.2 -13.45 -3.85 -13.5 -3.55 -13.5 -3.25 -13.45 -2.95 -13.35 -2.75 -13.25 -2.55 -13.15 -2.4 -13.0 -2.25 -12.85 -2.1 -12.7 -1.95 -12.55 -1.85 -12.35 -1.75 -12.2 -1.7 -12.05 -1.6 -11.9 -1.55 -11.75 -1.5 -11.6 -1.45 -11.5 -1.45 -11.4 -1.45 -11.35 -1.4 -11.3 -1.3 -10.9 -1.35 -10.45 -1.35 -10.1 -1.5 -9.7 -1.6 -9.35 -1.75 -9.0 -1.9 -8.7 -2.15 -8.45 -2.3 -8.15 -2.55 -7.95 -2.7 -7.75 -2.9 -7.55 -3.05 -7.4 -3.2 -7.3 -3.3 -7.25 -3.35 -7.2 L-3.35 -7.2" fill="#ffffff" fill-rule="evenodd" stroke="none"/>
  </g>
</svg>
