<?xml version="1.0" encoding="UTF-8" standalone="no"?>
<svg xmlns:xlink="http://www.w3.org/1999/xlink" height="17.55px" width="28.85px" xmlns="http://www.w3.org/2000/svg">
  <g transform="matrix(1.0, 0.0, 0.0, 1.0, 12.0, 4.0)">
    <path d="M2.6 13.2 Q2.45 13.2 2.2 13.2 2.15 13.15 2.1 13.15 167.2 20.55 2.0 13.15 1.55 13.15 1.15 13.1 0.7 13.05 0.25 13.0 -0.15 12.95 -0.6 12.9 -1.0 12.8 -1.45 12.75 -1.85 12.65 -2.25 12.55 -2.7 12.4 -3.1 12.3 -3.5 12.15 -3.9 12.0 -4.35 11.9 -4.75 11.7 -4.75 11.7 -5.05 11.6 -5.25 11.5 -5.35 11.45 -5.5 11.4 -5.65 11.35 -5.8 11.25 -5.95 11.2 -6.1 11.1 -6.25 11.05 -6.4 10.95 -6.5 10.9 -6.65 10.8 -6.8 10.7 -6.95 10.6 -7.05 10.5 -7.5 10.2 -7.9 9.85 -8.25 9.5 -8.65 9.1 -9.0 8.75 -9.35 8.35 -9.65 7.95 -9.95 7.55 -10.25 7.1 -10.5 6.65 -10.8 6.25 -11.0 5.75 -11.25 5.3 -11.45 4.8 -11.65 4.3 -11.8 3.8 -11.85 3.6 -11.95 3.4 -12.0 3.15 -12.05 2.95 -12.1 2.75 -12.15 2.55 -12.2 2.35 -12.25 2.1 -12.25 1.9 -12.3 1.7 -12.35 1.5 -12.35 1.25 -12.4 1.05 -12.4 0.85 -12.4 0.6 -12.45 0.4 -12.45 0.25 -12.45 0.15 -12.45 0.0 -12.45 -0.2 -12.45 -0.4 -12.45 -0.6 -12.45 -0.85 -12.4 -1.1 -12.35 -1.35 -12.3 -1.6 -12.2 -1.9 -12.1 -2.15 -12.0 -2.45 -11.85 -2.7 -11.65 -2.95 -11.45 -3.2 -11.4 -3.25 -11.4 -3.3 -11.35 -3.35 -11.3 -3.4 -11.25 -3.45 -11.2 -3.5 -11.1 -3.55 -11.05 -3.6 -11.0 -3.65 -10.9 -3.7 -10.85 -3.75 -10.75 -3.8 -10.7 -3.85 -10.6 -3.9 -10.5 -3.95 -10.4 -4.0 -10.2 -4.1 -9.95 -4.15 -9.75 -4.2 -9.55 -4.2 -9.35 -4.2 -9.15 -4.2 -8.95 -4.2 -8.75 -4.15 -8.6 -4.1 -8.35 -4.05 -8.25 -4.0 -7.95 -3.95 -7.7 -3.85 -7.6 -3.85 -7.35 -3.8 -7.2 -3.75 -6.7 -3.65 -6.2 -3.7 -5.75 -3.75 -5.3 -3.9 -4.95 -4.0 -4.55 -4.25 -4.3 -4.4 -3.85 -4.7 -3.35 -5.0 -3.15 -5.1 -2.75 -5.35 -2.45 -5.45 -2.05 -5.6 -1.65 -5.65 -1.25 -5.7 -0.8 -5.6 -0.5 -5.55 -0.2 -5.4 0.05 -5.3 0.3 -5.1 0.45 -4.95 0.7 -4.75 0.75 -4.75 1.1 -4.4 1.3 -4.2 1.5 -4.05 1.7 -3.85 1.95 -3.7 2.2 -3.55 2.5 -3.45 2.8 -3.35 3.2 -3.3 3.4 -3.3 3.55 -3.25 3.7 -3.25 3.85 -3.3 4.0 -3.3 4.15 -3.3 4.3 -3.35 4.45 -3.35 4.5 -3.4 4.75 -3.45 4.95 -3.5 5.05 -3.5 5.25 -3.55 5.4 -3.6 5.65 -3.6 5.85 -3.65 6.25 -3.7 6.6 -3.7 6.95 -3.7 7.3 -3.7 7.65 -3.65 8.0 -3.6 8.35 -3.55 8.65 -3.5 8.95 -3.4 9.3 -3.3 9.6 -3.25 9.9 -3.1 10.15 -3.05 10.5 -2.9 10.65 -2.85 11.05 -2.7 11.8 -2.4 12.5 -2.05 13.15 -1.7 13.8 -1.3 14.4 -0.9 14.95 -0.45 15.5 -0.05 15.95 0.4 16.4 0.8 16.8 1.25 17.2 1.65 17.55 2.05 17.8 2.35 18.1 2.7 18.3 3.0 18.5 3.25 18.5 3.3 18.45 3.5 18.25 4.2 18.0 4.8 17.75 5.45 17.5 6.05 17.2 6.65 16.85 7.25 16.5 7.8 16.15 8.35 15.75 8.9 15.3 9.4 14.85 9.9 14.4 10.35 13.9 10.8 13.35 11.25 12.85 11.7 12.25 12.05 12.2 12.1 12.2 12.1 12.15 12.15 12.1 12.15 12.05 12.15 12.0 12.2 12.0 12.2 11.95 12.2 11.9 12.25 11.85 12.25 11.4 12.35 10.95 12.45 10.5 12.55 10.0 12.6 9.55 12.7 9.1 12.75 8.65 12.85 8.2 12.9 7.7 12.95 7.25 13.0 6.8 13.05 6.3 13.05 5.85 13.1 5.4 13.1 4.95 13.15 4.45 13.15 4.3 13.15 3.5 13.15 2.95 13.15 2.6 13.2 L2.6 13.2" fill="#ffffff" fill-rule="evenodd" stroke="none"/>
    <path d="M18.5 3.25 Q17.95 2.9 17.4 2.6 16.85 2.3 16.25 2.05 15.7 1.8 15.15 1.55 14.55 1.3 13.95 1.1 13.4 0.9 12.75 0.75 12.2 0.55 11.55 0.4 10.95 0.25 10.35 0.1 9.75 0.0 9.1 -0.1 8.85 -0.15 8.6 -0.2 8.3 -0.25 8.05 -0.3 7.8 -0.35 7.5 -0.4 7.25 -0.45 7.0 -0.45 6.75 -0.5 6.45 -0.55 6.2 -0.6 5.95 -0.6 5.65 -0.65 5.4 -0.7 5.15 -0.7 4.9 -0.75 4.5 -0.8 2.75 -0.9 1.05 -1.05 -2.2 -1.0 -2.45 -1.0 -2.7 -1.0 -3.0 -1.0 -3.25 -0.95 -3.5 -0.95 -3.75 -0.95 -4.0 -0.95 -4.25 -0.95 -4.5 -0.9 -4.8 -0.9 -5.05 -0.9 -5.3 -0.85 -5.55 -0.85 -5.8 -0.8 -6.05 -0.8 -6.3 -0.75 -6.55 -0.7 -6.85 -0.7 -7.1 -0.65 -7.35 -0.65 -7.65 -0.6 -7.9 -0.6 -8.15 -0.55 -8.4 -0.5 -8.7 -0.45 -8.95 -0.45 -9.2 -0.4 -9.5 -0.35 -9.75 -0.3 -10.0 -0.25 -10.25 -0.2 -10.5 -0.15 -10.65 -0.15 -10.75 -0.1 -10.9 -0.05 -11.0 -0.05 -11.1 0.0 -11.25 0.0 -11.35 0.05 -11.5 0.1 -11.6 0.1 -11.75 0.15 -11.85 0.2 -11.95 0.25 -12.1 0.25 -12.2 0.3 -12.3 0.35 -12.45 0.4 -12.45 0.35 -12.45 0.25 -12.45 0.2 -12.45 0.15 -12.45 -0.1 -12.5 -0.4 -12.5 -0.65 -12.5 -0.95 -12.5 -1.2 -12.5 -1.5 -12.45 -1.75 -12.45 -2.0 -12.45 -2.3 -12.4 -2.55 -12.4 -2.8 -12.35 -3.1 -12.3 -3.35 -12.3 -3.65 -12.25 -3.9 -12.2 -4.15 -12.2 -4.2 -12.15 -4.25 -12.15 -4.25 -12.15 -4.3 -12.1 -4.3 -12.1 -4.35 -12.05 -4.35 -12.0 -4.4 -12.0 -4.4 -11.95 -4.4 -11.1 -4.65 -10.3 -4.85 -9.45 -5.05 -8.6 -5.2 -7.8 -5.4 -6.95 -5.55 -6.1 -5.7 -5.25 -5.8 -4.4 -5.9 -3.55 -6.0 -2.7 -6.1 -1.85 -6.15 -1.0 -6.2 -0.15 -6.25 0.7 -6.25 1.55 -6.25 2.05 -6.25 2.6 -6.25 3.1 -6.2 3.6 -6.2 4.15 -6.15 4.65 -6.15 5.15 -6.1 5.7 -6.05 6.2 -6.0 6.7 -5.95 7.25 -5.9 7.75 -5.8 8.25 -5.75 8.75 -5.65 9.25 -5.6 9.8 -5.5 10.35 -5.4 10.9 -5.3 11.45 -5.15 12.0 -5.05 12.55 -4.9 13.1 -4.75 13.65 -4.65 14.2 -4.5 14.75 -4.35 15.3 -4.15 15.85 -4.0 16.4 -3.85 16.9 -3.65 17.45 -3.45 18.0 -3.3 18.55 -3.1 18.6 -3.05 18.65 -3.05 18.65 -3.0 18.7 -3.0 18.7 -2.95 18.75 -2.9 18.75 -2.85 18.75 -2.8 18.85 -2.0 18.85 -1.85 18.85 -1.8 18.85 -1.75 18.85 -1.75 18.9 -1.7 18.9 -1.65 18.9 -1.6 18.9 -1.55 18.9 -1.55 18.9 -1.5 18.9 -1.45 18.9 -1.4 18.9 -1.35 18.9 -1.3 18.95 -1.3 18.95 -1.25 18.95 -1.2 18.95 -1.15 18.95 -1.05 18.95 -0.95 18.9 -0.9 18.9 -0.8 18.9 -0.75 18.9 -0.65 18.9 -0.6 18.9 -0.5 18.9 -0.45 18.9 -0.35 18.9 -0.25 18.9 -0.2 18.9 -0.1 18.9 -0.05 18.95 0.05 18.95 0.1 18.95 0.2 18.95 0.3 18.95 0.45 18.9 0.5 18.9 0.55 18.9 0.75 18.9 0.65 18.9 0.85 18.85 1.0 18.85 1.15 18.85 1.3 18.8 1.5 18.8 1.65 18.8 1.8 18.75 1.95 18.75 2.15 18.7 2.3 18.65 2.45 18.65 2.6 18.6 2.75 18.55 2.95 18.5 3.1 18.5 3.25 L18.5 3.25" fill="#bcb3ff" fill-rule="evenodd" stroke="none"/>
  </g>
</svg>
