<?xml version="1.0" encoding="UTF-8" standalone="no"?>
<svg xmlns:xlink="http://www.w3.org/1999/xlink" height="20.75px" width="18.85px" xmlns="http://www.w3.org/2000/svg">
  <g transform="matrix(1.0, 0.0, 0.0, 1.0, 9.4, 10.35)">
    <path d="M9.45 0.0 Q9.45 0.55 9.4 1.05 9.35 1.55 9.3 2.05 9.2 2.55 9.05 3.0 8.95 3.5 8.8 3.95 8.6 4.4 8.4 4.85 8.2 5.3 7.95 5.7 7.7 6.1 7.4 6.5 7.1 6.9 6.75 7.3 6.4 7.7 6.05 8.05 5.65 8.35 5.3 8.65 4.9 8.95 4.5 9.2 4.1 9.45 3.65 9.65 3.25 9.8 2.8 9.95 2.4 10.1 1.95 10.2 1.5 10.3 1.0 10.35 0.55 10.4 0.05 10.4 -0.45 10.4 -0.9 10.35 -1.4 10.3 -1.85 10.2 -2.3 10.1 -2.75 9.95 -3.2 9.8 -3.6 9.65 -4.0 9.45 -4.4 9.2 -4.8 8.95 -5.2 8.65 -5.6 8.35 -5.95 8.05 -6.3 7.7 -6.65 7.3 -7.0 6.9 -7.3 6.5 -7.6 6.1 -7.85 5.7 -8.1 5.3 -8.35 4.85 -8.55 4.4 -8.7 3.95 -8.9 3.5 -9.0 3.0 -9.15 2.5 -9.25 2.0 -9.3 1.5 -9.35 1.0 -9.4 0.5 -9.4 -0.05 -9.4 -0.6 -9.35 -1.1 -9.3 -1.6 -9.25 -2.1 -9.15 -2.6 -9.0 -3.05 -8.9 -3.55 -8.7 -4.0 -8.55 -4.45 -8.35 -4.85 -8.1 -5.3 -7.85 -5.7 -7.6 -6.15 -7.3 -6.55 -7.0 -6.9 -6.65 -7.3 -6.3 -7.7 -5.95 -8.0 -5.6 -8.35 -5.2 -8.65 -4.8 -8.9 -4.4 -9.15 -4.0 -9.4 -3.6 -9.6 -3.2 -9.8 -2.75 -9.9 -2.3 -10.05 -1.85 -10.15 -1.4 -10.25 -0.9 -10.3 -0.45 -10.35 0.05 -10.35 0.55 -10.35 1.0 -10.3 1.5 -10.25 1.95 -10.15 2.4 -10.05 2.8 -9.9 3.25 -9.8 3.65 -9.6 4.1 -9.4 4.5 -9.15 4.9 -8.9 5.3 -8.65 5.65 -8.35 6.05 -8.0 6.4 -7.7 6.75 -7.3 7.1 -6.9 7.4 -6.55 7.7 -6.15 7.95 -5.7 8.2 -5.3 8.4 -4.85 8.6 -4.45 8.8 -4.0 8.95 -3.5 9.05 -3.05 9.2 -2.55 9.3 -2.05 9.35 -1.55 9.4 -1.05 9.45 -0.55 9.45 0.0" fill="#303b64" fill-rule="evenodd" stroke="none"/>
  </g>
</svg>
