<?xml version="1.0" encoding="UTF-8" standalone="no"?>
<svg xmlns:xlink="http://www.w3.org/1999/xlink" height="3.55px" width="20.1px" xmlns="http://www.w3.org/2000/svg">
  <g transform="matrix(1.0, 0.0, 0.0, 1.0, 10.05, 1.75)">
    <path d="M-3.15 1.0 Q-3.15 1.05 -3.15 1.05 -3.15 1.1 -3.15 1.1 -3.2 1.15 -3.2 1.2 -3.2 1.2 -3.2 1.25 -3.25 1.25 -3.25 1.3 -3.3 1.3 -3.3 1.35 -3.35 1.35 -3.4 1.4 -3.4 1.45 -3.45 1.45 L-4.15 1.65 -4.85 1.45 Q-4.9 1.45 -4.9 1.4 -4.95 1.35 -5.0 1.35 -5.0 1.3 -5.05 1.3 -5.05 1.25 -5.1 1.25 -5.1 1.2 -5.1 1.15 -5.1 1.15 -5.15 1.1 -5.15 1.1 -5.15 1.05 -5.15 1.0 -5.15 1.0 -5.15 0.95 -5.15 0.9 -5.15 0.9 -5.15 0.85 -5.1 0.8 -5.1 0.8 -5.1 0.75 -5.1 0.7 -5.05 0.7 -5.05 0.65 -5.0 0.65 -5.0 0.6 -4.95 0.6 -4.95 0.55 -4.9 0.5 -4.85 0.5 L-4.15 0.3 -3.45 0.5 -3.15 1.0 M-4.95 -0.5 Q-4.95 -0.45 -4.95 -0.4 -4.95 -0.35 -5.0 -0.25 -5.0 -0.2 -5.05 -0.15 -5.05 -0.1 -5.1 -0.05 -5.15 0.0 -5.2 0.05 -5.25 0.1 -5.3 0.15 -5.35 0.2 -5.4 0.25 -5.5 0.3 -5.55 0.35 L-6.95 0.7 -8.4 0.35 Q-8.45 0.3 -8.55 0.25 -8.6 0.2 -8.65 0.15 -8.7 0.1 -8.75 0.05 -8.8 0.0 -8.8 -0.05 -8.85 -0.1 -8.85 -0.15 -8.9 -0.2 -8.9 -0.3 -8.95 -0.35 -8.95 -0.4 -8.95 -0.45 -8.95 -0.5 -8.95 -0.55 -8.95 -0.65 -8.95 -0.7 -8.9 -0.75 -8.9 -0.8 -8.85 -0.9 -8.85 -0.95 -8.8 -1.0 -8.8 -1.05 -8.75 -1.1 -8.7 -1.15 -8.65 -1.2 -8.6 -1.25 -8.55 -1.3 -8.45 -1.35 -8.4 -1.4 L-6.95 -1.75 -5.55 -1.4 -4.95 -0.5" fill="#ffffff" fill-rule="evenodd" stroke="none"/>
  </g>
</svg>
