<?xml version="1.0" encoding="UTF-8" standalone="no"?>
<svg xmlns:xlink="http://www.w3.org/1999/xlink" height="15.85px" width="18.85px" xmlns="http://www.w3.org/2000/svg">
  <g transform="matrix(1.0, 0.0, 0.0, 1.0, 9.4, 8.15)">
    <path d="M4.55 5.15 Q4.4 5.25 4.25 5.35 4.05 5.45 3.9 5.55 3.65 5.7 3.4 5.8 3.1 5.95 2.85 6.05 2.5 6.2 2.2 6.25 1.8 6.35 1.45 6.45 1.05 6.5 0.65 6.5 0.25 6.55 -0.2 6.5 -0.4 6.5 -0.55 6.45 -0.75 6.45 -0.95 6.4 -1.1 6.35 -1.25 6.35 -1.4 6.3 -1.6 6.25 -1.75 6.2 -1.9 6.15 -2.0 6.1 -2.15 6.05 -2.3 6.0 -2.4 5.95 -2.5 5.9 -2.65 5.85 -2.95 5.75 -3.3 5.65 -3.55 5.55 -3.85 5.45 -4.1 5.3 -4.35 5.2 -4.55 5.05 -4.8 4.95 -5.0 4.8 -5.15 4.65 -5.35 4.55 -5.5 4.4 -5.6 4.3 -5.75 4.2 -5.85 4.1 -5.95 3.95 -6.15 3.75 -6.35 3.55 -6.5 3.35 -6.65 3.1 -6.8 2.9 -6.9 2.7 -7.05 2.45 -7.15 2.2 -7.3 2.0 -7.4 1.7 -7.5 1.5 -7.6 1.2 -7.7 0.95 -7.8 0.65 -7.85 0.45 -8.0 0.05 -8.1 -0.25 -8.15 -0.5 -8.25 -0.75 -8.3 -1.05 -8.4 -1.3 -8.45 -1.55 -8.5 -1.8 -8.55 -2.05 -8.6 -2.25 -8.65 -2.5 -8.7 -2.7 -8.75 -2.9 -8.75 -3.15 -8.8 -3.35 -8.85 -3.5 -8.85 -3.7 -8.8 -3.7 -8.8 -3.7 L-7.7 -5.9 Q-7.25 -6.05 -6.85 -6.2 -6.35 -6.35 -5.85 -6.5 -5.3 -6.65 -4.75 -6.75 -4.15 -6.9 -3.5 -7.0 -2.85 -7.1 -2.2 -7.2 -1.5 -7.25 -0.8 -7.3 -0.05 -7.35 0.7 -7.35 1.5 -7.35 2.25 -7.3 2.65 -7.25 3.05 -7.2 3.45 -7.2 3.85 -7.1 4.2 -7.05 4.6 -7.0 4.95 -6.95 5.3 -6.85 5.65 -6.8 5.95 -6.7 6.3 -6.65 6.6 -6.55 6.9 -6.45 7.2 -6.35 7.5 -6.3 7.8 -6.2 7.85 -6.0 7.95 -5.8 8.0 -5.55 8.1 -5.3 8.15 -5.05 8.2 -4.75 8.3 -4.4 8.35 -4.05 8.4 -3.7 8.4 -3.3 8.45 -2.9 8.4 -2.5 8.4 -2.05 8.35 -1.6 8.3 -1.1 8.2 -0.65 8.05 -0.05 7.85 0.55 7.65 1.1 7.4 1.6 7.2 2.1 6.9 2.55 6.65 2.95 6.35 3.3 6.1 3.65 5.8 4.0 5.55 4.25 5.3 4.5 5.05 4.7 4.85 4.9 4.7 5.05 4.55 5.15 L4.55 5.15" fill="#628aff" fill-rule="evenodd" stroke="none"/>
  </g>
</svg>
