<?xml version="1.0" encoding="UTF-8" standalone="no"?>
<svg xmlns:xlink="http://www.w3.org/1999/xlink" height="13.25px" width="30.9px" xmlns="http://www.w3.org/2000/svg">
  <g transform="matrix(1.0, 0.0, 0.0, 1.0, 13.5, 7.15)">
    <path d="M-16.05 -3.4 Q-15.8 -3.55 -15.6 -3.65 -15.35 -3.8 -15.1 -3.95 -14.8 -4.1 -14.5 -4.25 -14.2 -4.4 -13.9 -4.5 -13.6 -4.65 -13.25 -4.8 -12.9 -4.95 -12.55 -5.1 -12.2 -5.25 -11.8 -5.4 -11.45 -5.5 -11.05 -5.65 -10.6 -5.8 -10.15 -5.9 -9.65 -6.05 -9.2 -6.15 -8.65 -6.3 -8.15 -6.4 -7.6 -6.5 -7.05 -6.55 -6.5 -6.65 -5.9 -6.7 -5.25 -6.75 -4.6 -6.8 -3.95 -6.85 -3.2 -6.85 -2.5 -6.85 -1.7 -6.85 -0.4 -6.85 0.95 -6.75 2.25 -6.7 3.55 -6.55 4.8 -6.4 6.05 -6.25 7.25 -6.05 8.4 -5.85 9.5 -5.65 10.6 -5.4 11.65 -5.2 12.65 -4.95 13.55 -4.75 14.45 -4.5 15.25 -4.3 16.05 -4.05 15.2 -4.2 14.4 -4.35 13.45 -4.5 12.55 -4.6 11.55 -4.7 10.55 -4.8 9.5 -4.9 8.45 -4.95 7.3 -5.0 6.15 -5.0 4.95 -5.05 3.75 -5.0 2.5 -4.95 1.25 -4.85 -0.05 -4.75 -1.35 -4.6 -2.4 -4.5 -3.5 -4.3 -4.5 -4.15 -5.5 -3.95 -6.5 -3.8 -7.45 -3.55 -8.35 -3.35 -9.25 -3.1 -10.15 -2.9 -11.0 -2.65 -11.8 -2.4 -12.6 -2.1 -13.35 -1.85 -14.1 -1.6 -14.8 -1.35 -15.5 -1.1 -15.7 -2.0 -16.05 -3.4 L-16.05 -3.4" fill="#474b72" fill-opacity="0.21960784" fill-rule="evenodd" stroke="none"/>
  </g>
</svg>
