<?xml version="1.0" encoding="UTF-8" standalone="no"?>
<svg xmlns:xlink="http://www.w3.org/1999/xlink" height="20.85px" width="45.75px" xmlns="http://www.w3.org/2000/svg">
  <g transform="matrix(1.0, 0.0, 0.0, 1.0, 22.9, 10.4)">
    <path d="M17.75 -4.45 Q18.1 -4.2 18.45 -4.0 18.75 -3.75 19.1 -3.5 19.4 -3.25 19.75 -3.0 20.05 -2.75 20.35 -2.45 20.65 -2.2 20.95 -1.9 21.2 -1.65 21.5 -1.35 21.8 -1.05 22.05 -0.75 22.35 -0.45 22.6 -0.15 22.6 -0.15 22.65 -0.1 22.7 -0.05 22.7 -0.05 22.75 0.0 22.75 0.0 22.8 0.05 22.8 0.1 22.75 0.1 22.75 0.15 L22.75 0.15 Q22.65 0.05 22.55 -0.05 22.4 -0.1 22.3 -0.2 22.2 -0.3 22.05 -0.35 21.95 -0.45 21.8 -0.5 21.75 -0.55 21.55 -0.65 21.4 -0.75 21.3 -0.8 21.15 -0.9 21.05 -0.95 20.9 -1.05 20.8 -1.1 20.35 -1.4 19.95 -1.7 19.5 -2.0 19.05 -2.25 18.55 -2.55 18.1 -2.8 17.65 -3.05 17.15 -3.25 16.7 -3.45 16.2 -3.65 15.7 -3.85 15.2 -4.0 14.7 -4.2 14.15 -4.35 13.65 -4.5 13.1 -4.6 12.6 -4.7 12.05 -4.8 11.5 -4.9 11.0 -5.0 10.45 -5.1 9.9 -5.15 9.4 -5.25 8.85 -5.3 8.3 -5.35 7.8 -5.45 7.25 -5.5 6.7 -5.55 6.15 -5.6 5.6 -5.6 5.1 -5.65 4.55 -5.7 3.85 -5.75 1.8 -5.9 0.05 -6.0 -0.95 -6.05 -8.0 -6.3 -11.1 -6.05 -11.45 -6.0 -11.85 -6.0 -12.25 -5.95 -12.6 -5.9 -13.0 -5.85 -13.35 -5.8 -13.75 -5.75 -14.15 -5.7 -14.5 -5.65 -14.9 -5.6 -15.25 -5.55 -15.65 -5.45 -16.0 -5.4 -16.4 -5.3 -16.75 -5.25 -17.15 -5.15 -17.3 -5.1 -17.4 -5.1 -17.5 -5.05 -17.6 -5.0 -17.65 -4.95 -17.75 -4.9 -17.8 -4.85 -17.85 -4.8 -17.9 -4.7 -17.9 -4.65 -17.9 -4.55 -17.9 -4.45 -17.9 -4.35 -17.9 -4.25 -17.9 -4.15 -17.85 -4.0 -17.75 -3.6 -16.6 -1.4 -15.55 0.75 -14.7 2.2 -14.45 2.6 -14.15 3.0 -13.85 3.4 -13.55 3.8 -13.25 4.2 -12.9 4.55 -12.6 4.9 -12.25 5.25 -11.85 5.6 -11.5 5.9 -11.1 6.2 -10.7 6.5 -10.3 6.8 -9.85 7.1 -9.45 7.35 -9.0 7.6 -8.75 7.75 -8.45 7.85 -8.15 8.0 -7.9 8.1 -7.6 8.2 -7.3 8.3 -7.0 8.4 -6.7 8.45 -6.4 8.55 -6.1 8.6 -5.85 8.65 -5.5 8.7 -5.25 8.75 -4.9 8.8 -4.65 8.85 -4.3 8.9 -3.65 9.0 -3.0 9.1 -2.35 9.15 -1.65 9.25 -1.0 9.3 -0.35 9.35 0.3 9.4 0.95 9.45 1.6 9.45 2.3 9.5 2.95 9.5 3.6 9.5 4.25 9.5 4.95 9.45 5.6 9.45 6.25 9.4 6.65 9.4 7.05 9.35 7.45 9.3 7.8 9.25 8.2 9.2 8.6 9.15 9.0 9.1 9.4 9.05 9.8 9.0 10.15 8.9 10.55 8.85 10.95 8.75 11.3 8.65 11.7 8.6 12.1 8.5 12.45 8.4 12.45 8.4 12.5 8.4 12.5 8.4 12.55 8.35 12.6 8.35 12.6 8.35 12.65 8.3 12.65 8.3 12.7 8.3 12.75 8.3 12.75 8.3 12.8 8.3 12.8 8.3 12.85 8.3 12.9 8.3 12.9 8.35 12.7 8.45 12.5 8.5 12.35 8.6 12.15 8.7 11.95 8.75 11.75 8.85 11.55 8.9 11.35 9.0 11.15 9.05 11.0 9.15 10.8 9.2 10.6 9.25 10.4 9.3 10.2 9.4 10.0 9.45 9.8 9.5 9.25 9.65 8.7 9.75 8.15 9.85 7.65 9.95 7.1 10.05 6.55 10.15 6.0 10.25 5.45 10.3 4.9 10.35 4.35 10.4 3.8 10.4 3.25 10.45 2.7 10.45 2.15 10.45 1.6 10.4 1.05 10.4 0.3 10.35 -1.05 10.3 -2.55 10.25 -3.2 10.2 -3.5 10.2 -3.85 10.15 -4.15 10.1 -4.5 10.1 -4.8 10.05 -5.1 10.0 -5.45 10.0 -5.75 9.95 -6.1 9.9 -6.4 9.85 -6.7 9.8 -7.05 9.75 -7.35 9.7 -7.7 9.65 -8.0 9.6 -8.3 9.55 -11.75 8.9 -11.8 8.85 -12.2 8.75 -12.55 8.6 -12.9 8.5 -13.25 8.3 -13.6 8.15 -13.9 7.95 -14.25 7.8 -14.55 7.6 -14.85 7.35 -15.15 7.15 -15.4 6.9 -15.7 6.65 -15.95 6.4 -16.2 6.1 -16.45 5.8 -16.65 5.5 -17.1 4.85 -17.55 4.2 -18.0 3.55 -18.45 2.9 -18.85 2.2 -19.25 1.55 -19.65 0.85 -20.05 0.15 -20.4 -0.5 -20.75 -1.2 -21.1 -1.9 -21.45 -2.6 -21.75 -3.3 -22.1 -4.05 -22.4 -4.75 -22.65 -5.5 -22.75 -5.7 -22.8 -5.8 -22.85 -5.95 -22.85 -6.05 -22.9 -6.15 -22.9 -6.25 -22.9 -6.35 -22.85 -6.4 -22.85 -6.45 -22.75 -6.5 -22.7 -6.6 -22.6 -6.65 -22.5 -6.7 -22.35 -6.75 -22.25 -6.8 -22.05 -6.9 -21.55 -7.1 -21.05 -7.3 -20.5 -7.5 -20.0 -7.7 -19.5 -7.85 -18.95 -8.0 -18.45 -8.2 -17.95 -8.35 -17.4 -8.5 -16.9 -8.6 -16.35 -8.75 -15.8 -8.85 -15.3 -8.95 -14.75 -9.05 -14.2 -9.15 -13.65 -9.25 -12.75 -9.4 -11.85 -9.5 -10.95 -9.6 -10.05 -9.7 -9.1 -9.75 -8.2 -9.8 -7.3 -9.9 -6.4 -9.9 -5.5 -9.95 -4.55 -10.0 -3.65 -10.0 -2.75 -10.0 -1.85 -10.0 -0.9 -9.95 0.0 -9.95 0.9 -9.9 1.5 -9.9 2.05 -9.85 2.65 -9.8 3.25 -9.8 3.85 -9.75 4.4 -9.7 5.0 -9.65 5.55 -9.6 6.15 -9.55 6.7 -9.45 7.3 -9.4 7.85 -9.3 8.45 -9.25 9.0 -9.15 9.6 -9.05 10.15 -8.95 10.9 -8.8 11.6 -8.65 12.35 -8.45 13.05 -8.25 13.75 -8.05 14.45 -7.8 15.15 -7.6 15.85 -7.3 16.5 -7.05 17.2 -6.75 17.85 -6.5 18.55 -6.2 19.2 -5.85 19.85 -5.55 20.5 -5.2 21.15 -4.85 21.25 -4.8 21.35 -4.75 21.5 -4.65 21.6 -4.6 21.7 -4.55 21.8 -4.45 21.9 -4.4 22.0 -4.35 22.1 -4.25 22.2 -4.2 22.3 -4.1 22.4 -4.0 22.5 -3.95 22.6 -3.85 22.7 -3.75 22.85 -3.7 19.55 -4.1 17.85 -4.55 17.8 -4.55 17.8 -4.55 17.75 -4.55 17.7 -4.55 17.7 -4.55 17.65 -4.55 17.6 -4.55 17.55 -4.55 17.6 -4.55 17.65 -4.5 17.65 -4.5 17.7 -4.45 17.7 -4.45 17.75 -4.45 L17.75 -4.45" fill="#020202" fill-rule="evenodd" stroke="none"/>
    <path d="M10.15 -10.4 Q11.0 -10.4 11.8 -10.35 12.65 -10.25 13.45 -10.15 14.25 -10.05 15.05 -9.85 15.8 -9.7 16.6 -9.45 17.35 -9.2 18.05 -8.95 18.8 -8.65 19.55 -8.3 20.25 -8.0 20.95 -7.6 21.65 -7.2 22.35 -6.75 22.3 -6.7 22.25 -6.7 22.2 -6.7 22.15 -6.7 22.1 -6.75 22.1 -6.75 22.05 -6.75 22.0 -6.8 21.95 -6.8 21.9 -6.85 21.3 -7.05 20.4 -7.45 19.0 -7.95 18.85 -8.0 18.35 -8.2 17.85 -8.35 17.35 -8.55 16.85 -8.7 16.35 -8.85 15.85 -9.0 15.35 -9.15 14.85 -9.3 14.3 -9.45 13.8 -9.55 13.3 -9.7 12.75 -9.8 12.25 -9.9 11.75 -10.0 11.2 -10.1 10.7 -10.2 10.65 -10.2 10.65 -10.2 10.6 -10.2 10.6 -10.25 10.55 -10.25 10.5 -10.25 10.45 -10.25 10.45 -10.25 10.4 -10.25 10.4 -10.3 10.35 -10.3 10.3 -10.3 10.25 -10.3 10.25 -10.35 10.2 -10.35 10.15 -10.4 L10.15 -10.4" fill="#0b0b0b" fill-rule="evenodd" stroke="none"/>
    <path d="M22.75 0.15 Q22.75 0.15 22.8 0.15 22.8 0.15 22.8 0.15 22.8 0.15 22.75 0.15 22.75 0.15 22.75 0.15 L22.75 0.15" fill="#020202" fill-rule="evenodd" stroke="none"/>
    <path d="M17.75 -4.45 Q18.1 -4.2 18.45 -4.0 18.75 -3.75 19.1 -3.5 19.4 -3.25 19.7 -3.0 20.0 -2.75 20.35 -2.45 20.65 -2.2 20.9 -1.9 21.2 -1.65 21.5 -1.35 21.8 -1.05 22.05 -0.75 22.3 -0.45 22.6 -0.15 22.6 -0.15 22.65 -0.1 22.7 -0.05 22.7 -0.05 22.75 0.0 22.75 0.0 22.75 0.05 22.75 0.1 22.75 0.1 22.75 0.15 L22.75 0.15 Q22.65 0.05 22.5 -0.05 22.4 -0.1 22.3 -0.2 22.15 -0.3 22.05 -0.35 21.95 -0.4 21.8 -0.5 21.8 -0.5 21.55 -0.65 21.4 -0.75 21.3 -0.8 21.15 -0.9 21.05 -0.95 20.9 -1.05 20.8 -1.1 20.35 -1.4 19.9 -1.7 19.5 -2.0 19.0 -2.25 18.55 -2.55 18.1 -2.8 17.65 -3.0 17.15 -3.25 16.65 -3.45 16.15 -3.65 15.7 -3.85 15.15 -4.0 14.65 -4.2 14.15 -4.35 13.65 -4.5 13.1 -4.6 12.6 -4.7 12.05 -4.8 11.5 -4.9 11.0 -5.0 10.45 -5.1 9.9 -5.15 9.4 -5.25 8.85 -5.3 8.3 -5.35 7.75 -5.45 7.25 -5.5 6.7 -5.55 6.15 -5.6 5.6 -5.6 5.1 -5.65 4.55 -5.7 3.8 -5.75 1.8 -5.9 0.05 -6.0 -1.0 -6.05 -8.0 -6.3 -11.1 -6.05 -11.5 -6.0 -11.85 -6.0 -12.25 -5.95 -12.6 -5.9 -13.0 -5.85 -13.4 -5.8 -13.75 -5.75 -14.15 -5.7 -14.5 -5.65 -14.9 -5.6 -15.25 -5.5 -15.65 -5.45 -16.0 -5.4 -16.4 -5.3 -16.75 -5.25 -17.15 -5.15 -17.3 -5.1 -17.4 -5.1 -17.5 -5.05 -17.6 -5.0 -17.7 -4.95 -17.75 -4.9 -17.8 -4.85 -17.85 -4.8 -17.9 -4.7 -17.9 -4.65 -17.95 -4.55 -17.95 -4.45 -17.95 -4.35 -17.9 -4.25 -17.9 -4.15 -17.85 -4.0 -17.75 -3.6 -16.65 -1.4 -15.4 1.05 -14.7 2.2 -14.45 2.6 -14.15 3.0 -13.85 3.45 -13.55 3.8 -13.25 4.2 -12.95 4.55 -12.6 4.9 -12.25 5.25 -11.9 5.6 -11.5 5.9 -11.1 6.2 -10.7 6.5 -10.3 6.8 -9.9 7.1 -9.45 7.35 -9.0 7.6 -8.75 7.75 -8.45 7.85 -8.2 8.0 -7.9 8.1 -7.6 8.2 -7.3 8.3 -7.0 8.4 -6.7 8.45 -6.45 8.55 -6.15 8.6 -5.85 8.65 -5.5 8.7 -5.25 8.75 -4.9 8.85 -4.65 8.85 -4.3 8.9 -3.65 9.0 -3.0 9.1 -2.35 9.15 -1.7 9.25 -1.0 9.3 -0.35 9.35 0.3 9.4 0.95 9.45 1.6 9.45 2.25 9.5 2.95 9.5 3.6 9.5 4.25 9.5 4.9 9.45 5.6 9.45 6.25 9.4 6.65 9.4 7.05 9.35 7.45 9.3 7.8 9.25 8.2 9.2 8.6 9.15 9.0 9.1 9.4 9.05 9.75 9.0 10.15 8.9 10.55 8.85 10.95 8.75 11.3 8.7 11.7 8.6 12.1 8.5 12.45 8.4 12.45 8.4 12.5 8.4 12.5 8.4 12.55 8.35 12.6 8.35 12.6 8.35 12.65 8.35 12.65 8.3 12.7 8.3 12.7 8.3 12.75 8.3 12.75 8.3 12.8 8.3 12.85 8.3 12.85 8.3 12.9 8.35 12.7 8.45 12.5 8.55 12.35 8.6 12.15 8.7 11.95 8.75 11.75 8.85 11.55 8.95 11.35 9.0 11.15 9.05 10.95 9.15 10.75 9.2 10.55 9.25 10.35 9.35 10.15 9.4 9.95 9.45 9.75 9.5 9.2 9.65 8.7 9.75 8.15 9.85 7.6 9.95 7.05 10.05 6.55 10.15 6.0 10.25 5.45 10.3 4.9 10.35 4.35 10.4 3.8 10.4 3.25 10.45 2.7 10.45 2.15 10.45 1.6 10.4 1.05 10.4 0.3 10.35 -1.1 10.3 -2.55 10.25 -3.2 10.2 -3.55 10.2 -3.85 10.15 -4.15 10.1 -4.5 10.1 -4.8 10.05 -5.15 10.0 -5.45 10.0 -5.75 9.95 -6.1 9.9 -6.4 9.85 -6.75 9.8 -7.05 9.75 -7.35 9.7 -7.7 9.65 -8.0 9.6 -8.35 9.55 -8.45 9.55 -10.05 9.25 -11.1 9.05 -11.8 8.9 -12.2 8.8 -12.55 8.65 -12.9 8.5 -13.25 8.35 -13.6 8.2 -13.95 8.0 -14.25 7.8 -14.55 7.6 -14.85 7.35 -15.15 7.15 -15.45 6.9 -15.7 6.65 -15.95 6.4 -16.2 6.1 -16.45 5.8 -16.65 5.5 -17.1 4.85 -17.55 4.2 -18.0 3.55 -18.45 2.9 -18.85 2.2 -19.25 1.55 -19.65 0.85 -20.05 0.2 -20.4 -0.5 -20.75 -1.2 -21.1 -1.9 -21.45 -2.6 -21.8 -3.3 -22.1 -4.05 -22.4 -4.75 -22.7 -5.5 -22.8 -5.7 -22.8 -5.8 -22.85 -5.95 -22.9 -6.05 -22.9 -6.15 -22.9 -6.25 -22.9 -6.35 -22.9 -6.4 -22.85 -6.45 -22.8 -6.5 -22.7 -6.6 -22.6 -6.65 -22.5 -6.7 -22.35 -6.75 -22.25 -6.8 -22.05 -6.9 -21.55 -7.1 -21.05 -7.3 -20.55 -7.5 -20.0 -7.7 -19.5 -7.85 -19.0 -8.0 -18.45 -8.2 -17.95 -8.35 -17.4 -8.5 -16.9 -8.6 -16.35 -8.75 -15.85 -8.85 -15.3 -8.95 -14.75 -9.05 -14.2 -9.15 -13.65 -9.25 -12.75 -9.4 -11.85 -9.5 -10.95 -9.6 -10.05 -9.7 -9.15 -9.75 -8.2 -9.8 -7.3 -9.9 -6.4 -9.9 -5.5 -9.95 -4.6 -10.0 -3.65 -10.0 -2.75 -10.0 -1.85 -10.0 -0.9 -9.95 0.0 -9.95 0.9 -9.9 1.5 -9.9 2.05 -9.85 2.65 -9.8 3.25 -9.8 3.8 -9.75 4.4 -9.7 5.0 -9.65 5.55 -9.6 6.15 -9.55 6.7 -9.45 7.3 -9.4 7.85 -9.3 8.45 -9.25 9.0 -9.15 9.6 -9.05 10.15 -8.95 10.9 -8.8 11.6 -8.65 12.35 -8.45 13.05 -8.25 13.75 -8.05 14.45 -7.8 15.15 -7.6 15.85 -7.3 16.5 -7.05 17.2 -6.75 17.85 -6.5 18.55 -6.2 19.2 -5.85 19.85 -5.55 20.5 -5.2 21.15 -4.85 21.25 -4.8 21.35 -4.75 21.45 -4.65 21.6 -4.6 21.7 -4.55 21.8 -4.45 21.9 -4.4 22.0 -4.3 22.1 -4.25 22.2 -4.15 22.3 -4.1 22.4 -4.0 22.5 -3.95 22.6 -3.85 22.7 -3.75 22.8 -3.7 19.5 -4.1 17.85 -4.55 17.75 -4.55 17.7 -4.55 17.6 -4.55 17.55 -4.5 17.6 -4.5 17.6 -4.5 17.65 -4.5 17.7 -4.45 17.7 -4.45 17.75 -4.45 L17.75 -4.45" fill="#020202" fill-rule="evenodd" stroke="none"/>
    <path d="M10.15 -10.4 Q11.0 -10.4 11.8 -10.35 12.65 -10.25 13.45 -10.15 14.25 -10.05 15.05 -9.85 15.8 -9.7 16.55 -9.45 17.3 -9.2 18.05 -8.95 18.8 -8.65 19.5 -8.3 20.25 -8.0 20.95 -7.6 21.65 -7.2 22.3 -6.75 22.25 -6.7 22.2 -6.7 22.2 -6.7 22.15 -6.7 22.1 -6.75 22.05 -6.75 22.05 -6.75 22.0 -6.8 21.95 -6.8 21.9 -6.85 21.75 -6.9 18.85 -8.0 18.35 -8.2 17.85 -8.35 17.35 -8.55 16.85 -8.7 16.35 -8.85 15.85 -9.0 15.35 -9.15 14.8 -9.3 14.3 -9.45 13.8 -9.55 13.3 -9.7 12.75 -9.8 12.25 -9.9 11.7 -10.0 11.2 -10.1 10.7 -10.2 10.65 -10.2 10.65 -10.2 10.6 -10.2 10.55 -10.25 10.55 -10.25 10.5 -10.25 10.45 -10.25 10.45 -10.25 10.4 -10.25 10.35 -10.25 10.35 -10.3 10.3 -10.3 10.25 -10.3 10.2 -10.35 10.2 -10.35 10.15 -10.4 L10.15 -10.4" fill="#0b0b0b" fill-rule="evenodd" stroke="none"/>
    <path d="M22.75 0.15 Q22.75 0.15 22.8 0.15 22.8 0.15 22.8 0.15 22.8 0.15 22.75 0.15 22.75 0.15 22.75 0.15 L22.75 0.15" fill="#020202" fill-rule="evenodd" stroke="none"/>
  </g>
</svg>
