<?xml version="1.0" encoding="UTF-8" standalone="no"?>
<svg xmlns:xlink="http://www.w3.org/1999/xlink" height="33.1px" width="65.3px" xmlns="http://www.w3.org/2000/svg">
  <g transform="matrix(1.0, 0.0, 0.0, 1.0, 32.65, 16.55)">
    <path d="M32.65 -2.95 Q30.85 -3.05 30.5 -3.1 30.45 -3.1 30.4 -3.1 30.35 -3.1 30.35 -3.05 30.3 -3.05 30.3 -3.05 30.3 -3.0 30.3 -2.95 30.3 -2.95 30.3 -2.9 30.3 -2.75 30.35 -2.65 30.35 -2.5 30.35 -2.4 30.35 -2.25 30.35 -2.15 30.35 -2.0 30.35 -1.9 30.35 -1.75 30.3 -1.65 30.3 -1.5 30.25 -1.4 30.25 -1.25 30.2 -1.15 30.2 -1.0 30.15 -0.9 30.15 -0.85 30.1 -0.75 30.05 -0.7 30.05 -0.65 30.0 -0.6 30.0 -0.5 29.95 -0.45 29.9 -0.4 29.9 -0.35 29.85 -0.3 29.8 -0.2 29.75 -0.15 29.7 -0.1 29.7 -0.05 29.65 0.0 29.6 0.05 29.55 0.1 29.55 0.15 29.5 0.15 29.45 0.15 29.45 0.15 29.4 0.15 29.4 0.15 29.35 0.1 29.35 0.1 29.3 0.05 29.1 -0.15 28.9 -0.4 28.65 -0.6 28.45 -0.8 28.2 -0.95 27.95 -1.15 27.75 -1.35 27.5 -1.5 27.25 -1.7 27.0 -1.85 26.75 -2.0 26.5 -2.15 26.25 -2.3 26.0 -2.45 25.75 -2.6 25.45 -2.75 25.35 -2.8 25.3 -2.85 25.2 -2.9 25.15 -2.9 25.05 -2.95 24.95 -3.0 24.9 -3.05 24.8 -3.1 24.7 -3.1 24.65 -3.15 24.55 -3.2 24.5 -3.25 24.4 -3.25 24.3 -3.3 24.25 -3.35 24.15 -3.35 24.0 -3.4 23.85 -3.45 23.7 -3.55 23.5 -3.6 23.3 -3.7 23.1 -3.75 22.85 -3.85 22.6 -3.95 22.35 -4.05 22.05 -4.1 21.75 -4.2 21.45 -4.3 21.1 -4.35 20.8 -4.45 20.4 -4.55 20.05 -4.6 19.95 -4.6 19.85 -4.65 19.75 -4.65 19.65 -4.65 19.5 -4.7 19.35 -4.7 19.2 -4.75 19.05 -4.75 18.9 -4.8 18.75 -4.8 18.55 -4.8 18.35 -4.85 18.15 -4.85 17.95 -4.85 17.75 -4.9 17.5 -4.9 16.95 -4.95 15.2 -4.9 15.05 -4.9 14.9 -4.9 14.8 -4.9 14.6 -4.9 14.45 -4.9 14.3 -4.9 14.15 -4.85 13.95 -4.85 13.75 -4.85 13.6 -4.85 13.4 -4.8 13.2 -4.8 13.0 -4.75 12.8 -4.75 12.6 -4.7 12.4 -4.7 12.0 -4.65 11.95 -4.65 11.7 -4.6 11.5 -4.55 11.25 -4.55 11.05 -4.5 10.8 -4.45 10.6 -4.4 10.4 -4.35 10.15 -4.3 9.95 -4.25 9.7 -4.2 9.5 -4.1 9.25 -4.05 9.0 -3.95 8.75 -3.85 8.5 -3.75 8.25 -3.65 8.0 -3.5 7.75 -3.4 7.5 -3.25 7.25 -3.1 7.0 -2.95 6.75 -2.8 6.5 -2.65 6.25 -2.5 6.05 -2.3 5.8 -2.15 5.55 -1.95 5.35 -1.75 5.1 -1.55 4.9 -1.35 4.75 -1.2 4.55 -1.05 4.4 -0.85 4.25 -0.7 4.1 -0.55 4.0 -0.35 3.85 -0.15 3.7 0.0 3.6 0.2 3.45 0.4 3.35 0.6 3.2 0.8 3.1 1.0 3.0 1.2 2.9 1.4 2.8 1.6 2.75 1.7 2.75 1.75 2.7 1.85 2.65 1.9 2.65 2.0 2.6 2.05 2.55 2.15 2.55 2.2 2.5 2.3 2.5 2.35 2.45 2.45 2.45 2.55 2.4 2.6 2.4 2.7 2.35 2.75 2.35 2.85 2.35 2.9 2.3 2.95 2.3 3.05 2.3 3.1 2.3 3.15 2.25 3.2 2.25 3.25 2.25 3.35 2.25 3.4 2.25 3.45 2.25 3.5 2.3 3.55 2.3 3.65 2.3 3.7 2.3 3.75 2.3 3.8 2.4 4.25 2.55 4.65 2.7 5.1 2.9 5.5 3.1 5.9 3.3 6.25 3.5 6.65 3.75 7.0 4.0 7.4 4.25 7.7 4.5 8.05 4.8 8.4 5.1 8.7 5.45 9.0 5.75 9.3 6.1 9.6 6.4 9.85 6.75 10.1 7.05 10.3 7.4 10.55 7.7 10.75 8.05 11.0 8.4 11.2 8.75 11.4 9.05 11.55 9.45 11.75 9.75 11.95 10.15 12.15 10.45 12.3 10.85 12.5 11.15 12.65 11.55 12.85 11.6 12.85 11.65 12.9 11.7 12.9 11.75 12.95 11.8 12.95 11.85 12.95 11.9 12.95 11.95 13.0 12.0 13.0 12.05 13.0 12.1 13.0 12.15 13.0 12.2 13.05 12.25 13.05 12.3 13.05 12.35 13.05 12.4 13.05 12.45 13.05 12.45 13.05 12.5 13.05 12.55 13.1 12.6 13.1 12.6 13.1 12.65 13.1 12.7 13.1 12.75 13.15 12.75 13.15 12.8 13.15 12.85 13.2 12.9 13.2 12.9 13.2 12.95 13.25 13.0 13.3 13.0 13.3 13.05 13.35 13.05 13.4 13.1 13.4 13.1 13.45 13.1 13.5 13.1 13.55 13.1 13.55 13.1 13.6 13.1 13.65 13.05 13.7 13.05 13.75 13.05 13.75 13.0 13.8 12.95 13.8 12.95 13.85 12.9 13.85 12.85 13.85 12.8 13.85 12.75 13.85 12.75 13.9 12.7 13.9 12.65 13.9 12.65 13.9 12.6 13.9 12.55 13.9 12.5 13.9 12.6 14.0 12.2 13.85 11.25 13.55 10.25 13.15 9.4 12.8 8.5 12.45 7.75 12.1 6.95 11.75 6.3 11.45 5.65 11.1 5.1 10.8 4.55 10.55 4.15 10.3 3.8 10.1 3.5 9.95 3.3 9.8 3.2 9.75 3.1 9.7 2.5 9.3 1.95 8.95 1.45 8.55 1.0 8.25 0.6 7.95 0.25 7.65 -0.1 7.35 -0.4 7.1 -0.65 6.85 -0.9 6.65 -1.05 6.45 -1.25 6.25 -1.05 6.45 -1.6 5.9 -1.75 5.75 -1.85 5.65 -1.95 5.55 -2.05 5.45 -2.1 5.35 -2.2 5.25 -2.3 5.15 -2.35 5.05 -2.45 4.95 -2.5 4.85 -2.55 4.75 -2.65 4.6 -2.7 4.5 -2.8 4.35 -2.85 4.25 -2.9 4.15 -2.95 4.05 -3.05 3.9 -1.35 4.7 -0.9 4.8 -1.4 4.3 -1.75 3.95 -2.2 3.45 -2.55 3.05 -3.0 2.6 -3.4 2.15 -3.8 1.7 -4.15 1.25 -4.55 0.75 -4.9 0.3 -5.3 -0.2 -5.65 -0.65 -6.0 -1.2 -6.3 -1.7 -6.65 -2.2 -6.9 -2.75 -6.8 -2.75 -6.75 -2.7 -6.65 -2.7 -6.55 -2.7 -6.45 -2.7 -6.4 -2.65 -6.3 -2.65 -6.25 -2.65 -6.15 -2.65 -6.05 -2.65 -6.0 -2.65 -5.9 -2.6 -5.8 -2.6 -5.75 -2.65 -5.65 -2.65 -5.6 -2.65 -5.35 -2.65 -5.15 -2.7 -4.9 -2.75 -4.7 -2.75 -4.45 -2.8 -4.25 -2.85 -4.0 -2.95 -3.8 -3.0 -3.6 -3.05 -3.35 -3.15 -3.15 -3.2 -2.95 -3.3 -2.75 -3.35 -2.5 -3.45 -2.3 -3.55 -2.1 -3.65 -0.95 -4.2 1.1 -5.5 1.65 -5.85 2.25 -6.2 2.85 -6.55 3.4 -6.85 4.0 -7.1 4.65 -7.4 5.25 -7.65 5.85 -7.85 6.5 -8.1 7.1 -8.3 7.75 -8.45 8.4 -8.6 9.05 -8.75 9.7 -8.9 10.35 -9.0 11.05 -9.1 12.7 -9.3 15.75 -9.25 15.75 -9.25 15.95 -9.25 16.1 -9.25 16.15 -9.25 16.25 -9.25 16.35 -9.25 16.5 -9.25 16.55 -9.25 16.7 -9.25 16.8 -9.25 16.9 -9.3 17.0 -9.3 17.1 -9.3 17.2 -9.35 17.3 -9.4 17.4 -9.4 18.45 -9.9 18.8 -10.2 18.9 -10.25 18.95 -10.25 18.95 -10.15 18.95 -10.1 18.9 -10.0 18.9 -9.9 18.9 -9.85 18.85 -9.75 18.8 -9.7 18.8 -9.6 18.75 -9.55 18.7 -9.45 18.7 -9.4 18.65 -9.3 18.6 -9.25 18.55 -9.15 18.5 -9.05 18.45 -9.0 18.95 -8.95 19.8 -8.8 20.7 -8.6 21.1 -8.55 21.2 -8.55 21.3 -8.55 21.4 -8.55 21.5 -8.55 21.55 -8.55 21.65 -8.6 21.75 -8.6 21.85 -8.65 21.95 -8.65 22.05 -8.7 22.1 -8.7 22.25 -8.75 22.25 -8.75 22.4 -8.8 22.5 -8.85 22.6 -8.85 22.75 -8.9 22.9 -8.95 23.05 -9.05 23.2 -9.1 23.35 -9.15 23.5 -9.25 23.6 -9.3 23.75 -9.4 23.9 -9.5 24.05 -9.6 24.15 -9.65 24.3 -9.75 24.45 -9.85 24.55 -9.95 24.7 -10.1 24.85 -10.2 24.85 -10.0 24.8 -9.85 24.8 -9.7 24.75 -9.5 24.7 -9.35 24.65 -9.2 24.6 -9.05 24.55 -8.9 24.5 -8.75 24.4 -8.65 24.35 -8.5 24.25 -8.35 24.15 -8.25 24.05 -8.1 23.95 -8.0 23.8 -7.85 23.95 -7.8 24.35 -7.7 24.7 -7.6 25.05 -7.5 25.35 -7.35 25.7 -7.25 26.05 -7.1 26.35 -7.0 26.7 -6.85 27.0 -6.7 27.35 -6.6 27.7 -6.45 28.0 -6.3 28.35 -6.15 28.65 -6.0 28.95 -5.8 29.3 -5.65 29.6 -5.5 29.8 -5.4 30.05 -5.25 30.25 -5.15 30.45 -5.0 30.65 -4.85 30.85 -4.7 31.05 -4.6 31.25 -4.4 31.4 -4.3 31.6 -4.1 31.8 -3.95 31.95 -3.8 32.15 -3.65 32.3 -3.45 32.5 -3.3 32.65 -3.1 32.65 -3.0 32.65 -2.95 L32.65 -2.95 M-0.9 4.8 Q-0.9 4.8 -0.9 4.8 -0.9 4.85 -0.9 4.85 -0.9 4.85 -0.85 4.85 -0.85 4.85 -0.85 4.8 -0.85 4.8 -0.9 4.8 L-0.9 4.8" fill="#2a0243" fill-rule="evenodd" stroke="none"/>
    <path d="M21.1 14.45 Q19.7 14.6 17.45 14.55 17.3 14.55 17.15 14.55 17.0 14.55 16.85 14.5 16.7 14.5 16.55 14.5 16.4 14.45 16.25 14.45 16.2 14.45 15.95 14.4 15.75 14.35 15.65 14.35 15.5 14.3 15.35 14.3 15.2 14.3 15.05 14.3 15.0 14.3 15.0 14.25 14.95 14.25 14.95 14.25 14.9 14.25 14.85 14.2 14.8 14.2 14.75 14.15 14.7 14.1 14.65 14.1 14.6 14.05 14.6 14.0 14.55 14.0 14.55 13.95 14.55 13.9 14.55 13.85 14.55 13.85 14.55 13.8 14.55 13.75 14.55 13.7 14.55 13.65 14.6 13.6 14.6 13.6 14.65 13.55 14.65 13.5 14.7 13.5 14.7 13.5 14.75 13.45 14.8 13.45 14.8 13.45 14.85 13.45 14.9 13.45 14.95 13.45 15.05 13.45 15.1 13.5 15.15 13.5 15.45 13.6 15.75 13.65 16.05 13.7 16.4 13.75 16.7 13.8 17.0 13.85 17.3 13.9 17.65 13.9 17.95 13.9 18.25 13.95 18.55 13.95 18.9 13.95 19.2 13.95 19.5 13.9 19.8 13.9 20.15 13.9 20.25 13.9 20.4 13.9 20.5 13.9 20.6 13.9 20.7 13.85 20.85 13.85 20.95 13.85 21.05 13.85 21.2 13.8 21.3 13.8 21.4 13.8 21.5 13.75 21.65 13.75 21.75 13.7 21.85 13.7 21.95 13.65 22.0 13.65 22.1 13.65 22.15 13.65 22.15 13.65 22.2 13.65 22.25 13.65 22.3 13.65 22.3 13.65 22.35 13.65 22.35 13.65 22.4 13.65 22.4 13.7 22.45 13.7 22.45 13.75 22.5 13.75 22.5 13.8 22.5 13.8 22.55 13.85 22.55 13.9 22.55 13.95 22.55 13.95 22.55 14.0 22.55 14.05 22.55 14.05 22.5 14.1 22.5 14.1 22.5 14.15 22.45 14.15 22.45 14.2 22.4 14.2 22.35 14.25 22.35 14.25 22.3 14.25 22.25 14.3 22.05 14.4 21.4 14.45 21.4 14.45 21.25 14.45 21.2 14.45 21.1 14.45 L21.1 14.45" fill="#2d0647" fill-rule="evenodd" stroke="none"/>
  </g>
</svg>
