<?xml version="1.0" encoding="UTF-8" standalone="no"?>
<svg xmlns:xlink="http://www.w3.org/1999/xlink" height="15.65px" width="31.85px" xmlns="http://www.w3.org/2000/svg">
  <g transform="matrix(1.0, 0.0, 0.0, 1.0, -6.0, 2.9)">
    <path d="M32.1 -2.6 Q32.45 -2.55 32.8 -2.45 33.15 -2.4 33.55 -2.3 33.95 -2.2 34.35 -2.1 34.8 -2.0 35.2 -1.85 35.7 -1.75 36.15 -1.6 36.65 -1.45 37.15 -1.25 37.7 -1.1 38.2 -0.9 38.75 -0.7 39.3 -0.5 39.25 -0.05 39.25 0.45 39.15 1.1 39.05 1.75 38.95 2.55 38.75 3.3 38.55 4.2 38.3 5.05 37.95 6.0 37.6 6.85 37.15 7.8 36.6 8.65 36.0 9.55 35.3 10.3 34.55 11.1 33.65 11.7 33.45 11.85 33.25 11.95 33.05 12.1 32.85 12.2 32.65 12.35 32.45 12.45 32.25 12.55 32.05 12.65 31.9 12.7 31.7 12.8 31.55 12.85 31.4 12.95 31.25 13.0 31.1 13.05 31.0 13.1 30.85 13.15 30.6 13.25 30.4 13.3 30.05 13.45 29.7 13.55 29.25 13.65 28.8 13.75 28.2 13.85 27.65 13.95 26.95 14.05 26.25 14.1 25.45 14.15 24.6 14.15 23.7 14.15 22.7 14.1 21.65 14.0 20.55 13.85 20.0 13.8 19.4 13.7 18.75 13.6 18.1 13.45 17.4 13.3 16.65 13.15 15.9 12.95 15.1 12.7 14.25 12.45 13.45 12.2 12.55 11.85 11.65 11.5 10.7 11.15 9.8 10.7 8.85 10.3 7.85 9.8 6.8 8.25 6.3 7.35 6.0 6.9 5.75 6.4 5.5 5.95 5.25 5.45 5.05 5.0 4.8 4.55 4.6 4.1 4.4 3.65 4.2 3.2 4.0 2.75 3.85 2.3 3.65 1.85 3.5 1.45 3.35 1.05 3.2 0.6 3.05 0.2 3.3 0.15 3.5 0.05 3.8 0.0 4.05 -0.1 4.35 -0.2 4.65 -0.25 4.95 -0.35 5.25 -0.45 5.6 -0.55 5.95 -0.6 6.3 -0.7 6.65 -0.8 7.05 -0.9 7.45 -1.0 7.85 -1.1 8.25 -1.2 9.75 -1.55 10.65 -1.75 12.05 -2.05 13.25 -2.3 14.7 -2.55 16.0 -2.75 17.5 -3.0 18.95 -3.15 20.5 -3.3 22.0 -3.35 23.65 -3.4 25.25 -3.35 26.95 -3.3 28.6 -3.15 30.35 -2.95 32.1 -2.6 L32.1 -2.6" fill="#2d2d2d" fill-rule="evenodd" stroke="none"/>
  </g>
</svg>
