<?xml version="1.0" encoding="UTF-8" standalone="no"?>
<svg xmlns:xlink="http://www.w3.org/1999/xlink" height="22.75px" width="41.3px" xmlns="http://www.w3.org/2000/svg">
  <g transform="matrix(1.0, 0.0, 0.0, 1.0, 0.0, 11.4)">
    <path d="M43.3 3.7 Q42.0 3.2 39.9 2.05 37.45 0.7 36.6 0.3 35.45 0.15 34.2 0.0 33.05 -0.1 31.85 -0.2 30.7 -0.25 29.45 -0.25 28.3 -0.3 27.05 -0.3 25.95 -0.3 24.65 -0.25 23.6 -0.2 22.3 -0.15 21.35 -0.15 19.9 -0.05 17.8 0.05 17.5 0.05 17.35 0.05 16.05 0.15 15.1 0.2 14.45 0.25 13.55 0.3 12.85 0.35 11.95 0.45 11.2 0.55 10.35 0.65 9.6 0.8 8.8 0.95 8.15 1.1 7.45 1.3 6.9 1.55 6.25 1.8 5.85 2.15 5.65 2.55 5.6 3.1 5.6 3.65 5.75 4.35 5.9 4.95 6.2 5.75 6.5 6.4 6.85 7.15 7.2 7.8 7.6 8.5 7.95 9.15 8.3 9.75 8.65 10.25 8.95 10.65 9.2 11.05 9.35 11.2 8.6 10.95 8.0 10.65 7.4 10.35 6.85 10.05 6.35 9.75 5.9 9.35 5.5 9.0 5.1 8.6 4.75 8.25 4.4 7.8 4.1 7.4 3.75 6.9 3.5 6.5 3.15 5.95 2.0 4.2 2.45 4.9 2.1 4.35 1.8 3.8 1.5 3.4 1.25 2.95 1.05 2.7 0.8 2.3 0.5 1.95 0.45 1.8 0.3 1.55 0.2 1.4 0.1 1.25 0.05 1.1 0.0 1.0 0.0 0.85 0.0 0.75 0.05 0.6 0.9 0.05 1.9 -0.4 2.8 -0.85 3.85 -1.15 4.8 -1.45 5.85 -1.7 6.8 -1.9 7.9 -2.05 8.9 -2.15 10.05 -2.25 10.95 -2.3 12.15 -2.4 12.35 -2.4 14.25 -2.45 15.55 -2.55 16.35 -2.6 19.5 -2.65 21.6 -2.7 24.05 -2.75 25.8 -2.75 27.75 -2.75 29.2 -2.7 30.75 -2.7 31.95 -2.6 33.15 -2.55 34.2 -2.4 35.2 -2.3 36.1 -2.1 37.0 -1.95 37.9 -1.7 38.75 -1.45 39.75 -1.15 39.8 -1.1 39.9 -1.05 39.95 -1.05 40.0 -1.0 40.05 -0.95 40.1 -0.9 40.15 -0.85 40.2 -0.8 40.25 -0.75 40.25 -0.7 40.3 -0.65 40.35 -0.6 40.35 -0.55 40.4 -0.5 40.6 -0.25 40.5 -0.35 41.05 0.45 41.9 1.65 42.95 3.15 43.35 3.65 43.35 3.65 43.35 3.7 43.3 3.7 43.3 3.7 L43.3 3.7" fill="#000000" fill-rule="evenodd" stroke="none"/>
    <path d="M26.15 -4.8 Q26.45 -4.8 26.75 -4.8 27.05 -4.75 27.35 -4.75 27.6 -4.75 27.9 -4.75 28.2 -4.75 28.5 -4.7 28.8 -4.7 29.1 -4.7 29.4 -4.7 29.7 -4.65 30.0 -4.65 30.3 -4.65 30.6 -4.65 30.9 -4.6 31.05 -4.6 31.2 -4.6 31.35 -4.6 31.5 -4.6 31.65 -4.55 31.75 -4.55 31.9 -4.55 32.05 -4.55 32.2 -4.55 32.35 -4.5 32.5 -4.5 32.65 -4.5 32.8 -4.5 32.95 -4.45 33.1 -4.45 33.25 -4.45 33.6 -4.4 34.2 -4.3 35.0 -4.2 35.15 -4.15 35.25 -4.15 35.4 -4.1 35.45 -4.1 35.5 -4.1 35.5 -4.1 35.55 -4.05 35.6 -4.05 35.6 -4.0 35.65 -4.0 35.65 -4.0 35.7 -3.95 35.7 -3.9 35.75 -3.9 35.75 -3.85 35.75 -3.8 35.75 -3.8 35.75 -3.75 35.75 -3.7 35.75 -3.65 35.75 -3.65 35.75 -3.6 35.7 -3.55 35.7 -3.55 35.65 -3.5 35.65 -3.45 35.6 -3.45 35.6 -3.45 35.55 -3.4 35.5 -3.4 35.5 -3.4 35.45 -3.35 35.4 -3.35 35.35 -3.35 35.3 -3.35 35.05 -3.4 34.85 -3.45 34.7 -3.5 34.5 -3.5 34.35 -3.55 34.15 -3.55 34.0 -3.6 33.8 -3.65 33.6 -3.65 33.45 -3.65 33.25 -3.7 33.1 -3.7 32.9 -3.75 32.75 -3.75 32.55 -3.75 32.35 -3.8 32.2 -3.8 32.0 -3.8 28.05 -4.0 25.35 -4.05 25.0 -4.05 24.65 -4.05 24.35 -4.1 24.0 -4.05 23.65 -4.05 23.3 -4.05 23.0 -4.05 22.65 -4.05 22.3 -4.05 21.95 -4.0 21.65 -4.0 21.3 -4.0 20.95 -3.95 20.65 -3.95 20.3 -3.9 19.95 -3.9 19.45 -3.85 17.7 -3.65 16.3 -3.55 15.45 -3.45 15.3 -3.45 15.2 -3.4 15.1 -3.4 14.95 -3.35 14.85 -3.35 14.7 -3.35 14.6 -3.3 14.45 -3.25 14.35 -3.25 14.2 -3.2 14.1 -3.2 13.95 -3.15 13.85 -3.1 13.75 -3.1 13.6 -3.05 13.5 -3.0 13.45 -3.0 13.4 -3.0 13.4 -2.95 13.35 -2.95 13.3 -2.95 13.25 -3.0 13.25 -3.0 13.2 -3.0 13.15 -3.0 13.15 -3.05 13.1 -3.05 13.1 -3.1 13.05 -3.1 13.05 -3.15 13.0 -3.15 13.0 -3.2 13.0 -3.25 13.0 -3.25 12.95 -3.3 12.95 -3.35 12.95 -3.35 13.0 -3.4 13.0 -3.45 13.0 -3.45 13.0 -3.5 13.05 -3.55 13.05 -3.55 13.05 -3.6 13.1 -3.6 13.1 -3.65 13.15 -3.65 13.2 -3.7 13.25 -3.7 13.25 -3.7 13.3 -3.75 13.35 -3.75 13.35 -3.75 13.4 -3.75 13.45 -3.8 13.5 -3.8 13.65 -3.85 13.8 -3.9 13.9 -3.9 14.05 -3.95 14.2 -4.0 14.35 -4.0 14.5 -4.05 14.6 -4.05 14.75 -4.1 14.9 -4.1 15.05 -4.15 15.2 -4.15 15.35 -4.2 15.5 -4.2 15.65 -4.2 15.75 -4.25 16.25 -4.3 17.1 -4.4 18.05 -4.45 18.45 -4.5 18.65 -4.5 18.85 -4.55 19.05 -4.55 19.25 -4.55 19.45 -4.6 19.65 -4.6 19.85 -4.6 20.05 -4.65 20.25 -4.65 20.45 -4.65 20.65 -4.7 20.85 -4.7 21.05 -4.7 21.25 -4.7 21.45 -4.75 21.65 -4.75 23.55 -4.85 26.15 -4.8 L26.15 -4.8" fill="#000000" fill-rule="evenodd" stroke="none"/>
    <path d="M25.8 16.0 Q25.45 16.0 25.15 16.0 24.8 15.95 24.5 15.95 24.15 15.9 23.85 15.9 23.5 15.85 23.15 15.85 22.85 15.8 22.5 15.75 22.2 15.75 21.85 15.7 21.55 15.65 21.2 15.6 20.85 15.55 20.55 15.5 20.35 15.45 20.15 15.4 19.9 15.35 19.7 15.3 19.5 15.25 19.3 15.2 19.1 15.15 18.9 15.05 18.7 15.0 18.5 14.95 18.3 14.85 18.1 14.75 17.9 14.7 17.75 14.6 17.55 14.5 17.35 14.4 17.3 14.4 17.3 14.35 17.25 14.35 17.2 14.3 17.15 14.25 17.15 14.25 17.1 14.2 17.1 14.15 17.05 14.1 17.1 14.0 17.1 13.95 17.1 13.85 17.15 13.8 17.2 13.75 17.25 13.7 17.35 13.7 17.4 13.65 17.5 13.7 17.55 13.7 17.6 13.7 17.65 13.7 17.7 13.75 17.7 13.75 17.75 13.8 17.95 13.9 18.2 14.0 18.4 14.1 18.6 14.15 18.85 14.25 19.05 14.35 19.25 14.4 19.5 14.45 19.7 14.55 19.95 14.6 20.15 14.65 20.4 14.7 20.6 14.75 20.85 14.75 21.1 14.8 21.3 14.85 21.65 14.9 22.0 14.95 22.4 15.0 22.75 15.05 23.1 15.05 23.45 15.1 23.85 15.15 24.2 15.15 24.55 15.2 24.9 15.2 25.3 15.2 25.65 15.2 26.0 15.25 26.35 15.25 26.7 15.25 27.1 15.2 27.35 15.2 27.55 15.2 27.8 15.2 28.05 15.15 28.25 15.15 28.5 15.15 28.75 15.1 28.95 15.1 29.2 15.05 29.45 15.0 29.65 14.95 29.9 14.95 30.15 14.9 30.35 14.8 30.6 14.75 30.8 14.7 31.0 14.65 31.3 14.5 31.8 14.3 31.8 14.3 32.15 14.15 32.2 14.1 32.25 14.1 32.3 14.1 32.35 14.1 32.35 14.1 32.4 14.1 32.45 14.1 32.5 14.1 32.5 14.15 32.55 14.15 32.55 14.15 32.6 14.2 32.6 14.2 32.65 14.25 32.65 14.25 32.7 14.3 32.7 14.35 32.7 14.4 32.7 14.4 32.7 14.45 32.7 14.5 32.7 14.5 32.7 14.55 32.7 14.6 32.7 14.6 32.65 14.65 32.65 14.65 32.65 14.7 32.6 14.7 32.6 14.75 32.55 14.75 32.5 14.8 32.5 14.8 32.3 14.9 32.05 15.0 31.85 15.1 31.6 15.2 31.35 15.3 31.15 15.35 30.9 15.45 30.65 15.5 30.45 15.6 30.2 15.65 29.95 15.7 29.75 15.7 29.5 15.75 29.25 15.8 29.0 15.85 28.75 15.85 28.55 15.85 28.4 15.9 28.2 15.9 28.0 15.9 27.85 15.95 27.65 15.95 27.5 15.95 27.3 15.95 27.1 15.95 26.95 16.0 26.75 16.0 26.55 16.0 26.4 16.0 26.2 16.0 26.0 16.0 25.8 16.0 L25.8 16.0" fill="#000000" fill-rule="evenodd" stroke="none"/>
    <path d="M11.65 12.1 Q11.65 12.15 11.65 12.2 11.6 12.2 11.6 12.25 11.6 12.3 11.55 12.3 11.55 12.35 11.5 12.35 11.45 12.4 11.45 12.4 11.4 12.45 11.4 12.45 11.35 12.5 11.3 12.5 11.25 12.5 11.25 12.55 11.2 12.55 11.15 12.6 11.15 12.6 11.1 12.65 11.05 12.65 11.0 12.7 11.0 12.7 10.95 12.7 10.9 12.75 10.9 12.75 10.85 12.75 10.8 12.8 10.8 12.8 10.75 12.8 10.7 12.85 10.65 12.85 10.6 12.85 10.6 12.8 10.55 12.8 10.5 12.8 10.5 12.8 10.45 12.75 10.45 12.75 10.4 12.75 10.35 12.7 10.35 12.65 10.35 12.6 10.3 12.6 10.3 12.55 10.3 12.5 10.3 12.5 10.3 12.45 10.3 12.4 10.3 12.4 10.3 12.35 10.3 12.3 10.35 12.3 10.35 12.25 10.4 12.2 10.4 12.2 10.45 12.15 10.45 12.15 10.85 11.9 11.05 11.75 11.1 11.75 11.15 11.7 11.2 11.7 11.25 11.7 11.3 11.7 11.35 11.75 11.4 11.75 11.45 11.75 11.5 11.8 11.5 11.85 11.55 11.85 11.6 11.9 11.6 11.95 11.6 12.0 11.65 12.05 11.65 12.1 L11.65 12.1" fill="#000000" fill-rule="evenodd" stroke="none"/>
    <path d="M13.75 12.75 Q13.8 12.75 13.85 12.75 13.85 12.75 13.9 12.75 13.95 12.8 13.95 12.8 14.0 12.85 14.0 12.85 14.05 12.9 14.05 12.9 14.1 12.95 14.1 12.95 14.1 13.0 14.1 13.05 14.1 13.1 14.1 13.15 14.1 13.2 14.1 13.2 14.1 13.25 14.1 13.3 14.1 13.35 14.1 13.4 14.05 13.4 14.05 13.45 14.05 13.5 14.05 13.55 14.05 13.55 14.05 13.6 14.0 13.65 14.0 13.7 14.0 13.75 14.0 13.75 14.0 13.8 13.95 13.85 13.95 13.85 13.95 13.9 13.9 13.9 13.9 13.95 13.85 13.95 13.85 14.0 13.8 14.0 13.75 14.0 13.75 14.0 13.7 14.0 13.65 14.05 13.65 14.0 13.6 14.0 13.55 14.0 13.5 14.0 13.45 13.95 13.35 13.9 13.35 13.85 13.3 13.8 13.3 13.75 13.25 13.7 13.25 13.6 13.25 13.6 13.3 13.3 13.35 13.15 13.4 13.05 13.4 13.0 13.4 13.0 13.45 12.95 13.45 12.9 13.45 12.9 13.45 12.85 13.5 12.85 13.5 12.85 13.55 12.8 13.55 12.8 13.6 12.8 13.6 12.75 13.65 12.75 13.65 12.75 13.7 12.75 13.75 12.75 L13.75 12.75" fill="#000000" fill-rule="evenodd" stroke="none"/>
    <path d="M12.8 12.75 Q12.55 13.3 12.45 13.45 12.4 13.5 12.4 13.5 12.35 13.5 12.3 13.55 12.25 13.55 12.2 13.55 12.15 13.55 12.1 13.55 12.05 13.5 12.0 13.5 11.95 13.45 11.95 13.45 11.9 13.4 11.85 13.35 11.85 13.3 11.85 13.25 11.8 13.2 11.8 13.15 11.8 13.1 11.85 13.05 11.85 13.0 11.85 13.0 11.9 12.95 11.9 12.9 11.9 12.85 11.9 12.85 11.95 12.8 11.95 12.75 11.95 12.75 12.0 12.7 12.0 12.65 12.0 12.6 12.05 12.6 12.05 12.55 12.05 12.5 12.1 12.5 12.1 12.45 12.15 12.45 12.15 12.4 12.2 12.4 12.2 12.35 12.25 12.35 12.25 12.35 12.3 12.35 12.3 12.3 12.35 12.3 12.35 12.3 12.4 12.3 12.45 12.3 12.45 12.3 12.5 12.3 12.55 12.35 12.55 12.35 12.6 12.35 12.6 12.4 12.65 12.4 12.65 12.4 12.7 12.45 12.7 12.45 12.7 12.5 12.75 12.5 12.75 12.55 12.75 12.55 12.75 12.6 12.75 12.65 12.75 12.65 12.8 12.7 12.8 12.75 L12.8 12.75" fill="#000000" fill-rule="evenodd" stroke="none"/>
  </g>
</svg>
