<?xml version="1.0" encoding="UTF-8" standalone="no"?>
<svg xmlns:xlink="http://www.w3.org/1999/xlink" height="15.65px" width="31.7px" xmlns="http://www.w3.org/2000/svg">
  <g transform="matrix(1.0, 0.0, 0.0, 1.0, -6.15, 2.9)">
    <path d="M32.1 -2.55 Q32.45 -2.5 32.8 -2.4 33.15 -2.35 33.55 -2.25 33.95 -2.15 34.35 -2.05 34.8 -1.95 35.25 -1.85 35.7 -1.7 36.2 -1.55 36.7 -1.4 37.2 -1.25 37.7 -1.05 38.2 -0.9 38.75 -0.7 39.3 -0.45 39.3 0.0 39.25 0.5 39.15 1.15 39.05 1.75 38.95 2.55 38.8 3.35 38.55 4.25 38.3 5.1 38.0 6.05 37.6 6.9 37.15 7.85 36.6 8.65 36.05 9.55 35.35 10.3 34.55 11.1 33.7 11.75 33.5 11.9 33.3 12.0 33.1 12.15 32.85 12.25 32.65 12.35 32.45 12.45 32.3 12.55 32.1 12.65 31.9 12.75 31.75 12.8 31.55 12.9 31.4 12.95 31.25 13.0 31.1 13.05 31.0 13.1 30.9 13.15 30.65 13.25 30.4 13.35 30.1 13.45 29.7 13.55 29.3 13.7 28.8 13.8 28.25 13.9 27.65 14.0 27.0 14.05 26.25 14.1 25.45 14.2 24.6 14.2 23.7 14.2 22.75 14.1 21.7 14.05 20.6 13.9 20.0 13.8 19.45 13.75 18.8 13.6 18.15 13.5 17.4 13.35 16.7 13.15 15.9 12.95 15.1 12.75 14.3 12.5 13.45 12.2 12.55 11.9 11.7 11.55 10.75 11.2 9.8 10.75 8.85 10.3 7.9 9.8 7.8 9.65 7.7 9.5 7.6 9.35 7.5 9.25 7.4 9.1 7.3 8.95 7.2 8.8 7.1 8.65 7.0 8.5 6.9 8.3 6.8 8.15 6.7 8.0 6.6 7.85 6.5 7.7 6.4 7.55 6.3 7.35 6.05 6.9 5.75 6.4 5.5 5.95 5.25 5.5 5.05 5.0 4.8 4.55 4.6 4.1 4.4 3.65 4.2 3.2 4.0 2.75 3.85 2.35 3.7 1.9 3.5 1.5 3.35 1.05 3.2 0.65 3.1 0.25 3.3 0.2 3.55 0.1 3.8 0.05 4.1 -0.05 4.35 -0.15 4.65 -0.2 4.95 -0.3 5.3 -0.4 5.6 -0.5 5.95 -0.6 6.3 -0.7 6.7 -0.8 7.1 -0.9 7.45 -0.95 7.85 -1.05 8.3 -1.15 9.75 -1.5 10.7 -1.7 12.05 -2.0 13.3 -2.25 14.7 -2.55 16.05 -2.75 17.5 -2.95 18.95 -3.1 20.5 -3.25 22.05 -3.35 23.65 -3.4 25.25 -3.35 26.95 -3.3 28.6 -3.1 30.4 -2.9 32.1 -2.6 L32.1 -2.55" fill="#ffffff" fill-rule="evenodd" stroke="none"/>
  </g>
</svg>
