<?xml version="1.0" encoding="UTF-8" standalone="no"?>
<svg xmlns:xlink="http://www.w3.org/1999/xlink" height="14.1px" width="22.15px" xmlns="http://www.w3.org/2000/svg">
  <g transform="matrix(1.0, 0.0, 0.0, 1.0, -0.05, 7.05)">
    <path d="M19.7 -4.6 Q19.6 -4.8 19.5 -5.0 19.35 -5.25 19.25 -5.45 19.1 -5.65 18.95 -5.8 18.85 -6.0 18.7 -6.2 18.55 -6.4 18.35 -6.55 18.2 -6.75 18.05 -6.9 17.85 -7.05 17.65 -7.25 17.5 -7.4 17.3 -7.55 17.1 -7.6 16.95 -7.65 16.75 -7.65 16.55 -7.7 16.35 -7.75 16.2 -7.8 16.0 -7.8 15.8 -7.85 15.65 -7.9 15.45 -7.9 15.25 -7.95 15.05 -8.0 14.9 -8.0 14.7 -8.05 14.5 -8.05 14.35 -8.1 14.2 -8.1 13.85 -8.15 12.95 -8.15 12.0 -8.15 L9.75 -8.15 Q9.6 -8.15 9.45 -8.1 9.25 -8.1 9.1 -8.05 8.95 -8.05 8.8 -8.0 8.6 -8.0 8.45 -7.95 8.3 -7.95 8.15 -7.9 7.95 -7.85 7.8 -7.85 7.65 -7.8 7.5 -7.75 7.3 -7.75 7.15 -7.7 7.05 -7.65 6.95 -7.55 6.9 -7.5 6.8 -7.4 6.7 -7.35 6.65 -7.3 6.55 -7.2 6.45 -7.15 6.4 -7.05 6.3 -7.0 6.2 -6.9 6.15 -6.8 6.05 -6.75 6.0 -6.65 5.9 -6.55 5.85 -6.5 5.6 -6.25 5.4 -5.95 5.2 -5.7 5.05 -5.45 4.85 -5.15 4.7 -4.85 4.55 -4.6 4.45 -4.3 4.3 -4.0 4.2 -3.7 4.1 -3.4 4.0 -3.1 3.95 -2.8 3.9 -2.5 3.85 -2.15 3.8 -1.85 3.8 -1.7 3.75 -1.55 3.75 -1.4 3.75 -1.3 3.75 -1.15 3.75 -1.0 3.75 -0.85 3.75 -0.7 3.75 -0.55 3.8 -0.4 3.8 -0.25 3.8 -0.15 3.85 0.0 3.85 0.15 3.9 0.3 3.9 0.45 3.95 0.7 4.0 0.9 4.05 1.1 4.15 1.35 4.2 1.55 4.25 1.75 4.35 2.0 4.45 2.2 4.55 2.4 4.65 2.6 4.75 2.8 4.85 3.05 5.0 3.25 5.15 3.45 5.25 3.6 5.4 3.8 5.55 4.0 5.7 4.2 5.9 4.4 6.05 4.6 6.25 4.75 6.4 4.95 6.6 5.1 6.8 5.25 7.0 5.45 7.2 5.6 7.45 5.75 7.65 5.85 7.9 6.0 8.1 6.15 8.35 6.25 8.6 6.35 8.85 6.45 9.1 6.55 9.35 6.65 9.6 6.75 9.9 6.85 10.15 6.9 10.4 6.95 10.65 7.0 10.95 7.05 11.2 7.1 11.5 7.1 11.75 7.15 12.05 7.15 12.3 7.15 12.6 7.15 12.85 7.1 13.05 7.1 13.3 7.05 13.5 7.05 13.7 7.0 13.9 6.95 14.1 6.9 14.35 6.85 14.55 6.8 14.75 6.75 14.95 6.65 15.1 6.6 15.3 6.5 15.5 6.45 15.7 6.35 15.9 6.25 16.05 6.15 16.3 6.0 16.55 5.85 16.8 5.7 17.05 5.55 17.3 5.4 17.5 5.2 17.75 5.05 17.95 4.85 18.15 4.65 18.3 4.45 18.5 4.25 18.7 4.05 18.85 3.85 19.0 3.6 19.15 3.4 19.3 3.15 19.45 2.9 19.6 2.65 19.7 2.4 19.85 2.15 19.95 1.9 20.05 1.6 20.15 1.35 20.2 1.1 20.3 0.85 20.35 0.55 20.4 0.3 20.45 0.05 20.45 -0.25 20.5 -0.5 20.5 -0.8 20.5 -1.05 20.5 -1.7 20.4 -2.15 20.4 -2.3 20.35 -2.45 20.35 -2.6 20.3 -2.75 20.3 -2.95 20.25 -3.1 20.2 -3.25 20.15 -3.4 20.1 -3.55 20.05 -3.7 20.0 -3.85 19.95 -4.0 19.9 -4.15 19.85 -4.3 19.75 -4.45 19.7 -4.6 L19.7 -4.6 M19.0 0.15 Q18.85 1.3 18.75 1.6 18.65 1.9 18.35 2.65 18.35 2.7 18.35 2.75 18.3 2.8 18.3 2.8 18.3 2.85 18.25 2.9 18.25 2.95 18.2 3.0 18.1 3.15 18.0 3.3 17.9 3.45 17.8 3.6 17.7 3.75 17.6 3.9 17.45 4.05 17.35 4.2 17.2 4.35 17.1 4.45 16.95 4.6 16.8 4.75 16.65 4.85 16.5 5.0 16.35 5.1 16.2 5.2 16.15 5.25 16.15 5.25 16.1 5.3 16.05 5.3 16.0 5.35 15.95 5.35 15.8 5.45 15.65 5.5 15.5 5.6 15.35 5.7 15.2 5.75 15.05 5.85 14.9 5.9 14.75 5.95 14.55 6.05 14.4 6.1 14.25 6.15 14.1 6.2 13.9 6.25 13.75 6.3 13.55 6.35 13.4 6.4 13.25 6.45 13.05 6.45 12.9 6.5 12.7 6.5 12.55 6.5 12.35 6.55 12.2 6.55 12.0 6.55 11.85 6.55 11.65 6.5 11.5 6.5 11.3 6.5 11.15 6.45 10.95 6.45 10.8 6.4 10.6 6.35 9.95 6.25 9.65 6.15 9.4 6.1 9.2 6.0 8.95 5.9 8.75 5.8 8.5 5.75 8.3 5.6 8.1 5.5 7.9 5.4 7.7 5.25 7.55 5.1 7.35 4.95 7.2 4.8 7.05 4.65 6.9 4.5 6.7 4.3 6.6 4.15 6.5 4.05 6.45 3.95 6.35 3.85 6.25 3.75 6.2 3.6 6.1 3.5 6.0 3.4 5.95 3.25 5.85 3.15 5.8 3.0 5.75 2.9 5.7 2.8 5.65 2.65 5.6 2.55 5.55 2.4 5.5 2.25 5.45 2.15 5.4 2.0 5.4 1.9 5.3 1.7 5.25 1.5 5.25 1.4 5.0 0.4 5.0 0.0 5.0 -0.1 5.0 -0.2 5.0 -0.3 5.0 -0.4 5.0 -0.55 5.0 -0.65 5.0 -0.75 5.05 -0.85 5.05 -0.95 5.05 -1.05 5.05 -1.15 5.05 -1.25 5.1 -1.35 5.1 -1.45 5.1 -1.55 5.15 -1.65 5.3 -2.35 5.35 -2.5 5.35 -2.6 5.4 -2.65 5.4 -2.75 5.45 -2.85 5.45 -2.9 5.5 -3.0 5.5 -3.1 5.55 -3.15 5.55 -3.25 5.6 -3.35 5.6 -3.4 5.65 -3.5 5.7 -3.55 5.7 -3.65 5.75 -3.75 5.8 -3.8 5.9 -4.05 6.0 -4.25 6.1 -4.45 6.25 -4.7 6.35 -4.9 6.5 -5.1 6.65 -5.3 6.8 -5.5 6.95 -5.7 7.1 -5.85 7.3 -6.05 7.45 -6.2 7.65 -6.4 7.85 -6.55 8.05 -6.7 8.3 -6.85 8.45 -6.95 8.6 -7.05 8.75 -7.15 8.95 -7.25 9.1 -7.35 9.25 -7.4 9.45 -7.5 9.6 -7.55 9.75 -7.6 9.95 -7.7 10.15 -7.75 10.3 -7.8 10.5 -7.85 10.7 -7.9 10.9 -7.9 11.05 -7.95 11.3 -8.0 11.6 -8.0 11.85 -8.05 12.1 -8.05 12.4 -8.05 12.65 -8.0 12.9 -8.0 13.15 -7.95 13.4 -7.9 13.65 -7.85 13.9 -7.8 14.15 -7.75 14.4 -7.65 14.65 -7.55 14.85 -7.45 15.1 -7.35 15.35 -7.25 15.55 -7.1 15.75 -7.0 15.95 -6.85 16.15 -6.75 16.35 -6.6 16.55 -6.45 16.7 -6.3 16.9 -6.15 17.05 -5.95 17.2 -5.8 17.35 -5.6 17.5 -5.45 17.65 -5.25 17.8 -5.1 17.9 -4.9 18.0 -4.75 18.1 -4.6 18.2 -4.4 18.25 -4.25 18.35 -4.1 18.45 -3.95 18.5 -3.8 18.55 -3.6 18.65 -3.45 18.7 -3.3 18.75 -3.1 18.8 -2.95 18.85 -2.75 18.85 -2.6 18.9 -2.45 18.95 -2.25 18.95 -2.2 18.95 -2.1 19.0 -2.05 19.0 -1.95 19.0 -1.9 19.0 -1.8 19.0 -1.75 19.0 -1.65 19.0 -1.6 19.05 -1.5 19.05 -1.45 19.05 -1.4 19.05 -1.3 19.05 -1.25 19.05 -1.15 19.05 -1.1 19.05 -1.0 19.0 -0.45 19.0 -0.1 19.0 0.15 L19.0 0.15" fill="#000000" fill-rule="evenodd" stroke="none"/>
  </g>
</svg>
