<?xml version="1.0" encoding="UTF-8" standalone="no"?>
<svg xmlns:xlink="http://www.w3.org/1999/xlink" height="144.0px" width="376.05px" xmlns="http://www.w3.org/2000/svg">
  <g transform="matrix(1.0, 0.0, 0.0, 1.0, 188.05, 72.0)">
    <path d="M103.55 61.1 Q103.3 60.95 101.3 59.9 100.0 59.2 99.15 58.8 99.05 58.75 99.0 58.7 98.9 58.65 98.85 58.6 98.8 58.5 98.8 58.45 98.75 58.4 98.75 58.3 98.7 58.25 98.7 58.15 98.7 58.1 98.7 58.0 98.7 57.95 98.7 57.85 98.7 57.75 98.7 57.7 98.55 46.75 98.4 37.6 98.25 29.65 98.2 27.6 98.2 27.45 98.2 27.3 98.2 27.15 98.25 27.05 98.25 26.95 98.3 26.85 98.35 26.75 98.4 26.65 98.45 26.6 98.55 26.55 98.65 26.5 98.75 26.45 98.85 26.45 99.0 26.45 99.15 26.45 99.3 26.45 99.5 26.45 99.7 26.45 99.9 26.45 100.15 26.5 100.35 26.5 100.55 26.5 100.75 26.5 100.95 26.5 101.15 26.5 101.35 26.45 101.55 26.45 101.75 26.45 102.0 26.45 102.2 26.45 102.4 26.4 102.6 26.4 102.75 26.4 102.85 26.4 103.0 26.4 103.1 26.4 103.15 26.45 103.25 26.5 103.3 26.5 103.4 26.55 103.45 26.65 103.45 26.7 103.5 26.8 103.55 26.9 103.55 27.0 103.55 27.1 103.6 27.25 103.6 27.4 103.55 29.8 103.55 38.95 103.55 46.2 103.55 61.1 L103.55 61.1" fill="#000000" fill-opacity="0.30980393" fill-rule="evenodd" stroke="none"/>
    <path d="M86.35 47.9 Q86.35 34.6 86.35 27.35 86.35 27.25 86.35 27.2 86.35 27.1 86.4 27.05 86.4 26.95 86.4 26.9 86.45 26.85 86.45 26.8 86.5 26.8 86.55 26.75 86.6 26.75 86.65 26.7 86.75 26.7 86.8 26.7 86.9 26.65 87.0 26.65 89.3 26.7 92.9 26.6 93.0 26.6 93.1 26.6 93.2 26.6 93.25 26.65 93.3 26.65 93.35 26.7 93.4 26.7 93.45 26.75 93.5 26.8 93.5 26.85 93.55 26.9 93.55 27.0 93.55 27.05 93.6 27.15 93.6 27.25 93.55 27.35 93.0 41.05 92.85 44.3 92.85 44.5 92.85 44.7 92.8 44.85 92.75 45.0 92.75 45.15 92.65 45.3 92.6 45.45 92.5 45.55 92.45 45.65 92.35 45.75 92.25 45.85 92.1 45.9 91.95 46.0 91.8 46.05 91.65 46.15 91.45 46.2 90.8 46.35 86.35 47.9 L86.35 47.9" fill="#000000" fill-opacity="0.14117648" fill-rule="evenodd" stroke="none"/>
    <path d="M85.1 47.4 Q84.75 47.3 84.45 47.2 84.15 47.1 83.9 46.95 83.65 46.8 83.5 46.6 83.3 46.45 83.1 46.2 82.95 46.0 82.85 45.75 82.75 45.5 82.7 45.25 82.6 44.95 82.6 44.65 82.55 44.3 82.55 43.95 82.55 42.2 82.3 30.35 82.3 30.05 82.25 29.45 82.25 28.85 82.25 28.55 82.25 28.45 82.25 28.3 82.2 28.2 82.2 28.05 82.2 28.15 82.1 27.8 82.1 27.7 82.05 27.6 82.05 27.45 82.05 27.35 82.05 27.25 82.05 27.15 82.1 27.05 82.15 27.0 82.2 26.95 82.35 26.9 82.5 26.85 82.65 26.8 82.75 26.75 82.9 26.75 83.05 26.7 83.2 26.7 83.35 26.7 83.55 26.7 83.7 26.7 83.85 26.7 84.0 26.7 84.2 26.7 84.4 26.75 84.5 26.75 84.7 26.75 84.8 26.75 84.85 26.75 84.9 26.75 84.95 26.8 85.0 26.8 85.05 26.85 85.05 26.85 85.1 26.9 85.1 26.95 85.1 27.0 85.1 27.05 85.1 27.1 85.1 27.15 85.1 27.2 85.1 27.25 85.1 27.35 85.1 27.35 85.1 33.85 85.1 47.4 L85.1 47.4" fill="#000000" fill-opacity="0.30980393" fill-rule="evenodd" stroke="none"/>
    <path d="M-17.55 62.8 Q-17.85 62.95 -18.1 63.05 -18.4 63.2 -18.65 63.35 -18.95 63.5 -19.25 63.6 -19.55 63.75 -19.8 63.85 -20.1 63.95 -20.35 64.1 -20.65 64.2 -20.95 64.3 -21.2 64.4 -21.5 64.5 -21.8 64.6 -22.1 64.65 -22.35 64.7 -22.5 64.75 -22.7 64.75 -22.8 64.7 -22.9 64.65 -22.95 64.55 -23.05 64.45 -23.05 64.35 -23.1 64.25 -23.1 64.1 -23.1 64.1 -23.15 63.8 -23.15 63.65 -23.15 63.55 -23.2 63.45 -23.25 63.35 -23.3 63.2 -23.35 63.1 -23.35 63.0 -23.35 62.95 -23.35 62.85 -23.3 62.8 -23.25 62.75 -23.2 62.7 -23.1 62.7 -23.05 62.65 -22.95 62.65 -22.85 62.65 -22.8 62.6 -22.7 62.6 -22.65 62.6 -22.5 62.6 -22.25 62.6 -21.9 62.55 -20.9 62.5 -21.3 62.5 -20.9 62.5 -20.65 62.45 -20.35 62.45 -20.05 62.45 -19.7 62.45 -19.45 62.45 -19.1 62.45 -18.8 62.5 -18.5 62.55 -18.2 62.65 -17.85 62.7 -17.55 62.8 L-17.55 62.8" fill="#000000" fill-opacity="0.30980393" fill-rule="evenodd" stroke="none"/>
    <path d="M-66.05 59.0 Q-66.3 59.55 -66.4 59.8 -66.55 60.15 -66.65 60.35 -66.8 60.6 -66.95 60.7 -67.1 60.85 -67.3 60.9 -67.45 60.9 -67.7 60.85 -67.9 60.8 -68.2 60.7 -68.5 60.55 -68.9 60.35 -69.2 60.2 -69.85 59.85 -69.6 59.7 -69.35 59.6 -69.15 59.5 -68.9 59.4 -68.65 59.3 -68.45 59.2 -68.2 59.15 -67.95 59.1 -67.75 59.05 -67.5 59.0 -67.3 59.0 -67.05 58.95 -66.8 58.95 -66.55 58.95 -66.3 58.95 -66.05 59.0 L-66.05 59.0" fill="#000000" fill-opacity="0.30980393" fill-rule="evenodd" stroke="none"/>
    <path d="M95.4 47.85 Q92.9 48.7 86.4 50.9 86.35 50.9 86.3 50.9 86.3 50.95 86.2 50.95 86.15 50.95 86.15 51.0 86.1 51.0 86.05 51.0 86.0 51.0 85.95 51.0 85.9 51.0 85.85 51.0 85.8 51.0 85.75 51.0 85.7 51.0 85.7 50.95 85.45 50.8 85.1 50.65 84.85 50.55 84.55 50.35 84.7 50.45 83.95 50.1 83.6 49.9 83.35 49.8 83.05 49.65 82.8 49.5 82.5 49.35 82.2 49.2 81.9 49.0 81.65 48.85 81.4 48.65 81.15 48.5 80.95 48.35 80.8 48.2 80.65 48.05 80.5 47.9 80.4 47.75 80.25 47.55 80.15 47.4 80.1 47.2 80.0 47.0 79.9 46.8 79.85 46.6 79.8 46.4 79.75 46.15 79.75 45.95 79.7 45.7 79.7 45.5 79.5 40.95 79.3 29.65 79.3 29.45 79.3 29.35 79.3 29.2 79.25 29.05 79.2 28.95 79.2 28.85 79.15 28.75 79.05 28.7 79.0 28.6 78.9 28.55 78.85 28.5 78.7 28.45 78.6 28.4 78.45 28.4 78.35 28.35 78.15 28.35 75.6 28.15 71.5 28.35 66.35 28.65 64.8 28.65 64.6 28.65 64.35 28.65 64.2 28.6 63.9 28.6 63.6 28.55 63.4 28.55 63.15 28.55 62.95 28.55 62.7 28.55 62.5 28.55 62.3 28.55 62.1 28.6 61.9 28.65 61.7 28.7 61.5 28.75 61.35 28.85 61.2 28.95 61.1 29.15 61.0 29.3 60.95 29.5 60.9 29.65 60.85 29.9 60.85 30.1 60.85 30.35 60.85 30.5 60.9 30.85 60.9 31.15 60.9 31.35 60.9 31.6 60.9 31.8 60.85 32.05 60.8 32.25 60.75 32.4 60.75 32.6 60.7 32.75 60.7 32.9 60.7 33.05 60.7 33.25 60.7 33.35 60.75 33.55 60.75 33.65 60.8 33.85 60.8 34.15 60.8 34.15 60.85 34.35 60.85 34.5 60.85 34.65 60.85 34.8 60.9 37.7 61.1 44.75 61.25 51.1 61.35 54.65 61.35 54.85 61.35 55.1 61.35 55.3 61.4 55.55 61.4 55.65 61.45 56.0 61.45 56.25 61.45 56.45 61.5 56.7 61.5 56.9 61.5 57.15 61.5 57.35 61.5 57.6 61.45 57.8 61.45 58.05 61.4 58.25 61.3 58.75 61.2 59.15 61.1 59.6 60.95 59.95 60.8 60.3 60.6 60.6 60.4 60.9 60.2 61.15 59.95 61.4 59.65 61.55 59.35 61.75 59.05 61.9 58.7 62.0 58.25 62.1 57.85 62.2 57.35 62.2 55.2 62.4 51.9 62.6 46.95 62.95 46.4 62.95 46.0 63.0 41.05 63.25 37.85 63.45 35.7 63.75 35.6 63.75 35.5 63.75 35.4 63.75 35.3 63.75 35.2 63.75 35.1 63.75 35.05 63.7 34.9 63.7 34.85 63.65 34.7 63.65 34.45 63.6 34.5 63.6 34.4 63.55 34.3 63.55 34.2 63.5 34.1 63.5 33.5 63.4 32.85 63.35 32.25 63.3 31.6 63.3 31.0 63.3 30.35 63.35 29.75 63.4 29.1 63.45 28.55 63.5 27.85 63.6 29.4 63.4 26.6 63.75 25.85 63.8 25.35 63.85 24.65 63.9 24.1 63.95 17.85 64.35 8.6 65.8 -7.15 68.35 -6.8 68.3 -7.8 68.45 -8.6 68.55 -9.55 68.65 -10.35 68.75 -11.3 68.9 -12.15 68.95 -13.1 69.05 -13.95 69.1 -14.85 69.15 -15.75 69.2 -16.65 69.25 -17.55 69.2 -18.45 69.2 -19.35 69.2 -20.25 69.15 -21.15 69.05 -22.55 68.9 -23.15 68.75 -23.45 68.7 -23.75 68.6 -24.0 68.5 -24.25 68.4 -24.5 68.25 -24.75 68.1 -24.95 67.95 -25.15 67.75 -25.35 67.55 -25.5 67.35 -25.65 67.1 -25.75 66.85 -25.9 66.6 -25.95 66.3 -26.05 66.0 -26.1 65.7 -26.1 65.5 -26.15 65.35 -26.2 65.25 -26.25 65.1 -26.3 65.0 -26.35 64.9 -26.4 64.85 -26.5 64.75 -26.6 64.7 -26.7 64.65 -26.8 64.65 -26.9 64.6 -27.0 64.6 -27.15 64.55 -27.3 64.55 -27.45 64.55 -30.1 64.55 -34.2 64.45 -39.95 64.35 -41.0 64.35 -41.9 64.35 -42.8 64.3 -43.65 64.25 -44.55 64.15 -45.45 64.1 -46.3 63.95 -47.2 63.85 -48.1 63.7 -48.95 63.6 -49.85 63.4 -50.7 63.25 -51.6 63.1 -52.45 62.9 -53.35 62.7 -54.2 62.5 -55.05 62.25 -56.2 61.95 -59.25 61.2 -60.1 60.95 -60.45 60.9 -61.05 60.75 -61.4 60.7 -61.85 60.6 -62.15 60.65 -62.45 60.65 -62.75 60.75 -63.0 60.85 -63.25 61.05 -63.5 61.25 -63.75 61.6 -64.0 61.85 -64.3 62.35 -64.55 62.7 -65.0 63.4 -65.2 63.7 -65.35 63.9 -65.55 64.15 -65.75 64.35 -65.95 64.5 -66.2 64.65 -66.4 64.8 -66.65 64.85 -66.85 64.95 -67.15 65.0 -67.4 65.05 -67.65 65.05 -67.95 65.1 -68.25 65.05 -68.55 65.05 -68.9 65.0 -83.7 62.85 -94.85 60.3 -99.05 59.3 -104.65 57.7 -103.1 58.15 -114.3 54.75 -114.4 54.7 -114.5 54.7 -114.6 54.65 -114.75 54.6 -114.85 54.55 -114.95 54.5 -115.05 54.45 -115.15 54.4 -115.25 54.35 -115.35 54.3 -115.45 54.25 -115.55 54.2 -115.65 54.15 -115.7 54.05 -115.8 54.0 -115.9 53.95 -116.05 53.8 -116.2 53.7 -116.35 53.55 -116.45 53.45 -116.55 53.3 -116.65 53.15 -116.8 53.0 -116.85 52.85 -116.95 52.7 -117.0 52.55 -117.05 52.35 -117.1 52.2 -117.1 52.0 -117.1 51.8 -117.1 51.55 -117.05 51.35 -116.95 50.85 -116.9 50.25 -116.85 49.75 -116.8 49.2 -116.8 48.65 -116.8 48.1 -116.8 47.6 -116.85 47.0 -116.85 46.55 -116.9 45.9 -116.75 48.25 -117.0 44.85 -117.0 44.2 -117.05 43.75 -117.05 43.15 -117.05 42.65 -117.05 42.3 -117.1 41.8 -117.1 41.55 -117.1 41.0 -117.15 40.45 -117.15 40.15 -117.2 39.7 -117.2 39.3 -117.2 38.85 -117.2 38.5 -117.2 38.05 -117.2 37.65 -117.15 37.2 -117.15 36.8 -117.1 36.35 -117.05 35.95 -116.95 35.45 -116.9 34.9 -116.85 34.4 -116.85 33.85 -116.8 33.3 -116.8 32.75 -116.8 32.25 -116.85 31.7 -116.85 31.2 -116.9 30.6 -116.9 30.4 -116.95 29.55 -116.95 28.9 -117.0 28.5 -117.0 27.9 -117.0 27.4 -117.5 4.5 -117.45 -4.25 -117.45 -4.9 -117.45 -5.6 -117.45 -6.3 -117.45 -6.95 -117.4 -7.65 -117.4 -8.35 -117.4 -9.0 -117.35 -9.7 -117.35 -10.35 -117.3 -11.05 -117.3 -11.7 -117.25 -12.4 -117.25 -13.05 -117.2 -13.75 -117.15 -14.4 -117.15 -15.1 -116.95 -18.35 -117.3 -26.3 -117.35 -26.9 -117.3 -27.5 -117.3 -28.05 -117.2 -28.65 -117.15 -29.2 -117.0 -29.75 -116.9 -30.3 -116.75 -30.85 -116.55 -31.35 -116.35 -31.85 -116.2 -32.35 -115.95 -32.9 -115.7 -33.4 -115.45 -33.9 -115.2 -34.4 -114.9 -34.9 -114.55 -35.55 -114.1 -36.15 -113.7 -36.7 -113.25 -37.3 -112.8 -37.8 -112.3 -38.35 -111.85 -38.85 -111.3 -39.35 -110.8 -39.8 -110.25 -40.3 -109.75 -40.75 -109.15 -41.25 -108.7 -41.6 -108.05 -42.1 -107.7 -42.4 -106.95 -43.0 -106.5 -43.35 -105.75 -43.9 -104.9 -44.6 -104.6 -44.8 -103.95 -45.35 -103.4 -45.75 -102.8 -46.2 -102.25 -46.65 -101.65 -47.15 -101.1 -47.6 -100.5 -48.1 -100.0 -48.55 -99.4 -49.05 -98.85 -49.55 -98.3 -50.1 -97.8 -50.6 -96.75 -51.65 -95.65 -52.55 -94.6 -53.45 -93.45 -54.2 -92.3 -54.95 -91.1 -55.5 -89.9 -56.1 -88.65 -56.55 -87.4 -57.0 -86.1 -57.3 -84.8 -57.6 -83.45 -57.75 -82.1 -57.9 -80.7 -57.95 -79.3 -57.95 -77.85 -57.8 -77.2 -57.75 -75.95 -57.7 -32.45 -57.6 1.35 -57.45 8.2 -57.4 12.35 -57.2 13.45 -57.15 18.45 -57.45 18.7 -57.45 18.95 -57.55 19.15 -57.6 19.4 -57.7 19.65 -57.75 19.9 -57.85 20.0 -57.95 20.35 -58.1 20.65 -58.25 20.8 -58.3 21.05 -58.4 21.3 -58.5 21.55 -58.6 21.75 -58.65 22.05 -58.7 22.3 -58.7 22.35 -58.7 22.4 -58.7 22.4 -58.7 22.45 -58.7 22.5 -58.7 22.55 -58.75 22.55 -58.75 22.65 -58.75 22.7 -58.75 22.75 -58.8 22.8 -58.8 22.85 -58.8 22.9 -58.8 22.9 -58.8 22.95 -58.8 23.0 -58.8 23.8 -58.65 24.65 -58.55 25.45 -58.5 26.25 -58.5 27.05 -58.5 27.85 -58.55 28.65 -58.6 29.45 -58.75 30.25 -58.85 31.05 -59.0 31.8 -59.15 32.65 -59.35 33.35 -59.55 34.2 -59.8 34.9 -60.0 35.75 -60.25 36.15 -60.35 36.5 -60.4 36.9 -60.45 37.25 -60.45 37.6 -60.4 37.95 -60.35 38.25 -60.25 38.6 -60.15 38.9 -60.0 39.2 -59.8 39.5 -59.65 39.75 -59.45 40.0 -59.2 40.3 -58.95 40.5 -58.7 40.75 -58.45 40.95 -58.25 41.05 -58.05 41.25 -57.9 41.4 -57.75 41.55 -57.6 41.7 -57.5 41.9 -57.35 42.05 -57.3 42.2 -57.2 42.4 -57.15 42.6 -57.1 42.8 -57.1 43.0 -57.05 43.2 -57.1 43.45 -57.1 43.7 -57.2 44.4 -57.4 46.45 -57.5 46.9 -57.5 47.35 -57.55 47.8 -57.6 48.2 -57.7 48.65 -57.8 49.05 -57.9 49.5 -58.0 49.9 -58.15 50.3 -58.3 50.7 -58.45 51.1 -58.65 51.45 -58.9 51.85 -59.1 52.25 -59.35 52.6 -59.65 53.0 -59.95 54.05 -60.85 55.25 -61.65 56.35 -62.45 57.55 -63.2 58.7 -63.85 59.95 -64.5 61.2 -65.05 62.45 -65.6 63.7 -66.1 65.05 -66.55 66.3 -67.0 67.65 -67.35 68.95 -67.75 70.3 -68.05 71.6 -68.35 73.05 -68.65 73.2 -68.7 73.3 -68.7 73.4 -68.75 73.5 -68.75 73.6 -68.8 73.7 -68.85 73.8 -68.9 73.9 -68.9 73.95 -69.0 74.05 -69.05 74.15 -69.1 74.25 -69.2 74.3 -69.25 74.4 -69.35 74.45 -69.45 74.55 -69.6 74.75 -69.9 75.0 -70.15 75.25 -70.45 75.55 -70.7 75.85 -70.95 76.2 -71.15 76.55 -71.35 76.95 -71.55 77.35 -71.7 77.7 -71.8 78.1 -71.95 78.5 -72.0 78.9 -72.0 79.25 -72.0 79.65 -71.95 80.0 -71.8 80.45 -71.6 80.85 -71.4 81.25 -71.2 81.65 -70.95 82.0 -70.7 82.3 -70.45 82.65 -70.15 82.9 -69.85 83.2 -69.5 83.4 -69.15 83.6 -68.8 83.75 -68.4 83.9 -68.0 84.0 -67.55 84.05 -67.15 84.1 -66.65 84.1 -66.4 84.15 -66.15 84.15 -65.9 84.2 -65.7 84.3 -65.5 84.35 -65.35 84.45 -65.2 84.55 -65.05 84.7 -64.9 84.85 -64.8 85.0 -64.65 85.15 -64.55 85.35 -64.45 85.55 -64.4 85.75 -64.3 86.0 -64.2 86.85 -63.9 87.7 -63.55 88.55 -63.25 89.35 -62.9 90.2 -62.5 91.0 -62.15 91.8 -61.75 92.6 -61.35 93.45 -60.95 94.2 -60.5 95.0 -60.05 95.8 -59.6 96.55 -59.15 97.35 -58.65 98.1 -58.15 98.85 -57.65 99.55 -57.15 101.3 -55.25 101.4 -55.15 101.5 -55.05 101.55 -55.0 101.65 -54.95 101.75 -54.85 101.85 -54.85 101.95 -54.8 102.05 -54.75 102.1 -54.75 102.2 -54.75 102.3 -54.75 102.4 -54.75 102.55 -54.75 102.65 -54.8 102.75 -54.85 102.85 -54.9 103.0 -54.95 103.2 -55.05 102.7 -54.8 103.55 -55.25 103.75 -55.35 103.9 -55.4 104.1 -55.5 104.25 -55.55 104.45 -55.6 104.6 -55.65 104.8 -55.65 105.0 -55.65 105.2 -55.65 105.4 -55.6 105.6 -55.55 105.8 -55.45 106.4 -55.2 106.4 -55.15 106.75 -55.0 107.0 -54.9 107.35 -54.75 107.6 -54.6 107.9 -54.4 108.15 -54.25 108.45 -54.05 108.7 -53.85 108.95 -53.65 109.2 -53.45 109.4 -53.2 109.6 -52.95 109.85 -52.65 110.0 -52.35 110.3 -51.9 110.75 -51.0 111.25 -50.05 111.5 -49.65 111.55 -49.6 111.55 -49.5 111.6 -49.45 111.6 -49.35 111.65 -49.3 111.65 -49.25 111.65 -49.15 111.65 -49.1 111.7 -49.0 111.65 -48.95 111.65 -48.9 111.65 -48.8 111.65 -48.75 111.6 -48.7 111.6 -48.6 111.55 -48.55 111.4 -48.35 111.35 -48.15 111.25 -48.0 111.2 -47.85 111.2 -47.7 111.2 -47.55 111.2 -47.4 111.3 -47.3 111.35 -47.2 111.45 -47.05 111.55 -46.95 111.65 -46.85 111.8 -46.8 111.95 -46.7 112.1 -46.6 112.3 -46.5 112.7 -46.3 113.05 -46.1 113.4 -45.9 113.75 -45.65 114.05 -45.4 114.4 -45.1 114.7 -44.85 115.0 -44.55 115.3 -44.3 115.6 -43.95 115.85 -43.7 116.2 -43.35 116.8 -42.7 116.8 -42.7 117.1 -42.35 117.35 -42.1 117.45 -42.0 117.55 -41.9 117.65 -41.8 117.7 -41.65 117.8 -41.55 117.85 -41.4 117.95 -41.3 118.0 -41.15 118.05 -41.05 118.1 -40.9 118.15 -40.75 118.15 -40.6 118.2 -40.5 118.2 -40.35 118.25 -40.2 118.25 -40.05 118.35 -38.75 118.45 -37.4 118.55 -36.1 118.65 -34.8 118.7 -33.5 118.75 -32.15 118.8 -30.85 118.85 -29.55 118.9 -28.25 118.9 -26.9 118.9 -25.6 118.9 -24.3 118.9 -22.95 118.9 -21.65 118.85 -20.35 118.8 -19.05 118.8 -18.4 118.75 -17.55 118.75 -17.15 118.75 -16.0 118.75 -15.05 118.75 -14.5 118.7 -13.65 118.7 -13.0 118.65 -12.2 118.6 -11.5 118.55 -10.7 118.45 -10.0 118.35 -9.2 118.2 -8.5 118.1 -7.75 117.9 -7.05 117.8 -6.75 117.8 -6.55 117.75 -6.3 117.75 -6.1 117.7 -5.9 117.75 -5.7 117.8 -5.5 117.85 -5.35 117.9 -5.2 118.0 -5.05 118.1 -4.9 118.25 -4.75 118.4 -4.65 118.6 -4.5 118.8 -4.4 119.0 -4.25 119.35 -4.1 119.65 -3.9 119.9 -3.65 120.15 -3.45 120.4 -3.2 120.55 -2.95 120.75 -2.7 120.9 -2.4 121.05 -2.1 121.15 -1.75 121.25 -1.45 121.35 -1.1 121.4 -0.8 121.45 -0.4 121.5 -0.05 121.5 0.3 121.75 5.4 121.45 19.25 120.8 46.0 120.25 55.45 120.25 55.6 120.25 55.75 120.2 55.95 120.2 56.1 120.2 56.25 120.2 56.4 120.15 56.6 120.15 56.75 120.15 56.9 120.1 57.05 120.1 57.2 120.1 57.4 120.05 57.55 120.05 57.7 120.05 57.85 120.0 58.05 119.95 58.35 119.9 58.6 119.85 58.85 119.75 59.1 119.65 59.35 119.55 59.55 119.4 59.75 119.25 59.95 119.1 60.15 118.9 60.3 118.7 60.45 118.5 60.55 118.3 60.7 118.05 60.8 117.8 60.9 117.55 60.95 115.35 61.55 111.4 62.95 107.25 64.4 105.3 65.0 105.2 65.05 105.1 65.05 105.0 65.05 104.9 65.1 104.8 65.1 104.7 65.1 104.6 65.1 104.5 65.1 104.4 65.1 104.3 65.05 104.25 65.05 104.15 65.0 104.05 65.0 103.95 64.95 103.85 64.9 103.8 64.85 103.45 64.6 103.05 64.35 102.7 64.15 102.3 63.95 101.95 63.75 101.55 63.5 101.2 63.3 100.75 63.1 100.45 62.95 100.0 62.7 99.3 62.4 99.2 62.35 98.75 62.1 98.45 61.95 98.0 61.75 97.65 61.55 97.4 61.4 97.15 61.25 96.9 61.05 96.7 60.9 96.5 60.7 96.35 60.5 96.15 60.3 96.0 60.05 95.85 59.85 95.75 59.6 95.65 59.35 95.55 59.1 95.5 58.85 95.45 58.55 95.4 58.25 95.4 57.95 95.4 57.2 95.4 52.95 95.4 49.85 95.4 47.85 L95.4 47.85 M56.85 -34.55 Q56.8 -34.5 56.7 -34.4 56.7 -34.4 56.75 -34.35 56.8 -34.4 56.8 -34.4 56.8 -34.45 56.85 -34.5 56.85 -34.5 56.85 -34.55 56.8 -34.25 56.8 -34.05 56.75 -33.8 56.75 -33.65 56.75 -33.45 56.8 -33.3 56.8 -33.15 56.9 -33.05 56.95 -32.95 57.05 -32.85 57.15 -32.8 57.3 -32.75 57.4 -32.7 57.6 -32.65 57.8 -32.6 58.0 -32.55 62.45 -32.05 68.9 -31.85 72.95 -31.6 75.45 -31.7 76.0 -31.6 76.1 -31.6 77.55 -31.6 79.0 -31.65 80.45 -31.65 81.85 -31.7 83.3 -31.75 84.75 -31.8 86.2 -31.9 87.6 -32.0 89.05 -32.1 90.5 -32.2 91.95 -32.3 93.35 -32.45 94.8 -32.6 96.2 -32.8 97.65 -32.95 99.1 -33.15 99.1 -33.15 99.8 -33.25 100.25 -33.3 100.55 -33.35 100.95 -33.4 101.3 -33.5 101.65 -33.55 102.0 -33.6 102.4 -33.7 102.7 -33.8 103.1 -33.9 103.4 -34.0 103.8 -34.1 104.1 -34.25 104.45 -34.4 104.8 -34.6 104.95 -34.55 105.05 -34.6 105.2 -34.6 105.3 -34.6 105.4 -34.65 105.55 -34.7 105.65 -34.75 105.8 -34.85 105.95 -34.9 106.05 -34.95 106.15 -35.0 106.3 -35.05 106.4 -35.05 106.55 -35.1 106.7 -35.1 106.85 -35.05 106.75 -34.85 106.65 -34.65 106.5 -34.5 106.35 -34.3 106.25 -34.15 106.05 -34.0 105.95 -33.85 105.75 -33.7 105.65 -33.6 105.45 -33.45 105.2 -33.25 105.1 -33.2 104.95 -33.05 104.8 -32.9 104.65 -32.75 104.5 -32.6 104.3 -32.5 104.1 -32.4 103.95 -32.3 103.75 -32.2 103.55 -32.1 103.35 -32.05 103.15 -31.95 102.9 -31.9 102.7 -31.8 102.5 -31.75 102.3 -31.7 102.1 -31.65 101.85 -31.6 101.65 -31.55 101.45 -31.5 101.2 -31.45 97.8 -30.9 92.45 -30.35 90.3 -30.15 88.15 -30.0 86.0 -29.85 83.85 -29.75 81.7 -29.7 79.55 -29.65 77.4 -29.6 75.25 -29.65 73.1 -29.65 70.95 -29.75 68.8 -29.8 66.65 -29.9 64.5 -30.05 62.35 -30.2 60.2 -30.35 58.05 -30.55 57.9 -30.55 57.8 -30.55 57.65 -30.55 57.6 -30.55 57.5 -30.55 57.45 -30.5 57.35 -30.5 57.35 -30.45 57.3 -30.4 57.3 -30.3 57.25 -30.25 57.25 -30.15 57.25 -30.1 57.25 -30.0 57.25 -29.9 57.25 -29.8 57.7 -24.2 57.75 -22.55 57.5 -28.15 58.4 -10.55 58.75 -3.45 58.8 1.45 58.8 1.55 58.8 1.65 58.8 1.75 58.85 1.8 58.85 1.9 58.9 1.95 58.9 2.0 58.95 2.05 59.0 2.1 59.05 2.15 59.1 2.15 59.2 2.15 59.25 2.2 59.35 2.15 59.45 2.15 59.6 2.15 60.25 2.05 60.9 1.95 61.55 1.9 62.2 1.8 62.85 1.75 63.55 1.7 64.15 1.65 64.85 1.6 65.5 1.55 66.15 1.55 66.8 1.5 67.5 1.5 68.1 1.5 68.8 1.5 69.45 1.5 70.15 1.5 95.75 1.45 100.3 1.45 100.8 1.45 101.15 1.45 101.6 1.45 102.0 1.4 102.45 1.4 102.85 1.35 103.3 1.35 103.7 1.3 104.15 1.25 104.55 1.2 105.0 1.15 105.4 1.05 105.85 1.0 106.25 0.9 106.65 0.8 107.05 0.65 107.6 0.55 108.1 0.45 108.6 0.3 109.05 0.1 109.55 -0.05 110.0 -0.3 110.45 -0.5 110.85 -0.8 111.25 -1.1 111.6 -1.4 111.95 -1.75 112.3 -2.15 112.65 -2.55 112.9 -3.0 113.2 -3.45 113.45 -3.95 113.65 -4.4 113.85 -4.85 114.0 -5.25 114.2 -5.7 114.35 -6.15 114.45 -6.6 114.6 -7.05 114.7 -7.5 114.8 -7.95 114.85 -8.45 114.95 -8.9 115.0 -9.35 115.05 -9.8 115.1 -10.3 115.1 -10.75 115.15 -11.2 115.35 -16.1 115.35 -23.6 115.25 -34.8 115.3 -36.0 115.3 -36.8 115.2 -37.5 115.15 -38.25 114.95 -38.9 114.8 -39.55 114.5 -40.1 114.25 -40.7 113.9 -41.2 113.55 -41.7 113.1 -42.15 112.7 -42.6 112.15 -43.0 111.65 -43.35 111.05 -43.7 110.45 -44.05 109.8 -44.3 108.0 -45.1 107.55 -45.25 107.35 -45.3 107.1 -45.35 106.9 -45.4 106.7 -45.4 106.45 -45.4 106.25 -45.4 106.05 -45.4 105.85 -45.35 105.6 -45.35 105.4 -45.25 105.2 -45.2 105.0 -45.1 104.8 -45.05 104.6 -44.9 104.45 -44.8 104.25 -44.6 103.35 -43.8 102.4 -43.05 101.45 -42.35 100.45 -41.7 99.45 -41.0 98.45 -40.4 97.45 -39.8 96.4 -39.25 95.35 -38.7 94.25 -38.25 93.2 -37.75 92.1 -37.35 91.0 -36.9 89.85 -36.55 88.7 -36.2 87.55 -35.9 86.15 -35.5 84.7 -35.25 83.25 -34.95 81.8 -34.75 80.4 -34.6 78.9 -34.45 77.5 -34.35 76.0 -34.35 74.6 -34.3 73.1 -34.35 71.7 -34.35 70.2 -34.45 68.8 -34.55 67.3 -34.7 65.9 -34.85 64.35 -35.0 63.95 -35.05 63.8 -35.05 63.5 -35.1 63.25 -35.15 62.95 -35.15 62.7 -35.15 62.4 -35.15 62.15 -35.1 61.9 -35.1 61.65 -35.05 61.35 -34.95 61.15 -34.85 60.9 -34.75 60.65 -34.6 60.4 -34.4 60.15 -34.2 60.0 -34.15 59.75 -34.1 59.45 -34.05 59.3 -34.0 59.05 -33.95 58.9 -33.95 58.65 -33.9 58.45 -33.9 58.25 -33.9 58.05 -33.95 57.85 -33.95 57.65 -34.05 57.45 -34.1 57.25 -34.25 57.05 -34.35 56.85 -34.55 L56.85 -34.55 M44.95 -52.55 Q45.6 -51.85 46.25 -51.2 46.9 -50.5 47.5 -49.8 48.1 -49.1 48.65 -48.35 49.25 -47.65 49.8 -46.9 50.35 -46.15 50.85 -45.35 51.4 -44.6 51.85 -43.8 52.35 -43.0 52.8 -42.15 53.25 -41.3 53.65 -40.45 53.85 -40.1 54.2 -39.6 54.65 -38.9 54.75 -38.75 54.8 -38.65 54.8 -38.6 54.8 -38.55 54.85 -38.5 54.85 -38.4 54.9 -38.35 54.9 -38.3 54.95 -38.2 55.0 -38.15 55.0 -38.1 55.05 -38.05 55.1 -38.0 55.15 -37.95 55.25 -37.9 55.3 -37.85 55.4 -37.8 55.45 -38.0 55.5 -38.15 55.55 -38.35 55.6 -38.55 55.65 -38.7 55.7 -38.9 55.75 -39.05 55.85 -39.2 55.9 -39.4 56.0 -39.55 56.1 -39.7 56.2 -39.85 56.3 -40.0 56.4 -40.1 56.55 -40.25 56.7 -40.35 56.8 -40.45 56.9 -40.55 56.95 -40.6 57.0 -40.7 57.05 -40.75 57.1 -40.85 57.1 -40.95 57.1 -41.0 57.1 -41.1 57.05 -41.15 57.05 -41.25 57.0 -41.35 56.95 -41.4 56.9 -41.5 56.85 -41.6 56.8 -41.7 56.55 -42.05 56.25 -42.5 56.1 -42.7 55.7 -43.3 55.35 -43.8 55.15 -44.1 54.85 -44.55 54.65 -44.9 54.35 -45.3 54.1 -45.7 53.85 -46.1 53.6 -46.5 53.35 -46.95 53.1 -47.35 52.9 -47.75 52.65 -48.2 52.45 -48.6 52.2 -48.95 52.0 -49.3 51.7 -49.7 51.45 -50.0 51.15 -50.4 51.15 -50.35 50.55 -51.05 50.2 -51.45 50.0 -51.75 49.7 -52.1 49.5 -52.45 49.2 -52.85 49.0 -53.2 48.8 -53.6 48.6 -54.0 48.6 -54.05 48.55 -54.1 48.55 -54.1 48.5 -54.15 48.5 -54.2 48.45 -54.2 48.45 -54.2 48.4 -54.25 48.4 -54.25 48.35 -54.25 48.3 -54.25 48.25 -54.25 48.25 -54.25 48.2 -54.25 48.15 -54.25 48.1 -54.25 46.25 -54.05 43.75 -53.75 44.25 -53.15 44.65 -52.8 44.7 -52.75 44.95 -52.55 L44.95 -52.55 M58.3 -36.0 Q58.45 -35.95 58.6 -35.95 58.75 -35.95 58.9 -35.95 59.0 -36.0 59.15 -36.0 59.25 -36.05 59.4 -36.1 59.5 -36.15 59.65 -36.2 59.75 -36.3 59.85 -36.35 60.0 -36.45 60.1 -36.55 60.2 -36.6 60.3 -36.7 60.4 -36.85 60.55 -36.95 60.65 -37.05 60.8 -37.15 60.9 -37.25 61.05 -37.3 61.2 -37.35 61.35 -37.4 61.45 -37.45 61.6 -37.45 61.75 -37.45 61.9 -37.45 62.05 -37.45 62.2 -37.4 62.4 -37.4 62.55 -37.3 62.65 -37.3 62.8 -37.25 62.95 -37.2 63.05 -37.2 64.3 -37.0 65.55 -36.9 66.85 -36.75 68.05 -36.65 69.35 -36.55 70.55 -36.45 71.85 -36.4 73.1 -36.4 74.35 -36.35 75.6 -36.4 76.85 -36.4 78.1 -36.5 79.35 -36.55 80.6 -36.7 81.9 -36.8 83.15 -37.0 84.3 -37.15 85.45 -37.4 86.55 -37.65 87.65 -37.95 88.75 -38.25 89.85 -38.65 90.9 -39.0 91.95 -39.45 93.0 -39.85 94.05 -40.35 95.1 -40.85 96.1 -41.45 97.1 -42.0 98.1 -42.6 99.05 -43.2 100.0 -43.9 100.15 -44.0 100.45 -44.15 100.7 -44.35 100.85 -44.45 101.1 -44.6 101.25 -44.7 101.5 -44.85 101.65 -45.0 101.9 -45.15 102.05 -45.3 102.25 -45.5 102.4 -45.65 102.55 -45.85 102.7 -46.05 102.85 -46.3 102.95 -46.55 103.0 -46.65 103.05 -46.7 103.1 -46.75 103.15 -46.8 103.2 -46.85 103.25 -46.9 103.3 -46.95 103.4 -46.95 103.45 -47.0 103.5 -47.0 103.6 -47.05 103.65 -47.05 103.75 -47.1 103.8 -47.1 103.9 -47.1 104.0 -47.1 104.05 -47.1 104.15 -47.1 104.25 -47.1 104.35 -47.1 104.35 -47.1 104.5 -47.1 104.6 -47.1 104.65 -47.1 104.75 -47.1 104.85 -47.1 104.9 -47.1 105.0 -47.15 105.1 -47.15 105.15 -47.2 105.25 -47.25 105.3 -47.3 105.5 -47.3 105.65 -47.35 105.85 -47.35 106.0 -47.4 106.2 -47.4 106.35 -47.45 106.5 -47.5 106.65 -47.55 106.85 -47.6 107.0 -47.7 107.15 -47.75 107.3 -47.85 107.45 -47.95 107.6 -48.05 107.75 -48.15 107.85 -48.3 107.95 -48.35 108.0 -48.4 108.1 -48.45 108.15 -48.55 108.2 -48.6 108.25 -48.65 108.25 -48.7 108.3 -48.8 108.3 -48.85 108.3 -48.95 108.3 -49.0 108.3 -49.1 108.25 -49.15 108.25 -49.25 108.2 -49.35 108.1 -49.4 107.9 -49.95 107.65 -50.4 107.4 -50.85 107.1 -51.15 106.75 -51.5 106.45 -51.7 106.1 -51.95 105.7 -52.05 105.35 -52.15 104.95 -52.1 104.55 -52.1 104.15 -51.95 103.75 -51.8 103.35 -51.55 102.95 -51.25 102.55 -50.85 102.5 -50.8 102.4 -50.75 102.35 -50.65 102.25 -50.65 102.2 -50.6 102.1 -50.55 102.05 -50.5 101.95 -50.5 101.85 -50.5 101.8 -50.45 101.7 -50.45 101.65 -50.45 101.55 -50.45 101.45 -50.45 101.4 -50.45 101.3 -50.45 100.5 -51.65 99.5 -52.75 98.55 -53.8 97.5 -54.7 96.45 -55.55 95.3 -56.35 94.2 -57.05 92.95 -57.7 91.85 -58.3 90.5 -58.9 89.35 -59.4 88.0 -59.95 86.9 -60.35 85.4 -60.9 94.75 -57.55 82.8 -61.8 80.4 -62.6 79.75 -62.8 79.45 -62.9 79.55 -62.85 79.45 -62.9 79.4 -62.9 79.3 -62.95 79.25 -62.95 79.15 -63.0 79.1 -63.05 79.0 -63.05 78.95 -63.1 78.9 -63.15 78.85 -63.25 78.8 -63.3 78.75 -63.35 78.7 -63.45 78.65 -63.55 78.6 -63.65 78.6 -63.75 78.6 -63.85 78.6 -63.95 78.6 -64.05 78.65 -64.15 78.7 -64.2 78.75 -64.3 78.75 -64.35 78.85 -64.45 78.9 -64.5 78.95 -64.55 79.0 -64.65 79.1 -64.7 79.2 -64.75 79.25 -64.8 79.35 -64.8 79.45 -64.8 79.5 -64.8 79.65 -64.8 79.7 -64.8 79.85 -64.75 79.95 -64.75 80.0 -64.75 80.15 -64.7 80.2 -64.7 80.3 -64.7 80.4 -64.75 80.45 -64.75 80.55 -64.8 80.65 -64.85 80.7 -64.9 80.85 -65.05 80.9 -65.3 81.0 -65.55 81.0 -65.8 81.0 -66.1 80.95 -66.35 80.9 -66.65 80.75 -66.9 80.65 -67.2 80.5 -67.45 80.35 -67.7 80.15 -67.9 79.95 -68.1 79.75 -68.25 79.55 -68.35 79.3 -68.4 79.2 -68.45 79.1 -68.5 79.0 -68.55 78.9 -68.55 78.8 -68.6 78.7 -68.6 78.6 -68.6 78.5 -68.55 78.4 -68.55 78.3 -68.55 78.2 -68.5 78.1 -68.5 78.05 -68.45 77.9 -68.45 77.8 -68.4 77.75 -68.4 77.65 -68.35 77.6 -68.35 77.5 -68.3 77.45 -68.25 77.4 -68.25 77.35 -68.2 77.3 -68.15 77.25 -68.1 77.2 -68.05 77.2 -68.0 77.2 -67.9 77.2 -67.85 77.2 -67.8 77.2 -67.7 77.2 -67.6 77.25 -67.55 77.35 -67.3 77.4 -67.1 77.45 -66.9 77.45 -66.7 77.45 -66.55 77.4 -66.4 77.35 -66.3 77.25 -66.2 77.2 -66.1 77.05 -66.0 76.9 -65.95 76.75 -65.9 76.6 -65.85 76.4 -65.8 76.25 -65.75 76.0 -65.7 74.15 -65.4 72.5 -65.1 70.65 -64.7 69.05 -64.3 67.25 -63.85 65.65 -63.3 63.95 -62.75 62.4 -62.05 60.75 -61.35 59.25 -60.55 57.7 -59.7 56.25 -58.7 54.8 -57.65 53.45 -56.5 52.05 -55.25 50.8 -53.85 50.9 -53.75 51.0 -53.65 51.1 -53.6 51.25 -53.5 51.6 -53.25 51.5 -53.35 51.6 -53.25 51.7 -53.15 51.85 -53.05 51.95 -53.0 52.05 -52.85 52.15 -52.75 52.25 -52.65 52.35 -52.5 52.45 -52.4 52.55 -52.25 52.95 -51.5 53.4 -50.8 53.8 -50.05 54.2 -49.3 54.65 -48.6 55.1 -47.9 55.55 -47.15 56.0 -46.45 56.45 -45.75 56.9 -45.05 57.35 -44.35 57.85 -43.65 58.3 -42.95 58.8 -42.25 59.25 -41.6 59.75 -40.9 59.75 -40.85 59.85 -40.65 59.95 -40.55 60.0 -40.45 60.05 -40.35 60.15 -40.25 60.2 -40.15 60.25 -40.05 60.3 -39.95 60.35 -39.85 60.35 -39.75 60.4 -39.65 60.4 -39.55 60.4 -39.45 60.4 -39.35 60.35 -39.25 60.3 -39.15 60.25 -39.05 60.2 -38.95 60.1 -38.85 60.0 -38.75 59.9 -38.7 59.85 -38.6 59.75 -38.6 59.65 -38.55 59.55 -38.55 59.45 -38.5 59.35 -38.55 59.3 -38.55 59.2 -38.55 59.1 -38.6 59.0 -38.65 58.95 -38.7 58.85 -38.75 58.75 -38.85 58.7 -38.95 58.65 -39.0 58.6 -39.05 58.55 -39.05 58.55 -39.1 58.5 -39.1 58.45 -39.1 58.4 -39.1 58.35 -39.1 58.35 -39.1 58.3 -39.1 58.25 -39.1 58.25 -39.05 58.2 -39.05 58.15 -39.0 58.1 -39.0 58.05 -38.95 57.85 -38.8 57.7 -38.65 57.6 -38.45 57.5 -38.25 57.4 -38.05 57.35 -37.85 57.35 -37.65 57.35 -37.45 57.4 -37.2 57.45 -37.0 57.5 -36.8 57.65 -36.6 57.75 -36.45 57.95 -36.25 58.1 -36.1 58.3 -36.0 L58.3 -36.0 M33.8 -56.15 Q33.25 -56.0 32.75 -55.9 32.25 -55.75 31.75 -55.65 31.2 -55.55 30.7 -55.45 30.2 -55.35 29.65 -55.3 29.15 -55.25 28.65 -55.2 28.1 -55.1 27.6 -55.1 27.05 -55.05 26.5 -55.05 26.0 -55.05 25.45 -55.1 22.8 -55.3 21.7 -55.15 21.45 -55.1 21.25 -55.05 21.05 -55.05 20.95 -54.95 20.8 -54.9 20.7 -54.85 20.6 -54.75 20.55 -54.7 20.5 -54.6 20.45 -54.45 20.45 -54.35 20.45 -54.2 20.5 -54.05 20.55 -53.85 20.6 -53.65 20.65 -53.45 20.8 -53.05 20.95 -52.65 21.15 -52.25 21.35 -51.85 21.5 -51.45 21.7 -51.05 21.9 -50.7 22.15 -50.3 22.35 -49.95 22.6 -49.55 22.8 -49.2 23.05 -48.8 23.25 -48.5 23.55 -48.1 23.75 -47.8 24.0 -47.4 24.65 -46.5 25.25 -45.55 25.9 -44.6 26.5 -43.7 27.1 -42.75 27.7 -41.8 28.3 -40.85 28.9 -39.9 29.5 -38.95 30.05 -38.0 30.65 -37.05 31.2 -36.1 31.8 -35.15 32.35 -34.15 32.9 -33.2 33.45 -32.2 33.6 -31.9 33.75 -31.65 33.9 -31.35 34.05 -31.05 34.15 -30.75 34.25 -30.45 34.35 -30.15 34.45 -29.85 34.55 -29.55 34.6 -29.25 34.7 -28.9 34.75 -28.6 34.8 -28.3 34.8 -27.95 34.85 -27.65 34.85 -27.3 35.05 -23.8 35.05 -18.5 35.1 -7.6 35.15 9.3 35.2 33.6 35.2 37.1 35.2 37.4 35.3 59.0 35.3 59.1 35.3 59.2 35.25 59.5 35.3 59.4 35.25 59.55 35.25 59.6 35.3 59.75 35.3 59.8 35.3 59.9 35.35 59.95 35.45 60.05 35.5 60.05 35.6 60.1 35.75 60.15 35.9 60.15 36.1 60.15 46.1 59.45 56.9 58.8 57.1 58.8 57.2 58.75 57.35 58.75 57.5 58.7 57.6 58.65 57.65 58.6 57.75 58.55 57.8 58.45 57.85 58.35 57.9 58.25 57.95 58.15 57.95 58.05 57.95 57.9 57.95 57.75 58.0 57.65 57.95 57.45 57.85 51.9 57.65 40.2 57.45 28.85 57.35 22.95 56.8 -3.25 56.3 -12.6 55.8 -22.35 55.45 -27.35 55.4 -27.75 55.4 -28.3 55.4 -28.45 55.35 -29.3 55.35 -29.85 55.35 -30.25 55.3 -30.75 55.25 -31.2 55.2 -31.7 55.15 -32.15 55.1 -32.65 54.95 -33.1 54.85 -33.55 54.7 -34.0 54.55 -34.45 54.35 -34.9 51.25 -41.1 53.45 -36.65 52.95 -37.7 52.6 -38.45 52.1 -39.4 51.65 -40.2 51.15 -41.1 50.7 -41.9 50.2 -42.8 49.7 -43.6 49.15 -44.45 48.6 -45.25 48.0 -46.05 47.4 -46.8 46.75 -47.6 46.1 -48.3 44.95 -49.55 42.4 -52.2 39.95 -54.7 38.7 -56.1 38.6 -56.25 38.45 -56.35 38.35 -56.45 38.2 -56.55 38.1 -56.6 37.95 -56.7 37.85 -56.75 37.7 -56.8 37.6 -56.85 37.45 -56.9 37.3 -56.95 37.2 -56.95 37.05 -56.95 36.9 -56.95 36.75 -56.95 36.6 -56.9 36.45 -56.9 36.25 -56.85 36.0 -56.8 35.9 -56.8 35.7 -56.75 35.5 -56.7 35.35 -56.7 35.15 -56.65 35.0 -56.6 34.8 -56.55 34.65 -56.5 34.45 -56.45 34.3 -56.4 34.15 -56.35 33.95 -56.25 33.8 -56.15 L33.8 -56.15 M-6.35 64.7 Q-0.05 63.8 0.25 63.7 2.2 63.35 4.15 63.0 6.15 62.65 8.1 62.35 10.1 62.05 12.05 61.75 14.0 61.5 15.95 61.25 17.95 61.0 19.9 60.8 21.9 60.6 23.85 60.45 25.85 60.3 27.85 60.15 29.85 60.0 31.8 59.95 32.05 59.95 32.25 59.9 32.45 59.85 32.6 59.8 32.75 59.75 32.85 59.7 33.0 59.6 33.05 59.5 33.15 59.4 33.2 59.3 33.25 59.15 33.3 59.0 33.3 58.85 33.35 58.65 33.35 58.45 33.35 58.2 33.3 45.95 33.15 -1.8 33.05 -19.95 33.05 -24.9 33.05 -25.45 33.0 -25.95 33.0 -26.5 32.95 -27.0 32.85 -27.55 32.75 -28.05 32.65 -28.55 32.55 -29.05 32.4 -29.55 32.25 -30.0 32.05 -30.5 31.85 -31.0 31.65 -31.45 31.4 -31.9 31.15 -32.4 30.9 -32.85 32.8 -29.8 26.85 -39.4 24.45 -43.3 22.65 -45.9 22.25 -46.45 22.1 -46.7 21.8 -47.15 21.55 -47.5 21.25 -47.9 21.05 -48.3 20.75 -48.7 20.55 -49.1 20.25 -49.55 20.05 -49.95 19.8 -50.4 19.6 -50.8 19.4 -51.25 19.25 -51.7 19.05 -52.15 18.9 -52.6 18.85 -52.8 18.75 -52.95 18.7 -53.1 18.65 -53.25 18.55 -53.35 18.45 -53.45 18.4 -53.55 18.3 -53.6 18.2 -53.7 18.05 -53.75 17.95 -53.8 17.8 -53.8 17.65 -53.85 17.5 -53.85 17.35 -53.85 17.15 -53.85 -22.8 -54.0 -36.0 -54.1 -39.85 -54.15 -58.6 -54.1 -72.45 -54.05 -81.25 -54.3 -82.15 -54.3 -83.0 -54.3 -83.9 -54.25 -84.75 -54.15 -85.6 -54.0 -86.45 -53.85 -87.3 -53.65 -88.1 -53.35 -88.9 -53.1 -89.65 -52.75 -90.45 -52.4 -91.2 -51.95 -91.95 -51.5 -92.65 -51.0 -93.4 -50.45 -94.05 -49.8 -94.8 -49.1 -95.6 -48.35 -96.4 -47.65 -97.2 -46.95 -98.0 -46.25 -98.8 -45.55 -99.6 -44.9 -100.45 -44.2 -101.25 -43.55 -102.05 -42.85 -102.9 -42.2 -103.7 -41.55 -104.55 -40.9 -105.4 -40.25 -106.25 -39.6 -107.1 -38.95 -107.25 -38.85 -109.4 -36.95 -109.65 -36.7 -109.9 -36.45 -110.15 -36.25 -110.35 -35.95 -110.6 -35.7 -110.8 -35.45 -111.0 -35.15 -111.15 -34.85 -111.35 -34.6 -111.5 -34.3 -111.65 -34.0 -111.8 -33.65 -111.95 -33.35 -112.1 -33.05 -112.2 -32.7 -112.3 -32.35 -112.45 -31.95 -112.5 -31.5 -112.6 -31.1 -112.6 -30.7 -112.65 -30.3 -112.6 -29.9 -112.55 -29.55 -112.45 -29.15 -112.35 -28.8 -112.15 -28.45 -112.0 -28.1 -111.8 -27.75 -111.55 -27.4 -111.25 -27.1 -111.0 -26.8 -110.65 -26.5 -110.5 -26.35 -110.3 -26.2 -110.1 -26.1 -109.9 -25.95 -109.75 -25.8 -109.55 -25.7 -109.35 -25.6 -109.15 -25.45 -109.0 -25.35 -108.75 -25.25 -108.4 -25.05 -108.35 -25.0 -108.15 -24.85 -107.95 -24.75 -107.75 -24.65 -107.6 -24.55 -108.05 -24.65 -108.45 -24.75 -108.9 -24.85 -109.3 -24.95 -109.7 -25.1 -110.1 -25.25 -110.5 -25.4 -110.9 -25.55 -111.3 -25.75 -111.65 -26.0 -112.05 -26.2 -112.4 -26.5 -112.75 -26.75 -113.1 -27.05 -113.5 -27.4 -113.8 -27.75 -113.85 -19.6 -113.8 -9.9 -113.8 35.7 -113.55 50.45 -113.55 50.6 -113.55 50.75 -113.5 50.9 -113.5 51.0 -113.45 51.15 -113.4 51.2 -113.35 51.3 -113.3 51.4 -113.25 51.5 -113.15 51.55 -113.1 51.6 -113.0 51.7 -112.9 51.75 -112.75 51.8 -112.65 51.85 -112.5 51.85 -111.2 52.2 -105.9 53.8 -101.85 55.0 -99.3 55.7 -98.25 56.0 -97.2 56.3 -96.1 56.55 -95.05 56.8 -94.0 57.1 -92.9 57.35 -91.85 57.6 -90.8 57.8 -89.7 58.05 -88.65 58.25 -87.55 58.45 -86.5 58.65 -85.4 58.85 -84.35 59.05 -83.25 59.25 -82.15 59.4 -78.45 60.2 -71.9 61.05 -72.1 60.85 -72.25 60.6 -72.4 60.4 -72.5 60.15 -72.6 59.9 -72.65 59.7 -72.75 59.45 -72.75 59.25 -72.8 59.0 -72.8 58.75 -72.8 58.55 -72.8 58.3 -72.8 58.1 -72.75 57.85 -72.75 57.65 -72.7 57.35 -72.7 57.2 -72.55 55.8 -72.45 54.4 -72.3 53.1 -72.15 51.75 -72.0 50.45 -71.85 49.05 -71.7 47.75 -71.5 46.4 -71.25 45.1 -71.05 43.75 -70.8 42.45 -70.55 41.1 -70.25 39.8 -69.95 38.45 -69.6 37.2 -69.25 35.85 -68.85 34.6 -71.25 42.45 -65.95 25.35 -64.25 19.95 -63.35 16.05 -62.3 11.45 -60.75 1.65 -60.75 1.6 -60.75 1.5 -60.75 1.5 -60.75 1.35 -60.75 1.25 -60.75 1.2 -60.75 1.1 -60.75 1.05 -60.75 1.0 -60.7 0.9 -60.65 0.85 -60.6 0.8 -60.55 0.75 -60.45 0.75 -60.35 0.7 -60.2 0.75 -60.2 1.25 -60.2 1.8 -60.15 2.25 -60.15 2.85 -60.1 3.2 -60.05 3.9 -60.0 4.6 -60.0 4.95 -59.95 5.55 -59.95 6.0 -59.9 6.55 -59.9 7.05 -59.9 7.6 -59.95 8.1 -60.0 8.65 -60.05 9.15 -60.15 10.05 -60.3 10.95 -60.45 11.85 -60.65 12.8 -60.8 13.7 -61.0 14.6 -61.15 15.5 -61.4 16.4 -61.6 17.25 -61.8 18.2 -62.05 19.05 -62.3 19.95 -62.55 20.85 -62.8 21.75 -63.05 22.6 -63.3 23.5 -63.7 24.8 -64.3 26.65 -65.6 30.8 -65.3 29.85 -65.9 31.65 -66.3 33.0 -66.85 34.7 -67.25 36.2 -67.75 37.85 -68.1 39.4 -68.55 41.05 -68.85 42.65 -69.25 44.3 -69.5 45.9 -69.75 47.6 -69.9 49.25 -70.35 53.55 -70.8 57.95 -70.1 57.65 -69.35 57.4 -68.65 57.2 -67.9 57.05 -67.2 56.95 -66.5 56.9 -65.8 56.85 -65.05 56.85 -64.35 56.85 -63.65 56.95 -62.95 57.0 -62.2 57.1 -61.55 57.25 -60.8 57.4 -60.15 57.5 -59.4 57.7 -58.75 57.85 -57.9 58.1 -57.45 58.2 -56.35 58.5 -55.4 58.75 -54.85 58.85 -54.05 59.1 -53.35 59.25 -52.55 59.45 -51.85 59.6 -51.05 59.8 -50.3 59.95 -49.5 60.1 -48.75 60.2 -48.0 60.35 -47.25 60.45 -46.05 60.6 -44.8 60.7 -43.6 60.8 -42.35 60.9 -41.15 60.95 -39.85 61.0 -38.7 61.0 -37.4 61.05 -36.25 61.05 -34.95 61.05 -33.9 61.05 -32.5 61.0 -32.55 61.0 -30.05 61.0 -28.55 60.95 -27.55 60.95 -27.05 60.95 -26.45 60.9 -25.95 60.9 -25.35 60.85 -24.85 60.8 -24.2 60.75 -22.55 60.55 -23.1 60.6 -22.45 60.55 -22.0 60.5 -21.4 60.45 -20.9 60.45 -20.3 60.4 -19.75 60.4 -19.2 60.4 -18.65 60.45 -18.4 60.45 -18.25 60.45 -18.1 60.5 -17.95 60.45 -17.85 60.45 -17.75 60.4 -17.65 60.4 -17.6 60.3 -17.55 60.25 -17.55 60.15 -17.5 60.05 -17.55 59.9 -17.55 59.8 -17.6 59.6 -17.6 59.45 -17.7 59.25 -21.9 45.1 -23.3 37.9 -24.9 29.65 -26.15 19.0 -26.75 13.85 -28.1 0.0 -28.1 -0.05 -28.1 -0.05 -28.1 -0.1 -28.1 -0.15 -28.05 -0.15 -28.05 -0.2 -28.05 -0.2 -28.0 -0.25 -28.0 -0.25 -27.95 -0.25 -27.95 -0.3 -27.9 -0.3 -27.9 -0.3 -27.85 -0.3 -27.8 -0.3 -27.75 -0.3 -27.7 -0.25 -27.65 -0.15 -27.6 -0.1 -27.55 0.0 -27.55 0.05 -27.5 0.15 -27.5 0.2 -27.5 0.3 -27.45 0.35 -27.45 0.45 -27.4 0.6 -27.4 0.65 -27.4 0.75 -27.35 0.8 -27.35 0.9 -27.3 0.95 -27.3 1.0 -27.25 1.2 -27.25 1.4 -27.25 1.45 -26.95 2.6 -26.7 3.75 -26.45 4.85 -26.2 6.0 -25.95 7.15 -25.7 8.3 -25.5 9.45 -25.3 10.6 -25.1 11.75 -24.9 12.95 -24.75 14.1 -24.55 15.25 -24.4 16.4 -24.25 17.55 -24.15 18.7 -24.0 19.9 -23.85 21.45 -23.65 22.85 -23.5 24.35 -23.3 25.8 -23.1 27.3 -22.9 28.75 -22.7 30.25 -22.45 31.7 -22.2 33.2 -21.95 34.6 -21.7 36.1 -21.4 37.55 -21.1 39.0 -20.75 40.45 -20.45 41.9 -20.05 43.35 -18.45 49.75 -15.1 61.1 -15.0 61.45 -14.95 61.8 -14.85 62.1 -14.85 62.35 -14.85 62.65 -14.9 62.9 -14.9 63.1 -15.0 63.35 -15.1 63.55 -15.25 63.75 -15.4 63.9 -15.6 64.1 -15.8 64.25 -16.05 64.4 -16.35 64.6 -16.65 64.75 -16.95 64.9 -17.5 65.1 -18.05 65.35 -18.3 65.5 -17.5 65.5 -16.8 65.5 -16.0 65.5 -15.3 65.5 -14.5 65.5 -13.8 65.45 -13.0 65.45 -12.3 65.4 -11.5 65.35 -10.8 65.3 -10.05 65.25 -9.3 65.15 -8.55 65.05 -7.8 64.95 -7.05 64.85 -6.35 64.7 L-6.35 64.7 M88.5 24.65 Q92.95 24.6 102.7 24.4 111.95 24.25 116.9 24.2 117.05 24.2 117.15 24.2 117.3 24.15 117.4 24.15 117.5 24.1 117.6 24.1 117.65 24.05 117.75 24.0 117.8 23.95 117.85 23.85 117.9 23.8 117.95 23.7 117.95 23.55 118.0 23.45 118.0 23.3 118.0 23.15 118.05 17.0 118.2 1.1 118.2 1.0 118.2 0.9 118.2 0.85 118.2 0.75 118.2 0.7 118.2 0.6 118.15 0.55 118.15 0.5 118.1 0.45 118.05 0.45 118.0 0.4 117.95 0.4 117.85 0.35 117.75 0.35 117.65 0.4 117.55 0.4 117.1 0.5 116.6 0.6 116.2 0.65 115.65 0.75 115.8 0.7 114.7 0.9 114.15 1.0 113.75 1.05 113.25 1.15 112.8 1.25 112.3 1.35 111.9 1.45 111.4 1.55 110.95 1.65 110.45 1.8 110.05 1.95 109.6 2.1 109.15 2.25 108.7 2.35 108.3 2.45 107.85 2.6 107.4 2.7 106.95 2.8 106.5 2.85 106.05 2.95 105.6 3.0 105.15 3.1 104.7 3.15 104.25 3.2 103.8 3.25 103.35 3.3 102.85 3.35 100.0 3.55 95.55 3.55 89.0 3.55 88.25 3.55 88.3 3.55 74.3 3.5 65.95 3.5 60.35 4.05 60.1 4.05 59.95 4.1 59.75 4.15 59.6 4.2 59.45 4.25 59.35 4.3 59.25 4.4 59.15 4.5 59.1 4.6 59.05 4.7 58.95 4.85 58.95 5.0 58.9 5.15 58.9 5.35 58.9 5.5 58.9 5.75 59.15 13.8 59.3 23.9 59.3 24.1 59.3 24.25 59.35 24.4 59.35 24.5 59.4 24.65 59.4 24.75 59.45 24.85 59.55 24.9 59.6 25.0 59.7 25.05 59.8 25.1 59.9 25.1 60.05 25.15 60.2 25.15 60.35 25.15 60.5 25.15 64.55 25.05 88.5 24.65 L88.5 24.65 M105.55 61.25 Q105.95 61.25 106.0 61.25 114.05 58.55 116.15 57.85 116.25 57.8 116.35 57.75 116.45 57.75 116.5 57.7 116.55 57.65 116.6 57.55 116.6 57.5 116.65 57.45 116.65 57.4 116.65 57.3 116.7 57.25 116.7 57.15 116.7 57.1 116.7 57.0 116.7 56.9 116.7 56.85 117.15 37.8 117.45 27.15 117.45 27.0 117.45 26.85 117.45 26.75 117.4 26.65 117.4 26.55 117.35 26.45 117.3 26.4 117.25 26.35 117.2 26.25 117.15 26.25 117.05 26.2 116.95 26.2 116.85 26.15 116.75 26.15 116.6 26.15 116.45 26.15 110.65 26.35 106.75 26.35 106.55 26.35 106.45 26.35 106.25 26.4 106.15 26.4 106.05 26.45 105.95 26.5 105.85 26.55 105.8 26.6 105.7 26.65 105.65 26.75 105.6 26.85 105.55 27.0 105.55 27.1 105.55 27.25 105.5 27.4 105.5 27.6 105.55 35.2 105.55 60.1 105.55 60.45 105.55 61.25 L105.55 61.25 M103.55 61.1 Q103.55 53.5 103.55 38.95 103.55 28.1 103.6 27.4 103.6 27.25 103.6 27.1 103.55 27.0 103.55 26.9 103.5 26.8 103.5 26.7 103.45 26.65 103.4 26.6 103.3 26.5 103.25 26.5 103.15 26.45 103.05 26.4 103.0 26.4 102.85 26.4 102.75 26.4 102.6 26.4 102.4 26.4 102.2 26.45 102.0 26.45 101.8 26.45 101.55 26.45 101.35 26.45 101.15 26.45 100.95 26.5 100.75 26.5 100.55 26.5 100.35 26.5 100.15 26.45 99.95 26.45 99.7 26.45 99.5 26.45 99.3 26.45 99.15 26.45 99.0 26.45 98.85 26.45 98.75 26.5 98.65 26.5 98.55 26.55 98.45 26.6 98.4 26.7 98.35 26.75 98.3 26.85 98.25 26.95 98.25 27.05 98.2 27.15 98.2 27.3 98.2 27.45 98.2 27.6 98.3 30.05 98.4 37.6 98.5 43.5 98.7 57.7 98.7 57.75 98.7 57.85 98.7 57.95 98.7 58.0 98.7 58.1 98.7 58.15 98.7 58.25 98.75 58.3 98.75 58.4 98.8 58.45 98.8 58.5 98.85 58.6 98.9 58.65 99.0 58.7 99.05 58.75 99.15 58.8 99.6 59.0 103.55 61.1 L103.55 61.1 M86.35 47.9 Q90.8 46.35 91.45 46.2 91.65 46.15 91.8 46.1 91.95 46.0 92.1 45.95 92.25 45.85 92.35 45.75 92.45 45.65 92.55 45.55 92.6 45.45 92.65 45.3 92.75 45.15 92.8 45.0 92.8 44.85 92.85 44.7 92.85 44.5 92.85 44.3 93.15 37.1 93.55 27.35 93.55 27.25 93.55 27.15 93.55 27.05 93.55 27.0 93.55 26.9 93.5 26.85 93.5 26.8 93.45 26.75 93.4 26.7 93.35 26.7 93.3 26.65 93.25 26.65 93.2 26.6 93.1 26.6 93.0 26.6 92.9 26.6 89.35 26.65 87.0 26.65 86.9 26.65 86.8 26.65 86.75 26.7 86.7 26.7 86.6 26.7 86.55 26.75 86.5 26.8 86.5 26.8 86.45 26.85 86.4 26.9 86.4 26.95 86.35 27.05 86.35 27.1 86.35 27.15 86.35 27.25 86.35 27.35 86.35 31.25 86.35 47.9 L86.35 47.9 M85.1 47.4 Q85.1 39.75 85.1 27.35 85.1 27.25 85.1 27.25 85.1 27.2 85.1 27.15 85.1 27.1 85.1 27.05 85.1 27.0 85.1 26.95 85.1 26.9 85.05 26.85 85.05 26.85 85.0 26.8 84.95 26.8 84.95 26.75 84.9 26.75 84.8 26.75 84.65 26.75 84.5 26.75 84.4 26.75 84.15 26.7 83.95 26.7 83.85 26.7 83.7 26.7 83.55 26.7 83.35 26.7 83.2 26.7 83.05 26.7 82.9 26.75 82.75 26.75 82.6 26.8 82.45 26.85 82.35 26.9 82.25 26.95 82.15 27.0 82.1 27.05 82.1 27.15 82.05 27.25 82.05 27.35 82.05 27.45 82.05 27.6 82.1 27.7 82.1 27.8 82.25 28.3 82.2 28.05 82.2 28.2 82.25 28.3 82.25 28.45 82.25 28.55 82.25 28.85 82.3 29.45 82.3 30.1 82.3 30.35 82.6 41.2 82.55 43.95 82.55 44.3 82.6 44.65 82.6 44.95 82.7 45.25 82.75 45.5 82.85 45.75 82.95 46.0 83.15 46.2 83.3 46.45 83.5 46.6 83.7 46.8 83.95 46.95 84.15 47.05 84.45 47.2 84.75 47.3 85.1 47.4 L85.1 47.4 M-17.55 62.8 Q-17.85 62.7 -18.2 62.6 -18.5 62.55 -18.8 62.5 -19.1 62.45 -19.4 62.45 -19.7 62.45 -20.05 62.45 -20.35 62.45 -20.65 62.45 -20.9 62.5 -21.3 62.5 -20.8 62.45 -21.9 62.55 -22.25 62.6 -22.5 62.6 -22.65 62.6 -22.65 62.6 -22.8 62.6 -22.85 62.65 -22.95 62.65 -23.05 62.65 -23.1 62.7 -23.2 62.7 -23.25 62.75 -23.3 62.8 -23.35 62.85 -23.35 62.95 -23.35 63.0 -23.35 63.1 -23.3 63.2 -23.25 63.35 -23.2 63.45 -23.15 63.55 -23.15 63.65 -23.15 63.8 -23.1 64.1 -23.1 64.1 -23.1 64.25 -23.05 64.35 -23.05 64.45 -22.95 64.55 -22.9 64.65 -22.8 64.7 -22.7 64.75 -22.5 64.75 -22.35 64.75 -22.1 64.65 -21.8 64.55 -21.5 64.5 -21.25 64.4 -20.95 64.3 -20.65 64.2 -20.35 64.05 -20.1 63.95 -19.8 63.85 -19.55 63.75 -19.25 63.6 -19.0 63.5 -18.7 63.35 -18.45 63.2 -18.15 63.1 -17.9 62.95 -17.55 62.8 L-17.55 62.8 M-66.05 59.0 Q-66.3 58.95 -66.55 58.95 -66.8 58.95 -67.05 58.95 -67.3 59.0 -67.5 59.0 -67.75 59.05 -67.95 59.1 -68.2 59.15 -68.45 59.2 -68.65 59.3 -68.9 59.4 -69.1 59.45 -69.35 59.6 -69.6 59.7 -69.85 59.85 -69.2 60.2 -68.95 60.35 -68.5 60.55 -68.2 60.7 -67.9 60.85 -67.7 60.85 -67.45 60.9 -67.3 60.9 -67.1 60.85 -66.95 60.7 -66.8 60.6 -66.65 60.35 -66.55 60.1 -66.4 59.75 -66.25 59.55 -66.05 59.0 L-66.05 59.0 M114.2 -1.1 Q114.4 -1.1 114.6 -1.15 114.8 -1.15 114.95 -1.2 115.15 -1.2 115.3 -1.2 115.5 -1.25 115.7 -1.3 115.85 -1.3 116.05 -1.35 116.25 -1.4 116.4 -1.45 116.6 -1.5 116.8 -1.55 116.95 -1.6 117.15 -1.7 116.85 -1.9 116.4 -2.25 116.0 -2.5 115.85 -2.6 115.65 -2.75 115.5 -2.85 115.35 -2.9 115.25 -2.85 115.15 -2.85 115.05 -2.7 114.95 -2.6 114.85 -2.4 114.8 -2.3 114.55 -1.85 114.35 -1.4 114.2 -1.1 L114.2 -1.1" fill="#060606" fill-rule="evenodd" stroke="none"/>
    <path d="M-82.15 59.4 Q-82.2 59.25 -82.25 59.15 -82.3 59.05 -82.35 58.95 -82.45 58.85 -82.55 58.75 -82.6 58.7 -82.7 58.65 -82.8 58.55 -82.9 58.5 -82.9 58.5 -83.1 58.4 -83.25 58.3 -83.3 58.25 -83.45 58.2 -83.5 58.15 -83.9 57.85 -84.2 57.55 -84.5 57.25 -84.7 57.0 -84.95 56.7 -85.1 56.4 -85.25 56.1 -85.3 55.8 -85.4 55.5 -85.4 55.2 -85.4 54.85 -85.35 54.5 -85.35 54.15 -85.2 53.7 -85.1 53.35 -84.95 52.85 -84.75 52.35 -84.5 51.8 -84.3 51.3 -84.05 50.8 -83.8 50.3 -83.5 49.8 -83.25 49.35 -82.95 48.8 -82.75 48.4 -82.4 47.85 -82.4 47.85 -81.85 46.85 -81.5 46.25 -81.3 45.9 -81.0 45.35 -80.75 44.9 -77.6 39.2 -73.15 29.4 -72.75 28.55 -72.4 27.7 -72.0 26.8 -71.6 25.95 -71.25 25.1 -70.85 24.2 -70.45 23.35 -70.1 22.5 -69.75 21.65 -69.35 20.75 -69.0 19.9 -68.6 19.05 -68.25 18.15 -67.9 17.3 -67.5 16.4 -67.15 15.55 -66.75 14.55 -66.35 13.6 -65.95 12.6 -65.6 11.65 -65.2 10.6 -64.85 9.65 -64.5 8.65 -64.15 7.65 -63.8 6.65 -63.5 5.65 -63.2 4.65 -62.9 3.65 -62.6 2.6 -62.3 1.6 -62.05 0.55 -61.8 -0.45 -61.75 -0.6 -61.7 -2.5 -61.7 -2.65 -61.65 -2.75 -61.65 -2.9 -61.6 -3.05 -61.6 -3.15 -61.55 -3.25 -61.5 -3.4 -61.4 -3.45 -61.35 -3.55 -61.3 -3.65 -61.2 -3.7 -61.1 -3.75 -61.0 -3.8 -60.9 -3.85 -60.75 -3.9 -60.6 -3.9 -60.45 -3.9 -60.35 -3.85 -60.2 -3.85 -60.1 -3.8 -60.05 -3.75 -59.95 -3.65 -59.9 -3.55 -59.85 -3.45 -59.8 -3.35 -59.75 -3.25 -59.7 -3.15 -59.7 -3.0 -59.7 -2.9 -59.7 -2.75 -59.65 -2.65 -59.7 -2.5 -59.7 -2.35 -59.7 -2.1 -59.7 -1.7 -59.7 -1.65 -59.7 -1.45 -59.7 -1.25 -59.7 -1.05 -59.7 -0.85 -59.75 -0.65 -59.75 -0.45 -59.8 -0.25 -59.85 -0.05 -59.9 0.15 -60.0 0.35 -60.1 0.55 -60.2 0.75 -60.35 0.75 -60.45 0.75 -60.55 0.8 -60.6 0.8 -60.65 0.85 -60.7 0.95 -60.75 1.0 -60.75 1.05 -60.75 1.1 -60.75 1.2 -60.75 1.25 -60.75 1.35 -60.75 1.5 -60.75 1.5 -60.75 1.6 -60.75 1.65 -62.35 11.6 -63.35 16.05 -64.25 19.95 -65.95 25.35 -71.65 43.75 -68.85 34.6 -69.25 35.9 -69.6 37.2 -69.95 38.5 -70.25 39.8 -70.55 41.1 -70.8 42.45 -71.05 43.75 -71.25 45.1 -71.5 46.4 -71.7 47.75 -71.85 49.05 -72.0 50.45 -72.2 51.75 -72.3 53.1 -72.45 54.4 -72.55 55.8 -72.55 56.0 -72.65 56.6 -72.65 57.05 -72.7 57.35 -72.75 57.6 -72.75 57.8 -72.8 58.1 -72.8 58.3 -72.8 58.55 -72.8 58.75 -72.8 59.0 -72.75 59.25 -72.75 59.45 -72.65 59.7 -72.6 59.95 -72.5 60.15 -72.4 60.4 -72.25 60.6 -72.1 60.85 -71.9 61.05 -78.3 60.25 -82.15 59.4 L-82.15 59.4" fill="#000000" fill-opacity="0.30980393" fill-rule="evenodd" stroke="none"/>
    <path d="M107.05 0.65 Q107.15 0.5 107.3 0.35 107.45 0.25 107.6 0.1 107.65 0.05 107.9 -0.2 108.1 -0.35 108.2 -0.45 108.35 -0.6 108.5 -0.75 108.65 -0.9 108.7 -1.05 108.85 -1.25 108.9 -1.45 108.95 -1.65 109.0 -1.9 109.0 -2.35 109.15 -3.3 109.3 -4.2 109.35 -4.7 109.35 -5.25 109.45 -8.6 109.5 -11.0 109.65 -12.55 110.25 -20.15 110.1 -25.45 110.1 -25.85 110.05 -26.25 110.05 -26.65 110.0 -27.05 109.95 -27.45 109.95 -27.85 109.9 -28.25 109.85 -28.65 109.75 -29.05 109.7 -29.45 109.6 -29.85 109.55 -30.25 109.45 -30.65 109.35 -31.05 109.25 -31.4 109.1 -31.8 109.0 -32.1 108.9 -32.3 108.85 -32.55 108.75 -32.7 108.65 -32.85 108.55 -33.0 108.45 -33.1 108.3 -33.15 108.2 -33.2 108.05 -33.25 107.9 -33.25 107.7 -33.25 107.55 -33.2 107.3 -33.15 107.1 -33.1 106.8 -33.05 106.7 -33.0 106.55 -32.95 106.4 -32.9 106.25 -32.8 106.05 -32.7 106.0 -32.7 105.85 -32.6 105.7 -32.55 105.55 -32.5 105.45 -32.5 105.3 -32.45 105.15 -32.45 105.0 -32.45 104.85 -32.5 104.7 -32.5 104.5 -32.6 104.65 -32.75 104.8 -32.9 104.95 -33.0 105.1 -33.2 105.2 -33.25 105.45 -33.45 105.65 -33.6 105.75 -33.7 105.95 -33.85 106.05 -34.0 106.25 -34.15 106.35 -34.3 106.5 -34.5 106.6 -34.65 106.75 -34.85 106.85 -35.05 106.7 -35.1 106.55 -35.05 106.45 -35.05 106.3 -35.05 106.15 -35.0 106.05 -34.95 105.95 -34.9 105.8 -34.8 105.6 -34.75 105.55 -34.7 105.4 -34.65 105.3 -34.6 105.2 -34.55 105.05 -34.55 104.95 -34.55 104.8 -34.6 104.8 -35.1 104.8 -35.1 104.85 -35.5 104.8 -35.9 104.8 -36.3 104.7 -36.6 104.6 -36.95 104.4 -37.2 104.25 -37.5 104.0 -37.7 103.75 -37.9 103.45 -38.05 103.15 -38.2 102.8 -38.25 102.45 -38.3 102.0 -38.3 101.6 -38.25 101.1 -38.15 97.05 -37.05 95.4 -36.5 94.2 -36.1 93.35 -35.85 92.2 -35.45 91.25 -35.2 90.2 -34.85 89.2 -34.55 88.1 -34.25 87.1 -33.95 86.05 -33.65 85.0 -33.4 83.95 -33.15 82.9 -32.95 81.8 -32.7 80.75 -32.5 79.7 -32.35 78.6 -32.2 78.4 -32.15 78.2 -32.15 78.05 -32.15 77.8 -32.15 77.85 -32.15 77.4 -32.15 77.15 -32.15 77.0 -32.15 76.8 -32.15 76.6 -32.1 76.4 -32.1 76.2 -32.05 76.0 -32.0 75.85 -31.9 75.65 -31.8 75.45 -31.7 72.9 -31.6 68.9 -31.85 68.9 -31.95 68.85 -32.0 68.8 -32.05 68.75 -32.1 68.75 -32.15 68.7 -32.15 68.65 -32.2 68.55 -32.2 68.5 -32.25 68.45 -32.25 68.4 -32.25 68.35 -32.25 68.2 -32.25 68.2 -32.25 68.15 -32.25 68.1 -32.25 62.6 -33.25 60.15 -34.2 60.4 -34.4 60.65 -34.6 60.85 -34.75 61.1 -34.85 61.35 -34.95 61.65 -35.05 61.9 -35.1 62.15 -35.1 62.4 -35.15 62.7 -35.15 62.95 -35.15 63.25 -35.15 63.5 -35.1 63.8 -35.1 63.95 -35.05 64.35 -35.0 65.85 -34.8 67.25 -34.7 68.8 -34.55 70.2 -34.45 71.7 -34.35 73.1 -34.35 74.6 -34.3 76.0 -34.35 77.5 -34.35 78.9 -34.45 80.4 -34.55 81.8 -34.75 83.25 -34.95 84.7 -35.2 86.15 -35.5 87.55 -35.9 88.7 -36.2 89.85 -36.55 91.0 -36.9 92.1 -37.35 93.2 -37.75 94.25 -38.25 95.35 -38.7 96.4 -39.25 97.45 -39.8 98.45 -40.4 99.45 -41.0 100.45 -41.7 101.45 -42.35 102.4 -43.1 103.35 -43.85 104.25 -44.6 104.45 -44.75 104.6 -44.9 104.8 -45.0 105.0 -45.1 105.2 -45.2 105.4 -45.25 105.6 -45.35 105.85 -45.35 106.05 -45.4 106.25 -45.4 106.45 -45.4 106.7 -45.4 106.9 -45.35 107.1 -45.35 107.35 -45.3 107.55 -45.25 107.75 -45.2 109.8 -44.3 110.5 -44.0 111.05 -43.7 111.65 -43.35 112.2 -42.95 112.7 -42.6 113.1 -42.15 113.55 -41.7 113.9 -41.2 114.25 -40.7 114.5 -40.1 114.75 -39.55 114.95 -38.9 115.1 -38.25 115.2 -37.5 115.3 -36.8 115.3 -36.0 115.3 -34.45 115.35 -23.6 115.35 -16.1 115.15 -11.2 115.15 -10.75 115.1 -10.25 115.05 -9.8 115.0 -9.35 114.95 -8.9 114.85 -8.45 114.8 -7.95 114.7 -7.5 114.6 -7.05 114.45 -6.6 114.35 -6.15 114.2 -5.7 114.05 -5.25 113.85 -4.85 113.65 -4.4 113.45 -3.95 113.2 -3.45 112.9 -3.0 112.65 -2.55 112.3 -2.15 111.95 -1.75 111.6 -1.4 111.25 -1.1 110.85 -0.8 110.45 -0.5 110.0 -0.3 109.55 -0.05 109.1 0.15 108.6 0.3 108.1 0.45 107.6 0.6 107.05 0.65 L107.05 0.65" fill="#000000" fill-opacity="0.30980393" fill-rule="evenodd" stroke="none"/>
    <path d="M-27.3 0.95 Q-27.2 0.95 -27.05 0.95 -26.95 0.95 -26.85 1.0 -26.75 1.05 -26.65 1.05 -26.55 1.1 -26.5 1.15 -26.4 1.25 -26.35 1.3 -26.3 1.4 -26.25 1.45 -26.2 1.55 -26.15 1.65 -26.15 1.75 -26.1 1.9 -25.7 4.95 -23.45 11.45 -22.2 15.1 -19.95 22.2 -17.65 29.5 -16.5 33.0 -15.35 36.4 -13.95 41.85 -12.0 49.6 -11.7 50.8 -9.6 58.1 -9.5 58.35 -9.35 58.8 -9.25 59.15 -9.15 59.55 -9.1 59.9 -9.0 60.3 -9.0 60.65 -8.95 61.05 -9.0 61.4 -9.0 61.75 -9.1 62.1 -9.2 62.5 -9.35 62.8 -9.5 63.15 -9.75 63.5 -10.0 63.85 -10.35 64.15 -10.1 64.25 -9.8 64.3 -9.6 64.35 -9.3 64.35 -9.1 64.35 -8.8 64.35 -9.0 64.35 -8.25 64.3 -7.95 64.3 -7.75 64.3 -7.5 64.3 -7.3 64.35 -7.0 64.35 -6.8 64.45 -6.55 64.55 -6.35 64.7 -7.1 64.85 -7.85 64.95 -8.55 65.05 -9.3 65.15 -10.05 65.25 -10.8 65.3 -11.5 65.35 -12.3 65.4 -13.0 65.45 -13.8 65.45 -14.5 65.5 -15.3 65.5 -16.0 65.5 -16.8 65.5 -17.5 65.5 -18.3 65.5 -18.0 65.35 -17.5 65.1 -16.95 64.85 -16.65 64.75 -16.3 64.6 -16.05 64.45 -15.8 64.25 -15.6 64.1 -15.4 63.9 -15.25 63.75 -15.1 63.55 -15.0 63.35 -14.9 63.15 -14.9 62.9 -14.85 62.65 -14.85 62.4 -14.85 62.1 -14.95 61.8 -15.0 61.5 -15.1 61.1 -18.4 49.9 -20.05 43.35 -20.4 41.9 -20.75 40.45 -21.1 39.0 -21.4 37.55 -21.65 36.1 -21.95 34.6 -22.2 33.2 -22.45 31.7 -22.7 30.25 -22.9 28.75 -23.1 27.3 -23.3 25.8 -23.5 24.35 -23.65 22.85 -23.85 21.45 -24.0 19.9 -24.15 18.75 -24.25 17.55 -24.4 16.4 -24.55 15.25 -24.75 14.1 -24.9 12.95 -25.1 11.75 -25.3 10.6 -25.5 9.45 -25.7 8.3 -25.95 7.15 -26.2 6.05 -26.4 4.9 -26.7 3.75 -26.95 2.6 -27.25 1.45 -27.25 1.35 -27.25 1.2 -27.3 1.05 -27.3 0.95 L-27.3 0.95" fill="#000000" fill-opacity="0.30980393" fill-rule="evenodd" stroke="none"/>
    <path d="M101.3 -50.45 Q100.65 -50.5 96.55 -50.8 93.65 -51.05 91.75 -50.95 90.5 -50.9 89.25 -50.8 88.05 -50.65 86.8 -50.5 85.6 -50.3 84.35 -50.1 83.15 -49.85 81.95 -49.55 80.75 -49.3 79.55 -48.95 78.4 -48.6 77.2 -48.2 76.0 -47.8 74.85 -47.4 73.7 -46.95 72.5 -46.45 71.8 -46.15 71.1 -45.85 70.45 -45.5 69.8 -45.15 69.15 -44.75 68.5 -44.35 67.9 -43.95 67.25 -43.55 66.7 -43.1 66.05 -42.65 65.5 -42.2 64.85 -41.7 64.3 -41.25 63.7 -40.75 63.2 -40.3 62.55 -39.8 62.5 -39.75 62.45 -39.7 62.35 -39.6 62.35 -39.55 62.3 -39.5 62.25 -39.45 62.25 -39.4 62.2 -39.35 62.2 -39.3 62.2 -39.25 62.2 -39.15 62.2 -39.1 62.25 -39.05 62.3 -38.95 62.3 -38.9 62.4 -38.85 62.45 -38.75 62.5 -38.65 62.55 -38.6 62.55 -38.5 62.6 -38.4 62.6 -38.3 62.6 -38.2 62.6 -38.1 62.6 -38.0 62.6 -37.9 62.6 -37.8 62.6 -37.7 62.6 -37.65 62.55 -37.5 62.55 -37.4 62.55 -37.3 62.4 -37.35 62.25 -37.4 62.05 -37.45 61.9 -37.45 61.75 -37.45 61.6 -37.45 61.45 -37.45 61.35 -37.4 61.2 -37.35 61.05 -37.3 60.9 -37.25 60.8 -37.15 60.65 -37.05 60.55 -36.95 60.45 -36.85 60.3 -36.7 60.2 -36.8 60.1 -36.9 59.95 -37.0 59.85 -37.05 59.7 -37.15 59.6 -37.2 59.45 -37.25 59.35 -37.3 59.2 -37.35 59.05 -37.35 58.95 -37.35 58.8 -37.35 58.65 -37.4 58.55 -37.35 58.4 -37.35 58.3 -37.3 58.2 -37.25 58.15 -37.2 58.1 -37.15 58.1 -37.1 58.05 -37.05 58.1 -36.95 58.1 -36.85 58.15 -36.75 58.15 -36.8 58.25 -36.55 58.25 -36.45 58.3 -36.35 58.35 -36.25 58.35 -36.15 58.35 -36.05 58.3 -36.0 58.1 -36.1 57.9 -36.3 57.75 -36.45 57.65 -36.65 57.5 -36.8 57.45 -37.0 57.4 -37.25 57.35 -37.45 57.35 -37.65 57.4 -37.85 57.4 -38.1 57.5 -38.25 57.6 -38.5 57.75 -38.65 57.9 -38.85 58.05 -38.95 58.1 -39.0 58.15 -39.0 58.2 -39.05 58.2 -39.05 58.25 -39.1 58.3 -39.1 58.35 -39.1 58.35 -39.1 58.4 -39.1 58.45 -39.1 58.5 -39.1 58.5 -39.05 58.55 -39.05 58.6 -39.0 58.65 -39.0 58.7 -38.95 58.8 -38.85 58.85 -38.8 58.95 -38.7 59.0 -38.65 59.1 -38.6 59.2 -38.55 59.3 -38.55 59.35 -38.55 59.45 -38.5 59.55 -38.55 59.65 -38.55 59.75 -38.6 59.85 -38.6 59.9 -38.7 60.0 -38.75 60.1 -38.85 60.2 -38.95 60.25 -39.05 60.3 -39.15 60.35 -39.25 60.4 -39.35 60.4 -39.45 60.4 -39.55 60.4 -39.65 60.35 -39.75 60.35 -39.85 60.3 -39.95 60.25 -40.05 60.2 -40.15 60.15 -40.25 60.05 -40.35 60.0 -40.45 60.0 -40.5 59.75 -40.9 59.85 -41.15 60.0 -41.4 60.1 -41.6 60.25 -41.85 60.4 -42.05 60.55 -42.3 60.7 -42.5 60.85 -42.7 61.0 -42.9 61.2 -43.1 61.35 -43.25 61.55 -43.5 61.7 -43.65 61.9 -43.85 61.95 -43.85 62.3 -44.2 62.65 -44.55 62.95 -44.85 63.25 -45.15 63.55 -45.45 63.9 -45.75 64.2 -46.05 64.55 -46.35 64.9 -46.6 65.25 -46.9 65.6 -47.15 65.95 -47.4 66.35 -47.65 66.7 -47.9 67.1 -48.1 67.5 -48.3 67.9 -48.5 67.95 -48.55 68.05 -48.6 68.45 -48.75 68.2 -48.65 68.3 -48.7 68.35 -48.75 68.45 -48.75 68.55 -48.8 68.6 -48.85 68.7 -48.85 68.8 -48.85 68.85 -48.9 68.95 -48.9 69.05 -48.9 69.15 -48.9 69.2 -48.85 69.0 -48.65 68.75 -48.4 68.6 -48.25 68.3 -48.0 67.95 -47.7 67.85 -47.6 67.6 -47.4 67.4 -47.2 67.2 -46.95 67.0 -46.75 66.8 -46.5 66.65 -46.3 66.5 -46.0 66.35 -45.75 66.2 -45.45 66.15 -45.15 67.7 -46.3 69.4 -47.25 71.05 -48.2 72.8 -48.95 74.5 -49.65 76.3 -50.2 78.05 -50.7 79.9 -51.1 81.65 -51.5 83.6 -51.75 85.4 -52.0 87.4 -52.2 89.15 -52.35 91.2 -52.45 92.9 -52.55 95.1 -52.65 94.8 -52.75 94.5 -52.85 94.25 -52.95 93.95 -53.0 93.7 -53.05 93.4 -53.1 93.2 -53.15 92.85 -53.2 85.3 -54.35 92.35 -53.3 92.05 -53.35 91.85 -53.35 91.6 -53.4 91.35 -53.45 91.1 -53.55 90.9 -53.6 90.95 -53.75 91.0 -53.85 91.1 -53.95 91.2 -54.0 91.3 -54.05 91.4 -54.1 91.5 -54.15 91.65 -54.15 91.85 -54.2 91.9 -54.2 92.05 -54.25 92.15 -54.3 92.25 -54.35 92.35 -54.45 92.45 -54.55 92.5 -54.65 92.1 -55.25 91.6 -55.75 91.15 -56.25 90.65 -56.7 90.15 -57.15 89.55 -57.55 89.05 -57.9 88.4 -58.3 87.9 -58.6 87.25 -58.95 87.4 -58.9 86.05 -59.65 85.35 -60.0 84.85 -60.3 84.25 -60.7 83.7 -61.05 83.65 -61.1 83.55 -61.1 83.5 -61.15 83.45 -61.2 83.35 -61.2 83.3 -61.25 83.2 -61.25 83.15 -61.3 83.1 -61.35 83.05 -61.4 83.0 -61.45 82.95 -61.5 82.9 -61.55 82.85 -61.65 82.8 -61.7 82.8 -61.8 89.55 -59.4 85.4 -60.9 86.9 -60.35 88.0 -59.9 89.35 -59.4 90.5 -58.9 91.85 -58.3 92.95 -57.7 94.2 -57.05 95.3 -56.35 96.45 -55.55 97.5 -54.7 98.55 -53.8 99.5 -52.75 100.45 -51.7 101.3 -50.45 L101.3 -50.45" fill="#000000" fill-opacity="0.30980393" fill-rule="evenodd" stroke="none"/>
    <path d="M33.8 -56.15 Q33.65 -55.8 33.6 -55.45 33.55 -55.1 33.6 -54.75 33.6 -54.45 33.65 -54.1 33.75 -53.8 33.85 -53.5 33.95 -53.2 34.1 -52.9 34.25 -52.6 34.4 -52.3 34.5 -52.1 34.75 -51.7 34.95 -51.3 35.05 -51.15 36.0 -49.4 37.6 -46.7 39.75 -43.0 40.2 -42.25 40.25 -42.2 40.3 -42.1 40.35 -41.95 40.4 -41.9 40.45 -41.8 40.45 -41.75 40.5 -41.65 40.55 -41.55 40.55 -41.45 40.6 -41.35 40.6 -41.25 40.6 -41.15 40.6 -41.05 40.6 -40.95 40.55 -40.8 40.5 -40.7 36.2 -46.45 35.8 -47.0 35.6 -47.3 35.35 -47.55 35.15 -47.85 34.9 -48.1 34.7 -48.4 34.45 -48.65 34.2 -48.9 33.95 -49.15 33.7 -49.4 33.45 -49.6 33.2 -49.85 32.9 -50.05 32.65 -50.25 32.35 -50.45 32.05 -50.65 31.75 -50.85 31.4 -51.05 31.05 -51.3 30.75 -51.5 30.35 -51.8 30.45 -51.7 29.65 -52.3 29.25 -52.6 28.95 -52.8 28.55 -53.05 28.25 -53.25 27.85 -53.5 27.5 -53.7 27.1 -53.9 26.75 -54.05 26.35 -54.25 25.95 -54.4 25.9 -54.4 25.85 -54.45 25.8 -54.45 25.75 -54.5 25.7 -54.55 25.65 -54.55 25.6 -54.6 25.6 -54.65 25.55 -54.7 25.55 -54.75 25.5 -54.8 25.5 -54.85 25.5 -54.9 25.45 -54.95 25.45 -55.0 25.45 -55.1 26.0 -55.05 26.5 -55.05 27.05 -55.1 27.55 -55.1 28.1 -55.15 28.6 -55.2 29.15 -55.25 29.65 -55.3 30.2 -55.4 30.7 -55.45 31.2 -55.55 31.75 -55.7 32.25 -55.8 32.75 -55.9 33.25 -56.05 33.8 -56.15 L33.8 -56.15" fill="#000000" fill-opacity="0.30980393" fill-rule="evenodd" stroke="none"/>
    <path d="M44.95 -52.55 Q44.65 -52.75 44.65 -52.8 44.4 -53.0 43.75 -53.75 45.75 -53.95 48.1 -54.25 48.15 -54.25 48.2 -54.25 48.25 -54.25 48.25 -54.25 48.3 -54.25 48.35 -54.25 48.4 -54.25 48.4 -54.25 48.45 -54.2 48.5 -54.2 48.5 -54.2 48.55 -54.15 48.55 -54.15 48.6 -54.1 48.6 -54.05 48.6 -54.0 48.75 -53.6 49.0 -53.2 49.2 -52.85 49.45 -52.45 49.7 -52.1 50.0 -51.75 50.2 -51.45 50.55 -51.05 51.1 -50.45 51.15 -50.4 51.45 -50.0 51.7 -49.7 52.0 -49.3 52.2 -48.95 52.45 -48.55 52.65 -48.2 52.85 -47.8 53.1 -47.35 53.35 -46.95 53.6 -46.5 53.85 -46.1 54.1 -45.7 54.35 -45.3 54.65 -44.9 54.85 -44.55 55.15 -44.1 55.35 -43.85 55.7 -43.3 56.05 -42.8 56.25 -42.5 56.55 -42.05 56.8 -41.7 56.85 -41.6 56.9 -41.5 56.95 -41.4 57.0 -41.35 57.05 -41.25 57.05 -41.15 57.1 -41.1 57.1 -41.0 57.1 -40.95 57.1 -40.85 57.05 -40.8 57.0 -40.7 56.95 -40.6 56.9 -40.55 56.8 -40.45 56.7 -40.35 56.55 -40.25 56.45 -40.1 56.3 -40.0 56.2 -39.85 56.1 -39.7 56.0 -39.55 55.9 -39.4 55.85 -39.2 55.75 -39.05 55.7 -38.9 55.65 -38.7 55.6 -38.55 55.55 -38.35 55.5 -38.15 55.45 -38.0 55.4 -37.8 55.3 -37.85 55.25 -37.9 55.2 -37.95 55.1 -38.0 55.05 -38.05 55.0 -38.1 55.0 -38.15 54.95 -38.2 54.9 -38.3 54.9 -38.35 54.85 -38.4 54.85 -38.5 54.8 -38.55 54.8 -38.6 54.8 -38.65 54.75 -38.75 54.9 -38.85 55.0 -38.95 55.1 -39.05 55.2 -39.15 55.3 -39.25 55.35 -39.4 55.4 -39.5 55.45 -39.6 55.45 -39.75 55.5 -39.9 55.5 -40.0 55.5 -40.15 55.45 -40.3 55.45 -40.45 55.4 -40.6 55.35 -40.75 55.3 -40.9 55.25 -41.05 55.2 -41.2 55.15 -41.35 55.05 -41.5 55.0 -41.6 54.95 -41.75 54.9 -41.9 54.85 -42.05 54.75 -42.15 54.7 -42.3 54.6 -42.45 54.55 -42.55 54.5 -42.7 54.4 -42.85 54.3 -42.95 53.55 -44.15 51.35 -47.2 49.45 -49.85 48.5 -51.5 48.4 -51.7 48.25 -51.85 48.1 -52.05 47.9 -52.15 47.7 -52.3 47.45 -52.4 47.25 -52.5 47.0 -52.55 46.75 -52.65 46.5 -52.65 46.25 -52.7 45.95 -52.7 45.7 -52.7 45.45 -52.65 45.2 -52.65 44.95 -52.55 L44.95 -52.55" fill="#000000" fill-opacity="0.30980393" fill-rule="evenodd" stroke="none"/>
    <path d="M100.0 -43.9 Q100.1 -44.15 100.2 -44.35 100.3 -44.6 100.4 -44.8 100.5 -45.0 100.65 -45.25 100.75 -45.45 100.9 -45.65 101.05 -45.85 101.2 -46.05 101.3 -46.25 101.45 -46.45 101.6 -46.6 101.75 -46.8 101.9 -46.95 102.05 -47.2 102.2 -47.35 102.35 -47.45 102.5 -47.55 102.7 -47.65 102.9 -47.7 103.1 -47.7 103.3 -47.75 103.5 -47.75 103.75 -47.75 103.95 -47.7 104.2 -47.65 104.4 -47.6 104.65 -47.55 104.85 -47.45 105.1 -47.4 105.3 -47.3 105.25 -47.25 105.15 -47.2 105.05 -47.15 105.0 -47.15 104.9 -47.1 104.85 -47.1 104.75 -47.1 104.65 -47.1 104.6 -47.1 104.5 -47.1 104.35 -47.15 104.3 -47.15 104.2 -47.15 104.15 -47.15 104.05 -47.15 104.0 -47.1 103.9 -47.1 103.85 -47.1 103.75 -47.05 103.7 -47.05 103.6 -47.05 103.55 -47.0 103.45 -47.0 103.4 -46.95 103.3 -46.95 103.25 -46.9 103.2 -46.85 103.15 -46.8 103.1 -46.75 103.05 -46.7 103.0 -46.6 102.95 -46.55 102.85 -46.3 102.7 -46.1 102.55 -45.9 102.4 -45.7 102.25 -45.5 102.05 -45.3 101.9 -45.15 101.65 -45.0 101.5 -44.85 101.3 -44.7 101.1 -44.6 100.85 -44.45 100.75 -44.35 100.45 -44.15 100.15 -44.0 100.0 -43.9 L100.0 -43.9" fill="#000000" fill-opacity="0.30980393" fill-rule="evenodd" stroke="none"/>
    <path d="M79.25 -64.8 Q79.35 -65.05 79.45 -65.25 79.5 -65.5 79.55 -65.7 79.6 -65.95 79.65 -66.15 79.7 -66.4 79.7 -66.6 79.7 -66.85 79.7 -67.05 79.65 -67.3 79.6 -67.5 79.55 -67.75 79.5 -67.95 79.4 -68.2 79.3 -68.4 79.55 -68.35 79.75 -68.25 79.95 -68.1 80.15 -67.9 80.35 -67.7 80.5 -67.45 80.65 -67.2 80.75 -66.9 80.9 -66.65 80.95 -66.35 81.0 -66.1 81.0 -65.8 81.0 -65.55 80.9 -65.3 80.85 -65.1 80.7 -64.9 80.65 -64.85 80.55 -64.8 80.5 -64.75 80.4 -64.75 80.3 -64.7 80.2 -64.7 80.15 -64.7 80.0 -64.75 79.95 -64.75 79.85 -64.75 79.7 -64.8 79.65 -64.8 79.55 -64.8 79.45 -64.8 79.35 -64.8 79.25 -64.8 L79.25 -64.8" fill="#000000" fill-opacity="0.30980393" fill-rule="evenodd" stroke="none"/>
    <path d="M56.85 -34.55 Q56.85 -34.5 56.75 -34.35 56.75 -34.35 56.7 -34.4 56.7 -34.45 56.75 -34.45 56.75 -34.5 56.8 -34.5 56.8 -34.55 56.85 -34.55 56.85 -34.55 56.85 -34.55 L56.85 -34.55" fill="#fefefe" fill-rule="evenodd" stroke="none"/>
    <path d="M1.95 -38.6 Q1.75 -38.3 1.6 -38.05 1.4 -37.8 1.2 -37.55 1.05 -37.3 0.85 -37.1 0.65 -36.85 0.4 -36.65 0.2 -36.45 -0.05 -36.3 -0.25 -36.1 -0.5 -36.0 -0.8 -35.85 -1.05 -35.7 -1.35 -35.6 -1.65 -35.5 -6.0 -34.25 -8.35 -33.2 -8.65 -33.05 -8.95 -32.95 -9.3 -32.85 -9.6 -32.8 -9.95 -32.7 -10.3 -32.65 -10.6 -32.6 -10.95 -32.55 -11.25 -32.55 -11.65 -32.5 -9.6 -32.7 -12.35 -32.45 -12.75 -32.4 -13.05 -32.35 -13.45 -32.3 -13.75 -32.25 -14.85 -32.1 -16.0 -31.95 -17.1 -31.8 -18.25 -31.7 -19.35 -31.6 -20.5 -31.55 -21.6 -31.45 -22.75 -31.4 -23.8 -31.35 -25.0 -31.3 -26.05 -31.25 -27.3 -31.25 -28.2 -31.2 -29.55 -31.2 -32.15 -31.15 -31.8 -31.15 -33.4 -31.1 -37.15 -31.05 -40.6 -31.05 -42.5 -31.0 -42.95 -31.0 -44.75 -30.85 -46.15 -30.8 -47.05 -30.75 -48.5 -30.75 -49.9 -30.75 -51.35 -30.8 -52.75 -30.85 -54.2 -30.9 -55.55 -31.05 -57.0 -31.15 -58.35 -31.35 -59.8 -31.5 -61.15 -31.75 -62.6 -32.0 -63.95 -32.35 -65.35 -32.65 -66.7 -33.05 -68.1 -33.45 -69.45 -33.9 -69.5 -33.9 -69.5 -33.95 -69.55 -33.95 -69.6 -33.95 -69.65 -34.0 -69.65 -34.0 -69.7 -34.05 -69.75 -34.05 -69.75 -34.1 -69.8 -34.1 -69.85 -34.15 -69.85 -34.2 -69.9 -34.2 -69.95 -34.25 -69.95 -34.3 -70.0 -34.35 -69.7 -34.35 -68.15 -34.35 -67.05 -34.35 -66.35 -34.35 -66.15 -34.35 -65.9 -34.35 -65.65 -34.35 -65.4 -34.35 -65.35 -34.35 -64.95 -34.35 -64.65 -34.35 -64.45 -34.35 -64.2 -34.35 -64.0 -34.35 -63.75 -34.35 -63.5 -34.35 -63.25 -34.3 -63.05 -34.3 -62.8 -34.25 -62.55 -34.2 -62.5 -34.2 -62.4 -34.15 -62.35 -34.15 -62.25 -34.15 -62.2 -34.1 -62.1 -34.1 -62.05 -34.1 -61.95 -34.1 -61.85 -34.1 -61.8 -34.1 -61.7 -34.1 -61.65 -34.1 -61.6 -34.1 -61.45 -34.1 -61.35 -34.1 -61.3 -34.1 -56.95 -34.1 -53.0 -34.1 -45.95 -34.1 -36.0 -34.9 -33.8 -35.1 -28.6 -35.55 -23.8 -35.95 -21.15 -36.2 -17.0 -36.55 -5.15 -37.75 -4.45 -37.8 1.95 -38.6 L1.95 -38.6" fill="#000000" fill-opacity="0.30980393" fill-rule="evenodd" stroke="none"/>
    <path d="M6.4 -21.1 Q4.3 -20.45 -0.95 -20.1 -17.65 -18.95 -41.45 -19.75 -57.5 -20.25 -94.9 -21.9 -94.95 -21.9 -94.95 -21.9 -95.0 -21.9 -95.05 -21.9 -95.05 -21.9 -95.1 -21.9 -95.1 -21.9 -95.15 -21.95 -95.2 -21.95 -95.2 -21.95 -95.25 -21.95 -95.25 -21.95 -95.3 -21.95 -95.35 -22.0 -95.35 -22.0 -95.4 -22.0 -95.0 -22.05 -93.65 -22.3 -92.55 -22.45 -91.9 -22.55 -90.95 -22.7 -90.15 -22.85 -89.2 -22.95 -88.4 -23.05 -87.45 -23.15 -86.6 -23.25 -85.7 -23.3 -84.85 -23.35 -83.95 -23.4 -83.05 -23.4 -82.15 -23.4 -81.3 -23.35 -72.3 -22.8 -53.9 -22.15 -40.85 -21.7 -21.85 -21.3 -16.9 -21.2 -8.4 -21.2 1.4 -21.15 5.05 -21.1 5.15 -21.1 5.2 -21.1 5.3 -21.1 5.4 -21.1 5.45 -21.1 5.55 -21.1 5.65 -21.1 5.7 -21.1 5.8 -21.1 5.9 -21.1 6.0 -21.1 6.05 -21.1 6.15 -21.1 6.25 -21.1 6.35 -21.1 6.4 -21.1 L6.4 -21.1" fill="#060606" fill-rule="evenodd" stroke="none"/>
    <path d="M-52.2 -35.95 Q-51.5 -36.0 -50.7 -36.05 -50.05 -36.1 -49.2 -36.15 -48.85 -36.2 -47.75 -36.3 -46.8 -36.35 -46.25 -36.4 -45.45 -36.5 -44.75 -36.5 -43.95 -36.55 -43.25 -36.6 -42.5 -36.6 -41.8 -36.6 -41.0 -36.6 -40.3 -36.55 -47.9 -35.45 -48.4 -35.35 -48.65 -35.3 -48.9 -35.25 -49.15 -35.25 -49.4 -35.25 -49.65 -35.25 -49.9 -35.25 -50.15 -35.3 -50.35 -35.35 -50.6 -35.35 -50.85 -35.45 -51.05 -35.5 -51.3 -35.6 -51.5 -35.65 -51.75 -35.75 -51.95 -35.85 -52.2 -35.95 L-52.2 -35.95" fill="#000000" fill-opacity="0.30980393" fill-rule="evenodd" stroke="none"/>
    <path d="M44.95 10.2 Q44.8 9.85 44.65 9.55 44.5 9.2 44.35 8.85 44.25 8.5 44.1 8.2 44.0 7.85 43.9 7.5 43.8 7.15 43.7 6.8 43.65 6.45 43.6 6.1 43.55 5.75 43.5 5.4 43.45 5.05 43.45 4.7 43.2 -3.1 43.45 -7.7 43.5 -8.6 43.55 -9.5 43.65 -10.4 43.7 -11.3 43.8 -12.2 43.9 -13.1 44.0 -14.0 44.15 -14.9 44.25 -15.8 44.4 -16.65 44.55 -17.55 44.7 -18.45 44.9 -19.35 45.05 -20.2 45.25 -21.1 45.45 -22.0 45.65 -22.8 45.75 -23.55 45.85 -24.3 45.9 -25.1 45.9 -25.85 45.9 -26.6 45.85 -27.35 45.75 -28.1 45.65 -28.8 45.45 -29.55 45.3 -30.3 45.05 -31.0 44.85 -31.7 44.55 -32.45 44.25 -33.15 43.9 -33.85 43.9 -33.9 43.7 -34.35 43.95 -34.2 44.2 -33.95 44.5 -33.65 44.8 -33.3 45.05 -32.95 45.4 -32.55 45.65 -32.1 45.95 -31.65 46.25 -31.2 46.5 -30.7 46.8 -30.25 47.0 -29.75 47.25 -29.3 47.4 -28.85 47.6 -28.4 47.7 -28.05 47.8 -27.75 47.85 -27.45 47.9 -27.2 47.9 -26.9 47.9 -26.6 47.9 -26.3 47.9 -26.05 47.9 -25.7 47.85 -25.5 47.85 -25.15 47.75 -24.05 47.8 -24.55 47.75 -24.25 47.75 -24.0 47.7 -23.7 47.7 -23.4 47.7 -23.15 47.75 -16.85 47.75 -12.9 47.65 -10.3 47.55 -7.4 46.15 1.0 46.05 1.0 45.8 1.0 45.8 -2.45 45.8 -9.4 45.7 -9.4 45.45 -9.4 45.4 -8.3 45.35 -6.95 45.3 -6.15 45.2 -4.5 45.15 -2.9 45.1 -2.05 45.05 -0.7 45.0 0.4 44.95 1.7 44.9 2.85 44.85 4.1 44.85 5.3 44.85 6.55 44.85 7.75 44.9 9.0 44.95 10.2 L44.95 10.2" fill="#000000" fill-opacity="0.30980393" fill-rule="evenodd" stroke="none"/>
    <path d="M90.9 -53.6 Q91.1 -53.5 91.35 -53.45 91.6 -53.4 91.85 -53.35 92.05 -53.35 92.35 -53.3 93.25 -53.15 92.85 -53.2 93.2 -53.15 93.4 -53.1 93.7 -53.05 93.95 -53.0 94.25 -52.95 94.5 -52.85 94.8 -52.75 95.1 -52.65 92.85 -52.55 91.2 -52.5 89.15 -52.35 87.35 -52.2 85.4 -52.05 83.6 -51.8 81.65 -51.5 79.9 -51.15 78.05 -50.75 76.3 -50.2 74.5 -49.65 72.8 -48.95 71.05 -48.2 69.4 -47.3 67.7 -46.35 66.15 -45.15 66.25 -45.45 66.35 -45.75 66.5 -46.0 66.65 -46.25 66.8 -46.5 67.0 -46.75 67.2 -46.95 67.45 -47.2 67.6 -47.4 67.85 -47.6 68.0 -47.7 68.3 -48.0 68.6 -48.3 68.8 -48.45 69.05 -48.65 69.2 -48.85 70.4 -49.65 71.65 -50.3 72.9 -50.95 74.15 -51.5 75.45 -52.0 76.75 -52.4 78.0 -52.8 79.35 -53.1 80.65 -53.35 82.0 -53.55 83.35 -53.7 84.7 -53.75 86.05 -53.85 87.45 -53.8 88.85 -53.75 90.25 -53.6 90.4 -53.6 90.6 -53.6 90.85 -53.6 90.9 -53.6 L90.9 -53.6" fill="#060606" fill-rule="evenodd" stroke="none"/>
  </g>
</svg>
