<?xml version="1.0" encoding="UTF-8" standalone="no"?>
<svg xmlns:xlink="http://www.w3.org/1999/xlink" height="35.8px" width="27.3px" xmlns="http://www.w3.org/2000/svg">
  <g transform="matrix(1.0, 0.0, 0.0, 1.0, 13.65, 17.9)">
    <path d="M-7.7 8.45 Q-7.45 8.35 -7.2 8.3 -6.95 8.3 -6.7 8.25 -6.5 8.2 -6.3 8.2 -6.1 8.2 -5.9 8.25 -5.75 8.25 -5.55 8.25 -5.4 8.3 -5.25 8.35 -5.1 8.35 -5.0 8.4 -4.85 8.45 -4.75 8.5 -4.65 8.55 -4.5 8.65 -4.4 8.7 -4.25 8.8 -4.0 8.95 -4.05 8.9 -3.9 9.0 -3.8 9.05 -3.65 9.15 -3.55 9.2 -3.4 9.25 -3.25 9.3 -3.1 9.4 -2.95 9.4 -2.8 9.45 -2.6 9.5 -2.5 9.5 -2.5 9.5 -2.45 9.5 -2.4 9.55 -2.3 9.55 -2.25 9.55 -2.2 9.55 -2.1 9.55 -2.05 9.55 -1.95 9.55 -1.9 9.55 -1.8 9.55 -1.75 9.55 -1.65 9.5 -1.55 9.5 -1.45 9.5 -1.3 9.45 -1.15 9.45 -1.05 9.4 -0.9 9.35 -0.8 9.3 -0.7 9.25 -0.65 9.2 -0.5 9.1 -0.4 9.05 -0.35 9.0 -0.2 8.95 -0.1 8.9 0.0 8.85 0.1 8.8 0.25 8.8 0.4 8.75 0.5 8.75 0.6 8.7 0.7 8.7 0.8 8.7 0.9 8.7 1.0 8.7 1.05 8.7 1.15 8.7 1.2 8.7 1.3 8.75 1.35 8.75 1.45 8.75 1.5 8.75 1.55 8.8 1.6 8.8 1.65 8.8 1.75 8.85 1.85 8.85 1.95 8.85 2.1 8.9 2.2 8.95 2.35 9.0 2.5 9.05 2.65 9.1 2.8 9.2 2.9 9.25 3.05 9.35 3.15 9.45 3.3 9.6 3.4 9.7 3.5 9.85 3.6 10.0 3.65 10.05 3.65 10.15 3.7 10.25 3.7 10.3 3.7 10.4 3.75 10.45 3.75 10.5 3.75 10.6 3.75 10.65 3.75 10.75 3.75 10.8 3.75 10.85 3.75 10.9 3.75 10.95 3.75 11.0 3.75 11.05 3.75 11.15 3.75 11.25 3.7 11.3 3.7 11.4 3.7 11.45 3.65 11.55 3.65 11.55 3.65 11.65 3.6 11.75 3.6 11.8 3.55 11.9 3.55 12.0 3.55 12.1 3.5 12.2 3.5 12.35 3.5 12.45 3.5 12.55 3.5 12.6 3.5 12.65 3.5 12.75 3.45 12.8 3.45 12.85 3.45 12.9 3.45 12.95 3.45 13.0 3.45 13.05 3.5 13.05 3.5 13.1 3.5 13.1 3.5 13.15 3.5 13.15 3.5 13.15 3.5 13.25 3.5 13.3 3.55 13.35 3.55 13.45 3.55 13.5 3.55 13.55 3.6 13.65 3.6 13.7 3.65 13.75 3.65 13.8 3.65 13.85 3.7 13.9 3.7 13.95 3.75 14.0 3.75 14.05 3.75 14.05 5.85 13.3 10.05 11.75 9.7 3.25 9.05 -6.2 8.9 -8.65 8.7 -11.25 7.75 -11.65 5.95 -12.5 1.05 -12.25 -8.75 -11.7 -8.4 -5.0 -7.7 8.45 L-7.7 8.45" fill="#0091bf" fill-rule="evenodd" stroke="none"/>
  </g>
</svg>
