<?xml version="1.0" encoding="UTF-8" standalone="no"?>
<svg xmlns:xlink="http://www.w3.org/1999/xlink" height="200.0px" width="200.0px" xmlns="http://www.w3.org/2000/svg">
  <g transform="matrix(1.0, 0.0, 0.0, 1.0, 100.0, 100.0)">
    <path d="M13.05 5.15 Q13.15 5.3 13.25 5.4 13.35 5.55 13.45 5.7 13.55 5.8 13.6 5.95 13.7 6.1 13.75 6.2 13.85 6.35 13.9 6.5 14.0 6.65 14.05 6.85 14.15 7.0 14.2 7.2 14.25 7.3 14.4 7.6 14.5 7.8 14.55 8.0 14.65 8.2 14.7 8.4 14.75 8.6 14.8 8.8 14.85 9.0 14.9 9.15 14.95 9.35 14.95 9.55 15.0 9.7 15.0 9.85 15.05 10.0 15.05 10.2 15.1 10.3 15.1 10.5 15.15 11.0 15.2 11.4 15.2 11.8 15.2 12.2 15.15 12.55 15.15 12.95 15.1 13.25 15.05 13.65 15.05 13.7 14.95 14.4 14.85 14.85 14.8 15.2 14.75 15.7 14.7 16.2 14.65 16.75 14.65 17.35 14.65 17.6 14.65 17.8 14.6 18.1 14.6 18.35 14.6 18.6 14.6 18.9 14.6 19.2 14.6 19.5 14.6 19.85 14.65 20.15 14.65 20.5 14.7 20.85 14.75 21.25 14.8 21.6 14.85 22.0 14.9 22.4 15.0 22.85 15.05 23.25 15.15 23.6 15.25 23.95 15.35 24.2 15.45 24.5 15.5 24.65 15.6 24.95 15.7 25.3 15.8 25.4 15.85 25.7 15.95 25.9 16.0 26.2 16.1 26.5 16.15 26.85 16.25 27.25 16.3 27.7 16.35 27.85 16.4 28.25 16.4 28.6 16.45 29.0 16.45 29.35 16.5 29.8 16.45 30.15 16.45 30.6 16.4 31.05 16.35 31.5 16.25 31.95 16.15 32.4 15.95 32.85 15.8 33.3 15.55 33.7 15.35 34.05 15.15 34.35 14.95 34.65 14.7 34.95 14.5 35.2 14.25 35.45 14.0 35.65 13.75 35.85 13.5 36.05 13.25 36.25 13.0 36.45 12.75 36.6 12.5 36.75 12.2 36.9 12.05 37.0 11.75 37.2 11.25 37.5 10.75 37.7 10.25 37.95 9.75 38.15 9.25 38.3 8.75 38.45 8.3 38.6 7.8 38.7 7.35 38.8 6.9 38.85 6.45 38.95 6.0 39.0 5.55 39.05 5.1 39.05 4.75 39.1 4.25 39.15 3.7 39.2 3.4 39.2 2.9 39.25 2.45 39.25 1.95 39.25 1.45 39.25 0.9 39.25 0.4 39.2 -0.15 39.15 -0.7 39.1 -1.3 39.0 -1.85 38.9 -2.5 38.75 -3.1 38.6 -3.75 38.4 -4.35 38.15 -4.8 38.0 -5.05 37.9 -5.45 37.75 -5.75 37.6 -6.15 37.45 -6.45 37.3 -6.8 37.1 -7.15 36.9 -7.5 36.7 -7.8 36.5 -8.15 36.25 -8.45 36.0 -8.75 35.7 -9.05 35.4 -9.35 35.05 -9.6 34.7 -10.0 34.15 -10.3 33.55 -10.55 33.0 -10.75 32.45 -10.95 31.9 -11.05 31.3 -11.15 30.8 -11.25 30.25 -11.3 29.8 -11.3 29.35 -11.3 28.95 -11.3 28.55 -11.25 28.25 -11.25 27.95 -11.2 27.8 -11.2 27.6 -11.1 27.05 -10.45 24.5 -10.3 24.05 -10.2 23.6 -10.1 23.25 -10.0 22.85 -9.9 22.6 -9.8 22.25 -9.6 21.7 -9.65 21.75 -9.55 21.5 -9.5 21.3 -9.4 21.05 -9.35 20.85 -9.3 20.65 -9.25 20.4 -9.2 20.15 -9.15 19.9 -9.1 19.65 -9.05 19.35 -9.0 19.1 -9.0 18.85 -8.95 18.6 -8.95 18.35 -8.9 18.15 -8.9 17.9 -8.9 17.65 -8.9 17.4 -8.85 17.2 -8.85 16.9 -8.85 16.7 -8.85 16.4 -8.85 16.25 -8.85 15.9 -8.85 15.55 -8.85 15.2 -8.85 14.85 -8.85 14.55 -8.85 14.3 -8.9 13.95 -8.9 14.0 -8.9 13.4 -8.95 13.05 -8.95 12.85 -8.95 12.5 -8.95 12.15 -8.95 11.8 -8.95 11.4 -8.95 10.95 -8.95 10.5 -8.95 10.15 -8.95 9.85 -8.9 9.55 -8.9 9.3 -8.9 9.0 -8.85 8.8 -8.85 8.6 -8.8 8.45 -8.8 8.25 -8.75 8.1 -8.7 7.95 -8.65 7.85 -8.6 7.7 -8.55 7.6 -8.5 7.5 -8.45 7.4 -8.35 7.25 -8.3 7.15 -8.2 7.0 -8.1 6.9 -8.05 6.8 -7.95 6.7 -7.75 6.45 -7.75 6.5 -7.65 6.35 -7.6 6.25 -7.5 6.15 -7.4 6.05 -7.3 5.9 -7.25 5.75 -7.15 5.55 -7.05 5.4 -7.0 5.25 -6.95 5.1 -6.9 5.0 -6.85 4.85 -6.8 4.7 -6.75 4.6 -6.75 4.45 -6.7 4.35 -6.65 4.2 -6.65 4.1 -6.6 4.0 -6.6 3.9 -6.6 3.8 -6.55 3.7 -6.55 3.6 -6.55 3.5 -6.5 3.3 -6.5 3.1 -6.5 2.9 -6.5 2.75 -6.5 2.55 -6.5 2.4 -6.5 2.25 -6.5 2.1 -6.5 2.0 -6.55 1.8 -6.55 1.6 -6.55 1.5 -6.6 1.3 -6.6 1.1 -6.6 0.9 -6.6 0.7 -6.6 0.35 -6.6 0.2 -6.6 -0.1 -6.6 -0.35 -6.6 -0.6 -6.55 -0.85 -6.55 -1.15 -6.5 -1.4 -6.45 -1.65 -6.4 -1.9 -6.3 -2.15 -6.2 -2.4 -6.1 -2.6 -6.0 -2.85 -5.85 -3.05 -5.7 -3.25 -5.65 -3.3 -5.6 -3.35 -5.55 -3.4 -5.45 -3.45 -5.4 -3.55 -5.3 -3.6 -5.2 -3.65 -5.1 -3.7 -4.95 -3.8 -4.8 -3.85 -4.65 -3.95 -4.5 -4.0 -4.3 -4.05 -4.1 -4.15 -3.9 -4.2 -3.65 -4.25 -3.05 -4.4 -2.45 -4.5 -1.9 -4.55 -1.3 -4.55 -0.75 -4.6 -0.15 -4.55 0.3 -4.5 0.95 -4.45 1.3 -4.4 2.05 -4.3 2.75 -4.25 3.15 -4.2 3.8 -4.1 4.3 -4.1 4.95 -4.05 5.5 -4.05 5.75 -4.05 5.95 -4.05 6.15 -4.1 6.35 -4.1 6.55 -4.1 6.7 -4.15 6.9 -4.15 7.05 -4.2 7.2 -4.2 7.35 -4.25 7.45 -4.25 7.6 -4.3 7.7 -4.35 7.8 -4.35 7.9 -4.4 8.0 -4.4 8.15 -4.45 8.3 -4.5 8.4 -4.55 8.5 -4.6 8.6 -4.65 8.7 -4.65 8.7 -4.7 8.8 -4.75 8.9 -4.8 8.95 -4.8 9.0 -4.8 9.05 -4.85 9.1 -4.85 9.15 -4.85 9.2 -4.9 9.3 -4.9 9.55 -4.9 9.8 -4.85 10.05 -4.75 10.35 -4.6 10.55 -4.45 10.8 -4.2 11.05 -4.0 11.3 -3.75 11.5 -3.45 11.7 -3.15 11.9 -2.85 12.1 -2.55 12.25 -2.2 12.4 -1.85 12.5 -1.55 12.6 -1.2 12.65 -1.0 12.7 -0.8 12.75 -0.55 12.75 -0.35 12.8 -0.1 12.8 0.2 12.85 0.45 12.85 0.7 12.8 1.0 12.8 1.25 12.75 1.55 12.7 1.8 12.65 2.05 12.55 2.25 12.45 2.5 12.35 2.7 12.35 2.75 12.3 2.75 12.3 2.8 12.25 2.8 12.25 2.85 12.25 2.85 12.2 2.9 12.2 2.95 12.15 3.0 12.15 3.05 12.15 3.1 12.1 3.1 12.1 3.15 12.1 3.2 12.1 3.3 12.05 3.35 12.05 3.45 12.05 3.6 12.05 3.7 12.1 3.8 12.15 3.9 12.2 4.05 12.25 4.15 12.35 4.25 12.4 4.35 12.5 4.45 12.6 4.55 12.7 4.7 9.35 0.75 12.85 4.9 13.0 5.05 13.05 5.15 L13.05 5.15" fill="#8e831e" fill-rule="evenodd" stroke="none"/>
  </g>
</svg>
