<?xml version="1.0" encoding="UTF-8" standalone="no"?>
<svg xmlns:xlink="http://www.w3.org/1999/xlink" height="62.45px" width="29.7px" xmlns="http://www.w3.org/2000/svg">
  <g transform="matrix(1.0, 0.0, 0.0, 1.0, 14.85, 31.25)">
    <path d="M12.45 25.9 Q12.25 26.1 12.0 26.3 11.8 26.5 11.55 26.7 11.35 26.9 11.1 27.05 10.85 27.2 10.6 27.35 10.4 27.5 10.15 27.65 9.9 27.75 9.6 27.9 9.35 28.0 9.1 28.15 8.85 28.25 8.55 28.35 7.9 28.6 7.25 28.8 6.65 28.95 6.0 29.1 5.35 29.25 4.7 29.35 4.05 29.45 3.35 29.55 2.7 29.6 2.05 29.65 1.4 29.65 0.75 29.65 0.05 29.65 -0.6 29.65 -1.25 29.6 -1.95 29.55 -2.3 29.5 -2.65 29.45 -2.95 29.45 -3.3 29.4 -3.65 29.3 -3.95 29.25 -4.3 29.2 -4.65 29.1 -4.95 29.05 -5.3 28.95 -5.65 28.9 -5.95 28.8 -6.3 28.7 -6.6 28.6 -6.95 28.5 -7.25 28.4 -7.6 28.25 -7.9 28.15 -8.25 28.0 -8.6 27.85 -8.9 27.7 -9.2 27.55 -9.55 27.4 -9.85 27.2 -10.15 27.0 -10.45 26.8 -10.75 26.6 -11.0 26.4 -11.3 26.2 -11.55 25.95 -11.85 25.7 -12.05 25.45 -12.25 25.25 -12.4 25.05 -12.55 24.9 -12.7 24.7 -12.85 24.5 -12.95 24.25 -13.1 24.05 -13.2 23.85 -13.3 23.6 -13.4 23.4 -13.5 23.15 -13.55 22.95 -13.65 22.7 -13.7 22.45 -13.75 22.2 -13.8 21.95 -13.9 21.6 -13.95 21.25 -14.0 20.9 -14.0 20.55 -14.05 20.2 -14.05 19.8 -14.1 19.45 -14.05 19.1 -14.05 18.75 -14.05 18.4 -14.0 18.05 -13.95 17.7 -13.95 17.35 -13.85 17.0 -13.8 16.65 -13.75 16.25 -13.6 15.55 -12.65 12.05 -12.55 11.7 -12.45 11.35 -12.4 11.0 -12.3 10.6 -12.25 10.25 -12.2 9.9 -12.15 9.55 -12.1 9.2 -12.05 8.85 -12.05 8.45 -12.0 8.1 -12.0 7.75 -11.95 7.4 -11.95 7.0 -11.95 6.65 -12.0 6.3 -12.1 3.65 -12.05 -1.15 -12.05 -1.55 -12.0 -1.9 -12.0 -2.25 -11.9 -2.6 -11.85 -2.95 -11.75 -3.25 -11.65 -3.6 -11.5 -3.9 -11.35 -4.2 -11.15 -4.5 -10.95 -4.8 -10.75 -5.05 -10.5 -5.35 -10.25 -5.6 -9.95 -5.85 -9.65 -6.1 -9.55 -6.2 -9.45 -6.25 -9.4 -6.3 -9.35 -6.35 -9.3 -6.4 -9.25 -6.45 -9.2 -6.5 -9.2 -6.55 -9.2 -6.6 -9.2 -6.65 -9.2 -6.7 -9.25 -6.8 -9.25 -6.85 -9.3 -7.0 -9.3 -7.0 -9.4 -7.2 -9.45 -7.35 -9.5 -7.55 -9.55 -7.7 -9.6 -7.85 -9.65 -8.05 -9.7 -8.2 -9.7 -8.35 -9.75 -8.55 -9.75 -8.7 -9.8 -8.9 -9.8 -9.05 -9.8 -9.2 -9.8 -9.4 -9.8 -9.55 -9.8 -9.75 -9.8 -9.9 -9.7 -12.0 -9.55 -12.8 -9.55 -12.9 -9.5 -13.05 -9.45 -13.15 -9.4 -13.25 -9.4 -13.35 -9.35 -13.5 -9.3 -13.6 -9.25 -13.7 -9.2 -13.8 -9.15 -13.95 -9.1 -14.05 -9.05 -14.15 -9.0 -14.25 -8.9 -14.35 -8.85 -14.45 -8.8 -14.55 -8.7 -14.7 -8.6 -14.85 -8.5 -15.0 -8.4 -15.15 -8.25 -15.3 -8.15 -15.4 -8.0 -15.55 -7.85 -15.65 -7.75 -15.75 -7.6 -15.85 -7.45 -15.95 -7.3 -16.05 -7.1 -16.15 -6.95 -16.2 -6.8 -16.3 -6.6 -16.35 -6.55 -16.35 -6.55 -16.4 -6.5 -16.4 -6.5 -16.45 -6.45 -16.45 -6.45 -16.5 -6.4 -16.55 -6.4 -16.55 -6.4 -16.6 -6.35 -16.65 -6.35 -16.7 -6.35 -16.75 -6.3 -16.75 -6.3 -16.8 -6.3 -16.85 -6.3 -16.9 -6.3 -17.0 -6.2 -18.6 -6.2 -18.9 -6.1 -19.15 -6.05 -19.45 -5.95 -19.7 -5.9 -19.95 -5.75 -20.2 -5.65 -20.4 -5.5 -20.65 -5.35 -20.85 -5.15 -21.05 -5.0 -21.25 -4.8 -21.45 -4.6 -21.6 -4.4 -21.8 -4.2 -21.95 -3.95 -22.15 -3.8 -22.25 -3.5 -22.4 -3.1 -22.55 -3.0 -22.6 -2.95 -22.6 -2.9 -22.65 -2.9 -22.65 -2.85 -22.7 -2.8 -22.7 -2.75 -22.7 -2.7 -22.75 -2.65 -22.75 -2.6 -22.8 -2.6 -22.8 -2.55 -22.8 -2.5 -22.85 -2.45 -22.85 -2.45 -22.9 -2.4 -22.9 -2.35 -22.95 -2.3 -23.0 -2.25 -23.05 -2.15 -23.1 -2.15 -23.15 -2.1 -23.2 -2.05 -23.25 -2.0 -23.3 -2.0 -23.4 -1.95 -23.45 -1.95 -23.5 -1.95 -23.6 -1.95 -23.65 -1.95 -23.75 -1.95 -23.8 -1.95 -23.9 -2.0 -23.95 -2.3 -25.2 -2.4 -25.85 -2.45 -26.15 -2.45 -26.45 -2.4 -26.75 -2.35 -27.0 -2.25 -27.3 -2.15 -27.6 -2.0 -27.85 -1.85 -28.1 -1.65 -28.35 -1.45 -28.6 -1.25 -28.8 -1.0 -29.0 -0.8 -29.2 -0.55 -29.35 -0.3 -29.5 -0.05 -29.6 0.4 -29.75 0.85 -29.8 1.3 -29.8 1.7 -29.7 2.1 -29.6 2.5 -29.4 2.9 -29.2 3.2 -28.95 3.55 -28.65 3.8 -28.3 4.05 -28.0 4.25 -27.6 4.4 -27.25 4.5 -26.85 4.55 -26.45 4.55 -26.1 4.5 -25.65 4.4 -24.9 4.2 -23.85 4.2 -23.75 4.2 -23.65 4.15 -23.55 4.15 -23.4 4.15 -23.35 4.15 -23.25 4.2 -23.15 4.2 -23.1 4.25 -23.05 4.25 -22.95 4.3 -22.9 4.35 -22.85 4.45 -22.8 4.5 -22.75 4.6 -22.65 4.65 -22.6 4.8 -22.55 6.25 -21.7 6.6 -21.45 6.8 -21.3 6.95 -21.15 7.1 -21.0 7.2 -20.8 7.35 -20.65 7.45 -20.45 7.55 -20.25 7.65 -20.05 7.75 -19.85 7.8 -19.65 7.9 -19.45 7.95 -19.25 8.0 -19.05 8.0 -18.8 8.05 -18.6 8.05 -18.35 8.1 -17.9 8.05 -16.75 8.05 -16.7 8.05 -16.6 8.05 -16.55 8.05 -16.5 8.1 -16.4 8.1 -16.35 8.1 -16.3 8.15 -16.25 8.15 -16.2 8.2 -16.15 8.25 -16.1 8.3 -16.1 8.35 -16.05 8.4 -16.0 8.45 -15.95 8.5 -15.95 8.7 -15.85 8.9 -15.75 9.1 -15.6 9.3 -15.5 9.5 -15.35 9.65 -15.2 9.8 -15.1 9.95 -14.9 10.15 -14.75 10.25 -14.6 10.4 -14.4 10.55 -14.25 10.65 -14.05 10.75 -13.85 10.85 -13.65 10.95 -13.45 11.0 -13.3 11.05 -13.2 11.1 -13.05 11.1 -12.95 11.15 -12.8 11.2 -12.65 11.25 -12.55 11.25 -12.4 11.3 -12.25 11.3 -12.1 11.35 -12.0 11.35 -11.85 11.35 -11.7 11.4 -11.6 11.4 -11.45 11.4 -11.3 11.4 -10.6 11.2 -7.65 11.2 -7.6 11.2 -7.6 11.2 -7.55 11.15 -7.5 11.15 -7.45 11.15 -7.45 11.15 -7.4 11.1 -7.35 11.1 -7.3 11.1 -7.3 11.05 -7.25 11.05 -7.2 11.05 -7.15 11.0 -7.15 11.0 -7.1 10.95 -7.05 10.9 -6.95 10.85 -6.85 10.8 -6.75 10.75 -6.7 10.75 -6.6 10.75 -6.5 10.75 -6.45 10.75 -6.4 10.75 -6.3 10.8 -6.25 10.8 -6.2 10.85 -6.1 10.95 -6.05 11.0 -5.95 11.1 -5.9 11.2 -5.8 11.3 -5.7 11.4 -5.6 11.5 -5.5 11.6 -5.4 11.7 -5.3 11.8 -5.2 11.9 -5.1 12.0 -5.0 12.05 -4.85 12.15 -4.75 12.25 -4.65 12.3 -4.5 12.4 -4.4 12.5 -4.3 12.55 -4.15 12.65 -4.0 12.75 -3.8 12.9 -3.55 13.0 -3.35 13.05 -3.1 13.15 -2.9 13.25 -2.65 13.3 -2.45 13.35 -2.2 13.4 -1.95 13.45 -1.75 13.45 -1.5 13.5 -1.25 13.5 -1.0 13.5 -0.75 13.55 -0.55 13.5 -0.3 13.5 1.05 13.4 3.25 13.3 5.9 13.25 6.8 13.2 9.7 13.3 11.0 13.35 11.5 14.0 14.35 14.15 14.95 14.2 15.2 14.3 15.65 14.4 16.05 14.5 16.5 14.55 16.9 14.65 17.35 14.7 17.75 14.75 18.2 14.8 18.6 14.8 19.05 14.85 19.5 14.85 19.95 14.8 20.35 14.8 20.8 14.7 21.25 14.65 21.6 14.6 21.9 14.5 22.25 14.45 22.55 14.35 22.9 14.25 23.2 14.1 23.5 14.0 23.8 13.85 24.1 13.7 24.35 13.5 24.65 13.35 24.9 13.15 25.15 12.9 25.4 12.7 25.65 12.45 25.9 L12.45 25.9 M10.15 -4.15 Q9.8 -4.55 9.8 -4.55 9.7 -4.65 9.6 -4.75 9.5 -4.8 9.4 -4.9 9.3 -4.95 9.2 -4.95 9.1 -5.0 9.0 -5.0 8.9 -5.0 8.8 -5.0 8.7 -5.0 8.55 -5.0 8.45 -4.95 8.35 -4.95 8.25 -4.9 8.1 -4.9 6.15 -4.4 4.8 -4.2 4.0 -4.1 2.1 -4.05 1.5 -4.05 0.95 -4.05 0.35 -4.0 -0.2 -4.05 -0.8 -4.05 -1.35 -4.05 -1.95 -4.1 -2.5 -4.15 -3.1 -4.2 -3.65 -4.3 -4.25 -4.4 -4.8 -4.5 -5.35 -4.6 -5.9 -4.75 -6.5 -4.9 -7.0 -5.1 -7.05 -5.1 -7.1 -5.15 -7.15 -5.15 -7.25 -5.15 -7.3 -5.15 -7.35 -5.15 -7.4 -5.15 -7.45 -5.15 -7.55 -5.15 -7.6 -5.1 -7.65 -5.1 -7.7 -5.1 -7.75 -5.05 -7.8 -5.05 -7.85 -5.05 -7.9 -5.0 -8.0 -4.95 -8.1 -4.9 -8.15 -4.8 -8.25 -4.75 -8.35 -4.7 -8.4 -4.6 -8.5 -4.55 -8.6 -4.5 -8.65 -4.4 -8.75 -4.35 -8.8 -4.25 -8.9 -4.2 -8.95 -4.1 -9.05 -4.05 -9.1 -3.95 -9.2 -3.9 -9.25 -3.85 -9.3 -3.75 -9.35 -3.7 -9.4 -3.65 -9.45 -3.6 -9.5 -3.5 -9.55 -3.45 -9.6 -3.4 -9.65 -3.3 -9.7 -3.25 -9.75 -3.15 -9.75 -3.1 -9.8 -3.0 -9.85 -2.95 -9.85 -2.85 -9.9 -2.8 -9.95 -2.7 -9.95 -2.55 -10.0 -2.45 -10.0 -2.3 -10.05 -2.2 -10.05 -2.05 -10.05 -1.95 -10.1 -1.85 -10.1 -1.7 -10.1 -1.6 -10.15 -1.45 -10.15 -1.35 -10.15 -1.2 -10.15 -1.1 -10.15 -0.95 -10.15 -0.85 -10.2 2.25 -10.1 6.0 -10.1 6.35 -10.1 6.7 -10.1 7.05 -10.1 7.35 -10.1 7.7 -10.1 8.05 -10.1 8.4 -10.15 8.7 -10.15 9.05 -10.2 9.4 -10.2 9.75 -10.25 10.05 -10.35 10.4 -10.4 10.75 -10.45 11.1 -10.55 11.4 -11.15 13.7 -11.75 16.15 -11.85 16.45 -11.9 16.75 -11.95 17.05 -12.0 17.35 -12.05 17.7 -12.1 18.0 -12.15 18.3 -12.15 18.6 -12.2 18.9 -12.2 19.2 -12.2 19.55 -12.2 19.85 -12.2 20.15 -12.15 20.45 -12.15 20.75 -12.1 21.1 -12.05 21.35 -12.0 21.55 -11.95 21.75 -11.9 22.0 -11.85 22.2 -11.75 22.4 -11.7 22.6 -11.6 22.8 -11.5 23.0 -11.4 23.2 -11.3 23.4 -11.15 23.6 -11.05 23.8 -10.9 23.95 -10.75 24.15 -10.6 24.3 -10.4 24.5 -10.2 24.65 -10.0 24.85 -9.8 25.0 -9.55 25.15 -9.35 25.3 -9.1 25.45 -8.9 25.6 -8.65 25.75 -8.4 25.85 -8.2 26.0 -7.95 26.1 -7.7 26.2 -7.45 26.3 -7.2 26.4 -6.95 26.5 -6.6 26.65 -6.25 26.75 -5.95 26.85 -5.6 26.95 -5.25 27.05 -4.9 27.15 -4.55 27.2 -4.2 27.3 -3.85 27.35 -3.5 27.4 -3.15 27.5 -2.8 27.55 -2.45 27.6 -2.1 27.6 -1.75 27.65 -1.35 27.7 -1.05 27.7 -0.75 27.75 -0.45 27.75 -0.15 27.75 0.15 27.75 0.45 27.75 0.75 27.75 1.1 27.75 1.4 27.75 1.7 27.75 2.0 27.75 2.3 27.7 2.6 27.7 2.9 27.65 3.2 27.65 3.5 27.6 3.75 27.55 4.05 27.55 4.3 27.5 4.6 27.45 4.85 27.4 5.1 27.35 5.35 27.3 5.65 27.25 5.9 27.2 6.15 27.15 6.4 27.05 6.65 27.0 6.95 26.95 7.2 26.85 7.45 26.75 7.7 26.7 7.9 26.65 8.1 26.55 8.35 26.45 8.55 26.35 8.75 26.25 8.95 26.15 9.15 26.05 9.35 25.95 9.5 25.85 9.7 25.7 9.9 25.6 10.1 25.45 10.25 25.35 10.45 25.2 10.6 25.05 10.8 24.9 10.95 24.75 11.15 24.6 11.3 24.4 11.45 24.25 11.6 24.05 11.7 23.9 11.85 23.7 11.95 23.5 12.1 23.3 12.2 23.1 12.3 22.9 12.4 22.7 12.5 22.5 12.55 22.3 12.65 22.05 12.7 21.85 12.75 21.65 12.8 21.4 12.85 21.2 12.9 20.95 12.95 20.75 12.95 20.5 12.95 20.3 13.0 20.05 13.0 19.85 13.0 19.6 13.0 19.35 13.0 19.15 12.95 18.9 12.95 18.7 12.9 18.45 12.9 18.25 12.85 17.9 12.8 17.6 12.7 17.25 12.65 16.9 12.6 16.55 12.55 16.25 12.45 15.9 12.4 15.55 12.35 15.25 12.25 14.9 12.2 14.55 12.1 14.25 12.05 13.9 12.0 13.55 11.9 13.25 11.85 12.9 11.8 12.6 11.7 12.3 11.65 12.0 11.6 11.7 11.55 11.4 11.5 11.1 11.45 10.75 11.4 10.45 11.4 10.15 11.35 9.85 11.35 9.55 11.3 9.25 11.3 8.9 11.3 8.6 11.3 8.3 11.3 8.0 11.55 3.1 11.65 -0.1 11.65 -0.4 11.65 -0.65 11.65 -0.95 11.6 -1.2 11.55 -1.5 11.5 -1.75 11.45 -2.05 11.4 -2.3 11.3 -2.55 11.2 -2.8 11.05 -3.05 10.9 -3.25 10.75 -3.5 10.6 -3.7 10.4 -3.95 10.15 -4.15 L10.15 -4.15 M5.5 -19.95 Q5.3 -20.05 5.0 -20.25 4.65 -20.5 4.5 -20.6 4.5 -20.6 3.7 -21.05 3.25 -21.35 2.95 -21.55 2.85 -21.65 2.75 -21.7 2.65 -21.8 2.6 -21.9 2.5 -22.0 2.45 -22.1 2.4 -22.2 2.35 -22.3 2.3 -22.4 2.25 -22.5 2.25 -22.6 2.2 -22.75 2.2 -22.85 2.2 -23.0 2.2 -23.1 2.25 -23.25 2.3 -23.65 2.55 -24.85 2.6 -25.05 2.6 -25.15 2.6 -25.3 2.65 -25.4 2.65 -25.55 2.65 -25.7 2.65 -25.8 2.65 -25.95 2.65 -26.1 2.65 -26.2 2.65 -26.35 2.6 -26.5 2.55 -26.6 2.5 -26.75 2.45 -26.9 2.4 -27.0 2.35 -27.1 2.25 -27.2 2.15 -27.35 2.05 -27.4 1.95 -27.5 1.85 -27.6 1.75 -27.65 1.65 -27.7 1.55 -27.75 1.45 -27.8 1.3 -27.85 1.2 -27.85 1.1 -27.9 0.95 -27.9 0.85 -27.85 0.7 -27.85 0.6 -27.8 0.5 -27.75 0.4 -27.7 0.25 -27.65 0.15 -27.55 0.05 -27.45 -0.05 -27.35 -0.1 -27.25 -0.2 -27.15 -0.25 -27.05 -0.35 -26.9 -0.4 -26.8 -0.45 -26.65 -0.45 -26.55 -0.5 -26.45 -0.45 -26.3 -0.45 -26.2 -0.45 -26.05 -0.45 -25.95 -0.45 -25.8 -0.4 -25.7 -0.4 -25.6 -0.4 -25.45 -0.4 -25.35 -0.35 -25.2 -0.35 -25.1 -0.3 -25.0 -0.3 -24.85 -0.3 -24.75 -0.25 -24.6 -0.2 -24.5 -0.2 -24.4 -0.1 -24.15 -0.1 -23.85 -0.05 -23.6 -0.05 -23.35 -0.1 -23.1 -0.15 -22.9 -0.2 -22.65 -0.3 -22.45 -0.35 -22.25 -0.5 -22.05 -0.65 -21.9 -0.8 -21.7 -1.0 -21.55 -1.2 -21.4 -1.45 -21.25 -1.7 -21.15 -1.8 -21.1 -1.9 -21.05 -2.0 -21.0 -2.1 -20.95 -2.2 -20.9 -2.25 -20.85 -2.35 -20.8 -2.45 -20.75 -2.55 -20.7 -2.65 -20.65 -2.75 -20.6 -2.8 -20.55 -2.9 -20.5 -3.0 -20.45 -3.1 -20.4 -3.2 -20.35 -3.25 -20.3 -3.3 -20.25 -3.35 -20.25 -3.4 -20.2 -3.45 -20.15 -3.45 -20.1 -3.5 -20.05 -3.55 -20.0 -3.6 -19.95 -3.65 -19.9 -3.65 -19.85 -3.7 -19.8 -3.75 -19.75 -3.8 -19.7 -3.8 -19.65 -3.85 -19.6 -3.95 -19.4 -4.05 -19.2 -4.1 -19.05 -4.2 -18.8 -4.25 -18.65 -4.3 -18.4 -4.3 -18.25 -4.35 -18.0 -4.35 -17.85 -4.35 -17.6 -4.4 -17.4 -4.4 -17.2 -4.4 -17.05 -4.4 -16.8 -4.4 -16.8 -4.4 -16.4 -4.4 -16.35 -4.4 -16.3 -4.35 -16.2 -4.35 -16.15 -4.35 -16.1 -4.3 -16.05 -4.3 -16.0 -4.25 -15.95 -4.2 -15.95 -4.2 -15.9 -4.15 -15.85 -4.1 -15.8 -4.05 -15.8 -4.0 -15.75 -3.95 -15.7 -3.9 -15.7 -3.7 -15.6 -3.5 -15.5 -3.3 -15.45 -3.05 -15.35 -2.85 -15.3 -2.65 -15.25 -2.45 -15.2 -2.2 -15.15 -2.0 -15.1 -1.8 -15.05 -1.55 -15.05 -1.35 -15.0 -1.15 -15.0 -0.9 -15.0 -0.7 -15.0 -0.45 -15.0 1.1 -15.05 4.05 -15.3 4.45 -15.35 5.6 -15.6 5.65 -15.6 5.7 -15.65 5.8 -15.65 5.85 -15.7 5.9 -15.7 5.9 -15.75 5.95 -15.8 6.0 -15.85 6.05 -15.85 6.05 -15.9 6.1 -15.95 6.1 -16.0 6.15 -16.05 6.15 -16.15 6.15 -16.2 6.15 -16.25 6.2 -17.95 6.15 -18.2 6.15 -18.3 6.15 -18.45 6.1 -18.55 6.1 -18.65 6.1 -18.8 6.05 -18.9 6.05 -19.0 6.0 -19.1 5.95 -19.25 5.9 -19.35 5.85 -19.45 5.8 -19.55 5.75 -19.65 5.65 -19.75 5.6 -19.85 5.5 -19.95 L5.5 -19.95 M5.95 -13.65 Q5.9 -13.65 5.9 -13.65 5.85 -13.65 5.85 -13.65 5.8 -13.65 5.75 -13.65 5.7 -13.65 5.7 -13.65 5.65 -13.7 5.65 -13.7 5.6 -13.7 5.55 -13.7 5.55 -13.7 5.5 -13.7 5.45 -13.7 5.45 -13.7 3.25 -13.45 2.85 -13.45 2.7 -13.45 2.65 -13.4 2.55 -13.4 2.5 -13.4 2.4 -13.4 2.35 -13.35 2.3 -13.35 2.3 -13.3 2.25 -13.25 2.25 -13.2 2.2 -13.15 2.2 -13.1 2.2 -13.05 2.2 -12.95 2.2 -12.85 2.2 -12.75 2.2 -12.35 2.2 -12.0 2.2 -11.65 2.2 -11.3 2.2 -10.9 2.2 -10.55 2.25 -10.2 2.25 -9.8 2.3 -9.45 2.35 -9.1 2.4 -8.75 2.45 -8.35 2.5 -8.0 2.6 -7.65 2.65 -7.3 2.75 -6.95 2.8 -6.85 2.8 -6.75 2.85 -6.65 2.9 -6.55 2.9 -6.5 2.95 -6.45 3.0 -6.4 3.05 -6.35 3.15 -6.3 3.2 -6.25 3.25 -6.25 3.35 -6.2 3.45 -6.2 3.5 -6.2 3.6 -6.2 3.75 -6.2 3.8 -6.2 3.9 -6.2 3.95 -6.2 4.05 -6.2 4.1 -6.2 4.2 -6.2 4.25 -6.25 4.35 -6.25 4.4 -6.25 4.5 -6.25 4.55 -6.25 4.65 -6.25 4.7 -6.25 4.8 -6.3 4.85 -6.3 4.95 -6.3 5.05 -6.3 5.2 -6.35 5.3 -6.35 5.4 -6.4 5.5 -6.45 5.6 -6.5 5.7 -6.55 5.75 -6.6 5.85 -6.65 5.9 -6.75 6.0 -6.85 6.05 -6.9 6.1 -7.0 6.1 -7.15 6.15 -7.25 6.2 -7.35 6.2 -7.4 6.2 -7.5 6.25 -7.55 6.25 -7.65 6.25 -7.7 6.25 -7.75 6.3 -7.85 6.3 -7.9 6.3 -8.0 6.3 -8.05 6.3 -8.1 6.3 -8.2 6.35 -8.25 6.35 -8.3 6.35 -8.4 6.35 -8.45 6.3 -10.05 6.15 -13.15 6.15 -13.2 6.15 -13.25 6.1 -13.3 6.1 -13.35 6.1 -13.35 6.05 -13.4 6.0 -13.5 6.0 -13.5 6.0 -13.6 5.95 -13.65 L5.95 -13.65 M-3.0 -6.3 Q-2.95 -6.3 -2.9 -6.25 -2.9 -6.25 -2.85 -6.25 -2.8 -6.25 -2.75 -6.2 -2.7 -6.2 -2.7 -6.2 -2.65 -6.2 -2.65 -6.15 -2.6 -6.15 -2.6 -6.15 -2.55 -6.15 -2.5 -6.15 -2.5 -6.15 -2.45 -6.15 -1.5 -6.1 0.2 -6.05 -0.1 -6.05 0.5 -6.05 0.7 -6.0 0.75 -6.0 0.85 -6.0 0.9 -6.05 1.0 -6.05 1.0 -6.1 1.05 -6.15 1.05 -6.2 1.05 -6.25 1.05 -6.4 1.05 -6.45 1.0 -6.65 1.0 -6.95 1.0 -7.0 0.95 -7.05 0.95 -7.1 0.5 -9.95 0.5 -10.3 0.45 -10.5 0.45 -12.55 0.45 -12.65 0.45 -12.75 0.4 -12.8 0.4 -12.9 0.4 -12.95 0.35 -13.0 0.35 -13.05 0.3 -13.1 0.25 -13.1 0.2 -13.15 0.15 -13.15 0.1 -13.15 0.05 -13.2 -0.05 -13.2 -0.15 -13.2 -0.25 -13.2 -0.4 -13.2 -0.55 -13.2 -0.7 -13.2 -0.85 -13.15 -1.0 -13.15 -1.15 -13.15 -1.3 -13.15 -1.45 -13.15 -1.6 -13.15 -1.8 -13.15 -1.95 -13.15 -2.1 -13.15 -2.25 -13.15 -2.4 -13.15 -2.55 -13.15 -2.7 -13.15 -2.75 -13.15 -2.8 -13.15 -2.9 -13.15 -2.95 -13.15 -3.0 -13.15 -3.0 -13.1 -3.05 -13.1 -3.1 -13.05 -3.15 -13.05 -3.15 -13.0 -3.2 -13.0 -3.2 -12.95 -3.2 -12.9 -3.25 -12.85 -3.25 -12.8 -3.25 -12.7 -3.3 -12.35 -3.3 -12.05 -3.35 -11.75 -3.35 -11.4 -3.35 -11.1 -3.4 -10.8 -3.4 -10.45 -3.4 -10.15 -3.4 -9.8 -3.4 -9.5 -3.4 -9.15 -3.4 -8.85 -3.35 -8.55 -3.35 -8.2 -3.3 -7.9 -3.3 -7.55 -3.25 -7.3 -3.15 -6.95 -3.0 -6.45 -3.0 -6.3 L-3.0 -6.3 M-7.0 -7.2 Q-7.0 -7.2 -6.95 -7.15 -6.9 -7.15 -6.9 -7.1 -6.85 -7.1 -6.8 -7.05 -6.75 -7.05 -6.75 -7.0 -6.0 -6.75 -5.5 -6.55 -5.45 -6.55 -5.35 -6.5 -5.3 -6.5 -5.25 -6.5 -5.2 -6.5 -5.15 -6.5 -5.15 -6.5 -5.1 -6.55 -5.05 -6.55 -5.05 -6.6 -5.05 -6.6 -5.0 -6.65 -5.0 -6.7 -5.0 -6.75 -5.0 -6.8 -5.0 -6.9 -5.0 -7.1 -5.05 -7.6 -5.05 -8.05 -5.05 -8.3 -5.05 -10.2 -4.95 -12.8 -4.95 -12.85 -4.95 -12.9 -4.95 -13.0 -4.95 -13.05 -4.95 -13.1 -4.95 -13.15 -4.95 -13.2 -5.0 -13.25 -5.0 -13.3 -5.05 -13.35 -5.05 -13.4 -5.1 -13.45 -5.1 -13.45 -5.15 -13.5 -5.2 -13.5 -5.25 -13.5 -5.3 -13.5 -5.4 -13.55 -5.45 -13.55 -5.55 -13.55 -5.65 -13.6 -5.7 -13.6 -5.8 -13.6 -5.85 -13.6 -5.95 -13.6 -6.0 -13.6 -6.1 -13.6 -6.15 -13.55 -6.2 -13.55 -6.25 -13.55 -6.35 -13.5 -6.35 -13.45 -6.5 -13.35 -6.6 -13.25 -6.7 -13.15 -6.8 -13.0 -6.9 -12.9 -7.0 -12.75 -7.1 -12.6 -7.15 -12.45 -7.25 -12.3 -7.3 -12.15 -7.35 -12.0 -7.45 -11.85 -7.5 -11.7 -7.5 -11.55 -7.55 -11.4 -7.6 -11.25 -7.65 -11.15 -7.65 -11.0 -7.65 -10.85 -7.7 -10.75 -7.7 -10.6 -7.7 -10.5 -7.7 -10.35 -7.7 -10.2 -7.75 -10.1 -7.75 -9.95 -7.75 -9.85 -7.75 -9.7 -7.75 -9.6 -7.7 -9.45 -7.75 -9.85 -7.7 -9.2 -7.7 -9.05 -7.7 -8.95 -7.7 -8.8 -7.65 -8.65 -7.65 -8.55 -7.65 -8.4 -7.6 -8.3 -7.55 -8.15 -7.5 -8.05 -7.45 -7.9 -7.4 -7.8 -7.35 -7.65 -7.3 -7.55 -7.2 -7.45 -7.1 -7.3 -7.0 -7.2 L-7.0 -7.2 M8.5 -7.95 Q8.6 -8.05 8.65 -8.2 8.75 -8.3 8.8 -8.4 8.9 -8.55 8.95 -8.65 9.0 -8.75 9.05 -8.9 9.1 -9.0 9.15 -9.15 9.15 -9.25 9.2 -9.4 9.2 -9.5 9.2 -9.65 9.2 -9.75 9.2 -9.9 9.2 -10.85 8.95 -12.55 8.95 -12.6 8.9 -12.65 8.9 -12.7 8.9 -12.75 8.85 -12.8 8.85 -12.85 8.8 -12.9 8.8 -12.95 8.75 -13.0 8.75 -13.05 8.7 -13.1 8.65 -13.1 8.65 -13.15 8.6 -13.2 8.55 -13.25 8.55 -13.3 8.55 -13.3 7.95 -13.5 7.95 -13.4 7.9 -13.25 7.9 -13.05 7.9 -13.0 7.9 -12.95 7.9 -12.9 7.9 -12.9 7.9 -12.85 7.95 -12.8 7.95 -12.75 7.95 -12.75 7.95 -12.7 7.95 -12.05 8.0 -10.8 8.05 -9.5 8.05 -8.9 8.05 -8.85 8.05 -8.8 8.05 -8.8 8.05 -8.75 8.05 -8.7 8.05 -8.65 8.05 -8.75 8.05 -8.6 8.05 -8.55 8.05 -8.5 8.0 -8.45 8.0 -8.45 8.0 -8.4 8.0 -8.35 8.0 -8.3 8.05 -8.3 8.05 -8.25 8.05 -8.2 8.05 -8.15 8.1 -8.15 8.1 -8.1 8.15 -8.05 8.15 -8.0 8.2 -8.0 8.25 -7.95 8.25 -7.95 8.3 -7.9 8.35 -7.9 8.35 -7.9 8.4 -7.95 8.5 -7.95 8.5 -7.95 L8.5 -7.95" fill="#000000" fill-rule="evenodd" stroke="none"/>
    <path d="M-4.8 7.7 Q-5.55 7.8 -5.6 7.8 -5.7 7.75 -5.75 7.75 -5.85 7.7 -5.9 7.65 -5.95 7.6 -6.0 7.55 -6.1 7.5 -6.15 7.45 -6.15 7.4 -6.2 7.3 -6.25 7.25 -6.25 7.15 -6.3 7.1 -6.3 7.0 -6.35 6.9 -6.35 6.85 -6.35 6.65 -6.4 6.15 -6.4 5.7 -6.4 5.45 -6.7 2.5 -6.7 2.25 -6.7 1.7 -6.45 0.4 -6.45 0.3 -6.4 0.25 -6.4 0.2 -6.35 0.1 -6.3 0.05 -6.25 0.0 -6.2 0.0 -6.15 -0.05 -6.1 -0.1 -6.05 -0.1 -5.95 -0.15 -5.9 -0.15 -5.85 -0.15 -5.75 -0.15 -5.7 -0.2 -5.6 -0.2 -5.5 -0.2 -5.45 -0.2 -5.4 -0.15 -5.3 -0.15 -5.25 -0.1 -5.2 -0.1 -5.15 -0.05 -5.1 0.0 -5.05 0.0 -5.0 0.05 -4.95 0.1 -4.9 0.2 -4.9 0.25 -4.85 0.3 -4.85 0.35 -4.8 0.45 -4.75 0.65 -4.75 1.0 -4.75 1.25 -4.7 1.55 -4.7 1.8 -4.7 2.05 -4.7 2.3 -4.65 2.6 -4.65 2.85 -4.65 3.1 -4.65 3.35 -4.6 3.65 -4.6 3.9 -4.6 4.15 -4.6 4.45 -4.55 4.7 -4.55 4.95 -4.55 5.2 -4.5 6.4 -4.5 6.95 -4.5 7.0 -4.5 7.05 -4.55 7.05 -4.55 7.1 -4.55 7.15 -4.6 7.2 -4.6 7.25 -4.6 7.3 -4.65 7.3 -4.65 7.4 -4.7 7.45 -4.7 7.5 -4.75 7.55 -4.75 7.6 -4.8 7.65 -4.8 7.7 L-4.8 7.7" fill="#000000" fill-rule="evenodd" stroke="none"/>
  </g>
</svg>
