<?xml version="1.0" encoding="UTF-8" standalone="no"?>
<svg xmlns:xlink="http://www.w3.org/1999/xlink" height="99.45px" width="69.4px" xmlns="http://www.w3.org/2000/svg">
  <g transform="matrix(1.0, 0.0, 0.0, 1.0, 34.7, 49.75)">
    <path d="M-4.65 1.85 Q-4.85 1.85 -5.25 1.85 -5.55 1.85 -5.75 1.85 -5.9 1.85 -6.05 1.8 -6.15 1.75 -6.3 1.7 -6.4 1.65 -6.5 1.6 -6.6 1.55 -6.7 1.45 -6.75 1.35 -6.85 1.25 -6.9 1.15 -6.95 1.05 -7.0 0.9 -7.0 0.75 -7.05 0.65 -7.05 0.5 -7.05 -4.6 -7.05 -16.15 -7.05 -16.3 -7.0 -16.4 -7.0 -16.55 -6.95 -16.65 -6.9 -16.75 -6.85 -16.85 -6.8 -16.95 -6.7 -17.0 -6.6 -17.1 -6.5 -17.15 -6.4 -17.2 -6.3 -17.25 -6.2 -17.3 -6.05 -17.3 -5.9 -17.3 -5.75 -17.3 -4.35 -17.3 -0.45 -17.3 2.85 -17.35 4.8 -17.3 4.85 -17.3 5.8 -17.05 6.35 -16.9 6.4 -16.9 7.1 -16.9 7.8 -16.95 8.5 -16.95 9.2 -17.05 9.9 -17.15 10.6 -17.25 11.25 -17.35 11.95 -17.5 12.6 -17.7 13.25 -17.9 13.9 -18.1 14.55 -18.35 15.2 -18.55 15.85 -18.85 16.5 -19.15 17.15 -19.5 17.6 -19.75 18.05 -20.0 18.5 -20.3 18.95 -20.6 19.4 -20.85 19.85 -21.2 20.25 -21.5 20.7 -21.8 21.1 -22.15 21.5 -22.45 21.9 -22.8 22.3 -23.15 22.7 -23.5 23.05 -23.9 23.45 -24.25 23.8 -24.65 23.85 -24.7 23.85 -24.7 23.9 -24.75 23.9 -24.75 23.95 -24.8 24.0 -24.8 24.0 -24.85 24.05 -24.9 24.05 -24.9 24.1 -24.95 24.1 -25.0 24.15 -25.0 24.15 -25.05 24.15 -25.1 24.25 -25.2 24.2 -25.15 24.3 -25.25 24.4 -25.35 24.5 -25.45 24.6 -25.55 24.75 -25.6 24.85 -25.65 24.95 -25.7 25.1 -25.75 25.2 -25.75 25.35 -25.75 25.45 -25.75 25.6 -25.7 25.7 -25.65 25.85 -25.6 25.95 -25.5 26.05 -25.4 26.2 -25.3 26.3 -25.15 26.45 -25.05 26.55 -24.9 26.65 -24.8 26.8 -24.65 26.9 -24.55 27.0 -24.4 27.15 -24.3 27.25 -24.15 27.35 -24.0 27.45 -23.9 27.55 -23.75 27.65 -23.6 27.75 -23.45 27.8 -23.3 28.05 -22.85 28.3 -22.4 28.5 -21.95 28.7 -21.5 28.9 -21.0 29.05 -20.55 29.2 -20.05 29.35 -19.6 29.45 -19.1 29.6 -18.6 29.7 -18.15 29.8 -17.6 29.9 -17.15 30.0 -16.6 30.05 -16.15 30.15 -15.6 30.25 -14.8 30.35 -14.05 30.45 -13.25 30.55 -12.5 30.6 -11.7 30.7 -10.9 30.75 -10.15 30.8 -9.35 30.8 -8.55 30.85 -7.75 30.85 -7.0 30.85 -6.2 30.85 -5.4 30.85 -4.6 30.85 -3.85 30.8 -3.05 30.75 -2.35 30.7 -1.65 30.65 -0.95 30.55 -0.3 30.45 0.4 30.35 1.05 30.2 1.75 30.05 2.4 29.85 3.05 29.65 3.7 29.45 4.35 29.2 5.0 28.95 5.65 28.7 6.25 28.4 6.9 28.1 7.5 28.05 7.6 28.0 7.7 27.95 7.75 27.85 7.85 27.8 7.95 27.7 8.05 27.65 8.1 27.55 8.2 27.5 8.25 27.4 8.35 27.3 8.4 27.25 8.5 27.15 8.55 27.05 8.6 26.95 8.65 26.9 8.75 26.8 8.8 26.7 8.85 26.6 8.85 26.5 8.9 26.45 8.9 26.35 8.9 26.25 8.9 26.15 8.85 26.05 8.85 25.95 8.8 25.9 8.75 25.8 8.7 25.7 8.65 25.65 8.6 25.55 8.55 25.5 8.45 24.8 7.7 24.05 7.05 23.3 6.4 22.5 5.85 21.7 5.25 20.9 4.75 20.05 4.3 19.2 3.85 18.3 3.45 17.4 3.1 16.5 2.8 15.6 2.5 14.65 2.25 13.65 2.05 12.7 1.9 11.7 1.8 11.3 1.75 10.9 1.7 10.5 1.7 10.1 1.65 9.7 1.65 9.3 1.6 8.9 1.6 8.5 1.6 8.1 1.6 7.7 1.6 7.3 1.65 6.9 1.65 6.5 1.7 6.1 1.75 5.7 1.75 5.3 1.8 5.15 1.8 3.95 1.8 3.95 2.1 3.95 2.55 3.95 18.0 3.95 46.85 3.95 47.3 3.95 47.55 3.95 47.7 3.9 47.85 3.85 48.0 3.8 48.1 3.75 48.25 3.65 48.35 3.6 48.45 3.5 48.55 3.4 48.65 3.3 48.7 3.15 48.8 3.05 48.85 2.9 48.9 2.8 48.9 2.65 48.95 2.5 48.95 -0.95 48.95 -3.1 48.95 -3.25 48.95 -3.4 48.9 -3.55 48.9 -3.7 48.8 -3.8 48.75 -3.95 48.65 -4.05 48.6 -4.15 48.45 -4.25 48.35 -4.35 48.2 -4.4 48.1 -4.5 47.95 -4.55 47.8 -4.6 47.6 -4.6 47.45 -4.65 47.25 -4.65 47.15 -4.65 47.0 -4.65 46.8 -4.65 46.7 -4.65 32.0 -4.65 2.6 -4.65 2.35 -4.65 1.85 L-4.65 1.85 M23.85 3.9 Q24.0 3.55 24.15 3.25 24.3 2.95 24.4 2.6 24.55 2.3 24.65 2.0 24.8 1.65 24.9 1.35 25.0 1.0 25.1 0.7 25.2 0.35 25.25 0.05 25.35 -0.3 25.4 -0.6 25.5 -0.95 25.55 -1.3 25.65 -1.9 25.7 -2.5 25.8 -3.1 25.85 -3.75 25.9 -4.35 25.95 -5.0 25.95 -5.6 26.0 -6.2 26.0 -6.8 26.0 -7.45 26.0 -8.05 26.0 -8.65 26.0 -9.25 26.0 -9.9 25.95 -10.5 25.95 -11.15 25.95 -11.75 25.9 -12.3 25.85 -12.85 25.75 -13.45 25.7 -14.0 25.6 -14.55 25.5 -15.15 25.4 -15.7 25.3 -16.25 25.15 -16.8 25.0 -17.35 24.85 -17.9 24.65 -18.45 24.45 -19.0 24.25 -19.55 24.05 -20.05 24.05 -20.05 23.55 -21.1 22.6 -20.3 21.65 -19.55 20.7 -18.85 19.7 -18.2 18.7 -17.6 17.65 -17.1 16.6 -16.6 15.55 -16.15 14.45 -15.75 13.35 -15.45 12.25 -15.15 11.1 -14.9 9.95 -14.7 8.8 -14.6 7.6 -14.5 6.4 -14.45 6.4 -9.85 6.4 -0.7 7.0 -0.75 7.55 -0.75 8.15 -0.75 8.7 -0.75 9.3 -0.75 9.85 -0.75 10.4 -0.7 11.0 -0.65 11.55 -0.6 12.1 -0.55 12.7 -0.5 13.25 -0.4 13.85 -0.3 14.4 -0.2 14.95 -0.1 15.5 0.05 16.05 0.2 16.6 0.35 17.15 0.5 17.7 0.7 18.25 0.9 18.8 1.1 19.3 1.35 19.85 1.55 20.35 1.8 20.85 2.1 21.35 2.35 21.85 2.65 22.35 2.95 22.85 3.25 23.35 3.55 23.85 3.9 L23.85 3.9 M-4.7 -0.3 Q-1.8 -0.3 4.0 -0.3 4.0 -5.25 4.0 -15.2 1.1 -15.2 -4.7 -15.2 -4.7 -10.25 -4.7 -0.3 L-4.7 -0.3 M0.9 45.9 Q0.9 31.2 0.9 1.9 0.05 1.9 -1.6 1.9 -1.6 16.6 -1.6 45.9 -0.75 45.9 0.9 45.9 L0.9 45.9 M24.25 -21.6 Q25.45 -18.4 25.55 -18.2 25.7 -17.75 25.85 -17.25 25.95 -16.75 26.05 -16.25 26.2 -15.8 26.25 -15.3 26.35 -14.8 26.4 -14.3 26.5 -13.85 26.55 -13.35 26.6 -12.85 26.65 -12.35 26.65 -11.85 26.7 -11.35 26.7 -10.9 26.75 -10.35 26.75 -9.8 26.75 -9.25 26.8 -8.7 26.8 -8.2 26.8 -7.65 26.75 -7.1 26.75 -6.55 26.75 -6.0 26.7 -5.45 26.7 -4.95 26.65 -4.4 26.6 -3.85 26.55 -3.3 26.5 -2.75 26.45 -2.2 26.4 -1.7 26.35 -1.35 26.3 -0.95 26.2 -0.6 26.15 -0.25 26.05 0.1 25.95 0.45 25.85 0.85 25.75 1.2 25.65 1.55 25.5 1.9 25.4 2.2 25.25 2.55 25.15 2.9 25.0 3.25 24.85 3.6 24.7 3.95 24.7 4.0 24.65 4.0 24.65 4.05 24.65 4.1 24.65 4.15 24.65 4.2 24.65 4.25 24.65 4.3 24.65 4.3 24.65 4.35 24.65 4.4 24.65 4.45 24.7 4.45 24.7 4.5 24.7 4.5 24.75 4.5 25.0 4.75 26.25 5.75 26.25 5.7 26.3 5.65 26.3 5.65 26.3 5.6 26.35 5.55 26.35 5.55 26.35 5.5 26.4 5.45 26.4 5.45 26.4 5.4 26.65 4.9 26.9 4.35 27.1 3.85 27.3 3.3 27.5 2.8 27.65 2.25 27.8 1.7 27.9 1.15 28.0 0.6 28.1 0.05 28.2 -0.5 28.25 -1.05 28.3 -1.6 28.35 -2.2 28.4 -2.7 28.45 -3.3 28.5 -4.0 28.5 -4.75 28.5 -5.45 28.5 -6.15 28.5 -6.85 28.5 -7.6 28.45 -8.3 28.45 -9.0 28.4 -9.75 28.35 -10.45 28.3 -11.15 28.2 -11.85 28.15 -12.55 28.05 -13.3 28.0 -14.0 27.9 -14.7 27.85 -15.2 27.75 -15.65 27.7 -16.15 27.6 -16.6 27.5 -17.05 27.4 -17.5 27.3 -18.0 27.2 -18.45 27.05 -18.9 26.9 -19.35 26.8 -19.8 26.6 -20.25 26.45 -20.7 26.25 -21.15 26.05 -21.55 25.85 -22.0 25.75 -22.15 25.65 -22.4 25.4 -22.75 25.4 -22.8 24.95 -22.35 24.25 -21.6 L24.25 -21.6" fill="#000000" fill-rule="evenodd" stroke="none"/>
    <path d="M23.85 3.9 Q23.35 3.55 22.85 3.25 22.35 2.95 21.85 2.65 21.35 2.35 20.85 2.1 20.35 1.8 19.85 1.55 19.3 1.3 18.8 1.1 18.25 0.9 17.7 0.7 17.2 0.5 16.65 0.35 16.05 0.2 15.5 0.05 14.95 -0.1 14.4 -0.2 13.8 -0.3 13.25 -0.4 12.7 -0.5 12.1 -0.55 11.55 -0.6 11.0 -0.65 10.4 -0.7 9.85 -0.75 9.25 -0.75 8.7 -0.75 8.1 -0.75 7.55 -0.75 6.95 -0.75 6.4 -0.7 6.4 -5.3 6.4 -14.45 7.6 -14.45 8.8 -14.6 9.95 -14.7 11.1 -14.9 12.25 -15.15 13.35 -15.45 14.5 -15.75 15.55 -16.15 16.6 -16.6 17.65 -17.1 18.7 -17.6 19.7 -18.2 20.7 -18.85 21.65 -19.55 22.6 -20.3 23.55 -21.1 23.65 -20.95 23.8 -20.55 23.95 -20.25 24.05 -20.05 24.25 -19.5 24.45 -19.0 24.65 -18.45 24.85 -17.9 25.0 -17.35 25.15 -16.8 25.3 -16.25 25.4 -15.7 25.5 -15.15 25.6 -14.55 25.7 -14.0 25.75 -13.45 25.85 -12.85 25.85 -12.3 25.9 -11.7 25.95 -11.15 25.95 -10.5 26.0 -9.9 26.0 -9.25 26.0 -8.7 26.0 -8.05 26.0 -7.45 26.0 -6.8 26.0 -6.2 25.95 -5.6 25.95 -5.0 25.9 -4.35 25.85 -3.75 25.8 -3.1 25.7 -2.5 25.65 -1.9 25.55 -1.3 25.5 -0.95 25.4 -0.65 25.35 -0.3 25.25 0.05 25.2 0.35 25.1 0.7 25.0 1.0 24.9 1.35 24.8 1.65 24.65 2.0 24.55 2.3 24.4 2.6 24.3 2.95 24.15 3.25 24.0 3.6 23.85 3.9 L23.85 3.9" fill="#000000" fill-opacity="0.21960784" fill-rule="evenodd" stroke="none"/>
  </g>
</svg>
