<?xml version="1.0" encoding="UTF-8" standalone="no"?>
<svg xmlns:xlink="http://www.w3.org/1999/xlink" height="200.0px" width="200.0px" xmlns="http://www.w3.org/2000/svg">
  <g transform="matrix(1.0, 0.0, 0.0, 1.0, 100.0, 100.0)">
    <path d="M-9.35 10.95 Q-9.3 10.85 -9.2 10.8 -9.1 10.75 -8.9 10.75 -8.7 10.75 -8.4 10.75 -8.15 10.75 -7.7 10.85 -7.45 10.85 -6.85 10.95 -6.05 11.05 -5.75 11.1 -5.1 11.2 -4.45 11.25 -3.7 11.35 -2.95 11.45 -2.0 11.55 -1.3 11.6 -1.3 11.5 -1.35 11.35 -1.35 11.25 -1.35 11.15 -1.35 11.0 -1.35 10.85 -1.35 10.75 -1.35 10.6 -1.35 10.45 -1.35 10.35 -1.3 10.2 -1.3 10.05 -1.25 9.9 -1.25 9.75 -1.2 9.6 -1.15 9.45 -1.1 9.3 -1.05 9.2 -1.05 9.05 -1.0 8.95 -0.95 8.8 -0.85 8.7 -0.8 8.55 -0.75 8.4 -0.65 8.3 -0.6 8.15 -0.5 8.05 -0.4 7.95 -0.25 7.85 -0.15 7.75 0.0 7.65 0.1 7.6 0.2 7.55 0.3 7.55 0.45 7.5 0.55 7.5 0.65 7.5 0.75 7.5 0.85 7.5 0.95 7.5 1.05 7.55 1.1 7.55 1.2 7.55 1.25 7.6 1.35 7.6 1.4 7.65 1.45 7.65 1.5 7.65 1.7 7.7 1.85 7.8 1.95 7.9 2.1 8.0 2.25 8.1 2.35 8.2 2.45 8.3 2.6 8.45 2.7 8.55 2.85 8.75 3.05 9.0 3.15 9.1 3.3 9.3 3.45 9.45 3.65 9.65 3.85 9.85 3.95 9.95 4.05 10.05 4.15 10.15 4.25 10.25 4.35 10.3 4.45 10.4 4.5 10.45 4.6 10.55 4.7 10.6 4.8 10.7 4.85 10.75 4.95 10.8 5.0 10.9 5.1 10.95 5.15 11.0 5.25 11.05 5.4 11.1 5.6 11.1 5.75 11.1 5.9 11.1 6.05 11.15 6.2 11.15 6.3 11.15 6.45 11.1 6.55 11.1 6.7 11.1 6.8 11.1 6.95 11.05 7.05 11.05 7.15 11.05 7.25 11.0 7.3 11.0 7.45 10.95 7.65 10.9 7.8 10.85 7.9 10.8 8.05 10.75 8.15 10.65 8.2 10.65 8.4 10.55 8.55 10.45 8.65 10.4 8.8 10.35 8.9 10.3 9.1 10.25 9.25 10.2 9.4 10.1 9.6 10.05 9.85 10.0 9.85 10.0 10.05 9.95 10.15 9.95 10.3 9.9 10.4 9.9 10.55 9.85 10.7 9.85 10.8 9.85 10.95 9.85 11.05 9.9 11.2 9.9 11.3 9.95 11.4 10.0 11.5 10.05 11.6 10.1 11.65 10.15 11.7 10.2 11.75 10.3 11.8 10.35 11.85 10.4 11.9 10.5 11.95 10.55 11.95 10.65 12.0 10.75 12.0 10.85 12.05 10.95 12.05 11.05 12.05 11.15 12.1 11.25 12.1 11.35 12.1 11.5 12.1 11.55 12.15 11.65 12.15 11.75 12.15 11.8 12.15 11.9 12.2 12.0 12.2 12.15 12.2 12.25 12.2 12.35 12.2 12.5 12.2 12.6 12.2 12.75 12.15 12.85 12.15 13.0 12.1 13.15 12.05 13.3 12.0 13.5 11.9 13.65 11.85 13.85 11.75 13.95 11.7 14.1 11.6 14.2 11.5 14.25 11.4 14.4 11.2 14.55 11.15 14.6 11.05 14.7 10.95 14.8 10.85 14.95 10.75 15.1 10.65 15.3 10.55 15.5 10.45 15.75 10.35 15.95 10.3 16.15 10.3 16.35 10.25 16.55 10.25 16.75 10.25 16.85 10.2 17.1 10.2 17.3 10.2 17.4 10.2 17.55 10.15 17.7 10.1 17.85 10.05 17.95 9.95 18.1 9.85 18.25 9.75 18.35 9.65 18.4 9.55 18.45 9.45 18.5 9.35 18.6 9.25 18.65 9.15 18.65 9.0 18.7 8.9 18.75 8.8 18.75 8.65 18.75 8.55 18.75 8.45 18.75 8.3 18.75 8.2 18.75 8.1 18.7 8.0 18.65 7.9 18.6 7.8 18.55 7.7 18.5 7.6 18.4 7.5 18.35 7.45 18.25 7.35 18.15 7.3 18.05 7.25 17.95 7.2 17.9 7.1 17.75 7.05 17.7 7.0 17.55 7.0 17.5 6.9 17.35 6.8 17.15 6.7 16.95 6.6 16.75 6.5 16.55 6.4 16.3 6.3 16.05 6.2 15.8 6.1 15.55 6.0 15.3 5.85 15.0 5.75 14.75 5.6 14.45 5.5 14.15 5.4 13.85 5.25 13.5 5.15 13.2 5.0 13.3 4.35 13.85 3.1 14.9 2.6 15.25 2.35 15.4 2.2 15.5 2.0 15.65 1.85 15.75 1.7 15.85 1.55 15.95 1.35 16.05 1.2 16.1 1.05 16.2 0.9 16.25 0.75 16.3 0.55 16.35 0.4 16.35 0.25 16.35 0.1 16.35 -0.1 16.35 -0.25 16.3 -0.15 16.35 -0.2 16.35 -0.25 16.3 -0.3 16.3 -0.35 16.3 -0.45 16.25 -0.5 16.25 -0.6 16.2 -0.65 16.2 -0.75 16.15 -0.8 16.1 -0.9 16.05 -1.0 16.0 -1.05 15.95 -1.15 15.9 -1.25 15.85 -1.3 15.75 -1.4 15.65 -1.45 15.6 -1.5 15.5 -1.55 15.4 -1.6 15.35 -1.65 15.25 -1.7 15.15 -1.75 15.05 -1.75 14.95 -1.8 14.9 -1.85 14.8 -1.85 14.7 -1.9 14.65 -1.9 14.5 -1.95 14.4 -1.95 14.35 -2.0 14.25 -2.0 14.15 -2.0 14.1 -2.05 14.0 -2.05 13.9 -2.05 13.85 -2.1 13.75 -2.1 13.7 -2.1 13.65 -2.1 13.55 -2.1 13.5 -2.1 13.45 -2.1 13.4 -2.1 13.35 -2.3 13.35 -2.5 13.35 -2.7 13.35 -2.9 13.4 -3.05 13.4 -3.25 13.4 -3.4 13.4 -3.6 13.4 -3.75 13.4 -3.9 13.35 -4.05 13.35 -4.2 13.35 -4.35 13.35 -4.45 13.35 -4.6 13.35 -4.75 13.35 -5.15 13.3 -5.3 13.3 -5.6 13.3 -5.8 13.25 -6.05 13.25 -6.3 13.2 -6.5 13.15 -6.7 13.1 -6.9 13.1 -7.1 13.0 -7.3 12.95 -7.45 12.9 -7.65 12.8 -7.8 12.75 -8.0 12.65 -8.15 12.5 -8.25 12.45 -8.35 12.35 -8.5 12.25 -8.6 12.15 -8.7 12.05 -8.8 11.95 -8.95 11.85 -9.05 11.75 -9.15 11.6 -9.2 11.5 -9.3 11.4 -9.35 11.3 -9.4 11.2 -9.4 11.1 -9.4 11.0 -9.35 10.95 L-9.35 10.95" fill="#000000" fill-rule="evenodd" stroke="none"/>
    <path d="M-8.3 30.15 Q-8.35 30.05 -8.4 29.95 -8.4 29.8 -8.45 29.7 -8.45 29.6 -8.45 29.5 -8.45 29.4 -8.45 29.25 -8.45 29.15 -8.45 29.05 -8.4 28.95 -8.4 28.8 -8.4 28.7 -8.35 28.6 -8.35 28.5 -8.3 28.35 -8.25 28.2 -8.25 28.15 -8.2 28.0 -8.2 27.9 -8.15 27.75 -8.1 27.6 -8.05 27.45 -7.95 27.3 -7.9 27.1 -7.8 26.95 -7.7 26.8 -7.6 26.65 -7.5 26.5 -7.35 26.35 -7.2 26.2 -7.0 26.1 -6.85 26.0 -6.75 25.95 -6.6 25.85 -6.45 25.8 -6.35 25.75 -6.2 25.75 -6.05 25.7 -5.9 25.7 -5.75 25.65 -5.55 25.65 -5.4 25.65 -5.2 25.65 -5.05 25.65 -4.85 25.65 -4.7 25.7 -4.4 25.7 -4.1 25.7 -3.85 25.75 -3.6 25.75 -3.35 25.8 -3.15 25.85 -2.95 25.9 -2.8 25.95 -2.6 26.0 -2.3 26.1 -2.2 26.15 -2.0 26.2 -1.8 26.25 -1.55 26.3 -1.3 26.35 -1.0 26.4 -0.7 26.4 -0.45 26.4 -0.2 26.45 0.0 26.45 0.25 26.45 0.45 26.45 0.65 26.45 0.85 26.45 1.05 26.45 1.25 26.45 1.4 26.45 1.55 26.4 1.7 26.4 1.85 26.4 1.95 26.4 2.05 26.35 2.15 26.35 2.45 26.3 2.75 26.25 3.0 26.25 3.2 26.2 3.4 26.15 3.6 26.1 3.65 26.1 3.9 26.0 4.05 25.95 4.1 25.95 4.25 25.95 4.35 25.9 4.45 25.9 4.55 25.9 4.7 25.9 4.8 25.95 5.1 26.0 5.35 26.15 5.65 26.25 5.9 26.4 6.15 26.6 6.4 26.8 6.6 27.0 6.8 27.25 7.0 27.5 7.15 27.75 7.3 28.05 7.4 28.3 7.5 28.6 7.5 28.85 7.55 29.15 7.5 29.4 7.45 29.5 7.45 29.65 7.4 29.75 7.35 29.85 7.3 29.95 7.25 30.0 7.2 30.1 7.15 30.2 7.1 30.25 7.05 30.3 7.0 30.4 6.9 30.45 6.9 30.5 6.85 30.55 6.8 30.55 6.75 30.6 6.55 30.8 6.3 30.95 6.05 31.1 5.75 31.2 5.45 31.3 5.15 31.35 4.9 31.4 4.55 31.4 4.25 31.4 3.95 31.35 3.65 31.35 3.35 31.3 3.05 31.25 2.8 31.15 2.5 31.1 2.25 31.0 2.0 30.9 1.75 30.8 1.55 30.7 1.35 30.55 1.25 30.5 1.05 30.35 -0.45 29.3 0.75 30.15 0.6 30.05 0.5 30.0 0.35 29.9 0.25 29.85 0.1 29.8 -0.05 29.8 -0.2 29.75 -0.4 29.8 -0.55 29.8 -0.65 29.85 -0.75 29.85 -0.85 29.9 -0.95 29.95 -1.05 30.0 -1.15 30.05 -1.25 30.15 -1.5 30.3 -1.5 30.3 -1.65 30.4 -1.75 30.5 -1.9 30.6 -2.1 30.7 -2.3 30.8 -2.55 30.9 -2.65 30.95 -2.75 31.0 -2.85 31.05 -3.0 31.1 -3.15 31.15 -3.25 31.2 -3.4 31.25 -3.55 31.3 -3.75 31.35 -3.9 31.4 -4.1 31.4 -4.3 31.45 -4.45 31.5 -4.65 31.5 -4.9 31.5 -5.1 31.5 -5.2 31.5 -5.3 31.5 -5.45 31.5 -5.65 31.5 -5.85 31.45 -6.05 31.45 -6.35 31.4 -6.55 31.35 -6.85 31.25 -7.1 31.15 -7.35 31.05 -7.55 30.95 -7.8 30.8 -8.0 30.6 -8.2 30.4 -8.3 30.15 L-8.3 30.15" fill="#000000" fill-rule="evenodd" stroke="none"/>
    <path d="M11.5 -14.0 Q11.55 -13.75 11.6 -13.5 11.7 -13.25 11.8 -12.95 11.9 -12.65 12.0 -12.3 12.15 -11.95 12.3 -11.65 12.45 -11.25 12.65 -10.9 12.9 -10.5 13.15 -10.15 13.4 -9.75 13.7 -9.4 14.0 -9.05 14.35 -8.65 14.5 -8.5 14.65 -8.4 14.8 -8.25 14.95 -8.15 15.1 -8.05 15.2 -7.9 15.35 -7.8 15.5 -7.7 15.65 -7.6 15.8 -7.5 15.9 -7.45 16.05 -7.35 16.2 -7.25 16.3 -7.2 16.45 -7.1 16.55 -7.05 16.65 -7.1 16.75 -7.15 16.85 -7.2 16.95 -7.25 17.05 -7.35 17.2 -7.4 17.3 -7.5 17.45 -7.6 17.6 -7.7 17.7 -7.8 17.85 -7.95 18.0 -8.1 18.15 -8.2 18.25 -8.4 18.4 -8.55 18.5 -8.75 18.7 -9.05 18.85 -9.35 19.0 -9.65 19.1 -9.95 19.2 -10.25 19.25 -10.55 19.3 -10.8 19.3 -11.1 19.3 -11.35 19.3 -11.55 19.3 -11.75 19.3 -11.95 19.3 -12.1 19.25 -12.25 19.25 -12.35 19.2 -12.45 19.2 -12.55 19.15 -12.65 19.15 -12.8 19.1 -12.95 19.05 -13.15 19.0 -13.3 18.9 -13.5 18.8 -13.7 18.7 -13.95 18.6 -14.15 18.45 -14.35 18.3 -14.55 18.15 -14.8 17.95 -14.95 17.75 -15.15 17.5 -15.3 17.2 -15.5 16.85 -15.6 16.5 -15.75 16.15 -15.8 15.8 -15.85 15.4 -15.8 15.0 -15.8 14.6 -15.7 14.2 -15.65 13.8 -15.5 13.4 -15.35 13.0 -15.1 12.6 -14.9 12.25 -14.6 11.85 -14.35 11.5 -14.0 L11.5 -14.0" fill="#000000" fill-rule="evenodd" stroke="none"/>
    <path d="M-12.7 -14.0 Q-12.75 -13.75 -12.8 -13.5 -12.9 -13.25 -12.95 -12.95 -13.05 -12.65 -13.2 -12.3 -13.3 -11.95 -13.5 -11.65 -13.65 -11.25 -13.85 -10.9 -14.05 -10.5 -14.3 -10.15 -14.6 -9.75 -14.85 -9.4 -15.2 -9.05 -15.55 -8.65 -15.7 -8.5 -15.85 -8.4 -15.95 -8.25 -16.1 -8.15 -16.25 -8.05 -16.4 -7.9 -16.55 -7.8 -16.7 -7.7 -16.8 -7.6 -16.95 -7.5 -17.1 -7.45 -17.25 -7.35 -17.35 -7.25 -17.5 -7.2 -17.6 -7.1 -17.75 -7.05 -17.85 -7.1 -17.95 -7.15 -18.05 -7.2 -18.15 -7.25 -18.25 -7.35 -18.35 -7.4 -18.5 -7.5 -18.65 -7.6 -18.75 -7.7 -18.9 -7.8 -19.05 -7.95 -19.15 -8.1 -19.3 -8.2 -19.45 -8.4 -19.55 -8.55 -19.7 -8.75 -19.9 -9.05 -20.05 -9.35 -20.2 -9.65 -20.3 -9.95 -20.35 -10.25 -20.4 -10.55 -20.45 -10.8 -20.5 -11.1 -20.5 -11.35 -20.5 -11.55 -20.5 -11.75 -20.45 -11.95 -20.45 -12.1 -20.45 -12.25 -20.4 -12.35 -20.4 -12.45 -20.4 -12.55 -20.35 -12.65 -20.3 -12.8 -20.3 -12.95 -20.25 -13.15 -20.15 -13.3 -20.1 -13.5 -20.0 -13.7 -19.9 -13.95 -19.75 -14.15 -19.65 -14.35 -19.5 -14.55 -19.3 -14.8 -19.1 -14.95 -18.9 -15.15 -18.65 -15.3 -18.35 -15.5 -18.0 -15.6 -17.7 -15.75 -17.3 -15.8 -16.95 -15.85 -16.55 -15.8 -16.2 -15.8 -15.8 -15.7 -15.4 -15.65 -15.0 -15.5 -14.6 -15.35 -14.2 -15.1 -13.8 -14.9 -13.4 -14.6 -13.05 -14.35 -12.7 -14.0 L-12.7 -14.0" fill="#000000" fill-rule="evenodd" stroke="none"/>
  </g>
</svg>
