<?xml version="1.0" encoding="UTF-8" standalone="no"?>
<svg xmlns:xlink="http://www.w3.org/1999/xlink" height="45.4px" width="20.15px" xmlns="http://www.w3.org/2000/svg">
  <g transform="matrix(1.0, 0.0, 0.0, 1.0, 10.1, 22.7)">
    <path d="M3.85 -19.25 Q3.85 -19.55 3.85 -19.8 3.9 -20.05 3.85 -20.3 3.85 -20.5 3.85 -20.7 3.85 -20.95 3.8 -21.1 3.8 -21.3 3.75 -21.45 3.7 -21.6 3.65 -21.75 3.6 -21.9 3.5 -22.05 3.45 -22.15 3.35 -22.3 3.25 -22.4 3.15 -22.5 3.05 -22.6 2.95 -22.7 2.85 -22.8 2.75 -22.85 2.65 -22.9 2.55 -23.0 2.45 -23.05 2.35 -23.1 2.25 -23.15 2.15 -23.2 2.05 -23.2 1.95 -23.25 1.9 -23.3 1.8 -23.35 1.7 -23.4 1.65 -23.4 1.5 -23.45 1.4 -23.5 1.2 -23.5 1.05 -23.55 0.85 -23.6 0.65 -23.6 0.45 -23.65 0.25 -23.65 0.0 -23.65 -0.25 -23.65 -0.5 -23.6 -0.75 -23.55 -1.05 -23.5 -1.3 -23.4 -1.4 -23.35 -1.45 -23.35 -1.55 -23.3 -1.65 -23.25 -1.8 -23.2 -1.9 -23.15 -2.05 -23.1 -2.15 -23.0 -2.3 -22.95 -2.4 -22.85 -2.55 -22.75 -2.7 -22.65 -2.8 -22.5 -2.95 -22.4 -3.05 -22.25 -3.15 -22.1 -3.25 -21.95 -3.35 -21.75 -3.45 -21.6 -3.5 -21.45 -3.55 -21.25 -3.6 -21.1 -3.65 -20.9 -3.65 -20.7 -3.65 -20.5 -3.7 -20.3 -3.7 -20.1 -3.7 -19.9 -3.7 -19.65 -3.65 -19.4 -3.65 -19.25 -3.65 -18.9 -3.35 -14.8 -3.3 -14.15 -3.25 -13.75 -3.25 -13.4 -3.2 -13.1 -3.2 -12.75 -3.2 -12.5 -3.2 -12.15 -3.2 -11.9 -3.2 -11.6 -3.2 -11.35 -3.2 -10.95 -3.2 -10.35 -3.2 -10.2 -3.2 -9.75 -3.25 -9.3 -3.25 -8.8 -3.25 -8.25 -3.25 -7.1 -3.2 -5.9 -3.2 -4.8 -3.15 -3.6 -3.1 -2.55 -3.0 -1.45 -2.95 -0.45 -2.9 0.55 -2.85 1.4 -2.75 2.3 -2.7 3.0 -2.65 3.7 -2.6 4.25 -2.55 4.8 -2.5 5.1 -2.45 5.45 -2.4 5.9 -2.25 10.85 -2.25 11.2 -2.25 11.4 -2.25 11.7 -2.25 11.9 -2.25 12.15 -2.25 12.4 -2.25 12.65 -2.3 12.9 -2.3 13.1 -2.35 13.35 -2.35 13.6 -2.4 13.8 -2.45 14.05 -2.55 14.3 -2.6 14.55 -2.7 14.8 -2.75 15.0 -2.85 15.2 -2.95 15.35 -3.0 15.55 -3.1 15.7 -3.2 15.85 -3.25 16.0 -3.35 16.15 -3.45 16.3 -3.55 16.45 -3.6 16.55 -3.7 16.7 -3.75 16.8 -3.85 16.95 -3.9 17.0 -4.0 17.15 -4.2 17.4 -4.35 17.65 -4.5 17.85 -4.7 18.0 -4.8 18.15 -5.0 18.35 -5.1 18.45 -5.25 18.6 -5.45 18.8 -5.5 18.85 -5.65 19.0 -5.75 19.15 -5.9 19.3 -6.0 19.45 -6.15 19.6 -6.25 19.8 -6.4 20.0 -6.5 20.2 -6.65 20.4 -6.75 20.6 -6.85 20.8 -6.9 21.05 -7.0 21.2 -7.05 21.45 -7.1 21.6 -7.2 21.85 -7.25 22.0 -7.3 22.25 -7.35 22.4 -7.4 22.65 -7.4 22.75 -7.45 23.05 -7.6 23.65 -7.65 24.3 -7.7 24.9 -7.75 25.5 -7.75 26.05 -7.7 26.65 -7.65 27.15 -7.6 27.7 -7.55 28.15 -7.45 28.65 -7.35 29.1 -7.2 29.55 -7.15 29.9 -7.0 30.35 -6.95 30.6 -6.8 31.0 -6.7 31.3 -6.65 31.5 -6.55 31.8 -6.45 32.05 -6.35 32.35 -6.25 32.6 -6.15 32.9 -6.0 33.15 -5.85 33.45 -5.7 33.75 -5.55 34.05 -5.4 34.35 -5.2 34.65 -5.0 34.95 -4.8 35.25 -4.55 35.55 -4.35 35.8 -4.25 35.9 -4.05 36.15 -3.9 36.3 -3.7 36.5 -3.5 36.7 -3.3 36.85 -3.1 37.05 -2.9 37.2 -2.65 37.35 -2.4 37.5 -2.15 37.6 -1.9 37.75 -1.65 37.85 -1.35 37.9 -1.05 37.95 -0.85 38.0 -0.65 38.0 -0.45 38.0 -0.25 38.0 -0.1 38.0 0.1 37.95 0.25 37.95 0.45 37.9 0.6 37.9 0.75 37.85 0.85 37.8 1.0 37.75 1.1 37.75 1.2 37.7 1.25 37.65 1.35 37.65 1.5 37.6 1.6 37.55 1.75 37.5 1.85 37.4 2.0 37.35 2.15 37.25 2.3 37.15 2.4 37.05 2.6 36.95 2.75 36.8 2.9 36.7 3.1 36.55 3.25 36.35 3.45 36.2 3.65 36.0 3.85 35.75 4.2 35.4 4.5 35.0 4.75 34.65 5.05 34.25 5.3 33.9 5.5 33.5 5.7 33.2 5.9 32.85 6.05 32.55 6.2 32.2 6.35 31.95 6.45 31.7 6.55 31.45 6.65 31.25 6.7 31.05 6.75 30.9 6.9 30.45 7.05 30.0 7.15 29.6 7.25 29.2 7.35 28.8 7.45 28.4 7.5 28.05 7.55 27.65 7.6 27.35 7.65 27.0 7.65 26.7 7.65 26.4 7.7 26.15 7.7 25.85 7.7 25.65 7.7 25.4 7.7 25.0 7.7 24.85 7.7 24.55 7.7 24.3 7.7 24.05 7.7 23.85 7.7 23.6 7.65 23.35 7.65 23.15 7.6 22.9 7.6 22.7 7.55 22.45 7.5 22.25 7.4 22.05 7.35 21.8 7.25 21.55 7.0 20.85 4.75 17.85 2.75 15.2 2.55 14.65 2.45 14.4 2.4 14.15 2.3 13.95 2.25 13.7 2.2 13.5 2.2 13.25 2.15 13.0 2.15 12.8 2.15 12.55 2.15 12.35 2.15 12.1 2.15 11.85 2.15 11.65 2.15 11.35 2.2 11.2 2.2 10.85 2.65 4.2 2.75 3.25 3.0 1.25 3.15 -4.45 3.2 -5.8 3.2 -7.05 3.2 -8.1 3.2 -9.1 3.2 -9.85 3.15 -10.7 3.15 -12.35 3.15 -11.95 3.1 -12.55 3.15 -12.95 3.15 -13.45 3.15 -13.8 3.2 -14.25 3.25 -14.65 3.3 -15.05 3.45 -15.55 3.7 -16.6 3.85 -19.25 L3.85 -19.25" fill="#666b22" fill-rule="evenodd" stroke="none"/>
  </g>
</svg>
