<?xml version="1.0" encoding="UTF-8" standalone="no"?>
<svg xmlns:xlink="http://www.w3.org/1999/xlink" height="53.8px" width="40.65px" xmlns="http://www.w3.org/2000/svg">
  <g transform="matrix(1.0, 0.0, 0.0, 1.0, 20.3, 26.9)">
    <path d="M13.3 -4.05 Q15.3 3.0 18.7 15.15 18.75 15.35 18.75 15.5 18.8 15.65 18.8 15.8 18.75 16.0 18.75 16.1 18.7 16.25 18.6 16.4 18.55 16.5 18.45 16.65 18.35 16.75 18.2 16.85 18.1 16.95 17.95 17.0 17.75 17.05 17.6 17.1 7.85 19.95 -5.75 23.7 -5.85 23.75 -5.95 23.75 -6.05 23.75 -6.15 23.75 -6.25 23.75 -6.35 23.75 -6.45 23.75 -6.55 23.75 -6.65 23.7 -6.75 23.7 -6.85 23.65 -6.95 23.6 -7.0 23.55 -7.1 23.5 -7.2 23.45 -7.3 23.4 -7.35 23.35 -7.35 23.35 -7.4 23.3 -7.45 23.3 -7.45 23.25 -7.5 23.2 -7.5 23.2 -7.55 23.15 -7.55 23.1 -7.6 23.05 -7.6 23.05 -7.6 23.0 -7.65 22.95 -7.65 22.9 -7.65 22.85 -7.7 22.8 -7.7 22.75 -7.75 22.6 -13.5 2.25 -18.6 -15.75 -18.6 -15.8 -18.65 -15.9 -18.65 -15.95 -18.65 -16.0 -18.65 -16.1 -18.7 -16.15 -18.7 -16.2 -18.7 -16.3 -18.7 -16.35 -18.7 -16.4 -18.7 -16.5 -18.65 -16.55 -18.65 -16.6 -18.65 -16.7 -18.65 -16.75 -18.6 -16.8 -18.55 -16.9 -18.55 -17.0 -18.5 -17.05 -18.45 -17.15 -18.4 -17.2 -18.35 -17.3 -18.3 -17.35 -18.25 -17.4 -18.2 -17.5 -18.1 -17.55 -18.05 -17.6 -17.95 -17.65 -17.9 -17.7 -17.8 -17.7 -17.7 -17.75 -17.6 -17.8 -7.25 -20.7 6.0 -24.45 6.15 -24.5 6.3 -24.5 6.45 -24.5 6.6 -24.45 6.75 -24.4 6.9 -24.35 7.05 -24.3 7.15 -24.2 7.3 -24.1 7.4 -24.0 7.55 -23.9 7.65 -23.8 7.75 -23.65 7.8 -23.55 7.9 -23.4 7.9 -23.25 8.85 -19.9 10.6 -13.65 12.45 -7.1 13.3 -4.05 L13.3 -4.05 M10.8 -3.3 Q9.45 -8.0 5.8 -21.1 5.65 -21.5 5.6 -21.55 5.6 -21.55 5.15 -21.45 -1.9 -19.45 -15.25 -15.7 -15.5 -15.6 -15.6 -15.6 -15.7 -15.55 -15.65 -15.4 -15.65 -15.35 -15.6 -15.05 -12.25 -3.25 -5.6 20.4 -5.6 20.4 -5.55 20.7 -5.55 20.75 -5.5 20.8 -5.5 20.8 -5.45 20.85 -5.45 20.85 -5.4 20.85 -5.35 20.85 -5.3 20.85 -5.25 20.8 -5.05 20.75 3.6 18.35 15.4 15.0 15.85 14.9 15.85 14.85 15.85 14.8 15.75 14.35 14.75 10.85 13.25 5.55 10.85 -3.15 10.8 -3.3 L10.8 -3.3" fill="#030202" fill-rule="evenodd" stroke="none"/>
    <path d="M-9.6 -0.5 Q-10.8 -4.8 -13.2 -13.35 -13.2 -13.4 -13.25 -13.55 -13.3 -13.65 -13.3 -13.7 -13.3 -13.8 -13.35 -13.9 -13.35 -13.95 -13.3 -14.05 -13.3 -14.15 -13.3 -14.2 -13.25 -14.3 -13.25 -14.35 -13.2 -14.4 -13.15 -14.5 -13.1 -14.55 -13.05 -14.6 -12.95 -14.65 -12.9 -14.7 -12.8 -14.7 -12.7 -14.75 -12.65 -14.8 -12.35 -14.85 -7.15 -16.3 3.15 -19.25 3.2 -19.25 3.45 -19.3 3.55 -19.3 3.65 -19.35 3.75 -19.35 3.85 -19.3 3.9 -19.3 4.0 -19.3 4.1 -19.25 4.15 -19.2 4.25 -19.2 4.3 -19.1 4.35 -19.05 4.4 -19.0 4.45 -18.95 4.5 -18.85 4.55 -18.75 4.6 -18.7 4.6 -18.65 4.6 -18.6 4.6 -18.55 4.65 -18.55 4.65 -18.5 4.65 -18.45 4.65 -18.4 4.65 -18.4 7.1 -9.75 11.95 7.45 11.95 7.5 12.0 7.6 12.0 7.75 12.0 7.75 12.0 7.85 12.05 7.95 12.05 8.0 12.0 8.1 12.0 8.2 12.0 8.25 11.95 8.35 11.95 8.4 11.9 8.5 11.85 8.55 11.8 8.6 11.7 8.65 11.65 8.7 11.6 8.75 11.5 8.8 11.4 8.85 11.35 8.85 11.3 8.9 11.2 8.9 11.15 8.9 8.0 9.8 -4.5 13.35 -4.6 13.35 -4.6 13.35 -4.7 13.4 -4.75 13.4 -4.8 13.4 -4.85 13.4 -4.9 13.4 -5.0 13.4 -5.05 13.4 -5.1 13.4 -5.15 13.4 -5.2 13.4 -5.25 13.35 -5.3 13.35 -5.4 13.3 -5.45 13.3 -5.5 13.25 -5.5 13.25 -5.55 13.2 -5.6 13.2 -5.6 13.15 -5.65 13.15 -5.65 13.1 -5.7 13.05 -5.7 13.05 -5.75 13.0 -5.75 12.95 -5.8 12.9 -5.8 12.9 -5.8 12.85 -5.85 12.8 -5.85 12.75 -5.9 12.65 -5.95 12.4 -7.15 8.2 -9.6 -0.5 L-9.6 -0.5 M-8.75 -3.9 Q-8.6 -3.3 -8.35 -2.4 -7.95 -1.0 -7.95 -0.95 -7.8 -0.4 -7.7 -0.25 -7.7 -0.2 -7.7 -0.15 -7.7 -0.15 -7.7 -0.1 -7.7 -0.05 -7.7 0.0 -7.7 0.0 -7.65 0.05 -7.65 0.1 -7.65 0.15 -6.6 3.9 -4.55 11.15 -4.55 11.2 -4.55 11.2 -4.5 11.25 -4.5 11.25 -4.5 11.3 -4.5 11.35 -4.5 11.4 -4.45 11.45 -4.45 11.45 -4.4 11.5 -4.4 11.5 -4.35 11.5 -4.3 11.55 -4.3 11.5 -4.25 11.5 -4.2 11.5 -4.15 11.5 -4.1 11.45 -4.05 11.45 -4.0 11.45 -2.35 11.0 0.6 10.15 3.8 9.25 5.2 8.9 6.7 8.45 7.45 8.25 7.75 8.15 9.9 7.55 10.15 7.5 10.05 7.5 10.15 7.5 10.15 7.4 10.15 7.35 10.15 7.35 10.15 7.3 10.15 7.25 10.15 7.25 10.15 7.2 9.75 5.85 8.75 2.35 8.75 2.3 8.65 2.05 8.65 1.95 8.55 1.55 6.95 -4.05 4.05 -14.4 4.0 -14.55 3.95 -14.75 3.9 -14.9 3.85 -15.1 3.8 -15.25 3.75 -15.4 3.7 -15.6 3.65 -15.75 3.6 -15.95 3.6 -16.1 3.55 -16.3 3.5 -16.45 3.45 -16.65 3.4 -16.8 3.35 -16.95 3.3 -17.15 3.25 -17.35 3.2 -17.4 3.15 -17.45 3.1 -17.45 3.05 -17.45 2.85 -17.4 2.75 -17.35 2.6 -17.3 -1.15 -16.25 -8.15 -14.3 -8.35 -14.25 -8.65 -14.15 -9.0 -14.05 -9.15 -14.0 -10.0 -13.75 -11.05 -13.5 -11.3 -13.4 -11.35 -13.4 -11.4 -13.35 -11.4 -13.3 -11.4 -13.25 -11.35 -13.0 -11.15 -12.4 -9.95 -8.0 -9.9 -7.9 -9.85 -7.75 -9.8 -7.6 -9.75 -7.5 -9.55 -6.45 -8.75 -3.9 L-8.75 -3.9" fill="#030202" fill-rule="evenodd" stroke="none"/>
    <path d="M2.5 15.05 Q2.45 14.85 2.45 14.7 2.45 14.5 2.45 14.35 2.45 14.15 2.5 14.0 2.6 13.8 2.65 13.65 2.75 13.5 2.85 13.4 2.95 13.25 3.1 13.15 3.25 13.0 3.4 12.95 3.55 12.85 3.75 12.8 3.95 12.75 4.1 12.75 4.3 12.7 4.5 12.75 4.65 12.75 4.85 12.8 5.0 12.85 5.15 12.95 5.3 13.05 5.45 13.15 5.6 13.25 5.7 13.4 5.8 13.55 5.9 13.7 6.0 13.9 6.05 14.05 6.1 14.25 6.1 14.4 6.1 14.6 6.1 14.8 6.05 14.95 6.0 15.15 5.95 15.3 5.85 15.45 5.75 15.6 5.65 15.75 5.55 15.9 5.4 16.0 5.25 16.1 5.1 16.2 4.9 16.3 4.75 16.35 4.55 16.4 4.4 16.4 4.2 16.4 4.0 16.4 3.85 16.35 3.7 16.3 3.5 16.25 3.35 16.15 3.2 16.05 3.05 15.95 2.95 15.85 2.85 15.7 2.7 15.55 2.65 15.4 2.55 15.25 2.5 15.05 L2.5 15.05" fill="#030202" fill-rule="evenodd" stroke="none"/>
    <path d="M8.65 2.05 Q8.4 1.9 7.25 0.8 5.75 -0.5 1.95 -4.0 0.15 -5.65 -4.7 -10.05 -5.65 -10.9 -8.75 -13.7 -8.8 -13.75 -9.15 -14.0 -8.6 -14.15 -8.15 -14.3 -3.9 -15.5 2.6 -17.3 2.65 -17.3 2.7 -17.35 2.7 -17.35 2.75 -17.35 2.8 -17.4 2.85 -17.4 3.05 -17.45 3.1 -17.45 3.15 -17.45 3.2 -17.4 3.25 -17.35 3.3 -17.15 3.6 -16.1 4.05 -14.4 5.95 -7.6 8.55 1.55 8.65 2.0 8.65 2.05 L8.65 2.05" fill="#000000" fill-opacity="0.36862746" fill-rule="evenodd" stroke="none"/>
    <path d="M-9.75 -7.5 Q-9.7 -7.5 -9.65 -7.5 -9.6 -7.5 -9.55 -7.5 -9.55 -7.5 -9.5 -7.45 -9.5 -7.4 -9.45 -7.4 -9.4 -7.35 -9.4 -7.3 -6.0 -4.25 0.35 1.55 4.35 5.15 7.2 7.75 7.25 7.8 7.3 7.85 7.35 7.9 7.4 7.9 7.45 7.95 7.5 8.0 7.55 8.0 7.6 8.0 7.65 8.05 7.75 8.05 7.8 8.05 7.85 8.05 7.9 8.05 7.95 8.0 8.05 8.0 8.1 8.0 8.45 7.85 10.15 7.4 10.15 7.5 10.05 7.55 10.55 7.4 9.9 7.55 9.45 7.7 8.65 7.9 7.8 8.15 7.45 8.25 7.45 8.25 5.2 8.9 1.8 9.85 -4.0 11.45 -4.15 11.5 -4.2 11.5 -4.25 11.5 -4.3 11.5 -4.3 11.55 -4.35 11.5 -4.4 11.5 -4.4 11.5 -4.45 11.45 -4.45 11.45 -4.5 11.4 -4.5 11.35 -4.5 11.3 -4.55 11.15 -5.0 9.45 -7.65 0.15 -7.7 -0.2 -7.7 -0.25 -7.65 -0.25 -7.6 -0.25 -7.55 -0.2 -7.5 -0.2 -7.5 -0.15 -7.45 -0.1 -7.4 -0.05 -7.4 -0.05 -4.65 2.35 -0.6 6.0 -0.4 6.2 -0.15 6.4 0.05 6.6 0.3 6.75 0.5 6.95 0.7 7.15 0.95 7.35 1.15 7.55 1.35 7.75 1.6 7.95 1.8 8.15 2.05 8.3 2.25 8.5 2.45 8.7 2.7 8.9 2.9 9.1 2.95 9.15 2.95 9.15 3.0 9.2 3.05 9.2 3.1 9.25 3.1 9.25 3.15 9.25 3.2 9.3 3.25 9.3 3.3 9.3 3.3 9.3 3.35 9.3 3.4 9.3 3.45 9.3 3.5 9.25 3.55 9.25 3.55 9.25 4.5 9.0 4.8 8.9 5.4 8.75 5.4 8.7 5.35 8.65 5.35 8.65 5.3 8.6 5.3 8.55 5.25 8.55 5.25 8.5 5.2 8.5 5.2 8.45 5.15 8.45 5.15 8.45 5.15 8.4 5.1 8.4 5.1 8.35 2.5 6.1 -2.55 1.55 -3.25 0.95 -4.6 -0.3 -6.0 -1.5 -6.7 -2.1 -8.45 -3.65 -8.75 -3.9 -9.5 -6.4 -9.75 -7.5 L-9.75 -7.5" fill="#000000" fill-opacity="0.36862746" fill-rule="evenodd" stroke="none"/>
  </g>
</svg>
