<?xml version="1.0" encoding="UTF-8" standalone="no"?>
<svg xmlns:xlink="http://www.w3.org/1999/xlink" height="99.05px" width="44.55px" xmlns="http://www.w3.org/2000/svg">
  <g transform="matrix(1.0, 0.0, 0.0, 1.0, 22.3, 49.55)">
    <path d="M11.45 18.1 Q3.2 16.7 -13.25 13.9 L-14.65 13.85 Q-14.7 26.25 -14.8 51.0 -6.1 53.0 11.25 57.0 11.3 55.35 11.3 53.7 11.35 52.0 11.4 50.35 11.4 48.7 11.45 47.05 11.45 45.4 11.5 43.7 11.5 42.05 11.5 40.4 11.5 38.75 11.55 37.1 11.55 35.4 11.55 33.75 11.55 32.1 11.55 30.45 11.55 29.7 11.55 28.9 11.55 28.15 11.55 27.35 11.55 26.6 11.55 25.85 11.55 25.05 11.55 24.3 11.5 23.5 11.5 22.75 11.5 21.95 11.5 21.2 11.5 20.45 11.5 19.65 11.5 18.9 11.45 18.1 L11.45 18.1 M5.4 24.2 Q5.35 24.9 5.35 26.35 5.35 26.4 5.35 26.45 5.35 26.5 5.35 26.55 5.35 26.6 5.35 26.65 5.35 26.75 5.35 26.8 5.35 26.85 5.35 26.9 5.35 26.95 5.35 27.0 5.35 27.05 5.35 27.1 5.3 27.15 5.3 27.2 5.3 27.25 5.25 27.3 5.25 27.35 5.2 27.4 5.2 27.45 5.15 27.5 5.15 27.55 5.1 27.6 5.05 27.65 5.0 27.7 4.95 27.75 4.95 27.75 4.9 27.8 4.85 27.8 4.8 27.85 4.75 27.85 4.6 27.9 4.5 27.95 4.35 28.0 4.2 28.0 4.1 28.05 3.95 28.05 3.8 28.05 3.65 28.05 3.5 28.05 3.35 28.05 3.25 28.05 3.1 28.05 2.95 28.05 2.8 28.0 2.7 28.0 2.55 28.0 1.7 27.85 0.15 27.35 0.0 27.3 -0.15 27.25 -0.3 27.2 -0.4 27.15 -0.55 27.15 -0.7 27.1 -0.85 27.05 -1.0 27.0 -1.15 26.95 -1.3 26.95 -1.45 26.9 -1.6 26.85 -1.75 26.85 -1.9 26.8 -2.05 26.75 -2.15 26.75 -3.2 26.55 -4.65 26.35 -5.0 26.3 -5.35 26.25 -5.4 26.25 -5.45 26.25 -5.55 26.2 -5.6 26.2 -5.6 26.2 -5.65 26.2 -5.7 26.2 -5.75 26.2 -5.8 26.2 -5.8 26.2 -5.85 26.2 -5.9 26.2 -5.95 26.2 -6.0 26.15 -6.05 26.15 -6.1 26.15 -6.1 26.15 -6.15 26.15 -6.2 26.15 -6.25 26.15 -6.3 26.15 -6.35 26.15 -7.5 25.95 -7.95 25.8 -8.05 25.75 -8.15 25.75 -8.25 25.7 -8.3 25.65 -8.4 25.6 -8.5 25.55 -8.6 25.5 -8.7 25.45 -8.75 25.4 -8.85 25.35 -8.9 25.25 -9.0 25.2 -9.05 25.15 -9.15 25.05 -9.2 24.95 -9.25 24.85 -9.3 24.8 -9.3 24.75 -9.35 24.65 -9.35 24.6 -9.4 24.55 -9.4 24.5 -9.4 24.4 -9.45 24.35 -9.45 24.3 -9.45 24.2 -9.45 24.15 -9.45 24.05 -9.45 24.0 -9.5 23.9 -9.5 23.85 -9.5 23.8 -9.45 23.55 -9.4 23.1 -9.4 23.0 -9.35 22.75 -9.35 22.75 -9.35 22.65 -9.35 22.65 -9.35 22.6 -9.35 22.6 -9.35 22.6 -9.3 22.25 -9.3 20.1 -9.3 20.05 -9.3 20.0 -9.3 19.95 -9.3 19.95 -9.25 19.9 -9.25 19.85 -9.25 19.8 -9.2 19.8 -9.2 19.75 -9.15 19.7 -9.15 19.65 -9.15 19.6 -9.15 19.55 -9.1 19.5 -9.1 19.45 -9.1 19.45 -9.05 19.4 -9.05 19.35 -9.0 19.3 -9.0 19.25 -8.95 19.2 -8.9 19.2 -8.85 19.15 -8.8 19.15 -8.75 19.1 -8.7 19.1 -8.6 19.1 -8.55 19.1 -8.5 19.1 -8.45 19.1 -8.4 19.1 -8.35 19.15 -8.3 19.15 -8.25 19.2 -8.2 19.25 -8.15 19.25 -8.1 19.25 -8.1 19.3 -8.1 19.3 -8.1 19.3 -8.1 19.3 -8.05 19.35 -7.95 19.35 -7.9 19.35 -7.8 19.35 -7.7 19.35 -7.65 19.35 -7.55 19.35 -7.45 19.35 -7.4 19.35 -7.3 19.35 -7.2 19.35 -7.15 19.4 -7.05 19.4 -6.95 19.4 -6.9 19.4 -6.8 19.4 -6.7 19.4 -5.65 19.6 -5.4 19.65 -5.35 19.65 -5.3 19.65 -5.3 19.65 -5.25 19.65 -5.15 19.65 -5.0 19.65 -4.9 19.65 -4.75 19.65 -4.65 19.65 -4.5 19.7 -4.4 19.7 -4.25 19.7 -4.15 19.75 -4.0 19.75 -3.9 19.8 -3.8 19.8 -3.65 19.85 -3.55 19.85 -3.4 19.9 -3.3 19.9 -2.7 20.05 -2.4 20.15 -2.3 20.15 -2.15 20.2 -2.1 20.2 -1.95 20.2 -1.7 20.25 -1.15 20.3 -1.1 20.3 -1.05 20.3 -1.05 20.3 -0.95 20.3 -0.9 20.3 -0.9 20.3 -0.85 20.35 -0.8 20.35 -0.75 20.35 -0.7 20.35 -0.7 20.35 -0.65 20.4 -0.6 20.4 -0.55 20.4 -0.45 20.4 -0.25 20.45 -0.2 20.45 -0.2 20.45 -0.15 20.45 0.0 20.45 0.15 20.45 1.45 20.55 2.35 20.65 2.95 20.7 3.15 20.75 3.3 20.75 3.5 20.8 3.65 20.85 3.85 20.9 4.0 20.95 4.2 21.05 4.35 21.1 4.5 21.2 4.65 21.3 4.8 21.4 4.9 21.55 5.05 21.65 5.15 21.8 5.25 21.95 5.3 22.15 5.35 22.25 5.35 22.4 5.4 22.5 5.4 22.65 5.4 22.75 5.4 22.9 5.4 23.05 5.4 23.15 5.4 23.3 5.4 23.45 5.4 23.55 5.4 23.7 5.4 23.8 5.4 23.95 5.4 23.95 5.4 24.2 L5.4 24.2" fill="#a8a8a8" fill-rule="evenodd" stroke="none"/>
  </g>
</svg>
