<?xml version="1.0" encoding="UTF-8" standalone="no"?>
<svg xmlns:xlink="http://www.w3.org/1999/xlink" height="112.75px" width="46.05px" xmlns="http://www.w3.org/2000/svg">
  <g transform="matrix(1.0, 0.0, 0.0, 1.0, 23.05, 56.4)">
    <path d="M19.2 28.95 Q19.2 31.55 19.2 38.5 19.2 44.55 19.2 48.1 19.2 48.35 19.2 48.5 19.15 48.7 19.1 48.85 19.1 49.0 19.0 49.15 18.95 49.25 18.85 49.3 18.75 49.4 18.65 49.45 18.5 49.5 18.35 49.5 18.2 49.5 18.0 49.5 17.85 49.5 17.6 49.45 17.5 49.45 17.2 49.55 16.95 49.6 16.65 49.7 16.4 49.75 16.15 49.8 15.85 49.9 15.6 49.95 15.35 50.0 15.05 50.05 14.8 50.1 14.5 50.15 14.25 50.2 13.95 50.25 13.7 50.3 13.45 50.35 13.15 50.4 12.9 50.4 12.85 50.4 12.8 50.4 12.55 50.45 12.7 50.45 12.65 50.45 12.6 50.45 12.6 50.45 12.55 50.45 12.5 50.5 12.45 50.5 12.45 50.55 12.4 50.6 12.35 50.65 12.35 50.7 12.35 50.75 12.3 50.8 12.3 50.95 12.25 51.05 12.2 51.2 12.15 51.3 12.1 51.4 12.05 51.45 12.0 51.55 11.9 51.6 11.85 51.65 11.75 51.65 11.65 51.7 11.55 51.7 11.4 51.7 11.3 51.7 11.15 51.65 11.05 51.65 8.95 51.2 4.95 50.3 0.85 49.35 -1.15 48.95 -4.7 48.15 -14.85 45.85 -15.0 45.8 -15.15 45.75 -15.3 45.75 -15.4 45.7 -15.5 45.65 -15.6 45.55 -15.7 45.5 -15.75 45.4 -15.8 45.35 -15.85 45.25 -15.9 45.15 -15.9 45.0 -15.95 44.9 -15.95 44.75 -15.95 44.6 -15.95 44.4 -15.95 42.9 -15.9 42.7 -15.9 42.6 -15.9 42.5 -15.9 42.4 -15.9 42.35 -15.95 42.25 -15.95 42.2 -16.0 42.1 -16.0 42.05 -16.05 42.0 -16.1 41.95 -16.15 41.9 -16.25 41.9 -16.3 41.85 -16.4 41.8 -16.5 41.8 -16.6 41.8 -16.7 41.8 -16.75 41.75 -16.85 41.75 -16.95 41.7 -17.0 41.7 -17.1 41.65 -17.2 41.65 -17.25 41.6 -17.35 41.55 -17.4 41.55 -17.5 41.5 -17.6 41.45 -17.65 41.4 -17.75 41.35 -17.8 41.3 -17.9 41.25 -18.05 41.15 -18.2 41.0 -18.3 40.9 -18.4 40.75 -18.5 40.6 -18.55 40.45 -18.6 40.3 -18.6 40.15 -18.65 40.0 -18.6 39.85 -18.6 39.7 -18.55 39.5 -18.5 39.35 -18.4 39.2 -18.3 39.05 -18.15 38.9 -18.05 38.8 -18.0 38.7 -17.9 38.65 -17.8 38.55 -17.7 38.5 -17.6 38.4 -17.5 38.35 -17.4 38.3 -17.25 38.2 -17.15 38.15 -17.05 38.1 -16.95 38.05 -16.8 38.05 -16.7 38.0 -16.55 37.95 -16.45 37.95 -16.35 37.95 -16.3 37.9 -16.2 37.9 -16.15 37.85 -16.1 37.8 -16.05 37.8 -16.0 37.75 -15.95 37.7 -15.95 37.65 -15.9 37.6 -15.9 37.55 -15.9 37.5 -15.85 37.45 -15.85 37.35 -15.85 37.3 -15.85 37.2 -15.85 37.2 -15.85 37.0 -15.85 36.75 -15.85 36.65 -15.85 36.5 -15.85 36.4 -15.85 36.3 -15.9 36.25 -15.9 36.15 -15.95 36.1 -16.0 36.05 -16.1 36.0 -16.15 35.95 -16.25 35.9 -16.35 35.85 -16.5 35.8 -16.55 35.8 -16.8 35.7 -17.0 35.65 -17.15 35.6 -17.3 35.55 -17.45 35.45 -17.6 35.4 -17.75 35.35 -17.9 35.25 -18.0 35.15 -18.15 35.05 -18.25 34.95 -18.35 34.8 -18.45 34.7 -18.5 34.55 -18.55 34.35 -18.6 34.2 -18.6 34.0 -18.6 33.8 -18.6 33.65 -18.55 33.45 -18.5 33.3 -18.45 33.15 -18.35 33.05 -18.25 32.9 -18.15 32.8 -18.0 32.7 -17.9 32.6 -17.75 32.5 -17.6 32.4 -17.45 32.3 -17.3 32.25 -17.15 32.15 -17.0 32.1 -16.95 32.1 -16.95 32.05 -16.9 32.05 -16.85 32.05 -16.85 32.0 -16.8 32.0 -16.8 32.0 -16.75 31.95 -16.7 31.95 -16.7 31.95 -16.65 31.95 -16.6 31.9 -16.6 31.9 -16.55 31.9 -16.5 31.9 -16.5 31.9 -16.4 31.9 -16.3 31.9 -16.25 31.85 -16.15 31.85 -16.1 31.8 -16.05 31.75 -16.0 31.75 -15.95 31.7 -15.95 31.65 -15.9 31.55 -15.9 31.5 -15.85 31.4 -15.85 31.35 -15.85 31.25 -15.85 31.2 -15.8 31.1 -15.8 30.95 -15.8 30.8 -15.8 30.7 -15.8 30.55 -15.85 30.45 -15.85 30.35 -15.9 30.25 -15.95 30.2 -16.0 30.1 -16.1 30.05 -16.15 30.0 -16.3 29.95 -16.4 29.9 -16.5 29.85 -16.65 29.8 -16.8 29.75 -16.95 29.7 -17.15 29.7 -17.3 29.65 -17.45 29.6 -17.6 29.55 -17.75 29.45 -17.9 29.4 -18.05 29.3 -18.15 29.2 -18.25 29.05 -18.35 28.95 -18.45 28.8 -18.5 28.65 -18.55 28.45 -18.6 28.3 -18.6 28.1 -18.6 27.9 -18.6 27.75 -18.55 27.55 -18.5 27.4 -18.45 27.25 -18.35 27.15 -18.25 27.0 -18.15 26.9 -18.0 26.8 -17.9 26.7 -17.75 26.6 -17.6 26.5 -17.45 26.4 -17.3 26.35 -17.15 26.25 -17.0 26.2 -16.95 26.2 -16.9 26.15 -16.9 26.15 -16.85 26.1 -16.8 26.1 -16.75 26.1 -16.7 26.05 -16.7 26.05 -16.65 26.05 -16.6 26.0 -16.55 26.0 -16.5 26.0 -16.5 26.0 -16.45 26.0 -16.4 26.0 -16.35 25.95 -16.25 25.95 -16.2 25.95 -16.1 25.9 -16.05 25.9 -16.0 25.85 -15.95 25.8 -15.9 25.8 -15.9 25.75 -15.85 25.7 -15.85 25.65 -15.8 25.6 -15.8 25.5 -15.8 25.45 -15.8 25.35 -15.8 25.3 -15.8 25.2 -15.8 25.1 -15.8 25.0 -15.8 24.9 -15.8 24.8 -15.8 24.7 -15.85 24.6 -15.85 24.55 -15.9 24.5 -15.95 24.45 -16.0 24.4 -16.1 24.35 -16.15 24.3 -16.25 24.25 -16.35 24.25 -16.45 24.25 -16.55 24.2 -16.65 24.2 -16.9 24.15 -17.05 24.1 -17.2 24.05 -17.4 24.0 -17.5 23.9 -17.65 23.85 -17.8 23.75 -17.95 23.7 -18.05 23.6 -18.15 23.5 -18.25 23.4 -18.35 23.3 -18.45 23.15 -18.5 23.0 -18.55 22.85 -18.6 22.7 -18.6 22.5 -18.6 22.3 -18.6 22.15 -18.55 22.0 -18.5 21.85 -18.45 21.7 -18.4 21.55 -18.3 21.45 -18.2 21.35 -18.1 21.25 -18.0 21.1 -17.85 21.05 -17.7 20.95 -17.6 20.85 -17.45 20.75 -17.3 20.7 -17.15 20.6 -17.1 20.6 -17.05 20.55 -17.0 20.55 -16.95 20.5 -16.9 20.5 -16.9 20.5 -16.85 20.45 -16.8 20.45 -16.75 20.45 -16.7 20.4 -16.65 20.4 -16.6 20.4 -16.55 20.35 -16.5 20.35 -16.45 20.35 -16.4 20.35 -16.3 20.35 -16.2 20.3 -16.15 20.3 -16.05 20.25 -16.0 20.25 -15.95 20.2 -15.9 20.15 -15.85 20.1 -15.8 20.05 -15.8 19.95 -15.75 19.9 -15.75 19.85 -15.7 19.75 -15.7 19.65 -15.7 19.6 -15.7 19.45 -15.7 19.3 -15.7 19.2 -15.7 19.1 -15.7 19.0 -15.75 18.85 -15.75 18.8 -15.8 18.7 -15.85 18.65 -15.9 18.55 -15.95 18.5 -16.05 18.45 -16.15 18.4 -16.25 18.35 -16.35 18.35 -16.45 18.3 -16.6 18.3 -16.65 18.3 -16.65 18.3 -16.7 18.3 -16.75 18.3 -16.75 18.3 -16.8 18.25 -17.0 18.2 -17.15 18.15 -17.3 18.1 -17.45 18.0 -17.6 17.95 -17.75 17.9 -17.9 17.8 -18.0 17.7 -18.15 17.6 -18.25 17.5 -18.35 17.4 -18.45 17.25 -18.5 17.1 -18.55 16.95 -18.6 16.75 -18.6 16.55 -18.6 16.35 -18.6 16.2 -18.55 16.0 -18.5 15.85 -18.45 15.7 -18.35 15.6 -18.25 15.45 -18.15 15.35 -18.0 15.25 -17.9 15.15 -17.75 15.05 -17.6 14.95 -17.45 14.9 -17.3 14.8 -17.15 14.75 -17.0 14.65 -16.95 14.65 -16.9 14.6 -16.9 14.6 -16.85 14.55 -16.8 14.55 -16.75 14.55 -16.7 14.5 -16.7 14.5 -16.65 14.5 -16.6 14.5 -16.55 14.45 -16.5 14.45 -16.5 14.45 -16.45 14.45 -16.4 14.45 -16.35 14.45 -16.25 14.45 -16.15 14.4 -16.05 14.4 -16.0 14.35 -15.95 14.35 -15.9 14.3 -15.85 14.25 -15.8 14.2 -15.75 14.15 -15.75 14.05 -15.7 14.0 -15.7 13.9 -15.7 13.85 -15.7 13.75 -15.7 13.65 -15.7 13.55 -15.7 13.45 -15.7 13.4 -15.7 13.35 -15.7 13.25 -15.75 13.2 -15.75 13.15 -15.8 13.1 -15.8 13.1 -15.85 13.05 -15.9 13.0 -15.95 13.0 -16.0 12.95 -16.05 12.95 -16.1 12.9 -16.15 12.9 -16.25 12.9 -16.35 12.9 -16.45 12.85 -16.5 12.85 -16.6 12.85 -16.7 12.8 -16.8 12.8 -16.9 12.75 -16.95 12.7 -17.05 12.7 -17.15 12.65 -17.25 12.65 -17.3 12.6 -17.4 12.55 -17.5 12.5 -17.55 12.45 -17.65 12.45 -17.85 12.3 -18.05 12.15 -18.25 12.0 -18.35 11.85 -18.45 11.7 -18.55 11.5 -18.6 11.3 -18.65 11.1 -18.65 10.95 -18.6 10.75 -18.55 10.55 -18.5 10.35 -18.4 10.2 -18.25 10.0 -18.1 9.8 -17.9 9.65 -17.8 9.55 -17.7 9.5 -17.55 9.4 -17.45 9.35 -17.35 9.3 -17.25 9.25 -17.1 9.2 -17.0 9.15 -16.9 9.1 -16.75 9.05 -16.65 9.0 -16.5 8.95 -16.4 8.9 -16.25 8.9 -16.15 8.85 -16.0 8.85 -15.95 8.85 -15.9 8.8 -15.85 8.8 -15.8 8.8 -15.75 8.75 -15.7 8.75 -15.65 8.75 -15.6 8.7 -15.6 8.65 -15.55 8.65 -15.55 8.6 -15.5 8.55 -15.5 8.5 -15.45 8.45 -15.45 8.4 -15.45 8.35 -15.4 8.2 -15.35 8.0 -15.3 7.85 -15.25 7.75 -15.2 7.6 -15.1 7.45 -15.0 7.35 -14.9 7.25 -14.8 7.15 -14.7 7.05 -14.6 6.95 -14.45 6.85 -14.3 6.8 -14.15 6.75 -14.0 6.7 -13.8 6.65 -13.4 6.55 -13.0 6.45 -12.6 6.3 -12.25 6.2 -11.85 6.1 -11.45 5.95 -11.05 5.85 -10.65 5.75 -10.25 5.6 -9.9 5.45 -9.5 5.35 -9.1 5.2 -8.7 5.05 -8.35 4.9 -7.95 4.75 -7.6 4.6 -7.55 4.6 -7.45 4.55 -7.4 4.55 -7.35 4.55 -7.3 4.5 -7.2 4.5 -7.15 4.5 -7.1 4.5 -7.05 4.5 -6.95 4.5 -6.9 4.5 -6.85 4.5 -6.8 4.5 -6.75 4.5 -6.65 4.5 -6.6 4.5 -3.85 4.95 17.55 8.3 17.6 8.3 18.15 8.4 18.3 8.4 18.4 8.45 18.55 8.45 18.65 8.5 18.75 8.55 18.8 8.6 18.9 8.65 18.95 8.7 19.05 8.8 19.05 8.9 19.1 8.95 19.15 9.05 19.15 9.15 19.2 9.3 19.2 9.45 19.2 9.6 19.2 9.8 19.2 15.0 19.2 21.7 19.2 28.95 L19.2 28.95 M10.5 31.0 Q10.5 26.6 10.5 14.35 10.5 14.25 10.5 14.1 10.5 14.0 10.5 13.85 10.6 13.15 10.55 13.6 10.55 13.5 10.55 13.35 10.55 13.25 10.55 13.15 10.55 13.0 10.55 12.9 10.55 12.8 10.5 12.7 10.45 12.6 10.4 12.55 10.35 12.45 10.25 12.4 10.2 12.35 10.05 12.3 10.0 12.25 9.85 12.2 9.75 12.2 9.6 12.2 9.5 12.15 9.35 12.15 9.3 12.15 9.1 12.15 8.95 12.15 8.85 12.15 8.7 12.15 8.6 12.1 -3.6 10.2 -13.25 8.7 -13.3 8.7 -13.35 8.7 -13.4 8.7 -13.45 8.7 -13.5 8.7 -13.5 8.7 -13.55 8.7 -13.6 8.7 -13.6 8.75 -13.65 8.75 -13.65 8.8 -13.65 8.85 -13.7 8.85 -13.7 8.9 -13.7 8.95 -13.75 9.05 -13.75 9.15 -13.85 11.55 -13.85 11.6 -13.85 11.6 -13.85 11.65 -13.85 11.7 -13.85 11.7 -13.85 11.75 -13.8 11.75 -13.8 11.8 -13.8 11.8 -13.75 11.85 -13.75 11.85 -13.75 11.85 -13.7 11.85 -13.65 11.85 -13.65 11.9 -13.6 11.9 -13.5 11.9 -13.45 11.9 -13.35 11.9 -13.25 11.9 -13.1 11.9 -13.1 11.9 -13.0 11.9 -12.95 11.9 -12.85 11.9 -12.75 11.9 -12.65 11.85 -12.6 11.85 -12.5 11.8 -12.45 11.75 -12.35 11.7 -12.25 11.65 -12.2 11.6 -12.1 11.55 -12.0 11.5 -11.95 11.45 -11.85 11.45 -11.75 11.4 -11.7 11.4 -11.6 11.4 -11.5 11.4 -11.45 11.45 -11.35 11.45 -11.25 11.5 -11.15 11.55 -11.1 11.6 -11.0 11.65 -10.95 11.75 -10.9 11.8 -10.85 11.9 -10.8 12.0 -10.75 12.1 -10.7 12.2 -10.7 12.25 -10.65 12.35 -10.65 12.45 -10.65 12.55 -10.7 12.65 -10.7 12.75 -10.75 12.85 -10.75 12.95 -10.8 13.05 -10.9 13.15 -10.95 13.25 -11.0 13.35 -11.1 13.4 -11.15 13.45 -11.25 13.5 -11.3 13.6 -11.4 13.6 -11.5 13.65 -11.55 13.7 -11.65 13.7 -11.75 13.75 -11.85 13.75 -11.9 13.7 -12.0 13.7 -12.1 13.65 -12.2 13.65 -12.3 13.55 -12.35 13.5 -12.45 13.45 -12.5 13.45 -12.6 13.4 -12.65 13.35 -12.75 13.35 -12.8 13.35 -12.9 13.3 -12.95 13.3 -13.05 13.3 -13.1 13.3 -13.2 13.25 -13.25 13.25 -13.35 13.25 -13.45 13.25 -13.5 13.25 -13.55 13.25 -13.6 13.25 -13.6 13.25 -13.65 13.25 -13.7 13.25 -13.7 13.25 -13.75 13.25 -13.75 13.25 -13.8 13.3 -13.8 13.3 -13.8 13.35 -13.85 13.35 -13.85 13.4 -13.85 13.45 -13.85 13.5 -13.85 13.55 -13.85 14.4 -13.9 17.05 -13.9 17.1 -13.9 17.1 -13.9 17.15 -13.9 17.2 -13.85 17.2 -13.85 17.25 -13.85 17.25 -13.85 17.3 -13.8 17.3 -13.8 17.3 -13.8 17.35 -13.75 17.35 -13.7 17.35 -13.7 17.35 -13.65 17.4 -13.6 17.4 -13.5 17.4 -13.45 17.4 -13.35 17.4 -13.25 17.4 -13.1 17.4 -13.1 17.4 -13.0 17.4 -12.95 17.4 -12.85 17.4 -12.75 17.4 -12.65 17.35 -12.6 17.35 -12.5 17.3 -12.45 17.25 -12.35 17.2 -12.25 17.15 -12.2 17.1 -12.1 17.05 -12.0 17.0 -11.95 16.95 -11.85 16.95 -11.75 16.9 -11.7 16.9 -11.6 16.9 -11.5 16.9 -11.45 16.95 -11.35 16.95 -11.25 17.0 -11.15 17.05 -11.1 17.1 -11.0 17.15 -10.95 17.25 -10.9 17.3 -10.85 17.4 -10.8 17.5 -10.75 17.6 -10.7 17.7 -10.7 17.75 -10.65 17.85 -10.65 17.95 -10.65 18.05 -10.7 18.15 -10.7 18.25 -10.75 18.35 -10.75 18.45 -10.8 18.55 -10.85 18.65 -10.95 18.75 -11.0 18.85 -11.1 18.9 -11.15 18.95 -11.25 19.0 -11.3 19.1 -11.4 19.1 -11.5 19.15 -11.55 19.2 -11.65 19.2 -11.75 19.25 -11.85 19.25 -11.9 19.2 -12.0 19.2 -12.1 19.15 -12.2 19.15 -12.3 19.05 -12.35 19.0 -12.45 18.95 -12.5 18.9 -12.6 18.9 -12.7 18.85 -12.75 18.85 -12.85 18.8 -12.9 18.8 -13.0 18.8 -13.05 18.8 -13.15 18.75 -13.25 18.75 -13.25 18.75 -13.4 18.75 -13.5 18.75 -13.55 18.75 -13.6 18.75 -13.65 18.75 -13.7 18.75 -13.7 18.75 -13.75 18.75 -13.8 18.75 -13.8 18.75 -13.85 18.75 -13.85 18.8 -13.85 18.8 -13.9 18.85 -13.9 18.85 -13.9 18.9 -13.9 18.95 -13.9 19.0 -13.9 19.05 -13.95 21.8 -13.95 22.95 -13.95 23.05 -13.95 23.0 -13.95 23.05 -13.95 23.05 -13.95 23.1 -13.95 23.1 -13.95 23.15 -13.95 23.15 -13.95 23.2 -13.9 23.2 -13.9 23.25 -13.9 23.25 -13.85 23.25 -13.85 23.25 -13.8 23.25 -13.75 23.25 -13.65 23.25 -13.55 23.25 -13.5 23.25 -13.4 23.25 -13.25 23.3 -13.2 23.3 -13.1 23.3 -13.0 23.3 -12.9 23.3 -12.85 23.3 -12.75 23.3 -12.65 23.25 -12.55 23.25 -12.45 23.2 -12.35 23.15 -12.3 23.05 -12.2 23.0 -12.15 22.95 -12.05 22.9 -11.95 22.85 -11.9 22.85 -11.8 22.85 -11.7 22.8 -11.6 22.8 -11.55 22.8 -11.45 22.85 -11.35 22.85 -11.25 22.9 -11.2 22.95 -11.1 23.0 -11.05 23.05 -10.95 23.15 -10.9 23.2 -10.8 23.3 -10.75 23.4 -10.75 23.5 -10.7 23.6 -10.7 23.7 -10.65 23.8 -10.65 23.9 -10.65 24.0 -10.7 24.1 -10.7 24.2 -10.75 24.3 -10.8 24.4 -10.85 24.5 -10.9 24.6 -10.95 24.65 -11.05 24.75 -11.1 24.8 -11.2 24.9 -11.25 24.95 -11.35 25.0 -11.45 25.05 -11.5 25.1 -11.6 25.1 -11.7 25.15 -11.8 25.15 -11.85 25.15 -11.95 25.1 -12.05 25.1 -12.15 25.05 -12.25 25.0 -12.35 24.95 -12.4 24.9 -12.5 24.85 -12.6 24.8 -12.65 24.75 -12.75 24.75 -12.85 24.7 -12.9 24.7 -13.0 24.7 -13.05 24.7 -13.15 24.7 -13.2 24.65 -13.35 24.65 -13.45 24.65 -13.5 24.65 -13.6 24.65 -13.65 24.65 -13.7 24.65 -13.75 24.65 -13.8 24.65 -13.8 24.65 -13.85 24.65 -13.85 24.65 -13.9 24.65 -13.9 24.7 -13.95 24.7 -13.95 24.75 -13.95 24.75 -13.95 24.8 -13.95 24.8 -13.95 24.85 -13.95 24.9 -13.95 24.95 -13.95 26.45 -14.0 28.55 -14.0 28.55 -14.0 28.6 -14.0 28.65 -14.0 28.7 -14.0 28.7 -13.95 28.75 -13.95 28.8 -13.95 28.8 -13.95 28.85 -13.9 28.85 -13.9 28.85 -13.85 28.9 -13.85 28.9 -13.8 28.9 -13.75 28.9 -13.7 28.9 -13.6 28.9 -13.5 28.9 -13.45 28.9 -13.35 28.9 -13.2 28.9 -13.15 28.95 -13.05 28.95 -13.0 28.95 -12.9 28.95 -12.8 28.9 -12.7 28.9 -12.6 28.9 -12.5 28.85 -12.45 28.8 -12.35 28.75 -12.25 28.7 -12.15 28.65 -12.1 28.6 -12.0 28.55 -11.95 28.5 -11.85 28.45 -11.75 28.45 -11.65 28.45 -11.6 28.45 -11.5 28.45 -11.4 28.5 -11.3 28.5 -11.25 28.55 -11.15 28.6 -11.1 28.65 -11.0 28.7 -10.9 28.8 -10.85 28.85 -10.8 28.95 -10.75 29.05 -10.7 29.15 -10.7 29.25 -10.65 29.35 -10.65 29.45 -10.65 29.55 -10.65 29.65 -10.7 29.75 -10.7 29.85 -10.75 29.95 -10.8 30.0 -10.85 30.1 -10.9 30.2 -10.95 30.3 -11.0 30.4 -11.1 30.45 -11.15 30.5 -11.25 30.55 -11.35 30.65 -11.4 30.65 -11.5 30.7 -11.6 30.75 -11.65 30.75 -11.75 30.75 -11.85 30.75 -11.95 30.75 -12.05 30.75 -12.1 30.7 -12.2 30.65 -12.3 30.6 -12.4 30.55 -12.45 30.5 -12.55 30.45 -12.65 30.4 -12.7 30.4 -12.8 30.35 -12.85 30.35 -12.95 30.35 -13.05 30.35 -13.15 30.3 -13.2 30.3 -13.3 30.3 -13.4 30.3 -13.45 30.3 -13.55 30.3 -13.65 30.25 -13.7 30.25 -13.75 30.25 -13.8 30.25 -13.8 30.25 -13.85 30.25 -13.9 30.3 -13.9 30.3 -13.9 30.3 -13.95 30.35 -13.95 30.35 -13.95 30.4 -13.95 30.45 -14.0 30.45 -14.0 30.5 -14.0 30.55 -14.0 30.6 -14.0 32.15 -14.05 34.5 -14.05 34.6 -14.05 34.6 -14.05 34.65 -14.0 34.7 -14.0 34.7 -14.0 34.75 -13.95 34.8 -13.9 34.8 -13.85 34.8 -13.8 34.8 -13.7 34.8 -13.6 34.8 -13.55 34.8 -13.4 34.8 -13.25 34.85 -13.25 34.85 -13.1 34.85 -13.05 34.85 -12.95 34.85 -12.85 34.85 -12.75 34.85 -12.65 34.8 -12.55 34.75 -12.45 34.75 -12.35 34.65 -12.25 34.6 -12.2 34.55 -12.1 34.5 -12.0 34.45 -11.95 34.4 -11.85 34.4 -11.75 34.35 -11.7 34.35 -11.6 34.35 -11.5 34.35 -11.45 34.4 -11.35 34.4 -11.25 34.45 -11.2 34.5 -11.1 34.55 -11.0 34.6 -10.95 34.7 -10.9 34.75 -10.85 34.85 -10.8 34.95 -10.75 35.0 -10.7 35.1 -10.7 35.2 -10.65 35.3 -10.65 35.4 -10.65 35.5 -10.7 35.6 -10.7 35.7 -10.75 35.8 -10.75 35.9 -10.8 36.0 -10.85 36.1 -10.95 36.15 -11.0 36.25 -11.1 36.3 -11.15 36.4 -11.25 36.45 -11.3 36.5 -11.4 36.55 -11.5 36.6 -11.55 36.65 -11.65 36.65 -11.75 36.65 -11.8 36.7 -11.9 36.65 -12.0 36.65 -12.1 36.6 -12.2 36.55 -12.3 36.5 -12.4 36.45 -12.45 36.4 -12.55 36.35 -12.65 36.35 -12.7 36.3 -12.8 36.25 -12.9 36.25 -13.0 36.25 -13.05 36.25 -13.15 36.2 -13.2 36.2 -13.35 36.2 -13.45 36.2 -13.5 36.2 -13.6 36.2 -13.7 36.15 -13.75 36.15 -13.8 36.15 -13.85 36.15 -13.9 36.15 -13.9 36.15 -13.95 36.2 -13.95 36.2 -14.0 36.25 -14.0 36.25 -14.0 36.3 -14.05 36.3 -14.05 36.35 -14.05 36.4 -14.05 36.45 -14.05 36.5 -14.05 36.55 -14.05 37.25 -14.05 38.5 -14.1 39.9 -14.1 40.45 -14.1 40.45 -14.1 40.55 -14.1 40.6 -14.1 40.65 -14.1 40.7 -14.1 40.75 -14.05 40.75 -14.05 40.8 -14.0 40.8 -13.95 40.8 -13.85 40.8 -13.75 40.8 -13.65 40.8 -13.55 40.85 -13.4 40.85 -13.35 40.85 -13.25 40.9 -13.15 40.9 -13.05 40.9 -12.95 40.9 -12.85 40.9 -12.75 40.85 -12.65 40.85 -12.55 40.8 -12.45 40.75 -12.35 40.7 -12.25 40.65 -12.2 40.6 -12.1 40.5 -12.0 40.5 -11.9 40.45 -11.8 40.45 -11.75 40.4 -11.65 40.4 -11.55 40.4 -11.45 40.4 -11.4 40.45 -11.3 40.5 -11.2 40.5 -11.1 40.6 -11.05 40.65 -10.95 40.7 -10.9 40.8 -10.8 40.85 -10.75 40.95 -10.75 41.05 -10.7 41.15 -10.7 41.25 -10.65 41.35 -10.65 41.45 -10.65 41.55 -10.7 41.65 -10.7 41.75 -10.75 41.85 -10.8 41.95 -10.85 42.05 -10.9 42.15 -10.95 42.25 -11.05 42.35 -11.1 42.4 -11.2 42.5 -11.3 42.55 -11.35 42.6 -11.45 42.6 -11.55 42.65 -11.65 42.65 -11.75 42.7 -11.8 42.7 -11.9 42.7 -12.0 42.65 -12.1 42.65 -12.2 42.6 -12.3 42.55 -12.4 42.5 -12.45 42.45 -12.5 42.45 -12.5 42.4 -12.55 42.4 -12.6 42.35 -12.65 42.35 -12.7 42.35 -12.7 42.3 -12.75 42.3 -12.8 42.3 -12.85 42.3 -12.9 42.25 -12.95 42.25 -13.0 42.25 -13.0 42.25 -13.05 42.25 -13.3 42.2 -13.4 42.2 -13.55 42.2 -13.65 42.2 -13.75 42.2 -13.85 42.2 -13.9 42.25 -13.95 42.3 -14.0 42.3 -14.05 42.4 -14.05 42.45 -14.1 42.6 -14.1 42.65 -14.1 42.85 -14.1 42.95 -14.1 43.2 -14.1 43.4 -14.1 43.5 -14.1 43.65 -14.1 43.75 -14.05 43.85 -14.05 43.95 -14.0 44.0 -14.0 44.05 -13.95 44.1 -13.85 44.15 -13.8 44.2 -13.7 44.25 -13.6 44.25 -13.5 44.3 -13.4 44.3 -13.2 44.35 5.8 48.6 9.8 49.5 9.9 49.55 10.0 49.55 10.1 49.55 10.15 49.55 10.25 49.55 10.3 49.55 10.35 49.5 10.4 49.5 10.4 49.45 10.45 49.4 10.45 49.35 10.5 49.3 10.5 49.25 10.5 49.15 10.5 49.05 10.5 48.95 10.5 45.8 10.5 31.0 L10.5 31.0 M17.35 11.6 Q17.05 11.65 16.8 11.75 16.5 11.8 16.2 11.9 15.95 11.95 15.65 12.05 15.4 12.15 15.15 12.2 14.85 12.3 14.6 12.4 14.35 12.45 14.1 12.55 13.8 12.65 13.55 12.75 13.3 12.85 13.05 12.95 12.95 13.0 12.85 13.05 12.8 13.05 12.7 13.1 12.65 13.15 12.6 13.2 12.55 13.3 12.5 13.35 12.45 13.4 12.4 13.5 12.4 13.55 12.35 13.65 12.35 13.7 12.35 13.8 12.35 13.9 12.35 14.0 12.35 14.3 12.35 44.75 12.35 46.05 12.35 48.65 12.65 48.6 12.9 48.55 13.2 48.5 13.45 48.5 13.75 48.45 14.0 48.4 14.3 48.35 14.55 48.3 14.8 48.25 15.1 48.15 15.35 48.1 15.6 48.05 15.9 48.0 16.15 47.9 16.4 47.85 16.65 47.75 16.75 47.75 16.85 47.7 16.9 47.65 17.0 47.65 17.05 47.6 17.1 47.55 17.15 47.5 17.2 47.45 17.25 47.4 17.25 47.35 17.3 47.3 17.3 47.2 17.35 47.15 17.35 47.05 17.35 46.95 17.35 46.85 17.35 41.95 17.35 22.05 17.35 18.6 17.35 11.6 L17.35 11.6 M16.05 9.9 Q12.85 9.4 6.15 8.35 -0.35 7.35 -3.8 6.85 -4.0 6.8 -4.3 6.75 -4.85 6.65 -4.8 6.65 -5.05 6.6 -5.25 6.6 -5.55 6.55 -5.75 6.5 -6.05 6.5 -6.25 6.5 -6.55 6.5 -6.75 6.5 -7.0 6.55 -7.25 6.6 -7.55 6.7 -7.75 6.8 -7.85 6.85 -8.0 6.9 -8.1 6.9 -8.2 6.95 -8.3 6.95 -8.45 7.0 -8.65 7.05 -8.7 7.05 -8.85 7.1 -8.95 7.15 -9.05 7.15 -9.2 7.2 -9.3 7.25 -9.4 7.3 -9.55 7.35 -9.65 7.4 -8.25 7.6 -0.25 8.85 5.45 9.75 9.1 10.35 9.3 10.4 9.5 10.4 9.65 10.4 9.9 10.4 10.2 10.45 10.35 10.45 10.55 10.45 10.75 10.5 10.95 10.55 11.15 10.55 11.35 10.65 11.55 10.7 11.75 10.8 11.95 10.9 12.1 11.05 12.3 11.2 12.3 11.2 12.35 11.2 12.4 11.2 12.45 11.2 12.5 11.2 12.55 11.2 13.2 10.9 14.3 10.55 15.85 10.0 16.05 9.9 L16.05 9.9 M-15.75 22.4 Q-15.75 22.1 -15.75 21.95 -15.75 21.8 -15.8 21.75 -15.8 21.7 -15.85 21.65 -15.9 21.65 -16.0 21.65 -16.05 21.65 -16.15 21.65 -16.25 21.7 -16.35 21.75 -16.4 21.75 -16.55 21.8 -16.65 21.85 -16.75 21.95 -16.85 22.0 -16.9 22.05 -17.0 22.1 -17.1 22.15 -17.15 22.25 -17.2 22.3 -17.25 22.35 -17.25 22.35 -17.25 22.4 -17.2 22.45 -17.15 22.5 -17.1 22.55 -17.05 22.6 -16.95 22.65 -16.85 22.7 -16.75 22.75 -16.65 22.8 -16.55 22.85 -16.45 22.9 -16.35 22.9 -16.2 22.95 -16.15 22.95 -16.05 23.0 -15.95 22.95 -15.85 22.95 -15.8 22.9 -15.8 22.9 -15.75 22.85 -15.75 22.85 -15.75 22.8 -15.75 22.75 -15.75 22.7 -15.75 22.7 -15.75 22.6 -15.8 22.55 -15.8 22.55 -15.8 22.5 -15.8 22.45 -15.8 22.4 -15.75 22.4 L-15.75 22.4 M-15.7 10.2 Q-15.8 10.2 -15.9 10.2 -16.0 10.25 -16.1 10.25 -16.15 10.3 -16.25 10.3 -16.35 10.35 -16.4 10.35 -16.5 10.4 -16.6 10.45 -16.65 10.5 -16.75 10.55 -16.8 10.6 -16.9 10.65 -16.95 10.7 -17.05 10.75 -17.1 10.75 -17.1 10.8 -17.15 10.8 -17.15 10.85 -17.2 10.85 -17.2 10.9 -17.2 10.9 -17.25 10.95 -17.25 11.0 -17.25 11.0 -17.25 11.05 -17.2 11.05 -17.2 11.1 -17.15 11.1 -17.15 11.15 -17.1 11.2 -17.2 11.15 -16.95 11.3 -16.85 11.3 -16.75 11.35 -16.7 11.4 -16.6 11.45 -16.5 11.45 -16.45 11.5 -16.35 11.5 -16.25 11.55 -16.2 11.55 -16.1 11.55 -16.0 11.55 -15.95 11.55 -15.85 11.55 -15.8 11.55 -15.75 11.55 -15.75 11.5 -15.7 11.45 -15.7 11.4 -15.65 11.35 -15.65 11.3 -15.65 11.25 -15.65 11.2 -15.65 11.1 -15.7 11.05 -15.7 10.75 -15.7 10.9 -15.7 10.8 -15.7 10.75 -15.7 10.65 -15.7 10.6 -15.7 10.55 -15.7 10.4 -15.7 10.25 -15.7 10.2 L-15.7 10.2 M-15.7 17.1 Q-15.7 17.0 -15.7 16.9 -15.7 16.85 -15.7 16.75 -15.7 16.65 -15.7 16.55 -15.65 16.4 -15.65 16.35 -15.65 16.25 -15.65 16.2 -15.65 16.1 -15.65 16.0 -15.7 15.95 -15.7 15.9 -15.75 15.8 -15.8 15.75 -15.85 15.7 -15.9 15.7 -15.95 15.7 -16.05 15.7 -16.1 15.7 -16.2 15.75 -16.25 15.75 -16.35 15.8 -16.4 15.85 -16.5 15.9 -16.55 15.9 -16.65 15.95 -16.7 16.0 -16.8 16.05 -16.1 15.6 -16.95 16.15 -17.05 16.2 -17.1 16.25 -17.15 16.3 -17.2 16.35 -17.2 16.4 -17.2 16.45 -17.25 16.5 -17.2 16.55 -17.2 16.55 -17.2 16.6 -17.15 16.65 -17.1 16.7 -17.05 16.7 -17.0 16.75 -16.95 16.75 -16.85 16.8 -16.75 16.85 -16.7 16.85 -16.65 16.9 -16.6 16.9 -16.5 16.9 -16.45 16.95 -16.4 16.95 -16.3 17.0 -16.25 17.0 -16.15 17.0 -16.1 17.05 -16.05 17.05 -15.95 17.05 -15.85 17.1 -15.8 17.1 -15.7 17.1 L-15.7 17.1 M-15.85 39.85 Q-15.9 39.8 -15.9 39.75 -15.9 39.75 -15.9 39.7 -15.9 39.65 -15.9 39.6 -15.9 39.5 -15.85 39.5 -15.85 39.4 -15.85 39.4 -15.9 39.35 -15.9 39.3 -15.95 39.3 -16.0 39.3 -16.05 39.25 -16.15 39.3 -16.25 39.3 -16.3 39.3 -16.4 39.35 -16.5 39.35 -16.6 39.4 -16.65 39.4 -16.75 39.45 -16.8 39.5 -16.9 39.55 -16.95 39.6 -17.05 39.65 -17.1 39.7 -17.15 39.75 -17.15 39.8 -17.2 39.9 -17.2 39.95 -17.2 40.05 -17.15 40.1 -17.15 40.15 -17.1 40.2 -17.05 40.25 -16.95 40.3 -16.9 40.35 -16.8 40.35 -16.75 40.4 -16.65 40.4 -16.6 40.4 -16.5 40.45 -16.4 40.45 -16.3 40.45 -16.25 40.45 -16.15 40.5 -16.05 40.5 -16.0 40.5 -15.95 40.45 -15.9 40.45 -15.9 40.4 -15.85 40.35 -15.85 40.3 -15.85 40.25 -15.85 40.25 -15.9 40.15 -15.9 40.1 -15.9 40.05 -15.9 40.0 -15.9 39.95 -15.9 39.9 -15.85 39.85 L-15.85 39.85 M-15.8 28.65 Q-15.8 28.6 -15.8 27.55 -15.8 27.55 -15.8 27.5 -15.8 27.45 -15.8 27.4 -15.85 27.35 -15.85 27.35 -15.9 27.3 -15.95 27.3 -16.0 27.3 -16.05 27.3 -16.15 27.3 -16.25 27.35 -16.35 27.35 -16.45 27.4 -16.55 27.45 -16.65 27.5 -16.75 27.55 -16.85 27.65 -16.95 27.7 -17.0 27.75 -17.1 27.8 -17.15 27.85 -17.2 27.9 -17.2 27.95 -17.2 28.05 -17.2 28.1 -17.15 28.15 -17.15 28.2 -17.1 28.25 -17.05 28.25 -17.0 28.3 -16.95 28.3 -16.95 28.35 -16.85 28.35 -16.85 28.35 -16.75 28.4 -16.7 28.4 -16.65 28.4 -16.6 28.45 -16.55 28.45 -16.55 28.45 -15.8 28.65 L-15.8 28.65 M-15.85 34.55 Q-15.85 33.85 -15.85 33.5 -15.85 33.5 -15.85 33.4 -15.85 33.35 -15.85 33.35 -15.85 33.3 -15.85 33.25 -15.85 33.25 -15.9 33.2 -15.95 33.2 -16.0 33.2 -16.1 33.2 -16.2 33.25 -16.25 33.25 -16.35 33.25 -16.45 33.3 -16.55 33.35 -16.6 33.35 -16.7 33.4 -16.8 33.45 -16.85 33.5 -16.95 33.55 -17.0 33.6 -17.05 33.65 -17.1 33.7 -17.15 33.8 -17.15 33.85 -17.2 33.95 -17.2 34.0 -17.2 34.05 -17.15 34.1 -17.15 34.15 -17.1 34.15 -17.05 34.2 -16.95 34.2 -16.9 34.25 -16.85 34.25 -16.8 34.25 -16.7 34.3 -16.65 34.3 -16.6 34.35 -16.55 34.35 -16.5 34.35 -16.4 34.4 -15.85 34.55 L-15.85 34.55" fill="#050505" fill-rule="evenodd" stroke="none"/>
    <path d="M5.65 18.65 Q5.65 19.45 5.65 21.7 5.65 21.85 5.65 22.0 5.65 22.1 5.6 22.2 5.6 22.3 5.6 22.35 5.55 22.4 5.5 22.45 5.45 22.5 5.4 22.5 5.35 22.55 5.25 22.55 5.15 22.55 5.0 22.5 4.9 22.5 4.75 22.45 4.55 22.4 -0.6 21.45 -6.4 20.35 -8.85 19.95 -9.05 19.9 -9.15 19.9 -9.3 19.85 -9.35 19.8 -9.45 19.8 -9.55 19.75 -9.6 19.7 -9.65 19.65 -9.7 19.6 -9.75 19.5 -9.75 19.45 -9.75 19.35 -9.8 19.25 -9.8 19.1 -9.8 19.0 -9.8 18.8 -9.7 14.45 -9.7 13.1 -9.7 13.0 -9.7 12.9 -9.7 12.85 -9.65 12.75 -9.65 12.7 -9.6 12.65 -9.6 12.6 -9.55 12.55 -9.5 12.5 -9.45 12.5 -9.4 12.45 -9.3 12.45 -9.25 12.45 -9.15 12.45 -9.05 12.45 -8.95 12.5 -6.95 12.8 -3.65 13.25 0.4 13.85 1.65 14.05 2.15 14.1 3.3 14.3 4.35 14.45 4.95 14.55 5.05 14.55 5.15 14.6 5.25 14.6 5.3 14.65 5.35 14.65 5.4 14.7 5.5 14.75 5.5 14.8 5.55 14.85 5.6 14.9 5.6 15.0 5.65 15.05 5.65 15.15 5.65 15.25 5.65 15.3 5.65 15.4 5.65 15.6 5.65 18.65 L5.65 18.65 M4.6 18.5 Q4.6 18.5 4.65 18.5 4.6 16.45 4.65 15.75 4.65 15.65 4.65 15.6 4.65 15.5 4.6 15.45 4.6 15.4 4.6 15.35 4.55 15.3 4.5 15.25 4.5 15.25 4.45 15.2 4.4 15.2 4.35 15.15 4.3 15.15 4.2 15.15 4.15 15.1 4.1 15.1 -2.3 14.15 -8.3 13.25 -8.4 13.25 -8.45 13.25 -8.5 13.2 -8.55 13.25 -8.6 13.25 -8.65 13.25 -8.7 13.25 -8.75 13.3 -8.75 13.3 -8.8 13.35 -8.8 13.4 -8.85 13.45 -8.85 13.5 -8.85 13.55 -8.85 13.65 -8.85 13.7 -8.85 16.65 -8.9 18.65 -8.9 18.75 -8.9 18.8 -8.9 18.9 -8.9 18.95 -8.85 19.0 -8.85 19.05 -8.8 19.1 -8.8 19.15 -8.75 19.2 -8.7 19.2 -8.65 19.25 -8.6 19.25 -8.55 19.3 -8.5 19.3 -8.45 19.3 -8.35 19.35 -3.7 20.2 4.2 21.65 4.25 21.65 4.3 21.65 4.35 21.65 4.4 21.65 4.45 21.65 4.45 21.65 4.5 21.65 4.55 21.6 4.55 21.6 4.6 21.55 4.6 21.55 4.6 21.5 4.6 21.45 4.6 21.4 4.65 21.35 4.65 21.3 4.6 20.65 4.6 18.5 L4.6 18.5" fill="#050505" fill-rule="evenodd" stroke="none"/>
    <path d="M13.8 25.15 Q13.8 22.65 13.8 15.5 13.8 14.95 13.8 14.9 13.8 14.85 13.8 14.8 13.85 14.75 13.85 14.75 13.85 14.7 13.9 14.65 13.9 14.6 13.95 14.6 13.95 14.55 14.0 14.55 14.05 14.5 14.05 14.5 14.1 14.5 14.15 14.5 14.2 14.5 14.25 14.5 14.3 14.5 14.35 14.5 14.4 14.5 14.4 14.5 14.45 14.55 14.5 14.55 14.5 14.55 14.55 14.6 14.55 14.6 14.6 14.65 14.6 14.7 14.6 14.75 14.65 14.75 14.65 14.8 14.65 14.85 14.65 14.9 14.65 15.05 14.65 15.45 14.65 21.95 14.65 35.05 14.65 35.1 14.65 35.35 14.65 35.4 14.65 35.45 14.65 35.5 14.65 35.55 14.65 35.65 14.65 35.7 14.65 35.75 14.6 35.75 14.6 35.8 14.55 35.85 14.55 35.9 14.5 35.9 14.45 35.95 14.4 35.95 14.35 36.0 14.25 36.0 14.15 36.0 14.1 36.0 14.05 36.0 14.0 35.95 13.95 35.9 13.9 35.9 13.9 35.85 13.85 35.8 13.85 35.75 13.85 35.7 13.8 35.65 13.8 35.6 13.8 35.55 13.8 35.45 13.8 35.4 13.8 35.35 13.8 33.5 13.8 28.55 13.8 27.3 13.8 25.15 L13.8 25.15" fill="#000000" fill-opacity="0.3882353" fill-rule="evenodd" stroke="none"/>
    <path d="M16.45 31.65 Q16.45 34.7 16.45 41.0 16.45 41.1 16.45 41.25 16.4 41.5 16.4 41.5 16.4 41.55 16.4 41.55 16.4 41.6 16.4 41.65 16.4 41.65 16.35 41.7 16.35 41.7 16.35 41.75 16.3 41.75 16.3 41.75 16.3 41.8 16.25 41.8 16.2 41.8 16.2 41.8 16.15 41.8 16.15 41.8 16.1 41.8 16.05 41.8 16.05 41.8 16.0 41.8 16.0 41.8 15.95 41.8 15.95 41.75 15.9 41.75 15.9 41.75 15.85 41.7 15.85 41.7 15.85 41.65 15.85 41.65 15.85 41.6 15.8 41.6 15.8 41.55 15.8 41.45 15.8 41.3 15.8 41.15 15.8 41.1 15.8 34.7 15.8 22.25 15.8 22.25 15.8 22.2 15.8 22.2 15.8 22.15 15.8 22.1 15.8 22.05 15.8 22.0 15.8 21.95 15.8 21.85 15.8 21.8 15.8 21.75 15.8 21.7 15.8 21.65 15.85 21.6 15.85 21.55 15.9 21.5 15.95 21.5 16.0 21.45 16.05 21.45 16.15 21.45 16.2 21.45 16.3 21.45 16.35 21.5 16.35 21.5 16.4 21.55 16.4 21.6 16.45 21.65 16.45 21.7 16.45 21.75 16.45 21.8 16.45 21.85 16.45 21.95 16.4 22.3 16.45 22.05 16.4 22.1 16.4 22.15 16.45 24.15 16.45 28.9 16.45 29.85 16.45 31.65 L16.45 31.65" fill="#000000" fill-opacity="0.3882353" fill-rule="evenodd" stroke="none"/>
    <path d="M-5.9 6.75 Q-5.1 6.9 -3.8 7.1 -2.1 7.4 -1.6 7.5 0.75 7.9 5.95 8.8 6.2 8.85 6.3 8.85 6.35 8.85 6.4 8.9 6.4 8.9 6.5 8.9 6.55 8.9 6.6 8.9 6.65 8.95 6.7 8.95 6.75 8.95 6.75 9.0 6.8 9.0 6.8 9.05 6.85 9.1 6.85 9.15 6.85 9.2 6.85 9.3 6.85 9.35 6.8 9.4 6.8 9.45 6.75 9.5 6.7 9.55 6.65 9.55 6.65 9.55 6.6 9.55 6.55 9.55 6.5 9.55 6.45 9.55 6.4 9.55 6.4 9.55 6.3 9.5 6.25 9.5 6.2 9.5 3.85 9.1 0.15 8.45 -5.05 7.55 -5.9 7.4 -5.85 7.4 -6.0 7.4 -6.05 7.4 -6.05 7.4 -6.1 7.4 -6.15 7.35 -6.2 7.35 -6.25 7.35 -6.3 7.3 -6.3 7.3 -6.35 7.25 -6.35 7.25 -6.4 7.2 -6.4 7.15 -6.4 7.1 -6.4 7.05 -6.4 7.0 -6.4 6.95 -6.4 6.9 -6.35 6.9 -6.35 6.85 -6.3 6.85 -6.3 6.8 -6.25 6.8 -6.2 6.8 -6.2 6.75 -6.15 6.75 -6.1 6.75 -6.05 6.75 -6.0 6.75 -5.95 6.75 -5.9 6.75 L-5.9 6.75" fill="#000000" fill-opacity="0.3882353" fill-rule="evenodd" stroke="none"/>
  </g>
</svg>
