<?xml version="1.0" encoding="UTF-8" standalone="no"?>
<svg xmlns:xlink="http://www.w3.org/1999/xlink" height="200.0px" width="200.0px" xmlns="http://www.w3.org/2000/svg">
  <g transform="matrix(1.0, 0.0, 0.0, 1.0, 100.0, 100.0)">
    <path d="M6.35 -4.8 Q4.2 -13.9 3.45 -16.95 2.05 -22.8 0.5 -28.9 0.45 -29.05 0.4 -29.15 0.3 -29.3 0.2 -29.45 0.1 -29.65 0.0 -29.85 -0.15 -30.05 -0.3 -30.25 -0.5 -30.45 -0.7 -30.65 -0.9 -30.9 -1.1 -31.05 -1.35 -31.3 -1.65 -31.45 -1.9 -31.65 -2.25 -31.8 -2.45 -31.9 -2.65 -31.95 -2.9 -32.05 -3.1 -32.1 -3.3 -32.15 -3.5 -32.2 -3.7 -32.2 -3.9 -32.25 -4.05 -32.25 -4.25 -32.25 -4.4 -32.25 -4.6 -32.25 -4.75 -32.25 -4.95 -32.25 -5.1 -32.25 -5.3 -32.25 -5.6 -32.25 -5.75 -32.25 -6.0 -32.2 -6.25 -32.2 -6.5 -32.15 -6.75 -32.1 -7.05 -32.05 -7.35 -32.0 -7.65 -31.95 -7.9 -31.85 -8.2 -31.75 -8.5 -31.6 -8.8 -31.45 -9.05 -31.3 -9.35 -31.1 -9.6 -30.85 -9.95 -30.6 -10.2 -30.25 -10.45 -29.95 -10.7 -29.65 -10.9 -29.3 -11.05 -29.0 -11.2 -28.7 -11.3 -28.35 -11.4 -28.1 -11.45 -27.8 -11.55 -27.55 -11.55 -27.3 -11.6 -27.1 -11.65 -26.9 -11.65 -26.75 -11.65 -26.6 -11.1 -24.2 -6.45 -3.85 -4.75 3.4 -1.45 17.9 -0.1 17.7 2.55 17.25 2.4 16.1 2.1 13.8 3.1 13.55 5.1 13.0 5.2 13.4 5.35 14.15 5.6 14.35 6.1 14.8 6.15 15.25 6.15 16.25 L11.0 14.8 Q8.7 5.35 6.35 -4.8 L6.35 -4.8 M1.7 -7.85 Q1.65 -7.75 1.55 -7.65 1.45 -7.55 1.4 -7.45 1.3 -7.35 1.2 -7.25 1.1 -7.2 1.0 -7.1 0.9 -7.05 0.75 -6.95 0.65 -6.9 0.55 -6.85 0.4 -6.8 0.3 -6.75 0.15 -6.75 0.0 -6.7 -0.1 -6.7 -0.25 -6.65 -0.35 -6.65 -0.5 -6.65 -0.65 -6.65 -0.75 -6.65 -0.9 -6.65 -1.05 -6.65 -1.15 -6.65 -1.3 -6.65 -1.45 -6.65 -1.55 -6.7 -1.7 -6.7 -1.8 -6.75 -1.95 -6.75 -2.05 -6.8 -2.25 -6.85 -2.45 -6.95 -2.65 -7.05 -2.85 -7.15 -3.0 -7.3 -3.15 -7.45 -3.35 -7.6 -3.45 -7.75 -3.6 -7.9 -3.75 -8.1 -3.85 -8.25 -3.95 -8.45 -4.05 -8.65 -4.1 -8.85 -4.2 -9.05 -4.25 -9.25 -4.3 -9.45 -4.3 -9.65 -4.3 -9.9 -4.3 -10.1 -4.3 -10.3 -4.25 -10.5 -4.25 -10.7 -4.2 -10.9 -4.1 -11.1 -4.05 -11.3 -3.95 -11.5 -3.85 -11.7 -3.75 -11.85 -3.6 -12.0 -3.5 -12.2 -3.35 -12.35 -3.35 -12.4 -3.35 -12.5 -3.35 -12.55 -3.35 -12.65 -3.35 -12.7 -3.35 -12.8 -3.35 -12.85 -3.35 -12.95 -3.35 -13.0 -3.4 -13.1 -3.4 -13.15 -3.4 -13.25 -3.4 -13.3 -3.4 -13.4 -3.45 -13.45 -3.45 -13.55 -3.55 -14.25 -4.1 -16.4 -4.15 -16.5 -4.3 -17.15 -4.4 -17.65 -4.5 -17.9 -5.15 -20.1 -5.25 -21.05 -5.25 -21.15 -5.25 -21.2 -5.25 -21.3 -5.25 -21.4 -5.25 -21.5 -5.25 -21.6 -5.25 -21.65 -5.25 -21.75 -5.25 -21.85 -5.2 -21.9 -5.2 -22.0 -5.2 -22.1 -5.15 -22.2 -5.15 -22.25 -5.1 -22.35 -5.05 -22.4 -5.0 -22.5 -4.95 -22.55 -4.9 -22.6 -4.85 -22.7 -4.8 -22.75 -4.75 -22.8 -4.65 -22.85 -4.6 -22.85 -4.5 -22.9 -4.45 -22.95 -4.35 -22.95 -4.25 -22.95 -4.2 -23.0 -4.1 -22.95 -4.0 -22.95 -3.9 -22.95 -3.8 -22.95 -3.75 -22.9 -3.65 -22.85 -3.6 -22.85 -3.5 -22.8 -3.45 -22.7 -3.35 -22.65 -3.3 -22.6 -3.25 -22.55 -3.2 -22.45 -3.15 -22.4 -3.1 -22.3 -3.05 -22.25 -3.0 -22.15 -2.95 -22.05 -2.9 -22.0 -2.85 -21.9 -2.85 -21.8 -2.8 -21.75 -2.75 -21.65 -2.75 -21.55 -2.7 -21.45 -2.7 -21.35 -2.65 -21.25 -2.65 -21.15 -2.6 -21.05 -2.6 -21.0 -2.55 -20.9 -2.55 -20.8 -2.55 -20.7 -2.5 -20.6 -2.5 -20.5 -2.35 -19.75 -1.85 -17.95 -1.75 -17.7 -1.65 -17.25 -1.45 -16.65 -1.45 -16.55 -1.4 -16.45 -1.4 -16.4 -1.4 -16.3 -1.35 -16.2 -1.35 -16.15 -1.3 -16.05 -1.3 -16.0 -1.3 -15.9 -1.25 -15.8 -1.25 -15.75 -1.25 -15.65 -1.25 -15.6 -1.2 -15.5 -1.2 -15.4 -1.2 -15.35 -1.2 -15.25 -1.15 -15.1 -1.1 -14.65 -1.05 -14.25 -0.95 -14.0 -0.95 -13.95 -0.9 -13.85 -0.9 -13.8 -0.9 -13.75 -0.85 -13.65 -0.85 -13.6 -0.85 -13.55 -0.8 -13.45 -0.8 -13.4 -0.75 -13.35 -0.7 -13.3 -0.7 -13.2 -0.65 -13.15 -0.6 -13.1 -0.55 -13.05 -0.55 -13.0 -0.45 -12.9 -0.35 -12.85 -0.3 -12.75 -0.2 -12.7 -0.1 -12.6 0.0 -12.55 0.1 -12.5 0.25 -12.45 0.3 -12.4 0.45 -12.35 2.5 -11.35 0.65 -12.25 0.8 -12.15 0.9 -12.1 1.0 -12.05 1.1 -12.0 1.15 -11.95 1.2 -11.95 1.25 -11.9 1.3 -11.85 1.35 -11.85 1.4 -11.8 1.45 -11.75 1.5 -11.7 1.55 -11.7 1.6 -11.65 1.65 -11.6 1.7 -11.55 1.75 -11.5 1.75 -11.45 1.8 -11.4 1.85 -11.35 1.9 -11.3 1.95 -11.2 2.0 -11.15 2.05 -11.1 2.05 -11.0 2.1 -10.95 2.15 -10.85 2.15 -10.8 2.2 -10.7 2.2 -10.65 2.25 -10.55 2.25 -10.5 2.25 -10.4 2.3 -10.35 2.3 -10.25 2.3 -10.15 2.3 -10.0 2.3 -9.85 2.35 -9.7 2.3 -9.55 2.3 -9.4 2.25 -9.25 2.25 -9.1 2.2 -8.95 2.15 -8.85 2.1 -8.7 2.05 -8.55 2.0 -8.4 1.95 -8.25 1.85 -8.15 1.8 -8.0 1.7 -7.85 L1.7 -7.85" fill="#00ce89" fill-rule="evenodd" stroke="none"/>
  </g>
</svg>
