<?xml version="1.0" encoding="UTF-8" standalone="no"?>
<svg xmlns:xlink="http://www.w3.org/1999/xlink" height="48.1px" width="41.75px" xmlns="http://www.w3.org/2000/svg">
  <g transform="matrix(1.0, 0.0, 0.0, 1.0, 20.85, 24.05)">
    <path d="M1.45 -1.3 Q1.35 -1.2 1.25 -1.15 1.15 -1.05 1.1 -0.95 1.0 -0.85 0.9 -0.75 0.85 -0.65 0.75 -0.55 0.7 -0.45 0.6 -0.35 0.5 -0.2 0.45 -0.1 0.4 0.0 0.3 0.1 0.25 0.2 0.15 0.3 -0.55 1.25 -1.3 2.15 -2.05 3.1 -2.85 4.0 -3.65 4.85 -4.45 5.75 -5.25 6.6 -6.1 7.45 -6.95 8.3 -7.8 9.1 -8.65 9.9 -9.55 10.7 -10.45 11.45 -11.4 12.2 -12.3 13.0 -13.25 13.7 -13.6 13.95 -13.95 14.25 -14.35 14.5 -14.7 14.75 -15.05 15.05 -15.45 15.3 -15.8 15.55 -16.2 15.8 -16.55 16.05 -16.95 16.3 -17.3 16.5 -17.7 16.75 -18.05 17.0 -18.45 17.25 -18.85 17.45 -19.25 17.7 -19.35 17.75 -19.4 17.85 -19.45 17.95 -19.5 18.05 -19.5 18.15 -19.55 18.25 -19.55 18.35 -19.6 18.45 -19.6 18.55 -19.6 18.7 -19.6 19.05 -19.6 18.9 -19.6 19.05 -19.65 19.15 -19.65 19.25 -19.65 19.35 -19.9 21.4 -19.95 22.5 -19.95 22.6 -19.9 22.7 -19.85 22.8 -19.8 22.85 -19.75 22.95 -19.65 23.0 -19.6 23.05 -19.5 23.1 -19.4 23.15 -19.3 23.15 -19.2 23.2 -19.1 23.2 -19.0 23.2 -18.9 23.15 -18.8 23.15 -18.75 23.15 -18.25 23.05 -17.8 22.9 -17.35 22.75 -16.85 22.55 -16.4 22.4 -15.95 22.2 -15.55 22.0 -15.1 21.75 -14.65 21.55 -14.2 21.25 -13.8 21.05 -13.35 20.75 -13.0 20.55 -12.55 20.25 -12.2 20.05 -11.7 19.7 -10.8 19.1 -9.85 18.4 -8.95 17.75 -8.1 17.05 -7.2 16.4 -6.35 15.65 -5.5 14.95 -4.65 14.2 -3.8 13.45 -3.0 12.65 -2.2 11.9 -1.4 11.1 -0.6 10.3 0.2 9.5 0.95 8.7 1.75 7.85 2.05 7.5 2.35 7.15 2.65 6.85 2.95 6.5 3.25 6.15 3.55 5.8 3.8 5.45 4.1 5.1 4.4 4.7 4.65 4.35 4.95 4.0 5.2 3.65 5.45 3.25 5.7 2.9 5.95 2.5 6.2 2.1 6.25 2.05 6.3 1.95 6.35 1.85 6.35 1.75 6.35 1.7 6.35 1.6 6.35 1.5 6.35 1.4 6.3 1.3 6.3 1.25 6.25 1.15 6.2 1.1 6.1 1.0 6.05 0.95 5.95 0.9 5.85 0.85 5.8 0.8 3.9 -0.25 2.75 -0.9 1.95 -1.3 1.9 -1.3 1.9 -1.35 1.85 -1.35 1.85 -1.35 1.8 -1.35 1.75 -1.35 1.75 -1.35 1.7 -1.35 1.7 -1.35 1.65 -1.35 1.6 -1.35 1.6 -1.3 1.55 -1.3 1.5 -1.3 1.45 -1.3 1.45 -1.3 L1.45 -1.3" fill="#ff0000" fill-rule="evenodd" stroke="none"/>
    <path d="M1.45 -1.3 Q1.35 -1.2 1.25 -1.15 1.15 -1.05 1.1 -0.95 1.0 -0.85 0.9 -0.75 0.85 -0.65 0.75 -0.55 0.7 -0.45 0.6 -0.35 0.5 -0.2 0.45 -0.1 0.4 0.0 0.3 0.1 0.25 0.2 0.15 0.3 -0.55 1.25 -1.3 2.15 -2.05 3.1 -2.85 4.0 -3.65 4.85 -4.45 5.75 -5.25 6.6 -6.1 7.45 -6.95 8.3 -7.8 9.1 -8.65 9.9 -9.55 10.7 -10.45 11.45 -11.4 12.2 -12.3 13.0 -13.25 13.7 -13.6 13.95 -13.95 14.25 -14.35 14.5 -14.7 14.75 -15.05 15.05 -15.45 15.3 -15.8 15.55 -16.2 15.8 -16.55 16.05 -16.95 16.3 -17.3 16.5 -17.7 16.75 -18.05 17.0 -18.45 17.25 -18.85 17.45 -19.25 17.7 -19.35 17.75 -19.4 17.85 -19.45 17.95 -19.5 18.05 -19.5 18.15 -19.55 18.25 -19.55 18.35 -19.6 18.45 -19.6 18.55 -19.6 18.7 -19.6 19.05 -19.6 18.9 -19.6 19.05 -19.65 19.15 -19.65 19.25 -19.65 19.35 -19.9 21.4 -19.95 22.5 -19.95 22.6 -19.9 22.7 -19.85 22.8 -19.8 22.85 -19.75 22.95 -19.65 23.0 -19.6 23.05 -19.5 23.1 -19.4 23.15 -19.3 23.15 -19.2 23.2 -19.1 23.2 -19.0 23.2 -18.9 23.15 -18.8 23.15 -18.75 23.15 -18.25 23.05 -17.8 22.9 -17.35 22.75 -16.85 22.55 -16.4 22.4 -15.95 22.2 -15.55 22.0 -15.1 21.75 -14.65 21.55 -14.2 21.25 -13.8 21.05 -13.35 20.75 -13.0 20.55 -12.55 20.25 -12.2 20.05 -11.7 19.7 -10.8 19.1 -9.85 18.4 -8.95 17.75 -8.1 17.05 -7.2 16.4 -6.35 15.65 -5.5 14.95 -4.65 14.2 -3.8 13.45 -3.0 12.65 -2.2 11.9 -1.4 11.1 -0.6 10.3 0.2 9.5 0.95 8.7 1.75 7.85 2.05 7.5 2.35 7.15 2.65 6.85 2.95 6.5 3.25 6.15 3.55 5.8 3.8 5.45 4.1 5.1 4.4 4.7 4.65 4.35 4.95 4.0 5.2 3.65 5.45 3.25 5.7 2.9 5.95 2.5 6.2 2.1 6.25 2.05 6.3 1.95 6.35 1.85 6.35 1.75 6.35 1.7 6.35 1.6 6.35 1.5 6.35 1.4 6.3 1.3 6.3 1.25 6.25 1.15 6.2 1.1 6.1 1.0 6.05 0.95 5.95 0.9 5.85 0.85 5.8 0.8 3.9 -0.25 2.75 -0.9 1.95 -1.3 1.9 -1.3 1.9 -1.35 1.85 -1.35 1.85 -1.35 1.8 -1.35 1.75 -1.35 1.75 -1.35 1.7 -1.35 1.7 -1.35 1.65 -1.35 1.6 -1.35 1.6 -1.3 1.55 -1.3 1.5 -1.3 1.45 -1.3 1.45 -1.3 L1.45 -1.3 Z" fill="none" stroke="#000000" stroke-linecap="round" stroke-linejoin="round" stroke-width="0.05"/>
    <path d="M3.2 -3.15 Q3.1 -3.1 3.0 -3.05 2.95 -3.0 2.85 -2.9 2.8 -2.85 2.75 -2.75 2.65 -2.65 2.6 -2.55 2.55 -2.5 2.5 -2.4 2.55 -2.45 2.4 -2.2 2.35 -2.1 2.3 -2.0 2.25 -1.9 2.2 -1.85 2.15 -1.8 2.1 -1.7 2.05 -1.6 2.05 -1.55 2.0 -1.45 2.0 -1.35 1.95 -1.25 2.0 -1.2 2.0 -1.1 2.0 -1.0 2.0 -0.9 2.05 -0.85 2.1 -0.8 2.15 -0.7 2.2 -0.65 2.3 -0.6 5.15 1.0 5.5 1.2 5.6 1.25 5.65 1.25 5.75 1.25 5.85 1.25 5.9 1.25 6.0 1.2 6.05 1.15 6.15 1.1 6.2 1.05 6.3 1.0 6.35 0.95 6.4 0.9 6.45 0.8 6.5 0.75 6.55 0.7 6.55 0.6 6.6 0.5 6.65 0.45 6.7 0.35 6.75 0.25 6.9 0.05 6.85 0.1 6.9 0.0 6.95 -0.05 7.0 -0.15 7.05 -0.2 7.1 -0.3 7.15 -0.4 7.2 -0.5 7.2 -0.55 7.25 -0.65 7.25 -0.75 7.25 -0.85 7.25 -0.95 7.2 -1.05 7.2 -1.1 7.15 -1.2 7.1 -1.25 7.0 -1.3 6.95 -1.35 6.85 -1.4 6.8 -1.45 6.7 -1.5 6.6 -1.5 6.5 -1.5 6.45 -1.5 6.35 -1.5 6.25 -1.5 6.1 -1.45 5.9 -1.45 5.75 -1.45 5.55 -1.5 5.4 -1.5 5.2 -1.6 5.05 -1.65 4.9 -1.75 4.75 -1.8 4.65 -1.95 4.5 -2.05 4.4 -2.2 4.25 -2.3 4.2 -2.45 4.1 -2.6 4.05 -2.8 4.0 -2.85 3.95 -2.9 3.95 -2.95 3.9 -3.0 3.85 -3.0 3.8 -3.05 3.75 -3.1 3.7 -3.1 3.65 -3.15 3.55 -3.15 3.5 -3.15 3.45 -3.15 3.4 -3.15 3.35 -3.15 3.25 -3.15 3.2 -3.15 L3.2 -3.15" fill="#ff0000" fill-rule="evenodd" stroke="none"/>
    <path d="M3.2 -3.15 Q3.1 -3.1 3.0 -3.05 2.95 -3.0 2.85 -2.9 2.8 -2.85 2.75 -2.75 2.65 -2.65 2.6 -2.55 2.55 -2.5 2.5 -2.4 2.55 -2.45 2.4 -2.2 2.35 -2.1 2.3 -2.0 2.25 -1.9 2.2 -1.85 2.15 -1.8 2.1 -1.7 2.05 -1.6 2.05 -1.55 2.0 -1.45 2.0 -1.35 1.95 -1.25 2.0 -1.2 2.0 -1.1 2.0 -1.0 2.0 -0.9 2.05 -0.85 2.1 -0.8 2.15 -0.7 2.2 -0.65 2.3 -0.6 5.15 1.0 5.5 1.2 5.6 1.25 5.65 1.25 5.75 1.25 5.85 1.25 5.9 1.25 6.0 1.2 6.05 1.15 6.15 1.1 6.2 1.05 6.3 1.0 6.35 0.95 6.4 0.9 6.45 0.8 6.5 0.75 6.55 0.7 6.55 0.6 6.6 0.5 6.65 0.45 6.7 0.35 6.75 0.25 6.9 0.05 6.85 0.1 6.9 0.0 6.95 -0.05 7.0 -0.15 7.05 -0.2 7.1 -0.3 7.15 -0.4 7.2 -0.5 7.2 -0.55 7.25 -0.65 7.25 -0.75 7.25 -0.85 7.25 -0.95 7.2 -1.05 7.2 -1.1 7.15 -1.2 7.1 -1.25 7.0 -1.3 6.95 -1.35 6.85 -1.4 6.8 -1.45 6.7 -1.5 6.6 -1.5 6.5 -1.5 6.45 -1.5 6.35 -1.5 6.25 -1.5 6.1 -1.45 5.9 -1.45 5.75 -1.45 5.55 -1.5 5.4 -1.5 5.2 -1.6 5.05 -1.65 4.9 -1.75 4.75 -1.8 4.65 -1.95 4.5 -2.05 4.4 -2.2 4.25 -2.3 4.2 -2.45 4.1 -2.6 4.05 -2.8 4.0 -2.85 3.95 -2.9 3.95 -2.95 3.9 -3.0 3.85 -3.0 3.8 -3.05 3.75 -3.1 3.7 -3.1 3.65 -3.15 3.55 -3.15 3.5 -3.15 3.45 -3.15 3.4 -3.15 3.35 -3.15 3.25 -3.15 3.2 -3.15 L3.2 -3.15 Z" fill="none" stroke="#000000" stroke-linecap="round" stroke-linejoin="round" stroke-width="0.05"/>
    <path d="M5.85 -5.75 Q5.6 -5.75 5.35 -5.7 5.1 -5.65 4.85 -5.55 4.6 -5.4 4.4 -5.25 4.2 -5.1 4.05 -4.9 3.9 -4.7 3.75 -4.45 3.65 -4.2 3.55 -3.95 3.5 -3.7 3.5 -3.45 3.5 -3.2 3.55 -2.95 3.6 -2.75 3.65 -2.55 3.7 -2.35 3.85 -2.15 3.95 -1.95 4.1 -1.8 4.2 -1.65 4.4 -1.5 4.55 -1.35 4.75 -1.25 4.95 -1.15 5.15 -1.1 5.35 -1.0 5.55 -1.0 5.75 -0.95 6.0 -1.0 6.25 -1.0 6.5 -1.05 6.75 -1.1 6.95 -1.25 7.2 -1.35 7.4 -1.5 7.6 -1.65 7.75 -1.85 7.9 -2.05 8.0 -2.3 8.15 -2.55 8.2 -2.75 8.25 -3.0 8.3 -3.25 8.3 -3.55 8.25 -3.8 8.2 -4.0 8.15 -4.2 8.05 -4.4 7.95 -4.6 7.85 -4.75 7.7 -4.9 7.55 -5.1 7.4 -5.2 7.25 -5.35 7.05 -5.45 6.9 -5.55 6.7 -5.6 6.5 -5.7 6.3 -5.75 6.05 -5.75 5.85 -5.75 L5.85 -5.75" fill="#ff0000" fill-rule="evenodd" stroke="none"/>
    <path d="M5.85 -5.75 Q5.6 -5.75 5.35 -5.7 5.1 -5.65 4.85 -5.55 4.6 -5.4 4.4 -5.25 4.2 -5.1 4.05 -4.9 3.9 -4.7 3.75 -4.45 3.65 -4.2 3.55 -3.95 3.5 -3.7 3.5 -3.45 3.5 -3.2 3.55 -2.95 3.6 -2.75 3.65 -2.55 3.7 -2.35 3.85 -2.15 3.95 -1.95 4.1 -1.8 4.2 -1.65 4.4 -1.5 4.55 -1.35 4.75 -1.25 4.95 -1.15 5.15 -1.1 5.35 -1.0 5.55 -1.0 5.75 -0.95 6.0 -1.0 6.25 -1.0 6.5 -1.05 6.75 -1.1 6.95 -1.25 7.2 -1.35 7.4 -1.5 7.6 -1.65 7.75 -1.85 7.9 -2.05 8.0 -2.3 8.15 -2.55 8.2 -2.75 8.25 -3.0 8.3 -3.25 8.3 -3.55 8.25 -3.8 8.2 -4.0 8.15 -4.2 8.05 -4.4 7.95 -4.6 7.85 -4.75 7.7 -4.9 7.55 -5.1 7.4 -5.2 7.25 -5.35 7.05 -5.45 6.9 -5.55 6.7 -5.6 6.5 -5.7 6.3 -5.75 6.05 -5.75 5.85 -5.75 L5.85 -5.75 Z" fill="none" stroke="#000000" stroke-linecap="round" stroke-linejoin="round" stroke-width="0.05"/>
    <path d="M6.0 -7.6 Q5.9 -7.55 5.8 -7.5 5.7 -7.45 5.6 -7.35 5.55 -7.3 5.45 -7.2 5.4 -7.15 5.3 -7.05 5.25 -6.95 5.2 -6.85 5.15 -6.75 5.1 -6.65 5.0 -6.5 5.0 -6.45 4.9 -6.35 4.85 -6.25 4.8 -6.15 4.8 -6.05 4.75 -5.95 4.8 -5.85 4.8 -5.75 4.85 -5.65 4.9 -5.6 4.95 -5.5 5.05 -5.45 5.1 -5.35 5.2 -5.3 5.3 -5.3 5.4 -5.25 5.5 -5.25 5.6 -5.25 5.7 -5.3 5.9 -5.3 6.05 -5.3 6.25 -5.3 6.4 -5.2 6.6 -5.15 6.75 -5.1 6.9 -5.0 7.05 -4.9 7.2 -4.8 7.3 -4.65 7.45 -4.5 7.55 -4.35 7.65 -4.2 7.7 -4.05 7.75 -3.85 7.8 -3.7 7.85 -3.6 7.9 -3.5 7.95 -3.45 8.05 -3.35 8.1 -3.3 8.2 -3.3 8.3 -3.25 8.4 -3.25 8.5 -3.2 8.6 -3.25 8.7 -3.25 8.8 -3.3 8.85 -3.35 8.95 -3.4 9.0 -3.45 9.1 -3.55 9.15 -3.65 9.2 -3.75 9.25 -3.85 9.3 -3.95 9.35 -4.0 9.4 -4.1 9.5 -4.25 9.55 -4.3 9.6 -4.4 9.65 -4.5 9.7 -4.6 9.75 -4.7 9.8 -4.8 9.8 -4.9 9.85 -5.0 9.9 -5.1 9.9 -5.2 9.9 -5.35 9.85 -5.45 9.8 -5.55 9.75 -5.6 9.7 -5.7 9.6 -5.75 9.5 -5.85 9.45 -5.9 9.35 -5.95 9.25 -6.0 9.15 -6.05 9.0 -6.15 8.95 -6.15 8.85 -6.25 8.75 -6.3 6.4 -7.55 6.35 -7.6 6.3 -7.6 6.25 -7.6 6.2 -7.6 6.15 -7.6 6.1 -7.6 6.05 -7.6 6.0 -7.6 6.0 -7.6 L6.0 -7.6" fill="#ff0000" fill-rule="evenodd" stroke="none"/>
    <path d="M6.0 -7.6 Q5.9 -7.55 5.8 -7.5 5.7 -7.45 5.6 -7.35 5.55 -7.3 5.45 -7.2 5.4 -7.15 5.3 -7.05 5.25 -6.95 5.2 -6.85 5.15 -6.75 5.1 -6.65 5.0 -6.5 5.0 -6.45 4.9 -6.35 4.85 -6.25 4.8 -6.15 4.8 -6.05 4.75 -5.95 4.8 -5.85 4.8 -5.75 4.85 -5.65 4.9 -5.6 4.95 -5.5 5.05 -5.45 5.1 -5.35 5.2 -5.3 5.3 -5.3 5.4 -5.25 5.5 -5.25 5.6 -5.25 5.7 -5.3 5.9 -5.3 6.05 -5.3 6.25 -5.3 6.4 -5.2 6.6 -5.15 6.75 -5.1 6.9 -5.0 7.05 -4.9 7.2 -4.8 7.3 -4.65 7.45 -4.5 7.55 -4.35 7.65 -4.2 7.7 -4.05 7.75 -3.85 7.8 -3.7 7.85 -3.6 7.9 -3.5 7.95 -3.45 8.05 -3.35 8.1 -3.3 8.2 -3.3 8.3 -3.25 8.4 -3.25 8.5 -3.2 8.6 -3.25 8.7 -3.25 8.8 -3.3 8.85 -3.35 8.95 -3.4 9.0 -3.45 9.1 -3.55 9.15 -3.65 9.2 -3.75 9.25 -3.85 9.3 -3.95 9.35 -4.0 9.4 -4.1 9.5 -4.25 9.55 -4.3 9.6 -4.4 9.65 -4.5 9.7 -4.6 9.75 -4.7 9.8 -4.8 9.8 -4.9 9.85 -5.0 9.9 -5.1 9.9 -5.2 9.9 -5.35 9.85 -5.45 9.8 -5.55 9.75 -5.6 9.7 -5.7 9.6 -5.75 9.5 -5.85 9.45 -5.9 9.35 -5.95 9.25 -6.0 9.15 -6.05 9.0 -6.15 8.95 -6.15 8.85 -6.25 8.75 -6.3 6.4 -7.55 6.35 -7.6 6.3 -7.6 6.25 -7.6 6.2 -7.6 6.15 -7.6 6.1 -7.6 6.05 -7.6 6.0 -7.6 6.0 -7.6 L6.0 -7.6 Z" fill="none" stroke="#000000" stroke-linecap="round" stroke-linejoin="round" stroke-width="0.05"/>
    <path d="M7.15 -21.1 Q7.05 -21.1 6.95 -21.05 6.9 -21.0 6.8 -20.95 6.75 -20.85 6.7 -20.8 6.65 -20.7 6.6 -20.65 6.6 -20.55 6.6 -20.45 6.55 -20.35 6.55 -20.25 6.6 -20.2 6.6 -20.1 6.65 -20.0 6.7 -19.95 6.8 -19.7 6.9 -19.45 6.95 -19.2 7.05 -18.95 7.1 -18.7 7.15 -18.45 7.2 -18.2 7.25 -17.95 7.3 -17.7 7.3 -17.45 7.35 -17.2 7.35 -16.95 7.35 -16.7 7.35 -16.45 7.35 -16.2 7.35 -15.9 7.35 -15.45 7.3 -14.95 7.25 -14.5 7.2 -14.0 7.1 -13.55 7.0 -13.05 6.9 -12.6 6.8 -12.15 6.65 -11.7 6.5 -11.2 6.35 -10.75 6.2 -10.3 6.05 -9.85 5.85 -9.4 5.7 -9.0 5.5 -8.5 5.45 -8.4 5.45 -8.35 5.4 -8.25 5.4 -8.15 5.4 -8.1 5.4 -8.0 5.4 -7.9 5.45 -7.85 5.45 -7.75 5.5 -7.7 5.55 -7.6 5.6 -7.55 5.65 -7.45 5.75 -7.45 5.8 -7.4 5.9 -7.35 6.25 -7.15 7.55 -6.4 8.6 -5.85 9.2 -5.5 9.3 -5.45 9.4 -5.45 9.5 -5.45 9.55 -5.45 9.65 -5.45 9.75 -5.5 9.85 -5.55 9.9 -5.6 9.95 -5.65 10.05 -5.7 10.1 -5.8 10.15 -5.85 10.2 -5.95 10.25 -6.0 10.25 -6.1 10.3 -6.2 10.5 -6.8 10.65 -7.35 10.8 -7.95 10.95 -8.55 11.05 -9.15 11.15 -9.7 11.25 -10.35 11.3 -10.95 11.35 -11.55 11.4 -12.15 11.4 -12.75 11.35 -13.35 11.35 -13.95 11.25 -14.55 11.15 -15.15 11.05 -15.75 10.95 -16.1 10.85 -16.4 10.75 -16.75 10.65 -17.05 10.5 -17.4 10.35 -17.7 10.2 -18.0 10.05 -18.3 9.9 -18.6 9.7 -18.85 9.5 -19.15 9.3 -19.45 9.1 -19.7 8.85 -19.95 8.6 -20.2 8.35 -20.45 8.3 -20.5 8.2 -20.55 7.9 -20.85 8.1 -20.7 8.0 -20.75 7.95 -20.8 7.9 -20.9 7.8 -20.95 7.75 -21.0 7.65 -21.0 7.6 -21.05 7.5 -21.1 7.4 -21.1 7.3 -21.1 7.25 -21.15 7.15 -21.1 L7.15 -21.1" fill="#ff0000" fill-rule="evenodd" stroke="none"/>
    <path d="M7.15 -21.1 Q7.05 -21.1 6.95 -21.05 6.9 -21.0 6.8 -20.95 6.75 -20.85 6.7 -20.8 6.65 -20.7 6.6 -20.65 6.6 -20.55 6.6 -20.45 6.55 -20.35 6.55 -20.25 6.6 -20.2 6.6 -20.1 6.65 -20.0 6.7 -19.95 6.8 -19.7 6.9 -19.45 6.95 -19.2 7.05 -18.95 7.1 -18.7 7.15 -18.45 7.2 -18.2 7.25 -17.95 7.3 -17.7 7.3 -17.45 7.35 -17.2 7.35 -16.95 7.35 -16.7 7.35 -16.45 7.35 -16.2 7.35 -15.9 7.35 -15.45 7.3 -14.95 7.25 -14.5 7.2 -14.0 7.1 -13.55 7.0 -13.05 6.9 -12.6 6.8 -12.15 6.65 -11.7 6.5 -11.2 6.35 -10.75 6.2 -10.3 6.05 -9.85 5.85 -9.4 5.7 -9.0 5.5 -8.5 5.45 -8.4 5.45 -8.35 5.4 -8.25 5.4 -8.15 5.4 -8.1 5.4 -8.0 5.4 -7.9 5.45 -7.85 5.45 -7.75 5.5 -7.7 5.55 -7.6 5.6 -7.55 5.65 -7.45 5.75 -7.45 5.8 -7.4 5.9 -7.35 6.25 -7.15 7.55 -6.4 8.6 -5.85 9.2 -5.5 9.3 -5.45 9.4 -5.45 9.5 -5.45 9.55 -5.45 9.65 -5.45 9.75 -5.5 9.85 -5.55 9.9 -5.6 9.95 -5.65 10.05 -5.7 10.1 -5.8 10.15 -5.85 10.2 -5.95 10.25 -6.0 10.25 -6.1 10.3 -6.2 10.5 -6.8 10.65 -7.35 10.8 -7.95 10.95 -8.55 11.05 -9.15 11.15 -9.7 11.25 -10.35 11.3 -10.95 11.35 -11.55 11.4 -12.15 11.4 -12.75 11.35 -13.35 11.35 -13.95 11.25 -14.55 11.15 -15.15 11.05 -15.75 10.95 -16.1 10.85 -16.4 10.75 -16.75 10.65 -17.05 10.5 -17.4 10.35 -17.7 10.2 -18.0 10.05 -18.3 9.9 -18.6 9.7 -18.85 9.5 -19.15 9.3 -19.45 9.1 -19.7 8.85 -19.95 8.6 -20.2 8.35 -20.45 8.3 -20.5 8.2 -20.55 7.9 -20.85 8.1 -20.7 8.0 -20.75 7.95 -20.8 7.9 -20.9 7.8 -20.95 7.75 -21.0 7.65 -21.0 7.6 -21.05 7.5 -21.1 7.4 -21.1 7.3 -21.1 7.25 -21.15 7.15 -21.1 L7.15 -21.1 Z" fill="none" stroke="#000000" stroke-linecap="round" stroke-linejoin="round" stroke-width="0.05"/>
    <path d="M5.9 -5.75 Q5.65 -5.75 5.4 -5.7 5.15 -5.65 4.9 -5.55 4.65 -5.45 4.45 -5.3 4.25 -5.15 4.1 -4.95 3.9 -4.75 3.8 -4.5 3.65 -4.3 3.6 -4.05 3.5 -3.8 3.5 -3.55 3.45 -3.3 3.5 -3.05 3.55 -2.85 3.6 -2.6 3.65 -2.4 3.8 -2.2 3.9 -2.0 4.05 -1.85 4.2 -1.65 4.35 -1.5 4.55 -1.35 4.7 -1.25 4.9 -1.15 5.15 -1.1 5.35 -1.0 5.55 -1.0 5.8 -0.95 6.0 -1.0 6.3 -1.0 6.55 -1.05 6.8 -1.15 7.05 -1.3 7.3 -1.4 7.5 -1.6 7.7 -1.8 7.85 -2.0 8.0 -2.25 8.1 -2.5 8.25 -2.75 8.25 -3.05 8.3 -3.3 8.3 -3.55 8.25 -3.85 8.2 -4.1 8.15 -4.3 8.05 -4.45 7.95 -4.6 7.85 -4.8 7.7 -4.95 7.6 -5.05 7.45 -5.2 7.3 -5.3 7.15 -5.45 6.95 -5.5 6.8 -5.6 6.65 -5.65 6.45 -5.7 6.25 -5.75 6.05 -5.75 5.9 -5.75 L5.9 -5.75" fill="#ffff00" fill-rule="evenodd" stroke="none"/>
    <path d="M5.9 -5.75 Q5.65 -5.75 5.4 -5.7 5.15 -5.65 4.9 -5.55 4.65 -5.45 4.45 -5.3 4.25 -5.15 4.1 -4.95 3.9 -4.75 3.8 -4.5 3.65 -4.3 3.6 -4.05 3.5 -3.8 3.5 -3.55 3.45 -3.3 3.5 -3.05 3.55 -2.85 3.6 -2.6 3.65 -2.4 3.8 -2.2 3.9 -2.0 4.05 -1.85 4.2 -1.65 4.35 -1.5 4.55 -1.35 4.7 -1.25 4.9 -1.15 5.15 -1.1 5.35 -1.0 5.55 -1.0 5.8 -0.95 6.0 -1.0 6.3 -1.0 6.55 -1.05 6.8 -1.15 7.05 -1.3 7.3 -1.4 7.5 -1.6 7.7 -1.8 7.85 -2.0 8.0 -2.25 8.1 -2.5 8.25 -2.75 8.25 -3.05 8.3 -3.3 8.3 -3.55 8.25 -3.85 8.2 -4.1 8.15 -4.3 8.05 -4.45 7.95 -4.6 7.85 -4.8 7.7 -4.95 7.6 -5.05 7.45 -5.2 7.3 -5.3 7.15 -5.45 6.95 -5.5 6.8 -5.6 6.65 -5.65 6.45 -5.7 6.25 -5.75 6.05 -5.75 5.9 -5.75 L5.9 -5.75 Z" fill="none" stroke="#000000" stroke-linecap="round" stroke-linejoin="round" stroke-width="0.05"/>
    <path d="M4.55 -22.75 Q6.3 -21.25 6.95 -19.0 7.55 -16.9 7.15 -14.2 6.75 -11.65 5.5 -8.7 4.25 -5.9 2.25 -2.85 0.35 0.15 -2.15 3.1 -4.65 6.0 -7.5 8.7 -10.4 11.45 -13.4 13.7 -16.5 16.05 -19.55 17.75 -19.85 20.1 -20.05 23.3 -19.0 23.4 -17.5 22.9 -16.1 22.4 -14.35 21.45 -12.65 20.5 -10.75 19.15 -8.95 17.9 -7.0 16.3 -5.15 14.8 -3.3 13.05 -1.45 11.35 0.2 9.6 1.9 7.85 3.3 6.2 4.7 4.5 5.7 3.05 7.1 0.95 8.2 -1.15 9.3 -3.2 10.05 -5.25 10.8 -7.3 11.15 -9.2 11.5 -11.1 11.5 -12.85 11.45 -14.65 11.0 -16.15 10.6 -17.7 9.75 -18.95 8.85 -20.25 7.6 -21.2 6.3 -22.15 4.55 -22.75" fill="none" stroke="#000000" stroke-linecap="round" stroke-linejoin="round" stroke-width="1.5"/>
    <path d="M5.95 -7.6 L9.9 -5.4 5.95 1.15 2.0 -1.05 5.95 -7.6 5.95 -7.6 Z" fill="none" stroke="#000000" stroke-linecap="round" stroke-linejoin="round" stroke-width="0.9"/>
    <path d="M8.05 -3.35 Q8.05 -4.25 7.4 -4.9 6.8 -5.55 5.9 -5.55 5.0 -5.55 4.35 -4.9 3.7 -4.25 3.7 -3.35 3.7 -2.45 4.35 -1.85 5.0 -1.2 5.9 -1.2 6.8 -1.2 7.4 -1.85 8.05 -2.45 8.05 -3.35 L8.05 -3.35 Z" fill="none" stroke="#000000" stroke-linecap="round" stroke-linejoin="round" stroke-width="0.9"/>
  </g>
</svg>
