<?xml version="1.0" encoding="UTF-8" standalone="no"?>
<svg xmlns:xlink="http://www.w3.org/1999/xlink" height="127.25px" width="130.85px" xmlns="http://www.w3.org/2000/svg">
  <g transform="matrix(1.0, 0.0, 0.0, 1.0, 0.0, 0.0)">
    <path d="M20.05 85.4 L19.45 85.2 18.0 84.5 16.55 83.85 14.8 82.8 13.05 81.8 11.55 80.8 10.05 79.8 9.25 79.15 8.45 78.5 7.7 77.8 6.95 77.05 6.95 76.7 6.95 76.35 6.75 74.0 6.55 71.65 6.55 68.6 6.55 65.6 6.65 63.95 6.8 62.25 6.95 60.65 7.1 59.0 7.25 58.4 7.35 57.85 7.5 56.75 7.7 55.65 7.95 54.4 8.2 53.2 8.45 52.1 8.65 51.0 9.0 49.95 9.3 48.85 9.9 46.95 10.45 45.05 10.6 44.75 10.7 44.45 11.55 42.35 12.4 40.2 12.95 39.0 13.55 37.8 13.55 37.75 13.55 37.7 14.4 36.0 15.3 34.35 16.1 32.95 16.9 31.55 18.1 29.75 19.3 27.95 20.4 26.45 21.55 24.95 22.85 23.4 24.15 21.85 25.95 20.0 27.75 18.15 29.05 16.95 30.4 15.7 32.5 14.05 34.6 12.4 36.35 11.25 38.1 10.05 39.85 9.05 41.55 8.0 42.55 7.5 43.55 7.0 45.35 6.15 47.15 5.3 48.85 4.65 50.5 4.0 52.05 3.5 53.6 2.95 55.05 2.55 56.55 2.15 58.1 1.8 59.6 1.5 60.6 1.3 61.55 1.1 63.25 0.85 64.95 0.65 66.95 0.5 68.95 0.3 73.25 0.4 77.5 0.45 80.1 0.85 82.7 1.25 83.3 1.35 83.95 1.5 85.4 1.8 86.9 2.1 88.45 2.55 90.0 3.0 91.65 3.55 93.3 4.15 94.65 4.65 96.0 5.15 97.5 5.85 99.05 6.55 100.8 7.45 102.55 8.35 103.9 9.15 105.2 9.95 107.1 11.2 109.0 12.45 111.0 14.05 113.05 15.65 114.45 16.9 115.85 18.2 118.05 20.55 120.3 22.9 121.65 24.6 123.0 26.25 124.05 27.75 125.1 29.2 125.95 30.5 126.8 31.85 127.15 32.5 127.55 33.15 128.5 34.85 129.4 36.55 130.0 37.75 130.6 38.95 130.75 39.75 130.9 40.55 130.6 41.2 130.35 41.85 130.0 42.1 129.7 42.35 129.05 42.35 128.4 42.35 128.0 42.05 127.65 41.75 126.7 40.3 125.7 38.9 124.7 37.65 123.7 36.4 121.9 34.45 120.05 32.45 118.35 30.95 116.7 29.5 115.35 28.45 114.0 27.4 113.2 26.8 112.35 26.25 110.95 25.35 109.55 24.5 108.9 24.1 108.25 23.7 106.45 22.75 104.65 21.8 103.3 21.25 102.0 20.65 101.15 20.3 100.3 20.0 98.05 19.25 95.85 18.45 94.8 18.2 93.75 17.95 92.7 17.65 91.65 17.4 90.45 17.15 89.25 16.95 87.1 16.65 84.95 16.35 81.9 16.2 78.9 16.0 75.9 16.2 72.9 16.35 70.95 16.65 69.0 16.9 68.2 17.1 67.4 17.25 66.6 17.35 65.85 17.5 63.4 18.2 60.95 18.85 59.5 19.35 58.1 19.85 56.95 20.3 55.85 20.7 54.0 21.55 52.2 22.4 50.35 23.4 48.5 24.4 47.25 25.25 45.95 26.05 44.7 26.95 43.45 27.8 42.25 28.8 41.0 29.75 39.75 30.9 38.5 32.0 36.9 33.6 35.3 35.2 33.9 36.9 32.55 38.6 31.6 39.9 30.65 41.25 30.0 42.25 29.3 43.2 28.4 44.8 27.5 46.4 26.6 48.2 25.75 50.05 25.15 51.45 24.6 52.85 23.95 54.8 23.3 56.8 22.9 58.4 22.5 60.05 22.3 61.2 22.05 62.4 21.9 63.2 21.8 64.0 21.65 65.15 21.5 66.25 21.35 68.95 21.2 71.6 21.35 74.1 21.5 76.65 21.75 78.4 21.95 80.15 22.35 82.2 22.75 84.25 22.6 84.65 22.45 85.1 22.05 85.3 21.65 85.5 21.15 85.55 20.6 85.65 20.05 85.4 M19.75 82.15 L19.7 81.9 19.45 80.45 19.25 79.0 19.2 78.9 19.15 78.8 18.9 75.8 18.65 72.8 18.75 70.1 18.85 67.4 19.2 64.65 19.55 61.95 19.7 61.2 19.8 60.45 20.35 58.2 20.9 55.9 21.35 54.55 21.8 53.15 21.95 52.85 22.05 52.55 22.7 50.85 23.35 49.15 24.25 47.3 25.15 45.4 26.35 43.3 27.55 41.25 28.7 39.55 29.8 37.9 31.25 36.1 32.7 34.3 34.45 32.45 36.15 30.6 37.6 29.3 39.05 28.0 40.25 27.05 41.45 26.1 43.2 24.85 44.95 23.6 46.7 22.5 48.45 21.45 50.45 20.4 52.5 19.35 54.65 18.4 56.8 17.5 57.5 17.25 58.2 16.95 60.6 16.2 62.95 15.5 63.3 15.4 63.65 15.35 65.3 14.95 66.9 14.6 67.75 14.45 68.55 14.3 70.65 14.0 72.75 13.75 75.3 13.55 77.8 13.35 80.8 13.45 83.8 13.55 85.05 13.7 86.25 13.85 87.4 14.0 88.55 14.15 89.75 14.35 90.95 14.6 92.05 14.8 93.2 15.05 94.85 15.5 96.55 15.95 98.35 16.5 100.15 17.1 100.95 17.4 101.7 17.7 103.45 18.45 105.2 19.2 107.65 20.45 110.1 21.75 111.5 22.6 112.9 23.45 114.15 24.35 115.4 25.2 117.25 26.65 119.05 28.05 120.4 29.25 121.7 30.5 123.35 32.2 125.05 33.9 124.0 32.3 123.0 30.65 121.75 29.0 120.55 27.3 119.15 25.6 117.75 23.9 115.7 21.75 113.6 19.65 111.85 18.1 110.05 16.55 108.5 15.35 106.9 14.15 104.8 12.8 102.7 11.45 100.6 10.3 98.5 9.15 96.8 8.4 95.15 7.65 93.25 6.95 91.35 6.2 90.15 5.85 89.0 5.45 88.0 5.2 87.05 4.9 85.5 4.55 83.95 4.2 83.05 4.0 82.15 3.85 81.45 3.7 80.75 3.6 79.6 3.45 78.5 3.3 76.45 3.15 74.45 3.0 71.65 3.0 68.85 3.0 67.25 3.15 65.65 3.25 64.15 3.4 62.7 3.55 62.0 3.7 61.3 3.85 60.05 4.1 58.75 4.35 55.9 5.15 53.05 5.9 51.45 6.5 49.8 7.05 47.85 7.9 45.9 8.75 43.45 10.0 41.0 11.3 39.35 12.4 37.65 13.45 35.95 14.7 34.25 15.9 32.65 17.3 31.0 18.65 29.35 20.25 27.65 21.85 26.15 23.55 24.65 25.25 23.6 26.55 22.55 27.9 21.45 29.4 20.4 30.9 19.2 32.75 18.05 34.65 17.15 36.25 16.3 37.85 15.25 40.05 14.25 42.25 13.45 44.4 12.65 46.55 12.2 48.05 11.7 49.6 11.05 52.4 10.35 55.2 10.2 56.0 10.05 56.8 9.7 59.45 9.35 62.1 9.15 65.1 9.0 68.15 9.15 71.75 9.35 75.35 9.45 75.7 9.6 76.05 10.9 77.1 12.2 78.15 13.9 79.2 15.55 80.3 17.6 81.35 19.6 82.45 19.7 82.45 19.8 82.45 19.75 82.15 19.75 82.15" fill="#cfcfcf" fill-rule="evenodd" stroke="none"/>
    <path d="M19.75 85.25 L19.05 84.95 17.75 84.35 16.4 83.7 15.65 83.25 14.85 82.85 12.85 81.55 10.8 80.3 9.45 79.25 8.15 78.2 7.65 77.65 7.1 77.15 7.05 76.6 6.95 76.05 6.75 73.85 6.55 71.65 6.6 67.75 6.65 63.85 6.9 61.7 7.1 59.6 7.4 57.75 7.65 55.9 8.0 54.25 8.35 52.55 8.55 51.65 8.8 50.8 9.3 49.1 9.8 47.4 10.25 45.95 10.75 44.45 11.45 42.65 12.15 40.8 13.3 38.4 14.45 35.95 15.25 34.5 16.05 33.1 17.1 31.35 18.2 29.65 19.35 28.0 20.5 26.35 21.65 24.9 22.8 23.45 24.35 21.75 25.85 20.05 27.7 18.3 29.5 16.55 31.1 15.2 32.7 13.85 34.4 12.65 36.1 11.4 38.15 10.1 40.15 8.85 42.95 7.4 45.75 5.95 47.4 5.3 49.0 4.6 49.95 4.25 50.95 3.9 52.75 3.3 54.6 2.7 55.5 2.45 56.4 2.25 58.7 1.75 61.05 1.25 63.15 0.95 65.2 0.65 67.75 0.5 70.25 0.3 73.4 0.4 76.55 0.5 78.55 0.7 80.6 0.95 82.95 1.35 85.35 1.8 87.6 2.4 89.8 2.95 91.95 3.7 94.1 4.45 95.75 5.15 97.4 5.8 99.4 6.8 101.45 7.8 103.35 8.9 105.2 10.0 107.0 11.2 108.8 12.4 110.65 13.85 112.5 15.25 113.8 16.45 115.15 17.6 117.45 19.95 119.7 22.3 121.1 24.0 122.5 25.65 123.85 27.6 125.25 29.5 126.25 31.05 127.25 32.65 128.3 34.6 129.35 36.55 130.05 38.0 130.75 39.45 130.75 40.15 130.75 40.9 130.45 41.45 130.2 42.0 129.85 42.15 129.45 42.35 129.05 42.35 128.65 42.35 128.3 42.15 127.95 42.0 126.6 40.1 125.25 38.2 123.8 36.5 122.4 34.8 121.0 33.4 119.6 32.0 118.35 30.9 117.1 29.75 115.7 28.65 114.3 27.55 113.0 26.65 111.75 25.75 109.75 24.55 107.75 23.35 105.75 22.35 103.8 21.4 102.15 20.7 100.45 20.0 98.4 19.3 96.4 18.6 95.3 18.3 94.15 18.0 92.95 17.7 91.8 17.4 90.15 17.1 88.55 16.8 86.8 16.55 85.05 16.35 83.45 16.2 81.85 16.1 79.0 16.1 76.1 16.1 74.45 16.25 72.75 16.35 70.75 16.65 68.7 16.95 67.25 17.2 65.75 17.5 63.3 18.15 60.85 18.85 59.4 19.35 57.95 19.85 55.9 20.7 53.9 21.5 51.95 22.5 49.95 23.55 48.25 24.55 46.55 25.6 45.05 26.65 43.55 27.7 42.15 28.8 40.75 29.9 39.35 31.2 37.95 32.5 36.9 33.55 35.85 34.65 34.8 35.8 33.75 37.0 32.4 38.75 31.05 40.5 30.0 42.1 28.95 43.75 28.25 45.0 27.55 46.25 27.05 47.2 26.55 48.15 25.7 50.1 24.85 52.0 24.2 53.9 23.6 55.75 23.1 57.55 22.6 59.3 22.2 61.45 21.8 63.55 21.55 65.4 21.3 67.25 21.3 71.5 21.3 75.75 21.55 77.6 21.8 79.4 22.2 81.65 22.65 83.85 22.6 84.35 22.55 84.85 22.1 85.2 21.6 85.5 21.05 85.5 20.45 85.5 19.75 85.25 19.75 85.25 M19.75 82.0 L19.7 81.6 19.4 79.8 19.1 77.95 18.95 75.6 18.75 73.25 18.8 70.55 18.85 67.9 19.1 65.45 19.4 63.0 19.6 61.8 19.8 60.6 20.25 58.75 20.65 56.95 21.25 55.1 21.8 53.3 22.65 51.1 23.5 48.85 24.4 47.05 25.3 45.2 26.35 43.35 27.45 41.45 28.7 39.6 30.0 37.75 31.1 36.35 32.2 34.95 34.7 32.3 37.25 29.65 39.05 28.1 40.9 26.55 42.0 25.7 43.15 24.85 45.0 23.65 46.9 22.4 48.7 21.4 50.5 20.35 52.0 19.65 53.45 18.95 55.0 18.3 56.55 17.65 58.65 16.95 60.75 16.25 61.7 15.95 62.7 15.6 64.2 15.25 65.75 14.9 67.3 14.6 68.85 14.3 71.0 14.0 73.2 13.7 77.65 13.6 82.1 13.5 84.15 13.7 86.2 13.85 88.15 14.15 90.1 14.45 91.85 14.8 93.6 15.2 95.4 15.7 97.25 16.2 98.65 16.65 100.05 17.1 100.8 17.4 101.55 17.7 103.2 18.35 104.8 19.05 106.75 20.0 108.7 21.0 110.45 22.05 112.2 23.05 113.85 24.2 115.5 25.3 117.1 26.55 118.7 27.8 120.25 29.2 121.8 30.6 123.55 32.45 125.3 34.35 125.2 34.1 125.1 33.9 123.7 31.75 122.35 29.65 121.0 27.85 119.65 26.1 118.05 24.25 116.45 22.4 114.6 20.6 112.75 18.8 111.15 17.45 109.55 16.1 107.95 14.9 106.35 13.75 104.1 12.3 101.85 10.9 99.45 9.65 97.1 8.45 95.35 7.75 93.6 7.0 92.15 6.45 90.65 5.95 89.45 5.6 88.3 5.2 87.75 5.05 87.15 4.9 85.9 4.6 84.65 4.3 83.95 4.15 83.25 4.05 81.6 3.75 79.9 3.45 78.5 3.3 77.1 3.15 75.7 3.05 74.3 2.95 71.65 2.95 69.0 2.95 67.6 3.05 66.2 3.15 64.45 3.35 62.75 3.55 61.8 3.75 60.85 3.9 59.45 4.2 58.1 4.5 55.9 5.05 53.75 5.65 51.8 6.3 49.8 7.0 47.7 7.9 45.6 8.85 43.65 9.85 41.7 10.9 40.3 11.75 38.9 12.55 37.1 13.8 35.3 15.05 33.8 16.25 32.35 17.45 31.1 18.55 29.8 19.65 27.95 21.55 26.1 23.45 24.7 25.1 23.35 26.7 22.1 28.4 20.85 30.1 19.6 32.1 18.35 34.05 17.4 35.75 16.5 37.4 16.0 38.45 15.45 39.5 14.7 41.2 14.0 42.9 13.35 44.55 12.7 46.25 12.25 47.65 11.85 49.0 11.2 51.45 10.6 53.85 10.25 55.65 9.9 57.45 9.6 59.45 9.35 61.5 9.2 63.4 9.05 65.3 9.05 68.55 9.05 71.75 9.2 73.8 9.4 75.85 9.65 76.15 9.95 76.45 11.05 77.3 12.2 78.2 14.1 79.4 16.0 80.55 17.75 81.5 19.45 82.4 19.65 82.4 19.85 82.45 19.75 82.0 19.75 82.0" fill="#b1b1b1" fill-rule="evenodd" stroke="none"/>
    <path d="M20.05 85.3 L19.6 85.15 17.95 84.4 16.3 83.6 14.75 82.7 13.2 81.8 11.55 80.75 9.95 79.65 8.8 78.65 7.6 77.65 7.35 77.3 7.1 76.9 6.95 75.8 6.8 74.65 6.7 71.65 6.55 68.6 6.65 65.7 6.8 62.8 6.95 61.3 7.1 59.75 7.45 57.6 7.8 55.4 8.3 53.2 8.8 50.95 9.15 49.7 9.5 48.45 10.1 46.55 10.7 44.6 11.65 42.3 12.55 39.95 13.6 37.8 14.65 35.65 15.6 33.95 16.55 32.3 17.6 30.65 18.6 29.05 19.65 27.6 20.7 26.15 21.7 24.9 22.7 23.6 23.95 22.2 25.2 20.85 26.6 19.4 28.0 18.0 29.25 16.85 30.5 15.75 31.9 14.6 33.3 13.45 34.85 12.35 36.4 11.25 38.15 10.15 39.9 9.05 41.5 8.15 43.1 7.25 45.2 6.3 47.25 5.35 49.25 4.6 51.2 3.8 53.2 3.2 55.15 2.6 57.05 2.15 58.9 1.7 61.0 1.3 63.1 0.95 65.15 0.7 67.15 0.5 70.1 0.4 73.05 0.3 75.5 0.5 77.95 0.65 79.6 0.85 81.3 1.1 83.25 1.45 85.2 1.8 87.2 2.3 89.2 2.85 91.0 3.4 92.8 4.0 94.2 4.55 95.55 5.05 95.85 5.2 96.1 5.3 97.5 5.95 98.9 6.55 100.85 7.6 102.85 8.6 104.3 9.5 105.75 10.35 107.7 11.7 109.7 13.1 111.1 14.2 112.5 15.3 113.9 16.5 115.3 17.75 117.85 20.45 120.45 23.2 121.8 24.85 123.15 26.55 124.1 27.95 125.1 29.35 126.2 31.1 127.35 32.85 128.2 34.45 129.05 36.05 129.9 37.7 130.75 39.4 130.75 40.05 130.75 40.75 130.55 41.2 130.35 41.7 129.95 42.05 129.55 42.35 128.95 42.3 128.35 42.25 128.05 41.95 127.75 41.7 126.6 40.05 125.45 38.4 124.2 36.9 122.95 35.35 120.95 33.35 119.0 31.35 117.35 29.95 115.7 28.6 114.5 27.7 113.3 26.8 112.0 25.95 110.65 25.05 109.65 24.45 108.65 23.85 106.45 22.7 104.25 21.55 102.5 20.8 100.75 20.05 98.55 19.3 96.4 18.55 94.15 17.95 91.9 17.4 90.3 17.1 88.65 16.8 86.5 16.5 84.35 16.2 80.45 16.1 76.5 16.0 74.45 16.2 72.35 16.35 70.4 16.65 68.45 16.95 66.4 17.4 64.35 17.8 62.3 18.4 60.3 19.0 58.7 19.55 57.1 20.15 55.15 21.0 53.2 21.8 50.8 23.1 48.45 24.35 46.6 25.6 44.75 26.8 43.1 28.05 41.45 29.3 39.85 30.7 38.25 32.1 36.55 33.9 34.85 35.65 33.75 37.0 32.65 38.3 31.25 40.25 29.85 42.2 28.7 44.2 27.5 46.25 26.4 48.55 25.3 50.85 24.65 52.6 24.0 54.3 23.6 55.65 23.2 56.95 22.85 58.35 22.5 59.75 22.15 61.5 21.8 63.25 21.55 65.25 21.3 67.25 21.3 71.5 21.3 75.75 21.55 77.75 21.8 79.7 22.15 81.45 22.5 83.25 22.6 83.85 22.65 84.45 22.5 84.75 22.3 85.1 21.85 85.3 21.35 85.5 20.9 85.5 20.45 85.5 20.05 85.3 20.05 85.3 M19.55 80.6 L19.25 78.85 19.05 76.55 18.85 74.3 18.85 71.5 18.85 68.7 19.0 67.0 19.15 65.3 19.4 63.4 19.65 61.5 20.05 59.8 20.4 58.15 20.7 57.1 20.95 56.05 21.5 54.35 22.05 52.6 22.75 50.85 23.5 49.05 24.35 47.2 25.25 45.3 26.15 43.8 27.0 42.25 27.95 40.8 28.9 39.35 30.1 37.7 31.3 36.1 32.85 34.3 34.35 32.5 36.35 30.6 38.35 28.7 39.9 27.45 41.45 26.15 43.6 24.65 45.75 23.15 47.15 22.3 48.55 21.45 50.15 20.6 51.8 19.75 53.4 19.05 55.0 18.3 56.75 17.65 58.5 16.95 60.4 16.35 62.35 15.75 63.85 15.4 65.35 15.0 67.15 14.65 69.0 14.3 71.3 14.0 73.6 13.65 77.85 13.6 82.15 13.55 84.7 13.75 87.3 14.0 89.75 14.45 92.2 14.9 94.25 15.4 96.25 15.9 97.95 16.45 99.6 17.0 101.55 17.75 103.55 18.5 104.65 19.05 105.75 19.55 107.15 20.25 108.55 20.95 110.3 22.0 112.05 23.0 114.0 24.35 116.0 25.7 116.9 26.45 117.8 27.15 118.5 27.75 119.2 28.3 120.15 29.2 121.15 30.05 123.3 32.3 125.45 34.5 124.95 33.6 124.4 32.7 123.5 31.35 122.6 29.95 121.45 28.4 120.3 26.85 118.85 25.1 117.35 23.3 115.75 21.7 114.15 20.1 112.9 18.95 111.65 17.8 109.75 16.25 107.8 14.75 105.9 13.45 103.95 12.15 102.7 11.4 101.45 10.65 99.7 9.75 98.0 8.85 95.8 7.9 93.65 6.95 91.05 6.1 88.4 5.2 86.35 4.7 84.25 4.15 82.15 3.8 80.1 3.45 77.85 3.2 75.55 2.95 71.85 2.95 68.15 2.9 66.35 3.1 64.5 3.3 62.55 3.6 60.6 3.9 58.65 4.35 56.7 4.8 54.3 5.5 51.9 6.2 51.1 6.5 50.25 6.85 48.3 7.65 46.35 8.45 44.25 9.55 42.15 10.6 40.4 11.65 38.65 12.7 37.1 13.8 35.55 14.85 34.0 16.05 32.5 17.25 30.8 18.8 29.1 20.3 27.05 22.45 25.0 24.65 23.95 25.95 22.85 27.3 21.65 29.0 20.4 30.75 19.25 32.6 18.05 34.5 17.1 36.25 16.15 38.0 15.15 40.2 14.1 42.4 13.35 44.45 12.6 46.55 12.05 48.2 11.55 49.85 11.0 52.1 10.45 54.3 10.1 56.15 9.8 58.0 9.45 60.4 9.15 62.8 9.15 67.95 9.1 73.1 9.25 74.5 9.35 75.95 10.5 76.9 11.65 77.85 14.1 79.4 16.55 80.95 18.15 81.75 19.75 82.55 19.8 82.45 19.85 82.3 19.55 80.6 19.55 80.6" fill="#8f8f8f" fill-rule="evenodd" stroke="none"/>
    <path d="M19.55 85.1 L18.5 84.7 16.75 83.8 15.0 82.9 12.8 81.5 10.6 80.1 9.4 79.1 8.2 78.15 7.65 77.6 7.15 77.05 6.95 75.7 6.8 74.35 6.7 71.45 6.55 68.55 6.7 65.75 6.8 62.95 6.95 61.5 7.1 60.05 7.25 59.0 7.4 58.0 7.7 56.3 7.95 54.6 8.45 52.55 8.95 50.5 9.4 48.85 9.85 47.25 10.5 45.4 11.15 43.5 11.9 41.75 12.6 39.95 13.7 37.7 14.8 35.4 15.85 33.55 16.95 31.7 17.85 30.3 18.75 28.9 19.6 27.75 20.45 26.55 21.75 24.85 23.1 23.2 25.05 21.05 27.05 18.95 28.5 17.6 29.95 16.25 31.5 14.95 33.05 13.7 35.05 12.25 37.1 10.8 38.7 9.8 40.3 8.85 42.35 7.75 44.4 6.7 46.35 5.8 48.3 4.95 50.35 4.2 52.45 3.45 54.45 2.85 56.45 2.25 58.5 1.85 60.6 1.4 61.9 1.15 63.25 0.95 64.6 0.8 65.9 0.65 68.7 0.5 71.5 0.3 73.6 0.4 75.7 0.5 78.0 0.75 80.3 0.95 82.7 1.4 85.05 1.8 87.1 2.35 89.1 2.85 90.3 3.2 91.5 3.6 92.75 4.05 94.0 4.5 96.0 5.3 97.95 6.1 100.6 7.45 103.25 8.85 105.15 10.05 107.05 11.25 108.2 12.05 109.35 12.85 111.0 14.15 112.6 15.45 114.2 16.85 115.75 18.25 117.2 19.7 118.6 21.1 120.35 23.2 122.1 25.25 123.5 27.15 124.9 29.05 126.2 31.1 127.5 33.15 128.35 34.75 129.2 36.3 129.95 37.95 130.75 39.6 130.75 40.05 130.75 40.45 130.55 41.05 130.4 41.6 130.1 41.9 129.8 42.2 129.3 42.25 128.8 42.3 128.35 42.1 127.95 41.9 126.75 40.2 125.55 38.55 124.3 37.0 123.1 35.5 120.9 33.3 118.75 31.1 117.3 29.9 115.8 28.65 114.55 27.7 113.35 26.8 111.35 25.5 109.4 24.2 106.9 22.9 104.35 21.55 102.35 20.7 100.3 19.9 98.4 19.2 96.5 18.55 94.5 18.05 92.55 17.5 91.8 17.35 91.1 17.2 89.95 17.0 88.75 16.8 86.65 16.5 84.5 16.2 80.45 16.1 76.35 16.0 74.3 16.2 72.2 16.35 70.25 16.65 68.35 16.95 66.2 17.4 64.1 17.85 61.65 18.55 59.25 19.3 57.0 20.2 54.7 21.05 51.5 22.75 48.3 24.4 46.5 25.6 44.75 26.75 43.3 27.85 41.9 28.9 40.1 30.45 38.35 31.95 36.2 34.25 34.0 36.55 32.65 38.3 31.3 40.05 30.25 41.7 29.15 43.3 28.25 44.85 27.4 46.45 26.4 48.45 25.45 50.5 24.95 51.75 24.45 53.0 23.95 54.45 23.5 55.9 23.05 57.5 22.65 59.05 22.25 60.75 21.9 62.45 21.65 64.5 21.35 66.5 21.25 70.4 21.2 74.3 21.4 76.5 21.65 78.75 21.9 80.4 22.2 82.05 22.4 82.85 22.6 83.7 22.6 84.1 22.6 84.55 22.45 84.8 22.25 85.05 21.75 85.3 21.25 85.5 20.9 85.5 20.6 85.5 19.55 85.1 M19.9 82.45 L19.85 82.35 19.5 80.1 19.15 77.8 18.95 75.6 18.8 73.4 18.9 70.1 18.95 66.8 19.3 64.2 19.65 61.65 20.15 59.45 20.65 57.25 21.4 54.8 22.15 52.4 22.7 51.1 23.2 49.75 23.95 48.15 24.65 46.55 25.6 44.75 26.6 43.0 27.7 41.25 28.8 39.5 29.7 38.25 30.65 37.0 31.5 35.95 32.35 34.95 33.55 33.55 34.75 32.15 36.45 30.55 38.1 28.95 39.4 27.85 40.75 26.75 42.7 25.3 44.65 23.9 46.1 22.95 47.6 22.05 49.8 20.85 52.05 19.65 53.75 18.9 55.45 18.15 57.25 17.45 59.05 16.8 60.75 16.3 62.4 15.75 63.9 15.4 65.35 15.05 66.9 14.75 68.4 14.45 70.4 14.15 72.35 13.85 74.55 13.7 76.8 13.5 80.45 13.6 84.1 13.7 85.9 13.9 87.75 14.15 89.05 14.35 90.4 14.55 91.15 14.7 91.95 14.85 94.5 15.5 97.1 16.2 99.2 16.9 101.3 17.65 102.95 18.35 104.65 19.0 106.8 20.1 109.0 21.2 110.75 22.25 112.5 23.3 113.65 24.1 114.85 24.9 116.4 26.1 117.95 27.25 119.55 28.65 121.15 30.05 123.35 32.35 125.55 34.65 125.2 34.0 124.8 33.3 123.9 31.9 123.0 30.5 121.95 29.05 120.9 27.6 119.85 26.25 118.8 24.95 116.9 22.9 115.0 20.85 113.4 19.35 111.8 17.9 110.6 16.9 109.4 15.95 107.85 14.8 106.35 13.7 104.8 12.7 103.25 11.7 101.95 10.95 100.6 10.15 99.0 9.35 97.4 8.55 95.55 7.75 93.75 7.0 91.55 6.25 89.4 5.45 87.85 5.05 86.35 4.65 85.0 4.35 83.65 4.05 81.95 3.75 80.2 3.4 77.95 3.2 75.7 2.95 71.9 2.95 68.15 2.9 66.2 3.1 64.25 3.3 62.05 3.65 59.8 4.0 57.9 4.45 56.0 4.95 53.95 5.55 51.9 6.2 50.45 6.75 49.0 7.25 47.1 8.15 45.15 9.0 43.7 9.75 42.25 10.5 40.55 11.55 38.8 12.55 36.65 14.1 34.55 15.6 32.8 17.0 31.1 18.45 29.8 19.65 28.55 20.8 27.05 22.45 25.5 24.05 24.3 25.55 23.1 27.0 22.25 28.15 21.35 29.3 20.55 30.5 19.75 31.7 18.75 33.3 17.8 34.95 17.0 36.4 16.2 37.85 15.1 40.3 14.0 42.7 13.35 44.4 12.7 46.1 12.15 47.9 11.55 49.75 11.0 51.95 10.45 54.15 10.1 56.0 9.8 57.85 9.5 60.2 9.2 62.55 9.05 65.0 8.9 67.45 9.0 70.15 9.05 72.8 9.2 74.35 9.35 75.9 9.8 76.3 10.25 76.7 11.15 77.45 12.05 78.15 14.0 79.4 16.0 80.65 17.4 81.35 18.8 82.05 19.25 82.3 19.75 82.55 19.85 82.55 20.0 82.55 19.9 82.45 19.9 82.45" fill="#6f6f6f" fill-rule="evenodd" stroke="none"/>
    <path d="M20.45 85.4 L20.15 85.35 19.35 84.95 18.5 84.6 18.0 84.4 17.5 84.15 16.15 83.45 14.75 82.7 13.2 81.75 11.65 80.75 10.5 79.95 9.4 79.15 8.45 78.3 7.45 77.4 7.3 77.1 7.1 76.75 6.95 75.2 6.8 73.7 6.7 70.75 6.6 67.8 6.7 65.55 6.8 63.25 6.95 61.8 7.1 60.35 7.3 58.8 7.55 57.25 7.8 55.7 8.1 54.15 8.55 52.2 9.05 50.2 9.55 48.5 10.0 46.8 10.5 45.4 11.0 44.0 11.8 42.05 12.6 40.05 13.6 37.95 14.6 35.8 15.55 34.1 16.5 32.45 17.5 30.9 18.45 29.35 19.5 27.9 20.55 26.4 21.9 24.7 23.25 23.05 25.7 20.45 28.15 17.9 29.75 16.5 31.35 15.1 32.5 14.2 33.6 13.3 34.95 12.35 36.3 11.35 38.3 10.1 40.3 8.85 42.95 7.45 45.65 6.1 47.4 5.35 49.1 4.65 51.05 3.95 53.0 3.25 55.1 2.7 57.25 2.1 58.6 1.8 59.95 1.55 61.25 1.3 62.55 1.1 64.35 0.85 66.2 0.6 70.6 0.55 75.05 0.45 77.6 0.7 80.15 0.95 82.55 1.4 85.0 1.8 87.05 2.35 89.1 2.85 91.15 3.55 93.2 4.2 94.85 4.85 96.55 5.5 98.55 6.5 100.6 7.45 102.55 8.55 104.5 9.6 106.25 10.75 108.0 11.9 109.6 13.1 111.15 14.3 112.8 15.65 114.45 17.05 116.25 18.8 118.05 20.55 119.35 22.0 120.6 23.45 121.75 24.9 122.95 26.35 124.1 28.0 125.25 29.65 126.45 31.55 127.6 33.45 128.55 35.15 129.45 36.85 130.0 38.05 130.6 39.25 130.7 39.85 130.75 40.45 130.55 41.1 130.3 41.75 130.0 41.95 129.7 42.2 129.1 42.2 128.5 42.2 128.2 42.05 127.95 41.9 126.85 40.3 125.75 38.75 124.9 37.7 124.05 36.65 122.9 35.3 121.75 34.0 120.05 32.35 118.35 30.75 117.05 29.65 115.7 28.55 114.1 27.35 112.5 26.15 110.45 24.9 108.4 23.65 106.05 22.45 103.65 21.25 102.25 20.65 100.85 20.05 98.7 19.3 96.55 18.55 94.65 18.05 92.75 17.55 90.85 17.15 89.0 16.8 86.85 16.5 84.65 16.2 81.8 16.05 78.95 15.9 76.2 16.05 73.45 16.2 71.15 16.5 68.85 16.8 66.4 17.3 64.0 17.85 62.1 18.4 60.15 19.0 58.5 19.6 56.8 20.2 54.8 21.1 52.75 22.0 50.8 23.05 48.85 24.1 47.4 25.0 45.9 25.95 44.25 27.1 42.6 28.3 40.75 29.85 38.9 31.4 36.5 33.9 34.15 36.4 32.95 37.9 31.75 39.45 30.6 41.15 29.4 42.85 28.3 44.75 27.2 46.65 26.2 48.85 25.15 51.1 24.8 52.1 24.4 53.15 24.0 54.3 23.6 55.5 23.05 57.5 22.5 59.55 22.15 61.35 21.8 63.1 21.5 65.45 21.2 67.8 21.2 71.2 21.2 74.55 21.35 76.35 21.5 78.1 21.8 79.8 22.05 81.45 22.35 82.8 22.65 84.15 22.5 84.55 22.35 84.9 22.05 85.15 21.7 85.35 21.2 85.4 20.75 85.5 20.45 85.4 20.45 85.4 M19.9 82.3 L19.85 82.05 19.55 80.3 19.25 78.55 19.1 77.0 18.9 75.45 18.95 71.35 18.95 67.25 19.25 64.9 19.55 62.55 19.9 60.7 20.25 58.85 20.6 57.55 20.95 56.2 21.5 54.5 22.05 52.75 22.75 50.95 23.5 49.15 24.4 47.25 25.3 45.35 26.35 43.5 27.45 41.6 28.65 39.85 29.8 38.1 31.3 36.2 32.8 34.3 35.2 31.9 37.55 29.45 39.4 27.9 41.3 26.3 43.3 24.9 45.35 23.45 46.6 22.7 47.85 21.9 50.3 20.6 52.75 19.3 55.05 18.35 57.4 17.4 58.95 16.85 60.55 16.35 62.65 15.75 64.8 15.2 66.2 14.9 67.6 14.6 68.9 14.4 70.25 14.15 72.25 13.95 74.3 13.7 77.4 13.6 80.45 13.5 82.9 13.7 85.35 13.85 87.5 14.15 89.65 14.45 91.15 14.75 92.6 15.05 94.1 15.4 95.55 15.8 97.5 16.4 99.45 17.0 101.45 17.75 103.4 18.5 105.5 19.5 107.6 20.45 109.45 21.55 111.35 22.6 112.95 23.7 114.6 24.75 116.15 25.95 117.75 27.15 119.55 28.65 121.3 30.2 123.55 32.55 125.75 34.95 125.4 34.35 125.1 33.75 124.1 32.2 123.15 30.65 122.1 29.2 121.05 27.75 120.1 26.55 119.15 25.4 117.75 23.75 116.3 22.15 114.7 20.55 113.05 18.95 111.2 17.45 109.4 15.9 107.75 14.7 106.1 13.5 104.4 12.4 102.75 11.35 100.75 10.25 98.75 9.15 97.1 8.4 95.4 7.65 93.8 7.05 92.2 6.4 90.65 5.9 89.1 5.35 87.45 4.9 85.75 4.45 84.35 4.2 82.95 3.9 81.65 3.65 80.3 3.45 79.25 3.3 78.2 3.15 75.85 3.0 73.45 2.8 70.15 2.9 66.9 3.0 64.95 3.2 62.95 3.45 61.1 3.8 59.2 4.15 57.9 4.45 56.55 4.75 55.0 5.2 53.5 5.65 51.85 6.2 50.2 6.8 48.35 7.55 46.45 8.3 43.4 9.95 40.3 11.6 38.3 12.9 36.3 14.2 34.2 15.9 32.05 17.55 30.65 18.8 29.25 20.1 27.15 22.3 25.05 24.5 23.75 26.2 22.4 27.9 21.7 28.85 21.0 29.8 19.95 31.4 18.9 33.0 17.85 34.85 16.8 36.7 16.0 38.25 15.25 39.75 14.35 41.85 13.5 43.9 12.75 46.1 11.95 48.3 11.35 50.5 10.75 52.7 10.4 54.45 10.05 56.2 9.75 58.0 9.5 59.75 9.25 61.95 9.0 64.15 9.0 68.5 9.0 72.8 9.15 74.35 9.35 75.9 10.0 76.55 10.65 77.15 12.2 78.25 13.75 79.3 15.4 80.3 17.1 81.3 18.45 81.95 19.75 82.55 19.85 82.55 20.0 82.55 19.9 82.3 19.9 82.3" fill="#4f4f4f" fill-rule="evenodd" stroke="none"/>
    <path d="M19.8 85.15 L18.8 84.75 17.05 83.9 15.35 83.05 13.65 81.95 11.9 80.9 10.75 80.05 9.55 79.25 8.5 78.3 7.45 77.4 7.3 76.95 7.1 76.45 6.95 75.05 6.8 73.7 6.7 70.25 6.65 66.8 6.8 64.3 6.95 61.8 7.25 59.65 7.5 57.55 7.85 55.55 8.25 53.55 8.7 51.6 9.2 49.6 9.85 47.55 10.5 45.5 11.3 43.3 12.15 41.1 13.45 38.3 14.75 35.5 15.7 33.9 16.6 32.3 17.6 30.75 18.6 29.2 19.8 27.55 20.95 25.9 22.3 24.25 23.65 22.6 25.7 20.45 27.75 18.35 29.2 17.0 30.7 15.65 32.35 14.35 34.0 13.0 35.5 12.0 36.95 10.95 38.9 9.75 40.85 8.55 43.1 7.4 45.35 6.25 47.65 5.3 49.95 4.35 51.55 3.8 53.15 3.25 55.25 2.7 57.4 2.1 58.7 1.85 60.05 1.55 61.95 1.25 63.9 0.9 66.25 0.7 68.55 0.5 71.65 0.5 74.75 0.5 76.55 0.65 78.35 0.8 80.45 1.1 82.55 1.35 84.7 1.8 86.8 2.25 88.85 2.85 90.95 3.45 92.6 4.05 94.3 4.65 96.05 5.35 97.8 6.1 100.15 7.3 102.55 8.5 104.1 9.45 105.65 10.35 108.0 12.0 110.4 13.7 111.9 14.95 113.4 16.2 114.5 17.15 115.55 18.15 117.3 19.95 119.0 21.7 120.3 23.2 121.6 24.65 122.65 26.05 123.7 27.45 124.75 29.0 125.8 30.5 126.75 32.15 127.75 33.75 128.35 34.95 129.0 36.1 129.8 37.65 130.6 39.2 130.6 40.1 130.65 40.95 130.4 41.4 130.15 41.9 129.8 42.05 129.45 42.2 129.0 42.2 128.55 42.2 128.25 42.0 127.95 41.8 126.5 39.8 125.05 37.8 123.85 36.35 122.6 34.9 121.15 33.4 119.7 31.9 118.05 30.5 116.4 29.05 114.7 27.8 113.05 26.55 111.55 25.55 110.1 24.6 108.3 23.6 106.45 22.55 105.0 21.85 103.55 21.15 102.15 20.55 100.75 20.0 98.5 19.2 96.25 18.45 94.25 17.9 92.2 17.4 90.3 17.0 88.35 16.65 86.65 16.45 85.0 16.2 82.45 16.05 79.9 15.85 77.3 15.95 74.75 16.05 72.7 16.3 70.65 16.5 68.9 16.8 67.15 17.1 65.55 17.45 63.95 17.85 62.5 18.25 61.0 18.7 59.35 19.25 57.65 19.85 56.0 20.55 54.3 21.25 51.65 22.6 49.0 23.95 47.45 24.95 45.9 25.9 44.5 26.9 43.1 27.9 41.8 28.95 40.45 30.05 39.1 31.25 37.8 32.45 36.0 34.35 34.25 36.25 32.9 37.95 31.55 39.6 30.55 41.15 29.5 42.7 28.6 44.2 27.75 45.65 26.75 47.7 25.7 49.75 25.1 51.3 24.45 52.85 23.95 54.3 23.45 55.8 22.95 57.6 22.45 59.45 22.05 61.6 21.65 63.7 21.45 65.7 21.25 67.65 21.15 70.0 21.05 72.35 21.2 74.65 21.35 76.9 21.65 78.9 21.9 80.95 22.3 82.55 22.65 84.2 22.45 84.6 22.25 85.0 21.9 85.15 21.55 85.35 21.2 85.4 20.85 85.5 19.8 85.15 M19.9 82.25 L19.85 81.9 19.65 80.65 19.4 79.4 19.2 77.45 19.0 75.45 18.9 73.2 18.8 70.9 18.95 68.4 19.15 65.9 19.4 63.85 19.7 61.8 20.1 59.8 20.55 57.75 21.3 55.25 22.05 52.75 22.85 50.85 23.6 48.9 24.45 47.2 25.25 45.45 26.0 44.15 26.7 42.85 27.95 40.95 29.15 39.05 30.7 37.05 32.2 35.05 34.8 32.35 37.4 29.6 39.25 28.05 41.15 26.45 43.4 24.9 45.65 23.3 47.45 22.2 49.25 21.15 51.2 20.15 53.2 19.2 54.95 18.45 56.7 17.7 58.65 17.05 60.6 16.35 62.4 15.85 64.25 15.35 66.0 14.95 67.75 14.6 69.6 14.3 71.5 14.0 73.4 13.85 75.3 13.65 79.2 13.65 83.1 13.65 85.35 13.9 87.6 14.15 89.35 14.45 91.1 14.75 93.0 15.2 94.95 15.65 97.1 16.3 99.3 16.95 101.0 17.6 102.7 18.25 104.35 19.0 105.95 19.7 108.15 20.9 110.4 22.05 111.9 23.0 113.35 23.95 114.65 24.85 116.0 25.8 117.65 27.15 119.35 28.5 120.75 29.8 122.15 31.1 124.0 33.1 125.85 35.05 125.15 33.8 124.4 32.6 123.65 31.4 122.85 30.25 122.0 29.05 121.15 27.9 120.05 26.5 118.95 25.1 117.75 23.7 116.55 22.35 114.75 20.6 113.0 18.9 111.15 17.3 109.25 15.75 106.7 13.95 104.1 12.15 102.95 11.45 101.85 10.8 100.0 9.85 98.15 8.85 96.3 8.05 94.45 7.2 92.5 6.5 90.5 5.75 88.5 5.2 86.45 4.6 84.1 4.1 81.7 3.6 79.2 3.25 76.7 2.9 71.8 2.9 66.9 2.9 64.9 3.15 62.95 3.45 61.35 3.7 59.75 4.0 58.35 4.3 56.95 4.6 55.2 5.15 53.4 5.65 51.35 6.4 49.25 7.1 47.25 8.0 45.2 8.9 43.1 10.05 41.0 11.15 39.75 11.95 38.5 12.75 37.05 13.75 35.55 14.8 34.25 15.8 32.9 16.85 31.3 18.25 29.7 19.65 27.3 22.15 24.9 24.65 23.5 26.4 22.15 28.15 21.35 29.3 20.55 30.4 19.3 32.35 18.05 34.35 17.05 36.2 16.05 38.05 15.1 40.15 14.15 42.25 13.4 44.1 12.7 45.95 12.3 47.25 11.85 48.6 11.4 50.25 10.9 51.95 10.4 54.3 9.9 56.65 9.55 59.25 9.2 61.8 9.05 64.3 8.9 66.8 9.0 70.3 9.1 73.85 9.15 74.8 9.25 75.8 9.6 76.2 9.95 76.6 11.0 77.4 12.05 78.2 13.85 79.4 15.7 80.55 17.65 81.55 19.6 82.55 19.8 82.55 20.0 82.55 19.9 82.25 19.9 82.25" fill="#2e2e2e" fill-rule="evenodd" stroke="none"/>
    <path d="M19.1 84.8 L17.8 84.25 16.35 83.45 14.9 82.7 13.35 81.75 11.8 80.75 10.8 80.05 9.8 79.35 8.6 78.3 7.4 77.3 7.25 76.75 7.1 76.2 6.95 74.3 6.75 72.35 6.75 68.55 6.75 64.75 6.95 62.8 7.1 60.9 7.4 58.85 7.65 56.8 8.1 54.7 8.5 52.55 8.9 50.95 9.35 49.3 10.05 47.05 10.75 44.75 11.65 42.5 12.55 40.2 13.75 37.75 14.95 35.25 15.85 33.7 16.8 32.15 18.1 30.1 19.45 28.0 20.75 26.3 22.1 24.6 23.4 23.05 24.7 21.55 26.55 19.65 28.45 17.75 30.05 16.35 31.65 14.95 32.95 13.9 34.3 12.85 36.1 11.6 37.95 10.35 40.1 9.1 42.25 7.85 44.3 6.85 46.3 5.9 47.65 5.35 49.05 4.75 50.9 4.1 52.75 3.4 55.4 2.7 58.1 2.0 60.1 1.6 62.15 1.2 64.6 0.9 67.05 0.6 71.5 0.6 76.0 0.55 77.75 0.75 79.45 0.95 81.35 1.25 83.25 1.55 84.95 1.9 86.6 2.25 88.7 2.85 90.8 3.45 92.2 3.95 93.6 4.4 95.05 5.0 96.55 5.6 97.75 6.15 98.9 6.7 100.95 7.75 103.0 8.8 104.15 9.55 105.35 10.25 107.35 11.6 109.4 13.0 110.8 14.1 112.2 15.2 113.8 16.6 115.4 18.0 117.95 20.65 120.45 23.3 122.1 25.45 123.75 27.6 125.0 29.4 126.25 31.25 127.5 33.45 128.75 35.65 129.65 37.5 130.6 39.35 130.6 40.15 130.6 41.0 130.25 41.45 129.95 41.95 129.45 42.1 128.95 42.2 128.45 42.0 127.95 41.8 126.75 40.05 125.5 38.3 124.3 36.85 123.1 35.35 121.15 33.4 119.2 31.4 117.45 29.95 115.7 28.45 114.25 27.35 112.75 26.25 110.95 25.1 109.1 23.95 107.1 22.9 105.05 21.8 103.25 21.0 101.45 20.2 99.55 19.55 97.7 18.85 95.65 18.25 93.6 17.65 91.65 17.25 89.7 16.8 87.5 16.5 85.35 16.2 83.55 16.05 81.75 15.9 79.05 15.9 76.4 15.9 74.5 16.05 72.6 16.2 70.5 16.5 68.4 16.8 66.7 17.15 64.95 17.55 63.1 18.05 61.3 18.55 59.4 19.2 57.5 19.85 55.7 20.6 53.9 21.4 51.8 22.45 49.7 23.5 48.1 24.5 46.5 25.45 44.75 26.7 42.95 27.95 41.5 29.15 40.0 30.4 38.35 31.9 36.75 33.4 35.45 34.85 34.2 36.25 33.2 37.5 32.2 38.75 31.35 39.9 30.5 41.1 29.3 43.0 28.1 44.9 27.3 46.45 26.5 48.0 25.8 49.45 25.15 50.95 24.6 52.4 24.05 53.85 23.6 55.25 23.15 56.65 22.7 58.55 22.2 60.5 21.95 62.0 21.65 63.55 21.4 65.4 21.15 67.25 21.15 71.5 21.15 75.75 21.4 77.65 21.65 79.55 22.05 81.7 22.5 83.85 22.5 84.2 22.45 84.55 22.3 84.8 22.1 85.05 21.75 85.2 21.35 85.35 20.9 85.35 20.45 85.35 19.1 84.8 19.1 84.8 M19.9 82.15 L19.85 81.6 19.55 79.8 19.3 78.0 19.1 75.95 18.95 73.9 19.05 70.15 19.1 66.35 19.4 64.35 19.65 62.35 20.05 60.45 20.4 58.55 20.9 56.8 21.4 55.05 21.8 53.85 22.15 52.7 22.8 51.05 23.45 49.4 24.4 47.45 25.3 45.5 26.1 44.1 26.85 42.7 28.0 40.95 29.1 39.2 30.45 37.4 31.8 35.65 33.3 33.95 34.75 32.3 36.1 31.0 37.45 29.65 38.75 28.55 40.05 27.45 41.1 26.6 42.15 25.75 43.45 24.85 44.7 23.95 46.2 23.0 47.75 22.05 50.35 20.7 52.95 19.35 55.1 18.45 57.25 17.55 59.0 16.95 60.75 16.35 62.9 15.75 65.05 15.2 66.95 14.8 68.85 14.45 70.4 14.25 71.9 14.0 74.0 13.85 76.05 13.65 80.45 13.75 84.8 13.85 86.95 14.15 89.1 14.45 91.05 14.8 92.95 15.2 94.8 15.7 96.7 16.2 98.35 16.7 100.05 17.25 102.05 18.05 104.1 18.9 106.1 19.85 108.15 20.85 110.1 22.0 112.05 23.15 113.9 24.4 115.7 25.65 117.1 26.75 118.5 27.85 119.75 28.95 121.0 30.05 123.5 32.65 126.0 35.3 125.7 34.75 125.45 34.15 124.1 32.05 122.75 29.95 121.8 28.7 120.9 27.45 119.85 26.1 118.8 24.8 116.25 22.15 113.75 19.5 112.35 18.25 110.95 17.05 109.7 16.05 108.4 15.1 107.3 14.25 106.15 13.45 104.15 12.15 102.15 10.9 99.6 9.6 97.1 8.3 95.3 7.55 93.55 6.8 91.7 6.15 89.8 5.5 87.65 4.9 85.5 4.3 84.35 4.1 83.25 3.85 81.6 3.55 79.95 3.3 77.75 3.05 75.55 2.85 73.55 2.75 71.5 2.65 68.85 2.85 66.2 3.0 64.35 3.2 62.55 3.45 60.5 3.8 58.5 4.2 56.4 4.75 54.3 5.3 52.5 5.9 50.65 6.55 48.35 7.5 46.05 8.45 43.75 9.65 41.4 10.9 40.05 11.75 38.65 12.6 36.95 13.75 35.3 14.95 33.9 16.05 32.5 17.15 31.35 18.1 30.25 19.1 28.9 20.4 27.6 21.7 26.25 23.15 24.9 24.65 23.8 25.95 22.75 27.3 21.3 29.25 19.9 31.25 18.85 33.0 17.75 34.8 16.75 36.7 15.7 38.6 14.95 40.3 14.2 41.95 13.45 43.9 12.7 45.85 12.0 48.1 11.3 50.35 10.9 52.05 10.45 53.7 10.05 55.9 9.65 58.15 9.3 60.6 9.0 63.1 9.0 68.2 9.0 73.25 9.1 74.55 9.2 75.9 9.65 76.3 10.1 76.75 11.1 77.5 12.05 78.25 13.3 79.05 14.6 79.9 15.75 80.6 16.95 81.3 18.45 82.0 19.9 82.7 19.95 82.7 20.0 82.7 19.9 82.15 19.9 82.15" fill="#000000" fill-rule="evenodd" stroke="none"/>
  </g>
</svg>
