<?xml version="1.0" encoding="UTF-8" standalone="no"?>
<svg xmlns:xlink="http://www.w3.org/1999/xlink" height="135.5px" width="127.85px" xmlns="http://www.w3.org/2000/svg">
  <g transform="matrix(1.0, 0.0, 0.0, 1.0, 63.95, 67.75)">
    <path d="M17.75 -1.25 Q17.75 -1.3 17.75 -1.35 17.7 -1.4 17.7 -1.45 17.65 -1.5 17.65 -1.5 17.6 -1.55 17.6 -1.6 17.55 -1.65 17.5 -1.7 17.5 -1.75 17.45 -1.75 17.4 -1.8 17.35 -1.85 17.3 -1.9 17.25 -1.9 17.2 -1.95 17.15 -1.95 17.05 -2.0 17.0 -2.05 16.95 -2.05 16.85 -2.1 16.8 -2.15 16.7 -2.15 16.6 -2.2 16.55 -2.25 16.45 -2.25 16.35 -2.3 16.3 -2.35 16.2 -2.35 16.1 -2.4 16.0 -2.4 15.9 -2.45 15.8 -2.45 15.7 -2.5 15.55 -2.55 15.45 -2.55 15.35 -2.6 15.25 -2.6 15.1 -2.65 15.0 -2.65 14.85 -2.7 14.75 -2.7 14.6 -2.75 14.5 -2.75 14.35 -2.8 14.25 -2.8 14.1 -2.8 13.15 -2.95 11.7 -3.05 11.55 -3.05 11.35 -3.1 11.2 -3.1 11.05 -3.1 10.85 -3.1 10.7 -3.15 10.55 -3.15 10.35 -3.15 10.2 -3.15 10.0 -3.15 9.85 -3.15 9.7 -3.15 9.5 -3.15 9.35 -3.15 9.15 -3.15 9.0 -3.15 8.8 -3.15 8.6 -3.15 8.45 -3.15 8.25 -3.2 8.05 -3.2 7.85 -3.2 7.7 -3.2 7.5 -3.2 7.3 -3.2 7.1 -3.2 6.95 -3.15 6.75 -3.15 6.55 -3.15 6.35 -3.15 6.2 -3.15 6.0 -3.1 4.6 -3.1 2.85 -2.95 2.65 -2.95 2.45 -2.9 2.25 -2.9 2.05 -2.9 1.85 -2.85 1.65 -2.85 1.45 -2.8 1.25 -2.8 1.05 -2.75 0.9 -2.75 0.7 -2.7 0.5 -2.7 0.3 -2.65 0.1 -2.65 -0.05 -2.6 -0.25 -2.55 -0.65 -2.5 -1.6 -2.35 -1.7 -2.35 -1.75 -2.35 -1.85 -2.3 -1.95 -2.3 -2.0 -2.3 -2.1 -2.3 -2.15 -2.25 -2.25 -2.25 -2.35 -2.25 -2.4 -2.25 -2.5 -2.2 -2.55 -2.2 -2.65 -2.2 -2.7 -2.15 -2.8 -2.15 -2.85 -2.1 -2.95 -2.1 -3.0 -2.1 -3.1 -2.05 -3.15 -2.05 -3.25 -2.05 -3.3 -2.05 -3.4 -2.0 -3.45 -2.0 -3.55 -2.0 -3.6 -2.0 -3.7 -1.95 -3.75 -1.95 -3.85 -1.95 -3.9 -1.9 -4.0 -1.9 -4.05 -1.85 -4.15 -1.85 -4.2 -1.85 -4.3 -1.8 -4.35 -1.8 -4.45 -1.8 -4.5 -1.8 -4.55 -1.75 -4.65 -1.75 -4.7 -1.75 -4.8 -1.75 -4.85 -1.7 -4.95 -1.7 -5.0 -1.7 -5.05 -1.65 -5.15 -1.65 -5.2 -1.6 -5.65 -1.5 -6.25 -1.3 -6.3 -1.3 -6.4 -1.3 -6.45 -1.25 -6.5 -1.25 -6.55 -1.25 -6.65 -1.25 -6.7 -1.2 -6.75 -1.2 -6.8 -1.2 -6.85 -1.2 -6.9 -1.15 -7.0 -1.15 -7.05 -1.15 -7.1 -1.1 -7.15 -1.1 -7.2 -1.05 -7.5 -0.95 -8.1 -0.75 -8.15 -0.75 -8.2 -0.75 -8.25 -0.7 -8.3 -0.7 -8.35 -0.7 -8.4 -0.7 -8.45 -0.65 -8.5 -0.65 -8.55 -0.65 -8.6 -0.65 -8.65 -0.6 -8.7 -0.6 -8.75 -0.6 -8.8 -0.55 -8.85 -0.55 -8.9 -0.5 -8.95 -0.55 -9.05 -0.65 -9.1 -0.7 -9.15 -0.75 -9.2 -0.8 -9.3 -0.9 -9.35 -0.95 -9.4 -1.0 -9.45 -1.05 -9.55 -1.15 -9.6 -1.2 -9.65 -1.25 -9.7 -1.3 -9.8 -1.35 -9.85 -1.4 -9.9 -1.45 -9.95 -1.5 -10.05 -1.6 -10.1 -1.65 -10.2 -1.7 -10.25 -1.8 -10.3 -1.85 -10.35 -1.9 -10.45 -2.0 -10.5 -2.05 -10.55 -2.1 -10.6 -2.2 -10.7 -2.25 -10.75 -2.3 -10.8 -2.4 -10.85 -2.45 -10.9 -2.5 -10.95 -2.55 -11.05 -2.65 -11.1 -2.7 -11.2 -2.75 -11.25 -2.85 -11.3 -2.9 -11.35 -2.95 -11.45 -3.05 -11.5 -3.1 -11.55 -3.15 -11.6 -3.25 -11.7 -3.3 -11.75 -3.35 -11.8 -3.45 -11.85 -3.5 -11.9 -3.55 -12.5 -4.15 -12.9 -4.6 -12.95 -4.65 -13.05 -4.75 -13.1 -4.8 -13.15 -4.9 -13.2 -4.95 -13.3 -5.05 -13.35 -5.1 -13.4 -5.2 -13.45 -5.25 -13.5 -5.35 -13.6 -5.4 -13.65 -5.5 -13.7 -5.55 -13.75 -5.6 -13.8 -5.7 -13.85 -5.75 -14.05 -6.0 -14.35 -6.35 -14.7 -6.75 -14.8 -6.9 -14.85 -7.0 -14.95 -7.05 -15.0 -7.15 -15.05 -7.2 -15.1 -7.3 -15.2 -7.35 -15.25 -7.45 -15.3 -7.55 -15.35 -7.6 -15.4 -7.7 -15.5 -7.75 -15.55 -7.85 -15.6 -7.95 -15.65 -8.0 -15.7 -8.1 -15.75 -8.15 -16.25 -8.8 -16.65 -9.4 -17.0 -9.85 -17.3 -10.35 -17.6 -10.85 -17.9 -11.3 -18.25 -11.8 -18.5 -12.3 -18.8 -12.8 -19.1 -13.3 -19.4 -13.8 -19.7 -14.3 -19.95 -14.8 -20.2 -15.3 -20.5 -15.8 -20.75 -16.35 -21.0 -16.85 -21.25 -17.35 -21.5 -17.85 -21.7 -18.35 -21.95 -18.85 -22.15 -19.35 -22.35 -19.85 -22.55 -20.35 -22.75 -20.85 -22.95 -21.35 -23.15 -21.85 -23.35 -22.4 -23.5 -22.9 -23.7 -23.4 -23.85 -23.95 -24.05 -24.45 -24.2 -25.0 -24.35 -25.5 -24.5 -26.0 -24.65 -26.5 -24.75 -27.0 -24.9 -27.5 -25.05 -28.0 -25.15 -28.5 -25.25 -29.0 -25.4 -29.5 -25.5 -30.0 -25.6 -30.5 -25.7 -31.0 -25.8 -31.5 -25.9 -32.0 -26.0 -32.55 -26.1 -33.05 -26.15 -33.55 -26.25 -34.0 -26.3 -34.5 -26.35 -34.95 -26.45 -35.45 -26.5 -35.95 -26.55 -36.4 -26.6 -36.9 -26.65 -37.35 -26.75 -37.85 -26.75 -38.35 -26.8 -38.8 -26.85 -39.3 -26.9 -39.8 -26.95 -40.3 -27.0 -40.8 -27.0 -41.25 -27.0 -41.7 -27.05 -42.15 -27.05 -42.6 -27.05 -43.05 -27.05 -43.5 -27.1 -43.95 -27.1 -44.4 -27.1 -44.85 -27.1 -45.3 -27.1 -45.75 -27.1 -46.2 -27.05 -46.65 -27.05 -47.05 -27.05 -47.5 -27.05 -47.95 -27.0 -48.4 -27.0 -48.8 -26.95 -49.2 -26.95 -49.6 -26.95 -50.0 -26.9 -50.4 -26.9 -50.8 -26.9 -51.2 -26.85 -51.6 -26.8 -52.0 -26.8 -52.4 -26.75 -52.8 -26.7 -53.2 -26.7 -53.55 -26.65 -53.95 -26.6 -54.35 -26.55 -54.75 -26.5 -55.1 -26.5 -55.4 -26.45 -55.75 -26.4 -56.1 -26.35 -56.4 -26.3 -56.75 -26.25 -57.1 -26.2 -57.45 -26.2 -57.75 -26.15 -58.1 -26.1 -58.45 -26.05 -58.8 -26.0 -59.1 -25.9 -59.45 -25.85 -59.8 -25.8 -60.1 -25.75 -60.35 -25.7 -60.6 -25.65 -60.85 -25.65 -61.1 -25.6 -61.35 -25.55 -61.6 -25.5 -61.85 -25.45 -62.1 -25.4 -62.35 -25.35 -62.6 -25.3 -62.85 -25.25 -63.1 -25.2 -63.35 -25.1 -63.6 -25.05 -63.85 -25.0 -64.1 -24.85 -64.15 -24.7 -64.2 -24.55 -64.25 -24.4 -64.3 -24.25 -64.35 -24.05 -64.4 -23.9 -64.45 -23.75 -64.5 -23.6 -64.55 -23.45 -64.6 -23.3 -64.6 -23.15 -64.65 -23.0 -64.7 -22.8 -64.75 -22.65 -64.8 -22.5 -64.8 -22.35 -64.85 -22.2 -64.9 -22.05 -64.9 -21.9 -64.95 -21.75 -65.0 -21.6 -65.05 -21.45 -65.05 -21.3 -65.1 -21.2 -65.15 -21.05 -65.15 -20.9 -65.2 -20.75 -65.2 -20.6 -65.25 -20.45 -65.25 -20.3 -65.3 -20.15 -65.3 -19.25 -65.45 -18.05 -65.55 -17.95 -65.55 -17.8 -65.6 -17.7 -65.6 -17.55 -65.6 -17.45 -65.6 -17.3 -65.65 -17.2 -65.65 -17.05 -65.65 -16.95 -65.65 -16.85 -65.65 -16.7 -65.65 -16.6 -65.65 -16.45 -65.65 -16.35 -65.65 -16.25 -65.65 -16.1 -65.65 -16.0 -65.65 -15.9 -65.65 -15.75 -65.65 -15.65 -65.65 -15.55 -65.65 -15.45 -65.65 -15.3 -65.65 -15.2 -65.65 -15.1 -65.65 -15.0 -65.65 -14.9 -65.65 -14.75 -65.6 -14.65 -65.6 -14.55 -65.6 -14.45 -65.6 -14.3 -65.55 -14.2 -65.55 -14.1 -65.55 -14.0 -65.55 -13.9 -65.55 -13.8 -65.55 -13.7 -65.5 -13.6 -65.5 -13.5 -65.5 -13.45 -65.5 -13.35 -65.45 -13.25 -65.45 -13.15 -65.45 -13.05 -65.45 -12.95 -65.4 -12.85 -65.4 -12.75 -65.35 -12.65 -65.35 -12.55 -65.35 -12.5 -65.3 -12.4 -65.3 -12.3 -65.3 -12.2 -65.3 -12.1 -65.25 -12.0 -65.25 -11.95 -65.25 -11.85 -65.25 -11.75 -65.2 -11.65 -65.2 -11.6 -65.2 -11.5 -65.15 -11.4 -65.15 -11.3 -65.1 -10.8 -65.0 -10.05 -64.75 -9.9 -64.7 -9.8 -64.7 -9.65 -64.65 -9.55 -64.6 -9.4 -64.55 -9.3 -64.5 -9.15 -64.5 -9.05 -64.45 -8.95 -64.4 -8.8 -64.35 -8.7 -64.3 -8.55 -64.25 -8.45 -64.2 -8.35 -64.15 -8.25 -64.1 -8.1 -64.0 -8.0 -63.95 -7.9 -63.9 -7.8 -63.9 -7.7 -63.85 -7.6 -63.8 -7.5 -63.75 -7.4 -63.7 -7.25 -63.65 -7.15 -63.6 -7.05 -63.55 -6.95 -63.45 -6.85 -63.4 -6.75 -63.35 -6.65 -63.3 -6.55 -63.25 -6.45 -63.15 -5.9 -62.85 -4.95 -62.2 -4.8 -62.1 -3.55 -61.2 -2.85 -60.75 -1.95 -60.1 -0.85 -59.45 -0.1 -59.0 0.05 -58.95 0.15 -58.85 0.3 -58.8 0.45 -58.7 0.6 -58.65 0.75 -58.6 0.85 -58.5 1.0 -58.45 1.15 -58.4 1.3 -58.3 1.45 -58.25 1.6 -58.2 1.75 -58.1 1.9 -58.05 2.05 -58.0 2.2 -57.9 2.35 -57.85 2.55 -57.75 2.7 -57.7 2.9 -57.6 3.05 -57.55 3.2 -57.45 3.4 -57.4 3.6 -57.35 3.75 -57.25 3.95 -57.2 4.1 -57.1 4.3 -57.05 4.5 -57.0 4.65 -56.9 4.85 -56.85 5.05 -56.75 5.7 -56.55 6.05 -56.45 6.3 -56.4 6.65 -56.3 7.15 -56.15 7.25 -56.1 7.5 -56.05 7.95 -55.95 8.45 -55.8 8.65 -55.75 9.25 -55.7 10.2 -55.55 11.15 -55.45 11.85 -55.45 12.9 -55.5 13.6 -55.55 13.7 -55.55 13.8 -55.6 13.95 -55.6 14.05 -55.6 14.15 -55.65 14.25 -55.65 14.35 -55.7 14.45 -55.7 14.55 -55.75 14.65 -55.75 14.8 -55.8 14.9 -55.8 15.0 -55.85 15.1 -55.85 15.2 -55.9 15.3 -55.9 15.4 -55.95 15.55 -55.95 15.65 -56.0 15.75 -56.05 15.85 -56.1 16.0 -56.1 16.1 -56.15 16.2 -56.2 16.3 -56.25 16.4 -56.25 16.55 -56.3 16.65 -56.35 16.75 -56.4 16.85 -56.45 16.95 -56.5 17.05 -56.5 17.4 -56.65 17.55 -56.75 17.6 -56.8 17.65 -56.8 17.7 -56.85 17.7 -56.85 17.75 -56.9 17.8 -56.9 17.85 -56.95 17.85 -56.95 17.9 -57.0 17.95 -57.0 18.2 -57.2 18.25 -57.2 18.3 -57.25 18.4 -57.3 18.45 -57.4 18.5 -57.4 18.5 -57.4 18.6 -57.5 18.6 -57.6 18.65 -57.6 18.65 -57.65 18.7 -57.7 18.75 -57.75 18.75 -57.75 18.75 -57.8 18.8 -57.85 18.8 -57.9 18.8 -57.9 18.8 -57.95 18.85 -58.0 18.85 -58.05 18.85 -58.05 18.85 -58.1 18.85 -58.15 18.85 -58.2 18.85 -58.2 18.85 -58.25 18.85 -58.3 18.85 -58.35 18.85 -58.4 18.85 -58.4 18.8 -58.45 18.8 -58.5 18.8 -58.55 18.8 -58.6 18.75 -58.65 18.75 -58.7 18.75 -58.7 18.7 -58.75 18.7 -58.8 18.65 -58.8 18.65 -58.85 18.6 -58.9 18.55 -58.95 18.55 -59.0 18.5 -59.05 18.45 -59.05 18.45 -59.1 18.4 -59.15 18.35 -59.2 18.3 -59.25 18.25 -59.3 18.25 -59.35 18.2 -59.35 18.15 -59.4 18.1 -59.45 18.05 -59.5 18.0 -59.55 17.95 -59.6 17.9 -59.65 17.85 -59.7 17.8 -59.7 17.75 -59.75 17.65 -59.8 17.6 -59.85 17.55 -59.9 17.5 -59.95 17.4 -60.0 17.35 -60.05 17.3 -60.05 17.25 -60.1 17.15 -60.15 17.1 -60.2 17.05 -60.25 16.95 -60.3 16.9 -60.35 16.8 -60.4 16.75 -60.45 16.65 -60.5 16.55 -60.55 16.5 -60.6 16.4 -60.65 16.3 -60.65 16.2 -60.7 16.15 -60.75 16.05 -60.8 15.55 -61.05 14.45 -61.6 13.7 -62.0 12.55 -62.45 11.65 -62.9 10.35 -63.4 9.4 -63.85 7.85 -64.4 1.4 -67.05 -3.2 -68.7 -6.1 -69.75 -7.7 -70.55 -9.4 -71.4 -10.3 -71.9 -10.65 -72.1 -12.7 -73.4 -12.95 -73.55 -13.25 -73.75 -13.5 -73.9 -13.75 -74.1 -14.0 -74.25 -14.25 -74.4 -14.5 -74.55 -14.75 -74.7 -15.0 -74.9 -15.3 -75.05 -15.55 -75.2 -15.8 -75.35 -16.0 -75.5 -16.25 -75.65 -16.5 -75.8 -16.75 -75.9 -19.8 -77.85 -24.35 -80.45 -24.95 -80.8 -24.95 -80.8 -25.0 -80.85 -25.05 -80.85 -25.1 -80.9 -25.2 -80.95 -25.25 -80.95 -25.3 -81.0 -25.35 -81.05 -25.4 -81.05 -25.45 -81.1 -25.5 -81.1 -25.55 -81.15 -25.6 -81.15 -25.65 -81.2 -25.7 -81.2 -25.75 -81.25 -25.8 -81.25 -26.2 -81.5 -26.9 -81.85 -27.5 -82.15 -28.25 -82.5 -28.95 -82.85 -29.8 -83.25 -29.9 -83.3 -30.05 -83.35 -30.15 -83.4 -30.25 -83.45 -30.35 -83.5 -30.5 -83.55 -30.6 -83.6 -30.7 -83.65 -30.8 -83.7 -30.95 -83.75 -31.05 -83.8 -31.15 -83.85 -31.25 -83.9 -31.4 -83.95 -31.5 -84.0 -31.6 -84.0 -32.35 -84.35 -33.55 -84.8 -33.7 -84.85 -33.8 -84.9 -33.95 -84.95 -34.1 -85.0 -34.2 -85.05 -34.35 -85.1 -34.5 -85.15 -34.6 -85.2 -34.75 -85.25 -34.85 -85.3 -35.0 -85.35 -35.15 -85.4 -35.25 -85.45 -35.4 -85.5 -35.55 -85.55 -35.65 -85.55 -36.55 -85.9 -37.15 -86.05 -37.25 -86.1 -37.35 -86.1 -37.45 -86.15 -37.5 -86.2 -37.6 -86.2 -37.7 -86.25 -37.8 -86.25 -37.85 -86.3 -37.95 -86.3 -38.0 -86.35 -38.1 -86.35 -38.15 -86.4 -38.25 -86.4 -38.3 -86.45 -38.4 -86.45 -38.45 -86.45 -38.55 -86.5 -38.6 -86.5 -38.7 -86.55 -38.75 -86.55 -38.8 -86.6 -38.9 -86.6 -38.95 -86.65 -39.05 -86.65 -39.1 -86.7 -39.15 -86.7 -39.25 -86.7 -39.3 -86.75 -39.35 -86.75 -39.45 -86.8 -39.5 -86.8 -39.55 -86.8 -39.6 -86.8 -39.7 -86.85 -39.75 -86.85 -39.85 -86.9 -39.9 -86.9 -39.95 -86.9 -40.0 -86.95 -40.1 -86.95 -40.15 -86.95 -40.2 -87.0 -40.25 -87.0 -40.35 -87.0 -40.4 -87.05 -40.45 -87.05 -40.5 -87.05 -40.55 -87.05 -40.6 -87.05 -40.65 -87.1 -40.7 -87.1 -40.8 -87.1 -40.85 -87.1 -40.9 -87.15 -40.95 -87.15 -41.0 -87.15 -41.05 -87.15 -41.1 -87.2 -41.15 -87.2 -41.2 -87.2 -41.25 -87.2 -41.25 -87.2 -41.3 -87.2 -41.35 -87.2 -41.4 -87.2 -41.45 -87.2 -41.5 -87.25 -41.55 -87.25 -41.6 -87.25 -41.65 -87.25 -41.7 -87.25 -41.75 -87.25 -41.8 -87.25 -41.8 -87.25 -41.85 -87.25 -41.9 -87.25 -41.95 -87.25 -42.0 -87.25 -42.0 -87.25 -42.05 -87.25 -42.1 -87.25 -42.15 -87.25 -42.15 -87.25 -42.2 -87.25 -42.25 -87.25 -42.3 -87.25 -42.3 -87.25 -42.35 -87.25 -42.4 -87.25 -42.4 -87.25 -42.45 -87.25 -42.5 -87.2 -42.5 -87.2 -42.55 -87.2 -42.6 -87.2 -42.6 -87.15 -42.65 -87.15 -42.65 -87.15 -42.7 -87.15 -42.75 -87.15 -42.75 -87.15 -42.8 -87.1 -42.8 -87.1 -42.85 -87.1 -42.9 -87.1 -42.9 -87.05 -42.95 -87.05 -42.95 -87.05 -43.0 -87.05 -43.0 -87.0 -43.05 -87.0 -43.05 -86.95 -43.1 -86.9 -43.15 -86.9 -43.2 -86.85 -43.25 -86.8 -43.3 -86.8 -43.35 -86.75 -43.4 -86.7 -43.4 -86.65 -43.45 -86.6 -43.5 -86.55 -43.55 -86.5 -43.6 -86.45 -43.6 -86.4 -43.65 -86.35 -43.7 -86.3 -43.7 -86.2 -43.75 -86.15 -43.8 -86.1 -43.8 -86.0 -43.85 -85.95 -43.9 -85.9 -43.9 -85.8 -43.95 -85.75 -43.95 -85.65 -44.0 -85.55 -44.0 -85.5 -44.05 -85.4 -44.05 -85.3 -44.05 -85.2 -44.1 -85.1 -44.1 -85.0 -44.1 -84.9 -44.1 -84.8 -44.15 -84.7 -44.15 -84.6 -44.15 -84.5 -44.2 -84.4 -44.2 -84.25 -44.2 -84.15 -44.2 -84.05 -44.2 -83.9 -44.2 -83.8 -44.2 -83.65 -44.2 -83.55 -44.2 -83.4 -44.2 -83.25 -44.15 -83.1 -44.15 -82.95 -44.15 -82.8 -44.15 -82.65 -44.15 -82.5 -44.1 -82.35 -44.1 -82.2 -44.1 -82.05 -44.05 -81.85 -44.05 -81.7 -44.05 -81.55 -44.0 -81.35 -44.0 -81.2 -43.95 -81.0 -43.9 -80.85 -43.9 -80.65 -43.85 -80.45 -43.8 -80.25 -43.75 -80.05 -43.7 -79.85 -43.7 -79.65 -43.65 -79.45 -43.6 -79.25 -43.55 -79.0 -43.5 -78.8 -43.45 -78.55 -43.4 -78.35 -43.3 -78.1 -43.25 -77.9 -43.2 -77.65 -43.15 -77.4 -43.05 -77.15 -43.0 -76.9 -42.9 -76.65 -42.35 -74.65 -41.5 -72.1 -40.65 -69.55 -39.4 -66.45 -38.2 -63.3 -36.6 -59.55 -36.75 -59.35 -37.0 -58.95 -37.2 -58.7 -37.45 -58.3 -37.5 -58.25 -37.5 -58.2 -37.55 -58.15 -37.6 -58.1 -37.6 -58.05 -37.65 -58.0 -37.65 -57.95 -37.7 -57.9 -37.75 -57.85 -37.75 -57.8 -37.8 -57.75 -37.8 -57.7 -37.85 -57.65 -37.85 -57.6 -37.9 -57.55 -37.9 -57.5 -38.1 -57.2 -38.3 -56.65 -38.35 -56.6 -38.35 -56.55 -38.4 -56.5 -38.45 -56.45 -38.45 -56.4 -38.5 -56.35 -38.5 -56.3 -38.55 -56.2 -38.6 -56.15 -38.6 -56.1 -38.65 -56.05 -38.65 -56.0 -38.7 -55.95 -38.7 -55.9 -38.75 -55.85 -38.75 -55.75 -38.8 -55.7 -38.8 -55.65 -38.85 -55.55 -38.85 -55.5 -38.9 -55.45 -38.9 -55.4 -38.95 -55.35 -38.95 -55.25 -38.95 -55.2 -39.0 -55.15 -39.0 -55.1 -39.05 -55.0 -39.05 -54.95 -39.05 -54.9 -39.1 -54.85 -39.1 -54.75 -39.15 -54.7 -39.15 -54.6 -39.2 -54.55 -39.2 -54.5 -39.25 -54.4 -39.25 -54.35 -39.3 -54.3 -39.3 -54.2 -39.3 -54.15 -39.35 -54.1 -39.35 -54.0 -39.4 -53.95 -39.4 -53.9 -39.4 -53.8 -39.45 -53.75 -39.45 -53.65 -39.45 -53.6 -39.5 -53.5 -39.5 -53.45 -39.55 -53.35 -39.55 -53.3 -39.55 -53.2 -39.6 -53.15 -39.6 -53.1 -39.6 -53.0 -39.65 -52.95 -39.65 -52.85 -39.65 -52.8 -39.65 -52.75 -39.7 -52.65 -39.7 -52.6 -39.7 -52.5 -39.75 -52.35 -39.75 -52.2 -39.8 -52.05 -39.8 -51.9 -39.8 -51.75 -39.85 -51.6 -39.85 -51.45 -39.85 -51.3 -39.9 -51.15 -39.9 -51.0 -39.9 -50.85 -39.95 -50.7 -39.95 -50.55 -39.95 -50.4 -39.95 -50.25 -39.95 -50.05 -39.95 -49.9 -39.95 -49.75 -39.95 -49.65 -39.95 -49.5 -40.0 -49.35 -40.0 -49.2 -40.0 -49.05 -39.95 -48.9 -39.95 -48.75 -39.95 -48.6 -39.95 -48.45 -39.95 -48.3 -39.95 -48.15 -39.95 -48.0 -39.9 -47.85 -39.9 -47.7 -39.9 -47.55 -39.9 -47.45 -39.85 -47.3 -39.85 -47.15 -39.85 -47.05 -39.8 -46.9 -39.8 -46.75 -39.8 -46.6 -39.75 -46.5 -39.75 -46.35 -39.75 -46.2 -39.7 -46.05 -39.7 -45.95 -39.65 -45.8 -39.65 -45.65 -39.6 -45.5 -39.55 -45.35 -39.55 -45.25 -39.5 -45.1 -39.5 -45.0 -39.45 -44.85 -39.4 -44.75 -39.4 -44.6 -39.35 -44.45 -39.3 -44.35 -39.3 -44.2 -39.25 -44.1 -39.2 -43.95 -39.15 -43.8 -39.15 -43.7 -39.1 -43.55 -39.05 -43.4 -39.0 -43.3 -39.0 -43.15 -38.95 -43.05 -38.9 -42.95 -38.9 -42.8 -38.85 -42.7 -38.8 -42.6 -38.75 -42.45 -38.75 -42.35 -38.7 -42.25 -38.65 -42.1 -38.6 -42.0 -38.55 -41.9 -38.5 -41.75 -38.45 -41.65 -38.4 -41.5 -38.35 -41.4 -38.35 -41.3 -38.3 -41.2 -38.25 -41.1 -38.2 -41.0 -38.15 -40.9 -38.15 -40.8 -38.1 -40.65 -38.05 -40.55 -38.0 -40.45 -37.95 -40.35 -37.9 -40.25 -37.85 -40.15 -37.8 -40.05 -37.75 -39.95 -37.7 -39.8 -37.45 -39.25 -37.05 -38.3 -36.8 -37.9 -36.45 -37.1 -36.4 -37.0 -36.35 -36.85 -36.25 -36.75 -36.2 -36.65 -36.15 -36.55 -36.1 -36.4 -36.0 -36.3 -35.95 -36.2 -35.9 -36.1 -35.85 -35.95 -35.75 -35.85 -35.7 -35.75 -35.65 -35.65 -35.6 -35.55 -35.5 -35.45 -35.45 -35.3 -35.4 -35.2 -35.35 -35.15 -35.3 -35.05 -35.25 -34.95 -35.2 -34.85 -35.15 -34.8 -35.1 -34.7 -35.05 -34.6 -35.0 -34.5 -34.9 -34.45 -34.85 -34.35 -34.8 -34.25 -34.75 -34.15 -34.7 -34.05 -34.6 -33.95 -34.55 -33.85 -34.2 -33.35 -33.7 -32.7 -33.1 -31.8 -33.0 -31.7 -32.7 -31.2 -32.4 -30.75 -32.35 -30.7 -32.35 -30.65 -32.3 -30.6 -32.25 -30.55 -32.25 -30.5 -32.2 -30.4 -32.15 -30.35 -32.15 -30.3 -32.1 -30.25 -32.1 -30.2 -32.05 -30.15 -32.0 -30.05 -32.0 -30.0 -31.95 -29.95 -31.95 -29.9 -31.9 -29.8 -31.9 -29.75 -31.85 -29.7 -31.85 -29.6 -31.8 -29.55 -31.8 -29.5 -31.75 -29.45 -31.75 -29.35 -31.75 -29.3 -31.7 -29.25 -31.7 -29.2 -31.7 -29.1 -31.65 -29.05 -31.65 -29.0 -31.65 -28.9 -31.6 -28.85 -31.6 -28.75 -31.6 -28.7 -31.55 -28.6 -31.55 -28.55 -31.55 -28.5 -31.5 -28.4 -31.5 -28.35 -31.5 -28.25 -31.5 -28.2 -31.45 -28.1 -31.45 -28.05 -31.45 -27.95 -31.45 -27.9 -31.45 -27.8 -31.45 -27.75 -31.4 -27.65 -31.4 -27.55 -31.4 -27.45 -31.4 -27.4 -31.4 -27.3 -31.4 -27.25 -31.4 -27.15 -31.4 -27.1 -31.4 -27.0 -31.4 -26.9 -31.4 -26.85 -31.4 -26.75 -31.4 -26.7 -31.4 -26.6 -31.4 -26.5 -31.4 -26.45 -31.4 -26.35 -31.4 -26.25 -31.4 -26.2 -31.4 -26.1 -31.45 -26.05 -31.45 -26.0 -31.45 -25.9 -31.45 -25.85 -31.45 -25.8 -31.5 -25.7 -31.5 -25.65 -31.5 -25.55 -31.55 -25.5 -31.55 -25.4 -31.55 -25.35 -31.6 -25.25 -31.6 -25.2 -31.6 -25.1 -31.6 -25.05 -31.65 -25.0 -31.65 -24.95 -31.65 -24.9 -31.7 -24.8 -31.7 -24.75 -31.7 -24.7 -31.75 -24.65 -31.75 -24.6 -31.8 -24.5 -31.8 -24.45 -31.8 -24.4 -31.85 -24.3 -31.85 -24.25 -31.9 -24.2 -31.9 -24.1 -31.95 -24.0 -32.1 -23.7 -32.2 -23.35 -32.3 -23.15 -32.4 -22.95 -32.5 -22.7 -32.55 -22.6 -32.65 -22.4 -32.7 -22.3 -32.7 -22.25 -32.75 -22.2 -32.75 -22.1 -32.8 -22.05 -32.85 -22.0 -32.85 -21.95 -32.9 -21.9 -32.9 -21.8 -32.95 -21.75 -32.95 -21.7 -33.0 -21.65 -33.0 -21.6 -33.05 -21.55 -33.05 -21.5 -33.05 -21.45 -33.1 -21.35 -33.1 -21.3 -33.1 -21.25 -33.15 -21.15 -33.15 -21.1 -33.2 -21.05 -33.2 -21.0 -33.2 -20.9 -33.25 -20.85 -33.25 -20.8 -33.25 -20.7 -33.3 -20.65 -33.3 -20.6 -33.3 -20.55 -33.3 -20.45 -33.35 -20.4 -33.35 -20.35 -33.35 -20.25 -33.35 -20.2 -33.4 -20.1 -33.4 -20.05 -33.4 -20.0 -33.4 -19.9 -33.4 -19.85 -33.45 -19.8 -33.45 -19.7 -33.45 -19.65 -33.45 -19.55 -33.45 -19.5 -33.45 -19.4 -33.45 -19.35 -33.45 -19.25 -33.45 -19.2 -33.45 -19.1 -33.45 -18.95 -33.45 -18.8 -33.45 -18.65 -33.45 -18.5 -33.45 -18.35 -33.45 -18.2 -33.4 -18.05 -33.4 -17.9 -33.4 -17.75 -33.4 -17.6 -33.35 -17.45 -33.35 -17.3 -33.35 -17.1 -33.3 -16.95 -33.3 -16.8 -33.25 -16.65 -33.25 -16.5 -33.2 -16.35 -33.2 -16.2 -33.15 -16.05 -33.1 -15.9 -33.1 -15.75 -33.05 -15.65 -33.0 -15.5 -33.0 -15.35 -32.95 -15.2 -32.9 -15.05 -32.9 -14.9 -32.85 -14.75 -32.8 -14.6 -32.75 -14.45 -32.7 -14.3 -32.65 -14.15 -32.65 -14.05 -32.6 -13.9 -32.55 -13.75 -32.5 -13.65 -32.45 -13.5 -32.4 -13.35 -32.35 -13.2 -32.3 -13.1 -32.25 -12.95 -32.2 -12.8 -32.15 -12.65 -32.1 -12.55 -32.05 -12.4 -31.95 -12.25 -31.9 -12.1 -31.85 -12.0 -31.8 -11.85 -31.75 -11.75 -31.7 -11.6 -31.65 -11.5 -31.6 -11.35 -31.5 -11.25 -31.45 -11.1 -31.4 -11.0 -31.35 -10.85 -31.25 -10.7 -31.2 -10.6 -31.15 -10.45 -31.05 -10.35 -31.0 -10.2 -30.9 -10.05 -30.85 -9.95 -30.8 -9.8 -30.7 -9.7 -30.65 -9.6 -30.6 -9.45 -30.5 -9.35 -30.45 -9.25 -30.35 -9.1 -30.3 -9.0 -30.25 -8.9 -30.15 -8.75 -30.1 -8.65 -30.0 -8.55 -29.9 -8.4 -29.85 -8.3 -29.75 -8.15 -29.7 -8.05 -29.6 -7.95 -29.55 -7.85 -29.45 -7.75 -29.4 -7.65 -29.3 -7.55 -29.25 -7.4 -29.15 -7.3 -29.05 -7.2 -29.0 -7.1 -28.9 -7.0 -28.85 -6.9 -28.75 -6.8 -28.65 -6.7 -28.6 -6.6 -28.5 -6.45 -28.45 -6.35 -28.35 -6.25 -28.3 -6.15 -28.2 -6.05 -28.1 -5.95 -28.05 -5.85 -27.95 -5.75 -27.9 -5.65 -27.8 -5.55 -27.7 -5.45 -27.65 -5.35 -27.55 -5.25 -27.45 -5.15 -27.4 -5.05 -27.3 -4.95 -27.2 -4.85 -27.15 -4.75 -27.05 -4.7 -27.0 -4.6 -26.9 -4.5 -26.8 -4.45 -26.75 -4.35 -26.65 -4.25 -26.6 -4.15 -26.5 -4.1 -26.4 -4.0 -26.35 -3.9 -26.25 -3.8 -26.15 -3.75 -26.1 -3.65 -26.0 -3.55 -25.9 -3.45 -25.6 -3.35 -24.9 -3.05 -24.85 -3.05 -24.8 -3.0 -24.75 -3.0 -24.7 -2.95 -24.65 -2.95 -24.55 -2.9 -24.5 -2.9 -24.45 -2.85 -24.4 -2.85 -24.35 -2.8 -24.3 -2.75 -24.25 -2.75 -24.2 -2.7 -24.1 -2.7 -24.05 -2.65 -24.0 -2.6 -23.95 -2.6 -23.9 -2.55 -23.85 -2.55 -23.8 -2.5 -23.75 -2.5 -23.7 -2.45 -23.65 -2.45 -23.6 -2.4 -23.55 -2.4 -23.5 -2.35 -23.45 -2.3 -23.4 -2.3 -23.35 -2.25 -23.3 -2.25 -23.25 -2.2 -23.2 -2.15 -23.15 -2.15 -23.1 -2.1 -23.05 -2.1 -23.0 -2.05 -22.95 -2.05 -22.9 -2.0 -22.85 -2.0 -22.8 -1.95 -22.8 -1.95 -22.75 -1.9 -22.7 -1.9 -22.65 -1.85 -22.6 -1.85 -22.55 -1.8 -22.5 -1.8 -22.45 -1.75 -22.4 -1.75 -22.35 -1.7 -22.35 -1.7 -22.3 -1.65 -22.25 -1.65 -22.2 -1.6 -22.15 -1.6 -22.1 -1.55 -22.1 -1.55 -22.05 -1.5 -22.0 -1.45 -21.95 -1.45 -21.95 -1.4 -21.9 -1.4 -21.85 -1.35 -21.8 -1.3 -21.75 -1.3 -21.75 -1.25 -21.7 -1.25 -21.65 -1.2 -21.65 -1.2 -21.6 -1.15 -21.55 -1.15 -21.5 -1.1 -21.5 -1.1 -21.45 -1.05 -21.4 -1.05 -21.4 -1.0 -21.35 -1.0 -21.35 -0.95 -21.3 -0.95 -21.25 -0.9 -21.2 -0.9 -21.2 -0.85 -21.15 -0.85 -21.15 -0.85 -21.1 -0.8 -21.05 -0.8 -21.05 -0.8 -21.0 -0.75 -21.0 -0.75 -20.95 -0.7 -20.9 -0.7 -20.9 -0.65 -20.85 -0.65 -20.8 -0.6 -20.8 -0.6 -20.75 -0.55 -20.75 -0.55 -20.7 -0.5 -20.7 -0.5 -20.65 -0.5 -20.65 -0.45 -20.6 -0.45 -20.6 -0.45 -20.55 -0.4 -20.55 -0.4 -20.5 -0.35 -20.5 -0.35 -20.45 -0.3 -20.45 -0.3 -20.4 -0.25 -20.4 -0.25 -20.35 -0.2 -20.35 -0.2 -20.3 -0.15 -20.3 -0.15 -20.25 -0.15 -20.25 -0.1 -20.2 -0.1 -20.2 -0.1 -20.15 -0.05 -20.15 -0.05 -20.1 0.0 -20.1 0.0 -20.05 0.05 -20.05 0.05 -20.0 0.1 -20.0 0.1 -19.95 0.15 -19.85 0.25 -19.6 0.5 -19.55 0.5 -19.55 0.55 -19.5 0.6 -19.45 0.6 -19.4 0.65 -19.4 0.7 -19.35 0.7 -19.3 0.75 -19.3 0.8 -19.25 0.85 -19.2 0.85 -19.2 0.9 -19.15 0.9 -19.1 0.95 -19.05 1.0 -19.05 1.0 -19.0 1.05 -18.95 1.05 -18.95 1.1 -18.9 1.15 -18.8 1.25 -18.6 1.45 -18.6 1.5 -18.55 1.5 -18.55 1.55 -18.5 1.55 -18.45 1.6 -18.45 1.6 -18.4 1.65 -18.35 1.7 -18.3 1.75 -18.15 1.9 -18.15 1.9 -18.1 1.95 -18.1 2.0 -18.05 2.05 -17.95 2.15 -17.75 2.35 -17.7 2.4 -17.7 2.4 -17.65 2.45 -17.65 2.5 -17.6 2.5 -17.6 2.55 -17.55 2.6 -17.5 2.6 -17.5 2.65 -17.45 2.7 -17.4 2.75 -17.4 2.75 -17.35 2.8 -17.3 2.85 -17.3 2.85 -17.25 2.9 -17.25 2.95 -17.2 3.0 -17.1 3.1 -16.9 3.3 -16.85 3.35 -16.85 3.4 -16.8 3.4 -16.8 3.45 -16.75 3.5 -16.7 3.55 -16.65 3.6 -16.65 3.6 -16.6 3.65 -16.55 3.7 -16.55 3.7 -16.5 3.75 -16.5 3.8 -16.45 3.85 -16.45 3.85 -16.4 3.9 -16.4 3.9 -16.35 3.95 -16.35 3.95 -16.3 4.0 -16.3 4.05 -16.25 4.1 -16.25 4.1 -16.2 4.15 -16.2 4.15 -16.15 4.2 -16.15 4.2 -16.1 4.25 -16.1 4.3 -16.05 4.35 -16.1 4.4 -16.25 4.6 -16.45 4.75 -16.5 4.85 -16.8 5.2 -16.95 5.4 -17.1 5.6 -17.35 6.0 -17.4 6.05 -17.4 6.1 -17.45 6.1 -17.5 6.15 -17.5 6.2 -17.55 6.25 -17.55 6.3 -17.6 6.35 -17.65 6.35 -17.65 6.4 -17.7 6.45 -17.7 6.5 -17.75 6.55 -17.75 6.6 -17.8 6.65 -17.8 6.7 -17.85 6.75 -17.85 6.8 -17.9 6.8 -17.95 6.85 -17.95 6.9 -18.0 6.95 -18.0 7.0 -18.05 7.05 -18.1 7.05 -18.1 7.1 -18.15 7.15 -18.15 7.2 -18.2 7.25 -18.2 7.3 -18.25 7.35 -18.25 7.4 -18.3 7.45 -18.3 7.5 -18.35 7.5 -18.4 7.55 -18.4 7.6 -18.45 7.65 -18.45 7.7 -18.5 7.75 -18.55 7.8 -18.55 7.85 -18.6 7.9 -18.6 7.95 -18.65 8.0 -18.65 8.05 -18.7 8.1 -18.7 8.15 -18.85 8.4 -19.1 8.95 -19.1 8.95 -19.5 9.8 -19.85 10.6 -20.25 11.7 -20.3 11.8 -20.35 11.95 -20.35 12.05 -20.4 12.15 -20.45 12.3 -20.45 12.4 -20.5 12.5 -20.55 12.65 -20.55 12.75 -20.6 12.85 -20.65 13.0 -20.65 13.1 -20.7 13.2 -20.7 13.35 -20.75 13.45 -20.75 13.6 -20.8 13.7 -20.8 13.8 -20.85 13.9 -20.85 14.0 -20.9 14.1 -20.9 14.25 -20.95 14.35 -20.95 14.45 -20.95 14.55 -21.0 14.65 -21.0 14.75 -21.05 14.9 -21.05 15.0 -21.05 15.1 -21.1 15.2 -21.1 15.35 -21.15 15.85 -21.3 17.05 -21.3 17.15 -21.3 17.25 -21.3 17.3 -21.35 17.4 -21.35 17.5 -21.35 17.6 -21.35 17.7 -21.35 17.8 -21.35 17.85 -21.35 17.95 -21.35 18.05 -21.35 18.15 -21.35 18.25 -21.35 18.35 -21.35 18.45 -21.35 18.55 -21.35 18.65 -21.35 18.7 -21.35 18.8 -21.35 18.9 -21.35 18.95 -21.35 19.05 -21.35 19.15 -21.35 19.25 -21.35 19.3 -21.35 19.4 -21.35 19.5 -21.35 19.6 -21.35 19.65 -21.3 19.75 -21.3 19.85 -21.3 19.95 -21.3 20.0 -21.3 20.1 -21.3 20.15 -21.3 20.25 -21.3 20.3 -21.3 20.4 -21.3 20.45 -21.3 20.55 -21.3 20.6 -21.3 20.7 -21.3 20.75 -21.3 20.85 -21.3 20.9 -21.25 21.0 -21.25 21.05 -21.25 21.15 -21.25 21.2 -21.25 21.25 -21.25 21.35 -21.25 21.4 -21.2 21.45 -21.2 21.5 -21.2 21.55 -21.2 21.65 -21.2 21.7 -21.2 21.75 -21.15 21.8 -21.15 21.9 -21.15 21.95 -21.15 22.0 -21.1 22.05 -21.1 22.15 -21.15 22.2 -21.2 22.2 -21.25 22.25 -21.3 22.25 -21.3 22.3 -21.35 22.35 -21.4 22.35 -21.45 22.4 -21.5 22.45 -21.55 22.45 -21.55 22.5 -21.6 22.55 -21.65 22.55 -21.7 22.6 -21.7 22.65 -21.75 22.7 -22.05 23.0 -22.65 23.6 -22.7 23.65 -22.8 23.75 -22.85 23.8 -22.95 23.85 -23.0 23.95 -23.05 24.0 -23.15 24.05 -23.2 24.15 -23.25 24.2 -23.35 24.25 -23.4 24.35 -23.45 24.4 -23.5 24.45 -23.6 24.55 -23.65 24.6 -23.7 24.7 -23.8 24.8 -23.85 24.85 -23.95 24.95 -24.0 25.05 -24.05 25.15 -24.15 25.2 -24.2 25.3 -24.3 25.4 -24.35 25.5 -24.4 25.55 -24.5 25.65 -24.55 25.75 -24.6 25.85 -24.7 25.95 -24.75 26.05 -24.8 26.15 -24.9 26.25 -24.95 26.35 -25.05 26.45 -25.1 26.55 -25.2 26.65 -25.3 26.75 -25.35 26.85 -25.4 26.95 -25.5 27.05 -25.55 27.15 -25.65 27.25 -25.7 27.4 -25.75 27.5 -25.85 27.6 -25.9 27.7 -25.95 27.85 -26.0 27.95 -26.1 28.1 -26.15 28.2 -26.25 28.3 -26.3 28.45 -26.35 28.55 -26.45 28.65 -26.5 28.8 -26.55 28.9 -26.65 29.05 -26.7 29.15 -26.75 29.3 -26.8 29.4 -26.9 29.55 -26.95 29.65 -27.0 29.8 -27.05 29.95 -27.15 30.1 -27.2 30.2 -27.25 30.35 -27.3 30.5 -27.35 30.65 -27.45 30.8 -27.5 30.95 -27.55 31.05 -27.6 31.2 -27.65 31.35 -27.7 31.5 -27.75 31.65 -27.8 31.8 -27.85 31.95 -27.9 32.1 -27.95 32.25 -28.0 32.4 -28.05 32.55 -28.1 32.7 -28.15 32.85 -28.2 33.05 -28.25 33.2 -28.3 33.35 -28.35 33.5 -28.35 33.65 -28.4 33.8 -28.45 34.0 -28.5 34.15 -28.55 34.3 -28.55 34.45 -28.6 34.65 -28.65 34.8 -28.7 35.0 -28.7 35.15 -28.75 35.35 -28.75 35.5 -28.8 35.7 -28.85 35.85 -28.85 36.05 -28.85 36.2 -28.9 36.4 -28.9 36.55 -28.9 36.75 -28.95 36.9 -28.95 37.1 -28.95 37.25 -28.95 37.45 -28.95 37.6 -29.0 37.75 -29.0 37.95 -29.0 38.1 -29.0 38.25 -29.0 38.4 -29.0 38.55 -29.0 38.75 -29.05 38.9 -29.05 39.05 -29.05 39.2 -29.05 39.4 -29.05 39.55 -29.0 39.7 -29.0 39.85 -29.0 40.05 -28.9 41.15 -28.75 42.45 -28.75 42.6 -28.7 42.7 -28.7 42.85 -28.65 42.95 -28.6 43.1 -28.6 43.2 -28.55 43.35 -28.55 43.5 -28.5 43.6 -28.45 43.75 -28.45 43.85 -28.4 44.0 -28.35 44.15 -28.35 44.25 -28.3 44.4 -28.25 44.55 -28.25 44.65 -28.2 44.8 -28.2 44.9 -28.15 45.0 -28.1 45.1 -28.1 45.25 -28.05 45.35 -28.0 45.45 -28.0 45.6 -27.95 45.7 -27.9 45.8 -27.9 45.9 -27.85 46.05 -27.8 46.15 -27.75 46.25 -27.7 46.4 -27.65 46.5 -27.65 46.6 -27.6 46.65 -27.6 46.75 -27.55 46.85 -27.5 46.95 -27.45 47.05 -27.45 47.15 -27.4 47.2 -27.35 47.3 -27.3 47.4 -27.3 47.5 -27.25 47.6 -27.2 47.7 -27.15 47.8 -27.1 47.9 -27.05 47.95 -27.05 48.05 -27.0 48.1 -27.0 48.2 -26.95 48.25 -26.9 48.35 -26.9 48.4 -26.85 48.45 -26.8 48.55 -26.8 48.6 -26.75 48.7 -26.7 48.75 -26.65 48.8 -26.65 48.9 -26.6 48.95 -26.55 49.05 -26.5 49.2 -26.35 49.45 -26.2 49.7 -26.15 49.85 -26.35 50.05 -26.75 50.55 -26.8 50.6 -26.85 50.65 -26.9 50.7 -26.95 50.75 -26.95 50.8 -27.0 50.85 -27.05 50.9 -27.1 50.95 -27.15 51.0 -27.2 51.05 -27.2 51.1 -27.25 51.15 -27.3 51.2 -27.35 51.25 -27.35 51.3 -27.4 51.4 -27.45 51.45 -27.5 51.5 -27.55 51.6 -27.6 51.65 -27.65 51.7 -27.7 51.75 -27.75 51.85 -27.8 51.9 -27.85 51.95 -27.9 52.0 -27.95 52.1 -28.0 52.15 -28.05 52.2 -28.05 52.3 -28.1 52.35 -28.15 52.45 -28.2 52.5 -28.25 52.6 -28.3 52.65 -28.35 52.75 -28.4 52.8 -28.45 52.9 -28.5 52.95 -28.55 53.05 -28.6 53.1 -28.65 53.2 -28.7 53.25 -28.75 53.35 -28.8 53.4 -28.8 53.5 -28.85 53.55 -28.9 53.65 -29.15 54.1 -29.6 55.05 -29.65 55.15 -29.7 55.25 -29.75 55.3 -29.8 55.4 -29.85 55.5 -29.9 55.6 -29.95 55.7 -30.0 55.8 -30.05 55.9 -30.05 56.0 -30.1 56.1 -30.15 56.2 -30.2 56.3 -30.25 56.4 -30.25 56.5 -30.3 56.6 -30.35 56.7 -30.4 56.8 -30.45 56.9 -30.5 57.0 -30.5 57.1 -30.55 57.25 -30.6 57.35 -30.65 57.45 -30.65 57.55 -30.7 57.65 -30.75 57.75 -30.8 57.9 -30.8 58.0 -30.85 58.1 -30.9 58.2 -30.9 58.35 -30.95 58.45 -31.0 58.6 -31.0 58.7 -31.05 58.8 -31.1 58.95 -31.1 59.05 -31.15 59.15 -31.2 59.3 -31.2 59.4 -31.25 59.5 -31.3 59.65 -31.3 59.75 -31.35 59.85 -31.35 60.0 -31.4 60.1 -31.4 60.25 -31.45 60.4 -31.45 60.55 -31.5 60.7 -31.5 60.85 -31.55 61.0 -31.6 61.15 -31.6 61.25 -31.6 61.4 -31.65 61.55 -31.65 61.7 -31.7 61.85 -31.7 62.0 -31.7 62.15 -31.75 62.3 -31.75 62.45 -31.75 62.6 -31.75 62.75 -31.8 62.9 -31.8 63.0 -31.8 63.15 -31.85 63.3 -31.85 63.45 -31.85 63.6 -31.85 63.7 -31.9 63.85 -31.9 64.0 -31.9 64.15 -31.9 64.25 -31.9 64.4 -31.9 64.55 -31.9 64.7 -31.9 64.85 -31.9 65.0 -31.9 65.1 -31.9 65.25 -31.9 65.35 -31.9 65.5 -31.9 65.6 -31.9 65.75 -31.9 65.85 -31.9 66.0 -31.85 66.1 -31.85 66.25 -31.85 66.35 -31.85 66.5 -31.85 66.65 -31.8 66.75 -31.8 66.9 -31.8 67.0 -31.8 67.15 -31.75 67.25 -31.75 67.35 -31.75 67.5 -31.75 67.6 -31.7 67.7 -31.7 67.85 -31.7 67.95 -31.65 68.05 -31.65 68.2 -31.65 68.3 -31.6 68.4 -31.6 68.55 -31.6 68.65 -31.55 68.8 -31.45 69.5 -31.2 70.45 -31.1 70.8 -30.8 71.85 -30.65 72.35 -30.4 73.0 -30.4 73.05 -30.35 73.1 -30.35 73.15 -30.35 73.2 -30.3 73.25 -30.3 73.3 -30.25 73.35 -30.25 73.45 -30.25 73.5 -30.2 73.55 -30.2 73.6 -30.15 73.65 -30.15 73.7 -30.1 73.75 -30.1 73.8 -30.05 73.9 -29.8 74.55 -28.4 78.1 -28.4 78.25 -28.4 78.35 -28.4 78.5 -28.4 78.6 -28.4 78.75 -28.4 78.85 -28.4 79.0 -28.4 79.1 -28.4 79.25 -28.35 79.35 -28.35 79.5 -28.35 79.6 -28.35 79.75 -28.35 79.9 -28.3 80.0 -28.3 80.15 -28.3 80.3 -28.25 80.4 -28.25 80.55 -28.25 80.65 -28.2 80.8 -28.2 80.9 -28.15 81.05 -28.15 81.15 -28.15 81.3 -28.1 81.4 -28.1 81.5 -28.05 81.65 -28.05 81.75 -28.0 81.9 -28.0 82.0 -27.95 82.15 -27.9 82.25 -27.9 82.4 -27.85 82.5 -27.85 82.6 -27.8 82.7 -27.75 82.85 -27.75 82.95 -27.7 83.05 -27.65 83.15 -27.65 83.3 -27.6 83.4 -27.55 83.5 -27.5 83.6 -27.5 83.7 -27.45 83.8 -27.4 83.95 -27.35 84.05 -27.3 84.15 -27.25 84.25 -27.25 84.4 -27.2 84.5 -27.15 84.6 -27.1 84.7 -27.05 84.8 -27.0 84.9 -26.95 85.0 -26.9 85.1 -26.85 85.2 -26.8 85.3 -26.75 85.45 -26.7 85.55 -26.65 85.65 -26.6 85.75 -26.55 85.85 -26.5 85.95 -26.45 86.05 -26.35 86.1 -26.3 86.2 -26.25 86.3 -26.2 86.4 -26.15 86.5 -26.1 86.6 -26.0 86.7 -25.95 86.75 -25.9 86.85 -25.85 86.95 -25.75 87.05 -25.7 87.15 -25.65 87.25 -25.55 87.3 -25.5 87.4 -25.45 87.5 -25.35 87.55 -25.3 87.65 -25.2 87.75 -25.15 87.8 -25.1 87.9 -25.0 87.95 -24.95 88.05 -24.85 88.1 -24.8 88.2 -24.7 88.3 -24.65 88.35 -24.55 88.45 -24.5 88.5 -24.4 88.6 -24.35 88.65 -24.25 88.75 -24.15 88.8 -24.1 88.85 -24.0 88.95 -23.95 89.0 -23.85 89.05 -23.75 89.1 -23.7 89.2 -23.6 89.25 -23.5 89.3 -23.45 89.35 -23.35 89.4 -23.25 89.5 -23.15 89.55 -23.1 89.6 -23.0 89.65 -22.9 89.7 -22.8 89.8 -22.75 89.85 -22.65 89.9 -22.55 89.95 -22.45 90.0 -22.35 90.05 -22.3 90.05 -22.2 90.1 -22.1 90.15 -22.0 90.2 -21.9 90.25 -21.8 90.3 -21.7 90.35 -21.6 90.4 -21.5 90.45 -21.35 90.45 -21.25 90.5 -21.15 90.55 -21.05 90.6 -20.9 90.65 -20.8 90.65 -20.7 90.7 -20.55 90.75 -20.45 90.75 -20.35 90.8 -20.2 90.8 -20.1 90.85 -19.95 90.9 -19.85 90.9 -19.75 90.95 -19.6 90.95 -19.5 91.0 -19.4 91.0 -19.25 91.0 -19.15 91.05 -19.05 91.05 -18.9 91.05 -18.8 91.05 -18.7 91.1 -18.55 91.1 -18.45 91.1 -18.3 91.1 -18.2 91.1 -18.05 91.15 -17.0 91.1 -16.25 91.05 -16.15 91.05 -16.05 91.05 -15.95 91.0 -15.85 91.0 -15.75 91.0 -15.6 90.95 -15.5 90.95 -15.4 90.95 -15.3 90.9 -15.2 90.9 -15.1 90.85 -15.0 90.85 -14.9 90.8 -14.75 90.8 -14.65 90.75 -14.55 90.75 -13.55 90.45 -13.05 90.3 -12.2 89.85 -11.9 89.7 -11.85 89.65 -11.8 89.6 -11.75 89.55 -11.65 89.55 -11.6 89.5 -11.55 89.45 -11.5 89.4 -11.45 89.35 -11.45 89.35 -11.4 89.3 -11.35 89.25 -11.3 89.2 -11.25 89.15 -11.25 89.1 -11.2 89.05 -11.15 89.05 -11.1 89.0 -11.1 88.95 -11.05 88.95 -11.05 88.9 -11.0 88.85 -11.0 88.8 -10.95 88.75 -10.95 88.75 -10.9 88.7 -10.9 88.65 -10.9 88.6 -10.9 88.6 -10.85 88.55 -10.85 88.5 -10.85 88.45 -10.85 88.45 -10.85 88.4 -10.85 88.4 -10.85 88.35 -10.85 88.3 -10.9 88.3 -10.9 88.25 -10.9 88.2 -10.9 88.2 -10.9 88.15 -10.95 88.1 -10.95 88.1 -10.95 88.05 -11.0 88.0 -11.0 88.0 -11.05 87.95 -11.05 87.95 -11.1 87.95 -11.1 87.9 -11.15 87.9 -11.15 87.85 -11.2 87.85 -11.25 87.8 -11.25 87.8 -11.3 87.75 -11.35 87.75 -11.4 87.7 -11.45 87.7 -11.45 87.65 -11.5 87.65 -11.55 87.65 -11.6 87.6 -11.65 87.6 -11.95 87.45 -12.5 87.25 -13.5 86.8 -13.6 86.8 -14.6 86.35 -14.8 86.3 -15.5 85.9 -15.95 85.6 -16.05 85.55 -16.1 85.5 -16.2 85.4 -16.25 85.35 -16.3 85.3 -16.4 85.25 -16.45 85.2 -16.55 85.1 -16.6 85.05 -16.65 85.0 -16.75 84.95 -16.8 84.85 -16.85 84.8 -16.95 84.75 -17.0 84.7 -17.05 84.65 -17.1 84.55 -17.2 84.5 -17.25 84.4 -17.3 84.35 -17.35 84.25 -17.4 84.15 -17.45 84.1 -17.5 84.0 -17.6 83.9 -17.65 83.85 -17.7 83.75 -17.75 83.65 -17.8 83.6 -17.8 83.5 -17.85 83.4 -17.9 83.35 -17.95 83.3 -17.95 83.2 -18.0 83.15 -18.05 83.1 -18.05 83.0 -18.1 82.95 -18.1 82.85 -18.15 82.8 -18.2 82.7 -18.2 82.65 -18.25 82.55 -18.25 82.5 -18.3 82.4 -18.3 82.35 -18.35 82.25 -18.35 82.2 -18.4 82.15 -18.4 82.05 -18.45 82.0 -18.45 81.9 -18.5 81.85 -18.5 81.75 -18.55 81.65 -18.55 81.6 -18.55 81.5 -18.6 81.45 -18.6 81.35 -18.65 81.25 -18.65 81.2 -18.65 81.1 -18.7 81.0 -18.7 80.95 -18.7 80.85 -18.75 80.8 -18.75 80.7 -18.8 80.65 -18.8 80.55 -18.8 80.5 -18.8 80.4 -18.85 80.3 -18.85 80.25 -18.85 80.15 -18.85 80.1 -18.9 80.0 -18.9 79.9 -18.9 79.85 -18.9 79.75 -18.9 79.7 -18.9 79.6 -18.95 79.55 -18.95 79.45 -18.95 79.4 -18.95 79.3 -19.0 79.25 -19.0 79.15 -19.0 79.05 -19.0 79.0 -19.0 78.9 -19.05 78.85 -19.05 78.75 -19.05 78.65 -19.05 78.6 -19.05 78.5 -19.05 78.45 -19.05 78.35 -19.05 78.3 -19.05 78.2 -19.1 78.15 -19.1 78.05 -19.1 78.0 -19.1 77.9 -19.1 77.85 -19.1 77.75 -19.1 77.7 -19.1 77.65 -19.1 77.55 -19.1 77.5 -19.1 77.4 -19.1 77.35 -19.1 77.3 -19.1 76.95 -19.1 76.35 -19.1 76.1 -19.1 75.65 -19.1 75.6 -19.1 75.55 -19.1 75.5 -19.1 75.5 -19.1 75.45 -19.1 75.4 -19.1 75.35 -19.1 75.35 -19.05 75.3 -19.05 75.3 -19.05 75.25 -19.05 75.25 -19.05 75.2 -19.05 75.15 -19.05 75.1 -19.05 75.1 -19.05 75.05 -19.05 75.0 -19.05 75.0 -19.05 74.95 -19.05 74.9 -19.05 74.85 -19.05 74.85 -19.0 74.8 -19.0 74.75 -19.0 74.75 -18.95 74.0 -19.0 74.25 -18.95 73.9 -18.95 73.8 -18.95 73.6 -18.95 73.35 -18.95 73.3 -18.95 73.25 -18.95 73.2 -18.95 73.15 -18.95 73.15 -19.0 73.1 -19.0 73.05 -19.0 73.0 -19.0 72.95 -19.0 72.95 -19.0 72.9 -19.0 72.85 -19.0 72.8 -19.0 72.75 -19.0 72.7 -19.05 72.65 -19.05 72.6 -19.05 72.55 -19.05 72.5 -19.05 72.5 -19.05 72.45 -19.1 72.4 -19.1 72.35 -19.1 72.3 -19.1 72.3 -19.15 72.25 -19.15 72.2 -19.15 72.15 -19.2 72.1 -19.2 72.1 -19.2 72.05 -19.2 72.05 -19.25 72.0 -19.25 71.95 -19.25 71.95 -19.25 71.9 -19.25 71.85 -19.3 71.85 -19.3 71.8 -19.3 71.8 -19.35 71.75 -19.35 71.75 -19.35 71.7 -19.4 71.7 -19.4 71.65 -19.4 71.65 -19.4 71.6 -19.45 71.55 -19.45 71.55 -19.5 71.5 -19.5 71.45 -19.55 71.4 -19.55 71.4 -19.55 71.35 -19.6 71.3 -19.6 71.3 -19.65 71.25 -19.65 71.25 -19.7 71.2 -19.7 71.2 -19.75 71.15 -19.75 71.15 -19.9 71.0 -20.15 70.75 -20.2 70.75 -20.2 70.7 -20.25 70.7 -20.25 70.65 -20.3 70.65 -20.3 70.6 -20.35 70.6 -20.35 70.6 -20.4 70.55 -20.45 70.55 -20.45 70.5 -20.5 70.5 -20.5 70.5 -20.55 70.45 -20.6 70.45 -20.6 70.45 -20.65 70.45 -20.65 70.4 -20.7 70.4 -20.7 70.35 -20.75 70.35 -20.75 70.35 -20.8 70.3 -20.8 70.3 -20.85 70.3 -20.9 70.25 -20.9 70.25 -20.95 70.25 -20.95 70.2 -21.0 70.2 -21.05 70.2 -21.05 70.2 -21.1 70.15 -21.1 70.15 -21.15 70.1 -21.2 70.1 -21.25 70.05 -21.3 70.05 -21.35 70.0 -21.45 70.0 -21.5 69.95 -21.55 69.95 -21.95 69.7 -22.0 69.7 -22.05 69.7 -22.1 69.65 -22.1 69.65 -22.15 69.65 -22.2 69.6 -22.2 69.6 -22.25 69.6 -22.3 69.55 -22.3 69.55 -22.35 69.55 -22.4 69.5 -22.4 69.5 -22.45 69.5 -22.45 69.45 -22.5 69.45 -22.5 69.45 -22.9 69.2 -22.95 69.15 -23.0 69.1 -23.0 69.1 -23.05 69.05 -23.1 69.05 -23.1 69.0 -23.15 69.0 -23.15 68.95 -23.2 68.9 -23.25 68.9 -23.25 68.85 -23.3 68.85 -23.3 68.8 -23.35 68.75 -23.35 68.75 -23.4 68.7 -23.4 68.7 -23.45 68.65 -23.45 68.65 -23.5 68.6 -23.55 68.55 -23.55 68.5 -23.6 68.5 -23.6 68.45 -23.65 68.4 -23.65 68.35 -23.7 68.35 -23.7 68.3 -23.75 68.25 -23.75 68.2 -23.75 68.15 -23.8 68.1 -23.8 68.1 -23.85 68.05 -23.85 68.0 -23.9 67.95 -23.9 67.9 -23.95 67.85 -23.95 67.8 -24.0 67.75 -24.0 67.7 -24.0 67.65 -24.05 67.6 -24.05 67.55 -24.1 67.5 -24.1 67.5 -24.1 67.45 -24.15 67.4 -24.15 67.35 -24.2 67.3 -24.2 67.25 -24.25 67.2 -24.25 67.15 -24.25 67.05 -24.3 67.0 -24.3 66.95 -24.35 66.9 -24.35 66.85 -24.35 66.8 -24.4 66.75 -24.4 66.65 -24.4 66.6 -24.45 66.55 -24.45 66.5 -24.45 66.45 -24.45 66.4 -24.5 66.3 -24.5 66.25 -24.5 66.15 -24.5 66.1 -24.55 66.0 -24.55 65.95 -24.55 65.9 -24.55 65.8 -24.55 65.75 -24.6 65.65 -24.6 65.6 -24.6 65.55 -24.6 65.45 -24.6 65.4 -24.6 65.35 -24.6 65.25 -24.6 65.2 -24.6 65.1 -24.65 65.0 -24.65 64.9 -24.65 64.85 -24.65 64.75 -24.65 64.65 -24.65 64.6 -24.65 64.5 -24.65 64.4 -24.65 64.3 -24.65 64.25 -24.65 64.15 -24.65 64.05 -24.65 64.0 -24.65 63.9 -24.65 63.8 -24.65 63.7 -24.65 63.6 -24.65 63.5 -24.65 63.4 -24.65 63.3 -24.65 63.2 -24.65 63.1 -24.6 63.0 -24.6 62.9 -24.6 62.8 -24.6 62.7 -24.6 62.6 -24.55 62.5 -24.55 62.4 -24.5 61.65 -24.3 60.55 -22.95 57.35 -20.2 51.05 -20.3 50.6 -20.4 49.8 -20.5 49.3 -20.6 48.45 -20.6 48.35 -20.65 48.25 -20.65 48.15 -20.65 48.05 -20.65 47.95 -20.7 47.85 -20.7 47.8 -20.7 47.7 -20.7 47.6 -20.7 47.5 -20.75 47.4 -20.75 47.3 -20.75 47.2 -20.75 47.1 -20.75 47.0 -20.75 46.95 -20.8 46.35 -20.85 45.35 -20.85 45.25 -20.85 45.15 -20.85 45.0 -20.9 44.9 -20.9 44.8 -20.9 44.7 -20.9 44.6 -20.9 44.5 -20.9 44.35 -20.9 44.25 -20.9 44.15 -20.9 44.05 -20.9 43.95 -20.9 43.85 -20.9 43.75 -20.9 43.65 -20.9 43.55 -20.9 43.4 -20.9 43.3 -20.9 43.2 -20.9 43.05 -20.9 42.95 -20.9 42.85 -20.9 42.75 -20.9 42.6 -20.9 42.5 -20.9 42.4 -20.9 42.3 -20.9 42.15 -20.85 42.05 -20.85 41.95 -20.85 41.85 -20.85 41.75 -20.85 41.6 -20.85 41.5 -20.85 41.35 -20.85 41.25 -20.85 41.1 -20.85 41.0 -20.85 40.9 -20.85 40.75 -20.8 40.65 -20.8 40.5 -20.8 40.4 -20.8 40.3 -20.8 40.15 -20.75 40.05 -20.75 39.95 -20.7 39.2 -20.55 37.95 -20.55 37.8 -20.5 37.65 -20.5 37.5 -20.5 37.35 -20.45 37.2 -20.45 37.1 -20.4 36.95 -20.4 36.8 -20.4 36.65 -20.35 36.5 -20.35 36.35 -20.3 36.25 -20.3 36.1 -20.25 35.95 -20.25 35.8 -20.2 35.7 -20.2 35.55 -20.15 35.45 -20.15 35.3 -20.1 35.15 -20.05 35.05 -20.05 34.9 -20.0 34.75 -20.0 34.65 -19.95 34.5 -19.9 34.35 -19.9 34.25 -19.85 34.1 -19.8 33.95 -19.8 33.85 -19.75 33.7 -19.7 33.6 -19.55 32.9 -19.2 31.6 -19.1 31.35 -18.6 29.75 -18.55 29.65 -18.55 29.55 -18.5 29.4 -18.45 29.3 -18.4 29.2 -18.4 29.1 -18.35 29.0 -18.3 28.9 -18.25 28.8 -18.2 28.7 -18.2 28.6 -18.15 28.5 -18.1 28.4 -18.05 28.3 -18.0 28.2 -17.95 28.1 -17.9 28.0 -17.9 27.9 -17.85 27.8 -17.8 27.7 -17.75 27.6 -17.75 27.5 -17.7 27.4 -17.65 27.3 -17.6 27.2 -17.55 27.1 -17.55 27.0 -17.5 26.9 -17.45 26.8 -17.4 26.7 -17.35 26.6 -17.3 26.55 -17.05 25.95 -16.7 25.2 -16.65 25.1 -16.65 25.05 -16.6 24.95 -16.55 24.9 -16.5 24.8 -16.5 24.75 -16.45 24.65 -16.4 24.6 -16.35 24.5 -16.3 24.45 -16.3 24.35 -16.25 24.3 -16.2 24.2 -16.15 24.15 -16.1 24.05 -16.05 24.0 -16.05 23.8 -16.05 23.55 -16.05 23.35 -16.05 23.15 -16.1 22.95 -16.1 22.75 -16.1 22.5 -16.05 22.3 -16.05 22.1 -16.05 21.9 -16.05 21.7 -16.05 21.5 -16.05 21.3 -16.05 21.1 -16.0 20.9 -16.0 20.75 -16.0 20.55 -15.95 20.4 -15.95 20.2 -15.95 20.0 -15.9 19.85 -15.9 19.65 -15.85 19.5 -15.85 19.3 -15.85 19.15 -15.8 18.95 -15.8 18.8 -15.75 18.65 -15.75 18.45 -15.7 18.3 -15.7 18.15 -15.65 18.0 -15.6 17.85 -15.6 17.7 -15.55 17.55 -15.55 17.4 -15.5 17.25 -15.45 17.1 -15.4 16.95 -15.4 16.8 -15.35 16.7 -15.3 16.55 -15.25 16.4 -15.25 16.25 -15.2 16.15 -15.15 16.0 -15.1 15.85 -15.05 15.75 -15.0 15.6 -15.0 15.5 -14.95 15.35 -14.9 15.25 -14.85 15.1 -14.8 15.0 -14.8 14.9 -14.75 14.75 -14.7 14.65 -14.65 14.5 -14.6 14.4 -14.55 14.3 -14.5 14.15 -14.45 14.05 -14.4 13.95 -14.35 13.85 -14.3 13.75 -14.25 13.65 -14.2 13.55 -14.2 13.45 -14.15 13.35 -14.1 13.3 -14.05 13.2 -14.0 13.1 -13.95 13.0 -13.9 12.9 -13.85 12.8 -13.8 12.75 -13.75 12.65 -13.65 12.55 -13.6 12.45 -13.55 12.4 -13.5 12.3 -13.45 12.25 -13.4 12.15 -13.4 12.1 -13.35 12.0 -13.3 11.95 -13.25 11.85 -13.2 11.8 -13.15 11.7 -13.1 11.65 -13.05 11.6 -13.0 11.5 -12.95 11.45 -12.85 11.35 -12.8 11.3 -12.75 11.25 -12.7 11.2 -12.65 11.15 -12.6 11.05 -12.6 11.0 -12.55 10.95 -12.5 10.9 -12.45 10.85 -12.4 10.8 -12.35 10.75 -12.3 10.7 -12.25 10.65 -12.2 10.6 -12.15 10.55 -12.1 10.5 -12.05 10.45 -12.0 10.4 -11.95 10.35 -11.95 10.3 -11.9 10.3 -11.85 10.25 -11.8 10.2 -11.8 10.15 -11.75 10.1 -11.7 10.1 -11.65 10.05 -11.6 10.0 -11.6 9.95 -11.55 9.95 -11.5 9.9 -11.45 9.85 -11.4 9.8 -11.35 9.8 -11.3 9.75 -11.3 9.75 -11.25 9.7 -11.2 9.65 -11.15 9.65 -11.15 9.6 -11.1 9.55 -11.05 9.55 -11.0 9.5 -10.95 9.5 -10.95 9.45 -10.9 9.45 -10.85 9.4 -10.8 9.4 -10.75 9.35 -10.7 9.35 -10.45 9.2 -9.8 8.9 -9.75 8.85 -9.7 8.85 -9.6 8.8 -9.55 8.8 -9.5 8.75 -9.4 8.75 -9.35 8.7 -9.25 8.7 -9.2 8.65 -9.15 8.65 -9.05 8.6 -9.0 8.6 -8.9 8.55 -8.8 8.55 -8.75 8.5 -8.65 8.5 -8.6 8.45 -8.5 8.45 -8.45 8.4 -8.35 8.35 -8.25 8.35 -8.2 8.3 -8.1 8.25 -8.0 8.25 -7.95 8.2 -7.85 8.2 -7.75 8.15 -7.7 8.15 -7.6 8.1 -7.5 8.1 -7.4 8.05 -7.3 8.05 -6.7 7.8 -5.65 7.55 -4.95 7.3 -3.7 7.05 -3.1 6.85 -1.45 6.45 -0.95 6.3 1.1 5.8 1.25 5.75 1.7 5.65 2.15 5.5 2.5 5.45 2.6 5.4 2.75 5.4 2.85 5.35 2.95 5.3 3.05 5.3 3.15 5.25 3.2 5.25 3.3 5.2 3.4 5.2 3.5 5.15 3.55 5.15 3.65 5.15 3.7 5.1 3.75 5.1 3.85 5.1 3.9 5.1 4.45 4.9 5.25 4.75 5.6 4.65 6.6 4.35 6.9 4.25 7.3 4.15 7.9 3.95 8.0 3.95 8.45 3.75 9.4 3.45 9.9 3.25 10.9 2.85 11.1 2.75 11.7 2.5 12.2 2.3 12.5 2.2 13.25 1.8 13.65 1.7 14.05 1.45 14.65 1.2 15.0 1.0 15.55 0.75 15.8 0.6 16.35 0.3 16.5 0.2 16.7 0.1 16.95 -0.1 17.0 -0.1 17.1 -0.2 17.25 -0.3 17.4 -0.45 17.45 -0.5 17.5 -0.6 17.7 -0.85 17.7 -0.9 17.75 -0.95 17.75 -1.0 17.75 -1.05 17.75 -1.05 17.75 -1.1 17.75 -1.15 17.75 -1.2 17.75 -1.25 17.75 -1.25 L17.75 -1.25" fill="#fff020" fill-rule="evenodd" stroke="none"/>
  </g>
</svg>
