<?xml version="1.0" encoding="UTF-8" standalone="no"?>
<svg xmlns:xlink="http://www.w3.org/1999/xlink" height="18.95px" width="21.25px" xmlns="http://www.w3.org/2000/svg">
  <g transform="matrix(1.0, 0.0, 0.0, 1.0, 10.65, 9.45)">
    <path d="M-8.45 4.2 Q-8.6 4.6 -8.75 4.95 -8.9 5.25 -9.0 5.55 -9.05 5.8 -9.15 6.05 -9.2 6.25 -9.2 6.45 -9.25 6.6 -9.25 6.75 -9.25 6.9 -9.25 7.0 -9.25 7.1 -9.2 7.15 -9.15 7.2 -9.1 7.25 -9.05 7.3 -9.0 7.3 -8.95 7.3 -8.85 7.3 -8.8 7.3 -8.75 7.3 -8.65 7.3 -8.6 7.25 -8.55 7.25 -8.45 7.2 -8.4 7.2 -8.35 7.15 -8.3 7.1 -8.2 7.1 -8.2 7.05 -8.1 7.05 -7.9 6.95 -7.75 6.8 -7.6 6.7 -7.45 6.5 -7.35 6.4 -7.25 6.2 -7.15 6.1 -7.05 5.9 -7.0 5.8 -6.95 5.65 -6.9 5.5 -6.85 5.4 -6.8 5.25 -6.8 5.15 -6.8 5.1 -6.75 5.05 -7.3 4.75 -8.45 4.2 L-8.45 4.2" fill="#000000" fill-rule="evenodd" stroke="none"/>
  </g>
</svg>
