<?xml version="1.0" encoding="UTF-8" standalone="no"?>
<svg xmlns:xlink="http://www.w3.org/1999/xlink" height="4.8px" width="14.2px" xmlns="http://www.w3.org/2000/svg">
  <g transform="matrix(1.0, 0.0, 0.0, 1.0, 7.1, 2.4)">
    <path d="M1.25 -4.3 Q1.65 -4.3 2.05 -4.25 2.4 -4.2 2.75 -4.1 3.1 -4.05 3.45 -3.9 3.75 -3.8 4.05 -3.6 4.3 -3.45 4.6 -3.25 4.85 -3.05 5.1 -2.85 5.3 -2.6 5.55 -2.35 5.75 -2.05 5.95 -1.75 6.05 -1.6 6.15 -1.45 6.2 -1.3 6.3 -1.15 6.35 -1.0 6.45 -0.85 6.5 -0.7 6.6 -0.55 6.65 -0.4 6.7 -0.25 6.75 -0.1 6.85 0.05 6.9 0.25 6.95 0.4 7.0 0.55 7.05 0.7 7.15 0.9 7.3 1.35 7.45 1.8 7.55 2.0 7.55 2.0 7.55 2.05 7.55 2.1 7.6 2.1 7.6 2.15 7.6 2.2 7.6 2.2 7.6 2.25 7.6 2.3 7.6 2.3 7.55 2.35 7.55 2.35 7.55 2.4 7.55 2.4 7.5 2.45 7.45 2.45 7.4 2.5 7.4 2.5 7.35 2.55 7.3 2.55 7.3 2.55 7.25 2.6 7.2 2.6 7.15 2.6 7.1 2.6 7.1 2.6 7.05 2.6 7.0 2.6 6.95 2.6 6.9 2.6 6.85 2.6 6.85 2.55 6.8 2.55 6.75 2.5 6.75 2.5 6.7 2.45 6.65 2.45 6.65 2.4 6.6 2.35 6.6 2.3 6.55 2.25 6.45 1.85 6.45 1.85 6.4 1.7 6.4 1.6 6.35 1.5 5.75 -0.2 5.45 -0.8 5.35 -0.95 5.3 -1.1 5.2 -1.25 5.1 -1.4 5.0 -1.55 4.9 -1.65 4.8 -1.8 4.7 -1.9 4.6 -2.05 4.5 -2.15 4.35 -2.3 4.25 -2.4 4.1 -2.5 4.0 -2.6 3.85 -2.7 3.7 -2.8 3.5 -2.9 3.3 -3.0 3.1 -3.1 2.85 -3.2 2.65 -3.25 2.45 -3.3 2.2 -3.35 2.0 -3.35 1.8 -3.4 1.55 -3.4 1.35 -3.4 1.1 -3.35 0.9 -3.35 0.65 -3.3 0.45 -3.25 0.2 -3.2 -0.05 -3.15 -0.25 -3.05 -0.5 -2.95 -0.7 -2.85 -0.95 -2.75 -1.15 -2.65 -1.35 -2.55 -1.55 -2.4 -1.75 -2.3 -2.0 -2.15 -2.2 -2.0 -2.35 -1.85 -2.55 -1.75 -2.75 -1.55 -2.95 -1.4 -3.1 -1.25 -3.25 -1.1 -3.55 -0.85 -3.85 -0.6 -4.0 -0.45 -4.4 -0.1 -5.45 1.25 -5.5 1.3 -5.55 1.35 -5.6 1.4 -5.65 1.45 -5.7 1.5 -5.75 1.6 -5.8 1.65 -5.85 1.7 -5.9 1.75 -5.9 1.8 -5.95 1.85 -6.0 1.9 -6.05 1.95 -6.1 2.0 -6.2 2.05 -6.25 2.1 -6.3 2.15 -6.35 2.2 -6.35 2.25 -6.4 2.25 -6.45 2.3 -6.5 2.35 -6.55 2.35 -6.6 2.4 -6.65 2.45 -6.7 2.45 -6.75 2.45 -6.8 2.5 -6.9 2.5 -6.95 2.5 -7.0 2.5 -7.05 2.5 -7.1 2.5 -7.2 2.5 -7.25 2.45 -7.3 2.45 -7.35 2.4 -7.4 2.4 -7.45 2.35 -7.5 2.3 -7.5 2.25 -7.55 2.2 -7.55 2.15 -7.55 2.1 -7.6 2.0 -7.6 1.95 -7.6 1.9 -7.55 1.85 -7.55 1.8 -7.55 1.75 -7.5 1.7 -7.5 1.7 -7.5 1.65 -7.45 1.6 -7.45 1.55 -7.4 1.55 -7.4 1.5 -7.35 1.45 -7.35 1.45 -7.3 1.4 -7.3 1.35 -7.25 1.35 -7.25 1.3 -7.2 1.3 -6.95 1.05 -6.5 0.7 -6.0 0.3 -5.8 0.1 -5.7 0.05 -5.0 -0.65 -4.5 -1.1 -4.15 -1.4 -4.0 -1.55 -2.5 -2.8 -2.3 -3.0 -2.05 -3.15 -1.85 -3.3 -1.6 -3.45 -1.4 -3.55 -1.15 -3.65 -0.9 -3.8 -0.65 -3.85 -0.4 -3.95 -0.2 -4.05 0.05 -4.1 0.3 -4.15 0.55 -4.2 0.8 -4.25 1.0 -4.25 1.25 -4.3 L1.25 -4.3" fill="#000000" fill-rule="evenodd" stroke="none"/>
    <path d="M-1.25 0.5 Q-1.3 0.5 -1.35 0.5 -1.4 0.45 -1.45 0.45 -1.5 0.45 -1.5 0.4 -1.55 0.35 -1.55 0.35 -1.6 0.3 -1.6 0.25 -1.65 0.25 -1.65 0.2 -1.65 0.15 -1.65 0.1 -1.6 0.05 -1.6 0.0 -1.35 -0.55 -0.95 -1.2 -0.95 -1.25 -0.9 -1.3 -0.85 -1.35 -0.75 -1.35 -0.7 -1.35 -0.65 -1.35 -0.6 -1.35 -0.5 -1.3 -0.45 -1.3 -0.45 -1.25 -0.45 -1.25 -0.4 -1.25 -0.4 -1.2 -0.4 -1.2 -0.35 -1.15 -0.35 -1.1 -0.35 -1.1 -0.35 -1.05 -0.35 -1.05 -0.35 -1.0 -0.35 -0.95 -0.35 -0.9 -0.35 -0.9 -0.4 -0.85 -0.5 -0.65 -0.8 0.0 -0.85 0.1 -1.0 0.3 -1.0 0.35 -1.05 0.4 -1.05 0.4 -1.1 0.45 -1.15 0.45 -1.2 0.5 -1.25 0.5 -1.25 0.5 L-1.25 0.5" fill="#000000" fill-rule="evenodd" stroke="none"/>
    <path d="M3.25 0.2 Q3.2 0.2 3.15 0.2 3.1 0.2 3.05 0.15 3.05 0.15 3.0 0.1 2.95 0.05 2.95 0.0 2.75 -0.5 2.65 -0.85 2.65 -0.9 2.65 -0.95 2.6 -0.95 2.6 -1.0 2.65 -1.05 2.65 -1.1 2.65 -1.1 2.65 -1.15 2.7 -1.2 2.7 -1.2 2.7 -1.25 2.75 -1.25 2.8 -1.25 2.8 -1.3 2.85 -1.3 2.9 -1.3 2.95 -1.3 2.95 -1.3 3.0 -1.3 3.05 -1.3 3.05 -1.3 3.1 -1.3 3.1 -1.3 3.15 -1.25 3.15 -1.25 3.2 -1.2 3.2 -1.2 3.25 -1.15 3.25 -1.15 3.25 -1.1 3.3 -1.05 3.3 -1.0 3.35 -0.85 3.45 -0.65 3.55 -0.3 3.55 -0.3 3.55 -0.25 3.6 -0.2 3.6 -0.15 3.6 -0.1 3.6 -0.05 3.6 -0.05 3.55 0.0 3.55 0.05 3.5 0.1 3.5 0.1 3.45 0.15 3.45 0.15 3.4 0.2 3.35 0.2 3.3 0.2 3.25 0.2 L3.25 0.2" fill="#000000" fill-rule="evenodd" stroke="none"/>
    <path d="M0.45 -0.25 Q0.45 -0.3 0.45 -0.3 0.45 -0.35 0.45 -0.4 0.45 -0.45 0.45 -0.5 0.5 -0.55 0.5 -0.6 0.5 -0.6 0.5 -0.65 0.5 -0.7 0.55 -0.7 0.55 -0.75 0.55 -0.8 0.6 -0.8 0.6 -0.85 0.65 -0.85 0.65 -0.85 0.7 -0.9 0.7 -0.9 0.75 -0.9 0.8 -0.9 0.8 -0.9 0.85 -0.9 0.9 -0.9 0.9 -0.9 0.95 -0.9 0.95 -0.9 1.0 -0.85 1.05 -0.85 1.05 -0.85 1.1 -0.8 1.1 -0.8 1.1 -0.75 1.15 -0.75 1.15 -0.7 1.15 -0.65 1.15 -0.65 1.2 -0.6 1.2 -0.55 1.2 -0.55 1.15 -0.5 1.15 -0.45 1.15 -0.4 1.15 -0.35 1.15 -0.3 1.15 -0.25 1.1 -0.2 1.1 -0.15 1.1 -0.1 1.1 0.0 1.0 0.05 0.95 0.1 0.9 0.15 0.8 0.15 0.75 0.15 0.7 0.15 0.7 0.15 0.65 0.15 0.6 0.1 0.6 0.1 0.55 0.1 0.55 0.05 0.5 0.05 0.5 0.0 0.45 0.0 0.45 -0.05 0.45 -0.1 0.45 -0.15 0.45 -0.15 0.4 -0.2 0.45 -0.25 L0.45 -0.25" fill="#000000" fill-rule="evenodd" stroke="none"/>
  </g>
</svg>
