<?xml version="1.0" encoding="UTF-8" standalone="no"?>
<svg xmlns:xlink="http://www.w3.org/1999/xlink" height="11.65px" width="22.5px" xmlns="http://www.w3.org/2000/svg">
  <g transform="matrix(1.0, 0.0, 0.0, 1.0, 11.25, 5.85)">
    <path d="M1.25 0.95 Q1.1 0.95 0.95 0.95 0.85 0.95 0.7 0.9 0.55 0.9 0.45 0.85 0.3 0.85 0.2 0.8 0.1 0.8 -0.05 0.75 -0.15 0.75 -0.25 0.7 -0.4 0.65 -0.5 0.6 -0.6 0.55 -0.7 0.5 -0.75 0.5 -0.8 0.45 -0.85 0.45 -0.9 0.4 -1.0 0.4 -1.05 0.4 -1.1 0.4 -1.15 0.4 -1.2 0.35 -1.25 0.35 -1.3 0.35 -1.35 0.35 -1.4 0.35 -1.45 0.35 -1.5 0.35 -1.6 0.35 -1.65 0.35 -1.7 0.4 -1.7 0.4 -1.75 0.45 -1.75 0.45 -1.8 0.5 -1.8 0.55 -1.8 0.6 -1.85 0.65 -1.85 0.7 -1.85 0.8 -1.85 0.95 -1.85 1.05 -1.85 1.15 -1.9 1.25 -1.9 1.4 -1.9 1.5 -1.9 1.6 -1.95 1.7 -1.95 1.85 -1.95 1.95 -2.0 2.05 -2.0 2.15 -2.05 2.3 -2.1 2.4 -2.1 2.5 -2.15 2.6 -2.15 2.7 -2.2 2.75 -2.2 2.85 -2.25 2.95 -2.25 3.05 -2.3 3.1 -2.35 3.2 -2.35 3.3 -2.4 3.4 -2.45 3.5 -2.45 3.55 -2.5 3.65 -2.5 3.75 -2.55 3.85 -2.6 3.9 -2.65 4.0 -2.65 4.05 -2.7 4.1 -2.75 4.15 -2.8 4.2 -2.85 4.25 -2.9 4.3 -3.0 4.3 -3.05 4.3 -3.1 4.35 -3.15 4.35 -3.25 4.3 -3.3 4.3 -3.35 4.25 -3.4 4.25 -3.45 4.2 -3.5 4.15 -3.5 4.15 -3.55 4.1 -3.6 4.05 -3.6 4.0 -3.65 3.95 -3.65 3.9 -3.65 3.85 -3.65 3.75 -3.65 3.7 -3.65 3.65 -3.65 3.6 -3.65 3.55 -3.6 3.5 -3.6 3.45 -3.55 3.4 -3.45 3.3 -3.4 3.2 -3.35 3.15 -3.25 3.05 -3.2 2.95 -3.15 2.85 -3.1 2.75 -3.05 2.6 -3.0 2.5 -3.0 2.4 -2.95 2.3 -2.9 2.2 -2.9 2.05 -2.85 1.95 -2.85 1.85 -2.8 1.7 -2.8 1.6 -2.75 1.5 -2.75 1.4 -2.75 1.3 -2.75 1.2 -2.75 1.1 -2.75 1.0 -2.75 0.85 -2.75 0.75 -2.75 0.65 -2.75 0.55 -2.75 0.45 -2.75 0.35 -2.75 0.25 -2.8 0.15 -2.8 0.05 -2.85 -0.65 -2.9 -1.1 -2.9 -1.2 -2.95 -1.3 -2.95 -1.45 -2.95 -1.55 -3.0 -1.65 -3.0 -1.75 -3.05 -1.85 -3.05 -1.95 -3.1 -2.1 -3.1 -2.2 -3.15 -2.3 -3.2 -2.4 -3.2 -2.5 -3.25 -2.6 -3.3 -2.7 -3.3 -2.85 -3.35 -2.9 -3.35 -2.95 -3.4 -3.0 -3.45 -3.05 -3.45 -3.1 -3.5 -3.15 -3.55 -3.2 -3.6 -3.25 -3.6 -3.3 -3.65 -3.35 -3.7 -3.4 -3.75 -3.4 -3.8 -3.45 -3.85 -3.5 -3.85 -3.55 -3.9 -3.6 -3.95 -3.65 -4.0 -3.65 -4.05 -3.7 -4.05 -3.75 -4.1 -3.8 -4.15 -3.8 -4.2 -3.85 -4.25 -3.9 -4.3 -3.95 -4.3 -3.95 -4.35 -4.0 -4.4 -4.05 -4.45 -4.1 -4.5 -4.1 -4.5 -4.15 -4.55 -4.2 -4.6 -4.25 -4.6 -4.25 -4.65 -4.3 -4.65 -4.3 -4.7 -4.35 -4.7 -4.4 -4.7 -4.4 -4.75 -4.45 -4.75 -4.5 -4.75 -4.5 -4.8 -4.55 -4.8 -4.6 -4.8 -4.6 -4.8 -4.65 -4.8 -4.7 -4.85 -4.75 -4.85 -4.8 -4.85 -4.85 -4.85 -4.9 -4.85 -4.9 -4.85 -4.95 -4.85 -5.0 -4.85 -5.05 -4.8 -5.1 -4.8 -5.15 -4.8 -5.15 -4.75 -5.2 -4.75 -5.25 -4.75 -5.25 -4.7 -5.3 -4.65 -5.35 -4.65 -5.35 -4.6 -5.4 -4.6 -5.4 -4.55 -5.45 -4.5 -5.45 -4.45 -5.5 -4.45 -5.5 -4.4 -5.5 -4.35 -5.55 -4.3 -5.55 -4.3 -5.55 -4.25 -5.55 -4.2 -5.55 -4.15 -5.55 -4.15 -5.55 -4.1 -5.55 -4.05 -5.5 -4.0 -5.5 -3.9 -5.45 -3.85 -5.4 -3.8 -5.4 -3.7 -5.35 -3.65 -5.3 -3.6 -5.25 -3.55 -5.25 -3.5 -5.2 -3.45 -5.15 -3.4 -5.1 -3.35 -5.05 -3.3 -4.95 -3.25 -4.9 -3.2 -4.85 -3.2 -4.8 -3.15 -4.7 -3.1 -4.65 -3.05 -4.55 -2.95 -4.45 -2.9 -4.4 -2.85 -4.3 -2.8 -4.2 -2.75 -4.15 -2.7 -4.05 -2.65 -3.95 -2.65 -3.9 -2.6 -3.8 -2.55 -3.7 -2.5 -3.6 -2.45 -3.5 -2.45 -3.4 -2.35 -3.15 -2.25 -2.7 -2.1 -2.25 -2.05 -2.0 -1.95 -1.8 -1.7 -1.4 -1.65 -1.35 -1.6 -1.25 -1.55 -1.2 -1.5 -1.15 -1.45 -1.1 -1.4 -1.05 -1.3 -1.0 -1.25 -0.95 -1.2 -0.9 -1.1 -0.9 -1.05 -0.85 -1.0 -0.8 -0.9 -0.8 -0.85 -0.75 -0.75 -0.7 -0.7 -0.7 -0.55 -0.65 -0.4 -0.6 -0.25 -0.55 -0.15 -0.55 0.0 -0.5 0.15 -0.45 0.3 -0.45 0.45 -0.4 0.6 -0.4 0.75 -0.35 0.9 -0.35 1.05 -0.35 1.2 -0.35 1.3 -0.35 1.45 -0.35 1.6 -0.35 1.65 -0.35 1.7 -0.35 1.75 -0.35 1.85 -0.4 1.9 -0.4 1.95 -0.4 2.0 -0.4 2.05 -0.45 2.1 -0.45 2.15 -0.5 2.2 -0.5 2.25 -0.5 2.3 -0.55 2.35 -0.55 2.4 -0.6 2.45 -0.6 3.9 -1.5 4.0 -1.55 4.1 -1.6 4.15 -1.7 4.25 -1.75 4.3 -1.8 4.4 -1.9 4.45 -1.95 4.55 -2.05 4.6 -2.15 4.65 -2.2 4.7 -2.3 4.8 -2.4 4.85 -2.45 4.9 -2.55 4.95 -2.65 5.0 -2.75 5.05 -2.85 5.1 -2.9 5.2 -3.05 5.25 -3.2 5.3 -3.25 5.35 -3.3 5.4 -3.35 5.45 -3.4 5.5 -3.45 5.55 -3.5 5.6 -3.5 5.65 -3.55 5.75 -3.55 5.8 -3.6 5.85 -3.6 5.9 -3.6 5.95 -3.6 6.05 -3.6 6.1 -3.55 6.15 -3.55 6.2 -3.5 6.25 -3.5 6.3 -3.45 6.3 -3.4 6.35 -3.4 6.4 -3.35 6.4 -3.35 6.45 -3.3 6.45 -3.25 6.5 -3.2 6.5 -3.15 6.5 -3.1 6.55 -3.1 6.55 -3.05 6.55 -3.0 6.55 -2.95 6.55 -2.85 6.55 -2.8 6.55 -2.75 6.5 -2.7 6.5 -2.65 6.5 -2.6 6.45 -2.55 6.45 -2.5 6.4 -2.45 6.4 -2.45 6.35 -2.4 6.35 -2.35 6.3 -2.3 6.25 -2.25 6.25 -2.25 6.2 -2.2 6.15 -2.2 6.05 -2.15 6.0 -2.1 5.9 -2.05 5.85 -2.0 5.75 -1.9 5.7 -1.85 5.6 -1.8 5.55 -1.75 5.45 -1.65 5.4 -1.6 5.3 -1.55 5.25 -1.45 5.2 -1.4 5.15 -1.3 5.05 -1.25 5.0 -1.15 4.9 -1.05 4.8 -0.95 4.7 -0.85 4.6 -0.75 4.5 -0.65 4.4 -0.55 4.3 -0.45 4.2 -0.35 4.1 -0.25 4.0 -0.2 3.85 -0.1 3.75 0.0 3.65 0.05 3.5 0.15 3.4 0.2 3.3 0.3 3.25 0.35 3.15 0.4 3.05 0.45 3.0 0.45 2.9 0.5 2.85 0.55 2.8 0.6 2.7 0.6 2.65 0.65 2.55 0.7 2.5 0.7 2.4 0.75 2.3 0.8 2.25 0.8 2.15 0.8 2.1 0.85 1.9 0.85 1.65 0.9 1.35 0.95 1.25 0.95 L1.25 0.95" fill="#000000" fill-rule="evenodd" stroke="none"/>
  </g>
</svg>
