<?xml version="1.0" encoding="UTF-8" standalone="no"?>
<svg xmlns:xlink="http://www.w3.org/1999/xlink" height="8.95px" width="8.05px" xmlns="http://www.w3.org/2000/svg">
  <g transform="matrix(1.0, 0.0, 0.0, 1.0, 4.0, 4.5)">
    <path d="M-1.65 1.15 Q-1.85 1.05 -2.05 0.95 -2.2 0.85 -2.4 0.8 -2.55 0.7 -2.75 0.6 -2.9 0.55 -3.05 0.45 -3.2 0.4 -3.35 0.3 -3.5 0.25 -3.6 0.15 -3.75 0.1 -3.85 0.05 -3.95 0.0 -4.05 -0.05 -6.1 -0.9 -6.45 -1.0 -6.55 -1.05 -6.6 -1.05 -6.7 -1.1 -6.8 -1.1 -6.85 -1.15 -6.95 -1.15 -7.05 -1.15 -7.15 -1.2 -7.2 -1.2 -7.3 -1.2 -7.4 -1.2 -7.45 -1.2 -7.55 -1.15 -7.6 -1.15 -7.7 -1.1 -7.75 -1.05 -7.75 -1.05 -7.75 -1.05 -7.8 -1.05 -7.8 -1.0 -7.8 -1.0 -7.85 -0.95 -7.85 -0.95 -7.9 -0.9 -7.9 -0.9 -7.9 -0.85 -7.95 -0.8 -7.95 -0.8 -7.95 -0.75 -8.0 -0.7 -8.0 -0.65 -8.0 -0.6 -8.0 -0.6 -8.0 -0.55 -8.0 -0.55 -7.95 -0.5 -7.95 -0.5 -7.95 -0.5 -7.95 -0.45 -7.9 -0.45 -7.9 -0.4 -7.85 -0.35 -7.8 -0.35 -7.75 -0.3 -7.75 -0.25 -7.65 -0.2 -7.6 -0.15 -7.55 -0.1 -7.25 0.1 -6.9 0.3 -6.85 0.35 -6.75 0.35 -6.7 0.4 -6.6 0.45 -6.55 0.5 -6.45 0.55 -6.35 0.6 -6.25 0.65 -6.15 0.65 -6.05 0.7 -5.9 0.75 -5.8 0.8 -5.7 0.85 -5.55 0.9 -5.4 0.9 -5.3 0.95 -5.05 1.0 -4.7 1.05 -4.45 1.1 -4.15 1.15 -3.85 1.2 -3.55 1.2 -3.3 1.2 -3.05 1.2 -2.8 1.2 -2.55 1.2 -2.35 1.2 -2.15 1.2 -2.0 1.2 -1.85 1.2 -1.75 1.2 -1.65 1.15 L-1.65 1.15" fill="#ec839a" fill-rule="evenodd" stroke="none"/>
  </g>
</svg>
