<?xml version="1.0" encoding="UTF-8" standalone="no"?>
<svg xmlns:xlink="http://www.w3.org/1999/xlink" height="7.7px" width="15.65px" xmlns="http://www.w3.org/2000/svg">
  <g transform="matrix(1.0, 0.0, 0.0, 1.0, 7.8, 3.85)">
    <path d="M-4.4 -1.8 Q-4.45 -1.8 -4.5 -1.8 -4.55 -1.8 -4.55 -1.8 -4.6 -1.75 -4.65 -1.75 -4.7 -1.75 -4.75 -1.7 -4.8 -1.7 -4.8 -1.65 -4.85 -1.65 -4.9 -1.6 -4.9 -1.6 -4.95 -1.55 -4.95 -1.55 -4.95 -1.5 -4.95 -1.45 -4.95 -1.45 -5.0 -1.4 -5.0 -1.4 -5.0 -1.4 -4.95 -1.35 -4.95 -1.3 -4.95 -1.25 -4.95 -1.2 -5.0 -1.15 -5.0 -1.1 -5.1 -0.8 -5.15 -0.4 -5.15 -0.35 -5.15 -0.3 -5.15 -0.3 -5.15 -0.25 -5.15 -0.25 -5.15 -0.2 -5.15 -0.2 -5.15 -0.15 -5.15 -0.15 -5.1 0.0 -5.1 -0.05 -5.1 -0.05 -5.1 0.0 -5.1 0.05 -5.1 0.05 -5.05 0.1 -5.05 0.15 -5.05 0.2 -5.05 0.25 -5.05 0.3 -5.05 0.35 -5.05 0.4 -5.05 0.4 -5.05 0.4 -5.05 0.45 -5.05 0.45 -5.05 0.5 -5.05 0.5 -5.05 0.55 -5.05 0.55 -5.05 0.6 -5.0 0.65 -5.0 0.7 -5.0 0.75 -5.0 0.75 -4.95 0.8 -4.95 0.85 -4.9 0.9 -4.9 0.95 -4.85 1.0 -4.8 1.0 -4.75 1.05 -4.7 1.05 -4.65 1.1 -4.6 1.1 -4.6 1.1 -4.5 1.1 -4.5 1.1 -4.4 1.05 -4.35 1.05 -4.25 1.05 -4.2 1.05 -4.15 1.0 -4.1 1.0 -4.05 1.0 -4.0 1.0 -4.0 1.0 -3.95 0.95 -3.9 0.95 -3.9 0.95 -3.85 0.95 -3.85 0.95 -3.8 0.95 -3.8 0.95 -3.75 0.95 -3.7 0.95 -3.65 0.95 -3.65 1.0 -3.6 1.0 -3.55 1.05 -3.5 1.05 -3.5 1.1 -3.45 1.1 -3.4 1.15 -3.4 1.2 -3.35 1.2 -3.35 1.25 -3.3 1.3 -3.25 1.35 -3.25 1.35 -3.2 1.45 -3.15 1.5 -3.1 1.6 -3.1 1.65 -3.05 1.7 -3.05 1.75 -3.0 1.8 -3.0 1.9 -3.0 1.9 -2.95 1.95 -2.95 2.0 -2.95 2.0 -2.9 2.05 -2.9 2.05 -2.85 2.1 -2.85 2.1 -2.8 2.1 -2.8 2.1 -2.45 2.05 -2.45 2.05 -2.35 2.05 -2.35 2.05 -2.3 2.05 -2.25 2.05 -2.25 2.05 -2.2 2.05 -2.15 2.05 -2.15 2.05 -2.1 2.05 -2.05 2.05 -2.05 2.05 -2.0 2.05 -1.95 2.05 -1.95 2.05 -1.9 2.05 -1.85 2.05 -1.8 2.1 -1.75 2.1 -1.75 2.1 -1.7 2.15 -1.65 2.15 -1.6 2.2 -1.55 2.25 -1.5 2.3 -1.45 2.3 -1.4 2.35 -1.4 2.35 -1.35 2.4 -1.35 2.4 -1.3 2.4 -1.3 2.45 -1.15 2.55 -1.25 2.5 -1.2 2.5 -1.2 2.5 -1.15 2.55 -1.15 2.55 -1.1 2.55 -1.1 2.6 -1.05 2.6 -1.05 2.65 -1.0 2.65 -0.95 2.65 -0.95 2.65 -0.9 2.65 -0.85 2.65 -0.8 2.7 -0.75 2.7 -0.7 2.7 -0.65 2.7 -0.6 2.7 -0.55 2.7 -0.5 2.7 -0.45 2.7 -0.35 2.7 -0.25 2.7 -0.2 2.7 -0.15 2.7 -0.05 2.7 0.0 2.7 0.05 2.7 0.15 2.7 0.2 2.7 0.3 2.65 0.35 2.65 0.4 2.65 0.5 2.6 0.55 2.6 0.6 2.55 0.7 2.55 0.75 2.5 0.8 2.45 0.85 2.45 0.9 2.4 0.95 2.35 1.0 2.35 1.05 2.3 1.1 2.25 1.15 2.25 1.15 2.2 1.2 2.15 1.25 2.15 1.25 2.15 1.3 2.1 1.35 2.1 1.4 2.1 1.45 2.1 1.45 2.1 1.5 2.1 1.5 2.1 1.55 2.1 1.6 2.15 1.6 2.15 1.65 2.15 1.65 2.15 1.7 2.2 1.75 2.2 1.75 2.2 1.8 2.2 1.8 2.25 1.85 2.25 1.9 2.25 1.9 2.25 1.95 2.3 1.95 2.3 2.0 2.3 2.05 2.35 2.05 2.35 2.1 2.35 2.15 2.4 2.15 2.4 2.2 2.4 2.25 2.4 2.3 2.45 2.3 2.45 2.35 2.45 2.4 2.45 2.45 2.45 2.5 2.4 2.5 2.4 2.75 2.1 2.75 2.1 2.75 2.05 2.8 2.05 2.8 2.0 2.85 2.0 2.85 1.95 2.9 1.95 2.95 1.9 2.95 1.85 3.0 1.85 3.05 1.8 3.1 1.8 3.15 1.75 3.2 1.75 3.25 1.75 3.3 1.75 3.3 1.75 3.35 1.75 3.35 1.75 3.4 1.75 3.4 1.75 3.4 1.8 3.4 1.8 3.45 1.8 3.5 1.8 3.5 1.85 3.5 1.85 3.55 1.85 3.6 1.85 3.6 1.85 3.65 1.9 3.7 1.9 3.7 1.9 3.75 1.9 3.85 1.9 3.85 1.9 3.9 1.9 3.95 1.9 4.0 1.9 4.1 1.9 4.15 1.85 4.25 1.85 4.3 1.8 4.35 1.8 4.35 1.75 4.4 1.75 4.45 1.7 4.45 1.7 4.5 1.65 4.5 1.65 4.55 1.6 4.55 1.6 4.55 1.55 4.6 1.55 4.6 1.5 4.6 1.5 4.65 1.5 4.9 1.05 4.9 1.1 5.05 0.8 5.05 0.65 5.1 0.65 5.15 0.6 5.15 0.6 5.2 0.6 5.25 0.6 5.3 0.6 5.4 0.65 5.45 0.65 5.5 0.65 5.55 0.7 5.65 0.65 5.65 0.65 5.7 0.65 5.75 0.65 5.75 0.6 5.8 0.6 5.85 0.55 5.85 0.5 5.85 0.45 5.85 0.4 5.85 0.4 5.85 0.35 5.8 0.3 5.8 0.25 5.8 0.25 5.75 0.15 5.5 -0.1 5.45 -0.15 5.45 -0.15 5.4 -0.2 5.4 -0.25 5.35 -0.25 5.35 -0.3 5.35 -0.3 5.3 -0.35 5.3 -0.4 5.3 -0.45 5.3 -0.45 5.25 -0.5 5.25 -0.55 5.2 -0.6 5.2 -0.65 5.15 -0.7 5.15 -0.7 5.1 -0.75 5.05 -0.8 5.05 -0.8 5.0 -0.8 5.0 -0.85 4.95 -0.9 4.95 -0.9 4.9 -0.95 4.85 -0.95 4.85 -1.0 4.8 -1.0 4.75 -1.0 4.7 -1.05 4.65 -1.05 4.6 -1.05 4.55 -1.05 4.5 -1.05 4.45 -1.05 4.4 -1.05 4.35 -1.05 4.3 -1.05 4.25 -1.05 4.2 -1.0 4.15 -1.0 4.15 -1.0 4.1 -1.0 4.1 -0.95 4.05 -0.95 4.05 -0.95 4.05 -0.95 4.0 -0.95 3.95 -0.9 3.95 -0.9 3.9 -0.85 3.85 -0.8 3.85 -0.8 3.8 -0.75 3.8 -0.7 3.8 -0.7 3.75 -0.65 3.75 -0.65 3.7 -0.6 3.7 -0.6 3.65 -0.55 3.65 -0.55 3.6 -0.55 3.55 -0.55 3.5 -0.55 3.45 -0.55 3.45 -0.55 3.4 -0.55 3.35 -0.55 3.35 -0.6 3.3 -0.6 3.3 -0.6 3.25 -0.65 3.2 -0.65 3.2 -0.7 3.15 -0.7 3.15 -0.75 3.1 -0.75 3.15 -0.75 3.1 -0.8 3.05 -0.85 3.05 -0.85 3.05 -0.9 3.0 -0.9 3.0 -0.9 2.95 -0.95 2.9 -0.95 2.85 -0.95 2.85 -0.95 2.85 -0.95 2.8 -0.95 2.8 -0.95 2.75 -0.9 2.75 -0.9 2.7 -0.9 2.65 -0.85 2.6 -0.85 2.55 -0.85 2.5 -0.85 2.45 -0.85 2.4 -0.85 2.35 -0.9 2.35 -0.9 2.3 -0.95 2.25 -0.95 2.25 -0.95 2.2 -1.0 2.15 -1.0 2.15 -1.05 2.1 -1.05 2.05 -1.05 2.05 -1.05 2.0 -1.05 1.95 -1.05 1.95 -1.05 1.9 -1.05 1.9 -1.05 1.9 -1.05 1.9 -1.0 1.9 -1.0 1.9 -1.0 1.85 -1.0 1.85 -0.95 1.85 -0.95 1.8 -0.95 1.8 -0.95 1.8 -0.9 1.75 -0.9 1.75 -0.9 1.7 -0.85 1.65 -0.8 1.6 -0.8 1.6 -0.8 1.55 -0.75 1.5 -0.75 1.5 -0.7 1.45 -0.7 1.4 -0.7 1.4 -0.65 1.35 -0.65 1.35 -0.65 1.3 -0.65 1.3 -0.65 1.3 -0.6 1.25 -0.6 1.2 -0.6 1.15 -0.55 1.1 -0.55 1.05 -0.55 1.0 -0.6 0.95 -0.6 0.9 -0.6 0.85 -0.6 0.8 -0.6 0.75 -0.6 0.7 -0.65 0.65 -0.65 0.65 -0.65 0.6 -0.65 0.55 -0.7 0.45 -0.7 0.4 -0.75 0.3 -0.8 0.25 -0.8 0.2 -0.85 0.1 -0.9 0.1 -0.9 0.0 -0.95 -0.05 -0.95 -0.05 -1.0 -0.1 -1.0 -0.15 -1.05 -0.2 -1.05 -0.25 -1.05 -0.3 -1.05 -0.35 -1.05 -0.4 -1.05 -0.4 -1.05 -0.4 -1.05 -0.45 -1.05 -0.45 -1.0 -0.5 -1.0 -0.55 -1.0 -0.55 -1.0 -0.55 -1.0 -0.55 -1.0 -0.6 -1.0 -0.6 -1.0 -0.65 -0.95 -0.7 -0.95 -0.7 -0.95 -0.75 -0.95 -0.75 -0.95 -0.8 -0.95 -0.8 -0.95 -0.8 -0.95 -0.85 -0.95 -0.85 -0.95 -0.9 -0.95 -0.9 -0.95 -0.95 -0.95 -1.0 -0.95 -1.0 -0.95 -1.05 -0.95 -1.1 -0.95 -1.1 -0.95 -1.15 -0.95 -1.2 -1.0 -1.25 -1.0 -1.3 -1.0 -1.35 -1.0 -1.35 -1.05 -1.45 -1.05 -1.45 -1.05 -1.45 -1.05 -1.5 -1.1 -1.55 -1.1 -1.6 -1.1 -1.6 -1.1 -1.65 -1.1 -1.7 -1.1 -1.75 -1.1 -1.8 -1.1 -1.8 -1.1 -1.85 -1.1 -1.9 -1.05 -1.95 -1.05 -2.0 -1.05 -2.0 -1.05 -2.05 -1.0 -2.1 -1.0 -2.15 -1.0 -2.25 -0.95 -2.3 -0.95 -2.35 -0.9 -2.4 -0.9 -2.45 -0.9 -2.5 -0.85 -2.5 -0.85 -2.55 -0.8 -2.6 -0.8 -2.65 -0.8 -2.65 -0.75 -2.7 -0.75 -2.7 -0.75 -2.75 -0.75 -2.75 -0.75 -2.8 -0.75 -2.85 -0.75 -2.85 -0.75 -2.9 -0.75 -2.9 -0.8 -2.95 -0.8 -2.95 -0.8 -3.0 -0.8 -3.05 -0.85 -3.05 -0.85 -3.1 -0.9 -3.15 -0.9 -3.15 -0.95 -3.2 -0.95 -3.25 -1.0 -3.25 -1.0 -3.35 -1.05 -3.4 -1.1 -3.45 -1.15 -3.5 -1.15 -3.5 -1.2 -3.55 -1.25 -3.55 -1.25 -3.65 -1.3 -3.65 -1.3 -3.65 -1.35 -3.7 -1.35 -3.7 -1.4 -3.75 -1.4 -3.75 -1.45 -3.8 -1.5 -3.85 -1.5 -3.9 -1.55 -4.0 -1.6 -4.0 -1.65 -4.1 -1.65 -4.1 -1.7 -4.15 -1.7 -4.2 -1.75 -4.25 -1.75 -4.3 -1.75 -4.35 -1.8 -4.4 -1.8 L-4.4 -1.8" fill="#ec839a" fill-rule="evenodd" stroke="none"/>
  </g>
</svg>
