<?xml version="1.0" encoding="UTF-8" standalone="no"?>
<svg xmlns:xlink="http://www.w3.org/1999/xlink" height="5.9px" width="8.85px" xmlns="http://www.w3.org/2000/svg">
  <g transform="matrix(1.0, 0.0, 0.0, 1.0, 4.4, 2.95)">
    <path d="M2.5 -1.95 Q2.45 -1.95 2.35 -2.0 2.3 -2.0 2.25 -2.05 2.15 -2.05 2.05 -2.1 2.0 -2.1 1.9 -2.15 1.8 -2.15 1.7 -2.2 1.6 -2.2 1.5 -2.2 1.4 -2.25 1.3 -2.25 1.2 -2.25 1.05 -2.25 0.9 -2.25 0.75 -2.3 0.6 -2.3 0.5 -2.3 0.35 -2.3 0.2 -2.3 0.1 -2.35 -0.05 -2.3 -0.2 -2.3 -0.35 -2.3 -0.5 -2.3 -0.6 -2.25 -0.75 -2.2 -0.9 -2.15 -1.05 -2.1 -1.2 -2.05 -1.35 -1.95 -1.5 -1.85 -1.65 -1.8 -1.8 -1.7 -1.9 -1.6 -2.0 -1.45 -2.15 -1.35 -2.2 -1.25 -2.3 -1.15 -2.4 -1.05 -2.45 -0.95 -2.5 -0.9 -2.55 -0.8 -2.6 -0.7 -2.65 -0.65 -2.7 -0.6 -2.8 -0.45 -2.8 -0.4 -2.85 -0.3 -2.9 -0.2 -2.95 -0.1 -3.0 0.0 -3.05 0.15 -3.1 0.25 -3.15 0.35 -3.15 0.5 -3.2 0.6 -3.2 0.75 -3.2 0.9 -3.2 1.0 -3.15 1.15 -3.15 1.3 -3.1 1.45 -3.05 1.55 -3.0 1.7 -2.9 1.8 -2.85 1.9 -2.75 2.0 -2.7 2.1 -2.6 2.15 -2.55 2.25 -2.45 2.3 -2.4 2.35 -2.3 2.4 -2.25 2.45 -2.2 2.45 -2.15 2.5 -2.1 2.5 -1.95 2.6 -1.8 2.65 -1.65 2.7 -1.5 2.75 -1.35 2.8 -1.2 2.8 -1.05 2.8 -0.85 2.8 -0.7 2.8 -0.55 2.8 -0.35 2.8 -0.2 2.75 0.0 2.75 0.2 2.7 0.3 2.65 0.6 2.6 0.7 2.6 0.8 2.55 0.9 2.55 0.95 2.55 1.05 2.5 1.1 2.5 1.2 2.45 1.25 2.45 1.35 2.4 1.4 2.4 1.5 2.35 1.55 2.35 1.6 2.3 1.65 2.25 1.75 2.25 1.8 2.2 1.85 2.15 1.9 2.15 1.95 2.1 2.0 2.1 2.05 2.05 2.1 2.0 2.2 1.95 2.25 1.95 2.3 1.9 2.35 1.85 2.4 1.8 2.45 1.75 2.5 1.7 2.55 1.65 2.6 1.6 2.65 1.5 2.7 1.4 2.75 1.35 2.8 1.25 2.8 1.15 2.85 1.1 2.85 1.0 2.85 0.9 2.85 0.8 2.9 0.7 2.9 0.6 2.9 0.5 2.9 0.4 2.9 0.25 2.85 0.15 2.85 0.05 2.85 -0.15 2.85 -0.25 2.85 -0.3 2.85 -0.4 2.8 -0.5 2.8 -0.6 2.8 -0.7 2.8 -0.8 2.75 -0.95 2.75 -1.05 2.7 -1.15 2.7 -1.3 2.65 -1.4 2.65 -1.55 2.6 -1.7 2.55 -1.85 2.5 -1.95 L2.5 -1.95" fill="#ec839a" fill-rule="evenodd" stroke="none"/>
  </g>
</svg>
