<?xml version="1.0" encoding="UTF-8" standalone="no"?>
<svg xmlns:xlink="http://www.w3.org/1999/xlink" height="200.0px" width="200.0px" xmlns="http://www.w3.org/2000/svg">
  <g transform="matrix(1.0, 0.0, 0.0, 1.0, 100.0, 100.0)">
    <path d="M2.1 3.95 Q2.05 3.95 2.05 4.0 2.0 4.0 2.0 4.0 1.95 4.0 1.95 4.05 1.9 4.05 1.85 4.05 1.85 4.05 1.8 4.05 1.8 4.05 1.75 4.05 1.75 4.05 1.7 4.05 1.65 4.0 1.65 4.0 1.2 3.95 0.2 3.65 0.1 3.6 -0.35 3.45 -0.75 3.35 -0.95 3.25 -1.45 3.1 -2.15 2.8 -2.25 2.75 -2.3 2.75 -2.4 2.7 -2.45 2.7 -2.55 2.65 -2.6 2.65 -2.7 2.6 -2.75 2.6 -2.85 2.55 -2.9 2.5 -3.0 2.5 -3.05 2.45 -3.15 2.4 -3.2 2.4 -3.3 2.35 -3.35 2.35 -4.2 1.95 -4.6 1.75 -5.95 1.05 -6.0 1.05 -7.4 0.2 -7.6 0.1 -7.75 0.0 -8.0 -0.2 -8.05 -0.25 -8.05 -0.25 -8.1 -0.3 -8.1 -0.35 -8.15 -0.4 -8.15 -0.4 -8.15 -0.45 -8.15 -0.5 -8.15 -0.55 -8.15 -0.6 -8.15 -0.6 -8.15 -0.65 -8.15 -0.7 -8.15 -0.75 -8.15 -0.75 -8.15 -0.8 -8.15 -0.85 -8.15 -0.9 -8.15 -0.9 -8.15 -0.95 -8.1 -1.0 -8.1 -1.05 -8.1 -1.05 -8.1 -1.1 -8.1 -1.15 -8.05 -1.15 -8.05 -1.2 -8.0 -1.25 -8.0 -1.25 -8.0 -1.3 -7.95 -1.3 -7.95 -1.35 -7.9 -1.4 -7.9 -1.4 -7.85 -1.4 -7.85 -1.45 -7.8 -1.45 -7.8 -1.5 -7.75 -1.5 -7.7 -1.5 -7.65 -1.5 -7.6 -1.55 -7.6 -1.55 -7.55 -1.55 -7.5 -1.55 -7.45 -1.55 -7.45 -1.55 -7.4 -1.55 -7.35 -1.5 -7.35 -1.5 -7.3 -1.5 -7.25 -1.45 -7.25 -1.45 -7.2 -1.4 -7.2 -1.4 -7.15 -1.35 -7.15 -1.35 -7.1 -1.3 -7.1 -1.25 -7.05 -1.25 -7.05 -1.2 -7.0 -1.2 -7.0 -1.15 -7.0 -1.15 -7.0 -1.1 -6.95 -1.05 -6.95 -1.05 -6.95 -1.0 -6.9 -0.95 -6.9 -0.95 -6.95 -1.0 -6.9 -0.85 -6.85 -0.75 -6.85 -0.7 -6.8 -0.65 -6.75 -0.55 -6.75 -0.5 -6.7 -0.45 -6.65 -0.35 -6.6 -0.3 -6.6 -0.25 -6.55 -0.2 -6.5 -0.15 -6.45 -0.05 -6.4 0.0 -6.35 0.05 -6.25 0.1 -6.2 0.15 -6.15 0.2 -5.65 0.5 -5.6 0.55 -5.55 0.6 -5.45 0.65 -5.4 0.65 -5.35 0.7 -5.3 0.75 -5.25 0.8 -5.15 0.85 -5.1 0.85 -5.05 0.9 -5.0 0.95 -4.9 0.95 -4.85 1.0 -4.8 1.05 -4.7 1.1 -4.65 1.1 -4.45 1.2 -3.45 1.7 -3.1 1.9 -2.15 2.3 -2.05 2.35 -1.5 2.55 -1.15 2.75 -0.9 2.85 -0.75 2.9 -0.45 3.05 -0.15 3.2 0.0 3.25 0.1 3.3 0.6 3.5 0.95 3.7 1.2 3.75 1.25 3.75 1.3 3.8 1.35 3.8 1.4 3.8 1.45 3.85 1.5 3.85 1.55 3.85 1.6 3.85 1.65 3.9 1.7 3.9 1.75 3.9 1.8 3.9 1.85 3.9 1.9 3.9 1.95 3.95 2.0 3.95 2.05 3.95 2.1 3.95 L2.1 3.95" fill="#080808" fill-rule="evenodd" stroke="none"/>
    <path d="M7.55 0.0 Q7.6 0.0 7.65 0.0 7.7 0.0 7.7 0.0 7.75 0.0 7.8 0.0 7.85 0.0 7.85 0.0 7.9 0.0 7.95 0.05 8.0 0.05 8.05 0.1 8.1 0.1 8.1 0.15 8.15 0.15 8.15 0.2 8.2 0.25 8.2 0.3 8.2 0.35 8.2 0.35 8.2 0.4 8.2 0.45 8.2 0.5 8.2 0.55 8.2 0.6 8.15 0.65 8.1 0.8 7.7 1.2 7.6 1.3 7.5 1.4 7.45 1.5 7.35 1.55 7.25 1.65 7.15 1.75 7.05 1.8 6.95 1.9 6.85 1.95 6.7 2.05 6.6 2.1 6.5 2.15 6.4 2.25 6.3 2.3 6.2 2.35 6.05 2.45 5.3 2.85 4.9 3.1 4.55 3.25 3.7 3.55 3.55 3.6 3.0 3.85 2.95 3.85 2.9 3.85 2.9 3.85 2.85 3.85 2.8 3.85 2.75 3.85 2.75 3.85 2.75 3.85 2.75 3.8 2.75 3.8 2.75 3.8 2.8 3.8 2.9 3.75 3.0 3.7 3.15 3.65 3.25 3.6 3.35 3.55 3.45 3.5 3.55 3.45 3.65 3.4 3.75 3.35 3.85 3.3 3.95 3.2 4.1 3.15 4.2 3.1 4.3 3.05 4.4 2.95 4.5 2.9 4.6 2.8 4.9 2.65 5.2 2.5 5.35 2.4 5.45 2.3 5.65 2.15 5.9 2.0 5.95 1.95 6.05 1.85 6.25 1.7 6.45 1.5 6.55 1.45 6.6 1.4 6.6 1.4 6.65 1.35 6.7 1.35 6.7 1.3 6.75 1.25 6.75 1.25 6.8 1.2 6.8 1.15 6.85 1.15 6.85 1.1 6.85 1.05 6.9 1.05 6.9 1.0 6.9 0.95 6.95 0.9 6.95 0.85 7.0 0.8 7.0 0.8 7.0 0.75 7.05 0.7 7.05 0.65 7.05 0.6 7.05 0.55 7.05 0.5 7.05 0.45 7.05 0.35 7.05 0.3 7.05 0.25 7.1 0.15 7.15 0.1 7.2 0.05 7.25 0.0 7.35 0.0 7.4 0.0 7.5 0.0 7.55 0.0 7.55 0.0 L7.55 0.0" fill="#080808" fill-rule="evenodd" stroke="none"/>
    <path d="M1.65 5.0 Q1.55 5.0 1.5 5.0 1.45 5.0 1.35 5.0 1.3 5.0 1.2 5.0 1.15 4.95 1.05 4.95 1.0 4.95 0.95 4.95 0.85 4.95 0.8 4.9 0.7 4.9 0.65 4.85 0.6 4.85 0.5 4.8 0.45 4.8 0.45 4.75 0.4 4.75 0.35 4.75 0.3 4.7 0.3 4.7 0.25 4.7 0.2 4.65 0.15 4.65 0.15 4.6 0.1 4.6 0.05 4.55 0.05 4.55 0.0 4.5 -0.05 4.5 -0.1 4.45 -0.15 4.4 -0.15 4.4 -0.2 4.35 -0.25 4.3 -0.3 4.3 -0.3 4.25 -0.35 4.2 -0.4 4.15 -0.4 4.1 -0.45 4.1 -0.5 4.05 -0.5 4.0 -0.55 3.95 -0.6 3.9 -0.6 3.9 -0.65 3.85 -0.7 3.75 -0.7 3.75 -0.65 3.7 -0.55 3.7 -0.5 3.7 -0.45 3.7 -0.45 3.7 -0.4 3.7 -0.35 3.7 -0.3 3.75 -0.25 3.75 -0.25 3.75 0.0 3.85 0.5 4.05 0.55 4.05 0.9 4.15 0.95 4.15 1.05 4.15 1.1 4.2 1.15 4.2 1.25 4.2 1.3 4.2 1.35 4.2 1.45 4.2 1.5 4.2 1.55 4.2 1.65 4.2 1.7 4.2 1.75 4.2 1.85 4.2 1.9 4.2 2.0 4.2 2.15 4.2 2.75 4.1 2.8 4.1 3.45 4.0 3.6 3.95 3.65 3.95 3.8 3.95 3.75 4.1 3.75 4.15 3.75 4.15 3.7 4.2 3.7 4.25 3.65 4.25 3.65 4.3 3.6 4.35 3.55 4.35 3.5 4.4 3.5 4.4 3.45 4.45 3.45 4.45 3.4 4.45 3.35 4.5 3.35 4.5 3.3 4.55 3.25 4.55 3.2 4.55 3.2 4.6 3.15 4.6 3.1 4.6 3.05 4.65 3.0 4.65 3.0 4.65 2.8 4.75 2.5 4.85 1.85 5.0 1.65 5.0 L1.65 5.0" fill="#000000" fill-opacity="0.2509804" fill-rule="evenodd" stroke="none"/>
  </g>
</svg>
