<?xml version="1.0" encoding="UTF-8" standalone="no"?>
<svg xmlns:xlink="http://www.w3.org/1999/xlink" height="10.05px" width="17.65px" xmlns="http://www.w3.org/2000/svg">
  <g transform="matrix(1.0, 0.0, 0.0, 1.0, 8.8, 5.05)">
    <path d="M6.05 1.4 Q6.0 1.45 5.95 1.5 5.9 1.6 5.8 1.7 5.7 1.85 5.6 1.95 5.45 2.1 5.3 2.25 5.15 2.4 4.95 2.6 4.8 2.75 4.55 2.95 4.35 3.15 4.1 3.3 3.85 3.5 3.55 3.7 3.4 3.8 3.35 3.8 3.2 3.9 3.1 3.95 2.95 4.05 2.8 4.15 2.6 4.25 2.4 4.35 2.2 4.45 2.0 4.55 1.75 4.6 1.55 4.7 1.3 4.8 1.05 4.85 0.75 4.95 0.5 5.0 -0.05 5.1 -0.55 5.15 -1.05 5.15 -1.6 5.15 -2.05 5.1 -2.55 5.0 -2.95 4.9 -3.4 4.8 -3.75 4.65 -4.15 4.5 -4.45 4.4 -4.8 4.25 -5.05 4.1 -5.3 3.95 -5.45 3.85 -5.65 3.75 -5.7 3.7 -5.8 3.65 -5.85 3.6 -5.9 3.55 -6.0 3.5 -6.05 3.45 -6.1 3.4 -6.2 3.35 -6.25 3.3 -6.35 3.25 -6.4 3.15 -6.5 3.1 -6.55 3.05 -6.6 2.95 -6.7 2.9 -6.75 2.85 -6.85 2.75 -6.95 2.65 -7.05 2.55 -7.15 2.45 -7.25 2.35 -7.3 2.25 -7.4 2.15 -7.45 2.05 -7.55 1.95 -7.6 1.85 -7.7 1.8 -7.75 1.7 -7.8 1.6 -7.9 1.5 -7.95 1.45 -8.0 1.35 -8.05 1.25 -8.1 1.15 -8.15 1.05 -8.2 0.95 -8.25 0.85 -8.3 0.7 -8.35 0.6 -8.4 0.45 -8.45 0.3 -8.5 0.15 -8.6 0.0 -8.6 -0.15 -8.65 -0.3 -8.7 -0.45 -8.75 -0.65 -8.8 -0.8 -8.85 -1.1 -8.9 -1.25 -8.95 -1.5 -9.0 -1.7 -9.0 -1.95 -9.05 -2.2 -9.05 -2.45 -9.05 -2.7 -9.05 -2.95 -9.05 -3.15 -9.0 -3.4 -8.95 -3.6 -8.9 -3.85 -8.75 -4.05 -8.65 -4.25 -8.5 -4.4 -8.45 -4.45 -8.4 -4.5 -8.35 -4.55 -8.3 -4.6 -8.2 -4.65 -8.1 -4.7 -8.0 -4.75 -7.9 -4.8 -7.75 -4.85 -7.6 -4.9 -7.45 -4.95 -7.25 -5.0 -7.05 -5.05 -6.85 -5.05 -6.65 -5.05 -6.4 -5.05 -6.05 -4.85 -5.7 -4.7 -5.35 -4.5 -5.0 -4.35 -4.7 -4.2 -4.35 -4.05 -4.05 -3.9 -3.7 -3.75 -3.4 -3.65 -3.1 -3.5 -2.85 -3.4 -2.55 -3.3 -2.3 -3.15 -2.0 -3.05 -1.75 -2.95 -1.5 -2.85 -1.05 -2.7 -0.85 -2.6 -0.5 -2.5 -0.25 -2.4 0.05 -2.3 0.35 -2.2 0.65 -2.05 0.95 -2.0 1.25 -1.9 1.55 -1.8 1.85 -1.7 2.15 -1.65 2.5 -1.55 2.8 -1.5 3.15 -1.4 3.5 -1.35 3.8 -1.3 4.05 -1.25 4.35 -1.2 4.6 -1.15 4.9 -1.15 5.15 -1.1 5.4 -1.1 5.65 -1.05 5.85 -1.05 6.1 -1.0 6.3 -1.0 6.55 -1.0 6.75 -1.0 6.95 -1.0 7.1 -1.0 7.3 -1.0 7.25 -0.9 7.2 -0.75 7.15 -0.6 7.1 -0.5 7.05 -0.35 7.0 -0.2 6.9 -0.05 6.85 0.1 6.75 0.25 6.7 0.4 6.6 0.55 6.5 0.7 6.4 0.9 6.3 1.05 6.2 1.2 6.05 1.4 L6.05 1.4" fill="#2b8e7d" fill-rule="evenodd" stroke="none"/>
  </g>
</svg>
