<?xml version="1.0" encoding="UTF-8" standalone="no"?>
<svg xmlns:xlink="http://www.w3.org/1999/xlink" height="11.25px" width="18.85px" xmlns="http://www.w3.org/2000/svg">
  <g transform="matrix(1.0, 0.0, 0.0, 1.0, 9.4, 5.65)">
    <path d="M-1.2 5.35 Q-1.85 5.35 -2.45 5.25 -3.05 5.2 -3.6 5.0 -4.15 4.85 -4.7 4.65 -5.2 4.4 -5.65 4.1 -6.1 3.85 -6.55 3.45 -6.95 3.1 -7.35 2.65 -7.75 2.25 -8.05 1.75 -8.4 1.25 -8.7 0.7 -8.8 0.45 -8.95 0.25 -9.05 0.0 -9.1 -0.25 -9.2 -0.5 -9.25 -0.75 -9.3 -1.0 -9.35 -1.25 -9.4 -1.5 -9.4 -1.75 -9.4 -2.0 -9.4 -2.25 -9.4 -2.5 -9.35 -2.75 -9.35 -3.0 -9.3 -3.3 -9.25 -3.45 -9.2 -3.65 -9.15 -3.8 -9.1 -3.95 -9.05 -4.1 -8.95 -4.25 -8.85 -4.4 -8.75 -4.5 -8.65 -4.65 -8.55 -4.75 -8.45 -4.85 -8.3 -4.95 -8.15 -5.05 -8.0 -5.15 -7.85 -5.25 -7.7 -5.3 -7.6 -5.35 -7.5 -5.35 -7.4 -5.4 -7.35 -5.4 -7.25 -5.4 -7.15 -5.4 -7.05 -5.4 -6.95 -5.4 -6.9 -5.4 -6.8 -5.4 -6.7 -5.4 -6.6 -5.4 -6.5 -5.35 -6.4 -5.35 -6.35 -5.3 -6.25 -5.3 -5.75 -5.15 -3.9 -4.3 -0.9 -2.9 0.7 -2.45 1.05 -2.35 1.35 -2.25 1.7 -2.2 2.05 -2.1 2.35 -2.0 2.7 -1.95 3.05 -1.85 3.4 -1.8 3.75 -1.75 4.05 -1.7 4.4 -1.6 4.75 -1.55 5.1 -1.5 5.45 -1.5 5.8 -1.45 6.15 -1.4 6.35 -1.4 7.75 -1.6 7.85 -1.6 7.9 -1.65 8.0 -1.65 8.05 -1.65 8.15 -1.7 8.2 -1.7 8.25 -1.75 8.35 -1.75 8.4 -1.8 8.45 -1.85 8.5 -1.9 8.6 -1.9 8.65 -1.95 8.7 -2.0 8.75 -2.1 8.8 -2.15 8.85 -2.2 8.9 -2.25 8.9 -2.25 8.95 -2.3 9.0 -2.3 9.05 -2.35 9.1 -2.35 9.15 -2.35 9.2 -2.35 9.2 -2.35 9.25 -2.35 9.3 -2.3 9.35 -2.3 9.4 -2.3 9.45 -2.25 9.5 -2.2 9.55 -2.15 9.55 -2.15 9.6 -2.1 9.6 -2.05 9.6 -2.0 9.65 -2.0 9.65 -1.95 9.65 -1.9 9.65 -1.85 9.65 -1.8 9.6 -1.75 9.6 -1.7 9.6 -1.65 9.55 -1.6 9.55 -1.6 9.5 -1.55 9.45 -1.5 9.45 -1.45 9.4 -1.45 9.4 -1.4 9.35 -1.35 9.3 -1.35 9.3 -1.3 9.25 -1.3 9.2 -1.25 9.15 -1.25 9.0 -1.15 8.85 -1.05 8.7 -0.95 8.6 -0.85 8.45 -0.75 8.3 -0.65 8.15 -0.5 8.05 -0.4 7.9 -0.3 7.8 -0.15 7.65 -0.05 7.55 0.1 7.4 0.2 7.3 0.35 7.2 0.45 7.05 0.6 6.9 0.8 6.75 0.95 6.65 1.15 6.5 1.3 6.35 1.45 6.2 1.6 6.05 1.8 5.9 1.95 5.75 2.1 5.6 2.25 5.45 2.45 5.3 2.6 5.15 2.75 4.95 2.9 4.8 3.05 4.65 3.15 4.4 3.35 4.1 3.55 3.85 3.75 3.55 3.9 3.3 4.1 3.0 4.25 2.7 4.4 2.45 4.55 2.15 4.7 1.85 4.8 1.55 4.9 1.2 5.0 0.9 5.1 0.6 5.15 0.25 5.25 -0.05 5.3 -0.1 5.3 -0.2 5.3 -0.25 5.3 -0.35 5.35 -0.4 5.35 -0.5 5.35 -0.55 5.35 -0.65 5.35 -0.7 5.35 -0.75 5.35 -0.85 5.35 -0.9 5.35 -1.0 5.35 -1.05 5.35 -1.15 5.35 -1.2 5.35 L-1.2 5.35 M-5.65 -1.3 Q-6.45 -0.15 -7.45 1.35 -7.5 1.4 -7.45 1.45 -7.4 1.55 -7.35 1.6 -7.3 1.7 -7.2 1.75 -7.15 1.8 -7.1 1.9 -7.05 1.95 -7.0 2.05 -6.9 2.1 -6.85 2.15 -6.8 2.25 -6.75 2.3 -6.65 2.35 -6.6 2.45 -6.55 2.5 -6.45 2.55 -6.2 2.2 -5.7 1.6 -5.2 0.95 -5.0 0.7 -4.7 0.35 -4.0 -0.55 -3.8 -0.8 -3.05 -1.75 -2.85 -2.0 -2.25 -2.75 -2.7 -3.0 -3.75 -3.45 -3.95 -3.55 -4.0 -3.55 -4.05 -3.55 -4.15 -3.5 -4.2 -3.45 -4.3 -3.3 -4.9 -2.35 -5.65 -1.3 L-5.65 -1.3 M-8.4 -0.55 Q-8.4 -0.45 -8.35 -0.35 -8.35 -0.25 -8.3 -0.15 -8.3 -0.1 -8.25 0.0 -8.2 0.1 -8.2 0.2 -8.15 0.3 -8.1 0.4 -8.05 0.45 -8.0 0.55 -7.95 0.65 -7.9 0.75 -7.85 0.8 -7.8 0.9 -7.3 0.1 -6.25 -1.4 -6.15 -1.5 -6.05 -1.7 -5.9 -1.9 -5.85 -1.95 -5.6 -2.35 -4.65 -3.7 -4.7 -3.55 -4.6 -3.8 -4.6 -3.85 -4.7 -3.9 -6.25 -4.55 -6.55 -4.65 -6.65 -4.7 -6.8 -4.7 -6.9 -4.7 -7.0 -4.7 -7.1 -4.7 -7.2 -4.7 -7.3 -4.7 -7.4 -4.65 -7.5 -4.65 -7.6 -4.6 -7.7 -4.55 -7.75 -4.5 -7.85 -4.45 -7.95 -4.35 -8.0 -4.3 -8.1 -4.2 -8.15 -4.1 -8.2 -4.05 -8.3 -3.95 -8.35 -3.9 -8.35 -3.8 -8.4 -3.7 -8.45 -3.65 -8.5 -3.55 -8.5 -3.45 -8.55 -3.35 -8.55 -3.25 -8.6 -3.15 -8.6 -3.1 -8.6 -3.0 -8.65 -2.9 -8.65 -2.8 -8.65 -2.65 -8.65 -2.5 -8.7 -2.35 -8.7 -2.25 -8.7 -2.1 -8.7 -1.95 -8.65 -1.8 -8.65 -1.65 -8.65 -1.5 -8.6 -1.4 -8.6 -1.25 -8.55 -1.1 -8.55 -0.95 -8.5 -0.8 -8.45 -0.7 -8.4 -0.55 L-8.4 -0.55 M-3.45 -0.35 Q-3.45 -0.35 -3.5 -0.3 -3.5 -0.3 -3.5 -0.3 -5.15 1.8 -6.0 2.85 -6.05 2.9 -6.05 2.95 -6.0 2.95 -5.95 3.0 -5.9 3.05 -5.85 3.1 -5.8 3.15 -5.75 3.15 -5.7 3.2 -5.65 3.25 -5.6 3.3 -5.55 3.35 -5.5 3.35 -5.45 3.4 -5.4 3.45 -5.35 3.5 -5.3 3.5 -5.25 3.55 -5.15 3.6 -5.1 3.6 -4.8 3.8 -4.45 3.95 -4.15 4.1 -3.8 4.25 -3.5 4.35 -3.15 4.45 -2.85 4.55 -2.5 4.6 -2.15 4.65 -1.8 4.65 -1.45 4.7 -1.1 4.65 -0.8 4.65 -0.4 4.6 -0.05 4.6 0.3 4.5 0.65 4.45 0.95 4.35 1.25 4.25 1.55 4.15 1.85 4.05 2.15 3.9 2.45 3.8 2.75 3.65 3.0 3.45 3.3 3.3 3.55 3.1 3.8 2.9 4.1 2.75 4.35 2.5 4.6 2.3 4.8 2.05 4.95 1.9 5.1 1.75 5.3 1.6 5.45 1.45 5.55 1.3 5.7 1.15 5.85 0.95 5.95 0.8 6.1 0.6 6.2 0.45 6.35 0.25 6.45 0.05 6.55 -0.1 6.65 -0.3 6.75 -0.5 6.85 -0.7 6.75 -0.7 6.6 -0.7 6.5 -0.7 6.4 -0.7 6.25 -0.7 6.15 -0.7 6.05 -0.7 5.9 -0.75 5.8 -0.75 5.7 -0.75 5.6 -0.75 5.5 -0.75 5.35 -0.8 5.25 -0.8 5.15 -0.8 5.05 -0.8 4.65 -0.85 4.25 -0.95 3.85 -1.0 3.45 -1.05 3.05 -1.15 2.7 -1.25 2.3 -1.3 1.9 -1.4 1.5 -1.5 1.15 -1.6 0.75 -1.7 0.35 -1.85 0.0 -1.95 -0.4 -2.05 -0.75 -2.2 -1.15 -2.35 -1.7 -2.5 -1.7 -2.5 -1.75 -2.5 -2.1 -2.05 -2.5 -1.55 -3.45 -0.35 L-3.45 -0.35" fill="#030303" fill-rule="evenodd" stroke="none"/>
    <path d="M4.8 2.05 Q4.65 2.05 4.45 2.05 4.3 2.0 4.1 2.0 3.95 2.0 3.75 1.95 3.6 1.95 3.4 1.9 3.25 1.9 3.05 1.85 2.9 1.85 2.7 1.8 2.55 1.75 2.35 1.7 2.2 1.7 2.0 1.65 1.65 1.55 1.35 1.5 1.05 1.4 0.7 1.3 0.4 1.2 0.05 1.1 -0.25 1.0 -0.55 0.9 -0.9 0.8 -1.2 0.65 -1.5 0.55 -1.8 0.45 -2.15 0.3 -2.45 0.15 -2.75 0.05 -3.05 -0.1 -3.45 -0.3 -3.45 -0.35 -3.2 -0.65 -2.8 -1.2 -2.3 -1.8 -2.1 -2.05 -2.1 -2.1 -2.05 -2.1 -2.05 -2.15 -2.0 -2.2 -2.0 -2.25 -1.95 -2.25 -1.95 -2.3 -1.9 -2.35 -1.9 -2.35 -1.85 -2.4 -1.85 -2.45 -1.8 -2.45 -1.8 -2.5 -1.75 -2.5 -1.75 -2.5 -1.7 -2.5 -1.65 -2.5 -1.65 -2.5 -1.6 -2.5 -1.55 -2.5 -1.55 -2.5 -1.5 -2.5 -1.45 -2.5 -1.45 -2.45 -1.4 -2.45 -1.35 -2.45 -1.35 -2.45 -1.3 -2.4 -1.25 -2.4 -1.2 -2.35 -1.15 -2.35 -1.15 -2.35 -0.8 -2.2 -0.4 -2.1 0.0 -1.95 0.35 -1.85 0.75 -1.7 1.15 -1.6 1.5 -1.5 1.9 -1.4 2.3 -1.3 2.7 -1.25 3.05 -1.15 3.45 -1.1 3.85 -1.0 4.25 -0.95 4.65 -0.9 5.05 -0.8 6.15 -0.7 6.85 -0.7 6.75 -0.5 6.65 -0.3 6.55 -0.1 6.45 0.1 6.35 0.25 6.2 0.45 6.1 0.6 6.0 0.8 5.85 0.95 5.7 1.15 5.6 1.3 5.45 1.45 5.3 1.6 5.15 1.75 5.0 1.9 4.8 2.05 L4.8 2.05" fill="#000000" fill-opacity="0.101960786" fill-rule="evenodd" stroke="none"/>
    <path d="M-8.4 -0.55 Q-8.45 -0.7 -8.5 -0.8 -8.55 -0.95 -8.55 -1.1 -8.6 -1.25 -8.6 -1.4 -8.65 -1.5 -8.65 -1.65 -8.65 -1.8 -8.7 -1.95 -8.7 -2.1 -8.7 -2.25 -8.7 -2.35 -8.65 -2.5 -8.65 -2.65 -8.65 -2.8 -8.65 -2.9 -8.6 -3.0 -8.6 -3.1 -8.6 -3.2 -8.55 -3.25 -8.55 -3.35 -8.5 -3.45 -8.5 -3.55 -8.45 -3.65 -8.4 -3.7 -8.35 -3.8 -8.35 -3.9 -8.3 -3.95 -8.2 -4.05 -8.15 -4.1 -8.1 -4.2 -8.0 -4.3 -7.95 -4.35 -7.85 -4.45 -7.75 -4.5 -7.7 -4.55 -7.6 -4.6 -7.5 -4.65 -7.4 -4.65 -7.3 -4.7 -7.2 -4.7 -7.1 -4.7 -7.0 -4.7 -6.9 -4.7 -6.8 -4.7 -6.65 -4.7 -6.55 -4.65 -6.15 -4.55 -4.7 -3.9 -4.65 -3.85 -4.6 -3.85 -4.6 -3.8 -4.6 -3.8 -4.6 -3.75 -4.65 -3.75 -4.65 -3.7 -4.65 -3.7 -5.05 -3.1 -5.85 -1.95 -6.0 -1.75 -6.25 -1.4 -6.3 -1.45 -6.35 -1.45 -6.35 -1.5 -6.4 -1.5 -6.45 -1.5 -6.5 -1.5 -6.55 -1.5 -6.6 -1.55 -6.6 -1.55 -6.65 -1.5 -6.7 -1.5 -6.75 -1.5 -6.8 -1.5 -6.85 -1.5 -6.9 -1.5 -6.9 -1.5 -6.95 -1.5 -7.05 -1.45 -7.1 -1.45 -7.2 -1.4 -7.25 -1.4 -7.3 -1.35 -7.4 -1.3 -7.45 -1.3 -7.5 -1.25 -7.55 -1.2 -7.6 -1.15 -7.7 -1.15 -7.75 -1.1 -7.8 -1.05 -7.95 -0.95 -7.9 -0.95 -7.95 -0.95 -7.95 -0.9 -8.0 -0.9 -8.05 -0.85 -8.05 -0.85 -8.1 -0.8 -8.35 -0.55 -8.15 -0.75 -8.2 -0.7 -8.2 -0.7 -8.25 -0.65 -8.3 -0.65 -8.3 -0.6 -8.35 -0.6 -8.4 -0.55 -8.4 -0.55 L-8.4 -0.55" fill="#000000" fill-opacity="0.101960786" fill-rule="evenodd" stroke="none"/>
    <path d="M-4.0 -0.55 Q-4.65 -0.85 -5.6 -1.25 -5.6 -1.25 -5.65 -1.3 -5.6 -1.35 -4.3 -3.3 -4.2 -3.45 -4.15 -3.5 -4.05 -3.55 -4.0 -3.55 -3.95 -3.55 -3.75 -3.45 -3.1 -3.15 -2.25 -2.75 -2.35 -2.65 -2.65 -2.25 -2.9 -1.95 -3.05 -1.75 -3.3 -1.45 -4.0 -0.55 L-4.0 -0.55" fill="#000000" fill-opacity="0.101960786" fill-rule="evenodd" stroke="none"/>
  </g>
</svg>
