<?xml version="1.0" encoding="UTF-8" standalone="no"?>
<svg xmlns:xlink="http://www.w3.org/1999/xlink" height="7.85px" width="18.1px" xmlns="http://www.w3.org/2000/svg">
  <g transform="matrix(1.0, 0.0, 0.0, 1.0, 9.05, 3.95)">
    <path d="M6.05 3.8 Q5.95 3.8 5.85 3.8 5.75 3.75 5.65 3.75 5.5 3.75 5.4 3.7 5.3 3.7 5.2 3.65 5.1 3.65 5.0 3.6 4.95 3.55 4.85 3.5 4.75 3.45 4.65 3.45 4.55 3.4 4.45 3.35 4.2 3.2 3.95 3.1 3.7 2.95 3.45 2.8 3.2 2.65 3.0 2.5 2.75 2.35 2.5 2.25 2.25 2.1 2.05 1.95 1.8 1.8 1.55 1.6 1.35 1.45 1.1 1.3 0.85 1.15 0.65 0.95 0.55 0.9 0.45 0.8 0.35 0.75 0.25 0.7 0.2 0.65 0.1 0.55 0.0 0.5 -0.1 0.45 -0.2 0.4 -0.3 0.35 -0.4 0.3 -0.5 0.25 -0.6 0.2 -0.7 0.15 -0.8 0.05 -0.9 0.05 -0.95 0.05 -1.05 -0.05 -1.1 -0.1 -1.15 -0.15 -1.2 -0.15 -1.25 -0.2 -1.3 -0.2 -1.35 -0.2 -1.4 -0.25 -1.45 -0.25 -1.5 -0.25 -1.55 -0.25 -1.6 -0.25 -1.65 -0.25 -1.7 -0.25 -1.75 -0.25 -1.8 -0.25 -1.85 -0.25 -1.9 -0.25 -1.95 -0.25 -2.05 -0.25 -2.2 -0.2 -2.3 -0.2 -2.4 -0.2 -2.55 -0.2 -2.65 -0.15 -2.8 -0.15 -2.9 -0.15 -3.0 -0.15 -3.15 -0.15 -3.25 -0.1 -3.35 -0.1 -3.5 -0.1 -3.6 -0.1 -3.7 -0.1 -3.85 -0.1 -3.95 -0.1 -4.05 -0.1 -4.15 -0.1 -4.25 -0.1 -4.35 -0.1 -4.45 -0.1 -4.55 -0.1 -4.65 -0.15 -4.75 -0.15 -4.85 -0.15 -4.95 -0.2 -5.05 -0.2 -5.15 -0.25 -5.25 -0.25 -5.35 -0.3 -5.45 -0.3 -6.15 -0.55 -6.65 -0.7 -7.45 -0.9 -7.6 -0.95 -7.65 -0.95 -7.7 -1.0 -7.75 -1.0 -7.8 -1.0 -7.85 -1.05 -7.9 -1.05 -7.9 -1.05 -7.95 -1.1 -8.0 -1.15 -8.05 -1.15 -8.1 -1.2 -8.15 -1.2 -8.2 -1.25 -8.2 -1.3 -8.25 -1.3 -8.3 -1.35 -8.35 -1.4 -8.4 -1.5 -8.45 -1.55 -8.5 -1.6 -8.55 -1.7 -8.55 -1.75 -8.6 -1.85 -8.6 -1.95 -8.6 -2.0 -8.6 -2.1 -8.6 -2.15 -8.55 -2.25 -8.55 -2.3 -8.5 -2.4 -8.5 -2.45 -8.45 -2.55 -8.4 -2.6 -8.35 -2.6 -8.35 -2.65 -8.3 -2.7 -8.25 -2.7 -8.2 -2.75 -8.15 -2.75 -8.1 -2.75 -8.0 -2.75 -7.95 -2.75 -7.9 -2.8 -7.85 -2.75 -7.8 -2.75 -7.75 -2.75 -7.7 -2.7 -7.65 -2.7 -7.5 -2.65 -6.75 -2.1 -6.7 -2.05 -6.65 -2.05 -6.6 -2.0 -6.6 -2.0 -6.55 -1.95 -6.5 -1.95 -6.45 -1.95 -6.4 -1.9 -6.35 -1.9 -6.3 -1.85 -6.25 -1.85 -6.2 -1.8 -6.15 -1.8 -6.15 -1.8 -6.1 -1.75 -6.05 -1.75 -5.9 -1.7 -5.65 -1.65 -5.35 -1.5 -5.3 -1.5 -5.2 -1.45 -5.1 -1.45 -5.0 -1.4 -4.9 -1.4 -4.8 -1.35 -4.7 -1.35 -4.6 -1.3 -4.5 -1.3 -4.4 -1.3 -4.3 -1.3 -4.2 -1.25 -4.1 -1.25 -4.0 -1.25 -3.9 -1.25 -3.8 -1.25 -3.7 -1.25 -3.2 -1.25 -2.1 -1.35 -1.95 -1.35 -1.65 -1.4 -1.35 -1.5 -1.2 -1.5 -1.1 -1.5 -0.9 -1.55 -0.75 -1.55 -0.65 -1.55 -0.05 -1.65 0.1 -1.7 1.15 -1.8 2.55 -1.95 2.6 -1.95 2.65 -1.95 2.7 -1.95 2.8 -1.95 2.85 -2.0 2.9 -2.0 2.95 -2.0 3.0 -2.0 3.1 -2.0 3.15 -2.0 3.2 -2.0 3.25 -2.05 3.35 -2.05 3.4 -2.05 3.45 -2.05 3.5 -2.05 3.6 -2.05 3.75 -2.1 3.85 -2.1 4.0 -2.1 4.1 -2.1 4.25 -2.1 4.35 -2.1 4.45 -2.05 4.6 -2.05 4.7 -2.05 4.8 -2.05 4.95 -2.0 5.05 -2.0 5.2 -1.95 5.3 -1.95 5.4 -1.9 5.5 -1.85 5.6 -1.85 5.7 -1.85 5.8 -1.8 5.9 -1.8 6.0 -1.8 6.1 -1.8 6.2 -1.8 6.3 -1.8 6.4 -1.8 6.5 -1.8 6.6 -1.8 6.7 -1.8 6.8 -1.8 6.9 -1.85 7.0 -1.85 7.05 -1.85 7.05 -1.85 7.1 -1.9 7.15 -1.9 7.15 -1.9 7.2 -1.95 7.25 -1.95 7.25 -2.0 7.3 -2.05 7.45 -2.2 7.6 -2.35 7.65 -2.4 7.7 -2.45 7.75 -2.45 7.8 -2.5 7.8 -2.5 7.85 -2.5 7.9 -2.5 7.95 -2.55 8.0 -2.5 8.05 -2.5 8.1 -2.5 8.15 -2.5 8.2 -2.45 8.25 -2.45 8.3 -2.45 8.35 -2.4 8.35 -2.35 8.4 -2.3 8.45 -2.3 8.45 -2.25 8.5 -2.2 8.5 -2.15 8.55 -2.1 8.55 -2.05 8.55 -2.0 8.6 -1.95 8.6 -1.9 8.6 -1.85 8.6 -1.8 8.6 -1.75 8.6 -1.7 8.6 -1.65 8.55 -1.6 8.55 -1.5 8.5 -1.45 8.5 -1.35 8.45 -1.3 8.4 -1.25 8.4 -1.15 8.35 -1.1 8.3 -1.05 8.25 -1.0 8.2 -0.95 8.15 -0.9 8.1 -0.85 8.05 -0.8 8.0 -0.75 7.95 -0.7 7.9 -0.65 7.8 -0.6 7.8 -0.6 7.75 -0.55 7.75 -0.5 7.75 -0.5 7.8 -0.35 7.85 -0.2 7.85 -0.05 7.9 0.1 7.95 0.25 7.95 0.4 8.0 0.55 8.0 0.7 8.0 0.85 8.05 1.0 8.05 1.15 8.05 1.3 8.05 1.45 8.05 1.6 8.05 1.75 8.0 1.9 8.0 2.05 8.0 2.2 7.95 2.35 7.9 2.45 7.85 2.6 7.8 2.7 7.75 2.8 7.7 2.95 7.65 3.0 7.55 3.1 7.5 3.2 7.4 3.3 7.3 3.35 7.2 3.45 7.1 3.5 7.0 3.55 6.9 3.6 6.85 3.6 6.8 3.65 6.8 3.65 6.75 3.65 6.7 3.7 6.7 3.7 6.65 3.7 6.6 3.7 6.45 3.75 6.05 3.8 L6.05 3.8 M0.6 -0.45 Q0.6 -0.45 0.6 -0.4 0.65 -0.4 0.7 -0.35 0.75 -0.35 0.75 -0.3 0.8 -0.3 0.85 -0.25 0.9 -0.25 0.95 -0.2 0.95 -0.2 1.0 -0.15 2.65 1.05 3.65 1.6 5.25 2.45 5.4 2.5 5.45 2.5 5.5 2.55 5.6 2.55 5.65 2.55 5.7 2.6 5.75 2.6 5.85 2.6 5.9 2.6 5.95 2.6 6.0 2.6 6.1 2.6 6.15 2.6 6.2 2.6 6.3 2.6 6.35 2.6 6.4 2.55 6.45 2.55 6.5 2.5 6.55 2.5 6.6 2.45 6.65 2.45 6.7 2.4 6.75 2.4 6.8 2.35 6.85 2.3 6.85 2.25 6.9 2.2 6.9 2.15 6.95 2.1 6.95 2.05 7.0 2.0 7.0 1.9 7.05 1.4 7.0 1.15 7.0 1.05 7.0 0.95 7.0 0.85 7.0 0.75 6.95 0.65 6.95 0.55 6.95 0.45 6.9 0.35 6.9 0.3 6.9 0.2 6.85 0.1 6.8 0.0 6.8 -0.1 6.75 -0.15 6.75 -0.25 6.7 -0.35 6.7 -0.4 6.65 -0.4 6.6 -0.45 6.6 -0.45 6.45 -0.45 6.35 -0.45 6.2 -0.45 6.1 -0.45 5.95 -0.45 5.85 -0.5 5.7 -0.5 5.55 -0.5 5.45 -0.5 5.3 -0.55 5.2 -0.55 5.05 -0.55 4.95 -0.6 4.8 -0.6 4.7 -0.65 4.55 -0.65 4.55 -0.65 4.2 -0.7 4.2 -0.65 4.2 -0.65 4.25 -0.6 4.25 -0.6 4.3 -0.55 4.3 -0.55 4.35 -0.5 4.35 -0.5 4.4 -0.5 4.4 -0.45 4.45 -0.4 4.5 -0.35 4.6 -0.3 4.65 -0.25 4.7 -0.2 4.75 -0.1 4.8 -0.05 4.85 0.0 4.9 0.05 4.95 0.15 4.95 0.2 5.0 0.25 5.05 0.35 5.1 0.4 5.15 0.5 5.15 0.55 5.15 0.55 5.15 0.75 5.15 0.75 5.1 0.7 5.05 0.7 5.0 0.7 4.65 0.35 4.4 0.15 4.25 0.05 4.15 -0.05 4.0 -0.15 3.9 -0.2 3.75 -0.3 3.6 -0.35 3.45 -0.45 3.3 -0.5 3.15 -0.55 3.05 -0.6 2.9 -0.65 2.75 -0.65 2.6 -0.7 2.4 -0.7 2.25 -0.7 2.1 -0.7 1.85 -0.7 1.15 -0.6 1.05 -0.6 0.9 -0.55 0.7 -0.45 0.6 -0.45 L0.6 -0.45" fill="#000000" fill-rule="evenodd" stroke="none"/>
  </g>
</svg>
