<?xml version="1.0" encoding="UTF-8" standalone="no"?>
<svg xmlns:xlink="http://www.w3.org/1999/xlink" height="8.05px" width="25.6px" xmlns="http://www.w3.org/2000/svg">
  <g transform="matrix(1.0, 0.0, 0.0, 1.0, 12.8, 4.05)">
    <path d="M-2.5 0.7 Q-2.45 0.65 -2.35 0.55 -2.25 0.45 -2.2 0.4 -2.05 0.3 -1.95 0.2 -1.8 0.1 -1.7 0.0 -1.55 -0.1 -1.35 -0.2 -1.2 -0.3 -1.0 -0.35 -0.8 -0.45 -0.6 -0.55 -0.4 -0.6 -0.15 -0.65 0.05 -0.7 0.25 -0.75 0.4 -0.75 0.6 -0.8 0.75 -0.8 0.95 -0.8 1.1 -0.8 1.25 -0.8 1.4 -0.8 1.55 -0.75 1.65 -0.75 1.8 -0.7 1.9 -0.7 2.0 -0.7 2.1 -0.65 2.2 -0.65 2.5 -0.8 2.8 -0.9 3.1 -1.0 3.35 -1.05 3.65 -1.15 3.9 -1.15 4.15 -1.2 4.4 -1.2 4.65 -1.2 4.9 -1.15 5.1 -1.1 5.3 -1.05 5.5 -1.0 5.65 -0.9 5.85 -0.75 5.95 -0.65 6.0 -0.6 6.0 -0.6 6.05 -0.55 6.1 -0.5 6.15 -0.4 6.2 -0.35 6.25 -0.25 6.3 -0.15 6.35 -0.05 6.35 0.05 6.4 0.2 6.4 0.3 6.4 0.45 6.4 0.55 6.4 0.7 6.35 0.8 6.3 0.9 6.25 1.0 6.2 1.1 6.1 1.15 6.05 1.25 5.95 1.3 5.85 1.35 5.8 1.4 5.7 1.45 5.6 1.5 5.55 1.5 5.5 1.55 5.45 1.55 5.4 1.55 5.35 1.55 5.3 1.55 5.05 1.6 4.75 1.65 4.55 1.7 4.3 1.75 4.1 1.75 3.85 1.8 3.65 1.8 3.4 1.85 3.65 1.8 2.95 1.9 2.65 1.9 2.4 1.9 2.1 1.95 1.8 2.0 1.5 2.05 1.15 2.1 1.0 2.1 0.85 2.15 0.7 2.15 0.6 2.2 0.5 2.2 0.4 2.2 0.2 2.25 0.2 2.25 0.1 2.25 0.05 2.3 -0.05 2.3 -0.15 2.3 -0.25 2.3 -0.35 2.35 -0.45 2.35 -0.6 2.35 -0.4 2.35 -0.8 2.35 -0.95 2.35 -1.1 2.35 -1.25 2.35 -1.45 2.3 -1.65 2.3 -1.8 2.3 -2.0 2.25 -2.15 2.2 -2.35 2.15 -2.5 2.1 -2.65 2.0 -2.75 1.9 -2.85 1.8 -2.9 1.7 -2.9 1.65 -2.95 1.55 -2.95 1.5 -2.95 1.45 -2.9 1.35 -2.9 1.3 -2.9 1.25 -2.85 1.15 -2.8 1.1 -2.8 1.05 -2.75 0.95 -2.7 0.9 -2.65 0.85 -2.6 0.8 -2.55 0.75 -2.5 0.7 L-2.5 0.7" fill="#ec839a" fill-rule="evenodd" stroke="none"/>
  </g>
</svg>
