<?xml version="1.0" encoding="UTF-8" standalone="no"?>
<svg xmlns:xlink="http://www.w3.org/1999/xlink" height="10.75px" width="29.65px" xmlns="http://www.w3.org/2000/svg">
  <g transform="matrix(1.0, 0.0, 0.0, 1.0, 14.8, 5.4)">
    <path d="M-1.95 3.2 Q-3.0 3.1 -3.25 3.0 -3.45 2.9 -3.55 2.85 -3.6 2.8 -3.65 2.75 -3.65 2.7 -3.7 2.65 -3.75 2.6 -3.75 2.55 -3.8 2.5 -3.8 2.45 -3.8 2.4 -3.8 2.3 -3.8 2.25 -3.8 2.2 -3.8 2.1 -3.8 2.05 -3.75 2.0 -3.75 1.9 -3.7 1.8 -3.7 1.75 -3.65 1.7 -3.6 1.6 -3.6 1.55 -3.55 1.5 -3.5 1.4 -3.45 1.35 -3.4 1.3 -3.35 1.25 -3.3 1.2 -3.25 1.15 -3.2 1.1 -3.15 1.05 -3.1 1.0 -3.05 0.95 -1.95 0.25 -1.4 0.05 -1.25 0.0 -1.15 -0.05 -1.0 -0.1 -0.85 -0.15 -0.75 -0.15 -0.6 -0.2 -0.45 -0.25 -0.3 -0.25 -0.2 -0.25 -0.05 -0.3 0.1 -0.3 0.25 -0.3 0.35 -0.3 0.5 -0.3 0.65 -0.35 0.8 -0.3 0.9 -0.3 1.45 -0.3 1.85 -0.25 2.1 -0.3 2.4 -0.35 3.15 -0.55 3.3 -0.6 3.4 -0.65 3.55 -0.65 3.7 -0.7 3.85 -0.7 3.95 -0.7 4.1 -0.75 4.25 -0.75 4.35 -0.75 4.5 -0.7 4.65 -0.7 4.75 -0.65 4.9 -0.65 5.05 -0.6 5.15 -0.55 5.3 -0.5 5.4 -0.45 5.45 -0.45 5.5 -0.4 5.6 -0.35 5.65 -0.3 5.7 -0.25 5.8 -0.2 5.85 -0.15 5.9 -0.1 5.95 -0.05 6.05 0.0 6.1 0.05 6.15 0.15 6.2 0.2 6.25 0.25 6.3 0.35 6.35 0.45 6.4 0.55 6.4 0.65 6.45 0.75 6.45 0.85 6.45 0.95 6.45 1.05 6.45 1.15 6.45 1.25 6.45 1.35 6.45 1.45 6.4 1.55 6.35 1.65 6.3 1.75 6.3 1.8 6.25 1.9 6.2 1.95 6.2 1.95 6.2 2.0 6.15 2.0 6.15 2.05 6.1 2.05 6.1 2.05 6.05 2.1 6.05 2.1 6.0 2.15 5.95 2.15 5.95 2.15 5.9 2.15 5.9 2.2 5.85 2.2 5.85 2.2 5.9 2.2 5.7 2.25 5.6 2.3 5.55 2.3 5.5 2.35 5.4 2.4 5.35 2.4 5.25 2.45 5.2 2.45 5.1 2.5 5.05 2.5 4.95 2.55 4.85 2.55 4.8 2.55 4.7 2.6 4.65 2.6 4.2 2.65 3.45 2.75 2.6 2.95 2.3 3.0 1.7 3.05 0.1 3.15 -0.05 3.15 -0.15 3.2 -0.3 3.2 -0.4 3.2 -0.55 3.2 -0.65 3.2 -0.8 3.2 -0.9 3.2 -1.05 3.2 -1.15 3.2 -1.3 3.2 -1.45 3.2 -1.55 3.2 -1.7 3.2 -1.8 3.2 -1.95 3.2 L-1.95 3.2 M-1.15 2.8 Q-1.05 2.8 -0.9 2.8 -0.8 2.8 -0.7 2.8 -0.6 2.8 -0.45 2.8 -0.35 2.8 -0.25 2.8 -0.15 2.8 0.0 2.8 0.1 2.75 0.2 2.75 0.35 2.75 0.45 2.7 0.55 2.7 0.7 2.7 2.3 2.4 3.15 2.35 3.25 2.35 3.35 2.35 3.45 2.3 3.55 2.3 3.65 2.3 3.75 2.25 3.85 2.25 3.95 2.25 4.05 2.2 4.15 2.2 4.25 2.15 4.35 2.15 4.45 2.1 4.55 2.1 4.65 2.05 4.75 2.05 4.8 2.05 4.9 2.0 4.95 1.95 5.0 1.9 5.1 1.85 5.15 1.8 5.2 1.75 5.25 1.7 5.3 1.65 5.35 1.6 5.4 1.5 5.4 1.45 5.45 1.35 5.5 1.25 5.5 1.15 5.55 1.05 5.55 1.0 5.55 0.9 5.55 0.85 5.55 0.8 5.55 0.75 5.55 0.65 5.55 0.6 5.5 0.55 5.5 0.5 5.45 0.45 5.45 0.4 5.4 0.35 5.35 0.35 5.35 0.3 5.3 0.25 5.2 0.25 5.1 0.2 4.95 0.15 4.85 0.1 4.75 0.05 4.6 0.0 4.5 0.0 4.35 -0.05 4.25 -0.05 4.1 -0.05 4.0 -0.05 3.85 -0.05 3.75 0.0 3.6 0.0 3.5 0.0 3.35 0.05 3.25 0.1 3.15 0.15 3.05 0.15 3.0 0.2 2.9 0.2 2.8 0.25 2.7 0.25 2.65 0.3 2.55 0.3 2.45 0.3 2.35 0.35 2.3 0.35 2.2 0.35 2.1 0.35 2.0 0.4 1.9 0.4 1.85 0.4 1.7 0.4 1.05 0.35 0.6 0.35 0.3 0.35 0.15 0.35 0.0 0.35 -0.1 0.4 -0.25 0.4 -0.4 0.45 -0.55 0.45 -0.65 0.5 -0.8 0.5 -0.95 0.55 -1.05 0.6 -1.2 0.65 -1.35 0.7 -1.45 0.75 -1.6 0.85 -1.75 0.9 -1.85 0.95 -1.9 1.0 -1.95 1.0 -2.0 1.05 -2.05 1.1 -2.1 1.15 -2.15 1.2 -2.2 1.25 -2.25 1.3 -2.3 1.35 -2.35 1.4 -2.35 1.45 -2.4 1.5 -2.45 1.55 -2.45 1.65 -2.5 1.7 -2.55 1.75 -2.55 1.8 -2.6 1.85 -2.6 1.9 -2.6 1.95 -2.6 2.0 -2.6 2.0 -2.6 2.05 -2.55 2.1 -2.55 2.15 -2.5 2.2 -2.45 2.25 -2.4 2.3 -2.4 2.35 -2.35 2.4 -2.3 2.45 -2.25 2.5 -2.2 2.5 -2.15 2.55 -2.1 2.6 -2.05 2.6 -2.0 2.65 -1.9 2.65 -1.85 2.7 -1.8 2.7 -1.75 2.7 -1.7 2.75 -1.15 2.8 -1.15 2.8 L-1.15 2.8" fill="#030303" fill-rule="evenodd" stroke="none"/>
  </g>
</svg>
