<?xml version="1.0" encoding="UTF-8" standalone="no"?>
<svg xmlns:xlink="http://www.w3.org/1999/xlink" height="3.5px" width="10.95px" xmlns="http://www.w3.org/2000/svg">
  <g transform="matrix(1.0, 0.0, 0.0, 1.0, 0.0, 0.0)">
    <path d="M0.0 -0.6 Q0.3 -0.5 0.6 -0.4 0.9 -0.25 1.25 -0.15 1.55 -0.05 1.9 0.05 2.2 0.15 2.55 0.3 2.9 0.4 3.3 0.5 3.65 0.6 4.0 0.7 4.4 0.8 4.75 0.9 5.15 0.95 5.55 1.05 5.95 1.15 6.35 1.2 6.75 1.3 7.15 1.4 7.55 1.45 7.95 1.5 8.3 1.55 8.7 1.6 9.05 1.65 9.4 1.7 9.75 1.75 10.1 1.8 10.45 1.85 10.8 1.85 11.15 1.9 11.45 1.9 11.3 2.0 11.1 2.15 10.9 2.25 10.7 2.4 10.45 2.5 10.25 2.65 9.95 2.75 9.7 2.9 9.4 3.0 9.1 3.1 8.75 3.2 8.45 3.3 8.1 3.4 7.7 3.45 7.35 3.5 6.95 3.5 6.05 3.55 5.2 3.4 4.4 3.25 3.65 2.95 2.95 2.65 2.25 2.25 1.65 1.9 1.1 1.45 0.6 1.1 0.15 0.65 -0.2 0.25 -0.55 -0.1 -0.8 -0.4 -1.0 -0.7 -1.15 -0.85 -1.25 -1.0 -0.25 -0.7 0.0 -0.6 L0.0 -0.6" fill="#fed4ff" fill-rule="evenodd" stroke="none"/>
  </g>
</svg>
