<?xml version="1.0" encoding="UTF-8" standalone="no"?>
<svg xmlns:xlink="http://www.w3.org/1999/xlink" height="5.75px" width="30.8px" xmlns="http://www.w3.org/2000/svg">
  <g transform="matrix(1.0, 0.0, 0.0, 1.0, 15.4, 2.9)">
    <path d="M-10.2 -4.65 Q-3.3 -2.65 10.95 1.4 10.9 1.45 10.85 1.45 10.8 1.5 10.8 1.55 10.75 1.55 10.7 1.6 10.65 1.65 10.55 1.65 10.5 1.7 10.45 1.75 10.4 1.75 10.35 1.8 10.25 1.85 10.2 1.85 10.1 1.9 10.05 1.95 9.9 2.0 9.75 2.05 9.65 2.1 9.5 2.1 9.4 2.15 9.25 2.15 9.15 2.15 9.0 2.2 8.9 2.2 8.8 2.2 8.7 2.2 8.65 2.2 8.55 2.2 8.5 2.15 8.45 2.15 8.35 2.15 8.05 2.15 7.75 2.15 7.5 2.15 7.2 2.15 7.0 2.2 6.75 2.2 7.2 2.15 6.2 2.3 5.9 2.3 5.65 2.35 5.3 2.4 4.95 2.4 4.55 2.4 4.1 2.4 3.6 2.4 3.05 2.4 1.4 2.35 -1.75 1.8 -5.4 1.25 -6.15 0.85 -6.35 0.75 -6.5 0.65 -6.75 0.5 -7.0 0.35 -7.25 0.15 -7.5 -0.05 -7.8 -0.3 -8.05 -0.6 -8.35 -0.95 -8.65 -1.35 -8.95 -1.75 -9.2 -2.25 -9.5 -2.75 -9.75 -3.35 -10.0 -3.95 -10.2 -4.65 L-10.2 -4.65" fill="#c64444" fill-rule="evenodd" stroke="none"/>
  </g>
</svg>
