<?xml version="1.0" encoding="UTF-8" standalone="no"?>
<svg xmlns:xlink="http://www.w3.org/1999/xlink" height="6.65px" width="31.7px" xmlns="http://www.w3.org/2000/svg">
  <g transform="matrix(1.0, 0.0, 0.0, 1.0, 15.85, 3.35)">
    <path d="M4.9 2.75 Q3.25 2.75 1.1 2.6 -1.05 2.4 -1.7 2.3 -1.95 2.25 -2.15 2.25 -2.35 2.2 -2.6 2.15 -2.8 2.15 -3.05 2.1 -3.25 2.05 -3.5 2.0 -3.7 1.95 -3.9 1.9 -4.15 1.85 -4.35 1.8 -4.55 1.75 -4.8 1.7 -5.0 1.6 -5.2 1.55 -5.4 1.5 -5.6 1.4 -5.8 1.35 -5.95 1.25 -6.15 1.15 -6.35 1.1 -6.5 1.0 -6.7 0.9 -6.85 0.75 -7.0 0.65 -7.2 0.55 -7.35 0.4 -7.5 0.3 -7.65 0.15 -7.8 0.05 -7.95 -0.1 -8.1 -0.25 -8.25 -0.4 -8.4 -0.55 -8.55 -0.7 -8.65 -0.85 -8.8 -1.0 -8.95 -1.15 -9.05 -1.3 -9.2 -1.45 -9.3 -1.6 -9.45 -1.75 -9.55 -1.9 -9.7 -2.05 -9.8 -2.25 -9.95 -2.4 -10.05 -2.55 -10.7 -3.5 -11.0 -4.05 -11.0 -4.1 -11.05 -4.1 -11.05 -4.15 -11.1 -4.15 -11.15 -4.2 -11.15 -4.2 -11.2 -4.25 -11.25 -4.25 -11.3 -4.3 -11.35 -4.35 -11.4 -4.4 -11.45 -4.4 -11.5 -4.45 -11.55 -4.5 -11.6 -4.55 -11.65 -4.6 -11.7 -4.6 -11.75 -4.65 -11.8 -4.7 -11.8 -4.75 -11.85 -4.8 -11.9 -4.8 -11.95 -4.85 -11.95 -4.85 -12.0 -4.9 -12.0 -4.95 -12.05 -4.95 -12.05 -5.0 -12.1 -5.05 -12.1 -5.05 -12.15 -5.1 -12.15 -5.15 -12.15 -5.2 -12.2 -5.2 -12.2 -5.25 -12.2 -5.3 -12.2 -5.35 -12.2 -5.35 -12.2 -5.4 -12.2 -5.45 -12.2 -5.45 -12.25 -5.5 -12.25 -5.55 -12.2 -5.55 -12.2 -5.6 -12.2 -5.65 -12.2 -5.65 -12.2 -5.7 -12.15 -5.75 -12.15 -5.75 -12.15 -5.8 -12.1 -5.8 -12.1 -5.85 -12.05 -5.85 -12.0 -5.9 -12.0 -5.9 -11.95 -5.9 -11.95 -5.95 -11.9 -5.95 -11.85 -5.95 -11.85 -6.0 -11.8 -6.0 -11.75 -6.0 -11.75 -6.0 -11.7 -6.0 -11.65 -6.0 -11.6 -6.0 -11.6 -6.0 -11.55 -6.0 -11.5 -5.95 -11.45 -5.95 -11.45 -5.9 -11.4 -5.9 -11.35 -5.9 -11.3 -5.85 -11.3 -5.85 -10.95 -5.55 -10.9 -5.5 -10.9 -5.5 -10.85 -5.45 -10.8 -5.45 -10.8 -5.4 -10.75 -5.4 -10.75 -5.4 -10.7 -5.35 -10.7 -5.35 -10.65 -5.35 -10.6 -5.3 -10.6 -5.3 -10.55 -5.3 -10.5 -5.25 -10.5 -5.25 -10.45 -5.25 -10.4 -5.25 -9.9 -5.05 -9.4 -4.9 -8.85 -4.7 -8.35 -4.55 -7.85 -4.35 -7.3 -4.2 -6.8 -4.0 -6.3 -3.85 -5.75 -3.7 -5.25 -3.5 -4.75 -3.35 -4.2 -3.2 -3.7 -3.05 -3.15 -2.9 -2.65 -2.75 -2.1 -2.6 1.05 -1.65 5.0 -0.6 8.35 0.25 9.65 0.55 10.8 0.8 11.45 0.9 11.55 0.9 11.75 0.9 11.95 0.85 12.05 0.85 12.1 0.85 12.35 0.85 12.4 0.85 12.4 0.85 12.45 0.85 12.5 0.9 12.5 0.9 12.55 0.9 12.55 0.9 12.6 0.95 12.65 0.95 12.65 0.95 12.7 1.0 12.7 1.0 12.75 1.05 12.75 1.05 12.8 1.05 12.8 1.1 12.85 1.15 12.85 1.2 12.9 1.25 12.9 1.3 12.95 1.3 12.95 1.35 12.95 1.4 12.95 1.45 12.95 1.5 12.95 1.55 12.9 1.6 12.9 1.65 12.85 1.7 12.85 1.75 12.8 1.8 12.75 1.8 12.7 1.85 12.7 1.85 12.65 1.9 12.6 1.9 12.6 1.95 12.55 1.95 12.5 2.0 12.45 2.0 12.4 2.0 12.4 2.05 12.3 2.05 12.3 2.1 12.2 2.1 12.15 2.1 12.1 2.1 12.05 2.15 12.0 2.15 11.95 2.15 11.9 2.15 11.8 2.15 11.75 2.15 11.7 2.2 11.65 2.2 11.6 2.2 11.55 2.2 11.5 2.2 11.4 2.2 11.3 2.2 11.2 2.2 11.1 2.2 11.0 2.2 10.9 2.2 10.8 2.2 10.7 2.25 10.6 2.25 10.5 2.25 10.4 2.25 10.3 2.3 10.25 2.3 10.15 2.35 10.05 2.35 9.95 2.35 9.75 2.4 9.55 2.45 9.4 2.45 9.2 2.5 9.0 2.5 8.8 2.55 8.6 2.55 8.4 2.6 8.2 2.6 8.0 2.65 7.85 2.65 7.65 2.65 7.45 2.7 7.25 2.7 7.05 2.7 6.85 2.7 6.0 2.75 4.9 2.75 L4.9 2.75 M7.8 1.65 Q7.9 1.65 8.0 1.65 8.1 1.65 8.15 1.65 8.25 1.6 8.35 1.6 8.45 1.6 8.55 1.6 8.6 1.6 8.7 1.55 8.8 1.55 8.9 1.55 8.95 1.55 9.05 1.5 9.15 1.5 9.25 1.5 7.7 1.1 5.55 0.55 5.55 0.55 5.5 0.85 5.5 1.0 5.5 1.1 5.45 1.25 5.45 1.45 5.4 1.75 5.4 1.75 5.45 1.75 5.5 1.75 5.5 1.75 5.55 1.75 5.65 1.75 5.75 1.75 5.85 1.75 5.95 1.75 6.05 1.75 6.15 1.75 6.25 1.75 6.35 1.75 6.45 1.75 6.55 1.75 6.65 1.75 6.75 1.75 6.85 1.75 6.95 1.7 7.05 1.7 7.15 1.7 7.6 1.7 7.8 1.65 L7.8 1.65 M-9.35 -3.3 Q-9.35 -3.25 -9.3 -3.2 -9.2 -3.05 -9.1 -2.9 -9.0 -2.8 -8.9 -2.65 -8.8 -2.5 -8.7 -2.35 -8.6 -2.25 -8.5 -2.1 -8.35 -1.95 -8.25 -1.85 -8.15 -1.7 -8.05 -1.6 -7.9 -1.45 -7.8 -1.35 -7.65 -1.2 -7.55 -1.1 -7.5 -1.05 -7.4 -0.95 -7.35 -0.9 -7.3 -0.85 -7.2 -0.75 -7.15 -0.7 -7.1 -0.65 -7.0 -0.55 -6.95 -0.5 -6.85 -0.45 -6.8 -0.4 -6.75 -0.35 -6.65 -0.3 -6.6 -0.25 -6.5 -0.2 -6.45 -0.15 -6.4 -0.1 -6.4 -0.1 -6.35 -0.1 -6.3 -0.1 -6.3 -0.25 -6.25 -0.45 -6.25 -0.8 -6.25 -0.8 -6.15 -1.7 -6.1 -2.3 -6.1 -2.35 -6.1 -2.4 -6.1 -2.4 -6.1 -2.45 -6.05 -2.5 -6.05 -2.55 -6.1 -2.6 -6.1 -2.6 -6.1 -2.75 -6.1 -2.75 -6.1 -2.75 -6.2 -2.8 -6.4 -2.85 -6.65 -2.95 -6.85 -3.0 -7.1 -3.05 -7.3 -3.15 -7.5 -3.2 -7.75 -3.3 -7.95 -3.35 -8.15 -3.45 -8.4 -3.5 -8.6 -3.55 -8.8 -3.65 -9.05 -3.7 -9.25 -3.8 -9.45 -3.85 -9.7 -3.95 -9.8 -3.95 -9.8 -3.95 -9.55 -3.55 -9.35 -3.3 L-9.35 -3.3 M4.5 0.85 Q4.5 0.8 4.55 0.75 4.55 0.75 4.55 0.7 4.55 0.65 4.55 0.6 4.55 0.5 4.55 0.5 4.55 0.45 4.6 0.4 4.6 0.35 4.6 0.35 4.6 0.3 4.55 0.3 4.5 0.25 4.45 0.25 4.45 0.25 4.45 0.25 4.4 0.25 4.4 0.25 3.35 -0.05 1.2 -0.65 0.8 -0.75 0.05 -0.95 0.0 -0.55 -0.05 -0.4 -0.05 -0.15 -0.15 0.4 -0.2 0.6 -0.2 0.9 -0.3 1.25 -0.3 1.35 -0.3 1.4 -0.3 1.45 -0.3 1.5 -0.2 1.5 0.05 1.5 0.8 1.6 1.45 1.65 1.85 1.65 2.55 1.7 3.45 1.75 4.0 1.75 4.3 1.75 4.4 1.75 4.4 1.7 4.4 1.65 4.4 1.6 4.45 1.55 4.45 1.5 4.45 1.45 4.45 1.4 4.45 1.35 4.5 1.3 4.5 1.25 4.5 1.2 4.5 1.15 4.5 1.1 4.5 1.0 4.5 0.95 4.5 0.9 4.5 0.85 L4.5 0.85 M-5.1 -2.0 Q-5.1 -1.95 -5.15 -1.95 -5.15 -1.9 -5.15 -1.85 -5.15 -1.8 -5.15 -1.8 -5.25 -0.45 -5.35 0.2 -5.4 0.35 -5.4 0.35 -5.4 0.45 -5.35 0.45 -5.3 0.5 -5.15 0.55 -5.0 0.6 -4.85 0.65 -4.7 0.7 -4.55 0.75 -4.4 0.75 -4.25 0.8 -4.1 0.85 -3.95 0.9 -3.8 0.9 -3.65 0.95 -3.5 1.0 -3.35 1.0 -3.2 1.05 -3.05 1.1 -2.9 1.1 -2.75 1.15 -2.65 1.15 -2.6 1.2 -2.5 1.2 -2.4 1.2 -2.35 1.2 -2.25 1.25 -2.15 1.25 -2.1 1.25 -2.0 1.25 -1.9 1.3 -1.85 1.3 -1.75 1.3 -1.65 1.3 -1.6 1.3 -1.5 1.35 -1.4 1.35 -1.3 1.35 -1.3 1.35 -1.3 1.35 -1.25 1.2 -1.25 1.2 -1.25 1.15 -1.25 1.0 -1.15 0.65 -1.1 0.3 -1.1 0.1 -1.0 -0.6 -1.0 -0.7 -1.0 -0.75 -0.95 -0.8 -0.95 -0.85 -0.95 -0.9 -0.95 -0.9 -0.95 -0.95 -0.95 -1.05 -0.95 -1.05 -0.95 -1.1 -0.9 -1.15 -0.9 -1.25 -1.0 -1.25 -1.0 -1.25 -1.05 -1.25 -1.6 -1.4 -2.8 -1.75 -3.95 -2.1 -4.55 -2.3 -4.75 -2.35 -5.1 -2.45 -5.15 -2.1 -5.1 -2.0 L-5.1 -2.0" fill="#030202" fill-rule="evenodd" stroke="none"/>
    <path d="M4.5 0.85 Q4.3 0.85 3.35 0.6 2.25 0.3 0.8 -0.15 0.0 -0.4 -0.05 -0.4 -0.05 -0.5 0.0 -0.65 0.05 -0.85 0.05 -0.95 0.45 -0.85 1.2 -0.65 2.25 -0.35 4.4 0.25 4.4 0.25 4.45 0.25 4.45 0.25 4.45 0.25 4.5 0.25 4.55 0.3 4.55 0.3 4.6 0.35 4.6 0.35 4.6 0.4 4.6 0.45 4.6 0.5 4.55 0.55 4.55 0.6 4.55 0.55 4.55 0.7 4.55 0.75 4.55 0.8 4.55 0.85 4.5 0.85 L4.5 0.85" fill="#000000" fill-opacity="0.18039216" fill-rule="evenodd" stroke="none"/>
    <path d="M-1.0 -0.7 Q-1.0 -0.7 -1.15 -0.75 -1.65 -0.9 -2.55 -1.2 -3.5 -1.5 -5.05 -2.0 -5.05 -2.0 -5.1 -2.0 -5.1 -2.05 -5.1 -2.1 -5.1 -2.15 -5.1 -2.2 -5.1 -2.2 -5.1 -2.25 -5.1 -2.3 -5.1 -2.35 -5.1 -2.4 -5.1 -2.45 -5.0 -2.4 -4.8 -2.35 -4.6 -2.3 -4.55 -2.3 -3.4 -1.95 -1.05 -1.25 -1.05 -1.25 -1.0 -1.25 -0.9 -1.25 -0.9 -1.15 -0.95 -1.05 -0.95 -0.95 -0.95 -0.8 -1.0 -0.7 L-1.0 -0.7" fill="#000000" fill-opacity="0.18039216" fill-rule="evenodd" stroke="none"/>
    <path d="M5.5 1.1 Q5.5 1.05 5.5 1.05 5.5 1.0 5.5 0.95 5.5 0.95 5.5 0.9 5.5 0.85 5.5 0.85 5.5 0.8 5.5 0.75 5.55 0.7 5.55 0.7 5.55 0.65 5.55 0.6 5.55 0.6 5.55 0.55 8.2 1.25 9.25 1.5 8.15 1.65 7.8 1.65 7.6 1.6 7.3 1.55 6.85 1.45 6.75 1.4 6.35 1.3 5.5 1.1 L5.5 1.1" fill="#000000" fill-opacity="0.18039216" fill-rule="evenodd" stroke="none"/>
    <path d="M-6.1 -2.3 Q-6.95 -2.6 -8.4 -3.05 -8.8 -3.15 -9.3 -3.3 -9.35 -3.35 -9.35 -3.3 -9.5 -3.5 -9.8 -3.95 -9.75 -3.95 -9.75 -3.95 -9.8 -3.95 -9.7 -3.95 -8.1 -3.4 -6.2 -2.8 -6.1 -2.75 -6.1 -2.75 -6.1 -2.75 -6.1 -2.6 -6.1 -2.55 -6.1 -2.5 -6.1 -2.45 -6.1 -2.4 -6.1 -2.35 -6.1 -2.3 L-6.1 -2.3" fill="#000000" fill-opacity="0.18039216" fill-rule="evenodd" stroke="none"/>
  </g>
</svg>
