<?xml version="1.0" encoding="UTF-8" standalone="no"?>
<svg xmlns:xlink="http://www.w3.org/1999/xlink" height="26.8px" width="23.75px" xmlns="http://www.w3.org/2000/svg">
  <g transform="matrix(1.0, 0.0, 0.0, 1.0, 11.9, 18.6)">
    <path d="M-13.6 -10.1 Q-13.4 -10.25 -13.2 -10.35 -13.05 -10.4 -12.8 -10.5 -12.65 -10.5 -12.4 -10.55 -12.45 -10.55 -11.95 -10.6 -11.7 -10.65 -11.5 -10.7 -11.25 -10.75 -11.05 -10.8 -10.8 -10.9 -10.6 -11.05 -10.4 -11.2 -10.15 -11.4 -10.1 -11.45 -10.05 -11.5 -10.0 -11.55 -9.95 -11.6 -9.9 -11.65 -9.85 -11.7 -9.85 -11.75 -9.8 -11.8 -9.75 -11.85 -9.7 -11.9 -9.7 -11.95 -9.65 -12.0 -9.65 -12.05 -9.6 -12.05 -9.6 -12.1 -9.55 -12.15 -9.45 -12.3 -9.35 -12.45 -9.3 -12.6 -9.2 -12.75 -9.15 -12.9 -9.1 -13.05 -9.05 -13.15 -9.0 -13.3 -9.0 -13.4 -8.95 -13.6 -8.9 -13.8 -8.85 -13.9 -8.8 -14.05 -8.75 -14.2 -8.7 -14.35 -8.65 -14.5 -8.55 -14.65 -8.55 -14.7 -8.5 -14.85 -8.45 -14.9 -8.4 -15.05 -8.35 -15.15 -8.3 -15.25 -8.25 -15.35 -8.2 -15.45 -8.1 -15.55 -8.05 -15.65 -8.0 -15.75 -7.9 -15.85 -7.8 -15.95 -7.75 -16.05 -7.65 -16.15 -7.45 -16.35 -7.2 -16.45 -6.95 -16.6 -6.65 -16.7 -6.4 -16.8 -6.1 -16.8 -5.8 -16.85 -5.5 -16.85 -5.2 -16.85 -4.9 -16.85 -4.6 -16.8 -4.3 -16.75 -4.0 -16.65 -3.7 -16.6 -3.45 -16.5 -3.2 -16.35 -2.95 -16.25 -2.75 -16.1 -2.55 -15.95 -2.35 -15.8 -2.15 -15.65 -2.0 -15.5 -1.85 -15.35 -1.7 -15.2 -1.55 -15.05 -1.45 -14.9 -1.35 -14.75 -1.25 -14.6 -1.15 -14.5 -1.1 -14.35 -1.05 -14.25 -0.95 -14.15 -0.85 -14.15 -0.7 -14.2 -0.6 -14.2 -0.5 -14.2 -0.35 -14.25 -0.25 -14.25 -0.1 -14.25 0.05 -14.3 0.15 -14.3 0.3 -14.3 0.4 -14.3 0.55 -14.35 0.7 -14.35 0.8 -14.35 0.95 -14.35 1.1 -14.35 1.45 -14.35 1.8 -14.4 2.15 -14.4 2.5 -14.4 2.85 -14.4 3.15 -14.35 3.5 -14.35 3.8 -14.3 4.1 -14.3 4.4 -14.25 4.7 -14.2 5.0 -14.2 5.3 -14.15 5.55 -14.1 5.8 -14.05 6.1 -14.0 6.15 -14.05 6.2 -14.1 6.25 -14.2 6.3 -14.3 6.35 -14.35 6.45 -14.45 6.55 -14.55 6.65 -14.65 6.75 -14.75 6.9 -14.85 7.0 -14.95 7.15 -15.05 7.3 -15.15 7.45 -15.2 7.65 -15.3 7.85 -15.35 7.9 -15.4 8.0 -15.4 8.1 -15.45 8.2 -15.45 8.35 -15.5 8.45 -15.5 8.6 -15.55 8.75 -15.55 8.9 -15.55 9.1 -15.55 9.25 -15.55 9.4 -15.5 9.6 -15.45 9.75 -15.4 9.9 -15.3 10.05 -15.2 10.15 -15.15 10.25 -15.05 10.35 -14.95 10.4 -14.85 10.5 -14.75 10.55 -14.65 10.6 -14.55 10.65 -14.45 10.7 -14.35 10.75 -14.25 10.75 -14.15 10.8 -14.05 10.8 -13.95 10.85 -13.8 10.85 -13.75 10.9 -13.6 10.95 -13.45 10.95 -13.25 11.0 -13.1 11.0 -12.95 11.0 -12.8 11.0 -12.6 11.0 -12.5 11.0 -12.35 11.0 -12.2 11.0 -12.05 11.0 -11.95 10.95 -11.8 10.95 -11.7 10.95 -11.55 10.95 -11.55 10.9 -11.3 10.8 -10.6 10.7 -9.4 10.6 -8.0 10.5 -7.45 10.1 -4.0 10.15 -3.4 10.15 -3.1 10.15 -2.95 10.2 -2.7 10.2 -2.5 10.2 -2.3 10.25 -2.1 10.25 -1.9 10.3 -1.7 10.3 -1.5 10.35 -1.3 10.4 -1.1 10.5 -0.9 10.55 -0.7 10.65 -0.5 10.7 -0.3 10.85 -0.1 10.9 0.05 11.0 0.15 11.05 0.25 11.15 0.4 11.2 0.45 11.3 0.55 11.4 0.7 11.4 0.75 11.5 0.85 11.55 0.95 11.6 1.05 11.65 1.15 11.7 1.25 11.75 1.35 11.8 1.5 11.85 1.65 11.85 1.75 11.9 1.8 11.9 1.9 11.9 1.95 11.95 2.05 11.95 2.15 11.95 2.25 11.95 2.4 11.95 2.5 11.95 2.7 11.95 2.85 11.95 3.05 11.9 3.25 11.9 3.5 11.9 3.7 11.85 4.0 11.8 4.55 11.75 5.0 11.7 5.4 11.65 5.75 11.6 6.1 11.55 6.35 11.5 6.6 11.4 6.8 11.4 7.0 11.35 7.1 11.3 7.25 11.25 7.3 11.2 7.4 11.15 7.45 11.1 7.5 11.05 7.55 11.0 7.6 10.95 7.65 10.9 7.7 10.8 7.75 10.75 7.8 10.65 7.85 10.55 7.9 10.45 7.95 10.35 8.0 10.25 8.05 10.1 8.05 9.95 8.1 9.8 8.15 9.65 8.15 9.5 8.2 9.3 8.2 9.15 8.15 9.0 8.1 8.8 8.05 8.65 8.0 8.45 7.95 8.3 7.9 8.1 7.85 7.9 7.8 7.7 7.75 7.5 7.75 7.25 7.7 7.05 7.65 6.8 7.6 6.55 7.55 6.3 7.5 6.1 7.45 5.6 7.35 5.45 7.35 5.1 7.3 4.8 7.25 4.5 7.2 4.2 7.2 3.85 7.15 3.55 7.15 3.2 7.1 2.9 7.1 2.55 7.1 2.2 7.1 1.85 7.1 1.5 7.15 1.15 7.2 0.8 7.25 0.45 7.3 0.1 7.35 -0.25 7.45 -0.55 7.55 -0.9 7.65 -1.2 7.75 -1.5 7.85 -1.85 8.0 -2.15 8.1 -2.55 8.3 -2.85 8.45 -3.25 8.65 -3.55 8.8 -4.0 9.0 -4.3 9.15 -4.9 9.45 -5.15 9.6 -5.4 9.7 -5.65 9.85 -5.9 10.0 -6.15 10.1 -6.35 10.25 -6.55 10.4 -6.8 10.5 -7.0 10.6 -7.2 10.75 -7.35 10.85 -7.55 10.95 -7.7 11.05 -7.85 11.2 -8.0 11.25 -8.15 11.35 -8.25 11.3 -8.4 11.2 -8.55 11.1 -8.65 11.05 -8.8 10.95 -8.95 10.85 -9.1 10.7 -9.25 10.6 -9.45 10.45 -9.6 10.3 -9.75 10.15 -9.9 10.0 -10.05 9.85 -10.25 9.7 -10.4 9.5 -10.55 9.3 -10.65 9.2 -10.7 9.1 -10.8 8.95 -10.9 8.85 -11.05 8.65 -11.15 8.45 -11.3 8.25 -11.4 8.0 -11.55 7.7 -11.7 7.45 -11.85 7.15 -11.95 6.8 -12.1 6.45 -12.2 6.1 -12.3 5.7 -12.4 5.3 -12.45 4.95 -12.5 4.65 -12.55 4.4 -12.55 4.15 -12.55 3.95 -12.5 3.75 -12.5 3.6 -12.45 3.35 -12.45 3.1 -12.4 2.95 -12.4 2.7 -12.4 2.5 -12.4 2.25 -12.4 1.95 -12.4 1.65 -12.45 1.25 -12.5 1.0 -12.55 0.8 -12.55 0.6 -12.6 0.45 -12.65 0.3 -12.75 0.1 -12.75 -0.05 -12.85 -0.3 -13.0 -0.65 -13.05 -0.8 -13.15 -1.15 -13.3 -1.45 -13.4 -1.85 -13.55 -2.35 -13.75 -2.85 -13.9 -3.5 -14.0 -3.9 -14.1 -4.25 -14.2 -4.6 -14.3 -4.85 -14.35 -5.15 -14.45 -5.4 -14.5 -5.6 -14.5 -5.8 -14.55 -6.0 -14.6 -6.2 -14.6 -6.35 -14.6 -6.5 -14.6 -6.65 -14.6 -6.8 -14.6 -6.95 -14.6 -7.1 -14.6 -7.35 -14.6 -7.5 -14.55 -7.75 -14.55 -7.9 -14.5 -8.15 -14.5 -8.3 -14.45 -8.55 -14.4 -8.7 -14.35 -8.95 -14.3 -9.1 -14.2 -9.3 -14.1 -9.45 -14.0 -9.65 -13.9 -9.8 -13.75 -9.95 -13.6 -10.1 L-13.6 -10.1" fill="#4c938e" fill-rule="evenodd" stroke="none"/>
  </g>
</svg>
