<?xml version="1.0" encoding="UTF-8" standalone="no"?>
<svg xmlns:xlink="http://www.w3.org/1999/xlink" height="200.0px" width="200.0px" xmlns="http://www.w3.org/2000/svg">
  <g transform="matrix(1.0, 0.0, 0.0, 1.0, 100.0, 100.0)">
    <path d="M-10.4 -8.75 Q-6.55 -9.0 1.1 -9.45 1.5 -9.4 1.9 -9.4 2.35 -9.35 2.75 -9.3 3.15 -9.25 3.6 -9.2 4.0 -9.15 4.45 -9.1 4.9 -9.05 5.3 -9.0 5.75 -8.95 6.2 -8.9 6.65 -8.8 7.1 -8.75 7.55 -8.7 8.0 -8.6 8.3 -8.55 8.55 -8.5 8.85 -8.45 9.15 -8.4 9.4 -8.35 9.7 -8.35 10.0 -8.3 10.25 -8.25 10.55 -8.2 10.8 -8.1 11.1 -8.05 11.35 -8.0 11.65 -7.95 11.9 -7.9 12.2 -7.85 12.45 -7.8 12.45 -7.65 12.45 -7.5 12.45 -7.3 12.45 -7.15 12.45 -6.95 12.4 -6.75 12.4 -6.55 12.4 -6.35 12.4 -6.1 12.4 -5.9 12.35 -5.65 12.35 -5.4 12.35 -5.15 12.3 -4.9 12.3 -4.65 12.25 -4.35 12.2 -3.85 12.15 -3.35 12.1 -2.95 12.05 -2.55 12.0 -2.2 11.95 -1.85 11.9 -1.55 11.8 -1.2 11.5 0.55 11.7 -0.55 11.65 -0.2 11.6 0.1 11.5 0.5 11.45 0.85 11.4 1.3 11.35 1.75 11.25 2.6 11.2 3.0 11.15 3.65 11.1 4.1 11.05 4.65 11.0 5.1 10.95 5.55 10.95 5.95 10.95 6.35 10.95 6.7 10.95 7.05 11.0 7.4 11.05 7.7 11.1 8.0 11.15 8.3 11.25 8.6 11.35 8.8 11.45 9.05 11.5 9.25 11.65 9.55 11.8 9.85 11.85 10.0 12.0 10.25 12.05 10.45 12.15 10.7 12.25 10.95 12.35 11.25 12.4 11.5 12.45 11.8 12.5 12.1 12.55 12.4 12.55 12.75 12.55 12.9 12.55 13.05 12.55 13.25 12.5 13.4 12.5 13.55 12.5 13.7 12.5 13.85 12.45 13.95 12.45 14.1 12.4 14.25 12.4 14.35 12.4 14.45 12.35 14.6 12.35 14.7 12.3 14.75 12.3 14.85 12.25 15.15 12.15 15.4 12.1 15.6 12.05 15.8 11.95 15.95 11.9 16.15 11.85 16.25 11.75 16.45 11.6 16.7 11.6 16.75 11.55 16.9 11.45 17.05 11.4 17.25 11.35 17.4 11.25 17.65 11.2 17.9 11.15 18.05 11.15 18.15 11.1 18.3 11.05 18.5 11.05 18.7 11.0 18.85 10.95 19.1 10.95 19.35 10.95 19.6 10.95 19.85 10.95 20.15 10.95 20.4 10.95 20.7 11.0 21.0 11.05 21.3 11.15 21.6 11.2 21.8 11.25 22.0 11.35 22.15 11.4 22.3 11.45 22.4 11.5 22.5 11.55 22.55 11.65 22.7 11.7 22.85 11.75 22.9 11.8 23.0 11.85 23.15 11.9 23.25 11.95 23.4 11.95 23.55 12.0 23.7 12.05 23.9 12.05 24.1 12.05 24.3 12.05 24.55 12.05 24.75 12.0 25.0 12.0 25.2 11.95 25.45 11.9 25.65 11.8 25.85 11.75 26.1 11.65 26.25 11.5 26.45 11.4 26.65 11.25 26.8 11.1 26.95 10.95 27.1 10.75 27.2 10.6 27.3 10.4 27.35 10.2 27.4 10.0 27.45 9.8 27.45 9.6 27.45 9.4 27.5 9.2 27.45 9.0 27.45 8.8 27.45 8.6 27.45 8.4 27.4 8.35 27.4 8.0 27.35 7.3 27.2 5.15 27.0 2.15 26.7 0.55 26.8 -0.1 26.85 -0.7 26.95 -1.25 27.05 -1.75 27.25 -2.2 27.4 -2.75 27.6 -3.05 27.75 -3.7 28.05 -4.35 28.4 -4.75 28.55 -5.4 28.85 -6.0 29.1 -6.75 29.35 -7.6 29.6 -8.5 29.85 -9.55 30.05 -9.8 30.1 -10.05 30.15 -10.25 30.2 -10.5 30.25 -10.7 30.25 -10.9 30.3 -11.1 30.35 -11.35 30.35 -11.5 30.4 -11.7 30.4 -11.9 30.45 -12.05 30.45 -12.2 30.5 -12.4 30.5 -12.5 30.5 -12.65 30.5 -12.95 30.3 -13.25 30.1 -13.5 29.9 -13.75 29.7 -13.95 29.55 -14.15 29.35 -14.3 29.15 -14.45 28.95 -14.6 28.75 -14.7 28.6 -14.85 28.4 -14.9 28.25 -15.0 28.1 -15.05 27.95 -15.1 27.8 -15.15 27.7 -15.2 27.55 -15.25 27.35 -15.3 27.2 -15.3 27.0 -15.3 26.8 -15.35 26.6 -15.35 26.4 -15.35 26.15 -15.35 25.95 -15.3 25.65 -15.3 25.4 -15.3 25.1 -15.25 24.85 -15.2 24.45 -15.2 24.2 -15.15 23.75 -15.1 23.3 -15.05 22.9 -15.0 22.55 -15.0 22.25 -14.95 22.0 -14.9 21.75 -14.85 21.3 -14.85 21.4 -14.8 21.2 -14.8 21.1 -14.8 20.95 -14.8 20.85 -14.8 20.7 -14.8 20.6 -14.8 20.45 -14.85 20.3 -14.9 20.0 -15.0 19.7 -15.1 19.5 -15.2 19.25 -15.3 19.05 -15.45 18.85 -15.55 18.75 -15.7 18.55 -15.85 18.35 -15.95 18.2 -16.05 18.0 -16.15 17.85 -16.25 17.65 -16.3 17.4 -16.4 17.15 -16.4 16.85 -16.45 16.65 -16.45 16.4 -16.45 16.2 -16.4 16.0 -16.4 15.75 -16.35 15.55 -16.3 15.35 -16.25 15.15 -16.2 15.0 -16.15 14.8 -16.1 14.65 -16.05 14.45 -16.0 14.35 -15.9 14.15 -15.9 14.05 -15.8 13.9 -15.75 13.75 -15.65 13.6 -15.6 13.5 -15.55 13.35 -15.5 13.25 -15.4 13.15 -15.4 13.1 -15.3 12.95 -15.2 12.8 -15.15 12.75 -15.1 12.6 -15.0 12.45 -14.9 12.3 -14.85 12.15 -14.7 11.95 -14.6 11.7 -14.5 11.55 -14.45 11.35 -14.35 11.2 -14.3 11.0 -14.25 10.85 -14.15 10.7 -14.1 10.55 -14.05 10.4 -14.0 10.25 -13.95 10.1 -13.9 10.0 -13.85 9.85 -13.8 9.75 -13.75 9.6 -13.75 9.5 -13.7 9.4 -13.55 9.0 -13.45 8.65 -13.4 8.45 -13.35 8.1 -13.25 7.7 -13.2 7.5 -13.1 7.1 -12.95 6.65 -12.8 6.2 -12.7 5.9 -12.6 5.7 -12.5 5.45 -12.4 5.25 -12.35 5.1 -12.3 4.9 -12.2 4.6 -12.05 4.1 -11.75 1.55 -11.7 1.0 -11.6 0.55 -11.55 0.3 -11.5 -0.25 -11.4 -0.8 -11.3 -1.25 -10.85 -4.65 -10.4 -8.75 L-10.4 -8.75" fill="#434343" fill-rule="evenodd" stroke="none"/>
  </g>
</svg>
