<?xml version="1.0" encoding="UTF-8" standalone="no"?>
<svg xmlns:xlink="http://www.w3.org/1999/xlink" height="7.9px" width="20.55px" xmlns="http://www.w3.org/2000/svg">
  <g transform="matrix(1.0, 0.0, 0.0, 1.0, 10.25, 3.95)">
    <path d="M-10.25 -3.95 Q-9.1 -3.25 -8.0 -2.6 -7.8 -2.55 -7.6 -2.45 -7.4 -2.4 -7.2 -2.35 -7.0 -2.3 -6.8 -2.25 -6.6 -2.2 -6.4 -2.15 -6.15 -2.1 -5.95 -2.05 -5.7 -2.0 -5.5 -1.95 -5.25 -1.9 -5.0 -1.85 -4.75 -1.85 -4.5 -1.8 -4.0 -1.75 -3.55 -1.7 -3.1 -1.65 -2.6 -1.65 -2.2 -1.6 -1.75 -1.65 -1.35 -1.65 -0.9 -1.65 -0.5 -1.65 -0.1 -1.7 0.25 -1.75 0.6 -1.8 0.95 -1.85 1.3 -1.9 1.65 -1.95 1.95 -2.0 1.95 -2.05 1.95 -2.1 1.9 -2.15 1.9 -2.2 1.9 -2.25 1.85 -2.3 1.85 -2.35 1.85 -2.4 1.8 -2.5 1.8 -2.55 1.75 -2.6 1.75 -2.65 1.7 -2.75 1.7 -2.8 1.65 -2.85 1.6 -2.95 1.55 -3.1 1.45 -3.2 1.4 -3.3 1.35 -3.45 1.25 -3.55 1.2 -3.65 1.1 -3.7 1.05 -3.8 1.0 -3.9 0.9 -3.95 0.85 -4.05 0.8 -4.1 1.45 -3.4 0.65 -4.25 0.6 -4.3 0.55 -4.35 0.4 -4.5 0.25 -4.7 0.15 -4.9 0.05 -5.1 -0.05 -5.25 -0.15 -5.45 -0.2 -5.65 -0.3 -5.85 -0.35 -6.0 -0.4 -6.2 -0.4 -6.4 -0.45 -6.55 -0.5 -6.7 -0.5 -6.9 -0.5 -7.0 -0.55 -7.15 -0.6 -7.35 -0.6 -7.6 -0.6 -7.85 -0.6 -8.15 -0.6 -8.4 -0.6 -8.65 -0.6 -8.95 -0.55 -9.2 -0.5 -9.45 -0.45 -9.7 -0.35 -9.9 -0.3 -10.1 -0.2 -10.3 -0.05 -10.4 0.05 -10.55 0.2 -10.6 0.35 -10.65 0.55 -10.6 0.75 -10.6 0.95 -10.45 1.1 -10.35 1.3 -10.2 1.5 -10.05 1.7 -9.85 1.9 -9.65 2.1 -9.45 2.25 -9.25 2.45 -9.0 2.6 -8.85 2.75 -8.6 2.85 -8.5 3.0 -8.25 3.2 -8.0 3.4 -7.7 3.55 -7.4 3.75 -7.15 3.9 -6.85 4.05 -6.6 4.15 -6.35 4.3 -6.05 4.4 -5.85 4.5 -5.55 4.6 -5.35 4.7 -5.1 4.75 -4.9 4.85 -4.65 4.9 -4.45 4.95 -4.25 5.95 -4.3 7.5 -4.4 7.55 -4.75 7.6 -5.05 7.65 -5.4 7.7 -5.7 7.75 -5.95 7.85 -6.25 7.9 -6.5 8.0 -6.75 8.1 -7.0 8.2 -7.2 8.25 -7.45 8.35 -7.65 8.45 -7.8 8.55 -8.0 8.65 -8.15 8.7 -8.3 8.85 -8.55 8.9 -8.6 9.0 -8.8 9.1 -8.95 9.2 -9.1 9.3 -9.25 9.45 -9.45 9.55 -9.55 9.7 -9.7 9.8 -9.85 9.95 -9.95 10.05 -10.05 10.2 -10.15 10.3 -10.15 10.45 -10.2 10.6 -10.2 10.75 -10.2 10.85 -10.1 10.95 -10.05 11.05 -9.9 11.15 -9.8 11.25 -9.65 11.35 -9.5 11.4 -9.3 11.45 -9.15 11.55 -8.95 11.6 -8.8 11.65 -8.6 11.65 -8.45 11.7 -8.3 11.75 -8.15 11.75 -8.0 11.8 -7.6 11.8 -7.15 11.75 -6.8 11.7 -6.4 11.6 -6.0 11.45 -5.65 11.35 -5.3 11.2 -5.0 11.05 -4.7 10.85 -4.4 10.7 -4.15 10.5 -3.85 10.35 -3.65 10.2 -3.45 10.05 -3.3 9.9 -3.15 9.9 -3.1 9.95 -3.05 9.95 -3.0 9.95 -2.95 10.05 -2.85 10.1 -2.75 10.2 -2.6 10.3 -2.5 10.45 -2.35 10.5 -2.2 10.65 -2.0 10.7 -1.8 10.8 -1.6 10.9 -1.4 11.0 -1.2 11.05 -0.95 11.1 -0.7 11.1 -0.5 11.1 -0.2 11.1 0.05 11.1 0.15 11.05 0.3 11.05 0.45 11.0 0.55 11.0 0.7 10.95 0.8 10.9 0.95 10.85 1.05 10.8 1.15 10.8 1.3 10.75 1.4 10.7 1.5 10.65 1.6 10.6 1.7 10.6 1.75 10.55 1.85 10.5 1.95 10.45 2.05 10.4 2.15 10.35 2.25 10.3 2.35 10.25 2.45 10.25 2.5 10.2 2.6 10.15 2.7 10.1 2.75 10.05 2.85 10.0 2.9 9.95 2.95 9.95 3.05 9.9 3.1 9.85 3.15 9.65 3.25 9.45 3.3 9.2 3.4 9.0 3.45 8.75 3.55 8.5 3.6 8.3 3.7 8.05 3.75 7.75 3.85 7.5 3.9 7.25 3.95 6.95 4.05 6.7 4.1 6.4 4.15 6.1 4.2 5.8 4.25 5.45 4.3 5.15 4.35 4.8 4.4 4.5 4.45 4.2 4.45 3.9 4.5 3.6 4.5 3.3 4.5 3.0 4.55 2.7 4.55 2.45 4.55 2.2 4.55 1.95 4.55 1.65 4.55 1.45 4.5 1.2 4.5 1.05 4.5 0.9 4.45 0.75 4.45 0.6 4.4 0.45 4.4 0.3 4.4 0.15 4.35 0.0 4.35 -0.15 4.3 -0.3 4.3 -0.45 4.25 -0.6 4.25 -0.75 4.2 -0.9 4.2 -1.05 4.15 -1.2 4.1 -1.4 4.05 -1.6 4.05 -1.8 4.0 -2.0 3.95 -2.2 3.9 -2.4 3.85 -2.6 3.85 -2.75 3.8 -2.95 3.75 -3.15 3.7 -3.35 3.65 -3.5 3.6 -3.7 3.55 -3.9 3.55 -4.05 3.5 -4.25 3.45 -4.45 3.4 -4.55 3.35 -4.8 3.3 -5.05 3.2 -5.35 3.05 -5.65 2.95 -6.0 2.75 -6.35 2.6 -6.75 2.35 -7.1 2.1 -7.5 1.8 -7.85 1.5 -8.2 1.15 -8.55 0.75 -8.9 0.3 -9.2 -0.2 -9.35 -0.45 -9.5 -0.75 -9.65 -1.05 -9.75 -1.3 -9.85 -1.55 -9.9 -1.85 -10.0 -2.1 -10.05 -2.35 -10.1 -2.6 -10.15 -2.8 -10.2 -3.05 -10.2 -3.25 -10.2 -3.45 -10.25 -3.6 -10.25 -3.8 -10.25 -3.95 L-10.25 -3.95" fill="#664f42" fill-rule="evenodd" stroke="none"/>
  </g>
</svg>
