<?xml version="1.0" encoding="UTF-8" standalone="no"?>
<svg xmlns:xlink="http://www.w3.org/1999/xlink" height="200.0px" width="200.0px" xmlns="http://www.w3.org/2000/svg">
  <g transform="matrix(1.0, 0.0, 0.0, 1.0, 100.0, 100.0)">
    <path d="M7.85 4.95 Q7.65 5.0 7.45 4.95 7.3 4.9 7.1 4.8 6.95 4.75 6.75 4.6 6.65 4.55 6.45 4.4 6.25 4.25 6.15 4.15 5.95 4.05 5.8 4.0 5.6 3.9 5.4 3.85 5.2 3.8 5.0 3.85 4.85 3.85 4.7 3.9 4.6 3.95 4.5 4.05 4.4 4.1 4.3 4.2 4.25 4.25 4.15 4.35 4.0 4.45 3.95 4.55 3.85 4.6 3.75 4.65 3.65 4.75 3.55 4.75 3.4 4.8 3.25 4.8 3.1 4.8 2.95 4.8 2.8 4.75 2.65 4.7 2.55 4.65 2.4 4.55 2.3 4.5 2.15 4.4 2.0 4.3 1.95 4.25 1.8 4.2 1.7 4.15 1.55 4.1 1.45 4.1 1.3 4.05 1.15 4.1 1.05 4.1 0.95 4.15 0.85 4.2 0.75 4.25 0.7 4.3 0.6 4.4 0.6 4.4 0.5 4.5 0.4 4.6 0.35 4.65 0.3 4.7 0.2 4.75 0.15 4.85 0.05 4.85 -0.05 4.9 -0.15 4.95 -0.3 4.95 -0.4 4.95 -0.5 4.95 -0.6 4.9 -0.7 4.9 -0.8 4.85 -0.9 4.8 -1.0 4.7 -1.1 4.65 -1.25 4.55 -1.35 4.45 -1.45 4.4 -1.6 4.35 -1.7 4.25 -1.85 4.2 -2.0 4.1 -2.3 4.0 -2.6 3.95 -2.85 3.9 -3.15 3.9 -3.35 3.9 -3.65 3.95 -3.85 4.0 -4.2 4.1 -4.55 4.2 -4.7 4.25 -5.0 4.3 -5.3 4.35 -5.6 4.4 -5.9 4.35 -6.25 4.35 -6.55 4.25 -6.65 4.25 -6.75 4.2 -6.9 4.15 -7.0 4.1 -7.15 4.1 -7.25 4.0 -7.4 3.95 -7.5 3.9 -7.65 3.8 -7.8 3.75 -7.95 3.65 -8.1 3.5 -8.25 3.4 -8.35 3.3 -8.55 3.15 -8.65 3.0 -8.65 3.0 -8.7 3.05 -8.7 3.1 -8.7 3.15 -8.75 3.2 -8.75 3.25 -8.8 3.3 -8.85 3.4 -8.9 3.45 -8.95 3.5 -9.0 3.6 -9.05 3.65 -9.15 3.75 -9.2 3.8 -9.3 3.85 -9.4 3.9 -9.5 3.95 -9.55 4.0 -9.65 4.0 -9.7 4.05 -9.8 4.05 -9.9 4.1 -9.95 4.1 -10.05 4.1 -10.15 4.1 -10.2 4.1 -10.3 4.1 -10.35 4.1 -10.45 4.05 -10.5 4.05 -10.6 4.0 -10.65 4.0 -10.75 3.95 -10.85 3.8 -10.95 3.7 -11.05 3.55 -11.1 3.4 -11.15 3.25 -11.2 3.05 -11.25 2.85 -11.25 2.65 -11.25 2.4 -11.25 2.15 -11.2 1.9 -11.15 1.65 -11.1 1.4 -11.0 1.1 -10.9 0.8 -10.8 0.8 -10.65 0.8 -10.55 0.85 -10.4 0.85 -10.25 0.85 -10.1 0.85 -9.95 0.8 -9.8 0.8 -9.65 0.8 -9.5 0.75 -9.3 0.75 -9.15 0.7 -8.95 0.7 -8.8 0.65 -8.6 0.6 -8.45 0.5 -8.15 0.4 -7.9 0.3 -7.7 0.2 -7.45 0.05 -7.3 -0.05 -7.1 -0.2 -7.0 -0.25 -6.75 -0.45 -6.55 -0.6 -6.4 -0.65 -6.25 -0.8 -6.05 -0.85 -5.9 -0.95 -5.65 -1.05 -5.45 -1.1 -5.2 -1.15 -5.0 -1.2 -4.75 -1.2 -4.55 -1.2 -4.35 -1.2 -4.15 -1.15 -3.95 -1.15 -3.75 -1.1 -3.6 -1.05 -3.4 -1.0 -3.25 -0.95 -3.1 -0.9 -2.95 -0.85 -2.85 -0.8 -2.7 -0.75 -2.65 -0.75 -2.5 -0.7 -2.3 -0.6 -2.15 -0.5 -2.0 -0.45 -1.85 -0.35 -1.75 -0.25 -1.6 -0.15 -1.5 -0.05 -1.4 0.05 -1.65 -0.2 -1.15 0.25 -1.05 0.35 -0.95 0.4 -0.8 0.55 -0.65 0.6 -0.5 0.75 -0.35 0.85 -0.15 0.95 0.05 1.05 0.25 1.15 0.45 1.2 0.6 1.3 0.85 1.35 1.0 1.4 1.25 1.45 1.45 1.5 1.65 1.55 1.85 1.55 2.1 1.6 2.3 1.6 2.6 1.65 2.75 1.65 3.1 1.7 4.8 1.85 9.75 1.1 10.8 0.95 12.05 0.75 12.05 0.8 12.1 0.9 12.1 0.95 12.1 1.05 12.15 1.15 12.15 1.2 12.15 1.3 12.15 1.4 12.2 1.5 12.2 1.6 12.2 1.7 12.2 1.8 12.2 1.95 12.2 2.05 12.2 2.15 12.2 2.3 12.2 2.4 12.2 2.5 12.2 2.6 12.2 2.7 12.2 2.8 12.15 2.85 12.15 2.95 12.15 3.05 12.15 3.1 12.1 3.2 12.1 3.25 12.05 3.35 12.05 3.4 12.0 3.45 11.95 3.55 11.9 3.6 11.8 3.7 11.7 3.75 11.6 3.8 11.5 3.85 11.35 3.9 11.2 3.95 11.05 3.95 10.9 3.95 10.7 3.95 10.55 3.95 10.35 3.9 10.2 3.85 10.0 3.85 9.8 3.75 9.6 3.7 9.4 3.6 9.3 3.8 9.2 3.95 9.05 4.1 8.95 4.25 8.85 4.4 8.75 4.5 8.65 4.6 8.55 4.65 8.45 4.75 8.35 4.8 8.25 4.85 8.15 4.9 8.1 4.9 8.0 4.95 7.9 4.95 7.85 4.95 L7.85 4.95" fill="#a14573" fill-rule="evenodd" stroke="none"/>
  </g>
</svg>
