<?xml version="1.0" encoding="UTF-8" standalone="no"?>
<svg xmlns:xlink="http://www.w3.org/1999/xlink" height="200.0px" width="200.0px" xmlns="http://www.w3.org/2000/svg">
  <g transform="matrix(1.0, 0.0, 0.0, 1.0, 100.0, 100.0)">
    <path d="M-9.95 -5.0 Q-10.0 -5.1 -10.05 -5.15 -10.15 -5.25 -10.2 -5.3 -10.25 -5.35 -10.3 -5.45 -10.4 -5.5 -10.45 -5.55 -10.5 -5.6 -10.6 -5.7 -10.65 -5.75 -10.7 -5.8 -10.75 -5.85 -10.85 -5.9 -10.95 -5.95 -11.0 -6.0 -11.35 -6.3 -11.6 -6.65 -11.9 -7.0 -12.1 -7.45 -12.3 -7.9 -12.45 -8.35 -12.55 -8.8 -12.6 -9.3 -12.65 -9.8 -12.65 -10.3 -12.6 -10.8 -12.5 -11.25 -12.35 -11.7 -12.2 -12.1 -12.0 -12.55 -11.7 -12.9 -11.55 -13.05 -11.4 -13.2 -11.25 -13.35 -11.1 -13.45 -10.95 -13.55 -10.75 -13.6 -10.6 -13.65 -10.4 -13.7 -10.25 -13.7 -10.05 -13.7 -9.85 -13.7 -9.7 -13.65 -9.5 -13.6 -9.35 -13.5 -9.15 -13.4 -8.95 -13.25 -8.7 -13.05 -8.45 -12.85 -8.2 -12.6 -7.95 -12.4 -7.7 -12.15 -7.45 -11.9 -7.25 -11.7 -7.0 -11.4 -6.8 -11.2 -6.55 -10.9 -6.35 -10.7 -6.15 -10.4 -5.95 -10.2 -5.7 -9.9 -5.8 -9.95 -5.3 -9.35 -5.2 -9.2 -5.05 -9.05 -4.95 -8.9 -4.8 -8.75 -4.7 -8.6 -4.55 -8.4 -4.45 -8.25 -4.35 -8.1 -4.2 -7.95 -4.1 -7.8 -4.0 -7.6 -3.85 -7.45 -3.75 -7.3 -3.65 -7.15 -3.55 -6.95 -3.45 -6.8 -3.4 -6.7 -3.35 -6.65 -3.3 -6.6 -3.25 -6.6 -3.2 -6.55 -3.15 -6.55 -3.1 -6.5 -3.05 -6.5 -3.0 -6.5 -2.95 -6.5 -2.9 -6.55 -2.85 -6.55 -2.8 -6.6 -2.75 -6.6 -2.7 -6.65 -2.65 -6.7 -2.0 -7.2 -0.6 -8.95 1.55 -11.6 2.1 -12.05 2.45 -12.35 2.85 -12.6 3.25 -12.85 3.65 -13.0 4.05 -13.15 4.5 -13.25 4.9 -13.3 5.35 -13.3 5.75 -13.3 6.15 -13.25 6.6 -13.15 6.95 -13.0 7.35 -12.8 7.7 -12.55 8.05 -12.35 8.35 -12.0 8.5 -11.85 8.65 -11.65 8.75 -11.45 8.85 -11.3 8.95 -11.1 9.05 -10.9 9.15 -10.7 9.25 -10.5 9.3 -10.3 9.35 -10.1 9.4 -9.85 9.45 -9.65 9.5 -9.45 9.55 -9.2 9.6 -9.0 9.65 -8.8 9.75 -7.65 9.75 -7.35 9.75 -7.15 9.75 -7.0 9.75 -6.8 9.8 -6.6 9.8 -6.45 9.85 -6.3 9.9 -6.1 10.0 -5.95 10.05 -5.8 10.1 -5.65 10.2 -5.5 10.3 -5.35 10.4 -5.2 10.5 -5.1 10.6 -4.95 10.75 -4.8 12.25 -3.1 13.1 -2.3 13.4 -2.0 13.6 -1.7 13.85 -1.4 14.0 -1.05 14.1 -0.7 14.2 -0.35 14.25 0.0 14.25 0.35 14.25 0.7 14.15 1.05 14.1 1.4 13.95 1.75 13.8 2.1 13.6 2.4 13.4 2.7 13.15 3.0 13.1 3.05 13.05 3.15 13.0 3.2 12.95 3.25 12.9 3.3 12.9 3.4 12.85 3.45 12.85 3.55 12.8 3.6 12.8 3.65 12.8 3.75 12.8 3.8 12.8 3.9 12.8 3.95 12.8 4.05 12.85 4.1 12.85 4.25 12.95 4.85 13.0 5.15 13.0 5.4 13.0 5.65 12.95 5.85 12.95 6.1 12.85 6.3 12.8 6.45 12.65 6.65 12.55 6.8 12.4 6.95 12.25 7.1 12.05 7.2 11.85 7.3 11.65 7.4 11.4 7.5 11.15 7.55 11.1 7.55 11.0 7.6 10.95 7.6 10.85 7.6 10.8 7.6 10.7 7.6 10.65 7.6 10.6 7.55 10.55 7.55 10.45 7.55 10.4 7.5 10.35 7.45 10.3 7.45 10.25 7.4 10.2 7.35 10.15 7.3 10.1 7.25 10.05 7.2 9.95 7.15 9.9 7.15 9.85 7.1 9.8 7.1 9.75 7.1 9.7 7.1 9.65 7.1 9.6 7.15 9.55 7.15 9.5 7.2 9.5 7.25 9.45 7.3 9.4 7.35 9.35 7.4 9.25 7.6 9.1 7.75 8.95 7.9 8.8 8.0 8.6 8.1 8.45 8.2 8.3 8.25 8.1 8.3 7.9 8.3 7.7 8.35 7.55 8.35 7.35 8.35 7.2 8.35 6.95 8.35 6.65 8.35 6.55 8.35 6.5 8.35 6.4 8.35 6.35 8.3 6.3 8.3 6.25 8.25 6.2 8.25 6.15 8.2 6.1 8.15 6.05 8.1 6.0 8.05 5.95 8.0 5.9 7.95 5.9 7.95 5.8 7.85 5.75 7.75 5.7 7.75 5.6 7.65 5.55 7.55 5.45 7.45 5.35 7.4 5.3 7.35 5.25 7.35 5.15 7.3 5.1 7.3 5.05 7.35 5.0 7.35 4.9 7.4 4.85 7.45 4.8 7.55 4.75 7.6 4.65 7.7 4.6 7.85 4.5 8.05 4.35 8.15 4.2 8.3 4.0 8.4 3.8 8.5 3.6 8.55 3.4 8.6 3.2 8.6 3.0 8.6 2.8 8.55 2.6 8.5 2.45 8.4 2.25 8.35 2.1 8.2 1.95 8.05 1.85 7.85 1.8 7.75 1.75 7.7 1.7 7.6 1.65 7.55 1.6 7.5 1.55 7.5 1.5 7.45 1.4 7.45 1.35 7.45 1.3 7.5 1.25 7.5 1.2 7.55 1.15 7.55 1.05 7.6 1.0 7.65 0.95 7.75 0.85 7.85 0.7 7.95 0.6 8.05 0.45 8.15 0.35 8.2 0.2 8.25 0.1 8.3 -0.05 8.35 -0.2 8.35 -0.3 8.35 -0.45 8.35 -0.6 8.35 -0.75 8.3 -0.9 8.25 -1.05 8.2 -1.25 8.1 -1.5 7.95 -1.8 7.85 -2.05 7.8 -2.35 7.7 -2.6 7.65 -2.9 7.6 -3.15 7.55 -3.45 7.55 -3.75 7.5 -4.0 7.5 -4.3 7.5 -4.6 7.55 -4.9 7.55 -5.15 7.6 -5.45 7.6 -5.75 7.65 -5.9 7.7 -6.0 7.7 -6.1 7.7 -6.25 7.7 -6.35 7.7 -6.45 7.7 -6.55 7.7 -6.65 7.65 -6.75 7.6 -6.85 7.55 -6.95 7.5 -7.05 7.45 -7.15 7.4 -7.25 7.3 -7.3 7.2 -7.4 7.1 -7.5 6.95 -7.55 6.9 -7.65 6.8 -7.7 6.7 -7.75 6.65 -7.85 6.6 -7.9 6.6 -7.95 6.6 -8.0 6.6 -8.05 6.6 -8.15 6.65 -8.2 6.7 -8.25 6.8 -8.35 6.85 -8.4 6.95 -8.5 7.1 -8.6 7.25 -8.7 7.35 -8.8 7.45 -8.95 7.5 -9.05 7.55 -9.15 7.6 -9.3 7.65 -9.4 7.65 -9.55 7.65 -9.7 7.65 -9.8 7.65 -9.95 7.6 -9.95 7.6 -10.2 7.6 -10.35 7.55 -10.45 7.55 -10.55 7.55 -10.65 7.5 -10.75 7.5 -10.8 7.45 -10.9 7.4 -11.0 7.35 -11.05 7.3 -11.1 7.2 -11.15 7.15 -11.2 7.05 -11.25 6.95 -11.3 6.9 -11.35 6.8 -11.4 6.7 -11.4 6.6 -11.45 6.45 -11.5 6.05 -11.55 5.4 -11.6 4.5 -11.6 4.35 -11.6 4.3 -11.6 4.25 -11.6 4.2 -11.6 4.15 -11.6 4.1 -11.6 4.05 -11.6 4.0 -11.6 4.0 -11.55 3.95 -11.55 3.9 -11.55 3.85 -11.5 3.8 -11.5 3.8 -11.45 3.75 -11.45 3.7 -11.4 3.7 -11.3 3.6 -11.25 3.55 -11.15 3.45 -11.15 3.4 -11.1 3.3 -11.1 3.2 -11.1 3.15 -11.1 3.05 -11.1 3.0 -11.15 2.9 -11.2 2.85 -11.2 2.75 -11.25 2.7 -11.3 2.6 -11.35 2.5 -11.4 2.4 -11.5 2.15 -11.6 1.95 -11.7 1.7 -11.75 1.45 -11.8 1.25 -11.8 1.0 -11.8 0.75 -11.8 0.55 -11.8 0.3 -11.75 0.05 -11.7 -0.15 -11.65 -0.4 -11.6 -0.65 -11.5 -0.9 -11.4 -1.1 -11.3 -1.35 -11.25 -1.4 -11.25 -1.45 -11.2 -1.55 -11.2 -1.6 -11.15 -1.65 -11.15 -1.7 -11.15 -1.75 -11.15 -1.8 -11.15 -1.85 -11.15 -1.9 -11.15 -1.95 -11.2 -2.0 -11.2 -2.05 -11.2 -2.1 -11.25 -2.2 -11.3 -2.25 -11.35 -2.35 -11.4 -2.45 -11.45 -2.55 -11.5 -2.65 -11.55 -2.8 -11.55 -2.9 -11.6 -3.0 -11.65 -3.1 -11.65 -3.25 -11.65 -3.35 -11.65 -3.45 -11.65 -3.55 -11.6 -3.7 -11.6 -3.8 -11.55 -3.9 -11.5 -4.05 -11.45 -4.15 -11.35 -4.25 -11.3 -4.35 -11.2 -4.4 -11.1 -4.5 -11.0 -4.55 -10.95 -4.6 -10.85 -4.65 -10.75 -4.7 -10.6 -4.75 -10.5 -4.8 -10.4 -4.85 -10.3 -4.9 -10.15 -4.95 -10.0 -5.0 -9.95 -5.0 L-9.95 -5.0 M11.6 -1.85 Q11.5 -1.7 11.4 -1.55 11.3 -1.45 11.2 -1.35 11.05 -1.3 10.9 -1.2 10.8 -1.15 10.65 -1.15 10.5 -1.1 10.35 -1.15 10.2 -1.15 10.1 -1.15 9.95 -1.2 9.85 -1.25 9.75 -1.3 9.65 -1.35 9.55 -1.45 9.45 -1.55 9.35 -1.65 9.3 -1.75 9.2 -1.9 9.2 -2.05 9.15 -2.15 9.1 -2.3 9.1 -2.45 9.1 -2.6 9.1 -2.7 9.15 -2.85 9.2 -2.95 9.25 -3.05 9.35 -3.2 9.45 -3.25 9.55 -3.35 9.6 -3.4 9.7 -3.45 9.7 -3.55 9.75 -3.6 9.75 -3.65 9.75 -3.7 9.75 -3.75 9.75 -3.85 9.7 -3.9 9.7 -3.95 9.65 -4.0 9.6 -4.05 9.55 -4.1 9.5 -4.15 9.45 -4.2 9.4 -4.25 9.4 -4.25 9.35 -4.3 9.35 -4.3 9.35 -4.35 9.3 -4.4 9.3 -4.4 9.25 -4.45 9.25 -4.45 9.2 -4.5 9.2 -4.55 9.2 -4.55 9.15 -4.6 9.15 -4.6 9.15 -4.65 9.1 -4.7 9.05 -4.75 9.05 -4.8 9.0 -4.85 9.0 -4.85 8.95 -4.85 8.9 -4.85 8.9 -4.85 8.85 -4.85 8.8 -4.8 8.7 -4.75 8.6 -4.65 8.45 -4.6 8.3 -4.55 8.2 -4.5 8.05 -4.5 7.95 -4.45 7.8 -4.45 7.7 -4.5 7.55 -4.5 7.45 -4.55 7.3 -4.6 7.2 -4.65 7.1 -4.7 6.95 -4.8 6.85 -4.9 6.75 -5.0 6.65 -5.1 6.6 -5.15 6.5 -5.25 6.45 -5.35 6.4 -5.45 6.4 -5.55 6.35 -5.65 6.3 -5.8 6.3 -5.9 6.3 -6.0 6.3 -6.1 6.3 -6.2 6.3 -6.3 6.35 -6.4 6.4 -6.5 6.45 -6.6 6.5 -6.7 6.6 -6.8 6.65 -6.9 6.75 -7.0 6.85 -7.1 6.95 -7.15 7.05 -7.2 7.15 -7.25 7.25 -7.3 7.4 -7.3 7.5 -7.35 7.65 -7.35 7.8 -7.35 7.95 -7.3 8.05 -7.3 8.25 -7.25 8.25 -7.25 8.3 -7.25 8.3 -7.3 8.35 -7.3 8.35 -7.5 8.35 -7.7 8.35 -7.95 8.3 -8.15 8.3 -8.35 8.25 -8.55 8.25 -8.75 8.2 -8.95 8.15 -9.15 8.15 -9.35 8.1 -9.55 8.0 -9.75 7.95 -9.95 7.85 -10.15 7.8 -10.35 7.7 -10.55 7.6 -10.7 7.5 -10.85 7.4 -11.0 7.3 -11.15 7.2 -11.25 7.05 -11.35 6.9 -11.45 6.8 -11.55 6.65 -11.6 6.5 -11.7 6.3 -11.75 6.15 -11.8 6.0 -11.85 5.8 -11.9 5.65 -11.9 5.45 -11.9 5.25 -11.9 5.1 -11.9 4.9 -11.9 4.7 -11.9 4.55 -11.85 4.4 -11.8 4.2 -11.75 4.05 -11.7 3.9 -11.65 3.75 -11.55 3.6 -11.45 3.45 -11.35 3.3 -11.25 3.15 -11.15 3.05 -11.05 2.9 -10.9 2.4 -10.45 0.5 -8.1 0.4 -7.95 0.2 -7.75 0.0 -7.45 -0.05 -7.4 -0.2 -7.2 -0.35 -7.05 -0.5 -6.85 -0.65 -6.7 -0.8 -6.5 -0.95 -6.35 -1.1 -6.2 -1.25 -6.05 -1.45 -5.9 -1.6 -5.75 -1.8 -5.6 -2.0 -5.5 -2.05 -5.45 -2.15 -5.4 -2.2 -5.35 -2.2 -5.35 -2.25 -5.3 -2.3 -5.25 -2.3 -5.2 -2.3 -5.15 -2.35 -5.1 -2.35 -5.05 -2.35 -5.05 -2.3 -4.95 -2.3 -4.9 -2.3 -4.85 -2.25 -4.8 -2.25 -4.75 -2.1 -4.45 -2.0 -4.2 -1.9 -3.95 -1.85 -3.7 -1.8 -3.5 -1.8 -3.25 -1.8 -3.05 -1.85 -2.85 -1.85 -2.65 -1.95 -2.45 -2.0 -2.25 -2.15 -2.05 -2.3 -1.9 -2.45 -1.65 -2.6 -1.45 -2.85 -1.2 -2.9 -1.15 -2.95 -1.1 -3.0 -1.1 -3.0 -1.05 -3.05 -1.0 -3.1 -0.95 -3.15 -0.95 -3.2 -0.9 -3.25 -0.85 -3.3 -0.8 -3.35 -0.8 -3.4 -0.75 -3.45 -0.7 -3.5 -0.7 -3.55 -0.65 -3.55 -0.6 -3.7 -0.5 -3.8 -0.45 -3.9 -0.4 -4.0 -0.35 -4.15 -0.3 -4.2 -0.25 -4.3 -0.25 -4.4 -0.25 -4.5 -0.25 -4.6 -0.3 -4.7 -0.3 -4.8 -0.35 -4.85 -0.4 -5.0 -0.5 -5.1 -0.55 -5.2 -0.65 -7.3 -2.5 -8.15 -3.35 -8.25 -3.45 -8.35 -3.5 -8.4 -3.6 -8.5 -3.65 -8.6 -3.7 -8.7 -3.75 -8.75 -3.8 -8.85 -3.8 -8.95 -3.8 -9.05 -3.8 -9.15 -3.8 -9.25 -3.8 -9.35 -3.8 -9.45 -3.75 -9.55 -3.7 -9.65 -3.65 -9.8 -3.6 -9.9 -3.55 -10.0 -3.5 -10.05 -3.5 -10.1 -3.45 -10.15 -3.4 -10.2 -3.4 -10.2 -3.35 -10.25 -3.3 -10.25 -3.25 -10.25 -3.2 -10.2 -3.15 -10.2 -3.05 -10.1 -2.95 -10.1 -2.9 -10.0 -2.75 -10.0 -2.75 -9.8 -2.45 -9.75 -2.35 -9.7 -2.3 -9.65 -2.2 -9.65 -2.1 -9.6 -2.0 -9.6 -1.95 -9.55 -1.85 -9.55 -1.75 -9.55 -1.7 -9.6 -1.6 -9.6 -1.5 -9.65 -1.45 -9.65 -1.35 -9.7 -1.25 -9.75 -1.2 -9.85 -1.1 -9.95 -0.95 -10.0 -0.85 -10.1 -0.7 -10.15 -0.55 -10.25 -0.45 -10.3 -0.3 -10.3 -0.15 -10.35 0.0 -10.4 0.15 -10.4 0.3 -10.4 0.45 -10.4 0.6 -10.4 0.75 -10.4 0.85 -10.4 1.0 -10.35 1.15 -10.3 1.4 -10.25 1.6 -10.15 1.85 -10.05 2.0 -10.0 2.2 -9.85 2.35 -9.75 2.5 -9.6 2.65 -9.45 2.75 -9.3 2.8 -9.1 2.9 -8.9 2.9 -8.7 2.95 -8.45 2.9 -8.25 2.9 -7.95 2.8 -7.85 2.75 -7.7 2.75 -7.6 2.7 -7.45 2.65 -7.35 2.6 -7.25 2.55 -7.15 2.5 -7.0 2.45 -6.9 2.35 -6.8 2.3 -6.7 2.25 -6.6 2.15 -6.5 2.1 -6.4 2.05 -6.3 1.95 -6.2 1.9 -5.85 1.65 -5.5 1.45 -5.15 1.3 -4.8 1.2 -4.45 1.15 -4.1 1.15 -3.8 1.1 -3.45 1.2 -3.15 1.25 -2.8 1.35 -2.5 1.45 -2.25 1.6 -1.95 1.75 -1.7 1.9 -1.45 2.1 -1.2 2.3 -1.05 2.45 -0.85 2.6 -0.7 2.7 -0.5 2.85 -0.3 2.95 -0.15 3.05 0.05 3.15 0.25 3.25 0.45 3.3 0.65 3.4 0.85 3.5 1.05 3.55 1.25 3.6 1.45 3.7 1.65 3.75 1.9 3.8 2.35 3.9 2.8 4.0 3.25 4.05 3.75 4.1 4.2 4.15 4.65 4.15 5.1 4.2 5.6 4.15 6.05 4.15 6.5 4.1 6.95 4.05 7.45 4.0 7.85 3.95 8.35 3.9 8.8 3.8 9.25 3.75 9.35 3.75 9.5 3.7 9.45 3.7 9.75 3.65 9.9 3.65 10.0 3.6 10.15 3.6 10.25 3.55 10.4 3.5 10.5 3.5 10.65 3.45 10.75 3.4 10.85 3.35 10.95 3.3 11.1 3.25 11.2 3.15 11.55 2.9 11.85 2.6 12.15 2.35 12.35 2.05 12.55 1.75 12.65 1.45 12.8 1.15 12.8 0.85 12.85 0.5 12.8 0.2 12.75 -0.1 12.6 -0.45 12.45 -0.75 12.25 -1.1 12.0 -1.45 11.7 -1.75 11.7 -1.8 11.65 -1.8 11.65 -1.8 11.6 -1.85 L11.6 -1.85 M0.2 6.5 Q0.4 6.35 0.6 6.3 0.85 6.2 1.0 6.15 1.2 6.1 1.35 6.05 1.55 6.05 1.7 6.05 1.85 6.1 2.0 6.15 2.15 6.2 2.3 6.3 2.45 6.4 2.55 6.55 2.7 6.65 2.8 6.85 2.85 6.95 2.9 7.0 3.0 7.05 3.05 7.1 3.1 7.15 3.15 7.15 3.2 7.15 3.25 7.15 3.3 7.15 3.35 7.15 3.35 7.1 3.4 7.05 3.45 7.0 3.5 6.95 3.55 6.9 3.6 6.85 3.75 6.6 3.9 6.45 4.05 6.3 4.25 6.15 4.4 6.05 4.6 6.0 4.8 5.95 5.0 5.9 5.2 5.9 5.45 5.95 5.65 6.0 5.85 6.1 6.05 6.2 6.2 6.3 6.4 6.45 6.6 6.65 6.7 6.75 6.8 6.8 6.9 6.9 7.0 6.95 7.1 6.95 7.2 7.0 7.35 7.0 7.45 7.0 7.55 7.0 7.65 6.95 7.8 6.9 7.9 6.85 8.0 6.8 8.1 6.7 8.2 6.6 8.3 6.5 8.4 6.35 8.55 6.25 8.7 6.1 8.8 6.0 8.95 5.9 9.1 5.85 9.25 5.8 9.4 5.75 9.55 5.75 9.7 5.7 9.85 5.7 10.05 5.75 10.2 5.8 10.35 5.85 10.5 5.9 10.7 6.0 10.75 6.05 10.8 6.05 10.85 6.05 10.9 6.05 10.95 6.1 11.0 6.05 11.05 6.05 11.1 6.05 11.15 6.05 11.2 6.0 11.2 6.0 11.25 6.0 12.6 5.3 11.35 5.95 11.4 5.9 11.45 5.9 11.5 5.9 11.55 5.85 11.55 5.8 11.6 5.8 11.6 5.75 11.65 5.7 11.65 5.7 11.65 5.65 11.65 5.6 11.65 5.55 11.65 5.55 11.65 5.5 11.65 5.45 11.65 5.4 11.65 5.35 11.65 5.3 11.65 5.25 11.5 4.4 11.5 4.35 11.5 4.3 11.45 4.25 11.45 4.2 11.45 4.2 11.45 4.15 11.4 4.1 11.4 4.1 11.35 4.1 11.3 4.1 11.3 4.05 11.25 4.05 11.2 4.05 11.15 4.1 11.1 4.1 11.05 4.1 10.65 4.2 10.25 4.3 9.85 4.4 9.45 4.5 9.05 4.6 8.65 4.65 8.25 4.7 7.85 4.75 7.45 4.8 7.05 4.85 6.65 4.9 6.25 4.9 5.85 4.95 5.45 4.95 5.05 4.95 4.65 4.95 4.2 4.95 3.75 4.9 3.3 4.85 2.9 4.8 2.45 4.75 2.05 4.65 1.6 4.55 1.2 4.45 0.8 4.3 0.4 4.15 0.0 4.0 -0.35 3.8 -0.75 3.6 -1.15 3.35 -1.5 3.1 -1.85 2.8 -2.05 2.6 -2.3 2.45 -2.5 2.3 -2.75 2.2 -3.0 2.1 -3.25 2.0 -3.5 1.95 -3.75 1.95 -4.0 1.9 -4.25 1.95 -4.5 1.95 -4.75 2.05 -5.05 2.1 -5.3 2.25 -5.55 2.4 -5.85 2.6 -6.05 2.75 -6.55 3.1 -6.7 3.2 -6.85 3.25 -7.0 3.3 -7.15 3.4 -7.25 3.45 -7.4 3.5 -7.55 3.55 -7.7 3.6 -7.85 3.65 -8.0 3.7 -8.15 3.7 -8.3 3.75 -8.5 3.75 -8.65 3.75 -8.8 3.8 -8.95 3.8 -9.1 3.8 -9.25 3.8 -9.4 3.85 -9.5 3.85 -9.65 3.9 -9.75 4.0 -9.85 4.05 -9.95 4.15 -10.0 4.2 -10.05 4.3 -10.15 4.4 -10.15 4.55 -10.2 4.65 -10.2 4.8 -10.25 4.95 -10.2 5.1 -10.2 5.35 -10.15 5.85 -10.15 5.9 -10.15 5.95 -10.15 6.0 -10.15 6.05 -10.1 6.1 -10.1 6.1 -10.1 6.15 -10.05 6.2 -10.0 6.2 -9.95 6.25 -9.9 6.25 -9.9 6.25 -9.85 6.25 -9.8 6.25 -9.8 6.25 -9.75 6.25 -9.75 6.25 -9.7 6.25 -9.65 6.25 -9.65 6.2 -9.6 6.2 -9.6 6.2 -9.55 6.15 -9.5 6.15 -9.5 6.1 -9.45 6.1 -9.4 6.05 -9.4 6.0 -9.35 6.0 -9.3 5.95 -9.3 5.9 -9.25 5.85 -9.2 5.8 -9.2 5.8 -9.15 5.75 -9.1 5.7 -9.05 5.7 -9.05 5.65 -9.0 5.6 -8.95 5.6 -8.9 5.55 -8.85 5.5 -8.75 5.4 -8.65 5.35 -8.55 5.3 -8.45 5.25 -8.3 5.2 -8.2 5.2 -8.1 5.2 -8.0 5.2 -7.9 5.2 -7.8 5.2 -7.65 5.2 -7.55 5.25 -7.45 5.3 -7.35 5.35 -7.25 5.4 -7.1 5.5 -7.05 5.55 -7.0 5.55 -6.95 5.6 -6.9 5.65 -6.9 5.7 -6.8 5.75 -6.75 5.8 -6.75 5.85 -6.7 5.9 -6.65 5.9 -6.6 5.95 -6.55 5.95 -6.5 6.0 -6.45 6.0 -6.4 6.0 -6.4 6.0 -6.35 6.0 -6.3 5.95 -6.25 5.95 -6.2 5.9 -6.15 5.9 -6.1 5.85 -6.05 5.8 -6.0 5.75 -6.0 5.7 -5.95 5.65 -6.7 6.55 -5.85 5.55 -5.8 5.5 -5.75 5.45 -5.7 5.4 -5.65 5.35 -5.6 5.3 -5.6 5.3 -5.55 5.25 -5.5 5.2 -5.5 5.2 -5.45 5.15 -5.4 5.15 -5.35 5.1 -5.35 5.05 -5.3 5.05 -5.25 5.0 -5.25 5.0 -5.2 4.95 -5.15 4.9 -5.1 4.9 -5.1 4.85 -4.9 4.7 -4.65 4.55 -4.4 4.45 -4.2 4.35 -3.95 4.3 -3.75 4.25 -3.5 4.2 -3.3 4.2 -3.05 4.2 -2.8 4.25 -2.6 4.25 -2.35 4.35 -2.15 4.4 -1.9 4.55 -1.65 4.65 -1.45 4.8 -1.3 4.9 -1.2 4.95 -1.1 5.05 -0.95 5.15 -0.85 5.25 -0.75 5.35 -0.65 5.45 -0.55 5.6 -0.45 5.7 -0.35 5.8 -0.25 5.9 -0.15 6.05 -0.05 6.15 0.0 6.3 0.1 6.4 0.2 6.5 L0.2 6.5 M-11.25 -9.95 Q-11.25 -9.85 -11.2 -9.65 -11.2 -9.35 -11.2 -9.3 -11.2 -9.1 -11.15 -8.95 -11.15 -8.8 -11.1 -8.65 -11.05 -8.45 -11.0 -8.3 -10.95 -8.15 -10.9 -8.0 -10.8 -7.85 -10.7 -7.7 -10.6 -7.55 -10.5 -7.45 -9.65 -6.7 -7.85 -4.95 -6.2 -3.35 -5.25 -2.5 -5.05 -2.35 -4.9 -2.2 -4.75 -2.1 -4.6 -2.05 -4.5 -1.95 -4.35 -1.95 -4.25 -1.9 -4.15 -1.95 -4.05 -1.95 -3.95 -2.05 -3.85 -2.1 -3.75 -2.2 -3.65 -2.35 -3.55 -2.5 -3.45 -2.65 -3.3 -2.9 -3.25 -2.95 -3.25 -3.0 -3.25 -3.05 -3.2 -3.1 -3.2 -3.15 -3.2 -3.2 -3.2 -3.25 -3.15 -3.25 -3.15 -3.3 -3.15 -3.35 -3.15 -3.4 -3.2 -3.45 -3.2 -3.5 -3.2 -3.55 -3.25 -3.6 -3.25 -3.65 -3.35 -3.8 -3.5 -4.2 -3.65 -4.5 -3.75 -4.7 -4.05 -5.2 -4.35 -5.65 -4.6 -6.15 -4.95 -6.6 -5.25 -7.05 -5.6 -7.5 -5.9 -7.95 -6.25 -8.4 -6.6 -8.8 -6.95 -9.25 -7.3 -9.65 -7.7 -10.1 -8.05 -10.5 -8.45 -10.9 -8.85 -11.3 -9.25 -11.75 -9.3 -11.8 -9.3 -11.8 -9.35 -11.85 -9.4 -11.85 -9.45 -11.9 -9.45 -11.95 -9.5 -11.95 -9.55 -12.0 -9.6 -12.0 -9.65 -12.05 -9.75 -12.1 -9.85 -12.15 -9.9 -12.2 -10.0 -12.2 -10.1 -12.2 -10.15 -12.2 -10.25 -12.2 -10.35 -12.2 -10.4 -12.15 -10.45 -12.15 -10.55 -12.1 -10.6 -12.05 -10.65 -11.95 -10.75 -11.9 -10.8 -11.8 -10.85 -11.7 -10.9 -11.6 -10.95 -11.5 -11.0 -11.4 -11.05 -11.3 -11.1 -11.2 -11.1 -11.1 -11.15 -11.0 -11.15 -10.9 -11.2 -10.8 -11.2 -10.65 -11.25 -10.55 -11.25 -10.45 -11.25 -10.35 -11.25 -10.2 -11.25 -10.1 -11.25 -9.95 L-11.25 -9.95 M-5.2 6.2 Q-4.9 6.2 -4.65 6.2 -4.35 6.15 -4.1 6.15 -3.8 6.2 -3.55 6.2 -3.3 6.2 -3.05 6.25 -2.75 6.25 -2.5 6.3 -2.25 6.35 -1.95 6.4 -1.7 6.45 -1.45 6.55 -1.15 6.65 -0.9 6.75 -1.0 6.55 -1.1 6.4 -1.25 6.2 -1.35 6.05 -1.45 5.9 -1.6 5.75 -1.7 5.65 -1.85 5.5 -2.0 5.4 -2.15 5.3 -2.3 5.2 -2.45 5.15 -2.6 5.05 -2.8 5.05 -2.95 5.0 -3.15 5.0 -3.3 5.0 -3.45 5.0 -3.6 5.0 -3.75 5.05 -3.9 5.05 -4.05 5.1 -4.2 5.15 -4.3 5.25 -4.45 5.3 -4.55 5.4 -4.65 5.5 -4.8 5.65 -4.9 5.75 -5.0 5.9 -5.1 6.05 -5.2 6.2 L-5.2 6.2 M7.85 -5.3 Q7.95 -5.3 8.05 -5.3 8.1 -5.3 8.2 -5.35 8.25 -5.35 8.3 -5.4 8.3 -5.45 8.35 -5.5 8.4 -5.55 8.4 -5.6 8.4 -5.7 8.45 -5.75 8.45 -5.8 8.45 -5.85 8.45 -5.9 8.45 -6.0 8.45 -6.05 8.45 -6.15 8.45 -6.2 8.4 -6.25 8.35 -6.3 8.35 -6.35 8.3 -6.4 8.25 -6.4 8.2 -6.45 8.15 -6.45 8.1 -6.5 8.0 -6.5 7.95 -6.5 7.9 -6.55 7.8 -6.55 7.75 -6.55 7.7 -6.55 7.65 -6.55 7.55 -6.55 7.5 -6.55 7.45 -6.5 7.4 -6.5 7.35 -6.5 7.3 -6.45 7.25 -6.45 7.2 -6.4 7.2 -6.35 7.15 -6.3 7.15 -6.25 7.1 -6.2 7.1 -6.1 7.1 -6.05 7.1 -5.95 7.1 -5.9 7.15 -5.8 7.15 -5.75 7.2 -5.65 7.2 -5.6 7.25 -5.55 7.3 -5.5 7.35 -5.45 7.4 -5.45 7.5 -5.4 7.55 -5.4 7.6 -5.35 7.7 -5.35 7.75 -5.3 7.85 -5.3 L7.85 -5.3 M10.35 -2.9 Q10.3 -2.9 10.25 -2.9 10.2 -2.9 10.15 -2.85 10.15 -2.85 10.1 -2.8 10.05 -2.8 10.05 -2.75 10.0 -2.75 10.0 -2.7 9.95 -2.65 9.95 -2.65 9.95 -2.6 9.9 -2.55 9.9 -2.5 9.9 -2.45 9.9 -2.4 9.9 -2.35 9.9 -2.3 9.95 -2.25 9.95 -2.2 9.95 -2.15 10.0 -2.1 10.0 -2.1 10.05 -2.05 10.1 -2.0 10.1 -2.0 10.15 -1.95 10.2 -1.95 10.25 -1.95 10.3 -1.9 10.4 -1.9 10.45 -1.9 10.5 -1.9 10.55 -1.9 10.6 -1.95 10.65 -1.95 10.7 -2.0 10.75 -2.0 10.75 -2.05 10.8 -2.05 10.8 -2.1 10.85 -2.15 10.85 -2.2 10.85 -2.25 10.9 -2.3 10.9 -2.35 10.9 -2.4 10.9 -2.45 10.9 -2.55 10.9 -2.6 10.85 -2.65 10.85 -2.65 10.8 -2.7 10.8 -2.75 10.75 -2.75 10.7 -2.8 10.65 -2.8 10.6 -2.8 10.55 -2.85 10.75 -2.8 10.45 -2.85 10.4 -2.85 10.35 -2.9 L10.35 -2.9" fill="#070707" fill-rule="evenodd" stroke="none"/>
    <path d="M1.35 -3.2 Q1.5 -3.2 1.65 -3.15 1.8 -3.15 1.9 -3.1 2.05 -3.0 2.15 -2.95 2.3 -2.9 2.35 -2.8 2.45 -2.7 2.55 -2.6 2.6 -2.5 2.7 -2.35 2.75 -2.25 2.75 -2.15 2.8 -2.0 2.8 -1.85 2.8 -1.65 2.75 -1.5 2.75 -1.35 2.7 -1.15 2.6 -1.0 2.55 -0.9 2.45 -0.75 2.35 -0.6 2.25 -0.5 2.15 -0.4 2.05 -0.35 1.9 -0.25 1.75 -0.2 1.65 -0.15 1.5 -0.15 1.35 -0.15 1.2 -0.15 1.0 -0.2 0.85 -0.2 0.7 -0.25 0.6 -0.3 0.45 -0.4 0.3 -0.5 0.2 -0.6 0.1 -0.7 0.0 -0.8 -0.05 -0.95 -0.15 -1.1 -0.2 -1.2 -0.2 -1.35 -0.25 -1.5 -0.25 -1.7 -0.25 -1.85 -0.2 -2.0 -0.2 -2.15 -0.1 -2.3 -0.05 -2.4 0.05 -2.55 0.15 -2.65 0.25 -2.75 0.35 -2.85 0.5 -2.95 0.6 -3.0 0.75 -3.05 0.9 -3.1 1.05 -3.15 1.2 -3.2 1.35 -3.2 L1.35 -3.2 M1.95 -1.8 Q1.95 -1.85 1.95 -1.95 1.95 -2.0 1.9 -2.05 1.9 -2.1 1.85 -2.15 1.85 -2.2 1.8 -2.25 1.75 -2.3 1.7 -2.3 1.65 -2.35 1.6 -2.35 1.55 -2.4 1.5 -2.4 1.4 -2.4 1.35 -2.4 1.25 -2.4 1.2 -2.4 1.1 -2.35 1.05 -2.35 0.95 -2.3 0.9 -2.3 0.85 -2.25 0.8 -2.2 0.75 -2.15 0.7 -2.1 0.65 -2.05 0.6 -2.0 0.6 -1.9 0.55 -1.85 0.55 -1.75 0.55 -1.7 0.55 -1.6 0.55 -1.5 0.55 -1.45 0.6 -1.35 0.6 -1.3 0.65 -1.25 0.7 -1.2 0.75 -1.15 0.8 -1.1 0.9 -1.05 0.95 -1.0 1.0 -1.0 1.1 -0.95 1.15 -0.95 1.25 -0.95 1.3 -0.95 1.4 -0.95 1.5 -0.95 1.55 -0.95 1.6 -1.0 1.7 -1.05 1.75 -1.1 1.75 -1.15 1.8 -1.2 1.85 -1.25 1.85 -1.3 1.9 -1.4 1.9 -1.45 1.95 -1.55 1.95 -1.6 1.95 -1.7 1.95 -1.8 L1.95 -1.8" fill="#070707" fill-rule="evenodd" stroke="none"/>
    <path d="M5.45 -5.65 Q5.45 -5.5 5.4 -5.35 5.4 -5.2 5.35 -5.1 5.3 -4.95 5.2 -4.85 5.1 -4.7 5.0 -4.6 4.95 -4.5 4.8 -4.45 4.7 -4.35 4.55 -4.3 4.45 -4.25 4.3 -4.2 4.15 -4.2 4.0 -4.2 3.85 -4.2 3.7 -4.2 3.55 -4.25 3.45 -4.3 3.3 -4.35 3.2 -4.4 3.05 -4.5 2.95 -4.55 2.85 -4.65 2.8 -4.75 2.7 -4.85 2.65 -5.0 2.6 -5.1 2.55 -5.25 2.55 -5.35 2.55 -5.5 2.55 -5.65 2.6 -5.8 2.6 -5.95 2.65 -6.05 2.75 -6.2 2.8 -6.3 2.9 -6.45 3.0 -6.55 3.1 -6.65 3.25 -6.75 3.35 -6.8 3.5 -6.9 3.65 -6.95 3.8 -6.95 3.95 -7.0 4.1 -7.0 4.25 -7.0 4.4 -7.0 4.55 -6.95 4.65 -6.9 4.8 -6.85 4.9 -6.8 5.0 -6.7 5.1 -6.65 5.15 -6.55 5.25 -6.45 5.3 -6.3 5.35 -6.2 5.4 -6.05 5.45 -5.9 5.45 -5.8 5.45 -5.65 L5.45 -5.65 M4.05 -6.2 Q4.0 -6.2 3.9 -6.15 3.85 -6.15 3.75 -6.15 3.7 -6.1 3.65 -6.05 3.6 -6.05 3.55 -6.0 3.5 -5.95 3.45 -5.9 3.4 -5.85 3.4 -5.8 3.35 -5.75 3.35 -5.65 3.35 -5.6 3.35 -5.5 3.35 -5.45 3.35 -5.35 3.35 -5.3 3.4 -5.25 3.45 -5.2 3.45 -5.15 3.5 -5.15 3.55 -5.1 3.6 -5.05 3.65 -5.05 3.75 -5.05 3.8 -5.0 3.85 -5.0 3.9 -5.0 4.0 -5.0 4.05 -5.0 4.1 -5.0 4.2 -5.0 4.25 -5.05 4.3 -5.05 4.35 -5.1 4.4 -5.1 4.45 -5.15 4.5 -5.2 4.55 -5.25 4.6 -5.3 4.6 -5.35 4.65 -5.4 4.65 -5.45 4.65 -5.5 4.65 -5.6 4.65 -5.65 4.65 -5.7 4.65 -5.75 4.65 -5.8 4.6 -5.85 4.6 -5.95 4.6 -5.95 4.55 -6.0 4.5 -6.05 4.5 -6.1 4.45 -6.15 4.4 -6.15 4.35 -6.2 4.3 -6.2 4.2 -6.2 4.15 -6.25 4.05 -6.2 L4.05 -6.2" fill="#070707" fill-rule="evenodd" stroke="none"/>
    <path d="M5.1 -1.9 Q5.1 -2.05 5.1 -2.15 5.15 -2.25 5.2 -2.4 5.25 -2.5 5.3 -2.6 5.4 -2.7 5.5 -2.75 5.6 -2.85 5.7 -2.9 5.8 -3.0 5.9 -3.05 6.05 -3.1 6.2 -3.1 6.3 -3.15 6.45 -3.15 6.6 -3.15 6.75 -3.1 6.85 -3.1 7.0 -3.0 7.15 -2.95 7.25 -2.85 7.4 -2.8 7.5 -2.7 7.6 -2.6 7.7 -2.45 7.8 -2.35 7.85 -2.2 7.9 -2.1 7.95 -1.95 7.95 -1.85 7.95 -1.7 7.95 -1.55 7.9 -1.45 7.85 -1.3 7.8 -1.2 7.7 -1.05 7.6 -0.95 7.55 -0.85 7.4 -0.75 7.3 -0.65 7.2 -0.6 7.05 -0.5 6.95 -0.45 6.8 -0.4 6.7 -0.4 6.55 -0.35 6.45 -0.35 6.3 -0.35 6.15 -0.4 6.05 -0.45 5.9 -0.5 5.8 -0.6 5.65 -0.65 5.55 -0.75 5.45 -0.85 5.35 -0.95 5.3 -1.05 5.25 -1.15 5.2 -1.3 5.15 -1.45 5.1 -1.6 5.1 -1.7 5.1 -1.9 L5.1 -1.9 M7.1 -1.75 Q7.1 -1.85 7.05 -1.9 7.05 -1.95 7.0 -2.05 7.0 -2.1 6.95 -2.1 6.9 -2.15 6.85 -2.2 6.8 -2.25 6.75 -2.25 6.7 -2.25 6.65 -2.3 6.6 -2.3 6.5 -2.3 6.45 -2.3 6.4 -2.3 6.35 -2.3 6.3 -2.3 6.2 -2.25 6.15 -2.25 6.1 -2.25 6.1 -2.2 6.05 -2.2 6.0 -2.15 5.95 -2.15 5.95 -2.1 5.9 -2.05 5.9 -2.0 5.9 -1.95 5.9 -1.9 5.9 -1.85 5.9 -1.8 5.9 -1.75 5.9 -1.65 5.95 -1.6 5.95 -1.55 6.0 -1.5 6.0 -1.45 6.05 -1.4 6.05 -1.35 6.1 -1.3 6.15 -1.25 6.2 -1.2 6.25 -1.2 6.3 -1.15 6.4 -1.15 6.45 -1.15 6.55 -1.15 6.6 -1.15 6.65 -1.2 6.7 -1.2 6.75 -1.2 6.8 -1.25 6.85 -1.3 6.9 -1.3 6.95 -1.35 6.95 -1.4 7.0 -1.45 7.05 -1.5 7.05 -1.55 7.1 -1.6 7.1 -1.65 7.1 -1.7 7.1 -1.75 L7.1 -1.75" fill="#070707" fill-rule="evenodd" stroke="none"/>
  </g>
</svg>
