<?xml version="1.0" encoding="UTF-8" standalone="no"?>
<svg xmlns:xlink="http://www.w3.org/1999/xlink" height="90.0px" width="50.0px" xmlns="http://www.w3.org/2000/svg">
  <g transform="matrix(1.0, 0.0, 0.0, 1.0, 25.0, 45.0)">
    <path d="M-11.25 -3.8 Q-11.15 -3.7 -11.05 -3.6 -10.95 -3.45 -10.85 -3.35 -10.75 -3.2 -10.6 -3.1 -10.5 -2.95 -10.35 -2.85 -10.2 -2.7 -10.05 -2.6 -9.9 -2.45 -9.75 -2.3 -9.55 -2.2 -9.4 -2.05 -9.2 -1.9 -9.0 -1.8 -8.75 -1.65 -8.55 -1.5 -8.3 -1.4 -8.05 -1.3 -7.8 -1.15 -7.5 -1.05 -7.25 -0.95 -6.9 -0.85 -6.6 -0.8 -6.2 -0.7 -5.85 -0.6 -5.4 -0.55 -5.0 -0.45 -4.45 -0.4 -3.95 -0.3 -3.35 -0.25 2.25 0.45 4.8 0.2 5.1 0.15 5.4 0.15 5.75 0.1 6.05 0.05 6.4 0.0 6.75 -0.05 7.1 -0.1 7.45 -0.15 7.85 -0.25 8.25 -0.3 8.65 -0.4 9.0 -0.5 9.45 -0.6 9.85 -0.75 10.3 -0.85 10.7 -1.0 10.75 -0.95 10.75 -0.9 10.8 -0.8 10.85 -0.7 10.9 -0.6 10.95 -0.5 11.05 -0.35 11.05 -0.2 11.1 -0.05 11.15 0.15 11.2 0.35 11.2 0.5 11.2 0.75 11.2 0.95 11.2 1.15 11.15 1.4 11.1 1.55 11.05 1.7 11.0 1.85 10.95 2.0 10.9 2.15 10.8 2.25 10.75 2.4 10.65 2.5 10.6 2.6 10.5 2.7 10.45 2.75 10.35 2.85 10.3 2.9 10.25 2.95 10.2 3.0 10.15 3.05 9.7 3.15 9.3 3.2 8.85 3.3 8.4 3.35 8.0 3.45 7.55 3.5 7.1 3.55 6.7 3.6 6.25 3.65 5.8 3.7 5.4 3.75 4.95 3.75 4.5 3.8 4.05 3.8 3.65 3.85 3.2 3.85 4.15 3.85 2.1 3.85 1.45 3.85 1.0 3.85 0.45 3.85 -0.05 3.85 -0.55 3.85 -1.05 3.8 -1.55 3.75 -2.05 3.7 -2.55 3.65 -3.05 3.55 -3.55 3.45 -4.05 3.3 -4.6 3.2 -5.1 3.0 -5.5 2.85 -5.95 2.7 -6.35 2.5 -6.7 2.35 -7.1 2.15 -7.45 1.95 -7.8 1.8 -8.1 1.6 -8.4 1.4 -8.7 1.2 -9.0 1.05 -9.25 0.85 -9.5 0.65 -9.75 0.5 -9.95 0.3 -10.15 0.15 -10.7 -1.85 -11.25 -3.8 L-11.25 -3.8" fill="#990000" fill-rule="evenodd" stroke="none"/>
    <path d="M9.85 -16.25 Q9.75 -16.25 9.75 -16.25 9.65 -16.3 9.6 -16.3 9.55 -16.3 9.45 -16.35 9.4 -16.35 9.3 -16.4 9.25 -16.4 9.15 -16.45 9.05 -16.45 9.0 -16.5 8.9 -16.55 8.8 -16.6 8.7 -16.65 8.6 -16.7 8.55 -16.75 8.5 -16.75 8.45 -16.8 8.4 -16.8 8.35 -16.85 8.3 -16.9 8.25 -16.9 8.2 -16.95 8.2 -17.0 8.15 -17.0 8.1 -17.05 8.05 -17.05 8.05 -17.1 8.0 -17.15 7.95 -17.15 7.95 -17.2 7.9 -17.15 7.9 -17.1 7.85 -17.05 7.85 -17.0 7.8 -16.95 7.75 -16.9 7.7 -16.85 7.7 -16.8 7.65 -16.75 7.6 -16.7 7.55 -16.65 7.5 -16.6 7.45 -16.55 7.35 -16.5 7.3 -16.4 7.25 -16.35 7.25 -16.35 7.15 -16.25 7.05 -16.2 7.0 -16.2 6.9 -16.1 6.85 -16.05 6.75 -16.0 6.65 -15.95 6.55 -15.9 6.4 -15.9 6.3 -15.85 6.2 -15.8 6.05 -15.8 5.9 -15.8 5.8 -15.75 5.65 -15.8 5.5 -15.8 5.35 -15.85 5.2 -15.9 5.05 -15.95 4.95 -16.0 4.8 -16.05 4.7 -16.1 4.6 -16.2 4.5 -16.25 4.45 -16.35 4.4 -16.4 4.3 -16.45 4.25 -16.5 4.2 -16.55 4.2 -16.6 4.15 -16.65 4.15 -16.6 4.1 -16.6 4.1 -16.55 4.05 -16.5 4.0 -16.45 4.0 -16.45 3.95 -16.4 3.9 -16.35 3.85 -16.3 3.85 -16.25 3.8 -16.25 3.75 -16.2 3.7 -16.15 3.65 -16.1 3.55 -16.1 3.5 -16.05 3.3 -15.95 3.15 -15.9 2.95 -15.8 2.75 -15.8 2.6 -15.75 2.4 -15.75 2.25 -15.75 2.1 -15.75 1.95 -15.75 1.8 -15.8 1.7 -15.8 1.6 -15.85 1.5 -15.9 1.4 -15.9 1.4 -15.9 1.35 -15.95 1.25 -16.0 1.15 -16.05 1.1 -16.05 1.0 -16.1 0.95 -16.15 0.85 -16.2 0.8 -16.25 0.75 -16.3 0.7 -16.35 0.6 -16.4 0.55 -16.45 0.5 -16.5 0.5 -16.55 0.45 -16.6 0.4 -16.65 0.35 -16.7 0.35 -16.65 0.3 -16.65 0.3 -16.6 0.3 -16.55 0.25 -16.55 0.25 -16.5 0.2 -16.45 0.15 -16.4 0.15 -16.4 0.1 -16.35 0.05 -16.3 0.05 -16.25 0.0 -16.25 -0.05 -16.2 -0.1 -16.15 -0.15 -16.1 -0.3 -16.0 -0.45 -15.95 -0.6 -15.9 -0.75 -15.85 -0.9 -15.8 -1.05 -15.8 -1.15 -15.8 -1.3 -15.8 -1.45 -15.8 -1.55 -15.85 -1.65 -15.85 -1.8 -15.85 -1.85 -15.9 -1.95 -15.9 -2.0 -15.95 -2.05 -15.95 -2.2 -16.0 -2.3 -16.05 -2.45 -16.1 -2.55 -16.2 -2.65 -16.25 -2.75 -16.35 -2.85 -16.4 -2.95 -16.5 -3.0 -16.55 -3.05 -16.65 -3.15 -16.7 -3.2 -16.8 -3.25 -16.85 -3.25 -16.9 -3.3 -16.95 -3.35 -17.0 -3.4 -16.9 -3.5 -16.85 -3.55 -16.8 -3.6 -16.75 -3.7 -16.65 -3.75 -16.6 -3.8 -16.6 -3.9 -16.55 -3.95 -16.5 -4.0 -16.45 -4.05 -16.45 -4.1 -16.4 -4.15 -16.4 -4.2 -16.4 -4.25 -16.35 -4.3 -16.35 -4.5 -16.3 -4.7 -16.25 -4.85 -16.25 -5.05 -16.25 -5.2 -16.25 -5.4 -16.3 -5.55 -16.35 -5.7 -16.4 -5.85 -16.45 -5.95 -16.5 -6.05 -16.55 -6.15 -16.6 -6.25 -16.65 -6.35 -16.7 -6.35 -16.75 -6.4 -16.8 -6.45 -16.85 -6.55 -16.9 -6.6 -16.95 -6.65 -17.0 -6.7 -17.05 -6.75 -17.1 -6.8 -17.15 -6.85 -17.2 -6.85 -17.2 -6.9 -17.25 -6.95 -17.3 -6.95 -17.35 -7.0 -17.4 -7.05 -17.45 -7.05 -17.5 -7.05 -17.5 -7.05 -17.5 -7.1 -17.45 -7.15 -17.4 -7.15 -17.4 -7.2 -17.35 -7.25 -17.3 -7.3 -17.3 -7.3 -17.25 -7.35 -17.2 -7.4 -17.15 -7.45 -17.15 -7.5 -17.1 -7.55 -17.05 -7.6 -17.05 -7.65 -17.0 -7.75 -16.95 -7.85 -16.9 -7.95 -16.85 -8.1 -16.85 -8.2 -16.8 -8.3 -16.8 -8.4 -16.8 -8.5 -16.8 -8.6 -16.8 -8.7 -16.8 -8.8 -16.85 -8.9 -16.85 -9.0 -16.85 -9.05 -16.9 -9.15 -16.9 -9.2 -16.95 -9.3 -16.95 -9.4 -17.0 -9.4 -17.0 -9.5 -17.0 -9.55 -17.05 -9.65 -17.05 -9.75 -17.1 -9.8 -17.15 -9.9 -17.2 -10.0 -17.25 -10.05 -17.3 -10.15 -17.35 -10.25 -17.45 -10.3 -17.5 -10.4 -17.6 -10.45 -17.7 -10.5 -17.8 -10.55 -17.85 -10.55 -17.9 -10.6 -17.9 -10.6 -17.95 -10.6 -18.0 -10.65 -18.05 -10.65 -18.05 -10.65 -18.1 -10.65 -18.15 -10.7 -18.15 -10.7 -18.2 -10.7 -18.25 -10.7 -18.25 -10.7 -18.3 -10.75 -18.25 -10.75 -18.2 -10.8 -18.15 -10.85 -18.1 -10.9 -18.1 -10.95 -18.05 -11.0 -18.0 -11.05 -17.95 -11.1 -17.9 -11.15 -17.9 -11.2 -17.85 -11.3 -17.8 -11.35 -17.75 -11.45 -17.75 -11.5 -17.7 -11.6 -17.65 -11.7 -17.6 -11.85 -17.55 -11.95 -17.55 -12.1 -17.5 -12.2 -17.5 -12.3 -17.5 -12.4 -17.5 -12.55 -17.5 -12.6 -17.5 -12.7 -17.5 -12.8 -17.5 -12.9 -17.5 -12.95 -17.5 -13.05 -17.5 -13.1 -17.5 -13.15 -17.55 -13.2 -18.55 -13.3 -20.55 -12.9 -20.5 -12.55 -20.5 -12.15 -20.45 -11.8 -20.4 -11.45 -20.35 -11.1 -20.3 -10.8 -20.25 -10.5 -20.2 -10.2 -20.15 -9.9 -20.1 -9.6 -20.05 -9.35 -20.0 -9.1 -19.95 -8.85 -19.9 -8.6 -19.85 -8.35 -19.8 -5.1 -18.95 -4.5 -18.85 -3.3 -18.65 -1.1 -18.6 0.8 -18.55 4.0 -18.7 4.6 -18.75 5.1 -18.8 5.6 -18.8 6.05 -18.85 6.45 -18.9 6.85 -18.95 7.2 -19.0 7.55 -19.05 7.9 -19.1 8.2 -19.15 8.45 -19.2 8.75 -19.25 9.0 -19.3 9.25 -19.35 9.5 -19.4 9.75 -19.5 9.8 -19.5 9.85 -19.5 9.9 -19.5 9.95 -19.55 9.95 -19.55 10.0 -19.55 10.05 -19.55 10.1 -19.55 10.1 -19.6 10.15 -19.6 10.2 -19.6 10.2 -19.6 10.25 -19.6 10.25 -19.65 10.3 -19.65 10.3 -19.65 10.15 -18.5 9.85 -16.25 L9.85 -16.25" fill="#990000" fill-rule="evenodd" stroke="none"/>
  </g>
</svg>
