<?xml version="1.0" encoding="UTF-8" standalone="no"?>
<svg xmlns:xlink="http://www.w3.org/1999/xlink" height="40.0px" width="50.0px" xmlns="http://www.w3.org/2000/svg">
  <g transform="matrix(1.0, 0.0, 0.0, 1.0, 25.0, 20.0)">
    <path d="M2.6 9.6 Q2.15 9.6 1.65 9.6 1.2 9.55 0.75 9.55 0.3 9.5 -0.15 9.45 -0.65 9.4 -1.1 9.35 -1.55 9.3 -2.0 9.25 -2.45 9.2 -2.9 9.1 -3.35 9.05 -3.8 8.95 -4.25 8.85 -4.7 8.75 -4.95 8.7 -5.2 8.6 -5.45 8.55 -5.7 8.5 -6.0 8.4 -6.2 8.3 -6.45 8.2 -6.7 8.15 -6.95 8.05 -7.2 7.9 -7.45 7.8 -7.65 7.7 -7.9 7.6 -8.15 7.45 -8.35 7.3 -8.6 7.2 -9.2 6.8 -10.5 5.7 -10.55 5.65 -10.55 5.65 -10.6 5.6 -10.65 5.55 -10.65 5.5 -10.7 5.45 -10.75 5.4 -10.75 5.35 -10.8 5.35 -10.8 5.3 -10.85 5.25 -10.85 5.2 -10.9 5.15 -10.9 5.1 -10.95 5.05 -10.95 5.0 -11.0 4.85 -11.05 4.7 -11.15 4.6 -11.15 4.45 -11.2 4.3 -11.25 4.15 -11.3 4.0 -11.35 3.85 -11.35 3.75 -11.4 3.55 -11.4 3.45 -11.45 3.3 -11.45 3.15 -11.5 3.0 -11.5 2.85 -11.5 2.7 -11.55 2.45 -11.65 1.95 -11.7 1.45 -11.75 1.2 -11.8 1.0 -11.85 0.55 -11.9 0.1 -11.9 -0.1 -11.95 -0.45 -12.05 -1.0 -12.15 -1.65 -12.2 -1.95 -12.25 -2.25 -12.65 -4.6 -12.95 -6.2 -13.1 -7.25 -13.6 -10.05 -13.85 -12.1 -14.05 -13.3 -14.2 -15.4 -14.2 -15.45 -14.2 -15.5 -14.2 -15.55 -14.2 -15.65 -14.2 -15.7 -14.2 -15.75 -14.2 -15.8 -14.2 -15.85 -14.2 -15.9 -14.2 -15.95 -14.15 -16.0 -14.15 -16.1 -14.15 -16.15 -14.15 -16.2 -14.15 -16.25 -14.1 -16.3 -14.1 -16.35 -14.05 -16.4 -14.05 -16.45 -14.0 -16.5 -14.0 -16.55 -13.95 -16.6 -13.95 -16.65 -13.9 -16.65 -13.85 -16.7 -13.8 -16.7 -13.75 -16.75 -13.7 -16.75 -13.65 -16.75 -13.6 -16.75 -13.5 -16.75 -13.45 -16.75 -13.4 -16.75 -13.35 -16.75 -13.3 -16.75 -13.25 -16.75 -13.2 -16.75 -13.15 -16.7 -13.15 -16.7 -13.05 -16.7 -9.0 -15.65 -8.5 -15.55 -8.15 -15.45 -7.8 -15.4 -7.5 -15.3 -7.15 -15.25 -6.8 -15.2 -6.45 -15.1 -6.1 -15.05 -5.8 -15.0 -5.45 -14.95 -5.1 -14.9 -4.75 -14.8 -4.4 -14.75 -4.05 -14.7 -3.7 -14.65 -3.35 -14.65 -3.05 -14.6 -2.7 -14.55 -2.3 -14.5 -1.95 -14.5 -1.6 -14.45 -1.25 -14.45 -0.9 -14.4 -0.5 -14.4 -0.15 -14.4 0.2 -14.4 0.55 -14.4 0.95 -14.4 1.3 -14.4 1.65 -14.4 2.0 -14.45 2.35 -14.45 2.75 -14.5 3.9 -14.6 6.25 -14.8 6.45 -14.85 6.7 -14.85 6.9 -14.9 7.15 -14.95 7.35 -15.0 7.6 -15.05 7.8 -15.1 8.05 -15.15 8.25 -15.2 8.5 -15.25 8.7 -15.3 8.9 -15.4 9.15 -15.45 9.35 -15.5 9.55 -15.6 9.8 -15.65 9.85 -15.65 9.85 -15.7 9.9 -15.7 9.95 -15.7 9.95 -15.7 10.0 -15.7 10.05 -15.75 10.05 -15.75 10.1 -15.75 10.15 -15.75 10.2 -15.8 10.2 -15.8 10.25 -15.8 10.3 -15.8 10.3 -15.85 10.35 -15.85 10.45 -15.9 10.55 -15.9 10.7 -15.9 10.8 -15.9 10.9 -15.85 10.95 -15.8 11.05 -15.8 11.15 -15.7 11.2 -15.65 11.25 -15.55 11.3 -15.5 11.35 -15.4 11.4 -15.3 11.4 -15.2 11.4 -15.1 11.4 -14.95 11.3 -14.2 11.15 -12.95 11.0 -11.45 10.9 -11.0 10.75 -9.35 10.45 -6.8 10.35 -5.95 10.2 -4.7 9.95 -2.8 9.95 -2.6 9.95 -2.5 9.95 -2.4 9.9 -2.3 9.9 -2.25 9.9 -2.15 9.9 -2.05 9.9 -1.95 9.9 -1.85 9.95 -1.8 9.95 -1.7 9.95 -1.6 10.0 -1.5 10.0 -1.45 10.05 -1.35 10.05 -1.25 10.1 -1.15 10.45 -0.2 11.05 1.35 11.75 3.25 12.0 3.9 12.2 4.4 12.4 4.65 12.55 4.85 12.65 5.05 12.7 5.3 12.75 5.5 12.8 5.7 12.85 5.9 12.85 6.15 12.8 6.35 12.75 6.55 12.7 6.75 12.65 6.95 12.55 7.15 12.45 7.3 12.3 7.5 12.15 7.65 12.0 7.8 11.9 7.85 11.85 7.95 11.75 8.0 11.7 8.05 11.6 8.15 11.5 8.2 11.4 8.25 11.35 8.3 11.25 8.35 11.15 8.4 11.05 8.45 10.95 8.5 10.85 8.5 10.8 8.55 10.7 8.6 10.6 8.6 8.65 9.1 7.9 9.25 7.65 9.3 7.35 9.35 7.1 9.35 6.85 9.4 6.55 9.45 6.3 9.45 6.0 9.5 5.75 9.5 5.45 9.5 5.2 9.55 4.95 9.55 4.65 9.55 4.4 9.55 4.1 9.55 3.85 9.55 3.55 9.6 3.2 9.6 2.6 9.6 L2.6 9.6 M-12.05 -12.25 Q-12.05 -12.15 -12.05 -11.9 -12.05 -11.7 -12.05 -11.6 -12.0 -11.35 -11.85 -10.25 -11.75 -9.45 -11.7 -8.95 -11.7 -8.85 -11.4 -7.25 -11.2 -6.25 -11.1 -5.55 -10.9 -4.2 -10.2 -0.7 -10.2 -0.6 -10.05 0.0 -10.0 0.45 -9.95 0.75 -9.95 0.85 -9.95 0.9 -9.9 1.0 -9.9 1.05 -9.9 1.15 -9.85 1.2 -9.8 1.3 -9.8 1.35 -9.75 1.4 -9.7 1.45 -9.65 1.55 -9.6 1.6 -9.55 1.65 -9.5 1.7 -9.45 1.75 -9.4 1.8 -9.35 1.85 -9.0 2.05 -8.75 2.2 -8.6 2.3 -7.7 2.75 -7.1 2.95 -6.75 3.1 -6.4 3.2 -6.05 3.3 -5.7 3.4 -5.3 3.5 -4.95 3.6 -4.6 3.7 -4.25 3.8 -3.9 3.85 -3.5 3.95 -3.15 4.0 -2.8 4.05 -2.4 4.1 -2.05 4.15 -1.65 4.2 -1.3 4.25 -0.35 4.3 1.45 4.4 3.35 4.55 4.15 4.6 4.35 4.6 4.55 4.6 4.75 4.6 4.95 4.6 5.15 4.6 5.35 4.6 5.55 4.6 5.75 4.55 5.95 4.55 6.15 4.5 6.35 4.5 6.55 4.45 6.75 4.45 6.95 4.4 7.15 4.35 7.35 4.3 8.9 3.9 9.6 3.55 9.65 3.55 9.7 3.5 9.75 3.5 9.75 3.5 9.8 3.45 9.85 3.45 9.85 3.4 9.9 3.4 9.95 3.4 9.95 3.35 10.0 3.35 10.05 3.3 10.05 3.3 10.1 3.25 10.15 3.25 10.15 3.2 8.9 -0.2 8.4 -1.35 8.35 -1.45 8.35 -1.5 8.35 -1.55 8.3 -1.65 8.3 -1.7 8.3 -1.8 8.3 -1.85 8.25 -1.95 8.25 -2.0 8.25 -2.1 8.25 -2.15 8.25 -2.2 8.25 -2.3 8.3 -2.35 8.3 -2.45 8.3 -2.5 8.5 -3.8 8.5 -4.0 8.55 -4.5 8.8 -7.4 8.85 -8.15 9.05 -10.25 9.05 -10.6 9.1 -11.25 8.8 -11.4 8.2 -11.7 8.1 -11.6 8.05 -11.45 7.95 -11.35 7.85 -11.25 7.75 -11.15 7.65 -11.1 7.55 -11.0 7.45 -10.9 7.35 -10.85 7.25 -10.8 7.1 -10.75 7.0 -10.7 6.85 -10.65 6.7 -10.6 6.6 -10.6 6.45 -10.55 6.3 -10.55 6.15 -10.55 6.0 -10.55 5.9 -10.55 5.75 -10.55 5.6 -10.6 5.5 -10.6 5.35 -10.65 5.25 -10.7 5.1 -10.75 5.0 -10.8 4.85 -10.85 4.75 -10.95 4.65 -11.0 4.5 -11.1 4.4 -11.2 4.3 -11.1 4.2 -11.0 4.1 -10.9 4.0 -10.85 3.9 -10.75 3.8 -10.7 3.65 -10.65 3.55 -10.6 3.45 -10.55 3.3 -10.5 3.2 -10.45 3.05 -10.45 2.9 -10.4 2.8 -10.4 2.65 -10.4 2.5 -10.4 2.35 -10.4 2.25 -10.4 2.1 -10.45 1.95 -10.45 1.85 -10.5 1.7 -10.55 1.6 -10.6 1.5 -10.65 1.35 -10.7 1.25 -10.8 1.15 -10.85 1.05 -10.95 0.95 -11.0 0.85 -11.1 0.75 -11.2 0.65 -11.35 0.5 -11.15 0.3 -11.05 0.1 -10.9 -0.15 -10.8 -0.4 -10.7 -0.65 -10.65 -0.9 -10.6 -1.15 -10.6 -1.4 -10.6 -1.65 -10.65 -1.95 -10.7 -2.2 -10.85 -2.45 -10.95 -2.65 -11.15 -2.9 -11.35 -3.1 -11.6 -3.2 -11.5 -3.3 -11.45 -3.4 -11.35 -3.5 -11.3 -3.65 -11.2 -3.75 -11.15 -3.85 -11.1 -4.0 -11.05 -4.1 -11.05 -4.25 -11.0 -4.35 -11.0 -4.5 -11.0 -4.6 -10.95 -4.75 -10.95 -4.9 -11.0 -5.05 -11.0 -5.2 -11.0 -5.3 -11.05 -5.45 -11.05 -5.55 -11.1 -5.7 -11.15 -5.8 -11.2 -5.9 -11.25 -6.05 -11.35 -6.15 -11.4 -6.25 -11.5 -6.35 -11.55 -6.45 -11.65 -6.55 -11.75 -6.6 -11.85 -6.7 -11.95 -6.8 -12.1 -6.9 -12.0 -7.0 -11.9 -7.15 -11.85 -7.25 -11.75 -7.35 -11.7 -7.5 -11.65 -7.6 -11.6 -7.75 -11.6 -7.85 -11.55 -8.0 -11.5 -8.1 -11.5 -8.25 -11.5 -8.35 -11.5 -8.5 -11.5 -8.65 -11.5 -8.8 -11.55 -8.95 -11.55 -9.05 -11.6 -9.2 -11.65 -9.3 -11.7 -9.45 -11.7 -9.55 -11.8 -9.65 -11.85 -9.75 -11.9 -9.85 -12.0 -9.95 -12.05 -10.05 -12.15 -10.15 -12.25 -10.25 -12.35 -10.3 -12.45 -10.4 -12.55 -10.5 -12.7 -10.6 -12.65 -10.65 -12.6 -10.75 -12.55 -10.85 -12.5 -10.95 -12.45 -11.05 -12.4 -11.1 -12.35 -11.2 -12.3 -11.3 -12.3 -11.4 -12.25 -11.5 -12.25 -11.6 -12.25 -11.7 -12.25 -11.8 -12.25 -11.95 -12.25 -12.05 -12.25 L-12.05 -12.25 M-9.3 3.65 Q-9.1 4.25 -9.0 4.65 -9.0 4.7 -9.0 4.75 -8.95 4.8 -8.95 4.85 -8.95 4.85 -8.9 4.9 -8.9 4.95 -8.9 5.0 -8.85 5.0 -8.85 5.05 -8.8 5.1 -8.8 5.1 -8.75 5.15 -8.75 5.2 -8.7 5.2 -8.65 5.25 -8.6 5.3 -8.55 5.35 -8.45 5.45 -8.4 5.5 -8.35 5.55 -8.3 5.6 -8.2 5.65 -8.15 5.7 -8.05 5.75 -8.0 5.8 -7.95 5.85 -7.85 5.9 -7.8 5.95 -7.7 6.0 -7.65 6.0 -7.55 6.05 -7.3 6.2 -7.05 6.3 -6.8 6.45 -6.55 6.55 -6.3 6.65 -6.05 6.75 -5.75 6.85 -5.5 6.95 -5.25 7.05 -5.0 7.15 -4.7 7.2 -4.45 7.3 -4.15 7.35 -3.9 7.4 -3.6 7.45 -3.35 7.5 -3.05 7.55 -2.7 7.6 -2.4 7.65 -2.05 7.7 -1.75 7.75 -1.4 7.8 -1.1 7.85 -0.75 7.9 -0.4 7.95 -0.1 7.95 0.25 8.0 0.55 8.0 0.9 8.05 1.2 8.05 1.55 8.05 1.85 8.1 2.1 8.1 2.3 8.1 2.55 8.1 2.8 8.1 3.05 8.1 3.25 8.1 3.5 8.1 3.75 8.1 4.0 8.1 4.2 8.1 4.45 8.1 4.7 8.05 4.9 8.05 5.15 8.05 5.4 8.0 5.6 8.0 5.65 8.0 8.3 7.7 8.4 7.7 8.5 7.7 8.6 7.65 8.7 7.65 8.75 7.65 8.85 7.65 8.95 7.6 9.05 7.6 9.15 7.55 9.25 7.55 9.35 7.55 9.4 7.5 9.5 7.45 9.6 7.45 9.7 7.4 9.75 7.35 9.8 7.35 9.9 7.3 9.95 7.3 10.0 7.25 10.05 7.25 10.1 7.2 10.2 7.2 10.25 7.15 10.3 7.1 10.35 7.1 10.4 7.05 10.5 7.0 10.55 7.0 10.6 6.95 10.65 6.95 10.7 6.9 10.75 6.85 10.8 6.85 10.85 6.8 10.9 6.75 10.95 6.7 10.95 6.65 11.0 6.6 11.05 6.55 11.05 6.5 11.1 6.45 11.1 6.4 11.1 6.3 11.1 6.25 11.15 6.2 11.15 6.15 11.15 6.1 11.15 6.0 11.15 5.9 11.15 5.85 11.1 5.75 11.1 5.65 11.1 5.55 11.05 5.5 11.05 5.4 11.0 5.3 11.0 5.2 10.95 5.15 10.9 5.05 10.9 4.95 10.85 4.9 10.8 4.8 10.75 4.7 10.7 4.7 10.65 4.75 10.65 4.75 10.6 4.75 10.55 4.8 10.5 4.8 10.5 4.8 10.45 4.85 10.4 4.85 10.35 4.85 8.45 5.45 8.0 5.55 7.8 5.6 7.55 5.65 7.35 5.7 7.15 5.75 6.9 5.8 6.7 5.85 6.45 5.9 6.25 5.9 6.05 5.95 5.8 6.0 5.6 6.0 5.4 6.0 5.15 6.05 4.95 6.05 4.7 6.05 4.5 6.05 1.6 6.0 -0.65 5.8 -2.75 5.55 -3.35 5.45 -3.65 5.4 -3.9 5.35 -4.2 5.3 -4.5 5.25 -4.8 5.2 -5.05 5.1 -5.35 5.05 -5.6 5.0 -5.9 4.9 -6.2 4.85 -6.45 4.75 -6.75 4.65 -7.0 4.6 -7.3 4.5 -7.55 4.4 -7.85 4.3 -8.05 4.2 -8.55 4.0 -9.0 3.8 -9.3 3.65 L-9.3 3.65 M9.4 -13.9 Q9.15 -13.85 9.05 -13.8 8.85 -13.75 8.7 -13.7 8.55 -13.65 8.35 -13.6 8.2 -13.6 8.0 -13.55 7.85 -13.5 7.65 -13.45 7.45 -13.45 7.3 -13.4 7.1 -13.35 6.95 -13.35 6.75 -13.3 6.6 -13.3 6.4 -13.3 6.2 -13.25 2.9 -12.95 1.8 -12.9 0.7 -12.85 -1.45 -12.9 -2.65 -12.95 -5.1 -13.35 -6.85 -13.55 -7.6 -13.75 -8.25 -13.9 -11.75 -14.7 -11.8 -14.75 -12.05 -14.8 -12.05 -14.2 -12.05 -13.05 -11.95 -13.0 -11.85 -13.0 -11.8 -13.0 -11.7 -13.0 -11.6 -13.0 -11.55 -13.0 -11.45 -13.05 -11.4 -13.05 -11.3 -13.05 -11.25 -13.1 -11.2 -13.15 -11.1 -13.2 -11.05 -13.25 -11.0 -13.3 -10.9 -13.3 -10.85 -13.4 -10.8 -13.45 -10.75 -13.5 -10.65 -13.6 -10.6 -13.65 -10.55 -13.7 -10.55 -13.7 -10.5 -13.75 -10.45 -13.75 -10.4 -13.75 -10.4 -13.75 -10.35 -13.75 -10.3 -13.75 -10.25 -13.75 -10.2 -13.75 -10.2 -13.75 -10.15 -13.7 -10.1 -13.7 -10.1 -13.65 -10.05 -13.65 -10.0 -13.6 -9.95 -13.35 -9.9 -13.35 -9.9 -13.3 -9.9 -13.3 -9.85 -13.25 -9.85 -13.25 -9.85 -13.2 -9.85 -13.15 -9.8 -13.15 -9.8 -13.1 -9.8 -13.05 -9.8 -13.05 -9.75 -13.0 -9.75 -13.0 -9.75 -12.95 -9.7 -12.95 -9.7 -12.9 -9.7 -12.9 -9.6 -12.75 -9.45 -12.6 -9.3 -12.5 -9.1 -12.4 -8.95 -12.35 -8.75 -12.3 -8.6 -12.25 -8.4 -12.25 -8.25 -12.25 -8.05 -12.3 -7.9 -12.3 -7.75 -12.35 -7.6 -12.45 -7.45 -12.5 -7.35 -12.6 -7.25 -12.7 -7.2 -12.8 -7.0 -12.95 -6.95 -13.0 -6.9 -13.05 -6.85 -13.1 -6.8 -13.1 -6.75 -13.15 -6.7 -13.15 -6.65 -13.15 -6.6 -13.15 -6.55 -13.15 -6.5 -13.1 -6.45 -13.1 -6.4 -13.05 -6.35 -13.0 -6.35 -12.95 -6.3 -12.9 -6.25 -12.8 -6.2 -12.65 -6.2 -12.6 -6.15 -12.55 -6.15 -12.55 -6.1 -12.5 -6.1 -12.45 -6.1 -12.45 -6.05 -12.4 -6.0 -12.35 -6.0 -12.35 -5.95 -12.3 -5.95 -12.25 -5.9 -12.25 -5.9 -12.2 -5.85 -12.2 -5.85 -12.15 -5.8 -12.1 -5.8 -12.1 -5.7 -12.0 -5.55 -11.95 -5.45 -11.85 -5.3 -11.8 -5.15 -11.75 -5.0 -11.75 -4.85 -11.75 -4.7 -11.7 -4.55 -11.7 -4.45 -11.75 -4.3 -11.75 -4.15 -11.8 -4.05 -11.85 -3.95 -11.9 -3.8 -11.95 -3.75 -12.05 -3.6 -12.15 -3.35 -12.35 -3.3 -12.4 -3.25 -12.4 -3.2 -12.45 -3.15 -12.45 -3.15 -12.5 -3.1 -12.5 -3.05 -12.5 -3.0 -12.5 -2.95 -12.5 -2.95 -12.5 -2.9 -12.5 -2.85 -12.45 -2.8 -12.45 -2.8 -12.4 -2.75 -12.35 -2.7 -12.3 -2.65 -12.25 -2.6 -12.15 -2.5 -12.0 -2.45 -11.95 -2.4 -11.9 -2.35 -11.85 -2.35 -11.8 -2.3 -11.75 -2.25 -11.7 -2.2 -11.65 -2.15 -11.65 -2.1 -11.6 -2.05 -11.55 -2.0 -11.55 -1.9 -11.5 -1.85 -11.5 -1.8 -11.45 -1.75 -11.45 -1.65 -11.4 -1.6 -11.4 -1.55 -11.4 -1.5 -11.4 -1.45 -11.4 -1.4 -11.4 -1.35 -11.35 -1.3 -11.35 -1.25 -11.35 -1.2 -11.35 -1.15 -11.35 -1.1 -11.35 -1.05 -11.35 -1.0 -11.35 -0.95 -11.35 -0.9 -11.35 -0.85 -11.35 -0.8 -11.35 -0.7 -11.35 -0.65 -11.35 -0.55 -11.35 -0.5 -11.4 -0.45 -11.4 -0.35 -11.4 -0.3 -11.45 -0.25 -11.45 -0.15 -11.5 -0.1 -11.55 -0.05 -11.55 0.0 -11.6 0.05 -11.65 0.15 -11.7 0.2 -11.75 0.25 -11.8 0.3 -11.85 0.3 -11.9 0.35 -11.9 0.35 -11.95 0.4 -12.0 0.45 -12.05 0.45 -12.05 0.5 -12.1 0.55 -12.15 0.6 -12.15 0.65 -12.2 0.7 -12.25 0.75 -12.25 0.8 -12.25 0.8 -12.25 0.85 -12.25 0.9 -12.2 1.0 -12.15 1.2 -11.9 1.25 -11.85 1.3 -11.75 1.4 -11.65 1.5 -11.55 1.6 -11.45 1.75 -11.4 1.85 -11.3 2.0 -11.25 2.15 -11.2 2.3 -11.2 2.45 -11.15 2.6 -11.15 2.75 -11.15 2.9 -11.2 3.05 -11.2 3.2 -11.25 3.4 -11.35 3.45 -11.35 3.5 -11.4 3.55 -11.45 3.6 -11.45 3.65 -11.5 3.65 -11.55 3.7 -11.55 3.75 -11.6 3.8 -11.65 3.85 -11.7 3.85 -11.75 3.9 -11.8 3.9 -11.8 3.95 -11.85 4.0 -11.9 4.05 -11.95 4.1 -12.0 4.15 -12.05 4.2 -12.1 4.25 -12.15 4.3 -12.2 4.4 -12.2 4.45 -12.2 4.5 -12.2 4.55 -12.2 4.6 -12.2 4.6 -12.2 4.65 -12.15 4.7 -12.1 4.75 -12.05 4.8 -12.0 4.9 -11.9 4.9 -11.85 4.95 -11.85 4.95 -11.8 4.95 -11.8 5.0 -11.75 5.0 -11.75 5.05 -11.7 5.05 -11.7 5.1 -11.65 5.1 -11.65 5.15 -11.6 5.15 -11.6 5.2 -11.55 5.25 -11.55 5.25 -11.5 5.3 -11.5 5.45 -11.4 5.6 -11.35 5.75 -11.35 5.9 -11.3 6.05 -11.3 6.2 -11.3 6.35 -11.3 6.5 -11.35 6.7 -11.4 6.8 -11.45 6.95 -11.5 7.1 -11.6 7.2 -11.7 7.35 -11.8 7.45 -11.95 7.5 -12.05 7.65 -12.35 7.8 -12.5 7.8 -12.55 7.85 -12.6 7.85 -12.6 7.9 -12.65 7.9 -12.65 7.95 -12.7 7.95 -12.7 8.0 -12.7 8.0 -12.7 8.05 -12.7 8.05 -12.7 8.1 -12.7 8.15 -12.7 8.2 -12.7 8.2 -12.7 8.25 -12.65 8.3 -12.65 8.35 -12.6 8.4 -12.6 8.4 -12.55 8.45 -12.55 8.5 -12.5 8.5 -12.5 8.55 -12.45 8.6 -12.4 8.65 -12.4 8.65 -12.35 8.7 -12.3 8.75 -12.3 8.8 -12.25 8.8 -12.25 8.85 -12.2 8.9 -12.2 8.95 -12.15 9.0 -12.15 9.05 -12.15 9.1 -12.1 9.1 -12.1 9.15 -12.1 9.25 -12.1 9.3 -12.7 9.4 -13.9 L9.4 -13.9" fill="#000000" fill-rule="evenodd" stroke="none"/>
  </g>
</svg>
