<?xml version="1.0" encoding="UTF-8" standalone="no"?>
<svg xmlns:xlink="http://www.w3.org/1999/xlink" height="100.0px" width="100.0px" xmlns="http://www.w3.org/2000/svg">
  <g transform="matrix(1.0, 0.0, 0.0, 1.0, 50.0, 50.0)">
    <path d="M12.2 -1.35 Q11.95 -1.3 11.75 -1.25 11.5 -1.25 11.25 -1.2 11.0 -1.15 10.75 -1.1 10.45 -1.1 10.2 -1.05 9.9 -1.05 9.65 -1.0 9.35 -1.0 9.05 -0.95 8.8 -0.95 8.5 -0.9 8.2 -0.9 7.9 -0.9 7.4 -0.9 6.9 -0.9 6.45 -0.9 5.95 -0.95 5.5 -0.95 5.05 -1.0 4.65 -1.05 4.2 -1.1 3.8 -1.15 3.35 -1.2 3.0 -1.25 2.6 -1.35 2.25 -1.4 1.85 -1.45 1.55 -1.55 1.2 -1.65 0.15 -1.1 -1.95 -0.1 -1.9 0.05 -1.8 0.2 -1.75 0.4 -1.65 0.55 -1.55 0.75 -1.4 0.9 -1.3 1.1 -1.15 1.3 -1.0 1.5 -0.85 1.7 -0.65 1.9 -0.5 2.05 -0.3 2.25 -0.05 2.45 0.15 2.6 0.4 2.75 0.6 2.9 0.8 3.0 1.0 3.1 1.2 3.2 1.4 3.25 1.6 3.35 1.8 3.4 2.0 3.45 2.15 3.5 2.35 3.55 2.5 3.6 2.7 3.6 2.85 3.65 3.0 3.65 3.1 3.65 3.3 3.7 3.9 3.75 4.5 3.85 5.1 3.9 5.7 3.95 6.25 4.0 6.85 4.05 7.35 4.05 7.95 4.1 8.45 4.15 8.95 4.15 9.45 4.2 9.95 4.2 10.4 4.25 10.85 4.25 11.3 4.25 11.7 4.3 11.85 2.4 12.2 -1.35 L12.2 -1.35" fill="#1e1e1e" fill-rule="evenodd" stroke="none"/>
    <path d="M13.5 -12.95 Q13.25 -12.9 13.05 -12.85 12.8 -12.8 12.55 -12.75 12.3 -12.75 12.0 -12.7 11.75 -12.65 11.5 -12.6 11.2 -12.6 10.95 -12.55 10.65 -12.55 10.35 -12.5 10.05 -12.5 9.8 -12.5 9.5 -12.45 9.2 -12.45 8.7 -12.45 8.2 -12.45 7.75 -12.45 7.25 -12.5 6.8 -12.5 6.35 -12.55 5.9 -12.6 5.5 -12.65 5.05 -12.7 4.65 -12.75 4.3 -12.8 3.9 -12.9 3.5 -12.95 3.15 -13.05 2.8 -13.1 2.5 -13.2 1.45 -12.7 -0.65 -11.7 -0.6 -11.55 -0.5 -11.4 -0.45 -11.2 -0.35 -11.05 -0.25 -10.85 -0.1 -10.65 0.0 -10.45 0.15 -10.25 0.3 -10.05 0.45 -9.9 0.6 -9.7 0.8 -9.5 1.0 -9.3 1.2 -9.15 1.45 -8.95 1.7 -8.8 1.9 -8.65 2.1 -8.55 2.3 -8.45 2.5 -8.35 2.7 -8.3 2.9 -8.2 3.1 -8.15 3.25 -8.1 3.45 -8.05 3.65 -8.0 3.8 -8.0 3.95 -7.95 4.1 -7.95 4.3 -7.9 4.4 -7.9 4.6 -7.85 5.2 -7.8 5.8 -7.75 6.4 -7.65 7.0 -7.6 7.55 -7.55 8.1 -7.55 8.65 -7.5 9.2 -7.45 9.75 -7.45 10.25 -7.4 10.75 -7.35 11.25 -7.35 11.7 -7.35 12.15 -7.3 12.55 -7.3 13.0 -7.3 13.15 -9.15 13.5 -12.95 L13.5 -12.95" fill="#1e1e1e" fill-rule="evenodd" stroke="none"/>
    <path d="M12.05 9.25 Q11.8 9.3 11.6 9.35 11.35 9.4 11.1 9.4 10.85 9.45 10.6 9.5 10.35 9.5 10.05 9.55 9.8 9.6 9.5 9.6 9.25 9.65 8.95 9.65 8.65 9.65 8.4 9.7 8.1 9.7 7.8 9.7 7.3 9.7 6.8 9.7 6.35 9.7 5.9 9.65 5.45 9.65 5.0 9.6 4.55 9.6 4.15 9.55 3.7 9.5 3.3 9.4 2.95 9.35 2.55 9.3 2.2 9.25 1.85 9.15 1.5 9.1 1.15 9.0 0.1 9.5 -1.95 10.45 -1.9 10.6 -1.8 10.75 -1.75 10.9 -1.65 11.05 -1.55 11.25 -1.4 11.4 -1.3 11.6 -1.15 11.8 -1.0 11.95 -0.85 12.15 -0.7 12.35 -0.5 12.5 -0.3 12.7 -0.1 12.85 0.15 13.0 0.4 13.15 0.6 13.25 0.8 13.4 1.0 13.5 1.2 13.55 1.4 13.65 1.55 13.7 1.75 13.75 1.95 13.8 2.1 13.85 2.3 13.9 2.45 13.95 2.65 13.95 2.8 14.0 2.95 14.0 3.05 14.0 3.25 14.05 3.85 14.1 4.45 14.15 5.0 14.2 5.6 14.25 6.15 14.3 6.75 14.35 7.3 14.4 7.85 14.4 8.35 14.45 8.85 14.5 9.35 14.5 9.85 14.5 10.3 14.55 10.75 14.55 11.15 14.6 11.55 14.6 11.7 13.1 12.05 9.25 L12.05 9.25" fill="#1e1e1e" fill-rule="evenodd" stroke="none"/>
    <path d="M-9.75 17.85 Q-9.15 18.25 -8.55 18.6 -8.0 18.95 -7.45 19.25 -6.9 19.55 -6.3 19.85 -5.8 20.1 -5.25 20.35 -4.75 20.6 -4.25 20.85 -3.75 21.05 -3.3 21.25 -2.85 21.4 -2.4 21.6 -2.0 21.75 -1.55 21.85 -0.85 22.1 -0.35 22.25 0.4 22.5 1.1 22.7 1.9 22.95 2.65 23.15 3.55 23.35 4.4 23.5 5.35 23.65 6.3 23.75 7.35 23.85 8.35 23.9 9.45 23.9 10.5 23.85 11.65 23.75 12.8 23.6 13.1 23.55 13.35 23.5 13.6 23.45 13.9 23.4 14.1 23.35 14.35 23.3 14.6 23.2 14.85 23.15 15.05 23.1 15.25 23.05 15.45 23.0 15.65 22.95 15.85 22.9 16.05 22.85 16.2 22.8 16.35 22.75 16.0 24.85 15.25 29.1 15.15 29.15 15.05 29.2 14.9 29.25 14.8 29.3 14.7 29.35 14.55 29.4 14.4 29.45 14.3 29.5 14.15 29.55 14.0 29.6 13.85 29.65 13.7 29.7 13.5 29.75 13.35 29.8 13.2 29.85 13.0 29.9 12.75 29.95 12.5 30.0 12.15 30.1 11.8 30.15 11.35 30.2 10.85 30.25 10.25 30.3 9.65 30.3 9.0 30.3 8.25 30.25 7.45 30.15 6.6 30.05 5.65 29.9 4.65 29.7 3.55 29.5 2.45 29.15 1.9 29.0 1.4 28.85 0.8 28.65 0.25 28.45 -0.4 28.25 -1.05 28.0 -1.7 27.75 -2.35 27.5 -3.1 27.2 -3.8 26.85 -4.55 26.5 -5.25 26.15 -6.05 25.75 -6.8 25.3 -7.6 24.85 -8.4 24.35 -8.85 22.2 -9.75 17.85 L-9.75 17.85" fill="#030303" fill-rule="evenodd" stroke="none"/>
  </g>
</svg>
