<?xml version="1.0" encoding="UTF-8" standalone="no"?>
<svg xmlns:xlink="http://www.w3.org/1999/xlink" height="100.0px" width="100.0px" xmlns="http://www.w3.org/2000/svg">
  <g transform="matrix(1.0, 0.0, 0.0, 1.0, 50.0, 50.0)">
    <path d="M25.65 -8.05 Q25.65 -8.1 25.7 -8.1 25.7 -8.15 25.75 -8.2 25.75 -8.25 25.75 -8.3 25.8 -8.35 25.8 -8.4 25.85 -8.45 25.85 -8.5 25.9 -8.55 25.9 -8.6 25.9 -8.65 25.95 -8.75 25.95 -8.8 25.95 -8.85 26.0 -9.0 26.0 -9.15 26.0 -9.3 26.0 -9.45 26.0 -9.6 25.95 -9.7 25.95 -9.85 25.9 -9.95 25.9 -10.05 25.85 -10.15 25.8 -10.25 25.8 -10.35 25.75 -10.4 25.7 -10.45 25.7 -10.5 25.65 -10.55 24.6 -10.35 22.85 -10.0 20.65 -9.6 20.0 -9.45 17.45 -9.35 15.9 -9.3 12.4 -9.25 11.0 -9.45 10.75 -9.5 10.5 -9.55 10.25 -9.55 10.0 -9.6 9.8 -9.65 9.55 -9.75 9.45 -9.75 9.1 -9.85 8.75 -9.95 8.55 -10.0 8.2 -10.1 7.85 -10.15 7.45 -10.25 7.05 -10.35 6.55 -10.45 6.0 -10.55 5.7 -10.6 5.35 -10.65 5.1 -10.75 4.8 -10.8 4.5 -10.85 4.2 -10.9 3.95 -10.95 3.7 -11.0 3.45 -11.05 3.2 -11.1 3.0 -11.15 2.75 -11.2 2.55 -11.25 2.35 -11.3 2.15 -11.35 2.0 -11.4 1.9 -11.45 1.85 -11.5 1.75 -11.6 1.7 -11.65 1.6 -11.7 1.5 -11.75 1.4 -11.8 1.3 -11.9 1.2 -11.95 1.1 -12.0 0.95 -12.05 0.85 -12.1 0.75 -12.15 0.6 -12.2 0.45 -12.25 0.35 -12.3 0.35 -12.3 0.15 -12.35 0.05 -12.35 -0.05 -12.4 -0.15 -12.4 -0.25 -12.4 -0.35 -12.45 -0.45 -12.45 -0.55 -12.45 -0.65 -12.45 -0.75 -12.45 -0.85 -12.45 -0.95 -12.4 -1.0 -12.35 -1.05 -12.35 -1.1 -12.25 -1.15 -12.2 -1.15 -12.2 -1.2 -12.15 -1.2 -12.1 -1.2 -12.1 -1.2 -12.05 -1.2 -11.95 -1.2 -11.9 -1.2 -11.85 -1.2 -11.75 -1.2 -11.65 -1.2 -11.55 -1.15 -11.4 -1.15 -11.25 -1.1 -11.1 -1.05 -10.95 -1.0 -10.65 -0.95 -10.4 -0.9 -10.2 -0.85 -10.0 -0.8 -9.85 -0.75 -9.7 -0.75 -9.65 -0.7 -9.5 -0.65 -9.4 -0.65 -9.35 -0.6 -9.25 -0.6 -9.2 -0.6 -9.15 -0.6 -9.1 -0.6 -9.05 -0.6 -8.95 -0.6 -8.8 -0.65 -8.65 -0.7 -8.55 -0.75 -8.45 -0.8 -8.35 -0.9 -8.25 -0.9 -8.2 -1.0 -8.05 -1.1 -7.9 -1.15 -7.85 -1.25 -7.7 -1.3 -7.6 -1.35 -7.5 -1.4 -7.35 -1.45 -7.15 -1.5 -7.0 -1.5 -7.0 -1.5 -6.9 -1.5 -6.85 -1.5 -6.8 -1.5 -6.75 -1.5 -6.65 -1.55 -6.55 -1.5 -6.5 -1.5 -6.4 -1.5 -6.3 -1.5 -6.15 -1.5 -6.05 -1.45 -5.95 -1.45 -5.8 -1.4 -5.7 -1.4 -5.55 -1.35 -5.35 -1.25 -5.2 -1.2 -5.05 -1.1 -4.9 -1.0 -4.75 -0.9 -4.65 -0.8 -4.5 -0.7 -4.4 -0.6 -4.3 -0.5 -4.2 -0.4 -4.15 -0.3 -4.05 -0.25 -4.0 -0.15 -3.95 -0.1 -3.9 -0.05 -3.85 -0.1 -3.8 -0.1 -3.75 -0.15 -3.7 -0.2 -3.65 -0.25 -3.6 -0.25 -3.55 -0.3 -3.5 -0.35 -3.45 -0.4 -3.35 -0.4 -3.3 -0.45 -3.25 -0.45 -3.15 -0.5 -3.1 -0.5 -3.0 -0.55 -2.9 -0.55 -2.85 -0.55 -2.75 -0.55 -2.65 -0.55 -2.5 -0.55 -2.4 -0.55 -2.3 -0.5 -2.2 -0.45 -2.15 -0.45 -2.0 -0.4 -1.95 -0.35 -1.8 -0.3 -1.6 -0.25 -1.6 -0.2 -1.5 -0.2 -1.35 -0.15 -1.25 -0.1 -1.1 -0.1 -1.0 -0.05 -0.95 -0.05 -0.85 0.0 -0.75 0.0 -0.65 0.0 -0.6 0.05 -0.45 0.05 -0.35 0.05 -0.25 0.05 -0.15 0.05 0.0 0.05 0.1 0.1 0.25 0.05 0.4 0.05 0.55 0.05 0.7 0.1 1.15 0.1 1.55 0.15 2.0 0.2 2.4 0.2 2.8 0.25 3.2 0.3 3.55 0.3 3.9 0.35 4.25 0.35 4.6 0.4 4.9 0.45 5.2 0.45 5.5 0.5 5.8 0.5 6.05 0.55 6.3 0.7 7.85 0.85 9.3 1.0 10.45 1.15 11.55 1.25 12.35 1.35 13.25 1.7 15.5 1.55 14.45 1.6 15.0 1.65 15.35 1.7 15.7 1.7 16.0 1.7 16.3 1.65 16.55 1.6 16.85 1.55 17.2 1.5 17.4 1.45 17.5 1.4 17.7 1.35 17.9 1.3 18.15 1.25 18.45 1.2 18.75 1.15 19.0 1.15 19.35 1.15 19.7 1.1 20.05 1.15 20.4 1.15 20.8 1.25 21.2 1.3 21.6 1.45 22.0 1.45 22.05 1.45 22.1 1.5 22.15 1.5 22.2 1.5 22.25 1.55 22.3 1.55 22.3 1.55 22.35 1.55 22.4 1.6 22.45 1.6 22.55 1.65 22.6 1.65 22.65 1.7 22.7 1.7 22.75 1.75 22.8 1.9 23.1 2.1 23.35 2.25 23.65 2.5 23.85 2.7 24.1 3.0 24.3 3.25 24.5 3.55 24.65 3.85 24.85 4.25 25.0 4.6 25.2 5.05 25.35 5.4 25.5 5.95 25.75 3.8 24.9 7.0 26.15 7.55 26.35 8.1 26.55 8.65 26.75 9.2 26.9 9.7 27.05 10.2 27.2 10.7 27.3 11.2 27.45 11.65 27.55 12.1 27.6 12.55 27.7 12.95 27.75 13.35 27.8 13.75 27.85 14.1 27.9 14.45 27.95 14.7 27.2 15.2 25.7 15.4 25.75 15.55 25.8 15.75 25.9 16.0 25.95 16.3 26.05 16.6 26.1 17.0 26.2 17.35 26.25 17.75 26.3 18.15 26.3 18.6 26.3 19.05 26.25 19.55 26.2 20.0 26.1 20.55 25.95 21.05 25.75 21.5 25.6 21.9 25.35 22.3 25.15 22.7 24.9 23.0 24.65 23.35 24.4 23.65 24.15 23.9 23.9 24.15 23.65 24.4 23.4 24.6 23.15 24.75 22.95 24.9 22.75 25.05 22.55 25.15 22.4 25.25 22.2 25.1 22.1 24.95 22.0 24.75 21.85 24.55 21.7 24.3 21.5 24.05 21.3 23.8 21.05 23.55 20.75 23.3 20.5 23.05 20.15 22.75 19.8 22.5 19.4 22.25 19.0 22.0 18.55 21.75 18.1 21.55 17.6 21.35 17.15 21.2 16.65 21.1 16.2 21.0 15.7 20.9 15.3 20.85 14.85 20.8 14.45 20.8 14.05 20.8 13.65 20.8 13.3 20.8 13.0 20.8 12.7 20.85 12.4 20.85 12.15 20.9 11.95 20.9 11.75 21.75 8.25 23.25 1.85 L25.8 -4.35 Q25.8 -4.4 25.85 -4.45 25.85 -4.55 25.9 -4.6 25.9 -4.65 25.9 -4.75 25.95 -4.8 25.95 -4.9 25.95 -4.95 26.0 -5.05 26.0 -5.15 26.0 -5.2 26.0 -5.3 26.05 -5.4 26.05 -5.5 26.05 -5.6 26.05 -5.8 26.05 -6.0 26.05 -6.2 26.05 -6.4 26.05 -6.55 26.0 -6.75 26.0 -6.9 25.95 -7.05 25.9 -7.2 25.85 -7.35 25.85 -7.5 25.8 -7.65 25.75 -7.75 25.7 -7.85 25.7 -7.95 25.65 -8.05 L25.65 -8.05 M18.5 5.0 Q18.5 4.95 18.55 4.9 18.55 4.9 18.55 4.85 18.6 4.8 18.6 4.75 18.65 4.75 18.65 4.7 18.7 4.7 18.7 4.65 18.75 4.65 18.75 4.6 18.75 4.6 18.8 4.6 18.8 4.55 18.85 4.5 18.9 4.5 18.95 4.45 19.0 4.45 19.0 4.4 19.05 4.4 19.1 4.4 19.15 4.35 19.2 4.35 19.2 4.35 19.25 4.35 19.3 4.35 19.35 4.35 19.35 4.35 19.4 4.35 19.45 4.4 19.45 4.4 19.5 4.4 19.55 4.4 19.6 4.4 19.65 4.45 19.65 4.45 19.7 4.45 19.75 4.5 19.8 4.5 19.8 4.55 19.85 4.6 19.9 4.65 19.95 4.7 20.0 4.75 20.0 4.8 20.05 4.85 20.1 4.9 20.15 4.95 20.15 5.0 20.2 5.05 20.2 5.1 20.25 5.2 20.25 5.25 20.3 5.3 20.3 5.4 20.3 5.45 20.3 5.5 20.3 5.55 20.3 5.6 20.3 5.65 20.3 5.65 20.3 5.7 20.25 5.75 20.25 5.8 20.25 5.85 20.25 5.85 20.2 5.9 20.2 5.95 20.2 6.0 20.15 6.0 20.15 6.05 20.15 6.1 20.1 6.1 20.1 6.15 20.05 6.2 20.05 6.25 20.0 6.3 20.0 6.35 19.95 6.4 19.9 6.45 19.9 6.5 19.85 6.5 19.8 6.55 19.75 6.6 19.7 6.6 19.7 6.65 19.65 6.65 19.6 6.65 19.55 6.7 19.5 6.7 19.45 6.7 19.35 6.75 19.3 6.75 19.25 6.75 19.2 6.7 19.1 6.7 19.05 6.7 19.0 6.65 18.95 6.65 18.9 6.6 18.85 6.6 18.8 6.55 18.75 6.5 18.7 6.45 18.65 6.45 18.6 6.4 18.6 6.35 18.55 6.3 18.55 6.25 18.5 6.2 18.5 6.1 18.45 6.05 18.45 6.0 18.45 5.95 18.4 5.85 18.4 5.8 18.4 5.75 18.4 5.7 18.4 5.6 18.45 5.55 18.45 5.5 18.45 5.45 18.45 5.45 18.45 5.4 18.45 5.35 18.45 5.35 18.45 5.3 18.45 5.3 18.45 5.25 18.45 5.2 18.45 5.2 18.45 5.15 18.5 5.1 18.5 5.1 18.5 5.05 18.5 5.05 18.5 5.0 L18.5 5.0 M11.9 6.3 Q11.9 6.25 11.95 6.2 12.0 6.15 12.05 6.05 12.1 6.0 12.15 5.95 12.2 5.9 12.25 5.9 12.3 5.85 12.4 5.85 12.45 5.8 12.55 5.8 12.6 5.8 12.7 5.8 12.75 5.8 12.8 5.85 12.9 5.85 12.95 5.85 13.0 5.85 13.05 5.85 13.1 5.85 13.1 5.85 13.15 5.85 13.2 5.9 13.25 5.9 13.25 5.9 13.3 5.9 13.35 5.95 13.4 5.95 13.4 6.0 13.45 6.0 13.5 6.05 13.5 6.05 13.55 6.1 13.6 6.15 13.65 6.2 13.65 6.25 13.7 6.3 13.7 6.35 13.75 6.4 13.75 6.5 13.75 6.55 13.75 6.6 13.8 6.65 13.8 6.7 13.8 6.8 13.8 6.85 13.8 6.9 13.75 7.0 13.75 7.05 13.75 7.1 13.75 7.15 13.7 7.2 13.7 7.25 13.65 7.35 13.65 7.4 13.6 7.45 13.6 7.5 13.55 7.55 13.5 7.55 13.5 7.6 13.45 7.65 13.4 7.7 13.35 7.75 13.3 7.8 13.3 7.8 13.25 7.85 13.2 7.85 13.15 7.9 13.05 7.9 13.0 7.95 12.95 7.95 12.9 8.0 12.8 8.0 12.75 8.0 12.7 8.0 12.65 8.0 12.6 8.0 12.5 8.0 12.45 7.95 12.4 7.95 12.35 7.95 12.3 7.95 12.25 7.9 12.25 7.9 12.2 7.85 12.15 7.85 12.15 7.8 12.1 7.8 12.1 7.75 12.1 7.75 12.1 7.75 12.05 7.7 12.0 7.65 11.95 7.65 11.9 7.6 11.85 7.55 11.8 7.45 11.8 7.4 11.75 7.35 11.75 7.3 11.7 7.2 11.7 7.15 11.7 7.1 11.65 7.0 11.65 6.95 11.65 6.9 11.65 6.8 11.65 6.75 11.65 6.7 11.65 6.7 11.7 6.65 11.7 6.6 11.7 6.6 11.7 6.55 11.75 6.5 11.75 6.5 11.75 6.45 11.8 6.4 11.8 6.4 11.85 6.35 11.85 6.35 11.85 6.3 11.9 6.3 L11.9 6.3 M11.8 11.2 Q11.75 11.1 11.75 11.05 11.75 11.0 11.7 10.9 11.7 10.85 11.7 10.75 11.7 10.7 11.7 10.6 11.7 10.55 11.75 10.5 11.75 10.4 11.8 10.35 11.8 10.3 11.85 10.2 11.9 10.15 11.9 10.1 11.95 10.05 12.0 10.0 12.05 10.0 12.05 9.95 12.1 9.95 12.1 9.95 12.15 9.9 12.15 9.9 12.2 9.9 12.25 9.85 12.25 9.85 12.3 9.85 12.3 9.85 12.35 9.85 12.35 9.85 12.4 9.8 12.45 9.8 12.45 9.8 12.5 9.8 12.55 9.75 12.55 9.75 12.6 9.75 12.65 9.7 12.7 9.7 12.75 9.7 12.8 9.7 12.8 9.7 12.85 9.7 12.9 9.65 12.95 9.7 13.0 9.7 13.05 9.7 13.1 9.7 13.15 9.7 13.2 9.7 13.25 9.75 13.35 9.8 13.4 9.8 13.45 9.85 13.5 9.9 13.55 9.95 13.6 10.0 13.65 10.05 13.65 10.1 13.7 10.2 13.75 10.25 13.8 10.3 13.8 10.4 13.8 10.45 13.85 10.5 13.85 10.6 13.85 10.7 13.85 10.8 13.85 10.9 13.85 11.0 13.8 11.1 13.8 11.2 13.75 11.3 13.7 11.35 13.65 11.45 13.6 11.55 13.55 11.6 13.5 11.7 13.4 11.75 13.35 11.8 13.25 11.85 13.2 11.9 13.1 11.95 13.0 11.95 12.95 11.95 12.85 12.0 12.8 12.0 12.7 12.0 12.6 12.0 12.55 11.95 12.45 11.95 12.35 11.9 12.3 11.85 12.2 11.8 12.15 11.75 12.1 11.7 12.0 11.65 12.0 11.6 11.95 11.6 11.95 11.55 11.95 11.55 11.9 11.5 11.9 11.5 11.9 11.45 11.9 11.4 11.85 11.4 11.85 11.35 11.85 11.35 11.85 11.3 11.8 11.25 11.8 11.25 11.8 11.2 11.8 11.2 L11.8 11.2 M12.5 15.65 Q12.45 15.6 12.4 15.5 12.35 15.45 12.3 15.35 12.3 15.3 12.25 15.2 12.2 15.1 12.2 15.05 12.2 14.95 12.2 14.85 12.2 14.8 12.2 14.7 12.2 14.6 12.2 14.5 12.2 14.45 12.25 14.35 12.25 14.3 12.3 14.25 12.3 14.2 12.35 14.15 12.35 14.1 12.4 14.05 12.45 14.0 12.5 14.0 12.55 13.95 12.6 13.9 12.65 13.9 12.7 13.9 12.75 13.9 12.8 13.85 12.85 13.85 12.9 13.9 12.95 13.85 13.0 13.85 13.05 13.8 13.1 13.8 13.15 13.75 13.2 13.75 13.25 13.75 13.3 13.7 13.35 13.7 13.4 13.7 13.45 13.7 13.5 13.7 13.55 13.7 13.6 13.7 13.7 13.7 13.75 13.75 13.8 13.75 13.9 13.8 13.95 13.8 14.0 13.85 14.05 13.9 14.1 13.9 14.15 13.95 14.2 14.0 14.25 14.05 14.3 14.1 14.35 14.2 14.35 14.25 14.4 14.3 14.45 14.4 14.45 14.45 14.5 14.5 14.5 14.55 14.55 14.6 14.55 14.65 14.55 14.7 14.55 14.75 14.5 14.8 14.5 14.85 14.5 14.9 14.45 14.95 14.45 15.0 14.4 15.05 14.4 15.1 14.35 15.15 14.3 15.2 14.3 15.2 14.25 15.25 14.2 15.35 14.2 15.4 14.15 15.5 14.1 15.55 14.05 15.6 14.0 15.65 13.95 15.75 13.85 15.8 13.8 15.85 13.7 15.85 13.65 15.9 13.55 15.9 13.45 15.95 13.4 15.95 13.3 15.95 13.25 15.95 13.15 15.95 13.05 15.95 13.0 15.95 12.9 15.9 12.85 15.9 12.75 15.85 12.7 15.8 12.6 15.75 12.55 15.7 12.5 15.65 L12.5 15.65 M14.45 20.1 Q14.35 20.1 14.25 20.05 14.15 20.05 14.1 20.0 14.0 19.95 13.9 19.9 13.85 19.85 13.75 19.8 13.7 19.7 13.65 19.65 13.55 19.55 13.5 19.45 13.45 19.35 13.45 19.25 13.4 19.15 13.35 19.05 13.35 18.95 13.35 18.8 13.35 18.7 13.35 18.6 13.35 18.45 13.4 18.35 13.45 18.25 13.5 18.2 13.55 18.1 13.65 18.0 13.7 17.95 13.8 17.9 13.9 17.85 14.0 17.8 14.1 17.8 14.25 17.8 14.25 17.8 14.35 17.8 14.4 17.8 14.45 17.75 14.5 17.75 14.5 17.75 14.6 17.75 14.7 17.75 14.85 17.8 14.95 17.85 15.0 17.85 15.1 17.95 15.2 18.0 15.25 18.05 15.35 18.15 15.4 18.25 15.45 18.35 15.5 18.45 15.5 18.55 15.55 18.65 15.55 18.8 15.55 18.9 15.55 19.0 15.5 19.15 15.5 19.25 15.45 19.35 15.4 19.45 15.35 19.55 15.3 19.65 15.2 19.75 15.15 19.8 15.05 19.9 14.95 19.95 14.85 20.0 14.8 20.05 14.65 20.05 14.55 20.1 14.45 20.1 L14.45 20.1 M17.55 23.8 Q17.5 23.9 17.4 23.95 17.3 24.05 17.2 24.1 17.1 24.15 17.0 24.2 16.9 24.2 16.8 24.25 16.65 24.25 16.55 24.25 16.45 24.25 16.35 24.2 16.25 24.2 16.15 24.15 16.05 24.1 15.95 24.0 15.9 23.95 15.85 23.95 15.8 23.9 15.75 23.85 15.75 23.8 15.7 23.8 15.65 23.75 15.6 23.7 15.6 23.65 15.55 23.6 15.55 23.55 15.5 23.5 15.5 23.45 15.45 23.4 15.45 23.3 15.45 23.25 15.45 23.2 15.45 23.15 15.4 23.1 15.4 23.05 15.4 22.95 15.45 22.9 15.45 22.85 15.45 22.8 15.45 22.75 15.45 22.7 15.5 22.65 15.5 22.6 15.5 22.55 15.55 22.5 15.55 22.45 15.6 22.4 15.6 22.35 15.6 22.3 15.6 22.3 15.65 22.25 15.65 22.2 15.65 22.15 15.7 22.15 15.7 22.1 15.7 22.05 15.75 22.05 15.75 22.0 15.8 22.0 15.8 21.95 15.85 21.9 15.85 21.9 15.9 21.85 16.0 21.8 16.1 21.75 16.2 21.7 16.3 21.7 16.4 21.65 16.5 21.65 16.6 21.65 16.7 21.7 16.8 21.7 16.85 21.75 16.95 21.8 17.05 21.85 17.15 21.9 17.25 21.95 17.3 22.0 17.4 22.1 17.5 22.2 17.55 22.25 17.6 22.35 17.65 22.45 17.7 22.55 17.75 22.7 17.75 22.8 17.8 22.9 17.8 23.0 17.8 23.15 17.75 23.25 17.75 23.35 17.7 23.45 17.65 23.55 17.6 23.7 17.55 23.8 L17.55 23.8 M17.95 9.75 Q17.95 9.75 17.95 9.7 17.95 9.7 17.95 9.7 17.95 9.65 17.95 9.65 17.95 9.6 17.95 9.55 17.95 9.5 17.95 9.5 17.95 9.45 17.95 9.4 17.95 9.35 17.95 9.3 17.95 9.25 17.95 9.2 17.95 9.15 17.95 9.1 18.0 9.05 18.0 9.05 18.05 9.0 18.05 8.95 18.05 8.95 18.1 8.9 18.15 8.9 18.15 8.85 18.2 8.85 18.2 8.8 18.25 8.8 18.3 8.75 18.3 8.75 18.35 8.75 18.4 8.7 18.4 8.7 18.45 8.65 18.5 8.65 18.5 8.6 18.65 8.55 18.8 8.5 18.95 8.5 19.1 8.5 19.2 8.5 19.3 8.5 19.45 8.55 19.55 8.55 19.6 8.6 19.7 8.65 19.75 8.7 19.8 8.7 19.85 8.75 19.9 8.8 19.95 8.8 19.95 8.85 19.95 8.85 20.0 8.9 20.05 9.0 20.1 9.1 20.15 9.15 20.2 9.25 20.2 9.35 20.25 9.45 20.25 9.55 20.25 9.6 20.25 9.7 20.25 9.8 20.2 9.85 20.2 9.95 20.15 10.0 20.1 10.05 20.05 10.1 20.05 10.15 20.0 10.15 20.0 10.2 19.95 10.2 19.9 10.2 19.9 10.2 19.85 10.25 19.8 10.25 19.75 10.3 19.75 10.3 19.7 10.3 19.65 10.35 19.55 10.35 19.5 10.4 19.45 10.45 19.35 10.5 19.3 10.55 19.25 10.55 19.25 10.55 19.2 10.6 19.35 10.5 19.15 10.65 19.15 10.65 19.1 10.65 19.1 10.65 19.05 10.7 19.05 10.7 19.0 10.7 19.0 10.7 18.95 10.7 18.9 10.7 18.85 10.7 18.8 10.7 18.75 10.7 18.7 10.7 18.65 10.7 18.65 10.7 18.6 10.65 18.55 10.65 18.5 10.6 18.45 10.6 18.4 10.55 18.35 10.55 18.3 10.5 18.25 10.45 18.2 10.45 18.15 10.4 18.15 10.35 18.1 10.3 18.1 10.3 18.05 10.25 18.05 10.2 18.05 10.15 18.0 10.1 18.0 10.05 18.0 10.0 18.0 9.95 18.0 9.95 17.95 9.9 17.95 9.85 17.95 9.8 17.95 9.75 L17.95 9.75 M18.0 13.45 Q18.0 13.4 18.0 13.35 18.0 13.35 18.05 13.3 18.05 13.25 18.05 13.25 18.1 13.2 18.1 13.2 18.1 13.15 18.15 13.15 18.15 13.1 18.15 13.05 18.2 13.05 18.2 13.0 18.25 12.95 18.25 12.95 18.3 12.9 18.3 12.9 18.35 12.9 18.4 12.85 18.4 12.85 18.45 12.85 18.45 12.8 18.5 12.8 18.55 12.8 18.55 12.75 18.6 12.75 18.65 12.75 18.7 12.7 18.7 12.7 18.75 12.7 18.8 12.65 18.9 12.65 18.95 12.65 19.05 12.65 19.15 12.65 19.25 12.65 19.3 12.7 19.4 12.75 19.45 12.8 19.55 12.85 19.6 12.9 19.65 13.0 19.7 13.05 19.75 13.15 19.8 13.25 19.8 13.35 19.85 13.45 19.85 13.5 19.85 13.5 19.85 13.55 19.85 13.6 19.85 13.6 19.85 13.65 19.85 13.7 19.85 13.7 19.85 13.75 19.85 13.8 19.85 13.8 19.85 13.85 19.85 13.85 19.85 13.9 19.8 13.95 19.8 13.95 19.8 14.0 19.8 14.05 19.8 14.1 19.8 14.1 19.8 14.15 19.8 14.2 19.8 14.25 19.8 14.3 19.8 14.3 19.75 14.35 19.75 14.4 19.7 14.45 19.7 14.5 19.65 14.55 19.65 14.6 19.6 14.65 19.6 14.65 19.55 14.7 19.5 14.75 19.45 14.75 19.45 14.8 19.4 14.8 19.35 14.8 19.3 14.85 19.25 14.85 19.2 14.85 19.15 14.85 19.05 14.85 19.0 14.85 18.95 14.85 18.9 14.85 18.85 14.8 18.75 14.8 18.7 14.8 18.65 14.75 18.6 14.75 18.55 14.7 18.5 14.65 18.45 14.65 18.4 14.6 18.35 14.55 18.3 14.5 18.25 14.45 18.2 14.4 18.15 14.35 18.1 14.3 18.1 14.25 18.05 14.15 18.0 14.1 18.0 14.0 18.0 13.95 18.0 13.9 17.95 13.8 17.95 13.75 17.95 13.65 17.95 13.6 18.0 13.5 18.0 13.45 L18.0 13.45 M20.15 18.35 Q20.1 18.35 20.1 18.4 20.05 18.4 20.0 18.4 20.0 18.4 19.95 18.4 19.9 18.45 19.85 18.45 19.8 18.45 19.8 18.45 19.55 18.5 19.4 18.5 19.3 18.5 19.2 18.45 19.1 18.45 19.0 18.4 18.95 18.35 18.85 18.3 18.8 18.2 18.75 18.15 18.7 18.05 18.65 17.95 18.6 17.9 18.6 17.8 18.6 17.7 18.6 17.55 18.6 17.45 18.6 17.35 18.6 17.3 18.65 17.25 18.65 17.15 18.65 17.1 18.7 17.05 18.7 17.0 18.75 16.95 18.75 16.9 18.8 16.8 18.85 16.75 18.9 16.7 18.9 16.65 18.95 16.6 19.0 16.55 19.05 16.5 19.05 16.5 19.1 16.45 19.15 16.45 19.15 16.4 19.2 16.4 19.25 16.35 19.3 16.35 19.3 16.35 19.35 16.3 19.4 16.3 19.45 16.3 19.5 16.3 19.5 16.3 19.55 16.3 19.6 16.3 19.65 16.3 19.65 16.35 19.7 16.35 19.75 16.35 19.8 16.35 19.85 16.35 19.95 16.35 20.0 16.4 20.05 16.4 20.05 16.4 20.1 16.45 20.15 16.45 20.2 16.5 20.25 16.55 20.3 16.55 20.35 16.6 20.4 16.65 20.4 16.7 20.45 16.75 20.45 16.8 20.5 16.85 20.5 16.9 20.55 16.95 20.55 17.05 20.6 17.1 20.6 17.15 20.6 17.2 20.6 17.25 20.6 17.35 20.6 17.4 20.6 17.45 20.6 17.5 20.6 17.6 20.6 17.65 20.6 17.7 20.55 17.75 20.55 17.8 20.55 17.85 20.5 17.9 20.5 17.95 20.45 18.0 20.45 18.05 20.4 18.1 20.4 18.1 20.35 18.15 20.3 18.2 20.3 18.25 20.25 18.25 20.2 18.3 20.15 18.35 L20.15 18.35 M21.2 20.1 Q21.25 20.1 21.3 20.1 21.35 20.1 21.35 20.1 21.35 20.1 21.4 20.1 21.4 20.05 21.45 20.05 21.5 20.0 21.55 20.0 21.6 20.0 21.65 19.95 21.75 19.95 21.8 19.95 21.85 19.95 21.95 19.95 22.0 19.95 22.1 19.95 22.15 20.0 22.25 20.0 22.35 20.05 22.4 20.1 22.45 20.15 22.5 20.2 22.55 20.25 22.6 20.3 22.65 20.35 22.65 20.45 22.7 20.5 22.7 20.55 22.75 20.6 22.75 20.65 22.75 20.7 22.75 20.7 22.75 20.75 22.8 20.75 22.8 20.85 22.8 21.0 22.8 21.15 22.75 21.3 22.75 21.4 22.7 21.55 22.65 21.65 22.55 21.8 22.5 21.9 22.4 22.0 22.3 22.1 22.2 22.15 22.1 22.25 22.0 22.3 21.85 22.3 21.75 22.35 21.65 22.35 21.55 22.35 21.5 22.3 21.4 22.25 21.35 22.25 21.25 22.2 21.2 22.15 21.1 22.1 21.05 22.05 21.0 21.95 20.9 21.9 20.85 21.85 20.8 21.75 20.8 21.7 20.75 21.65 20.7 21.55 20.65 21.5 20.65 21.45 20.65 21.35 20.6 21.3 20.6 21.2 20.6 21.15 20.6 21.05 20.6 21.0 20.6 20.9 20.6 20.85 20.6 20.75 20.6 20.7 20.65 20.65 20.65 20.55 20.7 20.5 20.75 20.45 20.8 20.4 20.8 20.4 20.85 20.35 20.9 20.3 20.9 20.3 20.95 20.25 21.0 20.25 21.05 20.2 21.05 20.2 21.1 20.15 21.15 20.15 21.15 20.15 21.2 20.15 21.2 20.1 21.2 20.1 21.2 20.1 L21.2 20.1" fill="#a755c8" fill-rule="evenodd" stroke="none"/>
  </g>
</svg>
