<?xml version="1.0" encoding="UTF-8" standalone="no"?>
<svg xmlns:xlink="http://www.w3.org/1999/xlink" height="100.0px" width="100.0px" xmlns="http://www.w3.org/2000/svg">
  <g transform="matrix(1.0, 0.0, 0.0, 1.0, 50.0, 50.0)">
    <path d="M18.05 4.6 Q17.8 4.35 17.65 4.1 17.45 3.85 17.35 3.55 17.2 3.3 17.15 3.0 17.1 2.75 17.1 2.45 17.05 2.15 17.1 1.9 17.15 1.6 17.25 1.3 17.35 1.0 17.55 0.7 17.7 0.4 17.9 0.1 18.05 -0.1 18.25 -0.35 18.4 -0.55 18.6 -0.7 18.8 -0.9 19.0 -1.05 19.2 -1.2 19.45 -1.35 19.65 -1.45 19.9 -1.6 20.15 -1.7 20.4 -1.8 20.65 -1.85 20.9 -1.95 21.15 -2.0 21.45 -2.05 21.5 -2.05 21.55 -2.05 21.6 -2.05 21.65 -2.05 21.7 -2.05 21.7 -2.05 21.75 -2.1 21.8 -2.05 21.85 -2.05 21.9 -2.05 21.95 -2.05 22.0 -2.0 22.05 -2.0 22.1 -1.95 22.15 -1.9 22.15 -1.85 22.0 -1.7 21.9 -1.6 21.75 -1.45 21.65 -1.3 21.55 -1.15 21.45 -1.0 21.35 -0.85 21.25 -0.7 21.15 -0.55 21.1 -0.35 21.0 -0.2 20.95 -0.05 20.9 0.15 20.85 0.35 20.85 0.55 20.85 0.75 20.85 0.85 20.85 0.9 20.85 1.0 20.9 1.1 20.9 1.15 20.95 1.25 20.95 1.35 21.0 1.4 21.05 1.5 21.1 1.6 21.15 1.65 21.2 1.75 21.25 1.8 21.3 1.9 21.35 2.0 21.4 2.1 23.9 -0.4 24.15 -0.65 24.25 -0.75 24.35 -0.8 24.4 -0.85 24.5 -0.9 24.6 -0.95 24.7 -0.95 24.75 -1.0 24.85 -0.95 24.95 -0.95 25.0 -0.9 25.1 -0.9 25.15 -0.8 25.2 -0.75 25.25 -0.65 25.3 -0.55 25.35 -0.45 25.4 -0.3 25.4 -0.2 25.45 -0.05 25.5 0.1 25.5 0.25 25.55 0.35 25.6 0.5 25.6 0.65 25.65 0.8 25.65 0.9 25.7 1.05 25.7 1.2 25.75 1.35 25.75 1.5 25.75 1.6 25.75 1.75 25.75 1.95 25.8 2.15 25.8 2.35 25.8 2.6 25.85 2.8 25.85 3.0 25.85 3.2 25.85 3.4 25.85 3.6 25.85 3.8 25.85 4.0 25.8 4.25 25.8 4.45 25.75 4.65 25.75 4.85 25.7 5.05 25.7 5.1 25.65 5.2 25.65 5.25 25.6 5.3 25.6 5.4 25.55 5.45 25.55 5.5 25.5 5.55 25.45 5.6 25.45 5.65 25.4 5.7 25.35 5.75 25.3 5.8 25.25 5.85 25.2 5.9 25.15 5.95 23.65 7.1 21.7 8.6 21.6 8.65 21.4 8.85 21.6 8.9 22.1 9.05 22.55 9.2 22.8 9.25 22.95 9.3 23.1 9.35 23.2 9.4 23.3 9.45 23.4 9.45 23.45 9.55 23.55 9.6 23.6 9.65 23.65 9.7 23.65 9.8 23.7 9.85 23.75 10.0 23.75 10.1 23.75 10.2 23.75 10.35 23.8 10.5 23.8 10.75 23.8 10.95 23.8 11.2 23.8 11.45 23.8 11.7 23.75 11.9 23.75 12.15 23.7 12.35 23.65 12.6 23.65 12.85 23.6 13.05 23.55 13.3 23.45 13.5 23.4 13.75 23.35 13.95 23.25 14.2 23.2 14.25 23.2 14.35 23.15 14.4 23.15 14.45 23.1 14.55 23.1 14.6 23.05 14.65 23.0 14.75 23.0 14.8 22.95 14.85 22.9 14.95 22.9 15.0 22.85 15.05 22.8 15.1 22.8 15.2 22.75 15.25 22.65 15.35 22.6 15.45 22.5 15.55 22.4 15.65 22.3 15.7 22.25 15.8 22.15 15.85 22.0 15.9 21.9 15.9 21.8 15.95 21.7 15.95 21.55 15.95 21.45 16.0 21.3 15.95 21.2 15.95 21.05 15.95 20.65 15.9 20.2 15.8 19.8 15.7 19.35 15.55 18.95 15.45 18.55 15.3 18.15 15.15 17.75 14.95 17.4 14.8 17.0 14.6 16.6 14.45 16.2 14.25 15.85 14.05 15.45 13.85 15.1 13.6 14.7 13.4 14.65 13.4 14.65 13.35 14.6 13.35 14.55 13.35 14.5 13.3 14.5 13.3 14.45 13.3 14.4 13.3 14.4 13.3 14.35 13.3 14.3 13.3 14.3 13.3 14.25 13.35 14.2 13.35 14.2 13.35 14.15 13.4 11.8 14.6 11.3 14.85 11.2 14.9 11.15 14.95 11.1 14.95 11.05 15.0 11.0 15.05 11.0 15.15 10.95 15.2 10.95 15.25 10.9 15.3 10.9 15.35 10.9 15.4 10.95 15.5 10.95 15.55 11.0 15.6 11.0 15.7 11.05 15.75 11.1 15.8 11.15 15.85 11.15 15.9 11.2 15.95 11.25 16.0 11.25 16.05 11.3 16.1 11.35 16.15 11.35 16.2 11.4 16.25 11.45 16.3 11.45 16.35 11.5 16.4 11.5 16.45 11.55 16.5 11.55 16.55 11.6 16.7 11.65 16.85 11.7 17.0 11.75 17.1 11.75 17.25 11.75 17.4 11.75 17.55 11.75 17.65 11.75 17.8 11.7 17.9 11.65 18.05 11.6 18.2 11.5 18.3 11.45 18.4 11.35 18.55 11.25 18.65 11.05 18.85 10.8 19.05 10.55 19.25 10.3 19.45 10.05 19.6 9.8 19.75 9.55 19.9 9.3 20.05 9.0 20.15 8.75 20.3 8.45 20.4 8.2 20.45 7.9 20.55 7.6 20.6 7.3 20.65 7.0 20.7 6.75 20.7 6.55 20.7 6.3 20.65 6.05 20.55 5.85 20.5 5.65 20.35 5.45 20.25 5.25 20.05 5.1 19.9 4.95 19.7 4.8 19.5 4.7 19.3 4.6 19.05 4.5 18.8 4.45 18.55 4.45 18.3 4.45 18.25 4.45 18.0 3.3 18.4 2.6 18.6 2.5 18.65 2.35 18.65 2.25 18.7 2.1 18.7 2.0 18.75 1.9 18.75 1.75 18.8 1.65 18.8 1.5 18.8 1.4 18.8 1.3 18.8 1.15 18.8 1.05 18.8 0.9 18.8 0.8 18.75 0.7 18.75 0.6 18.75 0.55 18.7 0.45 18.7 0.4 18.65 0.35 18.6 0.25 18.6 0.2 18.55 0.15 18.5 0.1 18.45 0.05 18.4 0.05 18.35 0.0 18.3 -0.05 18.2 -0.1 18.15 -0.1 18.05 -0.15 17.95 -0.25 17.65 -0.3 17.35 -0.35 17.05 -0.4 16.75 -0.45 16.45 -0.5 16.15 -0.55 15.85 -0.55 15.5 -0.6 15.2 -0.6 14.9 -0.6 14.6 -0.6 14.3 -0.6 14.0 -0.6 13.65 -0.55 13.35 -0.55 13.05 -0.55 13.0 -0.55 13.0 -0.55 12.95 -0.55 12.9 -0.5 12.9 -0.5 12.85 -0.5 12.8 -0.5 12.8 -0.5 12.75 -0.5 12.7 -0.5 12.7 -0.45 12.65 -0.45 12.65 -0.45 12.6 -0.4 12.55 -0.4 12.55 -0.4 12.5 -0.35 12.5 -0.35 12.45 -0.3 12.45 -0.3 12.4 -0.25 12.35 -0.2 12.35 -0.2 12.3 -0.15 12.3 -0.15 12.3 -0.1 12.25 -0.05 12.25 -0.05 12.25 0.0 12.25 0.05 12.25 0.05 12.25 0.35 12.25 0.65 12.2 0.95 12.2 1.25 12.15 1.55 12.1 1.85 12.05 2.15 12.0 2.45 11.95 2.75 11.9 3.05 11.8 3.35 11.75 3.65 11.65 3.95 11.55 4.25 11.5 4.5 11.4 4.85 11.3 5.0 11.25 9.0 9.75 9.05 9.75 9.2 9.65 8.7 9.25 8.3 8.9 7.85 8.5 7.45 8.15 7.0 7.75 6.6 7.4 6.15 7.0 5.75 6.65 5.3 6.25 4.9 5.85 4.5 5.45 4.1 5.05 3.7 4.6 3.35 4.2 2.95 3.75 2.6 3.35 2.25 2.9 1.9 2.45 1.8 2.3 1.35 1.65 1.05 1.2 0.8 0.9 0.75 0.8 0.7 0.7 0.65 0.65 0.6 0.55 0.55 0.45 0.55 0.35 0.5 0.25 0.5 0.2 0.45 0.1 0.45 0.0 0.45 -0.1 0.45 -0.2 0.5 -0.3 0.5 -0.4 0.5 -0.5 0.55 -0.6 0.6 -0.9 0.7 -1.2 0.75 -1.5 0.85 -1.8 0.9 -2.1 1.0 -2.35 1.1 -2.65 1.2 -2.95 1.3 -3.25 1.4 -3.55 1.5 -3.8 1.6 -4.1 1.7 -4.4 1.85 -4.65 1.95 -4.95 2.1 -5.2 2.1 -5.25 2.15 -5.3 2.15 -5.35 2.2 -5.4 2.2 -5.45 2.25 -5.5 2.25 -5.55 2.3 -5.6 2.35 -5.65 2.35 -5.7 2.4 -5.75 2.45 -5.8 2.45 -5.85 2.5 -5.9 2.55 -5.9 2.55 -5.95 2.6 -6.0 2.65 -6.05 2.7 -6.1 2.75 -6.15 2.8 -6.15 2.9 -6.15 2.95 -6.2 3.0 -6.2 3.05 -6.2 3.1 -6.2 3.2 -6.2 3.25 -6.15 3.3 -6.15 3.35 -6.1 3.4 -6.1 3.45 -6.05 3.5 -6.0 3.55 -6.0 3.55 -5.95 3.6 -5.95 3.65 -5.9 3.7 -5.85 3.7 -5.85 3.75 -5.8 3.8 -5.75 3.8 -5.75 3.85 -5.7 3.85 -5.65 3.9 -5.65 3.95 -5.6 3.95 -5.55 4.0 -5.5 4.3 -5.05 4.6 -4.55 4.9 -4.15 5.25 -3.7 5.6 -3.25 5.95 -2.8 6.3 -2.4 6.65 -2.0 7.0 -1.6 7.4 -1.15 7.75 -0.8 8.15 -0.4 8.55 0.0 8.95 0.4 9.35 0.75 9.8 1.15 10.15 1.45 10.5 1.8 10.85 2.1 11.2 2.4 11.55 2.7 11.95 3.0 12.3 3.3 12.65 3.6 13.05 3.85 13.4 4.15 13.8 4.45 14.2 4.7 14.55 5.0 14.95 5.25 15.35 5.55 15.75 5.8 15.8 5.8 15.8 5.85 15.85 5.85 15.9 5.85 15.9 5.9 15.95 5.9 16.0 5.9 16.0 5.9 16.05 5.9 16.1 5.9 16.1 5.9 16.15 5.85 16.15 5.85 16.2 5.85 16.25 5.8 16.3 5.8 16.65 5.55 18.05 4.6 L18.05 4.6 M24.45 2.7 Q24.5 3.1 24.45 3.25 24.45 3.4 24.4 3.5 24.35 3.65 24.3 3.75 24.3 3.85 24.2 3.95 24.15 4.05 24.1 4.15 24.0 4.25 23.95 4.35 23.85 4.45 23.75 4.55 23.65 4.65 23.55 4.7 23.45 4.8 23.35 4.85 23.1 5.0 22.85 5.15 22.55 5.25 22.3 5.35 22.05 5.45 21.75 5.5 21.5 5.55 21.25 5.55 20.95 5.55 20.7 5.55 20.4 5.55 20.15 5.5 19.85 5.45 19.6 5.4 19.3 5.35 19.05 5.25 19.0 5.25 18.95 5.2 18.9 5.2 18.9 5.2 18.85 5.2 18.8 5.2 18.8 5.2 18.75 5.2 18.7 5.2 18.7 5.2 18.65 5.2 18.6 5.25 18.6 5.25 18.55 5.25 18.5 5.3 18.5 5.3 17.85 5.75 17.2 6.2 16.55 6.6 15.9 7.0 15.25 7.45 14.6 7.8 13.9 8.2 13.25 8.6 12.6 8.95 11.9 9.3 11.2 9.65 10.5 10.0 9.8 10.35 9.1 10.65 8.4 10.95 7.7 11.2 7.25 11.4 6.8 11.55 6.35 11.7 5.95 11.85 5.5 12.0 5.05 12.1 4.6 12.25 4.15 12.4 3.7 12.5 3.25 12.6 2.8 12.7 2.35 12.8 1.9 12.9 1.45 12.95 0.95 13.0 0.5 13.05 0.45 13.05 0.4 13.05 0.35 13.1 0.3 13.1 0.3 13.15 0.3 13.15 0.25 13.2 0.25 13.25 0.25 13.3 0.25 13.35 0.25 13.6 0.25 13.85 0.25 14.1 0.25 14.35 0.25 14.6 0.25 14.85 0.25 15.1 0.25 15.35 0.3 15.6 0.3 15.85 0.35 16.1 0.35 16.35 0.4 16.6 0.45 16.85 0.5 17.1 0.6 17.35 0.65 17.45 0.65 17.55 0.7 17.65 0.7 17.7 0.75 17.75 0.75 17.8 0.8 17.85 0.85 17.9 0.9 17.95 0.95 17.95 1.0 17.95 1.1 18.0 1.15 18.0 1.25 18.0 1.35 18.0 1.45 18.0 1.5 18.0 1.55 17.95 1.65 17.95 1.65 17.95 3.65 17.35 4.7 17.0 4.7 17.0 4.95 16.75 4.8 16.6 4.75 16.5 4.65 16.35 4.6 16.25 4.5 16.1 4.45 15.95 4.35 15.85 4.3 15.7 4.25 15.55 4.15 15.4 4.1 15.3 4.05 15.15 4.0 15.0 4.0 14.85 3.95 14.7 3.95 14.55 3.9 14.4 3.9 14.25 3.9 14.05 3.9 13.85 3.95 13.7 4.05 13.5 4.1 13.35 4.2 13.2 4.3 13.1 4.45 13.0 4.55 12.9 4.7 12.8 4.9 12.75 5.05 12.75 5.2 12.7 5.4 12.7 5.6 12.75 5.75 12.8 5.8 12.8 5.85 12.85 5.95 12.85 6.0 12.9 6.05 12.95 6.1 12.95 6.15 13.0 6.2 13.0 6.3 13.05 6.35 13.1 6.4 13.1 6.45 13.15 6.5 13.2 6.55 13.25 6.6 13.25 6.65 13.3 6.7 13.35 7.3 14.0 7.3 13.95 7.35 13.9 7.35 13.85 7.35 13.8 7.35 13.75 7.4 13.7 7.4 13.7 7.4 13.65 7.45 13.5 7.45 13.35 7.5 13.2 7.55 13.05 7.6 12.95 7.7 12.8 7.75 12.65 7.85 12.55 7.9 12.45 8.0 12.3 8.1 12.2 8.2 12.1 8.3 12.0 8.45 11.9 8.55 11.85 8.7 11.75 8.8 11.7 8.95 11.65 9.1 11.6 9.2 11.55 9.35 11.55 9.45 11.55 9.6 11.55 9.7 11.55 9.8 11.55 9.95 11.6 10.05 11.65 10.15 11.7 10.3 11.75 10.4 11.85 10.5 11.9 10.6 12.0 10.65 12.05 10.7 12.15 10.75 12.2 10.8 12.3 10.85 12.35 10.9 12.4 10.95 12.5 11.0 12.55 11.05 12.65 11.05 12.75 11.1 12.8 11.15 12.9 11.15 13.0 11.15 13.05 11.2 13.15 11.2 13.25 11.2 13.35 11.25 13.9 11.4 13.85 11.45 13.8 12.35 13.4 13.2 12.95 14.05 12.5 14.95 12.0 15.75 11.55 16.6 11.0 17.4 10.5 18.25 9.95 19.05 9.45 19.85 8.85 20.65 8.3 21.45 7.75 22.2 7.15 23.0 6.55 23.75 6.0 24.55 5.35 24.6 5.35 24.6 5.3 24.65 5.25 24.7 5.25 24.7 5.2 24.75 5.15 24.75 5.15 24.8 5.1 24.8 5.05 24.8 5.0 24.85 4.95 24.85 4.95 24.85 4.9 24.9 4.85 24.9 4.8 24.9 4.8 24.95 2.75 24.9 1.5 24.9 1.3 24.7 0.1 24.0 0.75 21.95 2.65 22.65 2.9 22.75 2.95 22.85 3.0 22.95 3.0 23.05 3.0 23.2 3.0 23.3 3.0 23.4 3.0 23.5 3.0 23.6 2.95 23.7 2.95 23.8 2.9 23.9 2.9 24.05 2.85 24.15 2.85 24.25 2.8 24.35 2.75 24.45 2.7 L24.45 2.7 M15.3 6.5 Q14.35 5.85 13.55 5.25 12.65 4.6 11.85 3.95 10.95 3.25 10.2 2.6 9.35 1.9 8.6 1.2 7.8 0.45 7.1 -0.3 6.35 -1.1 5.65 -1.9 4.95 -2.7 4.35 -3.55 3.65 -4.4 3.1 -5.35 2.8 -4.85 2.8 -4.8 2.7 -4.55 2.55 -4.3 2.45 -4.0 2.35 -3.75 2.25 -3.5 2.15 -3.2 2.05 -2.95 1.95 -2.7 1.9 -2.4 1.8 -2.15 1.7 -1.85 1.65 -1.6 1.55 -1.3 1.5 -1.0 1.4 -0.75 1.35 -0.45 1.35 -0.4 1.3 -0.35 1.3 -0.25 1.3 -0.2 1.3 -0.15 1.3 -0.1 1.3 -0.05 1.3 0.0 1.35 0.1 1.35 0.15 1.35 0.2 1.4 0.25 1.4 0.3 1.45 0.35 1.45 0.4 1.5 0.45 1.6 0.6 2.3 1.55 2.75 2.2 3.1 2.6 3.45 3.0 3.8 3.45 4.15 3.85 4.55 4.25 4.9 4.65 5.3 5.05 5.7 5.45 6.1 5.85 6.45 6.2 6.9 6.6 7.3 6.95 7.7 7.3 8.1 7.65 8.55 8.05 8.95 8.35 9.4 8.75 9.5 8.85 9.55 8.9 9.65 8.95 9.75 9.0 9.85 9.05 9.9 9.1 10.0 9.1 10.05 9.15 10.15 9.15 10.25 9.15 10.35 9.15 10.45 9.1 10.5 9.1 10.6 9.05 10.7 9.0 10.85 8.95 11.6 8.5 15.3 6.5 L15.3 6.5 M10.45 13.7 Q10.3 13.1 10.25 12.95 10.2 12.85 10.1 12.75 10.05 12.65 9.95 12.55 9.9 12.5 9.8 12.45 9.75 12.4 9.65 12.4 9.55 12.35 9.5 12.35 9.4 12.35 9.3 12.4 9.2 12.45 9.1 12.5 9.0 12.55 8.9 12.65 8.85 12.7 8.8 12.7 8.75 12.75 8.75 12.8 8.7 12.85 8.65 12.9 8.6 12.9 8.6 12.95 8.55 13.0 8.5 13.05 8.5 13.1 8.45 13.15 8.45 13.2 8.4 13.25 8.4 13.3 8.35 13.35 8.35 13.45 8.3 13.5 8.3 13.6 8.25 13.7 8.25 13.75 8.25 13.85 8.2 13.9 8.2 14.0 8.2 14.1 8.2 14.2 8.15 14.25 8.15 14.35 8.15 14.45 8.15 14.5 8.15 14.6 8.15 14.7 8.15 14.75 8.15 14.8 8.1 14.85 8.1 14.85 8.1 14.9 8.1 14.95 8.05 14.95 8.05 15.0 8.0 15.0 8.0 15.05 7.95 15.05 7.95 15.1 7.9 15.1 7.85 15.15 7.85 15.15 7.8 15.15 7.7 15.2 7.65 15.2 7.55 15.25 7.5 15.25 7.45 15.25 7.4 15.25 7.35 15.25 7.35 15.25 7.3 15.25 7.25 15.25 7.2 15.2 7.2 15.15 7.15 15.15 7.1 15.05 7.1 15.05 7.0 14.95 6.9 14.8 6.85 14.75 6.8 14.65 6.75 14.6 6.65 14.5 6.6 14.4 6.5 14.3 6.45 14.25 6.35 14.15 6.3 14.05 6.2 14.0 6.1 13.9 6.0 13.85 5.95 13.8 5.85 13.75 5.75 13.7 5.7 13.65 5.65 13.65 5.6 13.6 5.55 13.6 5.5 13.6 5.45 13.55 5.4 13.55 5.35 13.55 5.3 13.55 5.25 13.55 5.2 13.55 5.15 13.55 5.1 13.55 5.05 13.6 5.0 13.6 4.95 13.65 4.9 13.7 4.85 13.75 4.85 13.75 4.8 13.8 4.75 13.85 4.75 13.9 4.75 13.95 4.7 14.0 4.7 14.05 4.7 14.1 4.7 14.2 4.7 14.25 4.7 14.3 4.7 14.35 4.75 14.4 4.75 14.45 5.25 15.65 5.55 16.1 5.5 16.05 5.65 16.3 5.7 16.4 5.75 16.45 5.8 16.5 5.8 16.6 5.85 16.65 5.85 16.7 5.85 16.75 5.8 16.8 5.8 16.85 5.8 16.9 5.75 17.0 5.7 17.05 5.65 17.15 5.6 17.25 5.6 17.3 5.55 17.35 5.5 17.4 5.5 17.4 5.45 17.5 5.4 17.6 5.35 17.75 5.3 17.85 5.3 17.95 5.3 18.05 5.25 18.15 5.3 18.25 5.3 18.4 5.3 18.5 5.35 18.6 5.35 18.7 5.4 18.8 5.45 18.9 5.5 19.0 5.6 19.1 5.65 19.2 5.75 19.3 5.8 19.4 5.9 19.45 5.95 19.55 6.05 19.6 6.15 19.7 6.25 19.7 6.3 19.75 6.4 19.8 6.5 19.85 6.65 19.85 6.75 19.85 6.85 19.85 6.95 19.85 7.1 19.85 7.35 19.8 7.6 19.75 7.85 19.7 8.05 19.65 8.3 19.55 8.55 19.45 8.75 19.35 8.95 19.25 9.2 19.15 9.4 19.05 9.6 18.9 9.8 18.75 10.0 18.65 10.2 18.45 10.4 18.3 10.6 18.1 10.65 18.05 10.75 17.95 10.8 17.9 10.85 17.8 10.85 17.75 10.9 17.7 10.95 17.6 10.95 17.55 10.95 17.45 10.95 17.4 10.95 17.3 10.95 17.2 10.9 17.15 10.9 17.05 10.85 16.95 10.8 16.85 10.75 16.8 10.75 16.75 10.7 16.65 10.65 16.6 10.65 16.55 10.6 16.5 10.55 16.4 10.5 16.35 10.5 16.3 10.45 16.25 10.4 16.2 10.35 16.15 10.3 16.05 10.3 16.0 10.25 15.95 10.2 15.9 10.15 15.85 10.15 15.8 10.1 15.8 10.1 15.75 10.1 15.7 10.05 15.65 10.05 15.65 10.05 15.6 10.05 15.55 10.05 15.5 10.05 15.5 10.05 15.45 10.05 15.4 10.05 15.35 10.05 15.3 10.05 15.25 10.15 14.95 10.45 13.7 L10.45 13.7 M15.3 12.75 Q15.4 12.85 15.45 12.85 15.8 13.05 16.1 13.25 16.45 13.4 16.8 13.6 17.15 13.75 17.45 13.9 17.8 14.1 18.15 14.25 18.5 14.4 18.85 14.5 19.2 14.65 19.55 14.75 19.95 14.85 20.3 14.95 20.7 15.0 21.05 15.1 21.2 15.1 21.3 15.15 21.4 15.15 21.5 15.15 21.55 15.15 21.65 15.1 21.7 15.1 21.8 15.05 21.85 15.05 21.9 15.0 21.95 14.95 22.0 14.85 22.05 14.8 22.1 14.7 22.15 14.6 22.2 14.5 22.3 14.25 22.4 14.0 22.5 13.75 22.6 13.5 22.7 13.25 22.75 13.0 22.8 12.75 22.85 12.5 22.9 12.25 22.9 12.0 22.95 11.7 22.95 11.45 22.95 11.2 22.95 10.9 22.95 10.65 22.95 10.4 22.95 10.35 22.95 10.35 22.95 10.3 22.9 10.25 22.9 10.25 22.9 10.2 22.85 10.2 22.85 10.15 22.85 10.15 22.8 10.15 22.8 10.1 22.75 10.1 22.75 10.1 22.7 10.1 22.65 10.1 22.65 10.05 22.55 10.0 22.4 10.0 22.3 9.95 22.2 9.95 22.1 9.9 21.95 9.85 21.85 9.85 21.75 9.8 21.65 9.75 21.5 9.75 21.4 9.7 21.3 9.65 21.2 9.6 21.1 9.6 20.95 9.55 20.85 9.5 20.8 9.5 20.75 9.5 20.75 9.45 20.7 9.45 20.65 9.45 20.65 9.45 20.6 9.45 20.55 9.45 20.55 9.45 20.5 9.45 20.45 9.5 20.45 9.5 20.4 9.5 20.35 9.5 20.35 9.55 20.3 9.55 18.95 10.45 16.05 12.35 15.95 12.4 15.7 12.55 15.45 12.7 15.3 12.75 L15.3 12.75 M20.75 -1.0 Q20.55 -0.95 20.3 -0.85 20.1 -0.75 19.9 -0.65 19.7 -0.5 19.5 -0.35 19.3 -0.2 19.1 0.0 18.9 0.2 18.75 0.4 18.55 0.6 18.45 0.8 18.3 1.05 18.2 1.3 18.1 1.5 18.0 1.75 17.95 2.0 17.9 2.2 17.9 2.4 17.9 2.6 17.9 2.8 17.9 2.95 17.95 3.15 18.0 3.3 18.1 3.45 18.2 3.6 18.3 3.75 18.45 3.9 18.55 4.0 18.75 4.15 18.95 4.25 19.15 4.35 19.4 4.45 19.65 4.55 19.9 4.65 20.15 4.7 20.4 4.75 20.65 4.75 20.9 4.75 21.15 4.75 21.4 4.75 21.65 4.7 21.85 4.6 22.1 4.55 22.35 4.45 22.6 4.3 22.85 4.2 23.05 4.05 23.1 4.05 23.55 3.55 23.55 3.5 23.5 3.45 23.25 3.55 23.05 3.6 22.8 3.65 22.6 3.65 22.4 3.65 22.2 3.6 22.0 3.55 21.8 3.45 21.65 3.4 21.45 3.25 21.3 3.15 21.15 3.0 21.0 2.85 20.85 2.7 20.7 2.55 20.6 2.35 20.45 2.15 20.35 1.9 20.25 1.7 20.15 1.5 20.1 1.3 20.05 1.05 20.05 0.85 20.05 0.65 20.05 0.45 20.1 0.25 20.15 0.05 20.25 -0.2 20.35 -0.4 20.5 -0.6 20.6 -0.8 20.75 -1.0 L20.75 -1.0" fill="#000000" fill-rule="evenodd" stroke="none"/>
  </g>
</svg>
