<?xml version="1.0" encoding="UTF-8" standalone="no"?>
<svg xmlns:xlink="http://www.w3.org/1999/xlink" height="43.2px" width="24.0px" xmlns="http://www.w3.org/2000/svg">
  <g transform="matrix(1.0, 0.0, 0.0, 1.0, 12.0, 21.6)">
    <path d="M-4.9 -15.85 Q-4.55 -15.85 -2.8 -15.75 -1.55 -15.7 -0.75 -15.6 -0.3 -15.55 0.1 -15.55 0.55 -15.55 1.0 -15.55 1.4 -15.6 1.85 -15.65 2.25 -15.7 2.7 -15.75 3.1 -15.85 3.5 -15.95 3.9 -16.05 4.35 -16.15 4.75 -16.3 5.15 -16.45 5.55 -16.6 5.95 -16.8 6.2 -16.9 6.4 -17.0 6.65 -17.1 6.9 -17.2 7.15 -17.25 7.35 -17.35 7.6 -17.45 7.85 -17.5 8.1 -17.6 8.35 -17.65 8.6 -17.7 8.85 -17.8 9.1 -17.85 9.35 -17.9 9.6 -17.95 9.85 -18.0 9.9 -18.0 10.0 -18.0 10.1 -18.0 10.15 -17.95 10.25 -17.95 10.35 -17.9 10.45 -17.85 10.55 -17.8 10.6 -17.7 10.7 -17.65 10.8 -17.6 10.85 -17.5 10.95 -17.45 11.0 -17.35 11.1 -17.3 11.1 -17.2 11.15 -17.1 11.2 -17.0 11.25 -16.85 11.25 -16.75 11.25 -16.65 11.25 -16.55 11.2 -16.45 11.15 -16.35 11.1 -16.25 11.05 -16.15 11.0 -16.1 10.9 -16.0 10.8 -15.95 10.7 -15.9 10.6 -15.85 10.5 -15.8 5.3 -13.95 3.35 -13.45 3.15 -13.4 2.95 -13.35 2.75 -13.3 2.5 -13.3 2.3 -13.25 2.05 -13.25 1.85 -13.2 1.65 -13.2 1.4 -13.2 1.2 -13.2 0.95 -13.2 0.75 -13.2 0.55 -13.2 0.3 -13.25 0.15 -13.25 -0.15 -13.25 -1.15 -13.3 -1.85 -13.3 -2.75 -13.35 -3.5 -13.35 -4.4 -13.4 -5.2 -13.4 -6.1 -13.4 -6.9 -13.35 -7.75 -13.35 -8.55 -13.3 -9.45 -13.25 -10.25 -13.15 -11.1 -13.1 -11.9 -12.95 -12.8 -12.85 -13.6 -12.7 -15.35 -12.35 -19.2 -11.35 -19.35 -11.3 -19.5 -11.3 -19.65 -11.3 -19.75 -11.3 -19.9 -11.3 -20.0 -11.3 -20.1 -11.3 -20.2 -11.35 -20.3 -11.4 -20.4 -11.45 -20.5 -11.55 -20.6 -11.6 -20.65 -11.7 -20.75 -11.85 -20.8 -11.95 -20.85 -12.1 -20.9 -12.25 -20.9 -12.4 -20.95 -12.5 -20.9 -12.65 -20.9 -12.75 -20.85 -12.85 -20.8 -13.0 -20.75 -13.1 -20.7 -13.2 -20.6 -13.3 -20.5 -13.35 -20.4 -13.45 -20.25 -13.5 -20.1 -13.6 -19.95 -13.65 -19.8 -13.7 -18.85 -13.95 -17.95 -14.2 -17.05 -14.4 -16.15 -14.6 -15.2 -14.8 -14.3 -15.0 -13.35 -15.15 -12.4 -15.3 -11.5 -15.45 -10.55 -15.55 -9.6 -15.65 -8.7 -15.7 -7.75 -15.8 -6.8 -15.8 -5.85 -15.85 -4.9 -15.85 L-4.9 -15.85" fill="#000000" fill-rule="evenodd" stroke="none"/>
    <path d="M-6.35 -18.85 Q-6.05 -18.8 -4.1 -18.65 -2.7 -18.5 -1.8 -18.35 -1.4 -18.3 -1.0 -18.3 -0.6 -18.25 -0.2 -18.3 0.15 -18.3 0.55 -18.35 0.95 -18.4 1.35 -18.5 1.7 -18.6 2.1 -18.7 2.45 -18.8 2.8 -18.95 3.15 -19.05 3.55 -19.2 3.9 -19.35 4.3 -19.5 7.4 -20.85 8.15 -21.1 8.2 -21.1 8.25 -21.15 8.35 -21.15 8.4 -21.15 8.45 -21.15 8.55 -21.1 8.6 -21.1 8.7 -21.1 8.75 -21.05 8.85 -21.05 8.6 -21.1 9.0 -21.0 9.05 -20.95 9.15 -20.95 9.2 -20.95 9.3 -20.95 9.25 -20.9 9.2 -20.8 9.15 -20.75 9.1 -20.7 9.25 -20.9 9.05 -20.55 9.0 -20.5 8.95 -20.45 8.9 -20.35 8.85 -20.3 8.8 -20.25 8.75 -20.2 8.7 -20.15 8.65 -20.1 8.6 -20.05 8.55 -20.05 8.15 -19.85 7.35 -19.5 6.5 -19.2 6.15 -19.0 5.55 -18.7 4.9 -18.4 4.3 -18.15 3.7 -17.95 3.05 -17.75 2.45 -17.65 1.8 -17.5 1.15 -17.4 0.55 -17.3 -0.1 -17.25 -0.75 -17.2 -1.4 -17.2 -2.05 -17.2 -2.75 -17.25 -3.4 -17.25 -4.1 -17.35 -5.1 -17.45 -6.15 -17.5 -7.15 -17.55 -8.2 -17.5 -9.2 -17.5 -10.2 -17.45 -11.25 -17.35 -12.25 -17.25 -13.25 -17.1 -14.25 -16.9 -15.25 -16.7 -16.25 -16.5 -17.25 -16.25 -18.25 -15.95 -19.25 -15.65 -20.25 -15.25 -20.3 -15.25 -20.35 -15.2 -20.45 -15.2 -20.5 -15.2 -20.55 -15.2 -20.65 -15.25 -20.7 -15.25 -20.8 -15.25 -20.85 -15.25 -20.95 -15.3 -21.1 -15.3 -21.1 -15.3 -21.15 -15.35 -21.25 -15.35 -21.3 -15.35 -21.4 -15.35 -21.35 -15.4 -21.3 -15.5 -21.25 -15.55 -21.2 -15.65 -21.2 -15.65 -21.15 -15.8 -21.1 -15.9 -21.05 -15.95 -21.0 -16.05 -20.95 -16.1 -20.9 -16.15 -20.85 -16.2 -20.8 -16.25 -20.75 -16.3 -20.7 -16.35 -20.65 -16.35 -15.15 -17.8 -12.6 -18.25 -11.35 -18.5 -9.5 -18.6 -5.25 -18.95 -6.35 -18.85 L-6.35 -18.85" fill="#000000" fill-rule="evenodd" stroke="none"/>
    <path d="M-18.2 9.05 Q-18.0 9.1 -18.0 9.1 -17.85 9.15 -17.7 9.2 -17.55 9.2 -17.45 9.2 -17.3 9.25 -17.2 9.2 -17.05 9.2 -16.95 9.15 -16.85 9.1 -16.75 9.0 -16.7 8.95 -16.6 8.85 -16.55 8.7 -16.45 8.6 -16.4 8.45 -16.35 8.25 -16.35 8.25 -15.8 7.85 -15.5 8.4 -15.5 8.4 -15.5 8.6 -15.5 8.8 -15.45 8.95 -15.4 9.1 -15.35 9.25 -15.3 9.35 -15.2 9.5 -15.1 9.6 -15.0 9.65 -14.85 9.75 -14.75 9.8 -14.6 9.85 -14.45 9.9 -14.3 9.9 -14.15 9.95 -13.95 10.0 -13.85 10.0 -13.25 10.35 -13.35 10.4 -13.8 10.85 -13.8 10.9 -13.85 10.9 -13.9 10.95 -13.9 10.95 -13.95 10.95 -14.0 11.0 -14.15 11.05 -14.3 11.1 -14.45 11.2 -14.55 11.25 -14.65 11.35 -14.75 11.45 -14.85 11.55 -14.9 11.65 -14.95 11.8 -15.0 11.9 -15.05 12.05 -15.05 12.2 -15.1 12.35 -15.1 12.5 -15.05 12.65 -15.05 12.85 -15.05 12.9 -15.05 13.0 -15.05 13.05 -15.05 13.15 -15.05 13.25 -15.05 13.35 -15.05 13.4 -15.05 13.5 -15.1 13.6 -15.1 13.65 -15.15 13.7 -15.15 13.8 -15.2 13.85 -15.2 13.9 -15.25 13.95 -15.3 13.95 -15.4 14.0 -15.5 14.0 -15.55 14.05 -15.65 14.0 -15.7 14.0 -15.8 14.0 -15.85 13.95 -15.95 13.9 -16.0 13.85 -16.05 13.75 -16.1 13.7 -16.2 13.65 -16.25 13.55 -16.3 13.45 -16.3 13.4 -16.35 13.3 -16.4 13.2 -16.45 13.15 -16.55 13.05 -16.6 13.0 -16.65 12.95 -16.75 12.95 -16.8 12.9 -16.85 12.9 -16.95 12.9 -17.0 12.9 -17.05 12.9 -17.15 12.95 -17.2 12.95 -17.3 13.0 -17.35 13.05 -17.45 13.1 -17.5 13.1 -17.5 13.15 -17.55 13.15 -17.55 13.15 -17.6 13.15 -17.65 13.2 -17.65 13.2 -17.7 13.25 -17.7 13.25 -17.75 13.25 -17.8 13.3 -17.8 13.3 -17.85 13.3 -17.85 13.3 -17.9 13.35 -17.95 13.35 -17.95 13.35 -18.5 13.35 -18.5 13.3 -18.5 13.3 -18.5 13.25 -18.5 13.2 -18.5 13.2 -18.5 13.15 -18.5 13.1 -18.5 13.05 -18.5 13.0 -18.5 13.0 -18.5 12.95 -18.45 12.9 -18.45 12.9 -18.45 12.85 -18.45 12.85 -18.45 12.8 -18.3 12.6 -18.2 12.4 -18.1 12.2 -18.0 12.05 -17.95 11.85 -17.9 11.65 -17.85 11.45 -17.85 11.25 -17.85 11.05 -17.85 10.9 -17.9 10.7 -17.95 10.5 -18.05 10.3 -18.15 10.1 -18.25 9.9 -18.4 9.7 -18.4 9.7 -18.45 9.65 -18.45 9.6 -18.45 9.6 -18.5 9.55 -18.5 9.5 -18.5 9.5 -18.5 9.45 -18.5 9.4 -18.55 9.4 -18.55 9.35 -18.55 9.3 -18.55 9.25 -18.55 9.2 -18.55 9.2 -18.55 9.15 -18.55 9.15 -18.45 9.1 -18.4 9.1 -18.35 9.05 -18.25 9.05 -18.2 9.05 L-18.2 9.05" fill="#000000" fill-rule="evenodd" stroke="none"/>
  </g>
</svg>
