<?xml version="1.0" encoding="UTF-8" standalone="no"?>
<svg xmlns:xlink="http://www.w3.org/1999/xlink" height="200.0px" width="200.0px" xmlns="http://www.w3.org/2000/svg">
  <g transform="matrix(1.0, 0.0, 0.0, 1.0, 100.0, 100.0)">
    <path d="M-13.55 -22.4 Q-15.7 -23.95 -20.0 -27.0 -19.45 -27.4 -19.2 -27.55 -18.7 -27.95 -16.35 -29.6 -16.3 -29.65 -16.25 -29.65 -16.25 -29.65 -16.2 -29.65 -16.15 -29.65 -16.1 -29.65 -16.1 -29.65 -16.05 -29.65 -11.9 -27.55 -8.8 -26.3 -8.65 -26.25 -8.5 -26.2 -8.4 -26.15 -8.25 -26.1 -8.1 -26.05 -7.95 -26.0 -7.8 -25.95 -7.7 -25.9 -7.55 -25.85 -7.4 -25.85 -7.25 -25.8 -7.1 -25.75 -6.95 -25.7 -6.8 -25.7 -6.65 -25.65 -6.5 -25.65 -6.4 -25.65 -6.25 -25.6 -6.15 -25.6 -6.0 -25.6 -5.85 -25.55 -5.75 -25.55 -5.6 -25.55 -5.5 -25.55 -5.35 -25.55 -5.25 -25.55 -5.1 -25.55 -5.0 -25.55 -4.85 -25.55 -4.75 -25.55 -4.6 -25.55 -4.45 -25.55 -4.35 -25.55 -4.25 -25.6 -4.1 -25.6 -4.0 -25.6 -3.9 -25.65 -3.8 -25.65 -3.65 -25.7 -3.55 -25.7 -3.45 -25.75 -3.35 -25.75 -3.2 -25.8 -3.1 -25.8 -3.0 -25.85 -2.9 -25.9 -2.8 -25.95 -2.7 -26.0 -2.5 -26.1 -2.3 -26.2 -2.15 -26.3 -1.95 -26.4 -1.8 -26.5 -1.6 -26.65 -1.45 -26.75 -1.3 -26.9 -1.2 -27.05 -1.05 -27.2 -0.9 -27.35 -0.8 -27.55 -0.65 -27.7 -0.55 -27.85 -0.45 -28.05 -0.35 -28.25 -0.3 -28.3 -0.3 -28.3 -0.3 -28.35 -0.25 -28.4 -0.25 -28.45 -0.2 -28.5 -0.2 -28.55 -0.2 -28.55 -0.2 -28.6 -0.15 -28.65 -0.15 -28.7 -0.1 -28.7 -0.1 -28.75 -0.1 -28.8 -0.05 -28.8 0.0 -28.85 0.0 -28.85 0.05 -28.9 0.05 -28.9 0.1 -28.95 0.15 -28.95 0.15 -29.0 0.2 -29.0 0.25 -29.0 0.35 -29.05 0.45 -29.1 0.5 -29.15 0.6 -29.15 0.7 -29.2 0.8 -29.2 0.9 -29.25 1.0 -29.3 1.1 -29.3 1.2 -29.3 1.3 -29.35 1.4 -29.35 1.5 -29.35 1.6 -29.35 1.65 -29.35 1.75 -29.35 1.85 -29.35 2.0 -29.35 2.1 -29.35 2.25 -29.35 2.35 -29.3 2.45 -29.3 2.55 -29.25 2.7 -29.25 2.8 -29.2 2.9 -29.15 3.0 -29.1 3.1 -29.05 3.2 -29.0 3.3 -28.95 3.4 -28.9 3.5 -28.85 3.65 -28.75 3.85 -28.6 4.0 -28.5 4.15 -28.4 4.3 -28.25 4.45 -28.1 4.6 -28.0 4.75 -27.85 4.85 -27.7 5.0 -27.55 5.1 -27.4 5.2 -27.25 5.3 -27.05 5.4 -26.9 5.5 -26.7 5.6 -26.55 6.3 -25.0 7.85 -22.3 7.85 -22.25 7.9 -22.2 7.9 -22.15 7.95 -22.15 7.95 -22.1 8.0 -22.05 8.0 -22.0 8.0 -21.95 8.05 -21.9 8.05 -21.85 8.1 -21.85 8.1 -21.8 8.1 -21.75 8.15 -21.7 8.15 -21.65 8.15 -21.6 8.15 -21.55 8.2 -21.5 8.2 -21.45 8.2 -21.4 8.2 -21.35 8.15 -21.3 8.15 -21.25 8.15 -21.25 8.1 -21.2 8.1 -21.15 8.05 -21.15 8.0 -21.1 7.95 -21.05 7.9 -21.05 7.9 -21.0 7.8 -21.0 7.75 -21.0 7.7 -20.95 7.65 -20.95 7.55 -20.95 7.5 -20.95 7.45 -20.95 7.4 -20.9 7.3 -20.9 7.25 -20.9 7.2 -20.95 7.15 -20.95 7.1 -20.95 7.0 -20.95 6.95 -20.95 6.9 -20.95 6.85 -20.95 6.6 -21.0 6.2 -21.1 5.75 -21.2 5.55 -21.2 5.5 -21.2 5.45 -21.25 5.4 -21.25 5.35 -21.2 5.3 -21.2 5.3 -21.2 5.2 -21.15 5.1 -21.15 4.95 -21.1 4.85 -21.05 4.75 -21.05 4.65 -21.0 4.55 -21.0 4.45 -21.0 4.35 -20.95 4.2 -20.95 4.1 -20.95 4.0 -20.95 3.9 -20.9 3.8 -20.9 3.65 -20.9 3.55 -20.9 3.5 -20.9 3.45 -20.9 3.35 -20.9 3.3 -20.9 3.25 -20.9 3.2 -20.85 3.15 -20.85 3.1 -20.8 3.05 -20.8 3.0 -20.75 2.95 -20.75 2.9 -20.7 2.85 -20.65 2.8 -20.6 2.75 -20.55 2.7 -20.5 2.65 -20.45 2.4 -20.05 2.35 -19.95 2.3 -19.9 2.2 -19.85 2.15 -19.8 2.1 -19.75 2.0 -19.7 1.95 -19.65 1.85 -19.6 1.8 -19.6 1.7 -19.6 1.65 -19.55 1.55 -19.55 1.5 -19.6 1.4 -19.6 1.3 -19.6 1.2 -19.65 1.1 -19.7 0.3 -20.05 0.3 -20.1 0.25 -20.1 0.2 -20.15 0.1 -20.2 0.15 -20.1 0.2 -19.8 0.9 -17.2 2.2 -12.25 2.25 -12.1 2.25 -12.05 2.3 -12.0 2.35 -12.0 2.4 -12.0 2.55 -12.0 3.15 -12.05 3.55 -12.05 4.2 -12.1 5.8 -12.15 6.05 -12.15 6.9 -12.15 7.35 -12.15 8.7 -12.2 9.4 -12.2 9.9 -12.25 9.95 -12.25 10.0 -12.25 10.05 -12.2 10.05 -12.2 10.1 -12.2 10.1 -12.15 10.15 -12.1 10.15 -12.05 10.2 -11.65 10.4 -10.5 10.4 -10.45 10.4 -10.4 10.4 -10.4 10.35 -10.35 10.35 -10.35 10.3 -10.35 10.3 -10.3 10.25 -10.3 9.6 -10.35 7.6 -10.35 6.6 -10.4 6.35 -10.4 5.25 -10.4 4.15 -10.4 3.85 -10.4 3.4 -10.45 2.75 -10.45 2.65 -10.45 2.6 -10.45 2.55 -10.45 2.5 -10.45 2.5 -10.4 2.45 -10.4 2.45 -10.35 2.4 -10.3 2.4 -10.25 2.35 -10.0 2.2 -9.5 2.1 -8.95 2.05 -8.7 2.05 -8.65 2.0 -8.6 1.95 -8.55 1.95 -8.55 1.9 -8.55 1.85 -8.55 1.15 -8.45 -0.45 -8.25 -1.6 -8.1 -2.15 -8.05 -2.2 -8.05 -2.25 -8.05 -2.3 -8.05 -2.3 -8.05 -2.35 -8.1 -2.35 -8.1 -2.35 -8.15 -2.4 -8.2 -2.45 -8.3 -3.0 -10.15 -3.0 -10.2 -3.05 -10.25 -3.05 -10.3 -3.1 -10.3 -3.1 -10.35 -3.15 -10.35 -3.2 -10.35 -3.25 -10.35 -5.5 -10.35 -5.7 -10.35 -6.7 -10.35 -8.15 -10.3 -8.5 -10.3 -9.2 -10.25 -9.9 -10.2 -10.25 -10.2 -10.6 -10.15 -11.5 -10.1 -12.3 -10.05 -12.75 -10.0 -14.4 -9.9 -15.65 -9.75 -17.35 -9.55 -20.0 -9.2 -20.3 -9.15 -21.05 -9.0 -21.7 -8.9 -22.05 -8.85 -22.1 -8.85 -22.1 -8.85 -22.15 -8.85 -22.2 -8.9 -22.2 -8.9 -22.2 -8.9 -22.4 -9.35 -22.8 -10.4 -22.8 -10.45 -22.8 -10.45 -22.75 -10.45 -22.75 -10.45 -22.7 -10.45 -22.65 -10.5 -22.65 -10.5 -22.6 -10.5 -22.55 -10.5 -22.55 -10.5 -22.5 -10.5 -22.45 -10.5 -22.45 -10.55 -22.4 -10.55 -22.35 -10.55 -22.35 -10.55 -22.3 -10.55 -22.25 -10.55 -20.55 -10.8 -19.55 -10.95 -18.75 -11.05 -17.2 -11.25 -16.7 -11.3 -15.9 -11.35 -14.9 -11.45 -14.65 -11.5 -13.9 -11.55 -12.65 -11.65 -12.25 -11.65 -10.15 -11.75 -9.05 -11.8 -8.25 -11.85 -6.15 -11.85 -3.3 -11.85 -3.25 -11.85 -3.2 -11.85 -3.2 -11.85 -3.15 -11.85 -3.1 -11.85 -3.1 -11.85 -3.0 -11.85 -2.95 -11.85 -2.9 -11.85 -2.9 -11.9 -2.9 -11.95 -2.9 -12.05 -2.95 -12.45 -3.1 -13.75 -3.25 -14.85 -3.3 -15.4 -3.35 -16.0 -3.45 -17.0 -3.45 -17.1 -3.5 -17.3 -3.5 -17.5 -3.55 -17.65 -3.55 -17.7 -3.6 -17.75 -3.65 -17.8 -3.7 -17.8 -4.2 -18.05 -6.15 -19.0 -7.85 -19.8 -10.05 -20.85 -10.1 -20.85 -10.15 -20.9 -10.15 -20.9 -10.2 -20.9 -10.25 -20.95 -10.3 -20.95 -10.35 -20.95 -10.4 -20.95 -10.4 -20.95 -10.45 -20.95 -10.8 -20.9 -12.1 -20.75 -13.35 -20.6 -14.05 -20.55 -14.5 -20.5 -15.7 -20.35 -16.7 -20.25 -17.35 -20.15 -17.9 -20.1 -18.95 -20.0 -19.35 -19.95 -20.55 -19.8 -21.15 -19.75 -22.1 -19.65 -22.2 -19.6 -22.2 -19.75 -22.2 -19.8 -22.2 -19.85 -22.2 -19.9 -22.2 -19.9 -22.2 -19.95 -22.2 -20.0 -22.2 -20.05 -22.2 -20.1 -22.2 -20.15 -22.2 -20.2 -22.2 -20.25 -22.2 -20.25 -22.2 -20.3 -22.2 -20.35 -22.2 -20.4 -22.2 -20.45 -22.2 -20.45 -22.2 -21.5 -22.2 -21.55 -22.2 -21.6 -22.15 -21.6 -22.15 -21.65 -22.1 -21.65 -22.05 -21.65 -21.7 -21.7 -21.1 -21.75 -20.45 -21.8 -20.2 -21.8 -20.1 -21.8 -18.4 -21.95 -18.2 -21.95 -17.5 -22.05 -16.95 -22.1 -16.65 -22.1 -16.5 -22.1 -15.25 -22.2 -14.7 -22.25 -13.7 -22.35 -13.7 -22.35 -13.55 -22.4 L-13.55 -22.4" fill="#000000" fill-rule="evenodd" stroke="none"/>
    <path d="M15.65 10.1 Q15.4 10.05 14.65 9.85 14.05 9.7 13.7 9.6 13.5 9.55 13.35 9.5 13.15 9.5 13.0 9.45 12.8 9.4 12.65 9.35 12.45 9.35 12.25 9.3 12.1 9.25 11.9 9.25 11.7 9.2 11.55 9.2 11.35 9.2 11.2 9.15 11.0 9.15 10.8 9.15 10.7 9.15 10.55 9.15 10.45 9.1 10.35 9.1 10.2 9.1 10.1 9.1 10.0 9.1 9.85 9.05 9.75 9.05 9.6 9.05 9.5 9.05 9.4 9.05 9.25 9.05 9.15 9.05 9.0 9.05 8.9 9.05 7.75 9.0 6.0 9.0 4.95 9.0 3.35 9.05 2.95 9.05 2.25 9.05 1.4 9.1 1.1 9.1 0.75 9.1 0.4 9.1 0.1 9.1 -0.25 9.1 -0.6 9.1 -0.95 9.15 -1.3 9.15 -1.6 9.15 -1.95 9.15 -2.3 9.15 -2.65 9.15 -3.0 9.15 -3.35 9.15 -3.65 9.15 -4.0 9.15 -4.35 9.15 -4.65 9.15 -5.2 9.15 -5.75 9.15 -6.05 9.15 -7.1 9.15 -8.75 9.25 -9.55 9.25 -10.7 9.35 -11.6 9.45 -13.15 9.6 -14.25 9.7 -15.15 9.8 -16.15 9.9 -17.4 10.1 -18.95 10.3 -20.2 10.5 -21.1 10.65 -23.25 11.0 -23.4 11.05 -23.45 11.05 -23.5 11.05 -23.55 11.0 -23.55 10.95 -23.5 10.8 -23.5 10.55 -23.4 9.7 -23.4 9.65 -23.4 9.6 -23.4 9.55 -23.35 9.55 -23.35 9.5 -23.3 9.5 -23.25 9.5 -23.2 9.45 -22.8 9.4 -20.45 9.05 -19.5 8.85 -17.9 8.65 -17.1 8.5 -15.65 8.35 -14.8 8.2 -13.7 8.05 -13.0 8.0 -12.0 7.9 -11.25 7.8 -10.35 7.75 -10.05 7.7 -9.4 7.65 -8.6 7.6 -7.25 7.55 -7.25 7.55 -7.25 7.55 -6.45 7.5 -6.05 7.5 -5.6 7.5 -4.75 7.55 -3.85 7.6 -3.45 7.6 -1.05 7.65 0.55 7.65 0.9 7.65 2.65 7.6 2.95 7.6 4.3 7.6 6.35 7.55 7.3 7.55 8.3 7.6 9.8 7.65 11.3 7.8 11.85 7.85 12.6 7.9 14.35 8.15 14.4 8.15 14.4 8.15 14.45 8.2 14.5 8.2 14.9 8.9 15.6 10.05 15.6 10.05 15.65 10.1 L15.65 10.1" fill="#000000" fill-rule="evenodd" stroke="none"/>
    <path d="M12.7 0.8 Q10.85 0.25 10.45 0.15 10.3 0.1 10.15 0.1 10.0 0.05 9.85 0.05 9.7 0.0 9.6 0.0 9.45 -0.05 9.3 -0.05 9.15 -0.05 9.0 -0.1 8.85 -0.1 8.7 -0.1 8.55 -0.15 8.4 -0.15 8.25 -0.15 8.15 -0.2 7.95 -0.2 6.15 -0.25 6.05 -0.25 5.95 -0.25 5.85 -0.25 5.75 -0.25 5.6 -0.25 5.5 -0.3 5.4 -0.3 5.3 -0.3 5.2 -0.3 5.1 -0.3 5.0 -0.3 4.9 -0.3 4.8 -0.3 4.7 -0.3 4.55 -0.3 4.45 -0.3 2.95 -0.3 2.1 -0.25 1.75 -0.25 1.1 -0.2 0.45 -0.2 0.15 -0.2 -1.85 -0.15 -4.95 -0.15 -5.15 -0.15 -5.45 -0.15 -5.85 -0.15 -6.0 -0.15 -7.2 -0.1 -8.75 -0.05 -9.0 -0.05 -9.7 0.05 -10.35 0.05 -10.7 0.1 -11.5 0.2 -12.75 0.35 -12.9 0.35 -13.0 0.4 -13.15 0.4 -13.3 0.4 -13.4 0.4 -13.55 0.45 -13.7 0.45 -13.8 0.45 -13.95 0.5 -14.1 0.5 -14.25 0.5 -14.35 0.55 -14.5 0.55 -14.65 0.55 -14.75 0.6 -14.9 0.6 -17.1 0.95 -18.0 1.1 -18.9 1.25 -21.45 1.75 -21.5 1.75 -21.55 1.75 -21.55 1.75 -21.6 1.7 -21.6 1.7 -21.6 1.65 -21.55 1.3 -21.5 0.7 -21.5 0.65 -21.5 0.55 -21.5 0.45 -21.5 0.4 -21.5 0.35 -21.45 0.3 -21.45 0.25 -21.45 0.25 -21.4 0.2 -21.35 0.2 -21.35 0.2 -21.3 0.2 -19.95 -0.1 -19.25 -0.2 -16.75 -0.65 -15.6 -0.8 -14.6 -1.0 -12.75 -1.25 -10.7 -1.5 -10.35 -1.5 -9.7 -1.6 -8.6 -1.65 -7.3 -1.75 -6.35 -1.75 -6.0 -1.75 -4.45 -1.7 -4.35 -1.7 -4.15 -1.7 -3.95 -1.65 -3.85 -1.65 -3.45 -1.65 0.05 -1.65 0.2 -1.65 1.5 -1.65 3.9 -1.75 5.15 -1.7 6.0 -1.7 7.7 -1.6 8.7 -1.55 9.95 -1.4 10.3 -1.35 11.55 -1.15 11.6 -1.15 11.65 -1.15 11.7 -1.1 11.7 -1.05 12.05 -0.5 12.7 0.8 L12.7 0.8" fill="#000000" fill-rule="evenodd" stroke="none"/>
  </g>
</svg>
