<?xml version="1.0" encoding="UTF-8" standalone="no"?>
<svg xmlns:xlink="http://www.w3.org/1999/xlink" height="56.25px" width="42.8px" xmlns="http://www.w3.org/2000/svg">
  <g transform="matrix(1.0, 0.0, 0.0, 1.0, 21.4, 28.1)">
    <path d="M14.75 23.85 Q14.5 23.85 14.25 23.8 14.0 23.8 13.7 23.75 13.45 23.75 13.2 23.7 12.95 23.65 12.7 23.6 12.45 23.55 12.2 23.5 11.95 23.4 11.75 23.35 11.5 23.3 11.25 23.2 11.0 23.1 10.75 23.05 10.4 22.9 10.0 22.8 9.65 22.65 9.25 22.55 8.9 22.45 8.55 22.35 8.15 22.25 7.75 22.15 7.4 22.1 7.0 22.0 6.65 21.95 6.25 21.9 5.85 21.85 5.5 21.8 5.1 21.8 4.7 21.75 4.45 21.75 4.15 21.75 3.9 21.75 3.6 21.75 3.35 21.8 3.1 21.8 2.85 21.85 2.55 21.9 2.3 21.95 2.05 22.0 1.8 22.05 1.5 22.15 1.25 22.2 1.0 22.3 0.75 22.35 0.5 22.45 -0.05 22.65 -0.65 22.8 -1.2 22.95 -1.8 23.05 -2.35 23.15 -2.9 23.25 -3.5 23.35 -4.1 23.4 -4.65 23.45 -5.25 23.5 -5.8 23.5 -6.4 23.5 -6.95 23.5 -7.55 23.5 -8.15 23.5 -8.75 23.45 -13.15 23.15 -16.8 22.85 -17.15 22.8 -17.4 22.8 -17.7 22.75 -18.0 22.7 -18.3 22.65 -18.55 22.55 -18.85 22.5 -19.15 22.4 -19.45 22.35 -19.7 22.2 -20.0 22.1 -20.25 21.95 -20.5 21.85 -20.75 21.65 -21.0 21.5 -21.25 21.3 -21.5 21.1 -21.65 20.9 -21.85 20.7 -22.0 20.45 -22.15 20.25 -22.25 20.0 -22.35 19.8 -22.45 19.55 -22.5 19.3 -22.55 19.05 -22.55 18.8 -22.55 18.55 -22.55 18.25 -22.45 18.0 -22.4 17.75 -22.3 17.45 -22.15 17.0 -21.8 16.3 -21.4 15.45 -21.25 15.2 -19.15 10.15 -19.05 9.9 -18.9 9.5 -18.8 9.1 -18.7 8.7 -18.6 8.3 -18.55 7.95 -18.5 7.5 -18.45 7.1 -18.45 6.7 -18.4 6.3 -18.4 5.9 -18.4 5.5 -18.4 5.05 -18.45 4.7 -18.45 4.25 -18.5 3.85 -18.55 3.45 -18.55 3.45 -18.55 3.4 -18.55 3.4 -18.55 3.4 -18.5 2.9 -18.5 2.4 -18.5 1.95 -18.55 1.45 -18.6 1.0 -18.65 0.5 -18.7 0.05 -18.8 -0.45 -18.85 -0.9 -18.95 -1.4 -19.05 -1.8 -19.15 -2.35 -19.95 -6.35 -19.35 -3.3 -19.45 -3.85 -19.55 -4.25 -19.65 -4.8 -19.7 -5.35 -19.8 -5.9 -19.85 -6.45 -19.9 -7.0 -19.9 -7.55 -19.95 -8.1 -19.95 -8.7 -19.95 -9.2 -19.95 -9.8 -19.95 -10.35 -19.95 -10.9 -19.95 -11.45 -19.9 -12.0 -19.9 -12.55 -19.85 -13.15 -19.7 -15.8 -19.15 -19.8 -19.1 -20.1 -19.0 -20.4 -18.95 -20.7 -18.85 -20.95 -18.7 -21.25 -18.6 -21.5 -18.45 -21.8 -18.3 -22.05 -18.15 -22.3 -18.0 -22.55 -17.85 -22.8 -17.65 -23.05 -17.5 -23.3 -17.25 -23.55 -17.15 -23.75 -16.9 -24.05 -16.65 -24.35 -16.4 -24.65 -16.15 -24.95 -15.85 -25.2 -15.6 -25.45 -15.25 -25.7 -15.0 -25.95 -14.65 -26.2 -14.35 -26.4 -14.05 -26.6 -13.7 -26.8 -13.35 -27.0 -13.05 -27.2 -12.7 -27.4 -12.35 -27.55 -12.0 -27.75 -11.95 -27.75 -11.9 -27.8 -11.85 -27.8 -11.75 -27.8 -11.7 -27.8 -11.65 -27.8 -11.55 -27.8 -11.5 -27.8 -11.4 -27.8 -11.35 -27.8 -11.3 -27.8 -11.25 -27.75 -11.15 -27.75 -11.1 -27.75 -11.05 -27.7 -11.05 -27.7 -10.7 -27.45 -10.35 -27.2 -10.0 -27.0 -9.65 -26.75 -9.3 -26.5 -8.95 -26.3 -8.6 -26.1 -8.25 -25.9 -7.85 -25.7 -7.5 -25.5 -7.15 -25.3 -6.75 -25.1 -6.4 -24.9 -6.0 -24.75 -5.65 -24.55 -5.25 -24.4 -4.95 -24.25 -4.65 -24.15 -4.3 -24.0 -4.0 -23.95 -3.7 -23.85 -3.35 -23.75 -3.05 -23.7 -2.7 -23.65 -2.4 -23.55 -2.05 -23.55 -1.7 -23.5 -1.4 -23.5 -1.05 -23.5 -0.7 -23.55 -0.4 -23.55 -0.05 -23.6 0.0 -23.6 0.1 -23.65 0.15 -23.65 0.25 -23.7 0.3 -23.7 0.4 -23.75 0.45 -23.75 0.55 -23.8 0.6 -23.85 0.65 -23.9 0.75 -23.95 0.8 -23.95 0.85 -24.0 0.95 -24.05 1.0 -24.1 1.05 -24.15 1.2 -24.25 1.3 -24.4 1.45 -24.5 1.55 -24.6 1.65 -24.75 1.8 -24.85 1.9 -25.0 2.05 -25.1 2.15 -25.25 2.25 -25.35 2.4 -25.5 2.5 -25.6 2.6 -25.75 2.7 -25.85 2.8 -26.0 2.95 -26.15 3.0 -26.2 3.05 -26.3 3.1 -26.35 3.15 -26.45 3.15 -26.5 3.2 -26.6 3.25 -26.65 3.3 -26.75 3.3 -26.85 3.35 -26.95 3.4 -27.0 3.4 -27.1 3.45 -27.15 3.45 -27.3 3.5 -27.4 3.55 -27.45 3.6 -27.55 3.6 -27.6 3.65 -27.7 3.7 -27.75 3.7 -27.85 3.75 -27.9 3.8 -27.95 3.85 -28.0 3.9 -28.05 4.0 -28.05 4.05 -28.1 4.1 -28.1 4.2 -28.15 4.25 -28.1 4.35 -28.1 4.45 -28.1 4.95 -28.0 5.4 -27.85 5.9 -27.7 6.35 -27.55 6.8 -27.4 7.25 -27.2 7.7 -27.0 8.1 -26.75 8.5 -26.5 8.85 -26.25 9.25 -25.95 9.6 -25.65 9.95 -25.3 10.2 -24.9 10.5 -24.55 10.75 -24.1 11.0 -23.6 11.25 -23.2 11.5 -22.7 11.7 -22.3 11.95 -21.8 12.15 -21.4 12.35 -20.9 12.55 -20.45 12.75 -19.95 12.95 -19.5 13.1 -19.0 13.25 -18.55 13.4 -18.05 13.55 -17.55 13.65 -17.05 13.75 -16.55 14.8 -10.45 15.35 -7.5 17.35 2.7 18.35 7.2 18.45 7.65 18.55 8.1 18.7 8.55 18.8 9.0 18.95 9.4 19.15 9.85 19.3 10.3 19.5 10.7 19.65 11.1 19.85 11.55 20.05 11.95 20.3 12.35 20.5 12.75 20.7 13.15 20.95 13.55 21.2 13.95 21.3 14.15 21.4 14.3 21.5 14.45 21.6 14.6 21.7 14.8 21.75 14.95 21.85 15.15 21.95 15.3 22.0 15.45 22.1 15.65 22.15 15.8 22.25 16.0 22.3 16.15 22.35 16.35 22.45 16.5 22.5 16.7 22.55 16.95 22.6 17.2 22.65 17.5 22.65 17.75 22.65 18.0 22.6 18.25 22.6 18.5 22.5 18.75 22.45 19.0 22.35 19.2 22.25 19.45 22.15 19.65 22.0 19.9 21.85 20.1 21.7 20.3 21.55 20.5 21.3 20.8 21.0 21.05 20.7 21.3 20.4 21.55 20.1 21.8 19.8 22.0 19.5 22.25 19.2 22.45 18.85 22.65 18.5 22.8 18.2 23.0 17.85 23.15 17.5 23.3 17.1 23.4 16.75 23.55 16.4 23.65 16.4 23.65 14.75 23.85 L14.75 23.85 M8.3 19.9 Q8.3 19.95 8.25 19.95 8.25 20.0 8.25 20.05 8.3 20.1 8.35 20.1 8.4 20.15 8.45 20.2 8.5 20.2 8.6 20.25 8.65 20.3 8.7 20.3 8.75 20.35 8.8 20.35 8.85 20.4 8.9 20.45 8.95 20.45 9.05 20.5 9.1 20.5 9.15 20.55 11.85 21.4 12.3 21.45 12.8 21.55 13.25 21.6 13.75 21.65 14.2 21.7 14.7 21.7 15.15 21.65 15.6 21.65 16.05 21.55 16.5 21.5 16.95 21.35 17.4 21.25 17.85 21.05 18.25 20.85 18.7 20.6 19.1 20.35 19.5 20.05 19.75 19.85 20.0 19.6 20.2 19.4 20.35 19.15 20.5 18.9 20.65 18.65 20.75 18.4 20.8 18.15 20.85 17.9 20.85 17.6 20.85 17.35 20.8 17.05 20.7 16.8 20.6 16.5 20.5 16.2 20.3 15.9 20.15 15.6 19.55 14.65 19.1 13.9 18.85 13.4 18.8 13.3 18.75 13.25 18.7 13.2 18.65 13.15 18.6 13.05 18.55 13.0 18.5 13.0 18.45 12.95 18.4 12.9 18.35 12.9 18.25 12.85 18.2 12.85 18.15 12.8 18.05 12.8 18.0 12.8 17.9 12.8 17.9 12.8 16.2 12.65 15.2 12.6 14.5 12.6 2.25 12.5 -1.5 12.6 -2.6 12.65 -3.65 12.65 -4.75 12.7 -5.8 12.8 -6.85 12.85 -7.95 12.95 -9.0 13.05 -10.1 13.15 -11.15 13.25 -12.25 13.4 -13.3 13.5 -14.35 13.65 -15.45 13.8 -16.5 13.95 -17.55 14.15 -18.65 14.35 -18.7 14.35 -18.7 14.35 -18.75 14.4 -18.8 14.4 -18.85 14.45 -18.9 14.45 -18.9 14.5 -18.95 14.5 -19.0 14.55 -19.0 14.6 -20.15 16.95 -20.6 17.95 -20.65 18.1 -20.7 18.25 -20.75 18.4 -20.8 18.55 -20.8 18.7 -20.8 18.8 -20.8 18.95 -20.75 19.05 -20.7 19.2 -20.65 19.3 -20.6 19.45 -20.5 19.55 -20.4 19.65 -20.3 19.75 -20.2 19.9 -20.05 20.0 -19.9 20.1 -19.75 20.25 -19.6 20.35 -19.4 20.4 -19.25 20.5 -19.1 20.55 -18.9 20.65 -18.75 20.7 -18.6 20.75 -18.4 20.8 -18.2 20.85 -18.05 20.9 -17.85 20.9 -17.65 20.95 -17.5 20.95 -17.3 20.95 -10.35 21.55 -6.55 21.7 -6.25 21.7 -5.95 21.7 -5.7 21.7 -5.4 21.7 -5.1 21.7 -4.8 21.65 -4.5 21.65 -4.2 21.6 -3.95 21.6 -3.65 21.55 -3.35 21.5 -3.05 21.45 -2.8 21.45 -2.5 21.35 -2.2 21.35 -1.95 21.25 0.15 20.9 4.0 19.8 9.05 18.4 10.65 18.2 10.7 18.2 13.05 18.0 13.05 18.05 13.05 18.1 12.7 18.2 11.85 18.5 11.05 18.75 10.65 18.9 10.15 19.1 9.45 19.4 8.35 19.85 8.3 19.9 L8.3 19.9 M-16.5 1.8 Q-14.6 1.5 -12.6 1.3 -10.7 1.1 -8.65 0.9 -6.75 0.8 -4.75 0.7 -2.85 0.6 -0.8 0.55 1.1 0.5 3.15 0.5 5.0 0.45 7.1 0.5 8.85 0.5 11.1 0.55 12.3 0.55 15.05 0.6 15.05 0.55 15.05 0.4 15.0 0.25 15.0 0.2 13.85 -5.9 13.75 -6.5 13.75 -6.6 13.7 -6.65 13.7 -6.75 13.7 -6.8 13.65 -6.85 13.65 -6.9 13.6 -6.95 13.55 -7.0 13.5 -7.0 13.45 -7.05 13.4 -7.05 13.35 -7.1 13.3 -7.1 13.25 -7.1 13.15 -7.1 13.05 -7.1 11.95 -7.1 10.25 -7.1 7.95 -7.15 7.4 -7.15 7.35 -7.15 6.85 -7.1 6.85 -6.9 6.85 -6.55 6.85 -6.15 6.85 -6.05 6.85 -5.95 6.85 -5.9 6.8 -5.8 6.8 -5.75 6.75 -5.65 6.75 -5.6 6.7 -5.5 6.65 -5.45 6.6 -5.4 6.55 -5.35 6.5 -5.3 6.45 -5.25 6.4 -5.2 6.3 -5.2 6.25 -5.15 6.15 -5.15 5.85 -5.1 5.6 -5.05 5.3 -5.0 5.05 -4.95 4.75 -4.95 4.45 -4.9 4.2 -4.85 3.9 -4.8 3.6 -4.75 3.35 -4.75 3.05 -4.7 2.75 -4.65 2.5 -4.6 2.2 -4.6 1.9 -4.55 1.65 -4.5 1.55 -4.5 1.4 -4.5 1.3 -4.5 1.2 -4.55 1.1 -4.55 1.05 -4.6 0.95 -4.65 0.9 -4.7 0.8 -4.75 0.75 -4.85 0.7 -4.95 0.65 -5.0 0.6 -5.1 0.6 -5.25 0.55 -5.35 0.55 -5.45 0.5 -6.35 0.5 -6.5 0.5 -6.6 0.5 -6.7 0.5 -6.8 0.5 -6.85 0.5 -6.9 0.45 -6.95 0.4 -7.0 0.35 -7.05 0.35 -7.1 0.25 -7.1 0.2 -7.15 0.15 -7.15 0.05 -7.15 -0.05 -7.15 -0.1 -7.15 -0.2 -7.15 -1.15 -7.1 -6.75 -6.75 -10.75 -6.5 -13.3 -6.3 -13.55 -6.3 -17.95 -5.7 -17.95 -5.65 -17.95 -5.45 -17.95 -5.3 -17.9 -5.25 -17.8 -4.8 -17.5 -3.45 -17.2 -2.35 -17.1 -1.65 -17.0 -1.1 -16.5 1.8 L-16.5 1.8 M17.2 9.95 Q16.95 8.9 16.45 6.8 15.95 4.75 15.7 3.65 15.7 3.65 15.65 3.6 15.65 3.6 15.65 3.55 15.6 3.55 15.55 3.5 15.55 3.5 15.5 3.45 15.5 3.45 15.45 3.45 15.4 3.4 15.4 3.4 15.35 3.4 15.3 3.4 15.3 3.4 15.25 3.4 15.15 3.4 15.05 3.4 14.95 3.35 14.85 3.35 14.7 3.35 14.6 3.35 14.5 3.35 14.4 3.3 14.25 3.3 14.15 3.3 14.05 3.3 13.95 3.3 13.8 3.3 13.7 3.3 13.6 3.3 13.45 3.3 11.25 3.25 10.05 3.25 8.15 3.25 6.65 3.2 4.85 3.2 3.25 3.2 1.45 3.25 -0.15 3.25 -1.9 3.3 -3.55 3.35 -5.3 3.45 -6.95 3.55 -8.7 3.65 -10.35 3.8 -12.1 3.95 -13.75 4.15 -14.3 4.2 -15.2 4.35 -16.3 4.5 -16.7 4.55 -16.65 5.0 -16.65 5.45 -16.65 5.9 -16.65 6.3 -16.7 6.75 -16.7 7.2 -16.75 7.6 -16.8 8.05 -16.9 8.45 -16.95 8.9 -17.05 9.3 -17.15 9.75 -17.3 10.15 -17.4 10.6 -17.55 11.0 -17.7 11.45 -15.55 11.1 -13.35 10.8 -11.2 10.55 -9.0 10.35 -6.85 10.15 -4.6 10.0 -2.5 9.9 -0.25 9.85 1.8 9.8 4.1 9.75 6.15 9.75 8.45 9.8 10.45 9.8 12.8 9.85 14.5 9.85 17.2 9.95 L17.2 9.95 M-0.45 -14.75 Q-0.6 -14.8 -0.85 -14.9 -1.1 -15.0 -1.2 -15.05 -2.25 -15.55 -3.85 -16.3 -6.15 -17.4 -6.5 -17.55 -6.55 -17.55 -6.55 -17.6 -6.6 -17.6 -6.65 -17.6 -6.7 -17.6 -6.75 -17.65 -6.75 -17.65 -6.8 -17.65 -6.85 -17.65 -6.9 -17.65 -6.95 -17.7 -7.0 -17.7 -7.0 -17.7 -7.05 -17.7 -7.1 -17.7 -7.15 -17.7 -14.1 -16.95 -17.35 -16.6 -17.4 -16.6 -17.45 -16.6 -17.55 -16.6 -17.6 -16.55 -17.65 -16.55 -17.65 -16.55 -17.7 -16.5 -17.75 -16.5 -17.75 -16.45 -17.8 -16.4 -17.8 -16.35 -17.85 -16.3 -17.85 -16.3 -17.85 -16.2 -17.85 -16.15 -17.85 -16.1 -18.05 -11.55 -18.15 -8.65 -18.15 -8.6 -18.15 -8.55 -18.1 -8.45 -18.1 -8.4 -16.95 -8.55 -15.8 -8.75 -14.65 -8.9 -13.5 -9.0 -12.4 -9.15 -11.2 -9.25 -10.1 -9.35 -8.95 -9.45 -7.8 -9.55 -6.6 -9.6 -5.5 -9.7 -4.3 -9.75 -3.15 -9.8 -2.0 -9.85 -0.85 -9.85 0.3 -9.9 0.05 -11.55 -0.45 -14.75 L-0.45 -14.75 M5.55 -16.4 Q5.55 -16.35 5.55 -16.25 5.55 -16.2 5.6 -16.2 5.7 -15.85 5.8 -15.5 5.9 -15.1 6.0 -14.75 6.05 -14.4 6.15 -14.0 6.2 -13.65 6.3 -13.3 6.35 -12.95 6.4 -12.55 6.45 -12.2 6.5 -11.85 6.55 -11.45 6.6 -11.1 6.6 -10.7 6.65 -10.35 6.65 -10.3 6.65 -10.2 6.65 -10.15 6.7 -10.1 6.7 -10.05 6.75 -10.05 6.75 -10.0 6.8 -9.95 6.8 -9.95 6.85 -9.9 6.9 -9.9 6.95 -9.9 7.0 -9.9 7.05 -9.9 7.1 -9.85 7.2 -9.85 8.55 -9.85 12.5 -9.85 12.65 -9.85 13.15 -9.85 13.1 -10.05 13.05 -10.45 13.0 -10.8 12.95 -11.0 12.7 -12.2 12.35 -14.2 11.85 -16.75 11.7 -17.4 11.7 -17.5 11.65 -17.55 11.65 -17.6 11.65 -17.65 11.6 -17.7 11.6 -17.75 11.55 -17.8 11.5 -17.85 11.45 -17.85 11.4 -17.9 11.35 -17.9 11.3 -17.95 11.25 -17.95 11.2 -17.95 11.1 -17.95 11.05 -17.95 10.95 -17.95 10.85 -17.95 10.75 -17.95 10.65 -17.95 10.55 -17.95 10.4 -17.95 10.3 -17.95 10.2 -17.95 10.1 -17.95 10.0 -17.95 9.9 -17.95 9.8 -17.95 9.7 -17.95 9.6 -17.95 9.5 -17.95 9.4 -18.0 9.3 -18.0 9.2 -18.0 9.1 -18.0 9.0 -18.0 8.9 -17.95 8.8 -17.95 8.7 -17.95 8.65 -17.9 8.55 -17.85 8.5 -17.8 8.4 -17.75 8.3 -17.7 8.25 -17.65 8.2 -17.55 8.1 -17.5 8.05 -17.4 7.95 -17.2 7.2 -16.55 7.1 -16.45 7.0 -16.4 6.9 -16.35 6.8 -16.25 6.75 -16.2 6.65 -16.2 6.55 -16.15 6.45 -16.15 6.35 -16.1 6.2 -16.1 6.1 -16.1 6.0 -16.15 5.9 -16.2 5.8 -16.25 5.7 -16.3 5.55 -16.4 L5.55 -16.4 M-1.4 -21.75 Q-1.4 -21.75 -3.45 -22.15 -4.7 -22.4 -5.5 -22.7 -5.9 -22.8 -6.25 -22.95 -6.6 -23.1 -7.0 -23.25 -7.35 -23.4 -7.7 -23.6 -8.1 -23.75 -8.45 -23.95 -8.8 -24.15 -9.15 -24.35 -9.45 -24.55 -9.8 -24.75 -10.15 -25.0 -10.5 -25.2 -10.8 -25.45 -11.15 -25.7 -11.2 -25.7 -11.25 -25.75 -11.3 -25.8 -11.35 -25.8 -11.4 -25.8 -11.45 -25.85 -11.5 -25.85 -11.55 -25.9 -11.6 -25.9 -11.65 -25.9 -11.7 -25.95 -11.75 -25.95 -11.8 -25.95 -11.8 -25.95 -11.85 -25.95 -11.9 -25.9 -12.4 -25.6 -14.85 -24.0 -10.25 -21.65 -1.4 -16.95 -1.4 -18.7 -1.4 -21.75 L-1.4 -21.75 M6.4 -18.2 Q7.0 -18.85 7.1 -19.0 7.25 -19.25 7.4 -19.5 7.55 -19.75 7.7 -20.0 7.85 -20.25 7.95 -20.55 8.05 -20.8 8.15 -21.05 8.25 -21.35 8.35 -21.6 8.45 -21.9 8.55 -22.2 8.6 -22.45 8.7 -22.75 8.75 -23.0 8.8 -23.3 8.8 -23.35 8.8 -23.4 8.8 -23.4 8.8 -23.45 8.85 -23.5 8.8 -23.55 8.8 -23.6 8.8 -23.6 8.8 -23.65 8.8 -23.7 8.8 -23.75 8.8 -23.75 8.75 -23.8 8.75 -23.85 8.75 -23.85 8.7 -23.9 8.5 -24.1 8.3 -24.3 8.15 -24.5 7.9 -24.65 7.7 -24.85 7.5 -25.0 7.3 -25.15 7.05 -25.3 6.8 -25.45 6.6 -25.6 6.35 -25.7 6.1 -25.8 5.85 -25.95 5.55 -26.05 5.3 -26.15 5.05 -26.2 4.9 -25.9 4.75 -25.6 4.6 -25.35 4.4 -25.1 4.2 -24.85 4.0 -24.6 3.8 -24.4 3.55 -24.15 3.35 -23.95 3.1 -23.7 2.9 -23.55 2.65 -23.3 -0.7 -20.4 2.15 -22.9 1.9 -22.65 1.7 -22.45 3.25 -21.05 6.4 -18.2 L6.4 -18.2 M17.95 11.75 Q17.9 11.6 17.9 11.5 17.85 11.4 17.85 11.35 17.8 11.25 17.8 11.2 17.75 11.15 17.75 11.15 17.7 11.1 17.65 11.05 17.6 11.05 17.5 11.05 17.45 11.0 17.35 11.0 17.3 11.0 17.15 11.0 15.2 10.85 14.3 10.85 5.5 10.75 4.55 10.75 -1.0 10.75 -5.25 11.05 -12.6 11.55 -17.6 12.4 -17.7 12.4 -17.8 12.45 -17.85 12.5 -17.95 12.5 -18.0 12.55 -18.05 12.6 -18.15 12.65 -18.15 12.7 -18.2 12.75 -18.25 12.8 -18.3 12.9 -18.3 12.95 -18.35 13.05 -18.35 13.1 -18.4 13.2 -18.4 13.3 -16.2 12.9 -13.85 12.6 -11.65 12.3 -9.35 12.1 -7.15 11.9 -4.8 11.75 -2.6 11.65 -0.25 11.6 1.95 11.5 4.3 11.5 6.45 11.5 8.85 11.55 10.95 11.55 13.4 11.6 15.35 11.65 17.95 11.75 L17.95 11.75 M15.25 1.6 Q12.7 1.55 11.25 1.5 9.0 1.5 7.2 1.45 5.1 1.45 3.2 1.45 1.1 1.5 -0.8 1.5 -2.9 1.6 -4.8 1.65 -6.85 1.75 -8.8 1.9 -10.85 2.1 -12.8 2.3 -14.85 2.55 -16.8 2.85 -16.8 3.1 -16.75 3.6 -14.8 3.3 -12.75 3.05 -10.8 2.85 -8.7 2.7 -6.8 2.55 -4.7 2.45 -2.8 2.35 -0.7 2.3 1.2 2.25 3.3 2.25 5.2 2.2 7.35 2.25 9.15 2.25 11.35 2.3 12.75 2.3 15.4 2.35 15.35 2.15 15.25 1.6 L15.25 1.6 M0.35 -8.15 Q0.35 -8.3 0.35 -8.4 0.4 -8.5 0.4 -8.6 0.4 -8.65 0.35 -8.75 0.35 -8.8 0.35 -8.8 0.3 -8.85 0.25 -8.85 0.2 -8.9 0.15 -8.9 0.05 -8.9 -0.05 -8.9 -0.1 -8.9 -0.25 -8.9 -11.8 -8.15 -13.3 -8.05 -13.55 -8.05 -18.05 -7.4 -18.05 -7.1 -18.05 -6.65 -16.9 -6.8 -15.75 -7.0 -14.6 -7.15 -13.45 -7.25 -12.3 -7.4 -11.15 -7.5 -10.0 -7.6 -8.85 -7.7 -7.7 -7.8 -6.55 -7.85 -5.4 -7.95 -4.25 -8.0 -3.1 -8.05 -1.95 -8.1 -0.8 -8.15 0.35 -8.15 L0.35 -8.15 M-11.25 -20.1 Q-13.7 -21.45 -15.2 -22.25 -15.25 -22.25 -15.3 -22.3 -15.3 -22.3 -15.35 -22.3 -15.4 -22.3 -15.45 -22.25 -15.5 -22.25 -15.55 -22.25 -15.6 -22.2 -15.6 -22.2 -15.75 -22.05 -15.9 -21.9 -16.0 -21.75 -16.15 -21.6 -16.25 -21.45 -16.35 -21.25 -16.45 -21.1 -16.55 -20.95 -16.65 -20.75 -16.75 -20.55 -16.85 -20.4 -16.9 -20.2 -17.0 -20.0 -17.05 -19.8 -17.15 -19.65 -17.2 -19.4 -15.2 -19.65 -11.25 -20.1 L-11.25 -20.1 M-8.5 -18.6 Q-8.5 -18.65 -8.45 -18.7 -8.45 -18.75 -8.45 -18.8 -8.55 -18.8 -8.65 -18.85 -8.7 -18.9 -8.8 -18.9 -8.85 -18.9 -9.0 -19.0 -9.15 -19.05 -9.2 -19.05 -9.3 -19.1 -9.4 -19.1 -9.5 -19.15 -9.6 -19.15 -9.7 -19.2 -9.75 -19.2 -9.85 -19.2 -9.95 -19.2 -11.3 -19.1 -13.4 -18.85 -16.4 -18.5 -16.9 -18.45 -17.0 -18.45 -17.1 -18.4 -17.15 -18.4 -17.25 -18.35 -17.3 -18.35 -17.35 -18.3 -17.4 -18.25 -17.45 -18.2 -17.5 -18.15 -17.55 -18.1 -17.55 -18.05 -17.6 -17.95 -17.6 -17.9 -17.6 -17.8 -17.6 -17.75 -17.6 -17.65 -14.55 -17.95 -8.5 -18.6 L-8.5 -18.6 M6.85 -8.9 Q6.8 -8.8 6.8 -8.7 6.8 -8.6 6.8 -8.5 6.8 -8.45 6.8 -8.35 6.8 -8.3 6.85 -8.25 6.9 -8.2 6.95 -8.2 7.0 -8.15 7.05 -8.15 7.15 -8.15 7.25 -8.15 7.3 -8.1 7.4 -8.1 8.05 -8.1 11.25 -8.1 12.25 -8.1 13.4 -8.1 13.4 -8.2 13.4 -8.3 13.4 -8.35 13.4 -8.45 13.4 -8.5 13.4 -8.6 13.35 -8.65 13.3 -8.7 13.3 -8.75 13.25 -8.75 13.2 -8.8 13.1 -8.8 13.05 -8.85 12.95 -8.85 12.85 -8.85 12.75 -8.85 11.9 -8.85 10.6 -8.85 8.7 -8.9 8.45 -8.9 8.3 -8.9 6.85 -8.9 L6.85 -8.9 M4.5 -12.6 Q4.55 -12.6 4.65 -12.65 4.35 -13.8 3.75 -16.25 3.0 -15.4 1.65 -13.85 2.7 -13.4 4.5 -12.6 L4.5 -12.6 M2.15 -9.15 Q2.9 -10.05 4.2 -11.65 3.35 -12.0 1.7 -12.75 1.85 -11.55 2.15 -9.15 L2.15 -9.15 M0.45 -21.1 Q0.45 -20.3 0.45 -18.75 1.3 -18.45 3.1 -17.8 3.0 -18.05 2.9 -18.35 2.8 -18.6 2.65 -18.8 2.55 -19.05 2.4 -19.25 2.25 -19.5 2.05 -19.7 1.9 -19.9 1.7 -20.1 1.5 -20.25 1.3 -20.45 1.1 -20.6 0.9 -20.8 0.7 -20.95 0.45 -21.1 L0.45 -21.1 M4.9 -10.7 Q4.85 -10.7 4.75 -10.75 4.15 -10.05 2.9 -8.55 3.55 -8.15 5.05 -7.25 5.0 -8.5 4.9 -10.7 L4.9 -10.7 M1.3 -14.95 Q1.85 -15.6 2.9 -16.8 2.2 -17.05 0.7 -17.6 0.9 -16.7 1.3 -14.95 L1.3 -14.95 M2.3 -6.3 Q3.0 -6.35 4.15 -6.5 4.15 -6.55 4.2 -6.6 4.2 -6.6 4.2 -6.65 3.55 -7.0 2.2 -7.8 2.25 -7.25 2.3 -6.3 L2.3 -6.3 M9.2 -18.95 Q9.85 -18.95 11.1 -18.95 11.15 -19.0 11.25 -19.1 11.2 -19.15 11.15 -19.2 11.15 -19.2 11.1 -19.25 11.05 -19.3 11.0 -19.35 10.95 -19.4 10.95 -19.45 10.9 -19.5 10.85 -19.55 10.8 -19.55 10.8 -19.6 10.75 -19.65 10.7 -19.65 10.65 -19.65 10.6 -19.7 10.4 -19.75 10.25 -19.75 10.1 -19.75 10.0 -19.75 9.9 -19.75 9.8 -19.75 9.7 -19.75 9.65 -19.7 9.55 -19.65 9.5 -19.6 9.45 -19.55 9.4 -19.45 9.35 -19.35 9.3 -19.25 9.25 -19.15 9.2 -18.95 L9.2 -18.95" fill="#000000" fill-rule="evenodd" stroke="none"/>
    <path d="M17.95 11.75 Q15.35 11.65 13.4 11.6 10.95 11.55 8.85 11.55 6.45 11.5 4.3 11.5 1.95 11.55 -0.25 11.6 -2.6 11.65 -4.8 11.8 -7.15 11.9 -9.35 12.1 -11.65 12.3 -13.85 12.6 -16.2 12.9 -18.4 13.3 -18.4 13.2 -18.35 13.1 -18.35 13.05 -18.3 12.95 -18.3 12.9 -18.25 12.8 -18.2 12.75 -18.15 12.7 -18.1 12.65 -18.05 12.6 -18.0 12.55 -17.95 12.5 -17.85 12.5 -17.8 12.45 -17.7 12.45 -17.6 12.4 -12.65 11.55 -5.25 11.05 -1.05 10.75 4.55 10.75 4.4 10.75 14.3 10.85 15.1 10.85 17.15 11.0 17.3 11.0 17.35 11.0 17.45 11.0 17.5 11.05 17.6 11.05 17.65 11.05 17.7 11.1 17.75 11.15 17.75 11.15 17.8 11.2 17.85 11.25 17.85 11.35 17.9 11.4 17.9 11.5 17.9 11.55 17.95 11.75 L17.95 11.75" fill="#000000" fill-opacity="0.18039216" fill-rule="evenodd" stroke="none"/>
    <path d="M15.25 1.6 Q15.3 1.9 15.4 2.35 12.75 2.3 11.35 2.3 9.15 2.25 7.35 2.25 5.2 2.2 3.35 2.25 1.2 2.25 -0.7 2.3 -2.75 2.35 -4.7 2.45 -6.8 2.55 -8.7 2.7 -10.8 2.85 -12.75 3.05 -14.8 3.3 -16.75 3.6 -16.75 3.35 -16.8 2.85 -14.85 2.55 -12.8 2.3 -10.85 2.1 -8.8 1.95 -6.85 1.75 -4.8 1.65 -2.9 1.6 -0.8 1.5 1.1 1.5 3.2 1.45 5.05 1.45 7.2 1.45 9.0 1.5 11.25 1.5 12.65 1.55 15.25 1.6 L15.25 1.6" fill="#000000" fill-opacity="0.18039216" fill-rule="evenodd" stroke="none"/>
    <path d="M0.35 -8.15 Q-0.8 -8.15 -1.95 -8.1 -3.1 -8.05 -4.25 -8.0 -5.4 -7.95 -6.55 -7.9 -7.7 -7.8 -8.85 -7.7 -10.0 -7.6 -11.15 -7.5 -12.3 -7.4 -13.45 -7.25 -14.6 -7.15 -15.75 -7.0 -16.9 -6.85 -18.05 -6.65 -18.05 -6.9 -18.05 -7.4 -14.1 -8.0 -13.3 -8.05 -10.4 -8.25 -0.25 -8.9 -0.1 -8.9 -0.05 -8.9 0.05 -8.9 0.15 -8.9 0.2 -8.9 0.25 -8.85 0.3 -8.85 0.35 -8.8 0.35 -8.8 0.35 -8.75 0.4 -8.65 0.4 -8.6 0.4 -8.5 0.4 -8.4 0.4 -8.3 0.35 -8.15 L0.35 -8.15" fill="#000000" fill-opacity="0.18039216" fill-rule="evenodd" stroke="none"/>
    <path d="M-8.5 -18.6 Q-11.5 -18.3 -17.6 -17.65 -17.6 -17.75 -17.6 -17.85 -17.6 -17.9 -17.6 -18.0 -17.55 -18.05 -17.55 -18.1 -17.5 -18.15 -17.45 -18.2 -17.4 -18.25 -17.35 -18.3 -17.3 -18.35 -17.25 -18.35 -17.15 -18.4 -17.1 -18.4 -17.0 -18.45 -16.9 -18.45 -16.55 -18.5 -13.45 -18.85 -11.35 -19.1 -9.95 -19.2 -9.85 -19.2 -9.75 -19.2 -9.7 -19.2 -9.6 -19.15 -9.5 -19.15 -9.4 -19.1 -9.3 -19.1 -9.2 -19.05 -9.1 -19.05 -9.0 -19.0 -8.65 -18.85 -8.8 -18.9 -8.7 -18.85 -8.65 -18.85 -8.55 -18.8 -8.45 -18.8 -8.45 -18.75 -8.5 -18.6 L-8.5 -18.6" fill="#000000" fill-opacity="0.18039216" fill-rule="evenodd" stroke="none"/>
    <path d="M6.85 -8.9 Q8.1 -8.9 8.45 -8.9 12.55 -8.85 12.75 -8.85 12.85 -8.85 12.95 -8.85 13.05 -8.85 13.1 -8.8 13.2 -8.8 13.25 -8.75 13.3 -8.75 13.3 -8.7 13.35 -8.65 13.4 -8.6 13.4 -8.5 13.4 -8.45 13.4 -8.4 13.4 -8.3 13.4 -8.2 13.4 -8.1 13.3 -8.1 11.25 -8.1 8.25 -8.15 7.4 -8.1 7.3 -8.1 7.2 -8.1 7.15 -8.1 7.05 -8.15 7.0 -8.15 6.95 -8.2 6.9 -8.2 6.85 -8.25 6.8 -8.3 6.8 -8.35 6.75 -8.45 6.75 -8.5 6.75 -8.6 6.8 -8.7 6.8 -8.8 6.85 -8.9 L6.85 -8.9" fill="#000000" fill-opacity="0.18039216" fill-rule="evenodd" stroke="none"/>
    <path d="M9.2 -18.95 Q9.25 -19.15 9.3 -19.25 9.35 -19.35 9.4 -19.45 9.45 -19.55 9.5 -19.6 9.55 -19.65 9.65 -19.7 9.7 -19.75 9.8 -19.75 9.9 -19.75 10.0 -19.75 10.1 -19.75 10.25 -19.75 10.4 -19.7 10.6 -19.7 10.65 -19.7 11.25 -19.1 11.2 -19.05 11.15 -19.05 11.15 -19.0 11.1 -18.95 10.5 -18.95 9.2 -18.95 L9.2 -18.95" fill="#000000" fill-opacity="0.18039216" fill-rule="evenodd" stroke="none"/>
  </g>
</svg>
