<?xml version="1.0" encoding="UTF-8" standalone="no"?>
<svg xmlns:xlink="http://www.w3.org/1999/xlink" height="200.0px" width="200.0px" xmlns="http://www.w3.org/2000/svg">
  <g transform="matrix(1.0, 0.0, 0.0, 1.0, 100.0, 100.0)">
    <path d="M-11.85 -24.75 Q-11.8 -24.9 -11.75 -25.05 -11.7 -25.25 -11.65 -25.4 -11.6 -25.55 -11.55 -25.7 -11.5 -25.8 -11.5 -25.95 -11.45 -26.1 -11.4 -26.2 -11.4 -26.35 -11.35 -26.45 -11.35 -26.6 -11.3 -26.7 -11.3 -26.8 -11.25 -26.9 -11.2 -27.05 -11.2 -27.2 -11.15 -27.6 -11.15 -27.5 -11.1 -27.65 -11.1 -27.7 -11.05 -27.85 -11.05 -27.95 -11.0 -28.05 -11.0 -28.1 -10.95 -28.2 -10.9 -28.3 -10.85 -28.35 -10.8 -28.4 -10.75 -28.5 -10.7 -28.55 -10.65 -28.6 -10.55 -28.65 -10.45 -28.7 -10.4 -28.7 -10.3 -28.75 -10.2 -28.75 -10.1 -28.8 -10.05 -28.8 -9.95 -28.8 -9.85 -28.8 -9.75 -28.8 -9.65 -28.8 -9.6 -28.75 -9.5 -28.75 -9.4 -28.75 -9.3 -28.75 -9.0 -28.7 -8.65 -28.65 -8.4 -28.55 -8.1 -28.5 -7.8 -28.4 -7.55 -28.35 -7.3 -28.25 -7.1 -28.2 -6.9 -28.1 -6.65 -28.0 -6.5 -27.95 -6.35 -27.9 -6.2 -27.85 -6.1 -27.8 -6.1 -27.8 -5.95 -27.7 -5.45 -27.45 -4.85 -27.3 -4.35 -27.15 -3.8 -27.1 -3.25 -27.0 -2.75 -27.0 -2.25 -27.0 -1.75 -27.0 -1.3 -27.05 -0.9 -27.1 -0.55 -27.15 -0.15 -27.2 0.1 -27.25 0.35 -27.3 0.5 -27.35 0.7 -27.4 1.1 -27.5 1.5 -27.65 1.8 -27.75 2.15 -27.95 2.4 -28.05 2.75 -28.2 3.5 -28.6 3.25 -28.45 3.5 -28.6 3.7 -28.65 3.9 -28.75 4.1 -28.8 4.25 -28.8 4.4 -28.8 4.55 -28.75 4.7 -28.65 4.8 -28.6 4.9 -28.5 4.95 -28.4 5.0 -28.25 5.05 -28.15 5.1 -28.0 5.1 -27.9 5.15 -27.65 5.2 -27.45 5.25 -27.3 5.3 -27.05 5.35 -26.85 5.45 -26.6 5.55 -26.35 5.65 -26.05 5.8 -25.75 6.1 -25.25 6.75 -24.4 6.95 -24.15 7.2 -23.85 7.4 -23.6 7.6 -23.35 7.8 -23.15 8.0 -22.95 8.2 -22.75 8.4 -22.55 8.55 -22.4 8.7 -22.2 8.85 -22.1 9.0 -21.95 9.15 -21.85 9.25 -21.7 9.45 -21.55 9.45 -21.55 9.75 -21.3 10.0 -21.0 10.3 -20.75 10.55 -20.45 10.75 -20.2 11.0 -19.9 11.2 -19.65 11.4 -19.35 11.6 -19.1 11.8 -18.8 12.0 -18.55 12.15 -18.25 12.3 -18.0 12.5 -17.7 12.6 -17.55 12.85 -17.15 13.2 -16.6 13.45 -16.05 13.7 -15.5 13.9 -14.95 14.1 -14.4 14.3 -13.8 14.45 -13.2 14.6 -12.5 14.7 -11.9 14.8 -11.15 14.9 -10.45 15.0 -9.6 15.1 -8.85 15.2 -7.85 15.25 -7.25 15.35 -5.9 15.5 -4.3 15.5 -3.15 15.55 -0.8 15.55 -1.6 15.55 -0.75 15.75 0.45 15.8 0.8 15.85 1.1 15.9 1.55 16.0 2.05 16.1 2.6 16.2 3.2 16.35 3.85 16.5 4.45 16.65 5.15 16.85 5.8 17.05 6.5 17.3 7.15 17.55 7.8 17.8 8.4 18.15 9.0 18.45 9.5 18.5 9.55 18.5 9.6 18.55 9.65 18.6 9.75 18.7 9.8 18.75 9.9 18.8 10.0 18.9 10.1 18.95 10.25 19.05 10.35 19.1 10.5 19.2 10.65 19.3 10.8 19.35 10.95 19.45 11.15 19.55 11.3 20.25 13.15 20.4 13.9 20.45 14.1 20.5 14.3 20.55 14.5 20.6 14.75 20.65 14.95 20.7 15.2 20.75 15.45 20.75 15.7 20.8 16.0 20.85 16.25 20.85 16.55 20.9 16.85 20.9 17.15 20.95 17.5 20.95 17.8 20.95 18.15 20.85 18.25 20.75 18.3 20.65 18.35 20.55 18.45 20.45 18.55 20.35 18.6 20.25 18.7 20.1 18.8 20.0 18.9 19.85 18.95 19.7 19.05 19.55 19.15 19.4 19.25 19.25 19.35 19.1 19.45 18.95 19.55 18.65 19.75 18.3 19.9 18.0 20.05 17.7 20.2 17.45 20.35 17.15 20.5 16.85 20.6 16.6 20.7 16.35 20.8 16.1 20.9 15.85 20.95 15.65 21.05 15.45 21.1 15.2 21.15 15.1 21.2 14.85 21.3 7.1 23.55 6.9 23.55 6.15 23.7 5.45 23.8 4.75 23.9 4.1 23.95 3.45 24.0 2.8 24.05 2.2 24.1 1.55 24.1 1.0 24.1 0.4 24.1 -0.15 24.1 -0.75 24.05 -1.25 24.05 -1.85 24.0 -2.2 24.0 -2.9 23.95 -3.7 23.9 -4.45 23.85 -5.2 23.8 -5.9 23.7 -6.6 23.6 -7.3 23.5 -7.95 23.45 -8.6 23.3 -9.25 23.2 -9.9 23.1 -10.45 23.0 -11.1 22.85 -11.6 22.75 -12.25 22.65 -12.65 22.55 -13.4 22.4 -13.95 22.3 -14.55 22.15 -15.1 22.0 -15.65 21.9 -16.15 21.75 -16.65 21.65 -17.15 21.5 -17.65 21.4 -18.1 21.25 -18.55 21.15 -19.0 21.0 -19.4 20.9 -19.8 20.75 -20.2 20.65 -20.6 20.55 -20.95 20.45 -21.0 20.4 -21.05 20.3 -21.1 20.25 -21.15 20.15 -21.2 20.1 -21.25 20.0 -21.3 19.95 -21.3 19.85 -21.35 19.75 -21.4 19.65 -21.45 19.55 -21.45 19.45 -21.5 19.35 -21.55 19.25 -21.55 19.15 -21.55 19.0 -21.55 18.9 -21.55 18.75 -21.55 18.65 -21.55 18.55 -21.55 18.5 -21.5 18.4 -21.5 18.3 -21.45 18.2 -21.3 17.75 -21.4 17.95 -21.35 17.85 -21.3 17.7 -21.3 17.55 -21.25 17.4 -21.2 17.25 -21.2 17.05 -21.15 16.85 -21.15 16.7 -21.15 16.55 -21.15 16.4 -21.1 16.25 -21.1 16.1 -21.1 15.1 -21.1 15.9 -21.1 15.8 -21.1 15.7 -21.1 15.6 -21.1 15.5 -21.05 15.4 -21.05 15.3 -21.0 15.15 -20.95 15.05 -20.85 14.8 -20.3 13.95 -20.25 14.05 -19.1 11.95 -18.95 11.7 -18.85 11.4 -18.7 11.15 -18.6 10.9 -18.5 10.6 -18.4 10.35 -18.35 10.1 -18.25 9.8 -18.2 9.5 -18.1 9.2 -18.05 8.95 -18.0 8.65 -17.95 8.35 -17.85 8.0 -17.8 7.8 -17.75 7.35 -17.7 7.2 -17.7 7.1 -17.65 6.95 -17.65 6.8 -17.6 6.65 -17.6 6.5 -17.55 6.35 -17.55 6.15 -17.5 6.0 -17.5 5.8 -17.45 5.6 -17.45 5.4 -17.4 5.2 -17.4 5.0 -17.35 4.75 -17.35 4.55 -17.25 2.85 -17.6 -0.4 -17.6 -0.75 -17.9 -6.7 -18.25 -12.65 -18.1 -14.4 -18.05 -14.85 -18.0 -15.25 -17.95 -15.65 -17.9 -16.0 -17.85 -16.4 -17.75 -16.75 -17.7 -17.05 -17.65 -17.35 -17.55 -17.7 -17.5 -17.95 -17.4 -18.25 -17.3 -18.55 -17.2 -18.8 -17.15 -19.05 -17.05 -19.3 -16.95 -19.55 -16.8 -19.85 -16.8 -19.9 -16.7 -20.1 -16.65 -20.25 -16.55 -20.45 -16.45 -20.6 -16.35 -20.8 -16.25 -21.0 -16.1 -21.2 -16.0 -21.4 -15.85 -21.6 -15.7 -21.8 -15.55 -22.05 -15.4 -22.25 -15.2 -22.45 -15.0 -22.65 -14.8 -22.85 -14.55 -23.05 -14.35 -23.25 -14.15 -23.45 -13.95 -23.6 -13.7 -23.75 -13.5 -23.9 -13.3 -24.05 -13.1 -24.15 -12.9 -24.25 -12.7 -24.35 -12.55 -24.45 -12.35 -24.55 -12.2 -24.65 -12.05 -24.7 -11.85 -24.75 L-11.85 -24.75" fill="#596176" fill-rule="evenodd" stroke="none"/>
  </g>
</svg>
