<?xml version="1.0" encoding="UTF-8" standalone="no"?>
<svg xmlns:xlink="http://www.w3.org/1999/xlink" height="42.25px" width="36.6px" xmlns="http://www.w3.org/2000/svg">
  <g transform="matrix(1.0, 0.0, 0.0, 1.0, 0.0, 0.0)">
    <path d="M39.35 43.0 Q39.3 42.85 39.3 42.65 39.3 42.85 39.2 42.25 39.15 42.05 39.15 41.9 39.1 41.7 39.05 41.55 39.0 41.35 38.95 41.15 38.9 40.95 38.8 40.8 38.75 40.6 38.65 40.4 38.55 40.2 38.4 40.0 38.3 39.85 38.2 39.75 38.15 39.6 38.05 39.5 37.95 39.4 37.85 39.3 37.8 39.2 37.7 39.15 37.6 39.05 37.5 38.95 37.2 38.7 37.35 38.8 37.2 38.7 37.15 38.6 37.05 38.5 36.95 38.4 36.85 38.3 36.7 38.15 36.6 38.05 36.5 37.9 36.4 37.75 36.3 37.55 36.15 37.35 36.05 37.15 35.95 36.95 35.8 36.65 35.7 36.4 35.55 36.05 35.4 35.7 35.25 35.3 35.1 34.9 34.95 34.4 33.45 29.85 33.15 27.55 33.1 27.0 33.05 26.55 33.05 26.1 33.0 25.7 33.0 25.4 33.05 25.05 33.05 24.85 33.1 24.45 33.1 24.05 33.1 23.85 33.15 23.5 33.15 23.2 33.15 22.8 33.1 22.35 33.1 21.85 33.05 21.3 33.05 21.15 33.0 21.05 33.0 20.9 33.0 20.75 33.0 20.55 32.95 20.35 32.95 20.1 32.95 19.85 32.95 19.6 32.95 19.35 32.95 19.05 33.0 18.75 33.0 18.45 33.05 18.15 33.1 17.8 33.15 17.45 33.15 17.35 33.2 17.3 33.2 17.2 33.2 17.15 33.2 17.1 33.25 17.0 33.25 16.95 33.25 16.9 33.3 16.8 33.3 16.75 33.3 16.7 33.3 16.65 33.35 16.6 33.35 16.55 33.35 16.5 33.35 16.45 33.45 16.4 33.5 16.3 33.6 16.2 33.65 16.15 33.75 16.05 33.85 15.95 33.9 15.85 34.0 15.75 34.05 15.65 34.15 15.5 34.2 15.4 34.25 15.25 34.3 15.15 34.35 15.0 34.45 14.85 34.45 14.7 34.5 14.5 34.55 14.3 34.55 14.1 34.55 13.9 34.55 13.7 34.5 13.45 34.45 13.2 34.4 12.95 34.3 12.65 34.15 12.35 34.05 12.05 33.85 11.65 33.7 11.3 33.45 10.85 33.25 10.45 32.95 9.9 31.85 8.0 30.15 5.5 27.6 1.7 26.7 0.95 26.4 0.7 26.1 0.5 25.85 0.3 25.55 0.1 25.25 -0.1 24.95 -0.25 24.7 -0.4 24.4 -0.55 24.15 -0.65 23.9 -0.8 23.65 -0.9 23.35 -1.0 23.15 -1.1 22.9 -1.15 22.7 -1.2 22.5 -1.3 22.45 -1.35 22.4 -1.4 22.35 -1.45 22.3 -1.5 22.25 -1.55 22.2 -1.6 22.1 -1.65 22.05 -1.7 22.0 -1.75 21.95 -1.8 21.9 -1.9 21.85 -1.95 21.8 -2.0 21.75 -2.1 21.7 -2.15 21.65 -2.2 21.5 -2.45 21.35 -2.75 21.25 -3.0 21.15 -3.3 21.1 -3.55 21.05 -3.8 21.0 -4.05 20.95 -4.3 20.95 -4.55 20.95 -4.8 20.95 -5.0 21.0 -5.2 21.0 -5.35 21.0 -5.5 21.05 -5.65 21.05 -5.75 20.65 -5.7 20.3 -5.7 19.9 -5.7 19.5 -5.65 19.1 -5.65 18.7 -5.65 18.3 -5.6 17.85 -5.6 17.45 -5.6 17.0 -5.6 16.6 -5.6 16.15 -5.6 15.7 -5.6 15.25 -5.6 14.8 -5.65 14.35 -5.65 13.9 -5.65 13.45 -5.7 13.0 -5.7 12.55 -5.75 12.1 -5.8 11.65 -5.8 11.25 -5.85 10.8 -5.9 10.4 -5.95 10.0 -6.0 9.6 -6.0 9.2 -6.05 8.8 -6.1 8.4 -6.15 8.05 -6.25 7.65 -6.3 7.65 -6.2 7.65 -6.1 7.65 -6.0 7.65 -5.9 7.7 -5.8 7.7 -5.7 7.7 -5.6 7.7 -5.5 7.7 -5.35 7.65 -5.25 7.65 -5.1 7.65 -5.0 7.65 -4.85 7.65 -4.7 7.6 -4.6 7.6 -4.45 7.6 -4.3 7.55 -4.2 7.55 -4.05 7.55 -3.95 7.5 -3.85 7.5 -3.75 7.5 -3.65 7.45 -3.55 7.45 -3.45 7.4 -3.35 7.4 -3.25 7.35 -3.15 7.35 -3.05 7.3 -3.0 7.25 -2.9 7.2 -2.8 7.15 -2.7 7.15 -2.65 7.1 -2.6 7.05 -2.5 7.0 -2.4 6.9 -2.35 6.85 -2.25 6.75 -2.15 6.65 -2.0 6.5 -1.9 6.4 -1.8 6.2 -1.65 6.05 -1.55 5.85 -1.4 5.65 -1.25 5.4 -1.05 5.2 -0.9 5.0 -0.8 4.85 -0.7 4.7 -0.6 4.55 -0.5 4.4 -0.4 4.25 -0.35 4.1 -0.25 4.05 -0.2 3.85 -0.1 3.7 -0.05 3.6 0.0 3.5 0.1 3.4 0.15 3.25 0.25 3.1 0.3 3.1 0.3 3.05 0.35 2.9 0.45 2.9 0.45 2.75 0.55 2.65 0.65 2.45 0.8 2.3 0.95 2.1 1.1 1.9 1.3 1.7 1.5 1.5 1.75 1.25 2.0 1.0 2.25 0.75 2.55 0.55 2.85 0.25 3.25 0.0 3.7 -0.2 4.15 -0.4 4.65 -0.55 5.1 -0.65 5.6 -0.8 6.05 -0.85 6.6 -0.9 7.05 -0.95 7.6 -0.95 8.1 -1.0 8.65 -1.0 9.1 -0.95 9.7 -0.95 10.1 -0.95 10.75 -0.85 12.95 0.4 19.8 0.45 20.05 0.55 20.7 0.65 21.2 0.7 21.45 0.75 21.85 0.8 22.15 0.85 22.55 0.9 22.85 0.95 23.15 0.95 23.45 1.0 23.8 1.0 24.1 1.0 24.4 1.0 24.7 0.95 25.05 0.95 25.35 0.75 26.9 0.35 29.4 0.3 29.75 0.1 30.55 0.05 31.05 0.0 31.2 -0.1 31.55 -0.15 31.8 -0.25 32.1 -0.35 32.35 -0.45 32.6 -0.6 32.9 -0.7 33.1 -0.9 33.4 -1.0 33.65 -1.25 34.05 -1.7 34.85 -1.65 34.75 -1.9 35.25 -2.15 35.65 -2.45 36.2 -2.75 36.75 -3.0 37.25 -3.2 37.7 -3.4 38.1 -3.6 38.45 -3.75 38.75 -3.85 39.05 -3.95 39.3 -4.05 39.5 -4.1 39.75 -4.15 39.9 -4.2 40.1 -4.2 40.2 -4.2 40.35 -4.25 40.5 -4.25 40.6 -4.2 40.75 -4.1 42.0 -4.2 42.4 -4.25 42.55 -4.3 42.7 -4.35 42.85 -4.4 43.0 -4.45 43.1 -4.5 43.2 -4.55 43.25 -4.65 43.4 -4.7 43.55 -4.75 43.6 -4.8 43.7 -4.8 43.8 -4.85 43.9 -4.9 44.0 -4.9 44.15 -4.9 44.25 -4.9 44.4 -4.9 44.55 -4.9 44.65 -4.85 44.8 -4.85 44.95 -4.8 45.05 -4.75 45.15 -4.7 45.3 -4.65 45.4 -4.55 45.5 -4.5 45.6 -4.45 45.7 -4.4 45.75 -4.35 45.85 -4.3 45.9 -4.2 46.0 -3.75 46.55 -3.1 47.1 -2.45 47.6 -1.65 48.05 -0.95 48.5 -0.1 48.9 0.7 49.25 1.55 49.55 2.25 49.8 3.0 50.05 3.65 50.25 4.25 50.45 4.7 50.6 5.1 50.7 5.25 50.7 5.4 50.75 6.25 50.95 6.6 51.05 7.25 51.15 7.8 51.3 8.4 51.4 8.9 51.5 9.5 51.65 10.05 51.75 10.65 51.85 11.2 51.95 11.8 52.0 12.45 52.1 13.1 52.2 13.75 52.25 14.45 52.35 15.2 52.4 16.8 52.55 17.5 52.6 18.8 52.65 19.75 52.75 20.95 52.8 22.0 52.8 23.1 52.85 24.15 52.8 25.3 52.75 26.35 52.65 27.5 52.55 28.55 52.4 29.7 52.2 30.8 51.9 31.95 51.6 33.1 51.25 33.75 51.05 34.35 50.8 34.95 50.55 35.55 50.3 36.1 50.05 36.65 49.75 37.15 49.5 37.65 49.25 38.15 49.0 38.6 48.7 39.05 48.45 39.5 48.2 39.85 47.9 40.25 47.65 40.6 47.4 41.0 47.15 40.8 46.85 40.65 46.55 40.5 46.25 40.35 45.95 40.2 45.65 40.05 45.35 39.95 45.1 39.85 44.85 39.75 44.55 39.7 44.3 39.6 44.1 39.55 43.85 39.45 43.6 39.4 43.4 39.4 43.2 39.35 43.0 L39.35 43.0 M20.55 3.35 Q20.5 3.4 20.45 3.4 20.35 3.45 20.3 3.45 20.25 3.45 20.2 3.5 20.1 3.5 20.05 3.55 20.0 3.55 19.95 3.55 19.9 3.55 19.8 3.55 19.75 3.6 19.7 3.6 19.6 3.6 19.55 3.6 18.45 3.6 18.0 3.55 17.8 3.5 17.65 3.45 17.45 3.4 17.3 3.35 17.15 3.25 16.95 3.15 16.8 3.05 16.65 2.95 16.5 2.85 16.35 2.7 16.25 2.6 16.1 2.45 15.95 2.35 15.85 2.2 15.75 2.05 15.6 1.9 15.55 1.8 15.5 1.75 15.45 1.65 15.4 1.6 15.35 1.5 15.35 1.4 15.3 1.35 15.25 1.25 15.25 1.15 15.2 1.05 15.2 1.0 15.2 0.9 15.15 0.8 15.15 0.7 15.15 0.6 15.15 0.55 15.15 0.45 15.15 0.35 15.15 0.25 15.15 0.2 15.15 0.1 15.15 0.0 15.2 -0.1 15.2 -0.2 15.2 -0.3 15.25 -0.4 15.25 -0.45 15.3 -0.55 15.3 -0.65 15.35 -0.75 15.4 -0.8 15.45 -0.9 15.5 -1.0 15.6 -1.15 15.65 -1.25 15.75 -1.35 15.85 -1.45 15.95 -1.55 16.05 -1.65 16.15 -1.75 16.25 -1.8 16.35 -1.9 16.5 -1.95 16.6 -2.0 16.75 -2.1 16.85 -2.1 17.0 -2.15 17.15 -2.2 17.1 -2.2 17.1 -2.2 17.05 -2.25 17.0 -2.25 17.0 -2.25 16.95 -2.25 16.95 -2.3 16.9 -2.3 16.85 -2.3 16.85 -2.3 16.8 -2.35 16.8 -2.35 16.75 -2.35 16.75 -2.4 16.7 -2.4 16.7 -2.45 16.7 -2.45 16.65 -2.5 16.65 -2.55 16.65 -2.55 16.6 -2.6 16.6 -2.6 16.6 -2.65 16.6 -2.65 16.55 -2.7 16.55 -2.75 16.55 -2.75 16.55 -2.8 16.55 -2.85 16.55 -2.85 16.55 -2.9 16.55 -2.95 16.55 -3.0 16.55 -3.05 16.55 -3.05 16.55 -3.1 16.55 -3.15 16.55 -3.2 16.55 -3.25 16.55 -3.25 16.55 -3.3 16.55 -3.35 16.55 -3.4 16.55 -3.45 16.55 -3.5 16.6 -3.5 16.6 -3.55 16.6 -3.6 16.6 -3.65 16.6 -3.7 16.65 -3.75 16.65 -3.75 16.65 -3.8 16.65 -3.85 16.7 -3.9 16.7 -3.9 16.7 -3.95 16.75 -4.0 16.75 -4.05 16.75 -4.05 16.8 -4.1 16.8 -4.15 16.8 -4.2 16.85 -4.2 16.9 -4.25 16.95 -4.3 17.0 -4.35 17.05 -4.4 17.1 -4.45 17.2 -4.45 17.25 -4.5 17.35 -4.5 17.4 -4.5 17.45 -4.5 17.55 -4.5 17.6 -4.45 17.7 -4.45 17.75 -4.45 17.8 -4.4 17.9 -4.35 17.95 -4.35 17.95 -4.3 18.0 -4.3 18.0 -4.25 18.05 -4.25 18.05 -4.2 18.1 -4.2 18.1 -4.15 18.15 -4.15 18.15 -4.1 18.2 -4.05 18.2 -4.05 18.2 -4.0 18.25 -4.0 18.25 -3.95 18.3 -3.9 18.35 -3.8 18.45 -3.6 18.55 -3.4 18.6 -3.3 18.8 -2.85 18.9 -2.55 18.9 -2.5 18.95 -2.35 19.0 -2.25 19.0 -2.2 19.0 -2.2 19.0 -2.15 19.0 -2.15 19.05 -2.1 19.05 -2.1 19.1 -2.1 19.2 -2.05 19.25 -2.0 19.35 -2.0 19.45 -1.95 19.5 -1.9 19.6 -1.85 20.25 -1.6 19.8 -1.8 19.9 -1.75 19.95 -1.7 20.05 -1.65 20.15 -1.65 20.2 -1.6 20.3 -1.55 20.4 -1.5 20.45 -1.45 20.55 -1.4 20.65 -1.3 20.75 -1.2 20.85 -1.1 20.9 -1.05 21.0 -0.95 21.05 -0.85 21.15 -0.7 21.2 -0.6 21.25 -0.5 21.3 -0.4 21.35 -0.3 21.4 -0.15 21.45 -0.05 21.5 0.05 21.5 0.2 21.55 0.4 21.6 0.6 21.65 0.85 21.65 1.05 21.65 1.3 21.65 1.5 21.6 1.75 21.55 1.95 21.5 2.2 21.45 2.4 21.35 2.6 21.2 2.75 21.1 2.95 20.9 3.1 20.75 3.25 20.55 3.35 L20.55 3.35" fill="#f5a01f" fill-rule="evenodd" stroke="none"/>
    <path d="M20.5 1.9 Q20.4 2.0 20.3 2.1 20.2 2.15 20.05 2.25 19.95 2.3 19.8 2.35 19.7 2.4 19.55 2.45 19.4 2.5 19.25 2.5 19.1 2.5 18.95 2.5 18.8 2.55 18.65 2.5 18.5 2.5 18.4 2.5 18.3 2.5 18.2 2.45 18.15 2.45 18.05 2.4 17.95 2.35 17.9 2.3 17.8 2.3 17.75 2.25 17.65 2.2 17.6 2.15 17.5 2.1 17.45 2.05 17.4 2.0 17.3 1.9 17.25 1.85 17.2 1.8 17.15 1.75 17.1 1.7 17.05 1.65 17.0 1.6 16.9 1.5 16.85 1.45 16.8 1.4 16.75 1.35 16.75 1.25 16.7 1.2 16.65 1.15 16.6 1.05 16.6 1.0 16.55 0.95 16.55 0.85 16.55 0.8 16.55 0.7 16.55 0.65 16.5 0.55 16.5 0.45 16.5 0.4 16.55 0.3 16.55 0.2 16.55 0.15 16.55 0.05 16.6 -0.05 16.6 -0.1 16.65 -0.2 16.65 -0.3 16.7 -0.35 16.75 -0.45 16.8 -0.5 16.85 -0.55 16.85 -0.6 16.9 -0.65 16.95 -0.7 17.0 -0.75 17.05 -0.8 17.1 -0.85 17.15 -0.9 17.2 -0.9 17.25 -0.95 17.3 -1.0 17.35 -1.05 17.45 -1.05 17.5 -1.1 17.55 -1.1 17.6 -1.15 17.6 -1.15 17.65 -1.15 17.65 -1.2 17.65 -1.2 17.7 -1.2 17.7 -1.2 17.7 -1.2 17.75 -1.2 17.75 -1.2 17.8 -1.25 17.8 -1.25 17.85 -1.25 17.95 -1.25 18.0 -1.3 18.1 -1.3 18.2 -1.3 18.25 -1.3 18.35 -1.3 18.45 -1.3 18.55 -1.25 18.6 -1.25 18.7 -1.25 18.75 -1.25 18.85 -1.2 18.95 -1.2 19.0 -1.2 19.1 -1.15 19.15 -1.15 19.25 -1.1 19.35 -1.1 19.4 -1.05 19.5 -1.0 19.6 -0.95 19.65 -0.9 19.75 -0.9 19.8 -0.85 19.9 -0.8 19.95 -0.75 20.05 -0.65 20.1 -0.6 20.15 -0.55 20.2 -0.5 20.3 -0.45 20.35 -0.35 20.4 -0.3 20.4 -0.3 20.4 -0.25 20.45 -0.25 20.45 -0.2 20.5 -0.2 20.5 -0.15 20.55 -0.1 20.55 -0.1 20.55 -0.05 20.6 0.0 20.6 0.0 20.6 0.05 20.65 0.1 20.65 0.1 20.65 0.15 20.65 0.2 20.7 0.25 20.7 0.25 20.7 0.3 20.7 0.35 20.75 0.4 20.75 0.4 20.75 0.45 20.75 0.5 20.75 0.55 20.75 0.55 20.75 0.6 20.75 0.65 20.75 0.7 20.75 0.7 20.8 0.75 20.8 0.85 20.8 0.9 20.8 1.0 20.8 1.05 20.8 1.15 20.8 1.2 20.8 1.3 20.75 1.35 20.75 1.45 20.75 1.5 20.7 1.6 20.65 1.65 20.65 1.75 20.6 1.8 20.55 1.85 20.5 1.9 L20.5 1.9" fill="#f5a01f" fill-rule="evenodd" stroke="none"/>
  </g>
</svg>
