<?xml version="1.0" encoding="UTF-8" standalone="no"?>
<svg xmlns:xlink="http://www.w3.org/1999/xlink" height="50.3px" width="38.8px" xmlns="http://www.w3.org/2000/svg">
  <g transform="matrix(1.0, 0.0, 0.0, 1.0, 0.5, 25.15)">
    <path d="M34.7 -4.45 Q34.7 -4.25 34.7 -3.9 34.7 -3.5 34.65 -3.35 34.65 -3.3 34.65 -3.25 34.65 -3.25 34.6 -3.15 34.55 -3.1 34.55 -3.05 34.5 -2.8 34.45 -2.3 34.4 -2.1 34.4 -1.75 34.3 -1.2 34.3 -1.2 34.3 -1.15 34.3 -1.1 34.3 -1.05 34.35 -1.0 34.35 -0.95 34.4 -0.95 34.45 -0.9 34.5 -0.85 34.55 -0.8 34.6 -0.7 34.6 -0.65 34.6 -0.55 34.65 -0.5 34.6 -0.45 34.6 -0.35 34.6 -0.3 34.6 -0.2 34.55 -0.15 34.5 -0.1 34.45 -0.05 34.4 0.0 34.35 0.05 34.3 0.05 34.25 0.1 34.25 0.1 34.25 0.15 34.25 0.2 34.25 0.25 34.25 1.5 34.35 2.4 34.35 2.85 34.9 5.05 34.95 5.25 35.5 7.4 35.55 7.5 35.6 7.5 35.65 7.5 35.65 7.5 35.7 7.5 35.75 7.55 35.75 7.55 35.8 7.55 35.85 7.55 35.9 7.55 35.9 7.55 35.95 7.6 36.0 7.6 36.05 7.6 36.05 7.6 36.1 7.6 36.15 7.65 36.15 7.65 36.2 7.65 36.2 7.7 36.25 7.75 36.25 7.75 36.3 7.8 36.3 7.85 36.35 7.9 36.35 7.95 36.35 8.0 36.35 8.05 36.35 8.1 36.35 8.15 36.35 8.15 36.35 8.2 36.35 8.25 36.35 8.3 36.3 8.35 36.3 8.4 36.3 8.45 36.25 8.45 36.2 8.5 35.9 8.75 36.1 9.45 36.5 10.95 36.75 10.85 37.15 10.75 37.2 11.1 37.4 11.9 37.2 11.95 36.85 12.05 36.9 12.15 36.95 12.3 37.0 12.45 37.0 12.55 37.5 14.0 38.8 17.9 39.1 18.65 39.25 19.2 39.3 19.3 39.3 19.35 39.3 19.45 39.3 19.5 39.35 19.6 39.35 19.65 39.3 19.75 39.3 19.8 39.3 19.9 39.25 19.95 39.25 20.0 39.2 20.1 39.15 20.15 39.1 20.2 39.05 20.3 39.0 20.35 38.95 20.4 38.95 20.4 38.95 20.45 38.9 20.5 38.85 20.6 38.8 20.65 38.75 20.75 38.7 20.8 38.65 20.9 38.6 20.95 38.55 21.0 38.45 21.05 38.4 21.1 38.3 21.15 38.25 21.2 38.15 21.25 38.1 21.3 38.0 21.35 37.9 21.4 37.85 21.45 37.8 21.45 37.75 21.5 37.7 21.5 37.6 21.5 37.55 21.5 37.5 21.5 37.45 21.5 37.4 21.5 37.35 21.5 37.3 21.5 37.25 21.5 37.15 21.45 37.1 21.45 37.05 21.45 37.0 21.4 36.95 21.4 36.9 21.4 36.9 21.35 36.85 21.35 36.85 21.35 36.8 21.3 36.8 21.3 36.75 21.25 36.75 21.25 36.75 21.2 36.7 21.2 36.7 21.15 36.7 21.1 36.7 21.1 36.65 21.05 36.65 21.0 36.65 20.95 36.1 18.05 35.95 17.55 35.75 16.55 34.85 12.8 34.85 12.8 34.8 12.7 34.7 12.7 34.35 12.8 34.05 12.9 33.85 12.9 33.6 12.95 33.3 13.0 33.05 13.05 32.8 13.1 32.5 13.15 32.25 13.2 32.0 13.25 31.7 13.3 31.45 13.35 31.15 13.35 30.9 13.4 30.65 13.4 30.35 13.45 30.1 13.45 29.8 13.45 29.55 13.5 29.0 13.55 28.45 13.55 27.85 13.55 27.3 13.6 26.75 13.6 26.2 13.6 25.6 13.6 25.05 13.6 24.5 13.6 23.95 13.6 23.4 13.6 22.8 13.6 22.25 13.55 21.7 13.55 21.15 13.55 20.55 13.5 20.15 13.5 15.65 13.1 15.55 13.1 15.4 13.1 15.35 13.25 15.3 13.55 15.2 13.85 15.15 14.0 15.05 14.35 14.85 15.05 14.65 15.75 14.55 16.15 14.35 16.75 13.85 18.55 13.4 20.0 13.2 20.65 12.85 22.0 12.4 23.6 12.4 23.65 12.4 23.7 12.4 23.8 12.35 23.8 12.35 23.9 12.3 24.0 12.25 24.05 12.2 24.1 12.15 24.2 12.1 24.2 12.0 24.25 11.95 24.3 11.85 24.3 11.8 24.3 11.7 24.3 11.65 24.3 11.55 24.25 11.5 24.2 11.4 24.2 11.35 24.1 11.3 24.1 11.3 24.05 11.25 24.05 11.2 24.05 9.45 23.65 6.95 23.15 6.85 23.15 6.7 23.1 6.5 23.1 6.4 23.05 6.35 23.05 6.3 23.0 6.25 23.0 6.2 22.95 6.15 22.95 6.15 22.9 6.1 22.85 6.05 22.85 6.05 22.8 6.05 22.75 6.0 22.7 6.0 22.65 6.0 22.6 6.0 22.5 6.0 22.45 6.05 22.4 6.1 22.1 6.4 21.35 6.45 21.2 7.3 18.8 8.35 15.9 9.4 11.55 9.55 10.95 9.7 10.35 9.8 9.75 9.95 9.2 10.1 8.6 10.2 8.0 10.35 7.4 10.45 6.8 10.55 6.2 10.65 5.6 10.75 5.0 10.85 4.4 10.95 3.8 11.0 3.2 11.1 2.6 11.15 2.0 11.25 1.25 11.7 -3.35 11.7 -3.4 11.7 -3.4 11.7 -3.45 11.7 -3.5 11.7 -3.55 11.7 -3.55 11.7 -3.6 11.7 -3.65 11.75 -3.7 11.75 -3.7 11.75 -3.75 11.75 -3.8 11.75 -3.8 11.75 -3.85 11.75 -3.9 11.75 -3.95 11.75 -4.0 11.75 -4.05 11.8 -4.1 11.8 -4.15 11.85 -4.2 11.85 -4.2 11.9 -4.25 11.9 -4.3 11.95 -4.3 12.0 -4.35 12.05 -4.35 12.05 -4.35 12.1 -4.4 12.15 -4.4 12.2 -4.4 12.25 -4.4 13.0 -4.4 14.15 -4.3 14.95 -4.25 16.3 -4.2 17.85 -4.1 18.45 -4.05 19.15 -4.0 21.7 -3.95 23.7 -3.85 24.9 -3.8 27.75 -3.7 31.7 -3.95 31.85 -3.95 32.05 -3.95 32.2 -4.0 32.4 -4.0 32.55 -4.05 32.75 -4.05 32.9 -4.1 33.1 -4.1 33.25 -4.15 33.45 -4.15 33.6 -4.2 33.8 -4.25 33.95 -4.3 34.1 -4.3 34.3 -4.35 34.45 -4.4 34.5 -4.4 34.7 -4.45 L34.7 -4.45 M33.7 8.25 Q33.55 7.7 33.4 6.9 33.0 5.25 32.25 1.95 32.1 1.3 31.95 0.65 31.95 0.6 31.95 0.55 31.9 0.55 31.9 0.5 31.85 0.5 31.8 0.5 30.55 0.7 29.75 0.8 27.9 1.0 24.25 1.1 24.1 1.1 23.55 1.1 23.1 1.15 22.85 1.1 22.65 1.1 22.4 1.1 22.2 1.1 22.0 1.05 21.75 1.05 21.55 1.05 21.3 1.05 21.1 1.05 20.9 1.0 20.65 1.0 20.45 1.0 20.2 1.0 20.0 0.95 19.8 0.95 19.55 0.95 19.35 0.9 18.35 0.85 16.35 0.65 16.3 0.65 16.25 0.65 16.25 0.65 16.2 0.65 16.2 0.65 16.2 0.7 16.2 0.75 16.2 0.8 16.2 1.05 16.2 1.6 16.2 2.1 16.2 2.4 16.2 2.4 16.2 2.55 16.15 2.6 16.15 2.7 16.15 2.75 16.15 2.8 16.15 2.85 16.15 2.9 16.15 2.95 16.15 3.0 16.15 3.05 16.15 3.1 16.15 3.15 16.15 3.2 16.15 3.25 16.15 3.3 16.15 3.4 16.15 3.45 16.15 3.5 16.15 3.55 16.15 3.65 16.1 3.9 16.1 4.15 16.05 4.25 16.05 4.4 16.05 4.7 16.05 4.9 16.0 5.25 16.0 5.6 15.95 5.75 15.95 5.95 15.85 6.6 15.8 7.15 15.65 8.25 15.7 8.25 15.75 8.25 15.75 8.25 15.8 8.3 15.9 8.3 15.9 8.3 18.0 8.6 18.1 8.6 18.55 8.65 18.95 8.65 19.35 8.7 19.8 8.7 20.2 8.75 20.65 8.75 21.05 8.8 21.5 8.8 21.9 8.8 22.35 8.85 22.8 8.85 23.2 8.85 23.65 8.85 24.05 8.9 24.5 8.9 24.9 8.9 25.2 8.9 25.75 8.9 26.35 8.9 26.55 8.9 26.95 8.9 28.35 8.85 28.6 8.85 28.9 8.85 29.15 8.8 29.45 8.8 29.7 8.8 29.95 8.75 30.25 8.75 30.5 8.75 30.75 8.7 31.05 8.65 31.3 8.65 31.55 8.6 31.85 8.6 32.1 8.55 32.35 8.5 32.65 8.45 32.85 8.4 33.15 8.35 33.7 8.25 33.7 8.25 L33.7 8.25" fill="#000000" fill-rule="evenodd" stroke="none"/>
    <path d="M32.1 -11.75 Q32.15 -11.75 32.35 -11.75 32.4 -11.75 32.45 -11.75 32.5 -11.7 32.5 -11.7 32.55 -11.7 32.6 -11.65 32.65 -11.65 32.65 -11.6 32.7 -11.55 32.7 -11.55 32.75 -11.5 32.75 -11.45 32.8 -11.4 32.8 -11.4 32.8 -11.35 32.8 -11.3 32.8 -11.25 32.85 -11.2 32.85 -11.2 32.9 -11.15 32.9 -11.1 32.95 -11.1 33.0 -11.05 33.0 -11.05 33.0 -11.0 33.05 -10.95 33.05 -10.9 33.05 -10.85 33.05 -10.85 33.05 -10.8 33.1 -10.75 33.1 -10.7 33.1 -10.7 33.05 -10.65 33.05 -10.6 33.05 -10.55 33.05 -10.5 33.05 -10.5 33.05 -10.45 33.0 -10.35 32.95 -10.25 32.95 -10.25 33.0 -10.25 33.05 -10.2 33.05 -10.2 33.1 -10.15 33.15 -10.15 33.15 -10.1 33.2 -10.1 33.2 -10.05 33.25 -10.0 33.25 -10.0 33.3 -9.95 33.3 -9.9 33.3 -9.85 33.3 -9.8 33.3 -9.75 33.3 -9.7 33.3 -9.65 33.3 -9.65 33.3 -9.6 33.3 -9.55 33.25 -9.55 33.25 -9.5 33.25 -9.5 33.2 -9.45 33.2 -9.4 33.15 -9.4 33.15 -9.4 33.1 -9.35 33.1 -9.35 33.05 -9.35 33.0 -9.3 32.95 -9.3 32.75 -9.25 32.5 -9.2 32.3 -9.15 32.1 -9.1 31.85 -9.1 31.65 -9.05 31.45 -9.0 31.2 -8.95 31.0 -8.95 30.8 -8.9 30.55 -8.85 30.35 -8.85 30.1 -8.8 29.9 -8.8 29.7 -8.8 29.45 -8.75 27.2 -8.6 26.4 -8.5 25.45 -8.35 23.15 -8.3 22.75 -8.3 21.7 -8.25 20.75 -8.2 20.25 -8.15 19.85 -8.15 19.45 -8.15 19.0 -8.15 18.6 -8.15 18.2 -8.15 17.8 -8.15 17.4 -8.15 17.0 -8.15 16.6 -8.2 16.2 -8.2 15.75 -8.2 15.35 -8.2 14.95 -8.25 14.55 -8.25 14.15 -8.3 13.75 -8.3 13.55 -8.3 11.55 -8.45 11.5 -8.45 11.45 -8.45 11.4 -8.5 11.4 -8.5 11.35 -8.55 11.3 -8.55 11.25 -8.6 11.25 -8.6 11.2 -8.65 11.15 -8.7 11.15 -8.75 11.1 -8.8 11.1 -8.85 11.05 -8.9 11.05 -8.95 11.05 -9.0 11.0 -9.1 10.95 -9.45 10.7 -10.9 10.6 -11.45 10.55 -11.85 10.45 -12.2 10.35 -12.6 10.25 -12.95 10.2 -13.35 10.1 -13.7 9.95 -14.1 9.85 -14.45 9.75 -14.85 9.6 -15.2 9.5 -15.55 9.35 -15.9 9.2 -16.3 9.1 -16.65 8.95 -17.0 8.75 -17.35 8.6 -17.7 8.45 -18.0 8.3 -18.3 8.15 -18.6 7.95 -18.95 7.8 -19.25 7.6 -19.5 7.4 -19.8 7.2 -20.1 7.0 -20.35 6.75 -20.65 6.55 -20.9 6.3 -21.2 6.05 -21.45 5.8 -21.7 5.55 -21.9 5.35 -22.1 4.8 -22.55 4.7 -22.6 4.65 -22.65 4.6 -22.75 4.55 -22.8 4.5 -22.85 4.5 -22.9 4.5 -22.95 4.45 -23.05 4.45 -23.1 4.5 -23.15 4.5 -23.25 4.55 -23.3 4.55 -23.35 4.6 -23.45 4.65 -23.5 4.75 -23.6 4.85 -23.7 5.0 -23.85 5.1 -23.95 5.25 -24.05 5.35 -24.2 5.5 -24.3 5.6 -24.4 5.75 -24.5 5.9 -24.6 6.05 -24.7 6.15 -24.8 6.3 -24.9 6.45 -25.0 6.6 -25.1 6.7 -25.15 6.85 -25.3 6.9 -25.3 6.95 -25.35 7.0 -25.35 7.0 -25.4 7.05 -25.45 7.1 -25.45 7.15 -25.5 7.15 -25.55 7.2 -25.6 7.25 -25.6 7.3 -25.65 7.35 -25.65 7.4 -25.7 7.45 -25.7 7.5 -25.7 7.55 -25.7 7.6 -25.7 7.65 -25.7 7.7 -25.7 7.75 -25.65 7.8 -25.65 7.85 -25.6 7.9 -25.55 7.95 -25.5 9.05 -24.15 9.35 -23.75 11.25 -20.95 12.1 -19.35 12.25 -19.0 12.4 -18.7 12.6 -18.35 12.75 -18.05 12.9 -17.7 13.05 -17.35 13.2 -17.05 13.3 -16.7 13.45 -16.35 13.6 -16.0 13.7 -15.65 13.85 -15.35 13.95 -15.0 14.1 -14.65 14.2 -14.3 14.3 -13.95 14.3 -13.9 14.35 -13.85 14.35 -13.8 14.35 -13.75 14.4 -13.7 14.4 -13.7 14.45 -13.65 14.45 -13.6 14.5 -13.6 14.5 -13.6 14.55 -13.55 14.6 -13.55 14.65 -13.55 14.7 -13.5 14.7 -13.5 14.8 -13.5 15.2 -13.45 16.1 -13.35 16.95 -13.25 17.45 -13.25 19.65 -13.1 21.15 -13.05 21.55 -13.05 21.9 -13.05 22.3 -13.05 22.65 -13.1 23.05 -13.1 23.4 -13.1 23.8 -13.15 24.15 -13.2 24.55 -13.2 24.95 -13.25 25.3 -13.3 25.65 -13.35 26.05 -13.45 26.4 -13.5 26.8 -13.6 27.15 -13.65 27.15 -13.65 27.95 -13.85 28.4 -13.95 28.75 -14.05 28.8 -14.05 28.85 -14.05 28.9 -14.1 28.9 -14.1 28.9 -14.1 28.95 -14.15 28.95 -14.2 28.95 -14.25 28.95 -14.3 28.9 -14.35 28.75 -14.8 28.65 -15.2 28.5 -15.6 28.35 -16.05 28.2 -16.45 28.05 -16.85 27.85 -17.3 27.7 -17.7 27.5 -18.1 27.35 -18.5 27.15 -18.9 26.95 -19.3 26.75 -19.7 26.55 -20.1 26.35 -20.5 26.15 -20.85 25.9 -21.3 24.65 -23.6 24.65 -23.65 24.6 -23.7 24.6 -23.7 24.55 -23.75 24.55 -23.8 24.55 -23.85 24.5 -23.9 24.5 -23.95 24.5 -23.95 24.5 -24.0 24.45 -24.05 24.45 -24.1 24.45 -24.15 24.45 -24.2 24.45 -24.25 24.45 -24.3 24.45 -24.35 24.45 -24.45 24.5 -24.5 24.55 -24.55 24.55 -24.65 24.6 -24.65 24.65 -24.7 24.7 -24.75 24.8 -24.8 24.85 -24.8 24.9 -24.8 24.95 -24.8 25.0 -24.8 25.05 -24.8 25.1 -24.8 25.15 -24.75 25.15 -24.75 25.2 -24.75 25.25 -24.7 25.3 -24.65 25.3 -24.65 25.35 -24.6 25.35 -24.55 25.4 -24.55 25.4 -24.5 25.45 -24.45 25.5 -24.2 25.7 -23.8 25.7 -23.75 25.75 -23.7 25.75 -23.7 25.8 -23.65 25.8 -23.6 25.85 -23.55 25.85 -23.5 25.9 -23.45 25.9 -23.45 25.95 -23.4 25.95 -23.35 25.95 -23.35 25.95 -23.3 26.0 -23.3 26.0 -23.25 26.0 -23.25 26.05 -23.25 26.05 -23.2 26.1 -23.2 26.1 -23.15 26.15 -23.15 26.15 -23.15 26.2 -23.1 26.25 -23.1 26.3 -23.1 26.3 -23.05 26.35 -23.05 26.4 -23.05 26.45 -23.0 26.45 -23.0 26.5 -22.95 26.55 -22.95 26.55 -22.9 26.6 -22.85 26.65 -22.85 26.65 -22.8 27.45 -22.05 26.75 -22.75 26.75 -22.7 26.8 -22.7 27.85 -21.65 27.9 -21.65 28.05 -21.5 28.15 -21.35 28.3 -21.2 28.4 -21.05 28.55 -20.9 28.65 -20.7 28.8 -20.55 28.9 -20.4 29.05 -20.25 29.15 -20.05 29.25 -19.9 29.4 -19.75 29.5 -19.55 29.6 -19.4 29.7 -19.25 29.8 -19.05 30.25 -18.35 30.5 -17.9 30.6 -17.7 30.7 -17.15 31.1 -15.55 32.05 -11.8 32.05 -11.8 32.1 -11.75 L32.1 -11.75" fill="#000000" fill-rule="evenodd" stroke="none"/>
  </g>
</svg>
