<?xml version="1.0" encoding="UTF-8" standalone="no"?>
<svg xmlns:xlink="http://www.w3.org/1999/xlink" height="119.3px" width="67.15px" xmlns="http://www.w3.org/2000/svg">
  <g transform="matrix(1.0, 0.0, 0.0, 1.0, 33.6, 59.65)">
    <path d="M-18.75 29.7 Q-20.05 29.0 -20.55 28.7 -21.4 28.25 -21.95 27.9 -22.55 27.5 -23.0 27.2 -23.45 26.85 -23.85 26.5 -24.2 26.15 -24.5 25.75 -24.8 25.35 -25.1 24.8 -25.35 24.35 -25.75 23.65 -25.95 23.2 -26.5 22.1 -26.95 22.65 -27.4 23.2 -27.9 23.75 -28.35 24.25 -28.85 24.75 -29.35 25.25 -29.85 25.75 -30.35 26.25 -30.85 26.7 -31.4 27.15 -31.9 27.65 -32.45 28.05 -33.0 28.5 -33.55 28.9 -34.15 29.35 -34.7 29.7 -36.05 30.6 -37.35 31.3 -38.7 32.05 -40.0 32.65 -41.4 33.25 -42.75 33.7 -44.15 34.15 -45.5 34.45 -46.95 34.75 -48.35 34.85 -49.8 34.95 -51.25 34.85 -52.75 34.75 -54.25 34.45 -55.75 34.15 -57.3 33.6 -58.0 33.35 -58.6 33.1 -59.25 32.8 -59.8 32.45 -60.35 32.1 -60.85 31.7 -61.4 31.3 -61.85 30.85 -62.3 30.35 -62.65 29.85 -63.05 29.3 -63.35 28.75 -63.65 28.15 -63.85 27.5 -64.1 26.8 -64.25 26.1 -64.4 25.3 -64.45 24.55 -64.5 23.8 -64.4 23.1 -64.35 22.4 -64.2 21.7 -64.0 21.05 -63.75 20.45 -63.45 19.8 -63.1 19.2 -62.75 18.65 -62.3 18.1 -61.8 17.55 -61.25 17.05 -60.75 16.5 -60.1 16.05 -59.65 15.7 -59.15 15.4 -58.7 15.1 -58.2 14.8 -57.75 14.55 -57.2 14.3 -56.75 14.05 -56.2 13.85 -55.7 13.6 -55.15 13.4 -54.65 13.25 -54.1 13.05 -53.6 12.85 -53.05 12.7 -52.55 12.55 -51.95 12.35 -50.75 12.0 -49.55 11.6 -48.4 11.2 -47.25 10.75 -46.1 10.3 -44.95 9.8 -43.85 9.3 -42.7 8.75 -41.6 8.2 -40.5 7.6 -39.45 7.0 -38.35 6.35 -37.3 5.75 -36.25 5.05 -35.2 4.4 -34.2 3.65 -33.55 3.2 -32.95 2.8 -32.3 2.35 -31.7 1.95 -31.05 1.55 -30.45 1.15 -29.8 0.75 -29.15 0.4 -28.5 0.0 -27.85 -0.35 -27.2 -0.75 -26.55 -1.05 -25.85 -1.4 -25.2 -1.7 -24.5 -2.05 -23.8 -2.3 -23.4 -2.45 -23.0 -2.6 -22.6 -2.75 -22.25 -2.9 -21.85 -3.0 -21.45 -3.1 -21.05 -3.2 -20.65 -3.3 -20.25 -3.35 -19.85 -3.4 -19.45 -3.45 -19.05 -3.5 -18.6 -3.5 -18.2 -3.45 -17.8 -3.45 -17.35 -3.35 -17.25 -3.35 -17.15 -3.35 -17.1 -3.35 -17.0 -3.35 -16.9 -3.35 -16.8 -3.35 -16.75 -3.35 -16.65 -3.4 -16.6 -3.4 -16.5 -3.45 -16.4 -3.5 -16.35 -3.5 -16.25 -3.55 -16.2 -3.6 -16.1 -3.6 -16.0 -3.65 -13.95 -4.7 -11.85 -5.5 -9.75 -6.3 -7.65 -6.8 -5.6 -7.35 -3.45 -7.65 -1.4 -7.95 0.75 -8.0 2.85 -8.05 4.95 -7.85 7.05 -7.65 9.2 -7.25 11.3 -6.85 13.45 -6.2 15.6 -5.6 17.75 -4.75 17.85 -4.7 18.0 -4.65 18.15 -4.55 18.2 -4.55 18.35 -4.5 18.45 -4.45 18.55 -4.4 18.65 -4.4 18.8 -4.35 18.9 -4.35 19.05 -4.3 19.15 -4.3 19.3 -4.3 19.4 -4.3 19.55 -4.3 19.7 -4.3 20.35 -4.45 21.0 -4.5 21.65 -4.5 22.25 -4.5 22.9 -4.45 23.5 -4.35 24.1 -4.25 24.7 -4.05 25.25 -3.9 25.85 -3.7 26.45 -3.45 27.0 -3.2 27.55 -2.95 28.15 -2.6 28.7 -2.35 29.25 -2.0 32.0 -0.35 37.7 4.4 38.55 5.1 39.35 5.75 40.25 6.45 41.05 7.05 41.95 7.7 42.8 8.3 43.7 8.9 44.6 9.4 45.55 10.0 46.45 10.45 47.4 10.95 48.4 11.4 49.4 11.85 50.4 12.2 51.4 12.55 52.5 12.85 53.65 13.2 54.7 13.7 55.7 14.25 56.55 14.9 57.4 15.55 58.05 16.4 58.7 17.2 59.15 18.1 59.55 19.0 59.8 19.95 60.05 20.95 60.05 22.0 60.05 23.0 59.85 24.05 59.65 25.15 59.2 26.2 58.9 26.95 58.5 27.6 58.1 28.2 57.6 28.75 57.15 29.3 56.6 29.75 56.1 30.2 55.5 30.55 54.9 30.9 54.25 31.2 53.6 31.45 52.9 31.65 52.25 31.8 51.5 31.95 50.75 32.05 50.0 32.05 48.5 32.1 47.1 32.0 45.7 31.9 44.4 31.6 43.1 31.35 41.85 30.9 40.6 30.45 39.45 29.85 38.3 29.25 37.2 28.5 36.15 27.75 35.1 26.8 34.1 25.95 33.15 24.9 32.25 23.85 31.35 22.7 31.1 22.35 30.7 21.7 30.2 20.95 30.0 20.75 30.0 20.7 29.8 20.65 29.5 21.85 29.0 22.9 28.5 23.85 27.9 24.7 27.3 25.5 26.5 26.15 25.8 26.8 24.9 27.3 24.1 27.8 23.1 28.2 22.2 28.55 21.15 28.85 20.2 29.15 19.05 29.35 18.1 29.55 16.9 29.8 16.95 29.9 18.0 31.35 18.65 32.25 19.0 32.85 19.35 33.45 19.6 33.95 19.85 34.45 20.0 34.9 20.15 35.4 20.25 35.8 20.3 36.25 20.25 36.7 20.25 37.1 20.1 37.55 20.0 37.95 19.8 38.4 19.55 38.85 19.25 39.3 18.95 39.75 18.5 40.3 18.45 40.4 18.4 40.45 18.35 40.55 18.3 40.6 18.25 40.7 18.25 40.75 18.25 40.8 18.25 40.9 18.25 40.95 18.3 41.0 18.3 41.05 18.35 41.15 18.4 41.2 18.45 41.3 18.45 41.35 18.55 41.45 18.95 42.0 19.2 42.65 19.45 43.3 19.6 44.05 19.8 44.75 19.8 45.5 19.85 46.25 19.8 47.05 19.75 47.8 19.55 48.55 19.4 49.3 19.15 49.95 18.85 50.65 18.5 51.25 18.15 51.85 17.65 52.35 17.4 52.6 17.15 52.85 16.9 53.05 16.65 53.2 16.4 53.35 16.15 53.45 15.9 53.55 15.6 53.65 15.35 53.7 15.1 53.7 14.8 53.7 14.55 53.65 14.25 53.6 13.95 53.45 13.65 53.35 13.3 53.2 13.2 53.15 13.1 53.1 13.05 53.1 12.95 53.05 12.85 53.05 12.8 53.05 12.75 53.05 12.65 53.05 12.6 53.05 12.55 53.1 12.45 53.1 12.4 53.15 12.35 53.2 12.25 53.25 12.2 53.3 12.1 53.4 11.9 53.6 11.7 53.75 11.5 53.9 11.25 54.05 11.05 54.15 10.85 54.25 10.6 54.35 10.35 54.4 10.15 54.45 9.9 54.45 9.65 54.45 9.4 54.45 9.15 54.4 8.9 54.35 8.6 54.3 8.35 54.2 8.25 54.15 8.15 54.15 8.05 54.1 7.95 54.1 7.9 54.05 7.8 54.05 7.7 54.05 7.6 54.05 7.5 54.05 7.4 54.05 7.3 54.05 7.2 54.05 7.15 54.05 7.0 54.05 6.85 54.05 6.8 54.1 5.85 54.15 5.0 54.2 4.05 54.2 3.15 54.25 2.25 54.25 1.35 54.2 0.45 54.2 -0.45 54.15 -1.35 54.1 -2.25 54.0 -3.15 53.95 -4.05 53.8 -4.95 53.7 -5.85 53.5 -6.75 53.35 -7.65 53.15 -7.95 53.05 -8.25 53.0 -8.55 52.9 -8.85 52.8 -9.15 52.7 -9.45 52.6 -9.75 52.45 -10.05 52.35 -10.3 52.2 -10.6 52.05 -10.85 51.9 -11.15 51.7 -11.4 51.55 -11.65 51.35 -11.9 51.15 -12.15 50.95 -12.3 50.85 -12.4 50.75 -12.55 50.65 -12.65 50.55 -12.8 50.5 -12.9 50.45 -13.05 50.4 -13.2 50.4 -13.3 50.35 -13.45 50.35 -13.6 50.35 -13.75 50.35 -13.9 50.35 -14.05 50.4 -14.2 50.45 -14.35 50.5 -15.3 50.8 -16.35 50.85 -17.35 50.95 -18.4 50.8 -19.45 50.7 -20.45 50.4 -21.5 50.1 -22.45 49.6 -23.45 49.15 -24.3 48.55 -25.15 47.95 -25.9 47.25 -26.65 46.55 -27.15 45.75 -27.75 44.9 -28.05 44.0 -28.4 43.0 -28.55 41.95 -28.65 40.9 -28.55 39.85 -28.4 38.8 -28.05 37.75 -27.7 36.7 -27.2 35.75 -26.65 34.75 -25.9 33.9 -25.2 33.0 -24.35 32.3 -23.45 31.55 -22.45 31.0 -21.4 30.45 -20.3 30.1 -19.1 29.8 -18.75 29.7 L-18.75 29.7 M21.85 -2.45 Q21.85 -2.3 21.85 -2.15 21.85 -2.05 21.9 -1.9 21.95 -1.8 22.0 -1.7 22.05 -1.6 22.1 -1.45 22.15 -1.45 22.25 -1.25 22.3 -1.15 22.35 -1.05 22.4 -0.95 22.45 -0.85 22.5 -0.75 22.5 -0.6 22.5 -0.55 22.5 -0.5 22.55 -0.4 22.55 -0.35 22.55 -0.3 22.55 -0.25 22.6 -0.2 22.6 -0.1 22.6 -0.05 22.6 0.0 22.6 0.05 22.55 0.1 22.55 0.15 22.55 0.2 22.55 0.25 22.5 0.3 22.45 0.35 22.35 0.4 22.3 0.45 22.25 0.45 22.2 0.45 22.1 0.4 22.05 0.4 22.0 0.35 21.95 0.35 21.9 0.3 21.85 0.25 21.8 0.2 21.65 0.05 21.7 0.1 21.6 0.05 21.6 0.0 21.4 -0.15 21.2 -0.3 21.05 -0.45 20.8 -0.6 20.85 -0.6 20.45 -0.95 20.2 -1.1 20.05 -1.25 19.85 -1.4 19.65 -1.55 19.45 -1.7 19.25 -1.85 19.05 -1.95 18.85 -2.1 18.6 -2.2 18.4 -2.3 16.7 -3.1 14.95 -3.7 13.2 -4.3 11.5 -4.75 9.75 -5.25 8.0 -5.5 6.25 -5.8 4.5 -5.95 2.7 -6.05 0.95 -6.0 -0.8 -5.95 -2.6 -5.75 -4.4 -5.55 -6.2 -5.15 -8.0 -4.75 -9.8 -4.2 -10.55 -4.0 -11.2 -3.7 -11.95 -3.45 -12.6 -3.2 -13.3 -2.9 -13.95 -2.55 -14.65 -2.25 -15.3 -1.9 -15.95 -1.5 -16.55 -1.1 -17.2 -0.7 -17.8 -0.25 -18.4 0.15 -19.0 0.65 -19.55 1.15 -20.1 1.65 -20.15 1.7 -20.2 1.75 -20.3 1.85 -20.35 1.9 -20.4 1.95 -20.45 2.0 -20.5 2.05 -20.6 2.1 -20.65 2.1 -20.7 2.15 -20.8 2.15 -20.85 2.15 -20.95 2.15 -21.0 2.15 -21.1 2.1 -21.2 2.05 -21.3 2.0 -21.35 1.9 -21.4 1.8 -21.45 1.75 -21.45 1.65 -21.45 1.6 -21.45 1.5 -21.45 1.4 -21.45 1.35 -21.4 1.25 -21.35 1.2 -21.35 1.1 -21.3 1.0 -21.25 0.95 -21.15 0.8 -21.15 0.75 -21.1 0.7 -21.0 0.5 -20.9 0.35 -20.85 0.2 -20.8 0.15 -20.75 0.05 -20.7 0.0 -20.6 -0.1 -20.6 -0.1 -20.45 -0.25 -20.4 -0.35 -20.35 -0.4 -20.25 -0.5 -20.2 -0.55 -20.15 -0.65 -20.15 -0.75 -20.15 -0.8 -20.15 -0.9 -20.2 -1.0 -20.25 -1.1 -20.3 -1.15 -20.4 -1.2 -20.45 -1.25 -20.55 -1.25 -20.65 -1.3 -20.75 -1.3 -20.85 -1.3 -20.95 -1.25 -21.05 -1.25 -21.15 -1.2 -21.25 -1.2 -21.35 -1.15 -21.45 -1.1 -21.55 -1.05 -22.1 -0.85 -21.75 -1.0 -22.0 -0.9 -22.55 -0.7 -23.1 -0.5 -23.35 -0.4 -24.0 -0.1 -24.7 0.2 -25.35 0.5 -26.0 0.85 -26.65 1.2 -27.3 1.55 -27.9 1.9 -28.55 2.3 -29.15 2.65 -29.8 3.05 -30.4 3.45 -31.0 3.85 -31.6 4.25 -32.25 4.65 -32.75 5.05 -33.45 5.5 -34.45 6.2 -35.5 6.85 -36.5 7.55 -37.55 8.15 -38.6 8.8 -39.7 9.35 -40.75 9.95 -41.85 10.5 -42.95 11.05 -44.05 11.5 -45.15 12.0 -46.3 12.45 -47.45 12.9 -48.6 13.3 -49.75 13.75 -50.9 14.1 -51.55 14.3 -52.0 14.4 -52.55 14.6 -53.05 14.75 -53.6 14.95 -54.1 15.15 -54.65 15.35 -55.15 15.55 -55.7 15.75 -56.2 16.0 -56.7 16.2 -57.2 16.5 -57.7 16.75 -58.15 17.05 -58.65 17.35 -59.1 17.7 -60.05 18.4 -60.75 19.3 -61.45 20.15 -61.85 21.15 -62.3 22.05 -62.45 23.05 -62.6 24.05 -62.5 25.05 -62.4 26.05 -62.0 26.95 -61.65 27.9 -61.0 28.7 -60.4 29.55 -59.55 30.25 -58.65 30.95 -57.55 31.4 -56.85 31.7 -56.1 31.95 -55.4 32.2 -54.65 32.4 -53.9 32.6 -53.15 32.7 -52.4 32.8 -51.65 32.9 -50.95 32.95 -50.15 32.95 -49.45 32.95 -48.65 32.9 -47.9 32.8 -47.15 32.7 -46.4 32.6 -45.65 32.45 -44.3 32.15 -43.0 31.75 -41.7 31.35 -40.5 30.8 -39.3 30.25 -38.15 29.6 -37.0 28.95 -35.9 28.2 -34.85 27.5 -33.8 26.65 -32.8 25.85 -31.8 24.9 -30.9 24.0 -29.9 23.0 -29.05 22.1 -28.1 21.0 -27.85 20.7 -27.6 20.4 -27.4 20.1 -27.2 19.8 -27.0 19.5 -26.85 19.15 -26.65 18.85 -26.5 18.5 -26.4 18.2 -26.25 17.85 -26.15 17.5 -26.1 17.15 -26.0 16.8 -25.95 16.4 -25.85 16.05 -25.85 15.65 -25.8 15.25 -25.75 14.85 -25.65 14.45 -25.55 14.05 -25.45 13.65 -25.3 13.3 -25.2 12.9 -25.0 12.55 -24.85 12.15 -24.65 11.8 -24.5 11.45 -24.3 11.1 -24.1 10.75 -23.85 10.4 -23.65 10.05 -23.4 9.7 -23.35 9.6 -23.25 9.55 -23.2 9.45 -23.1 9.35 -23.05 9.3 -22.95 9.2 -22.85 9.15 -22.75 9.1 -22.65 9.05 -22.55 9.0 -22.45 9.0 -22.35 8.95 -22.25 8.95 -22.15 9.0 -22.05 9.0 -21.95 9.1 -21.85 9.15 -21.8 9.25 -21.75 9.3 -21.7 9.4 -21.7 9.5 -21.7 9.6 -21.7 9.7 -21.75 9.8 -21.75 9.85 -21.8 9.95 -21.85 10.05 -21.9 10.15 -21.95 10.2 -22.05 10.35 -22.1 10.45 -22.1 10.5 -22.3 10.85 -22.45 11.15 -22.65 11.5 -22.8 11.85 -22.95 12.2 -23.1 12.55 -23.25 12.85 -23.35 13.2 -23.5 13.55 -23.6 13.95 -23.7 14.3 -23.8 14.65 -23.9 15.0 -24.0 15.35 -24.1 15.75 -24.2 16.1 -24.45 17.35 -24.55 18.4 -24.65 19.5 -24.55 20.45 -24.45 21.4 -24.2 22.2 -23.95 23.05 -23.55 23.75 -23.1 24.5 -22.5 25.1 -21.9 25.7 -21.05 26.25 -20.3 26.75 -19.25 27.2 -18.3 27.65 -17.1 28.0 -16.7 28.15 -16.25 28.25 -15.85 28.35 -15.4 28.45 -15.0 28.55 -14.55 28.65 -14.15 28.7 -13.7 28.75 -13.25 28.85 -12.85 28.9 -12.4 28.95 -12.0 28.95 -11.55 29.0 -11.1 29.05 -10.7 29.05 -10.25 29.05 -8.75 29.1 -7.3 29.15 -5.8 29.15 -4.35 29.15 -2.9 29.15 -1.4 29.15 0.05 29.1 1.55 29.05 3.0 29.0 4.45 28.9 5.95 28.85 7.4 28.75 8.9 28.6 10.35 28.5 11.8 28.35 13.3 28.2 13.7 28.15 14.45 28.05 15.2 28.0 15.6 27.95 16.25 27.85 16.75 27.8 17.35 27.7 17.9 27.6 18.5 27.5 19.0 27.4 19.6 27.25 20.15 27.15 20.75 26.95 21.25 26.8 21.85 26.6 22.35 26.35 23.2 26.0 23.9 25.6 24.6 25.15 25.2 24.7 25.75 24.2 26.2 23.65 26.7 23.1 27.0 22.5 27.35 21.85 27.55 21.2 27.75 20.5 27.85 19.75 27.95 19.0 27.9 18.2 27.85 17.4 27.65 16.55 27.55 16.1 27.45 15.65 27.35 15.2 27.2 14.75 27.1 14.3 26.95 13.85 26.8 13.4 26.6 13.0 26.45 12.55 26.25 12.15 26.05 11.7 25.85 11.3 25.65 10.9 25.4 10.5 25.15 10.1 24.9 9.7 24.85 9.65 24.8 9.55 24.75 9.45 24.75 9.45 24.7 9.35 24.65 9.3 24.6 9.2 24.6 9.15 24.55 9.05 24.55 9.0 24.55 8.9 24.55 8.85 24.6 8.75 24.6 8.7 24.65 8.6 24.7 8.55 24.8 8.45 24.9 8.4 24.95 8.35 25.05 8.35 25.15 8.35 25.25 8.35 25.3 8.4 25.4 8.4 25.45 8.45 25.55 8.5 25.6 8.55 25.65 8.65 25.75 8.65 25.8 8.75 25.9 8.85 25.9 8.85 26.15 9.1 26.4 9.35 26.65 9.6 26.85 9.9 27.05 10.15 27.25 10.45 27.45 10.7 27.65 11.05 27.8 11.3 27.95 11.65 28.1 11.95 28.25 12.25 28.4 12.55 28.55 12.9 28.65 13.2 28.75 13.55 28.95 14.1 29.15 14.7 29.4 15.25 29.65 15.8 29.9 16.35 30.15 16.9 30.4 17.4 30.7 17.95 31.0 18.45 31.3 19.0 31.6 19.5 31.95 20.0 32.25 20.5 32.6 21.0 32.95 21.5 33.3 22.0 33.9 22.8 34.55 23.55 35.15 24.25 35.85 24.9 36.55 25.55 37.3 26.15 38.05 26.7 38.85 27.2 39.65 27.7 40.45 28.15 41.3 28.55 42.2 28.9 43.1 29.2 44.05 29.5 44.95 29.75 45.95 29.9 46.35 30.0 46.8 30.05 47.2 30.1 47.6 30.15 48.0 30.2 48.45 30.2 48.85 30.2 49.25 30.2 49.7 30.2 50.1 30.15 50.5 30.1 50.9 30.05 51.3 30.0 51.7 29.9 52.15 29.8 52.55 29.7 53.15 29.5 53.75 29.25 54.3 28.95 54.8 28.6 55.3 28.3 55.75 27.85 56.15 27.45 56.5 27.0 56.85 26.55 57.15 26.0 57.4 25.5 57.6 24.95 57.8 24.4 57.9 23.8 58.0 23.2 58.0 22.55 58.0 21.85 57.95 21.2 57.85 20.55 57.65 19.95 57.5 19.35 57.25 18.8 56.95 18.25 56.6 17.75 56.25 17.25 55.85 16.85 55.4 16.4 54.85 16.05 54.35 15.7 53.75 15.4 53.15 15.1 52.45 14.85 52.05 14.7 51.6 14.55 51.25 14.45 50.75 14.3 49.95 14.05 49.9 14.05 49.45 13.9 49.05 13.8 48.6 13.65 48.25 13.5 47.8 13.35 47.4 13.2 46.95 13.0 46.6 12.85 46.15 12.65 45.8 12.45 45.15 12.1 44.55 11.75 43.95 11.4 43.35 11.0 42.75 10.65 42.15 10.25 41.55 9.85 40.95 9.4 40.4 9.0 39.8 8.6 39.25 8.2 38.7 7.75 38.15 7.3 37.55 6.85 37.0 6.4 36.45 5.95 37.05 6.45 35.25 4.95 34.55 4.35 34.05 3.9 33.4 3.35 32.8 2.9 32.15 2.4 31.6 1.95 30.9 1.45 30.3 1.0 29.65 0.55 29.0 0.15 28.3 -0.3 27.65 -0.65 26.95 -1.05 26.2 -1.4 25.9 -1.55 25.7 -1.65 25.4 -1.75 25.2 -1.85 24.9 -2.0 24.65 -2.05 24.4 -2.15 24.15 -2.25 23.85 -2.3 23.6 -2.4 23.3 -2.45 23.05 -2.45 22.75 -2.5 22.45 -2.5 22.15 -2.5 21.85 -2.45 L21.85 -2.45 M-0.05 31.05 Q-7.35 31.1 -9.0 31.05 -9.15 31.05 -9.3 31.05 -9.45 31.05 -9.6 31.1 -9.7 31.1 -9.8 31.15 -9.9 31.2 -10.0 31.25 -10.1 31.3 -10.2 31.4 -10.25 31.45 -10.3 31.6 -10.4 31.7 -10.45 31.8 -10.5 31.95 -10.55 32.1 -10.8 33.1 -11.7 36.55 -12.45 39.25 -12.8 40.95 -13.05 42.15 -13.15 43.15 -13.2 44.2 -13.15 45.05 -13.05 45.95 -12.85 46.7 -12.6 47.5 -12.2 48.1 -11.75 48.75 -11.2 49.25 -10.6 49.8 -9.85 50.2 -9.1 50.6 -8.15 50.95 -7.2 51.25 -6.05 51.5 -5.4 51.65 -4.75 51.75 -4.1 51.85 -3.45 51.95 -2.8 52.0 -2.15 52.1 -1.5 52.15 -0.8 52.2 -0.15 52.25 0.5 52.3 1.15 52.3 1.8 52.3 2.45 52.35 3.15 52.3 3.8 52.3 4.45 52.3 4.65 52.3 4.8 52.3 4.95 52.25 5.05 52.25 5.2 52.2 5.25 52.2 5.35 52.15 5.4 52.1 5.45 52.0 5.45 51.95 5.45 51.85 5.45 51.75 5.4 51.65 5.35 51.5 5.3 51.35 5.15 51.15 5.05 50.95 4.9 50.75 4.8 50.5 4.7 50.3 4.65 50.1 4.55 49.9 4.45 49.65 4.4 49.45 4.35 49.2 4.3 49.0 4.25 48.75 4.25 48.5 4.2 48.25 4.25 48.05 4.25 47.8 4.25 47.55 4.25 47.45 4.3 47.35 4.3 47.25 4.35 47.15 4.35 47.05 4.4 46.95 4.45 46.9 4.5 46.8 4.55 46.7 4.65 46.65 4.7 46.6 4.8 46.55 4.85 46.5 4.95 46.45 5.05 46.45 5.2 46.45 5.35 46.45 5.4 46.45 5.5 46.5 5.55 46.55 5.65 46.6 5.65 46.65 5.7 46.7 5.75 46.8 5.75 46.85 5.75 46.95 5.75 47.05 5.75 47.15 5.75 47.3 5.75 47.35 5.75 47.45 5.8 47.5 5.85 47.8 5.9 48.1 5.95 48.4 6.05 48.65 6.15 48.95 6.25 49.2 6.35 49.5 6.5 49.75 6.6 50.0 6.75 50.25 6.9 50.5 7.1 50.75 7.25 51.0 7.45 51.2 7.65 51.45 7.85 51.65 8.1 51.9 8.35 52.1 8.6 52.25 8.85 52.35 9.1 52.45 9.35 52.5 9.6 52.55 9.85 52.5 10.05 52.45 10.3 52.35 10.5 52.2 10.7 52.05 10.9 51.85 11.05 51.6 11.2 51.35 11.35 51.05 11.55 50.6 11.65 50.1 11.8 49.65 11.85 49.2 11.95 48.75 12.0 48.25 12.0 47.8 12.0 47.35 12.0 46.9 11.9 46.4 11.85 45.95 11.75 45.5 11.65 45.05 11.5 44.6 11.35 44.15 11.15 43.65 11.15 43.6 11.1 43.55 11.05 43.45 11.05 43.4 11.0 43.3 10.95 43.25 10.9 43.2 10.9 43.15 10.85 43.05 10.8 43.0 10.75 42.95 10.7 42.95 10.65 42.9 10.6 42.9 10.5 42.85 10.45 42.9 10.2 42.95 9.9 42.95 9.7 42.95 9.35 42.9 9.3 42.9 8.8 42.85 8.5 42.85 8.25 42.85 8.0 42.8 7.75 42.85 7.45 42.85 7.2 42.9 6.9 42.95 6.7 43.1 6.4 43.2 6.15 43.35 6.0 43.5 5.85 43.55 5.7 43.65 5.55 43.75 5.45 43.8 5.3 43.8 5.2 43.85 5.1 43.8 5.05 43.8 4.95 43.7 4.9 43.65 4.85 43.5 4.85 43.35 4.85 43.15 4.8 42.95 4.85 42.7 4.85 42.6 4.85 42.5 4.85 42.4 4.8 42.35 4.8 42.3 4.75 42.25 4.7 42.2 4.65 42.15 4.55 42.1 4.5 42.05 4.45 42.05 4.35 42.0 4.35 42.0 4.2 41.95 4.15 41.9 4.1 41.9 3.8 41.75 3.15 41.5 2.5 41.25 2.2 41.1 2.3 41.15 1.95 40.95 1.8 40.9 1.7 40.85 1.55 40.75 1.45 40.7 1.35 40.6 1.25 40.5 1.15 40.4 1.1 40.3 1.05 40.2 1.05 40.05 1.0 39.95 1.05 39.8 1.1 39.65 1.15 39.5 1.25 39.35 1.35 39.2 1.45 39.1 1.55 39.05 1.7 38.95 1.8 38.95 1.95 38.95 2.05 38.95 2.2 38.95 2.3 39.0 2.45 39.05 2.55 39.15 2.7 39.2 2.8 39.25 2.9 39.3 3.05 39.4 3.35 39.6 3.65 39.75 4.0 39.9 4.3 40.05 4.6 40.2 4.95 40.3 5.25 40.45 5.6 40.55 5.9 40.65 6.25 40.75 6.55 40.85 6.9 40.9 7.25 41.0 7.6 41.05 7.95 41.1 8.25 41.15 8.45 41.15 8.7 41.15 8.9 41.15 9.1 41.15 9.35 41.15 9.55 41.1 9.75 41.05 9.95 40.95 10.15 40.9 10.3 40.8 10.45 40.7 10.6 40.55 10.75 40.4 10.9 40.25 11.0 40.05 11.1 39.85 11.2 39.6 11.2 39.4 11.25 39.2 11.2 39.0 11.2 38.8 11.1 38.6 11.05 38.45 10.9 38.25 10.8 38.1 10.65 37.95 10.5 37.85 10.35 37.7 10.15 37.55 10.0 37.45 9.8 37.35 9.6 37.2 8.85 36.75 7.6 36.15 6.0 35.3 5.55 35.1 5.5 35.05 5.4 35.0 5.5 35.05 5.2 34.9 5.1 34.85 5.0 34.85 4.9 34.8 4.85 34.7 4.75 34.65 4.7 34.6 4.65 34.55 4.6 34.45 4.55 34.35 4.55 34.25 4.55 34.15 4.6 34.05 4.65 33.9 4.7 33.8 4.75 33.75 4.85 33.65 4.95 33.6 5.05 33.55 5.1 33.55 5.25 33.5 5.35 33.5 5.45 33.5 5.55 33.5 5.65 33.55 5.75 33.55 5.9 33.55 6.0 33.6 6.1 33.6 6.4 33.65 6.7 33.75 7.0 33.85 7.3 33.95 7.55 34.05 7.85 34.15 8.15 34.3 8.4 34.4 8.7 34.55 8.95 34.65 9.25 34.8 9.5 34.95 9.75 35.1 10.05 35.25 10.3 35.4 10.55 35.6 10.7 35.7 10.75 35.75 10.9 35.8 11.0 35.85 11.1 35.9 11.15 35.9 11.25 35.95 11.35 35.95 11.45 35.9 11.5 35.9 11.6 35.85 11.65 35.75 11.7 35.7 11.8 35.55 11.85 35.45 11.9 35.25 11.95 35.15 12.0 35.05 12.05 34.95 12.1 34.85 12.15 34.75 12.2 34.65 12.25 34.55 12.35 34.45 12.4 34.35 12.5 34.25 12.6 34.2 12.7 34.1 12.75 34.0 12.85 33.95 12.95 33.9 13.05 33.8 13.15 33.75 13.25 33.7 13.35 33.65 13.45 33.6 13.55 33.6 13.65 33.6 13.75 33.55 13.85 33.55 13.9 33.6 14.0 33.6 14.1 33.6 14.2 33.65 14.25 33.7 14.35 33.75 14.45 33.8 14.5 33.9 14.6 34.0 14.65 34.05 14.65 34.15 14.7 34.2 14.7 34.3 14.65 34.35 14.65 34.4 14.6 34.5 14.55 34.55 14.5 34.6 14.45 34.65 14.4 34.7 14.35 34.8 14.3 34.85 14.25 34.9 14.2 34.95 14.05 35.2 13.95 35.4 13.8 35.6 13.7 35.8 13.6 36.05 13.5 36.25 13.4 36.5 13.35 36.7 13.25 36.95 13.2 37.2 13.15 37.45 13.1 37.65 13.1 37.9 13.1 38.15 13.05 38.4 13.1 38.65 13.1 38.8 13.15 38.95 13.15 39.1 13.2 39.25 13.25 39.4 13.35 39.5 13.4 39.65 13.5 39.75 13.55 39.85 13.65 39.95 13.8 40.05 13.9 40.1 14.05 40.15 14.2 40.2 14.35 40.25 14.55 40.25 14.95 40.25 15.35 40.15 15.75 40.05 16.1 39.85 16.5 39.65 16.8 39.35 17.15 39.05 17.4 38.7 17.65 38.35 17.85 37.95 18.05 37.55 18.15 37.15 18.25 36.75 18.25 36.35 18.25 35.9 18.1 35.55 18.0 35.25 17.9 34.95 17.75 34.65 17.6 34.4 17.45 34.1 17.3 33.85 17.15 33.55 16.95 33.3 16.8 33.05 16.6 32.8 16.45 32.55 16.25 32.25 16.1 32.1 15.85 31.75 15.5 31.35 15.45 31.25 15.3 31.05 15.15 30.9 15.0 30.75 14.85 30.65 14.7 30.5 14.55 30.4 14.4 30.35 14.2 30.25 14.05 30.2 13.85 30.15 13.65 30.1 13.45 30.1 13.25 30.1 13.05 30.1 12.85 30.1 12.6 30.15 9.85 30.55 6.1 30.75 37.75 28.95 -0.05 31.05 L-0.05 31.05 M-16.9 48.9 Q-17.05 48.95 -16.65 48.9 -16.2 48.9 -15.95 48.85 -15.6 48.85 -15.4 48.8 -15.15 48.75 -15.0 48.7 -14.85 48.65 -14.8 48.5 -14.7 48.4 -14.65 48.25 -14.6 48.1 -14.65 47.85 -14.65 47.65 -14.7 47.35 -14.75 47.1 -14.8 46.65 -14.85 46.5 -14.85 46.4 -14.9 46.25 -14.9 46.1 -14.95 45.95 -14.95 45.85 -15.0 45.7 -15.0 45.55 -15.0 45.4 -15.05 45.3 -15.05 45.15 -15.05 45.0 -15.05 44.85 -15.05 44.75 -15.05 44.6 -15.05 44.45 -15.05 44.25 -15.05 44.1 -15.05 43.9 -15.05 43.75 -15.1 43.6 -15.15 43.5 -15.2 43.35 -15.25 43.25 -15.3 43.15 -15.4 43.05 -15.5 43.0 -15.65 42.9 -15.8 42.85 -16.0 42.8 -16.2 42.75 -16.4 42.7 -16.7 42.65 -17.0 42.55 -17.3 42.45 -17.55 42.3 -17.85 42.15 -18.05 41.95 -18.3 41.75 -18.5 41.5 -18.65 41.3 -18.8 41.0 -18.95 40.75 -19.05 40.45 -19.15 40.15 -19.2 39.85 -19.25 39.55 -19.2 39.25 -19.2 39.2 -19.2 38.9 -19.2 38.65 -19.2 38.5 -19.2 38.3 -19.15 38.15 -19.15 37.95 -19.1 37.8 -19.0 37.65 -18.95 37.5 -18.85 37.35 -18.7 37.25 -18.6 37.15 -18.4 37.1 -18.2 37.1 -17.95 37.1 -17.7 37.1 -17.55 37.15 -17.4 37.2 -17.3 37.3 -17.2 37.4 -17.15 37.55 -17.1 37.65 -17.1 37.8 -17.1 37.95 -17.1 38.1 -17.1 38.25 -17.15 38.45 -17.15 38.5 -17.2 38.75 -17.25 38.95 -17.25 39.1 -17.25 39.15 -17.25 39.2 -17.25 39.25 -17.25 39.3 -17.25 39.35 -17.25 39.4 -17.2 39.6 -17.15 39.75 -17.1 39.9 -17.05 40.05 -17.0 40.15 -16.9 40.3 -16.8 40.4 -16.7 40.5 -16.6 40.6 -16.45 40.65 -16.3 40.7 -16.15 40.75 -16.05 40.8 -15.85 40.85 -15.7 40.9 -15.5 40.9 -15.3 40.9 -15.2 40.9 -15.05 40.85 -14.95 40.8 -14.85 40.75 -14.8 40.7 -14.75 40.6 -14.7 40.5 -14.65 40.4 -14.65 40.3 -14.65 40.2 -14.6 40.05 -14.6 39.9 -14.6 39.85 -14.55 39.7 -14.55 39.6 -14.35 38.85 -13.95 37.35 -13.55 35.8 -13.3 35.05 -13.25 34.9 -13.25 34.75 -13.2 34.6 -13.2 34.45 -13.2 34.3 -13.2 34.15 -13.25 34.0 -13.25 33.9 -13.3 33.75 -13.4 33.65 -13.45 33.55 -13.55 33.45 -13.65 33.3 -13.75 33.2 -13.85 33.1 -14.0 33.0 -14.15 32.9 -14.25 32.85 -14.4 32.75 -14.5 32.7 -14.65 32.6 -14.75 32.55 -14.9 32.5 -15.0 32.4 -15.15 32.35 -15.3 32.3 -15.4 32.25 -15.55 32.15 -15.7 32.1 -15.85 32.05 -16.0 32.0 -16.1 32.0 -16.8 31.8 -17.5 31.8 -18.2 31.75 -18.95 31.85 -19.65 32.0 -20.35 32.25 -21.05 32.5 -21.7 32.9 -22.4 33.25 -23.0 33.75 -23.65 34.3 -24.15 34.9 -24.7 35.5 -25.15 36.2 -25.6 36.9 -25.95 37.65 -26.25 38.3 -26.4 38.95 -26.55 39.6 -26.6 40.2 -26.7 40.85 -26.65 41.45 -26.55 42.1 -26.4 42.65 -26.25 43.25 -26.0 43.8 -25.7 44.35 -25.35 44.9 -25.0 45.4 -24.5 45.85 -24.05 46.35 -23.45 46.75 -23.1 47.0 -22.75 47.2 -22.35 47.45 -22.0 47.65 -21.6 47.85 -21.25 48.0 -20.85 48.15 -20.45 48.3 -20.05 48.45 -19.6 48.55 -19.2 48.65 -18.75 48.75 -18.3 48.8 -17.85 48.85 -17.35 48.9 -16.9 48.9 L-16.9 48.9 M13.8 48.7 Q13.8 49.2 13.75 49.45 13.7 49.65 13.7 49.8 13.65 49.95 13.65 50.1 13.65 50.3 13.65 50.45 13.65 50.6 13.7 50.75 13.75 50.85 13.8 51.0 13.85 51.15 13.95 51.25 14.05 51.35 14.2 51.45 14.35 51.55 14.5 51.65 14.7 51.7 14.85 51.75 15.0 51.75 15.2 51.75 15.35 51.75 15.45 51.7 15.6 51.6 15.75 51.55 15.85 51.45 15.95 51.35 16.05 51.25 16.2 51.1 16.25 51.0 16.4 50.85 16.45 50.75 16.55 50.6 16.85 50.2 17.1 49.75 17.3 49.3 17.5 48.85 17.65 48.4 17.75 47.95 17.85 47.5 17.85 47.0 17.9 46.55 17.9 46.05 17.85 45.6 17.8 45.15 17.75 44.65 17.6 44.2 17.5 43.7 17.35 43.25 17.25 43.0 17.15 42.8 17.05 42.6 16.9 42.5 16.75 42.35 16.6 42.3 16.4 42.2 16.2 42.15 16.05 42.15 15.85 42.15 15.65 42.15 15.4 42.15 15.2 42.2 15.0 42.25 14.8 42.3 14.55 42.35 14.35 42.4 14.2 42.5 14.0 42.55 13.85 42.65 13.75 42.75 13.6 42.85 13.5 42.95 13.45 43.1 13.35 43.25 13.35 43.35 13.3 43.5 13.3 43.7 13.3 43.85 13.35 44.05 13.35 44.25 13.45 44.5 13.55 44.75 13.6 45.0 13.65 45.25 13.7 45.5 13.75 45.75 13.8 46.05 13.85 46.3 13.85 46.55 13.9 46.8 13.9 47.1 13.9 47.35 13.9 47.6 13.9 47.9 13.85 48.15 13.85 48.4 13.8 48.7 L13.8 48.7" fill="#0d0d0d" fill-rule="evenodd" stroke="none"/>
    <path d="M9.8 20.6 Q9.55 20.5 9.25 20.4 9.0 20.35 8.75 20.3 8.45 20.3 8.2 20.3 7.9 20.3 7.6 20.35 7.35 20.4 7.05 20.45 6.8 20.5 6.45 20.6 6.25 20.65 5.9 20.75 5.35 20.85 5.3 20.9 5.05 20.95 4.8 21.0 4.55 21.0 4.3 20.95 4.1 20.9 3.85 20.85 3.65 20.75 3.45 20.65 3.25 20.55 3.1 20.4 2.9 20.25 2.8 20.05 2.65 19.9 2.55 19.7 2.5 19.5 2.45 19.3 2.45 19.2 2.4 19.1 2.4 19.0 2.4 18.9 2.4 18.85 2.45 18.75 2.45 18.65 2.5 18.6 2.5 18.5 2.55 18.45 2.6 18.4 2.65 18.3 2.75 18.25 2.8 18.2 2.9 18.15 3.0 18.1 3.1 18.05 3.15 18.05 3.25 18.05 3.3 18.05 3.4 18.05 3.45 18.05 3.55 18.05 3.6 18.1 3.65 18.15 3.7 18.2 3.75 18.25 3.8 18.3 3.85 18.35 3.9 18.45 3.95 18.5 3.95 18.6 4.0 18.8 4.1 18.9 4.15 19.05 4.25 19.15 4.3 19.25 4.4 19.3 4.5 19.35 4.6 19.35 4.75 19.4 4.85 19.4 4.95 19.4 5.1 19.35 5.2 19.35 5.35 19.3 5.45 19.25 5.55 19.2 5.8 19.1 6.05 19.0 6.35 18.9 6.6 18.8 6.85 18.75 7.1 18.7 7.35 18.65 7.6 18.65 7.85 18.65 8.15 18.65 8.4 18.65 8.65 18.7 8.9 18.75 9.2 18.8 9.45 18.85 9.7 18.95 9.8 19.0 9.9 19.0 9.95 19.05 10.05 19.05 10.15 19.05 10.2 19.05 10.3 19.05 10.4 19.0 10.45 19.0 10.55 18.95 10.6 18.9 10.65 18.85 10.7 18.8 10.75 18.7 10.8 18.6 10.85 18.45 10.85 18.35 10.9 18.25 10.95 18.15 11.0 18.05 11.05 17.95 11.1 17.9 11.15 17.8 11.2 17.8 11.3 17.75 11.35 17.7 11.45 17.7 11.55 17.7 11.65 17.7 11.75 17.7 11.85 17.75 11.95 17.8 12.05 17.85 12.15 17.95 12.25 18.0 12.3 18.1 12.4 18.15 12.4 18.25 12.45 18.35 12.45 18.45 12.5 18.55 12.5 18.65 12.5 18.8 12.45 18.9 12.45 19.0 12.4 19.1 12.35 19.2 12.35 19.3 12.25 19.5 12.15 19.65 12.05 19.8 11.95 19.95 11.85 20.05 11.7 20.15 11.55 20.25 11.4 20.35 11.25 20.4 11.05 20.5 10.85 20.55 10.65 20.55 10.45 20.6 10.25 20.6 10.0 20.6 9.8 20.6 L9.8 20.6" fill="#0d0d0d" fill-rule="evenodd" stroke="none"/>
    <path d="M-5.95 14.0 Q-5.85 14.0 -5.7 14.0 -5.6 14.0 -5.5 14.0 -5.4 14.0 -5.35 14.0 -5.25 14.05 -5.2 14.1 -5.1 14.1 -5.05 14.15 -5.0 14.2 -4.95 14.25 -4.9 14.3 -4.85 14.4 -4.8 14.45 -4.8 14.55 -4.75 14.65 -4.75 14.75 -4.75 14.85 -4.75 14.95 -4.75 15.05 -4.75 15.1 -4.8 15.2 -4.8 15.25 -4.85 15.35 -4.9 15.4 -4.95 15.5 -5.05 15.55 -5.1 15.6 -5.15 15.65 -5.25 15.7 -5.35 15.7 -9.0 16.8 -12.3 17.65 -12.4 17.65 -12.45 17.7 -12.55 17.7 -12.6 17.7 -12.7 17.65 -12.75 17.65 -12.85 17.6 -12.9 17.6 -12.95 17.55 -13.05 17.5 -13.1 17.45 -13.15 17.35 -13.2 17.3 -13.25 17.2 -13.25 17.15 -13.3 17.05 -13.35 16.95 -13.35 16.85 -13.35 16.75 -13.35 16.7 -13.35 16.6 -13.35 16.5 -13.3 16.4 -13.3 16.35 -13.25 16.25 -13.2 16.2 -13.15 16.1 -13.1 16.05 -13.05 16.0 -12.95 15.95 -12.85 15.9 -12.75 15.9 -11.4 15.5 -5.95 14.0 L-5.95 14.0" fill="#0d0d0d" fill-rule="evenodd" stroke="none"/>
    <path d="M18.0 12.3 Q22.3 13.6 22.65 13.7 22.75 13.75 22.85 13.8 22.95 13.85 23.0 13.9 23.1 13.95 23.15 14.0 23.25 14.05 23.3 14.15 23.35 14.2 23.35 14.3 23.4 14.4 23.4 14.45 23.4 14.55 23.4 14.7 23.35 14.8 23.35 14.9 23.3 15.0 23.25 15.1 23.2 15.2 23.1 15.3 23.05 15.35 23.0 15.4 22.9 15.45 22.8 15.5 22.75 15.5 22.65 15.55 22.55 15.55 22.45 15.55 22.35 15.55 22.25 15.55 22.15 15.5 22.05 15.5 21.2 15.25 19.65 14.8 17.95 14.35 17.25 14.1 17.15 14.05 17.05 14.05 16.95 14.0 16.85 13.95 16.75 13.9 16.7 13.85 16.65 13.8 16.55 13.75 16.5 13.7 16.45 13.6 16.45 13.5 16.4 13.45 16.4 13.35 16.4 13.25 16.4 13.15 16.4 13.0 16.4 12.85 16.45 12.75 16.5 12.65 16.55 12.55 16.65 12.5 16.7 12.45 16.8 12.35 16.9 12.35 17.0 12.3 17.1 12.3 17.25 12.25 17.35 12.25 17.5 12.25 17.65 12.25 17.8 12.3 18.0 12.3 L18.0 12.3" fill="#0d0d0d" fill-rule="evenodd" stroke="none"/>
  </g>
</svg>
