<?xml version="1.0" encoding="UTF-8" standalone="no"?>
<svg xmlns:xlink="http://www.w3.org/1999/xlink" height="16.55px" width="17.6px" xmlns="http://www.w3.org/2000/svg">
  <g transform="matrix(1.0, 0.0, 0.0, 1.0, 8.8, 8.1)">
    <path d="M-7.6 6.7 Q-7.35 6.5 -7.1 6.3 -6.85 6.1 -6.6 5.9 -6.35 5.65 -6.1 5.45 -5.9 5.2 -5.65 5.0 -5.45 4.75 -5.2 4.55 -5.0 4.3 -4.8 4.05 -4.6 3.8 -4.4 3.55 -4.2 3.3 -4.0 3.05 -4.5 2.4 -5.4 1.1 -5.5 1.15 -5.6 1.2 -5.65 1.25 -5.75 1.35 -5.7 1.3 -5.95 1.5 -6.05 1.55 -6.1 1.6 -6.2 1.7 -6.3 1.75 -6.4 1.8 -6.5 1.85 -6.6 1.9 -6.7 1.9 -6.85 1.95 -6.95 1.95 -6.75 1.7 -6.5 1.35 -6.15 0.95 -6.05 0.8 -5.85 0.55 -5.8 0.45 -5.65 0.25 -5.5 0.1 -5.35 -0.1 -5.25 -0.25 -5.1 -0.45 -5.0 -0.6 -4.85 -0.8 -4.75 -1.0 -4.6 -1.2 -4.5 -1.35 -4.4 -1.55 -4.3 -1.75 -4.15 -1.95 -4.05 -2.15 -4.0 -2.25 -3.95 -2.4 -3.9 -2.5 -3.9 -2.65 -3.85 -2.75 -3.8 -2.9 -3.8 -3.05 -3.75 -3.15 -3.7 -3.3 -3.7 -3.45 -3.7 -3.6 -3.7 -3.7 -3.65 -3.85 -3.7 -4.0 -3.7 -4.1 -3.7 -4.2 -3.85 -4.15 -4.0 -4.1 -4.15 -4.05 -4.3 -4.0 -4.4 -4.0 -4.55 -4.0 -4.7 -3.95 -4.8 -4.0 -4.95 -4.0 -5.1 -4.05 -5.2 -4.05 -5.35 -4.15 -5.45 -4.2 -5.6 -4.25 -5.7 -4.35 -5.8 -4.45 -5.8 -4.45 -5.8 -4.55 -5.35 -4.75 -5.15 -4.8 -1.55 -5.6 1.7 -6.35 1.8 -6.35 2.35 -6.55 2.75 -6.65 3.0 -6.7 3.1 -6.75 3.25 -6.75 3.35 -6.75 3.45 -6.7 3.6 -6.7 3.7 -6.7 3.8 -6.65 3.9 -6.6 4.05 -6.55 4.15 -6.45 4.25 -6.4 4.3 -6.3 4.4 -6.25 4.5 -6.15 4.55 -6.05 4.65 -5.9 4.55 -5.9 4.35 -5.8 4.15 -5.75 4.05 -5.7 2.3 -5.45 1.25 -5.3 1.15 -5.3 0.75 -5.2 0.85 -5.15 1.05 -5.0 1.25 -4.9 1.3 -4.85 1.35 -4.8 1.45 -4.75 1.5 -4.75 1.55 -4.7 1.6 -4.65 1.6 -4.6 1.65 -4.55 1.65 -4.5 1.7 -4.45 1.7 -4.35 1.7 -4.3 1.75 -4.25 1.75 -4.15 1.7 -4.1 1.7 -4.0 1.7 -3.9 1.6 -3.35 1.25 -1.05 1.25 -1.0 1.25 -0.85 1.25 -0.7 1.25 -0.6 2.0 -0.8 2.3 -0.9 2.4 -0.95 2.5 -0.95 2.55 -1.0 2.65 -1.05 2.75 -1.1 2.85 -1.15 2.95 -1.15 3.0 -1.2 3.1 -1.25 3.2 -1.3 3.3 -1.35 3.4 -1.4 3.5 -1.4 3.55 -1.45 3.65 -1.5 3.75 -1.55 3.85 -1.6 4.0 -1.65 4.1 -1.65 4.25 -1.65 4.35 -1.7 4.5 -1.7 4.65 -1.7 4.8 -1.65 4.95 -1.65 5.05 -1.6 5.2 -1.55 5.3 -1.5 5.45 -1.45 5.55 -1.4 5.65 -1.3 5.7 -1.25 5.65 -1.15 5.45 -1.05 5.25 -0.9 5.0 -0.8 4.75 -0.7 4.4 -0.55 4.1 -0.45 3.75 -0.35 3.4 -0.25 3.0 -0.15 2.65 -0.1 2.35 -0.05 2.0 0.05 1.7 0.05 1.4 0.1 1.2 0.05 1.2 0.15 1.15 0.65 1.15 1.05 1.15 1.3 1.1 2.75 1.2 3.5 1.2 3.6 1.25 3.75 1.25 3.85 1.3 3.95 1.35 4.0 1.4 4.1 1.45 4.2 1.5 4.25 1.55 4.3 1.65 4.4 1.7 4.45 1.8 4.5 1.9 4.55 2.0 4.55 2.1 4.6 2.2 4.65 2.35 4.7 2.55 4.7 2.7 4.75 2.9 4.75 3.1 4.75 3.25 4.75 3.45 4.75 3.6 4.75 3.8 4.75 3.95 4.7 4.15 4.7 4.3 4.65 4.5 4.6 4.65 4.55 4.85 4.5 5.0 4.45 5.1 4.4 5.2 4.35 5.35 4.3 5.4 4.2 5.5 4.15 5.6 4.05 5.7 4.0 5.75 3.9 5.85 3.8 5.9 3.7 5.95 3.6 6.0 3.5 6.05 3.4 6.1 3.3 6.15 3.15 6.15 3.05 6.2 2.8 6.3 2.4 6.4 1.85 6.45 1.8 6.45 1.7 6.5 1.45 6.55 1.45 6.6 1.45 6.6 1.45 6.65 1.45 6.8 2.15 6.85 2.45 7.3 3.8 7.3 3.85 7.35 3.95 7.35 4.0 7.35 4.05 7.4 4.15 7.4 4.2 7.4 4.3 7.4 4.35 7.35 4.45 7.35 4.5 7.3 4.55 7.3 4.65 7.25 4.7 7.2 4.8 7.15 4.85 7.1 4.9 7.0 5.0 6.85 5.1 6.75 5.2 6.6 5.3 6.45 5.4 6.3 5.5 6.15 5.55 6.05 5.65 5.85 5.7 5.7 5.75 5.55 5.8 5.4 5.85 5.25 5.9 5.1 5.9 4.95 5.95 4.8 6.0 4.6 6.0 4.4 6.05 4.25 6.05 4.05 6.1 3.9 6.1 3.7 6.1 3.55 6.1 3.35 6.1 3.2 6.1 3.0 6.1 2.85 6.1 2.65 6.05 2.5 6.05 2.3 6.0 2.15 5.95 1.95 5.95 1.8 5.9 1.6 5.85 1.45 5.75 1.25 5.7 1.1 5.6 0.95 5.5 0.85 5.35 0.7 5.25 0.6 5.1 0.5 5.0 0.45 4.85 0.35 4.7 0.3 4.5 0.25 4.35 0.2 4.15 0.2 3.95 0.2 3.75 0.2 3.05 0.25 1.9 0.3 0.45 0.35 0.1 0.35 -0.15 0.35 -0.45 0.35 -0.7 0.35 -0.95 0.35 -1.25 0.35 -1.5 0.35 -1.75 0.35 -2.05 0.35 -2.3 0.35 -2.55 0.35 -2.85 0.35 -3.1 0.35 -3.35 0.35 -3.65 0.35 -3.9 0.35 -4.15 0.35 -4.2 0.35 -4.25 0.35 -4.3 0.3 -4.4 0.3 -4.45 0.3 -4.5 0.25 -4.55 0.25 -4.6 0.25 -4.65 0.2 -4.75 0.2 -4.8 0.15 -4.85 0.15 -4.9 0.15 -4.95 0.1 -5.05 0.1 -5.1 -0.95 -4.85 -3.15 -4.35 -2.4 -3.95 -2.35 -3.9 -2.3 -3.85 -2.25 -3.8 -2.2 -3.75 -2.2 -3.75 -2.15 -3.7 -2.15 -3.65 -2.1 -3.6 -2.1 -3.55 -2.1 -3.5 -2.1 -3.45 -2.15 -3.4 -2.15 -3.35 -2.15 -3.3 -2.2 -3.25 -2.25 -3.15 -2.25 -3.1 -2.7 -2.55 -3.4 -1.6 -3.4 -1.6 -3.4 -1.55 -3.45 -1.5 -3.45 -1.5 -3.45 -1.45 -3.45 -1.45 -3.45 -1.4 -3.45 -1.35 -3.45 -1.3 -3.45 -1.25 -3.25 -1.35 -2.8 -1.5 -2.35 -1.7 -2.1 -1.8 -1.95 -1.85 -1.85 -1.9 -1.7 -1.95 -1.6 -1.95 -1.5 -2.0 -1.35 -2.0 -1.25 -2.0 -1.15 -1.95 -1.05 -1.95 -0.95 -1.9 -0.85 -1.9 -0.75 -1.85 -0.65 -1.8 -0.55 -1.7 -0.45 -1.6 -0.35 -1.55 -0.35 -1.5 -0.3 -1.5 -0.3 -1.45 -0.3 -1.4 -0.25 -1.35 -0.25 -1.3 -0.25 -1.25 -0.25 -1.25 -0.25 -1.2 -0.25 -1.15 -0.25 -1.1 -0.3 -1.1 -0.3 -1.05 -0.3 -1.05 -2.55 2.4 -3.25 3.4 -3.4 3.65 -3.6 3.85 -3.75 4.05 -3.95 4.3 -4.1 4.5 -4.3 4.7 -4.5 4.9 -4.7 5.1 -4.9 5.25 -5.1 5.45 -5.3 5.6 -5.55 5.8 -5.75 5.95 -6.0 6.1 -6.25 6.25 -6.45 6.4 -6.5 6.45 -6.6 6.45 -6.7 6.5 -6.7 6.55 -6.8 6.6 -6.85 6.6 -6.9 6.65 -7.0 6.65 -7.05 6.7 -7.15 6.7 -7.2 6.75 -7.3 6.75 -7.35 6.75 -7.45 6.75 -7.5 6.75 -7.6 6.7 L-7.6 6.7 M-3.5 2.3 Q-3.35 2.1 -3.25 1.95 -3.15 1.75 -3.0 1.55 -2.9 1.35 -2.8 1.2 -2.7 1.0 -2.6 0.8 -2.45 0.6 -2.4 0.45 -2.3 0.25 -2.2 0.05 -2.1 -0.15 -2.05 -0.35 -1.95 -0.55 -1.9 -0.75 -1.9 -0.8 -1.85 -0.85 -1.85 -0.9 -1.85 -0.9 -1.85 -0.95 -1.85 -1.0 -1.9 -1.0 -1.9 -1.0 -1.9 -1.05 -1.95 -1.05 -1.95 -1.05 -2.0 -1.05 -2.05 -1.05 -2.1 -1.05 -2.15 -1.05 -2.2 -1.05 -2.5 -0.95 -3.85 -0.65 -3.9 -0.65 -3.95 -0.65 -4.0 -0.6 -4.0 -0.55 -4.35 -0.15 -5.1 0.8 -5.0 0.85 -4.85 0.9 -4.65 1.0 -4.55 1.0 -4.45 1.1 -4.3 1.15 -4.2 1.2 -4.1 1.3 -3.95 1.35 -3.85 1.45 -3.75 1.55 -3.7 1.7 -3.6 1.8 -3.55 1.95 -3.5 2.1 -3.5 2.3 L-3.5 2.3" fill="#000000" fill-rule="evenodd" stroke="none"/>
  </g>
</svg>
