<?xml version="1.0" encoding="UTF-8" standalone="no"?>
<svg xmlns:xlink="http://www.w3.org/1999/xlink" height="17.05px" width="17.2px" xmlns="http://www.w3.org/2000/svg">
  <g transform="matrix(1.0, 0.0, 0.0, 1.0, 8.7, 8.4)">
    <path d="M-0.85 6.0 Q-0.85 5.75 -0.85 5.25 -1.2 5.3 -1.8 5.3 -1.8 5.55 -1.8 6.0 -2.05 6.0 -2.55 6.05 -2.55 6.3 -2.55 6.8 -2.8 6.8 -3.35 6.85 -3.35 7.15 -3.35 7.8 -3.1 7.8 -2.65 7.75 -2.6 7.95 -2.6 8.25 -3.05 8.25 -3.85 8.3 -3.85 7.35 -3.9 5.4 -4.15 5.4 -4.65 5.45 -4.65 5.2 -4.65 4.7 -4.9 4.75 -5.4 4.75 -5.4 4.5 -5.4 4.05 -5.65 4.05 -6.15 4.1 -6.15 3.85 -6.15 3.35 -6.4 3.35 -6.85 3.4 -6.85 3.15 -6.9 2.65 -7.15 2.65 -7.65 2.7 -7.65 1.3 -7.7 -1.45 -7.55 -1.5 -7.25 -1.5 -7.25 -1.0 -7.25 -0.1 -7.0 -0.1 -6.5 -0.1 -6.5 0.15 -6.5 0.6 -6.2 0.6 -5.7 0.55 -5.7 0.85 -5.7 1.3 -5.05 1.3 -3.85 1.2 -3.85 1.0 -3.85 0.55 -3.6 0.55 -3.15 0.5 -3.15 0.25 -3.15 -0.25 -2.8 -0.25 -1.95 -0.3 -1.95 -0.55 -1.95 -1.05 -1.6 -1.1 -0.85 -1.1 -0.85 -1.35 -0.85 -1.85 -0.6 -1.85 -0.1 -1.85 -0.15 -3.45 -0.15 -6.65 0.1 -6.65 0.6 -6.65 0.6 -6.9 0.6 -7.4 2.55 -7.5 6.4 -7.7 6.4 -7.45 6.4 -7.0 6.7 -7.0 7.15 -7.05 7.15 -6.05 7.2 -4.0 5.9 -3.95 3.4 -3.8 3.4 -3.45 3.4 -2.85 4.15 -2.85 5.65 -2.95 5.65 -2.75 5.65 -2.4 4.65 -2.35 2.65 -2.25 2.65 -1.7 2.65 -0.6 3.2 -0.65 4.15 -0.7 4.15 -0.25 4.15 0.55 4.0 0.6 3.7 0.6 3.7 0.35 3.7 -0.1 3.35 -0.05 2.65 -0.05 2.65 0.8 2.65 2.5 2.4 2.55 1.9 2.55 1.9 2.9 1.9 3.65 1.65 3.65 1.15 3.7 1.15 3.95 1.15 4.45 0.9 4.45 0.4 4.45 0.45 5.5 0.45 7.6 0.7 7.6 1.2 7.55 1.2 7.75 1.2 8.05 0.75 8.1 -0.1 8.15 -0.1 7.4 -0.1 5.95 -0.35 5.95 -0.85 6.0 L-0.85 6.0 M2.2 -5.7 Q2.2 -6.0 2.2 -6.65 1.8 -6.6 1.15 -6.6 1.15 -6.25 1.15 -5.65 1.5 -5.65 2.2 -5.7 L2.2 -5.7" fill="#000000" fill-rule="evenodd" stroke="none"/>
  </g>
</svg>
