<?xml version="1.0" encoding="UTF-8" standalone="no"?>
<svg xmlns:xlink="http://www.w3.org/1999/xlink" height="200.0px" width="200.0px" xmlns="http://www.w3.org/2000/svg">
  <g transform="matrix(1.0, 0.0, 0.0, 1.0, 100.0, 100.0)">
    <path d="M-15.2 -15.9 Q-15.25 -15.7 -15.25 -15.5 -15.25 -15.3 -15.15 -15.1 -15.1 -14.9 -15.0 -14.7 -14.9 -14.55 -14.7 -14.3 -15.4 -15.3 -14.4 -13.85 -14.25 -13.55 -14.1 -13.35 -13.9 -13.05 -13.75 -12.75 -13.6 -12.4 -13.45 -12.0 -13.25 -11.5 -13.15 -10.95 -13.05 -10.45 -13.0 -9.9 -12.95 -9.45 -12.95 -8.9 -12.95 -8.45 -13.0 -8.0 -13.05 -7.55 -13.15 -7.1 -13.2 -6.75 -13.3 -6.35 -13.4 -6.0 -13.5 -5.65 -13.55 -5.45 -13.7 -5.1 -13.8 -4.85 -13.85 -4.65 -13.9 -4.4 -14.0 -4.15 -14.1 -3.9 -14.2 -3.65 -14.3 -3.4 -14.45 -3.1 -14.6 -2.85 -14.75 -2.6 -14.9 -2.3 -15.1 -2.05 -15.3 -1.75 -15.55 -1.5 -15.8 -1.25 -16.05 -1.0 -16.2 -0.9 -16.3 -0.75 -16.45 -0.65 -16.6 -0.55 -16.7 -0.45 -16.85 -0.35 -16.95 -0.25 -17.1 -0.2 -17.2 -0.1 -17.35 -0.05 -17.45 0.05 -17.55 0.1 -17.65 0.15 -17.75 0.2 -17.85 0.25 -17.95 0.3 -17.8 0.75 -17.7 1.2 -17.6 1.65 -17.5 2.1 -17.4 2.5 -17.3 2.9 -17.25 3.3 -17.2 3.7 -17.1 4.05 -17.05 4.45 -17.0 4.75 -17.0 5.1 -16.95 5.4 -16.95 5.75 -16.9 6.0 -16.9 6.3 -16.85 6.85 -16.85 7.35 -16.85 7.8 -16.85 8.3 -16.9 8.75 -16.9 9.25 -16.95 9.7 -17.0 10.3 -17.05 10.7 -17.1 11.45 -17.2 12.35 -17.25 12.75 -17.3 13.6 -17.35 14.3 -17.45 15.25 -17.5 16.15 -17.5 16.5 -17.55 16.85 -17.55 17.15 -17.6 17.45 -17.6 17.75 -17.6 18.05 -17.65 18.35 -17.65 18.65 -17.65 18.9 -17.7 19.15 -17.7 19.4 -17.7 19.65 -17.7 19.85 -17.7 20.05 -17.75 20.25 -17.75 20.45 -17.6 20.55 -17.45 20.65 -17.3 20.75 -17.15 20.85 -16.95 20.95 -16.8 21.05 -16.6 21.15 -16.4 21.3 -16.2 21.4 -16.0 21.5 -15.75 21.6 -15.5 21.7 -15.3 21.85 -15.05 21.95 -14.8 22.05 -14.5 22.15 -14.05 22.3 -13.6 22.45 -13.2 22.6 -12.75 22.7 -12.35 22.8 -11.9 22.85 -11.5 22.95 -11.05 23.0 -10.65 23.05 -10.15 23.05 -9.75 23.1 -9.2 23.15 -8.75 23.15 -8.15 23.2 -8.1 23.2 -7.0 23.2 -3.75 23.3 -1.85 23.45 -30.05 21.65 0.1 23.6 0.65 23.6 1.65 23.6 2.5 23.6 3.4 23.55 4.2 23.5 5.05 23.45 5.8 23.4 6.55 23.3 7.25 23.25 7.9 23.15 8.5 23.1 9.1 23.0 9.65 22.95 10.15 22.85 10.6 22.8 11.0 22.7 11.35 22.65 11.7 22.6 12.2 22.5 12.7 22.4 13.2 22.3 13.75 22.2 14.3 22.05 14.8 21.95 15.4 21.8 15.95 21.65 16.55 21.5 17.15 21.35 17.75 21.15 18.4 21.0 19.0 20.8 19.65 20.6 20.3 20.4 20.95 20.15 20.8 19.55 20.4 18.15 19.85 16.25 19.65 15.5 19.0 13.25 18.45 11.3 18.05 9.9 17.95 9.5 17.7 8.55 17.5 7.7 17.3 6.95 17.2 6.25 17.05 5.65 16.95 5.0 16.9 4.55 16.8 3.9 16.7 3.0 16.7 2.75 16.6 2.1 16.5 1.5 16.35 0.8 16.2 0.05 16.05 -0.8 15.8 -1.75 15.5 -2.95 15.2 -4.1 14.9 -5.15 14.55 -6.15 14.25 -7.0 13.95 -7.85 13.65 -8.55 13.35 -9.25 13.1 -9.85 12.85 -10.35 12.6 -10.8 12.4 -11.25 12.2 -11.55 12.0 -11.85 11.9 -12.05 11.75 -12.25 11.55 -12.55 11.3 -12.9 11.1 -13.15 10.9 -13.45 10.7 -13.75 10.45 -14.0 10.25 -14.25 10.05 -14.5 9.85 -14.75 9.65 -14.95 9.5 -15.15 9.3 -15.4 9.1 -15.55 8.95 -15.75 8.8 -15.9 8.6 -16.1 8.55 -16.0 8.55 -15.9 8.5 -15.75 8.45 -15.65 8.4 -15.5 8.35 -15.4 8.3 -15.25 8.25 -15.1 8.15 -14.95 8.1 -14.85 8.05 -14.7 7.95 -14.55 7.9 -14.4 7.8 -14.25 7.7 -14.1 7.6 -13.95 7.5 -13.75 7.4 -13.6 7.3 -13.4 7.2 -13.25 7.05 -13.05 6.95 -12.85 6.8 -12.65 6.65 -12.5 6.5 -12.3 6.35 -12.15 6.2 -11.95 6.0 -11.75 5.8 -11.6 5.6 -11.45 5.4 -11.25 5.15 -11.1 5.0 -11.0 4.95 -10.95 4.8 -10.85 4.65 -10.75 4.45 -10.65 4.3 -10.6 4.1 -10.5 3.9 -10.4 3.7 -10.3 3.45 -10.25 3.2 -10.15 2.95 -10.1 2.7 -10.05 2.45 -10.05 2.15 -10.0 1.85 -10.05 1.65 -10.05 1.45 -10.1 1.3 -10.1 1.15 -10.15 0.95 -10.2 0.8 -10.3 0.65 -10.35 0.45 -10.45 0.3 -10.5 0.1 -10.6 -0.05 -10.7 -0.3 -10.85 -0.6 -11.05 -0.75 -11.1 -1.0 -11.25 -1.25 -11.4 -1.6 -11.6 -1.9 -11.75 -2.2 -11.9 -2.5 -12.05 -2.75 -12.15 -3.05 -12.25 -3.25 -12.35 -3.5 -12.45 -3.65 -12.5 -3.95 -12.65 -4.25 -12.75 -4.4 -12.8 -4.65 -12.9 -4.9 -13.0 -5.15 -13.15 -5.4 -13.25 -5.75 -13.4 -6.05 -13.55 -6.4 -13.75 -6.75 -13.95 -7.15 -14.15 -7.55 -14.4 -7.95 -14.65 -8.4 -14.95 -8.8 -15.25 -9.25 -15.6 -9.75 -15.95 -10.2 -16.35 -10.7 -16.75 -11.2 -17.2 -11.7 -17.65 -12.2 -18.15 -12.45 -18.05 -12.7 -18.0 -12.95 -17.9 -13.15 -17.8 -13.4 -17.7 -13.65 -17.6 -13.85 -17.45 -14.05 -17.35 -14.3 -17.2 -14.45 -17.05 -14.65 -16.9 -14.8 -16.7 -14.95 -16.55 -15.05 -16.35 -15.15 -16.15 -15.2 -15.9 L-15.2 -15.9" fill="#303643" fill-rule="evenodd" stroke="none"/>
  </g>
</svg>
