<?xml version="1.0" encoding="UTF-8" standalone="no"?>
<svg xmlns:xlink="http://www.w3.org/1999/xlink" height="200.0px" width="200.0px" xmlns="http://www.w3.org/2000/svg">
  <g transform="matrix(1.0, 0.0, 0.0, 1.0, 100.0, 100.0)">
    <path d="M-2.4 29.85 Q-2.85 29.85 -3.3 29.9 -3.75 29.9 -4.2 29.9 -4.65 29.9 -5.05 29.9 -5.5 29.9 -5.95 29.9 -6.4 29.9 -6.85 29.9 -7.3 29.85 -7.75 29.85 -8.2 29.8 -8.6 29.8 -9.05 29.75 -9.5 29.7 -10.15 29.65 -10.75 29.6 -11.4 29.5 -12.0 29.45 -12.6 29.35 -13.2 29.25 -13.85 29.15 -14.4 29.05 -15.05 28.9 -15.65 28.75 -16.25 28.65 -16.85 28.45 -17.45 28.3 -18.0 28.1 -18.6 27.9 -19.2 27.7 -19.35 27.65 -19.5 27.6 -19.65 27.55 -19.8 27.45 -19.9 27.4 -20.05 27.35 -20.2 27.3 -20.35 27.2 -20.5 27.15 -20.6 27.05 -20.75 27.0 -20.9 26.9 -21.0 26.85 -21.15 26.75 -21.3 26.65 -21.4 26.6 -21.55 26.5 -21.7 26.35 -21.8 26.25 -21.9 26.1 -22.05 25.95 -22.1 25.8 -22.2 25.7 -22.25 25.55 -22.3 25.4 -22.35 25.2 -22.35 25.05 -22.35 24.9 -22.35 24.75 -22.35 24.55 -22.3 24.4 -22.25 24.2 -22.2 23.95 -22.1 23.75 -22.05 23.5 -22.0 23.3 -21.95 23.05 -21.95 22.85 -21.9 22.6 -21.85 22.4 -21.85 22.15 -21.8 21.9 -21.8 21.7 -21.8 21.45 -21.8 21.2 -21.8 21.0 -21.8 20.75 -21.85 20.5 -21.85 20.35 -21.75 19.7 -21.75 19.5 -21.7 19.35 -21.65 19.15 -21.6 18.95 -21.6 18.8 -21.5 18.6 -21.45 18.45 -21.4 18.3 -21.3 18.1 -21.2 17.95 -21.15 17.8 -21.0 17.65 -20.9 17.5 -20.75 17.4 -20.65 17.25 -20.5 17.15 -20.35 17.05 -20.25 16.9 -20.1 16.8 -20.0 16.7 -19.9 16.55 -19.85 16.4 -19.75 16.3 -19.7 16.15 -19.65 16.0 -19.6 15.85 -19.55 15.7 -19.5 15.55 -19.5 15.4 -19.45 15.25 -19.45 15.05 -19.45 14.9 -19.45 14.6 -19.4 14.4 -19.4 14.15 -19.4 13.9 -19.35 13.65 -19.35 13.4 -19.3 13.15 -19.3 12.9 -19.25 12.65 -19.2 12.4 -19.15 12.15 -19.1 11.95 -19.05 11.7 -19.0 11.45 -18.9 11.2 -18.8 11.0 -18.7 10.8 -18.65 10.55 -18.6 10.35 -18.55 10.1 -18.55 9.9 -18.5 9.7 -18.5 9.45 -18.5 9.25 -18.45 9.05 -18.45 8.8 -18.45 8.6 -18.45 8.35 -18.45 8.35 -18.45 7.9 -18.45 7.65 -18.45 7.45 -18.45 5.85 -18.7 3.35 -18.75 3.05 -18.75 2.75 -18.8 2.4 -18.85 2.1 -18.85 1.8 -18.9 1.5 -18.95 1.2 -18.95 0.85 -19.0 0.55 -19.05 0.25 -19.1 -0.05 -19.15 -0.35 -19.2 -0.65 -19.25 -1.0 -19.3 -1.3 -19.35 -1.6 -19.5 -2.55 -19.7 -3.65 -19.7 -3.7 -19.7 -3.75 -19.7 -3.8 -19.7 -3.85 -19.7 -3.9 -19.65 -3.9 -19.65 -3.95 -19.6 -3.95 -19.55 -3.95 -19.45 -4.0 -19.3 -4.0 -19.2 -4.0 -19.05 -4.05 -18.95 -4.05 -18.85 -4.1 -18.7 -4.1 -18.6 -4.15 -18.45 -4.15 -18.35 -4.2 -18.2 -4.25 -18.1 -4.25 -17.95 -4.3 -17.85 -4.35 -17.75 -4.4 -17.6 -4.45 -17.5 -4.5 -17.45 -4.5 -17.4 -4.55 -17.35 -4.6 -17.25 -4.6 -17.2 -4.65 -17.15 -4.65 -17.1 -4.7 -17.05 -4.75 -17.0 -4.8 -17.0 -4.85 -16.95 -4.85 -16.9 -4.9 -16.85 -4.95 -16.85 -5.0 -16.8 -5.05 -16.75 -5.1 -16.65 -5.3 -16.55 -5.55 -16.5 -5.65 -16.3 -5.95 -16.2 -6.25 -16.1 -6.4 -16.0 -6.6 -15.9 -6.8 -15.8 -7.05 -15.7 -7.25 -15.6 -7.5 -15.5 -7.7 -15.45 -7.95 -15.35 -8.15 -15.3 -8.4 -15.25 -8.6 -15.15 -9.05 -15.1 -9.45 -15.05 -9.85 -15.0 -10.3 -15.0 -10.7 -14.95 -11.15 -14.95 -11.55 -14.95 -12.0 -15.0 -12.4 -15.0 -12.8 -15.05 -13.25 -15.1 -13.65 -15.15 -14.05 -15.25 -14.5 -15.35 -14.9 -15.45 -15.3 -15.5 -15.5 -15.55 -15.7 -15.65 -15.9 -15.7 -16.1 -15.8 -16.25 -15.9 -16.45 -16.0 -16.6 -16.1 -16.8 -16.2 -16.95 -16.3 -17.15 -16.4 -17.3 -16.55 -17.5 -16.65 -17.6 -16.75 -17.8 -16.6 -17.6 -17.0 -18.15 -17.0 -18.2 -17.05 -18.2 -17.05 -18.25 -17.05 -18.25 -17.1 -18.3 -17.1 -18.35 -17.1 -18.35 -17.1 -18.4 -17.1 -18.4 -17.1 -18.45 -17.1 -18.45 -17.05 -18.5 -17.05 -18.5 -17.05 -18.55 -17.0 -18.6 -17.0 -18.6 -16.8 -18.85 -16.6 -19.1 -16.4 -19.3 -16.2 -19.55 -15.95 -19.75 -15.75 -19.95 -15.5 -20.2 -15.3 -20.4 -15.05 -20.6 -14.8 -20.75 -14.55 -20.95 -14.3 -21.1 -14.05 -21.3 -13.75 -21.45 -13.5 -21.6 -13.2 -21.75 -13.1 -21.8 -13.0 -21.85 -12.85 -21.95 -12.75 -22.0 -12.65 -22.05 -12.55 -22.15 -12.45 -22.2 -12.35 -22.3 -12.25 -22.35 -12.15 -22.45 -12.05 -22.5 -11.95 -22.6 -11.9 -22.7 -11.8 -22.75 -11.7 -22.85 -11.6 -22.95 -11.5 -23.05 -11.45 -23.1 -11.4 -23.15 -11.3 -23.2 -11.25 -23.3 -11.15 -23.35 -11.1 -23.4 -11.0 -23.5 -10.95 -23.55 -10.85 -23.6 -10.75 -23.65 -10.7 -23.7 -10.6 -23.75 -10.5 -23.8 -10.4 -23.8 -10.3 -23.85 -10.25 -23.85 -10.2 -23.85 -10.15 -23.9 -10.15 -23.9 -10.1 -23.9 -10.05 -23.85 -10.0 -23.85 -9.95 -23.8 -9.2 -23.15 -6.3 -21.45 -2.6 -19.35 -0.85 -18.65 0.3 -18.15 0.8 -18.05 1.0 -18.0 1.15 -18.0 1.3 -18.0 1.5 -18.0 1.65 -18.0 1.8 -18.05 1.95 -18.05 2.1 -18.1 2.25 -18.2 2.4 -18.25 2.5 -18.35 2.65 -18.45 2.75 -18.55 2.85 -18.65 2.95 -18.8 3.05 -18.95 3.1 -19.05 3.2 -19.15 3.25 -19.3 3.3 -19.4 3.4 -19.5 3.45 -19.6 3.5 -19.7 3.55 -19.85 3.6 -19.95 3.7 -20.05 3.75 -20.15 3.8 -20.3 3.85 -20.4 3.9 -20.5 3.95 -20.6 4.0 -20.75 4.2 -21.1 4.95 -22.45 5.0 -22.5 5.0 -22.55 5.05 -22.6 5.1 -22.6 5.15 -22.65 5.2 -22.65 5.25 -22.7 5.3 -22.7 5.35 -22.7 5.4 -22.7 5.45 -22.7 5.5 -22.7 5.6 -22.7 5.65 -22.7 5.7 -22.65 5.75 -22.65 5.85 -22.6 6.0 -22.55 6.1 -22.55 6.25 -22.5 6.35 -22.4 6.45 -22.35 6.55 -22.3 6.65 -22.25 6.8 -22.15 6.9 -22.1 7.0 -22.0 7.1 -21.95 7.15 -21.85 7.25 -21.75 7.35 -21.7 7.45 -21.6 7.85 -21.2 8.25 -20.75 8.65 -20.3 9.0 -19.9 9.4 -19.45 9.75 -19.0 10.1 -18.5 10.45 -18.05 10.75 -17.6 11.1 -17.1 11.4 -16.6 11.7 -16.1 11.95 -15.6 12.25 -15.1 12.5 -14.6 12.75 -14.05 13.0 -13.5 13.2 -12.95 13.45 -12.4 13.65 -11.85 13.85 -11.3 14.05 -10.75 14.25 -10.2 14.45 -9.6 14.65 -9.05 14.85 -8.5 15.0 -7.95 15.2 -7.35 15.35 -6.8 15.55 -6.2 15.7 -5.65 15.85 -5.05 16.0 -4.45 16.15 -3.85 16.3 -3.25 16.45 -2.65 16.6 -2.05 16.75 -1.45 16.9 -0.85 17.0 -0.25 17.15 0.35 17.25 1.0 17.4 1.6 17.5 2.2 17.6 2.8 17.75 3.4 17.85 4.05 17.95 4.65 18.1 5.35 18.25 6.5 18.55 8.1 18.55 8.35 18.55 8.45 18.6 8.6 18.65 8.7 18.7 8.85 18.7 8.95 18.75 9.05 18.8 9.15 18.85 9.3 18.9 9.35 18.95 9.5 19.0 9.7 19.0 9.75 19.05 9.9 19.1 10.0 19.15 10.1 19.2 10.2 19.25 10.45 19.35 10.65 19.4 10.9 19.45 11.15 19.55 11.35 19.6 11.6 19.65 11.85 19.7 12.1 19.75 12.3 19.8 12.55 19.85 12.8 19.9 13.05 19.95 13.25 20.0 13.5 20.0 13.75 20.05 14.0 20.1 14.15 20.1 14.3 20.15 14.45 20.2 14.6 20.2 14.75 20.25 14.9 20.3 15.05 20.35 15.2 20.45 15.3 20.5 15.45 20.55 15.6 20.65 15.7 20.7 15.85 20.8 16.0 20.9 16.1 21.0 16.25 21.15 16.45 21.3 16.65 21.4 16.85 21.55 17.05 21.65 17.25 21.75 17.45 21.85 17.65 21.9 17.85 21.95 18.05 22.0 18.3 22.05 18.5 22.1 18.75 22.1 19.0 22.1 19.2 22.1 19.45 22.1 19.7 22.1 19.8 22.1 19.95 22.1 20.05 22.1 20.15 22.1 20.25 22.1 20.4 22.1 20.5 22.15 20.6 22.15 20.7 22.2 20.8 22.2 20.95 22.25 21.05 22.25 21.15 22.3 21.25 22.35 21.35 22.4 21.45 22.55 21.75 22.6 22.1 22.65 22.4 22.65 22.65 22.7 22.95 22.65 23.2 22.6 23.5 22.5 23.75 22.45 24.0 22.3 24.25 22.15 24.5 22.0 24.7 21.85 24.95 21.6 25.15 21.4 25.4 21.15 25.6 20.9 25.8 20.65 26.0 20.4 26.2 20.15 26.35 19.9 26.5 19.65 26.65 19.35 26.8 19.1 26.95 18.8 27.1 18.5 27.2 18.25 27.35 17.95 27.45 17.65 27.55 17.35 27.65 17.05 27.75 16.75 27.85 16.05 28.05 14.85 28.25 13.4 28.55 12.95 28.65 11.6 28.95 9.05 29.2 8.5 29.25 7.35 29.35 6.2 29.5 5.6 29.55 5.2 29.6 4.8 29.6 4.4 29.65 4.0 29.65 3.6 29.7 3.2 29.7 2.8 29.7 2.4 29.75 2.0 29.75 1.6 29.8 1.2 29.8 0.8 29.8 0.4 29.8 0.0 29.85 -0.4 29.85 -0.8 29.85 -1.1 29.85 -2.4 29.85 L-2.4 29.85 M8.45 -17.45 Q8.4 -17.4 8.4 -17.4 8.35 -17.35 8.35 -17.3 8.3 -17.25 8.3 -17.25 8.3 -17.2 8.25 -17.15 8.05 -16.8 7.9 -16.5 7.7 -16.15 7.5 -15.85 7.25 -15.5 7.05 -15.2 6.85 -14.9 6.6 -14.65 6.35 -14.35 6.1 -14.05 5.85 -13.8 5.55 -13.55 5.3 -13.25 5.0 -13.05 4.7 -12.8 4.35 -12.6 4.2 -12.5 4.1 -12.4 3.95 -12.35 3.8 -12.25 3.65 -12.2 3.5 -12.15 3.35 -12.05 3.2 -12.0 3.05 -12.0 2.9 -11.95 2.75 -11.9 2.6 -11.9 2.45 -11.9 2.3 -11.9 2.1 -11.9 1.95 -11.9 1.8 -11.9 1.65 -11.95 1.5 -11.95 1.35 -12.0 1.2 -12.0 1.05 -12.0 0.9 -12.05 0.75 -12.1 0.6 -12.1 0.45 -12.15 0.3 -12.2 0.15 -12.2 0.0 -12.25 -0.15 -12.3 -0.3 -12.35 -0.45 -12.4 -1.1 -12.6 -1.7 -12.85 -2.3 -13.05 -2.95 -13.3 -3.55 -13.55 -4.15 -13.85 -4.7 -14.15 -5.3 -14.45 -5.9 -14.75 -6.45 -15.05 -7.05 -15.35 -7.6 -15.7 -8.15 -16.05 -8.75 -16.4 -9.25 -16.75 -9.85 -17.15 -10.85 -17.8 -12.85 -19.4 -12.9 -19.45 -12.9 -19.45 -12.95 -19.45 -12.95 -19.5 -13.0 -19.5 -13.0 -19.5 -13.05 -19.5 -13.05 -19.5 -13.1 -19.5 -13.1 -19.5 -13.15 -19.5 -13.15 -19.5 -13.2 -19.5 -13.2 -19.45 -13.25 -19.45 -13.25 -19.4 -13.65 -19.15 -14.35 -18.55 -14.4 -18.5 -14.4 -18.5 -14.45 -18.45 -14.45 -18.45 -14.5 -18.4 -14.5 -18.4 -14.5 -18.35 -14.5 -18.3 -14.5 -18.3 -14.5 -18.25 -14.5 -18.2 -14.5 -18.15 -14.5 -18.15 -14.5 -18.1 -14.45 -18.05 -14.45 -18.0 -14.3 -17.65 -14.15 -17.3 -13.95 -17.0 -13.85 -16.65 -13.7 -16.3 -13.6 -15.95 -13.45 -15.6 -13.4 -15.2 -13.3 -14.85 -13.2 -14.5 -13.15 -14.15 -13.1 -13.75 -13.05 -13.4 -13.0 -13.05 -12.95 -12.65 -12.95 -12.3 -12.95 -11.95 -12.95 -11.55 -12.95 -11.2 -13.0 -10.8 -13.0 -10.45 -13.05 -10.1 -13.1 -9.7 -13.15 -9.35 -13.2 -9.0 -13.3 -8.65 -13.35 -8.3 -13.45 -7.9 -13.5 -7.55 -13.6 -7.2 -13.7 -6.85 -13.8 -6.5 -13.9 -6.15 -14.05 -5.8 -14.2 -5.45 -14.3 -5.15 -14.5 -4.85 -14.65 -4.55 -14.85 -4.25 -15.05 -3.95 -15.25 -3.7 -15.5 -3.45 -15.7 -3.2 -16.0 -3.0 -16.25 -2.8 -16.6 -2.6 -16.9 -2.4 -17.25 -2.25 -17.3 -2.25 -17.35 -2.2 -17.4 -2.2 -17.4 -2.15 -17.4 -2.1 -17.4 -2.1 -17.4 -2.05 -17.4 -2.0 -17.35 -1.65 -17.3 -1.35 -17.25 -1.0 -17.2 -0.7 -17.15 -0.35 -17.1 -0.05 -17.05 0.3 -17.0 0.6 -16.95 0.95 -16.9 1.25 -16.85 1.6 -16.85 1.9 -16.8 2.25 -16.75 2.55 -16.75 2.9 -16.7 3.2 -16.4 6.75 -16.5 8.9 -16.5 9.1 -16.5 9.3 -16.5 9.5 -16.55 9.65 -16.55 9.85 -16.55 10.05 -16.6 10.25 -16.6 10.45 -16.65 10.6 -16.65 10.8 -16.7 11.0 -16.75 11.15 -16.8 11.35 -16.85 11.55 -16.9 11.75 -16.95 11.9 -17.0 12.0 -17.0 12.05 -17.05 12.15 -17.1 12.25 -17.1 12.35 -17.15 12.4 -17.15 12.5 -17.15 12.6 -17.2 12.7 -17.2 12.75 -17.2 12.85 -17.25 12.95 -17.25 13.05 -17.25 13.15 -17.25 13.2 -17.25 13.3 -17.25 13.5 -17.3 13.7 -17.3 13.9 -17.3 14.15 -17.35 14.35 -17.35 14.55 -17.4 14.75 -17.4 14.95 -17.45 15.15 -17.45 15.35 -17.5 15.55 -17.55 15.75 -17.6 15.95 -17.65 16.15 -17.65 16.35 -17.7 16.55 -17.7 16.6 -17.7 16.65 -17.7 16.7 -17.7 16.7 -17.7 16.75 -17.7 16.8 -17.65 16.8 -17.65 16.85 -17.6 16.85 -17.55 16.9 -17.5 16.95 -17.45 17.0 -17.35 17.0 -17.3 17.05 -17.25 17.1 -17.15 17.15 -17.1 17.15 -17.05 17.2 -16.95 17.25 -16.9 17.3 -16.8 17.3 -16.75 17.35 -16.7 17.4 -16.6 17.4 -16.55 17.45 -16.45 17.5 -16.2 17.6 -15.9 17.75 -15.6 17.85 -15.3 17.95 -15.05 18.0 -14.75 18.1 -14.45 18.2 -14.15 18.25 -13.85 18.35 -13.55 18.4 -13.3 18.5 -12.95 18.55 -12.7 18.6 -12.35 18.7 -12.1 18.75 -11.75 18.8 -11.15 18.9 -10.55 19.0 -9.9 19.15 -9.3 19.2 -8.7 19.3 -8.05 19.4 -7.45 19.5 -6.85 19.55 -6.2 19.65 -5.6 19.7 -4.95 19.75 -4.35 19.8 -3.75 19.85 -3.1 19.85 -2.5 19.9 -1.85 19.9 -1.15 19.9 -0.5 19.9 0.2 19.9 0.85 19.9 1.55 19.85 2.2 19.85 2.9 19.8 3.6 19.8 4.25 19.75 4.95 19.7 5.6 19.65 6.3 19.6 6.95 19.55 7.65 19.5 8.3 19.4 9.0 19.35 9.45 19.3 9.85 19.25 10.25 19.2 10.7 19.1 11.1 19.05 11.5 19.0 11.95 18.9 12.35 18.8 12.75 18.75 13.15 18.65 13.6 18.55 14.0 18.45 14.4 18.35 14.8 18.2 15.2 18.1 15.6 17.95 17.25 17.4 18.25 17.05 18.3 17.05 18.4 17.0 18.45 16.95 18.5 16.9 18.55 16.9 18.6 16.8 18.65 16.75 18.65 16.7 18.7 16.65 18.7 16.6 18.75 16.55 18.75 16.5 18.75 16.4 18.75 16.35 18.7 16.3 18.7 16.25 18.65 16.15 18.6 16.05 18.55 15.95 18.5 15.85 18.45 15.75 18.45 15.65 18.4 15.6 18.35 15.45 18.35 15.4 18.3 15.25 18.25 15.2 18.25 15.05 18.2 15.0 18.2 14.85 18.15 14.8 18.15 14.65 18.05 14.2 17.9 13.5 17.7 12.5 17.7 12.35 17.6 11.95 17.6 11.95 17.6 11.75 17.55 11.6 17.5 11.4 17.45 11.2 17.4 11.0 17.35 10.8 17.3 10.65 17.25 10.45 17.2 10.25 17.1 10.1 17.05 9.9 16.95 9.7 16.9 9.55 16.8 9.35 16.8 9.3 16.75 9.3 16.75 9.25 16.7 9.2 16.7 9.15 16.7 9.15 16.7 9.1 16.65 9.05 16.65 9.0 16.65 8.95 16.6 8.65 16.25 6.45 16.0 4.9 15.8 3.95 15.65 3.15 15.5 2.45 15.35 1.65 15.2 0.9 15.05 0.15 14.9 -0.6 14.7 -1.35 14.55 -2.1 14.35 -2.85 14.2 -3.6 14.0 -4.35 13.8 -5.05 13.6 -5.8 13.35 -6.55 13.15 -7.3 12.9 -8.0 12.75 -8.5 12.6 -8.95 12.4 -9.45 12.25 -9.95 12.05 -10.4 11.9 -10.9 11.7 -11.35 11.5 -11.85 11.3 -12.3 11.1 -12.75 10.9 -13.25 10.7 -13.7 10.45 -14.15 10.25 -14.6 10.0 -15.05 9.75 -15.5 9.65 -15.65 9.6 -15.75 9.5 -15.9 9.45 -16.0 9.35 -16.15 9.3 -16.25 9.2 -16.4 9.15 -16.5 9.05 -16.6 8.95 -16.75 8.9 -16.85 8.8 -17.0 8.7 -17.1 8.6 -17.25 8.5 -17.35 8.45 -17.45 L8.45 -17.45 M0.3 25.85 Q0.3 26.55 0.3 26.75 0.3 26.8 0.3 26.9 0.3 26.95 0.35 27.0 0.35 27.05 0.35 27.15 0.35 27.2 0.4 27.25 0.4 27.3 0.45 27.35 0.5 27.4 0.5 27.45 0.55 27.5 0.6 27.55 0.6 27.6 0.65 27.65 0.65 27.7 0.7 27.7 0.7 27.7 0.75 27.75 0.75 27.75 0.8 27.75 0.8 27.8 0.85 27.8 0.85 27.8 0.9 27.8 0.9 27.8 0.95 27.8 0.95 27.8 1.0 27.85 1.0 27.85 1.05 27.8 4.25 27.7 9.15 27.25 9.25 27.25 9.3 27.2 9.35 27.2 9.35 27.15 9.4 27.15 9.4 27.1 9.45 27.1 9.4 27.05 9.4 27.0 9.4 26.9 9.35 26.85 9.3 26.7 9.25 26.55 9.25 26.5 9.15 26.3 9.05 26.05 9.0 25.85 8.9 25.6 8.85 25.4 8.8 25.2 8.8 24.95 8.75 24.75 8.75 24.5 8.75 24.3 8.75 24.05 8.8 23.85 8.8 23.6 8.85 23.35 8.9 23.15 8.95 22.9 8.95 22.85 9.0 22.8 9.0 22.75 9.0 22.7 9.0 22.65 9.0 22.6 9.05 22.6 9.05 22.55 9.05 22.5 9.0 22.45 9.0 22.4 9.0 22.35 9.0 22.3 8.95 22.25 8.95 22.2 8.9 22.15 8.8 22.05 8.75 22.0 8.7 21.9 8.6 21.85 8.55 21.75 8.5 21.7 8.4 21.65 8.3 21.6 8.25 21.55 8.15 21.5 8.05 21.45 7.95 21.45 7.85 21.45 7.75 21.45 7.6 21.45 7.5 21.5 7.5 21.5 7.35 21.5 6.9 21.55 6.45 21.6 6.0 21.6 5.55 21.65 5.1 21.7 4.65 21.7 4.2 21.75 3.75 21.75 3.3 21.75 2.85 21.8 2.4 21.8 1.95 21.8 1.5 21.85 1.05 21.85 0.6 21.85 0.15 21.85 0.1 21.85 0.05 21.85 0.0 21.85 0.0 21.9 -0.05 21.9 -0.05 21.95 -0.1 22.0 -0.1 22.0 -0.1 22.05 -0.1 22.1 -0.1 22.2 -0.1 22.3 -0.15 22.4 -0.15 22.45 -0.15 22.55 -0.15 22.65 -0.15 22.75 -0.15 22.85 -0.15 22.95 -0.1 23.0 -0.1 23.1 -0.1 23.2 -0.1 23.3 -0.05 23.35 -0.05 23.45 0.0 23.55 0.05 23.7 0.1 23.85 0.15 23.95 0.15 24.1 0.2 24.25 0.25 24.4 0.25 24.55 0.3 24.7 0.3 24.85 0.3 24.95 0.3 25.1 0.35 25.25 0.35 25.4 0.3 25.55 0.3 25.7 0.3 25.85 L0.3 25.85 M-4.35 27.9 Q-4.35 27.9 -4.35 27.9 -2.2 27.9 -1.2 27.9 -1.2 27.9 -1.15 27.9 -1.1 27.9 -1.05 27.9 -1.0 27.9 -1.0 27.9 -0.95 27.9 -0.95 27.85 -0.95 27.85 -0.95 27.75 -1.0 27.6 -1.05 27.45 -1.1 27.3 -1.1 27.15 -1.15 27.0 -1.15 26.8 -1.15 26.7 -1.15 26.5 -1.15 26.35 -1.15 26.2 -1.15 26.15 -1.15 25.85 -1.15 25.7 -1.15 25.55 -1.15 25.4 -1.15 25.25 -1.15 25.2 -1.15 25.15 -1.15 25.1 -1.15 25.05 -1.15 24.95 -1.15 24.9 -1.15 24.85 -1.15 24.8 -1.2 24.75 -1.2 24.7 -1.2 24.65 -1.2 24.6 -1.2 24.55 -1.25 24.5 -1.25 24.45 -1.25 24.4 -1.3 24.25 -1.35 24.1 -1.4 23.95 -1.45 23.8 -1.45 23.7 -1.5 23.55 -1.55 23.4 -1.55 23.25 -1.6 23.1 -1.6 22.95 -1.6 22.8 -1.6 22.65 -1.6 22.5 -1.6 22.35 -1.6 22.2 -1.55 22.1 -1.55 22.05 -1.55 22.0 -1.55 21.95 -1.6 21.9 -1.6 21.9 -1.65 21.9 -1.65 21.85 -1.7 21.85 -1.75 21.85 -1.8 21.85 -2.1 21.85 -2.65 21.85 -5.4 21.75 -7.0 21.5 -7.05 21.5 -7.1 21.5 -7.15 21.5 -7.2 21.5 -7.25 21.5 -7.3 21.55 -7.35 21.55 -7.35 21.55 -7.4 21.6 -7.45 21.6 -7.45 21.65 -7.5 21.65 -7.55 21.7 -7.55 21.75 -7.6 21.8 -7.6 21.85 -7.65 21.95 -7.7 22.0 -7.7 22.1 -7.75 22.2 -7.75 22.3 -7.8 22.35 -7.8 22.45 -7.8 22.55 -7.8 22.65 -7.8 22.75 -7.8 22.8 -7.8 22.9 -7.8 23.0 -7.75 23.1 -7.75 23.2 -7.75 23.3 -7.75 23.4 -7.7 23.55 -7.7 23.65 -7.7 23.75 -7.7 23.85 -7.7 24.0 -7.7 24.1 -7.7 24.2 -7.7 24.3 -7.7 24.45 -7.75 24.55 -7.75 24.65 -7.8 24.75 -7.8 24.85 -7.85 25.0 -7.9 25.1 -7.95 25.3 -8.1 25.7 -8.2 26.1 -8.3 26.35 -8.3 26.4 -8.35 26.45 -8.35 26.55 -8.35 26.6 -8.35 26.65 -8.35 26.7 -8.35 26.8 -8.35 26.85 -8.35 26.9 -8.35 26.95 -8.35 27.05 -8.3 27.1 -8.3 27.15 -8.3 27.2 -8.3 27.25 -8.25 27.35 -8.25 27.4 -8.2 27.45 -8.2 27.5 -8.15 27.55 -8.1 27.6 -8.1 27.65 -8.05 27.7 -8.0 27.75 -7.95 27.75 -7.9 27.8 -7.85 27.85 -7.8 27.85 -7.75 27.85 -7.7 27.85 -7.65 27.9 -7.55 27.9 -6.75 27.9 -4.35 27.9 L-4.35 27.9 M-16.15 25.45 Q-16.15 25.5 -16.15 25.6 -16.15 25.65 -16.1 25.7 -16.1 25.75 -16.1 25.85 -16.1 25.9 -16.1 25.95 -16.05 26.05 -16.05 26.1 -16.05 26.15 -16.0 26.25 -16.0 26.3 -16.0 26.35 -15.95 26.45 -15.95 26.5 -15.9 26.55 -15.9 26.6 -15.85 26.6 -15.85 26.65 -15.8 26.65 -15.75 26.7 -15.7 26.7 -15.65 26.7 -13.6 27.25 -9.85 27.7 -9.8 27.7 -9.75 27.7 -9.7 27.7 -9.7 27.65 -9.7 27.65 -9.7 27.6 -9.7 27.55 -9.7 27.5 -9.75 27.4 -9.75 27.3 -9.8 27.2 -9.8 27.05 -9.8 26.95 -9.8 26.85 -9.8 26.75 -9.8 26.65 -9.8 26.55 -9.8 26.45 -9.75 26.35 -9.75 26.2 -9.75 26.1 -9.7 26.0 -9.65 25.9 -9.65 25.8 -9.55 25.6 -9.45 25.2 -9.3 24.8 -9.25 24.6 -9.25 24.55 -9.2 24.45 -9.2 24.4 -9.2 24.35 -9.15 24.3 -9.15 24.2 -9.15 24.15 -9.15 24.1 -9.15 24.0 -9.15 23.95 -9.15 23.9 -9.15 23.8 -9.15 23.75 -9.15 23.7 -9.15 23.6 -9.2 23.55 -9.2 23.4 -9.2 23.3 -9.25 23.15 -9.25 23.0 -9.25 22.9 -9.25 22.75 -9.25 22.65 -9.25 22.5 -9.25 22.35 -9.2 22.25 -9.2 22.1 -9.2 22.0 -9.15 21.85 -9.15 21.75 -9.1 21.6 -9.05 21.5 -9.05 21.45 -9.0 21.4 -9.0 21.35 -9.0 21.35 -9.0 21.3 -9.05 21.3 -9.05 21.25 -9.1 21.25 -9.15 21.25 -9.2 21.25 -12.35 20.75 -14.05 20.35 -14.1 20.35 -14.15 20.35 -14.15 20.3 -14.2 20.3 -14.25 20.3 -14.25 20.35 -14.3 20.35 -14.3 20.35 -14.35 20.35 -14.35 20.35 -14.4 20.35 -14.4 20.4 -14.45 20.4 -14.45 20.45 -14.5 20.45 -14.5 20.5 -14.6 20.6 -14.65 20.65 -14.75 20.75 -14.8 20.85 -14.85 20.95 -14.9 21.05 -15.0 21.15 -15.0 21.25 -15.05 21.35 -15.1 21.45 -15.15 21.6 -15.15 21.7 -15.2 21.8 -15.2 21.9 -15.2 22.05 -15.2 22.15 -15.2 22.35 -15.2 22.5 -15.2 22.65 -15.25 22.85 -15.25 23.0 -15.3 23.15 -15.35 23.35 -15.4 23.5 -15.4 23.65 -15.5 23.8 -15.55 23.95 -15.6 24.1 -15.7 24.25 -15.75 24.4 -15.85 24.55 -15.95 24.7 -15.95 24.75 -16.0 24.8 -16.0 24.85 -16.05 24.85 -16.05 24.9 -16.05 24.95 -16.1 25.0 -16.1 25.05 -16.1 25.1 -16.1 25.15 -16.15 25.2 -16.15 25.25 -16.15 25.3 -16.15 25.35 -16.15 25.4 -16.15 25.45 L-16.15 25.45 M10.0 21.2 Q10.1 21.35 10.2 21.45 10.25 21.6 10.35 21.75 10.4 21.9 10.4 22.0 10.45 22.15 10.45 22.3 10.5 22.45 10.45 22.6 10.45 22.7 10.45 22.85 10.45 23.0 10.4 23.15 10.4 23.3 10.35 23.45 10.3 23.6 10.3 23.75 10.25 23.9 10.25 24.0 10.2 24.15 10.2 24.3 10.2 24.45 10.2 24.6 10.25 24.75 10.25 24.85 10.25 25.0 10.3 25.15 10.35 25.3 10.4 25.45 10.45 25.6 10.5 25.7 10.55 25.75 10.55 25.8 10.6 25.9 10.6 25.95 10.6 26.0 10.65 26.05 10.65 26.15 10.7 26.2 10.7 26.25 10.7 26.3 10.75 26.35 10.75 26.45 10.8 26.5 10.8 26.55 10.8 26.6 10.8 26.65 10.8 26.75 10.85 26.8 10.85 26.85 10.9 26.85 10.95 26.9 10.95 26.9 11.0 26.9 11.05 26.9 11.1 26.9 11.15 26.9 11.65 26.8 13.35 26.45 14.75 26.2 15.6 25.95 15.65 25.95 15.7 25.9 15.75 25.9 15.8 25.85 15.8 25.85 15.8 25.8 15.85 25.75 15.8 25.7 15.8 25.7 15.8 25.6 15.8 25.5 15.75 25.45 15.75 25.35 15.75 25.3 15.7 25.2 15.7 25.1 15.65 25.05 15.65 24.95 15.6 24.9 15.55 24.8 15.55 24.75 15.5 24.65 15.5 24.55 15.45 24.5 15.45 24.4 15.4 24.35 15.35 24.2 15.3 24.05 15.25 23.85 15.2 23.7 15.15 23.55 15.1 23.4 15.05 23.25 15.05 23.1 15.0 22.9 15.0 22.75 15.0 22.6 15.0 22.45 15.0 22.25 15.05 22.1 15.05 21.95 15.1 21.8 15.15 21.55 15.25 21.15 15.4 20.65 15.45 20.5 15.45 20.4 15.45 20.35 15.45 20.25 15.45 20.25 15.4 20.2 15.4 20.15 15.35 20.15 15.25 20.15 15.2 20.15 15.1 20.2 14.8 20.3 14.5 20.35 14.15 20.45 13.85 20.5 13.55 20.6 13.25 20.65 12.9 20.7 12.6 20.8 12.25 20.85 11.95 20.9 11.65 20.95 11.3 21.0 11.0 21.1 10.65 21.1 10.3 21.15 10.0 21.2 L10.0 21.2 M-17.5 26.2 Q-17.55 26.05 -17.55 25.85 -17.6 25.7 -17.6 25.55 -17.6 25.4 -17.6 25.25 -17.6 25.1 -17.55 24.95 -17.55 24.8 -17.5 24.65 -17.45 24.5 -17.4 24.4 -17.35 24.25 -17.25 24.1 -17.2 23.95 -17.1 23.85 -17.05 23.75 -17.0 23.65 -16.95 23.55 -16.9 23.45 -16.85 23.35 -16.8 23.25 -16.8 23.15 -16.75 23.05 -16.75 22.95 -16.7 22.85 -16.7 22.7 -16.7 22.6 -16.65 22.5 -16.65 22.4 -16.65 22.3 -16.65 22.2 -16.65 22.05 -16.65 21.9 -16.65 21.75 -16.6 21.6 -16.6 21.45 -16.55 21.35 -16.55 21.2 -16.5 21.05 -16.45 20.9 -16.4 20.8 -16.35 20.65 -16.3 20.55 -16.25 20.4 -16.15 20.25 -16.1 20.15 -16.0 20.05 -15.95 20.0 -15.95 19.95 -15.9 19.9 -15.9 19.9 -15.9 19.85 -15.95 19.85 -15.95 19.8 -16.0 19.8 -16.05 19.75 -16.1 19.75 -16.3 19.7 -16.45 19.6 -16.65 19.55 -16.8 19.5 -16.95 19.4 -17.15 19.35 -17.3 19.3 -17.45 19.2 -17.65 19.15 -17.8 19.05 -17.95 18.95 -18.15 18.9 -18.3 18.8 -18.45 18.7 -18.6 18.6 -18.75 18.5 -18.8 18.45 -18.85 18.45 -18.85 18.4 -18.9 18.45 -18.95 18.45 -19.0 18.45 -19.1 18.55 -19.1 18.55 -19.15 18.6 -19.2 18.65 -19.25 18.7 -19.3 18.75 -19.35 18.85 -19.4 18.9 -19.45 18.95 -19.5 19.0 -19.55 19.05 -19.55 19.1 -19.6 19.2 -19.6 19.25 -19.65 19.35 -19.65 19.4 -19.65 19.5 -19.7 19.55 -19.7 19.65 -19.7 19.7 -19.75 19.8 -19.75 19.85 -19.75 19.95 -19.8 20.0 -19.8 20.1 -19.8 20.15 -19.8 20.25 -19.8 20.35 -19.8 20.4 -19.8 20.5 -19.8 20.55 -19.8 20.65 -19.8 20.9 -19.8 21.15 -19.75 21.4 -19.8 21.65 -19.8 21.85 -19.8 22.1 -19.8 22.35 -19.85 22.6 -19.85 22.85 -19.9 23.1 -19.95 23.3 -20.0 23.55 -20.05 23.8 -20.15 24.05 -20.2 24.25 -20.3 24.5 -20.3 24.55 -20.3 24.6 -20.35 24.65 -20.35 24.7 -20.35 24.75 -20.3 24.8 -20.3 24.85 -20.3 24.85 -20.25 24.9 -20.25 24.95 -20.2 24.95 -20.2 25.0 -20.15 25.0 -20.1 25.05 -20.1 25.1 -20.05 25.1 -19.9 25.2 -19.75 25.25 -19.6 25.35 -19.45 25.45 -19.3 25.5 -19.15 25.55 -19.0 25.65 -18.85 25.7 -18.7 25.75 -18.5 25.85 -18.35 25.9 -18.2 25.95 -18.05 26.0 -17.85 26.1 -17.7 26.15 -17.5 26.2 L-17.5 26.2 M17.3 25.6 Q17.7 25.45 18.8 24.85 18.9 24.8 19.0 24.7 19.1 24.65 19.25 24.6 19.35 24.5 19.45 24.45 19.55 24.35 19.6 24.3 19.7 24.2 19.8 24.15 19.9 24.05 20.0 23.95 20.1 23.9 20.15 23.8 20.25 23.7 20.3 23.6 20.35 23.55 20.4 23.45 20.45 23.4 20.5 23.3 20.55 23.25 20.6 23.15 20.6 23.1 20.6 23.0 20.65 22.95 20.65 22.85 20.65 22.8 20.65 22.7 20.65 22.65 20.6 22.55 20.6 22.45 20.55 22.35 20.5 22.2 20.45 22.1 20.4 22.0 20.4 21.85 20.35 21.75 20.3 21.6 20.3 21.5 20.25 21.35 20.2 21.2 20.2 21.1 20.15 20.95 20.15 20.85 20.1 20.7 20.1 20.6 20.1 20.45 20.1 20.3 20.1 20.05 20.1 18.95 20.1 18.9 20.1 18.85 20.05 18.8 20.05 18.8 20.05 18.75 20.0 18.75 20.0 18.75 19.95 18.75 19.9 18.75 19.85 18.8 19.25 19.05 17.0 19.75 17.5 19.45 16.9 19.8 16.9 19.8 16.85 19.85 16.85 19.9 16.85 19.95 16.9 20.05 16.9 20.15 16.9 20.25 16.9 20.4 16.9 20.5 16.9 20.6 16.9 20.7 16.85 20.8 16.85 20.9 16.85 21.0 16.8 21.1 16.75 21.2 16.75 21.3 16.7 21.4 17.6 18.7 16.65 21.6 16.6 21.75 16.55 21.85 16.55 22.0 16.5 22.15 16.5 22.25 16.5 22.4 16.45 22.5 16.5 22.65 16.5 22.8 16.5 22.9 16.5 23.05 16.55 23.15 16.55 23.3 16.6 23.4 16.65 23.55 16.7 23.7 16.75 23.8 16.8 23.9 16.85 24.05 16.9 24.15 16.95 24.25 16.95 24.4 17.0 24.5 17.05 24.6 17.1 24.75 17.1 24.85 17.15 24.95 17.2 25.1 17.2 25.2 17.25 25.35 17.25 25.45 17.3 25.6 L17.3 25.6 M-0.1 -16.25 Q-0.1 -16.15 -0.15 -16.05 -0.15 -15.95 -0.15 -15.85 -0.2 -15.75 -0.2 -15.65 -0.2 -15.55 -0.2 -15.45 -0.25 -15.35 -0.25 -15.25 -0.25 -15.15 -0.25 -15.05 -0.25 -14.95 -0.25 -14.85 -0.25 -14.75 -0.25 -14.65 -0.25 -14.6 -0.25 -14.6 -0.25 -14.55 -0.25 -14.5 -0.2 -14.5 -0.2 -14.45 -0.2 -14.45 -0.15 -14.4 -0.15 -14.4 -0.15 -14.4 -0.1 -14.35 -0.1 -14.35 -0.05 -14.35 -0.05 -14.35 0.0 -14.35 0.0 -14.3 0.25 -14.25 0.7 -14.15 1.15 -14.0 1.35 -14.0 1.5 -13.95 1.6 -13.95 1.75 -13.9 1.9 -13.9 2.0 -13.9 2.15 -13.9 2.3 -13.9 2.4 -13.9 2.55 -13.9 2.65 -13.95 2.8 -13.95 2.9 -14.0 3.05 -14.05 3.15 -14.15 3.25 -14.2 3.4 -14.3 3.5 -14.4 3.45 -14.35 3.5 -14.4 3.5 -14.45 3.5 -14.45 3.55 -14.5 3.55 -14.55 3.55 -14.55 3.55 -14.6 3.5 -14.65 3.3 -15.3 3.0 -16.15 2.95 -16.2 2.95 -16.2 2.9 -16.25 2.9 -16.25 2.85 -16.25 2.8 -16.25 2.8 -16.25 2.75 -16.25 2.55 -16.2 2.4 -16.15 2.2 -16.1 2.05 -16.05 1.85 -16.05 1.65 -16.0 1.5 -16.0 1.3 -16.0 1.15 -16.0 0.95 -16.05 0.8 -16.05 0.6 -16.05 0.4 -16.1 0.25 -16.15 0.05 -16.2 -0.1 -16.25 L-0.1 -16.25 M-1.3 -14.8 Q-1.2 -16.1 -1.15 -16.45 -1.15 -16.5 -1.15 -16.55 -1.15 -16.6 -1.15 -16.6 -1.2 -16.65 -1.25 -16.65 -1.25 -16.65 -1.3 -16.7 -1.45 -16.75 -1.6 -16.85 -1.8 -16.9 -1.95 -16.95 -2.1 -17.0 -2.25 -17.1 -2.4 -17.15 -2.6 -17.25 -2.75 -17.3 -2.9 -17.35 -3.05 -17.45 -3.2 -17.5 -3.35 -17.6 -3.5 -17.65 -3.65 -17.75 -3.8 -17.8 -3.85 -17.85 -3.9 -17.85 -3.95 -17.85 -4.0 -17.85 -4.05 -17.85 -4.05 -17.8 -4.1 -17.8 -4.15 -17.75 -4.2 -17.7 -4.2 -17.6 -4.25 -17.55 -4.3 -17.45 -4.35 -17.4 -4.4 -17.3 -4.4 -17.25 -4.45 -17.2 -4.5 -17.1 -4.55 -17.05 -4.55 -16.95 -4.6 -16.9 -4.65 -16.85 -4.7 -16.75 -4.75 -16.7 -4.8 -16.65 -4.85 -16.6 -4.85 -16.55 -4.85 -16.5 -4.85 -16.45 -4.8 -16.45 -4.8 -16.4 -4.75 -16.4 -4.7 -16.35 -4.5 -16.25 -4.3 -16.15 -4.1 -16.05 -3.85 -15.9 -3.65 -15.8 -3.45 -15.7 -3.25 -15.6 -3.05 -15.5 -2.8 -15.4 -2.6 -15.35 -2.4 -15.25 -2.15 -15.15 -1.95 -15.05 -1.75 -14.95 -1.5 -14.85 -1.3 -14.8 L-1.3 -14.8 M-7.7 -20.05 Q-7.75 -20.05 -7.8 -20.05 -7.75 -20.05 -7.85 -19.95 -8.45 -18.95 -8.5 -18.85 -8.55 -18.8 -8.55 -18.75 -8.55 -18.75 -8.55 -18.7 -8.55 -18.7 -8.55 -18.65 -8.55 -18.65 -8.5 -18.6 -8.5 -18.6 -8.45 -18.55 -7.3 -17.9 -5.95 -17.05 -5.9 -17.0 -5.85 -17.0 -5.85 -17.0 -5.8 -17.0 -5.75 -17.0 -5.75 -17.05 -5.7 -17.05 -5.65 -17.1 -5.6 -17.15 -5.6 -17.25 -5.55 -17.3 -5.5 -17.4 -5.45 -17.45 -5.45 -17.55 -5.4 -17.6 -5.35 -17.65 -5.3 -17.75 -5.25 -17.8 -5.25 -17.9 -5.2 -17.95 -5.15 -18.0 -5.1 -18.1 -5.05 -18.15 -5.0 -18.2 -4.95 -18.25 -4.95 -18.3 -4.95 -18.35 -5.0 -18.4 -5.0 -18.4 -5.0 -18.45 -5.05 -18.45 -5.1 -18.5 -5.7 -18.85 -7.55 -20.0 -7.6 -20.0 -7.65 -20.0 -7.65 -20.05 -7.7 -20.05 L-7.7 -20.05 M5.2 -18.65 Q5.15 -18.5 5.05 -18.4 5.0 -18.25 4.95 -18.15 4.85 -18.05 4.8 -17.9 4.7 -17.8 4.65 -17.7 4.55 -17.55 4.45 -17.45 4.35 -17.35 4.3 -17.25 4.2 -17.15 4.1 -17.05 4.0 -16.95 3.9 -16.9 3.85 -16.85 3.85 -16.85 3.8 -16.8 3.8 -16.8 3.8 -16.75 3.85 -16.7 4.05 -16.2 4.45 -15.2 4.55 -15.3 4.65 -15.4 4.75 -15.55 4.85 -15.65 4.95 -15.75 5.05 -15.85 5.15 -16.0 5.2 -16.1 5.3 -16.2 5.4 -16.3 5.45 -16.45 5.55 -16.55 5.65 -16.65 5.7 -16.8 5.8 -16.9 5.85 -17.05 5.9 -17.1 5.9 -17.15 5.9 -17.2 5.95 -17.2 5.95 -17.25 5.9 -17.3 5.9 -17.35 5.9 -17.4 5.85 -17.5 5.85 -17.55 5.8 -17.65 5.75 -17.7 5.7 -17.8 5.65 -17.85 5.6 -17.95 5.55 -18.0 5.55 -18.05 5.5 -18.15 5.4 -18.25 5.4 -18.3 5.35 -18.4 5.3 -18.5 5.25 -18.55 5.2 -18.65 L5.2 -18.65 M-9.45 -19.3 Q-9.3 -19.5 -9.1 -19.9 -8.8 -20.3 -8.7 -20.5 -8.65 -20.55 -8.65 -20.6 -8.65 -20.65 -8.65 -20.7 -8.65 -20.75 -8.7 -20.75 -8.7 -20.8 -8.8 -20.85 -8.9 -20.9 -8.95 -20.95 -9.05 -21.0 -9.1 -21.05 -9.2 -21.1 -9.3 -21.15 -9.35 -21.2 -9.45 -21.25 -9.5 -21.3 -9.6 -21.35 -9.65 -21.4 -9.75 -21.45 -9.8 -21.5 -9.9 -21.55 -9.95 -21.65 -10.05 -21.7 -10.1 -21.75 -10.1 -21.75 -10.15 -21.75 -10.15 -21.8 -10.2 -21.8 -10.2 -21.8 -10.25 -21.8 -10.25 -21.8 -10.3 -21.8 -10.3 -21.8 -10.35 -21.75 -10.35 -21.75 -10.4 -21.75 -10.4 -21.7 -10.45 -21.7 -10.45 -21.65 -10.55 -21.55 -10.8 -21.35 -11.05 -21.15 -11.15 -21.05 -11.2 -21.0 -11.2 -21.0 -11.25 -20.95 -11.25 -20.9 -11.25 -20.85 -11.2 -20.85 -11.2 -20.8 -11.15 -20.75 -10.85 -20.45 -10.3 -20.0 -9.5 -19.3 -9.45 -19.3 L-9.45 -19.3 M6.6 -18.3 Q6.9 -19.25 6.95 -19.6 6.95 -19.65 6.95 -19.75 6.95 -19.8 6.95 -19.85 6.9 -19.95 6.85 -20.0 6.85 -20.1 6.8 -20.15 6.75 -20.2 6.7 -20.25 6.65 -20.3 6.6 -20.35 6.5 -20.4 6.45 -20.45 6.4 -20.45 6.35 -20.5 6.25 -20.5 6.2 -20.5 6.15 -20.5 6.1 -20.5 6.05 -20.45 6.0 -20.4 6.0 -20.4 5.95 -20.35 5.95 -20.3 5.95 -20.25 5.95 -20.25 5.9 -20.15 5.9 -20.1 5.85 -20.05 5.85 -20.0 5.85 -20.0 5.75 -19.85 5.75 -19.8 5.7 -19.7 5.75 -19.6 5.8 -19.55 5.85 -19.45 5.95 -19.4 6.0 -19.3 6.05 -19.25 6.1 -19.15 6.15 -19.1 6.2 -19.0 6.2 -18.95 6.3 -18.8 6.35 -18.7 6.4 -18.65 6.45 -18.55 6.5 -18.5 6.55 -18.4 6.6 -18.3 L6.6 -18.3" fill="#020202" fill-rule="evenodd" stroke="none"/>
    <path d="M4.65 8.3 Q4.6 8.25 4.6 8.2 4.55 8.15 4.5 8.15 4.45 8.1 4.45 8.1 4.4 8.05 4.35 8.05 4.3 8.05 4.25 8.05 4.2 8.05 4.15 8.05 4.1 8.1 4.05 8.1 4.05 8.1 4.0 8.1 3.7 8.15 3.35 8.25 3.05 8.35 2.7 8.4 2.4 8.5 2.1 8.6 1.75 8.7 1.45 8.8 1.15 8.9 0.85 9.0 0.55 9.1 0.2 9.2 -0.1 9.35 -0.4 9.45 -0.7 9.55 -1.0 9.7 -1.15 9.75 -1.4 9.8 -1.65 9.9 -1.8 9.95 -2.0 9.95 -1.85 9.95 -1.9 9.95 -1.95 9.95 -2.0 9.95 -2.0 9.9 -2.05 9.9 -2.05 9.85 -1.95 9.85 -1.85 9.8 -1.8 9.75 -1.7 9.75 -1.6 9.7 -1.55 9.65 -1.45 9.65 -1.4 9.6 -1.3 9.55 -1.25 9.5 -1.15 9.45 -1.1 9.4 -1.0 9.35 -0.95 9.3 -0.85 9.25 -0.8 9.2 1.2 7.7 1.45 7.5 1.85 7.2 2.25 6.9 2.65 6.6 3.05 6.3 3.4 5.95 3.8 5.65 4.15 5.3 4.5 4.95 4.85 4.6 5.2 4.25 5.5 3.9 5.85 3.5 6.2 3.15 6.5 2.75 6.85 2.4 7.15 2.0 7.3 1.8 7.45 1.65 7.6 1.45 7.75 1.25 7.9 1.05 8.05 0.85 8.2 0.65 8.35 0.45 8.45 0.25 8.6 0.05 8.7 -0.15 8.85 -0.35 8.95 -0.55 9.1 -0.75 9.2 -1.0 9.3 -1.2 9.4 -1.35 9.35 -1.3 9.4 -1.35 9.4 -1.4 9.45 -1.45 9.45 -1.5 9.45 -1.6 9.45 -1.65 9.5 -1.7 9.5 -1.75 9.5 -1.8 9.45 -1.85 9.45 -1.9 9.4 -1.95 9.4 -2.0 9.35 -2.05 9.4 -2.05 9.45 -2.05 9.5 -2.05 9.55 -2.05 9.55 -2.0 9.6 -2.0 9.6 -1.95 9.65 -1.95 9.65 -1.9 9.65 -1.85 9.7 -1.85 9.7 -1.8 9.7 -1.75 9.7 -1.7 9.7 -1.65 9.7 -1.6 9.7 -1.5 9.7 -1.35 9.65 -1.25 9.65 -1.1 9.65 -1.0 9.65 -0.9 9.65 -0.75 9.65 -0.65 9.6 -0.5 9.6 -0.4 9.6 -0.25 9.6 -0.15 9.6 0.0 9.6 0.1 9.6 0.25 9.6 0.35 9.6 0.4 9.6 0.55 9.6 0.7 9.6 0.8 9.6 0.85 9.65 0.9 9.65 0.95 9.65 1.0 9.7 1.05 9.7 1.1 9.7 1.15 9.75 1.2 9.8 1.25 9.8 1.3 9.85 1.35 9.9 1.35 9.95 1.4 10.0 1.45 10.05 1.45 10.1 1.5 10.2 1.55 10.3 1.6 10.4 1.7 10.45 1.75 10.55 1.85 10.6 1.9 10.65 2.0 10.65 2.1 10.7 2.15 10.7 2.25 10.7 2.35 10.7 2.45 10.7 2.55 10.65 2.7 10.65 2.8 10.6 2.9 10.55 3.0 10.5 3.05 10.45 3.15 10.4 3.2 10.35 3.3 10.3 3.4 10.25 3.45 10.2 3.55 10.15 3.6 10.1 3.7 10.05 3.75 9.95 3.8 9.9 3.9 9.85 3.95 9.8 4.05 9.75 4.1 9.65 4.2 8.4 5.7 8.35 5.7 8.35 5.75 8.25 5.85 8.3 5.8 8.25 5.85 8.2 5.85 8.15 5.9 8.15 5.9 8.1 5.9 8.05 5.9 8.1 5.8 8.1 5.75 8.15 5.7 8.2 5.65 8.2 5.6 8.25 5.55 8.3 5.5 8.35 5.45 8.35 5.45 8.4 5.4 8.45 5.35 8.5 5.3 8.5 5.25 8.55 5.2 8.6 5.15 8.6 5.1 8.65 5.05 8.7 5.0 8.7 4.95 8.75 4.9 8.75 4.9 8.75 4.85 8.75 4.8 8.75 4.75 8.8 4.75 8.75 4.7 8.75 4.65 8.75 4.65 8.75 4.6 8.7 4.55 8.7 4.55 8.65 4.5 8.65 4.5 8.6 4.45 8.55 4.4 8.55 4.4 8.5 4.4 8.45 4.4 8.45 4.35 8.4 4.35 8.4 4.35 8.35 4.4 8.35 4.4 8.3 4.4 8.25 4.4 8.25 4.45 8.2 4.45 8.2 4.5 8.15 4.5 8.15 4.55 8.15 4.55 8.1 4.6 8.1 4.6 8.05 4.65 8.05 4.65 8.0 4.7 8.0 4.7 7.95 4.7 7.95 4.75 7.9 4.75 7.9 4.8 7.9 4.8 7.85 4.85 7.85 4.85 7.8 4.9 7.8 4.9 5.85 7.2 4.65 8.3 L4.65 8.3" fill="#000000" fill-opacity="0.16862746" fill-rule="evenodd" stroke="none"/>
    <path d="M9.35 -2.05 Q9.4 -2.0 9.45 -1.95 9.45 -1.9 9.45 -1.85 9.5 -1.8 9.5 -1.75 9.5 -1.7 9.5 -1.6 9.45 -1.55 9.45 -1.5 9.45 -1.45 9.4 -1.4 9.4 -1.35 9.35 -1.3 9.5 -1.6 9.3 -1.2 9.2 -1.0 9.1 -0.75 8.95 -0.55 8.85 -0.35 8.7 -0.15 8.6 0.05 8.45 0.25 8.35 0.45 8.2 0.65 8.05 0.85 7.9 1.05 7.75 1.25 7.6 1.45 7.45 1.65 7.3 1.8 7.15 2.0 6.8 2.4 6.5 2.75 6.2 3.15 5.85 3.5 5.5 3.9 5.2 4.25 4.85 4.6 4.5 4.95 4.15 5.3 3.8 5.65 3.4 5.95 3.05 6.3 2.65 6.6 2.25 6.9 1.85 7.2 1.45 7.5 1.4 7.5 -0.8 9.2 -0.9 9.25 -0.95 9.3 -1.0 9.35 -1.1 9.4 -1.15 9.45 -1.25 9.5 -1.3 9.55 -1.4 9.6 -1.45 9.65 -1.55 9.65 -1.6 9.7 -1.7 9.75 -1.8 9.75 -1.85 9.8 -1.95 9.8 -2.05 9.85 -2.1 9.8 -2.15 9.8 -2.2 9.75 -2.25 9.7 -2.3 9.65 -2.3 9.6 -2.35 9.6 -2.35 9.55 -2.35 9.5 -2.3 9.45 -2.3 9.4 -2.25 9.35 -2.25 9.3 -2.2 9.25 -2.15 9.2 -2.1 9.15 -1.65 8.85 -0.6 8.05 0.35 7.35 0.9 6.95 1.45 6.55 1.95 6.15 2.45 5.75 2.95 5.3 3.45 4.9 3.9 4.45 4.35 4.0 4.8 3.5 5.25 3.05 5.65 2.55 6.1 2.05 6.5 1.55 6.9 1.05 7.3 0.55 7.65 0.0 8.0 -0.55 8.05 -0.6 8.1 -0.7 8.15 -0.75 8.2 -0.85 8.25 -0.9 8.3 -1.0 8.35 -1.05 8.4 -1.15 8.45 -1.2 8.45 -1.3 8.5 -1.35 8.55 -1.45 8.6 -1.55 8.6 -1.6 8.65 -1.7 8.7 -1.8 8.7 -1.85 8.75 -1.9 8.75 -1.95 8.8 -2.0 8.85 -2.0 8.85 -2.05 8.9 -2.05 8.95 -2.1 8.95 -2.1 9.0 -2.1 9.05 -2.1 9.1 -2.1 9.15 -2.1 9.2 -2.1 9.25 -2.1 9.35 -2.05 L9.35 -2.05" fill="#020202" fill-rule="evenodd" stroke="none"/>
    <path d="M4.65 8.3 Q5.85 7.2 7.8 4.9 7.85 4.8 8.15 4.55 8.15 4.5 8.2 4.5 8.2 4.45 8.25 4.45 8.25 4.45 8.3 4.4 8.35 4.4 8.35 4.4 8.4 4.35 8.4 4.35 8.45 4.35 8.5 4.4 8.5 4.4 8.55 4.4 8.6 4.4 8.6 4.45 8.65 4.5 8.65 4.5 8.7 4.55 8.7 4.55 8.75 4.6 8.75 4.65 8.75 4.65 8.75 4.7 8.75 4.75 8.75 4.75 8.75 4.8 8.75 4.85 8.75 4.9 8.75 4.9 8.7 4.95 8.7 5.0 8.2 5.65 8.1 5.75 8.1 5.8 8.05 5.85 8.05 5.9 8.05 5.9 8.0 5.95 8.0 6.0 7.95 6.0 7.95 6.05 7.9 6.05 7.9 6.1 7.85 6.1 7.85 6.1 7.8 6.15 7.8 6.15 7.75 6.2 7.75 6.2 7.7 6.25 7.7 6.25 7.7 6.3 7.65 6.35 7.65 6.35 7.65 6.4 7.25 6.8 5.95 8.05 5.9 8.1 5.85 8.15 5.85 8.2 5.8 8.25 5.75 8.3 5.7 8.3 5.65 8.35 5.6 8.4 5.55 8.45 5.5 8.5 5.45 8.5 5.4 8.55 5.35 8.6 5.3 8.6 5.25 8.65 5.2 8.7 5.15 8.7 5.1 8.75 5.0 8.75 4.95 8.8 4.9 8.8 4.85 8.8 4.8 8.8 4.8 8.8 4.75 8.8 4.7 8.75 4.65 8.75 4.65 8.75 4.6 8.7 4.55 8.65 4.5 8.6 4.5 8.55 4.5 8.55 4.5 8.5 4.55 8.45 4.55 8.4 4.6 8.35 4.6 8.35 4.65 8.3 4.65 8.3 L4.65 8.3" fill="#020202" fill-rule="evenodd" stroke="none"/>
  </g>
</svg>
