<?xml version="1.0" encoding="UTF-8" standalone="no"?>
<svg xmlns:xlink="http://www.w3.org/1999/xlink" height="200.0px" width="200.0px" xmlns="http://www.w3.org/2000/svg">
  <g transform="matrix(1.0, 0.0, 0.0, 1.0, 100.0, 100.0)">
    <path d="M-1.5 -10.3 Q-2.0 -10.3 -2.5 -10.35 -2.95 -10.35 -3.45 -10.4 -3.9 -10.45 -4.4 -10.55 -4.85 -10.6 -5.3 -10.7 -5.75 -10.8 -6.2 -10.95 -6.6 -11.05 -7.05 -11.2 -7.5 -11.35 -7.9 -11.55 -8.35 -11.7 -8.75 -11.9 -8.85 -11.95 -8.95 -12.0 -9.05 -12.05 -9.1 -12.1 -9.15 -12.15 -9.2 -12.2 -9.25 -12.3 -9.3 -12.35 -9.35 -12.4 -9.35 -12.5 -9.35 -12.6 -9.35 -12.65 -9.35 -12.75 -9.3 -12.85 -9.3 -12.95 -9.25 -13.1 -8.95 -14.15 -8.5 -15.35 -8.45 -15.45 -8.4 -15.55 -8.35 -15.65 -8.3 -15.7 -8.25 -15.8 -8.2 -15.85 -8.1 -15.9 -8.05 -15.95 -7.95 -16.0 -7.9 -16.0 -7.8 -16.0 -7.7 -16.0 -7.6 -16.0 -7.55 -16.0 -7.45 -15.95 -7.35 -15.95 -7.1 -15.85 -6.85 -15.75 -6.55 -15.65 -6.3 -15.55 -6.05 -15.45 -5.75 -15.4 -5.5 -15.3 -5.25 -15.25 -5.0 -15.2 -4.7 -15.1 -4.45 -15.05 -4.15 -15.0 -3.9 -14.95 -3.65 -14.95 -3.35 -14.9 -3.1 -14.9 -2.65 -14.85 -2.2 -14.85 -1.75 -14.8 -1.25 -14.85 -0.8 -14.85 -0.4 -14.9 0.05 -14.95 0.5 -15.0 0.95 -15.05 1.4 -15.15 1.85 -15.25 2.25 -15.4 2.7 -15.5 3.15 -15.7 3.55 -15.85 4.0 -16.0 4.1 -16.05 4.2 -16.1 4.3 -16.1 4.35 -16.15 4.45 -16.15 4.5 -16.15 4.6 -16.15 4.65 -16.15 4.7 -16.1 4.75 -16.05 4.85 -16.05 4.9 -15.95 4.95 -15.9 5.0 -15.85 5.05 -15.75 5.15 -15.65 5.65 -14.85 6.35 -13.75 6.4 -13.65 6.45 -13.6 6.5 -13.5 6.5 -13.4 6.55 -13.35 6.55 -13.25 6.55 -13.15 6.5 -13.1 6.5 -13.0 6.45 -12.95 6.45 -12.85 6.4 -12.8 6.35 -12.75 6.25 -12.65 6.2 -12.6 6.1 -12.55 5.65 -12.25 5.2 -12.0 4.75 -11.7 4.25 -11.5 3.8 -11.25 3.35 -11.1 2.85 -10.9 2.4 -10.75 1.9 -10.6 1.4 -10.5 0.95 -10.4 0.45 -10.35 -0.05 -10.3 -0.55 -10.3 -1.0 -10.25 -1.5 -10.3 L-1.5 -10.3 M-7.85 -13.05 Q-7.0 -12.75 -6.25 -12.5 -5.4 -12.25 -4.65 -12.1 -3.8 -11.9 -3.05 -11.85 -2.25 -11.75 -1.45 -11.75 -0.65 -11.75 0.15 -11.85 0.95 -11.95 1.7 -12.15 2.5 -12.35 3.3 -12.65 4.1 -13.0 4.9 -13.45 4.5 -14.0 4.4 -14.15 4.4 -14.2 4.35 -14.25 4.35 -14.3 4.3 -14.35 4.3 -14.35 4.25 -14.4 4.2 -14.4 4.2 -14.4 4.15 -14.45 4.1 -14.45 4.1 -14.45 4.05 -14.45 4.0 -14.45 3.95 -14.4 3.9 -14.4 3.85 -14.4 3.3 -14.2 2.75 -14.0 2.15 -13.85 1.6 -13.7 1.05 -13.6 0.45 -13.5 -0.1 -13.4 -0.7 -13.35 -1.25 -13.35 -1.8 -13.35 -2.4 -13.35 -3.0 -13.4 -3.55 -13.45 -4.15 -13.5 -4.7 -13.6 -5.3 -13.75 -5.45 -13.8 -7.45 -14.35 -7.55 -13.95 -7.85 -13.05 L-7.85 -13.05" fill="#000000" fill-rule="evenodd" stroke="none"/>
    <path d="M3.55 -1.05 Q3.65 -1.15 3.8 -1.25 3.9 -1.3 3.95 -1.45 4.05 -1.55 4.15 -1.65 4.2 -1.75 4.3 -1.9 4.35 -2.0 4.45 -2.15 4.5 -2.3 4.55 -2.4 4.6 -2.55 4.65 -2.7 4.7 -2.8 4.75 -2.95 4.9 -3.35 5.1 -3.75 5.25 -4.15 5.45 -4.55 5.65 -4.9 5.85 -5.3 6.05 -5.65 6.3 -6.0 6.55 -6.3 6.8 -6.65 7.05 -7.0 7.3 -7.3 7.55 -7.6 7.85 -7.9 8.1 -8.2 8.4 -8.45 8.5 -8.55 8.55 -8.65 8.65 -8.75 8.7 -8.8 8.75 -8.9 8.8 -9.0 8.8 -9.1 8.8 -9.2 8.85 -9.3 8.8 -9.4 8.8 -9.45 8.8 -9.55 8.75 -9.65 8.75 -9.75 8.7 -9.85 8.65 -10.0 8.6 -10.1 8.55 -10.15 8.5 -10.25 8.5 -10.3 8.45 -10.4 8.4 -10.5 8.4 -10.55 8.35 -10.65 8.3 -10.75 8.3 -10.85 8.25 -10.9 8.25 -11.0 8.2 -11.1 8.2 -11.2 8.15 -11.3 8.15 -11.4 8.15 -11.45 8.1 -11.55 8.1 -11.6 8.1 -11.65 8.1 -11.7 8.1 -11.75 8.1 -11.8 8.1 -11.85 8.1 -11.9 8.1 -11.95 8.1 -12.0 8.1 -12.0 8.1 -12.05 8.15 -12.1 8.15 -12.1 8.2 -12.15 8.2 -12.2 8.25 -12.2 8.25 -12.25 8.3 -12.25 8.35 -12.25 8.4 -12.25 8.4 -12.3 8.45 -12.3 8.5 -12.3 8.55 -12.3 8.55 -12.3 8.6 -12.3 8.65 -12.3 8.7 -12.3 8.75 -12.3 8.8 -12.3 9.0 -12.25 9.25 -12.2 9.4 -12.15 9.6 -12.05 9.8 -12.0 9.95 -11.9 10.1 -11.8 10.25 -11.7 10.4 -11.6 10.5 -11.55 10.6 -11.45 10.7 -11.4 10.75 -11.35 10.8 -11.3 10.8 -11.25 10.85 -11.25 11.8 -10.3 12.7 -9.3 13.45 -8.35 14.15 -7.45 14.8 -6.6 15.35 -5.75 15.85 -5.05 16.3 -4.3 16.65 -3.7 16.95 -3.1 17.2 -2.6 17.4 -2.15 17.55 -1.85 17.65 -1.55 17.65 -1.45 17.7 -1.35 17.85 -0.9 17.95 -0.5 18.1 -0.1 18.2 0.3 18.3 0.65 18.35 1.05 18.45 1.4 18.5 1.8 18.6 2.15 18.65 2.5 18.7 2.9 18.75 3.3 18.75 3.65 18.8 4.05 18.85 4.45 18.85 4.9 18.9 5.35 18.9 5.85 18.9 6.3 18.85 6.75 18.8 7.2 18.75 7.6 18.7 8.05 18.6 8.5 18.5 8.9 18.4 9.35 18.25 9.75 18.1 10.2 18.0 10.6 17.8 11.0 17.65 11.4 17.5 11.85 17.4 12.05 17.35 12.25 17.25 12.5 17.2 12.7 17.15 12.9 17.15 13.15 17.1 13.35 17.1 13.55 17.05 13.8 17.05 14.0 17.05 14.2 17.05 14.45 17.1 14.65 17.1 14.9 17.15 15.1 17.15 15.35 17.25 15.9 17.25 16.15 17.3 16.55 17.35 16.75 17.35 17.0 17.3 17.2 17.3 17.35 17.2 17.45 17.15 17.6 17.0 17.65 16.85 17.7 16.65 17.75 16.45 17.8 16.15 17.8 16.05 17.8 15.5 17.85 14.45 17.9 13.15 17.95 12.2 18.0 10.85 18.05 11.0 18.05 8.5 18.1 7.1 18.15 6.2 18.15 4.9 18.2 3.85 18.25 2.65 18.35 1.55 18.4 0.3 18.5 -0.8 18.65 -2.0 18.8 -3.1 18.95 -3.8 19.05 -4.5 19.2 -5.2 19.35 -5.95 19.5 -6.65 19.65 -7.35 19.8 -8.05 19.95 -8.75 20.1 -9.45 20.3 -10.15 20.45 -10.85 20.65 -11.5 20.85 -12.2 21.05 -12.9 21.25 -13.6 21.5 -14.3 21.7 -14.3 21.7 -14.35 21.7 -14.35 21.75 -14.4 21.75 -14.45 21.75 -14.5 21.75 -14.55 21.8 -14.6 21.8 -14.65 21.8 -14.75 21.85 -14.8 21.85 -14.9 21.85 -15.0 21.85 -15.05 21.85 -15.15 21.85 -15.25 21.85 -15.35 21.85 -15.35 21.85 -15.35 21.85 -15.4 21.85 -15.45 21.8 -15.5 21.8 -15.55 21.8 -15.6 21.8 -15.6 21.8 -15.65 21.75 -15.7 21.75 -15.75 21.75 -15.8 21.7 -15.85 21.7 -15.85 21.65 -15.9 21.65 -15.95 21.6 -16.0 21.55 -16.05 21.45 -16.1 21.4 -16.15 21.3 -16.15 21.25 -16.2 21.15 -16.2 21.1 -16.2 21.0 -16.2 20.95 -16.2 20.9 -16.2 20.8 -16.2 20.75 -16.2 20.7 -16.2 20.7 -16.2 20.6 -16.05 14.3 -16.4 10.4 -16.45 9.85 -16.5 9.3 -16.55 8.75 -16.6 8.2 -16.65 7.65 -16.7 7.1 -16.75 6.55 -16.8 6.0 -16.85 5.5 -16.9 4.95 -16.95 4.4 -17.0 3.85 -17.05 3.3 -17.1 2.75 -17.15 2.2 -17.2 1.65 -17.2 1.55 -17.2 1.5 -17.2 1.4 -17.2 1.35 -17.2 1.3 -17.2 1.25 -17.2 1.2 -17.2 1.15 -17.15 1.1 -17.15 1.05 -17.1 1.0 -17.05 0.95 -17.05 0.9 -17.0 0.85 -16.95 0.8 -16.9 0.8 -16.85 0.8 -16.85 0.75 -16.8 0.75 -16.75 0.7 -16.75 0.7 -16.7 0.65 -16.7 0.65 -16.65 0.65 -16.6 0.6 -16.6 0.6 -16.55 0.55 -16.55 0.55 -16.5 0.5 -16.5 0.5 -16.45 0.45 -16.45 0.45 -16.1 0.1 -15.8 -0.25 -15.55 -0.55 -15.35 -0.9 -15.15 -1.25 -15.05 -1.6 -14.95 -1.95 -14.9 -2.3 -14.85 -2.65 -14.9 -3.0 -14.95 -3.4 -15.05 -3.8 -15.15 -4.15 -15.3 -4.6 -15.5 -5.0 -15.7 -5.45 -15.8 -5.6 -15.85 -5.75 -15.9 -5.9 -15.95 -6.05 -16.05 -6.2 -16.05 -6.3 -16.1 -6.45 -16.15 -6.6 -16.15 -6.75 -16.15 -6.9 -16.15 -7.05 -16.15 -7.2 -16.15 -7.35 -16.1 -7.5 -16.1 -7.65 -16.05 -7.85 -15.95 -8.2 -15.85 -8.5 -15.75 -8.8 -15.65 -9.1 -15.5 -9.4 -15.4 -9.7 -15.25 -10.0 -15.1 -10.25 -14.95 -10.55 -14.8 -10.8 -14.65 -11.05 -14.45 -11.3 -14.25 -11.55 -14.0 -11.75 -13.8 -11.95 -13.55 -12.15 -13.4 -12.25 -13.25 -12.35 -13.1 -12.4 -13.0 -12.45 -12.85 -12.45 -12.75 -12.45 -12.65 -12.45 -12.55 -12.45 -12.45 -12.4 -12.35 -12.35 -12.25 -12.25 -12.15 -12.15 -12.1 -12.05 -12.0 -11.9 -11.9 -11.75 -11.85 -11.55 -10.05 -7.65 -9.8 -7.05 -9.8 -7.05 -9.75 -7.0 -9.75 -6.95 -9.7 -6.9 -9.7 -6.85 -9.7 -6.85 -9.65 -6.8 -9.65 -6.8 -9.6 -6.75 -9.6 -6.75 -9.55 -6.7 -9.5 -6.7 -9.5 -6.65 -9.45 -6.65 -9.4 -6.65 -9.35 -6.65 -8.75 -6.6 -8.1 -6.45 -7.5 -6.3 -6.9 -6.1 -6.3 -5.9 -5.7 -5.65 -5.15 -5.4 -4.6 -5.1 -4.05 -4.8 -3.45 -4.45 -2.95 -4.15 -2.35 -3.75 -1.95 -3.5 -1.3 -3.05 -0.4 -2.5 -0.2 -2.35 -0.1 -2.3 0.0 -2.2 0.05 -2.15 0.2 -2.0 0.4 -1.9 0.45 -1.8 0.6 -1.7 0.75 -1.6 0.9 -1.5 1.05 -1.4 1.2 -1.3 1.4 -1.2 1.6 -1.1 1.8 -1.05 2.0 -1.0 2.2 -0.95 2.3 -0.95 2.4 -0.95 2.5 -0.9 2.6 -0.9 2.7 -0.9 2.8 -0.95 2.9 -0.95 3.0 -0.95 3.05 -0.95 3.15 -0.95 3.2 -0.95 3.3 -1.0 3.35 -1.0 3.45 -1.0 3.5 -1.05 3.55 -1.05 L3.55 -1.05 M10.6 -9.6 Q10.7 -9.1 10.95 -8.3 11.2 -7.3 11.3 -7.05 11.4 -6.75 11.45 -6.5 11.5 -6.25 11.55 -6.0 11.6 -5.7 11.65 -5.45 11.7 -5.2 11.7 -4.9 11.75 -4.65 11.75 -4.4 11.8 -4.1 11.75 -3.85 11.75 -3.55 11.7 -3.3 11.7 -3.0 11.6 -2.75 11.45 -2.15 11.25 -1.6 11.1 -1.05 10.85 -0.6 10.6 -0.1 10.3 0.3 10.0 0.7 9.65 1.1 9.35 1.45 8.95 1.75 8.6 2.05 8.15 2.35 7.75 2.6 7.3 2.8 6.85 3.0 6.35 3.2 6.0 3.3 5.65 3.4 5.3 3.45 4.95 3.5 4.65 3.5 4.25 3.5 3.95 3.5 3.6 3.5 3.25 3.45 2.9 3.4 2.55 3.35 2.2 3.3 1.9 3.2 1.5 3.15 1.25 3.05 0.85 2.95 0.25 2.8 -0.15 2.7 -0.7 2.6 -1.15 2.5 -1.65 2.35 -2.1 2.2 -2.65 2.05 -3.1 1.9 -3.6 1.75 -4.05 1.6 -4.55 1.4 -5.0 1.2 -5.5 1.0 -5.95 0.75 -6.45 0.55 -6.85 0.25 -7.05 0.15 -7.2 0.05 -7.4 -0.1 -7.6 -0.2 -7.75 -0.35 -7.9 -0.5 -8.05 -0.65 -8.2 -0.8 -8.35 -0.95 -8.5 -1.1 -8.65 -1.3 -8.8 -1.45 -8.9 -1.65 -9.0 -1.85 -9.15 -2.05 -9.25 -2.25 -9.4 -2.55 -9.7 -3.25 -10.0 -3.9 -10.15 -4.25 -11.95 -8.55 -12.55 -9.8 -12.6 -9.9 -12.65 -9.95 -12.7 -10.05 -12.75 -10.1 -12.8 -10.15 -12.8 -10.2 -12.85 -10.2 -12.9 -10.2 -12.95 -10.2 -13.0 -10.2 -13.05 -10.2 -13.1 -10.15 -13.15 -10.1 -13.2 -10.05 -13.25 -10.0 -13.3 -9.9 -13.4 -9.8 -13.45 -9.7 -13.55 -9.55 -13.6 -9.45 -13.7 -9.35 -13.75 -9.2 -13.85 -9.1 -13.9 -9.0 -13.95 -8.85 -14.0 -8.75 -14.1 -8.6 -14.15 -8.5 -14.2 -8.35 -14.25 -8.2 -14.3 -8.1 -14.35 -7.95 -14.4 -7.8 -14.45 -7.7 -14.5 -7.55 -14.5 -7.45 -14.55 -7.3 -14.55 -7.2 -14.55 -7.05 -14.55 -6.95 -14.55 -6.8 -14.55 -6.7 -14.55 -6.55 -14.5 -6.45 -14.45 -6.3 -14.4 -6.2 -14.35 -6.05 -14.3 -5.9 -14.25 -5.75 -14.15 -5.65 -14.1 -5.5 -14.05 -5.35 -13.95 -5.2 -13.9 -5.05 -13.85 -4.9 -13.8 -4.75 -13.75 -4.65 -13.7 -4.45 -13.65 -4.3 -13.6 -4.15 -13.55 -4.0 -13.55 -3.85 -13.5 -3.7 -13.45 -3.55 -13.35 -3.25 -13.35 -3.0 -13.3 -2.7 -13.25 -2.45 -13.25 -2.15 -13.25 -1.9 -13.3 -1.65 -13.3 -1.4 -13.35 -1.15 -13.45 -0.9 -13.55 -0.65 -13.65 -0.4 -13.75 -0.15 -13.9 0.05 -14.05 0.25 -14.25 0.5 -15.05 1.4 -15.45 1.75 -15.5 1.8 -15.55 1.85 -15.55 1.85 -15.6 1.9 -15.65 1.95 -15.65 2.0 -15.7 2.05 -15.7 2.05 -15.75 2.1 -15.75 2.15 -15.75 2.2 -15.75 2.3 -15.75 2.35 -15.75 2.4 -15.75 2.45 -15.75 2.55 -15.65 3.6 -15.5 4.65 -15.4 5.7 -15.3 6.7 -15.2 7.75 -15.15 8.8 -15.05 9.85 -15.0 10.9 -14.95 11.95 -14.9 12.95 -14.85 14.05 -14.85 15.05 -14.8 16.15 -14.8 17.15 -14.8 18.25 -14.85 19.25 -14.85 19.35 -14.85 19.45 -14.85 19.55 -14.85 19.6 -14.8 19.65 -14.8 19.7 -14.8 19.75 -14.75 19.8 -14.7 19.85 -14.65 19.85 -14.65 19.85 -14.55 19.85 -14.5 19.85 -14.45 19.85 -14.4 19.85 -14.3 19.8 -13.4 19.5 -12.05 19.2 -9.85 18.7 -9.75 18.65 -8.7 18.4 -7.6 18.15 -6.55 17.95 -5.5 17.75 -4.45 17.55 -3.35 17.4 -2.3 17.2 -1.2 17.1 -0.15 16.95 0.95 16.85 2.0 16.75 3.1 16.65 4.15 16.6 5.25 16.55 6.3 16.5 7.4 16.45 7.05 16.45 11.3 16.3 13.65 16.2 15.25 16.25 15.35 16.25 15.4 16.25 15.45 16.25 15.5 16.2 15.55 16.2 15.6 16.2 15.65 16.15 15.7 16.1 15.7 16.1 15.75 16.05 15.75 16.0 15.75 15.9 15.8 15.85 15.8 15.75 15.75 15.7 15.75 15.55 15.6 14.3 15.55 13.45 15.55 13.35 15.55 13.2 15.55 13.1 15.5 12.95 15.5 12.75 15.5 12.65 15.5 12.55 15.5 12.4 15.45 12.3 15.5 12.15 15.5 12.0 15.5 11.9 15.55 11.8 15.6 11.65 15.6 11.55 15.7 11.45 16.1 10.75 16.4 10.0 16.7 9.3 16.9 8.6 17.15 7.85 17.25 7.15 17.35 6.4 17.4 5.7 17.45 4.95 17.4 4.2 17.35 3.45 17.2 2.7 17.05 1.95 16.85 1.2 16.65 0.45 16.35 -0.3 16.2 -0.65 16.05 -1.05 15.85 -1.4 15.65 -1.75 15.5 -2.1 15.3 -2.45 15.1 -2.75 14.9 -3.15 14.75 -3.4 14.5 -3.8 14.15 -4.35 14.05 -4.5 13.85 -4.85 13.65 -5.15 13.45 -5.5 13.25 -5.85 13.1 -6.1 12.95 -6.35 12.8 -6.6 12.65 -6.85 12.5 -7.1 12.35 -7.35 12.2 -7.55 12.05 -7.8 11.85 -8.05 11.7 -8.25 11.5 -8.5 11.35 -8.7 11.15 -8.95 10.95 -9.15 10.8 -9.35 10.6 -9.6 L10.6 -9.6 M-8.8 -4.9 Q-8.7 -4.5 -8.55 -4.2 -8.45 -3.85 -8.3 -3.55 -8.15 -3.25 -8.0 -3.0 -7.85 -2.7 -7.65 -2.45 -7.45 -2.25 -7.25 -2.0 -7.05 -1.8 -6.8 -1.6 -6.55 -1.4 -6.3 -1.25 -6.0 -1.05 -5.7 -0.9 -5.3 -0.7 -4.85 -0.5 -4.45 -0.3 -4.0 -0.1 -3.6 0.05 -3.15 0.2 -2.75 0.35 -2.25 0.5 -1.85 0.6 -1.4 0.75 -1.0 0.85 -0.5 0.95 -0.15 1.05 0.35 1.2 2.45 1.7 1.25 1.4 1.6 1.5 1.85 1.55 2.15 1.6 2.45 1.65 2.75 1.7 3.05 1.75 3.35 1.8 3.65 1.8 3.95 1.85 4.2 1.85 4.55 1.85 4.8 1.8 5.15 1.8 5.4 1.75 5.75 1.7 6.05 1.6 6.65 1.45 7.2 1.15 7.7 0.85 8.15 0.5 8.6 0.1 9.0 -0.35 9.35 -0.8 9.6 -1.35 9.85 -1.9 10.05 -2.45 10.2 -3.05 10.25 -3.7 10.3 -4.35 10.25 -5.0 10.2 -5.7 10.05 -6.4 10.0 -6.5 10.0 -6.6 9.95 -6.7 9.9 -6.75 9.9 -6.8 9.85 -6.85 9.8 -6.9 9.75 -6.95 9.7 -6.95 9.65 -6.95 9.6 -6.95 9.55 -6.95 9.45 -6.9 9.4 -6.85 9.3 -6.85 9.2 -6.75 9.0 -6.6 8.75 -6.45 8.55 -6.25 8.35 -6.1 8.15 -5.9 7.95 -5.7 7.8 -5.5 7.6 -5.3 7.45 -5.05 7.3 -4.85 7.15 -4.6 7.0 -4.35 6.85 -4.1 6.7 -3.85 6.6 -3.6 6.45 -3.3 5.95 -2.05 5.5 -1.2 5.3 -0.8 5.1 -0.5 4.9 -0.2 4.65 0.05 4.45 0.3 4.2 0.45 3.95 0.65 3.7 0.75 3.45 0.85 3.15 0.85 2.9 0.9 2.6 0.85 2.3 0.8 1.95 0.7 1.65 0.6 1.25 0.4 0.9 0.2 0.4 -0.1 -0.05 -0.35 -2.2 -1.8 -3.8 -2.85 -4.85 -3.4 -5.1 -3.55 -5.35 -3.65 -5.55 -3.8 -5.8 -3.9 -6.05 -4.0 -6.3 -4.1 -6.55 -4.25 -6.75 -4.3 -7.0 -4.4 -7.25 -4.5 -7.5 -4.6 -7.75 -4.65 -8.0 -4.75 -8.3 -4.8 -8.55 -4.85 -8.8 -4.9 L-8.8 -4.9" fill="#0a0a0a" fill-rule="evenodd" stroke="none"/>
    <path d="M3.55 -1.05 Q3.45 -1.0 3.4 -0.95 3.3 -0.9 3.25 -0.85 3.15 -0.8 3.05 -0.8 3.0 -0.8 2.9 -0.8 2.8 -0.8 2.7 -0.8 2.65 -0.8 2.55 -0.85 2.45 -0.85 2.35 -0.9 2.3 -0.9 2.2 -0.95 2.2 -1.15 2.15 -1.35 2.1 -1.5 2.0 -1.7 1.95 -1.9 1.85 -2.1 1.8 -2.2 1.7 -2.45 1.6 -2.7 1.55 -2.85 1.45 -3.05 1.35 -3.25 1.3 -3.45 1.25 -3.65 1.15 -3.9 1.1 -4.15 1.35 -4.0 1.55 -3.85 1.75 -3.65 1.9 -3.5 2.1 -3.3 2.25 -3.15 2.45 -2.95 2.6 -2.75 2.7 -2.55 2.85 -2.35 3.0 -2.15 3.1 -1.95 3.25 -1.75 3.35 -1.5 3.45 -1.3 3.55 -1.05 L3.55 -1.05" fill="#0a0a0a" fill-opacity="0.4392157" fill-rule="evenodd" stroke="none"/>
    <path d="M12.15 13.7 Q11.65 13.65 11.1 13.65 10.55 13.6 10.05 13.65 9.55 13.65 9.0 13.7 8.5 13.75 7.95 13.8 7.45 13.85 6.9 13.95 6.4 14.05 5.85 14.15 5.45 14.2 4.8 14.35 3.55 14.6 3.8 14.55 6.4 14.05 -1.0 15.5 -3.85 16.05 -5.85 16.3 -7.25 16.5 -7.5 16.5 -7.6 16.5 -7.65 16.5 -7.75 16.5 -7.8 16.45 -7.9 16.45 -7.95 16.4 -8.05 16.4 -8.1 16.35 -8.15 16.3 -8.2 16.25 -8.25 16.2 -8.3 16.1 -8.3 16.05 -8.35 15.95 -8.35 15.85 -8.35 15.75 -8.35 15.65 -8.35 15.55 -8.3 15.45 -8.3 15.4 -8.25 15.3 -8.2 15.25 -8.2 15.15 -8.15 15.1 -8.05 15.05 -8.0 15.0 -7.95 14.95 -7.9 14.95 -7.8 14.9 -7.7 14.9 -7.65 14.85 -7.55 14.85 -5.7 14.75 -2.4 14.15 5.2 12.65 7.45 12.25 7.8 12.2 8.05 12.15 8.35 12.1 8.65 12.05 8.95 12.05 9.25 12.0 9.55 11.95 9.8 11.95 10.15 11.95 10.4 11.95 10.75 11.95 11.0 11.95 11.35 12.0 11.6 12.05 11.95 12.1 12.2 12.15 12.3 12.15 12.35 12.2 12.45 12.2 12.5 12.25 12.55 12.3 12.6 12.3 12.7 12.35 12.75 12.4 12.8 12.45 12.8 12.5 12.85 12.6 12.85 12.65 12.9 12.75 12.9 12.85 12.9 12.9 12.9 13.05 12.9 13.15 12.85 13.2 12.85 13.3 12.8 13.35 12.75 13.4 12.75 13.45 12.7 13.5 12.65 13.55 12.6 13.6 12.55 13.65 12.5 13.65 12.4 13.65 12.35 13.7 12.3 13.7 12.2 13.7 12.15 13.7 L12.15 13.7" fill="#0a0a0a" fill-opacity="0.4392157" fill-rule="evenodd" stroke="none"/>
  </g>
</svg>
