<?xml version="1.0" encoding="UTF-8" standalone="no"?>
<svg xmlns:xlink="http://www.w3.org/1999/xlink" height="200.0px" width="200.0px" xmlns="http://www.w3.org/2000/svg">
  <g transform="matrix(1.0, 0.0, 0.0, 1.0, 100.0, 100.0)">
    <path d="M14.35 -14.45 Q14.2 -14.4 14.05 -14.35 13.9 -14.3 13.7 -14.25 13.55 -14.2 13.4 -14.2 13.25 -14.2 13.05 -14.2 12.9 -14.2 12.75 -14.2 12.6 -14.2 12.45 -14.25 12.3 -14.25 12.1 -14.25 12.0 -14.3 11.8 -14.3 11.5 -14.4 11.45 -14.45 11.4 -14.5 11.3 -14.55 11.25 -14.6 11.15 -14.6 11.1 -14.65 11.0 -14.65 10.95 -14.65 10.85 -14.65 10.8 -14.65 10.7 -14.65 10.65 -14.65 10.55 -14.65 10.35 -14.6 10.4 -14.6 10.35 -14.6 10.25 -14.6 9.65 -14.55 7.5 -14.4 7.4 -14.4 7.25 -14.4 7.05 -14.4 7.05 -14.4 7.05 -13.9 7.05 -12.9 7.05 -12.4 7.05 -9.55 7.05 -7.5 7.05 -6.2 7.05 -5.85 7.05 -5.5 7.0 -5.15 6.95 -4.8 6.9 -4.45 6.8 -4.1 6.7 -3.8 6.6 -3.45 6.45 -3.15 6.3 -2.85 6.15 -2.55 6.0 -2.25 5.85 -1.95 5.65 -1.7 5.45 -1.4 5.2 -1.1 5.0 -0.85 3.75 0.55 3.7 0.6 3.65 0.65 3.6 0.65 3.55 0.7 3.5 0.7 3.45 0.75 3.4 0.75 3.35 0.75 3.3 0.75 3.25 0.75 3.2 0.75 3.15 0.7 3.1 0.7 3.05 0.65 3.0 0.65 2.95 0.6 2.9 0.55 2.9 0.5 2.85 0.45 2.85 0.4 2.8 0.35 2.8 0.3 2.8 0.25 2.8 0.2 2.8 0.1 2.8 0.05 2.8 0.0 2.85 -0.05 2.85 -0.1 2.9 -0.15 2.9 -0.2 2.95 -0.25 4.1 -1.45 4.25 -1.65 4.45 -1.9 4.65 -2.15 4.85 -2.45 5.0 -2.7 5.2 -2.95 5.3 -3.25 5.45 -3.55 5.6 -3.85 5.7 -4.15 5.8 -4.45 5.85 -4.75 5.9 -5.05 6.0 -5.4 6.0 -5.7 6.05 -6.05 6.0 -6.4 6.0 -7.5 6.0 -10.3 5.95 -12.75 5.95 -14.2 5.95 -14.3 5.95 -14.45 5.9 -14.55 5.9 -14.65 5.9 -14.75 5.85 -14.9 5.85 -15.0 5.8 -15.1 5.65 -15.7 5.75 -15.35 5.7 -15.5 5.7 -15.6 5.65 -15.7 5.65 -15.8 5.65 -15.95 5.6 -16.05 5.55 -16.7 5.4 -18.1 5.3 -19.45 5.2 -20.15 5.2 -20.3 5.2 -20.4 5.15 -20.5 5.15 -20.55 5.15 -20.65 5.1 -20.7 5.1 -20.75 5.05 -20.8 5.0 -20.85 4.95 -20.85 4.9 -20.9 4.85 -20.9 4.75 -20.9 4.7 -20.9 4.6 -20.9 4.45 -20.95 1.5 -21.0 -0.15 -21.05 -0.2 -21.05 -0.3 -21.05 -0.35 -21.05 -0.4 -21.0 -0.5 -21.0 -0.55 -21.0 -0.6 -20.95 -0.65 -20.95 -0.75 -20.9 -0.8 -20.9 -0.85 -20.85 -0.9 -20.8 -0.95 -20.75 -1.0 -20.7 -1.05 -20.65 -1.1 -20.6 -1.2 -20.5 -1.25 -20.4 -1.35 -20.3 -1.4 -20.25 -1.5 -20.2 -1.55 -20.1 -1.65 -20.05 -1.75 -20.0 -1.8 -19.95 -1.9 -19.9 -2.0 -19.85 -2.15 -19.85 -2.25 -19.8 -2.4 -19.75 -2.55 -19.7 -2.7 -19.65 -2.8 -18.35 -3.05 -16.0 -2.9 -16.0 -2.25 -15.95 -1.8 -15.9 -1.5 -15.9 -0.75 -15.9 3.5 -15.9 3.55 -15.9 3.6 -15.9 3.65 -15.9 3.7 -15.9 2.95 -15.9 3.8 -15.9 3.85 -15.9 3.9 -15.85 3.95 -15.85 4.05 -15.85 4.1 -15.8 4.2 -15.8 4.25 -15.75 4.3 -15.75 4.35 -15.7 4.4 -15.65 4.45 -15.6 4.5 -15.55 4.5 -15.5 4.55 -15.45 4.6 -15.35 4.6 -15.3 4.6 -15.25 4.6 -15.15 4.6 -15.1 4.6 -15.0 4.6 -14.95 4.55 -14.9 4.5 -14.8 4.5 -14.75 4.45 -14.7 4.4 -14.65 4.35 -14.6 4.3 -14.55 4.25 -14.5 4.15 -14.5 4.1 -14.45 4.0 -14.45 3.95 -14.45 3.85 -14.4 1.7 -14.45 1.55 -14.45 1.45 -14.45 1.4 -14.45 1.35 -14.45 1.3 -14.4 1.25 -14.4 1.2 -14.35 1.2 -14.35 1.15 -14.3 1.1 -14.25 1.1 -14.2 1.1 -14.15 1.05 -14.1 1.05 -14.05 1.05 -14.0 1.05 -13.95 1.05 -13.85 1.0 -11.65 1.05 -11.1 1.05 -11.0 1.4 -5.7 1.4 -5.65 1.4 -5.6 1.4 -5.65 1.4 -5.55 1.4 -5.5 1.45 -5.45 1.45 -5.4 1.45 -5.35 1.4 -5.3 1.4 -5.3 1.4 -5.25 1.4 -5.2 1.35 -5.2 1.3 -5.15 1.3 -5.15 1.2 -5.15 1.2 -5.15 1.15 -5.15 1.1 -5.15 1.1 -5.15 1.05 -5.2 1.05 -5.2 1.0 -5.2 0.95 -5.25 0.95 -5.25 0.9 -5.3 0.85 -5.35 0.85 -5.35 0.8 -5.4 0.8 -5.4 0.75 -5.45 0.75 -5.5 0.65 -5.6 0.6 -5.75 0.55 -5.85 0.45 -6.0 0.4 -6.15 0.4 -6.3 0.35 -6.4 0.3 -6.55 0.3 -6.7 0.25 -6.85 0.25 -7.0 0.25 -7.15 0.2 -7.25 0.2 -7.4 0.15 -7.75 0.15 -7.7 0.1 -8.65 0.0 -11.7 0.0 -12.0 0.0 -14.4 -0.8 -14.4 -2.3 -14.5 -2.5 -14.5 -2.55 -14.5 -2.65 -14.5 -2.7 -14.55 -2.8 -14.55 -2.85 -14.55 -2.9 -14.55 -3.0 -14.55 -3.05 -14.55 -3.1 -14.5 -3.2 -14.5 -3.25 -14.45 -3.3 -14.4 -3.35 -14.35 -3.4 -14.3 -3.45 -14.2 -3.55 -14.15 -3.6 -14.05 -3.65 -14.0 -3.65 -13.95 -3.7 -13.9 -3.75 -13.85 -3.8 -13.85 -3.85 -13.8 -3.95 -13.75 -4.0 -13.75 -4.05 -13.7 -4.15 -13.7 -4.2 -13.65 -4.25 -13.65 -4.35 -13.6 -4.4 -13.6 -4.45 -13.6 -4.5 -13.6 -4.7 -13.6 -4.9 -13.6 -5.1 -13.6 -5.25 -13.6 -5.45 -13.6 -5.65 -13.65 -5.85 -13.65 -6.0 -13.7 -6.2 -13.75 -6.4 -13.8 -6.55 -13.85 -6.75 -13.9 -6.95 -13.95 -7.1 -14.05 -7.3 -14.1 -7.45 -14.2 -7.55 -14.25 -8.45 -15.05 -9.05 -14.15 -9.7 -13.45 -10.4 -12.75 -11.1 -12.15 -11.8 -11.6 -12.6 -11.2 -13.35 -10.8 -14.15 -10.55 -14.95 -10.25 -15.8 -10.15 -16.65 -10.0 -17.55 -10.0 -18.45 -10.0 -19.4 -10.1 -20.3 -10.2 -21.3 -10.4 -21.3 -10.35 -21.35 -9.95 -21.4 -9.65 -21.45 -9.45 -21.5 -8.45 -21.65 -6.7 -21.8 -4.75 -21.85 -3.9 -21.85 -3.8 -21.9 -3.7 -21.9 -3.6 -21.95 -3.5 -21.95 -3.45 -22.0 -3.35 -22.05 -3.25 -22.1 -3.2 -22.15 -3.15 -22.25 -3.1 -22.3 -3.05 -22.4 -3.0 -22.45 -2.95 -22.55 -2.95 -22.65 -2.95 -22.7 -2.95 -22.8 -2.95 -22.9 -2.95 -22.95 -3.0 -23.05 -3.0 -23.1 -3.05 -23.2 -3.1 -23.25 -3.15 -23.35 -3.2 -23.4 -3.25 -23.45 -3.35 -23.5 -3.4 -23.5 -3.5 -23.55 -3.6 -23.55 -3.7 -23.6 -3.75 -23.6 -3.9 -23.6 -4.05 -23.6 -4.2 -23.6 -4.3 -23.6 -4.45 -23.55 -4.6 -23.55 -4.75 -23.55 -4.9 -23.55 -5.05 -23.55 -5.15 -23.55 -5.3 -23.5 -5.45 -23.5 -5.6 -23.5 -5.75 -23.5 -5.9 -23.5 -6.05 -23.45 -6.2 -23.45 -6.45 -23.4 -6.7 -23.4 -7.0 -23.35 -7.25 -23.35 -7.5 -23.3 -7.75 -23.3 -8.0 -23.25 -8.3 -23.25 -8.55 -23.2 -8.8 -23.2 -9.05 -23.15 -9.3 -23.15 -9.6 -23.1 -9.85 -23.1 -10.1 -23.05 -10.35 -23.0 -10.85 -22.75 -11.8 -22.75 -11.85 -22.7 -11.85 -22.7 -11.9 -22.7 -11.95 -22.65 -12.0 -22.65 -12.0 -22.6 -12.05 -22.6 -12.1 -22.55 -12.1 -22.55 -12.15 -22.5 -12.15 -22.5 -12.15 -22.45 -12.2 -22.45 -12.2 -22.4 -12.2 -22.4 -12.2 -22.35 -12.25 -22.25 -12.25 -22.2 -12.3 -22.15 -12.35 -22.1 -12.4 -22.1 -12.45 -22.05 -12.5 -22.0 -12.6 -21.95 -12.65 -21.95 -12.7 -21.9 -12.75 -21.9 -12.85 -21.85 -12.9 -21.85 -13.0 -21.85 -13.0 -21.8 -13.1 -20.8 -16.1 -20.6 -16.55 -20.05 -17.6 -19.45 -20.5 -19.05 -22.35 -18.95 -22.65 -18.9 -22.8 -18.85 -22.95 -18.8 -23.05 -18.75 -23.15 -18.7 -23.25 -18.6 -23.35 -18.55 -23.45 -18.45 -23.5 -18.35 -23.55 -18.25 -23.6 -18.15 -23.65 -18.0 -23.65 -17.9 -23.65 -17.75 -23.65 -17.65 -23.65 -17.5 -23.6 -16.0 -23.25 -15.65 -23.1 -15.65 -23.1 -14.6 -22.4 -14.55 -22.35 -14.55 -22.35 -14.5 -22.3 -14.45 -22.3 -14.45 -22.25 -14.4 -22.25 -14.35 -22.2 -14.35 -22.2 -14.3 -22.15 -14.25 -22.15 -13.85 -22.05 -13.5 -21.95 -13.1 -21.85 -12.7 -21.8 -12.35 -21.7 -11.95 -21.65 -11.55 -21.55 -11.15 -21.5 -10.8 -21.45 -10.4 -21.4 -10.0 -21.35 -9.6 -21.3 -9.2 -21.25 -8.8 -21.2 -8.45 -21.15 -8.05 -21.1 -8.0 -21.1 -7.95 -21.1 -7.95 -21.1 -7.9 -21.1 -7.85 -21.1 -7.85 -21.15 -7.8 -21.15 -7.8 -21.15 -7.75 -21.15 -7.7 -21.2 -7.7 -21.2 -7.7 -21.25 -7.65 -21.25 -7.65 -21.3 -7.6 -21.35 -7.6 -21.35 -7.55 -21.4 -7.5 -21.5 -7.5 -21.55 -7.45 -21.6 -7.4 -21.65 -7.35 -21.7 -7.3 -21.75 -7.2 -21.8 -7.15 -21.85 -7.1 -21.9 -7.05 -21.9 -6.95 -21.95 -6.9 -21.95 -6.85 -21.95 -6.75 -21.95 -6.7 -21.95 -6.6 -21.95 -4.4 -21.9 -4.3 -21.9 -4.2 -21.9 -4.1 -21.9 -4.05 -21.85 -3.95 -21.85 -3.85 -21.85 -3.8 -21.8 -3.7 -21.75 -3.65 -21.75 -3.55 -21.7 -3.5 -21.65 -3.4 -21.6 -3.35 -21.55 -3.3 -21.45 -3.2 -21.4 -3.15 -21.3 -3.15 -21.3 -3.1 -21.25 -3.1 -21.25 -3.05 -21.25 -3.05 -21.25 -3.0 -21.2 -3.0 -21.2 -2.95 -21.2 -2.95 -21.2 -2.9 -21.2 -2.85 -21.2 -2.85 -21.2 -2.8 -21.2 -2.75 -21.2 -2.75 -21.2 -2.7 -21.2 -2.65 -21.2 -2.6 -21.2 -2.6 -21.25 -2.55 -21.25 -2.5 -21.3 -2.45 -21.3 -2.45 -21.35 -2.4 -21.4 -2.3 -21.6 -2.15 -21.75 -2.0 -21.9 -1.85 -22.0 -1.7 -22.1 -1.55 -22.2 -1.4 -22.25 -1.2 -22.35 -1.05 -22.4 -0.85 -22.4 -0.7 -22.45 -0.5 -22.5 -0.3 -22.5 -0.1 -22.5 0.05 -22.5 0.3 -22.5 4.7 -22.35 4.95 -22.3 5.0 -22.3 6.1 -21.9 6.45 -21.85 6.45 -21.85 6.7 -21.9 7.4 -22.0 7.95 -22.1 8.3 -22.15 8.35 -22.15 8.4 -22.15 8.45 -22.15 8.55 -22.15 8.6 -22.2 8.65 -22.2 8.7 -22.2 8.75 -22.2 8.8 -22.2 8.9 -22.2 8.95 -22.15 9.0 -22.15 9.05 -22.15 9.1 -22.15 9.15 -22.15 9.25 -22.2 9.35 -22.2 9.4 -22.2 9.5 -22.2 9.55 -22.2 9.65 -22.25 9.75 -22.25 9.8 -22.25 9.9 -22.3 9.95 -22.3 10.05 -22.35 10.1 -22.4 10.2 -22.4 10.3 -22.45 10.35 -22.5 10.45 -22.55 10.5 -22.6 10.75 -22.75 12.1 -23.2 12.2 -23.2 12.25 -23.25 12.35 -23.25 12.45 -23.3 12.5 -23.3 12.6 -23.35 12.75 -23.35 12.8 -23.4 12.9 -23.4 12.95 -23.4 13.05 -23.45 13.15 -23.45 13.2 -23.5 13.3 -23.55 13.4 -23.55 13.45 -23.6 13.85 -23.75 14.75 -24.3 14.95 -24.45 15.2 -24.55 15.4 -24.6 15.6 -24.65 15.8 -24.7 16.0 -24.65 16.15 -24.65 16.35 -24.55 16.5 -24.5 16.65 -24.35 16.8 -24.25 16.9 -24.05 17.0 -23.9 17.1 -23.65 17.2 -23.45 17.25 -23.15 17.4 -22.45 17.65 -21.05 17.95 -19.65 18.05 -18.95 18.2 -18.25 18.5 -17.1 18.85 -15.65 18.95 -15.25 19.25 -13.95 19.4 -13.4 19.45 -13.15 19.6 -12.75 19.8 -12.3 19.85 -12.1 20.2 -10.6 20.2 -10.4 20.2 -10.15 20.2 -9.9 20.25 -9.6 20.25 -9.35 20.25 -9.1 20.3 -8.85 20.3 -8.6 20.35 -8.35 20.35 -8.1 20.4 -7.8 20.45 -7.55 20.5 -7.3 20.5 -7.05 20.55 -6.8 20.6 -6.55 20.65 -6.3 20.75 -5.6 20.95 -3.35 20.95 -3.25 20.95 -3.15 20.95 -3.05 20.9 -3.0 20.9 -2.9 20.85 -2.85 20.8 -2.75 20.75 -2.7 20.7 -2.6 20.6 -2.55 20.55 -2.5 20.45 -2.45 20.4 -2.45 20.3 -2.4 20.25 -2.4 20.15 -2.35 20.05 -2.35 19.95 -2.35 19.9 -2.35 19.8 -2.4 19.7 -2.45 19.65 -2.5 19.55 -2.5 19.5 -2.6 19.45 -2.65 19.4 -2.7 19.35 -2.8 19.3 -2.9 19.25 -2.95 19.25 -3.05 19.2 -3.15 19.2 -3.25 19.2 -3.25 19.1 -4.6 19.05 -5.4 18.95 -5.9 18.9 -6.2 18.85 -6.4 18.8 -6.7 18.75 -6.95 18.7 -7.2 18.7 -7.45 18.65 -7.75 18.6 -8.0 18.55 -8.25 18.55 -8.5 18.5 -8.75 18.5 -9.0 18.5 -9.3 18.45 -9.55 18.45 -9.8 18.45 -10.1 18.45 -10.15 18.45 -10.15 18.45 -10.2 18.45 -10.25 18.4 -10.3 18.4 -10.35 18.4 -10.35 18.35 -10.4 18.35 -10.45 18.3 -10.5 18.3 -10.55 18.25 -10.55 18.25 -10.6 18.2 -10.6 18.15 -10.65 18.15 -10.65 17.85 -10.8 17.6 -11.0 17.3 -11.15 17.05 -11.35 16.75 -11.55 16.5 -11.75 16.25 -11.95 16.05 -12.2 15.8 -12.4 15.6 -12.65 15.35 -12.9 15.15 -13.15 14.95 -13.45 14.8 -13.75 14.6 -14.0 14.45 -14.35 14.45 -14.35 14.4 -14.4 14.4 -14.45 14.35 -14.45 L14.35 -14.45 M-20.5 -11.5 Q-19.35 -11.3 -16.4 -11.35 -16.2 -11.35 -16.0 -11.4 -15.8 -11.4 -15.6 -11.4 -15.4 -11.45 -15.2 -11.5 -15.0 -11.55 -14.85 -11.6 -14.65 -11.65 -14.45 -11.7 -14.25 -11.75 -14.05 -11.8 -13.85 -11.9 -13.7 -12.0 -13.5 -12.05 -13.3 -12.15 -13.05 -12.3 -12.9 -12.4 -12.65 -12.5 -12.5 -12.6 -12.3 -12.75 -12.1 -12.85 -11.9 -13.0 -11.7 -13.15 -11.5 -13.3 -11.35 -13.45 -11.15 -13.6 -11.0 -13.75 -10.85 -13.95 -10.7 -14.1 -10.55 -14.3 -10.4 -14.5 -10.3 -14.65 -10.15 -14.95 -9.95 -15.3 -9.9 -15.4 -11.85 -15.75 -15.65 -16.45 -15.8 -16.25 -16.0 -16.15 -16.15 -16.05 -16.3 -15.95 -16.5 -15.9 -16.65 -15.9 -16.85 -15.85 -17.05 -15.85 -17.2 -15.9 -17.4 -15.9 -17.6 -15.95 -17.8 -16.0 -17.9 -16.05 -18.2 -16.15 -18.45 -16.2 -18.6 -16.25 -19.25 -14.7 -20.5 -11.5 L-20.5 -11.5 M-8.0 -19.65 Q-8.15 -19.7 -8.55 -19.7 -8.85 -19.75 -9.05 -19.75 -13.0 -20.45 -14.25 -20.65 -14.3 -20.65 -14.35 -20.65 -14.35 -20.65 -14.4 -20.6 -14.45 -20.6 -14.5 -20.55 -14.55 -20.55 -14.55 -20.5 -14.6 -20.5 -14.6 -20.45 -14.7 -20.1 -14.9 -19.5 -15.1 -18.8 -15.2 -18.5 -15.2 -18.45 -15.25 -18.35 -15.25 -18.3 -15.25 -18.25 -15.25 -18.2 -15.25 -18.15 -15.25 -18.1 -15.2 -18.05 -15.2 -18.05 -15.15 -18.0 -15.15 -17.95 -15.1 -17.95 -15.05 -17.9 -15.0 -17.9 -14.95 -17.9 -14.85 -17.85 -14.0 -17.7 -12.7 -17.45 -10.75 -17.05 -10.55 -17.0 -10.2 -16.95 -9.5 -16.85 -8.8 -16.7 -8.45 -16.65 -8.3 -17.65 -8.0 -19.65 L-8.0 -19.65 M10.05 -20.7 Q9.65 -20.7 8.8 -20.7 8.0 -20.7 7.6 -20.65 7.55 -20.65 7.5 -20.65 7.5 -20.65 7.45 -20.65 7.4 -20.65 7.35 -20.6 7.35 -20.6 7.3 -20.6 7.25 -20.6 7.2 -20.55 7.2 -20.55 7.15 -20.5 7.1 -20.5 7.1 -20.5 7.05 -20.45 7.0 -20.45 6.95 -20.45 6.95 -20.4 6.9 -20.35 6.9 -20.3 6.9 -20.25 6.85 -20.2 6.85 -20.2 6.85 -20.15 6.85 -20.1 6.85 -20.05 6.9 -19.35 7.15 -16.15 7.15 -16.1 7.15 -16.05 7.2 -16.05 7.2 -16.0 7.2 -16.0 7.2 -15.95 7.25 -15.95 7.25 -15.9 7.3 -15.9 7.3 -15.9 7.35 -15.85 7.35 -15.85 7.4 -15.85 7.4 -15.85 7.45 -15.85 7.5 -15.85 9.6 -16.0 10.15 -16.05 10.2 -16.05 10.25 -16.05 10.3 -16.05 10.35 -16.1 10.4 -16.1 10.4 -16.1 10.45 -16.15 10.45 -16.2 10.5 -16.2 10.5 -16.25 10.5 -16.3 10.5 -16.35 10.5 -16.4 10.5 -16.45 10.5 -16.5 10.5 -16.55 10.4 -17.35 10.25 -18.65 10.1 -20.15 10.05 -20.7 L10.05 -20.7 M-6.3 -20.4 Q-6.6 -18.25 -6.75 -16.7 -6.75 -16.65 -6.75 -16.55 -6.8 -16.45 -6.8 -16.4 -6.8 -16.35 -6.8 -16.25 -6.8 -16.2 -6.8 -16.1 -6.85 -16.05 -6.8 -16.0 -6.8 -15.9 -6.8 -15.85 -6.8 -15.8 -6.8 -15.75 -6.75 -15.7 -6.75 -15.65 -6.65 -15.55 -5.75 -15.3 -5.6 -15.25 -5.5 -15.25 -5.35 -15.2 -5.25 -15.2 -5.15 -15.2 -5.1 -15.25 -5.0 -15.25 -4.95 -15.3 -4.9 -15.35 -4.9 -15.4 -4.85 -15.5 -4.8 -15.6 -4.8 -15.7 -4.75 -15.85 -4.75 -15.95 -4.75 -16.15 -4.7 -16.8 -4.6 -19.6 -4.6 -19.75 -4.6 -19.95 -4.6 -20.35 -4.6 -20.4 -5.15 -20.4 -6.3 -20.4 L-6.3 -20.4 M12.85 -15.7 Q13.2 -15.7 13.25 -15.7 13.35 -15.7 13.45 -15.75 13.55 -15.75 13.6 -15.8 13.7 -15.85 13.75 -15.9 13.8 -15.95 13.85 -16.0 13.9 -16.05 13.95 -16.1 13.95 -16.2 14.0 -16.3 14.0 -16.35 14.0 -16.45 13.95 -16.55 13.95 -16.65 13.9 -16.9 13.85 -17.2 13.75 -17.45 13.7 -17.75 13.65 -18.0 13.6 -18.25 13.55 -18.55 13.45 -18.8 13.4 -19.05 13.35 -19.35 13.3 -19.6 13.2 -19.85 13.15 -20.15 13.1 -20.4 13.0 -20.65 12.95 -20.9 12.9 -21.0 12.9 -21.1 12.85 -21.2 12.85 -21.25 12.8 -21.3 12.75 -21.35 12.75 -21.4 12.7 -21.4 12.65 -21.45 12.55 -21.45 12.5 -21.45 12.45 -21.45 12.35 -21.45 12.25 -21.4 12.15 -21.4 12.05 -21.35 11.95 -21.3 11.9 -21.3 11.8 -21.25 11.75 -21.25 11.7 -21.2 11.7 -21.15 11.65 -21.15 11.6 -21.1 11.6 -21.05 11.6 -21.0 11.55 -20.9 11.55 -20.85 11.55 -20.8 11.6 -20.7 11.6 -20.6 11.6 -20.5 11.9 -18.15 12.05 -16.55 12.1 -16.25 12.05 -16.3 12.1 -16.15 12.1 -16.1 12.1 -16.0 12.15 -15.95 12.15 -15.85 12.2 -15.85 12.2 -15.8 12.25 -15.75 12.3 -15.75 12.4 -15.75 12.45 -15.7 12.6 -15.7 12.65 -15.7 12.85 -15.7 L12.85 -15.7 M16.75 -17.6 Q16.4 -19.45 15.65 -23.15 15.1 -22.8 14.1 -22.25 14.2 -21.95 14.35 -21.6 14.45 -21.3 14.55 -21.0 14.65 -20.7 14.75 -20.35 14.8 -20.05 14.9 -19.7 15.0 -19.4 15.05 -19.05 15.15 -18.75 15.2 -18.45 15.3 -18.1 15.35 -17.75 15.4 -17.45 15.45 -17.1 15.9 -17.25 16.75 -17.6 L16.75 -17.6 M-17.05 -17.45 Q-16.95 -17.9 -16.2 -20.65 -16.15 -20.8 -16.15 -20.95 -16.1 -21.05 -16.1 -21.15 -16.1 -21.25 -16.1 -21.35 -16.1 -21.4 -16.15 -21.5 -16.2 -21.55 -16.25 -21.6 -16.3 -21.65 -16.4 -21.7 -16.45 -21.75 -16.6 -21.8 -16.7 -21.85 -16.8 -21.85 -16.85 -21.85 -16.9 -21.85 -16.9 -21.85 -16.95 -21.9 -17.0 -21.9 -17.05 -21.9 -17.05 -21.9 -17.1 -21.9 -17.15 -21.95 -17.2 -21.95 -17.25 -21.95 -17.3 -21.95 -17.35 -21.95 -17.4 -21.95 -17.4 -21.95 -17.45 -21.9 -17.5 -21.9 -17.5 -21.85 -17.5 -21.85 -17.55 -21.8 -17.55 -21.75 -17.6 -21.7 -17.6 -21.65 -17.6 -21.6 -18.1 -19.35 -18.25 -18.7 -18.3 -18.5 -18.3 -18.35 -18.3 -18.2 -18.3 -18.05 -18.3 -17.95 -18.3 -17.85 -18.25 -17.75 -18.2 -17.7 -18.15 -17.6 -18.1 -17.55 -18.0 -17.5 -17.9 -17.5 -17.8 -17.45 -17.6 -17.45 -17.5 -17.45 -17.3 -17.45 -17.25 -17.45 -17.05 -17.45 L-17.05 -17.45 M17.6 -12.5 Q17.65 -12.5 17.7 -12.55 17.45 -13.65 16.9 -15.95 16.4 -15.75 15.6 -15.45 15.7 -15.25 15.8 -15.0 15.9 -14.8 16.0 -14.6 16.1 -14.4 16.25 -14.2 16.35 -14.05 16.5 -13.85 16.6 -13.65 16.75 -13.5 16.85 -13.3 17.0 -13.15 17.15 -13.0 17.3 -12.8 17.45 -12.65 17.6 -12.5 L17.6 -12.5" fill="#000000" fill-rule="evenodd" stroke="none"/>
    <path d="M2.65 -17.4 Q2.55 -17.4 2.45 -17.45 2.3 -17.45 2.2 -17.5 2.1 -17.5 2.05 -17.55 1.95 -17.6 1.85 -17.65 1.75 -17.65 1.65 -17.7 1.55 -17.75 1.5 -17.85 1.4 -17.9 1.35 -17.95 1.25 -18.0 1.2 -18.1 1.1 -18.2 1.0 -18.3 0.95 -18.45 0.9 -18.55 0.85 -18.7 0.8 -18.8 0.8 -18.95 0.8 -19.1 0.8 -19.2 0.8 -19.35 0.85 -19.5 0.85 -19.6 0.9 -19.75 1.0 -19.85 1.05 -19.95 1.15 -20.1 1.3 -20.25 1.45 -20.35 1.65 -20.5 1.85 -20.55 2.05 -20.65 2.25 -20.65 2.45 -20.7 2.65 -20.7 2.85 -20.7 3.05 -20.65 3.3 -20.6 3.45 -20.55 3.65 -20.45 3.85 -20.3 4.0 -20.2 4.15 -20.05 4.25 -19.95 4.3 -19.8 4.4 -19.65 4.45 -19.5 4.5 -19.35 4.5 -19.2 4.5 -19.05 4.5 -18.9 4.45 -18.75 4.4 -18.65 4.35 -18.5 4.3 -18.35 4.2 -18.2 4.1 -18.1 4.0 -18.0 3.85 -17.9 3.8 -17.85 2.65 -17.4 L2.65 -17.4 M2.65 -18.3 Q2.7 -18.3 2.7 -18.3 2.75 -18.3 2.8 -18.3 2.85 -18.3 2.9 -18.3 2.95 -18.35 2.95 -18.35 3.0 -18.35 3.05 -18.35 3.1 -18.4 3.15 -18.4 3.25 -18.45 3.3 -18.45 3.35 -18.5 3.4 -18.55 3.45 -18.6 3.45 -18.65 3.5 -18.7 3.55 -18.75 3.55 -18.8 3.6 -18.85 3.6 -18.9 3.6 -18.95 3.65 -19.05 3.65 -19.1 3.65 -19.15 3.65 -19.25 3.6 -19.3 3.6 -19.35 3.55 -19.45 3.55 -19.5 3.5 -19.55 3.45 -19.6 3.45 -19.6 3.4 -19.65 3.35 -19.7 3.3 -19.75 3.25 -19.75 3.2 -19.8 3.15 -19.8 3.05 -19.8 3.0 -19.8 2.95 -19.85 2.9 -19.85 2.9 -19.85 2.85 -19.85 2.8 -19.85 2.75 -19.9 2.7 -19.9 2.65 -19.9 2.6 -19.9 2.55 -19.9 2.5 -19.9 2.45 -19.9 2.4 -19.9 2.35 -19.85 2.3 -19.85 2.25 -19.85 2.15 -19.8 2.1 -19.8 2.05 -19.75 1.95 -19.7 1.9 -19.7 1.85 -19.65 1.8 -19.6 1.75 -19.55 1.75 -19.45 1.7 -19.4 1.65 -19.35 1.65 -19.3 1.65 -19.2 1.6 -19.15 1.65 -19.1 1.65 -19.05 1.65 -18.95 1.65 -18.9 1.7 -18.85 1.7 -18.8 1.75 -18.7 1.8 -18.65 1.85 -18.6 1.9 -18.55 1.95 -18.5 2.0 -18.45 2.05 -18.45 2.1 -18.4 2.2 -18.35 2.25 -18.35 2.35 -18.3 2.4 -18.3 2.45 -18.3 2.5 -18.3 2.55 -18.3 2.6 -18.3 2.65 -18.3 L2.65 -18.3" fill="#000000" fill-rule="evenodd" stroke="none"/>
  </g>
</svg>
