<?xml version="1.0" encoding="UTF-8" standalone="no"?>
<svg xmlns:xlink="http://www.w3.org/1999/xlink" height="200.0px" width="200.0px" xmlns="http://www.w3.org/2000/svg">
  <g transform="matrix(1.0, 0.0, 0.0, 1.0, 100.0, 100.0)">
    <path d="M-19.35 -44.8 Q-23.6 -37.25 -27.15 -30.75 -38.7 -9.65 -42.45 -2.05 -44.1 1.35 -47.25 6.3 -53.95 16.8 -60.95 28.3 -61.35 28.95 -62.55 31.0 -62.4 31.3 -62.25 31.55 -62.1 31.85 -61.95 32.15 -61.8 32.45 -61.6 32.75 -61.45 33.0 -61.3 33.3 -61.1 33.6 -60.95 33.9 -60.75 34.2 -60.6 34.5 -60.4 34.8 -60.25 35.1 -60.05 35.4 -59.85 35.7 -59.6 36.15 -59.3 36.55 -59.0 37.0 -58.75 37.4 -58.45 37.8 -58.2 38.2 -57.9 38.6 -57.6 39.0 -57.35 39.4 -57.05 39.8 -56.8 40.15 -56.5 40.55 -56.25 40.9 -55.95 41.25 -55.7 41.6 -55.4 41.95 -54.55 41.35 -52.8 40.1 -51.9 41.2 -50.45 42.95 -48.6 45.2 -48.15 45.75 -47.0 45.15 -44.75 43.95 -42.8 45.85 -38.95 49.6 -37.95 49.0 -36.05 47.85 -33.25 49.0 -27.65 51.3 -26.75 50.6 -24.9 49.15 -24.55 49.4 -24.15 49.65 -23.75 49.9 -23.35 50.15 -22.95 50.45 -22.5 50.7 -22.05 50.95 -21.6 51.2 -21.15 51.45 -20.65 51.7 -20.2 51.95 -19.7 52.2 -19.15 52.45 -18.65 52.7 -18.1 52.95 -17.55 53.15 -17.2 53.3 -16.85 53.45 -16.5 53.55 -16.15 53.7 -15.8 53.85 -15.45 53.95 -15.1 54.05 -14.75 54.15 -14.45 54.3 -14.1 54.4 -13.8 54.5 -13.45 54.6 -13.15 54.65 -12.8 54.75 -12.5 54.85 -12.2 54.9 -11.35 53.95 -9.7 52.1 -9.5 52.2 -9.25 52.25 -9.05 52.3 -8.8 52.4 -8.55 52.45 -8.35 52.55 -8.1 52.6 -7.85 52.7 -7.6 52.75 -7.35 52.8 -7.1 52.9 -6.85 52.95 -6.55 53.0 -6.3 53.05 -6.0 53.15 -5.75 53.2 -5.5 53.25 -5.25 53.3 -5.0 53.35 -4.75 53.4 -4.5 53.4 -4.25 53.45 -4.0 53.5 -3.8 53.5 -3.55 53.55 -3.3 53.55 -3.1 53.6 -2.9 53.6 -2.65 53.65 -2.45 53.65 -2.25 53.7 -2.0 53.7 -1.2 53.05 0.4 51.8 0.6 51.9 0.8 52.05 1.0 52.15 1.2 52.3 1.45 52.4 1.65 52.5 1.9 52.65 2.1 52.75 2.35 52.85 2.6 52.95 2.9 53.1 3.15 53.2 3.4 53.3 3.7 53.4 3.95 53.5 4.25 53.6 4.75 53.8 5.3 53.9 5.8 54.05 6.3 54.15 6.8 54.3 7.25 54.35 7.7 54.45 8.2 54.5 8.6 54.55 9.05 54.55 9.45 54.6 9.85 54.6 10.2 54.65 10.6 54.6 10.95 54.6 11.25 54.6 11.05 54.55 10.9 54.45 10.65 54.35 10.45 54.25 10.2 54.15 10.0 54.0 9.7 53.85 9.5 53.7 9.2 53.5 8.95 53.3 8.7 53.05 8.45 52.8 8.25 52.55 8.0 52.25 7.8 51.95 7.65 51.6 7.6 51.55 7.6 51.5 7.55 51.4 7.55 51.35 7.5 51.3 7.5 51.25 7.45 51.2 7.45 51.15 7.4 51.1 7.4 51.05 7.35 50.95 7.35 50.9 7.35 50.85 7.3 50.8 7.3 50.75 7.3 50.7 7.4 50.55 7.5 50.45 7.6 50.3 7.7 50.15 7.8 50.0 7.95 49.85 8.05 49.65 8.15 49.5 8.3 49.3 8.4 49.1 8.55 48.9 8.65 48.7 8.8 48.45 8.9 48.25 9.05 48.0 9.15 47.75 9.4 47.25 9.6 46.75 9.8 46.3 9.95 45.85 10.1 45.4 10.25 44.95 10.35 44.5 10.45 44.1 10.55 43.7 10.65 43.35 10.7 43.0 10.75 42.65 10.8 42.35 10.85 42.05 10.85 41.85 10.9 41.55 11.05 40.2 11.0 38.7 11.0 37.3 10.8 35.75 10.65 34.35 10.4 32.85 10.15 31.55 9.85 30.15 9.6 28.95 9.25 27.7 9.0 26.75 8.7 25.75 8.45 25.0 8.25 24.35 8.1 23.95 8.0 23.65 7.7 22.75 7.35 21.85 7.0 21.0 6.65 20.15 6.3 19.4 5.95 18.55 5.6 17.8 5.2 17.0 4.8 16.3 4.4 15.5 4.05 14.8 3.6 13.95 3.2 13.3 2.7 12.35 2.55 12.1 1.8 10.7 0.45 8.25 -0.75 6.35 1.25 9.55 -2.85 3.1 -4.25 0.95 -5.8 -1.75 -6.5 -2.95 -6.85 -3.6 -7.45 -4.6 -7.9 -5.4 -8.4 -6.35 -8.85 -7.2 -9.35 -8.1 -9.8 -8.95 -10.25 -9.85 -10.7 -10.75 -11.15 -11.7 -11.55 -12.6 -12.0 -13.6 -12.4 -14.6 -12.85 -15.6 -13.25 -16.65 -13.6 -17.55 -13.9 -18.45 -14.25 -19.3 -14.5 -20.2 -14.8 -21.0 -15.05 -21.8 -15.25 -22.55 -15.5 -23.3 -15.7 -24.0 -15.85 -24.7 -16.05 -25.3 -16.2 -25.95 -16.35 -26.45 -16.5 -27.05 -16.6 -27.5 -16.75 -28.1 -16.95 -28.95 -17.15 -29.85 -17.35 -30.75 -17.55 -31.7 -17.75 -32.65 -17.9 -33.6 -18.1 -34.65 -18.25 -35.65 -18.45 -36.75 -18.6 -37.8 -18.75 -38.9 -18.9 -40.05 -19.0 -41.2 -19.15 -42.35 -19.25 -43.55 -19.35 -44.8 L-19.35 -44.8" fill="#eabfff" fill-rule="evenodd" stroke="none"/>
  </g>
</svg>
