<?xml version="1.0" encoding="UTF-8" standalone="no"?>
<svg xmlns:xlink="http://www.w3.org/1999/xlink" height="200.0px" width="200.0px" xmlns="http://www.w3.org/2000/svg">
  <g transform="matrix(1.0, 0.0, 0.0, 1.0, 100.0, 100.0)">
    <path d="M25.75 -2.3 Q28.05 0.35 31.0 3.55 34.15 6.95 37.15 10.15 36.95 10.45 36.8 10.7 36.6 11.0 36.4 11.25 36.2 11.5 36.0 11.75 35.85 11.95 35.65 12.15 35.45 12.35 35.25 12.55 35.1 12.75 34.9 12.9 34.75 13.05 34.55 13.2 34.4 13.35 34.25 13.5 33.9 13.75 33.8 13.85 33.55 14.05 33.35 14.2 33.15 14.4 32.95 14.5 32.75 14.65 32.55 14.75 32.3 14.9 32.15 14.95 31.9 15.05 31.7 15.1 31.5 15.15 31.3 15.2 31.05 15.2 30.85 15.2 30.6 15.2 30.3 15.1 30.05 15.05 29.85 14.9 29.6 14.8 29.4 14.7 29.2 14.55 29.05 14.4 28.9 14.25 28.75 14.1 28.6 14.0 28.5 13.85 28.4 13.75 28.3 13.6 28.25 13.55 28.15 13.45 28.0 13.55 27.85 13.65 27.7 13.75 27.55 13.85 27.35 13.95 27.2 14.05 27.0 14.2 26.8 14.3 26.6 14.4 26.45 14.5 26.2 14.6 26.0 14.7 25.8 14.8 25.55 14.9 25.35 15.0 25.1 15.1 24.8 15.25 24.5 15.35 24.2 15.45 23.9 15.55 23.6 15.65 23.3 15.75 23.05 15.85 22.75 15.9 22.5 16.0 22.25 16.05 22.0 16.1 21.75 16.15 21.5 16.2 21.25 16.25 21.0 16.3 20.8 16.35 20.5 16.3 20.3 16.25 20.05 16.2 19.85 16.15 19.65 16.15 19.45 16.1 19.3 16.1 19.15 16.15 19.0 16.15 18.9 16.15 18.8 16.2 18.7 16.25 18.6 16.25 18.55 16.3 18.45 16.35 18.4 16.4 18.3 16.5 18.25 16.6 18.2 16.7 18.2 16.85 18.2 16.95 18.2 17.1 18.2 17.2 18.2 17.4 18.2 17.6 18.2 17.65 18.2 17.85 18.2 18.0 18.2 18.15 18.15 18.3 18.1 18.5 18.05 18.65 18.0 18.8 17.9 18.9 17.8 19.05 17.65 19.15 17.55 19.25 17.45 19.35 17.3 19.45 17.15 19.5 17.05 19.6 16.9 19.65 16.75 19.75 16.6 19.8 16.45 19.85 16.3 19.9 16.2 19.95 16.05 20.0 15.5 20.1 15.0 20.2 14.5 20.3 14.0 20.35 13.5 20.45 13.05 20.5 12.6 20.55 12.2 20.55 11.75 20.6 11.35 20.6 11.0 20.6 10.6 20.6 10.25 20.6 9.9 20.6 9.6 20.6 9.3 20.55 8.85 20.55 8.45 20.5 10.1 20.65 7.65 20.4 7.05 20.3 6.25 20.25 5.7 20.2 5.2 20.2 4.75 20.15 4.3 20.15 4.0 20.1 3.55 20.1 2.4 20.05 2.95 20.1 2.6 20.05 2.35 20.05 2.05 20.05 1.75 20.0 1.45 20.0 1.2 19.95 0.85 19.9 0.55 19.85 0.4 19.85 0.2 19.8 0.0 19.75 -0.2 19.75 -0.4 19.7 -0.6 19.65 -0.8 19.6 -1.05 19.55 -1.3 19.45 -1.55 19.4 -1.8 19.35 -2.05 19.25 -2.3 19.15 -2.6 19.05 -2.85 18.95 -3.15 18.85 -3.4 18.0 -3.85 16.35 -6.45 16.55 -11.75 17.0 -11.75 17.1 -11.75 17.25 -11.75 17.4 -11.75 17.55 -11.75 17.7 -11.8 17.85 -11.8 18.0 -11.85 18.15 -11.9 18.35 -11.95 18.5 -12.0 18.65 -12.1 18.85 -12.2 19.0 -12.35 19.1 -12.45 19.25 -12.6 19.4 -12.7 19.45 -12.8 19.5 -12.9 19.6 -13.05 19.6 -13.15 19.65 -13.3 19.7 -13.45 19.7 -13.65 19.75 -13.8 19.75 -14.05 19.75 -14.3 19.75 -14.55 19.75 -14.85 19.75 -15.2 19.75 -15.5 19.75 -15.95 19.75 -18.45 19.65 -19.65 19.55 -21.35 19.1 -24.75 18.1 -24.5 17.25 -23.95 15.45 -25.65 15.15 -29.0 14.6 -29.3 15.55 -29.9 17.5 -30.1 17.5 -30.3 17.5 -30.5 17.45 -30.75 17.45 -30.95 17.4 -31.2 17.4 -31.4 17.35 -31.65 17.35 -31.9 17.3 -32.1 17.25 -32.35 17.2 -32.6 17.15 -32.85 17.1 -33.1 17.0 -33.35 16.95 -33.6 16.9 -34.35 16.65 -35.1 16.35 -35.75 16.1 -36.4 15.7 -37.0 15.4 -37.6 15.0 -38.1 14.65 -38.6 14.3 -39.05 13.9 -39.45 13.55 -39.8 13.2 -40.15 12.85 -40.45 12.5 -40.75 12.2 -40.95 11.95 -41.15 11.65 -40.75 10.7 -40.3 9.75 -39.85 8.9 -39.4 8.05 -38.95 7.25 -38.45 6.45 -38.0 5.7 -37.55 5.0 -37.1 4.35 -36.6 3.7 -36.15 3.1 -35.7 2.5 -35.3 1.95 -34.85 1.45 -34.45 1.0 -34.05 0.5 -33.55 -0.05 -32.9 -0.7 -32.45 -1.15 -31.8 -1.8 -33.1 -0.5 -30.7 -2.9 -30.05 -3.5 -29.6 -4.0 -29.0 -4.6 -28.45 -5.15 -27.9 -5.8 -27.35 -6.4 -26.75 -7.1 -26.2 -7.85 -25.6 -8.65 -25.05 -9.5 -24.75 -9.9 -24.5 -10.35 -24.25 -10.75 -24.0 -11.15 -23.75 -11.55 -23.55 -11.9 -23.35 -12.3 -23.15 -12.65 -22.95 -13.0 -22.8 -13.35 -22.6 -13.65 -22.45 -14.0 -22.3 -14.3 -22.2 -14.6 -22.05 -14.85 -21.95 -15.1 -21.05 -17.0 -19.3 -20.85 -18.85 -20.65 -18.4 -20.5 -17.85 -20.3 -17.35 -20.15 -16.8 -19.95 -16.2 -19.75 -15.6 -19.6 -15.0 -19.4 -14.3 -19.25 -13.65 -19.1 -12.95 -18.95 -12.25 -18.8 -11.5 -18.65 -10.7 -18.55 -9.9 -18.45 -9.1 -18.35 -8.35 -18.25 -7.6 -18.2 -6.9 -18.2 -6.2 -18.15 -5.5 -18.15 -4.8 -18.15 -4.1 -18.15 -3.4 -18.2 -2.75 -18.25 -2.0 -18.3 -1.3 -18.35 -0.55 -18.45 0.15 -18.5 1.0 -18.6 1.6 -18.65 2.7 -18.8 3.35 -18.85 3.95 -18.95 4.65 -19.05 5.35 -19.15 6.05 -19.25 6.8 -19.35 7.55 -19.45 8.35 -19.6 9.15 -19.75 10.0 -19.9 10.85 -20.05 11.7 -20.25 12.6 -20.4 13.5 -20.6 14.4 -20.85 15.35 -21.05 15.4 -21.05 15.4 -21.05 15.45 -21.05 15.5 -21.05 15.55 -21.05 15.6 -21.0 15.65 -21.0 15.65 -21.0 15.7 -21.0 15.75 -20.95 15.8 -20.95 15.85 -20.95 15.9 -20.9 15.95 -20.9 16.0 -20.85 16.05 -20.85 16.15 -20.75 16.3 -20.65 16.35 -20.55 16.45 -20.45 16.55 -20.35 16.6 -20.2 16.65 -20.1 16.7 -19.95 16.75 -19.85 16.75 -19.7 16.8 -19.6 16.8 -19.5 16.8 -19.4 16.85 -19.25 16.85 -19.0 16.85 -19.1 16.9 -18.9 16.95 -18.65 17.0 -18.45 17.1 -18.25 17.15 -18.05 17.25 -17.85 17.35 -17.65 17.45 -17.45 17.55 -17.3 17.65 -17.05 17.85 -16.75 17.9 -16.65 18.0 -16.45 18.1 -16.25 18.2 -16.05 18.3 -15.85 19.3 -13.45 23.1 -6.0 24.0 -4.75 25.75 -2.3 L25.75 -2.3" fill="#c94fa6" fill-rule="evenodd" stroke="none"/>
  </g>
</svg>
