<?xml version="1.0" encoding="UTF-8" standalone="no"?>
<svg xmlns:xlink="http://www.w3.org/1999/xlink" height="200.0px" width="200.0px" xmlns="http://www.w3.org/2000/svg">
  <g transform="matrix(1.0, 0.0, 0.0, 1.0, 100.0, 100.0)">
    <path d="M2.35 -0.4 Q1.35 -0.5 1.35 -0.5 0.9 -0.55 0.5 -0.6 0.05 -0.65 -0.35 -0.7 -0.8 -0.75 -1.2 -0.85 -1.65 -0.95 -2.05 -1.0 -2.5 -1.1 -2.9 -1.25 -3.3 -1.35 -3.7 -1.5 -4.1 -1.6 -4.5 -1.8 -4.9 -1.95 -5.3 -2.1 -5.4 -2.15 -5.55 -2.2 -5.65 -2.25 -5.7 -2.25 -5.75 -2.3 -5.8 -2.3 -5.85 -2.35 -5.85 -2.35 -5.9 -2.4 -5.9 -2.4 -5.95 -2.45 -5.95 -2.5 -5.95 -2.5 -5.95 -2.55 -5.95 -2.6 -5.95 -2.7 -5.95 -2.75 -5.95 -2.85 -5.9 -3.05 -5.85 -3.25 -5.85 -3.45 -5.8 -3.7 -5.8 -3.7 -5.75 -3.75 -5.7 -3.8 -5.65 -3.8 -5.6 -3.8 -5.6 -3.8 -5.55 -3.8 -5.5 -3.8 -5.5 -3.8 -5.45 -3.8 -5.4 -3.8 -5.35 -3.75 -5.3 -3.75 -5.3 -3.75 -5.25 -3.75 -5.2 -3.75 -5.15 -3.75 -5.1 -3.7 -5.1 -3.7 -5.05 -3.7 -5.0 -3.65 -4.95 -3.65 -4.65 -3.5 -4.3 -3.35 -4.0 -3.25 -3.65 -3.1 -3.35 -3.0 -3.0 -2.85 -2.7 -2.75 -2.35 -2.65 -2.0 -2.6 -1.7 -2.5 -1.35 -2.4 -1.0 -2.35 -0.65 -2.3 -0.3 -2.2 0.05 -2.15 0.4 -2.1 0.7 -2.05 0.95 -2.05 1.25 -2.0 1.55 -2.0 1.8 -2.0 2.1 -1.95 2.4 -1.95 2.65 -1.95 2.95 -1.95 3.25 -1.95 3.5 -1.95 3.8 -1.95 4.1 -2.0 4.35 -2.0 4.65 -2.0 4.95 -2.05 5.2 -2.05 5.4 -2.1 5.65 -2.15 5.9 -2.15 6.1 -2.2 6.35 -2.25 6.55 -2.3 6.8 -2.4 7.0 -2.45 7.25 -2.5 7.45 -2.6 7.7 -2.65 7.9 -2.75 8.15 -2.8 8.35 -2.9 8.6 -3.0 8.8 -3.1 11.6 -4.1 11.7 -4.15 11.95 -4.2 11.95 -4.2 12.05 -3.5 12.15 -3.1 12.15 -2.8 12.15 -2.8 12.15 -2.75 12.1 -2.7 12.05 -2.7 12.0 -2.65 12.0 -2.6 11.7 -2.5 11.45 -2.35 11.15 -2.25 10.9 -2.15 10.6 -2.05 10.35 -1.95 10.05 -1.85 9.75 -1.75 9.5 -1.65 9.2 -1.55 8.9 -1.45 8.65 -1.35 8.35 -1.25 8.05 -1.2 7.75 -1.1 7.5 -1.0 7.3 -0.95 7.1 -0.9 6.85 -0.85 6.65 -0.8 6.45 -0.75 6.25 -0.7 6.0 -0.65 5.8 -0.65 5.6 -0.6 5.4 -0.55 5.15 -0.55 4.95 -0.5 4.75 -0.5 4.55 -0.5 4.3 -0.45 4.1 -0.45 4.1 -0.45 3.9 -0.4 3.35 -0.4 2.35 -0.4 L2.35 -0.4" fill="#000000" fill-rule="evenodd" stroke="none"/>
    <path d="M-28.55 -5.1 Q-28.3 -5.7 -28.15 -6.0 -28.1 -6.05 -28.1 -6.1 -28.05 -6.15 -28.05 -6.2 -28.05 -6.2 -28.0 -6.25 -28.0 -6.25 -27.95 -6.25 -27.95 -6.25 -27.9 -6.25 -27.85 -6.25 -27.85 -6.25 -27.8 -6.25 -27.75 -6.2 -27.7 -6.2 -27.65 -6.15 -27.35 -5.95 -27.0 -5.75 -26.7 -5.55 -26.35 -5.35 -26.05 -5.15 -25.7 -4.95 -25.35 -4.8 -25.05 -4.6 -24.7 -4.45 -24.35 -4.3 -24.0 -4.1 -23.65 -3.95 -23.3 -3.8 -22.95 -3.7 -22.6 -3.55 -22.25 -3.4 -21.95 -3.3 -21.9 -3.25 -21.8 -3.2 -21.8 -3.05 -21.8 -2.95 -21.9 -2.7 -22.0 -2.45 -22.1 -2.3 -22.15 -2.25 -22.35 -1.85 -23.55 -2.25 -24.3 -2.55 -24.55 -2.65 -24.8 -2.75 -25.0 -2.85 -25.25 -3.0 -25.5 -3.1 -25.7 -3.2 -25.95 -3.35 -26.2 -3.45 -26.4 -3.6 -26.65 -3.7 -26.85 -3.85 -27.1 -4.0 -27.3 -4.1 -27.55 -4.25 -27.75 -4.4 -27.95 -4.55 -28.05 -4.6 -28.55 -5.05 -28.55 -5.1 -28.55 -5.1 L-28.55 -5.1" fill="#000000" fill-rule="evenodd" stroke="none"/>
    <path d="M-7.95 -2.2 Q-8.0 -2.05 -8.05 -1.5 -8.15 -1.1 -8.2 -0.85 -8.2 -0.8 -8.25 -0.8 -8.25 -0.75 -8.3 -0.75 -8.35 -0.7 -8.4 -0.7 -9.7 -0.9 -9.75 -0.9 -13.55 -1.65 -14.05 -1.75 -14.4 -1.85 -14.75 -1.95 -15.05 -2.0 -15.4 -2.15 -15.75 -2.25 -16.05 -2.35 -16.4 -2.5 -16.7 -2.65 -17.0 -2.8 -17.35 -2.95 -17.65 -3.1 -17.95 -3.3 -18.25 -3.45 -18.55 -3.65 -18.85 -3.85 -19.15 -4.05 -19.2 -4.1 -19.2 -4.1 -19.25 -4.15 -19.25 -4.2 -19.3 -4.25 -19.3 -4.25 -19.3 -4.3 -19.3 -4.35 -19.3 -4.4 -19.25 -4.45 -19.2 -4.55 -19.05 -4.95 -18.95 -5.25 -18.85 -5.45 -18.85 -5.5 -18.8 -5.55 -18.8 -5.6 -18.75 -5.6 -18.7 -5.6 -18.65 -5.6 -18.6 -5.55 -18.55 -5.55 -18.55 -5.55 -18.5 -5.5 -18.45 -5.5 -18.45 -5.45 -18.4 -5.45 -18.4 -5.45 -18.35 -5.4 -18.35 -5.4 -18.3 -5.4 -18.25 -5.35 -18.25 -5.35 -18.2 -5.3 -18.2 -5.3 -18.15 -5.3 -18.15 -5.25 -18.1 -5.25 -17.85 -5.05 -17.55 -4.85 -17.25 -4.7 -17.0 -4.5 -16.7 -4.35 -16.4 -4.2 -16.1 -4.05 -15.8 -3.95 -15.5 -3.8 -15.15 -3.7 -14.85 -3.6 -14.55 -3.5 -14.2 -3.4 -13.9 -3.3 -13.6 -3.25 -13.25 -3.15 -9.9 -2.5 -8.75 -2.3 -8.65 -2.3 -7.95 -2.2 L-7.95 -2.2" fill="#000000" fill-rule="evenodd" stroke="none"/>
    <path d="M14.5 -1.55 Q14.3 -1.75 14.3 -1.75 14.3 -1.8 14.25 -1.9 14.25 -1.95 14.2 -2.05 14.2 -2.1 14.2 -2.15 14.15 -2.25 14.15 -2.3 14.15 -2.4 14.1 -2.45 14.1 -2.5 14.1 -2.6 14.1 -2.65 14.05 -2.75 14.05 -2.8 14.05 -2.85 14.05 -2.9 14.05 -2.95 14.1 -2.95 14.1 -3.0 14.15 -3.05 14.2 -3.05 14.25 -3.1 14.25 -3.1 14.4 -3.15 14.65 -3.2 14.9 -3.2 15.0 -3.25 17.05 -3.8 17.7 -4.0 18.8 -4.4 21.6 -5.55 21.75 -5.6 22.75 -6.15 22.8 -6.15 22.8 -6.2 22.85 -6.2 22.9 -6.2 22.9 -6.2 22.95 -6.2 22.95 -6.2 23.0 -6.2 23.0 -6.2 23.05 -6.15 23.05 -6.15 23.1 -6.15 23.1 -6.1 23.1 -6.05 23.15 -6.05 23.15 -6.0 23.15 -5.95 23.2 -5.85 23.2 -5.8 23.25 -5.75 23.25 -5.65 23.3 -5.6 23.3 -5.55 23.35 -5.45 23.35 -5.4 23.35 -5.35 23.4 -5.25 23.4 -5.2 23.45 -5.15 23.45 -5.05 23.45 -5.0 23.5 -4.95 23.5 -4.9 23.5 -4.85 23.45 -4.8 23.4 -4.8 23.4 -4.75 23.35 -4.75 22.45 -4.25 21.85 -4.0 21.55 -3.85 21.25 -3.7 20.9 -3.6 20.6 -3.45 20.3 -3.3 19.95 -3.2 19.65 -3.05 19.35 -2.95 19.0 -2.8 18.7 -2.7 18.4 -2.55 18.05 -2.45 17.75 -2.35 17.4 -2.25 17.1 -2.15 16.75 -2.05 16.5 -2.0 14.5 -1.55 L14.5 -1.55" fill="#000000" fill-rule="evenodd" stroke="none"/>
    <path d="M26.2 -3.7 Q26.15 -3.7 26.1 -3.7 26.05 -3.7 26.0 -3.7 26.0 -3.7 25.95 -3.75 25.9 -3.75 25.9 -3.75 25.85 -3.8 25.85 -3.8 25.8 -3.85 25.8 -3.85 25.8 -3.9 25.75 -3.95 25.75 -4.0 25.75 -4.0 25.5 -4.7 25.45 -4.95 25.45 -5.0 25.45 -5.05 25.45 -5.1 25.45 -5.15 25.45 -5.15 25.5 -5.2 25.55 -5.2 25.6 -5.2 25.7 -5.2 26.35 -5.3 26.8 -5.4 27.1 -5.45 27.25 -5.5 27.45 -5.5 27.6 -5.55 27.8 -5.6 27.95 -5.65 28.1 -5.7 28.25 -5.8 28.45 -5.85 28.6 -5.9 28.75 -6.0 28.9 -6.05 29.1 -6.15 29.2 -6.2 29.4 -6.3 29.4 -6.3 29.7 -6.45 29.8 -6.5 30.9 -7.0 30.95 -7.05 31.0 -7.05 31.05 -7.05 31.1 -7.05 31.15 -7.1 31.2 -7.05 31.25 -7.05 31.25 -7.05 31.3 -7.05 31.3 -7.0 31.35 -6.95 31.35 -6.9 31.4 -6.9 31.4 -6.85 31.4 -6.8 31.4 -6.7 31.4 -6.65 31.4 -6.6 31.45 -6.6 31.45 -6.55 31.45 -6.5 31.45 -6.45 31.45 -6.4 31.5 -6.35 31.5 -6.35 31.5 -6.3 31.5 -6.25 31.55 -6.2 31.55 -6.15 31.55 -6.15 31.55 -6.1 31.6 -6.05 31.6 -6.0 31.6 -5.95 31.65 -5.9 31.65 -5.9 31.65 -5.85 31.65 -5.8 31.6 -5.75 31.6 -5.75 31.6 -5.7 31.6 -5.7 31.55 -5.65 31.55 -5.65 31.55 -5.6 31.5 -5.6 31.45 -5.55 31.45 -5.55 28.85 -4.25 27.65 -3.95 27.35 -3.9 26.9 -3.8 26.35 -3.75 26.2 -3.7 L26.2 -3.7" fill="#000000" fill-rule="evenodd" stroke="none"/>
  </g>
</svg>
