<?xml version="1.0" encoding="UTF-8" standalone="no"?>
<svg xmlns:xlink="http://www.w3.org/1999/xlink" height="116.85px" width="132.4px" xmlns="http://www.w3.org/2000/svg">
  <g transform="matrix(1.0, 0.0, 0.0, 1.0, 66.2, 58.4)">
    <path d="M26.75 -30.05 Q26.7 -30.1 26.7 -30.1 26.65 -30.15 26.6 -30.2 26.6 -30.25 26.6 -30.25 26.55 -30.3 26.55 -30.35 26.55 -30.4 26.55 -30.4 26.55 -30.45 26.55 -30.5 26.55 -30.55 26.55 -30.6 26.55 -30.6 26.55 -30.65 26.55 -30.8 26.55 -30.9 26.55 -31.05 26.55 -31.15 26.55 -31.3 26.55 -31.4 26.55 -31.55 26.5 -31.65 26.5 -31.8 26.45 -31.9 26.45 -32.05 26.4 -32.15 26.4 -32.3 26.35 -32.4 26.3 -32.55 26.25 -32.65 26.2 -32.75 26.2 -32.75 26.2 -32.75 26.2 -32.8 26.2 -32.85 26.2 -32.85 26.25 -32.9 26.3 -32.95 26.4 -33.0 26.45 -33.05 26.5 -33.05 26.6 -33.1 26.65 -33.15 26.7 -33.15 26.8 -33.2 26.85 -33.2 26.9 -33.25 27.0 -33.25 27.05 -33.25 27.15 -33.25 27.2 -33.3 27.3 -33.3 27.4 -33.3 27.65 -33.3 27.85 -33.3 27.95 -33.25 28.0 -33.25 28.05 -33.25 28.1 -33.25 28.15 -33.25 28.15 -33.25 28.2 -33.2 28.25 -33.2 28.3 -33.2 28.35 -33.2 28.4 -33.2 28.45 -33.2 28.45 -33.15 28.5 -33.15 28.55 -33.15 28.6 -33.1 28.65 -33.1 29.2 -32.85 30.45 -32.25 31.65 -31.7 32.3 -31.4 32.5 -31.3 33.15 -31.1 33.2 -31.1 33.25 -31.05 33.3 -31.05 33.35 -31.05 33.4 -31.0 33.45 -31.0 33.5 -30.95 33.55 -30.95 33.6 -30.9 33.6 -30.9 33.65 -30.85 33.7 -30.8 33.75 -30.8 33.75 -30.75 33.8 -30.7 33.85 -30.65 33.95 -30.6 34.0 -30.5 34.1 -30.45 34.15 -30.35 34.2 -30.3 34.25 -30.2 34.35 -30.1 34.35 -30.0 34.4 -29.95 34.45 -29.85 34.5 -29.75 34.55 -29.65 34.65 -29.45 34.6 -29.45 34.65 -29.35 34.7 -29.25 35.0 -28.65 35.25 -28.05 35.5 -27.45 35.8 -26.85 36.05 -26.2 36.3 -25.6 36.55 -25.0 36.8 -24.4 37.05 -23.75 37.3 -23.15 37.55 -22.55 37.8 -21.9 38.0 -21.3 38.25 -20.65 38.45 -20.05 38.7 -19.4 38.9 -18.85 39.1 -18.25 39.3 -17.7 39.5 -17.1 39.7 -16.5 39.9 -15.95 40.05 -15.35 40.25 -14.8 40.45 -14.2 40.6 -13.6 40.8 -13.05 40.95 -12.45 41.15 -11.85 41.3 -11.3 41.45 -10.7 41.65 -10.1 41.85 -9.4 42.05 -8.7 42.25 -8.0 42.4 -7.3 42.6 -6.55 42.8 -5.85 42.95 -5.15 43.15 -4.45 43.3 -3.75 43.45 -3.0 43.65 -2.3 43.8 -1.6 43.95 -0.9 44.1 -0.15 44.25 0.55 44.4 1.25 45.05 4.4 46.1 9.8 46.9 13.95 47.7 18.25 47.9 19.4 48.4 22.4 48.85 25.05 49.1 26.55 49.35 27.85 49.35 28.25 49.4 28.6 49.35 29.5 49.35 29.55 49.35 29.6 49.35 29.65 49.35 29.7 49.3 29.75 49.3 29.8 49.3 29.85 49.25 29.9 49.25 29.95 49.2 30.0 49.2 30.05 49.15 30.05 49.15 30.1 49.1 30.15 49.05 30.2 49.05 30.2 48.95 30.3 48.8 30.45 48.65 30.55 48.55 30.65 48.4 30.75 48.25 30.85 48.1 30.9 48.0 31.0 47.85 31.1 47.7 31.15 47.55 31.25 47.4 31.3 47.25 31.35 47.1 31.4 46.95 31.5 46.8 31.55 46.65 31.6 46.5 31.65 46.35 31.65 46.2 31.7 46.05 31.7 45.85 31.75 45.7 31.75 45.55 31.75 45.4 31.8 45.25 31.8 45.1 31.8 44.95 31.8 44.8 31.8 44.6 31.8 44.5 31.8 44.3 31.8 44.15 31.8 44.05 31.8 43.9 31.8 43.75 31.8 43.6 31.8 43.5 31.75 43.35 31.75 43.2 31.75 43.1 31.75 42.95 31.7 42.8 31.7 42.65 31.7 42.55 31.65 42.4 31.65 42.25 31.6 42.15 31.6 42.1 31.6 42.05 31.6 42.0 31.6 41.95 31.6 41.9 31.6 41.85 31.6 41.8 31.6 41.75 31.6 41.55 31.6 40.75 31.75 40.7 31.9 40.65 32.0 40.55 32.1 40.5 32.2 40.4 32.3 40.3 32.4 40.25 32.45 40.15 32.55 40.05 32.6 39.95 32.65 39.85 32.75 39.7 32.8 39.6 32.85 39.5 32.9 39.4 32.95 39.25 33.0 39.15 33.05 39.0 33.1 38.9 33.15 38.8 33.15 38.65 33.2 38.55 33.25 38.4 33.25 38.3 33.3 38.2 33.3 38.05 33.35 37.95 33.35 37.8 33.4 37.7 33.4 37.55 33.45 37.45 33.45 37.3 33.45 37.05 33.5 36.85 33.5 36.6 33.55 36.35 33.55 36.15 33.55 35.9 33.6 35.65 33.6 35.45 33.6 35.2 33.6 34.95 33.6 34.75 33.6 34.5 33.6 34.3 33.6 34.05 33.6 33.8 33.6 33.55 33.6 33.15 33.6 32.8 33.55 32.4 33.5 32.05 33.45 31.7 33.4 31.3 33.3 30.95 33.2 30.6 33.1 30.2 33.0 29.85 32.9 29.5 32.8 29.15 32.65 28.8 32.5 28.45 32.35 28.1 32.2 27.8 32.0 27.55 31.9 27.15 31.65 27.05 31.6 27.0 31.55 26.9 31.5 26.8 31.45 26.75 31.35 26.65 31.3 26.6 31.25 26.5 31.2 26.45 31.1 26.4 31.05 26.3 30.95 26.25 30.9 26.2 30.8 26.15 30.75 26.1 30.65 26.05 30.55 26.05 30.5 26.0 30.5 26.0 30.45 25.95 30.45 25.95 30.4 25.9 30.4 25.85 30.4 25.85 30.35 25.8 30.35 25.8 30.35 25.75 30.35 25.7 30.3 25.7 30.3 25.65 30.3 25.6 30.3 25.6 30.3 25.55 30.3 25.5 30.3 25.45 30.3 25.4 30.3 25.35 30.3 25.3 30.35 25.3 30.35 25.25 30.35 25.2 30.4 25.15 30.4 25.15 30.45 25.1 30.45 25.1 30.5 25.05 30.55 25.0 30.6 25.0 30.65 24.85 30.9 24.75 31.1 24.6 31.35 24.4 31.55 24.25 31.75 24.1 31.95 23.9 32.15 23.75 32.35 23.55 32.5 23.35 32.7 23.15 32.85 22.9 33.0 22.7 33.15 22.45 33.3 22.25 33.45 22.0 33.55 21.65 33.75 21.25 33.95 20.85 34.15 20.5 34.3 20.1 34.5 19.7 34.65 19.3 34.8 18.9 34.95 18.5 35.05 18.1 35.2 17.7 35.3 17.3 35.4 16.9 35.55 16.5 35.6 16.05 35.7 15.65 35.75 15.45 35.8 15.3 35.8 15.1 35.85 14.95 35.85 14.75 35.9 14.6 35.9 14.4 35.95 14.2 35.95 14.05 36.0 13.85 36.0 13.7 36.0 13.5 36.0 13.3 36.05 13.15 36.05 12.95 36.05 12.75 36.05 12.55 36.05 12.3 36.05 12.05 36.05 11.85 36.05 11.6 36.1 11.4 36.05 11.15 36.05 10.95 36.05 10.7 36.05 10.5 36.05 10.25 36.05 10.0 36.05 9.8 36.05 9.55 36.0 9.35 36.0 9.1 36.0 8.8 35.95 8.45 35.95 8.15 35.9 7.8 35.85 7.5 35.8 7.2 35.75 6.85 35.7 6.55 35.65 6.25 35.6 5.95 35.5 5.6 35.45 5.3 35.35 5.0 35.3 4.7 35.2 4.35 35.1 4.05 35.0 4.0 35.0 1.45 34.1 1.4 34.05 1.4 34.05 1.35 34.05 1.3 34.0 1.25 34.0 1.25 34.0 0.8 34.0 0.0 34.05 0.0 34.05 -0.05 34.1 -0.1 34.1 -0.1 34.15 -0.35 34.3 -0.6 34.45 -0.85 34.6 -1.1 34.75 -1.35 34.85 -1.6 35.0 -1.85 35.1 -2.15 35.25 -2.4 35.35 -2.65 35.45 -2.9 35.6 -3.2 35.7 -3.45 35.8 -3.75 35.9 -4.0 35.95 -4.3 36.05 -4.65 36.15 -5.05 36.3 -5.45 36.4 -5.8 36.45 -6.2 36.55 -6.55 36.6 -6.95 36.7 -7.35 36.75 -7.7 36.8 -8.1 36.8 -8.5 36.85 -8.9 36.85 -9.3 36.9 -9.7 36.9 -10.05 36.9 -10.45 36.85 -11.2 36.85 -11.9 36.8 -12.65 36.75 -13.35 36.65 -14.05 36.6 -14.8 36.45 -15.5 36.35 -16.2 36.25 -16.9 36.1 -17.6 35.95 -18.3 35.8 -19.0 35.6 -19.7 35.4 -20.4 35.15 -21.1 34.95 -21.8 34.7 -22.05 34.6 -22.25 34.55 -22.45 34.45 -22.65 34.35 -22.9 34.3 -23.1 34.2 -23.3 34.1 -23.55 34.0 -23.75 33.9 -23.95 33.8 -24.15 33.7 -24.35 33.55 -24.55 33.45 -24.75 33.35 -25.0 33.2 -25.15 33.1 -25.3 33.0 -25.45 32.9 -25.6 32.8 -25.75 32.7 -25.9 32.6 -26.0 32.5 -26.15 32.4 -26.3 32.3 -26.45 32.15 -26.55 32.05 -26.7 31.95 -26.85 31.85 -26.95 31.75 -27.1 31.6 -27.2 31.5 -27.35 31.4 -28.15 30.55 -28.3 30.4 -28.35 30.35 -28.35 30.35 -28.4 30.3 -28.45 30.25 -28.45 30.25 -28.5 30.2 -28.5 30.15 -28.55 30.1 -28.55 30.1 -28.55 30.05 -28.6 30.0 -28.6 29.95 -28.6 29.9 -28.6 29.85 -28.6 29.8 -28.6 29.8 -28.65 29.65 -28.65 29.65 -28.65 29.55 -28.75 29.55 -28.8 29.55 -28.85 29.55 -28.9 29.6 -28.95 29.6 -29.0 29.65 -29.0 29.65 -29.0 29.7 -29.05 29.75 -29.1 29.75 -29.1 29.8 -29.15 29.8 -29.15 29.85 -29.2 29.85 -29.25 29.9 -29.25 29.9 -29.3 29.95 -29.35 29.95 -29.35 30.0 -29.4 30.0 -29.45 30.0 -29.5 30.05 -29.5 30.05 -29.85 30.2 -30.15 30.35 -30.5 30.55 -30.85 30.65 -31.2 30.8 -31.55 30.95 -31.9 31.05 -32.2 31.2 -32.6 31.3 -32.9 31.4 -33.3 31.5 -33.65 31.6 -34.0 31.65 -34.35 31.7 -34.7 31.8 -35.1 31.85 -35.55 31.9 -35.95 31.9 -36.35 31.95 -36.75 31.95 -37.2 31.95 -37.6 31.95 -38.0 31.95 -38.45 31.95 -38.85 31.9 -39.25 31.85 -39.7 31.8 -40.1 31.7 -40.5 31.65 -40.9 31.55 -41.3 31.45 -41.75 31.3 -42.0 31.2 -42.3 31.1 -42.55 31.0 -42.8 30.85 -43.05 30.75 -43.25 30.6 -43.5 30.45 -43.75 30.3 -43.95 30.15 -44.2 30.0 -44.4 29.8 -44.6 29.65 -44.85 29.45 -45.05 29.25 -45.25 29.05 -45.4 28.85 -45.55 28.7 -45.65 28.55 -45.8 28.4 -45.95 28.2 -46.05 28.05 -46.2 27.9 -46.3 27.75 -46.4 27.55 -46.55 27.4 -46.65 27.25 -46.75 27.05 -46.85 26.9 -47.0 26.75 -47.1 26.55 -47.2 26.4 -47.3 26.2 -47.3 26.15 -47.35 26.15 -47.35 26.1 -47.35 26.05 -47.4 26.0 -47.4 26.0 -47.4 25.95 -47.4 25.9 -47.45 25.85 -47.45 25.8 -47.45 25.8 -47.45 25.75 -47.45 25.7 -47.45 25.65 -47.45 25.6 -47.5 25.6 -47.5 25.5 -47.5 25.35 -47.5 25.25 -47.5 25.1 -47.5 25.0 -47.45 24.9 -47.45 24.75 -47.4 24.65 -47.4 24.55 -47.35 24.45 -47.3 24.3 -47.3 24.2 -47.25 24.1 -47.2 24.0 -47.2 23.95 -47.15 23.75 -46.85 22.9 -44.05 15.0 -40.8 5.65 -39.3 1.5 -38.7 -0.2 -34.05 -12.6 -33.6 -13.85 -32.45 -16.9 -32.4 -17.1 -32.35 -17.15 -32.3 -17.25 -32.2 -17.25 -32.15 -17.3 -31.9 -17.3 -31.85 -17.3 -31.8 -17.3 -31.75 -17.3 -31.7 -17.3 -31.65 -17.3 -31.6 -17.3 -31.55 -17.3 -31.5 -17.3 -31.45 -17.3 -31.4 -17.3 -31.4 -17.3 -31.35 -17.25 -31.3 -17.25 -31.25 -17.25 -31.2 -17.2 -31.2 -17.2 -31.15 -17.15 -31.1 -17.15 -31.05 -17.1 -31.05 -17.1 -31.0 -17.05 -30.95 -17.0 -30.65 -16.7 -30.3 -16.45 -30.0 -16.15 -29.65 -15.9 -29.35 -15.65 -29.0 -15.4 -28.65 -15.15 -28.3 -14.9 -27.95 -14.65 -27.6 -14.45 -27.25 -14.2 -26.85 -14.0 -26.5 -13.8 -26.15 -13.6 -25.75 -13.35 -25.4 -13.2 -25.0 -13.0 -24.45 -12.7 -23.55 -12.3 -23.5 -12.25 -23.35 -12.2 -23.15 -12.05 -22.85 -11.9 -22.8 -11.85 -22.75 -11.85 -22.65 -11.8 -22.6 -11.8 -22.55 -11.75 -21.95 -11.65 -21.75 -11.55 -21.4 -11.35 -20.1 -10.95 -17.5 -10.05 -15.8 -9.65 -15.65 -9.6 -15.5 -9.6 -15.3 -9.55 -15.15 -9.55 -15.0 -9.5 -14.85 -9.5 -14.65 -9.45 -14.5 -9.45 -14.35 -9.4 -14.2 -9.4 -14.05 -9.35 -13.85 -9.35 -13.7 -9.35 -13.55 -9.35 -13.35 -9.35 -13.2 -9.3 -13.1 -9.3 -13.0 -9.3 -12.85 -9.3 -12.75 -9.3 -12.65 -9.35 -12.55 -9.35 -12.45 -9.35 -12.35 -9.4 -12.25 -9.4 -12.1 -9.4 -12.0 -9.45 -11.9 -9.5 -11.8 -9.5 -11.7 -9.55 -11.6 -9.6 -11.5 -9.65 -11.4 -9.7 -11.3 -9.75 -11.2 -9.85 -11.1 -9.9 -11.0 -10.0 -10.95 -10.05 -10.85 -10.15 -10.8 -10.25 -10.7 -10.3 -10.65 -10.4 -10.6 -10.5 -10.55 -10.6 -10.5 -10.7 -10.45 -10.8 -10.4 -10.9 -10.35 -11.05 -10.1 -11.9 -9.5 -13.95 -9.5 -14.0 -9.45 -14.05 -9.45 -14.1 -9.4 -14.15 -9.4 -14.2 -9.35 -14.25 -9.35 -14.3 -9.3 -14.3 -9.25 -14.35 -9.25 -14.35 -9.2 -14.35 -9.15 -14.4 -9.1 -14.4 -9.05 -14.4 -9.0 -14.4 -8.9 -14.4 -8.2 -14.4 -7.1 -14.35 -4.8 -14.15 -4.7 -14.15 -4.55 -14.15 -4.4 -14.15 -4.25 -14.1 -4.1 -14.1 -3.95 -14.15 -3.8 -14.15 -3.65 -14.15 -3.5 -14.15 -3.5 -14.15 -3.2 -14.2 -3.0 -14.2 -2.9 -14.2 -2.75 -14.25 -2.6 -14.25 -2.45 -14.25 -2.3 -14.25 -2.15 -14.25 -1.6 -14.2 -1.15 -14.2 -0.9 -14.2 -0.85 -14.2 -0.75 -14.2 -0.7 -14.2 -0.6 -14.2 -0.55 -14.2 -0.5 -14.2 -0.4 -14.2 -0.35 -14.2 -0.25 -14.2 -0.2 -14.2 -0.15 -14.2 -0.05 -14.2 0.0 -14.25 0.05 -14.25 0.15 -14.25 0.2 -14.25 2.15 -14.45 3.4 -14.65 3.7 -14.7 4.0 -14.7 4.3 -14.75 4.6 -14.8 4.9 -14.85 5.2 -14.9 5.5 -14.95 5.8 -15.05 6.1 -15.1 6.4 -15.15 6.7 -15.25 7.0 -15.35 7.3 -15.45 7.6 -15.55 7.9 -15.65 8.15 -15.75 8.4 -15.85 8.7 -16.0 8.75 -16.05 8.8 -16.05 8.85 -16.1 8.9 -16.15 8.95 -16.2 9.0 -16.25 9.05 -16.3 9.1 -16.35 9.1 -16.4 9.15 -16.5 9.15 -16.55 9.2 -16.6 9.2 -16.7 9.2 -16.75 9.2 -16.85 9.2 -16.9 9.2 -17.05 9.15 -17.55 9.1 -18.0 9.1 -18.2 9.05 -20.25 9.05 -20.45 9.05 -20.5 9.05 -20.6 9.05 -20.65 9.05 -20.65 9.05 -20.7 9.05 -20.75 9.1 -20.8 9.1 -20.8 9.1 -20.85 9.15 -20.85 9.2 -20.85 9.25 -20.85 9.25 -20.9 9.35 -20.9 9.4 -20.9 9.45 -20.9 9.85 -20.95 10.25 -21.0 10.65 -21.05 11.05 -21.15 11.45 -21.2 11.85 -21.3 12.25 -21.4 12.6 -21.5 13.0 -21.6 13.4 -21.7 13.8 -21.8 14.15 -21.95 14.55 -22.05 14.9 -22.2 15.3 -22.35 15.7 -22.5 15.75 -22.5 15.75 -22.55 15.8 -22.55 15.85 -22.55 15.85 -22.6 15.9 -22.6 15.95 -22.65 15.95 -22.65 16.0 -22.7 16.0 -22.7 16.05 -22.7 16.1 -22.75 16.1 -22.75 16.15 -22.8 16.15 -22.85 16.2 -22.85 16.4 -23.05 16.55 -23.2 16.75 -23.35 16.95 -23.5 17.15 -23.65 17.35 -23.75 17.55 -23.9 17.75 -24.0 18.0 -24.1 18.2 -24.15 18.45 -24.25 18.65 -24.3 18.9 -24.35 19.15 -24.4 19.4 -24.45 19.65 -24.45 19.7 -24.45 19.75 -24.45 19.8 -24.45 19.8 -24.5 19.85 -24.5 19.9 -24.5 19.95 -24.5 19.95 -24.55 20.0 -24.55 20.05 -24.55 20.1 -24.6 20.15 -24.6 20.15 -24.6 20.2 -24.65 20.25 -24.65 20.25 -24.65 20.5 -24.75 20.7 -24.9 20.95 -25.05 21.15 -25.15 21.35 -25.3 21.6 -25.45 21.8 -25.55 22.0 -25.7 22.25 -25.85 22.45 -26.0 22.65 -26.1 22.85 -26.25 23.05 -26.4 23.3 -26.55 23.5 -26.7 23.7 -26.85 23.7 -26.85 23.75 -26.9 23.75 -26.9 23.8 -26.95 23.8 -26.95 23.85 -27.0 23.9 -27.0 23.9 -27.0 23.95 -27.05 23.95 -27.05 24.0 -27.05 24.0 -27.1 24.05 -27.1 24.05 -27.1 24.1 -27.15 24.15 -27.15 24.35 -27.25 24.5 -27.35 24.7 -27.45 24.85 -27.6 25.0 -27.7 25.15 -27.85 25.3 -28.0 25.45 -28.15 25.6 -28.3 25.7 -28.45 25.8 -28.6 25.95 -28.8 26.05 -28.95 26.1 -29.15 26.2 -29.35 26.3 -29.55 26.3 -29.6 26.35 -29.6 26.35 -29.65 26.35 -29.7 26.4 -29.75 26.4 -29.75 26.4 -29.8 26.45 -29.8 26.5 -29.85 26.75 -30.05 L26.75 -30.05" fill="#000000" fill-rule="evenodd" stroke="none"/>
  </g>
</svg>
