<?xml version="1.0" encoding="UTF-8" standalone="no"?>
<svg xmlns:xlink="http://www.w3.org/1999/xlink" height="99.25px" width="132.45px" xmlns="http://www.w3.org/2000/svg">
  <g transform="matrix(1.0, 0.0, 0.0, 1.0, 66.25, 49.6)">
    <path d="M17.85 -18.95 Q17.85 -18.9 17.9 -18.8 17.95 -18.75 17.95 -18.65 18.0 -18.6 18.0 -18.5 18.05 -18.4 18.1 -18.35 18.1 -18.3 18.15 -18.2 18.15 -18.15 18.2 -18.1 18.2 -18.0 18.25 -17.95 18.25 -17.85 18.25 -17.8 18.3 -17.65 18.3 -17.5 18.3 -17.35 18.35 -17.2 18.35 -17.05 18.35 -16.9 18.35 -16.75 18.35 -16.6 18.3 -16.45 18.3 -16.3 18.25 -16.15 18.2 -16.0 18.15 -15.85 18.1 -15.75 18.05 -15.6 17.95 -15.45 17.95 -15.4 17.85 -15.1 17.85 -15.1 17.85 -14.95 17.85 -14.9 17.85 -14.85 17.85 -14.8 17.8 -14.75 17.8 -14.7 17.8 -14.7 17.8 -14.65 17.8 -14.6 17.75 -14.55 17.75 -14.5 17.75 -14.45 17.75 -14.4 17.75 -14.4 17.75 -14.35 17.75 -14.3 17.75 -14.25 17.8 -14.2 17.8 -14.15 17.8 -14.1 17.8 -14.05 17.8 -14.05 17.8 -14.0 17.8 -14.05 17.8 -13.9 17.8 -13.8 17.8 -13.8 17.75 -13.8 17.7 -13.75 17.65 -13.75 17.65 -13.75 17.6 -13.7 17.55 -13.7 17.5 -13.7 17.5 -13.65 17.45 -13.65 17.4 -13.65 17.15 -13.55 16.85 -13.5 16.6 -13.4 16.35 -13.35 16.05 -13.3 15.8 -13.2 15.5 -13.15 15.25 -13.1 15.0 -13.05 14.7 -13.0 14.45 -12.9 14.15 -12.85 13.9 -12.85 13.6 -12.8 13.35 -12.75 13.05 -12.7 12.65 -12.65 12.25 -12.6 11.9 -12.55 11.5 -12.5 11.1 -12.45 10.7 -12.4 10.35 -12.4 9.95 -12.35 9.55 -12.3 9.15 -12.3 8.75 -12.25 8.4 -12.25 8.0 -12.2 7.6 -12.2 7.2 -12.2 6.8 -12.2 6.2 -12.2 3.15 -12.35 2.7 -12.4 2.05 -12.45 1.1 -12.5 0.95 -12.5 0.9 -12.5 0.85 -12.5 0.8 -12.5 0.8 -12.5 0.75 -12.5 0.7 -12.5 0.65 -12.45 0.65 -12.45 0.6 -12.45 0.6 -12.4 0.55 -12.4 0.55 -12.35 0.5 -12.35 0.5 -12.3 0.45 -12.25 0.45 -12.2 0.25 -11.7 -0.2 -10.7 -0.6 -9.75 -0.8 -9.25 -0.85 -9.15 -0.9 -9.1 -0.9 -9.0 -0.95 -8.9 -1.0 -8.85 -1.05 -8.75 -1.1 -8.7 -1.15 -8.6 -1.2 -8.55 -1.25 -8.45 -1.3 -8.4 -1.35 -8.35 -1.45 -8.25 -1.5 -8.2 -1.55 -8.15 -1.65 -8.1 -1.65 -8.1 -1.7 -8.05 -1.75 -8.0 -1.75 -8.0 -1.8 -7.95 -1.8 -7.9 -1.8 -7.85 -1.85 -7.8 -1.9 -7.75 -1.9 -7.7 -1.95 -7.65 -2.0 -7.6 -2.05 -7.6 -2.1 -7.55 -2.15 -7.55 -2.2 -7.5 -2.25 -7.5 -2.3 -7.5 -2.35 -7.5 -2.4 -7.45 -2.5 -7.45 -2.55 -7.45 -4.4 -7.45 -4.95 -7.5 -5.3 -7.5 -5.6 -7.55 -5.95 -7.6 -6.3 -7.65 -6.6 -7.7 -6.95 -7.8 -7.25 -7.85 -7.6 -7.95 -7.9 -8.0 -8.25 -8.1 -8.55 -8.2 -8.9 -8.3 -9.2 -8.4 -9.55 -8.5 -9.8 -8.6 -10.15 -8.7 -10.55 -8.85 -10.95 -8.95 -11.3 -9.1 -11.7 -9.25 -12.1 -9.35 -12.45 -9.5 -12.85 -9.65 -13.2 -9.8 -13.6 -9.95 -13.95 -10.1 -14.35 -10.3 -14.7 -10.45 -15.1 -10.6 -15.45 -10.8 -15.8 -11.0 -16.15 -11.15 -16.55 -11.35 -16.9 -11.55 -17.25 -11.75 -17.65 -12.0 -18.0 -12.2 -18.35 -12.45 -18.7 -12.65 -19.05 -12.9 -19.4 -13.15 -19.75 -13.4 -20.05 -13.65 -20.4 -13.9 -20.75 -14.15 -21.05 -14.4 -21.4 -14.7 -21.7 -14.95 -22.0 -15.25 -22.15 -15.4 -22.25 -15.45 -22.3 -15.5 -22.35 -15.6 -22.4 -15.65 -22.45 -15.7 -22.5 -15.8 -22.55 -15.85 -22.55 -15.95 -22.6 -16.0 -22.6 -16.1 -22.65 -16.15 -22.65 -16.25 -22.65 -16.35 -22.65 -16.45 -22.65 -16.5 -22.6 -16.6 -22.6 -16.65 -22.6 -16.7 -22.6 -16.7 -22.6 -16.75 -22.6 -16.8 -22.55 -16.85 -22.55 -16.85 -22.55 -16.9 -22.55 -16.95 -22.55 -17.0 -22.5 -17.0 -22.5 -17.05 -22.5 -17.1 -22.5 -17.15 -22.45 -17.15 -22.45 -17.2 -22.45 -17.25 -22.4 -17.3 -22.4 -17.35 -22.4 -17.4 -22.4 -17.45 -22.4 -17.5 -22.4 -17.55 -22.45 -17.6 -22.5 -17.75 -22.55 -17.85 -22.6 -18.0 -22.65 -18.15 -22.65 -18.3 -22.7 -18.45 -22.7 -18.55 -22.75 -18.7 -22.75 -18.85 -22.75 -19.0 -22.75 -19.15 -22.75 -19.3 -22.8 -19.45 -22.75 -19.6 -22.75 -19.7 -22.75 -19.85 -22.75 -19.9 -22.75 -19.95 -22.75 -20.0 -22.75 -20.05 -22.75 -20.1 -22.7 -20.15 -22.7 -20.15 -22.7 -20.2 -22.7 -20.25 -22.7 -20.3 -22.65 -20.35 -22.65 -20.4 -22.65 -20.45 -22.6 -20.45 -22.6 -20.5 -22.6 -20.55 -22.6 -20.6 -22.55 -20.65 -22.55 -20.7 -22.55 -20.75 -22.5 -20.75 -22.5 -20.8 -22.5 -20.85 -22.5 -20.9 -22.5 -20.95 -22.5 -21.0 -22.55 -21.0 -22.55 -21.05 -22.55 -21.1 -22.55 -21.15 -22.6 -21.2 -22.6 -21.25 -22.95 -22.0 -23.55 -23.3 -24.2 -24.8 -24.45 -25.4 -24.5 -25.45 -24.5 -25.5 -24.55 -25.6 -24.55 -25.65 -24.55 -25.7 -24.55 -25.75 -24.6 -25.8 -24.6 -25.9 -24.6 -25.95 -24.6 -26.0 -24.6 -26.05 -24.6 -26.15 -24.6 -26.2 -24.6 -26.25 -24.55 -26.3 -24.55 -26.35 -24.55 -26.4 -24.55 -26.45 -24.5 -26.5 -24.5 -26.55 -24.45 -26.55 -24.45 -26.6 -24.4 -26.65 -24.4 -26.7 -24.35 -26.7 -24.3 -26.75 -24.0 -27.05 -23.55 -27.55 -22.95 -28.15 -22.8 -28.35 -22.6 -28.6 -22.35 -28.8 -22.15 -29.05 -21.95 -29.3 -21.75 -29.55 -21.55 -29.75 -21.35 -30.0 -21.1 -30.25 -20.95 -30.5 -20.7 -30.75 -20.55 -31.0 -20.35 -31.25 -20.15 -31.45 -19.95 -31.75 -19.75 -31.95 -19.55 -32.2 -15.9 -37.0 -14.6 -38.7 -14.3 -39.05 -13.75 -39.75 -13.15 -40.45 -12.9 -40.75 -12.8 -40.9 -11.95 -42.15 -11.8 -42.4 -11.6 -42.65 -11.45 -42.9 -11.25 -43.1 -11.1 -43.35 -10.9 -43.6 -10.7 -43.85 -10.55 -44.05 -10.35 -44.3 -10.15 -44.55 -10.0 -44.75 -9.8 -45.0 -9.6 -45.25 -9.4 -45.45 -9.2 -45.7 -9.0 -45.9 -8.05 -46.95 -6.25 -48.6 -5.85 -48.95 -5.2 -49.55 -4.45 -50.25 -4.1 -50.5 -4.05 -50.55 -4.0 -50.6 -3.95 -50.65 -3.9 -50.7 -3.85 -50.75 -3.8 -50.8 -3.8 -50.85 -3.75 -50.9 -3.7 -50.95 -3.65 -51.0 -3.6 -51.05 -3.55 -51.1 -3.55 -51.2 -3.5 -51.25 -3.45 -51.3 -3.4 -51.35 -3.35 -51.45 -3.3 -51.5 -3.25 -51.6 -3.2 -51.65 -3.15 -51.75 -3.1 -51.8 -3.0 -51.85 -2.95 -51.9 -2.9 -51.95 -2.8 -52.05 -2.75 -52.1 -2.65 -52.15 -2.6 -52.2 -2.5 -52.2 -2.4 -52.25 -2.35 -52.3 -2.3 -52.3 -2.25 -52.35 -2.25 -52.35 -2.2 -52.35 -2.15 -52.4 -2.15 -52.4 -2.1 -52.45 -2.1 -52.45 -2.05 -52.5 -2.05 -52.5 -2.0 -52.55 -2.0 -52.55 -2.0 -52.6 -1.95 -52.65 -1.95 -52.65 -1.95 -52.7 -1.9 -52.8 -1.9 -52.85 -1.85 -52.9 -1.85 -52.95 -1.8 -53.0 -1.8 -53.0 -1.75 -53.05 -1.7 -53.1 -1.7 -53.1 -1.65 -53.1 -1.6 -53.1 -1.55 -53.15 -1.5 -53.15 -1.45 -53.15 -1.4 -53.15 -1.3 -53.15 -0.9 -53.1 -0.8 -53.05 -0.75 -53.0 -0.7 -53.0 -0.6 -52.95 -0.55 -52.95 -0.5 -52.9 -0.45 -52.9 -0.4 -52.9 -0.35 -52.85 -0.25 -52.85 -0.2 -52.8 -0.15 -52.8 -0.1 -52.8 0.0 -52.8 0.05 -52.75 0.1 -52.75 0.15 -52.75 0.2 -52.75 0.25 -52.75 0.3 -52.75 0.35 -52.7 0.4 -52.7 0.45 -52.7 0.5 -52.65 0.55 -52.65 0.6 -52.6 0.65 -52.6 0.7 -52.55 0.75 -52.55 0.8 -52.5 0.85 -52.5 0.9 -52.45 0.95 -52.4 0.95 -52.4 1.0 -52.35 1.0 -52.35 1.05 -52.35 1.05 -52.3 1.1 -52.3 1.1 -52.3 1.15 -52.25 1.2 -52.25 1.2 -52.25 1.25 -52.25 1.25 -52.2 1.3 -52.2 1.3 -52.2 1.35 -52.15 1.4 -52.15 1.75 -52.05 2.05 -51.9 2.4 -51.8 2.75 -51.7 3.1 -51.6 3.4 -51.5 3.75 -51.4 4.1 -51.3 4.45 -51.25 4.8 -51.15 5.15 -51.05 5.5 -51.0 5.85 -50.95 6.2 -50.85 6.55 -50.8 6.9 -50.75 7.3 -50.7 7.75 -50.6 8.15 -50.55 8.55 -50.5 9.0 -50.45 9.4 -50.4 9.8 -50.35 10.25 -50.3 10.65 -50.3 11.1 -50.25 11.5 -50.25 11.9 -50.2 12.35 -50.2 12.75 -50.2 13.2 -50.2 13.6 -50.2 14.8 -50.2 17.35 -50.35 18.45 -50.4 20.05 -50.55 20.6 -50.6 21.15 -50.7 21.7 -50.75 22.25 -50.85 22.8 -50.95 23.3 -51.05 23.85 -51.15 24.4 -51.3 24.95 -51.4 25.45 -51.55 26.0 -51.7 26.5 -51.9 27.05 -52.1 27.55 -52.3 28.05 -52.5 28.55 -52.7 28.6 -52.7 28.6 -52.75 28.65 -52.75 28.7 -52.75 28.7 -52.8 28.75 -52.8 28.75 -52.85 28.8 -52.85 28.8 -52.85 28.85 -52.9 28.9 -52.9 28.9 -52.9 28.95 -52.95 28.95 -52.95 29.0 -53.0 29.0 -53.0 29.05 -53.05 29.15 -53.1 29.2 -53.15 29.25 -53.2 29.35 -53.25 29.4 -53.25 29.45 -53.3 29.55 -53.35 29.6 -53.4 29.7 -53.4 29.75 -53.45 29.85 -53.45 29.9 -53.5 30.0 -53.5 30.05 -53.55 30.15 -53.55 30.25 -53.55 30.3 -53.6 30.4 -53.6 30.45 -53.65 30.55 -53.65 30.6 -53.7 30.7 -53.75 30.75 -53.75 30.8 -53.8 30.9 -53.85 30.95 -53.9 31.05 -53.95 31.1 -53.95 31.15 -54.0 31.2 -54.05 31.3 -54.1 31.35 -54.15 31.35 -54.15 31.4 -54.2 31.45 -54.2 31.5 -54.25 31.55 -54.25 31.55 -54.25 31.6 -54.25 31.7 -54.25 31.75 -54.3 31.85 -54.3 31.9 -54.3 32.0 -54.25 32.05 -54.25 32.1 -54.25 32.15 -54.2 32.2 -54.15 32.25 -54.1 32.3 -54.05 32.3 -54.0 32.35 -53.95 32.35 -53.85 32.35 -53.8 32.35 -53.7 32.35 -53.65 32.35 -53.6 32.4 -53.55 32.4 -53.5 32.4 -53.45 32.4 -53.45 32.45 -53.4 32.45 -53.35 32.5 -53.35 32.5 -53.3 32.55 -53.25 32.55 -53.25 32.6 -53.2 32.65 -53.15 32.65 -53.15 32.7 -53.1 32.85 -53.0 32.95 -52.9 33.05 -52.8 33.15 -52.7 33.25 -52.6 33.35 -52.5 33.4 -52.35 33.5 -52.25 33.55 -52.1 33.6 -51.95 33.65 -51.85 33.7 -51.7 33.75 -51.55 33.75 -51.4 33.8 -51.25 33.8 -51.1 33.8 -51.05 33.8 -51.0 33.8 -50.95 33.8 -50.9 33.8 -50.85 33.8 -50.8 33.8 -50.8 33.8 -50.75 33.8 -50.7 33.85 -50.65 33.85 -50.6 33.85 -50.55 33.85 -50.5 33.85 -50.45 33.85 -50.4 33.85 -50.35 34.25 -49.45 33.9 -50.25 33.9 -50.2 33.9 -50.2 33.95 -50.15 33.95 -50.1 34.0 -50.05 34.0 -50.0 34.05 -49.95 34.05 -49.95 34.25 -49.75 34.4 -49.5 34.6 -49.3 34.75 -49.05 34.9 -48.85 35.05 -48.6 35.2 -48.35 35.4 -48.1 35.55 -47.9 35.7 -47.65 35.8 -47.4 35.95 -47.15 36.1 -46.95 36.25 -46.7 36.4 -46.45 36.5 -46.2 36.8 -45.7 37.55 -44.55 37.8 -44.2 38.0 -43.8 38.25 -43.45 38.45 -43.1 38.7 -42.7 38.95 -42.35 39.15 -42.0 39.35 -41.6 39.6 -41.25 39.8 -40.85 40.0 -40.5 40.25 -40.1 40.45 -39.7 40.65 -39.35 40.85 -38.95 41.05 -38.55 42.0 -36.8 44.55 -32.0 44.7 -31.7 45.05 -31.1 45.05 -31.05 45.1 -31.0 45.1 -30.95 45.15 -30.9 45.15 -30.85 45.15 -30.8 45.2 -30.7 45.2 -30.65 45.2 -30.6 45.2 -30.55 45.2 -30.5 45.2 -30.45 45.25 -30.4 45.25 -30.3 45.25 -30.25 45.25 -30.2 45.25 -30.1 45.25 -30.05 45.25 -29.95 45.25 -29.85 45.25 -29.8 45.25 -29.7 45.3 -29.6 45.3 -29.55 45.3 -29.45 45.35 -29.35 45.35 -29.3 45.4 -29.2 45.4 -29.15 45.45 -29.05 45.5 -28.95 45.5 -28.9 45.65 -28.6 46.15 -27.2 46.15 -27.15 46.2 -27.1 46.2 -27.05 46.2 -27.0 46.25 -26.95 46.25 -26.9 46.25 -26.85 46.25 -26.8 46.25 -26.7 46.25 -26.65 46.25 -26.6 46.25 -26.55 46.25 -26.5 46.25 -26.45 46.25 -26.4 46.2 -26.35 46.15 -26.35 46.1 -26.3 46.05 -26.3 46.0 -26.3 45.9 -26.3 45.85 -26.3 45.8 -26.3 45.75 -26.3 45.7 -26.3 45.65 -26.35 45.6 -26.35 45.55 -26.35 45.5 -26.4 45.45 -26.45 45.4 -26.5 45.35 -26.55 45.1 -26.8 44.65 -27.2 44.15 -27.7 43.95 -27.9 43.9 -27.95 43.65 -28.25 43.6 -28.25 43.45 -28.25 43.25 -28.25 43.2 -28.25 43.1 -28.25 43.0 -28.25 42.9 -28.3 42.8 -28.3 42.7 -28.35 42.6 -28.35 42.5 -28.4 42.4 -28.45 42.3 -28.5 42.25 -28.55 42.15 -28.6 42.1 -28.7 42.0 -28.75 41.95 -28.85 41.85 -28.9 41.8 -29.0 41.75 -29.05 41.75 -29.1 41.7 -29.1 41.7 -29.15 41.65 -29.2 41.6 -29.25 41.6 -29.25 41.55 -29.3 41.5 -29.3 41.45 -29.35 41.45 -29.35 41.4 -29.4 41.35 -29.4 41.3 -29.45 41.25 -29.45 41.2 -29.5 39.65 -30.2 38.3 -30.85 38.25 -30.9 38.2 -30.9 38.15 -30.95 38.05 -30.95 38.0 -30.95 37.95 -31.0 37.9 -31.0 37.85 -31.0 37.75 -31.0 37.7 -31.05 37.65 -31.05 37.6 -31.05 37.55 -31.05 37.45 -31.05 37.4 -31.05 37.35 -31.05 36.9 -31.0 36.75 -31.05 36.65 -31.05 36.5 -31.05 36.4 -31.05 36.3 -31.05 36.2 -31.05 36.1 -31.0 35.95 -31.0 35.85 -30.95 35.75 -30.95 35.65 -30.9 35.55 -30.85 35.4 -30.8 35.4 -30.8 35.2 -30.75 35.05 -30.7 34.95 -30.65 35.0 -30.55 35.05 -30.45 35.1 -30.35 35.15 -30.3 35.2 -30.2 35.25 -30.1 35.3 -30.0 35.3 -29.9 35.35 -29.8 35.35 -29.7 35.4 -29.6 35.4 -29.5 35.45 -29.4 35.45 -29.3 35.45 -29.2 35.45 -29.1 35.45 -29.0 35.45 -28.9 35.45 -28.8 35.45 -28.7 35.45 -28.6 35.45 -28.5 35.45 -28.4 35.45 -28.3 35.45 -28.2 35.4 -28.1 35.4 -28.0 35.4 -27.9 35.35 -27.8 35.35 -27.75 35.3 -27.65 35.25 -27.55 35.35 -27.15 35.4 -27.0 35.4 -26.95 35.4 -26.95 35.4 -26.9 35.4 -26.85 35.4 -26.85 35.35 -26.8 35.35 -26.8 35.35 -26.75 35.3 -26.75 35.3 -26.7 35.3 -26.7 35.25 -26.65 35.25 -26.65 35.2 -26.6 35.2 -26.55 35.15 -26.55 34.7 -26.05 33.3 -24.95 33.05 -24.75 32.75 -24.55 32.5 -24.4 32.25 -24.2 31.95 -24.0 31.7 -23.85 31.4 -23.65 31.15 -23.5 30.85 -23.3 30.6 -23.15 30.3 -22.95 30.0 -22.8 29.75 -22.65 29.45 -22.5 29.15 -22.3 28.9 -22.15 28.65 -22.0 28.4 -21.9 28.15 -21.75 27.9 -21.65 27.65 -21.55 27.4 -21.4 27.15 -21.3 26.9 -21.2 26.65 -21.1 26.4 -20.95 26.15 -20.85 25.85 -20.75 25.6 -20.65 25.35 -20.55 25.1 -20.45 24.85 -20.35 24.55 -20.25 24.25 -20.15 23.9 -20.05 23.6 -19.95 23.3 -19.85 23.0 -19.75 22.65 -19.7 22.35 -19.6 22.05 -19.5 21.75 -19.45 21.4 -19.4 21.1 -19.3 20.75 -19.25 20.45 -19.2 20.15 -19.15 19.8 -19.1 19.6 -19.05 18.3 -18.95 18.15 -18.95 17.85 -18.95 L17.85 -18.95" fill="#000000" fill-rule="evenodd" stroke="none"/>
    <path d="M-3.3 50.5 Q-3.4 50.65 -3.45 50.7 -3.55 50.85 -3.7 51.0 -3.8 51.15 -3.95 51.25 -4.05 51.4 -4.2 51.5 -4.35 51.6 -4.5 51.65 -4.65 51.75 -4.8 51.8 -5.0 51.85 -5.15 51.9 -5.35 51.95 -5.55 51.95 -5.7 51.95 -5.9 51.95 -6.0 51.95 -6.1 51.95 -6.15 51.95 -6.25 51.95 -6.35 51.9 -6.45 51.9 -6.5 51.9 -6.6 51.85 -6.7 51.85 -6.75 51.8 -6.85 51.8 -6.95 51.75 -7.0 51.7 -7.1 51.7 -7.2 51.65 -7.25 51.6 -8.65 51.0 -8.7 50.95 -8.85 50.9 -8.95 50.85 -9.05 50.8 -9.2 50.7 -9.3 50.65 -9.4 50.55 -9.5 50.5 -9.6 50.4 -9.7 50.3 -9.75 50.25 -9.85 50.15 -9.95 50.0 -10.0 49.9 -10.1 49.8 -10.15 49.7 -10.2 49.55 -10.2 49.55 -10.25 49.45 -10.3 49.4 -10.3 49.4 -10.35 49.45 -10.55 49.6 -10.7 49.75 -10.75 49.8 -11.0 50.0 -11.25 50.1 -11.55 50.2 -11.85 50.25 -12.1 50.3 -12.4 50.3 -12.7 50.3 -12.95 50.25 -13.25 50.15 -13.5 50.05 -13.75 49.9 -13.95 49.75 -14.2 49.55 -14.4 49.35 -14.55 49.1 -14.7 48.85 -14.85 48.45 -14.9 48.4 -14.95 48.35 -15.05 48.2 -15.15 48.05 -15.2 48.0 -15.5 48.2 -15.55 48.25 -15.65 48.3 -15.75 48.4 -15.8 48.45 -15.9 48.5 -16.0 48.6 -16.1 48.65 -16.2 48.7 -16.3 48.75 -16.4 48.8 -16.5 48.8 -16.6 48.85 -16.7 48.9 -16.8 48.9 -16.9 48.95 -17.0 48.95 -17.1 48.95 -17.25 48.95 -17.4 48.95 -17.55 48.95 -17.65 48.95 -17.8 48.9 -17.95 48.85 -18.05 48.85 -18.15 48.75 -18.3 48.7 -18.4 48.65 -18.5 48.6 -18.6 48.5 -18.7 48.4 -18.8 48.3 -18.85 48.2 -18.95 48.1 -19.1 47.9 -19.25 47.6 -19.5 47.1 -19.5 47.1 -19.5 47.05 -19.55 47.05 -19.55 47.0 -19.55 47.0 -19.6 46.95 -19.6 46.95 -19.65 46.9 -19.65 46.85 -19.65 46.85 -19.7 46.8 -19.7 46.8 -19.7 46.75 -19.75 46.75 -19.75 46.7 -19.8 46.65 -19.8 46.65 -19.9 46.7 -20.2 46.85 -20.3 46.9 -20.9 47.2 -21.3 47.4 -21.6 47.5 -21.7 47.55 -21.8 47.6 -21.95 47.6 -22.05 47.65 -22.15 47.7 -22.3 47.7 -22.4 47.7 -22.5 47.7 -22.65 47.75 -22.75 47.75 -22.9 47.75 -23.0 47.7 -23.1 47.7 -23.25 47.7 -23.35 47.7 -23.5 47.65 -23.55 47.65 -23.6 47.65 -23.65 47.65 -23.7 47.65 -23.75 47.65 -23.8 47.65 -23.8 47.65 -23.85 47.65 -23.9 47.65 -23.95 47.7 -25.35 48.2 -26.05 48.3 -26.15 48.3 -26.1 48.3 -26.15 48.3 -26.15 48.3 -26.2 48.35 -26.25 48.35 -26.25 48.35 -26.3 48.35 -26.35 48.35 -26.35 48.35 -26.4 48.35 -26.45 48.35 -26.45 48.35 -26.5 48.35 -26.55 48.35 -26.55 48.35 -28.1 48.25 -28.4 48.2 -28.55 48.15 -28.7 48.15 -28.85 48.1 -29.0 48.05 -29.15 48.0 -29.3 47.9 -29.4 47.85 -29.55 47.8 -29.7 47.7 -29.8 47.6 -29.9 47.55 -30.05 47.45 -30.15 47.3 -30.25 47.2 -30.35 47.1 -30.45 46.95 -30.5 46.9 -30.5 46.9 -30.55 46.85 -30.6 46.85 -30.6 46.85 -30.65 46.85 -30.7 46.85 -30.75 46.85 -30.75 46.85 -30.8 46.85 -30.95 46.85 -31.05 46.85 -31.15 46.9 -31.3 46.9 -31.4 46.9 -31.5 46.9 -31.65 46.9 -31.75 46.9 -31.85 46.9 -32.0 46.9 -32.1 46.9 -32.2 46.9 -32.35 46.85 -32.45 46.85 -32.55 46.85 -32.65 46.8 -32.75 46.8 -32.9 46.75 -33.0 46.7 -33.1 46.65 -33.25 46.65 -33.35 46.6 -33.45 46.55 -33.55 46.45 -33.65 46.4 -33.7 46.35 -33.8 46.25 -33.9 46.2 -34.0 46.1 -34.05 46.0 -34.15 45.95 -34.2 45.85 -34.2 45.8 -34.25 45.8 -34.3 45.75 -34.3 45.7 -34.35 45.7 -34.4 45.65 -34.4 45.65 -34.45 45.65 -34.5 45.6 -34.5 45.6 -35.2 45.3 -36.15 45.0 -36.2 45.0 -36.25 44.95 -36.25 44.95 -36.3 44.95 -36.35 44.95 -36.4 44.95 -36.45 44.95 -36.5 44.95 -36.65 44.95 -36.8 44.9 -36.95 44.9 -37.05 44.85 -37.2 44.8 -37.35 44.8 -37.45 44.75 -37.6 44.65 -37.7 44.6 -37.85 44.55 -37.95 44.45 -38.05 44.4 -38.2 44.3 -38.3 44.2 -38.4 44.15 -38.5 44.05 -38.55 44.0 -38.6 43.9 -38.65 43.85 -38.7 43.8 -38.75 43.75 -38.8 43.65 -38.85 43.6 -38.85 43.5 -38.9 43.45 -38.95 43.35 -38.95 43.3 -38.95 43.2 -39.0 43.15 -39.0 43.05 -39.0 43.0 -39.0 42.9 -39.0 42.85 -39.0 42.8 -39.0 42.75 -39.05 42.7 -39.05 42.7 -39.05 42.65 -39.05 42.6 -39.05 42.5 -39.05 42.45 -39.05 42.4 -39.05 42.35 -39.05 42.3 -39.05 42.2 -39.05 42.15 -39.1 42.1 -39.1 42.05 -39.1 42.0 -39.15 41.95 -39.15 41.85 -39.2 41.8 -39.2 41.75 -39.25 41.7 -39.55 41.0 -39.9 39.3 -39.9 39.2 -39.95 39.1 -39.95 39.0 -40.0 38.9 -40.0 38.8 -40.0 38.7 -40.0 38.6 -40.0 38.5 -40.05 38.4 -40.05 38.3 -40.05 38.2 -40.05 38.1 -40.05 38.0 -40.0 37.9 -40.0 37.8 -40.0 37.7 -40.0 37.7 -40.0 37.55 -40.2 37.6 -40.2 37.6 -40.3 37.65 -40.4 37.65 -40.5 37.7 -40.6 37.7 -40.75 37.7 -40.85 37.75 -40.95 37.75 -41.05 37.75 -41.15 37.75 -41.25 37.75 -41.35 37.75 -41.45 37.75 -41.6 37.7 -41.7 37.7 -41.8 37.7 -41.9 37.65 -42.05 37.65 -42.15 37.6 -42.25 37.55 -42.35 37.5 -42.5 37.45 -42.55 37.35 -42.65 37.3 -42.75 37.2 -42.8 37.1 -42.85 37.0 -42.95 36.9 -43.0 36.8 -43.05 36.7 -43.05 36.55 -43.1 36.45 -43.1 36.3 -43.1 36.2 -43.1 36.1 -43.1 36.0 -43.1 35.9 -43.1 35.8 -43.1 35.7 -43.1 35.6 -43.05 35.45 -43.05 35.4 -43.05 35.25 -43.0 35.2 -43.0 35.05 -42.95 35.0 -42.95 34.85 -42.9 34.8 -42.9 34.65 -42.85 34.55 -42.75 34.25 -42.8 34.25 -42.85 34.25 -42.9 34.25 -42.9 34.2 -42.95 34.2 -43.0 34.2 -43.05 34.2 -43.05 34.2 -43.1 34.2 -43.15 34.2 -43.8 34.2 -44.0 34.2 -44.1 34.2 -44.15 34.2 -44.25 34.15 -44.3 34.15 -44.4 34.1 -44.45 34.1 -44.5 34.05 -44.55 34.0 -44.6 33.95 -44.65 33.9 -44.7 33.85 -44.75 33.8 -44.8 33.75 -44.85 33.65 -44.85 33.6 -44.9 33.5 -44.9 33.45 -44.95 33.4 -44.95 33.35 -44.95 33.3 -44.95 33.25 -45.0 33.25 -45.0 33.2 -45.0 33.15 -45.05 33.1 -45.05 33.05 -45.05 33.0 -45.05 32.95 -45.05 32.9 -45.05 32.85 -45.1 32.8 -45.1 32.75 -45.15 32.05 -45.15 30.9 -45.15 30.8 -45.15 30.75 -45.15 30.7 -45.15 30.6 -45.1 30.55 -45.1 30.5 -45.05 30.45 -45.05 30.4 -45.0 30.35 -44.95 30.3 -44.9 30.25 -44.85 30.2 -44.8 30.15 -44.75 30.1 -44.7 30.1 -44.6 30.05 -44.3 29.95 -43.8 29.8 -43.75 29.8 -43.7 29.75 -43.6 29.75 -43.55 29.7 -43.5 29.7 -43.45 29.7 -43.4 29.65 -43.35 29.65 -43.3 29.6 -43.2 29.6 -43.15 29.6 -43.1 29.55 -43.05 29.55 -43.0 29.55 -42.95 29.55 -42.85 29.5 -42.8 29.5 -42.7 29.45 -42.65 29.45 -42.55 29.4 -42.5 29.4 -42.45 29.35 -42.4 29.35 -42.3 29.3 -42.25 29.25 -42.2 29.2 -42.15 29.15 -42.1 29.1 -42.05 29.05 -42.0 29.0 -41.9 28.95 -41.85 28.9 -41.75 28.75 -41.6 28.65 -41.5 28.5 -41.35 28.4 -41.2 28.35 -41.05 28.25 -40.95 28.2 -40.8 28.15 -40.6 28.1 -40.45 28.05 -40.3 28.0 -40.15 28.0 -39.95 28.0 -39.8 28.0 -39.6 28.0 -39.45 28.0 -39.25 28.0 -39.1 28.05 -38.95 28.1 -38.8 28.15 -38.65 28.2 -38.5 28.25 -38.35 28.35 -38.25 28.4 -38.1 28.5 -38.0 28.6 -37.85 28.7 -37.75 28.8 -37.65 28.95 -37.55 29.05 -37.45 29.2 -37.35 29.35 -37.2 29.6 -37.05 29.8 -36.9 30.05 -36.75 30.3 -36.6 30.5 -36.45 30.75 -36.3 30.95 -36.1 31.2 -35.95 31.4 -35.8 31.6 -35.6 31.85 -35.45 32.05 -35.3 32.25 -35.1 32.5 -34.95 32.7 -34.75 32.9 -34.6 33.1 -33.65 33.85 -33.6 33.85 -33.55 33.9 -33.55 33.9 -33.5 33.9 -33.45 33.9 -33.4 33.9 -33.35 33.9 -33.3 33.9 -33.25 33.9 -33.15 33.9 -33.1 33.95 -33.05 33.95 -32.95 33.95 -32.9 33.95 -32.8 33.95 -32.75 34.0 -32.7 34.0 -32.6 34.0 -32.55 34.05 -32.5 34.05 -32.4 34.1 -32.35 34.1 -32.3 34.15 -32.2 34.15 -31.7 34.35 -30.3 34.65 -30.05 34.7 -29.75 34.75 -29.45 34.8 -29.2 34.8 -28.9 34.85 -28.65 34.85 -28.35 34.85 -28.05 34.85 -27.8 34.85 -27.5 34.85 -27.25 34.85 -26.95 34.85 -26.7 34.85 -26.35 34.85 -26.15 34.85 -25.8 34.85 -25.65 34.85 -25.45 34.8 -25.3 34.8 -25.1 34.8 -24.95 34.75 -24.8 34.7 -24.6 34.7 -24.45 34.65 -24.3 34.6 -24.1 34.6 -23.95 34.55 -23.8 34.5 -23.65 34.45 -23.45 34.4 -23.3 34.35 -23.15 34.3 -23.1 34.3 -23.05 34.25 -23.0 34.25 -22.95 34.2 -22.95 34.2 -22.9 34.15 -22.85 34.15 -22.8 34.1 -22.75 34.1 -22.7 34.05 -22.7 34.05 -22.65 34.0 -22.6 34.0 -22.55 33.95 -22.55 33.9 -22.5 33.9 -22.35 33.75 -22.2 33.65 -22.05 33.55 -21.9 33.45 -21.75 33.35 -21.55 33.3 -21.4 33.25 -21.25 33.2 -21.05 33.15 -20.9 33.15 -20.7 33.1 -20.5 33.1 -20.35 33.1 -20.15 33.15 -19.95 33.15 -19.75 33.2 -19.65 33.2 -19.55 33.25 -19.45 33.25 -19.35 33.3 -19.25 33.35 -19.15 33.4 -19.05 33.4 -18.95 33.45 -18.85 33.5 -18.75 33.55 -18.65 33.65 -18.6 33.7 -18.5 33.75 -18.4 33.8 -18.35 33.9 -18.25 33.95 -18.2 34.0 -17.95 34.15 -17.1 34.65 -17.1 34.65 -16.85 34.85 -16.65 35.0 -16.4 35.2 -16.2 35.35 -15.95 35.55 -15.7 35.7 -15.5 35.9 -15.25 36.05 -15.0 36.2 -14.75 36.35 -14.55 36.5 -14.3 36.65 -14.05 36.8 -13.8 36.95 -13.55 37.1 -13.3 37.25 -12.85 37.5 -11.4 38.0 -10.85 38.2 -9.7 38.6 -9.65 38.6 -9.65 38.6 -9.6 38.6 -9.55 38.6 -9.5 38.6 -9.45 38.6 -9.4 38.6 -9.4 38.6 -9.35 38.6 -9.3 38.6 -9.15 38.55 -9.05 38.55 -8.9 38.55 -8.75 38.55 -8.6 38.5 -8.5 38.5 -8.35 38.5 -8.25 38.55 -8.1 38.55 -7.95 38.55 -7.85 38.6 -7.7 38.65 -7.55 38.65 -7.45 38.7 -7.3 38.75 -7.2 38.8 -7.05 38.85 -6.9 38.9 -6.8 38.95 -6.65 39.0 -6.5 39.05 -6.35 39.1 -6.2 39.15 -6.05 39.2 -5.95 39.25 -5.8 39.25 -5.65 39.3 -5.5 39.35 -5.35 39.35 -5.2 39.4 -5.05 39.4 -4.9 39.4 -3.45 39.6 -2.5 39.65 -1.8 39.65 0.0 39.55 1.0 39.5 2.25 39.35 2.45 39.35 2.6 39.3 2.75 39.3 2.9 39.3 3.1 39.25 3.25 39.25 3.4 39.25 3.6 39.2 3.75 39.2 3.9 39.15 4.1 39.1 4.25 39.1 4.4 39.05 4.6 39.0 4.75 38.95 4.9 38.9 5.0 38.9 5.05 38.85 5.15 38.85 5.25 38.8 5.35 38.8 5.4 38.75 5.5 38.7 5.55 38.7 5.65 38.65 5.75 38.6 5.8 38.6 5.9 38.55 5.95 38.5 6.05 38.45 6.1 38.4 6.2 38.35 6.25 38.3 6.5 38.15 7.4 37.65 7.65 37.4 7.75 37.3 7.9 37.2 8.0 37.15 8.15 37.05 8.3 37.0 8.4 36.95 8.55 36.9 8.7 36.85 8.85 36.8 9.0 36.8 9.1 36.75 9.25 36.75 9.4 36.75 9.55 36.8 9.7 36.8 9.85 36.8 13.4 37.45 14.95 37.9 15.9 38.2 16.55 38.45 16.65 38.5 16.8 38.55 16.9 38.6 17.05 38.6 17.15 38.65 17.3 38.7 17.45 38.7 17.55 38.75 17.7 38.75 17.8 38.8 17.95 38.8 18.05 38.85 18.2 38.85 18.35 38.85 18.45 38.9 18.6 38.9 20.35 39.05 21.3 39.1 21.4 39.1 21.55 39.1 21.65 39.1 21.75 39.1 21.85 39.1 22.0 39.1 22.1 39.1 22.2 39.1 22.35 39.1 22.45 39.05 22.55 39.05 22.7 39.05 22.8 39.05 22.9 39.05 23.05 39.05 23.15 39.0 23.9 38.95 25.5 38.7 25.8 38.65 26.55 38.5 26.6 38.5 26.65 38.45 26.65 38.45 26.7 38.45 26.75 38.4 26.75 38.4 26.8 38.4 26.8 38.35 26.9 38.3 26.95 38.25 27.05 38.2 27.1 38.15 27.2 38.1 27.3 38.05 27.35 38.0 27.45 37.95 27.55 37.95 27.65 37.9 27.7 37.85 27.8 37.85 27.9 37.8 28.0 37.8 28.05 37.75 28.15 37.75 28.3 37.7 29.3 37.3 29.5 37.2 29.65 37.15 29.85 37.05 30.0 37.0 30.2 36.9 30.4 36.85 30.55 36.75 30.75 36.65 30.9 36.6 31.1 36.5 31.25 36.4 31.45 36.3 31.6 36.2 31.75 36.1 31.95 36.0 32.1 35.9 32.15 35.85 32.15 35.85 32.2 35.8 32.25 35.8 32.25 35.75 32.3 35.7 32.3 35.7 32.3 35.65 32.35 35.6 32.35 35.55 32.4 35.3 32.5 35.05 32.6 34.85 32.7 34.6 32.85 34.4 33.0 34.25 33.2 34.05 33.4 33.9 33.6 33.75 33.8 33.65 34.05 33.55 34.3 33.45 34.55 33.4 34.85 33.4 35.1 33.35 35.4 33.4 35.6 33.4 35.75 33.45 35.95 33.5 36.1 33.55 36.25 33.6 36.4 33.7 36.55 33.75 36.7 33.85 36.8 33.95 36.95 34.05 37.05 34.15 37.2 34.3 37.3 34.45 37.4 34.6 37.5 34.75 37.55 34.9 37.6 34.95 37.6 34.95 37.65 35.0 37.65 35.05 37.7 35.05 37.7 35.1 37.75 35.1 37.8 35.15 37.85 35.15 37.85 35.15 38.15 35.25 38.5 35.35 38.85 35.45 39.15 35.55 39.5 35.65 39.8 35.7 40.15 35.8 40.5 35.9 40.8 35.95 41.15 36.0 41.5 36.1 41.8 36.15 42.15 36.2 42.5 36.25 42.8 36.3 43.15 36.35 43.5 36.4 44.0 36.45 44.65 36.5 44.9 36.5 45.05 36.5 45.85 36.35 46.9 36.1 48.25 35.8 48.3 35.8 48.35 35.8 48.35 35.8 48.4 35.75 48.45 35.75 48.5 35.75 48.55 35.7 48.55 35.7 48.6 35.7 48.65 35.65 49.15 35.3 49.45 35.05 49.55 34.95 49.7 34.85 49.8 34.75 49.95 34.7 50.1 34.65 50.25 34.55 50.35 34.5 50.5 34.5 50.65 34.45 50.8 34.4 50.95 34.4 51.1 34.4 51.25 34.35 51.4 34.4 51.55 34.4 51.7 34.4 51.8 34.4 51.9 34.45 52.0 34.45 52.1 34.45 52.2 34.45 52.25 34.45 52.35 34.45 52.45 34.45 52.55 34.45 52.65 34.45 52.75 34.45 52.8 34.4 52.9 34.4 53.0 34.4 53.1 34.35 53.2 34.35 53.65 34.2 54.45 34.05 55.4 33.85 55.7 33.75 56.25 33.65 57.5 33.15 57.55 33.15 57.55 33.15 57.6 33.1 57.65 33.1 57.65 33.1 57.7 33.05 57.75 33.05 57.75 33.05 57.8 33.0 57.8 33.0 57.85 33.0 57.85 32.95 57.9 32.95 57.95 32.9 57.95 32.9 58.0 32.85 58.2 32.7 58.4 32.55 58.65 32.45 58.9 32.4 59.1 32.3 59.35 32.25 59.6 32.25 59.85 32.25 60.1 32.25 60.35 32.3 60.6 32.35 60.85 32.45 61.05 32.5 61.3 32.65 61.5 32.8 61.7 32.95 61.9 33.15 62.3 33.75 62.3 33.8 62.35 33.85 62.35 33.85 62.4 33.9 62.4 33.95 62.45 33.95 62.5 34.0 62.5 34.05 62.55 34.05 62.6 34.1 62.7 34.15 62.8 34.2 62.85 34.3 62.95 34.35 63.0 34.4 63.1 34.5 63.15 34.6 63.25 34.65 63.3 34.75 63.35 34.85 63.4 34.9 63.45 35.0 63.5 35.1 63.55 35.2 63.6 35.3 63.65 35.4 63.65 35.45 63.65 35.45 63.7 35.5 63.7 35.55 63.7 35.55 63.75 35.6 63.75 35.6 63.75 35.65 63.8 35.65 63.8 35.7 63.85 35.7 63.85 35.7 63.9 35.75 63.9 35.75 63.95 35.75 64.0 35.75 64.8 36.1 65.0 36.2 65.2 36.3 65.35 36.4 65.5 36.55 65.65 36.65 65.75 36.8 65.9 36.95 66.0 37.1 66.05 37.25 66.15 37.4 66.2 37.6 66.3 37.75 66.35 37.95 66.35 38.1 66.4 38.3 66.4 38.5 66.4 38.75 66.4 38.95 66.35 39.1 66.35 39.3 66.3 39.45 66.25 39.65 66.2 39.8 66.15 39.95 66.05 40.1 65.95 40.25 65.85 40.4 65.75 40.5 65.65 40.65 65.5 40.75 65.35 40.9 65.2 41.0 65.05 41.1 65.0 41.15 64.9 41.15 64.85 41.2 64.75 41.25 64.7 41.25 64.65 41.3 64.55 41.3 64.5 41.3 64.4 41.35 64.35 41.35 64.25 41.35 64.2 41.4 64.1 41.4 64.05 41.4 63.95 41.4 63.9 41.4 63.85 41.4 63.8 41.4 63.8 41.4 63.75 41.4 63.7 41.4 63.65 41.4 63.65 41.4 63.6 41.4 63.55 41.4 63.55 41.4 63.5 41.4 63.45 41.4 63.45 41.45 63.4 41.45 63.4 41.45 63.35 41.5 63.35 41.5 63.35 41.5 63.3 41.55 63.3 41.55 63.3 41.6 63.25 41.65 63.25 41.65 63.25 41.7 63.2 41.85 63.15 42.0 63.05 42.1 63.0 42.25 62.9 42.35 62.8 42.45 62.7 42.55 62.6 42.6 62.5 42.7 62.4 42.75 62.3 42.8 62.15 42.85 62.0 42.9 61.85 42.9 61.7 42.95 61.55 42.95 61.3 42.95 60.9 42.95 60.8 42.95 60.7 42.95 60.6 42.9 60.5 42.9 60.4 42.9 60.3 42.85 60.25 42.85 60.15 42.8 60.05 42.75 59.95 42.75 59.85 42.7 59.8 42.65 59.7 42.6 59.6 42.55 59.5 42.5 59.45 42.4 59.45 42.4 59.25 42.25 59.2 42.2 59.15 42.2 59.1 42.2 59.1 42.2 59.05 42.15 59.0 42.15 59.0 42.15 58.95 42.15 58.9 42.2 58.9 42.2 58.85 42.2 58.85 42.25 58.8 42.25 58.8 42.3 58.75 42.35 58.75 42.35 58.75 42.4 58.7 42.4 58.7 42.45 58.7 42.5 58.65 42.5 58.65 42.55 58.65 42.6 58.65 42.6 58.6 42.65 58.6 42.7 58.6 42.7 58.6 42.75 58.6 42.75 58.6 42.8 58.55 42.85 58.55 42.85 58.5 43.05 58.45 43.2 58.35 43.4 58.3 43.55 58.2 43.75 58.1 43.85 58.0 44.0 57.9 44.15 57.75 44.3 57.6 44.4 57.5 44.5 57.35 44.6 57.15 44.7 57.0 44.75 56.85 44.85 56.65 44.9 56.5 44.95 55.8 45.0 55.75 45.0 55.7 45.0 55.65 45.0 55.65 45.05 55.6 45.05 55.55 45.1 55.55 45.1 55.5 45.15 55.4 45.25 55.3 45.4 55.25 45.5 55.15 45.6 55.05 45.7 54.95 45.8 54.8 45.9 54.7 46.0 54.6 46.1 54.5 46.2 54.35 46.25 54.25 46.35 54.15 46.45 54.0 46.5 53.9 46.6 53.75 46.65 53.7 46.65 53.7 46.7 53.65 46.7 53.6 46.75 53.6 46.75 53.55 46.8 53.55 46.85 53.5 46.85 53.5 46.9 53.45 46.9 53.45 46.95 53.45 47.0 53.4 47.0 53.4 47.05 53.4 47.1 53.35 47.15 53.3 47.3 53.25 47.4 53.2 47.55 53.1 47.65 53.05 47.75 52.95 47.8 52.9 47.9 52.8 48.0 52.7 48.05 52.6 48.1 52.45 48.15 52.35 48.2 52.25 48.25 52.1 48.25 51.95 48.3 51.8 48.3 51.7 48.3 51.6 48.3 51.45 48.3 51.35 48.3 51.25 48.25 51.15 48.25 51.05 48.2 50.95 48.2 50.85 48.15 50.75 48.1 50.65 48.1 50.55 48.05 50.45 48.0 50.35 47.95 50.25 47.85 50.15 47.8 50.1 47.8 50.1 47.75 50.05 47.75 50.05 47.75 50.0 47.7 49.95 47.7 49.95 47.7 49.9 47.7 49.9 47.7 49.85 47.7 49.8 47.7 49.8 47.7 49.75 47.7 49.7 47.7 49.7 47.7 49.65 47.7 49.1 47.8 48.75 47.85 48.7 47.85 48.65 47.85 48.6 47.9 48.6 47.9 48.55 47.95 48.5 47.95 48.5 48.0 48.45 48.0 48.45 48.05 48.4 48.1 48.35 48.2 48.3 48.25 48.25 48.35 48.2 48.4 48.15 48.45 48.1 48.5 48.0 48.6 47.95 48.65 47.9 48.7 47.8 48.75 47.75 48.75 47.65 48.8 47.6 48.85 47.5 48.85 47.4 48.9 47.3 48.9 47.15 48.9 47.05 48.95 46.9 48.95 46.8 48.95 46.65 48.95 46.55 48.95 46.45 48.95 46.3 48.95 46.2 48.95 46.05 48.9 45.95 48.85 45.85 48.8 45.7 48.75 45.6 48.7 45.5 48.6 45.4 48.5 45.35 48.5 45.3 48.45 45.25 48.45 45.2 48.45 45.15 48.4 45.15 48.45 45.05 48.45 44.9 48.45 44.8 48.5 44.7 48.5 44.6 48.5 44.45 48.45 44.35 48.45 44.25 48.45 44.15 48.45 44.0 48.4 43.9 48.4 43.8 48.35 43.7 48.35 43.6 48.3 43.5 48.3 43.4 48.25 43.3 48.35 43.1 48.6 42.9 48.85 42.8 48.95 42.65 49.1 42.5 49.2 42.35 49.3 42.2 49.4 42.0 49.45 41.85 49.55 41.7 49.6 41.5 49.65 41.35 49.65 41.15 49.7 41.0 49.7 40.8 49.7 40.6 49.65 40.45 49.65 40.25 49.6 40.05 49.55 40.0 49.55 40.0 49.55 39.95 49.5 39.9 49.5 39.9 49.5 39.85 49.5 39.8 49.5 39.8 49.5 39.75 49.5 39.7 49.5 39.7 49.5 39.65 49.55 39.6 49.55 39.6 49.55 39.55 49.55 39.5 49.6 39.4 49.65 39.3 49.7 39.2 49.75 39.1 49.8 39.0 49.8 38.9 49.85 38.8 49.9 38.7 49.9 38.6 49.9 38.5 49.9 38.35 49.95 38.25 49.95 38.15 49.95 38.05 49.95 37.95 49.9 37.8 49.9 37.75 49.9 37.7 49.9 37.7 49.9 37.65 49.9 37.6 49.9 37.6 49.9 37.55 49.9 37.5 49.9 37.45 49.95 37.45 49.95 37.4 49.95 37.35 49.95 37.35 49.95 37.3 50.0 37.25 50.0 37.2 50.0 37.15 50.0 37.1 50.05 37.05 50.05 37.0 50.1 36.95 50.1 36.9 50.1 36.85 50.15 36.8 50.15 36.75 50.2 36.7 50.2 36.65 50.2 36.55 50.2 36.5 50.25 36.45 50.25 36.4 50.25 36.35 50.25 36.15 50.25 35.95 50.25 35.8 50.25 35.6 50.25 35.45 50.2 35.3 50.15 35.1 50.1 34.95 50.05 34.8 49.95 34.65 49.85 34.55 49.75 34.4 49.65 34.3 49.5 34.15 49.35 34.05 49.2 33.95 49.05 33.95 49.0 33.8 48.85 33.75 48.75 33.65 48.65 33.6 48.6 33.55 48.55 33.5 48.55 33.5 48.55 33.45 48.55 33.4 48.55 33.35 48.6 33.3 48.65 33.25 48.65 33.25 48.7 33.2 48.7 33.2 48.75 33.15 48.75 33.15 48.8 33.1 48.8 33.05 48.85 33.05 48.85 33.0 48.9 33.0 48.9 32.95 48.95 32.95 48.95 32.95 49.0 32.9 49.0 32.9 49.05 32.75 49.25 32.5 49.4 32.3 49.55 32.05 49.65 31.8 49.75 31.55 49.8 31.25 49.85 31.0 49.85 30.7 49.8 30.45 49.75 30.15 49.7 29.9 49.55 29.65 49.4 29.45 49.2 29.2 49.0 29.0 48.75 28.95 48.6 28.6 48.2 28.5 48.25 28.45 48.25 28.4 48.25 28.35 48.3 28.35 48.3 28.3 48.35 28.25 48.35 28.25 48.4 28.25 48.4 28.25 48.45 28.2 48.45 28.2 48.5 28.2 48.55 28.25 48.6 28.25 48.65 28.25 48.7 28.25 48.8 28.3 48.9 28.3 49.0 28.3 49.1 28.3 49.25 28.3 49.35 28.3 49.45 28.3 49.55 28.3 49.65 28.3 49.75 28.3 49.85 28.25 49.95 28.25 50.05 28.2 50.15 28.2 50.25 28.15 50.35 28.05 50.55 28.0 50.75 27.9 50.9 27.75 51.1 27.65 51.25 27.5 51.35 27.4 51.5 27.25 51.6 27.1 51.7 26.9 51.8 26.75 51.9 26.55 51.95 26.4 52.0 26.2 52.05 26.0 52.1 25.75 52.1 25.65 52.1 25.55 52.1 25.5 52.15 25.4 52.15 25.3 52.15 25.2 52.15 25.1 52.15 25.05 52.1 24.95 52.1 24.85 52.1 24.75 52.1 24.65 52.1 24.55 52.05 24.5 52.05 24.4 52.0 24.3 52.0 24.25 52.0 24.25 52.0 24.2 51.95 24.15 51.95 24.1 51.95 24.1 52.0 24.0 52.05 23.9 52.05 23.8 52.05 23.7 52.1 23.6 52.1 23.45 52.1 23.35 52.1 23.25 52.15 23.15 52.15 23.05 52.15 22.9 52.15 22.85 52.15 22.7 52.15 22.6 52.2 22.5 52.2 22.4 52.2 22.3 52.2 22.25 52.2 22.15 52.25 22.05 52.25 22.0 52.25 21.9 52.25 21.8 52.25 21.75 52.25 21.65 52.25 21.55 52.25 21.45 52.25 21.4 52.25 21.3 52.25 21.2 52.25 21.15 52.25 21.05 52.2 21.0 52.2 20.95 52.2 20.9 52.2 20.85 52.2 20.85 52.2 20.8 52.25 20.75 52.25 20.7 52.25 20.6 52.3 20.5 52.3 20.4 52.3 20.25 52.35 20.15 52.35 20.05 52.35 19.95 52.35 19.85 52.35 19.75 52.35 19.65 52.35 19.55 52.35 19.45 52.35 19.3 52.35 19.2 52.3 19.1 52.3 19.0 52.25 18.9 52.25 18.8 52.2 18.7 52.2 18.65 52.15 18.55 52.1 18.45 52.05 18.35 52.05 18.3 52.0 18.2 51.95 18.1 51.85 18.05 51.8 17.95 51.75 17.9 51.7 17.85 51.6 17.75 51.55 17.7 51.5 17.65 51.45 17.55 51.3 17.45 51.2 17.4 51.15 16.6 51.4 16.3 51.45 16.1 51.5 15.95 51.5 15.75 51.5 15.6 51.45 15.45 51.45 15.3 51.4 15.15 51.4 15.0 51.35 14.85 51.25 14.7 51.2 14.55 51.1 14.4 51.0 14.3 50.9 14.15 50.75 14.05 50.65 13.95 50.5 13.95 50.5 13.9 50.45 13.85 50.4 13.8 50.35 13.75 50.3 13.7 50.25 13.65 50.2 13.6 50.2 13.6 50.2 13.55 50.2 13.5 50.2 13.45 50.2 13.4 50.25 13.4 50.3 13.35 50.35 13.3 50.4 13.25 50.45 13.2 50.55 13.2 50.6 13.15 50.7 13.1 50.85 13.05 50.9 13.0 51.0 12.95 51.1 12.9 51.2 12.8 51.3 12.75 51.4 12.65 51.45 12.6 51.55 12.5 51.6 12.4 51.65 12.35 51.7 12.25 51.75 12.15 51.8 12.05 51.85 11.9 51.85 11.8 51.9 11.7 51.9 11.6 51.9 11.5 51.95 11.4 51.95 11.3 51.95 11.15 51.95 11.05 51.95 10.95 51.95 10.85 51.95 10.75 51.95 10.65 51.95 10.55 51.95 10.45 51.95 10.35 51.95 10.25 51.9 10.15 51.9 10.05 51.85 9.9 51.85 9.8 51.8 9.7 51.75 9.55 51.7 9.45 51.65 9.35 51.6 9.25 51.55 9.15 51.45 9.1 51.4 9.0 51.3 8.9 51.2 8.85 51.1 8.8 51.0 8.7 50.9 8.65 50.8 8.6 50.7 8.35 50.05 8.35 49.95 8.3 49.9 8.3 49.85 8.25 49.8 8.25 49.75 8.2 49.7 8.2 49.7 8.15 49.7 8.1 49.65 8.1 49.65 8.05 49.65 8.0 49.65 8.0 49.7 7.95 49.7 7.9 49.7 7.85 49.75 7.8 49.8 7.75 49.85 7.65 49.9 7.6 49.95 7.5 50.0 7.45 50.05 7.35 50.1 7.3 50.15 7.25 50.2 7.15 50.25 7.1 50.3 7.05 50.4 7.0 50.45 6.9 50.5 6.85 50.55 6.8 50.6 6.7 50.7 6.5 50.9 6.3 51.05 6.1 51.2 5.9 51.3 5.7 51.45 5.5 51.55 5.3 51.65 5.05 51.7 4.85 51.75 4.6 51.8 4.35 51.8 4.15 51.8 3.9 51.8 3.65 51.75 3.4 51.7 3.15 51.6 3.1 51.6 3.0 51.55 2.95 51.5 2.85 51.5 2.8 51.45 2.75 51.4 2.65 51.4 2.6 51.35 2.55 51.3 2.5 51.25 2.4 51.2 2.35 51.15 2.3 51.1 2.25 51.05 2.2 51.0 2.15 50.95 2.1 50.9 1.7 50.6 1.2 50.3 0.85 50.05 0.8 50.0 0.75 50.0 0.7 49.95 0.65 49.95 0.6 49.9 0.55 49.9 0.55 49.9 0.5 49.9 0.45 49.9 0.4 49.95 0.4 49.95 0.35 50.0 0.3 50.05 0.3 50.1 0.25 50.15 0.25 50.2 0.2 50.3 0.1 50.6 0.05 50.7 0.05 50.75 0.0 50.8 -0.05 50.85 -0.1 50.95 -0.15 51.0 -0.2 51.05 -0.25 51.1 -0.3 51.15 -0.4 51.15 -0.45 51.2 -0.5 51.25 -0.6 51.25 -0.65 51.3 -0.75 51.3 -0.85 51.3 -1.0 51.3 -1.15 51.35 -1.35 51.35 -1.5 51.35 -1.65 51.3 -1.8 51.3 -1.95 51.25 -2.1 51.25 -2.25 51.2 -2.35 51.15 -2.5 51.1 -2.65 51.0 -2.8 50.95 -2.9 50.85 -3.05 50.75 -3.15 50.6 -3.2 50.6 -3.25 50.55 -3.25 50.55 -3.3 50.5 L-3.3 50.5" fill="#000000" fill-rule="evenodd" stroke="none"/>
  </g>
</svg>
