<?xml version="1.0" encoding="UTF-8" standalone="no"?>
<svg xmlns:xlink="http://www.w3.org/1999/xlink" height="17.5px" width="14.8px" xmlns="http://www.w3.org/2000/svg">
  <g transform="matrix(1.0, 0.0, 0.0, 1.0, 7.45, 8.75)">
    <path d="M0.95 -12.05 Q0.9 -12.2 0.9 -12.25 0.9 -12.25 0.85 -12.3 0.85 -12.3 0.8 -12.35 0.8 -12.4 0.8 -12.45 0.75 -12.5 0.7 -12.55 0.65 -12.6 0.65 -12.6 0.65 -12.65 0.6 -12.7 0.6 -12.7 0.55 -12.75 0.55 -12.8 0.55 -12.8 0.4 -12.95 0.35 -13.05 0.3 -13.1 0.15 -13.25 0.1 -13.25 -0.1 -13.35 -0.15 -13.4 -0.15 -13.4 -0.2 -13.45 -0.25 -13.45 -0.3 -13.45 -0.35 -13.45 -0.4 -13.5 -0.4 -13.5 -0.45 -13.5 -0.5 -13.55 -0.55 -13.55 -0.6 -13.55 -0.65 -13.55 -0.65 -13.55 -0.7 -13.55 -0.75 -13.55 -0.8 -13.55 -0.85 -13.6 -0.9 -13.6 -1.0 -13.6 -1.05 -13.6 -1.1 -13.55 -1.15 -13.55 -1.2 -13.55 -1.2 -13.55 -1.25 -13.55 -1.3 -13.55 -1.35 -13.5 -1.4 -13.5 -1.45 -13.45 -1.5 -13.45 -1.55 -13.45 -1.6 -13.45 -1.65 -13.45 -1.65 -13.45 -1.7 -13.4 -1.75 -13.4 -1.8 -13.4 -1.85 -13.35 -1.9 -13.35 -1.9 -13.35 -1.95 -13.35 -1.95 -13.35 -2.0 -13.35 -2.0 -13.3 -2.05 -13.3 -2.05 -13.3 -2.1 -13.3 -2.1 -13.3 -2.15 -13.25 -2.15 -13.25 -2.2 -13.25 -2.25 -13.25 -2.25 -13.2 -2.3 -13.2 -2.3 -13.2 -2.35 -13.2 -2.35 -13.15 -2.4 -13.1 -2.5 -13.05 -2.65 -12.95 -2.7 -12.9 -2.8 -12.85 -3.0 -12.75 -3.05 -12.7 -3.25 -12.5 -3.3 -12.4 -3.5 -12.25 -3.55 -12.25 -3.55 -12.2 -3.6 -12.2 -3.6 -12.15 -3.65 -12.15 -3.65 -12.1 -3.7 -12.1 -3.75 -12.05 -3.8 -12.05 -3.85 -12.0 -3.85 -12.0 -3.9 -12.0 -3.95 -11.95 -4.0 -11.95 -4.0 -11.9 -4.05 -11.9 -4.15 -11.85 -4.4 -11.75 -4.45 -11.75 -4.55 -11.75 -4.6 -11.7 -4.65 -11.7 -4.7 -11.7 -4.7 -11.7 -4.75 -11.7 -4.85 -11.7 -4.9 -11.7 -4.95 -11.7 -5.0 -11.7 -5.1 -11.7 -5.15 -11.7 -5.2 -11.7 -5.2 -11.7 -5.25 -11.7 -5.3 -11.7 -5.4 -11.7 -6.9 -12.05 -8.75 -12.45 -10.8 -12.9 -10.95 -13.0 -10.95 -13.0 -11.1 -13.0 -11.15 -13.0 -11.2 -13.05 -11.25 -13.05 -11.25 -13.05 -11.3 -13.05 -11.4 -13.05 -11.45 -13.05 -11.55 -13.05 -11.6 -13.05 -11.7 -13.05 -11.7 -13.05 -11.75 -13.05 -11.8 -13.05 -11.85 -13.05 -11.85 -13.05 -11.9 -13.0 -11.9 -13.0 -11.95 -13.0 -12.0 -13.0 -12.05 -12.95 -12.1 -12.95 -12.15 -12.9 -12.2 -12.9 -12.25 -12.9 -12.3 -12.9 -12.3 -12.85 -12.35 -12.8 -12.35 -12.8 -12.4 -12.8 -12.45 -12.8 -12.45 -12.75 -12.45 -12.75 -12.45 -12.7 -12.5 -12.7 -12.55 -12.65 -12.55 -12.6 -12.55 -12.6 -12.55 -12.55 -12.6 -12.5 -12.6 -12.5 -12.65 -12.45 -12.65 -12.45 -12.7 -12.4 -12.7 -12.35 -12.65 -12.3 -12.75 -12.25 -12.75 -12.2 -12.75 -12.1 -12.75 -12.1 -12.75 -12.05 -12.75 -12.05 -12.8 -12.0 -12.8 -11.95 -12.8 -11.9 -12.8 -11.85 -12.85 -11.8 -12.85 -11.75 -12.85 -11.75 -12.85 -11.7 -12.85 -11.65 -12.85 -11.6 -12.85 -11.55 -12.85 -11.5 -12.85 -11.45 -12.85 -11.4 -12.85 -11.35 -12.85 -11.3 -12.85 -11.25 -12.85 -11.2 -12.85 -11.2 -12.9 -11.15 -12.9 -11.1 -12.9 -11.05 -12.9 -11.0 -12.9 -11.0 -12.9 -10.95 -12.9 -10.9 -12.9 -10.85 -12.9 -10.8 -12.9 -10.75 -12.9 -10.75 -12.9 -10.7 -12.85 -10.65 -12.85 -10.6 -12.85 -10.55 -12.85 -10.5 -12.85 -10.45 -12.85 -10.4 -12.85 -10.35 -12.85 -10.35 -12.85 -10.3 -12.85 -10.25 -12.85 -10.2 -12.85 -10.15 -12.85 -10.1 -12.85 -10.05 -12.85 -10.05 -12.8 -10.0 -12.8 -9.95 -12.8 -9.9 -12.8 -9.85 -12.8 -9.85 -12.8 -9.8 -12.75 -9.75 -12.75 -9.7 -12.75 -9.7 -12.75 -9.65 -12.75 -9.6 -12.7 -9.55 -12.7 -9.55 -12.7 -9.5 -12.7 -9.45 -12.65 -9.4 -12.65 -9.4 -12.65 -9.35 -12.6 -9.3 -12.6 -9.2 -12.5 -8.75 -12.5 -8.7 -12.45 -8.7 -12.45 -8.65 -12.45 -8.6 -12.4 -8.55 -12.4 -8.55 -12.4 -8.5 -12.35 -8.45 -12.35 -8.4 -12.3 -8.4 -12.25 -8.3 -12.2 -8.15 -12.2 -8.1 -12.2 -8.0 -12.05 -7.75 -12.0 -7.7 -12.0 -7.65 -11.95 -7.6 -11.95 -7.6 -11.95 -7.55 -11.95 -7.5 -11.9 -7.45 -11.9 -7.45 -11.9 -7.4 -11.7 -7.15 -11.65 -7.1 -11.65 -7.05 -11.6 -7.0 -11.6 -6.95 -11.55 -6.95 -11.55 -6.9 -11.5 -6.85 -11.5 -6.8 -11.45 -6.8 -11.45 -6.75 -11.4 -6.7 -11.4 -6.7 -11.35 -6.65 -11.35 -6.6 -11.3 -6.6 -11.3 -6.55 -11.25 -6.55 -11.25 -6.5 -11.2 -6.5 -11.2 -6.45 -11.15 -6.45 -11.1 -6.4 -11.1 -6.4 -11.05 -6.35 -11.05 -6.35 -11.0 -6.3 -10.95 -6.3 -10.95 -6.25 -10.9 -6.25 -10.85 -6.25 -10.85 -6.2 -10.8 -6.2 -10.75 -6.2 -10.7 -6.15 -10.65 -6.15 -10.65 -6.15 -10.6 -6.1 -10.55 -6.1 -10.45 -6.05 -10.3 -6.0 -10.3 -6.0 -10.25 -6.0 -10.2 -6.0 -10.2 -6.0 -10.15 -6.0 -10.1 -6.0 -10.05 -6.0 -9.95 -6.0 -9.9 -6.05 -9.85 -6.05 -9.8 -6.05 -9.7 -6.05 -9.65 -6.1 -9.6 -6.1 -9.55 -6.15 -9.55 -6.15 -9.5 -6.15 -9.45 -6.15 -9.4 -6.15 -9.4 -6.15 -9.35 -6.15 -9.3 -6.2 -9.2 -6.25 -9.05 -6.3 -9.05 -6.3 -9.0 -6.3 -9.0 -6.35 -8.95 -6.35 -8.9 -6.4 -8.9 -6.4 -8.85 -6.45 -8.85 -6.45 -8.8 -6.5 -8.7 -6.55 -8.55 -6.6 -8.55 -6.6 -8.5 -6.65 -8.45 -6.65 -8.45 -6.7 -8.4 -6.7 -8.35 -6.75 -8.35 -6.75 -8.3 -6.8 -8.3 -6.8 -8.25 -6.8 -8.2 -6.85 -8.2 -6.85 -8.15 -6.9 -8.05 -6.95 -8.05 -6.95 -8.0 -7.1 -7.95 -7.15 -7.95 -7.15 -7.9 -7.2 -7.85 -7.2 -7.85 -7.25 -7.8 -7.25 -7.8 -7.25 -7.75 -7.3 -7.65 -7.35 -7.5 -7.5 -7.2 -7.75 -7.2 -7.75 -7.1 -7.85 -6.8 -8.0 -6.7 -8.1 -6.45 -8.25 -6.4 -8.25 -6.4 -8.3 -6.35 -8.3 -6.35 -8.35 -6.3 -8.35 -6.25 -8.4 -6.25 -8.4 -6.2 -8.45 -6.2 -8.45 -6.15 -8.45 -6.15 -8.5 -6.1 -8.5 -6.1 -8.5 -6.05 -8.55 -6.05 -8.55 -6.0 -8.55 -5.95 -8.6 -5.95 -8.6 -5.9 -8.65 -5.9 -8.65 -5.85 -8.65 -5.8 -8.7 -5.8 -8.7 -5.75 -8.75 -5.7 -8.75 -5.7 -8.75 -5.65 -8.8 -5.6 -8.8 -5.6 -8.85 -5.55 -8.85 -5.5 -8.85 -5.45 -8.85 -5.4 -8.9 -5.4 -8.9 -5.35 -8.95 -5.35 -8.95 -5.3 -9.0 -5.25 -9.0 -5.25 -9.05 -5.2 -9.05 -5.15 -9.1 -5.15 -9.1 -5.1 -9.15 -5.05 -9.15 -5.0 -9.15 -5.0 -9.2 -4.95 -9.2 -4.9 -9.25 -5.45 -7.45 -6.0 -5.25 -6.0 -5.2 -6.05 -5.15 -6.05 -5.1 -6.05 -5.05 -6.1 -5.05 -6.1 -5.0 -6.1 -4.95 -6.1 -4.9 -6.15 -4.85 -6.15 -4.8 -6.15 -4.75 -6.15 -4.7 -6.2 -4.65 -6.2 -4.6 -6.2 -4.55 -6.2 -4.5 -6.2 -4.45 -6.25 -4.4 -6.25 -4.35 -6.25 -4.35 -6.25 -4.3 -6.3 -4.25 -6.3 -4.2 -6.3 -4.15 -6.3 -4.1 -6.35 -4.05 -6.35 -4.0 -6.35 -3.95 -6.35 -3.9 -6.35 -3.9 -6.4 -3.85 -6.4 -3.8 -6.55 -3.3 -6.55 -3.05 -6.55 -3.0 -6.6 -2.95 -6.6 -2.9 -6.6 -2.85 -6.65 -2.8 -6.65 -2.75 -6.65 -2.75 -6.7 -2.7 -6.7 -2.65 -6.7 -2.6 -6.7 -2.55 -6.7 -2.5 -6.75 -2.45 -6.75 -2.4 -6.75 -2.35 -6.75 -2.3 -6.85 -1.9 -6.95 -1.65 -7.0 -1.4 -7.05 -0.9 -7.05 -0.85 -7.1 -0.8 -7.1 -0.75 -7.1 -0.7 -7.15 -0.7 -7.15 -0.65 -7.15 -0.6 -7.15 -0.55 -7.2 -0.5 -7.2 -0.45 -7.2 -0.45 -7.2 -0.4 -7.25 -0.35 -7.25 -0.3 -7.25 -0.25 -7.25 -0.25 -7.3 0.0 -7.35 0.5 -6.75 0.65 -5.75 1.0 -5.55 -0.05 -5.15 -2.4 -4.55 -6.05 -4.35 -7.15 -4.3 -7.05 -4.25 -6.9 -4.25 -6.9 -4.15 -6.75 -4.15 -6.7 -4.1 -6.65 -4.1 -6.6 -4.1 -6.55 -4.05 -6.55 -4.05 -6.5 -4.05 -6.45 -4.0 -6.4 -4.0 -6.35 -4.0 -6.3 -4.0 -6.3 -4.0 -6.25 -3.95 -6.15 -3.85 -6.0 -3.85 -5.95 -3.85 -5.9 -3.85 -5.85 -3.85 -5.85 -3.8 -5.8 -3.8 -5.75 -3.8 -5.7 -3.75 -5.7 -3.75 -5.65 -3.75 -5.6 -3.7 -5.55 -3.7 -5.55 -3.7 -5.5 -3.65 -5.45 -3.65 -5.4 -3.65 -5.35 -3.65 -5.3 -3.65 -5.3 -3.65 -5.25 -3.6 -5.2 -3.6 -5.15 -3.55 -5.1 -3.55 -5.1 -3.55 -5.05 -3.55 -5.0 -3.5 -4.95 -3.5 -4.95 -3.5 -4.9 -3.5 -4.85 -3.5 -4.8 -3.45 -4.8 -3.45 -4.75 -3.45 -4.7 -3.45 -4.65 -3.45 -4.6 -3.4 -4.6 -3.4 -4.4 -3.3 -3.9 -3.3 -3.85 -3.25 -3.85 -3.25 -3.8 -3.25 -3.8 -3.25 -3.75 -3.25 -3.7 -3.2 -3.7 -3.2 -3.65 -3.2 -3.6 -3.2 -3.6 -3.2 -3.55 -3.2 -3.5 -3.2 -3.45 -3.2 -3.45 -3.2 -3.4 -3.2 -3.35 -3.15 -3.15 -3.05 -2.75 -3.05 -2.7 -3.05 -2.7 -3.05 -2.65 -3.05 -2.6 -3.0 -2.6 -3.0 -2.55 -3.0 -2.5 -3.0 -2.5 -3.0 -2.45 -3.0 -2.4 -3.0 -2.4 -3.0 -2.35 -3.0 -2.3 -3.0 -2.25 -3.0 -2.25 -3.0 -2.2 -3.0 -2.15 -3.0 -2.15 -2.95 -2.1 -2.95 -2.05 -2.95 -2.05 -2.95 -2.0 -2.95 -1.95 -2.95 -1.95 -2.95 -1.9 -2.95 -1.85 -2.95 -1.85 -2.95 -1.8 -2.95 -1.75 -2.95 -1.7 -2.95 -1.7 -2.95 -1.65 -2.9 -1.3 -2.85 -1.15 -2.85 -1.0 -2.85 -0.65 -1.9 -0.95 -1.45 -1.1 -1.45 -1.25 -1.45 -1.6 -1.45 -1.65 -1.45 -1.65 -1.45 -1.7 -1.45 -1.75 -1.45 -1.8 -1.45 -1.8 -1.45 -1.85 -1.45 -1.9 -1.45 -1.95 -1.45 -1.95 -1.5 -2.0 -1.5 -2.05 -1.5 -2.1 -1.5 -2.1 -1.5 -2.15 -1.5 -2.2 -1.5 -2.35 -1.5 -2.75 -1.5 -2.8 -1.5 -2.8 -1.55 -2.85 -1.55 -2.9 -1.55 -2.95 -1.55 -3.0 -1.55 -3.0 -1.55 -3.05 -1.55 -3.1 -1.55 -3.15 -1.55 -3.15 -1.55 -3.2 -1.55 -3.25 -1.55 -3.3 -1.55 -3.3 -1.55 -3.35 -1.6 -3.5 -1.7 -4.05 -1.7 -4.1 -1.7 -4.15 -1.7 -4.2 -1.75 -4.2 -1.75 -4.25 -1.75 -4.3 -1.75 -4.35 -1.75 -4.4 -1.75 -4.45 -1.75 -4.45 -1.8 -4.5 -1.8 -4.55 -1.8 -4.6 -1.8 -4.65 -1.8 -4.65 -1.8 -4.7 -1.9 -5.15 -2.0 -5.45 -2.0 -5.5 -2.0 -5.5 -2.05 -5.55 -2.05 -5.6 -2.05 -5.65 -2.05 -5.7 -2.05 -5.7 -2.1 -5.75 -2.1 -5.8 -2.1 -5.85 -2.1 -5.9 -2.15 -5.95 -2.15 -6.0 -2.15 -6.0 -2.15 -6.05 -2.2 -6.1 -2.25 -6.25 -2.3 -6.5 -2.3 -6.55 -2.3 -6.55 -2.3 -6.6 -2.35 -6.6 -2.35 -6.65 -2.35 -6.7 -2.35 -6.75 -2.35 -6.8 -2.4 -6.85 -2.45 -6.95 -2.5 -7.1 -2.5 -7.1 -2.5 -7.15 -2.55 -7.2 -2.55 -7.25 -2.55 -7.25 -2.55 -7.3 -2.6 -7.35 -2.6 -7.35 -2.6 -7.4 -2.65 -7.45 -2.7 -7.55 -2.75 -7.65 -2.75 -7.7 -2.75 -7.75 -2.75 -7.75 -2.75 -7.8 -2.75 -7.85 -2.75 -7.9 -2.8 -7.95 -2.8 -7.95 -2.8 -8.0 -2.85 -8.1 -2.95 -8.25 -2.95 -8.3 -3.05 -8.55 -3.0 -8.55 -2.95 -8.45 -2.85 -8.45 -2.8 -8.4 -2.8 -8.35 -2.75 -8.35 -2.75 -8.3 -2.7 -8.3 -2.65 -8.3 -2.6 -8.25 -2.6 -8.25 -2.55 -8.2 -2.5 -8.15 -2.45 -8.15 -2.4 -8.1 -2.4 -8.1 -2.35 -8.1 -2.35 -8.05 -2.3 -8.05 -2.25 -8.0 -2.25 -8.0 -2.2 -8.0 -2.15 -7.95 -2.15 -7.95 -2.1 -7.95 -2.05 -7.95 -2.0 -7.9 -1.8 -7.85 -1.75 -7.8 -1.75 -7.8 -1.7 -7.75 -1.65 -7.75 -1.6 -7.75 -1.55 -7.7 -1.4 -7.65 -1.3 -7.65 -1.25 -7.6 -1.1 -7.55 -1.05 -7.55 -1.0 -7.55 -0.95 -7.5 -0.9 -7.5 -0.85 -7.5 -0.85 -7.45 -0.8 -7.45 -0.75 -7.45 -0.7 -7.45 -0.7 -7.45 -0.65 -7.45 -0.65 -7.4 -0.55 -7.4 -0.4 -7.4 -0.35 -7.4 -0.2 -7.4 -0.15 -7.4 -0.05 -7.4 0.1 -7.45 0.15 -7.45 0.15 -7.5 0.2 -7.5 0.25 -7.5 0.25 -7.55 0.3 -7.55 0.35 -7.6 0.35 -7.6 0.4 -7.6 0.4 -7.6 0.45 -7.65 0.45 -7.65 0.45 -7.7 0.5 -7.75 0.6 -7.85 0.6 -7.85 0.6 -7.9 0.6 -7.95 0.65 -8.0 0.7 -8.05 0.7 -8.1 0.7 -8.1 0.7 -8.15 0.75 -8.2 0.85 -8.4 0.85 -8.4 0.85 -8.45 0.85 -8.5 0.9 -8.55 0.9 -8.6 0.9 -8.65 0.9 -8.7 0.95 -8.75 0.95 -8.75 0.95 -8.8 0.95 -8.85 1.0 -8.9 1.0 -8.95 1.0 -9.0 1.0 -9.0 1.0 -9.05 1.0 -9.1 1.0 -9.1 1.15 -9.4 1.15 -9.45 1.15 -9.5 1.15 -9.55 1.2 -9.6 1.2 -9.6 1.2 -9.65 1.2 -9.7 1.2 -9.75 1.2 -9.8 1.2 -9.8 1.2 -9.85 1.2 -9.9 1.25 -9.95 1.25 -10.0 1.25 -10.05 1.25 -10.1 1.25 -10.15 1.25 -10.2 1.25 -10.2 1.25 -10.4 1.25 -10.65 1.25 -10.7 1.25 -10.7 1.25 -10.75 1.25 -10.75 1.25 -10.8 1.25 -10.85 1.25 -10.85 1.25 -10.9 1.25 -10.95 1.25 -10.95 1.25 -11.0 1.25 -11.0 1.25 -11.05 1.2 -11.1 1.2 -11.1 1.2 -11.15 1.2 -11.2 1.2 -11.25 1.2 -11.3 1.2 -11.35 1.2 -11.35 1.2 -11.4 1.2 -11.45 1.15 -11.5 1.15 -11.55 1.15 -11.55 1.15 -11.6 1.15 -11.6 1.1 -11.65 1.1 -11.7 1.1 -11.7 1.1 -11.75 1.1 -11.8 1.05 -11.8 1.05 -11.85 1.05 -11.9 1.05 -11.9 1.0 -11.95 1.0 -11.95 1.0 -12.0 1.0 -12.05 0.95 -12.05 L0.95 -12.05 M-5.95 -10.35 Q-5.95 -10.3 -5.95 -10.3 -6.0 -10.25 -6.0 -10.2 -6.0 -10.2 -6.05 -10.15 -6.05 -10.1 -6.1 -10.1 -6.1 -10.05 -6.25 -9.9 -6.3 -9.9 -6.35 -9.85 -6.4 -9.8 -6.45 -9.8 -6.5 -9.8 -6.55 -9.75 -6.55 -9.75 -6.6 -9.75 -6.65 -9.75 -6.7 -9.75 -6.7 -9.7 -6.75 -9.7 -6.75 -9.65 -6.8 -9.65 -6.85 -9.65 -6.9 -9.6 -6.95 -9.6 -6.95 -9.6 -7.0 -9.6 -7.05 -9.6 -7.1 -9.55 -7.15 -9.55 -7.2 -9.55 -7.35 -9.55 -7.4 -9.55 -7.45 -9.5 -7.45 -9.5 -7.5 -9.5 -7.55 -9.5 -7.55 -9.5 -7.6 -9.5 -7.6 -9.5 -7.65 -9.5 -7.65 -9.5 -7.7 -9.45 -7.75 -9.45 -7.8 -9.45 -7.85 -9.45 -7.9 -9.45 -7.95 -9.45 -7.95 -9.45 -8.0 -9.45 -8.0 -9.45 -8.05 -9.45 -8.05 -9.45 -8.1 -9.45 -8.2 -9.4 -8.35 -9.3 -8.4 -9.3 -8.4 -9.25 -8.45 -9.25 -8.45 -9.2 -8.5 -9.2 -8.55 -9.2 -8.7 -9.05 -8.8 -9.0 -8.85 -8.95 -8.9 -8.9 -8.95 -8.85 -9.0 -8.85 -9.05 -8.8 -9.05 -8.8 -9.1 -8.75 -9.15 -8.75 -9.2 -8.7 -9.25 -8.7 -9.25 -8.7 -9.35 -8.65 -9.4 -8.6 -9.4 -8.55 -9.6 -8.5 -9.65 -8.5 -9.7 -8.5 -9.75 -8.45 -9.85 -8.45 -9.9 -8.45 -9.95 -8.45 -9.95 -8.45 L-9.95 -8.45 Q-10.05 -8.45 -10.1 -8.4 -10.15 -8.4 -10.15 -8.4 -10.2 -8.4 -10.2 -8.4 -10.25 -8.4 -10.3 -8.4 -10.3 -8.4 -10.35 -8.4 -10.35 -8.4 -10.4 -8.45 -10.4 -8.45 -10.45 -8.5 -10.5 -8.55 -10.5 -8.55 -10.5 -8.6 -10.55 -8.65 -10.55 -8.65 -10.6 -8.7 -10.6 -8.7 -10.6 -8.75 -10.65 -8.8 -10.65 -8.8 -10.65 -8.85 -10.65 -8.85 -10.7 -8.9 -10.7 -8.95 -10.7 -8.95 -10.7 -9.0 -10.75 -9.0 -10.75 -9.0 -10.8 -9.05 -10.85 -9.05 -10.85 -9.1 -10.85 -9.1 -10.85 -9.15 -10.85 -9.2 -11.0 -9.05 -10.85 -9.25 -10.85 -9.3 -10.9 -9.3 -10.9 -9.35 -10.9 -9.45 -10.95 -9.5 -10.95 -9.55 -10.95 -9.6 -10.95 -9.6 -10.95 -9.65 -11.0 -9.7 -11.0 -9.7 -11.0 -9.75 -11.0 -9.75 -11.0 -9.9 -11.05 -9.95 -11.05 -10.0 -11.1 -10.0 -11.1 -10.05 -11.1 -10.1 -11.1 -10.15 -11.1 -10.2 -11.1 -10.2 -11.1 -10.25 -11.1 -10.3 -11.1 -10.35 -11.1 -10.4 -11.1 -10.45 -11.1 -10.5 -11.1 -10.5 -11.1 -10.6 -11.1 -10.65 -11.1 -10.65 -11.1 -10.7 -11.05 -10.7 -11.05 -10.75 -11.0 -10.8 -11.0 -10.8 -11.0 -10.85 -11.0 -10.85 -11.0 -10.9 -11.0 -10.95 -10.95 -10.95 -10.95 -11.0 -10.95 -11.0 -10.9 -11.05 -10.9 -11.1 -10.9 -11.1 -10.85 -11.15 -10.85 -11.15 -10.75 -11.2 -10.75 -11.2 -10.7 -11.25 -10.65 -11.25 -10.65 -11.25 -10.6 -11.3 -10.6 -11.35 -10.55 -11.35 -10.5 -11.35 -10.5 -11.35 -10.45 -11.35 -10.45 -11.4 -10.4 -11.4 -10.4 -11.4 -10.35 -11.4 -10.3 -11.4 -10.25 -11.4 -10.25 -11.4 -10.15 -11.4 -10.05 -11.4 -9.9 -11.4 -9.8 -11.4 -9.65 -11.4 -9.6 -11.4 -9.55 -11.4 -9.55 -11.4 -9.5 -11.4 -9.45 -11.4 -9.4 -11.4 -9.35 -11.4 -9.15 -11.4 -9.1 -11.4 -8.9 -11.4 -8.85 -11.35 -8.85 -11.35 -8.8 -11.35 -8.8 -11.35 -8.75 -11.35 -8.75 -11.35 -8.7 -11.35 -8.65 -11.35 -8.6 -11.3 -8.55 -11.3 -8.5 -11.3 -8.5 -11.25 -8.45 -11.25 -8.4 -11.25 -8.35 -11.25 -8.3 -11.25 -8.3 -11.25 -8.25 -11.2 -6.5 -10.75 -6.25 -10.75 -6.25 -10.75 -6.2 -10.75 -6.2 -10.75 -6.15 -10.75 -6.15 -10.8 -6.1 -10.7 -6.1 -10.7 -6.0 -10.65 -6.0 -10.65 -5.95 -10.6 -5.95 -10.6 -5.95 -10.55 -5.95 -10.55 -5.95 -10.45 -5.95 -10.45 -5.95 -10.4 -5.95 -10.35 -5.95 -10.35 L-5.95 -10.35 M-0.45 -8.75 Q-0.55 -8.75 -0.7 -8.75 -0.75 -8.75 -0.8 -8.8 -0.85 -8.8 -0.85 -8.8 -0.9 -8.8 -0.95 -8.8 -0.95 -8.85 -1.0 -8.85 -1.05 -8.85 -1.05 -8.85 -1.1 -8.85 -1.15 -8.85 -1.2 -8.9 -1.2 -8.9 -1.25 -8.95 -1.3 -8.95 -1.35 -8.95 -1.4 -9.0 -1.45 -9.0 -1.45 -9.0 -1.5 -9.0 -1.55 -9.0 -1.6 -9.05 -1.65 -9.05 -1.8 -9.15 -1.8 -9.2 -1.85 -9.2 -1.9 -9.25 -1.95 -9.25 -2.0 -9.25 -2.0 -9.3 -2.05 -9.3 -2.15 -9.3 -2.3 -9.35 -2.35 -9.35 -2.35 -9.4 -2.4 -9.4 -2.45 -9.4 -2.5 -9.45 -2.55 -9.5 -2.55 -9.5 -2.55 -9.55 -2.6 -9.55 -2.65 -9.55 -2.65 -9.55 -2.7 -9.6 -2.7 -9.6 -2.75 -9.6 -2.8 -9.65 -2.85 -9.75 -2.9 -9.75 -2.95 -9.8 -2.95 -9.8 -3.0 -9.85 -3.05 -9.9 -3.1 -10.0 -3.2 -10.05 -3.2 -10.1 -3.25 -10.2 -3.25 -10.2 -3.25 -10.3 -3.3 -10.3 -3.3 -10.3 -3.35 -10.35 -3.35 -10.35 -3.4 -10.4 -3.4 -10.45 -3.4 -10.45 -3.4 -10.5 -3.4 -10.55 -3.4 -10.55 -3.4 -10.6 -3.4 -10.65 -3.4 -10.65 -3.4 -10.7 -3.4 -10.7 -3.4 -10.75 -3.4 -10.75 -3.4 -10.8 -3.4 -10.85 -3.45 -10.9 -3.35 -10.95 -3.3 -11.0 -3.25 -11.1 -3.25 -11.1 -3.25 -11.15 -3.2 -11.15 -3.2 -11.15 -3.15 -11.2 -3.1 -11.2 -3.1 -11.25 -3.1 -11.25 -3.05 -11.25 -3.0 -11.25 -2.95 -11.3 -2.85 -11.4 -2.8 -11.45 -2.75 -11.45 -2.75 -11.45 -2.7 -11.5 -2.65 -11.5 -2.65 -11.55 -2.6 -11.55 -2.55 -11.55 -2.45 -11.65 -2.45 -11.65 -2.4 -11.65 -2.35 -11.65 -2.3 -11.65 -2.25 -11.7 -2.0 -11.8 -1.7 -11.9 -1.65 -11.9 -1.65 -11.95 -1.6 -12.0 -1.6 -12.0 -1.55 -12.0 -1.5 -12.0 -1.5 -12.0 -1.45 -12.05 -1.4 -12.05 -1.35 -12.05 -1.3 -12.1 -1.25 -12.1 -1.25 -12.1 -1.2 -12.1 -1.2 -12.1 -1.15 -12.1 -1.1 -12.1 -1.1 -12.1 -1.05 -12.1 -1.0 -12.1 -1.0 -12.1 -0.9 -12.1 -0.9 -12.1 -0.85 -12.1 -0.8 -12.1 -0.8 -12.1 -0.75 -12.1 -0.7 -12.05 -0.65 -12.0 -0.6 -12.0 -0.6 -11.95 -0.55 -11.9 -0.5 -11.85 -0.5 -11.8 -0.45 -11.8 -0.45 -11.75 -0.45 -11.7 -0.45 -11.7 -0.45 -11.65 -0.4 -11.55 -0.4 -11.55 -0.4 -11.45 -0.4 -11.4 -0.4 -11.3 -0.4 -11.25 -0.4 -11.15 -0.35 -10.8 -0.3 -10.05 -0.3 -10.0 -0.3 -10.0 -0.25 -9.95 -0.25 -9.95 -0.25 -9.9 -0.25 -9.85 -0.25 -9.85 -0.25 -9.8 -0.25 -9.75 -0.25 -9.7 -0.2 -9.65 -0.2 -9.6 -0.2 -9.6 -0.2 -9.55 -0.2 -9.5 -0.2 -9.4 -0.2 -9.4 -0.15 -9.4 -0.15 -9.35 -0.15 -9.3 -0.15 -9.3 -0.15 -9.25 -0.15 -9.25 -0.15 -9.1 -0.15 -9.1 -0.15 -9.0 -0.15 -8.95 -0.15 -8.95 -0.2 -8.9 -0.2 -8.85 -0.2 -8.85 -0.25 -8.8 -0.25 -8.75 -0.3 -8.75 -0.3 -8.75 -0.45 -8.75 L-0.45 -8.75" fill="#756f3c" fill-rule="evenodd" stroke="none"/>
  </g>
</svg>
