<?xml version="1.0" encoding="UTF-8" standalone="no"?>
<svg xmlns:xlink="http://www.w3.org/1999/xlink" height="200.0px" width="200.0px" xmlns="http://www.w3.org/2000/svg">
  <g transform="matrix(1.0, 0.0, 0.0, 1.0, 100.0, 100.0)">
    <path d="M-10.8 -3.05 Q-10.7 -3.3 -10.55 -3.55 -10.4 -3.75 -10.2 -3.95 -10.0 -4.15 -9.75 -4.35 -9.5 -4.55 -9.2 -4.75 -8.9 -4.9 -8.55 -5.1 -8.2 -5.25 -7.75 -5.45 -7.4 -5.65 -6.85 -5.85 -6.55 -6.0 -5.8 -6.3 -5.3 -6.5 -5.05 -6.6 -4.65 -6.75 -4.35 -6.9 -4.0 -7.05 -3.65 -7.15 -3.3 -7.25 -3.0 -7.35 -2.6 -7.45 -2.3 -7.55 -1.9 -7.65 -1.55 -7.7 -1.2 -7.75 -0.8 -7.75 -0.4 -7.8 0.0 -7.8 0.4 -7.8 0.85 -7.75 1.2 -7.75 1.6 -7.7 1.95 -7.65 2.3 -7.55 2.65 -7.5 2.95 -7.4 3.25 -7.35 3.5 -7.25 3.75 -7.15 4.0 -7.1 4.2 -7.0 4.4 -6.95 4.5 -6.9 4.7 -6.8 4.95 -6.7 5.25 -6.55 5.45 -6.45 5.7 -6.3 5.9 -6.2 6.1 -6.1 6.25 -6.0 6.45 -5.85 6.55 -5.75 6.7 -5.65 6.8 -5.6 6.9 -5.5 7.0 -5.4 7.1 -5.35 7.15 -5.3 7.2 -5.25 7.3 -5.15 7.4 -5.05 7.5 -4.95 7.6 -4.8 7.7 -4.7 7.75 -4.6 7.85 -4.5 7.95 -4.4 8.0 -4.3 8.05 -4.2 8.15 -4.15 8.2 -4.05 8.25 -3.95 8.3 -3.85 8.35 -3.8 8.4 -3.7 8.5 -3.65 8.55 -3.6 8.7 -3.45 8.85 -3.35 9.0 -3.2 9.15 -3.05 9.35 -2.9 9.5 -2.7 9.7 -2.45 9.85 -2.25 10.0 -1.95 10.15 -1.7 10.25 -1.4 10.35 -1.1 10.45 -0.75 10.45 -0.4 10.45 -0.15 10.45 0.05 10.45 0.25 10.4 0.5 10.35 0.7 10.3 0.9 10.25 1.05 10.15 1.25 10.05 1.45 9.95 1.65 9.9 1.8 9.75 2.0 9.65 2.15 9.55 2.35 9.45 2.45 9.3 2.7 9.2 2.85 9.1 3.0 9.0 3.15 8.85 3.35 8.7 3.5 8.55 3.7 8.35 3.9 8.2 4.1 7.95 4.3 7.75 4.5 7.5 4.7 7.25 4.9 7.0 5.1 6.7 5.3 6.4 5.5 6.05 5.7 5.7 5.8 5.35 5.85 4.95 5.9 4.55 6.0 4.1 6.05 3.65 6.1 3.15 6.15 2.65 6.2 2.1 6.2 1.55 6.2 0.9 6.2 0.3 6.15 -0.3 6.1 -0.95 6.05 -1.65 5.95 -2.3 5.8 -2.9 5.65 -3.5 5.5 -4.05 5.35 -4.6 5.15 -5.15 5.0 -5.65 4.8 -6.1 4.6 -6.55 4.35 -7.0 4.15 -7.4 3.95 -7.8 3.75 -8.15 3.5 -8.5 3.35 -8.8 3.1 -9.1 2.95 -9.35 2.75 -9.45 2.65 -9.55 2.5 -9.7 2.25 -9.85 2.05 -10.05 1.7 -10.25 1.4 -10.45 1.0 -10.6 0.65 -10.8 0.2 -10.9 -0.25 -11.0 -0.7 -11.05 -1.15 -11.1 -1.65 -11.05 -2.1 -11.0 -2.6 -10.8 -3.05 L-10.8 -3.05" fill="#c1c0e9" fill-rule="evenodd" stroke="none"/>
  </g>
</svg>
