<?xml version="1.0" encoding="UTF-8" standalone="no"?>
<svg xmlns:xlink="http://www.w3.org/1999/xlink" height="400.0px" width="400.0px" xmlns="http://www.w3.org/2000/svg">
  <g transform="matrix(1.0, 0.0, 0.0, 1.0, 200.0, 200.0)">
    <path d="M-19.55 50.0 Q-19.55 49.95 -19.55 49.85 -19.5 49.85 -19.4 49.9 -19.45 49.95 -19.55 50.0 L-19.55 50.0" fill="#fdfdfd" fill-rule="evenodd" stroke="none"/>
    <path d="M4.1 8.95 Q3.9 8.95 3.7 8.9 3.55 8.9 3.4 8.85 3.25 8.8 3.1 8.75 3.05 8.7 2.85 8.65 2.7 8.6 2.6 8.55 2.5 8.5 2.35 8.45 2.2 8.4 2.05 8.4 1.9 8.35 1.7 8.4 1.65 8.4 1.55 8.4 1.45 8.4 1.35 8.4 1.2 8.4 1.1 8.45 0.9 8.45 0.8 8.5 0.6 8.55 0.45 8.6 0.3 8.65 0.15 8.75 0.0 8.85 -0.15 8.95 -0.3 9.1 -0.4 9.25 -0.4 9.25 -0.45 9.3 -0.5 9.35 -0.5 9.45 -0.55 9.5 -0.6 9.6 -0.65 9.7 -0.7 9.8 -0.75 9.95 -0.75 10.05 -0.8 10.2 -0.8 10.3 -0.8 10.45 -0.8 10.6 -0.75 10.75 -0.7 10.9 -0.65 11.05 -0.55 11.15 -0.5 11.25 -0.35 11.35 -0.25 11.4 -0.15 11.5 -0.05 11.55 0.1 11.6 0.25 11.65 0.4 11.7 0.5 11.75 0.65 11.75 0.8 11.75 0.9 11.75 1.05 11.75 1.2 11.75 1.4 11.7 2.9 10.6 4.15 9.75 4.4 9.7 4.5 9.7 4.6 9.65 4.7 9.65 4.8 9.65 4.9 9.65 5.0 9.65 5.0 9.65 5.15 9.7 5.3 9.7 5.35 9.7 5.5 9.7 5.6 9.7 5.75 9.7 5.9 9.7 6.05 9.7 6.25 9.65 6.35 9.65 6.45 9.6 6.55 9.6 6.6 9.6 6.65 9.55 6.7 9.55 6.75 9.55 6.8 9.55 6.85 9.5 6.9 9.5 6.9 9.5 6.95 9.5 6.95 9.5 7.0 9.5 7.05 9.5 7.1 9.5 7.25 9.5 7.35 9.55 7.5 9.6 7.6 9.65 7.65 9.75 7.75 9.8 7.85 9.9 7.95 10.0 8.1 10.2 8.1 10.2 8.25 10.3 8.35 10.4 8.45 10.5 8.6 10.6 8.7 10.7 8.9 10.8 8.9 10.8 9.0 10.85 9.05 10.85 9.15 10.9 9.25 10.95 9.35 10.95 9.45 11.0 9.55 11.0 9.7 11.05 9.8 11.05 9.95 11.05 10.1 11.05 10.25 11.0 10.4 11.0 10.55 10.95 10.7 10.9 10.85 10.85 10.95 10.75 11.05 10.65 11.15 10.55 11.2 10.45 11.3 10.35 11.35 10.25 11.4 10.15 11.45 10.05 11.5 9.95 11.5 9.85 11.55 9.8 11.55 9.7 11.6 9.65 11.6 9.65 11.6 9.6 11.65 9.45 11.65 9.3 11.65 9.1 11.6 8.95 11.6 8.8 11.55 8.65 11.5 8.5 11.4 8.4 11.35 8.25 11.25 8.1 11.15 8.0 11.05 7.9 10.95 7.75 10.85 7.7 10.75 7.6 10.65 7.5 10.5 7.4 10.3 7.35 10.15 7.3 9.95 7.25 9.8 7.2 9.6 7.2 9.45 7.2 9.25 7.2 9.1 7.25 8.95 7.25 8.8 7.3 8.6 7.35 8.5 7.4 8.35 7.45 8.25 7.45 8.05 7.5 7.9 7.55 7.75 7.6 7.65 7.65 7.55 7.7 7.45 7.75 7.35 7.85 7.3 7.85 7.2 7.95 7.05 8.0 7.0 8.05 6.9 8.15 6.75 8.2 6.65 8.25 6.5 8.35 6.3 8.4 6.15 8.5 6.15 8.5 5.9 8.6 5.75 8.65 5.65 8.65 5.55 8.7 5.45 8.75 5.3 8.8 5.2 8.8 5.05 8.85 4.95 8.85 4.8 8.9 4.65 8.9 4.5 8.95 4.4 8.95 4.25 8.95 4.1 8.95 L4.1 8.95" fill="#564978" fill-rule="evenodd" stroke="none"/>
    <path d="M-19.55 50.0 Q-19.55 49.95 -19.55 49.85 -19.55 49.85 -19.45 49.9 -19.5 49.95 -19.55 50.0 L-19.55 50.0" fill="#fdfdfd" fill-rule="evenodd" stroke="none"/>
    <path d="M-22.85 50.1 Q-22.85 50.05 -22.85 50.0 -22.85 49.95 -22.9 49.9 -22.85 49.95 -22.8 49.95 -22.8 49.95 -22.75 50.0 -22.8 50.0 -22.85 50.1 L-22.85 50.1" fill="#fdfdfd" fill-rule="evenodd" stroke="none"/>
  </g>
</svg>
