<?xml version="1.0" encoding="UTF-8" standalone="no"?>
<svg xmlns:xlink="http://www.w3.org/1999/xlink" height="44.4px" width="31.2px" xmlns="http://www.w3.org/2000/svg">
  <g transform="matrix(1.0, 0.0, 0.0, 1.0, 15.6, 22.2)">
    <path d="M-6.45 -0.2 Q-6.9 -0.2 -7.7 -0.3 -7.75 -0.3 -7.75 -0.3 -7.8 -0.35 -7.85 -0.35 -7.9 -0.35 -7.95 -0.35 -7.95 -0.35 -8.0 -0.35 -8.2 -0.35 -9.2 -0.6 -9.3 -0.65 -9.55 -0.7 -9.8 -0.75 -9.9 -0.8 -10.45 -1.0 -10.7 -1.15 -11.65 -1.6 -12.0 -1.85 -12.1 -1.9 -12.2 -2.0 -12.3 -2.05 -12.4 -2.15 -12.5 -2.2 -12.6 -2.3 -12.7 -2.35 -12.8 -2.45 -12.9 -2.55 -12.95 -2.6 -13.05 -2.7 -13.15 -2.75 -13.25 -2.85 -13.35 -2.95 -13.45 -3.0 -13.5 -3.1 -13.65 -3.25 -13.75 -3.35 -13.9 -3.5 -14.05 -3.65 -14.15 -3.8 -14.25 -3.95 -14.4 -4.1 -14.5 -4.25 -14.6 -4.4 -14.7 -4.55 -14.8 -4.75 -14.85 -4.9 -14.95 -5.05 -15.05 -5.25 -15.1 -5.4 -15.2 -5.6 -15.3 -5.8 -15.35 -6.0 -15.4 -6.2 -15.45 -6.4 -15.5 -6.6 -15.55 -6.8 -15.55 -7.0 -15.6 -7.2 -15.6 -7.4 -15.6 -7.6 -15.6 -7.85 -15.6 -8.05 -15.6 -8.25 -15.55 -8.45 -15.55 -8.65 -15.5 -8.85 -15.5 -8.95 -15.45 -9.05 -15.45 -9.1 -15.4 -9.2 -15.35 -9.3 -15.35 -9.4 -15.3 -9.5 -15.25 -9.55 -15.25 -9.65 -15.2 -9.75 -15.15 -9.9 -15.15 -9.9 -15.1 -10.0 -15.05 -10.1 -15.05 -10.2 -15.0 -10.25 -14.95 -10.5 -14.95 -10.6 -15.0 -11.25 -15.0 -11.45 -15.0 -11.55 -15.0 -11.7 -15.0 -11.8 -15.0 -11.95 -15.0 -12.05 -15.0 -12.2 -15.0 -12.3 -15.0 -12.4 -14.95 -12.55 -14.95 -12.65 -14.9 -12.75 -14.9 -12.9 -14.85 -13.0 -14.8 -13.1 -14.8 -13.25 -14.75 -13.35 -14.05 -15.2 -14.0 -15.3 -13.95 -15.4 -13.9 -15.55 -13.85 -15.65 -13.75 -15.75 -13.7 -15.85 -13.65 -16.0 -13.55 -16.1 -13.5 -16.2 -13.4 -16.3 -13.35 -16.4 -13.25 -16.5 -13.2 -16.6 -13.1 -16.7 -13.0 -16.8 -12.9 -16.9 -12.85 -16.95 -12.8 -17.0 -12.75 -17.05 -12.65 -17.1 -12.6 -17.15 -12.5 -17.15 -12.4 -17.2 -12.35 -17.2 -12.25 -17.2 -12.15 -17.25 -12.05 -17.2 -12.0 -17.2 -11.9 -17.2 -11.8 -17.2 -11.75 -17.15 -11.65 -17.15 -11.6 -17.1 -11.35 -16.9 -10.85 -16.5 -10.35 -16.1 -10.1 -15.9 -9.7 -15.6 -9.45 -15.35 -9.4 -15.3 -9.35 -15.3 -9.3 -15.25 -9.3 -15.25 -9.25 -15.25 -9.2 -15.25 -9.15 -15.25 -9.1 -15.25 -9.05 -15.25 -9.0 -15.25 -8.8 -15.3 -8.6 -15.35 -8.4 -15.4 -8.2 -15.4 -8.0 -15.45 -7.8 -15.45 -7.6 -15.5 -7.4 -15.5 -7.2 -15.55 -7.0 -15.55 -6.8 -15.55 -6.6 -15.55 -6.4 -15.55 -6.2 -15.55 -6.0 -15.55 -5.8 -15.55 -4.9 -15.5 -4.3 -15.4 -4.25 -15.4 -4.2 -15.4 -4.2 -15.4 -4.15 -15.4 -4.1 -15.4 -4.1 -15.4 -4.05 -15.4 -4.0 -15.4 -4.0 -15.45 -3.95 -15.45 -3.95 -15.45 -3.9 -15.5 -3.9 -15.5 -3.85 -15.55 -3.85 -15.55 -3.8 -15.6 -3.7 -15.75 -3.6 -15.85 -3.5 -16.0 -3.4 -16.15 -3.3 -16.25 -3.2 -16.4 -3.05 -16.5 -2.95 -16.6 -2.85 -16.75 -2.7 -16.85 -2.6 -16.95 -2.45 -17.05 -2.35 -17.15 -2.2 -17.25 -2.05 -17.35 -1.9 -17.45 -1.8 -17.55 -1.65 -17.6 -1.55 -17.65 -1.4 -17.7 -1.3 -17.7 -1.2 -17.75 -1.05 -17.75 -0.95 -17.75 -0.8 -17.75 -0.7 -17.7 -0.6 -17.7 -0.5 -17.65 -0.35 -17.6 -0.25 -17.5 -0.15 -17.45 -0.1 -17.35 -0.05 -17.3 0.0 -17.25 0.05 -17.2 0.1 -17.1 0.15 -17.05 0.2 -17.0 0.25 -16.9 0.3 -16.85 0.35 -16.8 0.35 -16.7 0.4 -16.65 0.45 -16.6 0.5 -16.5 0.55 -16.45 0.5 -16.5 0.6 -16.3 0.75 -16.05 1.0 -15.35 1.05 -15.3 1.05 -15.25 1.1 -15.25 1.1 -15.2 1.15 -15.2 1.2 -15.2 1.25 -15.15 1.3 -15.15 3.35 -15.1 5.05 -15.0 5.5 -14.95 6.2 -14.9 7.15 -14.8 7.4 -14.75 8.45 -14.7 9.25 -14.6 10.25 -14.45 10.9 -14.3 11.6 -14.2 12.5 -13.95 12.6 -13.9 12.75 -13.9 12.85 -13.85 13.0 -13.8 13.1 -13.8 13.25 -13.75 13.35 -13.7 13.45 -13.65 13.6 -13.6 13.7 -13.55 13.8 -13.5 13.95 -13.45 14.05 -13.4 14.15 -13.35 14.3 -13.3 14.4 -13.25 14.5 -13.2 14.6 -13.15 14.65 -13.1 14.75 -13.0 14.85 -12.95 14.9 -12.9 15.0 -12.8 15.05 -12.75 15.15 -12.65 15.2 -12.6 15.25 -12.5 15.3 -12.4 15.35 -12.3 15.4 -12.2 15.45 -12.1 15.5 -12.0 15.55 -11.9 15.55 -11.75 15.6 -11.65 15.6 -11.55 15.6 -11.45 15.6 -11.3 15.6 -11.2 15.55 -11.1 15.55 -11.0 15.5 -10.9 15.45 -10.8 15.4 -10.7 15.35 -10.6 15.3 -10.45 15.25 -10.4 15.15 -10.25 15.1 -10.15 15.0 -10.0 14.9 -9.9 14.8 -9.8 14.75 -9.7 14.65 -9.6 14.55 -9.5 14.45 -9.4 14.35 -9.3 14.25 -9.2 14.15 -9.15 14.05 -9.05 13.95 -8.95 13.8 -8.85 13.7 -8.8 13.6 -8.7 13.5 -8.6 13.4 -8.55 13.25 -8.45 13.15 -8.35 13.05 -8.25 12.95 -8.2 12.8 -8.1 12.7 -8.0 12.6 -7.95 12.45 -7.85 12.35 -7.8 12.25 -7.7 12.15 -7.65 12.0 -7.55 11.9 -7.5 11.75 -7.4 11.25 -7.1 9.8 -6.4 9.15 -6.05 8.15 -5.65 7.4 -5.3 6.1 -4.8 5.95 -4.75 5.8 -4.7 5.7 -4.6 5.55 -4.55 5.4 -4.5 5.25 -4.45 5.15 -4.4 5.0 -4.35 4.85 -4.3 4.7 -4.25 4.55 -4.2 4.45 -4.1 4.3 -4.05 4.15 -4.0 4.0 -3.95 3.85 -3.9 3.25 -3.7 2.05 -3.3 1.8 -3.2 0.75 -2.9 0.75 -2.9 0.7 -2.9 0.6 -2.85 0.5 -2.8 0.4 -2.75 0.35 -2.7 0.25 -2.65 0.15 -2.6 0.05 -2.5 -0.05 -2.45 -0.15 -2.4 -0.2 -2.35 -0.3 -2.3 -0.4 -2.25 -0.5 -2.15 -0.6 -2.1 -0.65 -2.05 -0.75 -1.95 -1.1 -1.75 -1.6 -1.45 -2.5 -1.0 -2.85 -0.85 -3.0 -0.8 -3.45 -0.7 -3.85 -0.6 -4.05 -0.5 -4.25 -0.45 -5.1 -0.35 -5.7 -0.25 -6.45 -0.2 L-6.45 -0.2 M1.2 -11.45 Q1.2 -11.45 1.25 -11.5 1.25 -11.65 1.15 -12.35 1.1 -12.9 1.0 -13.25 0.9 -13.85 0.5 -14.95 0.5 -15.0 0.45 -15.1 0.45 -15.15 0.4 -15.2 0.4 -15.3 0.35 -15.35 0.35 -15.4 0.3 -15.45 0.25 -15.55 0.25 -15.6 0.2 -15.65 0.15 -15.75 0.15 -15.8 0.1 -15.85 0.05 -15.9 0.05 -16.0 -0.3 -16.55 -0.55 -16.85 -0.55 -16.9 -0.6 -16.9 -0.65 -16.95 -0.7 -16.95 -0.75 -16.95 -0.8 -16.95 -0.85 -17.0 -0.85 -17.0 -0.9 -17.0 -0.95 -17.0 -1.0 -17.0 -1.05 -17.0 -1.1 -16.95 -1.15 -16.95 -1.2 -16.95 -1.25 -16.9 -1.3 -16.9 -1.35 -16.9 -1.35 -16.85 -1.4 -16.85 -1.45 -16.8 -1.5 -16.8 -1.55 -16.75 -1.55 -16.7 -1.6 -16.7 -1.65 -16.65 -2.3 -16.1 -2.5 -15.9 -2.7 -15.7 -3.05 -15.35 -3.45 -14.95 -3.65 -14.75 -3.65 -14.7 -3.7 -14.7 -3.75 -14.65 -3.8 -14.65 -3.8 -14.65 -3.85 -14.6 -3.9 -14.6 -3.95 -14.6 -4.0 -14.6 -4.5 -14.7 -4.85 -14.8 -5.1 -14.8 -5.15 -14.8 -5.25 -14.8 -5.3 -14.85 -5.4 -14.85 -5.45 -14.85 -5.5 -14.85 -5.6 -14.85 -5.65 -14.85 -5.75 -14.85 -5.8 -14.85 -5.85 -14.85 -5.95 -14.85 -6.0 -14.85 -6.1 -14.85 -6.15 -14.85 -6.25 -14.85 -6.35 -14.85 -6.45 -14.85 -6.6 -14.85 -6.7 -14.85 -6.8 -14.85 -6.9 -14.85 -7.0 -14.85 -7.15 -14.85 -7.25 -14.85 -7.35 -14.8 -7.45 -14.8 -7.55 -14.8 -7.7 -14.8 -7.8 -14.75 -7.9 -14.75 -8.0 -14.7 -8.2 -14.65 -8.45 -14.6 -8.9 -14.5 -8.95 -14.5 -8.95 -14.5 -9.05 -14.45 -9.1 -14.4 -9.1 -14.4 -9.15 -14.4 -9.2 -14.35 -9.2 -14.35 -9.25 -14.35 -9.25 -14.35 -9.3 -14.35 -9.35 -14.35 -9.35 -14.35 -9.4 -14.35 -9.4 -14.35 -9.45 -14.4 -9.45 -14.4 -9.5 -14.45 -9.55 -14.45 -9.6 -14.5 -9.65 -14.55 -9.7 -14.6 -9.7 -14.65 -9.75 -14.7 -9.8 -14.75 -9.85 -14.75 -9.9 -14.8 -9.95 -14.85 -10.0 -14.9 -10.05 -14.95 -10.1 -15.0 -10.15 -15.05 -10.2 -15.1 -10.25 -15.15 -10.3 -15.2 -11.6 -16.35 -11.6 -16.35 -11.7 -16.4 -11.75 -16.45 -11.8 -16.5 -11.9 -16.55 -11.95 -16.55 -12.0 -16.6 -12.05 -16.6 -12.1 -16.6 -12.15 -16.6 -12.25 -16.6 -12.3 -16.55 -12.35 -16.5 -12.4 -16.5 -12.45 -16.45 -12.5 -16.35 -12.6 -16.3 -12.65 -16.25 -12.7 -16.15 -12.75 -16.1 -12.8 -16.05 -12.85 -15.95 -12.9 -15.9 -12.95 -15.8 -13.0 -15.75 -13.05 -15.7 -13.1 -15.6 -13.15 -15.55 -13.2 -15.45 -13.25 -15.4 -13.3 -15.3 -13.35 -15.25 -13.4 -15.15 -13.5 -14.95 -14.0 -13.55 -14.0 -13.5 -14.0 -13.5 -14.05 -13.45 -14.05 -13.4 -14.05 -13.35 -14.05 -13.35 -14.1 -13.3 -14.1 -13.25 -14.1 -13.25 -14.1 -13.2 -14.1 -13.15 -14.1 -13.15 -14.15 -13.1 -14.15 -13.05 -14.15 -13.0 -14.15 -13.0 -14.35 -11.7 -14.4 -11.55 -14.4 -11.3 -14.3 -10.6 -14.3 -10.55 -14.3 -10.5 -14.3 -10.5 -14.3 -10.45 -14.3 -10.4 -14.3 -10.35 -14.3 -10.35 -14.3 -10.3 -14.3 -10.25 -14.3 -10.25 -14.35 -10.2 -14.35 -10.15 -14.35 -10.1 -14.35 -10.1 -14.35 -10.05 -14.4 -10.0 -14.7 -9.25 -14.8 -9.0 -14.8 -8.95 -14.8 -8.85 -14.85 -8.8 -14.85 -8.75 -14.85 -8.65 -14.85 -8.6 -14.85 -8.55 -14.9 -8.45 -14.9 -8.4 -14.9 -8.35 -14.9 -8.25 -14.9 -8.2 -14.9 -8.15 -14.9 -8.05 -14.9 -8.0 -14.9 -7.9 -14.9 -7.75 -14.9 -7.65 -14.9 -7.5 -14.9 -7.35 -14.9 -7.2 -14.9 -7.1 -14.85 -6.95 -14.85 -6.8 -14.8 -6.7 -14.8 -6.55 -14.75 -6.4 -14.75 -6.3 -14.7 -6.15 -14.65 -6.0 -14.6 -5.9 -14.55 -5.75 -14.5 -5.65 -14.45 -5.55 -14.45 -5.45 -14.4 -5.35 -14.35 -5.25 -14.3 -5.15 -14.25 -5.05 -14.2 -4.95 -14.15 -4.85 -14.1 -4.75 -14.0 -4.65 -13.95 -4.6 -13.9 -4.5 -13.85 -4.4 -13.8 -4.3 -13.7 -4.25 -13.6 -4.1 -13.5 -4.0 -13.4 -3.85 -13.25 -3.7 -13.15 -3.6 -13.05 -3.45 -12.9 -3.35 -12.8 -3.25 -12.65 -3.15 -12.5 -3.0 -12.4 -2.9 -12.25 -2.8 -12.15 -2.7 -12.0 -2.6 -11.85 -2.5 -11.7 -2.45 -11.6 -2.35 -11.5 -2.3 -11.4 -2.25 -11.25 -2.15 -11.15 -2.1 -11.05 -2.05 -10.95 -2.0 -10.85 -1.9 -10.7 -1.85 -10.6 -1.8 -10.5 -1.75 -10.35 -1.7 -10.25 -1.65 -10.15 -1.6 -10.0 -1.55 -9.9 -1.55 -9.85 -1.5 -9.75 -1.5 -9.7 -1.45 -9.6 -1.45 -9.55 -1.4 -9.45 -1.4 -9.4 -1.35 -9.3 -1.35 -9.25 -1.3 -9.15 -1.3 -9.1 -1.3 -9.0 -1.25 -8.95 -1.25 -8.85 -1.2 -8.8 -1.2 -8.7 -1.2 -8.6 -1.2 -8.5 -1.15 -8.45 -1.15 -8.35 -1.1 -8.25 -1.1 -8.15 -1.1 -8.05 -1.05 -8.0 -1.05 -7.9 -1.05 -7.8 -1.0 -7.7 -1.0 -7.6 -1.0 -7.5 -1.0 -7.4 -1.0 -7.35 -0.95 -7.25 -0.95 -7.1 -0.95 -6.95 -0.95 -6.75 -0.95 -6.6 -0.95 -6.45 -0.95 -6.3 -0.95 -6.15 -1.0 -6.0 -1.0 -5.85 -1.0 -5.65 -1.05 -5.5 -1.1 -5.35 -1.1 -5.2 -1.15 -5.05 -1.15 -4.9 -1.2 -4.75 -1.25 -4.6 -1.3 -4.45 -1.3 -4.3 -1.35 -4.15 -1.4 -4.0 -1.45 -3.85 -1.5 -3.7 -1.55 -3.55 -1.6 -3.4 -1.65 -3.25 -1.7 -3.1 -1.75 -2.95 -1.8 -2.85 -1.9 -2.7 -1.95 -2.55 -2.0 -2.4 -2.1 -2.3 -2.15 -2.2 -2.2 -2.05 -2.25 -1.95 -2.3 -1.85 -2.4 -1.75 -2.45 -1.65 -2.5 -1.55 -2.55 -1.4 -2.65 -1.3 -2.7 -1.2 -2.75 -1.1 -2.8 -1.0 -2.9 -0.9 -2.95 -0.8 -3.05 -0.7 -3.1 -0.55 -3.2 -0.45 -3.3 -0.3 -3.4 -0.15 -3.45 0.0 -3.55 0.1 -3.65 0.25 -3.75 0.35 -3.85 0.5 -3.95 0.6 -4.1 0.7 -4.2 0.8 -4.35 0.9 -4.45 1.0 -4.6 1.05 -4.75 1.15 -4.9 1.2 -5.0 1.25 -5.1 1.3 -5.2 1.3 -5.3 1.35 -5.4 1.4 -5.45 1.45 -5.55 1.5 -5.65 1.5 -5.75 1.55 -5.85 1.6 -5.95 1.65 -6.05 1.65 -6.15 1.7 -6.25 1.75 -6.35 1.75 -6.45 1.8 -6.55 1.8 -6.7 1.85 -6.8 1.85 -6.9 1.9 -7.05 1.9 -7.15 1.9 -7.25 1.9 -7.4 1.9 -7.5 1.9 -7.6 1.95 -7.75 1.95 -7.85 1.95 -7.95 1.9 -8.1 1.9 -8.3 1.9 -8.35 1.9 -8.5 1.9 -8.6 1.9 -8.75 1.85 -8.9 1.85 -9.0 1.85 -9.15 1.8 -9.25 1.75 -9.4 1.7 -9.5 1.7 -9.65 1.65 -9.75 1.55 -9.9 1.5 -10.0 1.45 -10.1 1.4 -10.25 1.3 -10.35 1.3 -10.4 1.25 -10.4 1.25 -10.45 1.25 -10.5 1.25 -10.55 1.25 -10.55 1.2 -10.6 1.2 -10.65 1.2 -10.7 1.2 -10.75 1.2 -10.8 1.2 -11.45 L1.2 -11.45 M1.8 -4.45 Q2.0 -4.5 2.05 -4.5 3.95 -5.2 4.15 -5.25 4.9 -5.5 5.7 -5.85 6.85 -6.35 7.65 -6.7 8.75 -7.15 9.5 -7.5 9.65 -7.55 9.75 -7.65 9.9 -7.7 10.0 -7.75 10.15 -7.85 10.25 -7.9 10.4 -7.95 10.55 -8.05 10.65 -8.1 10.8 -8.2 10.9 -8.25 11.05 -8.35 11.2 -8.4 11.3 -8.5 11.45 -8.55 11.55 -8.65 11.7 -8.75 11.9 -8.85 12.05 -8.95 12.2 -9.05 12.4 -9.2 12.55 -9.3 12.7 -9.4 12.85 -9.55 13.0 -9.65 13.15 -9.8 13.3 -9.9 13.45 -10.05 13.6 -10.2 13.75 -10.35 13.9 -10.45 14.0 -10.6 14.05 -10.65 14.05 -10.7 14.1 -10.7 14.15 -10.75 14.15 -10.8 14.2 -10.85 14.2 -10.9 14.25 -10.9 14.25 -10.95 14.3 -11.0 14.3 -11.05 14.35 -11.1 14.35 -11.15 14.4 -11.2 14.4 -11.2 14.45 -11.25 14.45 -11.3 14.5 -11.35 14.5 -11.4 14.5 -11.45 14.5 -11.5 14.5 -11.55 14.45 -11.6 14.45 -11.65 14.45 -11.75 14.4 -11.8 14.35 -11.85 14.3 -11.9 14.3 -11.95 14.25 -11.95 14.2 -12.0 14.1 -12.05 14.05 -12.1 13.95 -12.15 13.85 -12.2 13.8 -12.25 13.7 -12.3 13.65 -12.35 13.55 -12.4 13.45 -12.4 13.4 -12.45 13.3 -12.5 13.2 -12.5 13.1 -12.55 13.05 -12.6 12.95 -12.6 12.85 -12.65 12.75 -12.65 12.55 -12.7 12.35 -12.8 12.15 -12.85 11.95 -12.9 11.75 -12.95 11.55 -13.0 11.35 -13.05 11.15 -13.1 10.95 -13.15 10.75 -13.2 10.55 -13.2 10.35 -13.25 10.15 -13.3 9.95 -13.3 9.75 -13.35 9.5 -13.35 8.25 -13.55 6.25 -13.7 5.45 -13.8 3.3 -13.95 2.65 -13.95 1.75 -14.0 1.7 -14.0 1.65 -14.0 1.65 -14.0 1.6 -14.0 1.6 -13.95 1.55 -13.95 1.55 -13.9 1.55 -13.9 1.55 -13.85 1.6 -13.8 1.7 -13.4 1.75 -13.05 1.75 -13.0 1.8 -12.95 1.8 -12.9 1.8 -12.9 1.85 -12.85 1.9 -12.85 1.95 -12.85 2.0 -12.85 2.3 -12.85 2.5 -12.85 2.85 -12.8 4.05 -12.75 4.1 -12.75 5.8 -12.6 6.25 -12.55 6.95 -12.5 7.05 -12.5 7.45 -12.45 7.8 -12.4 8.0 -12.35 8.1 -12.35 8.2 -12.3 8.3 -12.3 8.45 -12.25 8.55 -12.25 8.65 -12.2 8.75 -12.2 8.85 -12.15 8.95 -12.15 9.05 -12.1 9.2 -12.05 9.3 -12.05 9.4 -12.0 9.5 -12.0 9.6 -11.95 9.7 -11.95 9.8 -11.9 9.85 -11.9 9.95 -11.85 10.0 -11.85 10.1 -11.8 10.2 -11.75 10.25 -11.75 10.3 -11.7 10.4 -11.65 10.45 -11.6 10.55 -11.55 10.6 -11.5 10.65 -11.45 10.7 -11.4 10.8 -11.35 10.85 -11.25 10.9 -11.2 10.9 -11.15 10.95 -11.1 11.0 -11.1 11.0 -11.05 11.05 -11.0 11.05 -10.95 11.1 -10.9 11.1 -10.85 11.1 -10.8 11.1 -10.75 11.1 -10.7 11.1 -10.65 11.1 -10.6 11.1 -10.5 11.05 -10.45 11.05 -10.4 11.0 -10.35 11.0 -10.3 10.95 -10.25 10.95 -10.2 10.9 -10.15 10.9 -10.1 10.85 -10.05 10.8 -10.0 10.8 -9.95 10.75 -9.9 10.7 -9.85 10.7 -9.8 10.65 -9.75 10.6 -9.7 10.55 -9.65 10.45 -9.55 10.4 -9.45 10.3 -9.4 10.2 -9.3 10.1 -9.2 10.0 -9.15 9.9 -9.05 9.8 -9.0 9.7 -8.9 9.6 -8.85 9.5 -8.75 9.4 -8.7 9.3 -8.65 9.15 -8.55 9.05 -8.5 8.95 -8.45 8.2 -8.0 7.85 -7.8 7.65 -7.7 6.55 -7.25 6.2 -7.1 5.65 -6.9 5.4 -6.8 5.05 -6.65 5.0 -6.65 4.95 -6.6 4.9 -6.6 4.85 -6.6 4.8 -6.6 4.8 -6.55 4.75 -6.55 4.7 -6.55 4.65 -6.55 4.6 -6.5 4.55 -6.5 4.5 -6.5 4.45 -6.45 4.4 -6.45 4.4 -6.45 4.35 -6.45 3.25 -6.05 2.75 -5.9 2.7 -5.9 2.65 -5.85 2.6 -5.85 2.6 -5.85 2.55 -5.8 2.5 -5.8 2.5 -5.75 2.45 -5.75 2.4 -5.7 2.4 -5.65 2.35 -5.65 2.35 -5.6 2.3 -5.55 2.3 -5.55 2.25 -5.5 2.25 -5.45 2.2 -5.3 2.05 -5.05 1.9 -4.65 1.85 -4.65 1.85 -4.6 1.8 -4.45 L1.8 -4.45 M2.05 -12.1 Q2.0 -12.1 2.0 -12.1 1.95 -12.05 1.95 -12.05 1.95 -12.0 1.9 -11.95 1.9 -11.9 1.9 -11.85 1.9 -11.7 1.9 -10.9 1.9 -10.85 1.95 -10.8 1.95 -10.75 1.95 -10.7 2.4 -9.75 2.45 -9.5 2.45 -9.45 2.6 -8.2 2.65 -8.05 2.7 -7.95 2.7 -7.9 2.7 -7.85 2.75 -7.8 2.75 -7.75 2.75 -7.7 2.75 -7.7 2.75 -7.6 2.65 -6.85 2.65 -6.8 2.65 -6.75 2.65 -6.7 2.65 -6.7 2.7 -6.7 2.75 -6.7 2.75 -6.7 2.8 -6.7 3.0 -6.8 3.55 -6.95 4.05 -7.15 5.0 -7.5 5.05 -7.5 5.1 -7.5 5.15 -7.55 5.15 -7.55 5.2 -7.55 5.25 -7.55 5.3 -7.55 5.35 -7.6 5.4 -7.6 5.4 -7.6 6.35 -8.05 6.55 -8.1 6.7 -8.15 7.2 -8.4 7.6 -8.55 7.85 -8.7 8.5 -9.05 9.4 -9.7 9.45 -9.75 9.5 -9.75 9.55 -9.8 9.6 -9.85 9.6 -9.9 9.65 -9.9 9.7 -9.95 9.75 -10.0 9.8 -10.05 9.85 -10.1 9.85 -10.1 9.9 -10.15 9.95 -10.2 10.0 -10.25 10.05 -10.3 10.05 -10.35 10.1 -10.4 10.1 -10.4 10.15 -10.45 10.15 -10.5 10.15 -10.55 10.15 -10.55 10.2 -10.6 10.15 -10.65 10.15 -10.7 10.15 -10.7 10.15 -10.75 10.15 -10.8 10.1 -10.8 10.05 -10.85 10.05 -10.85 10.0 -10.9 9.95 -10.95 9.9 -10.95 9.85 -11.0 9.8 -11.0 9.75 -11.05 9.7 -11.05 9.6 -11.1 9.55 -11.1 9.5 -11.15 9.45 -11.15 9.4 -11.2 9.35 -11.2 9.3 -11.25 9.25 -11.25 9.15 -11.25 9.1 -11.3 8.85 -11.35 7.85 -11.55 7.5 -11.65 6.9 -11.75 6.55 -11.75 6.35 -11.8 6.2 -11.8 5.85 -11.85 5.5 -11.9 5.35 -11.9 5.15 -11.9 4.6 -11.95 4.1 -11.95 3.85 -11.95 3.0 -12.0 2.05 -12.1 L2.05 -12.1" fill="#000000" fill-rule="evenodd" stroke="none"/>
    <path d="M-4.8 -5.65 Q-4.85 -5.6 -4.85 -5.6 -4.85 -5.55 -4.9 -5.5 -4.95 -5.45 -4.95 -5.45 -4.95 -5.4 -5.0 -5.4 -5.0 -5.35 -5.05 -5.35 -5.05 -5.35 -5.1 -5.3 -5.1 -5.3 -5.15 -5.3 -5.15 -5.3 -5.2 -5.3 -5.25 -5.3 -5.3 -5.3 -5.35 -5.3 -5.35 -5.35 -5.4 -5.35 -5.45 -5.4 -5.65 -5.55 -6.2 -6.05 -6.25 -6.1 -6.25 -6.1 -6.3 -6.1 -6.35 -6.1 -6.35 -6.1 -6.4 -6.1 -6.45 -6.1 -6.45 -6.05 -6.5 -6.0 -6.55 -5.95 -6.6 -5.9 -6.65 -5.85 -6.65 -5.8 -6.7 -5.75 -6.75 -5.7 -6.8 -5.65 -6.85 -5.6 -6.9 -5.55 -6.95 -5.55 -7.0 -5.5 -7.05 -5.45 -7.1 -5.4 -7.15 -5.35 -7.2 -5.3 -7.2 -5.3 -7.25 -5.25 -7.3 -5.25 -7.3 -5.25 -7.35 -5.25 -7.35 -5.25 -7.4 -5.25 -7.45 -5.25 -7.5 -5.25 -7.5 -5.25 -7.55 -5.3 -7.55 -5.3 -7.6 -5.3 -7.65 -5.35 -7.65 -5.35 -7.65 -5.35 -7.65 -5.4 -7.7 -5.4 -7.7 -5.45 -7.7 -5.5 -7.7 -5.5 -7.75 -5.55 -7.75 -5.6 -7.75 -5.65 -7.75 -5.65 -7.75 -5.7 -7.7 -5.75 -7.7 -5.75 -7.7 -5.8 -7.7 -5.85 -7.65 -5.85 -7.65 -5.9 -7.45 -6.1 -7.05 -6.55 -6.6 -6.95 -6.45 -7.15 -6.4 -7.2 -6.35 -7.2 -6.3 -7.2 -6.25 -7.15 -5.35 -6.3 -5.05 -6.05 -5.0 -6.0 -4.95 -5.9 -4.85 -5.7 -4.8 -5.65 L-4.8 -5.65" fill="#000000" fill-rule="evenodd" stroke="none"/>
    <path d="M-3.35 -9.35 Q-3.35 -9.45 -3.35 -9.55 -3.35 -9.65 -3.3 -9.75 -3.25 -9.85 -3.2 -9.9 -3.15 -10.0 -3.05 -10.1 -3.0 -10.15 -2.9 -10.2 -2.85 -10.25 -2.75 -10.3 -2.7 -10.35 -2.6 -10.35 -2.5 -10.35 -2.45 -10.35 -2.4 -10.35 -2.35 -10.3 -2.35 -10.3 -2.3 -10.3 -2.25 -10.25 -2.2 -10.25 -2.2 -10.2 -2.15 -10.2 -2.1 -10.15 -2.1 -10.15 -2.05 -10.1 -2.0 -10.1 -2.0 -10.05 -1.95 -10.05 -1.9 -10.0 -1.9 -10.0 -1.8 -9.9 -1.75 -9.85 -1.7 -9.75 -1.65 -9.65 -1.65 -9.55 -1.65 -9.45 -1.6 -9.35 -1.65 -9.25 -1.65 -9.2 -1.7 -9.1 -1.7 -9.0 -1.75 -8.9 -1.8 -8.85 -1.85 -8.75 -1.9 -8.7 -2.0 -8.65 -2.05 -8.6 -2.1 -8.55 -2.1 -8.55 -2.15 -8.5 -2.2 -8.45 -2.25 -8.45 -2.3 -8.45 -2.4 -8.4 -2.45 -8.4 -2.5 -8.4 -2.55 -8.4 -2.6 -8.4 -2.65 -8.4 -2.7 -8.45 -2.75 -8.45 -2.8 -8.45 -2.85 -8.5 -2.95 -8.55 -3.0 -8.55 -3.05 -8.6 -3.1 -8.65 -3.15 -8.7 -3.2 -8.75 -3.2 -8.8 -3.25 -8.85 -3.3 -8.95 -3.3 -9.0 -3.3 -9.05 -3.35 -9.1 -3.35 -9.2 -3.35 -9.25 -3.35 -9.35 L-3.35 -9.35" fill="#000000" fill-rule="evenodd" stroke="none"/>
    <path d="M-10.25 -8.25 Q-10.35 -8.25 -10.45 -8.25 -10.5 -8.25 -10.6 -8.3 -10.65 -8.35 -10.75 -8.4 -10.8 -8.45 -10.85 -8.5 -10.95 -8.6 -10.95 -8.65 -11.0 -8.75 -11.05 -8.85 -11.1 -8.9 -11.1 -9.0 -11.15 -9.1 -11.15 -9.2 -11.15 -9.3 -11.15 -9.35 -11.1 -9.45 -11.05 -9.55 -11.0 -9.6 -10.95 -9.7 -10.9 -9.75 -10.85 -9.85 -10.75 -9.9 -10.7 -9.95 -10.6 -10.05 -10.55 -10.05 -10.5 -10.1 -10.4 -10.15 -10.35 -10.15 -10.3 -10.15 -10.2 -10.15 -10.15 -10.15 -10.05 -10.1 -10.0 -10.05 -9.9 -10.0 -9.85 -9.95 -9.75 -9.9 -9.7 -9.85 -9.65 -9.75 -9.6 -9.65 -9.55 -9.6 -9.5 -9.5 -9.45 -9.4 -9.45 -9.3 -9.45 -9.2 -9.45 -9.1 -9.45 -9.0 -9.45 -8.95 -9.45 -8.85 -9.5 -8.75 -9.55 -8.7 -9.55 -8.6 -9.6 -8.55 -9.65 -8.5 -9.7 -8.45 -9.8 -8.4 -9.85 -8.35 -9.9 -8.3 -10.0 -8.3 -10.05 -8.25 -10.15 -8.25 -10.25 -8.25 L-10.25 -8.25" fill="#000000" fill-rule="evenodd" stroke="none"/>
  </g>
</svg>
