<?xml version="1.0" encoding="UTF-8" standalone="no"?>
<svg xmlns:xlink="http://www.w3.org/1999/xlink" height="55.6px" width="50.9px" xmlns="http://www.w3.org/2000/svg">
  <g transform="matrix(1.0, 0.0, 0.0, 1.0, 25.45, 27.8)">
    <path d="M-15.6 -11.35 Q-15.6 -11.35 -15.65 -11.3 -15.7 -11.3 -15.75 -11.25 -15.85 -11.25 -15.9 -11.2 -15.95 -11.15 -16.05 -11.1 -16.1 -11.05 -16.15 -11.0 -16.25 -10.9 -16.3 -10.85 -16.4 -10.75 -16.45 -10.65 -16.5 -10.55 -16.55 -10.45 -16.6 -10.35 -16.6 -10.2 -16.65 -10.1 -16.65 -10.0 -16.65 -9.9 -16.65 -9.8 -16.65 -9.7 -16.6 -9.6 -16.6 -9.5 -16.55 -9.45 -16.55 -9.35 -16.5 -9.25 -16.5 -9.2 -16.45 -9.15 -16.45 -9.1 -16.4 -9.05 -16.4 -9.0 -16.35 -9.0 -16.35 -8.95 -16.35 -8.9 -16.3 -8.85 -16.3 -8.8 -16.25 -8.75 -16.2 -8.7 -16.15 -8.65 -16.15 -8.6 -16.1 -8.55 -16.05 -8.5 -16.0 -8.45 -15.95 -8.4 -15.85 -8.35 -15.8 -8.3 -15.7 -8.2 -15.55 -8.15 -15.45 -8.1 -15.35 -8.05 -15.2 -8.0 -15.1 -8.0 -15.0 -7.95 -14.85 -7.95 -14.75 -7.95 -14.65 -7.95 -14.55 -7.95 -14.4 -7.95 -14.35 -7.95 -14.2 -7.95 -14.2 -7.95 -14.05 -7.95 -13.4 -8.0 -12.25 -7.95 -11.0 -7.9 -10.5 -7.95 -10.15 -7.95 -8.8 -8.0 -7.75 -8.0 -7.1 -8.05 -1.9 -8.25 1.45 -8.05 1.45 -8.05 1.6 -8.05 1.75 -8.05 2.0 -8.0 2.3 -8.0 2.65 -8.0 3.05 -7.95 3.5 -7.95 4.0 -7.95 4.55 -7.9 5.2 -7.9 5.8 -7.9 6.55 -7.85 7.25 -7.85 8.0 -7.85 8.8 -7.85 8.8 -7.85 8.85 -7.85 8.9 -7.85 8.95 -7.85 9.05 -7.85 9.15 -7.85 9.25 -7.85 9.4 -7.9 9.5 -7.9 9.7 -7.9 9.85 -7.95 10.05 -8.0 10.25 -8.0 10.45 -8.05 10.7 -8.1 10.95 -8.2 11.1 -8.25 11.2 -8.25 11.3 -8.3 11.4 -8.3 11.45 -8.35 11.55 -8.4 11.65 -8.4 11.7 -8.45 11.75 -8.45 11.8 -8.5 11.85 -8.55 11.9 -8.6 11.95 -8.6 12.0 -8.65 12.05 -8.7 12.1 -8.75 12.15 -8.8 12.2 -8.9 12.25 -8.95 12.3 -9.05 12.35 -9.15 12.4 -9.2 12.45 -9.3 12.5 -9.4 12.55 -9.5 12.55 -9.6 12.55 -9.75 12.55 -9.85 12.55 -9.95 12.55 -10.05 12.55 -10.2 12.5 -10.3 12.45 -10.4 12.4 -10.55 12.35 -10.65 12.25 -10.75 12.15 -10.85 12.05 -10.9 11.95 -11.0 11.85 -11.05 11.75 -11.15 11.6 -11.2 11.45 -11.25 11.35 -11.25 11.2 -11.3 11.05 -11.3 10.9 -11.3 10.75 -11.3 2.0 -11.3 -15.6 -11.35 L-15.6 -11.35" fill="#51ff87" fill-rule="evenodd" stroke="none"/>
    <path d="M-15.25 -2.0 Q-15.25 -2.0 -15.3 -1.95 -15.35 -1.95 -15.4 -1.9 -15.5 -1.9 -15.55 -1.85 -15.6 -1.8 -15.7 -1.75 -15.75 -1.7 -15.85 -1.65 -15.9 -1.55 -15.95 -1.5 -16.05 -1.4 -16.1 -1.3 -16.15 -1.2 -16.2 -1.1 -16.25 -1.0 -16.25 -0.85 -16.3 -0.75 -16.3 -0.65 -16.3 -0.55 -16.3 -0.45 -16.3 -0.35 -16.25 -0.25 -16.25 -0.15 -16.2 -0.1 -16.2 0.0 -16.15 0.1 -16.15 0.15 -16.1 0.2 -16.1 0.25 -16.05 0.3 -16.05 0.35 -16.0 0.35 -16.0 0.4 -16.0 0.45 -15.95 0.5 -15.95 0.55 -15.9 0.6 -15.85 0.65 -15.85 0.7 -15.8 0.75 -15.75 0.8 -15.7 0.85 -15.65 0.9 -15.6 0.95 -15.5 1.0 -15.45 1.05 -15.35 1.15 -15.2 1.2 -15.1 1.25 -15.0 1.3 -14.9 1.35 -14.75 1.35 -14.65 1.4 -14.5 1.4 -14.4 1.4 -14.3 1.4 -14.2 1.4 -14.05 1.4 -14.0 1.4 -13.9 1.4 -13.85 1.4 -13.7 1.4 -13.05 1.35 -11.95 1.4 -10.65 1.45 -10.15 1.4 -9.85 1.4 -8.45 1.35 -7.4 1.35 -6.75 1.3 -1.5 1.1 1.8 1.3 1.8 1.3 1.95 1.3 2.1 1.3 2.35 1.35 2.65 1.35 3.0 1.35 3.4 1.4 3.85 1.4 4.35 1.4 4.9 1.45 5.55 1.45 6.15 1.45 6.85 1.5 7.6 1.5 8.35 1.5 9.15 1.5 9.15 1.5 9.2 1.5 9.25 1.5 9.3 1.5 9.4 1.5 9.5 1.5 9.6 1.5 9.7 1.45 9.85 1.45 10.05 1.45 10.2 1.4 10.4 1.35 10.6 1.35 10.8 1.3 11.05 1.25 11.3 1.15 11.4 1.1 11.55 1.1 11.65 1.05 11.75 1.05 11.8 1.0 11.9 0.95 11.95 0.95 12.05 0.9 12.1 0.9 12.15 0.85 12.2 0.8 12.25 0.75 12.3 0.75 12.35 0.7 12.4 0.65 12.45 0.6 12.5 0.55 12.55 0.45 12.6 0.4 12.65 0.3 12.7 0.2 12.75 0.15 12.8 0.05 12.85 -0.05 12.85 -0.15 12.9 -0.25 12.9 -0.4 12.9 -0.5 12.9 -0.6 12.9 -0.7 12.9 -0.8 12.85 -0.95 12.8 -1.05 12.75 -1.2 12.7 -1.3 12.6 -1.4 12.5 -1.5 12.4 -1.55 12.3 -1.65 12.2 -1.7 12.05 -1.8 11.95 -1.85 11.8 -1.9 11.7 -1.9 11.55 -1.95 11.4 -1.95 11.25 -1.95 11.1 -1.95 2.35 -1.95 -15.25 -2.0 L-15.25 -2.0" fill="#51ff87" fill-rule="evenodd" stroke="none"/>
    <path d="M9.55 6.05 Q5.9 7.6 2.75 8.75 3.15 8.9 3.9 9.2 4.45 9.4 5.45 9.8 6.6 10.25 7.05 10.45 7.55 10.65 8.65 11.2 9.7 11.7 10.3 11.9 10.45 11.95 10.45 11.95 10.55 12.0 10.65 12.0 10.75 12.05 10.85 12.1 10.95 12.15 11.05 12.2 11.15 12.25 11.25 12.35 11.35 12.4 11.45 12.5 11.55 12.55 11.6 12.65 11.7 12.75 11.8 12.9 11.85 12.95 11.85 13.05 11.9 13.1 11.9 13.2 11.95 13.25 11.95 13.3 12.0 13.35 12.0 13.45 12.0 13.5 12.0 13.55 12.0 13.6 12.0 13.65 12.0 13.7 12.05 13.75 12.05 13.75 12.05 13.8 12.05 13.8 12.05 13.9 12.05 14.0 12.05 14.05 12.05 14.15 12.05 14.25 12.0 14.3 12.0 14.4 11.95 14.5 11.95 14.6 11.9 14.7 11.85 14.8 11.8 14.9 11.75 14.95 11.7 15.05 11.6 15.15 11.5 15.25 11.4 15.3 11.35 15.35 11.25 15.4 11.15 15.45 11.05 15.5 10.95 15.55 10.85 15.55 10.8 15.6 10.7 15.6 10.65 15.6 10.55 15.6 10.5 15.6 10.45 15.6 10.4 15.6 10.4 15.6 6.55 13.95 -1.5 10.45 -3.1 11.15 -5.1 12.1 -5.65 12.35 -6.65 12.85 -7.75 13.3 -8.2 13.55 -8.65 13.75 -9.85 14.2 -10.9 14.6 -11.5 14.9 -11.6 14.95 -11.65 15.0 -11.75 15.05 -11.85 15.1 -11.95 15.15 -12.0 15.15 -12.15 15.2 -12.25 15.25 -12.35 15.3 -12.45 15.3 -12.6 15.35 -12.7 15.35 -12.85 15.35 -12.95 15.35 -13.1 15.35 -13.2 15.3 -13.3 15.3 -13.35 15.25 -13.45 15.25 -13.5 15.2 -13.6 15.2 -13.65 15.15 -13.7 15.1 -13.75 15.1 -13.8 15.05 -13.85 15.0 -13.9 15.0 -13.95 14.95 -14.0 14.95 -14.0 14.9 -14.05 14.9 -14.05 14.85 -14.1 14.8 -14.15 14.75 -14.2 14.75 -14.25 14.7 -14.3 14.6 -14.35 14.55 -14.4 14.5 -14.45 14.4 -14.55 14.35 -14.6 14.25 -14.65 14.15 -14.65 14.05 -14.7 13.95 -14.75 13.85 -14.75 13.75 -14.75 13.65 -14.75 13.55 -14.75 13.4 -14.75 13.3 -14.7 13.2 -14.65 13.1 -14.6 13.0 -14.6 12.9 -14.55 12.8 -14.5 12.75 -14.45 12.65 -14.4 12.6 -14.35 12.55 -14.3 12.5 -14.3 12.45 -14.25 12.45 -14.25 12.45 -11.35 11.2 -5.45 8.7 -8.65 7.3 -13.8 5.1 -13.95 5.05 -14.05 5.0 -14.2 4.9 -14.3 4.85 -14.4 4.75 -14.5 4.65 -14.6 4.55 -14.7 4.45 -14.75 4.35 -14.85 4.2 -14.9 4.1 -14.95 3.95 -14.95 3.85 -15.0 3.7 -15.0 3.6 -15.0 3.45 -15.0 3.35 -14.95 3.2 -14.9 3.1 -14.85 3.0 -14.85 2.9 -14.75 2.85 -14.7 2.75 -14.65 2.65 -14.55 2.6 -14.5 2.5 -14.4 2.45 -14.3 2.4 -14.25 2.35 -14.15 2.3 -14.1 2.25 -14.0 2.2 -13.95 2.2 -13.9 2.15 -13.85 2.15 -13.8 2.1 -13.7 2.1 -13.65 2.1 -13.6 2.1 -13.5 2.1 -13.45 2.1 -13.35 2.1 -13.25 2.1 -13.15 2.1 -13.1 2.1 -12.95 2.1 -12.85 2.15 -12.75 2.15 -12.5 2.2 -12.25 2.25 -12.05 2.25 -11.85 2.3 -11.65 2.35 -11.45 2.4 -11.3 2.45 -11.15 2.5 -11.05 2.55 -10.95 2.55 -10.85 2.6 -10.75 2.65 -10.7 2.65 -10.65 2.65 -10.65 2.7 -10.6 2.7 -7.3 4.25 -3.95 5.8 -3.8 5.9 -3.65 5.95 -3.5 6.05 -3.3 6.1 -3.15 6.2 -3.0 6.25 -2.85 6.35 -2.7 6.4 -2.55 6.5 -2.4 6.55 -2.2 6.65 -2.05 6.7 -1.9 6.8 -1.75 6.85 -1.6 6.9 -1.45 7.0 2.45 5.3 10.0 2.1 10.15 2.05 10.25 2.0 10.4 1.95 10.55 1.9 10.7 1.85 10.85 1.85 10.95 1.85 11.1 1.9 11.25 1.9 11.35 1.95 11.5 1.95 11.6 2.0 11.7 2.1 11.8 2.15 11.9 2.25 12.0 2.35 12.1 2.45 12.15 2.55 12.2 2.6 12.25 2.75 12.3 2.8 12.3 2.95 12.35 3.05 12.35 3.15 12.35 3.25 12.35 3.35 12.35 3.45 12.35 3.55 12.3 3.65 12.3 3.75 12.3 3.85 12.25 3.9 12.25 3.95 12.2 4.0 12.2 4.05 12.15 4.1 12.1 4.2 12.1 4.25 12.05 4.3 12.0 4.35 11.95 4.4 11.9 4.45 11.85 4.5 11.75 4.6 11.7 4.65 11.6 4.7 11.5 4.8 11.4 4.85 11.2 5.0 11.0 5.15 10.85 5.3 10.65 5.4 10.5 5.5 10.35 5.6 10.2 5.7 10.1 5.75 9.95 5.85 9.85 5.9 9.8 5.95 9.7 6.0 9.65 6.0 9.6 6.0 9.6 6.05 9.55 6.05 L9.55 6.05" fill="#51ff87" fill-rule="evenodd" stroke="none"/>
  </g>
</svg>
