<?xml version="1.0" encoding="UTF-8" standalone="no"?>
<svg xmlns:xlink="http://www.w3.org/1999/xlink" height="71.8px" width="46.8px" xmlns="http://www.w3.org/2000/svg">
  <g transform="matrix(1.0, 0.0, 0.0, 1.0, 23.45, 35.9)">
    <path d="M3.8 33.95 Q3.35 34.95 3.05 35.4 3.0 35.5 2.9 35.6 2.85 35.7 2.8 35.75 2.7 35.8 2.65 35.85 2.55 35.9 2.45 35.9 2.4 35.95 2.3 35.9 2.2 35.9 2.1 35.9 2.05 35.85 1.95 35.8 1.85 35.75 1.7 35.65 1.35 35.4 1.05 35.1 0.75 34.8 0.5 34.5 0.25 34.15 0.05 33.85 -0.15 33.5 -0.35 33.15 -0.5 32.8 -0.6 32.45 -0.7 32.05 -0.75 31.65 -0.8 31.25 -0.8 30.85 -0.8 30.4 -0.75 29.95 -0.6 28.15 -0.3 27.3 -0.3 27.25 -0.35 26.95 -0.35 26.9 -1.6 19.95 -1.65 19.55 -1.75 19.15 -1.8 18.75 -1.85 18.35 -1.9 17.95 -1.95 17.55 -2.0 17.1 -2.1 16.7 -2.15 16.3 -2.15 15.9 -2.2 15.5 -2.25 15.1 -2.3 14.65 -2.35 14.25 -2.4 13.85 -2.4 13.45 -2.45 13.0 -2.65 10.05 -2.65 9.8 -2.65 9.85 -2.65 9.75 -2.8 9.7 -2.9 9.75 -2.9 9.85 -2.9 9.75 -2.9 10.0 -2.9 12.25 -3.2 19.0 -3.2 19.4 -3.25 19.8 -3.3 20.2 -3.3 20.6 -3.35 21.0 -3.4 21.4 -3.4 21.8 -3.45 22.2 -3.5 22.6 -3.55 23.0 -3.6 23.4 -3.65 23.8 -3.7 24.2 -3.75 24.6 -3.8 25.0 -3.9 25.4 -3.9 25.45 -3.9 25.5 -3.9 25.55 -3.95 25.65 -3.95 25.7 -3.95 25.75 -3.95 25.8 -3.95 25.85 -4.0 25.9 -4.0 26.0 -4.0 26.05 -4.0 26.1 -4.05 26.15 -4.05 26.2 -4.1 26.25 -4.1 26.3 -4.1 26.35 -4.15 26.4 -4.15 26.45 -4.15 26.5 -4.15 26.55 -4.15 26.6 -4.15 26.65 -4.15 26.7 -4.15 26.75 -4.1 26.8 -4.1 26.8 -4.1 26.85 -4.1 26.9 -4.05 26.95 -4.05 27.0 -4.0 27.05 -3.9 27.25 -3.8 27.45 -3.7 27.65 -3.6 27.85 -3.5 28.1 -3.45 28.3 -3.35 28.5 -3.3 28.7 -3.25 28.95 -3.2 29.15 -3.15 29.35 -3.1 29.6 -3.05 29.8 -3.05 30.05 -3.0 30.25 -3.0 30.5 -3.0 30.7 -3.0 30.85 -3.05 31.05 -3.05 31.25 -3.1 31.45 -3.15 31.6 -3.2 31.8 -3.25 31.95 -3.3 32.15 -3.35 32.3 -3.45 32.5 -3.5 32.65 -3.6 32.85 -3.7 33.0 -3.8 33.15 -3.9 33.35 -3.95 33.4 -4.0 33.45 -4.05 33.5 -4.05 33.55 -4.1 33.6 -4.15 33.6 -4.2 33.65 -4.25 33.6 -4.3 33.6 -4.3 33.6 -4.35 33.6 -4.4 33.55 -4.45 33.5 -4.5 33.45 -4.55 33.4 -4.6 33.35 -4.6 33.35 -4.65 33.25 -4.65 33.2 -4.7 33.2 -4.7 33.15 -4.75 33.15 -4.75 33.1 -4.8 33.1 -4.8 33.05 -4.9 33.05 -4.95 33.15 -5.1 33.4 -5.25 33.65 -5.3 33.7 -5.35 33.8 -5.4 33.85 -5.45 33.95 -5.5 34.0 -5.55 34.1 -5.65 34.15 -5.7 34.2 -5.75 34.3 -5.85 34.35 -5.9 34.4 -5.95 34.45 -6.05 34.5 -6.05 34.5 -6.2 34.6 -6.3 34.7 -6.35 34.75 -6.4 34.8 -6.45 34.8 -6.45 34.8 -6.5 34.85 -6.55 34.85 -6.6 34.85 -6.6 34.85 -6.65 34.85 -6.7 34.85 -6.75 34.8 -6.8 34.8 -6.8 34.8 -6.85 34.8 -6.9 34.75 -6.95 34.75 -6.95 34.7 -7.1 34.6 -7.2 34.5 -7.35 34.45 -7.45 34.35 -7.6 34.25 -7.7 34.1 -7.8 34.0 -7.9 33.9 -8.0 33.8 -8.1 33.65 -8.2 33.55 -8.3 33.4 -8.35 33.25 -8.45 33.15 -8.5 33.0 -8.55 32.85 -8.65 32.6 -8.75 32.35 -8.8 32.05 -8.85 31.8 -8.95 31.55 -8.95 31.25 -9.0 31.0 -9.0 30.75 -9.05 30.45 -9.05 30.2 -9.05 29.95 -9.0 29.65 -9.0 29.4 -8.95 29.15 -8.9 28.85 -8.85 28.6 -8.8 28.45 -8.8 28.35 -8.75 28.2 -8.7 28.05 -8.7 27.9 -8.65 27.8 -8.6 27.65 -8.55 27.55 -8.5 27.4 -8.45 27.25 -8.4 27.15 -8.35 27.0 -8.3 26.9 -8.2 26.75 -8.15 26.65 -8.1 26.55 -8.1 26.5 -8.05 26.5 -8.05 26.45 -8.05 26.45 -8.05 26.4 -8.0 26.4 -8.0 26.35 -8.0 26.3 -8.0 26.3 -8.0 26.25 -8.0 26.25 -8.0 26.2 -8.0 26.2 -8.0 26.15 -8.0 26.1 -8.0 26.1 -8.0 26.0 -8.0 25.9 -8.0 25.8 -8.0 25.7 -8.0 25.6 -8.0 25.45 -8.0 25.35 -8.05 25.25 -8.05 25.15 -8.05 25.05 -8.05 24.85 -8.1 24.85 -8.1 24.7 -8.1 24.6 -8.1 24.5 -8.1 24.4 -8.3 21.7 -8.05 14.75 -8.05 14.15 -8.0 13.1 -7.95 11.9 -7.9 11.45 -7.9 10.95 -7.75 7.4 -7.75 7.15 -7.75 7.1 -7.8 7.0 -7.85 6.95 -7.95 6.95 -8.15 6.9 -8.45 6.8 -8.75 6.75 -9.05 6.65 -9.3 6.6 -9.6 6.5 -9.9 6.45 -10.15 6.35 -10.45 6.25 -10.75 6.15 -11.0 6.05 -11.3 5.95 -11.55 5.85 -11.85 5.75 -12.15 5.65 -12.4 5.55 -12.7 5.4 -12.8 5.35 -12.9 5.3 -13.0 5.25 -13.1 5.2 -13.2 5.15 -13.3 5.1 -13.4 5.05 -13.5 5.0 -13.6 4.95 -13.7 4.9 -13.8 4.8 -13.85 4.75 -13.95 4.7 -14.05 4.6 -14.15 4.55 -14.2 4.45 -14.4 4.3 -14.55 4.1 -14.7 3.95 -14.85 3.8 -14.95 3.6 -15.05 3.4 -15.15 3.2 -15.2 3.0 -15.3 2.8 -15.35 2.6 -15.35 2.4 -15.4 2.2 -15.4 1.95 -15.35 1.75 -15.35 1.5 -15.3 1.25 -15.25 0.95 -15.15 0.65 -15.05 0.4 -14.95 0.1 -14.9 -0.2 -14.8 -0.5 -14.7 -0.75 -14.6 -1.05 -14.5 -1.35 -14.4 -1.6 -14.25 -1.9 -14.15 -2.15 -14.05 -2.45 -13.9 -2.75 -13.8 -3.0 -13.7 -3.3 -11.0 -9.2 -9.1 -12.7 -8.9 -13.1 -8.65 -13.5 -8.45 -13.9 -8.2 -14.3 -8.0 -14.7 -7.75 -15.05 -7.5 -15.45 -7.25 -15.85 -7.0 -16.2 -6.75 -16.6 -6.5 -16.95 -6.2 -17.3 -5.95 -17.65 -5.65 -18.0 -5.35 -18.35 -5.0 -18.7 -5.0 -18.7 -4.95 -18.75 -4.95 -18.8 -4.95 -18.8 -4.95 -18.85 -4.95 -18.9 -6.55 -18.85 -7.0 -18.9 -7.5 -18.95 -7.9 -19.05 -8.4 -19.15 -8.8 -19.3 -9.2 -19.4 -9.6 -19.6 -10.0 -19.8 -10.35 -20.0 -10.75 -20.25 -11.05 -20.5 -11.4 -20.8 -11.7 -21.1 -12.0 -21.45 -12.25 -21.8 -12.55 -22.15 -12.75 -22.6 -12.9 -22.9 -13.05 -23.2 -13.15 -23.5 -13.25 -23.8 -13.35 -24.1 -13.4 -24.4 -13.45 -24.7 -13.5 -25.0 -13.5 -25.3 -13.5 -25.6 -13.5 -25.9 -13.45 -26.25 -13.4 -26.55 -13.3 -26.85 -13.25 -27.15 -13.15 -27.5 -13.15 -27.55 -13.1 -27.6 -13.1 -27.6 -13.1 -27.65 -13.05 -27.7 -13.05 -27.75 -13.05 -27.8 -13.05 -27.85 -13.05 -27.85 -13.05 -27.9 -13.0 -27.95 -13.0 -28.0 -13.0 -28.05 -13.0 -28.1 -13.0 -28.15 -13.05 -28.2 -13.05 -28.35 -13.05 -28.45 -13.05 -28.6 -13.05 -28.7 -13.0 -28.85 -13.0 -28.95 -12.95 -29.05 -12.9 -29.15 -12.85 -29.25 -12.8 -29.35 -12.7 -29.45 -12.65 -29.55 -12.55 -29.65 -12.45 -29.75 -12.4 -29.85 -12.25 -29.9 -12.2 -29.95 -12.2 -29.95 -12.15 -30.0 -12.1 -30.0 -12.1 -30.05 -12.05 -30.05 -12.0 -30.1 -11.95 -30.1 -11.95 -30.15 -11.9 -30.15 -11.75 -30.2 -11.6 -30.25 -11.5 -30.3 -11.35 -30.4 -11.2 -30.45 -11.05 -30.55 -10.95 -30.6 -10.8 -30.65 -10.7 -30.75 -10.5 -30.8 -10.25 -30.95 -10.25 -30.95 -10.1 -31.05 -10.0 -31.1 -9.85 -31.2 -9.7 -31.25 -9.15 -31.55 -8.5 -31.75 -7.95 -31.9 -7.3 -32.0 -6.7 -32.1 -6.05 -32.1 -5.45 -32.05 -4.85 -31.95 -4.25 -31.85 -3.65 -31.65 -3.1 -31.45 -2.55 -31.15 -2.0 -30.85 -1.5 -30.5 -1.0 -30.1 -0.6 -29.65 -0.4 -29.4 0.15 -28.65 0.2 -28.65 0.25 -28.65 0.3 -28.65 0.35 -28.7 0.35 -28.7 0.4 -28.75 0.4 -28.75 0.45 -28.8 0.5 -28.85 0.55 -28.85 1.15 -29.35 1.9 -29.7 2.6 -30.05 3.35 -30.3 4.1 -30.5 4.85 -30.55 5.65 -30.65 6.4 -30.6 7.15 -30.5 7.9 -30.3 8.65 -30.1 9.35 -29.8 10.05 -29.45 10.65 -28.95 11.3 -28.5 11.85 -27.9 11.9 -27.85 11.9 -27.8 11.95 -27.8 12.0 -27.75 12.05 -27.7 12.05 -27.7 12.1 -27.65 12.15 -27.6 12.2 -27.6 12.25 -27.55 12.3 -27.55 12.35 -27.5 12.35 -27.5 12.45 -27.45 12.4 -27.5 12.5 -27.4 12.65 -27.35 12.75 -27.25 12.9 -27.2 13.05 -27.1 13.15 -27.0 13.25 -26.9 13.4 -26.85 13.5 -26.75 13.6 -26.6 13.65 -26.5 13.75 -26.4 13.85 -26.25 13.9 -26.15 13.95 -26.0 14.05 -25.85 14.1 -25.7 14.15 -25.6 14.15 -25.45 14.15 -25.35 14.2 -25.25 14.2 -25.15 14.2 -25.05 14.2 -24.9 14.15 -24.8 14.15 -24.7 14.1 -24.6 14.05 -24.5 14.0 -24.4 13.95 -24.3 13.9 -24.2 13.8 -24.1 13.75 -24.05 13.7 -24.0 13.7 -24.0 13.65 -23.95 13.65 -23.95 13.65 -23.9 13.65 -23.85 13.6 -23.85 13.6 -23.8 13.6 -23.8 13.6 -23.75 13.6 -23.7 13.6 -23.7 13.6 -23.65 13.6 -23.65 13.6 -23.6 13.6 -23.55 13.6 -22.9 13.5 -22.25 13.4 -21.6 13.2 -21.0 13.0 -20.4 12.65 -19.85 12.35 -19.3 11.95 -18.85 11.55 -18.35 11.1 -17.95 10.6 -17.55 10.1 -17.2 9.55 -16.9 8.95 -16.65 8.4 -16.4 7.8 -16.25 7.55 -16.2 7.45 -16.15 7.35 -16.1 7.35 -16.0 7.35 -15.9 7.35 -15.6 7.75 -12.15 8.7 -4.9 9.2 -0.9 9.7 3.8 9.75 4.15 9.75 4.55 9.8 4.9 9.8 5.25 9.8 5.65 9.8 6.0 9.8 6.35 9.8 6.75 9.75 7.1 9.7 7.45 9.65 7.8 9.6 8.2 9.55 8.55 9.45 8.9 9.4 9.25 9.3 9.6 9.15 10.0 9.15 10.1 9.1 10.15 9.1 10.25 9.05 10.3 9.0 10.35 8.95 10.4 8.9 10.45 8.85 10.5 8.8 10.55 8.75 10.6 8.7 10.65 8.65 10.65 8.6 10.7 8.5 10.7 8.45 10.75 8.4 10.75 8.3 10.8 7.95 10.85 7.65 10.9 7.3 10.95 6.95 11.0 6.65 11.0 6.3 11.05 5.95 11.05 5.6 11.1 5.3 11.1 4.95 11.1 4.6 11.1 4.25 11.1 3.95 11.1 3.6 11.1 3.25 11.1 2.9 11.05 2.85 11.05 2.55 11.05 2.5 11.05 2.5 11.05 2.45 11.1 2.45 11.15 2.45 11.2 2.45 11.25 2.45 11.25 2.45 11.3 2.45 11.35 2.45 11.4 2.45 11.45 2.45 11.5 2.5 12.0 2.5 12.45 2.55 12.95 2.6 13.45 2.6 13.9 2.65 14.4 2.7 14.9 2.75 15.35 2.8 15.85 2.8 16.35 2.85 16.8 2.9 17.3 2.95 17.8 3.0 18.25 3.05 18.75 3.1 19.25 3.25 20.45 3.6 23.85 3.65 24.25 4.1 27.0 4.1 27.05 4.1 27.1 4.1 27.1 4.15 27.15 4.15 27.2 4.15 27.25 4.15 27.25 4.2 27.3 4.2 27.35 4.2 27.35 4.25 27.4 4.25 27.45 4.3 27.45 4.3 27.5 4.35 27.55 4.35 27.55 4.5 27.7 4.6 27.9 4.75 28.05 4.85 28.25 4.95 28.4 5.05 28.6 5.1 28.8 5.2 29.0 5.25 29.15 5.35 29.35 5.4 29.55 5.45 29.75 5.5 29.95 5.55 30.15 5.55 30.35 5.6 30.55 5.65 30.8 5.65 31.05 5.65 31.3 5.65 31.55 5.6 31.75 5.55 32.0 5.5 32.25 5.45 32.45 5.35 32.65 5.25 32.9 5.15 33.1 5.0 33.3 4.85 33.5 4.7 33.65 4.55 33.85 4.35 34.05 4.3 34.1 4.25 34.1 4.25 34.15 4.2 34.15 4.15 34.15 4.15 34.15 4.1 34.15 4.05 34.15 4.05 34.15 4.0 34.1 4.0 34.1 3.95 34.05 3.9 34.05 3.9 34.0 3.85 34.0 3.8 33.95 L3.8 33.95 M-1.0 -19.4 Q-1.05 -19.35 -1.1 -19.25 -1.15 -19.2 -1.2 -19.1 -1.2 -19.05 -1.25 -19.0 -1.3 -18.9 -1.3 -18.85 -1.35 -18.75 -1.35 -18.7 -1.4 -18.65 -1.4 -18.55 -1.45 -18.5 -1.45 -18.4 -1.5 -18.25 -1.5 -18.3 -2.15 -16.35 -2.95 -13.2 -4.2 -7.8 -4.45 -6.3 -4.55 -5.85 -4.6 -5.35 -4.7 -4.9 -4.75 -4.45 -4.85 -3.95 -4.9 -3.5 -4.95 -3.05 -5.05 -2.55 -5.1 -2.1 -5.15 -1.65 -5.2 -1.15 -5.25 -0.7 -5.3 -0.2 -5.35 0.25 -5.4 0.7 -5.45 1.2 -5.45 1.5 -5.5 1.75 -5.5 2.0 -5.5 2.25 -5.55 2.55 -5.55 2.8 -5.55 3.1 -5.55 3.35 -5.55 3.6 -5.55 3.85 -5.55 4.15 -5.55 4.4 -5.55 4.7 -5.55 4.95 -5.5 5.25 -5.5 5.5 -5.5 5.7 -5.45 5.85 -5.4 6.0 -5.4 6.15 -5.35 6.35 -5.25 6.5 -5.2 6.65 -5.15 6.75 -5.05 6.9 -4.95 7.05 -4.9 7.15 -4.75 7.3 -4.65 7.4 -4.55 7.5 -4.4 7.65 -4.25 7.75 -3.5 8.25 -3.1 8.45 -2.45 8.75 -1.8 9.0 -1.15 9.25 -0.45 9.45 0.2 9.65 0.85 9.75 1.55 9.9 2.2 10.0 2.9 10.1 3.6 10.1 4.25 10.15 4.95 10.15 5.65 10.1 6.35 10.05 7.05 10.0 7.75 9.9 7.8 9.9 7.9 9.85 7.95 9.85 8.0 9.85 8.05 9.8 8.1 9.8 8.15 9.75 8.15 9.7 8.2 9.7 8.25 9.65 8.25 9.6 8.3 9.55 8.3 9.5 8.35 9.45 8.35 9.4 8.35 9.35 8.45 9.05 8.5 8.75 8.55 8.45 8.65 8.15 8.7 7.85 8.75 7.55 8.75 7.25 8.8 6.95 8.8 6.65 8.85 6.35 8.85 6.05 8.85 5.75 8.85 5.4 8.85 5.1 8.8 4.8 8.8 4.5 8.4 0.7 7.75 -4.35 7.7 -4.65 7.05 -9.85 6.65 -13.15 6.45 -15.35 6.45 -15.5 6.4 -15.55 6.4 -15.65 6.4 -15.75 6.35 -15.8 6.35 -15.85 6.35 -15.9 6.3 -15.9 6.25 -15.95 6.2 -15.95 6.15 -16.0 6.1 -16.0 6.05 -16.0 5.95 -16.0 5.85 -16.0 5.7 -16.0 5.45 -16.0 5.4 -15.95 5.3 -15.95 5.3 -15.85 5.3 -15.8 5.3 -15.55 5.5 -13.6 5.4 -9.85 5.3 -5.35 5.35 -4.55 5.4 -3.05 5.55 -0.7 5.8 2.75 5.8 3.15 5.8 3.3 5.8 3.45 5.85 3.6 5.85 3.7 5.85 3.85 5.85 4.0 5.85 4.1 5.85 4.25 5.85 4.4 5.85 4.55 5.85 4.65 5.85 4.8 5.85 4.95 5.8 5.1 5.8 5.2 5.75 5.35 5.7 5.5 5.7 5.65 5.65 5.8 5.55 5.95 5.5 6.05 5.45 6.15 5.35 6.25 5.25 6.35 5.15 6.45 5.05 6.5 4.95 6.55 4.8 6.6 4.7 6.65 4.55 6.65 4.4 6.7 4.2 6.7 4.1 6.7 3.75 6.7 3.5 6.7 3.3 6.65 3.05 6.65 2.85 6.65 2.6 6.6 2.4 6.55 2.15 6.55 1.9 6.5 1.7 6.45 1.45 6.4 1.25 6.4 1.0 6.35 0.8 6.3 0.55 6.25 0.35 6.2 0.1 6.15 -0.15 6.1 -0.3 6.0 -0.5 5.95 -0.65 5.85 -0.85 5.8 -0.95 5.7 -1.1 5.6 -1.2 5.45 -1.3 5.35 -1.35 5.2 -1.45 5.05 -1.5 4.85 -1.55 4.7 -1.55 4.45 -1.6 4.25 -1.6 4.05 -1.65 3.6 -1.6 2.75 -1.6 2.5 -1.55 2.1 -1.5 1.55 -1.5 1.45 -1.2 -2.95 -1.1 -3.6 -1.05 -4.0 -1.05 -4.35 -1.0 -4.75 -0.95 -5.15 -0.95 -5.5 -0.9 -5.9 -0.85 -6.25 -0.8 -6.65 -0.75 -7.05 -0.7 -7.4 -0.65 -7.8 -0.6 -8.15 -0.55 -8.55 -0.5 -8.95 -0.45 -9.3 -0.4 -9.7 -0.35 -10.1 -0.25 -10.65 -0.2 -10.95 -0.1 -11.55 -0.05 -12.2 0.0 -12.5 0.1 -13.05 0.15 -13.45 0.25 -13.95 0.3 -14.4 0.4 -14.85 0.5 -15.3 0.6 -15.8 0.7 -16.25 0.85 -16.7 0.95 -17.15 0.95 -17.2 1.0 -17.25 1.0 -17.3 1.0 -17.3 1.0 -17.35 0.95 -17.4 0.95 -17.4 0.95 -17.45 0.9 -17.45 0.85 -17.5 0.7 -17.6 0.6 -17.7 0.45 -17.8 0.35 -17.9 0.2 -18.0 0.1 -18.1 -0.05 -18.25 -0.15 -18.35 -0.25 -18.45 -0.4 -18.6 -0.5 -18.7 -0.6 -18.85 -0.7 -19.0 -0.8 -19.1 -0.9 -19.25 -1.0 -19.4 L-1.0 -19.4 M-1.95 -19.9 Q-2.05 -19.85 -2.15 -19.85 -2.2 -19.8 -2.25 -19.8 -2.35 -19.75 -2.4 -19.7 -2.45 -19.7 -2.55 -19.65 -2.6 -19.6 -2.65 -19.55 -2.7 -19.55 -2.75 -19.5 -2.85 -19.45 -2.9 -19.35 -3.0 -19.3 -3.05 -19.25 -3.35 -19.0 -3.65 -18.7 -3.9 -18.45 -4.2 -18.15 -4.45 -17.85 -4.75 -17.55 -5.0 -17.25 -5.25 -16.95 -5.5 -16.65 -5.75 -16.35 -5.95 -16.0 -6.2 -15.7 -6.4 -15.4 -6.65 -15.05 -6.85 -14.7 -7.05 -14.35 -7.5 -13.6 -7.95 -12.8 -8.35 -12.05 -8.8 -11.25 -9.2 -10.45 -9.6 -9.65 -10.0 -8.85 -10.4 -8.05 -10.8 -7.25 -11.2 -6.45 -11.55 -5.65 -11.95 -4.8 -12.3 -4.0 -12.65 -3.15 -13.0 -2.4 -13.35 -1.5 -13.45 -1.35 -13.5 -1.15 -13.55 -1.0 -13.65 -0.8 -13.7 -0.65 -13.75 -0.45 -13.8 -0.3 -13.9 -0.1 -13.95 0.05 -14.0 0.25 -14.05 0.45 -14.1 0.6 -14.15 0.8 -14.2 0.95 -14.25 1.15 -14.3 1.35 -14.35 1.55 -14.4 1.75 -14.4 1.9 -14.4 2.1 -14.4 2.25 -14.35 2.45 -14.35 2.6 -14.3 2.75 -14.2 2.9 -14.15 3.05 -14.05 3.2 -13.95 3.35 -13.85 3.5 -13.7 3.65 -13.55 3.75 -13.4 3.9 -13.35 3.95 -13.25 4.0 -13.2 4.05 -13.15 4.1 -13.05 4.1 -13.0 4.15 -12.95 4.2 -12.85 4.25 -12.8 4.3 -12.7 4.3 -12.65 4.35 -12.55 4.4 -12.5 4.4 -12.4 4.45 -12.35 4.5 -12.3 4.55 -12.05 4.65 -11.8 4.75 -11.55 4.85 -11.3 4.95 -11.0 5.05 -10.75 5.15 -10.5 5.2 -10.25 5.3 -10.0 5.4 -9.7 5.45 -9.45 5.55 -9.2 5.6 -8.95 5.7 -8.65 5.75 -8.4 5.8 -8.15 5.9 -6.85 6.15 -6.35 6.2 -6.4 6.0 -6.4 5.85 -6.45 5.65 -6.45 5.5 -6.5 5.3 -6.5 5.1 -6.5 4.95 -6.5 4.75 -6.5 4.6 -6.55 4.4 -6.55 4.25 -6.55 4.05 -6.55 3.9 -6.5 3.7 -6.5 3.55 -6.5 3.35 -6.5 3.3 -6.5 3.2 -6.5 3.15 -6.5 3.1 -6.55 3.05 -6.55 3.0 -6.6 2.95 -6.6 2.95 -6.65 2.9 -6.65 2.85 -6.7 2.8 -6.75 2.8 -6.8 2.75 -6.85 2.75 -6.9 2.7 -6.95 2.7 -7.05 2.65 -7.2 2.6 -7.3 2.55 -7.4 2.5 -7.55 2.45 -7.65 2.4 -7.75 2.35 -7.85 2.3 -7.95 2.25 -8.1 2.2 -8.2 2.1 -8.3 2.05 -8.4 1.95 -8.5 1.9 -8.6 1.8 -8.7 1.75 -8.8 1.65 -8.9 1.55 -9.0 1.45 -9.05 1.35 -9.15 1.25 -9.2 1.15 -9.3 1.05 -9.35 0.95 -9.4 0.8 -9.45 0.7 -9.5 0.6 -9.5 0.45 -9.55 0.35 -9.55 0.2 -9.6 0.05 -9.6 -0.1 -9.6 -0.25 -9.6 -0.35 -9.6 -0.5 -9.6 -0.65 -9.6 -0.75 -9.55 -0.9 -9.55 -1.05 -9.5 -1.2 -9.5 -1.3 -9.5 -1.45 -9.45 -1.6 -9.4 -1.7 -9.4 -1.85 -9.35 -2.0 -9.35 -2.1 -9.3 -2.25 -9.2 -2.55 -9.1 -2.9 -9.05 -3.2 -8.95 -3.5 -8.8 -3.8 -8.7 -4.1 -8.6 -4.4 -8.45 -4.7 -8.35 -5.0 -8.2 -5.3 -8.1 -5.55 -7.95 -5.9 -7.85 -6.15 -7.7 -6.45 -7.6 -6.7 -7.4 -7.05 -7.25 -7.4 -7.05 -7.75 -6.9 -8.1 -6.75 -8.45 -6.55 -8.8 -6.35 -9.15 -6.2 -9.5 -6.0 -9.85 -5.8 -10.2 -5.65 -10.5 -5.45 -10.85 -5.25 -11.2 -5.05 -11.55 -4.85 -11.85 -4.6 -12.2 -4.4 -12.5 -4.35 -12.6 -4.25 -12.7 -4.2 -12.8 -4.15 -12.9 -4.1 -13.05 -4.05 -13.15 -4.0 -13.25 -3.95 -13.35 -3.9 -13.45 -3.85 -13.55 -3.85 -13.7 -3.8 -13.8 -3.75 -13.9 -3.75 -14.0 -3.7 -14.15 -3.65 -14.25 -3.6 -14.55 -3.5 -14.85 -3.45 -15.15 -3.35 -15.45 -3.3 -15.75 -3.2 -16.0 -3.15 -16.3 -3.05 -16.6 -2.95 -16.9 -2.9 -17.2 -2.8 -17.5 -2.7 -17.8 -2.6 -18.05 -2.5 -18.35 -2.4 -18.65 -2.3 -18.95 -2.25 -19.05 -1.95 -19.9 L-1.95 -19.9 M8.0 -17.35 Q8.15 -17.4 8.25 -17.4 8.4 -17.45 8.5 -17.5 8.6 -17.55 8.75 -17.6 8.85 -17.65 8.95 -17.7 9.05 -17.75 9.2 -17.8 9.3 -17.85 9.4 -17.95 9.5 -18.0 9.6 -18.05 9.7 -18.15 9.8 -18.2 10.15 -18.45 10.4 -18.7 10.7 -18.95 10.95 -19.2 11.2 -19.45 11.45 -19.75 11.65 -20.05 11.85 -20.35 12.0 -20.7 12.15 -21.0 12.3 -21.35 12.4 -21.7 12.5 -22.1 12.55 -22.45 12.6 -22.85 12.6 -23.25 12.6 -23.3 12.6 -23.35 12.6 -23.4 12.6 -23.4 12.6 -23.45 12.6 -23.5 12.55 -23.5 12.55 -23.55 12.55 -23.6 12.5 -23.6 12.5 -23.6 12.45 -23.65 12.4 -23.65 12.35 -23.65 12.3 -23.7 12.25 -23.7 12.15 -23.7 11.1 -23.95 9.25 -24.4 8.85 -24.45 8.4 -24.5 7.95 -24.5 7.55 -24.55 7.1 -24.5 6.65 -24.5 6.2 -24.5 5.8 -24.45 5.35 -24.4 4.95 -24.35 4.5 -24.25 4.05 -24.2 3.65 -24.1 3.2 -24.0 2.8 -23.9 2.4 -23.8 1.95 -23.65 1.75 -23.6 1.6 -23.5 1.4 -23.45 1.25 -23.35 1.05 -23.3 0.9 -23.2 0.7 -23.1 0.55 -23.0 0.4 -22.9 0.25 -22.8 0.1 -22.7 -0.05 -22.6 -0.2 -22.45 -0.35 -22.35 -0.5 -22.2 -0.65 -22.05 -0.65 -22.05 -0.7 -22.0 -0.8 -21.95 -0.8 -21.95 -0.85 -21.9 -0.85 -21.85 -0.9 -21.8 -0.85 -21.75 -0.85 -21.7 -0.85 -21.65 -0.8 -21.6 -0.8 -21.55 -0.8 -21.5 -0.8 -21.4 -0.8 -21.3 -0.8 -21.3 -0.8 -21.25 -0.8 -21.2 -0.8 -21.1 -0.8 -21.05 -0.8 -21.0 -0.75 -20.95 -0.75 -20.9 -0.7 -20.85 -0.45 -20.35 -0.15 -19.85 0.15 -19.4 0.55 -19.05 0.95 -18.65 1.4 -18.35 1.8 -18.0 2.3 -17.75 2.8 -17.5 3.3 -17.35 3.8 -17.2 4.35 -17.1 4.85 -17.0 5.4 -16.95 5.95 -16.95 6.45 -17.0 6.5 -17.0 6.55 -17.0 6.6 -17.0 6.6 -17.05 6.65 -17.05 6.7 -17.05 6.7 -17.05 6.75 -17.1 6.75 -17.1 6.75 -17.15 6.8 -17.2 6.8 -17.2 6.8 -17.25 6.8 -17.3 6.8 -17.35 6.8 -17.4 6.85 -18.15 6.65 -20.45 6.65 -20.5 6.65 -20.55 6.6 -20.6 6.6 -20.65 6.6 -20.7 6.55 -20.75 6.55 -20.8 6.5 -20.8 6.5 -20.85 6.45 -20.9 6.45 -20.95 6.4 -20.95 6.35 -21.0 6.3 -21.05 6.25 -21.05 6.2 -21.1 6.15 -21.15 6.05 -21.2 6.0 -21.25 5.95 -21.3 5.9 -21.35 5.85 -21.4 5.8 -21.5 5.75 -21.55 5.75 -21.6 5.7 -21.7 5.7 -21.8 5.7 -21.85 5.7 -21.95 5.7 -22.05 5.7 -22.1 5.7 -22.2 5.7 -22.3 5.75 -22.4 5.8 -22.45 5.85 -22.55 5.85 -22.6 5.9 -22.7 5.95 -22.75 6.05 -22.8 6.1 -22.9 6.15 -22.95 6.25 -23.0 6.3 -23.0 6.4 -23.05 6.5 -23.1 6.55 -23.1 6.65 -23.1 6.7 -23.1 6.8 -23.1 6.85 -23.15 6.9 -23.15 6.95 -23.15 7.0 -23.15 7.1 -23.15 7.15 -23.1 7.2 -23.1 7.25 -23.1 7.3 -23.1 7.4 -23.05 7.45 -23.05 7.5 -23.05 7.55 -23.0 7.6 -23.0 7.7 -22.95 7.85 -22.85 7.95 -22.75 8.05 -22.65 8.15 -22.55 8.2 -22.4 8.25 -22.3 8.3 -22.15 8.35 -22.0 8.35 -21.9 8.3 -21.75 8.3 -21.6 8.25 -21.5 8.15 -21.35 8.05 -21.25 7.9 -21.15 7.85 -21.1 7.85 -21.1 7.8 -21.05 7.8 -21.0 7.8 -20.95 7.8 -20.95 7.75 -20.9 7.75 -20.85 7.75 -20.8 7.8 -20.75 7.85 -20.55 7.85 -20.35 7.9 -20.1 7.9 -19.9 7.95 -19.7 7.95 -19.5 7.95 -19.3 8.0 -19.1 8.0 -18.85 8.0 -18.65 8.0 -18.45 8.0 -18.25 8.0 -18.0 8.0 -17.8 8.0 -17.55 8.0 -17.35 L8.0 -17.35 M1.95 -16.85 Q1.9 -16.75 1.85 -16.6 1.8 -16.5 1.75 -16.35 1.7 -16.2 1.65 -16.1 1.6 -15.95 1.6 -15.8 1.55 -15.65 1.55 -15.5 1.5 -15.35 1.5 -15.25 1.45 -15.1 1.45 -15.0 1.45 -14.85 1.45 -14.75 1.45 -14.2 1.5 -12.6 1.5 -11.25 1.5 -10.4 1.55 -2.75 1.9 3.55 2.0 4.6 2.0 5.25 2.0 5.3 2.0 5.3 2.0 5.35 2.05 5.4 2.05 5.4 2.05 5.45 2.05 5.45 2.1 5.45 2.1 5.5 2.1 5.5 2.15 5.5 2.15 5.55 2.2 5.55 2.25 5.55 2.25 5.55 2.3 5.55 2.4 5.55 2.55 5.6 2.65 5.6 2.75 5.6 2.85 5.65 3.0 5.65 3.1 5.65 3.2 5.7 3.3 5.7 3.45 5.7 3.55 5.7 3.65 5.7 3.75 5.75 3.9 5.75 4.0 5.75 4.1 5.75 4.2 5.75 4.25 5.75 4.35 5.75 4.4 5.7 4.45 5.7 4.5 5.7 4.55 5.65 4.6 5.6 4.65 5.6 4.7 5.55 4.7 5.5 4.75 5.45 4.75 5.4 4.8 5.3 4.8 5.25 4.8 5.15 4.85 4.9 4.85 4.35 4.9 3.15 4.6 -0.55 4.55 -1.15 4.5 -1.75 4.45 -2.3 4.45 -2.9 4.4 -3.5 4.4 -4.1 4.4 -4.7 4.4 -5.3 4.35 -5.85 4.4 -6.45 4.4 -7.05 4.4 -7.65 4.4 -8.25 4.4 -8.85 4.45 -9.4 4.45 -10.0 4.55 -12.15 4.5 -13.45 4.4 -15.0 4.3 -15.8 4.3 -15.75 4.3 -15.9 4.25 -15.95 4.25 -16.0 4.25 -16.0 4.25 -16.05 4.2 -16.1 4.15 -16.1 4.15 -16.15 4.05 -16.15 3.9 -16.15 3.8 -16.2 3.65 -16.25 3.5 -16.25 3.4 -16.3 3.25 -16.35 3.1 -16.4 3.0 -16.4 2.85 -16.45 2.7 -16.5 2.6 -16.55 2.45 -16.6 2.35 -16.65 2.2 -16.75 2.1 -16.8 1.95 -16.85 L1.95 -16.85 M-6.75 7.2 Q-6.85 8.35 -6.85 8.5 -6.9 9.65 -7.0 12.6 -7.1 15.25 -7.15 16.7 -7.3 21.2 -7.2 24.05 -7.2 24.15 -7.15 24.45 -7.1 24.7 -7.05 24.8 -7.05 24.85 -7.05 24.85 -7.05 24.9 -7.05 24.95 -7.0 24.95 -7.0 25.0 -7.0 25.0 -7.0 25.05 -6.95 25.05 -6.95 25.05 -6.95 25.1 -6.9 25.1 -6.9 25.1 -6.85 25.15 -6.85 25.15 -6.8 25.15 -6.7 25.2 -6.6 25.25 -6.55 25.25 -6.45 25.3 -6.35 25.3 -6.25 25.35 -6.2 25.35 -6.1 25.4 -6.0 25.4 -5.9 25.4 -5.8 25.4 -5.7 25.4 -5.6 25.4 -5.5 25.4 -5.4 25.35 -5.3 25.35 -5.25 25.35 -5.2 25.3 -5.15 25.3 -5.1 25.25 -5.05 25.2 -5.0 25.2 -4.95 25.15 -4.9 25.1 -4.9 25.1 -4.85 25.05 -4.8 25.0 -4.8 24.95 -4.8 24.9 -4.75 24.8 -4.75 24.75 -4.75 24.7 -4.7 24.1 -4.55 22.95 -4.4 21.75 -4.35 21.2 -4.2 19.7 -4.05 16.05 -3.85 11.05 -3.9 9.6 -3.9 9.55 -3.9 9.5 -3.9 9.45 -3.9 9.4 -3.9 9.35 -3.9 9.3 -3.95 9.25 -3.95 9.2 -3.95 9.15 -4.0 9.1 -4.05 9.05 -4.05 9.05 -4.1 9.0 -4.15 8.95 -4.2 8.95 -4.25 8.9 -4.35 8.85 -4.45 8.8 -4.55 8.7 -4.65 8.65 -4.75 8.6 -4.85 8.5 -4.95 8.45 -5.05 8.35 -5.15 8.3 -5.25 8.2 -5.3 8.15 -5.4 8.05 -5.5 7.95 -5.55 7.85 -5.65 7.8 -5.7 7.7 -5.75 7.6 -5.8 7.55 -5.85 7.5 -5.9 7.45 -5.95 7.4 -6.0 7.35 -6.1 7.3 -6.15 7.3 -6.2 7.25 -6.3 7.25 -6.35 7.2 -6.4 7.2 -6.5 7.2 -6.6 7.2 -6.65 7.15 -6.75 7.2 L-6.75 7.2 M-1.6 10.1 Q-1.6 10.15 -1.65 10.2 -1.65 10.25 -1.65 10.3 -1.65 10.35 -1.65 10.4 -1.65 10.4 -1.65 10.5 -1.65 10.55 -1.65 10.55 -1.65 10.95 -1.6 11.4 -1.6 11.8 -1.55 12.25 -1.5 12.65 -1.5 13.1 -1.45 13.5 -1.4 13.95 -1.35 14.35 -1.3 14.75 -1.3 15.2 -1.25 15.6 -1.2 16.05 -1.1 16.45 -1.05 16.85 -1.0 17.3 -0.8 18.85 -0.3 21.4 0.3 24.6 0.45 25.55 0.45 25.6 0.45 25.6 0.45 25.65 0.45 25.7 0.45 25.75 0.5 25.75 0.5 25.8 0.55 25.85 0.55 25.85 0.6 25.9 0.7 25.95 0.8 26.0 0.9 26.05 1.0 26.1 1.15 26.15 1.25 26.15 1.4 26.2 1.55 26.2 1.65 26.2 1.8 26.2 1.9 26.2 2.05 26.15 2.15 26.15 2.25 26.1 2.4 26.05 2.5 26.0 2.55 25.95 2.6 25.95 2.6 25.9 2.65 25.85 2.7 25.8 2.7 25.8 2.75 25.75 2.75 25.7 2.8 25.65 2.8 25.6 2.8 25.55 2.8 25.5 2.85 25.45 2.85 25.4 2.8 25.35 2.8 25.3 2.65 24.35 2.3 21.05 1.8 16.25 1.65 14.1 1.6 13.7 1.55 12.65 1.5 11.7 1.45 11.2 1.45 11.15 1.45 11.15 1.45 11.1 1.45 11.05 1.4 11.05 1.4 11.0 1.4 10.95 1.4 10.95 1.4 10.95 1.35 10.9 1.35 10.9 1.3 10.85 1.3 10.85 1.25 10.85 1.2 10.85 1.2 10.85 1.0 10.8 0.85 10.75 0.65 10.75 0.5 10.7 0.3 10.65 0.15 10.6 -0.05 10.55 -0.2 10.5 -0.4 10.45 -0.55 10.4 -0.75 10.35 -0.9 10.3 -1.1 10.25 -1.25 10.2 -1.45 10.15 -1.6 10.1 L-1.6 10.1 M-10.15 -29.85 Q-10.1 -29.75 -10.05 -29.7 -10.0 -29.6 -9.95 -29.55 -9.85 -29.5 -9.8 -29.4 -9.75 -29.35 -9.7 -29.25 -9.65 -29.2 -9.55 -29.15 -9.5 -29.05 -9.45 -29.0 -9.4 -28.95 -9.3 -28.85 -9.25 -28.8 -9.2 -28.75 -8.85 -28.4 -8.5 -28.1 -8.15 -27.8 -7.8 -27.55 -7.45 -27.25 -7.05 -27.0 -6.7 -26.75 -6.3 -26.5 -5.9 -26.25 -5.5 -26.05 -5.1 -25.8 -4.7 -25.6 -4.3 -25.4 -3.9 -25.2 -3.45 -25.05 -3.05 -24.85 -2.95 -24.8 -2.85 -24.8 -2.75 -24.75 -2.65 -24.75 -2.6 -24.7 -2.55 -24.7 -2.45 -24.75 -2.4 -24.75 -2.35 -24.75 -2.3 -24.8 -2.25 -24.85 -2.2 -24.9 -2.15 -24.95 -2.1 -25.05 -2.05 -25.1 -2.0 -25.2 -1.95 -25.25 -1.85 -25.55 -1.8 -25.65 -1.75 -25.75 -1.7 -25.85 -1.7 -25.95 -1.65 -26.05 -1.6 -26.15 -1.55 -26.25 -1.5 -26.35 -1.45 -26.45 -1.4 -26.55 -1.35 -26.65 -1.3 -26.75 -1.25 -26.85 -1.15 -26.95 -1.1 -27.05 -1.05 -27.15 -1.0 -27.2 -1.0 -27.25 -0.95 -27.3 -0.9 -27.35 -0.95 -27.3 -0.8 -27.4 -0.75 -27.45 -0.75 -27.5 -0.7 -27.55 -0.65 -27.6 -0.65 -27.65 -0.6 -27.7 -0.6 -27.75 -0.6 -27.8 -0.6 -27.9 -0.6 -27.95 -0.6 -28.0 -0.65 -28.05 -0.65 -28.1 -0.7 -28.15 -0.7 -28.2 -0.75 -28.25 -0.8 -28.3 -0.8 -28.35 -0.85 -28.4 -0.9 -28.45 -0.9 -28.5 -0.95 -28.55 -1.05 -28.65 -1.05 -28.65 -1.1 -28.7 -1.1 -28.75 -1.15 -28.8 -1.25 -28.9 -1.35 -29.0 -1.4 -29.05 -1.7 -29.35 -2.05 -29.65 -2.4 -29.9 -2.75 -30.15 -3.1 -30.35 -3.45 -30.5 -3.8 -30.7 -4.2 -30.8 -4.6 -30.95 -5.0 -31.0 -5.35 -31.05 -5.8 -31.1 -6.2 -31.1 -6.65 -31.1 -7.05 -31.05 -7.5 -31.0 -7.7 -30.95 -7.85 -30.95 -8.05 -30.9 -8.2 -30.85 -8.4 -30.8 -8.55 -30.7 -8.7 -30.65 -8.9 -30.6 -9.05 -30.5 -9.2 -30.45 -9.35 -30.35 -9.55 -30.25 -9.7 -30.15 -9.85 -30.05 -10.0 -29.95 -10.15 -29.85 L-10.15 -29.85 M-1.85 -23.25 Q-1.85 -23.25 -1.85 -23.25 -1.85 -23.2 -1.85 -23.2 -1.85 -23.15 -1.85 -23.1 -1.85 -23.1 -1.8 -23.05 -1.8 -23.0 -1.8 -22.95 -1.8 -22.9 -1.8 -22.9 -1.8 -22.85 -1.75 -22.8 -1.75 -22.8 -1.75 -22.75 -1.7 -22.7 -1.7 -22.7 -1.65 -22.65 -1.6 -22.65 -1.55 -22.65 -1.5 -22.65 -1.45 -22.65 -1.4 -22.7 -1.4 -22.7 -1.35 -22.75 -1.35 -22.75 -1.3 -22.85 -1.25 -22.9 -1.2 -22.9 -1.1 -23.0 -0.95 -23.1 -0.85 -23.25 -0.7 -23.35 -0.6 -23.45 -0.45 -23.55 -0.3 -23.65 -0.2 -23.7 -0.05 -23.8 0.1 -23.9 0.25 -23.95 0.4 -24.05 0.5 -24.1 0.65 -24.2 0.8 -24.25 0.95 -24.3 1.2 -24.4 1.45 -24.5 1.7 -24.6 1.95 -24.65 2.2 -24.75 2.45 -24.8 2.7 -24.9 2.95 -24.95 3.2 -25.0 3.45 -25.05 3.7 -25.1 3.95 -25.15 4.2 -25.2 4.45 -25.25 4.7 -25.3 4.95 -25.35 5.35 -25.4 5.7 -25.45 6.1 -25.45 6.45 -25.5 6.85 -25.5 7.2 -25.5 7.55 -25.5 7.95 -25.5 8.3 -25.45 8.65 -25.45 9.05 -25.4 9.4 -25.35 9.8 -25.3 10.15 -25.2 10.5 -25.15 10.85 -25.0 11.95 -24.75 12.45 -24.65 12.55 -24.65 12.65 -24.65 12.75 -24.65 12.8 -24.65 12.9 -24.65 12.95 -24.7 13.0 -24.75 13.05 -24.8 13.1 -24.8 13.1 -24.9 13.15 -24.95 13.15 -25.0 13.15 -25.1 13.15 -25.2 13.15 -25.25 13.1 -25.35 13.1 -25.45 13.05 -25.5 13.0 -25.6 13.0 -25.65 12.95 -25.75 12.9 -25.8 12.85 -25.9 12.8 -25.95 12.75 -26.0 12.7 -26.05 12.65 -26.15 12.6 -26.2 12.55 -26.25 12.45 -26.3 12.4 -26.35 12.35 -26.4 12.25 -26.45 12.15 -26.5 12.05 -26.55 11.95 -26.6 11.85 -26.65 11.75 -26.7 11.65 -26.75 11.55 -26.8 11.4 -26.85 11.3 -26.85 11.2 -26.9 11.1 -26.95 11.0 -26.95 10.9 -27.0 10.75 -27.05 10.65 -27.05 10.5 -27.1 10.35 -27.1 10.15 -27.15 10.0 -27.2 9.85 -27.2 9.7 -27.25 9.5 -27.25 9.35 -27.3 9.2 -27.3 9.0 -27.35 8.85 -27.35 8.7 -27.35 8.55 -27.4 8.35 -27.4 8.2 -27.4 8.05 -27.45 7.5 -27.5 6.9 -27.5 6.35 -27.5 5.8 -27.45 5.25 -27.4 4.75 -27.3 4.2 -27.2 3.65 -27.1 3.15 -26.95 2.65 -26.75 2.15 -26.6 1.65 -26.35 1.15 -26.15 0.65 -25.85 0.15 -25.6 -0.3 -25.3 -0.4 -25.25 -0.45 -25.2 -0.55 -25.15 -0.65 -25.05 -0.7 -25.0 -0.8 -24.95 -0.85 -24.85 -0.95 -24.8 -1.0 -24.75 -1.1 -24.65 -1.15 -24.6 -1.25 -24.55 -1.3 -24.45 -1.35 -24.4 -1.45 -24.3 -1.5 -24.25 -1.55 -24.2 -1.6 -24.15 -1.6 -24.1 -1.65 -24.05 -1.7 -24.0 -1.7 -23.9 -1.75 -23.85 -1.75 -23.8 -1.8 -23.75 -1.8 -23.7 -1.85 -23.6 -1.85 -23.55 -1.85 -23.5 -1.85 -23.4 -1.85 -23.35 -1.85 -23.25 L-1.85 -23.25 M-2.5 -20.95 Q-2.6 -21.0 -3.15 -21.1 -3.55 -21.2 -3.8 -21.25 -4.75 -21.6 -4.95 -21.65 -5.5 -21.9 -6.15 -22.2 -6.8 -22.55 -7.3 -22.8 -8.05 -23.2 -8.4 -23.4 -9.3 -23.95 -9.5 -24.1 -9.55 -24.15 -9.65 -24.2 -9.7 -24.25 -9.75 -24.3 -9.85 -24.35 -9.9 -24.4 -9.95 -24.45 -10.05 -24.5 -10.1 -24.55 -10.15 -24.6 -10.2 -24.65 -10.3 -24.7 -10.35 -24.75 -10.4 -24.8 -10.5 -24.85 -10.55 -24.9 -10.75 -25.05 -11.0 -25.3 -11.4 -25.7 -11.45 -25.7 -11.5 -25.75 -11.55 -25.8 -11.6 -25.85 -11.7 -25.95 -11.7 -26.0 -11.8 -26.05 -11.9 -26.15 -11.9 -26.2 -11.95 -26.25 -12.0 -26.3 -12.05 -26.35 -12.1 -26.4 -12.2 -26.45 -12.25 -26.5 -12.3 -26.55 -12.4 -26.6 -12.5 -26.25 -12.5 -25.85 -12.55 -25.5 -12.5 -25.1 -12.5 -24.75 -12.4 -24.4 -12.3 -24.0 -12.2 -23.65 -12.05 -23.3 -11.9 -23.0 -11.7 -22.65 -11.5 -22.35 -11.3 -22.05 -11.05 -21.8 -10.75 -21.55 -10.5 -21.3 -10.3 -21.1 -10.05 -20.95 -9.8 -20.8 -9.6 -20.7 -9.35 -20.55 -9.1 -20.45 -8.85 -20.3 -8.6 -20.25 -8.35 -20.15 -8.1 -20.05 -7.85 -20.0 -7.55 -19.95 -7.3 -19.9 -7.05 -19.85 -6.75 -19.85 -6.45 -19.8 -6.2 -19.8 -5.95 -19.8 -5.65 -19.8 -5.4 -19.85 -5.15 -19.9 -4.9 -19.95 -4.65 -20.0 -4.4 -20.05 -4.15 -20.15 -3.9 -20.2 -3.65 -20.3 -3.45 -20.4 -3.2 -20.55 -2.95 -20.65 -2.75 -20.8 -2.5 -20.95 L-2.5 -20.95 M3.35 32.65 Q3.45 32.7 3.55 32.8 3.65 32.9 3.7 32.9 3.85 33.0 3.9 33.05 3.95 33.05 4.0 33.0 4.05 32.95 4.15 32.8 4.2 32.7 4.25 32.65 4.3 32.6 4.3 32.5 4.35 32.45 4.4 32.35 4.4 32.25 4.45 32.2 4.5 32.1 4.5 32.05 4.55 31.95 4.55 31.9 4.55 31.8 4.55 31.7 4.6 31.6 4.6 31.55 4.6 31.25 4.6 31.0 4.55 30.75 4.5 30.45 4.5 30.2 4.4 29.95 4.35 29.7 4.25 29.45 4.15 29.2 4.05 28.95 3.95 28.75 3.8 28.5 3.7 28.3 3.5 28.05 3.35 27.85 3.2 27.65 3.15 27.6 3.15 27.6 3.1 27.55 3.1 27.55 3.05 27.55 3.05 27.5 3.0 27.5 3.0 27.5 2.95 27.5 2.95 27.5 2.9 27.5 2.9 27.5 2.85 27.5 2.8 27.5 2.8 27.5 2.75 27.55 2.65 27.6 2.55 27.65 2.4 27.65 2.3 27.7 2.2 27.7 2.05 27.75 1.95 27.75 1.85 27.75 1.75 27.75 1.6 27.75 1.5 27.75 1.4 27.75 1.25 27.7 1.15 27.7 1.05 27.65 0.9 27.65 0.8 27.6 0.75 27.6 0.7 27.6 0.65 27.6 0.6 27.65 0.6 27.7 0.55 27.7 0.55 27.75 0.55 27.85 0.5 27.9 0.45 28.05 0.45 28.25 0.4 28.4 0.4 28.55 0.35 28.75 0.35 28.9 0.3 29.05 0.3 29.2 0.25 29.4 0.25 29.55 0.25 29.7 0.2 29.9 0.2 30.05 0.2 30.2 0.2 30.4 0.15 30.55 0.15 30.85 0.15 31.15 0.2 31.45 0.25 31.7 0.3 32.0 0.35 32.25 0.45 32.5 0.6 32.75 0.7 33.0 0.85 33.2 1.0 33.45 1.2 33.65 1.35 33.85 1.6 34.05 1.8 34.25 2.05 34.4 2.15 34.45 2.2 34.5 2.25 34.55 2.3 34.55 2.35 34.6 2.4 34.6 2.45 34.6 2.5 34.6 2.55 34.6 2.55 34.6 2.6 34.55 2.65 34.5 2.65 34.5 2.7 34.4 2.75 34.35 2.8 34.25 2.95 34.0 3.35 32.65 L3.35 32.65 M-4.5 32.05 Q-4.45 32.0 -4.4 31.85 -4.35 31.75 -4.35 31.65 -4.3 31.55 -4.25 31.5 -4.2 31.4 -4.15 31.3 -4.15 31.2 -4.1 31.1 -4.1 31.0 -4.05 30.9 -4.05 30.8 -4.05 30.7 -4.0 30.6 -4.0 30.5 -4.0 30.3 -4.05 30.05 -4.05 29.85 -4.1 29.65 -4.1 29.45 -4.2 29.2 -4.25 29.0 -4.3 28.8 -4.35 28.6 -4.45 28.4 -4.5 28.2 -4.6 28.0 -4.7 27.85 -4.8 27.65 -4.9 27.45 -5.0 27.25 -5.0 27.2 -5.05 27.2 -5.1 27.15 -5.1 27.1 -5.15 27.1 -5.15 27.1 -5.2 27.05 -5.2 27.05 -5.25 27.05 -5.3 27.0 -5.3 27.0 -5.35 27.0 -5.4 27.0 -5.45 27.0 -5.5 27.0 -5.55 27.0 -5.6 27.0 -5.7 27.0 -5.75 27.0 -5.8 27.0 -5.85 27.0 -5.95 27.0 -6.0 27.0 -6.05 27.0 -6.15 27.0 -6.2 27.0 -6.25 27.0 -6.35 27.0 -6.4 27.0 -6.45 27.0 -6.55 26.95 -6.6 26.95 -6.75 26.95 -6.8 26.9 -6.9 26.9 -6.95 26.9 -7.0 26.9 -7.05 26.9 -7.1 26.9 -7.15 26.95 -7.2 26.95 -7.2 27.0 -7.25 27.0 -7.3 27.1 -7.3 27.15 -7.35 27.2 -7.4 27.25 -7.45 27.4 -7.55 27.65 -7.65 27.9 -7.7 28.15 -7.8 28.4 -7.85 28.6 -7.9 28.85 -7.95 29.1 -8.0 29.35 -8.05 29.65 -8.05 29.9 -8.05 30.15 -8.05 30.4 -8.05 30.65 -8.05 30.9 -8.0 31.15 -7.95 31.45 -7.95 31.6 -7.9 31.7 -7.85 31.85 -7.85 32.0 -7.8 32.15 -7.75 32.25 -7.7 32.4 -7.65 32.5 -7.6 32.65 -7.5 32.75 -7.45 32.9 -7.4 33.0 -7.3 33.1 -7.2 33.25 -7.15 33.35 -7.05 33.45 -7.0 33.5 -6.95 33.55 -6.9 33.6 -6.85 33.65 -6.8 33.65 -6.75 33.65 -6.75 33.7 -6.7 33.7 -6.65 33.7 -6.6 33.7 -6.55 33.65 -6.55 33.65 -6.5 33.6 -6.45 33.55 -6.4 33.55 -6.35 33.5 -6.35 33.5 -6.3 33.45 -6.3 33.45 -6.25 33.4 -6.25 33.4 -6.25 33.35 -6.2 33.35 -6.2 33.3 -6.2 33.3 -6.15 33.25 -6.15 33.25 -6.15 33.2 -6.1 33.2 -6.1 33.15 -6.1 33.15 -6.05 33.1 -5.5 32.15 -5.3 31.6 -5.25 31.55 -5.25 31.5 -5.2 31.45 -5.15 31.45 -5.15 31.4 -5.1 31.4 -5.05 31.45 -5.0 31.45 -5.0 31.5 -4.95 31.55 -4.9 31.55 -4.9 31.6 -4.85 31.6 -4.85 31.65 -4.8 31.7 -4.8 31.7 -4.85 31.65 -4.75 31.8 -4.7 31.85 -4.7 31.85 -4.65 31.9 -4.65 31.9 -4.6 31.95 -4.6 32.0 -4.55 32.0 -4.5 32.05 L-4.5 32.05 M-2.55 -22.05 Q-2.6 -22.15 -2.65 -22.25 -2.65 -22.35 -2.7 -22.4 -2.75 -22.5 -2.75 -22.6 -2.8 -22.7 -2.8 -22.8 -2.85 -22.9 -2.85 -22.95 -2.85 -23.05 -2.9 -23.15 -2.9 -23.25 -2.9 -23.35 -2.9 -23.45 -2.85 -23.55 -2.85 -23.6 -2.85 -23.65 -2.85 -23.7 -2.9 -23.7 -2.9 -23.75 -2.95 -23.75 -3.0 -23.8 -3.0 -23.8 -3.05 -23.85 -3.1 -23.85 -3.1 -23.85 -3.3 -23.9 -3.4 -23.95 -3.5 -24.0 -3.9 -24.15 -4.3 -24.35 -4.7 -24.5 -5.05 -24.7 -5.45 -24.9 -5.85 -25.1 -6.2 -25.3 -6.55 -25.5 -6.95 -25.75 -7.3 -25.95 -7.65 -26.2 -8.0 -26.45 -8.35 -26.7 -8.7 -27.0 -9.05 -27.25 -9.35 -27.55 -9.45 -27.65 -9.55 -27.75 -9.65 -27.85 -9.75 -27.95 -9.85 -28.05 -9.95 -28.15 -10.05 -28.25 -10.15 -28.35 -10.25 -28.45 -10.35 -28.55 -10.45 -28.65 -10.55 -28.75 -10.65 -28.9 -10.7 -29.0 -10.8 -29.1 -10.9 -29.2 -10.9 -29.2 -10.95 -29.25 -10.95 -29.3 -11.0 -29.35 -11.0 -29.35 -11.05 -29.4 -11.05 -29.4 -11.1 -29.4 -11.15 -29.4 -11.2 -29.4 -11.3 -29.4 -11.4 -29.35 -11.55 -29.3 -11.6 -29.25 -11.7 -29.15 -11.8 -29.1 -11.85 -29.0 -11.9 -28.9 -11.95 -28.8 -12.0 -28.7 -12.05 -28.6 -12.05 -28.5 -12.05 -28.35 -12.05 -28.25 -12.05 -28.15 -12.0 -28.05 -12.0 -28.0 -11.95 -27.95 -11.95 -27.85 -11.9 -27.8 -11.9 -27.75 -11.85 -27.7 -11.8 -27.65 -11.8 -27.6 -11.75 -27.55 -11.7 -27.5 -11.7 -27.45 -11.65 -27.4 -11.6 -27.35 -11.6 -27.3 -11.55 -27.25 -11.5 -27.2 -11.4 -27.05 -11.3 -26.95 -11.15 -26.8 -11.05 -26.7 -10.95 -26.55 -10.85 -26.45 -10.7 -26.3 -10.6 -26.2 -10.45 -26.1 -10.35 -26.0 -10.2 -25.85 -10.1 -25.75 -9.95 -25.65 -9.8 -25.55 -9.7 -25.45 -9.55 -25.35 -9.25 -25.1 -8.9 -24.9 -8.6 -24.65 -8.25 -24.45 -7.9 -24.25 -7.55 -24.05 -7.25 -23.85 -6.9 -23.65 -6.55 -23.5 -6.2 -23.3 -5.85 -23.15 -5.5 -23.0 -5.15 -22.8 -4.75 -22.65 -4.4 -22.5 -4.05 -22.35 -3.95 -22.3 -3.85 -22.3 -3.8 -22.25 -3.7 -22.25 -3.6 -22.2 -3.5 -22.2 -3.4 -22.15 -3.35 -22.15 -3.25 -22.1 -3.15 -22.1 -3.05 -22.1 -2.95 -22.05 -2.85 -22.05 -2.75 -22.05 -2.65 -22.05 -2.55 -22.05 L-2.55 -22.05 M0.5 -8.75 Q0.45 -8.35 0.4 -7.95 0.3 -7.55 0.25 -7.15 0.2 -6.75 0.15 -6.35 0.1 -5.9 0.05 -5.55 0.0 -5.1 -0.05 -4.7 -0.1 -4.3 -0.1 -3.9 -0.15 -3.5 -0.2 -3.1 -0.25 -2.7 -0.25 -2.3 -0.45 -0.05 -0.55 1.95 -0.65 3.5 -0.6 4.3 -0.6 4.35 -0.6 4.4 -0.6 4.45 -0.55 4.5 -0.55 4.55 -0.55 4.6 -0.55 4.65 -0.5 4.7 -0.5 4.75 -0.45 4.8 -0.45 4.8 -0.4 4.85 -0.35 4.9 -0.3 4.95 -0.25 4.95 -0.2 5.0 -0.15 5.05 -0.05 5.05 0.0 5.1 0.1 5.15 0.15 5.15 0.25 5.2 0.3 5.2 0.4 5.2 0.45 5.25 0.55 5.25 0.6 5.25 0.7 5.3 0.8 5.3 0.9 5.3 0.95 5.3 1.05 5.3 0.75 0.45 0.5 -8.75 L0.5 -8.75 M9.95 -28.2 Q9.35 -28.7 8.6 -29.0 7.9 -29.3 7.15 -29.5 6.45 -29.65 5.7 -29.65 4.95 -29.65 4.25 -29.5 3.5 -29.35 2.85 -29.05 2.2 -28.8 1.6 -28.45 1.05 -28.05 0.6 -27.6 0.1 -27.1 -0.2 -26.55 0.4 -26.9 1.0 -27.2 1.6 -27.45 2.25 -27.65 2.85 -27.9 3.5 -28.05 4.1 -28.2 4.75 -28.3 5.35 -28.4 6.0 -28.45 6.65 -28.5 7.3 -28.45 7.95 -28.45 8.6 -28.4 9.25 -28.35 9.95 -28.2 L9.95 -28.2 M-6.7 -6.3 Q-6.8 -6.1 -7.1 -5.4 -7.35 -4.9 -7.45 -4.55 -7.55 -4.3 -7.65 -4.1 -7.75 -3.85 -7.85 -3.6 -7.95 -3.35 -8.0 -3.1 -8.1 -2.85 -8.2 -2.65 -8.25 -2.4 -8.3 -2.15 -8.4 -1.9 -8.45 -1.65 -8.5 -1.4 -8.55 -1.15 -8.6 -0.9 -8.6 -0.65 -8.6 -0.5 -8.65 -0.35 -8.65 -0.2 -8.6 -0.05 -8.6 0.1 -8.55 0.2 -8.55 0.35 -8.45 0.5 -8.4 0.65 -8.3 0.75 -8.2 0.85 -8.1 0.95 -7.95 1.1 -7.8 1.15 -7.65 1.25 -7.45 1.35 -7.4 0.85 -7.4 0.4 -7.35 -0.1 -7.3 -0.55 -7.25 -1.05 -7.25 -1.55 -7.2 -2.0 -7.15 -2.5 -7.1 -2.95 -7.05 -3.45 -7.0 -3.9 -6.95 -4.4 -6.9 -4.85 -6.85 -5.35 -6.75 -5.8 -6.7 -6.3 L-6.7 -6.3 M-6.25 -0.9 Q-5.5 -6.35 -4.95 -9.1 -5.1 -8.6 -5.2 -8.1 -5.35 -7.6 -5.45 -7.05 -5.55 -6.55 -5.65 -6.05 -5.75 -5.55 -5.8 -5.0 -5.9 -4.5 -5.95 -4.0 -6.05 -3.5 -6.1 -2.95 -6.15 -2.45 -6.2 -1.9 -6.2 -1.4 -6.25 -0.9 L-6.25 -0.9" fill="#090808" fill-rule="evenodd" stroke="none"/>
  </g>
</svg>
