<?xml version="1.0" encoding="UTF-8" standalone="no"?>
<svg xmlns:xlink="http://www.w3.org/1999/xlink" height="23.55px" width="13.95px" xmlns="http://www.w3.org/2000/svg">
  <g transform="matrix(1.0, 0.0, 0.0, 1.0, 7.0, 11.65)">
    <path d="M-0.35 -11.5 Q-0.2 -11.5 -0.05 -11.5 0.05 -11.5 0.2 -11.45 0.3 -11.45 0.4 -11.4 0.55 -11.35 0.65 -11.3 0.7 -11.2 0.8 -11.15 0.9 -11.05 0.95 -11.0 1.05 -10.9 1.1 -10.8 1.15 -10.7 1.2 -10.6 1.25 -10.5 1.25 -10.45 1.3 -10.35 1.3 -10.25 1.3 -10.2 1.3 -10.1 1.35 -10.0 1.35 -9.95 1.3 -9.85 1.3 -9.75 1.3 -9.7 1.3 -9.6 1.25 -9.5 1.25 -9.45 1.2 -9.35 1.15 -9.3 1.1 -9.25 1.1 -9.2 1.05 -9.15 1.0 -9.1 1.0 -9.05 0.95 -9.0 0.9 -8.95 0.9 -8.95 0.85 -8.9 0.8 -8.85 0.75 -8.85 0.75 -8.8 0.7 -8.8 0.7 -8.75 0.65 -8.75 0.65 -8.75 0.6 -8.7 0.55 -8.7 0.55 -8.65 0.5 -8.65 0.45 -8.6 0.4 -8.6 0.4 -8.6 0.35 -8.55 0.35 -6.3 0.25 -1.75 0.3 -1.75 0.35 -1.75 0.4 -1.7 0.5 -1.7 0.6 -1.65 0.7 -1.6 0.85 -1.55 0.95 -1.45 1.1 -1.4 1.2 -1.3 1.35 -1.2 1.45 -1.1 1.6 -0.95 1.7 -0.8 1.8 -0.65 1.9 -0.45 2.0 -0.3 2.0 -0.1 2.05 0.05 2.05 0.25 2.1 0.4 2.1 0.55 2.05 0.7 2.05 0.85 2.0 0.95 2.0 1.1 1.95 1.2 1.9 1.3 1.9 1.35 1.85 1.45 1.8 1.55 1.8 1.55 1.8 1.6 1.8 1.65 1.75 1.65 1.75 1.7 1.7 1.75 1.7 1.8 1.65 1.8 1.65 1.85 1.6 1.9 1.6 1.95 1.55 2.0 1.55 2.0 1.5 2.05 1.5 2.1 1.5 2.1 1.5 2.15 1.5 2.2 1.5 2.25 1.5 2.3 1.5 2.3 1.6 2.7 1.8 3.5 2.0 4.15 2.2 5.05 2.3 5.5 2.55 6.4 2.7 7.2 2.9 7.85 2.9 7.95 3.2 9.0 3.25 9.15 3.3 9.5 3.35 9.85 3.4 10.0 3.4 10.0 3.4 10.05 3.4 10.05 3.4 10.1 3.4 10.1 3.35 10.15 3.35 10.2 3.3 10.2 3.3 10.25 3.25 10.3 3.25 10.3 3.2 10.35 3.15 10.4 3.1 10.45 3.05 10.5 3.0 10.55 2.85 10.65 2.65 10.75 2.45 10.85 2.25 10.95 2.0 11.0 1.7 11.1 1.45 11.15 1.15 11.2 0.85 11.25 0.5 11.3 0.15 11.3 -0.2 11.3 -0.55 11.3 -0.9 11.25 -1.25 11.2 -1.65 11.15 -1.8 11.1 -1.95 11.1 -2.1 11.05 -2.25 11.0 -2.35 11.0 -2.5 10.95 -2.6 10.9 -2.75 10.85 -2.85 10.85 -2.95 10.8 -3.05 10.75 -3.15 10.7 -3.2 10.7 -3.3 10.65 -3.35 10.65 -3.45 10.6 -3.35 10.65 -3.55 10.55 -3.65 10.5 -3.7 10.5 -3.75 10.45 -3.8 10.45 -3.85 10.45 -3.9 10.4 -3.95 10.35 -4.0 10.35 -4.05 10.3 -4.1 10.3 -4.2 10.25 -4.25 10.2 -4.3 10.15 -4.4 10.15 -4.45 10.1 -4.5 10.05 -4.55 10.05 -4.6 10.0 -4.65 9.95 -4.7 9.9 -4.75 9.85 -4.8 9.8 -4.85 9.8 -4.9 9.75 -4.95 9.7 -5.0 9.65 -5.05 9.6 -5.05 9.55 -5.1 9.5 -5.15 9.5 -5.2 9.45 -5.2 9.45 -5.2 9.4 -5.25 9.4 -5.25 9.35 -5.25 9.3 -5.25 9.3 -5.3 9.25 -5.3 9.25 -5.3 9.2 -5.3 9.15 -5.3 9.15 -5.3 9.1 -5.25 9.05 -5.25 9.0 -5.25 9.0 -5.2 8.85 -5.0 8.2 -4.85 7.7 -4.75 7.4 -4.7 7.3 -4.5 6.65 -4.4 6.45 -4.2 5.95 -4.15 5.75 -3.65 4.5 -3.2 3.25 -3.15 3.15 -3.1 3.1 -3.1 3.0 -3.05 2.95 -3.05 2.9 -3.0 2.8 -2.95 2.75 -2.95 2.65 -2.9 2.6 -2.9 2.55 -2.85 2.45 -2.8 2.4 -2.8 2.35 -2.75 2.25 -2.7 2.2 -2.7 2.15 -2.65 2.05 -2.65 2.0 -2.6 1.95 -2.6 1.9 -2.6 1.9 -2.55 1.85 -2.55 1.8 -2.55 1.75 -2.55 1.7 -2.55 1.65 -2.55 1.6 -2.55 1.55 -2.6 1.55 -2.6 1.5 -2.6 1.45 -2.6 1.4 -2.65 1.35 -2.75 1.0 -2.75 0.85 -2.75 0.75 -2.8 0.65 -2.8 0.55 -2.8 0.45 -2.8 0.35 -2.8 0.3 -2.8 0.2 -2.8 0.1 -2.75 0.0 -2.75 -0.1 -2.75 -0.2 -2.7 -0.25 -2.7 -0.35 -2.65 -0.45 -2.6 -0.55 -2.55 -0.65 -2.55 -0.7 -2.5 -0.75 -2.45 -0.8 -2.45 -0.85 -2.4 -0.9 -2.35 -0.95 -2.35 -1.0 -2.3 -1.05 -2.25 -1.05 -2.2 -1.1 -2.15 -1.15 -2.15 -1.2 -2.1 -1.25 -2.05 -1.3 -2.0 -1.3 -1.95 -1.35 -1.9 -1.4 -1.85 -1.4 -1.75 -1.45 -1.7 -1.5 -1.65 -1.5 -1.6 -1.55 -1.5 -1.6 -1.45 -1.6 -1.4 -1.6 -1.35 -1.65 -1.25 -1.65 -1.2 -1.7 -1.15 -1.7 -1.05 -1.7 -1.0 -1.75 -0.95 -1.75 -0.9 -1.75 -0.85 -1.75 -0.8 -1.8 -0.8 -1.8 -0.8 -1.8 -0.75 -1.85 -0.75 -1.9 -0.75 -1.95 -0.75 -2.0 -0.75 -2.1 -0.75 -3.85 -0.75 -8.1 -0.75 -8.35 -0.75 -8.4 -0.75 -8.45 -0.8 -8.45 -0.8 -8.5 -0.85 -8.55 -0.85 -8.55 -0.9 -8.55 -0.95 -8.6 -1.05 -8.6 -1.1 -8.65 -1.15 -8.7 -1.2 -8.75 -1.25 -8.8 -1.3 -8.85 -1.35 -8.9 -1.4 -8.95 -1.45 -9.0 -1.5 -9.05 -1.55 -9.1 -1.6 -9.15 -1.65 -9.2 -1.65 -9.25 -1.7 -9.35 -1.75 -9.4 -1.75 -9.45 -1.75 -9.5 -1.8 -9.55 -1.8 -9.6 -1.8 -9.65 -1.85 -9.7 -1.85 -9.75 -1.85 -9.8 -1.85 -9.9 -1.85 -9.95 -1.85 -10.0 -1.85 -10.05 -1.85 -10.1 -1.85 -10.15 -1.8 -10.2 -1.8 -10.3 -1.75 -10.4 -1.75 -10.5 -1.7 -10.55 -1.7 -10.65 -1.65 -10.75 -1.6 -10.8 -1.55 -10.9 -1.5 -10.95 -1.45 -11.0 -1.4 -11.1 -1.3 -11.15 -1.25 -11.2 -1.15 -11.25 -1.1 -11.3 -1.0 -11.35 -0.95 -11.4 -0.9 -11.4 -0.85 -11.4 -0.8 -11.45 -0.8 -11.45 -0.75 -11.45 -0.7 -11.5 -0.65 -11.5 -0.6 -11.5 -0.55 -11.5 -0.5 -11.5 -0.5 -11.5 -0.45 -11.5 -0.4 -11.5 -0.35 -11.5 -0.35 -11.5 L-0.35 -11.5 M-1.05 9.8 Q-1.05 9.85 -1.05 9.9 -1.05 9.95 -1.05 10.0 -1.05 10.0 -1.05 10.05 -1.05 10.05 -1.0 10.1 -0.95 10.15 -0.9 10.2 -0.85 10.2 -0.8 10.25 -0.75 10.25 -0.65 10.25 -0.6 10.25 -0.5 10.25 -0.4 10.25 -0.35 10.25 -0.25 10.25 -0.2 10.2 -0.15 10.2 -0.1 10.2 -0.05 10.2 0.0 10.2 0.05 10.2 0.1 10.15 0.15 10.15 0.15 10.15 0.2 10.1 0.25 10.1 0.3 10.1 0.35 10.05 0.35 10.05 0.4 10.05 0.45 10.0 0.45 10.0 0.5 10.0 0.5 9.95 0.55 9.95 0.55 9.95 0.35 5.65 0.5 5.65 0.5 5.65 0.55 5.7 0.55 5.75 0.55 5.85 0.6 5.9 0.6 6.05 0.65 6.3 0.65 6.4 0.7 6.6 0.75 6.75 0.8 7.0 0.85 7.25 0.9 7.5 1.0 7.8 1.05 8.1 1.15 8.4 1.2 8.5 1.2 8.65 1.25 8.75 1.3 8.85 1.3 8.95 1.35 9.05 1.4 9.15 1.4 9.25 1.45 9.35 1.5 9.45 1.5 9.5 1.55 9.6 1.55 9.7 1.6 9.75 1.65 9.85 1.65 9.9 1.9 9.85 2.3 9.65 1.85 7.3 0.85 2.5 0.8 2.5 0.75 2.55 0.7 2.55 0.7 2.6 0.6 2.6 0.55 2.65 0.5 2.65 0.45 2.7 0.35 2.7 0.3 2.75 0.2 2.75 0.15 2.75 0.05 2.8 -0.05 2.8 -0.15 2.8 -0.2 2.8 -0.35 2.8 -0.45 2.8 -0.6 2.8 -0.75 2.8 -0.85 2.8 -0.95 2.75 -1.05 2.75 -1.15 2.7 -1.25 2.7 -1.35 2.65 -1.45 2.65 -1.5 2.6 -1.55 2.55 -1.65 2.55 -1.65 2.5 -1.7 2.5 -1.85 2.7 -2.0 2.95 -2.15 3.15 -2.25 3.45 -2.35 3.65 -2.45 3.95 -2.55 4.2 -2.65 4.5 -2.75 4.7 -2.85 5.05 -3.0 5.45 -3.05 5.6 -3.15 5.9 -3.25 6.15 -3.35 6.4 -3.45 6.65 -3.55 7.0 -3.75 7.45 -3.95 8.0 -3.95 8.05 -4.1 8.35 -4.1 8.55 -4.15 8.8 -4.15 8.95 -4.15 9.1 -4.05 9.25 -3.95 9.35 -3.7 9.5 -3.5 9.6 -3.2 9.7 -2.85 9.8 -2.4 9.95 -2.4 9.95 -2.35 9.95 -2.3 9.95 -2.3 9.95 -2.25 9.95 -2.2 9.9 -2.15 9.9 -2.1 9.8 -2.05 9.75 -2.05 9.65 -2.0 9.6 -1.95 9.5 -1.9 9.4 -1.9 9.25 -1.85 9.15 -1.85 9.05 -1.8 8.95 -1.75 8.8 -1.75 8.65 -1.7 8.55 -1.7 8.45 -1.65 8.35 -1.65 8.25 -1.6 8.15 -1.6 8.05 -1.55 7.9 -1.5 7.8 -1.5 7.7 -1.45 7.55 -1.4 7.4 -1.35 7.3 -1.3 7.15 -1.25 7.0 -1.2 6.85 -1.15 6.7 -1.1 6.55 -1.1 7.65 -1.05 9.8 L-1.05 9.8 M0.9 -0.3 Q0.6 -0.55 0.3 -0.7 0.0 -0.85 -0.3 -0.85 -0.6 -0.9 -0.9 -0.8 -1.15 -0.7 -1.35 -0.55 -1.55 -0.4 -1.7 -0.2 -1.85 0.05 -1.85 0.3 -1.9 0.6 -1.8 0.85 -1.7 1.15 -1.45 1.45 -1.25 1.65 -0.95 1.75 -0.75 1.85 -0.45 1.85 -0.2 1.9 0.05 1.8 0.3 1.75 0.5 1.6 0.75 1.45 0.9 1.3 1.05 1.05 1.1 0.85 1.15 0.6 1.15 0.3 1.1 0.0 0.9 -0.3 L0.9 -0.3" fill="#000000" fill-rule="evenodd" stroke="none"/>
  </g>
</svg>
