<?xml version="1.0" encoding="UTF-8" standalone="no"?>
<svg xmlns:xlink="http://www.w3.org/1999/xlink" height="51.5px" width="102.45px" xmlns="http://www.w3.org/2000/svg">
  <g transform="matrix(1.0, 0.0, 0.0, 1.0, 51.25, 25.75)">
    <path d="M-31.5 2.25 Q-31.7 2.3 -31.95 2.35 -32.15 2.4 -32.35 2.4 -32.55 2.4 -32.8 2.4 -33.0 2.45 -33.2 2.4 -33.4 2.4 -33.6 2.35 -33.85 2.35 -34.05 2.3 -34.25 2.25 -34.45 2.15 -34.65 2.1 -34.9 2.0 -34.95 2.0 -34.95 2.0 -35.0 1.95 -35.05 1.95 -35.05 1.95 -35.1 1.95 -35.1 1.95 -35.15 1.95 -35.15 2.0 -35.2 2.0 -35.25 2.0 -35.25 2.0 -35.3 2.05 -35.3 2.05 -35.35 2.1 -35.35 2.15 -35.5 2.35 -36.45 3.45 -37.15 4.2 -37.6 4.7 -37.95 5.05 -38.25 5.4 -38.6 5.75 -38.95 6.05 -39.3 6.35 -39.65 6.65 -40.05 6.95 -40.4 7.2 -40.8 7.5 -41.2 7.75 -41.6 8.0 -42.0 8.2 -42.4 8.4 -42.85 8.6 -43.25 8.8 -43.7 8.95 -43.95 9.05 -44.15 9.1 -44.45 9.15 -44.65 9.25 -44.9 9.3 -45.1 9.35 -45.35 9.4 -45.6 9.45 -45.85 9.45 -46.1 9.5 -46.35 9.5 -46.55 9.5 -46.8 9.5 -47.05 9.5 -47.3 9.45 -47.55 9.4 -47.95 9.3 -48.25 9.15 -48.6 9.05 -48.9 8.85 -49.25 8.65 -49.5 8.4 -49.75 8.15 -50.0 7.9 -50.2 7.6 -50.4 7.3 -50.6 6.95 -50.7 6.6 -50.85 6.25 -50.9 5.85 -51.0 5.45 -51.05 5.0 -51.05 4.75 -51.05 4.45 -51.05 4.2 -51.0 3.95 -51.0 3.7 -50.95 3.4 -50.9 3.15 -50.85 2.9 -50.75 2.65 -50.7 2.4 -50.65 2.15 -50.55 1.9 -50.45 1.7 -50.4 1.4 -50.3 1.2 -50.2 0.9 -49.7 -0.6 -49.5 -1.4 -49.5 -1.45 -49.5 -1.5 -49.5 -1.55 -49.5 -1.6 -49.5 -1.7 -49.5 -1.75 -49.5 -1.8 -49.5 -1.85 -49.5 -1.9 -49.55 -1.95 -49.55 -2.0 -49.55 -2.1 -49.6 -2.15 -49.6 -2.2 -49.65 -2.25 -49.65 -2.3 -49.75 -2.6 -49.9 -2.85 -50.0 -3.15 -50.1 -3.45 -50.2 -3.75 -50.25 -4.0 -50.35 -4.3 -50.4 -4.6 -50.5 -4.9 -50.55 -5.2 -50.6 -5.5 -50.6 -5.8 -50.65 -6.1 -50.65 -6.4 -50.65 -6.7 -50.6 -7.05 -50.6 -7.25 -50.6 -7.35 -50.55 -7.5 -50.55 -7.6 -50.55 -7.75 -50.55 -7.9 -50.5 -8.05 -50.5 -8.2 -50.45 -8.35 -50.45 -8.45 -50.4 -8.6 -50.4 -8.75 -50.35 -8.9 -50.3 -9.0 -50.25 -9.15 -50.2 -9.3 -50.1 -9.45 -50.05 -9.6 -49.95 -9.75 -49.85 -9.9 -49.75 -10.05 -49.65 -10.15 -49.5 -10.25 -49.4 -10.4 -49.25 -10.5 -49.15 -10.6 -49.0 -10.65 -48.85 -10.75 -48.7 -10.85 -48.55 -10.9 -48.45 -11.0 -48.25 -11.05 -48.0 -11.15 -47.75 -11.2 -47.55 -11.3 -47.3 -11.35 -47.05 -11.4 -46.8 -11.4 -46.55 -11.4 -46.3 -11.4 -46.1 -11.4 -45.8 -11.4 -45.6 -11.4 -45.35 -11.35 -45.1 -11.3 -44.85 -11.25 -44.6 -11.2 -44.35 -11.15 -44.0 -11.05 -43.6 -10.95 -43.25 -10.85 -42.9 -10.7 -42.55 -10.55 -42.2 -10.4 -41.85 -10.2 -41.5 -10.05 -41.2 -9.85 -40.85 -9.65 -40.55 -9.45 -40.2 -9.25 -39.9 -9.05 -39.55 -8.8 -39.25 -8.6 -38.95 -8.35 -36.05 -6.15 -35.6 -5.8 -35.55 -5.8 -35.55 -5.75 -35.5 -5.75 -35.45 -5.7 -35.4 -5.7 -35.35 -5.7 -35.35 -5.7 -35.3 -5.7 -35.25 -5.7 -35.25 -5.7 -35.1 -5.8 -35.0 -5.85 -34.85 -5.9 -34.7 -5.9 -34.6 -5.95 -34.45 -5.95 -34.35 -5.95 -34.2 -5.95 -34.1 -5.95 -33.95 -5.9 -33.8 -5.9 -33.7 -5.85 -33.55 -5.8 -33.45 -5.75 -33.3 -5.7 -33.15 -5.65 -33.05 -5.6 -32.65 -5.45 -32.65 -5.5 -32.65 -5.6 -32.65 -5.65 -32.65 -5.75 -32.6 -5.8 -32.6 -5.85 -32.6 -5.95 -32.6 -6.0 -32.6 -6.05 -32.6 -6.1 -32.6 -6.2 -32.6 -6.25 -32.6 -6.3 -32.55 -6.35 -32.55 -6.45 -32.55 -6.5 -32.45 -6.8 -32.25 -7.35 -32.05 -7.95 -31.95 -8.2 -31.95 -8.25 -31.95 -8.25 -31.95 -8.3 -31.9 -8.35 -31.9 -8.4 -31.9 -8.4 -31.9 -8.45 -31.9 -8.5 -31.9 -8.5 -31.9 -8.55 -31.9 -8.6 -31.9 -8.65 -31.9 -8.65 -31.9 -8.7 -31.9 -8.75 -31.9 -8.8 -32.3 -11.6 -32.3 -11.95 -32.3 -12.1 -32.3 -12.25 -32.25 -12.4 -32.2 -12.55 -32.2 -12.7 -32.15 -12.85 -32.1 -13.0 -32.0 -13.15 -31.95 -13.3 -31.9 -13.45 -31.8 -13.6 -31.7 -13.75 -31.65 -13.85 -31.55 -14.0 -31.45 -14.1 -31.35 -14.25 -31.2 -14.45 -31.0 -14.65 -30.8 -14.85 -30.6 -15.0 -30.4 -15.15 -30.2 -15.25 -30.0 -15.4 -29.75 -15.45 -29.55 -15.55 -29.3 -15.65 -29.1 -15.7 -28.85 -15.8 -28.6 -15.85 -28.35 -15.9 -28.15 -15.95 -27.85 -16.0 -27.2 -16.1 -25.65 -16.35 -24.2 -16.55 -23.45 -16.7 -23.3 -16.7 -23.15 -16.75 -23.0 -16.75 -22.85 -16.8 -22.7 -16.85 -22.6 -16.9 -22.45 -16.95 -22.3 -17.0 -22.15 -17.05 -22.0 -17.1 -21.9 -17.15 -21.75 -17.2 -21.6 -17.3 -21.5 -17.35 -21.35 -17.45 -21.25 -17.55 -21.2 -17.55 -21.2 -17.6 -21.15 -17.6 -21.1 -17.6 -21.05 -17.6 -21.0 -17.6 -20.95 -17.6 -20.9 -17.6 -20.85 -17.6 -20.8 -17.55 -20.75 -17.55 -20.75 -17.55 -20.7 -17.55 -20.65 -17.5 -20.6 -17.5 -20.6 -17.45 -20.55 -17.45 -20.55 -17.4 -20.5 -17.4 -20.5 -17.35 -20.5 -17.3 -20.45 -17.25 -20.45 -17.2 -20.45 -17.15 -20.4 -17.15 -20.4 -17.1 -20.4 -17.05 -20.4 -17.0 -20.4 -16.95 -20.4 -16.9 -20.4 -16.85 -20.4 -16.85 -20.5 -16.55 -20.65 -16.15 -20.65 -16.1 -20.9 -15.4 -21.0 -15.0 -21.1 -14.7 -21.25 -14.35 -21.4 -14.0 -21.5 -13.65 -21.65 -13.3 -21.8 -12.95 -21.95 -12.65 -22.15 -12.3 -22.3 -12.0 -22.5 -11.65 -22.7 -11.35 -22.95 -11.05 -23.0 -10.9 -23.2 -10.7 -23.35 -10.5 -23.55 -10.25 -23.7 -10.1 -23.9 -9.85 -24.05 -9.7 -24.25 -9.5 -24.45 -9.35 -24.65 -9.2 -24.85 -9.05 -25.1 -8.9 -25.35 -8.8 -25.55 -8.7 -25.85 -8.6 -26.15 -8.5 -28.45 -8.2 -28.55 -8.2 -29.15 -8.15 -29.55 -8.1 -29.8 -8.05 -30.0 -8.05 -30.15 -8.0 -30.3 -7.95 -30.45 -7.9 -30.55 -7.85 -30.65 -7.75 -30.75 -7.7 -30.85 -7.6 -30.95 -7.5 -31.0 -7.35 -31.1 -7.25 -31.15 -7.1 -31.2 -6.95 -31.25 -6.75 -31.3 -6.6 -31.35 -6.4 -31.35 -6.35 -31.45 -5.55 -31.35 -5.55 -31.25 -5.5 -31.35 -5.55 -31.0 -5.5 -30.85 -5.5 -30.75 -5.45 -30.65 -5.45 -30.55 -5.4 -30.45 -5.4 -30.35 -5.35 -30.25 -5.3 -30.15 -5.25 -30.05 -5.2 -29.95 -5.1 -29.9 -5.0 -29.8 -4.9 -26.65 -6.35 -25.8 -6.7 -25.5 -6.85 -25.3 -6.95 -25.0 -7.05 -24.8 -7.15 -24.5 -7.3 -24.25 -7.4 -24.0 -7.5 -23.75 -7.6 -23.45 -7.7 -23.2 -7.75 -22.95 -7.85 -22.65 -7.9 -22.4 -8.0 -22.15 -8.05 -21.85 -8.1 -21.55 -8.15 -21.3 -8.2 -21.1 -8.2 -20.85 -8.25 -20.65 -8.3 -20.4 -8.3 -20.15 -8.3 -19.9 -8.35 -19.7 -8.35 -19.45 -8.35 -19.25 -8.3 -19.0 -8.3 -18.75 -8.3 -18.5 -8.25 -18.3 -8.2 -18.05 -8.15 -17.8 -8.1 -17.6 -8.05 -17.4 -8.0 -17.2 -7.9 -17.0 -7.85 -16.8 -7.75 -16.6 -7.65 -16.45 -7.55 -16.25 -7.45 -16.05 -7.35 -15.9 -7.25 -15.75 -7.1 -15.55 -6.95 -15.4 -6.8 -15.25 -6.65 -15.1 -6.5 -15.0 -6.3 -14.9 -6.2 -14.85 -6.1 -14.75 -6.0 -14.7 -5.85 -14.65 -5.75 -14.6 -5.65 -14.55 -5.5 -14.5 -5.4 -14.45 -5.25 -14.45 -5.15 -14.4 -5.0 -14.4 -4.9 -14.35 -4.75 -14.35 -4.65 -14.35 -4.5 -14.35 -4.35 -14.35 -3.95 -14.35 -3.6 -14.4 -3.2 -14.45 -2.85 -14.5 -2.45 -14.6 -2.1 -14.7 -1.75 -14.8 -1.4 -14.9 -1.05 -15.05 -0.7 -15.2 -0.35 -15.35 0.0 -15.5 0.3 -15.7 0.65 -15.9 0.95 -16.1 1.25 -16.15 1.3 -16.2 1.4 -16.2 1.35 -16.35 1.55 -16.4 1.65 -16.45 1.7 -16.5 1.8 -16.55 1.85 -16.6 1.95 -16.65 2.05 -16.65 2.1 -16.7 2.2 -16.7 2.3 -16.75 2.4 -16.75 2.5 -16.75 2.6 -16.7 3.15 -16.55 4.1 -16.55 4.25 -16.5 4.6 -16.45 4.9 -16.4 5.05 -16.35 5.3 -16.35 5.55 -16.3 5.8 -16.3 6.0 -16.25 6.25 -16.25 6.5 -16.2 6.75 -16.2 7.0 -16.2 7.25 -16.25 7.45 -16.25 7.7 -16.3 7.95 -16.35 8.2 -16.35 8.45 -16.4 8.75 -16.45 9.0 -16.55 9.25 -16.6 9.45 -16.7 9.7 -16.75 9.95 -16.85 10.2 -17.0 10.4 -17.1 10.6 -17.25 10.8 -17.4 11.0 -17.55 11.2 -17.75 11.4 -17.95 11.55 -18.15 11.7 -18.35 11.85 -18.5 11.95 -18.7 12.1 -18.9 12.2 -19.1 12.3 -19.35 12.35 -19.55 12.45 -19.75 12.5 -20.0 12.55 -20.2 12.55 -20.45 12.6 -20.65 12.6 -20.9 12.55 -21.15 12.55 -21.35 12.5 -21.75 12.4 -22.15 12.3 -22.5 12.15 -22.9 12.0 -23.25 11.85 -23.6 11.65 -23.95 11.5 -24.3 11.3 -24.65 11.1 -24.95 10.85 -25.3 10.6 -25.6 10.35 -25.9 10.1 -26.25 9.8 -26.55 9.55 -26.85 9.25 -27.05 9.05 -27.25 8.85 -27.45 8.6 -27.65 8.4 -27.8 8.2 -28.0 7.95 -28.15 7.75 -28.35 7.5 -28.5 7.25 -28.7 7.0 -28.85 6.8 -29.0 6.5 -29.15 6.3 -29.3 6.05 -29.45 5.8 -29.6 5.5 -29.7 5.35 -31.05 2.85 -31.15 2.7 -31.25 2.55 -31.45 2.25 -31.5 2.25 L-31.5 2.25 M-46.45 -1.4 Q-46.65 -1.35 -46.9 -1.3 -47.15 -1.25 -47.3 -1.25 -47.45 -1.2 -47.5 -1.2 -47.6 -1.15 -47.65 -1.15 -47.75 -1.1 -47.85 -1.05 -47.95 -1.0 -48.0 -0.95 -48.1 -0.9 -48.2 -0.85 -48.25 -0.8 -48.3 -0.7 -48.4 -0.65 -48.45 -0.55 -48.5 -0.45 -48.55 -0.35 -48.65 -0.1 -48.75 0.15 -48.8 0.45 -48.9 0.7 -48.95 0.95 -49.0 1.25 -49.05 1.5 -49.1 1.75 -49.15 2.0 -49.2 2.3 -49.25 2.55 -49.3 2.85 -49.35 3.1 -49.4 3.4 -49.4 3.55 -49.45 3.95 -49.5 4.2 -49.5 4.45 -49.55 4.7 -49.5 4.95 -49.5 5.2 -49.5 5.4 -49.45 5.65 -49.4 5.85 -49.3 6.1 -49.2 6.3 -49.1 6.5 -49.0 6.7 -48.85 6.85 -48.65 7.05 -48.5 7.2 -48.25 7.35 -48.1 7.45 -48.0 7.5 -47.85 7.6 -47.7 7.65 -47.6 7.7 -47.45 7.75 -47.3 7.8 -47.15 7.8 -47.0 7.85 -46.85 7.85 -46.7 7.85 -46.55 7.85 -46.45 7.85 -46.3 7.85 -46.15 7.85 -46.0 7.8 -45.6 7.75 -45.15 7.65 -44.75 7.55 -44.35 7.45 -44.0 7.3 -43.6 7.15 -43.2 7.0 -42.85 6.8 -42.5 6.65 -42.15 6.4 -41.8 6.2 -41.45 5.95 -41.1 5.75 -40.75 5.45 -40.4 5.2 -40.1 4.9 -39.85 4.7 -39.6 4.45 -39.35 4.25 -39.1 4.0 -38.9 3.75 -38.65 3.5 -38.4 3.3 -38.2 3.05 -37.95 2.8 -37.75 2.5 -37.55 2.25 -37.3 2.0 -37.1 1.75 -36.9 1.45 -36.7 1.2 -36.5 0.9 -36.45 0.85 -36.4 0.75 -36.35 0.7 -36.3 0.65 -36.25 0.6 -36.2 0.5 -36.15 0.45 -36.1 0.4 -36.05 0.3 -36.05 0.25 -36.0 0.15 -35.95 0.1 -35.95 0.0 -35.9 -0.05 -35.9 -0.15 -35.9 -0.25 -35.9 -0.3 -35.9 -0.35 -35.9 -0.45 -35.9 -0.5 -35.9 -0.55 -35.9 -0.55 -35.9 -0.6 -35.9 -0.65 -35.95 -0.7 -35.95 -0.7 -36.0 -0.75 -36.05 -0.75 -36.05 -0.8 -36.1 -0.8 -36.15 -0.8 -36.25 -0.85 -36.65 -0.9 -37.7 -1.1 -38.65 -1.25 -39.2 -1.3 -39.45 -1.35 -41.2 -1.45 -41.15 -1.5 -41.15 -1.5 -41.1 -1.55 -41.1 -1.55 -41.05 -1.55 -41.05 -1.6 -41.0 -1.6 -41.0 -1.6 -40.95 -1.65 -40.9 -1.65 -40.9 -1.65 -40.85 -1.65 -40.85 -1.65 -40.8 -1.65 -40.75 -1.65 -40.75 -1.65 -40.3 -1.7 -39.6 -1.7 -38.6 -1.75 -38.45 -1.8 -37.65 -1.8 -36.5 -1.95 -36.45 -1.95 -36.4 -1.95 -36.35 -2.0 -36.3 -2.0 -36.25 -2.05 -36.2 -2.05 -36.2 -2.1 -36.15 -2.15 -36.15 -2.2 -36.1 -2.25 -36.1 -2.3 -36.1 -2.35 -36.1 -2.4 -36.1 -2.45 -36.1 -2.5 -36.15 -2.55 -36.15 -2.65 -36.2 -2.7 -36.2 -2.75 -36.25 -2.8 -36.25 -2.9 -36.3 -2.95 -36.35 -3.0 -36.35 -3.05 -36.4 -3.1 -36.45 -3.1 -36.5 -3.15 -36.55 -3.2 -36.6 -3.2 -36.7 -3.25 -36.75 -3.25 -36.85 -3.25 -37.25 -3.3 -37.6 -3.4 -38.0 -3.45 -38.35 -3.55 -38.75 -3.65 -39.1 -3.75 -39.5 -3.85 -39.85 -3.95 -40.25 -4.05 -40.6 -4.2 -41.0 -4.3 -41.35 -4.45 -41.75 -4.55 -42.1 -4.7 -42.45 -4.85 -42.8 -5.05 -43.05 -5.15 -43.55 -5.4 -44.05 -5.6 -44.35 -5.75 -44.75 -5.9 -45.1 -6.1 -45.5 -6.3 -45.85 -6.5 -46.2 -6.7 -46.55 -6.9 -46.9 -7.15 -47.25 -7.4 -47.55 -7.7 -47.85 -8.0 -48.2 -8.3 -48.45 -8.65 -48.55 -8.5 -48.65 -8.35 -48.75 -8.2 -48.85 -8.0 -48.95 -7.85 -49.0 -7.7 -49.05 -7.5 -49.1 -7.35 -49.15 -7.15 -49.2 -7.0 -49.2 -6.8 -49.25 -6.6 -49.25 -6.45 -49.25 -6.25 -49.25 -6.05 -49.25 -5.85 -49.2 -5.5 -49.15 -5.15 -49.1 -4.8 -48.95 -4.5 -48.85 -4.15 -48.7 -3.85 -48.55 -3.55 -48.4 -3.3 -48.2 -3.0 -48.0 -2.75 -47.8 -2.5 -47.55 -2.25 -47.3 -2.05 -47.05 -1.8 -46.8 -1.6 -46.45 -1.4 L-46.45 -1.4 M-24.75 0.35 Q-24.75 0.35 -24.8 0.4 -24.8 0.45 -24.8 0.5 -25.35 0.35 -25.6 0.3 -29.6 -0.1 -29.7 -0.1 -29.8 -0.1 -29.85 -0.1 -29.9 -0.1 -29.95 -0.1 -30.0 -0.1 -30.05 -0.05 -30.1 -0.05 -30.1 0.0 -30.15 0.05 -30.15 0.1 -30.2 0.15 -30.2 0.2 -30.2 0.25 -30.2 0.3 -30.25 0.4 -30.25 0.45 -30.25 0.55 -30.25 0.7 -30.25 0.8 -30.2 0.9 -30.2 1.0 -30.15 1.1 -30.1 1.2 -30.05 1.3 -30.05 1.4 -30.0 1.5 -29.95 1.55 -29.9 1.65 -29.8 1.8 -29.8 1.85 -29.75 1.95 -29.7 2.05 -29.5 2.5 -29.3 2.9 -29.05 3.35 -28.85 3.75 -28.6 4.2 -28.35 4.6 -28.15 5.0 -27.9 5.4 -27.6 5.8 -27.35 6.2 -27.05 6.55 -26.75 6.95 -26.45 7.3 -26.15 7.65 -25.85 8.0 -25.5 8.3 -25.25 8.55 -25.05 8.75 -24.8 8.95 -24.55 9.15 -24.3 9.35 -24.05 9.5 -23.8 9.7 -23.55 9.85 -23.3 10.0 -23.05 10.15 -22.75 10.3 -22.5 10.4 -22.2 10.55 -21.9 10.65 -21.65 10.75 -21.35 10.8 -21.1 10.85 -20.85 10.9 -20.6 10.9 -20.35 10.9 -20.1 10.85 -19.9 10.8 -19.65 10.75 -19.45 10.65 -19.25 10.55 -19.1 10.4 -18.9 10.3 -18.75 10.15 -18.6 9.95 -18.45 9.75 -18.35 9.55 -18.25 9.35 -18.2 9.25 -18.15 9.15 -18.15 9.05 -18.1 8.95 -18.05 8.85 -18.0 8.75 -18.0 8.65 -17.95 8.55 -17.95 8.4 -17.9 8.3 -17.9 8.2 -17.85 8.1 -17.85 8.0 -17.85 7.9 -17.85 7.8 -17.8 7.7 -17.8 6.9 -17.8 5.6 -17.85 4.0 -17.85 3.5 -17.85 3.4 -17.85 3.3 -17.9 3.2 -17.9 3.1 -17.95 3.0 -17.95 2.9 -18.0 2.85 -18.05 2.75 -18.1 2.7 -18.15 2.6 -18.25 2.55 -18.3 2.5 -18.35 2.45 -18.45 2.35 -18.5 2.3 -18.6 2.25 -18.75 2.2 -19.1 2.0 -19.45 1.85 -19.65 1.75 -19.4 1.65 -19.15 1.55 -18.9 1.45 -18.7 1.3 -18.45 1.2 -18.25 1.05 -18.05 0.9 -17.85 0.75 -17.65 0.6 -17.5 0.4 -17.3 0.25 -17.15 0.05 -16.95 -0.15 -16.85 -0.4 -16.7 -0.6 -16.55 -0.8 -16.4 -1.05 -16.3 -1.3 -16.2 -1.55 -16.1 -1.8 -16.05 -2.05 -16.0 -2.3 -15.95 -2.55 -15.9 -2.8 -15.9 -3.05 -15.9 -3.35 -15.95 -3.6 -15.95 -3.85 -16.0 -4.15 -16.1 -4.4 -16.2 -4.65 -16.3 -4.95 -16.4 -4.8 -16.55 -4.7 -16.65 -4.6 -16.8 -4.5 -16.95 -4.4 -17.05 -4.3 -17.2 -4.2 -17.35 -4.1 -17.45 -4.05 -17.6 -3.95 -17.75 -3.9 -17.9 -3.85 -18.05 -3.8 -18.2 -3.75 -18.35 -3.7 -18.5 -3.65 -19.1 -3.45 -19.7 -3.3 -20.3 -3.1 -20.9 -3.0 -21.55 -2.85 -22.15 -2.75 -22.75 -2.6 -23.35 -2.5 -24.0 -2.45 -24.6 -2.4 -25.2 -2.3 -25.85 -2.3 -26.45 -2.25 -27.1 -2.3 -27.7 -2.3 -28.35 -2.35 -28.4 -2.35 -28.65 -2.35 -28.8 -2.35 -28.9 -2.35 -28.95 -2.35 -29.0 -2.35 -29.1 -2.3 -29.15 -2.25 -29.2 -2.25 -29.25 -2.2 -29.3 -2.15 -29.35 -2.1 -29.4 -2.05 -29.45 -2.0 -29.5 -1.95 -29.5 -1.85 -29.55 -1.8 -29.55 -1.75 -29.6 -1.7 -29.6 -1.65 -29.6 -1.6 -29.6 -1.5 -29.6 -1.45 -29.6 -1.4 -29.55 -1.35 -29.55 -1.3 -29.5 -1.3 -29.5 -1.25 -29.45 -1.2 -29.4 -1.2 -29.4 -1.15 -29.35 -1.15 -29.3 -1.1 -29.25 -1.1 -29.2 -1.05 -29.15 -1.05 -29.0 -1.0 -28.35 -0.8 -27.85 -0.65 -27.55 -0.55 -27.25 -0.45 -26.6 -0.3 -26.0 -0.15 -25.7 -0.05 -25.55 0.0 -24.75 0.35 L-24.75 0.35 M-21.6 -16.15 Q-24.0 -15.6 -24.35 -15.55 -25.05 -15.4 -26.35 -15.2 -27.8 -15.0 -28.4 -14.9 -28.65 -14.85 -28.85 -14.8 -29.05 -14.75 -29.25 -14.65 -29.45 -14.6 -29.65 -14.5 -29.85 -14.4 -30.0 -14.3 -30.2 -14.15 -30.35 -14.0 -30.5 -13.85 -30.65 -13.7 -30.8 -13.5 -30.95 -13.3 -31.05 -13.1 -31.15 -12.85 -31.2 -12.7 -31.25 -12.55 -31.3 -12.45 -31.3 -12.3 -31.35 -12.15 -31.35 -12.0 -31.4 -11.85 -31.4 -11.7 -31.4 -11.6 -31.4 -11.45 -31.4 -11.3 -31.4 -11.15 -31.35 -11.0 -31.35 -10.85 -31.35 -10.7 -31.35 -10.55 -31.15 -9.45 -31.15 -9.3 -30.3 -10.6 -30.1 -10.9 -30.05 -10.95 -30.05 -11.0 -30.0 -11.0 -30.0 -11.05 -29.95 -11.1 -29.95 -11.15 -29.9 -11.2 -29.9 -11.25 -29.85 -11.3 -29.85 -11.3 -29.85 -11.35 -29.8 -11.4 -29.8 -11.45 -29.8 -11.5 -29.75 -11.55 -29.75 -11.6 -29.7 -11.85 -29.6 -12.05 -29.55 -12.25 -29.45 -12.45 -29.35 -12.65 -29.25 -12.85 -29.1 -13.05 -29.0 -13.2 -28.85 -13.4 -28.75 -13.55 -28.6 -13.7 -28.45 -13.85 -28.25 -14.0 -28.1 -14.1 -27.9 -14.25 -27.75 -14.35 -27.7 -14.4 -27.4 -14.5 -27.35 -14.45 -27.3 -14.35 -27.4 -14.25 -27.55 -14.1 -27.7 -13.95 -27.75 -13.9 -27.9 -13.75 -28.0 -13.65 -28.1 -13.55 -28.2 -13.4 -28.35 -13.3 -28.4 -13.15 -28.55 -13.05 -28.6 -12.9 -28.7 -12.75 -28.8 -12.6 -28.85 -12.45 -28.95 -12.3 -28.85 -12.35 -28.75 -12.35 -28.7 -12.4 -28.6 -12.45 -28.5 -12.45 -28.45 -12.5 -28.35 -12.55 -28.25 -12.55 -28.2 -12.6 -28.1 -12.65 -28.05 -12.65 -27.95 -12.7 -27.9 -12.75 -27.8 -12.75 -27.75 -12.8 -27.65 -12.85 -27.45 -12.95 -27.05 -13.15 -26.65 -13.3 -26.4 -13.4 -26.15 -13.55 -25.25 -13.9 -25.25 -13.85 -25.2 -13.8 -25.2 -13.8 -25.15 -13.75 -25.15 -13.75 -25.15 -13.7 -25.8 -13.3 -27.15 -12.5 -25.85 -12.5 -25.15 -12.5 -25.1 -12.5 -24.75 -12.35 -24.8 -12.35 -24.85 -12.3 -24.95 -12.25 -24.95 -12.25 -25.0 -12.2 -25.05 -12.2 -25.1 -12.2 -25.1 -12.2 -25.25 -12.2 -25.4 -12.15 -25.55 -12.15 -25.75 -12.15 -25.9 -12.1 -26.05 -12.1 -26.2 -12.1 -26.35 -12.05 -26.5 -12.05 -26.65 -12.05 -26.8 -12.0 -26.95 -12.0 -27.1 -12.0 -27.3 -12.0 -27.45 -11.95 -27.6 -11.95 -27.75 -11.95 -27.9 -11.9 -28.05 -11.9 -28.2 -11.85 -28.3 -11.8 -28.45 -11.75 -28.55 -11.65 -28.7 -11.6 -28.8 -11.5 -28.9 -11.4 -29.0 -11.3 -29.1 -11.2 -29.2 -11.1 -29.3 -11.0 -29.4 -10.85 -29.5 -10.75 -29.95 -10.05 -30.6 -9.05 -30.5 -9.05 -29.8 -9.1 -29.65 -9.1 -27.25 -9.25 -27.05 -9.25 -26.85 -9.3 -26.7 -9.3 -26.5 -9.35 -26.3 -9.4 -26.15 -9.5 -25.95 -9.55 -25.8 -9.6 -25.65 -9.7 -25.45 -9.8 -25.3 -9.9 -25.15 -10.0 -25.0 -10.1 -24.85 -10.25 -24.7 -10.4 -24.55 -10.55 -24.25 -10.85 -24.0 -11.15 -23.75 -11.45 -23.55 -11.8 -23.3 -12.1 -23.1 -12.45 -22.9 -12.8 -22.75 -13.15 -22.55 -13.5 -22.4 -13.85 -22.25 -14.2 -22.1 -14.6 -21.95 -14.95 -21.85 -15.35 -21.7 -15.75 -21.6 -16.15 L-21.6 -16.15 M-36.75 -4.6 Q-36.95 -4.8 -37.0 -4.85 -40.9 -7.75 -41.25 -8.0 -41.5 -8.2 -41.8 -8.35 -42.05 -8.55 -42.35 -8.7 -42.65 -8.85 -42.9 -8.95 -43.2 -9.1 -43.5 -9.2 -43.8 -9.3 -44.1 -9.4 -44.4 -9.5 -44.7 -9.55 -45.0 -9.6 -45.35 -9.65 -45.65 -9.7 -45.95 -9.75 -46.05 -9.75 -46.15 -9.75 -46.25 -9.75 -46.35 -9.75 -46.4 -9.75 -46.5 -9.75 -46.6 -9.75 -46.7 -9.75 -46.8 -9.7 -46.9 -9.7 -47.1 -9.7 -47.1 -9.7 -47.2 -9.7 -47.3 -9.7 -47.4 -9.65 -47.5 -9.65 -47.45 -9.5 -47.4 -9.4 -47.3 -9.3 -47.25 -9.2 -47.2 -9.1 -47.1 -9.0 -47.0 -8.9 -46.95 -8.8 -46.85 -8.7 -46.75 -8.65 -46.7 -8.55 -46.6 -8.5 -46.5 -8.45 -46.4 -8.35 -46.35 -8.3 -46.25 -8.25 -45.7 -7.9 -45.15 -7.6 -44.55 -7.3 -44.0 -7.0 -43.4 -6.7 -42.85 -6.45 -42.25 -6.2 -41.65 -5.95 -41.05 -5.7 -40.45 -5.5 -39.85 -5.3 -39.25 -5.15 -38.6 -5.0 -38.0 -4.85 -37.35 -4.7 -36.75 -4.6 L-36.75 -4.6 M-17.05 -6.0 Q-17.25 -6.15 -17.35 -6.2 -17.95 -6.4 -17.95 -6.4 -18.25 -6.45 -18.5 -6.5 -18.8 -6.55 -19.05 -6.6 -19.35 -6.65 -19.6 -6.65 -19.9 -6.65 -20.15 -6.65 -20.45 -6.65 -20.7 -6.65 -21.0 -6.6 -21.25 -6.55 -21.55 -6.5 -21.8 -6.45 -22.1 -6.35 -22.35 -6.25 -23.1 -6.0 -28.4 -3.75 -28.4 -3.75 -28.4 -3.7 -28.45 -3.65 -28.5 -3.55 -24.6 -3.75 -23.85 -3.8 -23.5 -3.85 -23.2 -3.9 -22.85 -3.95 -22.5 -4.0 -22.15 -4.05 -21.85 -4.1 -21.5 -4.15 -21.15 -4.25 -20.8 -4.3 -20.5 -4.4 -20.15 -4.5 -19.85 -4.6 -19.5 -4.7 -19.15 -4.8 -18.85 -4.9 -18.5 -5.0 -18.4 -5.05 -18.3 -5.1 -18.2 -5.15 -18.1 -5.15 -18.0 -5.2 -17.9 -5.25 -17.8 -5.35 -17.75 -5.4 -17.65 -5.45 -17.55 -5.5 -17.45 -5.6 -17.35 -5.65 -17.3 -5.75 -17.2 -5.85 -17.1 -5.9 -17.05 -6.0 L-17.05 -6.0 M-32.9 0.8 Q-32.9 0.8 -32.85 0.75 -32.75 0.75 -32.4 0.7 -32.1 0.7 -31.95 0.65 -31.9 0.65 -31.8 0.65 -31.75 0.6 -31.7 0.6 -31.65 0.6 -31.6 0.55 -31.6 0.55 -31.55 0.5 -31.5 0.45 -31.5 0.4 -31.45 0.35 -31.45 0.3 -31.45 0.25 -31.45 0.2 -31.45 0.1 -31.45 0.05 -31.45 -0.1 -31.45 -0.3 -31.45 -0.45 -31.45 -0.6 -31.45 -0.75 -31.4 -0.95 -31.4 -1.1 -31.35 -1.25 -31.3 -1.4 -31.25 -1.55 -31.25 -1.7 -31.2 -1.85 -31.15 -2.0 -31.05 -2.2 -31.0 -2.35 -30.95 -2.5 -30.95 -2.55 -30.9 -2.6 -30.9 -2.65 -30.9 -2.7 -30.9 -2.75 -30.85 -2.85 -30.85 -2.9 -30.85 -2.95 -30.85 -3.0 -30.85 -3.1 -30.85 -3.15 -30.85 -3.2 -30.85 -3.2 -30.85 -3.35 -30.85 -3.4 -30.85 -3.45 -30.85 -3.5 -30.85 -3.55 -30.85 -3.65 -30.85 -3.7 -30.9 -3.7 -30.9 -3.75 -30.95 -3.8 -30.95 -3.8 -31.0 -3.85 -31.05 -3.85 -31.05 -3.85 -31.1 -3.9 -31.15 -3.9 -31.2 -3.9 -31.25 -3.9 -31.3 -3.85 -31.5 -3.8 -31.65 -3.8 -31.85 -3.8 -32.0 -3.8 -32.2 -3.8 -32.35 -3.8 -32.5 -3.8 -32.7 -3.8 -32.85 -3.85 -33.05 -3.85 -33.2 -3.9 -33.35 -3.95 -33.55 -4.0 -33.7 -4.05 -33.85 -4.15 -34.0 -4.2 -34.1 -4.25 -34.15 -4.25 -34.25 -4.3 -34.3 -4.3 -34.35 -4.3 -34.4 -4.3 -34.45 -4.3 -34.5 -4.25 -34.55 -4.2 -34.55 -4.15 -34.6 -4.15 -34.6 -4.05 -34.65 -4.0 -34.65 -3.9 -34.65 -3.85 -34.7 -3.75 -34.7 -3.7 -34.7 -3.55 -34.7 -3.45 -34.7 -3.4 -34.5 -2.05 -34.5 -1.85 -34.5 -1.45 -34.7 -0.05 -34.7 0.0 -34.7 0.05 -34.7 0.1 -34.7 0.15 -34.7 0.2 -34.7 0.2 -34.7 0.25 -34.65 0.3 -34.65 0.35 -34.65 0.35 -34.6 0.4 -34.55 0.4 -34.55 0.4 -34.5 0.45 -34.45 0.45 -34.45 0.45 -34.1 0.55 -32.9 0.8 L-32.9 0.8" fill="#000000" fill-rule="evenodd" stroke="none"/>
    <path d="M-36.75 -4.6 Q-37.4 -4.7 -38.0 -4.85 -38.65 -5.0 -39.25 -5.15 -39.85 -5.3 -40.45 -5.5 -41.05 -5.7 -41.65 -5.95 -42.25 -6.2 -42.85 -6.45 -43.4 -6.7 -44.0 -7.0 -44.55 -7.3 -45.1 -7.6 -45.65 -7.9 -46.25 -8.25 -46.35 -8.3 -46.45 -8.35 -46.5 -8.45 -46.6 -8.5 -46.7 -8.55 -46.8 -8.65 -46.85 -8.75 -46.95 -8.8 -47.05 -8.9 -47.1 -9.0 -47.2 -9.1 -47.25 -9.2 -47.3 -9.3 -47.4 -9.4 -47.45 -9.55 -47.5 -9.65 -46.2 -9.75 -45.95 -9.75 -45.65 -9.7 -45.3 -9.7 -45.0 -9.65 -44.7 -9.55 -44.4 -9.5 -44.1 -9.4 -43.8 -9.3 -43.5 -9.2 -43.2 -9.1 -42.9 -8.95 -42.6 -8.85 -42.35 -8.65 -42.05 -8.5 -41.8 -8.35 -41.5 -8.2 -41.25 -8.0 -40.9 -7.75 -37.0 -4.85 -36.95 -4.8 -36.9 -4.75 -36.75 -4.65 -36.75 -4.6 L-36.75 -4.6" fill="#000000" fill-opacity="0.2784314" fill-rule="evenodd" stroke="none"/>
    <path d="M-17.05 -6.0 Q-17.1 -5.9 -17.2 -5.8 -17.3 -5.75 -17.35 -5.65 -17.45 -5.6 -17.55 -5.5 -17.65 -5.45 -17.75 -5.4 -17.8 -5.35 -17.9 -5.3 -18.0 -5.25 -18.1 -5.2 -18.2 -5.15 -18.3 -5.1 -18.4 -5.05 -18.5 -5.0 -18.85 -4.9 -19.15 -4.8 -19.5 -4.7 -19.8 -4.6 -20.15 -4.5 -20.5 -4.4 -20.8 -4.3 -21.15 -4.25 -21.5 -4.15 -21.85 -4.1 -22.15 -4.05 -22.5 -4.0 -22.85 -3.95 -23.2 -3.9 -23.55 -3.85 -23.85 -3.8 -24.05 -3.8 -28.5 -3.55 -28.4 -3.75 -28.4 -3.75 -23.3 -5.9 -22.35 -6.25 -22.1 -6.35 -21.8 -6.4 -21.55 -6.5 -21.25 -6.55 -21.0 -6.6 -20.7 -6.65 -20.45 -6.65 -20.15 -6.65 -19.9 -6.65 -19.6 -6.65 -19.35 -6.65 -19.05 -6.6 -18.8 -6.6 -18.5 -6.55 -18.25 -6.5 -17.95 -6.4 -17.8 -6.35 -17.35 -6.2 -17.3 -6.15 -17.2 -6.1 -17.1 -6.05 -17.05 -6.0 L-17.05 -6.0" fill="#000000" fill-opacity="0.2784314" fill-rule="evenodd" stroke="none"/>
  </g>
</svg>
