<?xml version="1.0" encoding="UTF-8" standalone="no"?>
<svg xmlns:xlink="http://www.w3.org/1999/xlink" height="200.0px" width="300.0px" xmlns="http://www.w3.org/2000/svg">
  <g transform="matrix(1.0, 0.0, 0.0, 1.0, 150.0, 100.0)">
    <path d="M38.7 76.0 Q38.2 76.1 37.7 76.2 37.2 76.3 36.7 76.4 36.25 76.5 35.7 76.6 35.25 76.65 34.7 76.75 34.2 76.8 33.7 76.9 33.2 76.95 32.7 77.0 32.2 77.05 31.65 77.1 31.15 77.15 30.6 77.15 30.85 77.55 31.7 79.0 32.35 80.05 32.75 80.75 33.05 81.3 33.35 81.9 33.6 82.5 33.85 83.05 34.05 83.65 34.25 84.25 34.4 84.85 34.5 85.45 34.6 86.05 34.7 86.65 34.75 87.3 34.75 87.9 34.7 88.55 34.65 89.2 34.6 89.8 34.45 90.45 34.3 91.1 34.05 91.65 33.8 92.2 33.45 92.65 33.1 93.1 32.65 93.45 32.2 93.8 31.7 94.05 31.15 94.3 30.6 94.4 30.05 94.5 29.5 94.5 28.9 94.45 28.3 94.3 27.7 94.15 27.15 93.8 26.9 93.65 26.65 93.5 26.45 93.35 26.25 93.15 26.1 92.95 25.9 92.75 25.75 92.55 25.6 92.3 25.5 92.1 25.35 91.85 25.25 91.6 25.15 91.35 25.1 91.1 25.0 90.8 24.95 90.55 24.85 90.25 24.7 89.65 24.65 89.05 24.55 88.45 24.55 87.85 24.5 87.25 24.55 86.65 24.55 86.05 24.65 85.45 24.75 84.85 24.85 84.3 25.0 83.7 25.15 83.15 25.35 82.55 25.55 82.0 25.8 81.45 26.05 80.85 27.6 77.85 28.0 77.25 27.25 77.25 26.5 77.2 25.8 77.15 25.05 77.05 24.3 77.0 23.6 76.9 22.85 76.8 22.15 76.7 21.45 76.6 20.7 76.45 20.0 76.35 19.25 76.2 18.55 76.05 17.8 75.85 17.1 75.7 16.35 75.55 16.45 75.8 16.6 76.1 16.7 76.35 16.85 76.7 17.55 78.35 17.05 77.2 17.2 77.55 17.3 77.75 17.45 78.05 17.5 78.3 17.65 78.6 17.7 78.85 17.8 79.15 17.85 79.4 17.95 79.7 18.0 79.95 18.05 80.25 18.1 80.55 18.1 80.85 18.15 81.15 18.15 81.4 18.15 81.7 18.15 82.0 18.15 82.3 18.15 82.6 18.1 82.85 18.05 83.15 18.0 83.45 17.95 83.7 17.85 84.0 17.8 84.3 17.7 84.55 17.6 84.85 17.45 85.15 17.3 85.4 17.15 85.6 17.0 85.85 16.8 86.0 16.6 86.15 16.4 86.3 16.2 86.45 15.95 86.5 15.7 86.6 15.45 86.65 15.2 86.7 14.85 86.7 14.55 86.7 14.2 86.65 13.9 86.65 13.65 86.55 13.35 86.5 13.15 86.45 12.9 86.35 12.7 86.2 12.5 86.1 12.3 85.95 12.15 85.75 12.0 85.6 11.85 85.4 11.7 85.15 11.6 84.9 11.5 84.65 11.4 84.35 11.35 84.05 11.25 83.6 11.2 83.2 11.2 82.75 11.2 82.3 11.2 81.9 11.25 81.45 11.3 81.05 11.35 80.65 11.45 80.25 11.55 79.85 11.7 79.45 11.85 79.05 12.0 78.65 12.2 78.25 12.4 77.85 12.65 77.5 12.9 77.1 14.15 75.05 13.25 74.85 12.4 74.6 11.5 74.4 10.65 74.15 9.8 73.9 8.95 73.65 8.05 73.35 7.2 73.1 6.35 72.8 5.5 72.5 4.65 72.15 3.8 71.85 2.95 71.5 2.1 71.15 1.25 70.75 0.4 70.4 0.5 70.65 0.6 70.95 0.7 71.15 0.85 71.45 0.5 70.7 1.05 71.95 1.2 72.25 1.25 72.45 1.35 72.75 1.45 72.95 1.55 73.25 1.65 73.45 1.7 73.7 1.75 73.95 1.85 74.25 1.9 74.5 1.95 74.8 2.0 75.1 2.0 75.4 2.05 75.7 2.05 76.0 2.05 76.3 2.05 76.6 2.05 76.85 2.0 77.15 2.0 77.45 1.95 77.75 1.9 78.05 1.85 78.35 1.75 78.6 1.65 78.9 1.55 79.2 1.45 79.5 1.3 79.75 1.15 80.0 1.0 80.25 0.85 80.45 0.65 80.6 0.5 80.75 0.25 80.9 0.05 81.0 -0.2 81.1 -0.45 81.15 -0.7 81.2 -1.0 81.25 -1.3 81.25 -1.6 81.25 -1.95 81.2 -2.25 81.2 -2.5 81.1 -2.75 81.05 -3.0 81.0 -3.2 80.9 -3.45 80.75 -3.65 80.65 -3.8 80.5 -3.95 80.3 -4.1 80.15 -4.25 79.95 -4.4 79.7 -4.5 79.45 -4.6 79.2 -4.7 78.95 -4.75 78.65 -4.85 78.25 -4.9 77.85 -4.9 77.45 -4.9 77.0 -4.95 76.65 -4.9 76.25 -4.85 75.85 -4.8 75.45 -4.7 75.05 -4.6 74.7 -4.5 74.3 -4.35 73.95 -4.25 73.55 -4.05 73.2 -3.9 72.8 -3.7 72.45 -3.4 71.85 -2.55 70.6 -2.35 70.3 -2.3 70.2 -2.2 70.0 -2.15 69.9 -2.05 69.75 -2.05 69.65 -2.0 69.55 -2.05 69.45 -2.05 69.4 -2.15 69.3 -2.2 69.2 -2.35 69.15 -2.5 69.05 -2.7 68.95 -2.8 68.9 -3.1 68.75 -3.7 68.45 -4.3 68.15 -4.9 67.8 -5.5 67.5 -6.1 67.15 -6.7 66.85 -7.3 66.5 -7.9 66.2 -8.5 65.85 -9.1 65.5 -9.65 65.15 -10.25 64.8 -10.85 64.45 -11.4 64.1 -12.0 63.75 -12.6 63.4 -12.65 63.5 -12.65 63.55 -12.7 63.65 -12.7 63.7 -12.7 63.8 -12.7 63.85 -12.7 63.9 -12.65 64.0 -12.65 64.05 -12.6 64.1 -12.6 64.15 -12.55 64.25 -12.5 64.3 -12.5 64.35 -12.45 64.4 -12.45 64.45 -12.3 64.85 -12.2 65.3 -12.1 65.7 -12.0 66.1 -11.95 66.55 -11.9 66.95 -11.85 67.35 -11.85 67.75 -11.85 68.2 -11.85 68.6 -11.9 69.0 -11.95 69.45 -12.0 69.85 -12.15 70.25 -12.25 70.65 -12.35 71.1 -12.5 71.45 -12.65 71.75 -12.8 72.05 -12.95 72.3 -13.15 72.55 -13.35 72.75 -13.55 72.95 -13.8 73.1 -14.0 73.25 -14.25 73.35 -14.55 73.45 -14.8 73.5 -15.1 73.55 -15.4 73.55 -15.75 73.55 -16.05 73.5 -16.4 73.45 -16.7 73.35 -17.05 73.25 -17.3 73.15 -17.55 73.0 -17.8 72.85 -18.0 72.7 -18.15 72.5 -18.35 72.3 -18.5 72.05 -18.6 71.8 -18.7 71.5 -18.8 71.2 -18.85 70.85 -18.9 70.55 -18.9 70.15 -18.9 69.7 -18.9 69.3 -18.9 68.9 -18.8 68.45 -18.75 68.05 -18.65 67.65 -18.55 67.25 -18.45 66.9 -18.3 66.5 -18.15 66.1 -17.95 65.75 -17.75 65.4 -17.55 65.05 -17.35 64.65 -17.1 64.35 -16.85 64.0 -16.65 63.7 -15.1 61.8 -20.75 58.0 -24.7 55.0 -23.85 57.95 -23.8 58.35 -23.75 58.75 -23.7 59.1 -23.65 59.5 -23.65 59.85 -23.6 60.25 -23.6 60.6 -23.65 61.0 -23.7 61.35 -23.75 61.7 -23.8 62.05 -23.9 62.4 -24.0 62.75 -24.15 63.15 -24.3 63.45 -24.45 63.8 -24.65 64.15 -24.8 64.45 -25.0 64.65 -25.15 64.85 -25.35 65.05 -25.5 65.2 -25.7 65.35 -25.9 65.45 -26.15 65.55 -26.35 65.6 -26.6 65.65 -26.85 65.7 -27.15 65.65 -27.4 65.65 -27.75 65.6 -28.05 65.6 -28.4 65.5 -28.65 65.45 -28.85 65.35 -29.1 65.25 -29.25 65.15 -29.45 65.05 -29.65 64.9 -29.8 64.75 -29.95 64.6 -30.1 64.4 -30.2 64.2 -30.3 64.0 -30.4 63.8 -30.5 63.55 -30.55 63.3 -30.6 63.05 -30.65 62.8 -30.7 62.35 -30.7 61.95 -30.7 61.55 -30.7 61.15 -30.65 60.7 -30.6 60.3 -30.5 59.95 -30.4 59.55 -30.3 59.15 -30.15 58.8 -30.0 58.4 -29.85 58.05 -29.65 57.7 -29.45 57.3 -29.25 56.95 -29.0 56.6 -28.85 56.4 -28.7 56.2 -28.55 56.0 -28.45 55.8 -28.3 55.6 -28.15 55.4 -28.0 55.25 -27.85 55.05 -27.65 54.85 -27.5 54.65 -27.35 54.5 -27.2 54.3 -27.0 54.1 -26.85 53.95 -26.65 53.75 -26.5 53.6 -27.0 53.2 -27.45 52.8 -27.95 52.4 -28.4 52.0 -28.9 51.6 -29.35 51.2 -29.85 50.8 -30.3 50.4 -30.8 50.0 -31.25 49.6 -31.7 49.15 -32.15 48.75 -32.6 48.35 -33.05 47.9 -33.5 47.5 -33.95 47.05 -34.0 47.05 -34.0 47.0 -34.05 47.0 -34.05 46.95 -34.1 46.9 -34.1 46.9 -34.15 46.85 -34.2 46.85 -34.2 46.8 -34.25 46.8 -34.3 46.75 -34.3 46.75 -34.35 46.75 -34.4 46.75 -34.45 46.75 -34.5 46.8 -34.55 46.8 -34.6 46.85 -34.65 46.9 -34.65 46.9 -34.7 46.95 -34.7 47.0 -34.7 47.05 -34.7 47.05 -34.7 47.1 -34.7 47.15 -34.65 47.2 -34.65 47.25 -34.65 47.3 -34.65 47.35 -34.6 47.4 -34.6 47.45 -34.55 47.7 -34.55 48.0 -34.5 48.25 -34.5 48.5 -34.5 48.75 -34.5 49.05 -34.5 49.3 -34.55 49.55 -34.55 49.8 -34.6 50.05 -34.65 50.35 -34.7 50.6 -34.75 50.85 -34.8 51.1 -34.9 51.35 -35.0 51.6 -35.1 51.9 -35.25 52.15 -35.35 52.4 -35.5 52.6 -35.7 52.85 -35.85 53.0 -36.0 53.15 -36.2 53.3 -36.4 53.4 -36.65 53.5 -36.85 53.55 -37.1 53.6 -37.35 53.6 -37.6 53.6 -37.9 53.6 -38.2 53.55 -38.5 53.5 -38.75 53.45 -39.0 53.35 -39.2 53.25 -39.45 53.15 -39.65 53.0 -39.8 52.85 -39.95 52.7 -40.1 52.5 -40.2 52.3 -40.35 52.1 -40.4 51.85 -40.5 51.6 -40.55 51.3 -40.6 51.05 -40.6 50.7 -40.6 50.25 -40.6 49.85 -40.55 49.4 -40.45 49.0 -40.4 48.6 -40.3 48.2 -40.15 47.8 -40.0 47.4 -39.85 47.05 -39.65 46.65 -39.45 46.3 -39.2 45.95 -39.0 45.6 -38.7 45.25 -38.45 44.95 -38.15 44.6 -38.0 44.45 -37.95 44.35 -37.85 44.2 -37.8 44.1 -37.75 44.0 -37.7 43.9 -37.7 43.8 -37.7 43.7 -37.7 43.6 -37.75 43.45 -37.8 43.35 -37.9 43.25 -37.95 43.15 -38.05 43.05 -38.15 42.95 -38.25 42.8 -39.0 42.05 -43.0 37.7 -43.05 37.9 -43.05 38.15 -43.1 38.3 -43.1 38.55 -43.1 38.65 -43.15 38.95 -43.15 39.2 -43.15 39.35 -43.2 39.6 -43.2 39.75 -43.2 40.0 -43.25 40.15 -43.3 40.35 -43.35 40.55 -43.4 40.75 -43.45 40.95 -43.45 41.0 -43.55 41.2 -43.6 41.3 -43.6 41.4 -43.65 41.55 -43.7 41.65 -43.75 41.75 -43.8 41.85 -43.85 41.95 -43.9 42.1 -43.95 42.2 -44.0 42.3 -44.05 42.4 -44.1 42.5 -44.15 42.6 -44.25 42.7 -44.45 42.95 -44.6 43.2 -44.8 43.4 -45.0 43.55 -45.15 43.75 -45.35 43.85 -45.55 43.95 -45.8 44.05 -46.0 44.1 -46.2 44.15 -46.45 44.15 -46.7 44.15 -46.95 44.1 -47.2 44.05 -47.5 44.0 -47.8 43.85 -48.05 43.75 -48.25 43.65 -48.45 43.55 -48.6 43.4 -48.8 43.25 -48.9 43.1 -49.05 42.95 -49.15 42.75 -49.3 42.55 -49.35 42.35 -49.45 42.1 -49.45 41.85 -49.5 41.65 -49.5 41.35 -49.5 41.1 -49.5 40.8 -49.45 40.4 -49.35 40.0 -49.3 39.6 -49.15 39.2 -49.05 38.85 -48.9 38.45 -48.75 38.1 -48.55 37.75 -48.35 37.4 -48.1 37.1 -47.9 36.8 -47.6 36.5 -47.35 36.2 -47.05 35.9 -46.8 35.6 -46.45 35.35 -46.3 35.2 -46.2 35.1 -46.1 35.0 -46.0 34.9 -45.95 34.8 -45.9 34.65 -45.9 34.55 -45.85 34.45 -45.85 34.35 -45.9 34.25 -45.95 34.15 -46.0 34.0 -46.05 33.9 -46.15 33.75 -46.2 33.65 -46.35 33.5 -47.5 32.0 -48.5 30.7 -49.65 29.2 -50.6 27.8 -51.7 26.35 -52.65 24.9 -53.7 23.4 -54.6 21.95 -55.6 20.45 -56.45 18.95 -57.35 17.4 -58.15 15.85 -59.0 14.25 -59.75 12.7 -60.5 11.05 -61.15 9.4 -61.2 9.25 -61.25 9.15 -61.3 9.0 -61.4 8.85 -61.45 8.7 -61.5 8.6 -61.55 8.45 -61.6 8.3 -61.65 8.15 -61.7 8.05 -61.75 7.9 -61.8 7.75 -61.85 7.6 -61.9 7.45 -62.0 7.35 -62.05 7.2 -62.15 6.95 -62.15 6.65 -62.2 6.35 -62.2 6.05 -62.15 5.75 -62.1 5.45 -62.0 5.15 -61.9 4.85 -61.75 4.6 -61.6 4.35 -61.45 4.05 -61.25 3.85 -61.0 3.65 -60.8 3.45 -60.55 3.3 -60.3 3.2 -60.2 3.15 -60.05 3.1 -59.95 3.1 -59.85 3.1 -59.75 3.1 -59.7 3.15 -59.6 3.15 -59.5 3.2 -59.45 3.25 -59.35 3.35 -59.3 3.4 -59.2 3.45 -59.15 3.55 -59.05 3.6 -59.0 3.65 -58.9 3.75 -58.1 4.65 -57.35 5.5 -56.6 6.4 -55.85 7.25 -55.05 8.1 -54.25 8.95 -53.45 9.85 -52.7 10.65 -51.9 11.55 -51.1 12.35 -50.25 13.2 -49.45 14.0 -48.65 14.85 -47.8 15.65 -47.0 16.5 -46.15 17.3 -43.65 19.65 -41.05 21.85 -38.45 24.05 -35.75 26.1 -33.05 28.1 -30.25 29.95 -27.45 31.8 -24.55 33.45 -21.65 35.1 -18.65 36.55 -15.6 38.05 -12.5 39.35 -9.4 40.65 -6.2 41.75 -2.95 42.85 0.35 43.75 2.0 44.2 3.7 44.6 5.35 45.0 7.05 45.3 8.75 45.6 10.45 45.85 12.1 46.1 13.8 46.3 15.5 46.45 17.2 46.55 18.9 46.65 20.65 46.65 22.35 46.7 24.05 46.65 25.75 46.6 27.5 46.45 29.05 46.35 30.6 46.1 32.1 45.9 33.6 45.55 35.1 45.25 36.5 44.8 37.95 44.35 39.35 43.8 40.75 43.25 42.1 42.6 43.45 41.95 44.8 41.2 46.1 40.4 47.35 39.5 48.6 38.6 49.85 37.6 50.6 36.95 51.3 36.3 51.95 35.6 52.55 34.9 53.15 34.15 53.7 33.4 54.2 32.6 54.65 31.8 55.15 31.0 55.55 30.15 55.95 29.3 56.3 28.4 56.65 27.55 56.95 26.6 57.25 25.75 57.5 24.8 57.6 24.45 57.7 24.0 58.0 23.05 57.95 23.2 58.1 22.75 58.15 22.4 58.3 21.95 58.35 21.6 58.45 21.15 58.5 20.8 58.6 20.35 58.6 19.95 58.65 19.55 58.65 19.15 58.65 18.7 58.6 18.3 58.55 17.75 58.4 16.85 58.2 15.65 58.15 15.25 58.3 15.4 58.4 15.55 58.55 15.7 58.65 15.85 58.75 16.0 58.85 16.15 58.95 16.3 59.0 16.45 59.1 16.6 59.15 16.75 59.2 16.9 59.3 17.05 59.35 17.2 59.4 17.4 59.4 17.55 59.45 17.7 59.65 18.5 59.85 19.25 60.05 20.05 60.2 20.8 60.35 21.6 60.5 22.4 60.7 23.15 60.8 23.95 60.95 24.75 61.05 25.55 61.2 26.35 61.3 27.1 61.4 27.9 61.45 28.7 61.55 29.5 61.65 30.3 61.65 30.6 62.3 33.95 62.3 33.95 62.3 34.0 62.35 34.05 62.35 34.1 62.35 34.15 62.35 34.15 62.4 34.2 62.4 34.25 62.4 34.3 62.45 34.3 62.45 34.35 62.45 34.35 62.5 34.4 62.55 34.45 62.55 34.45 62.6 34.5 63.05 34.85 63.45 35.2 63.9 35.6 64.25 36.0 64.6 36.4 64.85 36.85 65.15 37.25 65.4 37.75 65.65 38.2 65.85 38.7 66.05 39.2 66.2 39.7 66.35 40.2 66.45 40.75 66.55 41.3 66.6 41.85 66.65 42.15 66.6 42.4 66.6 42.65 66.6 42.85 66.55 43.1 66.5 43.3 66.45 43.5 66.35 43.7 66.25 43.85 66.15 44.0 66.05 44.15 65.9 44.3 65.8 44.4 65.6 44.5 65.45 44.6 65.3 44.7 65.1 44.8 64.9 44.85 64.7 44.85 64.5 44.85 64.35 44.85 64.15 44.85 64.0 44.8 63.85 44.7 63.7 44.65 63.55 44.5 63.4 44.4 63.3 44.25 63.15 44.1 63.0 43.9 62.9 43.75 62.8 43.5 62.75 43.8 62.7 43.95 62.65 44.25 62.6 44.4 62.55 44.65 62.55 44.85 62.55 45.05 62.55 45.25 62.55 45.45 62.6 45.6 62.6 45.8 62.7 46.0 62.75 46.15 62.9 46.35 63.0 46.55 63.15 46.75 63.5 47.15 63.85 47.55 64.15 48.0 64.45 48.45 64.75 48.9 65.0 49.35 65.25 49.8 65.45 50.25 65.65 50.75 65.8 51.25 65.95 51.75 66.05 52.25 66.15 52.8 66.2 53.3 66.25 53.85 66.25 54.4 66.25 54.5 66.25 54.6 66.25 54.7 66.25 54.8 66.25 54.95 66.25 55.05 66.2 55.15 66.2 55.25 66.2 55.35 66.2 55.45 66.15 55.55 66.15 55.65 66.1 55.75 66.1 55.85 66.05 55.95 66.0 56.0 65.95 56.15 65.85 56.3 65.8 56.45 65.7 56.6 65.6 56.7 65.5 56.8 65.4 56.9 65.25 57.0 65.15 57.1 65.0 57.15 64.9 57.25 64.75 57.3 64.6 57.35 64.45 57.4 64.3 57.45 64.1 57.45 63.95 57.5 63.8 57.5 63.65 57.5 63.5 57.45 63.4 57.45 63.25 57.4 63.15 57.35 63.0 57.3 62.9 57.25 62.8 57.15 62.7 57.05 62.6 56.95 62.5 56.85 62.4 56.75 62.3 56.65 62.2 56.5 62.05 56.3 61.95 56.1 61.8 55.9 61.7 55.65 61.6 55.45 61.5 55.2 61.4 55.0 61.35 54.8 61.25 54.55 61.15 54.3 61.1 54.1 61.0 53.85 60.95 53.7 60.85 53.4 60.75 53.05 60.7 52.9 60.3 53.9 59.7 55.5 58.8 57.85 58.7 58.05 58.65 58.1 58.65 58.2 58.65 58.25 58.65 58.3 58.7 58.35 58.7 58.4 58.75 58.45 58.8 58.45 58.8 58.5 58.85 58.55 58.85 58.55 58.95 58.6 59.0 58.65 59.0 58.7 59.05 58.75 59.1 58.75 59.5 59.25 59.8 59.7 60.15 60.2 60.45 60.65 60.75 61.15 61.0 61.65 61.25 62.15 61.5 62.7 61.7 63.2 61.85 63.75 62.05 64.3 62.15 64.85 62.25 65.45 62.3 66.0 62.35 66.6 62.35 67.2 62.35 67.5 62.3 67.75 62.3 68.05 62.25 68.25 62.2 68.5 62.1 68.7 62.0 68.95 61.9 69.1 61.8 69.3 61.7 69.45 61.55 69.6 61.4 69.75 61.25 69.85 61.1 69.95 60.9 70.05 60.7 70.15 60.5 70.2 60.3 70.25 60.1 70.3 59.95 70.3 59.75 70.35 59.6 70.3 59.4 70.3 59.25 70.25 59.1 70.2 59.0 70.1 58.85 70.0 58.7 69.9 58.55 69.8 58.45 69.65 58.3 69.5 58.2 69.3 58.0 69.0 57.85 68.65 57.7 68.35 57.55 68.0 57.45 67.7 57.35 67.35 57.25 67.0 57.2 66.65 57.1 66.3 57.1 65.95 57.05 65.65 57.0 65.25 57.0 64.95 56.95 64.55 56.95 64.2 56.95 63.85 56.95 63.8 57.15 61.3 54.75 65.05 53.55 66.5 53.25 66.85 53.15 67.0 52.95 67.25 52.85 67.45 52.7 67.6 52.65 67.8 52.6 67.95 52.6 68.1 52.6 68.25 52.6 68.4 52.65 68.6 52.75 68.8 52.85 69.0 53.0 69.25 53.1 69.4 53.35 69.85 53.6 70.3 53.8 70.7 54.05 71.15 54.25 71.6 54.4 72.05 54.55 72.5 54.7 72.95 54.85 73.4 54.95 73.85 55.0 74.35 55.05 74.8 55.1 75.3 55.1 75.75 55.05 76.25 55.05 76.75 54.95 77.25 54.9 77.5 54.85 77.7 54.75 77.95 54.7 78.1 54.6 78.3 54.5 78.45 54.4 78.6 54.25 78.7 54.15 78.8 54.0 78.9 53.85 79.0 53.7 79.1 53.5 79.15 53.3 79.2 53.1 79.25 52.9 79.25 52.7 79.3 52.5 79.25 52.3 79.25 52.1 79.2 51.95 79.15 51.8 79.1 51.65 79.0 51.5 78.9 51.35 78.8 51.25 78.7 51.15 78.55 51.0 78.4 50.9 78.25 50.85 78.1 50.75 77.95 50.65 77.75 50.5 77.4 50.35 77.05 50.25 76.7 50.15 76.35 50.05 76.0 49.95 75.65 49.9 75.3 49.85 74.95 49.8 74.6 49.75 74.2 49.7 73.85 49.7 73.5 49.7 73.15 49.75 72.75 49.75 72.4 49.8 72.0 49.85 71.55 49.95 70.35 47.25 72.35 46.0 73.0 45.8 73.1 45.6 73.25 45.35 73.35 45.15 73.45 44.95 73.6 44.7 73.7 44.5 73.8 44.3 73.9 44.05 74.0 43.85 74.1 43.65 74.2 43.4 74.3 43.2 74.4 42.95 74.5 42.75 74.6 42.5 74.7 42.2 74.8 42.1 74.85 41.9 74.95 41.8 75.0 41.65 75.05 41.6 75.15 41.5 75.2 41.5 75.3 41.5 75.35 41.5 75.45 41.5 75.55 41.6 75.7 41.65 75.8 41.75 76.0 41.8 76.1 42.0 76.4 42.25 76.8 42.45 77.2 42.65 77.65 42.85 78.05 43.05 78.5 43.2 78.9 43.35 79.35 43.45 79.8 43.55 80.2 43.65 80.65 43.75 81.1 43.8 81.55 43.8 82.05 43.85 82.5 43.85 82.95 43.8 83.45 43.8 83.6 43.8 83.7 43.75 83.85 43.75 84.0 43.7 84.1 43.7 84.25 43.65 84.35 43.6 84.5 43.55 84.6 43.5 84.75 43.45 84.85 43.4 85.0 43.3 85.1 43.25 85.2 43.15 85.3 43.05 85.4 42.85 85.6 42.65 85.7 42.45 85.85 42.2 85.95 42.0 86.0 41.75 86.05 41.5 86.05 41.3 86.05 41.05 86.0 40.8 85.95 40.6 85.85 40.4 85.7 40.2 85.6 40.0 85.4 39.85 85.2 39.7 85.0 39.45 84.6 39.25 84.15 39.1 83.75 38.95 83.3 38.8 82.85 38.7 82.4 38.6 81.95 38.55 81.5 38.5 81.05 38.5 80.6 38.5 80.15 38.5 79.7 38.5 79.25 38.55 78.75 38.6 78.3 38.65 77.85 38.65 77.75 38.95 76.25 39.0 76.15 39.0 76.1 39.0 76.05 38.95 76.0 38.95 75.95 38.9 75.95 38.9 75.95 38.85 75.95 38.75 76.0 38.7 76.0 L38.7 76.0 M-56.7 11.4 Q-56.7 11.35 -56.75 11.35 -56.75 11.3 -56.8 11.3 -56.8 11.25 -56.85 11.25 -56.85 11.25 -56.9 11.25 -56.9 11.25 -56.95 11.25 -56.95 11.25 -57.0 11.25 -57.0 11.25 -57.05 11.25 -57.1 11.25 -57.1 11.3 -57.05 11.4 -56.9 11.55 -56.75 11.9 -56.55 12.25 -56.4 12.65 -56.25 13.0 -56.05 13.35 -55.9 13.7 -55.7 14.05 -55.5 14.4 -55.35 14.75 -55.15 15.1 -54.95 15.45 -54.8 15.8 -54.6 16.15 -54.4 16.5 -54.2 16.85 -54.0 17.15 -52.1 20.3 -50.1 23.3 -48.05 26.3 -45.9 29.15 -43.7 32.05 -41.4 34.75 -39.1 37.5 -36.65 40.1 -34.2 42.7 -31.6 45.15 -28.95 47.6 -26.2 49.9 -23.45 52.2 -20.55 54.35 -17.65 56.5 -14.55 58.5 -12.75 59.65 -11.1 60.7 -9.3 61.85 -7.6 62.8 -5.75 63.9 -4.0 64.8 -2.2 65.8 -0.4 66.65 1.5 67.55 3.3 68.3 5.2 69.15 7.1 69.8 9.05 70.5 11.0 71.1 13.0 71.7 15.0 72.15 16.35 72.45 17.4 72.7 18.65 72.95 19.8 73.15 21.05 73.4 22.2 73.6 23.45 73.8 24.6 73.9 25.85 74.05 27.0 74.1 28.25 74.2 29.45 74.15 30.7 74.15 31.9 74.05 33.15 73.95 34.35 73.75 35.4 73.6 36.4 73.35 37.4 73.15 38.4 72.9 39.4 72.6 40.3 72.25 41.3 71.9 42.2 71.5 43.1 71.1 44.0 70.65 44.9 70.15 45.75 69.6 46.6 69.05 47.4 68.4 48.25 67.75 49.0 67.05 50.35 65.75 51.65 64.05 52.95 62.4 54.05 60.4 55.2 58.45 56.15 56.25 57.1 54.1 57.8 51.8 58.55 49.45 59.05 47.15 59.5 44.75 59.7 42.45 59.9 40.05 59.8 37.85 59.65 35.55 59.2 33.55 59.2 33.45 59.15 33.35 59.15 33.3 59.1 33.1 59.1 32.95 59.05 32.9 59.05 32.75 59.0 32.65 58.95 32.55 58.95 32.45 58.9 32.35 58.8 32.25 58.75 32.15 58.65 32.05 58.55 31.95 58.45 31.9 58.2 32.35 57.95 32.85 57.7 33.3 57.45 33.75 57.15 34.2 56.9 34.6 56.6 35.05 56.3 35.5 56.0 35.9 55.7 36.3 55.35 36.7 55.05 37.1 54.7 37.5 54.35 37.9 53.95 38.3 53.6 38.65 53.5 38.75 53.4 38.85 53.3 38.95 53.25 39.05 53.2 39.15 53.15 39.25 53.1 39.3 53.1 39.4 53.1 39.5 53.1 39.6 53.1 39.7 53.15 39.8 53.2 39.9 53.25 40.0 53.35 40.15 53.45 40.25 53.7 40.55 53.9 40.85 54.1 41.2 54.25 41.5 54.45 41.8 54.6 42.15 54.75 42.5 54.85 42.8 54.95 43.15 55.0 43.5 55.1 43.85 55.1 44.2 55.1 44.6 55.05 44.95 55.0 45.35 54.9 45.75 54.85 45.95 54.75 46.15 54.7 46.3 54.6 46.45 54.5 46.6 54.4 46.75 54.3 46.85 54.15 46.95 54.0 47.05 53.85 47.1 53.7 47.2 53.55 47.2 53.35 47.25 53.15 47.25 52.95 47.3 52.75 47.25 52.55 47.25 52.35 47.2 52.15 47.15 52.0 47.1 51.85 47.0 51.7 46.9 51.55 46.8 51.4 46.65 51.3 46.5 51.2 46.35 51.1 46.2 51.0 46.0 50.9 45.8 50.85 45.55 50.8 45.3 50.75 45.05 50.7 44.8 50.7 44.5 50.7 44.25 50.7 44.0 50.7 43.7 50.75 43.45 50.8 43.2 50.85 42.95 50.9 42.7 51.0 42.45 51.05 42.2 51.15 41.95 51.25 41.7 51.35 41.45 51.45 41.2 51.55 40.95 51.55 40.7 51.55 40.7 51.5 40.65 51.5 40.65 51.45 40.7 51.4 40.7 51.4 40.75 51.35 40.8 50.8 41.2 50.35 41.55 49.8 41.9 49.3 42.25 48.75 42.65 48.25 42.95 47.7 43.3 47.2 43.65 46.65 44.0 46.1 44.3 45.55 44.6 45.0 44.9 44.45 45.2 43.9 45.45 43.3 45.7 42.75 45.95 42.55 46.0 42.45 46.1 42.3 46.15 42.2 46.2 42.15 46.3 42.05 46.35 42.0 46.4 42.0 46.5 42.0 46.6 42.0 46.65 42.0 46.75 42.05 46.85 42.1 46.95 42.15 47.05 42.25 47.2 42.35 47.35 42.55 47.65 42.75 47.9 42.9 48.2 43.05 48.5 43.2 48.8 43.35 49.1 43.5 49.4 43.55 49.75 43.65 50.05 43.7 50.35 43.75 50.7 43.75 51.05 43.8 51.4 43.75 51.7 43.7 52.1 43.6 52.45 43.55 52.65 43.45 52.85 43.4 53.05 43.3 53.2 43.2 53.35 43.1 53.5 42.95 53.6 42.85 53.7 42.7 53.8 42.55 53.85 42.35 53.95 42.2 53.95 42.0 54.0 41.8 54.0 41.6 54.05 41.35 54.0 41.15 54.0 40.95 53.95 40.8 53.9 40.65 53.8 40.45 53.75 40.35 53.65 40.2 53.5 40.05 53.4 39.95 53.25 39.85 53.05 39.75 52.9 39.65 52.7 39.6 52.5 39.55 52.25 39.45 52.0 39.45 51.75 39.4 51.45 39.4 51.15 39.4 50.85 39.4 50.55 39.45 50.3 39.5 50.0 39.55 49.7 39.6 49.45 39.65 49.15 39.75 48.9 39.85 48.65 40.0 48.35 40.1 48.1 40.2 47.8 40.3 47.55 40.45 47.3 40.55 47.05 40.55 47.05 40.5 47.0 40.45 47.0 40.45 46.95 40.4 47.0 40.35 47.0 40.3 47.0 40.25 47.05 40.25 47.05 39.6 47.3 38.95 47.5 38.3 47.75 37.65 47.95 37.0 48.15 36.35 48.3 35.65 48.5 35.0 48.65 34.35 48.85 33.65 48.95 33.0 49.1 32.3 49.25 31.6 49.35 30.95 49.45 30.25 49.55 29.55 49.65 29.6 49.75 30.1 50.55 30.35 51.0 30.55 51.35 30.7 51.6 30.8 51.85 30.9 52.1 31.0 52.35 31.1 52.65 31.15 52.9 31.25 53.15 31.3 53.4 31.35 53.7 31.35 53.95 31.4 54.25 31.35 54.5 31.35 54.8 31.3 55.05 31.25 55.35 31.15 55.65 31.1 55.85 31.05 56.0 30.95 56.15 30.9 56.25 30.8 56.4 30.7 56.5 30.6 56.6 30.45 56.7 30.35 56.8 30.2 56.85 30.1 56.95 29.9 56.95 29.75 57.0 29.6 57.05 29.45 57.05 29.25 57.05 29.05 57.05 28.9 57.05 28.7 57.05 28.55 57.0 28.4 56.95 28.25 56.9 28.1 56.85 28.0 56.75 27.9 56.65 27.75 56.55 27.65 56.45 27.55 56.35 27.5 56.2 27.4 56.05 27.35 55.9 27.25 55.7 27.2 55.5 27.15 55.3 27.1 55.15 27.05 54.95 27.05 54.75 27.0 54.55 27.0 54.35 27.0 54.15 27.0 54.0 27.0 53.8 27.0 53.6 27.05 53.4 27.05 53.2 27.1 53.0 27.1 52.8 27.15 52.6 27.2 52.4 27.25 52.25 27.3 52.05 27.35 51.9 27.45 51.75 27.5 51.55 27.6 51.4 27.7 51.2 28.85 48.9 27.85 50.85 27.95 50.65 28.0 50.5 28.1 50.3 28.2 50.15 28.25 49.95 28.3 49.75 27.65 49.85 26.95 49.9 26.35 49.95 25.65 49.95 25.0 50.0 24.3 50.0 23.7 50.0 23.0 50.0 22.4 50.0 21.65 50.0 21.25 50.0 20.35 50.0 19.45 50.0 19.0 49.95 18.25 49.95 17.65 49.95 17.7 50.05 18.05 50.8 18.3 51.3 18.4 51.6 18.5 51.85 18.6 52.1 18.7 52.35 18.75 52.6 18.8 52.85 18.85 53.1 18.9 53.35 18.9 53.6 18.95 53.9 18.95 54.15 18.9 54.4 18.9 54.65 18.85 54.9 18.75 55.2 18.7 55.45 18.6 55.7 18.55 55.85 18.45 56.0 18.35 56.15 18.3 56.3 18.2 56.4 18.05 56.5 17.95 56.6 17.85 56.65 17.7 56.75 17.6 56.8 17.45 56.85 17.3 56.9 17.15 56.9 17.0 56.9 16.8 56.95 16.65 56.9 16.45 56.9 16.3 56.85 16.15 56.85 16.0 56.8 15.85 56.75 15.7 56.7 15.6 56.6 15.5 56.55 15.35 56.45 15.25 56.35 15.15 56.2 15.1 56.1 15.0 55.95 14.95 55.8 14.9 55.65 14.85 55.5 14.8 55.3 14.75 55.1 14.7 54.9 14.7 54.7 14.7 54.5 14.65 54.3 14.65 54.1 14.7 53.95 14.7 53.75 14.7 53.55 14.75 53.35 14.8 53.15 14.8 52.95 14.85 52.75 14.9 52.6 15.0 52.4 15.05 52.25 15.1 52.05 15.2 51.9 15.25 51.75 15.35 51.6 15.4 51.4 15.5 51.3 15.6 51.1 15.65 51.0 15.8 50.8 15.9 50.6 15.95 50.5 16.05 50.3 16.15 50.15 16.25 50.0 16.35 49.8 15.6 49.75 14.9 49.7 14.2 49.6 13.45 49.55 12.75 49.45 12.05 49.4 11.3 49.3 10.6 49.2 9.9 49.1 9.2 49.0 8.45 48.9 7.75 48.8 7.05 48.7 6.35 48.55 5.6 48.45 4.9 48.3 5.2 49.0 5.55 49.95 5.65 50.2 5.75 50.4 5.8 50.65 5.85 50.85 5.95 51.1 5.95 51.3 6.0 51.55 6.05 51.8 6.05 52.0 6.05 52.25 6.05 52.5 6.05 52.75 6.0 52.95 5.95 53.2 5.95 53.45 5.85 53.65 5.8 53.9 5.7 54.15 5.6 54.4 5.45 54.6 5.35 54.8 5.2 54.95 5.0 55.1 4.85 55.2 4.65 55.3 4.45 55.35 4.25 55.4 4.05 55.4 3.8 55.4 3.55 55.4 3.35 55.35 3.1 55.25 2.9 55.2 2.7 55.1 2.55 55.0 2.45 54.9 2.3 54.75 2.2 54.65 2.1 54.5 2.05 54.35 1.95 54.2 1.95 54.05 1.9 53.9 1.85 53.7 1.85 53.55 1.8 53.35 1.8 53.2 1.8 53.0 1.8 52.65 1.8 52.3 1.85 51.95 1.9 51.65 2.0 51.3 2.1 51.0 2.2 50.7 2.35 50.4 2.5 50.1 2.65 49.8 2.85 49.55 3.05 49.25 3.2 48.95 3.45 48.65 3.6 48.4 3.85 48.1 -1.25 46.95 -8.7 44.45 -8.6 44.75 -8.4 45.4 -8.2 45.9 -8.15 46.2 -8.1 46.45 -8.05 46.7 -8.0 46.95 -7.95 47.2 -7.9 47.45 -7.9 47.7 -7.9 47.95 -7.9 48.2 -7.95 48.45 -7.95 48.7 -8.0 48.95 -8.05 49.15 -8.1 49.4 -8.2 49.65 -8.3 49.9 -8.4 50.15 -8.5 50.35 -8.65 50.55 -8.8 50.75 -9.0 50.85 -9.15 51.0 -9.35 51.1 -9.55 51.2 -9.75 51.25 -9.95 51.3 -10.2 51.3 -10.4 51.3 -10.6 51.25 -10.85 51.2 -11.05 51.1 -11.25 51.0 -11.45 50.9 -11.6 50.8 -11.7 50.65 -11.85 50.55 -11.9 50.4 -12.0 50.25 -12.05 50.1 -12.1 49.95 -12.15 49.8 -12.2 49.65 -12.2 49.5 -12.25 49.35 -12.25 49.15 -12.25 49.05 -12.25 48.85 -12.25 48.7 -12.2 48.5 -12.2 48.15 -12.15 47.85 -12.05 47.55 -11.95 47.25 -11.85 46.95 -11.75 46.65 -11.6 46.4 -11.45 46.1 -11.3 45.85 -11.1 45.55 -10.9 45.3 -10.7 45.05 -10.55 44.8 -10.3 44.5 -10.2 44.4 -9.85 44.0 -10.55 43.75 -11.25 43.5 -11.9 43.2 -12.6 42.95 -13.3 42.65 -14.0 42.4 -14.65 42.1 -15.35 41.8 -16.0 41.5 -16.7 41.2 -17.35 40.9 -18.05 40.6 -18.7 40.25 -19.4 39.95 -20.05 39.6 -20.75 39.3 -20.3 40.65 -20.15 41.1 -20.1 41.35 -20.05 41.6 -19.95 41.85 -19.95 42.05 -19.9 42.3 -19.9 42.55 -19.85 42.8 -19.9 43.05 -19.9 43.3 -19.9 43.5 -19.95 43.75 -20.0 44.0 -20.05 44.25 -20.1 44.45 -20.2 44.7 -20.3 44.95 -20.35 45.1 -20.45 45.25 -20.55 45.45 -20.65 45.55 -20.75 45.7 -20.85 45.8 -21.0 45.9 -21.1 46.0 -21.25 46.1 -21.4 46.15 -21.55 46.2 -21.7 46.2 -21.85 46.25 -22.05 46.25 -22.25 46.25 -22.45 46.25 -22.65 46.2 -22.85 46.15 -23.0 46.1 -23.15 46.05 -23.3 45.95 -23.45 45.85 -23.55 45.75 -23.7 45.65 -23.8 45.55 -23.85 45.4 -23.95 45.25 -24.0 45.1 -24.1 44.95 -24.1 44.75 -24.15 44.55 -24.2 44.35 -24.2 44.15 -24.2 43.95 -24.2 43.75 -24.2 43.55 -24.2 43.35 -24.15 43.15 -24.1 43.0 -24.1 42.8 -24.05 42.6 -24.0 42.4 -23.95 42.25 -23.85 42.05 -23.8 41.85 -23.7 41.7 -23.65 41.5 -23.55 41.3 -23.45 41.15 -23.35 40.95 -23.25 40.8 -23.15 40.65 -23.05 40.5 -22.9 40.35 -22.8 40.2 -22.65 40.0 -22.55 39.9 -22.4 39.7 -22.25 39.5 -22.15 39.4 -22.0 39.25 -21.9 39.1 -21.75 38.95 -21.65 38.8 -24.05 37.55 -30.7 33.65 -30.65 33.85 -30.5 34.35 -30.4 34.7 -30.35 34.9 -30.3 35.15 -30.25 35.35 -30.2 35.6 -30.15 35.85 -30.15 36.1 -30.1 36.3 -30.1 36.55 -30.1 36.8 -30.1 37.0 -30.15 37.25 -30.2 37.5 -30.25 37.7 -30.3 37.95 -30.35 38.15 -30.45 38.4 -30.5 38.65 -30.6 38.8 -30.65 38.95 -30.75 39.1 -30.85 39.25 -30.95 39.4 -31.1 39.5 -31.2 39.6 -31.35 39.7 -31.45 39.75 -31.6 39.8 -31.75 39.9 -31.95 39.9 -32.1 39.95 -32.25 39.95 -32.45 39.95 -32.65 39.9 -32.85 39.85 -33.05 39.8 -33.2 39.75 -33.4 39.7 -33.55 39.65 -33.65 39.55 -33.8 39.45 -33.9 39.3 -34.0 39.2 -34.1 39.05 -34.2 38.95 -34.25 38.75 -34.3 38.6 -34.35 38.4 -34.4 38.25 -34.4 38.05 -34.45 37.7 -34.4 37.35 -34.4 37.05 -34.35 36.75 -34.3 36.4 -34.25 36.1 -34.15 35.8 -34.0 35.55 -33.9 35.25 -33.75 34.95 -33.6 34.7 -33.45 34.45 -33.25 34.15 -33.05 33.9 -32.85 33.65 -32.65 33.4 -32.55 33.3 -32.5 33.25 -32.45 33.15 -32.4 33.1 -32.35 33.0 -32.35 32.95 -32.3 32.9 -32.3 32.85 -32.3 32.75 -32.35 32.7 -32.35 32.65 -32.4 32.6 -32.45 32.5 -32.55 32.45 -32.65 32.35 -32.75 32.3 -33.8 31.6 -34.9 30.9 -35.9 30.15 -36.95 29.4 -37.95 28.65 -39.0 27.85 -40.0 27.1 -41.0 26.25 -41.95 25.45 -42.95 24.6 -43.9 23.8 -44.9 22.95 -45.8 22.15 -46.8 21.25 -47.65 20.4 -48.65 19.5 -50.3 17.95 -56.7 11.4 L-56.7 11.4 M33.0 87.8 Q33.0 87.2 32.9 86.55 32.85 85.95 32.7 85.35 32.6 84.8 32.4 84.25 32.2 83.7 31.95 83.15 31.75 82.6 31.45 82.05 31.2 81.55 30.9 81.0 30.65 80.55 30.3 80.0 30.05 79.6 29.65 78.95 29.6 78.85 29.55 78.8 29.5 78.75 29.45 78.7 29.4 78.7 29.35 78.65 29.3 78.65 29.25 78.65 29.2 78.65 29.15 78.7 29.1 78.7 29.05 78.75 29.0 78.8 28.95 78.9 28.95 78.95 28.9 79.05 27.85 81.2 27.75 81.35 27.5 81.9 27.3 82.45 27.05 83.05 26.9 83.6 26.7 84.15 26.55 84.7 26.45 85.3 26.35 85.85 26.25 86.45 26.25 87.0 26.25 87.6 26.3 88.15 26.3 88.75 26.45 89.35 26.55 89.95 26.75 90.5 26.85 90.8 26.95 91.05 27.1 91.35 27.25 91.55 27.4 91.75 27.55 91.9 27.7 92.1 27.9 92.25 28.1 92.35 28.3 92.45 28.5 92.55 28.75 92.6 29.0 92.65 29.25 92.65 29.55 92.7 29.85 92.65 30.15 92.65 30.4 92.6 30.7 92.55 30.95 92.5 31.15 92.4 31.35 92.3 31.55 92.2 31.75 92.05 31.9 91.9 32.05 91.7 32.2 91.55 32.3 91.3 32.45 91.1 32.55 90.8 32.65 90.55 32.7 90.25 32.75 90.1 32.8 89.95 32.8 89.8 32.85 89.65 32.85 89.5 32.9 89.35 32.9 89.15 32.95 89.0 32.95 88.85 32.95 88.7 32.95 88.55 33.0 88.4 33.0 88.25 33.0 88.1 33.0 87.95 33.0 87.8 L33.0 87.8 M-14.35 62.8 Q-14.55 63.05 -14.75 63.25 -14.95 63.5 -15.15 63.7 -15.35 63.95 -15.5 64.2 -15.7 64.4 -15.85 64.65 -16.05 64.9 -16.2 65.1 -16.35 65.35 -16.5 65.6 -16.65 65.85 -16.75 66.1 -16.9 66.35 -17.0 66.6 -17.1 66.8 -17.2 67.05 -17.3 67.25 -17.35 67.45 -17.45 67.7 -17.5 67.9 -17.55 68.1 -17.6 68.35 -17.65 68.55 -17.7 68.8 -17.7 69.0 -17.75 69.25 -17.75 69.5 -17.75 69.7 -17.75 69.95 -17.75 70.2 -17.75 70.45 -17.7 70.65 -17.65 70.85 -17.6 71.0 -17.55 71.2 -17.5 71.35 -17.4 71.5 -17.3 71.6 -17.2 71.75 -17.1 71.85 -16.95 71.95 -16.8 72.05 -16.65 72.1 -16.5 72.2 -16.3 72.25 -16.1 72.3 -15.85 72.35 -15.6 72.4 -15.4 72.4 -15.15 72.35 -14.95 72.35 -14.8 72.3 -14.6 72.2 -14.45 72.1 -14.25 72.0 -14.15 71.85 -14.0 71.7 -13.85 71.5 -13.75 71.3 -13.6 71.05 -13.5 70.8 -13.4 70.5 -13.25 70.0 -13.15 69.5 -13.05 69.0 -13.05 68.55 -13.0 68.05 -13.05 67.55 -13.05 67.1 -13.15 66.6 -13.25 66.15 -13.35 65.65 -13.45 65.2 -13.65 64.7 -13.8 64.25 -13.95 63.75 -14.15 63.35 -14.35 62.8 L-14.35 62.8 M-26.15 54.9 Q-26.55 55.35 -26.8 55.7 -27.15 56.15 -27.45 56.5 -27.75 56.95 -28.05 57.3 -28.3 57.75 -28.55 58.15 -28.75 58.6 -28.95 59.05 -29.15 59.5 -29.25 59.95 -29.4 60.45 -29.45 60.95 -29.55 61.45 -29.55 62.0 -29.55 62.3 -29.5 62.55 -29.5 62.75 -29.45 63.0 -29.35 63.2 -29.3 63.35 -29.2 63.55 -29.1 63.7 -29.0 63.85 -28.85 63.95 -28.7 64.1 -28.55 64.15 -28.4 64.25 -28.2 64.3 -28.0 64.4 -27.75 64.4 -27.5 64.45 -27.3 64.45 -27.05 64.45 -26.85 64.45 -26.65 64.4 -26.5 64.35 -26.3 64.25 -26.15 64.15 -26.0 64.05 -25.85 63.9 -25.75 63.75 -25.6 63.6 -25.5 63.4 -25.4 63.15 -25.3 62.95 -25.2 62.65 -25.05 62.15 -24.95 61.65 -24.85 61.15 -24.8 60.7 -24.8 60.2 -24.8 59.7 -24.85 59.25 -24.95 58.75 -25.0 58.3 -25.15 57.8 -25.25 57.35 -25.4 56.85 -25.55 56.35 -25.75 55.85 -25.9 55.4 -26.15 54.9 L-26.15 54.9 M-1.05 70.4 Q-1.2 70.7 -1.75 71.5 -2.15 72.15 -2.4 72.55 -2.6 72.9 -2.75 73.2 -2.9 73.55 -3.05 73.85 -3.2 74.2 -3.3 74.55 -3.4 74.9 -3.5 75.2 -3.6 75.6 -3.65 75.95 -3.7 76.3 -3.7 76.65 -3.75 77.0 -3.7 77.4 -3.7 77.75 -3.65 78.15 -3.6 78.4 -3.55 78.55 -3.5 78.75 -3.45 78.95 -3.35 79.1 -3.25 79.25 -3.15 79.4 -3.05 79.5 -2.95 79.65 -2.8 79.75 -2.7 79.8 -2.5 79.9 -2.35 79.95 -2.2 80.0 -2.0 80.05 -1.8 80.05 -1.55 80.1 -1.35 80.1 -1.15 80.1 -1.0 80.05 -0.8 80.05 -0.65 80.0 -0.5 79.95 -0.35 79.85 -0.2 79.75 -0.1 79.65 0.0 79.55 0.15 79.4 0.25 79.25 0.3 79.05 0.4 78.85 0.5 78.6 0.7 78.05 0.8 77.5 0.9 77.0 0.9 76.45 0.9 75.95 0.85 75.4 0.8 74.9 0.65 74.4 0.55 73.9 0.35 73.4 0.2 72.9 -0.05 72.4 -0.25 71.95 -0.5 71.4 -0.75 70.95 -1.05 70.4 L-1.05 70.4 M15.05 75.85 Q13.25 78.85 13.05 79.35 12.95 79.6 12.85 79.85 12.75 80.1 12.7 80.35 12.65 80.6 12.55 80.85 12.5 81.1 12.5 81.35 12.45 81.6 12.4 81.9 12.4 82.15 12.4 82.4 12.4 82.65 12.4 82.95 12.4 83.2 12.45 83.45 12.5 83.7 12.55 83.9 12.6 84.1 12.65 84.3 12.75 84.5 12.8 84.65 12.9 84.8 13.0 84.95 13.15 85.05 13.25 85.15 13.4 85.25 13.55 85.35 13.7 85.4 13.9 85.45 14.05 85.5 14.25 85.5 14.5 85.55 14.7 85.55 14.95 85.55 15.1 85.5 15.3 85.5 15.45 85.45 15.65 85.35 15.75 85.3 15.9 85.2 16.0 85.05 16.15 84.95 16.25 84.8 16.35 84.6 16.45 84.4 16.55 84.2 16.6 83.95 16.8 83.4 16.9 82.85 16.95 82.35 17.0 81.8 17.0 81.3 16.95 80.8 16.85 80.3 16.75 79.8 16.6 79.3 16.45 78.8 16.25 78.35 16.05 77.8 15.85 77.35 15.6 76.85 15.35 76.4 15.05 75.85 L15.05 75.85 M51.45 68.65 Q51.35 68.95 51.25 69.25 51.15 69.5 51.1 69.8 51.0 70.05 50.95 70.35 50.9 70.6 50.85 70.9 50.8 71.15 50.75 71.45 50.7 71.7 50.7 72.0 50.65 72.25 50.65 72.55 50.6 72.8 50.6 73.05 50.6 73.35 50.6 73.6 50.6 73.9 50.6 74.15 50.65 74.45 50.7 74.7 50.7 75.0 50.75 75.25 50.8 75.55 50.9 75.8 50.95 76.1 51.05 76.35 51.15 76.6 51.25 76.85 51.35 77.1 51.5 77.35 51.55 77.45 51.6 77.55 51.65 77.65 51.7 77.7 51.8 77.8 51.85 77.85 51.95 77.9 52.0 77.95 52.1 78.0 52.2 78.05 52.3 78.1 52.4 78.1 52.5 78.1 52.6 78.1 52.7 78.1 52.8 78.1 52.9 78.1 53.05 78.05 53.15 78.05 53.25 78.0 53.35 77.95 53.45 77.9 53.5 77.85 53.6 77.8 53.7 77.75 53.75 77.65 53.8 77.6 53.85 77.5 53.95 77.4 53.95 77.3 54.0 77.2 54.05 77.05 54.1 76.95 54.1 76.85 54.15 76.75 54.15 76.65 54.15 76.55 54.2 76.4 54.2 76.3 54.2 76.2 54.2 76.1 54.2 76.0 54.2 75.9 54.2 75.8 54.2 75.7 54.2 75.55 54.2 75.45 54.2 75.35 54.15 74.9 54.1 74.45 54.0 74.0 53.9 73.55 53.8 73.15 53.65 72.7 53.5 72.3 53.3 71.85 53.15 71.45 52.95 71.05 52.75 70.65 52.5 70.25 52.25 69.85 52.0 69.45 51.75 69.05 51.45 68.65 L51.45 68.65 M58.5 59.65 Q58.45 59.9 58.35 60.15 58.3 60.45 58.25 60.7 58.2 60.95 58.15 61.15 58.1 61.4 58.05 61.65 58.05 61.9 58.0 62.15 57.95 62.4 57.95 62.6 57.9 62.85 57.9 63.1 57.85 63.3 57.85 63.55 57.85 63.85 57.85 64.15 57.85 64.5 57.85 64.8 57.85 65.1 57.9 65.4 57.9 65.7 57.95 66.0 58.0 66.3 58.1 66.6 58.15 66.9 58.25 67.2 58.35 67.45 58.45 67.75 58.55 68.05 58.7 68.3 58.75 68.4 58.8 68.5 58.85 68.6 58.95 68.65 59.0 68.75 59.05 68.8 59.15 68.9 59.2 68.95 59.3 69.0 59.4 69.05 59.45 69.1 59.55 69.1 59.65 69.15 59.75 69.15 59.9 69.15 60.0 69.1 60.1 69.1 60.25 69.05 60.35 69.05 60.45 69.0 60.55 68.95 60.65 68.9 60.75 68.85 60.85 68.8 60.95 68.7 61.0 68.65 61.1 68.55 61.15 68.45 61.2 68.35 61.25 68.25 61.3 68.15 61.35 68.0 61.35 67.9 61.4 67.85 61.4 67.75 61.4 67.7 61.4 67.6 61.4 67.55 61.4 67.45 61.45 67.35 61.45 67.3 61.45 67.2 61.45 67.1 61.45 67.05 61.45 66.95 61.45 66.9 61.45 66.8 61.45 66.7 61.45 66.2 61.4 65.7 61.35 65.25 61.2 64.8 61.1 64.35 60.95 63.9 60.8 63.45 60.6 63.0 60.4 62.6 60.15 62.15 59.95 61.75 59.65 61.3 59.4 60.9 59.1 60.45 58.85 60.05 58.5 59.65 L58.5 59.65 M-35.55 48.45 Q-35.55 48.25 -35.55 48.05 -35.55 47.85 -35.6 47.65 -35.65 47.45 -35.7 47.25 -35.75 47.05 -35.8 46.8 -35.85 46.6 -35.95 46.35 -36.0 46.15 -36.1 45.9 -36.15 45.7 -36.25 45.45 -36.2 45.6 -36.4 45.0 -36.45 44.9 -36.45 44.9 -36.45 44.85 -36.5 44.8 -36.5 44.75 -36.55 44.7 -36.55 44.65 -36.6 44.6 -36.65 44.6 -36.65 44.55 -36.7 44.55 -36.75 44.55 -36.8 44.55 -36.85 44.6 -36.9 44.65 -36.95 44.7 -37.25 45.05 -37.5 45.4 -37.8 45.75 -38.05 46.1 -38.3 46.45 -38.5 46.8 -38.75 47.2 -38.9 47.55 -39.1 47.95 -39.25 48.35 -39.35 48.75 -39.45 49.15 -39.55 49.6 -39.55 50.05 -39.6 50.5 -39.55 50.95 -39.55 51.1 -39.5 51.25 -39.45 51.4 -39.4 51.55 -39.35 51.7 -39.3 51.8 -39.2 51.95 -39.1 52.05 -39.0 52.15 -38.9 52.2 -38.8 52.3 -38.65 52.4 -38.55 52.45 -38.4 52.5 -38.25 52.55 -38.05 52.6 -37.9 52.65 -37.75 52.65 -37.55 52.65 -37.4 52.6 -37.3 52.6 -37.15 52.55 -37.0 52.5 -36.9 52.45 -36.75 52.4 -36.65 52.3 -36.55 52.25 -36.45 52.1 -36.35 52.0 -36.25 51.9 -36.2 51.75 -36.1 51.6 -36.0 51.45 -35.95 51.25 -35.9 51.1 -35.85 50.9 -35.75 50.75 -35.7 50.55 -35.65 50.4 -35.65 50.2 -35.6 50.0 -35.55 49.8 -35.55 49.6 -35.55 49.4 -35.5 49.15 -35.5 48.95 -35.5 48.7 -35.55 48.45 L-35.55 48.45 M40.3 75.55 Q40.2 75.6 40.15 75.7 40.05 75.75 40.0 75.85 39.95 75.95 39.95 76.0 39.9 76.1 39.9 76.2 39.85 76.25 39.85 76.35 39.85 76.45 39.85 76.55 39.8 76.65 39.8 76.7 39.8 76.8 39.8 76.85 39.7 77.3 39.6 77.75 39.55 78.2 39.5 78.6 39.45 79.05 39.4 79.5 39.35 79.95 39.4 80.35 39.4 80.8 39.45 81.2 39.45 81.65 39.55 82.1 39.65 82.5 39.75 82.95 39.9 83.35 40.1 83.8 40.15 83.95 40.2 84.05 40.3 84.2 40.35 84.3 40.45 84.4 40.5 84.5 40.6 84.6 40.7 84.65 40.8 84.75 40.9 84.8 41.0 84.85 41.15 84.85 41.3 84.85 41.4 84.85 41.55 84.85 41.75 84.85 41.9 84.8 42.0 84.75 42.15 84.7 42.25 84.65 42.35 84.55 42.45 84.5 42.55 84.4 42.6 84.3 42.7 84.2 42.75 84.1 42.8 84.0 42.8 83.85 42.85 83.75 42.9 83.6 42.9 83.5 42.9 83.35 42.95 82.8 42.95 82.25 42.9 81.75 42.85 81.2 42.75 80.7 42.65 80.2 42.5 79.7 42.35 79.2 42.15 78.75 41.95 78.25 41.7 77.8 41.45 77.35 41.2 76.9 40.9 76.45 40.6 76.0 40.3 75.55 L40.3 75.55 M62.15 47.0 Q62.15 47.1 61.9 48.1 61.8 48.7 61.75 49.05 61.7 49.45 61.65 49.85 61.65 50.25 61.6 50.65 61.6 51.05 61.6 51.4 61.65 51.8 61.65 52.2 61.7 52.6 61.75 52.95 61.85 53.35 61.95 53.7 62.05 54.1 62.2 54.45 62.35 54.85 62.5 55.2 62.55 55.35 62.6 55.45 62.7 55.55 62.75 55.65 62.85 55.75 62.9 55.85 63.0 55.95 63.05 56.05 63.15 56.1 63.25 56.2 63.35 56.25 63.5 56.25 63.6 56.3 63.75 56.3 63.9 56.3 64.05 56.25 64.2 56.2 64.4 56.15 64.5 56.1 64.65 56.05 64.75 55.95 64.9 55.9 65.0 55.8 65.05 55.7 65.15 55.55 65.2 55.45 65.25 55.3 65.3 55.2 65.35 55.05 65.35 54.9 65.35 54.75 65.35 54.55 65.35 54.5 65.35 54.5 65.35 54.45 65.35 54.4 65.35 54.4 65.35 54.35 65.35 54.3 65.35 54.3 65.35 54.25 65.35 54.2 65.35 54.2 65.35 54.15 65.35 54.1 65.35 54.1 65.35 54.05 65.35 54.0 65.35 53.5 65.25 53.0 65.2 52.55 65.05 52.1 64.95 51.65 64.75 51.15 64.6 50.75 64.4 50.3 64.2 49.9 63.9 49.45 63.7 49.05 63.4 48.6 63.1 48.25 62.8 47.8 62.5 47.4 62.15 47.0 L62.15 47.0 M-44.15 38.65 Q-44.15 38.45 -44.15 38.3 -44.15 38.1 -44.15 37.95 -44.2 37.8 -44.2 37.6 -44.2 37.45 -44.25 37.3 -44.25 37.1 -44.3 36.95 -44.3 36.75 -44.35 36.6 -44.4 36.45 -44.4 36.3 -44.45 36.1 -44.5 35.95 -44.5 35.9 -44.55 35.85 -44.6 35.75 -44.6 35.7 -44.65 35.65 -44.65 35.6 -44.7 35.5 -44.75 35.5 -44.75 35.45 -44.8 35.4 -44.85 35.4 -44.95 35.4 -45.0 35.4 -45.05 35.45 -45.15 35.5 -45.25 35.55 -45.6 35.85 -45.85 36.1 -46.15 36.4 -46.45 36.7 -46.7 37.0 -46.95 37.3 -47.2 37.65 -47.4 37.95 -47.65 38.3 -47.8 38.65 -48.0 39.0 -48.15 39.4 -48.3 39.75 -48.35 40.15 -48.45 40.6 -48.5 41.0 -48.5 41.2 -48.5 41.35 -48.5 41.5 -48.45 41.65 -48.45 41.8 -48.4 41.95 -48.35 42.1 -48.3 42.2 -48.2 42.35 -48.1 42.45 -48.0 42.55 -47.9 42.65 -47.75 42.75 -47.65 42.85 -47.5 42.9 -47.3 42.95 -47.1 43.0 -46.95 43.05 -46.75 43.1 -46.6 43.1 -46.45 43.1 -46.3 43.1 -46.15 43.05 -46.0 43.0 -45.9 42.95 -45.75 42.85 -45.6 42.8 -45.5 42.7 -45.4 42.6 -45.3 42.45 -45.2 42.3 -45.1 42.15 -44.95 41.95 -44.85 41.75 -44.75 41.55 -44.65 41.3 -44.55 41.1 -44.5 40.9 -44.4 40.7 -44.35 40.45 -44.3 40.25 -44.25 40.0 -44.2 39.8 -44.2 39.55 -44.15 39.35 -44.15 39.1 -44.15 38.85 -44.15 38.65 L-44.15 38.65 M63.0 35.8 Q62.9 36.1 62.85 36.4 62.8 36.7 62.8 37.0 62.75 37.25 62.75 37.55 62.75 37.85 62.8 38.15 62.8 38.35 62.8 38.7 62.85 39.1 62.85 39.25 62.85 39.55 62.9 39.8 62.9 40.05 62.85 40.3 62.85 40.45 62.85 40.6 62.85 40.75 62.85 40.9 62.85 41.05 62.85 41.15 62.85 41.3 62.9 41.45 62.9 41.6 62.95 41.75 62.95 41.85 63.0 42.0 63.05 42.15 63.1 42.3 63.15 42.4 63.2 42.55 63.25 42.65 63.3 42.8 63.4 42.95 63.4 43.05 63.5 43.15 63.55 43.3 63.6 43.4 63.7 43.5 63.75 43.6 63.85 43.65 63.95 43.75 64.1 43.8 64.2 43.85 64.35 43.85 64.5 43.85 64.65 43.85 64.85 43.8 65.0 43.75 65.15 43.7 65.25 43.6 65.4 43.5 65.45 43.4 65.55 43.3 65.6 43.2 65.7 43.05 65.7 42.95 65.75 42.8 65.8 42.65 65.8 42.5 65.8 42.35 65.8 42.2 65.8 42.0 65.8 41.55 65.75 41.15 65.65 40.7 65.55 40.3 65.45 39.9 65.3 39.5 65.15 39.1 64.95 38.7 64.8 38.35 64.55 37.95 64.35 37.6 64.1 37.25 63.85 36.9 63.55 36.5 63.3 36.15 63.0 35.8 L63.0 35.8 M54.35 44.75 Q54.35 44.45 54.3 44.2 54.3 43.95 54.25 43.65 54.2 43.4 54.1 43.15 54.05 42.95 53.95 42.7 53.9 42.45 53.75 42.25 53.65 42.0 53.55 41.8 53.45 41.6 53.3 41.35 53.2 41.15 53.05 40.95 53.0 40.9 53.0 40.85 52.95 40.8 52.9 40.75 52.9 40.7 52.85 40.7 52.8 40.65 52.8 40.65 52.75 40.65 52.7 40.65 52.65 40.65 52.6 40.65 52.6 40.7 52.55 40.75 52.5 40.8 52.45 40.9 52.3 41.2 52.2 41.45 52.05 41.8 51.95 42.05 51.8 42.35 51.7 42.6 51.65 42.9 51.55 43.2 51.5 43.5 51.45 43.8 51.45 44.1 51.45 44.4 51.45 44.75 51.55 45.05 51.6 45.35 51.7 45.7 51.75 45.8 51.8 45.9 51.85 46.0 51.9 46.05 51.95 46.15 52.0 46.2 52.1 46.3 52.15 46.35 52.25 46.4 52.3 46.4 52.4 46.45 52.5 46.5 52.6 46.5 52.7 46.5 52.8 46.55 52.95 46.55 53.05 46.55 53.15 46.5 53.25 46.5 53.35 46.45 53.45 46.45 53.55 46.4 53.65 46.35 53.7 46.3 53.8 46.25 53.85 46.2 53.95 46.1 54.0 46.05 54.05 45.95 54.1 45.85 54.15 45.75 54.15 45.65 54.2 45.5 54.35 44.75 L54.35 44.75 M43.0 51.4 Q43.0 51.15 43.0 50.85 42.95 50.6 42.9 50.35 42.85 50.1 42.8 49.85 42.7 49.65 42.65 49.4 42.55 49.15 42.45 48.95 42.35 48.7 42.2 48.5 42.1 48.3 41.95 48.05 41.85 47.85 41.7 47.65 41.65 47.6 41.65 47.55 41.6 47.5 41.55 47.45 41.5 47.45 41.5 47.4 41.45 47.4 41.4 47.4 41.4 47.4 41.35 47.4 41.3 47.4 41.3 47.45 41.25 47.45 41.2 47.5 41.15 47.55 41.15 47.65 41.0 47.95 40.9 48.2 40.75 48.5 40.65 48.75 40.5 49.05 40.45 49.3 40.35 49.6 40.25 49.9 40.2 50.2 40.15 50.5 40.15 50.8 40.15 51.05 40.15 51.4 40.2 51.7 40.25 52.0 40.35 52.3 40.4 52.4 40.45 52.5 40.5 52.65 40.55 52.7 40.6 52.8 40.65 52.9 40.7 52.95 40.8 53.05 40.85 53.1 40.95 53.15 41.05 53.2 41.15 53.25 41.25 53.25 41.35 53.25 41.5 53.3 41.6 53.3 41.75 53.3 41.85 53.25 42.0 53.25 42.1 53.2 42.2 53.15 42.3 53.1 42.4 53.05 42.45 53.0 42.55 52.95 42.6 52.85 42.7 52.75 42.75 52.65 42.8 52.55 42.85 52.45 42.9 52.35 42.9 52.2 42.95 52.1 43.0 51.4 L43.0 51.4 M30.6 54.3 Q30.6 54.05 30.55 53.8 30.55 53.55 30.5 53.3 30.45 53.1 30.35 52.85 30.3 52.65 30.2 52.4 30.15 52.2 30.0 51.95 29.9 51.75 29.8 51.55 29.7 51.35 29.55 51.15 29.45 50.95 29.3 50.75 29.25 50.7 29.25 50.65 29.2 50.6 29.2 50.6 29.15 50.55 29.15 50.5 29.1 50.45 29.05 50.45 29.05 50.45 29.0 50.45 28.95 50.4 28.9 50.45 28.9 50.45 28.85 50.5 28.8 50.55 28.75 50.65 28.6 51.0 28.5 51.2 28.35 51.55 28.2 51.8 28.1 52.1 28.0 52.4 27.9 52.7 27.85 53.0 27.8 53.3 27.75 53.6 27.7 53.9 27.75 54.2 27.75 54.55 27.8 54.85 27.9 55.2 28.0 55.5 28.05 55.65 28.1 55.75 28.2 55.9 28.25 55.95 28.35 56.05 28.45 56.15 28.5 56.2 28.6 56.25 28.7 56.3 28.85 56.3 28.95 56.35 29.05 56.35 29.2 56.35 29.3 56.35 29.45 56.3 29.55 56.25 29.75 56.2 29.9 56.1 30.05 56.05 30.15 55.95 30.25 55.85 30.35 55.7 30.4 55.6 30.45 55.45 30.5 55.35 30.55 55.2 30.55 55.05 30.55 54.9 30.55 54.8 30.6 54.6 30.6 54.4 30.6 54.3 L30.6 54.3 M4.2 48.75 Q3.95 49.15 3.85 49.3 3.65 49.6 3.5 49.8 3.35 50.1 3.2 50.35 3.05 50.6 2.95 50.85 2.8 51.15 2.75 51.4 2.65 51.7 2.6 51.95 2.55 52.25 2.5 52.55 2.5 52.85 2.55 53.15 2.55 53.3 2.6 53.45 2.6 53.6 2.6 53.7 2.65 53.85 2.7 53.95 2.75 54.05 2.8 54.15 2.85 54.3 2.95 54.35 3.05 54.45 3.15 54.5 3.25 54.55 3.4 54.6 3.55 54.65 3.75 54.65 3.95 54.65 4.1 54.65 4.25 54.6 4.4 54.55 4.5 54.5 4.6 54.45 4.7 54.35 4.8 54.3 4.9 54.2 4.95 54.05 5.0 53.95 5.05 53.8 5.1 53.7 5.15 53.55 5.2 53.4 5.2 53.25 5.25 52.95 5.3 52.65 5.3 52.4 5.3 52.1 5.3 51.85 5.25 51.55 5.2 51.25 5.15 51.0 5.05 50.7 4.95 50.45 4.9 50.2 4.75 49.9 4.65 49.65 4.5 49.35 4.4 49.05 4.2 48.75 L4.2 48.75 M-31.65 33.35 Q-31.9 33.65 -32.05 33.85 -32.3 34.15 -32.45 34.35 -32.65 34.65 -32.85 34.85 -33.0 35.15 -33.15 35.4 -33.3 35.65 -33.4 35.95 -33.5 36.2 -33.55 36.5 -33.65 36.8 -33.7 37.1 -33.7 37.4 -33.7 37.75 -33.7 37.9 -33.7 38.0 -33.65 38.15 -33.65 38.25 -33.6 38.35 -33.55 38.5 -33.55 38.6 -33.45 38.65 -33.4 38.75 -33.35 38.85 -33.25 38.9 -33.15 39.0 -33.05 39.05 -32.95 39.1 -32.8 39.15 -32.65 39.15 -32.5 39.2 -32.35 39.2 -32.2 39.2 -32.1 39.15 -31.95 39.15 -31.85 39.1 -31.75 39.05 -31.65 39.0 -31.55 38.9 -31.5 38.85 -31.4 38.75 -31.35 38.65 -31.25 38.55 -31.2 38.4 -31.15 38.3 -31.1 38.15 -31.0 37.85 -30.95 37.55 -30.85 37.25 -30.85 36.95 -30.85 36.65 -30.85 36.35 -30.85 36.05 -30.9 35.75 -30.95 35.45 -31.05 35.15 -31.1 34.85 -31.2 34.55 -31.3 34.3 -31.4 33.95 -31.55 33.7 -31.65 33.35 L-31.65 33.35 M-21.45 39.65 Q-21.75 40.0 -21.85 40.15 -22.1 40.45 -22.25 40.65 -22.45 40.95 -22.6 41.2 -22.75 41.45 -22.9 41.7 -23.05 41.95 -23.15 42.25 -23.25 42.5 -23.35 42.8 -23.4 43.1 -23.45 43.4 -23.5 43.7 -23.45 44.0 -23.45 44.15 -23.45 44.3 -23.4 44.4 -23.4 44.55 -23.4 44.65 -23.35 44.75 -23.3 44.9 -23.25 45.0 -23.2 45.1 -23.1 45.15 -23.0 45.25 -22.9 45.3 -22.8 45.35 -22.7 45.4 -22.55 45.45 -22.4 45.5 -22.25 45.5 -22.1 45.5 -21.95 45.5 -21.8 45.5 -21.7 45.45 -21.6 45.4 -21.5 45.35 -21.4 45.25 -21.3 45.2 -21.25 45.1 -21.15 45.0 -21.1 44.9 -21.0 44.8 -20.95 44.7 -20.9 44.55 -20.85 44.4 -20.75 44.1 -20.7 43.8 -20.65 43.5 -20.6 43.2 -20.6 42.95 -20.6 42.65 -20.65 42.35 -20.7 42.05 -20.75 41.75 -20.8 41.45 -20.9 41.15 -21.0 40.85 -21.1 40.6 -21.2 40.25 -21.3 40.0 -21.45 39.65 L-21.45 39.65 M-9.45 44.7 Q-9.7 45.0 -9.9 45.2 -10.1 45.45 -10.25 45.7 -10.45 45.95 -10.65 46.2 -10.8 46.45 -10.95 46.75 -11.1 47.0 -11.2 47.25 -11.3 47.55 -11.35 47.85 -11.45 48.15 -11.5 48.45 -11.5 48.75 -11.5 49.1 -11.5 49.25 -11.5 49.35 -11.45 49.5 -11.45 49.6 -11.4 49.7 -11.35 49.8 -11.35 49.9 -11.25 50.0 -11.2 50.1 -11.15 50.2 -11.05 50.25 -10.95 50.3 -10.85 50.4 -10.75 50.4 -10.6 50.45 -10.45 50.5 -10.3 50.5 -10.15 50.5 -10.0 50.5 -9.9 50.5 -9.75 50.45 -9.65 50.45 -9.55 50.4 -9.45 50.3 -9.35 50.25 -9.3 50.15 -9.2 50.05 -9.15 49.95 -9.05 49.85 -9.0 49.75 -8.95 49.6 -8.9 49.5 -8.8 49.2 -8.75 48.9 -8.65 48.6 -8.65 48.25 -8.65 48.0 -8.65 47.65 -8.65 47.4 -8.7 47.1 -8.75 46.8 -8.85 46.5 -8.9 46.2 -9.0 45.9 -9.1 45.6 -9.2 45.3 -9.35 45.0 -9.45 44.7 L-9.45 44.7 M16.95 50.3 Q16.75 50.65 16.6 50.85 16.4 51.15 16.3 51.4 16.1 51.7 16.0 51.95 15.85 52.25 15.75 52.5 15.65 52.8 15.55 53.05 15.5 53.35 15.45 53.65 15.4 53.95 15.4 54.25 15.4 54.55 15.45 54.85 15.5 55.0 15.5 55.1 15.55 55.25 15.6 55.35 15.6 55.5 15.65 55.6 15.75 55.7 15.8 55.8 15.85 55.9 15.95 55.95 16.05 56.05 16.15 56.05 16.25 56.15 16.4 56.15 16.55 56.2 16.7 56.2 16.85 56.2 17.0 56.2 17.15 56.15 17.3 56.1 17.4 56.05 17.5 56.0 17.6 55.9 17.7 55.8 17.8 55.75 17.85 55.6 17.9 55.5 17.95 55.4 18.0 55.25 18.05 55.15 18.1 55.0 18.1 54.85 18.15 54.55 18.15 54.25 18.2 53.95 18.15 53.65 18.15 53.4 18.1 53.1 18.05 52.8 17.95 52.55 17.9 52.25 17.8 52.0 17.7 51.7 17.55 51.4 17.4 51.15 17.25 50.85 17.1 50.6 16.95 50.3 L16.95 50.3" fill="#080808" fill-rule="evenodd" stroke="none"/>
  </g>
</svg>
