<?xml version="1.0" encoding="UTF-8" standalone="no"?>
<svg xmlns:xlink="http://www.w3.org/1999/xlink" height="200.0px" width="200.0px" xmlns="http://www.w3.org/2000/svg">
  <g transform="matrix(1.0, 0.0, 0.0, 1.0, 100.0, 100.0)">
    <path d="M-21.0 45.7 Q-20.5 45.55 -20.0 45.4 -19.5 45.3 -18.95 45.25 -18.45 45.15 -17.95 45.1 -17.45 45.05 -16.95 45.05 -16.45 45.05 -15.9 45.1 -15.4 45.1 -14.85 45.15 -14.35 45.2 -13.85 45.25 -13.35 45.35 -12.8 45.45 -12.8 45.4 -12.75 45.35 -12.75 45.3 -12.75 45.3 -12.7 45.25 -12.7 45.2 -12.65 45.15 -12.65 45.1 -12.65 45.05 -12.6 45.0 -12.6 44.95 -12.55 44.9 -12.55 44.85 -12.5 44.8 -12.5 44.75 -12.5 44.7 -12.35 44.45 -12.2 44.2 -12.05 43.95 -11.85 43.75 -11.7 43.55 -11.5 43.4 -11.3 43.2 -11.05 43.05 -10.85 42.95 -10.6 42.8 -10.35 42.7 -10.1 42.6 -9.85 42.55 -9.55 42.45 -9.3 42.4 -9.0 42.35 -8.8 42.35 -8.6 42.3 -8.4 42.3 -8.25 42.3 -8.05 42.35 -7.85 42.35 -7.7 42.4 -7.5 42.4 -7.3 42.45 -7.15 42.5 -6.95 42.6 -6.8 42.65 -6.65 42.75 -6.45 42.85 -6.3 42.95 -6.15 43.05 -5.95 43.2 -5.8 43.35 -5.65 43.5 -5.5 43.7 -5.4 43.85 -5.25 44.05 -5.15 44.2 -5.05 44.4 -4.95 44.6 -4.9 44.8 -4.85 45.0 -4.75 45.2 -4.7 45.4 -4.7 45.65 -4.65 45.85 -4.6 46.05 -4.6 46.25 -4.6 46.45 -4.6 46.6 -4.6 46.8 -4.6 47.0 -4.6 47.2 -4.65 47.35 -4.65 47.55 -4.7 47.75 -4.75 47.9 -4.8 48.1 -4.85 48.3 -4.9 48.45 -4.95 48.65 -5.05 48.85 -5.1 49.0 -4.85 49.1 -4.4 49.2 -3.95 49.3 -3.55 49.45 -3.15 49.55 -2.7 49.7 -2.3 49.85 -1.9 49.95 -1.45 50.1 -1.05 50.25 -0.65 50.4 -0.25 50.6 0.15 50.75 0.55 50.95 0.95 51.1 1.35 51.3 1.75 51.5 2.15 51.7 2.25 51.75 2.3 51.8 2.4 51.85 2.45 51.9 2.55 51.95 2.65 52.0 2.7 52.05 2.8 52.1 2.85 52.15 2.95 52.2 3.0 52.25 3.1 52.3 3.2 52.35 3.25 52.45 3.35 52.5 3.4 52.55 3.55 52.65 3.7 52.8 3.8 52.9 3.9 53.05 4.0 53.2 4.05 53.3 4.1 53.45 4.15 53.6 4.15 53.75 4.15 53.9 4.15 54.05 4.1 54.2 4.1 54.4 4.0 54.55 3.95 54.7 3.85 54.85 3.75 55.0 3.6 55.2 3.5 55.35 3.35 55.5 3.2 55.65 3.05 55.8 2.95 55.95 2.75 56.1 2.6 56.2 2.45 56.35 2.3 56.45 2.15 56.6 1.95 56.7 1.8 56.8 1.65 56.9 1.45 57.0 1.15 57.15 0.85 57.35 0.55 57.5 0.25 57.65 -0.1 57.8 -0.4 57.95 -0.7 58.05 -1.05 58.2 -1.35 58.3 -1.65 58.45 -2.0 58.55 -2.3 58.65 -2.6 58.8 -2.95 58.9 -3.25 59.0 -3.6 59.1 -4.7 59.45 -5.5 59.65 -5.6 59.7 -6.45 59.8 -6.5 59.8 -6.55 59.8 -6.55 59.85 -6.6 59.85 -6.65 59.85 -6.65 59.9 -6.85 60.05 -7.1 60.25 -7.3 60.4 -7.55 60.55 -7.75 60.7 -8.0 60.8 -8.2 60.95 -8.45 61.05 -8.7 61.2 -8.95 61.3 -9.2 61.4 -9.45 61.5 -9.7 61.55 -9.95 61.65 -10.2 61.75 -10.45 61.8 -10.55 61.85 -10.65 61.85 -10.8 61.9 -10.9 61.9 -11.0 61.95 -11.1 62.0 -11.2 62.0 -11.3 62.05 -11.4 62.05 -11.55 62.1 -11.65 62.15 -11.75 62.15 -11.85 62.2 -11.95 62.25 -12.05 62.25 -12.15 62.3 -12.35 62.35 -12.6 62.45 -12.8 62.5 -13.05 62.55 -13.25 62.55 -13.5 62.6 -13.7 62.65 -13.95 62.65 -14.15 62.7 -14.35 62.7 -14.6 62.75 -14.8 62.75 -15.05 62.75 -15.25 62.75 -15.45 62.8 -15.7 62.8 -16.5 62.85 -16.3 62.8 -16.6 62.85 -16.85 62.85 -17.2 62.85 -17.45 62.85 -17.75 62.85 -18.0 62.85 -18.3 62.85 -18.6 62.85 -18.9 62.8 -19.15 62.8 -19.45 62.75 -19.75 62.7 -20.05 62.65 -20.3 62.6 -24.05 61.65 -25.45 60.95 -25.8 60.8 -26.1 60.6 -26.45 60.4 -26.75 60.2 -27.05 60.0 -27.3 59.75 -27.6 59.5 -27.85 59.25 -28.1 59.0 -28.3 58.7 -28.5 58.45 -28.7 58.1 -28.9 57.8 -29.1 57.5 -29.25 57.15 -29.4 56.8 -29.6 56.35 -29.7 55.9 -29.85 55.5 -29.9 55.05 -29.95 54.65 -29.95 54.2 -29.95 53.8 -29.9 53.35 -29.85 52.95 -29.75 52.55 -29.65 52.15 -29.5 51.7 -29.35 51.3 -29.15 50.9 -28.95 50.5 -28.7 50.1 -28.65 50.05 -28.65 50.0 -28.6 49.95 -28.6 49.9 -28.55 49.85 -28.55 49.8 -28.5 49.75 -28.5 49.7 -28.5 49.65 -28.5 49.6 -28.5 49.55 -28.55 49.5 -28.55 49.45 -28.55 49.4 -28.6 49.35 -28.6 49.25 -28.75 49.0 -28.85 48.7 -28.95 48.45 -29.05 48.2 -29.1 47.9 -29.15 47.65 -29.2 47.4 -29.2 47.1 -29.25 46.85 -29.25 46.55 -29.2 46.3 -29.15 46.0 -29.1 45.75 -29.05 45.45 -28.95 45.2 -28.85 44.9 -28.75 44.65 -28.6 44.4 -28.5 44.15 -28.3 43.95 -28.15 43.75 -28.0 43.55 -27.8 43.35 -27.6 43.25 -27.4 43.1 -27.2 42.95 -26.95 42.85 -26.7 42.8 -26.45 42.7 -26.2 42.65 -25.9 42.6 -25.6 42.6 -25.35 42.6 -25.1 42.6 -24.9 42.6 -24.65 42.65 -24.4 42.65 -24.2 42.7 -23.95 42.75 -23.75 42.85 -23.5 42.9 -23.3 43.0 -23.1 43.1 -22.9 43.25 -22.7 43.35 -22.5 43.5 -22.3 43.65 -22.1 43.8 -22.0 43.9 -21.95 44.0 -21.85 44.05 -21.8 44.15 -21.75 44.25 -21.65 44.35 -21.6 44.45 -21.55 44.55 -21.5 44.65 -21.45 44.75 -21.4 44.85 -21.3 44.95 -21.25 45.05 -21.2 45.2 -21.2 45.3 -21.15 45.4 -21.1 45.5 -21.0 45.7 L-21.0 45.7 M-16.85 61.45 Q-16.85 61.5 -16.85 61.5 -16.85 61.55 -16.85 61.55 -13.9 61.3 -13.3 61.2 -12.45 61.05 -10.2 60.35 -9.95 60.25 -9.7 60.15 -9.45 60.1 -9.25 59.95 -9.0 59.85 -8.8 59.75 -8.55 59.6 -8.35 59.5 -8.15 59.35 -7.95 59.2 -7.7 59.05 -7.55 58.85 -7.35 58.7 -7.15 58.5 -6.95 58.35 -6.8 58.15 -6.6 57.9 -6.4 57.65 -6.2 57.4 -6.05 57.1 -5.9 56.85 -5.8 56.55 -5.65 56.3 -5.55 56.0 -5.45 55.7 -5.4 55.4 -5.3 55.1 -5.3 54.8 -5.25 54.5 -5.25 54.2 -5.25 53.85 -5.3 53.55 -5.35 53.3 -5.4 53.1 -5.45 52.85 -5.5 52.65 -5.55 52.45 -5.65 52.2 -5.7 52.0 -5.8 51.8 -5.9 51.6 -6.0 51.4 -6.1 51.2 -6.25 51.0 -6.35 50.8 -6.5 50.6 -6.6 50.45 -6.75 50.25 -6.75 50.2 -6.8 50.2 -6.8 50.15 -6.8 50.1 -6.85 50.05 -6.85 50.0 -6.85 50.0 -6.85 49.95 -6.4 48.65 -6.25 48.3 -6.2 48.15 -6.15 48.05 -6.1 47.9 -6.1 47.8 -6.05 47.65 -6.05 47.5 -6.0 47.4 -6.0 47.25 -5.95 47.1 -5.95 47.0 -5.95 46.85 -5.95 46.7 -5.95 46.6 -5.95 46.45 -5.95 46.3 -5.95 46.2 -5.95 46.1 -5.95 46.0 -6.0 45.85 -6.0 45.75 -6.05 45.65 -6.05 45.55 -6.1 45.45 -6.1 45.35 -6.15 45.25 -6.2 45.15 -6.25 45.05 -6.3 44.95 -6.3 44.9 -6.4 44.8 -6.45 44.7 -6.5 44.6 -6.55 44.5 -6.65 44.4 -6.75 44.3 -6.8 44.25 -6.9 44.15 -7.0 44.1 -7.1 44.0 -7.2 43.95 -7.3 43.9 -7.4 43.85 -7.5 43.8 -7.6 43.8 -7.75 43.75 -7.85 43.7 -7.95 43.7 -8.1 43.7 -8.35 43.7 -8.55 43.7 -8.8 43.7 -9.0 43.7 -9.25 43.75 -9.45 43.8 -9.65 43.85 -9.85 43.95 -10.05 44.0 -10.2 44.15 -10.4 44.25 -10.55 44.4 -10.75 44.5 -10.9 44.7 -11.05 44.9 -11.15 45.1 -11.35 45.4 -11.95 46.7 -12.0 46.75 -12.0 46.85 -12.05 46.9 -12.1 46.95 -12.1 46.95 -12.15 47.0 -12.2 47.05 -12.2 47.05 -12.25 47.05 -12.3 47.05 -12.35 47.05 -12.4 47.05 -12.45 47.05 -12.5 47.05 -12.55 47.0 -12.65 47.0 -12.7 46.95 -12.75 46.95 -12.8 46.9 -12.9 46.9 -12.95 46.85 -13.0 46.85 -13.05 46.85 -13.1 46.8 -13.15 46.8 -13.25 46.75 -13.3 46.75 -13.35 46.7 -13.4 46.7 -13.45 46.7 -13.55 46.65 -13.6 46.65 -13.9 46.6 -14.2 46.55 -14.5 46.5 -14.85 46.45 -15.15 46.4 -15.45 46.4 -15.75 46.4 -16.1 46.4 -16.4 46.4 -16.75 46.4 -17.0 46.4 -17.35 46.45 -17.6 46.45 -18.0 46.45 -18.55 46.5 -18.65 46.5 -19.35 46.55 -21.15 47.25 -21.25 47.3 -21.3 47.3 -21.4 47.3 -21.45 47.3 -21.5 47.3 -21.55 47.3 -21.6 47.3 -21.65 47.3 -21.7 47.25 -21.75 47.25 -21.8 47.2 -21.85 47.15 -21.85 47.1 -21.9 47.0 -21.95 46.95 -21.95 46.85 -22.0 46.8 -22.0 46.7 -22.05 46.65 -22.1 46.55 -22.1 46.5 -22.15 46.45 -22.2 46.35 -22.2 46.3 -22.25 46.2 -22.25 46.15 -22.3 46.1 -22.35 46.0 -22.35 45.95 -22.4 45.85 -22.4 45.8 -22.45 45.7 -22.55 45.5 -22.65 45.35 -22.7 45.15 -22.85 45.0 -22.95 44.85 -23.1 44.75 -23.2 44.6 -23.35 44.5 -23.5 44.4 -23.65 44.3 -23.85 44.25 -24.0 44.15 -24.2 44.1 -24.35 44.05 -24.55 44.0 -24.75 43.95 -24.9 43.9 -25.1 43.9 -25.25 43.9 -25.4 43.9 -25.6 43.9 -25.75 43.9 -25.9 43.9 -26.05 43.95 -26.2 44.0 -26.35 44.05 -26.5 44.1 -26.65 44.2 -26.8 44.25 -26.9 44.4 -27.05 44.5 -27.15 44.65 -27.3 44.8 -27.4 45.0 -27.55 45.2 -27.6 45.4 -27.7 45.6 -27.75 45.75 -27.8 45.95 -27.85 46.2 -27.9 46.4 -27.9 46.6 -27.9 46.8 -27.9 47.0 -27.85 47.2 -27.85 47.45 -27.8 47.65 -27.75 47.85 -27.65 48.25 -27.4 48.85 -27.1 49.6 -27.05 49.85 -27.05 49.9 -27.0 49.9 -27.0 49.95 -27.0 50.0 -27.05 50.05 -27.05 50.05 -27.05 50.1 -27.05 50.15 -27.6 50.9 -27.7 51.1 -27.85 51.4 -28.0 51.65 -28.15 51.95 -28.25 52.2 -28.35 52.5 -28.45 52.8 -28.5 53.1 -28.55 53.35 -28.6 53.65 -28.6 53.95 -28.65 54.25 -28.6 54.55 -28.6 54.85 -28.5 55.15 -28.45 55.5 -28.35 55.8 -28.25 56.1 -28.15 56.35 -28.05 56.6 -27.9 56.9 -27.75 57.15 -27.6 57.35 -27.45 57.6 -27.3 57.85 -27.1 58.05 -26.9 58.25 -26.7 58.5 -26.5 58.7 -26.3 58.85 -26.05 59.05 -25.8 59.25 -25.55 59.4 -25.4 59.5 -25.2 59.6 -25.05 59.7 -24.85 59.75 -24.7 59.85 -24.5 59.95 -24.35 60.0 -24.15 60.1 -24.0 60.15 -23.8 60.2 -23.65 60.25 -23.45 60.35 -23.25 60.4 -23.05 60.45 -22.9 60.5 -22.7 60.55 -22.0 60.75 -22.0 60.75 -21.55 60.9 -21.25 60.95 -20.9 61.05 -20.55 61.15 -20.15 61.25 -19.8 61.3 -19.45 61.35 -19.1 61.4 -18.7 61.45 -18.35 61.5 -17.95 61.5 -17.6 61.5 -17.2 61.5 -16.85 61.45 L-16.85 61.45 M-5.15 58.3 Q-5.05 58.25 -4.5 58.1 -4.1 58.0 -3.85 57.9 -3.5 57.8 -3.25 57.7 -2.95 57.6 -2.65 57.5 -2.35 57.4 -2.05 57.3 -1.75 57.15 -1.5 57.05 -1.2 56.95 -0.9 56.8 -0.6 56.7 -0.35 56.55 -0.05 56.4 0.25 56.25 0.5 56.15 0.8 55.95 0.95 55.85 1.1 55.8 1.2 55.7 1.35 55.6 1.5 55.55 1.6 55.45 1.75 55.35 1.85 55.25 2.0 55.15 2.1 55.05 2.2 54.9 2.3 54.8 2.45 54.7 2.55 54.55 2.65 54.45 2.75 54.3 2.8 54.2 2.85 54.15 2.85 54.1 2.9 54.05 2.9 54.0 2.9 53.95 2.95 53.9 2.9 53.85 2.9 53.8 2.9 53.75 2.85 53.7 2.85 53.65 2.8 53.6 2.75 53.55 2.7 53.5 2.6 53.45 1.85 52.95 1.6 52.8 1.3 52.65 1.0 52.5 0.65 52.3 0.35 52.2 0.05 52.05 -0.3 51.9 -0.6 51.75 -0.95 51.6 -1.25 51.5 -1.6 51.35 -1.95 51.25 -2.25 51.15 -2.6 51.0 -2.95 50.9 -3.25 50.8 -3.6 50.7 -3.9 50.6 -4.3 50.5 -5.05 50.3 -5.05 50.3 -4.55 51.35 -4.5 51.45 -4.5 51.5 -4.45 51.6 -4.45 51.65 -4.4 51.7 -4.35 51.75 -4.3 51.8 -4.3 51.85 -4.25 51.85 -4.2 51.9 -4.15 51.95 -4.1 51.95 -4.05 52.0 -4.0 52.0 -3.9 52.0 -3.85 52.05 -3.8 52.05 -2.3 52.45 0.25 53.15 0.3 53.15 0.4 53.2 0.45 53.2 0.5 53.25 0.55 53.3 0.6 53.3 0.65 53.35 0.7 53.4 0.75 53.45 0.8 53.5 0.85 53.55 0.85 53.6 0.9 53.7 0.9 53.75 0.95 53.8 0.95 53.9 0.95 54.0 0.95 54.05 0.95 54.15 0.95 54.2 0.9 54.25 0.9 54.35 0.85 54.4 0.85 54.45 0.8 54.5 0.75 54.55 0.7 54.6 0.65 54.65 0.6 54.7 0.5 54.75 0.45 54.8 0.4 54.85 -0.35 55.2 -0.6 55.3 -1.0 55.4 -2.3 55.8 -3.35 56.1 -4.0 56.25 -4.05 56.25 -4.1 56.3 -4.15 56.3 -4.15 56.35 -4.2 56.35 -4.25 56.4 -4.25 56.4 -4.3 56.45 -4.45 56.8 -4.75 57.35 -5.05 58.0 -5.15 58.3 L-5.15 58.3 M0.1 54.0 Q-0.15 53.9 -0.4 53.8 -0.65 53.7 -0.9 53.65 -1.15 53.55 -1.4 53.45 -1.65 53.4 -1.95 53.3 -2.2 53.25 -2.45 53.2 -2.7 53.1 -2.95 53.05 -3.2 53.0 -3.45 52.95 -3.7 52.9 -4.0 52.85 -4.0 53.7 -4.0 55.45 -3.75 55.35 -3.45 55.3 -3.25 55.25 -2.95 55.15 -2.5 55.0 -2.4 55.0 -2.1 54.9 -1.9 54.85 -1.6 54.75 -1.4 54.7 -1.1 54.6 -0.85 54.5 -0.6 54.4 -0.4 54.3 -0.1 54.15 0.1 54.0 L0.1 54.0" fill="#000000" fill-rule="evenodd" stroke="none"/>
    <path d="M-16.4 55.6 Q-16.7 55.6 -16.95 55.6 -17.25 55.55 -17.5 55.55 -17.75 55.55 -18.0 55.5 -18.25 55.5 -18.5 55.45 -18.75 55.4 -18.95 55.35 -19.2 55.3 -19.4 55.25 -19.65 55.2 -19.85 55.1 -20.1 55.05 -20.3 54.95 -20.45 54.85 -20.65 54.8 -20.8 54.7 -20.95 54.6 -21.15 54.5 -21.3 54.4 -21.45 54.3 -21.6 54.2 -21.75 54.1 -21.9 53.95 -22.0 53.85 -22.15 53.7 -22.3 53.6 -22.4 53.45 -22.55 53.3 -22.65 53.15 -22.7 53.1 -22.7 53.05 -22.75 53.0 -22.75 53.0 -22.8 52.95 -22.85 52.9 -22.85 52.85 -22.85 52.8 -22.9 52.75 -22.9 52.7 -22.95 52.65 -22.95 52.55 -22.95 52.5 -23.0 52.45 -23.0 52.4 -23.0 52.35 -23.0 52.3 -23.0 52.25 -23.0 52.2 -23.0 52.15 -23.0 52.1 -22.95 52.05 -22.95 52.0 -22.9 51.95 -22.85 51.9 -22.8 51.85 -22.8 51.85 -22.75 51.8 -22.7 51.75 -22.65 51.75 -22.6 51.7 -22.55 51.7 -22.5 51.7 -22.45 51.7 -22.4 51.7 -22.3 51.7 -22.25 51.7 -22.2 51.7 -22.15 51.7 -22.1 51.75 -22.05 51.75 -22.0 51.75 -21.95 51.8 -21.9 51.85 -21.9 51.85 -21.85 51.9 -21.8 51.95 -21.8 52.0 -21.75 52.1 -21.7 52.2 -21.65 52.3 -21.6 52.35 -21.55 52.45 -21.45 52.5 -21.4 52.6 -21.3 52.65 -21.25 52.75 -21.15 52.8 -21.1 52.85 -21.0 52.95 -20.95 53.0 -20.85 53.05 -20.85 53.05 -20.7 53.15 -20.55 53.25 -20.4 53.35 -20.25 53.5 -20.05 53.55 -19.9 53.65 -19.75 53.75 -19.55 53.8 -19.4 53.85 -19.2 53.95 -19.05 54.0 -18.85 54.05 -18.65 54.05 -18.5 54.1 -18.3 54.15 -18.1 54.15 -17.95 54.2 -16.1 54.3 -15.45 54.15 -15.2 54.1 -15.0 54.05 -14.8 53.95 -14.6 53.9 -14.4 53.8 -14.2 53.7 -14.05 53.6 -13.85 53.45 -13.7 53.35 -13.55 53.2 -13.4 53.05 -13.25 52.9 -13.1 52.75 -12.95 52.55 -12.8 52.4 -12.7 52.2 -12.65 52.15 -12.65 52.1 -12.6 52.05 -12.55 52.0 -12.55 51.95 -12.5 51.95 -12.45 51.9 -12.4 51.85 -12.35 51.85 -12.3 51.8 -12.25 51.8 -12.2 51.8 -12.15 51.8 -12.1 51.8 -12.05 51.75 -12.0 51.8 -11.95 51.8 -11.9 51.8 -11.85 51.8 -11.8 51.85 -11.75 51.85 -11.7 51.9 -11.65 51.9 -11.65 51.95 -11.6 51.95 -11.55 52.0 -11.55 52.05 -11.5 52.05 -11.5 52.1 -11.45 52.15 -11.45 52.2 -11.45 52.25 -11.45 52.3 -11.45 52.35 -11.4 52.4 -11.4 52.4 -11.4 52.45 -11.4 52.5 -11.4 52.55 -11.45 52.6 -11.45 52.6 -11.45 52.65 -11.85 53.4 -12.05 53.6 -12.3 53.85 -12.55 54.1 -12.75 54.3 -13.05 54.5 -13.3 54.7 -13.55 54.85 -13.8 55.0 -14.1 55.15 -14.35 55.25 -14.65 55.35 -14.95 55.45 -15.2 55.5 -15.5 55.55 -15.8 55.6 -16.1 55.6 -16.4 55.6 L-16.4 55.6" fill="#000000" fill-rule="evenodd" stroke="none"/>
    <path d="M-25.1 45.1 Q-24.9 45.1 -24.7 45.1 -24.5 45.15 -24.35 45.2 -24.15 45.25 -24.0 45.35 -23.85 45.4 -23.75 45.5 -23.65 45.6 -23.55 45.7 -23.45 45.85 -23.4 45.95 -23.3 46.1 -23.3 46.25 -23.25 46.4 -23.25 46.6 -23.25 46.8 -23.3 46.95 -23.3 47.15 -23.4 47.3 -23.45 47.45 -23.55 47.6 -23.65 47.75 -23.75 47.9 -23.9 48.0 -24.05 48.1 -24.2 48.2 -24.35 48.25 -24.5 48.3 -24.65 48.35 -24.85 48.4 -25.05 48.4 -25.25 48.4 -25.4 48.35 -25.6 48.3 -25.75 48.25 -25.9 48.2 -26.05 48.1 -26.2 48.0 -26.3 47.9 -26.4 47.75 -26.5 47.65 -26.6 47.5 -26.7 47.35 -26.75 47.2 -26.8 47.05 -26.8 46.85 -26.8 46.7 -26.8 46.5 -26.75 46.35 -26.75 46.2 -26.7 46.05 -26.6 45.9 -26.55 45.75 -26.45 45.65 -26.35 45.55 -26.2 45.4 -26.1 45.35 -25.95 45.25 -25.8 45.2 -25.65 45.15 -25.45 45.1 -25.25 45.1 -25.1 45.1 L-25.1 45.1" fill="#000000" fill-rule="evenodd" stroke="none"/>
    <path d="M-8.9 45.15 Q-8.7 45.15 -8.5 45.2 -8.3 45.2 -8.15 45.25 -8.0 45.3 -7.85 45.4 -7.7 45.45 -7.55 45.55 -7.45 45.65 -7.35 45.8 -7.25 45.9 -7.2 46.05 -7.15 46.2 -7.1 46.35 -7.05 46.5 -7.05 46.65 -7.05 46.85 -7.1 47.0 -7.15 47.2 -7.2 47.35 -7.25 47.5 -7.35 47.65 -7.45 47.8 -7.6 47.95 -7.7 48.05 -7.85 48.15 -8.0 48.25 -8.15 48.3 -8.3 48.35 -8.5 48.4 -8.65 48.45 -8.85 48.45 -9.05 48.45 -9.2 48.4 -9.4 48.4 -9.55 48.3 -9.7 48.25 -9.85 48.15 -10.0 48.05 -10.1 47.95 -10.25 47.85 -10.35 47.7 -10.45 47.55 -10.5 47.4 -10.55 47.25 -10.6 47.1 -10.65 46.9 -10.65 46.75 -10.65 46.55 -10.6 46.4 -10.6 46.25 -10.5 46.1 -10.45 45.95 -10.35 45.8 -10.25 45.7 -10.15 45.6 -10.05 45.45 -9.9 45.4 -9.75 45.3 -9.6 45.25 -9.45 45.2 -9.25 45.15 -9.1 45.15 -8.9 45.15 L-8.9 45.15" fill="#000000" fill-rule="evenodd" stroke="none"/>
  </g>
</svg>
