<?xml version="1.0" encoding="UTF-8" standalone="no"?>
<svg xmlns:xlink="http://www.w3.org/1999/xlink" height="200.0px" width="200.0px" xmlns="http://www.w3.org/2000/svg">
  <g transform="matrix(1.0, 0.0, 0.0, 1.0, 100.0, 100.0)">
    <path d="M-12.9 46.05 Q-13.2 45.95 -13.5 45.9 -13.85 45.85 -14.2 45.75 -14.6 45.7 -14.95 45.65 -15.35 45.6 -15.75 45.6 -16.2 45.6 -16.65 45.6 -17.1 45.6 -17.55 45.65 -18.0 45.7 -18.5 45.75 -19.0 45.85 -19.45 45.95 -19.55 46.0 -19.7 46.0 -19.8 46.05 -19.9 46.05 -20.0 46.1 -20.1 46.15 -20.2 46.15 -20.35 46.2 -20.45 46.25 -20.55 46.3 -20.65 46.3 -20.75 46.35 -20.85 46.4 -20.95 46.4 -21.0 46.45 -21.1 46.5 -21.15 46.4 -21.2 46.3 -21.25 46.2 -21.25 46.1 -21.35 46.0 -21.4 45.9 -21.45 45.8 -21.55 45.65 -21.6 45.55 -21.7 45.4 -21.8 45.3 -21.9 45.15 -22.0 45.05 -22.1 44.9 -22.2 44.8 -22.35 44.65 -22.45 44.55 -22.5 44.5 -22.6 44.4 -22.75 44.3 -22.85 44.2 -23.0 44.1 -23.15 44.0 -23.3 43.9 -23.45 43.8 -23.65 43.75 -23.8 43.65 -24.0 43.55 -24.2 43.5 -24.45 43.45 -24.65 43.4 -24.9 43.4 -25.15 43.4 -25.4 43.4 -25.65 43.45 -25.9 43.5 -26.1 43.55 -26.35 43.65 -26.6 43.7 -26.8 43.85 -27.0 43.95 -27.2 44.1 -27.4 44.25 -27.6 44.4 -27.75 44.6 -27.9 44.75 -28.05 44.95 -28.2 45.15 -28.35 45.4 -28.5 45.7 -28.6 46.0 -28.65 46.3 -28.75 46.6 -28.75 46.9 -28.75 47.2 -28.75 47.5 -28.7 47.8 -28.65 48.1 -28.55 48.45 -28.45 48.75 -28.35 49.05 -28.15 49.3 -28.0 49.6 -27.8 49.85 -27.85 49.95 -27.9 50.05 -27.95 50.15 -28.0 50.25 -28.05 50.35 -28.1 50.45 -28.15 50.55 -28.2 50.65 -28.25 50.8 -28.3 50.9 -28.35 51.05 -28.4 51.15 -28.45 51.3 -28.5 51.45 -28.6 51.6 -28.6 51.75 -28.65 51.85 -28.7 52.0 -28.75 52.2 -28.8 52.35 -28.85 52.6 -28.9 52.8 -28.95 53.05 -29.0 53.3 -29.05 53.6 -29.1 53.9 -29.1 54.2 -29.15 54.5 -29.15 54.8 -29.1 55.1 -29.1 55.45 -29.05 55.75 -28.95 56.25 -28.75 56.7 -28.6 57.15 -28.3 57.6 -28.05 57.95 -27.75 58.35 -27.45 58.7 -27.1 59.0 -26.8 59.3 -26.4 59.6 -26.1 59.8 -25.75 60.05 -25.45 60.25 -25.1 60.45 -24.95 60.55 -24.6 60.75 -24.1 61.05 -23.55 61.25 -23.05 61.5 -22.55 61.65 -22.05 61.85 -21.55 61.95 -21.05 62.05 -20.55 62.15 -20.1 62.2 -19.55 62.25 -19.1 62.3 -18.6 62.3 -18.15 62.35 -17.65 62.35 -17.3 62.35 -16.7 62.35 -16.05 62.35 -15.75 62.35 -15.2 62.35 -14.75 62.35 -14.2 62.3 -13.75 62.25 -13.2 62.2 -12.7 62.15 -12.15 62.05 -11.65 61.9 -11.1 61.8 -10.55 61.6 -10.05 61.4 -9.5 61.15 -8.95 60.9 -8.45 60.55 -8.2 60.4 -8.05 60.3 -7.85 60.15 -7.65 60.0 -7.4 59.85 -7.2 59.7 -7.0 59.5 -6.75 59.3 -6.55 59.1 -6.35 58.85 -6.15 58.6 -5.95 58.35 -5.75 58.1 -5.6 57.8 -5.4 57.5 -5.25 57.15 -5.1 56.8 -5.0 56.4 -4.9 56.05 -4.85 55.65 -4.8 55.3 -4.75 54.95 -4.75 54.6 -4.75 54.25 -4.8 53.95 -4.8 53.6 -4.85 53.3 -4.9 53.0 -4.95 52.8 -5.0 52.5 -5.0 52.35 -5.05 52.1 -5.1 51.9 -5.15 51.7 -5.2 51.5 -5.25 51.3 -5.3 51.15 -5.35 50.95 -5.45 50.8 -5.5 50.65 -5.55 50.5 -5.6 50.35 -5.65 50.2 -5.75 50.05 -5.8 49.9 -5.85 49.8 -5.9 49.65 -5.95 49.55 -5.9 49.45 -5.85 49.35 -5.8 49.2 -5.75 49.1 -5.65 48.95 -5.6 48.8 -5.55 48.65 -5.5 48.45 -5.45 48.3 -5.4 48.1 -5.35 47.95 -5.35 47.75 -5.3 47.55 -5.25 47.35 -5.25 47.15 -5.2 46.9 -5.2 46.55 -5.2 46.55 -5.2 46.3 -5.2 46.1 -5.2 45.85 -5.2 45.6 -5.25 45.35 -5.25 45.1 -5.3 44.85 -5.4 44.6 -5.45 44.35 -5.6 44.1 -5.7 43.85 -5.85 43.65 -6.05 43.45 -6.25 43.3 -6.45 43.15 -6.7 43.0 -6.95 42.9 -7.2 42.85 -7.45 42.8 -7.7 42.8 -7.95 42.8 -8.2 42.8 -8.45 42.8 -8.65 42.85 -8.85 42.9 -9.05 42.95 -9.25 43.0 -9.4 43.05 -9.5 43.1 -9.65 43.15 -10.0 43.25 -10.35 43.45 -10.7 43.6 -11.0 43.8 -11.25 44.0 -11.5 44.2 -11.7 44.4 -11.95 44.65 -12.1 44.85 -12.3 45.05 -12.45 45.25 -12.55 45.45 -12.65 45.65 -12.75 45.8 -12.8 45.9 -12.9 46.05 L-12.9 46.05" fill="#fc9f64" fill-rule="evenodd" stroke="none"/>
  </g>
</svg>
