<?xml version="1.0" encoding="UTF-8" standalone="no"?>
<svg xmlns:xlink="http://www.w3.org/1999/xlink" height="69.95px" width="77.15px" xmlns="http://www.w3.org/2000/svg">
  <g transform="matrix(1.0, 0.0, 0.0, 1.0, 38.6, 35.0)">
    <path d="M5.55 -33.85 Q7.0 -33.85 8.45 -33.7 9.9 -33.55 11.3 -33.25 12.75 -32.95 14.2 -32.55 15.6 -32.15 17.0 -31.6 18.4 -31.05 19.8 -30.35 21.15 -29.65 22.5 -28.85 23.85 -28.0 25.15 -27.05 26.45 -26.05 27.65 -24.95 28.7 -24.0 29.65 -23.0 30.6 -22.05 31.45 -21.0 32.3 -19.95 33.05 -18.85 33.8 -17.7 34.45 -16.55 35.1 -15.4 35.65 -14.2 36.2 -12.95 36.65 -11.7 37.1 -10.45 37.5 -9.1 37.85 -7.8 38.15 -6.4 38.25 -5.9 38.3 -5.45 38.4 -4.95 38.45 -4.45 38.55 -4.0 38.6 -3.5 38.65 -3.0 38.65 -2.55 38.7 -2.05 38.7 -1.55 38.75 -1.05 38.75 -0.6 38.75 -0.1 38.75 0.4 38.75 0.9 38.7 1.35 38.7 1.4 38.7 1.45 38.7 1.5 38.7 1.55 38.7 1.55 38.75 1.6 38.75 1.65 38.75 1.65 38.8 1.7 38.8 1.7 38.85 1.75 38.85 1.75 38.9 1.75 38.95 1.8 39.0 1.8 39.05 1.8 39.45 1.95 39.85 2.1 40.25 2.25 40.65 2.45 41.0 2.6 41.4 2.8 41.75 3.0 42.1 3.25 42.45 3.45 42.8 3.7 43.15 3.95 43.5 4.2 43.85 4.5 44.15 4.75 44.45 5.05 44.8 5.35 45.15 5.7 45.5 6.1 45.85 6.5 46.15 6.9 46.45 7.3 46.7 7.75 46.95 8.15 47.2 8.6 47.4 9.05 47.6 9.5 47.8 9.95 47.95 10.45 48.05 10.95 48.2 11.45 48.3 11.95 48.35 12.45 48.4 12.8 48.45 13.15 48.45 13.5 48.45 13.85 48.45 14.2 48.45 14.55 48.4 14.9 48.35 15.25 48.3 15.6 48.25 15.95 48.2 16.25 48.1 16.6 48.0 16.95 47.9 17.3 47.8 17.6 47.65 17.95 47.35 18.75 47.0 19.5 46.6 20.25 46.2 20.9 45.75 21.6 45.25 22.2 44.75 22.8 44.2 23.35 43.65 23.9 43.05 24.4 42.45 24.85 41.75 25.3 41.05 25.7 40.3 26.05 39.55 26.4 38.75 26.65 38.6 26.7 38.5 26.75 38.35 26.8 38.25 26.85 38.15 26.95 38.1 27.0 38.0 27.05 37.95 27.15 37.85 27.2 37.8 27.3 37.75 27.4 37.75 27.5 37.7 27.6 37.65 27.75 37.65 27.85 37.6 28.0 37.5 28.7 37.3 29.4 37.15 30.1 36.95 30.75 36.75 31.45 36.5 32.05 36.2 32.7 35.9 33.35 35.6 33.95 35.25 34.55 34.9 35.15 34.45 35.7 34.05 36.25 33.6 36.8 33.15 37.35 32.6 37.85 32.05 38.4 31.5 38.85 30.9 39.35 30.3 39.75 29.7 40.2 29.05 40.5 28.45 40.85 27.8 41.15 27.1 41.45 26.45 41.65 25.75 41.85 25.0 42.0 24.3 42.1 23.55 42.15 22.8 42.25 22.05 42.2 21.3 42.2 20.6 42.1 19.9 42.0 19.2 41.85 18.55 41.7 17.9 41.5 17.25 41.25 16.65 41.0 16.0 40.7 15.4 40.35 14.85 40.0 14.25 39.6 13.7 39.2 13.2 38.7 12.65 38.25 12.15 37.7 12.05 37.6 11.9 37.45 11.8 37.35 11.7 37.2 11.55 37.05 11.45 36.95 11.35 36.8 11.25 36.65 11.1 36.55 11.0 36.4 10.9 36.25 10.8 36.1 10.7 36.0 10.6 35.85 10.5 35.7 10.45 35.55 10.4 35.5 10.4 35.45 10.35 35.4 10.3 35.35 10.25 35.35 10.25 35.3 10.2 35.3 10.15 35.25 10.1 35.25 10.05 35.25 10.0 35.25 9.95 35.25 9.95 35.25 9.85 35.25 9.8 35.25 9.75 35.3 9.1 35.45 8.45 35.55 7.75 35.65 7.1 35.75 6.45 35.85 5.75 35.9 5.1 36.0 4.45 36.0 3.75 36.05 3.1 36.05 2.45 36.1 1.75 36.05 1.1 36.05 0.4 36.0 -0.25 36.0 -0.95 35.95 -1.95 35.85 -2.9 35.7 -3.9 35.55 -4.85 35.35 -5.8 35.15 -6.75 34.9 -7.7 34.65 -8.65 34.35 -9.55 34.05 -10.45 33.7 -11.4 33.35 -12.3 32.95 -13.15 32.55 -14.05 32.1 -14.95 31.6 -15.8 31.1 -16.6 30.6 -17.05 30.3 -17.1 30.25 -17.15 30.25 -17.2 30.2 -17.25 30.2 -17.3 30.2 -17.3 30.25 -17.35 30.25 -17.35 30.3 -17.4 30.35 -17.4 30.4 -17.5 30.75 -17.65 31.05 -17.75 31.4 -17.9 31.7 -18.05 32.0 -18.2 32.3 -18.35 32.6 -18.5 32.9 -18.7 33.2 -18.9 33.5 -19.05 33.8 -19.25 34.05 -19.5 34.35 -19.7 34.6 -19.95 34.85 -20.15 35.1 -20.7 35.65 -21.25 36.1 -21.85 36.6 -22.45 36.95 -23.05 37.3 -23.65 37.6 -24.3 37.9 -24.95 38.05 -25.6 38.25 -26.3 38.35 -26.95 38.45 -27.65 38.45 -28.35 38.5 -29.1 38.4 -29.8 38.35 -30.55 38.2 -31.25 38.05 -31.9 37.85 -32.55 37.65 -33.2 37.35 -33.8 37.1 -34.4 36.8 -35.0 36.45 -35.55 36.1 -36.1 35.75 -36.65 35.3 -37.15 34.9 -37.65 34.45 -38.15 34.0 -38.65 33.5 -39.1 33.0 -39.55 32.5 -40.15 31.8 -40.65 31.05 -41.2 30.3 -41.65 29.55 -42.1 28.8 -42.5 28.0 -42.9 27.2 -43.2 26.35 -43.5 25.55 -43.75 24.7 -44.0 23.85 -44.2 23.0 -44.35 22.1 -44.45 21.2 -44.55 20.3 -44.55 19.4 -44.55 18.75 -44.55 18.15 -44.5 17.5 -44.45 16.9 -44.4 16.25 -44.25 15.65 -44.15 15.05 -44.0 14.45 -43.85 13.9 -43.6 13.3 -43.4 12.75 -43.1 12.2 -42.85 11.6 -42.5 11.1 -42.2 10.55 -41.8 10.05 -41.7 9.95 -41.65 9.85 -41.6 9.75 -41.55 9.65 -41.5 9.55 -41.45 9.45 -41.45 9.35 -41.4 9.2 -41.4 9.1 -41.4 9.0 -41.35 8.9 -41.35 8.8 -41.35 8.7 -41.35 8.55 -41.35 8.45 -41.4 8.35 -41.45 7.9 -41.45 7.4 -41.45 6.95 -41.35 6.55 -41.3 6.1 -41.2 5.7 -41.1 5.25 -40.95 4.85 -40.8 4.5 -40.6 4.1 -40.4 3.7 -40.15 3.35 -39.9 3.0 -39.6 2.65 -39.3 2.3 -38.95 2.0 -38.6 1.7 -38.25 1.4 -37.9 1.1 -37.5 0.85 -37.15 0.6 -36.75 0.4 -36.35 0.15 -35.95 0.0 -35.55 -0.2 -35.15 -0.35 -34.7 -0.5 -34.3 -0.65 -33.85 -0.75 -33.4 -0.85 -32.95 -0.95 -32.5 -1.05 -32.4 -1.05 -32.35 -1.1 -32.3 -1.1 -32.25 -1.1 -32.2 -1.15 -32.15 -1.15 -32.1 -1.2 -32.05 -1.2 -32.05 -1.25 -32.0 -1.3 -31.95 -1.35 -31.95 -1.4 -31.95 -1.45 -31.9 -1.5 -31.9 -1.6 -31.9 -1.65 -31.75 -2.95 -31.55 -4.2 -31.3 -5.45 -31.0 -6.65 -30.7 -7.85 -30.3 -9.05 -29.9 -10.2 -29.4 -11.35 -28.95 -12.5 -28.4 -13.6 -27.8 -14.75 -27.2 -15.8 -26.55 -16.9 -25.8 -17.9 -25.1 -18.95 -24.3 -19.95 -23.3 -21.2 -22.25 -22.3 -21.2 -23.45 -20.05 -24.45 -18.95 -25.5 -17.75 -26.4 -16.55 -27.3 -15.25 -28.1 -14.0 -28.9 -12.65 -29.6 -11.35 -30.3 -9.95 -30.9 -8.55 -31.5 -7.05 -32.0 -5.6 -32.45 -4.05 -32.85 -3.55 -32.95 -3.05 -33.1 -2.5 -33.2 -2.0 -33.3 -1.45 -33.35 -0.9 -33.45 -0.35 -33.55 0.25 -33.6 0.85 -33.65 1.45 -33.7 2.1 -33.75 2.75 -33.8 3.4 -33.8 4.1 -33.8 4.8 -33.85 5.55 -33.85 L5.55 -33.85 M4.85 -32.1 Q4.35 -32.1 3.85 -32.1 3.35 -32.1 2.85 -32.1 2.35 -32.05 1.85 -32.05 1.35 -32.0 0.9 -31.95 0.4 -31.9 -0.1 -31.85 -0.6 -31.8 -1.1 -31.7 -1.6 -31.6 -2.05 -31.5 -2.55 -31.4 -3.05 -31.3 -4.9 -30.85 -6.6 -30.3 -8.35 -29.7 -10.0 -29.0 -11.6 -28.3 -13.15 -27.4 -14.65 -26.55 -16.1 -25.5 -17.5 -24.5 -18.8 -23.35 -20.1 -22.15 -21.3 -20.85 -22.5 -19.55 -23.6 -18.05 -24.7 -16.6 -25.7 -15.0 -26.15 -14.25 -26.6 -13.45 -27.0 -12.65 -27.35 -11.85 -27.75 -11.1 -28.05 -10.25 -28.4 -9.45 -28.65 -8.6 -28.95 -7.8 -29.15 -6.95 -29.4 -6.1 -29.6 -5.25 -29.8 -4.4 -29.95 -3.5 -30.1 -2.65 -30.2 -1.75 -30.25 -1.3 -30.3 -0.8 -30.35 -0.35 -30.35 0.1 -30.4 0.55 -30.4 1.05 -30.4 1.5 -30.4 1.95 -30.4 2.45 -30.4 2.9 -30.4 3.35 -30.35 3.85 -30.35 4.3 -30.3 4.8 -30.25 5.25 -30.2 5.7 -30.2 5.75 -30.2 5.8 -30.2 5.85 -30.15 5.85 -30.15 5.9 -30.15 5.9 -30.15 5.95 -30.1 5.95 -30.1 6.0 -30.05 6.0 -30.05 6.0 -30.0 6.05 -30.0 6.05 -29.95 6.05 -29.9 6.05 -29.85 6.1 -29.5 6.2 -29.15 6.3 -28.8 6.4 -28.45 6.55 -28.15 6.7 -27.8 6.8 -27.5 6.95 -27.15 7.15 -26.85 7.3 -26.5 7.45 -26.2 7.65 -25.9 7.85 -25.6 8.05 -25.3 8.25 -25.0 8.45 -24.7 8.65 -24.1 9.1 -23.5 9.65 -22.95 10.15 -22.4 10.65 -21.9 11.2 -21.4 11.8 -20.95 12.35 -20.5 12.95 -20.1 13.55 -19.7 14.2 -19.3 14.85 -18.95 15.5 -18.6 16.15 -18.3 16.85 -18.0 17.55 -17.75 18.3 -17.55 18.85 -17.4 19.45 -17.2 20.0 -17.05 20.6 -16.95 21.15 -16.85 21.75 -16.75 22.3 -16.65 22.9 -16.6 23.5 -16.55 24.05 -16.55 24.65 -16.55 25.25 -16.55 25.85 -16.6 26.45 -16.65 27.05 -16.75 27.6 -16.75 27.7 -16.75 27.8 -16.75 27.85 -16.75 27.95 -16.75 28.0 -16.75 28.1 -16.75 28.15 -16.7 28.2 -16.65 28.25 -16.65 28.3 -16.6 28.35 -16.55 28.4 -16.5 28.45 -16.45 28.5 -16.35 28.55 -16.3 28.6 -15.95 28.85 -15.6 29.05 -15.2 29.3 -14.85 29.5 -14.45 29.75 -14.1 29.95 -13.7 30.15 -13.35 30.35 -12.95 30.55 -12.6 30.75 -12.2 30.95 -11.8 31.15 -11.45 31.3 -11.05 31.5 -10.65 31.65 -10.25 31.8 -9.4 32.15 -8.5 32.45 -7.65 32.75 -6.8 33.0 -5.9 33.25 -5.0 33.45 -4.15 33.65 -3.25 33.8 -2.35 33.95 -1.45 34.05 -0.55 34.15 0.35 34.2 1.25 34.25 2.15 34.25 3.1 34.25 4.0 34.2 4.3 34.2 4.6 34.15 4.95 34.15 5.25 34.1 5.55 34.1 5.85 34.05 6.15 34.05 6.5 34.0 6.8 33.95 7.1 33.9 7.4 33.85 7.7 33.8 8.0 33.75 8.3 33.7 8.65 33.65 8.95 33.6 8.6 33.65 9.0 33.6 9.05 33.6 9.1 33.55 9.1 33.55 9.15 33.55 9.15 33.55 9.2 33.55 9.2 33.5 9.2 33.5 9.2 33.45 9.2 33.45 9.2 33.4 9.2 33.35 9.2 33.3 9.15 33.25 8.85 32.55 8.55 31.8 8.3 31.05 8.1 30.35 7.95 29.6 7.8 28.85 7.65 28.15 7.6 27.4 7.55 26.65 7.5 25.9 7.5 25.15 7.55 24.4 7.6 23.6 7.75 22.85 7.85 22.1 8.05 21.3 8.2 20.65 8.4 20.0 8.6 19.35 8.85 18.7 9.05 18.1 9.35 17.5 9.65 16.9 9.95 16.35 10.3 15.75 10.65 15.2 11.05 14.65 11.45 14.15 11.85 13.6 12.35 13.1 12.8 12.65 13.3 12.15 13.85 11.65 14.4 11.25 15.0 10.8 15.6 10.4 16.15 10.05 16.8 9.75 17.4 9.4 18.05 9.2 18.7 8.95 19.35 8.75 20.0 8.55 20.7 8.45 21.4 8.35 22.1 8.3 22.8 8.25 23.55 8.25 24.25 8.3 24.9 8.35 25.6 8.45 26.25 8.6 26.85 8.75 27.5 8.95 28.1 9.15 28.7 9.45 29.3 9.7 29.85 10.05 30.4 10.35 30.95 10.75 31.5 11.1 32.0 11.55 32.55 12.0 33.0 12.5 33.6 13.15 34.15 13.8 34.7 14.45 35.15 15.2 35.6 15.9 36.0 16.65 36.4 17.35 36.7 18.15 36.95 18.9 37.2 19.7 37.4 20.5 37.55 21.35 37.7 22.15 37.8 23.0 37.9 23.85 37.9 24.75 37.9 24.85 37.9 24.9 37.9 24.95 37.9 25.0 37.95 25.05 37.95 25.05 37.95 25.1 38.0 25.1 38.0 25.1 38.05 25.1 38.05 25.1 38.1 25.1 38.15 25.1 38.2 25.1 38.25 25.1 38.3 25.05 38.9 24.85 39.5 24.55 40.05 24.3 40.6 24.0 41.1 23.7 41.6 23.35 42.1 22.95 42.55 22.55 43.0 22.15 43.4 21.75 43.8 21.3 44.2 20.8 44.55 20.3 44.9 19.75 45.2 19.25 45.5 18.65 45.8 18.1 46.0 17.5 46.25 16.95 46.4 16.4 46.55 15.8 46.65 15.25 46.7 14.65 46.75 14.1 46.75 13.5 46.7 12.95 46.65 12.35 46.55 11.8 46.4 11.2 46.2 10.6 46.0 10.05 45.7 9.45 45.5 9.05 45.3 8.7 45.05 8.35 44.8 8.0 44.6 7.65 44.3 7.3 44.05 7.0 43.75 6.7 43.45 6.4 43.1 6.1 42.8 5.85 42.45 5.6 42.15 5.35 41.8 5.05 41.45 4.85 41.05 4.6 40.7 4.35 40.35 4.2 40.0 4.0 39.6 3.85 39.25 3.7 38.85 3.55 38.5 3.45 38.1 3.35 37.7 3.3 37.3 3.25 36.9 3.2 36.5 3.2 36.1 3.2 35.7 3.2 35.3 3.25 34.9 3.3 34.8 3.3 34.65 3.35 34.55 3.35 34.45 3.3 34.35 3.3 34.3 3.3 34.2 3.25 34.1 3.2 34.05 3.2 34.0 3.15 33.9 3.05 33.85 3.0 33.8 2.95 33.8 2.85 33.75 2.75 33.7 2.65 33.7 2.55 33.7 2.45 33.7 2.4 33.7 2.3 33.75 2.2 33.75 2.15 33.8 2.05 33.85 2.0 33.9 1.95 34.0 1.9 34.05 1.85 34.15 1.8 34.25 1.75 34.35 1.7 34.45 1.65 34.55 1.65 34.7 1.6 34.8 1.6 34.95 1.55 35.05 1.55 35.2 1.55 35.35 1.5 35.45 1.5 35.6 1.5 35.7 1.5 35.85 1.45 36.0 1.45 36.1 1.45 36.25 1.5 36.4 1.5 36.5 1.5 36.65 1.5 36.7 1.5 36.8 1.5 36.85 1.5 36.9 1.5 36.95 1.5 36.95 1.5 37.0 1.45 37.0 1.45 37.05 1.4 37.05 1.35 37.05 1.35 37.1 1.3 37.1 1.25 37.1 1.2 37.1 1.15 37.1 1.05 37.1 0.6 37.1 0.1 37.1 -0.35 37.1 -0.8 37.1 -1.3 37.05 -1.75 37.05 -2.25 37.0 -2.7 36.95 -3.15 36.9 -3.6 36.85 -4.1 36.8 -4.55 36.7 -5.0 36.65 -5.5 36.55 -5.95 36.45 -6.4 36.2 -7.65 35.85 -8.85 35.5 -10.05 35.1 -11.2 34.65 -12.35 34.15 -13.45 33.65 -14.55 33.05 -15.6 32.45 -16.65 31.8 -17.7 31.1 -18.7 30.35 -19.65 29.6 -20.6 28.75 -21.5 27.9 -22.45 27.0 -23.3 25.85 -24.4 24.6 -25.35 23.4 -26.25 22.1 -27.1 20.8 -27.9 19.45 -28.55 18.15 -29.25 16.75 -29.8 15.35 -30.35 13.9 -30.75 12.5 -31.15 11.0 -31.45 9.5 -31.75 7.95 -31.9 6.45 -32.05 4.85 -32.1 L4.85 -32.1 M9.2 25.25 Q9.2 25.4 9.2 25.6 9.2 25.75 9.2 25.95 9.2 26.1 9.25 26.25 9.25 26.45 9.25 26.6 9.25 26.8 9.25 26.95 9.3 27.1 9.3 27.3 9.3 27.45 9.35 27.6 9.35 27.8 9.4 27.95 9.5 28.6 9.6 29.2 9.75 29.8 9.9 30.4 10.05 30.95 10.3 31.55 10.5 32.1 10.75 32.65 11.0 33.2 11.3 33.7 11.6 34.25 11.95 34.75 12.3 35.25 12.7 35.75 13.05 36.2 13.5 36.7 14.3 37.5 15.2 38.15 16.05 38.8 17.05 39.3 18.0 39.75 19.05 40.05 20.05 40.35 21.1 40.45 22.15 40.6 23.25 40.5 24.3 40.45 25.35 40.15 26.4 39.9 27.4 39.45 28.4 39.0 29.35 38.35 30.15 37.8 30.85 37.15 31.55 36.55 32.15 35.9 32.75 35.2 33.25 34.45 33.75 33.75 34.2 32.95 34.6 32.2 34.95 31.35 35.25 30.55 35.5 29.65 35.75 28.8 35.95 27.85 36.1 26.95 36.2 26.0 36.2 25.8 36.25 25.65 36.25 25.45 36.25 25.25 36.25 25.1 36.25 24.9 36.25 24.7 36.25 24.55 36.2 24.35 36.2 24.15 36.2 24.0 36.2 23.8 36.15 23.65 36.15 23.45 36.15 23.25 36.1 23.1 36.05 22.45 35.95 21.85 35.8 21.25 35.7 20.65 35.55 20.05 35.35 19.45 35.15 18.85 34.9 18.3 34.7 17.75 34.4 17.2 34.1 16.7 33.8 16.15 33.45 15.65 33.1 15.15 32.7 14.65 32.25 14.2 31.8 13.7 31.3 13.2 30.8 12.75 30.3 12.35 29.75 11.95 29.2 11.65 28.65 11.3 28.1 11.05 27.5 10.75 26.9 10.55 26.3 10.35 25.65 10.2 25.0 10.1 24.35 10.0 23.65 9.95 22.95 9.95 22.35 9.95 21.75 10.0 21.2 10.05 20.6 10.2 20.05 10.3 19.5 10.45 18.95 10.65 18.45 10.85 17.9 11.05 17.4 11.3 16.9 11.6 16.4 11.9 15.95 12.2 15.45 12.55 15.0 12.95 14.55 13.35 13.9 13.95 13.3 14.6 12.75 15.2 12.25 15.9 11.8 16.55 11.4 17.3 11.0 18.0 10.65 18.75 10.35 19.5 10.1 20.25 9.85 21.05 9.65 21.85 9.5 22.65 9.35 23.5 9.25 24.35 9.2 25.25 L9.2 25.25 M-43.05 19.2 Q-43.05 20.25 -43.0 20.6 -42.9 21.4 -42.8 22.2 -42.65 22.95 -42.45 23.75 -42.25 24.5 -42.0 25.2 -41.75 25.95 -41.45 26.65 -41.15 27.35 -40.8 28.05 -40.45 28.7 -40.0 29.35 -39.6 30.0 -39.1 30.65 -38.6 31.25 -38.05 31.85 -37.65 32.35 -37.2 32.75 -36.75 33.2 -36.3 33.6 -35.8 34.0 -35.35 34.35 -34.85 34.7 -34.3 35.0 -33.8 35.3 -33.25 35.6 -32.7 35.85 -32.15 36.05 -31.55 36.25 -30.95 36.4 -30.35 36.55 -29.7 36.65 -29.05 36.75 -28.45 36.8 -27.8 36.8 -27.2 36.75 -26.6 36.7 -26.0 36.6 -25.45 36.45 -24.9 36.25 -24.35 36.05 -23.8 35.8 -23.3 35.55 -22.8 35.2 -22.3 34.85 -21.85 34.4 -21.4 34.0 -20.95 33.45 -20.6 33.05 -20.3 32.6 -19.95 32.15 -19.7 31.7 -19.45 31.25 -19.25 30.8 -19.0 30.3 -18.85 29.85 -18.65 29.35 -18.55 28.85 -18.4 28.35 -18.3 27.8 -18.25 27.3 -18.15 26.75 -18.1 26.25 -18.1 25.7 -18.05 24.8 -18.1 23.9 -18.15 23.0 -18.3 22.1 -18.45 21.25 -18.65 20.4 -18.85 19.55 -19.15 18.75 -19.45 17.95 -19.8 17.15 -20.15 16.35 -20.6 15.6 -21.05 14.85 -21.55 14.1 -22.1 13.4 -22.65 12.65 -23.05 12.2 -23.45 11.75 -23.85 11.35 -24.3 10.95 -24.75 10.55 -25.2 10.2 -25.65 9.8 -26.15 9.5 -26.65 9.2 -27.15 8.9 -27.65 8.6 -28.2 8.4 -28.75 8.15 -29.3 7.95 -29.85 7.75 -30.45 7.6 -31.25 7.4 -32.1 7.35 -32.9 7.25 -33.65 7.3 -34.45 7.35 -35.2 7.55 -35.9 7.7 -36.6 8.0 -37.3 8.3 -37.95 8.7 -38.6 9.1 -39.2 9.6 -39.75 10.1 -40.3 10.75 -40.8 11.35 -41.25 12.1 -41.5 12.5 -41.7 12.9 -41.9 13.35 -42.1 13.75 -42.25 14.2 -42.4 14.65 -42.55 15.05 -42.65 15.5 -42.75 15.95 -42.85 16.4 -42.9 16.85 -42.95 17.35 -43.0 17.8 -43.05 18.25 -43.05 18.7 -43.05 19.2 L-43.05 19.2 M-39.75 7.9 Q-39.35 7.6 -38.9 7.3 -38.45 7.05 -38.05 6.8 -37.6 6.55 -37.15 6.4 -36.7 6.2 -36.2 6.05 -35.75 5.95 -35.3 5.85 -34.8 5.75 -34.35 5.7 -33.85 5.65 -33.35 5.65 -32.85 5.65 -32.35 5.65 -32.3 5.65 -32.25 5.65 -32.15 5.65 -32.15 5.65 -32.1 5.65 -32.05 5.65 -32.05 5.6 -32.0 5.6 -32.0 5.55 -32.0 5.55 -31.95 5.5 -31.95 5.45 -31.95 5.45 -31.95 5.4 -31.95 5.35 -32.0 5.25 -32.0 5.0 -32.05 4.75 -32.05 4.5 -32.05 4.25 -32.1 4.0 -32.1 3.75 -32.1 3.5 -32.1 3.25 -32.1 3.0 -32.1 2.75 -32.15 2.5 -32.15 2.25 -32.15 2.0 -32.1 1.75 -32.1 1.5 -32.1 1.25 -32.1 1.1 -32.1 1.05 -32.1 0.9 -32.1 0.85 -32.1 0.8 -32.1 0.75 -32.15 0.7 -32.15 0.65 -32.2 0.65 -32.25 0.65 -32.3 0.65 -32.35 0.65 -32.4 0.65 -32.5 0.65 -32.6 0.7 -32.75 0.7 -33.15 0.8 -33.5 0.9 -33.9 1.0 -34.25 1.15 -34.65 1.25 -35.0 1.4 -35.35 1.55 -35.7 1.75 -36.05 1.9 -36.35 2.1 -36.7 2.35 -37.0 2.55 -37.35 2.8 -37.65 3.05 -37.95 3.35 -38.2 3.65 -38.4 3.85 -38.55 4.1 -38.75 4.35 -38.9 4.55 -39.05 4.8 -39.15 5.05 -39.3 5.3 -39.4 5.6 -39.45 5.85 -39.55 6.1 -39.6 6.4 -39.65 6.7 -39.7 6.95 -39.75 7.25 -39.75 7.55 -39.75 7.9 L-39.75 7.9" fill="#040404" fill-rule="evenodd" stroke="none"/>
    <path d="M-4.45 -17.0 Q-4.45 -16.7 -4.5 -16.35 -4.55 -16.05 -4.6 -15.7 -4.65 -15.4 -4.7 -15.1 -4.75 -14.8 -4.85 -14.45 -4.95 -14.15 -5.0 -13.85 -5.1 -13.55 -5.2 -13.25 -5.3 -12.95 -5.4 -12.65 -5.5 -12.35 -5.6 -12.0 -5.7 -11.65 -5.8 -11.35 -5.9 -11.0 -6.0 -10.65 -6.1 -10.35 -6.2 -10.0 -6.25 -9.65 -6.35 -9.35 -6.4 -9.0 -6.5 -8.65 -6.55 -8.3 -6.65 -7.95 -6.7 -7.65 -6.75 -7.3 -6.8 -6.95 -6.85 -6.6 -6.9 -6.3 -6.95 -6.05 -7.0 -5.8 -7.05 -5.55 -7.1 -5.25 -7.15 -5.0 -7.2 -4.7 -7.25 -4.45 -7.35 -4.2 -7.4 -3.95 -7.45 -3.65 -7.55 -3.4 -7.65 -3.15 -7.7 -2.9 -7.8 -2.65 -7.9 -2.4 -8.0 -2.15 -8.15 -1.9 -8.3 -1.65 -8.45 -1.45 -8.6 -1.25 -8.8 -1.05 -9.0 -0.9 -9.2 -0.75 -9.4 -0.6 -9.65 -0.5 -9.85 -0.35 -10.1 -0.3 -10.35 -0.2 -10.65 -0.15 -10.9 -0.1 -11.15 -0.05 -11.4 0.0 -11.7 -0.05 -11.95 -0.05 -12.15 -0.1 -12.4 -0.15 -12.6 -0.25 -12.8 -0.35 -13.0 -0.5 -13.2 -0.6 -13.35 -0.75 -13.55 -0.9 -13.7 -1.1 -13.85 -1.3 -14.0 -1.5 -14.1 -1.7 -14.25 -1.9 -14.35 -2.1 -14.45 -2.35 -14.55 -2.55 -14.65 -2.8 -14.75 -3.05 -14.8 -3.25 -14.85 -3.5 -14.9 -3.75 -14.95 -4.0 -15.0 -4.2 -15.05 -4.45 -15.05 -4.7 -15.1 -4.95 -15.1 -5.2 -15.1 -5.45 -15.1 -5.7 -15.1 -7.05 -14.45 -10.3 -14.4 -10.65 -14.3 -11.0 -14.25 -11.4 -14.15 -11.75 -14.05 -12.1 -14.0 -12.45 -13.9 -12.8 -13.8 -13.15 -13.7 -13.5 -13.6 -13.85 -13.45 -14.2 -13.35 -14.55 -13.25 -14.9 -13.1 -15.25 -12.95 -15.6 -12.8 -15.95 -12.65 -16.25 -12.5 -16.55 -12.35 -16.85 -12.2 -17.1 -12.05 -17.4 -11.85 -17.65 -11.65 -17.95 -11.45 -18.2 -11.25 -18.45 -11.05 -18.65 -10.8 -18.9 -10.55 -19.15 -10.3 -19.35 -10.05 -19.55 -9.8 -19.75 -9.5 -19.95 -9.35 -20.05 -9.15 -20.15 -9.0 -20.25 -8.8 -20.3 -8.65 -20.4 -8.45 -20.45 -8.25 -20.5 -8.1 -20.55 -7.9 -20.55 -7.7 -20.55 -7.55 -20.6 -7.35 -20.55 -7.15 -20.55 -6.95 -20.5 -6.75 -20.5 -6.55 -20.45 -6.35 -20.4 -6.1 -20.3 -5.9 -20.15 -5.7 -20.05 -5.55 -19.9 -5.35 -19.75 -5.2 -19.55 -5.05 -19.35 -4.95 -19.15 -4.8 -18.95 -4.7 -18.75 -4.65 -18.5 -4.55 -18.3 -4.5 -18.05 -4.45 -17.8 -4.45 -17.55 -4.45 -17.35 -4.45 -17.0 L-4.45 -17.0 M-5.4 -17.25 Q-5.4 -17.3 -5.4 -17.55 -5.4 -17.75 -5.45 -17.9 -5.5 -18.1 -5.55 -18.25 -5.6 -18.4 -5.7 -18.55 -5.75 -18.7 -5.85 -18.85 -6.0 -19.0 -6.1 -19.1 -6.2 -19.2 -6.35 -19.3 -6.5 -19.4 -6.65 -19.45 -6.8 -19.5 -6.95 -19.55 -7.1 -19.6 -7.2 -19.6 -7.35 -19.6 -7.5 -19.6 -7.65 -19.6 -7.75 -19.6 -7.9 -19.6 -8.0 -19.55 -8.15 -19.55 -8.25 -19.5 -8.4 -19.45 -8.5 -19.4 -8.65 -19.35 -8.75 -19.3 -8.9 -19.2 -9.0 -19.15 -9.3 -18.9 -9.6 -18.7 -9.9 -18.45 -10.15 -18.15 -10.4 -17.9 -10.65 -17.6 -10.85 -17.35 -11.05 -17.05 -11.25 -16.7 -11.4 -16.4 -11.55 -16.05 -11.7 -15.75 -11.8 -15.4 -11.9 -15.0 -12.0 -14.65 -12.05 -14.25 -12.05 -14.1 -12.1 -14.05 -12.1 -13.9 -12.1 -13.8 -12.15 -13.7 -12.15 -13.6 -12.15 -13.5 -12.15 -13.4 -12.15 -13.25 -12.15 -13.15 -12.15 -13.05 -12.15 -12.95 -12.15 -12.8 -12.15 -12.7 -12.1 -12.6 -12.1 -12.5 -12.0 -12.15 -11.8 -11.85 -11.6 -11.6 -11.3 -11.35 -11.05 -11.1 -10.7 -10.95 -10.35 -10.8 -10.0 -10.7 -9.65 -10.65 -9.25 -10.6 -8.9 -10.6 -8.55 -10.7 -8.15 -10.8 -7.85 -10.95 -7.55 -11.15 -7.3 -11.4 -7.2 -11.5 -7.15 -11.55 -7.1 -11.65 -7.0 -11.75 -6.95 -11.85 -6.85 -11.9 -6.8 -12.0 -6.75 -12.1 -6.7 -12.2 -6.65 -12.3 -6.55 -12.4 -6.5 -12.5 -6.45 -12.6 -6.45 -12.7 -6.4 -12.8 -6.35 -12.9 -6.25 -13.15 -6.2 -13.45 -6.1 -13.7 -6.0 -13.95 -5.95 -14.25 -5.85 -14.5 -5.8 -14.75 -5.75 -15.05 -5.65 -15.3 -5.6 -15.6 -5.55 -15.85 -5.55 -16.15 -5.5 -16.4 -5.45 -16.7 -5.45 -16.95 -5.4 -17.25 L-5.4 -17.25 M-8.95 -3.3 Q-8.95 -3.35 -8.95 -3.35 -8.95 -3.4 -8.95 -3.45 -8.95 -3.5 -8.95 -3.55 -8.95 -3.55 -8.95 -3.6 -8.95 -3.65 -8.95 -3.7 -8.95 -3.75 -9.0 -3.8 -9.0 -3.85 -9.0 -3.85 -9.05 -3.9 -9.05 -3.95 -9.1 -4.1 -9.2 -4.25 -9.3 -4.4 -9.4 -4.5 -9.5 -4.65 -9.6 -4.75 -9.7 -4.85 -9.85 -4.9 -9.95 -5.0 -10.1 -5.05 -10.25 -5.15 -10.4 -5.15 -10.55 -5.2 -10.7 -5.25 -10.85 -5.3 -11.0 -5.3 -11.15 -5.3 -11.35 -5.3 -11.5 -5.3 -11.65 -5.25 -11.8 -5.25 -11.95 -5.2 -12.1 -5.15 -12.25 -5.1 -12.35 -5.05 -12.5 -4.95 -12.6 -4.85 -12.75 -4.75 -12.85 -4.65 -12.95 -4.55 -13.1 -4.4 -13.2 -4.3 -13.35 -4.1 -13.4 -3.9 -13.5 -3.7 -13.55 -3.5 -13.6 -3.3 -13.6 -3.1 -13.6 -2.9 -13.55 -2.75 -13.55 -2.55 -13.45 -2.4 -13.4 -2.2 -13.25 -2.05 -13.15 -1.9 -13.0 -1.75 -12.85 -1.65 -12.65 -1.55 -12.55 -1.5 -12.4 -1.45 -12.3 -1.4 -12.15 -1.35 -12.05 -1.3 -11.9 -1.3 -11.8 -1.25 -11.65 -1.25 -11.55 -1.2 -11.4 -1.2 -11.3 -1.2 -11.15 -1.2 -11.05 -1.2 -10.9 -1.2 -10.75 -1.2 -10.65 -1.25 -10.45 -1.3 -10.3 -1.35 -10.1 -1.4 -9.95 -1.5 -9.8 -1.55 -9.65 -1.65 -9.5 -1.8 -9.4 -1.9 -9.3 -2.05 -9.2 -2.2 -9.1 -2.35 -9.05 -2.55 -9.0 -2.7 -8.95 -2.9 -8.95 -3.1 -8.95 -3.3 L-8.95 -3.3" fill="#040404" fill-rule="evenodd" stroke="none"/>
    <path d="M0.2 -4.65 Q0.25 -5.35 0.25 -5.8 0.3 -6.4 0.35 -6.95 0.4 -7.55 0.45 -8.05 0.5 -8.65 0.55 -9.2 0.65 -9.8 0.75 -10.35 0.8 -10.9 0.95 -11.45 1.05 -12.05 1.2 -12.6 1.35 -13.15 1.55 -13.7 1.65 -14.0 1.8 -14.35 1.9 -14.65 2.05 -14.95 2.2 -15.25 2.35 -15.55 2.5 -15.8 2.7 -16.1 2.9 -16.35 3.1 -16.6 3.3 -16.9 3.5 -17.15 3.75 -17.35 4.0 -17.6 4.25 -17.85 4.5 -18.05 4.65 -18.15 4.75 -18.25 4.9 -18.35 5.05 -18.4 5.2 -18.5 5.35 -18.55 5.5 -18.65 5.65 -18.7 5.8 -18.75 5.95 -18.75 6.1 -18.8 6.25 -18.85 6.45 -18.85 6.6 -18.85 6.75 -18.85 6.95 -18.85 7.25 -18.85 7.5 -18.75 7.75 -18.7 8.0 -18.55 8.25 -18.45 8.45 -18.3 8.7 -18.15 8.85 -17.95 9.05 -17.8 9.2 -17.55 9.35 -17.35 9.45 -17.1 9.55 -16.85 9.65 -16.6 9.7 -16.3 9.75 -16.05 9.75 -15.75 9.8 -15.45 9.8 -15.15 9.8 -14.85 9.75 -14.55 9.75 -14.25 9.75 -13.95 9.7 -13.65 9.65 -13.35 9.6 -13.05 9.6 -12.75 9.5 -12.45 9.45 -12.15 9.4 -11.85 9.35 -11.55 9.25 -11.25 9.15 -10.8 9.05 -10.35 8.95 -9.9 8.85 -9.45 8.8 -9.0 8.7 -8.55 8.65 -8.1 8.6 -7.65 8.5 -7.2 8.45 -6.75 8.4 -6.3 8.35 -5.8 8.3 -5.4 8.3 -4.9 8.25 -4.45 8.2 -4.0 8.2 -3.8 8.15 -3.6 8.15 -3.35 8.15 -3.15 8.1 -2.95 8.1 -2.75 8.05 -2.55 8.0 -2.35 8.0 -2.1 7.95 -1.9 7.9 -1.7 7.85 -1.5 7.8 -1.3 7.75 -1.1 7.7 -0.9 7.65 -0.7 7.55 -0.4 7.45 -0.15 7.3 0.1 7.15 0.35 7.0 0.55 6.8 0.75 6.65 0.95 6.45 1.1 6.25 1.3 6.0 1.4 5.8 1.55 5.55 1.65 5.3 1.75 5.0 1.85 4.75 1.9 4.45 1.95 4.2 2.0 3.95 2.0 3.7 2.0 3.5 1.95 3.3 1.9 3.05 1.8 2.85 1.75 2.7 1.65 2.5 1.5 2.3 1.4 2.15 1.25 2.0 1.1 1.8 0.95 1.65 0.75 1.5 0.55 1.4 0.35 1.25 0.15 1.15 -0.05 1.0 -0.25 0.9 -0.5 0.8 -0.7 0.7 -0.95 0.65 -1.15 0.55 -1.4 0.5 -1.6 0.45 -1.85 0.4 -2.1 0.35 -2.35 0.3 -2.55 0.25 -2.8 0.2 -3.05 0.2 -3.3 0.2 -3.4 0.2 -4.65 L0.2 -4.65 M8.8 -15.1 Q8.8 -15.75 8.8 -15.85 8.8 -16.05 8.75 -16.25 8.7 -16.45 8.6 -16.6 8.55 -16.8 8.45 -16.95 8.35 -17.15 8.2 -17.3 8.05 -17.45 7.9 -17.55 7.75 -17.65 7.55 -17.75 7.35 -17.85 7.1 -17.85 6.85 -17.9 6.6 -17.9 6.5 -17.9 6.4 -17.9 6.3 -17.85 6.2 -17.85 6.1 -17.8 6.0 -17.8 5.9 -17.75 5.8 -17.7 5.7 -17.7 5.6 -17.65 5.5 -17.6 5.4 -17.55 5.35 -17.5 5.25 -17.4 5.15 -17.35 5.1 -17.3 4.8 -17.05 4.55 -16.8 4.25 -16.5 4.05 -16.25 3.8 -15.95 3.6 -15.65 3.4 -15.35 3.25 -15.0 3.05 -14.7 2.95 -14.35 2.8 -14.0 2.7 -13.65 2.6 -13.3 2.55 -12.95 2.5 -12.55 2.45 -12.2 2.45 -11.9 2.45 -11.95 2.45 -11.8 2.4 -11.7 2.4 -11.6 2.4 -11.5 2.4 -11.35 2.4 -11.25 2.45 -11.1 2.45 -11.0 2.45 -10.9 2.5 -10.8 2.5 -10.65 2.55 -10.55 2.55 -10.45 2.6 -10.3 2.7 -10.05 2.85 -9.85 3.0 -9.65 3.2 -9.5 3.4 -9.35 3.6 -9.2 3.85 -9.1 4.1 -9.0 4.35 -8.9 4.6 -8.85 4.85 -8.8 5.1 -8.8 5.35 -8.75 5.65 -8.8 5.9 -8.8 6.15 -8.9 6.4 -8.95 6.6 -9.05 6.75 -9.15 6.95 -9.25 7.1 -9.35 7.25 -9.5 7.4 -9.65 7.55 -9.8 7.65 -9.95 7.75 -10.15 7.85 -10.3 7.95 -10.5 8.05 -10.7 8.1 -10.9 8.2 -11.05 8.25 -11.3 8.3 -11.55 8.4 -11.75 8.45 -12.0 8.5 -12.25 8.55 -12.45 8.6 -12.7 8.65 -12.95 8.65 -13.2 8.7 -13.4 8.7 -13.65 8.75 -13.9 8.75 -14.15 8.8 -14.4 8.8 -14.65 8.8 -14.85 8.8 -15.1 L8.8 -15.1 M4.1 -3.3 Q4.0 -3.3 3.9 -3.3 3.8 -3.3 3.7 -3.25 3.6 -3.25 3.5 -3.2 3.4 -3.15 3.3 -3.1 3.2 -3.05 3.1 -3.0 3.0 -2.95 2.9 -2.9 2.8 -2.8 2.7 -2.7 2.6 -2.65 2.5 -2.55 2.3 -2.35 2.2 -2.15 2.05 -1.9 2.0 -1.65 1.9 -1.45 1.9 -1.2 1.9 -1.0 1.9 -0.75 1.95 -0.55 2.05 -0.35 2.15 -0.15 2.25 0.05 2.4 0.2 2.6 0.35 2.8 0.5 3.05 0.55 3.15 0.6 3.3 0.65 3.4 0.7 3.5 0.7 3.65 0.75 3.75 0.75 3.9 0.8 4.0 0.8 4.1 0.8 4.25 0.8 4.35 0.8 4.5 0.8 4.6 0.8 4.75 0.75 4.85 0.75 5.0 0.7 5.15 0.65 5.25 0.6 5.35 0.55 5.5 0.5 5.6 0.45 5.7 0.4 5.8 0.3 5.9 0.25 6.0 0.15 6.05 0.05 6.15 -0.05 6.25 -0.15 6.3 -0.25 6.35 -0.35 6.4 -0.45 6.45 -0.6 6.55 -0.85 6.55 -1.15 6.6 -1.4 6.55 -1.65 6.5 -1.85 6.4 -2.1 6.3 -2.3 6.15 -2.5 5.95 -2.7 5.75 -2.85 5.55 -3.0 5.3 -3.1 5.0 -3.2 4.7 -3.25 4.4 -3.3 4.1 -3.3 L4.1 -3.3" fill="#040404" fill-rule="evenodd" stroke="none"/>
    <path d="M-4.15 3.4 Q-4.35 3.4 -4.5 3.4 -4.65 3.35 -4.8 3.3 -4.95 3.3 -5.1 3.25 -5.25 3.15 -5.35 3.1 -5.5 3.0 -5.6 2.95 -5.7 2.85 -5.8 2.75 -5.9 2.6 -6.0 2.5 -6.1 2.4 -6.15 2.25 -6.2 2.2 -6.2 2.15 -6.2 2.1 -6.25 2.1 -6.25 2.05 -6.25 2.0 -6.25 1.95 -6.25 1.9 -6.25 1.9 -6.2 1.85 -6.2 1.8 -6.2 1.8 -6.15 1.75 -6.1 1.7 -6.1 1.7 -6.05 1.65 -6.0 1.6 -5.95 1.6 -5.9 1.6 -5.9 1.6 -5.85 1.55 -5.8 1.55 -5.75 1.55 -5.7 1.6 -5.7 1.6 -5.65 1.6 -5.6 1.6 -5.55 1.65 -5.55 1.7 -5.5 1.7 -5.45 1.75 -5.45 1.8 -5.3 2.0 -5.15 2.1 -5.0 2.25 -4.85 2.35 -4.65 2.45 -4.5 2.5 -4.35 2.55 -4.2 2.55 -4.05 2.55 -3.9 2.5 -3.7 2.5 -3.55 2.4 -3.4 2.3 -3.25 2.15 -3.05 2.05 -2.9 1.85 -2.85 1.8 -2.8 1.8 -2.75 1.75 -2.75 1.75 -2.7 1.7 -2.65 1.7 -2.6 1.7 -2.55 1.7 -2.5 1.65 -2.5 1.7 -2.45 1.7 -2.4 1.7 -2.35 1.7 -2.3 1.75 -2.25 1.75 -2.2 1.8 -2.15 1.85 -2.15 1.85 -2.1 1.9 -2.1 1.95 -2.1 2.0 -2.1 2.05 -2.05 2.05 -2.05 2.1 -2.05 2.15 -2.1 2.2 -2.1 2.25 -2.1 2.25 -2.15 2.3 -2.15 2.35 -2.2 2.4 -2.2 2.45 -2.3 2.55 -2.4 2.65 -2.55 2.75 -2.65 2.85 -2.75 2.95 -2.9 3.0 -3.0 3.1 -3.1 3.15 -3.25 3.2 -3.35 3.25 -3.5 3.3 -3.6 3.35 -3.75 3.35 -3.9 3.4 -4.0 3.4 -4.15 3.4 L-4.15 3.4" fill="#040404" fill-rule="evenodd" stroke="none"/>
    <path d="M14.15 29.85 Q14.15 29.25 14.2 28.7 14.25 28.15 14.35 27.6 14.45 27.05 14.6 26.5 14.75 26.0 14.9 25.5 15.1 24.95 15.35 24.45 15.55 23.95 15.85 23.5 16.1 23.0 16.45 22.5 16.75 22.05 17.1 21.6 17.35 21.3 17.55 21.05 17.8 20.8 18.05 20.55 18.3 20.3 18.6 20.05 18.85 19.85 19.15 19.65 19.4 19.4 19.7 19.25 20.0 19.05 20.3 18.85 20.65 18.7 20.95 18.55 21.3 18.4 21.65 18.3 22.15 18.1 22.65 18.0 23.15 17.9 23.6 17.8 24.1 17.75 24.55 17.75 25.05 17.75 25.5 17.8 26.0 17.9 26.45 18.0 26.9 18.15 27.35 18.35 27.8 18.55 28.25 18.8 28.65 19.1 29.1 19.45 29.4 19.7 29.7 19.95 29.95 20.25 30.2 20.5 30.45 20.8 30.65 21.1 30.85 21.4 31.0 21.75 31.2 22.05 31.35 22.4 31.5 22.75 31.6 23.1 31.75 23.45 31.85 23.85 31.9 24.2 32.0 24.6 32.15 25.35 32.2 26.05 32.25 26.75 32.2 27.45 32.2 28.15 32.1 28.85 32.0 29.5 31.8 30.2 31.65 30.85 31.35 31.5 31.1 32.1 30.8 32.75 30.5 33.35 30.1 33.95 29.7 34.55 29.25 35.15 29.0 35.45 28.8 35.7 28.55 35.95 28.3 36.2 28.05 36.45 27.75 36.7 27.5 36.9 27.2 37.1 26.95 37.35 26.65 37.5 26.35 37.7 26.05 37.9 25.7 38.05 25.4 38.2 25.05 38.35 24.7 38.45 24.3 38.6 23.9 38.7 23.45 38.85 23.05 38.9 22.65 38.95 22.25 39.0 21.8 39.0 21.4 39.0 21.0 38.95 20.6 38.9 20.2 38.85 19.8 38.7 19.4 38.6 19.05 38.4 18.65 38.25 18.25 38.0 17.9 37.8 17.55 37.55 17.2 37.3 16.9 37.0 16.6 36.75 16.35 36.45 16.1 36.15 15.85 35.8 15.6 35.45 15.4 35.1 15.2 34.75 15.05 34.4 14.9 34.0 14.75 33.6 14.6 33.2 14.5 32.8 14.45 32.6 14.4 32.45 14.35 32.25 14.35 32.1 14.3 31.9 14.25 31.7 14.25 31.55 14.2 31.35 14.2 31.15 14.2 31.0 14.15 30.8 14.15 30.6 14.15 30.45 14.15 30.25 14.15 30.05 14.15 29.85 L14.15 29.85" fill="#000000" fill-opacity="0.23137255" fill-rule="evenodd" stroke="none"/>
    <path d="M-25.45 29.3 Q-25.45 29.5 -25.45 29.7 -25.45 29.9 -25.45 30.05 -25.45 30.25 -25.5 30.45 -25.5 30.65 -25.55 30.85 -25.6 31.05 -25.65 31.2 -25.7 31.4 -25.75 31.6 -25.8 31.8 -25.85 31.95 -25.95 32.15 -26.0 32.3 -26.15 32.65 -26.35 32.9 -26.55 33.2 -26.75 33.45 -27.0 33.7 -27.25 33.95 -27.5 34.15 -27.8 34.3 -28.1 34.5 -28.45 34.6 -28.75 34.7 -29.1 34.8 -29.45 34.85 -29.8 34.85 -30.15 34.85 -30.5 34.8 -30.85 34.75 -31.15 34.7 -31.5 34.6 -31.8 34.5 -32.1 34.4 -32.4 34.3 -32.7 34.2 -33.0 34.05 -33.25 33.9 -33.55 33.75 -33.8 33.6 -34.1 33.4 -34.35 33.25 -34.65 33.05 -34.9 32.85 -35.15 32.65 -35.55 32.35 -35.9 32.0 -36.25 31.7 -36.6 31.35 -36.95 31.0 -37.25 30.6 -37.6 30.25 -37.9 29.85 -38.2 29.5 -38.45 29.1 -38.75 28.7 -39.0 28.25 -39.25 27.85 -39.5 27.4 -39.7 27.0 -39.95 26.55 -40.1 26.25 -40.25 25.95 -40.4 25.6 -40.5 25.3 -40.65 25.0 -40.75 24.65 -40.85 24.35 -40.95 24.05 -41.05 23.7 -41.15 23.4 -41.25 23.05 -41.3 22.7 -41.35 22.4 -41.4 22.05 -41.45 21.7 -41.5 21.4 -41.5 21.1 -41.55 20.85 -41.55 20.6 -41.55 20.35 -41.55 20.05 -41.55 19.8 -41.55 19.55 -41.55 19.3 -41.5 19.0 -41.45 18.75 -41.4 18.5 -41.35 18.25 -41.3 18.0 -41.2 17.75 -41.15 17.5 -41.0 17.25 -40.9 16.95 -40.75 16.7 -40.55 16.45 -40.4 16.2 -40.2 15.95 -40.0 15.75 -39.8 15.55 -39.6 15.35 -39.35 15.2 -39.1 15.05 -38.85 14.9 -38.55 14.8 -38.25 14.7 -37.95 14.65 -37.65 14.6 -37.3 14.6 -37.05 14.6 -36.75 14.6 -36.5 14.6 -36.25 14.65 -35.95 14.7 -35.7 14.75 -35.45 14.8 -35.2 14.9 -34.95 14.95 -34.7 15.05 -34.5 15.15 -34.25 15.25 -34.0 15.4 -33.75 15.5 -33.55 15.6 -33.3 15.75 -33.1 15.85 -32.9 16.0 -32.7 16.15 -32.5 16.25 -32.3 16.4 -32.15 16.55 -31.95 16.7 -31.75 16.8 -31.55 16.95 -31.4 17.1 -31.2 17.3 -31.05 17.45 -30.85 17.6 -30.7 17.75 -30.55 17.95 -30.4 18.1 -30.2 18.35 -29.95 18.55 -29.75 18.8 -29.55 19.05 -29.35 19.3 -29.15 19.55 -28.95 19.8 -28.75 20.05 -28.6 20.3 -28.4 20.55 -28.2 20.8 -28.05 21.05 -27.9 21.35 -27.75 21.6 -27.55 21.9 -27.45 22.15 -27.3 22.4 -27.2 22.7 -27.05 22.95 -26.9 23.2 -26.8 23.5 -26.7 23.75 -26.55 24.0 -26.45 24.3 -26.35 24.55 -26.25 24.85 -26.15 25.1 -26.05 25.4 -25.95 25.65 -25.9 25.95 -25.8 26.25 -25.75 26.5 -25.7 26.7 -25.7 26.85 -25.65 27.05 -25.6 27.2 -25.6 27.35 -25.55 27.55 -25.55 27.7 -25.5 27.9 -25.5 28.05 -25.5 28.25 -25.45 28.4 -25.45 28.6 -25.45 28.75 -25.45 28.95 -25.45 29.1 -25.45 29.3 L-25.45 29.3" fill="#000000" fill-opacity="0.23137255" fill-rule="evenodd" stroke="none"/>
  </g>
</svg>
