<?xml version="1.0" encoding="UTF-8" standalone="no"?>
<svg xmlns:xlink="http://www.w3.org/1999/xlink" height="200.0px" width="200.0px" xmlns="http://www.w3.org/2000/svg">
  <g transform="matrix(1.0, 0.0, 0.0, 1.0, 100.0, 100.0)">
    <path d="M-5.7 34.0 Q-5.9 35.9 -6.15 37.7 -6.4 39.6 -6.75 41.35 -7.1 43.2 -7.55 44.95 -8.0 46.8 -8.6 48.5 -9.15 50.3 -9.85 51.95 -10.55 53.7 -11.35 55.35 -12.2 57.0 -13.15 58.6 -14.15 60.25 -15.25 61.8 -15.45 62.05 -15.65 62.35 -15.9 62.6 -16.1 62.9 -16.35 63.15 -16.6 63.4 -16.8 63.65 -17.05 63.9 -17.3 64.15 -17.55 64.4 -17.75 64.65 -18.05 64.9 -18.25 65.15 -18.55 65.4 -18.75 65.6 -19.05 65.9 -19.25 66.1 -19.45 66.25 -19.65 66.4 -19.85 66.5 -20.05 66.6 -20.3 66.7 -20.5 66.8 -20.75 66.85 -21.0 66.9 -21.25 66.95 -21.5 66.95 -21.75 66.95 -22.0 66.95 -22.25 66.9 -22.5 66.9 -22.8 66.8 -24.3 66.4 -25.75 66.0 -27.2 65.5 -28.55 65.0 -30.0 64.45 -31.3 63.85 -32.65 63.2 -33.9 62.45 -35.2 61.75 -36.35 60.9 -37.6 60.0 -38.7 59.05 -39.85 58.05 -40.85 56.95 -41.9 55.85 -42.85 54.6 -43.3 54.0 -43.7 53.35 -44.1 52.7 -44.4 52.05 -44.75 51.4 -45.0 50.7 -45.25 50.05 -45.45 49.35 -45.65 48.65 -45.8 47.95 -45.95 47.25 -46.0 46.5 -46.1 45.75 -46.15 45.0 -46.2 44.3 -46.15 43.5 -46.15 43.25 -46.1 43.0 -46.1 42.8 -46.05 42.55 -46.0 42.35 -45.9 42.15 -45.85 41.95 -45.75 41.75 -45.65 41.55 -45.5 41.4 -45.35 41.2 -45.2 41.05 -45.05 40.9 -44.85 40.75 -44.65 40.6 -44.4 40.5 -43.35 39.9 -43.1 39.8 -41.9 39.3 -40.75 38.65 -39.65 38.05 -38.7 37.35 -37.7 36.6 -36.85 35.8 -35.95 34.95 -35.2 34.05 -34.45 33.15 -33.75 32.1 -33.1 31.15 -32.5 30.05 -31.9 29.0 -31.4 27.85 -30.85 26.75 -30.4 25.55 -30.0 24.4 -29.6 23.25 -29.25 22.15 -28.95 20.95 -28.65 19.8 -28.4 18.65 -28.2 17.45 -28.0 16.3 -27.85 15.1 -27.7 13.9 -27.6 12.75 -27.5 11.55 -27.4 10.35 -27.4 9.15 -27.35 7.95 -27.35 6.75 -27.4 4.4 -27.35 3.55 -27.35 3.25 -27.25 3.0 -27.2 2.75 -27.1 2.5 -26.95 2.3 -26.8 2.1 -26.65 1.9 -26.45 1.75 -26.3 1.6 -26.05 1.5 -25.85 1.4 -25.6 1.35 -25.35 1.3 -25.1 1.3 -24.85 1.35 -24.6 1.45 -24.35 1.55 -24.1 1.6 -23.8 1.7 -23.55 1.8 -23.3 1.9 -23.05 2.05 -22.8 2.15 -22.55 2.3 -22.3 2.4 -22.05 2.55 -21.8 2.7 -21.6 2.85 -21.35 3.0 -21.15 3.15 -20.9 3.3 -20.7 3.45 -19.25 4.7 -17.9 6.0 -16.55 7.3 -15.4 8.75 -14.2 10.15 -13.15 11.6 -12.1 13.1 -11.2 14.7 -10.3 16.25 -9.55 17.9 -8.8 19.55 -8.2 21.3 -7.55 23.0 -7.1 24.85 -6.65 26.65 -6.3 28.55 -6.25 28.85 -5.7 34.0 L-5.7 34.0 M-22.75 7.6 Q-22.75 7.8 -22.8 8.25 -22.8 8.55 -22.8 8.65 -22.85 10.05 -22.95 11.3 -23.0 12.65 -23.15 13.95 -23.3 15.3 -23.45 16.6 -23.65 17.9 -23.9 19.2 -24.15 20.5 -24.45 21.75 -24.75 23.05 -25.15 24.3 -25.55 25.6 -26.0 26.8 -26.45 28.05 -27.0 29.3 -27.6 30.6 -28.2 31.75 -28.85 32.95 -29.55 34.05 -30.3 35.15 -31.05 36.2 -31.9 37.25 -32.75 38.15 -33.65 39.15 -34.6 39.95 -35.65 40.8 -36.7 41.55 -37.8 42.3 -39.0 42.9 -40.25 43.55 -41.55 44.05 -41.6 44.05 -41.65 44.1 -41.75 44.15 -41.8 44.2 -41.85 44.25 -41.9 44.35 -41.95 44.4 -42.0 44.5 -42.05 44.6 -42.05 44.65 -42.1 44.75 -42.15 44.85 -42.15 44.95 -42.15 45.0 -42.2 45.1 -42.15 45.15 -42.1 45.95 -42.0 46.7 -41.85 47.4 -41.65 48.15 -41.45 48.8 -41.2 49.5 -40.9 50.15 -40.55 50.8 -40.2 51.4 -39.8 52.0 -39.4 52.6 -38.9 53.2 -38.45 53.75 -37.95 54.3 -37.45 54.8 -36.85 55.35 -36.2 55.95 -35.45 56.55 -34.75 57.15 -34.0 57.65 -33.25 58.15 -32.5 58.65 -31.75 59.1 -30.95 59.55 -30.15 60.0 -29.3 60.35 -28.5 60.75 -27.65 61.1 -26.8 61.4 -25.95 61.75 -25.1 62.0 -24.2 62.3 -23.7 62.45 -23.4 62.5 -23.0 62.6 -22.7 62.65 -22.35 62.7 -22.1 62.65 -21.85 62.65 -21.6 62.55 -21.35 62.5 -21.15 62.3 -20.95 62.2 -20.7 61.95 -20.5 61.75 -20.25 61.4 -20.05 61.1 -19.75 60.7 -19.2 59.85 -18.65 59.0 -18.15 58.15 -17.65 57.3 -17.15 56.4 -16.65 55.55 -16.2 54.65 -15.75 53.75 -15.3 52.85 -14.9 51.95 -14.45 51.05 -14.1 50.1 -13.7 49.2 -13.35 48.25 -13.0 47.3 -12.7 46.35 -12.2 44.75 -11.8 43.25 -11.4 41.7 -11.1 40.2 -10.85 38.6 -10.7 37.1 -10.55 35.55 -10.5 34.05 -10.5 32.5 -10.6 31.0 -10.75 29.45 -11.05 27.9 -11.3 26.35 -11.75 24.85 -12.25 23.3 -12.85 21.8 -13.25 20.8 -13.75 19.8 -14.2 18.85 -14.7 17.9 -15.2 16.95 -15.8 16.05 -16.35 15.15 -16.95 14.25 -17.55 13.35 -18.25 12.5 -18.9 11.65 -19.65 10.85 -20.35 10.0 -21.15 9.2 -21.9 8.4 -22.75 7.6 L-22.75 7.6" fill="#000000" fill-rule="evenodd" stroke="none"/>
    <path d="M36.75 11.3 Q37.6 11.75 38.3 12.3 39.0 12.8 39.65 13.4 40.25 14.0 40.8 14.7 41.3 15.35 41.75 16.05 42.2 16.75 42.6 17.55 43.0 18.3 43.35 19.1 43.7 19.85 44.0 20.75 44.3 21.45 44.65 22.4 45.0 22.05 45.3 21.65 45.6 21.25 45.85 20.8 46.1 20.4 46.3 19.95 46.5 19.55 46.65 19.05 46.8 18.65 47.0 18.15 47.8 15.7 47.3 17.2 47.45 16.65 47.6 16.25 47.8 15.75 48.0 15.35 48.1 15.45 48.45 15.9 48.7 16.15 48.85 16.35 49.25 16.95 49.65 17.55 50.05 18.2 50.45 18.8 50.8 19.45 51.15 20.05 51.5 20.7 51.85 21.35 52.2 22.0 52.5 22.65 52.8 23.3 53.05 24.0 53.35 24.65 53.6 25.35 53.85 26.05 54.05 26.75 54.25 27.35 54.4 27.95 54.5 28.55 54.6 29.2 54.65 29.8 54.7 30.4 54.7 31.0 54.7 31.65 54.7 32.2 54.65 32.85 54.6 33.45 54.5 34.1 54.45 34.65 54.35 35.3 54.3 35.8 54.2 36.55 54.0 37.8 53.75 39.05 53.5 40.25 53.15 41.45 52.8 42.65 52.4 43.75 51.95 44.9 51.45 46.0 50.9 47.1 50.3 48.15 49.7 49.25 49.0 50.25 48.3 51.25 47.5 52.2 46.65 53.15 45.75 54.05 45.55 54.25 45.3 54.5 45.05 54.7 44.85 54.95 44.6 55.15 44.35 55.35 44.15 55.55 43.9 55.75 43.65 55.95 43.4 56.15 43.15 56.35 42.9 56.55 42.65 56.75 42.4 56.95 42.15 57.15 41.9 57.3 41.8 57.35 41.65 57.45 41.55 57.5 41.4 57.55 41.25 57.6 41.1 57.65 41.0 57.65 40.85 57.7 40.7 57.7 40.55 57.7 40.4 57.75 40.25 57.7 40.1 57.7 39.95 57.7 39.8 57.7 39.65 57.65 37.65 57.2 35.85 56.55 34.1 55.85 32.55 54.95 31.0 54.05 29.7 52.95 28.4 51.8 27.3 50.5 26.2 49.2 25.3 47.7 24.4 46.2 23.7 44.5 23.05 42.9 22.55 41.05 22.05 39.25 21.75 37.35 21.65 36.85 21.65 36.45 21.6 36.0 21.65 35.65 21.7 35.3 21.75 35.0 21.85 34.7 22.05 34.45 22.2 34.2 22.4 33.95 22.65 33.75 22.95 33.55 23.25 33.35 23.65 33.15 24.05 32.95 24.55 32.75 24.95 32.6 25.35 32.4 25.75 32.2 26.15 31.95 26.5 31.75 26.85 31.45 27.2 31.2 27.55 30.95 27.9 30.65 28.25 30.35 28.55 30.05 28.85 29.75 29.15 29.45 29.45 29.1 29.75 28.75 30.05 28.4 30.8 27.5 31.5 26.6 32.2 25.65 32.8 24.7 33.35 23.75 33.9 22.75 34.4 21.75 34.8 20.75 35.2 19.7 35.55 18.65 35.85 17.55 36.1 16.45 36.35 15.35 36.5 14.2 36.65 13.05 36.7 11.9 36.7 11.8 36.75 11.3 L36.75 11.3 M25.75 37.3 Q26.0 38.45 26.25 39.5 26.55 40.6 26.9 41.65 27.25 42.7 27.65 43.65 28.1 44.65 28.65 45.55 29.15 46.5 29.8 47.3 30.45 48.15 31.2 48.9 32.0 49.7 32.85 50.35 33.8 51.05 34.8 51.6 36.35 52.4 36.35 52.45 37.1 52.85 37.55 53.05 38.1 53.25 38.5 53.35 38.9 53.45 39.25 53.4 39.65 53.35 40.0 53.15 40.35 52.95 40.8 52.55 41.2 52.25 41.75 51.65 42.05 51.3 42.95 50.35 44.15 49.05 45.15 47.65 46.15 46.3 46.9 44.85 47.7 43.4 48.25 41.9 48.8 40.4 49.2 38.85 49.6 37.3 49.8 35.65 50.0 34.1 50.0 32.4 50.05 30.8 49.95 29.1 49.8 27.4 49.55 25.7 49.55 25.6 48.85 23.55 46.75 27.55 46.3 28.15 46.2 28.3 46.15 28.45 46.05 28.6 46.0 28.75 45.95 28.85 45.9 29.0 45.9 29.15 45.9 29.25 45.9 29.4 45.9 29.55 45.9 29.65 45.95 29.8 46.0 29.95 46.05 30.1 46.1 30.25 46.2 30.4 46.55 31.1 46.65 31.3 46.85 31.7 46.95 32.0 47.05 32.3 47.1 32.5 47.1 32.75 47.05 32.95 47.0 33.15 46.85 33.35 46.75 33.55 46.5 33.8 46.35 34.0 45.95 34.35 45.2 35.1 45.25 35.1 45.2 35.1 44.85 35.4 44.65 35.55 44.45 35.75 44.25 35.9 44.1 36.1 43.9 36.3 43.8 36.5 43.65 36.7 43.55 36.9 43.45 37.1 43.4 37.35 43.35 37.55 43.3 37.8 43.3 38.05 43.3 38.3 43.3 38.55 43.35 38.8 43.35 39.0 43.4 39.15 43.4 39.3 43.35 39.45 43.35 39.6 43.3 39.7 43.25 39.85 43.2 39.95 43.15 40.1 43.05 40.2 43.0 40.3 42.9 40.4 42.8 40.5 42.65 40.6 42.55 40.65 42.4 40.75 42.4 40.65 42.4 40.55 42.35 40.45 42.35 40.3 42.35 40.25 42.35 40.1 42.35 39.95 42.35 39.9 42.35 39.75 42.35 39.65 42.35 39.55 42.3 39.45 42.3 39.35 42.3 39.25 42.25 39.15 42.25 39.1 42.15 38.8 42.1 38.55 42.0 38.25 42.0 38.0 41.95 37.7 41.95 37.45 41.95 37.15 42.0 36.9 42.05 36.65 42.15 36.4 42.2 36.15 42.35 35.9 42.45 35.65 42.6 35.45 42.8 35.2 43.0 34.95 43.15 34.8 43.25 34.65 43.35 34.5 43.45 34.35 43.5 34.15 43.6 34.0 43.65 33.85 43.7 33.65 43.7 33.5 43.7 33.3 43.75 33.15 43.7 32.95 43.7 32.75 43.65 32.55 43.6 32.35 43.5 32.15 43.0 31.05 39.45 22.6 39.45 22.55 39.2 22.3 38.6 23.55 38.05 24.65 37.4 25.85 36.75 26.9 36.1 28.0 35.4 29.05 34.65 30.1 33.85 31.05 33.05 32.0 32.15 32.9 31.25 33.8 30.25 34.55 29.25 35.35 28.15 36.05 27.0 36.75 25.75 37.3 L25.75 37.3" fill="#000000" fill-rule="evenodd" stroke="none"/>
  </g>
</svg>
