<?xml version="1.0" encoding="UTF-8" standalone="no"?>
<svg xmlns:xlink="http://www.w3.org/1999/xlink" height="200.0px" width="200.0px" xmlns="http://www.w3.org/2000/svg">
  <g transform="matrix(1.0, 0.0, 0.0, 1.0, 100.0, 100.0)">
    <path d="M32.55 37.85 Q33.05 37.55 33.5 37.25 34.05 36.9 34.55 36.5 35.1 36.15 35.65 35.7 36.2 35.3 36.75 34.8 37.35 34.35 37.95 33.8 38.55 33.3 39.15 32.7 39.75 32.1 40.35 31.5 40.95 30.85 41.55 30.2 42.25 29.4 42.85 28.6 43.45 27.8 44.05 27.0 44.55 26.2 45.05 25.45 45.55 24.7 45.95 23.9 46.35 23.2 46.75 22.45 47.1 21.8 47.4 21.1 47.7 20.5 47.95 19.85 48.2 19.25 48.45 18.7 48.4 19.8 48.55 20.8 48.65 21.8 48.85 22.7 49.05 23.6 49.35 24.4 49.65 25.15 50.0 25.8 50.4 26.45 50.8 26.95 51.2 27.45 51.65 27.8 52.05 28.15 52.5 28.3 52.95 28.5 53.35 28.5 53.7 28.5 54.1 28.35 54.5 28.2 54.85 27.95 55.25 27.65 55.6 27.25 56.0 26.85 56.35 26.35 56.7 25.85 57.0 25.25 57.3 24.6 57.55 23.95 57.85 23.2 58.05 22.45 58.25 21.65 58.4 20.85 58.6 21.2 58.8 21.55 59.05 22.0 59.25 22.4 59.5 22.85 59.7 23.3 59.95 23.85 60.15 24.35 60.35 24.9 60.55 25.5 60.8 26.1 60.95 26.7 61.15 27.35 61.3 28.0 61.5 28.7 61.6 29.4 61.9 31.05 61.95 32.75 62.05 34.3 61.9 35.85 61.8 37.25 61.55 38.7 61.3 39.95 60.95 41.2 60.6 42.35 60.2 43.4 59.85 44.3 59.45 45.2 59.1 45.9 58.75 46.6 58.5 47.05 58.25 47.5 57.7 48.45 57.05 49.35 56.4 50.2 55.75 51.0 55.1 51.75 54.45 52.45 53.8 53.1 53.15 53.7 52.5 54.25 51.85 54.75 51.25 55.2 50.65 55.65 50.1 56.05 49.55 56.4 49.05 56.7 48.6 57.0 48.2 56.9 47.8 56.8 47.35 56.65 46.95 56.5 46.45 56.35 46.0 56.15 45.5 55.95 45.05 55.75 44.55 55.55 44.05 55.25 43.5 55.0 43.0 54.7 42.5 54.4 42.0 54.05 41.45 53.7 40.95 53.3 39.7 52.35 38.6 51.2 37.6 50.1 36.7 48.9 35.95 47.8 35.3 46.6 34.7 45.5 34.2 44.3 33.8 43.25 33.45 42.2 33.2 41.25 33.0 40.35 32.8 39.6 32.7 38.85 32.6 38.35 32.55 37.85 L32.55 37.85" fill="#37a55c" fill-rule="evenodd" stroke="none"/>
  </g>
</svg>
