<?xml version="1.0" encoding="UTF-8" standalone="no"?>
<svg xmlns:xlink="http://www.w3.org/1999/xlink" height="70.0px" width="157.35px" xmlns="http://www.w3.org/2000/svg">
  <g transform="matrix(1.0, 0.0, 0.0, 1.0, 78.7, 35.0)">
    <path d="M-21.05 -13.9 Q-21.15 -14.0 -21.25 -14.05 -21.3 -14.1 -21.4 -14.1 -21.5 -14.15 -21.6 -14.15 -21.65 -14.2 -21.8 -14.2 -21.95 -14.25 -22.0 -14.25 -22.1 -14.25 -22.2 -14.3 -22.3 -14.35 -22.4 -14.4 -22.5 -14.45 -22.6 -14.55 -22.7 -14.65 -22.75 -14.8 -22.85 -14.9 -22.85 -15.0 -22.9 -15.15 -22.9 -15.25 -22.9 -15.35 -22.9 -15.55 -22.9 -15.75 -22.9 -15.85 -22.95 -16.05 -22.95 -16.2 -23.0 -16.35 -23.05 -16.55 -23.1 -16.75 -23.2 -16.95 -23.3 -17.1 -23.35 -17.25 -23.45 -17.4 -23.55 -17.55 -23.65 -17.7 -23.75 -17.8 -23.85 -17.9 -24.0 -18.0 -24.1 -18.1 -24.2 -18.2 -24.3 -18.25 -24.4 -18.35 -24.45 -18.4 -24.55 -18.45 -24.6 -18.5 -24.65 -18.55 -24.8 -18.65 -24.95 -18.7 -25.1 -18.8 -25.25 -18.85 -25.4 -18.9 -25.55 -18.95 -25.65 -19.0 -25.8 -19.05 -25.9 -19.1 -26.05 -19.1 -26.15 -19.15 -26.25 -19.15 -26.35 -19.15 -26.45 -19.2 -26.5 -19.2 -26.55 -19.2 -26.75 -19.2 -26.9 -19.2 -27.1 -19.25 -27.25 -19.2 -27.4 -19.2 -27.55 -19.2 -27.7 -19.15 -27.85 -19.15 -27.95 -19.1 -28.1 -19.1 -28.2 -19.05 -28.3 -19.0 -28.4 -19.0 -28.5 -18.95 -28.6 -18.95 -28.65 -18.9 -28.75 -19.05 -28.9 -19.25 -29.0 -19.45 -29.15 -19.6 -29.3 -19.8 -29.4 -20.0 -29.55 -20.2 -29.7 -20.4 -29.9 -20.65 -30.05 -20.85 -30.25 -21.1 -30.4 -21.3 -30.6 -21.55 -30.8 -21.8 -31.0 -22.05 -31.2 -22.25 -31.55 -22.65 -31.9 -23.05 -32.25 -23.45 -32.55 -23.8 -32.9 -24.15 -33.2 -24.5 -33.5 -24.8 -33.8 -25.05 -34.05 -25.3 -34.3 -25.55 -34.5 -25.75 -34.75 -25.95 -34.9 -26.15 -35.1 -26.25 -35.2 -26.4 -35.3 -26.5 -36.05 -27.1 -36.95 -27.65 -37.85 -28.15 -38.9 -28.55 -39.85 -28.9 -40.95 -29.2 -42.05 -29.5 -43.2 -29.7 -44.3 -29.85 -45.45 -29.95 -46.55 -30.05 -47.7 -30.05 -48.8 -30.1 -49.9 -30.05 -50.95 -29.95 -51.95 -29.85 -52.3 -29.8 -52.65 -29.75 -53.2 -29.65 -53.8 -29.55 -54.5 -29.4 -55.25 -29.2 -56.1 -29.0 -57.0 -28.7 -58.0 -28.4 -58.95 -28.0 -60.05 -27.55 -61.1 -27.05 -62.25 -26.45 -63.35 -25.8 -64.55 -25.1 -65.65 -24.25 -66.0 -24.0 -66.4 -23.7 -66.85 -23.35 -67.25 -22.95 -67.8 -22.55 -68.25 -22.1 -68.8 -21.6 -69.35 -21.05 -69.9 -20.45 -70.45 -19.8 -71.05 -19.15 -71.6 -18.4 -72.2 -17.65 -72.75 -16.85 -73.35 -15.95 -73.85 -15.05 -74.15 -14.55 -74.35 -14.2 -74.65 -13.65 -74.9 -13.15 -75.2 -12.55 -75.5 -11.95 -75.8 -11.3 -76.05 -10.6 -76.35 -9.85 -76.6 -9.1 -76.85 -8.25 -77.05 -7.45 -77.3 -6.55 -77.45 -5.6 -77.6 -4.65 -77.7 -3.65 -77.8 -2.3 -77.75 -0.95 -77.7 0.35 -77.55 1.65 -77.35 2.9 -77.05 4.1 -76.8 5.25 -76.4 6.4 -76.05 7.45 -75.6 8.5 -75.2 9.45 -74.7 10.35 -74.3 11.25 -73.8 12.05 -73.35 12.75 -72.85 13.45 -70.7 16.45 -66.2 21.25 -65.1 22.4 -64.15 23.4 -64.2 23.45 -64.25 23.5 -64.35 23.6 -64.4 23.65 -64.5 23.75 -64.55 23.85 -64.65 23.95 -64.75 24.05 -64.85 24.2 -64.9 24.35 -65.0 24.45 -65.05 24.6 -65.15 24.8 -65.2 24.95 -65.25 25.1 -65.25 25.3 -65.3 25.6 -65.3 25.9 -65.35 26.15 -65.3 26.45 -65.25 26.7 -65.15 26.95 -65.1 27.15 -65.0 27.4 -64.9 27.6 -64.8 27.8 -64.7 27.95 -64.55 28.1 -64.45 28.25 -64.35 28.4 -64.3 28.5 -64.2 28.6 -63.95 28.9 -63.65 29.15 -63.35 29.4 -63.05 29.6 -62.75 29.8 -62.45 29.95 -62.15 30.1 -61.85 30.2 -61.6 30.25 -61.3 30.35 -61.05 30.4 -60.8 30.45 -60.65 30.45 -60.45 30.5 -60.35 30.5 -60.2 30.5 -59.65 30.3 -59.1 30.1 -58.5 29.9 -57.9 29.7 -57.25 29.45 -56.6 29.15 -55.95 28.9 -55.25 28.6 -54.55 28.25 -53.8 27.95 -53.05 27.55 -52.35 27.2 -51.55 26.8 -50.8 26.35 -49.95 25.9 -49.2 25.45 -47.35 24.35 -45.6 23.1 -44.0 21.95 -42.45 20.7 -41.0 19.5 -39.65 18.25 -38.4 17.05 -37.2 15.8 -36.1 14.7 -35.05 13.45 -34.15 12.4 -33.25 11.25 -32.5 10.3 -31.75 9.25 -31.25 8.55 -30.5 7.5 -29.95 6.7 -29.4 5.9 -28.8 5.0 -28.2 4.1 -27.55 3.1 -27.0 2.05 -26.35 0.95 -25.75 -0.15 -25.1 -1.35 -24.5 -2.55 -23.85 -3.85 -23.3 -5.2 -22.65 -6.55 -22.1 -8.0 -21.5 -9.5 -21.0 -11.0 -20.9 -11.35 -20.85 -11.65 -20.75 -11.9 -20.75 -12.15 -20.7 -12.4 -20.7 -12.65 -20.7 -12.85 -20.7 -13.0 -20.7 -13.15 -20.75 -13.3 -20.8 -13.45 -20.85 -13.55 -20.9 -13.7 -20.95 -13.75 -21.0 -13.85 -21.05 -13.9 L-21.05 -13.9 M-40.35 7.1 Q-40.35 7.15 -40.35 7.2 -40.4 7.25 -40.4 7.3 -40.4 7.35 -40.4 7.4 -40.45 7.45 -40.45 7.5 -40.5 7.55 -40.5 7.6 -40.55 7.65 -40.55 7.7 -40.6 7.75 -40.65 7.8 -40.7 7.85 -40.7 7.9 -40.75 7.95 -40.8 8.0 -40.85 8.05 -40.9 8.05 -40.95 8.1 -41.05 8.15 -41.1 8.15 -41.15 8.2 -41.2 8.2 -41.3 8.2 -41.35 8.25 -41.4 8.25 -41.5 8.25 -41.55 8.25 -41.6 8.3 -41.7 8.3 -41.8 8.3 -42.0 8.3 -42.2 8.35 -42.4 8.4 -42.6 8.4 -42.85 8.45 -43.05 8.5 -43.25 8.6 -43.45 8.65 -43.65 8.7 -43.85 8.75 -44.05 8.85 -44.25 8.9 -44.45 8.95 -44.65 9.0 -44.85 9.1 -45.05 9.15 -45.25 9.25 -47.8 10.1 -48.3 10.25 -50.6 10.9 -51.6 11.05 -51.75 11.1 -51.85 11.1 -52.0 11.1 -52.1 11.15 -52.25 11.15 -52.35 11.2 -52.5 11.2 -52.6 11.2 -52.75 11.25 -52.85 11.25 -53.0 11.25 -53.1 11.25 -53.25 11.25 -53.35 11.25 -53.5 11.3 -53.6 11.3 -54.3 11.3 -55.35 11.2 -56.1 11.1 -59.0 10.75 -61.0 10.45 -61.65 10.25 -61.75 10.25 -61.85 10.2 -61.9 10.15 -62.0 10.15 -62.1 10.1 -62.2 10.1 -62.25 10.05 -62.35 10.05 -62.45 10.0 -62.55 10.0 -62.6 9.95 -62.7 9.9 -62.8 9.9 -62.9 9.85 -62.95 9.8 -63.05 9.8 -63.1 9.8 -63.1 9.75 -63.15 9.75 -63.2 9.75 -63.25 9.75 -63.3 9.7 -63.35 9.7 -63.4 9.7 -63.45 9.7 -63.5 9.65 -63.55 9.65 -63.6 9.6 -63.65 9.6 -63.7 9.6 -63.75 9.55 -63.8 9.55 -63.85 9.5 -63.9 9.5 -63.95 9.5 -64.0 9.45 -64.05 9.4 -64.1 9.4 -64.2 9.35 -64.25 9.35 -64.3 9.3 -64.35 9.25 -64.4 9.25 -64.45 9.2 -64.5 9.15 -64.6 9.1 -64.65 9.1 -64.7 9.05 -64.75 9.0 -64.8 8.95 -64.85 8.9 -64.9 8.85 -65.0 8.8 -65.05 8.75 -65.15 8.7 -65.2 8.65 -65.3 8.6 -65.4 8.55 -65.45 8.45 -65.55 8.4 -65.6 8.35 -65.7 8.3 -65.8 8.25 -65.85 8.15 -65.95 8.1 -66.0 8.05 -66.1 7.95 -66.15 7.9 -66.3 7.8 -66.4 7.65 -66.5 7.55 -66.6 7.4 -66.75 7.3 -66.85 7.15 -66.95 7.05 -67.05 6.9 -67.1 6.75 -67.2 6.6 -67.3 6.5 -67.35 6.35 -67.45 6.2 -67.5 6.05 -67.6 5.9 -67.65 5.7 -67.7 5.55 -67.75 5.4 -67.8 5.25 -67.85 5.1 -67.85 4.9 -67.85 4.75 -67.9 4.6 -67.9 4.45 -67.9 4.25 -67.9 4.1 -67.9 3.95 -67.85 3.75 -67.85 3.6 -67.85 3.45 -67.8 3.3 -67.75 3.1 -67.75 3.05 -67.8 3.0 -67.8 2.95 -67.8 2.9 -67.85 2.85 -67.85 2.8 -67.85 2.75 -67.85 2.7 -67.9 2.65 -67.9 2.6 -67.9 2.55 -67.9 2.5 -67.9 2.45 -67.9 2.35 -67.95 2.3 -67.95 2.25 -67.95 2.05 -67.95 1.85 -67.9 1.6 -67.85 1.4 -67.8 1.2 -67.75 1.0 -67.65 0.8 -67.55 0.6 -67.45 0.4 -67.35 0.25 -67.25 0.05 -67.1 -0.1 -66.95 -0.25 -66.8 -0.4 -66.65 -0.55 -66.45 -0.65 -66.4 -0.7 -66.3 -0.75 -66.25 -0.75 -66.2 -0.8 -66.15 -0.85 -66.05 -0.85 -66.0 -0.9 -65.9 -0.95 -65.85 -0.95 -65.75 -1.0 -65.7 -1.0 -65.6 -1.0 -65.55 -1.05 -65.45 -1.05 -65.4 -1.05 -65.35 -1.1 -65.25 -1.1 -65.2 -1.1 -65.1 -1.15 -65.0 -1.15 -64.9 -1.15 -64.85 -1.15 -64.75 -1.15 -64.65 -1.15 -64.6 -1.15 -64.5 -1.15 -64.4 -1.15 -64.35 -1.15 -64.25 -1.15 -64.15 -1.15 -64.1 -1.15 -64.0 -1.15 -63.9 -1.15 -63.45 -1.05 -63.45 -1.15 -63.4 -1.2 -63.4 -1.25 -63.35 -1.35 -63.3 -1.4 -63.25 -1.45 -63.25 -1.55 -63.2 -1.6 -63.15 -1.65 -63.1 -1.7 -63.05 -1.75 -62.95 -1.8 -62.9 -1.85 -62.85 -1.9 -62.8 -1.95 -62.7 -1.95 -62.75 -2.05 -62.8 -2.15 -62.85 -2.25 -62.9 -2.35 -62.95 -2.5 -63.0 -2.6 -63.05 -2.7 -63.1 -2.8 -63.1 -2.9 -63.15 -3.0 -63.2 -3.1 -63.25 -3.2 -63.3 -3.3 -63.3 -3.45 -63.35 -3.55 -63.4 -3.65 -63.45 -3.8 -63.5 -3.95 -63.55 -4.1 -63.55 -4.25 -63.6 -4.45 -63.65 -4.6 -63.65 -4.75 -63.7 -4.9 -63.7 -5.05 -63.7 -5.2 -63.75 -5.4 -63.75 -5.55 -63.75 -5.7 -63.75 -5.85 -63.75 -6.05 -63.75 -6.2 -63.75 -6.4 -63.7 -6.6 -63.65 -6.8 -63.65 -6.95 -63.6 -7.15 -63.55 -7.35 -63.5 -7.5 -63.4 -7.7 -63.35 -7.85 -63.25 -8.0 -63.15 -8.2 -63.05 -8.35 -62.95 -8.5 -62.85 -8.65 -62.75 -8.85 -62.6 -9.0 -62.55 -9.05 -62.5 -9.1 -62.4 -9.2 -62.35 -9.25 -62.3 -9.3 -62.2 -9.35 -62.15 -9.4 -62.05 -9.5 -62.0 -9.55 -61.9 -9.6 -61.85 -9.65 -61.75 -9.7 -61.7 -9.75 -61.6 -9.8 -61.55 -9.85 -61.45 -9.85 -61.35 -9.9 -61.25 -9.95 -61.15 -10.0 -61.1 -10.05 -61.0 -10.1 -60.9 -10.15 -60.8 -10.15 -60.7 -10.2 -60.6 -10.25 -60.5 -10.3 -60.4 -10.3 -60.3 -10.35 -60.2 -10.35 -60.1 -10.4 -60.0 -10.4 -59.9 -10.45 -59.7 -10.5 -59.55 -10.5 -59.35 -10.55 -59.15 -10.55 -59.0 -10.55 -58.8 -10.55 -58.6 -10.6 -58.45 -10.55 -58.25 -10.55 -58.05 -10.55 -57.9 -10.5 -57.7 -10.5 -57.5 -10.45 -57.35 -10.4 -57.15 -10.35 -57.0 -10.3 -56.85 -10.25 -56.65 -10.15 -56.5 -10.1 -56.35 -10.0 -56.2 -9.9 -56.05 -9.85 -55.85 -9.75 -55.7 -9.65 -55.55 -9.55 -55.45 -9.45 -55.3 -9.35 -55.15 -9.2 -55.0 -9.1 -54.85 -9.0 -54.75 -8.85 -54.6 -8.75 -54.35 -8.5 -54.15 -8.25 -53.95 -8.05 -53.75 -7.75 -53.55 -7.5 -53.35 -7.25 -53.15 -7.0 -52.95 -6.7 -52.8 -6.45 -52.6 -6.15 -52.45 -5.9 -52.3 -5.6 -52.15 -5.3 -51.95 -5.0 -51.8 -4.75 -51.65 -4.45 -50.7 -2.75 -50.55 -2.45 -49.9 -1.4 -48.8 0.05 -48.7 0.2 -48.55 0.35 -48.45 0.5 -48.3 0.65 -48.2 0.85 -48.05 1.0 -47.95 1.15 -47.8 1.3 -47.7 1.45 -47.55 1.6 -47.45 1.75 -47.3 1.9 -47.2 2.05 -47.05 2.2 -46.9 2.35 -46.8 2.5 -45.25 4.15 -44.6 4.75 -44.55 4.75 -44.55 4.8 -44.5 4.8 -44.45 4.85 -44.45 4.85 -44.4 4.9 -44.35 4.9 -44.3 4.95 -44.3 4.95 -44.25 4.95 -44.2 5.0 -44.15 5.0 -44.15 5.05 -44.1 5.05 -44.05 5.05 -44.0 5.1 -43.85 5.15 -43.7 5.2 -43.5 5.25 -43.35 5.3 -43.2 5.3 -43.0 5.35 -42.85 5.35 -42.65 5.4 -42.55 5.4 -42.35 5.45 -42.1 5.5 -42.0 5.5 -41.8 5.5 -41.65 5.55 -41.45 5.55 -41.3 5.6 -41.2 5.6 -41.05 5.7 -40.95 5.75 -40.85 5.8 -40.75 5.85 -40.7 5.95 -40.6 6.05 -40.55 6.15 -40.5 6.25 -40.45 6.4 -40.4 6.5 -40.35 6.6 -40.35 6.75 -40.35 6.85 -40.3 7.0 -40.35 7.1 L-40.35 7.1" fill="#d89364" fill-rule="evenodd" stroke="none"/>
    <path d="M23.85 -11.85 Q24.35 -10.3 24.95 -8.75 25.45 -7.3 26.05 -5.9 26.65 -4.55 27.25 -3.25 27.8 -2.0 28.45 -0.75 29.0 0.4 29.65 1.5 30.2 2.55 30.8 3.55 31.4 4.5 31.95 5.4 32.5 6.25 33.05 7.05 33.75 8.1 34.25 8.85 35.0 9.9 35.7 10.85 36.6 12.05 37.45 13.1 38.45 14.35 39.5 15.5 40.65 16.8 41.85 18.0 43.15 19.3 44.55 20.5 46.05 21.8 47.6 22.95 49.3 24.2 51.05 25.35 51.8 25.85 52.6 26.3 53.35 26.7 54.1 27.1 54.8 27.5 55.55 27.9 56.25 28.2 56.95 28.55 57.6 28.85 58.25 29.15 58.85 29.4 59.5 29.65 60.05 29.9 60.65 30.1 61.2 30.3 61.7 30.5 61.8 30.5 61.95 30.5 62.1 30.45 62.3 30.45 62.55 30.4 62.75 30.35 63.05 30.25 63.3 30.2 63.6 30.05 63.85 29.95 64.15 29.8 64.45 29.6 64.75 29.4 65.05 29.15 65.3 28.9 65.55 28.55 65.65 28.45 65.7 28.35 65.8 28.2 65.9 28.05 66.05 27.9 66.1 27.75 66.25 27.5 66.35 27.3 66.45 27.1 66.5 26.85 66.6 26.6 66.6 26.35 66.65 26.05 66.65 25.8 66.65 25.5 66.6 25.2 66.55 25.0 66.5 24.85 66.45 24.65 66.4 24.5 66.3 24.35 66.25 24.2 66.15 24.05 66.1 23.95 66.0 23.8 65.9 23.7 65.85 23.6 65.75 23.5 65.7 23.45 65.6 23.35 65.55 23.3 65.5 23.25 66.9 21.7 67.5 21.05 71.85 16.1 73.9 13.1 74.35 12.4 74.8 11.65 75.3 10.85 75.7 9.95 76.15 9.05 76.55 8.05 77.0 7.0 77.35 5.9 77.7 4.75 77.95 3.6 78.25 2.35 78.4 1.1 78.6 -0.25 78.65 -1.55 78.7 -2.95 78.6 -4.35 78.5 -5.35 78.35 -6.35 78.2 -7.3 78.0 -8.2 77.8 -9.05 77.55 -9.9 77.3 -10.7 77.0 -11.45 76.75 -12.15 76.45 -12.85 76.2 -13.45 75.9 -14.05 75.65 -14.55 75.35 -15.1 75.15 -15.45 74.9 -16.0 74.4 -16.9 73.85 -17.8 73.3 -18.6 72.75 -19.4 72.2 -20.15 71.6 -20.85 71.1 -21.45 70.55 -22.1 70.0 -22.65 69.5 -23.15 69.0 -23.6 68.55 -24.05 68.1 -24.45 67.7 -24.8 67.35 -25.1 66.95 -25.35 65.9 -26.2 64.75 -26.95 63.65 -27.6 62.55 -28.2 61.55 -28.7 60.5 -29.15 59.55 -29.55 58.6 -29.9 57.75 -30.2 56.9 -30.4 56.2 -30.6 55.5 -30.75 54.95 -30.9 54.45 -30.95 54.1 -31.0 53.75 -31.05 52.8 -31.2 51.75 -31.25 50.7 -31.3 49.65 -31.3 48.55 -31.25 47.45 -31.15 46.35 -31.05 45.3 -30.9 44.15 -30.7 43.15 -30.4 42.1 -30.1 41.15 -29.7 40.15 -29.3 39.3 -28.8 38.4 -28.25 37.7 -27.65 37.55 -27.55 37.45 -27.45 37.3 -27.3 37.15 -27.1 36.9 -26.9 36.7 -26.7 36.45 -26.45 36.2 -26.2 35.95 -25.9 35.65 -25.6 35.35 -25.25 35.05 -24.9 34.7 -24.55 34.4 -24.15 34.05 -23.75 33.7 -23.35 33.5 -23.1 33.3 -22.85 33.15 -22.6 32.95 -22.35 32.8 -22.15 32.6 -21.9 32.45 -21.65 32.3 -21.45 32.15 -21.25 32.0 -21.0 31.85 -20.8 31.75 -20.6 31.6 -20.45 31.5 -20.25 31.4 -20.05 31.25 -19.9 31.2 -19.95 31.1 -19.95 31.0 -20.0 30.95 -20.0 30.8 -20.05 30.7 -20.1 30.6 -20.1 30.5 -20.15 30.35 -20.15 30.2 -20.2 30.05 -20.2 29.9 -20.2 29.75 -20.25 29.6 -20.25 29.4 -20.2 29.25 -20.2 29.2 -20.2 29.1 -20.2 29.05 -20.15 28.95 -20.15 28.85 -20.15 28.75 -20.1 28.65 -20.1 28.5 -20.05 28.4 -20.0 28.25 -19.95 28.15 -19.9 28.0 -19.85 27.85 -19.8 27.7 -19.7 27.55 -19.6 27.4 -19.55 27.35 -19.55 27.3 -19.45 27.2 -19.4 27.15 -19.35 27.05 -19.25 26.95 -19.2 26.85 -19.1 26.75 -19.0 26.65 -18.9 26.55 -18.8 26.45 -18.65 26.35 -18.55 26.25 -18.4 26.15 -18.25 26.05 -18.1 26.0 -17.9 25.9 -17.7 25.85 -17.5 25.8 -17.3 25.75 -17.1 25.75 -16.95 25.75 -16.8 25.75 -16.7 25.7 -16.5 25.7 -16.3 25.7 -16.2 25.7 -16.05 25.65 -15.95 25.65 -15.8 25.55 -15.7 25.5 -15.55 25.4 -15.45 25.3 -15.35 25.2 -15.3 25.15 -15.25 25.05 -15.2 24.95 -15.15 24.85 -15.15 24.8 -15.15 24.65 -15.1 24.55 -15.1 24.5 -15.1 24.35 -15.05 24.3 -15.05 24.2 -15.0 24.1 -14.95 24.05 -14.9 23.95 -14.8 23.9 -14.75 23.8 -14.65 23.75 -14.55 23.7 -14.45 23.65 -14.35 23.65 -14.2 23.6 -14.05 23.6 -13.9 23.55 -13.7 23.6 -13.5 23.6 -13.3 23.6 -13.05 23.65 -12.75 23.7 -12.5 23.8 -12.2 23.85 -11.85 L23.85 -11.85 M43.5 5.1 Q43.65 5.05 43.8 5.05 43.95 5.0 44.15 5.0 44.2 5.0 44.45 4.95 44.65 4.9 44.8 4.9 44.95 4.85 45.1 4.85 45.3 4.8 45.45 4.75 45.6 4.75 45.75 4.7 45.95 4.65 46.1 4.6 46.15 4.6 46.4 4.4 46.55 4.3 46.65 4.2 47.45 3.45 48.75 1.9 48.9 1.75 49.0 1.6 49.15 1.45 49.25 1.3 49.4 1.15 49.5 1.0 49.65 0.85 49.75 0.7 49.9 0.55 50.0 0.4 50.1 0.25 50.25 0.05 50.35 -0.1 50.5 -0.25 50.6 -0.4 50.7 -0.55 50.8 -0.7 50.95 -0.85 51.05 -1.0 51.15 -1.15 51.25 -1.35 51.35 -1.5 51.5 -1.65 51.6 -1.8 51.7 -1.95 51.8 -2.1 51.9 -2.3 52.0 -2.45 52.1 -2.6 52.2 -2.75 52.3 -2.95 52.4 -3.1 52.6 -3.5 52.95 -4.1 53.35 -5.0 53.45 -5.15 53.6 -5.5 53.75 -5.75 53.9 -6.05 54.05 -6.3 54.25 -6.6 54.4 -6.9 54.55 -7.2 54.75 -7.45 54.9 -7.75 55.1 -8.0 55.3 -8.3 55.45 -8.55 55.65 -8.8 55.9 -9.05 56.1 -9.3 56.3 -9.55 56.45 -9.7 56.55 -9.8 56.7 -9.9 56.8 -10.05 56.95 -10.15 57.1 -10.25 57.25 -10.35 57.4 -10.45 57.55 -10.55 57.7 -10.65 57.85 -10.75 58.0 -10.8 58.15 -10.9 58.3 -10.95 58.45 -11.05 58.6 -11.1 58.75 -11.15 58.95 -11.2 59.1 -11.25 59.3 -11.3 59.45 -11.35 59.65 -11.35 59.8 -11.4 60.0 -11.4 60.15 -11.4 60.35 -11.4 60.55 -11.4 60.7 -11.4 60.9 -11.35 61.05 -11.35 61.25 -11.3 61.4 -11.25 61.5 -11.25 61.6 -11.2 61.7 -11.2 61.8 -11.15 61.9 -11.15 62.0 -11.1 62.1 -11.05 62.2 -11.05 62.3 -11.0 62.35 -10.95 62.45 -10.9 62.55 -10.85 62.65 -10.85 62.75 -10.8 62.85 -10.75 62.9 -10.7 63.0 -10.65 63.05 -10.6 63.15 -10.55 63.2 -10.5 63.3 -10.45 63.35 -10.4 63.45 -10.35 63.5 -10.3 63.6 -10.2 63.65 -10.15 63.7 -10.1 63.8 -10.05 63.85 -9.95 63.9 -9.9 64.0 -9.85 64.05 -9.75 64.15 -9.6 64.3 -9.45 64.4 -9.3 64.5 -9.15 64.6 -8.95 64.65 -8.8 64.75 -8.6 64.8 -8.45 64.85 -8.25 64.9 -8.1 64.95 -7.9 65.0 -7.7 65.05 -7.5 65.1 -7.35 65.1 -7.15 65.1 -6.95 65.1 -6.8 65.1 -6.6 65.1 -6.45 65.1 -6.3 65.1 -6.1 65.1 -5.95 65.1 -5.8 65.05 -5.6 65.05 -5.45 65.0 -5.3 65.0 -5.15 64.95 -4.95 64.9 -4.8 64.85 -4.65 64.85 -4.5 64.8 -4.35 64.75 -4.25 64.75 -4.15 64.7 -4.0 64.65 -3.9 64.6 -3.8 64.55 -3.7 64.55 -3.6 64.5 -3.45 64.45 -3.35 64.4 -3.25 64.35 -3.15 64.3 -3.05 64.25 -2.95 64.2 -2.85 64.2 -2.75 64.15 -2.6 64.2 -2.55 64.25 -2.55 64.35 -2.5 64.4 -2.45 64.45 -2.4 64.5 -2.35 64.55 -2.3 64.6 -2.25 64.65 -2.2 64.65 -2.1 64.7 -2.05 64.75 -2.0 64.8 -1.9 64.8 -1.85 64.85 -1.75 64.85 -1.7 64.9 -1.7 64.9 -1.7 64.95 -1.7 65.0 -1.7 65.0 -1.75 65.05 -1.75 65.1 -1.75 65.1 -1.75 65.15 -1.75 65.2 -1.75 65.2 -1.75 65.25 -1.75 65.3 -1.75 65.3 -1.75 65.35 -1.75 65.4 -1.75 65.5 -1.75 65.55 -1.75 65.65 -1.8 65.7 -1.8 65.8 -1.8 65.85 -1.8 65.95 -1.8 66.0 -1.8 66.1 -1.8 66.15 -1.8 66.25 -1.75 66.35 -1.75 66.4 -1.75 66.5 -1.75 66.55 -1.75 66.65 -1.7 66.7 -1.7 66.8 -1.7 66.85 -1.65 66.95 -1.65 67.0 -1.65 67.1 -1.6 67.15 -1.6 67.2 -1.55 67.3 -1.55 67.35 -1.5 67.4 -1.45 67.5 -1.45 67.55 -1.4 67.6 -1.35 67.7 -1.35 67.75 -1.3 67.9 -1.2 68.05 -1.05 68.2 -0.9 68.35 -0.7 68.5 -0.55 68.6 -0.35 68.7 -0.2 68.8 0.0 68.9 0.2 69.0 0.4 69.05 0.6 69.1 0.8 69.15 1.05 69.15 1.25 69.2 1.45 69.15 1.7 69.15 1.75 69.15 1.8 69.15 1.85 69.15 1.9 69.15 2.0 69.1 2.05 69.1 2.1 69.1 2.15 69.1 2.2 69.1 2.25 69.1 2.3 69.05 2.35 69.05 2.4 69.05 2.45 69.0 2.5 69.0 2.55 69.05 2.7 69.05 2.9 69.1 3.05 69.1 3.25 69.1 3.4 69.15 3.55 69.15 3.75 69.15 3.9 69.1 4.1 69.1 4.25 69.1 4.4 69.05 4.6 69.05 4.75 69.0 4.9 68.95 5.05 68.9 5.25 68.85 5.4 68.75 5.55 68.7 5.7 68.65 5.85 68.55 6.0 68.45 6.15 68.4 6.3 68.3 6.45 68.2 6.55 68.1 6.7 68.0 6.85 67.9 6.95 67.8 7.1 67.7 7.2 67.55 7.35 67.45 7.45 67.4 7.5 67.3 7.6 67.25 7.65 67.15 7.7 67.1 7.8 67.0 7.85 66.95 7.9 66.85 7.95 66.8 8.05 66.7 8.1 66.65 8.15 66.55 8.2 66.45 8.25 66.4 8.3 66.3 8.35 66.25 8.45 66.2 8.5 66.15 8.55 66.1 8.6 66.05 8.6 66.0 8.65 65.95 8.7 65.9 8.75 65.85 8.75 65.75 8.8 65.7 8.85 65.65 8.9 65.6 8.9 65.55 8.95 65.5 8.95 65.45 9.0 65.4 9.05 64.7 9.3 64.6 9.35 64.55 9.35 64.5 9.35 64.5 9.35 64.45 9.35 64.35 9.4 64.3 9.4 64.2 9.45 64.1 9.5 64.05 9.55 63.95 9.55 63.9 9.6 63.8 9.6 63.7 9.65 63.6 9.7 63.55 9.7 63.45 9.75 63.35 9.75 63.3 9.8 63.2 9.8 63.1 9.85 62.35 10.1 60.55 10.35 60.45 10.35 58.8 10.6 57.75 10.75 57.05 10.8 55.95 10.9 55.35 10.9 55.25 10.9 55.1 10.9 55.0 10.9 54.85 10.85 54.75 10.85 54.6 10.85 54.5 10.85 54.4 10.85 54.25 10.8 54.15 10.8 54.0 10.8 53.9 10.75 53.8 10.75 53.65 10.7 53.55 10.7 53.4 10.7 52.6 10.55 50.2 9.85 49.5 9.65 47.3 8.8 45.25 8.05 44.15 7.85 44.05 7.85 43.85 7.85 43.8 7.85 43.7 7.85 43.65 7.8 43.6 7.8 43.5 7.8 43.45 7.75 43.4 7.75 43.35 7.75 43.25 7.7 43.2 7.65 43.15 7.65 43.1 7.6 43.05 7.55 43.0 7.5 42.95 7.5 42.9 7.45 42.85 7.4 42.85 7.35 42.8 7.3 42.75 7.25 42.75 7.2 42.7 7.15 42.7 7.1 42.65 7.05 42.65 7.0 42.6 6.95 42.6 6.9 42.6 6.85 42.55 6.8 42.55 6.75 42.55 6.7 42.55 6.65 42.55 6.55 42.55 6.4 42.55 6.25 42.55 6.15 42.6 6.0 42.65 5.9 42.7 5.8 42.75 5.7 42.8 5.55 42.9 5.45 42.95 5.4 43.05 5.3 43.15 5.25 43.25 5.2 43.35 5.1 43.5 5.1 L43.5 5.1" fill="#d89364" fill-rule="evenodd" stroke="none"/>
  </g>
</svg>
