<?xml version="1.0" encoding="UTF-8" standalone="no"?>
<svg xmlns:xlink="http://www.w3.org/1999/xlink" height="41.9px" width="153.5px" xmlns="http://www.w3.org/2000/svg">
  <g transform="matrix(1.0, 0.0, 0.0, 1.0, 76.75, 20.95)">
    <path d="M44.65 -8.05 Q44.8 -7.55 44.95 -7.0 45.05 -6.5 45.2 -6.05 45.3 -5.55 45.4 -5.1 45.55 -4.65 45.65 -4.25 45.75 -3.8 45.85 -3.4 45.95 -3.05 46.0 -2.65 46.1 -2.35 46.2 -2.0 46.25 -1.7 46.3 -1.4 47.9 5.35 48.45 9.55 48.5 10.0 48.55 10.5 48.6 10.95 48.65 11.4 48.7 11.8 48.7 12.2 48.75 12.6 48.8 13.0 48.8 13.4 48.85 13.75 48.85 14.1 48.9 14.45 48.9 14.75 48.9 15.05 48.95 15.3 48.95 15.6 49.0 15.55 49.1 15.55 49.15 15.5 49.25 15.5 49.35 15.45 49.45 15.45 49.55 15.4 49.65 15.4 49.8 15.4 49.9 15.4 50.05 15.4 50.15 15.4 50.3 15.4 50.45 15.45 50.55 15.45 50.7 15.5 50.85 15.55 50.95 15.6 51.05 15.7 51.15 15.75 51.25 15.85 51.35 15.9 51.45 16.0 51.5 16.05 51.6 16.15 51.65 16.25 51.7 16.3 51.75 16.4 51.8 16.45 51.85 16.55 51.9 16.6 51.95 16.65 52.2 17.1 52.45 17.8 52.65 18.45 52.8 19.3 52.95 20.05 53.05 20.95 53.2 21.75 53.25 22.65 53.35 23.4 53.4 24.25 53.45 24.9 53.45 25.6 53.5 26.1 53.5 26.55 53.5 26.8 53.5 27.0 53.5 27.9 53.55 28.55 53.55 29.3 53.6 29.9 53.6 30.5 53.65 31.0 53.7 31.55 53.8 31.95 53.85 32.4 54.0 32.75 54.1 33.05 54.25 33.35 54.4 33.6 54.55 33.8 54.75 34.0 55.0 34.15 55.0 34.15 55.05 34.2 55.1 34.2 55.15 34.25 55.25 34.3 55.3 34.3 55.4 34.35 55.5 34.4 55.6 34.4 55.7 34.45 55.8 34.45 55.9 34.45 56.05 34.5 56.15 34.45 56.3 34.45 56.4 34.4 56.5 34.35 56.6 34.3 56.75 34.25 56.85 34.15 56.95 34.05 57.05 33.95 57.15 33.8 57.25 33.6 57.4 33.4 57.5 33.15 57.6 32.9 57.65 32.6 57.75 32.25 57.85 31.9 57.9 31.45 57.95 31.0 58.05 30.25 58.05 29.55 58.1 28.9 58.05 28.2 58.05 27.6 57.95 26.95 57.9 26.4 57.8 25.75 57.7 25.2 57.55 24.55 57.5 24.3 57.3 23.4 57.15 22.65 57.05 22.2 56.9 21.5 56.85 20.95 56.8 20.55 56.75 20.2 56.7 19.75 56.65 19.35 56.6 18.9 56.55 18.45 56.55 17.95 56.55 17.45 56.5 16.9 56.55 16.4 56.55 15.85 56.55 15.25 56.6 14.65 56.65 14.05 56.75 13.45 56.85 12.8 57.0 13.05 57.2 13.25 57.35 13.5 57.5 13.7 57.6 13.95 57.75 14.15 57.85 14.35 57.95 14.55 58.05 14.75 58.15 14.95 58.25 15.15 58.35 15.3 58.4 15.5 58.45 15.65 58.5 15.8 58.6 15.95 58.8 16.5 58.95 17.1 59.05 17.55 59.15 18.1 59.25 18.5 59.3 19.1 59.4 19.85 59.45 19.95 59.5 20.45 59.6 20.75 59.7 21.15 59.8 21.45 59.95 21.8 60.15 22.1 60.4 22.35 60.7 22.6 60.75 22.65 60.8 22.65 60.85 22.7 60.9 22.75 61.0 22.8 61.05 22.85 61.15 22.9 61.25 22.95 61.35 23.0 61.4 23.05 61.5 23.05 61.6 23.1 61.7 23.1 61.8 23.1 61.9 23.1 62.0 23.05 62.15 23.0 62.25 22.85 62.35 22.7 62.4 22.45 62.5 22.25 62.5 21.95 62.55 21.7 62.55 21.35 62.55 21.05 62.55 20.65 62.55 20.35 62.5 19.85 62.45 19.05 62.45 19.0 62.45 18.5 62.45 18.15 62.4 17.0 63.05 11.15 63.15 10.0 63.3 9.05 63.45 8.2 63.6 7.45 63.7 6.85 63.85 6.25 63.9 5.85 64.1 5.25 64.25 4.6 64.3 4.3 64.45 3.8 64.5 3.35 64.6 2.8 64.65 2.2 64.75 1.5 64.8 0.7 64.85 0.15 64.85 -0.35 64.85 -0.75 64.85 -1.2 64.85 -1.5 64.85 -1.95 64.8 -2.05 64.8 -2.7 64.75 -3.2 64.75 -3.6 64.75 -4.1 64.75 -4.65 64.75 -5.25 64.75 -5.95 64.75 -6.7 64.8 -7.6 64.85 -9.1 65.15 -13.1 65.25 -14.55 65.35 -15.9 65.45 -17.0 65.55 -18.05 65.6 -18.7 65.65 -19.6 65.75 -20.45 65.75 -20.7 65.8 -21.15 65.85 -21.45 65.85 -21.75 65.85 -22.0 65.85 -22.25 65.8 -22.45 65.8 -22.65 65.75 -22.9 65.65 -23.4 65.55 -23.9 65.45 -24.4 65.25 -24.85 65.1 -25.35 64.9 -25.8 64.7 -26.3 64.45 -26.8 64.2 -27.25 63.9 -27.8 63.6 -28.3 63.25 -28.9 62.95 -29.45 62.5 -30.15 62.25 -30.55 61.65 -31.5 61.3 -32.05 61.15 -32.3 60.85 -32.75 60.65 -33.1 60.35 -33.5 60.1 -33.85 59.8 -34.3 59.55 -34.65 59.2 -35.1 58.9 -35.5 58.6 -35.9 58.25 -36.3 57.85 -36.7 57.5 -37.15 57.1 -37.55 56.65 -37.95 56.1 -38.5 55.55 -39.0 55.0 -39.45 54.4 -39.9 53.9 -40.3 53.35 -40.7 52.85 -41.05 52.35 -41.4 51.9 -41.7 51.45 -42.0 51.05 -42.25 50.65 -42.45 50.35 -42.65 50.05 -42.8 49.8 -42.95 49.55 -43.05 48.8 -43.45 48.05 -43.75 47.45 -44.05 46.75 -44.3 46.35 -44.45 45.6 -44.75 44.9 -45.0 44.6 -45.15 44.1 -45.35 43.75 -45.55 43.3 -45.75 43.0 -46.0 42.6 -46.25 42.35 -46.55 42.05 -46.9 41.75 -47.35 41.6 -47.6 41.45 -47.9 41.35 -48.15 41.3 -48.4 41.2 -48.6 41.15 -48.85 41.0 -49.3 41.0 -49.3 40.95 -49.55 40.9 -49.7 40.8 -49.95 40.7 -50.15 40.6 -50.35 40.4 -50.55 40.25 -50.8 40.0 -51.0 39.65 -51.35 39.3 -51.6 38.9 -51.85 38.5 -52.0 38.15 -52.15 37.75 -52.3 37.4 -52.4 37.0 -52.45 36.65 -52.5 36.35 -52.55 36.05 -52.55 35.75 -52.55 35.55 -52.55 35.35 -52.55 35.25 -52.5 35.1 -52.5 35.05 -52.5 34.9 -52.5 34.75 -52.45 34.55 -52.4 34.3 -52.35 34.1 -52.3 33.8 -52.25 33.55 -52.15 33.25 -52.05 33.0 -51.95 32.75 -51.85 32.55 -51.7 32.3 -51.5 32.15 -51.35 32.0 -51.15 31.95 -50.95 31.95 -50.8 31.95 -50.65 32.0 -50.55 32.05 -50.4 32.15 -50.25 32.25 -50.1 32.35 -50.0 32.55 -49.8 32.95 -49.4 32.85 -49.5 33.1 -49.25 33.25 -49.05 33.45 -48.85 33.65 -48.55 33.85 -48.25 34.05 -47.95 34.2 -47.7 34.35 -47.5 34.45 -47.25 34.5 -47.1 34.6 -46.9 34.65 -46.7 34.7 -46.55 34.75 -46.35 34.85 -46.0 34.85 -45.95 34.9 -45.7 34.95 -45.5 35.05 -45.2 35.15 -44.9 35.3 -44.55 35.45 -44.2 35.55 -43.95 35.6 -43.85 35.7 -43.6 35.8 -43.4 35.95 -43.15 36.05 -42.9 36.2 -42.65 36.35 -42.4 36.55 -42.1 36.7 -41.8 36.9 -41.5 37.1 -41.2 37.35 -40.9 37.55 -40.6 37.85 -40.3 38.1 -40.0 38.35 -39.7 38.6 -39.5 38.8 -39.3 39.0 -39.1 39.15 -39.0 39.35 -38.85 39.45 -38.75 39.65 -38.65 39.85 -38.5 39.95 -38.45 40.1 -38.35 40.25 -38.25 40.4 -38.1 40.55 -37.95 40.7 -37.75 40.9 -37.55 41.2 -37.2 41.4 -36.8 41.6 -36.45 41.75 -36.1 41.85 -35.85 42.0 -35.5 42.05 -35.3 42.15 -34.85 42.25 -34.5 42.3 -34.3 42.4 -33.95 42.5 -33.65 42.65 -33.35 42.85 -33.05 43.05 -32.7 43.35 -32.35 43.55 -32.1 43.8 -31.9 44.0 -31.7 44.25 -31.5 44.5 -31.3 44.75 -31.15 44.95 -31.0 45.2 -30.85 45.4 -30.75 45.65 -30.6 45.8 -30.5 46.0 -30.45 46.15 -30.35 46.35 -30.3 46.45 -30.25 46.6 -30.2 46.95 -30.05 47.3 -29.95 47.6 -29.85 47.95 -29.75 48.15 -29.7 48.5 -29.65 48.1 -29.75 48.95 -29.6 49.25 -29.55 49.4 -29.5 49.65 -29.45 49.8 -29.35 50.05 -29.3 50.2 -29.15 50.4 -29.05 50.6 -28.85 50.75 -28.7 50.9 -28.55 51.0 -28.4 51.1 -28.25 51.25 -28.1 51.3 -27.9 51.4 -27.75 51.45 -27.55 51.55 -27.35 51.6 -27.15 51.65 -26.95 51.7 -26.7 51.75 -26.5 51.8 -26.25 51.85 -26.05 51.95 -25.7 52.0 -25.5 52.0 -25.3 52.05 -25.1 52.05 -24.9 52.1 -24.65 52.1 -24.4 52.1 -24.1 52.15 -23.8 52.15 -23.45 52.15 -23.05 52.1 -22.65 52.1 -22.2 52.05 -21.7 52.05 -21.15 52.0 -20.6 51.95 -19.95 51.85 -19.15 51.8 -18.5 51.8 -18.5 51.6 -17.1 51.4 -15.95 51.25 -14.5 51.15 -13.9 51.05 -13.1 50.95 -12.25 50.9 -12.0 50.85 -11.45 50.8 -11.1 50.75 -10.75 50.7 -10.45 50.65 -10.2 50.55 -10.0 50.5 -9.8 50.45 -9.6 50.4 -9.45 50.3 -9.35 50.2 -9.2 50.1 -9.1 50.0 -9.0 49.9 -8.9 49.75 -8.75 49.6 -8.65 49.4 -8.5 49.15 -8.4 48.9 -8.25 48.6 -8.15 48.25 -8.05 47.9 -8.0 47.45 -7.9 47.0 -7.9 46.5 -7.85 45.95 -7.9 45.3 -7.95 44.65 -8.05 L44.65 -8.05" fill="#bcd9c2" fill-rule="evenodd" stroke="none"/>
  </g>
</svg>
