<?xml version="1.0" encoding="UTF-8" standalone="no"?>
<svg xmlns:xlink="http://www.w3.org/1999/xlink" height="72.0px" width="159.35px" xmlns="http://www.w3.org/2000/svg">
  <g transform="matrix(1.0, 0.0, 0.0, 1.0, 79.7, 36.0)">
    <path d="M-65.3 23.15 Q-65.4 23.1 -66.2 22.5 -66.7 22.1 -67.05 21.8 -68.65 20.45 -69.25 19.85 -69.6 19.45 -69.95 19.1 -70.35 18.7 -70.65 18.35 -71.0 17.95 -71.35 17.55 -71.7 17.15 -72.0 16.8 -72.3 16.35 -72.6 15.95 -72.95 15.55 -73.2 15.1 -73.5 14.7 -73.8 14.25 -74.05 13.8 -74.3 13.35 -74.55 12.9 -74.8 12.4 -75.05 11.95 -75.25 11.5 -75.5 11.0 -75.7 10.55 -75.9 10.05 -76.1 9.55 -76.3 9.1 -76.5 8.6 -76.7 8.1 -76.85 7.6 -77.0 7.1 -77.15 6.6 -77.3 6.1 -77.45 5.55 -77.55 5.25 -77.6 4.95 -77.7 4.65 -77.75 4.35 -77.85 4.05 -77.9 3.75 -77.95 3.45 -78.05 3.15 -78.1 2.85 -78.15 2.55 -78.2 2.25 -78.25 1.95 -78.3 1.65 -78.35 1.35 -78.35 1.0 -78.4 0.7 -78.6 -1.8 -78.55 -2.75 -78.55 -3.25 -78.5 -3.7 -78.5 -4.2 -78.45 -4.65 -78.4 -5.15 -78.35 -5.6 -78.3 -6.1 -78.2 -6.55 -78.15 -7.0 -78.05 -7.5 -77.95 -7.95 -77.85 -8.4 -77.75 -8.9 -77.6 -9.35 -77.45 -9.8 -77.3 -10.25 -77.25 -10.4 -77.2 -10.5 -77.15 -10.65 -77.1 -10.75 -77.05 -10.9 -77.0 -11.05 -76.95 -11.15 -76.9 -11.3 -76.85 -11.4 -76.8 -11.55 -76.75 -11.7 -76.7 -11.8 -76.65 -11.95 -76.6 -12.05 -76.5 -12.2 -76.45 -12.3 -76.25 -12.8 -76.0 -13.25 -75.8 -13.7 -75.55 -14.15 -75.3 -14.6 -75.05 -15.05 -74.8 -15.5 -74.55 -15.95 -74.3 -16.4 -74.05 -16.8 -73.75 -17.25 -73.5 -17.7 -73.2 -18.1 -72.9 -18.55 -72.6 -18.95 -72.3 -19.35 -72.15 -19.55 -72.0 -19.75 -71.85 -19.95 -71.7 -20.15 -71.55 -20.3 -71.35 -20.5 -71.2 -20.7 -71.05 -20.85 -70.85 -21.05 -70.7 -21.2 -70.55 -21.4 -70.35 -21.55 -70.15 -21.75 -70.0 -21.9 -69.8 -22.1 -69.65 -22.25 -66.95 -24.55 -66.4 -25.0 -66.15 -25.2 -65.9 -25.4 -65.65 -25.55 -65.4 -25.75 -65.15 -25.9 -64.9 -26.1 -64.6 -26.25 -64.35 -26.4 -64.1 -26.6 -63.8 -26.75 -63.55 -26.9 -63.25 -27.05 -63.0 -27.2 -62.7 -27.35 -62.45 -27.5 -62.15 -27.7 -61.8 -27.9 -61.45 -28.05 -61.1 -28.25 -60.75 -28.4 -60.4 -28.55 -60.05 -28.75 -59.7 -28.9 -59.35 -29.05 -59.0 -29.2 -58.65 -29.35 -58.25 -29.5 -57.9 -29.65 -57.55 -29.75 -57.15 -29.9 -56.8 -30.05 -56.4 -30.15 -56.0 -30.3 -55.65 -30.4 -55.25 -30.5 -54.85 -30.6 -54.45 -30.7 -54.05 -30.8 -53.7 -30.85 -53.3 -30.95 -52.9 -31.0 -52.5 -31.05 -52.1 -31.1 -51.7 -31.15 -51.3 -31.2 -50.9 -31.25 -50.5 -31.25 -50.05 -31.25 -49.8 -31.25 -49.55 -31.25 -49.3 -31.3 -49.05 -31.3 -48.8 -31.3 -48.55 -31.3 -48.3 -31.3 -48.05 -31.3 -47.8 -31.3 -47.55 -31.25 -47.3 -31.25 -47.05 -31.25 -46.8 -31.25 -46.55 -31.2 -46.3 -31.2 -46.05 -31.15 -45.7 -31.1 -45.3 -31.1 -44.95 -31.05 -44.6 -31.0 -44.25 -30.9 -43.85 -30.85 -43.5 -30.8 -43.15 -30.7 -42.8 -30.6 -42.45 -30.55 -42.1 -30.45 -41.75 -30.35 -41.4 -30.25 -41.05 -30.1 -40.7 -30.0 -40.35 -29.9 -40.1 -29.8 -39.85 -29.7 -39.6 -29.6 -39.35 -29.5 -39.1 -29.4 -38.85 -29.3 -38.6 -29.2 -38.35 -29.1 -38.1 -29.0 -37.85 -28.85 -37.6 -28.75 -37.4 -28.65 -37.15 -28.5 -36.9 -28.4 -36.65 -28.25 -36.45 -28.15 -36.25 -28.05 -36.05 -27.9 -35.85 -27.8 -35.65 -27.65 -35.45 -27.55 -35.3 -27.4 -35.1 -27.25 -34.9 -27.1 -34.75 -27.0 -34.55 -26.85 -34.35 -26.7 -34.2 -26.55 -34.0 -26.4 -33.85 -26.25 -33.65 -26.1 -33.5 -25.95 -33.3 -25.75 -33.1 -25.55 -32.9 -25.35 -32.7 -25.2 -32.5 -24.95 -32.3 -24.8 -32.1 -24.6 -31.9 -24.4 -31.7 -24.15 -31.5 -23.95 -31.3 -23.75 -31.15 -23.55 -30.95 -23.35 -30.75 -23.15 -30.6 -22.9 -30.4 -22.7 -30.4 -22.7 -28.6 -20.3 -28.5 -20.15 -28.4 -19.95 -27.6 -20.2 -27.35 -20.3 -27.1 -20.35 -26.8 -20.4 -26.55 -20.4 -26.3 -20.4 -26.05 -20.4 -25.8 -20.35 -25.55 -20.35 -25.3 -20.25 -25.1 -20.2 -24.85 -20.1 -24.65 -20.0 -24.4 -19.85 -24.2 -19.7 -24.0 -19.55 -23.75 -19.4 -23.55 -19.25 -23.4 -19.1 -23.3 -19.0 -23.15 -18.85 -23.05 -18.7 -22.95 -18.55 -22.85 -18.4 -22.75 -18.25 -22.65 -18.05 -22.6 -17.9 -22.5 -17.75 -22.45 -17.55 -22.35 -17.4 -22.3 -17.25 -22.25 -17.05 -22.2 -16.9 -22.15 -16.7 -22.05 -16.45 -21.8 -15.1 -21.2 -14.95 -21.15 -14.9 -20.95 -14.85 -20.75 -14.7 -20.55 -14.6 -20.4 -14.45 -20.2 -14.3 -20.05 -14.1 -19.85 -13.9 -19.75 -13.65 -19.6 -13.45 -19.5 -13.2 -19.4 -12.95 -19.35 -12.7 -19.3 -12.4 -19.3 -12.15 -19.3 -11.9 -19.35 -11.6 -19.4 -11.45 -19.45 -11.3 -19.45 -11.15 -19.5 -11.0 -19.55 -10.85 -19.65 -10.75 -19.7 -10.6 -19.75 -10.45 -19.85 -10.35 -19.95 -10.2 -20.0 -10.1 -20.1 -10.0 -20.2 -9.85 -20.35 -9.75 -20.45 -9.65 -20.6 -9.55 -20.6 -9.55 -20.65 -9.5 -20.65 -9.5 -20.7 -9.5 -20.7 -9.45 -20.75 -9.45 -20.75 -9.45 -20.8 -9.4 -20.8 -9.4 -20.85 -9.4 -20.9 -9.35 -20.9 -9.35 -20.95 -9.35 -20.95 -9.3 -21.0 -9.3 -21.0 -9.3 -21.1 -9.25 -21.2 -9.2 -21.3 -9.2 -21.45 -9.2 -21.55 -9.2 -21.65 -9.2 -21.75 -9.2 -21.85 -9.25 -21.95 -9.3 -22.05 -9.35 -22.15 -9.4 -22.25 -9.45 -22.3 -9.55 -22.35 -9.6 -22.45 -9.7 -22.5 -9.8 -22.5 -9.85 -22.55 -9.9 -22.55 -9.9 -22.55 -9.95 -22.55 -10.0 -22.55 -10.05 -22.55 -10.05 -22.55 -10.1 -22.55 -10.15 -22.55 -10.2 -22.55 -10.2 -22.55 -10.25 -22.55 -10.3 -22.5 -10.3 -22.5 -10.35 -22.5 -10.4 -22.45 -10.45 -22.35 -10.6 -22.25 -10.75 -22.2 -10.8 -22.15 -10.9 -22.05 -10.95 -22.0 -11.05 -21.95 -11.1 -21.9 -11.2 -21.85 -11.25 -21.8 -11.35 -21.75 -11.45 -21.7 -11.5 -21.65 -11.6 -21.6 -11.7 -21.6 -11.8 -21.55 -11.9 -21.55 -12.0 -21.55 -12.1 -21.5 -12.2 -21.5 -12.25 -21.5 -12.3 -21.5 -12.4 -21.5 -12.4 -21.5 -12.4 -21.5 -12.5 -21.5 -12.55 -21.55 -12.6 -21.55 -12.65 -21.55 -12.7 -21.6 -12.7 -21.6 -12.75 -21.65 -12.8 -21.7 -12.8 -21.75 -12.8 -21.75 -12.8 -21.8 -12.8 -21.85 -12.8 -21.85 -12.8 -21.9 -12.8 -21.95 -12.8 -21.95 -12.8 -22.0 -12.8 -22.0 -12.8 -22.05 -12.8 -22.1 -12.75 -22.1 -12.75 -22.15 -12.7 -22.15 -12.7 -22.2 -12.65 -22.25 -12.6 -22.35 -12.45 -22.45 -12.3 -22.55 -12.25 -22.55 -12.2 -22.6 -12.2 -22.6 -12.15 -22.65 -12.15 -22.65 -12.1 -22.7 -12.1 -22.7 -12.05 -22.7 -12.05 -22.75 -12.0 -22.75 -12.0 -22.8 -11.95 -22.8 -11.95 -22.85 -11.95 -22.85 -11.9 -22.9 -11.9 -22.9 -11.85 -23.0 -11.8 -23.1 -11.75 -23.15 -11.75 -23.25 -11.75 -23.35 -11.75 -23.45 -11.75 -23.5 -11.75 -23.6 -11.8 -23.7 -11.8 -23.75 -11.85 -23.85 -11.9 -23.9 -11.95 -23.95 -12.0 -24.0 -12.1 -24.05 -12.2 -24.1 -12.25 -24.1 -12.3 -24.1 -12.3 -24.1 -12.35 -24.15 -12.4 -24.15 -12.4 -24.15 -12.45 -24.15 -12.5 -24.15 -12.5 -24.15 -12.55 -24.15 -12.6 -24.15 -12.65 -24.15 -12.65 -24.15 -12.7 -24.15 -12.7 -24.15 -12.75 -24.15 -12.8 -24.15 -13.0 -24.1 -13.2 -24.1 -13.35 -24.1 -13.55 -24.1 -13.75 -24.1 -13.95 -24.1 -14.15 -24.1 -14.3 -24.1 -14.5 -24.1 -14.7 -24.1 -14.9 -24.15 -15.1 -24.15 -15.25 -24.2 -15.45 -24.2 -15.65 -24.25 -15.85 -24.25 -15.95 -24.3 -16.05 -24.3 -16.1 -24.35 -16.2 -24.35 -16.3 -24.4 -16.4 -24.4 -16.5 -24.45 -16.55 -24.5 -16.65 -24.5 -16.75 -24.55 -16.8 -24.6 -16.9 -24.65 -17.0 -24.7 -17.1 -24.7 -17.15 -24.75 -17.25 -24.8 -17.35 -24.85 -17.4 -24.9 -17.45 -24.95 -17.55 -25.0 -17.6 -25.1 -17.65 -25.15 -17.7 -25.2 -17.75 -25.3 -17.8 -25.35 -17.85 -25.45 -17.9 -25.5 -17.9 -25.6 -17.95 -25.65 -18.0 -25.75 -18.0 -25.85 -18.0 -25.95 -18.05 -26.05 -18.05 -26.1 -18.05 -26.2 -18.1 -26.3 -18.1 -26.4 -18.1 -26.5 -18.1 -26.55 -18.1 -26.65 -18.1 -26.75 -18.1 -26.85 -18.05 -26.95 -18.05 -27.05 -18.05 -27.1 -18.0 -27.2 -17.95 -27.3 -17.95 -27.2 -17.65 -26.85 -16.75 -26.75 -16.45 -26.6 -16.15 -26.5 -15.8 -26.4 -15.5 -26.3 -15.2 -26.25 -14.9 -26.15 -14.55 -26.05 -14.25 -26.0 -13.95 -25.9 -13.6 -25.85 -13.3 -25.8 -12.95 -25.75 -12.65 -25.65 -12.3 -25.6 -12.0 -25.55 -11.65 -25.55 -11.55 -25.55 -11.45 -25.55 -11.35 -25.55 -11.25 -25.55 -11.15 -25.6 -11.1 -25.6 -11.0 -25.65 -10.9 -25.7 -10.8 -25.75 -10.75 -25.8 -10.65 -25.85 -10.6 -25.9 -10.5 -26.0 -10.45 -26.05 -10.35 -26.15 -10.3 -26.25 -10.2 -26.4 -10.15 -26.5 -10.15 -26.6 -10.1 -26.75 -10.1 -26.85 -10.1 -26.95 -10.15 -27.05 -10.15 -27.15 -10.2 -27.25 -10.25 -27.35 -10.35 -27.45 -10.4 -27.5 -10.5 -27.6 -10.55 -27.65 -10.65 -27.7 -10.75 -27.7 -10.8 -27.75 -10.8 -27.75 -10.85 -27.8 -10.9 -27.8 -10.95 -27.8 -11.0 -27.8 -11.0 -27.85 -11.05 -27.85 -11.1 -27.85 -11.15 -27.85 -11.2 -27.85 -11.25 -27.9 -11.25 -27.9 -11.3 -27.9 -11.35 -27.9 -11.4 -27.95 -11.9 -28.05 -12.4 -28.1 -12.9 -28.2 -13.4 -28.3 -13.9 -28.45 -14.4 -28.55 -14.85 -28.7 -15.35 -28.9 -15.85 -29.05 -16.3 -29.25 -16.75 -29.45 -17.2 -29.65 -17.65 -29.9 -18.1 -30.15 -18.55 -30.45 -19.0 -30.6 -19.25 -30.75 -19.45 -30.9 -19.7 -31.05 -19.9 -31.2 -20.15 -31.35 -20.35 -31.5 -20.55 -31.7 -20.8 -31.85 -21.0 -32.0 -21.2 -32.2 -21.4 -32.35 -21.6 -32.55 -21.8 -32.7 -22.05 -32.9 -22.25 -33.1 -22.45 -33.3 -22.7 -33.5 -22.9 -33.7 -23.1 -33.9 -23.3 -34.15 -23.55 -34.35 -23.75 -34.55 -23.95 -34.75 -24.15 -35.0 -24.35 -35.2 -24.55 -35.45 -24.75 -35.7 -24.9 -35.9 -25.1 -36.15 -25.3 -36.4 -25.45 -36.65 -25.65 -36.9 -25.8 -37.15 -25.95 -37.4 -26.1 -37.65 -26.25 -37.95 -26.4 -38.2 -26.55 -38.45 -26.7 -38.75 -26.8 -39.0 -26.95 -39.3 -27.05 -39.55 -27.15 -39.85 -27.3 -40.1 -27.4 -40.4 -27.5 -40.65 -27.6 -40.95 -27.7 -41.5 -27.9 -42.05 -28.05 -42.6 -28.25 -43.15 -28.35 -43.7 -28.5 -44.3 -28.6 -44.85 -28.7 -45.4 -28.75 -45.95 -28.85 -46.55 -28.9 -47.1 -28.95 -47.65 -28.95 -48.25 -28.95 -48.8 -28.95 -49.4 -28.95 -49.95 -28.95 -51.95 -28.85 -53.15 -28.65 -53.45 -28.6 -53.75 -28.55 -54.0 -28.5 -54.3 -28.4 -54.6 -28.35 -54.9 -28.25 -55.15 -28.2 -55.45 -28.1 -55.75 -28.0 -56.05 -27.9 -56.3 -27.8 -56.6 -27.7 -56.85 -27.6 -57.15 -27.5 -57.45 -27.4 -57.7 -27.3 -58.15 -27.15 -58.55 -26.95 -59.0 -26.75 -59.45 -26.55 -59.85 -26.35 -60.3 -26.15 -60.7 -25.95 -61.1 -25.7 -61.5 -25.5 -61.95 -25.25 -62.35 -25.05 -62.75 -24.8 -63.15 -24.55 -63.55 -24.3 -63.9 -24.05 -64.3 -23.75 -65.6 -22.85 -67.55 -21.15 -67.75 -21.0 -67.9 -20.85 -68.1 -20.65 -68.25 -20.5 -68.45 -20.35 -68.6 -20.2 -68.8 -20.0 -68.95 -19.85 -69.1 -19.65 -69.3 -19.5 -69.45 -19.3 -69.6 -19.15 -69.75 -18.95 -69.95 -18.8 -70.1 -18.6 -70.25 -18.4 -70.4 -18.2 -70.55 -17.95 -70.75 -17.75 -70.9 -17.55 -71.05 -17.35 -71.2 -17.1 -71.35 -16.9 -71.5 -16.65 -71.65 -16.45 -71.8 -16.2 -71.95 -16.0 -72.1 -15.75 -72.2 -15.55 -72.35 -15.3 -72.5 -15.05 -72.65 -14.85 -74.15 -12.15 -74.85 -10.35 -74.95 -10.05 -75.05 -9.8 -75.2 -9.5 -75.25 -9.2 -75.35 -8.9 -75.45 -8.65 -75.55 -8.35 -75.6 -8.05 -75.65 -7.75 -75.75 -7.45 -75.8 -7.15 -75.85 -6.9 -75.9 -6.6 -75.95 -6.3 -75.95 -6.0 -76.0 -5.7 -76.2 -3.65 -76.2 -2.4 -76.2 -2.0 -76.2 -1.6 -76.2 -1.2 -76.15 -0.8 -76.15 -0.4 -76.15 -0.05 -76.1 0.35 -76.05 0.75 -76.05 1.15 -76.0 1.55 -75.95 1.95 -75.85 2.3 -75.8 2.7 -75.75 3.1 -75.65 3.5 -75.55 3.85 -75.45 4.25 -75.35 4.6 -75.25 5.0 -75.15 5.4 -75.05 5.75 -74.95 6.15 -74.85 6.5 -74.7 6.9 -74.6 7.25 -74.45 7.6 -74.3 8.0 -74.2 8.35 -74.05 8.75 -73.9 9.1 -73.75 9.45 -73.6 9.8 -73.4 10.3 -73.15 10.75 -72.9 11.25 -72.65 11.7 -72.45 12.15 -72.15 12.6 -71.9 13.05 -71.6 13.5 -71.35 13.9 -71.05 14.35 -70.75 14.75 -70.4 15.2 -70.1 15.6 -69.75 16.0 -69.45 16.4 -69.1 16.8 -68.65 17.3 -68.2 17.8 -67.75 18.25 -67.25 18.7 -66.8 19.15 -66.3 19.55 -65.8 20.0 -65.25 20.4 -64.75 20.8 -64.2 21.15 -63.7 21.55 -63.1 21.9 -62.6 22.25 -62.0 22.6 -61.45 22.95 -60.85 23.25 -60.6 23.4 -60.35 23.5 -60.1 23.65 -59.9 23.75 -59.65 23.9 -59.4 24.0 -59.15 24.15 -58.9 24.25 -58.65 24.35 -58.4 24.5 -58.15 24.6 -57.9 24.7 -57.6 24.8 -57.35 24.9 -57.1 24.95 -56.85 25.05 -56.8 25.05 -56.75 25.1 -56.7 25.1 -56.65 25.15 -56.6 25.15 -56.55 25.2 -56.5 25.25 -56.45 25.3 -56.4 25.3 -56.35 25.35 -56.3 25.4 -56.3 25.45 -56.25 25.5 -56.2 25.5 -56.15 25.55 -56.15 25.6 -56.1 25.7 -56.05 25.8 -56.0 25.9 -56.0 26.0 -55.95 26.05 -55.95 26.15 -55.95 26.25 -56.0 26.35 -56.0 26.45 -56.05 26.55 -56.1 26.65 -56.15 26.7 -56.2 26.8 -56.25 26.9 -56.35 26.95 -56.4 27.0 -56.45 27.05 -56.55 27.1 -56.6 27.15 -56.65 27.15 -56.7 27.2 -56.8 27.25 -56.85 27.25 -56.9 27.3 -57.0 27.3 -57.05 27.3 -57.15 27.3 -57.2 27.3 -57.3 27.3 -57.35 27.25 -57.45 27.25 -57.5 27.2 -59.85 26.25 -60.2 26.05 -60.85 25.75 -63.0 24.6 -63.1 24.55 -63.1 24.55 -63.15 24.5 -63.2 24.5 -63.25 24.5 -63.3 24.45 -63.3 24.45 -63.35 24.45 -63.35 24.45 -63.4 24.45 -63.45 24.5 -63.45 24.5 -63.5 24.55 -63.55 24.55 -63.55 24.6 -63.6 24.65 -63.65 24.7 -63.7 24.75 -63.75 24.8 -63.8 24.85 -63.85 24.9 -63.9 24.95 -63.95 25.0 -63.95 25.05 -64.0 25.1 -64.05 25.15 -64.1 25.2 -64.15 25.25 -64.15 25.35 -64.2 25.4 -64.25 25.45 -64.3 25.5 -64.35 25.6 -64.4 25.7 -64.4 25.8 -64.45 25.9 -64.45 26.0 -64.5 26.1 -64.5 26.2 -64.5 26.3 -64.5 26.4 -64.5 26.5 -64.45 26.6 -64.45 26.7 -64.4 26.75 -64.4 26.85 -64.35 26.95 -64.3 27.05 -64.2 27.25 -64.1 27.45 -64.0 27.65 -63.85 27.8 -63.75 28.0 -63.6 28.15 -63.45 28.3 -63.3 28.45 -63.15 28.55 -63.0 28.7 -62.8 28.8 -62.65 28.95 -62.45 29.05 -62.25 29.15 -62.05 29.2 -61.85 29.3 -61.7 29.35 -61.6 29.4 -61.45 29.4 -61.35 29.45 -61.2 29.5 -61.1 29.5 -60.95 29.55 -60.8 29.55 -60.7 29.6 -60.55 29.6 -60.4 29.6 -60.3 29.65 -60.15 29.65 -60.0 29.65 -59.9 29.65 -59.75 29.65 -59.65 29.65 -59.55 29.65 -59.4 29.7 -59.3 29.75 -59.2 29.75 -59.1 29.85 -59.0 29.9 -58.95 29.95 -58.85 30.05 -58.8 30.15 -58.7 30.25 -58.65 30.3 -58.6 30.4 -58.6 30.55 -58.55 30.65 -58.55 30.75 -58.55 30.85 -58.55 30.9 -58.55 31.0 -58.6 31.05 -58.6 31.15 -58.6 31.2 -58.65 31.25 -58.7 31.3 -58.75 31.4 -58.75 31.45 -58.8 31.5 -58.85 31.55 -58.95 31.6 -59.0 31.65 -59.05 31.7 -59.1 31.75 -59.15 31.8 -59.2 31.8 -59.25 31.85 -59.3 31.85 -59.4 31.9 -59.45 31.9 -59.5 31.9 -59.55 31.95 -59.6 31.95 -59.65 31.95 -59.75 31.95 -59.8 32.0 -59.85 32.0 -59.9 32.0 -59.95 32.0 -60.0 32.0 -60.2 32.0 -60.45 31.95 -60.65 31.95 -60.85 31.9 -61.1 31.85 -61.3 31.8 -61.5 31.75 -61.7 31.7 -61.95 31.65 -62.15 31.6 -62.35 31.55 -62.55 31.45 -62.75 31.4 -62.95 31.3 -63.15 31.2 -63.3 31.1 -63.6 30.95 -63.85 30.8 -64.1 30.65 -64.35 30.45 -64.6 30.25 -64.8 30.05 -65.0 29.85 -65.2 29.65 -65.4 29.45 -65.6 29.2 -65.8 28.95 -65.95 28.7 -66.1 28.45 -66.25 28.2 -66.4 27.9 -66.5 27.65 -66.6 27.45 -66.65 27.2 -66.7 27.0 -66.75 26.8 -66.8 26.6 -66.8 26.35 -66.8 26.15 -66.75 25.95 -66.75 25.75 -66.7 25.55 -66.65 25.35 -66.55 25.15 -66.5 24.95 -66.4 24.75 -66.3 24.55 -66.2 24.35 -66.05 24.1 -65.75 23.75 -65.3 23.15 -65.3 23.15 L-65.3 23.15" fill="#000000" fill-rule="evenodd" stroke="none"/>
    <path d="M-63.8 -2.7 Q-64.1 -3.45 -64.2 -3.65 -64.25 -3.8 -64.3 -4.0 -64.35 -4.15 -64.4 -4.3 -64.45 -4.45 -64.5 -4.65 -64.5 -4.8 -64.55 -4.95 -64.55 -5.15 -64.6 -5.3 -64.6 -5.45 -64.6 -5.65 -64.65 -5.8 -64.65 -5.95 -64.65 -6.15 -64.6 -6.3 -64.6 -6.6 -64.55 -6.95 -64.5 -7.25 -64.45 -7.55 -64.4 -7.8 -64.3 -8.1 -64.2 -8.4 -64.05 -8.65 -63.95 -8.9 -63.8 -9.15 -63.6 -9.4 -63.45 -9.65 -63.25 -9.9 -63.0 -10.1 -62.8 -10.3 -62.55 -10.5 -62.35 -10.65 -62.2 -10.75 -62.0 -10.9 -61.8 -11.0 -61.6 -11.1 -61.4 -11.2 -61.2 -11.3 -61.0 -11.4 -60.8 -11.5 -60.6 -11.6 -60.4 -11.65 -60.2 -11.7 -60.0 -11.8 -59.8 -11.85 -59.55 -11.9 -59.35 -11.9 -59.25 -11.9 -59.2 -11.9 -59.1 -11.95 -59.0 -11.95 -58.95 -11.95 -58.85 -11.95 -58.8 -11.95 -58.7 -11.95 -58.6 -11.95 -58.55 -11.95 -58.45 -11.9 -58.4 -11.9 -58.3 -11.9 -58.2 -11.9 -58.15 -11.85 -58.05 -11.85 -57.8 -11.8 -57.55 -11.7 -57.3 -11.65 -57.1 -11.55 -56.85 -11.5 -56.65 -11.35 -56.4 -11.25 -56.2 -11.15 -56.0 -11.05 -55.75 -10.9 -55.55 -10.75 -55.35 -10.6 -55.15 -10.45 -54.95 -10.3 -54.8 -10.15 -54.6 -9.95 -53.9 -9.3 -52.5 -7.3 -51.85 -6.4 -50.55 -4.6 -49.25 -2.8 -48.6 -1.9 -48.4 -1.6 -48.2 -1.35 -48.0 -1.05 -47.8 -0.8 -47.55 -0.55 -47.35 -0.25 -47.15 0.0 -46.9 0.25 -46.7 0.55 -46.45 0.8 -46.25 1.05 -46.0 1.3 -45.75 1.55 -45.55 1.75 -45.3 2.0 -45.05 2.25 -44.85 2.45 -44.8 2.5 -44.6 2.65 -44.5 2.75 -44.35 2.9 -44.2 3.0 -44.05 3.1 -43.95 3.25 -43.8 3.35 -43.65 3.45 -43.5 3.55 -43.35 3.65 -43.2 3.75 -43.05 3.85 -42.9 3.95 -42.7 4.05 -42.5 4.15 -42.3 4.25 -42.1 4.35 -41.95 4.4 -41.75 4.5 -41.55 4.55 -41.35 4.65 -41.15 4.7 -40.95 4.75 -40.7 4.85 -40.5 4.9 -40.3 4.95 -40.1 4.95 -39.9 5.0 -39.65 5.05 -39.45 5.05 -39.05 5.1 -38.4 5.3 -38.35 5.3 -38.35 5.3 -38.3 5.35 -38.25 5.35 -38.25 5.35 -38.2 5.35 -38.15 5.4 -38.15 5.4 -38.1 5.4 -38.1 5.4 -38.05 5.45 -38.0 5.45 -38.0 5.45 -37.95 5.5 -37.95 5.5 -37.9 5.55 -37.8 5.65 -37.7 5.7 -37.6 5.8 -37.55 5.9 -37.5 6.0 -37.45 6.05 -37.4 6.15 -37.4 6.25 -37.35 6.35 -37.4 6.45 -37.4 6.55 -37.4 6.65 -37.45 6.75 -37.5 6.85 -37.55 7.0 -37.6 7.1 -37.65 7.2 -37.75 7.3 -37.8 7.35 -37.9 7.45 -37.95 7.55 -38.05 7.6 -38.1 7.7 -38.2 7.75 -38.3 7.8 -38.35 7.9 -38.45 7.95 -38.55 8.0 -38.65 8.05 -38.75 8.1 -38.85 8.15 -38.95 8.2 -40.55 8.9 -44.1 10.0 -44.55 10.15 -45.95 10.6 -47.15 11.0 -47.85 11.2 -48.25 11.3 -48.65 11.4 -49.0 11.5 -49.4 11.6 -49.8 11.7 -50.2 11.8 -50.6 11.85 -51.0 11.95 -51.4 12.0 -51.8 12.05 -52.2 12.15 -52.6 12.2 -53.0 12.25 -53.4 12.3 -53.8 12.3 -54.2 12.35 -54.6 12.4 -55.0 12.4 -55.4 12.4 -55.75 12.45 -56.15 12.45 -56.55 12.4 -56.95 12.4 -57.35 12.4 -57.75 12.35 -58.1 12.35 -58.5 12.3 -58.9 12.25 -59.3 12.2 -59.65 12.1 -60.05 12.05 -60.45 11.95 -60.95 11.85 -61.45 11.7 -61.9 11.55 -62.35 11.4 -62.85 11.25 -63.3 11.05 -63.75 10.85 -64.15 10.6 -64.6 10.35 -65.0 10.1 -65.4 9.85 -65.8 9.55 -66.2 9.2 -66.55 8.9 -66.9 8.55 -67.25 8.2 -67.45 8.0 -67.6 7.8 -67.75 7.6 -67.9 7.4 -68.05 7.2 -68.2 7.0 -68.35 6.8 -68.5 6.6 -68.6 6.4 -68.7 6.15 -68.85 5.95 -68.9 5.7 -69.0 5.45 -69.1 5.25 -69.2 5.0 -69.25 4.75 -69.3 4.45 -69.35 4.2 -69.4 3.9 -69.4 3.6 -69.45 3.35 -69.4 3.05 -69.4 2.8 -69.35 2.55 -69.3 2.25 -69.25 2.0 -69.2 1.75 -69.1 1.45 -69.0 1.2 -68.9 0.95 -68.8 0.7 -68.65 0.45 -68.55 0.25 -68.45 0.1 -68.35 -0.1 -68.25 -0.25 -68.15 -0.4 -68.0 -0.55 -67.9 -0.7 -67.75 -0.85 -67.6 -1.0 -67.5 -1.15 -67.35 -1.3 -67.2 -1.4 -67.05 -1.55 -66.85 -1.65 -66.7 -1.8 -66.55 -1.9 -66.4 -2.0 -66.3 -2.05 -66.15 -2.1 -66.0 -2.2 -65.9 -2.25 -65.75 -2.3 -65.6 -2.35 -65.45 -2.4 -65.35 -2.45 -65.2 -2.5 -65.05 -2.55 -64.9 -2.55 -64.75 -2.6 -64.6 -2.6 -64.45 -2.65 -64.3 -2.65 -64.15 -2.7 -63.8 -2.7 L-63.8 -2.7 M-41.1 6.85 Q-41.3 6.8 -41.5 6.75 -41.75 6.65 -42.0 6.6 -42.25 6.5 -42.5 6.4 -42.75 6.3 -43.0 6.15 -43.25 6.05 -43.5 5.95 -43.75 5.8 -43.95 5.7 -44.2 5.55 -44.4 5.4 -44.65 5.25 -44.85 5.1 -45.05 4.95 -45.25 4.75 -45.5 4.55 -45.7 4.35 -45.95 4.15 -46.2 3.9 -46.4 3.7 -46.65 3.5 -46.85 3.25 -47.1 3.05 -47.3 2.85 -47.5 2.6 -47.75 2.4 -47.95 2.15 -48.15 1.9 -48.35 1.7 -48.55 1.45 -48.75 1.2 -50.35 -0.75 -53.15 -4.75 -53.3 -4.95 -53.4 -5.15 -53.55 -5.35 -53.7 -5.5 -53.85 -5.7 -53.95 -5.9 -54.1 -6.1 -54.25 -6.3 -54.4 -6.5 -54.5 -6.7 -54.65 -6.85 -54.8 -7.05 -54.95 -7.25 -55.1 -7.45 -55.25 -7.65 -55.4 -7.85 -55.5 -8.0 -55.65 -8.15 -55.8 -8.3 -55.9 -8.45 -56.05 -8.6 -56.2 -8.7 -56.35 -8.85 -56.55 -8.95 -56.7 -9.1 -56.85 -9.2 -57.05 -9.3 -57.2 -9.4 -57.4 -9.5 -57.6 -9.55 -57.75 -9.65 -57.95 -9.7 -58.05 -9.75 -58.15 -9.75 -58.25 -9.8 -58.4 -9.8 -58.5 -9.85 -58.6 -9.85 -58.7 -9.85 -58.8 -9.85 -58.9 -9.85 -59.0 -9.85 -59.1 -9.85 -59.2 -9.85 -59.35 -9.85 -59.45 -9.8 -59.55 -9.8 -59.65 -9.75 -59.8 -9.7 -59.9 -9.65 -60.05 -9.6 -60.15 -9.55 -60.3 -9.5 -60.4 -9.45 -60.5 -9.4 -60.65 -9.35 -60.75 -9.3 -60.85 -9.2 -61.0 -9.15 -61.1 -9.05 -61.2 -9.0 -61.3 -8.9 -61.4 -8.8 -61.5 -8.75 -61.6 -8.65 -61.65 -8.6 -61.75 -8.5 -61.8 -8.45 -61.9 -8.35 -61.95 -8.25 -62.0 -8.2 -62.05 -8.1 -62.15 -8.0 -62.15 -7.9 -62.2 -7.8 -62.25 -7.7 -62.3 -7.6 -62.35 -7.5 -62.35 -7.4 -62.4 -7.3 -62.45 -7.0 -62.5 -6.7 -62.55 -6.4 -62.55 -6.1 -62.55 -5.85 -62.55 -5.55 -62.5 -5.25 -62.45 -5.0 -62.4 -4.7 -62.35 -4.4 -62.25 -4.15 -62.15 -3.9 -62.05 -3.6 -61.9 -3.35 -61.75 -3.1 -61.6 -2.8 -61.45 -2.6 -61.15 -2.2 -60.85 -1.85 -60.7 -1.65 -60.65 -1.6 -60.6 -1.55 -60.6 -1.45 -60.55 -1.4 -60.55 -1.35 -60.55 -1.3 -60.5 -1.25 -60.5 -1.2 -60.5 -1.1 -60.5 -1.05 -60.5 -1.0 -60.5 -0.95 -60.55 -0.9 -60.55 -0.85 -60.55 -0.8 -60.6 -0.75 -60.65 -0.7 -60.7 -0.65 -60.75 -0.6 -60.8 -0.55 -60.85 -0.5 -60.9 -0.45 -60.95 -0.45 -61.0 -0.4 -61.05 -0.4 -61.1 -0.4 -61.2 -0.35 -61.25 -0.35 -61.3 -0.35 -61.4 -0.35 -61.45 -0.4 -61.5 -0.4 -61.65 -0.45 -61.75 -0.45 -61.9 -0.5 -62.0 -0.5 -62.15 -0.55 -62.3 -0.55 -62.4 -0.55 -62.55 -0.6 -62.65 -0.6 -62.8 -0.6 -62.9 -0.6 -63.05 -0.6 -63.2 -0.6 -63.3 -0.6 -63.45 -0.6 -63.6 -0.65 -63.7 -0.65 -63.85 -0.65 -63.95 -0.65 -64.05 -0.6 -64.2 -0.6 -64.3 -0.6 -64.4 -0.55 -64.55 -0.55 -64.65 -0.5 -64.75 -0.5 -64.9 -0.45 -65.0 -0.4 -65.1 -0.35 -65.2 -0.3 -65.3 -0.25 -65.45 -0.2 -65.7 -0.05 -65.9 0.15 -66.15 0.35 -66.35 0.55 -66.55 0.8 -66.7 1.05 -66.85 1.3 -67.0 1.6 -67.1 1.85 -67.2 2.15 -67.25 2.45 -67.3 2.8 -67.35 3.15 -67.35 3.45 -67.35 3.8 -67.25 4.15 -67.25 4.3 -67.2 4.5 -67.15 4.65 -67.1 4.8 -67.05 4.95 -67.0 5.1 -66.9 5.25 -66.85 5.4 -66.75 5.55 -66.7 5.7 -66.6 5.8 -66.5 5.95 -66.4 6.1 -66.3 6.2 -66.2 6.35 -66.1 6.45 -65.9 6.7 -65.65 6.95 -65.45 7.15 -65.2 7.4 -64.95 7.6 -64.7 7.8 -64.45 8.0 -64.2 8.2 -63.95 8.35 -63.7 8.55 -63.4 8.7 -63.15 8.85 -62.85 9.0 -62.55 9.15 -62.3 9.25 -61.95 9.4 -61.6 9.55 -61.25 9.65 -60.9 9.75 -60.55 9.85 -60.2 9.95 -59.85 10.0 -59.5 10.05 -59.15 10.15 -58.8 10.2 -58.45 10.25 -58.1 10.25 -57.7 10.3 -57.35 10.3 -57.0 10.35 -56.65 10.35 -56.25 10.35 -55.8 10.35 -55.35 10.35 -54.9 10.35 -54.45 10.3 -54.0 10.3 -53.55 10.25 -53.1 10.2 -52.65 10.15 -52.2 10.1 -51.75 10.0 -51.3 9.95 -50.9 9.85 -50.45 9.75 -50.0 9.65 -49.55 9.55 -49.1 9.4 -48.3 9.15 -41.5 7.0 -41.4 7.0 -41.1 6.85 L-41.1 6.85" fill="#000000" fill-rule="evenodd" stroke="none"/>
    <path d="M66.95 22.4 Q67.15 22.25 67.8 21.75 68.3 21.3 68.6 21.05 70.1 19.75 70.75 19.1 71.1 18.7 71.45 18.35 71.8 17.95 72.1 17.6 72.45 17.2 72.75 16.8 73.05 16.4 73.35 16.0 73.7 15.6 73.95 15.2 74.25 14.8 74.55 14.35 74.8 13.95 75.05 13.5 75.35 13.05 75.55 12.6 75.8 12.15 76.05 11.65 76.25 11.2 76.5 10.75 76.7 10.25 76.9 9.75 77.1 9.3 77.3 8.8 77.5 8.3 77.7 7.85 77.85 7.35 78.0 6.85 78.2 6.35 78.3 5.85 78.45 5.35 78.6 4.8 78.7 4.5 78.75 4.2 78.85 3.9 78.9 3.6 78.95 3.3 79.05 3.0 79.1 2.7 79.15 2.4 79.2 2.1 79.25 1.8 79.3 1.5 79.35 1.2 79.4 0.9 79.45 0.55 79.45 0.25 79.5 -0.05 79.65 -2.55 79.65 -3.5 79.65 -4.0 79.6 -4.45 79.6 -4.95 79.55 -5.4 79.5 -5.9 79.45 -6.35 79.4 -6.85 79.35 -7.3 79.25 -7.8 79.15 -8.25 79.1 -8.7 78.95 -9.15 78.85 -9.65 78.75 -10.1 78.6 -10.55 78.45 -11.0 78.4 -11.15 78.35 -11.25 78.3 -11.4 78.25 -11.55 78.2 -11.65 78.15 -11.8 78.1 -11.9 78.05 -12.05 78.0 -12.2 77.95 -12.3 77.9 -12.45 77.85 -12.55 77.8 -12.7 77.75 -12.8 77.7 -12.95 77.65 -13.05 77.45 -13.55 77.2 -14.0 77.0 -14.45 76.75 -14.9 76.55 -15.35 76.3 -15.8 76.05 -16.25 75.8 -16.7 75.55 -17.15 75.3 -17.6 75.05 -18.0 74.8 -18.45 74.5 -18.9 74.25 -19.3 73.95 -19.7 73.65 -20.1 73.5 -20.3 73.35 -20.5 73.2 -20.7 73.05 -20.9 72.9 -21.05 72.75 -21.25 72.6 -21.45 72.45 -21.6 72.3 -21.8 72.1 -22.0 71.95 -22.15 71.8 -22.35 71.6 -22.5 71.45 -22.65 71.25 -22.85 71.1 -23.0 69.0 -24.9 68.0 -25.75 67.75 -25.95 67.5 -26.15 67.3 -26.3 67.05 -26.5 66.8 -26.65 66.55 -26.85 66.3 -27.0 66.05 -27.2 65.8 -27.35 65.5 -27.5 65.25 -27.65 65.0 -27.8 64.75 -27.95 64.5 -28.15 64.25 -28.25 63.95 -28.45 63.6 -28.65 63.3 -28.8 62.95 -29.0 62.6 -29.15 62.25 -29.35 61.95 -29.5 61.6 -29.65 61.25 -29.8 60.9 -29.95 60.55 -30.1 60.2 -30.25 59.85 -30.4 59.5 -30.55 59.15 -30.65 58.8 -30.8 58.45 -30.9 58.1 -31.05 57.7 -31.15 57.35 -31.25 56.95 -31.35 56.55 -31.45 56.2 -31.55 55.8 -31.6 55.45 -31.7 55.05 -31.75 54.65 -31.8 54.3 -31.85 53.9 -31.9 53.5 -31.95 53.15 -32.0 52.75 -32.0 52.35 -32.05 52.1 -32.05 51.85 -32.05 51.65 -32.05 51.4 -32.05 51.15 -32.05 50.9 -32.05 50.65 -32.05 50.45 -32.05 50.2 -32.05 49.95 -32.05 49.7 -32.0 49.45 -32.0 49.25 -32.0 49.0 -31.95 48.75 -31.95 48.5 -31.9 48.15 -31.85 47.8 -31.85 47.45 -31.8 47.1 -31.75 46.75 -31.7 46.4 -31.6 46.05 -31.55 45.7 -31.45 45.4 -31.4 45.05 -31.3 44.7 -31.2 44.35 -31.1 44.0 -31.0 43.7 -30.85 43.35 -30.75 43.0 -30.65 42.75 -30.55 42.5 -30.45 42.3 -30.35 42.05 -30.25 41.8 -30.15 41.6 -30.05 41.35 -29.95 41.1 -29.85 40.85 -29.75 40.65 -29.65 40.4 -29.5 40.2 -29.4 39.95 -29.25 39.75 -29.15 39.5 -29.0 39.3 -28.9 39.1 -28.8 38.9 -28.65 38.75 -28.55 38.55 -28.4 38.35 -28.3 38.2 -28.15 38.0 -28.0 37.8 -27.9 37.65 -27.75 37.45 -27.6 37.3 -27.45 37.15 -27.3 36.95 -27.15 36.8 -27.0 36.65 -26.85 36.45 -26.7 36.25 -26.5 36.05 -26.3 35.85 -26.1 35.7 -25.95 35.5 -25.75 35.3 -25.55 35.1 -25.35 34.9 -25.15 34.75 -24.95 34.55 -24.75 34.35 -24.5 34.2 -24.3 34.0 -24.1 33.85 -23.9 33.65 -23.65 33.5 -23.45 33.4 -23.3 31.8 -21.05 31.75 -20.95 31.55 -20.7 31.5 -20.75 31.45 -20.75 31.35 -20.75 31.3 -20.8 31.25 -20.8 31.2 -20.85 31.15 -20.85 31.05 -20.9 31.0 -20.9 30.95 -20.95 30.9 -20.95 30.85 -20.95 30.75 -21.0 30.7 -21.0 30.65 -21.0 30.6 -21.05 30.35 -21.1 30.1 -21.15 29.85 -21.2 29.6 -21.15 29.35 -21.15 29.1 -21.1 28.85 -21.1 28.65 -21.0 28.4 -20.95 28.2 -20.85 27.95 -20.75 27.75 -20.6 27.55 -20.5 27.35 -20.3 27.15 -20.15 26.95 -20.0 26.8 -19.85 26.7 -19.75 26.55 -19.6 26.45 -19.45 26.35 -19.3 26.25 -19.15 26.15 -19.0 26.1 -18.8 26.0 -18.65 25.95 -18.5 25.85 -18.35 25.8 -18.15 25.75 -18.0 25.7 -17.8 25.6 -17.65 25.55 -17.45 25.5 -17.15 25.4 -16.65 25.3 -16.0 25.25 -15.85 24.8 -15.75 24.65 -15.7 24.45 -15.65 24.25 -15.5 24.1 -15.4 23.9 -15.2 23.7 -15.05 23.55 -14.85 23.4 -14.65 23.25 -14.45 23.15 -14.2 23.05 -13.95 22.95 -13.7 22.9 -13.45 22.85 -13.2 22.85 -12.9 22.85 -12.65 22.9 -12.4 22.95 -12.25 23.0 -12.1 23.0 -11.95 23.05 -11.8 23.1 -11.65 23.2 -11.5 23.25 -11.35 23.3 -11.25 23.4 -11.1 23.45 -11.0 23.55 -10.85 23.65 -10.75 23.75 -10.65 23.85 -10.5 23.95 -10.4 24.1 -10.3 24.1 -10.3 24.15 -10.25 24.15 -10.25 24.2 -10.25 24.2 -10.2 24.25 -10.2 24.25 -10.2 24.3 -10.15 24.3 -10.15 24.35 -10.15 24.4 -10.1 24.4 -10.1 24.45 -10.1 24.45 -10.05 24.5 -10.05 24.5 -10.05 24.6 -10.0 24.7 -9.95 24.8 -9.95 24.9 -9.95 25.0 -9.95 25.1 -9.95 25.2 -9.95 25.3 -10.0 25.4 -10.05 25.5 -10.1 25.6 -10.15 25.65 -10.25 25.75 -10.3 25.8 -10.4 25.85 -10.45 25.9 -10.55 25.9 -10.6 25.95 -10.65 25.95 -10.65 25.95 -10.7 25.95 -10.75 26.0 -10.8 26.0 -10.8 26.0 -10.85 26.0 -10.9 26.0 -10.95 26.0 -10.95 25.95 -11.0 25.95 -11.05 25.95 -11.1 25.95 -11.1 25.9 -11.15 25.9 -11.2 25.85 -11.25 25.85 -11.25 25.8 -11.3 25.8 -11.35 25.75 -11.4 25.7 -11.45 25.7 -11.45 25.65 -11.5 25.65 -11.55 25.6 -11.65 25.5 -11.7 25.45 -11.8 25.4 -11.85 25.35 -11.95 25.3 -12.0 25.25 -12.1 25.2 -12.2 25.15 -12.3 25.1 -12.35 25.1 -12.45 25.05 -12.55 25.05 -12.65 25.0 -12.75 25.0 -12.85 25.0 -12.95 25.0 -13.0 25.0 -13.05 25.0 -13.05 25.0 -13.1 25.0 -13.15 25.0 -13.2 25.0 -13.25 25.0 -13.3 25.0 -13.35 25.0 -13.35 25.0 -13.4 25.05 -13.45 25.05 -13.5 25.05 -13.5 25.1 -13.55 25.15 -13.55 25.2 -13.55 25.2 -13.55 25.25 -13.55 25.3 -13.55 25.3 -13.55 25.35 -13.55 25.4 -13.55 25.4 -13.55 25.45 -13.55 25.45 -13.55 25.5 -13.55 25.5 -13.5 25.55 -13.5 25.6 -13.5 25.6 -13.45 25.65 -13.45 25.65 -13.4 25.7 -13.4 25.7 -13.35 25.7 -13.35 25.75 -13.3 25.75 -13.25 25.8 -13.25 25.8 -13.2 25.8 -13.2 25.85 -13.15 25.85 -13.15 25.9 -13.1 25.9 -13.05 25.9 -13.05 25.95 -13.0 25.95 -13.0 26.25 -12.7 26.35 -12.65 26.4 -12.6 26.5 -12.55 26.6 -12.55 26.65 -12.5 26.75 -12.5 26.85 -12.5 26.9 -12.5 27.0 -12.55 27.05 -12.55 27.15 -12.6 27.2 -12.65 27.25 -12.7 27.3 -12.8 27.35 -12.85 27.4 -12.95 27.45 -13.05 27.45 -13.1 27.45 -13.1 27.5 -13.15 27.5 -13.15 27.5 -13.2 27.5 -13.2 27.5 -13.25 27.5 -13.3 27.5 -13.3 27.5 -13.35 27.5 -13.4 27.5 -13.4 27.5 -13.45 27.5 -13.5 27.5 -13.5 27.5 -13.55 27.5 -13.75 27.45 -13.95 27.45 -14.1 27.45 -14.3 27.45 -14.5 27.45 -14.7 27.45 -14.9 27.45 -15.1 27.45 -15.25 27.45 -15.45 27.5 -15.65 27.5 -15.85 27.5 -16.05 27.55 -16.2 27.55 -16.4 27.6 -16.6 27.6 -16.7 27.65 -16.8 27.65 -16.9 27.7 -16.95 27.7 -17.05 27.75 -17.15 27.75 -17.25 27.8 -17.3 27.85 -17.4 27.85 -17.5 27.9 -17.6 27.95 -17.65 28.0 -17.75 28.0 -17.85 28.05 -17.9 28.1 -18.0 28.15 -18.1 28.2 -18.15 28.25 -18.2 28.3 -18.3 28.35 -18.35 28.4 -18.4 28.45 -18.45 28.55 -18.5 28.6 -18.55 28.65 -18.6 28.75 -18.65 28.8 -18.65 28.9 -18.7 28.95 -18.75 29.05 -18.75 29.15 -18.8 29.25 -18.8 29.3 -18.85 29.4 -18.85 29.5 -18.85 29.55 -18.85 29.65 -18.85 29.75 -18.85 29.85 -18.85 29.9 -18.85 30.0 -18.85 30.1 -18.85 30.2 -18.8 30.25 -18.8 30.35 -18.75 30.45 -18.75 30.55 -18.7 30.35 -18.15 30.1 -17.5 30.0 -17.2 29.9 -16.9 29.8 -16.6 29.7 -16.25 29.6 -15.95 29.5 -15.65 29.4 -15.3 29.35 -15.0 29.25 -14.7 29.2 -14.35 29.15 -14.05 29.1 -13.7 29.0 -13.4 28.95 -13.1 28.9 -12.75 28.85 -12.45 28.85 -12.35 28.85 -12.25 28.85 -12.15 28.85 -12.05 28.85 -11.95 28.9 -11.85 28.9 -11.75 28.95 -11.65 29.0 -11.6 29.05 -11.5 29.1 -11.4 29.15 -11.35 29.2 -11.25 29.25 -11.2 29.35 -11.15 29.4 -11.05 29.5 -10.95 29.65 -10.95 29.75 -10.9 29.85 -10.85 29.95 -10.85 30.1 -10.85 30.2 -10.9 30.3 -10.95 30.4 -10.95 30.5 -11.05 30.6 -11.1 30.65 -11.15 30.75 -11.25 30.8 -11.35 30.85 -11.4 30.95 -11.5 30.95 -11.55 31.0 -11.6 31.0 -11.6 31.0 -11.65 31.0 -11.7 31.05 -11.75 31.05 -11.8 31.05 -11.8 31.05 -11.85 31.05 -11.9 31.05 -11.95 31.1 -12.0 31.1 -12.05 31.1 -12.05 31.1 -12.1 31.1 -12.15 31.15 -12.65 31.2 -13.15 31.3 -13.65 31.4 -14.15 31.5 -14.65 31.6 -15.15 31.75 -15.65 31.9 -16.1 32.05 -16.6 32.2 -17.05 32.4 -17.5 32.6 -17.95 32.8 -18.45 33.05 -18.9 33.25 -19.35 33.5 -19.75 33.65 -20.0 33.8 -20.2 33.95 -20.45 34.1 -20.65 34.25 -20.9 34.4 -21.1 34.55 -21.3 34.7 -21.55 34.9 -21.75 35.05 -21.95 35.2 -22.15 35.4 -22.4 35.55 -22.6 35.75 -22.8 35.9 -23.0 36.05 -23.2 36.25 -23.45 36.45 -23.65 36.65 -23.85 36.85 -24.05 37.05 -24.3 37.25 -24.5 37.5 -24.7 37.7 -24.9 37.9 -25.1 38.1 -25.3 38.35 -25.5 38.55 -25.7 38.8 -25.85 39.0 -26.05 39.25 -26.25 39.5 -26.4 39.75 -26.55 40.0 -26.7 40.2 -26.9 40.45 -27.05 40.7 -27.15 41.0 -27.3 41.25 -27.45 41.5 -27.55 41.75 -27.7 42.0 -27.8 42.25 -27.95 42.55 -28.05 42.8 -28.15 43.1 -28.25 43.35 -28.35 43.6 -28.45 44.1 -28.65 44.65 -28.8 45.2 -29.0 45.7 -29.1 46.25 -29.25 46.8 -29.35 47.35 -29.45 47.85 -29.5 48.4 -29.6 48.95 -29.65 49.5 -29.7 50.05 -29.7 50.6 -29.7 51.15 -29.7 51.7 -29.7 52.25 -29.7 54.1 -29.6 55.3 -29.4 55.6 -29.35 55.85 -29.3 56.15 -29.25 56.4 -29.15 56.7 -29.1 56.95 -29.0 57.25 -28.95 57.5 -28.85 57.8 -28.75 58.05 -28.65 58.35 -28.6 58.6 -28.45 58.85 -28.4 59.15 -28.25 59.4 -28.15 59.7 -28.05 60.1 -27.9 60.55 -27.7 60.95 -27.5 61.35 -27.3 61.75 -27.1 62.15 -26.9 62.55 -26.7 62.95 -26.5 63.35 -26.25 63.7 -26.0 64.1 -25.8 64.5 -25.55 64.85 -25.3 65.25 -25.05 65.6 -24.8 66.0 -24.55 67.3 -23.6 69.1 -21.9 69.3 -21.75 69.45 -21.6 69.6 -21.4 69.8 -21.25 69.95 -21.1 70.1 -20.95 70.3 -20.75 70.45 -20.6 70.6 -20.45 70.75 -20.25 70.9 -20.1 71.1 -19.9 71.25 -19.7 71.4 -19.55 71.55 -19.35 71.65 -19.15 71.8 -18.95 71.95 -18.75 72.15 -18.5 72.3 -18.3 72.45 -18.1 72.6 -17.85 72.75 -17.65 72.9 -17.4 73.0 -17.2 73.15 -16.95 73.3 -16.75 73.45 -16.5 73.6 -16.3 73.7 -16.05 73.85 -15.85 73.95 -15.6 74.1 -15.3 74.25 -15.05 74.4 -14.75 74.55 -14.5 74.7 -14.2 74.85 -13.95 75.0 -13.65 75.1 -13.4 75.25 -13.1 75.4 -12.8 75.5 -12.55 75.65 -12.25 75.75 -11.95 75.9 -11.7 76.0 -11.4 76.1 -11.1 76.2 -10.8 76.3 -10.55 76.4 -10.25 76.5 -9.95 76.6 -9.7 76.65 -9.4 76.75 -9.1 76.8 -8.8 76.9 -8.5 76.95 -8.2 77.0 -7.95 77.05 -7.65 77.1 -7.35 77.15 -7.05 77.15 -6.75 77.2 -6.45 77.4 -4.4 77.4 -3.15 77.4 -2.75 77.4 -2.35 77.4 -1.95 77.35 -1.6 77.35 -1.2 77.35 -0.8 77.3 -0.4 77.25 0.0 77.25 0.4 77.2 0.75 77.15 1.15 77.05 1.55 77.0 1.95 76.95 2.35 76.85 2.7 76.75 3.1 76.65 3.5 76.6 3.85 76.5 4.25 76.4 4.6 76.3 5.0 76.2 5.4 76.05 5.75 75.95 6.1 75.85 6.5 75.7 6.85 75.6 7.25 75.45 7.6 75.35 7.95 75.2 8.35 75.05 8.7 74.9 9.05 74.7 9.55 74.45 10.0 74.25 10.45 74.0 10.95 73.75 11.4 73.5 11.85 73.25 12.3 73.0 12.7 72.7 13.15 72.45 13.6 72.15 14.0 71.85 14.4 71.55 14.85 71.25 15.25 70.9 15.65 70.6 16.05 70.2 16.55 69.75 17.0 69.3 17.5 68.85 17.95 68.35 18.4 67.9 18.8 67.4 19.25 66.9 19.65 66.4 20.05 65.9 20.4 65.4 20.8 64.85 21.15 64.35 21.5 63.8 21.85 63.25 22.15 62.7 22.5 62.45 22.65 62.25 22.75 62.0 22.9 61.75 23.0 61.5 23.15 61.3 23.25 61.05 23.4 60.8 23.5 60.55 23.6 60.3 23.7 60.05 23.85 59.85 23.95 59.6 24.05 59.35 24.1 59.1 24.2 58.85 24.3 58.8 24.3 58.75 24.35 58.7 24.35 58.65 24.4 58.6 24.4 58.55 24.45 58.5 24.5 58.45 24.5 58.4 24.55 58.35 24.6 58.35 24.65 58.3 24.65 58.25 24.7 58.25 24.75 58.2 24.8 58.15 24.85 58.1 24.95 58.05 25.05 58.05 25.1 58.0 25.2 58.0 25.3 58.0 25.4 58.0 25.5 58.0 25.6 58.05 25.7 58.1 25.8 58.1 25.9 58.15 25.95 58.2 26.05 58.3 26.1 58.35 26.2 58.45 26.25 58.5 26.3 58.55 26.35 58.6 26.4 58.7 26.4 58.75 26.45 58.8 26.5 58.85 26.5 58.9 26.5 59.0 26.55 59.05 26.55 59.1 26.55 59.2 26.55 59.25 26.55 59.35 26.5 59.4 26.5 59.45 26.45 61.75 25.5 62.1 25.3 62.55 25.1 64.75 23.85 64.85 23.8 64.85 23.8 64.9 23.75 64.95 23.75 65.0 23.7 65.0 23.7 65.05 23.7 65.05 23.7 65.1 23.7 65.15 23.7 65.15 23.7 65.2 23.75 65.2 23.75 65.25 23.8 65.3 23.85 65.35 23.9 65.4 23.95 65.45 24.0 65.45 24.05 65.5 24.1 65.55 24.15 65.6 24.2 65.65 24.25 65.7 24.3 65.7 24.35 65.75 24.4 65.8 24.45 65.85 24.5 65.85 24.55 65.9 24.65 65.95 24.7 65.95 24.75 66.0 24.85 66.05 24.95 66.1 25.05 66.1 25.15 66.15 25.25 66.15 25.35 66.15 25.4 66.15 25.5 66.15 25.6 66.15 25.7 66.15 25.8 66.1 25.9 66.1 26.0 66.05 26.1 66.05 26.2 66.0 26.3 65.9 26.5 65.8 26.7 65.7 26.9 65.55 27.05 65.45 27.2 65.3 27.4 65.2 27.55 65.05 27.7 64.9 27.8 64.75 27.95 64.55 28.05 64.4 28.15 64.2 28.3 64.05 28.35 63.85 28.45 63.65 28.55 63.55 28.6 63.4 28.65 63.3 28.65 63.15 28.7 63.05 28.75 62.9 28.75 62.75 28.8 62.65 28.8 62.5 28.85 62.4 28.85 62.25 28.85 62.15 28.85 62.0 28.9 61.9 28.9 61.75 28.9 61.6 28.9 61.5 28.9 61.4 28.9 61.3 28.95 61.2 29.0 61.1 29.0 61.0 29.1 60.9 29.15 60.85 29.2 60.75 29.3 60.7 29.4 60.65 29.45 60.6 29.55 60.55 29.65 60.5 29.75 60.45 29.9 60.45 30.0 60.45 30.1 60.45 30.15 60.45 30.25 60.5 30.3 60.5 30.35 60.55 30.45 60.55 30.5 60.6 30.55 60.65 30.65 60.7 30.7 60.75 30.75 60.8 30.8 60.85 30.85 60.9 30.9 60.95 30.95 61.0 31.0 61.05 31.05 61.1 31.05 61.15 31.1 61.2 31.1 61.25 31.15 61.3 31.15 61.4 31.15 61.45 31.2 61.5 31.2 61.55 31.2 61.6 31.2 61.65 31.2 61.7 31.2 61.75 31.2 61.85 31.2 61.9 31.2 62.1 31.2 62.3 31.15 62.5 31.15 62.7 31.1 62.9 31.1 63.1 31.05 63.3 31.0 63.5 30.95 63.7 30.9 63.9 30.85 64.1 30.75 64.3 30.7 64.5 30.6 64.65 30.55 64.85 30.45 65.05 30.35 65.3 30.2 65.55 30.05 65.8 29.85 66.05 29.7 66.25 29.5 66.45 29.3 66.7 29.1 66.85 28.9 67.05 28.65 67.25 28.45 67.4 28.2 67.55 27.95 67.7 27.7 67.85 27.45 68.0 27.15 68.1 26.9 68.2 26.7 68.25 26.45 68.3 26.25 68.35 26.05 68.35 25.8 68.35 25.6 68.35 25.4 68.35 25.2 68.3 25.0 68.3 24.8 68.25 24.6 68.15 24.4 68.1 24.2 68.0 24.0 67.9 23.8 67.8 23.6 67.75 23.5 66.95 22.4 L66.95 22.4" fill="#000000" fill-rule="evenodd" stroke="none"/>
    <path d="M66.0 -3.4 Q66.15 -3.4 66.3 -3.35 66.45 -3.35 66.55 -3.3 66.7 -3.3 66.85 -3.25 66.95 -3.2 67.1 -3.15 67.25 -3.1 67.35 -3.05 67.5 -3.0 67.65 -2.95 67.75 -2.85 67.9 -2.8 68.0 -2.7 68.15 -2.65 68.3 -2.55 68.45 -2.4 68.6 -2.3 68.75 -2.2 68.9 -2.05 69.05 -1.9 69.2 -1.75 69.3 -1.65 69.45 -1.5 69.55 -1.35 69.65 -1.2 69.75 -1.0 69.9 -0.85 70.0 -0.7 70.05 -0.5 70.15 -0.35 70.3 -0.1 70.4 0.15 70.5 0.45 70.6 0.7 70.65 0.95 70.75 1.25 70.8 1.5 70.85 1.75 70.85 2.05 70.9 2.3 70.9 2.6 70.9 2.85 70.85 3.15 70.85 3.4 70.8 3.7 70.7 4.0 70.65 4.25 70.55 4.5 70.5 4.7 70.4 4.95 70.3 5.2 70.2 5.4 70.1 5.6 70.0 5.85 69.85 6.05 69.75 6.25 69.6 6.45 69.45 6.65 69.3 6.85 69.15 7.05 69.0 7.25 68.85 7.4 68.5 7.75 68.15 8.1 67.8 8.45 67.4 8.75 67.05 9.05 66.65 9.35 66.25 9.6 65.85 9.85 65.45 10.05 65.0 10.3 64.6 10.5 64.15 10.65 63.7 10.8 63.25 10.95 62.75 11.1 62.3 11.2 61.95 11.3 61.55 11.35 61.2 11.4 60.8 11.45 60.45 11.55 60.05 11.55 59.7 11.6 59.3 11.65 58.95 11.65 58.55 11.65 58.2 11.65 57.8 11.65 57.45 11.65 57.05 11.65 56.7 11.65 56.3 11.6 55.9 11.55 55.55 11.5 55.15 11.5 54.75 11.45 54.4 11.35 54.0 11.3 53.6 11.25 53.25 11.2 52.85 11.1 52.5 11.0 52.1 10.95 51.75 10.85 51.35 10.75 51.0 10.65 50.6 10.55 50.25 10.45 49.6 10.25 48.4 9.85 47.15 9.4 46.6 9.25 43.05 8.05 41.7 7.45 41.6 7.4 41.5 7.35 41.4 7.3 41.3 7.25 41.25 7.2 41.15 7.1 41.05 7.05 40.95 7.0 40.9 6.95 40.8 6.85 40.75 6.8 40.65 6.7 40.6 6.6 40.55 6.55 40.5 6.45 40.4 6.35 40.35 6.2 40.3 6.1 40.25 6.0 40.2 5.9 40.2 5.8 40.2 5.7 40.2 5.6 40.2 5.5 40.2 5.4 40.25 5.3 40.3 5.2 40.35 5.1 40.45 5.05 40.5 4.95 40.6 4.85 40.7 4.75 40.7 4.75 40.75 4.7 40.75 4.7 40.8 4.7 40.85 4.65 40.85 4.65 40.9 4.65 40.9 4.65 40.95 4.6 40.95 4.6 41.0 4.6 41.05 4.6 41.05 4.55 41.1 4.55 41.1 4.55 41.15 4.55 41.8 4.35 42.2 4.3 42.4 4.3 42.6 4.25 42.8 4.2 43.0 4.15 43.2 4.1 43.4 4.05 43.6 4.0 43.8 3.95 44.0 3.9 44.15 3.8 44.35 3.75 44.55 3.65 44.75 3.55 44.95 3.5 45.1 3.4 45.3 3.3 45.45 3.2 45.6 3.1 45.75 3.0 45.9 2.9 46.05 2.8 46.2 2.7 46.35 2.6 46.45 2.45 46.6 2.35 46.75 2.25 46.85 2.1 47.0 2.0 47.15 1.9 47.25 1.75 47.35 1.65 47.55 1.5 47.8 1.25 48.0 1.0 48.25 0.8 48.45 0.55 48.7 0.3 48.9 0.0 49.1 -0.25 49.35 -0.5 49.55 -0.75 49.75 -1.0 49.95 -1.3 50.15 -1.55 50.35 -1.8 50.55 -2.1 50.75 -2.35 50.95 -2.65 51.7 -3.7 52.8 -5.35 54.4 -7.65 54.65 -8.05 56.0 -10.05 56.7 -10.7 56.9 -10.9 57.05 -11.05 57.25 -11.2 57.45 -11.35 57.6 -11.5 57.8 -11.65 58.0 -11.8 58.2 -11.9 58.45 -12.05 58.65 -12.15 58.85 -12.25 59.1 -12.3 59.3 -12.4 59.55 -12.5 59.75 -12.55 60.0 -12.6 60.1 -12.6 60.15 -12.65 60.25 -12.65 60.3 -12.65 60.4 -12.65 60.45 -12.7 60.55 -12.7 60.6 -12.7 60.7 -12.7 60.75 -12.7 60.85 -12.7 60.9 -12.7 61.0 -12.7 61.1 -12.7 61.15 -12.7 61.25 -12.65 61.45 -12.6 61.65 -12.55 61.85 -12.55 62.05 -12.45 62.25 -12.4 62.45 -12.35 62.65 -12.25 62.85 -12.15 63.05 -12.1 63.2 -12.0 63.4 -11.9 63.6 -11.75 63.75 -11.65 63.95 -11.55 64.1 -11.4 64.3 -11.3 64.55 -11.1 64.75 -10.9 65.0 -10.65 65.15 -10.4 65.35 -10.2 65.5 -9.95 65.65 -9.7 65.75 -9.4 65.9 -9.15 66.0 -8.85 66.05 -8.6 66.15 -8.3 66.2 -8.0 66.25 -7.7 66.3 -7.4 66.3 -7.05 66.3 -6.9 66.3 -6.7 66.3 -6.55 66.3 -6.4 66.3 -6.2 66.25 -6.05 66.25 -5.9 66.2 -5.75 66.2 -5.55 66.15 -5.4 66.1 -5.25 66.05 -5.05 66.05 -4.9 66.0 -4.75 65.95 -4.6 65.85 -4.45 65.75 -4.15 65.5 -3.5 65.65 -3.45 65.75 -3.45 65.9 -3.45 66.0 -3.4 L66.0 -3.4 M44.1 6.25 Q50.8 8.45 51.45 8.65 51.85 8.8 52.3 8.9 52.7 9.0 53.15 9.1 53.55 9.15 54.0 9.25 54.4 9.3 54.85 9.4 55.25 9.45 55.7 9.5 56.1 9.55 56.55 9.55 57.0 9.6 57.4 9.6 57.85 9.6 58.3 9.6 58.65 9.6 59.0 9.6 59.35 9.55 59.7 9.55 60.05 9.5 60.4 9.45 60.75 9.45 61.05 9.35 61.4 9.3 61.75 9.25 62.1 9.15 62.4 9.05 62.75 9.0 63.1 8.85 63.45 8.75 63.75 8.65 64.05 8.55 64.3 8.4 64.6 8.25 64.85 8.1 65.15 7.95 65.4 7.8 65.65 7.6 65.9 7.45 66.15 7.25 66.4 7.05 66.6 6.85 66.85 6.65 67.05 6.4 67.3 6.2 67.5 5.95 67.7 5.7 67.8 5.55 67.9 5.45 68.0 5.3 68.1 5.2 68.2 5.05 68.25 4.9 68.35 4.8 68.4 4.65 68.5 4.5 68.55 4.35 68.6 4.2 68.65 4.05 68.7 3.9 68.75 3.75 68.8 3.55 68.85 3.4 68.9 3.05 68.9 2.7 68.9 2.35 68.85 2.05 68.85 1.7 68.75 1.4 68.65 1.1 68.55 0.8 68.45 0.55 68.25 0.3 68.1 0.05 67.95 -0.2 67.75 -0.4 67.55 -0.6 67.3 -0.8 67.05 -0.95 66.95 -1.0 66.85 -1.05 66.75 -1.1 66.65 -1.15 66.55 -1.2 66.45 -1.25 66.3 -1.3 66.2 -1.3 66.1 -1.35 66.0 -1.35 65.85 -1.35 65.75 -1.35 65.65 -1.4 65.55 -1.4 65.4 -1.4 65.3 -1.4 65.1 -1.4 65.05 -1.4 64.9 -1.4 64.8 -1.4 64.65 -1.35 64.55 -1.35 64.4 -1.35 64.3 -1.35 64.15 -1.3 64.05 -1.3 63.95 -1.3 63.8 -1.25 63.7 -1.25 63.55 -1.2 63.45 -1.2 63.3 -1.15 63.25 -1.15 63.15 -1.1 63.1 -1.1 63.05 -1.1 63.0 -1.1 62.95 -1.15 62.85 -1.15 62.8 -1.15 62.75 -1.2 62.7 -1.25 62.65 -1.25 62.6 -1.3 62.55 -1.35 62.55 -1.4 62.5 -1.45 62.45 -1.5 62.4 -1.55 62.4 -1.6 62.4 -1.65 62.35 -1.7 62.35 -1.75 62.35 -1.8 62.35 -1.9 62.35 -1.95 62.35 -2.0 62.35 -2.05 62.4 -2.1 62.4 -2.15 62.45 -2.25 62.45 -2.3 62.5 -2.35 62.55 -2.4 62.65 -2.55 62.95 -3.0 63.25 -3.35 63.4 -3.6 63.55 -3.85 63.7 -4.1 63.8 -4.4 63.9 -4.65 64.05 -4.9 64.1 -5.2 64.2 -5.45 64.25 -5.75 64.3 -6.0 64.3 -6.3 64.3 -6.6 64.3 -6.9 64.3 -7.15 64.25 -7.45 64.25 -7.75 64.15 -8.05 64.15 -8.15 64.1 -8.25 64.05 -8.35 64.05 -8.45 64.0 -8.55 63.95 -8.65 63.9 -8.75 63.85 -8.85 63.8 -8.95 63.75 -9.0 63.7 -9.1 63.6 -9.2 63.55 -9.25 63.45 -9.35 63.4 -9.4 63.3 -9.5 63.2 -9.6 63.1 -9.65 63.0 -9.75 62.9 -9.85 62.8 -9.9 62.7 -9.95 62.6 -10.05 62.45 -10.1 62.35 -10.15 62.25 -10.25 62.15 -10.3 62.0 -10.35 61.9 -10.4 61.75 -10.45 61.65 -10.45 61.5 -10.5 61.4 -10.55 61.3 -10.55 61.2 -10.6 61.1 -10.6 61.0 -10.6 60.9 -10.6 60.8 -10.6 60.7 -10.6 60.6 -10.6 60.5 -10.6 60.4 -10.6 60.3 -10.6 60.2 -10.55 60.1 -10.55 60.0 -10.5 59.9 -10.45 59.7 -10.4 59.55 -10.3 59.35 -10.25 59.2 -10.15 59.0 -10.05 58.85 -9.95 58.7 -9.85 58.55 -9.75 58.4 -9.6 58.25 -9.5 58.1 -9.35 57.95 -9.2 57.8 -9.05 57.7 -8.9 57.55 -8.75 57.45 -8.6 57.3 -8.4 57.15 -8.2 57.05 -8.0 56.9 -7.85 56.75 -7.65 56.6 -7.45 56.5 -7.25 56.35 -7.05 56.2 -6.85 56.1 -6.65 55.95 -6.45 55.8 -6.3 55.7 -6.1 55.55 -5.9 55.4 -5.7 55.3 -5.5 52.6 -1.45 51.1 0.45 50.9 0.7 50.7 0.95 50.5 1.15 50.3 1.4 50.1 1.6 49.9 1.85 49.7 2.05 49.5 2.3 49.3 2.5 49.05 2.75 48.85 2.95 48.65 3.15 48.4 3.35 48.2 3.6 47.95 3.8 47.75 4.0 47.55 4.15 47.35 4.35 47.15 4.5 46.9 4.65 46.7 4.8 46.5 4.9 46.25 5.05 46.05 5.2 45.8 5.3 45.6 5.4 45.35 5.5 45.1 5.6 44.9 5.7 44.65 5.8 44.4 5.9 44.15 5.95 44.05 6.0 43.75 6.1 43.85 6.15 43.95 6.2 44.05 6.25 44.1 6.25 L44.1 6.25" fill="#000000" fill-rule="evenodd" stroke="none"/>
  </g>
</svg>
