<?xml version="1.0" encoding="UTF-8" standalone="no"?>
<svg xmlns:xlink="http://www.w3.org/1999/xlink" height="300.0px" width="400.0px" xmlns="http://www.w3.org/2000/svg">
  <g transform="matrix(1.0, 0.0, 0.0, 1.0, 200.0, 150.0)">
    <path d="M-36.15 27.5 Q-39.45 20.6 -42.05 15.05 -43.95 11.05 -43.0 13.05 -43.5 12.0 -43.8 11.35 -44.25 10.5 -44.55 9.8 -44.9 9.1 -45.25 8.5 -45.6 7.85 -45.9 7.25 -46.25 6.7 -46.6 6.15 -46.95 5.55 -47.3 5.0 -47.7 4.45 -48.15 3.85 -49.85 1.55 -54.0 -2.5 -54.6 -3.1 -55.2 -3.7 -55.9 -4.35 -56.55 -5.0 -57.3 -5.75 -58.0 -6.5 -58.8 -7.25 -59.6 -8.05 -60.4 -8.9 -61.25 -9.75 -62.15 -10.7 -63.05 -11.6 -64.0 -12.6 -64.9 -13.55 -65.9 -14.6 -66.9 -15.65 -66.85 -15.45 -66.8 -15.3 -66.8 -15.1 -66.75 -14.9 -66.7 -14.7 -66.6 -14.45 -66.55 -14.25 -66.5 -14.0 -66.45 -13.75 -66.35 -13.5 -66.3 -13.25 -66.2 -13.0 -66.1 -12.75 -66.0 -12.45 -65.9 -12.15 -65.8 -11.9 -65.7 -11.6 -65.6 -11.3 -65.5 -11.05 -65.4 -10.8 -65.3 -10.55 -65.2 -10.3 -65.1 -10.1 -65.0 -9.9 -64.9 -9.7 -64.8 -9.5 -64.75 -9.35 -64.65 -9.2 -64.6 -9.05 -64.5 -8.9 -64.5 -8.85 -64.4 -8.7 -63.8 -7.55 -62.4 -4.6 -61.15 -2.0 -60.4 -0.55 -57.6 4.8 -54.5 11.8 -57.1 10.15 -62.7 6.6 -60.8 9.9 -57.0 16.5 -57.55 16.3 -58.65 15.8 -57.9 17.3 -56.3 20.3 -56.9 20.6 -58.1 21.25 -57.25 21.65 -55.55 22.5 -57.5 23.8 -61.45 26.35 -58.25 27.8 -52.05 30.6 -54.0 32.2 -57.9 35.4 -56.9 35.45 -54.85 35.45 -55.1 36.2 -55.65 37.7 -54.55 37.5 -52.15 37.15 -53.3 39.0 -55.65 42.7 -54.5 41.95 -52.2 40.45 -53.85 43.35 -57.15 49.05 -57.5 49.25 -57.9 49.5 -58.3 49.7 -58.65 49.9 -59.05 50.15 -59.45 50.35 -59.85 50.6 -60.25 50.8 -60.65 51.0 -61.1 51.2 -61.5 51.45 -61.9 51.65 -62.35 51.85 -62.75 52.1 -63.2 52.3 -63.65 52.5 -64.05 52.7 -64.5 52.9 -64.9 53.1 -65.35 53.3 -65.75 53.5 -66.15 53.7 -66.55 53.85 -66.95 54.05 -67.4 54.2 -67.8 54.4 -68.2 54.55 -68.6 54.75 -69.0 54.9 -69.35 55.05 -69.75 55.25 -70.15 55.4 -69.85 54.95 -69.5 54.55 -69.2 54.1 -68.9 53.7 -68.6 53.35 -68.3 52.95 -68.05 52.6 -67.75 52.2 -67.5 51.9 -67.25 51.55 -67.0 51.25 -66.8 50.95 -66.55 50.65 -66.35 50.4 -66.15 50.15 -65.95 49.9 -65.5 49.35 -65.0 48.75 -64.7 48.4 -64.2 47.75 -63.7 47.15 -63.5 46.9 -63.1 46.45 -62.85 46.1 -62.5 45.65 -62.25 45.3 -61.95 44.9 -61.7 44.55 -61.4 44.15 -61.15 43.75 -60.85 43.35 -60.6 42.85 -60.35 42.5 -60.15 42.1 -59.95 41.75 -59.75 41.4 -59.55 41.05 -59.4 40.7 -59.25 40.4 -59.05 40.05 -58.95 39.75 -58.8 39.45 -58.65 39.15 -58.55 38.85 -58.45 38.6 -58.35 38.35 -58.25 38.15 -58.15 37.9 -62.25 38.5 -70.1 39.6 -67.15 38.4 -61.3 35.9 -63.6 35.7 -68.25 35.3 -67.8 35.05 -67.3 34.75 -66.8 34.5 -66.35 34.25 -65.85 33.95 -65.35 33.7 -64.85 33.45 -64.35 33.2 -63.85 32.95 -63.3 32.7 -62.8 32.45 -62.25 32.2 -61.7 31.95 -61.15 31.7 -60.6 31.5 -60.05 31.25 -59.3 30.95 -58.45 30.6 -63.4 29.15 -73.3 26.15 -70.3 24.85 -64.45 22.4 -68.2 21.0 -75.35 18.35 -71.65 18.25 -64.3 18.05 -67.95 15.2 -75.4 9.45 -72.7 10.3 -67.35 12.1 -70.25 9.15 -75.85 3.45 -73.1 4.55 -67.55 6.75 -75.05 -1.15 -90.0 -16.95 -85.25 -14.35 -75.5 -9.1 -76.55 -10.9 -78.65 -14.55 -74.6 -11.55 -66.6 -5.5 -73.4 -17.4 -87.0 -41.05 -75.85 -32.05 -54.0 -14.45 -48.05 -9.5 -36.4 0.3 -36.3 9.35 -36.15 27.5 L-36.15 27.5" fill="#f6d4e8" fill-rule="evenodd" stroke="none"/>
    <path d="M33.55 28.35 Q36.6 21.15 38.8 15.9 39.75 13.55 39.65 13.9 40.05 12.85 40.35 12.15 40.75 11.3 41.0 10.65 41.35 9.95 41.6 9.3 41.95 8.7 42.2 8.1 42.5 7.5 42.8 6.95 43.15 6.4 43.45 5.85 43.8 5.3 44.2 4.7 45.75 2.35 49.4 -1.65 49.95 -2.25 50.5 -2.85 51.1 -3.5 51.65 -4.2 52.3 -4.9 52.95 -5.65 53.65 -6.45 54.35 -7.2 55.1 -8.1 55.85 -8.95 56.65 -9.85 57.4 -10.75 58.25 -11.75 59.1 -12.75 59.95 -13.75 60.85 -14.8 60.8 -14.6 60.8 -14.45 60.75 -14.25 60.7 -14.05 60.65 -13.85 60.6 -13.65 60.55 -13.4 60.5 -13.15 60.45 -12.95 60.35 -12.7 60.3 -12.4 60.25 -12.15 60.15 -11.9 60.05 -11.6 60.0 -11.35 59.9 -11.05 59.8 -10.75 59.7 -10.5 59.6 -10.2 59.5 -9.95 59.4 -9.7 59.35 -9.45 59.25 -9.25 59.15 -9.05 59.1 -8.85 59.0 -8.65 58.95 -8.5 58.85 -8.35 58.8 -8.2 58.75 -8.05 58.7 -8.0 58.65 -7.85 58.05 -6.6 56.85 -3.75 55.75 -1.1 55.05 0.3 54.8 0.85 54.6 1.35 54.3 1.95 54.05 2.5 53.75 3.15 53.5 3.85 53.15 4.55 52.85 5.3 52.5 6.05 52.15 6.9 51.8 7.75 51.45 8.65 51.05 9.6 50.7 10.55 50.25 11.55 49.85 12.65 52.25 10.9 57.1 7.45 55.4 10.8 52.05 17.35 52.55 17.1 53.55 16.65 52.85 18.15 51.45 21.1 51.95 21.45 53.05 22.05 52.25 22.5 50.75 23.35 52.5 24.6 56.05 27.2 53.25 28.6 47.65 31.45 49.4 33.05 52.85 36.25 51.95 36.25 50.15 36.3 50.4 37.05 50.9 38.55 49.85 38.35 47.75 37.95 48.25 38.85 49.3 40.75 50.35 42.55 50.9 43.5 49.85 42.8 47.8 41.3 49.25 44.15 52.2 49.9 52.55 50.1 52.85 50.35 53.2 50.55 53.55 50.75 53.9 51.0 54.25 51.2 54.6 51.4 54.95 51.65 55.3 51.85 55.7 52.05 56.05 52.3 56.45 52.5 56.8 52.7 57.2 52.9 57.55 53.15 57.95 53.35 58.35 53.55 58.7 53.75 59.1 53.95 59.45 54.15 59.8 54.35 60.2 54.5 60.55 54.7 60.9 54.9 61.25 55.05 61.65 55.25 62.0 55.4 62.35 55.6 62.7 55.75 63.05 55.9 63.4 56.05 63.75 56.2 63.45 55.75 63.2 55.35 62.9 54.95 62.65 54.55 62.4 54.15 62.1 53.75 61.85 53.4 61.65 53.05 61.4 52.7 61.15 52.4 60.95 52.1 60.75 51.8 60.55 51.5 60.35 51.25 60.2 51.0 60.0 50.75 59.6 50.2 59.2 49.6 58.9 49.2 58.45 48.6 58.0 47.95 57.8 47.75 57.5 47.25 57.25 46.9 56.95 46.5 56.7 46.15 56.45 45.75 56.2 45.4 55.95 45.0 55.75 44.6 55.5 44.15 55.25 43.7 55.05 43.35 54.85 42.95 54.7 42.6 54.5 42.25 54.35 41.9 54.2 41.55 54.05 41.2 53.9 40.9 53.75 40.6 53.65 40.3 53.55 40.0 53.45 39.7 53.35 39.45 53.25 39.2 53.15 38.95 53.1 38.75 56.6 39.3 63.7 40.45 61.1 39.25 55.85 36.75 57.9 36.55 62.05 36.1 61.65 35.85 61.2 35.55 60.8 35.3 60.35 35.05 59.9 34.8 59.5 34.55 59.05 34.3 58.6 34.05 58.1 33.8 57.65 33.55 57.2 33.3 56.7 33.05 56.25 32.8 55.75 32.55 55.3 32.3 54.8 32.1 54.7 32.05 54.6 32.0 54.55 31.95 54.45 31.95 54.35 31.9 54.25 31.85 54.15 31.8 54.1 31.75 54.0 31.75 53.9 31.7 53.8 31.65 53.7 31.6 53.65 31.55 53.55 31.55 53.45 31.5 53.35 31.45 57.75 29.95 66.5 27.0 63.95 25.75 58.7 23.2 61.9 21.9 68.35 19.2 65.05 19.1 58.55 18.9 61.8 16.0 68.4 10.25 66.0 11.15 61.25 12.95 63.7 10.1 68.8 4.25 66.35 5.35 61.4 7.6 68.25 -0.5 81.35 -16.1 77.1 -13.5 68.5 -8.25 69.4 -10.0 71.3 -13.75 67.5 -10.55 60.55 -4.65 66.65 -16.65 78.7 -40.2 68.9 -31.3 49.4 -13.6 44.2 -8.7 33.75 1.15 33.7 10.3 33.55 28.35 L33.55 28.35" fill="#f6d4e8" fill-rule="evenodd" stroke="none"/>
  </g>
</svg>
