<?xml version="1.0" encoding="UTF-8" standalone="no"?>
<svg xmlns:xlink="http://www.w3.org/1999/xlink" height="100.0px" width="90.0px" xmlns="http://www.w3.org/2000/svg">
  <g transform="matrix(1.0, 0.0, 0.0, 1.0, 45.0, 50.0)">
    <path d="M7.6 8.25 Q7.6 9.35 7.6 9.85 7.6 10.7 7.65 13.3 7.65 13.4 7.65 13.45 7.65 13.45 7.7 13.5 7.7 13.5 7.8 13.5 7.85 13.5 12.2 13.5 12.25 13.5 12.3 13.5 12.3 13.5 12.3 13.55 12.3 13.6 12.3 13.65 12.3 13.8 12.3 14.1 12.3 21.85 12.3 37.2 12.3 37.3 12.3 37.4 12.3 37.6 12.3 37.6 12.3 37.65 12.3 37.7 12.3 37.7 12.25 37.75 12.25 37.75 12.2 37.75 11.75 37.75 10.65 37.75 8.05 37.75 2.5 37.75 2.4 37.75 2.35 37.75 2.3 37.7 2.3 37.7 2.3 37.65 2.3 37.55 2.3 32.4 2.3 19.8 2.3 17.15 2.3 13.7 2.3 13.6 2.3 13.55 2.3 13.5 2.35 13.5 2.4 13.5 2.5 13.5 3.95 13.5 6.95 13.5 7.05 13.5 7.05 13.5 7.1 13.45 7.1 13.45 7.1 13.4 7.1 13.3 7.1 12.05 7.1 8.4 7.1 8.35 7.05 8.3 7.05 8.25 7.0 8.25 7.0 8.2 6.95 8.2 6.85 8.15 6.8 8.15 6.7 8.1 6.65 8.05 6.6 8.0 6.55 7.9 6.5 7.85 6.45 7.8 6.4 7.7 6.4 7.65 6.4 7.6 6.35 7.5 6.35 7.4 6.35 7.35 6.35 7.25 6.4 7.2 6.4 7.1 6.45 7.05 6.5 6.95 6.5 6.9 6.55 6.85 6.6 6.8 6.7 6.7 6.75 6.65 6.8 6.65 6.9 6.6 6.95 6.55 7.05 6.55 7.1 6.5 7.2 6.5 7.3 6.5 7.35 6.5 7.45 6.5 7.5 6.55 7.6 6.55 7.7 6.6 7.75 6.6 7.8 6.65 7.9 6.7 7.95 6.75 8.0 6.8 8.05 6.85 8.1 6.9 8.15 7.0 8.15 7.05 8.2 7.1 8.2 7.2 8.25 7.3 8.25 7.35 8.25 7.45 8.25 7.5 8.25 7.55 8.2 7.65 8.2 7.7 8.15 7.75 8.1 7.8 8.1 7.9 8.05 7.95 8.0 8.0 7.95 8.05 7.85 8.1 7.8 8.15 7.75 8.15 7.65 8.2 7.65 8.2 7.6 8.25 L7.6 8.25 M7.3 36.35 Q8.75 36.35 11.6 36.35 11.7 36.35 11.75 36.35 11.8 36.35 11.8 36.3 11.8 36.3 11.8 36.15 11.8 34.5 11.8 30.4 11.8 30.35 11.8 30.3 11.8 30.3 11.8 30.25 11.75 30.2 11.7 30.2 11.65 30.15 11.65 30.15 11.6 30.1 11.55 30.1 11.55 30.05 11.5 30.05 11.45 30.0 11.4 30.0 11.4 29.95 11.35 29.95 11.3 29.9 11.3 29.9 11.25 29.85 11.2 29.85 11.15 29.8 11.15 29.8 11.0 29.7 10.8 29.6 10.65 29.5 10.45 29.4 10.3 29.3 10.1 29.2 9.9 29.15 9.75 29.05 9.55 29.0 9.35 28.95 9.15 28.9 9.0 28.85 8.8 28.8 8.6 28.75 8.4 28.7 8.2 28.7 7.8 28.65 7.0 28.65 6.85 28.65 6.75 28.65 6.6 28.65 6.5 28.7 6.35 28.7 6.25 28.7 6.1 28.75 6.0 28.75 5.85 28.8 5.75 28.8 5.6 28.85 5.5 28.9 5.35 28.9 5.25 28.95 5.1 29.0 5.0 29.05 4.85 29.1 4.7 29.15 4.55 29.2 4.45 29.25 4.3 29.35 4.15 29.4 4.05 29.45 3.9 29.55 3.75 29.6 3.65 29.7 3.5 29.75 3.4 29.85 3.25 29.9 3.15 30.0 3.0 30.1 2.9 30.2 2.85 30.2 2.85 30.25 2.8 30.3 2.8 30.3 2.8 30.35 2.8 30.4 2.8 31.55 2.8 36.25 2.8 36.3 2.8 36.3 2.8 36.35 2.85 36.35 2.9 36.35 2.95 36.35 4.45 36.35 7.3 36.35 L7.3 36.35 M4.95 17.4 Q4.95 17.65 5.0 17.85 5.05 18.1 5.15 18.3 5.2 18.5 5.35 18.65 5.45 18.85 5.65 19.0 5.8 19.15 6.0 19.3 6.15 19.4 6.4 19.5 6.6 19.6 6.8 19.6 7.05 19.65 7.3 19.7 7.55 19.7 7.75 19.65 8.0 19.6 8.2 19.5 8.4 19.45 8.6 19.3 8.75 19.2 8.95 19.05 9.1 18.85 9.2 18.7 9.35 18.5 9.45 18.3 9.55 18.1 9.55 17.85 9.6 17.65 9.65 17.4 9.65 17.15 9.6 16.95 9.55 16.75 9.45 16.55 9.4 16.35 9.25 16.15 9.15 16.0 9.0 15.85 8.85 15.65 8.65 15.55 8.45 15.4 8.25 15.35 8.05 15.25 7.85 15.2 7.6 15.15 7.4 15.15 7.15 15.15 6.9 15.2 6.65 15.2 6.4 15.3 6.2 15.4 6.0 15.5 5.8 15.65 5.65 15.8 5.5 15.95 5.35 16.15 5.2 16.3 5.15 16.5 5.05 16.75 5.0 16.95 4.95 17.15 4.95 17.4 L4.95 17.4 M7.2 23.9 Q7.2 23.9 7.15 23.9 7.15 22.95 7.2 20.2 7.2 20.15 7.15 20.1 7.15 20.05 7.1 20.05 7.1 20.0 7.0 20.0 6.95 20.0 6.8 19.95 6.65 19.95 6.55 19.9 6.55 19.9 6.5 19.95 6.45 19.95 6.45 19.95 6.35 20.3 6.35 20.35 6.35 20.4 6.1 21.35 6.1 21.35 5.75 22.65 5.7 23.0 5.4 24.0 5.4 24.1 5.35 24.15 5.35 24.25 5.3 24.35 5.3 24.4 5.3 24.5 5.25 24.55 5.25 24.65 5.25 24.75 5.2 24.8 5.2 24.9 5.15 24.95 5.15 25.05 5.15 25.15 5.1 25.2 5.1 25.3 4.9 26.0 4.65 26.9 4.6 27.05 4.5 27.45 4.45 27.8 4.4 28.0 4.4 28.05 4.35 28.1 4.35 28.15 4.35 28.2 4.35 28.25 4.35 28.3 4.3 28.35 4.3 28.4 4.3 28.45 4.3 28.5 4.3 28.55 4.25 28.6 4.25 28.65 4.25 28.7 4.25 28.75 4.25 28.8 4.25 28.85 4.25 28.9 4.25 28.95 4.25 28.95 4.3 28.95 4.3 29.0 4.35 29.0 4.4 28.95 4.4 28.95 4.5 28.95 4.55 28.95 4.6 28.9 4.65 28.9 4.65 28.85 4.7 28.85 4.75 28.85 4.8 28.8 4.85 28.8 4.9 28.75 4.95 28.75 5.0 28.75 5.05 28.7 5.1 28.7 5.15 28.7 5.2 28.65 5.25 28.65 5.75 28.55 6.6 28.4 6.65 28.4 6.7 28.4 6.7 28.35 6.75 28.35 6.8 28.35 6.8 28.3 6.85 28.3 6.9 28.3 6.9 28.25 6.95 28.25 6.95 28.25 7.0 28.2 7.0 28.2 7.0 28.15 7.05 28.1 7.05 28.1 7.05 28.05 7.1 28.05 7.1 28.0 7.1 27.95 7.1 27.95 7.1 27.9 7.15 27.85 7.15 27.85 7.15 27.8 7.15 27.75 7.15 27.75 7.15 27.7 7.15 27.65 7.15 27.65 7.15 27.6 7.15 27.55 7.2 26.5 7.2 23.9 L7.2 23.9 M10.35 29.0 Q10.35 28.95 10.35 28.9 10.35 28.9 10.35 28.85 10.35 28.8 10.35 28.75 10.4 28.7 10.35 28.7 10.35 28.65 10.35 28.6 10.35 28.55 10.35 28.55 10.35 28.5 10.35 28.45 10.35 28.4 10.35 28.4 10.2 27.85 10.0 27.15 9.95 27.0 9.85 26.6 9.8 26.25 9.75 26.05 9.55 25.35 9.3 24.4 9.1 23.65 9.0 23.15 8.85 22.7 8.7 22.05 8.7 22.0 8.6 21.6 8.5 21.3 8.45 21.1 8.4 20.9 8.3 20.55 8.2 20.2 8.2 20.0 8.2 19.95 8.15 19.95 8.15 19.9 8.1 19.9 8.05 19.9 8.0 19.9 7.95 19.9 7.9 19.95 7.85 19.95 7.8 19.95 7.8 19.95 7.75 19.95 7.7 20.0 7.65 20.0 7.55 20.0 7.5 20.0 7.45 20.05 7.45 20.1 7.45 20.1 7.45 20.2 7.45 22.25 7.45 26.3 7.45 26.4 7.45 26.45 7.45 26.55 7.45 26.65 7.45 26.7 7.45 26.8 7.45 26.9 7.45 27.0 7.45 27.05 7.45 27.15 7.45 27.25 7.45 27.3 7.45 27.4 7.45 27.5 7.45 27.55 7.45 27.65 7.45 27.75 7.45 27.8 7.45 27.85 7.5 27.95 7.5 28.0 7.55 28.05 7.55 28.1 7.6 28.15 7.65 28.2 7.7 28.25 7.75 28.3 7.8 28.3 7.85 28.35 7.95 28.35 8.0 28.4 8.1 28.4 8.2 28.4 8.3 28.4 8.45 28.45 8.55 28.45 8.65 28.45 8.75 28.5 8.85 28.5 8.95 28.55 9.1 28.55 9.2 28.6 9.3 28.65 9.4 28.65 9.5 28.7 9.6 28.75 9.7 28.75 9.8 28.8 10.3 29.0 10.35 29.0 L10.35 29.0 M11.85 29.65 Q11.85 29.6 11.85 29.5 11.85 28.4 11.85 25.55 11.85 25.55 11.85 25.5 11.85 25.45 11.85 25.4 11.8 25.25 11.55 24.7 11.4 24.25 11.25 24.0 11.1 23.7 9.9 21.6 9.6 21.1 8.85 19.7 8.8 19.65 8.8 19.65 8.75 19.6 8.7 19.65 8.65 19.65 8.6 19.65 8.6 19.7 8.5 19.7 8.45 19.75 8.45 19.75 8.4 19.8 8.4 19.85 8.4 19.85 8.45 19.95 8.5 20.15 8.55 20.4 8.55 20.45 8.9 21.8 9.0 22.25 9.15 22.8 9.25 23.2 9.5 24.05 9.6 24.45 9.85 25.4 9.95 25.95 10.15 26.65 10.4 27.65 10.5 28.0 10.65 28.55 10.75 28.7 10.8 28.75 10.85 28.85 10.9 28.9 10.95 28.95 11.0 29.05 11.05 29.1 11.1 29.15 11.15 29.2 11.2 29.25 11.3 29.3 11.35 29.35 11.4 29.4 11.45 29.45 11.55 29.5 11.6 29.55 11.7 29.6 11.75 29.6 11.85 29.65 L11.85 29.65 M2.75 27.5 Q2.75 27.95 2.75 28.85 2.75 29.1 2.75 29.5 2.8 29.6 2.8 29.6 2.8 29.65 2.85 29.6 2.9 29.55 2.95 29.55 3.0 29.5 3.05 29.45 3.1 29.45 3.15 29.4 3.2 29.35 3.25 29.3 3.3 29.3 3.35 29.25 3.4 29.2 3.45 29.15 3.5 29.15 3.55 29.1 3.6 29.05 3.65 29.0 3.7 28.95 3.75 28.9 3.8 28.85 3.85 28.75 3.9 28.7 3.9 28.65 3.95 28.6 3.95 28.5 4.0 28.45 4.0 28.35 4.05 28.3 4.05 28.2 4.05 28.15 4.1 28.05 4.1 27.95 4.15 27.9 4.25 27.35 4.45 26.6 4.45 26.55 4.5 26.45 4.5 26.4 4.55 26.35 4.55 26.3 4.55 26.2 4.6 26.15 4.6 26.1 4.6 26.05 4.65 25.95 4.65 25.9 4.65 25.85 4.7 25.8 4.7 25.7 4.7 25.65 4.75 25.6 4.9 24.95 5.15 24.0 5.25 23.6 5.5 22.6 5.65 22.05 5.75 21.65 5.8 21.35 5.95 20.85 6.1 20.25 6.15 20.05 6.2 19.9 6.2 19.85 6.2 19.8 6.15 19.75 6.1 19.75 5.95 19.65 5.85 19.6 5.8 19.7 5.75 19.8 5.7 19.9 5.6 20.1 5.55 20.15 4.85 21.35 4.2 22.5 3.2 24.3 3.05 24.65 3.0 24.75 3.0 24.8 2.95 24.85 2.95 24.95 2.9 25.0 2.9 25.1 2.85 25.15 2.85 25.25 2.8 25.3 2.8 25.4 2.8 25.45 2.8 25.55 2.75 25.65 2.75 25.7 2.75 25.8 2.75 25.85 2.75 26.2 2.75 27.5 L2.75 27.5 M11.85 24.0 Q11.85 24.0 11.85 23.95 11.85 22.6 11.85 21.8 11.85 21.75 11.85 21.7 11.85 21.65 11.85 21.6 11.85 21.55 11.85 21.5 11.85 21.45 11.8 21.4 11.8 21.35 11.8 21.35 11.8 21.3 11.8 21.25 11.75 21.2 11.75 21.15 11.75 21.1 11.7 21.05 11.65 20.9 11.6 20.9 11.6 20.85 11.55 20.75 11.5 20.7 11.45 20.6 11.4 20.55 11.4 20.5 11.35 20.4 11.3 20.35 11.25 20.3 11.2 20.2 11.1 20.15 11.05 20.1 11.0 20.05 10.9 20.0 10.4 19.55 10.2 19.4 9.7 19.0 9.5 18.85 9.4 18.95 9.25 19.15 9.1 19.3 9.0 19.4 9.0 19.4 9.0 19.45 9.0 19.5 9.05 19.55 9.35 20.05 10.05 21.35 10.6 22.25 11.45 23.8 11.5 23.85 11.5 23.85 11.55 23.9 11.55 23.9 11.6 23.95 11.65 23.95 11.7 24.0 11.75 24.0 11.8 24.0 11.85 24.0 L11.85 24.0 M2.75 22.7 Q2.75 22.7 2.75 22.7 2.75 23.05 2.75 23.9 2.75 23.95 2.8 24.0 2.8 24.0 2.85 24.0 2.85 24.0 2.9 23.95 2.95 23.95 3.0 23.9 3.0 23.9 3.05 23.85 3.1 23.85 3.1 23.8 3.15 23.8 3.15 23.75 3.4 23.3 4.2 22.0 4.5 21.4 5.6 19.5 5.6 19.5 5.6 19.45 5.6 19.4 5.55 19.4 5.5 19.35 5.2 18.95 5.15 18.9 5.15 18.9 5.1 18.9 5.05 18.9 5.05 18.9 5.0 18.95 4.55 19.3 4.1 19.65 3.35 20.3 3.2 20.55 3.15 20.65 3.1 20.7 3.05 20.75 3.05 20.85 3.0 20.9 2.95 20.95 2.9 21.05 2.9 21.1 2.85 21.2 2.85 21.25 2.8 21.35 2.8 21.4 2.8 21.5 2.75 21.6 2.75 21.65 2.75 21.75 2.75 21.95 2.75 22.7 L2.75 22.7 M11.85 19.15 Q11.85 19.0 11.85 18.75 11.85 18.45 11.85 18.35 11.85 18.3 11.85 18.25 11.8 18.2 11.8 18.15 11.6 17.8 11.45 17.65 11.4 17.6 11.4 17.6 11.35 17.55 11.3 17.55 10.55 17.55 10.05 17.55 10.0 17.55 10.0 17.6 9.95 17.6 9.95 17.65 9.95 17.65 9.9 17.7 9.9 17.75 9.9 17.8 9.85 17.85 9.85 17.9 9.85 17.95 9.85 18.0 9.85 18.05 9.8 18.1 9.8 18.15 9.8 18.2 9.8 18.25 9.75 18.3 9.75 18.3 9.75 18.35 9.7 18.4 9.7 18.45 9.7 18.5 9.7 18.55 9.7 18.6 9.7 18.65 9.7 18.7 9.75 18.7 9.9 18.85 10.3 19.15 10.6 19.4 10.8 19.55 10.85 19.6 10.9 19.65 10.95 19.65 11.0 19.7 11.05 19.75 11.1 19.8 11.15 19.85 11.2 19.9 11.25 19.95 11.3 19.95 11.4 20.0 11.45 20.0 11.5 20.05 11.55 20.05 11.65 20.1 11.7 20.1 11.75 20.1 11.8 20.1 11.8 20.05 11.85 20.05 11.85 20.0 11.85 19.95 11.85 19.75 11.85 19.15 L11.85 19.15 M2.75 19.1 Q2.75 19.4 2.75 19.95 2.75 20.05 2.8 20.05 2.8 20.1 2.9 20.1 2.95 20.1 2.95 20.1 3.1 20.05 3.05 20.05 3.05 20.05 3.1 20.05 3.15 20.05 3.15 20.0 3.2 20.0 3.25 20.0 3.25 19.95 3.3 19.95 3.35 19.95 3.35 19.9 3.4 19.9 3.45 19.85 3.55 19.75 4.0 19.4 4.15 19.25 4.45 19.05 4.75 18.8 4.85 18.7 4.9 18.65 4.9 18.6 4.95 18.55 4.9 18.55 4.9 18.5 4.85 18.45 4.85 18.4 4.8 18.35 4.8 18.3 4.8 18.2 4.75 18.15 4.75 18.1 4.75 18.05 4.7 18.0 4.7 17.95 4.7 17.9 4.7 17.85 4.7 17.75 4.65 17.7 4.65 17.65 4.65 17.55 4.55 17.55 4.4 17.55 3.3 17.55 3.3 17.55 3.25 17.55 3.2 17.55 3.2 17.6 3.15 17.65 3.1 17.7 3.05 17.75 3.05 17.75 3.0 17.8 2.95 17.85 2.95 17.9 2.9 17.95 2.85 18.0 2.85 18.05 2.8 18.1 2.8 18.15 2.8 18.2 2.75 18.25 2.75 18.35 2.75 18.4 2.75 18.55 2.75 19.1 L2.75 19.1 M10.75 17.3 Q10.75 17.3 10.75 17.3 10.95 17.3 11.45 17.3 11.5 17.3 11.5 17.3 11.55 17.25 11.6 17.25 11.65 17.25 11.65 17.2 11.7 17.2 11.75 17.15 11.75 17.1 11.8 17.1 11.8 17.05 11.85 17.05 11.85 17.0 11.85 16.95 11.85 16.95 11.85 16.9 11.85 16.2 11.85 15.8 11.85 15.75 11.85 15.7 11.8 15.7 11.8 15.65 11.75 15.65 11.7 15.65 11.65 15.65 11.65 15.65 11.6 15.65 11.55 15.6 11.5 15.6 11.5 15.6 11.45 15.6 11.4 15.6 11.35 15.6 11.35 15.6 11.3 15.6 11.25 15.65 11.2 15.65 11.2 15.65 11.15 15.7 11.1 15.7 11.1 15.7 10.8 15.85 10.3 16.1 9.85 16.3 9.75 16.3 9.75 16.4 9.9 16.85 9.95 17.15 9.95 17.2 9.95 17.25 10.0 17.25 10.0 17.3 10.05 17.3 10.1 17.3 10.3 17.3 10.75 17.3 L10.75 17.3 M3.85 17.3 Q3.9 17.3 3.95 17.3 3.95 17.3 4.0 17.3 4.05 17.3 4.1 17.3 4.15 17.3 4.2 17.3 4.25 17.3 4.25 17.3 4.3 17.3 4.35 17.3 4.4 17.3 4.45 17.3 4.5 17.3 4.55 17.3 4.6 17.3 4.6 17.25 4.65 17.25 4.65 17.2 4.75 16.65 4.8 16.5 4.85 16.45 4.85 16.4 4.85 16.35 4.8 16.35 4.8 16.3 4.75 16.3 4.75 16.25 4.7 16.25 4.15 16.0 3.7 15.8 3.75 15.8 3.6 15.75 3.55 15.75 3.5 15.7 3.45 15.7 3.4 15.65 3.35 15.65 3.35 15.65 3.3 15.6 3.25 15.6 3.2 15.6 3.15 15.6 3.1 15.6 3.05 15.6 3.0 15.6 2.9 15.65 2.85 15.65 2.85 15.7 2.8 15.7 2.8 15.75 2.75 15.75 2.75 15.8 2.75 16.1 2.75 16.9 2.75 17.0 2.8 17.05 2.85 17.1 2.9 17.15 2.95 17.25 3.0 17.25 3.1 17.3 3.15 17.3 3.4 17.3 3.85 17.3 L3.85 17.3 M4.55 15.1 Q4.55 15.1 4.55 15.1 4.15 15.1 3.55 15.1 3.45 15.1 3.45 15.1 3.4 15.1 3.4 15.15 3.4 15.2 3.4 15.25 3.4 15.3 3.45 15.35 3.45 15.4 3.5 15.4 3.75 15.55 4.2 15.7 4.85 16.0 4.9 16.05 5.0 16.1 5.05 16.0 5.1 15.95 5.1 15.9 5.15 15.85 5.15 15.8 5.2 15.75 5.25 15.7 5.3 15.65 5.3 15.6 5.35 15.55 5.4 15.55 5.4 15.5 5.45 15.45 5.5 15.4 5.55 15.35 5.6 15.35 5.65 15.3 5.65 15.3 5.7 15.25 5.7 15.15 5.7 15.15 5.65 15.1 5.65 15.1 5.6 15.1 5.55 15.1 5.25 15.1 4.55 15.1 L4.55 15.1 M10.05 15.1 Q9.8 15.1 9.3 15.1 9.25 15.1 9.2 15.1 9.15 15.1 9.1 15.1 9.05 15.1 9.0 15.1 8.95 15.1 8.95 15.1 8.9 15.15 8.9 15.2 8.85 15.15 8.95 15.25 8.95 15.3 9.0 15.3 9.0 15.3 9.05 15.35 9.1 15.4 9.1 15.4 9.5 15.9 9.55 15.95 9.6 16.05 9.6 16.05 9.65 16.1 9.7 16.05 10.3 15.8 10.35 15.75 11.0 15.45 11.1 15.4 11.1 15.4 11.2 15.15 11.2 15.15 11.15 15.1 11.1 15.1 11.05 15.1 10.8 15.1 10.05 15.1 L10.05 15.1" fill="#000000" fill-rule="evenodd" stroke="none"/>
    <path d="M7.3 36.35 Q6.2 36.35 2.95 36.35 2.9 36.35 2.85 36.35 2.8 36.35 2.8 36.3 2.8 36.3 2.8 36.25 2.8 34.65 2.8 30.4 2.8 30.35 2.8 30.3 2.8 30.3 2.85 30.25 2.85 30.2 2.9 30.2 3.0 30.1 3.15 30.0 3.25 29.95 3.4 29.85 3.5 29.75 3.65 29.7 3.75 29.6 3.9 29.55 4.05 29.45 4.15 29.4 4.3 29.35 4.45 29.25 4.55 29.2 4.7 29.15 4.85 29.1 5.0 29.05 5.1 29.0 5.25 28.95 5.35 28.9 5.5 28.9 5.6 28.85 5.75 28.8 5.85 28.8 6.0 28.75 6.1 28.75 6.25 28.7 6.35 28.7 6.5 28.7 6.65 28.65 6.75 28.65 6.9 28.65 7.0 28.65 7.8 28.65 8.2 28.7 8.4 28.75 8.6 28.75 8.8 28.8 9.0 28.85 9.15 28.9 9.35 28.95 9.55 29.0 9.75 29.05 9.9 29.15 10.1 29.2 10.25 29.3 10.45 29.4 10.6 29.45 10.8 29.55 10.95 29.65 11.15 29.8 11.15 29.8 11.7 30.2 11.75 30.2 11.75 30.25 11.8 30.3 11.8 30.3 11.8 30.35 11.8 30.4 11.8 32.4 11.8 36.15 11.8 36.25 11.8 36.3 11.8 36.35 11.75 36.35 11.75 36.35 11.6 36.35 10.2 36.35 7.3 36.35 L7.3 36.35" fill="#000000" fill-opacity="0.14117648" fill-rule="evenodd" stroke="none"/>
  </g>
</svg>
