<?xml version="1.0" encoding="UTF-8" standalone="no"?>
<svg xmlns:xlink="http://www.w3.org/1999/xlink" height="126.0px" width="124.7px" xmlns="http://www.w3.org/2000/svg">
  <g transform="matrix(1.0, 0.0, 0.0, 1.0, 62.35, 63.0)">
    <path d="M-44.95 39.4 Q-45.2 39.5 -45.4 39.6 -45.65 39.75 -45.95 39.85 -46.2 39.95 -46.5 40.05 -46.85 40.15 -47.15 40.2 -47.5 40.3 -47.85 40.35 -48.2 40.4 -48.55 40.45 -48.95 40.5 -49.35 40.5 -49.75 40.5 -50.15 40.45 -51.0 40.35 -51.8 40.1 -52.55 39.9 -53.3 39.5 -53.95 39.1 -54.6 38.65 -55.2 38.15 -55.8 37.6 -56.3 37.1 -56.85 36.5 -57.3 35.95 -57.8 35.3 -58.15 34.85 -58.6 34.2 -59.3 33.2 -59.35 33.15 -60.05 32.2 -60.6 31.25 -61.1 30.3 -61.5 29.4 -61.85 28.5 -62.1 27.65 -62.3 26.75 -62.35 25.9 -62.4 25.05 -62.3 24.25 -62.15 23.45 -61.9 22.65 -61.6 21.85 -61.2 21.1 -60.75 20.35 -60.15 19.6 -59.95 19.45 -59.7 19.3 -59.5 19.15 -59.25 19.05 -59.0 18.9 -58.75 18.8 -58.5 18.7 -58.2 18.6 -57.95 18.5 -57.65 18.45 -57.35 18.35 -57.05 18.3 -56.75 18.25 -56.4 18.2 -56.1 18.15 -55.75 18.15 L-55.2 18.75 Q-55.7 17.3 -56.15 15.85 -56.65 14.45 -57.05 13.05 -57.45 11.7 -57.8 10.35 -58.15 9.0 -58.5 7.7 -58.8 6.4 -59.05 5.15 -59.3 3.9 -59.5 2.65 -59.7 1.45 -59.85 0.25 -60.0 -0.9 -60.1 -2.05 -60.2 -5.5 -60.0 -8.8 -59.85 -12.05 -59.45 -15.15 -59.0 -18.25 -58.35 -21.1 -57.7 -24.0 -56.8 -26.7 -55.9 -29.4 -54.7 -31.85 -53.55 -34.35 -52.15 -36.65 -50.75 -38.95 -49.1 -41.1 -47.45 -43.2 -45.55 -45.1 -42.55 -47.9 -39.45 -50.25 -36.3 -52.6 -33.05 -54.5 -29.75 -56.45 -26.35 -57.9 -22.9 -59.4 -19.35 -60.45 -15.75 -61.5 -12.05 -62.15 -8.35 -62.75 -4.45 -62.95 -0.6 -63.15 3.4 -62.9 7.45 -62.65 11.6 -61.95 12.85 -61.65 14.1 -61.3 15.3 -61.0 16.5 -60.65 17.7 -60.35 18.85 -60.0 20.05 -59.65 21.15 -59.25 22.3 -58.9 23.4 -58.55 24.5 -58.15 25.55 -57.75 26.6 -57.4 27.65 -56.95 28.65 -56.55 29.65 -56.15 L29.7 -56.1 Q32.05 -54.95 34.2 -53.7 36.35 -52.5 38.35 -51.2 40.3 -49.9 42.05 -48.55 43.8 -47.2 45.4 -45.8 46.95 -44.4 48.3 -42.95 49.65 -41.45 50.85 -39.95 52.0 -38.4 52.95 -36.85 53.95 -35.25 54.7 -33.6 55.95 -31.2 57.0 -28.7 58.05 -26.2 58.9 -23.55 59.75 -20.95 60.4 -18.2 61.05 -15.45 61.45 -12.6 61.9 -9.8 62.15 -6.85 62.35 -3.85 62.35 -0.8 62.4 2.25 62.2 5.45 62.0 8.6 61.6 11.9 61.45 12.65 61.35 13.45 61.25 14.15 61.15 14.9 61.1 15.6 61.05 16.3 60.95 16.95 60.95 17.6 60.9 18.2 60.85 18.8 60.85 19.35 60.85 19.95 60.85 20.45 60.85 20.95 60.85 21.4 60.85 21.9 60.9 22.95 60.95 24.1 61.0 25.0 61.1 26.05 61.15 26.4 61.3 27.8 61.4 28.8 61.45 29.45 61.5 30.3 61.55 31.0 61.55 31.8 61.5 32.55 61.45 33.35 61.35 34.1 61.2 34.95 60.95 35.8 60.8 36.3 60.65 36.8 60.5 37.3 60.3 37.75 60.1 38.2 59.9 38.65 59.7 39.05 59.5 39.45 59.3 39.85 59.05 40.2 58.85 40.55 58.65 40.9 58.45 41.2 58.25 41.5 58.05 41.75 57.85 42.0 57.05 42.7 56.25 43.35 55.35 44.05 54.45 44.75 53.45 45.5 52.45 46.25 51.3 47.0 50.2 47.75 48.95 48.55 47.7 49.25 46.35 50.05 45.0 50.75 43.55 51.5 42.05 52.15 40.5 52.85 38.9 53.5 37.55 54.05 36.15 54.5 34.85 54.95 33.5 55.35 32.25 55.7 30.95 56.05 29.75 56.35 28.5 56.6 27.35 56.85 26.2 57.05 25.1 57.25 24.0 57.4 23.0 57.55 21.95 57.65 21.05 57.75 20.1 57.8 19.15 57.85 18.1 57.85 16.5 57.85 14.75 57.85 12.55 57.8 10.3 57.7 7.65 57.55 5.0 57.35 1.95 57.1 -0.95 56.7 -4.25 56.3 -7.35 55.75 -10.8 55.1 -13.95 54.3 -17.35 53.45 -20.45 52.35 -22.4 51.7 -24.4 50.85 -26.2 50.15 -28.05 49.3 -29.7 48.55 -31.35 47.75 -32.75 47.05 -34.2 46.3 -35.4 45.65 -36.55 45.0 -37.45 44.45 -38.3 43.95 -38.9 43.6 -39.45 43.25 -39.65 43.15 -39.8 43.05 -40.2 42.8 -40.6 42.5 -41.0 42.25 -41.35 42.0 -41.75 41.75 -42.1 41.5 -42.45 41.25 -42.75 41.0 -43.05 40.8 -43.4 40.55 -43.65 40.35 -43.95 40.15 -44.2 39.95 -44.5 39.75 -44.7 39.6 -44.95 39.4 L-44.95 39.4" fill="#eac7a2" fill-rule="evenodd" stroke="none"/>
  </g>
</svg>
