<?xml version="1.0" encoding="UTF-8" standalone="no"?>
<svg xmlns:xlink="http://www.w3.org/1999/xlink" height="164.85px" width="137.7px" xmlns="http://www.w3.org/2000/svg">
  <g transform="matrix(1.0, 0.0, 0.0, 1.0, 68.85, 82.45)">
    <path d="M-44.35 29.1 Q-44.5 26.95 -44.6 24.75 -44.7 22.55 -44.8 20.3 -44.85 18.1 -44.9 15.8 -44.95 13.55 -44.95 11.25 -44.95 9.0 -44.95 6.7 -44.9 4.4 -44.85 2.15 -44.8 -0.15 -44.7 -2.4 -44.6 -4.65 -44.5 -6.85 -44.4 -8.4 -44.6 -9.6 -44.75 -10.65 -45.2 -11.5 -45.6 -12.25 -46.2 -12.95 -46.45 -13.2 -47.4 -14.15 -48.15 -14.85 -48.55 -15.4 -49.15 -16.2 -49.55 -17.15 -50.0 -18.2 -50.2 -19.55 -50.4 -21.05 -50.25 -23.0 -50.0 -25.1 -49.45 -26.9 -48.95 -28.55 -48.2 -29.95 -47.5 -31.2 -46.6 -32.4 -45.9 -33.3 -44.85 -34.4 -44.7 -34.55 -43.0 -36.25 -41.9 -37.35 -41.2 -38.15 -40.25 -39.25 -39.6 -40.3 -38.8 -41.6 -38.25 -43.05 -36.45 -46.3 -33.9 -48.9 -31.45 -51.35 -28.35 -53.2 -25.45 -54.95 -22.0 -56.15 -18.75 -57.3 -15.2 -57.9 -11.8 -58.5 -8.25 -58.6 -4.9 -58.7 -1.6 -58.35 1.55 -58.0 4.45 -57.35 7.3 -56.65 9.55 -55.7 10.95 -54.9 12.3 -53.8 13.5 -52.7 14.65 -51.35 15.7 -50.1 16.7 -48.6 17.6 -47.2 18.4 -45.6 19.15 -44.15 19.85 -42.55 20.45 -41.1 20.95 -39.6 21.4 -38.2 21.75 -36.85 22.1 -35.6 22.3 -34.45 22.45 -34.0 22.55 -33.4 22.65 -32.9 22.75 -32.25 22.8 -31.8 22.9 -31.1 23.05 -29.85 23.05 -29.95 23.1 -29.3 23.2 -28.9 23.25 -28.35 23.35 -28.0 23.45 -27.6 23.55 -27.35 23.7 -27.05 23.85 -26.95 25.15 -26.65 26.65 -26.45 27.65 -26.35 29.3 -26.2 31.1 -26.05 31.8 -25.95 33.1 -25.8 34.05 -25.55 35.2 -25.3 36.05 -24.85 37.05 -24.35 37.85 -23.6 38.7 -22.85 39.35 -21.7 40.05 -20.55 40.55 -18.95 41.1 -15.8 41.5 -12.2 41.9 -8.85 42.25 -5.15 42.55 -1.75 42.75 1.8 42.9 5.1 43.05 8.35 43.15 11.4 43.15 14.2 43.15 16.85 43.1 18.95 43.05 21.05 42.95 22.4 42.85 23.75 42.7 24.1 41.35 26.1 40.9 27.2 40.5 28.2 40.85 28.5 41.15 28.75 42.15 28.4 42.95 28.15 44.35 27.45 45.2 27.0 47.1 25.95 49.0 24.9 49.95 24.45 51.5 23.65 52.5 23.25 53.7 22.8 54.35 22.9 56.3 22.7 57.75 22.8 59.15 22.9 60.1 23.25 61.05 23.6 61.5 24.2 61.95 24.75 62.0 25.5 62.05 26.25 61.7 27.1 61.4 27.95 60.7 28.9 60.05 29.85 59.05 30.8 58.1 31.75 56.9 32.7 L56.9 32.7 Q56.05 33.2 55.3 33.9 54.6 34.55 54.0 35.4 53.4 36.15 52.85 37.05 52.4 37.85 51.9 38.9 51.55 39.6 51.0 40.75 50.35 42.25 50.15 42.65 49.65 43.7 49.25 44.45 48.75 45.45 48.2 46.2 46.4 48.5 44.5 50.35 42.75 52.0 40.9 53.25 39.2 54.35 37.45 55.15 35.95 55.8 34.3 56.2 32.95 56.55 31.55 56.7 30.4 56.8 29.15 56.8 28.45 56.75 27.35 56.7 26.4 56.6 26.1 56.65 23.25 56.75 20.7 57.35 18.55 57.85 16.4 58.8 14.9 59.4 12.65 60.6 9.95 62.0 9.0 62.45 6.9 63.45 4.95 64.05 2.55 64.75 -0.05 65.05 -3.0 65.4 -6.45 65.15 -10.25 64.95 -14.85 64.1 -17.7 63.45 -19.9 62.4 -21.85 61.45 -23.3 60.15 -24.6 58.95 -25.45 57.5 -26.2 56.25 -26.65 54.75 -27.0 53.6 -27.2 52.1 -27.25 51.45 -27.4 49.8 -27.5 48.5 -27.65 47.95 -27.85 47.2 -28.2 46.9 -28.75 46.55 -31.65 44.85 -33.5 43.7 -34.5 43.1 -35.9 42.2 -36.85 41.5 -37.95 40.65 -38.8 39.85 -39.7 38.95 -40.4 37.95 -41.15 36.95 -41.8 35.7 -42.45 34.4 -43.1 32.8 -43.7 31.2 -44.35 29.1 L-44.35 29.1 M11.35 -47.25 L11.25 -47.15 Q11.3 -47.2 11.3 -47.25 11.35 -47.3 11.35 -47.35 11.35 -47.45 11.3 -47.5 11.3 -47.6 11.25 -47.7 11.2 -47.75 11.1 -47.8 11.05 -47.9 11.0 -47.9 10.9 -47.95 10.85 -47.95 10.75 -47.95 10.7 -47.95 9.85 -49.55 7.9 -50.7 6.05 -51.7 3.4 -52.25 0.9 -52.75 -2.25 -52.85 -5.2 -52.95 -8.45 -52.6 -11.55 -52.3 -14.65 -51.7 -17.65 -51.1 -20.3 -50.3 -22.95 -49.45 -24.85 -48.5 -26.8 -47.5 -27.7 -46.5 -27.3 -46.8 -28.25 -46.05 -28.65 -45.75 -28.95 -45.5 -29.3 -45.2 -29.6 -44.9 -29.95 -44.6 -30.2 -44.3 -30.45 -43.95 -30.6 -43.6 -30.75 -43.3 -30.75 -43.0 -30.7 -42.65 -30.5 -42.35 -30.3 -42.05 -29.9 -41.8 -23.9 -42.05 -19.1 -41.9 -14.5 -41.75 -10.95 -41.25 -7.55 -40.75 -5.05 -39.95 -2.7 -39.2 -1.05 -38.15 0.45 -37.2 1.45 -35.9 2.3 -34.8 2.75 -33.4 3.15 -32.2 3.35 -30.65 3.45 -29.65 3.5 -27.85 3.65 -26.75 3.65 -25.6 3.65 -24.5 3.55 -23.35 3.45 -22.3 3.25 -21.2 3.05 -20.15 2.8 -19.05 2.5 -18.05 2.15 -17.05 1.8 -16.05 1.4 -15.05 1.0 -14.15 0.55 -13.15 0.15 -12.3 -0.35 -11.35 -1.35 -10.45 -3.35 -8.6 -4.85 -7.65 -6.3 -6.95 -7.7 -6.25 -9.05 -5.7 -10.35 -5.2 -11.65 -4.85 -12.9 -4.55 -14.15 -4.35 -15.35 -4.15 -16.65 -4.05 -17.8 -4.0 -19.1 -4.05 -20.3 -4.05 -21.65 -4.15 -22.8 -4.25 -24.35 -4.4 -27.7 -4.8 -30.9 -5.5 -32.6 -5.9 -35.35 -6.65 -37.4 -7.2 -38.1 -7.25 -39.1 -7.35 -39.5 -6.8 -39.9 -6.25 -39.95 -4.75 -40.0 -3.6 -39.9 -0.45 -39.75 4.05 -39.7 6.55 -39.6 11.55 -39.7 16.8 -39.9 22.65 -39.3 26.6 -38.8 30.2 -37.65 32.5 -36.65 34.45 -35.1 35.65 -33.95 36.5 -31.95 37.35 -29.3 38.5 -28.6 38.9 -26.7 39.9 -25.4 41.45 -23.8 43.3 -22.7 46.25 -21.5 49.6 -20.85 54.6 -20.75 54.85 -20.6 55.1 -20.5 55.3 -20.35 55.55 -20.2 55.75 -20.05 55.95 -19.85 56.1 -19.7 56.3 -19.5 56.45 -19.25 56.6 -19.05 56.75 -18.8 56.9 -18.55 57.0 -18.25 57.1 -18.0 57.2 -17.65 57.25 -16.9 57.35 -16.05 57.55 -15.35 57.7 -14.5 57.95 -13.85 58.1 -12.9 58.35 -13.75 58.15 -11.35 58.85 -10.4 59.1 -9.75 59.3 -8.9 59.5 -8.15 59.7 -7.3 59.9 -6.55 60.0 -5.7 60.15 -4.9 60.2 -1.75 60.1 0.8 59.75 3.1 59.4 5.05 58.85 6.7 58.35 8.15 57.65 9.3 57.05 10.45 56.25 10.95 55.9 12.3 54.9 13.4 54.05 14.1 53.65 15.05 53.05 16.05 52.7 17.25 52.35 18.65 52.25 22.5 52.55 25.55 52.4 28.55 52.25 30.95 51.7 33.3 51.15 35.25 50.2 37.05 49.3 38.65 47.9 40.1 46.65 41.55 44.9 42.8 43.4 44.25 41.2 45.1 39.95 47.05 36.8 49.05 33.65 50.3 31.8 50.9 31.15 51.2 30.75 51.6 30.3 51.85 29.95 52.1 29.65 52.2 29.4 52.3 29.2 52.3 29.1 52.25 29.0 52.05 28.95 51.85 28.95 51.5 29.05 51.15 29.1 50.6 29.3 50.15 29.4 49.4 29.7 48.9 29.9 48.35 30.2 47.9 30.45 47.45 30.8 47.05 31.1 46.55 31.5 46.35 31.65 45.7 32.2 45.15 32.65 44.85 32.95 44.35 33.3 43.95 33.6 43.45 33.95 42.95 34.15 42.45 34.45 41.9 34.6 40.55 34.9 39.15 34.9 37.75 34.95 36.4 34.7 35.0 34.5 33.7 34.05 32.4 33.6 31.15 32.95 29.95 32.3 28.85 31.45 27.75 30.6 26.85 29.6 25.95 28.55 25.2 27.4 24.5 26.25 24.0 24.95 23.25 21.35 22.6 16.45 22.05 12.35 21.55 6.7 21.25 3.7 20.65 -3.7 20.1 -10.5 19.7 -14.25 19.15 -20.0 18.55 -24.35 17.85 -29.55 17.0 -33.5 16.05 -37.9 14.8 -41.05 13.5 -44.5 11.8 -46.55 11.85 -46.6 11.85 -46.65 11.85 -46.7 11.85 -46.75 11.85 -46.8 11.85 -46.85 11.8 -46.9 11.8 -46.95 11.75 -47.0 11.7 -47.05 11.7 -47.1 11.6 -47.1 11.55 -47.15 11.5 -47.2 11.45 -47.2 11.35 -47.25 L11.35 -47.25 M33.3 -19.4 L33.3 -19.35 Q33.05 -19.65 32.8 -19.9 32.55 -20.15 32.3 -20.3 32.05 -20.4 31.75 -20.5 31.5 -20.55 31.2 -20.6 30.95 -20.65 30.6 -20.7 29.75 -20.75 29.95 -20.7 29.55 -20.75 29.25 -20.8 28.9 -20.85 28.55 -20.95 27.15 -21.45 26.3 -21.15 25.5 -20.9 25.1 -20.05 24.75 -19.25 24.7 -17.9 24.65 -16.75 24.9 -15.15 25.05 -13.9 25.4 -12.05 24.7 -15.6 26.0 -9.05 26.3 -7.35 26.45 -6.4 26.6 -5.15 26.5 -4.45 26.9 -1.05 27.2 2.55 27.4 5.3 27.55 8.65 26.9 -4.0 27.85 13.8 27.95 16.5 28.1 18.1 28.3 20.1 28.6 21.5 28.9 23.0 29.4 24.0 29.9 25.05 30.7 25.7 31.5 26.3 32.65 26.55 34.2 26.5 35.3 25.8 36.3 25.15 36.9 23.9 37.45 22.8 37.7 21.2 37.9 19.8 37.85 18.0 37.85 16.5 37.65 14.55 37.55 13.4 37.3 11.15 37.05 9.1 36.95 8.15 36.85 6.7 36.9 5.85 36.65 2.85 36.35 -1.3 36.05 -5.85 35.95 -6.95 35.75 -9.7 35.6 -11.35 35.45 -13.3 35.3 -14.6 35.1 -16.0 34.95 -16.85 34.75 -17.75 34.5 -18.3 34.3 -18.85 34.0 -19.1 33.7 -19.35 33.3 -19.4 L33.3 -19.4 M-20.35 -37.2 Q-27.35 -37.05 -32.6 -35.6 -37.4 -34.25 -40.35 -31.95 -43.1 -29.85 -44.05 -27.1 -44.9 -24.5 -44.0 -21.75 -43.15 -19.05 -40.7 -16.7 -38.2 -14.3 -34.55 -12.75 -30.6 -11.05 -25.85 -10.6 -20.7 -10.1 -15.05 -11.1 -12.6 -11.75 -10.55 -12.75 -8.65 -13.75 -7.15 -15.05 -5.7 -16.3 -4.75 -17.8 -3.8 -19.25 -3.3 -20.95 -2.8 -22.55 -2.8 -24.35 -2.8 -26.05 -3.2 -27.9 -3.65 -29.7 -4.5 -31.45 -5.35 -33.25 -6.6 -35.0 -7.4 -35.35 -8.25 -35.65 -9.05 -35.9 -9.95 -36.15 -10.75 -36.35 -11.65 -36.5 -12.45 -36.65 -13.35 -36.75 -14.2 -36.85 -15.1 -36.95 -15.95 -37.0 -16.85 -37.05 -17.65 -37.1 -18.65 -37.15 -18.8 -37.15 -20.35 -37.2 L-20.35 -37.2" fill="#060606" fill-rule="evenodd" stroke="none"/>
    <path d="M-39.05 -7.1 Q-39.1 1.2 -39.15 2.9 -39.15 3.15 -39.15 3.4 -39.15 3.65 -39.15 3.9 -39.1 4.15 -39.1 4.4 -39.05 4.65 -39.0 4.85 -38.95 5.1 -38.9 5.35 -38.8 5.55 -38.75 5.8 -38.65 6.0 -38.5 6.2 -38.4 6.45 -38.25 6.65 -37.85 7.2 -37.5 7.75 -37.1 8.35 -36.75 8.9 -36.4 9.5 -36.1 10.1 -35.75 10.65 -35.5 11.25 -35.2 11.85 -34.9 12.5 -34.65 13.1 -34.4 13.7 -34.15 14.35 -33.95 15.0 -33.75 15.6 -33.55 16.25 -33.15 17.7 -32.8 21.95 -32.8 22.2 -32.8 22.55 -32.75 22.8 -32.75 23.15 -32.75 23.7 -32.75 23.75 -32.75 24.05 -32.75 24.35 -32.75 24.65 -32.7 24.9 -32.7 25.25 -32.65 25.5 -32.6 25.85 -32.55 26.1 -32.5 26.4 -32.4 26.7 -32.25 27.2 -32.05 27.7 -31.85 28.2 -31.6 28.65 -31.35 29.1 -31.1 29.5 -30.8 29.9 -30.5 30.3 -30.2 30.65 -29.85 31.0 -29.45 31.35 -29.05 31.65 -28.65 31.95 -28.2 32.2 -27.7 32.45 -27.2 32.6 -26.5 32.9 -25.85 33.2 -25.2 33.5 -24.6 33.9 -24.0 34.25 -23.5 34.65 -22.95 35.1 -22.5 35.6 -22.05 36.1 -21.65 36.65 -21.25 37.2 -20.95 37.8 -20.65 38.45 -20.4 39.15 -20.2 39.85 -20.05 40.65 -19.95 41.1 -19.8 41.55 -19.65 42.0 -19.45 42.4 -19.25 42.8 -19.0 43.2 -18.75 43.6 -18.45 43.95 -18.2 44.3 -17.85 44.65 -17.55 45.0 -17.15 45.3 -16.85 45.6 -16.45 45.9 -16.1 46.2 -15.7 46.45 -15.4 46.65 -14.95 46.95 -14.8 47.05 -14.25 47.45 -13.8 47.8 -13.55 48.0 -13.15 48.25 -12.8 48.45 -12.4 48.75 -12.05 48.95 -11.65 49.2 -11.3 49.35 -10.85 49.6 -10.5 49.75 -10.05 49.9 -9.65 50.05 -9.4 50.15 -9.1 50.25 -8.9 50.3 -8.55 50.45 -8.7 50.4 -8.05 50.65 -7.7 50.75 -7.5 50.85 -7.2 50.95 -6.95 51.05 -6.65 51.15 -6.4 51.2 -6.1 51.3 -5.85 51.35 -5.55 51.4 -5.25 51.45 -4.9 51.5 -4.55 51.45 -4.25 51.35 -3.95 51.2 -3.65 51.05 -3.4 50.8 -3.15 50.6 -2.95 50.3 -2.75 50.0 -2.65 49.65 -2.55 49.35 -2.5 48.95 -2.45 48.6 -2.55 48.2 -2.6 47.8 -2.75 47.45 -2.9 47.15 -3.05 46.8 -3.25 46.5 -3.4 46.2 -3.6 45.95 -3.8 45.6 -3.95 45.35 -4.2 45.05 -4.0 45.35 -4.6 44.45 -4.85 44.15 -5.0 43.9 -5.2 43.6 -5.4 43.3 -5.55 43.0 -5.75 42.7 -6.05 42.15 -6.25 41.6 -6.5 41.05 -6.65 40.45 -6.8 39.9 -6.9 39.3 -6.95 38.75 -7.0 38.15 -7.05 37.6 -7.05 37.0 -7.05 36.45 -7.0 35.8 -7.0 35.25 -6.95 34.65 -6.9 34.15 -6.8 33.45 -6.7 32.65 -6.5 31.85 -6.35 31.05 -6.05 30.3 -5.75 29.6 -5.4 28.9 -5.05 28.2 -4.6 27.55 -4.2 26.9 -3.7 26.25 -3.25 25.65 -2.75 25.0 -2.25 24.45 -1.65 23.8 -1.2 23.25 -0.6 22.6 -0.15 22.15 0.8 21.15 1.7 20.2 2.15 19.75 3.35 18.5 6.7 16.0 7.6 15.3 8.45 14.55 9.3 13.8 10.1 13.0 10.85 12.2 11.55 11.35 12.25 10.55 12.9 9.65 13.5 8.75 14.1 7.8 14.65 6.85 15.15 5.8 15.6 4.8 16.05 3.75 16.45 2.7 16.8 1.6 16.9 1.25 17.0 1.05 17.1 0.65 17.2 0.25 17.35 -0.25 17.5 -0.8 17.65 -1.45 17.75 -2.15 17.95 -2.95 18.1 -3.85 18.25 -4.9 18.4 -6.0 18.6 -7.2 18.75 -8.6 18.95 -10.05 19.1 -11.65 19.15 -12.35 19.2 -13.0 19.3 -13.7 19.35 -14.4 19.4 -15.2 19.45 -15.95 19.5 -16.75 19.55 -17.55 19.6 -18.45 19.65 -19.3 19.7 -20.2 19.75 -21.1 19.75 -22.05 19.8 -23.05 19.85 -24.0 19.85 -25.0 20.05 -22.95 20.25 -20.85 20.4 -18.9 20.55 -16.9 20.7 -15.05 20.8 -13.2 20.9 -11.45 21.0 -9.7 21.05 -8.1 21.1 -6.45 21.15 -4.95 21.2 -3.5 21.2 -2.1 21.2 -0.75 21.2 0.5 21.2 1.75 21.2 3.65 21.25 5.35 21.3 6.9 21.4 8.4 21.45 9.75 21.6 11.0 21.7 12.2 21.85 13.35 22.0 14.35 22.2 15.5 22.3 16.25 22.55 17.55 22.8 19.1 22.9 19.6 23.1 20.85 23.2 21.85 23.45 23.5 24.0 25.0 24.55 26.45 25.4 27.75 26.2 29.0 27.25 30.05 28.3 31.1 29.5 31.9 30.7 32.75 32.05 33.35 33.4 33.95 34.8 34.35 36.25 34.7 37.7 34.85 39.15 34.95 40.6 34.85 41.0 34.8 41.4 34.75 41.75 34.65 42.15 34.5 42.5 34.4 42.85 34.2 43.2 34.05 43.55 33.85 43.85 33.65 44.2 33.4 44.5 33.2 44.85 32.95 45.15 32.7 45.45 32.4 45.7 32.2 46.05 31.9 46.35 31.65 46.65 31.4 46.95 31.15 47.25 30.95 47.55 30.7 47.85 30.5 48.15 30.3 48.5 30.1 48.8 29.95 49.15 29.8 49.5 29.6 49.85 29.5 50.2 29.35 50.55 29.25 50.95 29.15 51.3 29.1 51.35 29.1 51.45 29.05 51.55 29.0 51.55 29.0 51.65 29.0 51.7 29.0 51.75 28.95 51.85 28.95 51.9 28.95 52.0 28.95 52.05 28.95 52.15 29.0 52.2 29.0 52.3 29.05 52.35 29.1 52.45 29.2 49.7 32.55 49.1 33.3 48.05 34.7 46.6 37.45 44.95 40.5 44.15 41.7 43.45 42.8 42.65 43.75 41.9 44.75 41.05 45.6 40.2 46.5 39.3 47.3 38.4 48.1 37.45 48.75 36.45 49.45 35.4 50.0 34.35 50.55 33.25 51.0 32.1 51.45 30.9 51.8 29.65 52.1 28.35 52.3 28.0 52.35 27.65 52.4 27.3 52.4 26.9 52.45 26.55 52.45 26.2 52.45 25.85 52.45 25.5 52.45 25.1 52.45 24.75 52.45 24.4 52.45 24.05 52.4 23.7 52.4 23.3 52.35 22.95 52.3 22.6 52.3 21.85 52.2 21.1 52.15 20.35 52.15 19.6 52.15 18.85 52.2 18.15 52.3 17.45 52.4 16.75 52.55 16.05 52.75 15.4 53.0 14.75 53.25 14.1 53.6 13.45 53.95 12.85 54.35 12.25 54.8 11.7 55.3 11.2 55.75 10.6 56.2 10.1 56.6 9.5 56.95 8.95 57.3 8.35 57.6 7.75 57.85 7.1 58.1 6.55 58.35 5.9 58.55 5.25 58.75 4.6 58.95 4.0 59.1 3.3 59.25 2.7 59.35 2.0 59.5 1.2 59.65 0.7 59.75 0.0 59.85 -0.6 59.95 -1.25 60.05 -1.9 60.1 -2.55 60.2 -3.2 60.2 -3.85 60.25 -4.5 60.25 -5.15 60.25 -5.75 60.15 -6.45 60.1 -7.05 59.95 -7.75 59.85 -8.35 59.65 -8.9 59.45 -9.5 59.3 -10.1 59.15 -10.65 58.95 -11.25 58.8 -11.8 58.65 -12.4 58.5 -13.0 58.35 -13.55 58.2 -14.15 58.05 -14.7 57.9 -15.3 57.8 -15.9 57.65 -16.5 57.5 -17.05 57.4 -17.65 57.25 -18.1 57.15 -18.5 57.0 -18.9 56.85 -19.25 56.65 -19.55 56.4 -19.85 56.15 -20.1 55.9 -20.35 55.55 -20.55 55.25 -20.7 54.9 -20.9 54.55 -21.05 54.2 -21.2 53.8 -21.3 53.4 -21.4 53.05 -21.5 52.6 -21.6 52.25 -21.65 51.8 -21.7 51.45 -21.75 51.0 -21.8 50.7 -21.85 50.2 -21.95 49.35 -21.95 49.4 -22.0 48.95 -22.05 48.6 -22.1 48.15 -22.2 47.8 -22.25 47.4 -22.35 47.0 -22.45 46.6 -22.6 46.25 -22.85 45.45 -23.2 44.7 -23.55 44.0 -23.95 43.35 -24.35 42.65 -24.8 42.1 -25.25 41.5 -25.8 40.95 -26.35 40.45 -26.95 39.95 -27.5 39.5 -28.2 39.1 -28.85 38.7 -29.6 38.35 -30.3 38.0 -31.1 37.75 -32.1 37.4 -33.0 36.9 -33.85 36.45 -34.6 35.9 -35.4 35.35 -36.0 34.7 -36.65 34.05 -37.2 33.35 -37.7 32.6 -38.1 31.8 -38.5 30.95 -38.8 30.05 -39.05 29.15 -39.25 28.2 -39.4 27.2 -39.45 26.15 -39.7 20.9 -39.75 10.75 -39.75 9.65 -39.85 8.5 -39.9 7.55 -40.0 6.45 -40.05 5.9 -40.25 4.55 -40.35 3.4 -40.45 2.7 -40.55 1.75 -40.55 0.95 -40.6 0.0 -40.55 -0.85 -40.5 -1.85 -40.3 -2.75 -40.15 -3.75 -39.85 -4.8 -39.8 -5.0 -39.75 -5.15 -39.7 -5.35 -39.65 -5.5 -39.6 -5.65 -39.5 -5.8 -39.45 -5.95 -39.4 -6.1 -39.35 -6.25 -39.3 -6.4 -39.25 -6.5 -39.2 -6.65 -39.15 -6.75 -39.15 -6.85 -39.1 -7.0 -39.05 -7.1 L-39.05 -7.1" fill="#000000" fill-opacity="0.14117648" fill-rule="evenodd" stroke="none"/>
    <path d="M-20.35 -37.2 Q-19.55 -37.2 -18.75 -37.15 -17.95 -37.15 -17.15 -37.1 -16.35 -37.05 -15.6 -37.0 -14.75 -36.9 -14.0 -36.8 -13.2 -36.7 -12.45 -36.6 -11.65 -36.45 -10.85 -36.3 -10.05 -36.15 -9.3 -35.95 -8.5 -35.75 -7.75 -35.5 -7.65 -35.45 -7.55 -35.4 -7.5 -35.35 -7.4 -35.3 -7.3 -35.2 -7.2 -35.1 -7.0 -34.95 -7.0 -34.9 -6.85 -34.8 -6.75 -34.7 -6.6 -34.6 -6.5 -34.5 -6.35 -34.4 -6.2 -34.35 -6.0 -34.25 -5.85 -34.2 -5.5 -34.1 -5.15 -34.05 -4.85 -34.05 -4.5 -34.05 -4.2 -34.1 -3.9 -34.15 -3.65 -34.15 -3.35 -34.25 -3.3 -34.25 -2.85 -34.35 -2.6 -34.4 -2.5 -34.45 -2.3 -34.45 -2.2 -34.45 -2.1 -34.45 -2.05 -34.35 -2.0 -34.3 -2.05 -34.25 -2.05 -34.15 -2.1 -34.1 -2.15 -34.0 -2.25 -33.9 -2.8 -33.35 -2.45 -33.7 -2.6 -33.6 -2.65 -33.45 -2.8 -33.35 -2.85 -33.2 -2.95 -33.05 -3.05 -32.9 -3.1 -32.7 -3.1 -32.5 -3.15 -32.25 -3.1 -32.05 -3.05 -31.85 -2.95 -31.65 -2.85 -31.45 -2.7 -31.25 -2.55 -31.15 -2.35 -30.9 -2.1 -30.65 -2.0 -30.55 -1.8 -30.3 -1.65 -30.1 -1.45 -29.85 -1.35 -29.6 -1.2 -29.3 -1.15 -29.0 -1.1 -28.7 -1.1 -28.35 -1.1 -28.05 -1.15 -27.7 -1.2 -27.4 -1.35 -27.05 -1.45 -26.75 -1.6 -26.4 -1.7 -26.2 -1.9 -25.7 -2.1 -25.25 -2.2 -25.0 -2.4 -24.6 -2.5 -24.25 -2.7 -23.8 -2.8 -23.4 -2.8 -23.4 -2.8 -23.3 -2.8 -23.35 -2.8 -23.15 -2.8 -23.05 -2.8 -22.95 -2.8 -22.85 -2.8 -22.75 -2.8 -22.6 -2.8 -22.5 -2.85 -22.35 -2.9 -22.25 -2.95 -22.1 -3.05 -22.0 -3.15 -21.85 -3.3 -21.8 -3.3 -21.8 -3.35 -21.75 -3.35 -21.7 -3.4 -21.7 -3.4 -21.65 -3.45 -21.6 -3.45 -21.55 -3.45 -21.5 -3.5 -21.45 -3.5 -21.4 -3.5 -21.35 -3.5 -21.35 -3.5 -21.3 -3.5 -21.25 -3.5 -21.2 -3.5 -21.2 -3.4 -20.85 -3.4 -20.55 -3.4 -20.25 -3.45 -20.0 -3.5 -19.75 -3.65 -19.5 -3.75 -19.25 -3.9 -19.0 -4.0 -18.8 -4.2 -18.55 -4.3 -18.4 -4.55 -18.15 -4.8 -17.85 -4.9 -17.7 -5.1 -17.45 -5.25 -17.25 -5.45 -16.9 -5.7 -16.6 -5.95 -16.3 -6.2 -16.0 -6.45 -15.7 -6.7 -15.45 -6.95 -15.2 -7.25 -14.95 -7.55 -14.7 -7.85 -14.5 -8.15 -14.25 -8.45 -14.05 -8.75 -13.85 -9.05 -13.65 -9.4 -13.45 -9.75 -13.25 -10.35 -12.9 -10.95 -12.6 -11.55 -12.3 -12.2 -12.05 -12.8 -11.8 -13.45 -11.55 -14.1 -11.35 -14.75 -11.2 -15.35 -11.0 -16.05 -10.9 -16.7 -10.75 -17.35 -10.65 -18.05 -10.55 -18.7 -10.5 -19.4 -10.45 -20.1 -10.45 -20.45 -10.45 -21.2 -10.45 -21.9 -10.4 -22.3 -10.4 -22.9 -10.4 -23.4 -10.4 -23.95 -10.4 -24.5 -10.45 -25.05 -10.45 -25.55 -10.55 -26.15 -10.6 -26.65 -10.7 -27.2 -10.8 -27.7 -10.95 -28.25 -11.1 -28.75 -11.3 -29.05 -11.4 -29.35 -11.5 -29.65 -11.6 -30.0 -11.65 -30.25 -11.7 -30.6 -11.75 -30.8 -11.75 -31.2 -11.8 -31.6 -11.85 -31.85 -11.9 -32.2 -11.95 -32.45 -12.0 -32.8 -12.05 -33.05 -12.15 -33.4 -12.25 -33.65 -12.35 -33.75 -12.4 -33.85 -12.45 -33.95 -12.5 -34.0 -12.55 -34.1 -12.6 -34.2 -12.65 -34.25 -12.7 -34.35 -12.8 -34.45 -12.85 -34.5 -12.9 -34.6 -12.95 -34.65 -13.0 -34.75 -13.05 -34.85 -13.1 -34.95 -13.15 -35.0 -13.2 -35.5 -13.4 -35.95 -13.6 -36.45 -13.8 -36.9 -14.05 -37.4 -14.25 -37.8 -14.5 -38.25 -14.75 -38.7 -15.05 -39.15 -15.3 -39.55 -15.6 -40.0 -15.9 -40.35 -16.25 -40.75 -16.55 -41.15 -16.9 -41.55 -17.3 -41.9 -17.65 -42.55 -18.35 -43.05 -19.15 -43.5 -19.9 -43.85 -20.75 -44.15 -21.6 -44.3 -22.5 -44.45 -23.4 -44.45 -24.3 -44.45 -25.2 -44.25 -26.05 -44.05 -26.95 -43.7 -27.8 -43.3 -28.65 -42.75 -29.4 -42.15 -30.2 -41.45 -30.9 -40.7 -31.6 -39.9 -32.15 -39.1 -32.75 -38.25 -33.25 -37.45 -33.75 -36.55 -34.2 -35.7 -34.6 -34.8 -34.95 -33.9 -35.3 -32.95 -35.6 -32.05 -35.9 -31.1 -36.1 -30.15 -36.3 -29.2 -36.5 -28.25 -36.65 -27.2 -36.8 -26.75 -36.85 -26.35 -36.9 -25.9 -36.95 -25.5 -37.0 -25.05 -37.05 -24.65 -37.05 -24.2 -37.1 -23.8 -37.15 -23.35 -37.15 -22.95 -37.2 -22.5 -37.2 -22.1 -37.2 -21.65 -37.25 -21.25 -37.2 -20.8 -37.2 -20.35 -37.2 L-20.35 -37.2 M-43.2 -26.45 Q-43.2 -26.3 -43.2 -26.15 -43.2 -26.0 -43.2 -25.8 -43.15 -25.7 -43.15 -25.55 -43.1 -25.4 -43.1 -25.3 -43.05 -25.2 -43.0 -25.1 -43.0 -25.0 -42.95 -24.9 -42.95 -24.85 -42.9 -24.8 -42.9 -24.75 -42.9 -24.75 -42.75 -24.4 -42.5 -24.1 -42.25 -23.8 -41.95 -23.55 -41.6 -23.3 -41.25 -23.1 -40.85 -22.9 -40.4 -22.7 -40.0 -22.55 -39.45 -22.4 -39.0 -22.25 -38.4 -22.15 -37.85 -22.0 -37.2 -21.9 -36.65 -21.8 -35.9 -21.7 -35.55 -21.65 -35.1 -21.55 -34.5 -21.45 -33.8 -21.4 -33.0 -21.25 -32.15 -21.15 -31.2 -21.05 -30.2 -20.95 -29.05 -20.85 -27.85 -20.75 -26.6 -20.7 -25.3 -20.65 -23.9 -20.55 -22.5 -20.55 -21.0 -20.55 -19.5 -20.6 -19.4 -20.6 -19.3 -20.6 -19.15 -20.6 -18.95 -20.65 -18.8 -20.65 -18.55 -20.7 -18.3 -20.7 -18.05 -20.75 -17.8 -20.8 -17.5 -20.85 -17.15 -20.9 -16.85 -20.95 -16.5 -21.0 -16.15 -21.1 -15.75 -21.15 -15.4 -21.25 -15.1 -21.3 -14.85 -21.4 -14.55 -21.5 -14.3 -21.6 -14.05 -21.7 -13.8 -21.8 -13.55 -21.9 -13.3 -22.05 -13.05 -22.15 -12.8 -22.3 -12.6 -22.45 -12.35 -22.6 -12.15 -22.8 -11.95 -22.95 -11.75 -23.15 -11.55 -23.35 -11.2 -23.7 -10.6 -24.6 -10.1 -25.35 -9.65 -26.05 -9.25 -26.7 -8.95 -27.35 -8.65 -27.95 -8.35 -28.55 -8.15 -29.05 -7.95 -29.55 -7.8 -29.95 -7.6 -30.5 -7.25 -31.55 -7.35 -31.25 -7.2 -31.65 -7.1 -31.95 -6.95 -32.25 -6.85 -32.45 -6.85 -32.45 -6.8 -32.5 -6.8 -32.5 -6.8 -32.55 -6.75 -32.6 -6.75 -32.6 -6.75 -32.65 -6.75 -32.7 -6.7 -32.75 -6.7 -32.75 -6.7 -32.8 -6.7 -32.85 -6.7 -32.9 -6.7 -32.95 -6.7 -33.0 -6.7 -33.05 -6.7 -33.1 -6.7 -33.1 -6.7 -33.15 -6.75 -33.2 -6.75 -33.2 -6.75 -33.25 -6.8 -33.3 -6.8 -33.35 -6.85 -33.4 -6.9 -33.45 -6.95 -33.5 -7.0 -33.55 -7.05 -33.6 -7.15 -33.65 -7.2 -33.7 -7.3 -33.75 -7.65 -33.95 -8.15 -34.15 -8.6 -34.35 -9.15 -34.5 -9.65 -34.65 -10.2 -34.8 -10.65 -34.95 -11.2 -35.05 -11.65 -35.15 -12.15 -35.25 -12.5 -35.35 -12.9 -35.4 -13.15 -35.45 -13.4 -35.5 -13.5 -35.5 -13.6 -35.5 -14.8 -35.7 -15.75 -35.85 -16.85 -36.1 -17.0 -36.1 -17.55 -36.2 -18.35 -36.25 -18.35 -36.25 -18.45 -36.25 -18.55 -36.25 -18.7 -36.3 -18.9 -36.3 -19.1 -36.3 -19.35 -36.3 -19.6 -36.35 -19.9 -36.35 -20.2 -36.35 -20.55 -36.35 -20.9 -36.4 -21.25 -36.4 -21.6 -36.4 -21.95 -36.4 -22.3 -36.35 -23.35 -36.3 -24.75 -36.1 -26.2 -35.9 -27.85 -35.55 -29.55 -35.15 -31.25 -34.65 -33.05 -34.1 -34.7 -33.5 -36.45 -32.8 -37.9 -32.05 -39.45 -31.25 -40.6 -30.4 -41.8 -29.45 -42.45 -28.5 -43.15 -27.5 -43.2 -26.45 L-43.2 -26.45" fill="#000000" fill-opacity="0.14117648" fill-rule="evenodd" stroke="none"/>
    <path d="M34.0 -18.8 Q34.15 -18.7 34.3 -18.55 34.45 -18.45 34.55 -18.3 34.65 -18.15 34.75 -18.0 34.8 -17.85 34.9 -17.7 34.95 -17.5 34.95 -17.35 35.0 -17.2 35.05 -17.0 35.05 -16.85 35.1 -16.65 35.1 -16.5 35.1 -16.3 35.85 -8.2 36.25 -3.15 36.85 5.05 37.8 18.5 37.8 18.8 37.85 19.05 37.85 19.35 37.85 19.65 37.85 19.95 37.85 20.2 37.85 20.5 37.8 20.75 37.8 21.05 37.75 21.35 37.7 21.6 37.65 21.9 37.6 22.15 37.55 22.45 37.45 22.75 37.4 23.0 37.3 23.3 37.15 23.55 37.05 23.8 36.9 24.05 36.75 24.3 36.6 24.5 36.4 24.75 36.2 24.95 36.05 25.15 35.8 25.3 35.6 25.5 35.4 25.65 35.15 25.8 34.9 25.95 34.65 26.1 34.4 26.2 34.05 26.4 33.65 26.45 33.25 26.55 32.9 26.55 32.55 26.55 32.15 26.45 31.8 26.35 31.45 26.15 31.1 26.0 30.8 25.7 30.5 25.45 30.2 25.15 29.9 24.8 29.65 24.4 29.4 24.0 29.2 23.5 29.05 23.2 28.95 22.95 28.85 22.65 28.75 22.35 28.65 22.05 28.55 21.75 28.5 21.45 28.4 21.15 28.35 20.85 28.3 20.55 28.25 20.25 28.2 19.95 28.15 19.65 28.1 19.35 28.1 19.05 28.1 18.7 27.5 4.0 26.4 -5.25 26.35 -5.7 26.3 -6.25 26.25 -6.65 26.2 -7.25 26.1 -8.15 26.1 -8.25 26.05 -8.8 26.0 -9.2 25.95 -9.75 25.85 -10.2 25.8 -10.75 25.7 -11.2 25.65 -11.7 25.55 -12.15 25.45 -12.7 25.3 -13.15 25.25 -13.35 25.25 -13.4 25.2 -13.55 25.2 -13.65 25.15 -13.75 25.15 -13.9 25.1 -14.0 25.1 -14.15 25.1 -14.25 25.05 -14.4 25.05 -14.55 25.1 -14.65 25.1 -14.8 25.1 -14.9 25.15 -15.05 25.2 -15.15 25.25 -15.15 25.3 -15.15 25.35 -15.15 25.4 -15.15 25.4 -15.15 25.45 -15.15 25.5 -15.1 25.5 -15.1 25.55 -15.1 25.6 -15.1 25.6 -15.05 25.65 -15.05 25.65 -15.05 25.65 -15.0 25.7 -15.0 25.7 -14.95 25.75 -14.9 25.75 -14.85 25.8 -14.85 25.8 -14.8 25.8 -14.75 25.85 -14.65 25.85 -14.6 25.85 -14.55 25.85 -14.5 25.85 -14.45 25.85 -14.4 25.8 -14.35 25.85 -14.5 25.8 -14.25 25.8 -14.2 25.8 -14.2 25.8 -14.05 25.85 -13.9 25.9 -13.75 26.05 -13.6 26.15 -13.45 26.35 -13.3 26.5 -13.15 26.75 -13.0 27.0 -12.85 27.25 -12.7 27.55 -12.55 27.85 -12.4 28.2 -12.25 28.55 -12.1 28.95 -12.0 29.35 -11.85 29.85 -11.7 30.1 -11.6 30.55 -11.5 30.9 -11.4 31.3 -11.25 31.65 -11.2 32.05 -11.1 32.45 -11.05 32.8 -11.0 33.15 -10.95 33.5 -10.95 33.75 -11.0 34.05 -11.05 34.3 -11.15 34.5 -11.3 34.65 -11.5 34.7 -11.55 34.75 -11.65 34.8 -11.7 34.85 -11.8 34.85 -11.9 34.85 -11.95 34.9 -12.05 34.9 -12.15 34.9 -12.25 34.9 -12.4 34.9 -12.5 34.85 -12.6 34.85 -12.75 34.85 -12.9 34.8 -13.0 34.8 -13.15 34.7 -13.95 34.0 -18.8 L34.0 -18.8" fill="#000000" fill-opacity="0.14117648" fill-rule="evenodd" stroke="none"/>
  </g>
</svg>
