<?xml version="1.0" encoding="UTF-8" standalone="no"?>
<svg xmlns:xlink="http://www.w3.org/1999/xlink" height="18.15px" width="70.8px" xmlns="http://www.w3.org/2000/svg">
  <g transform="matrix(1.0, 0.0, 0.0, 1.0, 35.4, 9.05)">
    <path d="M-15.85 -3.6 Q-16.0 -3.65 -16.2 -3.7 -16.4 -3.7 -16.55 -3.7 -16.75 -3.75 -16.95 -3.7 -17.15 -3.7 -17.35 -3.65 -17.5 -3.65 -17.75 -3.6 -17.9 -3.55 -18.15 -3.5 -18.3 -3.45 -18.55 -3.35 -18.75 -3.3 -18.95 -3.2 -19.2 -3.1 -19.45 -3.05 -19.7 -3.0 -19.95 -3.0 -20.2 -3.0 -20.45 -3.0 -20.7 -3.0 -20.95 -3.05 -21.15 -3.05 -21.45 -3.1 -21.65 -3.15 -21.95 -3.25 -22.15 -3.3 -22.4 -3.35 -21.75 -3.2 -22.9 -3.5 -23.05 -3.55 -23.25 -3.6 -23.4 -3.65 -23.6 -3.7 -23.7 -3.75 -23.9 -3.8 -24.15 -3.85 -24.25 -3.9 -24.45 -3.95 -24.6 -4.0 -24.8 -4.05 -24.95 -4.1 -25.1 -4.15 -25.3 -4.15 -25.45 -4.2 -25.65 -4.2 -25.85 -4.25 -26.0 -4.25 -26.15 -4.25 -26.25 -4.25 -26.35 -4.2 -26.45 -4.2 -26.5 -4.15 -26.55 -4.1 -26.6 -4.05 -26.6 -3.95 -26.6 -3.9 -26.6 -3.8 -26.6 -3.7 -26.55 -3.6 -26.5 -3.5 -26.45 -3.35 -26.35 -3.05 -26.3 -2.8 -26.25 -2.5 -26.25 -2.2 -26.2 -1.95 -26.2 -1.65 -26.2 -1.35 -26.25 -1.1 -26.25 -0.8 -26.3 -0.55 -26.35 -0.25 -26.4 0.0 -26.45 0.3 -26.55 0.6 -26.65 0.85 -26.75 1.15 -26.9 1.55 -27.0 1.75 -27.1 2.1 -27.2 2.4 -27.35 2.75 -27.45 3.05 -27.55 3.35 -27.65 3.65 -27.75 4.0 -27.8 4.3 -27.9 4.65 -27.95 5.0 -28.0 5.3 -28.05 5.65 -28.1 6.0 -28.1 6.3 -28.1 6.5 -28.1 6.65 -28.1 6.85 -28.1 7.0 -28.05 7.2 -28.05 7.35 -28.0 7.5 -28.0 7.7 -27.95 7.8 -27.9 8.05 -27.9 8.25 -27.85 8.4 -27.85 8.6 -27.8 8.75 -27.8 8.9 -27.75 9.1 -27.75 9.35 -27.7 9.65 -27.65 9.95 -27.6 10.25 -27.55 10.45 -27.45 10.8 -27.05 12.7 -27.35 11.35 -27.25 11.7 -27.2 11.95 -27.15 12.25 -27.1 12.5 -27.05 12.8 -27.05 13.1 -27.05 13.4 -27.05 13.65 -27.05 13.7 -27.05 13.75 -27.05 13.8 -27.05 13.85 -27.0 13.9 -27.0 13.95 -27.0 13.95 -26.95 14.0 -26.95 14.05 -26.95 14.1 -26.9 14.15 -26.9 14.2 -26.85 14.2 -26.85 14.25 -26.8 14.3 -26.8 14.35 -26.65 14.55 -26.3 15.15 -25.95 15.7 -25.75 16.0 -25.65 16.1 -25.6 16.2 -25.55 16.35 -25.5 16.45 -25.45 16.55 -25.4 16.65 -25.35 16.75 -25.35 16.9 -25.3 17.0 -25.3 17.1 -25.3 17.25 -25.35 17.35 -25.35 17.45 -25.4 17.6 -25.45 17.7 -25.5 17.8 -25.6 17.95 -25.65 18.05 -25.75 18.15 -25.85 18.25 -25.95 18.35 -26.05 18.4 -26.15 18.5 -26.3 18.55 -26.4 18.6 -26.5 18.65 -26.65 18.7 -26.8 18.7 -26.9 18.75 -27.05 18.75 -27.2 18.75 -27.3 18.75 -27.75 18.75 -28.5 18.75 -28.8 18.75 -29.1 18.7 -29.35 18.6 -29.65 18.5 -29.9 18.4 -30.2 18.25 -30.45 18.1 -30.7 17.9 -30.9 17.7 -31.1 17.45 -31.3 17.2 -31.5 16.95 -31.65 16.7 -31.75 16.45 -31.85 16.15 -31.9 15.9 -31.9 15.8 -31.95 15.7 -31.95 15.65 -31.95 15.55 -31.95 15.45 -31.95 15.35 -31.95 15.3 -31.95 15.2 -31.95 15.1 -31.9 15.05 -31.9 14.95 -31.85 14.85 -31.85 14.8 -31.85 14.7 -31.8 14.6 -31.75 14.5 -31.6 14.05 -31.5 13.8 -31.4 13.4 -31.3 13.05 -31.2 12.7 -31.1 12.35 -31.0 11.95 -30.9 11.6 -30.85 11.2 -30.75 10.85 -30.7 10.45 -30.65 10.1 -30.65 9.7 -30.65 9.35 -30.6 8.95 -30.65 8.6 -30.75 7.0 -30.3 3.6 -30.25 3.35 -30.25 3.1 -30.25 2.85 -30.2 2.65 -30.2 2.4 -30.2 2.15 -30.2 1.9 -30.2 1.65 -30.25 1.4 -30.25 1.2 -30.25 0.95 -30.3 0.7 -30.35 0.45 -30.35 0.2 -30.4 0.0 -30.45 -0.25 -30.5 -0.8 -30.5 -1.0 -30.45 -1.2 -30.45 -1.35 -30.45 -1.55 -30.45 -1.7 -30.45 -1.9 -30.45 -2.05 -30.45 -2.25 -30.5 -2.4 -30.55 -2.6 -30.6 -2.75 -30.65 -2.9 -30.7 -3.05 -30.8 -3.25 -30.9 -3.4 -31.0 -3.55 -31.15 -3.7 -31.2 -3.75 -31.25 -3.8 -31.3 -3.85 -31.3 -3.9 -31.35 -4.0 -31.4 -4.05 -31.4 -4.1 -31.45 -4.2 -31.45 -4.25 -31.45 -4.35 -31.5 -4.4 -31.5 -4.45 -31.5 -4.55 -31.5 -4.6 -31.5 -4.7 -31.5 -4.75 -31.5 -4.85 -31.5 -4.95 -31.5 -5.05 -31.5 -5.1 -31.55 -5.15 -31.55 -5.2 -31.6 -5.25 -31.65 -5.3 -31.7 -5.35 -31.75 -5.35 -31.8 -5.4 -31.85 -5.4 -31.95 -5.45 -32.0 -5.45 -32.1 -5.45 -32.2 -5.5 -32.45 -5.55 -32.7 -5.6 -32.95 -5.7 -33.15 -5.8 -33.4 -5.9 -33.6 -6.0 -33.8 -6.15 -33.95 -6.3 -34.15 -6.45 -34.3 -6.65 -34.45 -6.8 -34.6 -7.0 -34.75 -7.2 -34.85 -7.45 -34.95 -7.7 -35.05 -7.95 -35.15 -8.2 -35.2 -8.5 -35.25 -8.75 -35.25 -9.0 -35.2 -9.25 -35.15 -9.45 -35.1 -9.7 -35.0 -9.9 -34.9 -10.1 -34.75 -10.3 -34.6 -10.5 -34.4 -10.65 -34.2 -10.8 -33.95 -10.9 -33.75 -11.05 -33.45 -11.15 -33.2 -11.2 -33.0 -11.25 -32.75 -11.3 -32.55 -11.35 -32.3 -11.35 -32.05 -11.35 -31.85 -11.4 -31.6 -11.35 -31.4 -11.35 -31.15 -11.35 -30.95 -11.3 -30.7 -11.25 -30.5 -11.2 -30.25 -11.15 -30.0 -11.1 -29.8 -11.05 -29.6 -11.0 -29.4 -10.95 -29.15 -10.85 -28.95 -10.8 -28.75 -10.7 -28.55 -10.65 -28.35 -10.55 -28.2 -10.45 -28.0 -10.35 -27.8 -10.25 -27.65 -10.1 -27.45 -10.0 -27.3 -9.85 -27.15 -9.75 -26.95 -9.6 -26.8 -9.45 -26.7 -9.35 -26.6 -9.25 -26.45 -9.15 -26.35 -9.05 -26.25 -9.0 -26.15 -8.95 -26.0 -8.9 -25.9 -8.9 -25.75 -8.85 -25.65 -8.85 -25.5 -8.85 -25.4 -8.9 -25.25 -8.9 -25.1 -8.95 -24.95 -9.0 -24.8 -9.1 -24.5 -9.25 -24.15 -9.35 -23.85 -9.45 -23.55 -9.45 -23.25 -9.45 -22.95 -9.4 -22.65 -9.3 -22.4 -9.2 -22.15 -9.05 -21.9 -8.9 -21.65 -8.7 -21.45 -8.5 -21.2 -8.25 -21.05 -8.0 -20.85 -7.75 -20.7 -7.45 -20.6 -7.2 -20.4 -7.0 -20.25 -6.85 -20.05 -6.7 -19.9 -6.55 -19.65 -6.45 -19.45 -6.35 -19.25 -6.3 -19.0 -6.25 -18.8 -6.3 -18.55 -6.3 -18.35 -6.35 -18.15 -6.45 -17.95 -6.55 -17.7 -6.7 -17.55 -6.9 -17.45 -7.05 -17.3 -7.15 -17.15 -7.25 -17.05 -7.35 -16.9 -7.5 -16.75 -7.6 -16.6 -7.7 -16.45 -7.75 -16.35 -7.85 -16.15 -7.95 -16.05 -8.0 -15.85 -8.1 -15.7 -8.15 -15.55 -8.25 -15.4 -8.3 -15.25 -8.35 -15.05 -8.45 -14.85 -8.45 -14.65 -8.5 -14.45 -8.5 -14.25 -8.55 -14.05 -8.5 -13.85 -8.5 -13.7 -8.45 -13.5 -8.4 -13.35 -8.35 -13.15 -8.25 -13.0 -8.15 -12.8 -8.05 -12.65 -7.95 -12.5 -7.85 -12.35 -7.7 -12.2 -7.55 -12.05 -7.35 -11.95 -7.2 -11.9 -6.95 -11.8 -6.75 -11.8 -6.55 -11.75 -6.35 -11.8 -6.1 -11.8 -5.9 -11.9 -5.65 -11.95 -5.45 -12.05 -5.25 -12.2 -5.05 -12.35 -4.85 -12.5 -4.65 -12.7 -4.5 -12.85 -4.35 -13.0 -4.25 -13.2 -4.15 -13.35 -4.05 -13.55 -4.0 -13.7 -3.9 -13.9 -3.85 -14.1 -3.8 -14.3 -3.75 -14.5 -3.7 -14.7 -3.65 -14.9 -3.65 -15.15 -3.6 -15.35 -3.6 -15.6 -3.6 -15.85 -3.6 L-15.85 -3.6 M-33.15 -10.1 Q-33.35 -10.05 -33.5 -9.95 -33.65 -9.85 -33.75 -9.75 -33.9 -9.65 -33.95 -9.55 -34.05 -9.45 -34.1 -9.35 -34.15 -9.2 -34.2 -9.1 -34.2 -8.95 -34.2 -8.8 -34.15 -8.65 -34.15 -8.5 -34.1 -8.35 -34.0 -8.15 -33.95 -8.0 -33.85 -7.85 -33.75 -7.7 -33.7 -7.55 -33.6 -7.4 -33.45 -7.3 -33.35 -7.15 -33.25 -7.05 -33.1 -6.95 -32.95 -6.85 -32.85 -6.8 -32.7 -6.7 -32.55 -6.65 -32.35 -6.6 -32.2 -6.55 -32.05 -6.5 -31.9 -6.45 -31.75 -6.4 -31.6 -6.35 -31.45 -6.25 -31.3 -6.2 -31.2 -6.1 -31.1 -6.0 -31.0 -5.9 -30.9 -5.8 -30.8 -5.7 -30.7 -5.6 -30.65 -5.45 -30.6 -5.3 -30.55 -5.15 -30.5 -5.0 -30.45 -4.85 -30.45 -4.8 -30.45 -4.75 -30.45 -4.7 -30.4 -4.65 -30.4 -4.6 -30.4 -4.55 -30.4 -4.5 -30.4 -4.45 -30.35 -4.4 -30.35 -4.4 -30.35 -4.35 -30.3 -4.3 -30.3 -4.25 -30.25 -4.2 -30.25 -4.2 -30.2 -4.15 -30.05 -3.95 -29.9 -3.75 -29.75 -3.55 -29.65 -3.35 -29.55 -3.15 -29.5 -2.95 -29.45 -2.75 -29.4 -2.5 -29.4 -2.3 -29.35 -2.05 -29.35 -1.85 -29.4 -1.6 -29.4 -1.4 -29.4 -1.15 -29.45 -0.95 -29.5 -0.7 -29.55 -0.3 -29.6 0.05 -29.65 0.45 -29.7 0.85 -29.7 1.2 -29.75 1.6 -29.75 1.95 -29.8 2.35 -29.8 2.75 -29.8 3.1 -29.85 3.5 -29.85 3.9 -29.85 4.25 -29.85 4.65 -29.8 5.0 -29.8 5.4 -29.85 3.2 -29.75 6.6 -29.75 7.25 -29.75 7.75 -29.75 8.4 -29.75 8.95 -29.75 9.55 -29.8 10.1 -29.85 10.7 -29.9 11.3 -30.0 11.9 -30.1 12.45 -30.2 13.05 -30.4 13.6 -30.55 14.15 -30.8 14.7 -30.85 14.85 -30.9 15.05 -30.95 15.2 -30.95 15.4 -30.95 15.55 -30.9 15.7 -30.9 15.85 -30.85 16.0 -30.8 16.15 -30.7 16.3 -30.6 16.45 -30.5 16.55 -30.4 16.7 -30.25 16.8 -30.15 16.95 -29.95 17.05 -29.95 16.95 -29.9 16.9 -29.9 16.8 -29.85 16.75 -29.85 16.65 -29.8 16.6 -29.75 16.55 -29.7 16.5 -29.65 16.45 -29.6 16.4 -29.55 16.4 -29.45 16.35 -29.4 16.35 -29.3 16.35 -29.25 16.4 -29.15 16.4 -29.05 16.45 -28.95 16.5 -28.85 16.55 -28.75 16.6 -28.65 16.65 -28.6 16.7 -28.5 16.75 -28.45 16.85 -28.35 16.9 -28.3 17.0 -28.25 17.05 -28.2 17.15 -28.15 17.25 -28.1 17.35 -28.1 17.45 -28.05 17.55 -28.05 17.65 -28.0 17.75 -28.0 17.8 -27.95 17.85 -27.9 17.95 -27.9 17.95 -27.85 18.0 -27.8 18.05 -27.75 18.05 -27.7 18.05 -27.65 18.05 -27.6 18.05 -27.5 18.05 -27.45 18.0 -27.35 17.95 -27.3 17.9 -27.2 17.85 -27.05 17.75 -26.9 17.65 -26.8 17.6 -26.7 17.55 -26.65 17.55 -26.6 17.5 -26.55 17.45 -26.5 17.4 -26.45 17.35 -26.4 17.3 -26.4 17.25 -26.4 17.2 -26.4 17.1 -26.4 17.05 -26.4 17.0 -26.45 16.9 -26.45 16.85 -26.5 16.8 -26.55 16.7 -26.75 16.4 -27.15 15.75 -27.5 15.15 -27.7 14.85 -27.75 14.75 -27.8 14.65 -27.85 14.55 -27.9 14.45 -27.95 14.35 -28.0 14.25 -28.0 14.2 -28.05 14.1 -28.05 14.0 -28.1 13.9 -28.1 13.8 -28.1 13.65 -28.1 13.55 -28.1 13.45 -28.1 13.35 -28.1 13.25 -28.1 12.95 -28.05 12.45 -27.95 11.9 -27.95 11.65 -27.95 11.5 -27.9 11.35 -27.9 11.2 -27.9 11.0 -27.85 10.8 -27.85 10.7 -27.8 10.5 -27.8 10.35 -27.8 10.2 -27.75 10.05 -27.75 9.9 -27.75 9.7 -27.8 9.55 -27.8 9.4 -27.85 9.2 -27.85 9.05 -28.0 8.55 -28.1 8.1 -28.2 7.6 -28.3 7.1 -28.35 6.6 -28.4 6.15 -28.45 5.65 -28.45 5.2 -28.45 4.7 -28.4 4.2 -28.35 3.75 -28.25 3.25 -28.15 2.75 -28.0 2.3 -27.85 1.8 -27.65 1.35 -27.55 1.1 -27.45 0.85 -27.4 0.55 -27.35 0.3 -27.25 0.05 -27.25 -0.2 -27.2 -0.5 -27.2 -0.75 -27.2 -1.0 -27.2 -1.25 -27.2 -1.55 -27.25 -1.8 -27.25 -2.05 -27.3 -2.35 -27.35 -2.6 -27.45 -2.85 -27.55 -3.3 -27.6 -3.65 -27.65 -4.0 -27.6 -4.25 -27.55 -4.5 -27.4 -4.7 -27.3 -4.9 -27.15 -5.0 -26.95 -5.1 -26.75 -5.2 -26.5 -5.25 -26.25 -5.25 -26.0 -5.3 -25.7 -5.25 -25.45 -5.25 -25.15 -5.2 -25.1 -5.2 -25.05 -5.2 -25.05 -5.2 -25.0 -5.2 -25.0 -5.2 -24.9 -5.15 -22.6 -4.5 -22.5 -4.45 -22.4 -4.45 -22.05 -4.35 -21.8 -4.25 -21.6 -4.25 -21.4 -4.2 -21.2 -4.15 -20.95 -4.1 -20.75 -4.05 -20.5 -4.05 -20.3 -4.05 -20.05 -4.05 -19.85 -4.05 -19.6 -4.1 -19.4 -4.15 -19.2 -4.2 -18.95 -4.3 -18.75 -4.4 -18.55 -4.45 -18.4 -4.5 -18.2 -4.6 -18.0 -4.65 -17.8 -4.65 -17.65 -4.7 -17.45 -4.7 -17.25 -4.75 -17.05 -4.75 -16.85 -4.75 -16.65 -4.75 -16.45 -4.75 -16.25 -4.7 -16.05 -4.7 -15.85 -4.65 -15.65 -4.65 -15.5 -4.6 -15.35 -4.6 -15.15 -4.6 -15.0 -4.65 -14.8 -4.65 -14.65 -4.7 -14.5 -4.75 -14.35 -4.8 -14.15 -4.85 -14.0 -4.9 -13.85 -5.0 -13.7 -5.05 -13.55 -5.15 -13.4 -5.25 -13.3 -5.4 -13.25 -5.45 -13.15 -5.5 -13.1 -5.6 -13.05 -5.65 -13.0 -5.7 -12.95 -5.8 -12.9 -5.85 -12.9 -5.95 -12.85 -6.0 -12.85 -6.1 -12.85 -6.15 -12.85 -6.25 -12.85 -6.35 -12.85 -6.4 -12.85 -6.5 -12.9 -6.6 -12.9 -6.7 -12.95 -6.75 -13.0 -6.8 -13.05 -6.9 -13.1 -6.95 -13.15 -7.0 -13.2 -7.05 -13.25 -7.1 -13.3 -7.15 -13.4 -7.2 -13.45 -7.2 -13.55 -7.25 -13.6 -7.25 -13.7 -7.3 -13.8 -7.3 -13.9 -7.35 -13.85 -7.25 -13.85 -7.1 -13.85 -7.0 -13.85 -6.95 -13.85 -6.85 -13.9 -6.75 -13.9 -6.7 -13.95 -6.65 -14.0 -6.6 -14.05 -6.55 -14.1 -6.5 -14.2 -6.45 -14.25 -6.4 -14.35 -6.35 -14.4 -6.35 -14.5 -6.3 -14.55 -6.3 -14.6 -6.25 -14.65 -6.25 -14.65 -6.25 -14.7 -6.2 -14.75 -6.2 -14.8 -6.2 -14.85 -6.2 -14.9 -6.2 -14.95 -6.25 -14.95 -6.25 -15.0 -6.25 -15.05 -6.3 -15.1 -6.3 -15.15 -6.35 -15.15 -6.4 -15.2 -6.45 -15.25 -6.5 -15.25 -6.55 -15.25 -6.6 -15.3 -6.65 -15.3 -6.7 -15.3 -6.75 -15.25 -6.8 -15.25 -6.85 -15.2 -6.9 -15.2 -6.95 -15.15 -7.0 -15.15 -7.05 -15.1 -7.1 -15.1 -7.1 -15.0 -7.2 -14.9 -7.2 -14.95 -7.3 -14.95 -7.3 -15.0 -7.3 -15.1 -7.25 -15.1 -7.25 -15.25 -7.2 -15.35 -7.15 -15.5 -7.1 -15.6 -7.05 -15.7 -6.95 -15.85 -6.9 -15.95 -6.85 -16.05 -6.75 -16.2 -6.7 -16.3 -6.6 -16.4 -6.55 -16.5 -6.45 -16.6 -6.35 -16.7 -6.25 -16.8 -6.15 -16.9 -6.05 -16.95 -5.95 -17.05 -5.9 -17.15 -5.8 -17.2 -5.75 -17.3 -5.65 -17.35 -5.6 -17.45 -5.55 -17.55 -5.5 -17.65 -5.45 -17.75 -5.4 -17.85 -5.35 -17.95 -5.35 -18.05 -5.3 -18.15 -5.3 -18.25 -5.25 -18.35 -5.25 -18.6 -5.25 -18.85 -5.25 -19.15 -5.25 -19.35 -5.3 -19.6 -5.3 -19.85 -5.4 -20.1 -5.45 -20.3 -5.55 -20.55 -5.65 -20.75 -5.8 -20.95 -5.95 -21.1 -6.15 -21.3 -6.35 -21.45 -6.55 -21.6 -6.8 -21.7 -7.1 -21.8 -7.3 -21.9 -7.45 -22.0 -7.65 -22.15 -7.8 -22.3 -7.9 -22.5 -8.05 -22.65 -8.15 -22.85 -8.2 -23.05 -8.3 -23.25 -8.35 -23.45 -8.35 -23.7 -8.35 -23.9 -8.35 -24.1 -8.25 -24.35 -8.2 -24.55 -8.1 -24.75 -8.0 -24.95 -7.9 -25.1 -7.85 -25.3 -7.8 -25.45 -7.75 -25.65 -7.75 -25.85 -7.75 -26.0 -7.75 -26.15 -7.8 -26.35 -7.85 -26.5 -7.9 -26.7 -8.0 -26.85 -8.1 -27.0 -8.25 -27.15 -8.35 -27.3 -8.5 -27.45 -8.6 -27.65 -8.8 -27.9 -9.0 -28.0 -9.1 -28.15 -9.2 -28.3 -9.3 -28.45 -9.4 -28.6 -9.5 -28.8 -9.6 -28.95 -9.65 -29.1 -9.75 -29.3 -9.8 -29.45 -9.85 -29.65 -9.95 -29.8 -10.0 -30.0 -10.05 -30.2 -10.1 -30.35 -10.1 -30.55 -10.15 -30.75 -10.2 -30.65 -10.05 -30.55 -9.9 -30.45 -9.75 -30.4 -9.65 -30.35 -9.5 -30.35 -9.4 -30.35 -9.25 -30.4 -9.15 -30.4 -9.05 -30.5 -8.95 -30.55 -8.85 -30.65 -8.8 -30.75 -8.7 -30.9 -8.65 -31.0 -8.6 -31.2 -8.55 -31.3 -8.5 -31.35 -8.5 -31.45 -8.5 -31.55 -8.45 -31.6 -8.45 -31.7 -8.45 -31.8 -8.45 -31.9 -8.4 -31.95 -8.4 -32.05 -8.4 -32.15 -8.4 -32.25 -8.45 -32.3 -8.45 -32.4 -8.45 -32.5 -8.45 -32.55 -8.5 -32.7 -8.55 -32.85 -8.6 -33.0 -8.65 -33.1 -8.7 -33.2 -8.8 -33.25 -8.85 -33.35 -8.95 -33.35 -9.05 -33.4 -9.15 -33.4 -9.25 -33.4 -9.35 -33.35 -9.5 -33.3 -9.6 -33.25 -9.75 -33.15 -9.85 -33.05 -10.0 -33.0 -10.0 -33.0 -10.05 -32.95 -10.05 -32.95 -10.05 -32.9 -10.1 -32.85 -10.1 -32.9 -10.15 -32.95 -10.15 -32.95 -10.15 -33.0 -10.15 -33.05 -10.15 -33.05 -10.15 -33.1 -10.15 -33.15 -10.1 L-33.15 -10.1" fill="#060606" fill-rule="evenodd" stroke="none"/>
    <path d="M31.35 6.95 Q31.3 6.9 31.3 6.8 31.3 6.75 31.3 6.7 31.3 6.65 31.3 6.6 31.3 6.5 31.35 6.45 31.35 6.4 31.35 6.35 31.4 6.2 31.4 6.2 31.4 6.15 31.45 6.05 31.45 6.0 31.45 5.95 31.5 5.6 31.5 5.2 31.5 4.85 31.45 4.5 31.4 4.15 31.35 3.8 31.3 3.45 31.2 3.1 31.15 2.8 31.05 2.45 30.95 2.1 30.85 1.75 30.75 1.45 30.65 1.05 30.6 1.0 30.4 0.4 30.3 0.15 30.25 -0.1 30.2 -0.35 30.15 -0.6 30.1 -0.85 30.05 -1.1 30.0 -1.35 30.0 -1.55 30.0 -1.8 30.0 -2.05 30.0 -2.3 30.0 -2.55 30.05 -2.8 30.05 -3.05 30.1 -3.3 30.15 -3.55 30.2 -3.7 30.2 -3.8 30.25 -3.95 30.25 -4.0 30.25 -4.1 30.2 -4.2 30.2 -4.25 30.15 -4.3 30.1 -4.35 30.05 -4.35 30.0 -4.35 29.9 -4.35 29.8 -4.4 29.65 -4.35 29.55 -4.35 29.4 -4.3 28.85 -4.2 27.7 -3.8 26.6 -3.45 26.0 -3.35 25.85 -3.35 25.75 -3.3 25.6 -3.3 25.45 -3.3 25.35 -3.3 25.2 -3.3 25.1 -3.25 24.95 -3.3 24.8 -3.3 24.7 -3.3 24.55 -3.35 24.45 -3.35 24.3 -3.4 24.2 -3.45 24.1 -3.5 23.95 -3.55 23.85 -3.6 23.7 -3.65 23.6 -3.7 23.45 -3.75 23.35 -3.8 23.2 -3.85 23.1 -3.85 22.95 -3.85 22.85 -3.9 22.7 -3.9 22.6 -3.9 22.45 -3.9 22.35 -3.9 22.2 -3.85 22.1 -3.85 21.95 -3.85 21.75 -3.8 21.6 -3.8 21.45 -3.8 21.25 -3.8 21.1 -3.8 20.95 -3.85 20.75 -3.85 20.6 -3.9 20.45 -3.95 20.3 -4.0 20.15 -4.05 20.0 -4.15 19.85 -4.2 19.7 -4.3 19.55 -4.4 19.4 -4.5 19.25 -4.65 19.1 -4.8 19.0 -4.95 18.9 -5.1 18.8 -5.25 18.75 -5.45 18.7 -5.65 18.65 -5.8 18.6 -6.0 18.6 -6.2 18.6 -6.35 18.65 -6.55 18.65 -6.7 18.75 -6.9 18.8 -7.05 18.9 -7.2 19.0 -7.35 19.15 -7.5 19.25 -7.65 19.45 -7.75 19.6 -7.85 19.75 -7.95 19.9 -8.0 20.1 -8.05 20.3 -8.1 20.45 -8.1 20.65 -8.1 20.85 -8.1 21.05 -8.05 21.25 -8.0 21.45 -7.95 21.6 -7.85 21.7 -7.8 21.8 -7.75 21.95 -7.7 22.05 -7.6 22.15 -7.55 22.25 -7.5 22.35 -7.45 22.45 -7.35 22.55 -7.3 22.65 -7.2 22.75 -7.15 22.8 -7.05 22.9 -6.95 23.0 -6.9 23.1 -6.8 23.15 -6.7 23.3 -6.55 23.45 -6.45 23.6 -6.3 23.8 -6.25 23.95 -6.2 24.15 -6.15 24.3 -6.15 24.5 -6.2 24.65 -6.2 24.8 -6.3 25.0 -6.35 25.1 -6.45 25.25 -6.6 25.4 -6.75 25.5 -6.9 25.6 -7.1 25.65 -7.2 25.7 -7.3 25.75 -7.4 25.8 -7.5 25.85 -7.6 25.9 -7.7 25.95 -7.8 26.05 -7.9 26.1 -8.0 26.2 -8.05 26.25 -8.15 26.35 -8.25 26.4 -8.3 26.5 -8.4 26.6 -8.45 26.7 -8.55 26.8 -8.65 26.95 -8.7 27.05 -8.75 27.2 -8.8 27.35 -8.85 27.45 -8.9 27.6 -8.9 27.7 -8.9 27.85 -8.95 28.0 -8.9 28.15 -8.9 28.25 -8.9 28.4 -8.85 28.55 -8.8 28.7 -8.75 28.8 -8.7 29.0 -8.6 29.1 -8.55 29.25 -8.5 29.35 -8.45 29.45 -8.4 29.55 -8.4 29.65 -8.4 29.7 -8.4 29.8 -8.4 29.9 -8.45 29.95 -8.5 30.05 -8.55 30.15 -8.65 30.25 -8.75 30.35 -8.85 30.5 -9.0 30.7 -9.2 30.95 -9.4 31.15 -9.6 31.4 -9.75 31.65 -9.9 31.9 -10.05 32.15 -10.15 32.4 -10.25 32.65 -10.35 32.95 -10.45 33.2 -10.5 33.5 -10.55 33.75 -10.6 34.05 -10.6 34.35 -10.65 34.65 -10.65 34.9 -10.65 35.15 -10.6 35.4 -10.55 35.6 -10.5 35.8 -10.4 36.0 -10.3 36.2 -10.2 36.35 -10.05 36.5 -9.95 36.6 -9.8 36.75 -9.65 36.85 -9.45 36.95 -9.25 37.0 -9.1 37.05 -8.9 37.1 -8.65 37.1 -8.4 37.1 -8.15 37.05 -7.85 36.95 -7.6 36.9 -7.35 36.75 -7.1 36.65 -6.85 36.5 -6.65 36.3 -6.45 36.15 -6.25 35.95 -6.05 35.7 -5.9 35.5 -5.75 35.25 -5.65 35.0 -5.55 34.75 -5.5 34.65 -5.5 34.6 -5.45 34.55 -5.45 34.5 -5.4 34.4 -5.4 34.35 -5.35 34.3 -5.35 34.3 -5.3 34.25 -5.25 34.2 -5.2 34.2 -5.2 34.15 -5.1 34.15 -5.05 34.15 -5.0 34.15 -4.9 34.15 -4.8 34.15 -4.7 34.15 -4.65 34.15 -4.55 34.15 -4.5 34.1 -4.4 34.1 -4.35 34.05 -4.25 34.05 -4.2 34.0 -4.1 34.0 -4.05 33.95 -3.95 33.9 -3.9 33.85 -3.8 33.8 -3.75 33.75 -3.7 33.7 -3.6 33.65 -3.5 33.6 -3.45 33.55 -3.35 33.5 -3.3 33.45 -3.2 33.4 -3.1 33.4 -3.05 33.35 -2.95 33.35 -2.85 33.3 -2.75 33.3 -2.7 33.3 -2.6 33.3 -2.5 33.3 -2.4 33.3 -2.3 33.3 -2.2 33.35 -1.5 33.25 -0.15 33.1 1.2 33.15 1.9 33.2 2.6 33.4 4.2 33.5 5.0 33.45 6.9 33.45 7.25 33.45 7.6 33.45 7.9 33.5 8.25 33.5 8.6 33.55 8.95 33.6 9.25 33.7 9.6 33.75 9.9 33.8 10.25 33.9 10.55 34.0 10.9 34.05 11.25 34.15 11.55 34.25 11.85 34.35 12.2 34.45 12.55 34.45 12.9 34.5 13.25 34.4 13.6 34.35 13.9 34.2 14.2 34.05 14.5 33.85 14.8 33.65 15.05 33.4 15.25 33.1 15.5 32.8 15.65 32.5 15.75 32.15 15.85 31.8 15.9 31.45 15.9 31.4 15.9 31.3 15.9 31.25 15.9 31.2 15.9 31.15 15.9 31.05 15.9 30.95 15.9 30.95 15.9 30.85 15.9 30.8 15.9 30.75 15.95 30.7 15.95 30.6 15.9 30.55 15.9 30.5 15.9 30.45 15.9 30.25 15.85 30.1 15.75 29.95 15.7 29.8 15.55 29.65 15.45 29.55 15.3 29.45 15.2 29.4 15.05 29.3 14.9 29.25 14.75 29.25 14.6 29.25 14.45 29.25 14.25 29.3 14.1 29.35 13.95 29.5 13.8 29.7 13.55 29.85 13.25 30.0 13.0 30.1 12.7 30.25 12.4 30.3 12.1 30.4 11.8 30.5 11.5 30.55 11.2 30.6 10.9 30.65 10.65 30.75 10.25 30.85 9.55 30.85 9.65 30.9 9.3 30.95 9.05 31.0 8.85 31.1 8.25 31.2 8.65 31.25 8.95 31.35 9.35 31.35 9.7 31.4 10.05 31.45 10.4 31.45 10.75 31.45 11.1 31.4 11.45 31.35 11.8 31.3 12.15 31.15 12.45 31.05 12.8 30.85 13.1 30.7 13.45 30.45 13.8 30.35 13.95 30.25 14.05 30.2 14.15 30.15 14.25 30.1 14.35 30.1 14.4 30.05 14.45 30.1 14.55 30.1 14.6 30.15 14.65 30.2 14.7 30.3 14.8 30.35 14.85 30.5 14.95 30.55 15.0 30.75 15.1 30.85 15.15 30.9 15.2 30.95 15.25 31.05 15.25 31.1 15.3 31.15 15.3 31.2 15.3 31.2 15.3 31.25 15.25 31.3 15.2 31.35 15.2 31.35 15.15 31.4 15.05 31.4 15.0 31.4 14.9 31.45 14.8 31.45 14.7 31.5 14.6 31.55 14.55 31.55 14.45 31.6 14.4 31.65 14.3 31.7 14.25 31.75 14.2 31.8 14.1 31.9 14.05 31.95 14.0 32.05 14.0 32.1 13.95 32.2 13.9 32.25 13.85 32.35 13.85 32.45 13.8 32.5 13.8 32.55 13.8 32.6 13.85 32.65 13.85 32.7 13.9 32.75 13.9 32.75 13.95 32.8 14.0 32.8 14.1 32.85 14.1 32.9 14.2 32.9 14.25 32.95 14.3 32.95 14.35 33.0 14.4 33.1 14.3 33.2 14.15 33.3 14.05 33.4 13.9 33.45 13.8 33.55 13.65 33.6 13.55 33.6 13.4 33.65 13.3 33.65 13.15 33.7 13.0 33.7 12.85 33.65 12.75 33.65 12.6 33.65 12.45 33.6 12.3 32.95 10.05 32.9 9.75 32.75 8.05 32.8 3.65 32.8 3.35 32.8 3.1 32.8 2.8 32.8 2.5 32.8 2.25 32.8 1.95 32.8 1.7 32.8 1.4 32.8 1.1 32.75 0.85 32.75 0.55 32.75 0.3 32.7 0.0 32.65 -0.25 32.65 -0.55 32.6 -0.8 32.55 -1.05 32.5 -1.25 32.5 -1.5 32.45 -1.75 32.45 -2.0 32.45 -2.2 32.45 -2.45 32.45 -2.65 32.5 -2.9 32.55 -3.1 32.6 -3.35 32.7 -3.55 32.75 -3.75 32.9 -3.95 33.0 -4.2 33.2 -4.4 33.2 -4.45 33.25 -4.45 33.25 -4.5 33.25 -4.55 33.25 -4.6 33.3 -4.65 33.3 -4.7 33.3 -4.75 33.3 -4.85 33.3 -4.85 33.3 -5.0 33.35 -5.15 33.4 -5.25 33.45 -5.4 33.5 -5.5 33.55 -5.6 33.65 -5.7 33.7 -5.8 33.8 -5.9 33.9 -6.0 34.0 -6.05 34.1 -6.15 34.2 -6.2 34.35 -6.25 34.45 -6.3 34.6 -6.35 34.75 -6.4 34.9 -6.45 35.05 -6.55 35.2 -6.6 35.3 -6.7 35.45 -6.8 35.55 -6.9 35.65 -7.0 35.75 -7.1 35.8 -7.2 35.9 -7.35 36.0 -7.45 36.05 -7.6 36.1 -7.75 36.15 -7.9 36.2 -8.05 36.25 -8.2 36.25 -8.3 36.25 -8.4 36.25 -8.5 36.25 -8.6 36.25 -8.7 36.2 -8.8 36.2 -8.9 36.15 -8.95 36.1 -9.05 36.05 -9.1 35.95 -9.2 35.85 -9.25 35.75 -9.3 35.7 -9.4 35.55 -9.45 35.5 -9.5 35.5 -9.5 35.45 -9.55 35.4 -9.55 35.4 -9.55 35.35 -9.55 35.3 -9.55 35.25 -9.5 35.2 -9.5 35.15 -9.5 35.25 -9.45 35.45 -9.35 35.5 -9.3 35.55 -9.2 35.55 -9.15 35.6 -9.1 35.6 -9.05 35.65 -8.95 35.65 -8.9 35.65 -8.85 35.65 -8.8 35.65 -8.7 35.65 -8.65 35.6 -8.6 35.6 -8.55 35.55 -8.45 35.5 -8.4 35.45 -8.35 35.4 -8.3 35.3 -8.25 35.2 -8.2 35.05 -8.15 34.95 -8.1 34.85 -8.1 34.7 -8.05 34.55 -8.05 34.45 -8.05 34.3 -8.05 34.15 -8.05 34.05 -8.1 33.9 -8.15 33.8 -8.15 33.7 -8.2 33.6 -8.3 33.5 -8.35 33.45 -8.45 33.35 -8.5 33.35 -8.55 33.3 -8.65 33.25 -8.7 33.25 -8.8 33.25 -8.85 33.25 -8.95 33.25 -9.05 33.3 -9.1 33.3 -9.2 33.3 -9.25 33.35 -9.4 33.4 -9.5 33.4 -9.55 33.15 -9.5 33.05 -9.5 32.9 -9.45 32.7 -9.4 32.55 -9.35 32.4 -9.3 32.25 -9.2 32.1 -9.15 32.0 -9.05 31.85 -8.95 31.7 -8.85 31.6 -8.75 31.45 -8.65 31.3 -8.55 31.2 -8.45 31.1 -8.35 30.95 -8.25 30.85 -8.1 30.75 -8.0 30.7 -7.95 30.6 -7.85 30.5 -7.8 30.4 -7.7 30.3 -7.65 30.2 -7.6 30.15 -7.55 30.05 -7.5 29.9 -7.5 29.8 -7.45 29.7 -7.45 29.6 -7.45 29.45 -7.45 29.35 -7.45 29.2 -7.5 29.1 -7.55 29.0 -7.6 28.9 -7.6 28.75 -7.7 28.6 -7.75 28.55 -7.8 28.45 -7.85 28.35 -7.9 28.2 -7.9 28.1 -7.95 28.0 -8.0 27.9 -8.0 27.75 -8.0 27.65 -7.95 27.5 -7.95 27.35 -7.9 27.2 -7.85 27.1 -7.75 27.0 -7.7 26.9 -7.6 26.85 -7.5 26.75 -7.4 26.7 -7.35 26.6 -7.2 26.55 -7.1 26.5 -7.0 26.45 -6.95 26.4 -6.8 26.3 -6.65 26.3 -6.55 26.2 -6.45 26.15 -6.35 26.0 -6.1 25.8 -5.9 25.65 -5.7 25.4 -5.55 25.2 -5.45 24.95 -5.35 24.7 -5.25 24.45 -5.25 24.2 -5.2 23.95 -5.25 23.7 -5.3 23.45 -5.4 23.2 -5.5 23.0 -5.65 22.8 -5.8 22.6 -6.0 22.55 -6.1 22.45 -6.15 22.4 -6.25 22.3 -6.3 22.25 -6.4 22.15 -6.45 22.1 -6.5 22.0 -6.6 21.9 -6.65 21.85 -6.7 21.75 -6.75 21.65 -6.8 21.55 -6.85 21.5 -6.9 21.4 -6.95 21.3 -6.95 21.25 -7.0 21.25 -7.0 21.2 -7.05 21.2 -7.05 21.15 -7.1 21.15 -7.05 21.1 -7.05 21.05 -7.05 21.1 -7.0 21.2 -6.9 21.25 -6.85 21.25 -6.8 21.3 -6.8 21.3 -6.75 21.35 -6.7 21.35 -6.65 21.35 -6.6 21.35 -6.55 21.4 -6.55 21.35 -6.5 21.35 -6.45 21.35 -6.4 21.35 -6.35 21.3 -6.3 21.3 -6.3 21.25 -6.25 21.2 -6.2 21.2 -6.2 21.15 -6.15 21.15 -6.15 21.1 -6.15 21.1 -6.1 21.05 -6.1 21.0 -6.1 21.0 -6.1 20.95 -6.1 20.9 -6.1 20.9 -6.1 20.85 -6.1 20.8 -6.15 20.8 -6.15 20.75 -6.15 20.65 -6.2 20.6 -6.2 20.55 -6.25 20.5 -6.3 20.45 -6.35 20.4 -6.4 20.35 -6.45 20.3 -6.5 20.25 -6.55 20.25 -6.65 20.2 -6.7 20.2 -6.8 20.2 -6.85 20.2 -6.95 20.25 -7.0 20.25 -7.1 20.05 -7.0 19.95 -6.9 19.8 -6.85 19.7 -6.7 19.6 -6.6 19.55 -6.5 19.45 -6.35 19.45 -6.25 19.45 -6.1 19.45 -6.0 19.45 -5.85 19.55 -5.75 19.6 -5.6 19.7 -5.5 19.8 -5.35 19.95 -5.25 20.05 -5.15 20.2 -5.05 20.3 -5.0 20.45 -4.95 20.55 -4.85 20.7 -4.85 20.85 -4.8 20.95 -4.75 21.1 -4.75 21.25 -4.7 21.35 -4.7 21.5 -4.7 21.65 -4.7 21.8 -4.75 21.95 -4.75 22.1 -4.8 22.25 -4.8 22.35 -4.85 22.5 -4.85 22.6 -4.85 22.75 -4.85 22.85 -4.85 23.0 -4.85 23.1 -4.8 23.25 -4.8 23.35 -4.75 23.5 -4.75 23.6 -4.7 23.75 -4.65 23.85 -4.6 24.0 -4.55 24.1 -4.5 24.2 -4.45 24.3 -4.4 24.4 -4.35 24.5 -4.35 24.6 -4.3 24.7 -4.25 24.8 -4.25 24.9 -4.25 25.0 -4.2 25.1 -4.2 25.2 -4.2 25.3 -4.2 25.4 -4.2 25.5 -4.2 25.6 -4.25 25.7 -4.25 25.8 -4.25 25.95 -4.3 26.05 -4.3 26.2 -4.35 26.3 -4.35 26.45 -4.4 26.55 -4.4 26.7 -4.45 26.8 -4.5 26.95 -4.5 27.05 -4.55 27.15 -4.6 27.3 -4.65 27.4 -4.65 27.5 -4.7 27.65 -4.75 29.05 -5.2 29.4 -5.25 29.65 -5.25 29.9 -5.25 30.1 -5.25 30.3 -5.2 30.45 -5.15 30.6 -5.1 30.75 -5.05 30.85 -4.9 30.95 -4.8 31.0 -4.65 31.05 -4.55 31.05 -4.35 31.1 -4.15 31.05 -3.95 31.05 -3.75 31.0 -3.5 30.95 -3.2 30.9 -2.95 30.85 -2.7 30.8 -2.4 30.8 -2.15 30.8 -1.85 30.75 -1.6 30.8 -1.35 30.8 -1.05 30.8 -0.8 30.85 -0.55 30.9 -0.3 30.95 0.0 31.0 0.25 31.1 0.5 31.2 0.8 31.35 1.15 31.45 1.55 31.55 1.95 31.6 2.3 31.7 2.7 31.7 3.1 31.75 3.45 31.75 3.85 31.75 4.25 31.75 4.65 31.7 5.0 31.65 5.4 31.6 5.8 31.55 6.2 31.45 6.6 31.35 6.95 L31.35 6.95" fill="#060606" fill-rule="evenodd" stroke="none"/>
    <path d="M35.55 -9.45 Q35.65 -9.4 35.75 -9.3 35.85 -9.25 35.95 -9.2 36.05 -9.1 36.1 -9.05 36.15 -8.95 36.2 -8.9 36.2 -8.8 36.25 -8.7 36.25 -8.6 36.25 -8.5 36.25 -8.4 36.25 -8.3 36.25 -8.2 36.2 -8.05 36.15 -7.9 36.1 -7.75 36.05 -7.6 36.0 -7.45 35.9 -7.35 35.85 -7.2 35.75 -7.1 35.65 -7.0 35.55 -6.9 35.45 -6.8 35.3 -6.7 35.2 -6.6 35.05 -6.55 34.9 -6.45 34.75 -6.4 34.6 -6.35 34.45 -6.3 34.35 -6.25 34.2 -6.2 34.1 -6.15 34.0 -6.05 33.9 -6.0 33.8 -5.9 33.7 -5.8 33.65 -5.7 33.55 -5.6 33.5 -5.5 33.45 -5.4 33.4 -5.25 33.35 -5.15 33.35 -5.0 33.3 -4.85 33.3 -4.8 33.3 -4.8 33.3 -4.75 33.3 -4.7 33.3 -4.7 33.3 -4.65 33.3 -4.6 33.25 -4.6 33.25 -4.55 33.25 -4.55 33.25 -4.5 33.25 -4.5 33.2 -4.45 33.2 -4.45 33.2 -4.4 33.2 -4.4 33.05 -4.2 32.9 -4.0 32.8 -3.8 32.7 -3.55 32.6 -3.35 32.55 -3.1 32.5 -2.9 32.45 -2.65 32.45 -2.45 32.45 -2.2 32.45 -2.0 32.45 -1.75 32.5 -1.55 32.5 -1.3 32.55 -1.1 32.6 -0.8 32.65 -0.55 32.7 -0.25 32.7 0.0 32.75 0.3 32.75 0.55 32.8 0.85 32.8 1.1 32.8 1.4 32.8 1.65 32.8 1.95 32.8 2.25 32.85 2.5 32.85 2.8 32.8 3.1 32.8 3.3 32.8 3.65 32.75 8.2 32.9 9.75 32.9 9.9 32.95 10.1 33.0 10.25 33.0 10.4 33.05 10.55 33.1 10.7 33.15 10.85 33.2 11.05 33.25 11.15 33.3 11.35 33.4 11.75 33.4 11.65 33.45 11.85 33.5 12.0 33.55 12.15 33.6 12.3 33.65 12.45 33.65 12.6 33.7 12.75 33.7 12.85 33.7 13.0 33.65 13.15 33.65 13.3 33.6 13.4 33.6 13.55 33.55 13.65 33.5 13.8 33.4 13.9 33.3 14.05 33.25 14.15 33.15 14.3 33.0 14.4 32.95 14.35 32.95 14.3 32.9 14.25 32.9 14.2 32.85 14.1 32.8 14.1 32.8 14.0 32.75 13.95 32.75 13.9 32.7 13.9 32.65 13.85 32.6 13.8 32.55 13.8 32.5 13.8 32.45 13.8 32.35 13.85 32.25 13.9 32.2 13.9 32.1 13.95 32.05 14.0 31.95 14.05 31.9 14.1 31.8 14.15 31.75 14.2 31.7 14.25 31.65 14.3 31.6 14.4 31.55 14.45 31.5 14.55 31.5 14.65 31.45 14.7 31.45 14.8 31.45 14.9 31.4 15.0 31.4 15.05 31.35 15.1 31.35 15.2 31.3 15.2 31.25 15.25 31.2 15.25 31.2 15.3 31.15 15.3 31.1 15.3 31.0 15.25 30.95 15.25 30.9 15.2 30.8 15.15 30.75 15.1 30.55 15.0 30.5 14.95 30.35 14.85 30.3 14.8 30.2 14.7 30.15 14.65 30.1 14.6 30.1 14.55 30.1 14.45 30.1 14.4 30.1 14.3 30.15 14.25 30.2 14.15 30.25 14.05 30.35 13.95 30.45 13.8 30.7 13.5 30.85 13.15 31.05 12.8 31.15 12.45 31.3 12.15 31.35 11.8 31.4 11.45 31.45 11.1 31.45 10.75 31.45 10.4 31.45 10.05 31.4 9.7 31.35 9.35 31.25 9.0 31.2 8.65 31.1 8.25 31.1 8.15 31.1 8.1 31.1 8.0 31.1 7.9 31.15 7.85 31.15 7.75 31.15 7.7 31.15 7.6 31.2 7.5 31.2 7.45 31.25 7.35 31.25 7.3 31.3 7.2 31.3 7.15 31.35 7.05 31.35 6.95 31.45 6.55 31.5 6.2 31.6 5.8 31.65 5.4 31.7 5.0 31.7 4.65 31.75 4.25 31.75 3.85 31.75 3.45 31.7 3.1 31.65 2.7 31.6 2.3 31.55 1.95 31.45 1.55 31.35 1.15 31.2 0.8 31.1 0.55 31.0 0.25 30.95 0.0 30.9 -0.25 30.85 -0.55 30.8 -0.8 30.8 -1.05 30.8 -1.35 30.75 -1.6 30.8 -1.85 30.8 -2.15 30.8 -2.4 30.85 -2.65 30.9 -2.95 30.95 -3.2 31.0 -3.5 31.05 -3.75 31.05 -3.95 31.1 -4.2 31.05 -4.35 31.05 -4.55 31.0 -4.65 30.95 -4.8 30.85 -4.9 30.75 -5.05 30.6 -5.1 30.45 -5.15 30.3 -5.2 30.1 -5.25 29.9 -5.25 29.65 -5.25 29.4 -5.25 29.05 -5.2 27.65 -4.75 27.5 -4.7 27.4 -4.65 27.3 -4.65 27.15 -4.6 27.05 -4.55 26.95 -4.5 26.8 -4.5 26.7 -4.45 26.55 -4.4 26.45 -4.4 26.3 -4.35 26.2 -4.35 26.1 -4.3 25.95 -4.3 25.85 -4.25 25.7 -4.25 25.6 -4.25 25.5 -4.2 25.4 -4.2 25.3 -4.2 25.2 -4.2 25.1 -4.2 25.0 -4.2 24.9 -4.25 24.8 -4.25 24.7 -4.25 24.6 -4.3 24.5 -4.3 24.4 -4.35 24.3 -4.4 24.2 -4.45 24.1 -4.5 24.0 -4.55 23.85 -4.6 23.75 -4.65 23.6 -4.7 23.5 -4.75 23.35 -4.75 23.25 -4.8 23.1 -4.8 23.0 -4.85 22.85 -4.85 22.75 -4.85 22.6 -4.85 22.5 -4.85 22.35 -4.8 22.2 -4.8 22.1 -4.8 21.95 -4.75 21.8 -4.75 21.65 -4.75 21.5 -4.75 21.4 -4.7 21.25 -4.75 21.1 -4.75 20.95 -4.75 20.8 -4.8 20.7 -4.85 20.55 -4.85 20.45 -4.95 20.3 -5.0 20.2 -5.05 20.05 -5.15 19.95 -5.25 19.8 -5.35 19.7 -5.5 19.6 -5.6 19.55 -5.75 19.45 -5.85 19.45 -6.0 19.45 -6.1 19.45 -6.25 19.45 -6.35 19.55 -6.5 19.6 -6.6 19.7 -6.7 19.8 -6.85 19.95 -6.95 20.1 -7.05 20.25 -7.1 20.2 -7.0 20.2 -6.95 20.2 -6.85 20.2 -6.75 20.2 -6.7 20.25 -6.65 20.25 -6.55 20.3 -6.5 20.35 -6.45 20.4 -6.4 20.45 -6.35 20.5 -6.3 20.55 -6.25 20.6 -6.25 20.7 -6.2 20.75 -6.15 20.8 -6.15 20.8 -6.1 20.85 -6.1 20.9 -6.1 20.9 -6.1 20.95 -6.1 21.0 -6.1 21.0 -6.1 21.05 -6.1 21.1 -6.1 21.1 -6.1 21.15 -6.15 21.15 -6.15 21.2 -6.2 21.25 -6.2 21.25 -6.25 21.3 -6.3 21.3 -6.35 21.35 -6.35 21.35 -6.4 21.35 -6.45 21.35 -6.5 21.4 -6.55 21.35 -6.55 21.35 -6.6 21.35 -6.65 21.35 -6.7 21.3 -6.75 21.3 -6.75 21.25 -6.8 21.25 -6.85 21.2 -6.9 21.25 -6.9 21.3 -6.95 21.4 -6.9 21.5 -6.9 21.6 -6.85 21.65 -6.8 21.75 -6.75 21.85 -6.7 21.95 -6.65 22.0 -6.55 22.1 -6.5 22.15 -6.45 22.25 -6.4 22.3 -6.3 22.4 -6.25 22.45 -6.15 22.55 -6.1 22.6 -6.0 22.8 -5.8 23.0 -5.65 23.2 -5.5 23.45 -5.4 23.7 -5.3 23.95 -5.25 24.2 -5.2 24.45 -5.25 24.7 -5.25 24.95 -5.35 25.2 -5.45 25.4 -5.55 25.65 -5.7 25.8 -5.9 26.0 -6.1 26.15 -6.35 26.2 -6.45 26.25 -6.55 26.3 -6.65 26.4 -6.8 26.45 -6.95 26.5 -7.0 26.55 -7.1 26.6 -7.2 26.7 -7.35 26.75 -7.4 26.85 -7.5 26.9 -7.6 27.0 -7.7 27.1 -7.75 27.25 -7.85 27.35 -7.9 27.5 -7.95 27.6 -8.0 27.75 -8.0 27.9 -8.0 28.0 -8.0 28.1 -7.95 28.2 -7.95 28.35 -7.9 28.45 -7.85 28.55 -7.8 28.6 -7.8 28.8 -7.7 28.9 -7.6 29.0 -7.6 29.1 -7.55 29.2 -7.5 29.35 -7.45 29.45 -7.45 29.6 -7.45 29.7 -7.45 29.8 -7.45 29.9 -7.5 30.0 -7.5 30.15 -7.55 30.2 -7.6 30.3 -7.65 30.4 -7.7 30.5 -7.8 30.6 -7.85 30.65 -7.95 30.75 -8.0 30.85 -8.1 30.95 -8.25 31.1 -8.35 31.2 -8.45 31.35 -8.55 31.45 -8.65 31.6 -8.75 31.7 -8.85 31.85 -8.95 32.0 -9.05 32.1 -9.15 32.25 -9.2 32.4 -9.25 32.55 -9.35 32.7 -9.4 32.85 -9.45 33.05 -9.5 33.1 -9.5 33.2 -9.55 33.35 -9.55 33.4 -9.55 33.4 -9.5 33.35 -9.35 33.3 -9.25 33.3 -9.2 33.3 -9.1 33.25 -9.05 33.25 -8.95 33.25 -8.85 33.25 -8.8 33.25 -8.7 33.3 -8.6 33.3 -8.55 33.35 -8.5 33.45 -8.4 33.5 -8.35 33.6 -8.3 33.7 -8.25 33.8 -8.2 33.9 -8.15 34.05 -8.1 34.15 -8.1 34.3 -8.05 34.45 -8.05 34.55 -8.05 34.7 -8.05 34.85 -8.1 34.95 -8.1 35.05 -8.15 35.2 -8.15 35.3 -8.25 35.35 -8.3 35.45 -8.35 35.5 -8.4 35.55 -8.45 35.6 -8.55 35.6 -8.6 35.65 -8.65 35.65 -8.7 35.65 -8.8 35.65 -8.85 35.65 -8.9 35.65 -8.95 35.6 -9.05 35.6 -9.1 35.55 -9.15 35.5 -9.2 35.5 -9.3 35.45 -9.35 35.5 -9.4 35.55 -9.45 L35.55 -9.45" fill="#000000" fill-opacity="0.25882354" fill-rule="evenodd" stroke="none"/>
    <path d="M-15.0 -7.2 Q-15.05 -7.15 -15.1 -7.1 -15.1 -7.05 -15.15 -7.0 -15.2 -6.95 -15.2 -6.9 -15.25 -6.85 -15.25 -6.8 -15.3 -6.75 -15.3 -6.7 -15.3 -6.65 -15.3 -6.6 -15.25 -6.55 -15.25 -6.5 -15.2 -6.45 -15.15 -6.4 -15.1 -6.35 -15.1 -6.3 -15.05 -6.3 -15.0 -6.25 -14.95 -6.25 -14.95 -6.25 -14.9 -6.2 -14.85 -6.2 -14.8 -6.2 -14.75 -6.2 -14.7 -6.2 -14.65 -6.2 -14.65 -6.25 -14.6 -6.25 -14.55 -6.25 -14.5 -6.3 -14.4 -6.35 -14.35 -6.35 -14.25 -6.4 -14.2 -6.45 -14.1 -6.5 -14.05 -6.55 -14.0 -6.6 -13.95 -6.65 -13.9 -6.7 -13.85 -6.75 -13.85 -6.85 -13.85 -6.9 -13.85 -7.0 -13.85 -7.1 -13.85 -7.2 -13.9 -7.35 -13.8 -7.35 -13.7 -7.3 -13.6 -7.3 -13.55 -7.25 -13.45 -7.2 -13.4 -7.2 -13.3 -7.15 -13.25 -7.1 -13.2 -7.05 -13.15 -7.0 -13.1 -6.95 -13.05 -6.9 -13.0 -6.8 -12.95 -6.75 -12.9 -6.7 -12.9 -6.6 -12.85 -6.5 -12.85 -6.4 -12.85 -6.35 -12.85 -6.25 -12.85 -6.15 -12.85 -6.1 -12.85 -6.0 -12.9 -5.95 -12.9 -5.85 -12.95 -5.8 -13.0 -5.7 -13.05 -5.65 -13.1 -5.6 -13.15 -5.5 -13.2 -5.45 -13.3 -5.4 -13.45 -5.3 -13.6 -5.2 -13.7 -5.1 -13.85 -5.0 -14.0 -4.9 -14.2 -4.85 -14.35 -4.8 -14.5 -4.75 -14.65 -4.7 -14.8 -4.65 -15.0 -4.65 -15.15 -4.65 -15.35 -4.6 -15.5 -4.65 -15.7 -4.65 -15.85 -4.65 -16.05 -4.7 -16.25 -4.7 -16.45 -4.75 -16.65 -4.75 -16.85 -4.75 -17.05 -4.75 -17.25 -4.75 -17.45 -4.7 -17.65 -4.7 -17.8 -4.65 -18.0 -4.65 -18.2 -4.6 -18.4 -4.55 -18.6 -4.45 -18.75 -4.4 -18.95 -4.3 -19.15 -4.2 -19.4 -4.15 -19.6 -4.1 -19.85 -4.05 -20.05 -4.05 -20.3 -4.05 -20.5 -4.05 -20.75 -4.05 -20.95 -4.1 -21.2 -4.15 -21.4 -4.2 -21.6 -4.25 -21.8 -4.3 -22.05 -4.35 -22.45 -4.45 -22.5 -4.45 -23.0 -4.6 -23.7 -4.8 -24.75 -5.1 -24.9 -5.15 -25.1 -5.2 -25.15 -5.2 -25.45 -5.25 -25.7 -5.25 -26.0 -5.3 -26.25 -5.25 -26.5 -5.25 -26.75 -5.2 -26.95 -5.1 -27.15 -5.0 -27.3 -4.9 -27.4 -4.7 -27.55 -4.55 -27.6 -4.25 -27.65 -4.0 -27.6 -3.65 -27.55 -3.3 -27.45 -2.85 -27.4 -2.6 -27.3 -2.3 -27.25 -2.05 -27.25 -1.8 -27.2 -1.55 -27.2 -1.25 -27.2 -1.0 -27.2 -0.75 -27.2 -0.5 -27.25 -0.2 -27.3 0.05 -27.35 0.3 -27.4 0.55 -27.5 0.8 -27.55 1.1 -27.65 1.35 -27.85 1.8 -28.0 2.3 -28.15 2.75 -28.25 3.25 -28.35 3.75 -28.4 4.2 -28.45 4.7 -28.45 5.2 -28.45 5.65 -28.4 6.15 -28.35 6.65 -28.3 7.1 -28.25 7.6 -28.1 8.1 -28.0 8.55 -27.85 9.05 -27.8 9.2 -27.8 9.4 -27.75 9.55 -27.75 9.7 -27.75 9.85 -27.75 10.05 -27.75 10.2 -27.8 10.35 -27.8 10.5 -27.85 10.7 -27.85 10.75 -27.85 11.0 -27.9 11.2 -27.9 11.35 -27.95 11.55 -27.95 11.65 -27.95 11.95 -28.05 12.45 -28.1 13.0 -28.1 13.25 -28.1 13.35 -28.1 13.45 -28.1 13.55 -28.1 13.65 -28.1 13.75 -28.1 13.85 -28.05 14.0 -28.05 14.05 -28.0 14.15 -28.0 14.25 -27.95 14.35 -27.9 14.45 -27.9 14.55 -27.85 14.65 -27.8 14.75 -27.7 14.85 -27.6 15.0 -27.15 15.75 -26.8 16.35 -26.55 16.7 -26.5 16.8 -26.45 16.85 -26.45 16.95 -26.4 17.0 -26.4 17.05 -26.4 17.1 -26.4 17.2 -26.4 17.25 -26.4 17.3 -26.45 17.35 -26.5 17.4 -26.55 17.45 -26.6 17.5 -26.65 17.55 -26.75 17.6 -26.8 17.6 -26.85 17.6 -26.85 17.65 -26.9 17.65 -26.95 17.65 -26.95 17.7 -27.0 17.7 -27.0 17.75 -27.05 17.75 -27.05 17.75 -27.1 17.8 -27.15 17.8 -27.15 17.85 -27.2 17.85 -27.2 17.85 -27.25 17.9 -27.3 17.9 -27.4 17.95 -27.45 18.0 -27.55 18.0 -27.6 18.05 -27.65 18.05 -27.7 18.05 -27.75 18.05 -27.8 18.05 -27.85 18.0 -27.9 17.95 -27.9 17.95 -27.95 17.9 -28.0 17.8 -28.0 17.75 -28.05 17.65 -28.05 17.55 -28.05 17.45 -28.1 17.35 -28.15 17.25 -28.2 17.15 -28.25 17.05 -28.3 17.0 -28.35 16.9 -28.45 16.85 -28.5 16.75 -28.6 16.7 -28.65 16.65 -28.75 16.6 -28.85 16.55 -28.95 16.5 -29.05 16.45 -29.15 16.4 -29.25 16.35 -29.3 16.35 -29.4 16.35 -29.45 16.35 -29.55 16.4 -29.6 16.4 -29.65 16.45 -29.7 16.5 -29.75 16.55 -29.8 16.6 -29.85 16.65 -29.85 16.7 -29.9 16.8 -29.9 16.85 -29.95 16.95 -29.95 17.05 -30.1 16.95 -30.25 16.8 -30.4 16.7 -30.5 16.6 -30.6 16.45 -30.7 16.3 -30.75 16.15 -30.85 16.0 -30.9 15.85 -30.9 15.7 -30.95 15.55 -30.95 15.4 -30.95 15.2 -30.9 15.05 -30.85 14.9 -30.8 14.7 -30.55 14.15 -30.4 13.55 -30.2 13.0 -30.1 12.45 -30.0 11.85 -29.9 11.25 -29.85 10.7 -29.8 10.1 -29.75 9.55 -29.75 8.95 -29.75 8.4 -29.75 7.75 -29.75 7.3 -29.75 6.6 -29.6 12.4 -29.8 5.4 -29.8 5.0 -29.8 4.65 -29.8 4.25 -29.8 3.85 -29.8 3.5 -29.8 3.1 -29.8 2.75 -29.8 2.35 -29.75 1.95 -29.75 1.6 -29.7 1.2 -29.65 0.85 -29.65 0.45 -29.6 0.05 -29.55 -0.3 -29.5 -0.7 -29.45 -0.95 -29.45 -1.15 -29.4 -1.4 -29.4 -1.6 -29.35 -1.85 -29.4 -2.05 -29.4 -2.3 -29.4 -2.5 -29.45 -2.75 -29.5 -2.95 -29.6 -3.15 -29.65 -3.35 -29.75 -3.55 -29.9 -3.75 -30.05 -3.95 -30.2 -4.15 -30.25 -4.2 -30.25 -4.2 -30.3 -4.25 -30.3 -4.3 -30.3 -4.35 -30.35 -4.4 -30.35 -4.4 -30.4 -4.45 -30.4 -4.5 -30.4 -4.55 -30.4 -4.6 -30.45 -4.65 -30.45 -4.7 -30.45 -4.75 -30.45 -4.8 -30.45 -4.85 -30.5 -5.0 -30.55 -5.15 -30.6 -5.3 -30.65 -5.45 -30.7 -5.6 -30.8 -5.7 -30.9 -5.8 -31.0 -5.9 -31.05 -6.0 -31.2 -6.1 -31.3 -6.2 -31.45 -6.25 -31.55 -6.35 -31.7 -6.4 -31.85 -6.45 -32.05 -6.5 -32.2 -6.55 -32.4 -6.6 -32.55 -6.65 -32.7 -6.7 -32.85 -6.8 -32.95 -6.9 -33.1 -6.95 -33.25 -7.05 -33.35 -7.15 -33.45 -7.3 -33.6 -7.4 -33.7 -7.55 -33.8 -7.65 -33.85 -7.8 -33.95 -8.0 -34.0 -8.15 -34.1 -8.35 -34.1 -8.5 -34.15 -8.65 -34.2 -8.8 -34.2 -8.95 -34.15 -9.1 -34.15 -9.25 -34.1 -9.35 -34.05 -9.45 -33.95 -9.55 -33.85 -9.7 -33.75 -9.75 -33.65 -9.85 -33.5 -9.95 -33.3 -10.05 -33.15 -10.1 -33.1 -10.1 -33.1 -10.05 -33.05 -10.05 -33.05 -10.0 -33.15 -9.85 -33.25 -9.75 -33.3 -9.6 -33.35 -9.5 -33.4 -9.35 -33.4 -9.25 -33.4 -9.15 -33.4 -9.05 -33.35 -8.95 -33.3 -8.85 -33.2 -8.8 -33.1 -8.7 -33.0 -8.65 -32.9 -8.6 -32.75 -8.55 -32.55 -8.5 -32.45 -8.5 -32.4 -8.45 -32.3 -8.45 -32.2 -8.45 -32.15 -8.45 -32.05 -8.4 -31.95 -8.4 -31.85 -8.4 -31.8 -8.4 -31.7 -8.45 -31.6 -8.45 -31.55 -8.45 -31.45 -8.45 -31.35 -8.5 -31.25 -8.5 -31.2 -8.55 -31.05 -8.6 -30.9 -8.65 -30.75 -8.7 -30.65 -8.8 -30.55 -8.9 -30.5 -8.95 -30.4 -9.05 -30.4 -9.15 -30.35 -9.25 -30.35 -9.4 -30.4 -9.5 -30.4 -9.65 -30.45 -9.75 -30.55 -9.9 -30.65 -10.05 -30.75 -10.2 -30.55 -10.15 -30.35 -10.15 -30.15 -10.1 -30.0 -10.05 -29.8 -10.0 -29.65 -9.95 -29.45 -9.85 -29.3 -9.8 -29.1 -9.75 -28.95 -9.65 -28.8 -9.6 -28.65 -9.5 -28.45 -9.4 -28.3 -9.3 -28.15 -9.2 -28.0 -9.1 -27.8 -8.95 -27.3 -8.5 -27.15 -8.35 -27.0 -8.25 -26.85 -8.1 -26.65 -8.0 -26.5 -7.95 -26.35 -7.85 -26.15 -7.8 -26.0 -7.75 -25.8 -7.75 -25.65 -7.75 -25.45 -7.75 -25.3 -7.8 -25.1 -7.8 -24.9 -7.9 -24.75 -7.95 -24.55 -8.1 -24.35 -8.2 -24.1 -8.3 -23.9 -8.35 -23.7 -8.35 -23.5 -8.35 -23.25 -8.35 -23.05 -8.3 -22.85 -8.2 -22.65 -8.15 -22.5 -8.05 -22.3 -7.9 -22.15 -7.75 -22.0 -7.6 -21.9 -7.45 -21.75 -7.25 -21.7 -7.1 -21.6 -6.8 -21.45 -6.6 -21.3 -6.35 -21.1 -6.15 -20.95 -5.95 -20.75 -5.8 -20.55 -5.65 -20.3 -5.55 -20.1 -5.45 -19.85 -5.4 -19.65 -5.3 -19.35 -5.3 -19.15 -5.25 -18.85 -5.25 -18.6 -5.25 -18.35 -5.25 -18.25 -5.25 -18.15 -5.3 -18.05 -5.3 -17.9 -5.35 -17.8 -5.35 -17.75 -5.4 -17.65 -5.45 -17.55 -5.5 -17.45 -5.55 -17.35 -5.6 -17.3 -5.65 -17.2 -5.75 -17.15 -5.8 -17.05 -5.9 -17.0 -5.95 -16.9 -6.05 -16.8 -6.15 -16.7 -6.25 -16.6 -6.35 -16.5 -6.45 -16.4 -6.55 -16.3 -6.6 -16.2 -6.7 -16.05 -6.75 -15.95 -6.85 -15.85 -6.9 -15.7 -7.0 -15.6 -7.05 -15.5 -7.1 -15.35 -7.15 -15.25 -7.2 -15.1 -7.25 -15.1 -7.25 -15.0 -7.2 L-15.0 -7.2" fill="#000000" fill-opacity="0.25882354" fill-rule="evenodd" stroke="none"/>
    <path d="M-15.1 -7.25 Q-15.05 -7.3 -15.0 -7.3 -14.95 -7.3 -14.95 -7.3 -14.9 -7.2 -15.0 -7.2 -15.05 -7.2 -15.05 -7.25 -15.1 -7.25 -15.1 -7.25 L-15.1 -7.25" fill="#b7b7b7" fill-rule="evenodd" stroke="none"/>
  </g>
</svg>
