<?xml version="1.0" encoding="UTF-8" standalone="no"?>
<svg xmlns:xlink="http://www.w3.org/1999/xlink" height="6.6px" width="77.5px" xmlns="http://www.w3.org/2000/svg">
  <g transform="matrix(1.0, 0.0, 0.0, 1.0, 38.75, 3.3)">
    <path d="M28.3 -2.35 Q28.25 -2.25 28.2 -2.2 28.1 -2.15 28.05 -2.05 28.0 -2.0 27.9 -1.95 27.85 -1.95 27.8 -1.9 27.7 -1.85 27.6 -1.85 27.55 -1.85 27.45 -1.8 27.35 -1.8 27.3 -1.8 27.2 -1.85 27.1 -1.85 27.0 -1.85 26.9 -1.9 26.85 -1.9 26.75 -1.95 26.7 -1.95 26.6 -2.0 26.55 -2.05 26.5 -2.1 26.4 -2.15 26.35 -2.2 26.3 -2.25 26.25 -2.35 26.2 -2.4 26.15 -2.5 26.15 -2.55 26.1 -2.65 26.05 -2.75 26.05 -2.8 26.05 -2.9 26.0 -3.0 26.0 -3.1 26.0 -3.15 26.05 -3.25 26.05 -3.3 26.05 -3.4 26.1 -3.5 26.15 -3.55 26.15 -3.65 26.2 -3.7 26.25 -3.8 26.35 -3.85 26.4 -3.95 L27.15 -4.3 27.5 -4.25 Q27.6 -4.25 27.65 -4.2 27.75 -4.2 27.8 -4.15 27.85 -4.15 27.95 -4.1 28.0 -4.05 28.05 -4.0 28.1 -3.95 28.15 -3.9 28.2 -3.85 28.25 -3.8 28.3 -3.75 28.35 -3.65 28.35 -3.6 28.4 -3.5 28.45 -3.45 28.45 -3.35 28.5 -3.3 28.5 -3.2 28.5 -3.15 28.5 -3.1 28.5 -3.0 28.5 -2.95 28.5 -2.85 28.5 -2.8 28.45 -2.7 28.45 -2.65 28.4 -2.55 28.4 -2.5 28.35 -2.4 28.3 -2.35 M26.7 4.6 L27.1 4.5 27.25 4.45 28.1 4.75 28.5 5.5 Q28.5 5.55 28.5 5.6 28.5 5.65 28.5 5.7 28.5 5.8 28.5 5.85 28.5 5.9 28.5 5.95 28.45 6.0 28.45 6.05 28.45 6.1 28.4 6.15 28.4 6.2 28.35 6.25 28.3 6.3 28.3 6.35 L27.55 6.85 26.7 6.75 26.1 6.1 Q26.1 6.05 26.05 6.0 26.05 5.95 26.05 5.9 26.05 5.85 26.0 5.8 26.0 5.75 26.0 5.7 26.05 5.65 26.05 5.6 26.05 5.5 26.05 5.45 26.05 5.4 26.1 5.35 26.1 5.3 26.15 5.25 L26.7 4.6 M30.45 0.7 L31.05 0.2 31.7 0.1 32.35 0.3 Q32.4 0.35 32.45 0.4 32.55 0.45 32.55 0.55 32.6 0.6 32.65 0.65 32.7 0.7 32.7 0.8 32.75 0.85 32.75 0.9 32.8 1.0 32.8 1.05 32.8 1.15 32.8 1.2 32.8 1.3 32.8 1.35 32.8 1.45 32.8 1.5 32.75 1.6 32.75 1.65 32.75 1.75 32.7 1.8 32.65 1.85 32.65 1.95 32.6 2.0 32.55 2.05 32.5 2.1 32.45 2.15 32.4 2.2 32.3 2.25 32.25 2.3 32.2 2.35 L30.7 2.2 Q30.6 2.1 30.55 2.0 30.5 1.9 30.45 1.85 30.4 1.75 30.35 1.65 30.3 1.55 30.3 1.45 30.3 1.35 30.3 1.25 30.3 1.15 30.3 1.1 30.3 1.0 30.35 0.9 30.4 0.8 30.45 0.7 M24.05 0.45 Q24.1 0.55 24.15 0.6 24.25 0.7 24.25 0.75 24.3 0.85 24.35 0.95 24.35 1.0 24.4 1.1 24.4 1.2 24.4 1.25 24.4 1.35 24.35 1.45 24.35 1.5 24.3 1.6 24.3 1.65 24.25 1.75 24.2 1.85 24.15 1.95 24.15 2.0 24.1 2.1 24.05 2.15 23.95 2.2 23.9 2.25 23.85 2.3 23.8 2.35 23.7 2.4 23.65 2.45 23.6 2.45 23.5 2.5 23.4 2.5 23.35 2.5 23.25 2.5 23.15 2.5 23.05 2.5 22.95 2.5 22.9 2.5 22.8 2.5 22.7 2.45 22.65 2.45 22.55 2.4 22.5 2.4 22.4 2.35 22.35 2.3 22.3 2.25 22.2 2.15 22.15 2.1 22.1 2.05 22.05 1.95 L21.9 1.2 Q21.9 1.1 21.9 1.05 21.9 1.0 21.95 0.9 21.95 0.85 22.0 0.8 22.0 0.7 22.05 0.65 22.05 0.6 22.1 0.55 22.15 0.5 22.2 0.45 22.25 0.4 22.3 0.35 22.4 0.3 22.45 0.25 L23.55 0.1 24.05 0.45 M-29.05 4.4 Q-28.95 4.4 -28.85 4.4 -28.75 4.4 -28.7 4.45 -28.6 4.45 -28.5 4.5 -28.45 4.5 -28.35 4.55 -28.3 4.6 -28.2 4.65 -28.15 4.7 -28.1 4.75 -28.0 4.8 -27.95 4.9 -27.9 4.95 -27.85 5.05 -27.8 5.15 -27.75 5.25 -27.75 5.3 -27.7 5.4 -27.7 5.5 -27.7 5.6 -27.7 5.65 -27.7 5.75 -27.7 5.85 -27.7 5.95 -27.75 6.0 -27.75 6.1 -27.8 6.2 -27.85 6.25 -27.9 6.35 -27.95 6.45 -28.0 6.5 -28.1 6.6 -28.15 6.65 -28.25 6.7 -28.3 6.75 -28.4 6.8 -28.5 6.8 -28.55 6.85 -28.65 6.85 -28.75 6.9 -28.8 6.9 -28.9 6.9 -29.0 6.9 -29.1 6.9 -29.15 6.9 -29.25 6.9 L-29.95 6.4 Q-30.0 6.35 -30.0 6.3 -30.05 6.25 -30.1 6.2 -30.1 6.15 -30.15 6.1 -30.15 6.05 -30.15 6.0 -30.2 5.95 -30.2 5.9 -30.2 5.85 -30.2 5.8 -30.2 5.75 -30.2 5.7 -30.2 5.65 -30.2 5.6 -30.2 5.45 -30.15 5.35 -30.15 5.25 -30.1 5.15 -30.05 5.05 -30.0 4.95 -29.95 4.85 -29.85 4.8 -29.8 4.7 -29.7 4.65 -29.65 4.6 -29.55 4.55 -29.4 4.5 -29.3 4.45 -29.2 4.4 -29.05 4.4 M-33.05 2.25 L-33.75 2.15 Q-33.85 2.1 -33.9 2.05 -34.0 2.0 -34.1 1.95 -34.15 1.9 -34.2 1.85 -34.25 1.75 -34.3 1.7 -34.35 1.6 -34.4 1.55 -34.4 1.45 -34.45 1.4 -34.45 1.3 -34.5 1.2 -34.5 1.15 -34.5 1.05 -34.5 0.95 -34.5 0.85 -34.45 0.75 -34.45 0.65 -34.45 0.55 -34.4 0.5 -34.35 0.4 -34.3 0.35 -34.25 0.25 -34.2 0.2 -34.15 0.15 -34.05 0.1 -34.0 0.05 -33.9 0.0 -33.85 -0.05 -33.75 -0.05 L-33.25 -0.2 -32.45 0.15 Q-32.4 0.2 -32.35 0.2 -32.35 0.25 -32.3 0.3 -32.25 0.35 -32.25 0.4 -32.2 0.45 -32.15 0.5 -32.15 0.55 -32.1 0.6 -32.1 0.6 -32.1 0.7 -32.05 0.75 -32.05 0.8 -32.05 0.85 -32.05 0.9 -32.05 0.95 -32.05 1.0 -32.05 1.1 -32.05 1.15 -32.05 1.2 -32.05 1.25 -32.05 1.3 -32.1 1.35 -32.1 1.4 -32.1 1.5 -32.15 1.55 -32.15 1.6 -32.2 1.65 -32.25 1.7 -32.25 1.75 -32.3 1.8 -32.35 1.85 -32.4 1.9 -32.4 1.9 -32.45 1.95 -32.5 2.0 -32.55 2.0 -32.6 2.05 -32.65 2.1 -32.7 2.1 -32.75 2.15 -32.8 2.15 -32.85 2.2 -32.9 2.2 -32.95 2.2 -33.0 2.25 -33.05 2.25 M-30.2 -3.3 L-30.05 -3.8 -29.4 -4.45 Q-29.3 -4.5 -29.2 -4.5 -29.15 -4.55 -29.05 -4.55 -28.95 -4.55 -28.85 -4.55 -28.8 -4.55 -28.7 -4.5 -28.6 -4.5 -28.55 -4.45 -28.45 -4.4 -28.4 -4.4 -28.3 -4.35 -28.2 -4.25 -28.15 -4.2 -28.05 -4.15 -27.95 -4.05 -27.9 -4.0 -27.85 -3.9 -27.8 -3.8 -27.75 -3.7 -27.75 -3.65 -27.7 -3.55 -27.7 -3.45 -27.7 -3.35 -27.7 -3.3 -27.7 -3.2 -27.7 -3.1 -27.75 -3.0 -27.75 -2.9 -27.8 -2.8 -27.85 -2.75 -27.9 -2.65 -27.95 -2.55 -28.0 -2.5 -28.05 -2.4 -28.15 -2.35 -28.2 -2.3 -28.25 -2.25 -28.35 -2.2 -28.4 -2.15 -28.5 -2.15 -28.6 -2.1 -28.65 -2.1 -28.75 -2.05 -28.85 -2.05 -28.95 -2.05 -29.05 -2.1 -29.15 -2.1 -29.25 -2.1 -29.35 -2.1 -29.45 -2.15 -29.5 -2.15 -29.6 -2.2 -29.65 -2.25 -29.75 -2.3 -29.8 -2.35 -29.85 -2.4 -29.95 -2.5 -30.0 -2.55 -30.05 -2.65 -30.1 -2.75 -30.15 -2.8 -30.15 -2.95 L-30.2 -3.3 M-25.45 1.15 L-25.35 0.45 -24.9 0.0 -24.25 -0.2 Q-24.15 -0.2 -24.05 -0.2 -23.95 -0.2 -23.85 -0.15 -23.75 -0.15 -23.65 -0.1 -23.6 -0.05 -23.5 0.0 -23.45 0.05 -23.4 0.1 -23.3 0.15 -23.25 0.2 -23.2 0.3 -23.15 0.35 -23.15 0.45 -23.1 0.55 -23.05 0.65 -23.05 0.75 -23.0 0.8 -23.0 0.9 -22.95 1.0 -22.95 1.1 -22.95 1.15 -22.95 1.25 -23.0 1.3 -23.0 1.4 -23.05 1.5 -23.1 1.55 -23.1 1.65 -23.2 1.7 -23.25 1.75 -23.3 1.85 -23.35 1.9 -23.4 1.95 -23.4 1.95 -23.45 2.0 -23.5 2.05 -23.55 2.05 -23.6 2.1 -23.65 2.1 -23.7 2.15 -23.75 2.15 -23.8 2.2 -23.85 2.2 -23.9 2.2 -24.0 2.2 -24.05 2.25 -24.1 2.25 L-24.95 2.0 -25.35 1.5 -25.45 1.15" fill="#f1c4de" fill-rule="evenodd" stroke="none"/>
  </g>
</svg>
