<?xml version="1.0" encoding="UTF-8" standalone="no"?>
<svg xmlns:xlink="http://www.w3.org/1999/xlink" height="150.8px" width="101.9px" xmlns="http://www.w3.org/2000/svg">
  <g transform="matrix(1.0, 0.0, 0.0, 1.0, 50.95, 75.4)">
    <path d="M44.7 -40.0 Q44.45 -37.6 43.35 -33.5 43.15 -32.8 42.8 -30.8 42.45 -29.1 42.1 -28.1 38.65 -18.4 36.8 -14.6 35.8 -12.5 32.75 -6.4 32.7 -6.3 32.65 -6.2 32.65 -6.1 32.6 -6.0 32.6 -5.95 32.6 -5.85 32.6 -5.75 32.6 -5.65 32.6 -5.55 32.6 -5.5 32.6 -5.4 32.6 -5.3 32.65 -5.2 32.65 -5.1 32.7 -5.0 32.7 -4.9 32.8 -4.6 32.9 -4.25 33.0 -3.95 33.05 -3.6 33.15 -3.3 33.25 -2.95 33.3 -2.65 33.4 -2.3 33.45 -2.0 33.5 -1.65 33.55 -1.35 33.65 -1.0 33.7 -0.65 33.75 -0.35 33.8 0.0 33.8 0.3 33.95 1.55 34.05 2.8 34.15 4.05 34.2 5.35 34.25 6.55 34.25 7.85 34.25 9.1 34.25 10.4 34.2 11.6 34.15 12.9 34.1 14.05 34.05 15.4 33.95 16.55 33.85 17.9 33.8 18.85 33.7 20.45 33.65 21.0 33.6 22.55 33.6 23.85 33.45 24.65 33.3 25.75 33.3 27.45 33.25 29.8 33.25 30.25 33.2 30.95 33.3 32.15 33.45 33.5 33.45 34.05 33.4 37.6 33.3 38.3 33.3 38.35 33.3 38.45 33.25 38.5 33.25 38.55 33.25 38.65 33.25 38.7 33.25 38.75 33.25 38.8 33.25 38.9 33.25 38.95 33.2 39.0 33.2 39.1 33.2 39.15 33.2 39.2 33.2 39.25 33.2 39.35 33.2 39.65 33.2 40.0 33.2 40.3 33.2 40.6 33.2 40.9 33.15 41.25 33.1 41.55 33.05 41.85 33.0 42.15 32.95 42.5 32.95 42.65 32.85 43.1 32.8 43.5 32.75 43.75 32.7 44.1 32.65 44.4 32.6 44.7 32.6 45.05 32.55 45.35 32.55 45.7 32.6 45.05 32.5 46.4 32.45 46.8 32.4 47.05 32.4 47.4 32.35 47.7 32.3 48.05 32.25 48.4 32.2 48.75 32.15 49.05 32.05 49.4 32.0 49.7 31.8 50.35 31.6 51.2 32.2 48.85 31.2 52.7 30.95 53.6 30.75 54.2 30.55 55.0 30.3 55.7 30.05 56.5 29.85 57.15 29.55 57.95 29.3 58.65 28.95 59.35 28.65 60.05 28.3 60.75 27.9 61.45 27.65 61.85 27.4 62.25 27.15 62.65 26.85 63.0 26.55 63.35 26.25 63.75 25.95 64.05 25.6 64.4 25.3 64.75 24.95 65.05 24.6 65.4 24.25 65.7 23.9 66.0 23.5 66.3 23.15 66.6 22.8 66.85 22.2 67.3 21.7 67.7 21.1 68.1 20.55 68.5 19.95 68.9 19.4 69.25 18.8 69.6 18.2 69.95 17.6 70.3 17.0 70.6 16.4 70.95 15.8 71.2 15.15 71.5 14.5 71.75 13.85 72.0 13.2 72.2 12.85 72.3 12.5 72.4 12.15 72.5 11.8 72.55 11.45 72.65 11.05 72.7 10.7 72.8 10.35 72.85 10.0 72.9 9.65 72.95 9.3 73.0 8.95 73.05 8.6 73.1 8.2 73.15 7.85 73.2 7.5 73.2 6.5 73.3 3.3 73.65 0.7 74.0 -0.9 74.05 -1.6 74.05 -2.3 74.05 -3.0 74.0 -3.7 73.95 -4.35 73.85 -5.05 73.75 -5.7 73.65 -6.4 73.5 -7.05 73.35 -7.7 73.15 -8.35 72.95 -9.05 72.75 -9.65 72.55 -10.35 72.3 -10.95 72.1 -11.65 71.8 -12.1 71.6 -12.5 71.45 -12.95 71.25 -13.35 71.1 -13.8 70.9 -14.2 70.75 -14.65 70.55 -15.05 70.35 -15.5 70.15 -15.9 69.95 -16.35 69.75 -16.75 69.55 -17.2 69.35 -17.6 69.1 -18.0 68.9 -18.4 68.65 -20.3 67.55 -24.7 63.8 -25.55 63.1 -26.3 62.25 -27.05 61.5 -27.75 60.65 -28.4 59.8 -29.0 58.9 -29.6 58.05 -30.1 57.1 -30.6 56.15 -31.05 55.15 -31.5 54.2 -31.85 53.2 -32.25 52.2 -32.6 51.15 -32.9 50.15 -33.2 49.05 -33.4 48.2 -33.55 47.35 -33.7 46.5 -33.8 45.65 -33.9 44.8 -33.9 43.95 -33.9 43.1 -33.9 42.2 -33.85 41.35 -33.75 40.5 -33.7 39.65 -33.55 38.75 -33.45 37.95 -33.3 37.05 -33.15 36.2 -32.95 35.3 -32.8 34.6 -32.6 33.85 -32.45 33.15 -32.2 32.45 -32.0 31.75 -31.75 31.05 -31.5 30.4 -31.25 29.7 -31.0 29.05 -30.7 28.35 -30.45 27.75 -30.1 27.0 -29.85 26.45 -29.55 25.7 -29.55 25.7 -28.9 24.35 -28.1 22.5 -26.45 19.6 -26.15 19.05 -25.85 18.45 -25.6 17.9 -25.35 17.3 -25.1 16.75 -24.9 16.1 -24.7 15.55 -24.45 14.9 -24.3 14.35 -24.1 13.7 -23.95 13.2 -23.7 12.5 -23.4 11.45 -23.35 11.25 -23.1 10.55 -22.95 10.05 -20.05 0.9 -18.35 -5.25 -18.3 -5.4 -18.25 -5.5 -18.2 -5.65 -18.2 -5.75 -18.15 -5.9 -18.1 -6.0 -18.05 -6.15 -17.95 -6.25 -17.9 -6.4 -17.85 -6.5 -17.8 -6.65 -17.75 -6.75 -17.7 -6.9 -17.65 -7.0 -17.6 -7.15 -17.5 -7.25 -17.4 -7.5 -17.3 -7.75 -17.2 -8.0 -17.1 -8.3 -17.05 -8.55 -17.0 -8.8 -16.95 -9.05 -16.9 -9.35 -16.9 -9.6 -16.9 -9.85 -16.85 -10.1 -16.85 -10.4 -16.85 -10.65 -16.85 -10.95 -16.85 -11.15 -16.85 -11.5 -16.8 -11.6 -16.8 -11.7 -16.75 -11.8 -16.75 -11.9 -16.75 -11.95 -16.7 -12.05 -16.7 -12.15 -16.7 -12.25 -16.7 -12.35 -16.75 -12.45 -16.75 -12.55 -16.75 -12.65 -16.8 -12.75 -16.8 -12.85 -16.85 -12.95 -16.9 -13.0 -16.95 -14.2 -17.0 -15.4 -17.05 -16.6 -17.05 -17.8 -17.05 -19.0 -17.05 -20.2 -17.0 -21.4 -16.95 -22.6 -16.9 -23.8 -16.8 -25.0 -16.7 -26.2 -16.6 -27.4 -16.45 -28.6 -16.3 -29.8 -16.2 -30.95 -16.0 -32.15 -15.85 -33.25 -15.7 -34.25 -15.5 -35.35 -15.35 -36.35 -15.15 -37.45 -14.95 -38.45 -14.75 -39.5 -14.55 -40.5 -14.3 -41.6 -14.05 -42.6 -13.8 -43.65 -13.55 -44.65 -13.25 -45.7 -12.95 -46.65 -12.65 -47.7 -12.3 -48.7 -12.05 -49.4 -11.9 -49.9 -11.65 -50.55 -11.45 -51.05 -11.25 -51.7 -11.0 -52.25 -10.8 -52.85 -10.55 -53.4 -10.3 -54.0 -10.05 -54.55 -9.75 -55.15 -9.5 -55.7 -9.2 -56.25 -8.85 -56.8 -8.55 -57.35 -8.2 -57.9 -8.1 -58.05 -7.95 -58.25 -7.85 -58.4 -7.75 -58.55 -7.6 -58.7 -7.5 -58.85 -7.4 -59.0 -7.25 -59.15 -7.15 -59.3 -7.0 -59.45 -6.85 -59.6 -6.75 -59.75 -6.6 -59.9 -6.45 -60.05 -6.35 -60.2 -6.2 -60.3 -5.8 -60.7 -5.35 -61.05 -5.0 -61.4 -4.55 -61.7 -4.2 -62.0 -3.8 -62.25 -3.45 -62.45 -3.05 -62.65 -2.75 -62.85 -2.4 -63.0 -2.15 -63.15 -1.9 -63.3 -1.65 -63.35 -1.45 -63.45 -1.3 -63.5 -1.15 -63.55 -0.85 -63.65 -0.5 -63.8 -0.2 -63.9 0.1 -63.95 0.4 -64.05 0.7 -64.1 1.0 -64.2 1.3 -64.25 1.6 -64.3 1.85 -64.3 2.15 -64.35 2.4 -64.35 2.65 -64.4 2.95 -64.4 3.15 -64.4 3.4 -64.45 3.6 -64.4 3.8 -64.35 4.05 -64.3 4.3 -64.25 4.55 -64.15 4.8 -64.05 5.05 -64.0 5.35 -63.9 5.6 -63.75 5.9 -63.65 6.2 -63.5 6.5 -63.35 6.8 -63.2 7.1 -63.0 7.4 -62.8 7.7 -62.6 7.85 -62.7 8.95 -61.6 9.55 -61.0 10.1 -60.3 10.6 -59.65 11.05 -58.95 11.45 -58.25 11.8 -57.5 12.1 -56.75 12.35 -55.95 12.6 -55.25 12.8 -54.4 13.0 -53.65 13.1 -52.8 13.25 -52.05 13.3 -51.15 13.4 -50.4 13.45 -49.5 13.5 -48.55 13.5 -47.55 13.45 -46.6 13.4 -45.6 13.35 -44.65 13.2 -43.65 13.1 -42.7 12.95 -41.7 12.85 -40.8 12.65 -39.75 12.55 -38.95 12.35 -37.8 11.65 -34.05 12.0 -35.85 11.8 -34.75 11.65 -33.9 11.2 -31.2 10.0 -26.9 8.55 -21.55 8.2 -19.95 8.15 -19.8 8.15 -19.7 8.15 -19.6 8.15 -19.5 8.15 -19.45 8.15 -19.35 8.2 -19.3 8.25 -19.25 8.25 -19.2 8.35 -19.15 8.4 -19.1 8.45 -19.1 8.55 -19.1 8.65 -19.1 8.7 -19.1 8.85 -19.1 9.0 -19.15 9.15 -19.15 9.3 -19.15 9.45 -19.15 9.6 -19.15 9.75 -19.15 9.9 -19.15 10.05 -19.15 10.2 -19.1 10.35 -19.1 10.5 -19.05 10.65 -19.05 10.45 -19.05 10.95 -19.0 11.1 -18.95 11.25 -18.95 11.55 -18.9 11.7 -18.85 11.9 -18.85 12.05 -18.8 12.2 -18.8 12.3 -18.85 12.4 -18.85 12.5 -18.9 12.55 -18.95 12.65 -19.1 12.7 -19.15 12.75 -19.35 12.75 -19.45 12.8 -19.7 12.85 -19.8 12.9 -20.15 13.25 -21.85 13.7 -24.95 14.25 -28.35 14.5 -29.75 15.0 -32.55 16.95 -39.2 17.25 -40.15 17.55 -41.05 17.85 -42.0 18.2 -42.9 18.55 -43.8 18.95 -44.65 19.35 -45.55 19.8 -46.35 20.2 -47.25 20.7 -48.05 21.2 -48.9 21.7 -49.65 22.25 -50.45 22.85 -51.25 23.45 -52.0 24.05 -52.75 24.3 -53.0 24.55 -53.25 24.8 -53.5 25.05 -53.75 25.35 -53.95 25.6 -54.2 25.9 -54.4 26.2 -54.6 26.45 -54.8 26.75 -55.0 26.8 -55.0 27.35 -55.4 27.7 -55.65 27.95 -55.8 28.25 -56.0 28.5 -56.2 29.35 -56.85 30.35 -57.25 31.3 -57.65 32.35 -57.85 33.4 -58.05 34.45 -58.0 35.45 -57.95 36.5 -57.7 37.5 -57.45 38.45 -57.0 39.4 -56.55 40.2 -55.9 41.05 -55.25 41.65 -54.4 42.35 -53.55 42.8 -52.5 43.2 -51.55 44.1 -49.5 44.1 -49.45 44.05 -49.4 44.05 -49.4 44.05 -49.35 44.05 -49.3 44.05 -49.25 44.05 -49.25 44.1 -49.2 44.1 -49.15 44.15 -49.15 44.2 -49.0 44.25 -48.65 44.25 -48.6 44.25 -48.6 44.2 -48.55 44.2 -48.5 44.2 -48.45 44.2 -48.45 44.2 -48.4 44.25 -48.35 44.25 -48.35 44.25 -48.3 44.25 -48.25 44.25 -48.25 44.3 -48.2 44.3 -48.2 44.35 -48.15 44.35 -48.1 44.4 -47.75 44.55 -47.05 44.5 -47.0 44.5 -46.9 44.5 -46.85 44.45 -46.8 44.45 -46.7 44.45 -46.65 44.45 -46.6 44.45 -46.55 44.45 -46.45 44.45 -46.4 44.5 -46.35 44.5 -46.3 44.55 -46.2 44.55 -46.15 44.6 -46.1 44.65 -46.05 44.65 -45.8 44.7 -45.35 44.7 -43.55 44.7 -40.0 L44.7 -40.0 M-4.15 -60.5 Q-6.3 -58.75 -8.05 -56.05 -9.7 -53.5 -10.95 -50.15 -12.1 -47.1 -12.9 -43.35 -13.65 -39.95 -14.15 -36.05 -14.6 -32.6 -14.85 -28.8 -15.05 -25.55 -15.1 -22.05 -15.15 -19.35 -15.15 -16.35 -15.1 -15.2 -15.05 -12.1 -14.95 -11.3 -14.95 -10.5 -15.0 -9.8 -15.15 -9.05 -15.3 -8.4 -15.55 -7.7 -15.75 -7.15 -16.1 -6.45 -16.3 -6.0 -16.7 -5.25 -17.15 -4.35 -17.3 -4.0 -17.65 -3.35 -17.85 -2.8 -18.15 -2.1 -18.3 -1.5 -19.2 1.2 -21.15 8.1 -22.75 13.7 -23.95 16.55 -24.45 17.85 -25.1 19.45 -25.5 20.55 -26.25 22.35 -27.15 24.5 -27.45 25.25 -28.1 26.85 -28.6 28.15 -29.2 29.7 -29.65 31.05 -30.15 32.6 -30.55 34.05 -30.95 35.6 -31.2 37.1 -31.5 38.7 -31.65 40.25 -31.95 43.6 -31.6 46.75 -31.25 49.75 -30.3 52.5 -29.4 55.05 -28.0 57.4 -26.7 59.6 -24.95 61.6 -23.3 63.4 -21.35 65.05 -19.55 66.5 -17.55 67.75 -15.65 68.9 -13.65 69.8 -11.8 70.6 -10.0 71.15 -8.25 71.75 -6.35 72.1 -4.55 72.45 -2.65 72.6 -0.8 72.75 1.1 72.7 2.95 72.65 4.8 72.45 6.55 72.2 8.3 71.85 10.0 71.5 11.65 71.0 13.25 70.5 14.7 69.9 16.15 69.3 17.45 68.6 20.15 67.35 22.35 65.55 24.45 63.9 26.05 61.7 27.55 59.65 28.7 57.15 29.75 54.85 30.5 52.1 31.15 49.65 31.6 46.75 31.95 44.2 32.15 41.2 32.3 38.7 32.35 35.65 32.35 33.65 32.35 30.3 32.4 27.8 32.5 25.05 32.6 23.1 32.8 20.3 33.05 16.4 33.05 15.9 33.2 13.55 33.25 11.8 33.3 9.65 33.25 7.8 33.15 5.7 32.95 3.8 32.7 1.75 32.2 -0.3 31.75 -2.45 31.0 -4.65 30.95 -4.95 30.95 -5.3 30.95 -5.6 31.05 -5.85 31.1 -6.15 31.2 -6.4 31.3 -6.65 31.5 -6.95 31.6 -7.15 31.8 -7.45 32.3 -8.25 32.1 -7.95 32.3 -8.25 32.45 -8.5 32.6 -8.8 32.7 -9.05 33.15 -9.85 33.55 -10.6 34.0 -11.4 34.4 -12.2 34.8 -13.0 35.2 -13.75 35.6 -14.55 35.95 -15.35 36.35 -16.1 36.7 -16.9 37.1 -17.7 37.45 -18.5 37.8 -19.3 38.15 -20.1 38.5 -20.95 38.85 -21.75 L38.85 -21.75 Q41.15 -27.0 42.45 -31.85 43.65 -36.35 43.9 -40.35 44.15 -44.05 43.55 -47.15 43.0 -50.05 41.75 -52.15 40.6 -54.2 38.9 -55.35 37.2 -56.5 35.2 -56.65 33.25 -56.8 31.15 -56.0 29.0 -55.1 27.0 -53.25 25.35 -51.75 23.85 -49.65 22.5 -47.65 21.25 -45.2 20.15 -42.95 19.15 -40.25 18.25 -37.85 17.4 -35.05 16.7 -32.65 16.1 -29.95 15.55 -27.65 15.05 -25.15 14.7 -23.3 14.3 -20.95 13.6 -17.05 13.7 -17.65 13.5 -17.6 13.25 -17.6 13.0 -17.6 12.7 -17.65 12.45 -17.65 12.15 -17.75 11.9 -17.8 11.5 -17.85 10.25 -18.1 10.9 -18.0 10.55 -18.05 10.3 -18.1 9.95 -18.15 9.7 -18.2 9.4 -18.2 9.2 -18.2 8.95 -18.25 8.7 -18.25 8.5 -18.25 8.25 -18.25 8.05 -18.2 7.85 -18.2 7.8 -18.15 7.45 -18.1 7.25 -18.05 7.15 -18.05 6.95 -18.05 6.85 -18.05 6.75 -18.05 6.65 -18.1 6.6 -18.2 6.55 -18.3 6.65 -19.3 6.85 -20.4 7.05 -21.35 7.3 -22.45 7.55 -23.4 7.85 -24.5 8.1 -25.35 8.45 -26.5 8.55 -26.85 9.05 -28.5 9.4 -29.75 9.65 -30.55 10.0 -31.65 10.25 -32.6 10.5 -33.7 10.75 -34.7 11.9 -39.7 12.25 -44.0 12.6 -48.0 12.25 -51.3 11.9 -54.35 10.95 -56.7 10.05 -58.9 8.7 -60.4 7.4 -61.8 5.75 -62.5 4.2 -63.15 2.45 -63.15 0.75 -63.1 -0.95 -62.4 -2.65 -61.75 -4.15 -60.5 L-4.15 -60.5" fill="#000000" fill-rule="evenodd" stroke="none"/>
    <path d="M-30.55 34.1 Q-30.6 34.2 -30.65 34.4 -30.65 34.3 -30.55 34.1 L-30.55 34.1" fill="#a02f55" fill-rule="evenodd" stroke="none"/>
    <path d="M20.0 11.1 Q20.0 11.3 19.95 11.55 19.95 11.75 19.85 11.9 19.8 12.1 19.7 12.3 19.6 12.45 19.45 12.6 19.35 12.7 19.2 12.85 19.05 12.95 18.85 13.0 18.65 13.1 18.45 13.15 18.25 13.2 18.05 13.2 17.8 13.2 17.6 13.15 17.35 13.15 17.15 13.05 16.95 12.95 16.75 12.85 16.55 12.7 16.4 12.55 16.25 12.4 16.15 12.2 16.0 12.05 15.95 11.8 15.85 11.6 15.8 11.35 15.75 11.1 15.75 10.85 15.75 10.6 15.8 10.35 15.85 10.15 15.9 9.95 16.0 9.7 16.1 9.55 16.25 9.35 16.4 9.2 16.55 9.05 16.75 8.9 16.9 8.8 17.15 8.7 17.35 8.6 17.55 8.55 17.8 8.5 18.05 8.5 18.25 8.5 18.45 8.55 18.6 8.6 18.8 8.7 18.95 8.8 19.1 8.95 19.25 9.05 19.4 9.25 19.55 9.45 19.65 9.65 19.75 9.85 19.85 10.1 19.9 10.35 19.95 10.6 20.0 10.85 20.0 11.1 L20.0 11.1" fill="#000000" fill-rule="evenodd" stroke="none"/>
    <path d="M-5.95 6.05 Q-5.8 6.15 -5.55 6.4 -5.55 6.45 -5.55 6.5 -5.55 6.55 -5.5 6.55 -5.5 6.6 -5.5 6.65 -5.45 6.65 -5.45 6.7 -5.4 6.75 -5.4 6.75 -5.35 6.8 -5.3 6.8 -5.3 6.8 -5.25 6.85 -5.2 6.85 -5.15 6.85 L-5.1 6.9 Q-5.1 6.9 -5.15 6.9 -5.15 6.9 -5.15 6.9 -5.1 7.05 -5.1 7.2 -5.05 7.35 -5.0 7.5 -4.95 7.65 -4.95 7.75 -4.9 7.9 -4.9 8.05 -4.9 8.2 -4.85 8.35 -4.85 8.5 -4.85 8.65 -4.85 8.8 -4.85 8.95 -4.85 9.15 -4.9 9.3 -4.9 9.35 -4.95 9.55 -5.25 9.8 -5.3 9.9 -5.4 10.1 -5.55 10.25 -5.7 10.4 -5.85 10.5 -5.95 10.6 -6.15 10.65 -6.3 10.7 -6.45 10.75 -6.6 10.8 -6.8 10.8 -6.95 10.8 -7.15 10.75 -7.3 10.75 -7.5 10.7 -7.65 10.65 -7.85 10.6 -8.05 10.55 -8.2 10.5 -8.35 10.4 -8.45 10.3 -8.6 10.2 -8.7 10.1 -8.8 10.0 -8.9 9.85 -8.95 9.7 -9.05 9.55 -9.1 9.4 -9.15 9.25 -9.15 9.1 -9.2 8.9 -9.2 8.75 -9.2 8.55 -9.2 8.2 -9.15 7.9 -9.1 7.6 -9.0 7.35 -8.9 7.1 -8.75 6.9 -8.6 6.7 -8.35 6.55 -8.15 6.35 -7.9 6.25 -7.65 6.15 -7.35 6.1 -7.05 6.05 -6.7 6.0 -6.35 6.0 -5.95 6.05 L-5.95 6.05" fill="#000000" fill-rule="evenodd" stroke="none"/>
    <path d="M31.5 -15.1 Q32.0 -14.55 32.6 -13.8 32.65 -13.75 32.65 -13.75 32.7 -13.7 32.75 -13.65 32.8 -13.6 32.8 -13.6 32.85 -13.55 32.85 -13.5 32.9 -13.5 32.9 -13.45 32.95 -13.4 32.95 -13.35 32.95 -13.3 32.95 -13.25 32.95 -13.2 32.9 -13.15 32.9 -13.1 32.85 -13.05 32.8 -13.0 32.75 -12.95 32.75 -12.95 32.7 -12.95 32.65 -12.9 32.6 -12.9 32.55 -12.9 32.5 -12.9 32.45 -12.9 32.4 -12.9 32.35 -12.9 32.3 -12.9 32.3 -12.9 32.2 -12.9 32.15 -13.0 32.05 -13.1 32.0 -13.2 31.9 -13.3 31.8 -13.35 31.7 -13.45 31.8 -13.4 31.5 -13.6 31.4 -13.7 31.3 -13.75 31.2 -13.85 31.1 -13.9 31.05 -14.0 31.0 -14.15 30.9 -14.25 30.9 -14.4 30.9 -14.45 30.85 -14.5 30.85 -14.55 30.8 -14.6 30.8 -14.6 30.7 -14.7 30.65 -14.75 30.65 -14.75 30.6 -14.8 30.6 -14.85 30.55 -14.9 30.55 -14.95 30.55 -15.0 30.55 -15.05 30.55 -15.15 30.6 -15.2 30.65 -15.25 30.7 -15.3 30.75 -15.35 30.8 -15.35 30.85 -15.35 30.95 -15.35 31.0 -15.35 31.05 -15.3 31.1 -15.3 31.15 -15.25 31.25 -15.2 31.3 -15.2 31.35 -15.15 31.4 -15.15 31.45 -15.1 31.5 -15.1 L31.5 -15.1" fill="#000000" fill-opacity="0.4" fill-rule="evenodd" stroke="none"/>
    <path d="M-23.75 50.85 Q-23.9 50.9 -24.0 50.95 -24.15 51.0 -24.25 51.05 -24.35 51.15 -24.5 51.2 -24.55 51.3 -24.7 51.4 -24.85 51.5 -24.9 51.55 -25.05 51.65 -25.15 51.75 -25.25 51.8 -25.4 51.85 -25.5 51.9 -25.65 51.95 -25.7 51.95 -25.75 51.95 -25.8 51.95 -25.85 51.95 -25.95 51.95 -25.95 51.95 -26.05 51.95 -26.1 51.9 -26.15 51.9 -26.2 51.9 -26.25 51.9 -26.3 51.85 -26.35 51.85 -26.35 51.8 -26.4 51.75 -26.45 51.7 -26.35 51.6 -26.1 51.5 -24.8 50.65 -23.8 50.1 -23.75 50.05 -23.7 50.0 -23.3 49.7 -23.6 49.95 -23.55 49.9 -23.5 49.85 -23.45 49.8 -23.4 49.8 -23.3 49.75 -23.25 49.75 -23.2 49.7 -23.15 49.7 -23.1 49.75 -23.05 49.75 -23.0 49.8 -22.95 49.85 -22.9 49.9 -22.9 50.0 -22.85 50.05 -22.9 50.1 -22.9 50.15 -22.95 50.2 -22.95 50.25 -23.0 50.3 -23.05 50.3 -23.1 50.35 -23.15 50.4 -23.2 50.45 -23.45 50.6 -23.35 50.5 -23.4 50.55 -23.45 50.6 -23.5 50.6 -23.75 50.85 L-23.75 50.85" fill="#000000" fill-opacity="0.4" fill-rule="evenodd" stroke="none"/>
    <path d="M30.85 -11.55 Q31.1 -10.4 31.2 -10.3 31.25 -10.25 31.25 -10.15 31.3 -10.1 31.3 -10.05 31.35 -10.0 31.35 -9.95 31.35 -9.9 31.3 -9.85 31.3 -9.75 31.3 -9.75 31.25 -9.7 31.2 -9.65 31.15 -9.6 31.1 -9.6 31.0 -9.55 30.95 -9.5 31.05 -9.35 30.75 -9.75 30.65 -9.9 30.6 -10.0 30.5 -10.1 30.4 -10.25 30.3 -10.35 30.25 -10.5 30.15 -10.6 30.1 -10.75 30.05 -10.85 30.0 -11.0 29.9 -11.15 29.85 -11.3 29.85 -11.4 29.8 -11.55 29.8 -11.6 29.75 -11.65 29.75 -11.65 29.7 -11.7 29.75 -11.7 29.65 -11.8 29.65 -11.85 29.6 -11.9 29.6 -11.9 29.6 -11.95 29.6 -12.0 29.6 -12.05 29.6 -12.05 29.6 -12.1 29.65 -12.15 29.7 -12.2 29.75 -12.25 29.8 -12.25 29.85 -12.25 29.9 -12.25 29.95 -12.25 30.0 -12.25 30.05 -12.25 30.05 -12.2 30.1 -12.2 30.15 -12.15 30.2 -12.15 30.25 -12.1 30.25 -12.05 30.3 -12.0 30.35 -11.95 30.4 -11.9 30.4 -11.9 30.85 -11.55 L30.85 -11.55" fill="#000000" fill-opacity="0.4" fill-rule="evenodd" stroke="none"/>
    <path d="M33.6 -16.15 Q33.6 -16.1 33.6 -16.05 33.65 -16.0 33.7 -15.9 33.7 -15.9 33.8 -15.8 33.95 -15.65 33.85 -15.7 33.95 -15.65 33.95 -15.65 34.0 -15.6 34.0 -15.55 34.05 -15.45 34.0 -15.4 34.0 -15.35 33.95 -15.3 33.9 -15.25 33.8 -15.2 33.75 -15.15 33.7 -15.15 33.65 -15.1 33.55 -15.15 33.5 -15.15 33.45 -15.15 33.4 -15.2 33.3 -15.25 33.25 -15.25 33.2 -15.3 33.2 -15.3 33.05 -15.4 33.0 -15.45 32.95 -15.45 32.9 -15.5 32.85 -15.5 32.8 -15.55 32.75 -15.6 32.65 -15.6 32.6 -15.65 32.55 -15.7 32.5 -15.7 32.45 -15.7 32.35 -15.75 32.3 -15.75 32.25 -15.75 32.2 -15.8 32.1 -15.8 32.05 -15.8 32.0 -15.8 31.95 -15.9 31.9 -15.95 31.85 -16.05 31.85 -16.1 31.8 -16.2 31.8 -16.25 31.8 -16.3 31.85 -16.35 31.85 -16.35 31.9 -16.4 31.95 -16.4 32.0 -16.45 32.1 -16.45 32.2 -16.45 32.25 -16.45 32.4 -16.4 32.5 -16.4 32.8 -16.4 32.85 -16.35 32.9 -16.3 32.9 -16.25 32.95 -16.25 33.0 -16.2 33.05 -16.2 33.1 -16.2 33.15 -16.2 33.2 -16.2 33.25 -16.2 33.25 -16.2 33.4 -16.15 33.45 -16.15 33.5 -16.15 33.55 -16.15 33.6 -16.15 L33.6 -16.15" fill="#000000" fill-opacity="0.4" fill-rule="evenodd" stroke="none"/>
    <path d="M-23.75 53.15 Q-23.85 53.15 -23.95 53.15 -24.05 53.15 -24.1 53.1 -24.2 53.1 -24.25 53.05 -24.3 53.05 -24.3 53.0 -24.35 52.95 -24.35 52.9 -24.35 52.85 -24.3 52.75 -24.3 52.7 -24.25 52.6 -24.2 52.55 -24.1 52.45 -24.05 52.4 -22.65 51.3 -22.6 51.3 -22.6 51.3 -22.55 51.3 -22.5 51.3 -22.5 51.35 -22.45 51.35 -22.45 51.35 -22.4 51.4 -22.4 51.4 -22.4 51.4 -22.35 51.45 -22.35 51.5 -22.35 51.5 -22.4 51.55 -22.4 51.6 -22.45 51.65 -22.5 51.7 -22.5 51.8 -22.55 51.85 -22.6 51.9 -22.65 52.0 -22.7 52.05 -22.75 52.1 -22.8 52.15 -22.85 52.2 -22.9 52.25 -23.0 52.3 -23.05 52.4 -23.1 52.45 -23.15 52.5 -23.2 52.55 -23.3 52.6 -23.35 52.6 -23.4 52.65 -23.45 52.65 -23.45 52.7 -23.5 52.7 -23.55 52.75 -23.55 52.75 -23.6 52.8 -23.65 52.85 -23.65 52.9 -23.65 52.9 -23.7 52.95 -23.7 53.0 -23.7 53.05 -23.7 53.1 -23.7 53.15 L-23.75 53.15 -23.75 53.15" fill="#000000" fill-opacity="0.4" fill-rule="evenodd" stroke="none"/>
    <path d="M-19.55 55.7 Q-19.5 55.7 -19.45 55.7 -19.4 55.7 -19.35 55.75 -19.35 55.75 -19.3 55.75 -19.25 55.8 -19.25 55.8 -19.2 55.85 -19.2 55.85 -19.2 55.9 -19.2 55.9 -19.15 55.95 -19.2 55.95 -19.2 56.0 -19.2 56.0 -19.25 56.1 -19.3 56.2 -19.35 56.3 -19.4 56.4 -19.3 56.2 -19.45 56.6 -19.5 56.7 -19.55 56.8 -19.6 56.9 -19.65 57.0 -19.7 57.1 -19.75 57.15 -19.8 57.25 -19.9 57.35 -19.95 57.4 -20.05 57.45 -20.1 57.5 -20.15 57.5 -20.15 57.5 -20.2 57.5 -20.25 57.5 -20.25 57.45 -20.3 57.45 -20.3 57.4 -20.35 57.4 -20.35 57.35 -20.4 57.3 -20.4 57.25 -20.4 57.2 -20.4 57.2 -20.4 57.15 -20.4 57.1 -20.35 56.85 -20.35 56.9 -20.3 56.75 -20.3 56.7 -20.25 56.55 -20.2 56.5 -20.15 56.4 -20.1 56.3 -20.05 56.2 -20.0 56.1 -19.95 56.0 -19.9 55.95 -19.8 55.85 -19.75 55.8 -19.65 55.75 -19.55 55.7 L-19.55 55.7" fill="#000000" fill-opacity="0.4" fill-rule="evenodd" stroke="none"/>
    <path d="M35.3 -17.45 Q35.3 -17.4 35.3 -17.2 35.15 -17.15 34.85 -17.05 34.75 -17.05 34.55 -17.05 34.4 -17.15 34.25 -17.3 33.95 -17.55 33.9 -17.55 33.9 -17.55 33.85 -17.6 33.8 -17.6 33.75 -17.65 33.8 -17.6 33.7 -17.65 33.65 -17.65 33.6 -17.7 33.55 -17.7 33.55 -17.75 33.5 -17.75 33.5 -17.8 33.5 -17.85 33.5 -17.9 33.5 -17.95 33.55 -18.0 33.55 -18.05 33.6 -18.1 33.65 -18.15 33.65 -18.15 33.7 -18.2 33.75 -18.2 33.8 -18.25 33.85 -18.25 33.9 -18.25 33.95 -18.25 34.0 -18.25 34.05 -18.25 34.1 -18.2 34.15 -18.2 34.2 -18.2 34.25 -18.15 34.65 -18.0 35.05 -17.85 35.15 -17.75 35.25 -17.65 35.3 -17.5 35.3 -17.45 L35.3 -17.45" fill="#000000" fill-opacity="0.4" fill-rule="evenodd" stroke="none"/>
    <path d="M32.4 15.1 Q32.35 15.15 32.3 15.15 32.25 15.2 32.2 15.2 32.15 15.2 32.1 15.25 32.05 15.25 32.0 15.25 31.95 15.3 31.9 15.3 31.85 15.3 31.8 15.3 31.75 15.3 31.7 15.3 31.6 15.3 31.55 15.25 31.55 15.25 31.5 15.25 31.45 15.2 31.45 15.2 31.4 15.2 31.4 15.2 31.35 15.2 31.3 15.2 31.3 15.15 31.25 15.15 31.25 15.15 31.2 15.15 31.2 15.1 31.15 15.1 31.1 15.1 31.1 15.05 31.05 15.05 31.0 15.0 31.0 15.0 30.9 14.95 30.85 14.95 30.8 14.95 30.75 14.9 30.75 14.9 30.7 14.85 30.65 14.85 30.65 14.8 30.6 14.75 30.6 14.7 30.6 14.65 30.6 14.6 30.65 14.55 30.65 14.5 30.7 14.45 30.7 14.4 30.75 14.4 30.8 14.35 30.85 14.35 30.85 14.35 30.9 14.35 30.95 14.35 31.0 14.35 31.05 14.4 31.1 14.4 31.2 14.45 31.15 14.45 31.2 14.45 31.25 14.45 31.3 14.45 31.4 14.45 31.5 14.5 31.6 14.45 31.75 14.45 31.8 14.45 31.9 14.45 32.0 14.45 32.05 14.5 32.15 14.5 32.2 14.55 32.25 14.6 32.3 14.7 32.35 14.8 32.4 14.9 32.4 15.1 L32.4 15.1" fill="#000000" fill-opacity="0.4" fill-rule="evenodd" stroke="none"/>
    <path d="M-18.15 57.2 Q-18.15 57.15 -18.15 57.15 -18.15 57.1 -18.1 57.05 -18.1 57.0 -18.1 56.95 -18.05 56.95 -18.0 56.9 -18.0 56.85 -17.95 56.8 -17.9 56.75 -17.85 56.7 -17.8 56.65 -17.75 56.65 -17.65 56.6 -17.6 56.6 -17.55 56.6 -17.5 56.6 -17.4 56.6 -17.4 56.6 -17.35 56.65 -17.3 56.65 -17.25 56.7 -17.25 56.75 -17.2 56.8 -17.2 56.85 -17.15 56.9 -17.15 56.95 -17.15 57.0 -17.15 57.05 -17.15 57.1 -17.15 57.15 -17.15 57.2 -17.2 57.3 -17.35 58.25 -17.2 57.45 -17.25 57.55 -17.25 57.6 -17.25 57.7 -17.3 57.75 -17.3 57.8 -17.35 57.9 -17.4 57.95 -17.45 58.0 -17.5 58.05 -17.6 58.05 -17.7 58.1 -17.8 58.1 -17.85 58.1 -17.95 58.1 -18.0 58.1 -18.0 58.05 -18.05 58.0 -18.05 58.0 -18.1 57.95 -18.1 57.85 -18.1 57.8 -18.1 57.75 -18.1 57.7 -18.15 57.6 -18.15 57.35 -18.15 57.4 -18.15 57.3 -18.15 57.2 L-18.15 57.2" fill="#000000" fill-opacity="0.4" fill-rule="evenodd" stroke="none"/>
    <path d="M-28.9 41.55 Q-28.9 41.5 -28.9 41.5 -28.9 41.45 -28.9 41.4 -28.9 41.35 -28.95 41.35 -28.95 41.3 -28.95 41.3 -28.95 41.25 -29.0 41.25 -29.0 41.2 -29.05 41.2 -29.05 41.15 -29.05 41.15 -29.1 41.1 -29.1 41.1 -28.95 41.05 -28.8 40.95 -28.7 40.9 -28.55 40.85 -28.4 40.85 -28.25 40.8 -28.1 40.75 -27.95 40.75 -27.8 40.75 -27.65 40.75 -27.5 40.8 -27.35 40.8 -27.2 40.85 -27.05 40.9 -26.85 40.95 -26.7 41.0 -26.85 41.1 -27.0 41.15 -27.1 41.2 -27.25 41.25 -27.4 41.3 -27.55 41.35 -27.65 41.35 -27.8 41.4 -27.95 41.4 -28.1 41.4 -28.05 41.4 -28.35 41.45 -28.55 41.45 -28.65 41.5 -28.8 41.5 -28.9 41.55 L-28.9 41.55" fill="#000000" fill-opacity="0.4" fill-rule="evenodd" stroke="none"/>
    <path d="M-28.7 37.5 Q-28.7 37.55 -28.7 37.6 -28.75 37.65 -28.75 37.7 -28.75 37.75 -28.8 37.75 -28.8 37.8 -28.85 37.8 -28.9 37.8 -28.9 37.85 -28.95 37.85 -29.0 37.85 -29.05 37.85 -29.05 37.85 -29.1 37.85 -29.15 37.85 -29.15 37.85 -29.3 37.8 -29.35 37.8 -29.4 37.8 -29.5 37.75 -29.55 37.75 -29.65 37.7 -29.7 37.7 -29.75 37.65 -29.8 37.6 -29.85 37.55 -29.9 37.5 -29.95 37.45 -29.95 37.4 -30.0 37.35 -30.0 37.25 -30.0 37.2 -30.0 37.15 -30.0 37.15 -30.0 37.1 -29.95 37.1 -29.95 37.05 -29.9 37.05 -29.9 37.05 -29.85 37.05 -29.8 37.05 -29.8 37.0 -29.75 37.0 -29.7 37.0 -29.7 37.05 -29.65 37.05 -29.65 37.05 -29.6 37.05 -29.5 37.1 -29.55 37.1 -29.35 37.1 -29.3 37.15 -29.25 37.15 -29.15 37.15 -29.1 37.2 -29.05 37.2 -28.95 37.25 -28.9 37.25 -28.85 37.3 -28.8 37.35 -28.75 37.4 -28.7 37.45 -28.7 37.5 L-28.7 37.5" fill="#000000" fill-opacity="0.4" fill-rule="evenodd" stroke="none"/>
    <path d="M-25.9 48.85 Q-25.8 48.8 -25.7 48.8 -25.65 48.75 -25.5 48.7 -25.35 48.65 -25.25 48.6 -25.15 48.55 -25.05 48.55 -24.95 48.5 -24.85 48.5 -24.7 48.45 -24.6 48.45 -24.45 48.5 -24.35 48.5 -24.2 48.55 -24.05 48.6 -24.2 48.7 -24.3 48.75 -24.4 48.8 -24.55 48.85 -24.65 48.9 -24.75 48.95 -24.85 49.0 -25.0 49.0 -25.1 49.05 -25.2 49.05 -25.3 49.05 -25.4 49.0 -25.55 49.0 -25.65 48.95 -25.75 48.9 -25.9 48.85 L-25.9 48.85" fill="#000000" fill-opacity="0.4" fill-rule="evenodd" stroke="none"/>
    <path d="M-30.0 39.9 Q-30.0 39.65 -30.0 39.65 -29.9 39.6 -29.85 39.55 -29.75 39.5 -29.7 39.45 -29.6 39.45 -29.5 39.4 -29.4 39.35 -29.35 39.35 -29.25 39.3 -29.15 39.3 -29.05 39.3 -29.0 39.3 -28.9 39.3 -28.8 39.35 -28.7 39.35 -28.6 39.4 -28.55 39.4 -28.55 39.45 -28.5 39.5 -28.5 39.55 -28.5 39.55 -28.5 39.6 -28.5 39.65 -28.5 39.7 -28.5 39.7 -28.55 39.7 -28.85 39.8 -30.0 39.9 L-30.0 39.9" fill="#000000" fill-opacity="0.4" fill-rule="evenodd" stroke="none"/>
    <path d="M31.55 16.55 Q31.55 16.6 31.6 16.7 31.65 16.75 31.7 16.8 31.7 16.9 31.75 16.95 31.75 17.0 31.75 17.05 31.75 17.1 31.75 17.15 31.75 17.2 31.7 17.25 31.65 17.3 31.55 17.3 31.45 17.35 31.35 17.35 31.15 17.25 31.25 17.3 31.15 17.25 31.1 17.25 31.05 17.2 31.0 17.15 30.95 17.15 30.9 17.1 30.85 17.05 30.8 17.0 30.75 16.95 30.7 16.9 30.7 16.85 30.65 16.75 30.65 16.7 30.65 16.6 30.7 16.55 30.75 16.55 30.8 16.55 30.9 16.5 30.95 16.5 31.0 16.5 31.05 16.5 31.1 16.5 31.15 16.5 31.2 16.5 31.25 16.55 31.35 16.55 31.4 16.55 31.45 16.55 31.5 16.55 31.55 16.55 L31.55 16.55" fill="#000000" fill-opacity="0.4" fill-rule="evenodd" stroke="none"/>
    <path d="M35.25 -17.65 Q35.2 -17.7 35.05 -17.85 35.1 -17.9 35.1 -17.9 35.15 -17.95 35.2 -17.95 35.25 -18.0 35.3 -18.0 35.35 -17.95 35.35 -17.95 35.4 -17.9 35.4 -17.85 35.4 -17.85 35.4 -17.8 35.4 -17.75 35.4 -17.75 35.35 -17.7 35.35 -17.65 35.3 -17.65 35.25 -17.65 L35.25 -17.65" fill="#e3869a" fill-rule="evenodd" stroke="none"/>
    <path d="M-8.2 5.35 Q-8.2 5.35 -8.25 5.3 -8.25 5.3 -8.2 5.35 -8.2 5.35 -8.2 5.35 L-8.2 5.35" fill="#000000" fill-rule="evenodd" stroke="none"/>
    <path d="M19.85 60.85 Q19.9 60.85 19.95 60.85 20.0 60.85 20.05 60.9 20.1 60.9 20.1 60.95 20.15 60.95 20.2 61.0 20.2 61.0 20.25 61.05 20.25 61.1 20.3 61.1 20.3 61.15 20.35 61.2 20.35 61.2 20.4 61.25 20.5 61.4 20.6 61.6 20.7 61.75 20.8 61.9 20.9 62.1 21.0 62.25 21.1 62.45 21.2 62.6 21.3 62.8 21.35 62.95 21.45 63.15 21.5 63.35 21.6 63.5 21.7 63.7 21.75 63.85 21.85 64.05 21.85 64.1 21.9 64.15 21.9 64.1 21.9 64.2 21.95 64.25 21.95 64.3 22.0 64.35 22.0 64.4 22.0 64.45 22.0 64.5 22.0 64.55 22.0 64.6 21.95 64.65 21.9 64.65 21.85 64.7 21.75 64.75 21.7 64.75 21.65 64.75 21.6 64.75 21.55 64.75 21.5 64.75 21.45 64.7 21.4 64.7 21.35 64.65 21.35 64.65 21.3 64.6 21.25 64.55 21.25 64.5 21.2 64.45 21.15 64.4 21.15 64.4 21.1 64.35 21.0 64.1 20.7 63.45 20.45 62.9 20.3 62.6 20.2 62.35 19.95 62.0 19.75 61.55 19.65 61.4 19.6 61.35 19.6 61.3 19.6 61.25 19.6 61.2 19.55 61.2 19.55 61.15 19.55 61.1 19.6 61.05 19.6 61.05 19.6 61.0 19.65 60.95 19.65 60.95 19.7 60.9 19.75 60.9 19.8 60.85 19.85 60.85 L19.85 60.85" fill="#000000" fill-opacity="0.4" fill-rule="evenodd" stroke="none"/>
    <path d="M-5.75 69.05 Q-5.75 69.1 -5.75 69.15 -5.75 69.25 -5.75 69.35 -5.7 69.55 -5.7 69.5 -5.7 69.65 -5.7 69.7 -5.7 69.8 -5.7 69.9 -5.7 70.0 -5.75 70.05 -5.8 70.1 -5.85 70.15 -5.95 70.2 -6.05 70.2 -6.15 70.2 -6.2 70.2 -6.25 70.15 -6.3 70.1 -6.35 70.0 -6.35 69.95 -6.35 69.85 -6.35 69.75 -6.35 69.65 -6.35 69.5 -6.3 69.35 -6.3 69.3 -6.3 69.15 -6.3 69.1 -6.3 68.95 -6.35 68.9 -6.5 68.15 -6.5 68.0 -6.5 67.95 -6.5 67.85 -6.55 67.25 -6.55 67.7 -6.55 67.6 -6.55 67.5 -6.55 67.4 -6.55 67.35 -6.55 67.25 -6.5 67.2 -6.5 67.15 -6.45 67.1 -6.4 67.05 -6.35 67.0 -6.25 66.95 -6.15 66.95 -6.05 66.95 -5.95 66.95 -5.85 67.0 -5.8 67.05 -5.75 67.1 -5.75 67.15 -5.7 67.2 -5.7 67.3 -5.7 67.4 -5.65 67.5 -5.65 67.5 -5.65 67.65 -5.65 67.75 -5.65 67.85 -5.65 67.9 -5.6 68.0 -5.6 68.05 -5.6 68.1 -5.6 68.15 -5.6 68.2 -5.6 68.25 -5.6 68.3 -5.6 68.35 -5.65 68.4 -5.65 68.45 -5.65 68.55 -5.65 68.65 -5.7 68.7 -5.7 68.8 -5.7 68.85 -5.75 68.95 -5.75 69.05 L-5.75 69.05" fill="#000000" fill-opacity="0.4" fill-rule="evenodd" stroke="none"/>
    <path d="M24.3 58.95 Q24.3 58.9 24.3 58.85 24.35 58.8 24.35 58.8 24.35 58.75 24.4 58.7 24.4 58.7 24.45 58.65 24.45 58.65 24.5 58.65 24.5 58.65 24.55 58.65 24.6 58.65 24.6 58.7 25.1 58.95 26.1 59.55 26.1 59.55 26.1 59.6 26.1 59.65 26.05 59.65 26.05 59.7 26.0 59.75 26.0 59.8 25.95 59.85 25.95 59.9 25.9 59.9 25.85 59.95 25.8 59.95 25.75 60.0 25.7 60.0 25.6 60.0 25.55 60.0 25.5 60.0 25.45 60.0 25.4 59.95 25.35 59.95 25.3 59.9 25.25 59.9 25.2 59.85 25.15 59.85 25.15 59.8 25.1 59.75 25.05 59.7 25.0 59.65 24.95 59.6 24.85 59.55 24.85 59.55 24.75 59.5 24.65 59.45 24.6 59.4 24.55 59.4 24.5 59.35 24.45 59.3 24.4 59.25 24.35 59.2 24.35 59.1 24.3 59.05 24.3 58.95 L24.3 58.95" fill="#000000" fill-opacity="0.4" fill-rule="evenodd" stroke="none"/>
    <path d="M19.15 64.95 Q19.15 65.0 19.15 65.05 19.15 65.2 19.15 65.15 19.15 65.2 19.15 65.25 19.15 65.3 19.15 65.35 19.15 65.35 19.1 65.4 19.1 65.45 19.1 65.45 19.05 65.5 19.05 65.5 19.0 65.5 18.95 65.5 18.85 65.45 18.75 65.4 18.65 65.4 18.6 65.3 18.55 65.25 18.5 65.15 18.45 65.1 18.45 65.0 18.4 64.9 18.4 64.8 18.4 64.75 18.4 64.6 18.35 64.5 18.35 64.45 18.35 64.3 18.3 64.25 18.3 64.2 18.3 64.15 18.3 64.1 18.3 64.05 18.3 64.0 18.3 63.95 18.3 63.85 18.3 63.8 18.3 63.75 18.3 63.75 18.35 63.7 18.4 63.65 18.4 63.65 18.45 63.65 18.5 63.65 18.6 63.65 18.7 63.7 18.75 63.75 18.85 63.8 18.9 63.9 18.95 63.95 18.95 64.05 19.0 64.1 19.0 64.2 19.0 64.3 19.05 64.4 19.05 64.55 19.05 64.6 19.05 64.7 19.1 64.8 19.1 64.9 19.15 64.95 L19.15 64.95" fill="#000000" fill-opacity="0.4" fill-rule="evenodd" stroke="none"/>
    <path d="M-3.0 69.9 Q-3.0 69.95 -3.0 70.0 -3.0 70.1 -3.0 70.15 -3.0 70.2 -3.0 70.25 -3.05 70.3 -3.05 70.35 -3.05 70.4 -3.05 70.45 -3.1 70.45 -3.1 70.5 -3.15 70.5 -3.2 70.5 -3.2 70.55 -3.25 70.5 -3.35 70.45 -3.45 70.4 -3.55 70.35 -3.6 70.3 -3.65 70.25 -3.7 70.15 -3.75 70.05 -3.75 69.95 -3.8 69.9 -3.8 69.75 -3.85 69.55 -3.85 69.55 -3.9 69.45 -3.9 69.35 -3.95 69.25 -4.0 69.2 -4.0 69.15 -4.0 69.15 -4.05 69.1 -4.05 69.05 -4.05 69.05 -4.05 69.0 -4.05 68.95 -4.0 68.95 -4.0 68.9 -4.0 68.85 -4.0 68.85 -3.95 68.85 -3.95 68.8 -3.9 68.8 -3.85 68.8 -3.85 68.8 -3.75 68.8 -3.65 68.85 -3.55 68.9 -3.45 68.95 -3.4 69.0 -3.35 69.1 -3.3 69.15 -3.25 69.25 -3.2 69.3 -3.15 69.4 -3.15 69.45 -3.1 69.55 -3.1 69.6 -3.05 69.75 -3.05 69.85 -3.0 69.9 L-3.0 69.9" fill="#000000" fill-opacity="0.4" fill-rule="evenodd" stroke="none"/>
    <path d="M26.65 56.05 Q26.7 56.05 26.8 56.1 26.8 56.1 26.95 56.15 27.0 56.15 27.1 56.2 27.15 56.2 27.25 56.25 27.3 56.3 27.35 56.3 27.45 56.35 27.5 56.4 27.55 56.45 27.6 56.5 27.65 56.6 27.65 56.65 27.65 56.7 27.65 56.75 27.65 56.75 27.65 56.8 27.6 56.85 27.6 56.9 27.55 56.95 27.5 57.0 27.45 57.05 27.4 57.1 27.35 57.1 27.3 57.15 27.25 57.15 27.25 57.15 27.2 57.15 27.15 57.15 27.1 57.1 27.0 57.1 26.95 57.05 26.85 57.0 27.05 57.1 26.7 56.95 26.6 56.9 26.55 56.9 26.5 56.85 26.4 56.8 26.35 56.75 26.3 56.7 26.25 56.65 26.2 56.6 26.15 56.55 26.1 56.45 26.1 56.4 26.1 56.35 26.1 56.3 26.1 56.25 26.15 56.25 26.15 56.2 26.2 56.15 26.25 56.15 26.3 56.15 26.35 56.15 26.35 56.1 26.45 56.1 26.45 56.1 26.55 56.1 26.6 56.1 26.65 56.05 L26.65 56.05" fill="#000000" fill-opacity="0.4" fill-rule="evenodd" stroke="none"/>
    <path d="M24.1 61.35 Q24.1 61.4 24.1 61.45 24.1 61.5 24.1 61.55 24.1 61.55 24.1 61.6 24.1 61.65 24.05 61.7 24.05 61.7 24.05 61.75 24.0 61.75 24.0 61.8 23.95 61.8 23.95 61.8 23.9 61.8 23.9 61.8 23.8 61.75 23.7 61.7 23.6 61.65 23.5 61.6 23.4 61.55 23.35 61.45 23.25 61.4 23.2 61.3 23.1 61.25 23.05 61.15 23.0 61.1 22.9 61.0 22.85 60.9 22.8 60.8 22.75 60.7 22.7 60.65 22.7 60.6 22.65 60.6 22.65 60.55 22.65 60.5 22.65 60.45 22.7 60.45 22.7 60.4 22.7 60.35 22.75 60.35 22.75 60.3 22.75 60.3 22.8 60.3 22.85 60.3 22.85 60.3 22.9 60.3 22.9 60.3 22.95 60.35 23.1 60.4 23.2 60.5 23.25 60.5 23.35 60.55 23.45 60.6 23.55 60.65 23.6 60.75 23.7 60.8 23.8 60.85 23.85 60.95 23.9 61.0 24.0 61.1 24.05 61.15 24.1 61.25 24.1 61.35 L24.1 61.35" fill="#000000" fill-opacity="0.4" fill-rule="evenodd" stroke="none"/>
    <path d="M-9.35 66.65 Q-9.3 66.65 -9.25 66.7 -9.2 66.7 -9.15 66.7 -9.15 66.75 -9.1 66.75 -9.1 66.8 -9.05 66.8 -9.05 66.85 -9.05 66.9 -9.0 66.9 -9.0 66.95 -9.0 67.0 -9.05 67.0 -9.05 67.05 -9.05 67.1 -9.1 67.15 -9.1 67.25 -9.15 67.3 -9.15 67.4 -9.15 67.45 -9.15 67.6 -9.15 67.7 -9.15 67.75 -9.2 67.85 -9.2 67.9 -9.2 68.0 -9.25 68.05 -9.3 68.1 -9.35 68.15 -9.4 68.2 -9.5 68.2 -9.6 68.2 -9.65 68.2 -9.7 68.2 -9.75 68.2 -9.8 68.15 -9.8 68.1 -9.8 68.05 -9.85 68.0 -9.85 67.95 -9.85 67.9 -9.85 67.85 -9.85 67.75 -9.85 67.65 -9.85 67.65 -9.85 67.6 -9.85 67.55 -9.85 67.45 -9.85 67.4 -9.85 67.3 -9.85 67.25 -9.85 67.2 -9.8 67.1 -9.8 67.05 -9.8 67.0 -9.75 66.95 -9.75 66.9 -9.7 66.85 -9.65 66.8 -9.6 66.75 -9.5 66.7 -9.45 66.7 -9.35 66.65 L-9.35 66.65" fill="#000000" fill-opacity="0.4" fill-rule="evenodd" stroke="none"/>
    <path d="M25.9 60.5 Q25.95 60.5 26.0 60.5 26.0 60.5 26.0 60.6 26.0 60.6 25.95 60.6 25.95 60.55 25.95 60.55 25.95 60.55 25.9 60.5 L25.9 60.5" fill="#a02f55" fill-rule="evenodd" stroke="none"/>
  </g>
</svg>
