<?xml version="1.0" encoding="UTF-8" standalone="no"?>
<svg xmlns:xlink="http://www.w3.org/1999/xlink" height="4.3px" width="65.8px" xmlns="http://www.w3.org/2000/svg">
  <g transform="matrix(1.0, 0.0, 0.0, 1.0, 35.55, -2.35)">
    <path d="M39.4 3.05 Q39.4 3.4 39.35 3.75 39.3 4.15 39.15 4.45 39.05 4.8 38.85 5.15 38.7 5.5 38.45 5.8 38.25 6.15 37.95 6.45 37.65 6.75 37.3 7.1 36.95 7.4 36.55 7.7 36.15 8.0 35.7 8.25 35.25 8.55 34.75 8.8 34.25 9.05 33.75 9.3 33.25 9.55 32.7 9.75 32.15 9.95 31.6 10.1 31.05 10.3 30.45 10.4 29.9 10.55 29.3 10.65 28.7 10.8 28.05 10.85 27.4 10.95 26.75 11.0 26.1 11.05 25.5 11.05 24.85 11.05 24.25 11.05 23.65 11.05 23.1 10.95 22.5 10.9 21.95 10.8 21.4 10.75 20.85 10.6 20.3 10.5 19.8 10.3 19.3 10.15 18.8 9.95 18.3 9.8 17.85 9.55 17.4 9.35 17.0 9.1 16.6 8.85 16.25 8.6 15.9 8.35 15.6 8.05 15.35 7.75 15.1 7.5 14.9 7.2 14.7 6.85 14.55 6.55 14.45 6.25 14.3 5.9 14.25 5.55 14.2 5.2 14.2 4.85 14.2 4.5 14.25 4.15 14.3 3.8 14.45 3.45 14.55 3.1 14.7 2.8 14.9 2.45 15.1 2.15 15.35 1.8 15.6 1.5 15.9 1.2 16.25 0.9 16.6 0.6 17.0 0.3 17.4 0.0 17.85 -0.3 18.3 -0.6 18.8 -0.85 19.3 -1.1 19.8 -1.35 20.3 -1.55 20.85 -1.75 21.4 -1.95 21.95 -2.15 22.5 -2.3 23.1 -2.45 23.65 -2.6 24.25 -2.7 24.85 -2.8 25.5 -2.9 26.1 -2.95 26.75 -3.0 27.4 -3.05 28.05 -3.05 28.65 -3.1 29.3 -3.05 29.9 -3.05 30.45 -3.0 31.05 -2.95 31.6 -2.85 32.15 -2.75 32.7 -2.65 33.25 -2.5 33.75 -2.35 34.25 -2.2 34.75 -2.0 35.25 -1.8 35.7 -1.55 36.15 -1.35 36.55 -1.1 36.95 -0.85 37.3 -0.6 37.65 -0.35 37.95 -0.1 38.25 0.2 38.45 0.5 38.7 0.75 38.85 1.1 39.05 1.4 39.15 1.7 39.25 2.0 39.35 2.35 39.4 2.7 39.4 3.05" fill="url(#gradient0)" fill-rule="evenodd" stroke="none"/>
    <path d="M-15.5 3.8 Q-15.5 4.15 -15.55 4.5 -15.65 4.85 -15.8 5.2 -15.95 5.5 -16.15 5.85 -16.35 6.15 -16.65 6.45 -16.95 6.75 -17.3 7.05 -17.7 7.35 -18.15 7.6 -18.55 7.9 -19.1 8.15 -19.6 8.4 -20.2 8.65 -20.75 8.9 -21.4 9.15 -22.0 9.35 -22.6 9.55 -23.25 9.75 -23.9 9.9 -24.6 10.05 -25.3 10.2 -26.0 10.35 -26.7 10.4 -27.45 10.5 -28.2 10.6 -29.0 10.65 -29.75 10.7 -30.55 10.7 -31.4 10.7 -32.2 10.7 -33.0 10.65 -33.8 10.65 -34.55 10.6 -35.3 10.5 -36.0 10.4 -36.75 10.3 -37.45 10.2 -38.15 10.05 -38.8 9.9 -39.45 9.75 -40.1 9.55 -40.75 9.35 -41.35 9.15 -42.0 8.9 -42.55 8.65 -43.15 8.4 -43.65 8.15 -44.15 7.9 -44.55 7.6 -45.0 7.35 -45.35 7.05 -45.7 6.75 -46.0 6.45 -46.3 6.15 -46.5 5.85 -46.7 5.5 -46.85 5.2 -47.0 4.85 -47.1 4.5 -47.15 4.15 -47.15 3.8 -47.15 3.45 -47.1 3.1 -47.0 2.8 -46.85 2.45 -46.7 2.15 -46.5 1.85 -46.3 1.5 -46.0 1.2 -45.7 0.9 -45.35 0.65 -45.0 0.35 -44.55 0.05 -44.15 -0.2 -43.65 -0.5 -43.15 -0.75 -42.55 -1.0 -41.95 -1.25 -41.35 -1.45 -40.75 -1.7 -40.1 -1.9 -39.45 -2.05 -38.8 -2.25 -38.15 -2.4 -37.45 -2.5 -36.75 -2.65 -36.0 -2.75 -35.3 -2.85 -34.55 -2.9 -33.75 -2.95 -33.0 -3.0 -32.2 -3.0 -31.4 -3.0 -30.55 -3.0 -29.8 -2.95 -29.0 -2.95 -28.2 -2.9 -27.45 -2.8 -26.7 -2.75 -26.0 -2.65 -25.3 -2.5 -24.6 -2.4 -23.9 -2.25 -23.25 -2.05 -22.6 -1.9 -21.95 -1.7 -21.35 -1.45 -20.75 -1.25 -20.2 -1.0 -19.6 -0.75 -19.1 -0.5 -18.6 -0.2 -18.15 0.05 -17.7 0.35 -17.35 0.65 -16.95 0.9 -16.65 1.2 -16.35 1.5 -16.15 1.85 -15.95 2.15 -15.8 2.45 -15.65 2.8 -15.55 3.15 -15.5 3.45 -15.5 3.8" fill="url(#gradient1)" fill-rule="evenodd" stroke="none"/>
    <path d="M-30.55 1.1 L-30.4 1.2 -30.2 1.35 Q-30.2 1.55 -30.2 1.7 -30.25 1.85 -30.25 2.05 -30.3 2.2 -30.35 2.4 -30.35 2.55 -30.4 2.75 -30.45 2.9 -30.55 3.05 -30.6 3.25 -30.65 3.4 -30.75 3.55 -30.85 3.75 -30.95 3.9 -31.05 4.05 -31.15 4.2 -31.2 4.3 -31.3 4.45 -31.35 4.55 -31.45 4.65 -31.55 4.75 -31.6 4.85 -31.7 4.95 -31.8 5.05 -31.9 5.1 -32.0 5.2 -32.1 5.25 -32.2 5.35 -32.3 5.4 -32.35 5.45 -32.5 5.5 -32.55 5.35 -32.55 5.2 -32.6 5.05 -32.6 4.9 -32.6 4.75 -32.6 4.6 -32.55 4.45 -32.5 4.3 -32.5 4.15 -32.45 4.0 -32.35 3.85 -32.3 3.7 -32.2 3.55 -32.1 3.4 -32.0 3.3 -31.9 3.15 -31.8 3.05 -31.75 2.95 -31.65 2.85 -31.6 2.75 -31.5 2.6 -31.45 2.5 -31.35 2.4 -31.3 2.3 -31.25 2.2 -31.2 2.05 -31.15 1.95 -31.1 1.85 -31.05 1.7 -31.05 1.6 -31.0 1.45 -30.95 1.35 L-30.85 1.25 -30.55 1.15 -30.55 1.1 M-33.5 1.0 L-33.3 1.1 -33.15 1.25 Q-33.15 1.4 -33.2 1.6 -33.2 1.75 -33.2 1.9 -33.25 2.1 -33.3 2.25 -33.3 2.4 -33.35 2.6 -33.4 2.75 -33.45 2.9 -33.5 3.1 -33.55 3.25 -33.65 3.4 -33.7 3.55 -33.8 3.75 -33.85 3.9 -33.9 4.05 -34.0 4.15 -34.05 4.3 -34.15 4.4 -34.2 4.55 -34.3 4.65 -34.4 4.75 -34.45 4.85 -34.55 4.95 -34.65 5.0 -34.75 5.1 -34.85 5.15 -34.95 5.25 -35.05 5.3 -35.15 5.35 -35.25 5.4 -35.3 5.25 -35.3 5.1 -35.3 5.0 -35.3 4.85 -35.3 4.7 -35.3 4.55 -35.3 4.4 -35.25 4.25 -35.2 4.1 -35.15 4.0 -35.1 3.85 -35.05 3.7 -34.95 3.55 -34.9 3.4 -34.8 3.25 -34.7 3.1 -34.65 3.0 -34.55 2.9 -34.5 2.8 -34.4 2.65 -34.35 2.55 -34.3 2.45 -34.25 2.35 -34.2 2.2 -34.15 2.1 -34.1 2.0 -34.05 1.85 -34.0 1.75 -33.95 1.6 -33.9 1.5 -33.9 1.35 -33.85 1.25 L-33.8 1.15 -33.5 1.05 -33.5 1.0 M-27.65 1.45 L-27.5 1.55 -27.3 1.7 Q-27.3 1.9 -27.3 2.05 -27.3 2.25 -27.35 2.45 -27.35 2.6 -27.4 2.8 -27.4 2.95 -27.45 3.15 -27.5 3.3 -27.55 3.5 -27.6 3.65 -27.7 3.85 -27.75 4.0 -27.8 4.15 -27.9 4.35 -28.0 4.5 L-29.05 6.4 Q-29.15 6.25 -29.2 6.1 -29.3 5.95 -29.35 5.8 -29.35 5.65 -29.4 5.5 -29.4 5.3 -29.4 5.15 -29.35 5.0 -29.3 4.8 -29.25 4.65 -29.2 4.45 -29.15 4.3 -29.05 4.1 -28.95 3.95 -28.8 3.75 -28.7 3.65 -28.65 3.5 -28.6 3.4 -28.5 3.3 -28.45 3.15 -28.4 3.05 -28.35 2.9 -28.3 2.8 -28.25 2.65 -28.2 2.55 -28.15 2.4 -28.15 2.25 -28.1 2.15 -28.1 2.0 -28.05 1.85 -28.05 1.75 L-28.0 1.65 -27.8 1.5 -27.65 1.45" fill="#bd4040" fill-opacity="0.4392157" fill-rule="evenodd" stroke="none"/>
    <path d="M25.7 1.55 L25.7 1.6 26.1 1.7 26.25 1.75 Q26.3 1.9 26.35 2.0 26.4 2.15 26.45 2.25 26.5 2.4 26.6 2.5 26.65 2.6 26.75 2.75 26.8 2.85 26.9 2.95 27.0 3.05 27.1 3.2 27.2 3.3 27.3 3.4 27.4 3.5 27.55 3.6 27.7 3.75 27.85 3.9 28.0 4.05 28.1 4.2 28.2 4.35 28.3 4.5 28.4 4.65 28.45 4.8 28.5 4.95 28.5 5.1 28.55 5.25 28.55 5.4 28.5 5.55 28.5 5.7 28.45 5.85 28.4 6.0 28.25 5.95 28.1 5.9 28.0 5.85 27.85 5.75 27.7 5.7 27.6 5.6 27.45 5.55 27.3 5.45 27.2 5.35 27.05 5.25 26.95 5.15 26.85 5.05 26.7 4.9 26.6 4.8 26.5 4.65 26.35 4.55 26.2 4.4 26.1 4.2 25.95 4.05 25.85 3.85 25.75 3.7 25.65 3.55 25.55 3.35 25.5 3.2 25.4 3.0 25.35 2.85 25.3 2.65 25.3 2.5 25.25 2.3 25.2 2.15 25.2 1.95 25.2 1.75 L25.45 1.6 25.7 1.55 M21.7 1.9 L21.85 1.95 22.1 2.1 22.2 2.15 Q22.2 2.3 22.25 2.45 22.3 2.55 22.3 2.7 22.35 2.85 22.4 3.0 22.45 3.1 22.55 3.25 22.6 3.35 22.7 3.5 22.75 3.6 22.85 3.75 22.95 3.85 23.05 4.0 23.15 4.1 23.25 4.2 23.45 4.4 23.55 4.6 23.7 4.75 23.8 4.95 23.9 5.15 23.95 5.3 24.0 5.5 24.05 5.65 24.05 5.8 24.05 6.0 24.05 6.15 24.0 6.3 23.9 6.45 23.85 6.6 23.75 6.75 23.6 6.9 L22.1 5.0 Q22.0 4.85 21.85 4.65 21.75 4.5 21.65 4.3 21.6 4.15 21.5 3.95 21.45 3.8 21.35 3.6 21.3 3.4 21.25 3.25 21.25 3.05 21.2 2.85 21.2 2.7 21.2 2.5 21.15 2.3 21.2 2.1 L21.4 1.95 21.7 1.9 M29.8 1.4 L29.8 1.45 30.2 1.6 30.3 1.65 Q30.35 1.8 30.4 1.9 30.45 2.05 30.5 2.15 30.55 2.3 30.65 2.4 30.7 2.55 30.8 2.65 30.85 2.8 30.95 2.9 31.0 3.0 31.1 3.1 31.2 3.25 31.3 3.35 31.4 3.45 31.5 3.55 31.65 3.7 31.75 3.85 31.9 4.0 31.95 4.15 32.05 4.3 32.15 4.45 32.2 4.6 32.25 4.75 32.3 4.9 32.35 5.05 32.35 5.2 32.35 5.35 32.35 5.45 32.35 5.6 32.3 5.75 32.25 5.9 32.1 5.85 31.95 5.8 31.8 5.75 31.7 5.65 31.55 5.6 31.4 5.5 31.3 5.45 31.15 5.35 31.05 5.25 30.95 5.15 30.8 5.05 30.7 4.9 30.6 4.8 30.5 4.65 30.4 4.5 30.3 4.4 30.2 4.25 30.1 4.05 30.0 3.9 29.9 3.7 29.8 3.55 29.75 3.4 29.65 3.2 29.6 3.05 29.55 2.85 29.5 2.7 29.45 2.5 29.4 2.35 29.4 2.2 29.35 2.0 29.35 1.85 29.3 1.65 L29.55 1.5 29.8 1.4" fill="#bd4040" fill-opacity="0.4392157" fill-rule="evenodd" stroke="none"/>
  </g>
  <defs>
    <radialGradient cx="0" cy="0" gradientTransform="matrix(0.0155, -9.0E-4, 0.0, -0.0086, 26.65, 4.15)" gradientUnits="userSpaceOnUse" id="gradient0" r="819.2" spreadMethod="pad">
      <stop offset="0.39215686274509803" stop-color="#ff5b6d" stop-opacity="0.5686275"/>
      <stop offset="1.0" stop-color="#ff627c" stop-opacity="0.0"/>
    </radialGradient>
    <radialGradient cx="0" cy="0" gradientTransform="matrix(0.0195, 0.0, 0.0, -0.0082, -31.3, 3.5)" gradientUnits="userSpaceOnUse" id="gradient1" r="819.2" spreadMethod="pad">
      <stop offset="0.39215686274509803" stop-color="#ff5b6d" stop-opacity="0.5686275"/>
      <stop offset="1.0" stop-color="#ff627c" stop-opacity="0.0"/>
    </radialGradient>
  </defs>
</svg>
