<?xml version="1.0" encoding="UTF-8" standalone="no"?>
<svg xmlns:xlink="http://www.w3.org/1999/xlink" height="9.7px" width="19.15px" xmlns="http://www.w3.org/2000/svg">
  <g transform="matrix(1.0, 0.0, 0.0, 1.0, 9.55, 4.85)">
    <path d="M9.45 0.75 Q9.4 0.8 9.35 0.85 9.3 0.9 9.25 0.95 9.25 0.95 9.2 1.0 9.15 1.0 9.1 1.0 9.05 1.05 9.0 1.05 8.95 1.05 8.9 1.05 8.85 1.0 8.8 1.0 8.75 1.0 8.65 0.95 8.55 0.9 8.5 0.85 8.4 0.8 8.3 0.75 8.25 0.75 8.15 0.7 8.05 0.65 7.95 0.65 7.9 0.6 7.8 0.6 7.7 0.6 7.6 0.55 7.5 0.55 7.4 0.55 7.35 0.5 7.25 0.5 6.25 0.4 5.7 0.35 5.6 0.35 5.5 0.35 5.4 0.35 5.3 0.35 5.2 0.35 5.1 0.4 5.05 0.4 4.95 0.4 4.85 0.45 4.75 0.45 4.65 0.45 4.55 0.5 4.45 0.5 4.35 0.5 4.25 0.55 4.15 0.55 1.85 1.05 1.15 1.25 0.05 1.55 -2.15 2.4 -4.25 3.25 -4.4 3.35 -4.6 3.4 -4.8 3.45 -5.05 3.5 -5.25 3.55 -5.45 3.65 -5.65 3.65 -5.85 3.7 -6.05 3.75 -6.25 3.8 -6.45 3.85 -6.7 3.85 -6.9 3.9 -7.1 3.9 -7.3 3.9 -7.55 3.95 -7.75 3.95 -8.75 3.9 -9.0 3.8 -9.05 3.8 -9.1 3.75 -9.15 3.75 -9.2 3.7 -9.25 3.7 -9.3 3.65 -9.35 3.6 -9.4 3.6 -9.45 3.55 -9.45 3.5 -9.5 3.45 -9.5 3.4 -9.55 3.35 -9.6 3.3 -9.6 3.2 -9.6 3.15 -9.6 3.05 -9.65 3.0 -9.65 2.9 -9.65 2.85 -9.6 2.75 -9.6 2.7 -9.6 2.65 -9.55 2.55 -9.5 2.5 -9.5 2.45 -9.45 2.35 -9.4 2.3 -9.35 2.25 -9.3 2.2 -9.2 2.15 -9.15 2.1 -9.1 2.1 -9.05 2.05 -9.05 2.05 -9.0 2.05 -8.95 2.0 -8.9 2.0 -8.85 2.0 -8.8 2.0 -8.75 1.95 -8.75 1.95 -8.7 1.95 -8.65 1.95 -8.6 1.95 -8.55 1.95 -8.5 1.95 -8.45 1.95 -8.35 1.95 -8.3 1.95 -8.2 1.95 -8.15 1.95 -8.05 1.95 -8.0 1.95 -7.9 1.95 -7.8 1.95 -7.75 2.0 -7.65 2.0 -7.6 2.0 -7.5 2.0 -7.45 2.0 -7.35 2.05 -7.3 2.05 -7.2 2.05 -7.15 2.05 -6.95 2.05 -6.9 2.05 -6.85 2.1 -6.8 2.1 -6.75 2.1 -6.7 2.1 -6.65 2.1 -6.6 2.1 -6.55 2.1 -6.5 2.1 -6.45 2.1 -6.4 2.1 -6.35 2.1 -6.3 2.1 -6.25 2.1 -6.2 2.1 -6.15 2.1 -5.5 2.0 -3.8 1.55 -3.35 1.45 -2.6 1.1 -1.7 0.75 -1.35 0.65 -1.2 0.6 -0.2 0.25 0.5 0.0 0.95 -0.1 1.7 -0.35 3.9 -0.8 4.05 -0.85 4.15 -0.85 4.25 -0.85 4.4 -0.9 4.5 -0.9 4.6 -0.95 4.75 -0.95 4.85 -0.95 5.0 -1.0 5.1 -1.0 5.25 -1.0 5.35 -1.0 5.45 -1.0 5.6 -1.0 5.7 -1.0 5.85 -1.0 6.5 -1.0 7.6 -0.85 7.7 -0.85 7.8 -0.8 7.9 -0.8 8.0 -0.75 8.1 -0.75 8.2 -0.7 8.3 -0.7 8.4 -0.65 8.5 -0.6 8.6 -0.6 8.7 -0.55 8.8 -0.5 8.9 -0.45 9.0 -0.4 9.1 -0.35 9.2 -0.3 9.25 -0.25 9.3 -0.25 9.35 -0.2 9.35 -0.15 9.4 -0.1 9.45 -0.1 9.45 -0.05 9.5 0.0 9.5 0.05 9.5 0.1 9.55 0.15 9.55 0.25 9.55 0.3 9.55 0.35 9.55 0.4 9.55 0.45 9.55 0.5 9.5 0.6 9.45 0.7 9.45 0.75 L9.45 0.75" fill="#000000" fill-rule="evenodd" stroke="none"/>
    <path d="M9.45 0.75 Q9.55 0.45 9.55 0.45 9.55 0.4 9.55 0.35 9.55 0.3 9.55 0.2 9.55 0.15 9.5 0.1 9.5 0.05 9.5 0.0 9.45 -0.05 9.4 -0.1 9.4 -0.1 9.35 -0.15 9.3 -0.2 9.25 -0.25 9.25 -0.25 9.2 -0.3 9.1 -0.35 9.0 -0.4 8.9 -0.45 8.8 -0.5 8.7 -0.55 8.6 -0.6 8.5 -0.6 8.4 -0.65 8.3 -0.7 8.2 -0.7 8.1 -0.75 8.0 -0.75 7.9 -0.8 7.8 -0.8 7.7 -0.8 7.6 -0.85 6.2 -1.0 5.85 -1.0 5.75 -1.0 5.6 -1.0 5.5 -1.0 5.35 -1.0 5.25 -1.0 5.1 -1.0 5.0 -1.0 4.85 -0.95 4.75 -0.95 4.6 -0.95 4.5 -0.9 4.35 -0.9 4.25 -0.85 4.1 -0.85 4.0 -0.8 3.9 -0.8 1.45 -0.25 0.95 -0.1 0.9 -0.1 -1.35 0.65 -1.7 0.75 -2.6 1.1 -3.35 1.45 -3.8 1.55 -5.4 2.0 -6.15 2.1 -6.2 2.1 -6.25 2.1 -6.3 2.1 -6.35 2.1 -6.4 2.1 -6.45 2.1 -6.5 2.1 -6.55 2.1 -6.6 2.1 -6.65 2.1 -6.7 2.1 -6.75 2.1 -6.8 2.1 -6.85 2.1 -6.9 2.1 -6.95 2.05 -6.95 2.05 -6.85 2.0 -6.75 1.95 -6.65 1.95 -6.6 1.9 -6.5 1.9 -6.4 1.85 -6.3 1.8 -6.2 1.8 -6.15 1.75 -6.05 1.7 -5.95 1.7 -5.85 1.65 -5.75 1.6 -5.7 1.6 -5.6 1.55 -5.5 1.5 -5.4 1.45 -4.85 1.2 -3.85 0.5 -1.85 -0.85 -0.8 -1.4 -0.6 -1.5 -0.35 -1.65 -0.15 -1.75 0.05 -1.85 0.3 -1.95 0.5 -2.05 0.75 -2.15 0.95 -2.25 1.2 -2.35 1.4 -2.4 1.65 -2.5 1.85 -2.6 2.1 -2.65 2.3 -2.75 2.55 -2.8 2.75 -2.85 2.85 -2.9 3.0 -2.9 3.1 -2.95 3.25 -3.0 3.35 -3.0 3.45 -3.05 3.6 -3.05 3.7 -3.05 3.85 -3.1 3.95 -3.1 4.1 -3.1 4.2 -3.15 4.3 -3.15 4.45 -3.15 4.55 -3.15 4.7 -3.15 4.8 -3.15 4.9 -3.15 5.0 -3.15 5.1 -3.1 5.2 -3.1 5.25 -3.1 5.35 -3.1 5.45 -3.05 5.55 -3.05 5.65 -3.0 5.75 -3.0 5.85 -2.95 5.95 -2.95 6.05 -2.9 6.15 -2.85 6.25 -2.85 6.35 -2.8 6.5 -2.75 6.6 -2.7 6.7 -2.65 6.85 -2.6 6.95 -2.55 7.05 -2.5 7.15 -2.45 7.3 -2.4 7.4 -2.35 7.5 -2.3 7.6 -2.25 7.75 -2.2 7.85 -2.1 7.95 -2.05 8.05 -2.0 8.15 -1.95 8.25 -1.9 8.35 -1.85 8.4 -1.75 8.5 -1.7 8.6 -1.65 8.7 -1.55 8.75 -1.5 8.85 -1.4 8.9 -1.35 9.0 -1.25 9.05 -1.15 9.15 -1.1 9.2 -1.0 9.3 -0.9 9.35 -0.8 9.4 -0.75 9.4 -0.7 9.45 -0.65 9.5 -0.6 9.5 -0.55 9.55 -0.45 9.55 -0.4 9.55 -0.35 9.6 -0.3 9.6 -0.2 9.65 -0.15 9.65 -0.1 9.65 -0.05 9.65 0.05 9.7 0.1 9.7 0.15 9.7 0.2 9.7 0.2 9.7 0.25 9.7 0.3 9.7 0.3 9.7 0.35 9.7 0.4 9.65 0.4 9.65 0.45 9.65 0.45 9.65 0.5 9.65 0.55 9.6 0.55 9.6 0.6 9.6 0.6 9.55 0.65 9.55 0.75 9.45 0.75 L9.45 0.75" fill="#000000" fill-opacity="0.1882353" fill-rule="evenodd" stroke="none"/>
  </g>
</svg>
