<?xml version="1.0" encoding="UTF-8" standalone="no"?>
<svg xmlns:xlink="http://www.w3.org/1999/xlink" height="10.15px" width="9.25px" xmlns="http://www.w3.org/2000/svg">
  <g transform="matrix(1.0, 0.0, 0.0, 1.0, 4.6, 5.1)">
    <path d="M4.85 2.55 Q4.95 2.2 5.0 2.1 5.0 2.05 5.0 2.05 5.05 2.0 5.05 2.0 5.05 1.95 5.1 1.9 5.1 1.9 5.15 1.85 5.15 1.85 5.15 1.85 5.2 1.8 5.25 1.8 5.25 1.75 5.3 1.75 5.3 1.75 5.35 1.7 5.35 1.7 6.4 1.1 6.45 1.1 6.55 1.05 6.65 1.0 6.75 1.0 6.8 1.0 6.85 1.0 6.9 1.0 6.95 1.05 6.95 1.05 7.0 1.1 7.0 1.15 7.05 1.2 7.05 1.25 7.05 1.3 7.05 1.35 7.05 1.4 7.0 1.45 6.95 1.45 6.95 1.5 6.9 1.55 6.85 1.55 6.8 1.6 6.75 1.6 6.7 1.6 6.65 1.6 6.65 1.6 6.6 1.6 6.55 1.6 6.5 1.65 6.45 1.65 6.4 1.65 6.35 1.7 6.3 1.7 6.3 1.7 6.25 1.75 6.2 1.75 6.15 1.8 6.1 1.8 6.05 1.85 6.05 1.85 6.0 1.9 5.95 1.9 5.9 1.95 5.9 1.95 5.85 2.0 5.8 2.0 5.75 2.05 5.75 2.05 5.7 2.1 5.65 2.1 5.6 2.15 5.55 2.15 5.55 2.2 5.5 2.25 5.5 2.25 5.45 2.3 5.45 2.35 5.45 2.4 5.4 2.45 5.4 2.5 5.35 2.75 5.35 2.8 5.3 2.85 5.3 2.9 5.25 3.0 5.2 3.0 5.2 3.05 5.15 3.1 5.1 3.1 5.05 3.15 5.0 3.15 4.95 3.15 4.9 3.15 4.85 3.15 4.8 3.15 4.7 3.15 4.65 3.1 4.6 3.05 4.5 3.0 4.3 2.85 4.0 2.65 3.95 2.65 3.9 2.65 3.9 2.6 3.85 2.6 3.85 2.55 3.8 2.55 3.75 2.55 3.75 2.55 3.7 2.5 3.65 2.5 3.65 2.5 3.6 2.5 3.55 2.5 3.5 2.5 3.5 2.5 3.45 2.5 3.4 2.5 3.3 2.5 3.2 2.5 3.1 2.5 2.95 2.5 2.85 2.5 2.75 2.5 2.65 2.5 2.55 2.5 2.45 2.5 2.3 2.45 2.15 2.45 2.1 2.45 2.0 2.45 1.9 2.45 1.75 2.4 1.65 2.4 1.5 2.4 1.35 2.4 1.15 2.4 1.0 2.35 0.85 2.35 0.7 2.3 0.55 2.3 0.4 2.25 0.25 2.25 0.1 2.2 -0.05 2.15 -0.25 2.1 -0.4 2.1 -0.55 2.05 -0.7 2.0 -0.85 1.9 -0.95 1.85 -1.05 1.85 -1.15 1.8 -1.25 1.8 -1.3 1.75 -1.4 1.75 -1.5 1.75 -1.6 1.7 -1.7 1.7 -1.8 1.7 -1.9 1.7 -2.0 1.65 -2.1 1.65 -2.2 1.65 -2.3 1.65 -2.4 1.65 -2.65 1.65 -2.85 1.65 -3.1 1.6 -3.35 1.6 -3.6 1.55 -3.8 1.55 -4.05 1.5 -4.25 1.45 -4.5 1.45 -4.7 1.4 -4.95 1.35 -5.15 1.25 -5.4 1.2 -5.6 1.15 -5.85 1.05 -6.05 1.0 -6.2 0.95 -6.3 0.9 -6.4 0.85 -6.55 0.8 -6.65 0.7 -6.75 0.65 -6.9 0.6 -7.0 0.55 -7.1 0.45 -7.2 0.4 -7.35 0.35 -7.45 0.25 -7.55 0.2 -7.65 0.1 -7.75 0.0 -7.85 -0.05 -7.9 -0.1 -7.9 -0.1 -7.95 -0.15 -7.95 -0.2 -8.0 -0.2 -8.05 -0.25 -8.05 -0.3 -8.1 -0.3 -8.1 -0.35 -8.15 -0.4 -8.15 -0.45 -8.15 -0.5 -8.2 -0.5 -8.2 -0.55 -8.25 -0.6 -8.25 -0.65 -8.25 -0.7 -8.25 -0.75 -8.3 -0.8 -8.3 -0.85 -8.3 -0.9 -8.25 -0.95 -8.25 -1.0 -8.25 -1.05 -8.2 -1.1 -8.2 -1.15 -8.15 -1.2 -8.1 -1.2 -8.05 -1.25 -8.05 -1.3 -8.0 -1.3 -7.9 -1.35 -7.85 -1.35 -7.8 -1.4 -7.75 -1.4 -7.65 -1.4 -7.6 -1.45 -7.55 -1.45 -7.5 -1.45 -7.45 -1.45 -7.4 -1.45 -7.3 -1.45 -7.25 -1.45 -7.2 -1.45 -7.15 -1.45 -7.05 -1.45 -7.0 -1.4 -6.95 -1.4 -6.8 -1.4 -6.7 -1.35 -6.55 -1.35 -6.4 -1.3 -6.3 -1.25 -6.15 -1.2 -6.05 -1.2 -5.9 -1.15 -5.75 -1.1 -5.65 -1.05 -5.5 -1.0 -5.4 -0.95 -5.25 -0.9 -5.15 -0.85 -5.0 -0.8 -4.9 -0.75 -4.4 -0.55 -3.35 -0.05 -2.35 0.4 -1.75 0.65 -1.6 0.7 -1.45 0.8 -1.3 0.85 -1.15 0.9 -1.0 0.95 -0.85 1.05 -0.65 1.1 -0.5 1.15 -0.35 1.25 -0.2 1.3 -0.05 1.35 0.1 1.4 0.25 1.45 0.45 1.55 0.6 1.6 0.75 1.65 0.85 1.7 1.0 1.75 1.1 1.75 1.25 1.8 1.4 1.85 1.5 1.85 1.65 1.85 1.75 1.9 1.9 1.9 2.05 1.9 2.15 1.9 2.3 1.9 2.4 1.9 2.55 1.9 2.65 1.9 2.8 1.9 3.4 1.9 3.6 1.95 3.65 1.95 3.75 1.95 3.8 2.0 3.9 2.0 3.95 2.05 4.05 2.05 4.1 2.1 4.15 2.15 4.25 2.15 4.3 2.2 4.35 2.25 4.4 2.3 4.5 2.35 4.55 2.4 4.6 2.4 4.65 2.45 4.7 2.5 4.75 2.5 4.8 2.55 4.8 2.55 4.8 2.55 4.85 2.55 L4.85 2.55 M-2.0 1.15 Q-2.05 1.1 -2.05 1.1 -2.25 1.0 -3.3 0.55 -4.05 0.2 -4.5 0.0 -4.65 -0.05 -4.75 -0.1 -4.9 -0.2 -5.05 -0.25 -5.15 -0.3 -5.3 -0.35 -5.45 -0.4 -5.55 -0.45 -5.7 -0.5 -5.85 -0.55 -6.0 -0.6 -6.1 -0.65 -6.25 -0.7 -6.4 -0.75 -6.55 -0.8 -6.65 -0.8 -6.7 -0.8 -6.75 -0.85 -6.85 -0.85 -6.9 -0.85 -6.95 -0.9 -7.0 -0.9 -7.1 -0.9 -7.15 -0.9 -7.2 -0.9 -7.25 -0.9 -7.3 -0.9 -7.4 -0.9 -7.45 -0.9 -7.5 -0.9 -7.55 -0.9 -7.6 -0.9 -7.65 -0.9 -7.7 -0.85 -7.75 -0.85 -7.75 -0.85 -7.75 -0.8 -7.75 -0.8 -7.75 -0.75 -7.7 -0.7 -7.4 -0.4 -7.25 -0.25 -7.15 -0.15 -7.0 -0.1 -6.9 0.0 -6.8 0.05 -6.65 0.1 -6.55 0.2 -6.45 0.25 -6.3 0.3 -6.2 0.35 -6.05 0.4 -5.9 0.45 -5.8 0.5 -5.65 0.55 -5.55 0.6 -5.4 0.65 -5.25 0.7 -5.05 0.75 -4.85 0.8 -4.65 0.85 -4.45 0.9 -4.25 0.95 -4.05 0.95 -3.85 1.0 -3.65 1.0 -3.45 1.05 -3.25 1.05 -3.05 1.1 -2.8 1.1 -2.65 1.1 -2.4 1.1 -2.2 1.15 -2.0 1.15 L-2.0 1.15" fill="#000000" fill-rule="evenodd" stroke="none"/>
  </g>
</svg>
