<?xml version="1.0" encoding="UTF-8" standalone="no"?>
<svg xmlns:xlink="http://www.w3.org/1999/xlink" height="14.6px" width="16.95px" xmlns="http://www.w3.org/2000/svg">
  <g transform="matrix(1.0, 0.0, 0.0, 1.0, 8.45, 7.3)">
    <path d="M-8.85 5.15 Q-8.9 4.8 -8.95 4.7 -9.0 4.6 -9.0 4.5 -9.05 4.4 -9.05 4.3 -9.05 4.2 -9.1 4.1 -9.1 4.0 -9.1 3.85 -9.1 3.75 -9.05 3.65 -9.05 3.55 -9.05 3.45 -9.0 3.35 -9.0 3.25 -8.95 3.15 -8.95 3.05 -8.9 2.9 -8.85 2.75 -8.8 2.55 -8.75 2.4 -8.7 2.25 -8.65 2.1 -8.55 1.95 -8.5 1.8 -8.45 1.65 -8.4 1.5 -8.3 1.35 -8.25 1.2 -8.15 1.05 -8.1 0.9 -8.0 0.75 -7.9 0.6 -7.85 0.5 -7.55 0.1 -7.5 0.05 -7.45 0.0 -7.35 -0.1 -7.35 -0.1 -7.3 -0.15 -7.25 -0.2 -7.2 -0.25 -7.2 -0.3 -7.15 -0.3 -7.1 -0.35 -7.05 -0.4 -7.0 -0.45 -6.95 -0.45 -6.9 -0.5 -6.85 -0.55 -6.8 -0.55 -6.75 -0.6 -6.65 -0.6 -6.6 -0.6 -6.55 -0.6 -6.3 -0.7 -5.85 -0.75 -3.7 -1.1 -3.25 -1.2 -0.8 -1.55 -0.4 -1.6 1.95 -1.8 3.55 -1.85 5.9 -1.8 6.3 -1.8 7.45 -1.7 7.8 -1.7 7.9 -1.7 8.0 -1.7 8.05 -1.7 8.15 -1.75 8.25 -1.75 8.35 -1.75 8.4 -1.8 8.5 -1.8 8.6 -1.85 8.65 -1.85 8.75 -1.9 8.8 -1.95 8.9 -1.95 9.0 -2.0 9.05 -2.05 9.15 -2.1 9.2 -2.15 9.2 -2.15 9.25 -2.15 9.3 -2.2 9.35 -2.2 9.35 -2.25 9.4 -2.25 9.45 -2.25 9.5 -2.3 9.5 -2.3 9.55 -2.3 9.6 -2.3 9.65 -2.3 9.7 -2.3 9.75 -2.3 9.8 -2.3 9.8 -2.25 9.85 -2.25 9.85 -2.25 9.9 -2.2 9.95 -2.15 9.95 -2.15 10.0 -2.1 10.0 -2.1 10.05 -2.05 10.05 -2.0 10.1 -1.95 10.1 -1.9 10.1 -1.85 10.1 -1.75 10.1 -1.7 10.05 -1.65 10.05 -1.6 10.05 -1.55 10.0 -1.5 9.95 -1.45 9.95 -1.4 9.9 -1.35 9.85 -1.3 9.8 -1.3 9.75 -1.25 9.7 -1.25 9.7 -1.2 9.65 -1.2 9.6 -1.2 9.55 -1.15 9.55 -1.15 9.5 -1.1 9.45 -1.1 9.4 -1.05 9.35 -1.05 9.35 -1.05 9.3 -1.0 9.25 -1.0 9.2 -1.0 9.15 -0.95 9.1 -0.95 9.05 -0.85 8.95 -0.35 8.4 1.35 8.35 1.45 8.35 1.6 8.3 1.7 8.3 1.85 8.25 1.95 8.25 2.05 8.2 2.2 8.2 2.3 8.15 2.45 8.15 2.55 8.1 2.65 8.1 2.8 8.1 2.9 8.1 3.05 8.05 3.15 8.05 3.25 8.05 3.35 8.0 3.45 8.0 3.6 7.95 3.7 7.95 3.8 7.9 3.9 7.85 3.95 7.8 4.05 7.75 4.15 7.7 4.25 7.65 4.3 7.55 4.4 7.5 4.45 7.4 4.55 7.35 4.6 7.25 4.7 7.15 4.8 7.05 4.85 6.95 4.9 6.85 5.0 6.75 5.05 6.65 5.1 6.5 5.15 6.4 5.2 6.3 5.25 6.2 5.3 6.05 5.35 5.95 5.4 5.85 5.45 5.7 5.5 5.6 5.55 5.5 5.55 5.2 5.65 4.95 5.7 4.65 5.8 4.35 5.85 4.1 5.95 3.8 6.0 3.5 6.05 3.25 6.1 2.95 6.15 2.65 6.2 2.35 6.25 2.1 6.3 1.8 6.35 1.5 6.35 1.2 6.4 0.95 6.45 -1.05 6.55 -1.35 6.55 -1.5 6.55 -1.65 6.55 -1.8 6.55 -1.95 6.55 -2.1 6.55 -2.25 6.5 -2.4 6.5 -2.5 6.5 -2.65 6.5 -2.8 6.5 -2.95 6.5 -3.1 6.45 -3.25 6.45 -3.4 6.45 -3.55 6.45 -3.7 6.4 -4.3 6.35 -6.35 6.15 -6.4 6.15 -6.5 6.15 -6.55 6.15 -6.6 6.15 -6.65 6.1 -6.75 6.1 -6.85 6.1 -6.9 6.1 -6.95 6.1 -7.0 6.1 -7.1 6.1 -7.15 6.1 -7.2 6.05 -7.3 6.05 -7.35 6.05 -7.4 6.05 -7.5 6.05 -7.55 6.0 -7.65 5.95 -7.75 5.95 -7.8 5.9 -7.9 5.9 -7.95 5.85 -8.05 5.8 -8.1 5.8 -8.2 5.75 -8.25 5.7 -8.3 5.65 -8.4 5.6 -8.45 5.55 -8.55 5.55 -8.6 5.5 -8.7 5.35 -8.85 5.15 L-8.85 5.15 M-7.2 1.45 Q-7.25 1.45 -7.25 1.5 -7.25 1.45 -7.3 1.55 -7.65 2.35 -7.75 2.75 -7.75 2.75 -7.8 2.9 -7.85 2.95 -7.85 3.0 -7.9 3.1 -7.9 3.15 -7.9 3.25 -7.95 3.3 -7.95 3.35 -8.0 3.45 -8.0 3.5 -8.0 3.55 -8.05 3.65 -8.05 3.7 -8.05 3.8 -8.05 3.85 -8.05 3.95 -8.05 4.0 -8.05 4.1 -8.05 4.15 -8.0 4.25 -8.0 4.3 -7.95 4.4 -7.95 4.45 -7.9 4.5 -7.85 4.6 -7.8 4.65 -7.75 4.7 -7.7 4.75 -7.65 4.8 -7.6 4.85 -7.55 4.9 -7.5 4.9 -7.45 4.95 -7.45 4.95 -7.4 5.0 -7.35 5.0 -7.3 5.0 -7.25 5.0 -7.2 5.05 -7.2 5.05 -7.15 5.05 -7.1 5.05 -7.05 5.05 -7.0 5.05 -6.95 5.05 -6.9 5.1 -6.85 5.1 -6.75 5.1 -6.65 5.1 -6.55 5.1 -6.45 5.1 -6.35 5.1 -6.25 5.1 -6.15 5.15 -6.05 5.15 -5.95 5.15 -5.85 5.15 -5.75 5.15 -5.65 5.15 -5.5 5.15 -5.4 5.2 -5.3 5.2 -5.2 5.2 -5.0 5.25 -4.8 5.25 -4.6 5.3 -4.35 5.3 -4.15 5.3 -3.95 5.35 -3.75 5.35 -3.55 5.4 -3.35 5.4 -3.1 5.4 -2.9 5.45 -2.7 5.45 -2.5 5.5 -2.3 5.5 -2.05 5.5 -1.85 5.5 -1.65 5.5 -1.4 5.5 -1.2 5.55 -0.95 5.55 -0.75 5.55 -0.55 5.5 -0.3 5.5 -0.1 5.5 0.1 5.5 0.35 5.45 0.55 5.45 0.8 5.4 1.0 5.4 1.25 5.35 1.4 5.35 1.65 5.3 1.85 5.3 2.05 5.25 2.25 5.25 2.5 5.2 2.7 5.15 2.9 5.15 3.1 5.1 3.3 5.05 3.5 5.0 3.7 4.95 3.9 4.95 4.1 4.9 4.3 4.85 4.5 4.75 4.7 4.7 4.9 4.65 5.0 4.65 5.05 4.6 5.15 4.6 5.25 4.55 5.3 4.55 5.4 4.5 5.5 4.5 5.55 4.45 5.65 4.45 5.7 4.4 5.8 4.35 5.9 4.35 5.95 4.3 6.05 4.25 6.1 4.2 6.2 4.2 6.25 4.15 6.25 4.15 6.3 4.1 6.25 4.1 6.25 4.05 6.25 4.0 5.9 3.5 5.8 3.35 5.7 3.25 5.65 3.15 5.55 3.05 5.45 2.95 5.35 2.85 5.25 2.75 5.15 2.7 5.05 2.6 4.95 2.55 4.85 2.45 4.75 2.4 4.6 2.3 4.5 2.25 4.35 2.2 4.25 2.15 4.1 2.1 3.95 2.05 3.85 2.0 3.7 1.95 3.55 1.9 3.4 1.85 3.3 1.8 3.15 1.75 3.0 1.7 2.85 1.7 2.7 1.65 2.55 1.65 2.4 1.6 2.3 1.55 2.15 1.55 2.0 1.55 1.85 1.5 1.7 1.5 1.6 1.45 1.45 1.45 1.35 1.45 1.2 1.45 1.05 1.4 0.95 1.4 0.8 1.4 0.7 1.4 0.55 1.4 0.4 1.4 0.3 1.4 0.15 1.4 0.05 1.4 -0.1 1.4 -0.2 1.4 -1.05 1.45 -3.75 1.9 -5.35 2.15 -5.7 2.15 -5.75 2.15 -5.8 2.15 -5.9 2.15 -5.95 2.15 -6.0 2.15 -6.05 2.15 -6.1 2.1 -6.15 2.1 -6.2 2.1 -6.25 2.1 -6.35 2.1 -6.4 2.05 -6.45 2.05 -6.5 2.05 -6.55 2.0 -6.6 2.0 -6.65 1.95 -6.7 1.95 -6.75 1.9 -6.75 1.9 -6.8 1.85 -6.85 1.8 -6.9 1.8 -6.95 1.75 -6.95 1.7 -7.0 1.65 -7.05 1.65 -7.05 1.6 -7.1 1.55 -7.15 1.5 -7.15 1.5 -7.2 1.45 L-7.2 1.45 M7.2 -0.7 Q5.65 -0.8 5.15 -0.8 4.9 -0.8 4.6 -0.8 4.35 -0.8 4.1 -0.8 3.85 -0.8 3.55 -0.8 3.3 -0.8 3.05 -0.8 2.75 -0.8 2.5 -0.75 2.25 -0.75 1.95 -0.75 1.7 -0.75 1.45 -0.7 1.15 -0.7 0.9 -0.7 -1.1 -0.5 -1.9 -0.35 -3.25 -0.15 -5.5 0.25 -6.1 0.3 -6.35 0.4 -6.4 0.4 -6.45 0.45 -6.45 0.5 -6.5 0.5 -6.5 0.55 -6.5 0.6 -6.5 0.6 -6.45 0.65 -6.4 0.7 -6.4 0.75 -6.35 0.85 -6.35 0.85 -6.3 0.9 -6.25 0.95 -6.25 1.0 -6.2 1.0 -6.15 1.05 -6.1 1.05 -6.05 1.1 -6.05 1.1 -6.0 1.1 -5.9 1.1 -5.85 1.1 -5.8 1.1 -5.35 1.15 -4.1 0.9 -3.8 0.85 -2.85 0.7 -2.1 0.6 -1.65 0.55 -0.6 0.4 1.0 0.3 1.25 0.3 1.5 0.25 1.8 0.25 2.05 0.25 2.3 0.25 2.55 0.2 2.8 0.2 3.05 0.2 3.3 0.2 3.55 0.2 3.85 0.2 4.1 0.2 4.35 0.25 4.6 0.25 4.85 0.25 5.1 0.3 5.15 0.3 5.2 0.3 5.3 0.3 5.35 0.3 5.4 0.3 5.45 0.3 5.5 0.3 5.6 0.3 5.65 0.3 5.7 0.3 5.75 0.3 5.8 0.3 5.85 0.3 5.95 0.3 6.0 0.3 6.05 0.3 6.15 0.3 6.25 0.25 6.35 0.25 6.45 0.2 6.55 0.2 6.6 0.15 6.7 0.1 6.8 0.0 6.85 -0.05 6.9 -0.15 7.0 -0.2 7.05 -0.3 7.1 -0.4 7.1 -0.5 7.15 -0.6 7.2 -0.7 L7.2 -0.7" fill="#020202" fill-rule="evenodd" stroke="none"/>
    <path d="M9.8 -2.3 Q9.75 -2.3 9.7 -2.3 9.65 -2.3 9.6 -2.3 9.55 -2.3 9.5 -2.3 9.5 -2.3 9.45 -2.25 9.4 -2.25 9.35 -2.25 9.35 -2.2 9.3 -2.2 9.25 -2.15 9.2 -2.15 9.2 -2.15 9.15 -2.1 9.05 -2.05 9.0 -2.0 8.9 -1.95 8.85 -1.95 8.75 -1.9 8.65 -1.85 8.6 -1.85 8.5 -1.8 8.4 -1.8 8.35 -1.75 8.25 -1.75 8.15 -1.75 8.05 -1.75 8.0 -1.7 7.9 -1.7 7.8 -1.7 7.6 -1.7 6.3 -1.8 5.55 -1.85 3.55 -1.85 1.8 -1.8 -0.4 -1.6 -1.25 -1.5 -3.25 -1.2 -4.0 -1.05 -5.85 -0.75 -6.0 -0.75 -6.2 -0.7 -6.5 -0.65 -6.55 -0.6 -6.6 -0.6 -6.65 -0.6 -6.75 -0.55 -6.8 -0.55 -6.85 -0.5 -6.9 -0.5 -6.95 -0.45 -7.0 -0.45 -7.05 -0.4 -7.1 -0.35 -7.15 -0.35 -7.2 -0.3 -7.2 -0.25 -7.25 -0.2 -7.3 -0.15 -7.35 -0.1 -7.4 -0.1 -7.4 -0.05 -7.45 0.0 -7.5 0.0 -7.5 0.05 -7.55 0.1 -7.55 0.05 -7.55 0.0 -7.55 -0.05 -7.5 -0.1 -7.5 -0.1 -7.45 -0.15 -7.35 -0.25 -7.25 -0.3 -7.15 -0.4 -7.05 -0.45 -7.0 -0.55 -6.9 -0.6 -6.8 -0.7 -6.7 -0.75 -6.6 -0.85 -6.5 -0.9 -6.4 -1.0 -6.3 -1.05 -6.2 -1.1 -6.1 -1.2 -6.0 -1.25 -5.85 -1.35 -5.6 -1.5 -5.4 -1.65 -5.15 -1.75 -4.9 -1.9 -4.65 -2.0 -4.4 -2.15 -4.2 -2.25 -3.95 -2.35 -3.7 -2.45 -3.4 -2.55 -3.15 -2.65 -2.9 -2.75 -2.65 -2.85 -2.4 -2.95 -2.15 -3.05 -1.85 -3.15 -1.65 -3.2 -1.4 -3.3 -1.2 -3.35 -0.95 -3.4 -0.75 -3.45 -0.5 -3.55 -0.3 -3.6 -0.05 -3.65 0.15 -3.7 0.4 -3.75 0.6 -3.8 0.85 -3.85 1.1 -3.9 1.3 -3.95 1.55 -4.0 1.75 -4.05 3.15 -4.3 3.7 -4.35 3.85 -4.35 4.0 -4.35 4.15 -4.4 4.3 -4.4 4.45 -4.4 4.6 -4.4 4.75 -4.4 4.9 -4.4 5.05 -4.4 5.2 -4.4 5.35 -4.4 5.5 -4.4 5.65 -4.4 5.8 -4.4 6.0 -4.4 6.1 -4.35 6.2 -4.35 6.3 -4.35 6.35 -4.35 6.45 -4.3 6.55 -4.3 6.6 -4.3 6.7 -4.3 6.8 -4.3 6.9 -4.25 6.95 -4.25 7.05 -4.25 7.15 -4.2 7.2 -4.2 7.3 -4.2 7.4 -4.15 7.45 -4.15 7.55 -4.15 7.65 -4.1 7.75 -4.05 7.85 -4.05 7.95 -4.0 8.05 -3.95 8.15 -3.9 8.2 -3.85 8.3 -3.8 8.4 -3.75 8.5 -3.7 8.55 -3.65 8.65 -3.6 8.75 -3.55 8.8 -3.45 8.9 -3.4 8.9 -3.4 9.0 -3.3 9.1 -3.25 9.1 -3.2 9.2 -3.15 9.25 -3.1 9.3 -3.05 9.35 -3.0 9.4 -2.95 9.45 -2.9 9.5 -2.85 9.55 -2.8 9.55 -2.7 9.6 -2.65 9.65 -2.6 9.7 -2.55 9.7 -2.55 9.75 -2.45 9.75 -2.4 9.75 -2.4 9.8 -2.35 9.8 -2.3 L9.8 -2.3" fill="#000000" fill-opacity="0.23921569" fill-rule="evenodd" stroke="none"/>
    <path d="M-30.3 6.0 Q-30.25 6.1 -30.05 6.35 -30.2 6.35 -30.25 6.3 -30.3 6.3 -30.3 6.25 -30.3 6.2 -30.3 6.0 L-30.3 6.0" fill="#a8a8a8" fill-rule="evenodd" stroke="none"/>
  </g>
</svg>
