<?xml version="1.0" encoding="UTF-8" standalone="no"?>
<svg xmlns:xlink="http://www.w3.org/1999/xlink" height="13.4px" width="15.75px" xmlns="http://www.w3.org/2000/svg">
  <g transform="matrix(1.0, 0.0, 0.0, 1.0, 7.85, 6.7)">
    <path d="M-6.9 0.45 Q-6.9 0.5 -6.9 0.6 -6.9 0.65 -6.9 0.7 -6.85 0.75 -6.85 0.85 -6.8 0.9 -6.75 0.95 -6.7 1.0 -6.65 1.05 -6.6 1.15 -6.55 1.2 -6.5 1.25 -6.45 1.25 -6.4 1.3 -6.35 1.35 -6.3 1.4 -6.2 1.45 -6.1 1.45 -6.05 1.5 -5.95 1.5 -5.9 1.55 -5.8 1.55 -5.7 1.55 -5.65 1.55 -5.55 1.55 -5.5 1.55 -5.4 1.55 -5.35 1.55 -5.25 1.55 -5.2 1.55 -5.1 1.55 -3.25 1.35 -2.75 1.2 -2.4 1.1 -2.0 1.0 -1.6 0.9 -1.2 0.85 -0.85 0.8 -0.45 0.75 -0.1 0.75 0.25 0.75 0.55 0.7 0.9 0.7 1.15 0.7 1.4 0.75 1.65 0.75 1.85 0.75 2.0 0.75 2.15 0.75 2.6 0.8 3.05 0.85 3.4 0.9 3.85 1.0 4.1 1.05 4.55 1.15 5.0 1.3 5.15 1.3 5.5 1.4 5.7 1.4 5.95 1.45 6.15 1.45 6.4 1.45 6.55 1.35 6.75 1.3 6.9 1.15 6.95 1.1 7.0 1.1 7.0 1.05 7.05 0.95 7.1 0.9 7.2 0.85 7.25 0.75 7.3 0.7 7.35 0.6 7.4 0.5 7.45 0.4 7.55 0.3 7.6 0.2 7.65 0.1 7.7 -0.05 7.75 -0.15 7.8 -0.25 7.8 -0.3 7.8 -0.35 7.85 -0.4 7.85 -0.45 7.9 -0.5 7.9 -0.55 7.9 -0.6 7.9 -0.65 7.9 -0.65 7.9 -0.7 7.9 -0.75 7.9 -0.8 7.9 -0.8 7.9 -0.85 7.9 -0.85 7.85 -0.95 7.75 -1.05 7.65 -1.15 7.5 -1.2 7.35 -1.25 7.15 -1.25 7.0 -1.3 6.75 -1.3 6.6 -1.35 6.35 -1.35 6.15 -1.35 5.95 -1.35 5.8 -1.35 5.55 -1.3 5.45 -1.3 5.25 -1.3 14.85 -1.95 0.65 -1.05 -1.55 -0.95 -4.8 -0.4 -4.95 -0.4 -5.1 -0.35 -5.3 -0.35 -5.45 -0.3 -5.65 -0.25 -5.8 -0.2 -5.95 -0.2 -6.1 -0.15 -6.3 -0.1 -6.4 0.0 -6.55 0.05 -6.65 0.1 -6.75 0.2 -6.85 0.3 -6.9 0.35 -6.9 0.45 L-6.9 0.45" fill="#4731e8" fill-rule="evenodd" stroke="none"/>
  </g>
</svg>
