<?xml version="1.0" encoding="UTF-8" standalone="no"?>
<svg xmlns:xlink="http://www.w3.org/1999/xlink" height="8.4px" width="17.4px" xmlns="http://www.w3.org/2000/svg">
  <g transform="matrix(1.0, 0.0, 0.0, 1.0, 8.7, 4.2)">
    <path d="M-3.7 -6.3 Q-3.8 -6.2 -3.85 -6.05 -3.95 -5.9 -4.05 -5.75 -4.15 -5.6 -4.25 -5.45 -4.35 -5.25 -4.45 -5.05 -4.55 -4.85 -4.65 -4.65 -4.75 -4.4 -4.8 -4.2 -4.9 -3.95 -5.0 -3.65 -5.05 -3.4 -5.1 -3.1 -5.15 -2.75 -5.2 -2.4 -5.25 -2.1 -5.25 -1.8 -5.3 -1.45 -5.25 -1.15 -5.25 -0.9 -5.25 -0.6 -5.2 -0.35 -5.15 -0.1 -5.1 0.1 -5.05 0.35 -5.05 0.5 -5.0 0.7 -4.95 0.85 -4.9 1.0 -4.4 0.6 -3.85 0.2 L-3.85 0.2 Q-3.85 0.2 -3.45 0.9 -3.25 1.25 -3.1 1.55 -3.0 1.75 -2.95 1.8 -2.85 1.95 -2.75 2.05 -2.65 2.2 -2.55 2.3 -2.45 2.4 -2.3 2.5 -2.2 2.55 -2.05 2.65 -1.9 2.7 -1.75 2.8 -1.6 2.85 -1.45 2.95 -1.3 3.0 -1.15 3.05 -1.05 3.1 -0.85 3.15 -0.65 3.2 -0.55 3.25 -0.4 3.3 -0.3 3.35 -0.2 3.35 -0.1 3.4 0.0 3.45 0.1 3.45 0.2 3.5 0.3 3.5 0.35 3.5 0.45 3.5 0.55 3.5 0.6 3.5 0.7 3.5 0.8 3.5 1.0 3.45 1.15 3.4 1.3 3.35 1.45 3.3 1.55 3.2 1.7 3.1 1.75 3.05 1.95 2.95 2.05 2.85 2.15 2.8 2.25 2.75 2.35 2.7 2.45 2.65 2.6 2.65 2.7 2.65 2.8 2.65 2.85 2.65 2.95 2.7 3.0 2.75 3.05 2.75 3.1 2.8 3.15 2.85 3.2 2.9 3.25 2.95 3.3 3.0 3.35 3.05 3.4 3.1 3.4 3.15 3.45 3.2 3.45 3.25 3.45 3.3 3.45 3.35 3.45 3.4 3.45 3.4 3.45 3.45 3.45 3.45 3.45 3.5 3.4 3.5 3.4 3.5 3.4 3.55 3.4 3.6 3.35 3.65 3.35 3.65 3.35 3.7 3.35 3.75 3.35 3.8 3.3 3.85 3.3 3.9 3.3 3.95 3.3 4.0 3.3 4.05 3.3 4.05 3.3 4.1 3.3 4.15 3.3 4.15 3.3 4.2 3.35 4.2 3.4 4.2 3.45 4.2 3.5 4.2 3.55 4.2 3.65 4.15 3.7 4.15 3.75 4.15 3.8 4.15 3.9 4.1 3.95 4.1 4.0 4.05 4.1 4.05 4.15 4.0 4.25 4.0 4.3 3.95 4.45 3.9 4.6 3.8 4.75 3.7 4.85 3.6 5.0 3.5 5.1 3.4 5.2 3.25 5.3 3.15 5.4 3.0 5.5 2.85 5.6 2.7 5.7 2.55 5.75 2.4 5.9 2.25 5.75 2.45 6.05 1.9 7.0 0.25 7.85 -1.0 7.6 -1.1 7.1 -1.25 7.05 -1.2 7.0 -1.15 6.95 -1.05 6.9 -1.0 6.85 -0.95 6.8 -0.9 6.75 -0.8 6.7 -0.75 6.6 -0.7 6.55 -0.7 6.5 -0.65 6.4 -0.6 6.35 -0.55 6.25 -0.55 6.2 -0.55 6.1 -0.55 6.05 -0.55 5.95 -0.55 5.9 -0.55 5.8 -0.6 5.75 -0.6 5.7 -0.65 5.65 -0.65 5.55 -0.7 5.5 -0.75 5.45 -0.8 5.4 -0.85 5.35 -0.9 5.3 -0.95 5.2 -1.0 5.15 -1.05 5.1 -1.1 4.9 -1.25 2.75 -2.2 2.25 -2.4 1.85 -2.6 1.5 -2.75 1.25 -2.9 1.0 -3.05 0.75 -3.15 0.65 -3.25 0.45 -3.35 0.25 -3.45 0.2 -3.45 0.1 -3.55 0.0 -3.6 -0.15 -3.65 -0.3 -3.7 -0.45 -3.75 -0.65 -3.8 -0.9 -3.9 -1.2 -3.95 -1.45 -4.0 -1.7 -4.1 -1.75 -4.1 -2.1 -4.2 -2.35 -4.25 -2.5 -4.25 -2.7 -4.3 -2.8 -4.35 -2.95 -4.4 -3.1 -4.5 -3.2 -4.55 -3.3 -4.65 -3.4 -4.75 -3.5 -4.9 -3.55 -5.0 -3.6 -5.05 -3.65 -5.15 -3.65 -5.25 -3.7 -5.35 -3.7 -5.45 -3.75 -5.5 -3.75 -5.6 -3.75 -5.7 -3.75 -5.8 -3.75 -5.9 -3.75 -6.0 -3.75 -6.05 -3.7 -6.15 -3.7 -6.2 -3.7 -6.3 L-3.7 -6.3" fill="#460f0f" fill-rule="evenodd" stroke="none"/>
  </g>
</svg>
