<?xml version="1.0" encoding="UTF-8" standalone="no"?>
<svg xmlns:xlink="http://www.w3.org/1999/xlink" height="16.75px" width="37.55px" xmlns="http://www.w3.org/2000/svg">
  <g transform="matrix(1.0, 0.0, 0.0, 1.0, 18.75, 8.35)">
    <path d="M-14.9 -4.65 Q-14.9 -4.75 -14.9 -4.8 -14.9 -4.9 -14.9 -4.95 -14.85 -5.05 -14.85 -5.1 -14.85 -5.2 -14.85 -5.25 -14.85 -5.35 -14.8 -5.45 -14.8 -5.5 -14.8 -5.6 -14.75 -5.65 -14.75 -5.75 -14.75 -5.8 -14.7 -5.9 -14.7 -5.95 -14.7 -5.95 -14.7 -6.0 -14.75 -6.0 -14.75 -6.0 -14.8 -6.05 -14.9 -6.05 -15.0 -6.1 -15.1 -6.1 -15.2 -6.1 -15.3 -6.15 -15.4 -6.15 -15.5 -6.2 -15.6 -6.2 -15.7 -6.25 -15.8 -6.3 -15.9 -6.3 -16.0 -6.35 -16.1 -6.4 -16.2 -6.4 -16.3 -6.45 -16.4 -6.5 -16.45 -6.5 -16.45 -6.55 -16.5 -6.55 -16.55 -6.55 -16.55 -6.55 -16.6 -6.6 -16.65 -6.6 -16.65 -6.6 -16.7 -6.65 -16.75 -6.65 -16.8 -6.65 -16.8 -6.65 -16.85 -6.7 -16.9 -6.7 -16.95 -6.7 -16.95 -6.7 -17.0 -6.7 -17.1 -6.75 -17.15 -6.75 -17.2 -6.8 -17.25 -6.8 -17.35 -6.85 -17.4 -6.85 -17.45 -6.9 -17.5 -6.9 -17.6 -6.95 -17.65 -7.0 -17.7 -7.0 -17.75 -7.05 -17.8 -7.1 -17.85 -7.1 -17.9 -7.15 -17.95 -7.2 -17.95 -7.2 -18.0 -7.2 -18.05 -7.25 -18.05 -7.3 -18.1 -7.3 -18.1 -7.35 -18.1 -7.35 -18.15 -7.4 -18.15 -7.45 -18.15 -7.5 -18.2 -7.55 -18.2 -7.6 -18.2 -7.65 -18.2 -7.7 -18.2 -7.7 -18.15 -7.75 -18.15 -7.8 -18.1 -7.85 -18.1 -7.9 -18.05 -7.9 -18.0 -7.95 -17.95 -7.95 -17.9 -8.0 -17.9 -8.0 -17.8 -8.0 -17.75 -8.0 -17.7 -8.0 -17.7 -8.0 -17.65 -8.0 -17.6 -8.0 -17.55 -8.0 -17.55 -8.0 -17.5 -7.95 -17.45 -7.95 -17.4 -7.95 -17.35 -7.95 -17.35 -7.9 -17.3 -7.9 -17.25 -7.85 -17.25 -7.85 -17.2 -7.8 -17.05 -7.7 -16.8 -7.55 -16.5 -7.35 -16.45 -7.3 -16.3 -7.2 -16.15 -7.15 -16.0 -7.05 -15.85 -7.0 -15.7 -6.95 -15.55 -6.85 -15.4 -6.8 -15.2 -6.75 -15.05 -6.75 -14.9 -6.7 -14.75 -6.65 -14.55 -6.65 -14.4 -6.65 -14.25 -6.65 -14.05 -6.6 -13.9 -6.65 -13.75 -6.65 -13.65 -6.65 -13.5 -6.7 -13.4 -6.7 -13.25 -6.75 -13.1 -6.75 -13.0 -6.8 -12.85 -6.85 -12.75 -6.85 -12.6 -6.9 -12.5 -6.95 -12.35 -7.0 -12.25 -7.05 -12.15 -7.1 -12.0 -7.2 -11.9 -7.25 -11.85 -7.3 -11.75 -7.3 -11.7 -7.35 -11.6 -7.4 -11.55 -7.45 -11.5 -7.45 -11.4 -7.5 -11.35 -7.55 -11.3 -7.55 -11.2 -7.6 -11.15 -7.65 -11.05 -7.7 -11.0 -7.75 -10.95 -7.75 -10.85 -7.8 -10.8 -7.85 -10.7 -7.95 -10.55 -8.0 -10.45 -8.05 -10.35 -8.1 -10.2 -8.15 -10.1 -8.2 -9.95 -8.2 -9.85 -8.25 -9.7 -8.25 -9.6 -8.25 -9.45 -8.25 -9.35 -8.25 -9.2 -8.25 -9.05 -8.25 -8.95 -8.2 -8.8 -8.2 -8.65 -8.2 -7.95 -8.0 -7.4 -7.9 -7.05 -7.85 -6.9 -7.85 -6.8 -7.8 -6.65 -7.8 -6.5 -7.8 -6.35 -7.8 -6.25 -7.8 -6.1 -7.8 -5.95 -7.8 -5.85 -7.8 -5.7 -7.8 -5.55 -7.85 -5.45 -7.85 -5.3 -7.85 -5.15 -7.9 -5.05 -7.95 -4.9 -8.0 -4.8 -8.0 -4.75 -8.05 -4.65 -8.1 -4.6 -8.1 -4.55 -8.15 -4.45 -8.2 -4.4 -8.25 -4.3 -8.3 -4.25 -8.3 -4.2 -8.35 -4.15 -8.4 -4.1 -8.5 -4.0 -8.55 -3.95 -8.6 -3.9 -8.65 -3.85 -8.75 -3.85 -8.8 -3.8 -8.8 -3.8 -8.85 -3.75 -8.9 -3.75 -8.9 -3.7 -8.95 -3.7 -9.0 -3.7 -9.0 -3.65 -9.05 -3.65 -9.1 -3.6 -9.1 -3.6 -9.15 -3.55 -9.2 -3.55 -9.25 -3.55 -9.25 -3.5 -9.3 -3.5 -9.35 -3.5 -9.4 -3.5 -9.45 -3.5 -9.5 -3.5 -9.55 -3.55 -9.65 -3.6 -9.7 -3.6 -9.75 -3.6 -9.8 -3.65 -9.85 -3.65 -9.9 -3.65 -9.9 -3.65 -9.95 -3.65 -10.0 -3.65 -10.05 -3.6 -10.1 -3.6 -10.15 -3.55 -10.15 -3.55 -10.2 -3.5 -10.2 -3.5 -10.2 -3.45 -10.25 -3.4 -10.25 -3.4 -10.25 -3.35 -10.25 -3.35 -10.25 -3.3 -10.25 -3.3 -10.25 -3.25 -10.25 -3.2 -10.25 -3.2 -10.25 -3.15 -10.25 -3.15 -10.25 -3.1 -10.25 -3.05 -10.25 -3.05 -10.2 -3.0 -10.2 -2.95 -10.15 -2.95 -10.15 -2.9 -10.1 -2.85 -10.05 -2.85 -10.0 -2.85 -10.0 -2.8 -9.95 -2.8 -9.9 -2.8 -9.85 -2.75 -9.8 -2.75 -9.75 -2.75 -9.75 -2.75 -9.7 -2.75 -9.6 -2.75 -9.55 -2.8 -9.45 -2.8 -9.4 -2.8 -9.3 -2.85 -9.25 -2.85 -9.15 -2.9 -9.1 -2.9 -9.0 -2.95 -8.95 -3.0 -8.85 -3.05 -8.8 -3.05 -8.75 -3.1 -8.65 -3.15 -8.6 -3.2 -8.55 -3.25 -8.45 -3.3 -8.4 -3.4 -8.3 -3.45 -8.25 -3.5 -8.15 -3.55 -8.1 -3.65 -8.0 -3.7 -7.95 -3.75 -7.9 -3.85 -7.8 -3.9 -7.75 -4.0 -7.7 -4.1 -7.65 -4.15 -7.6 -4.25 -7.55 -4.35 -7.5 -4.4 -7.5 -4.4 -7.45 -4.4 -7.45 -4.35 -7.35 -4.3 -7.2 -4.25 -7.1 -4.15 -6.95 -4.1 -6.8 -4.05 -6.65 -4.05 -6.5 -4.0 -6.4 -3.95 -6.25 -3.95 -6.1 -3.9 -5.95 -3.9 -5.8 -3.9 -5.65 -3.85 -5.5 -3.85 -5.35 -3.85 -5.2 -3.85 -5.05 -3.85 -4.8 -3.9 -4.55 -3.9 -4.35 -3.95 -4.1 -4.0 -3.9 -4.1 -3.65 -4.15 -3.45 -4.25 -3.25 -4.35 -3.05 -4.45 -2.8 -4.55 -2.6 -4.65 -2.4 -4.8 -2.2 -4.95 -2.05 -5.1 -1.85 -5.25 -1.65 -5.35 -1.55 -5.4 -1.5 -5.5 -1.4 -5.55 -1.3 -5.65 -1.25 -5.75 -1.15 -5.8 -1.1 -5.9 -1.0 -6.0 -0.95 -6.1 -0.9 -6.2 -0.8 -6.25 -0.75 -6.35 -0.7 -6.45 -0.6 -6.55 -0.55 -6.65 -0.5 -6.7 -0.5 -6.7 -0.45 -6.75 -0.45 -6.75 -0.4 -6.75 -0.35 -6.7 -0.3 -5.4 2.65 -3.15 7.8 -3.15 7.85 -3.1 7.9 -3.1 7.9 -3.1 7.95 -3.1 8.0 -3.1 8.05 -3.1 8.05 -3.1 8.1 -3.15 8.15 -3.15 8.15 -3.15 8.2 -3.2 8.2 -3.2 8.25 -3.25 8.25 -3.25 8.25 -3.3 8.3 -3.35 8.3 -3.35 8.3 -3.4 8.3 -3.45 8.3 -3.45 8.3 -3.5 8.3 -3.55 8.3 -3.55 8.3 -3.6 8.3 -3.6 8.25 -3.65 8.25 -3.65 8.2 -3.7 8.2 -3.7 8.15 -3.75 8.1 -3.75 8.05 -5.7 3.6 -7.3 0.0 -7.3 -0.05 -7.35 -0.1 -7.35 -0.1 -7.4 -0.1 -7.45 -0.1 -7.5 -0.1 -7.8 0.0 -8.05 0.1 -8.35 0.15 -8.65 0.25 -8.9 0.3 -9.2 0.3 -9.45 0.35 -9.75 0.35 -10.05 0.35 -10.3 0.3 -10.6 0.25 -10.85 0.2 -11.15 0.15 -11.4 0.05 -11.7 -0.05 -11.95 -0.2 -12.25 -0.35 -12.55 -0.5 -12.85 -0.7 -13.1 -0.9 -13.35 -1.1 -13.55 -1.3 -13.8 -1.5 -13.95 -1.75 -14.15 -2.0 -14.3 -2.3 -14.45 -2.55 -14.55 -2.85 -14.65 -3.2 -14.75 -3.5 -14.8 -3.85 -14.85 -4.2 -14.9 -4.35 -14.9 -4.65 L-14.9 -4.65 M-14.1 -5.55 Q-14.1 -5.5 -14.15 -5.45 -14.15 -5.45 -14.15 -5.4 -14.15 -5.35 -14.15 -5.3 -14.2 -5.3 -14.2 -5.25 -14.2 -5.2 -14.2 -5.15 -14.2 -5.1 -14.2 -5.05 -14.2 -5.05 -14.2 -5.0 -14.2 -4.95 -14.2 -4.9 -14.2 -4.85 -14.2 -4.85 -14.25 -4.8 -14.25 -4.75 -14.25 -4.45 -14.2 -4.15 -14.2 -3.8 -14.1 -3.5 -14.0 -3.2 -13.9 -2.95 -13.75 -2.65 -13.6 -2.4 -13.4 -2.1 -13.2 -1.9 -13.0 -1.65 -12.8 -1.45 -12.55 -1.25 -12.3 -1.05 -12.0 -0.9 -11.75 -0.75 -11.4 -0.6 -11.05 -0.5 -10.7 -0.4 -10.35 -0.35 -10.0 -0.3 -9.65 -0.3 -9.3 -0.3 -9.0 -0.35 -8.65 -0.4 -8.35 -0.5 -8.0 -0.55 -7.7 -0.7 -7.35 -0.85 -7.05 -1.05 -6.75 -1.2 -6.45 -1.45 -6.2 -1.6 -6.0 -1.8 -5.8 -2.0 -5.6 -2.2 -5.45 -2.4 -5.3 -2.65 -5.15 -2.85 -5.0 -3.1 -4.9 -3.35 -4.8 -3.6 -4.7 -3.85 -4.65 -4.1 -4.6 -4.4 -4.55 -4.65 -4.5 -4.95 -4.5 -5.25 -4.5 -5.4 -4.5 -5.5 -4.5 -5.65 -4.55 -5.75 -4.55 -5.9 -4.55 -6.0 -4.6 -6.1 -4.65 -6.25 -4.65 -6.35 -4.7 -6.5 -4.75 -6.6 -4.8 -6.7 -4.85 -6.85 -4.9 -6.95 -4.95 -7.05 -5.0 -7.2 -5.5 -7.7 -5.05 -7.25 -5.05 -7.25 -5.1 -7.25 -5.35 -7.2 -6.1 -7.15 -6.45 -7.15 -7.1 -7.2 -7.15 -7.2 -7.55 -7.3 -7.85 -7.35 -8.05 -7.35 -8.1 -7.35 -8.15 -7.4 -8.15 -7.4 -8.2 -7.4 -8.25 -7.45 -8.3 -7.45 -8.35 -7.45 -8.4 -7.45 -8.55 -7.5 -9.0 -7.55 -9.05 -7.55 -9.15 -7.6 -9.2 -7.6 -9.25 -7.6 -9.35 -7.6 -9.4 -7.6 -9.5 -7.6 -9.55 -7.6 -9.6 -7.6 -9.7 -7.6 -9.75 -7.6 -9.8 -7.6 -9.9 -7.55 -9.95 -7.55 -10.05 -7.55 -10.1 -7.5 -10.55 -7.25 -11.3 -6.8 -11.4 -6.75 -11.8 -6.55 -12.15 -6.4 -12.35 -6.35 -12.4 -6.35 -12.45 -6.3 -12.5 -6.3 -12.6 -6.25 -12.65 -6.25 -12.7 -6.2 -12.75 -6.2 -12.8 -6.2 -12.9 -6.15 -12.95 -6.15 -13.0 -6.15 -13.05 -6.1 -13.1 -6.1 -13.2 -6.1 -13.25 -6.05 -13.3 -6.05 -13.35 -6.05 -13.7 -6.0 -13.75 -6.0 -13.8 -6.0 -13.9 -6.0 -13.9 -6.0 -14.0 -6.0 -14.0 -5.95 -14.05 -5.9 -14.1 -5.6 -14.1 -5.6 -14.1 -5.55 L-14.1 -5.55" fill="#040303" fill-rule="evenodd" stroke="none"/>
  </g>
</svg>
