<?xml version="1.0" encoding="UTF-8" standalone="no"?>
<svg xmlns:xlink="http://www.w3.org/1999/xlink" height="3.6px" width="14.5px" xmlns="http://www.w3.org/2000/svg">
  <g transform="matrix(1.0, 0.0, 0.0, 1.0, 7.25, 1.8)">
    <path d="M-6.95 -1.25 Q-6.95 -1.25 -6.95 -1.2 -7.0 -1.15 -7.0 -1.15 -7.0 -1.1 -7.0 -1.1 -7.0 -1.05 -7.0 -1.0 -7.0 -0.95 -7.0 -0.95 -7.0 -0.9 -7.0 -0.85 -7.0 -0.8 -7.0 -0.75 -6.95 -0.7 -6.95 -0.7 -6.9 -0.65 -6.9 -0.55 -6.85 -0.5 -6.8 -0.45 -6.75 -0.4 -6.7 -0.35 -6.6 -0.3 -6.55 -0.25 -6.5 -0.25 -6.4 -0.2 -6.35 -0.2 -6.25 -0.15 -6.15 -0.15 -6.1 -0.15 -6.0 -0.15 -5.9 -0.15 -5.9 -0.15 -5.85 -0.15 -5.85 -0.1 -5.8 -0.1 -5.8 -0.1 -5.75 -0.1 -5.75 -0.05 -5.7 -0.05 -5.7 -0.05 -5.65 -0.05 -5.6 -0.05 -5.6 0.0 -5.55 0.0 -5.5 0.0 -5.5 0.0 -5.45 0.0 -5.4 0.0 -5.3 0.05 -5.25 0.05 -5.2 0.05 -5.15 0.05 -5.1 0.05 -5.05 0.05 -5.0 0.05 -4.95 0.05 -4.9 0.05 -4.85 0.05 -4.8 0.0 -4.75 0.0 -4.75 0.0 -4.7 0.0 -4.7 0.0 -4.25 0.55 -4.15 0.7 -4.1 0.75 -4.0 0.85 -3.95 0.9 -3.85 1.0 -3.8 1.05 -3.7 1.1 -3.65 1.15 -3.6 1.2 -3.5 1.25 -3.45 1.3 -3.4 1.35 -3.3 1.4 -3.25 1.45 -3.2 1.5 -3.15 1.5 -3.1 1.55 -3.1 1.5 -3.05 1.35 -3.0 1.25 -3.0 1.15 -2.95 1.1 -2.95 1.0 -2.9 0.95 -2.85 0.9 -2.85 0.85 -2.8 0.75 -2.75 0.7 -2.7 0.65 -2.7 0.6 -2.65 0.6 -2.6 0.55 -2.6 0.5 -2.55 0.45 -2.5 0.45 -2.5 0.4 -2.45 0.4 -2.45 0.4 -2.25 0.55 -2.05 0.65 -1.95 0.7 -1.85 0.75 -1.75 0.8 -1.65 0.85 -1.55 0.85 -1.5 0.9 -1.4 0.95 -1.3 0.95 -1.2 0.95 -1.15 1.0 -1.1 1.0 -1.0 1.0 -0.95 1.05 -0.9 1.05 -0.85 1.05 -0.85 1.05 -0.75 1.05 0.0 1.15 1.8 1.8 2.05 1.9 2.7 2.05 3.25 2.2 3.6 2.35 3.65 2.35 3.65 2.4 3.7 2.4 3.7 2.4 3.75 2.45 3.8 2.45 3.85 2.45 3.9 2.45 3.95 2.5 4.0 2.5 4.1 2.5 4.15 2.5 4.2 2.5 4.25 2.45 4.3 2.45 4.4 2.45 4.45 2.45 4.5 2.4 4.5 2.4 4.55 2.35 4.6 2.3 4.6 2.3 4.65 2.25 4.65 2.25 4.7 2.2 4.7 2.2 4.75 2.4 4.9 2.95 4.95 3.2 5.05 3.6 5.05 3.6 5.3 3.45 5.45 3.35 5.55 3.25 5.65 3.2 5.75 3.1 5.85 3.0 5.95 2.95 6.05 2.85 6.15 2.75 6.2 2.7 6.3 2.6 6.35 2.5 6.4 2.4 6.5 2.35 6.55 2.25 6.6 2.15 6.65 2.1 6.7 2.0 6.75 1.95 6.0 1.55 5.5 1.35 5.3 1.25 5.15 1.2 4.85 1.05 4.55 0.95 4.2 0.8 3.8 0.65 3.35 0.5 2.9 0.35 2.35 0.15 1.8 0.0 1.2 -0.15 0.55 -0.3 -0.1 -0.5 -0.8 -0.6 -1.6 -0.75 -2.35 -0.9 -2.6 -0.95 -2.8 -0.95 -3.05 -1.0 -3.3 -1.0 -3.6 -1.05 -3.85 -1.05 -4.15 -1.1 -4.4 -1.1 -4.7 -1.15 -5.0 -1.15 -5.3 -1.2 -5.65 -1.2 -5.95 -1.2 -6.3 -1.25 -6.65 -1.25 -6.95 -1.25 L-6.95 -1.25" fill="#000000" fill-rule="evenodd" stroke="none"/>
    <path d="M-6.5 1.4 Q-6.45 1.35 -6.4 1.3 -6.35 1.25 -6.3 1.2 -6.25 1.15 -6.2 1.1 -6.15 1.1 -6.1 1.1 -6.05 1.05 -6.05 1.05 -6.0 1.05 -6.0 1.05 -5.95 1.05 -5.95 1.05 -5.9 1.05 -5.9 1.05 -5.9 1.05 -5.85 1.05 -5.85 1.05 -5.85 1.1 -5.8 1.1 -5.8 1.1 -5.8 1.1 -5.75 1.1 -5.75 1.15 -5.7 1.15 -5.7 1.15 -5.7 1.2 -5.65 1.2 -5.6 1.2 -5.6 1.25 -5.55 1.25 -5.5 1.25 -5.5 1.3 -5.45 1.3 -5.45 1.3 -5.4 1.35 -5.35 1.35 -5.35 1.35 -5.3 1.35 -5.25 1.35 -5.2 1.4 -5.15 1.4 -5.1 1.4 -5.1 1.4 -5.05 1.4 -5.0 1.4 -5.0 1.4 -4.95 1.4 -4.9 1.4 -4.9 1.4 -4.85 1.4 -4.85 1.4 -4.85 1.4 -4.8 1.45 -4.8 1.45 -4.8 1.45 -4.75 1.45 -4.75 1.5 -4.7 1.5 -4.7 1.5 -4.7 1.55 -4.65 1.55 -4.65 1.55 -4.6 1.6 -4.6 1.6 -4.45 1.6 -4.1 1.5 -4.1 1.55 -4.05 1.6 -4.05 1.65 -4.0 1.7 -4.0 1.75 -3.95 1.75 -3.9 1.8 -3.9 1.85 -3.85 1.9 -3.85 1.95 -3.8 2.0 -3.75 2.1 -3.7 2.15 -3.7 2.2 -3.65 2.25 -3.6 2.3 -3.4 2.5 -3.25 2.7 -2.45 3.1 -1.9 3.35 -1.8 3.4 -1.65 3.45 -1.55 3.5 -1.45 3.55 -1.35 3.6 -1.2 3.6 -1.15 3.65 -1.05 3.7 -0.95 3.7 -0.85 3.75 -0.75 3.8 -0.65 3.8 -0.6 3.85 -0.5 3.85 -0.45 3.9 -0.35 3.9 0.25 4.1 1.45 4.35 1.45 4.35 1.5 4.35 1.55 4.35 1.6 4.4 1.7 4.4 1.8 4.4 1.9 4.45 2.05 4.45 2.2 4.5 2.35 4.5 2.5 4.5 2.7 4.55 2.9 4.55 3.1 4.55 3.3 4.55 3.55 4.55 3.6 4.55 3.6 4.55 3.65 4.55 3.65 4.55 3.7 4.55 3.75 4.55 3.8 4.55 3.8 4.5 3.85 4.5 3.9 4.5 3.95 4.5 3.95 4.45 4.0 4.45 4.0 4.4 4.05 4.4 4.1 4.35 4.1 4.3 4.15 4.25 4.15 4.25 4.15 4.2 4.15 4.15 4.15 4.1 4.15 4.1 4.15 4.05 4.2 3.9 4.3 3.55 4.3 3.55 4.35 3.6 4.35 3.6 4.4 3.6 4.4 3.65 4.4 3.65 4.45 3.65 4.45 3.7 4.5 3.7 4.5 3.75 4.55 3.75 4.55 3.75 4.6 3.8 4.6 3.8 4.65 3.85 4.65 3.85 4.7 3.9 4.8 4.0 4.85 4.1 4.9 4.15 4.95 4.25 4.95 4.3 5.0 4.4 5.05 4.45 5.05 4.5 5.1 4.6 5.1 4.65 5.15 4.7 5.15 4.8 5.15 4.85 5.2 4.9 5.2 4.95 5.15 5.0 5.15 5.05 5.1 5.1 5.05 5.1 5.0 5.15 4.95 5.2 4.95 5.25 4.9 5.3 4.8 5.35 4.75 5.4 4.7 5.45 4.65 5.5 4.6 5.55 4.5 5.6 4.45 5.65 4.35 5.7 4.25 5.75 4.15 5.8 4.05 5.85 3.95 5.9 3.85 5.95 3.7 5.95 3.6 6.0 3.5 6.0 3.4 6.05 3.3 6.05 3.2 6.05 3.1 6.05 3.0 6.1 2.9 6.1 2.8 6.1 2.7 6.1 2.35 6.1 2.0 6.05 1.65 6.05 1.35 6.0 1.05 6.0 0.75 5.95 0.5 5.9 0.25 5.85 0.05 5.8 -0.2 5.75 -0.35 5.7 -0.5 5.65 -0.6 5.65 -0.7 5.6 -0.75 5.6 -0.75 5.6 -1.0 5.5 -1.25 5.4 -1.5 5.3 -1.75 5.2 -2.0 5.1 -2.2 4.95 -2.45 4.85 -2.7 4.7 -2.9 4.55 -3.15 4.4 -3.4 4.25 -3.7 4.05 -3.9 3.9 -4.25 3.65 -4.45 3.55 -4.9 3.2 -4.95 3.15 -5.0 3.1 -5.1 3.05 -5.15 3.05 -5.2 2.95 -5.3 2.9 -5.35 2.85 -5.45 2.8 -5.5 2.7 -5.6 2.65 -5.65 2.55 -5.75 2.5 -5.8 2.4 -5.9 2.3 -6.0 2.2 -6.05 2.1 -6.1 2.05 -6.15 2.0 -6.15 1.95 -6.2 1.9 -6.25 1.85 -6.25 1.8 -6.3 1.75 -6.3 1.7 -6.35 1.65 -6.35 1.6 -6.4 1.55 -6.4 1.55 -6.45 1.5 -6.45 1.45 -6.45 1.4 -6.5 1.4 L-6.5 1.4" fill="#000000" fill-rule="evenodd" stroke="none"/>
  </g>
</svg>
