<?xml version="1.0" encoding="UTF-8" standalone="no"?>
<svg xmlns:xlink="http://www.w3.org/1999/xlink" height="7.75px" width="17.35px" xmlns="http://www.w3.org/2000/svg">
  <g transform="matrix(1.0, 0.0, 0.0, 1.0, 8.7, 3.9)">
    <path d="M-9.05 -1.4 Q-7.95 -0.7 -5.65 0.6 -5.55 0.15 -5.25 -0.75 -5.15 -0.8 -4.75 -0.9 -4.4 -1.05 -4.15 -1.15 -3.95 -1.2 -3.95 -1.2 -3.8 -1.25 -3.65 -1.3 -3.5 -1.35 -3.3 -1.4 -3.1 -1.4 -2.9 -1.45 -2.7 -1.5 -2.5 -1.55 -2.25 -1.6 -2.0 -1.65 -1.7 -1.7 -1.45 -1.7 -1.15 -1.75 -0.85 -1.8 -0.55 -1.85 -0.25 -1.85 0.05 -1.85 0.3 -1.85 0.6 -1.85 0.85 -1.85 1.1 -1.85 1.35 -1.85 1.6 -1.85 1.85 -1.8 2.1 -1.8 2.35 -1.8 2.55 -1.75 2.8 -1.75 3.0 -1.75 3.25 -1.7 3.5 -1.7 3.75 -1.65 4.0 -1.6 4.25 -1.6 4.55 -1.55 4.85 -1.5 5.1 -1.45 5.4 -1.4 5.75 -1.35 6.05 -1.3 6.4 -1.25 6.7 -1.15 7.05 -1.1 7.4 -1.0 7.75 -0.95 8.1 -0.85 8.1 -0.95 8.1 -1.05 8.1 -1.15 8.05 -1.25 8.05 -1.4 8.0 -1.55 7.95 -1.7 7.9 -1.85 7.85 -2.0 7.8 -2.15 7.7 -2.3 7.6 -2.45 7.5 -2.6 7.4 -2.7 7.25 -2.85 7.1 -2.95 7.05 -3.0 6.95 -3.05 6.9 -3.1 6.8 -3.15 6.75 -3.2 6.65 -3.2 6.55 -3.25 6.5 -3.25 6.4 -3.3 6.3 -3.3 6.2 -3.35 6.1 -3.35 6.0 -3.4 5.9 -3.4 5.8 -3.45 5.7 -3.45 5.5 -3.5 5.25 -3.55 5.05 -3.55 4.85 -3.6 4.65 -3.6 4.5 -3.6 4.3 -3.65 4.15 -3.65 4.0 -3.65 3.9 -3.65 3.75 -3.65 3.65 -3.65 3.6 -3.65 3.5 -3.65 3.45 -3.65 3.45 -3.65 2.5 -3.6 1.05 -3.7 -0.75 -3.85 -3.1 -3.8 -3.3 -3.8 -3.4 -3.8 -3.6 -3.8 -3.8 -3.75 -4.1 -3.75 -4.3 -3.75 -4.6 -3.7 -4.9 -3.65 -5.2 -3.65 -5.45 -3.55 -5.8 -3.5 -6.05 -3.45 -6.35 -3.35 -6.6 -3.25 -6.85 -3.15 -7.1 -3.0 -7.35 -2.85 -7.7 -2.6 -7.95 -2.35 -7.95 -2.35 -8.05 -2.3 -8.15 -2.2 -8.2 -2.15 -8.3 -2.1 -8.4 -2.0 -8.45 -1.95 -8.55 -1.9 -8.6 -1.8 -8.65 -1.75 -8.75 -1.7 -8.8 -1.65 -8.85 -1.6 -8.9 -1.55 -8.95 -1.5 -9.0 -1.45 -9.05 -1.4 L-9.05 -1.4" fill="#284fa5" fill-rule="evenodd" stroke="none"/>
  </g>
</svg>
