<?xml version="1.0" encoding="UTF-8" standalone="no"?>
<svg xmlns:xlink="http://www.w3.org/1999/xlink" height="8.85px" width="24.5px" xmlns="http://www.w3.org/2000/svg">
  <g transform="matrix(1.0, 0.0, 0.0, 1.0, 12.25, 4.45)">
    <path d="M-2.0 -4.45 Q-0.2 -4.45 1.0 -4.35 2.65 -4.2 3.25 -4.15 3.5 -4.15 3.9 -4.1 4.35 -4.05 4.5 -4.0 5.15 -3.95 5.5 -4.0 5.65 -4.0 5.75 -4.0 5.85 -4.0 5.9 -4.0 6.0 -4.0 6.05 -4.0 6.15 -4.0 6.2 -3.95 6.3 -3.95 6.35 -3.95 6.45 -3.9 6.5 -3.9 6.6 -3.85 6.65 -3.85 6.75 -3.8 6.8 -3.75 6.9 -3.75 6.95 -3.7 7.05 -3.65 7.1 -3.6 7.2 -3.6 7.25 -3.55 7.35 -3.5 7.4 -3.45 7.5 -3.4 7.55 -3.35 7.65 -3.3 7.7 -3.25 7.75 -3.2 7.85 -3.15 7.9 -3.05 7.95 -3.0 8.0 -2.95 8.1 -2.9 8.15 -2.8 8.2 -2.75 8.3 -2.65 8.35 -2.55 8.4 -2.45 8.45 -2.4 8.5 -2.3 8.55 -2.2 8.55 -2.1 8.6 -2.0 8.65 -1.9 8.7 -1.8 8.7 -1.7 8.75 -1.6 8.75 -1.5 8.8 -1.4 8.8 -1.3 8.85 -1.2 8.85 -1.1 8.85 -1.05 8.85 -0.95 8.9 -0.85 8.9 -0.75 8.9 -0.65 8.9 -0.55 8.9 -0.45 8.9 -0.4 8.9 -0.3 8.9 -0.2 8.9 -0.1 8.9 0.0 8.85 0.1 8.85 0.25 8.8 0.4 8.75 0.55 8.7 0.7 8.6 0.85 8.55 0.95 8.45 1.1 8.35 1.2 8.25 1.3 8.15 1.4 8.0 1.5 7.85 1.55 7.75 1.6 7.6 1.65 7.45 1.7 7.3 1.75 7.25 1.75 7.2 1.75 7.15 1.75 7.05 1.8 7.0 1.8 6.95 1.8 6.9 1.8 6.85 1.8 6.8 1.8 6.75 1.8 6.7 1.8 6.6 1.8 6.55 1.8 6.5 1.8 6.45 1.75 6.4 1.75 5.95 1.75 5.25 1.7 4.4 1.65 4.05 1.6 3.55 1.6 2.4 1.7 1.7 1.75 1.15 1.85 0.3 2.0 -1.25 2.45 -1.9 2.6 -2.9 2.9 -4.5 3.35 -4.55 3.35 -4.65 3.35 -4.7 3.4 -4.8 3.4 -4.85 3.4 -4.95 3.45 -5.0 3.45 -5.1 3.45 -5.15 3.5 -5.25 3.5 -5.3 3.5 -5.4 3.5 -5.45 3.55 -5.55 3.55 -5.6 3.55 -5.7 3.55 -5.8 3.55 -5.95 3.55 -6.1 3.55 -6.25 3.55 -6.35 3.55 -6.5 3.5 -6.65 3.5 -6.8 3.45 -6.9 3.4 -7.05 3.4 -7.2 3.35 -7.3 3.25 -7.45 3.2 -7.55 3.15 -7.7 3.05 -7.8 3.0 -7.95 2.9 -8.05 2.8 -8.2 2.7 -8.3 2.6 -8.4 2.5 -8.5 2.4 -8.6 2.25 -8.7 2.15 -8.8 2.0 -8.9 1.9 -9.0 1.75 -9.05 1.65 -9.15 1.5 -9.25 1.4 -9.3 1.25 -9.35 1.1 -9.45 0.95 -9.5 0.9 -9.5 0.8 -9.55 0.75 -9.6 0.65 -9.6 0.6 -9.65 0.5 -9.65 0.45 -9.7 0.35 -9.7 0.3 -9.75 0.2 -9.75 0.15 -9.8 0.05 -9.8 -0.05 -9.8 -0.1 -9.8 -0.2 -9.85 -0.3 -9.85 -0.4 -9.85 -0.5 -9.85 -0.6 -9.85 -0.7 -9.85 -0.8 -9.85 -0.9 -9.85 -1.0 -9.8 -1.05 -9.8 -1.15 -9.75 -1.25 -9.75 -1.35 -9.7 -1.45 -9.65 -1.55 -9.65 -1.65 -9.6 -1.7 -9.55 -1.8 -9.5 -1.9 -9.4 -2.05 -9.35 -2.15 -9.25 -2.25 -9.15 -2.35 -9.1 -2.45 -9.0 -2.55 -8.9 -2.65 -8.8 -2.75 -8.7 -2.8 -8.6 -2.9 -8.5 -3.0 -8.4 -3.05 -8.3 -3.15 -8.2 -3.2 -8.1 -3.25 -8.0 -3.3 -7.85 -3.4 -7.75 -3.45 -7.65 -3.5 -7.55 -3.55 -7.4 -3.6 -7.3 -3.65 -7.2 -3.7 -7.05 -3.75 -6.95 -3.75 -6.85 -3.8 -6.7 -3.85 -6.6 -3.9 -6.45 -3.9 -6.35 -3.95 -6.25 -4.0 -6.1 -4.05 -5.95 -4.1 -5.8 -4.1 -5.6 -4.15 -5.45 -4.15 -5.3 -4.2 -5.15 -4.25 -5.0 -4.25 -4.85 -4.25 -4.7 -4.3 -4.55 -4.3 -4.35 -4.35 -4.2 -4.35 -4.05 -4.35 -3.9 -4.35 -3.75 -4.35 -3.15 -4.4 -2.0 -4.45 L-2.0 -4.45 M-5.8 0.5 Q-5.65 -0.1 -5.65 -0.35 -5.65 -0.4 -5.65 -0.4 -5.6 -0.45 -5.6 -0.5 -5.6 -0.5 -5.6 -0.55 -5.55 -0.55 -5.55 -0.6 -5.55 -0.6 -5.5 -0.6 -5.5 -0.65 -5.45 -0.65 -5.45 -0.65 -5.4 -0.7 -5.4 -0.7 -5.35 -0.7 -5.25 -0.75 -5.05 -0.8 -4.85 -0.9 -4.8 -0.9 -4.6 -1.0 -4.4 -1.05 -4.2 -1.15 -4.0 -1.2 -3.8 -1.25 -3.6 -1.3 -3.4 -1.35 -3.15 -1.4 -2.95 -1.45 -2.75 -1.5 -2.55 -1.55 -2.35 -1.6 -2.15 -1.6 -1.95 -1.65 -1.75 -1.7 -1.5 -1.7 -0.9 -1.8 0.15 -1.85 0.25 -1.85 0.4 -1.85 0.5 -1.85 0.6 -1.9 0.7 -1.9 0.85 -1.9 0.95 -1.9 1.05 -1.9 1.2 -1.9 1.3 -1.9 1.4 -1.9 1.55 -1.9 1.65 -1.9 1.75 -1.85 1.9 -1.85 2.0 -1.85 2.85 -1.8 4.25 -1.6 4.45 -1.6 4.65 -1.55 4.8 -1.55 5.0 -1.5 5.2 -1.45 5.4 -1.45 5.6 -1.4 5.8 -1.35 5.95 -1.35 6.15 -1.3 6.35 -1.25 6.55 -1.2 6.7 -1.15 6.9 -1.1 7.1 -1.05 7.3 -1.0 7.3 -1.0 7.4 -0.95 7.4 -1.05 7.35 -1.1 7.35 -1.2 7.35 -1.25 7.3 -1.35 7.3 -1.4 7.25 -1.5 7.25 -1.55 7.2 -1.65 7.15 -1.7 7.15 -1.75 7.1 -1.8 7.05 -1.9 7.0 -1.95 6.95 -2.0 6.9 -2.05 6.85 -2.1 6.85 -2.1 6.8 -2.15 6.75 -2.15 6.75 -2.2 6.7 -2.2 6.65 -2.25 6.65 -2.25 6.6 -2.3 6.55 -2.3 6.55 -2.3 6.5 -2.35 6.45 -2.35 6.45 -2.4 6.4 -2.4 6.35 -2.45 6.3 -2.45 6.3 -2.5 6.25 -2.5 6.2 -2.5 6.15 -2.55 6.1 -2.55 5.5 -2.6 4.7 -2.7 3.75 -2.8 3.05 -2.85 2.9 -2.85 2.75 -2.9 2.65 -2.9 2.5 -2.9 2.35 -2.9 2.2 -2.95 2.1 -2.95 1.95 -2.95 1.8 -2.95 1.7 -2.95 1.55 -3.0 1.4 -3.0 1.25 -3.0 1.15 -3.0 1.0 -3.0 0.85 -3.0 -0.4 -3.05 -1.8 -3.0 -2.0 -3.0 -2.2 -3.0 -2.4 -3.0 -2.55 -3.0 -2.75 -3.0 -2.95 -3.0 -3.15 -3.0 -3.35 -2.95 -3.55 -2.95 -3.75 -2.95 -3.9 -2.95 -4.1 -2.9 -4.3 -2.9 -4.5 -2.85 -4.7 -2.85 -4.85 -2.8 -5.0 -2.8 -5.1 -2.75 -5.25 -2.75 -5.4 -2.7 -5.55 -2.7 -5.65 -2.65 -5.8 -2.65 -5.9 -2.6 -6.05 -2.55 -6.2 -2.5 -6.3 -2.5 -6.45 -2.45 -6.55 -2.4 -6.7 -2.35 -6.8 -2.3 -6.95 -2.25 -7.05 -2.2 -7.1 -2.2 -7.2 -2.15 -7.25 -2.1 -7.35 -2.05 -7.4 -2.0 -7.45 -1.95 -7.55 -1.9 -7.6 -1.85 -7.65 -1.8 -7.75 -1.75 -7.8 -1.7 -7.85 -1.65 -7.9 -1.6 -8.0 -1.55 -8.05 -1.45 -8.1 -1.4 -8.1 -1.4 -8.1 -1.35 -8.15 -1.3 -8.15 -1.3 -8.15 -1.25 -8.15 -1.2 -8.15 -1.15 -8.15 -1.15 -8.15 -1.1 -8.15 -1.05 -8.15 -1.05 -8.15 -1.0 -8.15 -0.95 -8.15 -0.95 -8.1 -0.9 -8.1 -0.9 -8.1 -0.85 -8.1 -0.85 -8.05 -0.8 -8.05 -0.8 -8.0 -0.75 -8.0 -0.75 -8.0 -0.7 -7.95 -0.7 -7.95 -0.7 -7.9 -0.7 -7.85 -0.65 -7.8 -0.6 -7.8 -0.6 -7.1 -0.2 -5.95 0.45 -5.9 0.45 -5.8 0.5 L-5.8 0.5 M3.25 0.2 Q3.2 0.15 3.2 0.15 3.15 0.1 3.15 0.1 3.1 0.05 3.1 0.05 3.1 0.0 3.05 0.0 3.05 0.0 3.0 -0.05 3.0 -0.05 2.95 -0.1 2.95 -0.1 2.9 -0.1 2.9 -0.15 2.85 -0.15 2.7 -0.25 2.55 -0.4 2.4 -0.5 2.25 -0.6 2.1 -0.7 1.95 -0.8 1.75 -0.85 1.6 -0.95 1.4 -1.0 1.25 -1.05 1.05 -1.1 0.85 -1.15 0.7 -1.2 0.5 -1.2 0.3 -1.25 0.1 -1.25 0.0 -1.25 -0.15 -1.25 -0.25 -1.25 -0.35 -1.25 -0.45 -1.25 -0.55 -1.25 -0.7 -1.2 -0.8 -1.2 -0.9 -1.2 -1.0 -1.2 -1.1 -1.2 -1.25 -1.15 -1.35 -1.15 -1.45 -1.15 -1.55 -1.15 -1.65 -1.1 -1.85 -1.05 -2.1 -1.05 -2.3 -1.0 -2.5 -0.95 -2.7 -0.9 -2.95 -0.9 -3.15 -0.85 -3.35 -0.8 -3.55 -0.75 -3.75 -0.65 -3.95 -0.6 -4.15 -0.55 -4.4 -0.45 -4.6 -0.4 -4.8 -0.35 -5.0 -0.25 -5.1 -0.2 -5.1 -0.1 -5.15 0.15 -5.3 0.95 -5.3 1.0 -5.3 1.0 -5.35 1.05 -5.35 1.1 -5.35 1.1 -5.4 1.15 -5.4 1.15 -5.45 1.15 -5.45 1.2 -5.5 1.2 -5.5 1.2 -5.55 1.2 -5.6 1.2 -5.6 1.2 -5.65 1.2 -5.7 1.2 -5.7 1.2 -5.75 1.15 -5.8 1.15 -5.85 1.15 -6.8 0.7 -8.15 -0.15 -8.15 -0.15 -8.3 -0.25 -8.3 -0.25 -8.35 -0.25 -8.35 -0.3 -8.4 -0.3 -8.4 -0.25 -8.35 -0.2 -8.35 -0.15 -8.35 -0.1 -8.35 -0.1 -8.3 -0.05 -8.3 0.0 -8.3 0.05 -8.25 0.1 -8.25 0.15 -8.25 0.15 -8.2 0.2 -8.2 0.25 -8.2 0.3 -8.15 0.35 -8.15 0.35 -8.1 0.45 -8.05 0.55 -8.0 0.65 -7.95 0.75 -7.85 0.85 -7.8 0.95 -7.75 1.05 -7.65 1.15 -7.6 1.25 -7.55 1.3 -7.45 1.4 -7.4 1.5 -7.3 1.55 -7.2 1.65 -7.1 1.7 -7.05 1.75 -7.0 1.8 -6.9 1.85 -6.85 1.9 -6.75 1.95 -6.7 1.95 -6.65 2.0 -6.55 2.05 -6.5 2.05 -6.4 2.1 -6.35 2.1 -6.25 2.1 -6.2 2.15 -6.1 2.15 -6.0 2.15 -5.95 2.15 -5.85 2.15 -5.0 2.0 -4.85 1.95 -3.0 1.45 -1.35 0.95 -1.1 0.9 -0.85 0.85 -0.65 0.75 -0.4 0.7 -0.15 0.65 0.1 0.6 0.35 0.55 0.55 0.5 0.8 0.45 1.05 0.4 1.3 0.4 1.55 0.35 1.8 0.3 2.05 0.3 2.3 0.25 2.55 0.25 2.65 0.25 2.9 0.2 3.15 0.2 3.25 0.2 L3.25 0.2 M7.45 -0.35 Q7.3 -0.4 7.15 -0.45 7.0 -0.5 6.8 -0.55 6.65 -0.6 6.5 -0.6 6.35 -0.65 6.2 -0.7 6.0 -0.75 5.85 -0.75 5.7 -0.8 5.55 -0.85 5.4 -0.85 5.2 -0.9 5.05 -0.9 4.9 -0.95 4.75 -1.0 4.55 -1.0 4.4 -1.0 4.25 -1.05 4.1 -1.05 3.9 -1.1 3.75 -1.1 3.6 -1.15 3.4 -1.15 3.25 -1.15 3.1 -1.2 2.95 -1.2 2.75 -1.2 2.6 -1.2 2.45 -1.25 2.25 -1.25 2.4 -1.1 2.7 -0.85 2.95 -0.6 3.1 -0.5 3.15 -0.45 3.2 -0.4 3.25 -0.35 3.3 -0.3 3.35 -0.25 3.45 -0.2 3.5 -0.15 3.55 -0.15 3.6 -0.1 3.65 -0.05 3.7 0.0 3.8 0.0 3.85 0.05 3.9 0.05 4.0 0.1 4.05 0.1 4.1 0.1 4.1 0.15 4.15 0.15 4.2 0.15 4.25 0.15 4.25 0.15 4.3 0.2 4.35 0.2 5.0 0.25 6.2 0.3 6.65 0.35 6.9 0.35 6.95 0.35 7.05 0.35 7.1 0.35 7.15 0.3 7.2 0.3 7.25 0.25 7.3 0.25 7.3 0.2 7.35 0.2 7.4 0.15 7.4 0.1 7.4 0.05 7.45 0.0 7.45 -0.1 7.45 -0.15 7.45 -0.2 7.45 -0.25 7.45 -0.25 7.45 -0.3 7.45 -0.35 L7.45 -0.35" fill="#000000" fill-rule="evenodd" stroke="none"/>
    <path d="M7.45 -0.35 Q7.45 -0.3 7.45 -0.25 7.45 -0.25 7.45 -0.2 7.45 -0.15 7.45 -0.05 7.45 0.0 7.4 0.05 7.4 0.1 7.35 0.15 7.35 0.2 7.3 0.2 7.3 0.25 7.25 0.25 7.2 0.3 7.15 0.3 7.1 0.35 7.0 0.35 6.95 0.35 6.9 0.35 6.8 0.35 6.2 0.3 5.4 0.25 4.35 0.2 4.25 0.2 4.05 0.1 4.0 0.1 3.9 0.05 3.85 0.05 3.8 0.0 3.7 -0.05 3.65 -0.05 3.6 -0.1 3.55 -0.15 3.5 -0.15 3.4 -0.2 3.35 -0.25 3.3 -0.3 3.25 -0.35 3.2 -0.4 3.15 -0.45 3.1 -0.5 2.45 -1.05 2.25 -1.25 2.4 -1.25 2.6 -1.2 2.75 -1.2 2.9 -1.2 3.1 -1.2 3.25 -1.15 3.4 -1.15 3.6 -1.15 3.75 -1.1 3.9 -1.1 4.05 -1.05 4.25 -1.05 4.4 -1.0 4.55 -1.0 4.7 -1.0 4.9 -0.95 5.05 -0.9 5.2 -0.9 5.4 -0.85 5.55 -0.85 5.7 -0.8 5.85 -0.75 6.05 -0.75 6.2 -0.7 6.35 -0.65 6.5 -0.6 6.65 -0.6 6.85 -0.55 7.0 -0.5 7.15 -0.45 7.3 -0.4 7.45 -0.35 L7.45 -0.35" fill="#000000" fill-opacity="0.30980393" fill-rule="evenodd" stroke="none"/>
  </g>
</svg>
