<?xml version="1.0" encoding="UTF-8" standalone="no"?>
<svg xmlns:xlink="http://www.w3.org/1999/xlink" height="10.0px" width="38.8px" xmlns="http://www.w3.org/2000/svg">
  <g transform="matrix(1.0, 0.0, 0.0, 1.0, 19.4, 5.0)">
    <path d="M-7.75 -2.55 Q-7.85 -2.6 -7.95 -2.65 -8.1 -2.7 -8.2 -2.7 -8.3 -2.75 -8.4 -2.75 -8.55 -2.75 -8.65 -2.75 -8.75 -2.75 -8.85 -2.75 -8.95 -2.7 -9.05 -2.7 -9.15 -2.65 -9.25 -2.6 -9.35 -2.55 -9.45 -2.5 -9.5 -2.45 -9.55 -2.4 -9.6 -2.35 -9.65 -2.25 -9.7 -2.2 -9.75 -2.1 -9.8 -2.05 -9.85 -1.95 -9.9 -1.9 -9.9 -1.8 -9.95 -1.7 -9.95 -1.65 -9.95 -1.55 -9.95 -1.45 -9.95 -1.4 -9.9 -1.3 -9.9 -1.25 -9.85 -1.15 -9.8 -1.1 -9.75 -1.05 -9.75 -1.0 -9.7 -0.95 -9.65 -0.9 -9.55 -0.9 -9.5 -0.85 -9.45 -0.8 -9.4 -0.8 -9.35 -0.75 -9.25 -0.7 -9.2 -0.7 -9.15 -0.7 -9.1 -0.65 -9.0 -0.6 -8.9 -0.6 -8.75 -0.55 -8.65 -0.5 -8.55 -0.5 -8.45 -0.5 -8.35 -0.5 -8.25 -0.5 -8.2 -0.5 -8.1 -0.5 -8.0 -0.5 -7.95 -0.5 -7.85 -0.5 -7.8 -0.5 -7.75 -0.5 -7.65 -0.55 -7.7 -1.2 -7.75 -2.55 L-7.75 -2.55" fill="#170404" fill-rule="evenodd" stroke="none"/>
    <path d="M5.1 -4.55 Q5.2 -3.65 5.45 -1.8 5.5 -1.8 5.55 -1.8 5.6 -1.8 5.65 -1.8 5.7 -1.8 5.8 -1.8 5.85 -1.8 5.95 -1.85 6.0 -1.85 6.1 -1.85 6.15 -1.9 6.25 -1.95 6.35 -1.95 6.4 -2.0 6.5 -2.05 6.6 -2.1 6.85 -2.3 6.65 -2.15 6.75 -2.2 6.8 -2.25 6.85 -2.3 6.9 -2.35 7.0 -2.4 7.05 -2.5 7.1 -2.6 7.15 -2.65 7.25 -2.75 7.3 -2.85 7.35 -3.0 7.35 -3.1 7.4 -3.25 7.4 -3.35 7.4 -3.45 7.35 -3.6 7.35 -3.7 7.3 -3.8 7.25 -3.9 7.2 -4.0 7.2 -4.05 7.1 -4.15 7.05 -4.2 7.0 -4.3 6.95 -4.35 6.95 -4.4 6.9 -4.4 6.85 -4.45 6.85 -4.45 6.8 -4.45 6.7 -4.5 6.6 -4.6 6.5 -4.65 6.4 -4.65 6.3 -4.7 6.2 -4.75 6.1 -4.75 6.0 -4.75 5.85 -4.75 5.75 -4.75 5.65 -4.75 5.55 -4.7 5.4 -4.7 5.3 -4.65 5.2 -4.6 5.1 -4.55 L5.1 -4.55" fill="#170404" fill-rule="evenodd" stroke="none"/>
  </g>
</svg>
