<?xml version="1.0" encoding="UTF-8" standalone="no"?>
<svg xmlns:xlink="http://www.w3.org/1999/xlink" height="143.1px" width="84.15px" xmlns="http://www.w3.org/2000/svg">
  <g transform="matrix(1.0, 0.0, 0.0, 1.0, 43.55, 1.85)">
    <path d="M2.9 30.85 Q2.85 30.9 2.75 30.9 2.7 30.95 2.6 30.95 2.55 30.95 2.45 30.95 2.4 30.95 2.35 30.9 2.25 30.9 2.2 30.85 2.15 30.85 2.05 30.8 2.0 30.8 1.95 30.75 1.85 30.7 1.8 30.65 1.7 30.6 1.65 30.55 1.55 30.5 1.45 30.4 1.4 30.35 1.3 30.25 1.25 30.2 1.2 30.1 1.1 30.05 1.05 29.95 1.0 29.85 0.95 29.75 0.9 29.7 0.85 29.6 0.8 29.5 0.75 29.4 0.75 29.35 0.75 29.3 0.8 29.25 0.8 29.25 0.8 29.2 0.8 29.15 0.75 28.65 0.7 27.85 0.65 26.75 0.65 26.6 0.6 25.95 0.55 24.55 0.5 23.55 0.4 21.3 0.4 21.0 0.35 19.45 0.25 17.65 0.2 16.25 0.2 16.1 0.15 15.3 0.1 14.75 0.1 14.35 0.05 13.35 -0.05 11.15 -0.05 10.9 -0.1 9.3 -0.2 7.45 -0.25 6.1 -0.25 6.0 -0.3 5.15 -0.35 4.55 -0.35 4.2 -0.4 3.0 -0.5 1.05 -0.5 0.9 -0.55 -0.9 -0.55 -1.1 -0.65 -2.5 -0.65 -3.5 -0.7 -4.15 -0.4 -4.2 0.05 -4.3 0.6 -4.4 0.8 -4.45 0.8 -4.45 1.35 -4.55 1.4 -3.95 1.4 -3.6 1.4 -3.35 1.45 -2.6 1.5 -1.95 1.5 -1.6 1.5 -1.6 1.6 0.45 1.6 0.85 1.7 2.5 1.7 3.05 1.75 4.55 1.8 5.35 1.85 6.55 1.9 7.5 1.95 8.6 1.95 9.0 2.0 9.6 2.05 10.45 2.05 10.6 2.05 11.1 2.15 12.7 2.15 13.1 2.2 14.7 2.25 15.65 2.35 17.8 2.4 19.05 2.45 19.75 2.45 20.55 2.6 22.9 2.6 23.15 2.65 24.85 2.75 26.75 2.8 28.0 2.85 29.0 2.85 29.65 2.85 29.8 2.9 30.25 2.9 30.6 2.9 30.85 L2.9 30.85" fill="#fa0102" fill-rule="evenodd" stroke="none"/>
    <path d="M2.9 30.85 Q2.9 30.6 2.9 30.25 2.9 29.8 2.85 29.65 2.85 29.2 2.8 28.0 2.8 27.4 2.75 26.4 2.7 25.25 2.65 24.85 2.65 24.35 2.6 22.9 2.5 21.4 2.45 19.75 2.35 17.9 2.35 17.8 2.35 17.45 2.3 16.25 2.25 15.3 2.2 14.7 2.2 14.3 2.15 12.7 2.1 11.85 2.05 10.6 2.0 9.7 1.95 8.6 1.9 7.35 1.85 6.55 1.85 6.45 1.75 4.55 1.75 4.05 1.7 2.5 1.65 1.6 1.6 0.45 1.55 -0.35 1.5 -1.6 1.4 -3.1 1.4 -3.6 1.4 -3.7 1.4 -4.05 1.35 -4.35 1.35 -4.55 1.5 -4.55 1.6 -4.6 1.75 -4.6 1.9 -4.6 2.0 -4.6 2.15 -4.6 2.25 -4.65 2.4 -4.65 2.55 -4.65 2.65 -4.65 2.8 -4.65 2.9 -4.65 3.05 -4.65 3.2 -4.65 3.3 -4.65 3.45 -4.65 3.45 -4.05 3.55 -1.55 3.6 -1.0 3.65 0.5 3.7 1.45 3.75 2.55 3.75 2.9 3.8 3.55 3.85 4.2 3.85 4.55 3.85 5.1 3.95 6.6 3.95 7.2 4.0 8.65 4.05 9.35 4.1 10.7 4.15 11.45 4.2 12.7 4.2 12.85 4.2 12.95 4.2 13.1 4.2 13.2 4.25 13.35 4.25 13.5 4.25 13.6 4.25 13.75 4.25 13.85 4.25 14.0 4.25 14.1 4.25 14.25 4.3 14.4 4.3 14.5 4.3 14.65 4.3 14.75 4.3 15.15 4.35 15.75 4.4 16.65 4.4 16.8 4.4 17.8 4.5 19.85 4.55 20.8 4.6 21.85 4.7 24.1 4.75 24.95 4.75 25.15 4.8 25.95 4.8 26.55 4.85 26.95 4.9 28.3 4.95 30.05 4.9 30.05 4.85 30.0 4.8 30.0 4.8 30.0 4.75 29.95 4.7 29.9 4.7 29.85 4.65 29.85 4.65 29.8 4.6 29.75 4.55 29.65 4.45 29.45 4.4 29.25 4.35 29.15 4.25 29.05 4.25 29.05 4.2 29.05 4.15 29.1 4.25 28.9 4.15 29.15 3.85 29.95 3.7 30.2 3.65 30.25 3.65 30.3 3.6 30.35 3.55 30.4 3.5 30.45 3.45 30.5 3.4 30.55 3.35 30.6 3.35 30.65 3.3 30.65 3.2 30.7 3.15 30.75 3.1 30.75 3.05 30.8 3.0 30.8 2.9 30.85 L2.9 30.85" fill="#0301fb" fill-rule="evenodd" stroke="none"/>
    <path d="M-0.7 -4.15 Q-0.6 -2.45 -0.55 -0.9 -0.55 -0.3 -0.5 1.05 -0.4 2.35 -0.35 4.2 -0.25 5.85 -0.25 6.1 -0.25 6.45 -0.2 7.7 -0.15 8.7 -0.1 9.3 -0.1 9.8 -0.05 11.15 0.05 12.65 0.1 14.35 0.1 14.35 0.15 15.3 0.2 15.9 0.2 16.25 0.2 16.75 0.25 17.85 0.3 18.9 0.35 19.45 0.35 19.9 0.4 21.3 0.5 22.75 0.55 24.55 0.55 24.85 0.6 25.55 0.65 26.2 0.65 26.6 0.7 27.0 0.7 27.85 0.75 28.7 0.8 29.15 0.8 29.2 0.8 29.25 0.8 29.25 0.8 29.3 0.75 29.35 0.75 29.4 0.6 29.05 0.25 28.0 0.0 27.45 -0.05 27.35 -0.1 27.3 -0.1 27.3 -0.15 27.25 -0.2 27.25 -0.2 27.25 -0.25 27.25 -0.25 27.3 -0.3 27.3 -0.35 27.35 -0.7 27.95 -0.7 27.95 -0.75 28.05 -0.8 28.1 -0.85 28.15 -0.85 28.2 -0.9 28.25 -0.95 28.3 -0.95 28.35 -1.0 28.4 -1.05 28.45 -1.1 28.5 -1.15 28.5 -1.15 28.55 -1.2 28.6 -1.25 28.65 -1.3 28.65 -1.3 28.6 -1.35 27.5 -1.4 26.85 -1.45 25.5 -1.5 24.7 -1.55 23.45 -1.6 22.3 -1.65 21.4 -1.65 21.05 -1.7 20.4 -1.75 19.65 -1.75 19.35 -1.75 19.05 -1.85 17.35 -1.85 16.75 -1.9 15.3 -1.95 14.55 -2.0 13.25 -2.05 12.3 -2.1 11.25 -2.1 10.9 -2.15 10.2 -2.2 9.55 -2.2 9.2 -2.2 8.9 -2.3 7.15 -2.3 6.55 -2.35 5.1 -2.4 4.45 -2.45 3.1 -2.5 2.35 -2.55 1.05 -2.65 -0.85 -2.65 -1.0 -2.7 -1.5 -2.7 -2.3 -2.75 -3.6 -2.75 -3.65 -2.6 -3.7 -2.5 -3.75 -2.35 -3.75 -2.25 -3.8 -2.1 -3.85 -2.0 -3.85 -1.85 -3.9 -1.75 -3.95 -1.6 -3.95 -1.5 -4.0 -1.35 -4.0 -1.25 -4.05 -1.1 -4.05 -0.95 -4.1 -0.85 -4.1 -0.7 -4.15 L-0.7 -4.15" fill="#fc00fa" fill-rule="evenodd" stroke="none"/>
    <path d="M-2.75 -3.65 Q-2.75 -3.35 -2.7 -2.3 -2.65 -1.5 -2.65 -1.0 -2.6 -0.4 -2.55 1.05 -2.5 1.7 -2.45 3.1 -2.45 3.8 -2.35 5.1 -2.35 5.7 -2.3 7.15 -2.25 8.05 -2.2 9.2 -2.15 10.3 -2.1 11.25 -2.1 11.6 -2.05 12.25 -2.0 12.95 -2.0 13.25 -2.0 13.8 -1.9 15.3 -1.9 15.85 -1.85 17.35 -1.8 18.15 -1.75 19.35 -1.7 20.3 -1.65 21.4 -1.65 21.75 -1.6 22.4 -1.55 23.1 -1.55 23.45 -1.55 24.05 -1.45 25.5 -1.45 25.6 -1.45 25.75 -1.45 25.85 -1.45 26.0 -1.45 26.1 -1.45 26.25 -1.45 26.35 -1.4 26.5 -1.4 26.6 -1.4 26.75 -1.4 26.85 -1.4 27.0 -1.4 27.1 -1.4 27.25 -1.4 27.35 -1.35 27.5 -1.35 28.4 -1.3 28.65 -1.45 28.75 -1.55 28.8 -1.7 28.85 -1.8 28.9 -1.95 28.9 -2.1 28.9 -2.2 28.9 -2.35 28.85 -2.45 28.8 -2.55 28.7 -2.65 28.65 -2.75 28.55 -2.85 28.4 -2.9 28.3 -3.0 28.15 -3.05 28.0 -3.05 27.95 -3.3 26.75 -3.3 26.7 -3.3 26.65 -3.3 26.6 -3.3 26.55 -3.3 26.5 -3.3 26.5 -3.3 26.45 -3.35 26.4 -3.35 26.25 -3.5 26.3 -3.5 25.95 -3.55 25.35 -3.55 24.7 -3.6 24.4 -3.65 23.5 -3.7 22.35 -3.7 21.75 -3.75 20.35 -3.8 19.6 -3.85 18.3 -3.9 17.45 -3.95 16.3 -3.95 15.95 -4.0 15.25 -4.05 14.55 -4.05 14.2 -4.05 13.55 -4.15 12.2 -4.15 11.45 -4.2 10.15 -4.25 9.45 -4.3 8.15 -4.35 7.4 -4.4 6.1 -4.4 5.9 -4.45 5.05 -4.5 4.45 -4.5 4.05 -4.55 3.1 -4.65 1.0 -4.65 0.45 -4.7 -1.0 -4.7 -1.3 -4.75 -2.1 -4.8 -2.8 -4.8 -3.2 -4.7 -3.2 -4.6 -3.25 -4.55 -3.25 -4.45 -3.25 -4.35 -3.3 -4.25 -3.3 -4.05 -3.35 -4.05 -3.35 -3.95 -3.4 -3.85 -3.4 -3.75 -3.45 -3.65 -3.45 -3.55 -3.45 -3.45 -3.5 -3.35 -3.5 -3.3 -3.5 -3.25 -3.5 -2.75 -3.65 L-2.75 -3.65" fill="#01fe00" fill-rule="evenodd" stroke="none"/>
    <path d="M-4.8 -3.2 Q-4.8 -2.8 -4.75 -2.1 -4.75 -1.25 -4.7 -1.0 -4.7 -0.4 -4.65 1.0 -4.55 2.25 -4.5 4.05 -4.4 5.6 -4.4 6.1 -4.35 6.95 -4.3 8.15 -4.3 8.75 -4.2 10.15 -4.2 10.9 -4.15 12.2 -4.1 12.9 -4.05 14.2 -4.0 14.9 -3.95 16.3 -3.85 18.15 -3.85 18.3 -3.85 18.95 -3.75 20.35 -3.75 20.95 -3.7 22.35 -3.65 22.75 -3.6 24.4 -3.55 24.8 -3.55 25.35 -3.5 26.3 -3.5 26.3 -3.65 26.65 -3.85 27.4 -4.05 28.15 -4.2 28.5 -4.25 28.6 -4.25 28.65 -4.25 28.75 -4.3 28.8 -4.3 28.9 -4.35 28.95 -4.4 29.05 -4.4 29.1 -4.45 29.2 -4.45 29.25 -4.5 29.35 -4.55 29.4 -4.6 29.45 -4.6 29.55 -4.65 29.6 -4.7 29.65 -4.75 29.7 -4.8 29.75 -4.8 29.8 -4.85 29.85 -4.9 29.9 -4.95 29.9 -5.0 29.95 -5.0 30.0 -5.05 30.0 -5.1 30.05 -5.15 30.1 -5.2 30.1 -5.25 30.15 -5.3 30.2 -5.35 30.2 -5.4 30.25 -5.45 29.15 -5.5 28.45 -5.5 27.55 -5.6 26.4 -5.6 25.65 -5.65 24.35 -5.7 23.7 -5.75 22.3 -5.8 21.15 -5.85 20.3 -5.85 20.1 -5.95 18.25 -5.95 17.8 -6.05 16.2 -6.05 15.65 -6.1 14.15 -6.15 13.3 -6.2 12.15 -6.25 11.35 -6.3 10.1 -6.3 9.6 -6.4 8.1 -6.4 7.5 -6.5 6.05 -6.5 5.4 -6.55 4.0 -6.6 3.3 -6.65 1.95 -6.65 1.6 -6.7 0.95 -6.75 0.25 -6.75 -0.05 -6.75 -0.25 -6.85 -2.8 -6.15 -2.95 -4.8 -3.2 L-4.8 -3.2" fill="#02fdfe" fill-rule="evenodd" stroke="none"/>
    <path d="M-6.85 -2.8 Q-6.85 -2.7 -6.8 -1.45 -6.8 -0.6 -6.75 -0.05 -6.7 0.55 -6.65 1.95 -6.65 2.6 -6.55 4.0 -6.55 4.55 -6.5 6.05 -6.45 6.7 -6.4 8.1 -6.35 8.8 -6.3 10.1 -6.25 11.1 -6.2 12.15 -6.2 12.2 -6.1 14.15 -6.1 14.7 -6.05 16.2 -6.0 17.05 -5.95 18.25 -5.9 19.05 -5.85 20.3 -5.8 21.6 -5.75 22.3 -5.7 23.15 -5.65 24.35 -5.65 25.1 -5.6 26.4 -5.55 26.85 -5.5 28.45 -5.45 28.9 -5.4 30.25 -5.5 30.3 -5.55 30.3 -5.65 30.35 -5.75 30.35 -5.8 30.4 -5.9 30.4 -6.0 30.4 -6.05 30.35 -6.15 30.35 -6.25 30.35 -6.3 30.3 -6.4 30.25 -6.5 30.25 -6.55 30.2 -6.65 30.15 -6.7 30.05 -6.8 29.95 -6.9 29.85 -7.0 29.75 -7.1 29.65 -7.15 29.55 -7.25 29.45 -7.3 29.3 -7.35 29.2 -7.4 29.1 -7.45 28.95 -7.45 28.85 -7.5 28.7 -7.5 28.55 -7.55 28.4 -7.55 28.3 -7.55 28.15 -7.6 27.7 -7.75 23.8 -7.75 22.75 -7.8 22.35 -7.8 22.0 -7.85 20.55 -7.85 19.45 -7.9 18.75 -7.9 18.05 -7.95 16.3 -7.95 16.25 -8.0 16.25 -8.0 16.2 -8.05 16.15 -8.05 16.15 -8.05 16.1 -8.05 16.1 -8.1 16.05 -8.1 16.0 -8.1 16.0 -8.1 15.95 -8.1 15.95 -8.1 15.9 -8.1 15.85 -8.1 15.85 -8.1 15.8 -8.1 15.75 -8.1 15.7 -8.1 15.65 -8.1 15.6 -8.1 15.55 -8.1 15.5 -8.1 15.45 -8.1 15.45 -8.1 15.4 -8.1 15.35 -8.1 15.35 -8.1 15.35 -8.1 15.3 -8.15 15.3 -8.15 15.3 -8.15 15.3 -8.15 15.3 -8.15 15.3 -8.2 15.3 -8.2 15.35 -8.2 15.35 -8.2 15.35 -8.25 15.4 -8.25 15.4 -8.25 15.45 -8.3 15.45 -8.3 15.5 -8.35 15.5 -8.35 15.55 -8.4 15.55 -8.45 15.55 -8.45 15.6 -8.5 15.6 -8.6 15.6 -8.65 15.6 -8.7 15.55 -8.8 15.55 -8.85 15.5 -8.9 15.45 -9.0 15.4 -9.05 15.35 -9.1 15.3 -9.15 15.25 -9.2 15.2 -9.25 15.15 -9.25 15.1 -9.3 15.05 -9.3 15.05 -9.4 14.9 -9.5 14.75 -9.6 14.6 -9.65 14.4 -9.75 14.25 -9.8 14.1 -9.8 13.95 -9.85 13.8 -9.9 13.7 -9.9 13.55 -9.9 13.45 -9.9 13.35 -9.9 13.3 -9.9 13.2 -9.9 13.15 -9.9 13.15 -9.9 12.95 -9.85 12.85 -9.85 12.7 -9.8 12.55 -9.8 12.45 -9.7 12.35 -9.7 12.25 -9.6 12.15 -9.5 11.9 -9.45 11.9 -9.35 11.7 -9.3 11.55 -9.2 11.35 -9.1 11.15 -9.0 10.9 -8.9 10.6 -8.85 10.4 -8.8 10.2 -8.75 10.05 -8.7 9.85 -8.65 9.65 -8.6 9.5 -8.6 9.35 -8.55 9.15 -8.55 9.0 -8.5 8.85 -8.5 8.75 -8.45 8.6 -8.45 8.5 -8.45 8.4 -8.4 8.3 -8.4 8.2 -8.35 7.95 -8.35 7.65 -8.35 7.5 -8.3 7.4 -8.3 7.3 -8.3 6.95 -8.3 6.65 -8.3 6.5 -8.35 5.55 -8.4 3.95 -8.4 3.05 -8.5 0.45 -8.5 0.45 -8.5 0.4 -8.55 0.35 -8.55 0.35 -8.6 0.35 -8.65 0.3 -8.7 0.3 -8.7 0.25 -8.7 0.25 -8.7 0.2 -8.7 0.2 -8.7 0.15 -8.7 0.1 -8.7 0.1 -8.65 0.05 -8.65 0.0 -8.65 0.0 -8.65 -0.05 -8.65 -0.1 -8.65 -0.1 -8.6 -1.7 -8.65 -2.35 -8.7 -2.5 -8.7 -2.55 -8.65 -2.6 -8.6 -2.65 -8.6 -2.65 -8.45 -2.65 -8.1 -2.65 -7.65 -2.7 -6.9 -2.8 -6.85 -2.8 L-6.85 -2.8" fill="#f8fa01" fill-rule="evenodd" stroke="none"/>
    <path d="M4.95 30.05 Q4.95 29.5 4.9 28.5 4.85 27.4 4.85 26.95 4.8 26.2 4.75 24.95 4.75 24.75 4.75 24.55 4.7 24.35 4.7 24.2 4.7 24.0 4.7 23.8 4.7 23.6 4.65 23.4 4.65 23.2 4.65 23.0 4.65 22.85 4.65 22.65 4.65 22.45 4.6 22.25 4.6 22.05 4.6 21.85 4.6 21.35 4.5 19.85 4.5 19.3 4.4 16.8 4.4 16.65 4.4 16.55 4.4 16.4 4.35 16.3 4.35 16.15 4.35 16.05 4.35 15.9 4.35 15.75 4.35 15.65 4.35 15.5 4.3 15.4 4.3 15.25 4.3 15.15 4.3 15.0 4.3 14.9 4.3 14.75 4.25 14.0 4.2 12.7 4.2 12.3 4.15 11.7 4.1 10.9 4.1 10.7 4.1 10.05 4.0 8.65 4.0 8.05 3.95 6.6 3.9 5.9 3.85 4.55 3.8 3.65 3.75 2.55 3.75 2.5 3.65 0.5 3.6 -0.55 3.55 -1.55 3.55 -1.95 3.5 -3.1 3.45 -4.05 3.45 -4.65 3.6 -4.65 4.25 -4.65 5.05 -4.1 4.35 -4.6 4.35 -4.6 4.3 -4.5 4.3 -4.45 4.25 -4.45 4.25 -4.4 4.25 -4.35 4.25 -4.3 4.25 -4.25 4.25 -4.25 4.25 -4.2 4.25 -4.15 4.25 -4.1 4.25 -4.1 4.25 -4.05 4.25 -3.95 4.25 -3.95 4.25 -3.9 4.25 -3.85 4.4 -1.9 4.4 -0.85 4.4 -0.75 4.4 -0.75 4.4 -0.7 4.4 -0.65 4.4 -0.6 4.45 -0.55 4.5 -0.5 4.5 -0.45 4.55 -0.4 4.55 -0.3 4.6 -0.25 4.6 -0.2 4.6 -0.15 4.6 -0.05 4.65 0.0 4.65 0.05 4.65 0.1 4.65 0.2 4.65 0.35 4.65 0.35 4.65 0.4 4.65 0.45 4.7 1.05 4.75 2.15 4.75 3.35 4.8 3.85 4.85 4.5 4.9 5.45 4.95 6.95 4.95 7.1 5.0 7.8 5.05 9.25 5.05 9.5 5.1 10.85 5.15 11.8 5.2 12.4 5.25 12.65 5.25 12.85 5.3 13.1 5.3 13.35 5.35 13.6 5.4 13.8 5.45 14.05 5.5 14.25 5.55 14.5 5.6 14.7 5.7 14.95 5.75 15.15 5.85 15.35 5.95 15.6 6.05 15.8 6.15 16.0 6.15 16.05 6.2 16.05 6.2 16.1 6.2 16.1 6.2 16.15 6.25 16.2 6.25 16.25 6.3 16.25 6.3 16.3 6.3 16.3 6.35 16.35 6.35 16.35 6.35 16.4 6.35 16.45 6.4 16.45 6.4 16.5 6.4 16.55 6.4 16.7 6.4 16.85 6.4 16.9 6.4 17.1 6.45 17.7 6.5 18.25 6.45 18.55 6.6 18.95 6.45 18.6 6.5 18.65 6.5 18.65 6.45 18.7 6.45 18.8 6.4 18.85 6.35 18.9 6.35 18.95 6.3 19.0 6.25 19.05 6.2 19.1 6.15 19.15 6.1 19.15 6.05 19.2 6.0 19.25 5.95 19.25 5.9 19.3 5.85 19.3 5.75 19.35 5.7 19.35 5.65 19.4 5.65 19.4 5.6 19.4 5.6 19.45 5.6 19.45 5.55 19.5 5.55 19.5 5.55 19.55 5.55 19.6 5.55 19.6 5.55 19.65 5.55 19.65 5.55 19.7 5.55 19.7 5.55 19.75 5.6 20.1 5.7 22.9 5.75 23.5 5.8 24.95 5.9 26.25 5.9 26.95 5.9 27.2 5.9 27.55 5.95 28.0 5.95 28.1 5.95 28.2 5.95 28.25 5.95 28.35 5.95 28.45 5.95 28.5 5.95 28.6 5.95 28.7 5.95 28.75 5.95 28.85 5.95 28.95 5.9 29.0 5.9 29.1 5.9 29.15 5.9 29.25 5.9 29.35 5.9 29.4 5.9 29.45 5.85 29.5 5.85 29.55 5.85 29.6 5.85 29.65 5.8 29.7 5.8 29.7 5.8 29.75 5.75 29.8 5.75 29.85 5.7 29.9 5.7 29.95 5.65 30.0 5.65 30.05 5.6 30.05 5.55 30.1 5.5 30.1 5.45 30.1 5.4 30.15 5.35 30.15 5.3 30.15 5.25 30.15 5.2 30.15 5.1 30.1 5.05 30.1 4.95 30.05 L4.95 30.05" fill="#010101" fill-rule="evenodd" stroke="none"/>
    <path d="M6.5 18.65 Q6.45 18.65 6.45 18.6 6.45 18.6 6.45 18.55 6.5 18.25 6.45 17.7 6.4 17.15 6.4 16.9 6.4 16.8 6.4 16.5 6.5 16.65 6.55 16.75 6.6 16.9 6.65 17.0 6.7 17.15 6.75 17.3 6.75 17.4 6.75 17.55 6.8 17.7 6.8 17.8 6.75 17.95 6.75 18.1 6.7 18.2 6.65 18.35 6.6 18.5 6.55 18.65 6.55 18.65 6.5 18.65 L6.5 18.65" fill="#8e063b" fill-rule="evenodd" stroke="none"/>
  </g>
</svg>
