<?xml version="1.0" encoding="UTF-8" standalone="no"?>
<svg xmlns:xlink="http://www.w3.org/1999/xlink" height="9.65px" width="16.0px" xmlns="http://www.w3.org/2000/svg">
  <g transform="matrix(1.0, 0.0, 0.0, 1.0, 8.0, 4.8)">
    <path d="M-8.8 -3.4 Q-8.85 -3.3 -8.85 -3.2 -8.85 -3.05 -8.8 -2.95 -8.8 -2.8 -8.75 -2.65 -8.7 -2.5 -8.6 -2.3 -8.5 -2.15 -8.4 -1.95 -8.3 -1.75 -8.15 -1.5 -8.0 -1.3 -7.8 -1.0 -7.7 -0.85 -7.45 -0.45 -7.3 -0.2 -7.2 -0.05 -7.05 0.15 -6.95 0.3 -6.8 0.5 -6.7 0.65 -6.55 0.85 -6.45 1.0 -6.3 1.15 -6.2 1.3 -6.05 1.45 -5.9 1.55 -5.75 1.7 -5.6 1.8 -5.4 1.95 -5.25 2.05 -5.1 2.15 -4.95 2.2 -4.8 2.25 -4.65 2.3 -4.5 2.4 -4.35 2.4 -4.2 2.45 -4.05 2.5 -3.9 2.55 -3.7 2.55 -3.5 2.6 -3.3 2.6 -3.1 2.65 -2.9 2.7 -2.7 2.7 -2.4 2.75 -1.9 2.8 -1.75 2.8 -1.35 2.85 -1.05 2.85 -0.7 2.9 -0.4 2.9 -0.05 2.9 0.25 2.9 0.6 2.9 0.95 2.85 1.3 2.85 1.65 2.75 2.0 2.7 2.35 2.6 2.7 2.5 3.1 2.4 3.35 2.3 3.35 2.3 3.5 2.25 3.65 2.2 3.8 2.1 3.95 2.05 4.1 1.95 4.25 1.9 4.45 1.8 4.6 1.7 4.8 1.55 5.0 1.45 5.15 1.3 5.35 1.15 5.55 1.0 5.7 0.85 6.05 0.5 6.4 0.15 6.65 -0.25 6.9 -0.65 7.1 -1.0 7.3 -1.4 7.45 -1.75 7.6 -2.15 7.7 -2.5 7.8 -2.85 7.85 -3.15 7.9 -3.45 7.95 -3.7 7.95 -3.95 8.0 -4.15 8.0 -4.35 7.65 -4.35 7.3 -4.3 6.9 -4.3 6.5 -4.3 6.1 -4.25 5.65 -4.25 5.15 -4.25 4.7 -4.25 4.2 -4.2 3.65 -4.2 3.1 -4.2 2.55 -4.2 1.95 -4.2 1.35 -4.2 0.75 -4.2 0.15 -4.2 -0.7 -4.2 -1.75 -4.25 -10.15 -4.4 -3.45 -4.25 -4.35 -4.3 -4.9 -4.3 -5.6 -4.3 -6.15 -4.25 -6.75 -4.25 -7.15 -4.2 -7.6 -4.15 -7.95 -4.05 -8.3 -3.95 -8.5 -3.8 -8.7 -3.6 -8.8 -3.4 L-8.8 -3.4" fill="#b23b3b" fill-rule="evenodd" stroke="none"/>
  </g>
</svg>
