<?xml version="1.0" encoding="UTF-8" standalone="no"?>
<svg xmlns:xlink="http://www.w3.org/1999/xlink" height="11.25px" width="17.7px" xmlns="http://www.w3.org/2000/svg">
  <g transform="matrix(1.0, 0.0, 0.0, 1.0, 8.85, 5.6)">
    <path d="M7.65 -4.55 Q7.75 -4.55 8.55 -4.6 9.1 -4.6 9.5 -4.6 9.55 -4.6 9.6 -4.6 9.6 -4.6 9.65 -4.6 9.7 -4.55 9.75 -4.55 9.75 -4.55 9.8 -4.5 9.8 -4.5 9.85 -4.45 9.85 -4.45 9.9 -4.4 9.9 -4.35 9.9 -4.3 9.9 -4.25 9.95 -4.25 9.95 -3.85 9.95 -3.75 9.6 -2.95 9.55 -2.85 9.25 -2.35 8.6 -1.4 7.55 0.1 6.9 0.7 6.6 1.0 6.3 1.25 6.0 1.5 5.65 1.7 5.35 1.95 5.0 2.15 4.65 2.3 4.35 2.5 3.95 2.65 3.6 2.8 3.25 2.95 2.85 3.05 2.5 3.15 2.1 3.2 1.7 3.25 1.3 3.3 1.0 3.35 0.75 3.35 0.45 3.35 0.2 3.35 -0.1 3.4 -0.4 3.4 -0.65 3.4 -0.95 3.35 -1.25 3.35 -1.5 3.35 -1.8 3.35 -2.05 3.3 -2.35 3.3 -2.65 3.25 -2.9 3.2 -3.2 3.15 -3.5 3.1 -3.8 3.05 -4.1 3.0 -4.4 2.9 -4.7 2.8 -4.95 2.7 -5.25 2.6 -5.5 2.5 -5.8 2.35 -6.05 2.25 -6.3 2.1 -6.6 1.95 -6.85 1.75 -7.1 1.6 -7.3 1.4 -7.55 1.2 -7.8 1.0 -8.0 0.8 -8.2 0.6 -8.4 0.4 -8.6 0.15 -8.75 -0.05 -8.95 -0.3 -9.1 -0.55 -9.25 -0.8 -9.35 -1.05 -9.5 -1.3 -9.6 -1.55 -9.7 -1.8 -9.8 -2.1 -9.85 -2.4 -9.9 -2.7 -9.95 -2.85 -9.95 -3.05 -9.95 -3.2 -9.95 -3.35 -9.9 -3.45 -9.85 -3.6 -9.8 -3.7 -9.75 -3.8 -9.65 -3.95 -9.55 -4.0 -9.45 -4.1 -9.35 -4.15 -9.2 -4.2 -9.05 -4.25 -8.9 -4.3 -8.75 -4.35 -8.1 -4.35 -8.0 -4.35 -5.3 -4.35 -0.55 -4.35 2.55 -4.45 7.65 -4.55 L7.65 -4.55 M5.3 -3.15 Q5.3 -3.2 5.3 -3.2 5.25 -3.25 5.25 -3.25 5.25 -3.3 5.2 -3.35 5.2 -3.4 5.2 -3.45 5.15 -3.5 5.1 -3.5 5.1 -3.55 5.05 -3.55 5.0 -3.6 4.95 -3.6 4.95 -3.65 4.9 -3.65 4.85 -3.65 4.8 -3.7 4.75 -3.7 4.7 -3.7 4.65 -3.7 4.6 -3.7 4.55 -3.7 4.55 -3.7 4.5 -3.7 4.45 -3.7 4.4 -3.75 4.35 -3.75 4.3 -3.75 4.3 -3.75 4.25 -3.75 4.2 -3.75 4.15 -3.75 4.1 -3.75 4.05 -3.75 4.05 -3.75 3.7 -3.75 2.15 -3.75 1.0 -3.75 0.3 -3.75 -0.2 -3.75 -1.0 -3.7 -2.0 -3.6 -2.25 -3.6 -2.9 -3.6 -3.35 -3.55 -3.4 -3.55 -3.5 -3.55 -3.55 -3.55 -3.6 -3.5 -3.7 -3.5 -3.75 -3.5 -3.8 -3.45 -3.85 -3.4 -3.9 -3.4 -4.0 -3.35 -4.05 -3.3 -4.1 -3.3 -4.15 -3.25 -4.2 -3.2 -4.25 -3.15 -4.3 -3.1 -4.3 -3.1 -4.4 -3.0 -4.4 -3.05 -4.4 -3.1 -4.4 -3.1 -4.45 -3.15 -4.45 -3.2 -4.5 -3.25 -4.5 -3.3 -4.5 -3.35 -4.55 -3.4 -4.55 -3.45 -4.6 -3.45 -4.65 -3.5 -4.65 -3.5 -4.7 -3.55 -4.75 -3.55 -4.8 -3.6 -4.85 -3.6 -4.9 -3.6 -4.95 -3.6 -5.0 -3.6 -5.15 -3.6 -5.3 -3.65 -5.45 -3.65 -5.65 -3.65 -5.8 -3.65 -5.95 -3.65 -6.1 -3.65 -6.25 -3.65 -6.4 -3.65 -6.55 -3.65 -6.7 -3.65 -6.85 -3.65 -7.05 -3.6 -7.2 -3.6 -7.35 -3.6 -7.5 -3.55 -7.55 -3.55 -7.6 -3.5 -7.6 -3.5 -7.65 -3.45 -7.65 -3.4 -7.65 -3.35 -7.6 -3.25 -7.6 -3.15 -7.55 -3.0 -7.55 -2.9 -7.5 -2.8 -7.45 -2.7 -7.45 -2.6 -7.4 -2.5 -7.35 -2.35 -7.3 -2.25 -7.25 -2.15 -7.2 -2.05 -7.1 -2.0 -7.05 -1.9 -7.0 -1.8 -6.9 -1.7 -6.85 -1.65 -6.85 -1.65 -6.8 -1.6 -6.75 -1.6 -6.75 -1.6 -6.7 -1.55 -6.65 -1.55 -6.65 -1.55 -6.6 -1.55 -6.55 -1.55 -6.5 -1.55 -6.5 -1.55 -6.45 -1.55 -6.4 -1.55 -6.35 -1.55 -6.3 -1.6 -6.2 -1.65 -6.1 -1.65 -6.0 -1.7 -5.9 -1.75 -5.8 -1.8 -5.7 -1.8 -5.6 -1.85 -5.5 -1.9 -5.4 -1.95 -5.3 -2.0 -5.2 -2.05 -5.1 -2.1 -5.0 -2.15 -4.95 -2.2 -4.85 -2.3 -4.75 -2.35 -4.7 -2.35 -4.7 -2.4 -4.65 -2.4 -4.65 -2.4 -4.6 -2.4 -4.55 -2.45 -4.55 -2.45 -4.5 -2.45 -4.45 -2.45 -4.45 -2.45 -4.4 -2.45 -4.4 -2.45 -4.35 -2.45 -4.3 -2.4 -4.3 -2.4 -4.25 -2.4 -4.1 -2.35 -4.05 -2.3 -3.95 -2.25 -3.85 -2.25 -3.75 -2.2 -3.65 -2.15 -3.55 -2.1 -3.45 -2.1 -3.35 -2.05 -3.25 -2.0 -3.15 -2.0 -3.05 -2.0 -2.95 -1.95 -2.85 -1.95 -2.7 -1.95 -2.6 -1.95 -2.3 -1.95 -1.3 -2.2 -1.25 -2.2 -1.2 -2.2 -1.15 -2.2 -1.15 -2.2 -1.1 -2.2 -1.05 -2.2 -1.0 -2.2 -1.0 -2.2 -0.95 -2.15 -0.9 -2.15 -0.4 -1.9 -0.15 -1.8 -0.1 -1.8 0.0 -1.75 0.05 -1.75 0.15 -1.75 0.2 -1.75 0.3 -1.75 0.35 -1.75 0.45 -1.75 0.5 -1.75 0.6 -1.8 0.65 -1.8 0.7 -1.8 0.8 -1.85 0.85 -1.85 0.95 -1.85 1.0 -1.9 1.15 -1.95 1.45 -2.0 1.8 -2.1 1.85 -2.1 1.9 -2.1 1.9 -2.1 1.95 -2.15 2.0 -2.15 2.05 -2.15 2.05 -2.15 2.1 -2.15 2.1 -2.15 2.15 -2.1 2.2 -2.1 2.2 -2.1 2.25 -2.1 2.25 -2.05 2.3 -2.05 2.3 -2.05 2.35 -2.0 2.4 -1.95 2.45 -1.9 2.5 -1.9 2.55 -1.85 2.6 -1.85 2.65 -1.8 2.65 -1.8 2.7 -1.8 2.75 -1.8 2.85 -1.8 2.9 -1.8 2.95 -1.8 3.0 -1.8 3.05 -1.85 3.1 -1.85 3.15 -1.9 3.2 -1.9 3.25 -1.95 3.35 -1.95 3.4 -2.0 3.45 -2.0 3.5 -2.05 3.55 -2.05 3.65 -2.05 3.7 -2.1 3.75 -2.1 3.8 -2.15 3.85 -2.15 3.95 -2.15 4.0 -2.2 4.05 -2.2 4.1 -2.2 4.15 -2.2 4.2 -2.2 4.2 -2.25 4.25 -2.2 4.3 -2.2 4.35 -2.2 4.4 -2.2 4.4 -2.15 4.45 -2.15 4.45 -2.15 4.5 -2.1 4.5 -2.1 4.55 -2.1 4.55 -2.05 4.6 -2.05 4.6 -2.05 4.65 -2.0 4.65 -2.0 4.7 -2.0 4.7 -1.95 4.75 -1.95 4.75 -1.9 4.75 -1.95 4.8 -1.9 4.85 -1.85 4.9 -1.8 4.95 -1.8 5.0 -1.75 5.05 -1.75 5.1 -1.75 5.15 -1.7 5.15 -1.7 5.2 -1.7 5.25 -1.7 5.3 -1.7 5.35 -1.75 5.4 -1.75 5.45 -1.75 5.5 -1.8 5.55 -1.85 5.6 -1.85 5.65 -1.9 5.65 -1.9 5.7 -1.95 5.75 -2.0 5.8 -2.0 5.8 -2.05 5.85 -2.05 5.9 -2.1 5.95 -2.15 6.0 -2.15 6.0 -2.2 6.05 -2.25 6.1 -2.25 6.1 -2.3 6.15 -2.35 6.2 -2.4 6.2 -2.4 6.25 -2.45 6.3 -2.5 6.3 -2.5 6.35 -2.55 6.4 -2.6 6.4 -2.6 6.45 -2.65 6.5 -2.7 6.5 -2.75 6.55 -2.75 6.55 -2.8 6.6 -2.85 6.6 -2.9 6.65 -2.95 6.75 -3.1 7.15 -3.65 7.0 -3.7 6.9 -3.7 6.75 -3.7 6.65 -3.65 6.55 -3.65 6.4 -3.6 6.3 -3.6 6.2 -3.55 6.1 -3.5 5.95 -3.45 5.9 -3.4 5.75 -3.35 5.6 -3.3 5.55 -3.25 5.4 -3.2 5.3 -3.15 L5.3 -3.15 M-5.75 1.05 Q-5.65 1.2 -5.6 1.3 -5.5 1.4 -5.4 1.5 -5.3 1.6 -5.15 1.7 -5.05 1.75 -4.9 1.8 -4.8 1.9 -4.65 1.95 -4.55 1.95 -4.4 2.0 -4.25 2.05 -4.1 2.1 -4.05 2.1 -3.8 2.15 -3.5 2.2 -3.15 2.3 -2.85 2.35 -2.5 2.4 -2.2 2.4 -1.85 2.45 -1.55 2.5 -1.2 2.5 -0.85 2.5 -0.55 2.5 -0.2 2.5 0.1 2.5 0.45 2.5 0.8 2.45 1.1 2.45 1.45 2.4 1.6 2.4 1.8 2.35 1.95 2.35 2.1 2.3 2.25 2.3 2.4 2.25 2.55 2.2 2.75 2.15 2.9 2.1 3.05 2.05 3.2 2.0 3.35 1.95 3.5 1.9 3.65 1.85 3.8 1.75 3.95 1.7 4.6 1.45 4.7 1.4 4.75 1.35 4.8 1.35 4.85 1.3 4.9 1.25 4.95 1.25 4.95 1.2 5.0 1.15 5.05 1.1 5.05 1.05 5.05 1.0 5.1 0.95 5.1 0.85 5.1 0.8 5.1 0.75 5.1 0.65 5.05 0.6 5.2 0.7 5.4 0.95 5.5 0.55 5.5 0.45 5.5 0.3 5.45 0.1 5.45 -0.15 5.4 -0.2 5.4 -0.25 5.4 -0.3 5.4 -0.3 5.4 -0.35 5.4 -0.4 5.35 -0.4 5.35 -0.45 5.35 -0.45 5.3 -0.5 5.3 -0.5 5.25 -0.5 5.25 -0.55 5.2 -0.55 5.2 -0.55 5.15 -0.6 5.1 -0.6 5.05 -0.6 4.95 -0.65 4.8 -0.7 4.75 -0.7 4.7 -0.7 4.7 -0.75 4.65 -0.75 4.6 -0.75 4.6 -0.75 4.55 -0.75 4.5 -0.75 4.45 -0.75 4.45 -0.75 4.4 -0.75 4.35 -0.7 4.35 -0.7 4.3 -0.7 4.3 -0.65 4.25 -0.65 4.2 -0.65 3.75 -0.15 3.7 -0.1 3.65 -0.05 3.6 0.05 3.55 0.1 3.5 0.15 3.45 0.2 3.4 0.25 3.35 0.3 3.3 0.35 3.25 0.4 3.2 0.45 3.15 0.5 3.1 0.55 3.0 0.6 2.95 0.65 2.9 0.65 2.85 0.7 2.7 0.75 2.55 0.85 2.45 0.9 2.3 0.95 2.15 1.0 2.0 1.05 1.85 1.1 1.7 1.15 1.55 1.2 1.4 1.2 1.3 1.25 1.15 1.3 1.0 1.3 0.85 1.3 0.7 1.35 0.55 1.35 -0.25 1.45 -1.5 1.45 -1.7 1.45 -1.9 1.45 -2.1 1.45 -2.3 1.45 -2.45 1.4 -2.65 1.4 -2.85 1.35 -3.05 1.3 -3.25 1.3 -3.4 1.25 -3.6 1.2 -3.8 1.15 -3.95 1.1 -4.15 1.05 -4.35 1.0 -4.55 0.95 -4.6 0.9 -4.65 0.9 -4.7 0.9 -4.75 0.85 -4.85 0.85 -4.85 0.8 -4.95 0.75 -4.95 0.75 -5.0 0.7 -5.05 0.65 -5.1 0.65 -5.15 0.6 -5.2 0.55 -5.25 0.5 -5.3 0.45 -5.3 0.4 -5.35 0.35 -5.35 0.3 -5.4 0.25 -5.45 0.25 -5.5 0.2 -5.55 0.2 -5.55 0.15 -5.6 0.15 -5.65 0.15 -5.7 0.15 -5.75 0.2 -5.8 0.2 -5.8 0.2 -5.85 0.25 -5.9 0.3 -5.95 0.35 -6.1 0.45 -6.35 0.85 -6.4 0.95 -6.35 1.0 -6.0 1.2 -5.8 1.35 -5.8 1.25 -5.75 1.05 L-5.75 1.05" fill="#000000" fill-rule="evenodd" stroke="none"/>
  </g>
</svg>
