<?xml version="1.0" encoding="UTF-8" standalone="no"?>
<svg xmlns:xlink="http://www.w3.org/1999/xlink" height="15.7px" width="22.05px" xmlns="http://www.w3.org/2000/svg">
  <g transform="matrix(1.0, 0.0, 0.0, 1.0, 11.0, 7.85)">
    <path d="M2.75 6.8 Q2.95 6.8 3.0 6.8 3.15 6.8 3.3 6.75 3.5 6.75 3.65 6.7 3.8 6.7 3.95 6.65 4.1 6.65 4.25 6.6 4.4 6.55 4.55 6.5 4.7 6.45 4.85 6.4 5.0 6.3 5.15 6.25 5.3 6.2 5.45 6.1 5.5 6.1 5.5 6.05 5.55 6.05 5.6 6.0 5.65 6.0 5.7 5.95 5.7 5.95 5.75 5.9 5.8 5.85 5.8 5.85 5.95 5.7 6.1 5.55 6.2 5.45 6.35 5.3 6.5 5.15 6.6 5.0 6.75 4.85 6.85 4.7 7.0 4.55 7.1 4.4 7.2 4.25 7.3 4.1 7.45 3.9 7.55 3.75 7.65 3.6 7.75 3.45 7.8 3.35 7.9 3.2 7.95 3.1 8.0 2.95 8.05 2.85 8.1 2.7 8.15 2.6 8.15 2.45 8.2 2.35 8.25 2.2 8.3 2.1 8.3 1.95 8.35 1.85 8.4 1.7 8.4 1.6 8.45 1.45 8.5 1.3 8.5 1.1 8.55 0.95 8.55 0.8 8.55 0.65 8.6 0.45 8.6 0.3 8.6 0.15 8.65 -0.05 8.65 -0.2 8.65 -0.35 8.65 -0.55 8.7 -0.7 8.7 -0.85 8.7 -1.0 8.7 -1.2 8.7 -1.35 8.7 -1.55 8.7 -1.7 8.7 -1.9 8.7 -2.05 8.65 -2.2 8.65 -2.4 8.65 -2.55 8.6 -2.7 8.6 -2.9 8.55 -3.05 8.5 -3.2 8.5 -3.4 8.45 -3.55 8.4 -3.7 8.4 -3.9 8.4 -3.95 8.35 -4.05 8.35 -4.1 8.3 -4.15 8.3 -4.2 8.25 -4.25 8.25 -4.3 8.2 -4.35 8.15 -4.4 8.15 -4.45 8.1 -4.5 8.05 -4.55 8.0 -4.6 7.95 -4.65 7.9 -4.7 7.85 -4.75 7.45 -5.0 7.1 -5.25 6.7 -5.55 6.35 -5.75 5.95 -6.0 5.55 -6.2 5.15 -6.4 4.7 -6.55 4.3 -6.75 3.9 -6.9 3.45 -7.05 3.0 -7.15 2.6 -7.3 2.15 -7.4 1.7 -7.45 1.25 -7.55 0.95 -7.55 -0.15 -7.6 -0.2 -7.6 -0.25 -7.6 -0.3 -7.6 -0.35 -7.55 -0.4 -7.55 -0.45 -7.55 -0.5 -7.55 -0.55 -7.5 -0.6 -7.5 -0.65 -7.45 -0.7 -7.45 -0.75 -7.4 -0.8 -7.35 -0.8 -7.3 -0.85 -7.3 -0.9 -7.25 -1.05 -7.1 -2.2 -6.0 -2.35 -6.15 -2.35 -6.2 -2.4 -6.3 -2.45 -6.35 -2.5 -6.4 -2.55 -6.5 -2.6 -6.55 -2.7 -6.65 -2.75 -6.7 -2.8 -6.75 -2.85 -6.85 -2.9 -6.9 -3.0 -6.95 -3.05 -7.05 -3.1 -7.1 -3.15 -7.15 -3.2 -7.2 -3.3 -7.3 -3.35 -7.35 -3.35 -7.35 -3.4 -7.4 -3.45 -7.4 -3.5 -7.4 -3.5 -7.45 -3.55 -7.45 -3.6 -7.45 -3.65 -7.45 -3.7 -7.45 -3.75 -7.45 -3.75 -7.45 -3.8 -7.45 -3.85 -7.45 -3.9 -7.4 -3.95 -7.4 -4.15 -7.3 -4.35 -7.25 -4.5 -7.15 -4.7 -7.05 -4.9 -7.0 -5.05 -6.9 -5.25 -6.8 -5.4 -6.7 -5.6 -6.6 -5.75 -6.5 -5.95 -6.35 -6.1 -6.25 -6.25 -6.15 -6.4 -6.0 -6.6 -5.85 -6.75 -5.75 -6.9 -5.6 -7.05 -5.45 -7.2 -5.3 -7.35 -5.1 -7.45 -4.95 -7.55 -4.75 -7.7 -4.6 -7.8 -4.4 -7.9 -4.2 -7.95 -4.0 -8.05 -3.85 -8.1 -3.6 -8.15 -3.4 -8.2 -3.2 -8.3 -3.0 -8.3 -2.8 -8.35 -2.6 -8.35 -2.4 -8.4 -2.2 -8.4 -2.0 -8.4 -1.8 -8.45 -1.6 -8.45 -1.4 -8.45 -1.2 -8.4 -1.0 -8.4 -0.8 -8.4 -0.65 -8.35 -0.45 -8.35 -0.25 -8.3 -0.05 -8.3 0.15 -8.25 0.35 -8.2 0.5 -8.2 0.6 -8.15 0.75 -8.15 0.9 -8.1 1.0 -8.05 1.15 -8.05 1.25 -8.0 1.4 -7.95 1.5 -7.95 1.65 -7.9 1.8 -7.85 1.9 -7.8 2.05 -7.75 2.15 -7.7 2.3 -7.65 2.4 -7.6 2.55 -7.5 2.7 -7.45 2.85 -7.35 3.0 -7.3 3.15 -7.2 3.3 -7.1 3.45 -7.0 3.6 -6.95 3.75 -6.85 3.9 -6.75 4.05 -6.65 4.15 -6.55 4.3 -6.4 4.45 -6.3 4.55 -6.2 4.7 -6.15 4.75 -6.05 4.85 -6.0 4.9 -5.9 5.0 -5.8 5.05 -5.7 5.15 -5.6 5.2 -5.5 5.3 -5.4 5.35 -5.25 5.4 -5.15 5.45 -5.05 5.55 -4.95 5.6 -4.9 5.6 -4.8 5.65 -4.7 5.7 -4.7 5.7 -4.75 5.65 -4.75 5.65 -4.75 5.6 -4.95 5.45 -5.1 5.3 -5.25 5.1 -5.45 4.95 -5.6 4.75 -5.7 4.55 -5.85 4.4 -6.0 4.2 -6.1 4.0 -6.25 3.8 -6.35 3.6 -6.45 3.4 -6.55 3.15 -6.65 2.95 -6.75 2.75 -6.85 2.5 -6.9 2.3 -7.0 2.15 -7.05 1.95 -7.1 1.75 -7.15 1.55 -7.2 1.4 -7.3 1.2 -7.3 1.0 -7.35 0.8 -7.4 0.6 -7.45 0.4 -7.5 0.25 -7.5 0.05 -7.55 -0.15 -7.55 -0.35 -7.6 -0.55 -7.6 -0.75 -7.6 -0.95 -7.6 -1.2 -7.6 -1.4 -7.6 -1.6 -7.6 -1.8 -7.6 -2.0 -7.55 -2.2 -7.55 -2.45 -7.5 -2.65 -7.45 -2.85 -7.4 -3.05 -7.35 -3.25 -7.25 -3.45 -7.2 -3.65 -7.1 -3.8 -7.05 -3.9 -7.05 -3.95 -7.0 -4.0 -6.95 -4.1 -6.9 -4.15 -6.9 -4.25 -6.85 -4.3 -6.8 -4.35 -6.75 -4.45 -6.7 -4.5 -6.65 -4.55 -6.6 -4.65 -6.55 -4.7 -6.5 -4.75 -6.6 -4.65 -6.4 -4.9 -6.4 -4.9 -6.1 -5.15 -6.0 -5.25 -5.85 -5.35 -5.7 -5.45 -5.6 -5.55 -5.45 -5.65 -5.3 -5.75 -5.2 -5.85 -5.05 -5.9 -4.9 -6.0 -4.75 -6.1 -4.65 -6.15 -4.5 -6.25 -4.35 -6.3 -4.2 -6.35 -4.05 -6.45 -3.9 -6.5 -3.9 -6.5 -3.75 -6.55 -3.7 -6.5 -3.5 -6.3 -3.35 -6.1 -3.25 -6.0 -3.2 -5.95 -3.15 -5.85 -3.1 -5.8 -3.05 -5.75 -3.0 -5.7 -2.95 -5.65 -2.85 -5.55 -2.8 -5.5 -2.75 -5.45 -2.7 -5.4 -2.65 -5.35 -2.55 -5.3 -2.5 -5.25 -2.45 -5.2 -2.4 -5.15 -2.3 -5.1 -2.2 -5.05 -2.2 -5.0 -2.15 -5.0 -2.1 -5.0 -2.05 -5.0 -2.0 -5.1 -1.95 -5.1 -1.95 -5.15 -1.9 -5.15 -1.85 -5.2 -1.85 -5.2 -1.8 -5.25 -1.75 -5.25 -1.75 -5.3 -1.7 -5.3 -1.7 -5.3 -1.65 -5.35 -1.6 -5.35 -1.6 -5.4 -1.55 -5.4 -1.55 -5.45 -1.5 -5.45 -1.35 -5.6 -0.95 -6.0 -0.6 -6.35 -0.4 -6.55 -0.35 -6.6 -0.35 -6.6 -0.3 -6.65 -0.3 -6.65 -0.25 -6.65 -0.2 -6.7 -0.2 -6.7 -0.15 -6.7 -0.1 -6.7 -0.05 -6.75 -0.05 -6.75 0.0 -6.75 0.05 -6.75 0.1 -6.75 0.1 -6.75 0.15 -6.75 0.25 -6.75 0.4 -6.75 0.5 -6.75 0.6 -6.75 0.7 -6.7 0.85 -6.7 0.95 -6.7 1.05 -6.7 1.2 -6.7 1.3 -6.65 1.4 -6.65 1.5 -6.65 1.65 -6.6 1.75 -6.6 1.85 -6.55 1.95 -6.55 2.3 -6.5 2.6 -6.4 2.95 -6.3 3.25 -6.2 3.6 -6.1 3.9 -6.0 4.2 -5.85 4.5 -5.7 4.8 -5.6 5.1 -5.45 5.4 -5.3 5.7 -5.1 6.0 -4.95 6.3 -4.75 6.55 -4.6 6.85 -4.4 6.9 -4.4 6.9 -4.35 6.95 -4.35 7.0 -4.3 7.0 -4.3 7.05 -4.25 7.1 -4.25 7.1 -4.2 7.15 -4.2 7.2 -4.2 7.2 -4.15 7.25 -4.15 7.3 -4.1 7.3 -4.1 7.35 -4.05 7.35 -4.05 7.4 -4.0 7.4 -4.0 7.45 -3.95 7.45 -3.95 7.5 -3.9 7.5 -3.9 7.5 -3.85 7.5 -3.8 7.55 -3.65 7.55 -3.55 7.6 -3.45 7.6 -3.3 7.65 -3.2 7.7 -3.1 7.7 -2.95 7.75 -2.85 7.75 -2.7 7.8 -2.6 7.8 -2.45 7.8 -2.35 7.85 -2.2 7.85 -2.1 7.85 -1.95 7.85 -1.85 7.85 -1.6 7.85 -1.4 7.85 -1.15 7.85 -0.9 7.85 -0.7 7.8 -0.45 7.8 -0.2 7.8 0.0 7.75 0.25 7.75 0.45 7.7 0.7 7.65 0.95 7.6 1.15 7.6 1.4 7.55 1.6 7.45 1.85 7.45 1.95 7.4 2.05 7.35 2.15 7.35 2.25 7.3 2.35 7.25 2.45 7.25 2.5 7.2 2.6 7.15 2.7 7.1 2.8 7.05 2.9 7.0 3.0 6.95 3.05 6.9 3.15 6.85 3.25 6.8 3.35 6.7 3.5 6.55 3.7 6.45 3.85 6.3 4.0 6.2 4.15 6.05 4.35 5.95 4.5 5.8 4.65 5.65 4.8 5.5 4.95 5.35 5.1 5.25 5.2 5.1 5.35 4.9 5.5 4.75 5.65 4.6 5.75 4.5 5.85 4.4 5.9 4.3 5.95 4.2 6.05 4.1 6.1 4.0 6.15 3.9 6.25 3.8 6.3 3.65 6.35 3.55 6.4 3.45 6.45 3.35 6.5 3.25 6.55 3.1 6.6 3.0 6.65 2.9 6.7 2.85 6.75 2.8 6.75 2.8 6.75 2.75 6.8 L2.75 6.8" fill="#000000" fill-rule="evenodd" stroke="none"/>
  </g>
</svg>
