<?xml version="1.0" encoding="UTF-8" standalone="no"?>
<svg xmlns:xlink="http://www.w3.org/1999/xlink" height="13.2px" width="22.3px" xmlns="http://www.w3.org/2000/svg">
  <g transform="matrix(1.0, 0.0, 0.0, 1.0, 11.15, 6.6)">
    <path d="M3.05 2.7 Q2.9 2.7 2.75 2.7 2.6 2.7 2.5 2.7 2.35 2.7 2.25 2.65 2.1 2.65 2.0 2.65 1.85 2.65 1.75 2.6 1.65 2.6 1.55 2.55 1.45 2.55 1.3 2.5 1.2 2.5 1.1 2.45 0.1 2.2 -0.55 2.0 -1.15 1.85 -2.15 1.45 -3.2 1.05 -3.75 0.75 -4.6 0.35 -5.9 -0.35 -6.2 -0.5 -6.7 -0.85 -7.2 -1.15 -7.45 -1.3 -7.7 -1.45 -8.3 -1.8 -8.9 -2.15 -9.2 -2.35 -9.4 -2.45 -9.9 -2.95 -9.95 -3.0 -9.95 -3.0 -10.0 -3.05 -10.0 -3.1 -10.05 -3.15 -10.05 -3.2 -10.05 -3.2 -10.1 -3.25 -10.1 -3.3 -10.1 -3.35 -10.1 -3.4 -10.05 -3.45 -10.05 -3.5 -10.0 -3.55 -10.0 -3.6 -9.95 -3.65 -9.9 -3.65 -9.9 -3.7 -9.85 -3.7 -9.8 -3.75 -9.75 -3.75 -9.7 -3.75 -9.65 -3.75 -9.6 -3.75 -9.55 -3.75 -9.5 -3.75 -9.45 -3.75 -9.35 -3.7 -9.3 -3.7 -9.25 -3.65 -9.2 -3.6 -9.15 -3.6 -9.05 -3.55 -9.0 -3.5 -8.95 -3.5 -8.9 -3.45 -8.85 -3.4 -8.8 -3.4 -8.75 -3.35 -8.7 -3.3 -8.65 -3.25 -8.6 -3.2 -8.55 -3.2 -8.55 -3.15 -8.5 -3.15 -8.5 -3.15 -8.45 -3.1 -8.4 -3.1 -8.4 -3.1 -8.35 -3.05 -8.3 -3.05 -8.3 -3.05 -8.25 -3.05 -8.2 -3.05 -8.2 -3.05 -8.15 -3.05 -8.1 -3.05 -8.05 -3.05 -7.85 -3.05 -7.65 -3.1 -7.45 -3.1 -7.2 -3.15 -7.0 -3.15 -6.8 -3.15 -6.6 -3.15 -6.35 -3.2 -6.15 -3.2 -5.95 -3.2 -5.75 -3.2 -5.5 -3.2 -5.3 -3.2 -5.1 -3.2 -4.9 -3.2 -4.65 -3.2 -1.75 -3.15 -0.5 -3.05 0.75 -3.0 2.6 -2.75 2.75 -2.75 2.9 -2.7 3.1 -2.7 3.25 -2.65 3.4 -2.65 3.55 -2.6 3.7 -2.6 3.85 -2.55 4.05 -2.55 4.2 -2.5 4.35 -2.5 4.5 -2.45 4.65 -2.4 4.8 -2.4 5.0 -2.35 5.15 -2.3 5.25 -2.3 5.4 -2.25 5.5 -2.2 5.65 -2.2 5.75 -2.15 5.9 -2.15 6.0 -2.1 6.15 -2.05 6.25 -2.0 6.4 -2.0 6.5 -1.95 6.65 -1.9 6.75 -1.85 6.9 -1.8 7.0 -1.8 7.1 -1.75 7.2 -1.7 7.35 -1.65 7.45 -1.6 7.55 -1.55 7.65 -1.5 7.75 -1.45 7.85 -1.35 7.95 -1.3 8.05 -1.25 8.15 -1.15 8.25 -1.1 8.35 -1.0 8.45 -0.95 8.55 -0.85 8.65 -0.8 8.75 -0.7 8.8 -0.7 8.8 -0.65 8.85 -0.65 8.85 -0.6 8.9 -0.55 8.9 -0.55 8.95 -0.5 9.0 -0.5 9.05 -0.5 9.05 -0.45 9.1 -0.45 9.15 -0.45 9.2 -0.45 9.2 -0.45 9.25 -0.45 9.3 -0.5 9.35 -0.5 9.4 -0.5 9.4 -0.5 9.45 -0.5 9.5 -0.5 9.55 -0.55 9.55 -0.55 9.6 -0.55 9.65 -0.55 9.7 -0.55 9.7 -0.55 9.75 -0.6 9.8 -0.6 9.85 -0.6 9.9 -0.6 9.9 -0.6 9.95 -0.6 10.0 -0.6 10.05 -0.6 10.05 -0.6 10.1 -0.6 10.15 -0.6 10.15 -0.6 10.2 -0.55 10.25 -0.55 10.3 -0.55 10.3 -0.5 10.35 -0.5 10.35 -0.5 10.4 -0.45 10.45 -0.45 10.45 -0.4 10.5 -0.4 10.5 -0.35 10.55 -0.3 10.55 -0.3 10.6 -0.25 10.6 -0.2 10.65 -0.1 10.6 -0.05 10.6 0.05 10.6 0.1 10.55 0.15 10.5 0.2 9.75 0.6 9.65 0.7 9.55 0.75 8.55 1.15 7.9 1.45 7.5 1.6 6.7 1.95 6.15 2.15 6.05 2.2 6.0 2.2 5.95 2.25 5.85 2.25 5.8 2.3 5.75 2.3 5.65 2.35 5.6 2.35 5.5 2.35 5.45 2.4 5.4 2.4 5.3 2.4 5.25 2.45 5.15 2.45 5.1 2.45 5.0 2.45 4.85 2.45 4.65 2.5 4.35 2.55 4.25 2.55 3.85 2.6 3.05 2.7 L3.05 2.7 M-3.8 -2.5 Q-4.9 -2.5 -6.55 -2.45 -6.75 -2.45 -7.5 -2.4 -7.5 -2.4 -7.55 -2.35 -7.55 -2.35 -7.6 -2.35 -7.55 -2.25 -7.55 -2.25 -7.5 -2.25 -7.45 -2.2 -7.45 -2.2 -7.4 -2.15 -7.35 -2.15 -7.3 -2.1 -7.3 -2.1 -7.25 -2.05 -7.2 -2.05 -7.15 -2.05 -7.15 -2.0 -7.1 -2.0 -7.05 -1.95 -7.0 -1.95 -7.0 -1.9 -6.95 -1.9 -6.9 -1.9 -6.8 -1.8 -6.7 -1.7 -6.6 -1.7 -6.55 -1.65 -6.55 -1.65 -6.55 -1.6 -6.5 -1.6 -6.45 -1.55 -6.45 -1.55 -5.55 -1.0 -5.0 -0.65 -4.75 -0.5 -3.9 -0.05 -3.25 0.3 -2.85 0.55 -2.65 0.65 -2.5 0.75 -2.3 0.85 -2.15 0.95 -1.95 1.05 -1.75 1.15 -1.55 1.2 -1.4 1.3 -1.2 1.4 -1.0 1.45 -0.85 1.55 -0.65 1.65 -0.45 1.7 -0.25 1.75 -0.05 1.85 0.15 1.9 0.25 1.95 0.4 1.95 0.5 2.0 0.65 2.0 0.75 2.05 0.85 2.05 1.0 2.1 1.1 2.1 1.25 2.15 1.35 2.15 1.5 2.15 1.6 2.15 1.75 2.2 1.85 2.2 1.95 2.2 2.1 2.2 2.65 2.2 3.4 2.2 3.5 2.2 3.8 2.15 3.95 2.1 4.15 2.05 4.35 2.0 4.45 1.95 4.95 1.85 5.0 1.85 5.55 1.6 5.85 1.45 5.95 1.4 6.05 1.35 6.15 1.3 6.25 1.25 6.35 1.2 6.4 1.15 6.5 1.1 6.6 1.05 6.7 0.95 6.75 0.9 6.85 0.85 6.95 0.75 7.0 0.7 7.1 0.65 7.35 0.45 7.25 0.5 7.3 0.45 7.35 0.4 7.4 0.4 7.45 0.35 7.45 0.3 7.5 0.25 7.55 0.2 7.55 0.1 7.6 0.05 7.6 0.0 7.65 -0.05 7.65 -0.1 7.65 -0.15 7.7 -0.2 7.75 -0.3 7.75 -0.35 7.8 -0.4 7.8 -0.45 7.8 -0.5 7.8 -0.5 7.8 -0.55 7.75 -0.6 7.7 -0.6 7.65 -0.65 7.5 -0.75 7.35 -0.8 7.25 -0.9 7.1 -1.0 6.95 -1.05 6.8 -1.1 6.65 -1.15 6.45 -1.2 6.3 -1.3 6.15 -1.35 6.0 -1.35 5.85 -1.4 5.7 -1.45 5.55 -1.5 5.4 -1.55 5.2 -1.6 4.2 -1.8 3.7 -1.85 2.6 -2.05 1.75 -2.15 0.65 -2.3 -0.9 -2.4 -1.3 -2.4 -2.25 -2.45 -3.2 -2.5 -3.8 -2.5 L-3.8 -2.5" fill="#000000" fill-rule="evenodd" stroke="none"/>
  </g>
</svg>
