<?xml version="1.0" encoding="UTF-8" standalone="no"?>
<svg xmlns:xlink="http://www.w3.org/1999/xlink" height="154.55px" width="90.55px" xmlns="http://www.w3.org/2000/svg">
  <g transform="matrix(1.0, 0.0, 0.0, 1.0, 45.3, 77.3)">
    <path d="M4.3 -2.05 Q3.6 -1.35 2.95 -0.75 2.4 -0.2 1.85 0.3 1.35 0.7 0.85 1.1 0.5 1.4 -0.05 1.85 -0.7 2.3 -0.9 2.5 -1.4 2.9 -1.8 3.25 -2.25 3.65 -2.7 4.05 -3.2 4.55 -3.75 5.1 -4.4 5.75 -4.65 6.05 -5.15 6.6 -5.55 7.0 -6.0 7.5 -6.35 7.95 -6.75 8.45 -7.1 8.9 -7.45 9.4 -7.75 9.85 -8.05 10.4 -8.35 10.9 -8.6 11.45 -8.85 12.0 -9.1 12.6 -9.25 13.25 -9.35 13.5 -9.4 13.75 -9.5 14.15 -9.6 14.5 -9.7 15.0 -9.75 15.45 -9.85 16.0 -9.9 16.55 -9.9 17.2 -9.9 17.85 -9.9 18.5 -9.8 19.2 -9.7 19.95 -9.55 20.65 -9.35 21.45 -9.05 22.15 -8.95 22.45 -8.85 22.65 -8.75 22.95 -8.65 23.15 -8.55 23.45 -8.4 23.7 -8.3 23.95 -8.15 24.2 -8.0 24.5 -7.8 24.75 -7.65 25.0 -7.45 25.25 -7.2 25.5 -7.0 25.7 -6.75 25.95 -6.45 26.2 -5.8 26.7 -5.0 27.0 -4.3 27.3 -3.5 27.45 -2.8 27.55 -2.05 27.55 -1.35 27.6 -0.6 27.5 0.0 27.4 0.65 27.25 1.15 27.15 1.65 26.95 2.05 26.85 2.4 26.7 2.6 26.65 2.75 26.55 3.15 26.35 3.55 26.15 3.95 25.95 4.3 25.7 4.65 25.45 5.0 25.15 5.3 24.9 5.6 24.6 5.9 24.35 6.2 24.05 6.45 23.75 6.75 23.4 7.0 23.1 7.25 22.75 7.5 22.45 7.8 22.05 8.6 21.0 9.35 19.9 10.1 18.85 10.8 17.8 11.4 16.85 12.05 15.8 12.6 14.9 13.2 13.9 13.7 13.05 14.2 12.15 14.65 11.35 15.15 10.45 15.45 9.85 15.95 8.9 16.6 7.75 16.75 7.45 17.15 6.75 17.4 6.25 17.75 5.6 18.1 5.0 18.45 4.25 18.85 3.6 19.25 2.85 19.65 2.15 20.1 1.35 20.55 0.55 21.05 -0.25 21.55 -1.1 22.1 -1.95 22.65 -2.85 23.2 -3.75 23.8 -4.65 25.35 -7.0 27.85 -11.7 30.45 -16.6 31.8 -18.8 31.9 -18.95 31.95 -19.05 32.05 -19.2 32.15 -19.35 32.3 -19.55 32.4 -19.8 32.5 -20.0 32.6 -20.25 32.7 -20.5 32.8 -20.8 32.9 -21.1 33.0 -21.4 33.05 -21.75 33.15 -22.05 33.2 -22.45 33.2 -22.8 33.2 -23.05 33.2 -23.35 33.2 -23.6 33.15 -23.85 33.15 -24.1 33.1 -24.35 33.05 -24.55 33.0 -24.8 32.95 -25.05 32.9 -25.25 32.8 -25.5 32.75 -25.75 32.65 -25.9 32.6 -26.2 34.35 -21.15 32.4 -26.65 32.75 -25.45 31.55 -29.3 30.7 -32.1 30.3 -33.9 30.15 -34.55 30.05 -35.2 30.0 -35.8 29.9 -36.4 29.85 -37.0 29.85 -37.6 29.8 -38.1 29.8 -38.65 29.8 -39.15 29.8 -39.7 29.8 -40.15 29.8 -40.6 29.85 -41.0 29.85 -41.45 29.9 -41.7 29.9 -42.15 30.2 -45.9 30.7 -47.65 30.8 -48.0 30.9 -48.35 31.0 -48.6 31.1 -49.05 31.25 -49.4 31.3 -49.65 31.4 -49.95 31.45 -50.2 31.55 -50.5 31.6 -50.75 31.65 -51.0 31.65 -51.3 31.65 -51.55 31.65 -51.85 31.6 -52.15 31.55 -52.45 31.5 -52.7 31.45 -52.9 31.4 -53.1 31.3 -53.3 31.25 -53.5 31.15 -53.7 31.05 -53.85 30.95 -54.05 30.9 -54.2 30.8 -54.35 30.7 -54.5 30.6 -54.65 30.5 -54.8 30.4 -54.9 30.35 -55.0 30.25 -55.15 30.1 -55.4 29.9 -55.6 29.75 -55.8 29.55 -55.95 29.4 -56.15 29.2 -56.3 29.0 -56.5 28.8 -56.65 28.6 -56.8 28.4 -56.95 28.2 -57.1 27.95 -57.25 27.75 -57.4 27.5 -57.6 27.3 -57.7 26.95 -57.9 26.6 -58.15 26.4 -58.25 26.1 -58.45 25.85 -58.6 25.6 -58.75 25.4 -58.85 25.2 -58.95 25.05 -59.05 24.85 -59.15 24.7 -59.2 24.5 -59.25 24.35 -59.25 24.2 -59.25 24.1 -59.25 23.95 -59.2 23.8 -59.15 23.7 -59.1 23.6 -59.0 23.5 -58.95 23.45 -58.85 23.4 -58.75 23.35 -58.65 23.35 -58.55 23.25 -58.4 23.2 -58.25 23.15 -58.15 23.1 -58.0 23.05 -57.9 22.95 -57.75 22.85 -57.6 22.7 -57.45 22.55 -57.3 22.45 -57.2 22.35 -57.15 22.2 -57.05 22.1 -57.0 22.0 -56.95 21.85 -56.9 21.75 -56.85 21.6 -56.8 21.5 -56.75 21.3 -56.7 21.25 -56.7 20.95 -56.65 20.7 -56.6 20.55 -56.55 20.3 -56.45 20.05 -56.4 19.6 -56.25 19.2 -56.15 18.85 -56.05 18.55 -55.95 18.3 -55.85 18.05 -55.8 17.9 -55.7 17.75 -55.65 17.6 -55.6 17.5 -55.55 17.45 -55.5 17.4 -55.45 17.35 -55.45 17.35 -55.4 17.3 -55.4 17.3 -55.35 17.3 -55.25 17.35 -55.15 17.4 -55.05 17.55 -54.95 17.65 -54.8 17.85 -54.7 18.0 -54.6 18.25 -54.5 18.45 -54.4 18.7 -54.3 18.9 -54.2 19.15 -54.1 19.35 -54.0 19.6 -53.9 19.8 -53.8 20.05 -53.7 20.4 -53.55 20.8 -53.45 21.1 -53.3 21.45 -53.2 21.7 -53.15 22.05 -53.05 22.45 -52.9 22.5 -52.9 22.75 -52.8 22.9 -52.75 23.1 -52.7 23.2 -52.65 23.3 -52.6 23.35 -52.55 23.4 -52.45 23.4 -52.4 23.4 -52.4 23.4 -52.35 23.4 -52.35 23.4 -52.3 23.35 -52.25 23.3 -52.2 23.25 -52.15 23.15 -52.1 23.05 -52.05 22.95 -52.0 22.8 -51.95 22.6 -51.85 22.4 -51.75 22.15 -51.7 21.9 -51.6 21.6 -51.5 21.1 -51.35 20.65 -51.2 20.25 -51.1 19.85 -51.0 19.55 -50.9 19.2 -50.85 18.55 -50.7 18.65 -50.7 18.4 -50.65 18.25 -50.6 18.05 -50.55 17.9 -50.5 17.8 -50.45 17.7 -50.35 17.6 -50.3 17.6 -50.15 17.55 -50.05 17.55 -49.85 17.55 -49.75 17.6 -49.55 17.65 -49.4 17.75 -49.25 17.85 -49.05 17.95 -48.9 18.1 -48.75 18.25 -48.6 18.4 -48.45 18.6 -48.3 18.75 -48.15 18.95 -48.05 19.15 -47.95 19.35 -47.85 19.45 -47.8 19.55 -47.8 19.65 -47.75 19.75 -47.75 19.85 -47.75 19.9 -47.75 20.0 -47.75 20.1 -47.75 20.3 -47.75 20.3 -47.75 20.45 -47.75 20.55 -47.75 20.7 -47.75 20.85 -47.75 21.05 -47.75 21.25 -47.75 21.55 -47.7 21.6 -47.7 21.85 -47.7 22.0 -47.65 22.25 -47.6 22.4 -47.6 22.65 -47.55 22.8 -47.5 23.0 -47.4 23.2 -47.35 23.35 -47.25 23.55 -47.2 23.7 -47.1 23.85 -46.95 23.95 -46.85 24.1 -46.7 24.1 -46.65 24.15 -46.6 24.15 -46.6 24.2 -46.55 24.2 -46.45 24.2 -46.4 24.25 -46.3 24.25 -46.2 24.25 -46.1 24.25 -46.0 24.3 -45.85 24.3 -45.65 24.3 -45.5 24.3 -45.25 24.3 -45.05 24.25 -44.8 24.25 -44.25 24.2 -43.95 24.2 -43.55 24.2 -43.25 24.15 -42.9 24.1 -42.6 24.1 -42.3 24.05 -42.05 24.0 -41.8 23.9 -41.6 23.85 -41.35 23.75 -41.2 23.65 -41.0 23.5 -40.85 23.4 -40.7 23.2 -40.6 23.1 -40.55 23.0 -40.45 22.9 -40.4 22.8 -40.35 22.75 -40.35 22.6 -40.3 22.55 -40.25 22.4 -40.25 22.3 -40.25 22.2 -40.2 22.1 -40.2 22.0 -40.2 21.9 -40.2 21.75 -40.2 21.7 -40.2 21.5 -40.2 21.25 -40.2 21.0 -40.2 20.75 -40.25 20.5 -40.25 20.25 -40.3 20.0 -40.35 19.8 -40.4 19.55 -40.5 19.35 -40.6 19.1 -40.65 18.9 -40.75 18.65 -40.85 18.5 -40.95 18.2 -41.1 17.65 -41.35 17.7 -41.3 17.15 -41.55 16.85 -41.7 16.4 -41.9 16.05 -42.05 15.65 -42.25 15.25 -42.4 14.85 -42.55 14.55 -42.65 14.2 -42.8 13.9 -42.9 13.6 -42.95 13.35 -43.0 13.1 -43.05 12.95 -43.0 12.8 -42.95 12.7 -42.9 12.65 -42.8 12.65 -42.7 12.65 -42.6 12.7 -42.45 12.75 -42.35 12.8 -42.15 13.2 -41.35 12.95 -41.8 13.05 -41.6 13.1 -41.45 13.2 -41.25 13.2 -41.1 13.25 -40.9 13.25 -40.75 13.2 -40.55 13.1 -40.4 13.05 -40.3 13.0 -40.2 12.9 -40.1 12.8 -40.05 12.75 -40.0 12.65 -39.9 12.55 -39.85 12.5 -39.8 12.4 -39.8 12.3 -39.75 12.25 -39.7 12.15 -39.7 12.1 -39.7 12.05 -39.65 12.05 -39.65 12.0 -39.65 11.85 -39.6 11.65 -39.65 11.55 -39.65 11.4 -39.65 11.25 -39.7 11.1 -39.75 11.05 -39.8 10.9 -39.85 10.7 -39.95 10.65 -40.0 10.5 -40.05 10.4 -40.05 10.25 -40.1 10.15 -40.1 10.0 -40.15 9.85 -40.1 9.7 -40.1 9.55 -40.05 9.45 -40.0 9.3 -39.95 9.15 -39.85 9.05 -39.8 8.95 -39.7 8.8 -39.6 8.7 -39.5 8.6 -39.35 8.5 -39.25 8.45 -39.15 8.4 -39.0 8.35 -38.85 8.3 -38.75 8.25 -38.6 8.25 -38.5 8.25 -38.35 8.25 -38.25 8.3 -38.1 8.3 -37.95 8.4 -37.8 8.45 -37.65 8.6 -37.5 8.7 -37.3 8.9 -37.1 9.1 -36.9 9.3 -36.65 9.6 -36.4 9.9 -36.1 10.2 -35.85 10.6 -35.5 11.15 -35.05 11.7 -34.7 12.15 -34.4 12.55 -34.15 12.9 -33.95 13.3 -33.75 13.55 -33.6 13.95 -33.45 14.35 -33.25 14.5 -33.15 14.8 -33.0 15.0 -32.85 15.3 -32.7 15.55 -32.5 15.85 -32.25 16.15 -32.0 16.45 -31.7 16.65 -31.45 16.85 -31.2 17.05 -30.95 17.15 -30.7 17.35 -30.45 17.4 -30.3 17.6 -29.9 17.8 -29.55 17.9 -29.3 18.1 -28.95 18.35 -28.65 18.6 -28.25 18.85 -27.85 19.2 -27.35 19.6 -26.85 19.75 -26.65 19.95 -26.45 20.1 -26.25 20.3 -26.05 20.45 -25.85 20.6 -25.7 20.75 -25.55 20.9 -25.35 21.05 -25.2 21.2 -25.05 21.35 -24.9 21.5 -24.8 21.6 -24.65 21.75 -24.55 21.85 -24.4 22.0 -24.3 22.0 -24.2 22.0 -24.1 22.0 -24.0 22.0 -23.85 21.95 -23.75 21.95 -23.6 21.95 -23.5 21.95 -23.35 21.9 -23.2 21.9 -23.05 21.85 -22.9 21.8 -22.75 21.8 -22.55 21.75 -22.4 21.7 -22.25 21.65 -22.05 21.55 -21.75 21.45 -21.45 21.3 -21.2 21.15 -20.9 21.05 -20.65 20.9 -20.45 20.75 -20.2 20.6 -20.0 20.5 -19.8 20.35 -19.65 20.2 -19.5 20.1 -19.35 19.95 -19.2 19.85 -19.1 19.8 -19.05 19.7 -18.9 17.35 -16.55 14.0 -12.8 8.85 -7.1 8.4 -6.6 7.3 -5.4 6.5 -4.5 5.25 -3.0 5.55 -3.35 5.05 -2.8 4.3 -2.05 L4.3 -2.05" fill="#703737" fill-rule="evenodd" stroke="none"/>
  </g>
</svg>
