<?xml version="1.0" encoding="UTF-8" standalone="no"?>
<svg xmlns:xlink="http://www.w3.org/1999/xlink" height="14.85px" width="16.3px" xmlns="http://www.w3.org/2000/svg">
  <g transform="matrix(1.0, 0.0, 0.0, 1.0, 8.15, 7.4)">
    <path d="M-1.2 7.7 Q-1.6 7.7 -1.95 7.6 -2.3 7.55 -2.6 7.45 -2.9 7.35 -3.15 7.2 -3.35 7.1 -3.6 6.85 -3.8 6.7 -3.95 6.55 -4.15 6.35 -4.25 6.1 -4.35 5.9 -4.4 5.75 -4.45 5.55 -4.4 5.35 -4.4 5.15 -4.35 5.05 -4.3 4.9 -4.2 4.75 -4.15 4.65 -4.05 4.5 -3.95 4.35 -3.8 4.25 -3.7 4.1 -3.55 4.0 -3.4 3.95 -3.25 3.85 -3.1 3.8 -2.95 3.75 -2.8 3.7 -2.6 3.7 -2.4 3.65 -2.15 3.7 -2.0 3.75 -1.8 3.8 -1.65 3.85 -1.5 3.95 -1.35 4.05 -1.15 4.15 -0.95 4.3 -0.85 4.45 -0.65 4.55 -0.5 4.6 -0.3 4.7 -0.15 4.75 0.05 4.75 0.25 4.75 0.45 4.75 0.7 4.7 0.85 4.65 1.05 4.55 1.2 4.5 1.35 4.3 1.45 4.25 1.65 4.1 1.8 4.0 1.95 3.9 2.1 3.8 2.25 3.75 2.4 3.7 2.6 3.65 2.8 3.6 3.0 3.65 3.1 3.65 3.2 3.65 3.25 3.7 3.4 3.7 3.5 3.75 3.6 3.8 3.7 3.85 3.8 3.9 3.9 3.95 4.0 4.0 4.1 4.05 4.15 4.15 4.25 4.2 4.35 4.3 4.4 4.45 4.45 4.55 4.5 4.65 4.55 4.75 4.55 4.85 4.6 4.95 4.6 5.0 4.6 5.1 4.6 5.2 4.6 5.35 4.6 5.4 4.6 5.5 4.55 5.55 4.55 5.6 4.55 5.65 4.5 5.7 4.5 5.75 4.5 5.8 4.45 5.9 4.4 6.05 4.3 6.2 4.25 6.3 4.15 6.4 4.1 6.5 4.0 6.55 3.9 6.65 3.8 6.7 3.7 6.8 3.6 6.85 3.5 6.9 3.45 6.95 3.35 7.05 3.25 7.1 3.2 7.15 2.9 7.3 2.55 7.45 2.25 7.55 1.9 7.65 1.6 7.7 1.25 7.75 0.95 7.8 0.65 7.8 0.35 7.85 0.05 7.85 -0.15 7.8 -0.4 7.8 -0.65 7.8 -0.85 7.75 -1.05 7.75 -1.2 7.7 L-1.2 7.7" fill="#ffdc8d" fill-rule="evenodd" stroke="none"/>
  </g>
</svg>
