<?xml version="1.0" encoding="UTF-8" standalone="no"?>
<svg xmlns:xlink="http://www.w3.org/1999/xlink" height="12.3px" width="11.45px" xmlns="http://www.w3.org/2000/svg">
  <g transform="matrix(1.0, 0.0, 0.0, 1.0, 5.75, 6.15)">
    <path d="M2.35 0.4 Q2.4 0.4 2.4 0.35 2.45 0.35 2.45 0.3 2.5 0.25 2.5 0.25 2.55 0.2 2.55 0.2 2.65 0.05 2.6 0.1 2.65 0.1 2.65 0.05 2.7 0.0 2.7 0.0 2.75 -0.05 2.75 -0.05 2.85 -0.15 2.95 -0.2 3.05 -0.25 3.15 -0.3 3.25 -0.35 3.35 -0.4 3.45 -0.45 3.55 -0.45 3.65 -0.5 3.75 -0.5 3.85 -0.5 4.0 -0.5 4.1 -0.5 4.2 -0.5 4.3 -0.45 4.45 -0.4 4.55 -0.35 4.7 -0.3 4.8 -0.25 4.9 -0.2 5.0 -0.1 5.1 -0.05 5.15 0.05 5.25 0.1 5.3 0.2 5.4 0.3 5.45 0.4 5.5 0.5 5.55 0.65 5.6 0.75 5.65 0.85 5.65 1.0 5.7 1.1 5.7 1.25 5.7 1.35 5.7 1.5 5.7 1.6 5.7 1.75 5.7 1.85 5.7 2.0 5.65 2.1 5.65 2.25 5.6 2.35 5.55 2.5 5.55 2.6 5.5 2.7 5.45 2.85 5.35 2.95 5.3 3.05 5.25 3.2 5.15 3.4 5.15 3.45 5.05 3.65 4.95 3.85 4.85 4.05 4.7 4.2 4.6 4.35 4.45 4.5 4.35 4.65 4.15 4.8 4.0 4.95 3.85 5.05 3.7 5.15 3.5 5.3 3.35 5.4 3.15 5.5 2.95 5.55 2.75 5.65 2.55 5.75 2.35 5.8 2.15 5.85 1.95 5.9 1.75 5.95 1.55 6.0 1.35 6.05 1.15 6.05 0.95 6.1 0.75 6.1 0.55 6.1 0.35 6.1 0.15 6.1 -0.1 6.1 -0.3 6.1 -0.5 6.1 -0.7 6.1 -0.75 6.05 -0.9 6.05 -1.0 6.05 -1.15 6.05 -1.25 6.0 -1.4 6.0 -1.5 5.95 -1.65 5.95 -1.75 5.9 -1.9 5.9 -2.0 5.85 -2.15 5.8 -2.25 5.75 -2.4 5.75 -2.5 5.65 -2.75 5.55 -3.0 5.4 -3.25 5.3 -3.45 5.15 -3.7 5.0 -3.9 4.85 -4.1 4.7 -4.3 4.55 -4.5 4.35 -4.65 4.15 -4.85 3.95 -5.0 3.75 -5.15 3.55 -5.3 3.3 -5.45 3.1 -5.55 2.8 -5.6 2.65 -5.65 2.55 -5.7 2.4 -5.75 2.25 -5.75 2.15 -5.75 2.0 -5.8 1.85 -5.8 1.75 -5.75 1.6 -5.75 1.45 -5.7 1.35 -5.65 1.2 -5.6 1.1 -5.55 0.95 -5.45 0.85 -5.4 0.7 -5.25 0.55 -5.15 0.45 -5.0 0.3 -4.8 0.25 -4.65 0.15 -4.5 0.1 -4.3 0.05 -4.15 0.05 -3.95 0.05 -3.8 0.1 -3.6 0.1 -3.45 0.2 -3.25 0.25 -3.1 0.35 -2.95 0.45 -2.75 0.6 -2.7 0.65 -2.55 0.75 -2.55 0.8 -2.5 0.95 -2.45 1.05 -2.45 1.1 -2.4 1.25 -2.35 1.45 -2.3 1.6 -2.2 1.75 -2.15 1.9 -2.05 2.0 -1.95 2.15 -1.85 2.3 -1.75 2.4 -1.65 2.5 -1.55 2.65 -1.4 2.75 -1.25 2.85 -1.15 2.9 -1.0 3.0 -0.85 3.1 -0.75 3.15 -0.65 3.15 -0.55 3.2 -0.45 3.2 -0.35 3.25 -0.25 3.25 -0.15 3.25 -0.05 3.25 0.05 3.25 0.15 3.25 0.25 3.25 0.35 3.25 0.45 3.25 0.55 3.25 0.65 3.25 0.75 3.2 0.9 3.2 1.05 3.15 1.2 3.1 1.35 3.05 1.45 3.0 1.6 2.9 1.7 2.8 1.8 2.7 1.9 2.6 2.0 2.5 2.1 2.35 2.15 2.25 2.2 2.1 2.25 1.95 2.3 1.8 2.3 1.65 2.3 1.55 2.3 1.5 2.35 1.4 2.35 1.35 2.35 1.25 2.35 1.2 2.35 1.1 2.35 1.05 2.35 0.95 2.35 0.85 2.35 0.8 2.35 0.7 2.35 0.65 2.35 0.55 2.35 0.5 2.35 0.4 L2.35 0.4" fill="#8075e5" fill-rule="evenodd" stroke="none"/>
  </g>
</svg>
