<?xml version="1.0" encoding="UTF-8" standalone="no"?>
<svg xmlns:xlink="http://www.w3.org/1999/xlink" height="200.0px" width="200.0px" xmlns="http://www.w3.org/2000/svg">
  <g transform="matrix(1.0, 0.0, 0.0, 1.0, 100.0, 100.0)">
    <path d="M-2.8 -8.1 Q-3.15 -7.95 -3.5 -7.75 -3.8 -7.6 -4.1 -7.4 -4.4 -7.2 -4.7 -6.95 -4.95 -6.75 -5.2 -6.55 -5.45 -6.35 -5.7 -6.1 -5.9 -5.85 -6.15 -5.6 -6.35 -5.4 -6.6 -5.15 -6.75 -5.0 -7.0 -4.7 -7.3 -4.35 -7.4 -4.2 -7.65 -3.95 -7.8 -3.75 -8.05 -3.5 -8.2 -3.3 -8.4 -3.05 -8.55 -2.8 -8.7 -2.55 -8.85 -2.3 -9.0 -2.05 -9.15 -1.8 -9.3 -1.5 -9.4 -1.2 -9.5 -0.95 -9.6 -0.6 -9.75 -0.15 -9.8 0.35 -9.85 0.8 -9.85 1.25 -9.85 1.65 -9.85 2.1 -9.8 2.5 -9.75 2.9 -9.65 3.25 -9.55 3.65 -9.45 3.95 -9.35 4.3 -9.25 4.55 -9.15 4.85 -9.05 5.1 -8.95 5.3 -8.5 5.4 -8.05 5.45 -7.6 5.55 -7.2 5.6 -6.8 5.7 -6.35 5.75 -6.0 5.8 -5.6 5.85 -5.2 5.9 -4.85 5.95 -4.5 6.0 -4.15 6.0 -3.85 6.05 -3.55 6.1 -3.25 6.1 -2.95 6.1 -2.05 6.15 -1.5 6.2 -0.7 6.25 -0.1 6.3 0.65 6.35 1.25 6.35 1.95 6.35 2.55 6.3 3.25 6.3 3.85 6.25 4.5 6.15 5.15 6.05 5.8 5.9 6.45 5.75 7.1 5.55 7.75 5.35 8.1 5.25 8.4 5.1 8.7 4.95 9.0 4.8 9.3 4.7 9.6 4.55 9.85 4.4 10.1 4.25 10.35 4.1 10.6 4.0 10.85 3.85 11.05 3.7 11.25 3.6 11.45 3.45 11.6 3.35 11.8 3.2 11.75 2.65 11.7 2.1 11.6 1.55 11.5 1.05 11.4 0.6 11.3 0.15 11.2 -0.25 11.05 -0.65 10.95 -1.0 10.8 -1.35 10.65 -1.7 10.5 -2.0 10.4 -2.25 10.25 -2.5 10.15 -2.7 10.0 -2.9 9.85 -3.2 9.6 -3.5 9.45 -3.8 9.2 -4.1 9.0 -4.4 8.8 -4.7 8.6 -4.95 8.35 -5.25 8.15 -5.45 7.95 -5.7 7.8 -5.9 7.6 -6.15 7.45 -6.3 7.3 -6.45 7.2 -6.55 7.05 -6.7 6.25 -7.6 5.95 -7.85 5.55 -8.2 5.05 -8.45 4.55 -8.65 4.0 -8.85 3.5 -9.0 2.9 -9.05 2.35 -9.15 1.75 -9.15 1.15 -9.15 0.55 -9.05 -0.05 -9.0 -0.6 -8.85 -1.2 -8.75 -1.75 -8.55 -2.3 -8.35 -2.8 -8.1 L-2.8 -8.1" fill="#a1a0fd" fill-rule="evenodd" stroke="none"/>
  </g>
</svg>
