<?xml version="1.0" encoding="UTF-8" standalone="no"?>
<svg xmlns:xlink="http://www.w3.org/1999/xlink" height="21.05px" width="12.1px" xmlns="http://www.w3.org/2000/svg">
  <g transform="matrix(1.0, 0.0, 0.0, 1.0, 6.85, 10.65)">
    <path d="M-0.05 6.75 Q-0.1 6.95 -0.1 7.0 -0.1 7.1 -0.1 7.6 -0.1 8.0 -0.1 8.25 -0.1 8.3 -0.1 8.35 -0.15 8.35 -0.15 8.4 -0.15 8.45 -0.2 8.45 -0.2 8.5 -0.25 8.55 -0.3 8.6 -0.3 8.6 -0.35 8.65 -0.35 8.7 -0.35 8.75 -0.35 8.8 -0.35 8.85 -0.35 8.9 -0.35 9.75 -0.35 10.1 -0.35 10.15 -0.35 10.2 -0.4 10.25 -0.4 10.25 -0.45 10.25 -0.5 10.3 -0.5 10.3 -0.6 10.3 -0.65 10.3 -0.7 10.3 -0.7 10.3 -0.75 10.25 -0.75 10.25 -0.75 10.2 -0.75 10.15 -0.75 10.1 -0.75 9.45 -0.75 8.65 -0.75 8.5 -0.75 8.5 -0.75 8.5 -0.85 8.35 -0.85 8.4 -0.85 8.45 -0.9 8.45 -0.9 8.5 -0.9 9.1 -0.9 9.5 -0.9 9.55 -0.9 9.55 -0.9 9.6 -0.9 9.65 -0.9 9.65 -0.9 9.7 -0.9 9.7 -0.95 9.75 -0.95 9.75 -0.95 9.75 -1.0 9.8 -1.0 9.8 -1.05 9.8 -1.1 9.8 -1.1 9.8 -1.15 9.8 -1.15 9.8 -1.2 9.85 -1.25 9.85 -1.25 9.9 -1.3 9.95 -1.3 9.95 -1.3 10.0 -1.3 10.05 -1.3 10.1 -1.35 10.15 -1.35 10.15 -1.4 10.2 -1.45 10.2 -1.5 10.2 -1.55 10.2 -1.6 10.2 -1.65 10.15 -1.65 10.15 -1.65 10.15 -1.7 10.1 -1.7 10.05 -1.7 10.05 -1.7 10.0 -1.7 9.95 -1.7 7.4 -1.65 3.45 -1.65 3.4 -1.65 3.35 -1.7 3.25 -1.7 3.2 -1.7 3.2 -1.75 3.2 -1.75 3.25 -1.8 3.25 -1.8 3.3 -1.8 3.35 -1.8 3.4 -1.8 3.45 -1.8 4.3 -1.8 6.85 -1.8 6.9 -1.8 6.95 -1.8 7.0 -1.8 7.05 -1.85 7.05 -1.85 7.1 -1.85 7.15 -1.9 7.15 -1.95 7.15 -2.0 7.15 -2.0 7.15 -2.05 7.2 -2.05 7.25 -2.05 7.3 -2.1 7.35 -2.1 7.35 -2.1 7.8 -2.1 9.15 -2.1 9.2 -2.1 9.25 -2.1 9.3 -2.1 9.3 -2.1 9.35 -2.15 9.35 -2.15 9.4 -2.2 9.4 -2.25 9.4 -2.3 9.4 -2.35 9.4 -2.4 9.4 -2.45 9.35 -2.45 9.35 -2.5 9.3 -2.5 9.25 -2.5 9.25 -2.5 9.15 -2.45 2.35 -2.4 -9.95 -2.4 -10.0 -2.4 -10.05 -2.4 -10.1 -2.4 -10.1 -2.35 -10.15 -2.3 -10.15 -2.3 -10.15 -2.2 -10.15 -2.15 -10.15 -2.1 -10.15 -2.05 -10.15 -2.05 -10.1 -2.0 -10.1 -2.0 -10.05 -2.0 -10.0 -2.0 -9.95 -2.0 -9.4 -2.0 -7.65 -2.0 -7.6 -2.0 -7.55 -2.0 -7.55 -2.0 -7.5 -2.0 -7.45 -2.0 -7.45 -1.95 -7.4 -1.95 -7.4 -1.9 -7.4 -1.85 -7.4 -1.85 -7.4 -1.8 -7.35 -1.8 -7.3 -1.75 -7.25 -1.75 -7.2 -1.75 -7.2 -1.75 -7.15 -1.75 -6.4 -1.75 -5.95 -1.75 -5.65 -1.75 -5.6 -1.75 -5.4 -1.7 -5.4 -1.65 -5.4 -1.65 -5.4 -1.65 -5.45 -1.65 -5.45 -1.65 -5.45 -1.65 -5.5 -1.65 -5.55 -1.6 -5.65 -1.6 -5.7 -1.6 -5.75 -1.55 -5.8 -1.55 -5.9 -1.55 -5.95 -1.5 -6.0 -1.5 -6.05 -1.5 -6.1 -1.5 -6.15 -1.5 -6.25 -1.5 -6.3 -1.5 -6.35 -1.5 -6.4 -1.5 -6.45 -1.5 -6.5 -1.5 -6.6 -1.5 -6.6 -1.5 -6.65 -1.5 -6.65 -1.5 -6.7 -1.5 -6.75 -1.5 -6.8 -1.5 -6.85 -1.5 -6.9 -1.5 -6.9 -1.45 -6.95 -1.45 -7.0 -1.4 -7.05 -1.35 -7.05 -1.35 -7.1 -1.35 -7.15 -1.35 -7.25 -1.35 -7.25 -1.35 -7.8 -1.35 -8.8 -1.35 -9.85 -1.35 -10.3 -1.35 -10.35 -1.35 -10.4 -1.35 -10.45 -1.3 -10.5 -1.3 -10.5 -1.25 -10.55 -1.2 -10.55 -1.15 -10.55 -1.1 -10.55 -1.05 -10.55 -1.0 -10.5 -1.0 -10.5 -0.95 -10.5 -0.95 -10.45 -0.95 -10.45 -0.95 -10.4 -0.95 -10.35 -0.95 -10.3 -0.95 -8.1 -0.95 -7.4 -0.95 -7.35 -0.95 -7.15 -0.9 -7.15 -0.85 -7.15 -0.85 -7.15 -0.85 -7.2 -0.8 -7.25 -0.8 -7.3 -0.85 -7.7 -0.8 -7.9 -0.8 -7.95 -0.8 -8.0 -0.8 -8.0 -0.8 -8.05 -0.8 -8.1 -0.8 -8.15 -0.8 -8.2 -0.8 -8.25 -0.8 -8.25 -0.8 -8.3 -0.8 -8.35 -0.8 -8.4 -0.8 -8.4 -0.75 -8.45 -0.75 -8.5 -0.7 -8.55 -0.7 -8.55 -0.7 -8.7 -0.65 -9.8 -0.7 -10.3 -0.7 -10.35 -0.7 -10.4 -0.7 -10.4 -0.65 -10.45 -0.65 -10.45 -0.65 -10.5 -0.65 -10.5 -0.6 -10.5 -0.6 -10.5 -0.55 -10.55 -0.55 -10.55 -0.5 -10.55 -0.5 -10.55 -0.45 -10.55 -0.4 -10.55 -0.4 -10.55 -0.35 -10.55 -0.3 -10.55 -0.25 -10.55 -0.25 -10.55 -0.2 -10.5 -0.2 -10.5 -0.15 -10.45 -0.15 -10.4 -0.15 -10.4 -0.15 -10.3 -0.15 -9.7 -0.15 -7.8 -0.15 -7.75 -0.15 -7.7 -0.15 -7.65 -0.15 -7.6 -0.1 -7.15 -0.15 -7.55 -0.1 -7.55 -0.05 -7.55 -0.05 -7.55 -0.05 -7.65 0.0 -7.7 0.0 -7.75 -0.05 -8.9 0.0 -9.7 0.0 -9.75 0.0 -9.8 0.0 -9.85 0.0 -9.9 0.0 -9.95 0.0 -10.0 0.05 -10.05 0.05 -10.1 0.05 -10.15 0.05 -10.2 0.05 -10.2 0.1 -10.25 0.1 -10.3 0.1 -10.35 0.1 -10.4 0.15 -10.45 0.15 -10.45 0.2 -10.5 0.2 -10.5 0.3 -10.5 0.35 -10.55 0.4 -10.55 0.45 -10.5 0.45 -10.5 0.5 -10.45 0.5 -10.4 0.5 -10.25 0.5 -10.0 0.5 -9.75 0.5 -9.6 0.5 -9.55 0.55 -9.5 0.6 -9.4 0.6 -9.35 0.6 -9.2 0.65 -9.0 0.65 -8.8 0.65 -8.75 0.65 -8.7 0.75 -8.55 0.9 -8.7 0.9 -8.75 0.9 -8.95 0.9 -9.25 0.9 -9.3 0.9 -9.35 0.9 -9.4 0.9 -9.4 0.95 -9.45 0.95 -9.45 1.0 -9.5 1.0 -9.5 1.05 -9.5 1.1 -9.5 1.15 -9.5 1.2 -9.5 1.25 -9.5 1.25 -9.45 1.25 -9.45 1.3 -9.4 1.3 -9.4 1.3 -9.35 1.3 -9.3 1.3 -9.25 1.3 -7.4 1.25 -3.45 1.25 -3.35 1.25 -2.45 1.25 -2.4 1.3 -2.35 1.3 -2.25 1.3 -2.25 1.35 -2.25 1.4 -2.25 1.4 -2.3 1.4 -2.35 1.4 -2.5 1.4 -2.5 1.4 -4.55 1.45 -10.3 1.45 -10.4 1.45 -10.35 1.45 -10.4 1.45 -10.4 1.45 -10.45 1.45 -10.5 1.45 -10.5 1.5 -10.5 1.55 -10.55 1.6 -10.55 1.65 -10.55 1.7 -10.55 1.7 -10.55 1.75 -10.55 1.75 -10.5 1.8 -10.5 1.8 -10.5 1.8 -10.45 1.8 -10.45 1.8 -10.45 1.85 -10.4 1.85 -10.4 1.85 -10.35 1.85 -10.3 1.85 -10.3 1.85 -10.25 1.8 -3.8 1.75 9.5 1.75 9.95 1.75 10.1 1.75 10.15 1.75 10.2 1.7 10.25 1.7 10.25 1.65 10.25 1.65 10.3 1.6 10.3 1.55 10.3 1.5 10.3 1.45 10.3 1.4 10.25 1.4 10.25 1.35 10.25 1.35 10.2 1.35 10.15 1.35 10.1 1.35 8.8 1.35 7.95 1.35 7.9 1.35 7.85 1.35 7.85 1.3 7.75 1.25 7.7 1.25 7.65 1.25 7.65 1.25 7.55 1.25 7.5 1.25 7.5 1.25 7.45 1.25 7.4 1.25 7.35 1.25 7.3 1.25 7.25 1.25 7.2 1.25 7.15 1.25 7.1 1.25 7.05 1.25 7.0 1.25 6.95 1.25 6.9 1.25 6.85 1.25 6.8 1.25 6.75 1.25 6.7 1.25 6.65 1.25 6.6 1.2 6.55 1.2 6.55 1.15 6.55 1.15 6.5 1.1 6.5 1.05 6.5 1.05 6.5 0.7 6.4 0.7 6.4 0.7 6.6 0.7 8.1 0.7 8.5 0.7 8.55 0.7 8.6 0.7 8.65 0.65 8.7 0.65 8.7 0.6 8.75 0.6 8.75 0.55 8.75 0.5 8.75 0.45 8.8 0.45 8.85 0.45 8.9 0.45 8.95 0.45 9.0 0.45 9.05 0.45 9.05 0.45 9.1 0.45 9.15 0.45 9.2 0.4 9.25 0.4 9.3 0.4 9.35 0.4 9.35 0.4 9.4 0.4 9.45 0.4 9.5 0.4 9.55 0.45 9.6 0.45 9.65 0.45 9.65 0.45 9.7 0.4 9.75 0.4 9.75 0.35 9.75 0.35 9.8 0.3 9.8 0.25 9.8 0.2 9.8 0.15 9.8 0.1 9.8 0.05 9.75 0.05 9.75 0.05 9.7 0.05 9.65 0.05 9.65 0.05 9.6 0.05 8.85 0.05 7.0 0.05 6.95 0.05 6.9 0.0 6.8 0.0 6.75 0.0 6.75 -0.05 6.75 L-0.05 6.75" fill="#000000" fill-rule="evenodd" stroke="none"/>
  </g>
</svg>
