<?xml version="1.0" encoding="UTF-8" standalone="no"?>
<svg xmlns:xlink="http://www.w3.org/1999/xlink" height="21.15px" width="19.5px" xmlns="http://www.w3.org/2000/svg">
  <g transform="matrix(1.0, 0.0, 0.0, 1.0, 9.75, 10.65)">
    <path d="M-3.1 3.45 Q-3.35 3.45 -3.6 3.4 -3.85 3.35 -4.05 3.3 -4.3 3.25 -4.5 3.15 -4.7 3.05 -4.85 2.95 -5.05 2.8 -5.2 2.65 -5.3 2.5 -5.45 2.3 -5.55 2.15 -5.6 1.9 -5.7 1.7 -5.75 1.45 -5.75 1.35 -5.75 1.2 -5.75 1.1 -5.75 0.95 -5.75 0.85 -5.7 0.75 -5.7 0.65 -5.65 0.5 -5.65 0.4 -5.6 0.3 -5.55 0.2 -5.5 0.1 -5.45 0.0 -5.35 -0.1 -5.3 -0.2 -5.2 -0.3 -5.0 -0.55 -4.75 -0.8 -4.5 -1.05 -4.25 -1.25 -3.95 -1.45 -3.7 -1.65 -3.4 -1.8 -3.15 -2.0 -2.85 -2.15 -2.55 -2.25 -2.25 -2.4 -1.9 -2.5 -1.6 -2.6 -1.25 -2.7 -0.9 -2.75 -0.55 -2.8 -0.45 -2.8 -0.35 -2.85 -0.25 -2.85 -0.2 -2.85 -0.1 -2.85 0.0 -2.85 0.1 -2.85 0.2 -2.85 0.3 -2.85 0.35 -2.85 0.45 -2.85 0.55 -2.8 0.65 -2.8 0.75 -2.8 0.8 -2.75 0.9 -2.75 1.15 -2.7 1.4 -2.6 1.6 -2.45 1.8 -2.3 1.95 -2.2 2.1 -2.0 2.25 -1.8 2.35 -1.6 2.45 -1.4 2.5 -1.15 2.55 -0.95 2.55 -0.7 2.55 -0.45 2.5 -0.2 2.45 0.05 2.35 0.3 2.3 0.45 2.2 0.6 2.1 0.75 2.0 0.9 1.9 1.05 1.8 1.15 1.7 1.3 1.55 1.4 1.45 1.55 1.35 1.65 1.2 1.75 1.05 1.85 0.95 1.95 0.8 2.05 0.65 2.15 0.5 2.25 0.3 2.4 0.05 2.5 -0.15 2.6 -0.4 2.7 -0.6 2.8 -0.85 2.9 -1.05 3.0 -1.3 3.05 -1.5 3.15 -1.75 3.2 -1.95 3.25 -2.2 3.3 -2.45 3.35 -2.65 3.4 -2.9 3.45 -3.1 3.45 L-3.1 3.45" fill="#c8c2fe" fill-rule="evenodd" stroke="none"/>
    <path d="M0.55 -6.05 Q0.5 -6.05 0.45 -6.05 0.4 -6.05 0.35 -6.05 0.3 -6.05 0.25 -6.05 0.25 -6.05 0.2 -6.05 0.15 -6.05 0.1 -6.05 0.05 -6.05 0.0 -6.05 0.0 -6.05 -0.05 -6.05 -0.1 -6.1 -0.15 -6.1 -0.2 -6.1 -0.3 -6.15 -0.35 -6.15 -0.4 -6.2 -0.5 -6.25 -0.55 -6.25 -0.6 -6.3 -0.65 -6.35 -0.7 -6.4 -0.75 -6.45 -0.75 -6.5 -0.8 -6.55 -0.85 -6.6 -0.85 -6.7 -0.9 -6.75 -0.9 -6.85 -0.9 -6.9 -0.9 -7.0 -0.9 -7.05 -0.9 -7.15 -0.9 -7.2 -0.9 -7.25 -0.85 -7.3 -0.8 -7.4 -0.8 -7.45 -0.75 -7.5 -0.7 -7.55 -0.65 -7.6 -0.6 -7.65 -0.55 -7.7 -0.5 -7.75 -0.45 -7.8 -0.35 -7.9 -0.2 -7.95 -0.05 -8.0 0.05 -8.05 0.2 -8.15 0.3 -8.15 0.45 -8.2 0.6 -8.25 0.75 -8.3 0.85 -8.3 1.0 -8.3 1.15 -8.3 1.3 -8.3 1.45 -8.3 1.6 -8.3 1.75 -8.25 1.85 -8.25 1.9 -8.2 2.0 -8.2 2.05 -8.15 2.1 -8.1 2.2 -8.05 2.25 -8.05 2.3 -7.95 2.35 -7.9 2.4 -7.85 2.45 -7.8 2.45 -7.75 2.5 -7.7 2.5 -7.6 2.55 -7.55 2.55 -7.5 2.55 -7.4 2.55 -7.35 2.55 -7.25 2.55 -7.15 2.55 -7.1 2.5 -7.0 2.5 -6.95 2.45 -6.85 2.4 -6.8 2.35 -6.75 2.3 -6.7 2.25 -6.65 2.2 -6.55 2.15 -6.5 2.1 -6.45 2.0 -6.45 1.9 -6.4 1.85 -6.35 1.75 -6.3 1.65 -6.25 1.55 -6.2 1.45 -6.2 1.4 -6.15 1.3 -6.1 1.2 -6.1 1.1 -6.05 1.0 -6.05 0.9 -6.05 0.85 -6.05 0.75 -6.05 0.65 -6.05 0.55 -6.05 L0.55 -6.05" fill="#c9c3fe" fill-rule="evenodd" stroke="none"/>
    <path d="M-2.9 -2.95 Q-2.9 -2.9 -2.9 -2.85 -2.9 -2.75 -2.9 -2.7 -2.95 -2.65 -2.95 -2.6 -3.0 -2.55 -3.05 -2.5 -3.05 -2.45 -3.1 -2.4 -3.15 -2.35 -3.2 -2.3 -3.25 -2.25 -3.3 -2.25 -3.35 -2.2 -3.4 -2.15 -3.5 -2.1 -3.6 -2.0 -3.7 -1.95 -3.8 -1.9 -3.95 -1.85 -4.05 -1.85 -4.15 -1.8 -4.3 -1.8 -4.4 -1.8 -4.55 -1.8 -4.65 -1.85 -4.8 -1.9 -4.9 -1.9 -5.0 -2.0 -5.1 -2.05 -5.15 -2.15 -5.2 -2.2 -5.25 -2.25 -5.3 -2.35 -5.35 -2.4 -5.35 -2.45 -5.4 -2.55 -5.4 -2.6 -5.4 -2.65 -5.45 -2.75 -5.45 -2.8 -5.45 -2.85 -5.4 -2.95 -5.4 -3.0 -5.4 -3.05 -5.35 -3.15 -5.35 -3.2 -5.3 -3.3 -5.2 -3.4 -5.15 -3.5 -5.05 -3.55 -4.95 -3.65 -4.8 -3.7 -4.7 -3.8 -4.6 -3.85 -4.45 -3.9 -4.35 -3.95 -4.2 -3.95 -4.1 -4.0 -3.95 -4.0 -3.85 -4.0 -3.7 -4.0 -3.6 -3.95 -3.5 -3.9 -3.45 -3.9 -3.4 -3.85 -3.3 -3.8 -3.25 -3.75 -3.2 -3.7 -3.15 -3.65 -3.1 -3.6 -3.05 -3.55 -3.05 -3.45 -3.0 -3.4 -2.95 -3.3 -2.95 -3.25 -2.95 -3.15 -2.9 -3.05 -2.9 -2.95 L-2.9 -2.95" fill="#c9c3fe" fill-rule="evenodd" stroke="none"/>
    <path d="M-0.45 6.6 Q-0.5 6.6 -0.6 6.6 -0.65 6.55 -0.7 6.55 -0.8 6.5 -0.85 6.5 -0.9 6.45 -0.95 6.4 -1.0 6.35 -1.0 6.3 -1.05 6.25 -1.1 6.2 -1.1 6.15 -1.15 6.1 -1.15 6.0 -1.15 5.95 -1.15 5.85 -1.15 5.8 -1.1 5.7 -1.1 5.6 -1.05 5.55 -1.0 5.45 -0.95 5.4 -0.9 5.35 -0.85 5.3 -0.75 5.25 -0.7 5.2 -0.65 5.15 -0.55 5.1 -0.5 5.1 -0.4 5.05 -0.35 5.05 -0.3 5.05 -0.2 5.05 -0.15 5.1 -0.05 5.15 0.0 5.15 0.05 5.2 0.1 5.25 0.15 5.3 0.2 5.35 0.25 5.4 0.3 5.5 0.3 5.55 0.35 5.6 0.35 5.7 0.35 5.75 0.35 5.85 0.35 5.9 0.35 6.0 0.3 6.05 0.3 6.15 0.25 6.2 0.2 6.25 0.15 6.35 0.1 6.4 0.05 6.45 0.0 6.5 -0.05 6.5 -0.15 6.55 -0.2 6.6 -0.3 6.6 -0.35 6.6 -0.45 6.6 L-0.45 6.6" fill="#c9c3fe" fill-rule="evenodd" stroke="none"/>
  </g>
</svg>
