<?xml version="1.0" encoding="UTF-8" standalone="no"?>
<svg xmlns:xlink="http://www.w3.org/1999/xlink" height="14.8px" width="15.65px" xmlns="http://www.w3.org/2000/svg">
  <g transform="matrix(1.0, 0.0, 0.0, 1.0, 7.85, 7.4)">
    <path d="M0.8 7.4 Q-0.35 7.35 -0.4 7.35 -0.5 7.35 -0.8 7.3 -1.1 7.25 -1.25 7.2 -1.6 7.15 -2.4 6.95 -2.45 6.95 -2.45 6.95 -2.5 6.9 -2.55 6.9 -3.25 6.6 -3.5 6.45 -3.55 6.45 -3.55 6.4 -3.6 6.4 -3.65 6.35 -3.7 6.35 -3.7 6.3 -3.75 6.3 -3.8 6.25 -3.9 6.2 -3.95 6.15 -4.0 6.1 -4.1 6.05 -4.15 5.95 -4.25 5.9 -4.3 5.85 -4.35 5.8 -4.45 5.75 -4.5 5.65 -4.6 5.6 -4.65 5.55 -4.7 5.45 -4.75 5.4 -4.85 5.35 -4.9 5.25 -5.0 5.15 -5.05 5.0 -5.15 4.9 -5.25 4.8 -5.3 4.65 -5.35 4.55 -5.45 4.4 -5.5 4.3 -5.55 4.15 -5.6 4.0 -5.65 3.9 -5.65 3.75 -5.7 3.6 -5.7 3.45 -5.75 3.35 -5.75 3.2 -5.75 3.15 -5.75 3.05 -5.75 3.0 -5.75 2.9 -5.8 2.85 -5.8 2.8 -5.8 2.7 -5.8 2.65 -5.8 2.55 -5.8 2.5 -5.8 2.45 -5.8 2.35 -5.8 2.3 -5.8 2.25 -5.8 2.15 -5.8 2.1 -5.8 1.95 -5.75 1.85 -5.75 1.7 -5.7 1.6 -5.7 1.45 -5.65 1.35 -5.6 1.2 -5.55 1.1 -5.5 1.0 -5.45 0.85 -5.4 0.75 -5.35 0.65 -5.3 0.5 -5.25 0.4 -5.15 0.3 -5.1 0.2 -5.1 0.15 -5.05 0.15 -5.0 0.05 -5.0 0.05 -4.95 -0.05 -4.9 -0.1 -4.85 -0.2 -4.8 -0.25 -4.75 -0.35 -4.7 -0.4 -4.6 -0.5 -4.55 -0.55 -4.5 -0.6 -4.45 -0.7 -4.35 -0.75 -4.3 -0.8 -4.25 -0.9 -4.15 -0.95 -4.1 -1.0 -4.0 -1.05 -3.65 -1.35 -3.5 -1.4 -3.45 -1.45 -3.1 -1.7 -3.0 -1.8 -2.9 -1.85 -2.8 -1.95 -2.7 -2.0 -2.6 -2.05 -2.45 -2.1 -2.35 -2.15 -2.25 -2.2 -2.15 -2.25 -2.0 -2.3 -1.9 -2.35 -1.75 -2.4 -1.65 -2.4 -1.5 -2.45 -1.4 -2.45 -1.25 -2.5 -1.1 -2.5 -0.9 -2.55 -0.6 -2.6 -0.55 -2.65 -0.5 -2.65 -0.3 -2.7 -0.1 -2.7 0.0 -2.7 0.05 -2.7 0.1 -2.7 0.15 -2.7 0.25 -2.7 0.3 -2.7 0.35 -2.7 0.4 -2.7 0.45 -2.7 0.5 -2.7 0.55 -2.7 0.65 -2.7 0.7 -2.7 0.75 -2.7 0.8 -2.7 0.85 -2.7 0.9 -2.7 1.25 -2.65 1.45 -2.6 2.25 -2.4 2.5 -2.3 2.55 -2.25 2.85 -2.15 3.05 -2.05 3.2 -1.95 3.3 -1.9 3.35 -1.85 3.45 -1.8 3.55 -1.75 3.6 -1.7 3.7 -1.65 3.8 -1.6 3.85 -1.55 3.95 -1.45 4.0 -1.4 4.1 -1.35 4.15 -1.3 4.25 -1.2 4.3 -1.15 4.4 -1.1 4.45 -1.0 4.65 -0.8 5.0 -0.35 5.05 -0.3 5.1 -0.25 5.1 -0.2 5.15 -0.15 5.2 -0.1 5.25 -0.05 5.25 0.0 5.3 0.05 5.35 0.1 5.35 0.15 5.4 0.2 5.4 0.25 5.45 0.3 5.45 0.35 5.5 0.4 5.5 0.5 5.55 0.5 5.55 0.55 5.55 0.55 5.6 0.6 5.65 0.7 5.7 0.8 5.75 0.9 5.8 1.0 5.85 1.1 5.9 1.2 5.95 1.3 6.0 1.4 6.0 1.5 6.05 1.6 6.05 1.7 6.1 1.8 6.1 1.9 6.15 2.0 6.15 2.15 6.2 2.25 6.2 2.3 6.25 2.65 6.25 2.8 6.25 2.9 6.25 3.05 6.25 3.15 6.25 3.3 6.25 3.4 6.25 3.55 6.25 3.65 6.2 3.8 6.2 3.9 6.15 4.0 6.15 4.15 6.1 4.25 6.05 4.35 6.0 4.5 5.95 4.6 5.9 4.7 5.85 4.8 5.8 4.9 5.75 5.0 5.7 5.1 5.65 5.2 5.6 5.3 5.55 5.4 5.45 5.45 5.4 5.55 5.35 5.65 5.25 5.7 5.2 5.8 5.1 5.9 5.0 5.95 4.95 6.05 4.85 6.1 4.7 6.25 4.5 6.4 4.5 6.4 4.4 6.45 4.3 6.55 4.25 6.6 4.15 6.65 4.05 6.75 3.95 6.8 3.85 6.85 3.75 6.9 3.65 6.95 3.55 6.95 3.45 7.0 3.3 7.05 3.2 7.1 3.1 7.1 3.0 7.15 2.9 7.15 2.85 7.15 2.8 7.15 2.8 7.2 2.75 7.2 2.7 7.2 2.65 7.2 2.65 7.25 2.6 7.25 2.55 7.25 2.55 7.25 2.5 7.25 2.45 7.25 2.4 7.3 2.4 7.3 2.35 7.3 2.3 7.3 2.25 7.3 2.2 7.3 2.15 7.3 2.1 7.35 2.1 7.35 2.05 7.35 2.0 7.35 1.95 7.35 1.25 7.4 0.8 7.4 L0.8 7.4" fill="url(#gradient0)" fill-rule="evenodd" stroke="none"/>
    <path d="M7.1 -3.05 Q7.05 -3.05 7.0 -3.05 6.95 -3.05 6.9 -3.05 6.85 -3.05 6.8 -3.1 6.8 -3.1 6.75 -3.1 6.7 -3.1 6.65 -3.15 6.55 -3.15 6.5 -3.2 6.45 -3.2 6.4 -3.25 6.3 -3.25 6.25 -3.3 6.2 -3.3 6.15 -3.35 6.1 -3.35 6.05 -3.4 6.0 -3.45 5.9 -3.45 5.85 -3.5 5.8 -3.5 5.8 -3.55 5.6 -3.65 5.55 -3.65 5.55 -3.7 5.5 -3.7 5.45 -3.7 5.45 -3.75 5.4 -3.75 5.35 -3.8 5.35 -3.8 5.3 -3.85 5.3 -3.85 5.25 -3.9 5.25 -3.95 5.2 -3.95 5.2 -4.0 5.2 -4.05 5.15 -4.1 5.15 -4.1 5.15 -4.15 5.1 -4.2 5.1 -4.25 5.1 -4.25 5.1 -4.3 5.1 -4.35 5.1 -4.4 5.1 -4.45 5.1 -4.5 5.1 -4.5 5.15 -4.55 5.15 -4.6 5.2 -4.6 5.2 -4.65 5.25 -4.7 5.25 -4.7 5.3 -4.7 5.35 -4.75 5.35 -4.75 5.4 -4.75 5.45 -4.75 5.5 -4.75 5.55 -4.75 5.6 -4.75 5.65 -4.75 5.65 -4.75 5.7 -4.75 5.75 -4.75 5.8 -4.75 5.9 -4.7 5.95 -4.7 6.05 -4.65 6.1 -4.65 6.2 -4.6 6.25 -4.6 6.35 -4.55 6.45 -4.55 6.5 -4.5 6.6 -4.45 6.65 -4.45 6.75 -4.4 6.8 -4.35 6.85 -4.3 6.95 -4.3 7.0 -4.25 7.05 -4.2 7.1 -4.2 7.1 -4.15 7.15 -4.15 7.2 -4.1 7.2 -4.1 7.25 -4.05 7.3 -4.05 7.3 -4.0 7.35 -4.0 7.4 -3.95 7.4 -3.9 7.45 -3.9 7.45 -3.85 7.5 -3.8 7.55 -3.8 7.55 -3.75 7.6 -3.7 7.65 -3.6 7.65 -3.6 7.65 -3.55 7.65 -3.55 7.65 -3.5 7.65 -3.45 7.65 -3.45 7.65 -3.4 7.65 -3.4 7.65 -3.35 7.65 -3.35 7.65 -3.3 7.6 -3.3 7.6 -3.25 7.6 -3.25 7.55 -3.2 7.55 -3.2 7.5 -3.15 7.5 -3.15 7.45 -3.15 7.45 -3.1 7.4 -3.1 7.4 -3.1 7.35 -3.1 7.35 -3.1 7.3 -3.05 7.3 -3.05 7.25 -3.05 7.25 -3.05 7.2 -3.05 7.15 -3.05 7.15 -3.05 7.1 -3.05 7.1 -3.05 L7.1 -3.05" fill="url(#gradient1)" fill-rule="evenodd" stroke="none"/>
    <path d="M-7.25 -2.9 Q-7.3 -2.9 -7.35 -2.9 -7.4 -2.9 -7.45 -2.95 -7.5 -2.95 -7.5 -2.95 -7.55 -3.0 -7.6 -3.0 -7.6 -3.05 -7.65 -3.05 -7.65 -3.1 -7.7 -3.1 -7.7 -3.15 -7.7 -3.15 -7.7 -3.2 -7.7 -3.25 -7.7 -3.25 -7.7 -3.3 -7.7 -3.35 -7.7 -3.4 -7.6 -3.55 -7.55 -3.6 -7.55 -3.65 -7.5 -3.65 -7.45 -3.7 -7.4 -3.7 -7.4 -3.75 -7.35 -3.8 -7.25 -3.85 -7.15 -3.9 -7.1 -3.95 -7.0 -4.0 -6.9 -4.05 -6.8 -4.1 -6.7 -4.15 -6.6 -4.2 -6.5 -4.25 -6.4 -4.3 -6.3 -4.3 -6.2 -4.35 -6.1 -4.4 -6.0 -4.4 -5.9 -4.45 -5.8 -4.45 -5.75 -4.45 -5.7 -4.45 -5.65 -4.5 -5.6 -4.5 -5.55 -4.5 -5.5 -4.5 -5.5 -4.5 -5.4 -4.5 -5.35 -4.5 -5.35 -4.5 -5.3 -4.5 -5.25 -4.45 -5.2 -4.45 -5.15 -4.4 -5.1 -4.35 -5.1 -4.3 -5.05 -4.25 -5.05 -4.15 -5.05 -4.1 -5.1 -4.05 -5.1 -4.0 -5.1 -4.0 -5.15 -3.95 -5.15 -3.95 -5.15 -3.9 -5.15 -3.85 -5.2 -3.85 -5.2 -3.8 -5.2 -3.8 -5.25 -3.75 -5.25 -3.75 -5.3 -3.7 -5.3 -3.7 -5.35 -3.65 -5.35 -3.65 -5.4 -3.6 -5.55 -3.5 -5.55 -3.5 -5.65 -3.45 -5.7 -3.4 -5.8 -3.35 -5.9 -3.3 -5.95 -3.3 -6.05 -3.25 -6.1 -3.2 -6.2 -3.15 -6.3 -3.15 -6.4 -3.1 -6.45 -3.05 -6.55 -3.05 -6.65 -3.0 -6.7 -3.0 -6.8 -2.95 -6.9 -2.95 -6.95 -2.95 -7.05 -2.95 -7.25 -2.9 -7.25 -2.9 L-7.25 -2.9" fill="url(#gradient2)" fill-rule="evenodd" stroke="none"/>
    <path d="M-5.0 -2.4 Q-4.95 -2.4 -4.95 -2.4 -4.9 -2.4 -4.85 -2.4 -4.85 -2.4 -4.8 -2.35 -4.75 -2.35 -4.75 -2.35 -4.7 -2.3 -4.7 -2.3 -4.65 -2.25 -4.65 -2.25 -4.6 -2.2 -4.6 -2.15 -4.6 -2.15 -4.6 -2.1 -4.6 -2.05 -4.6 -2.0 -4.6 -1.95 -4.6 -1.95 -4.6 -1.9 -4.65 -1.85 -4.65 -1.8 -4.65 -1.8 -4.7 -1.75 -4.7 -1.7 -4.7 -1.65 -4.75 -1.6 -4.75 -1.6 -4.8 -1.55 -4.8 -1.5 -4.85 -1.5 -4.9 -1.45 -4.9 -1.4 -4.95 -1.4 -4.95 -1.35 -5.0 -1.3 -5.05 -1.3 -5.05 -1.25 -5.1 -1.2 -5.15 -1.2 -5.15 -1.15 -5.2 -1.1 -5.25 -1.1 -5.3 -1.05 -5.35 -1.0 -5.35 -0.95 -5.4 -0.95 -5.45 -0.9 -5.5 -0.9 -5.55 -0.85 -5.6 -0.8 -5.65 -0.8 -5.7 -0.75 -5.75 -0.75 -5.8 -0.7 -5.85 -0.7 -5.9 -0.65 -5.95 -0.65 -5.95 -0.65 -6.0 -0.6 -6.05 -0.6 -6.1 -0.6 -6.1 -0.6 -6.15 -0.55 -6.2 -0.55 -6.25 -0.55 -6.3 -0.55 -6.35 -0.55 -6.4 -0.55 -6.45 -0.6 -6.5 -0.6 -6.55 -0.65 -6.6 -0.7 -6.6 -0.75 -6.65 -0.75 -6.7 -0.8 -6.7 -0.85 -6.7 -0.9 -6.7 -1.0 -6.7 -1.05 -6.7 -1.1 -6.7 -1.15 -6.7 -1.15 -6.65 -1.2 -6.65 -1.25 -6.65 -1.3 -6.6 -1.3 -6.6 -1.35 -6.55 -1.4 -6.55 -1.45 -6.5 -1.45 -6.5 -1.5 -6.45 -1.5 -6.45 -1.55 -6.4 -1.6 -6.4 -1.6 -6.35 -1.65 -6.35 -1.65 -6.3 -1.7 -6.25 -1.7 -6.25 -1.75 -6.2 -1.8 -6.2 -1.8 -6.15 -1.85 -6.1 -1.85 -6.05 -1.9 -6.05 -1.9 -6.0 -1.95 -5.95 -2.0 -5.9 -2.0 -5.85 -2.05 -5.85 -2.05 -5.8 -2.1 -5.75 -2.15 -5.7 -2.15 -5.65 -2.2 -5.65 -2.2 -5.6 -2.25 -5.55 -2.25 -5.5 -2.3 -5.45 -2.3 -5.4 -2.3 -5.4 -2.35 -5.35 -2.35 -5.35 -2.35 -5.3 -2.35 -5.25 -2.35 -5.25 -2.4 -5.2 -2.4 -5.2 -2.4 -5.15 -2.4 -5.15 -2.4 -5.1 -2.4 -5.1 -2.4 -5.05 -2.4 -5.0 -2.4 -5.0 -2.4 L-5.0 -2.4" fill="url(#gradient3)" fill-rule="evenodd" stroke="none"/>
    <path d="M5.35 -2.3 Q5.4 -2.3 5.45 -2.3 5.45 -2.3 5.5 -2.3 5.55 -2.25 5.6 -2.25 5.65 -2.2 5.7 -2.2 5.75 -2.15 5.85 -2.05 5.95 -2.0 6.0 -1.95 6.05 -1.9 6.1 -1.85 6.15 -1.8 6.15 -1.75 6.2 -1.75 6.25 -1.7 6.3 -1.65 6.35 -1.6 6.35 -1.55 6.4 -1.5 6.45 -1.45 6.5 -1.4 6.5 -1.35 6.55 -1.3 6.6 -1.25 6.6 -1.2 6.65 -1.15 6.65 -1.1 6.7 -1.1 6.7 -1.05 6.75 -1.0 6.75 -0.95 6.75 -0.9 6.8 -0.85 6.8 -0.8 6.8 -0.75 6.8 -0.7 6.85 -0.7 6.85 -0.65 6.85 -0.6 6.85 -0.55 6.85 -0.55 6.85 -0.5 6.8 -0.45 6.8 -0.45 6.75 -0.4 6.75 -0.35 6.7 -0.35 6.7 -0.3 6.65 -0.3 6.6 -0.3 6.55 -0.3 6.5 -0.3 6.45 -0.3 6.45 -0.3 6.4 -0.3 6.35 -0.3 6.3 -0.35 6.25 -0.35 6.25 -0.4 6.2 -0.4 6.15 -0.45 6.1 -0.45 6.1 -0.5 6.05 -0.55 6.0 -0.55 5.95 -0.6 5.9 -0.6 5.9 -0.65 5.85 -0.7 5.8 -0.7 5.75 -0.75 5.7 -0.8 5.7 -0.85 5.65 -0.85 5.6 -0.9 5.55 -0.95 5.55 -1.0 5.5 -1.0 5.45 -1.05 5.4 -1.1 5.4 -1.15 5.35 -1.15 5.3 -1.2 5.3 -1.25 5.25 -1.3 5.25 -1.35 5.2 -1.4 5.2 -1.4 5.15 -1.45 5.15 -1.5 5.1 -1.55 5.1 -1.6 5.1 -1.65 5.05 -1.7 5.05 -1.75 5.05 -1.8 5.0 -1.8 5.0 -1.85 5.0 -1.9 5.0 -1.95 5.0 -2.0 5.0 -2.05 5.0 -2.05 5.0 -2.1 5.0 -2.1 5.05 -2.15 5.05 -2.2 5.05 -2.2 5.1 -2.2 5.1 -2.25 5.15 -2.25 5.2 -2.3 5.2 -2.3 5.25 -2.3 5.3 -2.3 5.35 -2.3 5.35 -2.3 L5.35 -2.3" fill="url(#gradient4)" fill-rule="evenodd" stroke="none"/>
  </g>
  <defs>
    <linearGradient gradientTransform="matrix(0.0, 0.0061, -0.0061, 0.0, 0.2, 2.3)" gradientUnits="userSpaceOnUse" id="gradient0" spreadMethod="pad" x1="-819.2" x2="819.2">
      <stop offset="0.0" stop-color="#000000"/>
      <stop offset="0.5372549019607843" stop-color="#000000"/>
      <stop offset="1.0" stop-color="#000000"/>
    </linearGradient>
    <linearGradient gradientTransform="matrix(0.0, 0.0011, -0.0011, 0.0, 6.35, -3.9)" gradientUnits="userSpaceOnUse" id="gradient1" spreadMethod="pad" x1="-819.2" x2="819.2">
      <stop offset="0.0" stop-color="#000000"/>
      <stop offset="0.5372549019607843" stop-color="#000000"/>
      <stop offset="1.0" stop-color="#000000"/>
    </linearGradient>
    <linearGradient gradientTransform="matrix(0.0, 0.001, -0.001, 0.0, -6.35, -3.7)" gradientUnits="userSpaceOnUse" id="gradient2" spreadMethod="pad" x1="-819.2" x2="819.2">
      <stop offset="0.0" stop-color="#000000"/>
      <stop offset="0.5372549019607843" stop-color="#000000"/>
      <stop offset="1.0" stop-color="#000000"/>
    </linearGradient>
    <linearGradient gradientTransform="matrix(0.0, 0.0011, -0.0011, 0.0, -5.65, -1.45)" gradientUnits="userSpaceOnUse" id="gradient3" spreadMethod="pad" x1="-819.2" x2="819.2">
      <stop offset="0.0" stop-color="#000000"/>
      <stop offset="0.5372549019607843" stop-color="#000000"/>
      <stop offset="1.0" stop-color="#000000"/>
    </linearGradient>
    <linearGradient gradientTransform="matrix(0.0, 0.0012, -0.0012, 0.0, 5.9, -1.3)" gradientUnits="userSpaceOnUse" id="gradient4" spreadMethod="pad" x1="-819.2" x2="819.2">
      <stop offset="0.0" stop-color="#000000"/>
      <stop offset="0.5372549019607843" stop-color="#000000"/>
      <stop offset="1.0" stop-color="#000000"/>
    </linearGradient>
  </defs>
</svg>
