<?xml version="1.0" encoding="UTF-8" standalone="no"?>
<svg xmlns:xlink="http://www.w3.org/1999/xlink" height="23.15px" width="19.75px" xmlns="http://www.w3.org/2000/svg">
  <g transform="matrix(1.0, 0.0, 0.0, 1.0, 9.85, 11.55)">
    <path d="M9.9 -1.6 Q9.9 -1.9 9.9 -1.95 9.9 -2.15 9.9 -2.3 9.85 -2.5 9.85 -2.7 9.85 -2.9 9.85 -3.1 9.8 -3.35 9.8 -3.6 9.75 -3.85 9.75 -4.1 9.7 -4.35 9.65 -4.6 9.6 -4.9 9.55 -5.15 9.45 -5.65 9.4 -5.95 9.3 -6.45 9.2 -6.85 9.1 -7.3 8.95 -7.75 8.8 -8.25 8.6 -8.7 8.45 -9.2 8.2 -9.65 7.95 -10.15 7.65 -10.55 7.35 -11.05 7.0 -11.45 6.6 -11.9 6.15 -12.3 5.7 -12.7 5.25 -13.05 4.8 -13.35 4.35 -13.6 3.9 -13.85 3.45 -14.0 3.05 -14.2 2.6 -14.3 2.25 -14.45 1.85 -14.55 1.55 -14.6 1.2 -14.65 0.95 -14.7 0.75 -14.7 0.55 -14.75 0.45 -14.75 0.15 -14.75 0.15 -14.75 -0.15 -14.75 -0.45 -14.75 -0.9 -14.7 -1.35 -14.65 -1.9 -14.55 -2.4 -14.45 -3.05 -14.3 -3.65 -14.05 -4.3 -13.8 -4.9 -13.5 -5.6 -13.15 -6.2 -12.7 -6.85 -12.15 -7.4 -11.55 -7.85 -11.05 -8.2 -10.55 -8.55 -10.05 -8.8 -9.5 -9.05 -8.95 -9.25 -8.4 -9.45 -7.85 -9.55 -7.25 -9.65 -6.7 -9.75 -6.05 -9.8 -5.5 -9.85 -4.85 -9.85 -4.25 -9.85 -3.6 -9.85 -3.0 -9.8 -2.3 -9.75 -1.5 -9.7 -0.7 -9.6 0.1 -9.5 0.85 -9.4 1.55 -9.25 2.25 -9.1 2.95 -8.9 3.65 -8.7 4.3 -8.45 4.9 -8.25 5.5 -8.0 6.1 -7.7 6.7 -7.4 7.2 -7.1 7.75 -6.75 8.25 -6.7 8.35 -6.6 8.45 -6.55 8.55 -6.5 8.6 -6.4 8.7 -6.35 8.8 -6.25 8.9 -6.2 9.0 -6.1 9.05 -6.05 9.15 -6.0 9.25 -5.9 9.35 -5.85 9.4 -5.75 9.5 -5.7 9.55 -5.6 9.65 -5.5 9.75 -5.45 9.85 -5.35 9.9 -5.25 10.0 -5.2 10.1 -5.1 10.15 -5.0 10.25 -4.95 10.3 -4.85 10.35 -4.8 10.45 -4.7 10.5 -4.65 10.55 -4.55 10.65 -4.5 10.7 -4.45 10.75 -4.35 10.8 -4.2 10.9 -4.1 10.95 -3.95 11.05 -3.8 11.15 -3.6 11.25 -3.45 11.35 -3.25 11.45 -3.05 11.55 -2.8 11.65 -2.6 11.75 -2.35 11.85 -2.1 11.9 -1.85 12.0 -1.6 12.05 -1.35 12.15 -1.05 12.2 -0.6 12.25 -0.2 12.3 0.2 12.35 0.6 12.35 1.0 12.3 1.35 12.3 1.7 12.25 2.05 12.15 2.35 12.1 2.65 12.05 2.9 11.95 3.15 11.9 3.4 11.8 3.6 11.75 3.8 11.65 3.95 11.6 4.05 11.55 4.15 11.5 4.25 11.4 4.35 11.35 4.45 11.3 4.55 11.25 4.65 11.15 4.75 11.1 4.85 11.0 4.95 10.9 5.05 10.85 5.15 10.75 5.3 10.65 5.4 10.55 5.5 10.45 5.6 10.35 5.75 10.25 5.85 10.1 6.0 10.0 6.1 9.9 6.2 9.8 6.3 9.65 6.4 9.55 6.5 9.45 6.6 9.3 6.7 9.2 6.75 9.1 6.85 9.0 6.95 8.9 7.0 8.8 7.1 8.7 7.15 8.6 7.3 8.4 7.4 8.2 7.55 7.95 7.7 7.7 7.85 7.45 7.95 7.15 8.1 6.9 8.25 6.6 8.4 6.3 8.55 5.95 8.7 5.65 8.8 5.3 8.95 4.95 9.05 4.6 9.2 4.2 9.3 3.8 9.4 3.4 9.5 2.95 9.6 2.55 9.65 2.15 9.7 1.8 9.75 1.4 9.8 1.05 9.85 0.7 9.85 0.4 9.9 0.05 9.9 -0.25 9.9 -0.55 9.9 -0.8 9.9 -1.1 9.9 -1.3 9.9 -1.6 L9.9 -1.6 M6.0 7.65 L5.95 7.75 Q5.65 8.15 5.35 8.5 5.0 8.9 4.7 9.2 4.35 9.5 4.0 9.75 3.7 10.0 3.3 10.2 2.95 10.4 2.6 10.55 2.2 10.7 1.85 10.8 1.45 10.85 1.05 10.9 0.65 10.95 0.25 10.95 -0.2 10.95 -0.6 10.85 -1.0 10.8 -1.4 10.65 -1.8 10.55 -2.15 10.35 -2.55 10.2 -2.9 10.0 -3.25 9.75 -3.6 9.5 -3.95 9.2 -4.25 8.9 -4.6 8.55 -4.9 8.2 -5.2 7.8 -5.5 7.4 L-5.75 7.0 Q-6.05 6.55 -6.3 6.05 -6.55 5.6 -6.75 5.05 -7.0 4.55 -7.15 4.0 -7.35 3.45 -7.5 2.85 -7.7 2.25 -7.8 1.65 -7.95 1.05 -8.05 0.4 -8.15 -0.25 -8.2 -0.95 -8.25 -1.65 -8.3 -2.35 L-8.3 -2.4 Q-8.3 -2.8 -8.35 -3.15 -8.35 -3.5 -8.35 -3.85 -8.35 -4.2 -8.35 -4.55 -8.3 -4.85 -8.3 -5.2 -8.25 -5.5 -8.25 -5.8 -8.2 -6.1 -8.15 -6.4 -8.1 -6.7 -8.05 -6.95 -8.0 -7.25 -7.9 -7.5 -7.85 -7.8 -7.75 -8.05 -7.65 -8.35 -7.5 -8.6 -7.4 -8.8 -7.3 -9.05 -7.2 -9.25 -7.05 -9.5 -6.9 -9.7 -6.8 -9.9 -6.65 -10.05 -6.55 -10.25 -6.4 -10.35 -6.3 -10.55 -6.2 -10.65 -6.05 -10.8 -5.95 -10.9 -5.8 -11.0 -5.6 -11.15 -5.35 -11.35 -5.05 -11.55 -4.75 -11.7 -4.35 -11.9 -3.95 -12.1 -3.5 -12.3 -3.05 -12.45 -2.55 -12.6 -2.0 -12.7 -1.4 -12.85 -0.8 -12.85 -0.2 -12.9 0.45 -12.8 0.55 -12.8 0.7 -12.75 0.95 -12.75 1.25 -12.65 1.6 -12.6 1.95 -12.5 2.4 -12.35 2.8 -12.2 3.3 -12.0 3.75 -11.75 4.25 -11.45 4.7 -11.15 5.2 -10.8 5.6 -10.35 6.05 -9.9 6.4 -9.4 6.5 -9.2 6.6 -9.05 6.75 -8.85 6.8 -8.7 6.9 -8.5 7.0 -8.35 7.05 -8.15 7.15 -7.95 7.2 -7.8 7.3 -7.6 7.35 -7.4 7.4 -7.15 7.45 -7.0 7.55 -6.75 7.6 -6.6 7.7 -6.25 7.7 -6.25 7.75 -6.05 7.8 -5.85 7.85 -5.7 7.9 -5.45 7.95 -5.2 8.0 -4.95 8.05 -4.65 8.15 -4.3 8.2 -4.0 8.25 -3.6 8.3 -3.25 8.3 -2.85 8.35 -2.45 8.4 -2.0 8.4 -1.6 8.4 -0.8 8.35 -0.05 8.3 0.7 8.15 1.45 8.05 2.15 7.85 2.85 7.7 3.5 7.5 4.1 7.3 4.7 7.1 5.25 6.9 5.75 6.7 6.2 6.5 6.65 6.3 7.0 6.15 7.35 6.0 7.65 L6.0 7.65" fill="#020101" fill-rule="evenodd" stroke="none"/>
  </g>
</svg>
