<?xml version="1.0" encoding="UTF-8" standalone="no"?>
<svg xmlns:xlink="http://www.w3.org/1999/xlink" height="20.65px" width="23.35px" xmlns="http://www.w3.org/2000/svg">
  <g transform="matrix(1.0, 0.0, 0.0, 1.0, 11.65, 10.65)">
    <path d="M9.3 -10.6 Q9.35 -10.5 9.35 -10.4 9.35 -10.5 9.25 -10.7 9.25 -10.65 9.3 -10.6 9.25 -10.75 9.2 -10.9 9.15 -11.1 9.1 -11.25 9.0 -11.4 8.95 -11.6 8.9 -11.75 8.8 -11.9 8.75 -12.05 8.65 -12.25 8.6 -12.4 8.5 -12.55 8.45 -12.75 8.35 -12.9 8.25 -13.05 8.15 -13.25 7.95 -13.55 7.85 -13.75 7.7 -14.05 7.5 -14.3 7.3 -14.6 7.1 -14.85 6.85 -15.2 6.6 -15.5 6.35 -15.8 6.05 -16.1 5.7 -16.4 5.35 -16.65 5.0 -16.95 4.55 -17.2 4.15 -17.45 3.65 -17.65 3.2 -17.85 2.75 -17.95 2.3 -18.1 1.85 -18.15 1.45 -18.2 1.0 -18.25 0.65 -18.25 0.25 -18.25 -0.1 -18.25 -0.45 -18.2 -0.75 -18.15 -1.05 -18.1 -1.3 -18.05 -1.55 -18.0 -1.75 -18.0 -1.95 -17.95 -2.75 -17.75 -3.55 -17.4 -4.25 -17.1 -4.9 -16.65 -5.5 -16.25 -6.05 -15.8 -6.55 -15.35 -7.0 -14.85 -7.4 -14.4 -7.8 -13.95 -8.1 -13.55 -8.35 -13.1 -8.55 -12.8 -8.75 -12.45 -8.85 -12.2 -8.95 -12.05 -9.05 -11.75 -9.2 -11.45 -9.3 -11.1 -9.4 -10.8 -9.55 -10.4 -9.65 -10.0 -9.75 -9.6 -9.85 -9.2 -9.95 -8.75 -10.05 -8.3 -10.1 -7.8 -10.2 -7.35 -10.25 -6.8 -10.3 -6.3 -10.3 -5.75 -10.3 -5.2 -10.3 -4.55 -10.25 -3.9 -10.25 -3.35 -10.15 -2.75 -10.1 -2.2 -10.0 -1.65 -9.9 -1.15 -9.75 -0.7 -9.65 -0.25 -9.55 0.15 -9.45 0.55 -9.3 0.9 -9.2 1.2 -9.1 1.45 -9.0 1.7 -8.9 1.9 -8.85 2.05 -8.8 2.15 -8.75 2.3 -8.65 2.45 -8.6 2.6 -8.5 2.75 -8.45 2.95 -8.35 3.1 -8.25 3.3 -8.15 3.5 -8.05 3.7 -7.9 3.9 -7.8 4.1 -7.65 4.3 -7.5 4.5 -7.35 4.75 -7.15 5.05 -6.9 5.3 -6.7 5.6 -6.5 5.85 -6.25 6.1 -6.05 6.3 -5.8 6.55 -5.55 6.75 -5.35 7.0 -5.1 7.2 -4.85 7.4 -4.6 7.55 -4.35 7.75 -4.1 7.9 -3.85 8.05 -3.6 8.2 -3.2 8.35 -2.85 8.5 -2.45 8.65 -2.1 8.75 -1.7 8.85 -1.35 8.95 -1.0 9.0 -0.6 9.1 -0.25 9.15 0.1 9.15 0.5 9.2 0.85 9.2 1.2 9.25 1.6 9.2 1.95 9.2 2.3 9.15 2.65 9.05 3.0 8.95 3.35 8.85 3.7 8.7 4.05 8.55 4.35 8.35 4.7 8.2 5.0 7.95 5.3 7.75 5.6 7.5 5.9 7.25 6.2 6.95 6.5 6.7 6.75 6.35 7.05 6.05 7.3 5.7 7.8 5.05 8.2 4.35 8.6 3.7 8.9 3.05 9.2 2.4 9.4 1.7 9.65 1.1 9.8 0.45 9.95 -0.15 10.05 -0.75 10.15 -1.3 10.25 -1.9 10.3 -2.4 10.3 -2.95 10.35 -3.35 10.35 -3.85 10.35 -4.25 10.35 -4.7 10.35 -5.2 10.35 -5.65 10.3 -6.1 10.25 -6.6 10.2 -7.05 10.15 -7.55 10.1 -8.0 10.0 -8.4 9.9 -8.85 9.8 -9.25 9.7 -9.65 9.6 -10.0 9.45 -10.35 9.3 -10.6 L9.3 -10.6 M7.75 1.7 L7.4 2.5 6.25 4.25 5.3 5.35 Q5.05 5.6 4.75 5.85 4.5 6.1 4.2 6.3 3.9 6.5 3.6 6.65 3.3 6.8 2.95 6.95 2.65 7.05 2.3 7.15 1.95 7.25 1.6 7.3 1.25 7.35 0.9 7.35 0.5 7.35 0.15 7.35 -0.2 7.3 -0.55 7.25 -0.9 7.2 -1.25 7.1 -1.55 7.0 -1.9 6.85 -2.25 6.7 -2.55 6.55 -2.85 6.4 -3.15 6.2 -3.45 6.0 -3.75 5.75 -4.05 5.5 -4.35 5.25 -4.65 5.0 -4.9 4.7 L-5.95 3.4 -7.35 0.8 -7.55 0.3 Q-7.65 0.0 -7.75 -0.35 -7.85 -0.65 -7.95 -1.0 -8.05 -1.3 -8.1 -1.65 -8.15 -2.0 -8.25 -2.3 -8.3 -2.65 -8.35 -3.0 -8.35 -3.35 -8.4 -3.7 -8.45 -4.05 -8.45 -4.4 -8.45 -4.8 -8.45 -5.15 -8.45 -5.4 -8.45 -5.65 -8.45 -5.85 -8.45 -6.1 -8.4 -6.35 -8.4 -6.55 -8.4 -6.8 -8.35 -7.05 -8.35 -7.25 -8.3 -7.5 -8.25 -7.7 -8.25 -7.9 -8.2 -8.15 -8.15 -8.35 -8.1 -8.55 -8.05 -8.8 -8.0 -9.05 -7.95 -9.3 -7.85 -9.5 -7.8 -9.75 -7.7 -9.95 -7.65 -10.15 -7.55 -10.35 -7.5 -10.55 -7.4 -10.75 -7.35 -10.95 -7.25 -11.15 -7.15 -11.3 -7.1 -11.45 -7.0 -11.65 -6.95 -11.75 -6.85 -11.9 -6.8 -12.0 -6.65 -12.2 -6.5 -12.45 -6.3 -12.7 -6.05 -13.05 -5.75 -13.35 -5.4 -13.75 -5.0 -14.05 -4.55 -14.45 -4.1 -14.75 -3.55 -15.1 -3.0 -15.4 -2.4 -15.7 -1.8 -15.85 -1.1 -16.05 -0.35 -16.1 -0.25 -16.1 0.0 -16.1 0.35 -16.1 0.75 -16.1 1.05 -16.05 1.4 -16.0 1.7 -15.95 2.05 -15.9 2.3 -15.8 2.6 -15.75 2.8 -15.65 3.05 -15.55 3.25 -15.5 3.45 -15.4 3.6 -15.3 3.75 -15.25 3.85 -15.2 3.95 -15.15 4.1 -15.05 4.1 -15.05 4.2 -15.0 4.3 -14.95 4.4 -14.85 4.55 -14.75 4.7 -14.65 4.8 -14.55 5.0 -14.45 5.15 -14.3 5.3 -14.15 5.45 -14.0 5.65 -13.8 5.8 -13.65 6.0 -13.45 6.15 -13.25 6.3 -13.05 6.45 -12.85 6.55 -12.7 6.7 -12.5 6.8 -12.3 6.9 -12.1 7.0 -11.9 7.1 -11.7 7.2 -11.5 7.3 -11.25 7.35 -11.05 7.45 -10.75 7.55 -10.5 7.65 -10.2 7.75 -10.0 7.9 -9.55 8.0 -8.95 8.45 -7.05 8.55 -6.7 8.65 -6.2 8.65 -6.05 8.7 -5.95 8.7 -5.8 8.7 -5.65 8.75 -5.5 8.75 -5.4 8.75 -5.25 8.75 -5.1 8.75 -4.95 8.8 -4.8 8.8 -4.7 8.8 -4.55 8.8 -4.4 8.8 -4.25 8.8 -4.1 8.8 -3.95 8.8 -3.5 8.8 -3.1 8.75 -2.7 8.7 -2.25 8.65 -1.9 8.6 -1.5 8.55 -1.1 8.45 -0.75 8.4 -0.4 8.3 -0.05 8.25 0.25 8.15 0.55 8.05 0.85 7.95 1.15 7.85 1.4 7.75 1.7 L7.75 1.7" fill="#000000" fill-rule="evenodd" stroke="none"/>
  </g>
</svg>
