<?xml version="1.0" encoding="UTF-8" standalone="no"?>
<svg xmlns:xlink="http://www.w3.org/1999/xlink" height="8.95px" width="33.6px" xmlns="http://www.w3.org/2000/svg">
  <g transform="matrix(1.0, 0.0, 0.0, 1.0, 12.75, 8.25)">
    <path d="M-15.3 4.55 Q-15.45 3.55 -15.55 2.95 -15.6 2.45 -15.65 2.0 -15.7 1.5 -15.7 1.05 -15.7 0.6 -15.7 0.15 -15.7 -0.3 -15.65 -0.75 -15.65 -1.15 -15.6 -1.55 -15.55 -1.95 -15.5 -2.35 -15.45 -2.75 -15.4 -3.15 -15.35 -3.5 -15.25 -3.85 -14.7 -4.2 -14.1 -4.5 -13.35 -4.9 -12.55 -5.25 -11.6 -5.7 -10.6 -6.1 -9.45 -6.55 -8.25 -6.9 -6.9 -7.3 -5.55 -7.6 -4.05 -7.9 -2.55 -8.05 -0.9 -8.25 0.75 -8.25 2.5 -8.25 4.3 -8.05 5.8 -7.9 7.3 -7.55 8.65 -7.3 10.0 -6.85 11.25 -6.5 12.5 -6.0 13.6 -5.55 14.65 -5.0 15.65 -4.55 16.6 -4.0 17.4 -3.55 18.2 -3.0 18.85 -2.55 19.5 -2.1 20.0 -1.7 20.5 -1.3 19.85 -1.55 19.15 -1.8 18.3 -2.1 17.4 -2.3 16.35 -2.6 15.3 -2.85 14.1 -3.1 12.9 -3.25 11.55 -3.45 10.2 -3.55 8.75 -3.65 7.25 -3.65 5.65 -3.65 4.1 -3.5 2.35 -3.3 0.7 -3.0 -0.75 -2.7 -2.15 -2.3 -3.5 -1.95 -4.8 -1.45 -6.0 -1.0 -7.2 -0.45 -8.25 0.0 -9.3 0.6 -10.25 1.1 -11.2 1.65 -12.05 2.15 -12.8 2.7 -13.5 3.2 -14.2 3.7 -14.75 4.1 -15.3 4.55 L-15.3 4.55" fill="#2d3c84" fill-opacity="0.32941177" fill-rule="evenodd" stroke="none"/>
  </g>
</svg>
