<?xml version="1.0" encoding="UTF-8" standalone="no"?>
<svg xmlns:xlink="http://www.w3.org/1999/xlink" height="23.0px" width="33.55px" xmlns="http://www.w3.org/2000/svg">
  <g transform="matrix(1.0, 0.0, 0.0, 1.0, 12.75, 8.25)">
    <path d="M-11.15 9.5 Q-12.15 8.75 -12.6 8.4 -13.35 7.85 -13.9 7.45 -14.55 6.95 -15.0 6.5 -15.55 6.05 -15.95 5.65 -16.35 5.2 -16.7 4.8 -17.05 4.35 -17.3 3.9 -17.5 3.45 -17.7 3.0 -17.85 2.55 -17.9 2.0 -17.95 1.55 -17.95 1.1 -17.95 0.65 -17.9 0.2 -17.85 -0.2 -17.7 -0.65 -17.6 -1.0 -17.45 -1.4 -17.35 -1.75 -17.15 -2.1 -17.0 -2.45 -16.85 -2.75 -16.65 -3.05 -16.5 -3.35 -16.3 -3.6 -16.15 -3.8 -15.45 -4.15 -14.75 -4.5 -13.9 -4.9 -13.0 -5.25 -11.95 -5.7 -10.9 -6.05 -9.65 -6.5 -8.45 -6.8 -7.1 -7.2 -5.7 -7.45 -4.2 -7.75 -2.65 -7.95 -1.0 -8.1 0.65 -8.15 2.4 -8.2 4.2 -8.05 5.55 -7.95 6.9 -7.75 8.15 -7.6 9.4 -7.3 10.6 -7.05 11.75 -6.75 12.85 -6.45 13.9 -6.05 14.85 -5.75 15.8 -5.35 16.65 -5.0 17.5 -4.6 18.25 -4.25 19.0 -3.9 19.65 -3.55 20.25 -3.2 20.65 -2.3 20.75 -1.1 20.85 0.0 20.7 1.35 20.6 2.6 20.2 4.0 19.85 5.35 19.3 6.75 18.75 8.1 18.1 9.35 17.4 10.6 16.65 11.65 15.85 12.7 15.0 13.5 14.15 14.3 13.3 14.75 13.0 14.85 12.65 14.95 12.3 15.05 12.0 15.15 11.6 15.2 11.2 15.3 10.8 15.4 10.4 15.45 9.95 15.55 9.5 15.6 9.05 15.7 8.55 15.75 8.05 15.8 7.55 15.8 7.05 15.85 6.55 15.85 6.35 15.85 6.1 15.85 5.8 15.85 5.45 15.85 5.0 15.85 4.55 15.8 4.0 15.8 3.45 15.7 2.8 15.65 2.15 15.55 1.45 15.4 0.75 15.25 -0.05 15.1 -0.8 14.9 -1.65 14.65 -2.45 14.4 -3.15 14.15 -3.85 13.85 -4.5 13.6 -5.15 13.3 -5.75 13.0 -6.35 12.7 -6.9 12.4 -7.45 12.1 -7.95 11.8 -8.45 11.45 -8.9 11.15 -9.4 10.8 -9.8 10.5 -10.3 10.15 -10.65 9.9 -11.15 9.5 L-11.15 9.5" fill="#ffffff" fill-rule="evenodd" stroke="none"/>
  </g>
</svg>
