<?xml version="1.0" encoding="UTF-8" standalone="no"?>
<svg xmlns:xlink="http://www.w3.org/1999/xlink" height="32.8px" width="29.05px" xmlns="http://www.w3.org/2000/svg">
  <g transform="matrix(1.0, 0.0, 0.0, 1.0, 14.5, 16.4)">
    <path d="M-4.35 -0.65 Q-4.65 -0.5 -4.95 -0.3 -5.2 -0.1 -5.45 0.15 -5.65 0.35 -5.85 0.65 -6.05 0.9 -6.2 1.2 -6.3 1.5 -6.45 1.75 -6.55 2.0 -6.6 2.3 -6.7 2.5 -6.75 2.75 -6.8 2.85 -6.85 3.05 -6.95 3.55 -7.0 4.05 -7.05 4.55 -7.0 5.05 -7.0 5.5 -6.9 5.9 -6.8 6.3 -6.7 6.7 -6.6 7.1 -6.45 7.45 -6.3 7.75 -6.2 8.0 -6.05 8.25 -5.95 8.5 -5.85 8.65 -5.75 8.85 -5.55 9.15 -5.55 9.15 -5.45 9.35 -5.3 9.5 -5.15 9.75 -5.0 9.95 -4.8 10.2 -4.55 10.45 -4.35 10.7 -4.05 10.95 -3.8 11.2 -3.5 11.4 -3.15 11.65 -2.8 11.85 -2.45 12.05 -2.05 12.2 -1.75 12.3 -1.5 12.4 -1.2 12.45 -0.9 12.5 -0.65 12.55 -0.35 12.6 -0.05 12.6 0.2 12.65 0.5 12.65 0.8 12.6 1.1 12.6 1.4 12.6 1.65 12.55 2.0 12.55 2.25 12.5 2.65 12.45 2.9 12.45 3.05 12.4 3.25 12.4 3.4 12.4 3.6 12.35 3.75 12.35 3.95 12.3 4.1 12.25 4.3 12.25 4.45 12.2 4.65 12.15 4.8 12.1 5.0 12.05 5.2 12.0 5.4 11.9 5.55 11.85 5.7 11.8 5.8 11.75 5.95 11.65 6.15 11.6 6.3 11.5 6.5 11.35 6.75 11.25 6.95 11.1 7.2 10.95 7.4 10.75 7.65 10.55 7.9 10.35 8.15 10.1 8.35 9.85 8.6 9.55 8.8 9.25 8.95 9.05 9.05 8.9 9.15 8.7 9.3 8.55 9.4 8.3 9.5 8.1 9.65 7.85 9.75 7.65 9.85 7.4 9.95 7.1 10.0 6.85 10.05 6.55 10.1 6.25 10.1 5.95 10.1 5.65 10.05 5.35 10.0 5.0 9.85 4.7 9.75 4.4 9.6 4.15 9.45 3.9 9.3 3.65 9.15 3.45 8.95 3.25 8.8 3.05 8.6 2.9 8.45 2.75 8.3 2.6 8.15 2.5 8.0 2.4 7.9 2.35 7.8 2.25 7.5 2.05 7.2 1.9 6.95 1.8 6.65 1.7 6.4 1.65 6.15 1.6 5.9 1.55 5.55 1.5 5.35 1.5 4.95 1.5 4.5 1.45 4.25 1.45 3.8 1.4 3.4 1.35 2.95 1.3 2.45 1.2 1.7 1.05 1.05 0.85 0.45 0.7 -0.1 0.5 -0.55 0.3 -1.05 0.1 -1.15 0.05 -1.85 -0.3 -2.25 -0.5 -2.5 -0.6 -2.85 -0.7 -3.15 -0.75 -3.45 -0.85 -3.75 -0.8 -4.05 -0.75 -4.35 -0.65 L-4.35 -0.65" fill="#2f8391" fill-rule="evenodd" stroke="none"/>
  </g>
</svg>
