<?xml version="1.0" encoding="UTF-8" standalone="no"?>
<svg xmlns:xlink="http://www.w3.org/1999/xlink" height="200.0px" width="200.0px" xmlns="http://www.w3.org/2000/svg">
  <g transform="matrix(1.0, 0.0, 0.0, 1.0, 100.0, 100.0)">
    <path d="M-14.75 7.75 Q-15.0 7.1 -15.25 6.45 -15.45 5.8 -15.65 5.15 -15.85 4.55 -16.0 3.95 -16.15 3.35 -16.3 2.75 -16.4 2.2 -16.5 1.65 -16.6 1.15 -16.65 0.6 -16.7 0.15 -16.75 -0.35 -16.8 -0.75 -16.85 -1.2 -16.3 -2.2 -15.7 -3.1 -15.15 -3.95 -14.55 -4.7 -13.95 -5.45 -13.35 -6.1 -12.75 -6.7 -12.15 -7.3 -11.6 -7.8 -11.05 -8.25 -10.5 -8.65 -10.0 -9.05 -9.55 -9.35 -9.05 -9.65 -8.7 -9.9 -8.3 -10.1 -6.65 -11.05 -4.8 -11.65 -3.15 -12.2 -1.35 -12.5 0.3 -12.75 2.0 -12.75 3.55 -12.75 5.2 -12.55 6.6 -12.4 8.05 -12.1 9.25 -11.85 10.5 -11.45 11.45 -11.15 12.45 -10.8 13.05 -10.6 13.85 -10.3 14.7 -10.0 15.5 -9.6 16.25 -9.25 17.0 -8.85 17.75 -8.5 18.4 -8.1 19.05 -7.7 19.7 -7.3 20.25 -6.9 20.85 -6.5 21.35 -6.15 21.85 -5.75 22.3 -5.4 22.75 -5.0 23.1 -4.7 23.5 -4.35 23.5 -3.75 23.5 -3.15 23.5 -2.5 23.5 -1.85 23.45 -1.15 23.4 -0.5 23.35 0.25 23.3 0.95 23.2 1.75 23.1 2.5 22.95 3.3 22.8 4.1 22.65 4.9 22.5 5.75 22.3 6.6 22.05 7.45 21.9 7.95 21.75 8.5 21.6 9.0 21.45 9.45 21.3 9.95 21.1 10.4 20.95 10.9 20.75 11.35 20.6 11.8 20.4 12.2 20.25 12.65 20.05 13.05 19.9 13.45 19.7 13.85 19.55 14.2 19.35 14.6 19.2 14.7 19.05 14.8 18.9 14.95 18.7 15.05 18.55 15.15 18.35 15.3 18.15 15.4 17.95 15.55 17.75 15.7 17.5 15.8 17.3 15.95 17.05 16.05 16.8 16.2 16.55 16.35 16.3 16.45 16.05 16.6 15.25 17.0 14.45 17.3 13.7 17.6 12.9 17.85 12.15 18.1 11.4 18.3 10.7 18.45 9.95 18.6 9.3 18.7 8.6 18.8 7.95 18.85 7.3 18.9 6.75 18.95 6.15 19.0 5.7 19.0 5.05 19.05 4.6 19.05 4.3 19.1 3.85 19.1 3.45 19.1 3.0 19.1 2.5 19.1 2.0 19.1 1.5 19.05 0.95 19.0 0.4 18.95 -0.2 18.9 -0.75 18.8 -1.4 18.7 -2.0 18.6 -2.7 18.45 -3.35 18.3 -3.85 18.15 -4.35 18.0 -4.85 17.9 -5.3 17.7 -5.75 17.55 -6.2 17.4 -6.65 17.25 -7.05 17.05 -7.45 16.9 -7.85 16.75 -8.2 16.55 -8.55 16.4 -8.9 16.25 -9.2 16.05 -9.5 15.9 -9.8 15.75 -10.1 15.4 -10.35 15.05 -10.7 14.7 -10.95 14.3 -11.3 13.9 -11.6 13.45 -11.95 12.95 -12.25 12.5 -12.6 11.95 -12.9 11.45 -13.2 10.9 -13.5 10.3 -13.85 9.7 -14.15 9.05 -14.45 8.4 -14.75 7.75 L-14.75 7.75" fill="#ffffff" fill-rule="evenodd" stroke="none"/>
  </g>
</svg>
