<?xml version="1.0" encoding="UTF-8" standalone="no"?>
<svg xmlns:xlink="http://www.w3.org/1999/xlink" height="22.9px" width="17.3px" xmlns="http://www.w3.org/2000/svg">
  <g transform="matrix(1.0, 0.0, 0.0, 1.0, 8.55, 11.55)">
    <path d="M-6.25 5.35 L-5.55 5.2 Q-5.35 5.15 -5.2 5.1 -5.05 5.1 -4.9 5.05 -4.75 5.05 -4.6 5.05 -4.5 5.0 -4.4 5.0 -4.25 5.0 -4.2 5.05 -4.1 5.05 -4.0 5.05 -3.95 5.1 -3.9 5.1 -3.8 5.15 -3.8 5.2 L-3.75 5.3 Q-3.7 5.4 -3.7 5.5 -3.7 5.6 -3.75 5.7 -3.8 5.8 -3.85 5.95 -3.9 6.05 -4.0 6.2 -4.1 6.3 -4.2 6.45 -4.35 6.6 -4.5 6.8 -4.65 6.95 -4.85 7.1 -5.05 7.3 -5.25 7.5 -5.45 7.7 -5.7 7.85 -5.9 7.95 -6.1 8.05 -6.25 8.15 -6.45 8.2 -6.6 8.25 -6.8 8.25 -6.95 8.25 -7.1 8.2 -7.25 8.15 -7.35 8.05 -7.5 7.95 -7.6 7.8 -7.75 7.65 -7.85 7.5 -7.95 7.3 -8.0 7.15 -8.05 6.95 -8.05 6.8 -8.05 6.65 -8.0 6.5 -7.95 6.35 -7.85 6.2 -7.75 6.05 -7.6 5.95 -7.45 5.85 -7.25 5.7 -7.05 5.6 -6.8 5.5 -6.55 5.45 -6.25 5.35 M-3.45 7.45 Q-3.3 7.55 -3.15 7.65 -3.0 7.75 -2.9 7.85 -2.85 7.95 -2.8 8.05 -2.75 8.2 -2.7 8.3 -2.7 8.4 -2.75 8.55 -2.8 8.65 -2.85 8.8 -2.95 8.9 -3.05 9.05 -3.15 9.15 -3.35 9.3 -3.5 9.35 -3.6 9.35 -3.75 9.4 -3.85 9.4 -3.95 9.4 -4.05 9.35 -4.15 9.35 -4.2 9.3 -4.3 9.25 -4.35 9.2 -4.4 9.15 -4.45 9.05 -4.5 9.0 -4.55 8.9 -4.55 8.8 -4.6 8.65 -4.6 8.55 -4.65 8.45 -4.65 8.3 -4.6 8.2 -4.6 8.15 -4.55 8.05 -4.5 7.95 -4.4 7.9 -4.35 7.8 -4.25 7.75 -4.15 7.65 -4.05 7.6 -3.9 7.55 -3.8 7.5 -3.65 7.5 -3.45 7.45" fill="#ffffff" fill-rule="evenodd" stroke="none"/>
  </g>
</svg>
