<?xml version="1.0" encoding="UTF-8" standalone="no"?>
<svg xmlns:xlink="http://www.w3.org/1999/xlink" height="21.4px" width="17.05px" xmlns="http://www.w3.org/2000/svg">
  <g transform="matrix(1.0, 0.0, 0.0, 1.0, 8.5, 10.7)">
    <path d="M3.65 4.05 Q5.0 4.9 7.65 6.55 7.7 7.0 7.85 7.95 7.8 8.1 7.8 8.3 7.75 8.5 7.7 8.65 7.65 8.9 7.6 9.1 7.5 9.35 7.45 9.55 7.35 9.8 7.2 10.0 7.1 10.25 6.95 10.45 6.8 10.7 6.6 10.9 6.4 11.15 6.2 11.35 5.95 11.6 5.65 11.75 5.4 11.95 5.1 12.05 4.8 12.2 4.5 12.25 4.15 12.35 3.8 12.4 3.5 12.45 3.1 12.45 2.75 12.5 2.3 12.5 1.95 12.5 1.45 12.5 1.15 12.5 0.55 12.45 0.25 12.45 -0.05 12.45 -0.45 12.4 -0.85 12.4 -1.3 12.35 -1.75 12.3 -2.3 12.25 -2.8 12.15 -3.35 12.0 -3.85 11.9 -4.4 11.7 -4.85 11.5 -5.35 11.3 -5.75 11.0 -6.2 10.7 -6.5 10.35 -6.55 10.3 -6.6 10.25 -6.65 10.2 -6.7 10.1 -6.8 10.0 -6.85 9.9 -6.95 9.8 -7.0 9.7 -7.1 9.6 -7.2 9.45 -7.3 9.3 -7.4 9.2 -7.5 9.05 -7.55 8.9 -7.7 8.7 -7.75 8.55 -7.85 8.4 -7.95 8.25 -8.0 8.1 -8.1 8.0 -8.15 7.9 -8.2 7.8 -8.25 7.7 -8.3 7.6 -8.35 7.5 -8.4 7.4 -8.45 7.35 -8.45 7.25 -8.5 7.2 -8.5 7.1 -8.5 7.05 -8.5 7.0 -8.55 6.75 -8.45 6.45 -8.35 6.2 -8.15 5.9 -7.95 5.65 -7.65 5.35 -7.4 5.1 -7.05 4.85 -6.7 4.6 -6.35 4.4 -5.95 4.2 -5.55 4.0 -5.2 3.8 -4.8 3.65 -4.4 3.5 -4.05 3.35 -3.45 3.15 -2.85 3.05 -2.25 2.95 -1.65 2.95 -1.1 2.95 -0.55 2.95 0.0 3.0 0.5 3.1 1.0 3.2 1.45 3.3 1.9 3.4 2.3 3.55 2.7 3.65 3.05 3.8 3.35 3.95 3.65 4.05 L3.65 4.05" fill="#920000" fill-rule="evenodd" stroke="none"/>
  </g>
</svg>
