<?xml version="1.0" encoding="UTF-8" standalone="no"?>
<svg xmlns:xlink="http://www.w3.org/1999/xlink" height="7.95px" width="8.55px" xmlns="http://www.w3.org/2000/svg">
  <g transform="matrix(1.0, 0.0, 0.0, 1.0, 4.25, 4.0)">
    <path d="M4.65 1.4 Q4.65 1.65 4.65 1.9 4.6 2.15 4.6 2.35 4.6 2.6 4.55 2.85 4.5 3.05 4.5 3.3 4.45 3.5 4.4 3.7 4.35 3.95 4.3 4.15 4.25 4.35 4.2 4.55 4.1 4.8 4.0 5.0 3.9 5.2 3.8 5.4 3.75 5.6 3.6 5.75 3.5 5.95 3.35 6.1 3.2 6.25 3.05 6.4 2.9 6.55 2.75 6.7 2.55 6.85 2.35 6.95 2.15 7.1 1.95 7.2 1.75 7.3 1.5 7.4 1.2 7.5 0.85 7.55 0.55 7.65 0.15 7.65 -0.2 7.65 -0.55 7.6 -0.95 7.6 -1.3 7.5 -1.7 7.4 -2.0 7.25 -2.4 7.05 -2.7 6.85 -3.0 6.65 -3.3 6.35 -3.55 6.1 -3.75 5.75 -3.85 5.6 -3.9 5.45 -4.0 5.35 -4.05 5.2 -4.1 5.05 -4.2 4.9 -4.25 4.75 -4.25 4.6 -4.3 4.45 -4.35 4.3 -4.4 4.15 -4.4 4.0 -4.45 3.85 -4.45 3.7 -4.5 3.55 -4.5 3.4 -4.55 3.15 -4.55 2.85 -4.55 2.6 -4.55 2.35 -4.6 2.05 -4.55 1.8 -4.55 1.55 -4.55 1.25 -4.5 1.0 -4.5 0.75 -4.45 0.5 -4.4 0.2 -4.35 -0.05 -4.3 -0.3 -4.2 -0.55 -4.15 -0.8 -4.1 -1.0 -4.05 -1.15 -3.95 -1.35 -3.9 -1.5 -3.8 -1.65 -3.7 -1.85 -3.6 -2.0 -3.5 -2.15 -3.4 -2.3 -3.3 -2.45 -3.15 -2.6 -3.0 -2.7 -2.9 -2.85 -2.75 -3.0 -2.55 -3.1 -2.4 -3.25 -2.05 -3.5 -1.65 -3.65 -1.25 -3.8 -0.85 -3.85 -0.45 -3.95 0.0 -3.95 0.4 -3.95 0.85 -3.9 1.25 -3.85 1.65 -3.7 2.05 -3.55 2.4 -3.35 2.75 -3.2 3.05 -2.95 3.35 -2.7 3.55 -2.4 3.65 -2.25 3.75 -2.1 3.85 -2.0 3.95 -1.85 4.0 -1.7 4.1 -1.55 4.15 -1.4 4.2 -1.25 4.25 -1.1 4.3 -0.95 4.35 -0.8 4.4 -0.65 4.45 -0.5 4.45 -0.35 4.5 -0.2 4.5 -0.05 4.55 0.15 4.65 1.4 L4.65 1.4 M-3.05 2.75 Q-3.05 2.8 -3.0 3.15 -3.0 3.4 -2.95 3.6 -2.95 3.75 -2.9 3.85 -2.9 4.0 -2.85 4.1 -2.85 4.25 -2.8 4.35 -2.75 4.45 -2.7 4.6 -2.65 4.7 -2.6 4.8 -2.55 4.95 -2.5 5.05 -2.45 5.15 -2.35 5.25 -2.3 5.4 -2.2 5.5 -2.05 5.65 -1.85 5.8 -1.65 5.95 -1.45 6.1 -1.2 6.2 -0.95 6.25 -0.7 6.35 -0.45 6.4 -0.15 6.4 0.1 6.4 0.4 6.4 0.65 6.35 0.95 6.25 1.2 6.15 1.45 6.0 1.65 5.85 1.75 5.75 1.85 5.7 1.9 5.6 2.0 5.5 2.1 5.45 2.15 5.35 2.25 5.25 2.3 5.15 2.35 5.05 2.4 4.95 2.45 4.85 2.5 4.75 2.55 4.65 2.6 4.55 2.65 4.45 2.7 4.35 2.8 4.1 2.85 3.8 2.9 3.55 2.95 3.25 3.0 3.0 3.05 2.7 3.1 2.45 3.1 2.15 3.1 1.9 3.1 1.65 3.1 1.35 3.1 1.1 3.1 0.8 3.05 0.5 3.05 0.25 3.0 -0.05 3.0 -0.15 2.95 -0.3 2.95 -0.4 2.9 -0.5 2.85 -0.6 2.85 -0.7 2.8 -0.85 2.75 -0.95 2.7 -1.05 2.65 -1.15 2.6 -1.25 2.55 -1.35 2.45 -1.5 2.4 -1.6 2.35 -1.7 2.25 -1.8 2.1 -1.95 1.9 -2.1 1.75 -2.25 1.5 -2.35 1.25 -2.5 1.0 -2.55 0.75 -2.65 0.5 -2.7 0.2 -2.7 -0.05 -2.7 -0.35 -2.7 -0.6 -2.65 -0.85 -2.6 -1.1 -2.45 -1.35 -2.35 -1.6 -2.15 -1.7 -2.05 -1.8 -1.95 -1.9 -1.9 -2.0 -1.8 -2.05 -1.7 -2.15 -1.6 -2.2 -1.5 -2.3 -1.4 -2.35 -1.3 -2.4 -1.15 -2.45 -1.05 -2.5 -0.95 -2.55 -0.85 -2.6 -0.7 -2.65 -0.6 -2.7 -0.5 -2.75 -0.3 -2.8 -0.1 -2.85 0.1 -2.9 0.3 -2.9 0.5 -2.95 0.7 -2.95 0.9 -3.0 1.1 -3.0 1.3 -3.0 1.5 -3.05 1.7 -3.05 1.9 -3.05 2.1 -3.05 2.35 -3.05 2.55 -3.05 2.75 L-3.05 2.75" fill="#000000" fill-rule="evenodd" stroke="none"/>
  </g>
</svg>
