<?xml version="1.0" encoding="UTF-8" standalone="no"?>
<svg xmlns:xlink="http://www.w3.org/1999/xlink" height="22.25px" width="20.35px" xmlns="http://www.w3.org/2000/svg">
  <g transform="matrix(1.0, 0.0, 0.0, 1.0, 10.15, 11.1)">
    <path d="M9.95 -2.3 Q9.85 -2.85 9.7 -3.4 9.55 -3.95 9.35 -4.45 9.15 -4.95 8.9 -5.4 8.7 -5.9 8.4 -6.35 8.15 -6.8 7.85 -7.2 7.55 -7.6 7.15 -7.95 6.8 -8.35 6.4 -8.7 6.0 -9.0 5.6 -9.3 5.6 -9.25 5.55 -9.25 5.55 -9.2 5.55 -9.2 5.5 -9.15 5.5 -9.15 5.45 -9.1 5.45 -9.1 5.45 -9.05 5.4 -9.05 5.4 -9.0 5.4 -9.0 5.35 -8.95 5.35 -8.95 5.3 -8.9 5.3 -8.9 5.25 -8.85 5.2 -8.8 5.15 -8.75 5.05 -8.7 5.0 -8.7 4.95 -8.65 4.85 -8.6 4.8 -8.55 4.7 -8.55 4.65 -8.5 4.55 -8.5 4.5 -8.45 4.4 -8.45 4.35 -8.45 4.25 -8.45 4.2 -8.45 4.2 -8.45 4.15 -8.45 4.1 -8.45 4.1 -8.45 4.5 -8.2 4.85 -7.95 5.25 -7.65 5.6 -7.35 5.9 -7.05 6.25 -6.7 6.55 -6.35 6.8 -6.0 7.05 -5.6 7.3 -5.2 7.55 -4.85 7.75 -4.45 7.9 -4.05 8.05 -3.65 8.2 -3.2 8.3 -2.8 8.35 -2.65 8.4 -2.45 8.45 -2.3 8.45 -2.1 8.5 -1.95 8.55 -1.75 8.55 -1.6 8.6 -1.4 8.6 -1.25 8.65 -1.1 8.65 -0.9 8.65 -0.75 8.65 -0.6 8.65 -0.45 8.7 -0.3 8.7 -0.15 8.7 0.4 8.65 0.95 8.6 1.45 8.5 2.0 8.4 2.5 8.3 2.95 8.15 3.45 7.95 3.9 7.8 4.4 7.55 4.8 7.35 5.25 7.05 5.65 6.8 6.1 6.45 6.45 6.15 6.85 5.75 7.25 5.5 7.5 5.25 7.7 5.0 7.95 4.75 8.15 4.45 8.35 4.2 8.5 3.9 8.65 3.6 8.8 3.35 8.95 3.05 9.1 2.7 9.2 2.4 9.3 2.1 9.4 1.75 9.5 1.45 9.55 1.1 9.6 0.65 9.65 0.15 9.65 -0.3 9.65 -0.75 9.65 -1.15 9.6 -1.6 9.5 -2.0 9.4 -2.45 9.3 -2.85 9.15 -3.25 8.95 -3.65 8.8 -4.0 8.55 -4.4 8.35 -4.75 8.05 -5.1 7.75 -5.45 7.45 -5.75 7.15 -6.0 6.85 -6.3 6.6 -6.55 6.25 -6.8 5.95 -7.0 5.65 -7.2 5.3 -7.4 4.95 -7.6 4.65 -7.75 4.3 -7.9 3.9 -8.05 3.55 -8.2 3.2 -8.3 2.8 -8.4 2.4 -8.45 2.0 -8.6 1.25 -8.6 0.5 -8.65 -0.25 -8.6 -1.0 -8.55 -1.75 -8.35 -2.45 -8.2 -3.15 -7.95 -3.8 -7.7 -4.45 -7.35 -5.05 -6.95 -5.7 -6.5 -6.25 -6.05 -6.85 -5.5 -7.35 -4.95 -7.85 -4.25 -8.3 -4.15 -8.35 -4.1 -8.4 -4.0 -8.45 -3.95 -8.5 -3.85 -8.55 -3.75 -8.6 -3.7 -8.65 -3.6 -8.7 -3.55 -8.75 -3.45 -8.8 -3.35 -8.85 -3.3 -8.85 -3.2 -8.9 -3.1 -8.95 -3.0 -9.0 -2.95 -9.0 -3.9 -9.05 -5.1 -9.05 -5.15 -9.05 -5.15 -9.05 -5.2 -9.05 -5.25 -9.05 -5.3 -9.05 -5.3 -9.05 -5.35 -9.05 -5.4 -9.1 -5.45 -9.1 -5.45 -9.1 -5.5 -9.1 -5.55 -9.1 -5.55 -9.1 -5.6 -9.15 -5.65 -9.15 -5.65 -9.15 -5.7 -9.1 -5.8 -9.05 -5.85 -9.0 -5.9 -8.95 -6.0 -8.9 -6.05 -8.85 -6.1 -8.8 -6.2 -8.75 -6.25 -8.7 -6.3 -8.6 -6.4 -8.55 -6.45 -8.5 -6.5 -8.45 -6.55 -8.4 -6.65 -8.35 -6.7 -8.25 -7.05 -7.95 -7.35 -7.6 -7.65 -7.3 -7.9 -6.95 -8.15 -6.6 -8.4 -6.25 -8.65 -5.85 -8.85 -5.5 -9.05 -5.1 -9.2 -4.7 -9.4 -4.3 -9.55 -3.9 -9.65 -3.45 -9.75 -3.05 -9.9 -2.6 -9.95 -2.15 -10.1 -1.25 -10.1 -0.4 -10.15 0.45 -10.05 1.3 -10.0 2.1 -9.8 2.9 -9.65 3.65 -9.35 4.4 -9.05 5.1 -8.65 5.8 -8.25 6.5 -7.75 7.15 -7.25 7.8 -6.65 8.4 -6.0 9.0 -5.25 9.55 -5.0 9.7 -4.75 9.9 -4.5 10.05 -4.25 10.15 -4.0 10.3 -3.75 10.4 -3.5 10.5 -3.2 10.6 -2.95 10.7 -2.65 10.8 -2.35 10.85 -2.1 10.95 -1.8 11.0 -1.5 11.05 -1.2 11.1 -0.9 11.1 -0.9 11.1 -0.85 11.1 -0.8 11.15 -0.75 11.15 L0.85 11.15 Q2.15 10.95 2.15 10.9 2.55 10.8 2.95 10.7 3.35 10.55 3.75 10.4 4.1 10.25 4.5 10.05 4.85 9.85 5.15 9.65 5.5 9.45 5.85 9.2 6.15 8.95 6.45 8.65 6.75 8.4 7.05 8.1 7.3 7.8 7.6 7.45 7.9 7.1 8.15 6.75 8.4 6.4 8.6 6.0 8.8 5.65 9.0 5.25 9.2 4.9 9.35 4.5 9.5 4.1 9.65 3.7 9.75 3.3 9.85 2.85 9.95 2.45 10.0 2.0 10.1 1.6 10.15 1.15 10.15 1.1 10.15 1.05 10.15 1.05 10.15 0.95 L10.15 -0.9 Q10.05 -1.85 9.95 -2.3 L9.95 -2.3" fill="#000000" fill-rule="evenodd" stroke="none"/>
  </g>
</svg>
