<?xml version="1.0" encoding="UTF-8" standalone="no"?>
<svg xmlns:xlink="http://www.w3.org/1999/xlink" height="200.0px" width="200.0px" xmlns="http://www.w3.org/2000/svg">
  <g transform="matrix(1.0, 0.0, 0.0, 1.0, 100.0, 100.0)">
    <path d="M11.1 -0.75 Q11.1 -0.25 11.05 0.25 11.05 0.8 10.95 1.3 10.9 1.8 10.8 2.3 10.7 2.8 10.6 3.3 10.45 3.75 10.25 4.25 10.1 4.75 9.9 5.2 9.7 5.7 9.45 6.15 9.2 6.65 8.9 7.1 8.65 7.45 8.4 7.8 8.15 8.15 7.9 8.45 7.6 8.8 7.3 9.1 7.0 9.4 6.7 9.65 6.4 9.9 6.05 10.15 5.7 10.4 5.35 10.6 4.95 10.8 4.55 10.95 4.15 11.15 3.75 11.25 3.2 11.4 2.7 11.5 2.15 11.6 1.65 11.65 1.15 11.65 0.65 11.6 0.15 11.6 -0.3 11.5 -0.8 11.35 -1.25 11.2 -1.75 11.05 -2.2 10.8 -2.65 10.55 -3.1 10.3 -3.5 10.0 -3.95 9.65 -4.3 9.35 -4.65 9.0 -5.0 8.7 -5.3 8.3 -5.6 7.95 -5.9 7.6 -6.15 7.2 -6.4 6.8 -6.65 6.4 -6.85 6.0 -7.05 5.6 -7.2 5.15 -7.4 4.75 -7.55 4.25 -7.7 3.85 -7.8 3.35 -8.0 2.65 -8.1 1.95 -8.25 1.25 -8.3 0.6 -8.4 -0.1 -8.4 -0.8 -8.4 -1.45 -8.35 -2.15 -8.3 -2.8 -8.15 -3.5 -8.05 -4.15 -7.85 -4.8 -7.7 -5.5 -7.45 -6.15 -7.2 -6.8 -6.85 -7.45 -6.65 -7.85 -6.45 -8.2 -6.25 -8.55 -6.05 -8.9 -5.8 -9.25 -5.55 -9.55 -5.3 -9.9 -5.05 -10.2 -4.75 -10.5 -4.5 -10.8 -4.2 -11.05 -3.85 -11.3 -3.55 -11.55 -3.2 -11.8 -2.8 -12.0 -2.45 -12.2 -1.85 -12.5 -1.3 -12.7 -0.75 -12.95 -0.15 -13.05 0.4 -13.2 0.95 -13.2 1.5 -13.25 2.05 -13.2 2.6 -13.15 3.15 -13.0 3.7 -12.9 4.25 -12.65 4.75 -12.45 5.3 -12.15 5.8 -11.85 6.35 -11.45 6.75 -11.15 7.1 -10.85 7.4 -10.55 7.75 -10.2 8.05 -9.9 8.3 -9.55 8.6 -9.2 8.85 -8.8 9.1 -8.4 9.3 -8.0 9.5 -7.65 9.7 -7.2 9.9 -6.8 10.05 -6.35 10.25 -5.95 10.4 -5.5 10.5 -5.2 10.55 -4.95 10.65 -4.65 10.7 -4.35 10.75 -4.05 10.8 -3.8 10.9 -3.5 10.9 -3.2 10.95 -2.9 11.0 -2.6 11.05 -2.3 11.05 -2.0 11.1 -1.7 11.1 -1.4 11.1 -1.05 11.1 -0.75 L11.1 -0.75 M-7.15 -1.35 Q-7.15 -1.05 -7.15 -0.75 -7.15 -0.45 -7.1 -0.15 -7.1 0.1 -7.1 0.35 -7.05 0.6 -7.05 0.85 -7.0 1.1 -7.0 1.3 -6.95 1.55 -6.9 1.75 -6.85 2.0 -6.8 2.2 -6.8 2.4 -6.7 2.6 -6.6 3.05 -6.45 3.5 -6.3 4.0 -6.15 4.4 -6.0 4.85 -5.8 5.25 -5.6 5.7 -5.35 6.1 -5.15 6.5 -4.85 6.85 -4.6 7.25 -4.3 7.6 -4.0 7.95 -3.65 8.25 -3.35 8.6 -2.95 8.9 -2.5 9.25 -2.05 9.55 -1.6 9.8 -1.1 10.0 -0.6 10.2 -0.1 10.3 0.4 10.45 0.9 10.45 1.4 10.5 1.9 10.45 2.4 10.4 2.9 10.3 3.45 10.15 3.9 9.95 4.4 9.75 4.9 9.45 5.2 9.25 5.5 9.05 5.75 8.85 6.05 8.6 6.3 8.4 6.55 8.15 6.8 7.9 7.0 7.65 7.2 7.35 7.4 7.1 7.6 6.8 7.8 6.5 8.0 6.25 8.15 5.9 8.35 5.6 8.5 5.3 8.8 4.7 9.0 4.1 9.25 3.45 9.4 2.85 9.55 2.25 9.65 1.6 9.75 1.0 9.8 0.35 9.85 -0.25 9.85 -0.9 9.85 -1.5 9.8 -2.15 9.7 -2.8 9.6 -3.45 9.5 -4.05 9.3 -4.7 9.2 -5.1 9.05 -5.5 8.95 -5.9 8.75 -6.25 8.6 -6.65 8.45 -7.0 8.25 -7.4 8.05 -7.75 7.85 -8.1 7.6 -8.4 7.4 -8.75 7.1 -9.05 6.85 -9.35 6.55 -9.65 6.25 -9.95 5.95 -10.25 5.6 -10.55 5.3 -10.75 4.95 -11.0 4.6 -11.2 4.25 -11.4 3.9 -11.55 3.5 -11.7 3.15 -11.8 2.75 -11.9 2.35 -12.0 1.95 -12.05 1.55 -12.05 1.15 -12.05 0.75 -12.0 0.35 -11.95 -0.1 -11.85 -0.45 -11.8 -0.75 -11.65 -1.1 -11.55 -1.4 -11.45 -1.7 -11.3 -2.0 -11.15 -2.25 -11.0 -2.55 -10.8 -2.8 -10.6 -3.05 -10.4 -3.3 -10.2 -3.55 -9.95 -3.8 -9.75 -4.0 -9.5 -4.25 -9.25 -4.45 -8.95 -4.8 -8.5 -5.1 -8.05 -5.4 -7.6 -5.65 -7.1 -5.9 -6.65 -6.1 -6.15 -6.3 -5.65 -6.5 -5.2 -6.65 -4.7 -6.75 -4.2 -6.85 -3.75 -6.95 -3.25 -7.05 -2.75 -7.05 -2.3 -7.1 -1.85 -7.15 -1.35 L-7.15 -1.35" fill="#000000" fill-rule="evenodd" stroke="none"/>
    <path d="M-7.15 -1.35 Q-7.15 -1.8 -7.1 -2.3 -7.05 -2.75 -6.95 -3.25 -6.9 -3.75 -6.75 -4.2 -6.65 -4.7 -6.5 -5.2 -6.3 -5.7 -6.1 -6.15 -5.9 -6.65 -5.65 -7.1 -5.4 -7.6 -5.1 -8.05 -4.8 -8.55 -4.45 -8.95 -4.25 -9.25 -4.0 -9.5 -3.8 -9.75 -3.55 -9.95 -3.3 -10.2 -3.05 -10.4 -2.8 -10.6 -2.55 -10.8 -2.25 -11.0 -2.0 -11.15 -1.7 -11.3 -1.4 -11.45 -1.1 -11.6 -0.75 -11.7 -0.45 -11.8 -0.1 -11.85 0.35 -11.95 0.75 -12.0 1.15 -12.05 1.55 -12.05 1.95 -12.05 2.35 -11.95 2.75 -11.9 3.15 -11.8 3.5 -11.7 3.9 -11.55 4.25 -11.4 4.6 -11.2 4.95 -11.0 5.3 -10.75 5.6 -10.5 5.95 -10.25 6.25 -9.95 6.55 -9.65 6.85 -9.4 7.1 -9.05 7.4 -8.75 7.6 -8.4 7.85 -8.1 8.05 -7.75 8.25 -7.4 8.45 -7.0 8.6 -6.65 8.8 -6.3 8.95 -5.9 9.05 -5.5 9.2 -5.1 9.3 -4.7 9.5 -4.05 9.6 -3.4 9.7 -2.8 9.8 -2.15 9.85 -1.5 9.85 -0.9 9.85 -0.25 9.8 0.35 9.75 1.0 9.65 1.6 9.55 2.25 9.4 2.85 9.2 3.45 9.0 4.1 8.75 4.7 8.5 5.3 8.35 5.6 8.2 5.95 8.0 6.25 7.8 6.5 7.65 6.8 7.45 7.1 7.2 7.35 7.0 7.65 6.8 7.9 6.55 8.15 6.3 8.4 6.05 8.6 5.75 8.85 5.5 9.05 5.2 9.25 4.9 9.45 4.4 9.75 3.95 9.95 3.45 10.15 2.9 10.3 2.4 10.4 1.9 10.45 1.4 10.5 0.9 10.45 0.4 10.45 -0.1 10.3 -0.6 10.2 -1.1 10.0 -1.6 9.8 -2.05 9.55 -2.5 9.25 -2.95 8.9 -3.35 8.6 -3.65 8.25 -4.0 7.95 -4.3 7.6 -4.6 7.25 -4.85 6.85 -5.15 6.5 -5.35 6.1 -5.6 5.7 -5.8 5.25 -6.0 4.85 -6.15 4.4 -6.35 4.0 -6.45 3.55 -6.6 3.1 -6.7 2.6 -6.75 2.4 -6.8 2.2 -6.85 1.95 -6.9 1.75 -6.95 1.55 -6.95 1.3 -7.0 1.1 -7.05 0.85 -7.05 0.6 -7.05 0.35 -7.1 0.1 -7.1 -0.2 -7.1 -0.45 -7.1 -0.75 -7.15 -1.05 -7.15 -1.35 L-7.15 -1.35" fill="url(#gradient0)" fill-rule="evenodd" stroke="none"/>
  </g>
  <defs>
    <linearGradient gradientTransform="matrix(0.0, 0.0137, -0.0137, 0.0, 1.35, -0.75)" gradientUnits="userSpaceOnUse" id="gradient0" spreadMethod="pad" x1="-819.2" x2="819.2">
      <stop offset="0.0" stop-color="#020202"/>
      <stop offset="1.0" stop-color="#000000" stop-opacity="0.0"/>
    </linearGradient>
  </defs>
</svg>
