<?xml version="1.0" encoding="UTF-8" standalone="no"?>
<svg xmlns:xlink="http://www.w3.org/1999/xlink" height="18.6px" width="24.45px" xmlns="http://www.w3.org/2000/svg">
  <g transform="matrix(1.0, 0.0, 0.0, 1.0, -4.45, 4.95)">
    <path d="M17.15 -7.2 Q17.5 -7.25 17.85 -7.25 18.25 -7.25 18.65 -7.25 19.15 -7.3 19.65 -7.25 20.15 -7.2 20.7 -7.15 21.25 -7.1 21.85 -6.95 22.45 -6.85 23.05 -6.65 23.7 -6.5 24.3 -6.25 25.0 -6.0 25.6 -5.7 25.9 -5.55 26.2 -5.4 26.5 -5.2 26.75 -5.05 27.05 -4.9 27.3 -4.7 27.55 -4.55 27.8 -4.35 28.0 -4.2 28.25 -4.0 28.45 -3.85 28.65 -3.7 28.85 -3.5 29.05 -3.35 29.2 -3.2 29.35 -3.05 29.2 -0.6 28.85 2.75 28.55 5.35 28.2 7.05 28.05 7.7 27.9 8.3 27.75 8.9 27.6 9.45 27.45 10.0 27.25 10.45 27.1 10.95 26.9 11.35 26.7 11.75 26.5 12.1 26.25 12.4 26.05 12.7 25.8 12.95 25.55 13.15 25.3 13.35 25.05 13.5 24.95 13.55 24.8 13.55 24.7 13.6 24.55 13.6 24.45 13.65 24.3 13.65 24.2 13.7 24.05 13.7 23.95 13.75 23.8 13.75 23.65 13.8 23.55 13.8 23.4 13.85 23.3 13.85 23.15 13.85 23.0 13.9 22.6 13.95 22.15 14.0 21.75 14.05 21.35 14.1 20.95 14.15 20.55 14.15 20.2 14.2 19.8 14.2 19.4 14.25 19.05 14.25 18.7 14.25 18.3 14.25 17.95 14.25 17.6 14.25 17.25 14.2 16.95 14.2 16.6 14.2 16.2 14.15 15.75 14.15 15.3 14.1 14.75 14.0 14.2 13.95 13.6 13.8 13.0 13.7 12.35 13.5 11.7 13.3 11.0 13.1 10.3 12.8 9.55 12.5 8.85 12.15 8.1 11.75 7.35 11.3 6.6 10.85 5.9 10.3 5.25 9.8 4.65 9.25 4.1 8.7 3.6 8.15 3.1 7.65 2.7 7.1 2.3 6.65 1.95 6.1 1.65 5.65 1.35 5.2 1.1 4.8 0.9 4.4 0.7 4.1 0.55 3.75 0.6 3.4 0.7 3.1 0.8 2.65 0.95 2.25 1.1 1.8 1.25 1.35 1.45 0.85 1.7 0.35 1.95 -0.2 2.25 -0.7 2.6 -1.3 3.0 -1.8 3.4 -2.35 3.85 -2.85 4.35 -3.4 4.9 -3.9 5.2 -4.15 5.5 -4.4 5.8 -4.6 6.1 -4.8 6.4 -5.0 6.7 -5.15 6.95 -5.3 7.2 -5.45 7.45 -5.6 7.75 -5.75 7.95 -5.85 8.2 -5.95 8.4 -6.0 8.6 -6.1 8.75 -6.15 8.95 -6.25 9.6 -6.5 10.2 -6.7 10.85 -6.85 11.45 -7.0 12.05 -7.15 12.6 -7.2 13.15 -7.3 13.7 -7.3 14.25 -7.35 14.75 -7.35 15.2 -7.35 15.65 -7.35 16.05 -7.3 16.45 -7.3 16.8 -7.25 17.15 -7.2 L17.15 -7.2" fill="#eddd4c" fill-rule="evenodd" stroke="none"/>
  </g>
</svg>
