<?xml version="1.0" encoding="UTF-8" standalone="no"?>
<svg xmlns:xlink="http://www.w3.org/1999/xlink" height="6.9px" width="29.15px" xmlns="http://www.w3.org/2000/svg">
  <g transform="matrix(1.0, 0.0, 0.0, 1.0, 12.75, 4.6)">
    <path d="M-13.65 -3.85 Q-12.8 -4.1 -11.95 -4.35 -11.15 -4.6 -10.35 -4.8 -9.55 -5.0 -8.75 -5.25 -8.05 -5.4 -7.3 -5.6 -6.6 -5.8 -5.9 -5.95 -5.2 -6.1 -4.55 -6.25 -3.95 -6.4 -3.35 -6.55 -2.75 -6.7 -2.2 -6.8 -2.2 -6.8 -1.85 -6.85 -1.4 -6.95 -0.85 -7.05 -0.1 -7.2 0.7 -7.3 1.7 -7.45 2.75 -7.6 3.95 -7.75 5.2 -7.85 6.6 -8.0 7.95 -8.05 9.55 -8.15 11.05 -8.2 12.7 -8.2 14.3 -8.15 14.6 -8.15 14.8 -8.15 15.1 -8.1 15.4 -8.1 15.7 -8.05 16.05 -8.0 16.4 -7.95 16.75 -7.9 17.1 -7.8 17.45 -7.7 17.85 -7.6 18.25 -7.45 18.65 -7.25 19.0 -7.05 19.4 -6.85 19.8 -6.6 20.0 -6.5 20.15 -6.35 20.3 -6.2 20.45 -6.1 20.6 -5.95 20.75 -5.85 20.9 -5.7 21.0 -5.55 21.15 -5.45 21.25 -5.35 21.35 -5.2 21.45 -5.1 21.55 -5.0 21.65 -4.85 21.7 -4.75 21.8 -4.65 21.4 -4.7 20.95 -4.7 20.5 -4.7 20.0 -4.75 19.5 -4.75 19.0 -4.8 18.45 -4.8 17.9 -4.8 17.35 -4.8 16.75 -4.85 16.15 -4.85 15.55 -4.85 14.9 -4.85 14.25 -4.8 13.6 -4.8 12.9 -4.8 11.4 -4.75 10.65 -4.75 9.45 -4.7 8.55 -4.7 7.5 -4.65 6.6 -4.6 5.6 -4.55 4.75 -4.45 3.8 -4.35 2.95 -4.25 2.05 -4.15 1.15 -4.0 0.25 -3.85 -0.6 -3.65 -1.5 -3.45 -2.4 -3.2 -3.0 -3.05 -3.6 -2.85 -4.3 -2.6 -4.95 -2.4 -5.7 -2.1 -6.4 -1.8 -7.2 -1.5 -8.0 -1.1 -8.8 -0.75 -9.65 -0.3 -10.5 0.15 -11.35 0.7 -12.25 1.2 -13.15 1.8 -14.1 2.45 -15.0 3.15 -15.05 3.05 -15.1 2.9 -15.15 2.8 -15.2 2.6 -15.3 2.45 -15.35 2.25 -15.4 2.05 -15.45 1.8 -15.5 1.6 -15.55 1.35 -15.55 1.05 -15.6 0.8 -15.6 0.5 -15.6 0.2 -15.55 -0.1 -15.5 -0.4 -15.45 -0.75 -15.35 -1.1 -15.25 -1.4 -15.1 -1.7 -15.0 -2.0 -14.85 -2.25 -14.75 -2.5 -14.6 -2.7 -14.45 -2.9 -14.3 -3.1 -14.2 -3.25 -14.05 -3.4 -13.95 -3.55 -13.8 -3.65 -13.7 -3.75 -13.65 -3.85 L-13.65 -3.85" fill="#253fa0" fill-opacity="0.32941177" fill-rule="evenodd" stroke="none"/>
  </g>
</svg>
