<?xml version="1.0" encoding="UTF-8" standalone="no"?>
<svg xmlns:xlink="http://www.w3.org/1999/xlink" height="16.4px" width="18.1px" xmlns="http://www.w3.org/2000/svg">
  <g transform="matrix(1.0, 0.0, 0.0, 1.0, 9.05, 8.2)">
    <path d="M9.05 -1.3 Q9.1 -1.7 9.15 -2.15 9.15 -2.5 9.15 -2.85 9.1 -3.2 9.05 -3.55 9.05 -3.8 8.95 -4.1 8.9 -4.35 8.8 -4.6 8.75 -4.8 8.65 -5.0 8.6 -5.2 8.5 -5.35 8.45 -5.5 8.35 -5.65 7.95 -6.35 7.3 -6.9 6.65 -7.4 5.9 -7.8 5.1 -8.2 4.2 -8.45 3.35 -8.7 2.4 -8.75 1.45 -8.85 0.5 -8.75 -0.45 -8.65 -1.35 -8.4 -2.3 -8.15 -3.1 -7.75 -3.95 -7.35 -4.65 -6.8 -4.9 -6.6 -5.15 -6.35 -5.35 -6.15 -5.55 -5.9 -5.75 -5.65 -5.95 -5.45 -6.1 -5.2 -6.25 -5.0 -6.35 -4.75 -6.5 -4.55 -6.6 -4.35 -6.7 -4.1 -6.8 -3.95 -6.9 -3.7 -6.95 -3.6 -7.05 -3.35 -7.1 -3.25 -7.15 -3.05 -7.25 -2.8 -7.4 -2.5 -7.5 -2.05 -7.65 -1.6 -7.75 -1.1 -7.85 -0.55 -7.95 0.1 -8.0 0.7 -8.05 1.35 -8.05 2.05 -8.0 2.75 -7.9 3.4 -7.75 4.15 -7.5 4.85 -7.45 4.85 -7.4 4.8 -7.4 4.8 -7.35 4.8 -7.3 4.8 -7.25 4.8 -7.25 4.75 -7.2 4.75 -6.25 4.8 -6.15 4.8 -6.05 4.85 -5.95 4.9 -5.85 4.95 -5.75 5.0 -5.65 5.1 -5.55 5.15 -5.5 5.25 -5.4 5.35 -5.35 5.45 -5.3 5.55 -5.25 5.65 -5.25 5.75 -5.25 5.85 -5.25 6.0 -5.25 6.1 -5.25 6.2 -5.25 6.3 -5.3 6.35 -5.35 6.45 -5.35 6.5 -5.4 6.55 -5.45 6.65 -5.5 6.7 -5.55 6.75 -5.6 6.8 -5.65 6.85 -5.7 6.9 -5.75 6.95 -5.8 7.0 -5.9 7.05 -5.95 7.1 -6.0 7.15 -5.75 7.45 -5.45 7.7 -5.15 7.9 -4.85 8.1 -4.6 8.3 -4.3 8.5 -4.0 8.65 -3.75 8.8 -3.5 8.9 -3.2 9.0 -2.95 9.1 -2.75 9.2 -2.55 9.25 -2.3 9.3 -2.15 9.35 -2.0 9.4 -1.05 9.65 -0.05 9.75 0.85 9.8 1.75 9.7 2.6 9.6 3.45 9.35 4.2 9.15 4.95 8.85 5.65 8.6 6.3 8.25 6.8 7.95 7.35 7.65 7.7 7.4 8.1 7.1 8.3 6.95 8.5 6.8 8.55 6.65 8.6 6.5 8.65 6.3 8.65 6.15 8.7 6.0 8.75 5.8 8.8 5.65 8.8 5.45 8.85 5.3 8.9 5.1 8.9 4.95 8.95 4.75 8.95 4.55 9.0 4.35 9.05 4.2 9.05 4.0 9.1 3.6 9.15 3.25 9.15 2.85 9.2 2.5 9.2 2.15 9.2 1.8 9.2 1.45 9.2 1.1 9.2 0.8 9.2 0.45 9.2 0.15 9.15 -0.15 9.15 -0.45 9.1 -0.75 9.1 -1.05 9.05 -1.3 L9.05 -1.3" fill="#98a1ff" fill-rule="evenodd" stroke="none"/>
  </g>
</svg>
