<?xml version="1.0" encoding="UTF-8" standalone="no"?>
<svg xmlns:xlink="http://www.w3.org/1999/xlink" height="14.4px" width="21.6px" xmlns="http://www.w3.org/2000/svg">
  <g transform="matrix(1.0, 0.0, 0.0, 1.0, -0.05, 7.45)">
    <path d="M15.55 -7.45 Q16.15 -7.1 16.65 -6.65 17.2 -6.15 17.65 -5.6 18.1 -5.0 18.4 -4.35 18.75 -3.7 19.0 -3.0 19.25 -2.3 19.35 -1.55 19.45 -0.8 19.4 -0.05 19.35 0.75 19.1 1.5 18.9 2.25 18.5 3.0 18.15 3.65 17.65 4.25 17.2 4.8 16.65 5.25 16.1 5.7 15.45 6.05 14.8 6.4 14.15 6.6 13.45 6.85 12.8 6.95 12.1 7.05 11.4 7.05 10.7 7.05 10.0 6.9 9.35 6.75 8.7 6.5 8.15 6.3 7.65 5.95 7.2 5.7 6.8 5.3 6.45 5.0 6.1 4.6 5.8 4.3 5.55 3.9 5.3 3.55 5.1 3.2 4.95 2.9 4.8 2.6 4.7 2.4 4.6 2.15 4.55 2.0 4.5 1.9 4.3 1.35 4.2 0.75 4.1 0.15 4.1 -0.45 4.1 -1.05 4.2 -1.6 4.25 -2.2 4.4 -2.75 4.6 -3.3 4.8 -3.85 5.05 -4.4 5.35 -4.9 5.65 -5.35 6.05 -5.8 6.4 -6.25 6.85 -6.6 7.1 -6.85 7.4 -7.05 7.7 -7.25 8.0 -7.4 8.25 -7.55 8.55 -7.7 8.8 -7.8 9.1 -7.9 9.35 -8.0 9.6 -8.1 9.8 -8.15 10.05 -8.2 10.25 -8.25 10.45 -8.3 10.65 -8.35 10.8 -8.35 11.0 -8.35 11.2 -8.4 11.45 -8.4 11.7 -8.4 11.95 -8.4 12.25 -8.4 12.55 -8.4 12.85 -8.35 13.15 -8.3 13.5 -8.25 13.85 -8.15 14.15 -8.05 14.5 -7.95 14.85 -7.8 15.2 -7.65 15.55 -7.45 L15.55 -7.45" fill="#ff0171" fill-rule="evenodd" stroke="none"/>
  </g>
</svg>
