<?xml version="1.0" encoding="UTF-8" standalone="no"?>
<svg xmlns:xlink="http://www.w3.org/1999/xlink" height="350.0px" width="350.0px" xmlns="http://www.w3.org/2000/svg">
  <g transform="matrix(1.0, 0.0, 0.0, 1.0, 150.0, 150.0)">
    <path d="M-11.7 191.1 Q-11.6 191.0 -11.55 190.9 -11.45 190.8 -11.4 190.7 -11.35 190.6 -11.25 190.5 -11.2 190.4 -11.15 190.35 -11.1 190.25 -11.0 190.15 -10.95 190.05 -10.9 189.95 -10.85 189.9 -10.8 189.8 -10.75 189.7 -10.7 189.6 -10.65 189.55 -10.65 189.45 -10.6 189.4 -10.6 189.35 -10.55 189.3 -10.55 189.2 -10.5 189.15 -10.5 189.1 -10.5 189.0 -10.45 188.95 -10.45 188.85 -10.45 188.8 -10.45 188.75 -10.45 188.65 -10.45 188.6 -10.45 188.5 -10.45 188.4 -10.5 188.3 -10.5 188.15 -10.55 188.1 -10.55 188.0 -10.65 187.95 -10.7 187.85 -10.75 187.8 -10.8 187.75 -10.9 187.75 -11.0 187.7 -11.1 187.7 -11.2 187.7 -11.3 187.7 -11.4 187.7 -11.5 187.75 -11.55 187.75 -11.6 187.8 -11.65 187.8 -11.7 187.8 -11.75 187.8 -11.8 187.85 -11.85 187.85 -11.9 187.9 -11.95 187.9 -12.0 187.95 -12.05 187.95 -12.1 188.0 -12.15 188.0 -12.2 188.05 -12.25 188.05 -12.3 188.1 -12.45 188.15 -12.6 188.25 -12.75 188.3 -12.85 188.35 -13.0 188.4 -13.15 188.4 -13.3 188.45 -13.45 188.5 -13.6 188.5 -13.75 188.55 -13.9 188.55 -14.05 188.55 -14.2 188.55 -14.35 188.55 -14.55 188.55 -14.7 188.55 -14.85 188.55 -15.0 188.5 -15.1 188.45 -15.25 188.45 -15.4 188.4 -15.5 188.35 -15.65 188.3 -15.8 188.25 -15.9 188.2 -16.05 188.15 -16.15 188.1 -16.3 188.0 -16.4 187.95 -16.55 187.9 -16.65 187.8 -16.75 187.7 -16.8 187.7 -16.8 187.65 -16.85 187.65 -16.9 187.6 -16.9 187.6 -16.95 187.6 -16.95 187.55 -17.0 187.55 -17.0 187.5 -17.05 187.5 -17.05 187.45 -17.1 187.45 -17.1 187.4 -17.1 187.4 -17.1 187.35 -17.15 187.35 -17.15 187.25 -17.05 187.2 -17.1 187.25 -16.95 187.15 -16.8 187.05 -16.6 186.95 -16.45 186.85 -16.3 186.7 -16.15 186.6 -16.05 186.45 -15.9 186.3 -15.8 186.15 -15.65 186.05 -15.55 185.9 -15.45 185.75 -15.35 185.55 -15.25 185.4 -15.15 185.25 -15.05 185.05 -15.0 184.9 -14.9 184.7 -14.85 184.5 -14.75 184.3 -14.7 184.1 -14.6 183.9 -14.55 183.7 -14.45 183.5 -14.4 183.3 -14.35 183.1 -14.3 182.9 -14.25 182.7 -14.2 182.5 -14.15 182.3 -14.1 182.1 -14.05 181.9 -14.05 181.7 -13.2 177.65 -13.1 177.2 -13.0 176.9 -12.9 176.6 -12.8 176.3 -12.7 176.0 -12.6 175.7 -12.5 175.45 -12.4 175.15 -12.25 174.85 -12.15 174.55 -12.0 174.3 -11.85 174.0 -11.7 173.75 -11.55 173.5 -11.35 173.2 -11.2 172.95 -11.0 172.7 -10.95 172.6 -10.85 172.55 -10.8 172.45 -10.75 172.4 -10.7 172.3 -10.6 172.2 -10.55 172.15 -10.5 172.05 -10.4 172.0 -10.35 171.9 -10.25 171.8 -10.2 171.75 -10.15 171.65 -10.05 171.6 -10.0 171.5 -9.9 171.45 -9.75 171.3 -9.65 171.2 -9.55 171.05 -9.5 170.95 -9.45 170.8 -9.4 170.7 -9.35 170.6 -9.35 170.5 -9.35 170.4 -9.35 170.3 -9.4 170.15 -9.45 170.05 -9.5 169.9 -9.6 169.75 -9.7 169.65 -9.8 169.45 -11.1 167.65 -11.65 167.0 -11.8 166.85 -11.95 166.65 -12.05 166.45 -12.15 166.3 -12.25 166.1 -12.35 165.9 -12.45 165.7 -12.5 165.5 -12.6 165.3 -12.65 165.1 -12.65 164.85 -12.7 164.65 -12.75 164.45 -12.75 164.2 -12.75 164.0 -12.75 163.75 -12.75 163.55 -12.75 163.35 -12.7 163.15 -12.7 162.95 -12.65 162.8 -12.65 162.6 -12.6 162.4 -12.55 162.2 -12.5 162.0 -12.45 161.85 -12.4 161.65 -12.35 161.45 -12.25 161.3 -12.2 161.1 -12.1 160.9 -12.0 160.75 -11.95 160.6 -11.9 160.5 -11.85 160.35 -11.8 160.25 -11.8 160.1 -11.75 160.0 -11.75 159.9 -11.75 159.75 -11.8 159.65 -11.8 159.5 -11.85 159.4 -11.9 159.3 -11.95 159.15 -12.0 159.05 -12.05 158.95 -12.15 158.8 -12.2 158.7 -12.3 158.55 -12.35 158.45 -12.45 158.35 -12.5 158.25 -12.55 158.1 -12.65 158.0 -12.7 157.9 -12.8 157.75 -12.85 157.65 -12.9 157.55 -13.0 157.4 -13.05 157.3 -13.15 157.15 -13.2 157.05 -13.25 156.95 -13.35 156.75 -13.45 156.55 -13.55 156.35 -13.65 156.15 -13.7 155.95 -13.8 155.8 -13.85 155.55 -13.9 155.35 -13.95 155.15 -14.0 154.95 -14.05 154.75 -14.1 154.55 -14.15 154.35 -14.15 154.1 -14.15 153.9 -14.15 153.7 -14.15 153.45 -14.15 153.25 -14.15 153.0 -14.1 152.8 -14.1 152.55 -14.05 152.35 -14.0 152.15 -13.95 151.9 -13.9 151.7 -13.8 151.5 -13.75 151.3 -13.65 151.05 -13.6 150.85 -13.5 150.65 -13.4 150.45 -13.3 150.25 -13.15 150.05 -13.25 150.2 -13.25 150.15 -13.2 150.15 -13.2 150.1 -13.2 150.1 -13.15 150.05 -13.15 150.0 -13.15 150.0 -13.15 149.95 -13.1 149.95 -13.1 149.9 -13.1 149.85 -13.1 149.85 -13.1 149.8 -13.05 149.75 -13.05 149.7 -13.05 149.65 -13.05 149.6 -13.05 149.55 -13.05 149.5 -13.1 149.45 -13.1 149.4 -13.1 149.35 -13.1 149.35 -13.15 149.3 -13.15 149.25 -13.15 149.2 -13.2 149.15 -13.2 149.1 -13.25 149.05 -13.25 149.0 -13.6 148.5 -14.1 147.65 -14.2 147.5 -14.25 147.35 -14.35 147.2 -14.45 147.0 -14.5 146.85 -14.6 146.7 -14.65 146.55 -14.75 146.35 -14.8 146.2 -14.85 146.05 -14.95 145.85 -15.0 145.7 -15.05 145.55 -15.1 145.35 -15.15 145.2 -15.2 145.0 -15.3 144.75 -15.35 144.45 -15.4 144.2 -15.45 143.9 -15.5 143.65 -15.5 143.35 -15.55 143.1 -15.55 142.8 -15.55 142.55 -15.55 142.25 -15.5 142.0 -15.5 141.7 -15.45 141.45 -15.4 141.15 -15.35 140.9 -15.3 140.6 -15.25 140.45 -15.25 140.35 -15.25 140.25 -15.2 140.1 -15.15 140.0 -15.15 139.85 -15.1 139.75 -15.1 139.65 -15.05 139.5 -15.0 139.4 -15.0 139.25 -14.95 139.15 -14.9 139.05 -14.85 138.9 -14.85 138.8 -14.8 138.7 -14.75 138.6 -14.7 138.45 -14.7 138.35 -14.7 138.25 -14.65 138.15 -14.7 138.05 -14.7 137.95 -14.7 137.85 -14.75 137.8 -14.8 137.7 -14.8 137.6 -14.9 137.5 -14.95 137.45 -15.0 137.35 -15.1 137.3 -15.2 137.2 -15.5 136.95 -16.45 136.15 -16.55 136.05 -16.65 136.0 -16.75 135.9 -16.8 135.8 -16.9 135.75 -17.0 135.65 -17.1 135.55 -17.15 135.5 -17.25 135.4 -17.35 135.3 -17.4 135.2 -17.5 135.1 -17.55 135.05 -17.65 134.95 -17.75 134.85 -17.8 134.75 -18.0 134.55 -18.15 134.3 -18.3 134.1 -18.45 133.85 -18.55 133.6 -18.7 133.35 -18.8 133.1 -18.9 132.85 -19.05 132.65 -19.1 132.35 -19.2 132.1 -19.3 131.85 -19.35 131.6 -19.4 131.3 -19.45 131.05 -19.5 130.75 -19.55 130.55 -19.55 130.3 -19.6 130.1 -19.6 129.9 -19.6 129.7 -19.6 129.45 -19.6 129.25 -19.6 129.05 -19.6 128.85 -19.55 128.6 -19.55 128.4 -19.55 128.2 -19.5 127.95 -19.5 127.75 -19.45 127.55 -19.45 127.3 -19.4 127.1 -19.35 126.75 -19.25 126.35 -19.25 126.2 -19.25 126.1 -19.2 126.0 -19.2 125.9 -19.15 125.85 -19.15 125.75 -19.1 125.65 -19.05 125.55 -19.05 125.45 -19.0 125.4 -18.95 125.3 -18.9 125.2 -18.9 125.1 -18.85 125.05 -18.8 124.95 -18.75 124.85 -18.7 124.8 -18.65 124.65 -18.55 124.5 -18.5 124.4 -18.5 124.35 -18.45 124.25 -18.45 124.2 -18.4 124.1 -18.4 124.05 -18.4 124.0 -18.45 123.9 -18.45 123.85 -18.45 123.75 -18.5 123.7 -18.5 123.65 -18.55 123.55 -18.6 123.5 -18.65 123.45 -18.7 123.4 -19.0 123.1 -19.55 122.6 -19.75 122.45 -19.9 122.25 -20.1 122.1 -20.3 121.9 -20.45 121.75 -20.65 121.55 -20.8 121.35 -21.0 121.2 -21.15 121.0 -21.3 120.8 -21.5 120.6 -21.65 120.4 -21.8 120.2 -21.95 120.0 -22.1 119.8 -22.25 119.6 -22.5 119.25 -22.75 118.85 -23.0 118.45 -23.2 118.05 -23.45 117.65 -23.65 117.25 -23.85 116.85 -24.0 116.45 -24.2 116.05 -24.35 115.6 -24.5 115.2 -24.6 114.75 -24.75 114.3 -24.85 113.85 -25.0 113.45 -25.05 113.0 -25.1 112.75 -25.15 112.5 -25.15 112.3 -25.2 112.05 -25.2 111.8 -25.2 111.55 -25.2 111.35 -25.15 111.1 -25.15 110.85 -25.1 110.65 -25.1 110.4 -25.05 110.15 -25.0 109.95 -24.9 109.7 -24.85 109.45 -24.75 109.25 -24.75 109.2 -24.7 109.15 -24.7 109.1 -24.7 109.05 -24.7 109.0 -24.65 108.95 -24.65 108.9 -24.65 108.85 -24.6 108.8 -24.6 108.75 -24.6 108.75 -24.55 108.7 -24.55 108.65 -24.5 108.6 -24.5 108.55 -24.5 108.5 -24.45 108.4 -24.4 108.3 -24.4 108.2 -24.35 108.1 -24.35 108.0 -24.35 107.9 -24.4 107.8 -24.4 107.7 -24.45 107.65 -24.5 107.55 -24.55 107.5 -24.6 107.4 -24.65 107.35 -24.75 107.25 -24.8 107.2 -24.9 107.15 -25.85 106.45 -27.95 104.7 -28.2 104.45 -28.5 104.2 -28.75 104.0 -28.95 103.7 -29.2 103.45 -29.4 103.2 -29.6 102.9 -29.8 102.65 -30.0 102.35 -30.2 102.05 -30.35 101.75 -30.5 101.45 -30.7 101.15 -30.8 100.85 -30.95 100.5 -31.1 100.2 -31.25 99.8 -31.4 99.4 -31.5 99.0 -31.65 98.6 -31.75 98.2 -31.85 97.8 -31.95 97.35 -32.0 96.95 -32.1 96.55 -32.15 96.15 -32.2 95.7 -32.2 95.3 -32.25 94.9 -32.25 94.45 -32.25 94.05 -32.25 93.6 -32.25 93.45 -32.25 93.25 -32.25 93.1 -32.2 92.9 -32.2 92.75 -32.2 92.6 -32.15 92.4 -32.15 92.25 -32.15 92.1 -32.1 91.9 -32.1 91.75 -32.05 91.6 -32.05 91.4 -32.0 91.25 -31.95 91.1 -31.95 90.9 -31.95 90.85 -31.95 90.8 -31.9 90.7 -31.9 90.65 -31.9 90.6 -31.9 90.55 -31.9 90.45 -31.9 90.4 -31.9 90.35 -31.9 90.3 -31.9 90.2 -31.9 90.15 -31.9 90.1 -31.9 90.05 -31.9 89.95 -31.95 89.9 -31.95 89.8 -32.0 89.7 -32.05 89.65 -32.05 89.55 -32.1 89.45 -32.15 89.4 -32.2 89.3 -32.25 89.25 -32.3 89.15 -32.4 89.1 -32.45 89.0 -32.5 88.95 -32.6 88.9 -32.65 88.85 -32.75 88.75 -32.85 88.7 -33.75 88.1 -35.15 86.9 -35.45 86.65 -35.7 86.4 -35.95 86.15 -36.25 85.9 -36.5 85.6 -36.75 85.35 -37.0 85.05 -37.25 84.8 -37.5 84.5 -37.75 84.2 -37.95 83.9 -38.2 83.65 -38.4 83.35 -38.65 83.0 -38.85 82.7 -39.05 82.4 -39.3 82.0 -39.6 81.6 -39.85 81.15 -40.1 80.75 -40.3 80.3 -40.55 79.9 -40.8 79.45 -41.0 79.05 -41.2 78.6 -41.4 78.15 -41.6 77.7 -41.8 77.25 -41.95 76.8 -42.15 76.35 -42.3 75.9 -42.45 75.4 -42.5 75.2 -42.6 74.95 -42.65 74.75 -42.7 74.55 -42.75 74.3 -42.8 74.1 -42.85 73.85 -42.9 73.65 -42.95 73.4 -43.0 73.2 -43.0 73.0 -43.05 72.75 -43.1 72.55 -43.15 72.3 -43.15 72.05 -43.2 71.85 -43.35 70.7 -43.4 69.9 -43.4 69.75 -43.45 69.65 -43.45 69.5 -43.45 69.35 -43.45 69.2 -43.45 69.05 -43.45 68.95 -43.45 68.8 -43.45 68.65 -43.45 68.5 -43.45 68.35 -43.45 68.25 -43.45 68.1 -43.4 67.95 -43.4 67.8 -43.4 67.65 -43.35 67.5 -43.35 67.35 -43.35 67.2 -43.35 67.05 -43.35 66.95 -43.4 66.8 -43.4 66.7 -43.45 66.6 -43.5 66.5 -43.6 66.4 -43.65 66.3 -43.75 66.2 -43.85 66.1 -44.0 66.05 -44.1 65.95 -44.25 65.85 -45.55 65.1 -47.2 63.9 -47.65 63.6 -48.05 63.3 -48.45 62.95 -48.8 62.65 -49.2 62.3 -49.55 61.95 -49.9 61.55 -50.25 61.2 -50.6 60.8 -50.9 60.4 -51.2 60.0 -51.5 59.6 -51.8 59.2 -52.1 58.75 -52.35 58.3 -52.6 57.85 -52.7 57.65 -52.8 57.45 -52.9 57.25 -53.0 57.05 -53.1 56.85 -53.15 56.65 -53.25 56.45 -53.35 56.25 -53.4 56.05 -53.45 55.85 -53.55 55.6 -53.6 55.4 -53.65 55.2 -53.7 55.0 -53.75 54.8 -53.8 54.55 -53.9 54.2 -53.95 53.8 -54.05 53.4 -54.1 53.05 -54.15 52.65 -54.2 52.3 -54.25 51.9 -54.25 51.55 -54.3 51.15 -54.3 50.75 -54.3 50.4 -54.3 50.0 -54.25 49.6 -54.25 49.25 -54.2 48.85 -54.15 48.45 -54.1 48.15 -54.05 47.8 -54.05 47.5 -54.0 47.2 -53.95 46.9 -53.9 46.55 -53.85 46.25 -53.8 45.95 -53.7 45.65 -53.65 45.3 -53.6 45.0 -53.55 44.7 -53.5 44.35 -53.4 44.05 -53.35 43.75 -53.3 43.4 -53.25 43.2 -53.2 43.05 -53.15 42.85 -53.1 42.7 -53.05 42.5 -53.0 42.35 -52.95 42.15 -52.9 42.0 -52.8 41.8 -52.75 41.65 -52.7 41.45 -52.6 41.3 -52.55 41.1 -52.5 40.95 -52.4 40.75 -52.35 40.6 -52.2 40.3 -51.95 39.75 -51.9 39.65 -51.9 39.55 -51.85 39.45 -51.85 39.35 -51.85 39.25 -51.85 39.15 -51.85 39.1 -51.85 39.0 -51.9 38.9 -51.9 38.8 -51.95 38.7 -52.0 38.65 -52.05 38.55 -52.1 38.45 -52.15 38.4 -52.2 38.3 -52.5 38.05 -52.55 37.95 -54.15 36.15 -54.15 36.15 -54.45 35.75 -54.75 35.4 -55.0 35.0 -55.25 34.6 -55.5 34.2 -55.75 33.75 -55.95 33.35 -56.15 32.9 -56.35 32.5 -56.5 32.05 -56.65 31.6 -56.8 31.15 -56.95 30.7 -57.05 30.25 -57.15 29.75 -57.25 29.3 -57.25 29.25 -57.25 29.15 -57.3 29.1 -57.3 29.0 -57.3 28.95 -57.3 28.85 -57.3 28.8 -57.3 28.75 -57.3 28.65 -57.35 28.6 -57.35 28.5 -57.35 28.45 -57.35 28.35 -57.35 28.3 -57.35 28.25 -57.35 28.15 -57.35 27.95 -57.35 27.75 -57.35 27.55 -57.35 27.3 -57.4 27.1 -57.4 26.9 -57.45 26.7 -57.45 26.5 -57.5 26.3 -57.5 26.1 -57.55 25.9 -57.6 25.7 -57.65 25.5 -57.7 25.3 -57.75 25.1 -57.8 24.85 -57.9 24.45 -58.0 24.05 -58.1 23.6 -58.15 23.2 -58.25 22.8 -58.3 22.4 -58.4 21.95 -58.45 21.55 -58.55 21.15 -58.6 20.7 -58.7 20.3 -58.75 19.85 -58.8 19.45 -58.85 19.05 -58.9 18.6 -58.95 18.2 -59.0 17.85 -59.0 17.5 -59.05 17.15 -59.1 16.85 -59.1 16.5 -59.15 16.15 -59.15 15.8 -59.2 15.45 -59.2 15.15 -59.25 14.8 -59.25 14.45 -59.25 14.1 -59.3 13.75 -59.3 13.4 -59.3 13.1 -59.3 12.75 -59.3 12.7 -59.3 12.65 -59.3 12.6 -59.3 12.55 -59.3 12.5 -59.3 12.45 -59.35 12.4 -59.35 12.35 -59.35 12.3 -59.35 12.25 -59.35 12.2 -59.4 12.15 -59.4 12.1 -59.45 12.05 -59.45 12.0 -59.5 12.0 -59.5 11.95 -59.55 11.9 -59.55 11.85 -59.55 11.85 -59.55 11.8 -59.55 11.75 -59.55 11.7 -59.55 11.65 -59.55 11.55 -59.55 11.5 -59.55 11.4 -59.55 11.35 -59.55 11.25 -59.55 11.2 -59.55 11.1 -59.55 11.05 -59.55 10.95 -59.55 10.85 -59.55 10.8 -59.55 10.7 -59.55 10.65 -59.55 10.55 -59.55 10.5 -59.55 10.4 -59.55 10.35 -59.55 10.3 -59.55 10.25 -59.55 10.25 -59.55 10.2 -59.55 10.15 -59.5 10.1 -59.5 10.1 -59.45 10.05 -59.45 10.0 -59.4 9.95 -59.4 9.9 -59.4 9.85 -59.35 9.8 -59.35 9.75 -59.35 9.7 -59.35 9.65 -59.35 9.6 -59.3 9.55 -59.3 9.5 -59.3 9.5 -59.3 9.4 -59.3 9.4 -59.3 9.3 -59.3 8.85 -59.3 8.45 -59.25 8.0 -59.25 7.55 -59.2 7.15 -59.2 6.7 -59.15 6.25 -59.15 5.85 -59.1 5.4 -59.05 4.95 -59.05 4.5 -59.0 4.1 -58.95 3.65 -58.9 3.2 -58.85 2.8 -58.8 2.35 -58.7 1.55 -58.6 0.75 -58.5 -0.05 -58.4 -0.85 -58.25 -1.65 -58.1 -2.4 -58.0 -3.2 -57.85 -4.0 -57.7 -4.8 -57.5 -5.55 -57.35 -6.35 -57.15 -7.15 -57.0 -7.9 -56.8 -8.7 -56.6 -9.5 -56.4 -10.25 -55.95 -11.85 -55.4 -13.4 -54.9 -14.95 -54.3 -16.4 -53.65 -17.9 -52.95 -19.35 -52.25 -20.8 -51.5 -22.2 -50.7 -23.6 -49.8 -24.95 -48.95 -26.3 -48.0 -27.6 -47.0 -28.9 -45.95 -30.1 -44.9 -31.35 -43.75 -32.55 -43.15 -33.2 -42.5 -33.85 -41.85 -34.45 -41.15 -35.1 -40.5 -35.7 -39.8 -36.3 -39.15 -36.85 -38.45 -37.45 -37.75 -38.0 -37.0 -38.55 -36.3 -39.1 -35.55 -39.6 -34.85 -40.15 -34.1 -40.65 -33.35 -41.15 -32.55 -41.65 -31.3 -42.45 -30.05 -43.15 -28.8 -43.9 -27.5 -44.55 -26.25 -45.2 -24.95 -45.85 -23.65 -46.45 -22.3 -47.05 -21.0 -47.6 -19.65 -48.1 -18.3 -48.6 -16.9 -49.1 -15.55 -49.55 -14.15 -49.95 -12.75 -50.35 -11.35 -50.7 -6.65 -51.85 -5.7 -52.05 -4.25 -52.4 -1.85 -52.8 -1.05 -52.95 2.1 -53.4 2.4 -53.45 2.7 -53.5 3.05 -53.5 3.35 -53.55 3.65 -53.6 3.95 -53.6 4.25 -53.65 4.6 -53.65 4.9 -53.7 5.2 -53.7 5.5 -53.7 5.8 -53.75 6.15 -53.75 6.45 -53.75 6.75 -53.75 7.05 -53.75 8.15 -53.8 8.3 -53.9 8.35 -53.9 8.35 -53.9 8.4 -53.9 8.45 -53.9 8.45 -53.9 8.5 -53.9 8.55 -53.9 8.6 -53.9 8.6 -53.9 8.65 -53.9 8.7 -53.9 8.7 -53.9 8.75 -53.9 8.8 -53.9 8.8 -53.9 8.85 -53.9 9.05 -53.9 10.7 -53.9 11.8 -53.9 12.5 -53.9 13.65 -53.9 13.9 -53.8 13.95 -53.75 14.25 -53.8 16.15 -53.8 18.95 -53.55 19.3 -53.5 20.8 -53.35 21.1 -53.35 21.4 -53.3 21.7 -53.3 22.05 -53.25 22.35 -53.25 22.65 -53.2 22.95 -53.2 23.25 -53.15 23.55 -53.15 23.85 -53.1 24.2 -53.1 24.5 -53.05 24.8 -53.05 25.1 -53.0 25.4 -52.95 25.7 -52.95 26.7 -52.85 28.6 -52.4 29.75 -52.1 30.85 -51.8 32.0 -51.5 33.1 -51.15 34.25 -50.8 35.35 -50.4 36.45 -50.05 37.55 -49.6 38.65 -49.2 39.7 -48.75 40.8 -48.3 41.85 -47.85 42.9 -47.35 43.95 -46.85 45.0 -46.3 46.05 -45.75 47.3 -45.1 48.5 -44.4 49.75 -43.65 50.9 -42.95 52.1 -42.2 53.25 -41.4 54.4 -40.6 55.5 -39.75 56.65 -38.9 57.75 -38.05 58.8 -37.15 59.85 -36.25 60.95 -35.35 61.95 -34.35 63.0 -33.4 63.95 -32.4 64.6 -31.75 65.2 -31.05 65.85 -30.4 66.45 -29.7 67.0 -29.0 67.6 -28.3 68.15 -27.6 68.7 -26.85 69.2 -26.1 69.7 -25.35 70.25 -24.6 70.7 -23.8 71.2 -23.05 71.65 -22.25 72.1 -21.45 72.5 -20.65 72.85 -19.95 73.2 -19.25 73.5 -18.5 73.8 -17.8 74.1 -17.05 74.4 -16.35 74.65 -15.6 74.9 -14.85 75.15 -14.15 75.4 -13.4 75.6 -12.65 75.8 -11.9 76.0 -11.1 76.15 -10.35 76.3 -9.6 76.45 -8.8 76.55 -8.25 76.65 -7.75 76.7 -7.2 76.8 -6.65 76.85 -6.15 76.9 -5.6 76.95 -5.05 77.0 -4.5 77.05 -4.0 77.05 -3.45 77.1 -2.9 77.1 -2.35 77.15 -1.8 77.15 -1.3 77.15 -0.75 77.15 -0.2 77.15 -0.2 77.1 2.25 77.0 4.4 77.3 8.4 77.3 8.55 77.3 8.7 77.35 8.9 77.35 9.05 77.35 9.2 77.35 9.35 77.4 9.5 77.4 9.7 77.4 9.85 77.4 10.0 77.4 10.15 77.4 10.35 77.45 10.5 77.45 10.65 77.45 10.8 77.45 11.0 77.5 12.25 77.6 14.3 77.75 16.95 77.8 17.65 78.0 22.35 78.1 29.9 78.1 35.1 78.0 37.55 78.0 37.75 78.0 37.95 78.0 38.2 78.0 38.4 78.0 38.6 78.05 38.8 78.05 39.0 78.1 39.2 78.1 39.4 78.15 39.6 78.2 39.8 78.25 40.0 78.3 40.2 78.4 40.4 78.45 40.6 78.5 40.8 78.55 40.85 79.0 42.25 79.1 42.5 79.15 42.7 79.2 42.9 79.25 43.15 79.3 43.35 79.3 43.6 79.3 43.8 79.3 44.0 79.3 44.25 79.25 44.45 79.25 44.65 79.15 44.9 79.1 45.1 79.0 45.3 78.95 45.55 78.85 45.75 78.8 45.85 78.75 45.95 78.7 46.05 78.7 46.15 78.65 46.25 78.65 46.35 78.65 46.45 78.65 46.55 78.65 46.65 78.65 46.75 78.65 46.85 78.7 47.0 78.75 47.1 78.8 47.2 78.85 47.3 78.9 47.4 79.25 47.9 79.55 48.45 79.85 49.0 80.1 49.55 80.4 50.1 80.65 50.7 80.9 51.25 81.1 51.8 81.3 52.4 81.5 53.0 81.7 53.55 81.9 54.15 82.05 54.75 82.2 55.35 82.35 55.95 82.5 56.55 82.7 57.6 82.7 58.15 82.7 58.25 82.8 59.45 82.9 60.2 82.85 60.75 82.85 61.2 82.8 61.5 82.8 61.9 82.75 62.2 82.75 62.6 82.7 62.95 82.7 63.35 82.65 63.7 82.6 64.05 82.55 64.4 82.5 64.8 82.4 65.15 82.35 65.5 82.25 65.85 82.15 66.25 82.05 66.6 81.9 66.95 81.65 67.7 81.6 67.8 81.6 67.9 81.55 67.95 81.55 68.05 81.5 68.15 81.5 68.25 81.45 68.35 81.45 68.4 81.45 68.5 81.45 68.6 81.45 68.7 81.45 68.8 81.45 68.85 81.45 68.95 81.45 69.05 81.45 69.15 81.5 69.4 81.5 69.65 81.5 69.9 81.55 70.15 81.55 70.35 81.55 70.6 81.55 70.85 81.55 71.1 81.55 71.35 81.55 71.6 81.55 71.85 81.5 72.1 81.5 72.35 81.45 72.6 81.45 72.8 81.45 73.05 81.35 74.15 81.15 75.25 80.95 76.3 80.7 77.35 80.45 78.4 80.1 79.45 79.75 80.45 79.35 81.45 78.95 82.45 78.5 83.4 78.05 84.35 77.55 85.35 77.0 86.25 76.45 87.2 75.85 88.1 75.25 89.05 75.15 89.2 75.05 89.35 74.95 89.45 74.85 89.6 74.7 89.75 74.6 89.9 74.5 90.0 74.4 90.15 74.3 90.3 74.15 90.4 74.05 90.55 73.95 90.7 73.85 90.8 73.7 90.95 73.6 91.05 73.45 91.2 73.35 91.3 73.3 91.4 73.2 91.5 73.15 91.6 73.1 91.7 73.05 91.8 73.0 91.9 72.95 92.0 72.95 92.1 72.9 92.25 72.9 92.35 72.9 92.45 72.9 92.6 72.9 92.7 72.9 92.8 72.95 92.95 72.95 93.05 73.05 93.4 73.1 93.7 73.1 93.85 73.25 94.45 73.3 95.05 73.4 95.65 73.45 96.25 73.5 96.85 73.5 97.45 73.45 98.05 73.45 98.65 73.4 99.2 73.3 99.8 73.25 100.4 73.1 101.0 73.0 101.55 72.85 102.15 72.7 102.75 72.5 103.3 72.4 103.6 72.3 103.9 72.15 104.2 72.05 104.5 71.9 104.75 71.75 105.05 71.6 105.3 71.45 105.6 71.3 105.85 71.1 106.1 70.95 106.35 70.75 106.6 70.55 106.85 70.35 107.05 70.1 107.3 69.9 107.5 69.75 107.65 69.55 107.85 69.4 108.0 69.2 108.15 69.05 108.3 68.85 108.45 68.7 108.6 68.5 108.75 68.35 108.95 68.15 109.1 68.0 109.25 67.8 109.4 67.6 109.5 67.45 109.65 67.25 109.8 67.05 109.95 67.0 110.0 66.85 110.15 66.65 110.25 66.6 110.35 66.55 110.4 66.5 110.45 66.45 110.5 66.4 110.55 66.35 110.65 66.35 110.7 66.3 110.75 66.3 110.85 66.25 110.9 66.25 110.95 66.25 111.05 66.25 111.1 66.3 111.2 66.3 111.25 66.3 111.35 66.35 111.4 66.35 111.5 66.55 111.85 66.65 112.1 66.75 112.35 66.85 112.65 66.95 112.9 67.0 113.15 67.05 113.45 67.1 113.7 67.15 113.95 67.2 114.25 67.2 114.5 67.2 114.8 67.2 115.05 67.15 115.35 67.15 115.6 67.1 115.9 67.05 116.2 66.9 116.85 66.75 117.5 66.55 118.15 66.3 118.75 66.1 119.35 65.8 119.9 65.55 120.5 65.2 121.05 64.9 121.6 64.55 122.15 64.15 122.65 63.75 123.2 63.35 123.7 62.9 124.15 62.45 124.65 61.95 125.1 60.9 126.0 60.65 126.25 60.5 126.35 60.45 126.45 60.35 126.55 60.3 126.6 60.2 126.7 60.2 126.75 60.15 126.85 60.15 126.95 60.15 127.0 60.15 127.1 60.15 127.15 60.2 127.25 60.25 127.35 60.3 127.5 60.35 127.6 60.45 127.75 60.5 127.85 60.55 127.95 60.6 128.0 60.65 128.1 60.7 128.2 60.75 128.3 60.8 128.4 60.85 128.5 60.85 128.6 60.9 128.7 60.95 128.8 60.95 128.9 61.0 129.0 61.05 129.1 61.05 129.2 61.1 129.3 61.15 129.5 61.15 129.65 61.2 129.85 61.25 130.05 61.25 130.2 61.3 130.4 61.3 130.6 61.35 130.75 61.35 130.95 61.4 131.15 61.4 131.3 61.45 131.5 61.45 131.7 61.45 131.85 61.45 132.05 61.45 132.25 61.45 132.65 61.45 133.05 61.4 133.4 61.35 133.8 61.3 134.2 61.2 134.55 61.1 134.9 61.0 135.25 60.85 135.6 60.7 135.95 60.55 136.3 60.35 136.65 60.15 136.95 59.9 137.3 59.7 137.6 59.4 137.9 59.0 138.4 58.1 139.2 57.4 139.8 57.05 140.05 56.95 140.15 56.85 140.25 56.75 140.35 56.7 140.4 56.6 140.5 56.6 140.6 56.55 140.65 56.5 140.75 56.5 140.8 56.5 140.9 56.5 141.0 56.5 141.1 56.55 141.2 56.55 141.3 56.6 141.4 56.65 141.6 56.95 142.45 57.25 143.75 57.3 144.05 57.35 144.3 57.4 144.6 57.45 144.9 57.45 145.15 57.45 145.45 57.45 145.7 57.45 146.0 57.45 146.3 57.4 146.55 57.35 146.85 57.3 147.1 57.25 147.4 57.2 147.65 57.1 147.95 57.05 148.2 57.0 148.4 56.9 148.6 56.85 148.8 56.8 148.95 56.7 149.15 56.65 149.35 56.55 149.55 56.45 149.7 56.4 149.9 56.3 150.1 56.2 150.25 56.1 150.45 56.05 150.6 55.95 150.8 55.85 150.95 55.7 151.15 55.7 151.2 55.55 151.4 55.45 151.5 55.4 151.65 55.35 151.75 55.3 151.85 55.3 152.0 55.25 152.1 55.25 152.2 55.25 152.35 55.2 152.45 55.25 152.55 55.25 152.7 55.3 152.8 55.3 152.9 55.35 153.05 55.4 153.15 55.5 153.3 55.6 153.5 55.7 153.7 55.8 153.9 55.85 154.1 55.95 154.3 56.0 154.5 56.05 154.7 56.1 154.9 56.15 155.1 56.2 155.3 56.25 155.5 56.25 155.75 56.3 155.95 56.3 156.15 56.3 156.4 56.3 156.6 56.3 156.8 56.25 156.95 56.25 157.15 56.25 157.3 56.2 157.5 56.15 157.65 56.15 157.85 56.1 158.0 56.05 158.2 56.0 158.35 55.95 158.55 55.85 158.7 55.8 158.85 55.75 159.05 55.65 159.2 55.6 159.35 55.45 159.7 54.75 160.95 54.65 161.1 54.4 161.6 54.35 161.7 54.3 161.8 54.2 161.9 54.2 162.05 54.15 162.15 54.1 162.25 54.1 162.35 54.1 162.45 54.1 162.55 54.1 162.7 54.1 162.8 54.15 162.9 54.15 163.0 54.2 163.15 54.25 163.25 54.3 163.35 54.35 163.5 54.45 163.6 54.5 163.75 54.55 163.9 54.6 164.0 54.65 164.15 54.7 164.3 54.75 164.4 54.8 164.55 54.85 164.7 54.9 164.85 54.9 165.0 54.95 165.1 55.0 165.25 55.0 165.4 55.05 165.55 55.1 165.85 55.1 166.1 55.15 166.4 55.15 166.65 55.15 166.95 55.1 167.2 55.1 167.5 55.0 167.75 54.95 168.0 54.9 168.25 54.8 168.5 54.7 168.75 54.55 169.0 54.4 169.25 54.25 169.5 54.1 169.7 54.0 169.85 53.9 170.0 53.75 170.15 53.65 170.3 53.55 170.45 53.45 170.55 53.35 170.7 53.25 170.85 53.15 171.0 53.05 171.15 52.95 171.3 52.85 171.45 52.75 171.6 52.65 171.75 52.55 171.9 52.5 172.05 52.4 172.25 52.3 172.4 52.25 172.55 52.2 172.7 52.15 172.85 52.15 173.0 52.15 173.1 52.15 173.25 52.15 173.35 52.2 173.45 52.25 173.55 52.35 173.65 52.4 173.75 52.5 173.85 52.6 173.95 52.7 174.1 52.95 174.4 53.25 174.7 53.5 174.95 53.7 175.3 53.95 175.6 54.15 175.9 54.35 176.25 54.5 176.6 54.7 176.9 54.85 177.25 55.0 177.6 55.15 177.95 55.3 178.35 55.4 178.7 55.55 179.05 55.65 179.45 55.75 179.9 56.55 183.75 56.65 184.2 56.85 184.9 57.05 185.85 57.1 186.1 57.1 186.2 57.15 186.25 57.15 186.35 57.2 186.4 57.2 186.5 57.25 186.55 57.3 186.65 57.3 186.7 57.35 186.8 57.35 186.85 57.4 186.95 57.45 187.0 57.45 187.1 57.5 187.15 57.55 187.25 57.55 187.3 57.65 187.45 57.7 187.6 57.8 187.75 57.9 187.9 57.95 188.05 58.05 188.2 58.15 188.35 58.25 188.5 58.35 188.6 58.5 188.75 58.6 188.9 58.7 189.0 58.85 189.1 59.0 189.2 59.1 189.35 59.25 189.45 59.3 189.5 59.35 189.5 59.4 189.55 59.4 189.55 59.4 189.6 59.4 189.65 59.4 189.65 59.35 189.7 59.35 189.75 59.3 189.8 59.1 190.0 58.9 190.15 58.7 190.3 58.5 190.45 58.3 190.55 58.05 190.65 57.85 190.7 57.6 190.75 57.35 190.8 57.15 190.85 56.9 190.85 56.7 190.85 56.5 190.8 56.25 190.8 56.05 190.75 55.9 190.7 55.5 190.55 55.35 190.45 54.95 190.3 54.8 190.2 54.7 190.15 54.55 190.1 54.45 190.1 54.35 190.1 54.2 190.1 54.1 190.15 54.0 190.15 53.9 190.25 53.8 190.3 53.75 190.4 53.7 190.45 53.65 190.6 53.6 190.7 53.55 190.85 53.55 191.0 53.6 191.15 53.6 191.2 53.6 191.3 53.6 191.35 53.65 191.45 53.65 191.5 53.65 191.55 53.7 191.65 53.7 191.7 53.75 191.75 53.75 191.85 53.8 191.9 53.8 191.95 53.85 192.0 53.85 192.1 53.9 192.15 53.95 192.2 54.1 192.45 54.65 193.4 54.6 193.45 54.55 193.45 54.5 193.45 54.45 193.4 54.45 193.4 54.35 193.4 54.05 193.3 53.75 193.15 53.5 193.05 53.2 192.9 52.95 192.75 52.65 192.6 52.4 192.45 52.15 192.3 51.9 192.1 51.7 191.9 51.45 191.7 51.2 191.5 51.0 191.3 50.8 191.05 50.6 190.85 50.4 190.6 50.2 190.35 50.0 190.05 49.8 189.8 49.65 189.5 49.45 189.25 49.3 188.95 49.15 188.65 49.0 188.35 48.9 188.05 48.75 187.75 48.65 187.45 48.55 187.15 48.45 186.85 48.35 186.5 48.25 186.2 48.2 185.85 48.15 185.55 48.1 185.3 48.05 185.0 48.0 184.7 47.95 184.4 47.9 184.15 47.85 183.85 47.85 183.55 47.8 183.25 47.8 183.0 47.8 182.7 47.8 182.4 47.75 182.1 47.8 181.8 47.8 181.5 47.8 181.25 47.8 180.9 47.85 180.55 47.9 180.2 47.95 179.85 48.0 179.5 48.05 179.2 48.15 178.85 48.2 178.5 48.3 178.2 48.4 177.85 48.5 177.5 48.65 177.2 48.75 176.85 48.9 176.55 49.0 176.25 49.2 175.9 49.25 175.8 49.3 175.75 49.3 175.65 49.35 175.55 49.4 175.45 49.45 175.4 49.5 175.3 49.55 175.2 49.6 175.1 49.6 175.05 49.65 174.95 49.7 174.85 49.75 174.75 49.8 174.65 49.85 174.6 49.9 174.5 49.95 174.4 50.0 174.35 50.0 174.25 50.05 174.2 50.05 174.1 50.05 174.05 50.05 173.95 50.05 173.9 50.05 173.85 50.0 173.75 50.0 173.7 49.95 173.6 49.95 173.55 49.9 173.5 49.85 173.4 49.8 173.35 49.75 173.3 49.65 173.2 49.6 173.15 49.55 173.1 49.5 173.0 49.45 172.95 49.35 172.9 49.3 172.8 49.25 172.75 49.2 172.7 49.15 172.6 49.1 172.55 49.05 172.5 48.95 172.4 48.9 172.35 48.85 172.3 48.75 172.15 48.65 172.05 48.55 171.9 48.45 171.75 48.35 171.6 48.3 171.45 48.2 171.3 48.15 171.2 48.05 171.05 48.0 170.9 47.95 170.7 47.9 170.55 47.85 170.4 47.8 170.25 47.75 170.1 47.75 169.9 47.7 169.75 47.7 169.65 47.7 169.5 47.65 169.35 47.65 169.25 47.65 169.1 47.65 169.0 47.65 168.85 47.65 168.7 47.65 168.6 47.7 168.45 47.7 168.3 47.75 168.2 47.75 168.05 47.8 167.95 47.8 167.8 47.85 167.65 47.85 167.55 47.9 167.4 47.9 167.3 47.9 167.2 47.9 167.05 47.95 166.95 47.9 166.8 47.9 166.7 47.9 166.55 47.85 166.45 47.85 166.35 47.8 166.2 47.75 166.1 47.7 166.0 47.65 165.85 47.5 165.55 47.4 165.25 47.25 164.9 47.2 164.6 47.1 164.3 47.05 164.0 47.0 163.65 46.95 163.35 46.9 163.0 46.9 162.7 46.9 162.35 46.95 162.05 46.95 161.7 47.0 161.4 47.1 161.05 47.15 160.75 47.2 160.65 47.2 160.55 47.2 160.45 47.25 160.35 47.25 160.25 47.25 160.15 47.25 160.05 47.25 159.95 47.25 159.85 47.25 159.75 47.25 159.65 47.2 159.55 47.2 159.45 47.2 159.35 47.15 159.25 47.15 159.15 47.05 158.9 47.0 158.65 46.95 158.35 46.9 158.1 46.85 157.85 46.85 157.6 46.85 157.3 46.8 157.05 46.8 156.8 46.85 156.55 46.85 156.25 46.85 156.0 46.9 155.75 46.95 155.45 47.0 155.2 47.05 154.95 47.1 154.75 47.15 154.6 47.15 154.4 47.2 154.2 47.25 154.05 47.3 153.85 47.35 153.65 47.4 153.5 47.45 153.3 47.5 153.15 47.55 152.95 47.65 152.8 47.7 152.6 47.75 152.45 47.85 152.25 47.9 152.1 47.95 152.0 48.0 151.9 48.0 151.8 48.05 151.7 48.05 151.6 48.1 151.5 48.1 151.4 48.1 151.3 48.05 151.2 48.05 151.1 48.05 151.0 48.0 150.9 48.0 150.8 47.95 150.7 47.9 150.6 47.85 150.5 47.75 150.35 47.7 150.15 47.6 150.0 47.55 149.85 47.45 149.65 47.4 149.5 47.35 149.3 47.3 149.15 47.2 148.95 47.15 148.8 47.1 148.6 47.05 148.45 47.0 148.25 47.0 148.1 46.95 147.9 46.9 147.75 46.85 147.45 46.8 147.2 46.8 146.95 46.75 146.7 46.75 146.4 46.7 146.15 46.7 145.85 46.7 145.6 46.7 145.35 46.7 145.1 46.75 144.8 46.75 144.55 46.8 144.3 46.85 144.05 46.9 143.75 47.0 143.5 47.05 143.4 47.05 143.3 47.1 143.2 47.1 143.1 47.15 143.0 47.2 142.9 47.2 142.8 47.25 142.7 47.3 142.6 47.35 142.55 47.4 142.45 47.4 142.35 47.45 142.25 47.5 142.15 47.55 142.05 47.6 141.95 47.65 141.85 47.7 141.8 47.7 141.7 47.75 141.65 47.75 141.55 47.75 141.5 47.8 141.4 47.8 141.35 47.8 141.25 47.75 141.15 47.75 141.1 47.75 141.0 47.75 140.95 47.7 140.85 47.65 140.75 47.65 140.7 47.45 140.25 47.25 139.8 47.1 139.4 46.95 138.95 46.85 138.5 46.75 138.05 46.65 137.6 46.6 137.15 46.55 136.7 46.5 136.2 46.45 135.75 46.45 135.3 46.45 134.8 46.5 134.35 46.5 133.9 46.55 133.4 46.55 133.15 46.6 132.85 46.65 132.6 46.65 132.35 46.7 132.1 46.75 131.8 46.8 131.55 46.85 131.3 46.95 131.05 47.0 130.8 47.1 130.55 47.15 130.3 47.25 130.05 47.35 129.8 47.4 129.55 47.55 129.3 47.6 129.2 47.65 129.05 47.65 128.95 47.7 128.8 47.7 128.7 47.7 128.6 47.7 128.45 47.7 128.35 47.7 128.2 47.7 128.1 47.7 128.0 47.65 127.85 47.6 127.75 47.6 127.65 47.55 127.55 47.5 127.4 47.35 127.15 47.25 126.85 47.1 126.6 47.0 126.3 46.9 126.05 46.8 125.75 46.7 125.45 46.6 125.2 46.55 124.9 46.45 124.6 46.4 124.3 46.3 124.0 46.25 123.75 46.2 123.45 46.15 123.15 46.1 122.85 46.05 122.35 46.0 121.85 45.95 121.3 45.95 120.8 45.9 120.3 45.9 119.8 45.95 119.3 46.0 118.8 46.05 118.3 46.1 117.8 46.2 117.3 46.3 116.8 46.4 116.3 46.55 115.8 46.65 115.3 46.85 114.85 46.85 114.8 46.9 114.7 46.95 114.65 46.95 114.55 47.0 114.5 47.0 114.4 47.05 114.35 47.05 114.3 47.1 114.2 47.15 114.15 47.15 114.1 47.2 114.0 47.25 113.95 47.25 113.85 47.3 113.8 47.35 113.75 47.45 113.6 47.55 113.4 47.6 113.25 47.7 113.1 47.8 112.95 47.95 112.8 48.05 112.7 48.15 112.55 48.3 112.4 48.45 112.3 48.55 112.15 48.7 112.05 48.85 111.95 49.0 111.85 49.15 111.75 49.3 111.65 49.45 111.55 49.55 111.5 49.7 111.4 49.75 111.35 49.85 111.25 49.9 111.2 49.95 111.1 50.0 111.05 50.05 110.95 50.05 110.85 50.05 110.75 50.05 110.65 50.0 110.55 50.0 110.4 49.95 110.3 49.9 110.1 48.85 106.5 48.8 106.1 48.75 105.95 48.75 105.8 48.7 105.65 48.7 105.5 48.65 105.4 48.65 105.25 48.6 105.1 48.6 104.95 48.6 104.8 48.55 104.65 48.55 104.5 48.55 104.35 48.5 104.2 48.5 104.05 48.5 103.95 48.5 103.8 48.5 103.6 48.5 103.4 48.5 103.25 48.5 103.05 48.5 102.85 48.5 102.7 48.55 102.5 48.6 102.3 48.6 102.15 48.65 101.95 48.7 101.8 48.75 101.6 48.85 101.45 48.9 101.3 49.0 101.1 49.05 100.95 49.15 100.75 49.25 100.55 49.35 100.35 49.5 100.15 49.6 99.95 49.7 99.75 49.8 99.55 49.95 99.4 50.05 99.2 50.2 99.0 50.35 98.85 50.45 98.65 50.6 98.45 50.75 98.3 50.85 98.1 51.0 97.95 51.15 97.8 51.25 97.65 51.4 97.5 51.55 97.35 51.65 97.2 51.8 97.05 51.95 96.9 52.1 96.75 52.2 96.6 52.35 96.45 52.5 96.3 52.65 96.2 52.8 96.05 52.95 95.9 53.1 95.75 53.25 95.65 53.25 95.6 53.3 95.6 53.35 95.55 53.35 95.5 53.4 95.5 53.4 95.45 53.45 95.45 53.5 95.4 53.6 95.3 53.7 95.25 53.75 95.15 53.85 95.05 53.9 94.95 53.95 94.85 54.0 94.75 54.0 94.65 54.05 94.55 54.05 94.45 54.05 94.35 54.05 94.25 54.05 94.1 54.05 94.0 54.05 93.9 54.0 93.75 53.65 92.5 53.3 91.05 53.2 90.7 53.15 90.35 53.05 90.0 53.0 89.65 52.95 89.3 52.9 88.95 52.85 88.6 52.8 88.25 52.75 87.9 52.7 87.55 52.65 87.2 52.65 86.85 52.6 86.5 52.6 86.15 52.55 85.8 52.55 85.45 52.55 85.0 52.55 84.6 52.6 84.15 52.6 83.75 52.65 83.3 52.75 82.9 52.8 82.5 52.9 82.05 53.0 81.65 53.1 81.25 53.2 80.85 53.35 80.45 53.5 80.05 53.65 79.65 53.8 79.25 54.0 78.85 54.15 78.55 54.3 78.2 54.5 77.9 54.65 77.6 54.85 77.25 55.05 76.95 55.25 76.65 55.45 76.35 55.65 76.05 55.85 75.75 56.05 75.45 56.25 75.2 56.5 74.9 56.7 74.6 56.95 74.35 57.15 74.05 57.2 74.0 57.25 73.95 57.3 73.9 57.3 73.9 57.45 73.75 57.55 73.65 57.65 73.5 57.7 73.4 57.8 73.25 57.85 73.1 57.9 72.95 57.95 72.8 58.0 72.65 58.0 72.5 58.05 72.35 58.05 72.2 58.05 72.05 58.0 71.85 58.0 71.7 57.95 71.5 57.9 71.35 57.9 71.15 57.85 71.0 57.85 70.8 57.8 70.65 57.8 70.45 57.75 70.3 57.75 70.1 57.75 69.9 57.75 69.75 57.75 69.55 57.75 69.4 57.75 69.2 57.75 69.05 57.75 68.85 57.8 68.65 57.8 68.45 57.85 68.25 57.85 68.05 57.9 67.85 57.95 67.65 57.95 67.45 58.0 67.25 58.05 67.05 58.1 66.85 58.2 66.65 58.25 66.45 58.3 66.25 58.4 66.05 58.45 65.85 58.55 65.65 58.65 65.45 58.8 65.0 59.2 64.35 59.75 63.3 60.65 61.65 61.85 59.45 62.1 58.95 62.15 58.8 62.25 58.7 62.3 58.6 62.4 58.5 62.5 58.35 62.55 58.25 62.65 58.15 62.75 58.05 62.85 57.95 62.9 57.85 63.0 57.75 63.1 57.65 63.25 57.6 63.35 57.5 63.45 57.45 63.6 57.35 63.65 57.3 63.75 57.25 63.8 57.2 63.85 57.15 63.9 57.1 63.95 57.05 64.0 57.0 64.0 56.9 64.05 56.85 64.05 56.8 64.1 56.7 64.1 56.65 64.15 56.55 64.15 56.45 64.15 56.4 64.15 56.3 64.15 55.95 64.2 55.6 64.25 55.2 64.3 54.85 64.35 54.5 64.45 54.15 64.5 53.8 64.6 53.5 64.7 53.15 64.8 52.8 64.9 52.45 65.05 52.15 65.15 51.8 65.3 51.45 65.45 51.15 65.6 50.8 65.75 50.45 65.95 50.1 66.1 49.75 66.25 49.35 66.35 49.0 66.5 48.65 66.65 48.3 66.75 47.9 66.85 47.55 66.95 47.15 67.05 46.8 67.15 46.4 67.25 46.05 67.35 45.65 67.4 45.25 67.5 44.85 67.6 44.4 67.7 43.95 67.75 43.5 67.85 43.05 67.9 42.55 68.0 42.1 68.05 41.65 68.15 41.2 68.2 40.75 68.3 40.25 68.35 39.8 68.4 39.35 68.5 38.9 68.55 38.45 68.6 37.95 68.65 37.5 68.7 37.05 68.75 36.65 68.8 36.2 68.85 35.8 68.9 35.35 68.95 34.9 69.0 34.5 69.05 34.05 69.1 33.6 69.1 33.2 69.15 32.75 69.15 32.35 69.2 31.9 69.2 31.45 69.25 31.05 69.25 30.6 69.25 30.2 69.45 26.95 69.5 26.1 69.45 24.8 69.3 21.3 69.25 20.1 69.25 19.9 69.15 17.6 69.15 16.1 69.1 15.1 69.1 14.7 69.05 14.35 69.05 13.95 69.0 13.6 69.0 13.2 68.95 12.85 68.95 12.5 68.9 12.1 68.85 11.75 68.85 11.35 68.8 11.0 68.75 10.6 68.75 10.25 68.7 9.85 68.65 9.5 68.6 9.1 68.55 8.55 68.45 8.0 68.4 7.45 68.3 6.9 68.25 6.35 68.15 5.8 68.05 5.2 67.95 4.65 67.9 4.1 67.8 3.55 67.7 3.0 67.55 2.45 67.45 1.9 67.35 1.35 67.2 0.8 67.1 0.25 66.9 -0.55 66.55 -1.85 66.05 -3.75 66.0 -3.9 66.0 -3.95 65.9 -4.25 65.85 -4.35 65.85 -4.4 65.8 -4.5 65.75 -4.55 65.7 -4.65 65.65 -4.7 65.6 -4.75 65.55 -4.8 65.5 -4.85 65.4 -4.9 65.35 -4.95 65.25 -4.95 65.2 -5.0 65.1 -5.0 65.0 -5.0 64.9 -5.0 64.65 -5.0 63.65 -5.1 62.9 -5.15 62.45 -5.2 62.1 -5.25 61.8 -5.3 61.45 -5.35 61.1 -5.4 60.75 -5.45 60.45 -5.5 60.1 -5.55 59.8 -5.65 59.45 -5.7 59.1 -5.75 58.8 -5.85 58.45 -5.95 58.15 -6.0 57.8 -6.1 57.5 -6.2 57.15 -6.3 56.1 -6.65 55.1 -7.0 54.1 -7.35 53.1 -7.7 52.05 -8.1 51.1 -8.5 50.1 -8.9 49.1 -9.3 48.1 -9.75 47.15 -10.2 46.2 -10.65 45.25 -11.15 44.25 -11.65 43.35 -12.15 42.4 -12.7 41.45 -13.25 40.8 -13.65 40.15 -14.05 39.55 -14.45 38.95 -14.9 38.3 -15.3 37.7 -15.8 37.1 -16.25 36.55 -16.7 35.95 -17.2 35.4 -17.7 34.85 -18.15 34.3 -18.7 33.75 -19.2 33.2 -19.75 32.65 -20.25 32.15 -20.8 32.1 -20.85 32.1 -20.85 32.05 -20.9 32.0 -20.95 32.0 -21.0 31.95 -21.0 31.9 -21.05 31.9 -21.1 31.85 -21.1 31.85 -21.15 31.8 -21.2 31.75 -21.2 31.7 -21.25 31.7 -21.3 31.65 -21.3 31.6 -21.35 31.55 -21.4 31.5 -21.4 31.45 -21.45 31.4 -21.45 31.3 -21.5 31.25 -21.5 31.2 -21.5 31.15 -21.5 31.1 -21.5 31.05 -21.5 31.0 -21.45 30.95 -21.45 30.9 -21.4 30.8 -21.35 30.75 -21.35 30.7 -21.3 30.65 -21.25 30.65 -21.25 30.6 -21.2 30.55 -21.15 30.55 -21.15 30.5 -21.1 30.5 -21.05 30.45 -21.0 30.45 -21.0 30.4 -20.95 30.2 -20.7 30.0 -20.45 29.8 -20.2 29.6 -19.95 29.4 -19.75 29.15 -19.5 28.95 -19.25 28.75 -19.05 28.5 -18.85 28.25 -18.6 28.05 -18.4 27.8 -18.2 27.6 -17.95 27.35 -17.75 27.1 -17.55 26.85 -17.35 26.3 -16.9 25.75 -16.45 25.2 -16.05 24.65 -15.6 24.1 -15.2 23.5 -14.8 22.95 -14.4 22.35 -14.0 21.75 -13.6 21.15 -13.25 20.55 -12.85 19.95 -12.5 19.35 -12.15 18.75 -11.8 18.15 -11.45 17.5 -11.1 16.55 -10.6 15.6 -10.1 14.65 -9.6 13.65 -9.15 12.65 -8.7 11.7 -8.25 10.7 -7.85 9.7 -7.45 8.7 -7.05 7.7 -6.7 6.65 -6.3 5.65 -6.0 4.6 -5.65 3.6 -5.3 2.55 -5.0 1.5 -4.7 -2.55 -3.6 -5.1 -3.15 -5.35 -3.1 -5.6 -3.05 -5.85 -3.05 -6.1 -3.0 -6.35 -2.95 -6.55 -2.9 -6.8 -2.9 -7.05 -2.85 -7.3 -2.8 -7.55 -2.75 -7.8 -2.75 -8.05 -2.7 -8.3 -2.65 -8.55 -2.65 -8.8 -2.6 -9.05 -2.55 -11.8 -2.25 -13.55 -2.1 -15.8 -1.9 -16.8 -1.95 -16.85 -1.95 -16.95 -1.95 -17.1 -1.95 -17.2 -1.95 -17.3 -1.95 -17.35 -1.9 -17.45 -1.9 -17.55 -1.85 -17.6 -1.85 -17.65 -1.8 -17.75 -1.75 -17.8 -1.7 -17.85 -1.6 -17.85 -1.55 -17.9 -1.45 -17.95 -1.35 -18.0 -1.25 -18.0 -1.1 -18.2 -0.35 -18.4 0.95 -19.1 5.1 -19.45 7.15 -19.7 8.8 -20.15 12.3 -20.4 13.95 -20.65 16.2 -20.7 16.8 -20.8 17.8 -20.95 19.2 -20.95 19.45 -21.15 21.4 -21.3 23.15 -21.4 24.45 -21.45 25.15 -21.75 31.95 -21.75 33.25 -21.75 33.7 -21.75 34.1 -21.75 34.55 -21.8 34.95 -21.8 35.4 -21.8 35.85 -21.8 36.25 -21.8 36.7 -21.8 37.1 -21.8 37.55 -21.8 38.0 -21.8 38.4 -21.75 38.85 -21.75 39.25 -21.75 39.7 -21.75 40.1 -21.7 41.05 -21.65 42.6 -21.55 44.55 -21.55 45.1 -21.55 45.25 -21.55 45.35 -21.5 45.5 -21.5 45.65 -21.45 45.75 -21.45 45.9 -21.4 46.0 -21.35 46.15 -21.3 46.25 -21.25 46.4 -21.2 46.5 -21.1 46.6 -21.05 46.75 -21.0 46.85 -20.9 46.95 -20.85 47.05 -20.5 47.5 -20.15 48.0 -19.85 48.5 -19.55 49.0 -19.3 49.5 -19.05 50.0 -18.8 50.5 -18.55 51.05 -18.35 51.55 -18.15 52.1 -17.95 52.65 -17.8 53.2 -17.65 53.75 -17.55 54.3 -17.45 54.9 -17.35 55.45 -17.25 56.0 -17.2 56.5 -17.1 57.05 -17.05 57.55 -17.0 58.1 -16.95 58.6 -16.9 59.15 -16.9 59.65 -16.85 60.2 -16.85 60.7 -16.85 61.25 -16.8 61.8 -16.8 62.3 -16.85 62.85 -16.85 63.35 -16.85 63.9 -16.95 65.4 -17.1 67.35 -17.1 67.45 -17.1 67.55 -17.15 67.6 -17.15 67.7 -17.15 67.8 -17.15 67.9 -17.2 68.0 -17.2 68.05 -17.2 68.15 -17.25 68.25 -17.25 68.35 -17.3 68.45 -17.3 68.5 -17.35 68.6 -17.35 68.7 -17.35 68.8 -17.4 68.95 -17.4 69.05 -17.45 69.2 -17.45 69.3 -17.45 69.45 -17.45 69.55 -17.45 69.65 -17.4 69.8 -17.35 69.9 -17.3 70.0 -17.3 70.1 -17.2 70.2 -17.15 70.3 -17.1 70.45 -17.0 70.55 -16.9 70.65 -16.05 71.6 -15.7 72.05 -15.4 72.4 -15.15 72.75 -14.9 73.15 -14.65 73.5 -14.4 73.9 -14.15 74.25 -13.95 74.65 -13.7 75.05 -13.5 75.45 -13.3 75.85 -13.1 76.25 -12.95 76.65 -12.8 77.05 -12.65 77.5 -12.5 77.9 -12.35 78.35 -12.25 78.7 -12.15 79.05 -12.1 79.45 -12.0 79.8 -11.95 80.15 -11.9 80.55 -11.85 80.9 -11.8 81.25 -11.8 81.65 -11.75 82.0 -11.75 82.35 -11.75 82.75 -11.75 83.1 -11.8 83.5 -11.8 83.85 -11.85 84.2 -11.9 84.6 -11.95 85.0 -12.0 85.4 -12.05 85.85 -12.1 86.25 -12.2 86.65 -12.25 87.05 -12.3 87.45 -12.4 87.85 -12.45 88.25 -12.55 88.65 -12.65 89.05 -12.7 89.45 -12.8 89.85 -12.9 90.25 -13.0 90.65 -13.0 90.7 -13.05 90.75 -13.05 90.85 -13.05 90.9 -13.05 91.0 -13.1 91.1 -13.1 91.2 -13.1 91.3 -13.1 91.4 -13.1 91.45 -13.05 91.55 -13.05 91.65 -13.0 91.75 -13.0 91.85 -12.95 91.9 -12.9 92.0 -12.85 92.05 -12.8 92.15 -12.75 92.25 -12.65 92.3 -11.85 93.1 -11.6 93.35 -11.4 93.55 -11.15 93.8 -10.95 94.05 -10.75 94.25 -10.55 94.5 -10.35 94.75 -10.15 95.0 -9.95 95.25 -9.75 95.5 -9.6 95.75 -9.4 96.0 -9.25 96.25 -9.05 96.55 -8.9 96.8 -8.7 97.05 -8.55 97.35 -8.4 97.65 -8.25 97.95 -8.1 98.2 -8.0 98.5 -7.9 98.8 -7.85 99.1 -7.75 99.4 -7.7 99.7 -7.65 100.0 -7.65 100.35 -7.6 100.65 -7.6 100.95 -7.6 101.25 -7.65 101.6 -7.65 101.9 -7.7 102.25 -7.75 102.55 -7.8 102.85 -7.85 103.15 -7.9 103.45 -7.95 103.75 -8.0 104.05 -8.05 104.3 -8.15 104.6 -8.2 104.9 -8.3 105.2 -8.35 105.5 -8.45 105.8 -8.5 106.05 -8.6 106.4 -8.7 106.65 -8.8 106.95 -8.8 107.05 -8.85 107.25 -8.95 107.45 -8.95 107.55 -8.95 107.65 -8.95 107.7 -9.0 107.8 -8.95 107.85 -8.95 107.9 -8.95 108.0 -8.95 108.05 -8.9 108.15 -8.9 108.2 -8.85 108.25 -8.8 108.3 -8.8 108.35 -8.75 108.45 -8.65 108.5 -8.6 108.55 -8.55 108.6 -8.5 108.6 -8.45 108.65 -8.45 108.65 -8.4 108.7 -8.35 108.7 -8.3 108.7 -8.1 108.85 -7.95 108.95 -7.75 109.1 -7.6 109.25 -7.4 109.4 -7.25 109.55 -7.1 109.75 -6.95 109.9 -6.85 110.05 -6.7 110.25 -6.55 110.45 -6.45 110.65 -6.35 110.8 -6.25 111.0 -6.15 111.2 -6.05 111.45 -5.95 111.65 -5.9 111.8 -5.8 112.0 -5.75 112.2 -5.7 112.4 -5.6 112.6 -5.55 112.75 -5.5 112.95 -5.45 113.15 -5.4 113.35 -5.35 113.55 -5.3 113.75 -5.25 113.95 -5.2 114.15 -5.15 114.35 -5.1 114.55 -4.9 115.55 -4.7 117.65 -4.65 118.25 -4.9 120.25 -4.95 120.55 -5.0 120.85 -5.0 121.15 -5.1 121.45 -5.15 121.75 -5.2 122.05 -5.25 122.35 -5.35 122.65 -5.45 122.9 -5.5 123.2 -5.6 123.5 -5.7 123.8 -5.8 124.05 -5.95 124.35 -6.05 124.65 -6.2 124.9 -6.25 124.95 -6.25 125.05 -6.25 125.1 -6.3 125.2 -6.3 125.25 -6.3 125.35 -6.3 125.4 -6.3 125.5 -6.3 125.55 -6.3 125.65 -6.3 125.7 -6.3 125.8 -6.3 125.85 -6.25 125.95 -6.25 126.0 -6.25 126.05 -6.2 126.1 -6.1 126.4 -6.05 126.6 -6.0 126.7 -5.85 127.0 -5.75 127.3 -5.65 127.6 -5.55 127.9 -5.45 128.2 -5.35 128.5 -5.3 128.8 -5.2 129.1 -5.15 129.4 -5.1 129.7 -5.05 130.0 -5.0 130.35 -4.95 130.65 -4.9 130.95 -4.9 131.3 -4.85 131.6 -4.85 131.85 -4.8 132.1 -4.8 132.4 -4.8 132.65 -4.8 132.9 -4.8 133.15 -4.8 133.45 -4.8 133.7 -4.85 133.95 -4.85 134.2 -4.9 134.5 -4.9 134.75 -4.95 135.0 -5.0 135.25 -5.05 135.5 -5.1 135.8 -5.15 135.9 -5.15 136.05 -5.2 136.15 -5.2 136.25 -5.25 136.4 -5.25 136.5 -5.3 136.6 -5.3 136.7 -5.35 136.85 -5.4 136.95 -5.45 137.05 -5.45 137.15 -5.5 137.3 -5.55 137.4 -5.6 137.5 -5.65 137.6 -5.7 137.75 -5.75 137.85 -5.8 137.95 -5.85 138.1 -5.85 138.2 -5.85 138.35 -5.9 138.45 -5.85 138.55 -5.85 138.7 -5.85 138.8 -5.85 138.9 -5.8 139.05 -5.75 139.15 -5.7 139.3 -5.65 139.4 -5.6 139.5 -5.4 139.85 -5.25 140.25 -5.1 140.6 -5.0 141.0 -4.85 141.35 -4.8 141.75 -4.7 142.1 -4.7 142.5 -4.65 142.85 -4.65 143.25 -4.65 143.65 -4.65 144.05 -4.7 144.4 -4.75 144.8 -4.8 145.2 -4.9 145.6 -4.95 145.75 -5.0 145.9 -5.0 146.05 -5.05 146.2 -5.1 146.35 -5.15 146.5 -5.2 146.65 -5.25 146.8 -5.3 146.95 -5.35 147.05 -5.4 147.2 -5.45 147.35 -5.5 147.5 -5.6 147.65 -5.65 147.8 -5.7 147.9 -5.75 147.95 -5.75 148.05 -5.8 148.1 -5.8 148.2 -5.85 148.25 -5.85 148.35 -5.85 148.4 -5.85 148.5 -5.9 148.55 -5.85 148.65 -5.85 148.7 -5.85 148.8 -5.85 148.85 -5.8 148.9 -5.8 149.0 -5.75 149.05 -5.55 149.55 -5.45 149.8 -5.35 150.05 -5.25 150.3 -5.15 150.55 -5.05 150.8 -4.95 151.05 -4.9 151.3 -4.8 151.55 -4.75 151.8 -4.7 152.05 -4.6 152.3 -4.55 152.55 -4.5 152.8 -4.45 153.05 -4.4 153.3 -4.35 153.55 -4.35 153.85 -4.35 154.0 -4.3 154.15 -4.3 154.3 -4.3 154.4 -4.3 154.55 -4.3 154.7 -4.3 154.85 -4.3 155.0 -4.3 155.15 -4.3 155.3 -4.35 155.45 -4.35 155.6 -4.35 155.7 -4.4 155.85 -4.45 156.0 -4.45 156.15 -4.5 156.3 -4.5 156.4 -4.55 156.55 -4.55 156.7 -4.6 156.8 -4.6 156.95 -4.6 157.05 -4.6 157.2 -4.6 157.35 -4.6 157.45 -4.55 157.6 -4.55 157.75 -4.55 157.85 -4.5 158.0 -4.5 158.1 -4.45 158.25 -4.4 158.35 -4.4 158.45 -4.35 158.6 -4.35 158.7 -4.3 158.8 -4.3 158.9 -4.25 159.0 -4.25 159.15 -4.25 159.25 -4.2 159.35 -4.2 159.45 -4.2 159.6 -4.2 159.7 -4.2 159.8 -4.15 159.9 -4.15 160.05 -4.15 160.25 -4.15 160.45 -4.15 160.65 -4.15 160.8 -4.2 161.0 -4.2 161.2 -4.25 161.4 -4.3 161.6 -4.3 161.75 -4.35 161.95 -4.4 162.15 -4.45 162.35 -4.55 162.5 -4.6 162.7 -4.65 162.9 -4.75 163.05 -4.75 163.1 -4.8 163.1 -4.8 163.15 -4.8 163.2 -4.8 163.2 -4.85 163.25 -4.85 163.3 -4.85 163.3 -4.9 163.4 -4.95 163.5 -4.95 163.6 -5.0 163.7 -5.05 163.8 -5.05 163.9 -5.05 164.0 -5.05 164.1 -5.1 164.2 -5.05 164.3 -5.05 164.4 -5.05 164.5 -5.05 164.6 -5.0 164.75 -5.0 164.85 -4.95 164.95 -4.9 165.05 -4.9 165.15 -4.85 165.25 -4.85 165.3 -4.8 165.4 -4.8 165.5 -4.75 165.6 -4.75 165.7 -4.75 165.8 -4.7 165.9 -4.7 166.0 -4.7 166.1 -4.7 166.2 -4.7 166.3 -4.7 166.4 -4.65 166.5 -4.65 166.7 -4.65 166.85 -4.7 167.0 -4.7 167.2 -4.75 167.35 -4.75 167.5 -4.8 167.7 -4.85 167.85 -4.9 168.0 -4.95 168.15 -5.0 168.3 -5.1 168.5 -5.15 168.65 -5.25 168.8 -5.35 168.95 -5.45 169.1 -5.7 169.5 -6.35 170.2 -6.4 170.25 -6.6 170.5 -6.75 170.65 -6.85 170.75 -6.9 170.8 -6.95 170.85 -6.95 170.95 -7.0 171.0 -7.0 171.05 -7.05 171.1 -7.05 171.15 -7.05 171.25 -7.05 171.3 -7.05 171.35 -7.05 171.4 -7.05 171.5 -7.0 171.55 -7.0 171.6 -6.95 171.7 -6.95 171.75 -6.8 172.0 -6.45 172.5 -6.25 172.8 -6.1 173.1 -5.9 173.4 -5.75 173.75 -5.6 174.05 -5.45 174.35 -5.3 174.7 -5.15 175.0 -5.0 175.35 -4.9 175.7 -4.8 176.0 -4.7 176.35 -4.6 176.7 -4.5 177.05 -4.45 177.4 -4.4 177.75 -4.35 178.05 -4.3 178.3 -4.25 178.6 -4.25 178.85 -4.2 179.15 -4.2 179.4 -4.2 179.65 -4.2 179.95 -4.2 180.2 -4.2 180.5 -4.2 180.75 -4.2 181.05 -4.25 181.3 -4.3 181.6 -4.3 181.85 -4.35 182.15 -4.6 183.5 -4.85 184.35 -5.0 184.8 -5.15 185.25 -5.3 185.65 -5.5 186.05 -5.7 186.45 -5.95 186.85 -6.15 187.25 -6.45 187.6 -6.7 187.95 -7.0 188.25 -7.3 188.6 -7.6 188.9 -7.95 189.2 -8.3 189.5 -8.7 189.8 -9.1 190.05 -9.2 190.1 -9.35 190.2 -9.5 190.25 -9.6 190.35 -9.75 190.4 -9.9 190.45 -10.0 190.55 -10.15 190.6 -10.3 190.65 -10.4 190.7 -10.55 190.75 -10.7 190.8 -10.85 190.85 -10.95 190.95 -11.1 191.0 -11.25 191.05 -11.55 191.1 -11.7 191.1 L-11.7 191.1" fill="url(#gradient0)" fill-rule="evenodd" stroke="none"/>
  </g>
  <defs>
    <linearGradient gradientTransform="matrix(0.0, 0.1509, -0.1509, 0.0, 11.6, 69.7)" gradientUnits="userSpaceOnUse" id="gradient0" spreadMethod="pad" x1="-819.2" x2="819.2">
      <stop offset="0.0" stop-color="#fff23c" stop-opacity="0.0"/>
      <stop offset="0.3803921568627451" stop-color="#fff23c" stop-opacity="0.84705883"/>
      <stop offset="0.6039215686274509" stop-color="#fff23c" stop-opacity="0.8"/>
      <stop offset="1.0" stop-color="#fff23c" stop-opacity="0.0"/>
    </linearGradient>
  </defs>
</svg>
