<?xml version="1.0" encoding="UTF-8" standalone="no"?>
<svg xmlns:xlink="http://www.w3.org/1999/xlink" height="400.0px" width="400.0px" xmlns="http://www.w3.org/2000/svg">
  <g transform="matrix(1.0, 0.0, 0.0, 1.0, 200.0, 200.0)">
    <path d="M56.05 89.75 Q56.1 89.75 56.15 89.8 56.1 89.8 56.0 89.75 56.0 89.75 56.05 89.75 L56.05 89.75" fill="#b618ea" fill-rule="evenodd" stroke="none"/>
    <path d="M69.75 103.05 Q69.7 102.9 69.7 102.7 69.65 102.55 69.6 102.4 69.6 102.25 69.55 102.1 69.5 101.9 69.5 101.75 69.45 101.6 69.4 101.45 69.4 101.25 69.35 101.1 69.3 100.95 69.25 100.8 69.25 100.65 69.2 100.45 69.15 100.45 69.1 100.4 69.05 100.4 69.05 100.35 69.0 100.35 68.95 100.3 68.95 100.3 68.7 100.15 66.15 98.4 64.15 97.2 62.65 96.35 61.6 95.9 61.25 95.75 60.85 95.6 60.55 95.5 60.25 95.4 59.95 95.3 59.6 95.25 59.3 95.15 58.95 95.15 58.6 95.05 58.25 95.05 57.85 95.05 57.5 95.05 57.15 95.05 56.8 95.15 56.4 95.2 56.05 95.3 55.65 95.4 55.35 95.6 54.95 95.8 54.55 96.1 54.2 96.35 53.85 96.65 53.6 96.95 53.3 97.25 53.05 97.5 52.8 97.85 54.0 96.35 52.4 98.4 52.2 98.65 52.05 98.8 51.9 99.0 51.75 99.05 51.65 99.15 51.5 99.1 51.4 99.05 51.35 98.95 51.3 98.85 51.3 98.7 51.3 98.55 51.3 98.35 51.3 98.2 51.3 97.85 51.35 97.5 51.35 97.35 51.35 97.0 51.35 96.7 51.35 96.35 51.3 96.0 51.25 95.65 51.2 95.3 51.1 94.7 50.85 94.15 50.65 93.55 50.35 93.0 50.05 92.45 49.7 91.95 49.35 91.45 48.95 91.0 48.55 90.55 48.1 90.2 47.65 89.85 47.2 89.65 46.75 89.4 46.3 89.3 45.85 89.2 45.4 89.25 45.15 89.25 44.9 89.35 44.65 89.4 44.4 89.5 44.2 89.6 43.95 89.75 43.7 89.85 43.45 90.0 43.25 90.15 43.05 90.3 42.85 90.4 42.65 90.55 42.5 90.65 42.35 90.8 42.25 90.85 42.1 91.0 41.8 91.25 40.9 92.05 40.85 92.1 40.75 92.15 40.7 92.25 40.65 92.3 40.55 92.35 40.5 92.4 40.45 92.5 40.35 92.55 40.3 92.6 40.25 92.65 40.2 92.7 40.15 92.8 40.05 92.85 40.0 92.9 39.95 92.95 39.9 93.05 39.85 93.1 39.8 93.15 39.75 93.25 39.7 93.3 39.65 93.35 39.55 93.4 39.5 93.5 39.45 93.55 39.4 93.6 39.35 93.65 39.3 93.7 39.3 93.8 39.25 93.85 39.2 93.9 39.15 93.95 39.1 94.05 39.05 94.1 39.0 94.15 38.95 94.2 38.95 94.25 38.9 94.35 38.85 94.4 38.8 94.45 38.75 94.5 38.7 94.55 38.7 94.6 38.65 94.7 38.6 94.75 38.55 94.8 38.5 94.85 38.5 94.9 38.45 95.0 38.4 95.05 38.4 95.1 38.35 95.15 38.35 95.2 38.3 95.25 38.25 95.3 38.25 95.35 38.2 95.4 38.2 95.45 38.15 95.5 38.1 95.55 38.1 95.6 38.05 95.65 38.05 95.7 38.0 95.8 38.0 95.85 37.85 96.15 37.7 96.6 37.7 96.65 37.65 96.65 37.65 96.7 37.65 96.75 37.6 96.8 37.6 96.8 37.55 96.85 37.55 96.9 37.55 96.9 37.55 96.95 37.5 97.0 37.5 97.05 37.5 97.05 37.45 97.1 37.45 97.15 37.45 97.2 37.4 97.3 37.4 97.4 37.35 97.5 37.3 97.6 37.3 97.7 37.25 97.8 37.2 97.9 37.2 98.0 37.15 98.1 37.15 98.2 37.15 98.3 37.1 98.4 37.1 98.5 37.05 98.6 37.05 98.75 37.05 98.85 37.05 98.95 37.0 99.05 37.0 99.15 37.0 99.25 36.95 99.35 36.95 99.5 36.95 99.6 36.9 99.7 36.9 99.8 36.9 99.9 36.9 100.0 36.9 100.1 36.85 100.2 36.85 100.3 36.85 100.45 36.85 100.55 36.85 101.35 36.9 102.35 36.9 102.45 36.95 102.55 36.95 102.7 36.95 102.8 36.95 102.9 37.0 103.05 37.0 103.15 37.0 103.25 37.05 103.4 37.05 103.5 37.1 103.6 37.1 103.75 37.1 103.85 37.15 104.0 37.15 104.1 37.2 104.25 37.35 105.1 37.6 106.25 37.85 107.15 38.2 108.4 38.5 109.35 38.9 110.7 39.15 111.55 39.7 113.25 40.2 114.7 41.0 117.0 40.6 117.6 40.5 117.75 40.35 118.0 40.0 118.65 39.95 118.7 39.9 118.8 39.9 118.85 39.85 118.9 39.8 119.0 39.8 119.05 39.75 119.1 39.7 119.2 39.7 119.25 39.65 119.3 39.65 119.35 39.6 119.45 39.55 119.5 39.55 119.55 39.5 119.6 39.5 119.7 39.45 119.75 39.4 119.85 39.4 119.9 39.35 120.0 39.3 120.05 39.3 120.15 39.25 120.2 39.2 120.3 39.2 120.35 39.15 120.45 39.15 120.5 39.1 120.6 39.05 120.65 39.05 120.75 39.0 120.8 39.0 120.9 38.8 121.4 38.6 122.15 38.6 122.25 38.55 122.3 38.55 122.4 38.55 122.5 38.5 122.6 38.5 122.65 38.45 122.75 38.45 122.85 38.45 122.9 38.45 123.0 38.4 123.1 38.4 123.2 38.4 123.25 38.35 123.35 38.35 123.45 38.35 123.55 38.35 123.65 38.3 123.75 38.3 123.8 38.3 123.9 38.25 124.0 38.25 124.1 38.25 124.2 38.25 124.3 38.2 124.4 38.2 124.45 38.2 124.55 38.2 124.65 38.2 124.75 38.2 124.85 38.2 124.95 38.2 125.05 38.2 125.15 38.2 125.25 38.2 125.35 38.2 125.4 38.2 125.5 38.2 125.6 38.2 125.7 38.2 125.8 38.2 125.9 38.2 126.0 38.2 126.1 38.2 126.2 38.2 126.3 38.2 126.4 38.25 126.5 38.25 126.6 38.25 126.65 38.25 126.7 38.25 126.75 38.3 126.8 38.3 126.85 38.3 126.95 38.3 127.0 38.3 127.05 38.3 127.1 38.35 127.15 38.35 127.2 38.35 127.25 38.35 127.3 38.35 127.35 38.4 127.45 38.4 127.5 38.4 127.55 38.4 127.6 38.4 127.7 38.45 127.75 38.45 127.8 38.45 127.85 38.45 127.95 38.45 128.0 38.5 128.05 38.5 128.1 38.5 128.15 38.55 128.25 38.55 128.3 38.55 128.35 38.6 128.4 38.6 128.5 38.6 128.55 38.6 128.6 38.65 128.7 38.65 128.75 38.65 128.8 38.7 128.85 38.7 128.95 38.7 129.0 38.7 129.05 38.75 129.1 38.75 129.15 38.75 129.25 38.8 129.3 38.8 129.35 38.85 129.4 38.85 129.5 38.85 129.55 38.9 129.65 38.9 129.7 38.95 129.75 38.95 129.85 39.0 129.9 39.0 129.95 39.05 130.05 39.05 130.1 39.1 130.15 39.1 130.2 39.15 130.3 39.15 130.35 39.2 130.4 39.2 130.45 39.25 130.55 39.25 130.6 39.3 130.7 39.3 130.75 39.35 130.8 39.4 130.9 39.4 130.95 39.45 131.0 39.45 131.1 39.5 131.15 39.5 131.2 39.55 131.25 39.55 131.35 39.6 131.4 39.65 131.45 39.65 131.5 39.7 131.6 39.75 131.65 39.75 131.75 39.8 131.8 39.85 131.85 39.85 131.95 39.9 132.0 39.9 132.05 39.95 132.15 40.0 132.2 40.05 132.25 40.05 132.3 40.1 132.4 40.15 132.45 40.15 132.5 40.2 132.55 40.25 132.65 40.3 132.7 40.3 132.8 40.35 132.85 40.4 132.9 40.45 133.0 40.5 133.05 40.5 133.1 40.55 133.2 40.6 133.25 40.65 133.3 40.7 133.35 40.7 133.45 40.75 133.5 40.8 133.55 40.85 133.6 40.9 133.7 40.95 133.75 41.0 133.8 41.05 133.9 41.1 133.95 41.1 134.0 41.15 134.05 41.2 134.15 41.25 134.2 41.3 134.25 41.35 134.3 41.4 134.35 41.45 134.45 41.5 134.5 41.55 134.55 41.6 134.6 41.65 134.7 41.7 134.75 41.9 135.0 42.1 135.25 42.25 135.4 42.3 135.45 42.3 135.45 42.35 135.5 42.4 135.55 42.45 135.55 42.5 135.6 42.5 135.65 42.55 135.7 42.6 135.7 42.65 135.75 42.7 135.8 42.7 135.85 42.75 135.9 42.8 135.95 42.85 136.0 42.9 136.05 43.35 136.5 43.6 136.7 43.6 136.7 43.55 136.7 43.6 136.75 43.65 136.8 43.7 136.85 43.7 136.9 43.75 136.95 43.8 136.95 43.85 137.0 43.9 137.05 43.9 137.1 43.95 137.15 44.0 137.15 44.05 137.2 44.1 137.25 44.1 137.25 44.15 137.3 44.2 137.35 44.5 137.75 44.8 138.1 44.85 138.15 44.85 138.2 44.9 138.25 44.95 138.25 45.0 138.3 45.0 138.35 45.05 138.4 45.1 138.45 45.1 138.5 45.15 138.55 45.2 138.6 45.2 138.65 45.25 138.7 45.3 138.75 45.3 138.8 45.35 138.85 45.4 138.9 45.4 138.95 45.45 139.0 45.5 139.05 45.55 139.1 45.55 139.2 45.6 139.25 45.65 139.3 45.65 139.35 45.7 139.4 45.75 139.45 45.75 139.5 45.8 139.55 45.85 139.6 45.85 139.7 45.9 139.75 45.95 139.8 45.95 139.85 46.0 139.95 46.0 140.0 46.05 140.05 46.1 140.1 46.1 140.2 46.15 140.25 46.15 140.3 46.2 140.4 46.2 140.45 46.25 140.5 46.25 140.6 46.3 140.65 46.3 140.7 46.35 140.8 46.35 140.85 46.35 140.9 46.4 140.95 46.4 141.0 46.4 141.0 46.4 141.05 46.45 141.1 46.45 141.15 46.45 141.2 46.55 141.55 46.55 141.6 46.6 141.7 46.65 141.8 46.65 141.85 46.65 141.9 46.65 141.95 46.7 142.0 46.7 142.05 46.7 142.05 46.7 142.1 46.75 142.15 46.75 142.2 46.75 142.25 46.75 142.3 46.8 142.35 46.8 142.4 46.8 142.45 46.8 142.5 46.8 142.55 46.8 142.6 46.85 142.65 46.85 142.65 46.85 142.7 46.85 142.75 46.85 142.8 46.85 142.85 46.9 142.9 46.9 142.9 46.9 142.95 46.9 143.0 46.9 143.05 46.9 143.1 46.95 143.15 46.95 143.15 46.95 143.2 46.95 143.25 46.9 143.35 46.85 143.4 46.8 143.5 46.8 143.55 46.75 143.65 46.7 143.75 46.65 143.8 46.6 143.9 46.55 144.0 46.55 144.05 46.5 144.15 46.45 144.25 46.4 144.3 46.35 144.4 46.35 144.5 46.3 144.6 46.25 144.75 46.05 145.25 45.9 145.6 45.8 145.85 45.6 146.35 45.4 147.1 45.3 147.45 45.1 148.2 45.05 148.4 45.0 148.75 44.9 149.1 44.9 149.25 44.9 149.3 44.85 149.35 44.85 149.45 44.85 149.5 44.85 149.55 44.85 149.6 44.8 149.7 44.8 149.75 44.8 149.8 44.8 149.85 44.8 149.9 44.75 150.0 44.75 150.05 44.75 150.1 44.75 150.15 44.75 150.25 44.7 150.6 44.65 151.15 44.65 151.2 44.65 151.25 44.65 151.3 44.65 151.35 44.6 151.4 44.6 151.45 44.6 151.5 44.6 151.55 44.6 151.6 44.6 151.65 44.6 151.7 44.6 151.75 44.6 151.8 44.6 151.85 44.6 151.9 44.6 151.95 44.6 152.05 44.6 152.15 44.6 152.25 44.6 152.35 44.55 152.45 44.55 152.55 44.55 152.65 44.55 152.75 44.55 152.85 44.55 152.95 44.55 153.05 44.6 153.15 44.6 153.25 44.6 153.35 44.6 153.45 44.6 153.55 44.6 153.8 44.65 154.25 44.7 154.9 44.7 155.0 44.7 155.1 44.7 155.15 44.75 155.25 44.75 155.3 44.75 155.4 44.8 155.5 44.8 155.55 44.8 155.65 44.8 155.75 44.85 155.8 44.85 155.9 44.85 156.0 44.9 156.05 44.9 156.15 44.95 156.25 44.95 156.35 45.05 156.85 45.25 157.7 45.75 160.2 45.55 159.1 45.75 159.95 45.85 160.6 45.95 161.1 46.15 162.3 L46.35 164.2 Q46.35 164.3 46.35 164.35 46.35 164.45 46.35 164.5 46.35 164.6 46.4 164.7 46.4 164.75 46.4 164.85 46.4 164.95 46.4 165.0 46.4 165.1 46.4 165.2 46.4 165.3 46.4 165.35 46.4 165.45 46.4 165.55 46.4 165.6 46.4 165.7 46.4 165.75 46.4 165.85 46.4 165.9 46.45 166.0 46.45 166.05 46.45 166.15 46.45 166.25 46.45 166.3 46.45 166.4 46.45 166.45 46.45 166.55 46.45 166.6 46.45 166.7 46.45 166.8 46.45 166.85 46.45 166.95 46.45 167.0 46.45 167.1 46.45 167.15 46.45 167.25 46.45 167.3 46.45 167.4 46.45 167.45 46.45 167.55 46.4 167.6 46.4 167.7 46.4 167.75 46.4 167.85 46.4 167.9 46.4 168.0 46.4 168.05 46.4 168.15 46.4 168.2 46.4 168.3 46.4 168.35 46.4 168.45 46.4 168.5 46.4 168.6 46.4 168.65 46.4 168.7 46.35 168.8 46.35 168.85 46.35 168.95 46.35 169.0 46.35 169.05 46.35 169.15 46.35 169.2 46.35 169.25 46.35 169.35 46.35 169.4 46.35 169.45 46.35 169.5 46.35 169.6 46.35 169.65 46.35 169.7 46.35 169.8 46.3 169.85 46.3 169.9 46.3 170.0 46.3 170.05 46.3 170.1 46.3 170.2 46.25 170.55 46.2 171.15 46.2 171.2 46.2 171.25 46.2 171.3 46.15 171.35 46.15 171.4 46.15 171.45 46.15 171.5 46.15 171.55 46.1 171.6 46.1 171.65 46.1 171.7 46.1 171.75 46.1 171.8 46.05 171.85 46.05 171.95 46.05 172.0 46.0 172.3 45.95 172.75 49.1 173.0 51.95 173.3 52.85 171.1 53.15 170.3 54.1 171.7 54.4 172.25 54.5 172.25 54.55 172.25 54.65 172.2 54.7 172.2 54.8 172.2 54.9 172.2 55.0 172.2 55.1 172.15 55.2 172.15 55.3 172.15 55.4 172.1 55.5 172.1 55.65 172.1 55.75 172.05 55.85 172.05 56.0 172.05 56.9 171.9 57.55 171.85 L57.55 171.25 Q57.55 171.2 57.55 171.15 57.55 171.15 57.55 171.1 57.55 171.05 57.6 171.0 57.6 170.95 57.6 170.95 57.6 170.9 57.6 170.85 57.6 170.8 57.6 170.75 57.6 170.7 57.6 170.65 57.6 170.65 57.6 170.6 L57.6 169.9 Q57.6 169.85 57.6 169.8 57.6 169.75 57.6 169.7 57.6 169.65 57.6 169.65 57.6 169.6 57.6 169.55 57.6 169.5 57.6 169.45 57.55 169.4 57.55 169.35 57.55 169.3 57.55 169.25 57.55 169.25 57.55 169.2 L57.55 167.55 Q57.55 167.5 57.55 167.45 57.55 167.4 57.55 167.35 57.5 167.3 57.5 167.25 57.5 167.2 57.5 167.15 57.5 167.05 57.5 167.0 57.5 166.95 57.5 166.9 57.5 166.85 57.5 166.8 57.5 166.75 57.5 166.7 57.5 166.65 57.5 166.6 57.5 166.5 57.5 166.45 57.5 166.4 57.5 166.35 57.5 166.3 57.5 166.25 57.5 166.2 57.5 166.1 57.45 166.05 57.45 166.0 57.45 165.95 57.45 165.9 57.45 165.85 57.45 165.8 57.4 165.15 57.4 164.7 57.35 163.85 57.3 163.5 57.25 163.1 57.2 162.15 57.2 162.05 57.2 161.95 57.2 161.9 57.15 161.8 57.15 161.7 57.15 161.6 57.15 161.55 57.15 161.45 57.1 161.35 57.1 161.25 57.1 161.15 57.1 161.1 57.1 161.0 57.05 160.9 57.05 160.8 57.05 160.75 57.05 160.65 57.05 160.55 57.05 160.45 57.0 160.35 57.0 160.25 57.0 160.15 57.0 160.05 57.0 159.95 56.95 159.85 56.95 159.75 56.95 159.65 56.95 159.55 56.95 159.45 56.9 159.35 56.9 159.3 56.9 159.2 56.9 159.1 56.85 159.0 56.85 158.9 56.85 158.8 56.8 158.7 56.8 158.6 56.75 158.5 56.75 158.4 56.75 158.3 56.75 158.2 56.7 158.1 56.7 158.0 56.7 157.9 56.65 157.8 56.65 157.7 56.65 157.6 56.55 157.0 56.35 155.9 56.15 154.95 55.95 154.1 55.8 153.65 55.65 153.0 55.55 152.6 55.35 151.8 55.35 151.7 55.3 151.65 55.3 151.55 55.25 151.5 55.25 151.4 55.25 151.35 55.2 151.25 55.2 151.2 55.15 151.1 55.15 151.0 55.1 150.95 55.1 150.85 55.05 150.8 55.05 150.7 55.0 150.6 55.0 150.55 54.75 149.65 54.6 149.25 54.35 148.5 54.1 147.9 53.85 147.1 53.6 146.45 53.55 146.35 53.5 146.25 53.5 146.15 53.45 146.05 53.4 146.0 53.35 145.9 53.35 145.8 53.3 145.7 53.25 145.6 53.2 145.5 53.2 145.45 53.15 145.35 53.1 145.25 53.05 145.15 53.05 145.05 53.0 145.0 52.95 144.9 52.9 144.8 52.9 144.7 52.85 144.6 52.8 144.5 52.75 144.4 52.7 144.3 52.7 144.2 52.65 144.1 52.6 144.0 52.55 143.9 52.5 143.8 52.45 143.7 52.45 143.6 52.4 143.55 52.35 143.45 52.6 143.15 53.35 142.35 54.1 141.55 55.55 140.15 56.35 139.35 57.45 138.4 58.1 137.85 59.05 137.05 59.1 137.0 59.5 136.7 59.95 136.25 60.4 135.9 61.05 135.35 61.55 135.0 61.9 134.65 62.4 134.15 62.85 133.6 63.1 133.3 63.15 133.25 63.15 133.2 63.2 133.1 63.25 133.05 63.3 133.0 63.3 132.95 63.35 132.9 63.35 132.85 63.4 132.75 63.45 132.7 63.45 132.65 63.5 132.6 63.5 132.5 63.55 132.45 63.55 132.4 63.6 132.35 63.75 131.85 63.85 131.6 63.85 131.55 63.85 131.5 63.9 131.4 63.9 131.35 63.9 131.3 63.9 131.25 63.9 131.2 63.9 131.15 63.95 131.1 63.95 131.0 63.95 130.95 63.95 130.9 63.95 130.85 63.95 130.8 63.95 130.75 63.95 130.7 63.95 130.65 63.95 130.6 63.95 130.5 63.95 130.45 63.95 130.4 64.0 130.35 64.0 130.3 64.0 130.25 64.0 130.15 64.0 130.1 64.0 130.05 64.0 130.0 64.0 129.9 64.0 129.85 64.0 129.8 64.0 129.75 64.0 129.7 64.0 129.6 64.0 129.55 63.95 129.45 63.95 129.4 63.95 129.3 63.95 129.25 63.95 129.2 63.9 129.1 63.9 129.05 63.9 128.95 63.9 128.9 63.9 128.8 63.85 128.75 63.85 128.65 63.85 128.6 63.7 128.0 63.5 127.3 63.45 127.2 63.45 127.1 63.4 127.05 63.4 126.95 63.35 126.85 63.35 126.75 63.3 126.7 63.25 126.6 63.2 126.5 63.2 126.4 63.15 126.3 63.1 126.25 63.05 126.15 63.05 126.05 63.0 125.95 62.95 125.9 62.9 125.8 62.85 125.7 62.8 125.6 62.75 125.5 62.7 125.4 62.65 125.3 62.6 125.2 62.55 125.1 62.5 125.0 62.45 124.9 62.4 124.8 62.35 124.7 62.3 124.6 62.25 124.5 62.2 124.4 62.15 124.3 62.1 124.2 62.0 124.05 61.95 123.95 61.9 123.85 61.85 123.75 61.75 123.6 61.7 123.5 61.6 123.4 61.55 123.25 61.5 123.15 61.4 123.05 61.35 122.95 61.25 122.8 61.2 122.7 61.1 122.6 61.05 122.5 61.5 122.4 61.7 122.35 61.9 122.25 62.3 122.15 62.4 122.1 62.6 122.05 62.8 121.95 62.85 121.95 62.9 121.95 62.9 121.9 62.95 121.9 63.0 121.9 63.05 121.85 63.05 121.85 63.1 121.85 63.15 121.85 63.15 121.8 63.2 121.8 63.25 121.8 63.25 121.75 63.3 121.75 63.35 121.7 63.35 121.7 63.4 121.7 63.75 121.55 63.9 121.45 64.2 121.25 64.3 121.2 64.35 121.2 64.35 121.15 64.4 121.15 64.4 121.15 64.45 121.1 64.5 121.1 64.5 121.1 64.55 121.1 64.55 121.05 64.6 121.05 64.6 121.05 64.65 121.0 64.65 121.0 64.7 120.95 64.7 120.95 64.75 120.95 64.8 120.9 65.1 120.7 65.2 120.6 65.35 120.5 65.45 120.4 65.55 120.35 65.65 120.25 65.8 120.15 65.9 120.05 66.0 119.95 66.1 119.85 66.2 119.75 66.3 119.65 66.4 119.5 66.5 119.4 66.6 119.3 66.7 119.2 66.8 119.1 66.9 119.0 67.0 118.85 67.1 118.75 67.2 118.65 67.3 118.5 67.35 118.4 67.45 118.25 67.55 118.15 67.65 118.0 67.7 117.9 67.8 117.75 67.9 117.6 67.95 117.5 68.05 117.35 68.1 117.2 68.2 117.1 68.25 116.95 68.35 116.85 68.4 116.7 68.45 116.55 68.55 116.4 68.6 116.25 68.65 116.15 68.7 116.0 68.8 115.85 68.85 115.7 68.9 115.55 68.95 115.4 69.0 115.25 69.1 115.1 69.15 114.95 69.2 114.8 69.25 114.65 69.3 114.5 69.35 114.3 69.4 114.15 69.45 114.0 69.5 113.85 69.5 113.7 69.55 113.5 69.6 113.35 69.65 113.2 69.65 113.0 69.7 112.85 69.75 112.7 69.8 112.5 69.8 112.35 69.85 112.2 69.9 112.0 69.9 111.85 69.95 111.65 69.95 111.5 70.0 111.3 70.0 111.15 70.05 110.95 70.05 110.75 70.05 110.6 70.1 110.4 70.1 110.2 70.1 110.05 70.1 109.85 70.15 109.65 70.15 109.45 70.15 109.3 70.15 109.1 70.15 108.95 70.2 108.75 70.2 108.55 70.2 108.35 70.2 108.2 70.2 108.0 70.2 107.8 70.2 107.6 70.2 107.4 70.2 107.2 70.2 107.05 70.2 106.85 70.15 106.65 70.15 106.45 70.15 106.25 70.15 106.05 70.1 105.85 70.1 105.65 70.1 105.45 70.05 105.25 70.05 105.05 70.0 104.85 70.0 104.65 69.95 104.45 69.95 104.25 69.9 104.05 69.9 103.85 69.85 103.65 69.8 103.45 69.8 103.25 69.75 103.05 L69.75 103.05" fill="#b618ea" fill-rule="evenodd" stroke="none"/>
    <path d="M-15.0 147.95 Q-14.95 148.05 -14.85 148.2 -14.95 148.05 -15.0 147.95 L-15.0 147.95" fill="#b618ea" fill-rule="evenodd" stroke="none"/>
    <path d="M-10.85 124.0 Q-10.9 123.9 -10.9 123.75 -10.95 123.65 -10.95 123.55 -11.0 123.4 -11.05 123.3 -11.05 123.2 -11.1 123.1 -11.15 122.95 -11.2 122.85 -11.2 122.75 -11.25 122.6 -11.3 122.5 -11.35 122.35 -11.4 122.25 -11.45 122.15 -11.5 122.05 -11.55 121.95 -11.6 121.8 -11.65 121.7 -11.7 121.6 -11.75 121.5 -11.8 121.4 -11.85 121.3 -11.9 121.15 -11.95 121.05 -12.0 120.95 -12.05 120.85 -12.1 120.7 -12.2 120.6 -12.25 120.5 -12.3 120.4 -12.35 120.3 -12.4 120.2 -12.45 120.1 -12.5 120.0 -12.55 119.9 -12.6 119.8 -12.7 119.7 -12.75 119.6 -12.8 119.5 -12.85 119.4 -12.95 119.3 -13.0 119.2 -13.05 119.1 -13.1 119.0 -13.2 118.9 -13.25 118.8 -13.7 118.15 -14.3 117.35 -14.6 117.0 -15.3 116.15 -15.35 116.1 -15.4 116.0 -15.45 115.95 -15.55 115.9 -15.6 115.85 -15.65 115.75 -15.7 115.7 -15.75 115.65 -15.8 115.6 -15.85 115.55 -15.9 115.45 -16.0 115.4 -16.05 115.35 -16.1 115.3 -16.15 115.25 -16.2 115.2 -16.1 114.85 -16.05 114.65 -16.05 114.6 -15.95 114.4 -15.9 114.2 -15.85 114.1 -15.8 114.0 -15.75 113.8 -15.7 113.55 -15.65 113.45 -15.65 113.4 -15.65 113.35 -15.6 113.35 -15.6 113.3 -15.6 113.25 -15.6 113.2 -15.6 113.15 -15.55 113.15 -15.55 113.1 -15.55 113.05 -15.55 113.0 -15.55 112.95 -15.55 112.9 -15.5 112.85 -15.5 112.85 -15.5 112.8 -15.45 112.7 -15.4 112.45 -15.35 112.15 -15.3 112.05 -15.3 112.0 -15.25 111.95 -15.25 111.9 -15.25 111.85 -15.2 111.8 -15.2 111.75 -15.2 111.7 -15.15 111.7 -15.15 111.65 -15.15 111.6 -15.1 111.55 -15.1 111.5 -15.1 111.45 -15.1 111.4 -15.05 111.35 -15.05 111.3 -15.0 111.0 -14.85 110.5 -14.8 110.35 -14.75 110.1 -14.7 109.75 -14.65 109.65 -14.4 108.55 -14.25 107.95 -14.1 107.25 -13.9 106.4 -13.9 106.3 -13.85 106.2 -13.85 106.1 -13.85 106.0 -13.8 105.95 -13.8 105.85 -13.75 105.75 -13.75 105.65 -13.75 105.6 -13.7 105.5 -13.7 105.4 -13.7 105.3 -13.65 105.25 -13.65 105.15 -13.6 105.05 -13.6 105.0 -13.4 104.05 -13.35 103.75 -13.25 103.1 -13.2 102.6 -13.15 102.2 -13.1 101.55 -13.1 101.5 -13.1 101.4 -13.1 101.35 -13.1 101.3 -13.1 101.25 -13.1 101.2 -13.1 101.1 -13.1 101.05 -13.1 101.0 -13.1 100.95 -13.1 100.9 -13.1 100.85 -13.1 100.8 -13.1 100.75 -13.1 100.7 -13.1 100.65 -13.1 100.6 -13.1 100.5 -13.1 100.45 -13.1 100.4 -13.1 100.35 -13.1 100.3 -13.1 100.2 -13.1 100.15 -13.1 100.1 -13.1 100.05 -13.15 100.0 -13.15 99.95 -13.15 99.9 -13.15 99.85 -13.15 99.8 -13.15 99.75 -13.2 99.6 -13.2 99.45 -13.25 99.3 -13.25 99.15 -13.3 99.05 -13.35 98.9 -13.4 98.75 -13.45 98.6 -13.45 98.45 -13.5 98.3 -13.55 98.2 -13.6 98.05 -13.7 97.9 -13.75 97.75 -13.8 97.6 -13.85 97.5 -13.9 97.35 -13.95 97.25 -14.05 97.1 -14.1 97.0 -14.15 96.85 -14.25 96.75 -14.3 96.6 -14.4 96.5 -14.45 96.4 -14.55 96.25 -14.65 96.15 -14.75 96.0 -14.8 95.9 -14.9 95.75 -15.0 95.65 -15.1 95.55 -15.2 95.45 -15.3 95.35 -15.35 95.2 -15.45 95.1 -15.55 95.0 -15.65 94.9 -15.75 94.8 -15.85 94.7 -15.95 94.6 -16.1 94.45 -16.2 94.35 -16.3 94.25 -16.4 94.15 -16.5 94.05 -16.65 93.95 -16.75 93.85 -16.85 93.75 -16.95 93.65 -17.05 93.55 -17.15 93.45 -17.3 93.4 -17.4 93.3 -17.5 93.2 -17.6 93.1 -17.75 93.0 -17.85 92.9 -17.95 92.85 -18.1 92.75 -18.2 92.65 -18.35 92.55 -18.45 92.45 -18.6 92.4 -18.7 92.3 -18.85 92.25 -18.95 92.15 -19.05 92.05 -19.2 92.0 -19.3 91.9 -19.4 91.85 -19.55 91.75 -19.65 91.65 -19.8 91.6 -19.9 91.5 -20.05 91.45 -20.15 91.35 -20.3 91.3 -20.4 91.2 -20.55 91.15 -20.65 91.1 -20.75 91.0 -20.9 90.95 -21.0 90.9 -21.1 90.85 -21.2 90.75 -21.35 90.7 -21.45 90.65 -21.55 90.6 -21.7 90.55 -21.8 90.45 -21.9 90.4 -22.05 90.35 -22.15 90.3 -22.3 90.25 -22.4 90.2 -23.05 89.9 -23.95 89.5 -24.0 89.45 -24.05 89.45 -24.15 89.4 -24.2 89.4 -24.25 89.35 -24.3 89.35 -24.4 89.3 -24.45 89.3 -24.5 89.25 -24.55 89.25 -24.65 89.2 -24.7 89.2 -24.75 89.15 -24.8 89.15 -24.9 89.1 -24.95 89.1 -25.3 89.1 -25.65 89.1 -26.05 89.15 -26.4 89.2 -26.8 89.2 -27.15 89.3 -27.55 89.35 -27.9 89.45 -28.3 89.6 -28.65 89.75 -29.0 89.9 -29.35 90.1 -29.7 90.3 -30.0 90.55 -30.3 90.8 -30.55 91.1 -31.0 91.65 -31.25 92.35 -31.5 93.0 -31.6 93.75 -31.7 94.4 -31.7 95.2 -31.65 95.8 -31.6 96.6 -31.6 96.5 -31.45 97.95 -31.4 98.65 -31.4 99.05 -31.4 99.55 -31.45 99.85 -31.6 100.2 -31.8 100.3 -32.0 100.4 -32.25 100.3 -32.45 100.2 -32.75 100.0 -32.95 99.8 -33.3 99.4 -34.05 98.65 -33.95 98.7 -34.4 98.25 -34.75 97.9 -35.25 97.5 -35.75 97.15 -36.3 96.75 -36.9 96.5 -37.55 96.2 -38.25 96.05 -38.75 95.95 -39.35 95.9 -39.85 95.85 -40.4 95.85 -40.9 95.9 -41.45 95.95 -41.95 96.0 -42.45 96.1 -42.9 96.15 -43.3 96.25 -43.7 96.35 -44.05 96.45 -44.3 96.5 -44.55 96.6 -44.75 96.65 -44.85 96.7 -45.25 96.85 -46.2 97.25 -46.25 97.3 -46.4 97.35 -46.45 97.35 -46.5 97.4 -46.5 97.4 -46.5 97.4 -46.8 97.5 -47.1 97.7 -47.4 97.9 -47.7 98.15 -47.95 98.35 -48.25 98.6 -48.5 98.85 -48.8 99.1 -49.0 99.35 -49.25 99.6 -49.4 99.75 -49.6 99.95 -49.7 100.1 -49.8 100.25 -49.85 100.3 -49.9 100.35 -50.05 100.55 -50.2 100.7 -50.4 100.85 -50.65 101.0 -50.9 101.2 -51.2 101.3 -51.5 101.45 -51.9 101.6 -52.3 101.7 -52.75 101.8 -53.2 101.85 -53.75 101.9 -54.35 101.95 -55.0 101.95 -55.7 101.95 -56.45 101.9 -56.4 101.9 -56.35 101.95 -56.35 101.95 -56.3 101.95 -56.25 101.95 -56.2 102.0 -56.05 102.05 -55.85 102.1 -55.45 102.2 -55.45 102.2 -55.4 102.2 -55.35 102.2 -55.3 102.2 -55.3 102.2 -55.25 102.25 -55.2 102.25 -55.15 102.25 -55.1 102.25 -55.05 102.25 -55.0 102.25 -54.95 102.3 -54.95 102.3 -54.9 102.3 -54.85 102.3 -54.8 102.3 -54.75 102.35 -54.65 102.35 -54.1 102.45 -53.9 102.45 -53.5 102.55 -53.65 102.85 -53.9 103.35 -53.95 103.4 -53.95 103.45 -54.0 103.55 -54.0 103.6 -54.05 103.65 -54.1 103.7 -54.1 103.75 -54.15 103.85 -54.15 103.9 -54.2 103.95 -54.2 104.0 -54.2 104.05 -54.25 104.1 -54.25 104.15 -54.3 104.25 -54.3 104.3 -54.65 105.25 -54.7 105.35 -54.75 105.55 -54.85 105.95 -54.95 106.3 -55.0 106.5 -55.0 106.55 -55.05 106.65 -55.05 106.7 -55.05 106.8 -55.1 106.85 -55.1 106.95 -55.15 107.0 -55.15 107.1 -55.15 107.15 -55.15 107.25 -55.2 107.3 -55.2 107.4 -55.2 107.45 -55.25 107.55 -55.25 107.6 -55.25 107.7 -55.3 108.2 -55.35 109.0 -55.35 109.1 -55.35 109.15 -55.35 109.25 -55.35 109.35 -55.35 109.4 -55.35 109.5 -55.35 109.6 -55.35 109.7 -55.35 109.75 -55.35 109.85 -55.35 109.95 -55.35 110.0 -55.3 110.1 -55.3 110.15 -55.3 110.25 -55.3 110.35 -55.3 110.45 -55.3 110.5 -55.3 110.6 -55.25 110.7 -55.25 110.8 -55.25 110.85 -55.25 110.95 -55.25 111.05 -55.2 111.15 -55.2 111.2 -55.2 111.3 -55.15 111.4 -55.15 111.45 -55.15 111.55 -55.1 111.65 -55.1 111.75 -55.1 111.85 -55.05 112.0 -55.0 112.1 -55.0 112.25 -54.95 112.35 -54.95 112.5 -54.9 112.6 -54.85 112.75 -54.8 112.85 -54.8 112.95 -54.75 113.1 -54.7 113.2 -54.65 113.35 -54.6 113.45 -54.55 113.55 -54.5 113.7 -54.45 113.8 -54.4 113.9 -54.35 114.0 -54.3 114.1 -54.25 114.2 -54.2 114.35 -54.15 114.45 -54.1 114.55 -54.05 114.65 -54.0 114.75 -53.95 114.85 -53.9 114.95 -53.85 115.05 -53.8 115.15 -53.7 115.3 -53.65 115.4 -53.6 115.5 -53.55 115.6 -53.45 115.7 -53.4 115.8 -53.35 115.9 -53.25 116.0 -53.2 116.05 -53.15 116.15 -53.05 116.25 -53.0 116.35 -52.9 116.45 -52.85 116.55 -52.8 116.6 -52.7 116.7 -52.65 116.8 -52.55 116.9 -52.5 117.0 -52.4 117.05 -52.35 117.15 -52.25 117.25 -52.2 117.3 -52.1 117.4 -52.05 117.5 -51.95 117.6 -51.9 117.65 -51.8 117.75 -51.75 117.85 -51.65 117.9 -51.55 118.0 -51.5 118.05 -51.4 118.15 -51.3 118.25 -50.6 118.9 -50.0 119.4 -49.0 120.15 -48.7 120.35 -48.65 120.4 -48.55 120.45 -48.5 120.5 -48.4 120.55 -48.35 120.6 -48.3 120.65 -48.2 120.7 -48.15 120.75 -48.05 120.8 -48.0 120.85 -47.9 120.9 -47.8 120.95 -47.75 121.0 -47.65 121.05 -47.6 121.1 -47.5 121.15 -47.2 121.35 -46.4 121.85 -46.0 122.05 -45.45 122.4 -45.1 122.55 -44.6 122.85 -44.35 122.95 -43.7 123.25 -43.25 123.45 -42.9 123.6 -42.65 123.7 -42.1 123.9 -41.7 124.05 -41.4 124.15 L-40.7 124.35 -40.1 124.55 Q-40.15 124.6 -40.15 124.6 -40.2 124.65 -40.2 124.7 -40.2 124.75 -40.25 124.75 -40.25 124.8 -40.3 124.85 -40.3 124.9 -40.35 124.9 -40.35 124.95 -40.4 125.0 -40.4 125.0 -40.4 125.05 -40.45 125.1 -40.45 125.15 -40.5 125.2 -40.5 125.25 -40.55 125.3 -40.55 125.3 -40.6 125.35 -40.65 125.4 -40.65 125.45 -40.7 125.5 -40.7 125.55 -40.75 125.6 -40.8 125.65 -40.8 125.7 -40.85 125.75 -40.85 125.8 -40.9 125.85 -40.9 125.9 L-41.3 126.8 Q-41.65 127.75 -41.7 127.85 -41.7 127.9 -41.75 128.0 -41.75 128.05 -41.75 128.1 -41.8 128.2 -41.8 128.25 -41.85 128.3 -41.85 128.4 -41.85 128.45 -41.85 128.55 -41.9 128.6 -41.9 128.65 -41.9 128.75 -41.95 128.8 -41.95 128.85 -41.95 128.95 -41.95 129.05 -42.0 129.1 -42.0 129.2 -42.0 129.25 -42.05 129.35 -42.05 129.4 -42.05 129.5 -42.1 129.6 -42.1 129.65 -42.1 129.75 -42.1 129.8 -42.1 129.9 -42.15 129.95 -42.15 130.05 -42.15 130.1 -42.15 130.2 -42.15 130.3 -42.15 130.35 -42.15 130.45 -42.15 130.5 -42.15 130.6 -42.15 130.65 -42.15 130.75 -42.15 130.85 -42.15 130.9 -42.15 131.0 -42.15 131.05 -42.15 131.15 -42.1 131.2 -42.1 131.3 -42.1 131.35 -42.1 131.45 -42.1 131.55 -42.1 131.6 -42.1 131.7 -42.05 131.8 -42.05 131.85 -42.05 131.95 -42.05 132.05 -42.05 132.15 -42.0 132.2 -42.0 132.3 -42.0 132.4 -41.95 132.45 -41.95 132.55 -41.95 132.6 -41.9 132.7 -41.9 132.8 -41.85 132.9 -41.85 133.0 -41.8 133.1 -41.75 133.2 -41.75 133.3 -41.7 133.4 -41.65 133.45 -41.65 133.55 -41.6 133.65 -41.55 133.75 -41.5 133.85 -41.45 133.95 -41.45 134.0 -41.4 134.1 -41.35 134.2 -41.3 134.3 -41.25 134.4 -41.2 134.45 -41.2 134.55 -41.15 134.65 -41.1 134.7 -41.05 134.8 -41.0 134.9 -40.95 134.95 -40.9 135.05 -40.85 135.1 -40.8 135.2 -40.75 135.3 -40.7 135.35 -40.65 135.45 -40.55 135.5 -40.5 135.6 -40.45 135.65 -40.4 135.75 -40.35 135.8 -40.25 135.9 -40.2 135.95 -40.15 136.05 -40.1 136.1 -40.05 136.2 -39.95 136.25 -39.9 136.3 -39.85 136.4 -39.75 136.45 -39.7 136.55 -39.65 136.6 -39.55 136.65 -39.5 136.75 -39.45 136.8 -39.35 136.85 -39.3 136.95 -39.2 137.0 -39.15 137.05 -39.1 137.1 -39.0 137.2 -38.95 137.25 -38.85 137.3 -38.8 137.35 -38.7 137.45 -38.6 137.5 -38.55 137.55 -38.45 137.6 -38.4 137.7 -38.3 137.75 -38.2 137.8 -38.15 137.85 -38.05 137.9 -38.0 137.95 -37.9 138.0 -37.85 138.1 -37.75 138.15 -37.7 138.2 -37.6 138.25 -37.5 138.3 -37.45 138.35 -37.35 138.4 -37.25 138.45 -37.2 138.5 -37.1 138.6 -37.0 138.65 -36.75 138.8 -35.7 139.4 -35.2 139.65 -34.35 140.1 -34.0 140.25 -33.05 140.7 -32.65 140.85 -31.95 141.2 -31.8 141.25 -31.45 141.4 -31.1 141.5 -30.9 141.6 -30.45 141.7 -29.85 141.95 -29.8 141.95 -29.75 142.0 -29.7 142.0 -29.6 142.0 -29.55 142.05 -29.5 142.05 -29.45 142.05 -29.4 142.1 -29.35 142.1 -29.25 142.1 -29.2 142.1 -29.15 142.15 -29.1 142.15 -29.05 142.15 -28.95 142.15 -28.9 142.2 -28.4 142.35 -28.0 142.45 -27.95 142.45 -27.9 142.45 -27.85 142.5 -27.8 142.5 -27.75 142.5 -27.7 142.5 -27.65 142.5 -27.6 142.55 -27.55 142.55 -27.5 142.55 -27.45 142.55 -27.4 142.55 -27.3 142.55 -27.25 142.55 -27.2 142.6 -27.15 142.6 -26.65 142.7 -26.4 142.75 -26.2 142.75 -25.7 142.85 -25.75 142.95 -25.75 143.05 -25.8 143.1 -25.8 143.2 -25.8 143.3 -25.85 143.4 -25.85 143.5 -25.9 143.6 -25.9 143.65 -25.95 143.75 -25.95 143.85 -26.0 143.95 -26.0 144.0 -26.0 144.1 -26.05 144.2 -26.05 144.3 -26.2 144.9 -26.35 145.85 -26.5 146.5 -26.65 147.5 -26.75 148.45 -26.9 149.25 -27.0 149.9 -27.1 151.1 -27.1 151.2 -27.15 151.35 -27.15 151.45 -27.15 151.55 -27.15 151.7 -27.15 151.8 -27.2 151.9 -27.2 152.05 -27.2 152.15 -27.2 152.3 -27.2 152.4 -27.25 152.5 -27.25 152.65 -27.25 152.75 -27.25 152.85 -27.25 153.0 -27.3 153.7 -27.35 155.05 -27.35 155.2 -27.35 155.3 -27.35 155.45 -27.35 155.55 -27.4 155.7 -27.4 155.85 -27.4 155.95 -27.4 156.1 -27.4 156.2 -27.4 156.35 -27.4 156.5 -27.4 156.6 -27.4 156.75 -27.4 156.85 -27.4 157.0 -27.4 157.15 -27.4 157.3 -27.4 157.4 -27.4 157.55 -27.4 157.7 -27.4 157.85 -27.4 157.95 -27.4 158.1 -27.4 158.25 -27.4 158.35 -27.4 158.5 -27.4 158.65 -27.4 158.8 -27.35 158.9 -27.35 159.05 -27.35 159.2 -27.35 159.35 -27.35 159.6 -27.25 161.4 -27.15 162.2 -27.05 163.4 -26.95 164.2 -26.85 165.3 -26.85 165.4 -26.8 165.5 -26.8 165.6 -26.8 165.7 -26.75 165.85 -26.75 165.95 -26.75 166.05 -26.7 166.15 -26.7 166.25 -26.7 166.35 -26.65 166.5 -26.65 166.6 -26.65 166.7 -26.65 166.8 -26.6 166.9 -26.6 167.05 -26.6 167.15 -26.55 167.25 -26.55 167.35 -26.5 167.45 -26.5 167.55 -26.5 167.7 -26.45 167.8 -26.45 167.9 -26.4 168.0 -26.4 168.1 -26.4 168.2 -26.35 168.3 -26.35 168.4 -26.3 168.5 -26.3 168.65 -26.25 168.75 -26.15 169.3 -25.95 170.35 -25.8 171.0 -25.6 171.8 -23.5 172.1 -22.1 172.35 -21.2 169.5 -20.65 167.9 -19.2 170.6 -18.4 171.95 -15.85 171.5 -11.35 170.7 -11.4 170.6 -11.45 170.5 -11.5 170.4 -11.5 170.3 -11.55 170.2 -11.6 170.15 -11.65 170.05 -11.7 169.95 -11.75 169.85 -11.75 169.75 -11.8 169.65 -11.85 169.55 -11.9 169.45 -11.95 169.35 -11.95 169.3 -12.0 169.2 -12.25 168.4 -12.5 167.75 -12.75 166.8 -12.9 166.35 -13.0 165.95 -13.2 165.05 -13.25 164.8 -13.4 163.85 -13.4 163.75 -13.45 163.7 -13.45 163.6 -13.45 163.55 -13.45 163.45 -13.45 163.4 -13.5 163.3 -13.5 163.25 -13.5 163.2 -13.5 163.1 -13.5 163.05 -13.55 162.95 -13.55 162.9 -13.55 162.85 -13.55 162.75 -13.55 162.7 -13.55 162.65 -13.55 162.55 -13.55 162.5 -13.55 162.45 -13.6 162.4 -13.6 162.3 -13.6 162.25 -13.6 162.2 -13.6 162.15 -13.6 162.05 -13.6 162.0 -13.6 161.95 -13.6 161.85 -13.6 161.8 -13.6 161.75 -13.6 161.7 -13.6 161.65 -13.6 161.55 -13.6 161.5 -13.6 161.45 -13.65 161.4 -13.65 161.3 -13.65 161.25 -13.65 161.2 -13.65 161.15 -13.65 161.1 -13.65 161.0 -13.65 160.95 -13.65 160.9 -13.65 160.85 -13.65 160.8 -13.65 160.75 -13.65 160.65 -13.65 160.5 -13.65 160.4 -13.65 160.3 -13.7 160.2 -13.7 160.05 -13.7 159.95 -13.7 159.85 -13.7 159.75 -13.7 159.65 -13.7 159.5 -13.65 159.4 -13.65 159.3 -13.65 159.2 -13.65 159.1 -13.65 159.0 -13.65 158.9 -13.65 158.8 -13.65 158.7 -13.6 158.6 -13.6 158.5 -13.6 158.4 -13.6 158.3 -13.6 158.25 -13.6 158.15 -13.55 158.05 -13.55 157.95 -13.55 157.85 -13.55 157.75 -13.55 157.65 -13.5 157.55 -13.5 157.45 -13.45 157.0 -13.35 156.1 -13.2 155.2 -13.2 154.9 -13.1 154.2 -13.1 153.8 -13.1 153.7 -13.1 153.65 -13.1 153.55 -13.1 153.5 -13.1 153.4 -13.1 153.35 -13.1 153.25 -13.1 153.2 -13.1 153.15 -13.1 153.05 -13.1 153.0 -13.1 152.9 -13.1 152.85 -13.1 152.8 -13.1 152.7 -13.1 152.65 -13.1 152.6 -13.1 152.5 -13.1 152.45 -13.15 152.35 -13.15 152.3 -13.15 152.2 -13.15 152.15 -13.2 152.1 -13.2 152.0 -13.2 151.95 -13.2 151.85 -13.25 151.8 -13.25 151.7 -13.25 151.65 -13.3 151.55 -13.3 151.5 -13.3 151.4 -13.35 151.35 -13.35 151.25 -13.4 151.2 -13.4 151.1 -13.45 151.05 -13.45 150.95 -13.5 150.9 -13.5 150.8 -13.55 150.7 -13.6 150.65 -13.6 150.55 -13.65 150.5 -13.7 150.4 -13.7 150.3 -13.75 150.25 -13.75 150.2 -13.8 150.2 -13.8 150.15 -13.8 150.1 -13.8 150.1 -13.85 150.05 -13.85 150.0 -13.85 150.0 -13.9 149.95 -13.9 149.95 -13.9 149.9 -13.95 149.85 -13.95 149.85 -13.95 149.8 -14.0 149.75 -14.0 149.75 -14.0 149.7 -14.05 149.7 -14.05 149.65 -14.05 149.65 -14.05 149.6 -14.1 149.6 -14.1 149.55 -14.1 149.55 -14.15 149.5 -14.15 149.45 -14.15 149.45 -14.2 149.4 -14.2 149.4 -14.2 149.35 -14.25 149.3 -14.25 149.3 -14.35 149.1 -14.55 148.8 -15.2 147.65 -15.0 147.95 -15.0 147.9 -15.05 147.9 -15.05 147.85 -15.1 147.85 -15.1 147.8 -15.1 147.75 -15.15 147.75 -15.15 147.7 -15.15 147.7 -15.2 147.65 -15.2 147.65 -15.2 147.6 -15.2 147.55 -15.25 147.55 -15.25 147.5 -15.25 147.5 -15.3 147.45 -15.3 147.4 -15.35 147.35 -15.4 147.3 -15.4 147.25 -15.45 147.2 -15.45 147.15 -15.5 147.1 -15.55 147.0 -15.55 146.95 -15.6 146.9 -15.65 146.85 -15.65 146.8 -15.7 146.75 -15.7 146.7 -15.75 146.65 -15.8 146.6 -15.8 146.5 -15.85 146.45 -15.9 146.4 -15.9 146.3 -15.95 146.25 -16.0 146.2 -16.0 146.15 -16.05 146.05 -16.1 146.0 -16.1 145.95 -16.15 145.85 -16.2 145.8 -16.25 145.7 -16.25 145.65 -16.3 145.6 -16.3 145.55 -16.95 144.3 -17.0 144.25 -17.0 144.2 -17.0 144.15 -17.05 144.1 -17.05 144.05 -17.1 144.0 -17.1 143.95 -17.15 143.9 -17.15 143.85 -17.15 143.85 -17.2 143.8 -17.2 143.75 -17.2 143.7 -17.25 143.65 -17.25 143.6 -17.25 143.6 -17.3 143.55 -17.3 143.5 -17.3 143.45 -17.35 143.4 -17.35 143.4 -17.4 143.35 -17.4 143.3 -17.45 143.25 -17.45 143.2 -17.45 143.15 -17.5 143.15 -17.5 143.1 -17.5 143.05 -17.55 143.0 -17.55 142.95 -17.55 142.95 -17.7 142.65 -17.8 142.4 -17.8 142.35 -17.85 142.35 -17.85 142.3 -17.85 142.25 -17.85 142.25 -17.85 142.2 -17.9 142.15 -17.9 142.15 -17.9 142.1 -17.9 142.1 -17.9 142.05 -17.95 142.0 -17.95 142.0 -17.95 141.95 -17.95 141.9 -17.95 141.9 -17.95 141.85 -18.0 141.85 -18.0 141.8 -18.0 141.75 -18.0 141.75 -18.0 141.7 -18.05 141.65 -18.05 141.65 -18.05 141.6 -18.05 141.6 -18.05 141.55 -18.1 141.5 -18.1 141.5 -18.1 141.45 -18.1 141.4 -18.1 141.4 -18.1 141.35 -18.1 141.3 -18.1 141.3 -18.15 141.25 -18.15 141.2 -18.15 141.2 -18.15 141.15 -18.15 141.1 -18.15 141.1 -18.15 141.05 -18.15 141.0 -18.15 141.0 -18.15 140.95 -18.15 140.95 -18.15 140.9 -18.15 140.9 L-18.15 140.5 Q-18.15 140.45 -18.15 140.4 -18.15 140.35 -18.15 140.3 -18.15 140.3 -18.15 140.25 -18.15 140.2 -18.1 140.15 -18.1 140.1 -18.1 140.05 -18.1 140.0 -18.1 139.95 -18.1 139.95 -18.05 139.9 -18.05 139.85 -18.05 139.8 -18.05 139.8 -18.05 139.75 -18.05 139.7 -18.0 139.65 -18.0 139.65 -18.0 139.6 -18.0 139.55 -18.0 139.5 -17.95 139.45 -17.95 139.45 -17.95 139.4 -17.95 139.35 -17.95 139.35 -17.9 139.3 -17.9 139.25 -17.9 139.2 -17.9 139.2 -17.9 139.15 -17.85 139.1 -17.85 139.1 -17.85 139.05 -17.8 139.0 -17.8 139.0 -17.8 138.95 -17.75 138.9 -17.75 138.9 -17.75 138.85 -17.7 138.85 -17.7 138.8 -17.7 138.75 -17.7 138.75 -17.65 138.7 -17.65 138.65 -17.65 138.65 -17.6 138.6 -17.6 138.6 -17.55 138.55 -17.55 138.5 -17.55 138.5 -17.5 138.45 -17.5 138.4 -17.45 138.4 -17.25 138.05 -17.15 137.95 -17.0 137.8 -16.75 137.55 -16.75 137.5 -16.7 137.5 -16.7 137.45 -16.65 137.45 -16.65 137.4 -16.65 137.4 -16.6 137.35 -16.6 137.35 -16.55 137.3 -16.55 137.3 -16.55 137.25 -16.5 137.25 -16.5 137.2 -16.45 137.2 -16.45 137.15 -16.4 137.15 -16.35 137.05 -16.0 136.8 -15.85 136.6 -15.6 136.4 -15.55 136.35 -15.55 136.35 -15.5 136.3 -15.5 136.3 -15.5 136.25 -15.45 136.25 -15.3 136.1 -15.0 135.8 -14.95 135.75 -14.95 135.7 -14.9 135.65 -14.85 135.6 -14.8 135.55 -14.8 135.5 -14.75 135.45 -14.7 135.4 -14.65 135.35 -14.65 135.3 -14.6 135.25 -14.55 135.2 -14.5 135.15 -14.5 135.15 -14.45 135.1 -14.4 135.05 -14.35 135.0 -14.3 134.9 -14.25 134.85 -14.2 134.8 -14.15 134.7 -14.1 134.65 -14.05 134.6 -14.0 134.55 -13.95 134.45 -13.9 134.4 -13.9 134.35 -13.85 134.25 -13.8 134.2 -13.75 134.1 -13.7 134.05 -13.65 134.0 -13.05 133.1 -12.85 132.75 -12.4 131.95 -12.1 131.3 -11.7 130.35 -11.4 129.65 -11.35 129.55 -11.3 129.4 -11.3 129.3 -11.25 129.15 -11.2 129.05 -11.15 128.95 -11.15 128.8 -11.1 128.7 -11.05 128.6 -11.05 128.45 -11.0 128.35 -10.95 128.25 -10.95 128.15 -10.9 128.0 -10.9 127.9 -10.85 127.8 -10.8 127.7 -10.8 127.55 -10.75 127.45 -10.75 127.35 -10.75 127.2 -10.7 127.1 -10.7 127.0 -10.7 126.85 -10.65 126.75 -10.65 126.6 -10.65 126.5 -10.65 126.4 -10.65 126.25 -10.65 126.15 -10.65 126.0 -10.65 125.9 -10.65 125.8 -10.65 125.65 -10.65 125.55 -10.65 125.4 -10.65 125.3 -10.7 125.2 -10.7 125.05 -10.7 124.95 -10.7 124.8 -10.75 124.7 -10.75 124.6 -10.75 124.45 -10.8 124.35 -10.8 124.2 -10.85 124.1 -10.85 124.0 L-10.85 124.0" fill="#b618ea" fill-rule="evenodd" stroke="none"/>
  </g>
</svg>
