<?xml version="1.0" encoding="UTF-8" standalone="no"?>
<svg xmlns:xlink="http://www.w3.org/1999/xlink" height="131.85px" width="200.05px" xmlns="http://www.w3.org/2000/svg">
  <g transform="matrix(1.0, 0.0, 0.0, 1.0, 100.05, 65.9)">
    <path d="M81.5 18.4 Q82.05 18.1 82.55 17.8 83.15 17.45 83.75 17.05 84.35 16.65 85.0 16.2 85.65 15.7 86.25 15.2 86.95 14.65 87.55 14.1 88.25 13.45 88.85 12.8 89.5 12.15 90.1 11.4 90.7 10.65 91.25 9.85 91.45 9.55 91.65 9.3 91.8 9.0 92.0 8.75 92.15 8.45 92.3 8.2 92.45 8.0 92.55 7.75 92.7 7.55 92.8 7.35 92.9 7.15 92.95 7.0 93.05 6.85 93.1 6.7 93.15 6.65 93.2 6.55 93.5 5.95 93.75 5.35 93.95 4.8 94.2 4.25 94.4 3.7 94.55 3.15 94.7 2.65 94.85 2.1 95.0 1.65 95.1 1.15 95.2 0.7 95.3 0.25 95.35 -0.15 95.45 -0.55 95.5 -0.9 95.55 -1.25 95.35 -1.2 95.1 -1.2 94.85 -1.15 94.65 -1.15 94.35 -1.1 94.1 -1.1 93.85 -1.1 93.55 -1.05 93.3 -1.05 93.0 -1.05 92.7 -1.05 92.4 -1.05 92.05 -1.05 91.75 -1.05 91.4 -1.05 91.1 -1.1 90.55 -1.15 89.95 -1.2 89.4 -1.25 88.9 -1.35 88.4 -1.45 87.9 -1.55 87.45 -1.65 87.0 -1.75 86.6 -1.9 86.2 -2.0 85.85 -2.1 85.45 -2.25 85.15 -2.35 84.85 -2.45 84.6 -2.55 84.35 -2.65 84.0 -2.8 83.65 -2.95 83.3 -3.15 82.95 -3.3 82.6 -3.45 82.3 -3.65 81.95 -3.8 81.65 -4.0 81.35 -4.2 81.1 -4.35 80.8 -4.55 80.55 -4.75 80.25 -4.9 80.0 -5.1 79.75 -5.25 79.55 -5.45 79.7 -5.55 79.9 -5.6 80.1 -5.7 80.35 -5.8 80.6 -5.9 80.9 -6.0 81.2 -6.1 81.5 -6.2 81.8 -6.3 82.15 -6.35 82.55 -6.45 82.9 -6.5 83.35 -6.55 83.75 -6.55 84.2 -6.55 84.6 -6.55 85.1 -6.55 85.6 -6.45 86.05 -6.4 86.5 -6.3 86.95 -6.2 87.35 -6.05 87.7 -5.9 88.1 -5.75 88.4 -5.65 88.75 -5.5 89.0 -5.35 89.3 -5.2 89.5 -5.05 89.75 -4.9 89.9 -4.8 90.05 -4.7 90.05 -4.85 90.0 -5.05 90.0 -5.2 89.95 -5.4 89.9 -5.6 89.85 -5.8 89.85 -6.0 89.75 -6.2 89.7 -6.45 89.65 -6.65 89.55 -6.9 89.5 -7.15 89.4 -7.4 89.3 -7.65 89.2 -7.9 89.05 -8.15 88.95 -8.35 88.85 -8.6 88.7 -8.8 88.6 -9.0 88.5 -9.2 88.4 -9.35 88.3 -9.55 88.15 -9.7 88.05 -9.85 87.95 -9.95 87.9 -10.1 87.8 -10.2 87.7 -10.3 87.65 -10.4 87.6 -10.4 87.5 -10.55 87.3 -10.8 87.1 -11.05 86.9 -11.35 86.65 -11.65 86.45 -12.0 86.2 -12.35 85.9 -12.7 85.65 -13.15 85.35 -13.6 85.1 -14.05 84.75 -14.55 84.45 -15.1 84.1 -15.7 83.8 -16.3 83.45 -16.95 83.05 -17.6 83.55 -18.05 84.05 -18.5 84.6 -19.05 85.15 -19.6 85.75 -20.2 86.35 -20.85 87.0 -21.6 87.55 -22.35 88.2 -23.2 88.8 -24.05 89.45 -25.0 90.0 -25.95 90.6 -27.0 91.15 -28.05 91.7 -29.2 92.15 -30.35 92.45 -31.1 92.7 -31.85 92.95 -32.6 93.15 -33.35 93.35 -34.05 93.55 -34.75 93.7 -35.4 93.8 -36.1 93.95 -36.7 94.05 -37.35 94.15 -37.95 94.2 -38.55 94.25 -39.15 94.3 -39.7 94.35 -40.2 94.35 -40.7 93.95 -40.45 93.55 -40.2 93.2 -40.0 92.8 -39.75 92.45 -39.55 92.05 -39.35 91.7 -39.15 91.35 -39.0 91.0 -38.8 90.7 -38.65 90.35 -38.5 90.05 -38.35 89.75 -38.2 89.45 -38.1 89.2 -37.95 88.95 -37.85 88.1 -37.5 87.75 -37.35 87.1 -37.1 86.55 -36.9 85.95 -36.65 85.4 -36.45 84.8 -36.25 84.25 -36.1 83.65 -35.95 83.05 -35.85 82.45 -35.75 81.85 -35.65 81.2 -35.6 80.6 -35.6 79.95 -35.65 79.3 -35.7 78.9 -35.75 78.5 -35.8 78.15 -35.9 77.75 -36.0 77.4 -36.05 77.1 -36.15 76.75 -36.25 76.45 -36.4 76.15 -36.5 75.85 -36.6 75.6 -36.7 75.3 -36.85 75.1 -36.95 74.85 -37.1 74.65 -37.2 74.4 -37.3 74.4 -37.55 74.35 -37.8 74.3 -38.05 74.25 -38.3 74.2 -38.6 74.15 -38.9 74.1 -39.2 74.0 -39.5 73.9 -39.8 73.8 -40.15 73.7 -40.45 73.6 -40.8 73.45 -41.15 73.3 -41.45 73.15 -41.8 73.0 -42.15 72.65 -42.8 72.25 -43.45 71.85 -44.05 71.4 -44.6 71.0 -45.1 70.55 -45.55 70.15 -46.0 69.7 -46.35 69.25 -46.75 68.85 -47.05 68.45 -47.35 68.05 -47.6 67.7 -47.85 67.35 -48.05 67.1 -48.2 66.8 -48.35 69.55 -48.35 75.0 -48.35 74.85 -48.6 74.65 -48.9 74.45 -49.2 74.25 -49.5 74.05 -49.8 73.8 -50.1 73.55 -50.45 73.3 -50.8 73.05 -51.15 72.75 -51.5 72.45 -51.9 72.15 -52.25 71.8 -52.65 71.45 -53.0 71.05 -53.4 70.7 -53.8 69.75 -54.75 68.7 -55.6 67.75 -56.4 66.7 -57.1 65.7 -57.75 64.6 -58.35 63.6 -58.95 62.55 -59.45 61.55 -59.9 60.45 -60.35 59.45 -60.75 58.35 -61.1 57.45 -61.45 56.3 -61.8 55.55 -62.05 54.3 -62.4 53.7 -62.6 53.15 -62.75 52.5 -62.95 51.85 -63.1 51.15 -63.3 50.45 -63.45 49.65 -63.6 48.9 -63.75 48.1 -63.95 47.25 -64.1 46.4 -64.25 45.5 -64.35 44.6 -64.5 43.65 -64.6 42.65 -64.7 41.7 -64.8 42.0 -65.1 42.3 -65.45 42.6 -65.85 42.9 -66.25 43.25 -66.65 43.6 -67.15 43.95 -67.65 44.3 -68.15 44.65 -68.7 44.95 -69.3 45.3 -69.9 45.6 -70.55 45.95 -71.25 46.2 -71.95 46.5 -72.7 46.75 -73.45 47.1 -74.55 47.35 -75.65 47.55 -76.7 47.65 -77.75 47.75 -78.75 47.8 -79.75 47.8 -80.65 47.75 -81.55 47.7 -82.35 47.6 -83.2 47.5 -83.9 47.4 -84.6 47.25 -85.25 47.1 -85.8 47.0 -86.3 46.85 -86.75 46.55 -86.25 46.25 -85.7 45.9 -85.1 45.5 -84.55 45.05 -83.85 44.55 -83.2 44.05 -82.5 43.45 -81.85 42.85 -81.1 42.15 -80.4 41.45 -79.65 40.65 -78.9 39.85 -78.15 38.95 -77.45 38.05 -76.7 37.05 -76.05 36.35 -75.6 35.65 -75.15 34.95 -74.75 34.25 -74.35 33.6 -74.0 32.9 -73.65 32.25 -73.35 31.6 -73.1 31.0 -72.8 30.35 -72.6 29.8 -72.35 29.2 -72.15 28.65 -71.95 28.1 -71.8 27.6 -71.65 27.1 -71.5 27.15 -71.95 27.2 -72.4 27.3 -72.9 27.3 -73.4 27.35 -73.95 27.4 -74.5 27.4 -75.1 27.4 -75.75 27.4 -76.4 27.35 -77.05 27.3 -77.75 27.2 -78.45 27.1 -79.2 27.0 -79.95 26.85 -80.75 26.65 -81.5 26.45 -82.2 26.25 -82.9 26.05 -83.55 25.8 -84.2 25.55 -84.8 25.3 -85.4 25.05 -85.95 24.8 -86.5 24.55 -87.0 24.25 -87.5 24.0 -87.95 23.75 -88.4 23.5 -88.8 23.25 -89.2 23.0 -89.55 22.75 -89.9 22.65 -89.2 22.5 -88.5 22.35 -87.65 22.15 -86.85 21.9 -85.85 21.6 -84.95 21.3 -83.9 20.9 -82.95 20.45 -81.95 19.95 -81.0 19.35 -80.0 18.7 -79.2 18.0 -78.3 17.2 -77.6 16.35 -76.85 15.35 -76.35 13.6 -75.4 9.9 -74.25 9.35 -74.1 8.85 -73.9 8.35 -73.75 7.8 -73.6 7.35 -73.5 6.85 -73.35 6.4 -73.25 5.95 -73.15 5.5 -73.05 5.05 -72.95 4.65 -72.85 4.25 -72.75 3.85 -72.7 3.5 -72.6 3.15 -72.55 2.8 -72.5 2.95 -72.8 3.1 -73.1 3.25 -73.45 3.4 -73.75 3.6 -74.05 3.75 -74.4 3.95 -74.7 4.1 -75.05 4.3 -75.35 4.5 -75.7 4.7 -76.05 4.85 -76.35 5.1 -76.7 5.3 -77.05 5.5 -77.4 5.7 -77.75 6.0 -78.2 6.25 -78.6 6.55 -79.05 6.8 -79.45 7.1 -79.85 7.4 -80.25 7.65 -80.65 7.95 -81.05 8.25 -81.4 8.5 -81.8 8.8 -82.15 9.05 -82.5 9.35 -82.85 9.6 -83.2 9.9 -83.55 10.15 -83.85 9.85 -83.95 9.6 -84.0 9.25 -84.1 8.95 -84.15 8.55 -84.25 8.2 -84.3 7.8 -84.35 7.4 -84.4 6.95 -84.45 6.55 -84.45 6.05 -84.5 5.6 -84.45 5.1 -84.45 4.65 -84.4 4.1 -84.4 3.6 -84.3 3.4 -84.25 3.2 -84.25 2.9 -84.15 2.6 -84.1 2.2 -84.0 1.8 -83.85 1.3 -83.7 0.8 -83.45 0.25 -83.25 -0.35 -82.95 -1.0 -82.6 -1.65 -82.2 -2.4 -81.8 -3.1 -81.3 -3.9 -80.75 -4.65 -80.1 -5.55 -79.35 -6.4 -78.55 -7.2 -77.8 -7.95 -77.0 -8.65 -76.2 -9.35 -75.4 -9.95 -74.6 -10.55 -73.75 -11.05 -73.0 -11.6 -72.15 -12.05 -71.4 -12.45 -70.6 -12.85 -69.9 -13.25 -69.15 -13.55 -68.45 -13.85 -67.75 -14.15 -68.0 -14.5 -68.2 -14.85 -68.45 -15.2 -68.7 -15.6 -68.95 -16.0 -69.15 -16.45 -69.4 -16.85 -69.65 -17.3 -69.9 -17.8 -70.1 -18.25 -70.35 -18.75 -70.55 -19.3 -70.75 -19.85 -70.95 -20.4 -71.2 -20.95 -71.35 -22.05 -71.7 -23.2 -71.95 -24.25 -72.2 -25.3 -72.35 -26.3 -72.5 -27.35 -72.55 -28.25 -72.65 -29.2 -72.6 -30.05 -72.6 -30.9 -72.55 -31.7 -72.5 -32.45 -72.4 -33.1 -72.3 -33.75 -72.2 -34.3 -72.1 -34.85 -72.0 -34.55 -71.8 -34.3 -71.6 -33.95 -71.4 -33.65 -71.2 -33.3 -70.95 -33.0 -70.7 -32.65 -70.4 -32.3 -70.1 -31.95 -69.8 -31.6 -69.5 -31.25 -69.15 -30.9 -68.75 -30.55 -68.4 -30.2 -68.0 -29.85 -67.6 -29.5 -67.15 -29.3 -66.85 -29.05 -66.55 -28.85 -66.3 -28.7 -66.0 -28.5 -65.7 -28.3 -65.45 -28.15 -65.15 -28.0 -64.9 -27.85 -64.6 -27.7 -64.35 -27.55 -64.1 -27.45 -63.85 -27.3 -63.6 -27.2 -63.35 -27.1 -63.1 -27.0 -62.85 -27.3 -62.9 -27.6 -62.95 -27.9 -62.95 -28.25 -63.0 -28.6 -63.05 -29.0 -63.05 -29.35 -63.05 -29.75 -63.05 -30.2 -63.05 -30.6 -63.05 -31.05 -63.05 -31.5 -63.0 -32.0 -62.95 -32.45 -62.9 -32.95 -62.8 -33.45 -62.7 -34.0 -62.6 -34.5 -62.45 -35.0 -62.35 -35.5 -62.15 -35.95 -62.0 -36.45 -61.8 -36.95 -61.6 -37.45 -61.35 -37.95 -61.1 -38.5 -60.8 -39.0 -60.55 -39.6 -60.2 -40.15 -59.9 -40.85 -59.5 -41.3 -59.2 -42.25 -58.65 -43.0 -58.2 -43.7 -57.8 -44.3 -57.4 -44.85 -57.0 -45.4 -56.65 -45.8 -56.3 -46.25 -56.0 -46.6 -55.7 -46.9 -55.4 -47.15 -55.1 -47.4 -54.85 -47.65 -54.6 -47.8 -54.4 -48.0 -54.15 -48.15 -53.95 -48.3 -53.7 -48.45 -53.45 -48.55 -53.25 -48.7 -53.0 -48.8 -52.75 -48.9 -52.55 -49.0 -52.3 -49.1 -52.1 -49.2 -51.9 -49.25 -51.7 -49.3 -51.5 -49.4 -51.3 -49.45 -51.1 -49.5 -50.95 -49.55 -50.75 -49.6 -50.6 -49.65 -50.45 -50.3 -50.2 -50.85 -49.9 -51.65 -49.5 -52.4 -49.1 -53.3 -48.6 -54.15 -48.05 -55.1 -47.45 -56.0 -46.75 -57.0 -46.0 -57.95 -45.2 -58.95 -44.25 -59.85 -43.3 -60.8 -42.2 -61.65 -41.05 -62.55 -39.8 -63.3 -38.45 -63.55 -37.95 -63.8 -37.5 -64.0 -37.0 -64.2 -36.5 -64.4 -36.05 -64.6 -35.6 -64.75 -35.15 -64.9 -34.7 -65.05 -34.25 -65.2 -33.8 -65.35 -33.35 -65.45 -32.95 -65.55 -32.55 -65.65 -32.1 -65.7 -31.75 -65.8 -31.35 -65.65 -31.6 -65.5 -31.8 -65.25 -32.15 -65.0 -32.5 -64.6 -32.95 -64.2 -33.35 -63.75 -33.85 -63.25 -34.3 -62.65 -34.85 -62.0 -35.25 -61.3 -35.75 -60.55 -36.15 -59.7 -36.6 -58.8 -36.9 -57.85 -37.25 -56.85 -37.4 -56.3 -37.5 -55.8 -37.55 -55.3 -37.6 -54.75 -37.6 -54.3 -37.6 -53.8 -37.6 -53.4 -37.55 -52.95 -37.5 -52.55 -37.45 -52.15 -37.35 -51.75 -37.3 -51.4 -37.2 -51.1 -37.15 -50.8 -37.05 -50.55 -36.95 -50.25 -36.85 -50.95 -36.05 -51.6 -35.2 -52.2 -34.4 -52.8 -33.6 -53.35 -32.8 -53.9 -32.05 -54.45 -31.3 -54.95 -30.55 -55.4 -29.85 -55.85 -29.15 -56.3 -28.5 -56.7 -27.8 -57.05 -27.2 -57.45 -26.55 -57.75 -26.0 -58.1 -25.4 -58.45 -24.75 -59.0 -23.75 -59.7 -22.45 -59.8 -22.25 -60.25 -21.4 -60.6 -20.85 -61.0 -20.15 -61.35 -19.6 -61.75 -19.0 -62.2 -18.55 -62.6 -18.05 -63.05 -17.7 -63.55 -17.3 -64.05 -17.05 -64.6 -16.75 -65.2 -16.6 -65.7 -16.45 -66.25 -16.4 -66.75 -16.35 -67.25 -16.35 -67.7 -16.35 -68.2 -16.35 -68.6 -16.4 -69.05 -16.45 -69.4 -16.5 -69.75 -16.6 -70.0 -16.65 -70.3 -16.75 -70.5 -16.8 -70.65 -16.85 -70.7 -16.85 -70.75 -16.9 -70.95 -16.95 -71.15 -17.05 -71.3 -17.1 -71.5 -17.2 -71.65 -17.25 -71.8 -17.35 -72.0 -17.45 -72.15 -17.5 -72.25 -17.6 -72.4 -17.7 -72.55 -17.75 -72.65 -17.85 -72.8 -17.9 -72.9 -18.0 -73.0 -18.05 -73.1 -18.15 -73.1 -17.95 -73.1 -17.7 -73.1 -17.5 -73.1 -17.3 -73.1 -17.1 -73.1 -16.9 -73.05 -16.75 -73.05 -16.55 -73.0 -16.35 -73.0 -16.2 -72.95 -16.05 -72.9 -15.85 -72.9 -15.7 -72.85 -15.55 -72.8 -15.4 -72.75 -15.25 -72.4 -14.15 -71.75 -13.2 -71.15 -12.3 -70.3 -11.55 -69.5 -10.85 -68.55 -10.2 -67.65 -9.65 -66.65 -9.2 -65.8 -8.8 -64.85 -8.45 -64.05 -8.2 -63.25 -7.95 -62.65 -7.8 -62.1 -7.65 -61.75 -7.6 -61.45 -7.55 -61.7 -7.25 -61.95 -6.95 -62.25 -6.65 -62.55 -6.35 -62.9 -5.95 -63.3 -5.65 -63.7 -5.25 -64.1 -4.9 -64.55 -4.55 -65.05 -4.2 -65.55 -3.8 -66.1 -3.45 -66.65 -3.1 -67.25 -2.75 -67.9 -2.45 -68.55 -2.15 -69.6 -1.65 -70.65 -1.3 -71.65 -1.0 -72.7 -0.75 -73.65 -0.55 -74.65 -0.4 -75.55 -0.3 -76.45 -0.25 -77.25 -0.25 -78.05 -0.25 -78.75 -0.3 -79.45 -0.35 -80.05 -0.4 -80.6 -0.5 -81.05 -0.55 -81.5 -0.65 -81.35 -0.35 -81.2 -0.1 -81.0 0.2 -80.85 0.5 -80.65 0.85 -80.45 1.15 -80.25 1.45 -80.0 1.75 -79.8 2.1 -79.55 2.4 -79.3 2.75 -79.0 3.05 -78.75 3.4 -78.45 3.7 -78.15 4.05 -77.85 4.35 -77.0 5.2 -76.1 5.9 -75.25 6.6 -74.3 7.2 -73.45 7.8 -72.55 8.25 -71.7 8.7 -70.8 9.1 -70.0 9.45 -69.15 9.75 -68.4 10.0 -67.65 10.2 -67.0 10.4 -66.35 10.5 -65.8 10.65 -65.3 10.75 -65.5 11.0 -65.7 11.25 -65.9 11.55 -66.15 11.8 -66.45 12.15 -66.75 12.45 -67.1 12.8 -67.45 13.15 -67.85 13.5 -68.25 13.8 -68.75 14.2 -69.2 14.5 -69.75 14.85 -70.3 15.2 -70.85 15.5 -71.45 15.8 -72.15 16.15 -72.9 16.4 -73.6 16.65 -74.35 16.85 -75.0 17.05 -75.65 17.15 -76.3 17.3 -76.9 17.35 -77.5 17.4 -78.05 17.45 -78.55 17.45 -79.05 17.45 -79.5 17.45 -79.9 17.45 -80.25 17.4 -80.55 17.4 -80.4 17.85 -80.25 18.3 -80.15 18.75 -79.95 19.15 -79.8 19.55 -79.65 19.95 -79.45 20.3 -79.25 20.65 -79.1 21.0 -78.9 21.3 -78.7 21.65 -78.5 21.95 -78.35 22.2 -78.15 22.5 -77.95 22.75 -77.75 23.0 -76.55 24.55 -74.9 25.75 -73.45 26.9 -71.65 27.7 -70.05 28.5 -68.25 29.0 -66.6 29.45 -64.8 29.75 -63.3 29.95 -61.65 30.05 -60.35 30.15 -59.0 30.1 -58.0 30.1 -57.05 30.0 -56.45 29.95 -56.0 29.9 -56.1 30.1 -56.2 30.25 -56.3 30.45 -56.4 30.65 -56.55 30.85 -56.7 31.05 -56.85 31.3 -57.05 31.5 -57.2 31.75 -57.4 31.95 -57.6 32.2 -57.85 32.4 -58.1 32.65 -58.35 32.85 -58.6 33.1 -58.9 33.3 -59.5 33.75 -60.2 34.1 -60.8 34.4 -61.5 34.65 -62.1 34.85 -62.75 34.95 -63.3 35.1 -63.9 35.15 -64.45 35.2 -64.95 35.2 -65.4 35.2 -65.85 35.2 -66.2 35.15 -66.55 35.15 -66.8 35.1 -67.0 35.05 -66.85 35.4 -66.75 35.7 -66.6 36.05 -66.4 36.4 -66.25 36.75 -66.05 37.1 -65.9 37.45 -65.7 37.85 -65.5 38.2 -65.25 38.6 -65.0 38.95 -64.8 39.35 -64.5 39.75 -64.25 40.15 -63.95 40.5 -63.65 40.9 -63.15 41.2 -62.65 41.6 -62.15 41.9 -61.65 42.3 -61.2 42.65 -60.7 43.05 -60.2 43.45 -59.75 43.85 -59.3 44.2 -58.8 44.65 -58.4 45.05 -57.9 45.45 -57.5 45.85 -57.0 46.3 -56.6 46.7 -56.1 47.15 -55.95 47.3 -55.1 48.1 -54.35 48.5 -53.55 48.85 -52.8 49.2 -52.05 49.5 -51.35 49.8 -50.6 50.05 -49.95 50.25 -49.25 50.45 -48.65 50.65 -48.0 50.8 -47.45 50.9 -46.9 51.05 -46.45 51.15 -45.95 51.2 -45.55 51.3 -45.15 51.35 -45.25 51.4 -45.45 51.5 -44.55 51.75 -42.8 52.55 -42.3 52.8 -41.45 53.2 -41.45 53.2 -41.35 53.25 -41.1 53.3 -40.6 53.5 -39.0 53.95 -33.9 55.5 -33.65 55.6 -33.4 55.65 -33.15 55.75 -32.9 55.8 -32.65 55.9 -32.4 55.95 -32.15 56.05 -31.9 56.1 -31.65 56.15 -31.4 56.25 -31.15 56.3 -30.9 56.4 -30.7 56.45 -30.45 56.5 -30.2 56.55 -29.95 56.65 -29.95 56.6 -29.9 56.6 -29.9 56.55 -29.9 56.5 -29.85 56.5 -29.85 56.45 -29.65 56.5 -29.45 56.55 -29.2 56.6 -28.95 56.65 -28.65 56.7 -28.35 56.75 -28.0 56.75 -27.65 56.8 -27.3 56.8 -26.9 56.75 -26.5 56.75 -26.1 56.65 -25.65 56.6 -25.2 56.45 -24.75 56.35 -24.35 56.15 -24.2 56.1 -24.05 56.0 -23.95 55.95 -23.8 55.9 -23.65 55.8 -23.55 55.75 -23.4 55.7 -23.3 55.6 -23.2 55.55 -23.1 55.45 -23.0 55.4 -22.9 55.3 -22.8 55.25 -22.7 55.15 -22.6 55.1 -22.5 55.0 -22.85 54.95 -23.2 54.85 -23.6 54.75 -23.95 54.6 -24.4 54.5 -24.85 54.35 -25.35 54.15 -25.85 53.95 -26.35 53.75 -26.85 53.45 -27.4 53.2 -27.95 52.9 -28.5 52.55 -29.05 52.2 -29.6 51.8 -30.15 51.35 -30.55 51.05 -30.9 50.7 -31.25 50.35 -31.6 50.0 -31.9 49.7 -32.2 49.35 -32.45 49.05 -32.75 48.7 -32.95 48.4 -33.2 48.1 -33.4 47.8 -33.6 47.5 -33.8 47.25 -33.95 46.95 -34.1 46.7 -34.25 46.45 -33.9 46.6 -33.6 46.75 -33.2 46.9 -32.8 47.05 -32.3 47.2 -31.85 47.35 -31.35 47.5 -30.8 47.65 -30.25 47.75 -29.65 47.85 -29.05 48.0 -28.4 48.05 -27.7 48.1 -27.05 48.15 -26.3 48.15 -25.6 48.1 -25.2 48.1 -24.85 48.05 -24.45 48.0 -24.1 47.95 -23.75 47.9 -23.4 47.85 -23.05 47.8 -22.75 47.7 -22.45 47.65 -22.1 47.55 -21.85 47.5 -21.55 47.4 -21.25 47.3 -21.0 47.2 -20.75 47.15 -20.5 47.05 -20.9 46.9 -21.3 46.75 -21.7 46.55 -22.15 46.35 -22.6 46.15 -23.05 45.9 -23.55 45.65 -24.05 45.35 -24.55 45.05 -25.05 44.75 -25.6 44.4 -26.1 44.05 -26.65 43.65 -27.15 43.25 -27.7 42.8 -28.25 42.35 -28.95 41.75 -29.55 41.1 -30.15 40.45 -30.7 39.8 -31.2 39.2 -31.7 38.55 -32.15 37.95 -32.55 37.35 -32.9 36.75 -33.25 36.15 -33.55 35.65 -33.85 35.1 -34.1 34.6 -34.35 34.1 -34.55 33.65 -34.7 33.25 -34.35 33.5 -34.0 33.75 -33.5 34.1 -32.95 34.4 -32.35 34.8 -31.7 35.15 -30.95 35.5 -30.15 35.8 -29.3 36.15 -28.45 36.4 -27.5 36.65 -26.55 36.8 -25.55 36.95 -24.5 36.9 -23.45 36.9 -22.35 36.7 -22.15 36.65 -22.0 36.6 -21.8 36.55 -21.6 36.5 -21.45 36.45 -21.25 36.4 -21.1 36.35 -20.9 36.3 -20.75 36.25 -20.55 36.15 -20.4 36.1 -20.25 36.05 -20.05 35.95 -19.9 35.9 -19.75 35.85 -19.6 35.75 -20.15 35.6 -20.7 35.4 -21.35 35.2 -22.05 34.9 -22.8 34.6 -23.6 34.2 -24.45 33.8 -25.25 33.3 -26.15 32.8 -27.0 32.2 -27.9 31.5 -28.7 30.8 -29.6 30.0 -30.35 29.1 -31.15 28.15 -31.8 27.1 -32.15 26.5 -32.45 25.95 -32.75 25.35 -33.0 24.75 -33.25 24.2 -33.45 23.65 -33.6 23.1 -33.75 22.55 -33.9 22.0 -34.0 21.4 -34.15 20.9 -34.2 20.35 -34.3 19.85 -34.4 19.25 -34.45 18.85 -34.5 18.15 -34.75 16.25 -34.8 14.3 -34.8 12.5 -34.65 10.65 -34.55 8.95 -34.25 7.25 -34.0 5.65 -33.6 4.05 -33.25 2.6 -32.8 1.15 -32.4 -0.1 -31.95 -1.4 -31.55 -2.5 -31.05 -3.65 -30.75 -4.45 -30.25 -5.55 -29.95 -6.3 -29.6 -7.05 -29.25 -7.75 -28.85 -8.55 -28.45 -9.3 -28.05 -10.1 -27.6 -10.9 -27.1 -11.75 -26.65 -12.6 -26.05 -13.6 -25.5 -14.55 -24.85 -15.65 -24.3 -16.65 -23.5 -17.95 -23.0 -18.8 -21.95 -20.55 -19.5 -24.6 -19.0 -25.15 -18.3 -25.85 -17.5 -26.45 -16.75 -27.05 -15.8 -27.55 -14.9 -28.1 -13.85 -28.55 -12.8 -29.0 -11.6 -29.4 -10.45 -29.8 -9.05 -30.15 -7.75 -30.5 -6.2 -30.8 -4.75 -31.15 -3.05 -31.45 -1.45 -31.75 0.5 -32.1 4.7 -32.8 8.7 -33.3 12.65 -33.75 16.4 -33.95 20.05 -34.2 23.6 -34.2 27.0 -34.2 30.25 -34.05 33.45 -33.85 36.45 -33.45 39.35 -33.1 42.15 -32.55 44.8 -32.0 47.35 -31.3 49.8 -30.65 52.05 -29.8 52.4 -29.7 52.65 -29.55 53.0 -29.45 53.35 -29.3 53.7 -29.15 54.05 -29.0 54.4 -28.8 54.75 -28.6 55.15 -28.4 55.5 -28.2 55.9 -27.95 56.3 -27.7 56.7 -27.4 57.1 -27.1 57.5 -26.8 57.85 -26.45 58.55 -25.8 59.15 -25.15 59.7 -24.45 60.2 -23.7 60.7 -22.95 61.1 -22.15 61.5 -21.35 61.8 -20.4 62.15 -19.5 62.45 -18.45 62.7 -17.5 63.0 -16.35 63.2 -15.3 63.45 -13.95 63.7 -12.85 63.95 -11.3 65.05 -5.05 65.6 0.05 66.15 4.9 66.85 8.7 67.15 10.3 67.5 12.0 67.7 13.05 68.05 14.75 68.45 16.4 68.55 17.1 68.8 18.3 68.95 19.15 69.1 20.15 69.2 21.0 69.3 21.95 69.3 22.8 69.3 23.75 69.2 24.65 69.1 25.6 68.85 26.65 68.65 27.55 68.4 28.5 68.2 29.3 67.9 30.15 67.6 30.9 67.3 31.65 67.0 32.3 66.7 32.95 66.4 33.55 66.1 34.05 65.85 34.55 65.55 35.0 65.35 35.35 65.1 35.65 64.95 35.95 64.8 36.15 64.15 36.95 63.45 37.7 62.8 38.4 62.1 39.05 61.4 39.65 60.7 40.2 60.0 40.7 59.3 41.1 58.7 41.5 58.0 41.9 57.45 42.2 56.8 42.5 56.3 42.75 55.75 42.95 55.35 43.1 54.9 43.3 56.1 43.1 57.3 42.85 58.45 42.6 59.5 42.35 60.55 42.1 61.5 41.85 62.45 41.6 63.3 41.35 64.1 41.1 64.85 40.85 65.5 40.65 66.1 40.4 66.65 40.2 67.1 40.0 67.5 39.8 67.8 39.6 68.65 39.05 69.45 38.5 69.6 38.4 69.75 38.3 69.85 38.2 70.0 38.1 70.15 37.95 70.3 37.85 70.4 37.75 70.55 37.65 70.65 37.55 70.8 37.45 70.9 37.35 71.05 37.25 71.15 37.15 71.3 37.05 71.4 36.95 71.5 36.85 71.3 37.15 71.1 37.5 70.9 37.85 70.7 38.15 70.5 38.5 70.25 38.85 70.0 39.2 69.8 39.55 69.55 39.9 69.25 40.25 69.0 40.6 68.7 40.95 68.45 41.35 68.15 41.7 67.85 42.05 67.55 42.4 67.05 42.95 66.55 43.5 66.1 44.05 65.6 44.55 65.1 45.0 64.6 45.5 64.15 45.95 63.65 46.35 63.15 46.75 62.7 47.15 62.25 47.55 61.75 47.9 61.35 48.25 60.9 48.55 60.45 48.85 60.05 49.15 60.45 49.1 60.85 49.0 61.35 48.9 61.8 48.8 62.4 48.65 62.95 48.45 63.6 48.25 64.2 48.05 64.9 47.75 65.55 47.45 66.25 47.15 66.95 46.75 67.7 46.3 68.4 45.85 69.15 45.35 69.9 44.75 70.6 44.2 71.25 43.6 71.85 43.0 72.4 42.4 72.95 41.8 73.4 41.2 73.85 40.6 74.25 40.05 74.6 39.5 74.95 38.95 75.2 38.45 75.5 37.9 75.7 37.5 75.9 37.05 76.1 36.65 76.25 36.3 76.7 36.35 77.1 36.4 77.65 36.5 78.15 36.6 78.75 36.7 79.3 36.8 79.95 36.95 80.6 37.15 81.3 37.35 81.95 37.55 82.7 37.8 83.4 38.1 84.15 38.4 84.85 38.75 85.65 39.15 86.35 39.55 86.7 39.75 87.05 40.0 87.4 40.2 87.75 40.45 88.05 40.65 88.35 40.9 88.6 41.05 88.85 41.3 89.1 41.45 89.3 41.65 89.5 41.8 89.7 41.95 89.8 42.05 89.95 42.15 90.0 42.2 90.1 42.3 90.35 42.5 90.55 42.75 90.8 42.95 91.0 43.15 91.2 43.4 91.4 43.6 91.6 43.8 91.8 44.0 92.0 44.2 92.15 44.4 92.35 44.6 92.5 44.8 92.65 45.0 92.8 45.2 92.95 45.4 93.1 45.6 93.05 44.95 92.95 44.35 92.85 43.65 92.75 43.0 92.65 42.3 92.5 41.6 92.4 40.9 92.25 40.15 92.05 39.4 91.9 38.65 91.7 37.9 91.45 37.1 91.25 36.3 91.0 35.5 90.7 34.65 90.4 33.85 89.95 32.55 89.4 31.3 88.9 30.1 88.35 28.95 87.8 27.8 87.2 26.75 86.65 25.7 86.05 24.7 85.5 23.8 84.85 22.9 84.3 22.05 83.7 21.2 83.15 20.45 82.6 19.75 82.05 19.05 81.5 18.4 L81.5 18.4" fill="#e5aed5" fill-rule="evenodd" stroke="none"/>
  </g>
</svg>
