<?xml version="1.0" encoding="UTF-8" standalone="no"?>
<svg xmlns:xlink="http://www.w3.org/1999/xlink" height="133.85px" width="202.05px" xmlns="http://www.w3.org/2000/svg">
  <g transform="matrix(1.0, 0.0, 0.0, 1.0, 101.05, 66.9)">
    <path d="M-235.1 35.65 L-235.1 35.75 -235.2 35.7 -235.1 35.65" fill="#fdfdfd" fill-rule="evenodd" stroke="none"/>
    <path d="M-125.55 -62.25 Q-125.45 -62.3 -125.25 -62.5 -125.25 -62.5 -125.25 -62.45 -125.25 -62.4 -125.25 -62.4 -125.3 -62.35 -125.55 -62.2 -125.55 -62.2 -125.55 -62.25 L-125.55 -62.25" fill="#111111" fill-rule="evenodd" stroke="none"/>
    <path d="M-246.95 11.1 Q-247.0 11.1 -247.0 11.15 -247.05 11.15 -247.05 11.15 -247.1 11.2 -247.1 11.2 -247.15 11.2 -247.15 11.2 -247.2 11.2 -247.2 11.15 -247.25 11.15 -247.25 11.15 -247.25 11.1 -247.3 11.1 -247.3 11.05 -247.3 11.05 -247.3 11.0 -247.3 11.0 -247.3 10.95 -247.3 10.9 -247.3 10.9 -247.25 10.9 -247.2 10.9 -247.15 10.9 -247.1 10.9 -247.1 10.9 -247.05 10.95 -247.05 10.95 -247.0 11.0 -247.0 11.05 -247.0 11.1 -247.0 11.15 -247.0 11.1 -246.95 11.1 L-246.95 11.1" fill="#111111" fill-rule="evenodd" stroke="none"/>
    <path d="M97.2 -2.75 Q97.15 -2.75 97.1 -2.8 97.05 -2.8 97.0 -2.75 96.95 -2.75 96.85 -2.7 96.8 -2.7 96.75 -2.65 96.8 -2.7 96.55 -2.6 96.45 -2.5 96.35 -2.5 96.25 -2.4 96.15 -2.4 96.0 -2.3 95.85 -2.25 95.75 -2.2 95.65 -2.2 95.55 -2.15 95.45 -2.15 95.35 -2.1 95.25 -2.1 95.15 -2.05 95.05 -2.05 94.95 -2.05 94.85 -2.0 94.75 -2.0 94.65 -2.0 94.55 -1.95 94.4 -1.95 94.3 -1.95 94.2 -1.95 93.85 -1.95 93.55 -1.95 93.2 -1.9 92.9 -1.9 92.55 -1.9 92.25 -1.9 91.95 -1.9 91.6 -1.9 91.3 -1.9 90.95 -1.9 90.65 -1.9 90.3 -1.95 90.0 -1.95 89.65 -1.95 89.35 -2.0 89.0 -2.0 88.75 -2.05 88.5 -2.05 88.25 -2.1 88.0 -2.15 87.8 -2.2 87.55 -2.25 87.3 -2.3 87.05 -2.35 86.85 -2.45 86.6 -2.5 86.35 -2.6 86.1 -2.65 85.9 -2.75 85.65 -2.85 85.4 -2.95 85.2 -3.0 85.0 -3.1 84.8 -3.2 84.6 -3.25 84.4 -3.4 84.25 -3.5 84.05 -3.6 83.85 -3.7 83.65 -3.8 83.5 -3.95 83.3 -4.05 83.15 -4.15 82.95 -4.3 82.8 -4.4 82.6 -4.55 82.45 -4.65 82.25 -4.8 82.25 -4.8 82.2 -4.85 82.2 -4.85 82.15 -4.9 82.15 -4.9 82.1 -4.95 82.1 -4.95 82.1 -5.0 82.1 -5.0 82.05 -5.05 82.05 -5.05 82.05 -5.1 82.05 -5.15 82.05 -5.15 82.05 -5.2 82.1 -5.25 82.1 -5.3 82.15 -5.3 82.2 -5.35 82.2 -5.4 82.25 -5.45 82.3 -5.45 82.55 -5.5 82.75 -5.55 83.0 -5.6 83.25 -5.6 83.5 -5.65 83.7 -5.65 83.95 -5.7 84.2 -5.7 84.45 -5.7 84.65 -5.7 84.9 -5.7 85.15 -5.65 85.4 -5.6 85.6 -5.55 85.85 -5.5 86.05 -5.45 86.4 -5.35 86.65 -5.25 87.0 -5.15 87.3 -5.0 87.6 -4.9 87.9 -4.8 88.2 -4.65 88.5 -4.5 88.75 -4.4 89.05 -4.25 89.35 -4.1 89.6 -3.95 89.9 -3.75 90.15 -3.6 90.45 -3.4 90.7 -3.2 90.7 -3.2 90.75 -3.15 90.8 -3.15 90.85 -3.1 90.85 -3.1 90.9 -3.05 90.95 -3.05 90.95 -3.05 91.0 -3.05 91.05 -3.05 91.1 -3.05 91.15 -3.05 91.15 -3.05 91.2 -3.1 91.25 -3.1 91.3 -3.15 91.35 -3.65 91.3 -3.8 91.3 -3.85 91.3 -3.95 91.25 -4.0 91.25 -4.1 91.25 -4.15 91.2 -4.25 91.2 -4.3 91.2 -4.35 91.2 -4.45 91.15 -4.5 91.15 -4.6 91.15 -4.65 91.1 -4.75 91.1 -4.8 91.05 -4.85 91.05 -4.95 90.85 -5.7 90.6 -6.45 90.35 -7.15 90.05 -7.9 89.8 -8.6 89.5 -9.3 89.2 -10.0 88.85 -10.7 88.55 -11.4 88.2 -12.1 87.8 -12.75 87.45 -13.45 87.05 -14.1 86.65 -14.75 86.25 -15.45 85.8 -16.1 85.5 -16.5 84.6 -17.9 84.65 -18.05 84.7 -18.15 84.75 -18.3 84.85 -18.4 84.95 -18.5 85.05 -18.6 85.15 -18.65 85.3 -18.75 85.3 -18.75 85.5 -18.9 85.65 -19.0 85.75 -19.05 85.85 -19.15 85.95 -19.25 86.05 -19.35 86.1 -19.45 86.15 -19.5 86.2 -19.55 86.2 -19.6 86.25 -19.65 86.3 -19.7 86.35 -19.75 86.4 -19.75 86.45 -19.8 86.45 -19.8 86.55 -19.9 86.6 -19.95 86.65 -20.0 86.7 -20.05 86.75 -20.1 86.8 -20.15 86.8 -20.2 87.25 -20.7 87.65 -21.2 88.1 -21.7 88.45 -22.2 88.85 -22.7 89.25 -23.25 89.65 -23.75 90.0 -24.3 90.35 -24.85 90.65 -25.4 91.0 -25.95 91.3 -26.5 91.65 -27.05 91.9 -27.65 92.2 -28.25 92.5 -28.8 92.8 -29.45 93.05 -30.1 93.3 -30.75 93.55 -31.4 93.8 -32.05 94.0 -32.7 94.2 -33.4 94.4 -34.05 94.6 -34.7 94.8 -35.4 94.95 -36.05 95.1 -36.75 95.25 -37.45 95.4 -38.1 95.5 -38.8 95.65 -39.5 95.7 -39.75 95.7 -40.0 95.75 -40.25 95.75 -40.5 95.8 -40.75 95.8 -41.0 95.85 -41.25 95.85 -41.5 95.85 -41.75 95.8 -42.0 95.8 -42.25 95.8 -42.5 95.75 -42.75 95.7 -43.0 95.7 -43.25 95.6 -43.55 95.55 -43.55 95.5 -43.5 95.5 -43.5 95.45 -43.45 95.4 -43.45 95.4 -43.45 95.3 -43.4 95.3 -43.4 95.3 -43.4 95.25 -43.35 95.2 -43.35 95.2 -43.35 95.15 -43.3 95.15 -43.3 95.15 -43.3 95.1 -43.25 94.85 -42.9 94.55 -42.6 94.25 -42.3 93.95 -42.0 93.65 -41.7 93.3 -41.45 92.95 -41.2 92.6 -40.95 92.3 -40.7 91.9 -40.45 91.55 -40.2 91.2 -40.0 90.85 -39.8 90.45 -39.6 90.05 -39.4 89.65 -39.2 89.35 -39.05 89.0 -38.9 88.65 -38.75 88.3 -38.6 88.0 -38.45 87.65 -38.35 87.3 -38.2 86.95 -38.1 86.65 -37.95 86.25 -37.85 85.95 -37.75 85.6 -37.65 85.25 -37.55 84.85 -37.45 84.55 -37.35 84.15 -37.25 83.75 -37.15 83.35 -37.05 82.95 -36.95 82.55 -36.9 82.15 -36.8 81.75 -36.75 81.35 -36.7 80.95 -36.7 80.55 -36.65 80.1 -36.65 79.7 -36.65 79.3 -36.65 78.9 -36.65 78.5 -36.65 78.05 -36.65 77.65 -36.7 77.5 -36.7 77.4 -36.75 77.3 -36.75 77.15 -36.75 77.05 -36.8 77.0 -36.85 76.9 -36.9 76.8 -36.95 76.7 -37.0 76.65 -37.1 76.55 -37.15 76.5 -37.25 76.45 -37.35 76.35 -37.45 76.3 -37.55 76.25 -37.65 75.95 -38.35 75.65 -38.95 75.3 -39.65 74.95 -40.25 74.6 -40.9 74.25 -41.5 73.9 -42.15 73.5 -42.7 73.05 -43.3 72.65 -43.85 72.2 -44.45 71.7 -44.95 71.2 -45.5 70.7 -46.0 70.15 -46.5 69.55 -47.0 69.55 -47.0 69.5 -47.05 69.5 -47.05 69.45 -47.05 69.45 -47.1 69.45 -47.1 69.4 -47.15 69.4 -47.15 69.4 -47.2 69.4 -47.2 69.35 -47.25 69.4 -47.3 69.4 -47.3 69.4 -47.35 69.4 -47.35 69.45 -47.4 69.45 -47.45 69.5 -47.45 69.55 -47.45 69.6 -47.5 69.65 -47.5 69.7 -47.5 69.75 -47.55 69.8 -47.55 69.85 -47.55 69.9 -47.55 74.75 -47.45 75.95 -47.4 76.0 -47.4 76.05 -47.4 76.1 -47.4 76.2 -47.4 76.25 -47.4 76.3 -47.4 76.4 -47.4 76.45 -47.4 76.5 -47.4 76.55 -47.4 76.65 -47.4 76.7 -47.45 76.75 -47.5 76.8 -47.55 76.85 -47.6 76.9 -47.7 76.7 -48.1 76.45 -48.5 76.2 -48.9 75.95 -49.3 75.7 -49.7 75.45 -50.05 75.2 -50.45 74.9 -50.8 74.6 -51.15 74.3 -51.5 74.0 -51.85 73.65 -52.2 73.35 -52.5 73.0 -52.8 72.6 -53.15 72.25 -53.45 70.95 -54.45 69.6 -55.4 68.3 -56.3 66.9 -57.15 65.55 -58.0 64.1 -58.8 62.7 -59.55 61.25 -60.25 59.8 -60.95 58.3 -61.55 56.8 -62.2 55.3 -62.75 53.75 -63.25 52.2 -63.75 50.6 -64.2 49.0 -64.6 48.65 -64.7 48.35 -64.75 48.0 -64.85 47.7 -64.9 47.35 -65.0 47.05 -65.05 46.7 -65.1 46.4 -65.15 46.05 -65.25 45.75 -65.3 45.4 -65.35 45.1 -65.4 44.75 -65.45 44.4 -65.5 44.1 -65.55 43.75 -65.55 43.65 -65.55 43.6 -65.6 43.55 -65.6 43.45 -65.65 43.4 -65.65 43.4 -65.7 43.35 -65.75 43.35 -65.8 43.3 -65.85 43.3 -65.9 43.3 -65.95 43.35 -66.0 43.35 -66.1 43.4 -66.15 43.45 -66.2 43.5 -66.25 43.8 -66.5 44.05 -66.8 44.3 -67.1 44.55 -67.45 44.8 -67.75 45.05 -68.05 45.25 -68.35 45.45 -68.7 45.65 -69.05 45.85 -69.4 46.05 -69.7 46.25 -70.05 46.4 -70.4 46.6 -70.75 46.75 -71.05 46.95 -71.45 47.2 -72.0 47.45 -72.55 47.7 -73.1 47.9 -73.7 48.1 -74.25 48.3 -74.8 48.5 -75.4 48.65 -75.95 48.8 -76.55 48.9 -77.15 49.05 -77.7 49.1 -78.3 49.2 -78.9 49.25 -79.5 49.3 -80.1 49.35 -80.7 49.35 -81.05 49.35 -81.45 49.35 -81.8 49.35 -82.2 49.3 -82.55 49.3 -82.95 49.25 -83.3 49.25 -83.65 49.2 -84.05 49.15 -84.4 49.1 -84.75 49.05 -85.15 49.0 -85.5 48.95 -85.85 48.9 -86.25 48.85 -86.6 48.8 -86.95 48.8 -87.0 48.75 -87.2 48.7 -87.4 48.65 -87.6 48.6 -87.75 48.55 -87.95 48.5 -88.15 48.45 -88.35 48.4 -88.55 48.3 -88.75 48.25 -88.9 48.15 -89.1 48.05 -89.3 47.95 -89.45 47.8 -89.65 47.75 -89.6 47.6 -89.4 47.5 -89.3 47.5 -89.2 47.05 -88.4 46.6 -87.6 46.1 -86.85 45.6 -86.05 45.05 -85.35 44.5 -84.6 43.95 -83.9 43.35 -83.15 42.8 -82.5 42.15 -81.8 41.55 -81.15 40.9 -80.5 40.25 -79.85 39.6 -79.2 38.9 -78.6 38.2 -77.95 37.9 -77.7 37.65 -77.5 37.35 -77.25 37.1 -77.05 36.8 -76.8 36.5 -76.6 36.2 -76.4 35.9 -76.15 35.6 -75.95 35.3 -75.75 35.0 -75.55 34.7 -75.4 34.35 -75.2 34.05 -75.0 33.75 -74.85 33.4 -74.65 33.1 -74.5 32.8 -74.35 32.5 -74.2 32.2 -74.05 31.85 -73.9 31.55 -73.8 31.25 -73.65 30.9 -73.55 30.6 -73.4 30.25 -73.3 29.9 -73.2 29.6 -73.15 29.25 -73.05 28.9 -73.0 28.55 -72.9 28.15 -72.85 28.1 -73.45 28.25 -75.1 28.3 -75.65 28.35 -76.25 28.4 -76.8 28.4 -77.35 28.4 -77.95 28.35 -78.5 28.35 -79.05 28.3 -79.65 28.25 -80.2 28.15 -80.75 28.05 -81.3 27.95 -81.9 27.85 -82.45 27.7 -83.0 27.6 -83.55 27.45 -84.1 27.3 -84.6 27.15 -85.1 27.0 -85.65 26.8 -86.1 26.65 -86.65 26.45 -87.1 26.25 -87.6 26.0 -88.1 25.8 -88.55 25.55 -89.0 25.3 -89.5 25.0 -89.95 24.75 -90.4 24.45 -90.85 24.15 -91.3 23.8 -91.7 23.65 -91.85 23.55 -92.0 23.45 -92.15 23.35 -92.25 23.25 -92.35 23.15 -92.45 23.05 -92.55 22.95 -92.6 22.9 -92.7 22.75 -92.8 22.65 -92.85 22.55 -92.95 22.4 -93.0 22.25 -93.1 22.15 -93.2 21.95 -93.3 21.95 -92.35 21.95 -91.6 21.95 -89.75 21.8 -88.9 21.7 -88.4 21.6 -87.9 21.45 -87.4 21.35 -86.9 21.2 -86.45 21.0 -85.95 20.85 -85.5 20.65 -85.0 20.45 -84.55 20.25 -84.1 20.05 -83.65 19.8 -83.2 19.55 -82.75 19.3 -82.3 19.05 -81.85 18.75 -81.45 18.4 -80.95 18.05 -80.45 17.7 -80.0 17.3 -79.55 16.9 -79.15 16.45 -78.75 16.05 -78.4 15.55 -78.05 15.1 -77.75 14.6 -77.45 14.05 -77.15 13.55 -76.95 13.0 -76.7 12.4 -76.55 11.85 -76.35 11.2 -76.25 6.7 -75.25 5.5 -74.95 5.45 -74.9 5.4 -74.9 5.35 -74.9 5.3 -74.85 5.25 -74.85 5.25 -74.85 5.2 -74.85 5.15 -74.85 5.1 -74.85 5.1 -74.85 5.05 -74.85 5.0 -74.85 5.0 -74.85 4.95 -74.9 4.95 -74.9 4.95 -74.95 4.9 -74.95 4.9 -75.05 4.9 -75.1 5.1 -75.4 5.3 -75.85 5.55 -76.25 5.75 -76.7 6.0 -77.1 6.25 -77.5 6.5 -77.9 6.75 -78.3 7.0 -78.7 7.3 -79.1 7.6 -79.5 7.85 -79.85 8.15 -80.25 8.45 -80.6 8.75 -80.95 9.1 -81.35 9.4 -81.7 9.6 -81.9 9.8 -82.1 10.0 -82.3 10.2 -82.5 10.45 -82.7 10.65 -82.9 10.9 -83.1 11.1 -83.25 11.35 -83.45 11.55 -83.6 11.8 -83.75 12.05 -83.9 12.3 -84.05 12.55 -84.15 12.85 -84.3 13.1 -84.4 13.15 -84.4 13.2 -84.45 13.2 -84.45 13.25 -84.5 13.3 -84.55 13.3 -84.55 13.35 -84.6 13.35 -84.65 13.35 -84.7 13.35 -84.7 13.35 -84.75 13.35 -84.75 13.35 -84.8 13.35 -84.8 13.3 -84.85 13.3 -84.85 13.3 -84.9 13.25 -84.9 13.25 -84.95 13.2 -84.95 13.2 -84.95 13.15 -85.0 13.1 -85.0 13.1 -85.0 12.55 -85.2 12.5 -85.2 12.15 -85.3 11.85 -85.4 11.55 -85.5 11.25 -85.55 10.9 -85.65 10.6 -85.75 10.3 -85.8 10.0 -85.85 9.65 -85.95 9.35 -85.95 9.0 -86.0 8.7 -86.05 8.35 -86.05 8.05 -86.05 7.5 -86.05 7.0 -86.0 6.45 -86.0 5.95 -85.95 5.4 -85.9 4.9 -85.85 4.4 -85.8 3.9 -85.75 3.35 -85.65 2.9 -85.55 2.35 -85.45 1.9 -85.3 1.35 -85.15 0.9 -85.0 0.4 -84.85 -0.1 -84.65 -1.0 -84.25 -1.85 -83.8 -2.7 -83.35 -3.5 -82.85 -4.3 -82.3 -5.05 -81.75 -5.8 -81.15 -6.5 -80.55 -7.2 -79.9 -7.85 -79.25 -8.5 -78.55 -9.15 -77.85 -9.75 -77.15 -10.35 -76.35 -10.9 -75.6 -11.45 -74.8 -11.6 -74.55 -11.75 -74.35 -11.9 -74.1 -12.05 -73.85 -12.2 -73.6 -12.35 -73.35 -12.5 -73.1 -12.6 -72.85 -12.75 -72.6 -12.85 -72.3 -12.95 -72.05 -13.05 -71.8 -13.15 -71.55 -13.25 -71.25 -13.35 -71.0 -13.45 -70.7 -13.45 -70.65 -13.45 -70.6 -13.5 -70.6 -13.5 -70.55 -13.5 -70.5 -13.5 -70.45 -13.5 -70.45 -13.55 -70.4 -13.55 -70.35 -13.55 -70.3 -13.6 -70.25 -13.6 -70.25 -13.6 -70.2 -13.65 -70.15 -13.65 -70.1 -13.65 -70.1 -13.65 -70.05 -13.7 -70.0 -13.7 -70.0 -13.7 -69.95 -13.7 -69.95 -13.7 -69.85 -13.75 -69.8 -13.75 -69.75 -13.75 -69.75 -13.75 -69.7 -13.8 -69.65 -13.8 -69.65 -13.85 -69.6 -13.85 -69.6 -13.9 -69.6 -13.95 -69.55 -14.0 -69.55 -14.1 -69.55 -14.15 -69.55 -14.2 -69.55 -14.3 -69.6 -14.55 -69.75 -14.8 -69.9 -14.95 -69.95 -15.4 -70.2 -15.85 -70.45 -16.3 -70.7 -16.75 -70.95 -17.2 -71.2 -17.7 -71.4 -18.15 -71.6 -18.6 -71.85 -19.1 -72.05 -19.55 -72.25 -20.05 -72.4 -20.55 -72.6 -21.0 -72.75 -21.5 -72.9 -22.0 -73.1 -22.5 -73.2 -23.15 -73.4 -23.8 -73.5 -24.45 -73.65 -25.15 -73.75 -25.8 -73.85 -26.45 -73.95 -27.1 -74.0 -27.8 -74.05 -28.45 -74.05 -29.15 -74.05 -29.8 -74.1 -30.45 -74.05 -31.1 -74.05 -31.8 -74.0 -32.45 -73.95 -33.15 -73.9 -33.25 -73.9 -35.35 -73.5 -35.4 -73.5 -35.45 -73.5 -35.5 -73.5 -35.55 -73.5 -35.6 -73.45 -35.65 -73.45 -35.75 -73.4 -35.8 -73.4 -35.85 -73.35 -35.9 -73.3 -35.95 -73.3 -36.0 -73.25 -36.05 -73.2 -36.05 -73.15 -36.1 -73.1 -36.15 -73.05 -36.15 -73.0 -36.2 -72.95 -36.2 -72.85 -36.25 -72.8 -36.25 -72.75 -36.25 -72.65 -36.25 -72.6 -36.25 -72.55 -36.25 -72.45 -36.2 -72.4 -36.2 -72.35 -36.2 -72.3 -36.15 -72.25 -36.1 -72.2 -36.1 -72.15 -36.05 -72.1 -36.0 -72.05 -35.95 -72.0 -35.9 -71.95 -35.85 -71.9 -35.65 -71.75 -35.05 -71.45 -34.5 -71.15 -34.2 -70.95 -33.75 -70.65 -33.3 -70.3 -32.9 -70.0 -32.45 -69.65 -32.05 -69.3 -31.65 -68.95 -31.25 -68.55 -30.85 -68.2 -30.45 -67.8 -30.1 -67.4 -29.75 -67.0 -29.4 -66.6 -29.05 -66.2 -28.7 -65.75 -28.35 -65.35 -28.05 -64.9 -28.05 -64.9 -28.0 -64.85 -27.95 -64.8 -27.9 -64.75 -27.9 -64.7 -27.85 -64.65 -27.8 -64.6 -27.8 -64.55 -27.8 -64.5 -27.8 -64.45 -27.75 -64.4 -27.8 -64.35 -27.8 -64.3 -27.8 -64.25 -27.85 -64.15 -27.9 -64.1 -27.9 -64.1 -28.3 -64.1 -28.5 -64.05 -28.7 -64.05 -29.4 -64.05 -30.1 -64.0 -30.8 -63.95 -31.5 -63.85 -32.2 -63.8 -32.9 -63.65 -33.55 -63.55 -34.25 -63.4 -34.9 -63.25 -35.6 -63.05 -36.25 -62.85 -36.9 -62.6 -37.55 -62.35 -38.2 -62.05 -38.85 -61.8 -39.5 -61.45 -40.05 -61.15 -40.65 -60.85 -41.2 -60.5 -41.75 -60.2 -42.3 -59.85 -42.85 -59.5 -43.35 -59.15 -43.9 -58.8 -44.4 -58.4 -44.95 -58.05 -45.45 -57.65 -45.95 -57.25 -46.45 -56.85 -46.95 -56.45 -47.45 -56.05 -47.9 -55.6 -48.1 -55.4 -48.3 -55.25 -48.5 -55.05 -48.65 -54.85 -48.85 -54.65 -49.05 -54.45 -49.2 -54.25 -49.35 -54.05 -49.55 -53.8 -49.7 -53.6 -49.8 -53.4 -49.95 -53.15 -50.05 -52.9 -50.15 -52.7 -50.25 -52.45 -50.35 -52.15 -50.4 -52.05 -50.45 -51.9 -50.5 -51.8 -50.55 -51.7 -50.6 -51.6 -50.65 -51.55 -50.7 -51.45 -50.8 -51.35 -50.85 -51.3 -50.95 -51.2 -51.0 -51.15 -51.1 -51.1 -51.2 -51.0 -51.3 -50.95 -51.4 -50.9 -51.5 -50.8 -54.25 -49.25 -55.45 -48.45 -56.05 -48.05 -56.6 -47.65 -57.2 -47.25 -57.75 -46.8 -58.3 -46.4 -58.8 -45.95 -59.3 -45.45 -59.8 -45.0 -60.3 -44.5 -60.8 -44.0 -61.25 -43.5 -61.7 -43.0 -62.15 -42.45 -62.55 -41.9 -63.0 -41.35 -63.35 -40.75 -63.7 -40.2 -64.05 -39.6 -64.4 -39.05 -64.65 -38.45 -64.95 -37.9 -65.15 -37.3 -65.4 -36.7 -65.6 -36.1 -65.8 -35.5 -65.9 -34.85 -66.05 -34.25 -66.15 -33.6 -66.25 -33.0 -66.25 -32.35 -66.3 -31.7 -66.3 -31.0 -66.3 -30.95 -66.3 -30.85 -66.3 -30.7 -66.3 -30.7 -66.3 -30.6 -66.25 -30.5 -66.25 -30.45 -66.25 -30.35 -66.25 -30.25 -66.2 -30.2 -66.2 -30.1 -66.15 -30.05 -66.1 -29.95 -66.05 -29.9 -66.0 -29.8 -65.9 -29.75 -65.8 -29.8 -65.75 -29.9 -65.7 -30.0 -65.65 -30.05 -65.6 -30.15 -65.55 -30.25 -65.5 -30.35 -65.45 -30.45 -65.4 -30.5 -65.35 -30.65 -66.7 -27.45 -65.3 -30.8 -65.25 -30.95 -65.2 -31.0 -65.15 -31.1 -65.1 -31.2 -65.0 -31.4 -64.9 -31.6 -64.75 -31.8 -64.65 -32.0 -64.5 -32.2 -64.4 -32.4 -64.25 -32.6 -64.1 -32.75 -63.95 -32.95 -63.8 -33.1 -63.65 -33.3 -63.5 -33.45 -63.3 -33.65 -63.15 -33.8 -62.95 -33.95 -62.75 -34.1 -62.4 -34.35 -62.0 -34.6 -61.65 -34.85 -61.25 -35.1 -60.9 -35.35 -60.5 -35.55 -60.1 -35.8 -59.7 -36.0 -59.3 -36.2 -58.9 -36.35 -58.5 -36.55 -58.05 -36.7 -57.65 -36.85 -57.2 -37.0 -56.8 -37.15 -56.35 -37.3 -56.1 -37.35 -55.85 -37.4 -55.6 -37.5 -55.4 -37.55 -55.15 -37.55 -54.9 -37.6 -54.65 -37.65 -54.4 -37.65 -54.15 -37.7 -53.9 -37.7 -53.65 -37.7 -53.4 -37.7 -53.15 -37.7 -52.9 -37.7 -52.65 -37.7 -52.4 -37.65 -52.45 -37.65 -52.25 -37.65 -52.15 -37.65 -52.1 -37.65 -52.05 -37.6 -51.95 -37.6 -51.9 -37.6 -51.8 -37.6 -51.75 -37.55 -51.7 -37.55 -51.6 -37.5 -51.55 -37.45 -51.5 -37.4 -51.45 -37.35 -51.4 -37.3 -51.35 -37.2 -51.35 -37.15 -51.4 -37.1 -51.4 -37.05 -51.4 -37.0 -51.45 -36.95 -51.45 -36.95 -51.9 -36.5 -52.3 -36.0 -52.7 -35.55 -53.1 -35.05 -53.5 -34.55 -53.85 -34.05 -54.25 -33.55 -54.6 -33.0 -54.95 -32.5 -55.3 -31.95 -55.6 -31.45 -55.95 -30.9 -56.25 -30.35 -56.55 -29.8 -56.85 -29.25 -57.15 -28.7 -57.8 -27.5 -58.8 -25.65 -60.15 -23.2 -60.45 -22.6 -60.6 -22.35 -60.7 -22.15 -60.85 -21.9 -61.0 -21.65 -61.15 -21.45 -61.3 -21.25 -61.45 -21.0 -61.6 -20.8 -61.75 -20.55 -61.9 -20.35 -62.1 -20.15 -62.25 -19.95 -62.45 -19.75 -62.6 -19.55 -62.8 -19.35 -63.0 -19.15 -63.15 -19.0 -63.25 -18.9 -63.4 -18.8 -63.55 -18.7 -63.7 -18.6 -63.85 -18.5 -64.0 -18.4 -64.15 -18.3 -64.3 -18.2 -64.45 -18.15 -64.6 -18.05 -64.8 -18.0 -64.95 -17.95 -65.15 -17.9 -65.3 -17.8 -65.5 -17.8 -65.75 -17.75 -66.05 -17.7 -66.3 -17.65 -66.6 -17.6 -66.85 -17.55 -67.1 -17.55 -67.35 -17.55 -67.65 -17.55 -67.9 -17.55 -68.2 -17.55 -68.45 -17.6 -68.7 -17.6 -68.95 -17.65 -69.25 -17.7 -69.5 -17.75 -69.8 -17.8 -70.1 -17.85 -70.35 -17.9 -70.65 -18.0 -70.9 -18.1 -71.15 -18.15 -71.4 -18.3 -71.65 -18.4 -71.9 -18.5 -72.15 -18.65 -72.35 -18.8 -72.6 -18.95 -72.8 -19.1 -73.0 -19.3 -73.2 -19.5 -73.4 -19.7 -73.6 -19.9 -73.85 -20.2 -74.1 -20.55 -74.3 -20.45 -74.3 -20.4 -74.35 -20.0 -74.35 -19.9 -74.35 -19.6 -74.35 -19.3 -74.3 -19.0 -74.25 -18.7 -74.25 -18.4 -74.2 -18.1 -74.15 -17.8 -74.1 -17.5 -74.0 -17.2 -73.95 -16.9 -73.85 -16.6 -73.75 -16.3 -73.65 -16.0 -73.55 -15.75 -73.45 -15.45 -73.35 -15.15 -73.2 -14.8 -73.0 -14.45 -72.8 -14.1 -72.6 -13.8 -72.35 -13.5 -72.1 -13.2 -71.9 -12.9 -71.6 -12.65 -71.35 -12.4 -71.05 -12.1 -70.75 -11.9 -70.45 -11.65 -70.15 -11.4 -69.85 -11.2 -69.55 -10.95 -69.2 -10.75 -68.95 -10.6 -68.65 -10.4 -68.35 -10.25 -68.05 -10.1 -67.8 -10.0 -67.5 -9.85 -67.2 -9.7 -66.9 -9.6 -66.6 -9.45 -66.3 -9.35 -66.0 -9.25 -65.7 -9.1 -65.4 -9.0 -65.1 -8.9 -64.8 -8.8 -64.45 -8.7 -64.35 -8.65 -64.2 -8.6 -64.1 -8.6 -63.95 -8.55 -63.8 -8.5 -63.7 -8.5 -63.6 -8.45 -63.5 -8.4 -63.35 -8.35 -63.25 -8.3 -63.1 -8.25 -63.0 -8.2 -62.9 -8.15 -62.8 -8.1 -62.7 -8.0 -62.6 -7.95 -62.6 -7.9 -62.6 -7.85 -62.65 -7.8 -62.65 -7.75 -62.65 -7.7 -62.7 -7.65 -62.7 -7.65 -62.7 -7.6 -63.0 -7.3 -63.05 -7.2 -63.65 -6.65 -64.25 -6.15 -64.9 -5.65 -65.55 -5.2 -66.2 -4.75 -66.85 -4.35 -67.55 -3.95 -68.25 -3.6 -68.95 -3.25 -69.65 -2.95 -70.4 -2.65 -71.15 -2.4 -71.9 -2.15 -72.7 -1.95 -73.5 -1.8 -74.3 -1.65 -74.85 -1.55 -75.35 -1.5 -75.9 -1.45 -76.4 -1.4 -76.95 -1.4 -77.45 -1.4 -78.0 -1.45 -78.5 -1.5 -79.0 -1.6 -79.55 -1.7 -80.05 -1.8 -80.55 -1.95 -81.05 -2.1 -81.55 -2.35 -82.05 -2.55 -82.5 -2.8 -82.75 -2.95 -82.8 -2.95 -82.85 -2.95 -82.9 -2.95 -82.95 -2.95 -83.0 -2.95 -83.05 -2.95 -83.05 -2.9 -83.1 -2.9 -83.15 -2.9 -83.15 -2.85 -83.2 -2.85 -83.2 -2.8 -83.25 -2.75 -83.25 -2.7 -83.25 -2.65 -83.25 -2.65 -83.25 -2.6 -83.25 -2.55 -83.25 -2.55 -83.25 -2.5 -83.25 -2.5 -83.25 -2.45 -83.25 -2.4 -83.2 -2.4 -83.2 -2.35 -83.2 -2.35 -83.2 -2.3 -83.2 -2.25 -83.15 -2.25 -83.15 -2.2 -83.15 -2.2 -83.15 -2.15 -83.1 -2.1 -82.7 -1.25 -82.25 -0.45 -81.8 0.35 -81.35 1.05 -80.85 1.85 -80.3 2.5 -79.75 3.2 -79.15 3.85 -78.5 4.5 -77.85 5.1 -77.2 5.7 -76.45 6.25 -75.75 6.8 -74.95 7.25 -74.15 7.75 -73.3 8.15 -72.95 8.35 -72.6 8.5 -72.2 8.65 -71.85 8.8 -71.5 9.0 -71.1 9.15 -70.75 9.3 -70.4 9.45 -70.0 9.6 -69.65 9.7 -69.25 9.85 -68.9 10.0 -68.5 10.1 -68.1 10.25 -67.75 10.35 -67.35 10.45 -67.3 10.45 -67.25 10.45 -67.25 10.45 -67.15 10.5 -67.1 10.5 -67.05 10.5 -67.0 10.5 -66.95 10.55 -66.9 10.55 -66.85 10.55 -66.8 10.6 -66.8 10.65 -66.75 10.7 -66.75 10.75 -66.7 10.8 -66.7 10.85 -66.7 10.9 -66.7 10.95 -66.75 11.0 -66.75 11.05 -66.8 11.1 -66.8 11.15 -66.85 11.2 -66.9 11.2 -66.9 11.25 -66.95 11.3 -67.0 11.3 -67.05 11.35 -67.15 11.4 -67.15 11.4 -67.2 11.45 -67.25 11.45 -67.7 11.8 -69.45 13.05 -69.9 13.4 -70.4 13.7 -70.9 14.0 -71.35 14.25 -71.85 14.5 -72.35 14.75 -72.85 14.95 -73.4 15.15 -73.9 15.35 -74.45 15.55 -74.95 15.7 -75.5 15.8 -76.05 15.95 -76.6 16.0 -77.2 16.1 -77.75 16.15 -79.75 16.35 -80.85 16.25 -80.95 16.25 -81.05 16.25 -81.15 16.25 -81.25 16.3 -81.3 16.35 -81.4 16.35 -81.45 16.4 -81.5 16.45 -81.55 16.5 -81.6 16.6 -81.65 16.65 -81.65 16.75 -81.7 16.8 -81.7 16.9 -81.7 17.0 -81.7 17.1 -81.7 17.15 -81.7 17.2 -81.65 17.3 -81.65 17.35 -81.65 17.4 -81.65 17.45 -81.6 17.5 -81.6 17.6 -81.6 17.65 -81.55 17.7 -81.55 17.75 -81.55 17.8 -81.5 17.9 -81.5 17.95 -81.45 18.0 -81.45 18.05 -81.15 18.95 -80.7 19.8 -80.3 20.6 -79.85 21.4 -79.35 22.15 -78.8 22.8 -78.2 23.5 -77.6 24.1 -76.95 24.7 -76.25 25.25 -75.55 25.8 -74.8 26.3 -74.05 26.8 -73.2 27.2 -72.4 27.65 -71.5 28.0 -71.05 28.2 -70.55 28.4 -70.05 28.55 -69.55 28.7 -69.05 28.85 -68.55 29.0 -68.05 29.15 -67.55 29.25 -67.05 29.4 -66.55 29.5 -66.05 29.6 -65.55 29.65 -65.0 29.75 -64.5 29.8 -64.0 29.9 -63.45 29.95 -63.15 30.0 -62.9 30.0 -62.6 30.05 -62.35 30.05 -62.05 30.05 -61.75 30.1 -61.5 30.1 -61.2 30.1 -60.95 30.1 -60.65 30.15 -60.4 30.15 -60.1 30.15 -59.8 30.15 -59.55 30.15 -59.25 30.15 -58.95 30.15 -58.8 30.15 -58.45 30.15 -58.1 30.15 -57.95 30.1 -57.9 30.1 -57.85 30.1 -57.8 30.15 -57.75 30.15 -57.75 30.2 -57.7 30.2 -57.7 30.25 -57.7 30.3 -57.7 30.35 -57.7 30.4 -57.7 30.45 -57.7 30.45 -57.7 30.5 -57.7 30.55 -57.75 30.55 -57.75 30.6 -58.8 31.5 -59.05 31.7 -59.4 32.0 -59.8 32.25 -60.2 32.5 -60.55 32.7 -60.95 32.95 -61.35 33.15 -61.75 33.3 -62.2 33.45 -62.6 33.6 -63.05 33.7 -63.45 33.8 -63.9 33.85 -64.35 33.95 -64.8 33.95 -65.3 33.95 -65.75 33.95 -66.0 33.9 -67.65 33.9 -67.7 34.1 -67.7 34.3 -67.75 34.5 -67.75 34.7 -67.75 34.85 -67.7 35.05 -67.7 35.25 -67.65 35.4 -67.65 35.6 -67.55 35.75 -67.5 35.9 -67.45 36.1 -67.4 36.25 -67.3 36.4 -67.25 36.55 -67.15 36.75 -66.65 37.75 -66.1 38.7 -65.55 39.6 -64.95 40.45 -64.35 41.25 -63.65 42.05 -63.0 42.8 -62.3 43.5 -61.6 44.15 -60.9 44.8 -60.2 45.4 -59.45 45.95 -58.75 46.45 -58.0 46.95 -57.35 47.4 -56.6 47.8 -56.55 47.85 -44.6 52.7 -43.15 53.3 -40.75 54.1 -37.6 55.15 -36.9 55.4 -36.45 55.55 -36.3 55.6 -35.95 55.75 -35.7 55.8 -35.4 55.95 -35.15 56.0 -34.85 56.1 -34.6 56.15 -34.3 56.25 -34.05 56.3 -33.75 56.35 -33.45 56.4 -33.15 56.45 -32.85 56.5 -32.5 56.5 -32.2 56.55 -31.7 56.55 -31.2 56.55 -30.75 56.5 -30.3 56.45 -29.85 56.4 -29.45 56.3 -29.05 56.25 -28.7 56.15 -28.35 56.05 -28.05 55.95 -27.75 55.85 -27.55 55.75 -27.35 55.65 -27.25 55.55 -27.15 55.45 -27.15 55.4 -27.15 55.35 -27.3 55.3 -27.4 55.25 -27.65 55.2 -27.85 55.2 -28.25 55.2 -25.0 55.3 -29.05 55.2 -29.6 55.15 -30.05 55.15 -30.65 55.1 -31.2 55.05 -31.85 55.0 -32.5 54.9 -33.25 54.8 -34.0 54.7 -36.1 54.25 -40.75 52.7 -44.2 51.65 -49.45 49.35 -53.5 47.65 -55.05 46.75 -55.4 46.55 -55.65 46.4 -56.0 46.2 -56.35 46.0 -56.75 45.75 -57.1 45.5 -57.5 45.25 -57.9 45.0 -58.3 44.7 -58.75 44.4 -59.15 44.05 -59.6 43.7 -60.05 43.3 -60.45 42.95 -60.9 42.55 -61.35 42.1 -61.6 41.85 -61.8 41.6 -62.05 41.35 -62.25 41.1 -62.5 40.85 -62.7 40.6 -62.95 40.35 -63.15 40.05 -63.35 39.8 -63.55 39.5 -63.75 39.25 -63.95 38.95 -64.15 38.7 -64.35 38.4 -64.55 38.1 -64.75 37.8 -64.75 37.75 -64.8 37.75 -64.7 37.85 -64.85 37.65 -64.85 37.65 -64.9 37.6 -64.9 37.55 -64.9 37.55 -64.95 37.45 -65.0 37.35 -65.05 37.25 -65.1 37.1 -65.15 37.05 -65.25 36.9 -65.35 36.8 -65.4 36.7 -65.45 36.6 -65.5 36.5 -65.55 36.4 -65.55 36.3 -65.6 36.2 -65.55 36.1 -65.55 36.0 -65.5 35.9 -65.45 35.8 -65.35 35.75 -65.3 35.7 -65.2 35.65 -65.1 35.65 -65.0 35.6 -64.9 35.6 -64.75 35.6 -64.65 35.6 -64.55 35.6 -64.3 35.65 -64.3 35.65 -64.15 35.65 -64.05 35.65 -63.95 35.65 -63.85 35.6 -63.5 35.55 -63.2 35.5 -62.85 35.4 -62.55 35.35 -62.2 35.25 -61.9 35.15 -61.6 35.05 -61.25 34.95 -60.95 34.8 -60.65 34.7 -60.35 34.55 -60.05 34.4 -59.75 34.25 -59.5 34.05 -59.2 33.9 -58.95 33.7 -58.7 33.55 -58.5 33.4 -58.3 33.2 -58.1 33.05 -57.85 32.9 -57.65 32.7 -57.45 32.55 -57.25 32.4 -57.0 32.2 -56.8 32.05 -56.6 31.85 -56.4 31.7 -56.2 31.5 -56.05 31.3 -55.85 31.1 -55.65 30.95 -55.5 30.8 -55.35 30.65 -55.25 30.5 -55.1 30.35 -54.95 30.2 -54.85 30.05 -54.75 29.85 -54.65 29.7 -54.5 29.5 -54.45 29.35 -54.35 29.15 -54.25 28.95 -54.2 28.75 -54.15 28.55 -54.1 28.35 -54.05 28.1 -54.25 28.1 -54.45 28.1 -54.65 28.05 -54.85 28.05 -55.05 28.05 -55.25 28.05 -55.45 28.1 -55.65 28.1 -55.85 28.1 -56.05 28.1 -56.25 28.1 -56.4 28.15 -56.6 28.15 -56.8 28.15 -57.0 28.2 -57.2 28.2 -57.9 28.3 -58.55 28.35 -59.25 28.4 -59.9 28.4 -60.6 28.4 -61.25 28.4 -61.95 28.35 -62.6 28.3 -63.3 28.25 -63.95 28.15 -64.6 28.05 -65.3 27.95 -65.95 27.8 -66.65 27.65 -67.3 27.5 -67.95 27.35 -68.35 27.25 -68.7 27.15 -69.1 27.05 -69.45 26.95 -69.85 26.8 -70.2 26.7 -70.6 26.55 -70.95 26.4 -71.3 26.25 -71.65 26.1 -72.0 25.95 -72.35 25.8 -72.7 25.6 -73.0 25.4 -73.35 25.2 -73.7 25.0 -74.15 24.7 -74.55 24.4 -74.95 24.1 -75.35 23.8 -75.75 23.45 -76.15 23.15 -76.5 22.8 -76.85 22.45 -77.25 22.05 -77.55 21.7 -77.9 21.3 -78.15 20.9 -78.5 20.45 -78.75 20.05 -79.0 19.6 -79.25 19.1 -79.5 18.55 -79.5 18.5 -79.5 18.45 -79.5 18.4 -79.55 18.35 -79.55 18.35 -79.55 18.3 -79.5 18.25 -79.5 18.2 -79.5 18.2 -79.5 18.15 -79.45 18.15 -79.45 18.1 -79.4 18.1 -79.35 18.05 -79.3 18.05 -79.3 18.05 -79.2 18.0 -79.15 18.0 -78.7 18.0 -78.4 17.95 -78.2 17.95 -77.55 17.9 -76.9 17.8 -76.25 17.7 -75.65 17.6 -75.05 17.45 -74.4 17.3 -73.8 17.1 -73.2 16.9 -72.65 16.7 -72.05 16.45 -71.45 16.2 -70.9 15.95 -70.35 15.65 -69.8 15.3 -69.25 14.95 -68.75 14.6 -65.55 12.3 -64.9 11.7 -64.8 11.65 -64.75 11.55 -64.65 11.5 -64.55 11.45 -64.5 11.4 -64.4 11.35 -64.3 11.35 -64.25 11.3 -64.15 11.3 -64.05 11.3 -63.95 11.3 -63.9 11.3 -63.8 11.3 -63.7 11.3 -63.6 11.3 -63.5 11.3 -63.25 11.35 -63.0 11.4 -62.75 11.45 -62.45 11.5 -62.2 11.55 -61.95 11.55 -61.7 11.6 -61.45 11.6 -61.2 11.65 -60.9 11.65 -60.65 11.65 -60.4 11.65 -60.15 11.65 -59.9 11.65 -59.65 11.65 -59.35 11.65 -59.1 11.65 -58.8 11.6 -58.55 11.55 -58.25 11.5 -58.0 11.45 -57.75 11.4 -57.5 11.35 -57.2 11.25 -56.95 11.2 -56.7 11.1 -56.45 11.0 -56.15 10.9 -55.9 10.8 -55.65 10.7 -55.4 10.55 -55.15 10.45 -55.2 10.4 -55.3 10.35 -55.35 10.3 -55.4 10.25 -55.45 10.25 -55.55 10.2 -55.6 10.2 -55.65 10.2 -55.7 10.2 -55.75 10.2 -55.8 10.2 -55.85 10.2 -55.85 10.2 -55.95 10.2 -56.05 10.2 -56.1 10.2 -57.15 10.2 -58.0 10.2 -58.65 10.2 -59.3 10.2 -59.9 10.2 -60.55 10.15 -61.2 10.1 -61.8 10.0 -62.45 9.9 -63.05 9.8 -63.65 9.65 -64.3 9.55 -64.9 9.4 -65.55 9.2 -66.15 9.05 -66.75 8.85 -67.35 8.7 -67.95 8.5 -68.45 8.35 -68.9 8.15 -69.35 8.0 -69.8 7.85 -70.25 7.65 -70.7 7.45 -71.15 7.3 -71.6 7.1 -72.05 6.9 -72.45 6.65 -72.9 6.45 -73.3 6.2 -73.75 6.0 -74.15 5.75 -74.55 5.5 -74.95 5.25 -75.3 5.0 -75.65 4.75 -75.95 4.55 -76.3 4.25 -76.6 4.0 -76.9 3.75 -77.2 3.45 -77.5 3.15 -77.75 2.9 -78.05 2.6 -78.3 2.3 -78.55 2.0 -78.85 1.65 -79.1 1.35 -79.35 1.05 -79.6 0.7 -79.6 0.65 -79.65 0.65 -79.65 0.6 -79.7 0.55 -79.7 0.5 -79.7 0.5 -79.75 0.45 -79.75 0.4 -79.75 0.35 -79.75 0.3 -79.75 0.3 -79.75 0.25 -79.75 0.2 -79.75 0.15 -79.7 0.15 -79.7 0.1 -79.7 0.1 -79.65 0.05 -79.65 0.05 -79.6 0.05 -79.6 0.05 -79.55 0.0 -79.5 0.0 -79.5 0.0 -79.45 0.0 -79.4 0.0 -79.4 0.0 -79.35 0.0 -79.3 0.0 -79.3 0.0 -79.25 0.0 -79.2 0.0 -78.55 0.15 -77.85 0.2 -77.2 0.25 -76.55 0.25 -75.9 0.25 -75.25 0.2 -74.6 0.15 -73.95 0.05 -73.35 -0.05 -72.7 -0.2 -72.1 -0.35 -71.45 -0.55 -70.85 -0.75 -70.2 -0.95 -69.6 -1.2 -68.95 -1.45 -68.4 -1.65 -67.85 -1.9 -67.35 -2.15 -66.85 -2.45 -66.3 -2.7 -65.85 -3.0 -65.35 -3.3 -64.85 -3.65 -64.4 -3.95 -63.95 -4.3 -63.45 -4.65 -63.05 -5.0 -62.6 -5.4 -62.15 -5.8 -61.75 -6.2 -61.35 -6.6 -60.75 -7.2 -60.75 -7.2 -60.7 -7.25 -60.65 -7.3 -60.6 -7.35 -60.5 -7.4 -60.45 -7.45 -60.4 -7.5 -60.35 -7.5 -60.25 -7.55 -60.2 -7.55 -60.1 -7.55 -60.05 -7.6 -60.0 -7.6 -59.9 -7.6 -59.85 -7.55 -59.75 -7.55 -59.65 -7.55 -58.5 -7.4 -57.1 -7.25 -56.8 -7.25 -56.45 -7.25 -56.15 -7.25 -55.85 -7.25 -55.5 -7.25 -55.2 -7.3 -54.9 -7.35 -54.6 -7.45 -54.3 -7.5 -54.0 -7.6 -53.7 -7.7 -53.4 -7.8 -53.15 -7.95 -52.85 -8.05 -52.55 -8.2 -52.3 -8.35 -52.2 -8.45 -52.0 -8.5 -51.9 -8.55 -51.75 -8.65 -51.5 -8.8 -51.45 -8.8 -51.3 -8.9 -51.2 -8.95 -51.05 -9.05 -50.9 -9.1 -50.8 -9.2 -50.7 -9.3 -50.55 -9.4 -50.45 -9.5 -50.35 -9.6 -50.3 -9.7 -50.6 -9.7 -52.4 -9.25 -52.55 -9.2 -52.65 -9.2 -52.8 -9.15 -52.95 -9.15 -53.1 -9.1 -53.2 -9.1 -53.35 -9.05 -53.5 -9.05 -53.65 -9.0 -53.75 -9.0 -53.9 -8.95 -54.05 -8.95 -54.2 -8.95 -54.35 -8.95 -54.45 -8.9 -54.6 -8.9 -55.6 -8.85 -56.55 -8.85 -57.5 -8.9 -58.45 -8.95 -59.4 -9.05 -60.3 -9.2 -61.25 -9.35 -62.15 -9.55 -63.05 -9.8 -63.95 -10.1 -64.8 -10.4 -65.65 -10.8 -66.55 -11.2 -67.35 -11.65 -68.2 -12.15 -69.0 -12.7 -69.3 -12.9 -69.55 -13.1 -69.8 -13.3 -70.05 -13.5 -70.3 -13.7 -70.5 -13.9 -70.7 -14.15 -70.9 -14.35 -71.1 -14.6 -71.3 -14.85 -71.5 -15.15 -71.65 -15.4 -71.8 -15.7 -71.9 -16.0 -72.0 -16.3 -72.1 -16.6 -72.0 -16.65 -71.9 -16.7 -71.85 -16.75 -71.75 -16.75 -71.7 -16.75 -71.6 -16.75 -71.5 -16.75 -71.45 -16.7 -71.35 -16.7 -71.3 -16.65 -71.25 -16.6 -71.15 -16.55 -71.0 -16.5 -71.0 -16.5 -70.9 -16.45 -70.85 -16.4 -70.45 -16.25 -70.0 -16.1 -69.6 -16.0 -69.15 -15.9 -68.75 -15.85 -68.3 -15.8 -67.9 -15.75 -67.5 -15.75 -67.05 -15.8 -66.65 -15.8 -66.2 -15.85 -65.8 -15.95 -65.4 -16.05 -64.95 -16.15 -64.55 -16.3 -64.1 -16.45 -63.95 -16.5 -63.75 -16.6 -63.6 -16.65 -63.45 -16.75 -63.25 -16.85 -63.1 -16.9 -62.95 -17.0 -62.8 -17.1 -62.65 -17.2 -62.55 -17.35 -62.4 -17.45 -62.25 -17.55 -62.1 -17.7 -62.0 -17.8 -61.85 -17.95 -61.7 -18.05 -61.5 -18.25 -61.3 -18.5 -61.1 -18.7 -60.9 -18.95 -60.75 -19.2 -60.55 -19.4 -60.4 -19.65 -60.2 -19.9 -60.05 -20.15 -59.85 -20.4 -59.7 -20.65 -59.55 -20.9 -59.4 -21.15 -59.25 -21.4 -59.1 -21.65 -58.95 -21.9 -57.05 -25.5 -55.6 -28.2 -55.4 -28.6 -55.2 -28.95 -54.95 -29.35 -54.75 -29.7 -54.5 -30.1 -54.3 -30.45 -54.05 -30.85 -53.85 -31.2 -53.6 -31.6 -53.35 -31.95 -53.1 -32.3 -52.85 -32.65 -52.6 -33.0 -52.35 -33.35 -52.05 -33.7 -51.8 -34.0 -51.45 -34.45 -50.8 -35.1 -50.05 -35.9 -49.85 -36.15 -49.7 -36.35 -48.35 -37.9 -48.6 -38.1 -48.85 -38.25 -49.1 -38.4 -49.35 -38.55 -49.6 -38.7 -49.85 -38.8 -50.1 -38.9 -50.35 -39.0 -50.6 -39.1 -50.9 -39.15 -51.15 -39.2 -51.45 -39.25 -51.7 -39.3 -52.0 -39.35 -52.25 -39.4 -52.55 -39.4 -52.95 -39.45 -53.4 -39.45 -53.8 -39.45 -54.25 -39.4 -54.65 -39.35 -55.1 -39.3 -55.5 -39.25 -55.9 -39.15 -56.3 -39.05 -56.7 -38.95 -57.1 -38.85 -57.5 -38.7 -57.9 -38.6 -58.3 -38.45 -58.7 -38.3 -59.1 -38.1 -59.35 -38.0 -59.65 -37.9 -59.9 -37.75 -60.15 -37.65 -60.4 -37.5 -60.65 -37.4 -60.95 -37.25 -61.2 -37.1 -61.45 -36.95 -61.7 -36.8 -61.95 -36.7 -62.2 -36.5 -62.4 -36.35 -62.65 -36.2 -62.9 -36.05 -63.15 -35.9 -63.15 -35.9 -63.2 -35.85 -63.25 -35.85 -63.25 -35.85 -63.3 -35.8 -63.35 -35.8 -63.4 -35.8 -63.4 -35.8 -63.45 -35.8 -63.5 -35.8 -63.55 -35.8 -63.55 -35.8 -63.6 -35.8 -63.6 -35.8 -63.65 -35.85 -63.65 -35.85 -63.7 -35.85 -63.7 -35.9 -63.75 -35.9 -63.75 -35.95 -63.8 -35.95 -63.8 -36.0 -63.8 -36.05 -63.8 -36.05 -63.85 -36.1 -63.85 -36.15 -63.85 -36.2 -63.8 -36.2 -63.8 -36.25 -63.8 -36.3 -63.8 -36.35 -63.75 -36.4 -63.65 -36.6 -63.6 -36.85 -63.5 -37.05 -63.4 -37.25 -63.35 -37.45 -63.25 -37.7 -63.15 -37.9 -63.0 -38.1 -62.9 -38.3 -62.8 -38.5 -62.7 -38.7 -62.6 -38.9 -62.45 -39.1 -62.35 -39.3 -62.2 -39.5 -62.1 -39.7 -61.75 -40.2 -61.4 -40.7 -61.05 -41.2 -60.65 -41.65 -60.25 -42.15 -59.85 -42.6 -59.45 -43.0 -59.0 -43.45 -58.55 -43.85 -58.1 -44.3 -57.65 -44.7 -57.2 -45.1 -56.75 -45.45 -56.25 -45.85 -55.75 -46.2 -55.25 -46.55 -54.75 -46.9 -54.3 -47.2 -53.8 -47.5 -53.3 -47.85 -52.8 -48.15 -52.3 -48.45 -51.8 -48.75 -51.3 -49.0 -50.8 -49.3 -50.3 -49.6 -49.8 -49.85 -49.25 -50.1 -48.75 -50.35 -48.2 -50.6 -47.7 -50.85 -47.15 -51.1 -46.7 -51.3 -46.25 -51.45 -45.75 -51.65 -45.3 -51.8 -44.85 -52.0 -44.4 -52.15 -43.9 -52.3 -43.45 -52.5 -43.0 -52.65 -42.5 -52.8 -42.05 -52.95 -41.55 -53.05 -41.1 -53.2 -40.6 -53.35 -40.1 -53.45 -39.65 -53.6 -38.5 -53.9 -36.65 -54.35 -34.35 -54.85 -33.6 -55.05 -33.6 -55.15 -33.65 -55.2 -33.65 -55.25 -33.7 -55.3 -33.7 -55.35 -33.75 -55.35 -33.8 -55.4 -33.85 -55.4 -33.9 -55.4 -33.95 -55.4 -33.95 -55.45 -34.05 -55.45 -34.05 -55.45 -34.1 -55.4 -34.2 -55.4 -34.2 -55.4 -34.55 -55.4 -34.9 -55.4 -35.25 -55.4 -35.55 -55.4 -35.9 -55.4 -36.2 -55.35 -36.55 -55.35 -36.9 -55.35 -37.25 -55.3 -37.55 -55.3 -37.9 -55.25 -38.2 -55.2 -38.55 -55.2 -38.9 -55.15 -39.25 -55.1 -39.55 -55.0 -43.4 -54.25 -45.4 -53.55 -45.95 -53.4 -47.95 -52.65 -48.0 -52.7 -48.0 -52.8 -48.0 -52.85 -48.0 -52.9 -48.0 -52.95 -48.0 -53.0 -48.0 -53.05 -47.95 -53.1 -47.95 -53.15 -47.9 -53.2 -47.9 -53.2 -47.85 -53.25 -47.8 -53.3 -47.75 -53.35 -47.7 -53.4 -47.7 -53.4 -47.35 -53.75 -47.0 -54.15 -46.65 -54.45 -46.25 -54.8 -45.9 -55.15 -45.5 -55.45 -45.15 -55.8 -44.75 -56.1 -44.35 -56.4 -43.95 -56.7 -43.55 -57.0 -43.1 -57.3 -42.7 -57.55 -42.25 -57.85 -41.85 -58.1 -41.4 -58.4 -41.2 -58.55 -40.95 -58.65 -40.75 -58.8 -40.55 -58.95 -40.3 -59.05 -40.1 -59.2 -39.85 -59.3 -39.65 -59.45 -39.4 -59.55 -39.2 -59.7 -38.95 -59.8 -38.75 -59.9 -38.5 -60.05 -38.25 -60.15 -38.05 -60.25 -37.8 -60.35 -37.15 -60.65 -36.5 -60.9 -35.9 -61.15 -35.2 -61.35 -34.55 -61.55 -33.9 -61.7 -33.25 -61.9 -32.55 -62.0 -31.9 -62.1 -31.2 -62.2 -30.5 -62.25 -29.8 -62.3 -29.15 -62.35 -28.45 -62.35 -27.75 -62.35 -27.05 -62.35 -26.95 -62.35 -26.85 -62.35 -26.75 -62.3 -26.7 -62.3 -26.6 -62.25 -26.55 -62.25 -26.45 -62.2 -26.4 -62.15 -26.3 -62.15 -26.25 -62.1 -26.2 -62.05 -26.1 -62.0 -26.05 -61.95 -26.0 -61.85 -25.95 -61.8 -25.9 -61.75 -25.65 -61.4 -24.55 -60.2 -24.55 -60.2 -24.25 -60.05 -24.3 -60.5 -24.4 -60.95 -24.5 -61.4 -24.65 -61.8 -24.8 -62.2 -24.95 -62.65 -25.1 -63.05 -25.25 -63.45 -25.45 -63.85 -25.65 -64.25 -25.85 -64.65 -26.1 -65.0 -26.3 -65.4 -26.6 -65.75 -26.85 -66.1 -27.15 -66.45 -27.45 -66.85 -27.75 -67.15 -28.05 -67.55 -28.3 -67.85 -28.65 -68.25 -28.9 -68.55 -29.25 -68.9 -29.55 -69.25 -29.85 -69.55 -30.2 -69.85 -30.55 -70.2 -30.85 -70.5 -31.25 -70.8 -31.6 -71.1 -31.95 -71.35 -32.3 -71.65 -32.35 -71.65 -32.35 -71.7 -32.4 -71.7 -32.4 -71.7 -32.45 -71.75 -32.45 -71.75 -32.5 -71.75 -32.5 -71.8 -32.5 -71.8 -32.55 -71.85 -32.55 -71.9 -32.55 -71.9 -32.55 -71.95 -32.55 -72.0 -32.55 -72.05 -32.55 -72.1 -32.5 -72.15 -32.5 -72.2 -32.45 -72.2 -32.4 -72.2 -32.35 -72.25 -32.3 -72.25 -32.25 -72.25 -32.2 -72.25 -32.15 -72.25 -32.1 -72.25 -32.05 -72.25 -32.0 -72.25 -31.9 -72.25 -31.9 -72.25 -31.85 -72.25 -31.8 -72.25 -27.75 -72.25 -26.25 -72.2 -25.95 -72.2 -25.6 -72.15 -25.3 -72.1 -25.0 -72.05 -24.7 -72.0 -24.4 -71.95 -24.1 -71.9 -23.8 -71.8 -23.5 -71.75 -23.2 -71.65 -22.9 -71.55 -22.6 -71.45 -22.3 -71.4 -22.0 -71.25 -21.9 -71.25 -21.4 -71.1 -21.0 -70.95 -20.6 -70.85 -20.25 -70.7 -19.85 -70.55 -19.5 -70.35 -19.1 -70.2 -18.75 -70.05 -18.35 -69.85 -18.0 -69.7 -17.65 -69.5 -17.25 -69.3 -16.9 -69.1 -16.55 -68.95 -16.2 -68.7 -15.85 -68.5 -15.5 -68.3 -15.35 -68.2 -15.25 -68.15 -15.1 -68.05 -15.0 -67.95 -14.85 -67.85 -14.8 -67.75 -14.7 -67.65 -14.6 -67.55 -14.5 -67.45 -14.45 -67.35 -14.4 -67.2 -14.35 -67.05 -14.3 -66.9 -14.3 -66.75 -14.3 -66.6 -14.3 -66.45 -14.3 -66.35 -14.3 -66.25 -14.3 -66.15 -14.3 -66.05 -14.3 -65.95 -14.25 -65.85 -14.25 -65.7 -14.25 -65.6 -14.2 -65.5 -14.15 -65.4 -14.15 -65.3 -14.1 -65.2 -14.05 -65.1 -14.0 -65.0 -13.95 -64.9 -13.9 -64.75 -13.7 -65.35 -12.9 -67.45 -12.3 -69.05 -11.95 -70.05 -11.85 -70.3 -11.75 -70.55 -11.7 -70.8 -11.6 -71.05 -11.5 -71.3 -11.4 -71.55 -11.3 -71.8 -11.15 -72.0 -11.05 -72.25 -10.95 -72.5 -10.8 -72.75 -10.7 -72.95 -10.55 -73.2 -10.4 -73.4 -10.3 -73.65 -10.15 -73.85 -9.65 -74.55 -9.15 -75.2 -8.65 -75.85 -8.15 -76.45 -7.6 -77.1 -7.05 -77.7 -6.45 -78.25 -5.85 -78.8 -5.25 -79.4 -4.65 -79.9 -4.0 -80.4 -3.35 -80.9 -2.65 -81.35 -1.95 -81.8 -1.25 -82.25 -0.45 -82.6 -0.2 -82.75 0.05 -82.85 0.3 -82.95 0.55 -83.05 0.8 -83.15 1.1 -83.25 1.35 -83.35 1.6 -83.45 1.85 -83.5 2.15 -83.6 2.4 -83.65 2.7 -83.75 2.95 -83.8 3.25 -83.85 3.5 -83.9 3.8 -83.95 4.1 -84.0 4.4 -84.05 4.7 -84.1 5.05 -84.15 5.35 -84.15 5.65 -84.2 5.95 -84.25 6.25 -84.25 6.6 -84.25 6.9 -84.3 7.2 -84.3 7.55 -84.3 7.85 -84.3 8.15 -84.3 8.45 -84.3 8.8 -84.3 8.8 -84.3 8.85 -84.3 8.45 -84.3 8.9 -84.3 8.95 -84.3 9.0 -84.3 9.0 -84.3 9.05 -84.3 9.05 -84.3 9.1 -84.25 9.1 -84.25 9.15 -84.25 9.15 -84.2 9.15 -84.2 9.2 -84.15 9.2 -84.1 9.2 -84.05 9.2 -84.0 9.15 -83.95 9.15 -83.9 9.15 -83.85 9.1 -83.8 9.1 -83.8 9.05 -83.75 9.05 -83.7 9.0 -83.65 8.55 -83.2 8.1 -82.75 7.7 -82.25 7.25 -81.75 6.85 -81.3 6.5 -80.8 6.1 -80.3 5.75 -79.75 5.4 -79.25 5.05 -78.7 4.7 -78.15 4.4 -77.6 4.05 -77.05 3.75 -76.5 3.45 -75.95 3.2 -75.35 2.9 -74.8 2.65 -74.2 2.45 -73.65 2.25 -73.05 2.05 -72.45 1.9 -71.85 1.75 -71.25 1.7 -70.65 1.6 -70.05 1.55 -69.4 1.5 -68.8 1.45 -68.15 1.45 -67.5 1.5 -66.85 1.55 -66.2 1.6 -65.5 2.4 -68.5 2.55 -68.95 2.6 -69.1 2.65 -69.3 2.7 -69.45 2.8 -69.6 2.85 -69.8 2.9 -69.95 3.0 -70.1 3.05 -70.3 3.15 -70.45 3.2 -70.6 3.3 -70.75 3.4 -70.9 3.5 -71.05 3.6 -71.2 3.7 -71.35 3.8 -71.5 3.95 -71.7 4.1 -71.85 4.25 -72.05 4.4 -72.2 4.55 -72.35 4.7 -72.5 4.9 -72.65 5.05 -72.75 5.25 -72.9 5.45 -73.0 5.65 -73.1 5.85 -73.2 6.05 -73.3 6.25 -73.35 6.5 -73.4 6.7 -73.45 8.0 -73.8 10.25 -74.25 10.6 -74.3 10.9 -74.4 11.25 -74.45 11.55 -74.55 11.9 -74.6 12.2 -74.7 12.55 -74.8 12.85 -74.9 13.2 -75.0 13.5 -75.1 13.8 -75.2 14.1 -75.35 14.4 -75.45 14.7 -75.6 15.0 -75.75 15.3 -75.9 15.65 -76.1 16.0 -76.3 16.3 -76.5 16.65 -76.75 16.95 -76.95 17.25 -77.2 17.55 -77.45 17.8 -77.7 18.1 -77.95 18.35 -78.25 18.65 -78.5 18.9 -78.8 19.15 -79.1 19.35 -79.4 19.6 -79.7 19.8 -80.05 20.1 -80.5 20.4 -80.9 20.65 -81.35 20.9 -81.8 21.15 -82.25 21.4 -82.75 21.6 -83.2 21.85 -83.65 22.05 -84.15 22.2 -84.6 22.4 -85.1 22.55 -85.6 22.7 -86.1 22.85 -86.6 22.95 -87.1 23.05 -87.6 23.05 -87.65 23.4 -89.1 24.15 -88.15 24.75 -87.0 25.3 -85.85 25.7 -84.5 26.15 -83.15 26.4 -81.7 26.65 -80.25 26.7 -78.7 26.8 -77.2 26.7 -75.65 26.6 -74.1 26.3 -72.55 26.05 -71.05 25.6 -69.6 25.15 -68.1 24.5 -66.8 24.55 -66.75 24.6 -66.75 24.7 -66.75 24.75 -66.75 24.8 -66.75 24.8 -66.75 24.85 -66.8 24.9 -66.8 24.95 -66.85 24.95 -66.9 25.0 -66.9 25.05 -66.95 25.1 -67.0 25.1 -67.0 25.15 -67.05 25.15 -67.1 25.35 -67.25 25.55 -67.4 25.7 -67.6 25.9 -67.75 26.05 -67.95 26.2 -68.15 26.35 -68.3 26.5 -68.5 26.65 -68.7 26.75 -68.95 26.9 -69.15 27.0 -69.35 27.1 -69.55 27.2 -69.8 27.3 -70.0 27.4 -70.25 27.45 -70.35 27.5 -70.45 27.55 -70.5 27.6 -70.6 27.65 -70.65 27.7 -70.75 27.75 -70.8 27.8 -70.85 27.85 -70.9 27.95 -70.95 28.0 -71.0 28.1 -71.05 28.2 -71.05 28.3 -71.1 28.4 -71.15 28.5 -71.15 29.2 -71.25 29.85 -71.45 30.55 -71.6 31.2 -71.85 31.85 -72.05 32.5 -72.3 33.1 -72.6 33.7 -72.9 34.3 -73.2 34.9 -73.55 35.5 -73.85 36.1 -74.25 36.65 -74.6 37.2 -75.05 37.75 -75.45 38.3 -75.85 40.1 -77.3 42.7 -79.95 43.0 -80.25 43.3 -80.55 43.55 -80.85 43.85 -81.15 44.1 -81.45 44.4 -81.8 44.65 -82.1 44.9 -82.45 45.15 -82.75 45.4 -83.1 45.6 -83.45 45.85 -83.8 46.05 -84.15 46.25 -84.5 46.5 -84.85 46.65 -85.25 46.65 -85.3 46.7 -85.3 46.7 -85.35 46.75 -85.4 46.75 -85.4 46.75 -85.45 46.8 -85.5 46.8 -85.5 46.85 -85.55 46.85 -85.6 46.9 -85.6 46.95 -85.65 47.0 -85.65 47.0 -85.65 47.05 -85.7 47.1 -85.7 47.15 -85.65 47.2 -85.6 47.25 -85.6 47.3 -85.55 47.35 -85.5 47.35 -85.4 47.4 -85.35 47.4 -85.3 47.4 -85.25 47.45 -85.2 47.45 -85.15 47.45 -85.1 47.45 -85.05 47.45 -84.95 47.5 -84.9 47.5 -84.85 47.65 -83.75 47.7 -82.7 47.75 -81.6 47.7 -80.55 47.65 -79.5 47.5 -78.5 47.35 -77.45 47.1 -76.45 46.85 -75.45 46.45 -74.5 46.1 -73.5 45.65 -72.55 45.25 -71.6 44.7 -70.65 44.15 -69.75 43.5 -68.85 43.35 -68.65 43.25 -68.45 43.1 -68.3 42.95 -68.1 42.8 -67.95 42.65 -67.75 42.5 -67.6 42.3 -67.4 42.2 -67.25 42.0 -67.05 41.55 -66.55 41.7 -66.7 41.5 -66.5 41.35 -66.35 41.2 -66.2 41.05 -66.0 41.0 -65.95 40.95 -65.9 40.9 -65.85 40.85 -65.85 40.8 -65.8 40.7 -65.8 40.65 -65.8 40.6 -65.75 40.55 -65.75 40.5 -65.75 40.45 -65.75 40.35 -65.75 40.25 -65.75 40.25 -65.75 40.15 -65.75 40.1 -65.7 39.85 -65.65 39.65 -65.65 39.4 -65.6 39.2 -65.55 38.95 -65.5 38.75 -65.4 38.5 -65.35 38.3 -65.25 38.1 -65.2 37.85 -65.1 37.65 -64.95 37.45 -64.85 37.25 -64.75 37.05 -64.6 36.85 -64.45 36.65 -64.3 36.75 -64.25 36.8 -64.2 36.9 -64.15 37.0 -64.15 37.05 -64.1 37.15 -64.1 37.2 -64.1 37.3 -64.1 37.4 -64.1 37.45 -64.1 37.5 -64.1 37.6 -64.1 37.75 -64.1 37.75 -64.1 37.85 -64.15 37.9 -64.15 38.85 -64.2 39.75 -64.15 40.7 -64.15 41.65 -64.05 42.55 -64.0 43.45 -63.9 44.35 -63.75 45.3 -63.6 46.2 -63.45 47.1 -63.3 48.0 -63.1 48.9 -62.85 49.8 -62.65 50.7 -62.4 51.6 -62.15 52.5 -61.85 53.05 -61.65 53.6 -61.5 54.15 -61.3 54.65 -61.1 55.2 -60.9 55.75 -60.75 56.25 -60.55 56.8 -60.3 57.35 -60.1 57.85 -59.9 58.4 -59.7 58.9 -59.45 59.45 -59.2 59.95 -59.0 60.45 -58.75 60.95 -58.5 61.8 -58.1 62.6 -57.65 63.4 -57.25 64.2 -56.8 65.0 -56.35 65.75 -55.85 66.55 -55.4 67.3 -54.9 68.05 -54.4 68.8 -53.85 69.55 -53.35 70.3 -52.8 71.0 -52.25 71.7 -51.65 72.4 -51.1 73.1 -50.5 73.8 -49.85 74.2 -49.35 74.1 -49.3 74.0 -49.3 73.9 -49.25 73.8 -49.25 73.7 -49.2 73.6 -49.2 73.5 -49.2 73.4 -49.2 73.35 -49.2 73.25 -49.2 73.2 -49.2 73.1 -49.2 72.95 -49.2 72.9 -49.2 72.8 -49.25 72.75 -49.25 71.45 -49.25 69.1 -49.25 66.55 -49.25 65.45 -49.25 65.15 -49.25 64.8 -49.2 64.5 -49.2 64.2 -49.1 63.9 -49.05 63.6 -49.0 63.3 -48.9 63.0 -48.8 62.7 -48.7 62.4 -48.55 62.1 -48.4 61.8 -48.25 61.5 -48.15 61.2 -47.95 60.9 -47.8 60.6 -47.6 60.75 -47.6 60.85 -47.55 61.0 -47.55 61.15 -47.55 61.25 -47.55 61.35 -47.55 61.5 -47.55 61.6 -47.55 61.7 -47.6 61.8 -47.6 61.9 -47.6 62.0 -47.6 62.1 -47.65 62.2 -47.65 62.65 -47.7 62.4 -47.7 62.75 -47.75 63.1 -47.75 63.45 -47.8 63.8 -47.75 64.15 -47.75 64.5 -47.7 64.85 -47.65 65.15 -47.6 65.45 -47.5 65.8 -47.4 66.1 -47.25 66.4 -47.1 66.7 -46.95 67.0 -46.8 67.3 -46.6 67.6 -46.4 68.1 -46.05 68.6 -45.65 69.05 -45.2 69.5 -44.8 69.95 -44.35 70.4 -43.85 70.85 -43.4 71.25 -42.9 71.65 -42.4 72.05 -41.9 72.4 -41.35 72.75 -40.8 73.1 -40.25 73.4 -39.7 73.7 -39.1 74.0 -38.55 73.95 -38.5 73.9 -38.45 73.85 -38.4 73.8 -38.4 73.75 -38.4 73.7 -38.4 73.65 -38.35 73.6 -38.4 73.55 -38.4 73.5 -38.4 73.45 -38.4 73.4 -38.45 73.35 -38.45 73.3 -38.45 73.45 -38.4 73.2 -38.5 72.2 -38.95 69.85 -40.55 69.8 -40.6 69.7 -40.65 69.65 -40.7 69.6 -40.7 69.5 -40.75 69.45 -40.8 69.4 -40.8 69.35 -40.8 69.25 -40.85 69.2 -40.85 69.1 -40.85 69.05 -40.8 69.0 -40.8 68.9 -40.75 68.85 -40.7 68.75 -40.65 68.8 -40.65 68.85 -40.65 68.9 -40.65 68.95 -40.6 68.95 -40.6 69.0 -40.55 69.05 -40.55 69.05 -40.5 69.1 -40.5 69.15 -40.45 69.15 -40.45 69.2 -40.4 69.2 -40.35 69.25 -40.35 69.3 -40.2 69.25 -40.25 69.6 -39.75 70.0 -39.25 70.4 -38.8 70.85 -38.4 71.25 -38.0 71.75 -37.65 72.2 -37.3 72.7 -36.95 73.2 -36.65 73.75 -36.4 74.25 -36.1 74.85 -35.9 75.35 -35.65 75.95 -35.45 76.5 -35.25 77.1 -35.05 77.3 -35.0 77.45 -34.95 77.65 -34.9 77.8 -34.9 78.0 -34.85 78.2 -34.85 78.35 -34.85 78.55 -34.8 78.75 -34.8 78.95 -34.8 79.1 -34.8 79.3 -34.8 79.5 -34.8 79.65 -34.85 79.85 -34.85 80.05 -34.85 80.85 -34.9 81.65 -35.0 82.45 -35.1 83.25 -35.25 84.0 -35.4 84.8 -35.6 85.55 -35.8 86.3 -36.05 87.05 -36.25 87.8 -36.55 88.55 -36.8 89.25 -37.15 90.0 -37.45 90.7 -37.8 91.45 -38.15 92.15 -38.55 92.4 -38.75 92.9 -39.05 93.4 -39.4 93.6 -39.5 93.65 -39.5 93.75 -39.5 93.8 -39.45 93.8 -39.45 93.85 -39.45 93.9 -39.4 93.9 -39.4 93.9 -39.35 93.95 -39.35 93.95 -39.3 93.95 -39.25 93.95 -39.25 93.95 -39.2 93.95 -39.2 93.95 -39.15 93.95 -39.15 93.75 -38.0 93.5 -36.95 93.25 -35.8 92.95 -34.75 92.6 -33.65 92.25 -32.65 91.9 -31.55 91.45 -30.55 91.0 -29.5 90.5 -28.55 90.0 -27.55 89.45 -26.55 88.9 -25.6 88.25 -24.65 87.6 -23.7 86.9 -22.85 86.75 -22.65 86.6 -22.5 86.45 -22.3 86.35 -22.15 86.2 -21.95 86.05 -21.8 85.9 -21.6 85.75 -21.45 85.6 -21.3 85.45 -21.15 85.3 -20.95 85.1 -20.8 84.95 -20.65 84.8 -20.5 84.6 -20.35 84.45 -20.2 84.0 -19.85 83.9 -19.8 83.8 -19.7 83.7 -19.65 83.6 -19.6 83.55 -19.55 83.45 -19.55 83.4 -19.5 83.35 -19.5 83.3 -19.5 83.2 -19.5 83.15 -19.55 83.1 -19.55 83.05 -19.6 82.95 -19.65 82.9 -19.7 82.8 -19.75 82.75 -19.85 82.6 -20.05 82.4 -20.2 82.2 -20.4 82.05 -20.55 81.85 -20.7 81.65 -20.85 81.45 -21.0 81.25 -21.2 81.1 -21.3 80.9 -21.5 80.7 -21.6 80.5 -21.75 80.3 -21.9 80.1 -22.05 79.9 -22.2 79.65 -22.35 79.65 -22.35 79.55 -22.45 79.45 -22.45 79.4 -22.5 79.35 -22.55 79.3 -22.6 79.2 -22.6 79.15 -22.65 79.1 -22.7 79.0 -22.7 78.95 -22.75 78.85 -22.75 78.8 -22.8 78.7 -22.8 78.6 -22.8 78.5 -22.8 78.5 -22.75 78.5 -22.65 78.5 -22.6 78.5 -22.55 78.5 -22.5 78.55 -22.45 78.55 -22.4 78.6 -22.35 78.65 -22.3 78.7 -22.25 78.7 -22.25 78.75 -22.2 79.0 -22.0 78.85 -22.1 78.9 -22.1 78.9 -22.05 79.2 -21.75 79.5 -21.4 79.8 -21.1 80.1 -20.75 80.4 -20.45 80.65 -20.1 80.95 -19.75 81.25 -19.45 81.5 -19.1 81.75 -18.75 82.05 -18.4 82.3 -18.05 82.55 -17.75 82.85 -17.35 83.1 -17.05 83.35 -16.65 83.75 -16.1 84.15 -15.55 84.55 -14.95 84.95 -14.4 85.3 -13.8 85.65 -13.2 86.0 -12.6 86.35 -12.05 86.7 -11.4 87.0 -10.8 87.3 -10.2 87.6 -9.6 87.9 -8.95 88.15 -8.3 88.4 -7.65 88.65 -7.05 88.7 -6.9 88.8 -6.4 88.8 -6.35 88.75 -6.3 88.7 -6.25 88.65 -6.2 87.3 -6.8 87.3 -6.8 87.0 -6.9 86.7 -7.0 86.45 -7.1 86.15 -7.2 85.85 -7.25 85.55 -7.3 85.25 -7.35 84.95 -7.4 84.65 -7.4 84.35 -7.4 84.05 -7.4 83.75 -7.4 83.45 -7.35 83.15 -7.3 82.85 -7.25 82.55 -7.2 82.45 -7.2 82.4 -7.15 82.3 -7.15 82.2 -7.15 82.15 -7.15 82.05 -7.1 81.95 -7.1 81.85 -7.1 81.75 -7.1 81.7 -7.05 81.6 -7.05 81.55 -7.05 81.45 -7.0 81.35 -7.0 81.3 -6.95 81.2 -6.9 81.0 -6.8 80.85 -6.75 80.65 -6.7 80.5 -6.7 80.35 -6.65 80.2 -6.7 80.05 -6.7 79.9 -6.75 79.75 -6.8 79.6 -6.85 79.45 -6.9 79.3 -7.0 79.15 -7.1 79.0 -7.2 78.9 -7.25 78.7 -7.4 78.35 -7.65 78.0 -7.95 77.65 -8.2 77.3 -8.5 76.95 -8.8 76.6 -9.1 76.3 -9.35 75.95 -9.7 75.65 -9.95 75.3 -10.3 75.05 -10.55 74.65 -10.9 74.15 -11.4 74.0 -11.55 73.65 -11.9 73.35 -12.15 73.3 -12.2 73.25 -12.25 73.25 -12.25 73.2 -12.35 73.1 -12.4 73.1 -12.45 73.05 -12.5 73.0 -12.5 72.95 -12.55 72.95 -12.6 72.9 -12.65 72.85 -12.65 72.75 -12.7 72.7 -12.7 72.65 -12.75 72.55 -12.75 72.5 -12.7 72.5 -12.65 72.45 -12.6 72.45 -12.55 72.45 -12.55 72.45 -12.5 72.45 -12.45 72.5 -12.4 72.5 -12.4 72.5 -12.35 72.55 -12.3 72.55 -12.25 72.55 -12.25 72.6 -12.2 72.65 -12.15 72.65 -12.15 73.15 -11.4 73.7 -10.65 74.25 -9.95 74.85 -9.25 75.45 -8.55 76.05 -7.9 76.65 -7.25 77.35 -6.65 78.0 -6.0 78.7 -5.45 79.35 -4.85 80.1 -4.3 80.8 -3.75 81.55 -3.2 82.3 -2.7 83.1 -2.2 83.25 -2.1 83.45 -2.0 83.6 -1.9 83.8 -1.8 84.0 -1.7 84.15 -1.6 84.35 -1.55 84.55 -1.45 84.7 -1.35 84.9 -1.3 85.1 -1.2 85.3 -1.15 85.5 -1.05 85.7 -1.0 85.9 -0.95 86.1 -0.9 86.45 -0.8 87.5 -0.45 87.2 -0.4 87.0 -0.35 86.8 -0.3 86.6 -0.3 86.45 -0.25 86.3 -0.25 86.15 -0.25 86.0 -0.25 85.9 -0.2 85.75 -0.25 85.6 -0.25 85.45 -0.25 85.35 -0.3 85.15 -0.3 85.0 -0.35 84.75 -0.4 82.6 -0.85 82.05 -1.0 81.9 -1.05 81.75 -1.1 81.6 -1.15 81.45 -1.25 81.35 -1.25 81.1 -1.35 80.9 -1.45 80.8 -1.5 80.65 -1.6 80.5 -1.65 80.3 -1.75 80.15 -1.75 79.95 -1.8 79.75 -1.85 79.55 -1.9 79.35 -1.9 79.55 -1.7 79.8 -1.55 80.0 -1.35 80.2 -1.2 80.4 -1.05 80.65 -0.9 80.85 -0.75 81.1 -0.65 81.3 -0.5 81.5 -0.4 81.75 -0.3 81.95 -0.2 82.2 -0.1 82.45 0.0 82.65 0.1 82.9 0.15 83.25 0.25 86.55 1.2 86.55 1.3 86.5 1.35 86.5 1.4 86.45 1.5 86.4 1.55 86.35 1.6 86.3 1.6 86.25 1.65 86.2 1.7 86.15 1.75 86.05 1.75 86.0 1.8 85.95 1.8 85.85 1.85 85.8 1.85 85.75 1.9 85.3 2.0 84.95 2.15 84.5 2.25 84.1 2.35 83.7 2.45 83.3 2.5 82.85 2.6 82.45 2.65 82.05 2.7 81.65 2.75 81.2 2.8 80.8 2.8 80.35 2.8 79.95 2.8 79.5 2.8 79.1 2.75 78.6 2.7 78.15 2.65 77.65 2.6 77.2 2.5 76.75 2.45 76.3 2.35 75.8 2.3 75.35 2.2 74.85 2.1 74.4 2.0 73.95 1.85 73.5 1.75 73.05 1.6 72.6 1.45 72.15 1.3 71.7 1.15 68.9 0.05 67.65 -0.7 67.55 -0.75 67.45 -0.85 67.35 -0.9 67.25 -1.0 67.15 -1.05 67.1 -1.15 67.0 -1.25 66.95 -1.35 66.9 -1.4 66.85 -1.5 66.8 -1.6 66.75 -1.75 66.75 -1.85 66.7 -1.95 66.7 -2.05 66.7 -2.2 66.6 -4.75 65.6 -12.25 65.5 -12.95 65.4 -13.65 65.25 -14.35 65.15 -15.05 65.0 -15.75 64.85 -16.45 64.65 -17.15 64.45 -17.8 64.3 -18.5 64.05 -19.15 63.85 -19.85 63.6 -20.5 63.35 -21.15 63.05 -21.8 62.8 -22.45 62.5 -23.1 62.3 -23.5 62.1 -23.85 61.9 -24.25 61.7 -24.6 61.5 -25.0 61.25 -25.35 61.0 -25.7 60.8 -26.05 60.55 -26.4 60.3 -26.75 60.05 -27.1 59.75 -27.4 59.5 -27.75 59.2 -28.05 58.95 -28.4 58.65 -28.7 58.55 -28.8 58.45 -28.9 58.35 -29.0 58.25 -29.1 58.15 -29.15 58.05 -29.25 57.9 -29.35 57.8 -29.4 57.7 -29.5 57.6 -29.55 57.45 -29.65 57.35 -29.7 57.2 -29.8 57.1 -29.85 56.95 -29.9 56.85 -29.95 56.35 -30.15 55.85 -30.35 55.35 -30.55 54.85 -30.75 54.35 -30.95 53.85 -31.1 53.35 -31.3 52.8 -31.5 52.3 -31.65 51.8 -31.8 51.3 -32.0 50.75 -32.15 50.25 -32.3 49.75 -32.45 49.25 -32.6 48.7 -32.75 47.9 -33.0 47.05 -33.2 46.25 -33.4 45.4 -33.6 44.6 -33.75 43.7 -33.95 42.9 -34.1 42.05 -34.25 41.25 -34.4 40.35 -34.55 39.55 -34.65 38.7 -34.8 37.9 -34.9 37.0 -35.05 36.2 -35.15 35.3 -35.25 33.25 -35.5 29.6 -35.65 28.55 -35.7 27.5 -35.7 26.5 -35.75 25.45 -35.75 24.4 -35.75 23.35 -35.75 22.3 -35.75 21.3 -35.7 20.25 -35.7 19.2 -35.65 18.15 -35.65 17.15 -35.55 16.1 -35.5 15.05 -35.45 14.0 -35.35 13.0 -35.3 4.0 -34.45 -1.75 -33.3 -2.55 -33.15 -3.25 -33.0 -4.05 -32.8 -4.8 -32.65 -5.55 -32.45 -6.3 -32.3 -7.05 -32.1 -7.75 -31.9 -8.55 -31.65 -9.25 -31.45 -10.0 -31.2 -10.7 -30.95 -11.45 -30.65 -12.15 -30.35 -12.9 -30.05 -13.6 -29.75 -13.85 -29.6 -14.1 -29.5 -14.4 -29.35 -14.65 -29.2 -14.9 -29.1 -15.15 -28.95 -15.4 -28.8 -15.65 -28.65 -15.9 -28.5 -16.15 -28.35 -16.4 -28.2 -16.6 -28.05 -16.85 -27.9 -17.1 -27.7 -17.35 -27.55 -17.55 -27.35 -17.8 -27.15 -18.05 -26.95 -18.25 -26.75 -18.5 -26.55 -18.7 -26.35 -18.95 -26.1 -19.15 -25.9 -19.35 -25.65 -19.55 -25.45 -19.75 -25.2 -19.9 -24.95 -20.1 -24.7 -20.25 -24.45 -20.45 -24.15 -20.6 -23.9 -20.75 -23.65 -21.6 -22.15 -24.1 -17.85 -26.25 -14.2 -27.45 -12.05 -27.95 -11.2 -28.4 -10.35 -28.85 -9.5 -29.3 -8.65 -29.75 -7.8 -30.15 -6.9 -30.6 -6.05 -31.0 -5.2 -31.4 -4.3 -31.75 -3.4 -32.1 -2.5 -32.45 -1.6 -32.8 -0.7 -33.1 0.2 -33.4 1.1 -33.7 2.05 -34.95 6.35 -35.3 8.6 -35.4 9.15 -35.45 9.65 -35.55 10.2 -35.6 10.75 -35.6 11.25 -35.65 11.8 -35.65 12.35 -35.65 12.85 -35.7 13.4 -35.65 13.95 -35.65 14.45 -35.6 15.0 -35.6 15.55 -35.55 16.1 -35.5 16.6 -35.45 17.15 -35.4 17.6 -35.35 18.0 -35.3 18.4 -35.2 18.85 -35.15 19.25 -35.05 19.65 -34.95 20.1 -34.85 20.5 -34.8 20.9 -34.65 21.3 -34.55 21.7 -34.4 22.1 -34.3 22.5 -34.15 22.9 -34.0 23.3 -33.8 23.7 -33.45 24.55 -33.05 25.35 -32.6 26.2 -32.15 26.95 -31.7 27.7 -31.15 28.45 -30.65 29.15 -30.1 29.85 -29.5 30.5 -28.85 31.15 -28.2 31.75 -27.55 32.35 -26.8 32.9 -26.05 33.4 -25.3 33.95 -24.45 34.4 -24.3 34.45 -24.2 34.55 -24.05 34.6 -23.9 34.65 -23.75 34.7 -23.65 34.8 -23.5 34.85 -23.35 34.9 -23.2 34.95 -23.05 35.0 -22.95 35.05 -22.8 35.1 -22.65 35.15 -22.5 35.15 -22.35 35.2 -22.2 35.25 -22.15 35.25 -22.1 35.3 -22.1 35.3 -22.0 35.3 -21.9 35.3 -21.85 35.35 -21.8 35.35 -21.75 35.35 -21.7 35.4 -21.65 35.4 -21.6 35.45 -21.6 35.45 -21.55 35.5 -21.55 35.55 -21.55 35.6 -21.55 35.65 -21.55 35.75 -21.55 35.8 -21.6 35.85 -21.65 35.9 -21.65 35.9 -21.7 35.95 -21.75 35.95 -21.85 35.95 -21.9 35.95 -21.95 35.95 -22.0 35.95 -22.1 35.95 -22.15 35.95 -22.2 35.95 -22.3 35.95 -22.35 35.95 -22.85 36.05 -23.35 36.05 -23.8 36.1 -24.3 36.1 -24.8 36.05 -25.25 36.0 -25.75 36.0 -26.2 35.9 -26.7 35.8 -27.15 35.7 -27.6 35.55 -28.1 35.4 -28.55 35.3 -29.0 35.1 -29.45 34.95 -29.9 34.75 -30.6 34.45 -31.2 34.15 -31.85 33.85 -32.5 33.55 -33.15 33.2 -33.75 32.9 -34.4 32.55 -34.95 32.2 -35.6 31.85 -36.2 31.45 -36.8 31.1 -37.35 30.7 -37.95 30.25 -38.5 29.85 -39.05 29.4 -39.6 28.95 -40.05 28.55 -40.95 27.65 -41.85 26.85 -42.35 26.4 -42.4 26.35 -42.5 26.25 -42.5 26.25 -42.6 26.15 -42.7 26.05 -42.75 26.0 -42.85 25.9 -42.9 25.85 -42.95 25.8 -43.05 25.75 -43.1 25.7 -43.2 25.65 -43.25 25.55 -43.35 25.55 -43.45 25.5 -43.55 25.45 L-43.5 25.4 Q-43.55 25.45 -43.6 25.5 -43.65 25.55 -43.65 25.55 -43.7 25.6 -43.7 25.65 -43.65 25.75 -43.6 25.85 -43.55 26.0 -43.45 26.1 -43.4 26.2 -43.35 26.3 -43.25 26.4 -43.2 26.5 -43.1 26.6 -43.05 26.7 -42.95 26.8 -42.85 26.9 -42.8 27.0 -42.7 27.1 -42.6 27.2 -42.5 27.3 -42.15 27.7 -41.8 28.05 -41.4 28.4 -41.05 28.8 -40.7 29.15 -40.3 29.5 -39.9 29.85 -39.55 30.2 -39.15 30.55 -38.75 30.9 -38.35 31.25 -37.95 31.6 -37.6 31.95 -37.15 32.3 -36.75 32.6 -36.35 32.95 -36.25 33.05 -36.2 33.05 -36.1 33.15 -36.05 33.2 -36.0 33.25 -35.9 33.3 -35.85 33.4 -35.8 33.45 -35.7 33.5 -35.65 33.6 -35.6 33.65 -35.55 33.75 -35.5 33.8 -35.45 33.9 -35.4 34.0 -35.35 34.05 -35.1 34.65 -34.75 35.25 -34.45 35.85 -34.1 36.4 -33.75 36.95 -33.35 37.5 -33.0 38.0 -32.6 38.55 -32.2 39.05 -31.75 39.55 -31.3 40.05 -30.85 40.55 -30.4 41.0 -29.9 41.45 -29.45 41.9 -28.95 42.4 -28.6 42.7 -28.3 42.95 -28.0 43.25 -27.65 43.5 -27.3 43.8 -27.0 44.05 -26.65 44.3 -26.3 44.55 -25.95 44.8 -25.6 45.0 -25.25 45.25 -24.85 45.45 -24.5 45.7 -24.1 45.85 -23.7 46.05 -23.3 46.2 -23.3 46.2 -23.25 46.25 -23.2 46.25 -23.2 46.25 -23.15 46.3 -23.15 46.3 -23.1 46.3 -23.1 46.35 -23.1 46.35 -23.05 46.35 -23.05 46.4 -23.05 46.45 -23.0 46.45 -23.0 46.5 -23.0 46.5 -23.0 46.55 -23.9 46.7 -24.9 46.75 -25.95 46.8 -27.1 46.7 -28.25 46.6 -29.45 46.4 -30.65 46.15 -31.9 45.85 -33.15 45.5 -34.4 45.05 -35.7 44.55 -36.9 43.95 -38.15 43.35 -39.35 42.65 -40.55 41.95 -41.65 41.1 -41.7 41.15 -41.75 41.2 -41.75 41.25 -41.8 41.3 -41.8 41.35 -41.8 41.4 -41.8 41.45 -41.75 41.5 -41.75 41.55 -41.7 41.6 -41.7 41.6 -41.65 41.65 -41.65 41.7 -41.6 41.75 -41.55 41.8 -41.55 41.8 -41.35 42.05 -41.15 42.25 -40.95 42.5 -40.75 42.7 -40.5 42.9 -40.3 43.1 -40.1 43.3 -39.85 43.5 -39.6 43.7 -39.35 43.9 -39.15 44.05 -38.9 44.25 -38.65 44.4 -38.4 44.6 -38.15 44.75 -37.9 44.9 -37.7 45.0 -37.5 45.15 -37.3 45.3 -37.1 45.4 -36.9 45.55 -36.75 45.7 -36.55 45.85 -36.4 46.0 -36.2 46.15 -36.05 46.3 -35.9 46.5 -35.7 46.65 -35.55 46.8 -35.4 47.0 -35.25 47.15 -35.1 47.35 -34.6 47.95 -34.1 48.55 -33.55 49.1 -33.0 49.65 -32.45 50.2 -31.9 50.65 -31.3 51.15 -30.7 51.6 -30.1 52.05 -29.45 52.5 -28.8 52.9 -28.1 53.25 -27.45 53.6 -26.7 53.95 -26.0 54.25 -25.25 54.55 -25.2 54.55 -24.65 54.85 -24.65 54.95 -24.7 55.0 -24.7 55.05 -24.75 55.05 -24.8 55.1 -24.85 55.1 -24.9 55.15 -24.95 55.15 -24.95 55.15 -25.05 55.15 -25.0 55.15 -25.15 55.15 -25.2 55.15 -25.25 55.15 -25.3 55.15 -25.3 55.15 -25.35 55.15 -26.0 55.25 -26.3 55.3 -26.6 55.3 -26.85 55.35 -27.15 55.4 -27.45 55.4 -27.75 55.4 -28.0 55.4 -28.3 55.4 -28.6 55.4 -28.9 55.4 -29.2 55.4 -29.45 55.4 -29.75 55.35 -30.05 55.35 -30.35 55.3 -30.65 55.3 -32.35 55.1 -35.1 54.4 -38.5 53.5 -39.65 53.3 -39.35 53.5 -39.0 53.7 -38.7 53.9 -38.4 54.1 -38.05 54.3 -37.75 54.45 -37.45 54.6 -37.1 54.75 -36.8 54.9 -36.45 55.05 -36.15 55.2 -35.8 55.35 -35.45 55.45 -35.15 55.6 -34.8 55.7 -34.45 55.85 -33.85 56.05 -32.2 56.55 -31.05 56.7 -28.8 57.1 -28.55 57.1 -28.3 57.15 -28.05 57.15 -27.75 57.15 -27.45 57.15 -27.15 57.15 -26.8 57.15 -26.45 57.1 -26.1 57.05 -25.75 57.05 -25.35 57.0 -25.0 56.9 -24.6 56.85 -24.2 56.75 -23.75 56.65 -23.35 56.5 -23.05 56.4 -22.75 56.3 -22.45 56.2 -22.15 56.05 -21.85 55.95 -21.6 55.85 -21.35 55.7 -21.1 55.6 -20.85 55.45 -20.65 55.35 -20.4 55.2 -20.2 55.1 -20.0 54.95 -19.8 54.85 -19.65 54.7 -19.45 54.6 -19.55 54.5 -19.7 54.4 -19.8 54.35 -19.95 54.3 -20.05 54.25 -20.2 54.2 -20.3 54.15 -20.45 54.1 -20.6 54.1 -20.7 54.05 -20.8 54.05 -21.0 54.0 -21.15 54.0 -21.25 54.0 -21.35 53.95 -21.5 53.95 -22.1 53.8 -22.7 53.6 -23.3 53.45 -23.9 53.25 -24.5 53.05 -25.05 52.8 -25.65 52.55 -26.2 52.3 -26.75 52.05 -27.3 51.75 -27.85 51.45 -28.4 51.1 -28.9 50.8 -29.4 50.45 -29.95 50.1 -30.45 49.7 -30.9 49.35 -31.65 48.55 -31.65 48.55 -31.7 48.5 -31.7 48.5 -31.7 48.45 -31.7 48.4 -31.7 48.4 -31.7 48.35 -31.7 48.3 -31.7 48.3 -31.7 48.25 -31.7 48.2 -31.7 48.2 -31.65 48.15 -31.65 48.15 -31.65 48.1 -31.65 48.05 -31.65 48.05 -31.6 48.0 -31.6 48.0 -31.55 47.95 -31.55 47.95 -31.5 47.9 -31.45 47.9 -31.45 47.9 -31.4 47.85 -31.4 47.85 -31.35 47.85 -31.3 47.85 -31.3 47.8 -31.25 47.8 -31.2 47.8 -31.2 47.8 -31.15 47.8 -30.55 47.9 -28.35 48.2 -27.3 48.4 -27.05 48.45 -26.75 48.45 -26.5 48.5 -26.25 48.5 -25.95 48.5 -25.7 48.45 -25.45 48.45 -25.15 48.45 -24.9 48.4 -24.65 48.35 -24.4 48.35 -24.1 48.3 -23.65 48.25 -23.55 48.2 -23.25 48.2 -23.0 48.15 -22.7 48.1 -22.4 48.1 -22.05 48.05 -21.75 48.0 -21.45 47.95 -21.15 47.9 -20.85 47.85 -20.55 47.75 -20.25 47.7 -19.95 47.65 -19.65 47.55 -19.35 47.45 -19.05 47.4 -18.75 47.3 -18.45 47.15 -18.15 47.05 -18.1 47.05 -18.05 47.0 -18.0 47.0 -17.95 47.0 -17.9 46.95 -17.85 46.95 -17.8 46.95 -17.8 46.9 -17.75 46.9 -17.7 46.85 -17.7 46.8 -17.65 46.75 -17.65 46.7 -17.65 46.65 -17.65 46.6 -17.65 46.55 -18.5 46.25 -19.45 45.95 -20.4 45.65 -21.35 45.25 -22.25 44.9 -23.15 44.45 -24.0 44.0 -24.8 43.5 -25.6 42.95 -26.35 42.4 -27.1 41.8 -27.85 41.15 -28.55 40.5 -29.25 39.8 -29.9 39.15 -30.55 38.4 -31.15 37.65 -31.75 36.85 -31.8 36.8 -31.8 36.75 -31.85 36.7 -31.85 36.7 -31.9 36.65 -31.9 36.6 -31.9 36.6 -31.95 36.55 -31.95 36.5 -31.95 36.45 -31.95 36.45 -31.95 36.4 -31.95 36.35 -31.95 36.3 -31.95 36.3 -31.95 36.25 -31.95 36.2 -31.9 36.15 -31.9 36.15 -31.85 36.1 -31.85 36.05 -31.8 36.05 -31.8 36.0 -31.75 36.0 -31.7 36.0 -31.7 36.0 -31.65 35.95 -31.65 35.95 -31.6 35.95 -31.55 35.95 -31.55 35.95 -31.5 35.95 -31.5 35.95 -31.45 35.95 -31.4 35.95 -31.4 35.95 -31.25 36.0 -31.05 36.05 -30.8 36.2 -30.75 36.2 -28.5 37.05 -28.0 37.2 -27.5 37.4 -26.95 37.5 -26.45 37.65 -25.95 37.7 -25.45 37.8 -24.95 37.8 -24.45 37.85 -23.9 37.85 -23.4 37.8 -22.9 37.75 -22.4 37.65 -21.9 37.55 -21.4 37.45 -20.9 37.3 -20.4 37.1 -19.9 36.9 -19.7 36.8 -19.5 36.75 -19.35 36.65 -19.15 36.55 -18.95 36.45 -18.8 36.4 -18.6 36.3 -18.45 36.15 -18.3 36.05 -18.1 35.95 -17.95 35.85 -17.8 35.7 -17.65 35.55 -17.5 35.45 -17.35 35.3 -17.2 35.15 -17.2 35.1 -17.15 35.1 -17.15 35.05 -17.15 35.0 -17.15 34.95 -17.15 34.9 -17.15 34.85 -17.2 34.8 -17.2 34.75 -17.25 34.75 -17.3 34.7 -17.35 34.7 -17.4 34.65 -17.4 34.65 -17.75 34.65 -18.1 34.65 -18.45 34.65 -18.75 34.6 -19.1 34.55 -19.45 34.5 -19.75 34.45 -20.1 34.35 -20.4 34.3 -20.75 34.2 -21.05 34.1 -21.35 34.0 -21.65 33.85 -22.0 33.75 -22.3 33.6 -22.6 33.45 -23.5 33.0 -24.4 32.5 -25.25 32.0 -26.0 31.4 -26.8 30.8 -27.5 30.15 -28.2 29.5 -28.8 28.8 -29.45 28.1 -30.0 27.35 -30.55 26.55 -31.0 25.7 -31.5 24.9 -31.9 24.0 -32.3 23.1 -32.65 22.15 -32.9 21.45 -33.1 20.75 -33.3 20.05 -33.45 19.35 -33.6 18.65 -33.75 17.95 -33.85 17.2 -33.95 16.5 -34.0 15.8 -34.05 15.05 -34.1 14.35 -34.1 13.6 -34.1 12.9 -34.05 12.15 -34.05 11.4 -33.95 10.7 -33.9 10.15 -33.8 9.55 -33.75 9.0 -33.65 8.4 -33.55 7.9 -33.4 7.3 -33.3 6.75 -33.15 6.2 -33.05 5.65 -32.85 5.1 -32.75 4.55 -32.55 4.0 -32.4 3.5 -32.25 2.9 -32.1 2.5 -31.9 1.8 -31.5 0.5 -31.0 -0.85 -30.5 -2.15 -29.95 -3.45 -29.4 -4.7 -28.8 -6.0 -28.25 -7.2 -27.55 -8.5 -26.95 -9.65 -26.25 -10.95 -25.6 -12.1 -24.85 -13.35 -24.2 -14.45 -23.4 -15.75 -22.8 -16.75 -21.95 -18.15 -21.65 -18.6 -20.8 -20.05 -20.05 -21.2 -19.65 -21.9 -19.4 -22.3 -19.15 -22.65 -18.9 -23.0 -18.65 -23.35 -18.4 -23.7 -18.1 -24.05 -17.8 -24.35 -17.5 -24.65 -17.2 -24.95 -16.85 -25.25 -16.55 -25.55 -16.2 -25.8 -15.85 -26.05 -15.5 -26.3 -15.1 -26.55 -14.75 -26.8 -14.4 -27.0 -14.0 -27.25 -13.6 -27.45 -13.25 -27.6 -12.85 -27.8 -12.45 -28.0 -12.05 -28.15 -11.65 -28.35 -11.25 -28.5 -10.85 -28.65 -10.45 -28.8 -10.05 -28.95 -9.65 -29.1 -9.25 -29.25 -8.85 -29.35 -8.4 -29.5 -7.6 -29.75 -6.8 -30.0 -6.0 -30.2 -5.15 -30.45 -4.35 -30.65 -3.55 -30.8 -2.75 -31.0 -1.9 -31.15 -1.1 -31.35 -0.25 -31.5 0.55 -31.65 1.4 -31.8 2.2 -31.9 3.05 -32.05 3.9 -32.15 4.75 -32.25 5.55 -32.35 6.3 -32.45 7.1 -32.55 7.9 -32.65 8.65 -32.75 9.45 -32.8 10.25 -32.9 11.0 -33.0 11.8 -33.05 12.6 -33.15 13.4 -33.2 14.15 -33.25 14.95 -33.3 15.75 -33.35 16.55 -33.4 17.3 -33.45 18.5 -33.5 19.65 -33.55 20.85 -33.6 22.0 -33.6 23.15 -33.65 24.3 -33.65 25.5 -33.65 26.65 -33.6 27.85 -33.6 29.0 -33.55 30.15 -33.5 31.3 -33.45 32.5 -33.35 33.65 -33.25 34.85 -33.15 36.0 -33.0 36.8 -32.9 37.65 -32.8 38.45 -32.7 39.25 -32.6 40.05 -32.45 40.85 -32.35 41.7 -32.2 42.45 -32.05 43.3 -31.9 44.1 -31.75 44.9 -31.55 45.7 -31.4 46.5 -31.2 47.25 -31.0 48.05 -30.8 48.85 -30.55 49.25 -30.45 49.7 -30.3 50.1 -30.2 50.55 -30.05 50.95 -29.95 51.4 -29.8 51.8 -29.65 52.2 -29.5 52.65 -29.35 53.05 -29.2 53.45 -29.05 53.9 -28.9 54.3 -28.75 54.7 -28.6 55.1 -28.45 55.55 -28.25 55.7 -28.2 55.85 -28.1 56.0 -28.05 56.15 -27.95 56.3 -27.9 56.45 -27.8 56.6 -27.7 56.75 -27.6 56.85 -27.5 57.0 -27.4 57.15 -27.3 57.25 -27.2 57.4 -27.1 57.5 -26.95 57.6 -26.85 57.75 -26.7 58.0 -26.4 58.25 -26.1 58.5 -25.8 58.75 -25.45 58.95 -25.15 59.2 -24.85 59.4 -24.5 59.6 -24.15 59.8 -23.85 60.0 -23.5 60.2 -23.15 60.4 -22.8 60.55 -22.45 60.75 -22.1 60.9 -21.75 61.1 -21.4 61.45 -20.6 61.75 -19.8 62.05 -19.0 62.35 -18.15 62.6 -17.35 62.8 -16.5 63.0 -15.65 63.2 -14.8 63.35 -14.0 63.5 -13.1 63.65 -12.3 63.75 -11.4 63.85 -10.55 63.95 -9.7 64.05 -8.85 64.1 -7.95 64.15 -7.5 64.2 -7.05 64.25 -6.6 64.3 -6.15 64.35 -5.7 64.4 -5.25 64.45 -4.8 64.5 -4.35 64.55 -3.9 64.65 -3.45 64.7 -3.0 64.75 -2.55 64.85 -2.1 64.9 -1.65 65.0 -1.2 65.05 -0.75 65.3 0.55 66.8 8.8 67.9 14.6 68.55 18.35 68.65 18.95 68.75 19.6 68.8 20.2 68.85 20.8 68.9 21.45 68.9 22.05 68.9 22.7 68.85 23.3 68.85 23.9 68.75 24.55 68.7 25.15 68.6 25.75 68.45 26.35 68.3 27.0 68.15 27.6 67.95 28.2 67.75 28.85 67.5 29.5 67.25 30.15 66.95 30.8 66.7 31.4 66.4 32.0 66.05 32.6 65.75 33.2 65.4 33.8 65.0 34.4 64.65 34.95 64.25 35.55 63.85 36.1 63.4 36.65 63.0 37.2 62.55 37.7 62.3 37.95 62.1 38.2 61.85 38.45 61.6 38.7 61.35 38.95 61.1 39.15 60.85 39.4 60.55 39.6 60.3 39.8 60.05 40.0 59.75 40.2 59.45 40.4 59.15 40.6 58.85 40.75 58.55 40.9 58.25 41.1 57.9 41.3 57.6 41.4 57.25 41.6 56.95 41.75 56.6 41.9 56.25 42.0 55.9 42.15 55.6 42.3 55.25 42.45 54.9 42.55 54.55 42.7 54.2 42.8 53.85 42.9 53.5 43.0 53.15 43.05 52.8 43.15 52.75 43.15 52.65 43.15 52.6 43.2 52.55 43.2 52.5 43.2 52.4 43.2 52.35 43.25 52.3 43.25 52.25 43.25 52.15 43.3 52.1 43.35 52.05 43.35 52.0 43.4 51.95 43.45 51.9 43.5 51.85 43.55 52.0 43.6 52.15 43.65 52.25 43.75 52.4 43.75 52.55 43.8 52.7 43.85 52.85 43.9 53.0 43.9 53.15 43.95 53.3 43.95 53.4 44.0 53.6 44.0 53.7 44.0 53.9 44.05 53.85 44.05 54.2 44.05 55.2 44.15 56.15 44.15 57.1 44.15 58.0 44.05 58.85 44.0 59.7 43.85 60.45 43.7 61.15 43.5 61.8 43.35 62.45 43.15 62.95 43.0 63.45 42.8 63.85 42.65 64.2 42.5 64.45 42.4 64.65 42.3 65.1 42.05 65.55 41.8 65.95 41.6 66.3 41.3 66.65 41.1 67.0 40.85 67.25 40.65 67.55 40.4 67.7 40.3 68.05 40.05 68.25 39.9 68.4 39.8 68.55 39.7 68.6 39.65 68.7 39.6 68.75 39.65 68.8 39.7 68.7 39.8 68.65 39.9 68.5 40.05 68.4 40.2 68.2 40.4 68.05 40.6 67.8 40.85 67.6 41.05 67.35 41.3 67.15 41.55 66.9 41.8 66.7 42.0 66.45 42.25 66.3 42.4 66.0 42.65 63.6 45.1 62.5 45.9 62.25 46.1 61.95 46.3 61.7 46.5 61.4 46.7 61.15 46.85 60.85 47.05 60.6 47.25 60.3 47.4 60.05 47.6 59.75 47.75 59.45 47.9 59.15 48.1 58.9 48.25 58.6 48.4 58.3 48.6 58.0 48.75 57.95 48.75 57.9 48.8 57.85 48.85 57.8 48.85 57.75 48.85 57.75 48.9 57.7 48.95 57.65 48.95 57.6 49.0 57.55 49.05 57.55 49.05 57.5 49.1 57.5 49.15 57.45 49.25 57.45 49.3 57.45 49.35 57.7 49.4 57.95 49.45 58.2 49.5 58.45 49.5 58.75 49.55 59.0 49.55 59.25 49.55 59.5 49.55 59.75 49.55 60.0 49.55 60.25 49.55 60.55 49.55 60.8 49.5 61.05 49.5 61.3 49.45 61.55 49.4 62.0 49.3 62.45 49.2 62.9 49.1 63.3 49.0 63.75 48.85 64.2 48.75 64.6 48.6 65.05 48.45 65.45 48.25 65.85 48.1 66.25 47.9 66.65 47.7 67.05 47.5 67.45 47.25 67.85 47.05 68.25 46.8 68.85 46.4 69.4 46.05 70.0 45.6 70.5 45.2 71.05 44.8 71.55 44.35 72.05 43.9 72.55 43.4 73.0 42.95 73.45 42.45 73.9 41.9 74.3 41.35 74.7 40.8 75.05 40.25 75.4 39.65 75.7 39.0 75.75 38.9 76.45 37.5 76.5 37.45 76.5 37.4 76.55 37.35 76.6 37.3 76.65 37.25 76.7 37.2 76.7 37.15 76.75 37.1 76.8 37.1 76.85 37.05 76.95 37.0 77.0 37.0 77.05 37.0 77.1 36.95 77.2 36.95 77.25 36.95 77.5 36.95 77.75 36.9 78.0 36.9 78.2 36.9 78.45 36.9 78.7 36.9 78.95 36.95 79.15 36.95 79.4 36.95 79.65 37.0 79.85 37.05 80.1 37.1 80.35 37.15 80.55 37.2 80.8 37.25 81.0 37.35 81.75 37.6 82.45 37.9 83.2 38.2 83.9 38.55 84.6 38.9 85.25 39.25 85.95 39.65 86.55 40.05 87.2 40.5 87.8 40.95 88.4 41.4 88.95 41.95 89.5 42.45 90.0 43.05 90.55 43.65 91.0 44.25 92.65 46.45 92.9 47.05 92.9 47.1 92.95 47.1 92.95 47.15 92.95 47.15 93.0 47.2 93.0 47.2 93.05 47.25 93.05 47.25 93.1 47.3 93.1 47.3 93.15 47.35 93.2 47.35 93.25 47.35 93.3 47.35 93.35 47.35 93.4 47.35 93.45 47.25 93.5 47.15 93.55 47.05 93.6 46.9 93.6 46.8 93.65 46.7 93.65 46.6 93.7 46.45 93.7 46.35 93.7 46.2 93.75 46.1 93.75 46.0 93.75 45.85 93.75 45.75 93.75 45.6 93.75 45.5 93.75 45.0 93.75 44.7 93.75 44.3 93.75 43.95 93.7 43.5 93.7 43.15 93.7 42.75 93.65 42.35 93.65 41.95 93.6 41.6 93.55 41.2 93.5 40.8 93.4 40.45 93.35 40.05 93.25 39.65 93.15 39.3 93.1 39.15 92.6 37.0 92.45 36.35 92.3 35.8 92.15 35.15 91.95 34.6 91.8 33.95 91.6 33.4 91.4 32.8 91.2 32.2 91.0 31.6 90.75 31.05 90.55 30.45 90.3 29.9 90.0 29.3 89.75 28.75 89.45 28.2 89.15 27.65 88.75 26.9 88.5 26.5 88.15 25.85 87.85 25.35 87.45 24.7 87.15 24.2 86.8 23.6 86.4 23.05 86.05 22.5 85.65 22.0 85.25 21.45 84.85 20.95 84.4 20.4 83.95 19.9 83.45 19.4 82.95 18.95 82.95 18.95 82.9 18.9 82.9 18.85 82.9 18.75 82.9 18.7 82.85 18.65 82.85 18.6 82.9 18.55 82.9 18.5 82.95 18.5 83.0 18.45 83.0 18.45 83.05 18.45 83.1 18.4 83.15 18.4 83.2 18.4 83.2 18.4 83.25 18.4 83.3 18.4 83.35 18.4 83.4 18.35 83.4 18.35 83.6 18.3 83.8 18.2 84.05 18.15 84.25 18.05 84.45 18.0 84.65 17.9 84.8 17.8 85.0 17.7 85.2 17.6 85.4 17.5 85.55 17.35 85.75 17.25 85.9 17.15 86.1 17.0 86.25 16.85 86.45 16.75 86.8 16.45 87.1 16.2 87.45 15.9 87.75 15.6 88.05 15.35 88.35 15.05 88.65 14.75 88.95 14.45 89.25 14.15 89.55 13.8 89.85 13.5 90.1 13.2 90.4 12.85 90.65 12.5 90.95 12.2 91.2 11.85 91.45 11.5 91.75 11.1 92.0 10.7 92.25 10.35 92.5 9.95 92.75 9.6 93.0 9.2 93.2 8.8 93.45 8.4 93.7 8.0 93.9 7.65 94.15 7.25 94.35 6.85 94.55 6.45 94.75 6.05 94.95 5.6 95.05 5.4 95.2 5.1 95.45 4.65 95.55 4.5 95.7 4.15 95.85 3.85 96.05 3.5 96.2 3.15 96.35 2.75 96.5 2.4 96.7 1.95 96.85 1.55 97.0 1.1 97.1 0.6 97.25 0.15 97.35 -0.35 97.35 -0.25 97.4 -0.55 97.4 -0.7 97.45 -0.85 97.45 -1.05 97.45 -1.2 97.5 -1.4 97.5 -1.6 97.5 -1.8 97.5 -2.0 97.5 -2.15 97.45 -2.3 97.4 -2.5 97.35 -2.6 97.3 -2.7 97.2 -2.75 L97.2 -2.75 M-63.75 -35.65 Q-63.75 -35.65 -63.6 -35.55 -63.65 -35.55 -63.75 -35.5 -63.8 -35.5 -63.85 -35.45 -63.85 -35.45 -63.9 -35.5 -63.95 -35.55 -63.95 -35.55 -63.9 -35.6 -63.9 -35.6 -63.85 -35.6 -63.8 -35.65 -63.75 -35.65 -63.75 -35.65 L-63.75 -35.65 M-32.6 47.6 L-32.55 47.5 -32.5 47.6 -32.6 47.6 -32.6 47.6 M-31.9 48.1 Q-32.0 47.95 -32.05 47.85 -32.05 47.85 -32.0 47.8 -31.95 47.75 -31.9 47.75 -31.9 47.8 -31.85 47.85 -31.8 47.95 -31.8 47.95 -31.8 47.95 -31.9 48.1 L-31.9 48.1 M-32.05 35.9 Q-32.05 35.95 -32.1 36.0 -32.15 36.05 -32.2 36.0 -32.25 36.0 -32.3 36.0 -32.35 35.95 -32.35 35.95 -32.4 35.9 -32.4 35.85 -32.45 35.85 -32.45 35.8 -32.5 35.75 -32.5 35.7 -32.5 35.7 -32.55 35.65 -32.5 35.6 -32.5 35.55 -32.45 35.55 -32.4 35.55 -32.35 35.55 -32.35 35.55 -32.3 35.55 -32.25 35.55 -32.2 35.6 -32.15 35.6 -32.15 35.65 -32.1 35.65 -32.05 35.7 -32.05 35.75 -32.05 35.75 -32.05 35.8 -32.05 35.85 -32.05 35.9 L-32.05 35.9 M95.55 -0.2 Q95.3 0.6 95.0 1.4 94.7 2.2 94.35 3.0 94.05 3.75 93.7 4.55 93.3 5.3 92.9 6.05 92.5 6.75 92.1 7.5 91.65 8.2 91.2 8.95 90.7 9.65 90.2 10.35 89.7 11.05 89.2 11.7 88.7 12.35 86.45 14.5 86.15 14.8 85.85 15.05 85.55 15.3 85.2 15.55 84.9 15.75 84.55 15.95 84.2 16.15 83.85 16.35 83.5 16.5 83.15 16.65 82.8 16.8 82.4 16.9 82.05 17.05 81.65 17.15 81.25 17.25 80.85 17.3 80.75 17.3 80.65 17.35 80.35 17.35 80.4 17.35 80.3 17.4 80.2 17.4 80.1 17.4 80.0 17.45 79.9 17.45 79.8 17.5 79.65 17.5 79.55 17.55 79.45 17.6 79.35 17.65 79.25 17.75 79.15 17.8 79.25 17.9 79.35 18.05 79.45 18.15 79.55 18.25 79.65 18.35 79.75 18.45 79.85 18.55 79.95 18.65 80.05 18.75 80.15 18.85 80.3 18.95 80.4 19.05 80.5 19.15 80.6 19.25 80.75 19.35 80.85 19.4 81.2 19.65 81.55 19.95 81.85 20.25 82.2 20.55 82.5 20.85 82.8 21.2 83.1 21.5 83.4 21.8 83.65 22.15 83.95 22.5 84.2 22.8 84.45 23.2 84.75 23.5 85.0 23.9 85.25 24.25 85.45 24.6 85.95 25.4 86.45 26.2 86.95 27.0 87.35 27.8 87.8 28.6 88.2 29.4 88.6 30.25 89.0 31.1 89.35 31.95 89.65 32.8 90.0 33.65 90.25 34.5 90.55 35.4 90.75 36.3 91.0 37.2 91.2 38.1 91.35 38.75 91.55 39.8 91.9 41.3 91.95 41.55 91.95 41.6 91.95 41.65 92.0 41.7 92.0 41.75 92.0 41.8 92.0 41.85 92.0 41.9 92.05 41.95 92.05 42.0 92.05 42.05 92.05 42.1 92.0 42.15 92.0 42.2 92.0 42.25 92.0 42.3 91.95 42.35 91.9 42.35 91.85 42.35 91.8 42.4 91.75 42.4 91.75 42.35 91.7 42.35 91.65 42.35 91.65 42.35 91.6 42.3 91.55 42.3 91.55 42.25 91.5 42.25 91.5 42.2 91.45 42.15 91.45 42.15 91.4 42.1 90.95 41.6 90.5 41.1 90.05 40.65 89.55 40.2 89.1 39.8 88.55 39.4 88.05 39.0 87.5 38.65 87.0 38.3 86.4 37.95 85.85 37.65 85.25 37.3 84.7 37.0 84.1 36.75 83.5 36.45 82.9 36.2 82.55 36.05 82.25 35.95 81.9 35.8 81.6 35.7 81.25 35.6 80.95 35.5 80.6 35.45 80.25 35.35 79.9 35.3 79.6 35.25 79.25 35.2 78.9 35.15 78.55 35.15 78.2 35.15 77.85 35.15 77.5 35.2 77.4 34.8 77.3 34.2 77.05 34.25 77.15 34.2 77.1 34.25 77.05 34.25 77.0 34.25 77.0 34.3 76.8 34.75 76.55 35.15 76.3 35.55 76.1 36.0 75.85 36.4 75.6 36.8 75.35 37.2 75.05 37.6 74.8 38.0 74.55 38.4 74.25 38.8 74.0 39.15 73.7 39.55 73.4 39.9 73.1 40.3 72.8 40.65 72.45 41.1 72.05 41.5 71.65 41.95 71.25 42.35 70.85 42.75 70.45 43.1 70.05 43.5 69.6 43.85 69.15 44.2 68.7 44.5 68.2 44.85 67.75 45.1 67.25 45.4 66.75 45.65 66.25 45.95 65.7 46.15 65.65 46.2 65.6 46.25 65.5 46.35 65.45 46.4 65.4 46.45 65.35 46.5 65.25 46.55 65.2 46.55 65.15 46.6 65.05 46.6 65.0 46.65 64.9 46.65 64.8 46.65 64.75 46.65 64.65 46.65 64.55 46.65 64.55 46.55 64.6 46.5 64.6 46.4 64.65 46.35 64.7 46.3 64.75 46.25 64.8 46.2 64.85 46.15 64.9 46.1 64.95 46.05 65.0 46.0 65.05 46.0 65.1 45.95 65.2 45.9 65.1 45.95 65.3 45.85 65.75 45.3 65.85 45.2 66.4 44.7 66.9 44.15 67.4 43.65 67.9 43.1 68.4 42.55 68.85 41.95 69.3 41.4 69.75 40.8 70.15 40.25 70.6 39.6 71.0 39.05 71.45 38.4 71.8 37.85 72.2 37.15 72.55 36.65 73.0 35.9 73.1 35.75 73.15 35.65 73.25 35.5 73.3 35.35 73.4 35.2 73.45 35.1 73.55 34.95 73.6 34.8 73.65 34.65 73.75 34.5 73.8 34.35 73.85 34.2 73.9 34.05 73.95 33.9 74.0 33.75 74.05 33.6 74.1 33.5 74.1 33.4 74.15 33.3 74.15 33.2 74.2 33.1 74.2 33.0 74.2 32.9 74.25 32.8 74.25 32.7 74.25 32.6 74.25 32.5 74.25 32.45 74.25 32.35 74.25 32.25 74.2 32.15 74.2 32.05 74.15 32.05 74.05 32.05 74.0 32.05 73.95 32.05 73.9 32.05 73.85 32.05 73.85 32.1 73.8 32.1 73.75 32.15 73.75 32.15 73.7 32.2 73.7 32.25 73.65 32.25 73.65 32.3 73.6 32.35 73.6 32.35 73.3 32.65 72.1 34.1 71.2 35.2 70.6 35.85 70.3 36.2 70.0 36.5 69.65 36.85 69.35 37.15 69.0 37.45 68.7 37.75 68.35 38.05 68.0 38.35 67.65 38.6 67.3 38.85 66.9 39.15 66.55 39.4 66.15 39.65 65.8 39.85 65.4 40.1 65.0 40.3 64.8 40.4 64.6 40.5 64.4 40.55 64.2 40.65 64.0 40.7 63.8 40.8 63.6 40.85 63.4 40.95 63.2 41.0 62.95 41.05 62.5 41.2 62.55 41.2 62.3 41.25 62.15 41.3 61.95 41.4 61.75 41.45 61.7 41.45 61.65 41.45 61.65 41.45 61.6 41.45 61.55 41.45 61.5 41.4 61.45 41.4 61.45 41.35 61.45 41.35 61.4 41.3 61.4 41.25 61.4 41.25 61.4 41.2 61.45 41.15 61.45 41.1 61.45 41.1 61.45 41.05 61.7 40.85 62.3 40.3 62.9 39.7 63.45 39.15 64.0 38.55 64.55 37.95 65.0 37.3 65.5 36.65 65.95 36.0 66.4 35.3 66.8 34.6 67.2 33.95 67.6 33.2 67.95 32.5 68.3 31.75 68.65 31.05 68.95 30.3 69.25 29.6 69.45 28.9 69.7 28.2 69.85 27.5 70.05 26.8 70.15 26.1 70.3 25.35 70.35 24.65 70.45 23.95 70.45 23.2 70.5 22.5 70.5 21.75 70.45 21.05 70.4 20.3 70.35 19.6 70.25 18.85 69.8 15.8 68.95 11.1 67.6 4.15 67.5 3.4 67.4 3.0 67.2 1.4 67.3 1.35 67.35 1.3 67.45 1.3 67.55 1.3 67.6 1.3 67.7 1.3 67.75 1.3 67.8 1.3 67.9 1.35 67.95 1.4 68.0 1.4 68.1 1.45 68.3 1.6 68.2 1.5 68.25 1.55 68.3 1.6 68.75 1.8 69.15 2.0 69.6 2.2 70.05 2.35 70.5 2.55 70.95 2.7 71.4 2.85 71.85 3.0 72.3 3.15 72.75 3.3 73.2 3.45 73.65 3.55 74.1 3.7 74.55 3.8 75.05 3.9 75.5 4.0 76.1 4.1 76.7 4.2 77.3 4.3 77.9 4.35 78.5 4.4 79.1 4.45 79.7 4.45 80.3 4.45 80.9 4.45 81.5 4.45 82.1 4.4 82.7 4.3 83.3 4.25 83.9 4.15 84.5 4.05 85.1 3.9 85.55 3.8 86.05 3.65 86.5 3.5 86.95 3.35 87.4 3.15 87.85 3.0 88.3 2.8 88.75 2.6 89.15 2.4 89.6 2.2 90.05 1.95 90.45 1.75 90.85 1.5 91.3 1.25 91.7 1.0 92.15 0.75 93.1 0.1 93.75 -0.25 93.85 -0.3 93.95 -0.35 94.05 -0.4 94.15 -0.45 94.3 -0.5 94.4 -0.5 94.5 -0.55 94.6 -0.55 94.7 -0.6 94.85 -0.6 94.95 -0.6 95.05 -0.6 95.2 -0.6 95.3 -0.6 95.4 -0.6 95.55 -0.55 95.55 -0.5 95.55 -0.45 95.55 -0.45 95.55 -0.4 95.55 -0.35 95.55 -0.3 95.55 -0.3 95.55 -0.25 95.55 -0.2 95.55 -0.2 L95.55 -0.2" fill="#111111" fill-rule="evenodd" stroke="none"/>
  </g>
</svg>
