<?xml version="1.0" encoding="UTF-8" standalone="no"?>
<svg xmlns:xlink="http://www.w3.org/1999/xlink" height="90.85px" width="126.8px" xmlns="http://www.w3.org/2000/svg">
  <g transform="matrix(1.0, 0.0, 0.0, 1.0, 63.4, 45.45)">
    <path d="M49.0 -32.1 Q49.65 -31.2 50.3 -30.25 50.9 -29.35 51.45 -28.45 52.0 -27.6 52.55 -26.7 53.05 -25.9 53.5 -25.05 53.95 -24.3 54.4 -23.5 54.8 -22.75 55.2 -22.05 55.55 -21.35 55.9 -20.65 56.2 -20.0 56.5 -19.4 57.3 -17.7 57.45 -17.35 58.1 -16.05 58.6 -14.9 59.2 -13.5 59.75 -12.1 60.35 -10.5 60.9 -8.95 61.45 -7.2 61.9 -5.45 62.4 -3.55 62.7 -1.65 63.05 0.4 63.25 2.45 63.4 4.65 63.4 6.8 63.4 8.55 63.3 10.05 63.25 11.55 63.15 12.8 63.05 14.05 62.9 15.0 62.8 16.0 62.6 16.7 62.4 17.4 62.2 17.85 61.95 18.3 61.7 18.45 61.45 18.65 61.15 18.55 60.85 18.45 60.5 18.1 L58.65 9.0 58.65 5.75 Q58.5 4.05 58.25 2.45 58.0 0.85 57.6 -0.7 57.2 -2.2 56.65 -3.65 56.15 -5.05 55.5 -6.4 54.8 -7.75 54.0 -9.0 53.2 -10.3 52.3 -11.45 51.35 -12.65 50.3 -13.7 49.25 -14.8 48.05 -15.8 45.5 -17.45 42.7 -18.8 39.9 -20.15 36.9 -21.2 33.9 -22.2 30.7 -22.9 27.5 -23.65 24.05 -24.05 20.6 -24.4 16.95 -24.5 13.3 -24.55 9.4 -24.35 5.55 -24.1 1.45 -23.55 -2.65 -23.0 -6.95 -22.1 -9.3 -21.65 -11.4 -21.1 -13.5 -20.55 -15.4 -19.9 -17.35 -19.3 -19.0 -18.6 -20.7 -17.9 -22.2 -17.1 -23.65 -16.3 -24.95 -15.45 -26.2 -14.6 -27.25 -13.7 -28.3 -12.75 -29.15 -11.75 -30.0 -10.75 -30.6 -9.7 -31.2 -8.65 -31.8 -7.55 -32.35 -6.45 -32.85 -5.35 -33.35 -4.25 -33.75 -3.1 -34.2 -2.0 -34.55 -0.85 -34.95 0.25 -35.25 1.4 -35.55 2.55 -35.8 3.75 -36.05 4.9 -36.2 6.1 -36.4 7.25 -36.5 8.45 L-44.0 14.4 Q-44.45 16.35 -44.75 18.25 -45.05 20.2 -45.25 22.1 -45.45 24.05 -45.55 26.0 -45.6 27.9 -45.6 29.85 -45.55 31.8 -45.4 33.75 -45.3 35.65 -45.0 37.6 -44.75 39.55 -44.4 41.5 -44.05 43.45 -43.55 45.4 L-50.85 45.4 -55.5 38.45 Q-55.7 38.35 -55.9 38.3 -56.15 38.25 -56.35 38.15 -56.55 38.1 -56.75 38.05 -56.95 38.0 -57.15 38.0 -57.35 37.95 -57.55 37.9 -57.75 37.9 -57.95 37.85 -58.15 37.85 -58.3 37.85 -58.5 37.85 -58.7 37.85 -58.9 37.85 -59.05 37.8 -59.3 37.75 -59.5 37.7 -59.75 37.65 -60.0 37.55 -60.25 37.5 -60.55 37.35 -60.8 37.25 -61.1 37.1 -61.4 36.95 -61.65 36.75 -61.95 36.55 -62.2 36.35 -62.5 36.1 -62.7 35.8 -62.8 35.7 -62.9 35.55 -63.05 35.4 -63.15 35.25 -63.25 35.05 -63.35 34.85 -63.45 34.65 -63.55 34.4 -63.65 34.1 -63.7 33.8 -63.8 33.45 -63.9 33.1 -63.95 32.7 -64.0 32.25 -64.1 31.75 -64.15 31.2 -64.2 30.8 -64.2 30.45 -64.2 30.05 -64.2 29.6 -64.2 29.15 -64.2 28.7 -64.2 28.2 -64.15 27.7 -64.1 27.15 -64.05 26.6 -64.0 26.0 -63.9 25.45 -63.8 24.85 -63.7 24.2 -63.55 23.55 -63.4 22.95 -63.85 22.15 -64.25 21.35 -64.6 20.6 -64.95 19.8 -65.25 19.1 -65.5 18.35 -65.75 17.65 -66.0 16.95 -66.2 16.3 -66.4 15.65 -66.55 15.1 -66.65 14.5 -66.8 13.95 -66.9 13.4 -67.0 12.95 -67.05 12.45 -67.15 11.8 -67.2 11.2 -67.3 10.6 -67.3 10.05 -67.35 9.55 -67.35 9.1 -67.35 8.65 -67.35 8.25 -67.35 7.9 -67.35 7.55 -67.3 7.25 -67.3 7.0 -67.25 6.8 -67.25 6.6 -67.2 6.45 -67.2 6.35 -67.1 5.9 -67.0 5.4 -66.9 4.95 -66.75 4.5 -66.65 4.1 -66.5 3.7 -66.35 3.3 -66.2 2.95 -66.05 2.6 -65.9 2.25 -65.75 1.9 -65.6 1.6 -65.45 1.3 -65.3 1.0 -65.2 0.8 -65.0 0.45 -64.85 0.15 -64.65 -0.15 -64.5 -0.45 -64.35 -0.75 -64.15 -1.05 -64.0 -1.3 -63.85 -1.55 -63.65 -1.8 -63.5 -2.05 -63.35 -2.3 -63.2 -2.5 -63.05 -2.75 -62.9 -2.95 -62.75 -3.15 -62.6 -3.3 -62.45 -3.5 -62.5 -4.1 -62.55 -4.65 -62.6 -5.2 -62.6 -5.75 -62.6 -6.25 -62.6 -6.75 -62.55 -7.2 -62.55 -7.65 -62.5 -8.1 -62.45 -8.5 -62.4 -8.9 -62.35 -9.25 -62.3 -9.6 -62.2 -9.95 -62.15 -10.25 -62.1 -10.5 -62.05 -10.7 -62.0 -10.95 -61.95 -11.15 -61.9 -11.3 -61.8 -11.5 -61.75 -11.65 -61.7 -11.85 -61.65 -11.95 -61.6 -12.1 -61.55 -12.25 -61.5 -12.35 -61.45 -12.45 -61.45 -12.55 -61.4 -12.65 -61.35 -12.75 -61.3 -12.8 -61.15 -13.15 -60.95 -13.5 -60.8 -13.8 -60.6 -14.1 -60.4 -14.4 -60.25 -14.65 -60.05 -14.9 -59.85 -15.15 -59.65 -15.4 -59.45 -15.6 -59.25 -15.8 -59.05 -16.0 -58.9 -16.2 -58.7 -16.35 -58.55 -16.5 -58.4 -16.65 -58.35 -17.1 -58.25 -17.5 -58.15 -18.0 -58.1 -18.45 -57.95 -18.95 -57.85 -19.45 -57.7 -19.95 -57.6 -20.5 -57.4 -21.05 -57.25 -21.6 -57.05 -22.2 -56.85 -22.75 -56.6 -23.4 -56.4 -23.95 -56.1 -24.6 -55.85 -25.2 -54.75 -27.5 -53.3 -29.6 -51.9 -31.55 -50.15 -33.3 -48.55 -34.95 -46.65 -36.45 -44.9 -37.8 -42.9 -39.0 -41.1 -40.15 -39.05 -41.15 -37.3 -42.05 -35.3 -42.9 -33.65 -43.55 -31.7 -44.3 -30.6 -44.7 -28.5 -45.45 -26.5 -46.15 -24.45 -46.7 -22.55 -47.25 -20.55 -47.65 -18.7 -48.0 -16.8 -48.3 -15.1 -48.55 -13.3 -48.7 -11.65 -48.8 -10.0 -48.9 -8.55 -48.95 -7.0 -49.0 -5.75 -49.0 -4.3 -49.0 -4.0 -49.0 -1.95 -48.95 -1.25 -48.95 -0.5 -48.9 0.2 -48.9 0.85 -48.85 1.55 -48.85 2.2 -48.8 2.8 -48.75 3.45 -48.7 4.0 -48.65 4.6 -48.6 5.15 -48.55 5.7 -48.5 6.2 -48.45 6.7 -48.4 7.15 -48.35 7.6 -48.3 8.2 -48.4 8.8 -48.5 9.4 -48.55 10.0 -48.6 10.65 -48.7 11.25 -48.75 11.9 -48.8 12.55 -48.8 13.2 -48.85 13.9 -48.85 14.55 -48.85 15.25 -48.85 15.95 -48.85 16.65 -48.8 17.35 -48.75 18.1 -48.7 21.05 -48.45 23.95 -47.75 26.65 -47.1 29.25 -46.05 31.65 -45.15 34.0 -43.9 36.15 -42.8 38.2 -41.45 40.05 -40.2 41.85 -38.8 43.35 -37.6 44.85 -36.25 46.05 -35.15 47.25 -33.95 48.1 -33.05 49.0 -32.1 L49.0 -32.1" fill="#0066cc" fill-rule="evenodd" stroke="none"/>
  </g>
</svg>
