<?xml version="1.0" encoding="UTF-8" standalone="no"?>
<svg xmlns:xlink="http://www.w3.org/1999/xlink" height="900.0px" width="900.0px" xmlns="http://www.w3.org/2000/svg">
  <g transform="matrix(1.0, 0.0, 0.0, 1.0, 450.0, 450.0)">
    <path d="M52.0 10.7 Q51.7 10.6 51.2 10.45 50.6 10.25 50.45 10.15 50.1 10.05 49.75 9.9 49.4 9.8 49.05 9.65 48.7 9.5 48.4 9.3 48.05 9.15 47.75 9.0 47.4 8.8 47.1 8.6 46.8 8.4 46.5 8.2 46.2 7.95 45.9 7.7 45.6 7.5 45.35 7.25 44.5 6.4 43.1 5.05 41.4 3.3 40.85 2.8 40.75 2.7 40.7 2.65 40.6 2.55 40.55 2.5 40.45 2.4 40.4 2.35 40.3 2.25 40.25 2.2 40.15 2.1 40.05 2.05 40.0 1.95 39.9 1.9 39.8 1.85 39.75 1.75 39.65 1.7 39.55 1.65 39.1 1.35 36.2 -0.45 36.2 -0.45 36.2 -0.45 36.2 -0.45 36.15 -0.45 36.15 -0.45 36.15 -0.45 36.1 -0.45 36.1 -0.45 36.05 -0.45 36.05 -0.45 36.0 -0.45 35.95 -0.45 35.95 -0.45 35.9 -0.45 35.85 -0.45 35.85 -0.45 35.35 -0.35 34.9 -0.35 34.4 -0.3 33.95 -0.3 33.45 -0.3 33.0 -0.35 32.55 -0.4 32.1 -0.5 31.65 -0.6 31.2 -0.75 30.8 -0.9 30.35 -1.05 29.9 -1.2 29.5 -1.45 29.05 -1.65 28.65 -1.9 28.4 -2.05 28.1 -2.2 27.85 -2.35 27.55 -2.5 27.3 -2.65 27.0 -2.75 26.75 -2.9 26.45 -3.05 26.2 -3.15 25.9 -3.3 25.6 -3.4 25.3 -3.5 25.05 -3.65 24.75 -3.75 24.45 -3.85 24.15 -3.95 24.0 -4.0 23.85 -4.05 23.7 -4.1 23.55 -4.2 23.45 -4.25 23.3 -4.35 23.15 -4.4 23.0 -4.5 22.85 -4.55 22.7 -4.65 22.6 -4.7 22.45 -4.8 22.3 -4.9 22.2 -5.0 22.05 -5.05 21.9 -5.15 21.8 -5.25 21.65 -5.3 21.55 -5.35 21.45 -5.4 21.3 -5.5 21.2 -5.5 21.1 -5.55 20.95 -5.55 20.85 -5.6 20.7 -5.6 20.6 -5.6 20.45 -5.6 20.3 -5.6 20.2 -5.55 20.05 -5.55 19.9 -5.5 19.6 -5.4 19.3 -5.35 19.0 -5.25 18.65 -5.15 18.35 -5.1 18.05 -5.0 17.75 -4.95 17.4 -4.85 17.1 -4.8 16.8 -4.7 16.5 -4.65 16.15 -4.6 15.85 -4.5 15.55 -4.45 15.25 -4.4 14.9 -4.35 14.3 -4.25 13.7 -4.15 13.1 -4.05 12.5 -3.95 11.9 -3.9 11.3 -3.8 10.7 -3.75 10.1 -3.75 9.5 -3.7 8.9 -3.65 8.3 -3.65 7.7 -3.65 7.1 -3.65 6.5 -3.65 5.9 -3.65 5.3 -3.7 5.0 -3.7 4.75 -3.75 4.45 -3.75 4.2 -3.8 3.95 -3.8 3.65 -3.85 3.4 -3.9 3.15 -4.0 2.9 -4.05 2.65 -4.15 2.35 -4.2 2.1 -4.3 1.85 -4.4 1.6 -4.5 1.35 -4.65 1.1 -4.75 0.6 -5.05 -0.45 -5.55 -1.55 -6.05 -2.05 -6.35 -2.3 -6.5 -4.95 -8.25 -5.1 -8.2 -6.95 -7.85 -8.2 -7.6 -9.05 -7.4 -9.15 -7.4 -9.25 -7.35 -9.35 -7.3 -9.45 -7.25 -9.55 -7.2 -9.65 -7.15 -9.7 -7.1 -9.8 -7.05 -10.05 -6.9 -10.0 -6.9 -10.1 -6.85 -10.2 -6.8 -10.3 -6.75 -10.4 -6.7 -10.5 -6.65 -10.6 -6.6 -11.45 -6.3 -12.3 -6.05 -13.2 -5.8 -14.05 -5.65 -14.9 -5.45 -15.8 -5.35 -16.65 -5.25 -17.5 -5.2 -18.4 -5.15 -19.25 -5.2 -20.15 -5.25 -21.0 -5.4 -21.9 -5.5 -22.75 -5.7 -23.65 -5.9 -24.5 -6.2 -24.65 -6.25 -25.95 -6.7 -26.15 -6.55 -27.65 -5.45 -33.45 -1.15 -35.25 0.2 -35.55 0.4 -35.85 0.6 -36.15 0.85 -36.45 1.05 -36.8 1.25 -37.1 1.4 -37.4 1.6 -37.75 1.8 -38.05 1.95 -38.4 2.1 -38.75 2.3 -39.05 2.45 -39.4 2.6 -39.75 2.7 -40.1 2.85 -40.45 2.95 -40.5 2.95 -40.5 3.0 -40.55 3.0 -40.6 3.0 -40.6 3.05 -40.65 3.05 -40.65 3.05 -40.7 3.1 -40.7 3.1 -40.75 3.15 -40.8 3.15 -40.8 3.2 -40.85 3.2 -40.9 3.2 -40.9 3.25 -40.95 3.25 -40.8 3.55 -40.7 3.65 -40.6 3.85 -40.55 4.0 -40.45 4.15 -40.4 4.25 -40.35 4.4 -40.35 4.55 -40.3 4.65 -40.3 4.8 -40.3 4.95 -40.3 5.15 -40.3 5.3 -40.3 5.55 -40.3 5.7 -40.35 6.1 -40.8 6.45 -41.3 6.85 -41.75 7.2 -42.25 7.5 -42.75 7.85 -43.25 8.15 -43.75 8.45 -44.3 8.7 -44.85 9.0 -45.35 9.25 -45.9 9.5 -46.45 9.7 -47.0 9.95 -47.6 10.15 -48.15 10.35 -48.75 10.55 -49.25 10.7 -49.75 10.85 -50.3 10.95 -50.8 11.05 -51.3 11.15 -51.85 11.25 -52.35 11.35 -52.9 11.4 -53.4 11.45 -53.95 11.5 -54.45 11.55 -55.0 11.55 -55.5 11.6 -56.05 11.6 -56.55 11.65 -57.1 11.65 -63.0 11.75 -64.8 11.8 -64.85 11.8 -65.65 11.95 -65.7 12.05 -65.75 12.15 -65.75 12.25 -65.75 12.35 -65.75 12.4 -65.75 12.5 -65.75 12.55 -65.7 12.65 -65.65 12.7 -65.65 12.75 -65.6 12.8 -65.55 12.9 -65.55 12.9 -65.45 13.0 -65.4 13.05 -65.35 13.1 -65.0 13.6 -64.65 14.1 -64.25 14.6 -63.9 15.1 -63.5 15.55 -63.1 16.05 -62.7 16.5 -62.3 16.95 -61.9 17.4 -61.45 17.85 -61.05 18.3 -60.6 18.75 -60.25 19.2 -59.75 19.65 -59.4 20.05 -58.9 20.55 -54.9 24.6 -54.15 25.25 -53.8 25.6 -53.5 25.9 -53.2 26.25 -52.95 26.65 -52.75 27.0 -52.55 27.35 -52.4 27.75 -52.25 28.15 -52.15 28.55 -52.1 28.95 -52.05 29.35 -52.05 29.75 -52.05 30.2 -52.1 30.65 -52.15 31.05 -52.2 31.5 -52.25 31.7 -52.3 31.9 -52.35 32.1 -52.4 32.35 -52.45 32.55 -52.5 32.75 -52.55 32.95 -52.6 33.15 -52.7 33.35 -52.75 33.55 -52.8 33.75 -52.85 33.95 -52.9 34.15 -53.0 34.35 -53.05 34.55 -53.1 34.75 -53.45 35.8 -55.25 41.0 -56.55 44.8 -57.35 47.25 -57.4 47.4 -57.55 47.8 -57.65 48.2 -57.75 48.35 -57.9 48.65 -57.95 48.95 -58.05 49.25 -58.15 49.55 -58.2 49.8 -58.25 50.1 -58.25 50.4 -58.25 50.7 -58.3 51.0 -58.25 51.3 -58.25 51.6 -58.2 51.9 -58.15 52.2 -58.1 52.5 -58.0 52.8 -57.95 53.15 -57.8 53.65 -57.7 54.2 -57.6 54.7 -57.55 55.25 -57.45 55.75 -57.45 56.25 -57.45 56.8 -57.5 57.3 -57.5 57.85 -57.6 58.35 -57.7 58.9 -57.8 59.4 -57.95 59.9 -58.1 60.4 -58.3 60.95 -58.5 61.45 -58.55 61.6 -58.6 61.65 -58.65 61.8 -58.7 61.9 -58.75 62.0 -58.75 62.1 -58.8 62.25 -58.85 62.35 -58.85 62.45 -58.9 62.6 -58.9 62.7 -58.9 62.8 -58.9 62.95 -58.9 63.05 -58.85 63.2 -58.8 63.3 -58.7 63.65 -58.65 63.95 -58.6 64.3 -58.55 64.6 -58.5 64.95 -58.5 65.3 -58.45 65.6 -58.5 65.95 -58.5 66.25 -58.5 66.6 -58.55 66.95 -58.6 67.25 -58.65 67.6 -58.7 67.9 -58.75 68.25 -58.85 68.6 -58.85 68.65 -58.9 69.2 -58.35 69.85 -57.5 70.8 -57.4 70.9 -57.3 71.05 -57.25 71.2 -57.15 71.3 -57.1 71.45 -57.05 71.6 -57.0 71.7 -56.95 71.85 -56.9 72.0 -56.85 72.15 -56.85 72.3 -56.85 72.4 -56.8 72.55 -56.8 72.7 -56.8 72.85 -56.8 73.0 -56.8 73.2 -56.85 73.35 -56.85 73.5 -56.9 73.6 -56.95 73.75 -57.0 73.85 -57.05 74.0 -57.1 74.1 -57.2 74.15 -57.3 74.25 -57.4 74.3 -57.5 74.4 -57.6 74.45 -57.75 74.45 -57.9 74.5 -58.05 74.55 -58.15 74.55 -58.3 74.55 -58.4 74.55 -58.55 74.55 -58.65 74.55 -58.75 74.55 -58.9 74.55 -59.0 74.55 -59.15 74.55 -59.25 74.55 -59.35 74.5 -59.5 74.5 -59.6 74.5 -59.75 74.45 -59.8 74.45 -60.0 74.45 -60.05 74.45 -60.15 74.4 -60.2 74.4 -60.3 74.4 -60.35 74.35 -60.4 74.35 -60.45 74.3 -60.55 74.3 -60.6 74.25 -60.7 74.25 -60.8 74.2 -60.85 74.2 -60.9 74.15 -60.95 74.15 -61.05 74.1 -61.1 74.1 -61.35 74.0 -62.3 73.75 -62.4 73.8 -63.05 74.15 -63.55 74.4 -63.85 74.55 -64.55 74.9 -65.25 75.1 -65.95 75.35 -66.6 75.5 -67.3 75.65 -67.95 75.65 -68.65 75.7 -69.3 75.65 -69.95 75.55 -70.6 75.4 -71.25 75.25 -71.9 75.0 -72.55 74.7 -73.15 74.35 -73.8 74.0 -74.4 73.5 -74.55 73.35 -74.75 73.25 -74.9 73.15 -75.1 73.0 -75.25 72.9 -75.45 72.8 -75.6 72.7 -75.8 72.6 -76.0 72.5 -76.15 72.45 -76.35 72.35 -76.55 72.25 -76.7 72.15 -76.9 72.1 -77.1 72.0 -77.3 71.95 -84.6 69.2 -87.95 67.75 -88.95 67.3 -89.95 66.8 -90.9 66.35 -91.8 65.8 -92.7 65.35 -93.5 64.8 -94.3 64.3 -95.05 63.8 -95.75 63.3 -96.45 62.75 -97.05 62.3 -97.65 61.8 -98.2 61.35 -98.7 60.9 -99.15 60.55 -99.6 60.1 -100.2 59.55 -100.7 59.1 -101.1 58.65 -101.55 58.2 -101.85 57.85 -102.25 57.4 -102.5 57.15 -102.95 56.6 -103.4 56.05 -103.65 55.75 -104.1 55.2 -104.55 54.75 -105.05 54.15 -105.65 53.55 -106.3 52.85 -107.1 52.1 -107.75 51.5 -108.35 50.9 -108.95 50.35 -109.5 49.85 -110.05 49.4 -110.55 48.9 -111.0 48.5 -111.5 48.1 -111.9 47.75 -112.4 47.4 -112.65 47.15 -113.15 46.75 -113.65 46.4 -113.85 46.2 -114.25 45.9 -114.5 45.7 -115.5 44.85 -116.4 43.9 -117.3 43.0 -118.1 42.0 -118.85 41.05 -119.55 39.95 -120.25 38.9 -120.9 37.75 -121.55 36.65 -122.2 35.35 -122.75 34.2 -123.4 32.75 -123.95 31.55 -124.6 29.95 -125.1 28.85 -125.9 26.9 -126.7 25.05 -127.35 23.2 -128.0 21.45 -128.6 19.7 -129.15 18.0 -129.7 16.2 -130.15 14.55 -130.65 12.75 -131.05 11.05 -131.5 9.2 -131.9 7.5 -132.3 5.5 -132.65 3.85 -133.1 1.6 -133.4 0.25 -133.95 -2.6 -134.75 -6.75 -135.55 -11.95 -136.9 -21.2 -136.85 -26.4 -136.85 -27.65 -136.7 -35.85 -136.65 -36.7 -136.65 -38.15 -136.6 -39.8 -136.6 -40.4 -136.6 -40.55 -136.6 -40.7 -136.6 -40.9 -136.6 -41.05 -136.65 -41.2 -136.65 -41.35 -136.7 -41.5 -136.75 -41.65 -136.75 -41.8 -136.8 -41.95 -136.85 -42.1 -136.95 -42.25 -137.0 -42.4 -137.1 -42.55 -137.15 -42.65 -137.25 -42.8 -137.5 -43.15 -137.7 -43.5 -137.9 -43.8 -138.05 -44.2 -138.25 -44.55 -138.35 -44.9 -138.5 -45.25 -138.6 -45.65 -138.7 -46.0 -138.8 -46.4 -138.85 -46.8 -138.9 -47.15 -138.95 -47.55 -138.95 -47.95 -138.95 -48.35 -138.95 -48.75 -138.95 -49.4 -138.95 -50.0 -138.95 -50.65 -138.95 -51.3 -138.95 -51.9 -139.0 -52.55 -139.05 -53.15 -139.15 -53.8 -139.2 -54.4 -139.3 -55.05 -139.4 -55.65 -139.5 -56.25 -139.65 -56.9 -139.8 -57.5 -139.95 -58.1 -140.15 -58.7 -141.05 -61.6 -141.6 -63.2 -145.1 -72.45 -146.0 -74.6 -146.35 -75.5 -146.75 -76.4 -147.15 -77.35 -147.6 -78.2 -148.0 -79.1 -148.5 -79.95 -148.95 -80.85 -149.4 -81.7 -149.9 -82.55 -150.4 -83.4 -150.95 -84.25 -151.45 -85.05 -152.0 -85.9 -152.6 -86.7 -153.15 -87.5 -153.75 -88.3 -154.95 -89.85 -156.25 -91.3 -157.55 -92.75 -158.95 -94.1 -160.3 -95.4 -161.8 -96.65 -163.25 -97.85 -164.8 -98.95 -166.35 -100.0 -168.0 -101.0 -169.6 -101.95 -171.35 -102.8 -173.05 -103.7 -174.85 -104.4 -176.65 -105.15 -178.5 -105.8 -179.3 -106.1 -180.15 -106.35 -180.95 -106.6 -181.8 -106.8 -182.65 -107.05 -183.45 -107.25 -184.3 -107.5 -185.15 -107.65 -186.0 -107.85 -186.85 -108.05 -187.65 -108.2 -188.55 -108.35 -189.35 -108.55 -190.25 -108.7 -191.05 -108.8 -191.95 -108.95 -193.95 -109.25 -200.95 -110.1 -201.5 -110.15 -202.0 -110.2 -202.55 -110.25 -203.05 -110.25 -203.6 -110.3 -204.1 -110.25 -204.65 -110.25 -205.15 -110.25 -205.7 -110.2 -206.2 -110.15 -206.75 -110.1 -207.25 -110.05 -207.8 -110.0 -208.3 -109.9 -208.85 -109.75 -209.35 -109.65 -210.05 -109.45 -211.3 -109.35 -211.35 -109.35 -211.4 -109.35 -211.5 -109.3 -211.55 -109.3 -211.6 -109.3 -211.7 -109.3 -211.75 -109.3 -211.8 -109.3 -211.85 -109.3 -211.95 -109.3 -212.0 -109.3 -212.05 -109.3 -212.1 -109.35 -212.15 -109.35 -212.2 -109.35 -212.25 -109.4 -212.3 -109.45 -212.4 -109.45 -212.45 -109.5 -212.5 -109.55 -212.55 -109.6 -212.6 -109.65 -212.65 -109.65 -212.75 -109.7 -212.8 -109.75 -212.85 -109.8 -212.9 -109.9 -212.9 -109.95 -212.95 -110.0 -213.0 -110.05 -213.05 -110.1 -213.05 -110.15 -213.1 -110.2 -213.1 -110.3 -213.1 -110.35 -213.15 -110.45 -213.15 -110.5 -213.1 -110.6 -213.1 -110.65 -213.1 -110.7 -213.05 -110.8 -213.05 -110.85 -213.0 -110.9 -212.95 -111.0 -212.9 -111.05 -212.85 -111.1 -212.8 -111.15 -212.75 -111.2 -212.7 -111.25 -212.7 -111.25 -212.65 -111.3 -212.6 -111.3 -212.6 -111.35 -212.55 -111.35 -212.55 -111.35 -212.5 -111.4 -212.45 -111.4 -212.45 -111.45 -212.4 -111.45 -212.35 -111.45 -212.35 -111.5 -212.3 -111.5 -212.25 -111.5 -212.25 -111.55 -211.6 -111.8 -211.3 -111.85 -209.75 -112.2 -204.45 -113.55 -200.2 -114.7 -197.5 -115.05 -196.45 -115.2 -195.45 -115.3 -194.4 -115.4 -193.35 -115.5 -192.35 -115.6 -191.3 -115.65 -190.25 -115.7 -189.25 -115.7 -188.2 -115.75 -187.15 -115.7 -186.15 -115.7 -185.1 -115.65 -184.05 -115.65 -183.05 -115.55 -182.0 -115.5 -180.95 -115.4 -179.85 -115.3 -178.75 -115.15 -177.7 -115.0 -176.6 -114.85 -175.5 -114.7 -174.45 -114.5 -173.35 -114.35 -172.25 -114.1 -171.2 -113.9 -170.15 -113.7 -169.05 -113.45 -168.0 -113.2 -166.9 -112.95 -165.85 -112.65 -164.8 -112.35 -163.75 -112.05 -163.55 -112.0 -163.25 -111.95 -162.85 -111.85 -162.75 -111.85 -162.65 -112.05 -162.6 -112.25 -162.55 -112.45 -162.5 -112.65 -162.5 -112.85 -162.45 -113.1 -162.45 -113.3 -162.45 -113.5 -162.45 -113.65 -162.45 -113.95 -162.45 -114.3 -162.45 -114.35 -162.4 -114.6 -162.4 -114.8 -162.4 -115.0 -162.4 -115.2 -163.35 -116.05 -163.9 -116.45 -175.2 -124.9 -180.7 -128.95 -181.95 -129.9 -183.15 -130.8 -184.4 -131.75 -185.6 -132.65 -186.85 -133.65 -188.05 -134.6 -189.25 -135.55 -190.4 -136.55 -191.6 -137.55 -192.75 -138.55 -193.9 -139.55 -195.05 -140.6 -196.2 -141.65 -197.3 -142.7 -198.4 -143.8 -199.5 -144.9 -201.7 -147.1 -203.7 -149.4 -205.7 -151.7 -207.55 -154.1 -209.45 -156.55 -211.1 -159.0 -212.8 -161.55 -214.3 -164.15 -215.8 -166.75 -217.15 -169.45 -218.5 -172.15 -219.65 -174.95 -220.8 -177.75 -221.8 -180.65 -222.75 -183.55 -223.55 -186.55 -224.0 -188.25 -224.4 -190.0 -224.75 -191.7 -225.1 -193.4 -225.4 -195.15 -225.65 -196.85 -225.9 -198.6 -226.05 -200.35 -226.25 -202.05 -226.35 -203.8 -226.45 -205.55 -226.5 -207.3 -226.55 -209.05 -226.5 -210.8 -226.5 -212.55 -226.4 -214.3 -226.3 -216.05 -226.15 -217.8 -225.95 -219.5 -225.7 -221.25 -225.45 -222.95 -225.15 -224.65 -224.85 -226.35 -224.45 -228.05 -224.05 -229.75 -223.6 -231.4 -223.2 -233.1 -222.7 -234.75 -222.2 -236.4 -221.6 -238.05 -221.05 -239.7 -220.45 -241.35 -219.65 -243.5 -218.75 -245.65 -217.85 -247.75 -216.85 -249.85 -215.9 -251.9 -214.85 -253.95 -213.8 -255.95 -212.65 -257.95 -211.5 -259.9 -210.3 -261.9 -209.1 -263.8 -207.85 -265.7 -206.55 -267.6 -205.2 -269.5 -203.9 -271.35 -202.45 -273.2 -200.9 -275.2 -198.45 -278.05 -194.25 -283.05 -194.4 -282.9 -194.15 -283.15 -193.8 -283.65 -193.35 -284.2 -193.15 -284.45 -192.45 -285.3 -191.9 -285.9 -191.8 -286.0 -191.65 -286.1 -191.55 -286.2 -191.4 -286.3 -191.3 -286.35 -191.15 -286.45 -191.05 -286.5 -190.9 -286.5 -190.75 -286.55 -190.6 -286.55 -190.45 -286.55 -190.3 -286.55 -190.15 -286.5 -190.0 -286.45 -189.85 -286.45 -189.65 -286.35 -189.55 -286.15 -189.5 -285.9 -189.5 -285.7 -189.45 -285.5 -189.45 -285.25 -189.45 -285.05 -189.5 -284.85 -189.55 -284.65 -189.55 -284.45 -189.65 -284.25 -189.7 -284.05 -189.8 -283.85 -189.9 -283.65 -190.0 -283.45 -190.1 -283.25 -190.25 -283.05 -190.85 -282.2 -191.4 -281.3 -191.95 -280.45 -192.5 -279.55 -193.05 -278.65 -193.55 -277.7 -194.05 -276.85 -194.5 -275.85 -194.95 -275.0 -195.45 -274.0 -195.85 -273.15 -196.35 -272.1 -196.7 -271.4 -197.25 -270.2 -197.95 -268.7 -198.15 -268.3 -199.25 -266.0 -200.25 -263.65 -201.25 -261.35 -202.2 -259.0 -203.15 -256.65 -204.0 -254.25 -204.9 -251.9 -205.7 -249.5 -206.5 -247.1 -207.25 -244.65 -207.95 -242.25 -208.65 -239.8 -209.3 -237.35 -209.9 -234.85 -210.5 -232.4 -211.0 -229.9 -211.2 -228.85 -211.4 -227.85 -211.6 -226.8 -211.8 -225.8 -212.0 -224.75 -212.15 -223.7 -212.3 -222.65 -212.45 -221.65 -212.6 -220.6 -212.7 -219.55 -212.8 -218.5 -212.9 -217.5 -213.0 -216.4 -213.05 -215.4 -213.15 -214.35 -213.15 -213.3 -213.25 -211.05 -213.15 -208.8 -213.1 -206.55 -212.95 -204.35 -212.75 -202.1 -212.45 -199.9 -212.15 -197.7 -211.7 -195.55 -211.25 -193.4 -210.65 -191.25 -210.1 -189.1 -209.35 -187.0 -208.65 -184.9 -207.8 -182.85 -206.95 -180.75 -205.95 -178.7 -205.1 -176.9 -204.1 -175.1 -203.15 -173.35 -202.1 -171.65 -201.05 -169.95 -199.95 -168.3 -198.85 -166.7 -197.6 -165.1 -196.45 -163.5 -195.15 -162.0 -193.9 -160.45 -192.55 -158.95 -191.25 -157.5 -189.8 -156.05 -188.4 -154.65 -186.95 -153.25 -185.15 -151.55 -181.0 -147.75 -180.85 -147.6 -179.55 -146.55 -179.5 -146.65 -179.2 -147.25 -179.0 -147.65 -178.9 -147.9 -178.8 -148.15 -178.35 -149.15 -178.85 -149.95 -179.0 -150.15 -180.55 -152.3 -180.85 -152.7 -181.5 -153.55 -182.1 -154.45 -182.65 -155.3 -183.2 -156.25 -183.7 -157.15 -184.15 -158.1 -184.6 -159.0 -185.05 -159.95 -185.4 -160.9 -185.75 -161.9 -186.1 -162.9 -186.4 -163.9 -186.7 -164.9 -186.95 -165.9 -187.2 -166.95 -187.45 -168.0 -187.65 -169.05 -187.85 -170.1 -188.05 -171.15 -188.2 -172.15 -188.35 -173.2 -188.5 -174.25 -188.65 -175.3 -188.75 -176.35 -188.9 -177.45 -188.95 -178.45 -189.05 -179.55 -189.1 -180.6 -189.15 -181.65 -189.2 -182.7 -189.2 -183.75 -189.2 -184.8 -189.2 -186.65 -189.1 -188.45 -189.05 -190.3 -188.9 -192.1 -188.75 -193.95 -188.5 -195.75 -188.25 -197.55 -187.95 -199.35 -187.65 -201.15 -187.2 -202.9 -186.8 -204.65 -186.3 -206.4 -185.8 -208.15 -185.2 -209.9 -184.6 -211.6 -183.85 -213.3 -182.05 -217.7 -177.85 -224.85 -177.65 -225.2 -177.45 -225.5 -177.25 -225.85 -177.1 -226.15 -176.9 -226.5 -176.7 -226.8 -176.5 -227.15 -176.3 -227.5 -176.1 -227.8 -175.9 -228.15 -175.7 -228.45 -175.5 -228.8 -175.3 -229.1 -175.1 -229.45 -174.9 -229.75 -174.7 -230.1 -174.4 -230.55 -173.85 -231.3 -173.15 -232.15 -172.95 -232.45 -172.9 -232.5 -172.85 -232.6 -172.8 -232.65 -172.75 -232.75 -172.7 -232.8 -172.65 -232.85 -172.6 -232.95 -172.55 -233.0 -172.5 -233.1 -172.45 -233.15 -172.4 -233.25 -172.35 -233.3 -172.35 -233.4 -172.3 -233.45 -172.25 -233.55 -172.2 -233.6 -155.6 -261.85 -151.45 -269.0 -150.4 -270.8 -149.4 -272.55 -148.35 -274.4 -147.4 -276.15 -146.35 -278.0 -145.45 -279.8 -144.45 -281.6 -143.55 -283.45 -142.6 -285.3 -141.7 -287.1 -140.8 -289.0 -139.95 -290.85 -139.1 -292.75 -138.3 -294.6 -137.5 -296.5 -136.7 -298.4 -135.95 -300.3 -135.25 -302.15 -134.5 -304.1 -133.85 -305.95 -133.15 -307.9 -132.5 -309.8 -131.85 -311.7 -131.3 -313.65 -130.65 -315.6 -130.15 -317.5 -129.55 -319.45 -129.05 -321.4 -128.55 -323.35 -128.1 -325.3 -127.65 -327.3 -127.25 -329.25 -127.05 -330.15 -126.9 -331.0 -126.75 -331.85 -126.6 -332.7 -126.45 -333.6 -126.35 -334.45 -126.2 -335.35 -126.1 -336.2 -125.95 -337.05 -125.9 -337.9 -125.8 -338.8 -125.75 -339.65 -125.65 -340.55 -125.6 -341.4 -125.6 -342.3 -125.55 -343.15 -125.55 -343.7 -125.55 -344.3 -125.55 -344.85 -125.55 -345.4 -125.6 -346.0 -125.6 -346.55 -125.65 -347.1 -125.65 -347.7 -125.7 -348.25 -125.75 -348.8 -125.8 -349.4 -125.85 -349.95 -125.9 -350.5 -125.95 -351.1 -126.0 -351.65 -126.1 -352.2 -127.6 -365.1 -132.35 -387.3 -133.25 -391.8 -133.75 -393.85 -133.95 -394.75 -134.45 -396.7 -134.95 -398.55 -135.15 -399.6 -135.2 -399.8 -135.25 -399.95 -135.3 -400.15 -135.3 -400.3 -135.35 -400.5 -135.35 -400.65 -135.4 -400.85 -135.4 -401.05 -135.4 -401.2 -135.4 -401.4 -135.4 -401.6 -135.4 -401.75 -135.35 -401.95 -135.3 -402.1 -135.25 -402.3 -135.2 -402.45 -135.0 -402.5 -134.85 -402.55 -134.7 -402.6 -134.55 -402.6 -134.4 -402.65 -134.25 -402.6 -134.15 -402.6 -134.0 -402.55 -133.9 -402.5 -133.8 -402.4 -133.65 -402.35 -133.6 -402.25 -133.5 -402.1 -133.4 -402.0 -133.3 -401.85 -133.25 -401.7 -133.2 -401.55 -132.5 -399.95 -132.05 -398.95 -131.8 -398.25 -129.0 -389.6 -128.15 -386.55 -127.65 -384.8 -127.2 -383.05 -126.75 -381.25 -126.3 -379.5 -125.85 -377.75 -125.45 -375.95 -125.05 -374.2 -124.65 -372.4 -124.25 -370.6 -123.9 -368.85 -123.55 -367.05 -123.25 -365.25 -122.9 -363.45 -122.6 -361.65 -122.35 -359.85 -122.05 -358.05 -121.85 -356.65 -121.7 -355.25 -121.5 -353.85 -121.35 -352.45 -121.2 -351.05 -121.1 -349.7 -121.0 -348.3 -120.9 -346.9 -120.85 -345.45 -120.8 -344.1 -120.75 -342.65 -120.7 -341.25 -120.7 -339.85 -120.7 -338.45 -120.7 -337.05 -120.75 -335.65 -120.8 -333.85 -120.9 -332.05 -121.0 -330.3 -121.1 -328.5 -121.2 -326.75 -121.35 -324.95 -121.5 -323.15 -121.65 -321.4 -121.85 -319.6 -122.05 -317.85 -122.2 -316.05 -122.45 -314.3 -122.65 -312.5 -122.9 -310.75 -123.15 -308.95 -123.4 -307.2 -123.6 -306.0 -123.8 -304.8 -123.95 -303.6 -124.2 -302.45 -124.4 -301.25 -124.6 -300.05 -124.8 -298.85 -125.05 -297.7 -125.25 -296.5 -125.5 -295.3 -125.75 -294.1 -126.0 -292.95 -126.25 -291.75 -126.5 -290.6 -126.75 -289.4 -127.05 -288.25 -127.2 -287.5 -127.4 -286.8 -127.6 -286.05 -127.75 -285.3 -127.95 -284.6 -128.15 -283.85 -128.4 -283.15 -128.6 -282.4 -128.8 -281.7 -129.05 -281.0 -129.25 -280.3 -129.5 -279.55 -129.75 -278.85 -130.0 -278.15 -130.2 -277.45 -130.45 -276.7 -130.55 -276.35 -131.15 -274.55 -129.55 -274.25 -126.55 -273.75 -125.4 -275.9 -125.15 -276.4 -114.9 -297.3 -112.0 -303.4 -104.7 -318.7 -99.6 -330.8 -93.9 -344.5 -91.3 -352.95 -90.9 -354.3 -90.5 -355.7 -90.1 -357.05 -89.75 -358.45 -89.4 -359.85 -89.05 -361.25 -88.75 -362.6 -88.45 -364.0 -88.15 -365.4 -87.85 -366.8 -87.55 -368.2 -87.3 -369.6 -87.05 -371.0 -86.8 -372.45 -86.55 -373.85 -86.35 -375.25 -86.15 -376.6 -85.95 -377.95 -85.75 -379.3 -85.6 -380.7 -85.4 -382.05 -85.25 -383.4 -85.1 -384.75 -85.0 -386.1 -84.85 -387.45 -84.75 -388.85 -84.65 -390.2 -84.55 -391.55 -84.5 -392.95 -84.4 -394.3 -84.35 -395.65 -84.3 -397.05 -84.3 -397.8 -84.25 -398.55 -84.25 -399.3 -84.3 -400.05 -84.3 -400.8 -84.3 -401.55 -84.35 -402.3 -84.4 -403.05 -84.45 -403.8 -84.5 -404.55 -84.55 -405.3 -84.65 -406.05 -84.7 -406.8 -84.8 -407.55 -84.9 -408.3 -85.0 -409.05 -85.1 -410.05 -85.95 -415.65 -86.0 -416.05 -86.05 -416.3 -86.1 -416.6 -86.1 -416.85 -86.15 -417.1 -86.15 -417.3 -86.15 -417.5 -86.15 -417.7 -86.15 -417.9 -86.1 -418.1 -86.1 -418.3 -86.05 -418.5 -86.05 -418.65 -85.95 -418.9 -85.9 -419.1 -85.85 -419.4 -85.0 -419.5 -84.9 -419.5 -84.8 -419.5 -84.65 -419.5 -84.55 -419.5 -84.45 -419.45 -84.35 -419.45 -84.25 -419.4 -84.15 -419.35 -84.05 -419.3 -84.0 -419.25 -83.9 -419.2 -83.8 -419.15 -83.75 -419.05 -83.65 -419.0 -83.6 -418.9 -83.55 -418.8 -83.45 -418.7 -82.95 -417.75 -81.9 -415.95 -80.85 -414.1 -80.35 -413.2 -79.6 -411.85 -78.95 -410.55 -78.25 -409.15 -77.65 -407.8 -77.0 -406.45 -76.4 -405.1 -75.8 -403.7 -75.25 -402.3 -74.7 -400.9 -74.2 -399.5 -73.7 -398.1 -73.25 -396.65 -72.8 -395.2 -72.4 -393.8 -71.95 -392.3 -71.65 -390.85 -71.45 -390.0 -71.25 -389.15 -71.1 -388.35 -70.9 -387.5 -70.75 -386.65 -70.6 -385.8 -70.45 -384.95 -70.3 -384.1 -70.15 -383.25 -70.05 -382.4 -69.95 -381.55 -69.85 -380.65 -69.75 -379.8 -69.65 -378.95 -69.55 -378.1 -69.45 -377.25 -69.35 -376.05 -69.25 -374.95 -69.2 -373.8 -69.1 -372.65 -69.0 -371.5 -68.95 -370.4 -68.9 -369.2 -68.85 -368.1 -68.8 -366.95 -68.75 -365.8 -68.75 -364.65 -68.75 -363.5 -68.7 -362.35 -68.7 -361.2 -68.75 -360.05 -68.75 -358.9 -68.75 -358.8 -68.65 -357.65 -67.1 -358.05 -64.15 -358.9 -64.1 -359.0 -64.05 -359.05 -63.95 -359.15 -63.9 -359.2 -63.85 -359.3 -63.75 -359.4 -63.7 -359.5 -63.6 -359.6 -63.55 -359.7 -63.5 -359.75 -63.4 -359.85 -63.35 -359.95 -63.25 -360.05 -63.2 -360.15 -63.15 -360.25 -63.05 -360.35 -62.15 -361.7 -60.3 -364.35 -58.45 -367.0 -57.55 -368.3 -56.2 -370.25 -54.8 -372.15 -53.45 -374.0 -51.95 -375.85 -50.5 -377.65 -48.95 -379.45 -47.45 -381.2 -45.85 -382.9 -44.25 -384.65 -42.6 -386.3 -40.95 -387.95 -39.25 -389.55 -37.55 -391.15 -35.8 -392.7 -34.05 -394.25 -32.2 -395.75 -30.45 -397.2 -28.65 -398.6 -26.85 -400.0 -25.05 -401.4 -23.2 -402.75 -21.35 -404.1 -19.5 -405.45 -17.65 -406.75 -15.75 -408.0 -13.85 -409.3 -11.95 -410.55 -10.05 -411.75 -8.15 -413.0 -6.15 -414.2 -4.25 -415.35 -2.25 -416.55 -0.8 -417.4 1.45 -418.65 4.65 -420.4 5.15 -420.7 5.4 -420.8 6.25 -421.45 6.5 -421.6 6.6 -421.7 6.8 -421.85 6.95 -421.95 7.1 -422.0 7.25 -422.05 7.35 -422.15 7.5 -422.15 7.65 -422.2 7.85 -422.2 8.0 -422.2 8.25 -422.2 8.45 -422.2 8.7 -422.2 8.95 -422.15 9.3 -422.1 9.4 -421.9 9.45 -421.7 9.5 -421.5 9.5 -421.35 9.55 -421.15 9.55 -420.95 9.55 -420.8 9.5 -420.6 9.45 -420.4 9.4 -420.25 9.35 -420.1 9.25 -419.95 9.15 -419.75 9.0 -419.6 8.85 -419.45 8.7 -419.35 8.55 -419.2 8.4 -419.1 8.25 -418.95 8.1 -418.8 7.95 -418.65 7.85 -418.5 7.7 -418.35 7.6 -418.2 7.45 -418.05 7.35 -417.9 7.25 -417.75 7.1 -417.55 7.05 -417.45 6.9 -417.25 6.75 -417.05 6.65 -416.95 5.35 -415.05 4.7 -414.2 3.3 -412.45 2.0 -410.6 0.7 -408.75 -0.55 -406.9 -1.75 -405.0 -2.9 -403.1 -4.05 -401.2 -5.1 -399.2 -6.15 -397.25 -7.15 -395.25 -8.1 -393.25 -9.05 -391.15 -9.95 -389.15 -10.75 -387.05 -11.6 -384.95 -12.35 -382.8 -12.65 -382.0 -12.9 -381.3 -13.15 -380.55 -13.4 -379.85 -13.65 -379.05 -13.9 -378.35 -14.15 -377.55 -14.35 -376.85 -14.6 -376.05 -14.8 -375.3 -15.05 -374.55 -15.25 -373.8 -15.45 -373.05 -15.6 -372.25 -15.8 -371.5 -15.95 -370.75 -16.15 -369.75 -16.55 -366.65 -16.55 -366.6 -16.55 -366.5 -16.55 -366.45 -16.55 -366.35 -16.55 -366.3 -16.55 -366.2 -16.55 -366.15 -16.55 -366.05 -16.55 -366.0 -16.5 -365.95 -16.5 -365.85 -16.5 -365.8 -16.5 -365.7 -16.5 -365.65 -16.5 -365.6 -16.5 -365.5 -16.4 -365.5 -16.35 -365.5 -16.3 -365.5 -16.2 -365.5 -16.15 -365.5 -16.1 -365.55 -16.05 -365.55 -16.05 -365.6 -16.0 -365.65 -15.95 -365.65 -15.95 -365.7 -15.9 -365.75 -15.9 -365.8 -15.85 -365.85 -15.85 -365.85 -15.85 -365.9 -15.35 -367.0 -14.8 -368.1 -14.25 -369.2 -13.65 -370.25 -13.05 -371.3 -12.4 -372.3 -11.75 -373.3 -11.05 -374.3 -10.35 -375.25 -9.6 -376.25 -8.85 -377.15 -8.1 -378.1 -7.3 -379.0 -6.5 -379.9 -5.65 -380.8 -4.8 -381.65 -4.1 -382.35 -3.35 -383.1 -2.65 -383.8 -1.9 -384.45 -1.15 -385.15 -0.4 -385.85 0.35 -386.5 1.15 -387.15 1.9 -387.8 2.7 -388.45 3.5 -389.05 4.3 -389.7 5.05 -390.3 5.9 -390.9 6.7 -391.5 7.5 -392.15 8.35 -392.75 9.15 -393.3 10.0 -393.9 10.85 -394.45 11.7 -395.0 12.55 -395.55 13.4 -396.1 14.25 -396.6 15.1 -397.15 16.0 -397.65 16.85 -398.15 17.75 -398.65 18.65 -399.15 19.5 -399.6 20.4 -400.1 21.35 -400.55 22.5 -401.1 23.05 -401.5 25.8 -403.4 30.45 -406.2 36.25 -409.7 37.95 -410.8 43.25 -414.2 49.2 -418.45 50.25 -419.2 51.75 -420.45 54.95 -423.25 54.2 -422.6 54.3 -422.7 54.45 -422.8 54.55 -422.85 54.65 -422.9 54.75 -422.95 54.85 -423.0 54.95 -423.0 55.05 -423.0 55.15 -423.0 55.25 -423.0 55.35 -422.95 55.45 -422.9 55.55 -422.85 55.7 -422.8 55.8 -422.7 55.9 -422.6 56.05 -422.45 56.2 -422.35 56.35 -422.2 56.45 -422.05 56.55 -421.9 56.65 -421.75 56.75 -421.6 56.8 -421.45 56.85 -421.3 56.85 -421.1 56.85 -420.95 56.85 -420.75 56.85 -420.6 56.8 -420.4 56.8 -420.2 56.75 -420.0 56.65 -419.7 56.55 -419.45 56.45 -419.15 56.35 -418.9 56.25 -418.6 56.1 -418.35 56.0 -418.05 55.85 -417.8 55.75 -417.55 55.6 -417.3 55.45 -417.0 55.3 -416.75 55.15 -416.5 55.0 -416.25 54.85 -416.0 54.7 -415.75 54.15 -414.9 53.6 -414.1 53.05 -413.3 52.5 -412.5 51.9 -411.7 51.3 -410.9 50.7 -410.1 50.1 -409.35 49.5 -408.55 48.85 -407.8 48.25 -407.05 47.6 -406.3 46.9 -405.6 46.25 -404.85 45.55 -404.15 44.9 -403.45 42.9 -401.45 38.0 -396.5 33.6 -392.1 31.1 -389.55 30.1 -388.55 29.2 -387.5 28.25 -386.5 27.35 -385.4 26.45 -384.35 25.6 -383.25 24.75 -382.15 24.0 -381.0 23.2 -379.9 22.45 -378.7 21.7 -377.55 21.0 -376.35 20.3 -375.15 19.65 -373.9 18.95 -372.7 18.35 -371.4 18.3 -371.25 18.2 -371.05 18.1 -370.65 18.05 -370.55 19.35 -369.75 22.05 -368.0 23.7 -369.2 24.6 -369.85 25.9 -370.8 27.2 -371.75 28.5 -372.7 29.8 -373.6 31.1 -374.55 32.45 -375.4 33.8 -376.3 35.15 -377.15 36.5 -378.05 37.85 -378.85 39.25 -379.7 40.6 -380.5 42.0 -381.3 43.4 -382.05 44.8 -382.85 46.25 -383.55 47.9 -384.4 49.55 -385.25 51.2 -386.05 52.85 -386.85 54.55 -387.65 56.25 -388.4 57.9 -389.15 59.6 -389.9 61.3 -390.6 63.0 -391.35 64.7 -392.05 66.45 -392.7 68.15 -393.4 69.9 -394.05 71.6 -394.7 73.35 -395.35 79.1 -397.4 79.65 -397.6 79.95 -397.7 80.1 -397.75 80.4 -397.85 80.6 -397.9 80.85 -398.0 81.05 -398.05 81.3 -398.1 81.55 -398.15 81.8 -398.2 82.05 -398.2 82.3 -398.2 82.5 -398.2 82.75 -398.2 83.0 -398.2 83.25 -398.15 83.5 -398.1 83.65 -397.8 83.7 -397.6 83.8 -397.35 83.85 -397.15 83.9 -396.95 83.95 -396.75 83.95 -396.6 83.9 -396.45 83.9 -396.3 83.8 -396.15 83.75 -396.0 83.6 -395.85 83.5 -395.7 83.3 -395.55 83.15 -395.4 82.95 -395.25 82.2 -394.7 80.95 -393.8 79.45 -392.7 78.95 -392.35 77.35 -391.15 75.8 -389.9 74.3 -388.6 72.85 -387.3 71.4 -385.95 70.05 -384.5 68.7 -383.1 67.4 -381.6 66.15 -380.15 64.95 -378.6 63.75 -377.0 62.65 -375.4 61.55 -373.75 60.55 -372.05 59.5 -370.35 58.6 -368.55 57.6 -366.65 56.65 -364.7 55.65 -362.75 54.8 -360.8 53.9 -358.85 53.05 -356.85 52.25 -354.85 51.45 -352.85 50.7 -350.85 50.0 -348.85 49.3 -346.8 48.7 -344.75 48.05 -342.65 47.5 -340.6 46.95 -338.5 46.45 -336.4 45.25 -331.15 43.9 -321.65 43.75 -320.65 43.6 -319.6 43.45 -318.6 43.35 -317.6 43.2 -316.55 43.1 -315.55 42.95 -314.55 42.85 -313.5 42.75 -312.5 42.65 -311.5 42.5 -310.45 42.4 -309.45 42.35 -308.45 42.25 -307.4 42.15 -306.4 42.05 -305.35 41.95 -303.95 41.85 -302.6 41.8 -301.25 41.7 -299.9 41.65 -298.5 41.6 -297.15 41.55 -295.8 41.55 -294.45 41.55 -293.05 41.55 -291.7 41.55 -290.35 41.6 -289.0 41.65 -287.6 41.7 -286.25 41.75 -284.85 41.85 -283.5 41.85 -283.4 41.9 -283.2 42.0 -282.95 42.0 -282.85 42.2 -282.85 42.45 -282.9 42.65 -282.9 42.9 -282.95 43.1 -283.0 43.3 -283.05 43.5 -283.15 43.7 -283.2 43.9 -283.25 44.15 -283.35 44.3 -283.4 44.55 -283.45 44.85 -283.55 44.95 -283.6 45.2 -283.7 45.4 -283.75 45.45 -283.85 45.6 -284.3 45.7 -284.65 45.75 -284.9 45.95 -285.75 46.2 -286.6 46.4 -287.45 46.7 -288.3 46.95 -289.15 47.25 -290.0 47.5 -290.8 47.85 -291.65 48.15 -292.45 48.45 -293.3 48.75 -294.1 49.15 -294.95 49.45 -295.75 49.8 -296.6 50.1 -297.35 50.5 -298.25 51.7 -301.05 53.05 -303.8 54.4 -306.55 55.85 -309.25 57.3 -311.9 58.85 -314.5 60.45 -317.1 62.1 -319.6 63.8 -322.15 65.6 -324.6 67.35 -327.05 69.25 -329.45 71.15 -331.8 73.15 -334.15 75.1 -336.45 77.2 -338.7 78.65 -340.25 80.15 -341.8 81.65 -343.3 83.15 -344.75 84.7 -346.25 86.25 -347.7 87.8 -349.15 89.4 -350.5 91.0 -351.9 92.6 -353.25 94.25 -354.6 95.9 -355.9 97.6 -357.25 99.3 -358.5 101.0 -359.75 102.75 -360.95 104.35 -362.05 105.95 -363.1 107.55 -364.2 109.15 -365.2 110.8 -366.25 112.45 -367.2 114.1 -368.2 115.75 -369.15 117.45 -370.1 119.15 -370.95 120.85 -371.85 122.6 -372.7 124.3 -373.55 126.05 -374.35 127.85 -375.1 129.6 -375.85 131.1 -376.45 132.6 -377.05 134.1 -377.6 135.6 -378.15 137.1 -378.7 138.65 -379.15 140.15 -379.65 141.7 -380.1 143.25 -380.55 144.8 -380.95 146.35 -381.35 147.9 -381.7 149.45 -382.05 151.05 -382.4 152.6 -382.7 154.2 -383.0 154.55 -383.05 154.85 -383.1 155.15 -383.15 155.4 -383.15 155.7 -383.2 155.95 -383.2 156.2 -383.2 156.4 -383.2 156.65 -383.2 156.85 -383.2 157.1 -383.15 157.35 -383.15 157.55 -383.1 157.8 -383.05 158.05 -383.0 158.3 -382.95 158.4 -382.2 158.4 -381.8 158.4 -381.7 158.4 -381.65 158.4 -381.55 158.35 -381.5 158.35 -381.45 158.35 -381.35 158.3 -381.3 158.25 -381.25 158.25 -381.15 158.2 -381.1 158.15 -381.05 158.1 -381.0 158.05 -380.95 157.95 -380.9 157.9 -380.9 157.85 -380.85 157.75 -380.8 157.7 -380.75 157.6 -380.75 157.55 -380.7 157.45 -380.65 157.35 -380.6 157.3 -380.6 157.2 -380.55 157.15 -380.5 157.05 -380.5 157.0 -380.45 156.9 -380.4 156.8 -380.4 156.75 -380.35 156.65 -380.3 156.55 -380.3 155.2 -379.75 153.85 -379.2 152.5 -378.7 151.15 -378.1 149.8 -377.55 148.5 -377.0 147.15 -376.4 145.8 -375.85 144.5 -375.25 143.15 -374.65 141.85 -374.05 140.5 -373.45 139.2 -372.8 137.9 -372.2 136.55 -371.55 135.3 -370.9 133.15 -369.8 131.0 -368.7 128.9 -367.55 126.8 -366.3 124.75 -365.1 122.7 -363.8 120.7 -362.5 118.75 -361.15 116.75 -359.75 114.85 -358.35 112.9 -356.9 111.05 -355.4 109.2 -353.85 107.35 -352.3 105.55 -350.7 103.8 -349.05 102.65 -347.95 101.5 -346.85 100.4 -345.75 99.3 -344.6 98.2 -343.5 97.1 -342.35 96.05 -341.2 95.0 -340.0 93.95 -338.8 92.9 -337.6 91.9 -336.4 90.9 -335.2 89.9 -334.0 88.9 -332.75 87.95 -331.5 87.0 -330.2 86.2 -329.15 85.45 -328.05 84.7 -327.0 84.0 -325.9 83.25 -324.8 82.55 -323.65 81.9 -322.55 81.25 -321.4 80.6 -320.25 79.95 -319.1 79.35 -317.95 78.75 -316.75 78.15 -315.6 77.6 -314.35 77.05 -313.2 76.5 -311.95 75.75 -310.25 75.0 -308.55 74.3 -306.85 73.6 -305.15 72.9 -303.45 72.25 -301.7 71.55 -300.0 70.95 -298.25 70.3 -296.5 69.75 -294.8 69.15 -293.0 68.6 -291.25 68.05 -289.5 67.55 -287.7 67.05 -285.95 66.6 -284.15 66.45 -283.65 66.0 -281.8 67.35 -280.5 69.9 -278.1 70.55 -279.4 70.75 -279.9 71.35 -281.25 71.9 -282.55 72.5 -283.9 73.15 -285.2 73.75 -286.55 74.4 -287.8 75.0 -289.15 75.65 -290.4 76.35 -291.75 77.0 -293.0 77.7 -294.3 78.4 -295.55 79.1 -296.85 79.85 -298.1 80.6 -299.35 81.35 -300.6 82.45 -302.4 83.55 -304.1 84.7 -305.85 85.85 -307.55 87.05 -309.25 88.25 -310.9 89.5 -312.6 90.75 -314.2 92.05 -315.85 93.4 -317.4 94.7 -319.0 96.1 -320.5 97.5 -322.05 98.9 -323.55 100.35 -325.05 101.85 -326.5 102.4 -327.05 110.3 -333.95 110.4 -334.05 110.5 -334.1 110.6 -334.2 110.7 -334.3 110.8 -334.4 110.9 -334.5 111.0 -334.55 111.05 -334.65 111.15 -334.75 111.25 -334.85 111.35 -334.95 111.4 -335.05 111.5 -335.15 111.6 -335.25 111.7 -335.4 111.75 -335.5 111.85 -335.65 111.95 -335.75 112.05 -335.9 112.2 -336.05 112.3 -336.15 112.4 -336.3 112.5 -336.4 112.65 -336.55 112.75 -336.65 112.9 -336.8 113.0 -336.9 113.15 -337.0 113.3 -337.15 113.4 -337.25 113.55 -337.35 113.7 -337.45 117.15 -340.1 119.6 -341.75 121.45 -343.0 126.15 -345.8 126.25 -345.85 126.4 -345.95 126.5 -346.0 126.6 -346.05 126.75 -346.1 126.85 -346.15 126.95 -346.2 127.1 -346.3 127.2 -346.35 127.35 -346.4 127.45 -346.45 127.6 -346.45 127.7 -346.5 127.85 -346.55 128.0 -346.6 128.1 -346.65 128.2 -346.65 128.25 -346.7 128.35 -346.7 128.45 -346.7 128.5 -346.7 128.6 -346.75 128.7 -346.75 128.8 -346.75 128.85 -346.75 128.95 -346.75 129.05 -346.7 129.15 -346.7 129.2 -346.7 129.3 -346.7 129.4 -346.7 129.45 -346.65 129.55 -346.65 129.65 -346.6 129.7 -346.55 129.75 -346.45 129.8 -346.35 129.85 -346.25 129.85 -346.2 129.9 -346.05 129.9 -346.0 129.9 -345.8 129.95 -345.65 129.95 -345.55 130.0 -345.45 130.0 -345.35 130.05 -345.2 130.1 -345.15 130.25 -344.9 130.55 -344.75 130.8 -344.65 131.15 -344.6 131.45 -344.5 131.85 -344.5 132.2 -344.55 132.65 -344.55 132.85 -344.6 133.35 -344.65 133.8 -344.7 134.0 -344.7 134.3 -344.7 134.5 -344.7 134.65 -344.65 134.7 -344.55 134.8 -344.35 134.3 -343.85 133.85 -343.4 132.9 -342.7 132.1 -342.1 130.8 -341.2 129.95 -340.6 128.35 -339.5 126.4 -338.2 125.85 -337.8 124.45 -336.85 123.55 -336.15 122.4 -335.35 121.8 -334.8 121.05 -334.2 120.85 -333.85 120.7 -333.55 119.7 -332.5 119.6 -332.4 119.5 -332.3 119.4 -332.25 119.3 -332.2 119.15 -332.15 119.05 -332.1 118.95 -332.05 118.85 -332.05 118.75 -332.05 118.6 -332.05 118.5 -332.05 118.4 -332.1 118.3 -332.15 118.15 -332.2 118.05 -332.3 117.95 -332.4 117.9 -332.45 117.75 -332.5 117.55 -332.55 117.45 -332.6 116.35 -331.4 116.05 -331.05 114.9 -329.75 113.75 -328.4 112.65 -327.1 111.6 -325.7 110.5 -324.35 109.45 -322.95 108.45 -321.6 107.4 -320.15 106.4 -318.75 105.45 -317.3 104.5 -315.85 103.55 -314.4 102.65 -312.95 101.7 -311.45 100.8 -309.95 99.95 -308.45 98.2 -305.4 96.55 -302.3 94.9 -299.25 93.4 -296.1 91.85 -292.95 90.45 -289.8 89.0 -286.6 87.7 -283.4 86.4 -280.15 85.2 -276.9 84.0 -273.65 82.9 -270.35 81.8 -267.0 80.85 -263.65 79.9 -260.3 79.05 -256.9 78.75 -255.65 78.45 -254.45 78.1 -253.15 77.85 -251.95 77.55 -250.7 77.25 -249.5 76.95 -248.25 76.7 -247.0 76.45 -245.75 76.2 -244.55 75.95 -243.25 75.7 -242.05 75.45 -240.8 75.25 -239.55 75.05 -238.3 74.85 -237.05 74.6 -235.55 74.4 -234.15 74.2 -232.65 74.0 -231.25 73.85 -229.75 73.7 -228.3 73.55 -226.85 73.4 -225.4 73.3 -223.9 73.2 -222.5 73.15 -221.0 73.1 -219.55 73.05 -218.05 73.05 -216.6 73.05 -215.15 73.1 -213.7 73.15 -212.8 73.2 -211.95 73.25 -211.05 73.3 -210.2 73.4 -209.3 73.5 -208.45 73.6 -207.6 73.75 -206.7 73.85 -205.85 74.0 -205.0 74.15 -204.1 74.3 -203.25 74.5 -202.4 74.7 -201.55 74.9 -200.7 75.1 -199.85 75.15 -199.6 75.2 -199.4 75.3 -199.2 75.35 -199.0 75.4 -198.75 75.5 -198.55 75.55 -198.35 75.65 -198.15 75.7 -197.9 75.8 -197.7 75.9 -197.45 76.0 -197.25 76.1 -197.0 76.25 -196.75 76.35 -196.5 76.5 -196.3 76.8 -196.8 76.8 -196.9 77.15 -197.85 77.6 -198.85 78.0 -199.8 78.4 -200.8 78.85 -201.7 79.3 -202.7 79.75 -203.6 80.25 -204.55 80.7 -205.45 81.2 -206.4 81.65 -207.25 82.2 -208.25 82.55 -209.0 83.15 -210.1 84.15 -212.0 84.15 -211.95 84.95 -213.4 85.7 -214.75 86.45 -216.15 87.25 -217.5 88.05 -218.95 88.85 -220.25 89.65 -221.65 90.5 -223.0 91.35 -224.35 92.2 -225.7 93.05 -227.05 93.95 -228.35 94.85 -229.65 95.75 -230.95 96.7 -232.25 97.65 -233.55 98.7 -234.95 99.7 -236.25 100.8 -237.6 101.85 -238.9 102.95 -240.2 104.1 -241.45 105.25 -242.75 106.4 -243.95 107.55 -245.2 108.75 -246.35 110.0 -247.55 111.25 -248.7 112.5 -249.85 113.8 -250.9 115.15 -252.0 116.5 -253.05 121.15 -256.55 124.3 -258.35 124.75 -258.6 125.3 -258.95 125.75 -259.2 126.35 -259.6 130.1 -261.95 127.35 -260.2 127.9 -260.55 128.35 -260.85 128.9 -261.15 129.35 -261.45 129.9 -261.75 130.4 -262.0 130.95 -262.25 131.45 -262.5 132.0 -262.75 132.55 -262.95 132.75 -263.05 132.9 -263.1 133.1 -263.15 133.25 -263.2 133.45 -263.25 133.6 -263.3 133.8 -263.35 133.95 -263.35 134.15 -263.35 134.35 -263.35 134.5 -263.35 134.7 -263.3 134.9 -263.3 135.05 -263.2 135.25 -263.15 135.45 -263.05 135.45 -262.55 135.45 -261.5 131.9 -258.9 130.15 -258.0 130.05 -257.95 129.95 -257.9 129.85 -257.85 129.75 -257.8 129.65 -257.75 129.55 -257.7 129.45 -257.65 129.4 -257.6 129.3 -257.5 129.2 -257.45 129.1 -257.4 129.0 -257.35 128.9 -257.25 128.85 -257.2 128.75 -257.15 128.65 -257.05 121.5 -251.45 119.1 -249.15 118.35 -248.45 117.6 -247.7 116.85 -246.95 116.15 -246.25 115.4 -245.5 114.75 -244.7 114.05 -243.95 113.35 -243.15 112.7 -242.35 112.05 -241.55 111.4 -240.75 110.75 -239.95 110.15 -239.1 109.55 -238.25 108.95 -237.4 108.35 -236.55 107.1 -234.65 105.9 -232.75 104.7 -230.85 103.6 -228.95 102.45 -227.0 101.4 -225.05 100.3 -223.05 99.3 -221.1 98.3 -219.05 97.35 -217.05 96.4 -215.0 95.5 -212.95 94.65 -210.9 93.85 -208.8 93.05 -206.7 92.3 -204.55 91.9 -203.4 91.55 -202.25 91.15 -201.1 90.85 -199.95 90.5 -198.8 90.2 -197.65 89.85 -196.45 89.6 -195.3 89.3 -194.1 89.05 -192.95 88.75 -191.75 88.55 -190.6 88.3 -189.4 88.15 -188.2 87.95 -187.0 87.8 -185.8 87.65 -184.7 87.55 -183.55 87.45 -182.45 87.4 -181.3 87.3 -180.15 87.25 -179.05 87.2 -177.9 87.2 -176.75 87.2 -175.65 87.2 -174.5 87.25 -173.4 87.25 -172.25 87.3 -171.1 87.4 -170.0 87.45 -168.85 87.55 -167.7 87.65 -166.8 87.75 -165.85 87.8 -164.95 87.9 -164.05 88.05 -163.1 88.15 -162.2 88.25 -161.3 88.4 -160.35 88.5 -159.45 88.65 -158.55 88.8 -157.65 88.9 -156.7 89.05 -155.8 89.2 -154.9 89.35 -154.0 89.55 -153.05 89.8 -151.7 90.05 -150.4 90.35 -149.05 90.65 -147.75 91.0 -146.45 91.35 -145.15 91.7 -143.85 92.1 -142.55 92.5 -141.25 92.95 -139.95 93.4 -138.7 93.85 -137.4 94.35 -136.15 94.85 -134.9 95.35 -133.65 95.9 -132.4 97.65 -128.45 100.6 -122.05 104.3 -114.05 105.3 -111.75 113.55 -93.6 115.55 -88.9 116.5 -86.65 117.4 -84.35 118.25 -82.1 119.1 -79.8 119.9 -77.55 120.7 -75.2 121.45 -72.9 122.15 -70.55 122.85 -68.25 123.5 -65.85 124.1 -63.55 124.7 -61.15 125.3 -58.8 125.8 -56.4 126.35 -54.05 126.85 -51.6 127.05 -50.5 127.25 -49.45 127.45 -48.3 127.65 -47.25 127.85 -46.15 128.05 -45.05 128.2 -43.95 128.35 -42.85 128.55 -41.75 128.7 -40.7 128.85 -39.55 128.95 -38.5 129.1 -37.35 129.2 -36.3 129.3 -35.15 129.4 -34.05 129.5 -33.25 129.55 -32.45 129.6 -31.6 129.65 -30.8 129.7 -30.0 129.75 -29.2 129.8 -28.35 129.85 -27.55 129.9 -26.75 129.9 -25.95 129.95 -25.1 129.95 -24.3 129.95 -23.5 129.95 -22.7 129.95 -21.85 129.95 -21.05 129.95 -20.15 129.9 -19.25 129.85 -18.35 129.85 -17.45 129.8 -16.55 129.75 -15.65 129.7 -14.75 129.6 -13.9 129.55 -12.95 129.45 -12.1 129.4 -11.2 129.3 -10.3 129.2 -9.4 129.1 -8.5 128.95 -7.6 128.85 -6.75 128.6 -5.2 128.3 -3.65 128.05 -2.15 127.7 -0.6 127.35 0.9 126.95 2.4 126.55 3.9 126.1 5.35 125.65 6.85 125.15 8.3 124.6 9.8 124.05 11.25 123.5 12.65 122.9 14.1 122.25 15.55 121.6 16.95 121.2 17.75 120.8 18.55 120.4 19.35 120.0 20.15 119.6 20.9 119.2 21.7 118.75 22.5 118.3 23.25 117.85 24.0 117.4 24.75 116.95 25.5 116.45 26.25 116.0 27.0 115.5 27.75 115.0 28.5 114.45 29.2 114.0 29.85 113.5 30.45 113.0 31.1 112.5 31.7 112.0 32.3 111.5 32.9 111.0 33.5 110.45 34.1 109.95 34.65 109.4 35.25 108.85 35.8 108.3 36.35 107.75 36.9 107.15 37.45 106.6 38.0 106.0 38.55 104.9 39.55 103.85 40.5 102.7 41.45 101.6 42.35 100.45 43.3 99.35 44.2 98.2 45.1 97.0 45.9 95.85 46.8 94.65 47.6 93.4 48.4 92.2 49.15 90.95 49.95 89.7 50.7 88.45 51.4 87.15 52.1 86.2 52.6 85.3 53.05 84.35 53.55 83.4 54.0 82.45 54.45 81.5 54.85 80.55 55.3 79.6 55.7 78.6 56.1 77.65 56.45 76.65 56.85 75.65 57.2 74.7 57.55 73.7 57.85 72.7 58.2 71.7 58.5 71.35 58.6 71.05 58.7 70.7 58.75 70.35 58.85 70.0 58.95 69.7 59.0 69.35 59.05 69.0 59.15 68.65 59.2 68.3 59.25 67.95 59.3 67.65 59.35 67.3 59.35 66.95 59.4 66.6 59.4 66.25 59.45 65.4 59.45 57.95 59.5 57.9 59.5 57.1 59.4 56.7 58.3 56.7 58.15 56.7 57.9 56.7 57.7 56.7 57.45 56.65 57.25 56.65 57.05 56.65 56.8 56.65 56.6 56.65 56.35 56.65 56.15 56.65 55.9 56.65 55.7 56.65 55.45 56.65 55.25 56.65 55.05 56.65 54.8 56.7 54.6 56.75 53.25 56.75 51.95 56.8 50.6 56.8 49.25 56.85 47.9 56.85 46.6 56.85 45.25 56.85 43.95 56.85 42.6 56.85 41.25 56.8 39.9 56.8 38.6 56.75 37.25 56.7 35.95 56.65 34.6 56.6 33.3 56.55 32.15 56.45 31.1 56.35 29.95 56.25 28.9 56.15 27.8 55.95 26.75 55.8 25.65 55.6 24.55 55.4 23.5 55.15 22.45 54.9 21.35 54.6 20.3 54.25 19.25 53.9 18.25 53.55 17.2 53.1 16.15 53.05 16.05 53.0 15.95 52.95 15.8 52.95 15.7 52.9 15.6 52.85 15.45 52.85 15.35 52.8 15.25 52.75 15.1 52.75 15.0 52.7 14.9 52.7 14.75 52.7 14.65 52.65 14.55 52.65 14.4 52.65 14.3 52.6 14.05 52.65 13.5 52.65 13.35 52.65 13.25 52.65 13.1 52.6 12.95 52.6 12.8 52.6 12.65 52.55 12.5 52.5 12.35 52.5 12.15 52.45 11.95 52.4 11.75 52.3 11.6 52.25 11.35 52.2 11.15 52.1 10.95 52.0 10.7 L52.0 10.7" fill="#505050" fill-rule="evenodd" stroke="none"/>
  </g>
</svg>
