<?xml version="1.0" encoding="UTF-8" standalone="no"?>
<svg xmlns:xlink="http://www.w3.org/1999/xlink" height="200.0px" width="200.0px" xmlns="http://www.w3.org/2000/svg">
  <g transform="matrix(1.0, 0.0, 0.0, 1.0, 100.0, 100.0)">
    <path d="M-47.85 66.5 Q-48.05 66.4 -48.2 66.2 -48.4 66.05 -48.5 65.85 -48.65 65.65 -48.75 65.4 -48.85 65.2 -48.85 64.95 -48.9 64.7 -48.9 64.45 -48.9 64.15 -48.85 63.9 -48.8 63.65 -48.65 63.4 -48.55 63.15 -48.4 62.95 -48.3 62.8 -48.2 62.7 -48.15 62.55 -48.1 62.45 -48.05 62.35 -48.05 62.25 -48.05 62.15 -48.05 62.1 -48.05 62.0 -48.1 61.9 -48.15 61.8 -48.2 61.75 -48.25 61.65 -48.3 61.55 -48.35 61.5 -48.45 61.35 -48.65 61.05 -48.85 60.75 -49.0 60.45 -49.05 60.1 -49.15 59.8 -49.2 59.5 -49.2 59.15 -49.15 58.85 -49.1 58.55 -49.0 58.2 -48.9 57.9 -48.75 57.6 -48.6 57.3 -48.35 57.0 -48.15 56.75 -47.85 56.45 -47.75 56.35 -47.7 56.3 -47.65 56.25 -47.6 56.2 -47.5 56.1 -47.5 56.05 -47.45 56.0 -47.4 55.95 -47.4 55.9 -47.4 55.8 -47.4 55.75 -47.45 55.65 -47.45 55.6 -47.55 55.5 -47.6 55.4 -47.65 55.3 -48.05 54.85 -48.35 54.45 -48.65 54.05 -48.85 53.65 -49.0 53.25 -49.1 52.85 -49.2 52.5 -49.2 52.15 -49.15 51.75 -49.05 51.4 -48.9 51.05 -48.7 50.7 -48.5 50.35 -48.15 50.0 -47.85 49.65 -47.4 49.25 -47.75 48.9 -48.05 48.6 -48.35 48.25 -48.55 47.9 -48.8 47.55 -48.95 47.2 -49.1 46.85 -49.2 46.55 -49.3 46.2 -49.3 45.9 -49.3 45.55 -49.2 45.25 -49.15 44.95 -49.0 44.7 -48.8 44.4 -48.55 44.15 -48.3 43.9 -48.1 43.65 -47.95 43.45 -47.85 43.25 -47.75 43.05 -47.7 42.85 -47.65 42.7 -47.7 42.5 -47.7 42.35 -47.8 42.15 -47.85 42.0 -48.0 41.8 -48.1 41.65 -48.3 41.45 -48.4 41.3 -48.65 41.0 -48.85 40.75 -49.0 40.45 -49.15 40.2 -49.2 39.9 -49.25 39.6 -49.25 39.3 -49.25 39.0 -49.15 38.65 -49.05 38.35 -48.9 38.0 -48.8 37.7 -48.55 37.35 -48.35 37.0 -48.1 36.65 -47.8 36.3 -47.5 36.0 -47.75 35.9 -47.95 35.75 -48.2 35.6 -48.35 35.4 -48.55 35.25 -48.7 35.05 -48.85 34.85 -49.0 34.65 -49.1 34.45 -49.2 34.2 -49.3 34.0 -49.45 33.7 -49.5 33.5 -49.6 33.25 -49.9 32.5 -49.8 32.75 -49.9 33.15 -49.95 33.25 -50.05 33.55 -50.15 33.8 -50.25 34.05 -50.35 34.25 -50.45 34.55 -50.55 34.75 -50.7 35.0 -50.85 35.2 -51.0 35.4 -51.15 35.6 -51.35 35.75 -51.55 35.95 -51.8 36.1 -52.05 36.25 -52.15 36.3 -52.2 36.35 -52.25 36.4 -52.25 36.45 -52.3 36.55 -52.3 36.6 -52.3 36.65 -52.3 36.75 -52.25 36.8 -52.2 36.9 -52.2 36.95 -52.15 37.05 -52.15 37.1 -52.05 37.2 -52.0 37.3 -52.0 37.35 -51.8 37.75 -51.65 38.1 -51.55 38.5 -51.45 38.85 -51.4 39.2 -51.4 39.55 -51.4 39.9 -51.5 40.2 -51.6 40.55 -51.75 40.85 -51.9 41.15 -52.1 41.4 -52.3 41.7 -52.6 41.95 -52.9 42.2 -53.25 42.45 -53.35 42.5 -53.45 42.6 -53.55 42.65 -53.6 42.75 -53.7 42.8 -53.75 42.9 -53.8 42.95 -53.85 43.05 -53.85 43.15 -53.9 43.2 -53.9 43.3 -53.9 43.4 -53.85 43.5 -53.85 43.65 -53.8 43.75 -53.75 43.85 -53.6 44.3 -53.5 44.75 -53.4 45.15 -53.35 45.5 -53.35 45.9 -53.35 46.25 -53.4 46.55 -53.5 46.85 -53.6 47.2 -53.8 47.45 -53.95 47.75 -54.25 48.0 -54.5 48.25 -54.8 48.5 -55.15 48.7 -55.55 48.95 -55.7 49.0 -55.8 49.1 -55.9 49.15 -55.95 49.25 -56.0 49.3 -56.05 49.4 -56.1 49.45 -56.15 49.55 -56.15 49.65 -56.2 49.7 -56.2 49.8 -56.15 49.9 -56.15 50.0 -56.15 50.15 -56.1 50.25 -56.1 50.35 -56.0 50.75 -55.95 51.15 -55.9 51.55 -55.9 51.9 -55.95 52.25 -56.0 52.6 -56.1 52.9 -56.2 53.2 -56.35 53.5 -56.55 53.75 -56.75 54.0 -57.0 54.25 -57.3 54.45 -57.6 54.65 -57.95 54.85 -58.35 55.0 -58.5 55.05 -58.6 55.15 -58.7 55.2 -58.8 55.25 -58.9 55.35 -58.95 55.45 -59.0 55.5 -59.05 55.6 -59.1 55.7 -59.1 55.8 -59.1 55.85 -59.15 56.0 -59.15 56.1 -59.1 56.2 -59.1 56.3 -59.1 56.45 -59.05 56.9 -59.05 57.3 -59.1 57.7 -59.15 58.05 -59.25 58.4 -59.35 58.7 -59.5 59.0 -59.7 59.3 -59.9 59.55 -60.15 59.75 -60.4 60.0 -60.7 60.2 -61.0 60.35 -61.4 60.5 -61.75 60.65 -62.2 60.7 -62.4 60.75 -62.55 60.8 -62.7 60.85 -62.8 60.95 -62.95 61.05 -63.05 61.15 -63.15 61.25 -63.2 61.35 -63.3 61.45 -63.35 61.6 -63.4 61.7 -63.5 61.85 -63.55 61.95 -63.6 62.1 -63.7 62.3 -63.75 62.35 -63.9 62.7 -64.1 63.05 -64.3 63.35 -64.5 63.6 -64.7 63.85 -64.95 64.1 -65.15 64.3 -65.45 64.45 -65.7 64.6 -66.0 64.7 -66.3 64.8 -66.6 64.85 -66.95 64.9 -67.3 64.9 -67.65 64.85 -68.05 64.8 -68.2 64.8 -68.3 64.8 -68.45 64.8 -68.55 64.8 -68.65 64.85 -68.75 64.85 -68.85 64.9 -68.95 64.95 -69.0 65.0 -69.1 65.05 -69.2 65.1 -69.3 65.15 -68.6 64.7 -69.45 65.25 -69.55 65.3 -69.65 65.35 -70.05 65.6 -70.45 65.8 -70.85 66.0 -71.2 66.1 -71.6 66.25 -71.95 66.35 -72.35 66.45 -72.75 66.45 -73.1 66.45 -73.5 66.4 -73.85 66.3 -74.2 66.15 -74.6 65.95 -74.95 65.7 -75.3 65.4 -75.65 65.0 -75.75 64.9 -75.85 64.85 -75.95 64.8 -76.05 64.75 -76.15 64.7 -76.3 64.7 -76.4 64.65 -76.5 64.7 -76.65 64.7 -76.75 64.7 -76.9 64.7 -77.05 64.7 -76.7 64.7 -77.3 64.75 -77.45 64.8 -77.5 64.8 -78.0 64.85 -78.4 64.85 -78.8 64.85 -79.15 64.8 -79.55 64.75 -79.85 64.65 -80.15 64.55 -80.4 64.4 -80.7 64.25 -80.9 64.0 -81.15 63.8 -81.35 63.5 -81.55 63.2 -81.75 62.85 -81.95 62.5 -82.1 62.05 -82.15 61.85 -82.25 61.7 -82.35 61.55 -82.5 61.45 -82.6 61.35 -82.75 61.2 -82.85 61.1 -83.0 61.05 -83.15 60.95 -83.3 60.85 -83.4 60.8 -83.6 60.7 -83.9 60.6 -83.9 60.6 -84.05 60.5 -84.15 60.45 -84.45 60.25 -84.75 60.1 -85.05 59.9 -85.3 59.7 -85.5 59.5 -85.7 59.25 -85.95 59.05 -86.1 58.8 -86.25 58.55 -86.35 58.25 -86.45 58.0 -86.5 57.65 -86.55 57.35 -86.55 57.05 -86.55 56.7 -86.5 56.3 -86.5 56.15 -86.5 56.05 -86.5 55.9 -86.5 55.8 -86.55 55.7 -86.6 55.6 -86.6 55.5 -86.7 55.4 -86.75 55.3 -86.8 55.2 -86.9 55.15 -87.0 55.05 -87.05 54.95 -87.15 54.9 -87.2 54.8 -87.35 54.7 -87.75 54.4 -88.0 54.1 -88.3 53.8 -88.5 53.55 -88.75 53.25 -88.9 53.0 -89.05 52.7 -89.1 52.45 -89.2 52.15 -89.2 51.85 -89.25 51.55 -89.2 51.2 -89.15 50.9 -89.05 50.5 -88.95 50.15 -88.75 49.7 -88.7 49.55 -88.7 49.45 -88.65 49.3 -88.65 49.2 -88.65 49.1 -88.7 49.0 -88.7 48.95 -88.75 48.85 -88.8 48.75 -88.85 48.7 -88.9 48.6 -89.0 48.55 -89.05 48.5 -89.15 48.4 -89.2 48.35 -89.3 48.25 -89.65 48.0 -89.95 47.7 -90.2 47.4 -90.45 47.15 -90.65 46.85 -90.8 46.55 -90.95 46.25 -91.0 45.9 -91.05 45.6 -91.05 45.25 -91.05 44.95 -91.0 44.6 -90.9 44.25 -90.8 43.85 -90.65 43.5 -90.4 43.1 -90.35 43.0 -90.3 42.85 -90.25 42.75 -90.25 42.7 -90.2 42.6 -90.2 42.5 -90.2 42.45 -90.25 42.35 -90.25 42.3 -90.3 42.2 -90.35 42.15 -90.4 42.05 -90.45 42.0 -90.55 41.95 -90.6 41.85 -90.7 41.8 -91.05 41.5 -91.3 41.25 -91.6 40.95 -91.8 40.65 -92.0 40.35 -92.1 40.0 -92.25 39.7 -92.3 39.4 -92.35 39.05 -92.35 38.75 -92.3 38.4 -92.2 38.05 -92.15 37.7 -92.0 37.35 -91.8 36.95 -91.6 36.6 -91.5 36.5 -91.45 36.4 -91.4 36.25 -91.4 36.2 -91.35 36.1 -91.35 36.0 -91.35 35.95 -91.4 35.85 -91.4 35.8 -91.45 35.7 -91.5 35.65 -91.55 35.6 -91.6 35.5 -91.65 35.45 -91.75 35.4 -91.8 35.3 -92.1 35.0 -92.35 34.7 -92.6 34.4 -92.8 34.1 -93.0 33.8 -93.1 33.5 -93.2 33.15 -93.25 32.85 -93.3 32.5 -93.25 32.2 -93.25 31.85 -93.15 31.5 -93.05 31.2 -92.9 30.85 -92.75 30.5 -92.5 30.2 -92.4 30.1 -92.35 30.0 -92.3 29.9 -92.25 29.8 -92.25 29.75 -92.2 29.65 -92.2 29.6 -92.2 29.5 -92.25 29.45 -92.25 29.35 -92.3 29.3 -92.35 29.25 -92.4 29.15 -92.5 29.1 -92.55 29.0 -92.65 28.95 -93.0 28.7 -93.25 28.4 -93.55 28.1 -93.75 27.8 -93.9 27.45 -94.05 27.15 -94.15 26.8 -94.2 26.45 -94.25 26.15 -94.2 25.8 -94.15 25.45 -94.05 25.05 -93.95 24.7 -93.75 24.35 -93.55 24.0 -93.3 23.6 -93.2 23.5 -93.15 23.4 -93.1 23.3 -93.05 23.2 -93.0 23.1 -93.0 23.0 -93.0 22.9 -93.0 22.85 -93.0 22.75 -93.05 22.65 -93.05 22.6 -93.15 22.5 -93.2 22.4 -93.25 22.35 -93.35 22.25 -93.45 22.15 -93.8 21.8 -94.05 21.5 -94.3 21.2 -94.45 20.85 -94.65 20.55 -94.7 20.25 -94.8 19.95 -94.85 19.6 -94.85 19.3 -94.8 18.95 -94.75 18.65 -94.65 18.3 -94.5 17.95 -94.3 17.55 -94.1 17.2 -93.85 16.8 -93.75 16.7 -93.7 16.6 -93.65 16.5 -93.65 16.4 -93.6 16.3 -93.6 16.25 -93.6 16.15 -93.6 16.05 -93.6 16.0 -93.65 15.9 -93.65 15.85 -93.75 15.75 -93.8 15.7 -93.85 15.6 -93.9 15.5 -94.0 15.45 -94.35 15.15 -94.6 14.8 -94.85 14.5 -95.05 14.15 -95.25 13.8 -95.35 13.5 -95.45 13.15 -95.5 12.8 -95.55 12.5 -95.5 12.15 -95.45 11.8 -95.3 11.45 -95.2 11.15 -95.0 10.8 -94.8 10.45 -94.5 10.1 -94.4 10.0 -94.35 9.9 -94.3 9.8 -94.25 9.7 -94.2 9.6 -94.15 9.5 -94.15 9.4 -94.15 9.3 -94.15 9.2 -94.15 9.1 -94.15 9.05 -94.2 8.95 -94.2 8.85 -94.25 8.75 -94.3 8.65 -94.35 8.55 -94.45 8.4 -94.5 8.3 -94.6 8.2 -94.65 8.1 -94.75 7.95 -94.8 7.85 -94.85 7.7 -94.9 7.6 -94.95 7.45 -95.0 7.35 -95.0 7.2 -95.05 7.1 -95.05 6.95 -95.05 6.85 -95.05 6.7 -95.0 6.6 -94.9 6.3 -94.85 5.95 -94.8 5.65 -94.75 5.35 -94.75 5.05 -94.75 4.75 -94.75 4.45 -94.75 4.2 -94.8 3.9 -94.9 3.6 -94.95 3.35 -95.1 3.05 -95.2 2.8 -95.35 2.5 -95.55 2.25 -95.75 1.95 -95.8 1.9 -95.85 1.8 -95.9 1.7 -95.9 1.65 -95.9 1.55 -95.9 1.5 -95.85 1.4 -95.85 1.3 -95.8 1.25 -95.75 1.15 -95.7 1.1 -95.65 1.0 -95.6 0.95 -95.55 0.85 -95.6 0.9 -95.45 0.7 -95.2 0.35 -94.9 0.05 -94.65 -0.2 -94.35 -0.45 -94.05 -0.7 -93.7 -0.9 -93.4 -1.1 -93.05 -1.25 -92.7 -1.4 -92.35 -1.5 -92.0 -1.65 -91.6 -1.7 -91.25 -1.8 -90.85 -1.85 -90.45 -1.9 -90.05 -1.95 -88.85 -2.05 -77.2 -3.1 -69.4 -3.8 -64.35 -4.25 -64.2 -4.25 -64.05 -4.3 -63.9 -4.3 -63.8 -4.35 -63.65 -4.4 -63.6 -4.45 -63.5 -4.5 -63.4 -4.6 -63.35 -4.65 -63.3 -4.75 -63.25 -4.85 -63.25 -5.0 -63.2 -5.1 -63.2 -5.25 -63.15 -5.4 -63.15 -5.55 -63.15 -8.35 -62.65 -11.1 -62.15 -13.8 -61.2 -16.35 -60.25 -18.9 -58.9 -21.2 -57.55 -23.5 -55.8 -25.55 -54.05 -27.6 -51.95 -29.3 -49.85 -31.05 -47.5 -32.4 -45.1 -33.8 -42.45 -34.75 -39.8 -35.75 -36.95 -36.25 -33.6 -36.85 -30.25 -36.8 -27.0 -36.8 -23.8 -36.1 -20.7 -35.45 -17.8 -34.25 -14.9 -33.0 -12.3 -31.25 -9.7 -29.5 -7.5 -27.3 -5.3 -25.05 -3.55 -22.45 -1.8 -19.8 -0.6 -16.8 0.6 -13.75 1.2 -10.5 1.3 -9.9 1.35 -9.3 1.45 -8.65 1.5 -8.05 1.55 -7.45 1.55 -6.8 1.55 -6.2 1.55 -5.6 1.55 -4.95 1.5 -4.35 1.45 -3.7 1.4 -3.05 1.35 -2.45 1.3 -1.8 1.2 -1.15 1.1 -0.5 2.1 -0.7 2.95 -0.8 3.9 -0.95 4.75 -1.05 5.7 -1.15 6.55 -1.2 7.45 -1.25 8.35 -1.25 9.25 -1.25 10.1 -1.15 11.05 -1.05 11.9 -0.9 12.8 -0.7 13.65 -0.45 14.55 -0.15 15.4 0.25 15.4 -0.3 15.4 -0.9 15.4 -1.35 15.4 -2.05 15.4 -3.55 15.4 -3.15 15.4 -3.8 15.45 -4.25 15.45 -4.85 15.45 -5.35 15.45 -5.9 15.5 -6.4 15.55 -7.0 15.6 -7.5 15.65 -8.05 15.75 -8.55 16.0 -10.2 16.3 -11.75 16.65 -13.35 17.1 -14.8 17.55 -16.35 18.1 -17.8 18.65 -19.25 19.35 -20.6 20.05 -22.0 20.85 -23.25 21.7 -24.6 22.7 -25.75 23.7 -27.0 24.85 -28.1 26.05 -29.2 27.4 -30.2 28.75 -31.25 30.3 -31.95 31.75 -32.7 33.35 -33.1 34.9 -33.55 36.5 -33.65 38.1 -33.8 39.7 -33.6 41.3 -33.45 42.85 -33.0 44.4 -32.55 45.85 -31.8 47.3 -31.1 48.65 -30.1 50.0 -29.05 51.15 -27.8 52.5 -26.35 53.65 -24.8 54.8 -23.25 55.7 -21.65 56.65 -20.05 57.35 -18.35 58.1 -16.7 58.65 -15.0 59.15 -13.25 59.5 -11.45 59.85 -9.7 60.05 -7.85 60.25 -6.0 60.3 -4.1 60.3 -2.2 60.2 -0.25 60.15 0.8 60.0 1.85 59.9 2.85 59.7 3.9 59.5 4.85 59.25 5.9 59.0 6.85 58.7 7.85 58.4 8.8 58.05 9.8 57.75 10.75 57.35 11.7 57.0 12.65 56.55 13.6 56.2 14.5 55.75 15.5 55.65 15.7 55.55 15.9 55.45 16.05 55.35 16.25 55.25 16.4 55.1 16.6 55.0 16.75 54.85 16.95 54.75 17.1 54.55 17.3 54.35 17.55 54.3 17.65 54.15 17.85 54.05 18.0 53.9 18.2 53.75 18.35 53.65 18.45 53.6 18.6 53.55 18.7 53.5 18.8 53.5 18.9 53.45 19.0 53.45 19.1 53.45 19.2 53.45 19.3 53.45 19.4 53.45 19.5 53.5 19.6 53.55 19.7 53.6 19.8 53.65 19.95 53.75 20.05 53.95 20.4 54.15 20.7 54.3 21.0 54.35 21.3 54.45 21.55 54.5 21.85 54.5 22.1 54.45 22.35 54.4 22.6 54.3 22.85 54.2 23.05 54.0 23.3 53.85 23.55 53.6 23.8 53.35 24.0 53.0 24.25 52.8 24.4 52.7 24.5 52.55 24.65 52.45 24.75 52.35 24.85 52.25 25.0 52.15 25.1 52.15 25.25 52.1 25.4 52.1 25.5 52.1 25.65 52.2 25.8 52.25 25.95 52.35 26.15 52.5 26.3 52.7 26.5 52.9 26.75 53.05 27.0 53.2 27.3 53.3 27.6 53.35 27.9 53.4 28.2 53.4 28.5 53.4 28.85 53.35 29.2 53.3 29.5 53.2 29.8 53.05 30.1 52.9 30.45 52.75 30.7 52.55 31.0 52.35 31.2 52.2 31.35 52.15 31.45 52.05 31.55 51.95 31.65 51.9 31.75 51.85 31.85 51.85 31.95 51.8 32.05 51.8 32.1 51.85 32.2 51.85 32.3 51.95 32.4 52.0 32.5 52.1 32.65 52.2 32.75 52.3 32.85 52.55 33.1 52.75 33.4 52.95 33.7 53.1 34.0 53.25 34.35 53.3 34.7 53.35 35.05 53.4 35.35 53.4 35.7 53.3 36.05 53.25 36.4 53.15 36.75 53.0 37.05 52.8 37.35 52.6 37.65 52.35 37.9 52.2 38.05 52.1 38.15 52.0 38.3 51.95 38.4 51.85 38.55 51.85 38.65 51.8 38.75 51.8 38.9 51.8 39.0 51.85 39.1 51.85 39.25 51.9 39.35 52.0 39.45 52.05 39.6 52.15 39.75 52.3 39.9 52.5 40.15 52.65 40.45 52.8 40.75 52.9 41.05 53.0 41.35 53.05 41.7 53.05 42.05 53.05 42.35 53.05 42.7 52.95 43.0 52.85 43.35 52.75 43.65 52.6 43.95 52.4 44.2 52.2 44.5 51.95 44.7 51.85 44.8 51.75 44.9 51.65 45.0 51.6 45.1 51.55 45.2 51.5 45.25 51.45 45.35 51.45 45.45 51.45 45.5 51.5 45.6 51.5 45.7 51.55 45.8 51.6 45.85 51.7 46.0 51.75 46.1 51.85 46.2 52.1 46.45 52.25 46.75 52.45 47.05 52.55 47.4 52.65 47.7 52.7 48.05 52.75 48.4 52.7 48.7 52.7 49.05 52.65 49.4 52.55 49.7 52.4 50.05 52.3 50.35 52.1 50.65 51.9 50.9 51.65 51.15 51.5 51.3 51.45 51.35 51.3 51.5 51.25 51.55 51.2 51.65 51.15 51.75 51.1 51.85 51.1 51.95 51.05 52.0 51.1 52.1 51.1 52.2 51.15 52.3 51.2 52.4 51.3 52.5 51.4 52.65 51.55 52.75 51.85 53.0 52.05 53.3 52.25 53.6 52.4 53.9 52.55 54.2 52.6 54.55 52.7 54.85 52.7 55.2 52.7 55.55 52.65 55.9 52.6 56.2 52.45 56.55 52.35 56.9 52.15 57.2 51.95 57.5 51.7 57.8 51.7 57.8 51.55 57.95 51.5 58.0 51.45 58.05 51.35 58.15 51.35 58.2 51.3 58.25 51.25 58.3 51.25 58.4 51.25 58.45 51.25 58.55 51.25 58.6 51.3 58.7 51.35 58.8 51.4 58.9 51.45 59.05 51.65 59.35 51.8 59.65 51.95 59.9 52.05 60.2 52.15 60.5 52.15 60.8 52.2 61.05 52.15 61.35 52.15 61.6 52.05 61.9 51.95 62.15 51.85 62.45 51.7 62.7 51.5 62.95 51.3 63.25 51.05 63.5 50.95 63.6 50.85 63.7 50.75 63.85 50.7 63.95 50.65 64.05 50.6 64.1 50.6 64.2 50.6 64.3 50.6 64.4 50.6 64.5 50.65 64.6 50.7 64.65 50.75 64.75 50.85 64.85 50.95 64.95 51.05 65.05 51.1 65.1 51.2 65.15 51.25 65.2 51.3 65.25 51.35 65.3 51.4 65.4 51.5 65.45 51.55 65.5 51.6 65.55 51.65 65.6 51.7 65.65 51.75 65.75 51.8 65.8 51.85 65.85 51.9 65.9 51.95 66.0 52.15 66.35 52.35 66.7 52.5 67.05 52.6 67.4 52.7 67.75 52.75 68.1 52.8 68.5 52.8 68.85 52.75 69.15 52.7 69.5 52.65 69.85 52.5 70.1 52.4 70.4 52.2 70.7 52.05 70.95 51.8 71.15 51.55 71.4 51.25 71.55 50.95 71.7 50.65 71.8 50.3 71.9 49.95 71.95 49.6 71.95 49.2 71.95 48.8 71.9 48.4 71.8 48.0 71.7 47.6 71.55 47.15 71.35 46.75 71.15 46.3 70.9 45.9 70.6 46.05 70.55 46.25 70.55 46.45 70.55 46.6 70.55 46.75 70.55 46.95 70.55 48.7 70.65 47.3 70.55 47.5 70.6 47.65 70.6 47.8 70.6 47.95 70.55 48.15 70.55 48.3 70.5 48.45 70.5 48.6 70.4 48.8 70.3 48.95 70.25 49.1 70.15 49.2 70.05 49.35 69.95 49.45 69.8 49.55 69.7 49.65 69.55 49.75 69.45 49.8 69.3 49.85 69.15 49.85 69.0 49.9 68.8 49.9 68.65 49.9 68.45 49.9 68.25 49.85 67.95 49.8 67.7 49.7 67.45 49.55 67.25 49.45 67.05 49.25 66.85 49.05 66.65 48.8 66.5 48.6 66.35 48.3 66.25 48.05 66.15 47.7 66.1 47.4 66.0 47.05 66.0 46.65 65.95 46.25 65.95 46.35 65.7 46.4 65.6 46.45 65.4 46.55 65.3 46.6 65.15 46.75 65.05 46.85 65.0 47.0 64.9 47.2 64.8 47.45 64.75 47.65 64.65 48.0 64.6 48.35 64.5 48.8 64.4 49.15 64.35 49.9 64.2 48.85 63.05 49.6 63.85 49.4 63.65 49.3 63.5 49.15 63.35 49.05 63.2 48.9 63.0 48.8 62.85 48.65 62.65 48.6 62.45 48.5 62.25 48.45 62.05 48.4 61.85 48.35 61.65 48.35 61.4 48.35 61.15 48.4 60.9 48.4 60.7 48.45 60.5 48.5 60.3 48.55 60.1 48.6 59.9 48.65 59.7 48.75 59.55 48.85 59.35 48.95 59.2 49.05 59.05 49.2 58.9 49.35 58.75 49.55 58.6 49.7 58.5 49.95 58.4 49.6 58.0 49.35 57.65 49.05 57.25 48.9 56.9 48.7 56.55 48.6 56.2 48.5 55.85 48.5 55.5 48.5 55.15 48.55 54.8 48.65 54.45 48.8 54.1 48.95 53.75 49.2 53.4 49.45 53.1 49.75 52.7 49.85 52.6 49.9 52.5 49.95 52.45 50.0 52.35 50.05 52.3 50.1 52.2 50.1 52.15 50.15 52.05 50.15 52.0 50.1 51.9 50.1 51.8 50.05 51.75 50.0 51.65 49.95 51.55 49.9 51.5 49.8 51.4 49.45 50.95 49.15 50.55 48.9 50.15 48.75 49.75 48.55 49.4 48.5 49.0 48.45 48.6 48.45 48.25 48.5 47.9 48.65 47.5 48.8 47.15 49.05 46.8 49.3 46.45 49.65 46.1 50.0 45.75 50.45 45.35 50.05 44.95 49.7 44.55 49.4 44.2 49.2 43.8 49.0 43.45 48.9 43.1 48.8 42.75 48.8 42.35 48.8 42.0 48.9 41.65 49.05 41.25 49.25 40.85 49.45 40.5 49.8 40.05 50.1 39.65 50.55 39.25 50.65 39.15 50.7 39.1 50.75 39.0 50.8 38.95 50.8 38.85 50.8 38.8 50.8 38.75 50.8 38.7 50.8 38.65 50.75 38.55 50.75 38.5 50.7 38.45 50.65 38.4 50.6 38.35 50.55 38.3 50.45 38.2 50.1 37.85 49.85 37.5 49.6 37.15 49.45 36.8 49.25 36.45 49.15 36.1 49.1 35.8 49.1 35.45 49.1 35.1 49.2 34.8 49.25 34.45 49.45 34.1 49.6 33.75 49.9 33.4 50.15 33.05 50.5 32.7 50.6 32.6 50.65 32.55 50.7 32.45 50.75 32.4 50.8 32.3 50.8 32.25 50.85 32.15 50.85 32.1 50.85 32.0 50.8 31.95 50.8 31.9 50.75 31.8 50.75 31.75 50.7 31.65 50.6 31.6 50.55 31.5 50.15 31.05 49.9 30.65 49.6 30.25 49.4 29.85 49.25 29.45 49.15 29.05 49.1 28.65 49.15 28.3 49.15 27.9 49.3 27.55 49.45 27.2 49.7 26.85 49.9 26.5 50.25 26.15 50.6 25.8 51.05 25.5 51.05 25.45 51.0 25.35 51.0 25.3 50.95 25.25 50.9 25.25 50.85 25.2 50.85 25.15 50.75 25.15 50.75 25.1 50.65 25.1 50.6 25.05 50.55 25.05 50.5 25.0 50.5 24.95 50.45 24.95 50.4 24.9 50.2 24.55 50.0 24.3 49.85 24.05 49.65 23.9 49.45 23.75 49.2 23.7 49.05 23.65 48.8 23.65 48.6 23.65 48.35 23.75 48.15 23.8 47.9 23.9 47.7 24.05 47.4 24.2 47.2 24.3 46.85 24.5 45.45 25.35 43.95 25.9 42.5 26.45 41.0 26.75 39.55 27.05 38.05 27.1 36.55 27.1 35.1 26.85 33.65 26.6 32.2 26.1 30.8 25.6 29.4 24.85 28.0 24.1 26.7 23.05 25.4 22.05 24.2 20.8 23.4 20.0 22.7 19.1 22.0 18.25 21.4 17.35 20.8 16.45 20.2 15.5 19.7 14.6 19.2 13.6 18.7 12.65 18.3 11.6 17.9 10.6 17.55 9.55 17.2 8.55 16.9 7.45 16.6 6.4 16.35 5.3 16.3 5.15 16.3 5.0 16.25 4.85 16.2 4.75 16.15 4.6 16.1 4.5 16.05 4.4 15.95 4.3 15.9 4.2 15.8 4.1 15.7 4.0 15.55 3.9 15.45 3.8 15.3 3.7 15.15 3.6 15.0 3.55 14.15 3.1 13.25 2.8 12.4 2.5 11.5 2.35 10.65 2.15 9.75 2.05 8.9 2.0 8.0 2.0 7.15 2.0 6.2 2.05 5.4 2.15 4.45 2.25 3.65 2.35 2.65 2.5 1.95 2.65 0.9 2.85 0.8 2.85 0.7 2.9 0.6 2.95 0.55 2.95 0.45 3.0 0.4 3.05 0.35 3.1 0.3 3.15 0.25 3.25 0.2 3.3 0.15 3.35 0.1 3.45 0.05 3.55 0.05 3.6 0.0 3.7 -0.05 3.8 -0.9 6.1 -1.95 8.2 -3.0 10.25 -4.3 12.1 -5.55 13.9 -7.0 15.5 -8.45 17.05 -10.15 18.4 -11.8 19.7 -13.65 20.8 -15.5 21.9 -17.55 22.75 -19.6 23.6 -21.8 24.2 -24.05 24.8 -26.45 25.2 -27.7 25.4 -28.9 25.5 -30.1 25.55 -31.35 25.55 -32.55 25.55 -33.75 25.45 -34.95 25.35 -36.15 25.15 -37.35 24.95 -38.5 24.65 -39.7 24.35 -40.85 24.0 -42.0 23.6 -43.15 23.15 -44.3 22.7 -45.45 22.1 -45.55 22.05 -45.65 22.0 -46.65 21.45 -45.9 21.85 -46.0 21.8 -46.1 21.75 -46.25 21.7 -46.35 21.65 -46.45 21.6 -46.6 21.65 -46.7 21.65 -46.8 21.7 -46.95 21.75 -47.05 21.9 -47.2 22.0 -47.3 22.2 -47.4 22.35 -47.45 22.4 -47.5 22.5 -47.55 22.55 -47.55 22.65 -47.6 22.7 -47.6 22.75 -47.6 22.85 -47.6 22.9 -47.6 22.95 -47.55 23.0 -47.5 23.1 -47.45 23.15 -47.4 23.25 -47.3 23.3 -47.2 23.4 -46.9 23.65 -46.65 23.95 -46.45 24.2 -46.25 24.55 -46.1 24.85 -46.0 25.2 -45.9 25.5 -45.9 25.85 -45.85 26.2 -45.9 26.55 -45.95 26.9 -46.05 27.25 -46.15 27.6 -46.35 27.9 -46.5 28.25 -46.75 28.55 -46.85 28.7 -46.95 28.8 -47.05 28.9 -47.1 29.0 -47.15 29.1 -47.15 29.2 -47.2 29.3 -47.15 29.4 -47.15 29.5 -47.1 29.55 -47.1 29.65 -47.0 29.75 -46.95 29.85 -46.8 29.95 -46.7 30.05 -46.55 30.15 -46.25 30.35 -46.05 30.65 -45.8 30.9 -45.65 31.2 -45.5 31.5 -45.4 31.85 -45.3 32.2 -45.25 32.55 -45.2 32.9 -45.25 33.25 -45.25 33.6 -45.35 33.9 -45.45 34.25 -45.6 34.55 -45.8 34.9 -46.0 35.15 -46.15 35.3 -46.25 35.4 -46.35 35.55 -46.4 35.65 -46.45 35.75 -46.45 35.85 -46.5 35.95 -46.5 36.05 -46.5 36.15 -46.45 36.2 -46.4 36.3 -46.3 36.4 -46.25 36.5 -46.15 36.6 -46.05 36.7 -45.9 36.85 -45.65 37.05 -45.5 37.35 -45.3 37.6 -45.2 37.9 -45.05 38.2 -45.0 38.55 -44.9 38.85 -44.9 39.2 -44.9 39.55 -44.95 39.85 -45.0 40.2 -45.1 40.5 -45.25 40.85 -45.4 41.1 -45.55 41.4 -45.8 41.65 -45.95 41.8 -46.0 41.95 -46.1 42.05 -46.2 42.2 -46.25 42.3 -46.25 42.45 -46.3 42.55 -46.3 42.65 -46.3 42.8 -46.25 42.9 -46.25 43.0 -46.15 43.15 -46.1 43.25 -46.0 43.4 -45.9 43.5 -45.8 43.65 -45.55 43.9 -45.4 44.2 -45.25 44.5 -45.1 44.8 -45.0 45.15 -44.95 45.45 -44.9 45.8 -44.9 46.1 -44.95 46.45 -45.0 46.75 -45.05 47.1 -45.2 47.4 -45.3 47.7 -45.5 47.95 -45.65 48.25 -45.9 48.5 -46.0 48.6 -46.1 48.7 -46.2 48.8 -46.25 48.9 -46.3 49.0 -46.3 49.1 -46.35 49.15 -46.35 49.25 -46.35 49.35 -46.3 49.4 -46.3 49.5 -46.2 49.6 -46.15 49.7 -46.1 49.8 -46.0 49.9 -45.9 50.0 -45.65 50.25 -45.45 50.55 -45.3 50.85 -45.15 51.15 -45.05 51.45 -45.0 51.8 -44.9 52.15 -44.9 52.45 -44.9 52.8 -45.0 53.15 -45.05 53.45 -45.2 53.8 -45.3 54.1 -45.5 54.4 -45.7 54.7 -45.95 54.95 -46.1 55.1 -46.15 55.2 -46.25 55.3 -46.35 55.4 -46.4 55.55 -46.45 55.65 -46.45 55.75 -46.45 55.85 -46.45 55.95 -46.45 56.05 -46.4 56.15 -46.35 56.25 -46.25 56.35 -46.15 56.5 -46.05 56.6 -45.9 56.75 -45.7 56.95 -45.5 57.25 -45.35 57.5 -45.2 57.8 -45.1 58.1 -45.0 58.4 -44.95 58.7 -44.95 59.05 -44.9 59.35 -44.95 59.7 -45.0 60.0 -45.1 60.3 -45.2 60.65 -45.35 60.9 -45.5 61.2 -45.7 61.45 -45.8 61.55 -45.85 61.65 -45.95 61.75 -46.0 61.85 -46.05 61.95 -46.05 62.05 -46.1 62.1 -46.1 62.2 -46.1 62.3 -46.05 62.35 -46.05 62.45 -46.0 62.55 -46.0 62.65 -45.9 62.75 -45.85 62.85 -45.8 63.0 -45.65 63.25 -45.55 63.5 -45.45 63.75 -45.4 64.0 -45.35 64.2 -45.3 64.45 -45.3 64.7 -45.3 64.95 -45.35 65.2 -45.4 65.45 -45.5 65.65 -45.6 65.9 -45.7 66.15 -45.85 66.35 -46.05 66.6 -46.25 66.8 -46.35 66.9 -46.4 66.95 -46.5 67.05 -46.55 67.15 -46.6 67.25 -46.65 67.35 -46.7 67.45 -46.7 67.55 -46.75 67.65 -46.7 67.7 -46.7 67.8 -46.65 67.85 -46.55 67.9 -46.45 67.95 -46.3 68.0 -46.15 68.0 -45.75 68.05 -45.4 68.15 -45.1 68.25 -44.85 68.4 -44.55 68.55 -44.35 68.75 -44.15 68.95 -43.95 69.2 -43.8 69.45 -43.6 69.7 -43.45 69.95 -43.3 70.25 -43.25 70.4 -43.05 70.85 -42.85 71.2 -42.75 71.4 -42.95 71.25 -43.35 71.0 -43.8 70.75 -44.0 70.6 -44.35 70.4 -44.6 70.25 -44.95 70.1 -45.25 70.0 -45.6 69.9 -45.9 69.85 -46.25 69.85 -46.55 69.9 -46.9 69.95 -47.25 70.15 -47.6 70.35 -47.95 70.7 -48.1 70.85 -48.25 71.0 -48.35 71.15 -48.45 71.35 -48.5 71.5 -48.55 71.7 -48.6 71.85 -48.65 72.05 -48.65 72.25 -48.65 72.45 -48.6 72.65 -48.55 72.85 -48.5 73.05 -48.45 73.25 -48.35 73.45 -48.25 73.65 -48.1 73.9 -47.95 74.1 -47.8 74.35 -47.6 74.5 -47.4 74.65 -47.15 74.8 -46.9 74.9 -46.6 74.95 -46.35 75.05 -46.0 75.05 -45.7 75.1 -45.3 75.1 -44.95 75.05 -44.5 75.0 -44.05 74.95 -43.55 74.85 -43.7 75.15 -43.9 75.4 -44.1 75.6 -44.3 75.8 -44.55 75.95 -44.75 76.1 -45.0 76.2 -45.25 76.3 -45.45 76.35 -45.75 76.4 -45.95 76.45 -46.25 76.45 -46.5 76.45 -46.75 76.4 -47.0 76.4 -47.3 76.35 -47.6 76.3 -47.9 76.2 -48.2 76.1 -48.5 75.95 -48.8 75.85 -49.0 75.65 -49.25 75.5 -49.5 75.25 -49.7 75.05 -49.85 74.8 -50.0 74.6 -50.15 74.3 -50.25 74.05 -50.35 73.75 -50.4 73.45 -50.45 73.15 -50.5 72.7 -50.5 72.35 -50.5 71.95 -50.45 71.6 -50.4 71.2 -50.35 70.85 -50.25 70.45 -50.15 70.15 -50.0 69.8 -49.8 69.55 -49.6 69.2 -49.3 68.95 -49.05 68.7 -48.65 68.5 -48.3 68.3 -47.8 68.15 -47.55 68.05 -47.45 67.95 -47.3 67.85 -47.3 67.75 -47.25 67.65 -47.3 67.55 -47.35 67.45 -47.45 67.35 -47.5 67.3 -47.65 67.1 -47.75 67.0 -47.8 66.9 -47.9 66.75 -47.9 66.65 -47.9 66.55 -47.85 66.45 -47.7 66.45 -47.65 66.35 -47.55 66.3 -47.5 66.25 -47.45 66.15 -47.4 66.05 -47.4 66.0 -47.35 65.85 -47.1 64.85 -47.3 65.65 -47.25 65.55 -47.25 65.45 -47.2 65.35 -47.15 65.25 -47.1 65.15 -47.0 65.1 -46.8 65.45 -46.4 66.15 -46.3 65.95 -46.2 65.75 -46.15 65.55 -46.05 65.35 -46.0 65.15 -46.0 65.0 -45.95 64.8 -45.95 64.65 -45.95 64.45 -45.95 64.25 -46.0 64.1 -46.05 63.9 -46.1 63.75 -46.2 63.55 -46.25 63.4 -46.4 63.2 -46.45 63.25 -46.5 63.3 -46.5 63.4 -46.5 63.45 -46.55 63.5 -46.55 63.6 -46.55 63.85 -46.55 63.75 -46.55 63.8 -46.6 63.85 -46.6 63.9 -46.65 63.95 -46.65 64.0 -46.7 64.05 -46.75 64.05 -46.85 64.1 -47.0 64.1 -47.1 64.1 -47.2 64.05 -47.25 64.0 -47.25 63.9 -47.3 63.8 -47.3 63.75 -47.3 63.65 -47.35 63.45 -47.35 63.4 -47.35 63.3 -47.4 63.2 -47.45 63.1 -47.5 63.05 -47.55 63.0 -47.7 62.95 -47.85 63.15 -48.0 63.4 -48.1 63.6 -48.15 63.8 -48.2 64.05 -48.25 64.25 -48.25 64.45 -48.25 64.7 -48.2 64.9 -48.15 65.15 -48.15 65.35 -48.05 65.6 -48.05 65.75 -47.95 66.05 -47.85 66.35 -47.85 66.5 L-47.85 66.5 M-31.95 22.25 Q-30.65 22.25 -29.5 22.15 -28.3 22.1 -27.25 22.0 -26.15 21.85 -25.15 21.7 -24.15 21.5 -23.15 21.25 -22.2 21.0 -21.3 20.7 -20.4 20.4 -19.45 20.05 -18.55 19.65 -17.6 19.2 -16.7 18.75 -15.75 18.25 -13.4 16.95 -11.4 15.25 -9.4 13.55 -7.75 11.5 -6.15 9.5 -4.95 7.2 -3.75 4.95 -3.0 2.5 -2.25 0.05 -1.95 -2.5 -1.6 -5.05 -1.8 -7.6 -1.95 -10.2 -2.65 -12.7 -3.3 -15.25 -4.5 -17.65 -5.7 -20.05 -7.3 -22.15 -8.9 -24.25 -10.85 -26.0 -12.75 -27.75 -15.0 -29.1 -17.2 -30.5 -19.6 -31.45 -22.05 -32.4 -24.6 -32.95 -27.2 -33.5 -29.8 -33.6 -32.5 -33.65 -35.15 -33.3 -37.85 -32.9 -40.45 -32.0 -42.55 -31.3 -44.55 -30.3 -46.45 -29.35 -48.2 -28.1 -49.95 -26.9 -51.5 -25.45 -53.0 -24.0 -54.25 -22.35 -55.55 -20.7 -56.55 -18.85 -57.55 -17.0 -58.3 -15.0 -59.0 -13.0 -59.4 -10.85 -59.85 -8.7 -59.9 -6.45 -60.0 -4.45 -59.8 -2.55 -59.6 -0.7 -59.2 1.1 -58.8 2.85 -58.1 4.5 -57.5 6.15 -56.6 7.7 -55.7 9.2 -54.65 10.65 -53.55 12.05 -52.25 13.35 -51.0 14.65 -49.5 15.8 -48.05 17.0 -46.35 18.05 -45.5 18.6 -44.6 19.05 -43.75 19.55 -42.8 19.95 -41.9 20.35 -41.0 20.7 -40.05 21.05 -39.15 21.3 -38.2 21.55 -37.3 21.75 -36.35 21.95 -35.45 22.05 -34.55 22.2 -33.7 22.25 -32.8 22.25 -31.95 22.25 L-31.95 22.25 M-63.7 60.6 Q-63.6 60.35 -63.6 60.35 -63.7 59.75 -63.75 59.3 -63.8 58.8 -63.75 58.4 -63.7 58.0 -63.6 57.65 -63.5 57.3 -63.3 57.0 -63.1 56.75 -62.85 56.5 -62.6 56.25 -62.2 56.05 -61.85 55.85 -61.35 55.7 -60.9 55.5 -60.35 55.35 -60.2 55.3 -60.1 55.25 -60.0 55.25 -59.95 55.2 -59.9 55.15 -59.85 55.1 -59.85 55.05 -59.8 54.95 -59.8 54.9 -59.85 54.85 -59.85 54.75 -59.9 54.7 -59.9 54.65 -59.95 54.5 -60.0 54.4 -60.05 54.35 -60.2 53.95 -60.3 53.55 -60.4 53.1 -60.4 52.75 -60.4 52.35 -60.3 51.95 -60.2 51.6 -60.05 51.25 -59.9 50.95 -59.65 50.65 -59.4 50.35 -59.1 50.1 -58.8 49.85 -58.4 49.7 -58.05 49.5 -57.6 49.4 -68.35 52.0 -57.4 49.35 -57.3 49.3 -57.2 49.3 -57.15 49.3 -57.1 49.25 -57.05 49.2 -57.0 49.2 -56.95 49.15 -56.95 49.1 -56.95 49.05 -56.95 48.95 -56.95 48.85 -57.0 48.75 -57.05 48.65 -57.15 48.55 -57.35 48.1 -57.5 47.7 -57.65 47.25 -57.7 46.9 -57.75 46.5 -57.7 46.1 -57.7 45.75 -57.55 45.4 -57.45 45.1 -57.25 44.8 -57.05 44.45 -56.75 44.2 -56.45 43.95 -56.1 43.7 -55.7 43.45 -55.25 43.25 -55.15 43.2 -55.05 43.15 -54.95 43.1 -54.9 43.1 -54.85 43.05 -54.8 43.0 -54.75 42.95 -54.7 42.9 -54.7 42.85 -54.7 42.8 -54.65 42.7 -54.7 42.65 -54.7 42.55 -54.75 42.45 -54.8 42.35 -54.9 42.25 -55.15 41.85 -55.35 41.4 -55.55 41.0 -55.6 40.65 -55.7 40.25 -55.7 39.9 -55.7 39.5 -55.65 39.2 -55.55 38.85 -55.4 38.5 -55.2 38.2 -54.95 37.9 -54.7 37.6 -54.35 37.35 -54.05 37.05 -53.6 36.8 -53.65 36.8 -53.45 36.7 -53.4 36.65 -53.35 36.65 -53.25 36.6 -53.25 36.55 -53.2 36.5 -53.15 36.45 -53.15 36.4 -53.15 36.35 -53.15 36.3 -53.15 36.25 -53.15 36.15 -53.2 36.05 -53.25 36.0 -53.35 35.9 -53.65 35.45 -53.9 35.05 -54.1 34.65 -54.25 34.3 -54.4 33.95 -54.4 33.6 -54.45 33.25 -54.4 32.95 -54.35 32.6 -54.2 32.3 -54.0 31.95 -53.75 31.65 -53.5 31.3 -53.15 31.0 -52.8 30.65 -52.35 30.3 -52.25 30.25 -52.2 30.15 -52.15 30.1 -52.1 30.05 -52.05 30.0 -52.05 29.9 -52.0 29.85 -52.0 29.8 -52.0 29.75 -52.0 29.65 -52.0 29.6 -52.05 29.55 -52.05 29.45 -52.1 29.4 -52.15 29.3 -52.2 29.25 -52.55 28.7 -52.75 28.25 -53.0 27.8 -53.15 27.4 -53.3 27.0 -53.35 26.6 -53.4 26.25 -53.35 25.9 -53.3 25.55 -53.1 25.2 -52.95 24.85 -52.7 24.55 -52.45 24.2 -52.1 23.85 -51.7 23.55 -51.25 23.2 -51.6 22.95 -51.95 22.7 -52.25 22.4 -52.55 22.15 -52.8 21.85 -53.05 21.55 -53.25 21.2 -53.4 20.9 -53.6 20.55 -53.65 20.2 -53.75 19.8 -53.8 19.45 -53.8 19.05 -53.75 18.65 -53.7 18.2 -53.55 17.75 -53.5 17.6 -53.5 17.45 -53.45 17.3 -53.45 17.2 -53.45 17.1 -53.45 16.95 -53.5 16.85 -53.5 16.75 -53.55 16.65 -53.6 16.55 -53.65 16.5 -53.7 16.4 -53.8 16.3 -53.85 16.2 -53.95 16.1 -54.05 16.0 -54.9 15.15 -55.65 14.25 -56.45 13.35 -57.15 12.45 -57.85 11.5 -58.45 10.5 -59.1 9.55 -59.65 8.55 -60.15 7.5 -60.65 6.45 -61.1 5.4 -61.45 4.3 -61.85 3.2 -62.15 2.05 -62.45 0.9 -62.65 -0.3 -62.65 -0.45 -62.7 -0.6 -62.75 -0.7 -62.8 -0.8 -62.85 -0.85 -62.9 -0.95 -63.0 -1.0 -63.05 -1.05 -63.15 -1.05 -63.2 -1.1 -63.3 -1.1 -63.4 -1.1 -63.5 -1.1 -63.6 -1.1 -63.7 -1.1 -63.85 -1.1 -64.85 -1.0 -74.6 -0.1 -81.15 0.5 -85.4 0.95 -85.8 1.0 -86.15 1.05 -86.55 1.1 -86.95 1.15 -87.3 1.25 -87.7 1.35 -88.05 1.45 -88.4 1.6 -88.75 1.7 -89.1 1.9 -89.45 2.1 -89.75 2.3 -90.1 2.5 -90.4 2.8 -90.7 3.1 -90.95 3.4 -91.0 3.45 -91.05 3.5 -91.05 3.55 -91.15 3.6 -91.2 3.65 -91.2 3.65 -91.25 3.7 -91.3 3.75 -91.35 3.8 -91.35 3.85 -91.4 3.9 -91.4 3.95 -91.4 4.05 -91.4 4.1 -91.35 4.2 -91.35 4.3 -91.15 4.7 -91.05 5.1 -90.95 5.5 -90.95 5.9 -90.9 6.25 -90.95 6.6 -91.0 6.95 -91.1 7.25 -91.2 7.6 -91.4 7.9 -91.6 8.2 -91.85 8.45 -92.15 8.7 -92.5 8.95 -92.85 9.2 -93.25 9.4 -92.8 9.75 -92.45 10.1 -92.1 10.45 -91.85 10.8 -91.6 11.15 -91.45 11.5 -91.3 11.8 -91.25 12.2 -91.2 12.55 -91.25 12.9 -91.35 13.25 -91.5 13.65 -91.65 14.05 -91.9 14.5 -92.15 14.95 -92.5 15.4 -92.6 15.5 -92.65 15.6 -92.7 15.7 -92.7 15.8 -92.7 15.85 -92.7 15.95 -92.7 16.0 -92.7 16.05 -92.65 16.15 -92.65 16.2 -92.6 16.25 -92.55 16.3 -92.5 16.35 -92.4 16.45 -92.35 16.5 -92.25 16.55 -91.85 16.85 -91.55 17.2 -91.25 17.5 -91.05 17.85 -90.85 18.2 -90.75 18.55 -90.6 18.9 -90.6 19.25 -90.55 19.6 -90.6 19.95 -90.7 20.3 -90.85 20.7 -91.0 21.05 -91.25 21.4 -91.5 21.8 -91.8 22.15 -91.9 22.25 -91.95 22.3 -92.0 22.4 -92.05 22.45 -92.1 22.55 -92.1 22.6 -92.15 22.65 -92.15 22.75 -92.15 22.8 -92.1 22.85 -92.1 22.9 -92.05 23.0 -92.0 23.05 -91.9 23.1 -91.85 23.2 -91.75 23.25 -91.35 23.55 -91.05 23.9 -90.75 24.2 -90.5 24.5 -90.3 24.85 -90.15 25.15 -90.05 25.5 -89.95 25.85 -89.9 26.15 -89.95 26.5 -90.0 26.85 -90.1 27.25 -90.25 27.6 -90.45 27.95 -90.65 28.35 -90.9 28.75 -91.0 28.85 -91.0 28.9 -91.05 28.95 -91.1 29.0 -91.15 29.1 -91.15 29.15 -91.2 29.2 -91.2 29.25 -91.2 29.3 -91.2 29.35 -91.2 29.4 -91.15 29.45 -91.1 29.5 -91.05 29.6 -90.95 29.65 -90.9 29.7 -90.45 30.05 -90.1 30.4 -89.75 30.8 -89.5 31.15 -89.3 31.5 -89.15 31.85 -89.0 32.2 -89.0 32.6 -88.95 32.95 -89.05 33.35 -89.1 33.7 -89.3 34.1 -89.45 34.5 -89.75 34.9 -90.0 35.35 -90.4 35.75 -89.9 36.1 -89.5 36.45 -89.1 36.75 -88.85 37.05 -88.55 37.4 -88.4 37.7 -88.2 38.05 -88.15 38.35 -88.05 38.7 -88.1 39.1 -88.15 39.45 -88.25 39.85 -88.4 40.3 -88.6 40.8 -88.85 41.25 -89.15 41.85 -89.2 41.95 -89.25 42.05 -89.3 42.15 -89.3 42.25 -89.3 42.3 -89.25 42.35 -89.25 42.4 -89.2 42.45 -89.15 42.45 -89.05 42.5 -89.0 42.5 -88.95 42.55 -88.8 42.6 -88.8 42.6 -88.7 42.6 -88.65 42.65 -88.35 42.8 -88.1 43.0 -87.85 43.2 -87.65 43.45 -87.45 43.7 -87.3 43.95 -87.1 44.2 -87.0 44.5 -86.9 44.8 -86.8 45.15 -86.75 45.45 -86.75 45.75 -86.75 46.1 -86.8 46.4 -86.85 46.7 -86.95 47.0 -87.05 47.25 -87.1 47.45 -87.15 47.65 -87.2 47.85 -87.2 48.0 -87.2 48.15 -87.2 48.3 -87.15 48.45 -87.1 48.55 -87.0 48.7 -86.95 48.85 -86.8 48.95 -86.7 49.1 -86.5 49.25 -86.35 49.4 -86.1 49.6 -86.0 49.65 -85.95 49.75 -85.85 49.85 -85.8 49.9 -85.75 50.0 -85.65 50.1 -85.6 50.2 -85.55 50.25 -85.5 50.35 -85.45 50.45 -85.4 50.55 -85.3 50.65 -85.25 50.75 -85.2 50.85 -85.15 50.95 -85.15 51.05 -85.0 51.35 -84.95 51.6 -84.85 51.85 -84.8 52.15 -84.8 52.4 -84.8 52.65 -84.8 52.9 -84.85 53.2 -84.9 53.4 -85.0 53.7 -85.1 53.9 -85.25 54.15 -85.4 54.4 -85.55 54.65 -85.75 54.9 -85.95 55.15 -85.3 55.2 -84.75 55.3 -84.2 55.4 -83.75 55.65 -83.3 55.85 -82.95 56.1 -82.6 56.4 -82.35 56.75 -82.1 57.15 -81.95 57.55 -81.85 58.0 -81.85 58.5 -81.8 58.95 -81.95 59.5 -82.05 60.05 -82.25 60.65 -82.2 60.65 -82.15 60.65 -82.15 60.65 -82.1 60.65 -82.05 60.65 -82.0 60.7 -81.95 60.7 -81.95 60.7 -81.9 60.7 -81.85 60.7 -81.8 60.7 -81.8 60.7 -81.75 60.7 -81.7 60.7 -81.7 60.7 -81.65 60.7 -81.15 60.5 -80.65 60.45 -80.2 60.35 -79.8 60.35 -79.4 60.3 -79.0 60.4 -78.65 60.45 -78.35 60.65 -78.05 60.8 -77.75 61.05 -77.5 61.3 -77.25 61.65 -77.05 62.0 -76.85 62.4 -76.65 62.85 -76.5 63.4 -76.45 63.55 -76.4 63.7 -76.35 63.8 -76.3 63.85 -76.25 63.9 -76.15 63.95 -76.1 63.95 -76.05 63.95 -76.0 63.95 -75.9 63.9 -75.85 63.85 -75.8 63.8 -75.75 63.75 -75.7 63.65 -75.65 63.6 -75.55 63.5 -75.45 63.35 -75.35 63.2 -75.2 63.1 -75.1 63.0 -74.95 62.85 -74.8 62.8 -74.7 62.7 -74.55 62.65 -74.4 62.55 -74.25 62.5 -74.1 62.45 -73.9 62.4 -73.75 62.35 -73.6 62.35 -73.45 62.3 -73.25 62.25 -72.95 62.2 -72.65 62.2 -72.35 62.25 -72.05 62.3 -71.8 62.35 -71.55 62.45 -71.3 62.55 -71.05 62.65 -70.8 62.8 -70.6 63.0 -70.4 63.15 -70.2 63.4 -70.0 63.6 -69.8 63.85 -69.6 64.05 -69.45 64.35 -69.25 63.6 -69.0 63.0 -68.75 62.4 -68.5 61.95 -68.25 61.5 -67.95 61.15 -67.7 60.85 -67.35 60.6 -67.0 60.4 -66.65 60.3 -66.25 60.2 -65.8 60.2 -65.35 60.2 -64.8 60.3 -64.3 60.4 -63.7 60.6 L-63.7 60.6 M58.0 -4.85 Q57.95 -5.9 57.85 -6.95 57.7 -8.05 57.55 -9.15 57.35 -10.3 57.1 -11.4 56.85 -12.55 56.5 -13.65 56.15 -14.8 55.7 -15.9 55.25 -17.1 54.7 -18.2 54.15 -19.35 53.5 -20.4 52.85 -21.5 52.05 -22.55 51.25 -23.6 50.45 -24.55 49.6 -25.5 48.7 -26.3 47.75 -27.15 46.8 -27.8 45.85 -28.5 44.8 -29.0 43.75 -29.5 42.65 -29.85 41.5 -30.2 40.3 -30.4 39.1 -30.55 37.8 -30.5 36.5 -30.5 35.15 -30.25 34.1 -30.05 33.15 -29.75 32.2 -29.5 31.3 -29.1 30.4 -28.7 29.55 -28.2 28.75 -27.7 27.95 -27.1 27.2 -26.5 26.5 -25.85 25.8 -25.2 25.15 -24.45 24.5 -23.7 23.9 -22.9 23.3 -22.1 22.75 -21.2 21.95 -19.9 21.25 -18.55 20.55 -17.2 20.0 -15.85 19.5 -14.5 19.1 -13.1 18.65 -11.7 18.4 -10.25 18.1 -8.85 17.95 -7.4 17.8 -5.95 17.8 -4.45 17.75 -3.0 17.85 -1.5 17.95 0.0 18.1 1.5 18.25 2.65 18.45 3.75 18.7 4.85 18.95 5.95 19.25 7.05 19.6 8.05 19.95 9.15 20.35 10.15 20.8 11.15 21.3 12.15 21.8 13.15 22.4 14.05 23.0 15.0 23.65 15.9 24.35 16.8 25.15 17.65 26.05 18.65 26.95 19.5 27.9 20.35 28.9 21.0 29.9 21.7 30.95 22.25 32.0 22.8 33.05 23.15 34.15 23.5 35.3 23.7 36.45 23.9 37.65 23.85 38.85 23.85 40.1 23.65 41.4 23.45 42.7 23.05 43.6 22.75 44.45 22.35 45.3 22.0 46.05 21.55 46.85 21.05 47.55 20.55 48.25 20.0 48.95 19.4 49.6 18.8 50.2 18.1 50.8 17.45 51.35 16.7 51.9 16.0 52.45 15.2 52.95 14.4 53.45 13.55 54.05 12.55 54.55 11.55 55.05 10.5 55.45 9.5 55.9 8.45 56.25 7.35 56.6 6.3 56.85 5.15 57.15 4.05 57.35 2.85 57.55 1.65 57.7 0.4 57.85 -0.8 57.9 -2.15 58.0 -3.45 58.0 -4.85 L58.0 -4.85 M-74.6 65.05 Q-74.5 65.15 -74.35 65.25 -74.25 65.35 -74.1 65.4 -74.0 65.5 -73.9 65.55 -73.75 65.6 -73.65 65.65 -73.5 65.7 -73.4 65.7 -73.25 65.75 -73.15 65.75 -73.0 65.8 -72.85 65.8 -72.75 65.8 -72.6 65.75 -72.4 65.75 -72.25 65.7 -72.05 65.7 -71.9 65.65 -71.7 65.65 -71.55 65.6 -71.4 65.55 -71.25 65.45 -71.1 65.4 -70.95 65.3 -70.85 65.2 -70.75 65.1 -70.65 64.95 -70.6 64.8 -70.55 64.65 -70.55 64.45 -70.55 64.25 -70.55 64.05 -70.6 63.9 -70.7 63.75 -70.75 63.6 -70.9 63.5 -71.0 63.4 -71.15 63.35 -71.3 63.25 -71.45 63.2 -71.6 63.15 -71.8 63.1 -71.95 63.05 -72.15 63.05 -72.3 63.0 -72.5 63.0 -72.65 62.95 -72.8 62.95 -72.95 62.95 -73.1 62.95 -73.3 62.95 -73.45 62.95 -73.6 63.0 -73.7 63.05 -73.85 63.05 -74.0 63.15 -74.15 63.2 -74.25 63.25 -74.4 63.35 -74.5 63.45 -74.65 63.6 -74.75 63.7 -74.7 63.8 -74.6 63.85 -74.55 63.9 -74.45 63.95 -74.35 63.95 -74.25 63.95 -74.25 63.95 -74.05 64.0 -73.95 64.0 -73.85 64.05 -73.75 64.05 -73.7 64.1 -73.65 64.15 -73.6 64.25 -73.55 64.3 -73.5 64.45 -73.55 64.55 -73.6 64.65 -73.65 64.7 -73.7 64.75 -73.75 64.75 -73.85 64.8 -73.9 64.8 -74.0 64.8 -74.15 64.85 -74.2 64.85 -74.25 64.85 -74.35 64.85 -74.4 64.9 -74.5 64.95 -74.55 65.0 -74.6 65.05 L-74.6 65.05 M-46.3 47.9 Q-46.15 47.7 -46.05 47.5 -45.95 47.3 -45.85 47.1 -45.75 46.9 -45.7 46.75 -45.65 46.55 -45.6 46.35 -45.6 46.15 -45.6 45.95 -45.6 45.75 -45.65 45.6 -45.7 45.4 -45.75 45.2 -45.8 45.0 -45.9 44.8 -46.0 44.65 -46.1 44.55 -46.15 44.4 -46.3 44.3 -46.4 44.2 -46.5 44.1 -46.65 44.05 -46.75 44.0 -46.9 43.95 -47.0 43.9 -47.15 43.9 -47.3 43.95 -47.45 43.95 -47.55 44.0 -47.7 44.1 -47.85 44.2 -48.05 44.35 -48.2 44.6 -48.3 44.8 -48.4 45.05 -48.45 45.3 -48.45 45.6 -48.5 45.85 -48.45 46.1 -48.4 46.4 -48.35 46.65 -48.25 46.9 -48.1 47.15 -48.0 47.4 -47.8 47.6 -47.6 47.8 -47.4 47.95 -47.35 47.9 -47.3 47.8 -47.3 47.75 -47.3 47.65 -47.3 47.55 -47.3 47.45 -47.3 47.25 -47.3 47.25 -47.3 47.15 -47.3 47.1 -47.3 47.0 -47.25 46.95 -47.2 46.9 -47.15 46.85 -47.05 46.8 -46.95 46.8 -46.85 46.8 -46.75 46.8 -46.7 46.85 -46.65 46.9 -46.6 46.95 -46.55 47.0 -46.55 47.05 -46.55 47.15 -46.55 47.15 -46.5 47.35 -46.5 47.45 -46.5 47.55 -46.45 47.65 -46.4 47.7 -46.35 47.8 -46.3 47.9 L-46.3 47.9 M-56.75 47.9 Q-56.65 47.85 -56.55 47.8 -56.5 47.75 -56.45 47.65 -56.4 47.55 -56.35 47.45 -56.35 47.45 -56.25 47.3 -56.25 47.2 -56.2 47.1 -56.15 47.05 -56.1 47.0 -56.05 46.9 -55.95 46.9 -55.9 46.85 -55.8 46.85 -55.65 46.85 -55.55 46.9 -55.5 46.95 -55.45 47.0 -55.45 47.1 -55.45 47.2 -55.45 47.25 -55.5 47.4 -55.55 47.55 -55.55 47.55 -55.55 47.7 -55.55 47.75 -55.55 47.85 -55.5 47.9 -55.45 48.0 -55.3 48.05 -55.15 47.95 -55.0 47.85 -54.9 47.7 -54.8 47.6 -54.7 47.45 -54.6 47.3 -54.5 47.2 -54.45 47.05 -54.35 46.9 -54.3 46.75 -54.25 46.6 -54.2 46.4 -54.15 46.3 -54.1 46.1 -54.05 46.0 -54.0 45.75 -53.95 45.55 -53.95 45.4 -53.95 45.25 -53.95 45.15 -54.0 45.0 -54.05 44.9 -54.15 44.8 -54.25 44.7 -54.3 44.6 -54.4 44.5 -54.5 44.45 -54.65 44.35 -54.7 44.3 -54.85 44.25 -55.0 44.15 -55.05 44.1 -55.15 44.05 -55.3 44.0 -55.4 43.95 -55.5 44.0 -55.6 44.0 -55.7 44.05 -55.8 44.1 -55.85 44.15 -55.95 44.2 -56.05 44.3 -56.1 44.4 -56.15 44.5 -56.25 44.55 -56.3 44.65 -56.35 44.75 -56.4 44.85 -56.5 45.05 -56.6 45.2 -56.7 45.35 -56.8 45.55 -56.85 45.75 -56.9 45.9 -57.0 46.1 -57.0 46.3 -57.05 46.5 -57.05 46.65 -57.05 46.85 -57.0 47.05 -57.0 47.3 -56.9 47.5 -56.85 47.7 -56.75 47.9 L-56.75 47.9 M-88.3 50.45 Q-88.4 50.65 -88.45 50.85 -88.5 51.05 -88.5 51.25 -88.55 51.45 -88.5 51.65 -88.5 51.85 -88.45 52.05 -88.4 52.2 -88.35 52.4 -88.3 52.55 -88.2 52.75 -88.1 52.9 -88.0 53.1 -87.9 53.25 -87.75 53.4 -87.7 53.5 -87.6 53.6 -87.5 53.7 -87.4 53.75 -87.35 53.85 -87.25 53.9 -87.15 53.95 -87.0 54.0 -86.9 54.05 -86.8 54.05 -86.7 54.1 -86.6 54.1 -86.45 54.1 -86.35 54.05 -86.25 54.05 -86.15 54.0 -86.05 53.95 -85.95 53.9 -85.85 53.85 -85.8 53.75 -85.7 53.7 -85.65 53.6 -85.6 53.5 -85.55 53.4 -85.55 53.3 -85.5 53.2 -85.5 53.05 -85.5 52.95 -85.5 52.85 -85.5 52.7 -85.5 52.6 -85.5 52.5 -85.55 52.25 -85.55 52.05 -85.6 51.85 -85.65 51.65 -85.7 51.45 -85.8 51.25 -85.9 51.05 -85.95 50.9 -86.05 50.7 -86.2 50.55 -86.3 50.4 -86.45 50.25 -86.65 50.1 -86.8 50.0 -87.0 49.9 -87.25 49.8 -87.3 49.9 -87.3 50.0 -87.35 50.1 -87.3 50.2 -87.3 50.3 -87.25 50.4 -87.25 50.4 -87.2 50.6 -87.15 50.7 -87.15 50.8 -87.1 50.9 -87.1 50.95 -87.1 51.05 -87.15 51.15 -87.2 51.25 -87.3 51.3 -87.4 51.3 -87.5 51.3 -87.6 51.3 -87.65 51.25 -87.7 51.2 -87.8 51.15 -87.8 51.05 -87.85 51.0 -87.65 51.35 -87.95 50.85 -88.0 50.75 -88.05 50.7 -88.1 50.6 -88.15 50.55 -88.25 50.5 -88.3 50.45 L-88.3 50.45 M-94.3 10.9 Q-94.4 11.1 -94.5 11.3 -94.6 11.5 -94.65 11.65 -94.7 11.85 -94.75 12.05 -94.8 12.25 -94.8 12.45 -94.8 12.65 -94.75 12.85 -94.75 13.05 -94.7 13.25 -94.65 13.45 -94.6 13.65 -94.5 13.85 -94.45 14.05 -94.4 14.15 -94.35 14.25 -94.3 14.3 -94.2 14.35 -94.15 14.4 -94.05 14.45 -94.0 14.5 -93.9 14.5 -93.85 14.55 -93.75 14.55 -93.7 14.55 -93.55 14.55 -93.55 14.55 -93.4 14.6 -93.25 14.6 -93.2 14.6 -93.05 14.6 -92.95 14.6 -92.85 14.6 -92.75 14.6 -92.65 14.55 -92.6 14.55 -92.55 14.5 -92.5 14.45 -92.45 14.4 -92.4 14.35 -92.35 14.3 -92.3 14.2 -92.25 14.15 -92.25 14.05 -92.2 14.0 -92.2 13.9 -92.1 13.65 -92.05 13.45 -92.0 13.2 -92.0 12.95 -91.95 12.75 -92.0 12.5 -92.0 12.3 -92.05 12.1 -92.1 11.85 -92.15 11.65 -92.25 11.45 -92.35 11.25 -92.5 11.05 -92.65 10.85 -92.8 10.7 -93.0 10.5 -93.05 10.6 -93.1 10.7 -93.15 10.8 -93.15 10.95 -93.15 11.0 -93.15 11.15 -93.15 11.35 -93.15 11.35 -93.15 11.45 -93.2 11.55 -93.2 11.65 -93.25 11.7 -93.3 11.8 -93.4 11.85 -93.5 11.9 -93.6 11.95 -93.7 11.9 -93.75 11.85 -93.8 11.8 -93.8 11.7 -93.85 11.65 -93.85 11.55 -93.85 11.55 -93.9 11.4 -93.9 11.3 -93.95 11.25 -93.95 11.15 -94.0 11.1 -94.05 11.05 -94.1 11.0 -94.2 10.95 -94.3 10.9 L-94.3 10.9 M-47.6 61.25 Q-47.5 61.2 -47.45 61.1 -47.4 61.0 -47.35 60.9 -47.35 60.8 -47.35 60.7 -47.35 60.7 -47.35 60.5 -47.35 60.35 -47.3 60.3 -47.3 60.2 -47.25 60.1 -47.2 60.05 -47.15 60.0 -47.05 59.95 -46.9 59.95 -46.8 59.95 -46.7 59.95 -46.65 60.0 -46.65 60.05 -46.6 60.1 -46.6 60.2 -46.6 60.25 -46.55 60.4 -46.55 60.5 -46.55 60.55 -46.55 60.65 -46.5 60.7 -46.45 60.8 -46.4 60.85 -46.3 60.85 -46.2 60.85 -46.05 60.65 -45.95 60.45 -45.85 60.3 -45.8 60.1 -45.7 59.9 -45.65 59.7 -45.65 59.5 -45.6 59.3 -45.6 59.1 -45.65 58.9 -45.65 58.7 -45.7 58.5 -45.75 58.3 -45.85 58.1 -45.9 57.9 -46.05 57.7 -46.1 57.6 -46.25 57.5 -46.35 57.4 -46.45 57.3 -46.6 57.25 -46.75 57.2 -46.9 57.2 -47.1 57.2 -47.25 57.2 -47.4 57.2 -47.55 57.25 -47.7 57.3 -47.8 57.35 -47.9 57.45 -48.0 57.55 -48.1 57.7 -48.2 57.95 -48.3 58.15 -48.35 58.4 -48.4 58.6 -48.45 58.85 -48.45 59.05 -48.5 59.3 -48.45 59.5 -48.45 59.75 -48.35 59.95 -48.3 60.2 -48.2 60.4 -48.1 60.6 -47.95 60.8 -47.8 61.05 -47.6 61.25 L-47.6 61.25 M51.95 37.2 Q52.1 36.95 52.25 36.7 52.4 36.45 52.45 36.15 52.55 35.9 52.6 35.6 52.65 35.35 52.65 35.1 52.7 34.85 52.65 34.65 52.6 34.4 52.55 34.2 52.45 34.0 52.35 33.85 52.2 33.7 52.05 33.65 51.95 33.6 51.9 33.55 51.8 33.55 51.7 33.5 51.6 33.45 51.45 33.45 51.35 33.4 51.25 33.4 51.1 33.4 51.0 33.4 50.9 33.4 50.8 33.45 50.65 33.5 50.55 33.55 50.45 33.6 50.35 33.7 50.2 33.85 50.1 34.1 50.0 34.3 49.95 34.5 49.9 34.75 49.85 35.0 49.85 35.25 49.85 35.5 49.9 35.75 49.95 36.0 50.05 36.25 50.15 36.5 50.25 36.7 50.4 36.95 50.55 37.15 50.75 37.35 50.8 37.3 50.85 37.2 50.9 37.15 50.95 37.05 50.95 37.0 50.95 36.9 50.95 36.95 50.95 36.7 50.95 36.6 50.95 36.5 51.0 36.45 51.0 36.35 51.05 36.3 51.1 36.25 51.2 36.2 51.3 36.2 51.45 36.2 51.5 36.2 51.6 36.2 51.65 36.3 51.7 36.35 51.7 36.4 51.7 36.5 51.7 36.6 51.8 37.75 51.75 36.75 51.75 36.85 51.75 36.95 51.8 37.0 51.8 37.1 51.85 37.15 51.95 37.2 L51.95 37.2 M-58.15 54.2 Q-57.95 54.1 -57.8 54.0 -57.6 53.85 -57.5 53.75 -57.35 53.6 -57.2 53.45 -57.1 53.3 -57.0 53.15 -56.9 52.95 -56.85 52.8 -56.75 52.6 -56.7 52.45 -56.65 52.25 -56.65 52.05 -56.6 51.85 -56.6 51.65 -56.6 51.5 -56.6 51.3 -56.65 51.15 -56.7 51.0 -56.8 50.85 -56.9 50.7 -57.0 50.6 -57.15 50.5 -57.25 50.4 -57.4 50.3 -57.55 50.25 -57.65 50.2 -57.8 50.2 -57.95 50.2 -58.1 50.2 -58.2 50.3 -58.4 50.4 -58.6 50.55 -58.8 50.7 -58.95 50.9 -59.1 51.1 -59.25 51.3 -59.35 51.55 -59.45 51.75 -59.5 52.0 -59.55 52.25 -59.6 52.5 -59.6 52.75 -59.6 53.05 -59.55 53.3 -59.5 53.55 -59.4 53.8 -59.3 53.8 -59.25 53.7 -59.15 53.7 -59.1 53.6 -59.05 53.55 -59.0 53.45 -58.9 53.25 -58.9 53.25 -58.85 53.15 -58.8 53.1 -58.75 53.05 -58.7 53.0 -58.6 52.95 -58.5 52.95 -58.4 52.95 -58.25 53.0 -58.2 53.05 -58.15 53.15 -58.15 53.2 -58.15 53.3 -58.15 53.35 -58.15 53.4 -58.2 53.45 -58.25 53.55 -58.25 53.65 -58.3 53.75 -58.3 53.8 -58.3 53.9 -58.3 53.95 -58.25 54.05 -58.25 54.1 -58.15 54.2 L-58.15 54.2 M52.05 30.55 Q52.1 30.4 52.2 30.3 52.25 30.2 52.3 30.05 52.35 29.95 52.4 29.8 52.45 29.7 52.5 29.6 52.55 29.45 52.55 29.35 52.6 29.25 52.6 29.1 52.65 29.0 52.65 28.9 52.7 28.75 52.7 28.65 52.75 28.4 52.7 28.15 52.7 27.95 52.6 27.75 52.55 27.6 52.45 27.45 52.3 27.3 52.2 27.15 52.05 27.05 51.9 26.95 51.75 26.9 51.55 26.8 51.4 26.75 51.25 26.7 51.1 26.65 50.95 26.65 50.8 26.6 50.65 26.65 50.55 26.65 50.45 26.75 50.35 26.8 50.3 26.9 50.2 27.0 50.15 27.15 50.1 27.3 50.05 27.45 50.0 27.6 49.95 27.8 49.95 27.95 49.9 28.1 49.9 28.25 49.9 28.4 49.9 28.55 49.85 28.7 49.85 28.9 49.85 29.05 49.85 29.2 49.9 29.35 49.9 29.5 49.95 29.65 50.0 29.8 50.05 29.9 50.1 30.05 50.2 30.15 50.3 30.3 50.4 30.4 50.5 30.55 50.65 30.65 50.75 30.6 50.8 30.5 50.9 30.45 50.9 30.35 50.95 30.25 50.95 30.15 50.95 30.15 50.95 29.95 50.95 29.8 51.0 29.75 51.0 29.65 51.05 29.6 51.1 29.5 51.2 29.5 51.25 29.45 51.4 29.45 51.5 29.45 51.55 29.5 51.65 29.5 51.65 29.55 51.7 29.65 51.75 29.7 51.75 29.75 51.75 29.85 51.75 30.0 51.8 30.05 51.8 30.15 51.8 30.2 51.85 30.3 51.9 30.4 51.95 30.45 52.05 30.55 L52.05 30.55 M-47.55 54.5 Q-47.5 54.4 -47.45 54.3 -47.4 54.2 -47.35 54.1 -47.35 54.05 -47.35 53.9 -47.25 52.6 -47.35 53.7 -47.35 53.6 -47.3 53.55 -47.3 53.45 -47.25 53.4 -47.2 53.3 -47.15 53.25 -47.05 53.2 -46.95 53.2 -46.85 53.2 -46.75 53.2 -46.7 53.25 -46.65 53.3 -46.6 53.35 -46.6 53.45 -46.55 53.5 -46.55 53.6 -46.55 53.75 -46.55 53.8 -46.5 53.9 -46.5 54.0 -46.45 54.05 -46.4 54.15 -46.35 54.2 -46.2 54.25 -46.1 54.05 -46.0 53.85 -45.9 53.65 -45.8 53.5 -45.75 53.3 -45.7 53.1 -45.65 52.9 -45.65 52.7 -45.65 52.5 -45.65 52.3 -45.65 52.1 -45.7 51.9 -45.75 51.7 -45.8 51.5 -45.85 51.3 -45.95 51.1 -46.0 50.95 -46.1 50.85 -46.15 50.8 -46.3 50.75 -46.4 50.75 -46.5 50.75 -46.6 50.75 -46.75 50.75 -46.9 50.8 -47.0 50.8 -47.1 50.8 -47.2 50.75 -47.3 50.75 -47.4 50.65 -47.45 50.55 -47.5 50.4 -47.5 50.4 -47.55 50.4 -47.55 50.4 -47.6 50.45 -47.65 50.5 -47.7 50.55 -47.75 50.6 -47.85 50.65 -47.9 50.75 -47.95 50.8 -48.0 50.9 -48.05 50.95 -48.1 51.05 -48.15 51.1 -48.2 51.2 -48.25 51.25 -48.3 51.5 -48.35 51.7 -48.4 51.9 -48.45 52.1 -48.45 52.35 -48.45 52.55 -48.45 52.75 -48.45 52.95 -48.4 53.15 -48.35 53.35 -48.25 53.55 -48.15 53.75 -48.05 53.95 -47.9 54.15 -47.75 54.35 -47.55 54.5 L-47.55 54.5 M-85.9 57.0 Q-85.65 58.05 -85.6 58.15 -85.5 58.3 -85.4 58.5 -85.3 58.65 -85.2 58.8 -85.1 58.95 -85.0 59.05 -84.85 59.2 -84.75 59.3 -84.6 59.4 -84.45 59.5 -84.3 59.6 -84.15 59.65 -83.95 59.75 -83.8 59.8 -83.6 59.85 -83.4 59.85 -83.3 59.85 -83.25 59.85 -83.15 59.85 -83.1 59.85 -83.0 59.85 -82.95 59.8 -82.85 59.8 -82.8 59.75 -82.75 59.7 -82.7 59.65 -82.65 59.6 -82.6 59.5 -82.55 59.45 -82.5 59.35 -82.5 59.3 -82.45 59.2 -82.4 59.0 -82.4 58.8 -82.4 58.6 -82.4 58.45 -82.45 58.25 -82.45 58.1 -82.5 57.95 -82.6 57.8 -82.65 57.6 -82.75 57.45 -82.85 57.3 -82.95 57.2 -83.05 57.05 -83.2 56.9 -83.3 56.75 -83.45 56.65 -83.55 56.55 -83.6 56.5 -83.7 56.4 -83.8 56.3 -83.85 56.25 -83.95 56.2 -84.05 56.1 -84.15 56.05 -84.25 56.0 -84.35 55.95 -84.45 55.9 -84.6 55.9 -84.7 55.9 -84.8 55.9 -84.95 55.9 -85.1 55.95 -85.1 56.05 -85.05 56.15 -85.0 56.25 -84.95 56.3 -84.9 56.4 -84.85 56.5 -84.7 56.65 -84.7 56.65 -84.65 56.75 -84.6 56.8 -84.55 56.9 -84.55 56.95 -84.5 57.05 -84.55 57.15 -84.55 57.25 -84.6 57.35 -84.7 57.4 -84.8 57.45 -84.9 57.45 -84.95 57.4 -85.05 57.4 -85.1 57.35 -85.15 57.3 -85.25 57.2 -85.35 57.15 -85.4 57.1 -85.45 57.05 -85.5 57.0 -85.6 56.95 -85.7 56.95 -85.8 56.95 -85.9 57.0 L-85.9 57.0 M-46.2 41.1 Q-46.05 40.85 -45.95 40.65 -45.85 40.4 -45.75 40.2 -45.7 39.95 -45.65 39.75 -45.6 39.5 -45.6 39.3 -45.6 39.05 -45.65 38.85 -45.7 38.6 -45.75 38.4 -45.85 38.2 -45.95 37.95 -46.05 37.75 -46.2 37.55 -46.3 37.65 -46.4 37.7 -46.55 37.75 -46.65 37.75 -46.75 37.7 -46.9 37.65 -46.95 37.65 -47.15 37.55 -47.3 37.45 -47.4 37.4 -47.55 37.4 -47.65 37.4 -47.75 37.4 -47.9 37.45 -48.0 37.55 -48.1 37.7 -48.25 37.9 -48.3 38.15 -48.4 38.35 -48.4 38.6 -48.45 38.85 -48.45 39.1 -48.45 39.35 -48.4 39.6 -48.35 39.85 -48.25 40.1 -48.15 40.3 -48.0 40.5 -47.85 40.75 -47.7 40.9 -47.5 41.1 -47.3 41.25 -47.25 41.2 -47.25 41.1 -47.25 41.0 -47.25 40.95 -47.25 40.85 -47.25 40.75 -47.25 40.65 -47.25 40.6 -47.25 40.5 -47.25 40.4 -47.2 40.3 -47.2 40.25 -47.15 40.15 -47.1 40.1 -47.0 40.05 -46.9 39.95 -46.8 39.95 -46.7 40.0 -46.65 40.05 -46.6 40.15 -46.55 40.2 -46.55 40.3 -46.55 40.35 -46.5 40.45 -46.5 40.6 -46.5 40.65 -46.5 40.75 -46.45 40.8 -46.4 40.9 -46.35 40.95 -46.3 41.05 -46.2 41.1 L-46.2 41.1 M-93.05 18.75 Q-93.25 18.35 -93.65 17.45 -93.75 17.65 -93.85 17.85 -93.9 18.05 -93.95 18.25 -94.05 18.45 -94.05 18.65 -94.1 18.85 -94.1 19.05 -94.15 19.2 -94.15 19.4 -94.1 19.6 -94.1 19.8 -94.05 19.95 -94.0 20.15 -93.95 20.35 -93.9 20.55 -93.85 20.7 -93.8 20.8 -93.75 20.9 -93.65 21.0 -93.6 21.05 -93.5 21.1 -93.4 21.15 -93.3 21.2 -93.2 21.25 -93.1 21.3 -93.0 21.3 -92.9 21.3 -92.8 21.35 -92.7 21.35 -92.5 21.4 -92.45 21.4 -92.3 21.4 -92.15 21.4 -92.05 21.4 -91.95 21.35 -91.85 21.35 -91.8 21.25 -91.75 21.2 -91.7 21.15 -91.65 21.05 -91.6 20.95 -91.6 20.9 -91.55 20.8 -91.55 20.75 -91.5 20.6 -91.5 20.5 -91.45 20.45 -91.4 20.2 -91.35 20.0 -91.35 19.8 -91.35 19.55 -91.35 19.35 -91.35 19.15 -91.35 18.95 -91.45 18.75 -91.5 18.55 -91.55 18.35 -91.65 18.2 -91.75 18.0 -91.9 17.85 -92.05 17.65 -92.2 17.5 -92.4 17.35 -92.45 17.45 -92.5 17.5 -92.55 17.6 -92.55 17.7 -92.55 17.75 -92.55 17.9 -92.6 18.05 -92.6 18.1 -92.6 18.2 -92.6 18.25 -92.65 18.35 -92.7 18.45 -92.75 18.55 -92.8 18.6 -92.9 18.7 -93.05 18.75 L-93.05 18.75 M-90.05 36.9 Q-90.1 37.0 -90.15 37.1 -90.2 37.2 -90.2 37.3 -90.2 37.35 -90.15 37.5 -90.15 37.45 -90.15 37.7 -90.15 37.8 -90.15 37.9 -90.1 38.0 -90.15 38.05 -90.15 38.15 -90.25 38.25 -90.3 38.3 -90.4 38.35 -90.5 38.35 -90.6 38.3 -90.7 38.3 -90.75 38.25 -90.8 38.2 -90.8 38.1 -90.85 38.05 -90.9 37.95 -90.95 37.75 -90.95 37.75 -90.95 37.7 -91.0 37.6 -91.05 37.55 -91.1 37.45 -91.15 37.4 -91.25 37.35 -91.35 37.5 -91.4 37.7 -91.5 37.85 -91.5 38.05 -91.55 38.2 -91.55 38.4 -91.6 38.55 -91.6 38.75 -91.55 38.9 -91.55 39.1 -91.5 39.25 -91.5 39.45 -91.45 39.6 -91.4 39.8 -91.4 39.85 -91.3 40.15 -91.25 40.35 -91.15 40.5 -91.1 40.65 -91.0 40.7 -90.9 40.8 -90.75 40.85 -90.65 40.9 -90.5 40.9 -90.4 40.9 -90.25 40.9 -94.0 40.9 -89.95 40.9 -89.8 40.9 -89.7 40.9 -89.55 40.95 -89.45 40.95 -89.35 41.0 -89.3 41.0 -89.2 40.95 -89.15 40.9 -89.1 40.85 -89.05 40.8 -89.0 40.7 -88.95 40.6 -88.9 40.5 -88.85 40.4 -88.85 40.3 -88.8 40.15 -88.8 40.05 -88.8 39.95 -88.8 39.85 -88.8 39.75 -88.8 39.55 -88.8 39.35 -88.8 39.1 -88.8 38.95 -88.85 38.7 -88.85 38.55 -88.9 38.35 -88.95 38.15 -89.05 37.95 -89.15 37.8 -89.25 37.6 -89.35 37.45 -89.5 37.3 -89.65 37.15 -89.85 37.0 -90.05 36.9 L-90.05 36.9 M-61.85 60.0 Q-61.65 59.9 -61.5 59.85 -61.3 59.75 -61.15 59.65 -61.0 59.55 -60.85 59.4 -60.7 59.3 -60.55 59.15 -60.45 59.0 -60.35 58.85 -60.2 58.7 -60.1 58.55 -60.0 58.35 -59.95 58.2 -59.85 58.0 -59.75 57.8 -59.7 57.65 -59.7 57.5 -59.65 57.4 -59.7 57.25 -59.7 57.15 -59.75 57.05 -59.8 56.95 -59.9 56.9 -59.95 56.8 -60.05 56.7 -60.05 56.7 -60.2 56.55 -60.3 56.45 -60.35 56.4 -60.45 56.3 -60.5 56.2 -60.55 56.1 -60.6 56.05 -60.7 56.0 -60.75 56.0 -60.85 56.0 -60.9 56.0 -61.0 56.0 -61.1 56.05 -61.15 56.05 -61.25 56.1 -61.35 56.15 -61.45 56.2 -61.5 56.25 -61.6 56.35 -61.65 56.4 -61.75 56.45 -61.95 56.6 -62.1 56.7 -62.25 56.85 -62.35 57.0 -62.5 57.15 -62.65 57.35 -62.75 57.5 -62.85 57.65 -62.95 57.85 -63.0 58.05 -63.1 58.25 -63.1 58.45 -63.15 58.65 -63.1 58.85 -63.1 59.1 -63.05 59.35 -62.95 59.35 -62.85 59.3 -62.75 59.25 -62.7 59.2 -62.6 59.15 -62.55 59.05 -62.55 59.05 -62.4 58.9 -62.35 58.8 -62.3 58.75 -62.2 58.7 -62.15 58.65 -62.1 58.65 -62.0 58.65 -61.9 58.65 -61.8 58.7 -61.75 58.8 -61.7 58.9 -61.65 58.95 -61.7 59.05 -61.7 59.1 -61.75 59.2 -61.75 59.25 -61.8 59.35 -61.85 59.45 -61.85 59.5 -61.9 59.6 -61.9 59.65 -61.95 59.75 -61.9 59.8 -61.9 59.9 -61.85 60.0 L-61.85 60.0 M-47.2 33.55 Q-47.1 33.6 -47.05 33.65 -46.95 33.7 -46.95 33.75 -46.9 33.85 -46.85 33.9 -46.85 34.0 -46.85 34.1 -46.85 34.2 -46.85 34.25 -46.8 34.35 -46.8 34.4 -46.75 34.45 -46.7 34.45 -46.65 34.5 -46.6 34.5 -46.5 34.5 -46.4 34.45 -46.35 34.4 -46.3 34.35 -46.25 34.3 -46.2 34.25 -46.15 34.15 -46.1 34.05 -46.1 34.0 -46.1 33.9 -46.05 33.8 -46.05 33.7 -46.05 33.7 -46.0 33.55 -46.0 33.4 -46.0 33.35 -46.0 33.25 -45.95 33.1 -45.95 33.0 -45.95 32.85 -45.95 32.75 -45.95 32.65 -45.95 32.5 -45.95 32.4 -45.95 32.3 -46.0 32.15 -46.05 32.05 -46.05 31.95 -46.1 31.85 -46.15 31.7 -46.2 31.6 -46.3 31.5 -46.35 31.45 -46.35 31.35 -46.3 31.55 -46.45 31.25 -46.5 31.15 -46.5 31.1 -46.55 31.0 -46.6 30.95 -46.65 30.9 -46.7 30.85 -46.8 30.85 -46.85 30.8 -46.95 30.8 -47.05 30.8 -47.15 30.8 -47.3 30.85 -47.4 30.9 -47.5 30.9 -47.55 30.95 -47.7 30.95 -47.85 31.0 -47.9 31.0 -48.0 31.0 -48.05 31.05 -48.15 31.1 -48.25 31.1 -48.3 31.15 -48.4 31.25 -48.45 31.3 -48.5 31.4 -48.55 31.5 -48.6 31.65 -48.65 31.9 -48.7 32.1 -48.75 32.35 -48.75 32.55 -48.75 32.8 -48.75 33.0 -48.75 33.2 -48.7 33.4 -48.65 33.6 -48.55 33.8 -48.5 34.0 -48.35 34.2 -48.25 34.4 -48.1 34.55 -47.95 34.75 -47.75 34.95 -47.7 34.85 -47.65 34.75 -47.6 34.7 -47.55 34.6 -47.55 34.5 -47.55 34.4 -47.55 34.4 -47.55 34.2 -47.55 34.1 -47.55 34.0 -47.5 33.9 -47.5 33.85 -47.45 33.75 -47.4 33.65 -47.3 33.6 -47.2 33.55 L-47.2 33.55 M-93.0 24.35 Q-93.15 24.65 -93.25 24.95 -93.3 25.25 -93.35 25.55 -93.4 25.85 -93.45 26.15 -93.45 26.4 -93.45 26.7 -93.4 26.95 -93.35 27.15 -93.3 27.4 -93.2 27.55 -93.1 27.75 -92.95 27.85 -92.8 28.0 -92.65 28.05 -92.55 28.1 -92.45 28.1 -92.35 28.1 -92.25 28.1 -92.15 28.1 -92.05 28.1 -91.95 28.1 -91.8 28.1 -91.7 28.05 -91.6 28.05 -91.5 28.0 -91.4 27.95 -91.3 27.95 -91.2 27.9 -91.15 27.85 -91.05 27.8 -90.9 27.65 -90.8 27.45 -90.7 27.3 -90.65 27.05 -90.65 26.85 -90.65 26.6 -90.65 26.35 -90.7 26.1 -90.75 25.8 -90.85 25.55 -90.95 25.3 -91.1 25.05 -91.25 24.8 -91.4 24.6 -91.6 24.35 -91.8 24.15 -91.85 24.2 -91.9 24.3 -91.9 24.4 -91.95 24.5 -91.95 24.55 -91.95 24.7 -91.95 24.85 -91.95 24.85 -91.95 25.0 -91.95 25.05 -92.0 25.15 -92.05 25.25 -92.1 25.3 -92.2 25.35 -92.3 25.4 -92.45 25.45 -92.6 25.1 -93.0 24.35 L-93.0 24.35 M-92.2 30.9 Q-92.3 31.15 -92.35 31.4 -92.4 31.65 -92.45 31.85 -92.5 32.1 -92.5 32.3 -92.55 32.5 -92.55 32.65 -92.55 32.85 -92.5 33.0 -92.5 33.15 -92.45 33.35 -92.4 33.5 -92.3 33.65 -92.25 33.75 -92.15 33.9 -92.1 34.0 -91.95 34.1 -91.85 34.2 -91.7 34.3 -91.55 34.35 -91.35 34.4 -91.2 34.45 -91.05 34.45 -90.85 34.45 -90.7 34.45 -90.5 34.45 -90.4 34.4 -90.25 34.35 -90.15 34.3 -90.05 34.2 -89.95 34.1 -89.85 33.9 -89.8 33.65 -89.7 33.45 -89.7 33.2 -89.7 32.95 -89.7 32.7 -89.75 32.45 -89.85 32.2 -89.9 31.95 -90.0 31.75 -90.15 31.5 -90.3 31.3 -90.45 31.1 -90.65 30.9 -90.85 30.7 -91.05 30.55 -91.05 30.65 -91.05 30.75 -91.05 30.85 -91.05 30.95 -91.05 31.0 -91.05 31.15 -91.0 31.25 -91.0 31.35 -91.0 31.45 -91.0 31.5 -91.0 31.6 -91.05 31.7 -91.1 31.75 -91.15 31.8 -91.25 31.9 -91.35 31.95 -91.45 31.9 -91.55 31.85 -91.6 31.85 -91.65 31.75 -91.7 31.7 -91.75 31.6 -91.75 31.55 -91.8 31.45 -91.85 31.35 -91.85 31.3 -91.9 31.2 -91.9 31.15 -91.95 31.05 -92.0 31.0 -92.1 30.95 -92.2 30.9 L-92.2 30.9 M-81.25 62.4 Q-81.15 62.6 -81.05 62.75 -81.0 62.95 -80.85 63.1 -80.75 63.25 -80.6 63.35 -80.45 63.5 -80.3 63.6 -80.15 63.7 -80.0 63.8 -79.85 63.85 -79.65 63.95 -79.45 64.0 -79.3 64.05 -79.1 64.1 -78.9 64.15 -78.8 64.2 -78.65 64.2 -78.55 64.2 -78.45 64.2 -78.35 64.2 -78.2 64.2 -78.1 64.2 -78.0 64.15 -77.9 64.1 -77.8 64.05 -77.7 64.05 -77.65 63.95 -77.55 63.9 -77.45 63.8 -77.4 63.75 -77.35 63.65 -77.3 63.55 -77.25 63.4 -77.2 63.3 -77.2 63.2 -77.15 63.1 -77.2 63.0 -77.2 62.9 -77.25 62.8 -77.3 62.7 -77.35 62.6 -77.4 62.5 -77.45 62.4 -77.5 62.35 -77.6 62.25 -77.65 62.15 -77.75 62.1 -77.9 61.95 -78.05 61.8 -78.25 61.65 -78.4 61.5 -78.55 61.4 -78.75 61.3 -78.95 61.2 -79.1 61.1 -79.3 61.05 -79.5 61.0 -79.7 60.95 -79.9 60.95 -80.15 60.95 -80.35 60.95 -80.6 61.0 -80.8 61.05 -80.8 61.15 -80.75 61.25 -80.7 61.35 -80.65 61.45 -80.55 61.5 -80.45 61.55 -80.45 61.6 -80.3 61.7 -80.2 61.75 -80.15 61.8 -80.05 61.9 -80.0 61.95 -79.95 62.0 -79.95 62.1 -79.95 62.2 -80.0 62.35 -80.05 62.45 -80.1 62.5 -80.2 62.55 -80.25 62.55 -80.3 62.55 -80.4 62.5 -80.45 62.5 -80.55 62.45 -80.7 62.35 -80.75 62.35 -80.85 62.3 -80.9 62.3 -81.0 62.25 -81.1 62.3 -81.2 62.3 -81.25 62.4 L-81.25 62.4 M-90.15 43.8 Q-90.2 44.05 -90.25 44.25 -90.25 44.45 -90.3 44.65 -90.3 44.85 -90.3 45.05 -90.3 45.25 -90.3 45.4 -90.3 45.6 -90.25 45.8 -90.2 45.95 -90.15 46.15 -90.1 46.3 -90.0 46.5 -89.95 46.65 -89.85 46.85 -89.75 47.0 -89.7 47.1 -89.6 47.2 -89.5 47.25 -89.4 47.3 -89.3 47.35 -89.2 47.4 -89.05 47.4 -88.95 47.45 -88.85 47.45 -88.75 47.45 -88.6 47.45 -88.6 47.45 -88.4 47.45 -88.25 47.45 -88.2 47.45 -88.1 47.45 -88.0 47.4 -87.9 47.4 -87.85 47.35 -87.8 47.3 -87.75 47.2 -87.7 47.15 -87.65 47.05 -87.6 47.0 -87.6 46.9 -87.55 46.8 -87.55 46.7 -87.5 46.6 -87.5 46.5 -87.5 46.45 -87.5 46.35 -87.5 46.1 -87.5 45.9 -87.5 45.65 -87.5 45.45 -87.55 45.25 -87.6 45.05 -87.65 44.85 -87.7 44.65 -87.75 44.45 -87.85 44.3 -88.0 44.1 -88.1 43.95 -88.25 43.75 -88.45 43.65 -88.6 43.5 -88.85 43.35 -88.9 43.45 -88.95 43.55 -89.0 43.65 -89.0 43.75 -89.0 43.85 -88.95 43.95 -88.95 43.95 -88.95 44.15 -88.9 44.25 -88.9 44.35 -88.9 44.45 -88.95 44.55 -88.95 44.65 -89.0 44.7 -89.05 44.8 -89.15 44.85 -89.25 44.85 -89.35 44.8 -89.4 44.8 -89.5 44.75 -89.55 44.7 -89.6 44.6 -89.6 44.55 -89.65 44.45 -89.75 44.3 -89.75 44.3 -89.8 44.2 -89.85 44.15 -89.9 44.05 -89.95 43.95 -90.05 43.9 -90.15 43.8 L-90.15 43.8 M51.7 44.0 Q51.8 43.85 51.9 43.65 52.0 43.5 52.1 43.35 52.15 43.15 52.2 43.0 52.25 42.85 52.3 42.65 52.3 42.5 52.35 42.3 52.35 42.1 52.35 41.95 52.3 41.75 52.3 41.55 52.25 41.35 52.2 41.15 52.15 41.0 52.1 40.85 52.05 40.75 51.95 40.65 51.9 40.55 51.8 40.45 51.7 40.4 51.55 40.35 51.45 40.3 51.35 40.25 51.25 40.25 51.15 40.2 51.1 40.2 50.9 40.15 50.75 40.1 50.7 40.1 50.6 40.05 50.5 40.05 50.4 40.1 50.3 40.1 50.25 40.15 50.2 40.2 50.1 40.3 50.05 40.35 50.0 40.45 49.95 40.55 49.9 40.65 49.85 40.75 49.85 40.85 49.8 40.95 49.8 41.0 49.75 41.15 49.7 41.35 49.65 41.55 49.6 41.75 49.55 41.95 49.5 42.15 49.5 42.35 49.5 42.55 49.55 42.75 49.55 42.95 49.6 43.1 49.7 43.3 49.75 43.5 49.85 43.65 50.0 43.85 50.15 44.0 50.3 44.15 50.4 44.1 50.45 44.0 50.5 43.95 50.5 43.85 50.55 43.75 50.55 43.65 50.6 43.15 50.55 43.45 50.6 43.35 50.6 43.25 50.65 43.15 50.7 43.1 50.75 43.05 50.85 43.0 50.9 42.95 51.05 42.9 51.15 42.95 51.2 43.0 51.3 43.05 51.3 43.1 51.35 43.2 51.35 43.25 51.35 43.3 51.4 43.4 51.4 43.55 51.4 43.6 51.45 43.65 51.45 43.75 51.5 43.8 51.55 43.85 51.6 43.95 51.7 44.0 L51.7 44.0 M-51.85 35.1 Q-51.65 34.9 -51.5 34.65 -51.3 34.4 -51.2 34.15 -51.05 33.95 -50.95 33.7 -50.9 33.45 -50.8 33.2 -50.75 32.95 -50.75 32.75 -50.75 32.55 -50.8 32.35 -50.8 32.15 -50.9 31.95 -51.0 31.8 -51.15 31.65 -51.25 31.6 -51.3 31.55 -51.35 31.45 -51.45 31.4 -51.5 31.35 -51.6 31.3 -51.7 31.25 -51.8 31.2 -51.85 31.15 -51.95 31.1 -52.05 31.1 -52.2 31.1 -52.3 31.1 -52.4 31.1 -52.5 31.15 -52.6 31.2 -52.8 31.3 -52.95 31.45 -53.1 31.6 -53.2 31.8 -53.3 32.0 -53.4 32.25 -53.5 32.5 -53.55 32.75 -53.55 33.0 -53.6 33.3 -53.6 33.6 -53.55 33.85 -53.5 34.15 -53.45 34.45 -53.35 34.7 -53.25 34.95 -53.25 35.0 -53.0 35.0 -52.9 34.95 -52.85 34.9 -52.85 34.85 -52.8 34.75 -52.75 34.7 -52.75 34.6 -52.7 34.35 -52.7 34.4 -52.7 34.3 -52.65 34.25 -52.6 34.15 -52.55 34.1 -52.5 34.05 -52.45 34.0 -52.35 34.0 -52.2 34.0 -52.1 34.05 -52.1 34.1 -52.05 34.15 -52.0 34.25 -52.0 34.3 -52.0 34.35 -52.0 34.45 -52.0 34.5 -52.0 34.65 -52.0 34.65 -52.0 34.75 -52.0 34.8 -52.0 34.9 -51.95 34.95 -51.95 35.05 -51.85 35.1 L-51.85 35.1 M51.3 50.4 Q51.4 50.3 51.5 50.2 51.6 50.1 51.7 49.95 51.75 49.85 51.8 49.75 51.85 49.6 51.9 49.5 51.9 49.35 51.95 49.2 51.95 49.1 52.0 48.95 52.0 48.95 52.0 48.7 52.05 48.5 52.05 48.4 52.1 48.15 52.05 47.9 52.05 47.7 51.95 47.5 51.9 47.35 51.75 47.2 51.65 47.1 51.5 47.0 51.35 46.9 51.15 46.85 51.0 46.8 50.8 46.75 50.7 46.7 50.5 46.65 50.3 46.6 50.2 46.55 50.1 46.5 50.0 46.55 49.9 46.6 49.8 46.65 49.75 46.75 49.65 46.85 49.6 46.95 49.55 47.1 49.5 47.25 49.45 47.4 49.4 47.55 49.35 47.7 49.3 47.85 49.3 48.05 49.25 48.15 49.25 48.3 49.25 48.45 49.2 48.65 49.2 48.8 49.2 48.95 49.2 49.1 49.25 49.25 49.25 49.4 49.3 49.55 49.35 49.7 49.4 49.85 49.45 50.0 49.55 50.1 49.6 50.25 49.75 50.35 49.85 50.45 50.0 50.6 50.1 50.55 50.15 50.45 50.2 50.4 50.2 50.25 50.2 50.2 50.25 50.05 50.25 49.8 50.25 49.85 50.25 49.75 50.3 49.65 50.3 49.55 50.35 49.5 50.45 49.45 50.5 49.4 50.6 49.35 50.75 49.4 50.85 49.4 50.9 49.45 50.95 49.45 51.0 49.5 51.05 49.55 51.05 49.65 51.05 49.7 51.05 49.8 51.05 49.95 51.05 49.95 51.1 50.05 51.1 50.15 51.1 50.2 51.15 50.25 51.2 50.35 51.3 50.4 L51.3 50.4 M-67.65 64.15 Q-67.45 64.15 -67.25 64.15 -67.0 64.15 -66.8 64.1 -66.65 64.1 -66.45 64.05 -66.25 64.0 -66.05 63.9 -65.9 63.85 -65.7 63.75 -65.55 63.65 -65.4 63.5 -65.25 63.4 -65.1 63.25 -64.95 63.1 -64.8 62.9 -64.75 62.8 -64.65 62.7 -64.6 62.6 -64.55 62.5 -64.55 62.4 -64.5 62.3 -64.45 62.2 -64.45 62.1 -64.45 62.0 -64.45 61.9 -64.45 61.8 -64.45 61.65 -64.45 61.55 -64.5 61.45 -64.55 61.35 -64.6 61.25 -64.65 61.15 -64.75 61.05 -64.8 61.0 -64.9 60.95 -65.0 60.9 -65.1 60.85 -65.2 60.8 -65.3 60.8 -65.4 60.8 -65.5 60.8 -65.6 60.8 -65.75 60.85 -65.85 60.85 -65.95 60.9 -66.05 60.9 -66.15 60.95 -66.4 61.0 -66.55 61.1 -66.8 61.2 -66.95 61.3 -67.15 61.4 -67.35 61.5 -67.5 61.6 -67.65 61.75 -67.8 61.9 -67.9 62.05 -68.05 62.2 -68.15 62.4 -68.25 62.6 -68.3 62.8 -68.35 63.05 -68.4 63.3 -68.3 63.3 -68.2 63.3 -68.1 63.3 -68.0 63.25 -67.9 63.2 -67.8 63.15 -67.55 63.0 -67.65 63.05 -67.55 63.0 -67.45 62.95 -67.35 62.9 -67.3 62.9 -67.2 62.9 -67.1 62.95 -67.0 62.95 -66.9 63.05 -66.9 63.15 -66.9 63.25 -66.9 63.3 -66.95 63.4 -67.0 63.45 -67.05 63.5 -67.1 63.55 -67.2 63.6 -67.3 63.65 -67.35 63.7 -67.4 63.75 -67.45 63.8 -67.55 63.85 -67.6 63.95 -67.6 64.05 -67.65 64.15 L-67.65 64.15 M-93.55 4.4 Q-93.65 4.5 -93.75 4.65 -93.85 4.75 -93.95 4.85 -94.0 5.0 -94.1 5.1 -94.15 5.25 -94.2 5.35 -94.25 5.5 -94.25 5.65 -94.3 5.75 -94.35 5.9 -94.35 6.05 -94.35 6.2 -94.4 6.3 -94.4 6.45 -94.4 6.65 -94.4 6.8 -94.35 6.95 -94.3 7.15 -94.25 7.3 -94.15 7.4 -94.05 7.55 -93.95 7.65 -93.85 7.8 -93.75 7.85 -93.65 7.95 -93.5 8.05 -93.35 8.1 -93.25 8.2 -93.1 8.25 -92.95 8.25 -92.85 8.3 -92.75 8.25 -92.6 8.25 -92.55 8.2 -92.45 8.15 -92.35 8.1 -92.3 8.0 -92.2 7.9 -92.15 7.8 -92.1 7.7 -92.05 7.55 -92.0 7.45 -91.95 7.35 -91.9 7.2 -91.9 7.15 -91.8 6.95 -91.75 6.75 -91.7 6.55 -91.65 6.4 -91.6 6.2 -91.6 6.0 -91.6 5.85 -91.6 5.65 -91.6 5.5 -91.65 5.3 -91.7 5.15 -91.75 5.0 -91.85 4.8 -91.95 4.65 -92.05 4.5 -92.2 4.35 -92.35 4.2 -92.4 4.25 -92.45 4.35 -92.5 4.4 -92.5 4.5 -92.55 4.6 -92.55 4.7 -92.6 5.05 -92.55 4.9 -92.55 5.0 -92.6 5.05 -92.6 5.15 -92.65 5.2 -92.7 5.3 -92.75 5.35 -92.85 5.4 -92.95 5.4 -93.05 5.4 -93.15 5.35 -93.2 5.3 -93.25 5.25 -93.25 5.2 -93.3 5.1 -93.3 5.05 -93.3 4.95 -93.3 4.85 -93.3 4.8 -93.3 4.7 -93.35 4.65 -93.35 4.55 -93.4 4.5 -93.5 4.45 -93.55 4.4 L-93.55 4.4 M-53.15 41.5 Q-53.0 41.4 -52.9 41.3 -52.8 41.2 -52.7 41.1 -52.6 41.0 -52.55 40.85 -52.45 40.75 -52.4 40.6 -52.35 40.45 -52.3 40.3 -52.3 40.2 -52.25 40.05 -52.15 39.7 -52.15 39.75 -52.15 39.6 -52.1 39.5 -52.05 39.3 -52.0 39.1 -52.0 38.9 -52.05 38.75 -52.1 38.6 -52.15 38.45 -52.25 38.35 -52.35 38.25 -52.45 38.15 -52.6 38.05 -52.7 38.0 -52.85 37.9 -53.0 37.85 -53.15 37.75 -53.5 37.6 -53.4 37.65 -53.55 37.6 -53.65 37.6 -53.75 37.55 -53.85 37.6 -53.95 37.65 -54.05 37.7 -54.1 37.75 -54.2 37.85 -54.25 37.95 -54.35 38.05 -54.4 38.15 -54.45 38.3 -54.5 38.35 -54.55 38.5 -54.65 38.65 -54.65 38.7 -54.75 38.9 -54.8 39.05 -54.85 39.25 -54.9 39.45 -54.95 39.6 -55.0 39.8 -55.0 40.0 -55.0 40.15 -55.0 40.35 -55.0 40.5 -54.95 40.7 -54.9 40.85 -54.85 41.05 -54.75 41.25 -54.7 41.4 -54.55 41.6 -54.45 41.55 -54.4 41.45 -54.35 41.4 -54.3 41.3 -54.25 41.2 -54.25 41.1 -54.35 41.45 -54.2 40.9 -54.15 40.8 -54.15 40.7 -54.1 40.6 -54.05 40.55 -54.0 40.5 -53.9 40.45 -53.8 40.4 -53.7 40.4 -53.55 40.4 -53.5 40.45 -53.4 40.5 -53.4 40.55 -53.35 40.6 -53.35 40.7 -53.35 40.75 -53.35 40.9 -53.4 41.0 -53.4 41.05 -53.4 41.15 -53.35 41.25 -53.35 41.35 -53.3 41.4 -53.25 41.45 -53.15 41.5 L-53.15 41.5 M51.35 57.1 Q51.5 56.8 51.6 56.55 51.75 56.25 51.8 55.95 51.9 55.65 51.9 55.4 51.95 55.1 51.95 54.85 51.95 54.6 51.9 54.4 51.9 54.2 51.8 54.0 51.7 53.8 51.6 53.7 51.5 53.55 51.35 53.5 51.25 53.45 51.15 53.45 51.05 53.4 50.95 53.35 50.85 53.35 50.75 53.35 50.65 53.3 50.55 53.35 50.4 53.35 50.3 53.35 50.2 53.4 50.1 53.4 50.0 53.45 49.9 53.55 49.8 53.6 49.7 53.7 49.55 53.85 49.45 54.05 49.35 54.25 49.3 54.5 49.25 54.7 49.25 54.95 49.25 55.2 49.25 55.45 49.3 55.7 49.35 55.9 49.4 56.15 49.5 56.4 49.6 56.6 49.75 56.8 49.9 57.05 50.1 57.2 50.15 57.15 50.2 57.05 50.25 57.0 50.25 56.9 50.25 56.85 50.25 56.75 50.3 56.55 50.3 56.55 50.3 56.45 50.3 56.35 50.35 56.3 50.4 56.25 50.45 56.15 50.5 56.15 50.6 56.1 50.7 56.1 50.8 56.1 50.85 56.1 50.95 56.15 51.0 56.2 51.0 56.25 51.05 56.35 51.05 56.4 51.05 56.5 51.1 56.65 51.1 56.65 51.1 56.75 51.15 56.85 51.15 56.9 51.2 57.0 51.3 57.05 51.35 57.1 L51.35 57.1 M-50.75 28.4 Q-50.55 28.2 -50.4 28.0 -50.3 27.85 -50.2 27.6 -50.1 27.45 -50.1 27.2 -50.05 27.0 -50.05 26.8 -50.05 26.6 -50.05 26.4 -50.05 26.25 -50.1 25.95 -50.15 25.65 -50.15 25.55 -50.15 25.35 -50.15 25.15 -50.15 25.05 -50.2 25.0 -50.25 24.95 -50.35 24.9 -50.4 24.9 -50.5 24.85 -50.55 24.85 -50.75 24.8 -50.9 24.8 -50.95 24.75 -51.1 24.75 -51.2 24.7 -51.3 24.65 -51.4 24.55 -51.45 24.45 -51.5 24.35 -51.5 24.35 -51.55 24.35 -51.55 24.35 -51.6 24.35 -51.65 24.4 -51.7 24.4 -51.75 24.45 -51.8 24.5 -51.85 24.55 -51.9 24.6 -51.95 24.65 -52.0 24.7 -52.05 24.8 -52.1 24.85 -52.15 24.9 -52.15 24.95 -52.3 25.2 -52.35 25.4 -52.45 25.6 -52.55 25.85 -52.6 26.05 -52.65 26.25 -52.7 26.5 -52.7 26.7 -52.7 26.95 -52.65 27.15 -52.6 27.35 -52.55 27.6 -52.45 27.8 -52.3 28.05 -52.2 28.25 -52.0 28.45 -51.9 28.4 -51.85 28.3 -51.8 28.25 -51.75 28.15 -51.75 28.05 -51.7 27.95 -51.75 28.1 -51.7 27.75 -51.65 27.6 -51.65 27.55 -51.6 27.45 -51.55 27.4 -51.5 27.3 -51.45 27.25 -51.35 27.2 -51.2 27.2 -51.1 27.25 -51.05 27.3 -51.0 27.35 -51.0 27.45 -50.95 27.5 -50.95 27.6 -50.95 27.65 -50.95 27.75 -50.95 27.85 -50.95 27.9 -50.9 28.0 -50.9 28.1 -50.9 28.2 -50.85 28.25 -50.8 28.35 -50.75 28.4 L-50.75 28.4 M-47.05 27.85 Q-46.95 27.65 -46.85 27.4 -46.75 27.2 -46.7 27.0 -46.65 26.8 -46.6 26.6 -46.55 26.35 -46.55 26.15 -46.55 25.95 -46.6 25.75 -46.65 25.55 -46.7 25.35 -46.75 25.1 -46.85 24.9 -46.95 24.7 -47.05 24.5 -47.1 24.45 -47.2 24.4 -47.3 24.35 -47.45 24.3 -47.6 24.3 -47.8 24.3 -47.95 24.3 -48.15 24.3 -48.35 24.3 -48.5 24.35 -48.65 24.35 -48.8 24.4 -48.95 24.45 -49.0 24.5 -49.1 24.55 -49.1 24.65 -49.1 24.85 -49.1 25.1 -49.1 25.25 -49.15 25.55 -49.2 25.85 -49.2 26.0 -49.2 26.25 -49.2 26.5 -49.2 26.7 -49.15 26.95 -49.1 27.15 -49.0 27.35 -48.9 27.6 -48.75 27.8 -48.6 28.0 -48.4 28.2 -48.3 28.1 -48.25 28.0 -48.25 27.95 -48.2 27.85 -48.2 27.75 -48.2 27.6 -48.2 27.65 -48.2 27.4 -48.2 27.3 -48.15 27.2 -48.15 27.1 -48.1 27.05 -48.1 26.95 -48.0 26.9 -47.95 26.85 -47.8 26.8 -47.7 26.8 -47.65 26.85 -47.6 26.9 -47.55 26.95 -47.5 27.05 -47.5 27.1 -47.45 27.15 -47.45 27.25 -47.45 27.35 -47.4 27.4 -47.4 27.5 -47.35 27.6 -47.3 27.65 -47.25 27.75 -47.15 27.8 -47.05 27.85 L-47.05 27.85 M50.9 62.75 Q51.15 62.45 51.25 62.15 51.4 61.9 51.45 61.65 51.5 61.4 51.5 61.15 51.5 60.9 51.4 60.7 51.3 60.5 51.2 60.3 51.05 60.1 50.85 59.9 50.65 59.7 50.4 59.55 50.2 59.4 49.9 59.2 49.7 59.4 49.55 59.7 49.45 59.95 49.3 60.2 49.2 60.5 49.15 60.8 49.1 61.05 49.05 61.35 49.05 61.6 49.1 61.85 49.1 62.1 49.2 62.3 49.25 62.5 49.35 62.65 49.5 62.75 49.65 62.8 49.75 62.75 49.8 62.7 49.85 62.65 49.85 62.55 49.9 62.5 49.9 62.4 49.9 62.4 49.95 62.25 49.95 62.1 49.95 62.05 50.0 61.95 50.05 61.9 50.1 61.85 50.15 61.8 50.2 61.75 50.35 61.7 50.45 61.75 50.5 61.8 50.55 61.85 50.55 61.9 50.6 62.0 50.6 62.05 50.6 62.1 50.6 62.25 50.65 62.35 50.65 62.4 50.65 62.5 50.7 62.55 50.7 62.6 50.75 62.65 50.8 62.75 50.9 62.75 L50.9 62.75 M-49.75 32.85 Q-49.65 32.7 -49.6 32.5 -49.55 32.35 -49.45 32.2 -49.45 32.05 -49.35 31.9 -49.25 31.5 -49.3 31.55 -49.25 31.4 -49.2 31.3 -49.15 31.1 -49.05 31.0 -49.0 30.85 -48.95 30.75 -48.85 30.6 -48.75 30.5 -48.7 30.45 -48.6 30.35 -48.45 30.25 -48.4 30.15 -48.3 30.05 -48.25 30.0 -48.15 29.9 -48.15 29.8 -48.1 29.7 -48.1 29.6 -48.05 29.5 -48.1 29.4 -48.15 29.3 -48.25 29.2 -48.3 29.1 -48.45 29.0 -48.5 28.95 -48.6 28.9 -48.65 28.85 -48.75 28.75 -48.85 28.6 -48.9 28.55 -48.95 28.45 -49.05 28.4 -49.1 28.35 -49.2 28.3 -49.3 28.25 -49.4 28.25 -49.5 28.3 -49.6 28.35 -49.7 28.4 -49.85 28.55 -49.95 28.65 -50.05 28.75 -50.15 28.85 -50.35 28.95 -50.55 29.1 -50.6 29.15 -50.8 29.3 -50.85 29.4 -51.0 29.5 -51.05 29.6 -51.15 29.75 -51.15 29.9 -51.15 30.05 -51.1 30.25 -51.05 30.4 -50.9 30.65 -50.8 30.75 -50.75 30.9 -50.7 31.0 -50.6 31.15 -50.55 31.25 -50.5 31.4 -50.45 31.45 -50.4 31.65 -50.3 31.85 -50.25 31.95 -50.2 32.1 -50.1 32.25 -50.05 32.4 -49.95 32.55 -49.85 32.7 -49.75 32.85 L-49.75 32.85 M-48.75 22.8 Q-49.0 22.8 -48.95 22.8 -49.1 22.85 -49.2 22.85 -49.3 22.85 -49.4 22.85 -49.5 22.9 -49.6 22.9 -49.7 22.95 -49.8 22.95 -49.9 23.0 -50.0 23.05 -50.1 23.1 -50.15 23.15 -50.25 23.25 -50.3 23.3 -50.3 23.3 -50.3 23.35 -50.3 23.4 -50.3 23.4 -50.3 23.45 -50.25 23.5 -50.25 23.55 -50.2 23.6 -50.15 23.7 -50.15 23.75 -50.1 23.8 -50.05 23.8 -50.05 23.85 -50.0 23.9 -49.95 23.9 -49.95 23.9 -49.8 23.9 -49.7 23.9 -49.6 23.9 -49.5 23.85 -49.4 23.8 -49.35 23.75 -49.25 23.65 -49.2 23.6 -49.15 23.5 -49.1 23.4 -49.05 23.35 -48.95 23.2 -48.75 22.85 -48.85 23.0 -48.8 22.9 -48.75 22.8 L-48.75 22.8" fill="#111111" fill-rule="evenodd" stroke="none"/>
    <path d="M-0.9 -5.2 Q-0.9 -17.55 -9.85 -26.3 -18.85 -35.05 -31.55 -35.05 -44.3 -35.05 -53.25 -26.3 -62.25 -17.55 -62.25 -5.2 -62.25 7.15 -53.25 15.9 -44.3 24.6 -31.55 24.6 -18.85 24.6 -9.85 15.9 -0.9 7.15 -0.9 -5.2 L-0.9 -5.2" fill="#000000" fill-opacity="0.38039216" fill-rule="evenodd" stroke="none"/>
    <path d="M58.8 -3.0 Q58.8 -15.2 52.5 -23.8 46.25 -32.4 37.35 -32.4 28.45 -32.4 22.15 -23.8 15.9 -15.2 15.9 -3.0 15.9 9.15 22.15 17.75 28.45 26.35 37.35 26.35 46.25 26.35 52.5 17.75 58.8 9.15 58.8 -3.0 L58.8 -3.0" fill="#000000" fill-opacity="0.38039216" fill-rule="evenodd" stroke="none"/>
  </g>
</svg>
