<?xml version="1.0" encoding="UTF-8" standalone="no"?>
<svg xmlns:xlink="http://www.w3.org/1999/xlink" height="200.0px" width="200.0px" xmlns="http://www.w3.org/2000/svg">
  <g transform="matrix(1.0, 0.0, 0.0, 1.0, 100.0, 100.0)">
    <path d="M-28.35 -11.45 Q-28.5 -11.7 -28.65 -11.95 -28.85 -12.25 -29.05 -12.6 -29.3 -12.9 -29.6 -13.25 -29.9 -13.65 -30.2 -14.0 -30.55 -14.4 -30.95 -14.75 -31.35 -15.15 -31.8 -15.5 -32.3 -15.85 -32.8 -16.2 -33.35 -16.6 -33.95 -16.9 -34.35 -17.1 -34.55 -17.2 -35.0 -17.45 -35.35 -17.6 -35.85 -17.85 -36.35 -18.0 -36.9 -18.2 -37.5 -18.35 -38.15 -18.5 -38.75 -18.6 -39.45 -18.7 -40.15 -18.7 -40.9 -18.7 -41.65 -18.6 -42.45 -18.5 -43.2 -18.25 -43.35 -18.2 -43.55 -18.15 -43.85 -18.05 -44.15 -17.9 -44.55 -17.7 -44.95 -17.5 -45.45 -17.25 -45.9 -16.95 -46.45 -16.6 -46.9 -16.2 -47.45 -15.75 -47.9 -15.25 -48.4 -14.7 -48.8 -14.1 -49.25 -13.4 -49.55 -12.7 -49.7 -12.35 -49.8 -11.95 -49.95 -11.6 -50.0 -11.25 -50.1 -10.9 -50.15 -10.55 -50.2 -10.25 -50.2 -9.9 -50.25 -9.6 -50.25 -9.25 -50.25 -8.95 -50.25 -8.6 -50.25 -8.3 -50.2 -7.95 -50.2 -7.7 -50.15 -7.3 -50.15 -7.05 -50.1 -6.75 -50.05 -6.3 -50.0 -5.85 -49.9 -5.25 -49.75 -4.6 -49.6 -3.9 -49.4 -3.15 -49.15 -2.3 -48.8 -1.5 -48.45 -0.55 -48.05 0.35 -47.55 1.35 -47.0 2.3 -46.35 3.35 -45.65 4.35 -45.15 5.0 -44.65 5.6 -44.15 6.2 -43.6 6.75 -43.1 7.3 -42.55 7.8 -42.05 8.25 -41.5 8.75 -40.95 9.2 -40.35 9.65 -39.85 10.05 -39.2 10.45 -38.7 10.85 -38.0 11.3 -37.6 11.6 -36.75 12.15 -36.1 12.6 -35.4 13.0 -34.8 13.4 -34.1 13.8 -33.5 14.15 -32.85 14.5 -32.25 14.85 -31.65 15.15 -31.1 15.45 -30.55 15.7 -30.05 15.95 -29.55 16.2 -29.1 16.4 -28.65 16.6 -28.35 16.75 -27.9 16.95 -27.55 17.1 -27.15 17.3 -26.8 17.45 -26.45 17.6 -26.15 17.7 -25.8 17.85 -25.5 18.0 -25.15 18.1 -24.85 18.25 -24.55 18.35 -24.3 18.45 -24.0 18.6 -23.75 18.7 -23.45 18.8 -23.2 18.85 -22.95 18.95 -22.65 18.85 -22.4 18.7 -22.1 18.55 -21.8 18.4 -21.45 18.25 -21.15 18.1 -20.8 17.95 -20.45 17.75 -20.1 17.55 -19.75 17.35 -19.35 17.15 -18.95 16.95 -18.6 16.7 -18.2 16.45 -17.8 16.25 -17.4 15.95 -16.85 15.6 -16.5 15.4 -16.0 15.1 -15.6 14.8 -15.15 14.5 -14.75 14.2 -14.25 13.9 -13.85 13.6 -13.4 13.25 -12.95 12.9 -12.5 12.5 -12.1 12.1 -11.65 11.7 -11.2 11.25 -10.75 10.8 -10.35 10.3 -9.8 9.7 -9.35 9.05 -8.85 8.45 -8.45 7.8 -8.05 7.2 -7.7 6.6 -7.4 6.05 -7.1 5.45 -6.85 4.9 -6.6 4.4 -6.4 3.9 -6.2 3.4 -6.05 3.0 -5.9 2.6 -5.8 2.3 -5.65 1.9 -5.45 1.3 -5.35 0.9 -5.15 0.3 -5.0 -0.2 -4.8 -0.85 -4.7 -1.45 -4.5 -2.15 -4.4 -2.85 -4.3 -3.6 -4.2 -4.35 -4.15 -5.15 -4.15 -5.95 -4.15 -6.8 -4.2 -7.65 -4.25 -8.55 -4.45 -9.45 -4.55 -10.05 -4.6 -10.35 -4.7 -10.85 -4.8 -11.3 -4.9 -11.8 -5.05 -12.2 -5.15 -12.7 -5.35 -13.15 -5.5 -13.65 -5.7 -14.05 -5.95 -14.55 -6.2 -14.95 -6.5 -15.4 -6.8 -15.85 -7.15 -16.25 -7.6 -16.65 -8.25 -17.3 -9.05 -17.8 -9.75 -18.25 -10.55 -18.55 -11.3 -18.85 -12.1 -19.05 -12.85 -19.25 -13.6 -19.3 -14.3 -19.4 -15.0 -19.4 -15.55 -19.4 -16.15 -19.35 -16.6 -19.35 -17.05 -19.25 -17.35 -19.25 -17.6 -19.2 -18.7 -19.0 -19.8 -18.6 -20.75 -18.2 -21.65 -17.7 -22.45 -17.2 -23.25 -16.6 -23.9 -16.05 -24.55 -15.4 -25.1 -14.85 -25.55 -14.25 -26.0 -13.75 -26.35 -13.2 -26.6 -12.8 -26.85 -12.4 -27.0 -12.15 -27.1 -11.9 -27.5 -11.75 -28.35 -11.45 L-28.35 -11.45" fill="#f56ee5" fill-rule="evenodd" stroke="none"/>
    <path d="M-27.05 -23.1 Q-26.6 -23.7 -26.15 -24.25 -25.6 -24.85 -25.05 -25.45 -24.5 -26.15 -23.9 -26.8 -23.25 -27.5 -22.55 -28.2 -21.85 -28.9 -21.1 -29.65 -20.3 -30.4 -19.45 -31.1 -18.6 -31.9 -17.7 -32.6 -16.75 -33.4 -15.75 -34.1 -14.9 -34.75 -14.15 -35.25 -13.4 -35.8 -12.4 -36.4 -11.6 -36.9 -10.0 -37.85 -3.6 -41.75 -6.45 -40.0 0.5 -44.2 6.45 -47.95 9.3 -49.75 11.4 -50.8 12.45 -51.35 13.5 -51.8 14.5 -52.3 15.5 -52.75 16.45 -53.15 17.45 -53.55 18.45 -53.95 19.45 -54.35 20.45 -54.7 21.55 -55.1 22.5 -55.45 23.7 -55.85 24.7 -56.2 26.05 -56.65 26.85 -56.9 28.6 -57.5 30.0 -57.95 31.4 -58.4 32.7 -58.8 34.05 -59.2 35.35 -59.6 36.65 -59.95 37.85 -60.3 39.1 -60.65 40.25 -60.95 41.45 -61.25 42.55 -61.55 43.65 -61.85 44.7 -62.1 45.7 -62.35 46.7 -62.55 47.65 -62.75 47.8 -62.7 48.0 -62.7 48.15 -62.65 48.35 -62.6 48.55 -62.55 48.75 -62.45 48.95 -62.4 49.2 -62.3 49.4 -62.2 49.6 -62.1 49.85 -62.0 50.05 -61.9 50.3 -61.75 50.5 -61.6 50.75 -61.4 50.95 -61.25 51.1 -61.15 51.2 -61.0 51.35 -60.9 51.45 -60.75 51.6 -60.55 51.75 -60.35 51.95 -60.1 52.1 -59.8 52.3 -59.45 52.5 -59.05 52.7 -58.65 52.9 -58.15 53.15 -57.6 53.4 -56.95 53.65 -56.3 53.95 -55.5 54.05 -55.25 54.1 -55.05 54.2 -54.8 54.25 -54.6 54.35 -54.3 54.45 -54.05 54.55 -53.75 54.6 -53.5 54.7 -53.2 54.8 -52.9 54.9 -52.6 55.0 -52.25 55.1 -51.95 55.2 -51.6 55.3 -51.25 55.4 -50.9 54.85 -50.8 54.3 -50.7 53.75 -50.6 53.15 -50.5 52.55 -50.4 51.9 -50.3 51.25 -50.15 50.6 -50.05 49.9 -49.9 49.2 -49.75 48.5 -49.6 47.75 -49.4 47.0 -49.25 46.25 -49.05 45.45 -48.9 44.65 -48.7 42.5 -48.15 40.4 -47.55 38.45 -46.95 36.5 -46.35 34.75 -45.75 33.0 -45.1 31.45 -44.55 29.95 -44.0 28.65 -43.45 27.35 -42.95 26.3 -42.5 25.3 -42.05 24.5 -41.65 23.75 -41.35 23.25 -41.1 22.75 -40.85 20.7 -39.85 18.7 -38.8 16.8 -37.8 15.0 -36.7 13.35 -35.75 11.75 -34.75 10.35 -33.85 8.95 -32.9 7.75 -32.05 6.6 -31.25 5.65 -30.55 4.75 -29.85 4.05 -29.3 3.4 -28.75 2.95 -28.45 2.55 -28.05 2.2 -27.8 1.9 -27.5 1.6 -27.25 1.25 -27.0 0.95 -26.7 0.7 -26.45 0.4 -26.25 0.15 -26.0 -0.15 -25.75 -0.4 -25.5 -0.6 -25.3 -0.85 -25.1 -1.05 -24.9 -1.3 -24.7 -1.5 -24.5 -1.7 -24.3 -2.1 -24.45 -2.45 -24.6 -2.8 -24.75 -3.15 -24.85 -3.5 -25.0 -3.85 -25.05 -4.15 -25.15 -4.5 -25.2 -4.75 -25.3 -5.05 -25.35 -5.35 -25.35 -5.6 -25.4 -5.85 -25.45 -6.1 -25.45 -6.35 -25.45 -6.6 -25.45 -6.8 -25.45 -7.0 -25.45 -7.15 -25.45 -7.3 -25.45 -7.4 -25.45 -7.55 -25.45 -7.9 -25.4 -7.8 -25.45 -7.95 -25.4 -8.05 -25.4 -8.2 -25.4 -8.35 -25.4 -8.5 -25.4 -8.65 -25.45 -8.85 -25.45 -9.05 -25.45 -9.4 -25.5 -9.7 -25.55 -9.95 -25.6 -10.2 -25.7 -10.45 -25.75 -10.7 -25.85 -10.85 -25.9 -11.15 -26.0 -11.4 -26.1 -11.55 -26.15 -11.8 -26.2 -12.0 -26.25 -12.25 -26.35 -12.45 -26.4 -12.75 -26.45 -13.0 -26.45 -13.1 -26.45 -13.2 -26.45 -13.35 -26.5 -13.5 -26.5 -13.65 -26.5 -13.8 -26.5 -14.0 -26.5 -14.15 -26.5 -14.35 -26.45 -14.55 -26.45 -14.8 -26.45 -15.0 -26.4 -15.25 -26.35 -15.45 -26.3 -15.7 -26.25 -15.95 -26.15 -16.45 -26.0 -16.9 -25.75 -17.25 -25.55 -17.65 -25.25 -17.95 -25.05 -18.3 -24.75 -18.45 -24.65 -18.9 -24.25 -19.25 -23.9 -19.45 -23.75 -19.75 -23.5 -20.0 -23.4 -20.3 -23.2 -20.6 -23.15 -20.95 -23.05 -21.3 -23.1 -21.35 -23.1 -21.45 -23.1 -21.5 -23.1 -21.55 -23.15 -21.6 -23.15 -21.7 -23.15 -21.8 -23.15 -21.85 -23.2 -21.9 -23.2 -22.0 -23.2 -22.05 -23.2 -22.15 -23.2 -22.25 -23.25 -22.35 -23.25 -22.45 -23.25 -22.6 -23.25 -22.8 -23.25 -22.95 -23.25 -23.1 -23.25 -23.25 -23.2 -23.4 -23.2 -23.55 -23.2 -23.65 -23.15 -23.8 -23.15 -23.85 -23.1 -24.05 -23.1 -24.2 -23.05 -24.3 -23.05 -24.45 -23.0 -24.6 -23.0 -24.75 -22.95 -24.9 -22.95 -25.0 -22.95 -25.1 -22.95 -25.2 -22.9 -25.3 -22.9 -25.4 -22.9 -25.55 -22.9 -25.65 -22.9 -25.8 -22.9 -25.95 -22.9 -26.1 -22.95 -26.2 -22.95 -26.35 -22.95 -26.55 -23.0 -26.7 -23.0 -26.85 -23.05 -27.05 -23.1 L-27.05 -23.1" fill="#f56ee5" fill-rule="evenodd" stroke="none"/>
    <path d="M-47.65 13.2 Q-47.3 13.35 -47.0 13.5 -46.65 13.65 -46.35 13.75 -46.05 13.85 -45.75 13.95 -45.5 14.05 -45.2 14.1 -44.95 14.15 -44.7 14.15 -44.45 14.2 -44.2 14.2 -44.0 14.25 -43.75 14.25 -43.55 14.25 -43.35 14.2 -43.1 14.2 -42.85 14.15 -42.65 14.15 -42.4 14.1 -91.05 21.7 -41.95 14.0 -41.75 14.0 -41.55 13.95 -41.35 13.95 -41.2 13.95 -41.0 13.95 -40.85 13.95 -40.65 14.0 -40.5 14.05 -40.3 14.1 -40.15 14.2 -39.9 14.35 -38.85 16.15 -38.45 16.8 -36.9 19.35 -36.7 19.7 -36.45 20.1 -36.8 20.9 -37.1 21.65 -37.4 22.45 -37.7 23.25 -38.05 24.1 -38.35 24.9 -38.65 25.75 -38.95 26.6 -39.25 27.5 -39.5 28.35 -39.8 29.25 -40.05 30.15 -40.35 31.1 -40.6 32.0 -40.9 32.95 -41.15 33.9 -41.9 36.9 -42.45 39.5 -42.75 39.4 -43.0 39.35 -43.35 39.2 -43.7 39.1 -44.1 38.9 -44.55 38.7 -45.0 38.5 -45.45 38.25 -45.95 37.95 -46.45 37.65 -47.0 37.3 -47.5 36.85 -48.0 36.45 -48.5 35.95 -49.0 35.4 -49.5 34.8 -49.8 34.4 -50.1 33.95 -50.35 33.55 -50.6 33.1 -50.85 32.7 -51.05 32.3 -51.2 31.9 -51.35 31.5 -51.5 31.15 -51.65 30.8 -51.75 30.45 -51.85 30.1 -51.9 29.8 -52.0 29.5 -52.05 29.25 -52.1 29.0 -50.6 23.75 -47.65 13.2 L-47.65 13.2" fill="#f56ee5" fill-rule="evenodd" stroke="none"/>
  </g>
</svg>
