<?xml version="1.0" encoding="UTF-8" standalone="no"?>
<svg xmlns:xlink="http://www.w3.org/1999/xlink" height="108.8px" width="135.85px" xmlns="http://www.w3.org/2000/svg">
  <g transform="matrix(1.0, 0.0, 0.0, 1.0, 67.9, 54.4)">
    <path d="M12.65 -52.5 Q12.8 -52.6 12.9 -52.7 13.05 -52.8 13.2 -52.9 13.4 -53.0 13.55 -53.1 13.75 -53.2 13.9 -53.3 14.1 -53.4 14.3 -53.5 14.55 -53.6 14.75 -53.7 15.0 -53.75 15.2 -53.85 15.45 -53.95 15.7 -54.0 16.3 -54.2 16.9 -54.3 17.45 -54.4 18.05 -54.4 18.65 -54.45 19.25 -54.4 19.8 -54.35 20.45 -54.25 21.05 -54.15 21.7 -54.0 22.3 -53.85 22.95 -53.65 23.6 -53.45 24.35 -53.2 25.0 -52.95 25.8 -52.65 27.3 -52.1 28.05 -51.85 29.2 -51.4 30.05 -51.1 31.0 -50.75 31.8 -50.45 32.65 -50.1 33.35 -49.85 34.1 -49.55 34.7 -49.25 35.35 -48.95 35.95 -48.7 36.55 -48.4 37.05 -48.1 37.6 -47.85 38.1 -47.5 39.15 -46.85 40.15 -46.2 41.15 -45.5 42.15 -44.7 43.15 -43.9 44.1 -43.0 45.1 -42.1 46.1 -41.1 47.1 -40.05 48.1 -38.9 49.1 -37.75 50.1 -36.45 51.15 -35.1 52.2 -33.6 53.25 -32.1 54.3 -30.45 56.1 -27.65 57.05 -26.15 58.65 -23.55 59.95 -21.3 61.55 -18.55 62.9 -15.9 64.4 -12.95 65.6 -10.0 66.95 -6.75 68.0 -3.5 69.15 0.05 69.9 3.6 70.7 7.45 71.1 11.3 71.55 15.45 71.5 19.65 71.5 20.8 71.45 21.9 71.4 23.2 71.3 24.45 71.2 25.85 71.05 27.25 70.85 28.8 70.65 30.3 70.4 31.95 70.05 33.55 69.7 35.3 69.3 37.05 68.85 38.85 68.3 40.65 67.75 42.6 67.1 44.5 64.5 45.0 59.75 45.95 59.75 45.45 59.7 45.05 59.7 44.6 59.65 44.25 59.6 43.85 59.6 43.55 59.55 43.25 59.5 43.0 59.45 42.75 59.4 42.55 59.4 42.35 59.35 42.25 59.25 42.1 59.2 42.05 59.15 42.0 59.1 41.95 59.0 41.95 58.95 42.0 58.85 42.1 58.75 42.25 58.65 42.4 58.6 42.65 58.5 42.9 58.35 43.25 58.25 43.55 58.15 43.95 58.05 44.35 57.9 44.85 57.8 45.35 57.65 45.9 57.5 46.5 57.4 47.15 54.05 47.75 47.1 49.05 48.1 45.15 50.3 36.4 47.95 40.1 43.4 47.15 43.65 46.5 43.9 45.85 44.2 45.15 44.45 44.45 44.7 43.75 44.95 43.0 45.2 42.2 45.45 41.4 45.7 40.55 45.95 39.7 46.15 38.8 46.35 37.9 46.55 36.95 46.75 36.0 46.95 35.05 47.1 34.05 47.25 32.95 47.4 31.8 47.5 30.75 47.55 29.7 47.65 28.65 47.65 27.65 47.7 26.65 47.7 25.7 47.65 24.75 47.65 23.85 47.6 23.0 47.55 22.1 47.5 21.3 47.4 20.5 47.35 19.8 47.25 19.05 45.3 10.85 41.8 -4.35 43.2 0.2 44.15 4.75 45.0 9.05 45.45 13.3 45.85 17.35 45.85 21.2 45.8 24.9 45.4 28.3 45.0 31.65 44.25 34.55 43.5 37.35 42.45 39.65 41.4 41.95 40.15 43.65 38.85 45.3 37.4 46.25 36.7 46.7 35.75 47.15 34.85 47.55 33.75 47.95 32.7 48.35 31.5 48.7 30.4 49.05 29.2 49.35 28.1 49.65 26.9 49.95 25.9 50.2 24.85 50.4 24.0 50.6 23.1 50.8 22.55 50.9 21.8 51.05 21.5 51.1 21.3 51.15 21.0 51.2 20.75 51.2 20.45 51.25 20.15 51.3 19.85 51.3 19.6 51.3 19.3 51.3 19.0 51.25 18.7 51.2 18.45 51.1 18.2 51.0 17.95 50.85 17.7 50.7 17.5 50.5 17.3 50.3 17.15 50.0 17.0 49.75 16.95 49.5 16.85 49.2 16.85 48.9 16.8 48.6 16.8 48.3 16.8 48.05 16.85 47.75 16.85 47.5 16.9 47.25 16.95 47.05 17.0 46.85 17.05 46.7 17.1 46.55 16.3 47.8 14.75 50.2 12.85 50.1 9.15 49.95 9.75 49.0 10.35 48.05 11.0 46.95 11.65 45.85 12.35 44.55 13.0 43.25 13.75 41.85 14.4 40.35 15.1 38.75 15.7 37.15 16.35 35.35 16.95 33.55 17.5 31.65 18.0 29.7 18.5 27.6 18.85 25.5 19.2 23.35 19.45 21.2 19.65 19.2 19.7 17.15 19.75 15.25 19.7 13.35 19.65 11.55 19.55 9.8 19.4 8.2 19.2 6.55 19.0 5.1 18.7 3.65 18.5 2.4 18.2 1.1 17.95 0.0 17.7 -1.05 17.75 1.2 17.75 3.45 17.75 5.6 17.7 7.75 17.6 9.8 17.5 11.8 17.4 13.7 17.25 15.55 17.1 17.35 16.9 19.1 16.7 20.7 16.5 22.35 16.3 23.85 16.05 25.3 15.85 26.65 15.6 28.0 15.4 29.2 15.2 30.2 14.95 31.3 14.75 32.25 14.5 33.25 14.2 34.2 13.95 35.15 13.6 36.05 13.25 36.95 12.85 37.8 12.45 38.65 12.0 39.45 11.5 40.3 10.95 41.1 10.35 41.9 9.7 42.65 9.1 43.3 8.5 43.9 7.9 44.5 7.25 45.05 6.65 45.55 6.0 46.0 5.4 46.45 4.75 46.85 4.15 47.2 3.55 47.55 3.0 47.85 2.4 48.15 1.85 48.4 1.3 48.65 0.8 48.85 0.3 49.05 0.75 47.9 1.15 46.7 1.6 45.45 2.0 44.15 2.4 42.75 2.8 41.35 3.2 39.9 3.55 38.35 3.95 36.75 4.3 35.15 4.6 33.45 4.9 31.75 5.2 29.95 5.4 28.15 5.6 26.25 5.75 24.35 5.9 22.45 5.95 20.6 6.0 18.8 6.0 16.95 6.0 15.25 5.9 13.55 5.85 11.9 5.7 10.3 5.6 8.75 5.4 7.25 5.25 5.8 5.05 4.4 4.85 3.05 4.6 1.75 4.4 0.55 4.15 -0.65 3.7 -0.95 3.25 -1.25 2.75 -1.6 2.25 -1.95 1.75 -2.3 1.25 -2.7 0.7 -3.1 0.15 -3.5 -0.4 -3.95 -0.95 -4.4 -1.55 -4.9 -2.1 -5.4 -2.75 -5.9 -3.3 -6.45 -3.95 -7.0 -4.55 -7.55 -5.3 -8.25 -5.75 -8.7 -6.5 -9.45 -7.15 -10.15 -7.95 -11.0 -8.7 -11.85 -9.6 -12.8 -10.4 -13.8 -11.3 -14.9 -12.1 -16.05 -13.05 -17.3 -13.85 -18.55 -14.75 -19.95 -15.5 -21.35 -16.35 -22.9 -17.1 -24.45 -17.85 -26.1 -18.2 -26.8 -18.75 -28.05 -19.15 -28.9 -19.6 -29.95 -19.95 -30.8 -20.3 -31.7 -20.6 -32.45 -20.9 -33.2 -21.1 -33.9 -21.3 -34.6 -21.45 -35.25 -21.6 -35.9 -21.7 -36.5 -21.75 -37.15 -21.75 -37.7 -21.75 -38.0 -21.75 -38.1 -21.75 -38.4 -21.75 -38.65 -21.75 -39.0 -21.8 -39.3 -21.85 -39.7 -21.9 -40.05 -21.95 -40.5 -22.1 -40.9 -22.2 -41.35 -22.35 -41.75 -22.55 -42.2 -22.8 -42.6 -23.05 -43.05 -23.35 -43.45 -23.45 -43.6 -23.6 -43.75 -23.7 -43.85 -23.85 -44.0 -23.95 -44.1 -24.1 -44.25 -24.2 -44.35 -24.35 -44.45 -24.45 -44.55 -24.6 -44.65 -24.7 -44.7 -24.8 -44.8 -24.9 -44.9 -25.05 -44.95 -25.15 -45.0 -25.25 -45.05 -25.45 -43.5 -25.7 -42.0 -25.95 -40.3 -26.3 -38.6 -26.65 -36.75 -27.1 -34.95 -27.6 -32.95 -28.15 -31.0 -28.8 -28.95 -29.5 -26.9 -30.3 -24.7 -31.15 -22.6 -32.1 -20.35 -33.15 -18.15 -34.3 -15.85 -35.55 -13.6 -36.2 -12.45 -36.9 -11.3 -37.6 -10.2 -38.3 -9.1 -38.95 -8.05 -39.7 -7.05 -40.35 -6.05 -41.1 -5.1 -41.8 -4.15 -42.5 -3.25 -43.2 -2.4 -43.9 -1.55 -44.55 -0.7 -45.25 0.1 -45.9 0.85 -46.6 1.6 -46.6 1.0 -46.65 -0.1 -46.7 -1.3 -46.75 -1.85 -49.15 1.1 -54.7 7.8 -54.7 8.3 -54.7 8.8 -54.7 9.35 -54.65 9.95 -54.6 10.6 -54.5 11.25 -54.4 12.0 -54.3 12.75 -54.15 13.55 -53.95 14.35 -53.75 15.2 -53.5 16.0 -53.2 16.9 -52.85 17.8 -52.45 18.75 -52.05 19.65 -51.6 20.5 -51.15 21.35 -50.7 22.1 -50.15 22.85 -49.7 23.55 -49.15 24.25 -48.7 24.85 -48.15 25.45 -47.7 26.0 -47.2 26.5 -46.75 26.95 -46.25 27.4 -45.85 27.75 -45.4 28.15 -45.05 28.45 -44.7 28.75 -45.0 28.75 -45.25 28.75 -45.55 28.75 -45.85 28.7 -46.2 28.7 -46.5 28.65 -46.9 28.65 -47.25 28.6 -47.6 28.55 -47.95 28.5 -48.35 28.4 -48.75 28.3 -49.15 28.25 -49.55 28.1 -50.0 28.0 -50.4 27.85 -51.0 27.65 -51.55 27.45 -52.1 27.25 -52.6 27.0 -53.1 26.75 -53.6 26.5 -54.05 26.25 -54.45 26.0 -54.85 25.75 -55.25 25.45 -55.6 25.2 -55.95 24.95 -56.25 24.75 -56.55 24.5 -56.8 24.25 -57.05 24.05 -57.0 24.4 -56.95 24.8 -56.85 25.15 -56.8 25.55 -56.75 25.95 -56.65 26.35 -56.55 26.8 -56.45 27.2 -56.35 27.65 -56.25 28.05 -56.15 28.5 -56.0 28.95 -55.85 29.4 -55.75 29.85 -55.6 30.35 -55.4 30.8 -55.2 31.4 -55.0 31.95 -54.75 32.5 -54.55 33.05 -54.3 33.55 -54.1 34.05 -53.85 34.55 -53.6 35.05 -53.4 35.5 -53.15 35.95 -52.9 36.35 -52.65 36.8 -52.45 37.2 -52.2 37.6 -51.95 37.95 -51.75 38.3 -53.2 37.4 -56.55 35.35 -57.3 34.65 -58.0 33.9 -58.9 33.0 -59.7 32.05 -60.6 30.95 -61.45 29.8 -62.4 28.55 -63.2 27.2 -64.1 25.75 -64.8 24.3 -65.6 22.65 -66.2 21.0 -66.85 19.2 -67.3 17.4 -67.7 15.45 -67.9 13.45 -67.95 13.1 -67.95 12.75 -68.0 12.4 -68.0 12.05 -68.0 11.75 -68.0 11.4 -68.0 11.05 -68.0 10.7 -68.0 10.4 -68.0 10.05 -68.0 9.75 -68.0 9.4 -67.95 9.1 -67.95 8.8 -67.95 8.45 -67.9 8.15 -70.15 7.15 -74.95 4.95 -72.75 4.25 -68.5 3.0 -68.5 2.7 -68.55 2.4 -68.55 2.0 -68.55 1.65 -68.6 1.25 -68.6 0.9 -68.6 0.45 -68.6 0.0 -68.65 -0.45 -68.65 -0.9 -68.65 -1.4 -68.6 -1.9 -68.6 -2.45 -68.6 -3.0 -68.55 -3.55 -68.55 -4.1 -68.45 -5.65 -68.3 -7.15 -68.15 -8.6 -67.9 -10.05 -67.7 -11.45 -67.35 -12.9 -67.1 -14.25 -66.7 -15.65 -66.35 -17.0 -65.95 -18.4 -65.55 -19.75 -65.05 -21.25 -64.65 -22.55 -64.1 -24.15 -63.7 -25.3 -63.05 -27.25 -60.8 -33.7 -59.2 -36.55 -59.0 -36.95 -58.8 -37.25 -58.55 -37.7 -58.25 -38.15 -57.95 -38.7 -57.6 -39.25 -57.2 -39.85 -56.8 -40.45 -56.3 -41.1 -55.85 -41.75 -55.3 -42.45 -54.75 -43.15 -54.15 -43.85 -53.5 -44.55 -52.85 -45.25 -52.15 -45.9 -51.15 -46.9 -50.0 -47.75 -49.0 -48.6 -47.85 -49.3 -46.8 -50.0 -45.7 -50.6 -44.65 -51.2 -43.55 -51.7 -42.55 -52.15 -41.45 -52.55 -40.5 -52.95 -39.45 -53.3 -38.55 -53.6 -37.55 -53.9 -36.85 -54.1 -35.75 -54.4 -33.15 -55.15 -30.4 -55.65 -27.85 -56.1 -25.2 -56.35 -22.75 -56.6 -20.2 -56.65 -17.9 -56.7 -15.5 -56.6 -13.3 -56.45 -11.1 -56.25 -9.15 -56.0 -7.15 -55.7 -5.4 -55.45 -3.65 -55.05 -2.15 -54.75 -0.7 -54.4 0.45 -54.25 12.65 -52.5 L12.65 -52.5" fill="#00ccff" fill-rule="evenodd" stroke="none"/>
  </g>
</svg>
