<?xml version="1.0" encoding="UTF-8" standalone="no"?>
<svg xmlns:xlink="http://www.w3.org/1999/xlink" height="107.05px" width="68.5px" xmlns="http://www.w3.org/2000/svg">
  <g transform="matrix(1.0, 0.0, 0.0, 1.0, 54.4, 53.6)">
    <path d="M0.35 -31.2 Q-0.75 -32.85 -1.8 -34.35 -2.8 -35.85 -3.85 -37.15 -4.85 -38.5 -5.85 -39.65 -6.85 -40.8 -7.85 -41.85 -8.85 -42.85 -9.85 -43.75 -10.8 -44.65 -11.85 -45.45 -12.8 -46.25 -13.85 -46.95 -14.8 -47.65 -15.85 -48.25 -16.35 -48.55 -16.9 -48.85 -17.45 -49.15 -18.0 -49.4 -18.6 -49.7 -19.25 -50.0 -19.9 -50.25 -20.6 -50.55 -21.3 -50.85 -22.15 -51.2 -22.95 -51.5 -23.9 -51.85 -24.75 -52.15 -25.9 -52.6 -26.6 -52.85 -28.15 -53.4 -29.0 -53.7 -29.6 -53.95 -30.35 -54.2 -31.0 -54.4 -31.7 -54.6 -32.3 -54.75 -32.95 -54.9 -33.55 -55.0 -34.15 -55.1 -34.7 -55.15 -35.3 -55.2 -35.9 -55.15 -36.5 -55.15 -37.05 -55.05 -37.65 -54.95 -38.25 -54.75 -38.5 -54.7 -38.75 -54.6 -39.0 -54.5 -39.2 -54.4 -39.45 -54.3 -39.65 -54.2 -39.85 -54.15 -40.05 -54.05 -40.25 -53.95 -40.4 -53.85 -40.6 -53.75 -40.75 -53.65 -40.9 -53.55 -41.05 -53.45 -41.2 -53.35 -41.3 -53.25 -43.9 -53.6 -48.0 -54.2 -53.7 -55.0 -54.65 -55.15 -55.1 -55.25 -55.5 -55.35 -56.0 -55.45 -56.45 -55.55 -56.95 -55.65 -57.45 -55.75 -57.95 -55.9 -58.5 -56.0 -59.05 -56.1 -59.6 -56.2 -60.15 -56.3 -60.7 -56.4 -61.3 -56.5 -61.9 -56.55 -62.55 -56.65 -63.15 -56.75 -62.95 -56.45 -62.75 -56.2 -62.55 -55.9 -62.35 -55.6 -62.15 -55.35 -61.9 -55.05 -61.75 -54.75 -61.55 -54.5 -61.35 -54.2 -61.15 -53.9 -60.95 -53.6 -60.75 -53.3 -60.55 -53.05 -60.35 -52.75 -60.2 -52.45 -60.0 -52.15 -56.6 -46.85 -51.05 -35.7 -48.55 -30.6 -46.8 -27.2 -46.55 -26.75 -43.9 -21.8 -42.15 -18.5 -41.05 -16.35 -40.7 -15.65 -40.4 -15.05 -40.1 -14.35 -39.8 -13.7 -39.45 -13.0 -39.2 -12.35 -38.9 -11.65 -38.6 -11.0 -38.3 -10.3 -38.05 -9.65 -37.8 -8.95 -37.55 -8.3 -37.3 -7.6 -37.1 -6.9 -36.85 -6.2 -36.65 -5.5 -36.5 -4.9 -36.35 -4.35 -36.2 -3.75 -36.05 -3.15 -35.9 -2.55 -35.8 -1.95 -35.7 -1.4 -35.6 -0.8 -35.5 -0.2 -35.4 0.4 -35.35 1.0 -35.25 1.6 -35.2 2.2 -35.15 2.8 -35.1 3.4 -35.05 4.0 -34.9 5.05 -34.75 6.1 -34.6 7.25 -34.5 8.35 -34.4 9.55 -34.3 10.75 -34.25 12.05 -34.25 13.3 -34.2 14.65 -34.25 16.0 -34.3 17.4 -34.4 18.8 -34.5 20.3 -34.7 21.75 -34.85 23.25 -35.1 24.75 -35.45 26.85 -35.95 28.95 -36.45 30.9 -37.05 32.8 -37.6 34.6 -38.25 36.4 -38.85 38.0 -39.6 39.6 -40.25 41.1 -40.95 42.55 -41.6 43.85 -42.3 45.1 -42.95 46.2 -43.6 47.3 -44.2 48.25 -44.8 49.2 -42.95 49.3 -39.25 49.5 -38.2 47.9 -36.9 45.8 -36.95 46.0 -36.95 46.1 -37.0 46.3 -37.05 46.5 -37.1 46.8 -37.1 47.0 -37.15 47.3 -37.15 47.6 -37.15 47.9 -37.15 48.15 -37.1 48.45 -37.0 48.75 -36.95 49.05 -36.8 49.3 -36.65 49.55 -36.45 49.75 -36.25 49.95 -36.0 50.1 -35.8 50.25 -35.5 50.35 -35.25 50.45 -34.95 50.5 -34.7 50.55 -34.4 50.55 -34.1 50.55 -33.8 50.55 -33.5 50.5 -33.2 50.5 -32.95 50.45 -32.65 50.4 -32.45 50.35 -32.15 50.3 -31.35 50.15 -30.85 50.05 -29.95 49.85 -29.15 49.65 -28.05 49.45 -27.05 49.2 -25.85 48.9 -24.8 48.65 -23.55 48.3 -22.45 47.95 -21.25 47.6 -20.25 47.2 -19.1 46.8 -18.25 46.4 -17.25 45.95 -16.6 45.5 -15.4 44.75 -14.35 43.5 -13.25 42.25 -12.35 40.55 -11.4 38.85 -10.65 36.8 -9.9 34.7 -9.35 32.3 -8.8 29.85 -8.5 27.15 -8.2 24.35 -8.15 21.4 -8.1 18.3 -8.3 15.05 -8.55 11.75 -9.05 8.3 -10.15 3.55 -12.2 -5.1 -11.95 -4.25 -11.65 -3.35 -11.4 -2.5 -11.2 -1.65 -10.95 -0.8 -10.75 0.05 -10.5 0.9 -10.35 1.75 -10.15 2.6 -9.95 3.4 -9.8 4.25 -9.6 5.05 -9.45 5.9 -9.3 6.7 -9.2 7.5 -9.05 8.3 -8.3 11.65 -6.75 18.3 -6.65 19.05 -6.6 19.8 -6.5 20.6 -6.45 21.4 -6.35 22.25 -6.35 23.1 -6.3 24.05 -6.3 24.95 -6.3 25.9 -6.3 26.9 -6.35 27.9 -6.4 28.95 -6.5 30.0 -6.6 31.1 -6.7 32.2 -6.9 33.3 -7.05 34.3 -7.25 35.3 -7.4 36.2 -7.6 37.15 -7.8 38.05 -8.05 38.95 -8.25 39.8 -8.5 40.65 -8.75 41.45 -9.0 42.25 -9.25 43.0 -9.5 43.75 -9.75 44.4 -10.05 45.1 -10.3 45.75 -10.55 46.4 -8.15 42.65 -3.65 35.65 L-6.9 48.3 Q-3.8 47.75 3.4 46.4 3.55 45.75 3.7 45.15 3.8 44.6 3.95 44.1 4.05 43.65 4.15 43.2 4.3 42.8 4.4 42.5 4.5 42.15 4.6 41.95 4.7 41.7 4.8 41.55 4.9 41.35 4.95 41.3 5.05 41.2 5.15 41.25 5.2 41.25 5.25 41.3 5.3 41.4 5.35 41.5 5.4 41.65 5.45 41.8 5.5 42.0 5.55 42.25 5.6 42.5 5.6 42.8 5.65 43.1 5.7 43.5 5.7 43.85 5.75 44.3 5.75 44.75 5.75 45.2 8.35 44.7 13.1 43.75 13.75 41.85 14.35 39.95 14.85 38.1 15.3 36.3 15.75 34.55 16.1 32.85 16.4 31.2 16.65 29.55 16.9 28.05 17.05 26.5 17.2 25.1 17.35 23.7 17.4 22.45 17.45 21.15 17.5 20.05 17.55 18.9 17.6 14.7 17.15 10.55 16.75 6.7 15.95 2.85 15.15 -0.7 14.05 -4.25 13.0 -7.5 11.65 -10.75 10.4 -13.65 8.9 -16.65 7.6 -19.3 6.0 -22.05 4.7 -24.3 3.1 -26.85 2.15 -28.4 0.35 -31.2 L0.35 -31.2" fill="#00ccff" fill-rule="evenodd" stroke="none"/>
  </g>
</svg>
