<?xml version="1.0" encoding="UTF-8" standalone="no"?>
<svg xmlns:xlink="http://www.w3.org/1999/xlink" height="200.0px" width="200.0px" xmlns="http://www.w3.org/2000/svg">
  <g transform="matrix(1.0, 0.0, 0.0, 1.0, 100.0, 100.0)">
    <path d="M76.1 23.25 Q75.2 22.45 74.3 21.65 73.45 20.8 72.6 19.95 71.8 19.1 70.95 18.25 70.15 17.35 69.4 16.45 68.6 15.55 67.85 14.65 67.1 13.7 66.4 12.75 65.65 11.8 64.95 10.85 64.3 9.85 63.6 8.85 63.55 8.75 63.5 8.7 63.45 8.6 63.4 8.5 63.35 8.45 63.35 8.35 63.3 8.25 63.25 8.2 63.25 8.1 63.2 8.0 63.2 7.9 63.15 7.8 63.15 7.75 63.1 7.65 63.1 7.55 63.1 7.45 63.0 7.0 61.9 2.05 61.8 1.6 61.1 -1.5 60.65 -3.7 60.35 -5.1 60.0 -6.7 58.9 -12.75 58.8 -13.35 58.65 -14.0 58.55 -14.6 58.4 -15.25 58.25 -15.85 58.1 -16.45 57.95 -17.1 57.8 -17.7 57.65 -18.3 57.5 -18.95 57.3 -19.55 57.15 -20.15 56.95 -20.75 56.8 -21.4 56.6 -22.0 56.4 -22.6 56.05 -23.7 55.65 -24.85 55.3 -25.95 54.9 -27.05 54.5 -28.1 54.05 -29.25 53.65 -30.3 53.2 -31.4 52.75 -32.45 52.25 -33.55 51.8 -34.6 51.3 -35.7 50.8 -36.75 50.3 -37.8 49.8 -38.85 49.25 -39.9 48.75 -40.85 48.3 -41.8 47.8 -42.7 47.3 -43.65 46.75 -44.55 46.25 -45.45 45.7 -46.35 45.15 -47.25 44.6 -48.15 44.0 -49.0 43.45 -49.9 42.85 -50.75 42.25 -51.65 41.65 -52.5 41.0 -53.35 40.35 -54.15 39.85 -54.8 39.4 -55.4 38.9 -56.0 38.4 -56.6 37.9 -57.2 37.4 -57.75 36.85 -58.35 36.35 -58.9 35.8 -59.5 35.25 -60.05 34.7 -60.6 34.15 -61.1 33.55 -61.65 33.0 -62.15 32.4 -62.7 31.8 -63.2 31.15 -63.75 30.45 -64.25 29.8 -64.8 29.1 -65.3 28.4 -65.8 27.7 -66.25 26.95 -66.75 26.25 -67.2 25.5 -67.65 24.75 -68.05 24.0 -68.45 23.25 -68.85 22.5 -69.2 21.7 -69.55 20.9 -69.9 20.1 -70.25 19.7 -70.4 19.35 -70.55 18.95 -70.7 18.55 -70.8 18.15 -70.95 17.75 -71.1 17.35 -71.2 16.95 -71.35 16.55 -71.45 16.2 -71.55 15.75 -71.65 15.35 -71.75 14.95 -71.85 14.55 -71.95 14.15 -72.05 13.75 -72.1 13.45 -72.15 13.1 -72.2 12.8 -72.25 12.5 -72.3 12.15 -72.35 11.85 -72.4 11.55 -72.4 11.2 -72.45 10.9 -72.45 10.55 -72.5 10.25 -72.5 9.95 -72.5 9.6 -72.5 9.3 -72.5 8.95 -72.5 8.65 -72.5 8.1 -72.45 7.55 -72.45 6.95 -72.4 6.4 -72.35 5.85 -72.3 5.3 -72.2 4.75 -72.15 4.2 -72.05 3.65 -72.0 3.1 -71.9 2.55 -71.75 2.0 -71.65 1.45 -71.55 0.95 -71.4 0.4 -71.25 -0.15 -71.1 -0.3 -71.05 -0.45 -71.05 -0.65 -71.0 -0.8 -71.0 -0.95 -70.95 -1.1 -70.95 -1.25 -70.95 -1.4 -71.0 -1.55 -71.0 -1.7 -71.05 -1.85 -71.1 -2.0 -71.15 -2.15 -71.2 -2.3 -71.25 -2.45 -71.3 -2.6 -71.4 -2.9 -71.55 -3.2 -71.75 -3.5 -71.9 -3.8 -72.05 -4.1 -72.15 -4.4 -72.3 -4.7 -72.4 -5.05 -72.5 -5.35 -72.6 -5.65 -72.7 -6.0 -72.8 -6.3 -72.9 -6.65 -72.95 -7.0 -73.0 -7.3 -73.1 -7.65 -73.15 -9.5 -73.2 -10.3 -73.15 -10.65 -73.1 -11.05 -73.05 -11.4 -73.0 -11.75 -72.9 -12.1 -72.85 -12.45 -72.75 -12.85 -72.7 -13.2 -72.6 -13.55 -72.5 -13.9 -72.4 -14.25 -72.3 -14.6 -72.2 -14.95 -72.1 -15.3 -71.95 -15.65 -71.85 -16.0 -71.75 -16.65 -71.5 -17.3 -71.3 -17.9 -71.05 -18.55 -70.8 -19.2 -70.55 -19.8 -70.3 -20.45 -70.05 -21.05 -69.75 -21.7 -69.5 -22.3 -69.2 -22.95 -68.95 -23.55 -68.65 -24.15 -68.35 -24.8 -68.05 -25.4 -67.75 -26.0 -67.45 -26.55 -67.15 -27.05 -66.9 -27.6 -66.6 -28.1 -66.3 -28.6 -66.0 -29.15 -65.65 -29.65 -65.35 -30.15 -65.05 -30.65 -64.7 -31.15 -64.4 -31.65 -64.05 -32.15 -63.7 -32.6 -63.35 -33.1 -63.0 -33.6 -62.65 -34.05 -62.25 -34.55 -61.9 -35.0 -61.5 -35.45 -61.15 -35.95 -60.75 -36.4 -60.35 -36.85 -60.0 -37.35 -59.6 -37.8 -59.2 -38.25 -58.85 -38.7 -58.45 -39.15 -58.05 -39.6 -57.65 -40.05 -57.25 -40.5 -56.85 -40.95 -56.4 -41.4 -56.0 -41.85 -55.55 -42.35 -55.1 -42.8 -54.65 -43.25 -54.2 -43.7 -53.75 -44.15 -53.3 -44.6 -52.85 -45.0 -52.35 -45.45 -51.9 -45.85 -51.4 -46.3 -50.95 -46.7 -50.45 -47.1 -49.95 -47.55 -49.45 -47.95 -48.95 -48.35 -48.45 -51.05 -45.05 -53.15 -42.1 -53.45 -41.65 -53.75 -41.2 -54.05 -40.8 -54.35 -40.35 -54.65 -39.9 -54.9 -39.4 -55.2 -38.95 -55.45 -38.5 -55.7 -38.05 -55.95 -37.55 -56.2 -37.1 -56.4 -36.6 -56.65 -36.15 -56.85 -35.65 -57.05 -35.15 -57.25 -34.65 -57.85 -33.1 -59.25 -30.25 -59.35 -30.0 -59.5 -29.75 -59.6 -29.5 -59.7 -29.25 -59.8 -29.0 -59.95 -28.75 -60.05 -28.5 -60.15 -28.25 -60.25 -27.95 -60.35 -27.7 -60.4 -27.45 -60.5 -27.2 -60.6 -26.95 -60.7 -26.7 -60.75 -26.4 -60.85 -26.15 -60.9 -26.05 -60.9 -25.95 -60.95 -25.85 -61.0 -25.75 -61.0 -25.65 -61.05 -25.55 -61.1 -25.45 -61.1 -25.35 -61.15 -25.25 -61.2 -25.2 -61.25 -25.1 -61.3 -25.0 -61.35 -24.9 -61.4 -24.8 -61.4 -24.7 -61.45 -24.6 -61.65 -24.25 -61.8 -23.9 -62.0 -23.5 -62.15 -23.15 -62.3 -22.8 -62.45 -22.4 -62.6 -22.05 -62.75 -21.65 -62.9 -21.3 -63.0 -20.9 -63.15 -20.55 -63.3 -20.15 -63.4 -19.75 -63.55 -19.35 -63.65 -19.0 -63.75 -18.6 -64.0 -17.8 -64.25 -17.0 -64.45 -16.2 -64.7 -15.4 -64.9 -14.6 -65.15 -13.8 -65.35 -13.0 -65.55 -12.2 -65.75 -11.4 -65.95 -10.6 -66.15 -9.8 -66.35 -8.95 -66.55 -8.15 -66.75 -7.35 -66.9 -6.55 -67.1 -5.75 -68.85 2.15 -70.45 7.15 -70.65 7.75 -70.8 8.3 -71.0 8.9 -71.2 9.45 -71.4 10.05 -71.6 10.6 -71.8 11.2 -72.0 11.75 -72.2 12.35 -72.45 12.9 -72.65 13.5 -72.9 14.05 -73.15 14.6 -73.35 15.15 -73.65 15.75 -73.9 16.25 -74.25 17.0 -74.6 17.7 -75.0 18.45 -75.4 19.15 -75.8 19.85 -76.2 20.55 -76.65 21.25 -77.1 21.9 -77.55 22.6 -78.0 23.25 -78.5 23.9 -79.0 24.5 -79.5 25.15 -80.05 25.75 -80.6 26.35 -81.15 26.95 -81.3 27.15 -81.5 27.3 -81.65 27.45 -81.8 27.65 -82.0 27.8 -82.15 27.95 -82.35 28.1 -82.5 28.3 -82.7 28.45 -82.85 28.6 -83.05 28.75 -83.25 28.9 -83.45 29.05 -83.6 29.15 -83.8 29.3 -84.0 29.45 -86.0 30.75 -86.6 31.1 -86.8 31.25 -87.05 31.35 -87.25 31.5 -87.5 31.6 -87.7 31.7 -87.95 31.8 -88.15 31.95 -88.4 32.05 -88.6 32.15 -88.85 32.2 -89.1 32.3 -89.3 32.4 -89.55 32.5 -89.8 32.55 -90.05 32.65 -90.3 32.7 -90.35 32.7 -90.4 32.7 -90.45 32.75 -90.5 32.75 -90.5 32.75 -90.55 32.75 -90.6 32.8 -90.65 32.8 -90.7 32.8 -90.75 32.85 -90.85 32.9 -90.9 32.95 -91.0 33.0 -91.05 33.1 -91.1 33.15 -91.1 33.25 -91.15 33.3 -91.15 33.4 -91.15 33.5 -91.15 33.55 -91.15 33.65 -91.1 33.75 -91.1 33.85 -91.0 33.9 -90.95 34.0 -90.9 34.05 -90.85 34.1 -90.75 34.15 -90.55 34.25 -90.55 34.25 -90.55 34.25 -90.45 34.25 -90.4 34.25 -90.4 34.25 -90.35 34.3 -90.3 34.3 -90.25 34.3 -90.2 34.3 -90.15 34.35 -90.15 34.4 -90.1 34.4 -90.05 34.4 -90.0 34.4 -89.95 34.4 -89.95 34.4 -89.9 34.4 -89.85 34.4 -89.8 34.4 -89.75 34.4 -89.7 34.4 -89.65 34.4 -89.65 34.4 -89.6 34.45 -89.55 34.45 -89.5 34.5 -89.45 34.5 -89.4 34.5 -89.2 34.55 -89.15 34.55 -89.15 34.55 -89.1 34.55 -89.05 34.55 -89.05 34.55 -89.0 34.55 -89.0 34.55 -88.95 34.55 -88.9 34.55 -88.9 34.55 -88.85 34.55 -88.8 34.6 -88.8 34.6 -88.75 34.6 -88.7 34.65 -88.7 34.65 -88.65 34.65 -88.55 34.65 -88.55 34.65 -88.45 34.65 -88.4 34.65 -88.35 34.65 -88.3 34.65 -88.25 34.65 -88.2 34.65 -88.15 34.65 -88.1 34.65 -88.05 34.7 -88.0 34.7 -87.95 34.7 -87.9 34.7 -87.85 34.75 -87.8 34.75 -87.75 34.8 -87.7 34.75 -87.65 34.75 -87.6 34.75 -87.55 34.75 -87.55 34.8 -87.5 34.8 -86.75 34.8 -84.85 34.8 -84.8 34.8 -84.7 34.8 -84.65 34.75 -84.6 34.75 -84.6 34.75 -84.55 34.7 -84.5 34.7 -84.45 34.7 -84.4 34.7 -84.4 34.7 -84.35 34.65 -84.3 34.65 -84.25 34.65 -84.2 34.65 -84.15 34.65 -84.1 34.65 -84.1 34.65 -84.05 34.65 -84.0 34.65 -83.95 34.65 -83.95 34.65 -83.9 34.65 -83.85 34.65 -83.85 34.6 -83.8 34.6 -83.8 34.6 -83.75 34.55 -83.7 34.55 -83.7 34.55 -83.65 34.55 -83.6 34.55 -83.6 34.55 -83.55 34.55 -83.5 34.55 -83.5 34.55 -83.45 34.55 -83.4 34.55 -83.35 34.55 -83.35 34.55 -83.25 34.5 -83.2 34.45 -83.15 34.45 -83.15 34.45 -83.1 34.4 -83.05 34.4 -83.0 34.4 -82.95 34.4 -82.95 34.4 -82.9 34.4 -82.85 34.4 -82.8 34.4 -82.75 34.4 -82.75 34.4 -82.7 34.4 -82.65 34.35 -82.65 34.35 -82.6 34.3 -82.55 34.3 -82.5 34.3 -82.45 34.25 -82.45 34.25 -82.4 34.25 -82.35 34.25 -82.3 34.25 -82.25 34.2 -82.2 34.25 -82.15 34.2 -82.15 34.2 -82.1 34.15 -82.05 34.15 -82.05 34.15 -82.0 34.15 -81.95 34.15 -81.9 34.15 -81.85 34.15 -81.75 34.1 -81.75 34.05 -81.7 34.05 -81.65 34.0 -81.6 34.0 -81.55 34.0 -81.5 34.0 -81.45 34.0 -81.45 34.0 -81.4 34.0 -81.35 34.0 -81.35 33.95 -81.3 33.9 -81.25 33.9 -81.2 33.9 -81.15 33.85 -81.1 33.9 -81.1 33.9 -81.05 33.85 -81.05 33.85 -81.0 33.85 -80.95 33.8 -80.95 33.8 -80.9 33.75 -80.85 33.75 -80.85 33.75 -80.8 33.75 -80.75 33.75 -80.7 33.75 L-80.65 33.7 Q-80.65 33.65 -80.6 33.65 -80.55 33.65 -80.55 33.6 -80.5 33.6 -80.45 33.6 -80.4 33.55 -80.35 33.55 -80.3 33.55 -80.3 33.5 -80.25 33.5 -80.2 33.5 -80.15 33.45 -80.1 33.45 -80.05 33.45 -80.0 33.45 -80.0 33.4 -79.95 33.4 -79.9 33.35 -79.85 33.35 -79.85 33.35 -79.8 33.35 L-79.75 33.35 Q-79.7 33.3 -79.7 33.3 -79.65 33.25 -79.65 33.25 -79.6 33.2 -79.6 33.2 -79.55 33.2 -79.5 33.2 -79.5 33.15 -79.4 33.2 -79.35 33.15 -79.35 33.15 -79.3 33.1 -79.25 33.1 -79.2 33.05 -79.2 33.05 -79.15 33.0 -79.1 33.0 -79.05 32.95 -79.05 32.95 -78.65 32.7 -78.9 32.8 -78.8 32.75 -78.7 32.85 -78.7 32.9 -78.7 32.9 -78.65 32.95 -78.7 33.0 -78.7 33.05 -78.7 33.05 -78.75 33.1 -78.75 33.15 -78.8 33.2 -78.8 33.2 -78.8 33.25 -78.8 33.3 -78.8 33.35 -78.85 33.4 -78.85 33.45 -78.9 33.45 -78.9 33.5 -78.9 33.55 -78.9 33.55 -78.9 33.6 -78.9 33.6 -78.95 33.6 -78.95 33.6 -78.95 33.7 -78.95 33.75 -78.95 33.75 -79.1 34.0 -79.2 34.2 -79.35 34.45 -79.45 34.65 -79.6 34.9 -79.75 35.1 -79.9 35.35 -80.05 35.55 -80.2 35.75 -80.35 36.0 -80.5 36.2 -80.65 36.4 -80.85 36.6 -81.0 36.8 -81.2 37.0 -81.35 37.2 -81.5 37.35 -81.6 37.45 -81.75 37.6 -81.9 37.7 -82.05 37.8 -82.2 37.95 -82.35 38.05 -82.5 38.15 -82.65 38.25 -82.8 38.4 -82.95 38.5 -83.1 38.6 -83.25 38.7 -83.4 38.8 -83.6 38.85 -83.75 38.95 -83.85 39.0 -84.0 39.1 -84.15 39.15 -84.2 39.2 -84.3 39.25 -84.4 39.35 -84.45 39.4 -84.5 39.5 -84.55 39.6 -84.55 39.7 -84.6 39.75 -84.6 39.85 -84.6 39.95 -84.55 40.05 -84.55 40.15 -84.5 40.2 -84.45 40.3 -84.4 40.35 -84.3 40.45 -84.25 40.5 -84.2 40.55 -84.05 40.6 -83.95 40.65 -83.9 40.65 -83.35 40.65 -82.3 40.65 -82.25 40.65 -82.25 40.65 -82.2 40.6 -82.15 40.6 -82.1 40.6 -82.1 40.65 -82.05 40.6 -82.05 40.6 -82.0 40.6 -81.95 40.55 -81.9 40.55 -81.9 40.55 -81.85 40.55 -81.8 40.55 -81.75 40.55 -81.75 40.55 -81.7 40.55 -81.65 40.55 -81.6 40.55 -81.6 40.55 -81.55 40.55 -81.5 40.55 -81.45 40.55 -81.45 40.55 -81.4 40.5 -81.35 40.5 -81.3 40.5 -81.3 40.45 -81.25 40.45 -81.25 40.45 -81.2 40.4 -81.15 40.4 -81.15 40.4 -81.1 40.4 -81.1 40.4 -81.05 40.4 -81.0 40.4 -80.95 40.4 -80.95 40.4 -80.9 40.4 -80.9 40.4 -80.85 40.4 -80.8 40.4 -80.7 40.35 -80.65 40.3 -80.65 40.3 -80.6 40.3 -80.55 40.3 -80.5 40.25 -80.5 40.25 -80.45 40.25 -80.4 40.25 -80.35 40.25 -80.3 40.25 -80.25 40.2 -80.2 40.25 -80.15 40.2 -80.15 40.2 -80.1 40.15 -80.05 40.15 -80.05 40.15 -80.0 40.15 -79.95 40.15 -79.9 40.15 -79.85 40.15 -79.75 40.1 -79.7 40.05 -79.7 40.05 -79.65 40.0 -79.6 40.0 -79.55 40.0 -79.5 40.0 -79.45 40.0 -79.45 40.0 -79.4 40.0 -79.35 40.0 -79.3 39.95 -79.3 39.9 -79.25 39.9 -79.2 39.9 -79.15 39.9 -79.1 39.9 -79.05 39.9 -78.95 39.85 -78.9 39.8 -78.9 39.8 -78.85 39.75 -78.8 39.75 -78.75 39.75 -78.7 39.75 -78.65 39.75 -78.55 39.7 -78.55 39.65 -78.5 39.65 -78.45 39.6 -78.4 39.6 -78.35 39.6 -78.3 39.6 -78.25 39.55 -78.25 39.55 -78.2 39.5 -78.15 39.5 -78.1 39.5 -78.1 39.45 -78.05 39.45 -78.0 39.45 -77.95 39.45 -77.9 39.45 -77.85 39.4 -77.85 39.35 -77.8 39.35 -77.75 39.35 -77.7 39.35 -77.65 39.35 L-77.6 39.3 Q-77.6 39.25 -77.55 39.25 -77.5 39.2 -77.45 39.2 -77.4 39.2 -77.35 39.2 -77.25 39.15 -77.15 39.1 -77.05 39.05 -76.95 39.0 -76.85 38.9 -76.75 38.85 -76.65 38.8 -76.55 38.75 -76.45 38.7 -76.3 38.65 -76.2 38.6 -76.1 38.55 -76.0 38.5 -75.9 38.45 -75.8 38.4 -75.65 38.35 -75.65 38.3 -75.6 38.3 -75.55 38.25 -75.5 38.3 L-75.5 38.25 -75.45 38.25 Q-75.45 38.2 -75.4 38.2 -75.4 38.15 -75.35 38.15 -75.3 38.15 -75.25 38.15 -75.2 38.1 -75.2 38.1 -75.15 38.05 -75.15 38.05 -75.1 38.0 -75.1 38.0 -75.05 37.95 -75.0 37.95 -75.0 37.95 -74.95 37.9 -74.9 37.9 -74.9 37.9 -74.85 37.85 -74.8 37.85 -74.75 37.85 -74.75 37.85 -74.75 37.8 -74.7 37.8 -74.7 37.75 -74.65 37.75 -74.6 37.75 -74.6 37.75 L-74.55 37.7 -74.55 37.7 -74.5 37.65 -74.45 37.65 Q-74.0 37.35 -73.1 36.8 -73.1 36.75 -73.1 36.75 -73.05 36.7 -73.05 36.7 -73.0 36.7 -73.0 36.7 L-72.95 36.65 -72.95 36.65 -72.9 36.6 -72.85 36.6 Q-72.8 36.55 -72.8 36.5 -72.75 36.5 -72.75 36.45 -72.7 36.45 -72.65 36.4 -72.6 36.4 -72.55 36.4 -72.55 36.25 -72.45 36.3 L-72.45 36.25 -72.4 36.25 Q-72.4 36.15 -72.3 36.2 -72.3 36.15 -72.25 36.15 -72.25 36.1 -72.2 36.1 -72.2 36.05 -72.15 36.05 -72.15 36.0 -72.1 36.0 -72.1 35.95 -72.05 35.95 -72.05 35.95 -72.0 35.9 -72.0 35.9 -71.95 35.9 -71.9 35.85 -71.9 35.85 -71.9 35.75 -71.8 35.75 L-71.75 35.7 -71.75 35.7 Q-71.75 35.65 -71.65 35.65 L-71.65 35.6 -71.6 35.6 -71.55 35.55 -71.5 35.55 Q-71.45 35.5 -71.45 35.45 -71.4 35.45 -71.4 35.4 -71.35 35.35 -71.35 35.35 -71.3 35.3 -71.25 35.25 -71.25 35.25 -71.2 35.2 -71.15 35.15 -71.15 35.15 -71.1 35.1 -71.05 35.1 -71.0 35.05 -70.95 35.05 -70.95 34.95 -70.85 34.95 L-70.85 34.9 Q-70.8 34.8 -70.7 34.8 L-70.7 34.8 Q-70.7 34.65 -70.6 34.65 L-70.55 34.65 Q-70.55 34.55 -70.45 34.55 L-70.4 34.5 Q-70.45 34.4 -70.3 34.4 L-70.3 34.4 Q-70.3 34.35 -70.25 34.3 -70.25 34.3 -70.2 34.25 L-70.15 34.25 Q-70.15 34.15 -70.05 34.15 L-70.05 34.1 Q-70.05 34.05 -70.0 34.05 -69.95 34.0 -69.9 34.0 -69.85 33.95 -69.85 33.9 -69.8 33.85 -69.8 33.8 -69.75 33.75 -69.7 33.7 -69.7 33.7 -69.65 33.65 -69.6 33.6 -69.55 33.55 -69.5 33.5 -69.5 33.45 -69.45 33.45 -69.4 33.4 -69.35 33.35 -69.3 33.3 -69.35 33.25 -69.25 33.25 L-69.25 33.2 -69.2 33.2 Q-69.2 33.1 -69.1 33.1 -69.1 33.05 -69.05 33.05 -69.05 33.0 -69.05 32.95 -69.0 32.95 -69.0 32.9 -69.0 32.85 -68.95 32.85 -68.95 32.8 -68.9 32.8 -68.9 32.75 -68.85 32.75 -68.85 32.7 -68.8 32.7 -68.8 32.65 -68.75 32.65 L-68.75 32.6 -68.7 32.6 -68.7 32.55 -68.65 32.55 Q-68.65 32.5 -68.65 32.45 -68.65 32.45 -68.65 32.45 -68.6 32.4 -68.55 32.4 -67.9 31.4 -66.55 29.35 -66.55 29.3 -66.55 29.25 -66.55 29.2 -66.5 29.2 -66.5 29.15 -66.45 29.15 -66.4 29.15 -66.4 29.2 -66.35 29.2 -66.35 29.25 -66.35 29.3 -66.4 29.35 -66.4 29.4 -66.35 29.45 -66.35 29.45 -66.35 29.5 -66.35 29.55 -66.35 29.6 -66.35 29.6 -66.35 29.65 -66.35 29.7 -66.35 29.75 -66.35 29.75 -66.35 29.85 -66.35 29.9 -66.35 29.9 -66.35 29.95 -66.35 30.0 -66.45 31.9 -66.9 34.75 -66.9 34.85 -66.95 34.9 -66.95 35.0 -66.95 35.1 -66.95 35.1 -67.0 35.25 -67.0 35.4 -67.0 35.45 -67.05 35.55 -67.05 35.65 -67.05 35.7 -67.1 35.8 -67.1 35.9 -67.15 36.0 -67.15 36.05 -67.2 36.15 -67.2 36.25 -67.2 36.25 -67.2 36.25 -67.25 36.3 -67.25 36.35 -67.25 36.35 -67.25 36.4 -67.25 36.45 -67.25 36.45 -67.25 36.5 -67.25 36.55 -67.25 36.55 -67.25 36.6 -67.25 36.6 -67.25 36.65 -67.25 36.7 -67.25 36.7 -67.3 36.75 -67.3 36.8 -67.3 36.8 -67.25 36.9 -67.35 36.95 -67.35 37.0 -67.35 37.0 -67.35 37.05 -67.35 37.1 -67.35 37.15 -67.35 37.15 -67.35 37.2 -67.35 37.25 -67.35 37.25 -67.4 37.3 -67.4 37.35 -67.4 37.35 -67.4 37.4 -67.4 37.4 -67.45 37.45 -67.45 37.5 -67.45 37.55 -67.45 37.55 -67.45 37.6 -67.5 37.6 -67.5 37.65 -67.5 37.75 -67.5 37.8 -67.5 37.9 -67.5 37.95 -67.55 38.0 -67.55 38.1 -67.55 38.15 -67.6 38.2 -67.6 38.3 -67.6 38.35 -67.65 38.4 -67.65 38.5 -67.7 38.55 -67.7 38.6 -67.75 38.7 -67.65 38.75 -67.75 38.8 -67.75 38.85 -67.75 38.9 -67.75 38.95 -67.75 38.95 -67.75 39.0 -67.8 39.05 -67.8 39.1 -67.8 39.15 -67.85 39.2 -67.85 39.2 -67.8 39.3 -67.9 39.35 -67.9 39.4 -67.9 39.45 -67.9 39.5 -67.9 39.5 -67.9 39.55 -67.9 39.6 -67.9 39.65 -67.95 39.65 -67.95 39.7 -68.0 39.75 -67.95 39.8 -68.05 39.85 -68.05 39.9 -68.05 39.95 -68.05 39.95 -68.05 40.0 -68.05 40.05 -68.05 40.05 -68.05 40.1 -68.1 40.15 -68.05 40.2 -68.1 40.25 -68.1 40.3 -68.15 40.3 -68.15 40.35 -68.15 40.4 -68.15 40.45 -68.15 40.5 -68.15 40.55 -68.2 40.6 -68.2 40.65 -68.25 40.65 -68.25 40.7 -68.25 40.7 -68.25 40.75 -68.25 40.8 -68.25 40.8 -68.3 40.8 -68.3 40.85 -68.3 40.9 -68.3 40.95 -68.3 41.0 -68.3 41.05 -68.35 41.1 -68.35 41.15 -68.35 41.2 -68.4 41.25 -68.4 41.3 -68.4 41.35 -68.45 41.4 -68.45 41.45 -68.5 41.5 -68.5 41.55 -68.5 41.6 -68.5 41.7 -68.55 41.75 -68.55 41.8 -68.55 41.85 -68.55 41.9 -68.6 41.9 -68.6 41.95 -68.65 42.0 -68.6 42.1 -68.7 42.15 -68.7 42.2 -68.7 42.25 -68.7 42.3 -68.7 42.3 -68.75 42.35 -68.75 42.4 -68.75 42.5 -68.85 42.55 -68.85 42.6 -68.85 42.65 -68.85 42.7 -68.85 42.7 -68.85 42.75 -68.9 42.8 -68.85 42.9 -68.95 42.95 -68.95 43.0 -68.95 43.05 -68.95 43.1 -69.0 43.1 -69.0 43.15 -69.05 43.2 -69.0 43.3 -69.1 43.35 -69.1 43.4 -69.1 43.45 -69.1 43.5 -69.15 43.5 -69.15 43.55 -69.2 43.6 -69.15 43.7 -69.25 43.7 -69.25 43.75 -69.25 43.8 -69.25 43.8 -69.25 43.85 -69.25 43.9 -69.25 43.95 -69.25 43.95 -69.3 44.0 -69.3 44.05 -69.3 44.1 -69.3 44.1 -69.35 44.15 -69.35 44.2 -69.35 44.2 -69.4 44.25 -69.4 44.3 -69.6 44.85 -69.85 45.45 -70.05 46.0 -70.3 46.55 -70.55 47.1 -70.8 47.65 -71.0 48.2 -71.3 48.75 -71.55 49.3 -71.8 49.85 -72.1 50.4 -72.35 50.95 -72.65 51.45 -72.95 52.0 -73.25 52.55 -73.55 53.05 -73.7 53.3 -73.85 53.55 -74.0 53.8 -74.15 54.05 -74.3 54.25 -74.5 54.5 -74.65 54.75 -74.8 55.0 -74.95 55.2 -75.15 55.45 -75.3 55.65 -75.5 55.9 -75.65 56.1 -75.85 56.35 -76.05 56.55 -76.25 56.8 -76.4 57.0 -76.7 57.35 -77.05 57.8 -77.15 57.9 -77.65 58.55 -77.8 58.65 -77.85 58.75 -77.9 58.75 L-77.9 58.75 -77.95 58.8 Q-77.95 58.85 -78.05 58.85 L-78.05 58.9 -78.05 58.9 Q-78.05 58.95 -78.1 59.0 -78.1 59.0 -78.15 59.0 L-78.15 59.05 -78.2 59.05 Q-78.2 59.15 -78.3 59.15 L-78.3 59.15 -78.35 59.2 Q-78.35 59.25 -78.45 59.25 L-78.45 59.3 -78.45 59.3 Q-78.45 59.35 -78.5 59.4 -78.5 59.45 -78.55 59.45 -78.55 59.55 -78.55 59.6 -78.6 59.65 -78.55 59.75 -78.55 59.8 -78.55 59.85 -78.5 59.95 -78.5 60.0 -78.45 60.05 -78.45 60.1 -78.4 60.15 -78.35 60.2 -78.3 60.3 -78.25 60.35 -78.2 60.4 -78.15 60.45 -78.05 60.4 -78.05 60.5 L-78.0 60.5 Q-77.95 60.5 -77.9 60.5 -77.9 60.55 -77.85 60.55 -77.8 60.6 -77.8 60.65 L-77.75 60.65 Q-77.7 60.65 -77.65 60.65 -77.6 60.65 -77.6 60.65 -77.55 60.65 -77.5 60.65 -77.45 60.7 -77.4 60.7 -77.4 60.7 -77.35 60.75 -77.3 60.7 -77.25 60.75 -77.2 60.75 -77.15 60.75 -77.1 60.75 -77.05 60.75 -77.0 60.75 -76.95 60.75 -76.9 60.7 -76.85 60.75 -76.8 60.75 -76.75 60.7 -76.7 60.7 -76.65 60.7 -76.6 60.65 -76.55 60.65 -76.5 60.65 -76.45 60.65 -76.4 60.65 -76.35 60.65 -76.3 60.65 -76.25 60.65 -76.2 60.65 -76.15 60.65 -76.1 60.65 -76.05 60.65 -76.0 60.65 -75.95 60.6 -75.9 60.6 -75.9 60.6 -75.85 60.6 -75.8 60.6 -75.75 60.6 -75.75 60.55 -75.7 60.55 -75.65 60.55 -75.65 60.55 -75.6 60.55 -75.55 60.5 -75.55 60.5 -75.5 60.5 -75.45 60.5 -75.4 60.5 -75.4 60.5 -75.35 60.5 -75.3 60.5 -75.3 60.5 -75.25 60.5 -75.2 60.5 -75.15 60.5 -75.15 60.5 -75.1 60.5 -75.05 60.5 -75.0 60.5 -74.95 60.45 -74.95 60.45 -74.9 60.4 -74.85 60.4 -74.85 60.4 -74.8 60.4 -74.75 60.4 -74.7 60.4 -74.65 60.4 -74.45 60.35 -74.4 60.3 -74.4 60.3 -74.35 60.25 -74.3 60.25 -74.25 60.25 -74.15 60.25 L-74.05 60.25 Q-74.0 60.2 -74.0 60.2 -73.95 60.2 -73.95 60.15 -73.9 60.15 -73.9 60.15 -73.85 60.1 -73.8 60.1 -73.8 60.1 -73.75 60.1 -73.75 60.1 -73.7 60.1 -73.65 60.1 -73.65 60.1 -73.6 60.1 -73.6 60.15 -73.6 60.1 -73.55 60.1 -73.55 60.1 -73.5 60.1 -73.45 60.05 -73.45 60.05 -73.4 60.0 -73.35 60.0 -73.3 60.0 -73.3 60.0 -73.25 60.0 -73.2 60.0 -73.15 60.0 -73.1 60.0 -73.05 60.0 -73.05 59.95 -73.0 59.95 -72.95 59.95 -72.9 59.9 -72.9 59.9 -72.85 59.85 -72.8 59.85 -72.8 59.85 -72.75 59.85 -72.7 59.85 -72.65 59.85 -72.6 59.85 -72.55 59.85 -72.55 59.85 -72.45 59.85 -72.4 59.8 -72.4 59.8 -72.35 59.8 -72.35 59.8 -72.3 59.8 -72.3 59.85 -72.3 59.9 -72.3 59.95 -72.3 59.95 -72.3 60.0 -72.35 60.05 -72.35 60.1 -72.4 60.1 -72.4 60.15 -72.45 60.25 -72.45 60.3 -72.5 60.4 -72.55 60.5 -72.55 60.55 -72.6 60.65 -72.65 60.7 -72.7 60.8 -72.75 60.85 -72.8 60.9 -72.85 61.0 -72.9 61.05 -73.0 61.1 -73.05 61.2 -73.1 61.25 -73.15 61.3 -73.15 61.4 -73.25 61.4 L-73.25 61.45 -73.25 61.45 Q-73.3 61.55 -73.35 61.55 L-73.35 61.55 -73.4 61.55 Q-73.4 61.65 -73.5 61.65 L-73.55 61.7 Q-73.5 61.8 -73.65 61.8 L-73.65 61.85 -73.65 61.85 Q-73.7 61.95 -73.75 61.95 L-73.75 61.95 -73.8 61.95 Q-73.8 62.05 -73.9 62.05 -74.0 62.2 -74.05 62.2 -74.1 62.25 -74.15 62.3 -74.2 62.35 -74.25 62.4 -74.3 62.45 -74.3 62.5 -74.35 62.55 -74.35 62.6 -74.4 62.7 -74.4 62.75 -74.4 62.8 -74.4 62.85 -74.45 62.9 -74.45 63.0 -74.45 63.05 -74.4 63.1 -74.35 63.15 -74.35 63.15 -74.35 63.2 -74.35 63.25 -74.3 63.25 -74.3 63.3 L-74.3 63.35 Q-74.2 63.35 -74.2 63.45 L-74.2 63.45 -74.15 63.45 Q-74.15 63.45 -74.05 63.5 -74.0 63.5 -74.0 63.55 -73.95 63.6 -73.95 63.6 -73.9 63.65 -73.9 63.7 L-73.25 63.7 Q-73.2 63.65 -73.2 63.65 -73.15 63.6 -73.1 63.55 -73.05 63.55 -73.0 63.55 -73.0 63.5 -72.95 63.5 -72.9 63.5 -72.85 63.5 -72.8 63.5 -72.75 63.45 -72.7 63.45 -72.65 63.45 -72.6 63.45 -72.6 63.45 -72.35 63.4 -72.15 63.35 -71.95 63.25 -71.75 63.2 -71.5 63.15 -71.3 63.1 -71.1 63.0 -70.9 62.95 -70.7 62.85 -70.5 62.8 -70.25 62.7 -70.05 62.65 -69.85 62.55 -69.65 62.45 -69.45 62.35 -69.25 62.3 -69.05 62.2 -68.8 62.05 -68.6 61.95 -68.4 61.85 -68.15 61.7 -67.95 61.55 -67.75 61.45 -67.55 61.3 -67.35 61.15 -67.15 61.0 -67.0 60.85 -66.8 60.7 -66.6 60.55 -66.45 60.35 -66.25 60.2 -66.1 60.0 -65.95 59.85 -65.75 59.65 -65.6 59.5 -65.4 59.35 -65.25 59.2 -65.05 59.05 -64.85 58.9 -64.7 58.75 -64.5 58.6 -64.3 58.45 -64.1 58.3 -63.9 58.15 -63.7 58.05 -63.5 57.9 -63.3 57.8 -63.1 57.65 -62.75 57.45 -62.45 57.25 -62.1 57.0 -61.8 56.8 -61.45 56.55 -61.15 56.35 -60.85 56.1 -60.5 55.85 -60.2 55.6 -59.9 55.35 -59.6 55.1 -59.3 54.8 -59.05 54.55 -58.75 54.3 -58.45 54.05 -58.15 53.75 -58.1 53.7 -58.1 53.7 -58.05 53.65 -58.05 53.6 -58.0 53.6 -57.95 53.55 -57.9 53.5 -57.9 53.5 -57.85 53.5 -57.8 53.55 -57.75 53.6 -57.8 53.65 -57.85 53.75 -57.9 53.85 -57.95 53.95 -58.05 54.1 -58.05 54.15 -58.15 54.3 -58.35 54.75 -58.25 54.5 -58.3 54.65 -58.35 54.75 -58.4 54.85 -58.45 54.95 -58.5 55.05 -58.55 55.15 -58.6 55.3 -58.7 55.35 -58.9 55.65 -59.25 56.15 -59.6 56.75 -59.75 57.0 -59.75 57.0 -59.8 57.05 -59.8 57.05 -59.85 57.1 -59.85 57.15 -59.85 57.15 -59.9 57.2 -59.9 57.2 -59.9 57.25 -59.95 57.25 -59.95 57.3 -59.95 57.3 -60.0 57.35 -60.0 57.4 -60.0 57.4 -60.05 57.45 -60.1 57.5 -60.1 57.55 -60.1 57.6 -60.15 57.65 -60.15 57.7 -60.15 57.75 -60.15 57.8 -60.15 57.85 -60.15 57.9 -60.15 57.95 -60.15 58.0 -60.15 58.05 -60.1 58.1 -60.1 58.15 -60.05 58.2 -60.0 58.25 -59.95 58.3 -59.95 58.35 -59.9 58.4 -59.85 58.4 -59.8 58.45 -59.75 58.5 -59.7 58.5 -59.65 58.55 -59.6 58.55 -59.55 58.55 -59.5 58.6 -59.45 58.6 -59.4 58.6 -59.35 58.6 -59.25 58.6 -59.2 58.6 -59.1 58.6 -58.55 58.4 -58.2 58.3 -57.9 58.2 -57.6 58.1 -57.25 57.95 -56.95 57.8 -56.65 57.65 -56.35 57.5 -56.05 57.35 -55.75 57.15 -55.5 57.0 -55.2 56.8 -54.95 56.6 -54.65 56.4 -54.4 56.2 -54.1 55.95 -53.85 55.75 -53.55 55.5 -53.25 55.2 -52.95 54.9 -52.7 54.65 -52.4 54.35 -52.1 54.05 -51.85 53.75 -51.55 53.45 -51.3 53.15 -51.05 52.85 -50.75 52.55 -50.5 52.25 -50.25 51.95 -50.0 51.6 -49.75 51.3 -49.5 51.0 -49.2 50.6 -48.9 50.2 -48.6 49.8 -48.3 49.4 -48.05 48.95 -47.75 48.55 -47.5 48.1 -47.25 47.7 -47.0 47.25 -46.75 46.85 -46.5 46.4 -46.25 45.95 -46.05 45.5 -45.85 45.05 -45.6 44.6 -45.4 44.15 -45.4 44.1 -45.35 44.05 -45.35 44.0 -45.35 43.95 -45.3 43.9 -45.3 43.85 -45.3 43.8 -45.25 43.8 -45.25 43.75 -45.25 43.7 -45.2 43.65 -45.2 43.6 -45.15 43.55 -45.15 43.5 -45.15 43.45 -45.1 43.4 -45.1 43.4 -45.05 43.35 -45.05 43.35 -45.0 43.35 -44.95 43.35 -44.9 43.35 -44.85 43.35 -44.85 43.4 -44.7 43.75 -44.6 44.1 -44.35 44.75 -44.05 45.4 -43.8 46.1 -43.5 46.75 -43.2 47.4 -42.9 48.0 -42.6 48.65 -42.3 49.3 -41.95 49.95 -41.65 50.55 -41.3 51.2 -40.95 51.8 -40.6 52.4 -40.25 53.05 -39.85 53.65 -39.5 54.25 -39.3 54.6 -39.05 54.9 -38.85 55.2 -38.65 55.5 -38.4 55.85 -38.2 56.15 -37.95 56.45 -37.7 56.75 -37.45 57.05 -37.2 57.35 -36.95 57.6 -36.7 57.9 -36.45 58.2 -36.2 58.45 -35.95 58.75 -35.65 59.0 -35.5 59.15 -35.3 59.35 -35.15 59.5 -34.95 59.65 -34.8 59.8 -34.65 59.95 -34.45 60.1 -34.25 60.25 -34.1 60.4 -33.9 60.55 -33.7 60.7 -33.55 60.8 -33.35 60.95 -33.15 61.1 -32.95 61.2 -32.75 61.35 -32.35 61.6 -32.2 61.65 -32.1 61.7 -32.0 61.7 -31.9 61.75 -31.8 61.75 -31.7 61.75 -31.65 61.75 -31.55 61.75 -31.45 61.7 -31.4 61.65 -31.35 61.6 -31.25 61.55 -31.2 61.5 -31.15 61.45 -31.1 61.35 -31.0 61.25 -31.0 61.2 -31.0 61.15 -30.95 61.15 -30.95 61.1 -30.95 61.1 -30.95 61.05 -30.95 61.0 -30.9 61.0 -30.9 60.95 -30.9 60.95 -30.9 60.9 -30.9 60.85 -30.85 60.85 -30.85 60.8 -30.85 60.8 -30.8 60.8 -30.8 60.75 -30.6 60.85 -30.6 60.85 -30.45 60.95 -30.3 61.1 -30.2 61.2 -30.05 61.3 -29.9 61.4 -29.7 61.5 -29.55 61.6 -29.4 61.7 -29.25 61.75 -29.1 61.85 -28.95 61.95 -28.75 62.0 -28.6 62.1 -28.4 62.15 -28.25 62.2 -28.1 62.3 -27.95 62.35 -27.35 62.55 -26.9 62.7 -26.65 62.8 -26.6 62.8 -26.6 62.85 -26.55 62.85 -26.5 62.85 -26.45 62.85 -26.45 62.85 -26.4 62.9 -26.35 62.9 -26.3 62.9 -26.3 62.9 -26.25 62.9 -26.2 62.9 -26.15 62.9 -26.15 62.9 -26.1 62.9 -26.05 62.9 -25.95 62.9 -25.85 62.85 -25.75 62.8 -25.7 62.75 -25.6 62.75 -25.55 62.65 -25.5 62.6 -25.45 62.55 -25.4 62.45 -25.35 62.35 -25.35 62.3 -25.35 62.2 -25.3 62.1 -25.35 62.0 -25.35 61.9 -25.4 61.85 -25.4 61.8 -25.4 61.75 -25.45 61.7 -25.45 61.65 -25.45 61.6 -25.5 61.6 -25.5 61.55 -25.55 61.5 -25.55 61.45 -25.6 61.4 -25.85 60.95 -26.1 60.5 -26.35 60.05 -26.55 59.55 -26.75 59.1 -26.95 58.65 -27.15 58.15 -27.3 57.7 -27.5 57.2 -27.65 56.7 -27.8 56.2 -27.95 55.7 -28.1 55.25 -28.2 54.7 -28.3 54.25 -28.45 53.7 -28.55 53.15 -28.65 52.6 -28.75 52.05 -28.85 51.55 -28.9 51.0 -29.0 50.45 -29.05 49.9 -29.15 49.35 -29.2 48.8 -29.25 48.25 -29.3 47.7 -29.3 47.15 -29.35 46.6 -29.4 46.05 -29.4 45.5 -29.4 44.95 -29.4 44.75 -29.4 44.2 -29.4 44.2 -29.35 44.2 -29.3 44.15 -29.3 44.15 -29.25 44.15 -29.25 44.2 -29.2 44.2 -29.2 44.25 -29.15 44.25 -29.15 44.3 -29.1 44.3 -29.1 44.35 -29.1 44.4 -29.05 44.4 -29.05 44.45 -29.05 44.5 -29.0 44.5 -29.0 44.55 -29.0 44.6 -28.95 44.6 -28.85 44.75 -28.75 44.95 -28.65 45.1 -28.55 45.3 -28.45 45.45 -28.35 45.65 -28.25 45.8 -28.15 46.0 -28.05 46.15 -27.95 46.3 -27.85 46.5 -27.75 46.65 -27.6 46.8 -27.5 47.0 -27.4 47.15 -27.3 47.3 -27.0 47.7 -26.75 48.1 -26.45 48.45 -26.15 48.85 -25.85 49.2 -25.55 49.55 -25.25 49.95 -24.9 50.25 -24.6 50.6 -24.25 50.95 -23.9 51.3 -23.55 51.6 -23.2 51.9 -22.85 52.2 -22.45 52.5 -22.1 52.8 -21.85 53.0 -21.6 53.15 -21.35 53.3 -21.1 53.5 -20.85 53.65 -20.6 53.8 -20.35 53.95 -20.1 54.1 -19.85 54.25 -19.6 54.35 -19.35 54.5 -19.05 54.65 -18.8 54.75 -18.5 54.9 -18.25 55.0 -17.95 55.1 -17.9 55.1 -17.85 55.15 -17.75 55.15 -17.7 55.2 -17.65 55.2 -17.6 55.25 -17.55 55.25 -17.45 55.25 -17.4 55.3 -17.35 55.3 -17.25 55.3 -17.2 55.35 -17.15 55.35 -17.1 55.35 -17.0 55.35 -16.95 55.4 -16.9 55.4 -16.85 55.4 -16.85 55.4 -16.8 55.4 -16.75 55.4 -16.7 55.4 -16.7 55.4 -16.65 55.4 -16.6 55.4 -16.55 55.35 -16.55 55.35 -16.5 55.35 -16.45 55.35 -16.45 55.35 -16.4 55.3 -16.35 55.3 -16.3 55.25 -16.25 55.25 -16.2 55.2 -16.15 55.15 -16.1 55.1 -16.05 55.05 -16.0 55.0 -16.0 54.95 -15.95 54.85 -15.95 54.8 -15.95 54.75 -15.95 54.7 -15.95 54.6 -15.95 54.55 -15.95 54.5 -15.95 54.4 -16.05 54.25 -16.25 53.95 -16.35 53.8 -16.55 53.55 -16.75 53.25 -16.8 53.15 -16.85 53.1 -16.85 53.1 -16.85 53.05 -16.9 53.05 -16.9 53.05 -16.9 53.0 -16.95 53.0 -16.95 52.95 -16.95 52.9 -16.95 52.9 -16.95 52.85 -17.0 52.85 -17.0 52.8 -17.0 52.75 -17.0 52.75 -17.0 52.7 -16.9 52.7 -16.8 52.7 -16.7 52.7 -16.6 52.75 -16.5 52.75 -16.35 52.75 -16.3 52.8 -16.15 52.8 -16.05 52.8 -15.95 52.85 -15.85 52.85 -15.75 52.9 -15.7 52.9 -15.55 52.95 -15.5 52.95 -15.35 53.0 -15.1 53.05 -14.65 53.2 -14.1 53.35 -13.9 53.4 -13.85 53.4 -13.8 53.4 -13.75 53.4 -13.7 53.4 -13.65 53.45 -13.6 53.45 -13.6 53.45 -13.55 53.45 -13.5 53.45 -13.45 53.4 -13.4 53.4 -13.35 53.4 -13.3 53.4 -13.25 53.4 -13.2 53.4 -13.15 53.35 -13.05 53.35 -13.0 53.3 -12.95 53.25 -12.9 53.2 -12.8 53.15 -12.8 53.1 -12.75 53.05 -12.7 53.0 -12.65 52.95 -12.65 52.9 -12.65 52.8 -12.65 52.75 -12.6 52.7 -12.65 52.6 -12.65 52.5 -12.65 52.45 -12.65 52.4 -12.7 52.35 -12.7 52.3 -12.7 52.25 -12.75 52.2 -12.75 52.2 -12.75 52.15 -12.8 52.1 -12.8 52.05 -12.85 52.0 -12.85 51.95 -12.9 51.95 -12.9 51.9 -12.9 51.85 -12.95 51.8 -12.95 51.75 -12.95 51.7 -15.2 48.2 -16.55 46.05 -17.5 44.65 -17.75 44.25 -18.2 43.65 -18.85 42.75 -18.9 42.7 -18.95 42.65 -18.95 42.6 -19.0 42.6 -19.0 42.55 -19.05 42.5 -19.05 42.45 -19.1 42.45 -19.1 42.4 -19.15 42.35 -19.15 42.3 -19.15 42.25 -19.2 42.2 -19.2 42.2 -19.15 42.15 -19.15 42.1 -19.15 42.1 -19.1 42.05 -19.05 42.05 -19.05 42.05 -19.0 42.0 -18.8 42.0 -18.45 41.95 -18.0 41.9 -17.85 41.9 -16.65 41.8 -14.2 41.25 -12.95 40.95 -12.65 40.8 -12.65 40.8 -12.5 40.8 -12.45 40.85 -12.5 40.9 -12.5 40.95 -12.6 40.95 -12.65 41.0 -12.7 41.0 -12.7 41.05 -12.75 41.05 -12.8 41.1 -12.85 41.15 -12.9 41.15 -12.9 41.2 -12.95 41.25 -13.0 41.25 -13.0 41.3 -13.05 41.35 -13.1 41.35 -13.15 41.4 -13.15 41.45 -13.2 41.5 -13.25 41.6 -13.3 41.65 -13.35 41.75 -13.35 41.85 -13.35 41.95 -13.35 42.0 -13.35 42.1 -13.3 42.2 -13.3 42.3 -13.25 42.35 -13.2 42.45 -13.1 42.5 -13.05 42.55 -12.95 42.6 -12.85 42.65 -12.75 42.65 -12.7 42.65 -12.6 42.65 -12.55 42.65 -12.5 42.65 -12.4 42.7 -12.35 42.65 -12.3 42.65 -12.2 42.65 -12.15 42.65 -12.1 42.65 -12.0 42.65 -11.95 42.65 -11.9 42.65 -11.8 42.6 -11.75 42.6 -11.7 42.6 -11.1 42.45 -10.55 42.3 -10.0 42.15 -9.45 42.0 -8.9 41.8 -8.35 41.6 -7.85 41.4 -7.3 41.15 -6.8 40.9 -6.25 40.65 -5.75 40.4 -5.25 40.1 -4.75 39.8 -4.25 39.5 -3.8 39.2 -3.3 38.85 -3.25 38.8 -3.1 38.7 -3.0 38.6 -2.95 38.55 1.4 35.25 3.9 33.05 4.3 32.7 4.7 32.35 5.05 32.0 5.45 31.65 5.8 31.3 6.2 30.95 6.55 30.6 6.9 30.2 7.25 29.85 7.6 29.45 7.95 29.05 8.25 28.65 8.6 28.25 8.9 27.85 9.25 27.45 9.55 27.05 10.2 26.15 10.85 25.3 11.45 24.4 12.05 23.5 12.7 22.6 13.3 21.7 13.9 20.8 14.45 19.9 15.05 18.95 15.6 18.05 16.15 17.1 16.7 16.15 17.25 15.2 17.75 14.25 18.3 13.3 18.8 12.35 19.15 11.7 19.5 11.0 19.8 10.3 20.15 9.6 20.45 8.9 20.75 8.2 21.05 7.5 21.35 6.8 21.65 6.1 21.95 5.4 22.2 4.7 22.5 3.95 22.75 3.25 23.0 2.5 23.3 1.8 23.55 1.1 23.75 0.5 23.95 -0.05 24.15 -0.65 24.35 -1.25 24.55 -1.85 24.7 -2.4 24.9 -3.0 25.05 -3.6 25.25 -4.2 25.4 -4.8 25.55 -5.4 25.7 -5.95 25.85 -6.55 26.0 -7.15 26.15 -7.75 26.3 -8.35 26.5 -9.55 26.75 -10.65 26.75 -10.7 26.8 -10.75 26.8 -10.8 26.8 -10.8 26.85 -10.8 26.9 -10.8 26.9 -10.8 26.95 -10.8 26.95 -10.75 27.0 -10.75 27.0 -10.75 27.05 -10.7 27.05 -10.7 27.05 -10.65 27.1 -10.65 27.1 -10.65 27.1 -10.6 27.15 -10.6 26.45 -11.85 27.15 -10.55 27.25 -10.4 27.4 -10.1 27.55 -9.8 27.6 -9.65 30.0 -5.15 31.6 -1.6 31.9 -0.9 32.2 -0.25 32.45 0.45 32.75 1.15 33.0 1.85 33.25 2.55 33.5 3.25 33.7 3.95 33.95 4.65 34.15 5.4 34.35 6.1 34.55 6.8 34.75 7.55 34.95 8.25 35.1 8.95 35.3 9.7 35.95 12.6 36.15 14.2 36.2 14.45 36.2 14.65 36.25 14.85 36.25 15.1 36.3 15.3 36.3 15.5 36.35 15.75 36.35 15.95 36.4 16.2 36.4 16.4 36.45 16.6 36.45 16.85 36.45 17.05 36.45 17.3 36.5 17.5 36.5 17.7 36.55 18.75 36.6 21.0 36.6 21.1 36.65 21.3 36.65 21.5 36.7 21.6 36.7 21.65 36.7 21.7 36.75 21.8 36.75 21.85 36.8 21.9 36.85 21.95 36.85 22.0 36.9 22.0 36.95 22.05 37.0 22.1 37.05 22.1 37.1 22.15 37.15 22.2 37.2 22.2 37.25 22.2 37.35 22.25 37.4 22.25 37.5 22.25 37.55 22.25 37.6 22.25 37.65 22.25 37.7 22.25 37.8 22.25 37.85 22.2 37.9 22.2 37.95 22.15 38.0 22.15 38.05 22.1 38.1 22.05 38.15 22.0 38.2 22.0 38.25 21.9 38.3 21.85 38.45 21.55 38.55 21.4 38.65 21.2 38.75 21.05 38.8 20.85 38.9 20.7 39.0 20.5 39.05 20.35 39.15 20.15 39.25 20.0 39.3 19.8 39.35 19.65 39.45 19.45 39.5 19.3 39.6 19.1 39.65 18.95 39.75 18.75 39.9 18.35 40.0 18.0 40.15 17.65 40.25 17.3 40.4 16.9 40.5 16.55 40.65 16.2 40.75 15.8 40.85 15.45 40.95 15.1 41.05 14.7 41.15 14.35 41.25 13.95 41.3 13.6 41.4 13.2 41.45 12.8 41.5 12.7 41.55 12.25 41.55 12.15 41.6 11.95 41.65 11.75 41.65 11.65 41.65 11.6 41.7 11.55 41.7 11.5 41.75 11.45 41.75 11.4 41.8 11.35 41.8 11.35 41.85 11.3 41.85 11.25 41.9 11.25 41.9 11.2 41.95 11.2 41.95 11.2 42.0 11.2 42.0 11.2 42.0 11.2 42.05 11.2 42.05 11.25 42.1 11.25 42.1 11.3 42.15 11.3 42.15 11.35 42.15 11.35 42.2 11.4 42.2 11.45 42.2 11.45 42.2 11.5 42.2 11.55 42.2 11.55 42.2 11.6 42.2 11.65 42.25 11.65 42.3 11.9 42.35 12.2 42.4 12.45 42.45 12.75 42.45 13.0 42.5 13.3 42.55 13.55 42.6 13.85 42.65 14.1 42.65 14.4 42.7 14.65 42.75 14.9 42.8 15.2 42.8 15.45 42.85 15.75 42.9 16.0 43.2 18.4 43.4 24.45 43.45 25.95 43.45 27.65 43.55 30.5 43.3 34.35 43.3 34.6 43.3 34.85 43.25 35.15 43.25 35.4 43.25 35.65 43.2 35.9 43.2 36.15 43.2 36.4 43.15 36.7 43.15 36.95 43.1 37.2 43.1 37.45 43.05 37.7 43.05 37.95 43.0 38.2 43.0 38.45 42.9 39.1 42.85 39.75 42.75 40.4 42.65 41.05 42.55 41.7 42.4 42.35 42.3 43.0 42.15 43.6 42.0 44.25 41.85 44.9 41.7 45.55 41.55 46.15 41.4 46.8 41.2 47.4 41.0 48.05 40.8 48.65 40.7 49.0 40.55 49.35 40.45 49.7 40.3 50.05 40.2 50.4 40.05 50.7 39.9 51.05 39.75 51.4 39.6 51.75 39.45 52.05 39.3 52.4 39.15 52.75 39.0 53.05 38.85 53.4 38.65 53.7 38.5 54.05 38.25 54.45 38.0 54.9 37.75 55.3 37.5 55.7 37.2 56.1 36.95 56.5 36.65 56.85 36.35 57.25 36.05 57.6 35.75 58.0 35.4 58.35 35.1 58.7 34.75 59.05 34.4 59.4 34.05 59.7 33.7 60.05 33.65 60.05 33.65 60.1 33.6 60.1 33.6 60.15 33.55 60.15 33.5 60.2 33.5 60.2 33.45 60.25 33.45 60.25 33.4 60.3 33.4 60.3 33.35 60.35 33.3 60.35 33.3 60.4 33.25 60.4 33.25 60.45 33.15 60.55 33.1 60.65 33.05 60.75 33.05 60.8 33.0 60.9 33.0 61.0 33.0 61.1 33.0 61.15 33.0 61.25 33.05 61.35 33.1 61.4 33.15 61.5 33.25 61.55 33.3 61.65 33.4 61.7 33.5 61.75 33.55 61.8 33.6 61.8 33.65 61.8 33.75 61.85 33.8 61.85 33.85 61.9 33.9 61.9 33.95 61.9 34.0 61.95 34.05 61.95 34.1 61.95 34.2 61.95 34.25 61.95 34.3 61.95 34.35 62.0 34.4 62.0 34.5 62.0 34.6 62.0 34.7 62.0 34.85 62.0 34.95 62.0 35.05 61.95 35.15 61.95 35.25 61.95 35.35 61.9 35.45 61.9 35.55 61.9 35.65 61.85 35.75 61.85 35.85 61.8 35.95 61.8 36.05 61.75 37.15 61.5 39.5 60.6 39.5 60.6 40.9 60.05 40.95 60.05 41.0 60.05 41.05 60.1 41.05 60.15 41.05 60.2 41.05 60.25 41.0 60.3 41.0 60.35 40.95 60.4 40.95 60.4 40.95 60.45 40.9 60.5 40.9 60.55 40.9 60.6 40.9 60.65 40.9 60.7 40.9 60.75 40.9 60.8 40.9 60.85 40.9 60.9 40.9 60.95 40.9 61.0 40.9 61.05 40.95 61.15 40.95 61.2 41.0 61.25 41.0 61.3 41.05 61.35 41.1 61.4 41.15 61.45 41.2 61.45 41.25 61.5 41.3 61.55 41.35 61.55 41.4 61.55 41.45 61.6 41.55 61.6 41.6 61.6 41.65 61.6 41.7 61.6 41.75 61.6 41.8 61.6 41.85 61.6 41.9 61.6 41.95 61.6 41.95 61.6 42.0 61.6 42.05 61.6 42.1 61.55 42.15 61.55 42.2 61.55 42.25 61.55 42.3 61.5 42.35 61.5 42.45 61.45 42.5 61.45 42.55 61.45 42.65 61.4 42.7 61.35 42.8 61.35 42.85 61.3 42.95 61.3 43.0 61.25 43.05 61.25 43.15 61.2 43.2 61.15 43.3 61.1 43.35 61.1 43.4 61.05 43.5 61.0 44.0 60.7 44.5 60.35 45.0 60.05 45.45 59.7 45.9 59.35 46.35 59.0 46.8 58.65 47.25 58.25 47.65 57.85 48.1 57.45 48.5 57.05 48.85 56.6 49.25 56.2 49.6 55.7 50.0 55.25 50.35 54.75 50.45 54.6 50.55 54.5 50.6 54.35 50.7 54.2 50.8 54.1 50.85 53.95 50.95 53.8 51.05 53.7 51.1 53.55 51.2 53.4 51.25 53.25 51.35 53.1 51.45 53.0 51.5 52.85 51.6 52.7 51.65 52.55 52.0 51.9 52.8 50.3 52.9 50.15 53.25 49.5 53.25 49.5 53.25 49.5 53.3 49.5 53.3 49.5 53.3 49.6 53.3 49.95 53.3 50.25 53.3 50.4 53.25 50.9 53.2 51.35 53.1 51.8 53.05 52.25 52.95 52.7 52.85 53.15 52.75 53.6 52.65 54.05 52.55 54.5 52.4 54.95 52.25 55.4 52.1 55.8 51.95 56.25 51.75 56.65 51.6 57.1 51.35 57.5 51.3 57.65 51.25 57.75 51.15 57.9 51.1 58.0 51.05 58.15 50.95 58.25 50.9 58.35 50.8 58.5 50.75 58.6 50.65 58.75 50.6 58.85 50.5 58.95 50.45 59.1 50.35 59.2 50.3 59.35 50.2 59.45 50.2 59.5 50.15 59.5 50.15 59.55 50.1 59.55 50.1 59.6 50.05 59.65 50.05 59.65 50.05 59.7 50.0 59.7 50.0 59.75 49.95 59.8 49.95 59.8 49.95 59.85 49.9 59.9 49.9 59.9 49.9 59.95 49.85 60.05 49.85 60.1 49.8 60.2 49.8 60.25 49.8 60.35 49.8 60.4 49.8 60.5 49.85 60.55 49.85 60.65 49.9 60.7 49.95 60.75 50.0 60.8 50.05 60.9 50.1 60.95 50.2 61.0 50.25 61.0 50.3 61.0 50.35 61.05 50.35 61.05 50.4 61.1 50.45 61.1 50.5 61.1 50.55 61.1 50.55 61.15 50.6 61.15 50.65 61.15 50.7 61.15 50.75 61.15 50.8 61.15 50.8 61.15 50.85 61.15 50.9 61.15 51.1 61.15 51.25 61.15 51.45 61.15 51.6 61.1 51.8 61.1 51.95 61.1 52.15 61.05 52.3 61.0 52.45 61.0 52.65 60.95 52.8 60.9 52.95 60.85 53.15 60.8 53.3 60.75 53.45 60.65 53.6 60.6 53.85 60.45 54.1 60.35 54.35 60.2 54.6 60.05 54.8 59.95 55.05 59.8 55.3 59.65 55.5 59.5 55.75 59.35 56.0 59.2 56.2 59.05 56.45 58.85 56.65 58.7 56.85 58.55 57.1 58.35 57.3 58.2 57.5 58.05 57.65 57.9 57.85 57.7 58.0 57.55 58.2 57.4 58.35 57.2 58.5 57.05 58.7 56.85 58.85 56.65 59.0 56.5 59.15 56.3 59.3 56.1 59.45 55.9 59.6 55.7 59.7 55.5 59.85 55.3 59.9 55.25 59.95 55.15 60.0 55.1 60.05 55.05 60.1 54.95 60.15 54.9 60.2 54.85 60.25 54.75 60.3 54.7 60.35 54.65 60.4 54.6 60.45 54.55 60.5 54.45 60.55 54.4 60.65 54.35 60.7 54.3 60.75 54.25 60.8 54.25 60.8 54.25 60.85 54.25 60.9 54.25 60.9 54.3 60.95 54.3 60.95 54.35 61.0 54.6 61.05 54.85 61.1 55.15 61.1 55.4 61.15 55.65 61.15 55.9 61.15 56.15 61.15 56.4 61.15 56.65 61.15 56.9 61.1 57.15 61.05 57.4 61.0 57.65 60.95 57.9 60.85 58.15 60.75 58.4 60.75 58.45 60.75 58.5 60.7 58.5 60.7 58.55 60.7 58.6 60.7 58.65 60.65 58.7 60.65 58.7 60.65 58.75 60.65 58.8 60.6 58.9 60.6 59.0 60.6 59.1 60.65 59.2 60.65 59.3 60.7 59.4 60.75 59.45 60.8 59.55 60.85 59.6 60.95 59.65 61.05 59.7 61.15 59.75 61.2 59.75 61.35 59.8 61.45 59.8 61.55 59.75 61.6 59.75 61.65 59.75 61.65 59.75 61.7 59.75 61.75 59.7 61.8 59.7 61.8 59.7 61.85 59.65 61.9 59.65 61.95 59.65 61.95 59.6 62.0 59.6 62.05 59.55 62.05 59.55 62.1 59.5 62.15 59.5 62.25 59.4 62.45 59.2 62.6 58.95 62.7 58.85 62.9 58.6 63.05 58.35 63.25 58.1 63.4 57.85 63.55 57.55 63.7 57.3 63.85 57.05 64.0 56.75 64.1 56.45 64.2 56.2 64.3 55.9 64.4 55.6 64.5 55.3 64.6 55.0 64.65 54.7 64.75 54.4 64.8 54.1 64.85 53.8 64.9 53.55 64.95 53.25 64.95 52.95 65.0 52.65 65.0 52.35 65.0 52.05 65.05 51.75 65.05 51.45 65.0 51.2 65.0 50.9 65.0 50.6 65.0 50.3 64.95 50.0 64.9 49.7 64.8 48.9 64.7 48.05 64.6 47.25 64.45 46.4 64.35 45.6 64.2 44.8 64.05 44.0 63.85 43.15 63.7 42.35 63.5 41.55 63.35 40.75 63.15 39.95 62.95 39.15 62.7 38.35 62.5 37.55 62.3 36.75 59.8 28.1 59.55 27.3 58.9 25.25 58.6 24.45 58.5 24.35 58.6 24.3 58.65 24.3 58.7 24.3 58.7 24.3 58.75 24.3 59.3 24.65 59.45 24.8 60.1 25.3 60.8 25.75 61.5 26.2 62.2 26.6 62.9 27.05 63.6 27.4 64.35 27.8 65.05 28.15 65.8 28.5 66.55 28.85 67.3 29.15 68.05 29.45 68.85 29.75 69.6 30.0 70.4 30.25 71.2 30.45 71.45 30.5 71.7 30.6 71.95 30.65 72.25 30.7 72.5 30.75 72.75 30.8 73.0 30.85 73.25 30.9 73.55 30.95 73.8 31.0 74.05 31.05 74.3 31.05 74.6 31.1 74.85 31.1 75.1 31.15 75.4 31.15 75.5 31.15 75.55 31.15 75.65 31.15 75.75 31.15 75.8 31.15 75.9 31.15 75.95 31.15 76.05 31.15 76.15 31.15 76.2 31.15 76.3 31.15 76.4 31.15 76.45 31.1 76.55 31.1 76.65 31.1 76.7 31.05 76.75 31.05 76.85 31.0 76.9 31.0 76.95 31.0 77.0 30.95 77.05 30.95 77.1 30.9 77.15 30.9 77.2 30.85 77.25 30.8 77.3 30.75 77.35 30.7 77.35 30.65 77.4 30.6 77.4 30.55 77.45 30.45 77.45 30.4 77.45 30.3 77.45 30.25 77.45 30.2 77.45 30.15 77.4 30.1 77.4 30.05 77.35 30.0 77.35 29.95 77.3 29.9 77.25 29.85 77.2 29.8 77.2 29.75 77.15 29.7 77.1 29.65 77.0 29.65 76.7 29.4 75.85 28.85 75.8 28.8 75.75 28.8 75.7 28.75 75.65 28.75 75.6 28.7 75.55 28.65 75.5 28.65 75.45 28.6 75.4 28.55 75.35 28.55 75.3 28.5 75.25 28.45 75.25 28.4 75.2 28.35 75.15 28.3 75.1 28.25 75.15 28.25 75.55 28.25 75.6 28.25 75.8 28.3 75.9 28.3 76.0 28.35 76.2 28.4 76.4 28.4 76.65 28.45 76.85 28.45 77.05 28.45 77.25 28.45 77.5 28.45 77.7 28.45 77.9 28.45 78.1 28.45 78.35 28.45 78.55 28.45 78.75 28.4 78.95 28.35 79.15 28.35 79.4 28.3 79.45 28.3 79.55 28.25 79.6 28.25 79.7 28.25 79.75 28.2 79.8 28.2 79.9 28.15 79.95 28.15 80.0 28.1 80.1 28.1 80.15 28.05 80.2 28.0 80.3 28.0 80.35 27.95 80.4 27.9 80.45 27.85 L80.45 26.95 Q79.75 26.35 78.3 25.1 76.85 23.9 76.1 23.25 L76.1 23.25 M1.0 5.3 Q-0.5 10.5 -1.9 14.15 -2.3 15.25 -2.75 16.3 -3.2 17.4 -3.7 18.45 -4.15 19.5 -4.65 20.55 -5.15 21.55 -5.7 22.6 -6.25 23.6 -6.8 24.6 -7.35 25.65 -7.95 26.6 -8.55 27.6 -9.15 28.6 -9.8 29.55 -10.45 30.5 -10.55 30.65 -10.65 30.85 -10.8 31.0 -10.9 31.15 -11.0 31.3 -11.1 31.5 -11.25 31.65 -11.35 31.8 -11.45 31.95 -11.6 32.1 -11.7 32.25 -11.8 32.45 -11.95 32.6 -12.05 32.75 -12.2 32.9 -12.3 33.05 -12.6 33.4 -12.9 33.75 -13.15 34.05 -13.5 34.35 -13.8 34.7 -14.1 34.95 -14.45 35.25 -14.8 35.55 -15.15 35.8 -15.5 36.05 -15.85 36.3 -16.2 36.55 -16.6 36.75 -17.0 36.95 -17.4 37.15 -17.8 37.35 -18.85 37.8 -20.75 38.6 -20.95 38.65 -21.0 38.7 -21.05 38.75 -21.1 38.75 -21.15 38.75 -21.2 38.75 -21.25 38.75 -21.3 38.75 -21.35 38.75 -21.4 38.75 -21.45 38.75 -21.5 38.7 -21.55 38.65 -21.55 38.65 -21.6 38.6 -21.65 38.55 -21.7 38.5 -21.7 38.45 -21.85 38.25 -22.05 37.85 -23.35 35.5 -24.9 31.7 -25.25 30.9 -25.55 30.05 -25.9 29.25 -26.2 28.4 -26.55 27.6 -26.85 26.75 -27.15 25.95 -27.45 25.1 -27.75 24.25 -28.0 23.45 -28.3 22.6 -28.55 21.75 -28.85 20.9 -29.1 20.05 -29.35 19.2 -29.55 18.35 -29.7 17.9 -29.8 17.45 -29.9 17.0 -30.05 16.55 -30.15 16.1 -30.25 15.65 -30.35 15.2 -30.45 14.75 -30.55 14.3 -30.6 13.8 -30.7 13.35 -30.8 12.9 -30.85 12.45 -30.95 12.0 -31.0 11.55 -31.05 11.05 -31.1 10.95 -31.15 10.45 -31.15 10.4 -31.15 10.35 -31.15 10.25 -31.15 10.2 -31.1 10.15 -31.1 10.1 -31.05 10.05 -31.05 10.0 -31.0 9.95 -30.95 9.9 -30.9 9.85 -30.85 9.8 -30.8 9.75 -30.7 9.7 -30.65 9.7 -30.55 9.65 -30.5 9.65 -30.5 9.6 -30.45 9.6 -30.4 9.55 -30.35 9.55 -30.3 9.5 -30.3 9.5 -30.25 9.45 -30.2 9.45 -30.15 9.45 -29.4 9.1 -28.65 8.7 -27.95 8.35 -27.25 7.9 -26.55 7.5 -25.85 7.05 -25.15 6.6 -24.5 6.1 -23.85 5.65 -23.2 5.15 -22.55 4.65 -21.95 4.1 -21.3 3.55 -20.7 3.0 -20.1 2.45 -19.55 1.85 -19.1 1.4 -18.6 0.9 -18.15 0.45 -17.7 -0.05 -17.25 -0.5 -16.8 -1.0 -16.4 -1.5 -15.95 -2.0 -15.5 -2.45 -15.05 -2.95 -14.65 -3.45 -14.2 -3.95 -13.8 -4.45 -13.35 -5.0 -12.95 -5.45 -12.55 -6.0 -11.95 -6.7 -11.4 -7.45 -10.8 -8.15 -10.25 -8.9 -9.65 -9.65 -9.1 -10.4 -8.55 -11.1 -8.0 -11.85 -7.45 -12.6 -6.9 -13.35 -6.35 -14.1 -5.8 -14.85 -5.25 -15.6 -4.75 -16.4 -4.2 -17.15 -3.7 -17.9 -3.65 -17.95 -0.95 -22.15 -0.8 -22.35 -0.55 -22.7 -0.5 -22.75 -0.45 -22.7 -0.35 -22.7 -0.35 -22.65 -0.35 -22.55 -0.35 -22.1 -0.35 -21.75 -0.35 -21.55 -0.35 -19.1 -0.15 -13.05 -0.05 -10.1 0.25 -5.65 0.35 -4.55 0.5 -2.8 0.7 -0.4 0.7 0.05 0.75 0.5 0.8 1.15 0.85 2.2 0.9 2.3 0.95 3.45 1.05 4.0 1.05 4.1 1.1 4.15 1.1 4.25 1.1 4.35 1.1 4.45 1.1 4.5 1.1 4.6 1.1 4.65 1.1 4.75 1.1 4.85 1.1 4.9 1.05 5.0 1.05 5.1 1.05 5.15 1.0 5.25 1.0 5.3 L1.0 5.3 M15.55 2.5 Q15.5 2.95 15.4 3.45 15.35 3.95 15.2 4.45 15.1 5.0 14.95 5.55 14.8 6.05 14.65 6.6 14.5 7.1 14.35 7.6 14.2 8.05 14.0 8.45 13.85 8.9 13.7 9.2 13.55 9.5 13.4 9.7 13.4 9.3 13.45 9.15 13.9 6.55 14.4 2.1 15.0 -3.1 15.3 -5.05 15.35 -4.8 15.45 -4.45 15.5 -4.1 15.55 -3.7 15.6 -3.25 15.6 -2.75 15.65 -2.3 15.7 -1.75 15.7 -1.25 15.7 -0.7 15.7 -0.15 15.7 0.4 15.65 0.95 15.65 1.5 15.6 2.05 15.55 2.5 L15.55 2.5" fill="#070606" fill-rule="evenodd" stroke="none"/>
  </g>
</svg>
