<?xml version="1.0" encoding="UTF-8" standalone="no"?>
<svg xmlns:xlink="http://www.w3.org/1999/xlink" height="400.0px" width="400.0px" xmlns="http://www.w3.org/2000/svg">
  <g transform="matrix(1.0, 0.0, 0.0, 1.0, 200.0, 200.0)">
    <path d="M95.8 97.8 Q95.9 99.9 95.95 101.45 96.05 103.4 96.15 105.05 96.3 106.95 96.4 108.65 96.55 110.55 96.75 112.3 96.95 114.15 97.15 115.9 97.4 117.75 97.65 119.5 97.95 121.3 98.3 123.05 98.65 124.85 99.1 126.6 99.45 128.05 100.8 131.55 100.9 131.75 100.9 131.9 100.95 132.1 100.95 132.25 101.0 132.4 100.95 132.55 100.95 132.7 100.9 132.8 100.85 132.9 100.75 133.05 100.7 133.15 100.55 133.2 100.45 133.3 100.3 133.4 100.2 133.45 100.0 133.5 99.75 133.55 99.6 133.6 99.35 133.65 99.15 133.7 98.9 133.75 98.7 133.8 98.5 133.85 98.3 133.9 98.05 133.9 97.85 133.95 97.6 133.95 97.4 133.95 97.2 133.95 96.95 133.95 96.75 133.95 96.55 133.9 89.65 132.75 85.45 131.6 84.55 131.35 83.7 131.05 82.85 130.75 82.05 130.35 81.25 129.95 80.5 129.5 79.75 129.05 79.05 128.5 78.35 128.0 77.75 127.35 77.15 126.75 76.6 126.05 76.05 125.35 75.6 124.6 75.15 123.8 74.8 122.95 73.05 118.85 71.05 110.6 70.7 109.2 70.4 107.7 70.15 106.3 69.95 104.85 69.7 103.45 69.55 101.9 69.4 100.5 69.3 99.0 69.15 97.6 69.1 96.05 69.0 94.75 68.95 93.15 68.9 91.95 68.8 90.2 68.5 81.2 68.7 87.3 68.6 85.05 68.7 81.75 68.9 75.7 68.9 76.2 69.1 67.15 69.1 67.1 69.15 65.95 69.35 64.1 69.6 61.8 69.65 61.1 69.8 59.2 70.05 55.9 70.35 52.1 70.45 50.65 70.5 49.7 70.7 48.15 70.9 46.3 70.95 45.65 71.05 44.5 71.35 40.9 71.6 37.95 71.75 36.15 71.85 34.95 72.2 32.2 72.45 29.7 72.6 28.3 72.75 26.7 73.0 23.85 73.3 20.7 73.4 19.45 74.1 12.5 74.15 12.2 74.05 13.35 74.65 5.25 74.95 1.15 75.35 -1.65 75.5 -2.65 75.6 -3.7 75.7 -4.7 75.75 -5.75 75.75 -6.75 75.75 -7.8 75.7 -8.8 75.65 -9.85 75.6 -10.8 75.5 -11.9 75.4 -12.75 75.3 -13.9 75.25 -14.4 75.1 -15.95 74.95 -17.2 74.85 -17.95 74.9 -17.35 74.7 -19.35 74.65 -20.15 74.6 -20.7 74.5 -21.45 74.4 -22.1 74.3 -22.8 74.15 -23.45 74.05 -24.15 73.85 -24.8 73.65 -25.5 73.4 -26.1 73.15 -26.8 72.85 -27.4 72.5 -28.05 72.15 -28.65 71.7 -29.3 71.25 -29.85 70.8 -30.45 70.3 -30.95 69.8 -31.45 69.25 -31.95 68.7 -32.4 68.1 -32.8 67.55 -33.2 66.9 -33.55 66.3 -33.9 65.65 -34.2 65.0 -34.5 64.3 -34.75 63.6 -35.0 62.85 -35.15 62.05 -35.35 61.25 -35.55 60.45 -35.75 59.65 -35.9 58.9 -36.05 58.1 -36.2 57.3 -36.3 56.45 -36.4 55.65 -36.5 54.85 -36.6 54.05 -36.65 53.2 -36.7 52.4 -36.75 51.6 -36.8 50.75 -36.8 49.9 -36.8 49.5 -36.8 49.05 -36.75 48.65 -36.75 48.25 -36.7 47.85 -36.65 47.45 -36.6 47.1 -36.55 46.7 -36.45 46.3 -36.35 45.95 -36.25 45.55 -36.2 45.15 -36.05 44.8 -35.95 44.4 -35.85 44.05 -35.7 43.65 -35.6 43.55 -35.55 43.5 -35.55 43.4 -35.5 43.3 -35.45 43.2 -35.45 43.1 -35.4 43.0 -35.4 42.9 -35.35 42.8 -35.35 42.7 -35.35 42.6 -35.3 42.55 -35.35 42.45 -35.35 42.4 -35.35 42.3 -35.35 42.25 -35.4 41.95 -35.55 41.65 -35.65 41.4 -35.75 41.1 -35.75 40.85 -35.8 40.55 -35.8 40.3 -35.75 40.0 -35.7 39.75 -35.65 39.45 -35.6 39.35 -35.55 38.9 -35.45 38.6 -35.35 38.4 -35.3 38.1 -35.25 37.85 -35.2 37.75 -35.2 37.65 -35.15 37.55 -35.15 37.45 -35.1 37.15 -35.05 37.2 -35.1 37.1 -35.05 37.0 -35.05 36.9 -35.0 36.8 -35.0 36.7 -35.0 36.6 -35.0 36.5 -35.0 36.4 -35.0 36.3 -35.0 36.2 -35.05 35.25 -35.25 34.35 -35.35 33.45 -35.4 32.6 -35.3 31.75 -35.2 30.9 -35.0 30.1 -34.8 29.3 -34.45 28.55 -34.15 27.75 -33.75 27.05 -33.4 26.25 -32.9 25.6 -32.55 24.75 -32.0 24.45 -31.8 23.25 -31.05 22.25 -30.4 21.4 -29.65 20.6 -28.9 19.9 -28.1 19.25 -27.3 18.7 -26.4 18.15 -25.55 17.7 -24.55 17.3 -23.65 16.95 -22.65 16.65 -21.7 16.4 -20.6 16.15 -19.6 16.0 -18.5 15.8 -17.5 15.65 -16.3 15.45 -14.6 15.35 -12.85 15.25 -11.15 15.2 -9.4 15.2 -7.75 15.25 -5.95 15.25 -4.3 15.35 -2.5 15.45 -0.9 15.6 0.9 15.7 2.5 15.9 4.35 16.05 5.8 16.25 7.75 14.8 -6.3 16.6 11.2 17.05 15.4 18.25 25.8 19.35 35.1 19.85 40.4 20.1 43.3 20.2 47.7 20.3 54.9 20.3 55.0 21.45 93.55 22.0 110.15 22.15 114.3 22.45 120.65 22.9 130.25 22.95 131.15 22.95 132.1 23.0 132.3 23.05 132.5 23.1 132.7 23.15 132.9 23.15 133.1 23.15 133.25 23.1 133.45 23.1 133.6 23.0 133.75 22.95 133.9 22.85 134.0 22.75 134.15 22.65 134.25 22.5 134.35 22.35 134.4 22.2 134.45 22.0 134.5 21.85 134.5 21.7 134.5 21.55 134.5 21.4 134.5 21.25 134.45 21.05 134.4 20.9 134.4 20.75 134.3 20.6 134.25 20.45 134.2 20.3 134.1 20.15 134.05 20.0 133.95 19.9 133.85 19.75 133.75 19.65 133.65 18.8 132.75 18.0 131.75 17.25 130.8 16.55 129.8 15.9 128.8 15.3 127.7 14.7 126.65 14.15 125.55 13.65 124.5 13.2 123.35 12.75 122.25 12.3 121.05 11.9 119.95 11.55 118.7 11.2 117.6 10.85 116.35 10.85 116.3 10.8 116.2 10.8 116.15 10.75 116.1 10.75 116.0 10.7 115.95 10.65 115.9 10.6 115.8 10.55 115.75 10.5 115.7 10.45 115.6 10.4 115.55 10.3 115.5 10.25 115.4 10.15 115.35 10.05 115.3 10.1 118.05 10.05 118.85 10.05 119.1 10.05 119.35 10.05 119.55 10.0 119.8 10.0 120.05 10.0 120.3 10.0 120.5 10.0 120.75 10.0 121.0 9.95 121.25 9.95 121.45 9.95 121.7 9.9 121.95 9.9 122.15 9.9 122.4 9.85 122.65 9.8 123.3 9.8 124.0 9.75 124.65 9.8 125.3 9.8 125.95 9.85 126.6 9.9 127.3 10.0 127.95 10.05 128.6 10.2 129.25 10.3 129.9 10.45 130.55 10.6 131.15 10.8 131.8 10.95 132.45 11.2 133.1 11.3 133.35 11.3 133.6 11.3 133.8 11.2 134.05 11.15 134.3 11.05 134.5 10.9 134.7 10.75 134.9 10.55 135.05 10.3 135.2 10.1 135.35 9.85 135.4 9.6 135.5 9.3 135.5 9.0 135.5 8.75 135.45 8.1 135.3 7.45 135.15 6.8 135.0 6.15 134.85 5.5 134.7 4.85 134.5 4.25 134.35 3.6 134.2 2.95 134.0 2.3 133.85 1.65 133.65 1.05 133.45 0.4 133.25 -0.25 133.1 -0.85 132.9 -1.5 132.7 -1.65 132.65 -1.75 132.6 -1.9 132.5 -2.05 132.4 -2.15 132.3 -2.3 132.15 -2.4 132.05 -2.5 131.9 -2.65 131.75 -2.7 131.6 -2.8 131.45 -2.9 131.3 -2.95 131.15 -3.0 131.0 -3.05 130.85 -3.05 130.7 -3.1 130.2 -3.15 129.5 -3.0 131.05 -3.25 128.3 -3.35 127.55 -3.35 127.05 -3.4 126.4 -3.45 125.85 -3.45 125.2 -3.5 124.65 -3.5 124.0 -3.45 123.4 -3.45 122.8 -3.35 122.2 -3.3 121.55 -3.2 120.95 -2.8 118.7 -2.55 115.35 -2.1 108.65 -2.2 109.7 -2.15 109.35 -1.9 106.4 -1.7 104.35 -1.6 103.05 -1.15 94.4 -1.15 90.8 -0.95 76.1 -3.3 50.05 -6.35 55.65 -6.6 56.05 -6.7 56.2 -7.3 57.15 -7.7 57.85 -7.95 58.25 -8.35 58.85 -8.7 59.35 -9.05 59.95 -9.45 60.4 -9.85 60.95 -10.2 61.45 -10.65 61.95 -11.1 62.4 -11.55 62.9 -12.05 63.35 -12.55 63.8 -13.05 64.15 -13.5 64.5 -14.0 64.8 -14.5 65.1 -15.05 65.4 -15.5 65.65 -16.05 65.9 -16.55 66.1 -17.1 66.35 -17.6 66.55 -18.2 66.7 -18.7 66.9 -19.25 67.05 -19.8 67.25 -20.35 67.4 -20.85 67.55 -21.45 67.7 -21.5 67.7 -21.6 67.7 -21.7 67.7 -21.75 67.65 -21.85 67.65 -21.95 67.6 -22.05 67.55 -22.15 67.5 -22.2 67.5 -22.3 67.4 -22.35 67.35 -22.45 67.3 -22.5 67.25 -22.55 67.2 -22.6 67.15 -22.6 67.05 -22.6 67.0 -22.65 66.9 -22.65 66.8 -22.65 66.7 -22.65 66.65 -22.65 66.55 -22.65 66.45 -22.6 66.35 -22.6 66.25 -22.55 66.15 -22.5 66.05 -22.5 65.95 -22.45 65.9 -22.4 65.8 -22.35 65.75 -22.3 65.65 -21.85 65.1 -20.55 63.7 -19.4 62.5 -18.8 61.75 -18.05 60.75 -17.35 59.75 -16.65 58.75 -16.05 57.7 -15.45 56.65 -14.9 55.55 -14.35 54.45 -13.9 53.35 -13.45 52.25 -13.05 51.1 -12.65 49.95 -12.3 48.75 -12.0 47.6 -11.75 46.35 -11.5 45.15 -11.3 43.9 -11.0 42.15 -10.85 40.25 -10.7 38.5 -10.65 36.65 -10.6 34.9 -10.65 33.05 -10.7 31.3 -10.85 29.4 -10.95 27.75 -11.1 25.8 -11.25 24.25 -11.5 22.2 -11.55 21.6 -11.9 18.6 -12.15 16.4 -12.3 15.05 -12.55 12.75 -12.75 10.4 -12.95 8.05 -13.15 5.7 -13.3 3.4 -13.45 1.05 -13.55 -1.3 -13.7 -3.65 -13.8 -5.95 -13.85 -8.3 -13.9 -10.65 -13.95 -13.0 -14.0 -15.3 -14.05 -17.7 -14.05 -20.0 -14.05 -22.35 -14.05 -23.15 -14.0 -23.95 -13.95 -24.75 -13.9 -25.55 -13.85 -26.35 -13.75 -27.15 -13.65 -27.95 -13.55 -28.8 -13.45 -29.55 -13.3 -30.4 -13.2 -31.1 -13.05 -32.0 -12.9 -32.65 -12.75 -33.6 -12.0 -37.9 -12.45 -35.15 -12.35 -35.7 -12.2 -36.25 -12.05 -36.8 -11.85 -37.35 -11.65 -37.85 -11.4 -38.35 -11.15 -38.85 -10.85 -39.35 -10.55 -39.8 -10.2 -40.3 -9.9 -40.75 -9.55 -41.2 -9.2 -41.6 -8.8 -42.05 -8.45 -42.45 -8.05 -42.9 -6.75 -44.25 -5.4 -45.55 -4.05 -46.8 -2.6 -48.05 -1.2 -49.3 0.25 -50.45 1.65 -51.6 3.15 -52.75 4.65 -53.85 6.2 -54.9 7.7 -55.95 9.3 -57.0 10.85 -58.0 12.5 -58.95 14.1 -59.9 15.75 -60.8 16.5 -61.2 17.3 -61.5 18.05 -61.8 18.8 -62.0 19.55 -62.15 20.3 -62.25 21.05 -62.3 21.8 -62.3 22.5 -62.3 23.25 -62.2 24.0 -62.1 24.75 -61.95 25.45 -61.8 26.25 -61.6 26.95 -61.4 27.75 -61.15 28.05 -61.05 28.45 -60.9 28.7 -60.8 29.15 -60.6 29.6 -60.4 29.85 -60.3 30.2 -60.15 30.55 -60.05 30.9 -59.95 31.25 -59.85 31.65 -59.8 32.0 -59.75 32.35 -59.75 32.75 -59.8 33.15 -59.85 33.5 -59.95 33.7 -60.0 33.85 -60.1 34.05 -60.15 34.25 -60.25 34.4 -60.3 34.6 -60.4 34.75 -60.45 34.95 -60.55 35.1 -60.65 35.3 -60.75 35.45 -60.8 35.65 -60.9 35.8 -61.0 35.95 -61.15 36.1 -61.25 36.25 -61.35 36.55 -61.6 36.85 -61.8 37.2 -62.0 37.5 -62.2 37.8 -62.4 38.15 -62.55 38.45 -62.7 38.8 -62.8 39.15 -62.95 39.5 -63.05 39.85 -63.15 40.2 -63.2 40.55 -63.25 40.9 -63.3 41.3 -63.3 41.7 -63.3 42.55 -63.25 43.4 -63.35 44.2 -63.4 45.05 -63.55 45.85 -63.7 46.7 -63.9 47.45 -64.1 48.3 -64.4 49.0 -64.6 49.85 -64.95 50.5 -65.15 51.4 -65.55 52.9 -66.1 53.0 -66.15 53.9 -66.5 54.55 -66.75 55.1 -66.95 55.7 -67.15 56.25 -67.3 56.85 -67.5 57.4 -67.65 58.0 -67.8 58.6 -67.95 59.2 -68.1 59.75 -68.2 60.35 -68.35 60.95 -68.45 61.55 -68.6 62.1 -68.7 62.75 -68.8 63.3 -68.9 63.9 -69.05 64.2 -69.1 64.55 -69.1 64.9 -69.1 65.2 -69.1 65.5 -69.05 65.85 -68.95 66.15 -68.9 66.45 -68.8 66.75 -68.65 67.05 -68.5 67.35 -68.35 67.65 -68.2 67.9 -68.0 68.2 -67.8 68.45 -67.55 68.7 -67.3 69.0 -67.0 69.35 -66.75 69.65 -66.45 70.0 -66.25 70.3 -66.0 70.7 -65.8 71.05 -65.6 71.4 -65.4 71.75 -65.2 72.15 -65.0 72.5 -64.85 72.9 -64.7 73.25 -64.55 73.7 -64.35 73.9 -64.3 74.45 -64.05 75.45 -63.65 76.4 -63.2 77.3 -62.7 78.15 -62.15 79.0 -61.6 79.75 -60.95 80.55 -60.35 81.25 -59.65 81.95 -58.95 82.6 -58.15 83.25 -57.4 83.85 -56.55 84.45 -55.75 85.0 -54.85 85.5 -54.0 86.0 -53.05 86.65 -51.85 87.25 -50.6 87.8 -49.35 88.35 -48.1 88.9 -46.85 89.4 -45.6 89.9 -44.3 90.35 -43.05 90.8 -41.75 91.2 -40.45 91.6 -39.15 91.95 -37.85 92.3 -36.55 92.6 -35.2 92.9 -33.85 93.15 -32.5 93.45 -31.0 93.7 -29.75 93.95 -28.3 94.25 -27.0 94.55 -25.55 94.85 -24.25 95.15 -22.85 95.45 -21.55 95.8 -20.15 96.15 -18.85 96.55 -17.45 96.9 -16.15 97.3 -14.75 97.75 -13.45 98.2 -12.1 98.65 -10.75 99.3 -8.95 99.85 -7.1 100.35 -5.3 100.75 -3.4 101.15 -1.55 101.45 0.35 101.75 2.2 101.95 4.1 102.15 5.95 102.3 7.9 102.4 9.75 102.45 11.7 102.5 13.55 102.5 15.55 102.5 17.35 102.4 19.35 102.3 23.55 101.85 31.6 101.4 39.85 101.3 43.8 101.2 46.3 101.4 49.8 100.0 23.85 101.8 55.75 101.9 57.95 102.05 59.95 102.2 62.1 102.35 64.1 102.5 66.25 102.7 68.3 102.85 70.45 103.1 72.45 103.3 74.6 103.55 76.6 103.8 78.75 104.1 80.75 104.4 82.85 104.75 84.9 105.1 87.0 105.5 89.05 105.85 90.75 106.25 92.4 106.6 94.1 107.05 95.75 107.5 97.4 108.0 99.05 108.5 100.7 109.05 102.35 109.6 103.95 110.15 105.6 110.75 107.2 111.4 108.8 112.0 110.4 112.7 112.0 113.35 113.55 114.05 115.15 116.3 120.1 116.65 121.0 116.7 121.1 116.7 121.2 116.75 121.3 116.75 121.4 116.8 121.55 116.8 121.65 116.8 121.75 116.85 121.9 116.85 122.0 116.8 122.1 116.8 122.2 116.8 122.3 116.8 122.4 116.75 122.45 116.7 122.5 116.65 122.55 116.55 122.6 116.45 122.7 116.3 122.75 116.2 122.85 116.05 122.9 115.9 122.95 115.75 123.0 115.6 123.05 115.5 123.1 115.35 123.15 115.2 123.15 115.1 123.15 114.95 123.15 114.85 123.15 114.75 123.15 114.7 123.1 114.3 122.85 113.8 122.6 113.55 122.45 112.9 122.05 112.3 121.75 112.0 121.55 111.5 121.25 111.1 121.0 110.6 120.75 110.25 120.45 109.8 120.15 109.45 119.85 109.05 119.55 108.7 119.2 108.35 118.85 108.05 118.45 104.65 114.1 98.5 104.1 98.3 103.75 98.1 103.35 97.9 103.0 97.7 102.6 97.55 102.25 97.35 101.8 97.2 101.45 97.05 101.0 96.9 100.7 96.75 100.2 94.05 93.05 96.45 99.4 96.25 98.95 96.1 98.6 95.95 98.2 95.8 97.8 L95.8 97.8 M6.45 22.7 Q6.6 22.65 6.9 22.65 6.25 17.7 8.15 31.1 8.85 36.15 9.1 39.65 9.45 44.05 9.65 50.1 9.35 40.7 9.95 60.65 10.85 88.55 11.1 100.85 11.15 103.0 11.15 102.1 11.15 102.8 11.2 103.3 11.2 103.95 11.25 104.5 11.3 105.15 11.4 105.7 11.45 106.35 11.6 106.9 11.7 107.5 11.9 108.1 12.05 108.7 12.3 109.25 12.55 109.8 12.85 110.35 12.9 110.45 12.95 110.55 13.0 110.7 13.05 110.8 13.1 110.9 13.1 111.05 13.15 111.15 13.2 111.25 13.2 111.35 13.25 111.5 13.3 111.7 13.3 111.75 13.35 111.85 13.4 112.0 13.4 112.1 13.45 112.2 17.25 123.3 17.85 124.9 17.9 125.05 18.65 126.35 18.75 121.05 18.3 107.2 20.7 180.35 17.35 78.65 16.8 61.95 16.55 50.1 16.4 41.65 14.6 24.95 12.55 5.55 11.75 -7.25 11.65 -8.6 11.65 -9.9 11.6 -11.3 11.65 -12.6 11.7 -13.95 11.8 -15.25 11.9 -16.6 12.1 -17.85 12.3 -19.2 12.6 -20.5 12.85 -21.8 13.25 -23.05 13.6 -24.35 14.1 -25.6 14.6 -26.85 15.15 -28.1 17.65 -33.25 19.65 -36.8 22.2 -41.4 24.35 -44.5 24.65 -44.95 25.0 -45.35 25.3 -45.7 25.65 -46.0 25.95 -46.25 26.3 -46.45 26.65 -46.65 27.0 -46.75 27.4 -46.85 27.75 -46.85 28.15 -46.85 28.6 -46.8 29.0 -46.7 29.5 -46.55 29.95 -46.4 30.45 -46.15 30.7 -46.05 31.8 -45.5 32.6 -45.1 33.1 -44.85 33.85 -44.45 34.45 -44.15 35.1 -43.75 35.7 -43.4 36.35 -43.0 36.95 -42.6 37.55 -42.15 38.1 -41.7 38.7 -41.2 39.2 -40.65 39.75 -40.1 40.2 -39.5 40.2 -39.5 40.25 -39.45 40.25 -39.45 40.3 -39.45 40.35 -39.45 40.35 -39.4 40.4 -39.4 40.45 -39.4 40.45 -39.4 40.5 -39.35 40.55 -39.35 40.55 -39.35 40.6 -39.35 40.65 -39.35 40.65 -39.3 40.7 -39.3 40.65 -39.5 40.65 -39.7 40.6 -39.9 40.55 -40.05 40.5 -40.25 40.45 -40.45 40.4 -40.6 40.35 -40.8 40.3 -40.95 40.25 -41.1 40.15 -41.25 40.05 -41.4 40.0 -41.5 39.9 -41.65 39.75 -41.75 39.65 -41.85 35.4 -44.8 29.75 -48.25 29.5 -48.4 29.2 -48.55 28.9 -48.7 28.65 -48.75 28.35 -48.85 28.05 -48.9 27.75 -48.95 27.45 -48.95 27.15 -48.95 26.85 -48.95 26.55 -48.9 26.25 -48.8 25.95 -48.75 25.65 -48.65 25.35 -48.5 25.05 -48.35 25.0 -48.3 21.75 -46.85 22.4 -47.6 23.05 -48.2 23.7 -48.8 24.3 -49.25 24.95 -49.7 25.55 -49.95 26.2 -50.25 26.8 -50.4 27.45 -50.5 28.1 -50.45 28.75 -50.45 29.45 -50.25 30.1 -50.1 30.85 -49.75 31.55 -49.4 32.35 -48.9 33.8 -48.0 35.75 -46.45 39.8 -43.3 39.15 -43.75 38.9 -44.3 38.6 -44.8 38.35 -45.3 38.0 -45.75 37.65 -46.2 37.25 -46.65 36.9 -47.05 36.5 -47.45 36.1 -47.8 35.65 -48.2 35.3 -48.55 34.8 -48.95 34.5 -49.2 33.95 -49.65 33.3 -50.2 33.05 -50.35 32.65 -50.7 32.25 -50.95 31.8 -51.25 31.4 -51.5 31.0 -51.7 30.55 -51.9 30.1 -52.05 29.7 -52.15 29.2 -52.3 28.75 -52.3 28.3 -52.35 27.8 -52.35 27.35 -52.3 26.85 -52.2 26.3 -52.1 25.8 -51.9 24.85 -51.55 16.1 -48.7 16.7 -49.2 17.3 -49.7 17.95 -50.15 18.6 -50.55 19.2 -50.9 19.9 -51.25 20.5 -51.55 21.2 -51.85 21.8 -52.15 22.55 -52.4 23.1 -52.65 23.9 -52.95 29.1 -54.85 25.25 -53.4 26.0 -53.7 26.6 -53.95 27.15 -54.15 27.7 -54.3 28.25 -54.45 28.75 -54.5 29.3 -54.5 29.8 -54.5 30.3 -54.45 30.8 -54.35 31.25 -54.25 31.7 -54.05 32.2 -53.85 32.65 -53.6 33.1 -53.4 33.55 -53.05 33.95 -52.75 34.4 -52.4 34.45 -52.35 40.3 -47.1 40.6 -48.1 41.15 -49.05 41.7 -50.0 42.45 -50.9 43.15 -51.8 44.0 -52.55 44.85 -53.35 45.8 -53.95 46.75 -54.6 47.7 -55.1 48.7 -55.55 49.7 -55.85 50.7 -56.15 51.65 -56.2 52.6 -56.25 53.45 -56.05 53.15 -55.9 52.75 -55.75 52.5 -55.6 52.1 -55.45 51.3 -55.1 51.4 -55.1 51.0 -54.95 50.7 -54.8 50.3 -54.65 50.0 -54.5 49.65 -54.3 49.35 -54.1 49.0 -53.95 48.7 -53.75 48.35 -53.5 48.05 -53.3 47.75 -53.1 47.45 -52.8 47.2 -52.55 46.9 -52.3 46.65 -52.05 46.4 -51.75 46.15 -51.45 45.85 -51.15 45.65 -50.9 45.35 -50.55 45.15 -50.3 44.85 -49.95 44.45 -49.45 44.4 -49.35 44.1 -49.0 43.9 -48.75 43.5 -48.3 43.25 -47.7 43.0 -47.2 42.85 -46.6 42.75 -46.0 42.75 -45.4 42.75 -44.8 42.9 -44.15 43.05 -43.55 43.3 -43.0 43.55 -42.45 43.9 -41.95 44.3 -41.45 44.75 -41.05 45.25 -40.6 45.8 -40.3 47.45 -42.4 47.65 -42.55 52.3 -47.0 51.35 -46.1 53.5 -48.15 55.25 -49.5 55.7 -49.85 56.15 -50.1 56.6 -50.35 57.1 -50.55 57.55 -50.7 58.05 -50.8 58.55 -50.95 59.05 -50.95 59.55 -51.0 60.1 -50.95 60.6 -50.95 61.1 -50.85 61.65 -50.75 62.15 -50.6 62.7 -50.4 63.2 -50.2 63.9 -49.9 65.45 -49.15 66.85 -48.45 67.65 -48.15 68.3 -47.9 68.95 -47.55 69.55 -47.25 70.1 -46.85 70.7 -46.5 71.2 -46.05 71.7 -45.65 72.15 -45.15 72.6 -44.7 73.0 -44.15 73.35 -43.65 73.7 -43.05 74.05 -42.5 74.3 -41.85 74.55 -41.2 74.8 -40.55 75.65 -37.8 76.3 -35.0 77.0 -32.25 77.5 -29.45 78.0 -26.7 78.35 -23.85 78.7 -21.1 78.9 -18.25 79.1 -15.45 79.2 -12.6 79.3 -9.8 79.25 -6.9 79.25 -4.15 79.1 -1.25 78.95 1.55 78.75 4.45 78.35 9.8 77.3 19.3 76.2 29.8 75.8 34.2 73.55 60.5 72.45 76.9 72.35 78.45 72.3 79.95 72.2 81.5 72.2 83.0 72.15 84.55 72.2 86.05 72.2 87.6 72.25 89.1 72.35 90.65 72.45 92.15 72.55 93.7 72.75 95.2 72.9 96.75 73.15 98.25 73.35 99.75 73.65 101.25 74.35 105.1 75.6 110.65 78.4 122.7 77.8 120.0 77.9 120.55 78.1 121.05 78.3 121.5 78.55 121.95 78.8 122.35 79.15 122.75 79.45 123.1 79.8 123.5 80.15 123.8 80.55 124.15 80.95 124.45 81.4 124.8 81.75 125.05 82.25 125.4 82.05 125.3 83.15 126.05 83.15 125.7 83.15 125.25 83.15 124.95 83.2 124.5 83.15 125.0 83.2 123.8 83.2 123.35 83.2 123.05 83.2 122.65 83.2 122.35 83.25 121.95 83.2 121.65 83.2 121.3 83.2 120.95 83.15 120.6 83.1 120.3 82.8 117.95 82.05 112.75 81.3 107.85 81.0 105.2 80.75 102.9 80.55 99.6 80.2 92.4 80.3 93.95 80.4 93.95 80.7 93.9 80.75 94.1 81.6 97.5 82.15 99.7 82.4 101.15 82.95 104.3 83.95 110.7 84.9 117.05 85.45 120.2 85.7 121.7 85.6 120.95 85.65 121.4 85.7 121.7 85.8 122.1 85.9 122.45 85.95 122.85 86.05 123.2 86.15 123.6 86.25 123.95 86.4 124.35 86.55 124.65 86.65 125.0 86.85 125.35 87.0 125.65 87.2 125.95 87.6 126.55 88.05 127.05 88.5 127.5 89.05 127.9 89.55 128.3 90.1 128.6 90.7 128.9 91.3 129.15 91.9 129.35 92.55 129.55 93.15 129.7 93.85 129.8 94.5 129.9 95.2 129.95 95.9 130.0 96.65 130.05 95.35 126.2 95.3 125.8 94.8 123.45 94.35 121.1 93.95 118.75 93.6 116.35 93.25 114.0 93.0 111.65 92.75 109.3 92.6 106.9 92.4 104.55 92.3 102.15 92.2 99.75 92.2 97.35 92.2 95.0 92.25 92.6 92.3 90.2 92.45 87.8 92.45 87.5 92.5 87.15 92.55 86.85 92.6 86.45 92.6 86.35 92.65 85.75 92.7 85.35 92.75 85.1 92.8 84.75 92.8 84.45 92.85 84.05 92.85 83.75 92.85 83.4 92.85 83.1 92.85 82.75 92.8 82.45 92.55 80.75 92.4 79.05 92.25 77.4 92.2 75.65 92.1 74.0 92.1 72.25 92.05 70.6 92.1 68.85 92.15 67.2 92.25 65.45 92.35 63.8 92.45 62.1 92.6 60.45 92.75 58.7 92.9 57.05 93.1 55.3 93.1 55.35 93.15 55.35 93.15 55.4 93.15 55.45 93.2 55.5 93.2 55.5 93.2 55.55 93.2 55.6 93.25 55.65 93.25 55.65 93.25 55.7 93.25 55.75 93.25 55.8 93.25 55.8 93.25 55.85 93.25 55.9 93.2 55.2 93.7 66.7 94.0 73.2 94.3 77.55 94.35 78.2 94.45 79.35 94.55 80.7 94.6 81.15 94.65 82.2 94.75 83.0 94.85 83.95 94.95 84.8 95.1 85.75 95.25 86.6 95.4 87.5 95.65 88.35 95.9 89.25 96.15 90.1 96.5 91.0 96.85 91.8 100.8 100.6 101.0 101.1 101.45 102.1 101.95 103.15 102.4 104.15 102.95 105.15 103.5 106.1 104.1 107.05 104.65 107.95 105.3 108.95 105.85 109.8 106.55 110.75 107.15 111.6 107.85 112.6 108.45 113.4 109.2 114.35 109.7 115.0 110.55 116.15 110.55 116.15 110.6 116.2 110.6 116.2 110.6 116.2 110.65 116.2 110.65 116.25 110.7 116.25 110.7 116.25 110.7 116.25 110.8 116.3 110.85 116.3 110.9 116.35 110.95 116.35 111.0 116.4 111.05 116.45 111.1 116.45 110.6 115.5 110.45 115.2 109.85 113.95 109.3 112.7 108.75 111.45 108.2 110.2 107.7 108.95 107.2 107.65 106.7 106.35 106.25 105.1 105.8 103.8 105.35 102.5 104.95 101.2 104.55 99.85 104.15 98.55 103.75 97.25 103.4 95.9 103.1 94.55 102.7 92.9 102.3 91.15 101.95 89.5 101.6 87.75 101.3 86.05 101.0 84.3 100.75 82.65 100.5 80.85 100.25 79.2 100.05 77.4 99.85 75.75 99.65 73.95 99.45 72.3 99.3 70.5 99.15 68.85 99.0 67.0 98.85 65.1 98.7 63.35 98.55 61.45 98.4 59.7 98.3 57.8 98.2 56.0 98.05 54.15 98.0 52.35 97.9 50.45 97.9 48.65 97.85 46.8 97.85 45.0 97.85 43.15 97.9 41.35 97.95 39.45 98.0 37.65 98.0 37.6 98.0 37.55 98.0 37.45 98.0 37.4 98.05 37.35 98.05 37.3 98.05 37.2 98.05 37.15 98.05 37.1 98.05 37.05 98.05 36.95 98.05 36.9 98.05 36.85 98.05 36.8 98.05 36.75 98.05 36.65 95.9 14.75 95.65 11.5 95.4 8.7 95.15 6.05 94.9 3.25 94.6 0.6 94.3 -2.15 94.0 -4.85 93.65 -7.6 93.3 -10.25 92.95 -13.0 92.55 -15.7 92.1 -18.4 91.65 -21.1 91.2 -23.8 90.7 -26.5 90.2 -29.2 89.65 -31.85 89.35 -33.25 89.05 -34.6 88.7 -35.95 88.35 -37.3 88.0 -38.65 87.6 -39.95 87.15 -41.3 86.7 -42.6 86.25 -43.95 85.75 -45.2 85.2 -46.5 84.65 -47.75 84.05 -49.05 83.45 -50.25 82.8 -51.5 82.1 -52.75 81.75 -53.35 81.35 -53.9 81.0 -54.5 80.55 -55.05 80.15 -55.6 79.7 -56.1 79.25 -56.6 78.75 -57.1 78.25 -57.55 77.7 -58.0 77.15 -58.45 76.55 -58.85 75.95 -59.3 75.3 -59.65 74.65 -60.05 73.95 -60.4 74.75 -59.3 75.7 -57.9 68.45 -62.55 67.2 -63.3 66.75 -63.55 66.25 -63.75 65.8 -63.95 65.35 -64.15 64.85 -64.3 64.35 -64.4 63.9 -64.5 63.4 -64.55 62.9 -64.6 62.4 -64.65 61.9 -64.65 61.4 -64.6 60.85 -64.55 60.35 -64.5 59.8 -64.4 59.3 -64.25 58.3 -64.0 57.2 -63.65 56.3 -63.4 55.1 -62.95 55.1 -63.0 53.0 -62.25 51.75 -61.8 50.9 -61.55 49.75 -61.15 48.8 -60.9 47.7 -60.6 46.65 -60.4 45.55 -60.2 44.5 -60.1 43.35 -60.0 42.25 -60.05 42.15 -60.05 41.4 -59.9 40.9 -59.8 40.45 -59.7 39.95 -59.6 39.5 -59.5 39.05 -59.4 38.6 -59.25 38.1 -59.15 37.7 -59.0 37.2 -58.85 36.8 -58.65 36.35 -58.45 35.9 -58.25 35.5 -58.05 35.05 -57.8 34.65 -57.55 34.25 -57.25 35.05 -56.6 36.55 -55.3 28.45 -57.55 27.4 -57.75 26.5 -57.95 26.05 -58.05 25.3 -58.2 24.7 -58.3 24.0 -58.45 23.35 -58.5 22.65 -58.6 22.05 -58.6 21.35 -58.65 20.7 -58.55 20.0 -58.5 19.35 -58.35 18.7 -58.2 18.05 -57.95 17.4 -57.7 16.75 -57.3 15.25 -56.4 13.85 -55.55 12.35 -54.65 11.0 -53.75 9.55 -52.8 8.2 -51.85 6.75 -50.9 5.45 -49.9 4.05 -48.9 2.75 -47.85 1.4 -46.8 0.15 -45.7 -1.15 -44.6 -2.4 -43.45 -3.65 -42.3 -4.8 -41.1 -5.25 -40.6 -5.7 -40.1 -6.15 -39.6 -6.5 -39.1 -6.9 -38.6 -7.25 -38.05 -7.6 -37.5 -7.9 -36.95 -8.2 -36.4 -8.45 -35.8 -8.7 -35.25 -8.9 -34.65 -9.1 -34.0 -9.25 -33.4 -9.4 -32.75 -9.5 -32.1 -10.05 -27.4 -10.2 -24.25 -10.3 -21.1 -10.35 -17.85 -10.35 -14.7 -10.3 -11.45 -10.25 -8.35 -10.1 -5.1 -9.95 -2.0 -9.75 1.3 -9.6 4.35 -9.3 7.65 -9.05 10.7 -8.75 14.0 -8.45 17.05 -8.1 20.35 -7.8 23.35 -7.4 26.7 -7.25 28.1 -7.15 29.45 -7.0 30.8 -6.95 32.15 -6.9 33.55 -6.9 34.9 -6.9 36.25 -6.95 37.6 -7.0 38.95 -7.15 40.3 -7.25 41.65 -7.45 43.0 -7.65 44.35 -7.95 45.7 -8.2 47.05 -8.55 48.4 -9.0 50.1 -9.85 52.6 -11.5 57.2 -11.4 56.95 -10.6 55.7 -9.9 54.55 -9.15 53.3 -8.5 52.15 -7.85 50.9 -7.3 49.7 -6.7 48.45 -6.2 47.2 -5.7 45.9 -5.3 44.6 -4.9 43.25 -4.6 41.95 -4.3 40.55 -4.1 39.15 -3.9 37.7 -3.85 36.25 -2.85 37.65 -2.8 37.7 -2.65 38.2 -2.45 38.8 -2.25 39.25 -2.05 39.9 -1.5 41.35 -1.65 41.0 -1.4 41.65 -1.25 42.15 -1.05 42.75 -0.85 43.25 -0.7 43.85 -0.55 44.35 -0.4 44.95 -0.3 45.5 -0.15 46.05 -0.1 46.6 0.25 49.4 0.5 52.1 0.8 54.9 1.05 57.6 1.3 60.4 1.5 63.1 1.7 65.9 1.9 68.6 2.05 71.4 2.15 74.1 2.3 76.9 2.35 79.65 2.4 82.4 2.4 85.15 2.4 87.95 2.35 90.7 2.25 95.2 1.9 101.6 0.1 133.65 1.25 112.45 1.15 114.55 0.8 120.5 0.5 125.5 0.35 128.5 0.35 128.6 0.35 128.7 0.35 128.85 0.4 128.95 0.45 129.1 0.5 129.2 0.55 129.35 0.6 129.45 0.65 129.6 0.75 129.7 0.8 129.8 0.9 129.9 0.95 129.95 1.05 130.05 1.1 130.1 1.2 130.1 2.15 130.45 7.45 131.75 7.15 130.7 6.95 129.6 6.75 128.6 6.65 127.5 6.5 126.5 6.45 125.45 6.35 124.45 6.35 123.4 6.3 122.4 6.3 121.35 6.35 120.4 6.35 119.3 6.4 118.4 6.45 117.25 6.5 116.55 6.6 115.25 6.65 114.35 6.65 114.0 6.7 113.35 6.75 112.8 6.8 112.15 6.85 111.55 6.95 110.95 7.05 110.35 7.15 109.75 7.25 109.15 7.4 108.55 7.55 107.95 7.75 107.35 7.95 106.8 8.15 106.2 8.45 105.65 8.55 105.5 8.6 105.35 8.65 105.15 8.75 105.0 8.8 104.8 8.85 104.65 8.9 104.45 8.95 104.3 9.0 104.1 9.05 103.95 9.1 103.75 9.1 103.6 9.15 103.4 9.15 103.25 9.15 103.05 9.15 102.9 8.85 84.45 8.5 73.85 8.3 68.35 6.95 34.75 6.85 32.15 6.45 22.7 L6.45 22.7 M49.2 -40.6 Q49.65 -40.5 50.05 -40.5 50.5 -40.45 50.9 -40.4 51.3 -40.4 51.65 -40.4 52.0 -40.45 52.35 -40.5 52.7 -40.55 53.05 -40.65 53.35 -40.75 53.7 -40.9 54.0 -41.05 54.3 -41.25 54.65 -41.4 54.95 -41.65 55.45 -42.05 55.95 -42.4 56.5 -42.75 57.0 -43.05 57.55 -43.35 58.1 -43.6 58.65 -43.9 59.25 -44.1 59.8 -44.35 60.4 -44.55 61.0 -44.7 61.6 -44.9 62.2 -45.05 62.85 -45.15 63.45 -45.3 64.1 -45.4 64.9 -45.5 66.25 -45.7 65.3 -46.3 64.5 -46.75 63.65 -47.25 62.85 -47.55 62.1 -47.85 61.4 -48.05 60.7 -48.2 60.0 -48.2 59.35 -48.25 58.65 -48.1 58.0 -47.95 57.35 -47.7 56.7 -47.4 56.05 -47.0 55.35 -46.55 54.65 -46.0 53.5 -45.05 51.95 -43.45 49.05 -40.45 49.2 -40.6 L49.2 -40.6 M61.95 -39.25 Q62.0 -39.15 62.05 -38.95 66.3 -36.85 74.15 -32.95 72.5 -38.7 72.35 -39.2 72.35 -39.25 72.3 -39.35 72.25 -39.4 72.2 -39.45 72.15 -39.55 72.1 -39.6 72.05 -39.65 72.0 -39.7 71.95 -39.75 71.85 -39.8 71.8 -39.85 71.75 -39.9 71.65 -39.95 71.6 -39.95 71.55 -39.95 71.5 -39.95 69.2 -39.85 61.95 -39.25 L61.95 -39.25 M99.35 23.65 Q99.45 21.3 99.5 19.55 99.55 17.4 99.55 15.55 99.55 13.4 99.5 11.55 99.45 9.5 99.35 7.6 99.2 5.6 99.0 3.75 98.75 1.75 98.45 -0.1 98.1 -2.0 97.6 -3.85 97.1 -5.75 96.5 -7.55 97.4 2.45 99.35 23.65 L99.35 23.65 M56.2 -40.3 Q56.25 -40.1 56.35 -39.6 60.25 -40.45 60.65 -40.5 62.05 -40.75 71.45 -42.3 71.35 -42.4 71.2 -42.5 71.05 -42.6 70.9 -42.75 71.0 -42.7 70.65 -43.0 70.5 -43.1 70.4 -43.2 70.25 -43.35 70.15 -43.4 70.0 -43.5 69.85 -43.6 69.75 -43.7 69.6 -43.7 69.45 -43.75 69.3 -43.8 68.4 -43.85 67.55 -43.85 66.65 -43.85 65.8 -43.75 64.95 -43.7 64.1 -43.55 63.25 -43.4 62.45 -43.2 61.6 -43.0 60.8 -42.7 60.0 -42.45 59.25 -42.1 58.45 -41.7 57.7 -41.3 56.9 -40.85 56.2 -40.3 L56.2 -40.3 M36.45 -39.1 Q36.55 -39.25 36.7 -39.55 31.0 -42.95 30.85 -43.05 30.25 -43.4 29.8 -43.6 29.35 -43.8 28.95 -43.95 28.6 -44.05 28.25 -44.1 27.95 -44.1 27.65 -44.05 27.4 -43.95 27.15 -43.75 26.9 -43.6 26.6 -43.25 26.35 -42.95 26.05 -42.5 25.8 -42.15 25.4 -41.5 25.35 -41.45 25.3 -41.3 25.25 -41.05 25.25 -40.95 26.0 -41.05 26.7 -41.1 27.45 -41.2 28.15 -41.2 28.9 -41.25 29.6 -41.2 30.35 -41.15 31.05 -41.05 31.75 -40.95 32.4 -40.8 33.1 -40.65 33.8 -40.4 34.5 -40.15 35.15 -39.85 35.8 -39.5 36.45 -39.1 L36.45 -39.1 M31.1 -38.8 Q30.35 -39.0 29.65 -39.1 28.9 -39.2 28.25 -39.2 27.6 -39.25 26.95 -39.2 26.35 -39.15 25.8 -39.05 25.3 -38.95 24.85 -38.75 24.4 -38.6 24.05 -38.35 23.7 -38.15 23.5 -37.85 23.25 -37.6 23.15 -37.25 25.8 -37.8 31.1 -38.8 L31.1 -38.8" fill="#000000" fill-rule="evenodd" stroke="none"/>
    <path d="M49.2 -40.6 Q48.65 -40.05 51.95 -43.45 53.5 -45.05 54.65 -46.0 55.35 -46.6 56.05 -47.0 56.7 -47.45 57.35 -47.7 58.0 -48.0 58.65 -48.1 59.35 -48.25 60.0 -48.2 60.7 -48.2 61.4 -48.05 62.1 -47.85 62.9 -47.55 63.65 -47.25 64.5 -46.8 65.3 -46.35 66.25 -45.7 65.1 -45.55 64.1 -45.4 63.45 -45.3 62.85 -45.15 62.2 -45.05 61.6 -44.9 61.0 -44.7 60.4 -44.55 59.8 -44.35 59.25 -44.1 58.65 -43.9 58.1 -43.6 57.55 -43.35 57.0 -43.05 56.45 -42.75 55.95 -42.4 55.45 -42.05 54.95 -41.65 54.65 -41.4 54.35 -41.25 54.0 -41.05 53.7 -40.9 53.4 -40.75 53.05 -40.65 52.7 -40.55 52.35 -40.5 52.0 -40.45 51.65 -40.4 51.3 -40.4 50.9 -40.4 50.5 -40.45 50.05 -40.5 49.65 -40.55 49.2 -40.6 L49.2 -40.6" fill="#000000" fill-opacity="0.32156864" fill-rule="evenodd" stroke="none"/>
    <path d="M61.95 -39.25 Q68.4 -39.8 71.5 -39.95 71.55 -39.95 71.6 -39.95 71.65 -39.95 71.75 -39.9 71.8 -39.85 71.85 -39.8 71.95 -39.75 72.0 -39.7 72.05 -39.65 72.1 -39.6 72.15 -39.55 72.2 -39.45 72.25 -39.4 72.3 -39.35 72.35 -39.25 72.35 -39.2 72.7 -38.05 74.15 -32.95 70.05 -35.0 62.05 -38.95 62.05 -39.05 61.95 -39.25 L61.95 -39.25" fill="#000000" fill-opacity="0.32156864" fill-rule="evenodd" stroke="none"/>
    <path d="M56.2 -40.3 Q56.95 -40.85 57.7 -41.25 58.45 -41.7 59.25 -42.1 60.0 -42.45 60.8 -42.7 61.6 -43.0 62.45 -43.2 63.25 -43.4 64.1 -43.55 64.95 -43.7 65.8 -43.75 66.7 -43.8 67.55 -43.85 68.45 -43.85 69.3 -43.8 69.45 -43.8 69.6 -43.75 69.7 -43.7 69.85 -43.6 70.0 -43.55 70.15 -43.45 70.25 -43.35 70.4 -43.2 70.5 -43.1 70.65 -42.95 71.35 -42.35 70.9 -42.75 71.05 -42.6 71.2 -42.5 71.35 -42.35 71.45 -42.3 69.8 -42.0 65.95 -41.4 62.55 -40.85 60.65 -40.5 60.35 -40.45 56.35 -39.6 56.3 -39.85 56.2 -40.3 L56.2 -40.3" fill="#000000" fill-opacity="0.32156864" fill-rule="evenodd" stroke="none"/>
    <path d="M36.45 -39.1 Q35.8 -39.5 35.15 -39.85 34.5 -40.15 33.8 -40.4 33.1 -40.65 32.4 -40.8 31.75 -41.0 31.0 -41.05 30.35 -41.15 29.6 -41.2 28.9 -41.25 28.15 -41.2 27.45 -41.2 26.7 -41.1 26.0 -41.05 25.25 -40.95 25.35 -41.45 25.4 -41.5 25.8 -42.1 26.05 -42.5 26.35 -42.95 26.6 -43.25 26.9 -43.55 27.15 -43.75 27.4 -43.95 27.65 -44.05 27.95 -44.1 28.25 -44.1 28.6 -44.05 28.95 -43.95 29.35 -43.8 29.8 -43.6 30.25 -43.4 30.85 -43.05 31.2 -42.85 36.7 -39.55 36.65 -39.4 36.45 -39.1 L36.45 -39.1" fill="#000000" fill-opacity="0.32156864" fill-rule="evenodd" stroke="none"/>
    <path d="M31.1 -38.8 Q28.45 -38.3 23.15 -37.25 23.25 -37.6 23.5 -37.85 23.7 -38.15 24.05 -38.35 24.4 -38.6 24.85 -38.75 25.3 -38.95 25.8 -39.05 26.35 -39.15 26.95 -39.2 27.6 -39.25 28.25 -39.2 28.9 -39.2 29.65 -39.1 30.35 -39.0 31.1 -38.8 L31.1 -38.8" fill="#000000" fill-opacity="0.32156864" fill-rule="evenodd" stroke="none"/>
    <path d="M75.8 77.55 Q76.55 70.15 76.7 69.3 76.95 67.85 78.65 58.05 79.85 51.2 80.4 46.75 81.7 35.6 82.7 20.4 83.0 15.55 83.3 7.65 83.65 -2.4 83.8 -5.15 83.85 -6.7 84.15 -9.05 84.75 -13.85 84.7 -13.2 85.2 -12.35 85.65 -11.5 86.1 -10.7 86.5 -9.85 86.9 -9.0 87.25 -8.15 87.6 -7.3 87.9 -6.45 88.2 -5.65 88.5 -4.75 88.75 -3.9 88.95 -3.05 89.2 -2.2 89.35 -1.3 89.55 -0.45 89.7 0.45 90.05 2.5 90.3 4.65 90.5 6.7 90.7 8.85 90.85 10.9 90.9 13.05 91.0 15.1 91.05 17.3 91.05 19.3 91.05 21.5 91.05 23.45 91.0 25.75 90.95 27.55 90.9 29.95 90.9 29.85 90.75 34.2 90.7 36.85 90.25 40.55 108.2 -109.9 89.45 46.9 89.3 47.9 89.15 48.95 88.95 49.95 88.7 50.95 88.5 51.95 88.2 52.95 87.9 53.9 87.6 54.9 87.25 55.85 86.9 56.8 86.5 57.75 86.1 58.7 85.7 59.6 85.25 60.55 84.8 61.45 84.3 62.35 84.1 62.7 76.0 77.55 75.95 77.55 75.8 77.55 L75.8 77.55 M80.0 64.35 Q80.9 63.0 81.7 61.55 82.45 60.15 83.15 58.7 83.8 57.25 84.35 55.75 84.9 54.3 85.4 52.75 85.85 51.3 86.2 49.7 86.55 48.2 86.85 46.6 87.15 45.1 87.35 43.45 87.55 41.9 87.7 40.25 87.9 38.25 88.0 36.25 88.15 34.25 88.25 32.2 88.3 30.25 88.35 28.2 88.4 26.2 88.4 24.2 88.45 22.2 88.4 20.15 88.35 18.2 88.3 16.15 88.25 14.15 88.15 12.15 88.05 10.15 87.95 8.1 87.8 5.95 87.35 2.8 86.45 -3.2 86.55 -2.5 85.85 14.55 86.2 5.9 86.0 10.8 85.85 14.35 85.65 18.9 85.4 22.75 85.15 27.15 84.8 31.1 84.45 35.45 84.05 39.45 83.6 43.75 83.0 47.8 82.4 52.05 81.7 56.1 80.9 60.35 80.0 64.35 L80.0 64.35" fill="#000000" fill-rule="evenodd" stroke="none"/>
    <path d="M3.3 8.4 Q3.35 8.8 2.6 4.25 2.15 1.8 2.1 0.1 1.4 -14.65 1.4 -24.65 1.4 -25.25 1.4 -25.85 1.45 -26.45 1.5 -27.1 1.55 -27.7 1.6 -28.3 1.7 -28.9 1.75 -29.55 1.85 -30.15 1.95 -30.75 2.05 -31.35 2.2 -31.95 2.3 -32.55 2.45 -33.15 2.55 -33.75 2.7 -34.35 2.75 -34.65 2.85 -35.0 2.95 -35.3 3.1 -35.6 3.2 -35.95 3.35 -36.25 3.5 -36.55 3.65 -36.85 3.8 -37.15 4.0 -37.45 4.2 -37.7 4.4 -38.0 4.55 -38.25 4.8 -38.55 5.0 -38.8 5.2 -39.05 6.55 -40.55 8.7 -42.5 27.2 -59.5 12.35 -45.8 12.4 -45.85 12.5 -45.9 12.55 -45.95 12.6 -46.0 12.7 -46.05 12.75 -46.1 12.85 -46.1 12.95 -46.15 13.05 -46.15 13.1 -46.2 13.2 -46.2 13.3 -46.2 13.4 -46.2 13.55 -46.2 13.65 -46.2 13.75 -46.2 13.6 -46.0 13.4 -45.8 13.25 -45.6 13.05 -45.4 22.9 -57.45 12.7 -44.95 12.5 -44.7 12.35 -44.55 12.2 -44.3 12.0 -44.15 11.8 -43.9 11.65 -43.75 11.45 -43.55 11.25 -43.35 11.05 -43.15 10.85 -43.0 9.8 -42.2 8.9 -41.25 8.05 -40.4 7.3 -39.4 6.6 -38.45 6.0 -37.4 5.45 -36.35 5.0 -35.25 4.55 -34.2 4.25 -33.0 3.9 -31.9 3.7 -30.7 3.5 -29.5 3.4 -28.25 3.35 -27.05 3.35 -25.75 3.35 -19.55 3.55 -10.6 3.95 9.95 3.85 4.6 3.85 4.9 3.85 8.35 3.8 8.35 3.6 8.4 3.4 8.4 3.3 8.4 L3.3 8.4" fill="#000000" fill-rule="evenodd" stroke="none"/>
    <path d="M80.15 -47.65 Q81.2 -46.05 82.1 -44.3 82.9 -42.6 83.6 -40.8 84.25 -39.1 84.8 -37.3 85.25 -35.55 85.65 -33.65 86.0 -31.9 86.3 -30.0 86.55 -28.2 86.7 -26.25 86.85 -24.5 87.0 -22.5 87.1 -20.85 87.15 -18.7 86.6 -20.4 86.15 -22.3 85.7 -23.95 85.3 -25.9 85.0 -27.45 84.6 -29.6 85.7 -23.7 83.95 -33.25 83.55 -35.4 83.2 -36.9 82.8 -38.9 82.4 -40.55 81.95 -42.45 81.4 -44.1 80.85 -46.0 80.15 -47.65 L80.15 -47.65" fill="#000000" fill-rule="evenodd" stroke="none"/>
    <path d="M48.65 -58.3 Q47.95 -58.25 47.4 -58.15 46.75 -58.05 46.15 -57.95 45.55 -57.85 44.95 -57.7 44.35 -57.5 43.75 -57.3 43.2 -57.1 42.65 -56.85 42.05 -56.55 41.55 -56.25 41.0 -55.9 40.5 -55.5 39.95 -55.05 39.5 -54.55 39.55 -54.95 39.65 -55.35 39.75 -55.7 39.9 -56.05 40.0 -56.35 40.15 -56.6 40.35 -56.9 40.55 -57.1 40.75 -57.35 41.0 -57.55 41.2 -57.7 41.5 -57.85 41.8 -58.0 42.1 -58.1 42.4 -58.15 42.8 -58.2 43.45 -58.3 48.65 -58.7 48.65 -58.6 48.65 -58.3 L48.65 -58.3" fill="#000000" fill-rule="evenodd" stroke="none"/>
  </g>
</svg>
