<?xml version="1.0" encoding="UTF-8" standalone="no"?>
<svg xmlns:xlink="http://www.w3.org/1999/xlink" height="25.3px" width="101.2px" xmlns="http://www.w3.org/2000/svg">
  <g transform="matrix(1.0, 0.0, 0.0, 1.0, 49.05, 73.15)">
    <path d="M-49.05 -53.75 Q-48.35 -53.6 -47.6 -53.45 -46.85 -53.3 -46.15 -53.15 -45.4 -53.05 -44.65 -52.9 -43.85 -52.75 -43.1 -52.65 -42.3 -52.5 -41.55 -52.4 -40.75 -52.25 -39.95 -52.15 -39.1 -52.05 -38.3 -51.9 -37.5 -51.8 -36.65 -51.7 -35.95 -51.6 -35.25 -51.55 -34.55 -51.45 -33.85 -51.4 -33.15 -51.35 -32.45 -51.25 -31.8 -51.2 -31.1 -51.15 -30.45 -51.1 -29.8 -51.05 -29.1 -51.0 -28.45 -50.95 -27.8 -50.9 -27.15 -50.9 -26.55 -50.85 -25.9 -50.8 -28.1 -49.2 -32.5 -45.95 -38.1 -48.6 -49.05 -53.75 L-49.05 -53.75 M31.7 -48.15 Q31.5 -48.35 31.25 -48.5 31.0 -48.7 30.75 -48.9 30.45 -49.1 30.15 -49.3 29.85 -49.5 29.5 -49.7 29.15 -49.9 28.8 -50.1 28.4 -50.3 28.0 -50.5 27.6 -50.7 27.15 -50.85 26.7 -51.05 26.2 -51.2 25.85 -51.3 25.5 -51.4 25.2 -51.5 24.85 -51.6 24.5 -51.65 24.2 -51.75 23.9 -51.8 23.55 -51.85 23.3 -51.9 23.0 -51.9 22.7 -51.95 22.45 -52.0 22.15 -52.0 21.9 -52.0 21.65 -52.05 21.45 -52.05 22.3 -52.5 23.1 -53.0 24.0 -53.6 24.9 -54.2 25.85 -54.85 26.8 -55.6 27.8 -56.35 28.75 -57.2 29.8 -58.1 30.75 -59.05 31.8 -60.1 32.7 -61.15 33.7 -62.3 34.65 -63.55 35.6 -64.85 36.45 -66.2 36.7 -66.6 36.9 -66.95 37.15 -67.35 37.35 -67.75 37.55 -68.1 37.75 -68.5 37.95 -68.85 38.15 -69.25 38.3 -69.6 38.5 -70.0 38.65 -70.35 38.8 -70.7 39.0 -71.05 39.15 -71.45 39.3 -71.8 39.45 -72.15 39.95 -71.65 40.45 -71.15 41.0 -70.65 41.5 -70.15 42.0 -69.6 42.55 -69.1 43.05 -68.55 43.55 -68.05 44.1 -67.5 44.6 -66.95 45.1 -66.45 45.65 -65.9 46.15 -65.35 46.7 -64.75 47.2 -64.2 47.75 -63.65 49.8 -61.4 51.1 -59.9 50.75 -59.5 50.45 -59.1 50.05 -58.65 49.65 -58.2 49.2 -57.75 48.75 -57.3 48.25 -56.8 47.75 -56.3 47.2 -55.8 46.6 -55.35 46.0 -54.8 45.35 -54.3 44.7 -53.8 44.0 -53.35 43.25 -52.8 42.5 -52.35 41.7 -51.9 40.9 -51.45 40.15 -51.05 39.4 -50.65 38.65 -50.35 37.9 -50.0 37.2 -49.75 36.5 -49.45 35.8 -49.25 35.15 -49.0 34.5 -48.8 33.9 -48.65 33.3 -48.5 32.75 -48.35 32.2 -48.25 31.7 -48.15 L31.7 -48.15" fill="#bf6060" fill-rule="evenodd" stroke="none"/>
    <path d="M53.5 -48.2 Q53.75 -48.05 53.95 -47.95 54.2 -47.85 54.4 -47.8 54.65 -47.7 54.85 -47.65 55.1 -47.6 55.35 -47.6 55.55 -47.6 55.8 -47.65 56.0 -47.65 56.25 -47.75 56.45 -47.8 56.7 -47.95 56.95 -48.05 57.15 -48.25 56.8 -48.0 56.5 -47.8 56.25 -47.6 56.0 -47.5 55.75 -47.35 55.55 -47.3 55.3 -47.25 55.1 -47.2 54.9 -47.2 54.7 -47.25 54.5 -47.3 54.25 -47.35 54.05 -47.45 53.8 -47.6 53.55 -47.75 53.25 -47.95 53.35 -48.05 53.5 -48.2 L53.5 -48.2" fill="#0d0d0d" fill-rule="evenodd" stroke="none"/>
  </g>
</svg>
