<?xml version="1.0" encoding="UTF-8" standalone="no"?>
<svg xmlns:xlink="http://www.w3.org/1999/xlink" height="200.0px" width="250.0px" xmlns="http://www.w3.org/2000/svg">
  <g transform="matrix(1.0, 0.0, 0.0, 1.0, 150.0, 100.0)">
    <path d="M-99.65 -36.3 Q-99.0 -35.65 -98.55 -35.05 -98.1 -34.4 -97.9 -33.75 -97.65 -33.15 -97.7 -32.5 -97.7 -31.85 -97.95 -31.25 -98.15 -30.6 -98.65 -29.95 -99.1 -29.35 -99.8 -28.7 -100.45 -28.05 -101.4 -27.45 -102.3 -26.8 -103.45 -26.15 -104.05 -25.85 -104.5 -25.65 -105.0 -25.4 -105.4 -25.35 -105.8 -25.25 -106.1 -25.25 -106.4 -25.3 -106.65 -25.45 -106.85 -25.6 -106.95 -25.85 -107.05 -26.1 -107.1 -26.5 -107.15 -26.85 -107.05 -27.35 -107.0 -27.85 -106.85 -28.45 -106.65 -29.15 -106.4 -29.8 -106.15 -30.5 -105.85 -31.1 -105.55 -31.7 -105.15 -32.25 -104.75 -32.8 -104.3 -33.25 -103.85 -33.75 -103.35 -34.2 -102.85 -34.65 -102.25 -35.0 -101.65 -35.4 -101.0 -35.7 -100.35 -36.05 -99.65 -36.3 M-80.5 -29.65 Q-79.95 -28.5 -79.6 -27.4 -79.3 -26.35 -79.2 -25.35 -79.1 -24.3 -79.2 -23.4 -79.3 -22.45 -79.65 -21.6 -80.0 -20.75 -80.55 -19.95 -81.1 -19.15 -81.9 -18.45 -82.65 -17.75 -83.65 -17.1 -84.65 -16.45 -85.9 -15.85 -86.3 -15.7 -86.65 -15.6 -86.95 -15.5 -87.25 -15.45 -87.55 -15.45 -87.8 -15.5 -88.0 -15.55 -88.2 -15.7 -88.4 -15.8 -88.55 -16.05 -88.65 -16.25 -88.75 -16.5 -88.85 -16.8 -88.85 -17.15 -88.9 -17.5 -88.9 -17.95 -88.85 -19.1 -88.7 -20.1 -88.55 -21.15 -88.25 -22.1 -87.95 -23.0 -87.55 -23.85 -87.15 -24.65 -86.65 -25.4 -86.1 -26.15 -85.45 -26.75 -84.85 -27.4 -84.05 -27.9 -83.3 -28.45 -82.4 -28.85 -81.5 -29.3 -80.5 -29.65 M-39.25 -35.1 Q-37.7 -34.35 -36.45 -33.55 -35.25 -32.75 -34.35 -31.85 -33.45 -31.0 -32.9 -30.1 -32.4 -29.2 -32.15 -28.2 -31.95 -27.25 -32.1 -26.2 -32.2 -25.2 -32.7 -24.1 -33.15 -23.0 -33.95 -21.9 -34.75 -20.75 -35.9 -19.55 -36.05 -19.4 -36.2 -19.3 -36.35 -19.15 -36.55 -19.1 -36.7 -19.05 -36.85 -19.05 -37.0 -19.05 -37.2 -19.1 -37.35 -19.1 -37.5 -19.2 -37.65 -19.3 -37.85 -19.45 -38.0 -19.6 -38.15 -19.8 -38.35 -20.0 -38.5 -20.25 -39.25 -21.4 -39.85 -22.5 -40.45 -23.6 -40.85 -24.65 -41.25 -25.65 -41.45 -26.65 -41.7 -27.65 -41.75 -28.55 -41.8 -29.5 -41.65 -30.35 -41.5 -31.25 -41.2 -32.05 -40.9 -32.9 -40.4 -33.65 -39.9 -34.4 -39.25 -35.1 M-6.45 -34.15 Q-5.45 -33.6 -4.6 -33.05 -3.75 -32.5 -3.1 -31.9 -2.45 -31.3 -1.95 -30.65 -1.45 -30.0 -1.1 -29.35 -0.8 -28.7 -0.6 -27.95 -0.45 -27.25 -0.45 -26.55 -0.5 -25.8 -0.65 -25.0 -0.85 -24.25 -1.2 -23.45 -1.25 -23.35 -1.3 -23.25 -1.35 -23.2 -1.4 -23.1 -1.45 -23.05 -1.55 -23.05 -1.65 -23.0 -1.7 -23.0 -1.8 -23.0 -1.9 -23.0 -2.0 -23.0 -2.1 -23.05 -2.2 -23.1 -2.35 -23.15 -2.45 -23.25 -2.6 -23.35 -3.6 -24.1 -4.45 -24.8 -5.25 -25.5 -5.9 -26.2 -6.55 -26.95 -6.95 -27.6 -7.4 -28.3 -7.65 -29.0 -7.9 -29.65 -7.95 -30.3 -8.0 -31.0 -7.85 -31.65 -7.7 -32.3 -7.35 -32.9 -7.0 -33.55 -6.45 -34.15" fill="#662f2f" fill-rule="evenodd" stroke="none"/>
    <path d="M-71.45 -23.15 Q-70.85 -22.45 -70.45 -21.8 -70.05 -21.15 -69.8 -20.55 -69.6 -19.95 -69.5 -19.4 -69.45 -18.85 -69.55 -18.35 -69.65 -17.85 -69.95 -17.35 -70.25 -16.9 -70.7 -16.5 -71.15 -16.05 -71.75 -15.7 -72.4 -15.35 -73.2 -15.0 -73.3 -14.95 -73.4 -14.95 -73.5 -14.9 -73.6 -14.9 -73.7 -14.95 -73.75 -14.95 -73.85 -15.0 -73.9 -15.05 -74.0 -15.1 -74.05 -15.2 -74.1 -15.25 -74.15 -15.35 -74.2 -15.5 -74.25 -15.6 -74.25 -15.75 -74.3 -15.9 -74.4 -16.6 -74.45 -17.25 -74.5 -17.9 -74.5 -18.5 -74.45 -19.05 -74.35 -19.6 -74.25 -20.1 -74.05 -20.55 -73.9 -21.0 -73.65 -21.4 -73.4 -21.8 -73.05 -22.1 -72.75 -22.45 -72.35 -22.7 -71.95 -22.95 -71.45 -23.15" fill="#662f2f" fill-rule="evenodd" stroke="none"/>
    <path d="M4.95 -32.5 Q5.85 -32.3 6.55 -32.05 7.3 -31.8 7.85 -31.5 8.4 -31.15 8.8 -30.8 9.2 -30.4 9.45 -29.9 9.65 -29.45 9.75 -28.9 9.8 -28.4 9.7 -27.75 9.6 -27.15 9.35 -26.5 9.05 -25.8 8.65 -25.05 8.6 -24.95 8.5 -24.85 8.45 -24.8 8.4 -24.75 8.3 -24.7 8.25 -24.65 8.15 -24.65 8.05 -24.65 7.95 -24.65 7.9 -24.65 7.8 -24.7 7.7 -24.75 7.55 -24.8 7.45 -24.9 7.35 -24.95 7.25 -25.05 6.7 -25.55 6.25 -26.0 5.85 -26.5 5.5 -27.0 5.15 -27.45 4.9 -27.9 4.65 -28.4 4.5 -28.85 4.4 -29.35 4.35 -29.8 4.3 -30.25 4.35 -30.7 4.4 -31.15 4.55 -31.6 4.7 -32.05 4.95 -32.5" fill="#662f2f" fill-rule="evenodd" stroke="none"/>
  </g>
</svg>
