<?xml version="1.0" encoding="UTF-8" standalone="no"?>
<svg xmlns:xlink="http://www.w3.org/1999/xlink" height="150.65px" width="184.8px" xmlns="http://www.w3.org/2000/svg">
  <g transform="matrix(1.0, 0.0, 0.0, 1.0, 92.4, 75.3)">
    <path d="M-10.55 -67.3 Q-10.4 -67.25 -10.3 -67.25 -10.2 -67.25 -10.05 -67.3 -9.95 -67.3 -9.85 -67.35 -9.75 -67.4 -9.65 -67.45 -9.55 -67.5 -9.45 -67.55 -9.4 -67.6 -9.25 -67.7 -9.15 -67.8 -9.05 -67.85 -8.95 -67.9 -8.85 -67.95 -8.55 -68.15 -8.2 -68.35 -7.9 -68.55 -7.55 -68.75 -7.25 -68.9 -6.9 -69.05 -6.55 -69.25 -6.2 -69.4 -5.9 -69.55 -5.55 -69.7 -5.2 -69.85 -4.85 -69.95 -4.5 -70.1 -4.15 -70.2 -3.8 -70.35 -3.45 -70.45 -2.75 -70.65 -2.05 -70.85 -1.4 -71.0 -0.7 -71.1 0.0 -71.25 0.75 -71.3 1.45 -71.4 2.15 -71.4 2.85 -71.45 3.55 -71.45 4.25 -71.45 5.0 -71.4 5.7 -71.35 6.4 -71.25 7.1 -71.2 7.8 -71.05 7.8 -71.05 8.5 -70.95 8.9 -70.9 9.15 -70.85 9.5 -70.8 9.75 -70.75 10.05 -70.7 10.3 -70.6 10.55 -70.5 10.7 -70.4 10.85 -70.25 10.95 -70.1 11.05 -69.9 11.05 -69.65 11.05 -69.45 10.95 -69.15 10.9 -69.05 10.85 -69.0 10.8 -68.9 10.75 -68.85 10.7 -68.8 10.6 -68.8 10.55 -68.75 10.45 -68.75 10.4 -68.7 10.3 -68.7 10.25 -68.7 10.15 -68.7 10.05 -68.7 9.95 -68.7 9.9 -68.7 9.8 -68.7 9.0 -68.8 8.4 -68.9 7.65 -69.0 7.0 -69.1 6.25 -69.2 5.6 -69.25 4.85 -69.3 4.2 -69.35 3.45 -69.4 2.75 -69.35 2.05 -69.35 1.35 -69.3 0.65 -69.3 -0.05 -69.2 -0.75 -69.1 -1.45 -68.95 -3.4 -68.45 -5.3 -67.6 -7.1 -66.8 -8.85 -65.65 -10.55 -64.55 -12.2 -63.15 -13.75 -61.85 -15.25 -60.25 -16.65 -58.8 -18.05 -57.1 -19.3 -55.5 -20.55 -53.75 -21.65 -52.15 -22.75 -50.4 -23.7 -48.75 -24.6 -47.05 -25.95 -44.5 -27.15 -41.9 -28.3 -39.35 -29.3 -36.75 -30.25 -34.2 -31.05 -31.6 -31.85 -29.05 -32.5 -26.45 -33.1 -23.9 -33.6 -21.25 -34.1 -18.65 -34.45 -16.0 -34.8 -13.4 -35.05 -10.65 -35.3 -8.05 -35.45 -5.25 -35.75 -1.1 -35.8 3.0 -35.9 6.95 -35.8 10.9 -35.7 14.6 -35.45 18.4 -35.2 21.9 -34.8 25.6 -34.45 28.95 -34.0 32.55 -33.6 35.65 -33.05 39.3 -32.65 41.95 -32.0 45.85 -30.95 52.6 -31.0 52.3 -30.9 52.8 -30.8 53.2 -30.7 53.6 -30.6 53.95 -30.5 54.35 -30.35 54.65 -30.25 55.0 -30.1 55.3 -30.0 55.6 -29.85 55.85 -29.7 56.15 -29.5 56.4 -29.35 56.65 -29.1 56.95 -28.9 57.2 -28.7 57.45 -27.7 58.6 -28.2 58.0 -27.9 58.35 -27.75 58.55 -27.5 58.75 -27.3 58.9 -27.15 59.1 -27.0 59.15 -26.85 59.2 -26.8 59.1 -26.7 59.05 -26.7 58.8 -26.65 58.6 -26.75 58.15 -26.8 57.75 -26.95 57.15 -27.4 54.7 -27.8 52.1 -28.2 49.55 -28.55 46.95 -28.95 44.45 -29.25 41.9 -29.6 39.4 -29.9 36.9 -30.15 34.45 -30.4 32.05 -30.65 29.7 -30.9 27.45 -31.1 25.2 -31.25 23.1 -31.4 21.05 -31.5 19.15 -31.55 19.0 -31.55 18.85 -31.55 18.65 -31.6 18.5 -31.6 18.3 -31.6 18.15 -31.6 17.95 -31.6 17.8 -31.55 17.65 -31.55 17.5 -31.5 17.3 -31.45 17.15 -31.4 17.0 -31.35 16.9 -31.25 16.75 -31.15 16.6 -30.85 16.4 -30.6 16.35 -30.4 16.3 -30.2 16.35 -30.0 16.4 -29.85 16.55 -29.7 16.65 -29.6 16.85 -29.5 17.0 -29.4 17.25 -29.35 17.45 -29.3 17.7 -29.25 17.95 -29.2 18.2 -29.2 18.4 -29.15 18.6 -29.05 19.85 -28.75 22.45 -28.5 24.4 -28.2 27.05 -28.0 28.45 -27.65 31.85 -27.35 35.0 -27.1 36.75 -26.8 39.5 -26.5 41.7 -26.15 44.3 -25.75 46.5 -25.3 49.0 -24.75 51.15 -24.2 53.5 -23.5 55.45 -22.8 57.6 -21.95 59.35 -21.9 59.25 -21.85 59.15 -21.8 59.05 -21.8 58.95 -21.8 58.85 -21.8 58.8 -21.8 58.7 -21.8 58.6 -21.8 58.55 -21.85 58.45 -21.85 58.4 -21.9 58.3 -21.9 58.15 -21.95 58.1 -21.95 58.0 -21.95 57.9 -22.5 55.5 -23.0 52.75 -23.45 50.1 -23.8 47.15 -24.15 44.35 -24.4 41.3 -24.65 38.45 -24.8 35.4 -24.95 32.55 -25.05 29.65 -25.15 26.95 -25.15 24.2 -25.2 21.7 -25.2 19.3 -25.15 17.1 -25.1 15.1 -25.0 12.7 -24.85 10.25 -24.65 7.8 -24.45 5.35 -24.2 2.95 -23.95 0.55 -23.65 -1.85 -23.35 -4.25 -23.0 -6.65 -22.65 -9.0 -22.25 -11.35 -21.85 -13.65 -21.4 -15.95 -20.95 -18.25 -20.5 -20.5 -20.0 -22.7 -19.55 -24.65 -19.1 -26.6 -18.6 -28.55 -18.05 -30.45 -17.45 -32.4 -16.85 -34.3 -16.2 -36.2 -15.5 -38.1 -14.8 -40.0 -14.05 -41.8 -13.25 -43.7 -12.4 -45.5 -11.55 -47.3 -10.6 -49.05 -9.7 -50.85 -8.7 -52.6 -8.4 -53.15 -8.05 -53.7 -7.9 -53.9 -7.5 -54.65 -7.25 -55.15 -7.1 -55.35 -6.9 -55.7 -6.75 -55.9 -6.55 -56.15 -6.4 -56.25 -6.25 -56.35 -6.05 -56.4 -5.85 -56.4 -5.65 -56.35 -5.4 -56.3 -5.15 -56.1 -4.95 -55.95 -4.8 -55.75 -4.7 -55.55 -4.7 -55.35 -4.7 -55.15 -4.75 -54.95 -4.85 -54.75 -4.95 -54.55 -5.05 -54.35 -5.2 -54.1 -5.25 -54.0 -5.45 -53.7 -5.65 -53.45 -5.7 -53.35 -5.85 -53.15 -5.9 -53.0 -6.25 -52.45 -6.55 -51.9 -6.85 -51.35 -7.15 -50.8 -7.45 -50.25 -7.75 -49.75 -8.05 -49.15 -8.35 -48.6 -8.65 -48.05 -8.9 -47.5 -9.2 -46.95 -9.45 -46.4 -9.75 -45.8 -10.0 -45.25 -10.25 -44.7 -10.5 -44.1 -11.05 -42.85 -11.5 -41.65 -12.0 -40.35 -12.4 -39.1 -12.85 -37.85 -13.2 -36.55 -13.55 -35.25 -13.85 -33.95 -14.15 -32.65 -14.4 -31.35 -14.65 -30.05 -14.8 -28.7 -15.0 -27.4 -15.1 -26.05 -15.2 -24.75 -15.2 -23.4 -15.3 -22.7 -15.35 -22.05 -15.35 -21.5 -15.35 -21.0 -15.35 -20.55 -15.3 -20.2 -15.25 -19.9 -15.2 -19.65 -15.1 -19.45 -15.05 -19.35 -14.95 -19.25 -14.9 -19.25 -14.85 -19.25 -14.8 -19.35 -14.75 -19.5 -14.75 -19.65 -14.7 -20.8 -14.55 -21.95 -14.45 -23.05 -14.3 -24.2 -14.1 -25.3 -13.9 -26.45 -13.7 -27.55 -13.45 -28.7 -13.2 -29.75 -12.9 -30.95 -12.65 -32.0 -12.35 -33.15 -12.05 -34.15 -11.75 -35.35 -11.45 -36.3 -11.1 -37.55 -10.95 -38.0 -10.75 -38.65 -10.5 -39.4 -10.45 -39.55 -10.3 -40.05 -10.2 -40.35 -10.05 -40.7 -9.95 -40.95 -9.8 -41.2 -9.65 -41.35 -9.5 -41.55 -9.3 -41.6 -9.1 -41.7 -8.85 -41.65 -8.6 -41.65 -8.3 -41.55 -8.05 -41.45 -7.95 -41.2 -7.85 -41.0 -7.9 -40.6 -7.9 -40.3 -8.0 -39.85 -8.1 -39.45 -8.25 -38.95 -8.35 -38.55 -8.55 -38.05 -8.65 -37.8 -8.85 -37.2 -9.05 -36.75 -9.1 -36.5 -9.2 -36.2 -9.25 -36.05 -9.4 -35.6 -9.55 -35.15 -9.65 -34.7 -9.8 -34.25 -9.9 -33.8 -10.0 -33.35 -10.1 -32.85 -10.2 -32.4 -10.3 -31.95 -10.4 -31.5 -10.45 -31.0 -10.55 -30.55 -10.6 -30.1 -10.65 -29.6 -10.7 -29.15 -10.75 -28.65 -10.8 -27.7 -10.85 -26.75 -10.9 -25.8 -10.9 -24.85 -10.9 -23.9 -10.85 -22.95 -10.8 -22.0 -10.75 -21.05 -10.65 -20.15 -10.55 -19.2 -10.45 -18.25 -10.3 -17.3 -10.2 -16.4 -10.05 -15.45 -9.85 -14.5 -9.7 -13.55 -9.5 -12.9 -9.4 -12.25 -9.35 -11.9 -9.25 -11.3 -9.15 -10.85 -9.1 -10.65 -9.05 -10.4 -8.95 -10.3 -8.85 -10.15 -8.65 -10.1 -8.5 -10.05 -8.15 -10.05 -8.0 -10.05 -7.35 -10.05 -6.7 -10.05 -6.15 -10.05 -5.6 -10.05 -4.95 -10.05 -5.45 -10.05 -4.0 -10.05 -3.55 -10.05 -3.35 -10.05 -3.05 -10.05 -2.85 -10.1 -2.65 -10.15 -2.6 -10.3 -2.5 -10.4 -2.45 -10.6 -2.45 -10.8 -2.5 -11.1 -2.5 -11.35 -2.65 -11.8 -2.8 -12.9 -2.95 -14.0 -3.1 -15.1 -3.2 -16.25 -3.3 -17.3 -3.4 -18.5 -3.45 -19.55 -3.55 -20.7 -3.6 -21.7 -3.65 -22.95 -3.7 -23.8 -3.75 -25.2 -3.8 -26.95 -3.85 -27.4 -3.9 -28.65 -3.9 -29.65 -3.6 -19.65 -3.95 -32.1 -4.0 -33.35 -4.0 -34.05 -4.05 -35.0 -4.05 -35.65 -4.0 -36.35 -4.0 -36.85 -3.95 -37.35 -3.85 -37.75 -3.8 -38.1 -3.65 -38.35 -3.55 -38.55 -3.35 -38.7 -3.2 -38.8 -2.9 -38.85 -2.65 -38.9 -2.45 -38.8 -2.25 -38.75 -2.1 -38.65 -2.0 -38.55 -1.9 -38.35 -1.8 -38.2 -1.75 -38.0 -1.7 -37.8 -1.7 -37.6 -1.7 -37.4 -1.7 -37.15 -1.65 -37.0 -1.7 -36.75 -1.7 -36.4 -1.7 -36.35 -1.7 -35.7 -1.7 -34.7 -1.7 -33.15 -1.7 -33.0 -1.7 -31.65 -1.65 -30.4 -1.6 -29.05 -1.5 -27.75 -1.4 -26.45 -1.2 -25.2 -1.05 -23.85 -0.8 -22.6 -0.55 -21.3 -0.2 -20.05 0.15 -18.8 0.55 -17.55 1.0 -16.3 1.5 -15.1 2.0 -13.9 2.65 -12.75 2.7 -12.85 2.7 -12.9 2.75 -13.0 2.75 -13.1 2.8 -13.15 2.8 -13.25 2.8 -13.3 2.8 -13.4 2.75 -13.45 2.75 -13.55 2.75 -13.6 2.7 -13.65 2.7 -13.75 2.7 -13.8 2.65 -13.85 2.65 -13.95 2.1 -15.6 1.75 -17.5 1.4 -19.25 1.2 -21.2 1.05 -23.05 1.0 -25.05 0.95 -26.9 1.05 -28.9 1.1 -30.75 1.25 -32.7 1.45 -34.5 1.65 -36.4 1.85 -38.1 2.15 -39.9 2.4 -41.4 2.7 -43.1 4.4 -52.45 5.35 -56.05 5.4 -56.2 5.5 -56.3 5.55 -56.45 5.65 -56.5 5.75 -56.6 5.85 -56.7 5.95 -56.75 6.1 -56.8 6.2 -56.8 6.35 -56.85 6.5 -56.85 6.65 -56.8 6.75 -56.8 6.9 -56.75 7.05 -56.7 7.2 -56.6 7.3 -56.5 7.4 -56.4 7.45 -56.3 7.5 -56.2 7.55 -56.1 7.55 -55.95 7.55 -55.85 7.55 -55.7 7.55 -55.6 7.55 -55.45 7.5 -55.35 7.45 -55.2 7.45 -55.1 7.4 -54.9 7.35 -54.75 7.35 -54.65 7.1 -53.7 6.85 -52.3 6.55 -50.5 6.3 -48.8 6.0 -47.05 5.8 -45.3 5.6 -43.5 5.5 -41.8 5.35 -40.0 5.3 -38.25 5.25 -36.5 5.3 -34.75 5.35 -32.95 5.5 -31.25 5.6 -29.45 5.85 -27.75 6.1 -25.95 6.45 -24.25 6.55 -24.25 6.6 -24.3 6.65 -24.3 6.7 -24.35 6.75 -24.35 6.75 -24.4 6.8 -24.45 6.8 -24.5 6.8 -24.5 6.8 -24.55 6.8 -24.6 6.8 -24.65 6.8 -24.65 6.8 -24.7 6.8 -24.95 6.8 -24.8 6.75 -25.2 6.75 -25.6 6.7 -26.0 6.7 -26.4 6.65 -26.8 6.65 -27.2 6.65 -27.6 6.6 -28.0 6.6 -28.4 6.6 -28.8 6.6 -29.2 6.6 -29.6 6.6 -30.05 6.6 -30.45 6.6 -30.85 6.65 -31.25 6.65 -31.9 6.7 -32.6 6.7 -33.25 6.8 -33.9 6.85 -34.55 6.9 -35.25 7.0 -35.9 7.05 -36.55 7.15 -37.2 7.25 -37.9 7.35 -38.55 7.45 -39.2 7.55 -39.85 7.7 -40.55 7.8 -41.15 7.95 -41.85 7.95 -41.95 8.0 -42.05 8.05 -42.15 8.05 -42.25 8.1 -42.35 8.15 -42.4 8.2 -42.5 8.3 -42.55 8.35 -42.65 8.45 -42.7 8.5 -42.75 8.6 -42.75 8.7 -42.8 8.85 -42.8 8.95 -42.85 9.1 -42.8 9.45 -42.75 9.65 -42.6 9.85 -42.45 10.0 -42.2 10.1 -42.0 10.15 -41.7 10.2 -41.45 10.2 -41.1 10.15 -40.85 10.15 -40.45 10.1 -40.3 10.05 -39.8 10.0 -39.45 10.0 -39.2 9.95 -38.9 10.0 -38.7 9.95 -36.65 9.95 -34.95 10.0 -33.05 10.05 -31.35 10.15 -29.55 10.3 -27.95 10.5 -26.25 10.75 -24.65 11.05 -23.0 11.45 -21.4 11.85 -19.8 12.4 -18.2 13.0 -16.6 13.7 -15.05 14.45 -13.4 15.35 -11.8 15.6 -11.25 15.8 -10.85 16.05 -10.45 16.25 -10.2 16.45 -9.9 16.7 -9.75 16.9 -9.55 17.15 -9.45 17.35 -9.35 17.65 -9.35 17.9 -9.3 18.3 -9.3 18.45 -9.25 19.05 -9.25 19.6 -9.25 19.95 -9.25 20.35 -9.2 20.55 -9.15 20.85 -9.1 21.0 -9.1 21.2 -9.1 21.3 -9.1 21.45 -9.15 21.5 -9.25 21.6 -9.3 21.65 -9.45 21.7 -9.55 21.7 -9.75 21.75 -9.9 21.75 -10.15 21.8 -10.7 21.8 -10.75 22.1 -13.45 22.1 -14.15 22.1 -15.1 22.25 -17.5 22.4 -19.65 22.35 -20.85 22.35 -21.55 22.25 -23.0 22.15 -24.4 22.15 -25.1 22.2 -26.15 22.15 -27.15 22.15 -28.0 22.1 -28.85 22.1 -29.35 22.05 -30.15 22.0 -30.95 21.95 -31.2 21.95 -31.7 21.95 -32.0 22.0 -32.35 22.05 -32.6 22.1 -32.85 22.25 -33.05 22.4 -33.25 22.65 -33.4 22.9 -33.5 23.1 -33.55 23.3 -33.55 23.45 -33.5 23.65 -33.5 23.8 -33.4 23.9 -33.3 24.0 -33.15 24.15 -33.0 24.2 -32.85 24.3 -32.7 24.35 -32.5 24.4 -32.3 24.45 -32.1 24.5 -31.95 24.55 -31.75 24.6 -31.5 24.65 -31.2 24.7 -30.95 24.8 -30.65 24.85 -30.4 24.9 -30.15 24.95 -29.85 25.0 -29.6 25.0 -29.3 25.05 -29.05 25.1 -28.8 25.15 -28.5 25.2 -28.25 25.25 -27.95 25.25 -27.7 25.3 -27.4 25.45 -26.4 25.55 -25.45 25.7 -24.45 25.85 -23.5 25.95 -22.5 26.1 -21.55 26.2 -20.55 26.3 -19.55 26.4 -18.6 26.5 -17.6 26.6 -16.65 26.7 -15.65 26.8 -14.7 26.9 -13.7 27.0 -12.7 27.1 -11.7 27.15 -11.25 27.15 -10.85 27.15 -10.5 27.15 -10.15 27.15 -10.1 27.15 -9.65 27.1 -9.4 27.15 -9.25 27.15 -9.1 27.15 -9.0 27.2 -8.9 27.25 -8.8 27.35 -8.75 27.45 -8.7 27.6 -8.65 27.75 -8.6 28.05 -8.55 28.4 -8.5 28.7 -8.5 29.0 -8.45 29.3 -8.45 29.65 -8.45 29.9 -8.45 30.25 -8.45 30.55 -8.45 30.9 -8.45 31.1 -8.45 31.5 -8.45 31.9 -8.45 32.1 -8.45 32.45 -8.5 32.75 -8.5 33.05 -8.5 32.9 -8.5 33.0 -8.5 33.05 -8.5 33.15 -8.5 33.2 -8.5 33.25 -8.5 33.35 -8.5 33.4 -8.5 33.5 -8.55 33.55 -8.55 33.6 -8.6 33.65 -8.6 33.7 -8.65 33.75 -8.7 33.8 -8.8 34.45 -10.75 34.95 -12.55 35.45 -14.35 35.8 -16.0 36.15 -17.65 36.4 -19.2 36.6 -20.75 36.75 -22.2 36.9 -23.65 36.9 -25.1 36.95 -26.45 36.9 -27.9 36.9 -29.2 36.75 -30.65 36.65 -31.95 36.5 -33.45 36.4 -34.6 36.25 -35.7 36.1 -36.6 35.95 -37.4 35.85 -38.05 35.7 -38.7 35.7 -38.75 35.5 -39.7 35.4 -40.15 35.35 -40.4 35.3 -40.7 35.3 -40.9 35.35 -41.1 35.4 -41.25 35.5 -41.45 35.65 -41.65 36.0 -41.95 36.3 -42.0 36.6 -42.05 36.85 -41.9 37.1 -41.75 37.3 -41.45 37.45 -41.15 37.6 -40.75 37.75 -40.4 37.85 -39.95 37.95 -39.6 38.05 -39.1 38.3 -37.85 38.2 -38.4 38.25 -38.05 38.3 -37.9 38.45 -37.15 38.65 -36.45 38.8 -35.75 38.95 -35.05 39.1 -34.35 39.2 -33.65 39.35 -32.95 39.45 -32.25 39.55 -31.55 39.65 -30.85 39.75 -30.15 39.85 -29.45 39.95 -28.75 40.0 -28.05 40.1 -27.35 40.1 -26.65 40.25 -24.85 40.35 -23.25 40.4 -21.85 40.45 -20.6 40.45 -19.5 40.4 -18.55 40.4 -17.8 40.35 -17.05 40.3 -16.6 40.25 -15.95 40.2 -15.35 40.2 -15.15 40.15 -14.75 40.2 -14.5 40.2 -14.2 40.3 -13.95 40.35 -14.0 40.4 -14.0 40.45 -14.05 40.5 -14.1 40.55 -14.15 40.6 -14.2 40.6 -14.25 40.65 -14.3 40.65 -14.35 40.7 -14.4 40.7 -14.45 40.7 -14.5 40.75 -14.55 40.75 -14.6 40.75 -14.65 40.75 -14.7 40.8 -15.2 41.0 -16.3 41.2 -17.4 41.25 -17.95 41.35 -18.6 41.45 -19.25 41.55 -19.95 41.65 -20.6 41.7 -21.25 41.8 -21.95 41.85 -22.6 41.9 -23.25 41.95 -23.9 42.0 -24.6 42.05 -25.25 42.1 -25.95 42.1 -26.6 42.15 -27.25 42.15 -27.95 42.2 -28.6 42.25 -29.85 42.25 -31.2 42.2 -32.5 42.15 -33.9 42.1 -35.2 42.0 -36.6 41.9 -37.9 41.75 -39.3 41.65 -40.5 41.5 -41.8 41.35 -42.95 41.2 -44.2 41.05 -45.2 40.9 -46.25 40.8 -47.1 40.65 -48.05 40.5 -49.4 40.3 -50.6 40.15 -51.6 40.0 -52.55 39.9 -53.05 39.75 -54.0 39.6 -54.7 39.55 -55.0 39.5 -55.4 39.5 -55.65 39.5 -55.9 39.6 -56.05 39.7 -56.2 39.85 -56.3 40.05 -56.4 40.4 -56.5 40.7 -56.55 40.9 -56.5 41.15 -56.45 41.3 -56.3 41.45 -56.15 41.55 -55.9 41.65 -55.65 41.75 -55.35 41.8 -55.15 41.9 -54.8 41.9 -54.65 42.0 -54.25 42.05 -53.9 42.1 -53.7 42.15 -53.45 42.2 -53.3 43.15 -48.55 44.5 -43.05 45.1 -40.55 45.35 -39.6 45.85 -37.5 46.25 -35.8 46.75 -33.7 47.1 -31.9 47.55 -29.75 47.9 -27.9 48.3 -25.8 48.55 -24.0 48.8 -22.0 48.95 -20.25 49.1 -18.4 49.1 -16.85 49.1 -15.2 48.9 -13.85 48.9 -13.75 48.85 -13.65 48.85 -13.55 48.85 -13.45 48.85 -13.35 48.8 -13.25 48.8 -13.15 48.8 -13.05 48.8 -12.95 48.8 -12.85 48.8 -12.7 48.85 -12.6 48.85 -12.5 48.9 -12.4 48.9 -12.3 48.95 -12.2 49.05 -12.2 49.15 -12.25 49.2 -12.25 49.25 -12.3 49.35 -12.35 49.35 -12.45 49.4 -12.5 49.45 -12.55 49.45 -12.65 49.5 -12.7 49.45 -12.6 49.5 -12.9 49.55 -13.0 49.55 -13.05 49.6 -13.1 49.65 -13.2 50.15 -14.6 50.55 -15.85 50.9 -17.1 51.2 -18.2 51.5 -19.3 51.7 -20.3 51.9 -21.25 52.0 -22.2 52.15 -23.1 52.2 -24.05 52.3 -24.9 52.3 -25.9 52.35 -26.75 52.35 -27.8 52.35 -28.55 52.35 -29.85 52.3 -31.2 52.25 -32.45 52.2 -33.45 52.1 -34.5 52.1 -34.75 52.0 -36.05 51.95 -36.8 51.9 -37.15 51.9 -37.6 51.95 -37.9 51.95 -38.2 52.1 -38.35 52.2 -38.5 52.4 -38.6 52.6 -38.65 52.95 -38.65 53.05 -38.65 53.15 -38.65 53.25 -38.6 53.3 -38.6 53.4 -38.55 53.45 -38.5 53.55 -38.5 53.6 -38.4 53.65 -38.35 53.7 -38.3 53.75 -38.25 53.8 -38.15 53.85 -38.1 53.85 -38.0 53.9 -37.9 53.95 -37.85 54.15 -37.2 54.35 -36.45 54.5 -35.8 54.65 -35.05 54.8 -34.4 54.95 -33.65 55.05 -33.0 55.15 -32.25 55.25 -31.55 55.35 -30.8 55.45 -30.15 55.55 -29.4 55.6 -28.9 55.7 -27.95 55.8 -27.0 55.85 -26.55 55.95 -25.6 56.0 -24.6 56.05 -23.65 56.1 -22.65 56.1 -21.7 56.1 -20.7 56.1 -19.75 56.1 -18.75 56.05 -17.8 56.0 -16.8 55.95 -15.85 55.9 -14.85 55.85 -13.9 55.75 -12.9 55.7 -11.95 55.6 -10.95 55.55 -10.55 55.55 -10.45 55.5 -10.2 55.5 -10.1 55.5 -9.9 55.5 -9.8 55.5 -9.7 55.6 -9.65 55.65 -9.6 55.75 -9.55 55.8 -9.5 56.0 -9.45 56.1 -9.45 56.35 -9.4 58.85 -9.15 56.8 -9.35 57.65 -9.25 59.2 -9.1 60.8 -8.9 61.55 -8.85 62.55 -8.75 62.8 -8.7 63.35 -8.65 63.65 -8.65 63.95 -8.65 64.15 -8.75 64.35 -8.85 64.45 -9.1 64.5 -9.25 64.6 -9.65 64.6 -9.8 64.7 -10.5 64.8 -11.2 64.85 -11.75 65.0 -12.55 65.2 -13.35 65.4 -14.25 65.6 -15.1 65.75 -16.05 65.95 -16.9 66.1 -17.8 66.25 -18.6 66.4 -19.5 66.5 -20.3 66.65 -21.15 66.75 -21.95 66.85 -22.75 66.9 -23.5 66.95 -24.25 67.0 -24.95 67.0 -25.65 67.0 -26.3 67.0 -27.9 66.8 -29.55 66.65 -31.0 66.3 -32.6 66.1 -33.85 65.7 -35.3 65.55 -35.95 65.1 -37.7 64.8 -39.0 64.65 -39.65 64.45 -40.6 64.4 -41.2 64.4 -41.85 64.55 -42.2 64.75 -42.6 65.25 -42.65 65.7 -42.75 66.05 -42.4 66.45 -42.05 66.75 -41.3 67.05 -40.65 67.3 -39.65 67.55 -38.75 67.75 -37.65 67.95 -36.7 68.15 -35.5 68.2 -35.0 68.45 -33.55 68.6 -32.45 68.7 -31.95 68.8 -31.25 68.9 -31.0 69.25 -29.15 70.5 -23.9 71.55 -19.55 71.7 -18.2 71.7 -18.1 71.75 -18.05 71.75 -18.0 71.75 -17.9 71.8 -17.85 71.8 -17.75 71.85 -17.7 71.85 -17.6 71.9 -17.55 71.9 -17.45 71.95 -17.4 72.0 -17.3 72.0 -17.25 72.05 -17.15 72.1 -17.05 72.15 -17.0 72.4 -18.75 72.4 -20.65 72.45 -22.45 72.35 -24.45 72.2 -26.25 71.95 -28.2 71.7 -30.0 71.35 -31.95 71.05 -33.65 70.6 -35.55 70.25 -37.15 69.8 -39.0 69.45 -40.35 68.95 -42.15 67.4 -48.0 68.2 -45.0 68.1 -45.4 67.95 -45.9 67.85 -46.25 67.6 -46.95 67.4 -47.65 67.25 -48.0 67.1 -48.6 67.0 -49.05 66.85 -49.55 66.8 -49.95 66.75 -50.4 66.8 -50.7 66.85 -51.0 67.0 -51.2 67.2 -51.35 67.55 -51.35 67.75 -51.35 67.9 -51.35 68.05 -51.35 68.2 -51.3 68.35 -51.25 68.45 -51.15 68.55 -51.1 68.6 -51.0 68.7 -50.9 68.75 -50.75 68.8 -50.65 68.9 -50.5 68.95 -50.4 68.95 -50.25 69.0 -50.1 69.05 -49.95 69.65 -48.0 70.0 -46.8 70.45 -45.3 70.8 -43.9 71.25 -42.4 71.6 -41.0 72.0 -39.5 72.35 -38.1 72.75 -36.6 73.05 -35.15 73.4 -33.65 73.7 -32.2 74.0 -30.7 74.3 -29.25 74.55 -27.75 74.8 -26.3 75.0 -24.8 75.2 -23.3 75.65 -19.95 75.95 -16.35 76.25 -13.05 76.45 -9.45 76.65 -6.2 76.8 -2.55 76.9 0.55 76.95 4.25 77.0 7.0 77.05 11.05 77.1 18.0 77.1 17.8 77.15 21.7 77.2 24.55 77.25 28.2 77.4 31.3 77.35 34.8 77.25 37.85 77.1 40.65 76.9 43.05 76.75 45.15 76.55 47.05 76.35 48.55 76.15 49.95 75.95 50.9 75.75 51.95 75.55 53.2 75.55 53.25 75.45 53.75 75.45 54.0 75.45 54.2 75.6 54.3 75.8 54.1 75.95 53.85 76.1 53.6 76.25 53.35 76.4 53.1 76.5 52.85 76.6 52.6 76.75 52.35 76.85 52.1 76.95 51.8 77.2 51.25 77.2 51.3 77.3 50.95 77.4 50.75 77.5 50.45 77.65 50.25 78.45 48.3 79.1 46.2 79.75 44.2 80.2 42.05 80.65 40.0 81.0 37.8 81.3 35.7 81.5 33.5 81.7 31.4 81.75 29.25 81.85 27.15 81.8 25.0 81.8 22.95 81.65 20.85 81.55 18.85 81.35 16.85 81.25 15.4 81.1 14.15 80.95 13.05 80.8 12.05 80.7 11.4 80.55 10.6 80.4 9.7 80.4 9.55 80.3 9.1 80.3 8.85 80.3 8.6 80.4 8.45 80.45 8.25 80.65 8.15 80.8 8.05 81.1 7.9 81.3 7.85 81.5 7.85 81.65 7.85 81.8 7.9 81.95 7.95 82.1 8.05 82.2 8.15 82.3 8.25 82.4 8.4 82.45 8.55 82.5 8.7 82.55 8.85 82.6 9.0 82.65 9.2 82.7 9.35 82.75 9.55 83.0 10.55 83.2 11.6 83.4 12.6 83.6 13.65 83.8 14.65 83.95 15.7 84.15 16.7 84.3 17.75 84.45 18.75 84.55 19.8 84.7 20.85 84.85 21.9 84.95 22.9 85.05 23.95 85.15 25.0 85.25 26.05 85.35 27.95 85.45 29.8 85.5 31.35 85.5 32.9 85.55 34.15 85.5 35.4 85.5 36.25 85.5 37.4 85.45 38.55 85.45 38.9 85.45 39.55 85.5 39.95 85.5 40.35 85.6 40.6 85.65 40.8 85.8 40.85 86.25 40.05 86.55 39.35 86.9 38.65 87.1 38.05 87.35 37.45 87.45 36.9 87.6 36.4 87.7 35.85 87.8 35.4 87.85 34.8 87.9 34.4 87.9 33.75 88.1 30.35 88.0 32.55 88.05 31.75 88.1 31.15 88.3 28.1 88.4 24.85 88.5 21.65 88.5 18.35 88.5 15.15 88.4 11.8 88.35 8.65 88.15 5.45 88.0 2.35 87.8 -0.65 87.6 -3.6 87.3 -6.35 87.05 -9.05 86.75 -11.45 86.4 -13.85 86.1 -15.85 85.75 -18.0 85.35 -20.1 84.95 -22.2 84.45 -24.25 84.0 -26.4 83.45 -28.45 82.9 -30.55 82.3 -32.55 81.65 -34.65 81.0 -36.65 80.3 -38.7 79.55 -40.7 78.75 -42.7 77.9 -44.7 77.1 -46.65 76.15 -48.6 75.75 -49.35 75.4 -50.1 75.0 -50.85 74.6 -51.55 74.2 -52.3 73.8 -53.0 73.4 -53.7 73.0 -54.4 72.55 -55.1 72.15 -55.75 71.7 -56.45 71.25 -57.05 70.8 -57.7 70.4 -58.3 69.9 -58.95 69.45 -59.5 68.05 -61.15 66.6 -62.5 65.1 -63.85 63.55 -64.9 62.0 -65.95 60.35 -66.7 58.7 -67.4 57.0 -67.85 55.3 -68.3 53.5 -68.45 51.7 -68.6 49.85 -68.5 48.0 -68.35 46.05 -68.0 44.15 -67.6 42.15 -66.95 42.05 -66.9 41.95 -66.9 41.8 -66.9 41.75 -66.9 41.65 -66.9 41.55 -66.9 41.45 -66.9 41.4 -66.95 41.3 -66.95 41.25 -67.0 41.2 -67.05 41.1 -67.1 41.05 -67.15 41.0 -67.2 40.9 -67.25 40.85 -67.35 40.7 -67.65 40.7 -67.95 40.65 -68.2 40.8 -68.4 40.95 -68.6 41.2 -68.75 41.4 -68.9 41.75 -69.0 42.0 -69.15 42.4 -69.25 42.65 -69.3 43.05 -69.4 43.85 -69.55 43.65 -69.5 43.95 -69.6 44.1 -69.65 44.7 -69.8 45.25 -69.9 45.9 -70.05 46.45 -70.15 47.05 -70.25 47.65 -70.35 48.25 -70.4 48.85 -70.5 49.45 -70.55 50.05 -70.6 50.7 -70.6 51.25 -70.65 51.9 -70.65 52.5 -70.6 53.1 -70.6 53.65 -70.5 54.3 -70.45 54.9 -70.35 55.5 -70.25 56.05 -70.15 56.55 -70.05 57.0 -69.95 57.45 -69.85 57.85 -69.75 58.25 -69.7 58.6 -69.55 58.9 -69.5 59.25 -69.4 59.5 -69.3 59.75 -69.2 60.0 -69.1 60.2 -69.0 60.25 -68.95 60.35 -68.95 60.4 -68.9 60.5 -68.9 60.55 -68.85 60.7 -68.85 60.8 -68.8 60.85 -68.75 60.95 -68.75 61.05 -68.7 61.15 -68.7 61.2 -68.65 61.3 -68.6 61.4 -68.55 61.5 -68.55 61.6 -68.5 61.7 -68.45 61.8 -68.4 61.85 -68.35 61.95 -68.3 62.0 -68.25 62.1 -68.25 62.15 -68.2 62.25 -68.15 62.3 -68.1 62.35 -68.1 62.4 -68.05 62.45 -68.0 62.5 -68.0 62.55 -67.95 62.6 -67.95 62.65 -67.9 64.75 -66.55 66.35 -65.4 67.55 -64.5 67.55 -64.5 67.7 -64.35 67.9 -64.25 68.05 -64.1 68.25 -63.95 68.4 -63.8 68.6 -63.65 68.8 -63.45 68.95 -63.3 69.15 -63.15 69.35 -62.95 69.55 -62.75 69.75 -62.6 69.95 -62.4 70.15 -62.2 70.4 -62.0 70.6 -61.8 71.0 -61.25 71.85 -60.25 72.6 -59.3 73.25 -58.5 73.8 -57.75 74.25 -57.1 74.65 -56.5 75.0 -55.9 75.25 -55.4 75.55 -54.8 75.75 -54.4 76.0 -53.75 76.75 -52.1 76.5 -52.65 76.8 -52.0 77.05 -51.45 77.4 -50.7 77.8 -49.95 78.0 -49.55 78.25 -49.0 78.45 -48.65 78.75 -48.1 79.15 -47.35 79.25 -47.15 79.55 -46.65 79.75 -46.25 80.0 -45.75 80.2 -45.3 80.45 -44.8 80.65 -44.35 80.85 -43.85 81.0 -43.4 81.2 -42.9 81.35 -42.4 81.55 -41.65 82.05 -39.85 82.5 -38.2 82.8 -37.25 83.05 -36.5 83.3 -35.7 83.55 -35.0 83.75 -34.25 84.0 -33.55 84.2 -32.85 84.45 -32.15 84.65 -31.45 84.85 -30.8 85.05 -30.15 85.2 -29.5 85.4 -28.85 85.6 -28.2 85.75 -27.6 85.9 -26.95 86.1 -26.35 88.05 -18.9 88.45 -16.5 88.6 -15.35 88.65 -14.65 88.9 -11.0 88.75 -12.75 88.9 -11.0 89.2 -8.1 89.25 -8.1 89.6 -3.5 90.0 1.7 90.0 4.45 90.15 4.65 90.3 12.15 90.45 22.25 89.95 34.45 89.95 34.45 89.95 34.55 89.95 34.7 89.95 34.85 89.95 35.1 89.95 35.35 89.9 35.7 89.85 36.05 89.8 36.5 89.7 36.95 89.6 37.45 89.45 37.95 89.3 38.55 89.05 39.15 88.8 39.8 88.5 40.45 88.4 40.7 88.3 40.9 88.2 41.15 88.05 41.35 87.95 41.6 87.8 41.85 87.65 42.05 87.5 42.3 87.35 42.5 87.2 42.75 87.0 43.0 86.85 43.2 86.65 43.45 86.45 43.7 86.25 43.95 86.05 44.2 85.9 44.4 85.75 44.5 85.6 44.65 85.4 44.7 85.25 44.8 85.1 44.8 84.9 44.85 84.75 44.85 84.6 44.8 84.45 44.75 84.3 44.7 84.15 44.55 84.0 44.45 83.9 44.3 83.75 44.15 83.7 43.95 83.6 43.75 83.55 43.55 83.5 43.35 83.45 43.15 83.4 42.95 83.4 42.7 83.4 42.55 83.4 42.3 83.4 42.15 83.4 41.95 83.45 41.75 83.45 41.55 83.5 41.2 83.5 41.15 83.5 40.9 83.5 40.75 83.5 40.5 83.55 40.3 83.55 40.05 83.55 39.85 83.55 39.65 83.55 39.4 83.55 39.2 83.55 38.95 83.55 38.7 83.55 38.5 83.55 38.25 83.5 38.05 83.5 37.8 83.45 37.55 83.45 37.35 83.4 37.1 83.35 37.7 83.25 38.25 83.15 38.85 83.05 39.45 82.95 40.1 82.85 40.7 82.7 41.35 82.55 42.0 82.4 42.7 82.2 43.35 82.05 44.05 81.85 44.7 81.6 45.45 81.4 46.15 81.15 46.85 80.9 47.55 80.8 47.85 80.65 48.15 80.55 48.4 80.45 48.7 80.35 49.0 80.2 49.25 80.1 49.55 80.0 49.8 79.85 50.05 79.75 50.35 79.65 50.6 79.5 50.85 79.4 51.1 79.25 51.35 79.15 51.6 79.05 51.85 78.9 52.15 78.8 52.5 78.65 52.8 78.5 53.1 78.4 53.4 78.25 53.75 78.1 54.05 77.95 54.35 77.8 54.65 77.65 54.95 77.5 55.25 77.35 55.55 77.2 55.85 77.0 56.15 76.85 56.45 76.7 56.75 75.85 58.3 74.25 61.4 73.3 63.1 71.45 66.6 71.35 66.8 71.2 67.0 71.1 67.2 70.95 67.45 70.75 67.7 70.6 67.95 70.45 68.2 70.25 68.4 70.1 68.65 69.95 68.85 69.75 69.0 69.6 69.15 69.5 69.3 69.4 69.35 69.25 69.4 69.2 69.4 69.15 69.35 69.15 69.2 69.15 69.1 69.2 68.8 69.25 68.6 69.35 68.2 69.45 67.9 69.65 67.35 69.7 67.2 70.0 66.3 70.25 65.55 70.45 65.0 70.7 64.25 70.9 63.5 71.2 62.6 71.45 61.75 71.6 61.35 71.7 61.0 71.8 60.6 71.9 60.2 72.05 59.75 72.15 59.35 72.3 58.9 72.4 58.45 72.55 57.95 72.65 57.45 72.8 56.95 72.9 56.4 73.05 55.85 73.15 55.3 73.3 54.7 73.45 54.1 73.5 53.85 73.65 53.0 73.85 51.75 73.95 51.1 74.15 49.75 74.4 48.3 74.45 48.15 74.45 48.0 74.5 47.85 74.5 47.7 74.55 47.5 74.55 47.3 74.6 47.1 74.6 46.9 74.65 46.7 74.65 46.5 74.7 46.3 74.7 46.05 74.75 45.8 74.75 45.55 74.8 45.3 74.8 45.05 74.85 44.7 74.9 44.25 74.9 44.15 75.2 39.4 75.4 36.95 75.45 32.6 75.4 30.55 75.4 26.95 75.5 21.35 75.5 20.5 75.4 17.15 75.2 14.5 75.15 12.6 75.1 8.8 75.05 6.6 75.0 2.2 74.9 -0.25 74.8 -5.05 74.75 -5.65 74.7 -6.9 74.6 -8.45 74.4 -11.5 74.4 -11.85 74.4 -12.5 74.4 -12.65 74.3 -13.95 74.15 -16.0 74.0 -16.0 73.95 -16.0 73.9 -15.9 73.9 -15.8 73.8 -15.55 73.75 -15.3 73.7 -14.9 73.6 -14.5 73.5 -13.95 73.45 -13.4 73.3 -12.65 73.2 -11.9 73.1 -10.95 72.95 -10.0 72.8 -8.85 72.65 -7.65 72.5 -6.25 72.5 -6.25 72.5 -6.15 72.45 -6.05 72.45 -5.9 72.4 -5.75 72.4 -5.6 72.35 -5.4 72.25 -5.2 72.2 -5.0 72.1 -4.8 71.95 -4.6 71.85 -4.4 71.7 -4.2 71.5 -4.05 71.3 -3.9 71.05 -3.8 71.0 -3.8 71.0 -3.75 70.95 -3.75 70.9 -3.75 70.85 -3.7 70.8 -3.7 70.75 -3.7 70.7 -3.7 70.65 -3.7 70.6 -3.65 70.55 -3.65 70.5 -3.65 70.4 -3.65 70.35 -3.65 70.3 -3.65 70.2 -3.65 70.05 -3.75 69.75 -4.0 69.7 -4.05 69.65 -4.15 69.6 -4.25 69.55 -4.3 69.55 -4.4 69.5 -4.45 69.5 -4.55 69.5 -4.6 69.5 -4.7 69.5 -4.75 69.5 -4.85 69.55 -4.9 69.55 -5.0 69.6 -5.1 69.6 -5.15 69.65 -5.25 69.7 -5.4 69.75 -5.65 69.75 -5.8 69.85 -6.05 69.85 -6.2 69.95 -6.5 70.05 -7.05 70.25 -8.25 70.3 -8.55 70.35 -9.1 70.4 -9.5 70.45 -10.3 70.45 -11.1 70.45 -12.7 70.45 -13.3 70.35 -14.5 70.3 -14.85 70.25 -15.55 70.2 -15.75 70.15 -16.1 70.05 -16.6 69.95 -17.5 69.85 -17.85 69.75 -18.55 69.65 -18.8 69.55 -19.35 69.5 -19.6 69.4 -20.15 69.3 -20.6 69.15 -21.55 69.0 -22.0 68.8 -22.9 68.75 -22.45 68.6 -21.6 68.6 -21.45 68.55 -21.15 68.5 -20.9 68.45 -20.35 68.45 -20.15 68.35 -19.75 68.25 -18.95 67.95 -17.35 67.95 -17.2 67.9 -16.9 67.8 -16.4 67.55 -15.35 67.5 -15.2 67.45 -14.9 67.35 -14.45 67.2 -13.5 67.15 -13.3 67.05 -12.9 67.0 -12.7 66.95 -12.3 66.85 -12.0 66.75 -11.3 66.7 -11.1 66.65 -10.7 66.55 -10.1 66.35 -8.9 66.3 -8.65 66.15 -8.15 66.1 -8.0 66.05 -7.85 66.0 -7.75 65.95 -7.6 65.85 -7.5 65.8 -7.4 65.7 -7.3 65.6 -7.2 65.5 -7.1 65.4 -7.05 65.25 -7.0 65.15 -6.9 65.0 -6.85 64.9 -6.85 64.75 -6.8 64.6 -6.75 64.45 -6.75 64.15 -6.7 64.1 -6.7 64.0 -6.65 63.95 -6.65 63.85 -6.65 63.8 -6.65 63.7 -6.6 63.65 -6.6 63.55 -6.6 63.5 -6.6 63.4 -6.6 63.35 -6.65 63.25 -6.65 63.2 -6.65 63.1 -6.65 63.05 -6.65 62.95 -6.7 62.7 -6.7 62.15 -6.8 61.9 -6.85 61.35 -6.9 60.95 -6.95 60.15 -7.1 59.95 -7.1 59.55 -7.2 59.05 -7.25 58.15 -7.35 58.1 -7.35 58.05 -7.35 58.0 -7.35 57.95 -7.35 57.9 -7.35 57.85 -7.35 57.8 -7.35 57.75 -7.35 57.7 -7.35 57.6 -7.35 57.55 -7.35 57.5 -7.35 57.45 -7.35 57.4 -7.35 57.35 -7.35 57.3 -7.35 56.6 -7.4 56.15 -7.5 55.65 -7.55 54.7 -7.6 54.45 -7.65 54.25 -7.65 54.1 -7.7 53.95 -7.75 53.8 -7.8 53.7 -7.9 53.6 -8.0 53.55 -8.1 53.5 -8.25 53.45 -8.4 53.45 -8.55 53.45 -8.75 53.45 -9.0 53.45 -9.25 53.5 -9.5 53.55 -9.9 53.65 -10.9 53.8 -12.9 53.85 -13.45 53.95 -14.5 53.95 -15.0 54.0 -15.95 53.95 -17.95 53.9 -22.0 53.85 -21.85 53.8 -21.75 53.75 -21.6 53.7 -21.45 53.65 -21.3 53.6 -21.15 53.55 -21.0 53.5 -20.85 53.45 -20.7 53.4 -20.55 53.4 -20.35 53.35 -20.2 53.3 -20.0 53.25 -19.8 53.25 -19.65 53.2 -19.45 53.2 -19.35 53.2 -19.25 53.15 -19.15 53.15 -19.05 53.15 -18.95 53.15 -18.85 53.15 -18.75 53.15 -18.65 53.15 -18.55 53.15 -18.45 53.15 -18.35 53.15 -18.3 53.15 -18.2 53.15 -18.1 53.15 -18.0 53.15 -17.95 53.0 -17.5 52.85 -16.85 52.6 -16.0 52.5 -15.8 52.45 -15.5 52.25 -14.95 52.2 -14.8 52.15 -14.65 52.1 -14.5 52.05 -14.35 52.0 -14.2 51.95 -14.1 51.95 -13.95 51.9 -13.8 51.85 -13.7 51.8 -13.55 51.75 -13.45 51.7 -13.35 51.65 -13.2 51.6 -13.1 51.55 -13.0 51.55 -12.9 51.05 -11.65 50.9 -11.35 50.7 -10.95 50.3 -10.1 50.2 -9.9 50.0 -9.55 50.0 -9.45 49.95 -9.45 49.95 -9.35 49.95 -9.3 49.9 -9.25 49.9 -9.2 49.85 -9.1 49.85 -9.05 49.8 -9.0 49.8 -8.95 49.75 -8.9 49.7 -8.85 49.65 -8.8 49.6 -8.75 49.6 -8.7 49.5 -8.65 49.4 -8.5 49.2 -8.15 49.15 -8.05 49.1 -8.0 49.05 -7.9 49.0 -7.85 48.95 -7.75 48.9 -7.7 48.85 -7.65 48.8 -7.6 48.75 -7.5 48.65 -7.45 48.6 -7.4 48.5 -7.35 48.45 -7.35 48.35 -7.3 48.3 -7.25 48.2 -7.25 48.0 -7.2 47.65 -7.2 47.4 -7.2 47.2 -7.35 47.0 -7.45 46.85 -7.6 46.75 -7.8 46.7 -8.0 46.6 -8.2 46.6 -8.5 46.55 -8.7 46.6 -9.0 46.6 -9.2 46.6 -9.45 46.6 -9.35 46.65 -9.9 46.65 -10.15 46.65 -10.3 46.7 -10.7 46.8 -11.5 46.85 -12.05 46.9 -13.1 46.95 -13.5 47.0 -14.35 47.0 -14.8 47.05 -15.75 47.05 -16.65 47.05 -18.55 47.05 -18.85 47.0 -19.55 46.95 -19.95 46.9 -20.75 46.85 -21.3 46.75 -22.35 46.75 -22.65 46.65 -23.15 46.65 -23.45 46.55 -23.95 46.55 -24.25 46.5 -24.8 46.45 -24.9 46.4 -25.2 46.35 -25.45 46.25 -26.0 46.15 -26.6 46.0 -27.8 45.95 -28.0 45.85 -28.4 45.85 -28.55 45.8 -28.8 45.75 -29.0 45.65 -29.4 45.65 -29.55 45.6 -29.8 45.55 -29.95 45.45 -30.25 45.45 -30.4 45.4 -30.8 45.35 -30.95 45.25 -31.25 45.25 -31.35 45.2 -31.6 45.15 -31.8 45.05 -32.25 44.9 -32.8 44.85 -32.9 44.85 -33.0 44.8 -33.1 44.8 -33.2 44.75 -33.3 44.75 -33.4 44.7 -33.5 44.7 -33.55 44.7 -33.65 44.65 -33.75 44.65 -33.85 44.65 -33.95 44.65 -34.0 44.6 -34.1 44.6 -34.2 44.6 -34.25 44.6 -34.35 44.5 -34.85 44.4 -35.25 44.3 -35.6 44.2 -35.85 44.15 -36.1 44.1 -36.2 44.05 -36.35 44.0 -36.4 43.95 -36.45 43.95 -36.45 43.9 -36.45 43.9 -36.35 43.9 -36.3 43.9 -36.15 43.9 -36.0 43.9 -35.75 43.9 -35.55 43.95 -35.25 44.0 -34.4 44.0 -34.6 44.0 -34.15 44.05 -33.8 44.05 -33.3 44.1 -32.9 44.1 -32.35 44.1 -31.85 44.1 -31.4 44.15 -31.0 44.15 -30.6 44.15 -30.2 44.15 -29.8 44.15 -29.45 44.15 -29.1 44.15 -28.75 44.15 -28.45 44.15 -28.1 44.1 -27.8 44.1 -27.55 44.1 -27.3 44.1 -27.05 44.1 -26.8 44.05 -26.6 44.0 -25.65 43.9 -23.75 43.9 -23.35 43.8 -22.6 43.8 -22.25 43.7 -21.55 43.7 -21.2 43.6 -20.55 43.6 -20.3 43.5 -19.75 43.45 -19.5 43.4 -18.95 43.4 -18.75 43.3 -18.35 43.3 -18.15 43.2 -17.75 43.2 -17.45 43.1 -16.9 43.05 -16.8 43.0 -16.55 43.0 -16.35 42.9 -15.9 42.9 -15.75 42.8 -15.35 42.75 -15.2 42.7 -14.9 42.7 -14.7 42.65 -14.55 42.65 -14.35 42.6 -14.2 42.55 -14.0 42.55 -13.85 42.5 -13.65 42.45 -13.5 42.4 -13.3 42.35 -13.15 42.35 -12.95 42.25 -12.8 42.2 -12.6 42.15 -12.45 42.1 -12.25 42.05 -12.1 42.0 -11.9 41.9 -11.5 41.75 -10.9 41.45 -9.7 41.3 -9.35 41.1 -8.65 41.05 -8.45 41.0 -8.3 40.95 -8.1 40.9 -7.95 40.85 -7.75 40.8 -7.6 40.7 -7.4 40.65 -7.25 40.6 -7.1 40.5 -6.9 40.4 -6.75 40.35 -6.6 40.25 -6.45 40.15 -6.3 40.05 -6.1 39.95 -6.0 39.75 -5.85 39.45 -5.6 39.05 -5.5 38.75 -5.55 38.5 -5.55 38.3 -5.7 38.15 -5.85 38.05 -6.1 37.95 -6.3 37.95 -6.6 37.9 -6.85 37.9 -7.2 37.9 -7.45 37.95 -7.85 38.0 -8.35 38.0 -8.45 38.0 -8.8 38.0 -9.0 38.1 -11.45 38.25 -13.75 38.35 -15.8 38.35 -16.0 38.4 -16.6 38.35 -16.75 38.3 -16.8 38.1 -16.95 38.0 -16.75 37.95 -16.5 37.85 -16.3 37.8 -16.05 37.75 -15.85 37.7 -15.6 37.65 -15.4 37.6 -15.15 37.55 -15.0 37.5 -14.7 37.45 -14.4 37.4 -14.2 37.35 -13.95 37.3 -13.75 37.25 -13.5 37.2 -13.3 36.65 -11.05 36.15 -9.45 35.45 -7.15 35.15 -6.9 35.1 -6.8 34.95 -6.75 34.85 -6.65 34.7 -6.6 34.6 -6.55 34.4 -6.55 34.25 -6.5 34.1 -6.5 33.9 -6.5 33.75 -6.5 33.6 -6.5 33.4 -6.5 33.3 -6.5 33.05 -6.5 32.85 -6.5 32.7 -6.5 32.65 -6.5 29.7 -6.55 27.9 -6.6 26.5 -6.7 26.35 -6.7 26.2 -6.75 26.1 -6.8 26.0 -6.85 25.85 -6.9 25.8 -6.95 25.7 -7.0 25.65 -7.1 25.55 -7.15 25.5 -7.25 25.45 -7.35 25.4 -7.5 25.35 -7.6 25.35 -7.75 25.3 -7.9 25.25 -8.1 25.3 -7.5 24.8 -14.55 24.6 -17.65 24.4 -18.25 24.35 -17.95 24.3 -17.6 24.25 -17.3 24.2 -16.95 24.15 -16.6 24.15 -16.25 24.1 -15.95 24.1 -15.6 24.05 -15.3 24.05 -14.95 24.05 -14.75 24.05 -14.25 24.0 -13.85 24.0 -13.6 24.0 -13.25 24.0 -12.95 23.9 -12.25 23.85 -11.45 23.85 -11.2 23.75 -10.2 23.7 -9.55 23.65 -9.2 23.6 -8.75 23.55 -8.45 23.5 -8.1 23.4 -7.9 23.3 -7.65 23.2 -7.5 23.05 -7.35 22.85 -7.25 22.65 -7.15 22.35 -7.1 22.3 -7.1 19.95 -7.2 19.5 -7.25 19.05 -7.3 18.75 -7.3 18.25 -7.35 17.75 -7.35 17.55 -7.4 17.2 -7.4 16.95 -7.45 16.65 -7.45 16.45 -7.5 16.25 -7.55 16.05 -7.6 15.85 -7.7 15.7 -7.8 15.55 -7.9 15.4 -8.0 15.35 -8.05 15.3 -8.1 15.25 -8.15 15.2 -8.2 15.15 -8.25 15.1 -8.35 15.05 -8.4 15.0 -8.45 14.95 -8.55 14.9 -8.6 14.85 -8.65 14.8 -8.75 14.8 -8.8 14.75 -8.9 14.7 -8.95 14.65 -9.0 13.65 -10.75 12.85 -12.4 12.1 -13.85 11.5 -15.3 11.0 -16.5 10.55 -17.7 10.25 -18.7 9.95 -19.65 9.75 -20.4 9.55 -21.2 10.25 -18.25 9.3 -22.35 9.2 -22.9 9.1 -23.15 9.0 -23.45 8.85 -23.6 8.8 -23.4 8.8 -23.2 8.8 -23.0 8.8 -22.75 8.85 -22.55 8.85 -22.35 8.9 -22.2 8.9 -21.95 9.0 -21.3 9.0 -21.55 9.0 -21.3 9.05 -21.15 9.05 -20.95 9.05 -20.75 9.05 -20.55 9.05 -20.35 9.05 -20.3 9.1 -20.05 9.2 -19.65 9.4 -18.55 9.55 -17.9 9.7 -17.25 9.9 -16.6 10.05 -16.0 10.25 -15.35 10.45 -14.7 10.65 -14.1 10.85 -13.45 11.05 -12.85 11.3 -12.25 11.5 -11.6 11.75 -11.0 12.0 -10.4 12.3 -9.8 12.55 -9.2 12.85 -8.6 12.9 -8.5 12.95 -8.4 13.0 -8.25 13.0 -8.15 13.0 -8.05 13.0 -7.95 13.0 -7.85 13.0 -7.75 13.0 -7.65 12.95 -7.6 12.9 -7.5 12.85 -7.4 12.75 -7.35 12.7 -7.25 12.6 -7.2 12.45 -7.1 12.3 -7.05 12.2 -7.0 12.05 -7.0 11.95 -7.0 11.85 -7.0 11.75 -7.0 11.65 -7.05 11.55 -7.1 11.45 -7.15 11.4 -7.25 11.3 -7.35 11.2 -7.45 11.15 -7.5 11.1 -7.6 11.0 -7.7 10.95 -7.85 10.4 -8.75 9.9 -9.65 9.35 -10.6 8.9 -11.5 8.4 -12.45 8.0 -13.4 7.55 -14.35 7.15 -15.3 6.75 -16.3 6.4 -17.25 6.05 -18.25 5.75 -19.25 5.45 -20.25 5.15 -21.25 4.9 -22.3 4.65 -23.3 4.1 -25.95 3.4 -32.15 3.05 -29.75 2.95 -27.35 2.9 -25.15 3.05 -22.95 3.15 -21.0 3.5 -19.05 3.75 -17.35 4.15 -15.7 4.5 -14.25 4.95 -12.8 5.3 -11.75 5.7 -10.5 8.85 -1.6 6.35 -8.8 6.6 -8.0 6.7 -7.7 6.8 -7.35 6.75 -7.1 6.7 -6.85 6.6 -6.65 6.5 -6.5 6.3 -6.4 6.1 -6.3 5.9 -6.25 5.7 -6.2 5.45 -6.2 5.25 -6.25 5.05 -6.3 4.9 -6.35 4.75 -6.45 4.65 -6.5 4.65 -6.6 4.6 -6.65 4.55 -6.7 4.5 -6.7 4.5 -6.75 4.45 -6.8 4.4 -6.85 4.3 -6.95 4.25 -7.0 4.2 -7.05 4.15 -7.1 4.1 -7.15 4.05 -7.25 4.0 -7.3 3.9 -7.35 3.85 -7.45 3.8 -7.5 3.5 -7.85 3.3 -8.1 3.25 -8.15 3.2 -8.3 2.8 -8.9 1.95 -10.05 0.95 -12.05 0.55 -12.95 0.45 -13.1 0.35 -13.35 0.2 -13.7 0.1 -13.95 -0.3 -14.85 -0.4 -14.95 -0.5 -15.05 -0.55 -15.05 -0.65 -15.1 -0.7 -15.15 -0.75 -15.15 -0.85 -15.1 -0.9 -15.1 -0.95 -15.05 -1.0 -15.0 -1.0 -14.95 -1.05 -14.9 -1.1 -14.85 -1.1 -14.75 -1.15 -14.7 -1.15 -14.6 -1.15 -14.5 -1.15 -14.1 -1.1 -13.6 -1.1 -13.2 -1.05 -12.7 -1.0 -12.3 -0.95 -11.8 -0.1 -5.35 -0.8 -10.95 -0.75 -10.45 -0.7 -10.15 -0.7 -9.75 -0.65 -9.5 -0.65 -9.2 -0.7 -9.0 -0.7 -8.75 -0.8 -8.65 -0.85 -8.55 -0.95 -8.45 -1.05 -8.4 -1.2 -8.35 -1.3 -8.3 -1.45 -8.3 -1.6 -8.3 -1.75 -8.3 -1.85 -8.25 -2.05 -8.3 -2.1 -8.3 -2.35 -8.3 -2.5 -8.3 -2.6 -8.3 -2.75 -8.3 -2.85 -8.3 -6.55 -8.25 -8.7 -8.35 -9.1 -8.35 -9.4 -8.4 -9.7 -8.5 -9.9 -8.6 -10.1 -8.7 -10.25 -8.9 -10.4 -9.05 -10.5 -9.25 -10.6 -9.45 -10.65 -9.65 -10.7 -9.85 -10.75 -10.15 -10.9 -10.85 -10.85 -10.7 -10.95 -11.0 -11.0 -11.25 -11.3 -12.6 -11.55 -13.8 -11.75 -14.85 -11.9 -15.75 -12.05 -16.55 -12.15 -17.25 -12.2 -17.85 -12.25 -18.35 -12.3 -18.7 -12.3 -19.1 -12.35 -19.5 -12.35 -19.6 -12.35 -19.8 -12.4 -19.85 -12.45 -19.95 -12.55 -20.0 -12.65 -20.05 -12.7 -20.05 -12.8 -20.1 -12.85 -20.05 -12.9 -20.05 -12.95 -20.05 -13.0 -20.0 -13.0 -19.95 -13.05 -19.9 -13.1 -19.85 -13.1 -19.8 -13.1 -19.75 -13.15 -19.65 -13.15 -19.6 -13.15 -19.55 -13.15 -19.45 -13.3 -17.45 -13.35 -7.7 -13.4 -7.6 -13.55 -7.45 -13.75 -7.4 -13.9 -7.4 -14.05 -7.4 -14.15 -7.4 -14.3 -7.45 -14.4 -7.45 -14.55 -7.5 -14.65 -7.55 -14.75 -7.6 -14.8 -7.7 -14.9 -7.8 -14.95 -7.9 -15.05 -8.0 -15.1 -8.15 -15.15 -8.3 -15.2 -8.45 -15.5 -9.55 -15.75 -10.65 -16.0 -11.7 -16.15 -12.75 -16.35 -13.8 -16.5 -14.85 -16.65 -15.85 -16.8 -16.85 -16.9 -17.85 -16.95 -18.85 -17.0 -19.8 -17.0 -20.75 -17.05 -21.75 -17.0 -22.7 -16.95 -23.65 -16.9 -24.6 -16.9 -24.7 -16.9 -24.8 -16.9 -24.9 -16.9 -24.95 -16.9 -25.0 -16.95 -25.05 -16.95 -25.1 -17.0 -25.15 -17.0 -25.15 -17.05 -25.2 -17.05 -25.2 -17.1 -25.2 -17.1 -25.2 -17.15 -25.25 -17.15 -25.25 -17.15 -25.25 -17.2 -25.25 -17.25 -25.2 -17.3 -25.15 -17.35 -25.05 -17.4 -24.95 -17.45 -24.85 -17.5 -24.7 -17.55 -24.55 -17.6 -24.4 -17.65 -24.25 -17.7 -24.1 -17.75 -23.9 -17.8 -23.75 -17.85 -23.55 -17.9 -23.35 -17.95 -23.15 -18.25 -21.9 -18.55 -20.65 -18.85 -19.45 -19.1 -18.3 -19.35 -17.15 -19.6 -16.05 -19.8 -15.0 -20.0 -14.0 -20.2 -13.05 -20.35 -12.05 -20.5 -11.2 -20.65 -10.3 -20.8 -9.5 -20.95 -8.65 -21.05 -7.95 -21.15 -7.2 -21.55 -4.45 -21.9 -1.25 -22.25 2.25 -22.6 4.55 -22.95 8.05 -23.0 9.65 -23.0 10.45 -23.0 11.45 -22.95 12.35 -22.95 12.45 -23.0 13.35 -23.05 14.25 -23.1 15.1 -23.15 16.0 -23.2 16.8 -23.2 17.6 -23.25 18.4 -23.3 19.15 -23.3 19.9 -23.35 20.65 -23.35 21.3 -23.4 22.0 -23.4 22.65 -23.4 23.3 -23.45 23.85 -23.45 24.45 -23.45 25.55 -23.5 26.6 -23.5 27.65 -23.5 28.65 -23.45 29.6 -23.45 30.55 -23.45 31.45 -23.4 32.3 -23.4 33.15 -23.35 33.95 -23.3 34.75 -23.25 35.55 -23.25 36.25 -23.2 37.0 -23.15 37.65 -23.05 38.35 -22.6 44.2 -21.95 48.55 -21.9 48.8 -21.85 49.05 -21.85 49.3 -21.8 49.55 -21.75 49.8 -21.7 50.05 -21.7 50.25 -21.65 50.5 -21.6 50.7 -21.6 50.9 -21.55 51.1 -21.5 51.3 -21.5 51.5 -21.45 51.7 -21.4 51.85 -21.4 52.05 -21.15 53.25 -21.0 54.2 -20.8 55.25 -20.6 56.15 -20.4 57.1 -20.2 57.95 -20.0 58.8 -19.8 59.6 -19.55 60.45 -19.3 61.25 -19.05 62.1 -18.75 62.9 -18.5 63.75 -18.15 64.65 -17.8 65.55 -17.45 66.5 -17.15 67.15 -16.9 67.75 -16.7 68.2 -16.5 68.75 -16.2 69.4 -16.2 69.5 -16.05 69.8 -15.95 70.0 -15.85 70.25 -15.75 70.35 -15.7 70.5 -15.6 70.6 -15.55 70.7 -15.45 70.75 -15.35 70.8 -15.25 70.85 -15.2 71.0 -15.15 71.25 -15.2 71.3 -15.2 71.35 -15.25 71.4 -15.25 71.5 -15.3 71.55 -15.3 71.65 -15.8 73.3 -15.35 71.75 -15.35 71.85 -15.4 71.9 -15.4 71.95 -15.45 72.05 -15.45 72.1 -15.5 72.15 -15.55 72.2 -15.6 72.25 -15.75 72.35 -15.95 72.4 -16.1 72.4 -16.25 72.35 -16.4 72.3 -16.55 72.2 -16.7 72.1 -16.8 71.95 -16.95 71.8 -17.05 71.6 -17.15 71.5 -17.3 71.25 -17.45 71.05 -17.5 70.95 -17.6 70.8 -17.65 70.75 -18.2 70.0 -18.7 69.2 -19.2 68.4 -19.65 67.6 -20.1 66.85 -20.55 66.05 -20.95 65.3 -21.4 64.45 -21.8 63.7 -22.2 62.8 -22.55 62.1 -23.05 61.15 -23.15 60.95 -23.85 59.5 -24.35 58.45 -24.7 57.75 -24.75 58.05 -24.75 58.4 -24.8 58.7 -24.75 59.05 -24.75 59.3 -24.7 59.75 -24.6 60.25 -24.6 60.4 -24.55 60.8 -24.55 61.05 -24.55 61.35 -24.65 61.55 -24.7 61.8 -24.8 62.0 -24.95 62.15 -25.15 62.25 -25.25 62.25 -25.4 62.25 -25.5 62.2 -25.65 62.15 -25.8 62.1 -25.95 62.0 -26.1 61.9 -26.25 61.8 -26.4 61.7 -26.55 61.6 -26.65 61.55 -26.8 61.4 -27.0 61.3 -27.05 61.25 -27.15 61.15 -27.2 61.15 -27.6 60.85 -27.95 60.55 -28.3 60.25 -28.65 59.95 -29.0 59.6 -29.35 59.3 -29.65 58.95 -29.95 58.6 -30.25 58.25 -30.55 57.85 -30.8 57.5 -31.05 57.1 -31.3 56.65 -31.55 56.25 -31.75 55.8 -31.9 55.35 -32.05 55.0 -32.2 54.6 -32.3 54.2 -32.4 53.8 -32.5 53.45 -32.6 53.0 -32.65 52.65 -32.75 52.25 -32.8 51.9 -32.85 51.45 -32.9 51.2 -33.0 50.65 -33.05 50.1 -33.1 49.85 -33.15 49.45 -33.25 49.05 -33.55 47.3 -33.8 45.65 -34.1 44.0 -34.35 42.35 -34.6 40.7 -34.8 39.1 -35.05 37.5 -35.25 35.9 -35.5 34.3 -35.7 32.7 -35.9 31.1 -36.1 29.5 -36.25 27.9 -36.45 26.25 -36.6 24.65 -36.75 23.0 -37.4 15.35 -37.45 10.6 -37.45 10.4 -37.5 9.55 -37.6 8.7 -37.6 8.1 -37.6 7.6 -37.6 7.05 -37.65 6.55 -37.65 6.1 -37.65 5.6 -37.65 5.15 -37.65 4.7 -37.6 4.3 -37.6 3.9 -37.6 3.5 -37.6 3.1 -37.55 2.75 -37.55 2.4 -37.55 2.05 -37.5 1.75 -37.5 1.45 -37.4 -5.45 -36.9 -10.15 -36.8 -11.1 -36.7 -12.25 -36.6 -14.05 -36.65 -13.55 -36.55 -14.75 -36.4 -16.15 -36.2 -17.8 -35.85 -19.55 -35.5 -21.55 -35.05 -23.65 -34.55 -25.95 -33.9 -28.3 -33.2 -30.9 -32.35 -33.4 -31.4 -36.2 -30.35 -38.9 -29.15 -41.8 -27.85 -44.6 -26.4 -47.65 -24.8 -50.5 -24.25 -51.45 -23.75 -52.3 -23.25 -53.15 -22.75 -53.9 -22.3 -54.6 -21.85 -55.3 -21.45 -55.9 -21.05 -56.45 -20.7 -56.95 -20.35 -57.4 -20.0 -57.8 -19.7 -58.2 -19.45 -58.5 -19.2 -58.85 -19.05 -59.05 -18.8 -59.3 -17.6 -60.7 -15.75 -62.5 -19.95 -58.5 -11.3 -66.65 -11.05 -66.85 -10.55 -67.3 L-10.55 -67.3" fill="#140a25" fill-rule="evenodd" stroke="none"/>
  </g>
</svg>
