<?xml version="1.0" encoding="UTF-8" standalone="no"?>
<svg xmlns:xlink="http://www.w3.org/1999/xlink" height="148.65px" width="140.0px" xmlns="http://www.w3.org/2000/svg">
  <g transform="matrix(1.0, 0.0, 0.0, 1.0, 70.0, 74.3)">
    <path d="M44.0 -28.9 Q43.95 -30.2 43.95 -32.45 43.95 -35.0 43.9 -36.0 43.9 -36.65 43.8 -42.05 43.65 -49.95 44.0 -55.0 44.05 -55.8 44.15 -56.55 44.2 -57.35 44.3 -58.1 44.4 -58.9 44.5 -59.65 44.6 -60.45 44.75 -61.2 44.9 -61.95 45.05 -62.7 45.2 -63.5 45.35 -64.25 45.55 -65.0 45.75 -65.75 45.95 -66.5 46.15 -67.25 45.0 -67.35 43.95 -67.5 43.05 -67.65 42.15 -67.85 41.45 -68.0 40.55 -68.25 41.8 -67.9 39.05 -68.7 38.1 -69.0 37.4 -69.15 36.45 -69.4 35.5 -69.55 34.4 -69.75 33.2 -69.9 31.85 -70.0 30.25 -70.05 29.05 -70.1 28.45 -70.1 27.5 -70.15 26.7 -70.15 25.8 -70.2 25.05 -70.15 24.15 -70.15 23.4 -70.1 22.55 -70.05 21.75 -69.95 20.9 -69.85 20.1 -69.7 19.25 -69.55 18.45 -69.3 17.6 -69.05 16.7 -68.75 15.3 -68.25 13.9 -67.6 12.65 -67.0 11.45 -66.2 10.3 -65.5 9.2 -64.65 8.2 -63.9 7.2 -63.0 6.35 -62.2 5.45 -61.25 4.7 -60.45 3.9 -59.55 3.2 -58.75 2.5 -57.85 2.05 -57.3 1.25 -56.3 0.65 -55.5 0.05 -54.75 -0.45 -54.0 -1.0 -53.2 -1.45 -52.5 -1.9 -51.7 -2.35 -51.0 -2.75 -50.25 -3.15 -49.55 -3.55 -48.8 -3.9 -48.15 -4.25 -47.4 -4.6 -46.75 -4.95 -45.95 -5.2 -45.45 -5.65 -44.5 -6.2 -43.35 -6.7 -42.15 -7.2 -41.05 -7.65 -39.9 -8.1 -38.8 -8.5 -37.65 -8.85 -36.6 -9.25 -35.5 -9.6 -34.45 -9.95 -33.35 -10.25 -32.35 -10.55 -31.2 -10.85 -30.25 -11.2 -29.1 -11.4 -28.4 -11.8 -26.95 -13.4 -21.2 -13.85 -18.2 -14.3 -15.45 -14.7 -6.05 -15.15 4.35 -15.15 4.85 -15.2 6.15 -15.2 7.4 -15.2 8.6 -15.2 9.8 -15.2 10.9 -15.15 12.0 -15.15 12.95 -15.1 13.9 -15.1 14.75 -15.05 15.6 -15.05 16.3 -15.0 16.95 -15.0 17.5 -14.95 18.0 -14.95 18.35 -14.95 18.7 -14.45 27.35 -12.25 40.6 -12.15 41.3 -12.0 42.05 -11.85 42.8 -11.75 43.6 -11.6 44.4 -11.45 45.25 -11.3 46.15 -11.1 47.0 -10.95 47.95 -10.75 48.9 -10.55 49.85 -10.35 50.85 -10.15 51.85 -9.95 52.9 -9.7 53.95 -9.5 55.0 -9.45 55.15 -9.4 55.3 -9.35 55.5 -9.3 55.65 -9.2 55.9 -9.15 56.1 -9.05 56.35 -8.9 56.6 -8.8 56.85 -8.65 57.1 -8.45 57.35 -8.3 57.65 -8.1 57.9 -7.85 58.15 -7.6 58.45 -7.35 58.7 -7.1 58.9 -6.9 59.1 -6.65 59.3 -6.4 59.45 -6.2 59.6 -5.95 59.7 -5.75 59.85 -5.5 59.95 -5.3 60.05 -5.1 60.15 -4.9 60.2 -4.75 60.25 -4.55 60.35 -4.4 60.4 -4.25 60.4 -4.15 60.45 -3.9 58.8 -3.5 55.5 -1.5 59.35 2.6 67.3 2.3 66.15 2.0 65.0 1.75 63.9 1.5 62.8 1.25 61.7 1.0 60.65 0.8 59.6 0.55 58.55 0.35 57.55 0.2 56.55 0.0 55.6 -0.15 54.65 -0.35 53.75 -0.5 52.85 -0.6 52.0 -0.75 51.1 -0.85 50.55 -0.9 50.05 -1.0 49.4 -1.1 48.8 -1.2 48.05 -1.3 47.35 -1.4 46.55 -1.5 45.75 -1.6 44.9 -1.7 44.05 -1.8 43.1 -1.85 42.15 -1.95 41.15 -2.05 40.15 -2.15 39.1 -2.2 38.0 -2.6 32.3 -2.6 22.25 -2.6 17.75 -2.45 14.2 -2.25 10.05 -2.0 6.7 -1.95 5.85 -1.85 4.95 -1.75 4.15 -1.7 3.3 -1.6 2.55 -1.55 1.8 -1.45 1.15 -1.4 0.45 -1.3 -0.15 -1.25 -0.75 -1.15 -1.25 -1.1 -1.75 -1.05 -2.2 -1.0 -2.6 -0.95 -2.95 -0.9 -3.25 -0.45 -6.8 0.45 -11.85 1.0 -15.0 1.4 -16.6 1.4 -16.75 1.8 -18.2 1.95 -18.75 2.1 -19.8 2.05 -19.45 2.2 -20.55 2.25 -20.95 2.3 -21.25 2.35 -21.65 2.4 -21.95 2.45 -22.35 2.55 -22.65 2.6 -23.0 2.7 -23.35 2.8 -23.7 2.95 -24.05 3.1 -24.4 3.3 -24.75 3.45 -25.15 3.7 -25.5 3.8 -25.7 3.95 -25.85 4.05 -26.05 4.2 -26.2 4.3 -26.35 4.4 -26.5 4.55 -26.65 4.65 -26.75 4.75 -26.9 4.9 -27.05 5.0 -27.15 5.1 -27.25 5.2 -27.35 5.35 -27.45 5.45 -27.55 5.55 -27.65 5.5 -27.1 5.5 -26.55 5.5 -25.95 5.45 -25.4 5.45 -24.8 5.45 -24.15 5.45 -23.55 5.5 -22.95 5.5 -22.3 5.55 -21.65 5.6 -20.95 5.65 -20.3 5.7 -19.6 5.75 -18.95 5.8 -18.25 5.9 -17.5 5.95 -16.95 6.05 -16.45 6.15 -15.9 6.2 -15.4 6.3 -14.85 6.4 -14.35 6.5 -13.85 6.6 -13.35 6.7 -12.9 6.8 -12.4 6.9 -11.95 7.0 -11.5 7.1 -11.05 7.2 -10.6 7.35 -10.15 7.45 -9.7 7.4 -10.05 7.35 -10.4 7.3 -10.75 7.3 -11.15 7.25 -11.55 7.2 -11.95 7.2 -12.4 7.2 -12.85 7.15 -13.3 7.15 -13.75 7.2 -14.25 7.2 -14.75 7.2 -15.3 7.25 -15.8 7.3 -16.35 7.35 -16.9 7.4 -17.5 7.5 -18.1 7.6 -18.75 7.75 -19.35 7.85 -19.95 8.0 -20.5 8.15 -21.05 8.25 -21.55 8.4 -22.05 8.55 -22.45 8.7 -22.85 8.85 -23.15 9.0 -23.45 9.1 -23.6 9.25 -23.75 9.35 -23.75 9.45 -23.75 9.5 -23.65 9.55 -23.55 9.6 -23.35 9.65 -23.15 9.7 -22.85 9.75 -22.6 9.8 -22.2 9.85 -21.9 9.9 -21.4 9.95 -20.65 10.0 -20.4 10.05 -19.8 10.1 -19.3 10.2 -18.65 10.3 -18.05 10.4 -17.4 10.5 -16.8 10.6 -16.2 10.7 -15.6 10.8 -15.0 10.9 -14.45 11.0 -13.9 11.15 -13.4 11.25 -12.9 11.35 -12.4 11.45 -11.95 11.6 -11.45 11.7 -11.05 11.8 -10.6 11.95 -10.25 12.05 -9.85 12.25 -9.8 12.4 -9.75 12.6 -9.7 12.85 -9.65 13.05 -9.6 13.25 -9.55 13.5 -9.5 13.75 -9.45 13.95 -9.4 14.2 -9.4 14.5 -9.35 14.75 -9.35 15.0 -9.3 15.3 -9.3 15.6 -9.25 15.85 -9.25 16.15 -9.25 16.45 -9.25 16.7 -9.25 17.0 -9.25 17.25 -9.25 17.55 -9.3 17.8 -9.3 18.05 -9.35 18.3 -9.35 18.5 -9.4 18.75 -9.45 18.95 -9.45 19.2 -9.5 19.4 -9.55 19.6 -9.6 19.75 -9.65 19.75 -10.5 19.6 -12.75 19.35 -18.95 19.25 -23.5 19.3 -23.0 19.4 -22.45 19.5 -21.95 19.6 -21.5 19.7 -21.0 19.8 -20.55 19.95 -20.1 20.05 -19.7 20.15 -19.3 20.3 -18.9 20.45 -18.5 20.55 -18.15 20.7 -17.8 20.8 -17.45 20.95 -17.15 21.1 -16.85 21.25 -16.5 21.35 -16.25 21.5 -15.85 21.65 -15.55 21.85 -15.15 22.05 -14.75 22.3 -14.3 22.5 -13.9 22.8 -13.45 23.1 -13.0 23.4 -12.5 23.75 -12.05 24.1 -11.55 24.5 -11.05 24.9 -10.55 25.35 -10.1 25.45 -10.0 25.55 -9.9 25.65 -9.8 25.75 -9.65 25.85 -9.6 25.95 -9.5 26.05 -9.4 26.15 -9.3 26.25 -9.2 26.35 -9.15 26.45 -9.05 26.5 -9.0 26.6 -8.9 26.65 -8.85 26.75 -8.8 26.8 -8.7 26.75 -9.0 26.2 -11.4 25.8 -13.25 25.6 -14.05 25.3 -15.4 25.1 -16.4 24.85 -17.55 24.7 -18.45 24.5 -19.45 24.3 -20.3 24.15 -21.2 24.05 -22.0 23.9 -22.8 23.8 -23.55 23.75 -24.3 23.7 -25.0 23.6 -25.7 23.6 -26.4 23.6 -26.9 23.6 -27.4 23.6 -27.95 23.6 -28.5 23.65 -29.1 23.7 -29.7 23.75 -30.35 23.8 -31.0 23.9 -31.7 24.0 -32.4 24.15 -33.1 24.3 -33.85 24.45 -34.65 24.65 -35.4 24.9 -36.25 25.15 -37.05 25.2 -36.2 25.25 -35.4 25.35 -34.5 25.45 -33.6 25.55 -32.7 25.65 -31.75 25.8 -30.8 25.95 -29.85 26.15 -28.85 26.35 -27.85 26.55 -26.85 26.75 -25.8 27.0 -24.75 27.3 -23.7 27.55 -22.6 27.9 -21.5 28.1 -20.85 28.3 -20.2 28.5 -19.55 28.7 -18.95 28.9 -18.3 29.15 -17.7 29.35 -17.1 29.6 -16.5 29.8 -15.95 30.05 -15.35 30.25 -14.8 30.5 -14.25 30.7 -13.7 30.95 -13.2 31.2 -12.65 31.4 -12.15 31.35 -12.4 31.35 -12.65 31.3 -12.9 31.25 -13.2 31.2 -13.5 31.15 -13.8 31.1 -14.1 31.05 -14.45 31.0 -14.8 30.9 -15.15 30.85 -15.5 30.75 -15.85 30.7 -16.25 30.6 -16.65 30.5 -17.05 30.4 -17.45 30.2 -18.4 29.8 -19.9 29.5 -20.9 29.45 -21.6 29.4 -21.9 29.35 -22.25 29.35 -22.55 29.3 -22.9 29.3 -23.3 29.3 -23.7 29.3 -24.1 29.35 -24.5 29.4 -24.95 29.45 -25.4 29.55 -25.9 29.65 -26.35 29.75 -26.85 29.9 -27.4 30.05 -27.95 30.25 -28.5 30.35 -27.65 30.5 -26.8 30.6 -25.9 30.8 -25.0 31.0 -24.05 31.2 -23.1 31.45 -22.1 31.75 -21.1 32.05 -20.1 32.4 -19.05 32.75 -18.0 33.2 -16.95 33.65 -15.85 34.2 -14.8 34.7 -13.7 35.35 -12.6 35.5 -12.35 35.65 -12.1 35.8 -11.8 35.95 -11.55 36.1 -11.3 36.25 -11.05 36.4 -10.8 36.55 -10.55 36.75 -10.35 36.9 -10.1 37.05 -9.85 37.2 -9.6 37.35 -9.4 37.55 -9.15 37.7 -8.95 37.85 -8.7 38.55 -8.45 39.1 -8.35 39.45 -8.25 39.8 -8.2 40.15 -8.1 40.55 -8.05 40.85 -8.05 41.2 -8.0 41.55 -8.0 41.85 -8.0 42.15 -8.0 42.5 -8.0 42.8 -8.0 43.05 -8.05 43.35 -8.05 43.6 -8.1 43.9 -8.15 44.15 -8.2 44.35 -9.65 44.7 -12.55 44.65 -15.4 44.35 -20.7 44.1 -26.3 44.0 -28.9 L44.0 -28.9" fill="#54c2be" fill-rule="evenodd" stroke="none"/>
  </g>
</svg>
