<?xml version="1.0" encoding="UTF-8" standalone="no"?>
<svg xmlns:xlink="http://www.w3.org/1999/xlink" height="119.9px" width="50.95px" xmlns="http://www.w3.org/2000/svg">
  <g transform="matrix(1.0, 0.0, 0.0, 1.0, -61.9, 65.9)">
    <path d="M110.85 13.4 Q110.75 7.9 110.35 -2.05 110.05 -8.35 110.05 -8.7 109.4 -15.55 105.3 -29.8 103.0 -37.5 102.45 -39.15 102.0 -40.4 101.7 -41.15 101.3 -42.35 100.9 -43.3 100.45 -44.45 100.0 -45.55 99.5 -46.7 99.0 -47.85 98.4 -49.05 97.8 -50.2 97.15 -51.45 96.5 -52.65 95.75 -53.95 94.95 -55.15 94.1 -56.45 93.2 -57.65 92.5 -58.6 92.2 -59.0 91.65 -59.75 91.2 -60.3 90.7 -60.95 90.25 -61.45 89.75 -62.05 89.3 -62.55 88.8 -63.05 88.3 -63.55 87.8 -64.05 87.25 -64.45 86.65 -64.95 86.05 -65.35 85.45 -65.8 84.75 -66.15 83.9 -66.65 82.95 -67.1 82.1 -67.5 81.2 -67.8 80.35 -68.1 79.5 -68.35 78.7 -68.55 77.9 -68.75 77.2 -68.9 76.45 -69.0 75.85 -69.1 75.2 -69.15 74.7 -69.25 74.15 -69.25 73.8 -69.3 73.35 -69.3 72.85 -69.35 72.35 -69.35 71.85 -69.35 71.4 -69.3 70.95 -69.3 70.5 -69.3 70.05 -69.25 69.6 -69.2 69.2 -69.15 68.75 -69.1 68.4 -69.05 67.9 -69.0 67.6 -68.95 67.0 -68.85 66.3 -68.75 66.05 -68.7 60.6 -67.85 56.7 -67.5 56.9 -67.1 57.1 -66.65 57.3 -66.25 57.5 -65.85 57.7 -65.4 57.9 -65.0 58.1 -64.6 58.25 -64.15 58.45 -63.75 58.6 -63.3 58.8 -62.9 58.95 -62.45 59.1 -62.05 59.3 -61.6 59.45 -61.15 59.6 -60.75 59.7 -60.5 59.75 -60.3 59.85 -60.05 59.9 -59.8 60.0 -59.55 60.05 -59.3 60.15 -59.1 60.2 -58.85 60.25 -58.6 60.35 -58.35 60.4 -58.15 60.45 -57.9 60.55 -57.65 60.6 -57.4 60.65 -57.15 60.7 -56.9 61.25 -54.75 61.7 -53.05 63.3 -47.05 63.75 -45.0 63.8 -44.7 63.9 -44.45 63.95 -44.15 64.0 -43.9 64.1 -43.6 64.15 -43.3 64.2 -43.05 64.25 -42.75 64.3 -42.45 64.35 -42.2 64.45 -41.9 64.5 -41.6 64.55 -41.35 64.6 -41.05 64.65 -40.75 64.7 -40.5 64.7 -40.5 64.7 -40.6 65.15 -39.5 65.6 -38.35 66.0 -37.3 66.35 -36.25 66.7 -35.25 67.0 -34.25 67.3 -33.25 67.55 -32.3 67.75 -31.4 68.0 -30.55 68.15 -29.7 68.35 -28.85 68.5 -28.1 68.6 -27.35 68.7 -26.65 68.8 -25.95 69.4 -21.7 69.5 -14.75 69.5 -14.25 69.5 -13.8 69.5 -13.3 69.5 -12.85 69.5 -12.4 69.5 -12.0 69.5 -11.55 69.5 -11.15 69.5 -10.75 69.5 -10.35 69.5 -10.0 69.45 -9.65 69.45 -9.3 69.45 -8.95 69.45 -8.65 69.45 -8.35 69.75 -8.8 70.0 -9.25 70.3 -9.75 70.6 -10.25 70.9 -10.8 71.2 -11.35 71.5 -11.9 71.75 -12.5 72.05 -13.15 72.35 -13.75 72.65 -14.4 72.9 -15.1 73.2 -15.8 73.45 -16.5 73.7 -17.25 73.95 -18.0 74.15 -18.55 74.3 -19.15 74.45 -19.7 74.6 -20.25 74.75 -20.8 74.85 -21.35 74.95 -21.85 75.05 -22.4 75.15 -22.9 75.25 -23.4 75.35 -23.9 75.4 -24.35 75.5 -24.85 75.55 -25.3 75.6 -25.75 75.65 -26.2 75.75 -25.75 75.9 -25.35 76.0 -24.85 76.1 -24.4 76.2 -23.9 76.3 -23.35 76.4 -22.85 76.5 -22.3 76.6 -21.7 76.65 -21.15 76.75 -20.5 76.8 -19.9 76.85 -19.25 76.9 -18.65 76.95 -17.95 76.95 -17.3 76.95 -16.7 76.95 -16.1 76.9 -15.5 76.9 -14.9 76.85 -14.35 76.8 -13.8 76.75 -13.3 76.7 -12.75 76.6 -12.25 76.55 -11.75 76.45 -11.25 76.4 -10.8 76.3 -10.35 76.2 -9.9 76.1 -9.5 76.0 -9.1 76.3 -9.05 76.85 -9.0 80.95 -8.65 86.3 -8.1 86.45 -8.75 86.6 -9.35 86.75 -10.0 86.9 -10.65 87.05 -11.3 87.2 -12.0 87.35 -12.65 87.5 -13.3 87.65 -14.0 87.8 -14.7 87.95 -15.4 88.05 -16.05 88.2 -16.75 88.35 -17.45 88.45 -18.2 88.6 -18.9 88.7 -19.4 88.75 -19.85 88.85 -20.35 88.9 -20.8 88.95 -21.3 89.05 -21.75 89.1 -22.25 89.2 -22.7 89.25 -23.15 89.3 -23.6 89.35 -24.1 89.45 -24.55 89.5 -25.0 89.55 -25.45 89.6 -25.9 89.65 -26.35 89.9 -25.75 90.15 -25.2 90.45 -24.55 90.7 -23.9 90.95 -23.15 91.2 -22.4 91.45 -21.65 91.7 -20.8 91.9 -19.95 92.1 -19.1 92.3 -18.15 92.45 -17.25 92.65 -16.25 92.75 -15.25 92.85 -14.2 92.85 -13.15 92.85 -12.65 92.9 -12.1 92.9 -11.6 92.85 -11.15 92.85 -10.65 92.85 -10.15 92.8 -9.7 92.8 -9.25 92.75 -8.8 92.7 -8.35 92.65 -7.9 92.6 -7.5 92.55 -7.05 92.45 -6.65 92.4 -6.25 92.35 -5.9 92.75 -7.85 93.4 -10.35 93.75 -11.65 93.9 -12.2 94.15 -13.1 94.3 -13.75 94.5 -14.55 94.7 -15.1 94.85 -15.75 95.0 -16.2 95.15 -16.7 95.3 -17.05 95.4 -17.45 95.55 -17.65 95.65 -17.9 95.75 -18.05 95.85 -18.15 95.95 -18.15 96.05 -18.15 96.15 -17.9 96.25 -17.7 96.35 -17.2 96.45 -16.7 96.5 -15.85 96.55 -15.05 96.65 -13.8 96.7 -12.6 96.75 -10.95 96.85 -9.35 96.9 -7.1 97.0 -5.1 97.05 -2.2 97.15 0.1 97.25 3.85 97.45 10.55 97.5 13.45 97.55 14.75 97.55 14.95 97.6 16.05 97.65 17.3 97.7 18.0 97.75 19.4 97.8 20.7 97.85 21.35 97.85 22.35 97.9 23.15 97.95 24.1 97.95 24.95 97.95 25.85 98.0 26.75 98.0 27.65 97.95 28.6 97.95 29.6 97.9 30.65 97.9 32.3 97.6 36.55 97.05 46.15 96.55 50.05 96.45 50.75 96.35 51.45 96.25 52.2 96.1 53.0 95.95 53.85 95.8 54.65 95.6 55.55 95.4 56.45 95.2 57.4 94.95 58.4 94.7 59.4 94.4 60.4 94.1 61.5 93.75 62.55 93.4 63.7 93.0 64.8 93.5 63.9 94.05 62.95 94.5 62.05 95.0 61.2 95.45 60.3 95.85 59.45 96.3 58.6 96.7 57.8 97.1 57.0 97.45 56.15 97.8 55.4 98.15 54.65 98.5 53.9 98.8 53.2 99.1 52.5 99.4 51.8 99.7 51.05 99.8 50.8 100.05 50.15 100.25 49.65 100.55 49.0 100.75 48.4 101.05 47.7 101.25 47.0 101.55 46.25 101.8 45.55 102.1 44.75 102.35 43.9 102.65 43.05 102.9 42.2 103.2 41.25 103.45 40.3 103.6 39.8 103.7 39.3 103.85 38.85 103.95 38.35 104.1 37.9 104.2 37.45 104.3 37.0 104.4 36.6 104.5 36.15 104.6 35.75 104.65 35.35 104.75 35.0 104.85 34.6 104.9 34.25 105.0 33.9 105.05 33.55 105.1 34.0 105.15 34.45 105.15 34.9 105.2 35.35 105.25 35.85 105.35 36.3 105.4 36.75 105.45 37.25 105.5 37.7 105.6 38.2 105.65 38.7 105.75 39.15 105.85 39.65 105.95 40.15 106.0 40.65 106.1 41.15 106.5 43.0 106.65 43.55 106.85 43.3 107.1 43.05 107.3 42.75 107.55 42.45 107.75 42.1 108.0 41.8 108.25 41.4 108.45 41.05 108.7 40.65 108.9 40.25 109.15 39.8 109.35 39.35 109.55 38.9 109.75 38.4 109.95 37.9 110.1 37.4 110.25 36.85 110.4 36.3 110.5 35.8 110.6 35.25 110.7 34.75 110.75 34.25 110.8 33.8 110.8 33.35 110.8 32.95 110.8 32.5 110.8 32.15 110.8 31.75 110.8 31.4 110.75 31.05 110.75 30.95 110.7 30.45 110.55 28.15 110.65 26.9 110.85 24.15 110.9 23.45 111.0 20.05 110.85 13.4 L110.85 13.4" fill="#54c2be" fill-rule="evenodd" stroke="none"/>
  </g>
</svg>
