<?xml version="1.0" encoding="UTF-8" standalone="no"?>
<svg xmlns:xlink="http://www.w3.org/1999/xlink" height="200.0px" width="200.0px" xmlns="http://www.w3.org/2000/svg">
  <g transform="matrix(1.0, 0.0, 0.0, 1.0, 100.0, 100.0)">
    <path d="M54.5 91.25 Q54.5 91.35 54.5 91.4 54.5 91.5 54.5 91.55 54.5 91.65 54.5 91.7 54.5 91.75 54.5 91.85 54.55 91.9 54.55 92.0 54.55 92.05 54.6 92.15 54.6 92.15 54.65 92.3 54.65 92.35 54.65 92.45 54.7 92.65 54.75 92.8 54.8 93.0 54.85 93.2 54.95 93.35 55.0 93.55 55.05 93.75 55.15 93.95 55.2 94.1 55.25 94.3 55.35 94.45 55.4 94.65 55.5 94.85 55.55 95.0 55.65 95.2 55.75 95.35 56.45 96.95 57.6 99.25 57.65 99.3 57.65 99.4 57.65 99.45 57.7 99.5 57.7 99.55 57.7 99.6 57.7 99.65 57.7 99.7 57.7 99.8 57.7 99.8 57.75 99.9 57.75 99.95 57.75 100.0 57.75 100.05 57.8 100.1 57.8 100.15 57.9 100.35 58.0 100.5 58.05 100.65 58.2 100.8 58.3 100.95 58.4 101.05 58.5 101.15 58.65 101.25 58.55 101.15 58.9 101.45 59.05 101.6 59.15 101.65 59.3 101.8 59.4 101.95 59.55 102.1 59.7 102.25 61.15 104.6 59.8 102.4 59.85 102.5 59.9 102.6 60.0 102.75 60.05 102.9 60.15 103.05 60.2 103.25 60.3 103.45 60.35 103.65 60.4 103.85 60.4 104.05 60.45 104.3 60.45 104.55 60.45 104.8 60.4 105.05 60.35 105.2 60.35 105.2 60.35 105.3 60.35 105.35 60.3 105.45 60.3 105.55 60.25 105.65 60.2 105.75 60.15 105.85 60.15 105.95 60.1 106.0 60.05 106.1 60.0 106.15 59.9 106.2 59.85 106.25 59.8 106.25 59.65 106.25 59.5 106.15 59.4 106.05 59.25 105.85 59.15 105.7 58.95 105.35 58.65 104.85 58.6 104.7 58.35 104.3 58.15 104.0 57.85 103.6 57.55 103.25 57.2 102.8 56.8 102.5 56.35 102.1 55.85 101.75 55.35 101.5 55.35 101.5 53.05 99.7 50.95 98.1 50.8 98.0 50.65 97.85 50.5 97.75 50.35 97.65 50.2 97.5 50.05 97.4 49.9 97.3 49.75 97.15 49.6 97.05 49.45 96.9 49.3 96.8 49.15 96.65 49.05 96.55 48.9 96.4 48.75 96.3 48.6 96.15 48.4 96.0 48.25 95.8 48.1 95.65 47.9 95.45 47.75 95.3 47.6 95.1 47.45 94.95 47.3 94.75 47.15 94.55 47.0 94.35 46.85 94.15 46.75 93.95 46.6 93.75 46.45 93.55 46.35 93.35 46.25 93.15 46.15 93.0 46.1 92.8 46.0 92.65 45.95 92.5 45.9 92.3 45.85 92.15 45.8 91.95 45.75 91.8 45.7 91.6 45.7 91.45 45.65 91.25 45.6 91.1 45.6 90.9 45.6 90.75 45.6 90.55 45.6 90.35 45.6 90.0 45.55 88.55 45.55 88.3 45.55 88.05 45.6 87.8 45.65 87.55 45.65 87.35 45.7 87.1 45.75 86.85 45.85 86.65 45.9 86.4 45.95 86.15 46.05 85.95 46.15 85.7 46.25 85.5 46.35 85.25 46.45 85.05 46.55 84.8 46.6 84.7 46.7 84.55 46.75 84.45 46.8 84.35 46.9 84.2 46.95 84.1 47.05 84.0 47.1 83.85 47.2 83.75 47.3 83.65 47.35 83.55 47.45 83.4 47.5 83.3 47.6 83.2 47.7 83.1 47.8 83.0 48.0 82.75 48.2 82.5 48.45 82.25 48.65 82.0 48.85 81.75 49.1 81.5 49.3 81.25 49.55 81.0 49.75 80.75 50.0 80.5 50.2 80.25 50.45 80.0 50.7 79.8 50.9 79.55 51.15 79.3 51.4 79.1 51.65 78.85 51.9 78.6 52.15 78.3 52.4 78.05 52.65 77.8 52.9 77.5 53.1 77.25 53.35 76.95 53.55 76.65 53.75 76.35 54.0 76.1 54.2 75.75 54.4 75.5 54.6 75.15 54.8 74.9 55.0 74.55 55.75 73.35 56.1 72.6 56.15 72.5 56.2 72.35 56.25 72.25 56.3 72.15 56.35 72.05 56.4 71.9 56.45 71.8 56.5 71.7 56.55 71.55 56.55 71.45 56.6 71.3 56.65 71.2 56.65 71.1 56.7 70.95 56.75 70.85 56.75 70.7 56.75 70.7 56.75 70.6 56.8 70.55 56.8 70.5 56.8 70.45 56.8 70.4 56.75 70.35 56.75 70.35 56.65 70.3 56.55 70.35 56.55 70.35 56.4 70.45 56.1 70.6 55.8 70.75 55.5 70.9 55.2 71.05 54.9 71.2 54.55 71.35 54.25 71.5 53.95 71.65 53.65 71.75 53.3 71.9 53.0 72.0 52.65 72.15 52.35 72.25 52.05 72.4 51.75 72.5 51.4 72.6 51.2 72.65 51.0 72.75 50.8 72.8 50.65 72.85 50.45 72.9 50.25 72.95 50.05 73.0 49.85 73.0 49.65 73.05 49.45 73.05 49.25 73.1 49.05 73.1 48.85 73.1 48.65 73.1 48.45 73.1 48.25 73.1 48.25 73.1 48.0 73.05 47.95 73.05 47.9 73.05 47.9 73.0 47.85 73.0 47.85 72.95 47.8 72.95 47.8 72.9 47.8 72.85 47.8 72.8 47.8 72.25 47.8 71.9 47.8 71.65 47.8 71.55 47.8 71.5 47.8 71.4 47.8 71.35 47.8 71.25 47.85 71.2 47.9 71.15 47.9 71.1 47.95 71.05 48.0 71.0 48.05 70.95 48.1 70.95 48.15 70.9 48.25 70.85 48.3 70.85 48.35 70.8 48.65 70.7 50.0 70.05 50.35 69.9 50.7 69.7 51.05 69.55 51.35 69.35 51.7 69.15 52.0 69.0 52.35 68.8 52.65 68.6 53.0 68.35 53.3 68.15 53.65 67.95 53.95 67.7 54.25 67.5 54.55 67.25 54.85 67.0 55.1 66.75 55.25 66.65 55.35 66.5 55.5 66.4 55.6 66.25 55.75 66.15 55.85 66.0 56.0 65.9 56.1 65.75 56.25 65.65 56.35 65.5 56.45 65.35 56.55 65.2 56.65 65.1 56.75 64.95 56.85 64.8 56.95 64.65 57.15 64.3 57.35 64.0 57.55 63.65 57.7 63.35 57.9 63.0 58.05 62.65 58.25 62.3 58.4 62.0 58.6 61.65 58.75 61.3 58.9 60.95 59.05 60.6 59.2 60.25 59.35 59.95 59.5 59.55 59.6 59.2 59.7 58.9 59.8 58.6 59.9 58.3 60.0 57.95 60.1 57.65 60.15 57.35 60.25 57.0 60.3 56.7 60.4 56.4 60.45 56.05 60.5 55.75 60.55 55.4 60.6 55.1 60.65 54.75 60.7 54.45 60.75 54.1 60.8 53.85 60.8 53.6 60.8 53.35 60.85 53.05 60.85 52.8 60.85 52.55 60.8 52.3 60.8 52.05 60.8 51.8 60.75 51.5 60.75 51.3 60.7 51.0 60.65 50.8 60.6 50.5 60.6 50.3 60.55 50.0 60.45 49.45 60.35 48.9 60.25 48.3 60.1 47.75 59.95 47.2 59.85 46.65 59.7 46.1 59.55 45.55 59.4 45.0 59.2 44.45 59.05 43.95 58.85 43.4 58.7 42.85 58.5 42.3 58.35 41.8 58.15 41.2 57.85 40.3 57.5 39.4 57.15 38.5 56.8 37.6 56.45 36.7 56.1 35.8 55.75 34.95 55.4 34.05 55.05 33.15 54.65 32.25 54.3 31.4 53.9 30.5 53.55 29.6 53.15 28.7 52.8 27.85 52.4 26.95 51.75 25.5 49.75 20.95 48.1 17.25 47.1 15.0 45.55 11.45 44.55 8.7 44.35 8.15 44.2 7.6 44.0 7.05 43.8 6.5 43.65 5.95 43.5 5.4 43.35 4.85 43.2 4.25 43.05 3.7 42.9 3.15 42.75 2.6 42.65 2.05 42.55 1.45 42.4 0.9 42.3 0.3 42.2 -0.25 42.1 -0.8 42.0 -1.35 41.95 -1.95 41.85 -2.5 41.8 -3.05 41.75 -3.6 41.65 -4.15 41.6 -4.75 41.55 -5.3 41.55 -5.85 41.5 -6.4 41.45 -7.0 41.45 -7.55 41.45 -8.1 41.4 -8.7 41.4 -9.25 41.4 -14.9 41.5 -19.5 41.5 -19.75 41.5 -20.0 41.5 -20.25 41.45 -20.5 41.45 -20.8 41.4 -21.05 41.4 -21.3 41.35 -21.5 41.3 -21.75 41.2 -22.0 41.15 -22.25 41.05 -22.5 40.95 -22.75 40.85 -22.95 40.75 -23.2 40.65 -23.45 40.5 -23.7 40.4 -23.9 40.25 -24.1 40.1 -24.3 39.95 -24.45 39.75 -24.65 39.6 -24.8 39.4 -24.95 39.25 -25.1 39.0 -25.2 38.8 -25.35 38.6 -25.45 38.4 -25.55 38.15 -25.65 37.9 -25.75 37.65 -25.8 37.6 -25.8 37.55 -25.8 37.5 -25.8 37.45 -25.8 37.45 -25.85 37.4 -25.85 37.35 -25.85 37.3 -25.85 37.25 -25.85 37.2 -25.85 37.15 -25.85 37.1 -25.8 37.05 -25.8 37.0 -25.8 37.0 -25.8 36.95 -25.8 36.6 -25.75 36.2 -25.65 35.85 -25.55 35.5 -25.45 35.15 -25.35 34.8 -25.25 34.45 -25.15 34.1 -25.0 33.8 -24.85 33.45 -24.75 33.1 -24.6 32.8 -24.45 32.45 -24.3 32.1 -24.1 31.8 -23.95 31.5 -23.75 31.25 -23.6 30.95 -23.45 30.7 -23.3 30.45 -23.15 30.2 -23.0 29.95 -22.85 29.7 -22.65 29.45 -22.5 29.2 -22.35 28.95 -22.15 28.7 -22.0 28.45 -21.8 28.25 -21.6 28.0 -21.45 27.75 -21.25 27.5 -21.05 24.05 -18.35 23.7 -18.1 23.6 -18.0 23.5 -17.95 23.4 -17.9 23.3 -17.8 23.2 -17.75 23.1 -17.7 23.0 -17.65 22.9 -17.6 22.8 -17.6 22.65 -17.55 22.55 -17.55 22.45 -17.5 22.35 -17.5 22.2 -17.5 22.1 -17.45 21.95 -17.45 21.85 -17.45 21.8 -17.45 21.7 -17.45 21.6 -17.45 21.5 -17.45 21.4 -17.45 21.35 -17.45 21.25 -17.45 21.15 -17.45 21.05 -17.45 20.95 -17.45 20.9 -17.45 20.8 -17.45 20.7 -17.4 20.6 -17.4 20.5 -17.4 20.15 -17.35 19.3 -17.4 19.25 -17.4 19.2 -17.4 19.15 -17.4 19.15 -17.45 19.1 -17.45 19.05 -17.45 19.05 -17.5 19.0 -17.5 19.0 -17.5 18.95 -17.55 18.95 -17.6 18.95 -17.65 18.95 -17.65 18.95 -17.7 18.9 -17.75 18.9 -17.8 18.9 -17.85 18.9 -17.9 18.9 -19.15 18.95 -19.25 19.0 -19.4 19.85 -20.15 23.9 -23.8 26.9 -26.05 27.25 -26.3 27.55 -26.55 27.9 -26.75 28.25 -27.0 28.6 -27.2 28.9 -27.45 29.25 -27.65 29.6 -27.85 29.95 -28.05 30.3 -28.25 30.7 -28.45 31.05 -28.65 31.4 -28.85 31.75 -29.0 32.15 -29.2 32.5 -29.35 32.8 -29.45 33.1 -29.6 33.35 -29.7 33.65 -29.8 33.95 -29.9 34.25 -30.0 34.55 -30.1 34.85 -30.15 35.1 -30.25 35.4 -30.3 35.7 -30.4 36.0 -30.45 36.3 -30.5 36.65 -30.55 36.95 -30.65 37.25 -30.7 37.5 -30.75 37.7 -30.75 37.95 -30.8 38.2 -30.8 38.45 -30.85 38.7 -30.85 38.9 -30.85 39.15 -30.9 39.4 -30.9 39.65 -30.9 39.9 -30.9 40.1 -30.9 40.35 -30.9 40.6 -30.9 40.85 -30.9 41.1 -30.9 41.25 -30.9 41.35 -30.9 41.5 -30.9 41.65 -30.85 41.75 -30.85 41.9 -30.85 42.05 -30.85 42.2 -30.8 42.3 -30.8 42.45 -30.8 42.6 -30.75 42.7 -30.75 42.85 -30.7 43.0 -30.7 43.1 -30.65 43.25 -30.6 43.6 -30.5 43.9 -30.4 44.25 -30.3 44.55 -30.15 44.85 -30.05 45.15 -29.85 45.45 -29.7 45.7 -29.5 45.95 -29.3 46.2 -29.1 46.45 -28.9 46.7 -28.65 46.95 -28.4 47.15 -28.15 47.35 -27.85 47.55 -27.6 47.7 -27.4 47.8 -27.2 47.95 -27.0 48.05 -26.8 48.2 -26.6 48.3 -26.35 48.4 -26.15 48.5 -25.95 48.6 -25.75 48.75 -25.55 48.85 -25.3 48.9 -25.1 49.0 -24.9 49.1 -24.65 49.2 -24.45 49.3 -24.2 49.4 -23.9 49.55 -23.55 49.65 -23.25 49.75 -22.95 49.9 -22.6 50.0 -22.3 50.1 -21.95 50.2 -21.65 50.3 -21.3 50.4 -21.0 50.5 -20.65 50.6 -20.35 50.7 -20.0 50.8 -19.7 50.9 -19.35 51.0 -19.05 52.05 -15.15 54.55 -8.65 56.4 -3.65 57.15 -1.6 58.9 2.95 59.4 4.0 59.8 4.9 61.3 7.85 61.55 8.3 61.75 8.75 62.0 9.2 62.2 9.7 62.45 10.15 62.65 10.6 62.9 11.05 63.1 11.55 63.3 12.0 63.55 12.45 63.75 12.95 63.95 13.4 64.2 13.85 64.4 14.35 64.6 14.8 64.8 15.3 67.35 21.25 68.5 24.35 69.05 25.8 70.4 29.6 70.9 31.1 71.7 33.4 72.8 36.55 73.05 37.2 73.2 37.7 73.35 38.15 73.55 38.65 73.7 39.1 73.85 39.6 74.0 40.1 74.15 40.55 74.3 41.05 74.45 41.55 74.6 42.0 74.75 42.5 74.9 43.0 75.05 43.5 75.15 43.95 75.3 44.45 75.45 44.95 75.75 46.1 76.0 47.95 76.05 48.25 76.05 49.5 76.05 49.55 76.05 49.6 76.05 49.65 76.0 49.65 76.0 49.7 76.0 49.7 76.0 49.75 75.95 49.75 75.95 49.8 75.9 49.8 75.9 49.85 75.85 49.85 75.8 49.85 75.8 49.85 75.75 49.9 75.7 49.9 75.65 49.9 75.65 49.9 75.6 49.9 75.55 49.9 75.5 49.9 75.45 49.9 75.45 49.9 75.4 49.9 75.3 49.9 75.3 49.9 75.25 49.9 75.2 49.9 75.15 49.9 75.1 49.9 75.1 49.9 75.05 49.95 75.0 49.95 75.0 50.0 74.95 50.05 74.95 50.1 74.9 50.1 74.9 50.15 74.9 50.2 74.9 50.25 74.9 50.3 74.9 50.35 74.9 50.4 74.9 50.45 74.9 50.5 74.9 50.55 74.9 50.6 74.9 50.65 74.95 50.7 74.95 50.75 74.95 51.2 74.95 51.65 74.95 52.1 74.95 52.55 74.9 53.05 74.9 53.5 74.85 53.95 74.8 54.4 74.75 54.85 74.65 55.25 74.6 55.7 74.5 56.15 74.4 56.6 74.3 57.05 74.2 57.5 74.05 57.95 73.95 58.25 73.85 58.55 73.75 58.85 73.65 59.15 73.55 59.45 73.4 59.75 73.3 60.05 73.2 60.35 73.05 60.65 72.9 60.9 72.8 61.2 72.65 61.5 72.5 61.8 72.35 62.05 72.25 62.35 72.05 62.65 71.15 64.4 68.8 68.8 68.75 68.85 68.7 69.0 68.65 69.1 68.6 69.15 68.45 69.4 68.3 69.65 68.2 69.9 68.0 70.1 67.85 70.35 67.7 70.55 67.55 70.8 67.35 71.0 67.2 71.25 67.0 71.45 66.85 71.65 66.65 71.85 66.45 72.05 66.25 72.25 66.05 72.45 65.85 72.65 65.65 72.85 65.4 73.05 65.2 73.25 65.0 73.45 64.8 73.65 64.6 73.85 64.4 74.05 64.2 74.25 64.0 74.45 63.8 74.65 63.6 74.9 63.45 75.1 63.25 75.3 63.05 75.55 62.9 75.75 62.75 76.0 62.5 76.35 62.25 76.7 62.0 77.1 61.8 77.45 61.6 77.85 61.4 78.25 61.2 78.6 61.05 79.0 60.85 79.4 60.75 79.8 60.6 80.2 60.45 80.65 60.35 81.05 60.25 81.45 60.15 81.9 60.1 82.35 60.05 82.75 60.0 83.15 59.95 83.55 59.95 83.95 59.95 84.35 60.0 84.75 60.0 85.15 60.05 85.55 60.1 85.95 60.15 86.35 60.25 86.75 60.35 87.1 60.45 87.5 60.55 87.9 60.65 88.3 60.8 88.7 61.0 89.25 61.25 89.8 61.5 90.35 61.75 90.85 62.05 91.4 62.35 91.85 62.7 92.35 63.05 92.85 63.4 93.3 63.75 93.75 64.15 94.15 64.6 94.6 65.0 95.0 65.45 95.35 65.9 95.75 66.4 96.1 66.45 96.15 67.2 96.7 67.65 97.05 67.95 97.25 68.05 97.35 68.15 97.4 68.25 97.5 68.35 97.6 68.45 97.7 68.55 97.75 68.65 97.85 68.75 97.95 68.85 98.05 68.95 98.15 69.05 98.25 69.15 98.35 69.25 98.45 69.3 98.55 69.4 98.65 69.5 98.75 69.6 98.9 69.7 99.05 69.8 99.15 69.9 99.3 70.0 99.45 70.1 99.6 70.15 99.75 70.2 99.9 70.3 100.1 70.35 100.25 70.4 100.4 70.45 100.55 70.5 100.75 70.5 100.9 70.55 101.1 70.55 101.25 70.6 101.55 70.6 101.85 70.65 102.15 70.65 102.45 70.7 102.75 70.7 103.05 70.7 103.35 70.7 103.65 70.7 103.95 70.7 104.25 70.7 104.55 70.7 104.85 70.7 105.15 70.65 105.45 70.65 105.75 70.6 106.05 70.6 106.2 70.55 106.4 70.55 106.55 70.5 106.7 70.5 106.9 70.45 107.05 70.45 107.2 70.4 107.35 70.35 107.5 70.3 107.7 70.25 107.85 70.2 108.0 70.15 108.15 70.1 108.3 70.05 108.45 70.0 108.65 69.7 109.35 69.35 110.05 69.05 110.75 68.65 111.4 68.3 112.0 67.85 112.65 67.45 113.25 67.0 113.8 66.5 114.4 66.0 114.95 65.5 115.5 64.95 116.0 64.4 116.5 63.8 117.0 63.2 117.45 62.55 117.9 62.45 117.95 62.35 118.05 62.2 118.1 62.1 118.2 62.0 118.25 61.9 118.35 61.8 118.4 61.65 118.45 61.55 118.55 61.45 118.6 61.35 118.7 61.2 118.75 61.1 118.8 61.0 118.9 60.85 118.95 60.75 119.0 60.7 119.0 60.7 119.05 60.65 119.05 60.65 119.05 60.65 119.05 60.55 119.1 60.55 119.1 60.5 119.15 60.5 119.15 60.45 119.15 60.4 119.2 60.4 119.2 60.35 119.2 60.35 119.25 60.3 119.25 60.3 119.3 60.25 119.35 60.2 119.4 60.15 119.45 60.05 119.45 60.0 119.5 59.95 119.55 59.9 119.55 59.8 119.55 59.75 119.6 59.7 119.6 59.6 119.6 59.55 119.65 59.5 119.65 59.4 119.65 59.35 119.65 59.25 119.65 59.1 119.65 58.9 119.65 58.6 119.65 58.55 119.65 57.8 119.6 57.75 119.55 57.7 119.5 57.7 118.75 57.7 118.65 57.7 118.55 57.7 118.35 57.7 118.3 57.7 118.2 57.7 118.1 57.7 118.05 57.7 117.95 57.7 117.85 57.7 117.8 57.75 117.7 57.75 117.65 57.8 117.55 57.85 117.5 57.9 117.45 57.95 117.4 58.0 117.3 58.05 117.25 58.15 117.2 58.2 117.15 58.55 116.8 58.8 116.45 59.1 116.1 59.4 115.75 59.7 115.35 59.95 115.0 60.2 114.6 60.45 114.25 60.7 113.85 60.9 113.45 61.1 113.05 61.3 112.6 61.45 112.2 61.6 111.75 61.75 111.3 61.85 110.85 61.9 110.65 61.9 110.5 61.95 110.3 62.0 110.1 62.0 109.95 62.0 109.75 62.0 109.55 62.05 109.4 62.05 109.2 62.0 109.0 62.0 108.85 62.0 108.65 62.0 108.5 61.95 108.3 61.9 108.1 61.9 107.95 61.8 107.5 61.7 107.05 61.6 106.6 61.5 106.15 61.35 105.7 61.2 105.25 61.1 104.8 60.95 104.35 60.8 103.95 60.65 103.5 60.5 103.05 60.3 102.65 60.15 102.2 59.95 101.8 59.75 101.35 59.55 100.95 59.1 100.0 58.3 98.55 57.2 96.5 57.05 96.2 56.7 95.6 56.2 94.6 56.1 94.4 56.0 94.2 55.9 94.0 55.8 93.8 55.7 93.55 55.6 93.35 55.5 93.15 55.4 92.95 55.3 92.75 55.2 92.55 55.15 92.3 55.05 92.1 54.95 91.9 54.9 91.7 54.8 91.45 54.75 91.25 54.65 91.25 54.5 91.25 L54.5 91.25" fill="#9d1a24" fill-rule="evenodd" stroke="none"/>
  </g>
</svg>
