<?xml version="1.0" encoding="UTF-8" standalone="no"?>
<svg xmlns:xlink="http://www.w3.org/1999/xlink" height="82.9px" width="109.7px" xmlns="http://www.w3.org/2000/svg">
  <g transform="matrix(1.0, 0.0, 0.0, 1.0, 55.95, 32.9)">
    <path d="M38.2 15.75 Q32.9 16.75 27.6 17.5 22.5 18.25 17.35 18.85 12.4 19.35 7.45 19.7 2.7 20.05 -2.1 20.25 -6.6 20.4 -11.2 20.4 -15.5 20.4 -19.85 20.3 -23.9 20.2 -28.0 19.95 -31.85 19.75 -35.7 19.4 -32.1 19.05 -28.55 18.6 -24.8 18.1 -21.05 17.5 -17.1 16.9 -13.2 16.15 -9.05 15.35 -5.0 14.45 -0.7 13.5 3.5 12.4 7.9 11.25 12.25 10.0 16.75 8.65 21.2 7.1 25.85 5.55 30.35 3.8 32.05 3.15 33.75 2.45 35.4 1.8 37.1 1.1 38.7 0.45 40.3 -0.25 41.9 -0.95 43.5 -1.65 45.0 -2.35 46.55 -3.1 48.05 -3.8 49.55 -4.5 51.0 -5.2 52.45 -5.95 53.9 -6.65 55.3 -7.4 55.8 -7.1 56.3 -6.75 56.8 -6.4 57.35 -6.0 57.9 -5.6 58.45 -5.2 59.0 -4.75 59.55 -4.3 60.15 -3.8 60.7 -3.3 61.3 -2.75 61.9 -2.2 62.5 -1.6 63.05 -1.0 63.65 -0.35 64.25 0.3 64.7 0.8 65.1 1.35 65.5 1.85 65.9 2.35 66.3 2.85 66.65 3.35 67.0 3.8 67.3 4.3 67.6 4.8 67.9 5.25 68.2 5.7 68.45 6.2 68.7 6.6 68.95 7.05 69.2 7.5 69.4 7.9 67.65 8.45 65.85 9.0 64.05 9.55 62.2 10.05 60.35 10.6 58.45 11.1 56.5 11.65 54.6 12.15 52.6 12.65 50.65 13.1 48.6 13.6 46.6 14.05 44.5 14.5 42.45 14.9 40.3 15.35 38.2 15.75 L38.2 15.75" fill="#174587" fill-rule="evenodd" stroke="none"/>
  </g>
</svg>
