<?xml version="1.0" encoding="UTF-8" standalone="no"?>
<svg xmlns:xlink="http://www.w3.org/1999/xlink" height="200.0px" width="200.0px" xmlns="http://www.w3.org/2000/svg">
  <g transform="matrix(1.0, 0.0, 0.0, 1.0, 100.0, 100.0)">
    <path d="M12.3 -10.2 Q12.5 -9.2 12.65 -8.2 12.8 -7.3 12.85 -6.35 12.9 -5.45 12.9 -4.55 12.95 -3.75 12.9 -2.9 12.85 -2.1 12.75 -1.3 12.7 -0.6 12.6 0.15 12.5 0.8 12.4 1.55 12.3 2.05 12.15 2.8 11.9 4.3 11.5 5.8 11.15 7.25 10.75 8.65 10.3 10.0 9.8 11.3 9.35 12.55 8.8 13.8 8.25 14.95 7.7 16.1 7.15 17.2 6.55 18.25 5.95 19.2 5.35 20.2 4.8 21.1 4.2 21.95 4.1 22.15 3.95 22.3 3.8 22.55 3.6 22.8 3.4 23.05 3.15 23.35 2.9 23.65 2.6 23.9 2.25 24.2 1.9 24.5 1.5 24.8 1.1 25.1 0.65 25.4 0.2 25.6 -0.3 25.9 -0.85 26.1 -1.2 26.25 -1.55 26.35 -1.9 26.45 -2.25 26.5 -2.55 26.6 -2.9 26.65 -3.2 26.7 -3.5 26.7 -3.8 26.75 -4.1 26.75 -4.35 26.75 -4.6 26.75 -4.8 26.75 -5.05 26.75 -5.25 26.7 -5.45 26.7 -4.75 25.9 -4.05 25.05 -3.25 24.1 -2.5 23.05 -1.65 21.9 -0.85 20.7 0.05 19.35 0.9 17.95 1.8 16.45 2.6 14.85 3.45 13.15 4.2 11.4 5.05 9.55 5.7 7.6 6.4 5.55 6.95 3.4 7.45 1.55 7.8 -0.35 8.15 -2.15 8.4 -3.95 8.6 -5.65 8.7 -7.35 8.8 -8.95 8.8 -10.55 8.85 -12.0 8.75 -13.45 8.7 -14.8 8.6 -16.1 8.5 -17.3 8.35 -18.45 8.2 -19.45 8.05 -20.45 8.35 -20.0 8.6 -19.6 8.9 -19.1 9.15 -18.6 9.45 -18.05 9.75 -17.5 10.05 -16.9 10.35 -16.25 10.65 -15.6 10.9 -14.9 11.2 -14.2 11.45 -13.45 11.7 -12.7 11.9 -11.9 12.15 -11.05 12.3 -10.2 L12.3 -10.2" fill="#f78cde" fill-rule="evenodd" stroke="none"/>
  </g>
</svg>
