<?xml version="1.0" encoding="UTF-8" standalone="no"?>
<svg xmlns:xlink="http://www.w3.org/1999/xlink" height="200.0px" width="200.0px" xmlns="http://www.w3.org/2000/svg">
  <g transform="matrix(1.0, 0.0, 0.0, 1.0, 100.0, 100.0)">
    <path d="M-38.55 -50.2 Q-38.6 -50.2 -38.65 -50.2 -38.7 -50.15 -38.75 -50.15 -38.8 -50.15 -38.85 -50.1 -38.9 -50.1 -38.95 -50.05 -39.0 -50.0 -39.0 -50.0 -39.05 -49.95 -39.1 -49.9 -39.1 -49.9 -39.2 -49.85 -39.25 -49.8 -39.25 -49.75 -39.35 -49.65 -39.5 -49.55 -39.6 -49.45 -39.7 -49.35 -39.85 -49.25 -39.95 -49.2 -40.1 -49.1 -40.2 -49.0 -40.35 -48.9 -40.45 -48.8 -40.6 -48.75 -40.7 -48.65 -40.85 -48.55 -41.0 -48.5 -41.1 -48.4 -41.25 -48.35 -41.4 -48.25 -41.5 -48.2 -41.65 -48.15 -41.8 -48.05 -41.9 -48.0 -42.05 -47.9 -42.2 -47.85 -42.3 -47.8 -42.45 -47.75 -42.6 -47.7 -42.75 -47.6 -42.85 -47.55 -43.0 -47.5 -43.15 -47.45 -43.3 -47.4 -43.45 -47.35 -43.5 -47.35 -43.6 -47.3 -43.65 -47.3 -43.75 -47.25 -43.8 -47.25 -43.9 -47.25 -43.95 -47.25 -44.05 -47.2 -44.1 -47.2 -44.2 -47.2 -44.3 -47.2 -44.35 -47.2 -44.45 -47.2 -44.5 -47.2 -44.6 -47.2 -44.7 -47.2 -44.85 -47.2 -45.0 -47.25 -45.15 -47.25 -45.3 -47.35 -45.45 -47.4 -45.55 -47.45 -45.65 -47.55 -45.8 -47.65 -45.9 -47.75 -45.95 -47.9 -46.05 -48.0 -46.1 -48.15 -46.15 -48.3 -46.2 -48.4 -46.25 -48.55 -46.25 -48.7 -46.25 -48.85 -46.25 -48.9 -46.25 -49.05 -46.25 -49.15 -46.25 -49.25 -46.25 -49.35 -46.25 -49.45 -46.25 -49.55 -46.25 -49.65 -46.2 -49.75 -46.2 -49.9 -46.15 -50.0 -46.15 -50.1 -46.1 -50.2 -46.05 -50.3 -46.0 -50.4 -46.0 -50.45 -46.0 -50.45 -45.95 -50.5 -45.95 -50.5 -45.95 -50.55 -45.95 -50.6 -45.95 -50.6 -45.9 -50.65 -45.9 -50.65 -45.9 -50.7 -45.9 -50.75 -45.9 -50.75 -45.9 -50.8 -45.9 -50.85 -45.9 -50.85 -45.9 -50.9 -45.9 -51.05 -45.85 -51.2 -45.85 -51.35 -45.8 -51.5 -45.75 -51.65 -45.7 -51.8 -45.65 -51.95 -45.6 -52.1 -45.5 -52.25 -45.45 -52.35 -45.35 -52.5 -45.25 -52.6 -45.2 -52.75 -45.1 -52.85 -45.0 -53.0 -44.9 -53.1 -44.6 -53.4 -44.35 -53.7 -44.05 -53.95 -43.75 -54.2 -43.45 -54.45 -43.1 -54.7 -42.8 -54.95 -42.45 -55.15 -42.1 -55.35 -41.75 -55.55 -41.4 -55.7 -41.05 -55.9 -40.7 -56.05 -40.3 -56.15 -39.95 -56.3 -39.55 -56.4 -39.45 -56.45 -39.35 -56.45 -39.25 -56.45 -39.15 -56.5 -39.05 -56.5 -38.95 -56.5 -38.85 -56.55 -38.8 -56.55 -38.7 -56.55 -38.6 -56.55 -38.5 -56.55 -38.4 -56.55 -38.3 -56.55 -38.2 -56.5 -38.1 -56.5 -38.0 -56.5 -37.8 -56.45 -37.6 -56.4 -37.4 -56.35 -37.2 -56.25 -37.05 -56.2 -36.9 -56.05 -36.75 -55.95 -36.65 -55.85 -36.55 -55.7 -36.45 -55.55 -36.35 -55.4 -36.3 -55.25 -36.2 -55.1 -36.15 -54.9 -36.1 -54.75 -36.1 -54.55 -36.1 -54.5 -36.1 -54.45 -36.1 -54.4 -36.05 -54.35 -36.05 -54.35 -36.05 -54.3 -36.1 -54.25 -36.1 -54.2 -36.1 -54.15 -36.1 -54.1 -36.1 -54.1 -36.1 -54.05 -36.1 -54.0 -36.15 -53.95 -36.15 -53.9 -36.15 -53.9 -36.15 -53.85 -36.2 -53.75 -36.2 -53.7 -36.25 -53.6 -36.25 -53.55 -36.3 -53.5 -36.3 -53.4 -36.35 -53.35 -36.35 -53.3 -36.4 -53.2 -36.4 -53.15 -36.45 -53.1 -36.5 -53.05 -36.5 -52.95 -36.55 -52.9 -36.6 -52.85 -36.65 -52.75 -36.75 -52.6 -36.85 -52.5 -36.9 -52.4 -37.0 -52.3 -37.05 -52.15 -37.15 -52.05 -37.25 -51.95 -37.3 -51.85 -37.4 -51.75 -37.5 -51.6 -37.55 -51.5 -37.65 -51.4 -37.75 -51.3 -37.85 -51.2 -37.95 -51.1 -37.95 -51.1 -38.15 -50.85 -38.3 -50.7 -38.35 -50.6 -38.35 -50.6 -38.4 -50.35 -38.45 -50.3 -38.55 -50.2 L-38.55 -50.2" fill="#9b5fff" fill-rule="evenodd" stroke="none"/>
    <path d="M-28.8 -44.2 Q-28.85 -44.2 -28.9 -44.2 -28.95 -44.15 -28.95 -44.15 -29.0 -44.15 -29.05 -44.15 -29.05 -44.1 -29.1 -44.1 -29.1 -44.1 -29.15 -44.05 -29.15 -44.05 -29.2 -44.0 -29.15 -44.05 -29.2 -44.0 -29.25 -43.95 -29.25 -43.95 -29.35 -43.85 -29.45 -43.8 -29.55 -43.7 -29.65 -43.6 -29.75 -43.55 -29.85 -43.45 -29.95 -43.4 -30.1 -43.3 -30.2 -43.25 -30.3 -43.2 -30.4 -43.1 -30.5 -43.05 -30.6 -42.95 -30.75 -42.9 -30.85 -42.85 -30.95 -42.8 -31.05 -42.75 -31.15 -42.7 -31.3 -42.6 -31.4 -42.55 -31.5 -42.5 -31.6 -42.5 -31.75 -42.45 -31.85 -42.4 -31.95 -42.35 -32.1 -42.35 -32.2 -42.3 -32.3 -42.3 -32.45 -42.25 -32.55 -42.25 -32.65 -42.2 -32.8 -42.2 -32.9 -42.2 -33.0 -42.2 -33.1 -42.2 -33.2 -42.2 -33.35 -42.25 -33.45 -42.25 -33.55 -42.3 -33.6 -42.35 -33.7 -42.4 -33.8 -42.5 -33.9 -42.55 -33.95 -42.6 -34.05 -42.7 -34.1 -42.8 -34.15 -42.9 -34.2 -43.0 -34.25 -43.1 -34.3 -43.15 -34.3 -43.25 -34.35 -43.35 -34.35 -43.4 -34.35 -43.5 -34.4 -43.6 -34.4 -43.7 -34.4 -43.75 -34.4 -43.85 -34.4 -43.95 -34.4 -44.05 -34.4 -44.15 -34.35 -44.2 -34.35 -44.3 -34.35 -44.4 -34.25 -44.75 -34.15 -45.1 -34.05 -45.45 -33.9 -45.75 -33.8 -46.1 -33.65 -46.4 -33.45 -46.7 -33.3 -47.0 -33.1 -47.25 -32.9 -47.55 -32.7 -47.8 -32.45 -48.05 -32.2 -48.3 -31.95 -48.55 -31.65 -48.8 -31.4 -49.0 -31.25 -49.1 -31.15 -49.2 -31.0 -49.3 -30.85 -49.4 -30.7 -49.45 -30.6 -49.55 -30.45 -49.65 -30.3 -49.7 -30.15 -49.8 -30.0 -49.85 -29.85 -49.95 -29.75 -50.0 -29.6 -50.1 -29.45 -50.15 -29.3 -50.2 -29.15 -50.3 -29.05 -50.35 -29.0 -50.35 -28.9 -50.35 -28.85 -50.4 -28.75 -50.4 -28.7 -50.45 -28.6 -50.45 -28.55 -50.5 -28.45 -50.5 -28.4 -50.5 -28.3 -50.55 -28.25 -50.55 -28.15 -50.55 -28.05 -50.6 -28.0 -50.6 -27.9 -50.6 -27.8 -50.6 -27.7 -50.65 -27.6 -50.65 -27.5 -50.65 -27.4 -50.65 -27.3 -50.65 -27.2 -50.65 -27.1 -50.6 -27.05 -50.6 -26.95 -50.55 -26.85 -50.55 -26.75 -50.5 -26.65 -50.45 -26.55 -50.4 -26.5 -50.35 -26.4 -50.3 -26.3 -50.25 -26.25 -50.15 -26.15 -50.1 -26.1 -50.05 -26.0 -49.95 -25.95 -49.9 -25.9 -49.8 -25.85 -49.7 -25.85 -49.65 -25.8 -49.55 -25.75 -49.45 -25.75 -49.35 -25.75 -49.25 -25.75 -49.15 -25.7 -49.05 -25.75 -48.95 -25.75 -48.9 -25.75 -48.85 -25.75 -48.75 -25.75 -48.7 -25.75 -48.65 -25.8 -48.6 -25.8 -48.55 -25.8 -48.5 -25.8 -48.45 -25.85 -48.35 -25.85 -48.3 -25.85 -48.25 -25.9 -48.2 -25.9 -48.15 -25.95 -48.1 -25.95 -48.05 -26.0 -47.95 -26.05 -47.85 -26.1 -47.8 -26.15 -47.7 -26.2 -47.6 -26.25 -47.5 -26.3 -47.45 -26.35 -47.35 -26.4 -47.25 -26.45 -47.15 -26.5 -47.1 -26.55 -47.0 -26.6 -46.9 -26.65 -46.85 -26.75 -46.75 -26.8 -46.7 -26.85 -46.6 -27.0 -46.4 -27.1 -46.2 -27.15 -46.15 -27.2 -46.1 -27.15 -46.05 -27.15 -46.0 -27.1 -46.0 -27.05 -46.0 -26.65 -46.05 -26.5 -46.05 -26.35 -46.05 -26.2 -46.0 -26.05 -45.95 -25.9 -45.95 -25.8 -45.85 -25.7 -45.8 -25.6 -45.7 -25.5 -45.6 -25.4 -45.5 -25.35 -45.4 -25.3 -45.25 -25.25 -45.15 -25.25 -45.0 -25.2 -44.85 -25.2 -44.75 -25.2 -44.65 -25.2 -44.6 -25.2 -44.5 -25.25 -44.4 -25.25 -44.35 -25.25 -44.25 -25.3 -44.2 -25.3 -44.1 -25.3 -44.05 -25.35 -43.95 -25.4 -43.9 -25.4 -43.8 -25.45 -43.75 -25.5 -43.7 -25.55 -43.6 -25.55 -43.55 -25.6 -43.45 -25.7 -43.35 -25.8 -43.25 -25.85 -43.15 -25.95 -43.1 -26.05 -43.0 -26.15 -42.9 -26.25 -42.85 -26.3 -42.8 -26.4 -42.7 -26.5 -42.65 -26.65 -42.6 -26.75 -42.55 -26.85 -42.5 -26.95 -42.45 -27.1 -42.4 -27.15 -42.4 -27.2 -42.35 -27.25 -42.35 -27.3 -42.35 -27.35 -42.3 -27.4 -42.3 -27.5 -42.3 -27.55 -42.3 -27.6 -42.3 -27.65 -42.3 -27.7 -42.3 -27.75 -42.3 -27.8 -42.3 -27.85 -42.35 -27.95 -42.35 -28.0 -42.35 -28.1 -42.4 -28.2 -42.45 -28.3 -42.5 -28.4 -42.55 -28.5 -42.6 -28.55 -42.7 -28.6 -42.75 -28.7 -42.85 -28.75 -42.95 -28.8 -43.05 -28.85 -43.15 -28.85 -43.25 -28.9 -43.35 -28.9 -43.45 -28.9 -43.55 -28.9 -43.65 -28.9 -43.7 -28.85 -43.8 -28.85 -43.9 -28.85 -43.95 -28.85 -44.0 -28.8 -44.2 L-28.8 -44.2" fill="#9b5fff" fill-rule="evenodd" stroke="none"/>
    <path d="M-9.15 -44.3 Q-9.05 -44.3 -8.85 -44.25 -8.6 -44.25 -8.5 -44.2 -8.3 -44.15 -8.15 -44.1 -7.95 -44.0 -7.8 -43.9 -7.65 -43.8 -7.55 -43.7 -7.45 -43.55 -7.35 -43.4 -7.25 -43.25 -7.2 -43.1 -7.1 -42.95 -7.05 -42.75 -7.05 -42.55 -7.0 -42.4 -7.0 -42.2 -7.0 -42.0 -7.0 -41.9 -7.2 -41.1 -7.2 -41.05 -7.2 -41.0 -7.2 -40.95 -7.2 -40.95 -7.2 -40.9 -7.2 -40.85 -7.15 -40.85 -7.15 -40.8 -7.1 -40.8 -7.05 -40.75 -7.0 -40.75 -6.9 -40.65 -6.75 -40.6 -6.65 -40.5 -6.55 -40.4 -6.45 -40.3 -6.35 -40.2 -6.3 -40.05 -6.25 -39.9 -6.2 -39.75 -6.15 -39.6 -6.15 -39.45 -6.1 -39.3 -6.15 -39.15 -6.15 -39.0 -6.2 -38.85 -6.25 -38.65 -6.35 -38.5 -6.4 -38.4 -6.5 -38.3 -6.55 -38.2 -6.6 -38.15 -6.7 -38.05 -6.8 -38.0 -6.85 -37.9 -6.95 -37.85 -7.05 -37.8 -7.15 -37.75 -7.25 -37.7 -7.35 -37.65 -7.45 -37.6 -7.55 -37.6 -7.65 -37.55 -7.8 -37.55 -7.9 -37.55 -7.95 -37.55 -8.05 -37.55 -8.1 -37.55 -8.2 -37.55 -8.25 -37.55 -8.35 -37.6 -8.4 -37.6 -8.5 -37.6 -8.55 -37.65 -8.6 -37.7 -8.7 -37.7 -8.75 -37.75 -8.85 -37.8 -8.9 -37.85 -8.95 -37.9 -9.1 -38.0 -9.15 -38.0 -9.2 -38.05 -9.25 -38.0 -9.3 -38.0 -9.4 -37.9 -9.55 -37.8 -9.75 -37.65 -10.0 -37.5 -10.15 -37.4 -10.25 -37.35 -10.35 -37.25 -10.5 -37.2 -10.6 -37.15 -10.7 -37.1 -10.85 -37.1 -10.95 -37.05 -11.1 -37.0 -11.2 -37.0 -11.35 -36.95 -11.45 -36.95 -11.6 -36.95 -11.7 -36.95 -11.85 -36.95 -11.95 -36.95 -12.1 -36.95 -12.15 -36.95 -12.2 -36.95 -12.2 -36.95 -12.25 -36.95 -12.3 -36.95 -12.35 -36.95 -12.4 -37.0 -12.4 -37.0 -12.45 -37.0 -12.5 -37.0 -12.75 -37.1 -13.4 -37.3 -13.6 -37.35 -13.8 -37.45 -14.0 -37.5 -14.15 -37.65 -14.3 -37.75 -14.4 -37.85 -14.5 -38.0 -14.6 -38.15 -14.65 -38.3 -14.75 -38.45 -14.8 -38.65 -14.8 -38.8 -14.8 -39.0 -14.8 -39.2 -14.8 -39.35 -14.75 -39.6 -14.75 -39.7 -14.7 -39.8 -14.7 -39.9 -14.65 -40.0 -14.6 -40.1 -14.55 -40.25 -14.55 -40.35 -14.5 -40.45 -14.45 -40.55 -14.4 -40.65 -14.35 -40.7 -14.25 -40.8 -14.2 -40.9 -14.15 -41.0 -14.1 -41.1 -14.0 -41.2 -13.85 -41.4 -13.7 -41.6 -13.55 -41.8 -13.35 -42.0 -13.2 -42.2 -13.0 -42.35 -12.8 -42.55 -12.6 -42.7 -12.45 -42.85 -12.2 -43.05 -12.0 -43.2 -11.8 -43.3 -11.6 -43.45 -11.35 -43.6 -11.15 -43.7 -10.9 -43.85 -10.8 -43.9 -10.7 -43.95 -10.6 -44.0 -10.5 -44.05 -10.4 -44.05 -10.3 -44.1 -10.15 -44.15 -10.05 -44.15 -9.95 -44.2 -9.85 -44.2 -9.75 -44.25 -9.65 -44.25 -9.5 -44.25 -9.4 -44.25 -9.3 -44.3 -9.15 -44.3 L-9.15 -44.3" fill="#9b5fff" fill-rule="evenodd" stroke="none"/>
    <path d="M30.4 -40.3 Q30.35 -40.4 30.35 -40.45 30.3 -40.55 30.25 -40.6 30.2 -40.7 30.2 -40.75 30.15 -40.85 30.15 -40.9 30.1 -41.0 30.1 -41.05 30.05 -41.15 30.05 -41.2 30.0 -41.25 30.0 -41.35 29.95 -41.4 29.95 -41.5 29.95 -41.55 29.95 -41.65 29.9 -41.7 29.9 -41.8 29.9 -41.85 29.9 -41.9 29.9 -42.0 29.9 -42.05 29.9 -42.1 29.9 -42.2 29.95 -42.25 29.95 -42.35 29.95 -42.4 29.95 -42.45 30.0 -42.55 30.0 -42.6 30.05 -42.8 30.15 -42.95 30.2 -43.1 30.3 -43.25 30.4 -43.4 30.5 -43.5 30.65 -43.6 30.75 -43.65 30.9 -43.75 31.05 -43.8 31.15 -43.85 31.3 -43.85 31.45 -43.9 31.6 -43.9 31.75 -43.9 31.9 -43.9 32.1 -43.9 32.25 -43.85 32.4 -43.85 32.55 -43.8 32.75 -43.75 32.9 -43.65 33.05 -43.6 33.2 -43.5 33.3 -43.45 33.45 -43.35 33.6 -43.25 33.7 -43.15 33.85 -43.05 33.95 -42.95 34.1 -42.8 34.2 -42.7 34.3 -42.6 34.4 -42.45 34.5 -42.35 34.6 -42.2 34.65 -42.1 34.75 -42.0 34.85 -41.85 34.95 -41.75 35.0 -41.6 35.1 -41.5 35.15 -41.35 35.25 -41.25 35.35 -41.1 35.4 -40.95 35.5 -40.85 35.55 -40.7 35.6 -40.6 35.7 -40.45 35.75 -40.3 35.8 -40.2 35.85 -40.05 35.9 -39.95 35.95 -39.8 36.0 -39.65 36.0 -39.55 36.05 -39.4 36.1 -39.25 36.1 -39.1 36.15 -39.0 36.15 -38.85 36.15 -38.7 36.2 -38.55 36.2 -38.45 36.2 -38.35 36.2 -38.3 36.2 -38.2 36.2 -38.1 36.2 -38.0 36.2 -37.9 36.15 -37.85 36.15 -37.75 36.15 -37.65 36.1 -37.55 36.1 -37.45 36.05 -37.4 36.0 -37.3 36.0 -37.2 35.95 -37.15 35.9 -37.0 35.8 -36.9 35.7 -36.75 35.6 -36.65 35.5 -36.55 35.4 -36.5 35.25 -36.4 35.15 -36.35 35.0 -36.3 34.9 -36.3 34.75 -36.25 34.6 -36.25 34.5 -36.25 34.35 -36.3 34.2 -36.3 34.05 -36.35 34.0 -36.35 33.95 -36.4 33.9 -36.4 33.85 -36.45 33.8 -36.5 33.7 -36.5 33.65 -36.55 33.6 -36.55 33.55 -36.6 33.5 -36.65 33.45 -36.65 33.4 -36.7 33.4 -36.7 33.35 -36.75 33.3 -36.8 33.25 -36.85 33.2 -36.9 33.05 -36.95 32.9 -37.05 32.85 -37.1 32.75 -37.15 32.7 -37.05 32.65 -36.95 32.55 -36.75 32.5 -36.55 32.45 -36.5 32.35 -36.35 32.25 -36.2 32.15 -36.05 32.05 -35.95 31.9 -35.85 31.8 -35.75 31.65 -35.7 31.5 -35.65 31.35 -35.6 31.2 -35.6 31.05 -35.6 30.9 -35.6 30.75 -35.65 30.6 -35.7 30.45 -35.75 30.25 -35.85 30.05 -35.95 29.9 -36.1 29.75 -36.2 29.6 -36.35 29.5 -36.45 29.35 -36.6 29.25 -36.75 29.15 -36.95 29.05 -37.1 29.0 -37.25 28.9 -37.45 28.85 -37.65 28.8 -37.8 28.75 -38.0 28.75 -38.2 28.7 -38.4 28.7 -38.55 28.7 -38.7 28.7 -38.85 28.75 -39.0 28.8 -39.15 28.85 -39.3 28.95 -39.4 29.0 -39.55 29.1 -39.65 29.2 -39.75 29.3 -39.85 29.45 -39.9 29.55 -40.0 29.7 -40.05 29.85 -40.15 30.0 -40.2 30.1 -40.2 30.4 -40.3 L30.4 -40.3" fill="#9b5fff" fill-rule="evenodd" stroke="none"/>
    <path d="M37.45 -45.85 Q37.45 -46.0 37.45 -46.15 37.45 -46.3 37.5 -46.45 37.5 -46.6 37.55 -46.7 37.6 -46.85 37.7 -46.95 37.75 -47.1 37.85 -47.2 37.95 -47.3 38.05 -47.4 38.15 -47.5 38.3 -47.55 38.45 -47.6 38.6 -47.65 38.65 -47.65 38.7 -47.7 38.8 -47.7 38.85 -47.7 38.9 -47.7 38.95 -47.7 39.0 -47.7 39.1 -47.7 39.15 -47.7 39.2 -47.7 39.25 -47.7 39.35 -47.7 39.4 -47.7 39.45 -47.7 39.5 -47.7 39.6 -47.65 39.7 -47.65 39.8 -47.6 39.95 -47.55 40.05 -47.55 40.15 -47.5 40.25 -47.45 40.35 -47.4 40.45 -47.35 40.55 -47.3 40.65 -47.25 40.75 -47.2 40.85 -47.15 40.95 -47.1 41.05 -47.05 41.15 -46.95 41.25 -46.9 41.45 -46.75 41.7 -46.6 41.9 -46.4 42.1 -46.25 42.3 -46.05 42.5 -45.9 42.7 -45.7 42.85 -45.5 43.05 -45.3 43.2 -45.1 43.35 -44.9 43.5 -44.7 43.65 -44.45 43.8 -44.25 43.95 -44.0 44.1 -43.8 44.2 -43.55 44.35 -43.05 44.4 -42.9 44.4 -42.7 44.45 -42.55 44.4 -42.4 44.4 -42.25 44.35 -42.1 44.3 -42.0 44.2 -41.85 44.15 -41.7 44.05 -41.6 43.95 -41.5 43.8 -41.4 43.7 -41.3 43.6 -41.25 43.45 -41.2 43.35 -41.15 43.3 -41.15 43.25 -41.1 43.15 -41.1 43.1 -41.1 43.05 -41.05 43.0 -41.05 42.95 -41.05 42.9 -41.05 42.85 -41.0 42.75 -41.0 42.7 -41.0 42.65 -41.0 42.6 -41.0 42.55 -41.0 42.5 -41.0 42.4 -41.05 42.1 -41.1 41.8 -41.15 41.55 -41.25 41.25 -41.3 40.95 -41.4 40.7 -41.5 40.45 -41.65 40.2 -41.75 39.95 -41.9 39.7 -42.05 39.45 -42.2 39.2 -42.4 39.0 -42.6 38.75 -42.8 38.55 -43.0 38.35 -43.25 38.25 -43.4 38.1 -43.55 38.0 -43.7 37.95 -43.85 37.85 -44.0 37.75 -44.15 37.7 -44.3 37.65 -44.5 37.6 -44.65 37.55 -44.8 37.5 -45.0 37.5 -45.15 37.45 -45.35 37.45 -45.5 37.45 -45.7 37.45 -45.85 L37.45 -45.85" fill="#9b5fff" fill-rule="evenodd" stroke="none"/>
    <path d="M-23.4 -39.85 Q-23.55 -39.85 -23.65 -39.85 -23.8 -39.85 -23.9 -39.9 -24.0 -39.95 -24.1 -39.95 -24.2 -40.0 -24.25 -40.05 -24.35 -40.1 -24.4 -40.2 -24.5 -40.25 -24.55 -40.3 -24.6 -40.4 -24.65 -40.5 -24.7 -40.6 -24.75 -40.7 -24.75 -40.75 -24.8 -40.8 -24.8 -40.8 -24.8 -40.85 -24.85 -40.9 -24.85 -40.95 -24.85 -41.0 -24.85 -41.05 -24.9 -41.05 -24.9 -41.1 -24.9 -41.15 -24.9 -41.2 -24.9 -41.25 -24.9 -41.3 -24.9 -41.35 -24.9 -41.4 -24.9 -41.6 -24.85 -41.8 -24.8 -42.0 -24.75 -42.15 -24.7 -42.35 -24.6 -42.5 -24.55 -42.7 -24.45 -42.85 -24.35 -43.0 -24.25 -43.15 -24.15 -43.3 -24.0 -43.45 -23.9 -43.55 -23.75 -43.7 -23.6 -43.8 -23.4 -43.95 -23.35 -44.0 -23.25 -44.0 -23.2 -44.05 -23.15 -44.1 -23.1 -44.1 -23.0 -44.15 -22.95 -44.15 -22.85 -44.2 -22.8 -44.2 -22.75 -44.2 -22.65 -44.25 -22.6 -44.25 -22.5 -44.25 -22.45 -44.25 -22.35 -44.25 -22.3 -44.25 -22.15 -44.25 -21.95 -44.2 -21.8 -44.2 -21.65 -44.15 -21.5 -44.1 -21.4 -44.0 -21.25 -43.9 -21.15 -43.8 -21.05 -43.7 -21.0 -43.6 -20.9 -43.45 -20.85 -43.3 -20.8 -43.2 -20.8 -43.0 -20.75 -42.85 -20.75 -42.7 -20.75 -42.45 -20.85 -42.2 -20.9 -41.95 -21.0 -41.75 -21.1 -41.5 -21.25 -41.3 -21.35 -41.05 -21.55 -40.9 -21.7 -40.7 -21.9 -40.5 -22.1 -40.35 -22.3 -40.25 -22.5 -40.1 -22.75 -40.0 -22.95 -39.9 -23.2 -39.9 -23.25 -39.9 -23.3 -39.85 -23.3 -39.85 -23.35 -39.85 -23.35 -39.85 -23.4 -39.85 -23.45 -39.85 -23.4 -39.85 L-23.4 -39.85" fill="#9d60ff" fill-rule="evenodd" stroke="none"/>
    <path d="M25.3 -33.9 Q25.25 -33.9 25.2 -33.9 25.1 -33.95 25.05 -33.95 25.0 -33.95 24.95 -33.95 24.9 -34.0 24.85 -34.0 24.8 -34.0 24.75 -34.05 24.7 -34.05 24.65 -34.1 24.6 -34.1 24.55 -34.15 24.5 -34.15 24.45 -34.2 24.35 -34.3 24.25 -34.4 24.15 -34.5 24.05 -34.65 23.95 -34.75 23.9 -34.9 23.8 -35.05 23.75 -35.2 23.7 -35.4 23.7 -35.55 23.65 -35.75 23.65 -35.9 23.65 -36.1 23.7 -36.25 23.75 -36.45 23.8 -36.6 23.85 -36.75 23.95 -36.9 24.05 -37.0 24.2 -37.15 24.3 -37.25 24.4 -37.3 24.55 -37.4 24.65 -37.4 24.8 -37.45 24.95 -37.45 25.1 -37.5 25.25 -37.45 25.4 -37.45 25.55 -37.4 25.7 -37.3 25.85 -37.25 25.95 -37.15 26.1 -37.05 26.2 -36.95 26.3 -36.85 26.4 -36.7 26.45 -36.55 26.55 -36.4 26.6 -36.25 26.7 -36.1 26.75 -35.95 26.8 -35.8 26.8 -35.65 26.85 -35.5 26.85 -35.35 26.85 -35.2 26.8 -35.1 26.75 -34.95 26.75 -34.85 26.7 -34.75 26.65 -34.65 26.6 -34.55 26.55 -34.45 26.5 -34.35 26.4 -34.3 26.35 -34.25 26.25 -34.2 26.15 -34.15 26.05 -34.1 25.95 -34.05 25.85 -34.0 25.75 -34.0 25.6 -33.95 25.5 -33.95 25.3 -33.9 L25.3 -33.9" fill="#9d60ff" fill-rule="evenodd" stroke="none"/>
    <path d="M-38.55 -50.2 Q-38.5 -50.25 -38.4 -50.35 -38.35 -50.4 -38.3 -50.45 -38.2 -50.5 -38.15 -50.55 -38.1 -50.6 -38.0 -50.65 -37.95 -50.65 -37.9 -50.7 -37.8 -50.75 -37.75 -50.75 -37.7 -50.8 -37.6 -50.8 -37.55 -50.85 -37.45 -50.85 -37.4 -50.85 -37.35 -50.85 -37.25 -50.85 -37.2 -50.85 -37.15 -50.85 -37.1 -50.85 -37.0 -50.85 -36.95 -50.8 -36.9 -50.8 -36.85 -50.75 -36.8 -50.7 -36.75 -50.65 -36.7 -50.6 -36.65 -50.55 -36.6 -50.5 -36.55 -50.45 -36.5 -50.4 -36.45 -50.35 -36.45 -50.25 -36.4 -50.2 -36.4 -50.15 -36.4 -50.1 -36.35 -50.0 -36.35 -49.95 -36.35 -49.85 -36.35 -49.8 -36.4 -49.7 -36.4 -49.65 -36.4 -49.6 -36.4 -49.55 -36.45 -49.5 -36.45 -49.45 -36.45 -49.4 -36.45 -49.35 -36.5 -49.35 -36.5 -49.3 -36.5 -49.25 -36.55 -49.2 -36.6 -49.1 -36.65 -49.0 -36.7 -48.9 -36.8 -48.8 -36.85 -48.7 -36.9 -48.6 -37.0 -48.5 -37.05 -48.4 -37.15 -48.3 -37.2 -48.2 -37.3 -48.1 -37.35 -48.0 -37.45 -47.95 -37.55 -47.85 -37.6 -47.75 -37.7 -47.7 -37.75 -47.65 -37.75 -47.65 -37.8 -47.6 -37.85 -47.6 -37.9 -47.55 -37.9 -47.55 -37.95 -47.5 -38.0 -47.5 -38.05 -47.45 -38.15 -47.45 -38.2 -47.4 -38.25 -47.4 -38.35 -47.35 -38.4 -47.35 -38.45 -47.35 -38.55 -47.35 -38.6 -47.35 -38.65 -47.35 -38.75 -47.35 -38.8 -47.4 -38.85 -47.4 -38.9 -47.45 -39.0 -47.45 -39.05 -47.5 -39.1 -47.55 -39.15 -47.6 -39.2 -47.65 -39.25 -47.7 -39.3 -47.75 -39.35 -47.8 -39.35 -47.85 -39.4 -47.9 -39.4 -48.0 -39.4 -48.05 -39.45 -48.1 -39.45 -48.15 -39.45 -48.25 -39.45 -48.3 -39.45 -48.4 -39.45 -48.45 -39.45 -48.5 -39.45 -48.55 -39.45 -48.55 -39.4 -48.6 -39.4 -48.65 -39.4 -48.7 -39.4 -48.7 -39.35 -48.75 -39.35 -48.8 -39.35 -48.85 -39.3 -48.95 -39.25 -49.0 -39.2 -49.1 -39.15 -49.2 -39.1 -49.25 -39.05 -49.35 -39.15 -49.15 -38.95 -49.55 -38.9 -49.65 -38.85 -49.7 -38.8 -49.8 -38.75 -49.9 -38.7 -49.95 -38.65 -50.05 -38.6 -50.15 -38.55 -50.2 L-38.55 -50.2" fill="#9d60ff" fill-rule="evenodd" stroke="none"/>
    <path d="M-3.4 -37.5 Q-3.4 -37.4 -3.4 -37.35 -3.4 -37.25 -3.45 -37.15 -3.45 -37.1 -3.5 -37.0 -3.55 -36.95 -3.6 -36.9 -3.65 -36.8 -3.7 -36.75 -3.75 -36.7 -3.85 -36.65 -3.95 -36.6 -4.0 -36.6 -4.1 -36.55 -4.2 -36.5 -4.3 -36.5 -4.35 -36.5 -4.45 -36.45 -4.55 -36.45 -4.6 -36.45 -4.7 -36.5 -4.8 -36.5 -4.85 -36.5 -4.95 -36.55 -5.0 -36.55 -5.1 -36.6 -5.15 -36.65 -5.25 -36.65 -5.3 -36.7 -5.4 -36.75 -5.45 -36.8 -5.55 -36.85 -5.6 -36.95 -5.65 -37.0 -5.7 -37.1 -5.75 -37.2 -5.8 -37.3 -5.8 -37.4 -5.85 -37.5 -5.85 -37.6 -5.85 -37.7 -5.85 -37.8 -5.85 -37.9 -5.85 -38.0 -5.8 -38.05 -5.75 -38.15 -5.7 -38.25 -5.65 -38.35 -5.6 -38.4 -5.55 -38.45 -5.5 -38.5 -5.45 -38.55 -5.4 -38.6 -5.3 -38.65 -5.25 -38.7 -5.15 -38.75 -5.05 -38.75 -5.0 -38.75 -4.9 -38.8 -4.8 -38.8 -4.7 -38.8 -4.6 -38.8 -4.5 -38.75 -4.45 -38.75 -4.4 -38.75 -4.35 -38.7 -4.3 -38.7 -4.25 -38.7 -4.2 -38.65 -4.15 -38.65 -4.1 -38.6 -4.05 -38.6 -4.0 -38.55 -3.95 -38.55 -3.95 -38.5 -3.9 -38.5 -3.85 -38.45 -3.8 -38.4 -3.75 -38.4 -3.7 -38.35 -3.65 -38.3 -3.65 -38.25 -3.6 -38.2 -3.55 -38.15 -3.55 -38.1 -3.5 -38.05 -3.5 -38.0 -3.45 -37.95 -3.45 -37.9 -3.4 -37.85 -3.4 -37.8 -3.4 -37.7 -3.4 -37.65 -3.4 -37.6 -3.4 -37.5 L-3.4 -37.5" fill="#9d60ff" fill-rule="evenodd" stroke="none"/>
  </g>
</svg>
