<?xml version="1.0" encoding="UTF-8" standalone="no"?>
<svg xmlns:xlink="http://www.w3.org/1999/xlink" height="162.7px" width="139.65px" xmlns="http://www.w3.org/2000/svg">
  <g transform="matrix(1.0, 0.0, 0.0, 1.0, 69.8, 81.35)">
    <path d="M-57.6 18.6 Q-57.65 18.6 -57.7 18.55 -57.75 18.55 -57.8 18.55 -57.85 18.5 -57.85 18.5 -57.85 18.45 -57.85 18.4 -57.85 18.35 -57.8 18.35 -57.75 18.35 -57.7 18.35 -57.65 18.35 -57.6 18.4 -57.6 18.4 -57.6 18.6 L-57.6 18.6" fill="#fefefe" fill-opacity="0.43137255" fill-rule="evenodd" stroke="none"/>
    <path d="M-25.95 -2.5 Q-25.9 -2.45 -25.9 -2.4 -25.9 -2.35 -25.9 -2.3 -25.85 -2.25 -25.9 -2.25 -25.95 -2.2 -26.0 -2.2 -26.0 -2.2 -26.05 -2.2 -26.1 -2.25 -26.15 -2.3 -26.1 -2.35 -25.95 -2.5 L-25.95 -2.5" fill="#fefefe" fill-opacity="0.43137255" fill-rule="evenodd" stroke="none"/>
    <path d="M9.0 7.9 Q8.95 7.9 8.9 7.95 8.85 7.95 8.85 7.95 8.8 7.95 8.8 7.95 8.75 7.9 8.75 7.9 8.75 7.9 8.75 7.85 8.75 7.85 8.75 7.8 8.75 7.75 8.8 7.7 8.8 7.7 8.8 7.6 8.9 7.7 9.0 7.9 L9.0 7.9" fill="#fefefe" fill-opacity="0.43137255" fill-rule="evenodd" stroke="none"/>
    <path d="M-25.95 -2.5 Q-25.85 -2.25 -25.9 -2.25 -25.95 -2.2 -25.95 -2.2 -26.0 -2.2 -26.05 -2.2 -26.05 -2.2 -26.1 -2.25 -26.1 -2.25 -26.15 -2.3 -26.1 -2.35 -25.95 -2.5 L-25.95 -2.5" fill="#fefefe" fill-opacity="0.2901961" fill-rule="evenodd" stroke="none"/>
    <path d="M-56.95 -36.3 Q-57.4 -35.55 -57.85 -34.7 -58.3 -33.95 -58.7 -33.1 -59.1 -32.4 -59.5 -31.6 -59.8 -30.9 -60.15 -30.2 -60.45 -29.6 -60.7 -29.0 -60.9 -28.55 -61.1 -28.1 -61.25 -27.75 -61.35 -27.45 -61.4 -27.35 -61.45 -27.25 -61.65 -26.75 -61.85 -26.25 -62.05 -25.75 -62.25 -25.2 -62.5 -24.6 -62.7 -24.0 -62.9 -23.35 -63.1 -22.7 -63.35 -22.05 -63.55 -21.35 -63.75 -20.6 -64.0 -19.85 -64.2 -19.1 -64.4 -18.3 -64.6 -17.5 -64.8 -16.65 -65.0 -15.75 -65.05 -15.4 -65.25 -14.65 -65.35 -14.05 -65.5 -13.25 -65.65 -12.55 -65.75 -11.75 -65.9 -10.95 -66.0 -10.1 -66.1 -9.25 -66.2 -8.35 -66.25 -7.4 -66.35 -6.45 -66.35 -5.45 -66.4 -4.4 -66.35 -3.4 -66.35 -2.05 -66.3 -1.35 -66.3 -0.15 -66.25 0.8 -66.15 1.95 -66.05 2.95 -65.9 4.05 -65.7 5.1 -65.5 6.2 -65.2 7.2 -64.85 8.3 -64.4 9.3 -63.95 10.35 -63.35 11.3 -62.75 12.3 -61.95 13.2 -61.7 13.5 -61.45 13.8 -61.2 14.05 -60.95 14.3 -60.7 14.55 -60.45 14.8 -60.2 15.0 -59.95 15.25 -59.75 15.45 -59.5 15.6 -59.25 15.8 -59.05 15.95 -58.8 16.1 -58.6 16.25 -58.4 16.4 -58.2 16.55 -57.6 17.1 -56.5 18.2 -56.0 14.75 -55.4 11.9 -55.25 11.15 -55.15 10.75 -55.0 10.1 -54.9 9.55 -54.75 8.9 -54.6 8.35 -54.45 7.7 -54.3 7.1 -54.15 6.4 -53.95 5.8 -53.75 5.1 -53.55 4.45 -53.35 3.75 -53.1 3.1 -52.85 2.35 -52.6 1.65 -52.4 1.15 -52.2 0.65 -52.0 0.15 -51.75 -0.4 -51.5 -1.0 -51.2 -1.55 -50.95 -2.15 -50.65 -2.75 -50.3 -3.4 -49.95 -4.0 -49.6 -4.7 -49.2 -5.35 -48.8 -6.0 -48.4 -6.7 -47.95 -7.4 -47.5 -8.1 -47.3 -7.7 -47.15 -7.25 -46.95 -6.8 -46.75 -6.4 -46.5 -5.9 -46.25 -5.45 -46.0 -4.95 -45.75 -4.45 -45.45 -3.95 -45.15 -3.45 -44.8 -2.9 -44.5 -2.4 -44.15 -1.85 -43.75 -1.35 -43.35 -0.8 -42.95 -0.25 -42.6 0.25 -42.2 0.7 -41.8 1.15 -41.45 1.6 -41.05 2.0 -40.65 2.4 -40.3 2.8 -39.95 3.15 -39.55 3.5 -39.2 3.85 -38.85 4.2 -38.5 4.5 -38.15 4.8 -37.8 5.1 -37.45 5.35 -37.15 5.6 -37.7 4.9 -38.15 4.25 -38.55 3.6 -38.95 2.9 -39.25 2.3 -39.55 1.7 -39.8 1.1 -40.0 0.5 -40.2 0.0 -40.35 -0.55 -40.5 -1.05 -40.55 -1.55 -40.65 -1.95 -40.7 -2.4 -40.75 -2.75 -40.8 -3.1 -40.8 -3.3 -40.8 -3.4 -40.8 -3.6 -40.8 -3.8 -40.8 -4.05 -40.75 -4.35 -40.75 -4.7 -40.7 -5.15 -40.65 -5.6 -40.55 -6.1 -40.45 -6.7 -40.35 -7.35 -40.2 -8.05 -40.05 -8.85 -39.85 -9.75 -39.65 -10.7 -39.5 -11.35 -39.35 -11.95 -39.2 -12.55 -39.05 -13.15 -38.9 -13.75 -38.75 -14.3 -38.6 -14.85 -38.45 -15.4 -38.3 -15.9 -38.15 -16.4 -38.05 -16.85 -37.9 -17.3 -37.75 -17.75 -37.65 -18.15 -37.5 -18.55 -37.4 -18.95 -37.35 -18.75 -37.3 -18.55 -37.25 -18.35 -37.2 -18.15 -37.1 -17.9 -37.05 -17.7 -37.0 -17.45 -36.9 -17.2 -36.85 -16.95 -36.75 -16.65 -36.65 -16.4 -36.55 -16.1 -36.5 -15.85 -36.4 -15.55 -36.3 -15.25 -36.2 -14.95 -35.9 -14.05 -35.75 -13.65 -35.5 -12.95 -35.3 -12.4 -35.1 -11.75 -34.85 -11.2 -34.6 -10.55 -34.4 -10.0 -34.15 -9.4 -33.9 -8.85 -33.6 -8.3 -33.3 -7.75 -33.0 -7.2 -32.7 -6.7 -32.4 -6.15 -32.05 -5.7 -31.8 -5.35 -31.55 -5.05 -31.25 -4.65 -30.9 -4.25 -30.5 -3.85 -30.1 -3.45 -29.65 -2.95 -29.1 -2.55 -28.55 -2.05 -27.95 -1.65 -27.3 -1.15 -26.55 -0.7 -25.8 -0.25 -25.0 0.15 -24.1 0.6 -23.15 0.95 -23.35 0.7 -23.5 0.45 -23.7 0.15 -23.95 -0.15 -24.15 -0.55 -24.35 -0.9 -24.6 -1.35 -24.8 -1.8 -25.05 -2.3 -25.25 -2.85 -25.45 -3.4 -25.6 -3.95 -25.8 -4.6 -25.9 -5.2 -26.05 -5.9 -26.1 -6.55 -26.15 -7.2 -26.15 -7.9 -26.15 -8.5 -26.1 -9.1 -26.05 -9.7 -25.95 -10.25 -25.9 -10.75 -25.75 -11.25 -25.65 -11.7 -25.5 -12.2 -25.4 -12.55 -25.25 -12.95 -25.1 -13.3 -25.0 -13.65 -24.9 -13.85 -24.75 -14.15 -24.65 -14.35 -24.6 -14.55 -24.45 -14.85 -24.3 -15.15 -24.1 -15.5 -23.9 -15.9 -23.6 -16.3 -23.35 -16.75 -23.0 -17.25 -22.65 -17.75 -22.25 -18.25 -21.8 -18.75 -21.35 -19.3 -20.8 -19.8 -20.25 -20.35 -19.65 -20.85 -19.05 -21.35 -18.4 -21.8 -17.8 -22.2 -17.15 -22.6 -16.7 -22.9 -15.95 -23.3 -15.05 -23.8 -14.8 -23.95 -14.1 -24.35 -13.6 -24.7 -13.0 -25.1 -12.45 -25.5 -11.8 -26.0 -11.25 -26.55 -10.6 -27.15 -10.0 -27.9 -9.95 -28.0 -9.85 -28.05 -9.8 -28.15 -9.7 -28.25 -9.65 -28.3 -9.6 -28.4 -9.55 -28.45 -9.5 -28.55 -9.45 -28.6 -9.4 -28.7 -9.35 -28.75 -9.3 -28.8 -9.25 -28.85 -9.2 -28.95 -9.15 -29.0 -9.1 -29.05 -9.05 -28.8 -9.0 -28.55 -8.95 -28.25 -8.9 -27.95 -8.85 -27.65 -8.8 -27.35 -8.7 -27.0 -8.6 -26.7 -8.5 -26.35 -8.4 -25.95 -8.3 -25.6 -8.2 -25.2 -8.05 -24.8 -7.9 -24.45 -7.75 -24.0 -7.6 -23.6 -7.3 -22.9 -7.0 -22.3 -6.7 -21.65 -6.35 -21.05 -6.0 -20.45 -5.65 -19.9 -5.3 -19.3 -4.9 -18.75 -4.5 -18.25 -4.05 -17.65 -3.7 -17.15 -3.2 -16.6 -2.8 -16.1 -2.3 -15.5 -1.95 -15.05 -1.35 -14.35 -0.8 -13.75 -0.3 -13.2 0.1 -12.7 0.55 -12.25 0.85 -11.95 1.25 -11.55 1.95 -10.8 1.9 -10.9 2.2 -10.55 2.45 -10.25 2.8 -9.95 3.05 -9.6 3.35 -9.25 3.7 -8.8 4.05 -8.4 4.4 -7.85 4.75 -7.35 4.95 -7.05 5.25 -6.65 5.45 -6.35 5.7 -5.95 5.95 -5.65 6.15 -5.25 6.35 -4.95 6.55 -4.55 6.75 -4.2 6.95 -3.85 7.1 -3.45 7.3 -3.1 7.45 -2.7 7.6 -2.3 7.75 -1.85 7.85 -1.6 7.9 -1.4 7.95 -1.05 8.05 -0.75 8.15 -0.35 8.2 0.1 8.3 0.55 8.35 1.05 8.45 1.65 8.5 2.2 8.55 2.85 8.55 3.45 8.55 4.15 8.5 4.85 8.4 5.6 8.3 6.3 8.25 6.55 8.2 6.8 8.15 7.05 8.1 7.3 8.1 7.5 8.0 7.75 7.95 7.95 7.9 8.15 7.85 8.35 7.8 8.55 7.75 8.75 7.7 8.95 7.65 9.1 7.6 9.25 7.55 9.4 7.5 9.6 7.9 9.5 8.3 9.35 8.7 9.2 9.15 9.05 9.6 8.85 10.05 8.65 10.55 8.45 11.0 8.25 11.55 8.0 12.0 7.75 12.55 7.45 13.05 7.15 13.6 6.8 14.15 6.45 14.65 6.1 15.2 5.7 16.15 4.95 17.0 4.15 17.85 3.4 18.55 2.55 19.25 1.75 19.85 0.95 20.45 0.15 20.95 -0.65 21.4 -1.4 21.8 -2.15 22.15 -2.85 22.5 -3.55 22.75 -4.15 23.0 -4.75 23.2 -5.25 23.35 -5.75 23.4 -5.7 23.45 -5.65 23.5 -5.55 23.55 -5.5 23.65 -5.4 23.7 -5.3 23.75 -5.25 23.8 -5.15 23.9 -5.05 23.95 -4.95 24.0 -4.85 24.05 -4.75 24.15 -4.65 24.2 -4.5 24.25 -4.4 24.35 -4.25 24.8 -3.4 25.0 -2.45 25.2 -1.55 25.2 -0.6 25.2 0.3 25.05 1.25 24.95 2.05 24.7 2.95 24.5 3.7 24.2 4.45 23.95 5.1 23.65 5.75 23.45 6.25 23.2 6.7 23.0 7.0 22.85 7.3 22.75 7.45 22.65 7.65 22.55 7.8 22.45 7.95 22.35 8.1 22.25 8.25 22.15 8.4 22.05 8.55 21.95 8.7 21.85 8.8 21.75 8.9 21.65 9.05 21.55 9.15 21.5 9.25 21.4 9.35 21.35 9.45 21.55 9.45 21.75 9.45 22.0 9.45 22.25 9.45 22.5 9.45 22.75 9.4 23.0 9.4 23.25 9.35 23.55 9.35 23.85 9.3 24.15 9.25 24.45 9.2 24.75 9.1 25.1 9.05 25.4 8.95 25.75 8.9 26.4 8.7 27.05 8.45 27.6 8.2 28.2 7.95 28.7 7.65 29.25 7.35 29.7 7.1 30.15 6.75 30.55 6.45 31.0 6.15 31.35 5.85 31.7 5.5 32.0 5.25 32.35 4.95 32.55 4.75 32.9 4.4 33.65 3.65 34.35 2.85 34.95 2.1 35.55 1.25 36.05 0.45 36.5 -0.35 36.95 -1.1 37.35 -1.9 37.65 -2.65 37.95 -3.4 38.25 -4.05 38.45 -4.75 38.65 -5.35 38.8 -6.0 38.95 -6.5 39.05 -7.0 39.2 -6.7 39.4 -6.45 39.55 -6.15 39.75 -5.9 39.95 -5.55 40.15 -5.25 40.35 -4.95 40.55 -4.65 40.8 -4.3 41.05 -3.95 41.3 -3.6 41.55 -3.25 41.8 -2.9 42.05 -2.55 42.35 -2.15 42.65 -1.8 43.4 -0.85 44.15 0.0 44.9 0.85 45.65 1.6 46.4 2.35 47.1 3.05 47.8 3.65 48.5 4.25 49.1 4.8 49.75 5.3 50.3 5.75 50.85 6.15 51.3 6.5 51.75 6.8 52.1 7.05 52.5 7.3 53.05 7.65 53.4 7.85 53.9 8.2 54.35 8.5 54.95 8.85 55.45 9.15 56.1 9.5 56.7 9.8 57.35 10.15 58.0 10.45 58.75 10.8 59.5 11.1 60.3 11.4 61.1 11.65 61.95 11.95 62.8 12.2 63.25 12.35 63.7 12.45 64.4 12.6 65.15 12.7 66.05 12.9 67.0 13.0 68.1 13.15 69.25 13.2 70.5 13.25 71.8 13.25 73.25 13.2 74.7 13.05 76.25 12.9 77.8 12.6 79.5 12.25 81.15 11.75 82.0 11.5 82.85 11.15 83.7 10.85 84.5 10.5 85.25 10.2 86.0 9.8 86.7 9.45 87.4 9.1 88.05 8.75 88.7 8.35 89.3 7.95 89.9 7.55 90.45 7.2 91.0 6.8 91.5 6.45 92.0 6.05 91.7 5.95 91.4 5.9 91.05 5.8 90.75 5.65 90.4 5.55 90.0 5.4 89.65 5.3 89.25 5.15 88.9 4.95 88.5 4.8 88.05 4.6 87.65 4.4 87.25 4.2 86.8 4.0 86.35 3.75 85.9 3.5 85.75 3.4 85.6 3.35 85.4 3.2 85.15 3.05 84.85 2.85 84.55 2.65 84.2 2.4 83.8 2.15 83.4 1.85 83.0 1.55 82.5 1.2 82.05 0.8 81.55 0.4 81.05 -0.05 80.5 -0.5 80.0 -1.0 79.2 -1.75 78.5 -2.55 77.85 -3.2 77.25 -3.95 76.75 -4.5 76.15 -5.3 74.7 -7.15 75.15 -6.55 74.55 -7.3 74.1 -7.85 73.5 -8.5 72.95 -9.1 72.25 -9.8 71.55 -10.4 70.75 -11.1 69.85 -11.8 69.75 -11.85 69.7 -11.95 69.6 -12.0 69.55 -12.05 69.45 -12.1 69.4 -12.15 69.3 -12.2 69.25 -12.25 69.2 -12.3 69.15 -12.35 69.05 -12.4 69.0 -12.45 68.95 -12.45 68.9 -12.5 68.85 -12.55 68.8 -12.55 69.0 -12.5 69.2 -12.5 69.45 -12.45 69.65 -12.45 69.9 -12.4 70.15 -12.4 70.45 -12.4 70.75 -12.4 71.05 -12.4 71.35 -12.4 71.65 -12.4 71.95 -12.45 72.3 -12.5 72.65 -12.55 73.0 -12.6 73.35 -12.7 73.85 -12.85 74.35 -13.0 74.8 -13.15 75.2 -13.4 75.6 -13.6 76.0 -13.8 76.35 -14.05 76.7 -14.25 77.05 -14.5 77.35 -14.75 77.6 -14.95 77.9 -15.25 78.1 -15.45 78.35 -15.65 78.5 -15.8 78.75 -16.1 79.15 -16.5 79.55 -16.95 79.9 -17.4 80.25 -17.85 80.55 -18.25 80.85 -18.7 81.1 -19.1 81.35 -19.55 81.55 -19.95 81.75 -20.35 81.9 -20.75 82.05 -21.15 82.2 -21.5 82.35 -21.85 82.45 -22.15 82.55 -22.45 82.25 -22.35 82.0 -22.3 81.7 -22.25 81.35 -22.2 81.0 -22.1 80.65 -22.05 80.3 -22.0 79.9 -22.0 79.5 -21.95 79.1 -21.95 78.7 -21.95 78.25 -21.95 77.8 -21.95 77.35 -22.0 76.9 -22.05 76.4 -22.15 76.2 -22.2 76.0 -22.25 75.7 -22.3 75.4 -22.4 75.0 -22.5 74.6 -22.7 74.1 -22.9 73.6 -23.1 73.05 -23.4 72.45 -23.75 71.8 -24.15 71.15 -24.6 70.4 -25.1 69.65 -25.7 68.85 -26.35 68.05 -27.1 67.45 -27.65 66.85 -28.25 66.3 -28.85 65.75 -29.5 65.25 -30.1 64.7 -30.8 64.15 -31.5 63.6 -32.3 63.05 -33.0 62.45 -33.9 61.9 -34.7 61.25 -35.75 60.65 -36.6 59.9 -37.8 59.35 -38.65 58.4 -40.15 57.4 -41.7 56.7 -42.9 56.3 -43.5 55.75 -44.45 55.4 -45.1 55.2 -45.4 54.9 -45.85 54.45 -46.45 54.45 -46.45 54.25 -46.7 54.0 -47.05 53.65 -47.45 53.2 -47.95 52.7 -48.55 52.1 -49.25 51.45 -49.9 50.65 -50.75 49.8 -51.5 48.9 -52.4 47.9 -53.2 46.85 -54.1 45.75 -54.95 44.5 -55.85 43.3 -56.6 42.05 -57.4 40.75 -58.05 39.4 -58.7 37.9 -59.25 36.4 -59.8 34.7 -60.3 33.05 -60.75 31.1 -61.1 29.2 -61.45 27.0 -61.75 24.85 -62.0 22.35 -62.2 19.9 -62.35 17.05 -62.5 14.25 -62.6 11.05 -62.6 6.4 -62.65 4.25 -62.65 0.75 -62.7 -1.75 -62.65 -4.7 -62.65 -7.0 -62.6 -9.55 -62.55 -11.7 -62.45 -13.9 -62.3 -15.85 -62.1 -17.8 -61.9 -19.55 -61.6 -21.3 -61.3 -22.95 -60.9 -24.55 -60.5 -26.1 -59.95 -29.1 -58.85 -32.0 -57.5 -34.7 -56.2 -37.3 -54.65 -39.75 -53.2 -42.05 -51.55 -44.2 -50.0 -46.2 -48.3 -48.1 -46.75 -49.8 -45.05 -51.4 -43.5 -52.8 -41.9 -54.1 -40.4 -55.15 -38.95 -56.15 -37.55 -56.95 -36.3 L-56.95 -36.3" fill="url(#gradient0)" fill-rule="evenodd" stroke="none"/>
  </g>
  <defs>
    <linearGradient gradientTransform="matrix(0.0, -0.0493, 0.0493, 0.0, 12.7, -22.15)" gradientUnits="userSpaceOnUse" id="gradient0" spreadMethod="pad" x1="-819.2" x2="819.2">
      <stop offset="0.0" stop-color="#fff23c" stop-opacity="0.0"/>
      <stop offset="0.3803921568627451" stop-color="#fff23c" stop-opacity="0.84705883"/>
      <stop offset="0.6039215686274509" stop-color="#fff23c" stop-opacity="0.8"/>
      <stop offset="1.0" stop-color="#fff23c" stop-opacity="0.0"/>
    </linearGradient>
  </defs>
</svg>
