<?xml version="1.0" encoding="UTF-8" standalone="no"?>
<svg xmlns:xlink="http://www.w3.org/1999/xlink" height="200.0px" width="200.0px" xmlns="http://www.w3.org/2000/svg">
  <g transform="matrix(1.0, 0.0, 0.0, 1.0, 100.0, 100.0)">
    <path d="M-51.6 24.7 Q-52.1 25.5 -52.4 25.9 -52.45 26.0 -52.5 26.05 -52.6 26.15 -52.65 26.25 -52.7 26.3 -52.8 26.4 -52.85 26.45 -52.9 26.55 -53.0 26.6 -53.05 26.7 -53.15 26.75 -53.2 26.8 -53.3 26.9 -53.4 26.95 -53.45 27.0 -53.55 27.1 -53.6 27.15 -53.65 27.15 -53.7 27.2 -53.7 27.25 -53.75 27.25 -53.8 27.3 -53.8 27.35 -53.85 27.4 -53.85 27.45 -53.9 27.5 -53.9 27.55 -53.9 27.6 -53.95 27.65 -53.95 27.7 -53.95 27.75 -53.95 27.8 -53.95 30.5 -53.85 31.05 -53.8 31.3 -53.8 31.85 -53.75 32.35 -53.7 32.65 -53.65 32.95 -53.6 33.3 -53.55 33.6 -53.5 33.95 -53.45 34.25 -53.4 34.55 -53.3 34.9 -53.25 35.2 -53.2 35.5 -53.1 35.8 -53.0 36.15 -52.9 36.45 -52.85 36.75 -52.75 37.05 -52.65 37.35 -52.55 37.7 -51.7 40.3 -50.1 43.85 -50.05 43.9 -50.05 44.0 -50.0 44.05 -50.0 44.15 -49.95 44.2 -49.95 44.3 -49.9 44.35 -49.9 44.45 -49.9 44.5 -49.85 44.55 -49.85 44.65 -49.85 44.7 -49.85 44.8 -49.85 44.85 -49.85 44.95 -49.85 45.0 -49.85 45.05 -49.85 45.6 -49.85 46.0 -49.85 46.2 -49.85 46.25 -49.85 46.3 -49.85 46.35 -49.9 46.35 -49.9 46.4 -49.9 46.4 -49.9 46.45 -49.95 46.45 -49.95 46.5 -50.0 46.5 -50.0 46.5 -50.05 46.55 -50.05 46.55 -50.1 46.55 -50.15 46.55 -50.2 46.55 -50.45 46.55 -50.9 46.55 -51.5 46.55 -51.65 46.55 -51.7 46.55 -51.75 46.55 -51.8 46.55 -51.85 46.5 -51.9 46.5 -51.9 46.45 -51.95 46.45 -52.0 46.4 -52.0 46.4 -52.05 46.35 -52.35 46.1 -52.6 45.9 -52.9 45.65 -53.15 45.4 -53.4 45.15 -53.7 44.9 -53.95 44.65 -54.2 44.4 -54.45 44.15 -54.7 43.9 -54.95 43.65 -55.2 43.35 -55.45 43.1 -55.7 42.85 -55.95 42.6 -56.2 42.3 -56.4 42.1 -56.55 41.9 -56.75 41.7 -56.9 41.5 -57.1 41.25 -57.25 41.05 -57.4 40.85 -57.6 40.65 -57.75 40.45 -57.9 40.2 -58.1 40.0 -58.25 39.8 -58.4 39.55 -58.55 39.35 -58.7 39.1 -58.85 38.9 -59.1 38.55 -59.3 38.15 -59.55 37.8 -59.75 37.4 -60.0 37.05 -60.2 36.65 -60.4 36.3 -60.55 35.9 -60.75 35.5 -60.95 35.1 -61.1 34.7 -61.25 34.3 -61.4 33.9 -61.55 33.5 -61.7 33.1 -61.8 32.65 -61.85 32.6 -62.0 32.15 -62.0 32.1 -62.05 32.1 -62.1 32.1 -62.15 32.1 -62.15 32.1 -62.2 32.1 -62.25 32.15 -62.25 32.2 -62.3 32.3 -62.35 32.35 -62.35 32.4 -62.4 32.45 -62.4 32.5 -62.4 32.6 -62.4 32.65 -62.4 32.7 -62.4 32.75 -62.4 32.85 -62.4 32.9 -62.4 32.95 -62.35 33.05 -62.35 33.1 -62.25 33.4 -62.1 33.7 -62.0 34.0 -61.85 34.3 -61.7 34.6 -61.6 34.85 -61.45 35.15 -61.3 35.45 -61.15 35.75 -61.05 36.05 -60.9 36.3 -60.75 36.6 -60.55 36.9 -60.4 37.15 -60.25 37.45 -60.1 37.7 -59.15 39.15 -58.55 39.9 -58.5 40.0 -58.45 40.05 -58.4 40.15 -58.3 40.25 -58.25 40.3 -58.2 40.4 -58.15 40.5 -58.1 40.6 -58.1 40.7 -58.05 40.8 -58.0 40.85 -57.95 40.95 -57.9 41.05 -57.85 41.15 -57.85 41.25 -57.8 41.35 -57.05 43.5 -56.1 46.35 -55.25 48.7 -54.5 50.35 -54.35 50.7 -54.2 51.0 -54.0 51.35 -53.85 51.65 -53.65 51.95 -53.5 52.25 -53.3 52.6 -53.1 52.9 -52.9 53.2 -52.7 53.5 -52.5 53.8 -52.3 54.1 -52.05 54.35 -51.85 54.65 -51.6 54.95 -51.35 55.2 -49.35 57.55 -48.9 58.0 -48.85 58.05 -48.8 58.15 -48.75 58.2 -48.7 58.25 -48.65 58.35 -48.6 58.4 -48.6 58.5 -48.55 58.55 -48.55 58.65 -48.5 58.7 -48.5 58.8 -48.5 58.9 -48.5 58.95 -48.5 59.05 -48.5 59.15 -48.5 59.2 -48.5 59.35 -48.5 59.65 -48.5 59.9 -48.5 60.1 -48.5 60.15 -48.5 60.2 -48.5 60.25 -48.5 60.3 -48.55 60.35 -48.55 60.35 -48.55 60.4 -48.6 60.4 -48.6 60.45 -48.65 60.45 -48.65 60.5 -48.7 60.5 -48.75 60.5 -48.8 60.5 -48.85 60.5 -48.95 60.5 -49.05 60.5 -49.1 60.5 -49.2 60.5 -49.3 60.5 -49.35 60.5 -49.45 60.5 -49.55 60.5 -49.6 60.5 -49.7 60.5 -49.75 60.5 -49.85 60.5 -49.95 60.5 -50.0 60.5 -50.1 60.5 -50.2 60.5 -50.25 60.45 -50.65 60.4 -51.05 60.35 -51.4 60.3 -51.8 60.2 -52.2 60.15 -52.55 60.05 -52.95 59.95 -53.35 59.85 -53.7 59.75 -54.1 59.65 -54.45 59.55 -54.85 59.45 -55.2 59.3 -55.6 59.2 -55.95 59.05 -56.3 58.95 -56.6 58.85 -56.9 58.7 -57.2 58.6 -57.45 58.45 -57.75 58.35 -58.05 58.2 -58.3 58.05 -58.6 57.9 -58.85 57.75 -59.15 57.6 -59.4 57.45 -59.65 57.25 -59.95 57.1 -60.2 56.95 -60.45 56.75 -60.7 56.55 -61.05 56.3 -61.4 56.0 -61.7 55.75 -62.05 55.45 -62.35 55.15 -62.65 54.85 -62.95 54.55 -63.2 54.2 -63.5 53.85 -63.75 53.55 -64.0 53.2 -64.25 52.85 -64.5 52.45 -64.7 52.1 -64.95 51.75 -65.15 51.35 -65.55 50.65 -68.55 45.25 -68.55 45.25 -68.6 45.15 -68.6 45.1 -68.65 45.05 -68.65 45.0 -68.7 45.0 -68.75 44.95 -68.8 44.95 -68.85 44.95 -68.85 45.0 -68.85 45.0 -68.9 45.05 -68.95 45.55 -69.0 46.25 -69.1 47.35 -69.1 47.45 -69.15 47.7 -69.2 48.25 -69.2 48.8 -69.25 49.05 -69.3 49.3 -69.45 51.3 -69.45 51.35 -69.45 51.35 -69.45 51.4 -69.45 51.4 -69.55 52.15 -69.6 52.2 -69.7 52.25 -70.35 52.25 -70.5 52.25 -70.95 52.25 -71.05 52.25 -71.1 52.25 -71.15 52.25 -71.2 52.25 -71.25 52.25 -71.3 52.25 -71.35 52.25 -71.35 52.2 -71.4 52.2 -71.45 52.15 -71.45 52.15 -71.5 52.1 -71.5 52.05 -71.55 51.95 -71.6 51.9 -71.6 51.8 -72.45 49.3 -72.65 48.5 -73.1 46.75 -73.3 45.75 -73.35 45.6 -73.35 45.55 -73.35 45.5 -73.4 45.45 -73.4 45.45 -73.45 45.4 -73.5 45.4 -73.55 45.4 -73.55 45.4 -73.6 45.4 -73.7 45.45 -73.75 45.45 -73.85 45.5 -73.95 45.55 -74.0 45.6 -74.1 45.6 -74.2 45.65 -74.25 45.65 -74.35 45.7 -74.45 45.75 -74.5 45.75 -74.6 45.8 -74.7 45.8 -74.75 45.85 -74.85 45.85 -74.95 45.9 -75.15 45.95 -75.4 46.0 -75.6 46.0 -75.8 46.05 -76.0 46.05 -76.25 46.1 -76.45 46.1 -76.7 46.1 -76.9 46.15 -77.1 46.15 -77.35 46.15 -77.55 46.15 -77.75 46.15 -78.0 46.1 -78.2 46.1 -78.45 46.1 -78.65 46.1 -78.7 46.1 -78.8 46.05 -78.9 46.05 -79.05 46.05 -79.15 46.05 -79.3 46.0 -79.4 46.0 -79.5 46.0 -79.65 45.95 -79.75 45.95 -79.85 45.9 -80.0 45.9 -80.1 45.85 -80.25 45.85 -80.35 45.8 -80.4 45.8 -80.45 45.8 -80.45 45.8 -80.5 45.8 -80.5 45.8 -80.55 45.85 -80.55 45.85 -80.55 45.9 -80.6 45.95 -80.55 46.0 -80.55 46.05 -80.55 46.1 -80.55 46.1 -80.55 46.15 -80.55 46.3 -80.55 46.25 -80.55 46.3 -80.55 46.35 -80.55 46.35 -80.55 46.4 -80.55 46.45 -80.6 46.65 -80.6 46.75 -80.6 46.8 -80.6 46.9 -80.65 46.9 -80.65 46.95 -80.65 47.0 -80.7 47.05 -80.75 47.05 -80.8 47.05 -80.85 47.05 -80.9 47.05 -81.0 47.05 -81.0 47.05 -81.25 47.1 -81.65 47.1 -82.05 47.1 -82.4 47.05 -82.8 47.05 -83.2 47.0 -83.6 46.95 -83.95 46.85 -84.35 46.8 -84.7 46.7 -85.1 46.65 -85.5 46.55 -85.85 46.45 -86.25 46.3 -86.6 46.2 -86.95 46.05 -87.35 45.9 -87.7 45.75 -88.1 45.6 -88.45 45.45 -88.8 45.3 -89.15 45.1 -89.5 44.9 -89.85 44.75 -90.2 44.55 -90.5 44.35 -90.85 44.1 -91.2 43.9 -91.5 43.65 -91.8 43.45 -92.15 43.2 -92.45 43.0 -92.75 42.75 -92.95 42.6 -93.15 42.4 -93.35 42.25 -93.55 42.1 -93.75 41.9 -93.95 41.75 -94.15 41.55 -94.35 41.4 -94.55 41.2 -94.7 41.05 -94.9 40.85 -95.1 40.7 -95.3 40.5 -95.45 40.35 -95.65 40.15 -95.85 39.95 -95.9 39.9 -95.95 39.85 -96.0 39.8 -96.05 39.75 -96.1 39.7 -96.1 39.6 -96.15 39.55 -96.15 39.5 -96.2 39.45 -96.2 39.4 -96.25 39.3 -96.25 39.25 -96.25 39.2 -96.25 39.1 -96.25 39.05 -96.25 38.95 -96.25 38.75 -96.25 38.45 -96.25 38.05 -96.25 37.95 -96.25 37.85 -96.25 37.8 -96.2 37.75 -96.2 37.75 -96.15 37.7 -96.15 37.7 -96.1 37.65 -96.05 37.65 -96.0 37.65 -95.9 37.65 -95.4 37.55 -94.65 37.5 -94.25 37.45 -93.85 37.4 -93.45 37.35 -93.05 37.3 -92.65 37.25 -92.3 37.2 -91.9 37.1 -91.5 37.05 -91.1 36.95 -90.75 36.85 -90.35 36.8 -89.95 36.65 -89.55 36.55 -89.2 36.45 -88.8 36.3 -88.45 36.2 -88.2 36.1 -87.95 36.0 -87.75 35.95 -87.5 35.85 -87.25 35.75 -87.0 35.65 -86.8 35.5 -86.55 35.4 -86.35 35.3 -86.1 35.2 -85.9 35.05 -85.65 34.95 -85.45 34.8 -85.2 34.7 -85.0 34.55 -84.8 34.45 -84.75 34.4 -84.7 34.4 -84.7 34.35 -84.65 34.35 -84.6 34.35 -84.55 34.3 -84.55 34.25 -84.5 34.25 -84.45 34.2 -84.45 34.2 -84.4 34.15 -84.4 34.15 -84.35 34.1 -84.35 34.05 -84.3 34.05 -84.3 34.0 -84.2 33.8 -84.05 33.65 -83.95 33.45 -83.8 33.3 -83.7 33.15 -83.55 32.95 -83.4 32.8 -83.25 32.65 -83.15 32.5 -83.0 32.35 -82.85 32.2 -82.7 32.0 -82.55 31.9 -82.4 31.7 -82.3 31.6 -82.1 31.4 -81.15 30.45 -80.55 29.85 -80.15 29.5 -79.0 28.2 -78.95 28.05 -78.95 28.0 -78.95 27.95 -79.0 27.95 -79.0 27.95 -79.1 27.9 -79.15 27.9 -79.2 27.9 -79.7 27.9 -82.9 27.75 -85.55 27.6 -86.35 27.4 -86.55 27.35 -86.7 27.3 -86.9 27.25 -87.1 27.2 -87.3 27.15 -87.45 27.1 -87.65 27.05 -87.85 27.0 -88.0 26.95 -88.2 26.9 -88.35 26.8 -88.55 26.75 -88.7 26.65 -88.9 26.6 -89.05 26.5 -89.25 26.45 -90.8 25.75 -93.7 23.85 -93.75 23.85 -93.75 23.8 -93.8 23.8 -93.8 23.75 -93.85 23.75 -93.85 23.7 -93.85 23.7 -93.9 23.65 -93.9 23.65 -93.9 23.6 -93.95 23.55 -93.95 23.55 -93.95 23.5 -93.95 23.45 -93.95 23.4 -93.95 23.4 -93.95 23.2 -93.95 22.8 -93.95 22.4 -93.95 22.2 -93.95 22.0 -93.9 21.9 -93.9 21.85 -93.8 21.8 -93.75 21.75 -93.55 21.7 -93.35 21.65 -93.05 21.6 -92.6 21.5 -92.55 21.5 -88.05 20.55 -86.7 20.2 -86.3 20.1 -85.95 19.95 -85.55 19.85 -85.2 19.7 -84.85 19.55 -84.5 19.4 -84.1 19.25 -83.75 19.1 -83.4 18.9 -83.05 18.75 -82.7 18.55 -82.35 18.35 -82.05 18.15 -81.7 17.95 -81.35 17.7 -81.05 17.5 -80.75 17.3 -80.45 17.05 -80.15 16.8 -79.85 16.55 -79.55 16.35 -79.25 16.05 -79.0 15.8 -78.7 15.55 -78.45 15.3 -78.15 15.0 -77.9 14.75 -77.65 14.45 -77.4 14.2 -77.15 13.9 -76.9 13.6 -76.7 13.3 -76.5 13.05 -74.2 10.1 -74.15 10.05 -74.1 9.95 -74.05 9.9 -74.0 9.85 -73.95 9.8 -73.95 9.7 -73.9 9.65 -73.85 9.6 -73.8 9.5 -73.8 9.45 -73.75 9.35 -73.7 9.3 -73.7 9.2 -73.65 9.15 -73.65 9.05 -73.65 9.0 -73.6 8.9 -73.6 8.75 -73.55 8.65 -73.5 8.5 -73.45 8.4 -73.4 8.3 -73.35 8.15 -73.3 8.05 -73.25 7.95 -73.2 7.8 -73.15 7.7 -73.1 7.6 -73.05 7.5 -72.95 7.35 -72.9 7.25 -72.85 7.15 -72.8 7.1 -72.8 7.05 -72.75 7.05 -72.75 7.0 -72.7 6.95 -72.7 6.9 -72.65 6.85 -72.65 6.8 -72.6 6.75 -72.65 6.7 -72.65 6.6 -72.7 6.6 -72.75 6.6 -72.8 6.6 -72.8 6.55 -72.85 6.55 -72.9 6.55 -72.95 6.55 -72.95 6.5 -73.0 6.5 -73.05 6.5 -73.1 6.5 -73.1 6.5 -73.15 6.5 -73.2 6.45 -73.25 6.45 -73.25 6.45 -73.3 6.45 -73.8 6.35 -74.3 6.2 -74.8 6.1 -75.3 5.9 -75.8 5.75 -76.3 5.55 -76.75 5.4 -77.2 5.15 -77.7 4.95 -78.15 4.7 -78.6 4.45 -79.0 4.2 -79.45 3.9 -79.85 3.6 -80.3 3.3 -80.7 2.95 -81.0 2.7 -81.3 2.45 -81.6 2.15 -81.9 1.9 -82.15 1.6 -82.45 1.3 -82.7 1.0 -82.95 0.7 -83.2 0.4 -83.45 0.1 -83.7 -0.2 -83.95 -0.55 -84.15 -0.9 -84.4 -1.2 -84.6 -1.55 -84.8 -1.9 -84.8 -1.9 -84.9 -2.05 -85.05 -2.3 -85.15 -2.45 -85.25 -2.65 -85.3 -2.8 -85.4 -2.95 -85.45 -3.1 -85.5 -3.25 -85.5 -3.4 -85.55 -3.55 -85.55 -3.7 -85.6 -3.85 -85.6 -4.0 -85.6 -4.2 -85.55 -4.4 -85.55 -4.6 -85.55 -4.85 -85.55 -4.95 -85.5 -4.95 -85.5 -5.05 -85.5 -5.05 -85.45 -5.1 -85.4 -5.1 -85.4 -5.15 -85.35 -5.15 -85.3 -5.15 -85.2 -5.15 -85.0 -5.15 -84.85 -5.15 -84.65 -5.15 -84.45 -5.15 -84.3 -5.15 -84.1 -5.15 -83.9 -5.15 -83.75 -5.15 -83.55 -5.15 -83.4 -5.1 -83.2 -5.1 -83.0 -5.1 -82.85 -5.05 -82.65 -5.05 -82.45 -5.0 -82.3 -4.95 -82.0 -4.9 -81.7 -4.85 -81.45 -4.85 -81.15 -4.8 -80.85 -4.75 -80.55 -4.75 -80.25 -4.75 -80.0 -4.75 -79.7 -4.75 -79.4 -4.75 -79.1 -4.75 -78.8 -4.75 -78.5 -4.75 -78.25 -4.8 -77.95 -4.8 -77.65 -4.85 -77.35 -4.9 -77.1 -4.9 -76.8 -4.95 -76.5 -5.0 -76.2 -5.05 -75.95 -5.1 -75.65 -5.15 -75.4 -5.2 -75.1 -5.25 -74.8 -5.3 -74.55 -5.35 -74.25 -5.4 -74.0 -5.45 -73.7 -5.55 -73.4 -5.6 -73.15 -5.7 -72.7 -5.8 -72.25 -5.95 -71.8 -6.1 -71.4 -6.25 -70.95 -6.4 -70.5 -6.55 -70.1 -6.75 -69.65 -6.9 -69.25 -7.1 -68.8 -7.3 -68.4 -7.5 -68.0 -7.7 -67.6 -7.9 -67.2 -8.15 -66.75 -8.35 -66.35 -8.6 -66.3 -8.65 -66.25 -8.7 -66.2 -8.7 -66.15 -8.75 -66.1 -8.8 -66.05 -8.85 -66.0 -8.9 -65.95 -8.95 -65.9 -9.0 -65.85 -9.05 -65.8 -9.1 -65.8 -9.15 -65.75 -9.25 -65.7 -9.3 -65.7 -9.35 -65.65 -9.45 -65.65 -9.5 -65.0 -10.9 -65.0 -10.9 -65.0 -10.95 -65.0 -10.95 -64.95 -11.0 -64.95 -11.05 -64.95 -11.05 -64.95 -11.1 -64.9 -11.1 -64.9 -11.15 -64.9 -11.15 -64.9 -11.2 -64.9 -11.25 -64.9 -11.25 -64.9 -11.3 -64.9 -11.35 -64.9 -11.35 -64.95 -11.35 -65.05 -11.4 -65.1 -11.4 -65.15 -11.4 -65.25 -11.45 -65.3 -11.45 -65.35 -11.45 -65.4 -11.45 -65.5 -11.5 -65.55 -11.5 -65.6 -11.5 -65.7 -11.5 -65.75 -11.5 -65.8 -11.5 -65.9 -11.55 -65.95 -11.55 -66.3 -11.55 -66.65 -11.6 -67.0 -11.6 -67.35 -11.6 -67.65 -11.65 -68.0 -11.65 -68.35 -11.7 -68.7 -11.75 -69.05 -11.75 -69.4 -11.8 -69.75 -11.85 -70.05 -11.9 -70.4 -11.95 -70.75 -12.0 -71.1 -12.05 -71.45 -12.1 -71.75 -12.15 -72.1 -12.2 -72.4 -12.3 -72.7 -12.4 -73.0 -12.45 -73.3 -12.6 -73.55 -12.7 -73.85 -12.85 -74.15 -12.95 -74.4 -13.1 -74.7 -13.25 -74.95 -13.45 -75.2 -13.6 -75.45 -13.8 -75.75 -13.95 -76.0 -14.15 -76.8 -14.85 -78.2 -16.4 -78.25 -16.45 -78.3 -16.55 -78.35 -16.6 -78.4 -16.65 -78.45 -16.75 -78.5 -16.8 -78.55 -16.9 -78.55 -16.95 -78.6 -17.05 -78.6 -17.1 -78.65 -17.2 -78.65 -17.3 -78.65 -17.35 -78.65 -17.45 -78.65 -17.55 -78.65 -17.65 -78.65 -17.8 -78.65 -18.1 -78.65 -18.5 -78.65 -18.6 -78.65 -18.65 -78.6 -18.7 -78.6 -18.75 -78.55 -18.8 -78.5 -18.8 -78.45 -18.85 -78.4 -18.85 -78.35 -18.85 -78.25 -18.85 -77.8 -18.85 -76.0 -18.85 -74.05 -18.85 -73.65 -18.85 -73.25 -18.85 -72.85 -18.9 -72.45 -18.9 -72.05 -18.95 -71.65 -19.0 -71.25 -19.0 -70.9 -19.05 -70.5 -19.1 -70.1 -19.15 -69.7 -19.2 -69.3 -19.3 -68.9 -19.35 -68.5 -19.45 -68.15 -19.5 -67.75 -19.6 -67.2 -19.7 -66.65 -19.85 -66.15 -20.0 -65.6 -20.15 -65.1 -20.3 -64.55 -20.45 -64.05 -20.65 -63.5 -20.85 -63.0 -21.0 -62.5 -21.25 -62.0 -21.45 -61.5 -21.65 -61.0 -21.9 -60.5 -22.15 -60.0 -22.35 -59.5 -22.65 -59.25 -22.8 -59.0 -22.9 -58.75 -23.05 -58.45 -23.2 -58.2 -23.35 -57.95 -23.5 -57.7 -23.65 -57.45 -23.8 -57.2 -23.95 -56.95 -24.1 -56.7 -24.25 -56.45 -24.45 -56.2 -24.6 -55.95 -24.75 -55.75 -24.95 -55.5 -25.1 -55.45 -25.15 -55.4 -25.15 -55.35 -25.2 -55.35 -25.2 -55.3 -25.25 -55.25 -25.3 -55.2 -25.3 -55.2 -25.35 -55.15 -25.4 -55.1 -25.45 -55.1 -25.45 -55.05 -25.5 -55.05 -25.55 -55.0 -25.6 -55.0 -25.65 -54.95 -25.7 -54.85 -25.95 -54.7 -26.2 -54.55 -26.45 -54.45 -26.7 -54.3 -26.95 -54.15 -27.2 -54.0 -27.45 -53.9 -27.7 -53.75 -27.95 -53.6 -28.2 -53.45 -28.45 -53.25 -28.7 -53.1 -28.9 -52.95 -29.15 -52.8 -29.4 -52.6 -29.65 -52.55 -29.7 -52.55 -29.75 -52.55 -29.75 -52.55 -29.8 -52.55 -29.8 -52.6 -29.85 -52.6 -29.85 -52.65 -29.9 -52.7 -29.9 -52.75 -29.95 -52.95 -30.0 -53.2 -30.1 -53.4 -30.2 -53.6 -30.25 -53.8 -30.35 -54.0 -30.45 -54.2 -30.55 -54.4 -30.65 -54.6 -30.75 -54.8 -30.9 -55.0 -31.0 -55.2 -31.1 -55.4 -31.25 -55.55 -31.35 -55.75 -31.5 -55.9 -31.65 -56.1 -31.8 -56.35 -32.0 -56.55 -32.15 -56.75 -32.35 -56.95 -32.55 -57.15 -32.7 -57.35 -32.9 -57.5 -33.1 -57.7 -33.3 -57.85 -33.5 -58.05 -33.7 -58.2 -33.9 -58.4 -34.15 -58.55 -34.35 -58.7 -34.55 -58.85 -34.8 -58.9 -34.85 -58.9 -34.85 -58.95 -34.9 -58.95 -34.95 -59.0 -35.0 -59.0 -35.05 -59.0 -35.1 -59.0 -35.1 -59.05 -35.15 -59.05 -35.2 -59.05 -35.55 -59.05 -36.9 -59.05 -36.95 -59.05 -37.0 -59.0 -37.0 -59.0 -37.05 -58.95 -37.05 -58.95 -37.1 -58.9 -37.1 -58.85 -37.1 -58.8 -37.15 -58.8 -37.15 -58.55 -37.15 -58.0 -37.15 -57.5 -37.15 -57.25 -37.15 -57.15 -37.15 -56.7 -36.9 -56.6 -36.85 -56.45 -36.8 -56.35 -36.7 -56.25 -36.65 -56.1 -36.6 -56.0 -36.55 -55.9 -36.5 -55.75 -36.45 -55.65 -36.4 -55.5 -36.4 -55.4 -36.35 -55.3 -36.3 -55.15 -36.25 -55.05 -36.2 -54.9 -36.2 -54.8 -36.15 -54.7 -36.1 -54.6 -36.1 -54.5 -36.1 -54.45 -36.05 -54.35 -36.05 -54.25 -36.05 -54.15 -36.05 -54.05 -36.05 -53.95 -36.05 -53.9 -36.05 -53.8 -36.05 -53.7 -36.05 -53.6 -36.05 -53.5 -36.1 -53.45 -36.1 -53.35 -36.1 -53.15 -36.15 -53.0 -36.2 -52.8 -36.25 -52.65 -36.3 -52.45 -36.35 -52.3 -36.4 -52.1 -36.45 -51.95 -36.55 -51.75 -36.6 -51.6 -36.7 -51.4 -36.75 -51.25 -36.8 -51.1 -36.9 -50.95 -37.0 -50.75 -37.05 -50.6 -37.15 -49.9 -37.55 -48.35 -38.55 -47.3 -39.2 -45.25 -40.5 -45.15 -40.55 -45.1 -40.6 -45.0 -40.65 -44.9 -40.7 -44.8 -40.75 -44.7 -40.8 -44.65 -40.85 -44.55 -40.9 -44.45 -40.95 -44.35 -41.0 -44.25 -41.0 -44.2 -41.05 -44.1 -41.1 -44.0 -41.15 -43.9 -41.15 -43.8 -41.2 -43.75 -41.2 -43.7 -41.25 -43.65 -41.25 -43.6 -41.3 -43.55 -41.3 -43.45 -41.35 -43.4 -41.35 -43.35 -41.4 -43.3 -41.4 -43.25 -41.45 -43.2 -41.5 -43.2 -41.5 -43.15 -41.55 -43.1 -41.6 -43.05 -41.6 -43.0 -41.65 -42.5 -42.15 -40.25 -43.75 -40.2 -43.8 -40.15 -43.85 -40.1 -43.9 -40.05 -43.9 -40.0 -43.95 -39.95 -44.0 -39.95 -44.05 -39.9 -44.1 -39.85 -44.15 -39.85 -44.2 -39.8 -44.25 -39.8 -44.3 -39.75 -44.35 -39.75 -44.4 -39.7 -44.5 -39.7 -44.55 -38.9 -46.95 -38.35 -48.25 -38.25 -48.55 -38.1 -48.8 -37.95 -49.05 -37.8 -49.3 -37.65 -49.55 -37.45 -49.8 -37.3 -50.05 -37.1 -50.3 -36.95 -50.5 -36.75 -50.7 -36.5 -50.95 -36.3 -51.15 -36.1 -51.35 -35.85 -51.55 -35.6 -51.7 -35.35 -51.9 -35.25 -51.95 -35.15 -52.05 -35.05 -52.1 -34.95 -52.15 -34.85 -52.2 -34.75 -52.25 -34.65 -52.25 -34.55 -52.3 -34.4 -52.35 -34.3 -52.35 -34.2 -52.4 -34.1 -52.4 -33.95 -52.4 -33.85 -52.45 -33.75 -52.45 -33.6 -52.45 -32.5 -52.4 -31.8 -52.45 -31.65 -52.45 -31.45 -52.45 -31.3 -52.45 -31.15 -52.45 -30.95 -52.4 -30.8 -52.4 -30.65 -52.35 -30.5 -52.3 -30.3 -52.25 -30.15 -52.2 -30.0 -52.15 -29.85 -52.1 -29.7 -52.05 -29.55 -52.0 -29.4 -51.9 -29.25 -51.8 -29.15 -51.75 -29.05 -51.7 -28.95 -51.65 -28.9 -51.65 -28.8 -51.65 -28.7 -51.6 -28.65 -51.6 -28.55 -51.6 -28.45 -51.65 -28.4 -51.65 -28.3 -51.65 -28.2 -51.7 -28.15 -51.75 -28.05 -51.8 -27.95 -51.85 -27.9 -51.9 -27.25 -52.4 -25.45 -53.5 -25.4 -53.55 -25.35 -53.55 -25.3 -53.6 -25.25 -53.65 -25.2 -53.65 -25.2 -53.7 -25.15 -53.75 -25.1 -53.8 -25.05 -53.85 -25.05 -53.9 -25.0 -53.9 -25.0 -53.95 -24.95 -54.0 -24.95 -54.05 -24.9 -54.1 -24.9 -54.15 -24.9 -54.2 -24.85 -54.3 -24.85 -54.35 -24.8 -54.4 -24.8 -54.45 -24.75 -54.55 -24.75 -54.6 -24.7 -54.65 -24.65 -54.7 -24.65 -54.75 -24.6 -54.85 -24.55 -54.9 -24.55 -54.95 -24.5 -55.0 -24.45 -55.05 -24.45 -55.1 -24.35 -55.25 -24.25 -55.4 -24.1 -55.55 -24.0 -55.65 -23.9 -55.8 -23.75 -55.9 -23.6 -56.0 -23.5 -56.05 -23.35 -56.15 -23.2 -56.2 -23.05 -56.3 -22.85 -56.35 -22.7 -56.4 -22.55 -56.4 -22.35 -56.4 -22.15 -56.45 -20.05 -56.45 -19.6 -56.35 -19.55 -56.35 -19.5 -56.35 -19.4 -56.35 -19.35 -56.3 -19.3 -56.3 -19.25 -56.3 -19.2 -56.3 -19.1 -56.3 -19.1 -56.3 -19.0 -56.3 -18.95 -56.3 -18.9 -56.3 -18.8 -56.3 -18.75 -56.3 -18.7 -56.3 -18.65 -56.3 -15.0 -56.0 -13.45 -55.65 -13.2 -55.6 -11.85 -55.2 -10.85 -54.95 -10.25 -54.8 -9.9 -54.7 -9.6 -54.65 -9.25 -54.55 -8.95 -54.5 -8.6 -54.4 -8.3 -54.35 -7.95 -54.25 -7.65 -54.2 -7.3 -54.15 -7.0 -54.1 -6.65 -54.0 -6.3 -53.95 -6.0 -53.9 -5.65 -53.85 -5.35 -53.8 -5.0 -53.75 -4.55 -53.7 -1.3 -53.3 -0.9 -53.25 -0.2 -53.2 0.65 -53.15 0.95 -53.1 1.55 -53.05 2.75 -53.0 3.95 -52.95 4.55 -52.9 4.65 -52.85 5.05 -52.85 5.55 -52.85 7.65 -52.85 9.2 -52.85 10.2 -52.9 14.0 -53.0 14.2 -53.0 16.45 -53.15 17.55 -53.25 17.9 -53.3 18.25 -53.35 18.65 -53.4 19.0 -53.45 19.35 -53.5 19.7 -53.6 20.05 -53.65 20.4 -53.7 20.8 -53.8 21.15 -53.85 21.5 -53.95 21.85 -54.05 22.2 -54.1 22.55 -54.2 22.9 -54.3 23.25 -54.4 23.8 -54.55 24.3 -54.7 24.85 -54.9 25.35 -55.05 25.9 -55.25 26.4 -55.45 26.9 -55.6 27.45 -55.8 27.95 -56.05 28.45 -56.25 28.95 -56.45 29.45 -56.7 29.95 -56.95 30.45 -57.2 30.95 -57.45 31.45 -57.7 31.75 -57.85 32.0 -58.0 32.3 -58.15 32.6 -58.3 32.85 -58.5 33.15 -58.65 33.4 -58.8 33.7 -59.0 34.0 -59.15 34.25 -59.3 34.55 -59.5 34.8 -59.65 35.05 -59.85 35.35 -60.0 35.6 -60.2 35.9 -60.4 35.95 -60.45 36.0 -60.45 36.1 -60.5 36.15 -60.55 36.2 -60.55 36.25 -60.6 36.3 -60.6 36.4 -60.65 36.45 -60.65 36.5 -60.65 36.6 -60.7 36.65 -60.7 36.7 -60.7 36.8 -60.7 36.85 -60.7 36.95 -60.7 37.15 -60.7 37.55 -60.7 37.95 -60.7 38.15 -60.7 38.2 -60.7 38.25 -60.7 38.3 -60.7 38.35 -60.65 38.35 -60.65 38.4 -60.65 38.45 -60.6 38.45 -60.6 38.5 -60.55 38.5 -60.55 38.5 -60.5 38.55 -60.45 38.55 -60.45 38.55 -60.4 38.55 -60.35 38.55 -60.3 38.55 -60.4 38.55 -60.0 38.55 -59.8 38.55 -59.7 38.55 -59.5 38.55 -59.4 38.55 -59.2 38.55 -59.05 38.55 -58.9 38.55 -58.75 38.5 -58.6 38.5 -58.45 38.45 -58.3 38.45 -58.15 38.4 -58.0 38.35 -57.85 38.25 -57.5 37.85 -56.25 37.55 -55.3 37.3 -54.7 37.2 -54.4 37.05 -54.1 36.95 -53.8 36.8 -53.55 36.65 -53.25 36.5 -52.95 36.35 -52.7 36.2 -52.4 36.05 -52.15 35.9 -51.9 35.7 -51.6 35.55 -51.35 35.35 -51.1 35.15 -50.85 35.0 -50.6 34.8 -50.35 34.65 -50.15 34.5 -50.0 34.35 -49.8 34.2 -49.65 34.1 -49.45 33.95 -49.3 33.8 -49.15 33.65 -48.95 33.45 -48.8 33.3 -48.65 33.15 -48.45 33.0 -48.3 32.85 -48.15 32.7 -48.0 32.5 -47.85 32.35 -47.7 32.3 -47.6 32.25 -47.6 32.2 -47.5 32.15 -47.5 32.15 -47.45 32.15 -47.4 32.15 -47.35 32.15 -47.3 32.2 -47.25 32.25 -47.15 32.55 -46.5 33.0 -45.15 33.05 -45.05 33.1 -44.9 33.15 -44.8 33.2 -44.65 33.25 -44.55 33.3 -44.4 33.35 -44.3 33.4 -44.2 33.45 -44.05 33.55 -43.95 33.6 -43.85 33.65 -43.75 33.7 -43.6 33.8 -43.5 33.85 -43.4 33.95 -43.3 33.95 -43.25 34.0 -43.25 34.0 -43.2 34.0 -43.2 34.05 -43.15 34.05 -43.15 34.1 -43.1 34.1 -43.1 34.15 -43.05 34.15 -43.05 34.2 -43.05 34.2 -43.0 34.25 -43.0 34.25 -42.95 34.3 -42.95 34.3 -42.95 39.15 -39.7 42.15 -38.1 42.65 -37.85 43.15 -37.55 43.65 -37.3 44.15 -37.05 44.7 -36.8 45.2 -36.6 45.7 -36.35 46.25 -36.15 46.75 -35.9 47.3 -35.7 47.85 -35.5 48.35 -35.3 48.9 -35.1 49.45 -34.95 50.0 -34.75 50.55 -34.6 50.95 -34.5 51.3 -34.35 51.65 -34.25 52.05 -34.15 52.4 -34.05 52.8 -33.95 53.2 -33.85 53.55 -33.75 53.95 -33.7 54.3 -33.6 54.7 -33.5 55.1 -33.45 55.45 -33.35 55.85 -33.3 56.25 -33.2 56.6 -33.15 56.75 -33.15 56.95 -33.1 57.1 -33.1 57.25 -33.05 57.45 -33.05 57.6 -33.0 57.75 -33.0 57.95 -33.0 58.1 -32.95 58.25 -32.95 58.45 -32.9 58.6 -32.9 58.75 -32.9 58.95 -32.85 59.1 -32.85 59.25 -32.85 59.5 -32.8 59.7 -32.8 59.95 -32.8 60.15 -32.75 60.4 -32.75 60.65 -32.75 60.85 -32.75 61.1 -32.7 61.3 -32.7 61.55 -32.7 61.75 -32.7 62.0 -32.7 62.2 -32.7 62.45 -32.7 62.7 -32.7 62.9 -32.7 63.0 -32.7 63.1 -32.7 63.2 -32.7 63.35 -32.75 63.45 -32.75 63.55 -32.75 63.65 -32.75 63.75 -32.75 63.85 -32.75 63.95 -32.75 64.05 -32.8 64.15 -32.8 64.25 -32.8 64.35 -32.8 64.45 -32.8 64.6 -32.85 65.5 -32.95 67.45 -32.9 67.5 -32.9 67.6 -32.85 67.7 -32.85 67.75 -32.85 67.8 -32.85 67.8 -32.8 67.85 -32.8 67.85 -32.8 67.9 -32.8 67.9 -32.75 67.95 -32.75 67.95 -32.7 68.0 -32.7 68.0 -32.65 68.0 -32.65 68.0 -32.6 68.05 -32.6 68.05 -32.55 68.05 -32.55 68.05 -32.5 68.05 -32.4 68.1 -32.3 68.1 -32.2 68.1 -32.1 68.1 -32.05 68.1 -31.95 68.1 -31.85 68.1 -31.75 68.1 -31.65 68.1 -31.55 68.1 -31.45 68.1 -31.35 68.1 -31.3 68.1 -31.15 68.05 -31.1 68.05 -31.0 68.05 -30.95 68.05 -30.9 68.05 -30.85 68.0 -30.85 68.0 -30.8 68.0 -30.75 67.95 -30.75 67.95 -30.7 67.9 -30.65 67.9 -30.65 67.85 -30.6 67.8 -30.55 67.7 -30.45 67.7 -30.45 67.15 -29.95 66.65 -29.5 66.1 -29.0 65.55 -28.55 64.95 -28.1 64.4 -27.7 63.85 -27.25 63.25 -26.85 62.65 -26.45 62.05 -26.1 61.45 -25.7 60.8 -25.35 60.2 -25.0 59.55 -24.65 58.95 -24.3 58.3 -24.0 58.25 -24.0 58.1 -23.9 58.05 -23.9 58.0 -23.85 57.95 -23.85 57.95 -23.8 57.95 -23.75 57.9 -23.7 57.9 -23.65 57.9 -23.6 57.9 -23.4 57.9 -23.25 57.95 -23.05 57.95 -22.9 58.0 -22.75 58.0 -22.55 58.0 -22.4 58.05 -22.2 58.1 -22.05 58.1 -21.85 58.15 -21.7 58.2 -21.55 58.25 -21.35 58.3 -21.2 58.35 -21.05 58.4 -20.85 58.4 -20.8 58.45 -20.75 58.45 -20.75 58.5 -20.7 58.55 -20.65 58.55 -20.65 58.6 -20.6 58.65 -20.55 58.75 -20.5 58.9 -20.4 59.0 -20.35 59.15 -20.25 59.25 -20.15 59.35 -20.1 59.45 -20.0 59.55 -19.9 59.65 -19.8 59.75 -19.7 59.85 -19.6 59.95 -19.5 60.05 -19.4 60.15 -19.3 60.25 -19.2 60.35 -19.05 60.35 -19.0 60.4 -19.0 60.4 -18.95 60.45 -18.95 60.45 -18.9 60.5 -18.9 60.55 -18.85 60.55 -18.85 60.6 -18.8 60.65 -18.8 60.65 -18.8 60.7 -18.75 60.75 -18.75 60.8 -18.75 60.8 -18.7 60.85 -18.7 60.95 -18.65 61.05 -18.6 61.2 -18.6 61.3 -18.55 61.4 -18.5 61.5 -18.45 61.6 -18.4 61.7 -18.35 61.85 -18.3 61.95 -18.25 62.05 -18.2 62.15 -18.15 62.25 -18.1 62.35 -18.0 62.45 -17.95 62.55 -17.9 62.75 -17.75 62.95 -17.6 63.2 -17.4 63.35 -17.25 63.55 -17.1 63.75 -16.9 63.9 -16.7 64.1 -16.5 64.25 -16.3 64.4 -16.1 64.55 -15.9 64.65 -15.7 64.8 -15.45 64.95 -15.25 65.05 -15.0 65.15 -14.75 65.2 -14.55 65.3 -14.4 65.4 -14.2 65.5 -14.0 65.55 -13.85 65.65 -13.65 65.75 -13.45 65.85 -13.3 65.95 -13.1 66.05 -12.95 66.15 -12.75 66.25 -12.6 66.35 -12.4 66.45 -12.25 66.55 -12.1 66.7 -11.9 67.55 -10.45 67.65 -10.3 67.7 -10.2 67.75 -10.05 67.8 -9.95 67.85 -9.85 67.85 -9.7 67.9 -9.6 67.95 -9.5 67.95 -9.35 68.0 -9.25 68.0 -9.1 68.0 -9.0 68.05 -8.85 68.05 -8.75 68.05 -8.6 68.1 -8.5 68.1 -8.4 68.1 -8.2 68.1 -8.25 68.1 -8.2 68.15 -8.15 68.15 -8.05 68.2 -8.0 68.2 -8.0 68.25 -7.95 68.25 -7.95 68.3 -7.9 68.3 -7.9 68.3 -7.85 68.35 -7.8 68.35 -7.8 68.35 -7.75 68.35 -7.75 68.4 -7.7 68.4 -7.7 68.4 -7.65 68.4 -7.6 68.45 -7.6 68.45 -7.55 68.5 -7.35 68.6 -7.1 68.7 -6.9 68.8 -6.7 68.85 -6.5 68.95 -6.3 69.05 -6.1 69.2 -5.9 69.3 -5.7 69.4 -5.5 69.55 -5.3 69.65 -5.1 69.8 -4.9 69.95 -4.75 70.05 -4.55 70.2 -4.35 70.3 -4.2 70.85 -3.5 71.25 -3.0 71.55 -2.7 71.75 -2.5 71.9 -2.3 72.1 -2.1 72.3 -1.9 72.5 -1.7 72.7 -1.55 72.95 -1.35 73.15 -1.2 73.35 -1.05 73.6 -0.9 73.8 -0.75 74.05 -0.6 74.3 -0.45 74.55 -0.3 74.75 -0.2 75.0 -0.05 75.05 0.0 75.15 0.0 75.2 0.05 75.25 0.05 75.35 0.05 75.4 0.1 75.5 0.1 75.55 0.15 75.6 0.15 75.7 0.15 75.75 0.15 75.85 0.2 75.9 0.2 75.95 0.2 76.05 0.2 76.1 0.2 76.15 0.2 76.2 0.2 76.25 0.2 76.3 0.2 76.35 0.2 76.4 0.2 76.45 0.15 76.5 0.15 76.5 0.15 76.55 0.15 76.6 0.15 76.65 0.1 76.7 0.1 76.75 0.1 76.8 0.05 76.8 0.05 76.85 0.0 76.9 0.0 76.95 0.0 77.0 -0.05 77.05 -0.05 77.1 -0.05 77.1 -0.1 77.15 -0.1 77.2 -0.1 77.25 -0.1 77.4 -0.1 77.45 -0.1 77.55 -0.1 77.6 -0.1 77.65 -0.1 77.7 -0.05 77.75 -0.05 77.8 -0.05 77.8 0.0 77.85 0.05 77.85 0.1 77.85 0.15 77.9 0.2 77.9 0.3 77.9 0.35 77.9 0.5 77.9 0.55 77.9 0.55 77.9 0.6 77.9 0.6 77.9 0.65 77.9 0.7 77.9 0.7 77.9 0.75 77.9 0.8 77.9 0.8 77.9 0.85 77.9 0.9 77.9 0.9 77.9 0.95 77.9 1.0 77.9 1.0 77.9 1.1 77.9 1.2 77.9 1.3 77.9 1.35 77.9 1.45 77.85 1.55 77.85 1.6 77.85 1.7 77.8 1.75 77.75 1.85 77.75 1.9 77.65 2.0 77.6 2.05 77.55 2.1 77.5 2.15 77.4 2.25 77.35 2.25 77.35 2.3 77.3 2.3 77.3 2.35 77.25 2.35 77.25 2.4 77.25 2.45 77.2 2.45 77.2 2.5 77.2 2.55 77.2 2.55 77.2 2.6 77.25 2.65 77.25 2.65 77.25 2.7 77.3 2.75 77.35 2.9 77.5 3.15 77.7 3.5 77.75 3.55 77.9 3.9 78.3 4.65 78.6 5.3 78.8 5.7 78.85 5.75 78.85 5.85 78.9 5.9 78.95 5.95 79.0 6.0 79.05 6.05 79.05 6.1 79.1 6.15 79.15 6.2 79.25 6.25 79.3 6.3 79.35 6.3 79.4 6.35 79.45 6.4 79.55 6.4 79.6 6.45 79.8 6.5 79.95 6.6 80.15 6.65 80.35 6.7 80.5 6.8 80.7 6.85 80.9 6.9 81.05 6.95 81.25 7.0 81.45 7.05 81.65 7.1 81.85 7.2 82.0 7.2 82.2 7.3 82.4 7.3 82.6 7.35 82.95 7.45 83.55 7.6 84.35 7.85 84.5 7.9 84.65 7.95 84.75 7.95 84.8 8.0 84.8 8.05 84.85 8.1 84.85 8.3 84.85 8.4 84.85 8.9 84.85 9.3 84.85 9.55 84.85 9.6 84.85 9.65 84.85 9.7 84.85 9.75 84.8 9.75 84.8 9.8 84.8 9.85 84.75 9.85 84.75 9.9 84.75 9.95 84.7 9.95 84.7 10.0 84.65 10.0 84.6 10.05 84.6 10.05 84.55 10.1 84.1 10.35 83.55 10.7 83.5 10.75 83.3 10.85 83.15 11.0 83.05 11.05 83.05 11.15 83.1 11.2 83.15 11.25 83.2 11.3 83.3 11.4 83.3 11.4 83.35 11.45 83.75 11.85 84.0 12.1 84.2 12.3 84.25 12.35 84.3 12.4 84.3 12.45 84.35 12.45 84.4 12.5 84.45 12.55 84.5 12.55 84.55 12.6 84.6 12.6 84.65 12.65 84.7 12.65 84.75 12.7 84.85 12.7 84.9 12.7 84.95 12.75 85.0 12.75 85.3 12.8 86.95 13.15 87.95 13.4 89.85 13.6 90.0 13.6 90.15 13.65 90.3 13.65 90.45 13.65 90.6 13.65 90.75 13.65 90.85 13.6 91.0 13.6 91.15 13.6 91.3 13.55 91.45 13.55 91.6 13.55 91.7 13.5 91.9 13.5 92.3 13.4 92.2 13.45 92.4 13.4 92.6 13.35 92.8 13.35 93.0 13.3 93.25 13.25 93.45 13.2 93.65 13.1 93.85 13.05 94.05 13.0 94.25 12.95 94.45 12.85 94.65 12.8 94.85 12.75 95.05 12.65 95.25 12.55 95.45 12.5 95.5 12.5 95.55 12.45 95.6 12.45 95.6 12.4 95.65 12.4 95.7 12.4 95.75 12.4 95.8 12.35 95.85 12.35 95.9 12.35 95.95 12.35 96.0 12.35 96.05 12.35 96.1 12.35 96.15 12.35 96.2 12.35 97.0 12.35 97.4 12.35 97.45 12.35 97.5 12.35 97.55 12.4 97.55 12.4 97.6 12.4 97.6 12.4 97.65 12.45 97.65 12.45 97.7 12.5 97.7 12.5 97.75 12.55 97.75 12.6 97.75 12.65 97.75 12.65 97.75 12.7 97.75 12.75 97.75 12.9 97.8 14.3 97.8 14.35 97.8 14.35 97.8 14.4 97.75 14.45 97.75 14.5 97.75 14.5 97.7 14.55 97.7 14.6 97.7 14.6 97.65 14.65 97.65 14.65 97.6 14.7 97.6 14.7 97.55 14.75 97.55 14.75 97.55 14.8 96.35 16.2 96.0 16.75 95.9 16.9 95.8 17.0 95.65 17.1 95.55 17.25 95.45 17.35 95.3 17.45 95.2 17.6 95.05 17.7 94.95 17.8 94.8 17.9 94.7 18.0 94.55 18.1 94.4 18.2 94.3 18.3 94.15 18.4 94.0 18.5 93.8 18.65 93.55 18.8 93.35 18.95 93.1 19.1 92.85 19.2 92.65 19.3 92.4 19.45 92.15 19.55 91.9 19.65 91.65 19.7 91.4 19.8 91.15 19.85 90.9 19.95 90.65 19.95 90.35 20.0 90.1 20.05 90.1 20.05 89.65 20.1 89.35 20.15 89.15 20.15 89.1 20.15 89.1 20.15 89.05 20.15 89.0 20.2 89.0 20.2 88.95 20.2 88.95 20.2 88.9 20.25 88.9 20.25 88.85 20.25 88.85 20.3 88.8 20.3 88.8 20.35 88.75 20.35 88.75 20.4 88.7 20.4 86.4 23.4 85.75 24.4 85.75 24.4 85.65 24.55 85.6 24.65 85.6 24.7 85.55 24.75 85.55 24.8 85.55 24.8 85.55 24.85 85.55 24.9 85.55 24.95 85.55 24.95 85.6 25.0 85.6 25.05 85.65 25.05 86.15 25.55 86.5 25.9 88.3 27.5 89.2 28.2 89.55 28.5 89.95 28.75 90.35 29.0 90.7 29.2 91.1 29.45 91.5 29.65 91.9 29.85 92.35 30.05 92.75 30.2 93.15 30.35 93.6 30.5 94.05 30.65 94.5 30.8 94.95 30.9 95.35 31.0 95.85 31.05 96.0 31.05 96.1 31.1 96.25 31.1 96.35 31.15 96.5 31.15 96.65 31.15 96.75 31.2 96.9 31.2 97.0 31.2 97.15 31.25 97.3 31.25 97.4 31.25 97.55 31.25 97.7 31.25 97.8 31.25 97.95 31.25 98.45 31.25 99.3 31.25 99.4 31.25 99.45 31.25 99.5 31.25 99.55 31.3 99.6 31.3 99.65 31.3 99.65 31.3 99.7 31.35 99.7 31.4 99.75 31.4 99.75 31.45 99.75 31.5 99.75 31.55 99.75 31.65 99.8 31.7 99.8 31.8 99.75 32.5 99.8 32.85 99.8 32.9 99.8 32.95 99.8 33.0 99.8 33.0 99.75 33.05 99.75 33.1 99.75 33.15 99.75 33.15 99.7 33.2 99.7 33.25 99.65 33.25 99.65 33.3 99.6 33.35 99.6 33.35 99.55 33.4 99.55 33.45 99.2 33.75 98.65 34.2 98.0 34.8 97.8 35.0 95.85 36.6 94.4 37.6 94.1 37.8 93.8 38.0 93.45 38.2 93.15 38.4 92.85 38.55 92.5 38.75 92.2 38.9 91.85 39.1 91.55 39.25 91.2 39.4 90.85 39.55 90.5 39.7 90.2 39.85 89.85 39.95 89.5 40.1 89.15 40.2 89.1 40.2 89.1 40.25 89.05 40.25 89.0 40.25 89.0 40.25 88.95 40.3 88.9 40.3 88.9 40.3 88.85 40.3 88.8 40.35 88.75 40.35 88.75 40.4 88.75 40.4 88.7 40.45 88.7 40.5 88.7 40.55 88.7 40.55 88.75 40.6 88.95 41.25 89.5 42.65 89.5 42.7 89.55 42.7 89.55 42.75 89.55 42.75 89.6 42.8 89.6 42.8 89.6 42.85 89.65 42.85 89.65 42.9 89.65 42.9 89.7 42.95 89.7 42.95 89.75 42.95 89.75 43.0 89.8 43.0 89.8 43.0 91.95 44.3 92.55 44.6 92.85 44.75 93.15 44.9 93.45 45.05 93.8 45.2 94.1 45.35 94.4 45.45 94.75 45.6 95.05 45.7 95.4 45.8 95.7 45.9 96.05 46.0 96.35 46.1 96.7 46.2 97.05 46.25 97.4 46.35 97.7 46.4 97.75 46.4 97.8 46.4 97.8 46.4 97.85 46.4 97.9 46.4 97.9 46.4 97.95 46.4 98.0 46.45 98.05 46.45 98.05 46.45 98.1 46.5 98.1 46.5 98.15 46.55 98.15 46.6 98.15 46.65 98.15 46.7 98.15 47.1 98.15 48.3 98.15 48.35 98.15 48.35 98.15 48.4 98.15 48.4 98.15 48.45 98.15 48.5 98.1 48.5 98.1 48.55 98.1 48.55 98.05 48.6 98.05 48.6 98.05 48.65 98.0 48.65 98.0 48.7 97.95 48.7 97.95 48.7 97.25 49.25 96.95 49.45 96.65 49.65 96.35 49.85 96.05 50.05 95.75 50.25 95.45 50.45 95.15 50.65 94.85 50.85 94.55 51.05 94.25 51.25 93.9 51.4 93.6 51.6 93.3 51.75 92.95 51.95 92.65 52.1 92.35 52.3 92.0 52.45 91.7 52.6 91.4 52.75 91.1 52.85 90.8 53.0 90.5 53.1 90.15 53.2 89.85 53.35 89.55 53.45 89.25 53.55 88.9 53.65 88.6 53.75 88.25 53.8 87.95 53.9 87.65 53.95 87.3 54.05 86.95 54.1 86.85 54.1 86.75 54.15 86.6 54.15 86.5 54.2 86.4 54.2 86.3 54.2 86.15 54.25 86.05 54.25 85.95 54.25 85.8 54.25 85.7 54.3 85.6 54.3 85.45 54.3 85.35 54.3 85.25 54.3 85.1 54.3 84.6 54.3 83.8 54.3 82.75 54.3 82.45 54.3 82.15 54.3 81.8 54.25 81.5 54.25 81.2 54.2 80.85 54.15 80.55 54.1 80.25 54.05 79.95 53.95 79.65 53.9 79.35 53.8 79.05 53.7 78.75 53.6 78.45 53.5 78.15 53.4 77.85 53.3 77.55 53.15 77.45 53.1 77.4 53.05 77.3 53.05 77.2 53.0 77.15 52.95 77.1 52.85 77.0 52.8 76.95 52.75 76.9 52.65 76.85 52.6 76.8 52.5 76.8 52.4 76.75 52.35 76.7 52.25 76.7 52.15 76.65 52.0 76.4 52.2 75.5 52.9 75.45 52.9 75.45 52.95 75.4 52.95 75.4 53.0 75.4 53.0 75.35 53.05 75.35 53.1 75.35 53.1 75.3 53.15 75.3 53.2 75.3 53.2 75.3 53.25 75.3 53.3 75.3 53.35 75.15 53.8 75.25 53.4 75.2 53.75 75.1 54.1 75.0 54.4 74.95 54.75 74.85 55.05 74.75 55.4 74.65 55.75 74.55 56.05 74.45 56.4 74.35 56.75 74.25 57.05 74.15 57.4 74.05 57.7 73.9 58.05 73.8 58.35 73.7 58.7 73.6 58.9 73.1 60.15 73.0 60.3 72.85 60.6 72.85 60.65 72.8 60.65 72.8 60.65 72.75 60.7 72.75 60.7 72.7 60.75 72.7 60.75 72.65 60.75 72.65 60.8 72.6 60.8 72.6 60.8 72.55 60.8 72.5 60.8 72.5 60.8 72.45 60.85 72.4 60.85 72.1 60.85 71.1 60.8 71.05 60.8 71.0 60.8 70.95 60.8 70.95 60.8 70.9 60.75 70.85 60.75 70.85 60.7 70.85 60.65 70.8 60.65 70.8 60.6 70.8 60.5 70.8 60.45 70.8 60.35 70.8 60.25 70.8 60.2 70.75 60.1 70.75 60.0 70.75 59.95 70.75 59.85 70.75 59.75 70.75 59.65 70.75 59.6 70.75 59.5 70.75 59.45 70.75 59.35 70.8 59.25 70.85 58.95 70.85 58.5 70.85 57.9 70.85 57.75 70.85 57.5 70.9 56.85 70.9 56.75 70.85 56.7 70.8 56.7 70.75 56.7 70.75 56.7 70.7 56.7 70.7 56.7 70.65 56.7 70.6 56.75 70.55 56.75 70.55 56.8 70.5 56.85 70.45 56.85 70.45 56.9 70.2 57.05 69.95 57.25 69.75 57.4 69.5 57.6 69.25 57.8 69.0 57.95 68.8 58.15 68.55 58.3 68.35 58.5 68.1 58.7 67.85 58.9 67.65 59.1 67.4 59.25 67.2 59.45 67.0 59.65 66.75 59.85 66.5 60.1 66.25 60.3 65.95 60.55 65.7 60.75 65.4 61.0 65.15 61.2 64.85 61.4 64.6 61.6 64.3 61.8 64.0 62.0 63.7 62.2 63.4 62.4 63.1 62.55 62.8 62.75 62.5 62.95 62.2 63.1 60.75 63.95 59.85 64.6 59.8 64.65 59.7 64.7 59.65 64.7 59.6 64.75 59.5 64.8 59.45 64.8 59.4 64.85 59.3 64.85 59.25 64.9 59.2 64.9 59.1 64.9 59.05 64.95 58.95 64.95 58.9 64.95 58.8 64.95 58.75 64.95 58.7 64.95 58.6 64.95 58.55 64.95 58.5 64.95 58.45 64.95 58.35 64.95 58.3 64.95 58.25 64.95 58.2 64.95 58.1 64.95 58.05 65.0 58.0 65.0 57.95 65.0 57.85 65.0 57.8 65.05 57.75 65.05 57.65 65.1 57.6 65.1 57.5 65.1 57.45 65.15 57.35 65.15 57.25 65.15 57.2 65.2 57.1 65.2 57.0 65.2 56.95 65.2 56.85 65.2 56.75 65.2 56.7 65.2 56.6 65.2 56.5 65.2 56.45 65.2 55.95 65.2 54.65 65.2 54.55 65.2 54.5 65.2 54.4 65.2 54.3 65.2 54.25 65.2 54.15 65.2 54.1 65.15 54.0 65.15 53.95 65.15 53.85 65.1 53.8 65.1 53.7 65.1 53.65 65.05 53.55 65.05 53.5 65.0 53.4 65.0 53.3 64.95 53.2 64.9 53.1 64.85 53.0 64.8 52.9 64.75 52.8 64.7 52.75 64.65 52.65 64.55 52.6 64.5 52.5 64.4 52.45 64.3 52.4 64.2 52.35 64.1 52.3 64.0 52.3 63.9 52.25 63.8 52.2 63.6 52.2 63.55 52.2 63.5 52.15 63.45 52.15 63.45 52.1 63.4 52.05 63.4 52.05 63.35 52.0 63.35 51.95 63.35 51.5 63.4 51.4 63.4 51.35 63.4 51.25 63.4 51.2 63.4 51.1 63.4 51.05 63.45 51.0 63.45 50.9 63.45 50.85 63.45 50.75 63.45 50.7 63.45 50.65 63.45 50.55 63.45 50.5 63.45 50.4 63.45 50.35 63.45 50.3 63.4 50.25 63.4 50.2 63.4 50.15 63.4 50.1 63.4 50.05 63.4 50.05 63.35 50.0 63.35 50.0 63.35 49.95 63.3 49.95 63.3 49.95 63.25 49.9 63.2 49.9 63.15 49.9 63.1 49.9 63.1 49.85 63.0 49.8 62.75 49.9 61.65 49.9 61.6 49.9 61.6 49.9 61.55 49.9 61.5 49.9 61.5 49.9 61.45 49.95 61.45 49.95 61.4 49.95 61.4 49.95 61.35 50.0 61.35 50.0 61.3 50.0 61.3 50.05 61.25 50.05 61.25 50.05 61.2 50.15 61.15 50.3 61.0 50.45 60.85 50.5 60.8 51.0 60.4 51.45 60.0 51.9 59.55 52.3 59.15 52.75 58.7 53.15 58.25 53.5 57.75 53.85 57.25 54.25 56.8 54.55 56.25 54.85 55.75 55.15 55.2 55.45 54.7 55.7 54.15 56.0 53.55 56.2 53.0 56.25 52.9 56.25 52.85 56.3 52.75 56.3 52.65 56.35 52.55 56.35 52.5 56.4 52.4 56.4 52.3 56.4 52.25 56.4 52.15 56.4 52.05 56.4 51.95 56.4 51.9 56.4 51.8 56.4 51.7 56.4 51.6 56.4 51.55 56.4 51.5 56.35 51.45 56.35 51.35 56.35 51.3 56.35 51.25 56.35 51.2 56.35 51.1 56.3 51.05 56.3 51.0 56.3 50.95 56.3 50.9 56.3 50.8 56.3 50.75 56.3 50.7 56.3 50.65 56.3 50.6 56.15 47.7 56.15 47.65 56.15 47.65 56.15 47.6 56.15 47.55 56.15 47.5 56.15 47.5 56.15 47.45 56.1 47.4 56.1 47.4 56.1 47.35 56.1 47.35 56.05 47.35 56.05 47.3 56.0 47.3 56.0 47.3 55.95 47.3 55.9 47.25 55.9 47.25 55.85 47.25 55.8 47.25 55.55 47.25 55.15 47.25 54.7 47.25 54.55 47.25 54.5 47.25 54.45 47.25 54.4 47.2 54.4 47.2 54.35 47.15 54.35 47.15 54.3 47.1 54.3 47.05 54.3 47.05 54.3 47.0 54.3 46.85 54.25 46.75 54.25 46.6 54.25 46.5 54.2 46.35 54.2 46.2 54.2 46.1 54.2 45.95 54.25 45.85 54.25 45.7 54.25 45.6 54.3 45.45 54.3 45.3 54.35 45.2 54.35 45.05 54.4 44.95 54.5 44.7 54.55 44.45 54.6 44.25 54.7 44.0 54.75 43.75 54.8 43.5 54.85 43.25 54.95 43.05 55.0 42.8 55.05 42.55 55.1 42.3 55.15 42.05 55.2 41.8 55.25 41.55 55.3 41.3 55.3 41.05 55.35 40.7 55.5 39.3 55.6 38.35 55.6 38.05 55.65 37.1 55.4 34.7 55.3 33.65 55.25 33.2 55.1 31.7 54.6 29.05 54.45 28.2 53.9 24.8 53.8 24.2 53.3 22.9 53.0 22.05 52.45 20.65 51.8 19.05 51.55 18.45 51.5 18.35 51.5 18.3 51.45 18.25 51.4 18.15 51.4 18.1 51.35 18.05 51.3 18.0 51.25 17.95 51.2 17.9 51.15 17.85 51.1 17.8 51.0 17.75 50.95 17.75 50.9 17.7 50.85 17.65 50.75 17.65 50.25 17.45 49.8 17.25 49.3 17.05 48.85 16.85 48.35 16.65 47.9 16.4 47.45 16.2 46.95 16.0 46.5 15.75 46.05 15.5 45.6 15.3 45.1 15.05 44.65 14.8 44.2 14.55 43.75 14.3 43.3 14.05 43.0 13.9 42.75 13.7 42.45 13.5 42.2 13.35 41.9 13.15 41.65 12.95 41.35 12.75 41.1 12.55 40.85 12.35 40.55 12.15 40.3 11.95 40.05 11.75 39.8 11.55 39.55 11.3 39.3 11.1 39.05 10.9 38.2 10.15 36.85 8.75 36.7 8.6 35.65 7.5 35.65 7.45 35.6 7.45 35.6 7.4 35.55 7.4 35.55 7.35 35.55 7.3 35.55 7.3 35.5 7.25 35.5 7.25 35.5 7.2 35.5 7.15 35.5 7.15 35.5 7.1 35.45 7.05 35.45 7.05 35.45 7.0 35.45 6.95 35.45 6.9 35.45 6.85 35.45 6.8 35.45 6.6 35.45 6.55 35.45 6.45 35.4 6.35 35.4 6.3 35.4 6.2 35.35 6.15 35.35 6.1 35.3 6.05 35.25 6.05 35.2 6.0 35.1 5.95 35.05 5.9 34.95 5.9 34.85 5.85 34.7 5.8 34.3 5.65 33.9 5.5 33.45 5.35 33.05 5.2 32.65 5.05 32.25 4.9 31.85 4.7 31.45 4.55 31.05 4.4 30.65 4.2 30.25 4.0 29.9 3.85 29.5 3.65 29.1 3.45 28.7 3.25 28.3 3.05 28.25 3.0 28.2 3.0 28.15 2.95 28.05 2.95 28.0 2.9 27.95 2.9 27.9 2.9 27.85 2.85 27.75 2.85 27.7 2.8 27.65 2.8 27.6 2.8 27.5 2.75 27.45 2.75 27.4 2.7 27.35 2.7 26.8 2.55 26.25 2.4 25.7 2.3 25.15 2.15 24.6 1.95 24.1 1.8 23.55 1.65 23.0 1.45 22.5 1.3 21.95 1.1 21.4 0.9 20.9 0.7 20.35 0.5 19.85 0.3 19.3 0.1 18.8 -0.1 18.45 -0.25 18.1 -0.45 17.75 -0.6 17.4 -0.75 17.0 -0.95 16.7 -1.1 16.3 -1.3 16.0 -1.45 15.65 -1.65 15.3 -1.85 14.95 -2.05 14.6 -2.2 14.25 -2.4 13.95 -2.6 13.6 -2.85 13.3 -3.05 13.25 -3.1 13.15 -3.15 13.1 -3.15 13.0 -3.2 12.95 -3.25 12.85 -3.25 12.8 -3.3 12.7 -3.3 12.65 -3.35 12.55 -3.35 12.5 -3.35 12.4 -3.35 12.35 -3.4 12.25 -3.4 12.2 -3.4 12.1 -3.4 11.8 -3.4 8.75 -3.4 8.55 -3.4 8.15 -3.4 8.05 -3.35 8.1 -3.25 8.1 -3.2 8.1 -3.15 8.15 -3.15 8.15 -3.1 8.15 -3.05 8.2 -3.0 8.2 -3.0 8.2 -2.95 8.25 -2.9 8.25 -2.9 10.35 0.35 12.2 2.8 12.5 3.2 12.75 3.55 13.05 3.9 13.35 4.3 13.6 4.65 13.9 5.05 14.2 5.4 14.5 5.75 14.8 6.1 15.05 6.5 15.35 6.85 15.65 7.2 15.95 7.55 16.25 7.9 16.55 8.25 16.85 8.65 17.2 9.05 17.55 9.45 17.9 9.85 18.25 10.2 18.6 10.6 19.0 11.0 19.35 11.4 19.7 11.75 20.05 12.15 20.45 12.5 20.8 12.9 21.2 13.25 21.55 13.65 21.95 14.0 22.3 14.4 22.7 14.75 23.0 15.05 23.3 15.35 23.6 15.6 23.9 15.9 24.25 16.2 24.55 16.45 24.85 16.75 25.15 17.05 25.5 17.3 25.8 17.6 26.1 17.85 26.45 18.1 26.75 18.4 27.1 18.65 27.4 18.9 27.75 19.2 28.05 19.45 28.55 19.85 29.2 20.45 29.3 20.5 29.35 20.55 29.35 20.55 29.4 20.6 29.45 20.65 29.45 20.65 29.5 20.7 29.5 20.75 29.55 20.75 29.55 20.8 29.55 20.85 29.6 20.9 29.6 20.9 29.6 20.95 29.6 21.0 29.6 21.05 29.6 21.1 29.6 22.0 29.6 22.6 29.6 22.65 29.6 22.7 29.6 22.75 29.6 22.75 29.55 22.8 29.55 22.8 29.55 22.85 29.55 22.85 29.5 22.9 29.5 22.9 29.45 22.9 29.4 22.95 29.4 22.95 29.35 22.95 29.3 22.95 29.25 22.95 28.1 22.95 27.55 22.95 27.4 22.95 26.9 22.8 25.4 22.35 22.45 21.15 21.85 20.9 21.2 20.65 20.6 20.4 20.0 20.15 19.4 19.9 18.8 19.65 18.15 19.4 17.55 19.15 16.95 18.9 16.35 18.6 15.75 18.35 15.15 18.1 14.55 17.8 13.95 17.55 13.35 17.25 12.75 16.95 12.3 16.75 11.8 16.5 11.35 16.3 10.9 16.1 10.45 15.85 9.95 15.65 9.5 15.4 9.05 15.2 8.6 14.95 8.15 14.7 7.7 14.5 7.25 14.25 6.8 14.0 6.3 13.75 5.85 13.55 5.4 13.3 4.9 13.05 4.45 12.75 3.95 12.5 3.5 12.25 3.0 11.95 2.55 11.7 2.05 11.4 1.6 11.15 1.1 10.85 0.65 10.55 0.2 10.3 -0.3 10.0 -0.75 9.7 -1.2 9.4 -1.7 9.1 -2.15 8.85 -2.6 8.55 -3.1 8.25 -3.55 7.95 -4.0 7.6 -4.45 7.3 -4.9 7.0 -5.35 6.7 -5.85 6.35 -6.3 6.05 -6.75 5.7 -7.15 5.4 -7.6 5.05 -8.05 4.75 -8.5 4.4 -8.95 4.05 -9.4 3.7 -9.6 3.55 -9.8 3.4 -10.0 3.2 -10.2 3.05 -10.4 2.9 -10.6 2.75 -10.8 2.55 -11.0 2.4 -11.2 2.25 -11.4 2.05 -11.6 1.9 -11.8 1.7 -12.0 1.55 -12.2 1.35 -12.4 1.2 -12.6 1.0 -12.75 0.85 -12.85 0.75 -13.0 0.6 -13.15 0.5 -13.25 0.35 -13.4 0.25 -13.55 0.1 -13.65 -0.05 -13.8 -0.15 -13.95 -0.3 -14.05 -0.45 -14.2 -0.55 -14.3 -0.7 -14.45 -0.85 -14.55 -1.0 -14.7 -1.1 -14.7 -1.15 -14.75 -1.15 -14.75 -1.2 -14.8 -1.25 -14.8 -1.25 -14.85 -1.3 -14.9 -1.35 -14.9 -1.35 -14.95 -1.4 -14.95 -1.4 -15.0 -1.45 -15.0 -1.5 -15.05 -1.5 -15.1 -1.55 -15.1 -1.55 -15.15 -1.6 -15.2 -1.6 -15.25 -1.65 -15.25 -1.65 -15.3 -1.65 -15.35 -1.65 -15.4 -1.65 -15.45 -1.65 -15.5 -1.65 -15.55 -1.6 -15.6 -1.6 -15.65 -1.6 -16.3 -1.4 -16.4 -1.4 -16.5 -1.35 -16.55 -1.35 -16.65 -1.35 -16.75 -1.3 -16.85 -1.3 -16.95 -1.3 -17.05 -1.3 -17.1 -1.3 -17.2 -1.3 -17.3 -1.3 -17.4 -1.3 -17.45 -1.3 -17.55 -1.3 -17.65 -1.3 -17.75 -1.3 -18.4 -1.3 -19.75 -1.3 -19.75 -1.25 -19.75 -1.2 -19.8 -1.15 -19.8 -1.15 -19.8 -1.1 -19.75 -1.05 -19.75 -1.0 -19.75 -1.0 -19.75 -0.95 -19.7 -0.95 -19.7 -0.9 -19.7 -0.85 -19.7 -0.9 -19.65 -0.8 -19.65 -0.8 -19.6 -0.75 -19.45 -0.45 -19.3 -0.2 -19.15 0.1 -19.0 0.35 -18.85 0.65 -18.7 0.95 -18.55 1.2 -18.35 1.5 -18.2 1.75 -18.05 2.05 -17.85 2.3 -17.7 2.55 -17.5 2.85 -17.35 3.1 -17.15 3.35 -17.0 3.65 -16.75 4.0 -16.5 4.35 -16.25 4.7 -16.0 5.05 -15.75 5.4 -15.5 5.75 -15.25 6.1 -14.95 6.45 -14.7 6.8 -14.45 7.15 -14.2 7.5 -13.9 7.8 -13.65 8.15 -13.35 8.5 -13.1 8.8 -12.8 9.15 -12.6 9.4 -12.35 9.7 -12.1 9.95 -11.9 10.2 -11.65 10.5 -11.45 10.75 -11.2 11.0 -11.0 11.3 -10.75 11.55 -10.5 11.8 -10.3 12.05 -10.05 12.3 -9.85 12.6 -9.6 12.85 -9.35 13.1 -9.15 13.35 -7.8 14.8 -4.15 18.85 -2.75 20.45 -1.95 21.3 -1.9 21.35 -1.85 21.4 -1.8 21.45 -1.8 21.5 -1.75 21.55 -1.7 21.6 -1.7 21.65 -1.65 21.75 -1.65 21.8 -1.6 21.85 -1.6 21.9 -1.6 21.95 -1.6 22.0 -1.6 22.1 -1.6 22.15 -1.6 22.2 -1.6 23.35 -1.6 23.75 -1.6 23.8 -1.6 23.85 -1.6 23.9 -1.65 23.95 -1.65 23.95 -1.7 24.0 -1.7 24.0 -1.75 24.0 -1.8 24.05 -1.85 24.05 -2.85 24.05 -3.55 24.05 -3.6 24.05 -3.65 24.05 -3.65 24.05 -3.7 24.0 -3.75 24.0 -3.75 24.0 -3.8 24.0 -3.85 23.95 -3.85 23.95 -3.9 23.95 -3.95 23.9 -3.95 23.9 -4.0 23.9 -4.0 23.85 -4.05 23.85 -4.1 23.8 -7.7 21.15 -8.15 20.8 -8.45 20.55 -8.75 20.35 -9.1 20.1 -9.4 19.85 -9.7 19.65 -10.0 19.4 -10.3 19.15 -10.6 18.9 -10.9 18.7 -11.2 18.45 -11.5 18.2 -11.85 17.95 -12.15 17.7 -12.45 17.5 -12.75 17.25 -13.05 17.0 -13.85 16.3 -16.85 13.75 -18.7 12.2 -21.6 9.5 -24.15 7.05 -25.85 5.25 -29.05 1.9 -30.5 -0.05 -30.65 -0.2 -30.7 -0.3 -30.75 -0.3 -30.8 -0.25 -30.8 -0.25 -30.85 -0.2 -30.9 -0.2 -30.9 -0.15 -30.95 -0.15 -30.95 -0.1 -31.0 -0.05 -31.0 -0.05 -31.0 0.0 -31.05 0.0 -31.05 0.05 -31.1 0.1 -31.1 0.1 -31.1 0.15 -32.0 1.35 -32.2 1.5 -32.25 1.55 -32.25 1.55 -32.3 1.6 -32.3 1.65 -32.35 1.7 -32.35 1.75 -32.35 1.75 -32.4 1.8 -32.4 1.85 -32.4 1.9 -32.45 1.95 -32.45 2.0 -32.45 2.0 -32.5 2.05 -32.5 2.15 -32.5 2.15 -33.05 3.8 -34.65 8.4 -34.7 8.65 -34.85 9.0 -34.85 9.05 -34.9 9.1 -34.9 9.1 -34.95 9.15 -34.95 9.15 -35.0 9.2 -35.05 9.2 -35.1 9.2 -35.1 9.25 -35.15 9.25 -35.45 9.25 -35.85 9.25 -36.4 9.2 -36.55 9.2 -36.6 9.2 -36.6 9.2 -36.65 9.2 -36.7 9.2 -36.7 9.2 -36.75 9.2 -36.75 9.15 -36.8 9.15 -36.8 9.15 -36.8 9.1 -36.8 9.1 -36.85 9.05 -36.85 9.05 -36.85 9.0 -36.85 9.0 -36.85 8.95 -36.85 8.9 -36.9 8.65 -37.0 7.45 -37.05 5.15 -37.05 5.1 -37.05 5.05 -37.05 5.05 -37.05 5.0 -37.05 4.95 -37.05 4.9 -37.05 4.85 -37.05 4.8 -37.05 4.75 -37.05 4.7 -37.1 4.65 -37.1 4.6 -37.1 4.55 -37.15 4.55 -37.2 4.55 -37.25 4.55 -37.3 4.55 -37.4 4.55 -37.5 4.55 -37.6 4.6 -37.8 4.65 -37.85 4.65 -37.9 4.65 -37.95 4.7 -38.0 4.7 -38.0 4.75 -38.05 4.75 -38.05 4.8 -38.1 4.85 -38.1 4.9 -38.1 4.95 -38.1 5.0 -38.1 5.1 -38.1 5.2 -38.1 5.3 -38.1 5.45 -38.1 5.45 -38.1 5.65 -38.1 5.8 -38.1 5.9 -38.1 6.0 -38.1 6.1 -38.05 6.25 -38.05 6.35 -38.05 6.45 -38.05 6.55 -38.05 6.65 -38.0 6.8 -38.0 6.9 -37.95 7.25 -37.9 8.75 -37.5 11.25 -37.4 12.05 -36.9 14.75 -36.7 15.75 -36.6 16.05 -36.5 16.45 -36.5 18.3 -36.5 18.35 -36.5 18.35 -36.5 18.4 -36.5 18.4 -36.55 18.45 -36.55 18.45 -36.55 18.5 -36.55 18.5 -36.6 18.5 -36.6 18.55 -36.65 18.55 -36.65 18.55 -36.7 18.55 -36.7 18.55 -36.75 18.55 -36.8 18.55 -36.8 18.55 -38.15 18.6 -38.2 18.6 -38.2 18.6 -38.25 18.6 -38.3 18.55 -38.3 18.55 -38.35 18.55 -38.35 18.55 -38.4 18.5 -38.4 18.5 -38.45 18.5 -38.45 18.45 -38.5 18.45 -38.5 18.4 -38.55 18.4 -38.55 18.35 -38.55 18.35 -38.6 18.25 -38.7 18.15 -38.75 18.05 -38.8 17.95 -38.85 17.85 -38.9 17.75 -39.0 17.65 -39.05 17.55 -39.1 17.4 -39.15 17.3 -39.2 17.2 -39.25 17.1 -39.3 17.0 -39.35 16.9 -39.35 16.8 -39.4 16.7 -39.55 16.4 -39.65 16.1 -39.75 15.75 -39.9 15.45 -40.0 15.15 -40.1 14.85 -40.2 14.5 -40.3 14.2 -40.35 13.9 -40.45 13.55 -40.55 13.25 -40.6 12.95 -40.7 12.6 -40.75 12.3 -40.85 11.95 -40.9 11.65 -41.4 9.0 -41.6 7.1 -41.65 6.7 -41.8 5.15 -41.85 4.95 -41.85 4.9 -41.9 4.8 -41.95 4.75 -42.0 4.75 -42.2 4.7 -43.6 4.4 -44.0 4.3 -44.25 4.2 -44.6 4.05 -45.05 3.9 -45.2 3.85 -45.25 3.85 -45.25 3.9 -45.25 3.95 -45.3 3.95 -45.3 4.0 -45.3 4.0 -45.35 4.05 -45.35 4.1 -45.35 4.1 -45.35 4.15 -45.35 4.2 -45.4 4.25 -45.4 4.25 -45.4 4.3 -45.4 4.35 -45.4 4.35 -46.3 9.25 -46.45 10.05 -46.7 11.6 -46.9 13.55 -46.95 13.9 -47.0 14.75 -47.05 15.55 -47.1 16.0 -47.1 16.05 -47.15 16.1 -47.15 16.15 -47.1 16.2 -47.05 16.55 -47.05 17.5 -47.0 18.3 -46.95 18.8 -46.85 19.4 -46.9 21.0 -46.9 21.05 -46.9 21.05 -46.95 21.1 -46.95 21.15 -47.0 21.15 -47.0 21.2 -47.05 21.2 -47.1 21.2 -47.1 21.2 -47.15 21.2 -47.65 21.2 -48.75 21.2 -48.8 21.2 -48.85 21.2 -48.85 21.2 -48.9 21.2 -48.95 21.2 -48.95 21.2 -49.0 21.15 -49.0 21.15 -49.05 21.15 -49.05 21.1 -49.1 21.1 -49.1 21.05 -49.1 21.05 -49.15 21.0 -49.15 20.95 -49.15 20.95 -49.3 20.5 -49.7 19.2 -49.7 19.15 -49.75 19.05 -49.8 18.9 -49.85 18.85 -50.2 19.45 -50.85 22.15 -51.25 23.75 -51.6 24.7 L-51.6 24.7" fill="#302cd3" fill-rule="evenodd" stroke="none"/>
  </g>
</svg>
