<?xml version="1.0" encoding="UTF-8" standalone="no"?>
<svg xmlns:xlink="http://www.w3.org/1999/xlink" height="200.0px" width="200.0px" xmlns="http://www.w3.org/2000/svg">
  <g transform="matrix(1.0, 0.0, 0.0, 1.0, 100.0, 100.0)">
    <path d="M-28.2 -13.35 Q-27.5 -12.85 -26.9 -12.35 -26.3 -11.85 -25.8 -11.3 -25.35 -10.8 -25.0 -10.2 -24.6 -9.65 -24.4 -9.05 -24.15 -8.45 -24.05 -7.8 -23.9 -7.2 -23.95 -6.55 -23.95 -5.9 -24.05 -5.2 -24.2 -4.5 -24.45 -3.8 -24.5 -3.7 -24.5 -3.65 -24.55 -3.55 -24.6 -3.5 -24.65 -3.45 -24.7 -3.4 -24.75 -3.4 -24.8 -3.4 -24.9 -3.4 -24.95 -3.4 -25.0 -3.4 -25.1 -3.45 -25.2 -3.5 -25.25 -3.55 -25.35 -3.6 -25.45 -3.7 -26.2 -4.35 -26.75 -5.0 -27.35 -5.65 -27.8 -6.25 -28.25 -6.9 -28.55 -7.5 -28.9 -8.1 -29.05 -8.7 -29.25 -9.3 -29.25 -9.9 -29.3 -10.5 -29.2 -11.1 -29.1 -11.65 -28.85 -12.2 -28.6 -12.8 -28.2 -13.35 M18.05 -9.25 Q17.4 -9.55 16.8 -9.85 16.25 -10.15 15.75 -10.5 15.3 -10.8 14.9 -11.15 14.55 -11.55 14.25 -11.95 13.95 -12.3 13.75 -12.75 13.55 -13.15 13.45 -13.6 13.35 -14.05 13.35 -14.5 13.35 -15.0 13.4 -15.5 14.3 -15.65 15.05 -15.65 15.85 -15.65 16.5 -15.55 17.1 -15.4 17.65 -15.15 18.15 -14.95 18.5 -14.6 18.9 -14.2 19.15 -13.75 19.35 -13.25 19.5 -12.65 19.6 -12.05 19.6 -11.3 19.55 -10.6 19.4 -9.75 19.4 -9.65 19.35 -9.55 19.3 -9.45 19.25 -9.35 19.2 -9.3 19.15 -9.25 19.1 -9.15 19.0 -9.15 18.9 -9.1 18.8 -9.1 18.7 -9.1 18.6 -9.1 18.5 -9.15 18.35 -9.15 18.2 -9.2 18.05 -9.25 M-48.15 -5.45 Q-48.25 -6.0 -48.35 -6.55 -48.4 -7.1 -48.4 -7.65 -48.35 -8.2 -48.3 -8.7 -48.25 -9.2 -48.1 -9.7 -47.95 -10.2 -47.75 -10.65 -47.55 -11.15 -47.3 -11.6 -47.05 -12.05 -46.7 -12.5 -46.4 -12.9 -46.0 -13.35 -45.35 -13.1 -44.85 -12.8 -44.35 -12.45 -44.0 -12.1 -43.6 -11.7 -43.4 -11.25 -43.2 -10.75 -43.15 -10.25 -43.1 -9.7 -43.2 -9.1 -43.3 -8.5 -43.55 -7.85 -43.8 -7.2 -44.2 -6.45 -44.6 -5.7 -45.15 -4.9 -45.45 -4.5 -45.7 -4.2 -45.95 -3.9 -46.15 -3.7 -46.4 -3.5 -46.6 -3.45 -46.85 -3.35 -47.0 -3.4 -47.2 -3.4 -47.35 -3.55 -47.55 -3.7 -47.7 -4.0 -47.8 -4.25 -47.95 -4.6 -48.05 -5.0 -48.15 -5.45 M-3.35 -3.7 Q-4.1 -4.25 -4.75 -4.8 -5.4 -5.4 -5.9 -6.0 -6.45 -6.6 -6.85 -7.25 -7.25 -7.9 -7.5 -8.55 -7.8 -9.25 -7.95 -9.95 -8.1 -10.7 -8.15 -11.45 -8.2 -12.2 -8.15 -13.0 -8.05 -13.8 -7.85 -14.6 -6.85 -14.45 -5.95 -14.2 -5.1 -13.95 -4.35 -13.6 -3.6 -13.2 -3.0 -12.7 -2.4 -12.25 -1.95 -11.6 -1.5 -11.0 -1.2 -10.3 -0.9 -9.55 -0.75 -8.7 -0.6 -7.85 -0.55 -6.9 -0.55 -5.9 -0.65 -4.85 -0.7 -4.5 -0.75 -4.25 -0.85 -3.95 -0.95 -3.75 -1.05 -3.55 -1.2 -3.4 -1.35 -3.25 -1.5 -3.2 -1.65 -3.1 -1.85 -3.1 -2.05 -3.1 -2.3 -3.2 -2.5 -3.25 -2.8 -3.4 -3.05 -3.5 -3.35 -3.7" fill="#af2323" fill-rule="evenodd" stroke="none"/>
    <path d="M28.0 -23.8 Q27.15 -23.7 26.35 -23.7 25.55 -23.65 24.8 -23.7 24.05 -23.75 23.4 -23.9 22.75 -24.0 22.2 -24.2 21.6 -24.4 21.1 -24.65 20.6 -24.95 20.15 -25.3 19.7 -25.65 19.35 -26.05 19.0 -26.45 18.7 -26.95 19.5 -27.5 20.3 -27.9 21.05 -28.3 21.75 -28.5 22.5 -28.7 23.2 -28.75 23.85 -28.8 24.5 -28.7 25.15 -28.55 25.75 -28.25 26.35 -27.95 26.9 -27.45 27.45 -27.0 28.0 -26.35 28.5 -25.7 29.0 -24.85 29.05 -24.75 29.1 -24.65 29.15 -24.55 29.15 -24.45 29.15 -24.35 29.1 -24.3 29.05 -24.2 29.0 -24.15 28.95 -24.1 28.85 -24.0 28.75 -23.95 28.65 -23.9 28.5 -23.9 28.35 -23.85 28.2 -23.8 28.0 -23.8" fill="#af2323" fill-rule="evenodd" stroke="none"/>
  </g>
</svg>
