<?xml version="1.0" encoding="UTF-8" standalone="no"?>
<svg xmlns:xlink="http://www.w3.org/1999/xlink" height="200.0px" width="200.0px" xmlns="http://www.w3.org/2000/svg">
  <g transform="matrix(1.0, 0.0, 0.0, 1.0, 100.0, 100.0)">
    <path d="M3.85 -7.05 Q3.8 -7.05 3.8 -7.0 3.75 -7.0 3.7 -7.0 3.65 -7.0 3.65 -7.0 3.6 -7.0 3.55 -7.0 3.0 -7.1 2.5 -7.15 1.95 -7.25 1.45 -7.25 0.9 -7.25 0.4 -7.25 -0.15 -7.25 -0.65 -7.15 -1.2 -7.1 -1.7 -7.0 -2.2 -6.95 -2.7 -6.8 -3.25 -6.7 -3.75 -6.5 -4.25 -6.35 -4.75 -6.15 -5.0 -6.05 -5.25 -5.95 -5.5 -5.85 -5.75 -5.7 -5.95 -5.55 -6.2 -5.4 -6.4 -5.25 -6.65 -5.1 -6.85 -4.95 -7.05 -4.75 -7.25 -4.55 -7.4 -4.4 -7.6 -4.2 -7.8 -4.0 -7.95 -3.75 -8.15 -3.55 -8.35 -3.3 -8.5 -3.1 -8.65 -2.85 -8.8 -2.6 -8.95 -2.35 -9.1 -2.1 -9.25 -1.85 -9.35 -1.55 -9.5 -1.3 -9.6 -1.05 -9.7 -0.8 -9.8 -0.5 -9.9 -0.25 -10.0 0.05 -10.1 0.3 -10.15 0.6 -10.2 0.75 -10.3 1.25 -10.5 1.1 -11.95 -0.2 -12.65 -0.8 -13.95 -2.3 -14.15 -2.55 -14.35 -2.75 -14.55 -3.0 -14.75 -3.25 -14.95 -3.5 -15.15 -3.75 -15.3 -4.0 -15.5 -4.25 -15.7 -4.5 -15.85 -4.75 -16.05 -5.0 -16.2 -5.25 -16.35 -5.5 -16.55 -5.75 -16.7 -6.0 -16.85 -6.3 -17.0 -6.6 -17.2 -6.85 -17.35 -7.15 -17.5 -7.4 -17.65 -7.7 -17.8 -8.0 -17.95 -8.3 -18.05 -8.55 -18.2 -8.85 -18.35 -9.15 -18.5 -9.45 -18.6 -9.75 -18.75 -10.05 -18.85 -10.35 -18.95 -10.65 -19.1 -10.95 -19.6 -12.25 -20.8 -15.75 -20.8 -15.8 -20.85 -15.85 -20.95 -16.1 -20.9 -15.9 -20.9 -15.95 -20.9 -16.0 -20.95 -16.05 -20.95 -16.1 -20.95 -16.15 -21.0 -16.2 -21.0 -16.25 -21.0 -16.25 -21.0 -16.3 -21.0 -16.35 -21.0 -16.4 -20.95 -16.45 -20.9 -16.45 -20.45 -16.1 -20.25 -15.95 -20.1 -15.85 -19.9 -15.7 -19.7 -15.6 -19.55 -15.45 -19.35 -15.35 -19.15 -15.25 -18.95 -15.1 -18.75 -15.0 -18.6 -14.9 -18.4 -14.8 -18.2 -14.7 -18.0 -14.6 -17.8 -14.5 -17.6 -14.4 -17.4 -14.3 -17.1 -14.15 -16.8 -14.05 -16.5 -13.95 -16.15 -13.85 -15.85 -13.8 -15.55 -13.7 -15.25 -13.65 -14.9 -13.6 -14.6 -13.6 -14.25 -13.55 -13.95 -13.55 -13.65 -13.55 -13.3 -13.55 -13.0 -13.6 -12.65 -13.6 -12.3 -13.65 -11.95 -13.7 -11.65 -13.75 -11.3 -13.85 -10.95 -13.9 -10.65 -14.0 -10.3 -14.1 -10.0 -14.15 -9.65 -14.25 -9.35 -14.35 -9.0 -14.5 -8.7 -14.6 -8.4 -14.75 -8.05 -14.85 -7.75 -15.0 -7.45 -15.15 -7.15 -15.3 -6.8 -15.5 -6.45 -15.7 -6.1 -15.95 -5.75 -16.15 -5.4 -16.4 -5.1 -16.65 -4.8 -16.95 -4.55 -17.2 -4.25 -17.5 -4.0 -17.8 -3.75 -18.1 -3.5 -18.45 -3.25 -18.8 -3.05 -19.15 -2.85 -19.5 -2.65 -19.85 -2.6 -20.0 -2.3 -20.5 -2.25 -20.45 -2.15 -20.15 -2.05 -19.75 -1.9 -19.35 -1.8 -18.95 -1.65 -18.55 -1.5 -18.15 -1.35 -17.75 -1.25 -17.35 -1.1 -17.0 -0.95 -16.6 -0.75 -16.2 -0.6 -15.8 -0.45 -15.45 -0.25 -15.05 -0.1 -14.7 0.1 -14.3 0.25 -13.95 2.15 -10.2 3.7 -7.5 3.85 -7.1 3.85 -7.05 L3.85 -7.05" fill="#0d07e0" fill-rule="evenodd" stroke="none"/>
    <path d="M39.45 -6.55 Q39.45 -6.55 39.45 -6.55 39.45 -6.55 39.4 -6.5 39.05 -6.25 38.75 -6.0 38.5 -5.7 38.2 -5.45 37.95 -5.15 37.75 -4.8 37.5 -4.5 37.35 -4.15 37.15 -3.85 37.0 -3.5 36.8 -3.15 36.7 -2.75 36.55 -2.4 36.45 -2.0 36.35 -1.65 36.25 -1.25 36.25 -1.15 36.2 -1.05 36.2 -0.95 36.2 -0.85 36.2 -0.7 36.15 -0.6 36.15 -0.5 36.15 -0.4 36.15 -0.3 36.15 -0.2 36.15 -0.1 36.15 0.0 36.15 0.1 36.15 0.2 36.15 0.3 36.15 0.45 36.15 0.65 36.15 0.85 36.15 1.05 36.15 1.2 36.15 1.4 36.15 1.6 36.2 1.8 36.2 2.0 36.2 2.2 36.25 2.4 36.25 2.55 36.25 2.75 36.3 2.95 36.3 3.15 36.35 3.35 36.35 3.55 36.0 3.6 34.8 3.4 34.1 3.3 33.45 3.15 32.75 3.0 32.1 2.9 31.4 2.75 30.75 2.6 30.05 2.45 29.4 2.25 28.75 2.1 28.05 1.95 27.4 1.75 26.75 1.6 26.05 1.4 25.4 1.2 24.75 1.0 24.1 0.75 23.75 0.65 23.4 0.5 23.05 0.4 22.7 0.25 22.3 0.15 21.95 0.0 21.6 -0.15 21.25 -0.25 20.9 -0.4 20.55 -0.55 20.2 -0.7 19.85 -0.85 19.55 -1.0 19.2 -1.15 18.85 -1.3 18.5 -1.45 18.45 -1.5 18.35 -1.55 18.2 -1.65 18.15 -1.7 18.5 -1.7 18.85 -1.75 19.15 -1.75 19.5 -1.8 19.85 -1.85 20.15 -1.9 20.5 -2.0 20.8 -2.1 21.15 -2.15 21.45 -2.25 21.75 -2.35 22.1 -2.45 22.4 -2.55 22.75 -2.7 23.0 -2.8 23.35 -2.95 23.5 -3.0 23.7 -3.1 23.85 -3.15 24.0 -3.2 24.15 -3.3 24.3 -3.35 24.45 -3.45 24.65 -3.5 24.8 -3.6 24.95 -3.65 25.1 -3.75 25.25 -3.85 25.4 -3.9 25.55 -4.0 25.7 -4.1 25.85 -4.2 26.15 -4.35 26.4 -4.55 26.6 -4.75 26.85 -4.95 27.05 -5.15 27.25 -5.4 27.45 -5.65 27.6 -5.9 27.8 -6.15 27.9 -6.4 28.05 -6.65 28.15 -6.95 28.25 -7.25 28.35 -7.55 28.45 -7.85 28.5 -8.15 28.5 -8.15 28.65 -9.35 28.85 -9.3 29.25 -9.15 29.65 -9.05 29.85 -8.95 30.3 -8.8 30.8 -8.65 31.3 -8.5 31.75 -8.35 32.25 -8.2 32.7 -8.05 33.2 -7.95 33.7 -7.8 34.15 -7.65 34.65 -7.55 35.15 -7.45 35.6 -7.35 36.1 -7.2 36.6 -7.1 37.05 -7.0 37.55 -6.9 39.45 -6.6 39.45 -6.55 L39.45 -6.55" fill="#0d07e0" fill-rule="evenodd" stroke="none"/>
    <path d="M-24.95 -11.55 Q-25.35 -11.9 -26.75 -13.15 -26.85 -13.25 -26.95 -13.35 -27.05 -13.4 -27.1 -13.5 -27.2 -13.6 -27.3 -13.65 -27.4 -13.75 -27.5 -13.8 -27.6 -13.9 -27.7 -14.0 -27.85 -14.05 -27.95 -14.1 -28.05 -14.2 -28.15 -14.25 -28.25 -14.35 -28.35 -14.4 -28.55 -14.5 -28.7 -14.6 -28.9 -14.7 -29.1 -14.8 -29.3 -14.85 -29.5 -14.95 -29.7 -15.0 -29.9 -15.05 -30.1 -15.1 -30.3 -15.15 -30.5 -15.2 -30.7 -15.25 -30.9 -15.25 -31.1 -15.25 -31.3 -15.3 -31.5 -15.3 -31.65 -15.3 -31.75 -15.3 -31.9 -15.25 -32.0 -15.25 -32.1 -15.25 -32.25 -15.2 -32.35 -15.2 -32.45 -15.15 -32.6 -15.1 -32.7 -15.1 -32.8 -15.05 -32.95 -15.0 -33.05 -14.95 -33.15 -14.9 -33.25 -14.85 -33.35 -14.8 -33.5 -14.7 -33.65 -14.65 -33.8 -14.55 -33.95 -14.45 -34.05 -14.35 -34.2 -14.25 -34.35 -14.2 -34.5 -14.1 -34.6 -14.0 -34.75 -13.9 -34.9 -13.8 -35.0 -13.65 -35.15 -13.55 -35.25 -13.45 -35.35 -13.35 -35.5 -13.2 -35.65 -13.05 -35.9 -12.8 -35.95 -12.85 -36.0 -12.9 -36.0 -12.95 -36.05 -13.0 -36.05 -13.1 -36.1 -13.15 -36.15 -13.2 -36.15 -13.25 -36.15 -13.3 -36.2 -13.4 -36.2 -13.45 -36.25 -13.5 -36.25 -13.5 -36.3 -13.65 -36.3 -13.7 -36.35 -13.75 -36.55 -14.25 -36.7 -14.8 -36.85 -15.3 -37.05 -15.85 -37.2 -16.35 -37.35 -16.9 -37.5 -17.4 -37.65 -17.95 -37.8 -18.5 -37.9 -19.0 -38.05 -19.55 -38.15 -20.05 -38.3 -20.6 -38.4 -21.15 -38.5 -21.7 -38.6 -22.2 -38.65 -22.5 -38.8 -23.15 -38.9 -23.75 -38.95 -24.05 -38.95 -24.1 -38.95 -24.15 -38.95 -24.2 -39.0 -24.25 -39.0 -24.3 -39.0 -24.3 -39.0 -24.35 -39.0 -24.4 -39.0 -24.45 -39.0 -24.5 -39.0 -24.55 -39.0 -24.6 -39.0 -24.65 -39.0 -24.7 -39.0 -24.75 -39.0 -24.8 -37.7 -23.6 -37.6 -23.5 -37.35 -23.25 -37.1 -23.05 -36.8 -22.85 -36.5 -22.7 -36.25 -22.5 -35.95 -22.35 -35.65 -22.2 -35.35 -22.1 -35.05 -21.95 -34.75 -21.85 -34.45 -21.75 -34.1 -21.65 -33.8 -21.55 -33.45 -21.5 -33.1 -21.4 -32.8 -21.35 -32.7 -21.35 -32.6 -21.35 -32.45 -21.3 -32.35 -21.3 -32.25 -21.3 -32.15 -21.3 -32.05 -21.3 -31.9 -21.3 -31.8 -21.25 -31.7 -21.25 -31.6 -21.25 -31.5 -21.25 -31.4 -21.25 -31.25 -21.25 -31.15 -21.3 -31.05 -21.3 -30.8 -21.3 -30.6 -21.35 -30.35 -21.4 -30.15 -21.45 -29.95 -21.5 -29.75 -21.6 -29.55 -21.7 -29.35 -21.8 -29.15 -21.9 -28.95 -22.0 -28.8 -22.15 -28.6 -22.25 -28.45 -22.4 -28.25 -22.55 -28.1 -22.7 -27.95 -22.9 -27.85 -22.95 -27.75 -23.15 -27.7 -23.2 -27.65 -23.2 -27.65 -23.25 -27.6 -23.25 -27.55 -23.3 -27.5 -23.3 -27.45 -23.3 -27.4 -23.3 -27.35 -23.3 -27.3 -23.3 -27.3 -23.25 -27.25 -23.2 -27.25 -23.2 -27.2 -23.15 -27.2 -23.1 -27.2 -23.05 -27.2 -23.05 -27.15 -23.0 -27.15 -22.95 -27.15 -22.9 -27.15 -22.85 -27.15 -22.8 -27.15 -22.8 -27.15 -22.75 -27.1 -22.7 -27.1 -22.65 -26.55 -19.2 -26.25 -17.7 -26.2 -17.35 -26.1 -16.95 -26.05 -16.6 -25.95 -16.25 -25.9 -15.9 -25.85 -15.55 -25.75 -15.15 -25.65 -14.8 -25.6 -14.45 -25.5 -14.1 -25.45 -13.7 -25.35 -13.35 -25.25 -13.0 -25.2 -12.65 -25.1 -12.3 -25.0 -11.95 -25.0 -11.9 -25.0 -11.85 -25.0 -11.85 -25.0 -11.8 -25.0 -11.75 -25.0 -11.7 -25.0 -11.65 -25.0 -11.6 -24.95 -11.55 -24.95 -11.55 L-24.95 -11.55" fill="#0d07e0" fill-rule="evenodd" stroke="none"/>
    <path d="M-66.95 -6.2 Q-67.25 -4.9 -67.3 -4.65 -67.35 -4.35 -67.4 -4.05 -67.4 -3.75 -67.45 -3.45 -67.5 -3.15 -67.5 -2.85 -67.5 -2.55 -67.5 -2.25 -67.5 -1.95 -67.5 -1.65 -67.45 -1.3 -67.45 -1.05 -67.4 -0.7 -67.35 -0.45 -67.3 -0.1 -67.25 0.15 -67.2 0.45 -67.1 0.75 -67.0 1.0 -66.9 1.3 -66.8 1.6 -66.65 1.85 -66.55 2.1 -66.4 2.4 -66.3 2.65 -66.15 2.9 -66.0 3.15 -65.85 3.4 -65.65 3.65 -65.5 3.85 -65.3 4.1 -65.1 4.3 -64.95 4.5 -64.75 4.65 -64.6 4.85 -64.4 5.0 -64.2 5.15 -64.0 5.3 -63.85 5.4 -63.65 5.55 -63.45 5.7 -63.2 5.8 -63.0 5.9 -62.8 6.0 -62.55 6.1 -62.35 6.2 -62.1 6.3 -61.9 6.35 -61.95 6.4 -62.0 6.4 -62.05 6.45 -62.1 6.45 -62.2 6.5 -62.25 6.5 -62.3 6.5 -62.35 6.5 -62.4 6.55 -62.5 6.55 -62.55 6.55 -62.6 6.55 -62.65 6.55 -62.75 6.55 -62.9 6.55 -62.85 6.55 -65.35 6.75 -66.05 6.65 -66.05 6.65 -66.1 6.65 -66.15 6.65 -66.15 6.65 -67.35 6.6 -69.35 6.35 -71.05 6.15 -72.15 5.95 -72.35 5.9 -72.5 5.9 -72.65 5.85 -72.8 5.8 -73.0 5.75 -73.15 5.7 -73.3 5.7 -73.45 5.65 -73.65 5.6 -73.8 5.55 -73.95 5.5 -74.1 5.45 -74.25 5.35 -74.45 5.3 -74.6 5.25 -74.75 5.15 -74.5 4.9 -74.35 4.6 -74.15 4.3 -74.0 4.0 -73.85 3.7 -73.75 3.4 -73.65 3.1 -73.6 2.8 -73.5 2.5 -73.5 2.15 -73.45 1.85 -73.45 1.5 -73.5 1.2 -73.5 0.85 -73.55 0.5 -73.65 0.2 -73.7 0.05 -73.7 -0.05 -73.75 -0.2 -73.8 -0.35 -73.85 -0.45 -73.9 -0.6 -73.95 -0.7 -74.0 -0.85 -74.1 -0.95 -74.15 -1.1 -74.2 -1.2 -74.3 -1.3 -74.4 -1.4 -74.45 -1.55 -74.55 -1.65 -74.65 -1.75 -74.75 -1.85 -74.85 -2.0 -75.0 -2.1 -75.1 -2.2 -75.2 -2.35 -75.35 -2.45 -75.45 -2.55 -75.55 -2.65 -75.7 -2.75 -75.8 -2.85 -75.95 -2.95 -76.05 -3.05 -76.2 -3.15 -76.35 -3.25 -76.45 -3.35 -76.6 -3.45 -76.55 -3.5 -75.45 -3.65 -74.95 -3.7 -74.4 -3.8 -73.9 -3.9 -73.4 -4.0 -72.9 -4.15 -72.4 -4.25 -71.9 -4.4 -71.4 -4.55 -70.9 -4.7 -70.45 -4.85 -69.95 -5.0 -69.45 -5.2 -69.0 -5.4 -68.5 -5.6 -68.05 -5.8 -67.6 -6.05 -67.55 -6.05 -67.5 -6.1 -67.5 -6.1 -67.45 -6.1 -67.4 -6.15 -67.35 -6.15 -67.3 -6.15 -67.3 -6.2 -67.25 -6.2 -67.2 -6.2 -67.15 -6.2 -67.15 -6.2 -67.1 -6.2 -67.05 -6.2 -67.0 -6.2 -66.95 -6.2 L-66.95 -6.2" fill="#0d07e0" fill-rule="evenodd" stroke="none"/>
    <path d="M20.0 -52.05 Q19.9 -51.85 19.8 -51.55 19.6 -51.2 19.55 -51.1 19.45 -50.9 19.4 -50.7 19.35 -50.5 19.3 -50.35 19.25 -50.15 19.2 -49.95 19.2 -49.75 19.2 -49.55 19.15 -49.35 19.15 -49.15 19.2 -48.95 19.2 -48.75 19.25 -48.6 19.3 -48.4 19.3 -48.2 19.4 -48.0 19.55 -47.55 19.7 -47.2 19.9 -46.8 20.1 -46.4 20.3 -46.05 20.5 -45.7 20.75 -45.35 21.05 -45.05 21.3 -44.75 21.6 -44.5 21.9 -44.2 22.25 -44.0 22.6 -43.75 23.0 -43.55 23.35 -43.35 23.8 -43.15 23.85 -43.15 23.9 -43.1 23.85 -43.05 23.8 -43.0 23.75 -42.95 23.7 -42.95 23.65 -42.9 23.55 -42.85 23.5 -42.85 23.45 -42.8 23.4 -42.8 23.35 -42.75 23.3 -42.75 23.2 -42.7 23.05 -42.65 23.1 -42.65 23.0 -42.6 22.95 -42.6 22.5 -42.4 22.05 -42.25 21.6 -42.05 21.15 -41.9 20.7 -41.75 20.25 -41.6 19.8 -41.45 19.35 -41.3 18.9 -41.2 18.4 -41.05 17.95 -40.95 17.5 -40.85 17.0 -40.7 16.55 -40.6 16.1 -40.5 15.6 -40.4 13.2 -39.95 12.35 -39.85 12.25 -39.85 12.2 -39.8 12.1 -39.8 12.0 -39.8 11.95 -39.8 11.85 -39.8 11.75 -39.8 11.7 -39.75 11.6 -39.75 11.5 -39.75 11.45 -39.75 11.35 -39.75 11.25 -39.75 11.2 -39.8 11.1 -39.8 11.0 -39.8 11.3 -40.05 11.55 -40.35 11.85 -40.6 12.05 -40.9 12.3 -41.2 12.5 -41.55 12.7 -41.85 12.85 -42.15 13.05 -42.5 13.2 -42.85 13.3 -43.2 13.45 -43.55 13.55 -43.9 13.65 -44.3 13.75 -44.65 13.8 -45.05 13.8 -45.2 13.85 -45.3 13.85 -45.45 13.85 -45.6 13.9 -45.7 13.9 -45.85 13.9 -46.0 13.9 -46.15 13.9 -46.25 13.9 -46.4 13.85 -46.55 13.85 -46.65 13.85 -46.8 13.8 -46.95 13.8 -47.1 13.8 -47.2 13.75 -47.45 13.65 -47.7 13.6 -47.95 13.5 -48.2 13.4 -48.4 13.25 -48.6 13.15 -48.85 13.0 -49.05 12.85 -49.25 12.7 -49.4 12.55 -49.6 12.35 -49.75 12.15 -49.95 11.95 -50.1 11.75 -50.25 11.55 -50.4 10.95 -50.75 9.8 -51.2 9.75 -51.2 9.75 -51.25 9.7 -51.25 9.65 -51.25 9.65 -51.25 9.6 -51.3 9.55 -51.3 9.5 -51.3 9.45 -51.35 9.45 -51.35 9.4 -51.35 9.35 -51.4 9.3 -51.4 9.3 -51.45 9.25 -51.45 9.2 -51.5 9.55 -51.5 10.2 -51.5 10.55 -51.5 12.95 -51.6 14.65 -51.65 15.7 -51.7 18.05 -51.8 19.3 -52.0 19.4 -52.0 20.0 -52.05 L20.0 -52.05" fill="#0d07e0" fill-rule="evenodd" stroke="none"/>
    <path d="M-45.5 -0.4 Q-45.8 -0.8 -46.0 -1.1 -46.15 -1.3 -46.3 -1.45 -46.45 -1.6 -46.6 -1.75 -46.8 -1.85 -46.95 -1.95 -47.15 -2.05 -47.35 -2.15 -47.55 -2.2 -47.75 -2.2 -48.0 -2.25 -48.2 -2.25 -48.45 -2.25 -48.7 -2.2 -48.9 -2.2 -49.2 -2.1 -49.25 -2.1 -49.3 -2.05 -49.35 -2.05 -49.45 -2.05 -49.5 -2.0 -49.55 -2.0 -49.6 -1.95 -49.65 -1.95 -49.7 -1.9 -49.75 -1.9 -49.85 -1.85 -49.9 -1.85 -49.95 -1.8 -50.0 -1.8 -50.05 -1.75 -50.1 -1.7 -50.2 -1.65 -50.35 -1.55 -50.45 -1.5 -50.55 -1.45 -50.65 -1.35 -50.8 -1.3 -50.9 -1.2 -51.0 -1.15 -51.1 -1.05 -51.2 -1.0 -51.3 -0.9 -51.4 -0.8 -51.5 -0.75 -51.6 -0.65 -51.7 -0.55 -51.8 -0.45 -51.8 -0.5 -51.85 -0.6 -51.85 -0.65 -51.85 -0.7 -51.85 -0.75 -51.85 -0.85 -51.85 -0.9 -51.85 -0.95 -51.85 -1.0 -51.85 -1.1 -51.85 -1.15 -51.85 -1.2 -51.9 -0.9 -51.85 -1.35 -51.85 -1.4 -51.85 -1.45 -51.8 -1.95 -51.8 -2.05 -51.75 -3.65 -51.4 -6.25 -51.35 -6.55 -51.3 -6.85 -51.25 -7.15 -51.2 -7.45 -51.15 -7.75 -51.1 -8.05 -51.05 -8.35 -51.0 -8.65 -50.95 -8.95 -50.85 -9.25 -50.8 -9.5 -50.75 -9.8 -50.65 -10.1 -50.6 -10.4 -50.5 -10.7 -50.45 -11.0 -50.45 -11.0 -50.45 -11.05 -50.4 -11.1 -50.4 -11.15 -50.4 -11.2 -50.35 -11.2 -50.35 -11.25 -50.3 -11.3 -49.65 -9.8 -49.4 -9.35 -49.35 -9.25 -49.3 -9.15 -49.2 -9.05 -49.15 -8.95 -49.1 -8.85 -49.0 -8.75 -48.95 -8.65 -48.9 -8.55 -48.8 -8.5 -48.75 -8.4 -48.7 -8.3 -48.6 -8.2 -48.55 -8.1 -48.45 -8.05 -48.4 -7.95 -48.3 -7.85 -48.25 -7.8 -48.2 -7.75 -48.1 -7.65 -48.05 -7.6 -48.0 -7.55 -47.9 -7.5 -47.85 -7.45 -47.75 -7.4 -47.7 -7.35 -47.65 -7.3 -47.55 -7.25 -47.45 -7.25 -47.4 -7.2 -47.3 -7.15 -47.25 -7.1 -47.15 -7.1 -47.05 -7.1 -47.0 -7.05 -46.95 -7.05 -46.85 -7.05 -46.8 -7.0 -46.7 -7.0 -46.65 -7.0 -46.55 -7.0 -46.5 -7.0 -46.4 -7.0 -46.35 -7.0 -46.25 -7.05 -46.2 -7.05 -46.1 -7.1 -46.05 -7.1 -46.0 -7.15 -45.9 -7.2 -45.8 -7.2 -45.7 -7.25 -45.65 -7.3 -45.55 -7.35 -45.45 -7.4 -45.4 -7.4 -45.3 -7.45 -45.2 -7.5 -45.15 -7.55 -45.05 -7.6 -44.95 -7.7 -44.9 -7.75 -44.8 -7.8 -44.75 -7.85 -44.65 -7.9 -44.5 -8.1 -44.45 -8.15 -44.4 -8.25 -44.35 -8.3 -44.3 -8.4 -44.25 -8.45 -44.2 -8.55 -44.15 -8.6 -44.1 -8.7 -44.0 -8.75 -43.95 -8.85 -43.9 -8.9 -43.85 -9.0 -43.75 -9.05 -43.7 -9.1 -43.65 -9.2 -43.55 -9.25 -43.5 -9.3 -43.5 -9.25 -43.5 -9.2 -43.5 -9.2 -43.5 -9.15 -43.5 -9.1 -43.5 -9.05 -43.5 -9.0 -43.5 -8.95 -43.5 -8.95 -43.5 -8.9 -43.55 -8.85 -43.55 -8.8 -43.55 -8.8 -43.55 -8.75 -43.55 -8.7 -43.6 -8.65 -43.8 -7.75 -44.15 -6.35 -44.65 -4.35 -44.7 -4.05 -44.75 -3.85 -44.8 -3.65 -44.85 -3.45 -44.9 -3.2 -44.95 -3.0 -45.0 -2.8 -45.05 -2.6 -45.1 -2.4 -45.1 -2.15 -45.15 -1.95 -45.2 -1.75 -45.25 -1.55 -45.3 -1.35 -45.3 -1.1 -45.35 -0.9 -45.35 -0.7 -45.35 -0.65 -45.4 -0.6 -45.4 -0.55 -45.4 -0.55 -45.4 -0.5 -45.45 -0.45 -45.45 -0.4 -45.5 -0.4 L-45.5 -0.4" fill="#0d07e0" fill-rule="evenodd" stroke="none"/>
    <path d="M33.1 -27.65 Q31.85 -26.55 31.55 -26.2 31.35 -25.95 31.15 -25.7 31.0 -25.45 30.85 -25.2 30.7 -24.95 30.6 -24.65 30.45 -24.4 30.4 -24.1 30.3 -23.85 30.25 -23.55 30.15 -23.25 30.15 -22.95 30.1 -22.65 30.1 -22.35 30.1 -22.05 30.1 -21.75 30.1 -21.65 30.25 -20.85 30.2 -20.8 30.2 -20.8 30.15 -20.75 30.1 -20.75 30.1 -20.7 30.05 -20.7 30.0 -20.7 29.95 -20.65 29.95 -20.65 29.9 -20.65 29.85 -20.65 29.8 -20.6 29.7 -20.6 29.7 -20.6 29.7 -20.6 29.65 -20.6 29.35 -20.5 29.05 -20.4 28.7 -20.3 28.4 -20.25 28.1 -20.15 27.8 -20.05 27.45 -20.0 27.15 -19.9 26.85 -19.85 26.5 -19.75 26.2 -19.7 25.9 -19.65 25.55 -19.55 25.25 -19.5 24.9 -19.45 24.6 -19.4 24.55 -19.4 24.3 -19.35 24.15 -19.35 24.05 -19.3 23.85 -19.3 23.75 -19.3 23.6 -19.25 23.45 -19.25 23.3 -19.25 23.15 -19.2 23.0 -19.2 22.85 -19.2 22.7 -19.2 22.6 -19.2 22.45 -19.25 22.3 -19.25 22.45 -19.35 23.2 -19.75 23.75 -20.0 24.1 -20.2 24.25 -20.3 24.4 -20.35 24.55 -20.45 24.7 -20.55 24.85 -20.65 24.95 -20.75 25.1 -20.85 25.25 -20.95 25.4 -21.05 25.5 -21.15 25.65 -21.25 25.8 -21.35 25.95 -21.45 26.05 -21.55 26.2 -21.65 26.35 -21.75 26.65 -22.0 26.9 -22.3 27.15 -22.55 27.35 -22.9 27.5 -23.15 27.65 -23.5 27.75 -23.8 27.8 -24.1 27.85 -24.45 27.9 -24.75 27.9 -25.05 27.85 -25.4 27.85 -25.7 27.75 -26.0 27.7 -26.25 27.6 -26.55 27.55 -26.7 27.45 -26.85 27.4 -27.0 27.35 -27.15 27.25 -27.3 27.2 -27.45 27.1 -27.6 27.0 -27.75 26.95 -27.9 26.85 -28.05 26.75 -28.2 26.65 -28.35 26.55 -28.45 26.45 -28.6 26.35 -28.75 26.25 -28.85 26.3 -28.85 26.3 -28.85 26.35 -28.85 26.4 -28.85 26.45 -28.85 26.45 -28.85 26.5 -28.85 26.55 -28.85 26.55 -28.85 26.6 -28.85 26.65 -28.85 26.7 -28.8 26.7 -28.8 26.75 -28.8 26.75 -28.8 26.8 -28.8 27.15 -28.7 27.5 -28.65 27.85 -28.55 28.15 -28.5 28.5 -28.4 28.85 -28.35 29.2 -28.25 29.5 -28.2 29.85 -28.15 30.2 -28.05 30.55 -28.0 30.9 -27.95 31.25 -27.9 31.55 -27.85 31.9 -27.8 32.25 -27.75 32.45 -27.75 33.1 -27.65 L33.1 -27.65" fill="#0d07e0" fill-rule="evenodd" stroke="none"/>
    <path d="M-23.05 -12.25 L-23.05 -12.2 -23.0 -12.15 -23.05 -12.25" fill="#ffffff" fill-rule="evenodd" stroke="none"/>
    <path d="M26.25 -28.85 Q26.2 -28.85 26.2 -28.9 26.15 -28.9 26.15 -28.95 26.2 -28.95 26.2 -28.9 26.25 -28.9 26.25 -28.85 L26.25 -28.85" fill="#0d07e0" fill-rule="evenodd" stroke="none"/>
    <path d="M-66.85 -6.35 Q-66.85 -6.3 -66.85 -6.25 -66.9 -6.25 -66.9 -6.2 -66.9 -6.2 -66.95 -6.2 -66.95 -6.25 -66.95 -6.3 -66.9 -6.3 -66.85 -6.35 L-66.85 -6.35" fill="#0d07e0" fill-rule="evenodd" stroke="none"/>
    <path d="M-21.1 -16.6 Q-21.05 -16.6 -21.05 -16.55 -21.0 -16.55 -21.0 -16.5 -20.95 -16.5 -20.95 -16.45 -21.0 -16.45 -21.05 -16.5 -21.05 -16.5 -21.05 -16.55 -21.1 -16.55 -21.1 -16.6 L-21.1 -16.6" fill="#0d07e0" fill-rule="evenodd" stroke="none"/>
  </g>
</svg>
