<?xml version="1.0" encoding="UTF-8" standalone="no"?>
<svg xmlns:xlink="http://www.w3.org/1999/xlink" height="200.0px" width="200.0px" xmlns="http://www.w3.org/2000/svg">
  <g transform="matrix(1.0, 0.0, 0.0, 1.0, 100.0, 100.0)">
    <path d="M52.6 -42.85 Q52.3 -43.35 52.05 -43.85 51.75 -44.3 51.5 -44.8 51.2 -45.25 50.9 -45.75 50.65 -46.2 50.35 -46.65 50.1 -47.1 49.8 -47.55 49.55 -47.95 49.25 -48.4 49.0 -48.8 48.7 -49.25 48.4 -49.65 48.15 -50.05 44.2 -48.3 40.25 -46.7 36.45 -45.15 32.6 -43.75 29.0 -42.4 25.35 -41.15 21.9 -39.95 18.4 -38.85 15.15 -37.85 11.85 -36.9 8.8 -36.0 5.7 -35.2 2.85 -34.45 0.0 -33.75 -2.65 -33.15 -5.3 -32.55 -6.15 -32.35 -7.05 -32.2 -7.85 -32.0 -8.7 -31.8 -9.55 -31.65 -10.35 -31.5 -11.15 -31.35 -12.0 -31.2 -12.75 -31.05 -13.55 -30.9 -14.3 -30.75 -15.05 -30.6 -15.8 -30.45 -16.5 -30.35 -17.2 -30.2 -17.9 -30.1 -17.9 -30.0 -17.8 -29.65 -17.75 -29.35 -17.7 -29.05 -17.65 -28.75 -17.6 -28.45 -17.55 -28.15 -17.5 -27.85 -17.45 -27.55 -17.45 -27.2 -17.4 -26.9 -17.35 -26.6 -17.35 -26.3 -17.3 -26.0 -17.3 -25.7 -17.3 -25.4 -17.25 -25.1 -17.25 -24.8 -7.3 -25.7 14.75 -27.7 16.5 -27.95 18.2 -28.2 19.95 -28.45 21.7 -28.7 23.45 -29.0 25.25 -29.3 27.05 -29.6 28.85 -29.95 30.7 -30.3 32.5 -30.65 34.35 -31.0 36.2 -31.4 38.1 -31.8 39.95 -32.2 41.85 -32.65 43.75 -33.1 44.55 -33.3 45.3 -33.5 46.1 -33.65 46.9 -33.85 47.65 -34.05 48.45 -34.25 49.2 -34.45 49.95 -34.65 50.7 -34.85 51.5 -35.05 52.25 -35.25 53.0 -35.45 53.75 -35.65 54.5 -35.85 55.2 -36.05 55.95 -36.3 55.75 -36.7 55.6 -37.1 55.4 -37.5 55.2 -37.9 55.0 -38.3 54.8 -38.7 54.6 -39.1 54.4 -39.5 54.15 -39.9 53.95 -40.35 53.75 -40.75 53.5 -41.15 53.3 -41.6 53.05 -42.0 52.85 -42.45 52.6 -42.85 L52.6 -42.85" fill="#aa2626" fill-rule="evenodd" stroke="none"/>
    <path d="M-50.6 -26.5 Q-51.65 -26.45 -52.75 -26.4 -53.8 -26.35 -54.85 -26.35 -55.85 -26.3 -56.9 -26.25 -57.85 -26.25 -58.85 -26.2 -59.85 -26.2 -60.8 -26.2 -61.75 -26.2 -62.65 -26.15 -63.6 -26.15 -64.5 -26.15 -65.4 -26.15 -66.25 -26.2 -65.35 -26.05 -64.45 -25.9 -63.55 -25.8 -62.6 -25.65 -61.7 -25.5 -60.75 -25.4 -59.8 -25.3 -58.85 -25.15 -57.85 -25.05 -56.9 -24.95 -55.9 -24.85 -54.9 -24.75 -53.9 -24.65 -52.9 -24.55 -51.85 -24.45 -50.85 -24.4 -50.85 -24.55 -50.8 -24.65 -50.8 -24.8 -50.8 -24.95 -50.8 -25.05 -50.75 -25.2 -50.75 -25.3 -50.75 -25.45 -50.7 -25.6 -50.7 -25.7 -50.7 -25.85 -50.7 -26.0 -50.65 -26.1 -50.65 -26.25 -50.65 -26.4 -50.6 -26.5 L-50.6 -26.5" fill="#aa2626" fill-rule="evenodd" stroke="none"/>
  </g>
</svg>
