<?xml version="1.0" encoding="UTF-8" standalone="no"?>
<svg xmlns:xlink="http://www.w3.org/1999/xlink" height="16.45px" width="91.7px" xmlns="http://www.w3.org/2000/svg">
  <g transform="matrix(1.0, 0.0, 0.0, 1.0, 62.05, 19.65)">
    <path d="M12.65 -16.4 Q13.1 -16.2 13.55 -16.0 14.05 -15.75 14.55 -15.5 15.1 -15.25 15.65 -14.95 16.2 -14.6 16.8 -14.25 17.4 -13.9 17.95 -13.5 18.6 -13.05 19.2 -12.6 19.8 -12.15 20.4 -11.6 21.05 -11.05 21.65 -10.5 22.05 -10.1 22.45 -9.7 22.8 -9.35 23.15 -8.95 23.5 -8.55 23.8 -8.15 24.1 -7.8 24.4 -7.4 24.7 -7.0 24.95 -6.65 25.2 -6.3 25.45 -5.95 25.7 -5.6 25.9 -5.25 26.15 -4.9 26.3 -4.6 23.55 -4.9 20.75 -5.1 18.1 -5.3 15.4 -5.45 12.85 -5.6 10.25 -5.7 7.8 -5.8 5.35 -5.8 3.0 -5.85 0.7 -5.85 -1.55 -5.85 -3.75 -5.75 -5.85 -5.7 -7.95 -5.65 -9.9 -5.55 -11.85 -5.45 -13.6 -5.35 -15.35 -5.2 -17.0 -5.1 -18.7 -4.95 -20.35 -4.8 -21.95 -4.65 -23.55 -4.45 -25.1 -4.3 -26.65 -4.1 -28.15 -3.9 -29.6 -3.75 -31.05 -3.5 -32.45 -3.3 -33.8 -3.1 -35.15 -2.9 -36.45 -2.7 -38.4 -2.4 -40.35 -2.0 -42.25 -1.65 -44.15 -1.3 -45.95 -0.95 -47.75 -0.55 -49.55 -0.15 -51.3 0.25 -52.95 0.65 -54.65 1.05 -56.3 1.45 -57.9 1.9 -59.45 2.3 -61.0 2.7 -62.5 3.1 -63.95 3.55 -61.5 2.25 -59.0 1.05 -56.3 -0.2 -53.6 -1.4 -50.7 -2.7 -47.75 -3.85 -44.65 -5.1 -41.55 -6.2 -38.25 -7.35 -34.9 -8.4 -31.4 -9.5 -27.9 -10.45 -24.2 -11.45 -20.5 -12.25 -16.6 -13.15 -12.7 -13.8 -11.0 -14.1 -9.3 -14.35 -7.6 -14.65 -5.95 -14.85 -4.3 -15.1 -2.65 -15.25 -1.05 -15.45 0.55 -15.6 2.1 -15.75 3.7 -15.9 5.2 -16.0 6.75 -16.1 8.25 -16.2 9.75 -16.25 11.2 -16.35 12.65 -16.4 L12.65 -16.4" fill="#7b6b82" fill-rule="evenodd" stroke="none"/>
  </g>
</svg>
