<?xml version="1.0" encoding="UTF-8" standalone="no"?>
<svg xmlns:xlink="http://www.w3.org/1999/xlink" height="140.9px" width="374.05px" xmlns="http://www.w3.org/2000/svg">
  <g transform="matrix(1.0, 0.0, 0.0, 1.0, 187.05, 70.45)">
    <path d="M42.15 -56.05 Q44.7 -56.15 49.8 -56.35 49.8 -56.2 49.8 -56.0 49.8 -55.85 49.8 -55.65 49.85 -55.45 49.85 -55.25 49.9 -55.05 49.95 -54.85 49.95 -54.6 50.0 -54.4 50.1 -54.2 50.15 -53.95 50.25 -53.75 50.3 -53.5 50.4 -53.25 50.55 -53.05 50.65 -52.85 50.8 -52.65 50.9 -52.45 51.0 -52.25 51.15 -52.1 51.3 -51.95 51.4 -51.85 51.55 -51.65 51.65 -51.55 51.85 -51.4 52.05 -51.15 52.15 -51.05 52.3 -50.9 52.5 -50.75 52.65 -50.55 52.85 -50.3 53.05 -50.05 53.25 -49.8 53.4 -49.55 53.55 -49.35 53.7 -49.1 53.85 -48.9 53.95 -48.65 54.1 -48.4 54.15 -48.2 54.3 -47.9 54.55 -47.4 54.6 -47.3 54.75 -46.95 54.9 -46.65 55.1 -46.25 55.35 -45.85 55.45 -45.6 55.6 -45.35 55.75 -45.1 55.9 -44.85 56.05 -44.55 56.2 -44.25 56.4 -43.95 56.6 -43.65 56.8 -43.35 57.0 -43.05 57.2 -42.7 57.45 -42.35 57.7 -42.0 57.95 -41.65 58.2 -41.3 58.45 -40.95 58.6 -41.0 58.35 -40.9 58.25 -40.9 58.15 -40.85 58.0 -40.8 57.85 -40.75 57.7 -40.65 57.55 -40.6 57.35 -40.5 57.2 -40.4 57.05 -40.25 56.9 -40.1 56.7 -39.95 56.6 -39.75 56.45 -39.55 56.3 -39.35 56.2 -39.15 56.15 -38.9 56.05 -38.65 56.05 -38.4 56.0 -38.2 56.0 -37.95 56.0 -37.7 56.05 -37.45 56.1 -37.25 56.15 -37.0 56.25 -36.8 56.35 -36.6 56.45 -36.4 56.6 -36.2 56.75 -36.05 56.95 -35.9 57.1 -35.8 57.25 -35.7 57.4 -35.65 57.55 -35.6 57.75 -35.55 57.9 -35.55 58.05 -35.5 58.2 -35.5 58.35 -35.5 58.5 -35.5 58.65 -35.55 58.8 -35.55 58.9 -35.55 59.0 -35.6 59.1 -35.6 59.2 -35.6 59.45 -35.65 61.85 -36.8 62.2 -36.95 62.65 -37.15 65.4 -36.6 67.25 -36.3 67.95 -36.2 68.3 -36.15 68.9 -36.05 69.45 -36.0 70.1 -35.9 70.7 -35.85 71.4 -35.75 72.05 -35.7 72.75 -35.65 73.45 -35.6 74.2 -35.55 74.95 -35.55 75.75 -35.55 76.55 -35.55 77.4 -35.55 78.25 -35.6 79.2 -35.65 80.1 -35.75 80.95 -35.85 81.85 -36.0 82.65 -36.15 83.45 -36.3 84.2 -36.45 84.95 -36.65 85.65 -36.8 86.35 -37.0 87.0 -37.2 87.65 -37.4 88.2 -37.55 88.85 -37.75 89.3 -37.9 89.95 -38.15 90.55 -38.35 91.0 -38.5 91.6 -38.7 92.15 -38.9 92.75 -39.15 93.35 -39.4 94.05 -39.65 94.65 -39.95 95.4 -40.25 96.05 -40.6 96.8 -40.95 97.5 -41.35 98.3 -41.8 99.05 -42.25 99.8 -42.75 100.6 -43.25 100.95 -43.5 101.25 -43.7 101.55 -43.95 101.9 -44.2 102.15 -44.4 102.45 -44.65 102.75 -44.85 103.0 -45.1 103.25 -45.3 103.5 -45.5 103.75 -45.7 104.0 -45.9 104.2 -46.1 104.4 -46.3 104.6 -46.45 104.8 -46.65 105.0 -46.7 105.15 -46.8 105.4 -46.85 105.65 -46.95 105.9 -47.0 106.15 -47.05 106.45 -47.15 106.8 -47.2 107.1 -47.25 107.45 -47.25 107.85 -47.3 108.2 -47.3 108.6 -47.3 109.0 -47.25 109.4 -47.2 109.8 -47.1 110.55 -46.95 111.3 -46.65 111.95 -46.35 112.55 -45.95 113.1 -45.6 113.6 -45.2 114.05 -44.8 114.5 -44.35 114.85 -43.95 115.15 -43.5 115.4 -43.15 115.65 -42.75 115.85 -42.45 116.0 -42.2 116.05 -42.0 116.15 -41.85 116.35 -38.3 116.6 -34.8 116.75 -32.5 116.9 -30.05 117.1 -26.65 117.05 -21.05 117.0 -14.2 117.05 -12.0 117.05 -11.6 117.05 -11.45 117.05 -11.15 117.05 -10.85 117.05 -10.45 117.0 -10.15 117.0 -9.75 116.95 -9.35 116.9 -8.95 116.8 -8.55 116.7 -8.1 116.55 -7.7 116.45 -7.25 116.25 -6.8 116.05 -6.35 115.8 -5.95 115.55 -5.5 114.3 -3.7 112.1 -0.7 111.55 -0.25 111.3 -0.1 111.1 0.05 110.85 0.2 110.6 0.35 110.35 0.45 110.1 0.55 109.85 0.65 109.6 0.75 109.35 0.8 109.05 0.9 108.8 0.95 108.45 1.05 108.15 1.1 107.8 1.2 107.55 1.25 107.1 1.35 106.7 1.45 106.35 1.5 106.0 1.55 105.6 1.6 105.3 1.65 105.0 1.7 104.7 1.7 104.4 1.75 104.15 1.75 103.9 1.75 103.7 1.8 103.5 1.8 103.35 1.8 103.2 1.8 103.1 1.8 103.0 1.8 88.7 1.95 87.7 1.9 78.1 1.15 58.0 2.95 57.35 -9.25 56.15 -33.6 56.0 -33.85 55.85 -34.15 55.65 -34.5 55.45 -34.8 55.25 -35.15 55.05 -35.5 54.85 -35.9 54.65 -36.3 54.4 -36.75 54.2 -37.15 53.95 -37.6 53.7 -38.1 53.45 -38.55 53.2 -39.05 52.95 -39.6 52.7 -40.1 51.85 -41.85 50.4 -44.95 49.45 -47.0 48.7 -48.3 48.45 -48.7 48.2 -49.1 47.95 -49.5 47.65 -49.95 47.35 -50.4 47.0 -50.85 46.65 -51.35 46.25 -51.8 45.85 -52.35 45.4 -52.85 44.95 -53.35 44.45 -53.9 43.9 -54.45 43.35 -54.95 42.75 -55.5 42.15 -56.05 L42.15 -56.05" fill="#a455b7" fill-rule="evenodd" stroke="none"/>
  </g>
</svg>
