<?xml version="1.0" encoding="UTF-8" standalone="no"?>
<svg xmlns:xlink="http://www.w3.org/1999/xlink" height="96.5px" width="349.45px" xmlns="http://www.w3.org/2000/svg">
  <g transform="matrix(1.0, 0.0, 0.0, 1.0, 174.75, 48.25)">
    <path d="M59.1 -10.25 Q59.65 -10.3 60.15 -10.4 60.7 -10.45 61.25 -10.5 61.9 -10.6 62.5 -10.65 63.15 -10.7 63.85 -10.8 64.55 -10.85 65.25 -10.95 66.0 -11.0 66.75 -11.05 67.55 -11.15 68.3 -11.2 69.15 -11.25 70.0 -11.3 71.55 -11.4 73.1 -11.45 74.6 -11.55 76.1 -11.55 77.5 -11.6 78.9 -11.6 80.25 -11.65 81.6 -11.65 82.8 -11.6 84.05 -11.6 85.15 -11.6 86.3 -11.55 87.25 -11.55 88.3 -11.5 89.0 -11.5 90.05 -11.45 90.3 -11.45 101.85 -11.45 102.55 -11.45 102.95 -11.45 103.55 -11.45 104.05 -11.5 104.65 -11.5 105.15 -11.55 105.75 -11.6 106.3 -11.7 106.85 -11.75 107.4 -11.9 108.0 -12.0 108.55 -12.2 109.15 -12.35 109.7 -12.6 110.3 -12.85 110.85 -13.15 111.15 -13.3 111.45 -13.45 111.7 -13.65 112.0 -13.8 112.25 -13.95 112.5 -14.15 112.7 -14.3 112.95 -14.45 113.15 -14.65 113.35 -14.8 113.55 -14.95 113.75 -15.15 113.95 -15.3 114.1 -15.45 114.25 -15.6 114.4 -15.75 115.15 -16.65 116.7 -18.5 117.8 -17.7 120.05 -16.1 120.25 -11.6 120.35 -5.8 120.4 -4.15 120.4 -2.45 120.4 -0.9 120.4 0.65 120.4 2.1 120.4 3.55 120.4 4.85 120.4 6.15 120.35 7.3 120.35 8.5 120.35 9.5 120.3 10.55 120.3 11.4 120.25 12.35 120.25 12.85 120.2 13.8 119.7 33.0 119.45 43.85 114.9 45.6 105.8 49.05 103.15 47.8 97.7 45.2 97.6 40.8 97.4 32.2 94.0 33.4 87.15 35.9 85.45 34.95 82.1 33.1 81.65 26.55 80.85 13.35 73.7 13.45 59.25 13.65 59.2 5.75 59.1 -10.25 L59.1 -10.25" fill="#03bdde" fill-rule="evenodd" stroke="none"/>
  </g>
</svg>
