<?xml version="1.0" encoding="UTF-8" standalone="no"?>
<svg xmlns:xlink="http://www.w3.org/1999/xlink" height="128.45px" width="124.15px" xmlns="http://www.w3.org/2000/svg">
  <g transform="matrix(1.0, 0.0, 0.0, 1.0, 62.1, 64.25)">
    <path d="M14.2 35.45 Q14.2 35.9 14.15 36.35 14.15 36.8 14.1 37.2 14.05 37.65 13.95 38.1 13.85 38.5 13.75 38.95 13.65 39.35 13.55 39.75 13.4 40.2 13.25 40.6 13.1 41.0 12.9 41.4 12.7 41.8 12.5 42.2 12.3 42.6 12.05 42.95 11.8 43.25 11.5 43.55 11.25 43.8 10.95 44.0 10.65 44.2 10.3 44.35 10.0 44.5 9.65 44.55 9.3 44.65 8.9 44.65 8.5 44.7 8.1 44.65 7.7 44.6 7.25 44.45 6.3 44.2 5.4 43.9 4.5 43.55 3.65 43.15 2.8 42.75 2.05 42.25 1.25 41.75 0.55 41.2 -0.2 40.65 -0.85 40.0 -1.5 39.35 -2.15 38.65 -2.75 37.95 -3.3 37.15 -3.85 36.4 -4.35 35.55 -4.55 35.2 -4.75 34.85 -4.9 34.45 -5.05 34.1 -5.2 33.7 -5.3 33.3 -5.4 32.95 -5.5 32.55 -5.6 32.15 -5.7 31.75 -5.75 31.4 -5.85 30.95 -5.9 30.6 -6.0 30.15 -5.85 31.05 -6.1 29.35 -6.85 24.5 -8.0 11.3 -8.05 10.5 -8.15 9.4 -8.55 4.65 -8.3 7.5 -8.4 6.4 -8.45 5.6 -8.55 4.6 -8.65 3.7 -8.75 2.7 -8.85 1.85 -9.0 0.85 -9.1 -0.05 -9.3 -1.0 -9.45 -1.95 -9.65 -2.9 -9.85 -3.8 -9.9 -3.95 -9.95 -4.2 -10.05 -4.55 -10.05 -4.6 -10.1 -4.75 -10.1 -4.85 -10.15 -4.95 -10.2 -5.1 -10.25 -5.2 -10.3 -5.3 -10.4 -5.4 -10.45 -5.45 -10.55 -5.55 -10.6 -5.65 -10.7 -5.7 -10.8 -5.8 -10.9 -5.85 -11.0 -5.95 -11.15 -6.0 -11.25 -6.05 -11.65 -6.2 -12.0 -6.45 -12.35 -6.65 -12.75 -6.85 -13.1 -7.05 -13.45 -7.3 -13.8 -7.55 -14.15 -7.8 -14.45 -8.0 -14.8 -8.3 -15.1 -8.55 -15.45 -8.8 -15.75 -9.05 -16.1 -9.35 -17.15 -10.15 -16.75 -9.85 -17.85 -10.75 -19.45 -12.25 -19.65 -12.45 -19.85 -12.65 -20.0 -12.85 -20.15 -13.05 -20.3 -13.3 -20.45 -13.5 -20.55 -13.75 -20.65 -13.95 -20.75 -14.2 -20.8 -14.45 -20.85 -14.7 -20.9 -14.95 -20.9 -15.2 -20.9 -15.5 -20.9 -15.75 -20.85 -16.05 -20.85 -16.1 -20.85 -16.2 -20.85 -16.25 -20.85 -16.3 -20.85 -16.4 -20.85 -16.45 -20.85 -16.5 -20.9 -16.55 -20.9 -16.65 -20.95 -16.7 -20.95 -16.75 -20.95 -16.8 -21.0 -16.9 -21.05 -16.95 -21.05 -17.0 -21.1 -17.05 -21.35 -17.5 -21.5 -17.9 -21.75 -18.3 -21.95 -18.7 -22.15 -19.15 -22.3 -19.55 -22.5 -20.0 -22.65 -20.4 -22.8 -20.85 -22.95 -21.3 -23.05 -21.75 -23.15 -22.15 -23.3 -22.6 -23.35 -23.05 -23.45 -23.55 -23.45 -24.0 -23.45 -24.15 -23.5 -24.25 -23.5 -24.4 -23.55 -24.5 -23.6 -24.65 -23.65 -24.75 -23.7 -24.9 -23.75 -25.05 -23.8 -25.1 -23.9 -25.3 -23.95 -25.45 -24.0 -25.55 -24.05 -25.65 -24.1 -25.8 -24.15 -25.9 -24.2 -26.05 -24.3 -26.4 -24.4 -26.75 -24.5 -27.1 -24.55 -27.45 -24.6 -27.8 -24.6 -28.1 -24.6 -28.45 -24.6 -28.8 -24.55 -29.15 -24.45 -29.45 -24.4 -29.8 -24.25 -30.1 -24.15 -30.45 -23.95 -30.75 -23.8 -31.05 -23.55 -31.4 -23.4 -31.6 -23.25 -31.75 -23.1 -31.9 -22.95 -32.0 -22.8 -32.15 -22.6 -32.25 -22.45 -32.35 -22.25 -32.4 -22.1 -32.45 -21.9 -32.45 -21.7 -32.5 -21.5 -32.45 -21.3 -32.45 -21.05 -32.4 -20.85 -32.35 -20.6 -32.25 -19.85 -32.0 -18.55 -31.35 -18.5 -31.3 -18.45 -31.3 -18.35 -31.3 -18.3 -31.25 -18.25 -31.25 -18.2 -31.25 -18.15 -31.25 -18.1 -31.25 -18.05 -31.25 -18.0 -31.3 -18.0 -31.3 -17.95 -31.35 -17.9 -31.4 -17.85 -31.45 -17.8 -31.5 -17.75 -31.55 -17.65 -31.75 -17.5 -31.9 -17.35 -32.0 -17.2 -32.15 -17.05 -32.25 -16.9 -32.3 -16.75 -32.4 -16.55 -32.45 -16.4 -32.5 -16.2 -32.5 -16.05 -32.5 -15.85 -32.45 -15.65 -32.45 -15.45 -32.4 -15.3 -32.3 -15.1 -32.2 -14.95 -32.15 -14.8 -32.05 -14.7 -32.0 -14.55 -31.9 -14.4 -31.8 -14.3 -31.75 -14.15 -31.65 -14.05 -31.55 -13.9 -31.45 -13.8 -31.35 -13.7 -31.25 -13.55 -31.1 -13.45 -31.05 -13.35 -30.9 -13.25 -30.85 -13.1 -30.7 -11.75 -29.35 -7.55 -24.15 -6.85 -23.3 -6.8 -23.3 -6.4 -22.95 -6.0 -22.55 -5.65 -22.15 -5.3 -21.7 -4.95 -21.3 -4.65 -20.85 -4.4 -20.45 -4.1 -19.95 -3.85 -19.5 -3.6 -19.05 -3.35 -18.55 -3.15 -18.05 -2.95 -17.6 -2.7 -17.1 -2.55 -16.6 -2.3 -16.05 -1.85 -14.9 2.0 -5.25 2.8 -3.2 3.65 -0.2 14.15 37.15 5.05 4.95 6.5 9.95 10.7 20.55 11.05 21.4 11.35 22.2 11.65 23.05 11.9 23.85 12.2 24.7 12.45 25.55 12.7 26.4 12.9 27.25 13.15 28.1 13.35 28.95 13.5 29.85 13.65 30.7 13.85 31.6 13.95 32.45 14.05 33.35 14.15 34.2 14.15 34.45 14.2 34.85 14.2 35.3 14.2 35.45 L14.2 35.45 M-3.25 -11.95 Q-3.35 -12.35 -3.65 -13.0 -3.95 -13.7 -4.05 -14.05 -4.1 -14.35 -4.2 -14.65 -4.3 -14.95 -4.4 -15.25 -4.5 -15.5 -4.6 -15.8 -4.7 -16.1 -4.85 -16.4 -4.95 -16.65 -5.1 -16.95 -5.2 -17.2 -5.35 -17.5 -5.45 -17.75 -5.6 -18.05 -5.65 -18.25 -5.85 -18.6 -6.0 -18.9 -6.15 -19.2 -6.35 -19.45 -6.55 -19.7 -6.7 -19.95 -6.95 -20.2 -7.1 -20.45 -7.35 -20.7 -7.55 -20.85 -7.8 -21.15 -8.15 -21.5 -8.25 -21.6 -8.5 -21.85 -8.7 -22.1 -8.9 -22.35 -9.1 -22.55 -9.4 -22.9 -9.75 -23.4 -9.75 -23.35 -10.4 -24.2 -10.8 -24.7 -11.05 -25.05 -11.45 -25.5 -11.75 -25.85 -12.1 -26.3 -12.4 -26.65 -12.75 -27.1 -13.1 -27.45 -13.45 -27.85 -13.8 -28.25 -14.2 -28.6 -14.55 -29.0 -14.6 -29.05 -14.65 -29.05 -14.65 -29.1 -14.7 -29.15 -14.75 -29.2 -14.75 -29.25 -14.8 -29.3 -14.85 -29.3 -14.9 -29.35 -14.95 -29.4 -15.0 -29.4 -15.05 -29.4 -15.1 -29.45 -15.15 -29.45 -15.2 -29.4 -15.3 -29.4 -15.25 -29.3 -15.25 -29.2 -15.2 -29.1 -15.15 -29.0 -15.15 -28.95 -15.1 -28.85 -15.05 -28.8 -15.0 -28.7 -14.95 -28.65 -14.85 -28.55 -14.8 -28.5 -14.75 -28.4 -14.65 -28.35 -14.6 -28.3 -14.5 -28.25 -14.4 -28.2 -14.35 -28.15 -14.3 -28.15 -14.25 -28.1 -14.2 -28.05 -14.15 -28.0 -14.1 -27.95 -14.1 -27.9 -14.05 -27.85 -14.0 -27.8 -13.95 -27.75 -13.9 -27.7 -13.9 -27.65 -13.85 -27.6 -13.85 -27.55 -13.8 -27.5 -13.8 -27.4 -13.75 -27.2 -13.65 -27.0 -13.55 -26.85 -13.45 -26.65 -13.35 -26.5 -13.2 -26.3 -13.1 -26.15 -12.95 -25.95 -12.75 -25.65 -12.75 -25.6 -12.6 -25.45 -12.5 -25.3 -12.4 -25.1 -12.3 -24.95 -12.2 -24.75 -12.1 -24.55 -11.95 -24.2 -11.8 -23.85 -11.6 -23.55 -11.45 -23.2 -11.3 -22.85 -11.1 -22.55 -10.95 -22.2 -10.75 -21.9 -10.55 -21.55 -10.35 -21.25 -10.15 -20.95 -9.95 -20.65 -9.75 -20.35 -9.55 -20.05 -9.3 -19.75 -9.05 -19.45 -8.95 -19.3 -8.85 -19.2 -8.8 -19.05 -8.75 -18.9 -8.7 -18.75 -8.65 -18.6 -8.65 -18.45 -8.65 -18.3 -8.65 -18.15 -8.65 -18.0 -8.7 -17.85 -8.7 -17.7 -8.75 -17.55 -8.8 -17.35 -8.9 -17.2 -8.95 -17.05 -9.05 -16.85 -9.2 -16.65 -9.3 -16.45 -9.45 -16.25 -9.6 -16.05 -9.75 -15.85 -9.9 -15.7 -10.1 -15.55 -10.25 -15.4 -10.45 -15.25 -10.6 -15.1 -10.8 -14.95 -11.0 -14.8 -11.2 -14.65 -11.4 -14.55 -11.65 -14.45 -11.8 -14.35 -11.9 -14.3 -12.05 -14.25 -12.2 -14.25 -12.35 -14.2 -12.5 -14.2 -12.65 -14.2 -12.8 -14.25 -12.95 -14.25 -13.1 -14.3 -13.25 -14.35 -13.35 -14.45 -13.5 -14.5 -13.6 -14.6 -13.75 -14.7 -13.85 -14.85 -13.9 -14.9 -13.95 -14.95 -14.0 -15.0 -14.05 -15.0 -14.1 -15.05 -14.1 -15.05 -14.15 -15.1 -14.2 -15.1 -14.25 -15.15 -14.3 -15.15 -14.35 -15.2 -14.45 -15.2 -14.5 -15.2 -14.55 -15.2 -14.6 -15.2 -14.7 -15.2 -14.85 -15.2 -15.0 -15.2 -15.1 -15.25 -15.2 -15.3 -15.3 -15.35 -15.4 -15.4 -15.5 -15.5 -15.55 -15.55 -15.6 -15.65 -15.65 -15.75 -15.65 -15.85 -15.65 -16.0 -15.7 -16.1 -15.65 -16.25 -15.6 -16.35 -15.55 -16.5 -15.3 -17.05 -14.05 -19.4 -14.0 -19.5 -13.95 -19.55 -13.9 -19.6 -13.85 -19.65 -13.8 -19.7 -13.75 -19.75 -13.65 -19.75 -13.6 -19.75 -13.55 -19.8 -13.45 -19.75 -13.4 -19.75 -13.35 -19.75 -13.25 -19.7 -13.2 -19.65 -13.1 -19.6 -13.05 -19.55 -12.9 -19.45 -12.75 -19.35 -12.65 -19.25 -12.55 -19.15 -12.45 -19.05 -12.4 -18.95 -12.35 -18.85 -12.35 -18.7 -12.3 -18.6 -12.3 -18.45 -12.3 -18.35 -12.35 -18.15 -12.35 -18.0 -12.45 -17.85 -12.5 -17.65 -12.55 -17.4 -12.55 -17.4 -12.6 -17.3 -12.6 -17.25 -12.65 -17.2 -12.65 -17.15 -12.7 -17.1 -12.7 -17.05 -12.7 -17.0 -12.7 -16.95 -12.7 -16.9 -12.7 -16.85 -12.7 -16.8 -12.7 -16.75 -12.65 -16.75 -12.6 -16.7 -12.55 -16.65 -12.5 -16.6 -12.45 -16.6 -12.4 -16.55 -12.35 -16.55 -12.3 -16.55 -12.25 -16.6 -12.2 -16.6 -12.15 -16.6 -12.15 -16.65 -12.1 -16.7 -12.05 -16.7 -12.0 -16.75 -11.95 -16.8 -11.95 -16.85 -12.4 -16.3 -11.85 -16.95 -11.15 -17.7 -11.1 -17.8 -11.05 -17.85 -11.05 -17.9 -11.0 -17.95 -11.0 -18.0 -11.0 -18.0 -10.95 -18.05 -10.95 -18.1 -10.95 -18.15 -10.95 -18.2 -10.95 -18.25 -10.95 -18.3 -10.95 -18.3 -11.0 -18.35 -11.0 -18.4 -11.05 -18.45 -11.05 -18.5 -11.2 -18.7 -11.35 -18.95 -11.5 -19.15 -11.7 -19.35 -11.85 -19.55 -12.0 -19.75 -12.2 -20.0 -12.35 -20.15 -12.5 -20.4 -12.7 -20.55 -12.85 -20.75 -13.05 -20.95 -13.25 -21.15 -13.4 -21.3 -13.6 -21.5 -13.8 -21.7 -13.9 -21.75 -14.0 -21.85 -14.05 -21.9 -14.15 -21.9 -14.2 -21.95 -14.3 -21.95 -14.35 -21.95 -14.45 -21.95 -14.5 -21.95 -14.6 -21.9 -14.65 -21.9 -14.7 -21.85 -14.8 -21.8 -14.85 -21.7 -14.9 -21.65 -15.0 -21.55 -15.65 -20.7 -16.55 -19.35 -18.0 -17.05 -18.0 -17.1 -18.2 -16.8 -18.3 -16.55 -18.45 -16.3 -18.5 -16.05 -18.6 -15.8 -18.6 -15.6 -18.65 -15.35 -18.6 -15.15 -18.6 -14.95 -18.5 -14.75 -18.45 -14.5 -18.3 -14.3 -18.2 -14.1 -18.0 -13.9 -17.8 -13.7 -17.6 -13.5 -13.9 -10.3 -11.7 -8.85 -11.65 -8.8 -11.55 -8.75 -11.85 -9.0 -11.45 -8.65 -11.35 -8.6 -11.3 -8.55 -11.2 -8.5 -11.15 -8.45 -11.05 -8.4 -11.0 -8.35 -10.9 -8.3 -10.85 -8.3 -10.75 -8.25 -10.65 -8.25 -10.6 -8.2 -10.5 -8.2 -10.45 -8.2 -10.4 -8.15 -10.35 -8.1 -10.35 -8.05 -10.3 -8.05 -10.25 -8.0 -10.0 -7.95 -9.75 -7.9 -9.55 -7.8 -9.35 -7.7 -9.15 -7.6 -9.0 -7.45 -8.85 -7.35 -8.75 -7.15 -8.6 -7.0 -8.5 -6.8 -8.4 -6.65 -8.3 -6.4 -8.25 -6.25 -8.15 -6.0 -8.1 -5.8 -8.0 -5.55 -7.95 -5.35 -7.8 -4.75 -7.7 -4.3 -7.65 -4.0 -7.45 -3.1 -7.25 -2.15 -7.1 -1.25 -6.95 -0.3 -6.8 0.6 -6.65 1.55 -6.55 2.45 -6.45 3.4 -6.35 4.25 -6.3 5.25 -6.2 6.05 -6.1 7.15 -6.15 6.95 -6.0 9.0 -5.9 10.1 -5.8 10.85 -4.75 23.9 -3.9 29.0 -3.95 28.8 -3.8 29.7 -3.75 30.15 -3.7 30.45 -3.6 30.8 -3.55 31.15 -3.5 31.5 -3.4 31.85 -3.3 32.2 -3.25 32.55 -3.1 32.9 -3.0 33.25 -2.85 33.6 -2.7 33.9 -2.55 34.25 -2.4 34.55 -1.95 35.3 -1.45 35.95 -0.95 36.6 -0.45 37.25 0.1 37.85 0.7 38.4 1.25 38.95 1.9 39.45 2.5 39.95 3.2 40.35 3.9 40.8 4.6 41.15 5.35 41.5 6.1 41.8 6.9 42.1 7.75 42.3 8.0 42.35 8.25 42.4 8.45 42.45 8.65 42.45 8.9 42.45 9.05 42.4 9.25 42.4 9.45 42.3 9.6 42.25 9.75 42.15 9.9 42.0 10.05 41.85 10.2 41.7 10.35 41.5 10.45 41.3 10.6 41.1 10.8 40.75 10.95 40.4 11.1 40.0 11.25 39.65 11.4 39.3 11.5 38.95 11.6 38.55 11.7 38.2 11.8 37.8 11.85 37.4 11.9 37.05 11.95 36.65 12.0 36.25 12.0 35.9 12.0 35.5 12.0 35.1 11.95 34.7 11.95 34.25 11.9 33.85 11.85 33.4 11.8 33.0 11.75 32.55 11.7 32.15 11.6 31.7 11.55 31.3 11.5 30.9 11.4 30.45 11.3 30.05 11.25 29.65 11.15 29.2 11.05 28.8 10.95 28.4 10.8 27.65 10.55 26.9 10.35 26.15 10.1 25.4 9.85 24.65 9.6 23.9 9.35 23.2 9.05 22.4 8.8 21.75 8.5 20.95 8.3 20.45 7.9 19.5 7.5 18.5 7.35 18.05 7.0 17.25 6.75 16.6 3.35 7.6 1.95 1.95 1.8 1.35 1.65 0.8 1.5 0.2 1.35 -0.35 1.15 -0.95 1.0 -1.5 0.8 -2.1 0.6 -2.65 0.4 -3.25 0.2 -3.8 -0.05 -4.35 -0.25 -4.9 -0.5 -5.45 -0.75 -6.0 -1.0 -6.55 -1.3 -7.1 -1.65 -7.9 -3.25 -11.95 L-3.25 -11.95 M-17.5 -28.6 Q-18.55 -28.95 -18.95 -29.15 -19.25 -29.25 -19.7 -29.5 -20.25 -29.75 -20.45 -29.8 -20.7 -29.9 -20.9 -30.0 -21.1 -30.05 -21.25 -30.1 -21.45 -30.1 -21.55 -30.1 -21.7 -30.05 -21.8 -30.0 -21.9 -29.95 -22.0 -29.85 -22.1 -29.75 -22.15 -29.6 -22.2 -29.4 -22.25 -29.2 -22.3 -29.0 -22.35 -28.75 -22.4 -28.35 -22.35 -27.55 -22.35 -27.5 -22.35 -27.45 -22.35 -27.4 -22.3 -27.4 -22.3 -27.35 -22.3 -27.3 -22.25 -27.3 -22.25 -27.25 -22.2 -27.25 -22.15 -27.25 -22.15 -27.25 -22.1 -27.25 -22.05 -27.25 -22.0 -27.25 -21.95 -27.25 -21.9 -27.3 -21.2 -27.7 -18.55 -28.2 -18.65 -28.2 -18.4 -28.2 -18.35 -28.25 -18.25 -28.25 -18.2 -28.25 -18.15 -28.25 -18.05 -28.3 -18.0 -28.3 -17.95 -28.35 -17.85 -28.35 -17.8 -28.4 -17.75 -28.4 -17.7 -28.45 -17.6 -28.5 -17.55 -28.55 -17.5 -28.6 L-17.5 -28.6 M-14.55 -24.3 Q-14.6 -24.4 -14.7 -24.45 -14.75 -24.5 -14.85 -24.55 -14.9 -24.6 -14.95 -24.6 -15.05 -24.65 -15.1 -24.65 -15.2 -24.65 -15.25 -24.65 -15.35 -24.65 -15.4 -24.6 -15.5 -24.6 -15.55 -24.55 -15.6 -24.5 -15.7 -24.45 -16.05 -24.2 -16.25 -24.05 -16.6 -23.8 -16.85 -23.65 -17.15 -23.4 -17.4 -23.2 -17.7 -23.0 -17.95 -22.75 -18.25 -22.55 -18.5 -22.35 -18.8 -22.1 -19.05 -21.85 -19.35 -21.6 -19.6 -21.4 -19.85 -21.15 -20.1 -20.9 -19.1 -22.2 -20.15 -20.85 -20.2 -20.8 -20.2 -20.8 -20.2 -20.75 -20.25 -20.7 -20.25 -20.7 -20.25 -20.65 -20.3 -20.6 -20.3 -20.6 -20.3 -20.55 -20.3 -20.5 -20.3 -20.45 -20.25 -20.45 -20.25 -20.4 -20.25 -20.35 -20.2 -20.25 -20.15 -20.15 -20.1 -20.1 -20.05 -19.95 -20.05 -19.9 -20.0 -19.8 -19.95 -19.65 -19.9 -19.6 -19.85 -19.5 -19.8 -19.4 -19.75 -19.3 -19.7 -19.2 -19.65 -19.1 -19.6 -19.0 -19.55 -18.95 -19.5 -18.85 -19.15 -19.35 -18.15 -20.9 -17.35 -22.2 -16.75 -22.9 -16.65 -23.05 -16.55 -23.15 -16.4 -23.3 -16.3 -23.4 -16.2 -23.5 -16.05 -23.6 -15.95 -23.7 -15.8 -23.8 -15.7 -23.9 -15.55 -24.0 -15.4 -24.05 -15.25 -24.1 -15.1 -24.2 -14.9 -24.25 -14.75 -24.25 -14.55 -24.3 L-14.55 -24.3 M-21.05 -23.1 Q-20.8 -23.3 -20.55 -23.5 -20.35 -23.65 -20.05 -23.9 -19.7 -24.2 -19.55 -24.35 -19.3 -24.55 -19.05 -24.75 -18.8 -24.95 -18.55 -25.1 -18.25 -25.3 -18.0 -25.45 -17.7 -25.6 -17.45 -25.75 -17.15 -25.9 -16.85 -26.0 -16.8 -26.0 -16.75 -26.05 -16.7 -26.05 -16.7 -26.1 -16.65 -26.15 -16.6 -26.15 -16.6 -26.2 -16.6 -26.25 -16.6 -26.3 -16.6 -26.35 -16.6 -26.4 -16.6 -26.4 -16.65 -26.45 -16.65 -26.45 -16.65 -26.5 -16.7 -26.5 -16.7 -26.55 -16.75 -26.55 -16.75 -26.55 -16.8 -26.6 -16.8 -26.6 -16.85 -26.6 -16.85 -26.6 -16.9 -26.6 -16.95 -26.6 -16.95 -26.6 -17.45 -26.65 -17.6 -26.6 -20.2 -25.7 -20.75 -25.4 -20.8 -25.4 -20.85 -25.35 -20.9 -25.35 -20.9 -25.3 -20.95 -25.3 -21.0 -25.25 -21.0 -25.25 -21.05 -25.2 -21.05 -25.2 -21.1 -25.15 -21.1 -25.1 -21.1 -25.1 -21.15 -25.05 -21.15 -25.0 -21.15 -24.95 -21.15 -24.9 -21.15 -24.85 -21.15 -24.7 -21.2 -24.55 -21.2 -24.45 -21.2 -24.35 -21.2 -24.25 -21.2 -24.1 -21.2 -24.0 -21.2 -23.9 -21.2 -23.8 -21.2 -23.65 -21.15 -23.55 -21.15 -23.45 -21.15 -23.35 -21.1 -23.2 -21.05 -23.1 L-21.05 -23.1" fill="#040404" fill-rule="evenodd" stroke="none"/>
    <path d="M-10.5 -8.2 Q-10.35 -8.25 -10.2 -8.3 -10.1 -8.35 -9.95 -8.4 -9.8 -8.45 -9.65 -8.5 -9.55 -8.5 -9.35 -8.55 -9.3 -8.55 -9.05 -8.6 -8.9 -8.6 -8.8 -8.65 -8.6 -8.65 -8.5 -8.7 -8.35 -8.75 -8.2 -8.8 -7.85 -8.9 -7.5 -9.05 -7.15 -9.2 -6.8 -9.35 -6.45 -9.5 -6.15 -9.65 -5.8 -9.85 -5.5 -10.05 -5.2 -10.25 -4.9 -10.45 -4.6 -10.7 -4.35 -10.9 -4.05 -11.15 -3.8 -11.45 -3.5 -11.7 -3.25 -11.95 -1.75 -8.05 -1.3 -7.1 -1.35 -7.05 -1.4 -7.0 -1.45 -6.95 -1.45 -6.9 -1.5 -6.85 -1.55 -6.75 -1.55 -6.7 -1.55 -6.65 -1.6 -6.6 -1.6 -6.5 -1.65 -6.45 -1.65 -6.4 -1.7 -6.3 -1.7 -6.25 -1.75 -6.2 -1.75 -6.15 -1.95 -5.8 -2.15 -5.5 -2.4 -5.2 -2.7 -4.95 -2.95 -4.7 -3.3 -4.5 -3.6 -4.3 -3.95 -4.15 -4.25 -4.0 -4.65 -3.9 -5.0 -3.8 -5.4 -3.8 -5.75 -3.75 -6.15 -3.75 -6.55 -3.8 -6.95 -3.85 -7.1 -3.9 -7.65 -4.0 -7.85 -5.0 -8.0 -5.55 -8.05 -5.8 -8.15 -6.0 -8.2 -6.2 -8.3 -6.4 -8.4 -6.65 -8.5 -6.8 -8.6 -7.0 -8.75 -7.15 -8.85 -7.35 -9.0 -7.45 -9.2 -7.6 -9.35 -7.7 -9.55 -7.85 -9.8 -7.9 -10.0 -8.0 -10.25 -8.0 -10.25 -8.0 -10.5 -8.2 L-10.5 -8.2 M-3.15 -9.15 Q-3.35 -9.0 -3.75 -8.75 -4.15 -8.5 -4.35 -8.35 -4.65 -8.15 -4.9 -8.0 -5.2 -7.8 -5.5 -7.65 -5.8 -7.5 -6.1 -7.35 -6.45 -7.2 -6.75 -7.05 -7.1 -6.9 -7.4 -6.8 -7.75 -6.7 -8.1 -6.65 -7.85 -6.5 -7.65 -6.4 -7.45 -6.25 -7.2 -6.15 -7.0 -6.05 -6.8 -6.0 -6.6 -5.95 -6.35 -5.9 -6.15 -5.85 -5.95 -5.85 -5.75 -5.85 -5.55 -5.85 -5.3 -5.9 -5.1 -5.95 -4.9 -6.05 -4.65 -6.15 -4.45 -6.25 -4.25 -6.4 -4.1 -6.5 -3.95 -6.65 -3.8 -6.8 -3.7 -7.0 -3.6 -7.15 -3.5 -7.35 -3.4 -7.55 -3.35 -7.75 -3.3 -7.95 -3.25 -8.2 -3.2 -8.4 -3.2 -8.65 -3.15 -8.9 -3.15 -9.15 L-3.15 -9.15" fill="#000000" fill-opacity="0.2784314" fill-rule="evenodd" stroke="none"/>
  </g>
</svg>
