<?xml version="1.0" encoding="UTF-8" standalone="no"?>
<svg xmlns:xlink="http://www.w3.org/1999/xlink" height="200.0px" width="200.0px" xmlns="http://www.w3.org/2000/svg">
  <g transform="matrix(1.0, 0.0, 0.0, 1.0, 100.0, 100.0)">
    <path d="M-29.0 45.25 Q-29.65 45.25 -30.2 45.2 -30.85 45.15 -31.4 45.1 -32.0 45.0 -32.6 44.9 -33.2 44.8 -33.75 44.65 -34.35 44.55 -34.9 44.35 -35.5 44.2 -36.05 43.95 -36.6 43.75 -37.15 43.5 -37.7 43.2 -38.25 42.9 -39.45 42.15 -41.45 41.2 -44.4 39.75 -44.75 39.6 -45.3 39.3 -45.8 39.0 -46.3 38.7 -46.8 38.4 -47.3 38.05 -47.75 37.75 -48.25 37.35 -48.7 37.0 -49.15 36.6 -49.55 36.2 -49.95 35.8 -50.35 35.35 -50.7 34.9 -51.05 34.4 -51.4 33.9 -51.7 33.35 -52.1 32.65 -52.45 31.9 -52.75 31.15 -53.0 30.4 -53.2 29.7 -53.35 28.95 -53.5 28.2 -53.55 27.4 -53.6 26.65 -53.6 25.9 -53.6 25.15 -53.5 24.35 -53.4 23.6 -53.25 22.8 -53.1 22.0 -52.9 21.2 -52.05 18.2 -50.5 14.2 -53.35 21.6 -47.8 7.3 -44.35 -1.45 -42.25 -5.55 -41.95 -6.15 -41.6 -6.75 -41.25 -7.35 -40.95 -7.95 -40.6 -8.55 -40.25 -9.15 -39.9 -9.75 -39.55 -10.35 -39.2 -10.95 -38.85 -11.55 -38.45 -12.15 -38.1 -12.75 -37.75 -13.3 -37.35 -13.9 -37.0 -14.45 -36.6 -15.05 -36.15 -15.75 -35.75 -16.3 -35.3 -16.95 -34.9 -17.55 -34.45 -18.2 -34.0 -18.75 -33.5 -19.4 -33.05 -19.95 -32.55 -20.55 -32.05 -21.05 -31.55 -21.65 -31.0 -22.15 -30.45 -22.7 -29.9 -23.15 -29.3 -23.7 -28.7 -24.15 -28.65 -24.2 -28.6 -24.25 -28.55 -24.25 -28.55 -24.3 -28.5 -24.35 -28.5 -24.4 -28.5 -24.45 -28.5 -24.45 -28.5 -24.5 -28.5 -24.55 -28.5 -24.6 -28.5 -24.65 -28.55 -24.65 -28.55 -24.7 -28.6 -24.75 -28.6 -24.8 -28.65 -24.9 -32.15 -31.05 -32.2 -31.15 -32.25 -31.3 -32.3 -31.4 -32.35 -31.5 -32.4 -31.6 -32.4 -31.75 -32.45 -31.85 -32.45 -31.95 -32.45 -32.05 -32.4 -32.15 -32.4 -32.3 -32.35 -32.4 -32.3 -32.5 -32.25 -32.6 -32.2 -32.7 -32.15 -32.85 -32.05 -33.0 -31.9 -33.2 -31.8 -33.35 -31.65 -33.5 -31.55 -33.65 -31.4 -33.8 -31.25 -33.95 -31.1 -34.1 -30.95 -34.2 -30.8 -34.35 -30.65 -34.5 -30.5 -34.6 -30.35 -34.75 -30.2 -34.85 -30.0 -34.95 -29.85 -35.1 -29.7 -35.2 -29.5 -35.25 -29.35 -35.3 -29.15 -35.35 -28.95 -35.35 -28.8 -35.35 -28.6 -35.3 -28.4 -35.25 -28.2 -35.2 -28.05 -35.1 -27.85 -35.05 -27.65 -34.9 -27.5 -34.8 -27.3 -34.65 -27.15 -34.5 -27.0 -34.3 -25.7 -32.75 -22.9 -28.7 -22.9 -28.65 -22.85 -28.6 -22.8 -28.55 -22.8 -28.5 -22.75 -28.45 -22.75 -28.45 -22.7 -28.4 -22.65 -28.35 -22.65 -28.35 -22.6 -28.3 -22.55 -28.3 -22.5 -28.3 -22.45 -28.3 -22.35 -28.35 -22.3 -28.35 -22.2 -28.4 -21.45 -28.8 -20.65 -29.2 -19.85 -29.55 -19.05 -29.9 -18.25 -30.25 -17.4 -30.55 -16.65 -30.85 -15.8 -31.1 -15.0 -31.35 -14.1 -31.65 -13.35 -31.85 -12.45 -32.15 -11.7 -32.35 -10.75 -32.6 -10.85 -32.55 -9.05 -33.05 -6.7 -33.7 0.85 -35.25 1.6 -35.4 2.3 -35.55 3.05 -35.7 3.75 -35.85 4.5 -36.0 5.25 -36.1 6.0 -36.25 6.7 -36.35 7.45 -36.5 8.2 -36.6 8.95 -36.7 9.65 -36.8 10.4 -36.9 11.15 -36.95 11.9 -37.05 12.6 -37.1 14.4 -37.25 16.1 -37.35 17.9 -37.45 19.6 -37.45 21.4 -37.5 23.05 -37.45 24.85 -37.4 26.55 -37.3 28.3 -37.15 30.0 -36.95 31.75 -36.7 33.4 -36.4 35.15 -36.1 36.85 -35.65 38.55 -35.25 40.2 -34.7 40.6 -34.6 42.15 -34.1 43.3 -33.8 44.05 -33.5 44.85 -33.2 45.6 -32.85 46.3 -32.5 46.95 -32.05 47.6 -31.65 48.1 -31.15 48.65 -30.65 49.15 -30.05 49.6 -29.5 49.95 -28.85 50.35 -28.2 50.6 -27.5 50.9 -26.75 51.05 -26.0 51.25 -25.2 51.35 -24.3 51.5 -22.5 52.25 -16.1 52.8 -11.0 53.05 -7.85 53.05 -7.55 53.1 -7.15 53.15 -6.85 53.2 -6.5 53.2 -6.25 53.3 -5.8 53.35 -5.35 53.4 -5.15 53.45 -4.75 53.45 -4.45 53.5 -4.1 53.55 -3.8 53.55 -3.4 53.55 -3.1 53.55 -2.75 53.55 -2.4 53.55 -2.0 53.45 -1.6 53.4 -1.2 53.3 -0.85 53.2 -0.5 53.05 -0.15 52.9 0.15 52.7 0.5 52.5 0.8 52.3 1.1 52.05 1.35 51.8 1.65 51.5 1.9 51.2 2.15 50.9 2.4 50.55 2.6 49.85 3.05 48.15 4.0 46.6 4.85 45.8 5.4 36.0 12.1 30.65 17.05 29.7 17.95 28.7 18.8 27.75 19.6 26.75 20.45 25.75 21.25 24.75 22.05 23.7 22.8 22.65 23.6 21.6 24.35 20.55 25.05 19.5 25.75 18.4 26.45 17.3 27.15 16.2 27.85 15.1 28.5 14.0 29.15 0.65 36.65 -7.9 39.95 -8.9 40.35 -9.85 40.7 -10.85 41.05 -11.85 41.4 -12.85 41.75 -13.85 42.05 -14.85 42.4 -15.85 42.7 -16.85 43.0 -17.85 43.3 -18.85 43.55 -19.85 43.8 -20.9 44.1 -21.9 44.3 -22.95 44.55 -23.95 44.75 -24.25 44.8 -24.6 44.85 -24.9 44.9 -25.2 44.95 -25.5 45.0 -25.85 45.05 -26.15 45.1 -26.45 45.1 -26.8 45.15 -27.1 45.15 -27.4 45.2 -27.75 45.2 -28.05 45.2 -28.4 45.25 -28.7 45.25 -29.0 45.25 L-29.0 45.25 M34.85 -33.1 Q34.05 -33.4 31.8 -33.85 30.9 -34.0 29.9 -34.15 29.0 -34.3 28.05 -34.35 27.1 -34.45 26.15 -34.5 25.25 -34.55 24.25 -34.6 23.35 -34.6 22.4 -34.6 21.5 -34.6 20.5 -34.6 19.65 -34.6 18.6 -34.6 17.95 -34.55 16.7 -34.55 11.95 -34.4 3.15 -32.8 1.9 -32.55 0.75 -32.35 -0.5 -32.1 -1.65 -31.85 -2.85 -31.6 -4.0 -31.35 -5.25 -31.1 -6.4 -30.8 -7.6 -30.5 -8.75 -30.2 -9.95 -29.9 -11.1 -29.55 -12.3 -29.2 -13.4 -28.85 -14.6 -28.5 -15.75 -28.1 -16.9 -27.7 -18.05 -27.25 -19.15 -26.75 -20.25 -26.25 -21.35 -25.7 -22.35 -25.15 -23.4 -24.55 -24.4 -23.85 -25.4 -23.2 -26.35 -22.45 -27.3 -21.75 -28.15 -20.9 -29.05 -20.1 -29.9 -19.2 -30.7 -18.3 -31.5 -17.35 -32.15 -16.5 -32.85 -15.6 -33.45 -14.75 -34.1 -13.8 -34.7 -12.9 -35.3 -12.0 -35.85 -11.05 -36.45 -10.1 -37.0 -9.2 -37.55 -8.2 -38.05 -7.25 -38.6 -6.3 -39.1 -5.35 -39.6 -4.35 -40.05 -3.4 -40.55 -2.35 -44.1 5.05 -49.0 18.4 -49.2 18.9 -49.3 19.25 -49.5 19.75 -49.6 20.15 -49.75 20.6 -49.9 21.0 -50.05 21.5 -50.15 21.9 -50.25 22.35 -50.35 22.8 -50.45 23.25 -50.55 23.7 -50.6 24.2 -50.65 24.65 -50.7 25.1 -50.7 25.55 -50.75 25.95 -50.75 26.35 -50.75 26.75 -50.75 27.2 -50.7 27.55 -50.65 27.95 -50.6 28.35 -50.5 28.75 -50.4 29.1 -50.3 29.5 -50.2 29.85 -50.05 30.25 -49.9 30.6 -49.7 31.0 -49.55 31.35 -49.35 31.7 -49.1 32.15 -48.85 32.55 -48.6 33.0 -48.25 33.35 -47.95 33.75 -47.6 34.1 -47.3 34.45 -46.9 34.75 -46.55 35.1 -46.15 35.4 -45.8 35.65 -45.35 35.95 -44.95 36.2 -44.55 36.45 -44.1 36.7 -43.65 36.95 -43.0 37.3 -39.45 39.05 -36.9 40.3 -35.3 41.2 -35.2 41.25 -35.1 41.3 -35.05 41.35 -34.95 41.35 -34.85 41.4 -34.75 41.45 -34.65 41.5 -34.55 41.5 -34.45 41.55 -34.35 41.6 -34.3 41.6 -34.2 41.65 -34.1 41.65 -34.0 41.7 -33.9 41.7 -33.8 41.75 -33.25 41.9 -32.65 42.05 -32.1 42.15 -31.5 42.25 -30.95 42.3 -30.35 42.35 -29.8 42.4 -29.2 42.4 -28.65 42.4 -28.05 42.4 -27.5 42.35 -26.9 42.3 -26.35 42.25 -25.75 42.15 -25.2 42.1 -24.65 42.0 -23.75 41.85 -22.8 41.6 -21.9 41.4 -21.0 41.2 -20.1 40.95 -19.2 40.7 -18.3 40.45 -17.4 40.2 -16.5 39.95 -15.6 39.65 -14.75 39.35 -13.85 39.05 -13.0 38.75 -12.05 38.45 -11.25 38.15 -10.3 37.8 -8.9 37.3 -7.45 36.7 -6.05 36.15 -4.6 35.5 -3.25 34.9 -1.8 34.25 -0.45 33.6 0.95 32.9 2.25 32.25 3.65 31.55 4.95 30.85 6.4 30.1 7.65 29.4 9.05 28.6 10.3 27.95 11.75 27.1 12.7 26.55 13.6 26.05 14.5 25.5 15.4 25.0 16.3 24.45 17.2 23.9 18.1 23.3 18.95 22.75 19.85 22.15 20.7 21.55 21.55 20.95 22.4 20.3 23.25 19.65 24.05 19.0 24.9 18.35 25.65 17.65 -0.75 40.7 30.1 13.75 32.65 11.45 34.65 10.0 35.3 9.5 36.35 8.75 37.85 7.6 38.0 7.45 38.95 6.75 39.7 6.2 40.6 5.5 41.4 4.95 42.3 4.3 43.1 3.75 44.0 3.15 44.9 2.6 45.8 2.0 46.7 1.5 47.65 0.95 48.55 0.5 48.85 0.35 49.1 0.15 49.4 0.0 49.6 -0.2 49.85 -0.4 50.0 -0.65 50.2 -0.85 50.3 -1.1 50.45 -1.35 50.55 -1.65 50.65 -1.9 50.7 -2.2 50.75 -2.5 50.75 -2.8 50.75 -3.15 50.7 -3.45 50.65 -4.0 50.5 -5.25 50.3 -6.45 50.25 -7.05 50.0 -10.15 49.45 -15.3 48.75 -21.45 48.55 -23.55 48.5 -24.1 48.4 -24.65 48.3 -25.15 48.2 -25.65 48.05 -26.15 47.85 -26.6 47.7 -27.1 47.45 -27.5 47.2 -27.95 46.9 -28.3 46.6 -28.7 46.2 -29.05 45.85 -29.4 45.4 -29.7 44.95 -30.0 44.45 -30.2 43.9 -30.45 43.3 -30.7 42.75 -30.95 42.15 -31.15 41.55 -31.4 40.95 -31.55 40.35 -31.75 39.75 -31.95 39.15 -32.1 38.5 -32.25 37.95 -32.4 37.3 -32.55 36.75 -32.65 36.05 -32.8 35.95 -32.85 34.85 -33.1 L34.85 -33.1 M-25.1 -26.8 Q-25.1 -26.85 -25.15 -26.9 -25.15 -26.95 -25.2 -26.95 -25.2 -27.0 -25.25 -27.05 -27.75 -30.75 -28.7 -31.9 -28.7 -31.9 -28.75 -31.95 -28.7 -31.95 -28.75 -32.0 -28.8 -32.0 -28.8 -32.05 -28.85 -32.05 -28.85 -32.1 -28.85 -32.1 -28.9 -32.1 -28.9 -32.1 -28.95 -32.1 -28.95 -32.1 -29.0 -32.1 -29.05 -32.1 -29.05 -32.1 -29.1 -32.05 -29.15 -32.05 -29.15 -32.0 -29.2 -31.95 -29.2 -31.9 -29.2 -31.9 -29.25 -31.85 -29.25 -31.8 -29.25 -31.75 -29.2 -31.7 -29.2 -31.7 -29.2 -31.65 -29.2 -31.6 -29.15 -31.55 -29.15 -31.55 -29.1 -31.5 -28.15 -29.55 -26.3 -26.45 -26.3 -26.45 -26.25 -26.4 -26.25 -26.4 -26.25 -26.35 -26.2 -26.3 -26.2 -26.25 -26.2 -26.25 -26.15 -26.2 -26.15 -26.2 -26.1 -26.15 -26.1 -26.15 -26.05 -26.15 -26.0 -26.15 -25.95 -26.15 -25.9 -26.2 -25.85 -26.25 -25.15 -26.75 -25.1 -26.8 L-25.1 -26.8" fill="#030303" fill-rule="evenodd" stroke="none"/>
    <path d="M-50.7 25.55 Q-50.65 25.55 -50.55 25.55 -50.5 25.6 -50.45 25.6 -50.4 25.6 -50.35 25.65 -50.3 25.65 -50.2 25.7 -50.15 25.7 -50.1 25.75 -50.05 25.75 -50.0 25.8 -49.95 25.85 -49.9 25.85 -49.85 25.9 -49.8 25.95 -49.15 26.4 -48.4 26.8 -47.75 27.15 -47.0 27.5 -46.3 27.85 -45.55 28.15 -44.85 28.45 -44.05 28.7 -43.35 29.0 -42.55 29.2 -41.8 29.45 -41.05 29.65 -40.3 29.85 -39.5 30.0 -38.75 30.2 -37.9 30.35 -37.6 30.4 -37.35 30.45 -37.05 30.5 -36.75 30.55 -36.5 30.6 -36.2 30.65 -35.9 30.7 -35.65 30.75 -35.35 30.75 -35.05 30.8 -34.8 30.85 -34.5 30.85 -34.2 30.85 -33.95 30.9 -33.65 30.9 -33.35 30.9 -33.05 30.9 -32.75 30.9 -32.45 30.9 -32.2 30.9 -31.9 30.85 -31.6 30.8 -31.3 30.75 -31.05 30.7 -30.75 30.65 -30.5 30.55 -30.2 30.45 -29.95 30.35 -29.65 30.25 -29.4 30.1 -29.1 30.0 -28.85 29.85 -28.8 29.8 -28.75 29.8 -28.7 29.75 -28.65 29.7 -28.6 29.7 -28.55 29.65 -28.5 29.6 -28.45 29.55 -28.4 29.5 -28.4 29.45 -28.35 29.4 -28.3 29.35 -28.3 29.3 -28.3 29.25 -28.25 29.15 -28.25 29.1 -27.9 29.4 -27.5 29.75 -27.1 30.05 -26.65 30.3 -26.25 30.6 -25.85 30.85 -25.4 31.1 -25.05 31.3 -24.65 31.5 -24.25 31.65 -23.9 31.8 -23.6 31.95 -23.25 32.05 -23.0 32.05 -22.75 32.1 -22.55 32.1 -23.75 31.15 -25.55 29.65 -25.95 29.3 -26.3 28.95 -26.6 28.6 -26.9 28.25 -27.2 27.85 -27.45 27.45 -27.7 27.05 -27.9 26.65 -28.1 26.2 -28.25 25.8 -28.45 25.35 -28.55 24.9 -28.7 24.4 -28.75 23.95 -28.85 23.45 -28.9 22.95 -29.05 21.7 -29.15 19.3 -29.25 16.85 -29.35 15.65 -29.45 14.6 -29.5 14.55 -29.55 13.9 -29.6 13.4 -29.7 12.85 -29.8 12.3 -29.9 11.75 -30.05 11.25 -30.15 10.7 -30.35 10.2 -30.55 9.65 -30.75 9.15 -31.0 8.65 -31.3 8.15 -31.6 7.65 -32.0 7.2 -31.85 7.15 -31.7 7.1 -31.6 7.05 -31.45 7.05 -31.35 7.05 -31.2 7.05 -31.1 7.1 -31.0 7.15 -30.9 7.2 -30.8 7.25 -30.7 7.3 -30.6 7.4 -30.55 7.5 -30.45 7.6 -30.4 7.7 -30.3 7.8 -29.8 8.6 -28.75 10.35 -27.75 12.05 -27.2 12.95 -26.95 13.3 -26.75 13.65 -26.5 14.0 -26.25 14.35 -26.0 14.7 -25.75 15.0 -25.5 15.35 -25.25 15.65 -24.95 16.0 -24.7 16.3 -24.4 16.6 -24.1 16.9 -23.8 17.2 -23.5 17.45 -23.2 17.75 -22.85 18.0 -22.45 18.3 -22.05 18.55 -21.65 18.8 -21.25 19.05 -20.85 19.25 -20.4 19.45 -20.0 19.65 -19.55 19.85 -19.15 20.0 -18.7 20.15 -18.25 20.3 -17.8 20.4 -17.35 20.5 -16.85 20.6 -16.4 20.7 -15.95 20.8 -15.35 20.85 -15.1 20.95 -14.85 21.05 -14.6 21.05 -14.35 21.1 -14.1 21.1 -13.85 21.1 -13.6 21.05 -13.4 21.0 -13.15 20.9 -12.95 20.85 -12.7 20.75 -12.5 20.65 -12.25 20.55 -12.15 20.5 -11.85 20.35 -11.55 20.2 -11.4 20.1 -10.6 19.75 -9.75 19.35 -9.0 18.95 -8.15 18.55 -7.4 18.15 -6.55 17.7 -5.8 17.3 -5.0 16.85 -4.25 16.4 -3.45 15.95 -2.7 15.5 -1.9 15.05 -1.15 14.6 -0.35 14.1 0.4 13.65 1.2 13.15 2.2 12.5 3.1 11.9 4.1 11.3 5.05 10.65 6.0 10.05 6.95 9.4 7.9 8.75 8.85 8.1 9.8 7.45 10.7 6.8 11.65 6.1 12.55 5.45 13.5 4.75 14.4 4.1 15.3 3.4 16.2 2.7 17.6 1.55 20.85 -0.85 23.9 -3.15 25.5 -4.45 25.8 -4.7 26.0 -4.9 26.3 -5.1 26.5 -5.3 26.8 -5.55 27.0 -5.75 27.25 -6.0 27.5 -6.25 27.75 -6.5 27.95 -6.7 28.15 -7.0 28.35 -7.25 28.6 -7.5 28.75 -7.75 28.95 -8.05 29.15 -8.35 29.4 -8.75 29.55 -9.15 29.75 -9.55 29.9 -9.95 30.05 -10.35 30.15 -10.75 30.25 -11.15 30.35 -11.6 30.4 -12.0 30.4 -12.45 30.45 -12.85 30.45 -13.3 30.45 -13.75 30.4 -14.15 30.35 -14.6 30.25 -15.05 30.2 -15.45 30.1 -15.85 30.0 -16.2 29.85 -16.6 29.75 -16.95 29.55 -17.3 29.45 -17.65 29.25 -18.05 29.1 -18.35 28.9 -18.7 28.7 -19.05 28.5 -19.4 28.3 -19.7 28.1 -20.05 27.95 -20.3 27.65 -20.75 27.65 -20.75 27.6 -20.8 27.6 -20.85 27.55 -20.9 27.55 -20.95 27.5 -20.95 27.5 -21.0 27.5 -21.05 27.45 -21.05 27.45 -21.1 27.45 -21.15 27.45 -21.2 27.45 -21.25 27.45 -21.3 27.45 -21.35 27.45 -21.35 30.45 -19.55 35.15 -16.35 35.45 -16.15 35.75 -15.9 36.05 -15.65 36.3 -15.4 36.55 -15.1 36.75 -14.85 36.95 -14.55 37.15 -14.25 37.35 -13.95 37.5 -13.6 37.65 -13.3 37.8 -12.95 37.95 -12.6 38.05 -12.25 38.15 -11.9 38.2 -11.55 38.35 -10.75 38.7 -8.5 38.75 -7.95 38.9 -7.05 39.0 -5.95 39.05 -5.55 39.1 -5.6 39.15 -5.65 39.2 -5.7 39.25 -5.75 39.3 -5.8 39.3 -5.85 39.35 -5.9 39.35 -5.95 39.35 -6.0 39.35 -6.05 39.4 -6.1 39.4 -6.15 39.4 -6.2 39.4 -6.25 39.4 -6.3 39.4 -6.35 39.35 -10.3 39.35 -11.25 39.35 -11.65 39.35 -12.0 39.3 -12.35 39.25 -12.75 39.2 -13.1 39.15 -13.45 39.05 -13.8 38.95 -14.15 38.85 -14.5 38.7 -14.8 38.6 -15.15 38.4 -15.45 38.25 -15.8 38.05 -16.1 37.85 -16.4 37.6 -16.7 37.8 -16.8 38.0 -16.95 38.15 -17.05 38.35 -17.2 38.5 -17.35 38.6 -17.55 38.75 -17.7 38.85 -17.9 39.0 -18.05 39.1 -18.25 39.15 -18.4 39.25 -18.65 39.35 -18.8 39.45 -19.0 39.5 -19.15 39.6 -19.4 39.8 -19.95 39.95 -20.45 40.1 -21.0 40.15 -21.5 40.25 -22.05 40.25 -22.55 40.25 -23.1 40.2 -23.6 40.15 -24.1 40.0 -24.6 39.9 -25.1 39.75 -25.65 39.6 -26.15 39.4 -26.65 39.2 -27.15 38.95 -27.65 38.75 -28.0 38.6 -28.3 38.4 -28.65 38.25 -28.95 38.05 -29.25 37.85 -29.55 37.65 -29.85 37.45 -30.15 37.25 -30.45 37.0 -30.75 36.8 -31.0 36.55 -31.25 36.3 -31.55 36.0 -31.8 35.75 -32.05 35.45 -32.25 35.45 -32.25 35.35 -32.3 35.25 -32.35 35.25 -32.4 35.15 -32.45 35.1 -32.5 35.05 -32.55 35.05 -32.55 35.0 -32.6 34.95 -32.7 34.9 -32.75 34.9 -32.8 34.85 -32.85 34.85 -32.95 34.85 -33.0 34.85 -33.1 41.65 -31.6 44.45 -30.2 44.95 -29.95 45.4 -29.65 45.85 -29.4 46.2 -29.05 46.6 -28.7 46.9 -28.3 47.2 -27.95 47.45 -27.5 47.7 -27.1 47.85 -26.6 48.05 -26.15 48.2 -25.65 48.35 -25.15 48.45 -24.6 48.5 -24.1 48.55 -23.55 48.75 -21.5 49.45 -15.3 50.0 -10.15 50.25 -7.05 50.3 -6.45 50.5 -5.25 50.65 -4.05 50.7 -3.45 50.75 -3.1 50.75 -2.8 50.75 -2.5 50.7 -2.2 50.65 -1.9 50.55 -1.65 50.45 -1.35 50.3 -1.1 50.2 -0.85 50.0 -0.65 49.85 -0.4 49.6 -0.2 49.4 0.0 49.15 0.15 48.85 0.35 48.55 0.5 47.65 0.95 46.7 1.5 45.8 2.0 44.9 2.6 44.0 3.1 43.1 3.75 42.3 4.3 41.4 4.95 40.6 5.5 39.7 6.2 38.95 6.7 38.0 7.45 38.2 7.3 36.3 8.7 35.3 9.5 34.65 10.0 32.65 11.45 30.1 13.75 76.3 -26.65 25.65 17.65 24.85 18.35 24.05 19.0 23.25 19.65 22.4 20.3 21.55 20.95 20.7 21.55 19.85 22.15 18.95 22.75 18.1 23.3 17.2 23.9 16.3 24.45 15.4 25.0 14.5 25.5 13.55 26.05 12.7 26.6 11.75 27.1 10.3 27.9 9.05 28.6 7.65 29.4 6.4 30.1 4.95 30.85 3.65 31.55 2.25 32.25 0.95 32.9 -0.45 33.6 -1.85 34.25 -3.25 34.9 -4.6 35.5 -6.05 36.15 -7.45 36.7 -8.9 37.3 -10.3 37.8 -11.25 38.15 -12.05 38.45 -13.0 38.75 -13.85 39.05 -14.75 39.35 -15.6 39.65 -16.5 39.95 -17.4 40.2 -18.3 40.45 -19.15 40.7 -20.1 40.95 -21.0 41.2 -21.9 41.4 -22.8 41.6 -23.7 41.8 -24.65 42.0 -25.25 42.1 -25.8 42.2 -26.35 42.25 -26.95 42.3 -27.5 42.35 -28.1 42.4 -28.65 42.4 -29.2 42.4 -29.8 42.4 -30.35 42.35 -30.95 42.3 -31.5 42.25 -32.1 42.15 -32.65 42.05 -33.25 41.9 -33.8 41.75 -33.95 41.7 -34.0 41.7 -34.1 41.65 -34.2 41.65 -34.3 41.6 -34.35 41.6 -34.45 41.55 -34.55 41.5 -34.65 41.5 -34.75 41.45 -34.85 41.4 -34.95 41.35 -35.05 41.35 -35.1 41.3 -35.2 41.25 -35.3 41.2 -36.9 40.3 -39.45 39.05 -42.9 37.35 -43.65 36.95 -44.1 36.7 -44.5 36.45 -44.95 36.2 -45.35 35.95 -45.8 35.65 -46.15 35.4 -46.55 35.1 -46.9 34.75 -47.3 34.45 -47.65 34.1 -47.95 33.75 -48.25 33.35 -48.6 33.0 -48.85 32.55 -49.15 32.15 -49.35 31.7 -49.55 31.35 -49.7 31.0 -49.9 30.6 -50.0 30.25 -50.15 29.85 -50.3 29.5 -50.4 29.1 -50.5 28.75 -50.6 28.35 -50.65 27.95 -50.7 27.55 -50.75 27.2 -50.75 26.8 -50.75 26.4 -50.75 25.95 -50.7 25.55 L-50.7 25.55" fill="#000000" fill-opacity="0.21960784" fill-rule="evenodd" stroke="none"/>
    <path d="M-32.0 7.2 Q-31.6 7.65 -31.3 8.15 -31.0 8.6 -30.75 9.15 -30.55 9.65 -30.35 10.15 -30.15 10.7 -30.05 11.25 -29.9 11.75 -29.8 12.3 -29.7 12.85 -29.6 13.45 -29.55 13.9 -29.5 14.55 -29.45 14.7 -29.35 15.65 -29.25 16.85 -29.15 19.3 -29.05 21.7 -28.9 22.95 -28.85 23.45 -28.75 23.95 -28.65 24.4 -28.55 24.85 -28.45 25.35 -28.25 25.8 -28.1 26.2 -27.9 26.65 -27.7 27.05 -27.45 27.45 -27.2 27.85 -26.95 28.25 -26.65 28.6 -26.3 28.95 -25.95 29.3 -25.55 29.65 -23.85 31.1 -22.55 32.1 -22.75 32.15 -23.0 32.1 -23.25 32.05 -23.6 31.95 -23.9 31.85 -24.25 31.65 -24.65 31.5 -25.05 31.3 -25.45 31.1 -25.85 30.85 -26.25 30.6 -26.65 30.3 -27.1 30.0 -27.5 29.7 -27.9 29.4 -28.25 29.1 -28.65 28.65 -29.0 28.2 -29.4 27.75 -29.7 27.3 -30.0 26.8 -30.25 26.35 -30.5 25.85 -30.7 25.35 -30.9 24.8 -31.05 24.3 -31.15 23.75 -31.25 23.2 -31.35 22.65 -31.35 22.05 -31.4 21.5 -31.35 20.9 -31.3 20.1 -31.3 19.25 -31.3 18.45 -31.3 17.65 -31.35 16.85 -31.35 16.0 -31.4 15.2 -31.45 14.4 -31.55 13.6 -31.6 12.8 -31.7 12.0 -31.8 11.15 -31.95 10.35 -32.05 9.55 -32.2 8.75 -32.35 7.95 -32.35 7.75 -32.6 6.95 -32.55 6.9 -32.5 6.9 -32.45 6.9 -32.4 6.9 -32.35 6.95 -32.3 6.95 -32.25 6.95 -32.25 7.0 -32.2 7.0 -32.2 7.05 -32.15 7.1 -32.1 7.1 -32.1 7.15 -32.05 7.2 -32.0 7.2 -32.0 7.2 L-32.0 7.2" fill="#030303" fill-rule="evenodd" stroke="none"/>
    <path d="M37.6 -16.7 Q37.85 -16.4 38.05 -16.1 38.25 -15.8 38.4 -15.45 38.6 -15.15 38.7 -14.8 38.85 -14.5 38.95 -14.15 39.05 -13.8 39.15 -13.45 39.2 -13.1 39.25 -12.75 39.3 -12.4 39.35 -12.0 39.35 -11.65 39.35 -11.25 39.4 -7.9 39.4 -6.35 39.4 -6.3 39.4 -6.25 39.4 -6.2 39.4 -6.15 39.4 -6.1 39.4 -6.05 39.35 -6.0 39.35 -5.95 39.35 -5.9 39.3 -5.85 39.3 -5.8 39.25 -5.75 39.2 -5.7 39.2 -5.65 39.15 -5.6 39.05 -5.55 38.85 -7.35 38.7 -8.5 38.3 -11.0 38.2 -11.55 38.15 -11.9 38.05 -12.25 37.9 -12.65 37.8 -12.95 37.65 -13.3 37.5 -13.6 37.35 -13.95 37.15 -14.25 36.95 -14.55 36.75 -14.85 36.55 -15.1 36.3 -15.35 36.05 -15.65 35.75 -15.85 35.45 -16.1 35.15 -16.35 30.15 -19.7 27.45 -21.35 27.0 -21.8 25.95 -22.7 26.05 -22.7 26.2 -22.7 26.3 -22.7 26.4 -22.7 26.55 -22.7 26.65 -22.7 26.75 -22.7 26.85 -22.65 26.95 -22.65 27.05 -22.65 27.1 -22.6 27.2 -22.55 27.3 -22.55 27.4 -22.5 27.5 -22.5 27.55 -22.45 32.35 -20.3 35.05 -18.75 35.25 -18.65 35.4 -18.55 35.6 -18.4 35.75 -18.3 35.9 -18.2 36.1 -18.1 36.25 -17.95 36.4 -17.85 36.6 -17.7 36.75 -17.55 36.9 -17.45 37.05 -17.3 37.2 -17.15 37.35 -17.0 37.5 -16.85 37.6 -16.7 L37.6 -16.7" fill="#030303" fill-rule="evenodd" stroke="none"/>
  </g>
</svg>
