<?xml version="1.0" encoding="UTF-8" standalone="no"?>
<svg xmlns:xlink="http://www.w3.org/1999/xlink" height="300.0px" width="300.0px" xmlns="http://www.w3.org/2000/svg">
  <g transform="matrix(1.0, 0.0, 0.0, 1.0, 150.0, 150.0)">
    <path d="M-137.65 -72.25 Q-137.7 -72.3 -137.75 -72.35 -137.65 -72.4 -137.6 -72.35 -137.6 -72.3 -137.6 -72.3 -137.65 -72.3 -137.65 -72.25 L-137.65 -72.25" fill="#dcc3ae" fill-rule="evenodd" stroke="none"/>
    <path d="M65.9 -20.35 Q65.8 -20.3 65.65 -20.2 65.5 -20.1 65.3 -20.0 65.1 -19.85 64.85 -19.75 64.6 -19.55 64.3 -19.4 64.05 -19.2 63.75 -19.0 63.45 -18.75 63.15 -18.55 62.85 -18.3 62.55 -18.1 62.25 -17.8 62.0 -17.6 61.9 -17.5 61.75 -17.35 61.65 -17.25 61.55 -17.15 61.45 -17.05 61.35 -16.9 61.25 -16.8 61.2 -16.7 61.1 -16.6 61.05 -16.55 60.95 -16.45 60.9 -16.35 60.85 -16.25 60.8 -16.2 60.7 -16.1 60.65 -16.05 60.5 -15.8 60.35 -15.5 60.1 -15.0 60.1 -14.95 60.0 -14.8 59.95 -14.65 59.9 -14.5 59.9 -14.4 59.85 -14.25 59.85 -14.1 59.85 -13.95 59.85 -13.8 59.85 -13.65 59.85 -13.5 59.9 -13.35 59.95 -13.25 60.0 -13.1 60.05 -12.95 60.1 -12.8 60.15 -12.65 61.2 -10.6 61.7 -9.35 61.8 -9.05 61.95 -8.75 62.05 -8.4 62.15 -8.1 62.25 -7.8 62.35 -7.45 62.45 -7.15 62.55 -6.85 62.6 -6.5 62.7 -6.2 62.8 -5.85 62.85 -5.55 62.95 -5.2 63.0 -4.9 63.1 -4.55 63.15 -4.25 63.15 -4.2 63.15 -4.2 63.15 -4.15 63.15 -4.1 63.15 -4.1 63.15 -4.05 63.15 -4.05 63.15 -4.0 63.15 -3.95 63.1 -3.95 63.1 -3.95 63.1 -3.9 63.1 -3.9 63.05 -3.85 63.05 -3.85 63.0 -3.8 62.6 -3.35 62.25 -2.95 61.85 -2.55 61.4 -2.2 61.0 -1.8 60.6 -1.5 60.15 -1.15 59.7 -0.8 59.25 -0.5 58.8 -0.25 58.3 0.05 57.85 0.3 57.35 0.55 56.85 0.75 56.35 1.0 55.8 1.15 55.6 1.25 55.35 1.3 55.15 1.35 54.9 1.45 54.65 1.5 54.45 1.55 54.2 1.6 54.0 1.65 53.75 1.7 53.5 1.75 53.3 1.75 53.05 1.8 52.8 1.8 52.6 1.85 52.35 1.85 52.1 1.9 51.5 1.95 50.9 1.9 50.3 1.9 49.7 1.85 49.15 1.8 48.55 1.7 47.95 1.6 47.4 1.5 46.8 1.35 46.25 1.2 45.65 1.0 45.1 0.8 44.55 0.6 43.95 0.4 43.4 0.15 42.85 -0.1 42.2 -0.4 41.55 -0.7 40.9 -1.0 40.3 -1.35 39.65 -1.7 39.05 -2.1 38.45 -2.45 37.8 -2.85 37.2 -3.25 36.6 -3.65 36.05 -4.05 35.45 -4.5 34.9 -4.9 34.3 -5.4 33.75 -5.85 33.15 -6.3 32.85 -6.55 32.6 -6.8 32.3 -7.05 32.0 -7.3 31.75 -7.55 31.45 -7.85 31.2 -8.1 30.9 -8.35 30.65 -8.65 30.4 -8.9 30.1 -9.2 29.85 -9.45 29.6 -9.75 29.3 -10.05 29.05 -10.3 28.8 -10.6 28.65 -10.75 28.5 -10.95 28.35 -11.1 28.2 -11.3 28.05 -11.45 27.9 -11.65 27.8 -11.85 27.65 -12.0 27.5 -12.2 27.35 -12.35 27.2 -12.55 27.05 -12.75 26.95 -12.9 26.8 -13.1 26.65 -13.3 26.55 -13.45 26.45 -13.55 26.1 -14.25 26.1 -14.3 26.1 -14.3 26.05 -14.35 26.05 -14.35 26.05 -14.4 26.05 -14.45 26.05 -14.45 26.05 -14.5 26.05 -14.5 26.05 -14.55 26.1 -14.55 26.1 -14.6 26.1 -14.65 26.1 -14.65 26.15 -14.7 26.15 -14.7 26.25 -14.95 26.4 -15.15 26.55 -15.4 26.75 -15.55 26.9 -15.75 27.05 -15.9 27.25 -16.05 27.45 -16.2 27.65 -16.35 27.85 -16.45 28.05 -16.55 28.3 -16.6 28.5 -16.7 28.75 -16.75 28.95 -16.8 29.2 -16.85 29.45 -16.9 29.7 -16.9 29.9 -16.95 30.15 -16.95 30.4 -16.95 30.6 -16.9 30.85 -16.9 31.1 -16.9 31.3 -16.85 31.55 -16.8 31.75 -16.8 32.0 -16.75 32.2 -16.7 32.45 -16.65 32.65 -16.6 32.9 -16.55 33.35 -16.45 34.85 -16.5 35.15 -16.55 35.15 -16.55 35.9 -16.55 37.05 -16.6 38.85 -16.65 39.0 -16.65 39.2 -16.65 41.0 -16.75 42.2 -16.8 42.95 -16.8 43.3 -16.8 43.6 -16.85 43.95 -16.85 44.25 -16.9 44.55 -17.0 44.9 -17.05 45.15 -17.15 45.5 -17.25 45.75 -17.35 46.1 -17.5 46.35 -17.6 46.7 -17.75 46.9 -17.85 47.25 -18.05 47.7 -18.2 47.85 -18.3 48.05 -18.4 48.25 -18.5 48.45 -18.6 48.65 -18.7 48.9 -18.8 49.05 -18.9 49.3 -19.0 49.45 -19.1 49.65 -19.25 49.85 -19.35 50.05 -19.5 50.25 -19.6 50.45 -19.75 50.65 -19.85 50.8 -20.0 51.0 -20.15 51.1 -20.25 51.35 -20.45 51.6 -20.65 51.75 -20.75 51.8 -20.8 51.85 -20.8 51.85 -20.85 51.9 -20.85 51.9 -20.9 51.9 -20.9 51.95 -20.95 51.95 -20.95 51.9 -21.0 51.9 -21.0 51.9 -21.05 51.85 -21.05 51.85 -21.1 51.8 -21.15 51.8 -21.15 51.75 -21.2 51.55 -21.35 51.4 -21.5 51.2 -21.65 51.0 -21.75 50.8 -21.9 50.6 -22.0 50.45 -22.1 50.25 -22.25 50.05 -22.35 49.8 -22.45 49.6 -22.55 49.4 -22.6 49.2 -22.7 49.0 -22.8 48.8 -22.85 48.55 -22.95 48.15 -23.1 47.7 -23.2 47.3 -23.3 46.85 -23.35 46.45 -23.45 46.0 -23.5 45.6 -23.55 45.15 -23.6 44.75 -23.6 44.3 -23.65 43.9 -23.65 43.45 -23.65 43.05 -23.65 42.6 -23.65 42.2 -23.6 41.75 -23.6 41.2 -23.55 40.6 -23.5 40.05 -23.45 39.5 -23.4 38.95 -23.35 38.35 -23.25 37.8 -23.15 37.25 -23.05 36.7 -22.95 36.15 -22.85 35.6 -22.75 35.05 -22.6 34.5 -22.5 33.95 -22.35 33.4 -22.25 32.85 -22.1 29.95 -21.35 27.6 -20.55 27.55 -20.55 27.5 -20.55 27.45 -20.5 27.4 -20.55 27.35 -20.55 27.35 -20.55 27.35 -20.6 27.35 -20.65 27.35 -20.7 27.35 -20.8 27.5 -21.4 27.6 -21.95 27.75 -22.5 27.9 -23.05 28.05 -23.6 28.2 -24.15 28.35 -24.7 28.55 -25.25 28.7 -25.8 28.9 -26.35 29.1 -26.9 29.3 -27.4 29.55 -27.95 29.75 -28.45 30.0 -29.0 30.25 -29.5 30.45 -29.95 30.45 -30.0 30.2 -29.8 29.9 -29.65 29.65 -29.45 29.4 -29.25 29.1 -29.05 28.8 -28.9 28.55 -28.7 28.25 -28.5 27.95 -28.3 27.7 -28.15 27.4 -27.95 27.1 -27.75 26.8 -27.55 26.5 -27.35 26.2 -27.2 25.9 -27.0 25.6 -26.8 25.35 -26.65 25.05 -26.45 24.75 -26.3 24.5 -26.15 24.2 -25.95 23.9 -25.8 23.65 -25.65 23.35 -25.45 23.05 -25.3 22.8 -25.15 22.5 -25.0 22.25 -24.85 21.95 -24.7 21.7 -24.55 21.45 -24.4 21.75 -24.0 22.05 -23.55 22.3 -23.1 22.55 -22.7 22.75 -22.3 22.95 -21.9 23.1 -21.5 23.25 -21.15 23.4 -20.8 23.5 -20.45 23.6 -20.1 23.65 -19.8 23.75 -19.5 23.8 -19.25 23.85 -19.0 23.9 -18.75 23.9 -18.55 23.95 -18.35 23.95 -18.15 23.95 -17.9 24.0 -17.65 24.0 -17.4 24.0 -17.1 24.0 -16.8 24.0 -16.5 23.95 -16.15 23.95 -15.8 23.9 -15.45 23.9 -15.1 23.85 -14.75 23.8 -14.35 23.7 -13.95 23.65 -13.6 23.6 -13.3 23.55 -12.95 23.45 -12.65 23.4 -12.3 23.3 -12.0 23.25 -11.65 23.15 -11.35 23.05 -11.0 22.95 -10.7 22.85 -10.35 22.75 -10.05 22.65 -9.75 22.5 -9.45 22.4 -9.15 22.25 -8.85 22.25 -8.8 22.2 -8.75 22.2 -8.75 22.2 -8.7 22.2 -8.65 22.2 -8.65 22.2 -8.6 22.25 -8.55 22.25 -8.55 22.3 -8.5 22.3 -8.5 22.3 -8.45 22.35 -8.45 22.35 -8.4 22.7 -7.95 23.05 -7.55 23.4 -7.15 23.8 -6.75 24.15 -6.35 24.55 -5.95 24.9 -5.55 25.3 -5.15 25.7 -4.8 26.1 -4.4 26.5 -4.05 26.95 -3.7 27.35 -3.35 27.8 -3.0 28.25 -2.65 28.7 -2.35 29.3 -1.9 30.0 -1.5 30.6 -1.05 31.3 -0.65 31.95 -0.3 32.6 0.1 33.3 0.45 34.0 0.8 34.65 1.15 35.35 1.45 36.05 1.75 36.75 2.1 37.45 2.4 38.15 2.65 38.85 2.95 39.6 3.25 40.25 3.5 40.9 3.7 41.55 3.95 42.2 4.15 42.85 4.35 43.5 4.55 44.15 4.75 44.8 4.9 45.45 5.1 46.15 5.25 46.8 5.4 47.45 5.55 48.15 5.65 48.8 5.8 49.5 5.9 50.15 6.05 50.7 6.15 51.1 6.2 51.6 6.25 52.0 6.3 52.5 6.4 52.95 6.45 53.45 6.5 53.9 6.55 54.4 6.55 54.85 6.6 55.35 6.65 55.8 6.65 56.25 6.65 56.75 6.65 57.2 6.65 57.7 6.65 58.05 6.65 58.4 6.6 58.75 6.55 59.05 6.55 59.4 6.5 59.75 6.45 60.1 6.35 60.4 6.3 60.75 6.2 61.1 6.1 61.4 6.0 61.75 5.9 62.05 5.8 62.4 5.65 62.7 5.5 63.05 5.35 63.25 5.25 63.45 5.15 63.65 5.0 63.8 4.9 64.0 4.75 64.2 4.65 64.35 4.5 64.55 4.4 64.7 4.25 64.85 4.1 65.05 3.95 65.2 3.8 65.35 3.65 65.5 3.5 65.65 3.35 65.8 3.2 66.65 2.15 66.1 2.85 66.3 2.65 66.45 2.45 66.65 2.15 66.8 1.9 67.0 1.65 67.15 1.35 67.35 1.0 67.5 0.7 67.65 0.35 67.75 0.0 67.9 -0.4 67.9 -0.8 68.0 -1.2 67.95 -1.6 67.95 -1.75 67.9 -1.85 67.9 -1.95 67.85 -2.1 67.7 -2.5 67.75 -2.4 67.65 -2.65 67.55 -2.95 67.4 -3.4 67.3 -3.95 67.2 -4.3 67.15 -4.6 67.05 -4.85 67.0 -5.15 66.95 -5.35 66.9 -5.55 66.85 -5.7 66.8 -5.95 66.75 -6.15 66.75 -6.25 66.7 -6.45 66.65 -6.6 66.65 -6.75 66.6 -6.9 66.55 -7.1 66.45 -7.25 66.4 -7.45 66.3 -7.65 66.25 -7.8 66.2 -7.95 66.15 -8.1 66.05 -8.2 66.0 -8.3 65.95 -8.45 63.55 -12.6 65.75 -8.75 65.65 -8.95 65.55 -9.15 65.4 -9.35 65.3 -9.6 65.15 -9.9 65.0 -10.25 64.8 -10.7 64.65 -10.95 64.5 -11.25 64.4 -11.55 64.25 -11.85 64.15 -12.05 64.05 -12.35 63.95 -12.55 63.9 -12.8 63.85 -13.0 63.8 -13.2 63.75 -13.4 63.7 -13.6 63.7 -13.8 63.7 -14.0 63.7 -14.15 63.7 -14.3 63.75 -14.45 63.8 -14.6 63.8 -14.7 63.85 -14.85 63.9 -14.95 63.95 -15.1 64.05 -15.2 64.1 -15.3 64.2 -15.5 64.3 -15.7 64.35 -15.8 64.45 -16.05 64.55 -16.2 64.65 -16.45 64.75 -16.7 64.85 -16.95 65.0 -17.25 65.1 -17.5 65.15 -17.75 65.25 -18.0 65.35 -18.25 65.45 -18.5 65.5 -18.75 65.55 -18.95 65.65 -19.2 65.7 -19.4 65.75 -19.6 65.8 -19.8 65.8 -20.0 65.85 -20.2 65.9 -20.35 L65.9 -20.35" fill="#000000" fill-opacity="0.14901961" fill-rule="evenodd" stroke="none"/>
    <path d="M-125.5 3.15 Q-125.45 3.1 -125.4 3.0 -125.35 2.95 -125.25 2.9 -125.2 2.9 -125.15 2.85 -125.05 2.8 -125.0 2.8 -124.95 2.75 -124.85 2.75 -124.8 2.75 -124.7 2.7 -124.6 2.7 -124.55 2.7 -124.45 2.7 -124.35 2.7 -123.95 2.7 -123.55 2.7 -123.15 2.7 -122.75 2.7 -122.35 2.7 -121.95 2.65 -121.55 2.65 -121.15 2.6 -120.8 2.6 -120.35 2.55 -120.2 2.5 -119.55 2.45 -119.05 2.4 -118.7 2.4 -118.3 2.35 -117.9 2.3 -116.9 2.25 -114.6 2.05 -112.45 1.85 -111.3 1.75 -110.75 1.7 -110.2 1.65 -109.7 1.6 -109.15 1.55 -108.6 1.5 -108.05 1.4 -107.5 1.35 -106.95 1.25 -106.45 1.15 -105.9 1.05 -105.4 0.95 -104.85 0.85 -104.3 0.75 -103.75 0.65 -103.25 0.55 -102.7 0.4 -101.6 0.15 -100.45 -0.1 -99.35 -0.4 -98.2 -0.7 -97.1 -0.95 -96.0 -1.3 -94.9 -1.6 -93.8 -1.95 -92.7 -2.25 -91.6 -2.65 -90.5 -2.95 -89.4 -3.35 -88.3 -3.7 -87.2 -4.1 -86.15 -4.5 -85.05 -4.9 -84.25 -5.2 -83.4 -5.45 -82.55 -5.75 -81.75 -6.0 -80.9 -6.25 -80.05 -6.5 -79.2 -6.7 -78.35 -6.95 -77.55 -7.15 -76.7 -7.35 -75.85 -7.55 -74.95 -7.7 -74.1 -7.9 -73.25 -8.05 -72.4 -8.2 -71.55 -8.3 -71.2 -8.35 -70.9 -8.4 -70.55 -8.45 -70.2 -8.5 -69.85 -8.55 -69.55 -8.6 -69.2 -8.65 -68.85 -8.65 -68.5 -8.7 -68.2 -8.75 -67.85 -8.8 -67.5 -8.8 -67.2 -8.85 -66.85 -8.85 -66.5 -8.9 -66.15 -8.9 -66.1 -8.9 -66.1 -8.9 -66.05 -8.9 -66.05 -8.9 -66.0 -8.9 -66.0 -8.95 -65.95 -8.95 -65.95 -8.95 -65.95 -8.95 -65.9 -9.0 -65.9 -9.0 -65.85 -9.0 -65.85 -9.05 -65.85 -9.05 -65.8 -9.1 -65.8 -9.15 -65.4 -10.05 -64.8 -10.75 -64.25 -11.4 -63.55 -11.95 -62.9 -12.45 -62.15 -12.75 -61.4 -13.05 -60.6 -13.2 -59.8 -13.35 -59.0 -13.3 -58.2 -13.25 -57.45 -13.05 -56.65 -12.85 -56.0 -12.45 -55.25 -12.05 -54.7 -11.55 -54.65 -11.5 -54.5 -11.4 -54.4 -12.0 -54.25 -12.55 -54.1 -13.1 -53.9 -13.6 -53.7 -14.05 -53.4 -14.5 -53.15 -14.95 -52.8 -15.35 -52.5 -15.75 -52.1 -16.05 -51.7 -16.4 -51.25 -16.65 -50.8 -16.9 -50.25 -17.15 -49.75 -17.35 -49.15 -17.5 -48.6 -17.65 -48.1 -17.7 -47.55 -17.75 -47.05 -17.7 -46.55 -17.7 -46.05 -17.6 -45.6 -17.5 -45.1 -17.3 -44.65 -17.15 -44.2 -16.9 -43.8 -16.65 -43.35 -16.35 -42.95 -16.05 -42.55 -15.65 -42.2 -15.3 -41.8 -14.85 -41.7 -15.15 -41.6 -15.4 -41.5 -15.65 -41.35 -15.9 -41.25 -16.15 -41.1 -16.4 -40.95 -16.65 -40.75 -16.85 -40.6 -17.1 -40.4 -17.3 -40.25 -17.5 -40.05 -17.7 -39.85 -17.9 -39.6 -18.1 -39.4 -18.3 -39.15 -18.45 -38.9 -18.6 -38.65 -18.75 -38.45 -18.9 -38.15 -19.05 -37.9 -19.15 -37.65 -19.25 -37.4 -19.35 -37.15 -19.45 -36.85 -19.5 -36.6 -19.6 -36.3 -19.65 -36.0 -19.65 -35.75 -19.7 -35.45 -19.7 -35.15 -19.75 -34.85 -19.7 -35.05 -20.15 -35.35 -20.75 -35.8 -21.65 -35.85 -21.8 -37.8 -25.8 -37.9 -26.05 -38.05 -26.45 -38.15 -26.8 -38.3 -27.2 -38.35 -27.6 -38.45 -28.0 -38.5 -28.35 -38.55 -28.75 -38.55 -29.15 -38.55 -29.55 -38.5 -29.9 -38.5 -30.3 -38.4 -30.7 -38.35 -31.05 -38.2 -31.45 -38.1 -31.85 -37.95 -32.25 -37.85 -32.4 -37.8 -32.6 -37.7 -32.75 -37.6 -32.9 -37.5 -33.05 -37.4 -33.2 -37.3 -33.35 -37.2 -33.5 -37.1 -33.65 -37.0 -33.8 -36.9 -33.95 -36.8 -34.1 -36.65 -34.25 -36.55 -34.4 -36.45 -34.5 -36.3 -34.65 -36.1 -34.9 -35.85 -35.1 -35.65 -35.35 -35.4 -35.55 -35.15 -35.7 -34.9 -35.9 -34.65 -36.05 -34.35 -36.2 -34.1 -36.3 -33.85 -36.45 -33.55 -36.55 -33.25 -36.7 -33.05 -36.8 -32.7 -36.95 -32.05 -37.2 -32.15 -37.15 -31.6 -37.35 -31.05 -37.55 -30.5 -37.75 -29.9 -37.9 -29.35 -38.1 -28.8 -38.2 -28.2 -38.35 -27.65 -38.45 -27.05 -38.6 -26.5 -38.7 -25.9 -38.75 -25.3 -38.85 -24.75 -38.9 -24.15 -38.95 -23.6 -39.0 -23.0 -39.05 -20.3 -39.25 -15.3 -38.8 -14.35 -38.7 -13.4 -38.55 -12.45 -38.4 -11.5 -38.2 -10.55 -38.0 -9.65 -37.8 -8.7 -37.55 -7.8 -37.25 -6.9 -37.0 -6.0 -36.65 -5.1 -36.35 -4.2 -36.0 -3.3 -35.65 -2.4 -35.25 -1.55 -34.9 -0.65 -34.45 -0.05 -34.15 0.55 -33.85 1.15 -33.55 1.75 -33.25 2.3 -32.9 2.9 -32.55 3.45 -32.25 4.05 -31.9 4.6 -31.55 5.15 -31.15 5.7 -30.8 6.25 -30.4 6.8 -30.05 7.35 -29.6 7.85 -29.25 8.45 -28.85 8.55 -28.7 8.75 -28.55 9.35 -27.95 10.6 -26.65 11.85 -25.45 12.5 -24.8 12.55 -24.75 12.6 -24.7 12.65 -24.65 12.7 -24.65 12.75 -24.65 12.8 -24.65 12.8 -24.65 12.85 -24.7 12.9 -24.75 12.95 -24.8 13.05 -24.9 13.15 -25.0 13.25 -25.1 13.35 -25.2 13.45 -25.3 13.6 -25.35 13.7 -25.45 13.85 -25.5 13.95 -25.6 14.1 -25.65 14.2 -25.7 14.35 -25.75 14.2 -25.7 14.6 -25.9 14.75 -25.95 14.85 -26.0 14.9 -26.0 14.9 -26.05 14.95 -26.05 15.0 -26.05 15.0 -26.05 15.05 -26.05 15.1 -26.05 15.1 -26.05 15.15 -26.05 15.15 -26.05 15.2 -26.05 15.25 -26.05 15.25 -26.05 15.3 -26.05 15.35 -26.05 15.35 -26.05 15.6 -26.05 16.6 -26.0 17.35 -26.0 17.85 -26.0 17.95 -26.0 18.1 -26.0 18.2 -26.0 18.3 -25.95 18.4 -25.95 18.5 -25.9 18.6 -25.9 18.7 -25.85 18.8 -25.8 18.9 -25.75 19.0 -25.75 19.1 -25.7 19.25 -25.6 19.3 -25.6 19.45 -25.55 19.5 -25.5 19.6 -25.45 19.65 -25.45 19.75 -25.4 19.8 -25.35 19.85 -25.35 20.0 -25.3 20.1 -25.25 20.15 -25.2 20.2 -25.15 20.3 -25.15 20.35 -25.1 20.45 -25.1 20.5 -25.05 20.6 -25.05 20.65 -25.05 20.75 -25.05 20.8 -25.05 20.9 -25.1 20.95 -25.1 21.0 -25.15 21.1 -25.2 21.15 -25.25 21.2 -25.3 21.25 -25.35 21.3 -25.4 21.4 -25.45 21.95 -26.1 21.5 -25.6 21.6 -25.7 21.65 -25.75 21.7 -25.8 21.75 -25.85 22.2 -26.2 22.65 -26.55 23.1 -26.9 23.6 -27.25 24.05 -27.6 24.55 -27.9 25.0 -28.25 25.5 -28.55 26.0 -28.85 26.5 -29.15 26.95 -29.4 27.5 -29.7 28.0 -30.0 28.5 -30.25 29.0 -30.5 29.55 -30.8 30.2 -31.1 30.8 -31.4 31.45 -31.75 32.1 -32.0 32.75 -32.3 33.4 -32.55 34.1 -32.8 34.75 -33.05 35.4 -33.3 36.1 -33.5 36.75 -33.75 37.45 -33.95 38.1 -34.15 38.8 -34.3 39.5 -34.5 40.2 -34.65 40.8 -34.8 41.45 -34.9 42.05 -35.0 42.65 -35.1 43.3 -35.2 43.9 -35.3 44.5 -35.35 45.15 -35.45 45.75 -35.5 46.4 -35.55 47.0 -35.6 47.6 -35.65 48.25 -35.7 48.85 -35.7 49.5 -35.7 50.15 -35.75 53.9 -35.75 55.95 -35.5 56.45 -35.45 56.9 -35.35 57.4 -35.3 57.9 -35.2 58.35 -35.1 58.8 -35.0 59.3 -34.9 59.75 -34.75 60.2 -34.6 60.65 -34.45 61.1 -34.25 61.55 -34.05 62.0 -33.85 62.4 -33.6 62.8 -33.35 63.25 -33.1 63.55 -32.9 63.85 -32.65 64.15 -32.4 64.4 -32.15 64.7 -31.85 64.95 -31.6 65.2 -31.3 65.4 -31.0 65.6 -30.7 65.8 -30.4 66.0 -30.05 66.15 -29.75 66.3 -29.4 66.45 -29.05 66.6 -28.7 66.7 -28.3 66.9 -27.55 67.05 -26.8 67.15 -26.05 67.25 -25.35 67.3 -24.6 67.3 -23.85 67.3 -23.15 67.25 -22.4 67.15 -21.7 67.05 -20.95 66.9 -20.25 66.7 -19.5 66.5 -18.8 66.25 -18.1 66.0 -17.4 65.65 -16.7 65.6 -16.55 65.5 -16.35 65.45 -16.2 65.35 -16.05 65.3 -15.9 65.2 -15.75 65.15 -15.55 65.05 -15.4 65.0 -15.25 64.9 -15.1 64.8 -14.95 64.75 -14.8 64.65 -14.65 64.55 -14.5 64.45 -14.35 64.35 -14.2 64.35 -14.15 64.3 -14.15 64.3 -14.1 64.3 -14.05 64.3 -14.05 64.3 -14.0 64.3 -13.95 64.3 -13.95 64.3 -13.9 64.3 -13.9 64.3 -13.85 64.3 -13.8 64.3 -13.8 64.35 -13.75 64.35 -13.75 64.35 -13.7 65.2 -11.95 65.85 -10.45 65.85 -10.4 65.9 -10.35 65.9 -10.35 65.9 -10.3 65.95 -10.3 65.95 -10.25 66.0 -10.25 66.0 -10.2 66.05 -10.2 66.05 -10.2 66.1 -10.2 66.15 -10.2 66.15 -10.2 66.2 -10.2 66.25 -10.2 66.3 -10.2 66.65 -10.25 67.0 -10.25 67.4 -10.3 67.75 -10.25 68.1 -10.25 68.4 -10.2 68.75 -10.15 69.1 -10.1 69.45 -10.0 69.75 -9.9 70.1 -9.8 70.4 -9.65 70.75 -9.5 71.05 -9.3 71.35 -9.1 71.65 -8.9 71.85 -8.75 72.1 -8.55 72.3 -8.35 72.45 -8.15 72.65 -7.95 72.85 -7.75 73.0 -7.55 73.15 -7.35 73.35 -7.1 73.45 -6.9 73.6 -6.65 73.75 -6.4 73.85 -6.15 73.95 -5.9 74.05 -5.65 74.15 -5.35 74.3 -5.45 74.45 -5.55 74.6 -5.65 74.75 -5.75 74.9 -5.8 75.1 -5.9 75.25 -6.0 75.4 -6.05 75.55 -6.15 75.7 -6.2 75.9 -6.3 76.05 -6.35 76.2 -6.4 76.4 -6.45 76.55 -6.55 76.7 -6.6 77.0 -6.7 77.3 -6.75 77.6 -6.85 77.95 -6.9 78.25 -6.95 78.55 -6.95 78.85 -7.0 79.15 -7.05 79.45 -7.05 79.8 -7.05 80.1 -7.05 80.4 -7.05 80.7 -7.05 81.05 -7.05 81.35 -7.0 81.65 -7.0 82.4 -6.95 83.2 -6.8 83.95 -6.7 84.7 -6.5 85.4 -6.35 86.15 -6.1 86.85 -5.9 87.6 -5.65 88.3 -5.4 89.0 -5.1 89.7 -4.8 90.4 -4.5 91.05 -4.2 91.75 -3.85 92.45 -3.5 93.15 -3.15 94.25 -2.55 95.3 -2.05 96.4 -1.5 97.5 -1.0 98.6 -0.5 99.7 -0.05 100.8 0.4 101.9 0.8 103.05 1.25 104.2 1.6 105.35 1.95 106.5 2.25 107.7 2.55 108.85 2.8 110.05 3.05 111.25 3.25 111.75 3.3 112.25 3.4 112.75 3.45 113.25 3.5 113.7 3.55 114.2 3.6 114.7 3.6 115.2 3.65 115.7 3.65 116.2 3.7 116.7 3.7 117.2 3.7 117.7 3.7 118.2 3.7 118.7 3.7 119.2 3.7 119.25 3.7 119.4 3.7 119.55 3.7 119.6 3.7 119.65 3.7 119.75 3.7 119.8 3.7 119.85 3.7 119.9 3.75 120.0 3.75 120.05 3.75 120.1 3.8 120.15 3.8 120.2 3.85 120.2 3.9 120.25 3.95 120.3 4.0 120.35 4.05 120.35 4.1 120.4 4.15 120.45 4.2 120.45 4.3 120.45 4.35 120.45 4.4 120.5 4.45 120.45 4.5 120.45 4.6 120.45 4.65 120.45 4.7 120.4 4.75 120.4 4.8 120.35 4.85 120.35 4.9 120.3 4.95 120.25 5.0 120.2 5.05 118.75 6.65 117.6 7.9 117.55 7.95 117.5 8.0 117.45 8.05 117.45 8.1 117.4 8.15 117.35 8.2 117.3 8.25 117.3 8.3 117.25 8.35 117.2 8.4 117.2 8.45 117.15 8.5 117.1 8.55 117.1 8.6 117.05 8.65 117.05 8.7 116.85 9.2 116.6 9.65 116.35 10.1 116.1 10.6 115.85 11.05 115.55 11.5 115.3 11.9 114.95 12.35 114.7 12.75 114.35 13.25 114.1 13.55 113.75 14.1 113.15 14.85 113.1 14.9 112.75 15.4 112.5 15.8 112.0 16.45 111.5 17.1 111.0 17.75 110.45 18.35 109.9 18.95 109.3 19.55 108.75 20.1 108.1 20.7 107.5 21.25 106.9 21.75 106.25 22.3 105.6 22.8 105.0 23.3 104.3 23.8 103.65 24.25 102.95 24.75 102.2 25.3 101.4 25.8 100.65 26.3 99.85 26.75 99.05 27.25 98.25 27.7 97.4 28.15 96.6 28.55 95.8 28.95 94.95 29.35 94.1 29.75 93.25 30.1 92.4 30.45 91.55 30.8 90.7 31.15 89.8 31.45 89.5 31.55 89.2 31.65 88.9 31.8 88.55 31.9 88.25 32.0 87.95 32.1 87.65 32.2 87.35 32.3 87.05 32.4 86.7 32.5 86.4 32.6 86.1 32.7 85.8 32.8 85.5 32.85 85.15 32.95 84.85 33.05 84.4 33.15 83.6 33.25 82.7 33.3 82.3 33.4 81.85 33.5 81.45 33.5 81.05 33.5 80.65 33.45 80.3 33.4 79.9 33.3 79.55 33.2 79.2 33.05 78.9 32.9 78.55 32.65 78.25 32.45 77.95 32.2 77.65 31.95 77.35 31.7 77.1 31.4 76.8 31.1 76.6 30.85 76.4 30.65 76.25 30.4 76.05 30.15 75.9 29.9 75.75 29.6 75.6 29.35 75.45 29.1 75.3 28.85 75.2 28.55 75.05 28.3 74.9 28.0 74.8 27.75 74.65 27.45 74.95 28.1 74.4 26.9 74.25 26.5 74.05 26.1 73.9 25.7 73.8 25.25 73.65 24.85 73.5 24.45 73.4 24.0 73.3 23.6 73.2 23.2 73.1 22.75 73.0 22.35 72.9 21.9 72.85 21.5 72.75 21.05 72.7 20.65 72.6 20.2 72.3 18.25 72.05 15.35 71.55 9.75 71.6 10.55 71.55 9.95 71.45 9.0 71.35 7.85 71.35 7.5 71.35 7.45 71.35 7.4 71.3 7.35 71.3 7.35 71.3 7.3 71.25 7.25 71.25 7.25 71.2 7.2 71.2 7.2 71.15 7.15 70.95 7.0 70.75 6.8 70.55 6.65 70.35 6.45 70.15 6.25 70.0 6.05 69.85 5.9 69.7 5.65 69.55 5.45 69.4 5.25 69.25 5.0 69.15 4.8 69.0 4.55 68.9 4.3 68.8 4.05 68.75 3.8 68.75 3.75 68.7 3.7 68.7 3.7 68.65 3.65 68.65 3.65 68.6 3.65 68.55 3.6 68.55 3.6 68.5 3.6 68.45 3.65 68.35 3.65 68.2 3.7 68.1 3.7 67.95 3.7 67.85 3.7 67.7 3.7 67.6 3.7 67.5 3.7 67.35 3.7 67.25 3.7 67.1 3.7 67.0 3.7 66.85 3.7 66.75 3.7 66.65 3.65 66.5 3.65 66.45 3.65 66.4 3.65 66.35 3.65 66.3 3.7 66.3 3.7 66.25 3.75 66.15 3.8 66.15 3.8 65.95 4.0 65.7 4.15 65.5 4.35 65.25 4.5 65.05 4.7 64.8 4.85 64.55 5.05 64.35 5.2 64.1 5.35 63.85 5.5 63.65 5.7 63.4 5.85 63.15 6.0 62.9 6.15 62.65 6.3 62.4 6.4 62.1 6.6 61.75 6.75 61.4 6.9 61.1 7.05 60.75 7.15 60.4 7.25 60.05 7.4 59.7 7.45 59.35 7.55 59.0 7.6 58.65 7.7 58.3 7.7 57.95 7.75 57.6 7.8 57.2 7.8 56.85 7.85 56.25 7.85 55.7 7.85 55.1 7.85 54.5 7.85 53.95 7.85 53.35 7.85 52.8 7.85 52.2 7.85 51.6 7.8 51.05 7.8 50.45 7.75 49.9 7.7 49.3 7.7 48.75 7.65 48.15 7.6 47.55 7.55 47.0 7.5 46.45 7.4 45.9 7.3 45.3 7.2 44.8 7.1 44.25 6.95 43.7 6.8 43.15 6.6 42.6 6.45 42.1 6.25 41.55 6.05 41.0 5.85 40.5 5.65 40.0 5.4 39.45 5.2 38.95 4.95 38.6 4.8 38.2 4.6 37.85 4.4 37.5 4.25 37.1 4.05 36.75 3.85 36.4 3.65 36.05 3.45 35.7 3.25 35.35 3.05 35.0 2.85 34.6 2.6 34.25 2.4 33.9 2.15 33.55 1.95 33.2 1.7 33.25 2.55 33.2 3.35 33.15 4.15 33.0 4.85 32.85 5.6 32.6 6.25 32.3 6.95 31.95 7.55 31.6 8.15 31.15 8.75 30.7 9.3 30.15 9.8 29.6 10.3 28.95 10.75 28.3 11.2 27.55 11.55 27.75 11.8 27.9 12.05 28.05 12.3 28.2 12.6 28.35 12.85 28.45 13.15 28.55 13.4 28.65 13.7 28.75 13.95 28.8 14.25 28.85 14.55 28.9 14.85 28.95 15.1 28.95 15.4 29.0 15.7 29.0 16.05 29.0 16.65 28.85 17.3 28.7 17.9 28.45 18.5 28.2 19.1 27.85 19.65 27.5 20.15 27.1 20.65 26.65 21.15 26.15 21.55 25.65 21.95 25.05 22.25 24.5 22.55 23.9 22.75 23.3 23.0 22.65 23.05 21.85 23.15 21.1 23.1 20.35 23.05 19.65 22.8 18.95 22.6 18.3 22.25 17.7 21.95 17.15 21.5 16.65 21.05 16.2 20.55 15.75 20.05 15.45 19.5 15.1 18.9 14.9 18.35 14.65 17.75 14.6 17.15 14.55 16.9 14.5 16.6 14.5 16.35 14.5 16.05 14.45 15.8 14.45 15.55 14.5 15.25 14.5 15.0 14.55 14.75 14.55 14.45 14.6 14.2 14.7 13.95 14.75 13.7 14.85 13.4 14.95 13.15 15.05 12.9 15.05 12.9 15.05 12.85 15.05 12.85 15.1 12.8 15.1 12.8 15.15 12.75 15.15 12.75 15.15 12.7 15.15 12.7 15.15 12.65 15.15 12.65 15.15 12.6 15.1 12.6 15.05 12.6 15.05 12.55 14.95 12.55 14.7 12.5 14.45 12.45 14.2 12.4 13.95 12.3 13.7 12.25 13.5 12.15 13.25 12.05 13.0 12.0 12.75 11.9 12.55 11.8 12.3 11.7 12.05 11.55 11.85 11.45 11.6 11.35 11.4 11.25 11.15 11.1 10.4 10.7 9.7 10.25 9.05 9.85 8.4 9.35 7.8 8.85 7.25 8.3 6.7 7.75 6.2 7.15 5.7 6.55 5.25 5.85 4.8 5.2 4.45 4.5 4.05 3.85 3.7 3.1 3.4 2.35 3.1 1.55 3.0 1.3 3.0 1.25 2.95 1.15 2.85 1.15 2.75 1.2 2.55 1.3 1.45 1.85 0.35 2.35 -0.75 2.8 -1.9 3.3 -3.0 3.75 -4.15 4.15 -5.25 4.55 -6.4 4.9 -7.55 5.3 -8.7 5.6 -9.9 5.95 -11.05 6.25 -12.25 6.5 -13.4 6.75 -14.6 7.0 -15.8 7.2 -16.4 7.3 -16.9 7.35 -17.5 7.45 -18.05 7.55 -18.6 7.6 -19.15 7.7 -19.75 7.75 -20.3 7.8 -20.85 7.85 -21.4 7.9 -22.0 7.95 -22.55 7.95 -23.1 8.0 -23.7 8.0 -24.25 8.0 -24.8 8.0 -25.35 8.0 -25.85 7.95 -26.4 7.95 -26.9 7.85 -27.4 7.8 -27.9 7.75 -28.45 7.65 -28.9 7.5 -29.4 7.4 -29.9 7.25 -30.4 7.1 -30.9 6.9 -31.35 6.7 -31.85 6.5 -32.3 6.25 -32.75 6.0 -33.2 5.75 -33.6 5.4 -34.05 5.1 -34.4 4.8 -34.8 4.45 -35.1 4.1 -35.45 3.75 -35.75 3.35 -36.05 2.95 -36.3 2.55 -36.6 2.1 -36.8 1.65 -37.05 1.2 -37.2 0.75 -37.4 0.25 -37.55 -0.25 -37.6 -0.45 -37.7 -0.7 -37.75 -0.9 -37.8 -1.15 -37.85 -1.35 -37.9 -1.6 -37.95 -1.85 -38.0 -2.05 -38.05 -2.3 -38.1 -2.5 -38.15 -2.75 -38.15 -3.0 -38.2 -3.2 -38.2 -3.45 -38.25 -3.7 -38.25 -3.9 -38.25 -4.05 -38.25 -4.15 -38.25 -4.3 -38.25 -4.45 -38.25 -4.55 -38.25 -4.7 -38.25 -4.8 -38.2 -4.95 -38.2 -5.1 -38.2 -5.2 -38.15 -5.35 -38.15 -5.45 -38.15 -5.6 -38.1 -5.7 -38.1 -5.85 -38.05 -6.0 -38.05 -6.05 -38.05 -6.1 -38.05 -6.1 -38.0 -6.15 -38.0 -6.2 -38.05 -6.2 -38.05 -6.25 -38.05 -6.3 -38.05 -6.3 -38.05 -6.35 -38.1 -6.35 -38.1 -6.4 -38.15 -6.4 -38.2 -6.45 -38.2 -6.45 -38.25 -6.45 -38.45 -6.55 -38.6 -6.65 -38.8 -6.75 -39.0 -6.85 -39.15 -7.0 -39.3 -7.1 -39.5 -7.25 -39.65 -7.35 -39.8 -7.5 -39.95 -7.65 -40.1 -7.8 -40.25 -7.95 -40.35 -8.1 -40.5 -8.25 -40.65 -8.4 -40.8 -8.6 -40.8 -8.5 -40.9 -8.35 -41.05 -7.9 -41.25 -7.55 -41.45 -7.15 -41.7 -6.8 -41.9 -6.45 -42.15 -6.15 -42.45 -5.8 -42.75 -5.55 -43.05 -5.25 -43.35 -5.0 -43.7 -4.8 -44.05 -4.6 -44.4 -4.4 -44.85 -4.2 -45.25 -4.05 -45.65 -3.95 -45.7 -3.95 -45.75 -3.9 -45.75 -3.9 -45.8 -3.9 -45.85 -3.85 -45.85 -3.85 -45.9 -3.85 -45.9 -3.8 -45.9 -3.8 -45.95 -3.75 -45.95 -3.75 -45.95 -3.7 -45.95 -3.7 -45.95 -3.65 -45.95 -3.6 -45.95 -3.55 -45.8 -1.05 -46.05 4.5 -46.1 5.4 -46.15 6.3 -46.2 7.2 -46.3 8.05 -46.4 8.95 -46.5 9.8 -46.65 10.7 -46.8 11.55 -46.95 12.45 -47.15 13.3 -47.3 14.2 -47.55 15.0 -47.8 15.9 -48.05 16.75 -48.35 17.6 -48.65 18.4 -48.75 18.7 -48.9 19.05 -49.05 19.35 -49.2 19.65 -49.3 19.95 -49.5 20.25 -49.65 20.55 -49.8 20.8 -49.95 21.1 -50.15 21.4 -50.35 21.65 -50.55 21.95 -50.7 22.2 -50.9 22.45 -51.1 22.75 -51.35 23.0 -51.45 23.1 -51.5 23.2 -51.6 23.3 -51.7 23.35 -51.8 23.45 -51.9 23.55 -52.0 23.65 -52.1 23.7 -52.2 23.8 -52.3 23.85 -52.4 23.95 -52.5 24.0 -52.6 24.1 -52.7 24.15 -52.8 24.2 -52.95 24.3 -53.05 24.35 -53.15 24.45 -53.25 24.5 -53.35 24.6 -53.45 24.65 -53.55 24.75 -53.6 24.8 -53.7 24.9 -53.8 25.0 -53.9 25.05 -53.95 25.15 -54.05 25.25 -54.15 25.3 -54.25 25.4 -54.3 25.5 -54.4 25.6 -54.85 26.1 -55.3 26.5 -55.8 26.95 -56.3 27.4 -56.75 27.8 -57.3 28.2 -57.8 28.55 -58.3 28.9 -58.85 29.25 -59.4 29.55 -60.0 29.85 -60.55 30.1 -61.15 30.4 -61.75 30.6 -62.35 30.85 -63.0 31.0 -63.25 31.1 -63.55 31.15 -63.8 31.2 -64.1 31.25 -64.4 31.3 -64.65 31.35 -64.95 31.4 -65.2 31.45 -65.5 31.5 -65.8 31.5 -66.05 31.55 -66.35 31.55 -66.6 31.6 -66.9 31.6 -67.15 31.65 -67.5 31.65 -68.3 31.7 -69.75 31.8 -71.4 31.95 -72.05 32.0 -72.4 32.05 -72.5 32.05 -72.6 32.05 -72.65 32.0 -72.75 32.0 -72.85 31.95 -72.9 31.9 -72.95 31.9 -73.05 31.85 -73.1 31.75 -73.15 31.7 -73.15 31.65 -73.2 31.6 -73.2 31.5 -73.25 31.45 -73.25 31.35 -73.25 31.25 -73.25 31.2 -73.25 31.15 -73.25 31.1 -73.2 31.05 -73.2 31.0 -73.2 31.0 -73.25 30.95 -73.25 30.9 -73.25 30.9 -73.3 30.9 -73.3 30.85 -73.35 30.85 -73.35 30.85 -73.4 30.85 -73.45 30.85 -73.45 30.85 -73.55 30.8 -77.4 29.95 -79.4 29.45 -80.7 29.15 -82.0 28.8 -83.3 28.5 -84.6 28.15 -85.9 27.75 -87.15 27.4 -88.45 27.0 -89.7 26.6 -90.95 26.2 -92.2 25.75 -93.5 25.3 -94.7 24.85 -96.0 24.4 -97.2 23.9 -98.45 23.35 -99.65 22.85 -100.55 22.45 -101.4 22.05 -102.3 21.6 -103.15 21.2 -104.05 20.75 -104.9 20.3 -105.75 19.85 -106.6 19.35 -107.45 18.85 -108.25 18.35 -109.05 17.85 -109.85 17.3 -110.7 16.75 -111.45 16.2 -112.25 15.65 -113.0 15.05 -113.55 14.6 -114.1 14.2 -114.6 13.75 -115.1 13.3 -115.65 12.8 -116.15 12.35 -116.65 11.9 -117.1 11.4 -117.6 10.9 -118.05 10.4 -118.55 9.9 -118.95 9.4 -119.4 8.85 -119.85 8.3 -120.3 7.8 -120.7 7.2 -120.7 7.15 -120.75 7.15 -120.75 7.1 -120.8 7.1 -120.8 7.05 -120.85 7.05 -120.85 7.05 -120.9 7.0 -120.9 7.0 -120.95 6.95 -121.0 6.95 -121.0 6.9 -121.05 6.9 -121.05 6.85 -121.1 6.85 -121.15 6.85 -122.4 6.0 -124.8 4.35 -124.85 4.3 -124.9 4.3 -124.95 4.25 -125.0 4.25 -125.05 4.2 -125.05 4.15 -125.1 4.15 -125.15 4.1 -125.2 4.05 -125.25 4.0 -125.3 4.0 -125.35 3.95 -125.4 3.9 -125.4 3.85 -125.45 3.8 -125.5 3.8 -125.5 3.6 -125.5 3.15 L-125.5 3.15 M-56.6 -8.4 Q-55.8 -8.25 -54.15 -7.9 -54.2 -8.25 -54.35 -8.65 -54.5 -9.0 -54.75 -9.3 -54.95 -9.65 -55.25 -9.95 -55.5 -10.25 -55.85 -10.5 -56.15 -10.75 -56.55 -11.0 -56.9 -11.2 -57.3 -11.35 -57.7 -11.55 -58.1 -11.65 -58.55 -11.75 -58.95 -11.75 -59.4 -11.8 -59.85 -11.75 -60.25 -11.75 -60.7 -11.65 -61.05 -11.55 -61.45 -11.4 -61.8 -11.25 -62.15 -11.05 -62.5 -10.85 -62.8 -10.6 -63.1 -10.4 -63.35 -10.1 -63.55 -9.85 -63.8 -9.6 -64.0 -9.3 -64.15 -9.0 -63.65 -9.0 -62.65 -9.0 -62.25 -9.0 -61.9 -8.95 -61.5 -8.95 -61.15 -8.9 -60.75 -8.9 -60.4 -8.85 -60.0 -8.85 -59.65 -8.8 -59.25 -8.75 -58.85 -8.75 -58.5 -8.7 -58.1 -8.65 -57.75 -8.6 -57.35 -8.55 -57.0 -8.5 -56.6 -8.4 L-56.6 -8.4 M25.5 6.35 Q25.4 6.45 25.25 6.55 25.0 6.75 24.7 6.95 24.4 7.1 24.1 7.3 23.85 7.45 23.55 7.55 23.25 7.7 22.9 7.75 22.6 7.85 22.3 7.95 21.95 8.0 21.65 8.05 21.3 8.05 20.95 8.05 20.6 8.05 20.3 8.05 20.05 8.05 19.85 8.0 19.6 8.0 19.4 7.95 19.15 7.9 18.9 7.9 18.7 7.85 18.45 7.8 18.25 7.8 18.0 7.75 17.8 7.7 17.55 7.65 17.35 7.6 17.1 7.55 16.9 7.5 16.7 7.45 16.4 7.35 16.15 7.25 15.85 7.2 15.6 7.1 15.35 7.0 15.1 6.85 14.8 6.75 14.55 6.65 14.3 6.5 14.05 6.4 13.8 6.25 13.55 6.15 13.3 6.0 13.05 5.85 12.8 5.7 12.55 5.55 11.7 4.95 10.3 3.6 10.05 3.35 9.85 3.05 9.6 2.75 9.4 2.5 9.2 2.2 9.0 1.9 8.8 1.6 8.6 1.3 8.4 1.0 8.25 0.7 8.05 0.4 7.9 0.05 7.75 -0.25 7.6 -0.55 7.45 -0.9 7.3 -1.25 7.25 -1.3 7.25 -1.35 7.2 -1.35 7.2 -1.35 7.15 -1.35 7.15 -1.35 7.1 -1.35 7.05 -1.35 7.05 -1.35 7.0 -1.3 5.15 -0.05 4.5 0.25 4.45 0.25 4.45 0.3 4.4 0.35 4.4 0.35 4.35 0.4 4.35 0.45 4.35 0.45 4.35 0.5 4.35 0.55 4.4 0.6 4.45 0.7 4.5 0.85 4.5 0.95 4.55 1.05 4.6 1.2 4.65 1.3 4.7 1.4 4.7 1.55 4.75 1.65 4.8 1.75 4.85 1.85 4.9 2.0 4.95 2.1 5.0 2.2 5.05 2.3 5.1 2.45 5.25 2.75 5.35 3.0 5.5 3.3 5.65 3.6 5.8 3.85 5.95 4.1 6.1 4.4 6.25 4.65 6.45 4.95 6.6 5.2 6.8 5.45 7.0 5.7 7.2 5.95 7.4 6.2 7.6 6.45 7.8 6.65 7.85 6.75 7.9 6.8 8.2 7.1 8.5 7.4 8.75 7.65 9.1 7.9 9.4 8.2 9.7 8.4 10.0 8.65 10.35 8.9 10.7 9.1 11.05 9.3 11.35 9.55 11.7 9.7 12.1 9.9 12.45 10.1 12.8 10.25 13.2 10.4 13.25 10.45 13.45 10.5 13.6 10.6 13.7 10.6 13.85 10.7 14.0 10.7 14.1 10.8 14.25 10.8 14.4 10.85 14.5 10.9 14.65 10.95 14.8 11.0 14.95 11.0 15.1 11.05 15.2 11.05 15.35 11.1 15.45 11.15 15.55 11.15 15.6 11.15 15.7 11.15 15.8 11.15 15.85 11.15 15.95 11.15 16.0 11.1 16.1 11.1 16.15 11.05 16.25 11.0 16.3 10.95 16.4 10.9 16.45 10.85 16.55 10.8 16.6 10.7 17.05 10.25 17.55 9.9 18.05 9.55 18.65 9.25 19.2 9.0 19.75 8.85 20.35 8.7 20.95 8.65 21.55 8.55 22.2 8.6 22.8 8.65 23.4 8.8 24.0 8.95 24.55 9.2 25.15 9.45 25.65 9.8 25.75 9.95 25.9 10.05 26.0 10.15 26.15 10.2 26.25 10.25 26.4 10.25 26.5 10.3 26.65 10.25 26.75 10.25 26.9 10.2 27.0 10.2 27.1 10.1 27.25 10.05 27.35 9.95 27.5 9.9 27.6 9.8 27.6 9.8 27.65 9.75 27.75 9.7 27.85 9.6 28.0 9.55 28.1 9.5 28.2 9.4 28.3 9.35 28.4 9.25 28.5 9.2 28.6 9.1 28.7 9.0 28.8 8.95 28.9 8.85 29.0 8.75 29.1 8.65 29.2 8.6 29.3 8.5 29.5 8.3 29.7 8.1 29.9 7.85 30.1 7.65 30.25 7.4 30.4 7.15 30.55 6.95 30.7 6.7 30.85 6.45 30.95 6.2 31.1 5.95 31.2 5.65 31.3 5.4 31.35 5.1 31.45 4.85 31.5 4.55 31.55 4.3 31.6 4.05 31.65 3.85 31.65 3.6 31.7 3.35 31.7 3.1 31.7 2.9 31.7 2.65 31.7 2.4 31.7 2.15 31.7 1.95 31.65 1.7 31.65 1.45 31.6 1.2 31.6 1.0 31.55 0.75 31.55 0.7 31.55 0.65 31.5 0.6 31.5 0.6 31.45 0.55 31.4 0.5 31.4 0.5 31.35 0.45 29.9 -0.5 29.0 -1.2 28.95 -1.25 28.9 -1.25 28.85 -1.25 28.85 -1.25 28.8 -1.3 28.8 -1.3 28.75 -1.25 28.75 -1.25 28.7 -1.25 28.7 -1.2 28.7 -1.2 28.7 -1.15 28.7 -1.15 28.7 -1.1 28.65 -1.05 28.65 -1.0 28.6 -0.75 28.6 -0.45 28.55 -0.2 28.5 0.05 28.45 0.35 28.4 0.6 28.35 0.85 28.3 1.1 28.2 1.4 28.15 1.65 28.1 1.9 28.0 2.15 27.9 2.4 27.85 2.65 27.75 2.9 27.65 3.2 27.55 3.4 27.45 3.65 27.35 3.85 27.2 4.05 27.1 4.25 27.0 4.45 26.85 4.7 26.75 4.9 26.6 5.1 26.45 5.25 26.3 5.45 26.15 5.65 26.0 5.85 25.85 6.0 25.7 6.2 25.5 6.35 L25.5 6.35 M-36.25 -10.8 Q-36.15 -10.95 -35.55 -11.8 -34.65 -13.05 -32.45 -15.45 -32.4 -15.5 -32.35 -15.55 -32.3 -15.6 -32.25 -15.6 -32.25 -15.65 -32.2 -15.7 -32.2 -15.75 -32.2 -15.8 -32.2 -15.85 -32.2 -15.9 -32.2 -15.9 -32.25 -15.95 -32.25 -16.0 -32.3 -16.05 -32.35 -16.1 -32.4 -16.2 -33.6 -17.45 -33.95 -18.0 -34.0 -18.05 -34.0 -18.05 -34.05 -18.1 -34.1 -18.1 -34.15 -18.1 -34.2 -18.15 -34.35 -18.15 -34.45 -18.2 -34.6 -18.2 -34.7 -18.2 -34.85 -18.2 -35.0 -18.2 -35.1 -18.2 -35.25 -18.2 -35.35 -18.2 -35.5 -18.2 -35.65 -18.2 -35.75 -18.2 -35.9 -18.15 -36.05 -18.15 -36.15 -18.1 -36.3 -18.1 -36.75 -18.0 -37.15 -17.85 -37.55 -17.7 -37.9 -17.45 -38.3 -17.25 -38.6 -17.0 -38.95 -16.7 -39.2 -16.4 -39.5 -16.05 -39.75 -15.7 -39.95 -15.35 -40.15 -14.95 -40.3 -14.55 -40.4 -14.15 -40.5 -13.7 -40.55 -13.25 -40.6 -12.8 -40.55 -12.4 -40.55 -12.0 -40.5 -11.6 -40.4 -11.25 -40.3 -10.9 -40.15 -10.55 -40.0 -10.2 -39.85 -9.85 -39.6 -9.55 -39.4 -9.25 -39.1 -8.95 -38.85 -8.7 -38.5 -8.45 -38.2 -8.15 -37.8 -7.95 -37.75 -7.95 -37.75 -7.9 -37.75 -7.9 -37.7 -7.9 -37.7 -7.85 -37.65 -7.85 -37.65 -7.85 -37.65 -7.85 -37.6 -7.85 -37.6 -7.85 -37.55 -7.85 -37.55 -7.9 -37.55 -7.9 -37.5 -7.95 -37.5 -7.95 -37.5 -8.0 -37.45 -8.2 -37.4 -8.35 -37.35 -8.55 -37.25 -8.75 -37.2 -8.9 -37.1 -9.1 -37.05 -9.25 -36.95 -9.45 -36.9 -9.6 -36.8 -9.8 -36.7 -9.95 -36.6 -10.1 -36.5 -10.25 -36.4 -10.45 -36.35 -10.6 -36.25 -10.8 L-36.25 -10.8 M16.05 16.4 Q16.05 16.4 16.05 16.4 16.05 16.4 16.05 16.4 16.05 16.75 16.05 16.8 16.1 17.25 16.3 17.75 16.45 18.2 16.7 18.6 16.95 19.05 17.25 19.45 17.55 19.8 17.95 20.15 18.3 20.45 18.7 20.75 19.15 21.0 19.6 21.2 20.05 21.4 20.5 21.5 21.0 21.6 21.45 21.6 21.85 21.6 22.25 21.55 22.65 21.55 23.05 21.45 23.4 21.35 23.75 21.2 24.1 21.1 24.4 20.9 24.75 20.75 25.0 20.5 25.3 20.3 25.6 20.0 25.85 19.75 26.1 19.45 26.35 19.15 26.55 18.8 26.8 18.45 26.95 18.15 27.1 17.8 27.25 17.45 27.35 17.1 27.4 16.75 27.5 16.4 27.5 16.05 27.5 15.7 27.45 15.35 27.45 15.0 27.35 14.65 27.25 14.3 27.1 13.95 27.0 13.6 26.8 13.2 26.75 13.1 26.7 13.0 26.65 12.95 26.6 12.85 26.55 12.8 26.5 12.7 26.45 12.6 26.4 12.55 26.35 12.45 26.25 12.4 26.2 12.3 26.15 12.25 26.1 12.2 26.0 12.1 25.9 11.95 25.85 11.95 25.5 11.55 25.05 11.2 24.6 10.9 24.1 10.65 23.65 10.45 23.15 10.3 22.65 10.15 22.1 10.1 21.6 10.1 21.05 10.15 20.55 10.2 20.05 10.35 19.5 10.5 19.05 10.75 18.55 11.0 18.1 11.35 17.8 11.6 17.55 11.85 17.3 12.1 17.1 12.4 16.9 12.65 16.7 12.95 16.55 13.25 16.4 13.55 16.3 13.85 16.2 14.2 16.1 14.5 16.05 14.85 16.0 15.2 16.0 15.55 16.0 15.95 16.0 16.3 16.0 16.4 16.05 16.4 L16.05 16.4 M66.95 -7.8 Q66.95 -7.75 66.95 -7.7 66.95 -7.7 67.0 -7.65 67.0 -7.6 67.0 -7.55 67.0 -7.5 67.0 -7.5 67.05 -7.45 67.05 -7.4 67.05 -7.35 67.05 -7.3 67.1 -7.3 67.1 -7.25 67.1 -7.2 67.1 -7.15 67.2 -6.8 67.35 -6.45 67.45 -6.1 67.55 -5.8 67.65 -5.4 67.75 -5.1 67.85 -4.7 67.95 -4.4 68.0 -4.0 68.1 -3.65 68.15 -3.3 68.2 -2.95 68.25 -2.6 68.3 -2.25 68.35 -1.85 68.4 -1.5 68.4 -1.25 68.4 -1.05 68.35 -0.8 68.35 -0.55 68.35 -0.3 68.3 -0.1 68.25 0.15 68.2 0.4 68.15 0.6 68.1 0.85 68.05 1.05 67.95 1.3 67.9 1.5 67.8 1.75 67.7 1.95 67.6 2.2 67.7 2.2 67.85 2.2 67.95 2.2 68.05 2.15 68.15 2.15 68.25 2.15 68.35 2.1 68.5 2.1 68.6 2.1 68.7 2.05 68.8 2.05 68.9 2.0 69.0 2.0 69.1 1.95 69.2 1.9 69.3 1.9 69.8 1.7 70.25 1.45 70.65 1.2 71.05 0.9 71.4 0.55 71.7 0.15 72.05 -0.2 72.25 -0.65 72.5 -1.1 72.65 -1.55 72.8 -2.05 72.85 -2.55 72.95 -3.05 72.9 -3.55 72.9 -4.1 72.75 -4.6 72.65 -5.1 72.45 -5.55 72.25 -5.95 72.0 -6.4 71.7 -6.75 71.35 -7.1 71.0 -7.45 70.6 -7.75 70.25 -8.05 69.8 -8.25 69.35 -8.45 68.85 -8.6 68.4 -8.7 67.9 -8.75 67.4 -8.8 66.9 -8.75 66.8 -8.75 66.75 -8.7 66.7 -8.7 66.65 -8.7 66.6 -8.65 66.6 -8.6 66.6 -8.55 66.65 -8.5 66.65 -8.45 66.7 -8.35 66.75 -8.25 66.8 -8.05 66.9 -7.8 66.95 -7.8 L66.95 -7.8 M81.15 5.6 Q81.1 5.65 80.7 6.1 80.4 6.45 80.2 6.6 80.15 6.65 80.15 6.7 80.1 6.7 80.1 6.75 80.1 6.8 80.1 6.85 80.1 6.9 80.1 6.9 80.1 6.95 80.1 7.0 80.1 7.1 80.15 7.2 80.2 7.3 80.2 7.4 80.25 7.5 80.25 7.6 80.3 7.7 80.35 7.75 80.35 7.85 80.4 7.95 80.45 8.05 80.5 8.15 80.5 8.25 80.55 8.3 80.6 8.4 80.65 8.5 80.95 9.05 81.3 9.5 81.65 9.9 82.1 10.25 82.55 10.55 83.05 10.75 83.5 10.95 84.0 11.0 84.5 11.1 85.05 11.05 85.55 10.95 86.05 10.8 86.55 10.6 87.0 10.3 87.45 9.95 87.85 9.55 88.15 9.2 88.4 8.75 88.65 8.35 88.85 7.9 89.0 7.45 89.1 6.95 89.2 6.45 89.2 5.95 89.25 5.5 89.2 5.0 89.15 4.5 89.0 4.05 88.85 3.55 88.65 3.15 88.45 2.7 88.15 2.3 87.9 1.95 87.65 1.7 87.35 1.4 87.05 1.2 86.75 0.95 86.45 0.8 86.1 0.65 85.75 0.55 85.4 0.45 85.05 0.4 84.7 0.35 84.35 0.4 84.0 0.4 83.65 0.5 83.25 0.6 82.9 0.75 82.8 0.8 82.75 0.8 82.7 0.85 82.65 0.9 82.55 0.9 82.55 0.95 82.5 1.0 82.45 1.05 82.4 1.1 82.4 1.15 82.35 1.2 82.35 1.3 82.35 1.35 82.35 1.45 82.35 1.5 82.35 1.6 82.35 1.65 82.35 2.2 82.3 2.45 82.3 2.65 82.25 2.9 82.2 3.1 82.15 3.3 82.1 3.55 82.05 3.75 81.95 3.95 81.9 4.15 81.8 4.4 81.7 4.6 81.6 4.8 81.5 5.0 81.4 5.2 81.25 5.4 81.15 5.6 L81.15 5.6 M72.15 1.95 Q72.1 2.0 71.95 2.1 71.8 2.2 71.75 2.25 71.6 2.35 71.5 2.4 71.4 2.5 71.3 2.55 71.2 2.65 71.1 2.7 71.0 2.8 70.85 2.85 70.75 2.9 70.65 2.95 70.5 3.0 70.4 3.05 70.35 3.05 70.3 3.1 70.25 3.1 70.25 3.15 70.2 3.15 70.2 3.2 70.2 3.2 70.2 3.25 70.15 3.3 70.15 3.3 70.2 3.35 70.2 3.4 70.2 3.4 70.2 3.45 70.2 3.5 70.25 3.55 70.45 4.05 70.7 4.5 71.0 4.95 71.35 5.3 71.7 5.65 72.1 5.95 72.5 6.25 72.95 6.5 73.4 6.7 73.9 6.85 74.4 6.95 74.9 7.0 75.45 7.05 75.95 7.0 76.5 6.95 77.05 6.8 77.55 6.65 78.0 6.4 78.4 6.2 78.8 5.85 79.2 5.55 79.5 5.15 79.85 4.75 80.1 4.35 80.35 3.9 80.5 3.4 80.7 2.95 80.8 2.45 80.85 1.9 80.85 1.4 80.85 0.9 80.75 0.35 80.65 -0.15 80.45 -0.55 80.3 -1.0 80.05 -1.4 79.8 -1.8 79.45 -2.15 79.15 -2.5 78.8 -2.75 78.4 -3.05 78.0 -3.25 77.6 -3.5 77.15 -3.65 76.7 -3.8 76.2 -3.85 75.7 -3.95 75.2 -3.95 75.0 -3.95 74.95 -3.95 74.8 -3.95 74.75 -3.9 74.65 -3.9 74.6 -3.9 74.55 -3.85 74.5 -3.85 74.5 -3.8 74.45 -3.75 74.45 -3.7 74.45 -3.6 74.45 -3.55 74.4 -3.4 74.4 -3.35 74.4 -3.15 74.4 -3.1 74.4 -3.0 74.45 -2.95 74.45 -2.85 74.45 -2.65 74.4 -2.5 74.35 -2.3 74.35 -2.1 74.3 -1.95 74.25 -1.75 74.25 -1.6 74.2 -1.4 74.15 -1.2 74.1 -1.05 74.0 -0.85 73.95 -0.7 73.9 -0.55 73.8 -0.35 73.75 -0.2 73.65 0.0 73.6 0.15 73.5 0.25 73.4 0.4 73.35 0.55 73.25 0.65 73.15 0.8 73.05 0.9 72.95 1.0 72.85 1.15 72.75 1.25 72.65 1.35 72.55 1.5 72.45 1.6 72.35 1.7 72.25 1.8 72.15 1.95 L72.15 1.95 M13.55 -22.05 Q13.35 -21.55 13.05 -20.15 12.55 -17.6 12.6 -16.85 12.6 -16.5 12.65 -16.15 12.65 -15.8 12.7 -15.45 12.75 -15.1 12.8 -14.75 12.85 -14.4 12.95 -14.05 13.0 -13.75 13.05 -13.4 13.15 -13.05 13.25 -12.7 13.3 -12.4 13.4 -12.05 13.5 -11.7 13.6 -11.35 13.65 -11.1 13.75 -10.9 13.85 -10.7 13.95 -10.5 14.05 -10.25 14.15 -10.05 14.25 -9.85 14.35 -9.65 14.5 -9.45 14.6 -9.3 14.75 -9.1 14.9 -8.9 15.05 -8.75 15.2 -8.6 15.4 -8.4 15.6 -8.25 15.8 -8.05 15.85 -8.05 16.25 -7.95 16.2 -7.95 16.4 -7.9 16.55 -7.85 16.7 -7.8 16.85 -7.75 17.05 -7.7 17.2 -7.65 17.4 -7.65 17.55 -7.6 17.75 -7.6 17.9 -7.55 18.1 -7.55 18.3 -7.55 18.45 -7.55 18.65 -7.55 18.8 -7.55 18.9 -7.6 19.05 -7.6 19.15 -7.65 19.3 -7.7 19.4 -7.75 19.5 -7.8 19.6 -7.85 19.75 -7.9 19.8 -8.0 19.9 -8.1 20.0 -8.15 20.1 -8.25 20.15 -8.4 20.2 -8.5 20.3 -8.65 20.3 -8.65 20.35 -8.75 20.35 -8.8 20.35 -8.8 20.4 -8.85 20.4 -8.9 20.45 -8.95 20.45 -8.95 20.55 -9.0 20.65 -9.05 20.7 -9.15 20.75 -9.2 20.85 -9.3 20.9 -9.35 20.95 -9.45 21.0 -9.55 21.05 -9.6 21.05 -9.7 21.1 -9.8 21.15 -9.9 21.2 -10.05 21.2 -10.1 21.25 -10.2 21.3 -10.25 21.5 -10.65 21.65 -11.05 21.85 -11.45 21.95 -11.85 22.1 -12.25 22.25 -12.65 22.35 -13.05 22.45 -13.45 22.55 -13.85 22.6 -14.3 22.65 -14.7 22.65 -15.1 22.7 -15.55 22.7 -15.95 22.65 -16.4 22.6 -16.85 22.45 -18.65 22.4 -18.9 22.4 -19.15 22.4 -19.35 22.4 -19.6 22.35 -19.85 22.35 -20.05 22.3 -20.3 22.25 -20.5 22.2 -20.75 22.15 -20.95 22.05 -21.15 21.95 -21.4 21.85 -21.6 21.75 -21.8 21.65 -22.0 21.5 -22.2 21.4 -22.4 21.35 -22.45 21.3 -22.5 21.25 -22.55 21.25 -22.6 21.2 -22.65 21.15 -22.7 21.1 -22.75 21.05 -22.8 21.0 -22.85 20.95 -22.9 20.9 -22.95 20.85 -23.0 20.8 -23.05 20.75 -23.1 20.7 -23.15 20.65 -23.2 20.1 -23.6 18.4 -24.35 18.35 -24.35 18.3 -24.4 18.3 -24.4 18.25 -24.4 18.2 -24.4 18.15 -24.45 18.1 -24.45 18.1 -24.45 18.05 -24.45 18.0 -24.45 17.95 -24.45 17.95 -24.5 17.9 -24.5 17.85 -24.5 17.8 -24.5 17.75 -24.5 16.6 -24.5 15.65 -24.55 15.55 -24.55 15.5 -24.55 15.4 -24.55 15.3 -24.5 15.25 -24.5 15.15 -24.5 15.1 -24.45 15.0 -24.4 14.95 -24.4 14.9 -24.35 14.85 -24.3 14.75 -24.25 14.7 -24.2 14.65 -24.1 14.6 -24.05 14.55 -23.95 14.5 -23.9 14.45 -23.8 14.4 -23.75 14.35 -23.65 14.3 -23.6 14.3 -23.5 14.25 -23.45 14.2 -23.4 14.15 -23.3 14.1 -23.25 14.05 -23.15 14.0 -23.1 13.95 -23.0 13.9 -22.95 13.85 -22.85 13.8 -22.8 13.75 -22.75 13.75 -22.7 13.7 -22.65 13.7 -22.65 13.7 -22.6 13.65 -22.55 13.65 -22.5 13.65 -22.45 13.6 -22.4 13.6 -22.35 13.6 -22.3 13.6 -22.25 13.55 -22.2 13.55 -22.15 13.55 -22.1 13.55 -22.05 L13.55 -22.05 M89.45 29.85 Q89.5 29.9 89.5 29.9 89.55 29.95 89.6 29.95 89.6 29.95 89.65 29.9 89.7 29.9 89.7 29.9 89.75 29.85 89.8 29.85 90.85 29.45 91.85 29.05 92.9 28.6 93.85 28.15 94.9 27.7 95.85 27.2 96.85 26.7 97.8 26.2 98.75 25.65 99.7 25.1 100.6 24.5 101.55 23.9 102.45 23.3 103.35 22.65 104.25 21.95 105.1 21.25 105.35 21.05 105.6 20.85 105.85 20.65 106.05 20.45 106.3 20.25 106.55 20.05 106.8 19.8 107.0 19.6 107.25 19.4 107.5 19.2 107.7 18.95 107.95 18.75 108.15 18.5 108.4 18.3 108.6 18.05 108.8 17.85 108.9 17.75 109.05 17.6 109.15 17.5 109.25 17.4 109.35 17.3 109.45 17.15 109.6 17.05 109.7 16.95 109.8 16.8 109.9 16.7 110.0 16.6 110.1 16.45 110.2 16.35 110.3 16.2 110.4 16.1 110.45 15.95 112.0 13.9 113.95 11.25 114.25 10.65 114.25 10.65 114.35 10.65 114.3 10.6 114.3 10.6 114.25 10.6 114.0 10.8 113.75 10.95 113.5 11.1 113.25 11.3 113.0 11.45 112.75 11.6 112.5 11.75 112.2 11.9 111.95 12.05 111.7 12.2 111.45 12.35 111.15 12.5 110.9 12.6 110.65 12.75 110.35 12.9 110.1 13.0 109.65 13.2 109.15 13.45 108.7 13.65 108.2 13.8 107.75 14.0 107.25 14.2 106.75 14.35 106.3 14.5 105.8 14.65 105.3 14.8 104.8 14.95 104.3 15.05 103.8 15.15 103.3 15.25 102.8 15.35 102.3 15.45 101.65 15.55 100.3 15.8 98.95 16.05 98.3 16.15 97.95 16.2 97.55 16.25 97.2 16.3 96.85 16.35 96.45 16.4 96.1 16.45 95.75 16.5 95.4 16.55 95.0 16.6 94.65 16.7 94.3 16.75 93.95 16.8 93.6 16.9 93.25 17.0 92.85 17.05 92.5 17.15 92.4 17.2 92.3 17.2 92.15 17.25 92.05 17.3 91.95 17.35 91.85 17.4 91.8 17.45 91.7 17.5 91.6 17.55 91.5 17.6 91.4 17.7 91.35 17.75 91.25 17.85 91.2 17.9 91.1 18.0 91.05 18.1 91.05 18.1 88.3 21.55 88.4 21.6 88.6 21.75 88.8 21.9 88.9 21.95 90.05 22.65 92.3 24.05 92.55 24.2 92.9 24.4 93.4 24.75 93.5 24.8 93.55 24.85 93.6 24.85 93.65 24.9 93.7 24.95 93.75 25.0 93.8 25.05 93.85 25.1 93.9 25.15 93.9 25.2 93.95 25.25 93.95 25.3 94.0 25.35 94.0 25.4 94.0 25.5 94.0 25.55 94.0 25.6 94.0 25.65 94.0 25.75 93.95 25.8 93.95 25.85 93.9 25.9 93.9 25.95 93.85 26.0 93.8 26.05 93.75 26.1 93.7 26.1 93.65 26.15 93.6 26.2 93.55 26.2 93.5 26.25 93.45 26.25 93.4 26.3 92.6 26.6 89.6 27.85 89.25 27.95 88.4 28.3 88.35 28.3 88.3 28.3 88.3 28.35 88.3 28.35 88.25 28.4 88.3 28.4 88.3 28.45 88.35 28.5 88.85 29.15 89.45 29.85 L89.45 29.85 M88.7 18.5 Q87.9 18.75 86.5 19.4 85.8 19.75 85.1 20.1 84.4 20.5 83.7 20.9 83.05 21.3 82.4 21.75 81.75 22.15 81.1 22.6 80.45 23.05 79.85 23.55 79.2 24.05 78.6 24.55 78.0 25.05 77.4 25.6 76.85 26.1 76.25 26.65 76.2 26.7 76.2 26.7 76.2 26.75 76.2 26.75 76.15 26.75 76.15 26.8 76.15 26.8 76.15 26.85 76.1 26.85 76.1 26.9 76.1 26.9 76.1 26.95 76.1 27.0 76.15 27.0 76.15 27.05 76.15 27.1 76.25 27.3 76.3 27.45 76.4 27.65 76.5 27.8 76.6 28.0 76.65 28.15 76.75 28.35 76.85 28.5 76.95 28.7 77.05 28.85 77.15 29.05 77.25 29.2 77.4 29.35 77.5 29.55 77.6 29.7 77.75 29.85 78.0 30.15 78.2 30.35 78.4 30.6 78.65 30.8 78.9 31.05 79.15 31.2 79.4 31.4 79.65 31.55 79.95 31.7 80.2 31.8 80.5 31.9 80.8 31.95 81.15 32.0 81.5 32.0 81.85 31.95 82.2 31.9 82.55 31.8 83.4 31.7 84.2 31.65 84.6 31.55 85.2 31.4 86.15 31.05 87.35 30.65 87.7 30.55 87.75 30.5 87.8 30.5 87.85 30.45 87.85 30.45 87.9 30.4 87.9 30.4 87.9 30.35 87.85 30.3 87.85 30.3 87.8 30.25 87.45 29.8 86.5 28.65 86.4 28.55 86.35 28.45 86.3 28.3 86.25 28.2 86.2 28.1 86.2 28.0 86.2 27.95 86.25 27.85 86.25 27.75 86.3 27.65 86.35 27.6 86.45 27.5 86.5 27.45 86.6 27.4 86.7 27.3 86.85 27.25 88.6 26.55 91.2 25.55 91.2 25.55 91.25 25.55 91.3 25.5 91.35 25.5 91.35 25.5 91.4 25.45 91.4 25.45 91.45 25.4 91.45 25.4 91.5 25.35 90.35 24.6 86.95 22.5 86.85 22.45 86.75 22.35 86.65 22.3 86.6 22.2 86.55 22.15 86.5 22.05 86.45 21.95 86.45 21.9 86.45 21.8 86.45 21.7 86.45 21.6 86.5 21.55 86.5 21.45 86.6 21.35 86.65 21.25 86.75 21.15 87.45 20.2 88.75 18.55 88.8 18.45 88.8 18.45 88.75 18.4 88.7 18.5 L88.7 18.5 M-59.15 27.6 Q-59.1 27.6 -59.05 27.55 -59.0 27.55 -58.95 27.5 -58.9 27.45 -58.85 27.45 -58.65 27.3 -58.45 27.15 -58.25 27.0 -58.0 26.85 -57.8 26.7 -57.6 26.5 -57.4 26.35 -57.2 26.2 -57.05 26.0 -56.85 25.85 -56.65 25.65 -56.45 25.5 -56.3 25.3 -56.1 25.15 -55.9 24.95 -55.7 24.75 -55.65 24.7 -55.65 24.65 -55.6 24.65 -55.55 24.6 -55.55 24.6 -55.55 24.55 -55.55 24.5 -55.55 24.5 -55.55 24.5 -55.55 24.45 -55.55 24.45 -55.6 24.4 -55.65 24.4 -55.7 24.35 -55.7 24.35 -55.8 24.3 -56.45 24.0 -57.1 23.65 -57.8 23.35 -58.45 23.05 -59.1 22.75 -59.8 22.45 -60.45 22.15 -61.15 21.85 -61.8 21.55 -62.5 21.3 -63.15 21.0 -63.85 20.75 -64.55 20.5 -65.2 20.2 -65.9 19.95 -66.6 19.7 -68.95 18.85 -72.6 17.85 -78.25 16.35 -78.7 16.2 -78.75 16.2 -78.8 16.2 -78.85 16.2 -78.85 16.2 -78.9 16.2 -78.95 16.2 -79.0 16.25 -79.05 16.25 -79.25 16.35 -79.45 16.5 -79.7 16.6 -79.9 16.7 -80.1 16.8 -80.35 16.9 -80.55 17.0 -80.8 17.1 -81.0 17.2 -81.25 17.3 -81.45 17.35 -81.7 17.45 -81.9 17.55 -82.15 17.65 -82.35 17.7 -82.6 17.8 -82.6 17.8 -82.65 17.8 -82.7 17.8 -82.7 17.8 -82.75 17.85 -82.8 17.85 -82.8 17.9 -82.8 17.95 -82.4 18.15 -82.25 18.2 -81.85 18.4 -81.4 18.55 -80.95 18.7 -80.5 18.9 -80.1 19.05 -79.65 19.15 -79.2 19.3 -78.75 19.45 -78.3 19.55 -77.85 19.7 -77.4 19.8 -76.95 19.9 -76.5 20.0 -76.05 20.1 -75.6 20.2 -75.15 20.3 -75.1 20.3 -75.0 20.35 -74.95 20.35 -74.9 20.4 -74.8 20.4 -74.75 20.45 -74.7 20.45 -74.65 20.5 -74.6 20.55 -74.6 20.55 -74.55 20.6 -74.5 20.65 -74.45 20.7 -74.45 20.75 -74.4 20.85 -74.4 20.9 -74.4 20.95 -74.4 21.05 -74.35 21.1 -74.4 21.15 -74.4 21.25 -74.4 21.3 -74.4 21.35 -74.45 21.4 -74.5 21.45 -74.5 21.5 -74.55 21.55 -74.6 21.6 -74.65 21.65 -74.7 21.7 -74.75 21.75 -74.8 21.8 -75.0 21.95 -76.0 22.8 -76.5 23.2 -77.55 24.0 -77.5 24.0 -77.5 24.05 -77.45 24.05 -77.45 24.1 -77.35 24.1 -77.2 24.2 -76.75 24.4 -76.25 24.55 -75.75 24.7 -75.3 24.85 -74.8 24.95 -74.3 25.05 -73.85 25.2 -73.3 25.25 -72.85 25.35 -72.35 25.45 -71.85 25.5 -71.35 25.6 -70.85 25.65 -70.35 25.7 -69.9 25.75 -69.35 25.8 -69.3 25.8 -69.2 25.8 -69.15 25.85 -69.1 25.85 -69.05 25.85 -68.95 25.9 -68.9 25.9 -68.85 25.95 -68.8 25.95 -68.75 26.0 -68.7 26.05 -68.7 26.1 -68.65 26.15 -68.6 26.2 -68.55 26.25 -68.55 26.3 -68.5 26.35 -68.5 26.45 -68.5 26.5 -68.5 26.55 -68.5 26.65 -68.5 26.7 -68.5 26.75 -68.5 26.8 -68.55 26.85 -68.55 26.9 -68.6 26.95 -68.6 27.05 -68.65 27.1 -68.7 27.15 -68.75 27.2 -68.8 27.25 -68.9 27.35 -69.0 27.5 -69.1 27.6 -69.2 27.7 -69.3 27.85 -69.4 27.95 -69.5 28.05 -69.6 28.2 -69.7 28.3 -69.8 28.45 -69.9 28.55 -70.0 28.7 -70.05 28.85 -70.15 28.95 -70.25 29.1 -70.35 29.25 -70.45 29.45 -70.45 29.4 -70.45 29.45 -70.5 29.5 -70.55 29.6 -70.6 29.65 -70.65 29.7 -70.65 29.8 -70.7 29.85 -70.75 29.9 -70.8 30.0 -70.8 30.05 -70.85 30.15 -70.9 30.2 -70.9 30.3 -70.95 30.4 -70.8 30.4 -70.6 30.35 -70.3 30.35 -70.25 30.35 -70.15 30.35 -68.85 30.25 -68.0 30.15 -67.45 30.15 -67.1 30.15 -66.75 30.1 -66.45 30.05 -66.1 30.05 -65.75 30.0 -65.45 29.95 -65.1 29.9 -64.8 29.85 -64.45 29.8 -64.1 29.7 -63.8 29.65 -63.45 29.55 -63.15 29.5 -62.85 29.4 -62.5 29.25 -62.2 29.15 -62.0 29.05 -61.8 29.0 -61.6 28.9 -61.4 28.85 -61.2 28.75 -61.0 28.65 -60.8 28.55 -60.6 28.45 -60.4 28.4 -60.25 28.3 -60.05 28.15 -59.85 28.05 -59.65 27.95 -59.5 27.85 -59.3 27.7 -59.15 27.6 L-59.15 27.6 M-77.75 28.3 Q-76.85 28.5 -75.35 28.85 -73.5 29.25 -72.95 29.4 -72.8 29.45 -72.75 29.45 -72.65 29.45 -72.55 29.45 -72.5 29.5 -72.45 29.45 -72.35 29.45 -72.3 29.45 -72.25 29.4 -72.25 29.35 -72.2 29.35 -72.15 29.25 -72.1 29.2 -72.05 29.1 -72.0 29.05 -71.9 28.9 -71.7 28.55 -71.25 27.9 -71.15 27.75 -70.8 27.2 -72.7 26.9 -73.3 26.8 -73.7 26.75 -74.05 26.65 -74.45 26.6 -74.85 26.5 -75.2 26.4 -75.6 26.3 -75.95 26.2 -76.35 26.1 -76.7 26.0 -77.05 25.85 -77.45 25.75 -77.8 25.6 -78.15 25.45 -78.5 25.25 -78.9 25.1 -79.2 24.9 -79.35 24.85 -79.45 24.75 -79.5 24.7 -79.6 24.6 -79.65 24.5 -79.7 24.45 -79.75 24.35 -79.75 24.25 -79.75 24.15 -79.75 24.05 -79.75 23.95 -79.7 23.85 -79.65 23.75 -79.55 23.7 -79.45 23.6 -79.35 23.5 -78.95 23.15 -78.25 22.65 -77.45 22.0 -77.15 21.75 -77.15 21.75 -77.05 21.7 -77.0 21.65 -76.95 21.6 -76.9 21.55 -76.9 21.5 -77.0 21.45 -78.25 21.15 -79.05 20.9 -79.6 20.75 -79.95 20.65 -80.35 20.55 -80.7 20.4 -81.05 20.3 -81.4 20.15 -81.75 20.05 -82.15 19.9 -82.5 19.75 -82.85 19.6 -83.2 19.45 -83.55 19.3 -83.85 19.1 -84.2 18.95 -84.55 18.75 -84.9 18.55 -85.2 18.35 -85.25 18.3 -85.3 18.3 -85.35 18.25 -85.4 18.2 -85.45 18.15 -85.5 18.1 -85.55 18.1 -85.55 18.05 -85.6 18.0 -85.6 17.9 -85.65 17.85 -85.65 17.8 -85.65 17.75 -85.65 17.7 -85.65 17.65 -85.65 17.55 -85.65 17.5 -85.6 17.45 -85.6 17.35 -85.55 17.3 -85.55 17.25 -85.5 17.25 -85.5 17.2 -85.45 17.15 -85.4 17.1 -85.35 17.05 -85.3 17.05 -85.25 17.0 -85.2 17.0 -85.15 16.95 -85.1 16.95 -85.0 16.95 -84.8 16.9 -84.45 16.8 -84.0 16.65 -83.9 16.6 -83.75 16.55 -83.55 16.5 -83.4 16.45 -83.25 16.4 -83.1 16.35 -82.9 16.3 -82.75 16.25 -82.6 16.2 -82.45 16.1 -82.3 16.05 -82.1 16.0 -81.95 15.95 -81.8 15.9 -81.65 15.8 -81.5 15.75 -81.3 15.65 -81.35 15.6 -81.4 15.6 -81.4 15.6 -81.45 15.6 -81.5 15.55 -81.55 15.55 -81.55 15.55 -81.6 15.55 -81.65 15.55 -81.7 15.55 -85.85 15.05 -88.35 14.75 -92.75 14.2 -93.45 14.15 -98.9 13.75 -101.8 13.3 -102.45 13.2 -103.1 13.1 -103.75 13.0 -104.35 12.85 -105.0 12.75 -105.65 12.6 -106.25 12.5 -106.9 12.35 -107.55 12.2 -108.15 12.05 -108.8 11.9 -109.4 11.7 -110.05 11.55 -110.65 11.35 -111.25 11.2 -111.9 11.0 -114.1 10.25 -117.15 8.95 -117.2 8.9 -117.2 8.9 -117.25 8.9 -117.3 8.95 -117.3 8.95 -117.25 9.05 -117.1 9.2 -116.95 9.4 -116.8 9.55 -116.6 9.75 -116.45 9.9 -116.3 10.05 -116.15 10.25 -115.95 10.4 -115.8 10.55 -115.65 10.75 -115.45 10.9 -115.3 11.05 -115.15 11.2 -114.95 11.35 -114.8 11.55 -114.6 11.7 -114.2 12.1 -113.75 12.45 -113.3 12.85 -112.85 13.2 -112.45 13.55 -112.0 13.9 -111.55 14.25 -111.1 14.6 -110.6 14.95 -110.15 15.3 -109.7 15.6 -109.2 15.95 -108.75 16.25 -108.25 16.55 -107.75 16.85 -107.3 17.15 -105.5 18.3 -103.0 19.55 -102.15 20.0 -101.25 20.45 -100.35 20.85 -99.45 21.25 -98.6 21.65 -97.7 22.05 -96.8 22.4 -95.85 22.8 -95.0 23.15 -94.05 23.5 -93.15 23.8 -92.2 24.15 -91.3 24.45 -90.35 24.8 -89.45 25.1 -88.5 25.4 -87.85 25.6 -87.15 25.8 -86.5 26.0 -85.85 26.2 -85.15 26.4 -84.5 26.6 -83.85 26.75 -83.15 26.95 -82.5 27.15 -81.8 27.3 -81.15 27.5 -80.45 27.65 -79.8 27.8 -79.1 28.0 -78.45 28.15 -77.75 28.3 L-77.75 28.3 M105.35 13.2 Q105.6 13.15 105.8 13.05 106.05 13.0 106.3 12.95 106.5 12.85 106.75 12.75 106.95 12.7 107.2 12.6 107.4 12.5 107.65 12.45 107.85 12.35 108.1 12.25 108.3 12.15 108.55 12.05 108.75 11.95 108.95 11.85 109.6 11.55 110.15 11.25 110.8 10.95 111.35 10.65 111.95 10.3 112.5 9.95 113.1 9.6 113.65 9.2 114.2 8.85 114.7 8.45 115.25 8.0 115.7 7.55 116.25 7.1 116.7 6.65 117.15 6.15 117.6 5.65 117.9 5.25 117.95 5.2 117.1 5.2 115.55 5.2 115.3 5.15 115.15 5.15 114.55 5.1 113.9 5.05 113.3 5.0 112.65 4.95 112.05 4.9 111.4 4.8 110.8 4.7 110.2 4.6 109.6 4.5 108.95 4.35 108.35 4.25 107.75 4.1 107.15 3.95 106.55 3.8 105.95 3.65 105.3 3.5 103.55 3.0 100.3 1.85 100.25 1.85 100.2 1.8 100.2 1.8 100.15 1.75 100.1 1.75 100.05 1.75 99.6 1.6 99.2 1.4 98.75 1.25 98.35 1.05 97.95 0.85 97.5 0.7 97.1 0.5 96.7 0.35 96.25 0.15 95.85 -0.05 95.45 -0.25 95.05 -0.45 94.65 -0.65 94.2 -0.85 93.8 -1.05 93.4 -1.25 89.85 -3.15 88.35 -3.75 87.85 -3.95 87.35 -4.15 86.8 -4.35 86.3 -4.5 85.8 -4.65 85.25 -4.8 84.75 -4.95 84.2 -5.05 83.7 -5.2 83.15 -5.25 82.65 -5.35 82.1 -5.45 81.55 -5.5 81.0 -5.5 80.45 -5.55 79.9 -5.55 79.75 -5.55 79.6 -5.55 79.45 -5.55 79.3 -5.55 79.1 -5.5 78.95 -5.5 78.8 -5.5 78.65 -5.45 78.5 -5.45 78.35 -5.4 78.15 -5.4 78.0 -5.35 77.85 -5.3 77.7 -5.3 77.55 -5.25 77.4 -5.2 77.85 -5.0 78.25 -4.85 78.65 -4.65 79.0 -4.45 79.35 -4.25 79.65 -4.0 79.95 -3.8 80.2 -3.55 80.45 -3.3 80.7 -3.0 80.95 -2.7 81.15 -2.4 81.35 -2.05 81.55 -1.7 81.75 -1.35 81.95 -0.9 81.95 -0.85 82.0 -0.8 82.0 -0.8 82.05 -0.75 82.05 -0.75 82.1 -0.75 82.1 -0.7 82.15 -0.7 82.15 -0.7 82.2 -0.7 82.2 -0.75 82.25 -0.75 82.25 -0.75 82.3 -0.75 82.35 -0.8 82.35 -0.8 82.55 -0.9 82.75 -0.95 82.95 -1.0 83.15 -1.05 83.35 -1.15 83.55 -1.15 83.75 -1.2 83.95 -1.25 84.15 -1.25 84.35 -1.25 84.55 -1.25 84.75 -1.25 84.95 -1.25 85.2 -1.25 85.4 -1.2 85.6 -1.15 86.05 -1.05 86.45 -0.95 86.85 -0.8 87.25 -0.6 87.6 -0.45 87.9 -0.2 88.25 0.0 88.55 0.3 88.85 0.55 89.1 0.85 89.35 1.15 89.6 1.5 89.8 1.85 90.0 2.25 90.2 2.6 90.35 3.0 90.45 3.2 90.5 3.4 90.55 3.6 90.6 3.8 90.65 4.0 90.7 4.2 90.75 4.4 90.75 4.6 90.8 4.8 90.8 5.0 90.85 5.2 90.85 5.4 90.85 5.6 90.85 5.8 90.85 6.0 90.85 6.2 90.85 6.45 90.8 6.7 90.75 6.95 90.7 7.2 90.65 7.45 90.6 7.7 90.5 7.95 90.45 8.2 90.35 8.45 90.25 8.7 90.15 8.9 90.05 9.15 89.9 9.4 89.8 9.6 89.65 9.8 89.5 10.05 89.45 10.1 89.4 10.15 89.35 10.25 89.3 10.3 89.0 10.7 88.65 11.0 88.3 11.35 87.95 11.6 87.55 11.85 87.15 12.05 86.75 12.3 86.35 12.4 85.9 12.55 85.45 12.6 85.0 12.7 84.55 12.7 84.1 12.7 83.65 12.6 83.2 12.5 82.75 12.35 82.35 12.2 82.0 12.05 81.7 11.9 81.35 11.7 81.05 11.5 80.75 11.25 80.5 11.0 80.25 10.75 80.0 10.45 79.8 10.15 79.55 9.85 79.4 9.55 79.2 9.2 79.05 8.85 78.85 8.5 78.75 8.15 78.75 8.1 78.7 8.05 78.7 8.0 78.65 7.95 78.65 7.95 78.65 7.9 78.6 7.9 78.6 7.85 78.55 7.85 78.5 7.85 78.5 7.85 78.45 7.85 78.4 7.85 78.4 7.9 78.35 7.9 78.3 7.9 78.2 7.95 78.05 8.0 77.95 8.05 77.85 8.1 77.75 8.15 77.6 8.2 77.5 8.25 77.35 8.25 77.25 8.3 77.15 8.35 77.0 8.35 76.9 8.4 76.8 8.4 76.65 8.45 76.55 8.45 76.4 8.45 76.2 8.5 75.95 8.5 75.75 8.55 75.55 8.55 75.3 8.55 75.1 8.55 74.85 8.55 74.65 8.5 74.45 8.5 74.2 8.45 74.0 8.4 73.8 8.4 73.55 8.35 73.35 8.25 73.15 8.2 72.9 8.15 72.9 8.2 72.95 8.45 73.0 9.15 73.2 11.1 73.35 12.75 73.45 13.75 73.5 14.3 73.55 14.8 73.55 15.35 73.6 15.85 73.65 16.4 73.7 16.9 73.75 17.4 73.85 17.9 73.9 18.45 73.95 18.95 74.05 19.5 74.1 20.0 74.2 20.5 74.3 21.05 74.4 21.55 74.5 22.05 74.55 22.25 74.6 22.45 74.65 22.7 74.7 22.9 74.75 23.1 74.8 23.3 74.85 23.5 74.9 23.7 74.95 23.9 75.0 24.1 75.05 24.3 75.15 24.5 75.2 24.7 75.25 24.9 75.35 25.1 75.4 25.3 75.5 25.3 75.55 25.25 75.5 25.3 75.65 25.15 75.8 25.0 75.95 24.85 76.1 24.7 76.3 24.55 76.45 24.4 76.6 24.3 76.75 24.15 76.95 24.0 77.1 23.85 77.25 23.7 77.4 23.55 77.6 23.4 77.75 23.3 77.9 23.15 78.1 23.0 78.25 22.85 79.1 22.15 80.0 21.5 80.9 20.9 81.8 20.3 82.7 19.7 83.65 19.2 84.6 18.65 85.55 18.2 86.5 17.7 87.5 17.3 88.5 16.85 89.55 16.5 90.55 16.15 91.6 15.85 92.65 15.55 93.75 15.3 94.35 15.15 95.3 15.0 96.65 14.8 96.9 14.75 97.0 14.75 97.1 14.75 97.15 14.75 97.25 14.75 97.35 14.75 97.45 14.7 97.55 14.7 97.6 14.7 97.7 14.7 97.8 14.7 97.9 14.65 98.0 14.65 98.05 14.65 98.15 14.65 98.25 14.6 98.35 14.6 102.15 13.9 102.65 13.8 104.85 13.4 105.35 13.2 L105.35 13.2 M-55.65 -6.65 Q-56.0 -6.75 -57.05 -6.95 -57.6 -7.05 -58.2 -7.1 -58.75 -7.2 -59.3 -7.25 -59.85 -7.3 -60.45 -7.35 -61.0 -7.4 -61.55 -7.45 -62.15 -7.45 -62.7 -7.45 -63.25 -7.5 -63.85 -7.45 -64.4 -7.45 -64.95 -7.45 -65.5 -7.45 -66.1 -7.4 -66.85 -7.35 -67.65 -7.3 -68.4 -7.2 -69.15 -7.1 -69.9 -7.05 -70.65 -6.9 -71.4 -6.8 -72.2 -6.7 -72.9 -6.55 -73.7 -6.4 -74.4 -6.25 -75.2 -6.1 -75.9 -5.95 -76.7 -5.75 -77.4 -5.6 -78.15 -5.4 -80.5 -4.8 -83.65 -3.75 -77.7 -5.75 -89.0 -1.85 -90.0 -1.5 -90.95 -1.2 -91.95 -0.85 -92.95 -0.55 -93.95 -0.25 -94.95 0.0 -95.9 0.3 -96.9 0.55 -97.9 0.85 -98.9 1.1 -99.95 1.35 -100.95 1.55 -101.95 1.8 -102.95 2.0 -103.95 2.25 -105.0 2.45 -105.75 2.55 -107.35 2.9 -107.6 2.9 -108.15 3.0 -108.7 3.05 -109.0 3.1 -114.4 3.55 -121.0 4.1 -121.2 4.1 -122.15 4.2 -122.15 4.25 -122.15 4.3 -122.1 4.3 -122.1 4.35 -122.05 4.35 -122.05 4.4 -122.0 4.4 -121.95 4.45 -121.55 4.75 -121.15 5.0 -120.75 5.3 -120.3 5.55 -119.9 5.8 -119.45 6.05 -119.05 6.3 -118.6 6.55 -118.15 6.8 -117.7 7.0 -117.25 7.25 -116.8 7.45 -116.35 7.65 -115.9 7.85 -115.45 8.05 -114.95 8.25 -113.8 8.7 -112.65 9.15 -111.5 9.55 -110.3 9.9 -109.1 10.25 -107.9 10.55 -106.75 10.85 -105.5 11.1 -104.35 11.35 -103.1 11.55 -101.9 11.8 -100.65 11.95 -99.45 12.1 -98.2 12.25 -97.0 12.35 -95.75 12.45 -95.5 12.45 -86.1 13.5 -85.8 13.55 -84.55 13.7 -83.6 13.8 -83.0 13.85 -82.7 13.9 -82.1 14.0 -81.45 14.05 -81.2 14.1 -79.85 14.35 -74.2 15.85 -67.15 17.8 -63.85 19.1 -63.25 19.35 -62.65 19.55 -62.1 19.8 -61.5 20.05 -60.9 20.3 -60.3 20.55 -59.75 20.8 -59.15 21.05 -58.55 21.3 -58.0 21.6 -57.4 21.85 -56.85 22.1 -56.25 22.4 -55.7 22.65 -55.1 22.95 -54.55 23.2 -54.55 23.2 -54.5 23.25 -54.45 23.25 -54.45 23.25 -54.4 23.3 -54.4 23.3 -54.35 23.3 -54.35 23.3 -54.3 23.3 -54.3 23.3 -54.25 23.3 -54.25 23.3 -54.2 23.3 -54.15 23.3 -54.15 23.3 -54.1 23.25 -52.65 22.1 -52.6 22.05 -52.4 21.85 -52.2 21.65 -52.05 21.4 -51.85 21.2 -51.7 20.95 -51.55 20.7 -51.35 20.5 -51.2 20.25 -51.1 20.0 -50.95 19.75 -50.8 19.5 -50.7 19.25 -50.55 19.0 -50.45 18.75 -50.3 18.5 -50.2 18.2 -50.0 17.75 -49.85 17.3 -49.7 16.9 -49.55 16.45 -49.4 16.0 -49.25 15.55 -49.15 15.1 -49.0 14.6 -48.9 14.15 -48.8 13.7 -48.7 13.25 -48.6 12.75 -48.5 12.3 -48.4 11.85 -48.3 11.4 -48.25 10.9 -47.55 6.95 -47.4 -1.3 -47.45 -3.0 -47.45 -3.4 -47.45 -3.45 -47.45 -3.5 -47.5 -3.55 -47.5 -3.55 -47.55 -3.6 -47.55 -3.6 -47.6 -3.65 -47.65 -3.65 -47.8 -3.75 -47.7 -3.7 -47.95 -3.85 -48.2 -3.95 -48.45 -4.1 -48.7 -4.2 -48.95 -4.35 -49.2 -4.45 -49.45 -4.6 -49.7 -4.7 -49.95 -4.8 -50.2 -4.9 -50.45 -5.05 -50.7 -5.15 -50.95 -5.25 -51.2 -5.35 -51.45 -5.45 -51.75 -5.55 -52.0 -5.65 -52.2 -5.7 -52.45 -5.8 -52.7 -5.85 -52.95 -5.95 -53.2 -6.0 -53.4 -6.1 -53.65 -6.15 -53.9 -6.25 -54.15 -6.3 -54.4 -6.35 -54.65 -6.45 -54.9 -6.5 -55.15 -6.55 -55.4 -6.6 -55.65 -6.65 L-55.65 -6.65 M4.1 -30.0 Q3.9 -30.2 2.6 -30.95 1.5 -31.6 0.4 -32.2 -0.75 -32.8 -1.85 -33.35 -3.0 -33.85 -4.15 -34.35 -5.3 -34.8 -6.45 -35.25 -7.65 -35.65 -8.8 -36.0 -10.05 -36.3 -11.25 -36.6 -12.45 -36.85 -13.7 -37.05 -14.95 -37.25 -16.2 -37.35 -16.7 -37.4 -17.15 -37.45 -17.65 -37.45 -18.1 -37.5 -18.6 -37.55 -19.05 -37.55 -19.55 -37.6 -20.0 -37.6 -20.5 -37.6 -20.95 -37.6 -21.45 -37.6 -21.95 -37.6 -22.4 -37.6 -22.9 -37.55 -23.35 -37.55 -23.85 -37.5 -24.4 -37.45 -24.9 -37.4 -25.45 -37.3 -25.95 -37.25 -26.5 -37.15 -27.0 -37.05 -27.5 -36.95 -28.0 -36.85 -28.55 -36.75 -29.05 -36.6 -29.55 -36.45 -30.05 -36.3 -30.55 -36.15 -31.05 -35.95 -31.55 -35.75 -32.05 -35.55 -32.15 -35.5 -32.45 -35.4 -32.7 -35.3 -32.85 -35.2 -33.1 -35.15 -33.25 -35.05 -33.45 -34.95 -33.65 -34.85 -33.85 -34.75 -34.0 -34.65 -34.2 -34.5 -34.4 -34.4 -34.55 -34.25 -34.7 -34.1 -34.9 -33.95 -35.05 -33.8 -35.2 -33.6 -35.25 -33.55 -35.35 -33.4 -35.45 -33.3 -35.55 -33.2 -35.65 -33.05 -35.75 -32.95 -35.85 -32.8 -35.95 -32.65 -36.05 -32.55 -36.1 -32.4 -36.2 -32.3 -36.3 -32.15 -36.35 -32.0 -36.45 -31.85 -36.5 -31.7 -36.65 -31.35 -36.75 -31.0 -36.9 -30.65 -36.95 -30.3 -37.0 -29.95 -37.05 -29.6 -37.05 -29.25 -37.0 -28.9 -37.0 -28.55 -36.95 -28.2 -36.9 -27.85 -36.8 -27.5 -36.7 -27.15 -36.55 -26.8 -36.45 -26.5 -36.25 -26.15 -35.4 -24.25 -33.0 -19.45 -33.0 -19.4 -32.95 -19.35 -32.9 -19.25 -32.9 -19.2 -32.85 -19.15 -32.85 -19.1 -32.8 -19.0 -32.8 -18.95 -32.75 -18.9 -32.7 -18.85 -32.65 -18.8 -32.65 -18.75 -32.6 -18.7 -32.55 -18.65 -32.5 -18.6 -32.45 -18.55 -32.1 -18.15 -31.55 -17.5 -30.8 -16.65 -30.6 -16.45 -30.5 -16.35 -30.45 -16.25 -30.4 -16.15 -30.35 -16.1 -30.3 -16.0 -30.3 -15.95 -30.3 -15.85 -30.3 -15.75 -30.3 -15.7 -30.3 -15.6 -30.35 -15.55 -30.4 -15.45 -30.45 -15.4 -30.5 -15.3 -30.55 -15.2 -30.65 -15.1 -30.9 -14.85 -31.15 -14.6 -31.4 -14.35 -31.65 -14.1 -31.9 -13.8 -32.15 -13.55 -32.4 -13.3 -32.6 -13.0 -32.85 -12.75 -33.1 -12.45 -33.3 -12.2 -33.55 -11.9 -33.75 -11.65 -33.95 -11.35 -34.2 -11.05 -34.4 -10.8 -34.65 -10.45 -34.9 -10.05 -35.15 -9.65 -35.35 -9.25 -35.55 -8.9 -35.7 -8.5 -35.9 -8.1 -36.05 -7.65 -36.2 -7.25 -36.3 -6.85 -36.4 -6.4 -36.5 -6.0 -36.6 -5.55 -36.65 -5.1 -36.7 -4.7 -36.75 -4.25 -36.75 -4.1 -36.75 -3.9 -36.75 -3.75 -36.75 -3.6 -36.7 -3.45 -36.7 -3.25 -36.65 -3.15 -36.65 -2.95 -36.6 -2.8 -36.55 -2.65 -36.55 -2.55 -36.5 -2.35 -36.45 -2.15 -36.4 -2.0 -36.35 -1.85 -36.35 -1.7 -36.25 -1.1 -36.05 -0.55 -35.9 0.0 -35.65 0.5 -35.45 1.05 -35.15 1.5 -34.9 1.95 -34.55 2.4 -34.2 2.85 -33.85 3.25 -33.45 3.6 -33.0 3.95 -32.55 4.3 -32.1 4.6 -31.6 4.9 -31.05 5.2 -30.7 5.35 -30.35 5.5 -30.0 5.65 -29.65 5.75 -29.3 5.85 -28.95 5.95 -28.6 6.05 -28.2 6.15 -27.85 6.2 -27.5 6.25 -27.1 6.3 -26.75 6.35 -26.4 6.4 -26.0 6.45 -25.65 6.45 -25.25 6.5 -24.75 6.5 -24.25 6.5 -23.75 6.5 -23.2 6.5 -22.7 6.5 -22.2 6.45 -21.7 6.4 -21.2 6.35 -20.7 6.3 -20.15 6.25 -19.7 6.2 -19.15 6.15 -18.7 6.1 -18.15 6.0 -17.7 5.95 -17.15 5.85 -16.4 5.75 -15.7 5.65 -14.95 5.5 -14.25 5.35 -13.5 5.25 -12.8 5.1 -12.1 4.9 -11.35 4.75 -10.65 4.6 -9.95 4.4 -9.25 4.2 -8.5 4.0 -7.8 3.8 -7.1 3.55 -6.4 3.35 -5.7 3.1 -4.9 2.8 -4.15 2.55 -3.4 2.25 -2.65 1.95 -1.9 1.65 -1.15 1.35 -0.4 1.0 0.35 0.65 1.1 0.3 1.8 -0.05 2.55 -0.4 3.25 -0.8 3.95 -1.2 4.65 -1.6 5.35 -2.0 6.05 -2.45 6.55 -2.75 7.0 -3.1 7.45 -3.45 7.95 -3.8 8.4 -4.15 8.8 -4.55 9.25 -4.9 9.7 -5.3 10.1 -5.65 10.5 -6.05 10.95 -6.45 11.35 -6.9 11.75 -7.3 12.15 -7.7 12.5 -8.1 12.9 -8.55 12.95 -8.6 12.95 -8.6 13.0 -8.65 13.0 -8.7 13.05 -8.7 13.05 -8.75 13.05 -8.8 13.05 -8.85 13.05 -8.9 13.0 -8.95 12.85 -9.25 12.7 -9.55 12.55 -9.85 12.45 -10.15 12.3 -10.45 12.2 -10.8 12.1 -11.1 12.0 -11.45 11.9 -11.75 11.85 -12.05 11.75 -12.4 11.65 -12.7 11.6 -13.05 11.55 -13.4 11.45 -13.7 11.4 -14.05 11.35 -14.35 11.3 -14.65 11.25 -14.95 11.2 -15.25 11.15 -15.55 11.15 -15.8 11.1 -16.15 11.1 -16.4 11.05 -16.7 11.05 -17.0 11.05 -17.3 11.1 -17.6 11.1 -17.9 11.15 -18.2 11.15 -18.5 11.25 -18.8 11.3 -19.05 11.35 -19.25 11.4 -19.5 11.45 -19.75 11.5 -20.0 11.55 -20.2 11.6 -20.45 11.65 -20.7 11.7 -20.9 11.75 -21.15 11.8 -21.4 11.85 -21.6 11.9 -21.85 11.95 -22.1 12.05 -22.3 12.1 -22.55 12.1 -22.6 12.15 -22.65 12.15 -22.7 12.15 -22.75 12.15 -22.8 12.15 -22.85 12.15 -22.9 12.1 -22.95 12.1 -23.0 12.1 -23.0 12.05 -23.05 12.05 -23.1 12.0 -23.15 12.0 -23.2 11.95 -23.2 11.9 -23.25 11.15 -24.0 10.05 -25.1 8.4 -26.75 8.2 -26.95 8.0 -27.15 7.75 -27.4 7.5 -27.6 7.25 -27.8 7.0 -28.0 6.75 -28.2 6.5 -28.35 6.2 -28.55 6.0 -28.75 5.7 -28.95 5.55 -29.0 5.15 -29.3 4.85 -29.5 4.65 -29.65 4.35 -29.85 4.1 -30.0 L4.1 -30.0 M63.5 -15.7 Q63.6 -15.85 63.95 -16.65 64.15 -17.05 64.3 -17.4 64.45 -17.8 64.65 -18.15 64.8 -18.55 64.9 -18.95 65.05 -19.35 65.15 -19.75 65.3 -20.15 65.4 -20.55 65.45 -20.95 65.55 -21.35 65.65 -21.75 65.7 -22.15 65.75 -22.6 65.8 -23.0 65.9 -23.85 65.4 -26.9 65.35 -27.4 65.2 -27.85 65.1 -28.3 64.9 -28.75 64.75 -29.15 64.5 -29.55 64.3 -29.95 64.05 -30.3 63.75 -30.65 63.45 -30.95 63.15 -31.25 62.75 -31.55 62.4 -31.8 62.0 -32.1 61.6 -32.3 61.15 -32.55 60.85 -32.7 60.55 -32.85 60.2 -32.95 59.9 -33.1 59.55 -33.2 59.25 -33.3 58.9 -33.4 58.6 -33.5 58.25 -33.6 57.9 -33.65 57.6 -33.7 57.25 -33.8 56.9 -33.85 56.55 -33.9 56.25 -33.95 55.9 -34.0 53.75 -34.25 50.1 -34.2 49.6 -34.2 49.1 -34.2 48.65 -34.2 48.15 -34.15 47.65 -34.15 47.2 -34.1 46.7 -34.05 46.2 -34.0 45.75 -34.0 45.25 -33.95 44.75 -33.85 44.3 -33.8 43.8 -33.75 43.35 -33.65 42.85 -33.6 42.4 -33.5 41.6 -33.35 40.8 -33.2 40.0 -33.05 39.25 -32.85 38.45 -32.65 37.65 -32.4 36.9 -32.2 36.15 -31.95 35.4 -31.7 34.65 -31.4 33.9 -31.1 33.15 -30.8 32.4 -30.5 31.65 -30.15 30.95 -29.8 30.2 -29.45 29.65 -29.15 29.15 -28.9 28.6 -28.6 28.1 -28.3 27.55 -28.0 27.1 -27.75 26.55 -27.4 26.05 -27.1 25.55 -26.8 25.1 -26.45 24.6 -26.1 24.1 -25.75 23.65 -25.4 23.15 -25.05 22.7 -24.65 22.25 -24.25 22.2 -24.2 22.15 -24.15 22.1 -24.1 22.1 -24.1 22.1 -24.05 22.1 -24.0 22.1 -23.95 22.15 -23.9 22.15 -23.85 22.2 -23.8 22.4 -23.6 22.55 -23.4 22.7 -23.2 22.85 -22.95 22.95 -22.75 23.1 -22.55 23.2 -22.3 23.35 -22.1 23.45 -21.85 23.5 -21.6 23.6 -21.4 23.65 -21.15 23.75 -20.9 23.8 -20.65 23.85 -20.4 23.85 -20.15 23.95 -19.45 24.0 -18.35 24.15 -16.9 24.2 -16.55 24.2 -16.35 24.2 -16.15 24.2 -16.0 24.2 -15.8 24.2 -15.6 24.2 -15.4 24.2 -15.25 24.2 -15.05 24.2 -14.85 24.15 -14.65 24.15 -14.45 24.1 -14.3 24.1 -14.1 24.05 -13.9 24.05 -13.7 24.0 -13.5 23.95 -13.25 23.9 -12.95 23.85 -12.7 23.75 -12.4 23.7 -12.15 23.6 -11.85 23.5 -11.6 23.4 -11.35 23.3 -11.1 23.2 -10.8 23.1 -10.55 23.0 -10.3 22.9 -10.05 22.75 -9.75 22.75 -9.7 22.5 -9.25 22.5 -9.2 22.45 -9.15 22.45 -9.15 22.45 -9.1 22.4 -9.05 22.4 -9.0 22.4 -8.95 22.4 -8.95 22.4 -8.9 22.4 -8.85 22.4 -8.75 22.4 -8.65 22.45 -8.55 22.45 -8.45 22.45 -8.35 22.5 -8.3 22.5 -8.2 22.55 -8.1 22.6 -8.0 22.6 -7.95 22.65 -7.85 22.75 -7.8 22.8 -7.7 22.85 -7.65 22.95 -7.6 23.05 -7.55 23.1 -7.55 23.1 -7.5 23.15 -7.45 23.2 -7.45 23.2 -7.4 23.25 -7.4 23.3 -7.35 23.3 -7.35 23.35 -7.3 23.4 -7.25 23.4 -7.25 23.45 -7.2 23.5 -7.15 23.5 -7.15 23.55 -7.1 23.55 -7.1 25.6 -5.4 31.95 -0.95 32.45 -0.6 32.9 -0.3 33.35 0.0 33.8 0.3 34.3 0.6 34.75 0.9 35.25 1.2 35.7 1.5 36.2 1.8 36.65 2.05 37.15 2.35 37.65 2.6 38.15 2.85 38.65 3.1 39.15 3.35 39.65 3.6 40.15 3.85 40.6 4.05 41.1 4.25 41.6 4.45 42.1 4.65 42.6 4.8 43.1 5.0 43.6 5.15 44.1 5.3 44.6 5.45 45.1 5.6 45.6 5.7 46.15 5.8 46.65 5.9 47.2 5.95 47.7 6.0 48.3 6.05 48.85 6.1 49.45 6.15 50.0 6.2 50.6 6.25 51.15 6.25 51.75 6.3 52.3 6.3 52.9 6.35 53.45 6.35 54.05 6.35 54.6 6.35 55.2 6.35 55.75 6.35 56.35 6.3 56.9 6.3 57.15 6.3 57.3 6.3 57.55 6.25 57.7 6.25 57.95 6.25 58.15 6.2 58.35 6.2 58.55 6.15 58.75 6.15 58.95 6.1 59.15 6.05 59.35 6.0 59.55 5.95 59.75 5.9 59.95 5.85 60.15 5.75 60.5 5.6 60.85 5.45 61.2 5.3 61.5 5.15 61.85 4.95 62.15 4.8 62.45 4.6 62.8 4.4 63.1 4.2 63.4 4.0 63.7 3.75 64.0 3.55 64.3 3.35 64.6 3.1 64.9 2.9 65.2 2.65 65.4 2.5 65.55 2.35 65.7 2.2 65.85 2.0 65.95 1.85 66.1 1.7 66.2 1.5 66.3 1.3 66.4 1.15 66.45 0.95 66.55 0.75 66.6 0.55 66.65 0.35 66.7 0.1 66.75 -0.1 66.8 -0.3 66.85 -0.55 66.85 -0.8 66.85 -1.1 66.85 -1.35 66.85 -1.6 66.85 -1.85 66.8 -2.1 66.75 -2.35 66.75 -2.6 66.7 -2.85 66.65 -3.1 66.6 -3.35 66.55 -3.6 66.5 -3.85 66.4 -4.1 66.35 -4.35 66.2 -4.95 66.05 -5.55 65.85 -6.1 65.65 -6.7 65.45 -7.25 65.25 -7.85 65.05 -8.4 64.8 -8.95 64.6 -9.5 64.35 -10.1 64.1 -10.65 63.85 -11.2 63.6 -11.75 63.35 -12.3 63.1 -12.8 62.8 -13.4 62.8 -13.45 62.75 -13.5 62.75 -13.55 62.7 -13.6 62.7 -13.65 62.7 -13.7 62.65 -13.75 62.65 -13.8 62.65 -13.85 62.65 -13.9 62.65 -13.95 62.6 -14.0 62.6 -14.05 62.6 -14.1 62.6 -14.15 62.65 -14.2 62.9 -14.7 63.5 -15.7 L63.5 -15.7 M13.85 -7.3 Q13.55 -6.95 13.25 -6.65 12.95 -6.35 12.65 -6.0 12.35 -5.7 12.05 -5.4 11.7 -5.05 11.4 -4.75 11.05 -4.45 10.75 -4.15 10.4 -3.85 10.05 -3.55 9.7 -3.3 9.35 -3.0 9.0 -2.7 8.65 -2.45 8.6 -2.4 8.6 -2.4 8.55 -2.35 8.55 -2.3 8.55 -2.3 8.55 -2.25 8.55 -2.2 8.55 -2.15 8.7 -1.8 8.85 -1.45 9.05 -1.05 9.2 -0.75 9.4 -0.4 9.55 -0.05 9.75 0.3 9.95 0.6 10.15 0.95 10.4 1.25 10.6 1.55 10.85 1.85 11.1 2.15 11.35 2.45 11.6 2.75 11.9 3.0 12.2 3.3 12.55 3.6 12.85 3.85 13.2 4.1 13.55 4.35 13.9 4.6 14.3 4.8 14.65 5.0 15.0 5.2 15.4 5.35 15.8 5.55 16.2 5.7 16.6 5.8 17.0 5.95 17.45 6.05 17.85 6.15 18.1 6.2 18.3 6.25 18.5 6.3 18.7 6.35 18.95 6.4 19.15 6.4 19.35 6.45 19.55 6.5 19.8 6.5 20.0 6.55 20.2 6.55 20.45 6.55 20.65 6.55 20.85 6.55 21.1 6.55 21.3 6.55 21.65 6.5 22.0 6.45 22.35 6.4 22.65 6.3 22.95 6.15 23.25 6.05 23.55 5.9 23.85 5.7 24.1 5.55 24.35 5.3 24.6 5.1 24.85 4.85 25.05 4.6 25.3 4.3 25.5 4.05 25.65 3.7 25.85 3.35 26.0 3.05 26.15 2.7 26.3 2.35 26.45 2.0 26.55 1.65 26.65 1.3 26.75 0.9 26.85 0.55 26.95 0.2 27.0 -0.15 27.05 -0.55 27.1 -0.9 27.15 -1.3 27.2 -1.65 27.25 -2.05 27.25 -2.1 27.25 -2.15 27.25 -2.15 27.25 -2.2 27.25 -2.25 27.25 -2.25 27.25 -2.3 27.2 -2.35 27.2 -2.35 27.2 -2.4 27.15 -2.4 27.15 -2.45 27.1 -2.45 27.1 -2.5 27.05 -2.5 27.05 -2.55 23.05 -5.4 21.35 -7.05 21.3 -7.1 21.25 -7.1 21.2 -7.15 21.2 -7.15 21.15 -7.15 21.15 -7.15 21.1 -7.1 21.05 -7.1 21.05 -7.05 21.0 -7.05 20.9 -6.95 20.8 -6.85 20.75 -6.8 20.65 -6.7 20.55 -6.6 20.4 -6.55 20.3 -6.5 20.2 -6.45 20.1 -6.35 20.0 -6.3 19.9 -6.25 19.75 -6.25 19.65 -6.2 19.5 -6.15 19.4 -6.15 19.25 -6.1 18.9 -6.05 18.55 -6.05 18.2 -6.05 17.85 -6.05 17.5 -6.05 17.15 -6.15 16.8 -6.2 16.45 -6.25 16.15 -6.35 15.8 -6.45 15.45 -6.55 15.15 -6.7 14.8 -6.85 14.5 -7.0 14.15 -7.15 13.85 -7.3 L13.85 -7.3 M-53.0 -10.4 Q-53.0 -10.25 -53.0 -10.05 -52.95 -9.85 -52.9 -9.7 -52.9 -9.5 -52.85 -9.3 -52.8 -9.1 -52.7 -8.9 -52.65 -8.7 -52.55 -8.5 -52.5 -8.3 -52.4 -8.15 -52.25 -7.95 -52.15 -7.75 -52.0 -7.55 -51.9 -7.35 -51.85 -7.3 -51.85 -7.3 -51.8 -7.25 -51.8 -7.25 -51.75 -7.25 -51.75 -7.2 -51.7 -7.2 -51.7 -7.15 -51.65 -7.15 -51.65 -7.15 -51.6 -7.1 -51.55 -7.1 -51.55 -7.1 -51.5 -7.05 -51.45 -7.05 -51.45 -7.05 -51.2 -6.95 -50.95 -6.85 -50.7 -6.75 -50.45 -6.65 -50.2 -6.55 -49.95 -6.45 -49.7 -6.35 -49.45 -6.25 -49.2 -6.15 -48.95 -6.05 -48.75 -5.95 -48.5 -5.8 -48.25 -5.7 -48.0 -5.6 -47.8 -5.45 -47.55 -5.35 -47.5 -5.35 -47.5 -5.3 -47.45 -5.3 -47.4 -5.3 -47.4 -5.25 -47.35 -5.25 -47.3 -5.25 -47.3 -5.25 -47.25 -5.25 -47.2 -5.25 -47.2 -5.25 -47.15 -5.2 -47.1 -5.2 -47.05 -5.2 -47.05 -5.2 -47.0 -5.25 -46.4 -5.3 -45.8 -5.5 -45.25 -5.65 -44.75 -5.95 -44.25 -6.25 -43.8 -6.6 -43.4 -7.0 -43.05 -7.45 -42.75 -7.9 -42.5 -8.4 -42.25 -8.95 -42.15 -9.5 -42.0 -10.05 -42.0 -10.65 -42.0 -11.25 -42.15 -11.85 -42.25 -12.35 -42.45 -12.85 -42.65 -13.3 -42.9 -13.7 -43.2 -14.15 -43.55 -14.5 -43.9 -14.85 -44.3 -15.15 -44.7 -15.45 -45.1 -15.65 -45.55 -15.85 -46.05 -16.0 -46.55 -16.1 -47.05 -16.15 -47.55 -16.2 -48.05 -16.15 -48.6 -16.1 -49.1 -15.95 -49.55 -15.8 -50.0 -15.55 -50.45 -15.35 -50.85 -15.0 -51.25 -14.7 -51.6 -14.35 -51.9 -13.95 -52.15 -13.5 -52.45 -13.05 -52.6 -12.6 -52.8 -12.05 -52.9 -11.55 -53.0 -10.95 -53.0 -10.4 L-53.0 -10.4" fill="#030303" fill-rule="evenodd" stroke="none"/>
    <path d="M-32.45 -18.55 Q-32.25 -18.6 -32.1 -18.6 -31.9 -18.6 -31.75 -18.55 -31.55 -18.55 -31.4 -18.5 -31.25 -18.45 -31.05 -18.4 -30.9 -18.3 -30.75 -18.25 -30.6 -18.15 -30.5 -18.05 -30.35 -17.95 -30.2 -17.85 -30.05 -17.75 -29.9 -17.65 -29.75 -17.5 -29.6 -17.35 -29.45 -17.2 -29.3 -17.05 -29.15 -16.9 -29.05 -16.75 -28.9 -16.6 -28.75 -16.4 -28.65 -16.25 -28.5 -16.1 -28.4 -15.9 -28.3 -15.75 -28.15 -15.55 -28.05 -15.4 -27.95 -15.2 -27.85 -15.0 -27.75 -14.85 -27.7 -14.7 -27.65 -14.6 -27.65 -14.45 -27.6 -14.3 -27.6 -14.15 -27.55 -14.0 -27.6 -13.85 -27.6 -13.75 -27.6 -13.6 -27.65 -13.45 -27.7 -13.3 -27.75 -13.15 -27.8 -13.0 -27.85 -12.9 -27.95 -12.75 -29.2 -10.35 -29.6 -9.45 -29.75 -9.15 -29.85 -8.85 -29.95 -8.5 -30.05 -8.2 -30.2 -7.9 -30.3 -7.55 -30.4 -7.25 -30.5 -6.95 -30.6 -6.6 -30.7 -6.3 -30.75 -5.95 -30.85 -5.65 -30.95 -5.35 -31.0 -5.0 -31.1 -4.65 -31.15 -4.35 -31.15 -4.3 -31.15 -4.3 -31.15 -4.25 -31.15 -4.2 -31.15 -4.2 -31.15 -4.15 -31.15 -4.15 -31.15 -4.1 -31.15 -4.1 -31.15 -4.05 -31.1 -4.05 -31.1 -4.0 -31.1 -4.0 -31.05 -3.95 -31.05 -3.95 -31.0 -3.9 -30.6 -3.45 -30.15 -3.1 -29.75 -2.7 -29.3 -2.3 -28.85 -1.95 -28.4 -1.6 -27.9 -1.25 -27.45 -0.95 -26.95 -0.65 -26.45 -0.35 -25.95 -0.05 -25.45 0.15 -24.9 0.4 -24.35 0.65 -23.8 0.85 -23.25 1.05 -23.0 1.1 -22.75 1.2 -22.5 1.25 -22.25 1.3 -22.0 1.35 -21.75 1.4 -21.5 1.45 -21.25 1.5 -21.0 1.55 -20.75 1.6 -20.5 1.65 -20.25 1.65 -20.0 1.7 -19.75 1.7 -19.5 1.75 -19.25 1.75 -18.6 1.8 -17.95 1.8 -17.3 1.75 -16.65 1.7 -16.05 1.65 -15.4 1.55 -14.75 1.45 -14.15 1.35 -13.5 1.2 -12.9 1.05 -12.3 0.9 -11.65 0.7 -11.05 0.5 -10.45 0.25 -9.85 0.05 -9.25 -0.2 -8.55 -0.5 -7.85 -0.8 -7.15 -1.15 -6.5 -1.5 -5.8 -1.8 -5.15 -2.2 -4.5 -2.55 -3.8 -2.95 -3.15 -3.35 -2.55 -3.75 -1.9 -4.15 -1.25 -4.6 -0.65 -5.05 -0.05 -5.5 0.6 -5.95 1.2 -6.4 1.5 -6.65 1.8 -6.9 2.15 -7.15 2.45 -7.4 2.75 -7.65 3.05 -7.95 3.35 -8.2 3.65 -8.45 3.9 -8.75 4.2 -9.0 4.5 -9.3 4.8 -9.55 5.05 -9.85 5.35 -10.1 5.65 -10.4 5.9 -10.7 6.05 -10.85 6.25 -11.05 6.4 -11.2 6.55 -11.4 6.7 -11.55 6.85 -11.75 7.0 -11.9 7.15 -12.1 7.3 -12.25 7.5 -12.45 7.65 -12.6 7.8 -12.8 7.95 -13.0 8.1 -13.15 8.2 -13.35 8.35 -13.55 8.45 -13.65 8.8 -14.35 8.8 -14.4 8.85 -14.4 8.85 -14.45 8.85 -14.45 8.85 -14.5 8.85 -14.5 8.85 -14.55 8.85 -14.55 8.85 -14.6 8.85 -14.6 8.85 -14.65 8.85 -14.65 8.85 -14.7 8.8 -14.75 8.8 -14.75 8.8 -14.8 8.65 -15.05 8.5 -15.25 8.35 -15.45 8.15 -15.65 8.0 -15.85 7.8 -16.0 7.6 -16.15 7.4 -16.25 7.2 -16.4 6.95 -16.5 6.7 -16.6 6.5 -16.7 6.25 -16.75 6.0 -16.8 5.75 -16.9 5.45 -16.9 5.2 -16.95 4.95 -16.95 4.7 -17.0 4.45 -17.0 4.2 -17.0 3.95 -17.0 3.7 -16.95 3.45 -16.95 3.2 -16.9 2.95 -16.9 2.7 -16.85 2.45 -16.8 2.25 -16.75 1.95 -16.7 1.75 -16.65 1.45 -16.6 1.0 -16.5 -0.65 -16.6 -0.7 -16.6 -0.75 -16.6 -0.75 -16.6 -0.85 -16.6 -0.9 -16.6 -0.95 -16.6 -1.75 -16.6 -3.0 -16.65 -4.85 -16.7 -5.1 -16.7 -9.3 -16.85 -9.4 -16.85 -9.75 -16.85 -10.1 -16.9 -10.45 -16.9 -10.8 -16.95 -11.1 -17.05 -11.45 -17.15 -11.75 -17.2 -12.1 -17.35 -12.4 -17.45 -12.75 -17.55 -13.05 -17.65 -13.4 -17.8 -13.6 -17.9 -14.0 -18.1 -14.45 -18.25 -14.65 -18.35 -14.9 -18.45 -15.1 -18.55 -15.3 -18.65 -15.55 -18.75 -15.75 -18.85 -15.95 -18.95 -16.2 -19.05 -16.4 -19.15 -16.6 -19.3 -16.8 -19.4 -17.05 -19.5 -17.25 -19.65 -17.45 -19.75 -17.65 -19.9 -17.85 -20.05 -18.05 -20.15 -18.8 -20.75 -18.85 -20.75 -18.9 -20.8 -18.95 -20.8 -19.0 -20.85 -19.0 -20.9 -19.05 -20.9 -19.05 -20.95 -19.05 -20.95 -19.05 -21.0 -19.05 -21.05 -19.05 -21.05 -19.0 -21.1 -19.0 -21.1 -18.95 -21.15 -18.95 -21.15 -18.9 -21.2 -18.85 -21.25 -18.65 -21.4 -18.45 -21.55 -18.25 -21.65 -18.05 -21.8 -17.85 -21.9 -17.65 -22.05 -17.45 -22.15 -17.2 -22.25 -17.0 -22.35 -16.8 -22.45 -16.55 -22.55 -16.35 -22.65 -16.1 -22.75 -15.85 -22.8 -15.65 -22.9 -15.4 -22.95 -14.95 -23.1 -14.5 -23.2 -14.05 -23.3 -13.6 -23.4 -13.15 -23.45 -12.65 -23.55 -12.2 -23.6 -11.75 -23.6 -11.3 -23.65 -10.85 -23.65 -10.4 -23.7 -9.9 -23.7 -9.45 -23.7 -9.0 -23.65 -8.55 -23.65 -8.05 -23.6 -7.45 -23.55 -6.85 -23.55 -6.25 -23.5 -5.6 -23.4 -5.05 -23.35 -4.4 -23.25 -3.8 -23.2 -3.2 -23.1 -2.6 -23.0 -2.0 -22.9 -1.45 -22.75 -0.8 -22.65 -0.25 -22.55 0.4 -22.4 0.95 -22.25 1.55 -22.1 1.9 -22.0 2.25 -21.95 2.6 -21.85 2.95 -21.75 3.35 -21.7 3.7 -21.6 4.05 -21.5 4.4 -21.4 4.75 -21.3 5.1 -21.2 5.45 -21.1 5.8 -21.0 6.15 -20.9 6.5 -20.8 6.85 -20.7 7.2 -20.6 7.3 -20.6 7.35 -20.55 7.4 -20.55 7.4 -20.55 7.45 -20.6 7.5 -20.6 7.5 -20.65 7.5 -20.7 7.5 -20.75 7.45 -20.85 7.3 -21.4 7.2 -21.95 7.05 -22.55 6.9 -23.1 6.75 -23.65 6.55 -24.2 6.4 -24.75 6.2 -25.3 6.0 -25.85 5.8 -26.35 5.6 -26.9 5.35 -27.4 5.1 -27.95 4.85 -28.45 4.6 -29.0 4.35 -29.5 4.1 -29.95 4.1 -30.0 4.35 -29.85 4.6 -29.65 4.8 -29.5 5.15 -29.3 5.5 -29.05 5.7 -28.95 6.0 -28.75 6.2 -28.55 6.5 -28.35 6.7 -28.2 7.0 -28.0 7.25 -27.8 7.5 -27.6 7.7 -27.4 7.95 -27.2 8.2 -26.95 11.05 -24.05 11.9 -23.25 11.95 -23.2 12.0 -23.15 12.0 -23.15 12.05 -23.1 12.05 -23.05 12.1 -23.0 12.1 -22.95 12.1 -22.95 12.15 -22.9 12.15 -22.85 12.15 -22.8 12.15 -22.75 12.15 -22.7 12.15 -22.65 12.1 -22.6 12.1 -22.55 11.65 -21.0 11.25 -18.8 11.2 -18.5 11.15 -18.2 11.1 -17.9 11.1 -17.6 11.05 -17.3 11.05 -17.0 11.05 -16.7 11.1 -16.4 11.1 -16.15 11.15 -15.8 11.15 -15.55 11.2 -15.25 11.25 -14.95 11.3 -14.65 11.35 -14.35 11.4 -14.05 11.45 -13.7 11.55 -13.4 11.6 -13.05 11.65 -12.7 11.75 -12.4 11.85 -12.05 11.9 -11.75 12.0 -11.4 12.1 -11.1 12.2 -10.8 12.3 -10.45 12.45 -10.15 12.55 -9.85 12.7 -9.55 12.85 -9.2 13.0 -8.95 13.0 -8.9 13.05 -8.85 13.05 -8.85 13.05 -8.8 13.05 -8.8 13.05 -8.75 13.05 -8.7 13.0 -8.7 13.0 -8.65 13.0 -8.65 12.95 -8.65 12.95 -8.6 12.95 -8.6 12.9 -8.55 12.9 -8.55 12.85 -8.5 12.45 -8.05 12.1 -7.65 11.7 -7.25 11.3 -6.85 10.9 -6.45 10.5 -6.05 10.1 -5.65 9.7 -5.3 9.25 -4.9 8.8 -4.55 8.35 -4.15 7.95 -3.8 7.45 -3.45 7.0 -3.1 6.55 -2.8 6.05 -2.45 5.35 -2.0 4.65 -1.6 3.95 -1.2 3.25 -0.8 2.55 -0.4 1.8 -0.05 1.1 0.3 0.35 0.65 -0.4 1.0 -1.15 1.35 -1.9 1.65 -2.65 1.95 -3.4 2.25 -4.2 2.55 -4.95 2.8 -5.7 3.1 -6.4 3.35 -7.1 3.55 -7.8 3.8 -8.5 4.0 -9.2 4.2 -9.95 4.4 -10.65 4.6 -11.35 4.75 -12.05 4.95 -12.8 5.1 -13.5 5.25 -14.25 5.4 -14.95 5.5 -15.7 5.65 -16.4 5.75 -17.15 5.85 -17.7 5.95 -18.15 6.0 -18.7 6.1 -19.15 6.15 -19.7 6.2 -20.15 6.25 -20.7 6.3 -21.2 6.35 -21.7 6.4 -22.2 6.45 -22.7 6.45 -23.2 6.5 -23.75 6.5 -24.25 6.5 -24.75 6.5 -25.25 6.5 -25.65 6.5 -26.0 6.45 -26.4 6.4 -26.75 6.35 -27.1 6.35 -27.5 6.25 -27.85 6.2 -28.2 6.15 -28.6 6.05 -28.95 5.95 -29.3 5.85 -29.65 5.75 -30.0 5.6 -30.35 5.5 -30.7 5.35 -31.05 5.2 -31.6 4.95 -32.1 4.65 -32.6 4.3 -33.0 3.95 -33.45 3.6 -33.85 3.25 -34.2 2.85 -34.55 2.4 -34.9 1.95 -35.15 1.5 -35.45 1.05 -35.65 0.5 -35.9 0.0 -36.05 -0.55 -36.2 -1.1 -36.35 -1.7 -36.4 -1.85 -36.4 -2.0 -36.45 -2.15 -36.5 -2.35 -36.55 -2.6 -36.55 -2.65 -36.6 -2.8 -36.65 -2.95 -36.65 -3.1 -36.7 -3.25 -36.7 -3.45 -36.75 -3.6 -36.75 -3.75 -36.75 -3.9 -36.75 -4.05 -36.75 -4.25 -36.7 -4.7 -36.65 -5.15 -36.6 -5.55 -36.5 -6.0 -36.4 -6.4 -36.3 -6.85 -36.2 -7.25 -36.05 -7.65 -35.9 -8.1 -35.7 -8.45 -35.55 -8.85 -35.35 -9.25 -35.15 -9.65 -34.9 -10.05 -34.65 -10.4 -34.4 -10.8 -34.2 -11.1 -33.95 -11.35 -33.75 -11.65 -33.55 -11.95 -33.3 -12.2 -33.1 -12.5 -32.85 -12.75 -32.6 -13.0 -32.4 -13.3 -32.15 -13.55 -31.9 -13.8 -31.65 -14.1 -31.4 -14.35 -31.15 -14.6 -30.9 -14.85 -30.65 -15.1 -30.55 -15.2 -30.5 -15.3 -30.45 -15.35 -30.4 -15.45 -30.35 -15.55 -30.3 -15.6 -30.3 -15.7 -30.3 -15.75 -30.3 -15.85 -30.3 -15.95 -30.35 -16.0 -30.35 -16.1 -30.4 -16.15 -30.45 -16.25 -30.55 -16.35 -30.6 -16.45 -31.15 -17.05 -32.45 -18.55 L-32.45 -18.55" fill="#000000" fill-opacity="0.14901961" fill-rule="evenodd" stroke="none"/>
    <path d="M-46.7 -4.3 Q-46.7 -3.85 -46.7 -3.4 -46.7 -2.9 -46.7 -2.45 -46.7 -1.9 -46.75 -1.4 -46.75 -0.8 -46.75 -0.25 -46.75 0.35 -46.8 0.95 -46.8 1.6 -46.8 2.25 -46.85 2.95 -46.85 3.6 -46.9 4.3 -46.95 5.05 -47.0 6.55 -47.1 7.85 -47.2 9.05 -47.25 10.1 -47.35 11.1 -47.45 11.9 -47.55 12.7 -47.65 13.35 -47.75 13.95 -47.85 14.45 -47.95 14.95 -48.05 15.35 -48.2 15.7 -48.3 16.05 -48.4 16.3 -48.55 16.65 -48.7 17.0 -48.9 17.35 -49.1 17.75 -49.3 18.15 -49.55 18.6 -49.85 19.05 -50.15 19.5 -50.5 19.95 -50.85 20.45 -51.25 20.95 -51.7 21.45 -52.2 21.95 -52.7 22.5 -53.25 23.0 -53.85 23.5 -54.55 24.0 -55.95 23.25 -57.35 22.5 -58.7 21.85 -60.05 21.2 -61.35 20.6 -62.65 20.05 -63.9 19.55 -65.1 19.05 -66.3 18.6 -67.45 18.2 -68.55 17.8 -69.65 17.45 -70.7 17.1 -71.7 16.8 -72.65 16.55 -73.6 16.3 -73.8 16.25 -74.05 16.2 -74.4 16.1 -74.8 16.0 -75.25 15.85 -75.75 15.75 -76.35 15.6 -76.95 15.5 -77.65 15.3 -78.35 15.15 -79.15 15.0 -79.95 14.85 -80.8 14.7 -81.7 14.55 -82.65 14.35 -83.6 14.2 -84.9 14.0 -86.1 13.85 -87.2 13.7 -88.2 13.6 -89.1 13.55 -90.05 13.45 -90.75 13.45 -91.8 13.35 -93.1 13.3 -93.55 13.25 -94.55 13.2 -95.45 13.15 -96.55 13.05 -97.7 12.95 -98.95 12.8 -100.35 12.6 -101.75 12.4 -102.55 12.3 -103.65 12.15 -104.55 12.05 -105.5 11.9 -106.35 11.75 -107.2 11.6 -108.0 11.45 -108.8 11.25 -109.55 11.05 -110.35 10.85 -111.1 10.65 -111.85 10.4 -112.6 10.15 -113.35 9.85 -114.15 9.5 -114.9 9.15 -115.65 8.8 -116.4 8.45 -117.1 8.1 -117.75 7.7 -118.4 7.35 -119.0 6.95 -119.6 6.6 -120.15 6.2 -120.7 5.85 -121.2 5.45 -121.7 5.1 -122.15 4.75 -122.55 4.4 -122.95 4.1 -123.35 3.75 -123.0 3.75 -122.6 3.75 -122.2 3.8 -121.75 3.8 -121.3 3.8 -120.8 3.8 -120.3 3.8 -119.8 3.8 -119.2 3.8 -118.65 3.75 -118.05 3.75 -117.4 3.75 -116.8 3.7 -116.15 3.65 -115.45 3.65 -114.75 3.6 -110.5 3.3 -106.45 2.55 -102.9 1.95 -99.3 0.95 -96.3 0.1 -92.9 -1.05 -90.95 -1.75 -87.1 -3.2 -83.4 -4.55 -81.5 -5.2 -78.5 -6.2 -75.95 -6.85 -72.95 -7.6 -70.1 -7.95 -66.95 -8.3 -63.7 -8.2 -62.95 -8.15 -62.15 -8.1 -61.3 -8.05 -60.45 -7.95 -59.5 -7.85 -58.55 -7.7 -57.5 -7.55 -56.5 -7.35 -55.4 -7.1 -54.25 -6.85 -53.05 -6.55 -51.9 -6.15 -50.6 -5.8 -49.35 -5.35 -48.05 -4.85 -46.7 -4.3 L-46.7 -4.3" fill="#000000" fill-opacity="0.32156864" fill-rule="evenodd" stroke="none"/>
    <path d="M-117.15 8.95 Q-116.8 9.1 -116.5 9.25 -116.15 9.35 -115.85 9.5 -115.5 9.65 -115.2 9.75 -114.85 9.9 -114.55 10.05 -114.2 10.15 -113.9 10.3 -113.55 10.4 -113.2 10.55 -112.9 10.65 -112.55 10.75 -112.2 10.9 -111.9 11.0 -111.3 11.2 -110.65 11.4 -110.05 11.55 -109.4 11.75 -108.8 11.9 -108.15 12.05 -107.55 12.2 -106.9 12.35 -106.25 12.5 -105.65 12.6 -105.0 12.75 -104.35 12.85 -103.75 13.0 -103.1 13.1 -102.45 13.2 -101.8 13.3 -98.85 13.75 -93.45 14.15 -92.95 14.2 -88.35 14.75 -86.1 15.0 -81.7 15.55 -81.5 15.55 -81.5 15.55 -81.4 15.6 -81.3 15.65 -81.45 15.7 -81.65 15.8 -81.8 15.85 -81.95 15.95 -82.1 16.0 -82.25 16.05 -82.45 16.1 -82.6 16.2 -82.75 16.25 -82.9 16.3 -83.1 16.35 -83.25 16.4 -83.4 16.45 -83.55 16.5 -83.75 16.55 -83.9 16.6 -84.25 16.7 -85.0 16.95 -85.05 16.95 -85.15 17.0 -85.2 17.0 -85.25 17.0 -85.3 17.05 -85.35 17.1 -85.4 17.1 -85.45 17.15 -85.45 17.2 -85.5 17.25 -85.55 17.3 -85.55 17.35 -85.6 17.4 -85.6 17.45 -85.65 17.5 -85.65 17.55 -85.65 17.6 -85.65 17.7 -85.65 17.75 -85.65 17.8 -85.65 17.85 -85.6 17.9 -85.6 18.0 -85.55 18.05 -85.55 18.1 -85.5 18.15 -85.45 18.15 -85.4 18.2 -85.35 18.25 -85.3 18.3 -85.25 18.35 -85.2 18.35 -84.9 18.55 -84.55 18.75 -84.2 18.95 -83.85 19.1 -83.55 19.3 -83.15 19.45 -82.85 19.6 -82.45 19.75 -82.15 19.9 -81.75 20.05 -81.4 20.15 -81.05 20.3 -80.7 20.4 -80.3 20.55 -79.95 20.65 -79.6 20.75 -79.15 20.9 -76.9 21.5 -76.9 21.55 -76.95 21.6 -76.95 21.6 -77.0 21.65 -77.05 21.65 -77.1 21.7 -77.15 21.75 -77.15 21.75 -77.55 22.05 -78.25 22.65 -79.0 23.2 -79.35 23.5 -79.45 23.6 -79.55 23.7 -79.6 23.75 -79.65 23.85 -79.7 23.95 -79.75 24.05 -79.75 24.15 -79.75 24.25 -79.75 24.35 -79.7 24.45 -79.65 24.5 -79.6 24.6 -79.55 24.7 -79.45 24.75 -79.35 24.85 -79.2 24.9 -78.85 25.1 -78.5 25.25 -78.15 25.45 -77.8 25.6 -77.45 25.7 -77.05 25.85 -76.7 26.0 -76.35 26.1 -75.95 26.2 -75.6 26.3 -75.2 26.4 -74.8 26.5 -74.45 26.6 -74.05 26.65 -73.7 26.75 -73.3 26.8 -72.9 26.9 -70.8 27.2 -70.9 27.35 -71.05 27.55 -71.25 27.85 -71.25 27.9 -71.3 27.95 -71.35 28.0 -71.4 28.1 -71.4 28.15 -71.45 28.2 -71.5 28.25 -71.55 28.35 -71.6 28.4 -71.65 28.45 -71.7 28.55 -71.7 28.6 -71.75 28.65 -71.8 28.7 -71.85 28.8 -71.9 28.85 -71.9 28.9 -72.0 29.05 -72.05 29.1 -72.1 29.2 -72.15 29.25 -72.2 29.35 -72.25 29.35 -72.25 29.4 -72.3 29.45 -72.35 29.45 -72.45 29.45 -72.5 29.45 -72.55 29.45 -72.65 29.45 -72.75 29.45 -72.8 29.4 -72.95 29.4 -75.2 28.85 -77.75 28.3 -77.7 28.25 -77.7 28.2 -77.65 28.2 -77.65 28.15 -77.65 28.1 -77.7 28.1 -77.7 28.05 -77.75 28.0 -77.75 28.0 -77.8 27.95 -77.8 27.95 -77.8 27.9 -77.85 27.9 -77.85 27.85 -77.95 27.7 -78.05 27.55 -78.15 27.35 -78.25 27.2 -78.4 27.05 -78.5 26.9 -78.6 26.75 -78.75 26.6 -78.85 26.45 -79.0 26.3 -79.1 26.15 -79.25 26.0 -79.4 25.85 -79.5 25.7 -79.65 25.55 -79.8 25.4 -80.05 25.15 -80.3 24.9 -80.55 24.6 -80.8 24.35 -81.05 24.1 -81.3 23.85 -81.6 23.6 -81.85 23.4 -82.1 23.15 -82.4 22.9 -82.65 22.65 -82.95 22.4 -83.2 22.2 -83.5 21.95 -83.75 21.75 -84.05 21.5 -84.4 21.25 -84.7 20.95 -85.05 20.7 -85.4 20.45 -85.75 20.2 -86.05 19.9 -86.4 19.65 -86.75 19.4 -87.1 19.15 -87.45 18.9 -87.8 18.65 -88.15 18.4 -88.5 18.15 -88.85 17.9 -89.2 17.7 -89.55 17.45 -89.6 17.45 -89.6 17.4 -89.65 17.4 -89.65 17.4 -89.7 17.35 -89.7 17.35 -89.75 17.35 -89.75 17.35 -89.8 17.3 -89.85 17.3 -89.85 17.3 -89.9 17.3 -89.9 17.3 -89.95 17.3 -90.0 17.3 -90.0 17.3 -90.55 17.3 -91.6 17.25 -92.7 17.25 -93.2 17.25 -94.4 17.2 -96.95 17.2 -99.45 17.2 -100.75 17.15 -101.6 17.15 -103.0 17.15 -104.95 17.15 -105.25 17.15 -105.3 17.15 -105.5 17.15 -105.65 17.1 -105.7 17.1 -107.0 17.05 -107.3 17.15 -107.8 16.85 -108.25 16.55 -108.75 16.25 -109.2 15.9 -109.7 15.6 -110.15 15.3 -110.6 14.95 -111.1 14.6 -111.55 14.25 -112.0 13.9 -112.45 13.55 -112.9 13.2 -113.3 12.85 -113.75 12.45 -114.2 12.1 -114.6 11.7 -114.8 11.55 -114.95 11.4 -115.1 11.2 -115.3 11.05 -115.45 10.9 -115.65 10.75 -115.8 10.55 -115.95 10.4 -116.15 10.25 -116.3 10.05 -116.45 9.9 -116.6 9.75 -116.75 9.55 -116.9 9.4 -117.1 9.2 -117.25 9.05 -117.2 9.0 -117.15 8.95 L-117.15 8.95" fill="#000000" fill-opacity="0.10980392" fill-rule="evenodd" stroke="none"/>
    <path d="M-76.0 22.8 Q-74.8 21.8 -74.8 21.8 -74.75 21.75 -74.7 21.7 -74.65 21.65 -74.6 21.6 -74.55 21.55 -74.5 21.5 -74.5 21.45 -74.45 21.4 -74.4 21.35 -74.4 21.3 -74.4 21.25 -74.4 21.15 -74.35 21.1 -74.4 21.05 -74.4 20.95 -74.4 20.9 -74.4 20.85 -74.45 20.75 -74.45 20.7 -74.5 20.65 -74.55 20.6 -74.6 20.55 -74.6 20.55 -74.65 20.5 -74.7 20.45 -74.75 20.45 -74.8 20.4 -74.9 20.4 -74.95 20.35 -75.0 20.35 -75.05 20.3 -75.15 20.3 -75.6 20.2 -76.05 20.1 -76.5 20.0 -76.95 19.9 -77.4 19.8 -77.85 19.7 -78.3 19.55 -78.75 19.45 -79.2 19.3 -79.65 19.15 -80.1 19.05 -80.5 18.9 -80.95 18.7 -81.4 18.55 -81.8 18.4 -82.25 18.2 -82.35 18.15 -82.8 17.95 -82.8 17.9 -82.75 17.85 -82.75 17.85 -82.7 17.8 -82.7 17.8 -82.65 17.8 -82.6 17.8 -82.6 17.8 -82.35 17.7 -82.15 17.65 -81.9 17.55 -81.7 17.45 -81.45 17.4 -81.25 17.3 -81.0 17.2 -80.8 17.1 -80.55 17.0 -80.35 16.9 -80.1 16.8 -79.9 16.7 -79.7 16.6 -79.45 16.5 -79.25 16.35 -79.05 16.25 -79.0 16.2 -78.95 16.2 -78.9 16.2 -78.85 16.2 -78.85 16.2 -78.8 16.2 -78.75 16.2 -78.7 16.2 -78.4 16.3 -72.6 17.85 -68.95 18.85 -66.6 19.7 -65.9 19.95 -65.2 20.2 -64.55 20.45 -63.85 20.75 -63.15 21.0 -62.5 21.3 -61.8 21.55 -61.15 21.85 -60.45 22.15 -59.8 22.45 -59.1 22.75 -58.45 23.05 -57.8 23.35 -57.1 23.65 -56.45 24.0 -55.8 24.3 -55.75 24.35 -55.7 24.35 -55.65 24.4 -55.6 24.4 -55.6 24.45 -55.55 24.45 -55.55 24.5 -55.55 24.5 -55.55 24.55 -55.55 24.55 -55.55 24.6 -55.6 24.6 -55.6 24.65 -55.65 24.7 -55.65 24.7 -55.7 24.75 -55.9 24.95 -56.1 25.1 -56.25 25.3 -56.45 25.5 -56.65 25.65 -56.85 25.85 -57.05 26.0 -57.25 26.2 -57.45 26.35 -57.6 26.5 -57.85 26.7 -58.05 26.85 -58.25 27.0 -58.45 27.15 -58.65 27.3 -58.85 27.45 -59.1 27.6 -59.15 27.6 -60.25 27.25 -62.3 26.7 -67.4 25.2 -73.55 23.45 -73.6 23.45 -74.75 23.1 -75.5 22.9 -76.0 22.8 L-76.0 22.8" fill="#000000" fill-opacity="0.10980392" fill-rule="evenodd" stroke="none"/>
    <path d="M88.75 18.55 Q88.45 18.95 87.75 19.85 87.1 20.65 86.75 21.15 86.65 21.25 86.6 21.35 86.55 21.45 86.5 21.55 86.45 21.65 86.45 21.7 86.45 21.8 86.45 21.9 86.45 21.95 86.5 22.05 86.55 22.15 86.6 22.2 86.65 22.3 86.75 22.35 86.85 22.45 86.95 22.5 88.1 23.2 91.5 25.35 91.5 25.4 91.45 25.4 91.45 25.45 91.4 25.45 91.35 25.5 91.3 25.5 91.3 25.5 91.25 25.5 91.2 25.55 91.2 25.55 89.65 26.15 86.85 27.25 86.7 27.3 86.6 27.35 86.5 27.45 86.45 27.5 86.35 27.6 86.3 27.65 86.25 27.75 86.25 27.85 86.2 27.9 86.2 28.0 86.2 28.1 86.25 28.2 86.3 28.3 86.35 28.4 86.4 28.5 86.5 28.65 87.35 29.7 87.8 30.25 87.85 30.3 87.85 30.35 87.9 30.35 87.9 30.4 87.9 30.4 87.85 30.45 87.85 30.45 87.8 30.5 87.75 30.5 87.7 30.55 87.35 30.65 86.15 31.05 85.2 31.4 84.6 31.55 84.2 31.65 83.4 31.7 82.55 31.8 82.2 31.9 81.85 32.0 81.5 32.0 81.15 32.0 80.8 31.95 80.5 31.9 80.2 31.8 79.95 31.7 79.65 31.55 79.4 31.4 79.15 31.2 78.9 31.05 78.65 30.8 78.4 30.6 78.2 30.35 78.0 30.15 77.75 29.85 77.6 29.7 77.5 29.55 77.4 29.35 77.25 29.2 77.15 29.05 77.05 28.85 76.95 28.7 76.85 28.5 76.75 28.35 76.65 28.15 76.6 28.0 76.5 27.8 76.4 27.65 76.3 27.45 76.25 27.3 76.15 27.1 76.15 27.05 76.1 27.0 76.1 26.95 76.1 26.95 76.1 26.9 76.1 26.85 76.15 26.85 76.15 26.8 76.15 26.8 76.15 26.75 76.2 26.75 76.2 26.7 76.25 26.7 76.25 26.65 76.15 26.8 76.3 26.6 76.85 26.05 77.45 25.55 78.05 25.0 78.6 24.5 79.25 24.0 79.85 23.55 80.45 23.05 81.1 22.6 81.75 22.15 82.4 21.75 83.05 21.3 83.7 20.9 84.4 20.5 85.1 20.15 85.8 19.75 86.5 19.4 88.0 18.7 88.7 18.5 88.7 18.5 88.75 18.55 L88.75 18.55" fill="#000000" fill-opacity="0.10980392" fill-rule="evenodd" stroke="none"/>
    <path d="M92.3 24.05 Q91.2 23.35 88.9 21.95 88.7 21.8 88.3 21.55 90.25 19.15 91.05 18.1 91.1 18.0 91.2 17.9 91.25 17.85 91.35 17.75 91.45 17.65 91.5 17.6 91.6 17.55 91.7 17.5 91.8 17.45 91.9 17.4 92.0 17.35 92.1 17.3 92.2 17.25 92.3 17.2 92.4 17.2 92.5 17.15 92.85 17.05 93.2 17.0 93.55 16.9 93.95 16.8 94.3 16.75 94.65 16.7 95.0 16.6 95.4 16.55 95.75 16.5 96.1 16.45 96.45 16.4 96.8 16.35 97.2 16.3 97.55 16.25 97.9 16.2 98.3 16.15 99.0 16.05 100.3 15.8 101.7 15.5 102.3 15.45 102.8 15.35 103.3 15.3 103.8 15.2 104.3 15.05 104.8 14.95 105.3 14.8 105.8 14.65 106.3 14.5 106.75 14.35 107.25 14.2 107.75 14.0 108.2 13.85 108.7 13.65 109.15 13.45 109.6 13.25 110.1 13.0 110.35 12.85 110.65 12.75 110.9 12.6 111.15 12.45 111.45 12.35 111.7 12.2 111.95 12.05 112.2 11.9 112.5 11.75 112.75 11.6 113.0 11.45 113.25 11.3 113.5 11.1 113.75 10.95 114.0 10.8 114.25 10.6 114.25 10.65 114.25 10.65 114.25 10.7 114.25 10.75 114.25 10.8 114.2 10.8 114.2 10.85 114.15 10.9 114.15 10.95 114.15 10.95 114.1 11.0 114.1 11.05 114.05 11.05 114.05 11.1 113.95 11.15 114.0 11.15 113.95 11.2 113.95 11.25 112.35 13.35 110.45 15.95 110.35 16.1 110.25 16.2 110.2 16.35 110.1 16.45 110.0 16.6 109.9 16.7 109.8 16.8 109.7 16.95 109.6 17.05 109.45 17.15 109.35 17.25 109.25 17.4 109.15 17.5 109.05 17.6 108.95 17.7 108.8 17.85 108.8 17.8 108.75 17.8 108.75 17.75 108.7 17.75 108.7 17.75 108.65 17.7 108.65 17.7 108.6 17.7 108.6 17.7 108.55 17.7 108.55 17.7 108.5 17.7 108.45 17.7 108.45 17.7 108.4 17.7 108.4 17.7 107.15 17.7 106.55 17.75 106.25 17.75 105.9 17.8 105.6 17.85 105.25 17.9 104.95 17.95 104.6 18.0 104.3 18.05 104.0 18.15 103.7 18.2 103.35 18.3 103.05 18.35 102.75 18.45 102.4 18.55 102.1 18.65 101.8 18.75 101.5 18.85 101.1 19.0 100.7 19.15 100.3 19.3 99.9 19.5 99.5 19.65 99.1 19.85 98.7 20.05 98.3 20.25 97.95 20.45 97.55 20.65 97.2 20.85 96.8 21.05 96.45 21.3 96.05 21.5 95.7 21.75 95.3 21.95 94.8 22.3 93.8 23.0 92.8 23.7 92.3 24.05 L92.3 24.05" fill="#000000" fill-opacity="0.10980392" fill-rule="evenodd" stroke="none"/>
    <path d="M22.4 -18.9 Q22.45 -18.8 22.45 -18.65 22.45 -18.5 22.5 -18.4 22.5 -18.25 22.5 -18.15 22.55 -18.0 22.55 -17.85 22.55 -17.75 22.55 -17.6 22.6 -17.35 22.6 -17.35 22.6 -17.2 22.6 -17.1 22.6 -16.95 22.6 -16.85 22.65 -16.4 22.65 -16.0 22.7 -15.55 22.65 -15.1 22.65 -14.7 22.6 -14.3 22.5 -13.85 22.45 -13.45 22.35 -13.05 22.25 -12.65 22.1 -12.25 21.95 -11.85 21.85 -11.45 21.65 -11.05 21.5 -10.65 21.3 -10.25 21.25 -10.15 21.2 -10.05 21.2 -10.0 21.15 -9.9 21.1 -9.8 21.05 -9.7 21.05 -9.6 21.0 -9.55 20.95 -9.45 20.9 -9.35 20.85 -9.3 20.8 -9.2 20.7 -9.15 20.65 -9.05 20.55 -9.0 20.45 -8.95 20.4 -8.95 20.3 -8.65 20.25 -8.5 20.15 -8.4 20.1 -8.3 20.0 -8.2 19.9 -8.1 19.8 -8.0 19.75 -7.9 19.6 -7.85 19.5 -7.8 19.4 -7.75 19.3 -7.7 19.15 -7.65 19.05 -7.6 18.9 -7.6 18.8 -7.55 18.65 -7.55 18.45 -7.55 18.3 -7.55 18.1 -7.55 17.9 -7.55 17.75 -7.6 17.55 -7.6 17.4 -7.65 17.2 -7.65 17.05 -7.7 16.85 -7.75 16.7 -7.8 16.55 -7.85 16.4 -7.9 16.2 -7.95 16.1 -8.0 15.85 -8.05 15.85 -8.05 15.6 -8.25 15.4 -8.4 15.25 -8.55 15.05 -8.75 14.9 -8.9 14.75 -9.1 14.6 -9.3 14.5 -9.45 14.35 -9.65 14.25 -9.85 14.15 -10.05 14.05 -10.25 13.95 -10.5 13.85 -10.7 13.75 -10.9 13.7 -11.15 13.6 -11.35 13.5 -11.7 13.4 -12.05 13.3 -12.35 13.25 -12.7 13.15 -13.05 13.05 -13.4 13.0 -13.75 12.95 -14.05 12.85 -14.4 12.8 -14.75 12.75 -15.1 12.7 -15.45 12.65 -15.8 12.65 -16.15 12.6 -16.5 12.6 -16.85 12.55 -17.7 13.05 -20.15 13.4 -21.7 13.55 -22.05 13.65 -21.9 13.7 -21.8 13.8 -21.7 13.85 -21.55 13.95 -21.45 14.05 -21.3 14.1 -21.2 14.15 -21.05 14.25 -20.95 14.3 -20.8 14.4 -20.7 14.45 -20.55 14.5 -20.4 14.55 -20.3 14.6 -20.15 14.65 -20.0 14.85 -19.35 15.15 -18.15 15.55 -16.85 15.7 -16.35 15.75 -16.25 15.75 -16.1 15.8 -15.9 15.85 -15.8 15.85 -15.65 15.9 -15.55 15.95 -15.4 16.0 -15.3 16.05 -15.2 16.1 -15.1 16.2 -14.95 16.25 -14.85 16.35 -14.75 16.5 -14.7 16.6 -14.6 16.75 -14.55 16.8 -14.5 17.0 -14.45 17.1 -14.35 17.2 -14.35 17.35 -14.25 17.45 -14.25 17.55 -14.2 17.65 -14.15 17.8 -14.1 17.9 -14.05 18.0 -14.05 18.15 -14.0 18.25 -14.0 18.4 -14.0 18.5 -14.0 18.65 -14.0 18.8 -14.05 18.95 -14.05 19.1 -14.1 19.25 -14.15 19.4 -14.25 19.55 -14.3 19.7 -14.4 19.8 -14.5 19.95 -14.55 20.05 -14.65 20.15 -14.75 20.25 -14.9 20.4 -15.0 20.5 -15.1 20.6 -15.25 20.7 -15.35 20.85 -15.55 20.95 -15.7 21.05 -15.9 21.2 -16.1 21.3 -16.3 21.4 -16.5 21.5 -16.7 21.6 -16.9 21.65 -17.1 21.75 -17.3 21.85 -17.5 21.95 -17.7 22.0 -17.9 22.1 -18.1 22.15 -18.3 22.25 -18.55 22.15 -18.1 22.25 -18.65 22.25 -18.7 22.3 -18.75 22.3 -18.8 22.35 -18.8 22.35 -18.85 22.4 -18.9 L22.4 -18.9" fill="#000000" fill-opacity="0.14901961" fill-rule="evenodd" stroke="none"/>
    <path d="M117.95 5.2 Q117.95 5.25 117.6 5.65 117.15 6.15 116.7 6.65 116.2 7.15 115.7 7.6 115.25 8.0 114.7 8.45 114.2 8.85 113.65 9.2 113.1 9.6 112.5 9.95 111.95 10.3 111.35 10.65 110.8 10.95 110.2 11.25 109.6 11.55 108.95 11.85 108.75 11.95 108.5 12.05 108.3 12.15 108.05 12.25 107.85 12.35 107.65 12.45 107.4 12.5 107.2 12.6 106.95 12.7 106.75 12.8 106.5 12.85 106.25 12.95 106.05 13.0 105.8 13.05 105.55 13.15 105.35 13.2 104.95 13.35 102.65 13.8 101.8 14.0 98.35 14.6 98.25 14.6 98.15 14.65 98.05 14.65 98.0 14.65 97.9 14.65 97.8 14.7 97.7 14.7 97.6 14.7 97.5 14.7 97.45 14.7 97.35 14.75 97.25 14.75 97.15 14.75 97.05 14.75 96.95 14.75 96.9 14.75 96.7 14.8 95.3 15.0 94.35 15.15 93.75 15.3 92.65 15.55 91.6 15.85 90.55 16.15 89.55 16.5 88.5 16.85 87.5 17.3 86.5 17.7 85.55 18.2 84.6 18.65 83.65 19.2 82.7 19.7 81.8 20.3 80.9 20.9 80.0 21.55 79.1 22.15 78.25 22.85 78.1 23.0 77.9 23.15 77.75 23.25 77.6 23.4 77.4 23.55 77.25 23.7 77.1 23.85 76.95 24.0 76.75 24.15 76.6 24.3 76.45 24.4 76.3 24.55 76.1 24.7 75.95 24.85 75.8 25.0 75.65 25.15 75.35 25.4 75.55 25.25 75.5 25.3 75.4 25.3 75.35 25.1 75.25 24.9 75.2 24.7 75.1 24.5 75.05 24.3 75.0 24.1 74.95 23.9 74.9 23.7 74.85 23.5 74.8 23.3 74.75 23.1 74.7 22.9 74.65 22.7 74.6 22.45 74.55 22.25 74.5 22.05 73.85 18.9 73.45 13.75 73.35 12.8 73.2 11.1 73.0 9.25 72.95 8.45 72.95 8.4 72.9 8.15 73.1 8.2 73.35 8.3 73.55 8.35 73.8 8.4 74.0 8.45 74.2 8.45 74.45 8.5 74.65 8.5 74.85 8.55 75.1 8.55 75.3 8.55 75.55 8.55 75.75 8.55 75.95 8.5 76.2 8.5 76.4 8.45 76.55 8.45 76.65 8.4 76.75 8.4 76.9 8.4 77.0 8.35 77.15 8.35 77.25 8.3 77.35 8.25 77.5 8.25 77.6 8.2 77.7 8.15 77.85 8.1 77.95 8.05 78.05 8.05 78.2 8.0 78.3 7.9 78.35 7.9 78.4 7.85 78.45 7.85 78.45 7.85 78.5 7.85 78.55 7.85 78.55 7.85 78.6 7.85 78.6 7.9 78.65 7.9 78.65 7.95 78.65 7.95 78.7 8.0 78.7 8.05 78.7 8.05 78.75 8.15 78.9 8.55 79.05 8.9 79.2 9.25 79.4 9.55 79.55 9.9 79.8 10.2 80.0 10.5 80.25 10.75 80.5 11.0 80.8 11.25 81.05 11.5 81.35 11.7 81.7 11.9 82.05 12.05 82.4 12.25 82.75 12.35 83.2 12.5 83.65 12.6 84.1 12.65 84.55 12.65 85.0 12.7 85.45 12.6 85.9 12.55 86.35 12.4 86.75 12.25 87.15 12.05 87.55 11.85 87.95 11.6 88.3 11.35 88.65 11.0 89.0 10.7 89.3 10.3 89.3 10.3 89.5 10.05 89.65 9.85 89.8 9.6 89.9 9.4 90.05 9.15 90.15 8.9 90.25 8.7 90.35 8.45 90.4 8.2 90.5 7.95 90.55 7.7 90.65 7.5 90.7 7.2 90.75 6.95 90.8 6.7 90.85 6.45 90.85 6.2 90.85 6.0 90.85 5.8 90.85 5.6 90.85 5.4 90.85 5.2 90.8 5.0 90.8 4.8 90.75 4.6 90.75 4.4 90.7 4.2 90.65 4.0 90.6 3.8 90.55 3.6 90.5 3.4 90.45 3.2 90.35 3.0 90.2 2.6 90.0 2.2 89.8 1.85 89.6 1.5 89.35 1.15 89.1 0.85 88.85 0.55 88.55 0.3 88.25 0.0 87.9 -0.2 87.6 -0.45 87.2 -0.6 86.85 -0.8 86.45 -0.95 86.05 -1.1 85.6 -1.15 85.4 -1.2 85.2 -1.2 85.0 -1.25 84.75 -1.25 84.55 -1.25 84.35 -1.25 84.15 -1.25 83.95 -1.25 83.75 -1.2 83.55 -1.15 83.35 -1.1 83.15 -1.05 82.95 -1.0 82.75 -0.95 82.55 -0.9 82.35 -0.8 82.35 -0.8 82.3 -0.75 82.25 -0.75 82.25 -0.75 82.2 -0.75 82.2 -0.7 82.15 -0.7 82.15 -0.7 82.1 -0.7 82.1 -0.7 82.05 -0.75 82.05 -0.75 82.0 -0.75 82.0 -0.8 81.95 -0.85 81.95 -0.9 81.75 -1.35 81.55 -1.7 81.35 -2.1 81.15 -2.4 80.95 -2.75 80.7 -3.0 80.45 -3.3 80.2 -3.55 79.95 -3.8 79.65 -4.0 79.35 -4.25 79.0 -4.45 78.65 -4.65 78.25 -4.85 77.85 -5.0 77.4 -5.2 77.55 -5.25 77.7 -5.3 77.85 -5.35 78.05 -5.35 78.2 -5.4 78.35 -5.4 78.5 -5.45 78.65 -5.45 78.8 -5.5 78.95 -5.5 79.1 -5.5 79.3 -5.5 79.45 -5.55 79.6 -5.55 79.75 -5.55 79.9 -5.55 80.45 -5.55 81.0 -5.5 81.55 -5.5 82.1 -5.45 82.6 -5.35 83.15 -5.3 83.7 -5.2 84.2 -5.05 84.75 -4.95 85.25 -4.8 85.8 -4.65 86.3 -4.5 86.8 -4.35 87.35 -4.15 87.85 -3.95 88.35 -3.75 89.7 -3.2 93.4 -1.25 93.8 -1.05 94.2 -0.85 94.6 -0.65 95.05 -0.45 95.45 -0.25 95.85 -0.05 96.25 0.15 96.7 0.35 97.1 0.5 97.5 0.7 97.95 0.85 98.35 1.05 98.75 1.2 99.2 1.4 99.6 1.55 100.05 1.75 100.1 1.75 100.3 1.85 103.6 3.0 105.3 3.5 105.9 3.65 106.5 3.8 107.15 3.95 107.75 4.1 108.35 4.25 108.95 4.35 109.6 4.5 110.2 4.6 110.8 4.7 111.4 4.8 112.05 4.9 112.65 4.95 113.3 5.0 113.9 5.05 114.55 5.1 115.15 5.15 115.25 5.15 115.35 5.15 115.55 5.2 115.55 5.2 L117.95 5.2 117.95 5.2" fill="#000000" fill-opacity="0.32156864" fill-rule="evenodd" stroke="none"/>
    <path d="M89.6 27.85 Q89.65 28.45 89.45 29.85 88.75 29.0 88.35 28.5 88.3 28.45 88.3 28.4 88.25 28.4 88.3 28.35 88.3 28.35 88.35 28.3 88.35 28.3 88.4 28.3 88.8 28.15 89.6 27.85 L89.6 27.85" fill="#000000" fill-opacity="0.10980392" fill-rule="evenodd" stroke="none"/>
    <path d="M114.25 10.6 Q114.25 10.6 114.3 10.6 114.3 10.6 114.3 10.6 114.35 10.65 114.25 10.65 114.25 10.65 114.25 10.6 L114.25 10.6" fill="#dcc3ae" fill-rule="evenodd" stroke="none"/>
    <path d="M88.7 18.5 Q88.75 18.4 88.8 18.45 88.8 18.45 88.75 18.55 88.75 18.5 88.7 18.5 L88.7 18.5" fill="#d1bca8" fill-rule="evenodd" stroke="none"/>
    <path d="M16.0 16.3 Q16.05 16.35 16.05 16.4 16.0 16.4 16.0 16.3 L16.0 16.3" fill="#336eb0" fill-rule="evenodd" stroke="none"/>
  </g>
</svg>
