<?xml version="1.0" encoding="UTF-8" standalone="no"?>
<svg xmlns:xlink="http://www.w3.org/1999/xlink" height="125.05px" width="59.9px" xmlns="http://www.w3.org/2000/svg">
  <g transform="matrix(1.0, 0.0, 0.0, 1.0, 29.95, 62.55)">
    <path d="M4.35 -41.55 Q5.7 -41.75 6.05 -41.75 6.1 -41.75 6.15 -41.75 6.2 -41.75 6.25 -41.75 6.25 -41.75 6.3 -41.75 6.35 -41.75 6.4 -41.75 6.45 -41.75 6.5 -41.75 6.55 -41.75 6.6 -41.75 6.65 -41.75 6.7 -41.75 6.75 -41.75 6.75 -41.75 6.8 -41.75 6.85 -41.75 6.9 -41.7 6.95 -41.7 6.95 -41.7 7.0 -41.65 7.0 -41.6 7.0 -41.6 7.0 -41.55 7.0 -41.5 7.0 -41.45 7.0 -41.4 7.0 -41.35 7.0 -41.3 7.0 -41.25 7.0 -41.2 7.0 -41.15 7.0 -41.15 7.0 -41.1 7.0 -41.05 7.0 -41.0 7.0 -40.95 7.0 -40.9 7.0 -40.85 7.0 -40.8 7.0 -40.75 7.0 -40.7 7.0 -40.7 7.0 -40.65 7.0 -40.6 6.95 -40.6 6.95 -40.55 6.95 -40.5 6.9 -40.5 6.9 -40.45 6.9 -40.45 6.85 -40.4 6.85 -40.4 6.8 -40.35 6.8 -40.35 6.75 -40.35 6.7 -40.3 6.5 -40.1 5.95 -39.75 4.55 -38.85 2.7 -37.85 2.65 -37.85 2.65 -37.8 2.6 -37.8 2.6 -37.8 2.55 -37.75 2.55 -37.75 2.55 -37.7 2.5 -37.7 2.5 -37.65 2.5 -37.65 2.45 -37.6 2.45 -37.6 2.45 -37.55 2.45 -37.55 2.45 -37.5 2.45 -37.45 2.45 -37.35 2.4 -37.25 2.4 -37.15 2.4 -37.05 2.4 -37.0 2.4 -36.9 2.4 -36.8 2.4 -36.7 2.4 -36.6 2.45 -36.5 2.45 -36.4 2.45 -36.35 2.5 -36.25 2.5 -36.15 2.55 -36.05 2.55 -35.95 2.65 -35.65 3.1 -34.2 3.4 -33.15 3.65 -32.5 3.75 -32.2 3.9 -31.9 4.0 -31.6 4.15 -31.3 4.3 -31.0 4.45 -30.75 4.6 -30.45 4.8 -30.2 5.0 -29.95 5.2 -29.7 5.4 -29.45 5.6 -29.25 5.8 -29.0 6.05 -28.8 6.3 -28.6 6.55 -28.4 6.75 -28.25 6.85 -28.15 7.0 -28.1 7.1 -28.0 7.25 -27.95 7.35 -27.95 7.45 -27.9 7.5 -27.9 7.6 -27.9 7.7 -27.9 7.8 -27.95 7.9 -28.0 8.0 -28.05 8.15 -28.1 8.15 -28.1 8.45 -28.25 8.6 -28.35 8.75 -28.4 8.9 -28.5 9.05 -28.6 9.2 -28.7 9.3 -28.8 9.45 -28.9 9.6 -29.0 9.7 -29.1 9.85 -29.2 10.0 -29.3 10.1 -29.45 10.25 -29.55 10.35 -29.65 10.5 -29.75 10.6 -29.9 10.85 -30.15 11.1 -30.4 11.4 -30.65 11.65 -30.9 11.9 -31.15 12.15 -31.35 12.45 -31.6 12.7 -31.8 13.0 -32.05 13.3 -32.25 13.55 -32.45 13.85 -32.65 14.15 -32.85 14.45 -33.05 14.75 -33.25 15.1 -33.45 15.3 -33.55 15.45 -33.65 15.65 -33.75 15.8 -33.85 16.0 -33.9 16.15 -34.0 16.35 -34.1 16.55 -34.15 16.7 -34.25 16.9 -34.35 17.1 -34.4 17.3 -34.5 17.45 -34.55 17.65 -34.6 17.85 -34.7 18.05 -34.75 18.15 -34.75 18.25 -34.8 18.3 -34.8 18.4 -34.8 18.5 -34.85 18.6 -34.85 18.7 -34.85 18.75 -34.85 18.85 -34.85 18.95 -34.85 19.05 -34.85 19.15 -34.85 19.2 -34.85 19.3 -34.85 19.4 -34.85 19.5 -34.8 19.55 -34.8 19.6 -34.8 19.65 -34.75 19.65 -34.75 19.7 -34.7 19.7 -34.65 19.7 -34.55 19.7 -34.45 19.75 -34.35 19.75 -34.25 19.75 -34.15 19.7 -34.05 19.7 -33.95 19.7 -33.85 19.7 -33.75 19.65 -33.65 19.6 -33.55 19.6 -33.5 19.55 -33.4 19.5 -33.3 19.45 -33.2 19.35 -33.15 18.85 -32.5 17.7 -31.5 17.2 -31.05 15.6 -29.7 14.35 -28.6 13.55 -27.9 13.45 -27.8 13.35 -27.7 13.25 -27.6 13.15 -27.5 13.05 -27.4 12.95 -27.3 12.85 -27.15 12.75 -27.05 12.65 -26.95 12.55 -26.85 12.45 -26.7 12.35 -26.6 12.25 -26.5 12.2 -26.35 12.1 -26.25 12.05 -26.1 11.95 -25.95 11.9 -25.85 11.8 -25.7 11.7 -25.55 11.65 -25.4 11.55 -25.25 11.5 -25.15 11.45 -25.0 11.4 -24.85 11.3 -24.7 11.25 -24.55 11.2 -24.4 11.15 -24.25 11.1 -24.1 11.1 -23.95 11.05 -23.75 11.05 -23.7 11.0 -23.65 11.0 -23.6 11.0 -23.55 11.0 -23.55 11.05 -23.5 11.05 -23.45 11.05 -23.4 11.05 -23.35 11.05 -23.3 11.15 -23.0 11.2 -22.7 11.3 -22.4 11.4 -22.05 11.45 -21.75 11.5 -21.45 11.6 -21.15 11.65 -20.85 11.7 -20.55 11.75 -20.2 11.75 -19.9 11.8 -19.6 11.85 -19.3 11.85 -18.95 11.9 -18.65 11.9 -18.35 11.9 -18.05 11.9 -17.75 11.9 -17.45 11.85 -17.15 11.85 -16.85 11.8 -16.6 11.75 -16.3 11.7 -16.0 11.6 -15.7 11.55 -15.45 11.45 -15.15 11.35 -14.85 11.25 -14.6 11.15 -14.3 11.05 -14.05 10.9 -13.8 10.75 -13.55 10.65 -13.3 10.5 -13.05 10.35 -12.8 10.2 -12.55 10.05 -12.3 9.9 -12.05 9.75 -11.85 9.6 -11.6 9.45 -11.35 9.3 -11.15 9.1 -10.9 8.95 -10.65 8.8 -10.45 8.6 -10.2 8.45 -10.0 7.6 -8.9 7.3 -8.7 7.25 -8.65 7.25 -8.65 7.25 -8.6 7.2 -8.55 7.2 -8.55 7.2 -8.5 7.2 -8.5 7.15 -8.4 7.0 -8.05 6.9 -7.7 6.8 -7.3 6.65 -7.0 6.55 -6.6 6.45 -6.25 6.3 -5.9 6.2 -5.55 6.1 -5.2 6.0 -4.8 5.9 -4.45 5.8 -4.1 5.7 -3.7 5.65 -3.35 5.55 -3.0 5.45 -2.6 5.35 -2.15 4.95 0.55 4.9 0.85 4.85 1.2 4.8 1.5 4.75 1.8 4.75 2.15 4.7 2.45 4.65 2.75 4.6 3.1 4.55 3.4 4.5 3.7 4.45 4.05 4.45 4.35 4.4 4.7 4.35 5.0 4.3 5.3 4.25 5.65 4.05 7.2 3.7 9.8 3.4 12.1 2.95 14.75 2.15 19.3 1.35 23.1 1.25 23.55 1.15 24.0 1.05 24.45 0.95 24.9 0.85 25.35 0.75 25.8 0.65 26.25 0.55 26.7 0.45 27.15 0.35 27.6 0.25 28.05 0.15 28.5 0.05 28.95 -0.1 29.4 -0.2 29.85 -0.3 30.25 -0.45 30.8 -1.2 33.6 -1.75 35.65 -2.1 36.9 -2.25 37.35 -2.35 37.75 -2.5 38.2 -2.6 38.65 -2.75 39.05 -2.9 39.5 -3.05 39.95 -3.2 40.35 -3.35 40.8 -3.5 41.2 -3.65 41.6 -3.8 42.05 -3.95 42.45 -4.15 42.85 -4.3 43.3 -4.5 43.7 -4.65 44.0 -4.8 44.35 -4.95 44.7 -5.1 45.0 -5.25 45.3 -5.45 45.65 -5.6 45.95 -5.75 46.3 -5.95 46.6 -6.1 46.95 -6.25 47.25 -6.45 47.55 -6.6 47.85 -6.8 48.2 -6.95 48.5 -7.15 48.8 -7.3 49.05 -7.35 49.2 -7.5 49.4 -7.6 49.6 -7.7 49.8 -7.85 49.95 -7.95 50.15 -8.05 50.35 -8.2 50.55 -8.3 50.7 -8.45 50.9 -8.55 51.1 -8.7 51.25 -8.85 51.45 -9.0 51.6 -9.15 51.8 -9.3 51.95 -9.45 52.1 -9.55 52.25 -9.7 52.4 -9.85 52.55 -10.0 52.75 -10.15 52.9 -10.3 53.05 -10.45 53.15 -10.6 53.3 -10.75 53.45 -10.95 53.6 -11.1 53.75 -11.25 53.9 -11.4 54.05 -11.55 54.2 -11.8 54.4 -12.05 54.6 -12.3 54.85 -12.55 55.05 -12.8 55.25 -13.05 55.45 -13.3 55.65 -13.55 55.85 -13.8 56.05 -14.05 56.25 -14.3 56.45 -14.55 56.65 -14.85 56.85 -15.1 57.05 -15.35 57.25 -15.6 57.4 -15.75 57.5 -15.95 57.65 -16.1 57.75 -16.25 57.85 -16.4 57.95 -16.6 58.05 -16.75 58.2 -16.9 58.3 -17.1 58.4 -17.25 58.5 -17.4 58.6 -17.6 58.7 -17.75 58.8 -17.9 58.9 -18.1 59.0 -18.25 59.05 -18.35 59.1 -18.5 59.15 -18.6 59.2 -18.7 59.25 -18.8 59.3 -18.95 59.35 -19.05 59.4 -19.15 59.4 -19.3 59.45 -19.4 59.5 -19.55 59.5 -19.65 59.5 -19.75 59.55 -19.9 59.55 -20.0 59.55 -20.15 59.55 -20.35 59.55 -20.55 59.55 -20.75 59.55 -20.95 59.5 -21.15 59.45 -21.35 59.4 -21.55 59.35 -21.7 59.3 -21.9 59.2 -22.05 59.1 -22.25 59.0 -22.4 58.9 -22.55 58.75 -22.7 58.65 -22.85 58.5 -23.0 58.3 -23.1 58.2 -23.15 58.1 -23.2 58.0 -23.3 57.9 -23.35 57.8 -23.45 57.7 -23.5 57.6 -23.55 57.5 -23.6 57.4 -23.7 57.3 -23.75 57.15 -23.8 57.05 -23.85 56.95 -23.9 56.85 -23.95 56.75 -24.0 56.6 -24.15 56.3 -24.25 56.0 -24.4 55.75 -24.5 55.45 -24.6 55.15 -24.7 54.85 -24.8 54.55 -24.9 54.25 -25.0 53.95 -25.05 53.6 -25.15 53.3 -25.2 53.0 -25.3 52.7 -25.35 52.4 -25.4 52.1 -25.45 51.75 -25.85 49.55 -26.15 46.05 -26.2 45.55 -26.2 45.05 -26.25 44.55 -26.25 44.05 -26.3 43.55 -26.3 43.05 -26.3 42.55 -26.3 42.05 -26.35 41.55 -26.3 41.05 -26.3 40.55 -26.3 40.05 -26.3 39.55 -26.3 39.05 -26.25 38.6 -26.25 38.05 -26.25 37.65 -26.2 37.2 -26.15 36.8 -26.05 36.4 -26.0 36.0 -25.9 35.55 -25.8 35.15 -25.7 34.75 -25.6 34.35 -25.45 33.95 -25.3 33.6 -25.15 33.2 -25.0 32.8 -24.8 32.4 -24.6 32.05 -24.4 31.65 -24.15 31.2 -23.15 29.2 -21.5 26.0 -19.4 21.35 -16.8 15.65 -16.25 14.4 -15.9 13.6 -14.25 10.15 -12.55 6.6 -10.9 3.35 -10.15 1.75 -9.15 -0.3 -8.1 -2.4 -6.65 -5.55 -5.35 -8.5 -4.8 -9.7 -4.75 -9.75 -4.75 -9.85 -4.7 -9.9 -4.65 -9.95 -4.65 -10.05 -4.6 -10.1 -4.55 -10.2 -4.55 -10.25 -4.5 -10.3 -4.45 -10.4 -4.45 -10.45 -4.4 -10.55 -4.4 -10.6 -4.35 -10.65 -4.35 -10.75 -4.3 -10.8 -4.3 -10.85 -4.25 -10.9 -4.25 -10.9 -4.25 -10.95 -4.25 -11.0 -4.2 -11.0 -4.2 -11.05 -4.15 -11.1 -4.0 -11.3 -3.8 -12.05 -3.8 -12.05 -3.8 -12.05 -3.75 -12.15 -3.75 -12.2 -3.7 -12.3 -3.7 -12.35 -3.65 -12.4 -3.7 -12.5 -3.7 -12.55 -3.7 -12.65 -3.7 -12.7 -3.7 -12.8 -3.75 -12.85 -3.75 -12.95 -3.75 -13.0 -3.8 -13.05 -3.85 -13.25 -3.85 -13.2 -3.95 -13.45 -4.05 -13.7 -4.1 -13.95 -4.2 -14.2 -4.3 -14.45 -4.4 -14.7 -4.5 -14.9 -4.6 -15.15 -4.7 -15.4 -4.8 -15.65 -4.9 -15.9 -5.05 -16.1 -5.15 -16.35 -5.25 -16.6 -5.35 -16.85 -5.45 -17.05 -7.0 -20.3 -7.5 -21.75 -7.55 -21.9 -7.6 -22.05 -7.65 -22.25 -7.75 -22.4 -7.8 -22.55 -7.85 -22.7 -7.9 -22.85 -7.95 -23.05 -7.95 -23.2 -8.0 -23.35 -8.05 -23.55 -8.1 -23.7 -8.15 -23.85 -8.15 -24.0 -8.2 -24.2 -8.25 -24.35 -8.45 -25.5 -9.05 -28.0 -9.1 -28.2 -9.15 -28.45 -9.2 -28.65 -9.25 -28.9 -9.3 -29.1 -9.35 -29.35 -9.4 -29.55 -9.45 -29.8 -9.45 -30.05 -9.5 -30.25 -9.55 -30.5 -9.55 -30.7 -9.6 -30.95 -9.65 -31.15 -9.65 -31.4 -9.7 -31.65 -9.75 -32.35 -9.95 -33.75 -9.95 -33.9 -10.0 -34.05 -10.0 -34.2 -10.0 -34.35 -10.05 -34.5 -10.05 -34.65 -10.05 -34.8 -10.05 -34.95 -10.05 -35.1 -10.1 -35.25 -10.1 -35.4 -10.1 -35.55 -10.1 -35.7 -10.1 -35.85 -10.1 -36.0 -10.1 -36.15 -10.1 -36.4 -10.1 -36.65 -10.1 -36.9 -10.1 -37.15 -10.1 -37.4 -10.05 -37.65 -10.05 -37.9 -10.05 -38.1 -10.0 -38.35 -10.0 -38.6 -10.0 -38.85 -9.95 -39.1 -9.95 -39.35 -9.9 -39.55 -9.85 -39.8 -9.8 -40.05 -9.8 -40.2 -9.75 -40.35 -9.7 -40.5 -9.65 -40.65 -9.65 -40.8 -9.6 -40.9 -9.5 -41.05 -9.45 -41.15 -9.4 -41.3 -9.3 -41.4 -9.25 -41.55 -9.15 -41.65 -9.05 -41.75 -8.95 -41.85 -8.8 -41.95 -8.7 -42.05 -8.65 -42.1 -8.6 -42.15 -8.6 -42.15 -8.55 -42.2 -8.55 -42.25 -8.5 -42.3 -8.45 -42.5 -8.35 -42.7 -8.3 -42.9 -8.2 -43.1 -8.1 -43.3 -8.0 -43.5 -7.9 -43.7 -7.8 -43.85 -7.65 -44.05 -7.55 -44.25 -7.4 -44.4 -7.3 -44.6 -7.15 -44.75 -7.0 -44.9 -6.85 -45.1 -6.7 -45.25 -6.4 -45.6 -5.3 -46.9 -4.45 -47.9 -3.9 -48.5 -3.75 -48.7 -2.7 -50.35 -1.25 -52.6 1.5 -57.05 1.55 -57.1 1.55 -57.1 1.6 -57.15 1.6 -57.2 1.65 -57.2 1.65 -57.25 1.7 -57.25 1.7 -57.3 1.75 -57.3 1.8 -57.3 1.8 -57.3 1.85 -57.35 1.9 -57.35 1.9 -57.35 1.95 -57.35 2.0 -57.35 2.1 -57.35 2.25 -57.35 2.5 -57.35 2.55 -57.35 2.7 -57.35 2.75 -57.3 2.8 -57.3 2.8 -57.25 2.85 -57.2 2.85 -57.05 2.85 -56.9 2.9 -56.7 2.9 -56.55 2.9 -56.4 2.9 -56.2 2.9 -56.05 2.9 -55.9 2.9 -55.7 2.9 -55.55 2.9 -55.4 2.85 -55.2 2.85 -55.05 2.85 -54.9 2.8 -54.75 2.75 -54.55 2.75 -54.4 2.7 -54.25 2.7 -54.1 2.65 -53.95 2.6 -53.85 2.55 -53.7 2.55 -53.55 2.5 -53.4 2.45 -53.25 2.4 -53.15 2.35 -53.0 2.3 -52.85 2.3 -52.7 2.25 -52.6 2.2 -52.45 2.15 -52.3 2.1 -52.15 2.05 -52.0 2.05 -52.0 2.05 -51.95 2.1 -51.9 2.1 -51.85 2.25 -51.85 2.35 -51.8 2.4 -51.8 2.5 -51.75 2.55 -51.7 2.65 -51.7 2.7 -51.65 2.8 -51.6 2.85 -51.55 2.95 -51.5 3.0 -51.45 3.05 -51.4 3.15 -51.35 3.2 -51.3 3.25 -51.25 3.3 -51.15 3.4 -51.1 3.45 -51.05 3.5 -51.05 3.55 -51.0 3.6 -51.0 3.6 -51.0 3.65 -51.05 3.7 -51.05 3.75 -51.1 3.8 -51.15 3.85 -51.2 3.9 -51.25 4.0 -51.3 4.05 -51.3 4.1 -51.35 4.15 -51.4 4.2 -51.45 4.25 -51.5 4.35 -51.55 4.4 -51.6 4.45 -51.6 4.5 -51.65 4.55 -51.7 4.6 -51.75 4.65 -51.8 4.75 -51.85 4.8 -51.9 4.9 -51.9 4.95 -51.95 5.05 -51.95 5.15 -51.95 5.2 -52.0 5.3 -52.0 5.4 -52.0 5.45 -52.0 5.55 -52.0 5.65 -52.0 5.7 -51.95 5.8 -51.95 5.85 -51.95 5.95 -51.95 6.0 -51.95 6.05 -51.9 6.05 -51.9 6.05 -51.85 6.1 -51.8 6.1 -51.75 6.1 -51.4 6.1 -51.55 6.1 -51.45 6.1 -51.4 6.1 -51.3 6.1 -51.2 6.1 -51.15 6.1 -51.05 6.1 -50.95 6.05 -50.85 6.05 -50.75 6.05 -50.7 6.0 -50.6 5.95 -50.5 5.95 -50.45 5.9 -50.35 5.75 -50.05 5.15 -48.85 5.15 -48.8 5.15 -48.8 5.15 -48.75 5.15 -48.7 5.15 -48.65 5.15 -48.6 5.15 -48.55 5.15 -48.5 5.15 -48.45 5.15 -48.4 5.2 -48.35 5.2 -48.3 5.2 -48.25 5.25 -48.2 5.25 -48.2 5.25 -48.15 5.25 -48.15 5.6 -48.1 5.8 -48.1 5.85 -48.05 5.9 -48.05 5.95 -47.95 5.95 -47.9 5.95 -47.7 5.95 -47.55 5.95 -47.45 5.95 -47.3 5.95 -47.15 5.95 -47.05 5.95 -46.9 5.95 -46.75 5.9 -46.65 5.9 -46.5 5.85 -46.4 5.8 -46.25 5.8 -46.15 5.75 -46.0 5.7 -45.9 5.65 -45.75 5.55 -45.65 5.55 -45.6 5.5 -45.55 5.5 -45.5 5.45 -45.45 5.45 -45.4 5.45 -45.35 5.45 -45.3 5.4 -45.25 5.4 -45.15 5.4 -45.1 5.35 -45.05 5.35 -45.0 5.35 -44.95 5.35 -44.9 5.35 -44.85 5.3 -44.8 5.25 -44.6 5.25 -44.4 5.2 -44.2 5.15 -44.05 5.1 -43.85 5.05 -43.65 5.0 -43.45 4.95 -43.25 4.9 -43.1 4.85 -42.9 4.8 -42.7 4.7 -42.55 4.65 -42.35 4.6 -42.15 4.55 -42.0 4.45 -41.8 4.45 -41.75 4.4 -41.7 4.4 -41.65 4.35 -41.55 L4.35 -41.55" fill="#a42742" fill-rule="evenodd" stroke="none"/>
  </g>
</svg>
