<?xml version="1.0" encoding="UTF-8" standalone="no"?>
<svg xmlns:xlink="http://www.w3.org/1999/xlink" height="127.05px" width="75.7px" xmlns="http://www.w3.org/2000/svg">
  <g transform="matrix(1.0, 0.0, 0.0, 1.0, 37.85, 63.55)">
    <path d="M10.5 -52.1 Q10.5 -52.1 10.95 -52.4 11.2 -52.6 11.4 -52.7 11.5 -52.75 11.55 -52.8 11.65 -52.85 11.7 -52.9 11.8 -52.95 11.85 -53.0 11.95 -53.05 12.05 -53.1 12.1 -53.15 12.2 -53.15 12.3 -53.2 12.4 -53.25 12.45 -53.25 12.55 -53.3 12.65 -53.35 12.75 -53.35 12.95 -53.4 13.15 -53.4 13.35 -53.4 13.55 -53.35 13.7 -53.35 13.9 -53.25 14.05 -53.15 14.2 -53.05 14.35 -52.9 14.45 -52.75 14.55 -52.6 14.6 -52.4 14.7 -52.25 14.7 -52.05 14.75 -51.85 14.7 -51.65 14.65 -51.2 13.85 -49.65 13.8 -49.6 13.8 -49.55 13.8 -49.45 13.75 -49.4 13.75 -49.35 13.75 -49.3 13.75 -49.25 13.75 -49.2 13.75 -49.15 13.75 -49.1 13.75 -49.05 13.8 -49.0 13.8 -48.95 13.85 -48.9 13.85 -48.85 13.9 -48.8 13.95 -48.7 14.05 -48.6 14.1 -48.55 14.15 -48.45 14.2 -48.35 14.25 -48.25 14.25 -48.15 14.3 -48.05 14.3 -47.95 14.3 -47.8 14.35 -47.7 14.35 -47.6 14.35 -47.5 14.3 -47.4 14.3 -47.25 14.25 -47.15 14.2 -46.95 14.15 -46.7 14.1 -46.5 14.05 -46.25 13.95 -46.05 13.9 -45.85 13.85 -45.6 13.75 -45.4 13.7 -45.2 13.6 -45.0 13.5 -44.8 13.4 -44.55 13.35 -44.35 13.25 -44.15 13.15 -43.95 13.05 -43.75 12.8 -43.35 12.5 -42.8 12.65 -42.75 13.4 -42.85 13.45 -42.85 13.55 -42.85 13.6 -42.85 13.65 -42.85 13.75 -42.85 13.8 -42.85 13.9 -42.85 13.95 -42.85 14.0 -42.8 14.1 -42.8 14.15 -42.8 14.2 -42.8 14.25 -42.75 14.35 -42.75 14.4 -42.7 14.45 -42.7 14.65 -42.6 14.85 -42.5 15.05 -42.4 15.2 -42.25 15.35 -42.1 15.45 -41.95 15.55 -41.8 15.6 -41.6 15.65 -41.4 15.65 -41.25 15.65 -41.05 15.6 -40.85 15.6 -40.65 15.5 -40.45 15.4 -40.25 15.25 -40.05 15.15 -39.95 15.1 -39.85 15.0 -39.75 14.9 -39.65 14.85 -39.55 14.75 -39.45 14.65 -39.35 14.55 -39.25 14.45 -39.2 14.35 -39.1 14.25 -39.0 14.15 -38.95 14.05 -38.85 13.95 -38.8 13.85 -38.7 13.7 -38.65 12.45 -37.8 10.8 -36.85 10.75 -36.8 10.7 -36.8 10.65 -36.75 10.6 -36.75 10.55 -36.7 10.55 -36.65 10.5 -36.6 10.5 -36.6 10.45 -36.55 10.45 -36.5 10.45 -36.45 10.45 -36.4 10.45 -36.35 10.45 -36.3 10.45 -36.25 10.5 -36.15 10.65 -35.7 11.15 -34.1 11.55 -32.85 11.8 -32.1 11.85 -31.9 11.95 -31.7 12.0 -31.5 12.1 -31.35 12.2 -31.15 12.3 -30.95 12.4 -30.8 12.5 -30.6 12.65 -30.45 12.75 -30.3 12.85 -30.1 13.0 -29.95 13.15 -29.8 13.3 -29.65 13.4 -29.5 13.55 -29.35 13.7 -29.2 13.8 -29.15 13.9 -29.05 14.0 -28.95 14.1 -28.9 14.2 -28.9 14.3 -28.85 14.4 -28.85 14.45 -28.85 14.55 -28.85 14.65 -28.85 14.75 -28.9 14.85 -28.95 15.0 -29.05 15.1 -29.1 15.25 -29.2 15.35 -29.25 15.5 -29.35 15.6 -29.45 15.7 -29.5 15.8 -29.6 15.95 -29.65 16.05 -29.75 16.15 -29.85 16.25 -29.95 16.35 -30.0 16.45 -30.1 16.55 -30.2 16.65 -30.3 16.75 -30.4 16.85 -30.5 16.95 -30.6 17.2 -30.85 17.5 -31.1 17.75 -31.35 18.0 -31.6 18.3 -31.85 18.55 -32.05 18.85 -32.3 19.1 -32.5 19.4 -32.75 19.7 -32.95 20.0 -33.2 20.3 -33.4 20.6 -33.6 20.9 -33.8 21.2 -33.95 21.55 -34.15 21.8 -34.3 22.05 -34.45 22.35 -34.6 22.6 -34.7 22.9 -34.85 23.15 -34.95 23.4 -35.1 23.7 -35.2 23.95 -35.35 24.25 -35.4 24.55 -35.55 24.8 -35.6 25.1 -35.7 25.4 -35.75 25.7 -35.85 26.0 -35.9 26.25 -35.95 26.5 -35.9 26.7 -35.9 26.95 -35.8 27.15 -35.75 27.35 -35.6 27.5 -35.5 27.65 -35.35 27.8 -35.15 27.9 -34.95 28.0 -34.75 28.05 -34.55 28.1 -34.3 28.1 -34.1 28.05 -33.85 28.0 -33.6 27.95 -33.45 27.9 -33.3 27.85 -33.15 27.75 -33.0 27.7 -32.85 27.6 -32.75 27.5 -32.6 27.4 -32.45 27.35 -32.35 27.25 -32.2 27.15 -32.1 27.05 -31.95 26.95 -31.85 26.8 -31.75 26.7 -31.6 26.6 -31.5 26.1 -30.95 23.45 -28.65 21.75 -27.25 21.0 -26.55 20.85 -26.4 20.65 -26.25 20.5 -26.05 20.35 -25.9 20.25 -25.7 20.1 -25.55 19.95 -25.35 19.85 -25.15 19.75 -24.95 19.65 -24.75 19.55 -24.55 19.45 -24.35 19.4 -24.15 19.35 -23.95 19.25 -23.7 19.2 -23.5 19.2 -23.45 19.2 -23.4 19.2 -23.35 19.2 -23.3 19.2 -23.2 19.2 -23.15 19.2 -23.1 19.2 -23.05 19.2 -23.0 19.2 -22.95 19.2 -22.9 19.25 -22.85 19.25 -22.8 19.25 -22.75 19.25 -22.7 19.3 -22.65 19.35 -22.4 19.45 -22.15 19.5 -21.9 19.55 -21.65 19.6 -21.4 19.65 -21.15 19.7 -20.9 19.75 -20.65 19.8 -20.4 19.85 -20.15 19.9 -19.9 19.95 -19.65 19.95 -19.4 20.0 -19.15 20.05 -18.9 20.05 -18.65 20.1 -18.25 20.1 -17.85 20.1 -17.45 20.05 -17.0 20.05 -16.65 19.95 -16.25 19.9 -15.85 19.8 -15.45 19.7 -15.1 19.6 -14.7 19.45 -14.35 19.3 -13.95 19.15 -13.6 18.95 -13.2 18.8 -12.85 18.6 -12.5 18.45 -12.2 18.25 -11.9 18.1 -11.6 17.9 -11.3 17.75 -11.05 17.55 -10.75 17.35 -10.45 17.15 -10.2 16.95 -9.9 16.75 -9.65 16.55 -9.35 16.35 -9.1 16.15 -8.85 15.9 -8.55 15.7 -8.3 15.5 -8.0 15.45 -7.95 15.45 -7.9 15.4 -7.9 15.35 -7.85 15.35 -7.8 15.3 -7.75 15.25 -7.7 15.25 -7.65 15.2 -7.6 15.2 -7.55 15.15 -7.5 15.15 -7.45 15.1 -7.4 15.1 -7.35 15.1 -7.3 15.05 -7.25 14.85 -6.75 14.7 -6.2 14.5 -5.7 14.35 -5.2 14.2 -4.65 14.05 -4.15 13.95 -3.6 13.8 -3.1 13.7 -2.55 13.6 -2.0 13.5 -1.5 13.4 -0.95 13.3 -0.4 13.25 0.15 13.15 0.65 13.1 1.2 11.35 14.1 10.45 18.75 8.5 28.6 6.6 35.1 4.95 40.8 4.65 41.6 3.9 43.65 1.0 49.25 0.7 49.85 0.35 50.4 0.0 50.95 -0.35 51.45 -0.7 51.95 -1.15 52.5 -1.55 52.95 -1.95 53.45 -2.4 53.9 -2.85 54.35 -3.3 54.8 -3.8 55.25 -4.25 55.65 -4.75 56.1 -5.2 56.45 -5.75 56.9 -6.05 57.15 -6.35 57.4 -6.65 57.6 -6.95 57.85 -7.25 58.1 -7.55 58.3 -7.85 58.55 -8.15 58.75 -8.5 59.0 -8.8 59.2 -9.1 59.4 -9.45 59.6 -9.75 59.85 -10.1 60.05 -10.4 60.25 -10.75 60.4 -10.85 60.45 -10.95 60.55 -11.1 60.6 -11.2 60.65 -11.3 60.7 -11.45 60.75 -11.55 60.8 -11.65 60.85 -11.8 60.9 -11.9 60.95 -12.0 61.0 -12.15 61.05 -12.25 61.1 -12.35 61.1 -12.5 61.15 -12.6 61.2 -12.85 61.25 -13.05 61.25 -13.3 61.3 -13.5 61.25 -13.75 61.25 -13.95 61.25 -14.2 61.2 -14.4 61.15 -14.6 61.1 -14.8 61.0 -15.0 60.9 -15.2 60.8 -15.4 60.7 -15.6 60.6 -15.8 60.5 -16.0 60.35 -16.2 60.2 -16.35 60.05 -16.5 59.95 -16.65 59.75 -16.85 59.6 -17.0 59.45 -17.1 59.3 -17.25 59.1 -17.4 58.95 -17.5 58.75 -17.65 58.55 -17.75 58.35 -17.85 58.2 -18.0 58.0 -18.1 57.8 -18.2 57.6 -18.4 57.2 -18.6 56.75 -18.75 56.3 -18.95 55.9 -19.1 55.45 -19.2 55.0 -19.35 54.55 -19.5 54.1 -19.6 53.7 -19.7 53.2 -19.8 52.8 -19.9 52.3 -19.95 51.85 -20.05 51.4 -20.15 50.95 -20.2 50.45 -20.3 49.85 -20.4 49.2 -20.45 48.55 -20.55 47.95 -20.6 47.3 -20.65 46.65 -20.7 46.05 -20.75 45.4 -20.8 44.75 -20.8 44.15 -20.85 43.5 -20.85 42.85 -20.9 42.2 -20.9 41.6 -20.9 40.95 -20.9 40.3 -20.9 39.75 -20.85 39.25 -20.8 38.7 -20.75 38.2 -20.7 37.7 -20.6 37.2 -20.5 36.65 -20.4 36.15 -20.3 35.65 -20.15 35.15 -20.0 34.65 -19.8 34.15 -19.65 33.65 -19.45 33.2 -19.2 32.7 -19.0 32.25 -17.0 28.4 -16.35 27.05 -14.3 22.75 -11.25 16.1 -9.75 12.65 -7.9 8.9 -7.1 7.25 -5.3 3.6 -3.6 0.15 -2.75 -1.7 0.05 -7.6 1.5 -10.9 1.55 -11.05 1.6 -11.25 1.7 -11.4 1.7 -11.55 1.75 -11.7 1.75 -11.9 1.8 -12.05 1.8 -12.2 1.8 -12.35 1.8 -12.55 1.75 -12.7 1.75 -12.85 1.7 -13.0 1.65 -13.2 1.6 -13.35 1.5 -13.55 1.05 -14.65 0.3 -16.25 -0.85 -18.8 -0.95 -18.95 -1.15 -19.45 -1.35 -19.9 -1.55 -20.4 -1.75 -20.85 -1.9 -21.35 -2.05 -21.85 -2.25 -22.35 -2.35 -22.8 -2.5 -23.3 -2.65 -23.8 -2.75 -24.3 -2.85 -24.8 -3.0 -25.3 -3.05 -25.8 -3.15 -26.35 -3.25 -26.85 -3.3 -27.3 -4.2 -31.45 -4.25 -31.7 -4.3 -31.9 -4.35 -32.15 -4.4 -32.4 -4.45 -32.6 -4.45 -32.85 -4.5 -33.1 -4.55 -33.3 -4.55 -33.55 -4.6 -33.75 -4.6 -34.0 -4.65 -34.25 -4.65 -34.45 -4.65 -34.7 -4.65 -34.95 -4.65 -35.15 -4.55 -38.55 -4.3 -39.5 -4.25 -39.7 -4.2 -39.9 -4.15 -40.1 -4.1 -40.25 -4.0 -40.45 -3.95 -40.65 -3.9 -40.85 -3.8 -41.0 -3.7 -41.2 -3.6 -41.35 -3.5 -41.5 -3.4 -41.65 -3.25 -41.85 -3.15 -41.95 -3.0 -42.1 -2.8 -42.25 -2.65 -42.35 -2.2 -43.15 -2.1 -43.35 -1.95 -43.55 -1.85 -43.75 -1.7 -43.95 -1.6 -44.15 -1.45 -44.35 -1.3 -44.55 -1.15 -44.7 -1.0 -44.9 -0.85 -45.05 -0.7 -45.25 -0.55 -45.4 -0.35 -45.55 -0.15 -45.7 0.0 -45.85 0.2 -46.0 0.45 -46.2 1.25 -47.5 1.75 -48.3 7.5 -57.5 8.0 -58.15 8.3 -58.45 8.45 -58.65 8.65 -58.75 8.85 -58.9 9.0 -58.95 9.2 -59.0 9.4 -59.05 9.55 -59.05 9.75 -59.0 9.95 -59.0 10.1 -58.9 10.25 -58.8 10.4 -58.7 10.55 -58.55 10.65 -58.35 10.8 -58.2 10.9 -57.95 10.95 -57.85 11.0 -57.7 11.0 -57.6 11.05 -57.5 11.1 -57.35 11.1 -57.25 11.1 -57.1 11.15 -57.0 11.15 -56.9 11.15 -56.75 11.2 -56.65 11.2 -56.5 11.2 -56.4 11.2 -56.25 11.2 -56.15 11.15 -56.0 11.15 -55.8 11.1 -55.6 11.1 -55.4 11.1 -55.2 11.05 -55.0 11.0 -54.8 11.0 -54.6 10.95 -54.45 10.9 -54.25 10.85 -54.05 10.85 -53.85 10.8 -53.65 10.75 -53.45 10.7 -53.25 10.65 -53.05 10.55 -52.85 10.45 -52.45 10.4 -52.2 10.4 -52.15 10.45 -52.15 10.45 -52.1 10.5 -52.1 L10.5 -52.1 M0.95 -43.85 Q1.2 -43.95 1.5 -44.05 1.75 -44.15 2.0 -44.2 2.25 -44.3 2.55 -44.4 2.8 -44.5 3.1 -44.55 3.35 -44.65 3.6 -44.7 3.9 -44.75 4.15 -44.85 4.45 -44.9 4.7 -44.95 5.0 -45.0 5.25 -45.05 5.45 -45.1 5.7 -45.15 5.9 -45.2 6.1 -45.25 6.3 -45.3 6.5 -45.35 6.7 -45.45 6.9 -45.5 7.1 -45.6 7.3 -45.7 7.5 -45.8 7.65 -45.9 7.85 -46.0 8.05 -46.1 8.2 -46.25 8.4 -46.35 8.5 -46.45 8.6 -46.55 8.75 -46.6 8.85 -46.7 8.95 -46.8 9.05 -46.85 9.2 -46.95 9.3 -47.05 9.4 -47.1 9.5 -47.2 9.65 -47.25 9.75 -47.35 9.85 -47.45 10.0 -47.5 10.1 -47.6 10.25 -47.65 10.35 -47.7 10.45 -47.8 10.55 -47.85 10.65 -47.95 10.75 -48.05 10.85 -48.1 10.9 -48.2 11.0 -48.3 11.1 -48.4 11.15 -48.5 11.2 -48.6 11.3 -48.7 11.35 -48.8 11.4 -48.9 11.45 -49.05 11.5 -49.15 11.55 -49.25 11.6 -49.4 11.65 -49.5 11.7 -49.6 11.75 -49.7 11.85 -49.85 11.95 -50.0 11.95 -50.05 12.05 -50.2 12.1 -50.3 12.15 -50.4 12.2 -50.55 12.25 -50.65 12.3 -50.8 12.35 -50.95 12.4 -51.05 12.1 -50.9 11.35 -50.35 9.95 -49.25 8.9 -48.6 8.6 -48.4 8.1 -48.1 7.5 -47.7 7.3 -47.6 6.85 -47.3 6.5 -47.1 6.1 -46.85 5.7 -46.6 5.3 -46.35 4.9 -46.15 4.45 -45.9 4.05 -45.7 3.65 -45.5 3.2 -45.35 2.75 -45.15 2.35 -45.0 2.25 -44.95 2.1 -44.9 2.0 -44.85 1.9 -44.8 1.8 -44.75 1.7 -44.7 1.55 -44.65 1.45 -44.55 1.35 -44.5 1.25 -44.45 1.15 -44.35 1.05 -44.3 0.95 -44.2 0.85 -44.15 0.75 -44.05 0.7 -43.95 0.65 -43.95 0.6 -43.95 0.6 -43.9 0.55 -43.9 0.5 -43.85 0.5 -43.85 0.45 -43.8 0.45 -43.8 0.45 -43.75 0.45 -43.75 0.5 -43.65 0.6 -43.7 0.6 -43.7 0.75 -43.75 0.8 -43.75 0.95 -43.85 L0.95 -43.85 M3.5 -10.6 Q3.45 -10.55 3.4 -10.45 3.35 -10.35 3.3 -10.3 3.25 -10.2 3.2 -10.1 3.15 -10.05 3.1 -9.95 3.1 -9.85 3.05 -9.8 3.0 -9.7 3.0 -9.6 2.95 -9.55 2.95 -9.45 2.9 -9.3 2.85 -9.25 2.8 -9.15 2.75 -9.05 2.65 -8.9 2.65 -8.8 -0.85 -1.1 -2.45 2.05 -7.1 11.45 -9.5 16.7 -14.7 28.25 -17.1 32.7 -17.3 33.1 -17.5 33.55 -17.7 34.0 -17.9 34.4 -18.05 34.85 -18.2 35.3 -18.3 35.75 -18.45 36.2 -18.55 36.65 -18.65 37.1 -18.7 37.6 -18.75 38.05 -18.85 38.5 -18.85 39.0 -18.9 39.45 -18.9 39.95 -18.95 44.1 -18.65 46.85 -18.3 50.3 -18.0 51.85 -17.95 52.2 -17.85 52.5 -17.8 52.85 -17.7 53.2 -17.65 53.55 -17.55 53.85 -17.45 54.2 -17.35 54.5 -17.25 54.85 -17.15 55.15 -17.05 55.45 -16.9 55.8 -16.8 56.1 -16.65 56.4 -16.5 56.7 -16.35 57.0 -16.3 57.15 -16.2 57.25 -16.15 57.35 -16.1 57.45 -16.0 57.6 -15.95 57.7 -15.85 57.8 -15.8 57.9 -15.7 58.05 -15.6 58.15 -15.55 58.25 -15.45 58.3 -15.35 58.4 -15.25 58.5 -15.15 58.6 -15.05 58.7 -14.9 58.8 -14.75 58.9 -14.6 59.0 -14.4 59.1 -14.25 59.15 -14.1 59.2 -13.95 59.25 -13.75 59.3 -13.6 59.35 -13.45 59.35 -13.25 59.35 -13.05 59.3 -12.9 59.3 -12.7 59.2 -12.55 59.15 -12.35 59.1 -12.2 59.05 -12.1 58.95 -12.0 58.9 -11.85 58.85 -11.75 58.8 -11.6 58.7 -11.5 58.65 -11.35 58.6 -11.25 58.5 -11.15 58.45 -11.0 58.35 -10.9 58.3 -10.8 58.25 -10.65 58.15 -10.55 58.1 -10.45 58.0 -10.1 57.75 -9.75 57.5 -9.35 57.3 -9.0 57.05 -8.65 56.8 -8.3 56.5 -7.95 56.25 -7.65 56.0 -7.3 55.75 -6.95 55.45 -6.6 55.2 -6.3 54.9 -5.95 54.65 -5.6 54.35 -5.3 54.05 -4.95 53.75 -4.7 53.55 -4.5 53.3 -4.25 53.1 -4.0 52.9 -3.75 52.65 -3.55 52.4 -3.35 52.2 -3.1 51.95 -2.9 51.7 -2.7 51.45 -2.5 51.2 -2.3 50.95 -2.1 50.7 -1.9 50.45 -1.75 50.15 -1.55 49.9 -1.25 49.35 -0.95 48.85 -0.65 48.3 -0.35 47.8 -0.05 47.25 0.2 46.75 0.5 46.2 0.75 45.7 1.05 45.15 1.3 44.6 1.55 44.05 1.8 43.55 2.05 42.95 2.3 42.4 2.5 41.85 2.7 41.3 3.7 38.65 5.9 30.35 7.4 24.8 8.95 16.15 9.05 15.55 9.15 14.9 9.3 14.3 9.4 13.65 9.5 13.05 9.6 12.4 9.7 11.75 9.8 11.15 9.85 10.5 9.95 9.9 10.05 9.25 10.15 8.6 10.25 8.0 10.3 7.35 10.4 6.75 10.5 6.1 10.85 3.2 11.5 -1.25 11.55 -1.6 11.6 -1.95 11.65 -2.3 11.75 -2.6 11.8 -2.95 11.9 -3.3 11.95 -3.65 12.05 -3.95 12.1 -4.3 12.2 -4.65 12.3 -5.0 12.4 -5.3 12.5 -5.65 12.6 -5.95 12.7 -6.3 12.8 -6.65 13.05 -7.35 13.55 -8.8 14.0 -9.15 14.05 -9.2 14.4 -9.65 14.55 -9.85 14.8 -10.2 15.0 -10.5 15.3 -10.85 15.5 -11.15 15.75 -11.5 15.95 -11.8 16.2 -12.15 16.4 -12.45 16.6 -12.8 16.8 -13.15 17.0 -13.5 17.15 -13.85 17.35 -14.25 17.5 -14.6 17.6 -14.85 17.7 -15.1 17.8 -15.35 17.85 -15.6 17.95 -15.85 18.0 -16.1 18.05 -16.35 18.1 -16.6 18.15 -16.9 18.15 -17.15 18.15 -17.4 18.2 -17.65 18.2 -17.95 18.15 -18.2 18.15 -18.45 18.1 -18.75 18.05 -19.0 18.05 -19.25 18.0 -19.5 17.95 -19.75 17.95 -20.0 17.9 -20.25 17.85 -20.5 17.8 -20.75 17.75 -21.0 17.7 -21.25 17.65 -21.5 17.55 -21.75 17.5 -22.0 17.45 -22.25 17.35 -22.45 17.3 -22.7 17.3 -22.75 17.25 -22.8 17.25 -22.85 17.25 -22.9 17.25 -22.95 17.25 -23.0 17.2 -23.05 17.2 -23.1 17.2 -23.15 17.2 -23.2 17.2 -23.25 17.2 -23.3 17.2 -23.35 17.25 -23.4 17.25 -23.45 17.25 -23.5 17.3 -23.8 17.4 -24.15 17.5 -24.45 17.6 -24.75 17.7 -25.05 17.85 -25.35 17.95 -25.6 18.1 -25.9 18.25 -26.15 18.45 -26.45 18.6 -26.7 18.8 -26.95 19.0 -27.2 19.2 -27.4 19.45 -27.65 19.7 -27.85 19.8 -27.95 19.9 -28.05 20.0 -28.15 20.1 -28.25 20.2 -28.3 20.3 -28.4 20.4 -28.5 20.5 -28.6 20.6 -28.7 20.7 -28.8 20.8 -28.85 20.9 -28.95 21.0 -29.05 21.1 -29.15 21.2 -29.25 21.3 -29.35 23.05 -30.8 24.65 -32.2 24.75 -32.3 24.85 -32.4 24.95 -32.45 25.05 -32.55 25.15 -32.65 25.25 -32.75 25.3 -32.85 25.4 -32.95 25.5 -33.05 25.6 -33.15 25.65 -33.25 25.75 -33.4 25.8 -33.5 25.9 -33.6 25.95 -33.75 26.05 -33.85 26.0 -33.85 25.95 -33.9 25.95 -33.9 25.9 -33.9 25.85 -33.9 25.85 -33.9 25.8 -33.9 25.75 -33.9 25.75 -33.9 25.7 -33.9 25.7 -33.9 25.65 -33.85 25.6 -33.85 25.6 -33.85 25.55 -33.85 25.55 -33.85 25.25 -33.75 24.95 -33.65 24.65 -33.55 24.4 -33.45 24.1 -33.35 23.8 -33.2 23.55 -33.1 23.25 -32.95 23.0 -32.8 22.7 -32.65 22.45 -32.5 22.15 -32.35 21.9 -32.15 21.65 -32.0 21.4 -31.8 21.1 -31.65 20.9 -31.5 20.7 -31.35 20.5 -31.2 20.35 -31.05 20.15 -30.9 19.95 -30.75 19.75 -30.6 19.6 -30.45 19.4 -30.3 19.2 -30.15 19.05 -30.0 18.85 -29.8 18.7 -29.65 18.5 -29.5 18.35 -29.3 18.15 -29.15 18.0 -29.0 17.9 -28.9 17.75 -28.75 17.6 -28.65 17.5 -28.5 17.35 -28.4 17.2 -28.25 17.05 -28.15 16.9 -28.05 16.75 -27.9 16.6 -27.8 16.45 -27.7 16.3 -27.6 16.15 -27.5 16.0 -27.4 15.8 -27.3 15.55 -27.2 15.35 -27.1 15.15 -27.0 14.95 -26.95 14.75 -26.9 14.55 -26.9 14.35 -26.9 14.15 -26.9 13.95 -26.95 13.75 -27.0 13.55 -27.05 13.4 -27.15 13.2 -27.25 13.0 -27.4 12.8 -27.55 12.6 -27.7 12.35 -27.9 12.15 -28.15 11.9 -28.35 11.7 -28.6 11.5 -28.85 11.3 -29.1 11.1 -29.3 10.95 -29.6 10.8 -29.85 10.65 -30.1 10.45 -30.4 10.35 -30.65 10.2 -30.95 10.1 -31.25 9.95 -31.55 9.85 -31.85 9.65 -32.55 9.3 -33.7 8.85 -35.1 8.7 -35.6 8.7 -35.65 8.65 -35.7 8.65 -35.8 8.65 -35.8 8.6 -35.9 8.6 -35.9 8.55 -35.95 8.5 -35.95 8.3 -35.9 8.1 -35.85 7.9 -35.75 7.75 -35.65 7.6 -35.55 7.5 -35.45 7.35 -35.3 7.3 -35.15 7.2 -35.05 7.15 -34.85 7.1 -34.7 7.05 -34.55 7.0 -34.35 7.0 -34.15 6.95 -34.0 6.95 -33.8 6.95 -33.7 6.95 -33.25 6.95 -32.6 7.0 -31.95 7.0 -31.3 7.05 -30.65 7.1 -30.0 7.15 -29.35 7.2 -28.65 7.25 -28.0 7.3 -27.35 7.35 -26.7 7.4 -26.05 7.45 -25.4 7.55 -24.75 7.6 -24.1 7.7 -23.45 7.8 -22.8 7.8 -22.75 7.8 -22.7 7.8 -22.7 7.8 -22.6 7.8 -22.5 7.8 -22.45 7.85 -22.4 7.85 -22.35 7.85 -22.3 7.85 -22.25 7.85 -22.15 7.8 -22.1 7.8 -22.0 7.8 -21.95 7.8 -21.9 7.75 -21.8 7.75 -21.85 7.7 -21.9 7.7 -21.95 7.65 -22.0 7.65 -22.05 7.65 -22.1 7.6 -22.1 7.6 -22.15 7.6 -22.2 7.55 -22.2 7.55 -22.25 7.55 -22.25 7.55 -22.3 7.5 -22.35 7.5 -22.35 7.5 -22.4 7.4 -22.65 7.3 -22.95 7.2 -23.2 7.1 -23.5 7.0 -23.75 6.9 -24.05 6.8 -24.35 6.7 -24.65 6.65 -24.9 6.55 -25.2 6.5 -25.5 6.4 -25.8 6.35 -26.1 6.25 -26.4 6.2 -26.65 6.1 -27.0 6.0 -27.4 5.9 -27.85 5.85 -28.3 5.8 -28.7 5.7 -29.15 5.65 -29.6 5.6 -30.0 5.6 -30.45 5.55 -30.85 5.55 -31.3 5.5 -31.75 5.5 -32.2 5.5 -32.6 5.5 -33.05 5.45 -33.5 5.5 -33.95 5.5 -34.25 5.55 -34.5 5.55 -34.75 5.6 -35.0 5.65 -35.25 5.75 -35.45 5.85 -35.7 5.95 -35.9 6.05 -36.1 6.2 -36.3 6.4 -36.5 6.55 -36.65 6.75 -36.8 7.0 -36.95 7.2 -37.1 7.45 -37.2 7.65 -37.3 8.2 -37.6 10.7 -38.95 12.4 -40.05 12.45 -40.1 12.5 -40.1 12.6 -40.15 12.65 -40.2 12.7 -40.25 12.75 -40.25 12.8 -40.3 12.9 -40.35 12.95 -40.4 13.0 -40.45 13.05 -40.5 13.1 -40.55 13.2 -40.6 13.25 -40.65 13.3 -40.75 13.35 -40.8 12.85 -40.8 12.85 -40.8 12.4 -40.75 9.8 -40.3 7.9 -40.0 6.7 -39.85 6.5 -39.8 6.35 -39.8 6.2 -39.75 6.05 -39.65 5.9 -39.6 5.75 -39.55 5.6 -39.45 5.45 -39.35 5.35 -39.25 5.2 -39.15 5.1 -39.05 4.95 -38.95 4.85 -38.8 4.75 -38.7 4.65 -38.55 4.55 -38.4 4.1 -37.75 3.15 -35.75 3.0 -35.45 2.9 -35.15 2.75 -34.9 2.6 -34.6 2.45 -34.3 2.3 -34.0 2.15 -33.75 1.95 -33.45 1.8 -33.2 1.65 -32.9 1.5 -32.65 1.3 -32.35 1.15 -32.1 0.95 -31.8 0.75 -31.55 0.6 -31.3 0.55 -31.25 0.5 -31.2 0.45 -31.15 0.45 -31.1 0.4 -31.05 0.35 -31.0 0.3 -30.95 0.25 -30.9 0.2 -30.85 0.15 -30.8 0.1 -30.75 0.05 -30.7 0.0 -30.7 -0.05 -30.65 -0.1 -30.6 -0.15 -30.55 -0.2 -30.55 -0.25 -30.5 -0.3 -30.5 -0.3 -30.5 -0.35 -30.55 -0.4 -30.6 -0.45 -30.65 -0.45 -30.7 -0.45 -30.75 -0.45 -30.8 -0.45 -30.85 -0.35 -31.05 0.55 -32.85 2.2 -36.75 2.25 -36.95 2.35 -37.1 2.4 -37.3 2.5 -37.45 2.6 -37.65 2.7 -37.8 2.75 -37.95 2.85 -38.15 2.95 -38.3 3.05 -38.5 3.1 -38.65 3.2 -38.8 3.3 -38.95 3.4 -39.15 3.5 -39.3 3.6 -39.45 3.7 -39.65 3.85 -39.8 3.95 -39.95 4.1 -40.1 4.2 -40.25 4.35 -40.4 4.5 -40.5 4.65 -40.6 4.8 -40.75 5.0 -40.8 5.15 -40.9 5.3 -41.0 5.5 -41.05 5.7 -41.1 5.9 -41.15 6.1 -41.2 7.95 -41.6 8.8 -41.7 8.85 -41.7 8.95 -41.7 9.0 -41.7 9.05 -41.7 9.1 -41.75 9.2 -41.75 9.25 -41.75 9.3 -41.8 9.35 -41.8 9.4 -41.85 9.45 -41.85 9.5 -41.9 9.55 -41.95 9.6 -42.0 9.65 -42.05 9.7 -42.1 9.85 -42.3 10.0 -42.55 10.2 -42.75 10.35 -42.95 10.5 -43.2 10.65 -43.4 10.8 -43.65 10.9 -43.9 11.05 -44.1 11.2 -44.35 11.3 -44.6 11.45 -44.8 11.55 -45.05 11.65 -45.3 11.75 -45.55 11.85 -45.8 11.9 -45.9 11.9 -45.95 11.95 -46.05 12.0 -46.15 12.05 -46.2 12.05 -46.3 12.1 -46.4 12.15 -46.45 12.15 -46.55 12.2 -46.65 12.2 -46.7 12.2 -46.8 12.25 -46.9 12.25 -47.0 12.25 -47.1 12.25 -47.15 12.2 -47.15 12.15 -47.15 12.1 -47.15 12.05 -47.1 12.05 -47.1 12.0 -47.05 11.95 -47.05 11.95 -47.0 11.85 -47.0 11.85 -46.95 10.0 -45.6 1.2 -40.05 1.1 -40.0 1.05 -39.95 0.95 -39.9 0.85 -39.85 0.75 -39.8 0.7 -39.75 0.6 -39.7 0.5 -39.65 0.4 -39.65 0.35 -39.6 0.25 -39.55 0.15 -39.55 0.05 -39.5 -0.05 -39.45 -0.15 -39.45 -0.25 -39.45 -0.05 -39.7 0.15 -40.0 0.35 -40.25 0.55 -40.45 0.8 -40.7 1.0 -40.95 1.25 -41.15 1.5 -41.4 1.75 -41.6 2.0 -41.8 2.2 -42.0 2.5 -42.25 2.7 -42.4 3.0 -42.65 3.6 -43.15 3.55 -43.05 3.25 -43.0 3.0 -42.9 2.7 -42.85 2.45 -42.75 2.15 -42.65 1.9 -42.55 1.65 -42.5 1.35 -42.4 1.1 -42.3 0.85 -42.2 0.6 -42.1 0.3 -42.0 0.05 -41.85 -0.2 -41.75 -0.45 -41.65 -0.7 -41.5 -0.9 -41.4 -1.05 -41.3 -1.2 -41.25 -1.35 -41.1 -1.5 -41.0 -1.6 -40.9 -1.75 -40.75 -1.85 -40.6 -1.95 -40.5 -2.05 -40.35 -2.1 -40.15 -2.2 -40.0 -2.25 -39.85 -2.3 -39.65 -2.35 -39.5 -2.4 -39.3 -2.6 -38.15 -2.65 -36.45 -2.65 -36.1 -2.65 -35.75 -2.65 -35.45 -2.65 -35.1 -2.6 -34.75 -2.6 -34.4 -2.55 -34.1 -2.5 -33.75 -2.5 -33.45 -2.45 -33.05 -2.4 -33.0 -2.35 -32.4 -2.3 -31.95 -2.25 -31.7 -2.2 -31.35 -2.15 -31.05 -2.0 -29.8 -1.55 -27.8 -0.95 -25.3 -0.85 -24.6 -0.75 -24.2 -0.65 -23.75 -0.55 -23.35 -0.45 -22.95 -0.35 -22.55 -0.2 -22.15 -0.05 -21.75 0.1 -21.35 0.25 -21.0 0.4 -20.6 0.55 -20.2 0.75 -19.8 0.9 -19.45 1.1 -19.05 1.25 -18.7 1.45 -18.25 1.65 -17.8 1.8 -17.5 2.0 -17.1 2.2 -16.75 2.35 -16.35 2.55 -16.0 2.7 -15.6 2.85 -15.2 3.05 -14.8 3.2 -14.45 3.35 -14.05 3.45 -13.65 3.6 -13.25 3.75 -12.85 3.85 -12.45 3.95 -12.05 3.95 -12.0 3.9 -11.9 3.9 -11.85 3.85 -11.8 3.85 -11.75 3.8 -11.65 3.75 -11.55 3.75 -11.55 3.7 -11.5 3.7 -11.4 3.65 -11.35 3.65 -11.3 3.6 -11.2 3.6 -11.15 3.6 -11.1 3.6 -11.0 3.55 -10.95 3.55 -10.95 3.55 -10.9 3.5 -10.85 3.5 -10.8 3.5 -10.75 3.5 -10.75 3.5 -10.7 3.5 -10.65 3.5 -10.6 L3.5 -10.6 M3.25 -47.1 Q3.45 -47.05 3.45 -47.1 3.85 -47.3 6.75 -49.0 6.8 -49.0 6.8 -49.05 6.85 -49.05 6.9 -49.1 6.9 -49.1 6.95 -49.15 6.95 -49.15 7.0 -49.2 7.0 -49.25 7.0 -49.25 7.05 -49.3 7.05 -49.35 7.1 -49.35 7.1 -49.4 7.15 -49.45 7.15 -49.5 7.3 -49.8 7.5 -50.1 7.65 -50.4 7.8 -50.75 7.9 -51.05 8.05 -51.4 8.2 -51.7 8.3 -52.05 8.4 -52.35 8.5 -52.7 8.65 -53.0 8.7 -53.35 8.8 -53.7 8.9 -54.05 9.0 -54.35 9.05 -54.7 9.1 -54.8 9.1 -54.9 9.1 -55.0 9.15 -55.15 9.15 -55.25 9.15 -55.35 9.15 -55.45 9.2 -55.55 9.2 -55.65 9.2 -55.75 9.2 -55.9 9.2 -56.0 9.15 -56.1 9.15 -56.2 9.15 -56.3 9.1 -56.45 7.15 -53.35 3.25 -47.1 L3.25 -47.1" fill="#060606" fill-rule="evenodd" stroke="none"/>
    <path d="M3.95 -12.05 Q4.2 -11.95 5.1 -11.2 5.35 -11.0 5.65 -10.8 5.9 -10.6 6.2 -10.45 6.5 -10.3 6.8 -10.15 7.05 -10.0 7.4 -9.9 7.65 -9.75 8.0 -9.65 8.3 -9.55 8.6 -9.45 8.9 -9.35 9.25 -9.3 9.55 -9.2 9.9 -9.15 10.1 -9.1 10.25 -9.05 10.45 -9.05 10.65 -9.0 10.8 -8.95 11.0 -8.95 11.2 -8.9 11.4 -8.9 11.55 -8.85 11.75 -8.85 11.95 -8.85 12.15 -8.85 12.35 -8.85 12.5 -8.85 12.7 -8.85 12.9 -8.85 12.95 -8.85 13.0 -8.85 13.0 -8.85 13.05 -8.85 13.1 -8.85 13.15 -8.85 13.2 -8.85 13.25 -8.85 13.25 -8.85 13.3 -8.85 13.35 -8.85 13.4 -8.85 13.45 -8.85 13.45 -8.8 13.5 -8.8 13.55 -8.8 13.3 -8.05 12.8 -6.65 12.7 -6.6 12.55 -6.6 12.45 -6.55 12.35 -6.5 12.25 -6.45 12.1 -6.4 12.05 -6.35 11.9 -6.25 12.05 -6.35 11.7 -6.15 11.55 -6.05 11.5 -6.05 11.35 -5.95 11.25 -5.9 11.15 -5.85 11.05 -5.8 10.8 -5.7 10.65 -5.65 10.4 -5.55 10.2 -5.5 10.0 -5.45 9.8 -5.4 9.55 -5.3 9.35 -5.25 9.15 -5.2 8.9 -5.15 8.7 -5.1 8.5 -5.1 8.25 -5.05 8.05 -5.05 7.8 -5.05 7.6 -5.05 7.3 -5.05 7.0 -5.1 6.7 -5.1 6.4 -5.2 6.1 -5.25 5.85 -5.35 5.6 -5.45 5.35 -5.6 5.1 -5.75 4.9 -5.95 4.7 -6.1 4.5 -6.3 4.3 -6.5 4.1 -6.75 3.95 -7.0 3.8 -7.3 3.65 -7.5 2.85 -9.25 2.9 -9.3 2.9 -9.45 2.95 -9.6 3.0 -9.6 3.0 -9.7 3.05 -9.8 3.1 -9.85 3.1 -9.95 3.15 -10.05 3.2 -10.1 3.25 -10.2 3.25 -10.3 3.3 -10.35 3.35 -10.45 3.4 -10.5 3.5 -10.6 3.55 -10.6 3.6 -10.55 3.65 -10.5 3.65 -10.5 3.7 -10.45 3.7 -10.4 3.75 -10.35 3.75 -10.3 3.75 -10.25 3.8 -10.2 3.8 -10.2 3.8 -10.1 3.8 -10.05 3.85 -10.05 3.85 -9.95 3.85 -9.95 3.9 -9.75 3.95 -9.6 4.05 -9.4 4.1 -9.25 4.15 -9.1 4.2 -8.95 4.3 -8.75 4.35 -8.6 4.4 -8.45 4.5 -8.3 4.6 -8.1 4.65 -7.95 4.75 -7.8 4.85 -7.65 4.95 -7.5 5.05 -7.35 5.15 -7.2 5.25 -7.1 5.35 -7.0 5.5 -6.85 5.6 -6.75 5.75 -6.65 5.85 -6.6 6.0 -6.5 6.15 -6.45 6.3 -6.4 6.45 -6.3 6.6 -6.25 6.75 -6.25 6.9 -6.2 7.1 -6.2 7.25 -6.15 7.45 -6.15 7.7 -6.15 7.9 -6.15 8.15 -6.2 8.35 -6.2 8.55 -6.25 8.8 -6.25 9.0 -6.3 9.2 -6.35 9.4 -6.4 9.6 -6.5 9.85 -6.55 10.05 -6.6 10.25 -6.7 10.45 -6.8 10.65 -6.85 10.75 -6.9 10.85 -6.95 11.05 -7.05 11.05 -7.05 11.15 -7.1 11.25 -7.1 11.35 -7.15 11.45 -7.2 11.55 -7.3 11.6 -7.35 11.7 -7.4 11.8 -7.45 11.9 -7.55 12.0 -7.6 12.1 -7.7 12.2 -7.75 12.0 -7.75 11.15 -7.85 10.6 -7.85 10.25 -7.95 9.95 -8.0 9.6 -8.1 9.3 -8.15 9.0 -8.25 8.7 -8.3 8.4 -8.4 8.05 -8.5 7.8 -8.6 7.5 -8.7 7.2 -8.8 6.9 -8.95 6.6 -9.05 6.3 -9.2 6.05 -9.35 5.75 -9.5 5.45 -9.65 5.35 -9.7 5.2 -9.8 5.1 -9.85 4.95 -9.95 4.85 -10.05 4.75 -10.15 4.65 -10.2 4.5 -10.3 4.5 -10.3 4.3 -10.5 4.15 -10.6 4.05 -10.65 3.95 -10.75 3.85 -10.85 3.7 -10.95 3.6 -11.0 3.6 -11.05 3.6 -11.15 3.6 -11.2 3.65 -11.3 3.65 -11.35 3.7 -11.4 3.7 -11.5 3.75 -11.55 3.75 -11.6 3.8 -11.65 3.85 -11.75 3.85 -11.8 3.9 -11.85 3.9 -11.95 3.95 -12.0 3.95 -12.05 L3.95 -12.05" fill="#000000" fill-opacity="0.34117648" fill-rule="evenodd" stroke="none"/>
    <path d="M1.95 19.35 Q1.95 19.8 1.95 19.95 1.95 20.0 1.9 20.05 1.9 20.1 1.85 20.15 1.8 20.2 1.8 20.25 1.75 20.25 1.7 20.3 1.65 20.35 1.6 20.35 1.55 20.4 1.5 20.4 1.45 20.4 1.4 20.4 1.35 20.4 1.3 20.4 1.25 20.4 1.2 20.4 1.15 20.35 1.1 20.35 1.05 20.35 1.0 20.3 0.95 20.3 0.9 20.25 0.9 20.2 0.85 20.2 0.85 20.15 0.8 20.1 0.8 20.05 0.8 20.0 0.75 19.95 0.75 19.9 0.75 19.65 0.7 18.8 0.7 18.75 0.7 18.7 0.7 18.6 0.7 18.55 0.65 18.5 0.65 18.45 0.65 18.4 0.65 18.35 0.6 18.3 0.6 18.2 0.6 18.15 0.6 18.1 0.55 18.05 0.55 18.0 0.5 17.95 0.5 17.9 0.45 17.75 0.35 17.6 0.3 17.5 0.2 17.35 0.15 17.25 0.05 17.15 -0.05 17.05 -0.15 16.95 -0.3 16.85 -0.4 16.8 -0.5 16.75 -0.65 16.7 -0.8 16.65 -0.95 16.6 -1.1 16.55 -1.25 16.55 -1.4 16.55 -1.5 16.55 -1.65 16.55 -1.8 16.55 -1.9 16.55 -2.05 16.55 -2.15 16.6 -2.3 16.6 -2.45 16.6 -2.55 16.65 -2.7 16.7 -2.8 16.75 -2.95 16.75 -3.05 16.8 -3.2 16.85 -3.3 16.9 -3.55 17.0 -4.8 17.6 -4.9 17.65 -4.95 17.65 -5.05 17.7 -5.1 17.7 -5.15 17.75 -5.25 17.75 -5.3 17.75 -5.35 17.75 -5.4 17.7 -5.45 17.7 -5.5 17.7 -5.55 17.65 -5.6 17.65 -5.65 17.6 -5.7 17.55 -5.7 17.5 -5.75 17.45 -5.75 17.4 -5.8 17.3 -5.8 17.25 -5.8 17.2 -5.8 17.15 -5.8 17.05 -5.8 17.0 -5.75 16.95 -5.75 16.9 -5.7 16.85 -5.65 16.75 -5.6 16.7 -5.55 16.65 -5.5 16.6 -5.4 16.6 -5.2 16.5 -5.0 16.35 -4.8 16.25 -4.6 16.15 -4.35 16.05 -4.15 15.95 -3.95 15.85 -3.75 15.8 -3.5 15.7 -3.3 15.65 -3.1 15.55 -2.85 15.5 -2.65 15.45 -2.4 15.4 -2.15 15.35 -1.95 15.35 -1.6 15.3 -1.25 15.35 -0.95 15.35 -0.6 15.45 -0.3 15.5 -0.05 15.65 0.25 15.75 0.5 15.95 0.75 16.15 0.95 16.35 1.15 16.55 1.3 16.85 1.5 17.1 1.6 17.4 1.7 17.7 1.8 18.05 1.8 18.05 1.95 19.35 L1.95 19.35" fill="#060606" fill-rule="evenodd" stroke="none"/>
    <path d="M2.0 12.15 Q2.0 11.75 2.05 11.3 2.1 10.9 2.2 10.5 2.25 10.15 2.4 9.75 2.55 9.4 2.7 9.0 2.9 8.65 3.1 8.35 3.35 8.0 3.6 7.65 3.85 7.35 4.1 7.05 4.4 6.75 4.7 6.4 4.75 6.35 4.8 6.3 4.9 6.25 4.95 6.25 5.0 6.2 5.05 6.2 5.15 6.2 5.2 6.2 5.25 6.2 5.3 6.2 5.35 6.25 5.4 6.25 5.45 6.3 5.5 6.3 5.55 6.35 5.6 6.4 5.65 6.45 5.7 6.5 5.7 6.55 5.75 6.6 5.75 6.65 5.75 6.7 5.75 6.75 5.75 6.8 5.75 6.85 5.75 6.9 5.75 7.0 5.7 7.05 5.7 7.1 5.65 7.15 5.6 7.2 5.55 7.25 4.75 8.15 4.4 8.55 4.2 8.85 4.0 9.15 3.8 9.5 3.7 9.8 3.55 10.1 3.45 10.45 3.35 10.75 3.3 11.1 3.2 11.45 3.2 11.8 3.15 12.1 3.2 12.45 3.2 12.8 3.25 13.15 3.3 13.5 3.4 13.9 3.45 14.05 3.5 14.35 3.6 14.65 3.6 14.8 3.6 14.85 3.6 14.95 3.65 15.0 3.6 15.05 3.6 15.15 3.6 15.2 3.6 15.25 3.55 15.3 3.55 15.35 3.5 15.4 3.45 15.4 3.4 15.45 3.35 15.5 3.3 15.5 3.25 15.5 3.2 15.55 3.15 15.55 3.1 15.55 3.0 15.55 2.95 15.55 2.9 15.55 2.85 15.55 2.8 15.5 2.75 15.5 2.7 15.45 2.65 15.45 2.65 15.4 2.6 15.35 2.55 15.3 2.55 15.25 2.5 15.15 2.5 15.1 2.45 14.9 2.4 14.75 2.35 14.55 2.3 14.4 2.25 14.2 2.2 14.05 2.15 13.85 2.1 13.7 2.1 13.5 2.05 13.3 2.05 13.1 2.0 12.95 2.0 12.75 2.0 12.55 2.0 12.35 2.0 12.15 L2.0 12.15" fill="#060606" fill-rule="evenodd" stroke="none"/>
    <path d="M2.0 7.15 Q2.0 7.6 1.95 8.0 1.9 8.45 1.8 8.85 1.7 9.25 1.55 9.65 1.45 10.0 1.25 10.35 1.1 10.75 0.85 11.05 0.65 11.4 0.4 11.75 0.15 12.05 -0.15 12.35 -0.4 12.65 -0.75 12.95 -0.85 13.05 -0.95 13.1 -1.0 13.2 -1.1 13.25 -1.2 13.35 -1.3 13.4 -1.4 13.45 -1.55 13.5 -1.65 13.6 -1.75 13.65 -1.85 13.7 -1.95 13.75 -2.1 13.75 -2.2 13.8 -2.3 13.85 -2.45 13.9 -2.5 13.9 -2.6 13.95 -2.65 13.95 -2.75 13.95 -2.8 13.95 -2.85 13.9 -2.9 13.9 -2.95 13.85 -3.05 13.85 -3.1 13.8 -3.1 13.8 -3.15 13.75 -3.2 13.7 -3.25 13.65 -3.25 13.6 -3.3 13.55 -3.3 13.5 -3.35 13.4 -3.35 13.35 -3.35 13.3 -3.35 13.25 -3.3 13.15 -3.3 13.1 -3.25 13.05 -3.25 13.0 -3.2 12.95 -3.15 12.9 -3.1 12.9 -3.0 12.85 -2.95 12.8 -2.85 12.75 -2.8 12.75 -2.7 12.7 -2.55 12.65 -2.45 12.65 -2.35 12.6 -2.25 12.55 -2.15 12.45 -2.0 12.4 -1.9 12.35 -1.8 12.3 -1.75 12.25 -1.65 12.15 -1.55 12.1 -1.45 12.0 -1.35 11.95 -1.3 11.85 -1.2 11.75 -0.95 11.5 -0.75 11.25 -0.55 11.0 -0.35 10.7 -0.15 10.45 0.0 10.15 0.15 9.9 0.3 9.6 0.4 9.3 0.5 9.0 0.6 8.65 0.7 8.35 0.75 8.05 0.8 7.7 0.8 7.35 0.8 7.0 0.8 6.3 0.8 6.25 0.8 6.2 0.8 6.15 0.85 6.1 0.85 6.05 0.85 6.0 0.9 6.0 0.9 5.95 0.95 5.9 1.0 5.9 1.0 5.85 1.05 5.85 1.1 5.8 1.15 5.8 1.2 5.75 1.25 5.75 1.3 5.75 1.35 5.75 1.4 5.75 1.5 5.75 1.55 5.75 1.6 5.75 1.65 5.8 1.7 5.8 1.75 5.85 1.75 5.85 1.8 5.9 1.85 5.95 1.85 6.0 1.9 6.05 1.9 6.1 1.95 6.15 1.95 6.2 1.95 6.3 2.0 7.15 L2.0 7.15" fill="#060606" fill-rule="evenodd" stroke="none"/>
    <path d="M11.2 -20.55 Q11.4 -20.4 11.55 -20.2 11.7 -20.0 11.9 -19.8 12.05 -19.6 12.15 -19.4 12.3 -19.2 12.45 -19.0 12.55 -18.8 12.7 -18.55 12.8 -18.35 12.9 -18.1 13.0 -17.9 13.1 -17.65 13.2 -17.45 13.3 -17.2 13.4 -16.95 13.5 -16.65 13.55 -16.4 13.6 -16.15 13.6 -15.85 13.65 -15.6 13.65 -15.35 13.65 -15.05 13.6 -14.8 13.55 -14.55 13.55 -14.3 13.45 -14.05 13.4 -13.8 13.35 -13.5 13.25 -13.25 13.15 -13.0 13.1 -12.85 13.0 -12.65 12.95 -12.5 12.85 -12.3 12.8 -12.15 12.7 -12.0 12.65 -11.85 12.55 -11.7 12.45 -11.5 12.35 -11.35 12.25 -11.2 12.15 -11.05 12.05 -10.9 11.95 -10.75 11.8 -10.65 11.7 -10.5 11.7 -10.45 11.65 -10.45 11.65 -10.4 11.6 -10.4 11.6 -10.35 11.55 -10.35 11.55 -10.3 11.5 -10.3 11.5 -10.3 11.5 -10.25 11.45 -10.25 11.45 -10.2 11.4 -10.2 11.4 -10.15 11.35 -10.15 11.35 -10.1 11.3 -10.05 11.25 -10.05 11.2 -10.0 11.15 -10.0 11.1 -9.95 11.05 -9.95 11.0 -9.95 10.95 -9.95 10.9 -9.95 10.85 -9.95 10.8 -9.95 10.75 -10.0 10.7 -10.0 10.65 -10.05 10.6 -10.05 10.55 -10.1 10.5 -10.15 10.45 -10.2 10.45 -10.25 10.4 -10.3 10.4 -10.35 10.4 -10.4 10.35 -10.45 10.35 -10.5 10.4 -10.55 10.4 -10.6 10.4 -10.65 10.45 -10.7 10.45 -10.75 10.5 -10.8 10.55 -10.85 10.6 -10.95 10.7 -11.05 10.8 -11.15 10.85 -11.25 10.95 -11.35 11.05 -11.45 11.1 -11.55 11.2 -11.65 11.25 -11.75 11.35 -11.85 11.4 -11.95 11.45 -12.1 11.55 -12.2 11.6 -12.3 11.65 -12.4 11.75 -12.55 11.8 -12.65 11.9 -12.85 12.0 -13.05 12.1 -13.3 12.15 -13.5 12.25 -13.7 12.3 -13.95 12.35 -14.15 12.35 -14.4 12.4 -14.6 12.4 -14.8 12.4 -15.05 12.4 -15.25 12.4 -15.5 12.35 -15.75 12.35 -15.95 12.3 -16.2 12.25 -16.45 12.2 -16.75 12.15 -17.0 12.05 -17.25 12.0 -17.55 11.9 -17.8 11.85 -18.05 11.75 -18.3 11.7 -18.55 11.6 -18.8 11.5 -19.1 11.4 -19.35 11.3 -19.6 11.2 -19.85 11.1 -20.1 11.0 -20.35 11.0 -20.4 11.0 -20.45 11.0 -20.45 11.05 -20.5 11.05 -20.55 11.1 -20.55 11.15 -20.55 11.2 -20.55 L11.2 -20.55" fill="#060606" fill-rule="evenodd" stroke="none"/>
    <path d="M13.65 -25.35 Q13.8 -25.3 13.9 -25.25 14.0 -25.15 14.15 -25.1 14.25 -25.05 14.35 -25.0 14.45 -24.9 14.55 -24.85 14.7 -24.75 14.75 -24.7 14.85 -24.6 14.95 -24.5 15.05 -24.4 15.15 -24.3 15.2 -24.2 15.3 -24.05 15.3 -24.0 15.35 -23.95 15.4 -23.9 15.4 -23.85 15.45 -23.8 15.45 -23.75 15.5 -23.7 15.5 -23.65 15.5 -23.6 15.55 -23.55 15.55 -23.5 15.55 -23.4 15.55 -23.35 15.55 -23.3 15.55 -23.25 15.55 -23.15 14.85 -23.85 13.5 -25.15 13.5 -25.2 13.5 -25.25 13.5 -25.3 13.55 -25.3 13.55 -25.35 13.6 -25.35 13.6 -25.35 13.65 -25.35 L13.65 -25.35" fill="#060606" fill-rule="evenodd" stroke="none"/>
  </g>
</svg>
