<?xml version="1.0" encoding="UTF-8" standalone="no"?>
<svg xmlns:xlink="http://www.w3.org/1999/xlink" height="200.0px" width="200.0px" xmlns="http://www.w3.org/2000/svg">
  <g transform="matrix(1.0, 0.0, 0.0, 1.0, 100.0, 100.0)">
    <path d="M44.2 45.15 Q44.3 45.15 44.4 45.1 44.5 45.1 44.6 45.1 44.7 45.05 44.85 45.05 44.95 45.0 45.05 45.0 45.15 44.95 45.25 44.95 45.35 44.9 45.45 44.85 45.55 44.85 45.65 44.8 45.75 44.75 45.85 44.7 45.9 44.7 45.95 44.65 46.0 44.65 46.05 44.6 46.1 44.6 46.15 44.55 46.2 44.55 46.25 44.5 46.3 44.5 46.35 44.45 46.4 44.45 46.45 44.4 46.5 44.35 46.55 44.35 46.6 44.3 46.65 44.25 47.15 43.85 48.0 42.9 48.2 42.7 48.65 42.15 49.1 41.7 49.3 41.4 49.35 41.35 49.4 41.25 49.45 41.2 49.5 41.1 49.55 41.05 49.6 40.95 49.65 40.9 49.7 40.8 49.75 40.75 49.8 40.65 49.85 40.55 49.9 40.5 49.95 40.4 50.0 40.35 50.05 40.25 50.1 40.15 50.35 39.7 51.45 37.3 51.7 36.65 52.1 35.8 52.6 34.8 52.75 34.45 53.25 33.25 53.8 30.8 53.8 30.8 53.75 30.75 53.75 30.75 53.75 30.7 53.75 30.65 53.7 30.6 53.7 30.55 53.7 30.45 53.7 30.25 53.7 30.1 53.65 29.9 53.65 29.75 53.65 29.55 53.6 29.4 53.6 29.2 53.55 29.05 53.55 28.85 53.5 28.7 53.5 28.5 53.45 28.35 53.45 28.15 53.4 27.95 53.35 27.8 53.35 27.6 52.65 24.15 52.65 24.15 52.55 23.7 52.45 23.3 52.4 22.85 52.3 22.4 52.2 22.0 52.1 21.55 51.95 21.15 51.85 20.7 51.75 20.25 51.65 19.85 51.5 19.4 51.4 19.0 51.25 18.55 51.15 18.15 51.0 17.7 50.85 17.3 50.2 15.35 49.2 12.4 47.65 7.9 47.5 7.45 45.85 2.65 43.9 -3.8 43.3 -5.65 42.65 -8.05 42.5 -8.55 42.35 -9.35 42.1 -10.45 42.1 -10.65 41.55 -12.75 41.4 -13.7 41.1 -15.1 41.0 -17.55 40.8 -19.95 40.8 -20.2 40.75 -20.35 40.75 -20.5 40.7 -20.7 40.65 -20.85 40.65 -21.0 40.6 -21.15 40.55 -21.3 40.45 -21.45 40.4 -21.6 40.35 -21.75 40.25 -21.9 40.2 -22.05 40.1 -22.2 40.0 -22.35 39.95 -22.45 39.85 -22.6 39.5 -23.05 39.0 -23.7 38.25 -24.75 38.15 -24.85 36.3 -27.3 35.3 -28.85 33.25 -32.15 31.95 -34.55 31.8 -34.8 31.7 -35.0 31.6 -35.25 31.45 -35.45 31.35 -35.7 31.25 -35.9 31.1 -36.15 31.0 -36.35 30.9 -36.6 30.8 -36.8 30.7 -37.05 30.6 -37.25 30.5 -37.5 30.4 -37.7 30.3 -37.95 30.2 -38.2 30.1 -38.45 30.0 -38.7 29.85 -38.95 29.7 -39.15 29.6 -39.35 29.4 -39.5 29.25 -39.7 29.05 -39.85 28.85 -40.0 28.65 -40.1 28.45 -40.25 28.2 -40.35 28.0 -40.45 27.75 -40.55 27.5 -40.6 27.25 -40.7 27.15 -40.7 27.1 -40.75 27.0 -40.75 26.9 -40.8 26.85 -40.8 26.75 -40.8 26.7 -40.85 26.6 -40.85 26.55 -40.9 26.45 -40.95 26.35 -40.95 26.3 -41.0 26.2 -41.0 26.15 -41.05 26.05 -41.1 26.0 -41.15 25.9 -41.2 25.75 -41.25 25.65 -41.35 25.55 -41.4 25.45 -41.45 25.35 -41.55 25.2 -41.6 25.1 -41.65 25.0 -41.75 24.9 -41.8 24.8 -41.9 24.7 -42.0 24.6 -42.05 24.5 -42.15 24.4 -42.2 24.3 -42.3 24.05 -42.55 23.75 -42.75 23.5 -42.95 23.2 -43.15 22.9 -43.35 22.6 -43.55 22.3 -43.7 22.0 -43.9 21.7 -44.05 21.4 -44.2 21.1 -44.35 20.75 -44.5 20.45 -44.65 20.1 -44.8 19.8 -44.95 19.45 -45.05 19.4 -45.1 19.3 -45.1 19.25 -45.15 19.15 -45.15 19.1 -45.15 19.0 -45.15 18.95 -45.15 18.85 -45.15 18.8 -45.15 18.75 -45.15 18.65 -45.15 18.6 -45.15 18.5 -45.1 18.45 -45.1 18.35 -45.05 18.3 -45.05 18.2 -45.0 18.05 -44.95 17.95 -44.9 17.85 -44.8 17.75 -44.75 17.65 -44.65 17.55 -44.6 17.45 -44.5 17.35 -44.45 17.25 -44.35 17.15 -44.3 17.05 -44.2 16.95 -44.15 16.85 -44.05 16.8 -43.95 16.7 -43.85 16.65 -43.8 16.55 -43.75 16.5 -43.7 16.4 -43.65 16.3 -43.6 16.25 -43.55 16.15 -43.55 16.1 -43.5 16.0 -43.5 15.9 -43.5 15.85 -43.5 15.75 -43.45 15.65 -43.45 15.6 -43.5 15.5 -43.5 15.4 -43.5 15.15 -43.55 13.95 -43.9 13.9 -43.9 13.9 -43.9 13.85 -43.95 13.8 -43.95 13.75 -43.95 13.75 -43.95 13.7 -43.95 13.65 -43.95 13.65 -43.95 13.6 -43.95 13.55 -43.95 13.55 -43.95 13.5 -43.9 13.45 -43.9 13.45 -43.9 13.4 -43.9 13.3 -43.85 13.2 -43.8 13.1 -43.75 13.0 -43.7 12.95 -43.65 12.85 -43.6 12.75 -43.5 12.7 -43.45 12.6 -43.4 12.5 -43.35 12.45 -43.25 12.35 -43.2 12.3 -43.1 12.2 -43.05 12.15 -42.95 12.05 -42.9 12.0 -42.85 11.95 -42.8 11.9 -42.75 11.8 -42.7 11.75 -42.65 11.7 -42.65 11.65 -42.6 11.55 -42.6 11.5 -42.55 11.4 -42.55 11.35 -42.55 11.25 -42.55 11.2 -42.55 11.1 -42.55 11.05 -42.55 10.95 -42.55 10.9 -42.55 10.85 -42.55 10.75 -42.55 10.7 -42.55 10.65 -42.6 10.6 -42.6 10.5 -42.6 10.45 -42.6 10.4 -42.65 10.35 -42.65 10.3 -42.65 10.2 -42.7 10.15 -42.7 10.1 -42.75 10.05 -42.75 10.0 -42.8 9.95 -42.8 9.9 -42.85 9.85 -42.85 9.8 -42.85 9.75 -42.85 9.7 -42.85 9.65 -42.85 9.6 -42.85 9.6 -42.85 9.55 -42.85 9.5 -42.85 9.45 -42.85 9.4 -42.8 9.35 -42.8 9.3 -42.8 9.25 -42.75 9.15 -42.7 9.0 -42.65 8.9 -42.55 8.8 -42.5 8.7 -42.45 8.6 -42.35 8.5 -42.25 8.45 -42.15 8.35 -42.1 8.25 -42.0 8.2 -41.9 8.1 -41.8 8.05 -41.65 8.0 -41.55 7.95 -41.45 7.85 -41.3 7.8 -41.15 7.65 -40.9 7.5 -40.6 7.45 -40.45 7.45 -40.4 7.4 -40.4 7.4 -40.35 7.35 -40.3 7.35 -40.3 7.3 -40.25 7.25 -40.25 7.25 -40.25 7.2 -40.25 7.15 -40.25 7.1 -40.25 7.1 -40.2 7.05 -40.2 7.0 -40.2 6.95 -40.2 6.9 -40.2 6.85 -40.2 6.8 -40.2 6.75 -40.2 6.7 -40.2 6.65 -40.2 6.6 -40.2 6.55 -40.25 6.5 -40.25 6.45 -40.25 6.4 -40.3 6.35 -40.3 6.3 -40.35 6.25 -40.4 6.2 -40.45 6.15 -40.5 6.1 -40.55 5.25 -41.9 5.15 -42.1 5.05 -42.2 5.0 -42.35 4.9 -42.45 4.85 -42.55 4.75 -42.7 4.65 -42.8 4.6 -42.9 4.5 -43.0 4.4 -43.15 4.3 -43.25 4.25 -43.35 4.15 -43.45 4.05 -43.55 3.95 -43.65 3.85 -43.75 3.75 -43.85 3.7 -43.9 3.65 -43.95 3.6 -43.95 3.55 -44.0 3.5 -44.05 3.45 -44.1 3.4 -44.1 3.35 -44.15 3.3 -44.2 3.25 -44.2 3.2 -44.25 3.15 -44.25 3.1 -44.3 3.05 -44.3 2.95 -44.35 2.9 -44.35 2.85 -44.35 2.8 -44.4 2.75 -44.4 2.65 -44.45 2.6 -44.45 2.55 -44.5 2.55 -44.5 2.5 -44.55 2.45 -44.6 2.4 -44.6 2.35 -44.65 2.3 -44.7 2.3 -44.75 2.25 -44.8 2.2 -44.85 2.15 -44.9 2.1 -45.0 2.0 -45.1 1.95 -45.2 1.85 -45.3 1.8 -45.4 1.7 -45.5 1.6 -45.6 1.55 -45.7 1.45 -45.8 1.35 -45.85 1.25 -45.95 1.15 -46.0 1.05 -46.1 0.95 -46.15 0.85 -46.25 0.7 -46.3 0.5 -46.4 0.55 -46.4 0.5 -46.4 0.45 -46.45 0.35 -46.5 0.3 -46.5 0.2 -46.55 0.15 -46.6 0.05 -46.6 0.0 -46.6 -0.1 -46.65 -0.15 -46.65 -0.25 -46.65 -0.35 -46.65 -0.4 -46.65 -0.5 -46.6 -0.6 -46.55 -0.7 -46.55 -0.8 -46.55 -0.85 -46.55 -0.95 -46.55 -1.05 -46.55 -1.15 -46.55 -1.25 -46.55 -1.35 -46.55 -1.4 -46.6 -1.5 -46.6 -1.6 -46.6 -1.7 -46.65 -1.8 -46.65 -1.85 -46.7 -1.95 -46.75 -2.75 -47.05 -4.35 -47.7 -5.2 -48.1 -5.4 -48.2 -5.5 -48.25 -5.65 -48.3 -5.75 -48.3 -5.85 -48.35 -5.95 -48.35 -6.05 -48.4 -6.2 -48.4 -6.3 -48.4 -6.4 -48.4 -6.5 -48.4 -6.65 -48.35 -6.75 -48.35 -6.85 -48.3 -6.95 -48.25 -7.05 -48.2 -7.15 -48.15 -7.25 -48.1 -7.55 -48.0 -7.65 -48.0 -7.75 -47.95 -7.85 -47.95 -7.9 -47.95 -8.0 -47.95 -8.1 -47.95 -8.2 -47.95 -8.3 -47.95 -8.4 -47.95 -8.5 -47.95 -8.55 -47.95 -8.65 -48.0 -8.75 -48.0 -8.85 -48.0 -9.1 -48.05 -9.05 -48.05 -10.5 -48.3 -11.05 -48.25 -11.25 -48.25 -11.45 -48.2 -11.65 -48.15 -11.8 -48.1 -12.0 -48.05 -12.15 -47.95 -12.35 -47.9 -12.5 -47.8 -12.65 -47.7 -12.8 -47.6 -12.95 -47.5 -13.1 -47.4 -13.25 -47.25 -13.4 -47.15 -13.5 -47.0 -13.65 -46.85 -14.7 -45.6 -16.6 -43.25 -16.7 -43.15 -16.8 -43.0 -16.9 -42.9 -17.0 -42.8 -17.1 -42.65 -17.2 -42.55 -17.3 -42.45 -17.4 -42.35 -17.5 -42.25 -17.6 -42.1 -17.75 -42.0 -17.85 -41.9 -17.95 -41.8 -18.1 -41.7 -18.2 -41.6 -18.3 -41.5 -18.45 -41.4 -18.55 -41.3 -18.65 -41.2 -18.8 -41.1 -18.9 -41.0 -19.0 -40.85 -19.1 -40.75 -19.2 -40.65 -19.3 -40.5 -19.4 -40.4 -19.5 -40.25 -19.6 -40.15 -19.7 -40.0 -19.75 -39.85 -19.85 -39.75 -19.95 -39.6 -20.45 -38.7 -21.1 -37.05 -21.2 -36.85 -21.25 -36.6 -21.35 -36.4 -21.4 -36.2 -21.5 -35.95 -21.6 -35.75 -21.7 -35.55 -21.8 -35.35 -21.9 -35.15 -21.95 -34.9 -22.05 -34.7 -22.2 -34.5 -22.3 -34.3 -22.4 -34.1 -22.5 -33.9 -22.6 -33.7 -22.9 -33.15 -23.2 -32.65 -23.5 -32.15 -23.85 -31.65 -24.15 -31.1 -24.45 -30.6 -24.8 -30.1 -25.1 -29.6 -25.45 -29.1 -25.8 -28.6 -26.15 -28.1 -26.5 -27.6 -26.85 -27.1 -27.2 -26.65 -27.55 -26.15 -27.9 -25.65 -28.1 -25.4 -28.25 -25.2 -28.45 -24.95 -28.65 -24.7 -28.85 -24.5 -29.05 -24.25 -29.25 -24.05 -29.45 -23.85 -29.65 -23.6 -29.85 -23.4 -30.05 -23.2 -30.3 -23.0 -30.5 -22.8 -30.75 -22.6 -30.95 -22.4 -31.2 -22.2 -32.6 -21.05 -32.65 -21.0 -32.85 -20.8 -33.05 -20.6 -33.2 -20.4 -33.4 -20.15 -33.55 -19.95 -33.7 -19.75 -33.9 -19.5 -34.05 -19.25 -34.15 -19.05 -34.3 -18.8 -34.45 -18.55 -34.55 -18.3 -34.65 -18.05 -34.8 -17.8 -34.9 -17.55 -35.0 -17.3 -35.55 -15.8 -36.35 -12.7 -37.85 -6.6 -38.7 -3.7 -39.3 -1.65 -40.7 3.2 -43.05 11.3 -43.7 13.65 -43.85 14.25 -44.05 14.85 -44.2 15.45 -44.35 16.05 -44.55 16.65 -44.7 17.25 -44.85 17.85 -45.0 18.45 -45.15 19.1 -45.3 19.7 -45.5 20.3 -45.65 20.9 -45.8 21.5 -45.9 22.1 -46.05 22.7 -46.2 23.35 -46.45 24.4 -46.7 25.85 -47.0 27.75 -47.05 28.7 -47.05 28.75 -47.05 28.85 -47.05 28.95 -47.1 29.0 -47.1 29.05 -47.1 29.2 -47.1 29.3 -47.1 29.35 -47.1 29.45 -47.1 29.5 -47.1 29.6 -47.1 29.65 -47.15 29.75 -47.15 29.8 -47.15 29.9 -47.15 30.0 -47.25 30.05 -47.15 30.05 -47.1 30.1 -47.1 30.1 -47.05 30.15 -47.05 30.15 -47.05 30.2 -47.0 30.25 -47.0 30.25 -47.0 30.3 -47.0 30.35 -47.0 30.4 -47.0 30.4 -47.0 30.45 -47.0 30.5 -47.0 30.55 -47.0 30.55 -47.0 30.6 -46.9 31.9 -46.75 32.6 -46.7 32.95 -46.6 33.3 -46.5 33.6 -46.4 33.95 -46.3 34.25 -46.15 34.6 -46.05 34.9 -45.9 35.2 -45.75 35.5 -45.55 35.8 -45.4 36.1 -45.2 36.4 -45.05 36.7 -44.8 36.95 -44.6 37.25 -44.4 37.5 -42.8 39.5 -42.2 40.4 -42.1 40.55 -42.0 40.7 -41.9 40.8 -41.8 40.95 -41.7 41.1 -41.6 41.2 -41.5 41.35 -41.4 41.45 -41.3 41.6 -41.2 41.7 -41.1 41.85 -40.95 41.95 -40.85 42.1 -40.75 42.2 -40.6 42.35 -40.5 42.45 -40.35 42.55 -40.25 42.7 -40.1 42.8 -40.0 42.9 -39.85 43.0 -39.7 43.1 -39.55 43.2 -39.4 43.25 -39.3 43.35 -39.15 43.45 -39.0 43.5 -38.8 43.6 -38.65 43.65 -38.5 43.7 -38.35 43.75 -38.2 43.8 -38.1 43.85 -38.0 43.85 -37.95 43.9 -37.85 43.9 -37.75 43.9 -37.65 43.9 -37.6 43.95 -37.5 43.95 -37.4 43.95 -37.3 43.95 -37.25 43.95 -37.15 43.95 -37.05 43.9 -37.0 43.9 -36.9 43.9 -36.8 43.85 -36.65 43.8 -36.55 43.8 -36.4 43.75 -36.3 43.7 -36.15 43.65 -36.0 43.65 -35.9 43.6 -35.75 43.55 -35.65 43.5 -35.5 43.4 -35.4 43.35 -35.3 43.3 -35.15 43.25 -35.05 43.2 -34.9 43.15 -34.8 43.05 -34.45 42.85 -34.15 42.65 -33.8 42.45 -33.5 42.25 -33.2 42.05 -32.9 41.8 -32.6 41.6 -32.3 41.35 -32.0 41.1 -31.7 40.85 -31.45 40.6 -31.15 40.35 -30.9 40.1 -30.6 39.8 -30.35 39.55 -30.1 39.25 -29.85 39.0 -29.65 38.7 -29.4 38.4 -29.2 38.15 -29.0 37.85 -28.85 37.55 -28.65 37.25 -28.5 36.95 -28.35 36.65 -28.2 36.3 -28.05 36.0 -27.95 35.65 -27.85 35.35 -27.75 35.0 -27.65 34.65 -27.6 34.3 -27.4 33.3 -27.3 31.45 -27.05 27.65 -27.0 23.2 -27.0 21.8 -26.95 17.6 -26.95 14.05 -26.9 11.95 -26.9 9.2 -26.8 7.05 -26.75 5.6 -26.55 2.95 -26.35 0.65 -26.05 -2.0 -25.65 -4.9 -25.45 -6.2 -25.4 -6.45 -25.4 -6.75 -25.35 -7.0 -25.3 -7.25 -25.3 -7.55 -25.25 -7.8 -25.2 -8.05 -25.15 -8.35 -25.1 -8.6 -25.05 -8.85 -25.05 -9.1 -25.0 -9.4 -24.95 -9.65 -24.9 -9.9 -24.85 -10.15 -24.8 -10.45 -24.75 -10.55 -24.75 -10.7 -24.7 -10.8 -24.7 -10.95 -24.65 -11.05 -24.6 -11.15 -24.55 -11.3 -24.5 -11.4 -24.45 -11.55 -24.4 -11.65 -24.35 -11.75 -24.3 -11.85 -24.25 -12.0 -24.2 -12.1 -24.1 -12.2 -24.05 -12.3 -24.0 -12.4 -23.95 -12.45 -23.9 -12.55 -23.85 -12.65 -23.8 -12.7 -23.75 -12.8 -23.7 -12.85 -23.65 -12.95 -23.6 -13.05 -23.55 -13.1 -23.5 -13.2 -23.45 -13.3 -23.4 -13.35 -23.35 -13.45 -23.3 -13.55 -23.25 -13.65 -23.2 -13.75 -23.15 -13.85 -23.1 -13.95 -23.0 -14.05 -22.95 -14.15 -22.85 -14.25 -22.8 -14.35 -22.7 -14.4 -22.65 -14.5 -22.55 -14.55 -22.45 -14.65 -22.35 -14.7 -22.25 -14.8 -22.15 -14.85 -22.05 -14.9 -21.9 -14.95 -21.7 -15.0 -21.5 -15.1 -21.3 -15.15 -21.1 -15.25 -20.9 -15.35 -20.75 -15.45 -20.55 -15.55 -20.35 -15.65 -20.15 -15.75 -20.0 -15.85 -19.8 -15.95 -19.6 -16.1 -19.45 -16.2 -19.25 -16.3 -19.1 -16.45 -18.9 -16.55 -16.6 -18.2 -15.6 -18.85 -15.55 -18.9 -15.5 -18.9 -15.45 -18.95 -15.4 -18.95 -15.35 -19.0 -15.3 -19.0 -15.3 -19.0 -15.25 -19.05 -15.2 -19.05 -15.15 -19.05 -15.1 -19.1 -15.05 -19.1 -15.0 -19.1 -14.95 -19.1 -14.9 -19.1 -14.8 -19.1 -14.1 -19.15 -13.85 -19.15 -11.75 -19.3 -10.6 -19.5 -10.35 -19.55 -10.1 -19.6 -9.85 -19.65 -9.6 -19.7 -9.35 -19.7 -9.1 -19.75 -8.85 -19.8 -8.6 -19.8 -8.35 -19.8 -8.1 -19.85 -7.85 -19.85 -7.6 -19.85 -7.35 -19.85 -7.1 -19.85 -6.85 -19.85 -6.6 -19.85 -6.35 -19.85 -6.1 -19.8 -5.85 -19.8 -5.6 -19.75 -5.35 -19.7 -5.1 -19.7 -4.85 -19.65 -4.65 -19.6 -4.4 -19.55 -4.15 -19.5 -3.9 -19.45 -3.7 -19.4 -3.45 -19.35 -3.2 -19.25 -2.95 -19.2 -2.75 -19.1 -1.75 -18.75 0.4 -17.8 1.2 -17.45 2.1 -17.1 2.2 -17.05 2.3 -17.05 2.4 -17.0 2.45 -17.0 2.55 -17.0 2.65 -17.0 2.75 -17.0 2.85 -17.0 2.95 -17.05 3.0 -17.05 3.1 -17.1 3.2 -17.15 3.3 -17.15 3.35 -17.2 3.45 -17.25 3.55 -17.3 3.6 -17.35 3.65 -17.4 3.75 -17.45 3.8 -17.5 3.85 -17.55 3.9 -17.6 3.95 -17.65 4.0 -17.7 4.05 -17.75 4.1 -17.8 4.15 -17.85 4.2 -17.9 4.2 -17.95 4.25 -18.0 4.3 -18.1 4.35 -18.15 4.4 -18.2 4.4 -18.25 4.45 -18.3 4.5 -18.35 4.5 -18.35 4.55 -18.4 4.6 -18.4 4.65 -18.45 4.7 -18.45 4.75 -18.45 4.8 -18.5 4.85 -18.5 4.9 -18.5 4.95 -18.5 5.0 -18.5 5.05 -18.5 5.1 -18.5 5.2 -18.45 5.3 -18.45 5.35 -18.45 5.4 -18.45 5.45 -18.45 5.5 -18.4 5.5 -18.4 5.55 -18.35 5.55 -18.35 5.55 -18.3 5.6 -18.25 5.65 -18.05 5.8 -17.9 5.9 -17.7 6.05 -17.55 6.2 -17.4 6.4 -17.3 6.6 -17.2 6.8 -17.1 6.95 -17.0 7.2 -16.95 7.4 -16.9 7.6 -16.85 7.8 -16.8 7.95 -16.8 8.15 -16.8 8.3 -16.85 9.8 -17.25 10.05 -17.35 10.35 -17.45 10.65 -17.55 11.0 -17.65 11.3 -17.7 11.6 -17.8 11.95 -17.85 12.25 -17.9 12.55 -17.95 12.9 -18.0 13.2 -18.05 13.5 -18.1 13.85 -18.1 14.15 -18.1 14.5 -18.1 14.8 -18.05 15.15 -18.05 15.3 -18.05 15.45 -18.0 15.6 -18.0 15.7 -17.95 15.85 -17.95 16.0 -17.9 16.15 -17.9 16.3 -17.85 16.45 -17.85 16.55 -17.8 16.7 -17.75 16.85 -17.7 17.0 -17.7 17.1 -17.65 17.25 -17.6 17.4 -17.55 17.7 -17.4 18.0 -17.3 18.3 -17.15 18.6 -17.05 18.9 -16.9 19.2 -16.75 19.5 -16.6 19.75 -16.45 20.05 -16.3 20.35 -16.15 20.6 -16.0 20.9 -15.85 21.2 -15.65 21.45 -15.5 21.75 -15.3 22.0 -15.15 22.2 -15.0 22.4 -14.9 22.6 -14.75 22.8 -14.65 23.0 -14.55 23.2 -14.45 23.4 -14.35 23.6 -14.25 23.85 -14.2 24.05 -14.1 24.3 -14.05 24.5 -14.0 24.75 -13.95 24.95 -13.9 25.2 -13.9 25.45 -13.9 26.05 -13.85 27.55 -13.5 27.6 -13.5 27.65 -13.5 27.7 -13.45 27.75 -13.45 27.8 -13.45 27.85 -13.4 27.9 -13.4 27.95 -13.35 28.0 -13.35 28.05 -13.3 28.1 -13.25 28.1 -13.25 28.15 -13.2 28.2 -13.15 28.25 -13.1 28.25 -13.05 28.4 -12.85 28.55 -12.7 28.7 -12.5 28.85 -12.3 28.95 -12.1 29.1 -11.9 29.2 -11.7 29.35 -11.5 29.45 -11.3 29.55 -11.1 29.65 -10.9 29.75 -10.7 29.85 -10.45 29.95 -10.25 30.05 -10.05 30.1 -9.8 30.65 -8.3 31.4 -5.6 31.55 -5.1 31.65 -4.55 31.8 -4.05 31.9 -3.55 32.0 -3.05 32.1 -2.5 32.2 -2.0 32.3 -1.45 32.4 -0.95 32.45 -0.4 32.55 0.1 32.6 0.65 32.65 1.15 32.75 1.7 32.8 2.2 32.85 2.75 33.0 4.1 33.15 6.35 33.35 9.55 33.4 10.9 33.45 12.65 33.5 15.1 33.6 15.85 33.55 16.1 33.55 16.15 33.55 16.2 33.55 16.25 33.55 16.3 33.55 16.3 33.55 16.4 33.5 16.45 33.5 16.5 33.5 16.55 33.5 16.6 33.5 16.65 33.5 16.65 33.5 16.7 33.5 16.75 33.5 16.8 33.5 16.85 33.5 16.95 33.55 17.1 33.55 17.2 33.55 17.3 33.55 17.4 33.55 17.55 33.55 17.65 33.55 17.75 33.55 17.8 33.5 18.0 33.5 18.1 33.5 18.2 33.5 18.35 33.5 18.4 33.5 18.55 33.5 18.65 33.5 19.15 33.45 20.05 33.45 20.1 33.45 20.15 33.45 20.15 33.45 20.2 33.4 20.25 33.4 20.3 33.4 20.35 33.4 20.35 33.4 20.4 33.4 20.45 33.4 20.5 33.4 21.7 33.4 22.15 33.3 23.65 33.3 24.0 33.25 24.6 33.2 25.85 33.2 26.25 33.25 26.7 33.25 27.2 33.3 27.65 33.3 28.15 33.35 28.6 33.35 29.05 33.4 29.55 33.4 30.0 33.45 30.45 33.45 30.95 33.45 31.4 33.5 31.85 33.5 32.35 33.55 32.8 33.55 33.25 33.6 33.7 33.6 34.05 33.65 34.35 33.65 34.7 33.7 35.0 33.75 35.3 33.85 35.6 33.9 35.95 33.95 36.25 34.05 36.55 34.15 36.85 34.25 37.15 34.4 37.45 34.5 37.7 34.65 38.0 34.8 38.3 34.95 38.6 35.1 38.85 35.25 39.05 35.4 39.25 35.55 39.5 35.7 39.7 35.85 39.9 36.05 40.1 36.2 40.3 36.4 40.5 36.6 40.7 36.75 40.9 36.95 41.1 37.15 41.3 37.35 41.45 37.5 41.65 37.7 41.85 37.9 42.05 38.1 42.2 38.3 42.4 38.55 42.55 38.75 42.75 38.95 42.9 39.2 43.05 39.4 43.2 39.65 43.4 39.85 43.55 40.1 43.7 40.3 43.8 40.55 43.95 40.8 44.1 41.0 44.25 41.25 44.35 41.4 44.45 41.5 44.5 41.65 44.55 41.75 44.6 41.9 44.7 42.05 44.75 42.15 44.8 42.3 44.85 42.4 44.9 42.55 44.95 42.7 45.0 42.8 45.05 42.95 45.1 43.1 45.15 43.25 45.2 43.4 45.2 43.45 45.2 43.5 45.2 43.55 45.2 43.6 45.2 43.65 45.2 43.7 45.2 43.75 45.2 43.8 45.2 43.85 45.2 43.9 45.2 43.95 45.2 44.0 45.2 44.05 45.2 44.1 45.2 44.15 45.2 44.2 45.15 L44.2 45.15 M17.9 -29.65 Q17.9 -29.65 17.75 -29.0 17.65 -28.6 17.6 -28.35 17.45 -27.55 17.35 -26.55 17.35 -26.45 17.25 -26.1 17.15 -25.8 17.15 -25.65 17.15 -25.6 17.15 -25.55 17.1 -25.5 17.1 -25.5 17.1 -25.45 17.05 -25.4 17.05 -25.4 17.0 -25.35 16.95 -25.35 16.95 -25.3 16.9 -25.3 16.85 -25.25 16.85 -25.25 16.8 -25.25 16.75 -25.25 16.7 -25.2 16.6 -25.2 16.55 -25.2 16.45 -25.15 16.35 -25.15 16.3 -25.15 16.2 -25.15 16.15 -25.1 16.05 -25.1 15.95 -25.1 15.9 -25.1 15.8 -25.05 15.7 -25.05 15.65 -25.05 15.55 -25.0 15.5 -25.0 15.4 -25.0 15.1 -24.95 14.75 -24.85 14.45 -24.8 14.15 -24.7 13.85 -24.65 13.55 -24.55 13.25 -24.45 12.9 -24.4 12.6 -24.3 12.3 -24.2 12.0 -24.1 11.7 -24.0 11.4 -23.9 11.1 -23.8 10.8 -23.7 10.5 -23.55 9.3 -23.15 8.7 -22.85 8.5 -22.75 8.35 -22.65 8.15 -22.55 8.0 -22.45 7.8 -22.35 7.65 -22.2 7.5 -22.05 7.35 -21.95 7.2 -21.8 7.05 -21.65 6.9 -21.5 6.75 -21.35 6.65 -21.2 6.5 -21.05 6.35 -20.85 6.25 -20.7 6.2 -20.6 6.15 -20.55 6.05 -20.45 6.0 -20.35 5.95 -20.25 5.9 -20.2 5.85 -20.1 5.8 -20.0 5.75 -19.9 5.7 -19.8 5.65 -19.75 5.6 -19.65 5.6 -19.55 5.55 -19.45 5.5 -19.35 5.45 -19.25 5.45 -19.2 5.4 -19.15 5.4 -19.15 5.4 -19.1 5.35 -19.1 5.35 -19.05 5.3 -19.05 5.3 -19.0 5.25 -19.0 5.2 -19.0 5.2 -19.0 5.15 -18.95 5.1 -18.95 5.05 -18.95 5.05 -18.95 5.0 -18.95 4.95 -18.95 4.95 -18.95 4.9 -18.95 4.85 -18.95 4.8 -19.0 4.8 -19.0 4.75 -19.0 4.75 -19.0 4.7 -19.05 4.65 -19.05 4.65 -19.1 4.6 -19.1 4.6 -19.15 4.6 -19.2 4.55 -19.2 4.55 -19.25 4.5 -19.4 4.4 -19.5 4.35 -19.65 4.3 -19.75 4.2 -19.85 4.15 -20.0 4.05 -20.1 4.0 -20.2 3.9 -20.35 3.8 -20.45 3.75 -20.55 3.65 -20.65 3.55 -20.75 3.45 -20.85 3.35 -21.0 3.25 -21.1 3.1 -21.3 2.9 -21.45 2.7 -21.65 2.55 -21.8 2.35 -21.95 2.15 -22.15 2.0 -22.3 1.8 -22.45 1.6 -22.6 1.4 -22.75 1.2 -22.9 1.0 -23.05 0.8 -23.2 0.55 -23.35 0.35 -23.45 0.15 -23.6 0.0 -23.7 -0.15 -23.75 -0.3 -23.85 -0.45 -23.9 -0.6 -24.0 -0.75 -24.05 -0.9 -24.15 -1.05 -24.2 -1.2 -24.25 -1.35 -24.35 -1.5 -24.4 -1.7 -24.45 -1.85 -24.5 -2.0 -24.55 -2.15 -24.65 -2.3 -24.7 -2.7 -24.8 -3.65 -25.15 -4.55 -25.45 -5.05 -25.6 -5.2 -25.65 -5.35 -25.7 -5.5 -25.75 -5.65 -25.8 -5.8 -25.9 -5.9 -25.95 -6.05 -26.05 -6.15 -26.15 -6.3 -26.2 -6.4 -26.3 -6.55 -26.4 -6.65 -26.55 -6.75 -26.65 -6.85 -26.75 -6.95 -26.9 -7.05 -27.05 -7.05 -27.1 -7.1 -27.1 -7.1 -27.15 -7.1 -27.15 -7.15 -27.15 -7.15 -27.2 -7.2 -27.25 -7.2 -27.25 -7.25 -27.3 -7.25 -27.3 -7.25 -27.35 -7.3 -27.35 -7.3 -27.4 -7.3 -27.45 -7.35 -27.45 -7.35 -27.5 -7.35 -27.55 -7.4 -27.65 -7.4 -27.7 -7.4 -27.8 -7.4 -27.85 -7.4 -27.9 -7.4 -28.0 -7.4 -28.05 -7.35 -28.1 -7.35 -28.15 -7.3 -28.25 -7.3 -28.3 -7.25 -28.35 -7.25 -28.4 -7.2 -28.5 -7.2 -28.55 -6.15 -30.45 -5.3 -32.05 -5.25 -32.2 -5.15 -32.3 -5.1 -32.45 -5.05 -32.6 -5.0 -32.7 -4.9 -32.85 -4.85 -33.0 -4.8 -33.15 -4.75 -33.25 -4.7 -33.4 -4.65 -33.55 -4.6 -33.7 -4.55 -33.85 -4.5 -33.95 -4.45 -34.1 -4.45 -34.25 -4.4 -34.35 -4.3 -34.65 -4.25 -34.9 -4.2 -35.0 -4.2 -35.05 -4.15 -35.15 -4.1 -35.2 -4.1 -35.25 -4.05 -35.35 -4.0 -35.4 -3.95 -35.45 -3.9 -35.5 -3.9 -35.55 -3.85 -35.6 -3.75 -35.65 -3.7 -35.65 -3.65 -35.7 -3.6 -35.75 -3.55 -35.75 -3.45 -35.8 -2.1 -36.35 -0.05 -37.35 0.3 -37.6 0.55 -37.7 0.65 -37.75 0.75 -37.75 0.8 -37.8 0.9 -37.8 1.0 -37.85 1.1 -37.85 1.15 -37.85 1.25 -37.8 1.35 -37.8 1.4 -37.8 1.5 -37.75 1.6 -37.7 1.7 -37.7 1.75 -37.65 1.85 -37.6 1.9 -37.5 2.15 -37.3 2.4 -37.1 2.65 -36.9 2.9 -36.7 3.15 -36.55 3.45 -36.35 3.7 -36.2 3.95 -36.05 4.25 -35.85 4.5 -35.7 4.8 -35.55 5.1 -35.45 5.35 -35.3 5.65 -35.2 5.95 -35.05 6.25 -34.95 6.35 -34.9 6.5 -34.85 6.65 -34.8 6.75 -34.8 6.85 -34.75 6.9 -34.75 7.0 -34.75 7.05 -34.75 7.15 -34.7 7.2 -34.75 7.3 -34.75 7.35 -34.75 7.45 -34.75 7.5 -34.75 7.6 -34.8 7.65 -34.8 7.75 -34.85 7.8 -34.9 7.85 -34.9 7.95 -34.95 8.0 -35.0 8.1 -35.05 8.2 -35.1 8.25 -35.15 8.35 -35.15 8.45 -35.2 8.5 -35.25 8.6 -35.25 8.7 -35.3 8.75 -35.3 8.85 -35.3 8.95 -35.35 9.0 -35.35 9.1 -35.35 9.2 -35.35 9.3 -35.4 9.35 -35.4 9.4 -35.4 9.45 -35.4 9.55 -35.4 9.6 -35.4 9.65 -35.35 9.7 -35.35 9.8 -35.35 9.8 -35.35 9.9 -35.3 10.0 -35.3 10.05 -35.3 10.1 -35.3 10.15 -35.3 10.2 -35.25 10.25 -35.25 10.35 -35.25 10.45 -35.2 10.55 -35.2 10.6 -35.2 10.7 -35.15 10.8 -35.15 10.85 -35.1 10.95 -35.05 11.05 -35.05 11.1 -35.0 11.2 -34.95 11.25 -34.9 11.35 -34.85 11.4 -34.8 11.5 -34.75 11.55 -34.7 11.65 -34.65 11.7 -34.55 11.8 -34.5 11.9 -34.45 11.95 -34.4 12.05 -34.35 12.15 -34.3 12.25 -34.3 12.35 -34.25 12.45 -34.2 12.5 -34.2 12.6 -34.15 12.7 -34.15 12.8 -34.15 12.9 -34.1 13.0 -34.1 13.15 -34.1 13.3 -34.05 13.4 -34.05 13.55 -34.05 13.7 -34.05 13.85 -34.1 13.95 -34.1 14.1 -34.15 14.2 -34.15 14.35 -34.2 14.45 -34.25 14.6 -34.3 14.7 -34.3 14.85 -34.35 14.95 -34.4 15.1 -34.45 15.65 -34.7 15.85 -34.7 15.9 -34.7 16.0 -34.7 16.05 -34.7 16.1 -34.7 16.15 -34.7 16.2 -34.7 16.3 -34.7 16.35 -34.7 16.4 -34.65 16.45 -34.65 16.5 -34.6 16.55 -34.55 16.6 -34.5 16.65 -34.45 16.7 -34.4 16.7 -34.35 16.75 -34.25 16.85 -34.1 16.9 -34.0 17.0 -33.9 17.05 -33.8 17.1 -33.65 17.15 -33.55 17.2 -33.4 17.25 -33.3 17.3 -33.2 17.35 -33.05 17.4 -32.95 17.45 -32.85 17.5 -32.7 17.55 -32.6 17.6 -32.45 17.9 -31.55 17.95 -31.15 17.95 -31.05 18.0 -30.95 18.0 -30.85 18.0 -30.75 18.0 -30.7 18.0 -30.6 18.0 -30.5 18.0 -30.4 18.0 -30.3 18.0 -30.2 17.95 -30.1 17.95 -30.05 17.95 -29.95 17.95 -29.85 17.9 -29.75 17.9 -29.65 L17.9 -29.65" fill="#f80000" fill-rule="evenodd" stroke="none"/>
  </g>
</svg>
