<?xml version="1.0" encoding="UTF-8" standalone="no"?>
<svg xmlns:xlink="http://www.w3.org/1999/xlink" height="200.0px" width="200.0px" xmlns="http://www.w3.org/2000/svg">
  <g transform="matrix(1.0, 0.0, 0.0, 1.0, 100.0, 100.0)">
    <path d="M5.0 -32.35 Q5.1 -32.55 5.2 -32.7 5.3 -32.9 5.45 -33.05 5.6 -33.2 5.75 -33.3 5.9 -33.45 6.1 -33.5 6.3 -33.6 6.5 -33.65 6.7 -33.75 6.9 -33.75 7.1 -33.75 7.35 -33.75 7.6 -33.75 7.8 -33.7 8.65 -33.45 8.7 -33.45 8.75 -33.45 8.8 -33.5 8.85 -33.55 8.9 -33.55 8.95 -33.6 9.0 -33.65 9.05 -33.7 9.1 -33.75 9.15 -33.8 9.2 -33.85 9.25 -33.9 9.3 -33.95 9.35 -34.0 9.35 -34.05 9.4 -34.1 9.45 -34.1 9.6 -34.2 9.75 -34.3 9.9 -34.45 10.0 -34.5 10.2 -34.6 10.3 -34.7 10.5 -34.75 10.65 -34.8 10.8 -34.85 10.95 -34.85 11.1 -34.9 11.3 -34.9 11.45 -34.85 11.65 -34.85 11.8 -34.8 12.0 -34.75 12.15 -34.7 12.4 -34.6 12.7 -34.5 12.85 -34.45 12.9 -34.45 12.95 -34.4 13.0 -34.4 13.05 -34.4 13.1 -34.4 13.15 -34.4 13.2 -34.4 13.25 -34.4 13.3 -34.4 13.35 -34.4 13.35 -34.45 13.4 -34.45 13.45 -34.5 13.5 -34.55 13.55 -34.55 13.6 -34.6 13.65 -34.65 13.7 -34.7 13.75 -34.75 13.8 -34.8 13.85 -34.85 13.9 -34.9 14.0 -35.0 14.05 -35.05 14.1 -35.1 14.15 -35.15 14.2 -35.2 14.25 -35.25 14.35 -35.3 14.4 -35.3 14.45 -35.35 14.5 -35.4 14.65 -35.5 14.85 -35.65 15.0 -35.75 15.2 -35.8 15.35 -35.9 15.55 -35.95 15.7 -36.0 15.9 -36.05 16.05 -36.1 16.25 -36.1 16.45 -36.1 16.65 -36.1 16.8 -36.1 17.0 -36.05 17.2 -36.0 17.4 -35.9 17.6 -35.85 17.8 -35.75 17.95 -35.7 18.15 -35.6 18.35 -35.55 18.55 -35.45 18.7 -35.4 18.9 -35.3 19.1 -35.2 19.25 -35.1 19.45 -35.05 19.65 -34.95 19.8 -34.85 20.0 -34.75 20.15 -34.65 20.35 -34.55 20.8 -34.3 22.55 -33.0 22.75 -32.85 22.85 -32.75 23.05 -32.6 23.2 -32.5 23.35 -32.4 23.55 -32.25 23.7 -32.15 23.9 -32.05 24.05 -31.95 24.25 -31.85 24.45 -31.8 24.6 -31.7 24.8 -31.65 25.0 -31.6 25.2 -31.5 25.4 -31.5 25.55 -31.45 26.05 -31.25 26.25 -31.2 26.4 -31.1 26.55 -31.0 26.7 -30.95 26.85 -30.85 27.0 -30.75 27.15 -30.65 27.3 -30.5 27.4 -30.4 27.55 -30.25 27.65 -30.15 27.75 -30.0 27.85 -29.85 27.95 -29.7 28.05 -29.5 28.1 -29.35 28.15 -29.2 28.2 -29.1 28.25 -28.95 28.3 -28.85 28.35 -28.7 28.4 -28.6 28.45 -28.45 28.5 -28.35 28.55 -28.2 28.6 -28.1 28.65 -28.0 28.7 -27.85 28.75 -27.75 28.85 -27.6 28.9 -27.5 28.95 -27.4 29.95 -25.25 32.65 -20.8 33.9 -18.75 36.4 -15.4 36.5 -15.25 37.0 -14.55 37.4 -14.05 37.65 -13.7 37.85 -13.45 38.05 -13.2 38.2 -12.95 38.3 -12.65 38.45 -12.4 38.55 -12.1 38.6 -11.8 38.7 -11.5 38.75 -11.25 38.8 -10.9 38.85 -10.65 38.85 -10.35 38.9 -10.05 38.9 -9.7 38.9 -9.5 38.95 -9.1 39.05 -6.75 39.25 -5.25 39.4 -4.4 39.65 -3.2 40.1 -1.3 40.15 -1.2 40.6 1.05 40.65 1.3 41.95 5.7 43.9 11.7 44.85 14.75 47.2 21.6 48.85 26.25 49.5 28.5 49.8 29.6 51.2 36.0 51.3 36.4 51.35 36.75 51.4 37.1 51.45 37.5 51.55 37.85 51.6 38.25 51.6 38.65 51.65 39.0 51.7 39.4 51.7 39.75 51.75 40.15 51.75 40.5 51.75 40.9 51.75 41.3 51.75 41.65 51.75 42.05 51.7 42.55 51.65 43.0 51.6 43.5 51.5 43.95 51.4 44.4 51.3 44.85 51.15 45.3 51.0 45.75 50.8 46.2 50.6 46.6 50.4 47.05 50.15 47.45 49.95 47.85 49.65 48.25 49.35 48.65 49.05 49.0 47.4 51.0 47.25 51.3 47.15 51.5 47.0 51.65 46.9 51.8 46.8 52.0 46.65 52.15 46.55 52.3 46.4 52.45 46.3 52.65 46.15 52.8 46.0 52.95 45.9 53.1 45.75 53.25 45.6 53.4 45.45 53.55 45.3 53.7 45.15 53.85 44.85 54.1 44.55 54.35 44.25 54.6 43.9 54.75 43.6 54.95 43.25 55.1 42.9 55.25 42.5 55.3 42.15 55.4 41.75 55.4 41.35 55.45 40.95 55.4 40.55 55.35 40.15 55.25 39.7 55.15 39.3 54.95 38.85 54.75 38.4 54.5 37.95 54.25 37.5 54.0 37.1 53.75 36.65 53.45 36.25 53.2 35.85 52.9 35.5 52.6 35.1 52.25 34.75 51.9 34.35 51.55 34.0 51.2 33.7 50.85 33.35 50.5 33.0 50.1 32.7 49.75 32.45 49.4 32.2 49.05 32.0 48.65 31.8 48.3 31.6 47.9 31.45 47.55 31.3 47.15 31.15 46.75 31.05 46.3 30.95 45.9 30.85 45.5 30.75 45.05 30.7 44.65 30.65 44.2 30.65 43.75 30.6 42.6 30.5 40.7 30.4 38.4 30.35 37.65 30.2 35.2 30.25 34.65 30.4 32.25 30.5 28.65 30.6 25.85 30.55 24.4 30.55 23.8 30.5 23.2 30.5 22.6 30.5 22.0 30.45 21.4 30.45 20.8 30.4 20.2 30.4 19.6 30.35 19.0 30.35 18.4 30.3 17.8 30.25 17.2 30.2 16.6 30.2 16.0 30.15 15.4 30.1 14.8 30.05 14.3 30.0 13.85 30.0 13.35 29.95 12.9 29.9 12.45 29.85 11.95 29.8 11.5 29.75 11.0 29.65 10.55 29.6 10.1 29.55 9.6 29.45 9.15 29.4 8.65 29.3 8.2 29.2 7.75 29.1 7.25 29.0 6.85 28.95 6.45 28.85 6.05 28.75 5.65 28.65 5.25 28.55 4.85 28.45 4.45 28.35 4.0 28.25 3.65 28.15 3.2 28.0 2.85 27.9 2.4 27.8 2.05 27.65 1.65 27.5 1.25 27.4 0.85 27.3 0.6 27.2 0.3 27.1 0.05 27.0 -0.2 26.9 -0.45 26.8 -0.7 26.65 -0.95 26.55 -1.2 26.4 -1.45 26.25 -1.65 26.1 -1.9 25.95 -2.15 25.8 -2.35 25.65 -2.6 25.45 -2.8 25.3 -3.0 25.25 -3.05 25.2 -3.1 25.2 -3.15 25.15 -3.15 25.1 -3.2 25.05 -3.25 25.0 -3.25 25.0 -3.3 24.95 -3.3 24.9 -3.35 24.85 -3.35 24.8 -3.4 24.75 -3.4 24.7 -3.4 24.65 -3.45 24.6 -3.45 23.15 -3.75 22.45 -3.8 22.3 -3.8 22.15 -3.85 21.95 -3.85 21.8 -3.85 21.65 -3.9 21.5 -3.9 21.35 -3.95 21.2 -4.0 21.05 -4.05 20.9 -4.1 20.75 -4.15 20.6 -4.2 20.45 -4.25 20.3 -4.3 20.2 -4.4 20.05 -4.45 19.15 -4.95 18.9 -5.15 18.65 -5.3 18.4 -5.5 18.15 -5.65 17.85 -5.8 17.6 -5.95 17.35 -6.1 17.05 -6.25 16.8 -6.4 16.55 -6.5 16.25 -6.65 16.0 -6.75 15.7 -6.9 15.45 -7.0 15.15 -7.15 14.85 -7.25 14.6 -7.4 14.35 -7.5 14.1 -7.6 13.8 -7.7 13.55 -7.75 13.3 -7.8 13.05 -7.85 12.75 -7.9 12.5 -7.95 12.25 -7.95 12.0 -7.95 11.7 -8.0 11.45 -7.95 11.2 -7.95 10.9 -7.95 10.65 -7.9 10.35 -7.85 9.45 -7.75 7.45 -7.1 7.25 -7.05 7.1 -7.0 6.9 -6.95 6.7 -6.9 6.5 -6.85 6.35 -6.8 6.15 -6.75 5.95 -6.75 5.75 -6.7 5.6 -6.7 5.4 -6.7 5.2 -6.7 5.0 -6.7 4.8 -6.75 4.6 -6.75 4.4 -6.8 4.25 -6.85 4.1 -6.9 3.95 -6.95 3.8 -7.0 3.65 -7.05 3.55 -7.15 3.4 -7.2 3.3 -7.3 3.2 -7.4 3.1 -7.5 3.0 -7.6 2.9 -7.7 2.8 -7.85 2.75 -8.0 2.65 -8.1 2.6 -8.3 2.55 -8.4 2.5 -8.35 2.45 -8.35 2.45 -8.3 2.4 -8.25 2.4 -8.25 2.3 -8.05 2.15 -7.9 2.05 -7.7 1.9 -7.6 1.75 -7.45 1.6 -7.3 1.45 -7.2 1.25 -7.1 1.1 -7.05 0.9 -6.95 0.7 -6.9 0.5 -6.9 0.3 -6.85 0.1 -6.85 -0.1 -6.85 -0.3 -6.9 -0.35 -6.9 -0.45 -6.9 -0.5 -6.95 -0.55 -6.95 -0.65 -6.95 -0.7 -7.0 -0.75 -7.0 -0.8 -7.0 -0.9 -7.05 -0.95 -7.05 -1.0 -7.1 -1.05 -7.1 -1.15 -7.1 -1.2 -7.15 -1.25 -7.15 -1.3 -7.2 -1.7 -7.35 -3.45 -8.1 -4.75 -8.65 -5.6 -9.0 -5.9 -9.1 -6.15 -9.2 -6.45 -9.25 -6.7 -9.35 -7.0 -9.4 -7.3 -9.5 -7.55 -9.55 -7.85 -9.6 -8.15 -9.65 -8.4 -9.65 -8.7 -9.7 -9.0 -9.7 -9.3 -9.75 -9.6 -9.75 -9.85 -9.75 -10.15 -9.75 -10.3 -9.75 -10.5 -9.75 -10.65 -9.7 -10.85 -9.7 -11.0 -9.7 -11.15 -9.7 -11.35 -9.65 -11.5 -9.65 -11.65 -9.6 -11.85 -9.6 -12.0 -9.55 -12.15 -9.55 -12.35 -9.5 -12.5 -9.5 -12.65 -9.45 -12.85 -9.4 -14.0 -9.15 -16.85 -9.05 -16.9 -9.05 -16.95 -9.05 -16.95 -9.05 -17.0 -9.05 -17.05 -9.05 -17.1 -9.05 -17.15 -9.05 -17.15 -9.05 -17.2 -9.0 -17.25 -9.0 -17.3 -9.0 -17.3 -9.0 -17.35 -8.95 -17.4 -8.95 -17.45 -8.95 -17.45 -8.9 -17.65 -8.8 -18.55 -8.2 -19.2 -7.75 -19.6 -7.45 -18.4 -8.3 -20.1 -7.1 -20.4 -6.85 -20.65 -6.7 -20.9 -6.5 -21.15 -6.35 -21.45 -6.15 -21.7 -6.0 -21.95 -5.85 -22.25 -5.7 -22.5 -5.5 -22.8 -5.35 -23.1 -5.25 -23.35 -5.1 -23.65 -4.95 -23.95 -4.85 -24.05 -4.8 -24.15 -4.75 -24.25 -4.7 -24.35 -4.65 -24.45 -4.6 -24.55 -4.55 -24.65 -4.45 -24.7 -4.4 -24.8 -4.3 -24.85 -4.2 -24.95 -4.15 -25.0 -4.05 -25.05 -3.95 -25.15 -3.85 -25.2 -3.75 -25.25 -3.65 -25.35 -3.5 -25.6 -3.05 -25.75 -2.7 -25.9 -2.5 -26.0 -2.35 -26.1 -2.2 -26.2 -2.05 -26.3 -1.9 -26.35 -1.75 -26.45 -1.6 -26.5 -1.45 -26.55 -1.25 -26.6 -1.1 -26.65 -0.95 -26.7 -0.75 -26.75 -0.6 -26.8 -0.45 -26.85 -0.25 -26.85 -0.1 -26.9 0.1 -27.3 2.2 -27.85 6.35 -27.9 6.85 -28.0 7.35 -28.05 7.85 -28.1 8.35 -28.15 8.85 -28.2 9.35 -28.25 9.85 -28.3 10.35 -28.35 10.8 -28.4 11.3 -28.45 11.8 -28.5 12.3 -28.55 12.8 -28.6 13.3 -28.65 13.8 -28.65 14.3 -28.9 17.35 -28.95 22.1 -29.0 37.0 -29.35 42.45 -29.4 42.85 -29.4 43.25 -29.45 43.65 -29.55 44.0 -29.6 44.4 -29.7 44.75 -29.8 45.15 -29.9 45.5 -30.0 45.85 -30.15 46.2 -30.3 46.6 -30.5 46.9 -30.65 47.25 -30.85 47.6 -31.05 47.95 -31.3 48.25 -31.45 48.45 -31.55 48.6 -31.7 48.8 -31.85 48.95 -31.95 49.15 -32.1 49.3 -32.25 49.45 -32.4 49.65 -32.55 49.8 -32.7 49.95 -32.85 50.1 -33.0 50.25 -33.2 50.4 -33.35 50.55 -33.5 50.7 -33.65 50.85 -33.9 51.05 -34.1 51.25 -34.35 51.4 -34.55 51.6 -34.8 51.8 -35.0 51.95 -35.25 52.1 -35.5 52.3 -35.75 52.45 -36.0 52.6 -36.2 52.75 -36.45 52.9 -36.7 53.05 -37.0 53.2 -37.25 53.35 -37.5 53.45 -37.9 53.65 -38.3 53.8 -38.65 53.9 -39.05 54.0 -39.4 54.05 -39.8 54.1 -40.15 54.1 -40.55 54.05 -40.9 54.0 -41.25 53.9 -41.6 53.8 -41.95 53.6 -42.3 53.45 -42.65 53.2 -42.95 53.0 -43.3 52.7 -43.45 52.6 -43.55 52.45 -43.65 52.35 -43.8 52.25 -43.9 52.1 -44.0 52.0 -44.15 51.85 -44.25 51.75 -44.35 51.6 -44.45 51.5 -44.55 51.35 -44.65 51.2 -44.75 51.1 -44.85 50.95 -44.95 50.8 -45.05 50.65 -45.15 50.5 -45.25 50.35 -45.35 50.2 -45.5 50.0 -45.6 49.85 -45.7 49.7 -45.8 49.55 -45.9 49.4 -46.05 49.25 -46.15 49.1 -46.25 48.95 -46.4 48.8 -46.5 48.65 -46.65 48.5 -46.75 48.35 -46.9 48.2 -47.05 48.0 -47.2 47.8 -47.35 47.65 -47.5 47.45 -47.65 47.25 -47.8 47.05 -47.95 46.85 -48.1 46.65 -48.2 46.4 -48.35 46.2 -48.45 46.0 -48.6 45.8 -48.7 45.55 -48.8 45.35 -48.9 45.1 -49.0 44.9 -49.2 44.45 -49.35 44.0 -49.5 43.55 -49.6 43.1 -49.7 42.65 -49.8 42.15 -49.85 41.7 -49.9 41.25 -49.95 40.8 -49.95 40.3 -50.0 39.85 -49.95 39.4 -49.95 38.9 -49.9 38.45 -49.9 38.0 -49.85 37.5 -49.55 34.9 -48.5 30.5 -47.05 24.5 -43.1 11.25 -40.85 3.5 -40.0 0.05 -38.55 -5.6 -38.15 -6.95 -38.0 -7.35 -37.9 -7.75 -37.75 -8.15 -37.55 -8.55 -37.4 -8.95 -37.2 -9.3 -37.05 -9.65 -36.85 -10.0 -36.6 -10.35 -36.35 -10.7 -36.1 -11.0 -35.85 -11.3 -35.55 -11.6 -35.25 -11.9 -34.95 -12.2 -34.6 -12.45 -34.35 -12.65 -34.1 -12.85 -33.85 -13.05 -33.6 -13.25 -33.35 -13.5 -33.1 -13.7 -32.85 -13.95 -32.65 -14.15 -32.4 -14.4 -32.2 -14.65 -31.95 -14.85 -31.75 -15.1 -31.55 -15.35 -31.35 -15.6 -31.1 -15.85 -30.9 -16.1 -30.55 -16.55 -30.2 -17.05 -29.85 -17.5 -29.5 -18.0 -29.15 -18.5 -28.8 -18.95 -28.5 -19.45 -28.15 -19.95 -27.85 -20.45 -27.5 -20.95 -27.2 -21.45 -26.9 -21.95 -26.6 -22.45 -26.25 -22.95 -25.95 -23.45 -25.65 -23.95 -25.55 -24.15 -25.45 -24.35 -25.3 -24.55 -25.2 -24.75 -25.1 -24.95 -25.0 -25.15 -24.9 -25.35 -24.8 -25.55 -24.7 -25.75 -24.6 -25.95 -24.55 -26.15 -24.45 -26.35 -24.35 -26.55 -24.25 -26.75 -24.2 -27.0 -24.1 -27.2 -23.65 -28.4 -23.3 -29.15 -23.2 -29.4 -23.1 -29.65 -22.95 -29.85 -22.85 -30.1 -22.75 -30.35 -22.6 -30.55 -22.45 -30.75 -22.3 -30.95 -22.15 -31.2 -22.0 -31.4 -21.85 -31.6 -21.65 -31.75 -21.5 -31.95 -21.3 -32.1 -21.1 -32.3 -20.9 -32.45 -20.8 -32.5 -20.7 -32.6 -20.6 -32.7 -20.5 -32.75 -20.4 -32.85 -20.3 -32.95 -20.25 -33.05 -20.15 -33.15 -20.05 -33.2 -19.95 -33.3 -19.9 -33.4 -19.8 -33.5 -19.75 -33.6 -19.65 -33.7 -19.75 -33.6 -19.5 -33.9 -19.1 -34.4 -18.0 -35.7 -17.05 -36.85 -16.5 -37.5 -16.35 -37.65 -16.25 -37.8 -16.1 -37.95 -15.95 -38.05 -15.8 -38.2 -15.65 -38.3 -15.5 -38.4 -15.35 -38.5 -15.15 -38.6 -15.0 -38.65 -14.8 -38.75 -14.65 -38.8 -14.45 -38.85 -14.25 -38.9 -14.05 -38.95 -13.85 -38.95 -13.7 -38.95 -13.5 -39.0 -13.35 -39.0 -13.15 -39.0 -13.0 -39.0 -12.8 -38.95 -12.65 -38.95 -12.45 -38.95 -12.3 -38.9 -12.1 -38.9 -11.95 -38.9 -11.75 -38.85 -11.6 -38.8 -11.45 -38.8 -11.3 -38.75 -11.1 -38.75 -11.0 -38.75 -10.95 -38.7 -10.85 -38.7 -10.8 -38.7 -10.75 -38.7 -10.65 -38.7 -10.6 -38.7 -10.5 -38.7 -10.45 -38.7 -10.4 -38.7 -10.3 -38.7 -10.25 -38.75 -10.15 -38.75 -10.1 -38.8 -10.05 -38.8 -9.95 -38.85 -9.8 -38.95 -9.6 -39.0 -9.45 -39.1 -9.25 -39.15 -9.1 -39.2 -8.9 -39.2 -8.75 -39.25 -8.55 -39.25 -8.4 -39.25 -8.2 -39.2 -8.05 -39.2 -7.85 -39.15 -7.65 -39.1 -7.5 -39.05 -7.3 -39.0 -7.1 -38.9 -6.45 -38.6 -5.5 -38.2 -3.85 -37.55 -3.8 -37.5 -3.75 -37.5 -3.75 -37.5 -3.7 -37.5 -3.7 -37.45 -3.65 -37.45 -3.65 -37.45 -3.6 -37.45 -3.6 -37.45 -3.55 -37.45 -3.5 -37.45 -3.5 -37.45 -3.45 -37.45 -3.45 -37.45 -3.4 -37.45 -3.35 -37.45 -3.35 -37.5 -3.25 -37.55 -3.1 -37.55 -3.0 -37.55 -2.85 -37.55 -2.75 -37.55 -2.65 -37.55 -2.5 -37.55 -2.4 -37.55 -2.3 -37.5 -2.15 -37.5 -2.05 -37.45 -1.95 -37.45 -1.85 -37.4 -1.7 -37.35 -1.6 -37.3 -1.5 -37.25 -1.35 -37.2 -1.2 -37.1 -1.1 -37.05 -0.95 -36.95 -0.85 -36.9 -0.75 -36.8 -0.6 -36.7 -0.5 -36.6 -0.4 -36.5 -0.3 -36.4 -0.2 -36.3 -0.1 -36.2 -0.05 -36.05 0.05 -35.95 0.15 -35.85 0.2 -35.7 0.25 -35.65 0.25 -35.6 0.3 -35.55 0.35 -35.55 0.35 -35.5 0.4 -35.45 0.45 -35.4 0.5 -35.4 0.5 -35.35 0.55 -35.35 0.6 -35.3 0.65 -35.3 0.7 -35.25 0.75 -35.25 0.8 -35.2 0.85 -35.2 0.95 -35.2 1.05 -35.15 1.1 -35.1 1.2 -35.05 1.3 -35.05 1.35 -35.0 1.45 -34.95 1.5 -34.9 1.6 -34.85 1.65 -34.8 1.75 -34.7 1.8 -34.65 1.9 -34.6 1.95 -34.5 2.0 -34.45 2.1 -34.4 2.2 -34.3 2.25 -34.2 2.35 -34.1 2.4 -34.0 2.5 -33.9 2.55 -33.8 2.65 -33.7 2.7 -33.6 2.8 -33.5 2.85 -33.4 2.9 -33.3 3.0 -33.2 3.05 -33.1 3.1 -32.95 3.2 -32.85 3.25 -32.75 3.3 -32.65 3.4 -32.55 3.45 -32.45 3.5 -32.35 3.6 -32.2 3.65 -32.1 3.7 -32.0 3.8 -31.9 3.85 -31.8 3.9 -31.7 4.0 -31.6 4.05 -31.5 4.15 -31.4 4.25 -31.25 4.3 -31.15 4.4 -31.05 4.5 -31.3 4.7 -31.7 4.9 -32.15 5.0 -32.35 L5.0 -32.35 M7.9 -28.9 Q7.85 -28.85 7.9 -28.85 8.0 -28.8 7.9 -28.85 7.95 -28.95 8.0 -29.05 8.1 -29.1 8.15 -29.2 8.2 -29.25 8.3 -29.35 8.35 -29.4 8.45 -29.5 8.6 -29.65 8.6 -29.65 8.7 -29.75 8.75 -29.8 8.8 -29.9 8.85 -29.95 8.95 -30.05 9.0 -30.15 11.1 -32.05 11.85 -32.6 11.75 -32.7 11.65 -32.75 11.5 -32.8 11.45 -32.8 11.35 -32.85 11.25 -32.85 11.2 -32.85 11.15 -32.8 11.05 -32.8 11.0 -32.75 10.95 -32.75 10.9 -32.7 10.8 -32.65 10.75 -32.6 10.7 -32.5 10.6 -32.45 10.5 -32.3 10.35 -32.2 10.25 -32.05 10.15 -31.9 10.05 -31.8 9.9 -31.65 9.8 -31.5 9.7 -31.4 9.6 -31.25 9.5 -31.1 9.4 -30.95 9.3 -30.85 9.2 -30.7 9.1 -30.55 9.0 -30.4 8.9 -30.25 8.65 -30.0 7.9 -28.9 L7.9 -28.9 M13.1 -31.1 Q13.2 -31.2 13.3 -31.3 13.4 -31.4 13.5 -31.5 13.6 -31.6 13.75 -31.7 13.85 -31.8 13.95 -31.9 14.05 -31.95 14.15 -32.05 14.3 -32.15 14.4 -32.25 14.5 -32.3 14.65 -32.4 14.75 -32.5 14.85 -32.55 15.0 -32.65 15.15 -32.7 15.3 -32.8 15.45 -32.85 15.6 -32.95 15.75 -33.0 15.9 -33.05 16.05 -33.05 16.2 -33.1 16.35 -33.1 16.5 -33.1 16.65 -33.1 16.8 -33.1 17.0 -33.05 17.15 -33.05 17.3 -33.0 17.65 -32.9 20.1 -32.3 19.95 -32.4 19.85 -32.5 19.7 -32.55 19.6 -32.65 19.5 -32.75 19.35 -32.8 19.25 -32.9 19.1 -32.95 19.0 -33.0 18.85 -33.1 18.75 -33.15 18.65 -33.2 18.5 -33.25 18.4 -33.3 18.3 -33.4 18.15 -33.45 17.9 -33.55 17.55 -33.7 17.05 -33.9 16.9 -33.95 16.8 -34.0 16.75 -34.0 16.65 -34.05 16.55 -34.05 16.5 -34.05 16.4 -34.05 16.35 -34.05 16.25 -34.05 16.2 -34.05 16.1 -34.0 16.05 -34.0 15.95 -33.95 15.9 -33.9 15.8 -33.85 15.75 -33.8 15.65 -33.75 15.65 -33.75 15.6 -33.7 14.75 -32.9 13.1 -31.5 11.4 -30.05 10.65 -29.35 10.55 -29.25 10.45 -29.2 10.4 -29.1 10.3 -29.05 10.2 -28.95 10.1 -28.85 10.05 -28.8 9.95 -28.7 9.85 -28.6 9.8 -28.55 9.7 -28.45 9.65 -28.35 9.55 -28.25 9.5 -28.15 9.4 -28.05 9.35 -27.95 9.3 -27.9 9.3 -27.9 9.25 -27.85 9.25 -27.85 9.2 -27.8 9.15 -27.75 9.15 -27.75 9.15 -27.7 9.1 -27.65 9.1 -27.6 9.05 -27.55 9.05 -27.55 9.05 -27.5 9.0 -27.45 9.0 -27.4 9.0 -27.3 9.05 -27.35 9.1 -27.35 9.1 -27.4 9.15 -27.4 9.2 -27.45 9.2 -27.45 9.25 -27.5 9.3 -27.55 9.3 -27.55 9.35 -27.6 9.35 -27.6 9.4 -27.65 9.4 -27.65 9.45 -27.7 9.45 -27.75 9.45 -27.75 9.75 -28.0 11.3 -29.4 12.4 -30.45 13.1 -31.1 L13.1 -31.1 M31.45 8.75 Q31.85 10.75 32.1 13.95 32.15 14.55 32.2 15.15 32.25 15.75 32.25 16.35 32.3 16.95 32.35 17.55 32.4 18.15 32.4 18.75 32.45 19.35 32.5 19.95 32.5 20.55 32.55 21.15 32.55 21.75 32.55 22.35 32.6 22.95 32.6 23.55 32.6 23.95 32.6 24.3 32.65 24.7 32.65 25.1 32.65 25.45 32.65 25.85 32.65 26.25 32.65 26.6 32.6 27.0 32.6 27.4 32.6 27.75 32.6 28.15 32.6 28.55 32.55 28.95 32.55 29.3 32.5 29.7 32.45 30.3 32.45 30.95 32.45 31.55 32.4 32.15 32.4 32.8 32.4 33.4 32.4 34.0 32.4 34.6 32.4 35.25 32.4 35.85 32.4 36.45 32.45 37.1 32.45 37.7 32.5 38.3 32.5 38.95 32.55 39.55 32.7 41.85 32.75 43.75 32.75 44.15 32.8 44.55 32.85 44.95 32.95 45.35 33.05 45.75 33.15 46.1 33.25 46.45 33.4 46.8 33.55 47.2 33.75 47.5 33.95 47.85 34.15 48.2 34.35 48.5 34.6 48.85 34.9 49.15 35.15 49.45 35.4 49.7 35.65 49.95 35.9 50.2 36.15 50.4 36.4 50.65 36.65 50.85 36.95 51.1 37.2 51.3 37.5 51.5 37.75 51.7 38.05 51.9 38.35 52.1 38.65 52.3 38.9 52.45 39.25 52.65 39.55 52.8 39.6 52.85 39.65 52.85 39.7 52.9 39.8 52.9 39.85 52.95 39.9 53.0 39.95 53.0 40.0 53.05 40.1 53.05 40.15 53.1 40.2 53.1 40.25 53.15 40.3 53.15 40.4 53.2 40.45 53.2 40.5 53.25 40.7 53.3 40.85 53.35 41.05 53.4 41.25 53.4 41.4 53.4 41.6 53.4 41.75 53.4 41.9 53.35 42.1 53.35 42.25 53.3 42.4 53.25 42.6 53.2 42.75 53.1 42.9 53.0 43.05 52.95 43.2 52.8 43.35 52.7 43.45 52.6 43.6 52.5 43.75 52.4 43.85 52.3 43.95 52.2 44.1 52.05 44.2 51.95 44.3 51.8 44.4 51.7 44.5 51.55 44.6 51.45 44.7 51.3 44.8 51.15 44.9 51.05 45.0 50.9 45.1 50.7 45.25 50.5 45.4 50.35 45.5 50.15 45.65 49.95 45.8 49.75 45.9 49.6 46.05 49.4 46.2 49.25 46.35 49.05 46.5 48.9 46.65 48.7 46.75 48.55 46.9 48.35 47.05 48.2 47.2 48.0 47.55 47.65 47.8 47.25 48.1 46.9 48.35 46.5 48.55 46.1 48.75 45.7 48.95 45.3 49.1 44.85 49.25 44.45 49.35 44.0 49.45 43.55 49.55 43.1 49.6 42.65 49.65 42.2 49.7 41.7 49.7 41.25 49.7 40.9 49.7 40.55 49.65 40.2 49.65 39.85 49.6 39.55 49.55 39.2 49.55 38.85 49.5 38.5 49.45 38.15 49.4 37.8 49.35 37.5 49.3 37.15 49.25 36.8 49.15 36.45 49.1 36.15 49.05 35.8 48.9 35.15 48.55 33.3 48.25 31.75 48.0 30.8 47.7 29.4 47.0 27.25 44.0 18.55 42.75 14.7 42.5 13.9 42.2 13.1 41.95 12.3 41.7 11.45 41.4 10.65 41.15 9.85 40.9 9.05 40.65 8.25 40.4 7.4 40.15 6.6 39.9 5.8 39.65 5.0 39.4 4.15 39.15 3.35 38.9 2.55 38.7 1.75 38.5 1.15 38.3 0.15 38.1 -1.05 38.0 -1.45 37.25 -4.4 37.1 -5.9 36.9 -7.45 36.95 -7.85 36.95 -8.5 36.85 -9.5 36.7 -10.9 36.7 -11.15 36.7 -11.2 36.7 -11.3 36.65 -11.35 36.65 -11.45 36.6 -11.5 36.6 -11.55 36.55 -11.65 36.55 -11.7 36.5 -11.75 36.45 -11.85 36.45 -11.9 36.4 -11.95 36.35 -12.0 36.3 -12.05 36.3 -12.15 36.25 -12.2 36.1 -12.4 35.4 -13.35 34.9 -14.05 34.6 -14.45 34.1 -15.1 33.6 -15.8 33.1 -16.5 32.6 -17.2 32.15 -17.85 31.7 -18.6 31.25 -19.25 30.8 -20.0 30.35 -20.7 29.9 -21.45 29.5 -22.15 29.05 -22.9 28.65 -23.6 28.25 -24.35 27.85 -25.05 27.45 -25.85 27.0 -26.7 26.3 -28.4 26.25 -28.5 26.2 -28.6 26.15 -28.7 26.1 -28.75 26.05 -28.85 26.0 -28.9 25.95 -29.0 25.85 -29.05 25.8 -29.1 25.7 -29.15 25.65 -29.25 25.55 -29.3 25.45 -29.35 25.35 -29.35 25.25 -29.4 25.15 -29.45 24.9 -29.55 23.7 -29.8 22.05 -30.1 18.5 -30.95 18.2 -31.05 17.7 -31.15 17.1 -31.3 16.85 -31.35 16.8 -31.35 16.7 -31.4 16.65 -31.4 16.6 -31.4 16.5 -31.4 16.45 -31.4 16.4 -31.4 16.35 -31.4 16.3 -31.4 16.2 -31.4 16.15 -31.35 16.1 -31.35 16.05 -31.3 16.0 -31.3 15.95 -31.25 15.9 -31.2 15.85 -31.15 15.75 -31.1 15.7 -31.1 15.6 -31.05 15.55 -31.0 15.45 -30.95 15.4 -30.9 15.35 -30.85 15.25 -30.8 15.2 -30.75 15.15 -30.7 15.05 -30.65 15.0 -30.6 14.95 -30.55 14.85 -30.5 14.8 -30.4 13.3 -29.0 10.6 -26.55 10.4 -26.25 10.4 -26.25 10.55 -26.2 10.7 -26.2 10.85 -26.2 11.0 -26.2 11.1 -26.2 11.25 -26.2 11.4 -26.2 11.55 -26.25 11.65 -26.25 11.8 -26.3 11.95 -26.35 12.05 -26.4 12.2 -26.45 12.35 -26.5 12.45 -26.55 12.6 -26.65 12.7 -26.7 12.85 -26.8 12.95 -26.85 13.05 -26.95 13.15 -27.0 13.3 -27.1 13.4 -27.15 13.5 -27.25 13.6 -27.35 13.7 -27.4 13.85 -27.5 13.95 -27.6 14.05 -27.65 14.15 -27.75 14.25 -27.85 14.35 -27.95 14.5 -28.1 14.65 -28.2 14.8 -28.3 14.95 -28.4 15.1 -28.5 15.25 -28.55 15.4 -28.65 15.6 -28.7 15.75 -28.7 15.9 -28.75 16.1 -28.75 16.25 -28.75 16.45 -28.75 16.65 -28.7 16.85 -28.65 17.05 -28.6 17.4 -28.45 18.15 -28.3 18.9 -28.1 19.25 -28.0 20.05 -27.8 20.4 -27.7 20.55 -27.65 20.75 -27.65 20.9 -27.6 21.1 -27.55 21.25 -27.55 21.45 -27.5 21.6 -27.45 21.75 -27.4 21.95 -27.35 22.1 -27.3 22.3 -27.25 22.45 -27.2 22.6 -27.15 22.8 -27.05 22.95 -27.0 23.1 -26.95 23.15 -26.95 23.2 -26.95 23.2 -26.9 23.25 -26.9 23.3 -26.9 23.35 -26.9 23.4 -26.85 23.45 -26.85 23.45 -26.85 23.5 -26.8 23.55 -26.8 23.55 -26.75 23.6 -26.75 23.6 -26.7 23.6 -26.65 23.6 -26.6 23.6 -26.55 23.6 -26.5 23.6 -26.4 23.55 -26.35 23.55 -26.3 23.55 -26.25 23.5 -26.2 23.5 -26.2 23.45 -26.15 23.45 -26.1 23.4 -26.1 23.35 -26.05 23.3 -26.0 23.25 -26.0 23.2 -26.0 23.15 -25.95 22.9 -25.95 22.65 -26.0 22.4 -26.05 22.15 -26.1 21.9 -26.15 21.65 -26.2 21.45 -26.25 21.2 -26.3 21.0 -26.35 20.7 -26.45 21.05 -26.35 20.2 -26.6 19.95 -26.65 19.75 -26.7 19.5 -26.75 19.25 -26.85 18.95 -26.9 18.1 -27.1 18.1 -27.05 18.15 -27.0 18.15 -27.0 18.15 -26.95 18.2 -26.95 18.2 -26.9 18.25 -26.85 18.25 -26.85 18.3 -26.85 18.3 -26.8 18.35 -26.75 18.35 -26.75 18.4 -26.7 18.4 -26.7 18.45 -26.65 18.45 -26.65 18.45 -26.6 18.5 -26.6 18.5 -26.55 18.55 -26.5 18.55 -26.5 18.55 -26.45 18.6 -26.4 18.6 -26.4 18.6 -26.35 18.65 -26.3 18.65 -26.25 18.65 -26.25 18.65 -26.2 18.65 -26.15 18.65 -26.1 18.65 -26.1 18.65 -26.0 18.65 -25.95 18.6 -25.9 18.6 -25.85 18.6 -25.8 18.55 -25.75 18.55 -25.7 18.5 -25.7 18.45 -25.65 18.4 -25.65 18.35 -25.65 18.3 -25.65 18.25 -25.65 18.2 -25.65 18.15 -25.65 18.05 -25.7 17.75 -25.85 17.3 -26.05 16.95 -26.25 15.7 -26.65 15.65 -26.65 15.6 -26.65 15.55 -26.65 15.5 -26.65 15.45 -26.65 15.4 -26.6 15.35 -26.6 15.3 -26.55 15.3 -26.55 15.25 -26.5 14.9 -26.2 15.2 -26.45 15.15 -26.4 15.1 -26.4 15.1 -26.35 15.05 -26.35 15.0 -26.25 15.1 -26.15 15.3 -25.95 15.5 -25.65 15.7 -25.45 15.85 -25.15 16.0 -24.9 16.15 -24.65 16.25 -24.4 16.4 -24.1 16.5 -23.8 16.6 -23.5 16.7 -23.25 16.8 -22.95 16.9 -22.7 17.0 -22.35 17.0 -22.25 17.15 -21.75 17.2 -21.65 17.2 -21.55 17.25 -21.45 17.25 -21.35 17.25 -21.25 17.25 -21.15 17.25 -21.05 17.25 -20.95 17.25 -20.85 17.25 -20.75 17.25 -20.65 17.2 -20.55 17.2 -20.45 17.2 -20.35 17.15 -20.25 17.15 -20.15 17.1 -19.95 17.05 -19.7 17.0 -19.5 16.95 -19.3 16.9 -19.05 16.85 -18.85 16.8 -18.6 16.75 -18.4 16.75 -18.2 16.7 -17.95 16.65 -17.75 16.6 -17.5 16.6 -17.3 16.55 -17.05 16.5 -16.85 16.5 -16.65 16.5 -16.55 16.5 -16.5 16.45 -16.4 16.45 -16.3 16.45 -16.25 16.4 -16.15 16.4 -16.1 16.35 -16.0 16.35 -15.95 16.3 -15.85 16.3 -15.75 16.25 -15.7 16.25 -15.6 16.2 -15.55 16.2 -15.45 16.15 -15.4 16.1 -15.25 16.0 -15.1 15.9 -14.95 15.8 -14.8 15.7 -14.65 15.6 -14.55 15.5 -14.45 15.35 -14.35 15.25 -14.25 15.1 -14.2 14.95 -14.1 14.8 -14.05 14.65 -14.0 14.5 -13.95 14.35 -13.9 14.15 -13.9 13.7 -13.85 13.25 -13.75 12.8 -13.65 12.35 -13.55 11.9 -13.45 11.5 -13.35 11.05 -13.25 10.6 -13.1 10.2 -13.0 9.75 -12.85 9.3 -12.7 8.85 -12.55 8.45 -12.4 8.0 -12.25 7.6 -12.1 7.15 -11.9 6.95 -11.85 6.75 -11.75 6.6 -11.65 6.4 -11.55 6.25 -11.45 6.1 -11.3 5.95 -11.2 5.8 -11.05 5.65 -10.95 5.5 -10.8 5.4 -10.65 5.25 -10.5 5.15 -10.3 5.0 -10.15 4.9 -10.0 4.8 -9.8 4.8 -9.75 4.75 -9.7 4.75 -9.7 4.7 -9.65 4.7 -9.6 4.65 -9.55 4.65 -9.55 4.65 -9.5 4.6 -9.4 4.55 -9.3 4.55 -9.2 4.55 -9.15 4.5 -9.1 4.5 -9.05 4.55 -9.0 4.55 -8.95 4.6 -8.9 4.6 -8.85 4.65 -8.85 4.75 -8.8 4.8 -8.8 4.9 -8.8 5.0 -8.75 5.1 -8.75 5.2 -8.75 5.25 -8.75 5.35 -8.75 5.4 -8.75 5.5 -8.75 5.55 -8.75 5.65 -8.75 5.7 -8.8 5.8 -8.8 5.85 -8.8 5.95 -8.8 6.0 -8.85 6.1 -8.85 6.15 -8.85 6.3 -8.9 6.3 -8.9 6.8 -9.0 7.75 -9.35 8.0 -9.45 8.25 -9.5 8.45 -9.55 8.7 -9.65 8.95 -9.7 9.2 -9.75 9.45 -9.8 9.7 -9.85 9.95 -9.85 10.2 -9.9 10.4 -9.95 10.65 -9.95 10.9 -10.0 11.15 -10.0 11.4 -10.05 11.65 -10.05 11.85 -10.05 12.05 -10.05 12.25 -10.05 12.5 -10.05 12.7 -10.0 12.9 -10.0 13.1 -9.95 13.3 -9.9 13.45 -9.9 13.65 -9.85 13.85 -9.8 14.05 -9.7 14.25 -9.65 14.45 -9.6 14.65 -9.55 14.85 -9.45 15.2 -9.3 15.5 -9.2 15.85 -9.05 16.15 -8.95 16.45 -8.8 16.8 -8.65 17.1 -8.5 17.4 -8.35 17.75 -8.2 18.05 -8.05 18.35 -7.85 18.65 -7.7 18.95 -7.5 19.25 -7.35 19.55 -7.15 19.8 -6.95 19.9 -6.85 20.15 -6.75 20.4 -6.6 20.5 -6.55 20.6 -6.45 20.75 -6.4 20.85 -6.35 20.95 -6.3 21.1 -6.2 21.2 -6.15 21.3 -6.1 21.45 -6.05 21.55 -6.0 21.7 -6.0 21.8 -5.95 21.95 -5.95 22.05 -5.9 22.2 -5.9 22.35 -5.85 22.5 -5.85 23.5 -5.8 25.45 -5.35 25.55 -5.35 25.65 -5.3 25.7 -5.25 25.8 -5.25 25.9 -5.2 25.95 -5.15 26.05 -5.1 26.1 -5.05 26.2 -5.0 26.25 -4.95 26.3 -4.9 26.4 -4.85 26.45 -4.8 26.5 -4.75 26.6 -4.65 26.65 -4.6 26.95 -4.25 27.25 -3.85 27.5 -3.5 27.75 -3.1 28.0 -2.75 28.2 -2.3 28.45 -1.95 28.6 -1.5 28.8 -1.1 29.0 -0.65 29.15 -0.25 29.3 0.2 29.45 0.6 29.6 1.05 29.75 1.45 29.85 1.95 30.3 3.4 30.75 5.15 30.75 5.15 30.75 5.25 30.8 5.3 30.8 5.35 30.8 5.4 30.85 5.4 30.9 5.55 30.9 5.75 30.9 5.8 30.9 5.85 30.9 5.9 30.9 5.9 30.95 5.95 31.0 6.0 31.15 7.0 31.45 8.75 L31.45 8.75 M4.0 -28.25 Q3.8 -28.45 3.65 -28.65 3.5 -28.9 3.3 -29.1 3.15 -29.3 2.95 -29.55 2.8 -29.75 2.65 -30.0 2.5 -30.2 2.35 -30.45 2.2 -30.65 2.05 -30.9 1.9 -31.15 1.75 -31.35 1.6 -31.6 1.45 -31.85 1.35 -32.0 1.15 -32.3 0.9 -32.65 0.8 -32.75 0.75 -32.85 0.7 -32.9 0.6 -33.0 0.55 -33.05 0.5 -33.1 0.4 -33.15 0.35 -33.2 0.25 -33.25 0.2 -33.25 0.1 -33.3 0.0 -33.3 -0.1 -33.3 -0.2 -33.3 -0.3 -33.25 -0.4 -33.25 -0.5 -33.2 -0.55 -33.2 -3.1 -32.45 -5.55 -31.75 -7.4 -31.35 -7.45 -31.35 -7.5 -31.3 -7.55 -31.3 -7.6 -31.3 -7.65 -31.3 -7.7 -31.3 -7.75 -31.3 -7.8 -31.25 -7.85 -31.25 -7.9 -31.25 -7.95 -31.25 -7.95 -31.25 -8.0 -31.3 -8.05 -31.3 -8.1 -31.3 -8.15 -31.3 -8.15 -31.35 -8.2 -31.35 -8.25 -31.35 -8.25 -31.4 -8.3 -31.4 -8.35 -31.45 -8.35 -31.5 -8.35 -31.55 -8.35 -31.6 -8.4 -31.6 -8.4 -31.65 -8.4 -31.7 -8.35 -31.7 -8.35 -31.75 -8.35 -31.75 -8.3 -31.8 -8.3 -31.8 -8.25 -31.85 -8.2 -31.85 -8.2 -31.9 -8.1 -31.95 -8.1 -31.95 -8.1 -31.95 -8.05 -32.0 -7.9 -32.1 -7.75 -32.25 -7.6 -32.35 -7.45 -32.45 -7.25 -32.55 -7.1 -32.65 -6.95 -32.75 -6.75 -32.85 -6.6 -32.9 -6.4 -33.0 -6.25 -33.05 -6.05 -33.15 -5.9 -33.2 -5.7 -33.25 -5.55 -33.35 -5.35 -33.4 -4.6 -33.65 -2.2 -34.35 -2.15 -34.35 -2.1 -34.4 -2.05 -34.4 -2.05 -34.4 -2.0 -34.45 -1.95 -34.45 -1.9 -34.45 -1.9 -34.5 -1.85 -34.5 -1.8 -34.55 -1.75 -34.55 -1.75 -34.55 -1.7 -34.6 -1.65 -34.6 -1.6 -34.65 -1.6 -34.65 -1.65 -34.75 -1.7 -34.9 -1.75 -35.0 -1.8 -35.05 -1.85 -35.15 -1.95 -35.25 -2.0 -35.3 -2.1 -35.35 -2.2 -35.4 -2.25 -35.45 -2.35 -35.5 -2.5 -35.55 -2.6 -35.55 -2.7 -35.55 -2.85 -35.55 -2.95 -35.55 -3.05 -35.55 -3.2 -35.55 -3.3 -35.55 -3.4 -35.5 -3.55 -35.5 -3.65 -35.5 -3.75 -35.45 -3.9 -35.45 -4.0 -35.45 -4.1 -35.4 -4.2 -35.4 -4.35 -35.35 -4.45 -35.35 -4.55 -35.3 -4.6 -35.3 -4.8 -35.25 -9.3 -34.2 -9.45 -34.15 -9.55 -34.1 -9.55 -34.1 -9.6 -34.1 -9.65 -34.1 -9.7 -34.1 -9.75 -34.1 -9.75 -34.15 -9.8 -34.2 -9.85 -34.25 -9.85 -34.3 -9.85 -34.3 -9.8 -34.35 -9.8 -34.4 -9.75 -34.4 -9.75 -34.45 -9.7 -34.5 -9.6 -34.6 -9.5 -34.7 -9.4 -34.8 -9.3 -34.9 -9.2 -34.95 -9.1 -35.05 -9.0 -35.1 -8.9 -35.2 -8.75 -35.25 -8.65 -35.3 -8.55 -35.4 -8.4 -35.45 -8.3 -35.5 -8.15 -35.55 -8.05 -35.6 -7.9 -35.65 -7.9 -35.65 -6.05 -36.2 -6.2 -36.35 -7.15 -36.75 -7.2 -36.75 -7.25 -36.8 -7.25 -36.8 -7.3 -36.8 -7.35 -36.8 -7.4 -36.85 -7.45 -36.85 -7.45 -36.85 -7.5 -36.9 -7.55 -36.9 -7.6 -36.9 -7.65 -36.9 -7.65 -36.95 -7.7 -36.95 -7.75 -36.95 -7.8 -37.0 -7.9 -37.05 -8.0 -37.1 -8.1 -37.15 -8.2 -37.15 -8.3 -37.2 -8.4 -37.2 -8.45 -37.2 -8.55 -37.2 -8.65 -37.2 -8.75 -37.15 -8.85 -37.15 -8.95 -37.1 -9.05 -37.05 -9.15 -37.0 -9.2 -37.0 -9.3 -36.9 -9.7 -36.6 -10.95 -36.0 -11.95 -35.4 -12.55 -35.0 -12.6 -35.0 -12.6 -34.95 -12.65 -34.95 -12.65 -34.9 -12.7 -34.9 -12.7 -34.85 -12.75 -34.85 -12.8 -34.85 -12.8 -34.8 -12.85 -34.8 -12.9 -34.75 -12.9 -34.75 -12.95 -34.75 -13.0 -34.7 -13.0 -34.7 -13.05 -34.7 -13.1 -34.7 -13.15 -34.7 -13.2 -34.65 -13.25 -34.65 -13.25 -34.65 -13.3 -34.7 -13.35 -34.7 -13.35 -34.7 -13.4 -34.75 -13.4 -34.75 -13.4 -34.8 -13.4 -34.8 -13.45 -34.85 -13.45 -34.9 -13.45 -34.95 -13.4 -35.0 -13.4 -35.05 -13.4 -35.1 -13.4 -35.15 -13.35 -35.2 -13.35 -35.25 -13.35 -35.3 -13.3 -35.3 -13.3 -35.35 -13.3 -35.4 -13.25 -35.45 -13.2 -35.55 -13.15 -35.65 -13.1 -35.75 -13.05 -35.8 -13.0 -35.9 -12.95 -36.0 -12.9 -36.1 -12.85 -36.15 -12.8 -36.25 -12.75 -36.35 -12.65 -36.4 -12.6 -36.5 -12.55 -36.6 -12.45 -36.65 -12.4 -36.75 -12.3 -36.85 -12.45 -36.85 -12.5 -36.85 -12.65 -36.9 -12.7 -36.9 -12.85 -36.9 -12.95 -36.9 -13.05 -36.9 -13.15 -36.9 -13.25 -36.95 -13.35 -36.95 -13.45 -36.95 -13.55 -36.9 -13.65 -36.9 -13.75 -36.9 -13.85 -36.9 -13.95 -36.9 -14.05 -36.9 -14.1 -36.85 -14.2 -36.8 -14.25 -36.8 -14.35 -36.75 -14.4 -36.7 -14.5 -36.65 -14.55 -36.6 -14.6 -36.55 -14.65 -36.5 -14.75 -36.45 -14.8 -36.4 -14.85 -36.35 -14.9 -36.3 -14.95 -36.2 -15.0 -36.15 -16.8 -34.0 -17.75 -32.8 -17.85 -32.65 -18.0 -32.5 -18.1 -32.35 -18.25 -32.2 -18.35 -32.05 -18.5 -31.95 -18.6 -31.8 -18.75 -31.65 -18.9 -31.55 -19.0 -31.4 -19.15 -31.25 -19.3 -31.15 -19.45 -31.0 -19.55 -30.9 -19.7 -30.75 -19.85 -30.65 -20.0 -30.55 -20.1 -30.45 -20.25 -30.3 -20.35 -30.2 -20.45 -30.05 -20.6 -29.95 -20.7 -29.8 -20.75 -29.65 -20.85 -29.55 -20.95 -29.4 -21.05 -29.25 -21.1 -29.1 -21.2 -28.95 -21.25 -28.8 -21.35 -28.65 -21.4 -28.5 -21.65 -27.95 -22.0 -27.0 -22.45 -25.95 -22.6 -25.55 -22.95 -24.7 -23.2 -24.25 -23.55 -23.6 -23.9 -23.0 -24.25 -22.4 -24.6 -21.8 -25.0 -21.2 -25.35 -20.6 -25.75 -19.95 -26.1 -19.4 -26.5 -18.8 -26.9 -18.2 -27.3 -17.6 -27.7 -17.05 -28.15 -16.45 -28.55 -15.9 -29.0 -15.3 -29.4 -14.75 -29.65 -14.45 -29.85 -14.2 -30.1 -13.9 -30.35 -13.65 -30.6 -13.4 -30.85 -13.1 -31.1 -12.85 -31.35 -12.6 -31.6 -12.35 -31.85 -12.1 -32.15 -11.85 -32.4 -11.65 -32.65 -11.4 -32.95 -11.15 -33.25 -10.95 -33.5 -10.7 -33.7 -10.55 -33.9 -10.35 -34.1 -10.2 -34.3 -10.0 -34.45 -9.8 -34.65 -9.65 -34.8 -9.45 -34.95 -9.2 -35.1 -9.0 -35.2 -8.8 -35.35 -8.6 -35.45 -8.35 -35.6 -8.1 -35.7 -7.85 -35.8 -7.65 -35.85 -7.4 -36.65 -5.1 -37.5 -1.55 -38.7 3.45 -41.65 13.35 -45.0 24.85 -46.35 30.25 -47.35 34.4 -47.7 36.85 -47.75 37.2 -47.8 37.55 -47.85 37.9 -47.85 38.25 -47.9 38.6 -47.9 38.95 -47.9 39.3 -47.9 39.65 -47.95 40.0 -47.9 40.3 -47.9 40.65 -47.85 41.0 -47.85 41.35 -47.8 41.7 -47.75 42.05 -47.65 42.4 -47.6 42.65 -47.55 42.9 -47.5 43.15 -47.4 43.4 -47.35 43.6 -47.25 43.85 -47.15 44.1 -47.05 44.3 -46.95 44.55 -46.85 44.75 -46.7 45.0 -46.6 45.2 -46.45 45.4 -46.3 45.6 -46.2 45.85 -46.0 46.05 -45.7 46.45 -45.2 47.05 -45.1 47.2 -45.0 47.3 -44.85 47.45 -44.75 47.6 -44.65 47.7 -44.55 47.85 -44.45 48.0 -44.35 48.1 -44.2 48.25 -44.1 48.4 -44.0 48.55 -43.9 48.7 -43.8 48.85 -43.7 49.0 -43.6 49.1 -43.55 49.25 -43.5 49.35 -43.4 49.5 -43.35 49.6 -43.25 49.7 -43.2 49.8 -43.1 49.9 -43.05 50.0 -42.95 50.1 -42.85 50.25 -42.8 50.35 -42.7 50.45 -42.6 50.5 -42.55 50.6 -42.45 50.7 -42.35 50.8 -42.25 50.9 -42.2 50.95 -42.15 51.0 -42.15 51.05 -42.1 51.05 -42.05 51.1 -42.0 51.15 -41.95 51.2 -41.9 51.25 -41.85 51.25 -41.8 51.3 -41.8 51.35 -41.75 51.4 -41.7 51.4 -41.65 51.45 -41.6 51.5 -41.55 51.5 -41.4 51.6 -41.25 51.7 -41.1 51.8 -40.95 51.85 -40.8 51.9 -40.65 51.95 -40.45 52.0 -40.3 52.05 -40.15 52.05 -40.0 52.05 -39.8 52.05 -39.65 52.05 -39.5 52.0 -39.3 52.0 -39.15 51.95 -39.0 51.9 -38.9 51.85 -38.8 51.85 -38.75 51.8 -38.65 51.75 -38.55 51.75 -38.5 51.7 -38.4 51.65 -38.3 51.6 -38.25 51.6 -38.15 51.55 -38.05 51.5 -38.0 51.45 -37.9 51.4 -37.8 51.35 -37.75 51.35 -37.65 51.3 -37.35 51.1 -37.05 50.9 -36.75 50.7 -36.45 50.5 -36.15 50.3 -35.9 50.1 -35.6 49.85 -35.35 49.65 -35.05 49.4 -34.8 49.15 -34.55 48.9 -34.3 48.65 -34.05 48.4 -33.8 48.15 -33.55 47.9 -33.35 47.6 -33.15 47.35 -32.95 47.1 -32.75 46.85 -32.6 46.55 -32.45 46.3 -32.3 46.05 -32.15 45.75 -32.05 45.5 -31.95 45.2 -31.85 44.9 -31.75 44.6 -31.65 44.3 -31.6 44.0 -31.55 43.7 -31.5 43.4 -31.45 43.05 -31.4 42.5 -31.35 41.5 -31.3 40.4 -31.3 40.0 -31.0 35.35 -31.05 25.8 -31.05 20.7 -30.9 17.3 -30.8 14.55 -30.4 10.75 -30.35 10.3 -30.3 9.9 -30.25 9.45 -30.25 9.05 -30.2 8.65 -30.15 8.2 -30.1 7.8 -30.05 7.35 -30.0 6.95 -29.95 6.5 -29.9 6.1 -29.8 5.65 -29.75 5.25 -29.7 4.8 -29.65 4.4 -29.6 3.95 -28.95 -0.3 -28.7 -1.2 -28.65 -1.35 -28.6 -1.5 -28.6 -1.65 -28.55 -1.75 -28.5 -1.9 -28.45 -2.05 -28.4 -2.2 -28.35 -2.35 -28.3 -2.45 -28.2 -2.6 -28.15 -2.75 -28.1 -2.85 -28.0 -3.0 -27.95 -3.1 -27.85 -3.25 -27.8 -3.35 -27.6 -3.6 -27.05 -4.6 -26.95 -4.8 -26.8 -5.0 -26.7 -5.2 -26.55 -5.35 -26.4 -5.55 -26.25 -5.7 -26.1 -5.85 -25.9 -6.0 -25.75 -6.15 -25.6 -6.25 -25.4 -6.4 -25.2 -6.5 -25.0 -6.6 -24.8 -6.7 -24.6 -6.8 -24.4 -6.9 -24.25 -6.95 -24.1 -7.0 -23.95 -7.05 -23.85 -7.1 -23.7 -7.2 -23.55 -7.25 -23.4 -7.3 -23.3 -7.4 -23.15 -7.45 -23.0 -7.55 -22.9 -7.6 -22.75 -7.7 -22.65 -7.8 -22.5 -7.85 -22.4 -7.95 -22.25 -8.05 -21.8 -8.35 -20.55 -9.25 -19.45 -9.95 -18.8 -10.45 -18.35 -10.75 -18.0 -11.05 -17.55 -11.4 -17.2 -11.7 -16.8 -12.05 -16.4 -12.4 -16.05 -12.75 -15.7 -13.1 -15.3 -13.45 -15.0 -13.85 -14.65 -14.2 -14.3 -14.6 -14.0 -15.05 -13.7 -15.45 -13.4 -15.9 -13.15 -16.35 -12.95 -16.75 -12.45 -17.5 -11.9 -18.25 -11.7 -18.65 -11.0 -19.9 -9.25 -23.1 -9.05 -23.45 -8.4 -25.4 -8.25 -25.9 -8.2 -26.0 -8.15 -26.15 -8.1 -26.3 -8.0 -26.4 -7.95 -26.55 -7.85 -26.65 -7.75 -26.8 -7.7 -26.9 -7.6 -27.0 -7.5 -27.1 -7.35 -27.2 -7.25 -27.3 -7.15 -27.4 -7.0 -27.45 -6.9 -27.55 -6.75 -27.6 -6.6 -27.65 -5.75 -28.05 -4.7 -28.5 -3.6 -29.0 -1.5 -30.15 -1.45 -30.2 -1.4 -30.2 -1.35 -30.2 -1.3 -30.25 -1.25 -30.25 -1.2 -30.25 -1.15 -30.25 -1.1 -30.25 -1.05 -30.25 -1.0 -30.25 -1.0 -30.25 -0.95 -30.2 -0.9 -30.2 -0.85 -30.15 -0.8 -30.1 -0.75 -30.1 1.2 -28.45 2.05 -27.95 3.3 -27.25 3.8 -27.05 3.85 -27.0 3.95 -27.0 4.0 -26.95 4.05 -26.95 4.15 -26.95 4.2 -26.9 4.3 -26.9 4.35 -26.9 4.45 -26.85 4.5 -26.85 4.6 -26.85 4.65 -26.85 4.75 -26.85 4.85 -26.9 4.95 -26.9 5.0 -26.9 4.4 -27.7 4.0 -28.25 L4.0 -28.25 M4.2 -12.3 Q4.3 -12.45 4.45 -12.55 4.55 -12.65 4.7 -12.75 4.8 -12.9 4.95 -13.0 5.05 -13.05 5.2 -13.15 5.35 -13.25 5.45 -13.35 5.6 -13.4 5.75 -13.5 5.9 -13.55 6.05 -13.65 6.2 -13.7 6.35 -13.75 6.85 -13.95 7.25 -14.1 7.75 -14.3 8.2 -14.45 8.65 -14.6 9.1 -14.75 9.55 -14.9 10.0 -15.05 10.5 -15.2 10.95 -15.3 11.45 -15.45 11.9 -15.55 12.4 -15.65 12.85 -15.75 13.35 -15.85 13.8 -15.9 13.85 -15.9 13.9 -15.9 14.0 -15.95 14.05 -15.95 14.1 -16.0 14.1 -16.0 14.15 -16.05 14.2 -16.05 14.25 -16.1 14.25 -16.15 14.3 -16.15 14.3 -16.2 14.35 -16.25 14.35 -16.3 14.35 -16.35 14.4 -16.4 14.4 -16.5 14.45 -16.9 14.5 -17.2 14.55 -17.35 14.55 -17.55 14.6 -17.7 14.6 -17.9 14.65 -18.05 14.65 -18.25 14.7 -18.45 14.7 -18.6 14.75 -18.8 14.8 -18.95 14.85 -19.15 14.85 -19.3 14.9 -19.5 14.95 -19.65 15.0 -19.85 15.05 -20.05 15.1 -20.2 15.1 -20.3 15.15 -20.45 15.15 -20.55 15.15 -20.65 15.2 -20.75 15.2 -20.85 15.2 -21.0 15.2 -21.1 15.2 -21.2 15.15 -21.3 15.15 -21.4 15.15 -21.55 15.1 -21.65 15.1 -21.75 15.05 -21.85 15.0 -21.95 14.3 -23.9 13.9 -24.4 13.75 -24.65 13.65 -24.7 13.6 -24.8 13.45 -24.75 13.4 -24.75 13.1 -24.65 12.95 -24.6 12.85 -24.55 12.7 -24.5 12.6 -24.45 12.45 -24.4 12.35 -24.35 12.2 -24.3 12.1 -24.25 11.95 -24.25 11.8 -24.2 11.7 -24.15 11.55 -24.15 11.4 -24.15 11.3 -24.15 11.15 -24.1 11.0 -24.1 10.85 -24.1 10.65 -24.1 10.5 -24.15 10.35 -24.15 10.2 -24.15 10.05 -24.2 9.85 -24.2 9.7 -24.25 9.55 -24.3 9.4 -24.35 9.25 -24.4 9.1 -24.5 8.95 -24.55 8.85 -24.65 8.7 -24.75 8.55 -24.9 8.5 -24.95 8.45 -25.0 8.4 -25.0 8.35 -25.05 8.3 -25.1 8.25 -25.1 8.2 -25.15 8.15 -25.15 8.1 -25.2 8.05 -25.2 8.0 -25.25 7.9 -25.25 7.85 -25.25 7.8 -25.3 7.75 -25.3 7.65 -25.3 7.5 -25.35 7.4 -25.35 7.3 -25.35 7.2 -25.4 7.1 -25.4 6.95 -25.4 6.85 -25.4 6.75 -25.4 6.65 -25.4 6.55 -25.4 6.4 -25.35 6.3 -25.3 6.2 -25.3 6.05 -25.25 5.95 -25.2 5.85 -25.1 5.7 -25.0 5.6 -24.95 5.45 -24.9 5.3 -24.85 5.2 -24.8 5.05 -24.8 4.9 -24.8 4.75 -24.8 4.6 -24.75 4.45 -24.8 4.3 -24.8 4.15 -24.8 4.0 -24.85 3.85 -24.9 3.7 -24.95 3.55 -25.0 3.25 -25.1 2.9 -25.25 2.6 -25.35 2.3 -25.5 2.0 -25.65 1.7 -25.8 1.45 -25.95 1.15 -26.1 0.85 -26.3 0.6 -26.45 0.3 -26.65 0.05 -26.85 -0.25 -27.05 -0.5 -27.25 -0.75 -27.45 -1.05 -27.7 -1.1 -27.75 -1.1 -27.75 -1.15 -27.8 -1.2 -27.8 -1.2 -27.8 -1.25 -27.85 -1.3 -27.85 -1.3 -27.85 -1.35 -27.85 -1.4 -27.85 -1.4 -27.85 -1.45 -27.85 -1.5 -27.85 -1.55 -27.85 -1.6 -27.8 -1.65 -27.8 -1.9 -27.65 -2.15 -27.55 -2.4 -27.4 -2.65 -27.3 -2.85 -27.15 -3.1 -27.05 -3.35 -26.9 -3.6 -26.8 -3.85 -26.65 -4.1 -26.55 -4.35 -26.45 -4.6 -26.35 -4.85 -26.2 -5.1 -26.1 -5.4 -26.0 -5.65 -25.9 -5.7 -25.85 -5.8 -25.85 -5.85 -25.8 -5.9 -25.75 -5.95 -25.75 -6.0 -25.7 -6.05 -25.65 -6.1 -25.6 -6.15 -25.55 -6.2 -25.5 -6.25 -25.45 -6.25 -25.4 -6.3 -25.35 -6.3 -25.25 -6.35 -25.2 -6.35 -25.1 -6.35 -25.05 -6.4 -25.05 -6.4 -25.0 -6.4 -24.95 -6.4 -24.95 -6.45 -24.9 -6.45 -24.85 -6.45 -24.85 -6.5 -24.8 -6.5 -24.75 -6.5 -24.7 -6.5 -24.7 -6.55 -24.65 -6.55 -24.6 -6.55 -24.6 -6.55 -24.55 -6.6 -24.3 -6.7 -24.0 -6.8 -23.75 -6.9 -23.5 -7.0 -23.25 -7.1 -23.0 -7.2 -22.75 -7.3 -22.5 -7.4 -22.25 -7.55 -22.0 -7.65 -21.75 -7.8 -21.5 -7.9 -21.3 -8.05 -21.05 -8.2 -20.8 -8.35 -20.55 -8.55 -20.2 -8.9 -19.55 -9.25 -18.8 -9.45 -18.5 -9.45 -18.45 -9.5 -18.45 -9.5 -18.4 -9.5 -18.35 -9.5 -18.35 -9.5 -18.3 -9.5 -18.25 -9.5 -18.25 -9.5 -18.2 -9.5 -18.2 -9.5 -18.15 -9.5 -18.15 -9.45 -18.1 -9.45 -18.05 -9.4 -18.05 -9.4 -18.0 -9.35 -17.95 -9.35 -17.95 -9.3 -17.9 -9.25 -17.85 -9.25 -17.8 -9.2 -17.8 -9.15 -17.75 -9.15 -17.7 -9.1 -17.65 -9.1 -17.6 -9.05 -17.55 -9.05 -17.55 -9.0 -17.5 -8.95 -17.45 -8.95 -17.4 -8.9 -17.4 -8.8 -17.3 -8.75 -17.2 -8.65 -17.1 -8.55 -17.05 -8.45 -16.95 -8.35 -16.9 -8.3 -16.8 -8.2 -16.75 -8.1 -16.7 -7.95 -16.6 -7.85 -16.55 -7.75 -16.5 -7.65 -16.45 -7.55 -16.4 -7.4 -16.35 -7.3 -16.35 -3.1 -14.85 -2.95 -14.8 -2.75 -14.7 -2.55 -14.6 -2.35 -14.5 -2.15 -14.4 -1.95 -14.25 -1.75 -14.15 -1.55 -14.05 -1.35 -13.9 -1.15 -13.8 -1.0 -13.65 -0.8 -13.5 -0.6 -13.4 -0.45 -13.25 -0.25 -13.1 -0.05 -12.95 0.1 -12.8 0.2 -12.7 0.3 -12.65 0.35 -12.55 0.45 -12.5 0.55 -12.4 0.65 -12.3 0.7 -12.25 0.8 -12.15 0.9 -12.05 0.95 -11.95 1.05 -11.9 1.15 -11.8 1.2 -11.7 1.3 -11.6 1.35 -11.55 1.45 -11.45 1.55 -11.35 1.6 -11.25 1.7 -11.15 1.75 -11.05 1.85 -10.95 1.9 -10.85 2.0 -10.75 2.05 -10.6 2.1 -10.5 2.2 -10.4 2.25 -10.25 2.3 -10.15 2.35 -10.0 2.4 -9.9 2.5 -9.75 2.55 -9.6 2.6 -9.8 2.7 -10.0 2.75 -10.2 2.85 -10.4 2.95 -10.6 3.05 -10.75 3.15 -10.95 3.25 -11.1 3.35 -11.25 3.45 -11.4 3.55 -11.6 3.7 -11.75 3.8 -11.9 3.9 -12.05 4.05 -12.2 4.2 -12.3 L4.2 -12.3 M-15.35 -11.2 Q-15.2 -11.2 -15.1 -11.2 -14.95 -11.2 -14.85 -11.2 -14.75 -11.2 -14.6 -11.2 -14.5 -11.2 -14.4 -11.2 -14.3 -11.25 -14.2 -11.25 -14.1 -11.25 -13.95 -11.3 -13.9 -11.3 -13.75 -11.3 -13.7 -11.3 -13.55 -11.35 -13.3 -11.4 -13.05 -11.45 -12.8 -11.5 -12.6 -11.55 -12.35 -11.55 -12.1 -11.6 -11.85 -11.65 -11.6 -11.65 -11.35 -11.7 -11.1 -11.7 -10.85 -11.75 -10.6 -11.75 -10.35 -11.75 -10.1 -11.75 -9.85 -11.8 -9.6 -11.8 -9.3 -11.8 -9.0 -11.8 -8.7 -11.75 -8.4 -11.75 -8.15 -11.7 -7.85 -11.65 -7.55 -11.6 -7.25 -11.55 -6.95 -11.5 -6.7 -11.45 -6.4 -11.35 -6.1 -11.3 -5.8 -11.2 -5.55 -11.1 -5.25 -11.0 -4.95 -10.9 -3.45 -10.35 -0.95 -9.25 -0.85 -9.2 -0.8 -9.2 -0.75 -9.15 -0.7 -9.1 -0.6 -9.1 -0.55 -9.05 -0.45 -9.05 -0.4 -9.0 -0.35 -9.0 -0.25 -8.95 -0.2 -8.95 -0.1 -8.95 -0.05 -8.9 0.05 -8.9 0.1 -8.9 0.2 -8.9 0.25 -8.9 0.3 -8.9 0.35 -8.9 0.4 -8.95 0.45 -8.95 0.45 -8.95 0.5 -9.0 0.5 -9.0 0.5 -9.05 0.55 -9.1 0.55 -9.1 0.5 -9.15 0.5 -9.2 0.5 -9.25 0.5 -9.3 0.45 -9.35 0.4 -9.4 0.4 -9.5 0.35 -9.55 0.3 -9.6 0.25 -9.65 0.25 -9.75 0.2 -9.8 0.15 -9.85 0.1 -9.9 0.05 -9.95 0.0 -10.0 -0.05 -10.05 -0.1 -10.1 -0.1 -10.15 -0.15 -10.2 -0.2 -10.3 -0.45 -10.6 -0.75 -10.85 -1.0 -11.1 -1.3 -11.35 -1.6 -11.6 -1.9 -11.8 -2.2 -12.05 -2.5 -12.25 -2.8 -12.45 -3.15 -12.65 -3.45 -12.8 -3.8 -12.95 -4.15 -13.15 -4.5 -13.25 -4.85 -13.4 -5.25 -13.55 -5.65 -13.65 -7.85 -14.4 -8.05 -14.45 -8.3 -14.55 -8.5 -14.65 -8.7 -14.75 -8.9 -14.85 -9.1 -14.95 -9.3 -15.05 -9.45 -15.15 -9.65 -15.3 -9.8 -15.45 -10.0 -15.6 -10.15 -15.75 -10.3 -15.9 -10.45 -16.1 -10.6 -16.25 -10.75 -16.45 -10.75 -16.5 -10.95 -16.75 -11.2 -16.3 -11.4 -16.0 -11.65 -15.55 -11.9 -15.25 -12.15 -14.85 -12.35 -14.5 -12.6 -14.1 -12.9 -13.8 -13.15 -13.4 -13.4 -13.1 -13.7 -12.75 -14.0 -12.45 -14.3 -12.1 -14.65 -11.8 -15.0 -11.5 -15.35 -11.2 L-15.35 -11.2 M6.7 -31.2 Q6.5 -30.85 5.75 -29.2 5.75 -29.2 5.7 -29.15 5.7 -29.1 5.7 -29.05 5.65 -29.05 5.65 -29.0 5.65 -28.95 5.65 -28.95 5.65 -28.9 5.65 -28.85 5.65 -28.85 5.7 -28.8 5.7 -28.8 5.75 -28.75 5.75 -28.7 5.8 -28.7 5.95 -29.05 7.75 -31.55 7.6 -31.6 7.5 -31.65 7.4 -31.65 7.3 -31.7 7.25 -31.7 7.15 -31.7 7.1 -31.7 7.05 -31.7 7.0 -31.65 6.95 -31.65 6.9 -31.6 6.85 -31.55 6.8 -31.5 6.75 -31.4 6.75 -31.3 6.7 -31.2 L6.7 -31.2 M7.2 -27.55 Q7.25 -27.6 7.3 -27.65 7.35 -27.65 7.35 -27.7 7.4 -27.75 7.4 -27.8 7.4 -27.85 7.4 -27.9 7.45 -27.95 7.45 -28.0 7.45 -28.05 7.45 -28.1 7.45 -28.15 7.5 -28.2 7.5 -28.25 7.5 -28.25 7.45 -28.2 7.45 -28.2 7.45 -28.15 7.4 -28.1 7.4 -28.05 7.35 -28.0 7.35 -28.0 7.3 -27.95 7.3 -27.9 7.3 -27.85 7.25 -27.8 7.25 -27.75 7.25 -27.7 7.25 -27.65 7.2 -27.6 7.2 -27.55 L7.2 -27.55" fill="#050404" fill-rule="evenodd" stroke="none"/>
    <path d="M30.85 5.4 Q30.9 5.4 30.9 5.35 30.95 5.35 30.95 5.3 31.0 5.3 31.0 5.25 31.0 5.2 31.0 5.2 31.0 5.15 31.0 5.1 31.0 5.1 31.0 5.05 31.0 5.05 31.0 5.0 31.0 4.95 30.95 4.9 30.65 2.3 30.4 1.0 30.35 0.75 30.3 0.5 30.3 0.25 30.25 0.0 30.2 -0.3 30.2 -0.55 30.15 -0.8 30.15 -1.05 30.1 -1.3 30.1 -1.55 30.1 -1.85 30.1 -2.1 30.05 -2.35 30.05 -2.6 30.05 -2.85 30.1 -3.15 30.1 -3.25 30.1 -3.3 30.1 -3.4 30.1 -3.5 30.1 -3.55 30.1 -3.65 30.1 -3.75 30.15 -3.85 30.15 -3.9 30.15 -4.0 30.15 -4.1 30.2 -4.15 30.2 -4.25 30.2 -4.35 30.2 -4.45 30.25 -4.5 30.25 -4.55 30.25 -4.6 30.25 -4.65 30.25 -4.7 30.25 -4.75 30.25 -4.75 30.2 -4.8 30.2 -4.85 30.15 -4.85 30.1 -4.9 30.0 -4.95 29.9 -5.05 29.85 -5.1 29.75 -5.2 29.65 -5.25 29.55 -5.35 29.5 -5.45 29.4 -5.5 29.35 -5.6 29.25 -5.7 29.1 -5.8 29.1 -5.85 29.0 -5.95 28.9 -6.05 28.85 -6.1 28.75 -6.2 28.7 -6.25 28.7 -6.25 28.65 -6.3 28.65 -6.3 28.65 -6.35 28.6 -6.35 28.6 -6.4 28.55 -6.4 28.55 -6.45 28.55 -6.45 28.55 -6.5 28.55 -6.55 28.5 -6.55 28.5 -6.6 28.5 -6.65 28.55 -6.7 28.45 -6.6 28.35 -6.55 28.25 -6.5 28.2 -6.45 28.1 -6.4 28.05 -6.4 27.95 -6.35 27.9 -6.35 27.8 -6.35 27.75 -6.35 27.65 -6.35 27.6 -6.4 27.5 -6.4 27.4 -6.45 27.35 -6.5 27.2 -6.6 27.15 -6.65 27.1 -6.65 27.0 -6.7 26.95 -6.75 26.9 -6.8 26.85 -6.85 26.8 -6.85 26.75 -6.9 26.7 -6.95 26.65 -7.0 26.55 -7.05 26.5 -7.1 26.45 -7.15 26.4 -7.2 26.35 -7.25 26.3 -7.3 25.95 -7.65 25.6 -8.05 25.25 -8.45 24.9 -8.85 24.6 -9.25 24.25 -9.65 23.95 -10.05 23.65 -10.45 23.35 -10.85 23.05 -11.3 22.75 -11.7 22.45 -12.15 22.2 -12.55 21.9 -13.0 21.65 -13.45 21.4 -13.9 21.1 -14.45 20.8 -15.0 20.55 -15.55 20.35 -16.15 20.15 -16.7 19.95 -17.3 19.8 -17.85 19.7 -18.45 19.55 -19.05 19.5 -19.65 19.45 -20.25 19.4 -20.85 19.35 -21.45 19.35 -22.1 19.35 -22.7 19.4 -23.35 19.45 -24.25 19.55 -24.5 19.55 -24.6 19.6 -24.65 19.65 -24.75 19.7 -24.8 19.75 -24.85 19.8 -24.9 19.85 -24.95 19.9 -25.0 19.95 -25.05 20.0 -25.05 20.1 -25.1 20.15 -25.1 20.2 -25.1 20.3 -25.1 20.4 -25.1 20.45 -25.1 20.55 -25.1 20.6 -25.05 20.7 -25.05 20.75 -25.0 20.85 -24.95 20.9 -24.9 20.95 -24.85 21.0 -24.8 21.05 -24.7 21.05 -24.65 21.1 -24.55 21.1 -24.5 21.15 -24.4 21.15 -24.3 21.15 -24.2 21.1 -24.1 21.1 -23.85 21.05 -23.6 21.05 -23.4 21.05 -23.15 21.0 -22.9 21.0 -22.65 21.0 -22.4 21.0 -22.15 21.0 -21.95 21.0 -21.7 21.05 -21.45 21.05 -21.2 21.05 -20.95 21.05 -20.75 21.1 -20.5 21.1 -20.25 21.15 -19.95 21.15 -19.7 21.2 -19.4 21.25 -19.1 21.3 -18.8 21.35 -18.55 21.4 -18.25 21.5 -18.0 21.55 -17.7 21.65 -17.45 21.7 -17.15 21.8 -16.9 21.9 -16.6 22.0 -16.35 22.15 -16.1 22.25 -15.85 22.45 -15.5 22.65 -15.1 22.85 -14.75 23.05 -14.4 23.25 -14.05 23.45 -13.7 23.65 -13.35 23.85 -13.0 24.1 -12.65 24.3 -12.35 24.55 -12.0 24.8 -11.65 25.05 -11.35 25.3 -11.0 25.55 -10.7 25.8 -10.4 25.8 -10.4 25.85 -10.3 25.9 -10.25 25.9 -10.25 25.95 -10.2 26.0 -10.15 26.0 -10.1 26.05 -10.1 26.1 -10.05 26.15 -10.05 26.15 -10.1 26.15 -10.1 26.15 -10.15 26.15 -10.2 26.15 -10.2 26.15 -10.25 26.15 -10.3 26.15 -10.3 26.1 -10.35 26.1 -10.35 26.1 -10.4 26.05 -10.4 26.05 -10.45 26.0 -10.5 26.05 -10.45 25.95 -10.55 25.7 -10.85 25.45 -11.15 25.25 -11.5 25.0 -11.8 24.8 -12.15 24.6 -12.5 24.4 -12.8 24.25 -13.15 24.05 -13.5 23.9 -13.85 23.75 -14.25 23.6 -14.6 23.5 -14.95 23.35 -15.35 23.25 -15.7 23.1 -16.1 22.8 -17.15 22.55 -19.2 22.55 -19.4 22.5 -19.6 22.5 -19.8 22.5 -20.0 22.45 -20.2 22.45 -20.4 22.45 -20.6 22.45 -20.85 22.45 -21.0 22.45 -21.25 22.45 -21.45 22.45 -21.65 22.45 -21.85 22.45 -22.05 22.45 -22.25 22.5 -22.45 22.5 -22.65 22.5 -22.85 22.55 -23.0 22.55 -23.2 22.55 -23.4 22.6 -23.6 22.6 -23.8 22.65 -24.0 22.7 -24.15 22.7 -24.35 22.75 -24.55 22.8 -24.75 22.8 -24.95 22.85 -25.15 22.9 -25.3 22.95 -25.5 22.95 -25.6 23.15 -25.95 22.9 -25.95 22.65 -26.0 22.4 -26.05 22.15 -26.1 21.9 -26.15 21.65 -26.2 21.45 -26.25 21.2 -26.3 21.0 -26.35 20.7 -26.45 21.05 -26.35 20.2 -26.6 19.95 -26.65 19.75 -26.7 19.5 -26.75 19.25 -26.85 18.95 -26.9 18.1 -27.1 18.1 -27.05 18.15 -27.0 18.15 -27.0 18.15 -26.95 18.2 -26.95 18.2 -26.9 18.25 -26.85 18.25 -26.85 18.3 -26.85 18.3 -26.8 18.35 -26.75 18.35 -26.75 18.4 -26.7 18.4 -26.7 18.45 -26.65 18.45 -26.65 18.45 -26.6 18.5 -26.6 18.5 -26.55 18.55 -26.5 18.55 -26.5 18.55 -26.45 18.6 -26.4 18.6 -26.4 18.6 -26.35 18.65 -26.3 18.65 -26.25 18.65 -26.25 18.65 -26.2 18.65 -26.15 18.65 -26.1 18.65 -26.1 18.65 -26.0 18.65 -25.95 18.6 -25.9 18.6 -25.85 18.6 -25.8 18.55 -25.75 18.55 -25.7 18.5 -25.7 18.45 -25.65 18.4 -25.65 18.35 -25.65 18.3 -25.65 18.25 -25.65 18.2 -25.65 18.15 -25.65 18.05 -25.7 17.75 -25.85 17.3 -26.05 16.95 -26.25 15.7 -26.65 15.65 -26.65 15.6 -26.65 15.55 -26.65 15.5 -26.65 15.45 -26.65 15.4 -26.6 15.35 -26.6 15.3 -26.55 15.3 -26.55 15.25 -26.5 14.9 -26.2 15.2 -26.45 15.15 -26.4 15.1 -26.4 15.1 -26.35 15.05 -26.35 15.0 -26.25 15.1 -26.15 15.3 -25.95 15.5 -25.65 15.7 -25.45 15.85 -25.15 16.0 -24.9 16.15 -24.65 16.25 -24.4 16.4 -24.1 16.5 -23.8 16.6 -23.5 16.7 -23.25 16.8 -22.95 16.9 -22.7 17.0 -22.35 17.0 -22.25 17.15 -21.75 17.2 -21.65 17.2 -21.55 17.25 -21.45 17.25 -21.35 17.25 -21.25 17.25 -21.15 17.25 -21.05 17.25 -20.95 17.25 -20.85 17.25 -20.75 17.25 -20.65 17.2 -20.55 17.2 -20.45 17.2 -20.35 17.15 -20.25 17.15 -20.15 17.1 -19.95 17.05 -19.7 17.0 -19.5 16.95 -19.3 16.9 -19.05 16.85 -18.85 16.8 -18.6 16.75 -18.4 16.75 -18.2 16.7 -17.95 16.65 -17.75 16.6 -17.5 16.6 -17.3 16.55 -17.05 16.5 -16.85 16.5 -16.65 16.5 -16.55 16.5 -16.5 16.45 -16.4 16.45 -16.3 16.45 -16.25 16.4 -16.15 16.4 -16.1 16.35 -16.0 16.35 -15.95 16.3 -15.85 16.3 -15.75 16.25 -15.7 16.25 -15.6 16.2 -15.55 16.2 -15.45 16.15 -15.4 16.1 -15.25 16.0 -15.1 15.9 -14.95 15.8 -14.8 15.7 -14.65 15.6 -14.55 15.5 -14.45 15.35 -14.35 15.25 -14.25 15.1 -14.2 14.95 -14.1 14.8 -14.05 14.65 -14.0 14.5 -13.95 14.35 -13.9 14.15 -13.9 13.7 -13.85 13.25 -13.75 12.8 -13.65 12.35 -13.55 11.9 -13.45 11.5 -13.35 11.05 -13.25 10.6 -13.1 10.2 -13.0 9.75 -12.85 9.3 -12.7 8.85 -12.55 8.45 -12.4 8.0 -12.25 7.6 -12.1 7.15 -11.9 6.95 -11.85 6.75 -11.75 6.6 -11.65 6.4 -11.55 6.25 -11.45 6.1 -11.3 5.95 -11.2 5.8 -11.05 5.65 -10.95 5.5 -10.8 5.4 -10.65 5.25 -10.5 5.15 -10.3 5.0 -10.15 4.9 -10.0 4.8 -9.8 4.8 -9.75 4.75 -9.7 4.75 -9.7 4.7 -9.65 4.7 -9.6 4.65 -9.55 4.65 -9.55 4.65 -9.5 4.6 -9.4 4.6 -9.3 4.55 -9.2 4.55 -9.15 4.5 -9.1 4.5 -9.05 4.55 -9.0 4.55 -8.95 4.6 -8.9 4.6 -8.85 4.65 -8.85 4.75 -8.8 4.8 -8.8 4.9 -8.8 5.0 -8.75 5.1 -8.75 5.2 -8.75 5.25 -8.75 5.35 -8.75 5.4 -8.75 5.5 -8.75 5.55 -8.75 5.65 -8.75 5.7 -8.8 5.8 -8.8 5.85 -8.8 5.95 -8.8 6.0 -8.85 6.1 -8.85 6.15 -8.85 6.3 -8.9 6.3 -8.9 6.8 -9.0 7.75 -9.35 8.0 -9.45 8.25 -9.5 8.45 -9.55 8.7 -9.65 8.95 -9.7 9.2 -9.75 9.45 -9.8 9.7 -9.85 9.95 -9.85 10.2 -9.9 10.4 -9.95 10.65 -9.95 10.9 -10.0 11.15 -10.0 11.4 -10.05 11.65 -10.05 11.85 -10.05 12.05 -10.05 12.25 -10.05 12.5 -10.05 12.7 -10.0 12.9 -10.0 13.1 -9.95 13.3 -9.9 13.45 -9.9 13.65 -9.85 13.85 -9.8 14.05 -9.7 14.25 -9.65 14.45 -9.6 14.65 -9.55 14.85 -9.45 15.2 -9.3 15.5 -9.2 15.85 -9.05 16.15 -8.95 16.45 -8.8 16.8 -8.65 17.1 -8.5 17.4 -8.35 17.75 -8.2 18.05 -8.05 18.35 -7.85 18.65 -7.7 18.95 -7.5 19.25 -7.35 19.55 -7.15 19.8 -6.95 19.9 -6.85 20.15 -6.75 20.4 -6.6 20.5 -6.55 20.6 -6.45 20.75 -6.4 20.85 -6.35 20.95 -6.3 21.1 -6.2 21.2 -6.15 21.3 -6.1 21.45 -6.05 21.55 -6.0 21.7 -6.0 21.8 -5.95 21.95 -5.95 22.05 -5.9 22.2 -5.9 22.35 -5.85 22.5 -5.85 23.5 -5.8 25.45 -5.35 25.55 -5.35 25.65 -5.3 25.7 -5.25 25.8 -5.25 25.9 -5.2 25.95 -5.15 26.05 -5.1 26.1 -5.05 26.2 -5.0 26.25 -4.95 26.3 -4.9 26.4 -4.85 26.45 -4.8 26.5 -4.75 26.6 -4.65 26.65 -4.6 26.95 -4.25 27.25 -3.85 27.5 -3.5 27.75 -3.1 28.0 -2.75 28.2 -2.3 28.45 -1.95 28.6 -1.5 28.8 -1.1 29.0 -0.65 29.15 -0.25 29.3 0.2 29.45 0.6 29.6 1.05 29.75 1.45 29.85 1.95 30.3 3.4 30.75 5.15 30.75 5.15 30.75 5.25 30.8 5.3 30.8 5.35 30.8 5.4 30.85 5.4 L30.85 5.4" fill="#000000" fill-opacity="0.2" fill-rule="evenodd" stroke="none"/>
    <path d="M-10.95 -16.75 Q-11.2 -16.3 -11.4 -16.0 -11.65 -15.55 -11.9 -15.25 -12.15 -14.85 -12.35 -14.5 -12.6 -14.1 -12.9 -13.8 -13.15 -13.4 -13.4 -13.1 -13.7 -12.75 -14.0 -12.45 -14.3 -12.1 -14.65 -11.8 -15.0 -11.5 -15.35 -11.2 -15.2 -11.2 -15.1 -11.2 -14.95 -11.2 -14.85 -11.2 -14.75 -11.2 -14.6 -11.2 -14.5 -11.2 -14.4 -11.2 -14.3 -11.25 -14.2 -11.25 -14.1 -11.25 -13.95 -11.3 -13.9 -11.3 -13.75 -11.3 -13.7 -11.3 -13.55 -11.35 -13.3 -11.4 -13.05 -11.45 -12.8 -11.5 -12.6 -11.55 -12.35 -11.55 -12.1 -11.6 -11.85 -11.65 -11.6 -11.65 -11.35 -11.7 -11.1 -11.7 -10.85 -11.75 -10.6 -11.75 -10.35 -11.75 -10.1 -11.75 -9.85 -11.8 -9.6 -11.8 -9.3 -11.8 -9.0 -11.8 -8.7 -11.75 -8.4 -11.75 -8.15 -11.7 -7.85 -11.65 -7.55 -11.6 -7.25 -11.55 -6.95 -11.5 -6.7 -11.45 -6.4 -11.35 -6.1 -11.3 -5.8 -11.2 -5.55 -11.1 -5.25 -11.0 -4.95 -10.9 -3.45 -10.35 -0.95 -9.25 -0.85 -9.2 -0.8 -9.2 -0.75 -9.15 -0.7 -9.1 -0.6 -9.1 -0.55 -9.05 -0.45 -9.05 -0.4 -9.0 -0.35 -9.0 -0.25 -8.95 -0.2 -8.95 -0.1 -8.95 -0.05 -8.9 0.05 -8.9 0.1 -8.9 0.2 -8.9 0.25 -8.9 0.3 -8.9 0.35 -8.9 0.4 -8.95 0.45 -8.95 0.45 -8.95 0.5 -9.0 0.5 -9.0 0.5 -9.05 0.55 -9.1 0.55 -9.1 0.5 -9.15 0.5 -9.2 0.5 -9.25 0.5 -9.3 0.45 -9.35 0.4 -9.4 0.4 -9.5 0.35 -9.55 0.3 -9.6 0.25 -9.65 0.25 -9.75 0.2 -9.8 0.15 -9.85 0.1 -9.9 0.05 -9.95 0.0 -10.0 -0.05 -10.05 -0.1 -10.1 -0.1 -10.15 -0.15 -10.2 -0.2 -10.3 -0.45 -10.6 -0.75 -10.85 -1.0 -11.1 -1.3 -11.35 -1.6 -11.6 -1.9 -11.8 -2.2 -12.05 -2.5 -12.25 -2.8 -12.45 -3.15 -12.65 -3.45 -12.8 -3.8 -12.95 -4.15 -13.15 -4.5 -13.25 -4.85 -13.4 -5.25 -13.55 -5.65 -13.65 -7.85 -14.4 -8.05 -14.45 -8.3 -14.55 -8.5 -14.65 -8.7 -14.75 -8.9 -14.85 -9.1 -14.95 -9.3 -15.05 -9.45 -15.15 -9.65 -15.3 -9.8 -15.45 -10.0 -15.6 -10.15 -15.75 -10.3 -15.9 -10.45 -16.1 -10.6 -16.25 -10.75 -16.45 -10.75 -16.5 -10.95 -16.75 L-10.95 -16.75" fill="#000000" fill-opacity="0.2" fill-rule="evenodd" stroke="none"/>
    <path d="M31.0 6.0 Q31.05 5.95 31.05 5.9 31.1 5.9 31.1 5.85 31.1 5.85 31.05 5.8 31.05 5.8 31.0 5.75 30.95 5.75 30.9 5.75 30.9 5.8 30.9 5.85 30.9 5.9 30.9 5.9 30.95 5.95 31.0 6.0 L31.0 6.0" fill="#cfcfcf" fill-rule="evenodd" stroke="none"/>
    <path d="M-14.95 -30.65 Q-14.85 -30.8 -14.7 -30.95 -14.6 -31.1 -14.45 -31.25 -14.35 -31.4 -14.2 -31.55 -14.1 -31.7 -13.95 -31.85 -13.8 -32.0 -13.65 -32.15 -13.5 -32.25 -13.35 -32.4 -13.2 -32.55 -13.05 -32.65 -12.9 -32.8 -12.75 -32.95 -12.95 -32.95 -13.15 -32.9 -13.3 -32.85 -13.5 -32.8 -13.65 -32.7 -13.85 -32.6 -14.0 -32.45 -14.15 -32.3 -14.3 -32.15 -14.4 -31.95 -14.55 -31.8 -14.65 -31.55 -14.75 -31.35 -14.8 -31.15 -14.9 -30.9 -14.95 -30.65 L-14.95 -30.65" fill="#050404" fill-rule="evenodd" stroke="none"/>
    <path d="M26.15 -10.05 Q26.1 -10.05 26.05 -10.1 26.0 -10.1 26.0 -10.15 25.95 -10.2 25.9 -10.25 25.9 -10.25 25.85 -10.3 25.8 -10.35 25.8 -10.4 25.55 -10.7 25.3 -11.05 25.05 -11.35 24.8 -11.7 24.55 -12.0 24.35 -12.35 24.1 -12.65 23.9 -13.0 23.65 -13.35 23.45 -13.7 23.25 -14.05 23.05 -14.4 22.85 -14.75 22.65 -15.1 22.45 -15.45 22.25 -15.85 22.1 -16.1 22.0 -16.35 21.9 -16.65 21.8 -16.9 21.7 -17.15 21.65 -17.45 21.55 -17.7 21.5 -18.0 21.4 -18.25 21.35 -18.55 21.3 -18.8 21.25 -19.1 21.2 -19.4 21.2 -19.65 21.15 -19.95 21.1 -20.25 21.1 -20.5 21.05 -20.75 21.05 -20.95 21.05 -21.2 21.0 -21.45 21.0 -21.7 21.0 -21.95 21.0 -22.15 21.0 -22.4 21.0 -22.65 21.05 -22.9 21.05 -23.15 21.05 -23.4 21.1 -23.6 21.1 -23.85 21.1 -24.1 21.1 -24.2 21.1 -24.3 21.1 -24.4 21.1 -24.5 21.1 -24.55 21.05 -24.65 21.05 -24.7 21.0 -24.8 20.95 -24.85 20.9 -24.9 20.85 -24.95 20.75 -25.0 20.7 -25.05 20.65 -25.05 20.55 -25.1 20.45 -25.1 20.35 -25.1 20.3 -25.1 20.2 -25.1 20.15 -25.1 20.05 -25.1 20.0 -25.05 19.95 -25.05 19.9 -25.0 19.8 -24.95 19.75 -24.9 19.7 -24.85 19.65 -24.8 19.65 -24.75 19.6 -24.65 19.55 -24.6 19.55 -24.5 19.45 -24.25 19.4 -23.35 19.35 -22.7 19.35 -22.1 19.35 -21.5 19.4 -20.9 19.45 -20.25 19.5 -19.65 19.55 -19.05 19.7 -18.45 19.8 -17.85 19.95 -17.3 20.1 -16.7 20.35 -16.15 20.55 -15.55 20.8 -15.0 21.05 -14.45 21.4 -13.9 21.65 -13.45 21.95 -13.0 22.2 -12.55 22.5 -12.15 22.75 -11.7 23.05 -11.3 23.35 -10.85 23.65 -10.45 23.95 -10.05 24.25 -9.65 24.6 -9.25 24.9 -8.85 25.25 -8.45 25.6 -8.05 25.95 -7.7 26.3 -7.3 26.35 -7.25 26.4 -7.2 26.45 -7.15 26.5 -7.1 26.55 -7.05 26.65 -7.0 26.7 -6.95 26.75 -6.9 26.8 -6.85 26.85 -6.8 26.9 -6.8 26.95 -6.75 27.05 -6.7 27.1 -6.65 27.15 -6.6 27.2 -6.6 27.3 -6.55 27.4 -6.5 27.5 -6.45 27.6 -6.4 27.65 -6.35 27.75 -6.35 27.8 -6.35 27.9 -6.35 27.95 -6.35 28.05 -6.4 28.1 -6.4 28.2 -6.45 28.25 -6.5 28.35 -6.55 28.4 -6.6 28.55 -6.7 28.6 -6.85 28.6 -6.95 28.65 -7.05 28.65 -7.1 28.65 -7.2 28.65 -7.3 28.65 -7.35 28.65 -7.45 28.6 -7.5 28.55 -7.6 28.55 -7.65 28.45 -7.7 28.4 -7.8 28.3 -7.85 28.25 -7.9 28.1 -8.0 28.0 -8.05 27.9 -8.15 27.8 -8.2 27.7 -8.3 27.6 -8.35 27.55 -8.45 27.45 -8.55 27.35 -8.65 27.3 -8.7 27.2 -8.8 27.15 -8.9 27.05 -9.0 27.0 -9.05 26.9 -9.2 26.8 -9.3 26.7 -9.4 26.65 -9.45 26.6 -9.45 26.55 -9.5 26.55 -9.5 26.5 -9.55 26.45 -9.6 26.4 -9.65 26.4 -9.65 26.35 -9.7 26.3 -9.75 26.3 -9.8 26.25 -9.85 26.25 -9.9 26.2 -9.95 26.15 -10.0 26.15 -10.05 L26.15 -10.05 26.15 -10.05" fill="#050404" fill-rule="evenodd" stroke="none"/>
  </g>
</svg>
