<?xml version="1.0" encoding="UTF-8" standalone="no"?>
<svg xmlns:xlink="http://www.w3.org/1999/xlink" height="47.55px" width="50.5px" xmlns="http://www.w3.org/2000/svg">
  <g transform="matrix(1.0, 0.0, 0.0, 1.0, 25.25, 23.8)">
    <path d="M-8.9 -21.85 Q-9.25 -21.7 -9.6 -21.6 -10.0 -21.45 -10.35 -21.25 -10.75 -21.05 -11.15 -20.85 -11.6 -20.6 -12.0 -20.35 -12.45 -20.1 -12.85 -19.8 -13.3 -19.5 -13.7 -19.15 -14.15 -18.8 -14.6 -18.4 -15.05 -18.0 -15.45 -17.55 -15.8 -17.15 -16.0 -16.95 -16.3 -16.55 -16.6 -16.2 -16.95 -15.75 -17.25 -15.35 -17.6 -14.85 -17.85 -14.35 -18.2 -13.8 -18.45 -13.2 -18.7 -12.6 -18.85 -12.0 -19.05 -11.3 -19.1 -10.65 -19.15 -9.9 -19.1 -9.2 -19.1 -9.0 -19.05 -8.8 -19.05 -8.6 -19.0 -8.35 -18.95 -8.1 -18.9 -7.85 -18.8 -7.6 -18.75 -7.3 -18.65 -7.0 -18.55 -6.75 -18.4 -6.45 -18.25 -6.15 -18.1 -5.8 -17.9 -5.5 -17.75 -5.2 -17.5 -4.9 -17.25 -4.6 -17.0 -4.35 -16.75 -4.05 -16.5 -3.85 -16.25 -3.6 -15.95 -3.4 -15.7 -3.2 -15.4 -3.05 -15.15 -2.85 -14.85 -2.7 -14.6 -2.55 -14.3 -2.45 -14.05 -2.3 -13.75 -2.2 -13.5 -2.1 -13.2 -2.0 -12.45 -1.75 -11.7 -1.5 -10.95 -1.3 -10.2 -1.1 -9.45 -0.95 -8.65 -0.8 -7.9 -0.7 -7.1 -0.6 -6.3 -0.5 -5.45 -0.45 -4.65 -0.4 -3.75 -0.35 -2.9 -0.35 -1.95 -0.3 -1.05 -0.3 -0.05 -0.3 1.4 -0.3 2.75 -0.35 4.0 -0.4 5.15 -0.45 6.2 -0.5 7.2 -0.6 8.1 -0.65 8.9 -0.75 9.6 -0.85 10.3 -0.95 10.85 -1.0 11.4 -1.1 11.9 -1.2 12.35 -1.3 12.7 -1.35 13.05 -1.45 13.9 -1.65 14.65 -1.85 15.35 -2.1 16.0 -2.3 16.6 -2.55 17.15 -2.8 17.7 -3.05 18.15 -3.3 18.6 -3.55 19.0 -3.85 19.35 -4.1 19.7 -4.45 20.0 -4.75 20.25 -5.05 20.5 -5.4 20.7 -5.75 20.85 -5.95 20.95 -6.2 21.05 -6.45 21.15 -6.65 21.25 -6.9 21.35 -7.1 21.4 -7.3 21.45 -7.55 21.5 -7.75 21.55 -7.95 21.6 -8.15 21.65 -8.35 21.65 -8.55 21.7 -8.7 21.7 -8.9 21.7 -9.05 21.75 -9.2 21.75 -9.35 21.8 -9.5 21.85 -9.65 21.85 -9.8 21.9 -9.95 21.9 -10.15 21.95 -10.35 21.95 -10.55 21.95 -10.75 21.95 -10.95 21.95 -11.15 21.95 -11.35 21.95 -11.6 21.9 -11.8 21.85 -12.05 21.8 -12.3 21.75 -12.5 21.7 -12.8 21.6 -13.05 21.55 -13.3 21.4 -13.6 21.3 -13.9 21.15 -14.15 20.95 -14.5 20.75 -14.8 20.5 -15.15 20.25 -15.5 19.95 -15.85 19.65 -16.25 19.3 -16.6 18.9 -17.0 18.25 -17.6 17.55 -18.2 16.9 -18.75 16.2 -19.2 15.6 -19.65 14.9 -20.05 14.3 -20.45 13.7 -20.75 13.15 -21.05 12.6 -21.3 12.1 -21.5 11.65 -21.7 11.3 -21.85 10.95 -22.0 10.7 -22.05 10.45 -22.15 8.95 -22.65 7.4 -22.95 5.95 -23.25 4.4 -23.4 3.0 -23.5 1.55 -23.5 0.25 -23.5 -1.15 -23.4 -2.35 -23.25 -3.6 -23.1 -4.65 -22.9 -5.75 -22.65 -6.65 -22.5 -7.55 -22.25 -8.25 -22.05 -8.9 -21.85 L-8.9 -21.85" fill="#2ec274" fill-rule="evenodd" stroke="none"/>
    <path d="M-17.65 12.65 Q-15.2 13.7 -10.3 15.75 -9.65 16.05 -9.0 16.3 -8.4 16.55 -7.8 16.75 -7.2 16.95 -6.65 17.15 -6.1 17.3 -5.55 17.45 -5.0 17.6 -4.5 17.7 -4.0 17.8 -3.55 17.9 -3.1 17.95 -2.65 18.05 -2.25 18.1 -1.85 18.15 -0.55 18.3 0.7 18.35 1.95 18.4 3.15 18.3 4.25 18.25 5.4 18.1 6.45 17.95 7.5 17.75 8.45 17.55 9.4 17.3 10.25 17.05 11.15 16.75 11.85 16.55 12.65 16.25 13.2 16.05 14.0 15.75 14.55 15.55 15.1 15.3 15.6 15.1 16.15 14.9 16.6 14.65 17.1 14.45 17.55 14.25 18.0 14.0 18.4 13.8 18.85 13.6 19.2 13.35 19.6 13.15 19.95 12.95 20.25 12.75 20.55 12.6 20.9 12.4 20.9 12.55 20.9 12.65 20.9 12.8 20.9 12.95 20.9 13.1 20.85 13.25 20.85 13.45 20.85 13.6 20.8 13.8 20.8 13.95 20.75 14.15 20.7 14.35 20.65 14.55 20.6 14.75 20.55 14.95 20.5 15.15 20.45 15.3 20.4 15.4 20.3 15.65 20.2 15.85 20.1 16.1 19.95 16.4 19.75 16.75 19.5 17.05 19.25 17.4 18.95 17.8 18.6 18.2 18.15 18.55 17.75 19.0 17.2 19.4 16.65 19.8 16.05 20.2 15.15 20.75 14.2 21.25 13.25 21.65 12.25 22.0 11.3 22.3 10.3 22.55 9.35 22.75 8.35 22.9 7.45 23.05 6.45 23.1 5.6 23.2 4.6 23.2 3.8 23.25 2.9 23.2 2.25 23.2 1.25 23.2 1.0 23.2 0.7 23.2 0.25 23.15 -0.2 23.15 -0.75 23.1 -1.4 23.05 -2.1 22.95 -2.85 22.85 -3.7 22.75 -4.55 22.6 -5.5 22.45 -6.45 22.25 -7.45 22.0 -8.5 21.7 -9.6 21.4 -10.7 21.05 -11.65 20.75 -12.4 20.45 -13.2 20.15 -13.85 19.8 -14.45 19.55 -14.95 19.25 -15.45 18.95 -15.85 18.65 -16.2 18.35 -16.5 18.1 -16.75 17.8 -17.0 17.55 -17.2 17.25 -17.35 17.0 -17.45 16.75 -17.6 16.45 -17.7 16.2 -17.75 15.9 -17.85 15.65 -17.85 15.4 -17.9 15.1 -17.9 14.85 -17.95 14.6 -17.95 14.35 -17.9 14.1 -17.9 13.85 -17.85 13.65 -17.85 13.4 -17.8 13.2 -17.75 13.0 -17.7 12.8 -17.65 12.65 L-17.65 12.65" fill="#2ec274" fill-rule="evenodd" stroke="none"/>
  </g>
</svg>
