<?xml version="1.0" encoding="UTF-8" standalone="no"?>
<svg xmlns:xlink="http://www.w3.org/1999/xlink" height="73.05px" width="68.2px" xmlns="http://www.w3.org/2000/svg">
  <g transform="matrix(1.0, 0.0, 0.0, 1.0, 34.1, 36.55)">
    <path d="M1.5 -27.9 Q-9.4 -18.65 -31.1 -0.2 -31.15 1.5 -31.25 5.0 -20.4 -4.15 1.0 -22.2 9.9 -15.65 27.55 -2.6 27.2 0.85 26.6 7.65 17.35 1.95 -1.1 -9.5 -11.25 -1.6 -31.45 14.2 L-31.7 18.55 Q-22.75 22.35 -4.9 29.95 -4.25 31.5 -2.95 34.55 7.4 27.7 28.15 14.05 28.75 7.55 30.0 -5.5 20.5 -12.95 1.5 -27.9 L1.5 -27.9 M-1.65 24.25 Q-1.65 24.35 -1.7 24.6 -1.7 24.65 -1.75 24.65 -1.75 24.7 -1.75 24.7 -1.8 24.75 -1.8 24.8 -1.8 24.8 -1.85 24.85 -1.85 24.85 -1.9 24.9 -1.9 24.9 -1.95 24.9 -1.95 24.95 -2.0 24.95 -2.0 24.95 -2.05 25.0 -2.05 25.05 -2.1 25.05 -2.1 25.1 -2.1 25.15 -2.15 25.15 -2.15 25.2 -2.2 25.25 -2.2 25.3 -2.25 25.3 -2.25 25.35 -2.3 25.4 -2.3 25.4 -2.35 25.45 -2.35 25.5 -2.4 25.5 -2.4 25.55 -2.45 25.65 -2.55 25.7 -2.65 25.8 -2.75 25.85 -2.8 25.95 -2.9 26.0 -3.0 26.1 -3.1 26.15 -3.2 26.2 -3.35 26.25 -3.45 26.3 -3.55 26.35 -3.65 26.4 -3.75 26.45 -3.85 26.45 -4.0 26.5 -4.05 26.5 -4.15 26.55 -4.2 26.55 -4.3 26.55 -4.35 26.55 -4.45 26.55 -4.5 26.6 -4.6 26.6 -4.65 26.6 -4.75 26.6 -4.8 26.55 -4.9 26.55 -4.95 26.55 -5.05 26.55 -5.1 26.55 -5.2 26.55 -5.6 26.45 -6.2 26.2 -6.9 25.9 -8.1 25.25 -9.45 24.5 -10.05 24.25 -10.45 24.05 -11.05 23.8 -12.05 23.35 -12.05 23.35 -12.65 23.1 -14.0 22.45 -14.6 22.15 -15.0 22.0 -15.1 21.95 -15.3 21.85 -15.3 21.85 -15.3 21.85 -15.3 21.85 -15.35 21.85 -15.4 21.85 -15.45 21.8 -15.5 21.8 -15.5 21.75 -15.55 21.75 -15.6 21.75 -15.6 21.75 -15.65 21.7 -15.65 21.7 -15.7 21.7 -15.75 21.7 -15.75 21.65 -15.8 21.65 -15.8 21.65 -15.85 21.65 -15.9 21.65 -15.9 21.6 -15.95 21.6 -16.3 21.45 -17.0 21.2 -17.7 21.0 -18.05 20.85 -18.6 20.65 -19.1 20.45 -19.2 20.4 -19.2 20.4 -19.3 20.4 -19.35 20.4 -19.4 20.35 -19.45 20.35 -19.5 20.3 -19.55 20.3 -19.65 20.25 -19.7 20.25 -19.75 20.2 -19.8 20.2 -19.85 20.15 -19.9 20.15 -19.95 20.1 -20.0 20.05 -20.05 20.0 -20.1 19.95 -20.15 19.95 -20.2 19.9 -20.25 19.85 -20.3 19.8 -20.35 19.75 -20.4 19.7 -20.45 19.65 -20.45 19.6 -20.5 19.55 -20.55 19.5 -20.55 19.45 -20.55 19.35 -20.6 19.3 -20.6 19.25 -20.6 19.15 -20.6 19.1 -20.65 19.0 -20.6 18.95 -20.6 18.85 -20.6 18.8 -20.6 18.7 -20.55 18.65 -20.55 18.55 -20.5 18.5 -20.45 18.4 -20.4 18.35 -20.35 18.3 -20.3 18.25 -20.25 18.15 -20.2 18.1 -20.1 18.05 -20.0 17.95 -19.95 17.9 -19.85 17.85 -19.75 17.8 -19.6 17.75 -19.5 17.7 -19.4 17.7 -19.3 17.65 -19.2 17.6 -19.1 17.6 -18.95 17.55 -18.85 17.55 -18.75 17.55 -18.65 17.5 -18.5 17.5 -18.5 17.5 -18.45 17.45 -18.4 17.4 -18.35 17.35 -18.3 17.3 -18.25 17.25 -18.2 17.2 -18.15 17.2 -18.1 17.15 -18.05 17.1 -17.95 17.05 -17.9 17.0 -17.85 16.95 -17.8 16.95 -17.7 16.9 -17.65 16.9 -17.6 16.85 -17.5 16.85 -17.45 16.85 -17.4 16.8 -17.3 16.8 -17.25 16.8 -17.2 16.75 -17.15 16.75 -17.05 16.75 -17.0 16.75 -16.95 16.75 -16.9 16.75 -16.8 16.75 -16.75 16.75 -16.7 16.75 -16.6 16.75 -16.55 16.75 -16.5 16.75 -16.35 16.75 -16.2 16.8 -16.1 16.8 -15.95 16.85 -15.8 16.9 -15.7 16.95 -15.55 17.0 -15.4 17.0 -15.3 17.05 -15.15 17.1 -15.05 17.15 -14.9 17.25 -14.8 17.3 -14.65 17.35 -14.7 17.3 -14.4 17.45 -14.3 17.5 -14.15 17.55 -14.15 17.55 -14.1 17.6 -14.1 17.6 -14.05 17.6 -13.9 17.65 -13.6 17.8 -13.2 17.95 -12.65 18.2 -12.4 18.3 -12.15 18.4 -11.9 18.5 -11.7 18.6 -11.45 18.7 -11.2 18.8 -10.95 18.9 -10.75 19.05 -10.5 19.15 -10.25 19.25 -10.05 19.4 -9.8 19.5 -9.6 19.65 -9.35 19.75 -9.1 19.9 -8.9 20.05 -7.35 20.95 -7.15 21.05 -6.95 21.15 -6.6 21.35 -6.15 21.6 -6.05 21.65 -6.0 21.65 -6.0 21.65 -5.95 21.7 -5.9 21.7 -5.9 21.7 -5.85 21.7 -5.8 21.7 -5.8 21.75 -5.75 21.75 -5.7 21.75 -5.7 21.75 -5.65 21.8 -5.6 21.8 -5.6 21.8 -5.55 21.8 -5.55 21.8 -5.5 21.85 -5.4 21.85 -5.35 21.9 -5.3 21.9 -5.2 21.95 -5.15 21.95 -5.1 22.0 -5.0 22.05 -4.95 22.05 -4.9 22.1 -4.85 22.1 -4.75 22.15 -4.7 22.15 -4.65 22.2 -4.55 22.25 -4.5 22.25 -2.8 23.15 -2.65 23.2 -2.6 23.2 -2.55 23.25 -2.55 23.25 -2.55 23.25 -2.55 23.25 -2.4 23.3 -2.35 23.3 -2.35 23.35 -2.3 23.35 -2.25 23.35 -2.2 23.35 -2.2 23.4 -2.15 23.4 -2.1 23.4 -2.1 23.45 -2.05 23.45 -2.0 23.45 -2.0 23.5 -1.95 23.5 -1.95 23.55 -1.9 23.55 -1.9 23.6 -1.85 23.65 -1.85 23.65 -1.8 23.7 -1.75 23.75 -1.75 23.75 -1.7 23.8 -1.7 23.85 -1.7 23.9 -1.65 23.9 -1.65 23.95 -1.65 24.0 -1.65 24.05 -1.65 24.1 -1.65 24.15 -1.65 24.2 -1.65 24.25 L-1.65 24.25" fill="#000000" fill-rule="evenodd" stroke="none"/>
  </g>
</svg>
