<?xml version="1.0" encoding="UTF-8" standalone="no"?>
<svg xmlns:xlink="http://www.w3.org/1999/xlink" height="52.9px" width="29.6px" xmlns="http://www.w3.org/2000/svg">
  <g transform="matrix(1.0, 0.0, 0.0, 1.0, 14.8, 26.45)">
    <path d="M-9.05 7.65 Q-9.05 7.55 -9.05 7.55 -9.1 7.5 -9.1 7.45 -9.1 7.4 -9.1 7.35 -9.1 7.35 -9.15 7.3 -9.15 7.25 -9.15 7.2 -9.15 7.15 -9.2 7.15 -9.2 7.1 -9.2 7.05 -9.25 7.0 -9.25 7.0 -11.2 4.25 -11.6 3.8 -11.7 3.7 -11.75 3.65 -11.85 3.55 -11.9 3.5 -12.0 3.4 -12.05 3.3 -12.15 3.25 -12.2 3.15 -12.3 3.1 -12.4 3.0 -12.45 2.95 -12.55 2.9 -12.65 2.8 -12.7 2.75 -12.8 2.65 -12.9 2.6 -12.95 2.55 -13.0 2.5 -13.1 2.45 -13.15 2.4 -13.2 2.35 -13.25 2.3 -13.3 2.25 -13.35 2.2 -13.4 2.15 -13.45 2.1 -13.5 2.0 -13.55 1.95 -13.6 1.9 -13.65 1.85 -13.65 1.75 -13.7 1.7 -13.75 1.6 -13.8 1.45 -13.85 1.35 -13.9 1.25 -13.9 1.1 -13.9 1.0 -13.9 0.9 -13.9 0.75 -13.85 0.65 -13.85 0.55 -13.8 0.45 -13.75 0.3 -13.7 0.2 -13.6 0.1 -13.55 0.0 -13.45 -0.1 -13.4 -0.15 -13.3 -0.2 -13.25 -0.25 -13.15 -0.35 -13.1 -0.4 -13.0 -0.45 -12.9 -0.5 -12.8 -0.55 -12.7 -0.6 -12.6 -0.6 -12.5 -0.65 -12.35 -0.7 -12.25 -0.75 -12.1 -0.8 -11.95 -0.85 -11.8 -0.9 -12.1 -1.9 -13.1 -3.95 -14.25 -6.25 -14.65 -6.85 -14.7 -6.95 -14.75 -7.05 -14.8 -7.15 -14.8 -7.25 -14.8 -7.35 -14.8 -7.45 -14.8 -7.55 -14.75 -7.65 -14.75 -7.75 -14.7 -7.85 -14.65 -7.95 -14.55 -8.05 -14.5 -8.15 -14.4 -8.2 -14.3 -8.3 -14.2 -8.35 -14.1 -8.4 -14.0 -8.45 -13.9 -8.55 -13.8 -8.6 -13.75 -8.6 -13.6 -8.65 -13.55 -8.7 -13.4 -8.75 -13.3 -8.8 -13.2 -8.8 -13.1 -8.85 -13.0 -8.85 -12.9 -8.9 -12.8 -8.9 -12.7 -8.95 -12.55 -8.95 -10.7 -9.3 -9.5 -9.65 -9.45 -9.65 -9.4 -9.7 -9.35 -9.7 -9.3 -9.75 -9.25 -9.75 -9.2 -9.8 -9.2 -9.8 -9.15 -9.85 -9.15 -9.9 -9.15 -9.95 -9.15 -9.95 -9.1 -10.0 -9.1 -10.05 -9.1 -10.1 -9.1 -10.15 -9.1 -10.2 -9.3 -13.0 -9.65 -19.0 -9.65 -19.15 -9.65 -19.25 -9.65 -19.4 -9.65 -19.5 -9.6 -19.6 -9.6 -19.7 -9.55 -19.75 -9.5 -19.85 -9.4 -19.9 -9.35 -19.95 -9.25 -20.0 -9.15 -20.0 -9.05 -20.05 -8.95 -20.05 -8.8 -20.1 -8.65 -20.1 0.65 -20.55 5.3 -20.8 5.4 -20.8 5.45 -20.8 5.55 -20.8 5.6 -20.8 5.7 -20.8 5.75 -20.8 5.8 -20.8 5.9 -20.75 5.95 -20.75 6.05 -20.7 6.1 -20.7 6.15 -20.65 6.25 -20.65 6.3 -20.6 6.4 -20.6 6.45 -20.55 6.6 -20.45 6.75 -20.35 6.9 -20.3 7.05 -20.2 7.15 -20.15 7.3 -20.1 6.8 -20.35 7.55 -20.0 7.65 -19.95 7.75 -19.9 7.85 -19.8 7.95 -19.75 8.1 -19.7 8.2 -19.6 8.35 -19.5 8.45 -19.4 8.5 -19.4 8.5 -19.35 8.55 -19.35 8.6 -19.3 8.65 -19.25 8.7 -19.2 8.75 -19.2 8.8 -19.15 8.85 -19.1 8.9 -19.05 9.0 -16.05 9.15 -12.75 9.25 -10.15 9.25 -10.1 9.25 -10.1 9.25 -10.05 9.25 -10.05 9.25 -10.0 9.25 -10.0 9.25 -9.95 9.25 -9.9 9.3 -9.85 9.3 -9.8 9.35 -9.8 9.35 -9.75 9.4 -9.75 9.45 -9.7 9.5 -9.65 9.7 -9.5 9.85 -9.4 10.05 -9.3 10.25 -9.15 10.45 -9.05 10.6 -8.95 10.8 -8.8 11.0 -8.7 11.2 -8.6 11.4 -8.5 11.6 -8.4 11.8 -8.3 12.0 -8.2 12.2 -8.1 12.4 -8.0 12.6 -7.9 12.65 -7.9 12.7 -7.85 12.8 -7.85 12.85 -7.8 12.9 -7.8 12.95 -7.75 13.0 -7.7 13.05 -7.7 13.1 -7.65 13.15 -7.65 13.25 -7.6 13.3 -7.55 13.35 -7.5 13.4 -7.5 13.45 -7.45 13.5 -7.4 13.65 -7.3 13.75 -7.15 13.85 -7.0 13.95 -6.85 14.0 -6.75 14.05 -6.6 14.1 -6.45 14.15 -6.3 14.15 -6.15 14.15 -5.95 14.15 -5.8 14.15 -5.65 14.15 -5.5 14.1 -5.3 14.1 -5.15 14.05 -4.95 13.95 -4.6 13.75 -3.65 13.6 -2.8 13.4 -2.35 13.4 -2.3 13.4 -2.3 13.4 -2.25 13.4 -2.2 13.4 -2.2 13.4 -2.15 13.4 -2.15 13.45 -2.1 13.45 -2.1 13.5 -2.1 13.5 -2.05 13.5 -2.05 13.55 -2.05 13.55 -2.0 13.6 -2.0 13.6 -2.0 13.7 -1.95 13.75 -1.85 13.85 -1.8 13.9 -1.75 14.0 -1.65 14.05 -1.6 14.15 -1.55 14.2 -1.45 14.3 -1.4 14.35 -1.3 14.4 -1.25 14.45 -1.15 14.55 -1.1 14.6 -1.0 14.65 -0.9 14.7 -0.85 14.8 -0.65 14.9 -0.45 15.0 -0.25 15.05 0.0 15.1 0.2 15.1 0.45 15.15 0.65 15.1 0.9 15.1 1.1 15.05 1.3 15.0 1.55 14.9 1.75 14.8 1.95 14.7 2.1 14.55 2.3 14.4 2.45 14.2 2.65 13.3 4.15 13.15 4.4 13.0 4.7 12.85 4.95 12.7 5.2 12.55 5.5 12.35 5.75 12.2 6.0 12.0 6.25 11.85 6.5 11.7 6.75 11.5 7.0 11.35 7.25 11.15 7.5 11.0 7.75 10.8 8.0 10.6 8.25 10.55 8.35 10.5 8.4 10.45 8.5 10.4 8.55 10.4 8.6 10.35 8.65 10.35 8.75 10.35 8.8 10.35 8.85 10.35 8.9 10.4 8.95 10.4 9.0 10.45 9.05 10.5 9.15 10.55 9.2 10.6 9.3 10.6 9.3 10.65 9.35 10.65 9.4 10.7 9.4 10.7 9.45 10.7 9.45 10.75 9.5 10.75 9.5 10.75 9.55 10.8 9.55 10.8 9.6 10.8 9.65 10.8 9.65 10.8 9.7 10.8 9.75 10.85 9.75 10.85 9.8 10.85 9.85 10.85 9.95 10.85 10.0 10.85 10.05 10.85 10.1 10.9 10.15 10.9 10.2 10.9 10.3 10.85 10.35 10.85 10.4 10.85 10.45 10.85 10.5 10.85 10.55 10.85 10.6 10.8 10.65 10.75 10.85 10.7 11.1 10.65 11.35 10.65 11.55 10.6 11.8 10.6 12.0 10.6 12.25 10.6 12.45 10.6 12.7 10.6 12.95 10.6 13.15 10.6 13.4 10.65 13.6 10.65 13.85 10.65 14.0 10.7 14.3 10.8 16.45 10.8 16.6 10.8 16.9 10.8 17.25 10.8 17.55 10.8 17.85 10.8 18.15 10.85 18.45 10.85 18.75 10.9 19.1 10.9 19.35 10.95 19.7 10.9 19.35 11.05 20.3 11.1 20.7 11.1 20.95 11.15 21.25 11.15 21.55 11.15 21.65 11.15 21.75 11.2 21.9 11.2 22.0 11.2 22.1 11.2 22.2 11.15 22.35 11.15 22.45 11.15 22.55 11.15 22.65 11.1 22.75 11.1 22.9 11.05 23.0 11.05 23.1 11.0 23.2 11.0 23.3 10.9 23.55 10.8 23.75 10.7 23.95 10.6 24.1 10.5 24.25 10.35 24.4 10.25 24.5 10.1 24.6 9.95 24.7 9.8 24.75 9.65 24.85 9.45 24.85 9.25 24.9 9.05 24.9 8.85 24.95 8.6 24.9 7.8 24.85 6.55 24.95 4.8 25.05 4.5 25.05 4.2 25.05 2.75 25.1 2.4 25.15 2.65 25.1 2.6 25.1 2.6 25.1 2.55 25.15 2.5 25.15 2.45 25.15 2.45 25.2 2.4 25.2 2.4 25.25 2.35 25.35 2.25 25.4 2.15 25.5 2.1 25.55 2.0 25.6 1.9 25.65 1.8 25.7 1.7 25.75 1.6 25.75 1.5 25.8 1.4 25.8 1.3 25.8 1.2 25.85 1.1 25.85 1.0 25.85 0.9 25.85 0.8 25.85 0.7 25.85 0.6 25.85 0.5 25.8 0.4 25.8 0.3 25.8 0.2 25.8 0.15 25.75 0.05 25.75 -0.05 25.7 -0.15 25.7 -0.25 25.65 -0.35 25.6 -0.4 25.55 -0.5 25.5 -0.6 25.5 -0.65 25.45 -0.7 25.45 -0.75 25.4 -0.8 25.4 -0.85 25.35 -0.9 25.35 -1.0 25.35 -1.05 25.3 -1.1 25.3 -1.15 25.3 -1.2 25.3 -1.25 25.3 -1.3 25.3 -1.4 25.3 -1.45 25.3 -1.5 25.3 -5.7 25.45 -6.15 25.4 -6.5 25.4 -6.85 25.35 -7.2 25.3 -7.5 25.2 -7.8 25.15 -8.1 25.05 -8.4 24.9 -8.7 24.75 -9.0 24.6 -9.2 24.4 -9.5 24.2 -9.7 23.95 -9.95 23.7 -10.1 23.4 -10.3 23.1 -10.45 22.75 -10.55 22.6 -10.6 22.45 -10.65 22.3 -10.65 22.1 -10.7 21.95 -10.7 21.8 -10.75 21.65 -10.7 21.45 -10.7 21.3 -10.7 21.15 -10.7 21.0 -10.65 20.8 -10.65 20.65 -10.6 20.5 -10.55 20.35 -10.55 20.15 -10.5 20.0 -10.05 18.55 -9.75 17.55 -9.65 16.9 -9.6 16.6 -9.55 16.35 -9.5 16.05 -9.45 15.75 -9.4 15.45 -9.4 15.2 -9.35 14.9 -9.35 14.6 -9.35 14.3 -9.35 14.05 -9.35 13.75 -9.35 13.45 -9.35 13.15 -9.4 12.85 -9.45 12.55 -9.5 12.25 -9.5 12.1 -9.5 12.2 -9.5 12.15 -9.5 12.1 -9.5 12.05 -9.55 12.05 -9.55 12.0 -9.55 11.95 -9.55 11.9 -9.6 11.9 -9.6 11.85 -9.6 11.8 -9.65 11.8 -9.65 11.75 -9.7 11.7 -9.75 11.7 -9.75 11.7 -9.8 11.65 -9.8 11.6 -9.85 11.6 -9.85 11.55 -9.85 11.55 -9.85 11.5 -9.9 11.45 -9.9 11.45 -9.9 11.4 -9.9 11.35 -9.9 11.35 -9.9 11.3 -9.95 11.25 -9.95 11.2 -9.95 11.2 -10.0 11.05 -10.0 10.9 -10.05 10.75 -10.05 10.55 -10.05 10.4 -10.1 10.25 -10.1 10.1 -10.1 9.95 -10.1 9.75 -10.1 9.6 -10.1 9.45 -10.1 9.3 -10.1 9.15 -10.1 9.0 -10.1 8.8 -10.1 8.65 -10.1 8.5 -10.05 8.4 -10.05 8.3 -10.0 8.2 -9.95 8.1 -9.9 8.05 -9.85 7.95 -9.8 7.9 -9.75 7.85 -9.65 7.8 -9.6 7.75 -9.5 7.7 -9.4 7.7 -9.3 7.65 -9.15 7.65 -9.05 7.65 L-9.05 7.65 M-0.75 0.45 Q-0.7 0.45 -0.65 0.45 -0.65 0.45 -0.65 0.4 -0.55 0.35 -0.45 0.35 -0.4 0.3 -0.3 0.3 -0.2 0.25 -0.1 0.25 -0.05 0.25 0.05 0.2 0.15 0.2 0.25 0.2 0.35 0.2 0.4 0.2 0.5 0.25 0.6 0.25 0.7 0.25 0.8 0.3 0.85 0.3 0.9 0.3 0.95 0.35 1.0 0.35 1.05 0.35 1.1 0.4 1.15 0.4 1.25 0.45 1.3 0.45 1.35 0.5 1.4 0.5 1.45 0.5 1.5 0.55 1.55 0.55 1.6 0.55 1.7 0.55 1.7 0.6 1.75 0.65 1.75 0.7 1.8 0.7 1.8 0.75 1.85 0.75 1.9 0.75 1.95 0.8 2.0 0.8 2.0 0.8 3.35 1.45 3.65 1.6 3.7 1.65 3.8 1.75 3.85 1.8 3.9 1.9 3.95 1.95 3.95 2.05 4.0 2.1 4.05 2.2 4.05 2.3 4.1 2.35 4.1 2.45 4.1 2.55 4.1 2.6 4.1 2.7 4.1 2.8 4.1 2.9 4.0 3.55 4.1 3.0 4.05 3.05 4.05 3.1 4.05 3.2 4.05 3.2 4.05 3.3 4.0 3.35 4.0 3.4 4.0 3.45 4.0 3.5 3.95 3.55 3.95 3.6 3.95 3.65 3.9 3.7 3.9 3.75 3.85 3.8 3.85 3.9 3.8 3.95 3.8 4.05 3.8 4.1 3.75 4.2 3.75 4.25 3.75 4.35 3.75 4.4 3.75 4.5 3.75 4.55 3.75 4.65 3.75 4.7 3.8 4.8 3.8 4.85 3.8 4.95 3.8 5.0 3.85 5.05 3.85 5.1 3.85 5.1 3.9 5.1 3.9 5.1 3.95 5.1 4.0 5.1 4.05 5.1 4.1 5.1 5.15 4.7 7.7 3.85 8.15 3.7 8.3 3.65 8.35 3.65 8.4 3.65 8.45 3.6 8.45 3.6 8.5 3.6 8.55 3.55 8.55 3.55 8.6 3.5 8.6 3.45 8.6 3.45 8.65 3.4 8.65 3.35 8.65 3.3 8.65 3.25 8.65 3.2 8.65 3.15 8.65 3.05 8.5 0.65 8.5 0.6 8.5 0.55 8.5 0.4 8.5 0.45 8.5 0.4 8.5 0.35 8.5 0.3 8.45 0.25 8.45 0.25 8.4 0.2 8.4 -0.15 8.4 -0.75 8.35 -1.7 7.95 -8.05 7.95 -8.1 7.95 -8.15 7.95 -8.2 7.9 -8.2 7.85 -8.9 7.8 -9.05 7.85 -9.05 7.9 -9.1 7.9 -9.15 7.9 -9.2 7.9 -9.2 7.9 -9.25 7.9 -9.35 7.9 -9.35 7.85 -10.0 7.65 -13.55 7.5 -16.15 7.4 -17.8 7.4 -17.85 7.4 -17.9 7.4 -17.95 7.35 -18.0 7.35 -18.05 7.3 -18.05 7.25 -18.05 7.2 -18.05 7.15 -18.1 7.1 -18.05 6.95 -18.05 6.5 -18.05 6.15 -18.0 5.9 -18.0 4.2 -17.9 0.6 -17.75 0.3 -17.7 -0.3 -17.65 -0.35 -17.7 -0.35 -17.7 -0.4 -17.7 -0.45 -17.7 -4.7 -17.5 -5.8 -17.45 -5.85 -17.45 -5.9 -17.45 -5.95 -17.4 -5.95 -17.4 -6.0 -17.35 -6.0 -17.35 -6.0 -17.3 -6.0 -17.25 -6.0 -17.25 -6.0 -17.15 -5.95 -16.65 -5.85 -15.0 -5.75 -13.0 -5.5 -8.6 -5.45 -8.3 -5.4 -7.7 -5.45 -7.55 -5.35 -6.3 -5.3 -4.85 -5.0 -0.45 -5.0 -0.4 -5.0 -0.4 -5.0 -0.35 -5.0 -0.3 -5.0 -0.3 -5.0 -0.25 -5.0 -0.2 -5.0 -0.15 -5.0 -0.1 -5.0 -0.1 -5.0 -0.05 -4.95 0.0 -4.95 0.0 -4.9 0.05 -4.9 0.05 -4.85 0.05 -4.8 0.05 -4.7 0.1 -4.65 0.1 -4.6 0.15 -4.55 0.15 -4.45 0.2 -4.4 0.25 -4.35 0.25 -4.3 0.3 -4.25 0.3 -4.15 0.35 -4.1 0.4 -4.05 0.4 -4.0 0.45 -3.95 0.45 -3.9 0.5 -3.8 0.55 -3.7 0.6 -3.6 0.7 -3.5 0.75 -3.4 0.8 -3.3 0.85 -3.25 0.9 -3.15 0.95 -3.05 0.95 -2.95 1.0 -2.85 1.05 -2.75 1.1 -2.65 1.15 -2.55 1.2 -2.45 1.2 -2.3 1.25 -2.25 1.3 -2.15 1.3 -2.1 1.3 -2.0 1.35 -1.95 1.35 -1.9 1.35 -1.8 1.35 -1.75 1.35 -1.7 1.3 -1.65 1.3 -1.55 1.25 -1.5 1.2 -1.45 1.15 -1.4 1.1 -1.35 1.05 -1.3 1.0 -1.25 0.95 -0.7 0.45 L-0.75 0.45 -0.75 0.45 M-12.7 -7.55 Q-12.45 -7.55 -12.2 -7.55 -11.95 -7.55 -11.7 -7.5 -11.45 -7.5 -11.2 -7.45 -10.95 -7.4 -10.7 -7.35 -10.5 -7.3 -10.25 -7.2 -10.0 -7.1 -9.8 -7.0 -9.55 -6.9 -9.35 -6.75 -9.1 -6.65 -8.9 -6.5 -9.0 -7.9 -9.0 -8.2 -9.0 -8.3 -9.0 -8.35 -9.0 -8.4 -9.05 -8.4 -9.05 -8.45 -9.1 -8.45 -9.15 -8.45 -9.2 -8.45 -9.25 -8.45 -9.35 -8.4 -10.25 -8.1 -12.2 -7.75 -12.25 -7.75 -12.25 -7.75 -12.3 -7.75 -12.35 -7.75 -12.35 -7.7 -12.4 -7.7 -12.45 -7.7 -12.45 -7.7 -12.5 -7.7 -12.55 -7.7 -12.55 -7.7 -12.6 -7.65 -12.6 -7.65 -12.65 -7.65 -12.65 -7.65 -12.7 -7.6 -12.75 -7.6 -12.8 -7.6 -12.8 -7.55 -12.75 -7.55 -12.75 -7.55 -12.7 -7.55 L-12.7 -7.55 M2.3 12.5 Q2.3 12.45 2.25 12.45 2.25 12.45 2.2 12.55 2.1 12.95 2.05 13.3 1.95 13.7 1.8 14.1 1.7 14.45 1.55 14.85 1.45 15.2 1.3 15.55 1.15 15.9 0.95 16.25 0.8 16.6 0.6 16.95 0.4 17.3 0.2 17.65 0.0 18.0 -0.2 18.3 -0.35 18.5 -0.45 18.65 -0.6 18.85 -0.7 19.05 -0.8 19.25 -0.9 19.45 -1.05 19.65 -1.15 19.85 -1.25 20.05 -1.3 20.25 -1.4 20.45 -1.45 20.65 -1.55 20.85 -1.6 21.05 -1.65 21.3 -1.7 21.5 -1.7 21.55 -1.7 21.6 -1.75 21.65 -1.75 21.65 -1.75 21.7 -1.75 21.75 -1.75 21.8 -1.75 21.85 -1.7 21.9 -1.7 21.9 -1.65 22.0 -1.6 22.05 -1.55 22.15 -1.5 22.25 -1.45 22.3 -1.4 22.4 -1.35 22.45 -1.25 22.55 -1.2 22.6 -1.15 22.65 -1.05 22.75 -1.0 22.8 -0.95 22.85 -0.85 22.9 -0.75 22.95 -0.7 23.0 -0.55 23.1 -0.4 23.15 -0.25 23.2 -0.1 23.25 0.1 23.3 0.25 23.35 0.4 23.4 0.55 23.4 0.7 23.45 0.85 23.5 1.05 23.5 1.2 23.5 1.35 23.5 1.55 23.5 1.7 23.5 1.85 23.5 2.35 23.5 3.3 23.35 3.3 23.4 3.25 23.45 3.25 23.5 3.25 23.55 3.2 23.55 3.2 23.6 3.2 23.65 3.2 23.7 3.2 23.7 3.25 23.7 3.25 23.7 3.25 23.7 6.95 23.55 8.95 23.6 9.0 23.6 9.1 23.6 9.15 23.6 9.2 23.55 9.25 23.55 9.3 23.5 9.35 23.5 9.4 23.45 9.45 23.4 9.45 23.35 9.5 23.3 9.55 23.25 9.55 23.2 9.6 23.15 9.6 23.1 9.65 23.05 9.65 22.95 9.7 22.9 9.7 22.8 9.75 22.7 9.75 22.6 9.75 22.55 9.75 22.45 9.8 22.35 9.8 22.25 9.8 22.2 9.8 22.1 9.8 22.0 9.8 21.9 9.8 21.85 9.8 21.75 9.8 21.65 9.5 19.85 9.3 14.1 9.3 13.95 9.3 13.85 9.3 13.75 9.25 13.7 9.25 13.6 9.25 13.55 9.2 13.5 9.2 13.5 9.15 13.45 9.1 13.45 9.05 13.4 8.95 13.4 8.9 13.4 8.8 13.4 8.75 13.4 8.6 13.4 8.55 13.4 8.5 13.4 8.45 13.4 8.45 13.4 8.35 13.4 8.3 13.35 8.25 13.35 8.15 13.35 8.1 13.35 8.05 13.35 7.95 13.4 7.9 13.4 7.85 13.45 7.8 13.45 7.75 13.5 7.75 13.55 7.7 13.6 7.65 13.65 7.6 13.75 7.6 13.8 7.55 13.9 7.25 14.3 7.2 14.35 7.2 14.35 7.15 14.4 7.1 14.4 7.1 14.45 7.05 14.45 7.0 14.45 7.0 14.45 6.95 14.5 6.9 14.5 6.85 14.5 6.85 14.5 6.8 14.5 6.75 14.45 6.7 14.45 6.65 14.45 6.5 14.4 6.5 14.4 6.4 14.35 6.3 14.4 6.3 14.45 6.35 14.45 6.35 14.5 6.4 14.5 6.4 14.55 6.4 14.6 6.6 15.05 6.75 15.55 6.85 16.0 6.95 16.5 7.0 17.0 6.95 17.45 6.95 17.95 6.85 18.4 6.8 18.9 6.6 19.35 6.45 19.8 6.25 20.2 6.0 20.65 5.7 21.05 5.4 21.45 5.05 21.8 4.95 21.9 4.85 22.0 4.7 22.1 4.6 22.15 4.5 22.2 4.35 22.25 4.25 22.3 4.15 22.35 4.0 22.35 3.9 22.35 3.75 22.35 3.65 22.35 3.5 22.35 3.35 22.3 3.2 22.25 3.05 22.2 2.8 22.1 2.55 21.95 2.35 21.8 2.15 21.6 2.0 21.4 1.85 21.15 1.7 20.95 1.65 20.7 1.55 20.45 1.55 20.2 1.5 19.9 1.55 19.65 1.55 19.4 1.65 19.15 1.75 18.9 1.9 18.65 1.9 18.65 1.95 18.6 2.0 18.55 2.05 18.5 2.1 18.45 2.1 18.45 2.15 18.4 2.2 18.4 2.25 18.4 2.3 18.4 2.3 18.4 2.45 18.7 2.55 18.85 2.6 18.95 2.65 19.1 2.75 19.2 2.85 19.35 2.9 19.45 3.0 19.55 3.1 19.65 3.2 19.75 3.3 19.85 3.4 19.95 3.5 20.0 3.65 20.1 3.8 20.15 3.9 20.2 4.05 20.25 4.15 20.25 4.25 20.3 4.35 20.3 4.4 20.3 4.45 20.3 4.5 20.25 4.6 20.25 4.6 20.2 4.65 20.2 4.7 20.15 4.7 20.1 4.75 20.0 4.75 19.95 4.75 19.9 4.75 19.8 4.75 19.7 4.75 19.4 4.75 19.2 4.7 18.9 4.7 18.65 4.65 18.4 4.65 18.15 4.6 17.9 4.55 17.65 4.5 17.35 4.45 17.15 4.4 16.85 4.3 16.65 4.2 16.4 4.1 16.15 4.0 15.9 3.9 15.65 3.75 15.4 3.15 14.05 2.65 13.1 2.3 12.5 L2.3 12.5 M12.1 3.75 Q11.9 3.8 11.85 3.8 7.05 5.45 4.25 6.35 4.2 6.35 4.1 6.4 4.05 6.4 4.0 6.45 3.95 6.5 3.9 6.5 3.85 6.55 3.8 6.6 3.75 6.65 3.7 6.65 3.65 6.7 3.65 6.75 3.6 6.85 3.6 6.9 3.55 6.95 3.55 7.0 3.5 7.1 3.5 7.2 3.45 7.3 3.4 7.35 3.35 7.45 3.3 7.55 3.25 7.65 3.2 7.7 3.1 7.8 3.05 7.85 3.0 7.95 2.95 8.0 2.85 8.1 2.8 8.15 2.7 8.25 2.65 8.3 2.65 8.2 2.7 8.05 2.7 7.95 2.7 7.85 2.7 7.75 2.7 7.65 2.7 7.5 2.7 7.4 2.7 7.3 2.7 7.2 2.7 7.05 2.7 6.95 2.7 6.85 2.7 6.75 2.7 6.65 2.7 6.5 2.7 6.3 2.7 6.05 2.65 5.9 2.65 5.6 2.65 5.3 2.65 5.15 2.6 4.9 2.6 4.7 2.6 4.45 2.6 4.2 2.6 4.0 2.65 3.75 2.65 3.55 2.7 3.3 2.75 3.1 2.85 2.85 2.85 2.8 2.85 2.75 2.85 2.7 2.85 2.65 2.85 2.6 2.8 2.6 2.75 2.55 2.75 2.55 2.7 2.5 2.65 2.5 1.15 1.8 0.7 1.6 0.6 1.55 0.5 1.55 0.45 1.5 0.35 1.5 0.3 1.5 0.2 1.5 0.15 1.5 0.1 1.5 0.0 1.5 -0.05 1.55 -0.1 1.6 -0.15 1.65 -0.2 1.7 -0.3 1.75 -0.35 1.8 -0.4 1.9 -0.5 2.05 -0.65 2.15 -0.75 2.25 -0.9 2.3 -1.0 2.4 -1.15 2.45 -1.25 2.5 -1.4 2.55 -1.55 2.6 -1.65 2.6 -1.8 2.6 -1.95 2.6 -2.1 2.6 -2.25 2.55 -2.4 2.55 -2.55 2.5 -2.65 2.45 -2.75 2.45 -2.85 2.4 -2.95 2.35 -3.05 2.35 -3.15 2.3 -3.25 2.25 -3.35 2.2 -3.45 2.2 -3.5 2.15 -3.6 2.1 -3.7 2.05 -3.8 2.0 -3.9 1.95 -3.95 1.9 -4.05 1.85 -4.25 1.7 -4.5 1.6 -4.7 1.5 -4.9 1.4 -5.15 1.35 -5.35 1.3 -5.55 1.25 -5.8 1.2 -6.0 1.2 -6.25 1.2 -6.45 1.2 -6.7 1.2 -6.95 1.25 -7.15 1.3 -7.4 1.35 -7.65 1.4 -7.8 1.45 -7.9 1.5 -8.05 1.55 -8.15 1.55 -8.3 1.6 -8.4 1.65 -8.55 1.7 -8.65 1.7 -8.8 1.75 -8.95 1.75 -9.05 1.8 -9.2 1.8 -9.35 1.8 -9.45 1.8 -9.6 1.8 -9.75 1.8 -9.9 1.8 -10.1 1.8 -10.25 1.75 -10.4 1.75 -10.55 1.7 -10.7 1.65 -10.85 1.6 -10.95 1.55 -11.1 1.5 -11.25 1.4 -11.35 1.3 -11.45 1.2 -11.55 1.05 -11.65 0.9 -11.75 0.75 -11.8 0.6 -11.85 0.5 -11.85 0.5 -11.85 0.45 -11.9 0.45 -11.95 0.45 -12.0 0.5 -12.05 0.5 -12.1 0.55 -12.05 0.55 -12.2 0.55 -12.25 0.6 -12.3 0.6 -12.35 0.65 -12.35 0.65 -12.4 0.65 -12.45 0.7 -12.5 0.75 -12.55 0.75 -12.55 0.8 -12.6 0.85 -12.6 0.9 -12.6 0.95 -12.6 1.0 -12.6 1.05 -12.6 1.05 -12.6 1.1 -12.6 1.15 -12.6 1.2 -12.55 1.2 -12.55 1.25 -12.5 1.25 -12.45 1.3 -12.45 1.35 -12.4 1.35 -12.35 1.4 -12.3 1.45 -12.3 1.45 -12.25 1.5 -12.25 1.55 -12.15 1.6 -12.0 1.75 -11.8 1.85 -11.65 2.0 -11.5 2.15 -11.35 2.25 -11.2 2.4 -11.05 2.55 -10.9 2.7 -10.75 2.85 -10.6 3.0 -10.5 3.15 -10.35 3.35 -10.2 3.5 -10.1 3.65 -9.95 3.8 -9.85 4.0 -9.75 4.15 -9.55 4.4 -9.5 4.45 -9.25 4.8 -9.1 5.05 -9.0 5.2 -8.8 5.4 -8.7 5.6 -8.55 5.8 -8.45 6.0 -8.3 6.2 -8.2 6.45 -8.05 6.65 -8.0 6.9 -7.9 7.1 -7.8 7.35 -7.7 7.6 -7.6 7.85 -7.45 8.1 -7.3 8.3 -7.1 8.5 -6.9 8.7 -6.7 8.85 -6.5 9.0 -6.25 9.1 -6.0 9.2 -5.7 9.3 -5.45 9.35 -5.15 9.4 -4.85 9.4 -4.55 9.4 -4.2 9.4 -4.2 9.3 -4.25 9.25 -4.25 9.15 -4.25 9.1 -4.3 9.0 -4.3 8.95 -4.3 8.85 -4.35 8.8 -4.35 8.7 -4.35 8.65 -4.35 8.55 -4.35 8.45 -4.35 8.4 -4.35 8.3 -4.35 8.25 -4.35 8.15 -4.35 8.0 -4.3 7.85 -4.25 7.75 -4.2 7.65 -4.15 7.55 -4.1 7.45 -4.0 7.35 -3.95 7.3 -3.85 7.25 -3.75 7.2 -3.65 7.15 -3.55 7.15 -3.4 7.1 -3.3 7.15 -3.15 7.15 -3.0 7.2 -2.6 7.3 -2.25 7.4 -1.9 7.5 -1.55 7.65 -1.2 7.8 -0.85 7.95 -0.5 8.1 -0.2 8.3 0.15 8.5 0.45 8.7 0.8 8.9 1.1 9.15 1.4 9.35 1.65 9.6 1.95 9.9 2.25 10.15 2.3 10.2 2.35 10.25 2.4 10.3 2.45 10.3 2.5 10.3 2.5 10.3 2.55 10.3 2.6 10.25 2.65 10.2 2.7 10.15 2.85 10.0 2.95 9.85 3.1 9.75 3.25 9.6 3.35 9.45 3.5 9.35 3.65 9.2 3.8 9.1 3.95 8.95 4.1 8.85 4.25 8.75 4.4 8.6 4.55 8.5 4.7 8.4 4.9 8.3 5.05 8.2 5.15 8.15 5.25 8.1 5.3 8.05 5.4 8.0 5.5 7.95 5.6 7.9 5.7 7.85 5.8 7.8 5.9 7.8 6.0 7.75 6.1 7.7 6.2 7.7 6.3 7.65 6.4 7.65 6.5 7.6 6.6 7.6 6.7 7.6 6.85 7.6 6.95 7.6 7.05 7.6 7.15 7.65 7.25 7.7 7.35 7.7 7.45 7.75 7.5 7.8 7.6 7.9 7.65 7.95 7.7 8.05 7.8 8.1 7.8 8.2 7.85 8.3 7.9 8.4 7.95 8.5 7.95 8.55 8.0 8.65 8.0 8.7 8.05 8.75 8.05 8.8 8.1 8.8 8.15 8.85 8.15 8.85 8.2 8.85 8.25 8.8 8.3 8.8 8.35 8.75 8.45 8.7 8.5 8.7 8.6 8.6 8.65 8.55 8.85 8.4 9.1 8.2 9.95 7.05 10.1 6.85 10.25 6.65 10.4 6.45 10.5 6.25 10.65 6.05 10.8 5.85 10.95 5.65 11.05 5.45 11.2 5.25 11.35 5.05 11.45 4.85 11.6 4.6 11.75 4.4 11.85 4.2 12.0 3.95 12.1 3.75 L12.1 3.75 M-2.15 23.95 Q-2.55 23.3 -2.35 23.65 -2.45 23.45 -2.5 23.35 -2.6 23.2 -2.7 23.05 -2.75 22.9 -2.85 22.75 -2.9 22.6 -2.95 22.45 -3.05 22.3 -3.1 22.15 -3.15 22.0 -3.15 21.8 -3.2 21.65 -3.25 21.5 -3.3 21.05 -3.35 20.7 -3.35 20.25 -3.4 19.85 -3.4 19.45 -3.4 19.05 -3.4 18.65 -3.35 18.25 -3.35 17.85 -3.3 17.45 -3.2 17.05 -3.15 16.65 -3.05 16.25 -2.9 15.85 -2.8 15.45 -2.65 15.1 -2.55 14.95 -2.6 14.95 -2.55 14.9 -2.55 14.85 -2.65 14.85 -2.75 14.85 -2.9 14.8 -3.0 14.8 -3.05 14.75 -3.15 14.75 -3.25 14.7 -3.35 14.65 -3.4 14.6 -3.5 14.55 -3.55 14.45 -3.6 14.4 -3.65 14.3 -3.7 14.25 -3.75 14.15 -3.8 14.05 -3.85 13.95 -3.9 13.85 -3.95 13.75 -4.0 13.65 -4.05 13.6 -4.15 13.55 -4.2 13.5 -4.25 13.45 -4.35 13.4 -4.45 13.35 -4.5 13.35 -4.6 13.3 -4.7 13.3 -4.8 13.3 -4.9 13.3 -5.05 13.3 -5.25 13.3 -5.4 13.3 -5.6 13.25 -5.8 13.25 -6.0 13.2 -6.15 13.2 -6.35 13.15 -6.55 13.1 -6.7 13.05 -6.9 13.0 -7.1 12.95 -7.25 12.9 -7.45 12.85 -7.65 12.8 -7.8 12.75 -8.0 12.65 -8.0 12.9 -8.0 13.3 -8.0 13.6 -8.0 13.85 -8.0 14.15 -8.0 14.4 -8.0 14.65 -8.0 14.95 -8.0 15.2 -8.0 15.5 -8.05 15.75 -8.05 16.0 -8.1 16.3 -8.15 16.55 -8.2 16.85 -8.25 17.1 -8.3 17.35 -8.35 17.65 -8.5 18.1 -8.75 19.05 -9.05 20.0 -9.2 20.5 -9.25 20.7 -9.3 20.9 -9.35 21.1 -9.35 21.3 -9.35 21.45 -9.35 21.65 -9.3 21.85 -9.25 22.0 -9.2 22.2 -9.15 22.35 -9.05 22.5 -8.95 22.65 -8.85 22.85 -8.7 23.0 -8.6 23.15 -8.4 23.25 -8.3 23.35 -8.2 23.4 -8.1 23.45 -8.0 23.5 -7.9 23.6 -7.8 23.65 -7.7 23.7 -7.6 23.75 -7.5 23.75 -7.35 23.8 -7.25 23.85 -7.15 23.9 -7.0 23.9 -6.9 23.95 -6.8 23.95 -6.65 24.0 -6.4 24.05 -6.1 24.05 -5.85 24.1 -5.55 24.1 -5.3 24.1 -5.0 24.1 -4.75 24.1 -4.45 24.05 -4.25 24.05 -3.9 24.05 -3.5 24.0 -3.3 24.0 -3.0 24.0 -2.75 23.95 -2.45 23.95 -2.15 23.95 L-2.15 23.95 M10.05 3.3 Q10.8 2.95 11.95 2.45 11.95 2.45 12.15 2.35 12.3 2.3 12.35 2.25 12.4 2.25 12.45 2.2 12.5 2.2 12.55 2.2 12.6 2.15 12.65 2.15 12.7 2.1 12.7 2.1 12.75 2.05 12.8 2.05 12.85 2.0 12.9 2.0 12.95 1.95 13.0 1.95 13.0 1.9 13.05 1.9 13.2 1.75 13.3 1.65 13.4 1.5 13.5 1.35 13.6 1.25 13.7 1.1 13.75 0.95 13.8 0.8 13.85 0.65 13.85 0.5 13.85 0.3 13.8 0.15 13.75 0.0 13.65 -0.15 13.55 -0.3 13.4 -0.45 13.35 -0.5 13.3 -0.6 13.25 -0.65 13.15 -0.7 13.1 -0.75 13.05 -0.8 13.0 -0.9 12.9 -0.95 12.85 -1.0 12.8 -1.05 12.7 -1.1 12.65 -1.15 12.6 -1.2 12.5 -1.2 12.45 -1.25 12.35 -1.3 12.1 -1.45 11.55 -1.75 11.0 -2.05 10.75 -2.25 10.65 -2.3 10.55 -2.4 10.45 -2.5 10.4 -2.6 10.35 -2.7 10.3 -2.8 10.25 -2.9 10.25 -3.0 10.25 -3.1 10.25 -3.2 10.3 -3.3 10.35 -3.45 10.4 -3.55 10.45 -3.65 10.55 -3.75 10.65 -3.85 10.8 -4.0 11.1 -4.15 12.1 -4.75 12.35 -4.85 12.45 -4.9 12.5 -4.95 12.6 -5.0 12.65 -5.1 12.7 -5.15 12.75 -5.25 12.75 -5.3 12.8 -5.4 12.8 -5.45 12.85 -5.55 12.85 -5.6 12.85 -5.7 12.85 -5.8 12.85 -5.9 12.85 -5.9 12.85 -6.05 12.85 -6.1 12.85 -6.2 12.85 -6.25 12.8 -6.3 12.8 -6.35 12.75 -6.4 12.7 -6.4 12.7 -6.45 12.65 -6.5 12.6 -6.55 12.55 -6.55 12.5 -6.6 12.45 -6.6 12.4 -6.65 12.4 -6.65 12.3 -6.7 12.15 -6.75 12.05 -6.8 11.9 -6.85 11.8 -6.9 11.65 -7.0 11.55 -7.05 11.4 -7.1 11.3 -7.15 11.15 -7.2 11.05 -7.3 10.9 -7.35 10.8 -7.4 10.65 -7.45 10.55 -7.55 10.4 -7.6 10.3 -7.65 9.5 -8.15 9.35 -8.2 9.45 -6.55 9.7 -2.5 9.9 1.15 10.05 3.3 L10.05 3.3 M-8.35 -18.45 Q-8.35 -18.2 -8.35 -18.1 -8.3 -17.5 -8.1 -14.25 -7.95 -11.9 -7.9 -10.4 -7.9 -10.7 -7.65 -6.75 -7.5 -4.6 -7.55 -3.1 -7.55 -2.7 -7.45 -1.9 -7.35 -1.1 -7.35 -0.7 -7.35 -0.55 -7.35 -0.45 -7.35 -0.35 -7.3 -0.3 -7.3 -0.2 -7.3 -0.15 -7.25 -0.1 -7.2 -0.1 -7.2 -0.05 -7.1 -0.05 -7.05 0.0 -7.0 0.0 -6.9 0.0 -6.8 -0.05 -6.75 -0.05 -6.55 -0.05 -6.45 -0.05 -6.4 -0.05 -6.35 -0.1 -6.35 -0.1 -6.3 -0.15 -6.3 -0.2 -6.3 -0.2 -6.3 -0.25 -6.3 -0.3 -6.3 -0.4 -6.4 -2.8 -6.6 -5.55 -6.85 -10.25 -7.25 -17.3 -7.25 -17.35 -7.25 -17.35 -7.25 -17.4 -7.25 -17.45 -7.25 -17.45 -7.25 -17.5 -7.25 -17.55 -7.25 -17.55 -7.25 -17.6 -7.25 -17.6 -7.25 -17.65 -7.3 -17.65 -7.3 -17.7 -7.3 -17.75 -7.35 -17.75 -7.4 -17.8 -7.55 -17.9 -8.35 -18.45 L-8.35 -18.45 M-10.5 -1.0 Q-10.3 -1.15 -9.9 -1.4 -9.65 -1.55 -9.45 -1.75 -9.25 -1.95 -9.1 -2.2 -8.95 -2.4 -8.9 -2.65 -8.8 -2.9 -8.8 -3.15 -8.75 -3.4 -8.8 -3.65 -8.8 -3.9 -8.9 -4.2 -8.95 -4.45 -9.1 -4.65 -9.2 -4.9 -9.4 -5.15 -9.55 -5.35 -9.75 -5.5 -9.9 -5.65 -10.1 -5.8 -10.3 -5.9 -10.5 -6.0 -10.7 -6.1 -10.95 -6.15 -11.15 -6.2 -11.4 -6.25 -11.6 -6.25 -11.85 -6.3 -12.1 -6.3 -12.35 -6.3 -12.55 -6.3 -12.85 -6.3 -10.95 -2.25 -10.5 -1.0 L-10.5 -1.0 M-9.1 8.75 Q-9.1 8.9 -9.1 9.05 -9.1 9.15 -9.1 9.3 -9.1 9.45 -9.1 9.6 -9.1 9.7 -9.1 9.85 -9.1 10.0 -9.1 10.1 -9.05 10.25 -9.05 10.4 -9.05 10.5 -9.05 10.65 -9.0 10.8 -9.0 10.9 -9.0 10.95 -8.95 11.0 -8.95 11.0 -8.95 11.05 -8.9 11.1 -8.9 11.1 -8.85 11.15 -8.8 11.15 -8.8 11.2 -8.75 11.2 -8.5 11.35 -8.25 11.45 -8.0 11.6 -7.7 11.7 -7.45 11.8 -7.2 11.9 -6.95 11.95 -6.65 12.05 -6.4 12.1 -6.1 12.15 -5.85 12.2 -5.55 12.25 -5.3 12.3 -5.0 12.3 -4.7 12.35 -4.45 12.35 -4.05 12.35 -4.25 12.35 -4.2 12.35 -4.15 12.25 -4.1 12.15 -4.05 12.05 -4.1 12.1 -4.0 11.9 -3.95 11.8 -3.9 11.7 -3.85 11.6 -3.85 11.5 -3.8 11.4 -3.75 11.35 -3.75 11.25 -3.7 11.15 -3.7 11.05 -3.7 10.95 -3.7 10.8 -3.7 10.7 -3.7 10.65 -3.7 10.65 -3.7 10.6 -3.75 10.55 -3.75 10.55 -3.75 10.5 -3.8 10.5 -3.8 10.45 -3.8 10.45 -3.85 10.45 -3.85 10.45 -3.9 10.45 -3.95 10.4 -4.0 10.4 -4.0 10.4 -4.1 10.4 -4.35 10.4 -4.6 10.4 -4.8 10.4 -5.05 10.4 -5.3 10.4 -5.55 10.35 -5.75 10.35 -6.0 10.3 -6.25 10.25 -6.45 10.15 -6.7 10.1 -6.9 10.0 -7.15 9.9 -7.35 9.8 -7.55 9.7 -7.8 9.55 -8.25 9.25 -9.1 8.75 L-9.1 8.75 M-3.05 9.4 Q-3.1 9.45 -3.05 9.55 -2.95 9.7 -2.9 9.9 -2.8 10.1 -2.8 10.25 -2.75 10.45 -2.7 10.6 -2.7 10.75 -2.7 10.95 -2.7 11.1 -2.75 11.3 -2.75 11.45 -2.8 11.65 -2.85 11.8 -2.95 12.0 -3.0 12.15 -3.1 12.35 -3.15 12.45 -3.15 12.5 -3.2 12.55 -3.2 12.65 -3.2 12.7 -3.2 12.8 -3.2 12.85 -3.2 12.95 -3.2 13.0 -3.15 13.05 -3.15 13.15 -3.1 13.2 -3.1 13.3 -3.05 13.35 -3.05 13.4 -3.0 13.5 -3.0 13.55 -2.95 13.6 -2.9 13.65 -2.9 13.65 -2.85 13.7 -2.85 13.75 -2.8 13.75 -2.75 13.8 -2.7 13.8 -2.7 13.8 -2.65 13.8 -2.6 13.8 -2.55 13.8 -2.5 13.8 -2.45 13.8 -2.4 13.8 -2.15 13.7 -1.9 13.65 -1.6 13.55 -1.35 13.4 -1.1 13.3 -0.9 13.2 -0.65 13.05 -0.4 12.95 -0.15 12.8 0.05 12.65 0.3 12.5 0.5 12.3 0.7 12.15 0.9 11.95 1.15 11.8 1.35 11.55 1.05 11.5 0.75 11.4 0.45 11.3 0.15 11.2 -0.15 11.1 -0.45 10.95 -0.7 10.85 -1.0 10.7 -1.25 10.6 -1.55 10.45 -1.8 10.3 -2.05 10.1 -2.3 9.95 -2.55 9.75 -2.8 9.6 -3.05 9.4 L-3.05 9.4 M1.0 13.2 Q-0.1 13.9 -0.35 14.05 -0.5 14.1 -0.6 14.15 -0.75 14.25 -0.85 14.3 -0.95 14.4 -1.05 14.5 -1.1 14.6 -1.2 14.7 -1.25 14.8 -1.35 14.9 -1.4 15.05 -1.45 15.15 -1.5 15.25 -1.55 15.4 -1.6 15.5 -1.6 15.65 -1.65 15.85 -1.7 16.05 -1.75 16.2 -1.8 16.4 -1.85 16.6 -1.9 16.8 -1.95 17.0 -2.0 17.2 -2.0 17.4 -2.05 17.6 -2.05 17.8 -2.1 18.0 -2.15 18.2 -2.15 18.4 -2.2 18.6 -2.2 18.8 -2.2 18.9 -2.2 18.9 -2.25 19.0 -2.25 19.05 -2.25 19.1 -2.25 19.15 -2.25 19.25 -2.25 19.3 -2.25 19.35 -2.25 19.4 -2.25 19.5 -2.25 19.55 -2.25 19.6 -2.25 19.7 -2.25 19.75 -2.2 19.8 -2.0 19.4 -1.75 19.0 -1.6 18.65 -1.3 18.2 -1.4 18.4 -0.85 17.4 -0.55 16.95 -0.35 16.65 -0.1 16.2 0.1 15.85 0.3 15.4 0.45 15.0 0.65 14.55 0.8 14.15 0.9 13.65 1.0 13.2 L1.0 13.2 M3.65 11.55 Q3.7 11.7 3.75 11.7 3.9 11.85 4.05 12.0 4.2 12.1 4.35 12.25 4.55 12.35 4.7 12.45 4.9 12.55 5.05 12.65 5.25 12.75 5.45 12.85 5.6 12.9 5.8 13.0 5.95 13.1 6.15 13.2 6.55 13.35 6.55 13.35 6.6 13.35 6.65 13.35 6.65 13.35 6.7 13.35 6.75 13.3 6.75 13.3 6.75 13.3 6.8 13.2 6.85 13.1 6.9 13.05 6.9 12.95 6.95 12.9 7.0 12.8 7.0 12.75 7.05 12.65 7.05 12.55 7.1 12.5 7.1 12.4 7.1 12.3 7.1 12.25 7.1 12.15 7.1 12.05 7.1 11.95 7.05 11.85 7.05 11.75 7.0 11.6 6.95 11.4 6.95 11.35 6.9 11.2 6.9 11.1 6.85 11.0 6.85 10.85 6.8 10.75 6.8 10.6 6.8 10.45 6.8 10.35 6.8 10.2 6.85 10.05 6.85 9.9 6.9 9.8 6.35 10.25 6.5 10.1 6.3 10.25 6.15 10.4 5.95 10.55 5.75 10.65 5.55 10.8 5.4 10.9 5.2 11.05 5.0 11.15 4.75 11.25 4.55 11.35 4.35 11.4 4.1 11.45 3.9 11.5 3.65 11.55 L3.65 11.55 M9.55 12.1 Q9.85 10.3 9.85 10.1 9.85 10.05 9.85 10.0 9.85 9.95 9.85 9.95 9.8 9.9 9.8 9.9 9.8 9.85 9.75 9.85 9.7 9.85 9.7 9.85 9.65 9.8 9.65 9.8 9.6 9.8 9.55 9.8 9.55 9.8 9.5 9.8 8.35 9.9 8.2 9.9 8.15 9.9 8.1 9.9 8.05 9.9 8.0 9.9 8.0 9.95 7.95 9.95 7.9 9.95 7.9 10.0 7.85 10.0 7.85 10.05 7.85 10.05 7.8 10.1 7.8 10.15 7.8 10.2 7.8 10.25 7.8 10.3 7.8 10.4 7.8 10.5 7.8 10.6 7.8 10.7 7.85 10.8 7.85 10.9 7.85 10.95 7.9 11.1 7.9 11.15 7.95 11.25 8.0 11.45 8.0 11.45 8.0 11.55 8.05 11.65 8.05 11.75 8.05 11.85 8.1 12.0 8.1 12.05 8.1 12.15 8.15 12.2 8.15 12.25 8.2 12.3 8.2 12.35 8.25 12.35 8.25 12.4 8.3 12.4 8.35 12.4 8.45 12.4 8.5 12.4 8.6 12.4 8.65 12.4 8.8 12.4 8.9 12.4 9.35 12.3 9.4 12.3 9.4 12.25 9.45 12.25 9.45 12.2 9.5 12.2 9.5 12.15 9.55 12.1 9.55 12.1 L9.55 12.1 M-6.85 -18.95 Q-6.8 -18.9 -6.75 -18.9 -6.7 -18.85 -6.65 -18.8 -6.45 -18.65 -6.6 -18.75 -6.55 -18.7 -6.5 -18.7 -6.45 -18.65 -6.45 -18.65 -6.4 -18.6 -6.35 -18.6 -6.3 -18.6 -6.3 -18.6 -6.25 -18.6 -6.2 -18.6 -6.15 -18.6 -6.1 -18.65 -6.05 -18.65 -6.0 -18.65 -5.95 -18.65 -5.9 -18.65 -5.85 -18.65 -5.8 -18.7 -5.75 -18.7 -5.7 -18.7 -5.65 -18.7 -5.6 -18.7 -5.55 -18.7 -5.5 -18.7 -5.45 -18.7 -5.4 -18.7 -3.4 -18.8 5.65 -19.25 6.0 -19.3 6.0 -19.3 5.95 -19.35 5.9 -19.4 5.9 -19.4 5.85 -19.45 5.8 -19.45 5.75 -19.5 5.7 -19.5 5.65 -19.5 5.6 -19.55 5.55 -19.55 5.5 -19.55 5.45 -19.55 5.4 -19.55 5.3 -19.55 5.25 -19.55 5.2 -19.55 4.85 -19.55 2.3 -19.4 -1.15 -19.25 -6.85 -18.95 L-6.85 -18.95 M3.75 13.05 Q3.9 13.35 4.05 13.75 4.15 13.9 4.4 14.4 4.6 14.8 4.7 15.05 4.9 15.45 5.0 15.75 5.15 16.1 5.25 16.45 5.4 16.8 5.5 17.15 5.55 17.5 5.6 17.9 5.65 18.25 5.65 18.65 5.8 18.35 5.9 18.0 6.0 17.6 6.0 17.2 6.0 16.8 5.9 16.35 5.85 15.95 5.7 15.5 5.55 15.1 5.35 14.7 5.15 14.3 4.9 14.0 4.65 13.65 4.4 13.4 4.1 13.2 3.75 13.05 L3.75 13.05 M-2.7 8.3 Q-2.5 8.5 -2.25 8.7 -2.05 8.9 -1.85 9.05 -1.6 9.2 -1.4 9.35 -1.15 9.5 -0.9 9.65 -0.65 9.8 -0.4 9.9 -0.2 10.0 0.1 10.15 0.35 10.25 0.6 10.3 0.85 10.4 1.15 10.5 0.95 10.3 0.7 10.15 0.5 9.95 0.3 9.8 0.05 9.6 -0.15 9.45 -0.4 9.3 -0.65 9.2 -0.9 9.05 -1.1 8.9 -1.35 8.8 -1.6 8.7 -1.9 8.6 -2.15 8.5 -2.4 8.4 -2.7 8.3 L-2.7 8.3 M6.55 8.65 Q6.4 8.7 6.2 8.75 6.0 8.85 5.8 8.95 5.6 9.05 5.35 9.2 5.15 9.3 4.95 9.45 4.75 9.6 4.55 9.75 4.4 9.9 4.25 10.0 4.1 10.15 4.0 10.3 3.9 10.4 3.85 10.5 4.05 10.45 4.25 10.35 4.45 10.3 4.65 10.2 4.8 10.1 5.0 10.0 5.15 9.9 5.3 9.75 5.5 9.65 5.65 9.5 5.8 9.4 5.95 9.25 6.1 9.1 6.25 8.95 6.35 8.85 6.55 8.65 L6.55 8.65 M-10.45 0.35 Q-10.4 0.4 -10.35 0.4 -10.3 0.45 -10.25 0.5 -10.2 0.5 -10.15 0.5 -10.1 0.55 -10.05 0.55 -10.0 0.55 -9.9 0.55 -9.85 0.55 -9.8 0.55 -9.75 0.55 -9.7 0.55 -9.7 0.55 -9.6 0.55 -9.4 0.55 -9.3 0.55 -9.15 0.55 -9.05 0.55 -8.95 0.5 -8.9 0.5 -8.8 0.45 -8.75 0.4 -8.75 0.35 -8.7 0.3 -8.7 0.25 -8.7 0.15 -8.65 0.05 -8.7 -0.1 -8.7 -0.2 -8.7 -0.4 -8.7 -0.6 -8.7 -0.55 -8.7 -0.6 -8.75 -0.65 -8.85 -0.6 -8.95 -0.5 -9.05 -0.45 -9.15 -0.35 -9.25 -0.3 -9.35 -0.25 -9.45 -0.15 -9.55 -0.1 -9.65 -0.05 -9.8 0.0 -9.9 0.1 -10.0 0.15 -10.1 0.2 -10.2 0.25 -10.35 0.3 -10.45 0.35 L-10.45 0.35 M1.6 24.4 Q1.45 24.45 1.25 24.45 1.1 24.45 0.9 24.4 0.75 24.4 0.6 24.35 0.45 24.35 0.3 24.25 0.15 24.2 -0.05 24.15 -0.15 24.1 -0.35 24.0 -0.45 24.0 -0.65 23.85 -0.85 23.8 -1.0 23.75 -0.9 23.9 -0.8 24.05 -0.75 24.15 -0.6 24.25 -0.5 24.35 -0.4 24.45 -0.3 24.5 -0.15 24.6 -0.05 24.65 0.1 24.7 0.2 24.75 0.35 24.75 0.5 24.8 0.6 24.85 0.75 24.85 0.9 24.85 0.95 24.85 1.0 24.85 1.1 24.85 1.15 24.85 1.2 24.8 1.25 24.8 1.3 24.8 1.35 24.75 1.35 24.7 1.4 24.7 1.45 24.65 1.5 24.6 1.5 24.55 1.55 24.5 1.6 24.45 1.6 24.4 L1.6 24.4 M2.55 20.05 Q2.55 20.15 2.55 20.25 2.6 20.35 2.6 20.4 2.6 20.5 2.65 20.6 2.7 20.65 2.75 20.75 2.8 20.8 2.85 20.85 2.9 20.95 2.95 21.0 3.0 21.05 3.1 21.1 3.15 21.15 3.25 21.2 3.3 21.25 3.35 21.25 3.4 21.25 3.45 21.3 3.5 21.3 3.5 21.3 3.55 21.3 3.6 21.3 3.65 21.35 3.7 21.3 3.75 21.3 3.8 21.3 3.85 21.3 3.9 21.25 3.95 21.25 4.05 21.2 3.95 21.15 3.8 21.1 3.7 21.05 3.6 21.0 3.5 20.95 3.4 20.85 3.3 20.8 3.2 20.7 3.1 20.65 3.05 20.55 2.95 20.5 2.85 20.4 2.8 20.35 2.7 20.25 2.65 20.2 2.55 20.05 L2.55 20.05 M12.4 -3.45 Q12.35 -3.4 12.3 -3.4 12.25 -3.35 12.2 -3.35 12.15 -3.35 12.15 -3.3 12.1 -3.3 12.05 -3.25 12.0 -3.25 12.0 -3.2 11.95 -3.2 11.95 -3.15 11.9 -3.15 11.85 -3.15 11.85 -3.15 11.8 -3.1 11.9 -3.05 11.95 -3.0 12.05 -2.95 12.1 -2.95 12.15 -2.9 12.15 -2.9 12.2 -2.9 12.25 -2.9 12.25 -2.95 12.3 -2.95 12.3 -3.0 12.35 -3.1 12.35 -3.15 12.35 -3.25 12.35 -3.3 12.4 -3.45 L12.4 -3.45 M-3.15 9.35 Q-3.1 9.35 -3.1 9.35 -3.1 9.35 -3.1 9.35 -3.15 9.3 -3.15 9.3 -3.15 9.3 -3.15 9.3 -3.15 9.35 -3.15 9.35 L-3.15 9.35" fill="#040404" fill-rule="evenodd" stroke="none"/>
    <path d="M10.05 3.3 Q9.8 -0.65 9.35 -8.2 9.4 -8.2 9.5 -8.15 9.55 -8.1 9.6 -8.1 9.65 -8.05 9.75 -8.0 9.8 -8.0 9.85 -7.95 9.9 -7.9 9.95 -7.9 10.05 -7.8 10.05 -7.8 10.15 -7.75 10.2 -7.75 10.25 -7.7 10.3 -7.65 10.4 -7.6 10.55 -7.5 10.65 -7.45 10.8 -7.4 10.9 -7.35 11.05 -7.25 11.15 -7.2 11.3 -7.15 11.4 -7.1 11.55 -7.05 11.65 -6.95 11.8 -6.9 11.9 -6.85 12.05 -6.8 12.15 -6.75 12.3 -6.7 12.35 -6.7 12.4 -6.65 12.45 -6.6 12.5 -6.6 12.55 -6.55 12.6 -6.55 12.65 -6.5 12.7 -6.45 12.75 -6.45 12.75 -6.4 12.8 -6.35 12.8 -6.3 12.85 -6.25 12.85 -6.2 12.85 -6.15 12.85 -6.05 12.85 -5.95 12.85 -5.9 12.85 -5.8 12.85 -5.7 12.85 -5.6 12.8 -5.55 12.8 -5.45 12.8 -5.4 12.75 -5.3 12.75 -5.25 12.7 -5.15 12.65 -5.1 12.6 -5.05 12.5 -4.95 12.45 -4.9 12.35 -4.85 11.95 -4.65 11.1 -4.15 10.8 -3.95 10.65 -3.85 10.55 -3.75 10.45 -3.65 10.4 -3.55 10.35 -3.45 10.3 -3.35 10.25 -3.2 10.25 -3.1 10.25 -3.0 10.25 -2.9 10.3 -2.8 10.3 -2.7 10.4 -2.6 10.45 -2.5 10.55 -2.4 10.65 -2.3 10.75 -2.25 11.05 -2.05 11.55 -1.75 12.3 -1.35 12.35 -1.3 12.45 -1.25 12.5 -1.2 12.55 -1.15 12.65 -1.15 12.7 -1.1 12.8 -1.05 12.85 -1.0 12.9 -0.95 13.0 -0.9 13.05 -0.85 13.1 -0.75 13.2 -0.7 13.25 -0.65 13.3 -0.6 13.35 -0.55 13.4 -0.45 13.55 -0.3 13.65 -0.15 13.75 0.0 13.8 0.15 13.85 0.35 13.85 0.5 13.85 0.65 13.8 0.8 13.75 0.95 13.7 1.1 13.6 1.2 13.5 1.35 13.45 1.5 13.3 1.65 13.2 1.75 13.05 1.9 13.0 1.95 12.35 2.25 12.3 2.3 11.95 2.45 10.45 3.1 10.05 3.3 L10.05 3.3" fill="#000000" fill-opacity="0.23137255" fill-rule="evenodd" stroke="none"/>
    <path d="M7.7 3.85 Q5.6 4.55 4.1 5.1 4.05 5.1 4.0 5.1 3.95 5.15 3.95 5.1 3.9 5.1 3.9 5.1 3.85 5.1 3.85 5.05 3.8 5.0 3.8 4.95 3.8 4.85 3.8 4.8 3.75 4.7 3.75 4.65 3.75 4.55 3.75 4.5 3.75 4.4 3.75 4.35 3.75 4.25 3.75 4.2 3.75 4.1 3.8 4.05 3.8 3.95 3.8 3.9 3.85 3.8 3.9 3.75 3.9 3.7 3.95 3.65 3.95 3.6 3.95 3.55 4.0 3.5 4.0 3.45 4.0 3.4 4.0 3.35 4.05 3.3 4.05 3.2 4.05 3.15 4.05 3.1 4.05 3.05 4.1 3.0 4.1 2.95 4.1 2.9 4.1 2.8 4.1 2.7 4.1 2.6 4.1 2.55 4.1 2.45 4.1 2.35 4.05 2.3 4.05 2.2 4.0 2.1 3.95 2.05 3.95 1.95 3.9 1.9 3.85 1.8 3.75 1.75 3.7 1.7 3.65 1.6 3.65 1.55 3.65 1.5 3.65 1.45 3.65 1.4 3.65 1.35 3.7 1.35 3.7 1.3 3.75 1.3 3.75 1.25 3.8 1.25 3.85 1.25 3.9 1.2 3.9 1.2 3.95 1.2 4.0 1.2 4.1 1.2 5.45 1.2 7.1 1.1 7.15 1.1 7.2 1.1 7.25 1.1 7.3 1.15 7.35 1.15 7.4 1.15 7.4 1.2 7.45 1.2 7.5 1.25 7.5 1.25 7.5 1.3 7.55 1.35 7.55 1.4 7.55 1.45 7.55 1.5 7.55 1.55 7.6 3.0 7.7 3.85 L7.7 3.85" fill="#000000" fill-opacity="0.18039216" fill-rule="evenodd" stroke="none"/>
    <path d="M-6.85 -18.95 Q-3.75 -19.1 2.3 -19.4 4.8 -19.5 5.2 -19.55 5.25 -19.55 5.3 -19.55 5.4 -19.55 5.45 -19.55 5.5 -19.55 5.55 -19.55 5.6 -19.55 5.65 -19.5 5.7 -19.5 5.75 -19.5 5.8 -19.5 5.85 -19.45 5.9 -19.45 5.95 -19.4 5.95 -19.35 6.0 -19.3 5.95 -19.3 5.65 -19.25 0.85 -19.0 -5.4 -18.7 -5.1 -18.7 -5.5 -18.7 -5.55 -18.7 -5.6 -18.7 -5.65 -18.7 -5.7 -18.7 -5.75 -18.7 -5.8 -18.7 -5.85 -18.65 -5.9 -18.65 -5.95 -18.65 -6.0 -18.65 -6.05 -18.65 -6.1 -18.65 -6.15 -18.6 -6.2 -18.6 -6.25 -18.6 -6.3 -18.6 -6.35 -18.6 -6.35 -18.6 -6.4 -18.6 -6.45 -18.65 -6.45 -18.65 -6.5 -18.7 -6.55 -18.7 -6.6 -18.75 -6.8 -18.95 -6.65 -18.8 -6.7 -18.85 -6.75 -18.85 -6.8 -18.9 -6.85 -18.95 L-6.85 -18.95" fill="#000000" fill-opacity="0.36078432" fill-rule="evenodd" stroke="none"/>
    <path d="M-13.3 -7.55 Q-13.25 -7.6 -13.25 -7.6 -13.2 -7.6 -13.15 -7.65 -13.1 -7.65 -13.1 -7.65 -13.05 -7.65 -13.0 -7.7 -12.95 -7.7 -12.95 -7.7 -12.9 -7.7 -12.85 -7.7 -12.8 -7.7 -12.8 -7.7 -12.75 -7.7 -12.7 -7.75 -12.45 -7.8 -12.25 -7.85 -12.0 -7.9 -11.8 -7.9 -11.55 -7.95 -11.35 -8.0 -11.1 -8.05 -10.9 -8.1 -10.65 -8.15 -10.45 -8.2 -10.2 -8.3 -10.0 -8.35 -9.8 -8.4 -9.55 -8.5 -9.35 -8.55 -9.15 -8.65 -9.1 -8.65 -9.05 -8.7 -9.0 -8.7 -8.95 -8.7 -8.9 -8.7 -8.85 -8.7 -8.85 -8.7 -8.8 -8.65 -8.8 -8.65 -8.8 -8.6 -8.75 -8.6 -8.75 -8.55 -8.75 -8.5 -8.75 -8.45 -8.75 -8.4 -8.75 -8.35 -8.75 -7.95 -8.7 -7.3 -8.65 -6.4 -8.65 -6.2 -8.9 -6.4 -9.2 -6.55 -9.45 -6.7 -9.75 -6.85 -10.0 -6.95 -10.3 -7.05 -10.6 -7.15 -10.85 -7.25 -11.15 -7.35 -11.45 -7.4 -11.75 -7.45 -12.05 -7.45 -12.35 -7.5 -12.65 -7.5 -12.95 -7.5 -13.3 -7.45 -13.3 -7.5 -13.3 -7.55 L-13.3 -7.55" fill="#000000" fill-opacity="0.23137255" fill-rule="evenodd" stroke="none"/>
    <path d="M-2.7 8.3 Q-2.4 8.4 -2.15 8.45 -1.9 8.55 -1.6 8.7 -1.35 8.8 -1.1 8.9 -0.9 9.05 -0.65 9.15 -0.4 9.3 -0.15 9.45 0.05 9.6 0.3 9.8 0.5 9.95 0.7 10.15 0.95 10.3 1.15 10.5 0.85 10.4 0.6 10.35 0.35 10.25 0.1 10.15 -0.2 10.0 -0.4 9.9 -0.65 9.8 -0.9 9.65 -1.15 9.5 -1.4 9.35 -1.6 9.2 -1.85 9.05 -2.05 8.9 -2.25 8.7 -2.5 8.5 -2.7 8.3 L-2.7 8.3" fill="#000000" fill-opacity="0.34117648" fill-rule="evenodd" stroke="none"/>
    <path d="M6.55 8.65 Q6.4 8.8 6.25 8.95 6.1 9.1 5.95 9.25 5.8 9.4 5.65 9.5 5.5 9.65 5.3 9.75 5.15 9.9 5.0 10.0 4.8 10.1 4.65 10.2 4.45 10.3 4.25 10.4 4.05 10.45 3.85 10.5 3.9 10.4 4.0 10.25 4.1 10.15 4.25 10.0 4.4 9.85 4.6 9.75 4.75 9.6 4.95 9.45 5.15 9.3 5.35 9.2 5.6 9.05 5.8 8.95 6.0 8.85 6.2 8.8 6.4 8.7 6.55 8.65 L6.55 8.65" fill="#000000" fill-opacity="0.34117648" fill-rule="evenodd" stroke="none"/>
    <path d="M-10.45 0.35 Q-10.35 0.3 -10.2 0.25 -10.1 0.2 -10.0 0.15 -9.9 0.05 -9.8 0.0 -9.65 -0.05 -9.55 -0.1 -9.45 -0.2 -9.35 -0.25 -9.25 -0.3 -9.15 -0.4 -9.05 -0.45 -8.95 -0.55 -8.85 -0.6 -8.75 -0.65 -8.7 -0.6 -8.7 -0.55 -8.7 -0.8 -8.7 -0.4 -8.7 -0.2 -8.7 -0.1 -8.7 0.05 -8.7 0.15 -8.7 0.25 -8.7 0.3 -8.75 0.35 -8.75 0.4 -8.8 0.45 -8.9 0.5 -8.95 0.5 -9.05 0.55 -9.15 0.55 -9.3 0.55 -9.4 0.55 -9.6 0.55 -9.65 0.55 -9.7 0.55 -9.75 0.55 -9.8 0.55 -9.85 0.55 -9.9 0.55 -9.95 0.55 -10.0 0.55 -10.1 0.55 -10.15 0.5 -10.2 0.5 -10.25 0.5 -10.3 0.45 -10.35 0.45 -10.4 0.4 -10.45 0.35 L-10.45 0.35" fill="#000000" fill-opacity="0.23137255" fill-rule="evenodd" stroke="none"/>
    <path d="M1.6 24.4 Q1.55 24.45 1.55 24.5 1.5 24.55 1.45 24.6 1.45 24.65 1.4 24.7 1.35 24.75 1.3 24.75 1.3 24.8 1.25 24.8 1.2 24.85 1.15 24.85 1.1 24.85 1.05 24.85 1.0 24.85 0.9 24.85 0.75 24.85 0.6 24.8 0.45 24.8 0.35 24.75 0.2 24.75 0.1 24.7 -0.05 24.65 -0.15 24.6 -0.3 24.5 -0.4 24.45 -0.5 24.35 -0.6 24.25 -0.7 24.15 -0.8 24.0 -0.9 23.9 -1.0 23.75 -0.85 23.8 -0.65 23.9 -0.35 24.05 -0.35 24.05 -0.15 24.1 -0.05 24.15 0.15 24.2 0.3 24.25 0.45 24.3 0.6 24.35 0.75 24.4 0.95 24.4 1.1 24.45 1.25 24.4 1.45 24.4 1.6 24.4 L1.6 24.4" fill="#000000" fill-opacity="0.34117648" fill-rule="evenodd" stroke="none"/>
    <path d="M2.55 20.05 Q2.65 20.15 2.7 20.2 2.8 20.3 2.85 20.4 2.95 20.5 3.05 20.55 3.1 20.65 3.2 20.7 3.3 20.8 3.4 20.85 3.5 20.95 3.6 21.0 3.7 21.05 3.8 21.1 3.9 21.15 4.05 21.2 4.0 21.25 3.95 21.25 3.9 21.3 3.8 21.3 3.75 21.3 3.7 21.3 3.65 21.35 3.6 21.3 3.55 21.3 3.5 21.3 3.5 21.3 3.45 21.25 3.4 21.25 3.35 21.25 3.3 21.2 3.25 21.2 3.15 21.15 3.1 21.1 3.0 21.05 2.95 21.0 2.9 20.95 2.85 20.9 2.8 20.8 2.75 20.75 2.7 20.65 2.65 20.6 2.6 20.5 2.6 20.45 2.55 20.35 2.55 20.25 2.55 20.15 2.55 20.05 L2.55 20.05" fill="#000000" fill-opacity="0.34117648" fill-rule="evenodd" stroke="none"/>
    <path d="M-0.75 0.45 Q-0.7 0.45 -0.7 0.4 -0.65 0.4 -0.65 0.4 -0.65 0.45 -0.75 0.45 L-0.75 0.45" fill="#fefefe" fill-rule="evenodd" stroke="none"/>
    <path d="M6.9 -10.05 Q6.9 -10.0 6.85 -10.0 6.8 -9.95 6.8 -9.95 6.75 -9.95 6.7 -9.95 6.6 -9.95 6.65 -9.95 6.6 -9.95 4.95 -9.9 3.95 -9.9 3.25 -9.9 3.2 -9.9 3.15 -9.9 3.15 -9.9 3.1 -9.9 3.1 -9.9 3.1 -9.95 3.05 -9.95 3.05 -10.0 3.05 -10.0 3.05 -10.0 3.05 -10.05 3.05 -10.1 3.05 -10.1 3.05 -10.15 3.05 -10.15 3.05 -10.2 2.95 -11.55 2.85 -13.1 2.7 -15.7 2.7 -16.25 2.7 -16.35 2.7 -16.4 2.7 -16.45 2.7 -16.45 2.75 -16.5 2.75 -16.55 2.8 -16.55 2.85 -16.55 2.9 -16.6 3.0 -16.6 4.25 -16.6 6.25 -16.65 6.3 -16.65 6.35 -16.65 6.4 -16.65 6.45 -16.6 6.5 -16.6 6.5 -16.55 6.55 -16.5 6.55 -16.45 6.6 -16.4 6.6 -16.35 6.65 -14.6 6.9 -10.25 6.9 -10.2 6.9 -10.05 L6.9 -10.05" fill="#000000" fill-opacity="0.18039216" fill-rule="evenodd" stroke="none"/>
    <path d="M3.65 -1.4 Q3.6 -1.4 3.55 -1.45 3.55 -1.5 3.5 -1.5 3.5 -1.55 3.5 -1.6 3.5 -1.65 3.5 -1.7 3.5 -1.75 3.5 -1.75 3.4 -3.15 3.25 -5.9 3.25 -6.05 3.25 -6.25 3.25 -6.45 3.25 -6.55 3.25 -6.7 3.25 -6.8 3.25 -6.9 3.25 -6.95 3.3 -7.0 3.35 -7.05 3.35 -7.1 3.45 -7.1 3.5 -7.15 3.6 -7.15 3.7 -7.15 3.8 -7.2 3.9 -7.2 4.1 -7.2 5.95 -7.25 6.75 -7.25 6.8 -7.25 6.85 -7.25 6.85 -7.25 6.9 -7.25 6.95 -7.25 6.95 -7.2 7.0 -7.2 7.0 -7.2 7.0 -7.15 7.05 -7.15 7.05 -7.1 7.05 -7.1 7.05 -7.05 7.1 -7.0 7.1 -7.0 7.1 -6.95 7.2 -4.55 7.35 -1.9 7.35 -1.85 7.35 -1.8 7.35 -1.75 7.35 -1.7 7.35 -1.65 7.3 -1.65 7.3 -1.6 7.3 -1.55 7.25 -1.55 7.25 -1.55 7.2 -1.5 7.15 -1.5 7.15 -1.5 7.1 -1.5 7.05 -1.5 6.95 -1.5 6.55 -1.5 5.45 -1.45 4.5 -1.4 3.9 -1.4 3.85 -1.4 3.8 -1.4 3.7 -1.4 3.65 -1.4 L3.65 -1.4" fill="#000000" fill-opacity="0.18039216" fill-rule="evenodd" stroke="none"/>
    <path d="M-1.25 -16.45 Q-1.2 -16.45 -1.15 -16.4 -1.15 -16.4 -1.1 -16.35 -1.1 -16.3 -1.1 -16.25 -1.1 -16.25 -1.1 -16.2 -1.1 -16.15 -1.1 -16.1 -1.05 -15.25 -1.0 -13.85 -0.85 -11.95 -0.85 -11.6 -0.8 -10.65 -0.75 -10.1 -0.75 -10.05 -0.75 -10.0 -0.75 -9.95 -0.8 -9.9 -0.8 -9.85 -0.85 -9.85 -0.9 -9.8 -0.95 -9.8 -1.0 -9.8 -1.05 -9.8 -3.65 -9.75 -4.2 -9.7 -4.25 -9.7 -4.3 -9.7 -4.3 -9.7 -4.35 -9.7 -4.4 -9.75 -4.4 -9.75 -4.4 -9.75 -4.45 -9.8 -4.45 -9.8 -4.45 -9.8 -4.45 -9.85 -4.45 -9.85 -4.45 -9.9 -4.45 -9.95 -4.45 -9.95 -4.45 -10.0 -4.55 -11.5 -4.7 -14.0 -4.75 -14.6 -4.8 -16.1 -4.8 -16.2 -4.8 -16.15 -4.8 -16.2 -4.8 -16.2 -4.8 -16.25 -4.8 -16.25 -4.8 -16.3 -4.8 -16.3 -4.8 -16.3 -4.8 -16.35 -4.75 -16.35 -4.75 -16.35 -4.7 -16.4 -4.7 -16.4 -4.65 -16.4 -4.6 -16.4 -4.0 -16.4 -1.4 -16.45 -1.35 -16.45 -1.25 -16.45 L-1.25 -16.45" fill="#000000" fill-opacity="0.18039216" fill-rule="evenodd" stroke="none"/>
    <path d="M8.4 0.2 Q8.35 0.2 8.2 0.2 8.05 0.25 7.95 0.25 5.8 0.25 2.1 0.35 2.1 0.35 2.05 0.35 2.0 0.35 1.95 0.35 1.95 0.35 1.9 0.35 1.85 0.35 1.85 0.35 1.8 0.35 1.8 0.4 1.75 0.4 1.75 0.45 1.7 0.45 1.7 0.5 1.7 0.5 1.7 0.55 1.65 0.55 1.6 0.55 1.5 0.5 1.45 0.5 1.4 0.5 1.35 0.45 1.3 0.45 1.25 0.45 1.2 0.45 1.1 0.4 1.05 0.35 1.0 0.35 0.95 0.35 0.9 0.3 0.85 0.3 0.8 0.3 0.7 0.3 0.6 0.25 0.5 0.25 0.45 0.25 0.35 0.2 0.25 0.2 0.15 0.2 0.05 0.2 -0.05 0.2 -0.1 0.25 -0.2 0.25 -0.3 0.25 -0.35 0.3 -0.45 0.3 -0.55 0.35 -0.65 0.4 -0.65 0.4 -0.75 0.45 -0.75 0.45 -0.7 0.45 -0.9 0.45 -1.1 0.45 -1.3 0.4 -1.5 0.4 -1.7 0.4 -1.9 0.4 -2.1 0.4 -2.3 0.4 -2.5 0.4 -2.7 0.45 -2.9 0.45 -3.1 0.45 -3.3 0.45 -3.5 0.45 -3.7 0.5 -3.9 0.5 -3.95 0.45 -4.0 0.45 -4.05 0.4 -4.1 0.4 -4.2 0.35 -4.25 0.3 -4.3 0.3 -4.35 0.25 -4.4 0.25 -4.45 0.2 -4.5 0.2 -4.6 0.15 -4.65 0.15 -4.7 0.1 -4.75 0.1 -4.85 0.05 -4.9 0.05 -4.95 0.0 -4.95 0.0 -4.95 -0.05 -5.0 -0.05 -5.0 -0.1 -5.0 -0.1 -5.0 -0.15 -5.0 -0.2 -5.0 -0.25 -5.0 -0.3 -5.0 -0.3 -5.0 -0.35 -5.0 -0.4 -5.0 -0.45 -5.0 -0.45 -4.95 -0.45 -4.85 -0.45 -4.8 -0.4 -4.75 -0.4 -4.7 -0.4 -4.6 -0.45 -4.6 -0.45 -4.45 -0.45 -4.4 -0.45 -4.35 -0.45 -4.25 -0.45 -4.2 -0.45 -4.15 -0.45 -4.05 -0.45 -4.0 -0.45 -3.95 -0.4 -2.6 -0.45 -0.3 -0.45 -0.25 -0.5 -0.2 -0.5 -0.15 -0.55 -0.15 -0.55 0.55 -0.55 0.65 -0.6 0.7 -0.65 0.7 -0.65 0.75 -0.7 0.75 -0.75 0.75 -0.8 0.75 -0.85 0.75 -0.9 0.75 -0.95 0.75 -0.95 0.7 -1.05 0.7 -1.1 0.7 -1.15 0.7 -1.2 0.7 -1.25 0.7 -1.3 0.7 -1.35 0.65 -2.35 0.35 -7.2 0.35 -7.2 0.35 -7.3 0.3 -7.35 0.3 -7.4 0.3 -7.5 0.3 -7.55 0.3 -7.6 0.3 -7.65 0.3 -7.7 0.25 -7.75 0.25 -7.75 0.2 -7.8 0.15 -7.8 0.1 -7.85 0.1 -7.85 0.0 -7.85 -0.05 -7.85 -0.1 -7.85 -0.15 -7.85 -0.25 -7.85 -0.8 -7.85 -4.5 -7.7 -5.25 -7.65 -5.4 -7.7 -5.4 -8.0 -5.5 -8.6 -5.45 -8.6 -5.35 -8.6 -5.3 -8.6 -5.25 -8.6 -5.15 -8.6 -5.1 -8.6 -4.7 -8.6 -4.95 -8.6 -4.9 -8.6 -4.85 -8.6 -4.75 -8.6 -4.7 -8.6 -4.65 -8.6 -4.55 -8.6 -4.5 -8.6 -4.45 -8.6 -3.2 -8.65 -0.6 -8.75 -0.55 -8.75 -0.5 -8.75 -0.45 -8.8 -0.4 -8.8 -0.35 -8.8 -0.3 -8.8 -0.2 -8.75 -0.2 -8.75 -0.15 -8.75 -0.1 -8.75 -0.05 -8.75 0.0 -8.8 0.05 -8.8 0.05 -8.8 0.1 -8.85 0.15 -8.85 0.2 -8.9 0.2 -8.95 0.2 -9.0 0.2 -9.05 0.25 -9.1 0.25 -9.15 0.25 -9.15 0.2 -9.25 0.2 -9.25 0.2 -9.35 0.2 -9.4 0.2 -9.45 0.2 -9.5 0.15 -9.55 0.15 -9.6 0.15 -9.65 0.2 -9.7 0.2 -9.75 0.15 -11.1 -0.05 -14.05 -0.1 -14.85 -0.25 -16.55 -0.25 -16.6 -0.25 -16.7 -0.3 -16.75 -0.3 -16.8 -0.3 -16.9 -0.3 -16.95 -0.3 -17.05 -0.3 -17.1 -0.3 -17.15 -0.3 -17.25 -0.3 -17.3 -0.3 -17.4 -0.3 -17.45 -0.3 -17.5 -0.3 -17.6 -0.3 -17.65 0.05 -17.7 0.6 -17.75 0.6 -17.7 0.6 -17.6 0.6 -17.5 0.6 -17.45 0.6 -17.4 0.6 -17.3 0.6 -17.35 0.6 -17.15 0.65 -17.05 0.65 -17.0 0.65 -16.9 0.65 -16.85 0.65 -16.75 0.65 -16.7 0.65 -16.6 0.6 -16.55 0.75 -14.2 1.05 -9.75 1.05 -9.75 1.1 -9.55 1.1 -9.4 1.1 -9.3 1.15 -9.2 1.15 -9.15 1.15 -9.05 1.15 -9.0 1.2 -8.95 1.25 -8.95 1.25 -8.9 1.3 -8.9 1.35 -8.85 1.45 -8.85 1.5 -8.85 1.6 -8.85 1.7 -8.85 1.85 -8.85 2.2 -8.9 3.15 -8.9 4.05 -8.95 7.0 -9.05 7.05 -9.05 7.1 -9.05 7.15 -9.05 7.2 -9.05 7.25 -9.1 7.3 -9.1 7.35 -9.1 7.4 -9.1 7.45 -9.1 7.5 -9.1 7.55 -9.1 7.6 -9.1 7.65 -9.1 7.7 -9.1 7.75 -9.05 7.8 -9.05 7.85 -9.0 7.85 -8.95 7.85 -8.9 7.85 -8.85 7.9 -8.8 7.9 -8.75 7.9 -8.7 7.9 -8.65 7.9 -8.6 7.9 -8.55 7.9 -8.5 7.9 -8.45 7.9 -8.35 7.9 -8.3 7.9 -8.25 7.9 -8.2 7.85 -8.2 7.8 -8.2 7.75 -8.2 7.7 -8.2 7.65 -8.15 7.55 -8.15 7.5 -8.15 7.45 -8.15 7.4 -8.15 7.35 -8.15 7.3 -8.15 7.25 -8.15 7.2 -8.15 7.15 -8.15 7.1 -8.2 7.05 -8.2 5.85 -8.15 3.2 -8.05 2.9 -7.95 1.6 -7.95 1.55 -7.95 1.5 -7.95 1.45 -7.95 1.4 -7.9 1.35 -7.9 1.3 -7.9 1.3 -7.85 1.25 -7.85 1.25 -7.8 1.2 -7.8 1.2 -7.75 1.2 -7.7 1.2 -7.65 1.2 -7.6 1.2 -7.55 1.2 -7.5 1.2 -7.45 1.2 -7.4 1.25 -7.35 1.25 -7.35 1.25 -7.3 1.25 -7.25 1.25 -7.2 1.25 -7.15 1.25 -7.1 1.2 -7.1 1.35 -4.8 1.55 -1.4 1.6 -1.35 1.6 -1.3 1.6 -1.15 1.65 -1.05 1.65 -0.95 1.65 -0.9 1.7 -0.8 1.7 -0.75 1.75 -0.7 1.8 -0.65 1.8 -0.65 1.9 -0.6 1.95 -0.6 2.0 -0.6 2.1 -0.6 2.2 -0.6 2.25 -0.6 2.45 -0.6 2.5 -0.6 2.6 -0.6 2.65 -0.6 2.75 -0.6 2.8 -0.6 2.9 -0.6 3.0 -0.6 3.05 -0.6 3.1 -0.6 3.15 -0.6 3.25 -0.6 3.3 -0.6 3.4 -0.6 3.45 -0.6 3.55 -0.6 3.6 -0.55 4.85 -0.6 7.45 -0.65 7.5 -0.65 7.55 -0.7 7.6 -0.7 7.7 -0.7 7.75 -0.7 7.8 -0.7 7.8 -0.7 7.9 -0.7 8.0 -0.7 8.05 -0.7 8.1 -0.7 8.15 -0.7 8.2 -0.7 8.3 -0.7 8.35 -0.75 8.4 -0.75 8.4 -0.5 8.4 0.2 L8.4 0.2" fill="#000000" fill-opacity="0.4392157" fill-rule="evenodd" stroke="none"/>
    <path d="M-0.3 -1.5 Q-0.3 -1.45 -0.35 -1.4 -0.35 -1.35 -0.4 -1.35 -0.4 -1.35 -0.45 -1.3 -0.5 -1.3 -0.5 -1.3 -0.55 -1.3 -0.6 -1.3 -2.55 -1.3 -3.7 -1.25 -3.75 -1.25 -3.8 -1.25 -3.85 -1.25 -3.85 -1.25 -3.9 -1.3 -3.9 -1.3 -3.95 -1.3 -3.95 -1.35 -3.95 -1.35 -4.0 -1.4 -4.0 -1.4 -4.0 -1.45 -4.0 -1.45 -4.0 -1.5 -4.0 -1.5 -4.0 -1.55 -4.15 -3.8 -4.2 -5.35 -4.2 -5.35 -4.3 -6.65 -4.3 -6.7 -4.3 -6.75 -4.3 -6.8 -4.3 -6.8 -4.3 -6.85 -4.3 -6.85 -4.25 -6.9 -4.25 -6.95 -4.25 -6.95 -4.2 -6.95 -4.2 -7.0 -4.15 -7.0 -4.15 -7.0 -4.1 -7.0 -4.05 -7.0 -4.0 -7.0 -3.45 -7.0 -2.45 -7.05 -1.4 -7.05 -0.9 -7.05 -0.85 -7.05 -0.8 -7.05 -0.75 -7.05 -0.75 -7.05 -0.7 -7.05 -0.7 -7.0 -0.65 -7.0 -0.65 -7.0 -0.65 -6.95 -0.6 -6.95 -0.6 -6.9 -0.6 -6.9 -0.6 -6.85 -0.6 -6.85 -0.6 -6.8 -0.6 -6.75 -0.4 -2.75 -0.35 -2.45 -0.35 -2.25 -0.3 -1.5 L-0.3 -1.5" fill="#000000" fill-opacity="0.18039216" fill-rule="evenodd" stroke="none"/>
    <path d="M-9.2 8.15 Q-9.0 8.3 -8.8 8.4 -8.65 8.5 -8.45 8.6 -8.25 8.7 -8.1 8.8 -7.9 8.9 -7.75 9.0 -7.6 9.1 -7.4 9.15 -7.25 9.25 -7.1 9.3 -6.95 9.4 -6.8 9.45 -6.7 9.5 -6.55 9.55 -6.25 9.65 -6.0 9.75 -5.75 9.85 -5.55 9.9 -5.35 10.0 -5.15 10.05 -5.0 10.05 -4.85 10.1 -4.7 10.1 -4.55 10.1 -4.45 10.1 -4.35 10.05 -4.25 10.05 -4.15 10.0 -4.1 9.95 -4.0 9.9 -3.95 9.9 -3.9 9.85 -3.85 9.8 -3.85 9.8 -3.8 9.75 -3.75 9.75 -3.75 9.7 -3.7 9.65 -3.7 9.65 -3.65 9.6 -3.7 9.5 -3.75 9.4 -3.8 9.3 -3.85 9.2 -3.9 9.1 -3.9 9.0 -3.95 8.9 -3.95 8.8 -3.95 8.7 -3.95 8.6 -3.95 8.5 -3.95 8.4 -3.9 8.3 -3.9 8.2 -3.85 8.15 -3.8 8.05 -3.75 7.95 -3.8 8.0 -3.75 8.0 -3.75 8.0 -3.75 7.95 -3.7 7.95 -3.7 7.9 -3.65 7.9 -3.65 7.85 -3.6 7.85 -3.6 7.8 -3.55 7.8 -3.5 7.75 -3.45 7.75 -3.45 7.7 -3.4 7.7 -3.3 7.65 -3.2 7.65 -3.15 7.65 -3.05 7.65 -2.95 7.65 -2.85 7.65 -2.8 7.7 -2.7 7.75 -2.6 7.75 -2.5 7.8 -2.45 7.85 -2.35 7.9 -2.3 7.9 -2.2 7.95 -2.15 8.0 -2.05 8.05 -1.65 8.3 -1.3 8.5 -1.0 8.7 -0.65 8.85 -0.45 8.95 -0.15 9.1 0.15 9.3 0.3 9.35 0.5 9.45 0.65 9.55 0.85 9.65 1.05 9.8 1.2 9.9 1.4 10.1 1.6 10.25 1.8 10.45 1.85 10.5 1.9 10.55 1.95 10.6 1.95 10.65 2.0 10.7 2.05 10.7 2.1 10.75 2.1 10.8 2.15 10.85 2.2 10.9 2.2 10.9 2.25 10.95 2.3 11.0 2.3 11.0 2.35 11.05 2.35 11.05 2.4 11.0 3.95 9.7 4.25 9.45 4.45 9.3 4.65 9.1 4.85 8.95 5.05 8.8 5.2 8.7 5.35 8.6 5.5 8.5 5.65 8.4 5.75 8.35 5.9 8.3 6.0 8.25 6.1 8.25 6.25 8.2 6.35 8.2 6.45 8.25 6.45 8.25 6.5 8.25 6.55 8.25 6.6 8.25 6.65 8.25 6.65 8.3 6.75 8.3 6.8 8.3 6.85 8.35 6.9 8.35 6.95 8.4 7.0 8.45 7.05 8.45 7.05 8.5 7.1 8.55 7.15 8.6 7.15 8.65 7.2 8.7 7.2 8.8 7.2 8.85 7.15 8.9 7.15 8.95 7.15 9.0 7.1 9.05 7.1 9.1 7.1 9.15 7.1 9.2 7.05 9.25 7.05 9.3 7.05 9.35 7.1 9.35 7.1 9.4 7.1 9.45 7.15 9.45 7.2 9.5 7.25 9.5 7.3 9.5 7.35 9.5 7.4 9.55 7.5 9.55 7.6 9.55 7.7 9.5 7.8 9.5 7.95 9.5 8.05 9.5 8.25 9.45 8.4 9.45 8.6 9.4 8.75 9.4 9.0 9.35 9.25 9.3 9.3 9.3 9.5 9.25 9.6 9.25 9.7 9.25 9.8 9.25 9.9 9.25 9.95 9.25 10.05 9.25 10.1 9.25 10.15 9.25 10.2 9.3 10.25 9.3 10.3 9.35 10.35 9.4 10.35 9.4 10.35 9.45 10.4 9.5 10.4 9.55 10.4 9.6 10.4 9.65 10.4 9.7 10.4 9.7 10.4 9.8 10.4 9.8 10.4 9.9 10.4 9.95 10.4 10.0 10.4 10.0 10.4 10.1 10.4 10.15 10.4 10.25 10.35 10.3 10.35 10.35 10.35 10.4 10.35 10.45 10.3 10.5 10.3 10.55 10.3 10.55 10.25 10.65 10.25 10.7 10.2 10.75 10.2 10.8 10.2 10.85 10.15 10.9 10.15 10.95 10.1 11.1 10.1 11.25 10.1 11.35 10.1 11.5 10.1 11.6 10.1 11.75 10.1 11.75 10.1 11.95 10.15 12.05 10.15 12.1 10.15 12.2 10.1 12.3 10.1 12.35 10.1 12.45 10.05 12.55 10.0 12.6 9.95 12.65 9.95 12.65 9.9 12.7 9.85 12.75 9.8 12.75 9.8 12.8 9.75 12.8 9.7 12.8 9.7 12.85 9.65 12.85 9.6 12.85 9.6 12.9 9.55 12.9 9.55 12.9 9.45 12.95 9.4 12.95 9.35 12.95 9.25 12.95 9.2 12.95 9.1 12.95 9.05 12.95 9.0 12.95 8.9 12.95 8.85 12.95 8.75 12.9 8.7 12.9 8.6 12.9 8.5 12.95 8.4 12.95 8.3 12.95 8.3 12.95 8.25 12.95 8.2 13.0 8.15 13.0 8.1 13.0 8.05 13.0 8.0 13.05 7.95 13.05 7.9 13.05 7.9 13.1 7.85 13.1 7.8 13.15 7.75 13.15 7.7 13.2 7.65 13.25 7.6 13.25 7.55 13.3 7.5 13.35 7.5 13.35 7.45 13.4 7.45 13.45 7.4 13.45 7.4 13.45 7.35 13.5 7.35 13.55 7.3 13.6 7.3 13.6 7.25 13.65 7.25 13.65 7.2 13.7 7.15 13.7 7.15 13.7 7.15 13.7 6.45 13.85 6.3 13.9 6.25 13.9 6.15 13.9 6.1 13.95 6.05 13.95 6.0 13.95 5.95 14.0 5.95 14.05 5.9 14.1 5.9 14.1 5.9 14.15 5.9 14.2 5.85 14.2 5.85 14.25 5.85 14.3 5.9 14.35 5.9 14.4 5.9 14.45 5.9 14.5 5.9 14.55 5.95 14.6 5.95 14.7 5.95 14.7 6.0 14.8 6.35 15.9 6.4 16.2 6.45 16.3 6.45 16.4 6.45 16.55 6.5 16.65 6.5 16.75 6.5 16.85 6.5 16.9 6.5 17.0 6.5 17.1 6.5 17.15 6.5 17.25 6.5 17.3 6.5 17.35 6.5 17.45 6.5 17.45 6.5 17.55 6.5 17.6 6.5 17.65 6.5 17.7 6.5 17.8 6.5 17.85 6.5 17.9 6.5 18.0 6.45 18.05 6.45 18.15 6.45 18.2 6.45 18.3 6.4 18.4 6.4 18.45 6.35 18.55 6.35 18.65 6.3 18.75 6.2 19.05 5.45 20.2 5.25 20.5 5.1 20.65 5.0 20.75 4.85 21.05 4.8 21.1 4.75 21.15 4.7 21.25 4.65 21.3 4.6 21.35 4.6 21.4 4.55 21.45 4.5 21.5 4.45 21.55 4.4 21.6 4.35 21.6 4.3 21.65 4.25 21.7 4.2 21.7 4.15 21.75 4.1 21.75 4.05 21.75 4.0 21.8 4.0 21.8 3.95 21.8 3.9 21.8 3.9 21.8 3.85 21.8 3.85 21.8 3.8 21.8 3.8 21.8 3.7 21.8 3.6 21.8 3.5 21.8 3.4 21.8 3.3 21.75 3.2 21.7 3.05 21.7 2.95 21.65 2.85 21.6 2.75 21.5 2.65 21.45 2.55 21.35 2.45 21.25 2.35 21.15 2.3 21.05 2.25 20.9 2.2 20.8 2.15 20.65 2.1 20.55 2.1 20.45 2.1 20.35 2.1 20.2 2.1 20.1 2.1 20.0 2.1 19.95 2.15 19.85 2.15 19.8 2.2 19.7 2.2 19.65 2.25 19.6 2.25 19.55 2.25 19.55 2.3 19.6 2.35 19.65 2.4 19.7 2.45 19.75 2.55 19.8 2.6 19.85 2.7 19.95 2.8 20.0 2.9 20.05 3.0 20.1 3.1 20.2 3.2 20.25 3.35 20.3 3.45 20.3 3.6 20.35 3.75 20.4 3.85 20.4 3.9 20.4 3.95 20.45 4.0 20.45 4.1 20.45 4.15 20.45 4.25 20.45 4.3 20.45 4.4 20.45 4.45 20.45 4.55 20.45 4.6 20.4 4.7 20.4 4.75 20.35 4.8 20.35 4.9 20.3 4.95 20.25 4.95 20.2 5.0 20.2 5.05 20.1 5.05 20.05 5.1 20.0 5.1 19.9 5.15 19.8 5.15 19.7 5.15 19.55 5.2 19.45 5.2 19.25 5.2 19.1 5.15 18.9 5.15 18.7 5.1 18.45 5.05 18.2 5.0 17.9 4.95 17.65 4.9 17.4 4.85 17.2 4.8 16.95 4.75 16.8 4.7 16.6 4.65 16.4 4.6 16.25 4.55 16.15 4.5 16.0 4.45 15.9 4.4 15.8 4.4 15.75 4.35 15.7 4.25 15.5 4.2 15.3 4.1 15.1 4.0 14.9 3.9 14.65 3.75 14.45 3.65 14.2 3.5 13.95 3.4 13.7 3.25 13.45 3.1 13.15 2.95 12.9 2.75 12.6 2.6 12.35 2.4 12.05 2.25 11.75 2.15 11.95 1.85 12.85 1.2 14.65 1.0 15.2 0.65 16.05 0.8 15.6 0.7 15.85 0.65 16.0 0.55 16.2 0.5 16.4 0.4 16.6 0.3 16.75 0.2 16.95 0.1 17.15 0.0 17.3 -0.1 17.5 -0.2 17.7 -0.35 17.85 -0.45 18.05 -0.6 18.25 -0.7 18.4 -0.8 18.55 -0.85 18.6 -1.0 18.8 -1.1 18.95 -1.15 19.0 -1.25 19.15 -1.35 19.25 -1.45 19.4 -1.5 19.5 -1.6 19.65 -1.65 19.75 -1.7 19.9 -1.75 20.05 -1.85 20.2 -1.9 20.4 -1.95 20.55 -1.95 20.65 -2.0 20.75 -2.0 20.85 -2.0 20.95 -2.05 21.05 -2.05 21.15 -2.05 21.25 -2.05 21.3 -2.05 21.4 -2.05 21.45 -2.05 21.5 -2.05 21.55 -2.0 21.6 -2.0 21.6 -2.0 21.65 -1.95 21.85 -1.9 22.0 -1.85 22.15 -1.8 22.3 -1.7 22.45 -1.6 22.6 -1.55 22.7 -1.45 22.8 -1.35 22.9 -1.25 23.0 -1.2 23.1 -1.1 23.15 -1.05 23.25 -0.95 23.3 -0.9 23.3 -0.85 23.35 -0.75 23.45 -0.6 23.5 -0.5 23.55 -0.4 23.6 -0.25 23.65 -0.15 23.7 0.0 23.75 0.1 23.75 0.25 23.8 0.4 23.8 0.55 23.85 0.7 23.85 0.85 23.85 1.05 23.9 1.2 23.9 1.45 23.9 1.55 23.9 1.65 23.9 1.7 23.9 1.8 23.95 1.9 23.95 2.0 23.95 2.05 23.95 2.15 23.95 2.2 23.95 2.3 23.95 2.35 23.95 2.4 23.95 2.5 23.95 2.55 23.95 2.6 23.95 2.65 23.95 2.65 24.0 2.6 24.05 2.6 24.1 2.55 24.15 2.5 24.25 2.5 24.3 2.45 24.4 2.35 24.45 2.3 24.55 2.25 24.65 2.15 24.75 2.05 24.8 2.0 24.9 1.85 24.95 1.75 25.05 1.65 25.1 1.5 25.2 1.35 25.25 1.15 25.3 1.0 25.3 0.85 25.3 0.7 25.3 0.55 25.3 0.45 25.3 0.3 25.3 0.15 25.25 0.05 25.25 -0.05 25.2 -0.15 25.15 -0.2 25.15 -0.25 25.1 -0.35 25.1 -0.55 25.05 -0.7 24.95 -0.85 24.85 -1.0 24.75 -1.1 24.6 -1.25 24.5 -1.35 24.4 -1.45 24.25 -1.55 24.15 -1.65 24.0 -1.75 23.9 -1.85 23.75 -1.9 23.65 -2.0 23.5 -2.05 23.4 -2.1 23.25 -2.15 23.15 -2.2 23.05 -2.3 22.9 -2.35 22.75 -2.4 22.6 -2.5 22.45 -2.55 22.25 -2.6 22.05 -2.7 21.85 -2.75 21.6 -2.8 21.35 -2.8 21.1 -2.85 20.8 -2.9 20.5 -2.9 20.2 -2.95 19.85 -2.95 19.45 -2.95 19.0 -2.9 18.6 -2.85 18.2 -2.8 17.8 -2.75 17.4 -2.7 17.05 -2.6 16.7 -2.5 16.35 -2.4 16.0 -2.3 15.7 -2.2 15.4 -2.1 15.1 -1.95 14.8 -1.85 14.55 -1.75 14.3 -1.8 14.3 -1.8 14.3 -1.85 14.35 -1.85 14.35 -1.9 14.35 -1.95 14.4 -2.0 14.4 -2.05 14.4 -2.1 14.4 -2.2 14.45 -2.25 14.45 -2.3 14.45 -2.4 14.45 -2.45 14.45 -2.55 14.45 -2.6 14.45 -2.6 14.45 -2.65 14.45 -2.7 14.4 -2.75 14.4 -2.85 14.4 -2.9 14.35 -3.0 14.35 -3.05 14.3 -3.15 14.25 -3.25 14.2 -3.3 14.15 -3.4 14.1 -3.5 14.0 -3.55 13.95 -3.6 13.85 -3.65 13.7 -3.7 13.65 -3.7 13.55 -3.75 13.5 -3.75 13.45 -3.75 13.35 -3.8 13.3 -3.8 13.25 -3.8 13.2 -3.8 13.1 -3.8 13.05 -3.8 13.0 -3.8 12.95 -3.75 12.95 -3.75 12.9 -3.75 12.85 -3.75 12.85 -3.85 12.85 -3.95 12.85 -4.0 12.85 -4.1 12.85 -4.2 12.85 -4.3 12.85 -4.4 12.85 -4.5 12.85 -4.6 12.85 -4.7 12.85 -4.8 12.85 -4.85 12.85 -5.0 12.85 -5.05 12.85 -5.2 12.85 -5.3 12.85 -5.6 12.8 -5.9 12.8 -6.2 12.75 -6.5 12.7 -6.8 12.65 -7.05 12.55 -7.3 12.5 -7.6 12.4 -7.8 12.35 -8.05 12.25 -8.3 12.15 -8.5 12.1 -8.75 12.0 -8.95 11.9 -9.15 11.8 -9.3 11.75 -9.35 11.7 -9.35 11.6 -9.4 11.55 -9.45 11.45 -9.5 11.35 -9.55 11.25 -9.6 11.15 -9.6 11.0 -9.65 10.9 -9.7 10.75 -9.7 10.6 -9.75 10.45 -9.75 10.3 -9.75 10.1 -9.75 9.95 -9.75 9.75 -9.75 9.6 -9.7 9.45 -9.7 9.35 -9.65 9.2 -9.65 9.1 -9.6 9.0 -9.55 8.85 -9.5 8.75 -9.45 8.65 -9.4 8.6 -9.4 8.5 -9.35 8.4 -9.3 8.35 -9.25 8.25 -9.2 8.2 -9.2 8.15 L-9.2 8.15" fill="#000000" fill-opacity="0.34901962" fill-rule="evenodd" stroke="none"/>
  </g>
</svg>
