<?xml version="1.0" encoding="UTF-8" standalone="no"?>
<svg xmlns:xlink="http://www.w3.org/1999/xlink" height="100.0px" width="100.0px" xmlns="http://www.w3.org/2000/svg">
  <g transform="matrix(1.0, 0.0, 0.0, 1.0, 50.0, 50.0)">
    <path d="M-6.55 -20.05 Q-6.3 -20.0 -6.1 -19.95 -5.85 -19.9 -5.6 -19.8 -5.3 -19.75 -5.05 -19.65 -4.75 -19.55 -4.45 -19.45 -4.15 -19.35 -3.8 -19.2 -3.5 -19.05 -3.15 -18.9 -2.85 -18.75 -2.5 -18.55 -2.15 -18.4 -1.85 -18.15 -1.45 -17.9 -1.15 -17.65 -0.8 -17.4 -0.5 -17.15 -0.15 -16.9 0.1 -16.6 0.4 -16.3 0.7 -16.0 0.95 -15.7 1.25 -15.35 1.5 -15.0 1.8 -14.65 2.05 -14.3 2.35 -13.85 2.6 -13.55 2.95 -13.05 3.9 -11.7 6.6 -7.05 8.8 -3.25 9.15 -2.55 9.45 -1.95 9.7 -1.35 9.95 -0.75 10.15 -0.15 10.35 0.4 10.5 1.0 10.7 1.55 10.85 2.1 11.0 2.65 11.1 3.2 11.25 3.75 11.35 4.35 11.45 4.8 11.6 5.45 11.65 5.8 11.8 6.55 11.9 6.95 11.95 7.35 12.0 7.8 12.1 8.2 12.15 8.65 12.2 9.15 12.3 9.65 12.35 10.1 12.4 10.65 12.45 11.15 12.55 11.7 12.6 12.25 12.65 12.85 12.65 13.4 12.7 14.05 12.75 14.65 12.45 14.75 12.2 14.8 11.9 14.85 11.65 14.95 11.35 15.0 11.05 15.1 10.75 15.15 10.45 15.2 10.15 15.3 9.85 15.35 9.55 15.4 9.25 15.45 8.9 15.55 8.6 15.6 8.25 15.65 7.95 15.7 7.7 15.75 7.5 15.75 7.25 15.8 7.0 15.85 6.8 15.85 6.55 15.9 6.35 15.9 6.1 15.95 5.9 15.95 5.65 16.0 5.45 16.0 5.25 16.05 5.05 16.05 4.8 16.05 4.6 16.1 4.4 16.1 1.4 16.3 -1.6 16.55 -2.15 12.9 -2.6 10.05 -3.0 7.35 -3.45 4.1 -4.15 -1.15 -4.6 -4.2 -5.45 -10.3 -5.55 -11.15 -5.65 -11.85 -5.75 -12.55 -5.8 -13.2 -5.9 -13.85 -5.95 -14.45 -6.05 -15.05 -6.1 -15.65 -6.15 -16.25 -6.25 -16.8 -6.3 -17.3 -6.35 -17.8 -6.4 -18.3 -6.45 -18.75 -6.5 -19.2 -6.55 -19.6 -6.55 -20.05 L-6.55 -20.05" fill="#7f2b2b" fill-rule="evenodd" stroke="none"/>
    <path d="M1.8 21.85 Q1.75 21.9 1.75 21.9 1.75 21.95 1.7 21.95 1.7 22.0 1.65 22.05 1.65 22.05 1.65 22.1 1.6 22.15 1.6 22.2 1.6 22.2 1.6 22.25 1.55 22.3 1.55 22.35 1.55 22.4 1.55 22.45 1.55 22.5 1.5 22.55 1.5 22.6 1.5 22.65 1.5 22.7 1.5 22.75 1.45 22.8 1.45 22.85 1.45 22.9 1.45 22.95 1.45 23.0 1.45 23.05 1.45 23.15 1.45 23.2 1.5 23.25 1.5 23.3 1.55 23.4 1.6 23.5 1.6 23.55 1.7 23.65 1.75 23.7 1.8 23.8 1.85 23.85 1.9 23.9 1.95 23.95 2.0 24.0 2.05 24.0 2.1 24.05 2.15 24.05 2.2 24.1 2.2 24.1 2.25 24.1 2.3 24.1 2.3 24.15 2.35 24.15 2.4 24.15 2.5 24.2 2.55 24.2 2.6 24.2 2.7 24.2 2.8 24.25 2.85 24.2 2.95 24.2 3.05 24.2 3.15 24.2 3.2 24.15 3.3 24.1 3.4 24.05 3.45 24.0 3.55 23.95 3.6 23.85 3.6 23.8 3.65 23.75 3.7 23.65 3.7 23.6 3.75 23.55 3.75 23.45 3.75 23.4 3.8 23.35 3.8 23.3 3.8 23.25 3.8 23.2 3.8 23.2 3.8 23.15 3.8 23.05 3.8 22.95 3.75 22.85 3.75 22.75 3.7 22.65 3.65 22.55 3.6 22.5 3.55 22.45 3.55 22.35 3.5 22.3 3.45 22.25 3.4 22.2 3.35 22.15 3.3 22.15 3.3 22.1 3.25 22.1 3.2 22.05 3.1 22.0 3.0 21.9 2.9 21.9 2.8 21.85 2.7 21.8 2.6 21.75 2.5 21.75 2.4 21.7 2.3 21.7 2.2 21.7 2.1 21.75 2.0 21.75 1.95 21.8 1.85 21.8 1.8 21.85 L1.8 21.85" fill="#7f2b2b" fill-rule="evenodd" stroke="none"/>
    <path d="M3.55 28.35 Q3.5 28.35 3.4 28.4 3.35 28.4 3.3 28.45 3.25 28.45 3.15 28.5 3.1 28.5 3.05 28.55 3.0 28.6 2.95 28.65 2.9 28.7 2.85 28.75 2.85 28.8 2.8 28.85 2.75 28.9 2.75 28.95 2.7 29.0 2.7 29.05 2.7 29.15 2.65 29.2 2.65 29.25 2.65 29.3 2.65 29.35 2.65 29.4 2.65 29.5 2.65 29.55 2.65 29.6 2.65 29.65 2.65 29.7 2.7 29.75 2.7 29.8 2.7 29.85 2.7 29.9 2.7 29.9 2.7 29.95 2.75 30.0 2.75 30.05 2.75 30.05 2.75 30.1 2.75 30.15 2.75 30.2 2.8 30.2 2.8 30.25 2.8 30.3 2.85 30.3 2.85 30.35 2.9 30.4 2.9 30.45 2.9 30.45 2.95 30.5 2.95 30.5 2.95 30.55 3.0 30.6 3.05 30.6 3.05 30.65 3.1 30.7 3.15 30.75 3.2 30.75 3.25 30.8 3.3 30.85 3.35 30.85 3.45 30.9 3.5 30.9 3.55 30.95 3.65 30.95 3.7 30.95 3.8 30.95 3.9 30.95 3.95 30.95 4.05 30.9 4.1 30.9 4.15 30.85 4.2 30.85 4.25 30.8 4.3 30.8 4.35 30.75 4.4 30.75 4.45 30.7 4.45 30.7 4.5 30.65 4.5 30.65 4.55 30.6 4.55 30.6 4.6 30.6 4.65 30.55 4.65 30.5 4.7 30.5 4.75 30.45 4.75 30.4 4.8 30.35 4.85 30.3 4.85 30.25 4.9 30.2 4.95 30.15 4.95 30.05 4.95 30.0 5.0 29.85 4.95 29.7 4.95 29.55 4.9 29.4 4.85 29.25 4.8 29.15 4.7 29.0 4.6 28.85 4.5 28.75 4.35 28.65 4.25 28.55 4.1 28.5 3.95 28.4 3.8 28.4 3.65 28.35 3.55 28.35 L3.55 28.35" fill="#7f2b2b" fill-rule="evenodd" stroke="none"/>
  </g>
</svg>
