<?xml version="1.0" encoding="UTF-8" standalone="no"?>
<svg xmlns:xlink="http://www.w3.org/1999/xlink" height="41.25px" width="22.15px" xmlns="http://www.w3.org/2000/svg">
  <g transform="matrix(1.0, 0.0, 0.0, 1.0, 11.1, 20.65)">
    <path d="M-2.75 30.05 Q-2.6 30.15 -2.4 30.2 -2.25 30.25 -2.1 30.35 -1.9 30.4 -1.75 30.45 -1.6 30.5 -1.45 30.55 -1.35 30.6 -1.2 30.6 -1.05 30.65 -0.95 30.65 -0.8 30.7 -0.7 30.7 -0.6 30.75 -0.5 30.75 -0.35 30.75 -0.25 30.8 -0.15 30.8 0.0 30.8 0.1 30.8 0.2 30.85 0.35 30.85 0.45 30.85 0.6 30.85 0.7 30.85 0.8 30.85 0.95 30.8 1.05 30.8 1.2 30.75 1.3 30.75 1.45 30.7 1.55 30.65 1.65 30.65 1.7 30.6 1.8 30.55 1.9 30.55 1.95 30.5 2.05 30.45 2.1 30.4 2.15 30.4 2.25 30.35 2.3 30.3 2.35 30.3 2.4 30.25 2.45 30.25 2.5 30.2 2.5 30.2 2.55 30.15 2.6 30.1 2.7 30.1 2.75 30.05 2.8 30.0 2.85 29.95 2.9 29.95 2.95 29.9 3.0 29.85 3.05 29.85 3.1 29.8 3.1 29.75 3.15 29.75 3.2 29.7 3.25 29.7 3.25 29.65 3.25 28.2 3.25 25.35 3.25 14.0 3.25 -8.65 2.75 -8.35 1.75 -7.65 1.35 -8.1 0.5 -9.05 -0.05 -8.5 -1.0 -7.6 -1.65 -8.05 -2.85 -9.05 -2.8 3.95 -2.75 30.05 L-2.75 30.05" fill="#fbdd56" fill-rule="evenodd" stroke="none"/>
  </g>
</svg>
