<?xml version="1.0" encoding="UTF-8" standalone="no"?>
<svg xmlns:xlink="http://www.w3.org/1999/xlink" height="85.6px" width="79.15px" xmlns="http://www.w3.org/2000/svg">
  <g transform="matrix(1.0, 0.0, 0.0, 1.0, 39.6, 42.8)">
    <path d="M-4.05 51.75 Q-4.1 51.45 -4.0 51.2 -3.9 50.95 -3.65 50.65 -3.45 50.4 -3.1 50.1 -2.85 49.9 -2.3 49.55 -1.7 49.05 -1.4 48.85 -0.85 48.4 -0.45 48.0 0.1 47.55 0.55 47.05 1.1 46.45 1.5 45.85 1.75 45.45 1.95 45.1 2.15 44.8 2.3 44.45 2.4 44.2 2.55 43.85 2.6 43.65 2.7 43.3 2.95 42.55 2.9 42.65 3.0 42.25 3.15 41.95 3.25 41.55 3.45 41.15 3.65 40.65 3.9 40.15 4.1 39.8 4.3 39.45 4.5 39.05 4.7 38.7 4.95 38.3 5.25 37.9 5.5 37.5 5.85 37.1 6.15 36.65 6.5 36.25 6.9 35.8 7.25 35.4 7.7 34.95 8.15 34.55 8.6 34.1 9.1 33.65 10.15 35.4 12.15 38.85 10.45 41.4 7.05 46.5 7.25 46.65 7.4 46.8 7.6 46.95 7.8 47.1 8.0 47.3 8.2 47.5 8.4 47.7 8.65 47.95 8.85 48.2 9.05 48.45 9.3 48.7 9.5 49.0 9.7 49.3 9.9 49.6 10.15 49.95 10.35 50.3 10.65 50.85 10.9 51.45 11.15 51.95 11.3 52.55 11.45 53.05 11.6 53.6 11.7 54.1 11.75 54.6 11.8 55.05 11.85 55.5 11.85 55.9 11.85 56.3 11.85 56.6 11.85 56.95 11.8 57.2 11.8 57.5 9.7 58.0 5.6 59.1 4.4 57.6 2.05 54.65 1.95 54.7 1.85 54.7 1.75 54.75 1.65 54.8 1.55 54.8 1.45 54.85 1.3 54.9 1.15 54.9 1.0 54.95 0.9 54.95 0.7 54.95 0.55 54.95 0.4 54.95 0.25 54.95 0.1 54.9 -0.1 54.85 -0.15 54.85 -0.2 54.85 -0.3 54.8 -0.35 54.8 -0.45 54.75 -0.5 54.7 -0.6 54.65 -0.75 54.6 -0.85 54.55 -1.0 54.45 -1.15 54.35 -1.3 54.25 -1.45 54.15 -1.65 54.0 -1.85 53.85 -2.1 53.65 -2.5 53.3 -2.55 53.3 -2.75 53.1 -2.95 52.95 -3.1 52.8 -3.25 52.65 -3.4 52.55 -3.55 52.45 -3.65 52.3 -3.75 52.2 -3.85 52.1 -3.9 52.05 -3.95 51.95 -4.0 51.85 -4.05 51.8 -4.05 51.75 L-4.05 51.75" fill="#a05445" fill-rule="evenodd" stroke="none"/>
  </g>
</svg>
