<?xml version="1.0" encoding="UTF-8" standalone="no"?>
<svg xmlns:xlink="http://www.w3.org/1999/xlink" height="81.35px" width="8.95px" xmlns="http://www.w3.org/2000/svg">
  <g transform="matrix(1.0, 0.0, 0.0, 1.0, 4.45, 40.7)">
    <path d="M5.4 -7.1 L3.1 -7.1 3.15 37.15 Q3.15 37.6 3.1 37.95 3.05 38.35 2.95 38.65 2.85 39.0 2.7 39.25 2.55 39.55 2.35 39.75 2.15 40.0 1.9 40.15 1.6 40.3 1.3 40.4 1.0 40.55 0.65 40.6 0.3 40.65 -0.15 40.65 -0.55 40.65 -0.95 40.6 -1.3 40.55 -1.6 40.45 -1.9 40.35 -2.15 40.2 -2.45 40.0 -2.65 39.8 -2.85 39.6 -3.0 39.3 -3.15 39.05 -3.3 38.7 -3.4 38.35 -3.45 37.95 -3.5 37.6 -3.5 37.15 L-3.45 -7.1 -5.3 -7.1 -5.3 -24.4 5.4 -24.4 5.4 -7.1 5.4 -7.1" fill="#576666" fill-rule="evenodd" stroke="none"/>
  </g>
</svg>
