<?xml version="1.0" encoding="UTF-8" standalone="no"?>
<svg xmlns:xlink="http://www.w3.org/1999/xlink" height="83.2px" width="79.15px" xmlns="http://www.w3.org/2000/svg">
  <g transform="matrix(1.0, 0.0, 0.0, 1.0, 39.55, 41.6)">
    <path d="M17.45 -21.85 Q19.6 -21.1 21.1 -20.55 21.35 -20.45 21.6 -20.35 21.85 -20.25 22.1 -20.2 22.35 -20.1 22.6 -20.0 22.8 -19.9 23.05 -19.8 23.3 -19.7 23.55 -19.6 23.8 -19.5 24.0 -19.4 24.25 -19.3 24.5 -19.2 24.75 -19.1 24.95 -19.0 26.95 -18.15 30.85 -16.35 32.25 -16.25 34.45 -16.1 35.1 -16.05 35.35 -16.05 35.8 -16.0 36.1 -16.0 36.45 -15.95 36.75 -15.95 37.05 -15.9 37.25 -15.85 37.5 -15.8 37.7 -15.75 37.95 -15.7 38.1 -15.6 38.3 -15.55 38.45 -15.45 38.65 -15.35 38.8 -15.2 38.85 -15.15 38.9 -15.1 39.0 -15.05 39.05 -15.0 39.15 -14.9 39.2 -14.8 39.3 -14.7 39.4 -14.6 39.45 -14.5 39.55 -14.4 39.65 -14.25 39.7 -14.1 39.8 -13.95 39.85 -13.8 39.9 -13.65 39.95 -13.45 40.2 -11.95 39.95 -13.3 40.0 -13.2 40.0 -13.15 40.0 -13.0 40.0 -12.9 40.0 -12.8 40.0 -12.7 40.0 -12.55 39.95 -12.4 39.95 -12.3 39.9 -12.15 39.85 -12.05 39.8 -11.9 39.7 -11.8 39.6 -11.65 39.5 -11.55 39.4 -11.5 39.3 -11.4 39.2 -11.35 39.1 -11.3 38.95 -11.25 38.85 -11.2 38.7 -11.2 38.55 -11.2 38.4 -11.2 38.3 -11.15 38.15 -11.2 38.0 -11.2 37.85 -11.25 37.7 -11.25 37.55 -11.3 37.5 -9.85 37.35 -7.9 37.3 -7.15 37.25 -6.45 37.2 -5.7 37.1 -4.95 37.05 -4.25 36.95 -3.55 36.9 -2.85 36.8 -2.15 36.7 -1.45 36.6 -0.75 36.5 -0.05 36.4 0.6 36.3 1.3 36.2 1.95 36.1 2.65 36.0 3.3 35.15 5.5 33.5 9.8 31.35 13.85 30.5 15.4 29.95 16.25 29.05 17.35 27.85 18.75 27.3 19.3 27.05 19.55 26.95 19.7 26.75 19.9 26.6 20.05 26.4 20.2 26.25 20.35 26.1 20.5 25.9 20.65 25.75 20.8 25.55 20.95 25.4 21.05 25.2 21.2 25.0 21.3 24.8 21.4 24.6 21.5 24.4 21.6 24.25 21.65 24.1 21.75 23.95 21.8 23.8 21.85 23.7 21.9 23.55 21.95 23.4 22.0 23.3 22.0 23.15 22.05 23.05 22.05 22.9 22.1 22.8 22.1 22.7 22.15 22.6 22.15 22.5 22.15 22.4 22.2 22.65 22.4 22.9 22.65 23.15 22.9 23.3 23.2 23.5 23.45 23.6 23.75 23.75 24.05 23.8 24.4 23.85 24.7 23.9 25.0 23.9 25.35 23.85 25.65 23.85 25.95 23.75 26.3 23.65 26.6 23.5 26.9 23.35 27.2 23.1 27.5 22.85 27.75 22.6 27.95 22.3 28.2 22.0 28.35 21.7 28.5 21.35 28.6 21.0 28.75 20.65 28.75 20.3 28.8 19.95 28.8 19.6 28.75 19.25 28.65 18.85 28.6 18.5 28.4 18.15 28.25 17.45 27.9 16.7 27.55 16.4 27.4 16.15 27.5 15.9 27.55 15.6 27.65 15.35 27.75 15.05 27.8 14.75 27.9 14.45 28.0 14.1 28.05 13.8 28.1 13.45 28.15 13.1 28.25 12.75 28.25 12.35 28.3 11.95 28.35 11.6 28.35 11.2 28.4 11.0 28.4 10.8 28.4 10.6 28.4 10.45 28.4 10.25 28.4 10.05 28.35 9.9 28.35 9.7 28.35 9.55 28.35 9.35 28.3 9.2 28.3 9.05 28.3 8.9 28.25 8.7 28.25 8.55 28.25 8.4 28.2 5.35 28.25 -0.8 28.3 -5.0 27.65 -13.75 26.25 -17.45 25.05 -27.65 21.75 -29.9 20.8 -34.95 18.65 -35.0 18.7 -35.05 18.75 -35.15 18.8 -35.2 18.85 -35.3 18.9 -35.35 18.95 -35.45 19.0 -35.55 19.05 -35.7 19.1 -35.8 19.15 -35.9 19.2 -36.05 19.2 -36.2 19.25 -36.3 19.3 -36.45 19.3 -36.6 19.3 -36.8 19.3 -37.05 19.3 -37.25 19.3 -37.45 19.25 -37.65 19.25 -37.85 19.2 -38.05 19.1 -38.25 19.05 -38.45 18.95 -38.65 18.85 -38.8 18.7 -38.95 18.6 -39.15 18.45 -39.3 18.3 -39.45 18.15 -39.55 18.0 -39.6 17.95 -39.65 17.9 -39.7 17.8 -39.75 17.7 -39.8 17.6 -39.85 17.5 -39.9 17.4 -39.95 17.25 -40.0 17.1 -40.05 17.0 -40.1 16.8 -40.15 16.65 -40.2 16.5 -40.2 16.3 -40.2 16.15 -40.2 15.95 -40.2 15.7 -40.15 15.45 -40.1 15.2 -40.0 15.0 -39.9 14.75 -39.75 14.55 -39.65 14.35 -39.5 14.15 -39.3 13.95 -39.15 13.75 -38.95 13.55 -38.7 13.4 -38.5 13.25 -38.25 13.1 -38.0 13.0 -37.75 12.9 -37.6 11.8 -37.2 9.15 -36.85 6.8 -36.65 5.45 -36.55 5.1 -36.45 4.8 -36.35 4.45 -36.3 4.1 -36.15 3.75 -36.05 3.4 -35.95 3.0 -35.85 2.65 -35.7 2.25 -35.6 1.9 -35.45 1.5 -35.3 1.1 -35.15 0.65 -35.0 0.25 -34.85 -0.15 -34.7 -0.6 -34.55 -0.9 -34.5 -1.1 -34.35 -1.45 -34.2 -1.8 -34.05 -2.2 -33.85 -2.6 -33.65 -3.05 -33.45 -3.5 -33.2 -4.05 -32.95 -4.55 -32.65 -5.1 -32.35 -5.7 -32.05 -6.3 -31.75 -6.9 -31.4 -7.55 -31.0 -8.15 -30.65 -8.75 -30.3 -9.3 -29.9 -9.95 -29.5 -10.6 -29.0 -11.3 -28.55 -11.95 -28.0 -12.7 -27.5 -13.4 -26.9 -14.2 -26.3 -14.95 -25.6 -15.75 -24.95 -16.5 -24.2 -17.35 -23.45 -18.15 -22.65 -19.0 -21.8 -19.8 -21.85 -19.85 -21.85 -19.95 -21.9 -20.05 -21.95 -20.1 -22.0 -20.2 -22.0 -20.3 -22.05 -20.4 -22.05 -20.55 -22.1 -20.65 -22.1 -20.8 -22.15 -20.9 -22.15 -21.05 -22.15 -21.2 -22.15 -21.35 -22.15 -21.5 -22.1 -21.65 -22.05 -21.9 -22.0 -22.2 -21.9 -22.45 -21.75 -22.7 -21.65 -22.95 -21.45 -23.2 -21.3 -23.4 -21.05 -23.6 -20.85 -23.85 -20.6 -24.0 -20.35 -24.15 -20.1 -24.3 -19.8 -24.4 -19.5 -24.5 -19.2 -24.55 -18.9 -24.6 -18.65 -24.6 -18.4 -24.6 -18.1 -24.55 -17.85 -24.5 -17.6 -24.45 -17.35 -24.35 -17.15 -24.25 -16.9 -24.1 -16.7 -23.95 -16.5 -23.8 -16.3 -23.65 -16.1 -23.45 -15.9 -23.25 -15.75 -23.0 -15.6 -22.8 -15.5 -22.55 -14.7 -22.55 -13.95 -22.6 -13.2 -22.6 -12.45 -22.65 -11.75 -22.65 -11.1 -22.7 -10.45 -22.75 -9.8 -22.75 -9.2 -22.8 -8.6 -22.85 -8.0 -22.9 -7.45 -22.9 -6.95 -22.95 -6.45 -23.0 -6.0 -23.0 -5.55 -23.05 -1.25 -23.4 1.15 -23.4 1.5 -23.4 1.75 -23.4 2.1 -23.4 2.4 -23.4 2.75 -23.4 3.05 -23.4 3.4 -23.4 3.7 -23.4 4.05 -23.35 4.4 -23.35 4.8 -23.35 5.15 -23.3 5.55 -23.3 5.9 -23.25 6.3 -23.2 6.75 -23.15 7.1 -23.1 8.0 -23.0 8.85 -22.9 9.7 -22.8 10.6 -22.7 11.6 -22.65 12.6 -22.55 13.1 -22.5 13.3 -22.5 13.5 -22.45 13.75 -22.45 13.95 -22.4 14.2 -22.35 14.45 -22.35 14.7 -22.3 15.0 -22.25 15.25 -22.2 15.55 -22.2 15.85 -22.15 16.15 -22.1 16.45 -22.0 16.8 -21.95 17.1 -21.9 17.45 -21.85 L17.45 -21.85" fill="#ffc0cf" fill-rule="evenodd" stroke="none"/>
  </g>
</svg>
