<?xml version="1.0" encoding="UTF-8" standalone="no"?>
<svg xmlns:xlink="http://www.w3.org/1999/xlink" height="148.65px" width="75.2px" xmlns="http://www.w3.org/2000/svg">
  <g transform="matrix(1.0, 0.0, 0.0, 1.0, 37.6, 74.35)">
    <path d="M-35.3 -24.3 Q-35.15 -24.2 -35.0 -24.15 -34.85 -24.05 -34.65 -23.95 -34.45 -23.85 -34.25 -23.8 -33.95 -23.7 -33.7 -23.6 -33.45 -23.5 -33.15 -23.45 -32.8 -23.4 -32.5 -23.35 -32.15 -23.3 -31.8 -23.25 -31.4 -23.25 -31.0 -23.3 -30.9 -23.3 -30.75 -23.3 -30.6 -23.35 -30.35 -23.35 -30.1 -23.4 -29.85 -23.45 -29.5 -23.5 -29.2 -23.6 -28.85 -23.7 -28.55 -23.85 -28.15 -23.95 -27.85 -24.15 -27.5 -24.35 -27.15 -24.55 -26.8 -24.8 -26.55 -25.1 -26.2 -25.45 -25.95 -25.85 -25.7 -26.25 -25.55 -26.7 -25.4 -27.1 -25.3 -27.6 -25.2 -28.05 -25.15 -28.55 -25.1 -29.05 -25.1 -29.6 -25.15 -30.05 -25.15 -30.65 -25.2 -31.1 -25.2 -31.75 -25.3 -32.9 -25.3 -32.9 -25.4 -34.2 -25.45 -35.5 -25.45 -36.8 -25.45 -38.05 -25.45 -39.2 -25.45 -40.4 -25.4 -41.5 -25.3 -42.6 -25.25 -43.65 -25.15 -44.65 -25.05 -45.55 -24.95 -46.45 -24.85 -47.3 -24.75 -48.05 -24.6 -48.8 -24.5 -49.4 -24.3 -50.4 -24.2 -50.85 -24.05 -51.65 -23.9 -52.3 -23.7 -53.05 -23.55 -53.7 -23.3 -54.45 -23.1 -55.1 -22.85 -55.85 -22.55 -56.5 -22.2 -57.2 -21.85 -57.85 -21.45 -58.55 -21.0 -59.2 -20.55 -59.85 -20.0 -60.45 -19.3 -61.25 -18.45 -61.95 -17.7 -62.55 -16.8 -63.1 -15.95 -63.65 -15.0 -64.05 -14.1 -64.45 -13.05 -64.8 -12.15 -65.1 -11.05 -65.35 -10.05 -65.6 -8.9 -65.85 -7.9 -66.0 -6.65 -66.2 -5.85 -66.35 -4.25 -66.6 -2.75 -66.85 -1.2 -66.95 0.2 -67.05 1.6 -67.1 2.9 -67.1 4.15 -67.05 5.25 -67.0 6.4 -66.9 7.35 -66.8 8.3 -66.65 9.1 -66.55 9.9 -66.4 10.5 -66.3 11.1 -66.15 11.45 -66.05 11.85 -65.95 12.8 -65.7 13.35 -65.55 14.15 -65.35 14.85 -65.15 15.6 -64.9 16.3 -64.65 17.1 -64.4 17.75 -64.1 18.5 -63.75 19.2 -63.4 19.9 -63.0 20.55 -62.55 21.25 -62.05 21.85 -61.5 22.5 -60.9 23.1 -60.25 23.4 -59.9 23.7 -59.55 23.95 -59.15 24.2 -58.75 24.45 -58.4 24.65 -57.95 24.9 -57.55 25.1 -57.05 25.3 -56.6 25.55 -56.1 25.75 -55.6 26.0 -54.95 26.2 -54.45 26.45 -53.7 26.65 -53.25 27.0 -52.3 27.35 -51.35 27.65 -50.4 27.95 -49.5 28.2 -48.6 28.4 -47.75 28.65 -46.9 28.8 -46.1 29.0 -45.3 29.15 -44.6 29.3 -43.85 29.4 -43.15 29.5 -42.5 29.6 -41.9 29.7 -41.3 29.75 -40.85 29.85 -40.25 29.95 -39.65 30.0 -39.1 30.05 -38.55 30.1 -38.0 30.15 -37.45 30.2 -36.9 30.25 -36.4 30.3 -35.9 30.35 -35.45 30.35 -34.95 30.4 -34.5 30.4 -34.05 30.4 -33.65 30.45 -33.25 30.45 -32.85 30.45 -32.45 30.7 -32.4 30.95 -32.35 31.25 -32.25 31.55 -32.15 31.85 -32.05 32.15 -31.95 32.5 -31.85 32.85 -31.7 33.2 -31.5 33.5 -31.35 33.85 -31.15 34.2 -30.9 34.55 -30.7 34.9 -30.4 35.25 -30.15 35.55 -29.8 35.75 -29.6 35.85 -29.5 36.05 -29.35 36.2 -29.2 36.35 -29.0 36.5 -28.85 36.65 -28.65 36.8 -28.45 36.95 -28.25 37.05 -28.05 37.2 -27.8 37.3 -27.6 37.4 -27.35 37.5 -27.1 37.55 -26.85 37.6 -26.55 37.65 -26.2 37.65 -25.85 37.65 -25.55 37.6 -25.2 37.55 -24.9 37.45 -24.6 37.4 -24.35 37.3 -24.05 37.2 -23.8 37.05 -23.55 36.95 -23.35 36.8 -23.15 36.7 -22.95 36.6 -22.75 36.5 -22.65 36.4 -22.45 36.0 -21.85 35.5 -21.35 35.05 -20.9 34.5 -20.5 33.95 -20.15 33.4 -19.85 32.9 -19.55 32.35 -19.35 31.85 -19.15 31.35 -19.0 30.9 -18.85 30.45 -18.8 30.1 -18.7 29.7 -18.65 29.5 -18.6 29.25 -18.6 29.2 -18.15 29.1 -17.75 29.05 -17.25 28.95 -16.75 28.85 -16.2 28.7 -15.7 28.55 -15.1 28.4 -14.55 28.2 -13.95 28.0 -13.3 27.75 -12.7 27.5 -12.05 27.2 -11.4 26.9 -10.75 26.55 -10.05 26.15 -9.4 25.65 -8.55 25.1 -7.7 24.55 -6.95 23.95 -6.25 23.4 -5.55 22.8 -4.95 22.25 -4.35 21.6 -3.85 21.1 -3.35 20.5 -2.85 20.0 -2.45 19.45 -2.05 18.95 -1.75 18.45 -1.4 18.1 -1.15 17.6 -0.8 16.25 0.05 14.85 0.8 13.55 1.45 12.15 2.0 10.85 2.5 9.45 2.9 8.2 3.25 6.9 3.55 5.7 3.8 4.4 4.0 3.3 4.15 2.1 4.25 1.1 4.35 -0.05 4.4 -0.85 4.45 -2.0 4.5 -3.2 4.55 -3.85 4.55 -4.9 4.6 -5.85 4.6 -7.0 4.6 -8.05 4.5 -9.25 4.45 -10.35 4.3 -11.6 4.2 -12.85 3.95 -14.15 3.7 -15.4 3.35 -16.75 2.95 -18.05 2.45 -19.45 1.9 -20.8 1.25 -21.8 0.75 -22.75 0.2 -23.65 -0.35 -24.5 -0.95 -25.25 -1.45 -26.0 -2.05 -26.7 -2.6 -27.35 -3.15 -27.95 -3.7 -28.5 -4.2 -29.0 -4.7 -29.45 -5.2 -29.85 -5.6 -30.25 -6.05 -30.55 -6.4 -30.8 -6.75 -31.3 -7.35 -31.6 -7.75 -32.1 -8.3 -32.45 -8.85 -32.9 -9.45 -33.3 -10.05 -33.75 -10.7 -34.1 -11.35 -34.5 -12.1 -34.85 -12.8 -35.2 -13.6 -35.45 -14.4 -35.7 -15.25 -35.9 -16.1 -36.05 -17.0 -36.15 -17.95 -36.2 -18.45 -36.2 -18.95 -36.2 -19.4 -36.15 -19.9 -36.15 -20.35 -36.1 -20.8 -36.05 -21.2 -35.95 -21.65 -35.9 -22.0 -35.85 -22.4 -35.75 -22.75 -35.65 -23.1 -35.6 -23.4 -35.5 -23.75 -35.4 -24.0 -35.3 -24.3 L-35.3 -24.3" fill="#274754" fill-rule="evenodd" stroke="none"/>
    <path d="M-35.3 -24.3 Q-35.15 -24.2 -35.0 -24.15 -34.85 -24.05 -34.65 -23.95 -34.45 -23.85 -34.25 -23.8 -33.95 -23.7 -33.7 -23.6 -33.45 -23.5 -33.15 -23.45 -32.8 -23.4 -32.5 -23.35 -32.15 -23.3 -31.8 -23.25 -31.4 -23.25 -31.0 -23.3 -30.9 -23.3 -30.75 -23.3 -30.6 -23.35 -30.35 -23.35 -30.1 -23.4 -29.85 -23.45 -29.5 -23.5 -29.2 -23.6 -28.85 -23.7 -28.55 -23.85 -28.15 -23.95 -27.85 -24.15 -27.5 -24.35 -27.15 -24.55 -26.8 -24.8 -26.55 -25.1 -26.2 -25.45 -25.95 -25.85 -25.7 -26.25 -25.55 -26.7 -25.4 -27.1 -25.3 -27.6 -25.2 -28.05 -25.15 -28.55 -25.1 -29.05 -25.1 -29.6 -25.15 -30.05 -25.15 -30.65 -25.2 -31.1 -25.2 -31.75 -25.3 -32.9 -25.3 -32.9 -25.4 -34.2 -25.45 -35.5 -25.45 -36.8 -25.45 -38.05 -25.45 -39.2 -25.45 -40.4 -25.4 -41.5 -25.3 -42.6 -25.25 -43.65 -25.15 -44.65 -25.05 -45.55 -24.95 -46.45 -24.85 -47.3 -24.75 -48.05 -24.6 -48.8 -24.5 -49.4 -24.3 -50.4 -24.2 -50.85 -24.05 -51.65 -23.9 -52.3 -23.7 -53.05 -23.55 -53.7 -23.3 -54.45 -23.1 -55.1 -22.85 -55.85 -22.55 -56.5 -22.2 -57.2 -21.85 -57.85 -21.45 -58.55 -21.0 -59.2 -20.55 -59.85 -20.0 -60.45 -19.3 -61.25 -18.45 -61.95 -17.7 -62.55 -16.8 -63.1 -15.95 -63.65 -15.0 -64.05 -14.1 -64.45 -13.05 -64.8 -12.15 -65.1 -11.05 -65.35 -10.05 -65.6 -8.9 -65.85 -7.9 -66.0 -6.65 -66.2 -5.85 -66.35 -4.25 -66.6 -2.75 -66.85 -1.2 -66.95 0.2 -67.05 1.6 -67.1 2.9 -67.1 4.15 -67.05 5.25 -67.0 6.4 -66.9 7.35 -66.8 8.3 -66.65 9.1 -66.55 9.9 -66.4 10.5 -66.3 11.1 -66.15 11.45 -66.05 11.85 -65.95 12.8 -65.7 13.35 -65.55 14.15 -65.35 14.85 -65.15 15.6 -64.9 16.3 -64.65 17.1 -64.4 17.75 -64.1 18.5 -63.75 19.2 -63.4 19.9 -63.0 20.55 -62.55 21.25 -62.05 21.85 -61.5 22.5 -60.9 23.1 -60.25 23.4 -59.9 23.7 -59.55 23.95 -59.15 24.2 -58.75 24.45 -58.4 24.65 -57.95 24.9 -57.55 25.1 -57.05 25.3 -56.6 25.55 -56.1 25.75 -55.6 26.0 -54.95 26.2 -54.45 26.45 -53.7 26.65 -53.25 27.0 -52.3 27.35 -51.35 27.65 -50.4 27.95 -49.5 28.2 -48.6 28.4 -47.75 28.65 -46.9 28.8 -46.1 29.0 -45.3 29.15 -44.6 29.3 -43.85 29.4 -43.15 29.5 -42.5 29.6 -41.9 29.7 -41.3 29.75 -40.85 29.85 -40.25 29.95 -39.65 30.0 -39.1 30.05 -38.55 30.1 -38.0 30.15 -37.45 30.2 -36.9 30.25 -36.4 30.3 -35.9 30.35 -35.45 30.35 -34.95 30.4 -34.5 30.4 -34.05 30.4 -33.65 30.45 -33.25 30.45 -32.85 30.45 -32.45 30.7 -32.4 30.95 -32.35 31.25 -32.25 31.55 -32.15 31.85 -32.05 32.15 -31.95 32.5 -31.85 32.85 -31.7 33.2 -31.5 33.5 -31.35 33.85 -31.15 34.2 -30.9 34.55 -30.7 34.9 -30.4 35.25 -30.15 35.55 -29.8 35.75 -29.6 35.85 -29.5 36.05 -29.35 36.2 -29.2 36.35 -29.0 36.5 -28.85 36.65 -28.65 36.8 -28.45 36.95 -28.25 37.05 -28.05 37.2 -27.8 37.3 -27.6 37.4 -27.35 37.5 -27.1 37.55 -26.85 37.6 -26.55 37.65 -26.2 37.65 -25.85 37.65 -25.55 37.6 -25.2 37.55 -24.9 37.45 -24.6 37.4 -24.35 37.3 -24.05 37.2 -23.8 37.05 -23.55 36.95 -23.35 36.8 -23.15 36.7 -22.95 36.6 -22.75 36.5 -22.65 36.4 -22.45 36.0 -21.85 35.5 -21.35 35.05 -20.9 34.5 -20.5 33.95 -20.15 33.4 -19.85 32.9 -19.55 32.35 -19.35 31.85 -19.15 31.35 -19.0 30.9 -18.85 30.45 -18.8 30.1 -18.7 29.7 -18.65 29.5 -18.6 29.25 -18.6 29.2 -18.15 29.1 -17.75 29.05 -17.25 28.95 -16.75 28.85 -16.2 28.7 -15.7 28.55 -15.1 28.4 -14.55 28.2 -13.95 28.0 -13.3 27.75 -12.7 27.5 -12.05 27.2 -11.4 26.9 -10.75 26.55 -10.05 26.15 -9.4 25.65 -8.55 25.1 -7.7 24.55 -6.95 23.95 -6.25 23.4 -5.55 22.8 -4.95 22.25 -4.35 21.6 -3.85 21.1 -3.35 20.5 -2.85 20.0 -2.45 19.45 -2.05 18.95 -1.75 18.45 -1.4 18.1 -1.15 17.6 -0.8 16.25 0.05 14.85 0.8 13.55 1.45 12.15 2.0 10.85 2.5 9.45 2.9 8.2 3.25 6.9 3.55 5.7 3.8 4.4 4.0 3.3 4.15 2.1 4.25 1.1 4.35 -0.05 4.4 -0.85 4.45 -2.0 4.5 -3.2 4.55 -3.85 4.55 -4.9 4.6 -5.85 4.6 -7.0 4.6 -8.05 4.5 -9.25 4.45 -10.35 4.3 -11.6 4.2 -12.85 3.95 -14.15 3.7 -15.4 3.35 -16.75 2.95 -18.05 2.45 -19.45 1.9 -20.8 1.25 -21.8 0.75 -22.75 0.2 -23.65 -0.35 -24.5 -0.95 -25.25 -1.45 -26.0 -2.05 -26.7 -2.6 -27.35 -3.15 -27.95 -3.7 -28.5 -4.2 -29.0 -4.7 -29.45 -5.2 -29.85 -5.6 -30.25 -6.05 -30.55 -6.4 -30.8 -6.75 -31.3 -7.35 -31.6 -7.75 -32.1 -8.3 -32.45 -8.85 -32.9 -9.45 -33.3 -10.05 -33.75 -10.7 -34.1 -11.35 -34.5 -12.1 -34.85 -12.8 -35.2 -13.6 -35.45 -14.4 -35.7 -15.25 -35.9 -16.1 -36.05 -17.0 -36.15 -17.95 -36.2 -18.45 -36.2 -18.95 -36.2 -19.4 -36.15 -19.9 -36.15 -20.35 -36.1 -20.8 -36.05 -21.2 -35.95 -21.65 -35.9 -22.0 -35.85 -22.4 -35.75 -22.75 -35.65 -23.1 -35.6 -23.4 -35.5 -23.75 -35.4 -24.0 -35.3 -24.3 L-35.3 -24.3 Z" fill="none" stroke="#000000" stroke-linecap="round" stroke-linejoin="round" stroke-width="1.0"/>
  </g>
</svg>
