<?xml version="1.0" encoding="UTF-8" standalone="no"?>
<svg xmlns:xlink="http://www.w3.org/1999/xlink" height="75.75px" width="49.3px" xmlns="http://www.w3.org/2000/svg">
  <g transform="matrix(1.0, 0.0, 0.0, 1.0, 24.65, 37.9)">
    <path d="M-12.9 19.15 Q-12.85 17.0 -12.75 16.45 -12.75 16.6 -12.75 16.35 -12.75 16.3 -12.75 16.25 -12.75 16.2 -12.75 16.15 -12.75 16.15 -12.75 16.1 -12.75 16.05 -12.8 16.05 -12.8 16.0 -12.85 16.0 -12.9 15.95 -12.95 15.95 -13.05 15.95 -13.1 15.95 -13.7 15.9 -14.2 15.8 -14.7 15.7 -15.1 15.5 -15.5 15.3 -15.85 15.05 -16.15 14.75 -16.4 14.4 -16.65 14.05 -16.75 13.65 -16.9 13.25 -16.95 12.8 -17.0 12.3 -16.95 11.8 -16.9 11.25 -16.75 10.65 -16.65 10.3 -16.55 10.0 -16.45 9.65 -16.3 9.35 -16.15 9.05 -16.0 8.7 -15.85 8.4 -15.7 8.1 -15.5 7.85 -15.3 7.55 -15.15 7.25 -14.95 7.0 -14.75 6.7 -14.55 6.45 -14.35 6.2 -14.1 5.9 -14.1 5.9 -14.0 5.8 -13.95 5.7 -13.9 5.7 -13.9 5.65 -13.85 5.6 -13.85 5.55 -13.85 5.5 -13.8 5.45 -13.85 5.4 -13.85 5.35 -13.9 5.3 -13.9 5.25 -14.0 5.2 -14.05 5.15 -14.15 5.1 -15.2 4.55 -16.05 3.85 -16.9 3.2 -17.55 2.45 -18.2 1.7 -18.7 0.9 -19.2 0.05 -19.55 -0.85 -19.9 -1.7 -20.1 -2.7 -20.3 -3.6 -20.35 -4.65 -20.45 -5.65 -20.4 -6.75 -20.35 -7.8 -20.2 -8.9 -20.2 -9.0 -20.2 -9.1 -20.15 -9.2 -20.15 -9.3 -20.15 -9.4 -20.2 -9.5 -20.2 -9.55 -20.2 -9.65 -20.25 -9.7 -20.3 -9.8 -20.35 -9.85 -20.4 -9.9 -20.45 -9.95 -20.55 -10.05 -20.65 -10.1 -20.75 -10.15 -21.25 -10.4 -21.7 -10.75 -22.1 -11.05 -22.5 -11.45 -22.85 -11.8 -23.15 -12.25 -23.45 -12.65 -23.7 -13.1 -23.9 -13.55 -24.1 -14.05 -24.3 -14.5 -24.45 -15.05 -24.55 -15.5 -24.65 -16.05 -24.75 -16.6 -24.8 -17.15 -24.95 -18.55 -24.75 -19.85 -24.55 -21.05 -24.05 -22.15 -23.6 -23.15 -22.85 -23.95 -22.1 -24.75 -21.2 -25.35 -20.3 -25.95 -19.25 -26.3 -18.25 -26.65 -17.2 -26.8 -16.15 -26.9 -15.15 -26.8 -14.1 -26.7 -13.15 -26.4 -12.9 -26.3 -12.8 -26.25 -12.6 -26.2 -12.45 -26.15 -12.25 -26.05 -12.1 -26.0 -11.9 -25.9 -11.75 -25.85 -11.55 -25.75 -11.4 -25.7 -11.2 -25.6 -11.05 -25.5 -10.85 -25.4 -10.7 -25.3 -10.55 -25.2 -10.35 -25.1 -10.3 -25.05 -10.25 -25.05 -10.15 -25.0 -10.1 -24.95 -10.05 -24.95 -10.0 -24.95 -9.95 -24.9 -9.85 -24.9 -9.8 -24.9 -9.75 -24.9 -9.7 -24.9 -9.6 -24.95 -9.55 -24.95 -9.5 -24.95 -9.4 -25.0 -9.35 -25.0 -8.25 -25.4 -7.15 -25.7 -6.05 -26.0 -4.95 -26.2 -3.85 -26.4 -2.75 -26.5 -1.6 -26.6 -0.5 -26.6 0.6 -26.6 1.7 -26.5 2.8 -26.4 3.9 -26.2 5.0 -26.0 6.1 -25.7 7.2 -25.4 8.3 -25.0 8.4 -24.95 8.45 -24.95 8.55 -24.95 8.65 -24.95 8.7 -24.9 8.8 -24.95 8.85 -24.95 8.95 -24.95 9.0 -24.95 9.05 -25.0 9.15 -25.05 9.2 -25.05 9.25 -25.1 9.35 -25.15 9.4 -25.15 9.5 -25.2 10.05 -25.55 10.65 -25.8 11.2 -26.05 11.8 -26.25 12.35 -26.5 12.95 -26.6 13.55 -26.75 14.1 -26.8 14.7 -26.9 15.3 -26.85 15.9 -26.85 16.5 -26.75 17.1 -26.65 17.7 -26.45 18.3 -26.3 18.9 -26.0 19.75 -25.6 20.5 -25.05 21.2 -24.55 21.8 -23.85 22.35 -23.2 22.8 -22.45 23.2 -21.7 23.45 -20.85 23.75 -20.0 23.8 -19.1 23.9 -18.2 23.85 -17.3 23.75 -16.35 23.5 -15.4 23.25 -14.45 22.8 -13.55 22.65 -13.25 22.5 -13.0 22.35 -12.7 22.2 -12.45 22.05 -12.2 21.85 -11.95 21.65 -11.7 21.45 -11.5 21.25 -11.25 21.05 -11.05 20.8 -10.85 20.6 -10.7 20.35 -10.5 20.1 -10.35 19.8 -10.2 19.55 -10.05 19.45 -10.0 19.35 -9.95 19.3 -9.9 19.25 -9.85 19.2 -9.8 19.15 -9.7 19.1 -9.65 19.1 -9.6 19.1 -9.55 19.1 -9.45 19.1 -9.4 19.1 -9.3 19.1 -9.25 19.1 -9.15 19.15 -8.9 19.15 -9.0 19.2 -8.6 19.25 -8.15 19.3 -7.75 19.35 -7.3 19.35 -6.9 19.35 -6.45 19.35 -6.05 19.35 -5.65 19.35 -5.2 19.3 -4.8 19.3 -4.35 19.2 -3.95 19.15 -3.55 19.1 -3.1 19.0 -2.7 18.95 -2.25 18.8 -1.65 18.6 -1.05 18.4 -0.45 18.15 0.05 17.9 0.6 17.55 1.1 17.25 1.55 16.9 2.0 16.55 2.45 16.1 2.85 15.7 3.25 15.25 3.6 14.8 3.95 14.35 4.3 13.85 4.65 13.3 4.95 13.2 5.05 13.1 5.1 13.0 5.15 12.95 5.2 12.9 5.3 12.85 5.35 12.85 5.4 12.85 5.45 12.85 5.5 12.85 5.6 12.85 5.65 12.9 5.75 12.95 5.8 13.0 5.9 13.1 5.95 13.15 6.05 13.4 6.35 13.65 6.65 13.9 7.0 14.1 7.3 14.35 7.65 14.55 7.95 14.75 8.3 14.95 8.65 15.1 9.0 15.25 9.35 15.4 9.75 15.55 10.1 15.65 10.5 15.75 10.85 15.85 11.3 15.9 11.7 15.95 12.15 15.9 12.6 15.9 13.0 15.8 13.4 15.7 13.8 15.5 14.15 15.3 14.5 15.1 14.75 14.85 15.05 14.55 15.25 14.25 15.5 13.85 15.65 13.5 15.8 13.1 15.85 12.7 15.95 12.25 15.95 12.15 15.95 12.05 15.95 12.0 15.95 11.9 15.95 11.85 16.0 11.8 16.0 11.8 16.05 11.75 16.1 11.75 16.1 11.7 16.15 11.7 16.2 11.7 16.25 11.7 16.3 11.7 16.4 11.7 16.45 11.7 16.55 11.75 16.9 11.8 17.25 11.8 17.6 11.85 17.95 11.85 18.3 11.85 18.65 11.9 19.0 11.9 19.35 11.9 19.7 11.85 20.0 11.85 20.35 11.85 20.7 11.8 21.05 11.75 21.4 11.75 21.75 11.7 22.1 11.65 22.35 11.6 22.6 11.55 22.8 11.5 23.05 11.4 23.25 11.3 23.45 11.2 23.65 11.1 23.85 11.0 24.05 10.85 24.25 10.7 24.4 10.55 24.55 10.35 24.75 10.2 24.85 10.0 25.0 9.8 25.15 9.4 25.4 8.95 25.65 8.5 25.85 8.05 26.05 7.6 26.2 7.15 26.35 6.7 26.5 6.25 26.55 5.75 26.65 5.3 26.7 4.85 26.75 4.35 26.8 3.9 26.8 3.4 26.8 2.9 26.75 2.4 26.7 2.25 26.7 2.05 26.65 1.9 26.65 1.75 26.6 1.55 26.55 1.4 26.45 1.25 26.4 1.1 26.3 0.95 26.25 0.8 26.15 0.65 26.05 0.5 25.95 0.35 25.85 0.2 25.75 0.05 25.65 -0.1 25.5 -0.1 25.5 -0.2 25.45 -0.25 25.4 -0.25 25.35 -0.3 25.35 -0.35 25.3 -0.4 25.3 -0.4 25.25 -0.45 25.25 -0.5 25.25 -0.55 25.25 -0.6 25.25 -0.65 25.3 -0.7 25.3 -0.8 25.35 -0.85 25.4 -1.2 25.75 -1.6 26.0 -2.0 26.25 -2.45 26.4 -2.8 26.6 -3.25 26.7 -3.65 26.75 -4.1 26.8 -4.5 26.85 -4.95 26.8 -5.35 26.8 -5.85 26.75 -6.25 26.7 -6.75 26.65 -7.05 26.6 -7.6 26.5 -7.65 26.5 -7.8 26.45 -7.9 26.4 -7.95 26.4 -8.75 26.15 -9.4 25.9 -10.05 25.65 -10.55 25.35 -11.05 25.05 -11.45 24.75 -11.8 24.4 -12.05 24.0 -12.3 23.65 -12.5 23.2 -12.65 22.8 -12.75 22.3 -12.8 21.8 -12.85 21.2 -12.9 20.7 -12.9 20.0 -12.9 19.85 -12.9 19.15 L-12.9 19.15 M-18.7 -6.15 Q-18.7 -5.4 -18.65 -4.65 -18.55 -3.95 -18.4 -3.25 -18.3 -2.6 -18.05 -1.95 -17.85 -1.3 -17.55 -0.75 -17.25 -0.15 -16.85 0.4 -16.5 0.95 -16.0 1.45 -15.55 1.95 -15.0 2.4 -14.4 2.85 -13.75 3.25 -13.1 3.65 -12.4 3.95 -11.75 4.3 -11.0 4.55 -10.35 4.75 -9.6 4.95 -8.9 5.1 -8.15 5.25 -7.45 5.4 -6.7 5.45 -6.0 5.55 -5.25 5.6 -4.6 5.65 -3.75 5.7 -3.3 5.75 -2.25 5.8 -2.2 5.8 -2.15 5.8 -2.05 5.8 -2.05 5.75 -2.0 5.75 -1.95 5.7 -1.95 5.7 -1.9 5.65 -1.9 5.6 -1.85 5.55 -1.85 5.55 -1.85 5.5 -1.85 5.45 -1.85 5.4 -1.8 5.35 -1.8 5.25 -1.8 5.1 -1.75 4.95 -1.75 4.8 -1.7 4.65 -1.65 4.5 -1.6 4.35 -1.55 4.2 -1.5 4.05 -1.45 3.9 -1.4 3.75 -1.35 3.6 -1.25 3.45 -1.2 3.35 -1.1 3.2 -1.0 3.05 -0.95 2.95 -0.8 2.7 -0.65 2.5 -0.45 2.35 -0.3 2.2 -0.15 2.05 0.0 1.95 0.2 1.9 0.35 1.85 0.55 1.8 0.75 1.8 0.9 1.85 1.1 1.9 1.3 1.95 1.55 2.05 1.75 2.15 2.0 2.3 2.2 2.45 2.4 2.6 2.6 2.7 2.8 2.85 3.0 3.0 3.2 3.2 3.35 3.35 3.55 3.5 3.75 3.65 3.95 3.85 4.1 4.0 4.3 4.15 4.45 4.35 4.65 4.5 4.8 4.7 5.0 4.85 5.1 4.95 5.2 5.05 5.3 5.1 5.35 5.15 5.45 5.25 5.55 5.25 5.65 5.3 5.75 5.35 5.85 5.35 5.95 5.35 6.05 5.4 6.15 5.4 6.25 5.35 6.35 5.35 6.5 5.35 6.6 5.3 6.75 5.25 9.1 4.55 10.6 4.1 11.55 3.75 12.0 3.6 12.45 3.4 12.9 3.2 13.3 2.9 13.7 2.65 14.1 2.4 14.5 2.1 14.8 1.75 15.15 1.4 15.5 1.0 15.8 0.6 16.05 0.2 16.3 -0.25 16.55 -0.7 16.75 -1.2 16.95 -1.7 17.1 -2.2 17.25 -2.7 17.35 -3.2 17.45 -3.7 17.5 -4.2 17.55 -4.75 17.6 -5.25 17.65 -5.75 17.65 -6.25 17.6 -6.75 17.6 -7.25 17.55 -7.75 17.5 -8.25 17.4 -8.8 17.3 -9.3 17.2 -9.8 17.15 -9.95 17.15 -10.05 17.15 -10.15 17.15 -10.2 17.15 -10.3 17.2 -10.4 17.2 -10.45 17.25 -10.5 17.25 -10.55 17.3 -10.6 17.35 -10.65 17.45 -10.7 17.5 -10.75 17.55 -10.8 17.65 -10.85 17.75 -10.9 18.1 -11.1 18.4 -11.25 18.7 -11.45 19.0 -11.7 19.25 -11.9 19.55 -12.1 19.8 -12.35 20.05 -12.6 20.3 -12.85 20.5 -13.15 20.75 -13.45 20.9 -13.75 21.1 -14.05 21.25 -14.4 21.4 -14.75 21.55 -15.1 21.8 -15.95 21.95 -16.75 22.1 -17.55 22.1 -18.3 22.1 -19.05 22.0 -19.7 21.85 -20.4 21.6 -21.0 21.35 -21.65 20.95 -22.2 20.55 -22.75 20.0 -23.2 19.45 -23.65 18.75 -24.0 18.1 -24.4 17.25 -24.65 16.75 -24.8 16.3 -24.9 15.8 -25.0 15.35 -25.05 14.9 -25.05 14.4 -25.0 13.95 -25.0 13.5 -24.9 13.05 -24.8 12.6 -24.65 12.15 -24.5 11.75 -24.3 11.3 -24.15 10.85 -23.9 10.45 -23.65 10.05 -23.35 9.9 -23.25 9.8 -23.2 9.7 -23.15 9.55 -23.1 9.45 -23.05 9.35 -23.0 9.2 -22.95 9.1 -22.95 9.0 -22.95 8.9 -22.95 8.75 -22.95 8.65 -22.95 8.55 -23.0 8.4 -23.0 8.3 -23.05 8.15 -23.1 7.7 -23.3 7.2 -23.45 6.75 -23.6 6.3 -23.75 5.8 -23.9 5.35 -24.0 4.85 -24.15 4.4 -24.25 3.9 -24.35 3.45 -24.45 2.95 -24.5 2.45 -24.6 2.0 -24.65 1.5 -24.7 1.0 -24.75 0.5 -24.75 -0.15 -24.8 -0.8 -24.75 -1.45 -24.75 -2.1 -24.7 -2.7 -24.65 -3.35 -24.6 -4.0 -24.5 -4.6 -24.4 -5.25 -24.3 -5.85 -24.15 -6.5 -24.0 -7.1 -23.8 -7.7 -23.65 -8.35 -23.45 -8.95 -23.25 -9.55 -23.0 -9.65 -22.95 -9.7 -22.95 -9.8 -22.9 -9.9 -22.9 -9.95 -22.9 -10.05 -22.9 -10.1 -22.85 -10.2 -22.85 -10.25 -22.9 -10.3 -22.9 -10.4 -22.9 -10.45 -22.95 -10.55 -22.95 -10.6 -23.0 -10.65 -23.05 -10.75 -23.1 -10.9 -23.25 -11.1 -23.4 -11.25 -23.5 -11.45 -23.65 -11.6 -23.75 -11.8 -23.85 -12.0 -23.95 -12.2 -24.05 -12.4 -24.15 -12.6 -24.25 -12.75 -24.3 -13.0 -24.4 -13.15 -24.45 -13.4 -24.5 -13.6 -24.6 -13.8 -24.65 -14.35 -24.8 -14.9 -24.9 -15.4 -25.0 -15.95 -25.0 -16.45 -25.05 -16.95 -25.0 -17.45 -24.95 -17.95 -24.8 -18.45 -24.7 -18.9 -24.5 -19.4 -24.3 -19.8 -24.05 -20.3 -23.75 -20.7 -23.4 -21.15 -23.1 -21.55 -22.65 -21.9 -22.3 -22.15 -21.9 -22.45 -21.55 -22.6 -21.1 -22.8 -20.7 -22.95 -20.3 -23.05 -19.9 -23.1 -19.45 -23.15 -19.0 -23.15 -18.55 -23.15 -18.1 -23.1 -17.65 -23.05 -17.2 -23.0 -16.75 -22.9 -16.3 -22.8 -15.8 -22.7 -15.35 -22.55 -14.95 -22.4 -14.55 -22.2 -14.15 -22.0 -13.8 -21.75 -13.45 -21.5 -13.1 -21.25 -12.8 -21.0 -12.5 -20.65 -12.2 -20.4 -11.95 -20.05 -11.65 -19.75 -11.4 -19.4 -11.15 -19.1 -10.9 -18.7 -10.65 -18.6 -10.6 -18.55 -10.55 -18.5 -10.5 -18.45 -10.45 -18.4 -10.4 -18.35 -10.35 -18.3 -10.25 -18.3 -10.2 -18.3 -10.15 -18.25 -10.1 -18.25 -10.05 -18.25 -9.95 -18.25 -9.9 -18.25 -9.8 -18.3 -9.7 -18.3 -9.65 -18.35 -9.45 -18.4 -9.2 -18.45 -9.0 -18.45 -8.8 -18.5 -8.55 -18.5 -8.35 -18.55 -8.15 -18.55 -7.9 -18.6 -7.7 -18.6 -7.5 -18.65 -7.25 -18.65 -7.05 -18.65 -6.85 -18.65 -6.6 -18.7 -6.4 -18.7 -6.15 L-18.7 -6.15 M4.95 8.75 Q4.7 9.05 4.45 9.3 4.2 9.55 3.95 9.8 3.7 10.0 3.4 10.2 3.15 10.4 2.85 10.6 2.55 10.75 2.25 10.9 2.0 11.05 1.65 11.2 1.4 11.3 1.05 11.45 0.75 11.55 0.45 11.65 0.1 11.75 -0.2 11.8 -0.5 11.85 -0.75 11.8 -1.05 11.8 -1.3 11.7 -1.5 11.6 -1.7 11.45 -1.9 11.3 -2.05 11.1 -2.25 10.9 -2.35 10.65 -2.45 10.4 -2.55 10.05 -2.6 9.75 -2.65 9.4 -2.65 9.3 -2.65 9.2 -2.65 9.15 -2.7 9.1 -2.7 9.0 -2.75 9.0 -2.75 8.95 -2.8 8.9 -2.8 8.85 -2.85 8.85 -2.9 8.8 -2.95 8.8 -3.05 8.8 -3.1 8.8 -3.15 8.8 -3.25 8.8 -4.55 8.75 -6.15 8.65 -6.35 8.65 -6.55 8.6 -6.75 8.6 -6.95 8.55 -7.2 8.5 -7.35 8.45 -7.55 8.4 -7.75 8.35 -7.95 8.3 -8.15 8.2 -8.35 8.15 -8.5 8.05 -8.65 7.95 -8.85 7.8 -9.0 7.7 -9.15 7.5 -9.25 7.35 -9.4 7.25 -9.55 7.15 -9.7 7.05 -9.8 6.95 -9.95 6.9 -10.1 6.85 -10.25 6.75 -10.4 6.7 -10.55 6.65 -10.65 6.65 -10.9 6.55 -11.05 6.5 -11.2 6.45 -11.35 6.4 -11.5 6.35 -11.55 6.35 -11.6 6.3 -11.65 6.3 -11.7 6.3 -11.75 6.3 -11.75 6.3 -11.8 6.3 -11.85 6.3 -11.9 6.3 -11.95 6.3 -11.95 6.3 -12.0 6.35 -12.05 6.35 -12.1 6.4 -12.1 6.4 -12.15 6.45 -12.45 6.75 -12.7 7.05 -12.95 7.35 -13.2 7.65 -13.45 7.95 -13.7 8.3 -13.9 8.6 -14.1 8.95 -14.35 9.3 -14.5 9.65 -14.65 10.0 -14.8 10.35 -14.95 10.75 -15.05 11.15 -15.15 11.55 -15.2 11.95 -15.25 12.2 -15.2 12.45 -15.2 12.7 -15.15 12.95 -15.05 13.15 -14.95 13.35 -14.85 13.55 -14.65 13.65 -14.5 13.8 -14.35 13.9 -14.15 14.0 -13.9 14.05 -13.7 14.1 -13.45 14.1 -13.2 14.1 -12.95 14.05 -12.75 14.0 -12.6 13.95 -12.4 13.9 -12.25 13.8 -12.05 13.75 -11.9 13.65 -11.75 13.55 -11.6 13.45 -11.45 13.35 -11.3 13.25 -11.15 13.15 -11.0 13.05 -10.85 12.9 -10.7 12.8 -10.55 12.65 -10.4 12.5 -10.35 12.45 -10.35 12.4 -10.3 12.4 -10.25 12.3 -10.2 12.25 -10.2 12.2 -10.15 12.15 -10.1 12.15 -10.05 12.1 -10.0 12.05 -9.95 12.0 -9.95 11.95 -9.85 11.95 -9.8 11.9 -9.75 11.9 -9.7 11.9 -9.7 11.95 -9.65 12.05 -9.65 12.1 -9.65 12.15 -9.65 12.25 -9.7 12.3 -9.7 12.35 -9.7 12.4 -9.75 12.45 -9.75 12.55 -9.75 12.6 -9.8 12.65 -9.85 12.75 -9.85 12.75 -9.9 12.85 -9.9 12.9 -10.0 13.2 -10.4 14.35 -10.75 15.2 -10.85 15.8 -10.95 16.15 -11.0 16.5 -11.05 16.85 -11.1 17.25 -11.15 17.6 -11.15 17.95 -11.15 18.3 -11.15 18.7 -11.15 19.05 -11.15 19.4 -11.15 19.75 -11.15 20.15 -11.1 20.45 -11.1 20.9 -11.1 21.05 -11.05 21.6 -11.05 21.8 -11.0 22.0 -10.95 22.2 -10.9 22.4 -10.85 22.55 -10.75 22.7 -10.65 22.9 -10.55 23.05 -10.45 23.15 -10.3 23.3 -10.2 23.4 -10.05 23.55 -9.85 23.65 -9.7 23.7 -9.5 23.8 -9.35 23.9 -9.25 23.45 -9.2 23.25 -9.1 22.95 -9.05 22.75 -9.0 22.55 -8.9 22.35 -8.8 22.2 -8.7 22.0 -8.6 21.85 -8.5 21.7 -8.35 21.55 -8.15 21.35 -8.0 21.2 -7.75 20.95 -7.6 20.8 -7.2 20.45 -7.15 20.4 -7.15 20.4 -7.1 20.35 -7.1 20.3 -7.05 20.3 -7.05 20.25 -7.0 20.2 -7.0 20.2 -7.0 20.15 -7.0 20.1 -6.95 19.9 -6.9 19.7 -6.85 19.5 -6.8 19.4 -6.7 19.25 -6.65 19.15 -6.55 19.05 -6.45 19.0 -6.35 18.95 -6.2 18.9 -6.1 18.9 -5.95 18.9 -5.8 18.9 -5.65 18.95 -5.45 19.0 -5.25 19.1 -3.55 19.85 -3.05 19.9 -2.55 20.0 -2.1 20.05 -1.55 20.1 -1.1 20.15 -0.6 20.2 -0.15 20.2 0.35 20.2 0.8 20.2 1.3 20.15 1.75 20.1 2.25 20.0 2.7 19.85 3.2 19.75 3.65 19.55 4.1 19.35 4.55 19.1 4.6 19.05 4.65 19.05 4.7 19.0 4.75 19.0 4.8 18.95 4.85 18.95 4.9 18.95 4.95 18.9 5.0 18.9 5.1 18.9 5.15 18.85 5.2 18.85 5.25 18.85 5.3 18.85 5.35 18.85 5.4 18.85 5.55 18.8 5.7 18.8 5.85 18.8 5.95 18.85 6.1 18.85 6.2 18.95 6.25 19.0 6.35 19.05 6.4 19.15 6.45 19.25 6.45 19.35 6.5 19.45 6.5 19.55 6.5 19.7 6.45 19.85 6.4 20.05 6.4 20.1 6.4 20.15 6.35 20.15 6.35 20.2 6.35 20.25 6.3 20.3 6.3 20.3 6.3 20.35 6.3 20.4 6.3 20.45 6.3 20.45 6.3 20.5 6.35 20.55 6.4 20.55 6.4 20.6 6.45 20.65 6.65 20.8 6.85 20.95 7.05 21.1 7.2 21.3 7.35 21.45 7.5 21.65 7.6 21.85 7.7 22.05 7.8 22.25 7.9 22.5 8.0 22.7 8.05 22.95 8.1 23.15 8.15 23.4 8.2 23.65 8.25 23.9 8.45 23.85 8.65 23.75 8.8 23.65 8.95 23.55 9.15 23.4 9.25 23.3 9.4 23.15 9.5 23.0 9.6 22.85 9.7 22.7 9.8 22.55 9.85 22.35 9.9 22.2 9.95 22.0 10.0 21.8 10.0 21.6 10.0 21.2 10.05 20.9 10.05 20.5 10.05 20.2 10.1 19.8 10.1 19.45 10.1 19.1 10.1 18.75 10.1 18.4 10.1 18.05 10.05 17.7 10.05 17.35 10.0 17.0 9.95 16.65 9.95 16.3 9.9 15.95 9.85 15.75 9.8 15.6 9.75 15.4 9.65 15.25 9.6 15.1 9.5 14.95 9.4 14.85 9.3 14.75 9.15 14.65 9.05 14.55 8.9 14.45 8.8 14.35 8.65 14.3 8.5 14.25 8.35 14.2 8.2 14.15 8.0 14.1 7.8 14.0 7.65 13.95 7.5 13.85 7.3 13.75 7.15 13.65 7.0 13.55 6.9 13.4 6.75 13.3 6.65 13.15 6.5 13.0 6.4 12.85 6.3 12.7 6.2 12.55 6.1 12.4 6.0 12.2 5.9 12.0 5.8 11.8 5.7 11.6 5.65 11.4 5.55 11.2 5.5 11.0 5.45 10.8 5.35 10.6 5.3 10.35 5.25 10.15 5.2 9.95 5.15 9.7 5.1 9.5 5.05 9.25 5.0 9.05 4.95 8.75 L4.95 8.75 M3.55 25.0 Q5.1 24.85 5.45 24.8 5.65 24.8 5.8 24.75 5.95 24.7 6.05 24.65 6.15 24.6 6.25 24.55 6.35 24.45 6.4 24.4 6.45 24.3 6.45 24.2 6.45 24.05 6.45 23.95 6.45 23.8 6.4 23.65 6.35 23.5 6.3 23.3 6.25 23.1 6.1 22.9 6.0 22.7 5.8 22.5 5.65 22.3 5.45 22.15 5.25 22.0 5.0 21.9 4.8 21.8 4.55 21.7 4.3 21.6 4.05 21.6 3.8 21.55 3.6 21.55 3.35 21.55 3.15 21.65 1.85 22.0 1.3 22.0 1.2 22.0 1.1 22.0 1.0 22.05 0.95 22.05 0.9 22.1 0.8 22.1 0.75 22.15 0.7 22.2 0.65 22.25 0.65 22.3 0.6 22.35 0.6 22.45 0.55 22.5 0.55 22.6 0.5 22.65 0.5 22.75 0.5 22.85 0.5 22.95 0.45 23.05 0.45 23.15 0.5 23.2 0.5 23.3 0.5 23.4 0.55 23.45 0.55 23.55 0.6 23.6 0.65 23.7 0.65 23.75 0.7 23.8 0.8 23.9 0.85 23.95 0.9 24.0 1.05 24.1 1.2 24.25 1.35 24.35 1.5 24.45 1.65 24.5 1.8 24.6 1.95 24.7 2.1 24.75 2.3 24.8 2.45 24.85 2.65 24.9 2.8 24.95 3.0 24.95 3.15 25.0 3.35 25.0 3.55 25.0 L3.55 25.0 M-4.7 25.0 Q-4.5 25.0 -4.3 25.0 -4.1 24.95 -3.9 24.95 -3.7 24.9 -3.5 24.85 -3.3 24.8 -3.15 24.75 -2.95 24.65 -2.8 24.6 -2.65 24.5 -2.45 24.4 -2.3 24.3 -2.15 24.15 -2.0 24.05 -1.85 23.9 -1.75 23.8 -1.7 23.7 -1.6 23.55 -1.6 23.4 -1.55 23.3 -1.55 23.15 -1.5 23.0 -1.5 22.85 -1.55 22.7 -1.55 22.55 -1.6 22.45 -1.65 22.35 -1.7 22.2 -1.8 22.15 -1.85 22.1 -1.95 22.05 -4.2 21.7 -5.0 21.65 -5.2 21.65 -5.45 21.65 -5.65 21.7 -5.85 21.8 -6.05 21.85 -6.25 21.95 -6.45 22.05 -6.6 22.2 -6.8 22.35 -6.95 22.5 -7.05 22.7 -7.2 22.85 -7.3 23.05 -7.35 23.25 -7.45 23.45 -7.45 23.65 -7.45 23.75 -7.5 23.9 -7.5 24.0 -7.5 24.1 -7.45 24.2 -7.45 24.3 -7.45 24.35 -7.4 24.45 -7.35 24.55 -7.3 24.6 -7.25 24.65 -7.15 24.7 -7.05 24.75 -6.95 24.75 -6.85 24.8 -6.7 24.8 -6.6 24.8 -4.7 25.0 L-4.7 25.0 M-0.35 4.3 Q-0.6 5.0 -0.6 5.05 -0.6 5.3 -0.6 5.55 -0.6 5.8 -0.6 6.05 -0.6 6.3 -0.65 6.55 -0.65 6.8 -0.7 7.05 -0.75 7.3 -0.8 7.55 -0.85 7.8 -0.95 8.0 -1.05 8.25 -1.15 8.5 -1.3 8.75 -1.4 8.95 -1.5 9.1 -1.55 9.25 -1.55 9.4 -1.55 9.55 -1.55 9.7 -1.5 9.85 -1.4 10.0 -1.35 10.1 -1.25 10.2 -1.15 10.3 -1.0 10.4 -0.85 10.5 -0.75 10.55 -0.6 10.55 -0.45 10.6 -0.3 10.55 0.0 10.5 0.25 10.4 0.55 10.35 0.8 10.25 1.1 10.15 1.35 10.0 1.6 9.9 1.85 9.75 2.1 9.6 2.35 9.45 2.6 9.3 2.85 9.1 3.1 8.95 3.3 8.75 3.55 8.5 3.75 8.3 3.3 8.35 2.6 8.4 1.8 8.45 1.5 8.45 1.45 8.45 1.35 8.45 1.3 8.45 1.2 8.45 1.15 8.45 1.1 8.4 1.05 8.4 1.0 8.35 0.95 8.3 0.9 8.25 0.85 8.2 0.85 8.15 0.8 8.1 0.8 8.05 0.8 7.95 0.8 7.85 0.8 7.75 0.8 7.7 0.8 7.6 0.85 7.55 0.85 7.5 0.9 7.45 0.95 7.4 1.0 7.4 1.05 7.35 1.1 7.3 1.15 7.3 1.25 7.3 1.3 7.3 1.35 7.25 1.45 7.25 1.5 7.25 1.75 7.25 1.75 7.25 1.9 7.25 2.0 7.25 2.15 7.2 2.3 7.2 2.4 7.2 2.55 7.2 2.7 7.15 2.8 7.15 2.95 7.1 3.05 7.05 3.2 7.05 3.3 7.0 3.45 6.95 3.6 6.85 3.25 6.7 3.05 6.6 2.75 6.5 2.5 6.4 2.25 6.25 2.0 6.15 1.7 6.0 1.5 5.85 1.25 5.7 1.0 5.55 0.75 5.35 0.5 5.2 0.3 5.0 0.1 4.75 -0.15 4.55 -0.35 4.3 L-0.35 4.3 M12.5 8.15 Q12.45 8.25 12.4 8.35 12.35 8.4 12.35 8.5 12.3 8.55 12.25 8.7 12.2 8.8 12.15 8.9 12.15 9.0 12.1 9.05 12.05 9.15 12.0 9.25 11.95 9.3 11.9 9.4 11.85 9.45 11.8 9.55 11.65 9.7 11.5 9.85 11.4 10.0 11.25 10.15 11.15 10.35 11.05 10.5 10.95 10.65 10.9 10.85 10.8 11.0 10.75 11.2 10.65 11.4 10.6 11.6 10.55 11.75 10.45 11.95 10.4 12.15 10.35 12.35 10.3 12.5 10.3 12.6 10.25 12.75 10.25 12.85 10.25 12.95 10.25 13.05 10.25 13.15 10.3 13.2 10.35 13.3 10.4 13.35 10.45 13.4 10.5 13.45 10.6 13.5 10.65 13.55 10.75 13.6 10.9 13.65 11.4 13.9 11.65 13.95 11.95 14.05 12.25 14.1 12.55 14.1 12.8 14.05 13.05 14.05 13.25 13.95 13.45 13.85 13.65 13.65 13.8 13.5 13.9 13.3 14.05 13.1 14.1 12.8 14.15 12.55 14.15 12.25 14.15 11.95 14.1 11.6 14.05 11.35 14.0 11.1 13.95 10.9 13.85 10.65 13.8 10.45 13.7 10.2 13.6 10.0 13.5 9.75 13.4 9.55 13.3 9.35 13.15 9.15 13.05 8.9 12.9 8.7 12.75 8.5 12.65 8.3 12.5 8.15 L12.5 8.15 M6.9 7.9 Q7.1 8.15 7.6 8.75 8.0 9.2 8.25 9.45 8.3 9.5 8.35 9.55 8.4 9.65 8.4 9.7 8.45 9.75 8.5 9.8 8.5 9.85 8.5 9.95 8.55 10.0 8.55 10.05 8.55 10.1 8.5 10.15 8.5 10.25 8.45 10.3 8.4 10.35 8.35 10.4 8.3 10.45 8.2 10.5 8.15 10.55 8.1 10.6 8.05 10.6 7.95 10.6 7.9 10.6 7.85 10.6 7.75 10.6 7.7 10.55 7.65 10.55 7.6 10.5 7.5 10.45 7.45 10.4 7.4 10.35 7.35 10.3 7.3 10.2 7.0 9.9 6.8 9.65 6.7 9.5 6.65 9.5 6.65 9.45 6.6 9.45 6.55 9.4 6.5 9.4 6.45 9.4 6.4 9.4 6.35 9.4 6.3 9.4 6.3 9.45 6.25 9.5 6.25 9.55 6.25 9.6 6.25 9.65 6.25 9.65 6.3 9.7 6.35 9.85 6.4 10.0 6.45 10.15 6.5 10.3 7.2 12.35 6.6 10.65 6.7 10.8 6.75 10.95 6.8 11.1 6.85 11.25 6.9 11.4 7.0 11.55 7.05 11.7 7.15 11.85 7.2 11.95 7.3 12.1 7.4 12.2 7.4 12.25 7.5 12.35 7.55 12.4 7.6 12.5 7.7 12.55 7.75 12.6 7.85 12.65 7.9 12.75 8.0 12.75 8.05 12.8 8.15 12.8 8.25 12.85 8.35 12.85 8.45 12.85 8.55 12.8 8.65 12.75 8.75 12.75 8.85 12.7 8.9 12.65 9.0 12.6 9.05 12.5 9.1 12.45 9.15 12.35 9.2 12.3 9.2 12.2 9.25 12.1 9.3 12.05 9.3 11.95 9.3 11.85 9.35 11.75 9.35 11.65 9.35 11.45 9.4 11.25 9.45 11.1 9.5 10.9 9.55 10.75 9.6 10.55 9.7 10.4 9.75 10.25 9.85 10.1 9.95 9.95 10.05 9.75 10.15 9.65 10.25 9.5 10.4 9.35 10.5 9.2 10.65 9.05 10.75 8.95 10.85 8.8 10.95 8.7 11.0 8.55 11.1 8.45 11.15 8.3 11.2 8.15 11.25 8.0 11.25 7.85 11.3 7.7 11.3 7.55 11.3 7.35 11.3 7.2 11.3 7.0 11.3 6.85 11.3 6.65 10.85 6.9 10.8 6.95 10.5 7.1 10.3 7.25 10.0 7.4 9.8 7.5 9.5 7.6 9.25 7.7 9.0 7.8 8.7 7.9 8.45 7.95 8.15 7.95 7.85 8.0 7.55 8.0 7.25 7.95 6.9 7.9 L6.9 7.9 M-8.25 6.55 Q-7.9 6.75 -7.55 6.95 -7.2 7.1 -6.8 7.2 -6.45 7.3 -6.05 7.4 -5.7 7.45 -5.3 7.5 -4.95 7.5 -4.55 7.5 -4.2 7.5 -3.75 7.5 -2.25 7.5 -3.0 7.5 -2.55 7.5 -2.2 7.55 -2.15 7.55 -2.1 7.5 -2.05 7.5 -2.0 7.45 -1.95 7.45 -1.95 7.4 -1.9 7.35 -1.9 7.3 -1.9 7.25 -1.9 7.15 -1.9 7.1 -1.9 7.05 -1.9 7.05 -1.95 7.0 -1.95 7.0 -1.95 6.95 -2.0 6.95 -2.05 6.95 -2.05 6.95 -2.1 6.95 -2.1 6.95 -2.15 6.95 -2.2 6.95 -2.2 6.95 -2.25 6.95 -2.25 6.95 -4.45 6.95 -4.8 6.9 -5.1 6.9 -8.25 6.55 L-8.25 6.55 M3.7 5.4 Q3.55 5.25 3.4 5.05 3.25 4.9 3.1 4.75 2.95 4.6 2.8 4.45 2.65 4.3 2.45 4.15 2.3 4.05 2.15 3.9 1.95 3.75 1.8 3.65 1.6 3.5 1.45 3.4 1.25 3.3 1.1 3.2 1.1 3.2 1.05 3.15 1.0 3.15 1.0 3.1 0.95 3.1 0.9 3.1 0.9 3.05 0.85 3.05 0.8 3.05 0.8 3.05 0.75 3.05 0.75 3.05 0.7 3.05 0.65 3.05 0.65 3.1 0.6 3.1 0.55 3.15 0.55 3.2 0.55 3.2 0.5 3.25 0.5 3.3 0.5 3.3 0.5 3.35 0.5 3.4 0.55 3.4 0.55 3.45 0.55 3.5 0.6 3.5 0.6 3.55 0.6 3.55 0.65 3.6 0.65 3.6 0.8 3.8 0.95 3.95 1.15 4.1 1.3 4.25 1.45 4.4 1.65 4.55 1.85 4.65 2.0 4.8 2.2 4.9 2.4 5.0 2.6 5.1 2.8 5.15 3.0 5.25 3.25 5.3 3.45 5.35 3.7 5.4 L3.7 5.4 M10.8 5.3 Q10.55 5.3 10.3 5.35 10.05 5.4 9.8 5.45 9.6 5.5 9.35 5.6 9.1 5.65 8.9 5.75 8.65 5.8 8.45 5.95 8.2 6.0 8.0 6.15 7.75 6.25 7.55 6.35 7.35 6.5 7.1 6.6 7.4 6.65 7.65 6.7 7.9 6.7 8.2 6.7 8.4 6.65 8.65 6.6 8.9 6.55 9.15 6.45 9.35 6.35 9.55 6.25 9.8 6.1 10.0 5.95 10.2 5.8 10.4 5.65 10.6 5.5 10.8 5.3 L10.8 5.3" fill="#070707" fill-rule="evenodd" stroke="none"/>
    <path d="M-21.4 -16.65 Q-21.4 -17.4 -21.25 -18.05 -21.15 -18.7 -20.9 -19.25 -20.65 -19.8 -20.35 -20.25 -20.0 -20.7 -19.6 -21.05 -19.2 -21.4 -18.7 -21.6 -18.2 -21.8 -17.7 -21.9 -17.15 -22.0 -16.6 -21.95 -16.0 -21.9 -15.4 -21.7 -15.2 -21.65 -15.0 -21.55 -14.8 -21.5 -14.6 -21.4 -14.4 -21.3 -14.2 -21.2 -14.0 -21.15 -13.85 -21.05 -13.65 -20.95 -13.45 -20.85 -13.25 -20.7 -13.1 -20.6 -12.9 -20.5 -12.7 -20.4 -12.55 -20.25 -12.35 -20.15 -12.25 -20.1 -12.2 -20.0 -12.1 -19.95 -12.05 -19.9 -12.0 -19.8 -11.95 -19.75 -11.9 -19.65 -11.85 -19.55 -11.8 -19.5 -11.8 -19.4 -11.8 -19.3 -11.8 -19.25 -11.8 -19.15 -11.8 -19.05 -11.8 -18.95 -11.85 -18.85 -12.0 -18.4 -12.15 -18.05 -12.3 -17.6 -12.45 -17.2 -12.65 -16.8 -12.8 -16.4 -13.0 -16.0 -13.2 -15.6 -13.4 -15.2 -13.6 -14.85 -13.8 -14.45 -14.05 -14.1 -14.3 -13.75 -14.55 -13.4 -14.8 -13.05 -15.1 -12.75 -15.4 -12.45 -15.65 -12.2 -15.9 -12.0 -16.15 -11.85 -16.4 -11.7 -16.65 -11.6 -16.9 -11.5 -17.1 -11.5 -17.35 -11.5 -17.6 -11.55 -17.85 -11.65 -18.1 -11.75 -18.35 -11.9 -18.65 -12.1 -18.9 -12.35 -19.2 -12.6 -19.45 -12.85 -19.65 -13.05 -19.9 -13.3 -20.05 -13.55 -20.25 -13.8 -20.45 -14.05 -20.6 -14.3 -20.75 -14.55 -20.9 -14.8 -21.05 -15.05 -21.15 -15.3 -21.2 -15.55 -21.3 -15.85 -21.35 -16.1 -21.4 -16.35 -21.4 -16.65 L-21.4 -16.65 M-19.6 -17.0 Q-19.6 -16.75 -19.55 -16.5 -19.55 -16.25 -19.45 -16.0 -19.4 -15.8 -19.25 -15.55 -19.15 -15.35 -19.05 -15.15 -18.9 -14.95 -18.75 -14.8 -18.6 -14.6 -18.45 -14.4 -18.3 -14.25 -18.1 -14.05 -18.1 -14.05 -17.75 -13.7 -17.65 -13.65 -17.6 -13.55 -17.55 -13.5 -17.45 -13.5 -17.4 -13.45 -17.3 -13.45 -17.25 -13.45 -17.2 -13.45 -17.1 -13.45 -17.05 -13.45 -16.95 -13.5 -16.9 -13.55 -16.85 -13.6 -16.75 -13.65 -16.7 -13.7 -16.6 -13.75 -16.45 -13.9 -16.3 -14.1 -16.15 -14.25 -16.0 -14.45 -15.9 -14.6 -15.75 -14.8 -15.6 -15.0 -15.5 -15.15 -15.35 -15.35 -15.25 -15.55 -15.15 -15.75 -15.05 -15.95 -14.9 -16.15 -14.8 -16.35 -14.7 -16.55 -14.6 -16.75 -14.35 -17.25 -14.25 -17.5 -14.1 -17.85 -14.0 -18.1 -13.95 -18.4 -13.9 -18.55 -13.9 -18.75 -13.95 -18.9 -14.05 -19.05 -14.2 -19.2 -14.35 -19.3 -14.6 -19.45 -14.8 -19.55 -15.15 -19.65 -15.45 -19.75 -15.95 -19.95 -16.35 -20.05 -16.7 -20.1 -17.05 -20.15 -17.4 -20.1 -17.75 -20.05 -18.0 -19.9 -18.3 -19.8 -18.55 -19.6 -18.8 -19.4 -19.0 -19.1 -19.2 -18.85 -19.35 -18.55 -19.5 -18.2 -19.55 -17.85 -19.6 -17.45 -19.6 -17.0 L-19.6 -17.0" fill="#070707" fill-rule="evenodd" stroke="none"/>
    <path d="M20.35 -17.0 Q20.35 -16.6 20.25 -16.2 20.2 -15.8 20.05 -15.4 19.9 -14.95 19.65 -14.55 19.45 -14.15 19.2 -13.8 18.95 -13.4 18.65 -13.05 18.35 -12.7 18.05 -12.45 17.7 -12.15 17.4 -11.95 17.05 -11.75 16.7 -11.6 16.55 -11.55 16.45 -11.55 16.35 -11.5 16.2 -11.5 16.1 -11.5 15.95 -11.5 15.85 -11.55 15.7 -11.55 15.6 -11.6 15.5 -11.65 15.4 -11.7 15.25 -11.75 15.15 -11.8 15.05 -11.85 14.95 -11.95 14.85 -12.0 14.65 -12.15 14.45 -12.35 14.3 -12.5 14.1 -12.7 13.95 -12.85 13.8 -13.05 13.6 -13.25 13.45 -13.45 13.3 -13.65 13.15 -13.85 13.05 -14.05 12.9 -14.25 12.75 -14.45 12.65 -14.7 12.5 -14.9 12.4 -15.15 12.3 -15.35 12.2 -15.5 12.1 -15.7 12.0 -15.9 11.95 -16.05 11.85 -16.25 11.75 -16.45 11.65 -16.65 11.6 -16.85 11.5 -17.05 11.4 -17.2 11.35 -17.4 11.25 -17.6 11.2 -17.8 11.1 -18.0 11.05 -18.2 10.95 -18.45 10.9 -18.65 10.8 -18.85 10.8 -19.0 10.75 -19.15 10.75 -19.3 10.75 -19.45 10.8 -19.55 10.85 -19.65 10.9 -19.75 11.0 -19.85 11.1 -19.95 11.2 -20.05 11.4 -20.2 11.55 -20.3 11.8 -20.45 11.95 -20.55 12.1 -20.65 12.25 -20.75 12.4 -20.85 12.6 -20.95 12.75 -21.0 12.9 -21.1 13.05 -21.15 13.2 -21.25 13.4 -21.3 13.55 -21.4 13.7 -21.45 13.9 -21.55 14.05 -21.6 14.25 -21.65 14.4 -21.7 15.0 -21.9 15.55 -21.95 16.15 -22.0 16.7 -21.9 17.2 -21.8 17.7 -21.6 18.15 -21.4 18.6 -21.05 19.0 -20.75 19.3 -20.3 19.65 -19.9 19.85 -19.4 20.1 -18.85 20.2 -18.25 20.35 -17.65 20.35 -17.0 L20.35 -17.0 M18.55 -17.1 Q18.55 -17.4 18.5 -17.75 18.45 -18.05 18.35 -18.3 18.2 -18.6 18.05 -18.85 17.95 -19.15 17.75 -19.35 17.55 -19.55 17.35 -19.75 17.15 -19.9 16.9 -20.0 16.7 -20.15 16.45 -20.15 16.2 -20.2 15.95 -20.2 15.75 -20.15 15.6 -20.15 15.4 -20.1 15.2 -20.05 15.05 -20.0 14.85 -19.95 14.65 -19.9 14.5 -19.8 14.3 -19.75 14.15 -19.65 13.95 -19.6 13.8 -19.5 13.6 -19.4 13.45 -19.3 13.25 -19.25 13.1 -19.15 13.1 -19.15 13.0 -19.1 12.95 -19.05 12.95 -19.05 12.9 -19.0 12.85 -19.0 12.85 -18.95 12.8 -18.9 12.8 -18.9 12.75 -18.85 12.75 -18.8 12.75 -18.75 12.75 -18.75 12.75 -18.7 12.75 -18.65 12.8 -18.55 12.95 -18.15 13.05 -17.85 13.25 -17.5 13.35 -17.2 13.5 -16.85 13.65 -16.55 13.85 -16.2 14.0 -15.9 14.2 -15.55 14.35 -15.3 14.55 -14.95 14.8 -14.7 15.0 -14.4 15.25 -14.15 15.5 -13.85 15.75 -13.6 15.8 -13.55 15.85 -13.55 15.85 -13.5 15.9 -13.5 15.95 -13.45 16.0 -13.45 16.05 -13.4 16.1 -13.4 16.1 -13.4 16.15 -13.4 16.2 -13.4 16.25 -13.4 16.3 -13.4 16.35 -13.45 16.35 -13.45 16.4 -13.5 16.65 -13.7 16.8 -13.85 17.05 -14.05 17.2 -14.2 17.4 -14.4 17.55 -14.6 17.75 -14.8 17.9 -15.0 18.05 -15.25 18.15 -15.45 18.3 -15.7 18.4 -15.95 18.45 -16.2 18.5 -16.5 18.55 -16.8 18.55 -17.1 L18.55 -17.1" fill="#070707" fill-rule="evenodd" stroke="none"/>
    <path d="M-8.65 -3.05 Q-8.9 -3.05 -9.15 -3.1 -9.4 -3.15 -9.6 -3.25 -9.85 -3.35 -10.05 -3.5 -10.25 -3.6 -10.4 -3.75 -10.55 -3.95 -10.7 -4.15 -10.85 -4.35 -10.9 -4.55 -11.0 -4.75 -11.05 -5.0 -11.1 -5.25 -11.1 -5.5 -11.1 -5.75 -11.05 -5.95 -11.0 -6.2 -10.9 -6.4 -10.8 -6.6 -10.65 -6.8 -10.5 -7.0 -10.35 -7.15 -10.15 -7.35 -10.0 -7.5 -9.8 -7.6 -9.6 -7.7 -9.35 -7.8 -9.15 -7.85 -8.9 -7.95 -8.7 -7.95 -8.5 -7.95 -8.25 -7.9 -8.05 -7.85 -7.85 -7.75 -7.65 -7.6 -7.5 -7.45 -7.3 -7.3 -7.15 -7.15 -7.0 -6.95 -6.9 -6.7 -6.75 -6.5 -6.65 -6.25 -6.6 -6.0 -6.55 -5.75 -6.5 -5.45 -6.5 -5.2 -6.5 -4.95 -6.55 -4.75 -6.6 -4.55 -6.65 -4.35 -6.75 -4.15 -6.85 -3.95 -6.95 -3.8 -7.1 -3.65 -7.25 -3.5 -7.4 -3.4 -7.6 -3.3 -7.75 -3.2 -7.95 -3.15 -8.2 -3.1 -8.4 -3.05 -8.65 -3.05 L-8.65 -3.05" fill="#070707" fill-rule="evenodd" stroke="none"/>
    <path d="M10.05 -5.45 Q10.05 -5.2 10.0 -5.0 9.95 -4.75 9.85 -4.55 9.8 -4.35 9.65 -4.15 9.5 -3.95 9.35 -3.8 9.2 -3.65 9.0 -3.5 8.8 -3.35 8.6 -3.25 8.35 -3.15 8.15 -3.1 7.9 -3.05 7.65 -3.05 7.4 -3.05 7.2 -3.1 6.95 -3.1 6.75 -3.2 6.55 -3.25 6.4 -3.4 6.2 -3.5 6.05 -3.65 5.9 -3.8 5.8 -3.95 5.7 -4.15 5.6 -4.35 5.5 -4.55 5.5 -4.75 5.45 -5.0 5.45 -5.25 5.45 -5.5 5.5 -5.75 5.55 -6.0 5.6 -6.25 5.7 -6.5 5.8 -6.7 5.95 -6.9 6.1 -7.1 6.25 -7.3 6.4 -7.45 6.55 -7.6 6.75 -7.7 6.95 -7.8 7.15 -7.85 7.35 -7.95 7.55 -7.95 7.8 -7.95 8.0 -7.9 8.25 -7.85 8.45 -7.75 8.7 -7.65 8.9 -7.5 9.1 -7.35 9.25 -7.2 9.45 -7.0 9.6 -6.8 9.7 -6.6 9.8 -6.4 9.95 -6.15 10.0 -5.95 10.05 -5.7 10.05 -5.45 L10.05 -5.45" fill="#070707" fill-rule="evenodd" stroke="none"/>
    <path d="M-0.55 -0.8 Q-0.65 -0.65 -0.8 -0.5 -0.9 -0.4 -1.05 -0.3 -1.15 -0.15 -1.3 -0.1 -1.45 0.0 -1.6 0.05 -1.75 0.1 -1.9 0.15 -2.05 0.15 -2.2 0.15 -2.4 0.15 -2.55 0.15 -2.75 0.1 -2.9 0.05 -3.0 0.05 -3.05 0.0 -3.15 -0.05 -3.2 -0.05 -3.3 -0.1 -3.35 -0.15 -3.4 -0.2 -3.45 -0.25 -3.5 -0.3 -3.55 -0.35 -3.6 -0.45 -3.6 -0.5 -3.6 -0.6 -3.6 -0.65 -3.6 -0.75 -3.55 -0.85 -3.5 -0.95 -3.5 -1.05 -3.45 -1.1 -3.4 -1.15 -3.35 -1.2 -3.3 -1.25 -3.25 -1.25 -3.2 -1.3 -3.1 -1.3 -3.05 -1.3 -3.0 -1.3 -2.9 -1.25 -2.85 -1.25 -2.75 -1.2 -2.7 -1.2 -2.6 -1.15 -2.55 -1.1 -2.45 -1.1 -2.4 -1.1 -2.35 -1.05 -2.25 -1.05 -2.2 -1.05 -2.15 -1.05 -2.1 -1.1 -2.05 -1.1 -1.95 -1.1 -1.9 -1.15 -1.85 -1.2 -1.8 -1.2 -1.75 -1.25 -1.7 -1.3 -1.65 -1.35 -1.6 -1.4 -1.55 -1.5 -1.5 -1.55 -1.5 -1.6 -1.5 -1.65 -1.5 -1.7 -1.5 -1.75 -1.5 -1.8 -1.55 -1.85 -1.55 -1.9 -1.6 -1.95 -1.65 -2.0 -1.7 -2.1 -1.7 -2.1 -1.75 -2.15 -1.75 -2.15 -1.8 -2.25 -1.85 -2.35 -1.9 -2.45 -1.95 -2.55 -1.95 -2.65 -1.95 -2.75 -2.0 -2.85 -1.95 -2.95 -1.95 -3.05 -1.95 -3.15 -1.9 -3.25 -1.85 -3.35 -1.8 -3.45 -1.75 -3.5 -1.7 -3.6 -1.6 -3.7 -1.5 -3.8 -1.4 -3.85 -1.3 -3.9 -1.15 -3.95 -1.0 -4.0 -0.85 -4.0 -0.7 -4.05 -0.55 -4.05 -0.4 -4.05 -0.25 -4.0 -0.1 -4.0 0.05 -3.95 0.2 -3.9 0.3 -3.85 0.45 -3.8 0.5 -3.7 0.6 -3.6 0.65 -3.55 0.75 -3.45 0.8 -3.35 0.85 -3.3 0.85 -3.2 0.9 -3.1 0.9 -3.0 0.9 -2.9 0.9 -2.8 0.9 -2.7 0.9 -2.6 0.85 -2.5 0.8 -2.4 0.8 -2.3 0.7 -2.2 0.7 -2.15 0.65 -2.1 0.65 -2.05 0.6 -2.0 0.55 -1.95 0.55 -1.9 0.5 -1.85 0.45 -1.85 0.45 -1.8 0.45 -1.75 0.45 -1.7 0.45 -1.65 0.45 -1.55 0.45 -1.5 0.5 -1.45 0.55 -1.4 0.6 -1.35 0.65 -1.3 0.7 -1.25 0.75 -1.2 0.85 -1.15 0.9 -1.15 0.95 -1.1 1.0 -1.1 1.05 -1.05 1.15 -1.05 1.2 -1.05 1.25 -1.05 1.35 -1.05 1.4 -1.1 1.45 -1.1 1.55 -1.15 1.65 -1.2 1.7 -1.2 1.8 -1.25 1.85 -1.25 1.95 -1.3 2.0 -1.3 2.1 -1.3 2.15 -1.25 2.2 -1.25 2.25 -1.25 2.35 -1.2 2.4 -1.15 2.45 -1.1 2.45 -1.0 2.5 -0.9 2.55 -0.8 2.55 -0.7 2.55 -0.6 2.55 -0.5 2.55 -0.45 2.5 -0.35 2.45 -0.3 2.45 -0.25 2.35 -0.2 2.3 -0.15 2.25 -0.1 2.2 -0.05 2.1 -0.05 2.05 0.0 1.95 0.05 1.9 0.05 1.8 0.1 1.65 0.15 1.5 0.15 1.35 0.2 1.2 0.2 1.05 0.2 0.95 0.15 0.8 0.15 0.65 0.1 0.5 0.05 0.35 -0.05 0.2 -0.15 0.1 -0.25 -0.05 -0.35 -0.2 -0.5 -0.35 -0.6 -0.55 -0.8 L-0.55 -0.8" fill="#070707" fill-rule="evenodd" stroke="none"/>
  </g>
</svg>
