<?xml version="1.0" encoding="UTF-8" standalone="no"?>
<svg xmlns:xlink="http://www.w3.org/1999/xlink" height="108.3px" width="74.5px" xmlns="http://www.w3.org/2000/svg">
  <g transform="matrix(1.0, 0.0, 0.0, 1.0, 37.25, 54.15)">
    <path d="M-6.3 -10.3 Q-6.6 -10.4 -6.8 -10.5 -7.05 -10.65 -7.25 -10.8 -7.45 -10.95 -7.65 -11.15 -7.8 -11.35 -7.95 -11.55 -8.05 -11.75 -8.15 -12.0 -8.2 -12.2 -8.25 -12.45 -8.3 -12.75 -8.3 -13.0 -8.3 -13.25 -8.25 -13.55 -8.2 -13.8 -8.15 -14.15 -8.1 -14.65 -8.1 -14.75 -8.1 -14.85 -8.1 -14.9 -8.1 -15.0 -8.1 -15.05 -8.1 -15.15 -8.15 -15.2 -8.15 -15.25 -8.2 -15.3 -8.25 -15.35 -8.3 -15.4 -8.35 -15.45 -8.4 -15.5 -8.45 -15.55 -8.5 -15.55 -8.6 -15.6 -8.65 -15.6 -8.75 -15.65 -8.85 -15.65 -8.95 -15.7 -9.05 -15.7 -9.15 -15.75 -9.2 -15.75 -9.3 -15.8 -9.4 -15.8 -9.5 -15.8 -9.6 -15.85 -9.7 -15.85 -9.8 -15.85 -9.9 -15.9 -10.0 -15.9 -10.1 -15.9 -10.15 -15.9 -10.7 -15.95 -11.65 -15.95 -12.7 -16.0 -13.15 -16.0 -13.5 -16.05 -13.85 -16.1 -14.25 -16.2 -14.55 -16.35 -14.9 -16.55 -15.2 -16.75 -15.5 -16.95 -15.8 -17.2 -16.05 -17.45 -16.25 -17.75 -16.5 -18.05 -16.65 -18.4 -16.8 -18.7 -16.9 -19.05 -17.0 -19.4 -17.05 -19.75 -17.05 -20.25 -17.05 -20.7 -17.0 -21.2 -16.95 -21.6 -16.9 -22.1 -16.75 -22.5 -16.65 -22.95 -16.5 -23.35 -16.3 -23.75 -16.1 -24.1 -15.85 -24.5 -15.55 -24.85 -15.3 -25.2 -14.95 -25.5 -14.55 -25.85 -14.15 -26.1 -13.8 -26.35 -13.4 -26.6 -13.05 -26.85 -12.65 -27.05 -12.25 -27.3 -11.9 -27.55 -11.5 -27.75 -11.1 -27.95 -10.7 -28.15 -10.3 -28.4 -9.9 -28.6 -9.5 -28.75 -9.1 -28.95 -8.7 -29.15 -8.3 -29.35 -7.9 -29.5 -7.75 -29.55 -7.6 -29.6 -7.5 -29.7 -7.35 -29.75 -7.25 -29.85 -7.1 -29.9 -7.0 -30.0 -6.85 -30.1 -6.75 -30.15 -6.65 -30.25 -6.55 -30.35 -6.4 -30.45 -6.3 -30.55 -6.2 -30.65 -6.1 -30.75 -6.05 -30.85 -5.8 -31.15 -5.1 -32.15 -4.0 -33.8 -3.8 -34.05 -3.55 -34.4 -3.3 -34.7 -3.0 -35.05 -2.75 -35.35 -2.45 -35.65 -2.15 -35.95 -1.85 -36.2 -1.55 -36.45 -1.25 -36.75 -0.9 -36.95 -0.6 -37.2 -0.25 -37.4 0.15 -37.65 0.5 -37.8 0.9 -38.0 1.3 -38.15 4.25 -39.3 4.85 -39.55 5.3 -39.7 5.75 -39.85 6.15 -39.95 6.6 -40.05 7.05 -40.15 7.5 -40.25 7.95 -40.3 8.4 -40.35 8.85 -40.4 9.3 -40.4 9.75 -40.4 10.2 -40.4 10.65 -40.4 11.1 -40.35 11.55 -40.3 12.0 -40.2 12.85 -40.05 13.7 -39.8 14.5 -39.55 15.25 -39.25 16.0 -38.9 16.7 -38.5 17.4 -38.1 18.0 -37.6 18.65 -37.15 19.2 -36.55 19.75 -36.0 20.25 -35.35 20.75 -34.7 21.2 -34.0 21.65 -33.25 22.0 -32.45 22.35 -31.7 22.65 -30.9 22.95 -30.1 23.15 -29.3 23.4 -28.55 23.55 -27.75 23.7 -26.95 23.75 -26.1 23.85 -25.3 23.85 -24.5 23.9 -23.7 23.8 -22.85 23.75 -22.05 23.65 -21.2 23.5 -20.35 23.3 -19.55 22.55 -16.55 22.05 -14.5 22.0 -14.2 21.95 -13.9 21.9 -13.6 21.9 -13.3 21.9 -13.0 21.95 -12.7 21.95 -12.4 22.0 -12.15 22.1 -11.85 22.2 -11.6 22.3 -11.35 22.45 -11.05 22.55 -10.8 22.75 -10.55 22.95 -10.3 23.15 -10.05 23.35 -9.85 23.8 -9.2 24.1 -8.8 24.3 -8.3 24.5 -7.85 24.55 -7.35 24.65 -6.9 24.6 -6.4 24.55 -5.9 24.45 -5.45 24.3 -5.0 24.05 -4.6 23.85 -4.2 23.5 -3.85 23.2 -3.5 22.8 -3.2 22.35 -2.95 21.9 -2.75 21.55 -2.65 21.25 -2.55 20.9 -2.45 20.6 -2.35 20.25 -2.25 19.95 -2.15 19.6 -2.1 19.3 -2.05 18.95 -1.95 18.65 -1.9 18.3 -1.85 17.95 -1.8 17.6 -1.8 17.3 -1.75 16.95 -1.75 16.6 -1.75 16.35 -1.75 16.1 -1.75 15.85 -1.8 15.6 -1.8 15.35 -1.85 15.15 -1.95 14.9 -2.0 14.65 -2.1 14.45 -2.15 14.25 -2.3 14.05 -2.4 13.85 -2.55 13.65 -2.65 13.45 -2.8 13.25 -3.0 13.05 -3.15 12.95 -3.3 12.55 -3.7 12.2 -4.0 12.05 -4.25 11.95 -4.4 11.8 -4.5 11.7 -4.65 11.55 -4.75 11.4 -4.85 11.25 -4.9 11.1 -5.0 10.95 -5.05 10.8 -5.1 10.65 -5.15 10.5 -5.2 10.35 -5.2 10.15 -5.25 10.0 -5.25 9.8 -5.25 9.65 -5.25 9.3 -5.25 8.5 -5.15 5.2 -4.7 4.7 -4.7 4.45 -4.7 4.25 -4.7 4.0 -4.75 3.8 -4.8 3.6 -4.85 3.4 -4.95 3.25 -5.05 3.05 -5.15 2.9 -5.3 2.75 -5.45 2.6 -5.6 2.45 -5.8 2.35 -5.95 2.25 -6.15 2.15 -6.35 2.05 -6.6 2.0 -6.7 2.0 -6.75 1.95 -6.85 1.95 -6.95 1.95 -7.0 1.9 -7.1 1.9 -7.2 1.85 -7.3 1.85 -7.35 1.85 -7.45 1.85 -7.55 1.8 -7.65 1.8 -7.7 1.8 -7.8 1.8 -7.9 1.8 -8.0 1.8 -8.2 1.75 -8.35 1.7 -8.5 1.65 -8.65 1.6 -8.8 1.55 -8.9 1.45 -9.05 1.4 -9.15 1.3 -9.25 1.2 -9.35 1.1 -9.4 0.95 -9.5 0.8 -9.55 0.65 -9.6 0.5 -9.65 0.3 -9.7 -0.3 -9.8 -1.2 -9.85 -2.6 -9.95 -2.7 -9.95 -3.1 -9.95 -3.15 -9.95 -3.4 -9.95 -3.6 -9.95 -3.85 -9.95 -4.05 -9.95 -4.3 -9.95 -4.5 -9.95 -4.75 -9.95 -4.95 -10.0 -5.2 -10.0 -5.4 -10.05 -5.65 -10.1 -5.85 -10.15 -6.1 -10.2 -6.3 -10.3 L-6.3 -10.3 M0.9 -11.15 Q1.15 -11.1 1.4 -11.0 1.65 -10.9 1.9 -10.75 2.1 -10.6 2.3 -10.45 2.45 -10.3 2.65 -10.1 2.8 -9.9 2.9 -9.65 3.0 -9.45 3.1 -9.2 3.2 -8.95 3.25 -8.7 3.3 -8.45 3.3 -8.15 3.4 -7.55 3.45 -7.25 3.5 -7.1 3.55 -7.0 3.6 -6.85 3.65 -6.75 3.7 -6.65 3.8 -6.6 3.85 -6.5 3.95 -6.45 4.0 -6.4 4.1 -6.35 4.2 -6.3 4.3 -6.25 4.4 -6.25 4.55 -6.25 4.65 -6.2 4.8 -6.25 5.4 -6.3 6.35 -6.4 7.6 -6.6 7.9 -6.6 8.05 -6.6 8.2 -6.65 8.35 -6.65 8.5 -6.65 8.65 -6.7 8.8 -6.7 9.0 -6.7 9.15 -6.7 9.3 -6.75 9.45 -6.75 9.6 -6.75 9.75 -6.75 9.9 -6.75 10.05 -6.75 10.2 -6.75 10.35 -6.75 10.55 -6.75 10.75 -6.75 10.95 -6.7 11.1 -6.65 11.3 -6.6 11.45 -6.55 11.65 -6.5 11.8 -6.4 11.95 -6.35 12.1 -6.25 12.25 -6.15 12.4 -6.05 12.55 -5.9 12.7 -5.8 12.85 -5.65 13.0 -5.5 13.2 -5.25 13.55 -4.9 14.1 -4.35 14.1 -4.3 14.25 -4.15 14.35 -4.05 14.5 -3.95 14.65 -3.85 14.8 -3.75 14.95 -3.65 15.05 -3.6 15.25 -3.55 15.4 -3.45 15.55 -3.4 15.7 -3.4 15.9 -3.35 16.05 -3.3 16.2 -3.3 16.4 -3.3 16.6 -3.3 16.9 -3.3 17.2 -3.3 17.55 -3.35 17.85 -3.35 18.15 -3.4 18.45 -3.45 18.75 -3.5 19.05 -3.55 19.35 -3.65 19.65 -3.7 19.95 -3.8 20.25 -3.85 20.55 -3.95 20.85 -4.05 21.15 -4.15 21.45 -4.25 21.7 -4.35 21.95 -4.5 22.2 -4.7 22.4 -4.9 22.55 -5.1 22.7 -5.35 22.85 -5.6 22.95 -5.85 23.0 -6.15 23.05 -6.4 23.1 -6.7 23.05 -7.0 23.0 -7.25 22.95 -7.55 22.85 -7.8 22.7 -8.05 22.3 -8.65 22.1 -8.85 21.8 -9.2 21.55 -9.55 21.3 -9.9 21.1 -10.25 20.9 -10.65 20.75 -11.0 20.6 -11.4 20.5 -11.8 20.4 -12.2 20.4 -12.6 20.35 -13.0 20.35 -13.4 20.35 -13.85 20.45 -14.25 20.5 -14.7 20.6 -15.15 21.7 -19.55 21.9 -20.5 22.05 -21.4 22.15 -22.25 22.25 -23.1 22.3 -23.95 22.3 -24.8 22.25 -25.65 22.2 -26.45 22.05 -27.3 21.9 -28.1 21.7 -28.9 21.45 -29.7 21.15 -30.5 20.85 -31.3 20.45 -32.05 20.05 -32.85 19.6 -33.6 19.25 -34.15 18.8 -34.65 18.4 -35.15 17.95 -35.6 17.5 -36.05 17.05 -36.4 16.55 -36.8 16.0 -37.1 15.5 -37.45 14.95 -37.7 14.35 -37.95 13.75 -38.15 13.15 -38.35 12.55 -38.5 11.9 -38.65 11.25 -38.75 10.85 -38.8 10.5 -38.8 10.1 -38.85 9.75 -38.85 9.35 -38.8 9.0 -38.8 8.6 -38.75 8.25 -38.7 7.85 -38.65 7.5 -38.6 7.1 -38.5 6.75 -38.4 6.4 -38.35 6.0 -38.2 5.65 -38.1 5.3 -37.95 4.6 -37.7 3.6 -37.35 1.95 -36.7 1.95 -36.7 1.6 -36.55 1.25 -36.4 0.95 -36.25 0.6 -36.05 0.3 -35.85 0.0 -35.65 -0.25 -35.45 -0.55 -35.2 -0.8 -35.0 -1.1 -34.75 -1.35 -34.5 -1.6 -34.2 -1.85 -33.95 -2.05 -33.7 -2.3 -33.4 -2.5 -33.1 -2.6 -33.0 -2.7 -32.85 -2.8 -32.75 -2.85 -32.65 -2.95 -32.5 -3.05 -32.4 -3.15 -32.3 -3.2 -32.15 -3.3 -32.05 -3.4 -31.9 -3.45 -31.8 -3.55 -31.7 -3.65 -31.55 -3.7 -31.45 -3.8 -31.3 -3.85 -31.2 -4.05 -30.9 -4.25 -30.65 -4.45 -30.35 -4.65 -30.1 -4.85 -29.9 -5.1 -29.65 -5.35 -29.45 -5.6 -29.25 -5.85 -29.05 -6.1 -28.85 -6.4 -28.65 -6.65 -28.5 -6.95 -28.3 -7.25 -28.15 -7.55 -28.0 -7.85 -27.85 -11.6 -26.1 -13.05 -25.2 -13.4 -25.0 -13.7 -24.7 -13.95 -24.45 -14.2 -24.15 -14.45 -23.9 -14.65 -23.55 -14.85 -23.25 -15.0 -22.9 -15.15 -22.6 -15.25 -22.2 -15.35 -21.85 -15.4 -21.5 -15.45 -21.1 -15.5 -20.7 -15.5 -20.35 -15.5 -19.95 -15.5 -19.7 -15.4 -19.5 -15.35 -19.25 -15.25 -19.05 -15.15 -18.85 -15.0 -18.65 -14.9 -18.5 -14.7 -18.3 -14.55 -18.15 -14.35 -18.05 -14.15 -17.9 -13.95 -17.8 -13.75 -17.7 -13.5 -17.65 -13.25 -17.6 -13.05 -17.55 -12.55 -17.5 -11.6 -17.5 -10.6 -17.5 -10.15 -17.5 -10.05 -17.5 -9.95 -17.5 -9.85 -17.45 -9.75 -17.45 -9.65 -17.45 -9.6 -17.45 -9.5 -17.4 -9.4 -17.4 -9.3 -17.4 -9.2 -17.4 -9.1 -17.35 -9.0 -17.35 -8.9 -17.3 -8.85 -17.3 -8.75 -17.3 -8.65 -17.25 -8.35 -17.15 -8.05 -17.05 -7.8 -16.95 -7.55 -16.8 -7.35 -16.65 -7.15 -16.5 -7.0 -16.35 -6.9 -16.15 -6.75 -15.95 -6.65 -15.7 -6.6 -15.5 -6.55 -15.25 -6.5 -15.0 -6.55 -14.7 -6.55 -14.4 -6.6 -14.05 -6.6 -13.95 -6.65 -13.65 -6.7 -13.4 -6.7 -13.25 -6.7 -13.1 -6.75 -12.95 -6.75 -12.8 -6.7 -12.7 -6.7 -12.6 -6.65 -12.45 -6.65 -12.35 -6.55 -12.3 -6.5 -12.2 -6.45 -12.1 -6.35 -12.05 -6.25 -11.95 -6.15 -11.9 -6.05 -11.85 -5.9 -11.8 -5.75 -11.75 -5.35 -11.65 -3.6 -11.45 -3.4 -11.45 -3.1 -11.45 -2.7 -11.45 -2.65 -11.45 -2.65 -11.5 -2.6 -11.55 0.65 -11.2 0.9 -11.15 L0.9 -11.15" fill="#000000" fill-rule="evenodd" stroke="none"/>
    <path d="M7.05 -27.2 Q6.85 -27.2 6.65 -27.15 6.5 -27.1 6.3 -27.05 6.15 -27.0 6.05 -26.9 5.9 -26.8 5.8 -26.7 5.7 -26.6 5.6 -26.5 5.55 -26.35 5.5 -26.2 5.45 -26.05 5.4 -25.9 5.4 -25.75 5.4 -25.55 5.4 -25.35 5.45 -25.2 5.5 -25.05 5.55 -24.9 5.65 -24.7 5.7 -24.6 5.8 -24.45 5.95 -24.3 6.05 -24.2 6.15 -24.1 6.3 -24.0 6.45 -23.95 6.6 -23.9 6.7 -23.85 6.85 -23.85 7.0 -23.85 7.15 -23.85 7.3 -23.9 7.45 -23.95 7.6 -24.0 7.75 -24.1 7.85 -24.2 8.0 -24.3 8.1 -24.4 8.2 -24.55 8.25 -24.65 8.35 -24.8 8.4 -24.95 8.45 -25.1 8.5 -25.25 8.5 -25.4 8.5 -25.6 8.5 -25.75 8.45 -25.95 8.4 -26.1 8.35 -26.25 8.25 -26.4 8.2 -26.55 8.1 -26.7 8.0 -26.8 7.85 -26.9 7.75 -27.0 7.65 -27.1 7.5 -27.15 7.4 -27.2 7.25 -27.2 7.15 -27.2 7.05 -27.2 L7.05 -27.2" fill="#000000" fill-rule="evenodd" stroke="none"/>
    <path d="M16.75 -23.45 Q16.55 -23.45 16.35 -23.4 16.2 -23.35 16.0 -23.3 15.85 -23.25 15.75 -23.15 15.6 -23.1 15.5 -23.0 15.4 -22.85 15.3 -22.75 15.25 -22.6 15.2 -22.45 15.15 -22.3 15.1 -22.15 15.1 -22.0 15.1 -21.8 15.1 -21.65 15.15 -21.45 15.2 -21.3 15.25 -21.15 15.35 -21.0 15.45 -20.85 15.5 -20.7 15.65 -20.6 15.75 -20.5 15.85 -20.4 16.0 -20.3 16.15 -20.25 16.3 -20.15 16.4 -20.15 16.55 -20.1 16.7 -20.1 16.85 -20.1 17.0 -20.15 17.15 -20.2 17.3 -20.3 17.45 -20.35 17.55 -20.45 17.7 -20.55 17.8 -20.65 17.9 -20.8 17.95 -20.95 18.05 -21.05 18.1 -21.2 18.15 -21.35 18.2 -21.5 18.2 -21.7 18.2 -21.85 18.2 -22.0 18.15 -22.2 18.1 -22.35 18.05 -22.5 18.0 -22.65 17.9 -22.8 17.8 -22.95 17.7 -23.05 17.6 -23.2 17.45 -23.25 17.35 -23.35 17.25 -23.4 17.1 -23.45 17.0 -23.5 16.85 -23.5 16.75 -23.45 L16.75 -23.45" fill="#000000" fill-rule="evenodd" stroke="none"/>
    <path d="M10.95 -20.95 Q10.95 -20.9 11.0 -20.85 11.0 -20.8 11.0 -20.75 11.0 -20.7 11.05 -20.65 11.05 -20.6 11.1 -20.6 11.1 -20.55 11.1 -20.5 11.15 -20.4 11.2 -20.35 11.25 -20.3 11.3 -20.25 11.35 -20.15 11.4 -20.1 11.45 -20.05 11.55 -20.05 11.6 -20.0 11.65 -19.95 11.75 -19.9 11.8 -19.9 11.9 -19.9 11.95 -19.85 12.05 -19.85 12.15 -19.85 12.25 -19.85 12.3 -19.85 12.4 -19.9 12.45 -19.9 12.55 -19.95 12.65 -19.95 12.7 -20.0 12.75 -20.0 12.85 -20.05 12.9 -20.1 13.0 -20.15 13.05 -20.2 13.1 -20.25 13.15 -20.3 13.2 -20.4 13.25 -20.45 13.3 -20.5 13.3 -20.55 13.35 -20.6 13.35 -20.65 13.35 -20.7 13.4 -20.7 13.4 -20.75 13.4 -20.8 13.4 -20.85 13.35 -20.9 13.35 -20.95 13.35 -21.0 13.3 -21.0 13.25 -21.05 13.25 -21.1 13.2 -21.1 13.15 -21.1 13.15 -21.15 13.1 -21.15 13.05 -21.15 13.0 -21.15 13.0 -21.15 12.95 -21.15 12.9 -21.15 12.85 -21.15 12.8 -21.15 12.75 -21.15 12.75 -21.1 12.7 -21.1 12.65 -21.1 12.6 -21.1 12.55 -21.1 12.5 -21.1 12.5 -21.1 12.45 -21.05 12.45 -21.05 12.4 -21.05 12.35 -21.0 12.35 -21.0 12.3 -21.0 12.3 -21.0 12.25 -20.95 12.2 -20.95 12.2 -20.95 12.15 -20.9 12.1 -20.9 12.1 -20.9 12.05 -20.85 11.9 -21.4 11.9 -21.4 11.9 -21.5 11.85 -21.6 11.85 -21.7 11.8 -21.75 11.8 -21.8 11.75 -21.85 11.7 -21.9 11.65 -21.95 11.6 -22.0 11.55 -22.0 11.5 -22.05 11.4 -22.05 11.35 -22.05 11.25 -22.05 11.2 -22.05 11.1 -22.0 10.55 -21.85 10.2 -21.8 10.15 -21.8 10.1 -21.8 10.05 -21.8 10.0 -21.8 9.95 -21.85 9.95 -21.85 9.9 -21.85 9.9 -21.9 9.85 -21.9 9.85 -21.95 9.8 -22.0 9.8 -22.05 9.8 -22.05 9.8 -22.1 9.8 -22.15 9.85 -22.25 9.85 -22.3 9.85 -22.35 9.9 -22.45 9.9 -22.5 9.9 -22.55 9.85 -22.6 9.85 -22.65 9.85 -22.7 9.8 -22.75 9.8 -22.8 9.75 -22.8 9.7 -22.85 9.65 -22.9 9.6 -22.9 9.55 -22.95 9.45 -22.95 9.4 -22.95 9.35 -22.95 9.3 -22.95 9.25 -22.95 9.2 -22.9 9.15 -22.9 9.1 -22.85 9.05 -22.8 9.0 -22.8 9.0 -22.7 8.95 -22.65 8.95 -22.6 8.9 -22.55 8.9 -22.45 8.85 -22.4 8.85 -22.3 8.85 -22.15 8.85 -22.0 8.85 -21.85 8.9 -21.7 8.95 -21.6 9.0 -21.45 9.05 -21.35 9.15 -21.25 9.25 -21.15 9.35 -21.1 9.45 -21.0 9.55 -20.95 9.7 -20.9 9.85 -20.9 10.0 -20.85 10.15 -20.85 10.3 -20.85 10.5 -20.9 10.8 -20.95 10.95 -20.95 L10.95 -20.95" fill="#000000" fill-rule="evenodd" stroke="none"/>
  </g>
</svg>
