<?xml version="1.0" encoding="UTF-8" standalone="no"?>
<svg xmlns:xlink="http://www.w3.org/1999/xlink" height="200.0px" width="200.0px" xmlns="http://www.w3.org/2000/svg">
  <g transform="matrix(1.0, 0.0, 0.0, 1.0, 100.0, 100.0)">
    <path d="M48.05 -13.8 Q47.9 -14.65 47.75 -15.4 47.6 -16.1 47.4 -16.8 47.2 -17.5 46.95 -18.2 46.7 -18.85 46.45 -19.6 46.15 -20.25 45.8 -21.1 45.5 -21.75 45.05 -22.8 44.1 -25.0 44.2 -24.8 43.6 -26.05 43.15 -27.15 42.15 -29.5 41.25 -31.7 40.55 -33.45 39.85 -35.25 39.45 -36.3 38.85 -37.95 38.3 -39.4 38.1 -39.95 37.75 -40.9 37.45 -41.45 37.15 -42.1 36.85 -42.55 36.55 -43.05 36.15 -43.45 35.75 -43.8 35.2 -44.25 34.9 -44.45 34.5 -44.75 37.4 -42.8 33.7 -45.3 33.2 -45.6 32.85 -45.85 32.35 -46.2 31.95 -46.55 31.5 -46.9 31.05 -47.3 30.6 -47.75 30.2 -48.2 29.75 -48.7 29.3 -49.25 28.9 -49.8 28.5 -50.45 28.35 -50.7 28.2 -50.95 28.1 -51.15 28.0 -51.4 27.95 -51.55 27.85 -51.8 27.5 -52.55 27.7 -52.15 27.6 -52.35 27.5 -52.55 27.4 -52.75 27.3 -52.95 27.2 -53.15 27.05 -53.4 26.9 -53.65 26.7 -53.95 26.3 -54.55 25.85 -55.1 25.45 -55.6 25.0 -56.1 24.6 -56.55 24.15 -56.95 23.75 -57.35 23.3 -57.7 22.95 -58.0 22.55 -58.3 22.2 -58.55 21.85 -58.8 21.6 -58.95 21.3 -59.15 21.1 -59.3 20.85 -59.4 20.65 -59.5 20.4 -59.65 20.15 -59.8 19.9 -59.9 19.65 -60.05 19.35 -60.15 19.05 -60.3 18.75 -60.4 18.4 -60.55 18.05 -60.65 17.7 -60.8 17.35 -60.9 16.95 -61.05 16.55 -61.15 16.15 -61.25 15.75 -61.3 15.65 -61.15 15.55 -61.05 15.4 -60.9 15.3 -60.75 15.2 -60.6 15.05 -60.45 14.9 -60.3 14.8 -60.15 14.65 -60.0 14.5 -59.85 14.3 -59.65 14.15 -59.5 14.0 -59.3 13.8 -59.15 13.6 -58.95 13.45 -58.8 13.15 -58.55 12.95 -58.35 12.55 -58.05 12.2 -57.75 11.7 -57.4 11.25 -57.05 10.65 -56.65 10.05 -56.3 9.35 -55.95 8.65 -55.6 7.85 -55.25 7.05 -54.95 6.15 -54.65 5.25 -54.45 4.25 -54.2 3.25 -54.1 2.55 -54.05 1.8 -54.0 1.15 -54.0 0.5 -54.05 -0.15 -54.1 -0.75 -54.15 -1.25 -54.25 -1.8 -54.35 -2.3 -54.45 -2.75 -54.55 -3.15 -54.65 -3.5 -54.75 -3.8 -54.85 -4.1 -54.95 -4.3 -55.05 -4.5 -55.1 -5.35 -55.45 -6.15 -55.85 -6.9 -56.25 -7.6 -56.7 -8.25 -57.15 -8.85 -57.6 -9.4 -58.05 -9.9 -58.55 -10.35 -59.0 -10.8 -59.5 -11.15 -59.9 -11.5 -60.35 -11.8 -60.7 -12.05 -61.05 -12.25 -61.35 -12.45 -61.65 -15.35 -60.05 -21.2 -56.8 -21.3 -55.95 -21.6 -54.2 -22.1 -54.05 -22.65 -53.9 -23.1 -53.8 -23.6 -53.65 -24.05 -53.5 -24.55 -53.35 -25.0 -53.2 -25.4 -53.05 -25.85 -52.95 -26.25 -52.8 -26.65 -52.65 -27.0 -52.55 -27.4 -52.4 -27.75 -52.3 -28.05 -52.15 -28.4 -52.05 -29.05 -51.8 -29.55 -51.6 -30.1 -51.4 -30.55 -51.2 -30.95 -51.05 -31.3 -50.9 -31.6 -50.75 -31.9 -50.6 -32.15 -50.45 -32.35 -50.35 -32.5 -50.25 -32.7 -50.1 -32.8 -50.05 -32.95 -49.95 -33.05 -49.85 -33.15 -49.75 -33.5 -49.45 -33.75 -49.15 -34.0 -48.85 -34.25 -48.5 -34.45 -48.2 -34.65 -47.85 -34.8 -47.5 -34.95 -47.15 -35.1 -46.8 -35.25 -46.35 -35.35 -46.05 -35.55 -45.55 -35.95 -44.15 -35.8 -44.65 -36.0 -44.1 -36.15 -43.7 -36.4 -43.0 -36.65 -42.3 -36.9 -41.65 -37.2 -41.0 -37.5 -40.4 -37.8 -39.75 -38.15 -39.15 -38.5 -38.5 -38.85 -37.9 -39.25 -37.25 -39.6 -36.65 -40.05 -35.9 -40.45 -35.25 -41.0 -34.45 -41.3 -33.9 -42.05 -32.8 -42.65 -31.9 -43.15 -31.15 -43.6 -30.5 -44.05 -29.9 -44.4 -29.45 -44.8 -28.95 -44.75 -29.05 -45.4 -28.2 -45.75 -27.8 -45.95 -27.55 -46.2 -27.25 -46.4 -26.9 -46.6 -26.55 -46.8 -26.15 -47.0 -25.7 -47.25 -25.15 -47.5 -24.45 -47.75 -23.8 -47.95 -23.1 -48.1 -22.45 -48.25 -21.8 -48.35 -21.15 -48.45 -20.5 -48.5 -19.9 -48.6 -19.3 -48.6 -18.7 -48.65 -18.15 -48.7 -17.55 -48.7 -17.05 -48.7 -16.5 -48.7 -16.15 -48.7 -15.5 -48.7 -15.25 -48.7 -14.95 -48.7 -14.65 -48.65 -14.3 -48.65 -13.85 -48.6 -13.45 -48.6 -12.95 -48.55 -12.45 -48.5 -11.9 -48.4 -11.35 -48.35 -10.75 -48.25 -10.15 -48.15 -9.5 -48.0 -8.85 -47.85 -8.15 -47.7 -7.45 -47.45 -6.4 -47.2 -5.65 -47.0 -5.2 -46.7 -4.45 -46.35 -3.6 -46.1 -3.0 -45.75 -2.0 -45.3 -0.55 -45.05 0.25 -44.85 1.1 -44.65 1.7 -44.45 2.5 -44.2 3.65 -44.15 3.7 -44.0 4.35 -43.9 4.75 -43.75 5.25 -43.6 5.6 -43.45 6.05 -43.25 6.4 -43.05 6.8 -42.8 7.15 -42.5 7.5 -42.2 7.85 -42.0 8.05 -41.8 8.25 -41.6 8.45 -41.4 8.6 -41.2 8.75 -40.95 8.9 -40.75 9.05 -40.55 9.2 -40.35 9.35 -40.15 9.5 -39.95 9.6 -39.75 9.7 -39.55 9.8 -39.35 9.95 -39.2 10.0 -38.95 10.15 -38.55 10.35 -38.2 10.55 -37.8 10.75 -37.4 10.9 -37.05 11.05 -36.7 11.2 -36.35 11.35 -36.0 11.45 -35.65 11.55 -35.35 11.65 -35.0 11.75 -34.7 11.85 -34.4 11.9 -34.15 11.95 -33.85 12.0 -33.6 12.05 -33.7 12.2 -33.75 12.3 -33.85 12.5 -33.95 12.65 -34.05 12.9 -34.15 13.15 -34.25 13.4 -34.35 13.7 -34.45 14.0 -34.5 14.3 -34.55 14.6 -34.55 14.9 -34.55 15.25 -34.5 15.55 -34.45 15.9 -34.3 16.2 -34.2 16.4 -34.1 16.55 -34.0 16.7 -33.85 16.85 -33.75 17.0 -33.6 17.15 -33.45 17.25 -33.3 17.4 -33.15 17.5 -32.95 17.6 -32.8 17.7 -32.6 17.8 -32.4 17.9 -32.2 18.0 -32.0 18.1 -31.75 18.2 -31.05 18.5 -30.7 18.65 -30.2 18.9 -29.8 19.05 -29.3 19.25 -28.9 19.4 -28.45 19.6 -28.05 19.7 -27.65 19.85 -27.2 20.0 -26.75 20.15 -26.3 20.25 -25.8 20.35 -25.3 20.45 -24.75 20.55 -24.2 20.65 -23.85 20.7 -23.6 20.75 -23.2 20.8 -22.8 20.85 -22.35 20.9 -21.9 20.95 -21.35 21.0 -20.85 21.05 -20.25 21.1 -19.65 21.1 -19.0 21.15 -18.35 21.15 -17.65 21.15 -16.95 21.1 -16.2 21.1 -15.45 21.05 -14.95 21.0 -14.45 20.95 -14.05 20.9 -13.6 20.85 -12.35 20.7 -12.85 20.75 -12.45 20.7 -12.15 20.7 -11.8 20.65 -11.55 20.65 -11.2 20.6 -10.9 20.65 -10.55 20.65 -10.2 20.7 -9.85 20.7 -9.45 20.8 -9.05 20.9 -8.7 21.0 -8.4 21.05 -8.1 21.2 -7.8 21.3 -7.55 21.4 -7.35 21.5 -7.05 21.65 -7.1 21.65 -6.55 21.9 -6.25 22.1 -6.05 22.2 -5.7 22.35 -5.4 22.5 -5.05 22.65 -4.65 22.8 -4.35 22.9 -4.1 23.0 -3.85 23.05 -3.55 23.1 -3.3 23.15 -3.0 23.2 -2.65 23.2 -2.2 23.25 -1.85 23.25 -1.2 23.3 -1.2 23.3 0.15 23.3 1.1 23.35 1.9 23.4 3.05 23.45 4.25 23.5 4.2 23.5 6.1 23.6 7.05 23.6 7.65 23.65 8.4 23.65 8.95 23.65 9.55 23.65 10.0 23.65 10.5 23.6 10.9 23.5 11.3 23.45 11.65 23.3 12.0 23.2 12.3 23.0 12.55 22.8 12.8 22.55 12.9 22.45 13.0 22.35 13.1 22.25 13.15 22.15 13.2 22.1 13.3 21.95 13.4 21.8 13.45 21.75 13.5 21.65 13.6 21.6 13.7 21.45 13.75 21.4 13.9 21.3 14.0 21.15 14.1 21.05 14.25 20.95 14.55 20.75 14.85 20.55 15.15 20.4 15.45 20.3 15.75 20.15 16.1 20.1 16.4 20.0 16.7 19.95 17.0 19.9 17.3 19.85 17.55 19.85 17.85 19.8 18.1 19.8 18.35 19.8 18.55 19.8 18.8 19.8 19.1 19.8 19.4 19.8 19.65 19.85 19.85 19.85 20.05 19.9 20.25 19.95 20.4 19.95 20.65 20.0 20.9 20.1 21.0 20.1 21.25 20.15 21.45 20.2 21.7 20.2 21.95 20.25 22.2 20.25 22.55 20.25 22.65 20.25 22.7 20.25 22.85 20.25 22.95 20.25 23.15 20.25 23.3 20.25 23.5 20.25 23.7 20.2 23.95 20.2 24.2 20.15 24.5 20.15 24.8 20.1 25.15 20.05 25.45 19.95 25.85 19.9 26.2 19.8 27.0 19.6 27.8 19.4 28.5 19.2 29.25 18.95 29.95 18.7 30.6 18.45 31.2 18.2 31.75 17.95 32.25 17.75 32.75 17.5 33.1 17.3 33.45 17.15 33.75 17.0 33.95 16.85 34.1 16.8 34.2 16.75 34.95 16.3 35.25 16.1 35.85 15.75 36.35 15.45 36.9 15.1 37.4 14.75 37.9 14.4 38.4 14.0 38.9 13.6 39.35 13.15 39.85 12.7 40.25 12.25 40.7 11.75 41.1 11.2 41.5 10.6 41.85 10.0 42.15 9.5 42.35 9.0 42.5 8.6 42.65 8.15 42.7 7.8 42.8 7.4 42.85 7.15 42.9 6.6 43.0 6.05 43.05 5.75 43.15 5.25 43.25 4.8 43.4 4.2 43.6 3.6 43.85 2.9 44.15 2.1 44.45 1.4 44.75 0.8 45.0 0.25 45.3 -0.2 45.5 -0.6 45.8 -1.05 45.95 -1.3 46.25 -1.75 46.55 -2.2 46.7 -2.45 46.95 -2.8 47.15 -3.15 47.35 -3.5 47.55 -3.95 47.75 -4.4 47.9 -4.95 47.95 -5.15 48.0 -5.3 48.1 -5.6 48.15 -5.9 48.25 -6.25 48.3 -6.65 48.35 -7.1 48.4 -7.65 48.45 -8.2 48.45 -8.85 48.5 -9.5 48.45 -10.25 48.4 -11.05 48.3 -11.9 48.2 -12.85 48.05 -13.8 L48.05 -13.8 M12.05 18.6 Q12.0 18.7 12.0 18.8 11.95 18.9 11.9 19.0 11.85 19.1 11.8 19.2 11.7 19.3 11.65 19.4 11.6 19.45 11.5 19.55 11.45 19.65 11.35 19.7 11.25 19.8 11.15 19.85 11.1 19.9 11.0 19.95 10.85 20.05 10.7 20.1 10.55 20.15 10.35 20.2 10.2 20.25 10.0 20.25 9.85 20.3 9.65 20.3 9.5 20.3 9.3 20.3 9.15 20.3 9.0 20.3 8.8 20.3 8.65 20.25 8.45 20.25 8.3 20.2 8.1 20.15 7.95 20.1 7.75 20.05 7.6 19.95 7.4 19.9 7.25 19.8 7.05 19.7 6.9 19.6 6.75 19.5 6.6 19.4 6.45 19.3 6.3 19.15 6.15 19.05 6.05 18.9 5.9 18.75 5.8 18.6 5.7 18.45 5.65 18.35 5.55 18.2 5.45 18.05 5.4 17.9 5.35 17.75 5.25 17.65 5.2 17.45 5.0 17.0 5.05 17.15 5.0 17.0 4.9 16.9 4.85 16.7 4.8 16.6 4.7 16.45 4.6 16.3 4.55 16.25 4.5 16.15 4.5 16.1 4.45 16.05 4.4 16.0 4.35 15.95 4.3 15.9 4.25 15.8 4.2 15.75 4.15 15.7 4.1 15.65 4.05 15.6 4.0 15.55 3.95 15.5 3.9 15.45 3.8 15.4 3.75 15.35 3.65 15.25 3.65 15.25 3.6 15.2 3.55 15.2 3.55 15.2 3.55 15.15 3.5 15.15 3.45 15.1 3.25 14.95 3.1 14.85 3.05 14.8 2.95 14.7 2.8 14.6 2.7 14.55 2.6 14.45 2.5 14.35 2.4 14.25 2.25 14.15 2.15 14.05 2.05 13.95 1.95 13.85 1.85 13.75 1.75 13.65 1.65 13.55 1.6 13.4 1.5 13.3 1.4 13.2 1.3 13.1 1.25 12.95 1.2 12.8 1.15 12.7 1.1 12.55 1.05 12.4 1.0 12.25 0.95 12.1 0.95 12.0 0.95 11.85 0.95 11.7 0.95 11.55 0.95 11.4 1.0 11.25 1.0 11.1 1.05 11.0 1.1 10.9 1.15 10.8 1.2 10.75 1.25 10.65 1.3 10.6 1.35 10.5 1.45 10.45 1.5 10.4 1.6 10.35 1.65 10.3 1.75 10.25 1.85 10.2 1.9 10.2 2.0 10.15 2.1 10.1 2.15 10.1 2.2 10.05 2.25 10.05 2.25 10.0 2.3 10.0 2.35 9.95 2.4 9.95 2.45 9.9 2.45 9.9 2.5 9.85 2.55 9.85 2.6 9.8 2.65 9.8 2.65 9.75 2.7 9.75 2.75 9.7 2.8 9.7 3.15 9.5 3.9 9.1 3.9 9.1 3.95 9.1 4.25 8.85 4.9 8.3 5.55 7.8 5.9 7.5 5.95 7.45 6.1 7.35 6.25 7.25 6.3 7.2 6.3 7.2 6.3 7.2 5.9 6.75 5.4 6.1 5.35 6.0 5.15 5.75 5.05 5.65 4.9 5.5 4.8 5.35 4.7 5.25 4.6 5.1 4.45 4.95 4.35 4.85 4.25 4.7 4.15 4.55 4.05 4.4 3.95 4.25 3.85 4.1 3.75 4.0 3.65 3.8 3.6 3.7 3.5 3.55 3.25 3.15 2.7 2.25 0.6 -0.9 0.3 -1.3 -0.2 -1.95 -0.9 -2.85 -1.0 -3.0 -1.75 -4.05 -3.35 -5.85 -3.9 -6.85 -4.0 -7.0 -4.05 -7.1 -4.1 -7.25 -4.2 -7.4 -4.25 -7.55 -4.3 -7.65 -4.35 -7.8 -4.4 -7.95 -4.45 -8.1 -4.5 -8.25 -4.5 -8.4 -4.55 -8.55 -4.55 -8.7 -4.6 -8.85 -4.6 -9.0 -4.6 -9.15 -4.6 -9.3 -4.6 -9.5 -4.6 -9.65 -4.6 -9.8 -4.6 -9.95 -4.6 -10.15 -4.55 -10.3 -4.55 -10.45 -4.55 -10.65 -4.5 -10.8 -4.5 -10.95 -4.45 -11.15 -4.4 -11.3 -4.4 -11.45 -4.35 -11.6 -4.3 -11.8 -4.25 -12.1 -4.05 -13.05 -4.0 -13.3 -3.9 -13.7 -3.75 -14.25 -3.75 -14.4 -3.7 -14.55 -3.7 -14.7 -3.65 -14.9 -3.6 -15.05 -3.6 -15.2 -3.55 -15.35 -3.55 -15.5 -3.55 -15.7 -3.55 -15.85 -3.55 -16.0 -3.55 -16.15 -3.55 -16.35 -3.6 -16.5 -3.6 -16.65 -3.65 -16.8 -3.65 -16.95 -3.7 -17.2 -3.75 -17.55 -3.85 -18.0 -3.85 -18.15 -3.85 -18.25 -3.9 -18.3 -3.9 -18.35 -3.9 -18.45 -3.95 -18.5 -3.95 -18.55 -4.0 -18.65 -4.0 -18.7 -4.05 -18.75 -4.05 -18.85 -4.05 -18.9 -4.1 -18.95 -4.15 -19.0 -4.15 -19.1 -4.2 -19.15 -4.2 -19.2 -4.25 -19.25 -4.25 -19.3 -4.3 -19.35 -4.35 -19.4 -4.4 -19.45 -4.45 -19.5 -4.45 -19.5 -4.5 -19.55 -4.55 -19.6 -4.6 -19.65 -4.65 -19.7 -4.65 -19.75 -4.7 -19.8 -4.75 -19.8 -4.8 -19.85 -4.85 -19.9 -4.9 -19.95 -4.95 -20.0 -4.95 -20.05 -5.0 -20.1 -5.05 -20.2 -5.1 -20.25 -5.1 -20.3 -5.15 -20.35 -5.15 -20.4 -5.2 -20.5 -5.2 -20.55 -5.25 -20.6 -5.25 -20.65 -5.3 -20.75 -5.3 -20.8 -5.3 -20.85 -5.3 -20.95 -5.3 -21.05 -5.35 -21.15 -5.35 -21.25 -5.35 -21.35 -5.35 -21.45 -5.35 -21.5 -5.3 -21.6 -5.3 -21.7 -5.3 -21.8 -5.3 -21.9 -5.25 -22.0 -5.25 -22.1 -5.25 -22.2 -5.2 -22.3 -5.2 -22.35 -5.35 -22.45 -5.55 -22.55 -5.7 -22.65 -5.9 -22.75 -6.05 -22.8 -6.25 -22.9 -6.4 -22.95 -6.6 -23.0 -6.8 -23.1 -7.0 -23.15 -7.15 -23.2 -7.35 -23.25 -7.55 -23.3 -7.75 -23.35 -7.9 -23.4 -8.1 -23.45 -10.6 -24.1 -11.3 -24.4 -11.4 -24.45 -11.5 -24.5 -11.6 -24.5 -11.7 -24.55 -11.8 -24.6 -11.9 -24.65 -12.0 -24.7 -12.1 -24.75 -12.15 -24.8 -12.25 -24.85 -12.35 -24.9 -12.45 -24.95 -12.55 -25.05 -12.6 -25.1 -12.7 -25.15 -12.8 -25.2 -12.9 -25.25 -13.0 -25.35 -13.1 -25.45 -13.15 -25.5 -13.25 -25.6 -13.35 -25.7 -13.45 -25.75 -13.5 -25.85 -13.6 -25.95 -13.7 -26.05 -13.75 -26.1 -13.85 -26.2 -13.95 -26.3 -14.0 -26.4 -14.1 -26.5 -14.15 -26.6 -14.35 -26.8 -14.5 -27.05 -14.7 -27.25 -14.85 -27.5 -15.0 -27.7 -15.2 -27.95 -15.35 -28.2 -15.5 -28.4 -15.65 -28.65 -15.75 -28.9 -15.9 -29.15 -16.0 -29.4 -16.15 -29.7 -16.25 -29.95 -16.35 -30.2 -16.45 -30.45 -16.5 -30.6 -16.55 -30.75 -16.6 -30.9 -16.65 -31.05 -16.65 -31.2 -16.7 -31.3 -16.75 -31.4 -16.75 -31.55 -16.75 -31.65 -16.75 -31.75 -16.75 -31.85 -16.75 -32.0 -16.75 -32.1 -16.75 -32.2 -16.75 -32.3 -16.7 -32.4 -16.65 -32.55 -16.6 -32.7 -16.6 -32.8 -16.5 -32.9 -16.5 -33.0 -16.4 -33.1 -16.3 -33.35 -16.3 -33.3 -16.25 -33.45 -16.2 -33.5 -16.2 -33.6 -16.15 -33.7 -16.1 -33.85 -16.1 -33.95 -16.1 -34.05 -16.1 -34.2 -16.1 -34.3 -16.1 -34.4 -16.15 -34.5 -16.15 -34.6 -16.2 -34.65 -16.2 -34.75 -16.25 -34.85 -16.25 -34.9 -16.3 -35.0 -16.35 -35.05 -16.35 -35.15 -16.4 -35.2 -16.4 -35.25 -16.45 -35.3 -16.45 -35.35 -16.5 -35.4 -16.55 -35.5 -17.0 -36.2 -17.2 -36.55 -17.45 -37.05 -18.2 -38.55 -19.1 -41.55 -19.65 -43.4 -19.8 -43.75 -20.15 -44.7 -20.65 -45.9 -22.2 -49.3 -22.5 -50.2 -22.55 -50.35 -22.8 -51.1 -22.8 -51.15 -22.85 -51.2 -22.85 -51.25 -22.9 -51.3 -22.9 -51.35 -22.9 -51.4 -22.95 -51.45 -22.95 -51.5 -23.0 -51.55 -23.0 -51.6 -23.0 -51.65 -23.0 -51.7 -23.05 -51.8 -23.05 -51.85 -23.05 -51.9 -23.05 -51.95 -23.1 -52.05 -23.1 -52.2 -23.1 -52.3 -23.1 -52.4 -23.1 -52.5 -23.1 -52.65 -23.1 -52.75 -23.05 -52.85 -23.05 -52.95 -23.0 -53.05 -22.95 -53.15 -22.9 -53.25 -22.85 -53.35 -22.8 -53.45 -22.7 -53.55 -22.6 -53.6 -22.5 -53.7 -22.4 -53.75 -22.3 -53.85 -22.15 -53.9 -22.05 -53.95 -21.95 -54.0 -21.8 -54.0 -21.7 -54.05 -21.55 -54.05 -21.45 -54.05 -21.3 -54.05 -21.2 -54.05 -21.05 -54.05 -20.95 -54.0 -20.8 -54.0 -20.7 -53.95 -20.5 -53.9 -18.9 -53.1 -18.7 -53.0 -18.5 -52.9 -18.3 -52.8 -18.15 -52.65 -17.95 -52.55 -17.8 -52.4 -17.6 -52.25 -17.45 -52.1 -17.3 -51.95 -17.15 -51.8 -17.0 -51.6 -16.85 -51.45 -16.7 -51.25 -16.6 -51.1 -16.45 -50.9 -16.35 -50.7 -16.1 -50.3 -15.5 -48.9 -14.95 -47.75 -14.45 -46.7 -13.0 -43.65 -12.45 -42.35 -11.95 -41.25 -10.95 -38.75 -10.05 -36.4 -9.45 -35.2 -9.35 -35.0 -9.25 -34.75 -9.15 -34.55 -9.05 -34.35 -8.9 -34.15 -8.8 -33.9 -8.7 -33.7 -8.6 -33.5 -8.45 -33.3 -8.35 -33.1 -8.2 -32.9 -8.1 -32.7 -7.95 -32.5 -7.8 -32.3 -7.7 -32.1 -7.55 -31.9 -7.5 -31.8 -7.4 -31.75 -7.35 -31.65 -7.3 -31.6 -7.2 -31.5 -7.15 -31.4 -7.1 -31.35 -7.0 -31.25 -6.95 -31.2 -6.85 -31.1 -6.8 -31.05 -6.7 -30.95 -6.65 -30.9 -6.55 -30.85 -6.5 -30.75 -6.4 -30.7 -6.2 -30.55 -5.75 -30.3 -5.3 -30.0 -5.1 -29.85 -5.0 -29.8 -4.95 -29.75 -4.85 -29.65 -4.8 -29.6 -4.7 -29.55 -4.65 -29.45 -4.6 -29.4 -4.5 -29.35 -4.45 -29.25 -4.4 -29.2 -4.35 -29.1 -4.25 -29.0 -4.2 -28.95 -4.15 -28.85 -4.1 -28.75 -4.1 -28.65 -4.05 -28.55 -4.0 -28.45 -3.95 -28.3 -3.9 -28.2 -3.9 -28.1 -3.85 -27.95 -3.8 -27.85 -3.8 -27.75 -3.75 -27.6 -3.75 -27.5 -3.75 -27.4 -3.7 -27.25 -3.7 -27.15 -3.7 -27.0 -3.7 -26.9 -3.65 -26.75 -3.65 -26.55 -3.6 -26.4 -3.6 -26.2 -3.6 -26.0 -3.6 -25.8 -3.6 -25.6 -3.6 -25.45 -3.6 -25.25 -3.6 -25.05 -3.6 -24.85 -3.6 -24.65 -3.6 -24.45 -3.6 -24.3 -3.65 -24.1 -3.65 -23.9 -3.7 -23.7 -3.6 -23.7 -3.5 -23.65 -3.4 -23.6 -3.3 -23.55 -3.2 -23.5 -3.1 -23.45 -3.05 -23.4 -2.95 -23.3 -2.9 -23.25 -2.8 -23.15 -2.75 -23.1 -2.65 -23.0 -2.6 -22.9 -2.55 -22.8 -2.45 -22.75 -2.4 -22.65 -2.05 -22.1 -1.55 -20.85 -1.5 -20.75 -1.35 -20.45 -1.35 -20.45 -1.35 -20.4 -1.35 -20.4 -1.3 -20.35 -1.3 -20.35 -1.3 -20.35 -1.3 -20.3 -1.3 -20.3 -1.25 -20.25 -1.25 -20.2 -1.25 -20.2 -1.25 -20.15 -1.0 -19.6 -0.75 -19.15 -0.35 -18.3 0.1 -17.4 0.15 -17.3 0.2 -17.15 0.3 -17.05 0.35 -16.9 0.4 -16.8 0.45 -16.65 0.55 -16.55 0.6 -16.4 0.65 -16.3 0.7 -16.15 0.8 -16.05 0.85 -15.9 0.9 -15.8 1.0 -15.7 1.05 -15.55 1.1 -15.45 1.2 -15.25 1.35 -15.0 1.45 -14.8 1.6 -14.6 1.7 -14.35 1.8 -14.15 1.95 -13.95 2.05 -13.7 2.2 -13.5 2.3 -13.3 2.45 -13.1 2.6 -12.85 2.7 -12.65 2.85 -12.45 3.0 -12.25 3.1 -12.05 3.15 -12.05 3.2 -12.05 3.25 -12.0 3.3 -12.0 3.3 -11.95 3.35 -11.95 3.7 -11.5 3.8 -11.35 4.05 -11.0 4.5 -10.2 5.0 -9.45 5.2 -9.05 5.35 -8.85 5.65 -8.5 5.95 -8.1 6.9 -7.05 7.2 -6.7 7.3 -6.6 7.55 -6.35 7.7 -6.15 7.95 -5.9 8.1 -5.65 8.35 -5.4 8.5 -5.2 8.7 -4.95 8.85 -4.7 9.05 -4.4 9.2 -4.15 9.4 -3.9 9.5 -3.65 9.65 -3.35 9.8 -3.1 9.85 -2.95 9.9 -2.85 9.95 -2.7 10.0 -2.6 10.05 -2.45 10.05 -2.3 10.1 -2.15 10.15 -2.05 10.15 -1.9 10.2 -1.75 10.2 -1.65 10.2 -1.5 10.2 -1.35 10.2 -1.2 10.2 -1.1 10.2 -0.95 10.2 -0.85 10.15 -0.75 10.15 -0.65 10.1 -0.6 10.05 -0.5 10.0 -0.4 10.0 -0.3 9.95 -0.25 9.9 -0.15 9.85 -0.05 9.8 0.0 9.75 0.1 9.7 0.15 9.65 0.25 9.6 0.3 9.55 0.4 9.4 0.6 8.35 1.8 8.25 1.9 8.05 2.15 8.05 2.2 8.0 2.2 8.0 2.25 7.95 2.3 7.95 2.3 7.9 2.35 7.9 2.35 7.85 2.4 7.85 2.45 7.8 2.5 7.75 2.55 7.75 2.6 7.7 2.6 7.7 2.65 7.65 2.7 7.65 2.75 7.6 2.8 7.55 2.85 7.55 2.9 7.5 2.9 7.5 2.95 7.45 3.0 7.45 3.05 7.4 3.1 7.4 3.15 7.35 3.2 7.35 3.25 7.3 3.25 7.3 3.3 7.3 3.35 7.25 3.35 7.25 3.4 7.25 3.4 7.2 3.45 7.2 3.5 7.2 3.5 7.2 3.5 7.2 3.5 7.2 3.55 7.15 3.6 7.15 3.65 7.15 3.7 7.1 3.75 7.1 3.8 7.1 3.85 7.1 3.85 7.1 3.9 7.05 3.95 7.05 4.0 7.05 4.05 7.05 4.0 7.05 4.1 7.05 4.1 7.05 4.15 7.05 4.25 7.05 4.35 7.05 4.35 7.05 4.4 7.05 4.45 7.05 4.45 7.05 4.5 7.1 4.55 7.1 4.6 7.1 4.65 7.1 4.7 7.15 4.75 7.15 4.75 7.15 4.75 7.15 4.8 7.2 4.85 7.2 4.85 7.25 4.9 7.25 4.95 7.3 5.0 7.3 5.0 7.35 5.05 7.35 5.1 7.4 5.15 7.35 5.1 7.45 5.2 7.45 5.2 7.5 5.25 7.55 5.3 7.55 5.35 7.6 5.35 7.6 5.4 7.65 5.4 7.7 5.45 7.75 5.5 7.75 5.5 7.8 5.55 7.85 5.55 7.85 5.6 7.9 5.6 7.9 5.65 7.95 5.7 8.0 5.7 8.05 5.75 8.1 5.75 8.1 5.75 8.15 5.75 8.2 5.7 8.2 5.7 8.25 5.7 8.3 5.7 8.3 5.7 8.35 5.7 8.4 5.7 8.45 5.7 8.45 5.7 8.5 5.7 8.55 5.7 8.55 5.75 8.6 5.75 8.65 5.75 8.7 5.75 8.7 5.75 8.75 5.75 L8.9 5.75 Q9.6 5.6 8.95 5.85 8.95 5.85 8.95 5.85 9.0 5.85 9.0 5.9 9.05 5.9 9.1 5.9 9.15 5.95 9.15 5.95 9.2 6.0 9.2 6.0 9.25 6.05 9.35 6.05 9.4 6.1 9.45 6.1 9.5 6.15 9.55 6.2 9.6 6.25 9.65 6.3 9.75 6.3 9.8 6.35 9.85 6.4 9.9 6.45 9.95 6.5 10.0 6.55 10.0 6.6 10.05 6.65 10.15 6.7 10.25 6.8 10.35 6.9 10.4 6.95 10.5 7.05 10.6 7.15 10.65 7.25 10.7 7.35 10.8 7.45 10.85 7.55 10.9 7.65 10.95 7.75 11.0 7.85 11.05 8.0 11.1 8.1 11.15 8.2 11.2 8.35 11.25 8.5 11.3 8.65 11.35 8.85 11.35 9.0 11.4 9.15 11.4 9.3 11.45 9.5 11.45 9.65 11.5 9.8 11.5 9.95 11.5 10.15 11.55 10.3 11.55 10.45 11.55 10.6 11.55 10.8 11.6 11.05 11.65 12.15 11.75 12.95 11.8 13.25 11.8 13.3 11.8 13.3 11.8 13.35 11.8 13.4 11.8 13.4 11.8 13.45 11.8 13.5 11.75 13.5 11.75 13.55 11.75 13.55 11.75 13.6 11.7 13.6 11.7 13.65 11.65 13.65 11.65 13.7 11.6 13.7 11.75 14.1 11.9 14.65 12.2 15.95 12.25 16.75 12.25 16.85 12.25 17.0 12.25 17.1 12.25 17.2 12.25 17.35 12.25 17.45 12.25 17.55 12.25 17.7 12.25 17.8 12.25 17.9 12.2 18.05 12.2 18.15 12.15 18.25 12.15 18.4 12.1 18.5 12.05 18.6 L12.05 18.6" fill="#5e8ead" fill-rule="evenodd" stroke="none"/>
    <path d="M8.2 5.85 Q8.25 5.85 8.3 5.85 L8.15 5.85 Q8.2 5.85 8.2 5.85 L8.2 5.85" fill="#5e8ead" fill-rule="evenodd" stroke="none"/>
  </g>
</svg>
