<?xml version="1.0" encoding="UTF-8" standalone="no"?>
<svg xmlns:xlink="http://www.w3.org/1999/xlink" height="200.0px" width="200.0px" xmlns="http://www.w3.org/2000/svg">
  <g transform="matrix(1.0, 0.0, 0.0, 1.0, 100.0, 100.0)">
    <path d="M-27.2 -40.75 Q-26.2 -41.15 -24.15 -41.9 -23.9 -41.6 -23.6 -41.35 -23.35 -41.05 -23.05 -40.75 -22.8 -40.5 -22.5 -40.2 -22.2 -39.95 -21.95 -39.65 -21.65 -39.35 -21.4 -39.1 -21.1 -38.8 -20.8 -38.5 -20.5 -38.25 -20.25 -37.95 -19.95 -37.65 -19.65 -37.4 -18.65 -36.4 -17.3 -35.15 -17.25 -34.9 -17.2 -34.65 -17.15 -34.35 -17.1 -34.1 -17.05 -33.8 -17.0 -33.55 -16.95 -33.25 -16.85 -32.95 -16.8 -32.65 -16.7 -32.4 -16.65 -32.1 -16.55 -31.8 -16.45 -31.5 -16.4 -31.15 -16.3 -30.85 -16.2 -30.55 -16.1 -30.2 -15.95 -29.85 -15.85 -29.5 -15.7 -29.15 -15.6 -28.85 -15.45 -28.5 -15.35 -28.2 -15.2 -27.9 -15.05 -27.6 -14.95 -27.3 -14.8 -27.0 -14.65 -26.7 -14.55 -26.45 -14.4 -26.15 -14.25 -25.9 -14.15 -25.65 -14.15 -25.55 -14.2 -25.5 -14.25 -25.4 -14.25 -25.3 -14.3 -25.2 -14.35 -25.15 -14.35 -25.05 -14.4 -24.95 -14.45 -24.85 -14.5 -24.75 -14.55 -24.65 -14.6 -24.6 -14.65 -24.5 -14.7 -24.4 -14.8 -24.3 -14.85 -24.2 -15.1 -23.85 -15.45 -23.55 -15.75 -23.3 -16.1 -23.1 -16.4 -22.9 -16.75 -22.7 -17.05 -22.6 -17.4 -22.5 -17.7 -22.4 -18.05 -22.3 -18.3 -22.25 -18.55 -22.25 -18.8 -22.2 -19.0 -22.2 -19.1 -22.2 -19.25 -22.15 -21.9 -28.4 -27.2 -40.75 L-27.2 -40.75" fill="#36b3ff" fill-rule="evenodd" stroke="none"/>
    <path d="M-7.7 -10.85 Q-7.75 -10.75 -7.8 -10.75 -7.85 -10.65 -7.95 -10.55 -8.05 -10.4 -8.15 -10.25 -8.25 -10.05 -8.35 -9.85 -8.5 -9.65 -8.55 -9.4 -8.65 -9.15 -8.7 -8.85 -8.75 -8.6 -8.7 -8.3 -8.7 -8.0 -8.6 -7.65 -8.55 -7.5 -8.5 -7.35 -8.45 -7.2 -8.35 -7.05 -8.3 -6.95 -8.2 -6.8 -8.15 -6.7 -8.05 -6.6 -8.0 -6.5 -7.9 -6.4 -7.85 -6.3 -7.75 -6.25 -7.7 -6.2 -7.6 -6.15 -7.55 -6.1 -7.5 -6.05 -7.55 -2.65 -7.7 4.4 -4.35 9.2 2.3 18.8 2.9 18.35 4.15 17.55 3.95 16.7 3.65 15.0 4.7 14.1 6.8 12.25 6.2 11.05 4.85 8.45 0.7 2.05 -7.7 -10.85 L-7.7 -10.85" fill="#36b3ff" fill-rule="evenodd" stroke="none"/>
    <path d="M10.15 33.6 Q11.9 32.85 15.4 31.45 15.5 31.55 15.65 31.7 15.8 31.8 15.95 31.9 16.1 32.05 16.3 32.15 16.45 32.3 16.65 32.4 16.85 32.5 17.05 32.65 17.3 32.75 17.5 32.85 17.75 32.95 18.0 33.05 18.25 33.1 18.55 33.2 18.85 33.25 19.15 33.3 19.45 33.35 19.75 33.35 20.05 33.35 20.35 33.35 20.7 33.3 21.05 33.25 21.4 33.2 21.8 33.1 22.15 33.0 22.6 32.85 23.0 32.7 23.5 32.55 24.0 32.4 24.55 32.15 25.5 31.8 26.0 31.6 26.75 31.3 27.3 31.1 27.95 30.85 28.45 30.65 29.0 30.4 29.5 30.15 30.0 29.95 30.45 29.7 30.9 29.45 31.35 29.2 31.75 28.95 32.2 28.7 32.6 28.4 33.05 28.05 33.6 27.65 34.15 27.2 34.65 26.75 35.15 26.3 35.6 25.85 36.05 25.4 36.45 25.0 36.85 24.55 37.2 24.1 37.55 23.65 37.85 23.25 38.15 22.85 38.45 22.45 38.7 22.05 38.95 21.7 39.15 21.35 39.45 21.65 39.75 22.0 40.05 22.3 40.3 22.65 40.6 22.95 40.85 23.25 41.05 23.55 41.3 23.85 41.5 24.1 41.75 24.4 41.9 24.65 42.1 24.9 42.3 25.15 42.45 25.4 42.6 25.6 42.75 25.85 43.35 26.7 43.85 27.6 44.35 28.45 44.8 29.35 45.25 30.25 45.65 31.15 46.05 32.05 46.4 33.05 46.75 34.0 47.1 35.1 47.45 36.05 47.8 37.25 48.15 38.25 48.55 39.6 48.8 40.5 49.3 42.15 50.05 44.8 50.6 47.05 42.3 51.45 25.7 60.25 20.95 60.25 11.5 60.25 11.05 51.4 10.15 33.6 L10.15 33.6" fill="#36b3ff" fill-rule="evenodd" stroke="none"/>
  </g>
</svg>
