<?xml version="1.0" encoding="UTF-8" standalone="no"?>
<svg xmlns:xlink="http://www.w3.org/1999/xlink" height="200.0px" width="200.0px" xmlns="http://www.w3.org/2000/svg">
  <g transform="matrix(1.0, 0.0, 0.0, 1.0, 100.0, 100.0)">
    <path d="M55.6 34.1 Q55.5 33.45 55.35 32.8 55.2 32.1 55.05 31.45 54.9 30.8 54.7 30.15 54.55 29.5 54.35 28.85 54.15 28.2 53.95 27.55 53.75 26.95 53.55 26.3 53.3 25.65 53.1 25.0 52.85 24.35 52.6 23.75 52.2 22.7 51.8 21.75 51.4 20.75 50.95 19.75 50.55 18.75 50.05 17.8 49.6 16.85 49.1 15.9 48.6 14.95 48.05 14.05 47.5 13.1 46.95 12.25 46.35 11.3 45.75 10.45 45.1 9.55 44.45 8.75 44.4 8.7 44.35 8.6 44.35 8.55 44.3 8.5 44.3 8.45 44.25 8.35 44.25 8.3 44.25 8.25 44.25 8.2 44.25 8.1 44.25 8.05 44.25 8.0 44.25 7.95 44.25 7.85 44.25 7.8 44.25 7.7 44.35 7.05 44.5 6.4 44.6 5.75 44.8 5.15 44.95 4.5 45.15 3.9 45.35 3.3 45.6 2.65 45.8 2.1 46.1 1.45 46.35 0.9 46.6 0.25 46.9 -0.3 47.2 -0.9 47.5 -1.45 47.8 -2.05 48.05 -2.5 48.25 -2.95 48.45 -3.4 48.6 -3.9 48.8 -4.35 48.95 -4.85 49.1 -5.3 49.2 -5.8 49.3 -6.3 49.4 -6.8 49.45 -7.3 49.5 -7.8 49.55 -8.3 49.55 -8.8 49.6 -9.3 49.55 -9.8 49.5 -11.35 49.3 -12.9 49.1 -14.4 48.8 -15.95 48.45 -17.4 48.0 -18.9 47.6 -20.3 47.05 -21.8 46.6 -23.2 45.95 -24.65 45.4 -26.0 44.75 -27.5 44.2 -28.75 43.45 -30.25 43.0 -31.25 42.1 -33.05 41.95 -33.4 40.0 -37.2 38.75 -39.7 38.0 -41.4 37.8 -41.85 37.6 -42.3 37.4 -42.7 37.15 -43.15 36.95 -43.55 36.7 -43.95 36.4 -44.35 36.15 -44.75 35.85 -45.15 35.55 -45.5 35.25 -45.9 34.95 -46.25 34.6 -46.6 34.25 -46.9 33.9 -47.25 33.5 -47.55 33.05 -47.9 28.65 -51.85 28.55 -51.95 28.45 -52.05 28.4 -52.15 28.3 -52.25 28.25 -52.35 28.2 -52.45 28.15 -52.55 28.1 -52.65 28.1 -52.75 28.05 -52.9 28.05 -53.0 28.1 -53.1 28.1 -53.25 28.15 -53.35 28.15 -53.5 28.25 -53.6 28.3 -53.7 28.35 -53.85 28.35 -53.95 28.4 -54.05 28.4 -54.15 28.35 -54.3 28.35 -54.4 28.3 -54.5 28.3 -54.55 28.25 -54.65 28.2 -54.75 28.15 -54.85 28.1 -54.95 28.0 -55.0 27.95 -55.1 27.85 -55.2 27.25 -55.85 26.6 -56.45 25.95 -57.0 25.25 -57.55 24.6 -58.05 23.9 -58.55 23.2 -59.0 22.45 -59.45 21.7 -59.85 20.9 -60.25 20.15 -60.6 19.35 -60.95 18.55 -61.25 17.75 -61.55 16.9 -61.85 16.05 -62.1 15.9 -62.15 15.7 -62.15 15.55 -62.2 15.4 -62.2 15.2 -62.2 15.05 -62.2 14.9 -62.15 14.75 -62.1 14.6 -62.1 14.45 -62.0 14.35 -61.95 14.2 -61.85 14.05 -61.8 13.95 -61.7 13.8 -61.55 13.7 -61.45 13.3 -61.05 12.85 -60.65 12.45 -60.25 12.0 -59.9 11.55 -59.55 11.1 -59.2 10.6 -58.85 10.15 -58.55 9.65 -58.25 9.15 -57.95 8.7 -57.65 8.2 -57.35 7.7 -57.1 7.15 -56.8 6.7 -56.55 6.15 -56.3 5.8 -56.1 5.45 -55.95 5.1 -55.8 4.75 -55.7 4.4 -55.55 4.0 -55.45 3.65 -55.35 3.3 -55.3 2.9 -55.2 2.55 -55.15 2.15 -55.1 1.8 -55.1 1.4 -55.05 1.05 -55.05 0.65 -55.05 0.3 -55.1 -0.6 -55.2 -1.5 -55.35 -2.35 -55.55 -3.15 -55.85 -3.95 -56.15 -4.7 -56.55 -5.45 -56.9 -6.2 -57.35 -6.9 -57.8 -7.6 -58.35 -8.25 -58.85 -8.9 -59.45 -9.55 -60.0 -10.2 -60.6 -10.75 -61.2 -11.4 -61.85 -11.55 -62.0 -11.7 -62.15 -11.8 -62.25 -11.95 -62.35 -12.1 -62.45 -12.25 -62.5 -12.4 -62.55 -12.5 -62.6 -12.65 -62.65 -12.8 -62.65 -12.95 -62.65 -13.1 -62.65 -13.25 -62.6 -13.45 -62.55 -13.6 -62.5 -13.75 -62.4 -14.3 -62.15 -14.85 -61.85 -15.35 -61.6 -15.9 -61.3 -16.45 -61.05 -16.95 -60.75 -17.5 -60.45 -18.0 -60.15 -18.5 -59.85 -19.0 -59.55 -19.55 -59.2 -20.05 -58.9 -20.55 -58.55 -21.05 -58.2 -21.5 -57.85 -22.0 -57.5 -22.1 -57.4 -22.2 -57.35 -22.35 -57.25 -22.45 -57.15 -22.55 -57.05 -22.65 -56.95 -22.75 -56.85 -22.8 -56.7 -22.9 -56.6 -22.95 -56.5 -23.0 -56.35 -23.0 -56.25 -23.05 -56.15 -23.05 -56.0 -23.05 -55.9 -23.0 -55.75 -22.95 -55.6 -22.95 -55.45 -22.9 -55.35 -22.9 -55.25 -22.95 -55.15 -22.95 -55.1 -23.0 -55.05 -23.05 -55.0 -23.1 -54.95 -23.2 -54.9 -23.25 -54.85 -23.35 -54.85 -23.35 -54.85 -23.55 -54.8 -23.65 -54.75 -23.7 -54.7 -24.1 -54.55 -24.45 -54.4 -24.85 -54.3 -25.2 -54.15 -25.6 -54.05 -25.95 -53.9 -26.35 -53.8 -26.7 -53.7 -27.1 -53.6 -27.5 -53.5 -27.9 -53.4 -28.25 -53.3 -28.65 -53.25 -29.05 -53.15 -29.45 -53.1 -29.85 -53.05 -30.1 -53.0 -30.35 -52.95 -30.6 -52.9 -30.85 -52.8 -31.1 -52.7 -31.35 -52.6 -31.6 -52.5 -31.8 -52.4 -32.05 -52.25 -32.25 -52.15 -32.5 -52.0 -32.7 -51.85 -32.9 -51.65 -33.1 -51.5 -33.3 -51.3 -33.5 -51.1 -33.8 -50.75 -34.1 -50.4 -34.4 -50.05 -34.65 -49.65 -34.9 -49.3 -35.15 -48.85 -35.35 -48.5 -35.6 -48.05 -35.8 -47.7 -36.05 -47.25 -36.2 -46.95 -36.45 -46.45 -36.8 -45.75 -36.85 -45.6 -37.1 -45.15 -37.25 -44.8 -37.9 -43.65 -38.8 -41.4 -39.8 -39.0 -40.3 -37.95 -41.3 -36.05 -42.9 -33.5 -34.7 -46.3 -45.75 -29.2 -45.95 -28.9 -46.2 -28.5 -46.4 -28.25 -46.7 -27.85 -47.1 -27.25 -47.15 -27.2 -47.4 -26.8 -47.6 -26.5 -47.85 -26.15 -48.05 -25.85 -48.3 -25.45 -48.5 -25.1 -48.7 -24.75 -48.85 -24.4 -49.0 -24.0 -49.15 -23.6 -49.25 -23.35 -49.3 -23.1 -49.35 -22.85 -49.35 -22.6 -49.4 -22.35 -49.4 -22.1 -49.4 -21.85 -49.4 -21.55 -49.4 -21.5 -49.4 -21.05 -49.4 -20.75 -49.4 -20.55 -49.4 -20.3 -49.4 -20.05 -49.45 -19.8 -49.45 -19.55 -49.55 -18.9 -49.6 -18.25 -49.7 -17.6 -49.75 -16.9 -49.75 -16.25 -49.8 -15.6 -49.8 -14.95 -49.75 -14.3 -49.75 -13.6 -49.7 -12.95 -49.65 -12.3 -49.55 -11.65 -49.45 -11.0 -49.35 -10.35 -49.25 -9.7 -49.1 -9.05 -48.9 -8.2 -48.65 -7.3 -48.45 -6.5 -48.15 -5.6 -47.9 -4.8 -47.6 -3.9 -47.35 -3.1 -47.05 -2.2 -46.75 -1.45 -46.4 -0.55 -46.15 0.2 -45.8 1.15 -45.95 0.75 -45.15 2.8 -44.75 3.8 -44.5 4.5 -44.2 5.3 -43.85 6.0 -43.5 6.7 -43.1 7.35 -42.7 8.0 -42.25 8.6 -41.75 9.2 -41.25 9.7 -40.7 10.2 -40.1 10.65 -39.5 11.1 -38.85 11.45 -38.15 11.8 -37.45 12.1 -36.7 12.4 -35.85 12.6 -35.7 12.65 -35.55 12.7 -35.45 12.75 -35.35 12.75 -35.2 12.85 -35.15 12.9 -35.1 12.95 -35.05 13.0 -35.0 13.1 -35.0 13.2 -34.95 13.25 -35.0 13.4 -35.0 13.5 -35.05 13.65 -35.1 13.75 -35.2 13.9 -35.35 14.2 -35.45 14.55 -35.5 14.9 -35.55 15.3 -35.55 15.65 -35.5 16.05 -35.45 16.45 -35.3 16.8 -35.15 17.2 -35.0 17.55 -34.8 17.9 -34.55 18.2 -34.25 18.55 -33.95 18.75 -33.6 19.05 -33.25 19.2 -32.75 19.4 -32.3 19.6 -31.85 19.8 -31.4 20.0 -30.9 20.2 -30.45 20.35 -29.95 20.55 -29.5 20.7 -29.0 20.9 -28.55 21.05 -28.05 21.2 -27.55 21.35 -27.1 21.5 -26.6 21.65 -26.1 21.8 -25.65 21.9 -24.8 22.1 -24.1 22.3 -23.25 22.5 -22.5 22.65 -21.7 22.8 -20.95 22.9 -20.1 23.05 -19.35 23.15 -18.55 23.2 -17.75 23.25 -16.95 23.25 -16.15 23.2 -15.35 23.15 -14.55 23.05 -13.7 22.95 -12.9 22.75 -12.45 22.65 -12.0 22.6 -11.55 22.5 -11.1 22.45 -10.65 22.45 -10.2 22.45 -9.75 22.45 -9.35 22.5 -8.9 22.55 -8.45 22.65 -8.0 22.7 -7.6 22.85 -7.15 23.0 -6.7 23.15 -6.3 23.35 -5.85 23.55 -5.7 23.65 -5.5 23.75 -5.35 23.8 -5.15 23.9 -4.95 23.95 -4.8 24.05 -4.6 24.1 -4.4 24.2 -4.2 24.25 -4.0 24.3 -3.85 24.35 -3.65 24.4 -3.45 24.45 -3.25 24.5 -3.05 24.55 -2.85 24.6 -1.85 24.85 -0.85 25.05 0.2 25.25 1.15 25.4 2.2 25.55 3.2 25.6 4.2 25.65 5.2 25.65 6.2 25.65 7.2 25.6 8.2 25.5 9.2 25.35 10.25 25.15 11.25 24.9 12.25 24.65 13.25 24.3 13.65 42.25 13.75 46.7 13.75 47.0 13.8 47.25 13.8 47.5 13.85 47.7 13.9 47.9 14.0 48.05 14.05 48.2 14.15 48.3 14.3 48.45 14.45 48.5 14.6 48.6 14.8 48.65 14.95 48.7 15.25 48.75 15.45 48.75 15.8 48.8 16.6 48.85 17.4 48.9 18.2 48.95 19.0 48.95 19.75 48.95 20.6 48.9 21.35 48.9 22.25 48.85 22.9 48.8 23.85 48.75 25.75 48.65 25.45 48.65 26.35 48.6 27.05 48.6 27.9 48.55 28.65 48.55 28.75 48.55 28.85 48.55 28.9 48.5 29.0 48.5 29.1 48.5 29.2 48.45 29.3 48.45 29.4 48.4 29.45 48.35 29.55 48.35 29.65 48.3 29.75 48.25 29.8 48.25 29.9 48.2 30.0 48.15 30.05 48.15 31.05 47.7 33.6 46.5 46.45 40.35 48.6 39.35 49.7 38.85 51.65 37.9 53.75 36.8 54.65 36.4 54.85 36.3 54.95 36.2 55.1 36.1 55.25 36.0 55.35 35.9 55.4 35.75 55.5 35.6 55.55 35.45 55.6 35.3 55.65 35.15 55.7 35.0 55.7 34.85 55.7 34.65 55.65 34.5 55.65 34.3 55.6 34.1 L55.6 34.1 M15.0 -59.15 Q15.05 -59.2 15.1 -59.25 15.15 -59.3 15.2 -59.35 15.25 -59.35 15.3 -59.4 15.35 -59.45 15.45 -59.45 15.5 -59.5 15.55 -59.5 15.6 -59.5 15.65 -59.5 15.75 -59.5 15.8 -59.5 15.9 -59.5 16.0 -59.45 16.6 -59.25 17.2 -59.05 17.75 -58.85 18.35 -58.6 18.9 -58.35 19.5 -58.05 20.05 -57.8 20.6 -57.5 21.1 -57.2 21.65 -56.85 22.2 -56.55 22.7 -56.2 23.2 -55.85 23.7 -55.5 24.2 -55.1 24.7 -54.7 24.75 -54.7 24.75 -54.65 24.8 -54.4 24.75 -54.6 23.55 -54.1 22.4 -53.55 21.3 -53.0 20.15 -52.35 19.1 -51.75 18.0 -51.0 17.0 -50.35 15.95 -49.55 14.95 -48.85 13.95 -48.0 13.0 -47.25 12.0 -46.4 11.05 -45.55 10.1 -44.65 9.2 -43.8 8.2 -42.85 7.9 -43.5 7.6 -44.15 7.3 -44.8 6.95 -45.4 6.65 -46.05 6.3 -46.65 5.95 -47.25 5.6 -47.85 5.25 -48.45 4.85 -49.05 4.5 -49.65 4.1 -50.25 3.75 -50.85 3.35 -51.4 2.95 -52.0 2.5 -52.55 3.4 -52.7 4.3 -52.95 5.15 -53.2 6.0 -53.5 6.85 -53.85 7.65 -54.2 8.45 -54.55 9.25 -55.0 10.0 -55.4 10.75 -55.9 11.5 -56.35 12.2 -56.9 12.9 -57.4 13.6 -58.0 14.3 -58.55 15.0 -59.15 L15.0 -59.15 M1.35 -25.3 Q1.45 -25.3 1.5 -25.3 1.6 -25.35 1.65 -25.35 1.75 -25.4 1.8 -25.4 1.85 -25.45 1.9 -25.5 1.95 -25.55 2.0 -25.6 2.05 -25.65 2.1 -25.75 2.1 -25.8 2.15 -25.9 2.15 -26.0 2.2 -26.05 2.2 -26.15 2.2 -27.1 2.2 -33.25 2.25 -46.5 2.25 -47.55 2.25 -50.0 2.45 -49.7 2.95 -48.9 3.35 -48.25 3.6 -47.85 3.95 -47.3 4.25 -46.8 4.55 -46.25 4.85 -45.75 5.15 -45.25 5.4 -44.7 5.7 -44.2 5.95 -43.65 6.2 -43.1 6.4 -42.6 6.65 -42.0 6.85 -41.45 7.0 -41.15 7.1 -40.95 7.25 -40.7 7.35 -40.55 7.45 -40.4 7.55 -40.35 7.7 -40.25 7.8 -40.25 7.9 -40.2 8.05 -40.3 8.2 -40.35 8.35 -40.45 8.5 -40.55 8.7 -40.75 8.85 -40.9 9.1 -41.15 9.9 -42.0 10.7 -42.8 11.5 -43.6 12.3 -44.35 13.15 -45.15 14.0 -45.85 14.85 -46.6 15.75 -47.3 16.65 -48.0 17.55 -48.65 18.5 -49.3 19.45 -49.9 20.4 -50.5 21.4 -51.05 22.4 -51.6 23.4 -52.1 23.6 -52.2 23.8 -52.3 24.0 -52.35 24.2 -52.4 24.35 -52.45 24.5 -52.4 24.65 -52.4 24.8 -52.4 24.95 -52.35 25.1 -52.25 25.2 -52.2 25.35 -52.05 25.5 -51.95 25.6 -51.75 25.75 -51.6 25.85 -51.4 26.1 -51.0 26.4 -50.65 26.65 -50.3 26.95 -49.95 27.25 -49.6 27.6 -49.3 27.9 -48.95 28.25 -48.65 28.6 -48.35 28.95 -48.05 29.25 -47.8 29.65 -47.45 29.75 -47.4 30.4 -46.9 30.8 -46.55 31.1 -46.3 31.5 -45.95 31.9 -45.6 32.25 -45.25 32.6 -44.9 33.0 -44.55 33.3 -44.15 33.65 -43.8 33.95 -43.4 34.25 -43.0 34.55 -42.55 34.8 -42.15 35.05 -41.7 35.3 -41.25 35.55 -40.8 35.75 -40.3 35.95 -39.85 36.9 -37.5 39.05 -33.35 41.35 -28.95 42.25 -26.85 42.35 -26.65 42.9 -25.25 43.35 -24.3 43.6 -23.65 43.95 -22.75 44.25 -22.05 44.55 -21.2 44.85 -20.45 45.15 -19.6 45.4 -18.8 45.65 -17.95 45.9 -17.15 46.1 -16.25 46.3 -15.45 46.45 -14.55 46.6 -13.7 46.7 -12.85 46.8 -12.05 46.85 -11.2 46.85 -10.4 46.9 -9.55 46.85 -8.8 46.8 -7.95 46.7 -7.2 46.55 -6.4 46.4 -5.6 46.2 -4.85 45.9 -4.1 45.65 -3.3 45.3 -2.55 44.9 -1.8 44.45 -1.1 44.15 -0.65 43.95 -0.2 43.7 0.25 43.5 0.7 43.3 1.15 43.1 1.65 42.95 2.1 42.8 2.6 42.65 3.05 42.55 3.55 42.4 4.0 42.3 4.55 42.2 5.0 42.1 5.5 42.0 5.95 41.9 6.5 41.8 6.95 41.7 7.4 41.55 7.85 41.4 8.25 41.25 8.65 41.05 9.05 40.85 9.45 40.65 9.85 40.4 10.2 40.15 10.6 39.9 10.95 39.65 11.3 39.35 11.65 39.05 12.0 38.75 12.35 38.45 12.65 38.4 12.8 38.3 12.95 38.2 13.05 38.15 13.15 38.05 13.3 37.9 13.4 37.8 13.5 37.7 13.6 37.6 13.65 37.45 13.75 37.35 13.85 37.25 13.95 36.9 14.15 37.0 14.1 36.85 14.2 36.75 14.3 36.1 14.8 35.45 15.25 34.75 15.7 34.05 16.1 33.35 16.55 32.65 16.95 31.95 17.3 31.25 17.65 30.5 18.0 29.75 18.3 29.0 18.6 28.25 18.8 27.5 19.05 26.7 19.25 25.9 19.45 25.1 19.6 25.0 19.6 24.9 19.65 24.8 19.65 24.75 19.65 24.65 19.65 24.55 19.7 24.45 19.7 24.35 19.7 24.25 19.7 24.15 19.7 24.1 19.7 24.0 19.7 23.9 19.7 23.8 19.7 23.7 19.7 23.6 19.65 23.2 19.6 22.8 19.55 22.45 19.45 22.15 19.3 21.85 19.2 21.6 19.0 21.4 18.8 21.2 18.6 21.0 18.35 20.9 18.1 20.75 17.8 20.7 17.5 20.65 17.15 20.65 16.8 20.65 16.4 20.7 16.0 21.1 16.15 21.5 16.25 21.85 16.3 22.25 16.35 22.65 16.4 23.05 16.4 23.4 16.4 23.8 16.35 24.2 16.35 24.55 16.25 24.95 16.15 25.3 16.05 25.7 15.95 26.05 15.8 26.4 15.65 26.8 15.45 26.85 15.4 27.0 15.3 27.15 15.2 27.2 15.15 27.3 15.05 27.4 15.0 27.5 14.9 27.6 14.8 27.7 14.7 27.8 14.65 27.9 14.55 28.0 14.45 28.05 14.35 28.15 14.25 28.25 14.15 28.35 14.0 28.15 14.0 28.0 14.0 27.8 14.0 27.65 14.05 27.5 14.1 27.3 14.15 27.2 14.15 26.95 14.25 26.75 14.3 26.65 14.35 26.45 14.4 26.3 14.4 26.15 14.45 26.0 14.45 25.8 14.45 25.65 14.45 25.15 14.6 24.75 14.7 24.3 14.75 23.9 14.75 23.5 14.75 23.15 14.7 22.8 14.65 22.5 14.5 22.2 14.4 21.95 14.2 21.65 14.0 21.45 13.75 21.2 13.55 21.0 13.25 20.85 12.95 20.65 12.6 20.55 12.35 17.65 5.5 16.4 2.55 16.2 2.15 16.15 2.0 16.1 1.9 16.05 1.75 16.05 1.65 16.05 1.5 16.05 1.4 16.05 1.3 16.05 1.15 16.1 1.05 16.15 0.95 16.2 0.85 16.3 0.75 16.4 0.65 16.5 0.55 16.65 0.45 16.8 0.35 16.95 0.25 17.15 0.1 17.3 0.0 17.45 -0.15 17.6 -0.3 17.75 -0.45 17.9 -0.55 18.05 -0.75 18.15 -0.85 18.35 -1.05 18.15 -0.85 18.65 -1.4 18.8 -1.55 18.9 -1.7 19.05 -1.85 19.2 -2.0 19.2 -2.1 19.25 -2.25 19.3 -2.35 19.35 -2.45 19.35 -2.5 19.5 -2.7 19.55 -2.85 19.6 -2.9 19.65 -3.05 19.65 -3.15 19.7 -3.3 19.7 -3.4 19.7 -3.55 19.7 -3.65 19.65 -3.8 19.55 -3.9 19.3 -3.6 19.05 -3.3 18.8 -3.05 18.5 -2.75 18.25 -2.55 17.95 -2.3 17.65 -2.1 17.35 -1.85 17.05 -1.65 16.7 -1.45 16.4 -1.3 16.05 -1.1 15.75 -0.9 15.35 -0.7 19.75 -3.05 14.7 -0.35 14.65 -0.25 14.6 -0.2 14.55 -0.1 14.5 0.0 14.45 0.05 14.4 0.15 14.35 0.25 14.3 0.35 14.25 0.4 14.25 0.5 14.2 0.6 14.2 0.7 14.15 0.8 14.15 0.9 14.15 1.05 14.1 1.15 13.95 1.05 13.75 0.9 13.6 0.8 13.45 0.7 13.3 0.6 13.1 0.45 12.85 0.25 12.8 0.2 12.6 0.05 12.45 -0.05 12.3 -0.15 12.15 -0.25 11.95 -0.35 11.8 -0.45 11.6 -0.55 11.45 -0.65 11.3 -0.7 11.2 -0.85 11.1 -0.95 11.0 -1.05 10.9 -1.2 10.85 -1.35 10.8 -1.5 10.8 -1.65 10.8 -1.8 10.8 -1.95 10.8 -2.1 10.85 -2.25 10.9 -2.45 11.0 -2.55 11.05 -2.7 11.2 -2.85 11.4 -3.1 12.3 -3.75 12.6 -3.95 12.85 -4.2 13.15 -4.45 13.35 -4.7 13.6 -4.95 13.85 -5.2 14.05 -5.45 14.25 -5.75 14.45 -6.0 14.65 -6.3 14.8 -6.6 14.95 -6.9 15.1 -7.25 15.2 -7.55 15.35 -7.9 15.4 -8.25 15.5 -8.65 15.7 -9.5 15.8 -10.1 15.9 -10.35 16.0 -10.75 16.1 -10.95 16.2 -11.2 16.4 -11.35 16.55 -11.5 16.8 -11.6 17.0 -11.7 17.4 -11.8 17.65 -11.85 18.3 -11.95 19.05 -12.1 19.55 -12.2 19.75 -12.25 20.85 -12.4 21.2 -12.5 21.55 -12.6 21.9 -12.7 22.2 -12.8 22.5 -12.95 22.8 -13.1 23.1 -13.25 23.35 -13.45 23.65 -13.65 23.85 -13.85 24.1 -14.1 24.3 -14.35 24.5 -14.6 24.7 -14.95 24.85 -15.25 25.0 -15.6 25.3 -16.35 25.85 -17.45 26.55 -18.9 26.7 -19.3 26.75 -19.35 26.75 -19.45 26.9 -19.65 26.85 -19.55 26.9 -19.65 26.9 -19.7 26.95 -19.8 27.0 -19.85 27.0 -19.95 27.05 -20.0 27.05 -20.1 27.05 -20.15 27.05 -20.25 27.05 -20.3 27.05 -20.4 27.0 -20.45 26.85 -20.35 26.7 -20.2 26.55 -20.1 26.4 -19.95 26.3 -19.8 26.2 -19.65 26.1 -19.5 26.0 -19.35 25.9 -19.2 25.8 -19.0 25.9 -19.1 25.65 -18.65 25.55 -18.45 25.45 -18.35 25.35 -18.15 25.25 -18.0 25.05 -17.7 24.85 -17.4 24.6 -17.1 24.4 -16.8 24.15 -16.55 23.9 -16.3 23.65 -16.0 23.4 -15.75 23.1 -15.5 22.85 -15.3 22.5 -15.05 22.2 -14.85 21.85 -14.65 21.5 -14.5 21.1 -14.3 20.7 -14.15 21.0 -14.7 21.2 -15.25 21.45 -15.8 21.6 -16.35 21.75 -16.9 21.9 -17.45 22.0 -18.0 22.05 -18.55 22.15 -19.1 22.15 -19.65 22.2 -20.2 22.2 -20.75 22.2 -21.25 22.15 -21.85 22.15 -22.35 22.1 -22.95 22.0 -24.25 21.6 -26.35 21.05 -28.85 20.95 -29.7 20.9 -30.0 20.9 -30.2 20.85 -30.45 20.8 -30.65 20.8 -30.9 20.8 -31.15 20.75 -31.4 20.75 -31.6 20.75 -31.85 20.8 -32.1 20.8 -32.35 20.85 -32.55 20.85 -32.8 20.95 -33.05 21.0 -33.25 21.1 -33.5 21.1 -33.9 21.1 -34.35 21.1 -34.7 21.1 -35.15 21.15 -35.5 21.15 -36.0 21.25 -37.4 21.25 -36.85 21.25 -37.35 21.3 -37.7 21.3 -38.2 21.3 -38.6 21.3 -39.05 21.3 -39.45 21.25 -39.95 21.2 -40.35 21.05 -40.15 20.95 -39.95 20.85 -39.8 20.75 -39.6 20.6 -39.4 20.5 -39.25 20.4 -39.05 20.3 -38.85 20.2 -38.7 20.15 -38.5 20.05 -38.3 19.95 -38.15 19.85 -37.95 19.8 -37.75 19.7 -37.6 19.65 -37.4 19.65 -37.2 19.45 -35.65 19.35 -34.6 19.25 -33.9 19.15 -33.35 19.1 -32.8 19.05 -32.3 19.05 -31.75 19.05 -31.25 19.1 -30.7 19.15 -30.2 19.2 -29.65 19.3 -29.15 19.4 -28.6 19.45 -28.1 19.6 -27.55 19.65 -27.15 19.8 -26.5 19.95 -25.7 20.0 -25.45 20.1 -25.0 20.15 -24.55 20.25 -24.1 20.3 -23.65 20.35 -23.25 20.4 -22.8 20.4 -22.35 20.45 -21.9 20.45 -21.45 20.45 -21.0 20.45 -20.55 20.45 -20.1 20.4 -19.65 20.4 -19.2 20.35 -18.75 20.3 -18.3 20.3 -18.05 20.25 -17.75 20.2 -17.5 20.1 -17.25 20.05 -17.0 19.95 -16.7 19.9 -16.45 19.8 -16.2 19.7 -16.0 19.55 -15.7 19.45 -15.5 19.3 -15.25 19.2 -15.0 19.05 -14.75 18.95 -14.55 18.8 -14.3 18.75 -14.2 18.7 -14.15 18.65 -14.05 18.55 -14.0 18.5 -13.95 18.45 -13.9 18.4 -13.85 18.3 -13.8 18.25 -13.8 18.15 -13.75 18.1 -13.7 18.0 -13.7 17.95 -13.65 17.85 -13.65 17.75 -13.65 17.65 -13.65 17.3 -13.6 16.95 -13.5 16.6 -13.4 16.35 -13.3 16.0 -13.15 15.75 -13.0 15.5 -12.85 15.25 -12.65 15.05 -12.45 14.85 -12.2 14.65 -11.95 14.55 -11.65 14.4 -11.4 14.3 -11.05 14.2 -10.7 14.15 -10.35 14.1 -9.85 14.0 -9.4 13.85 -8.95 13.7 -8.5 13.55 -8.1 13.35 -7.7 13.15 -7.3 12.95 -6.95 12.7 -6.55 12.4 -6.2 12.15 -5.9 11.8 -5.55 11.5 -5.25 11.1 -4.95 10.75 -4.65 10.35 -4.4 10.25 -4.35 10.15 -4.3 10.05 -4.25 10.0 -4.2 9.95 -4.15 9.85 -4.15 9.8 -4.15 9.75 -4.15 9.7 -4.15 9.65 -4.2 9.6 -4.25 9.55 -4.3 9.5 -4.35 9.45 -4.45 9.45 -4.5 9.4 -4.65 9.05 -5.0 8.65 -5.4 8.3 -5.8 7.95 -6.2 7.6 -6.55 7.25 -7.0 6.95 -7.4 6.6 -7.8 6.3 -8.2 6.0 -8.65 5.7 -9.05 5.4 -9.5 5.1 -9.95 4.8 -10.35 4.55 -10.8 4.25 -11.25 3.75 -12.05 3.25 -12.9 2.8 -13.7 2.3 -14.55 1.85 -15.35 1.35 -16.2 0.9 -17.0 0.45 -17.85 0.0 -18.7 -0.45 -19.55 -0.9 -20.4 -1.3 -21.25 -1.75 -22.1 -2.15 -22.95 -2.6 -23.8 -3.0 -24.65 -3.05 -24.8 -3.1 -24.9 -3.15 -25.0 -3.2 -25.15 -3.25 -25.25 -3.25 -25.35 -3.3 -25.5 -3.3 -25.6 -3.3 -25.7 -3.3 -25.85 -3.3 -25.95 -3.3 -26.1 -3.3 -26.2 -3.25 -26.35 -3.25 -26.45 -3.2 -26.6 -3.1 -26.95 -3.05 -27.3 -3.0 -27.65 -3.0 -28.0 -3.0 -28.3 -3.05 -28.6 -3.15 -28.95 -3.25 -29.25 -3.4 -29.55 -3.6 -29.8 -3.75 -30.1 -4.0 -30.35 -4.25 -30.6 -4.55 -30.85 -4.85 -31.1 -5.2 -31.3 -5.35 -31.4 -5.45 -31.45 -5.6 -31.55 -5.7 -31.65 -5.8 -31.75 -5.9 -31.85 -6.0 -31.95 -6.1 -32.05 -6.2 -32.15 -6.25 -32.3 -6.35 -32.4 -6.4 -32.5 -6.5 -32.65 -6.55 -32.8 -6.65 -32.9 -6.7 -33.05 -7.75 -35.45 -12.3 -45.5 -12.2 -45.55 -12.15 -45.6 -12.05 -45.6 -12.0 -45.6 -11.9 -45.6 -11.85 -45.6 -11.8 -45.55 -11.7 -45.55 -11.65 -45.5 -11.6 -45.45 -11.55 -45.4 -11.5 -45.35 -11.5 -45.35 -11.4 -45.25 -11.35 -45.2 -11.3 -45.15 -8.15 -42.25 -6.85 -40.8 -6.7 -40.65 -6.55 -40.5 -6.45 -40.4 -6.3 -40.3 -6.2 -40.25 -6.1 -40.2 -5.95 -40.15 -5.85 -40.2 -5.75 -40.2 -5.65 -40.25 -5.55 -40.3 -5.4 -40.4 -5.3 -40.5 -5.2 -40.65 -5.05 -40.8 -4.95 -41.0 -5.0 -41.1 -5.0 -41.2 -5.0 -41.3 -5.0 -41.45 -4.95 -41.5 -4.95 -41.6 -4.9 -41.7 -4.85 -41.8 -4.8 -41.9 -4.75 -42.0 -4.7 -42.05 -4.65 -42.15 -4.85 -41.9 -4.55 -42.3 -4.5 -42.4 -4.45 -42.45 -4.2 -42.85 -3.95 -43.3 -3.65 -43.7 -3.4 -44.1 -3.1 -44.5 -2.8 -44.95 -2.5 -45.3 -2.2 -45.7 -1.9 -46.1 -1.6 -46.5 -1.25 -46.9 -0.9 -47.3 -0.6 -47.7 -0.25 -48.1 0.1 -48.45 0.45 -48.9 L0.45 -46.25 Q0.5 -40.05 0.5 -27.0 0.5 -26.25 0.5 -26.1 0.5 -26.0 0.55 -25.95 0.55 -25.85 0.6 -25.75 0.65 -25.7 0.65 -25.65 0.7 -25.6 0.75 -25.55 0.8 -25.5 0.9 -25.45 0.95 -25.4 1.0 -25.35 1.1 -25.35 1.15 -25.35 1.25 -25.3 1.35 -25.3 L1.35 -25.3 M3.1 13.45 Q2.9 13.3 2.7 13.1 2.55 12.95 2.45 12.75 2.35 12.6 2.3 12.45 2.25 12.25 2.3 12.1 2.3 11.95 2.4 11.75 2.45 11.6 2.6 11.45 2.7 11.3 2.9 11.15 3.1 10.95 3.35 10.8 3.6 10.65 4.0 10.35 4.65 10.0 4.7 9.95 5.05 9.7 5.35 9.5 5.7 9.3 6.0 9.05 6.3 8.8 6.6 8.55 6.9 8.3 7.2 8.05 7.45 7.75 7.7 7.45 7.95 7.1 8.15 6.75 8.2 6.65 8.3 6.55 8.35 6.5 8.4 6.45 8.5 6.4 8.55 6.45 8.6 6.45 8.65 6.45 8.7 6.5 8.7 6.55 8.75 6.6 8.8 6.65 8.85 6.7 8.85 6.8 9.05 7.15 8.95 6.9 9.1 7.2 9.25 7.45 9.35 7.75 9.45 8.05 9.6 8.35 9.7 8.65 9.8 8.95 9.85 9.25 9.95 9.55 10.0 9.85 10.1 10.15 10.15 10.45 10.2 10.75 10.2 11.05 10.25 11.35 10.3 11.7 10.3 12.0 10.35 12.3 10.4 12.6 10.4 12.9 10.45 13.2 10.5 13.5 10.55 13.8 10.6 14.05 10.65 14.35 10.7 14.65 10.8 14.95 10.85 15.2 10.95 15.5 11.05 15.8 11.15 16.05 11.25 16.35 11.25 16.4 11.3 16.4 11.3 16.45 11.3 16.5 11.35 16.5 11.35 16.55 11.35 16.6 11.35 16.6 11.4 16.65 11.4 16.7 11.4 16.7 11.4 16.75 11.4 16.8 11.45 16.8 11.45 16.85 11.45 16.9 11.55 17.25 11.6 17.55 11.6 17.9 11.6 18.15 11.6 18.4 11.55 18.55 11.5 18.75 11.35 18.9 11.25 19.05 11.05 19.15 10.9 19.2 10.65 19.25 10.4 19.3 10.1 19.3 9.8 19.3 9.45 19.25 10.0 19.3 9.0 19.2 8.75 19.15 8.55 19.15 8.3 19.1 8.1 19.05 7.9 19.0 7.7 18.9 7.5 18.85 7.35 18.7 7.15 18.6 7.0 18.45 6.85 18.25 6.75 18.05 6.6 17.8 6.55 17.55 6.5 17.45 6.5 17.4 6.5 17.3 6.5 17.25 6.5 17.2 6.5 17.15 6.5 17.1 6.55 17.05 6.55 17.05 6.6 17.0 6.6 17.0 6.65 16.95 6.7 16.95 6.8 16.95 6.85 16.9 6.95 16.9 6.95 16.9 7.25 16.85 7.4 16.85 7.55 16.85 7.7 16.8 7.8 16.75 8.0 16.75 8.1 16.7 8.3 16.65 8.4 16.55 8.55 16.5 8.7 16.4 8.85 16.3 9.0 16.15 9.15 16.0 9.3 15.85 8.8 15.9 8.3 15.9 7.85 15.9 7.4 15.85 7.0 15.75 6.6 15.65 6.2 15.5 5.8 15.3 5.45 15.15 5.1 14.9 4.75 14.75 4.4 14.45 4.1 14.25 3.75 14.0 3.5 13.8 3.1 13.45 L3.1 13.45 M-3.05 -19.2 Q-3.3 -19.35 -3.45 -19.55 -3.65 -19.7 -3.75 -19.9 -3.85 -20.1 -3.95 -20.3 -4.0 -20.5 -4.05 -20.7 -4.05 -20.9 -4.05 -21.15 -4.1 -21.35 -4.05 -21.6 -4.05 -21.85 -4.0 -22.1 -4.0 -22.1 -3.95 -22.6 -2.85 -20.5 -0.7 -16.35 -0.2 -15.45 0.25 -14.6 0.75 -13.75 1.25 -12.9 1.75 -12.05 2.25 -11.25 2.75 -10.4 3.3 -9.6 3.85 -8.75 4.4 -8.0 5.0 -7.15 5.55 -6.4 6.15 -5.6 6.8 -4.85 7.4 -4.1 8.05 -3.35 8.2 -3.25 8.35 -3.1 8.5 -3.0 8.6 -2.85 8.7 -2.7 8.8 -2.55 8.9 -2.4 8.95 -2.25 9.0 -2.1 9.05 -1.9 9.1 -1.75 9.15 -1.55 9.2 -1.4 9.25 -1.2 9.25 -1.15 9.3 -0.85 9.3 -0.75 9.3 -0.7 9.3 -0.6 9.3 -0.55 9.3 -0.5 9.25 -0.45 9.25 -0.4 9.2 -0.4 9.2 -0.35 9.15 -0.3 9.1 -0.3 9.05 -0.25 9.05 -0.25 9.0 -0.2 8.95 -0.2 8.9 -0.15 8.75 -0.05 8.55 0.1 8.4 0.2 8.25 0.35 8.1 0.45 7.95 0.6 7.8 0.75 7.65 0.9 7.5 1.0 7.35 1.15 7.2 1.3 7.05 1.45 6.9 1.6 6.75 1.75 6.65 1.9 6.5 2.05 6.4 2.2 6.3 2.3 6.2 2.4 6.15 2.5 6.05 2.65 6.0 2.75 5.95 2.9 5.9 3.05 5.85 3.15 5.85 3.3 5.85 3.45 5.85 3.6 5.85 3.75 5.9 3.95 5.95 4.1 6.0 4.3 6.25 4.7 6.8 5.5 6.5 5.2 5.95 4.55 5.95 4.55 5.7 4.25 5.15 3.55 4.6 2.85 3.8 1.85 3.05 0.9 2.35 0.0 1.75 -0.9 1.15 -1.7 0.6 -2.5 0.15 -3.15 -0.3 -3.8 -0.65 -4.35 -0.95 -4.9 -1.2 -5.3 -1.45 -5.7 -1.6 -5.95 -1.75 -6.2 -1.8 -6.3 -1.85 -6.35 -2.0 -6.6 -2.2 -7.0 -2.45 -7.55 -2.5 -7.65 -2.6 -7.75 -2.75 -7.9 -2.85 -8.05 -2.9 -8.15 -3.0 -8.3 -3.05 -8.45 -3.1 -8.55 -3.15 -8.7 -3.2 -8.85 -3.2 -9.0 -3.25 -9.15 -3.25 -9.3 -3.25 -9.5 -3.25 -9.65 -3.25 -9.8 -3.25 -10.0 -3.15 -10.85 -2.7 -18.05 -2.7 -18.15 -2.7 -18.2 -2.7 -18.3 -2.7 -18.4 -2.7 -18.5 -2.7 -18.55 -2.7 -18.65 -2.7 -18.75 -2.75 -18.8 -2.75 -18.9 -2.8 -18.95 -2.85 -19.0 -2.85 -19.1 -2.9 -19.15 -2.95 -19.2 -3.05 -19.2 L-3.05 -19.2 M12.9 2.45 Q13.0 2.5 13.05 2.55 13.1 2.6 13.1 2.7 13.15 2.75 13.15 2.75 13.15 2.8 13.1 2.85 13.1 2.9 13.05 2.95 13.05 3.0 13.0 3.05 12.95 3.05 12.9 3.1 12.85 3.15 12.75 3.15 11.75 3.75 10.4 4.5 10.3 4.55 10.2 4.6 10.1 4.6 10.05 4.65 9.95 4.65 9.85 4.7 9.75 4.7 9.65 4.7 9.6 4.65 9.5 4.65 9.4 4.6 9.35 4.55 9.25 4.5 9.15 4.45 9.1 4.35 9.0 4.25 8.95 4.2 7.8 3.2 8.5 2.45 8.6 2.35 9.05 1.95 9.25 1.75 9.55 1.45 9.8 1.3 10.05 1.15 10.25 1.05 10.45 0.95 10.65 1.0 10.85 1.0 11.05 1.1 11.25 1.2 11.55 1.35 11.75 1.55 12.15 1.8 12.2 1.85 12.9 2.45 L12.9 2.45 M10.75 6.75 Q10.7 6.65 10.7 6.6 10.7 6.55 10.7 6.5 10.7 6.45 10.7 6.4 10.7 6.35 10.75 6.3 10.75 6.25 10.8 6.25 10.8 6.2 10.85 6.2 10.9 6.15 10.95 6.15 11.0 6.1 11.05 6.1 11.25 6.0 11.45 5.9 11.65 5.85 11.8 5.75 12.0 5.65 12.2 5.55 12.4 5.45 12.55 5.3 12.75 5.2 12.95 5.1 13.1 5.0 13.3 4.9 13.45 4.75 13.65 4.65 13.8 4.5 14.0 4.4 14.1 4.35 14.15 4.3 14.2 4.25 14.25 4.25 14.35 4.2 14.4 4.2 14.45 4.2 14.5 4.2 14.55 4.2 14.6 4.25 14.65 4.25 14.7 4.3 14.75 4.35 14.8 4.4 14.85 4.45 14.9 4.55 15.1 4.9 15.35 5.25 15.55 5.6 15.7 5.95 15.9 6.3 16.1 6.7 16.25 7.05 16.4 7.45 16.55 7.75 16.75 8.2 17.05 8.95 17.05 8.95 17.25 9.4 17.4 9.7 17.55 10.1 17.75 10.45 17.8 10.55 17.8 10.6 17.8 10.65 17.8 10.7 17.8 10.75 17.75 10.8 17.75 10.85 17.7 10.9 17.7 10.95 17.65 10.95 17.6 11.0 17.55 11.05 17.5 11.05 17.45 11.1 17.4 11.15 17.4 11.15 17.2 11.4 16.95 11.55 16.7 11.75 16.45 11.9 16.2 12.05 15.9 12.2 15.65 12.3 15.35 12.4 15.1 12.5 14.8 12.55 14.55 12.65 14.25 12.7 13.95 12.75 13.65 12.8 13.35 12.85 13.05 12.85 12.95 12.85 12.85 12.85 12.75 12.85 12.65 12.85 12.6 12.85 12.5 12.85 12.45 12.8 12.35 12.8 12.3 12.75 12.25 12.7 12.2 12.6 12.15 12.55 12.15 12.45 12.1 12.35 12.1 12.25 12.05 12.1 12.05 11.75 12.0 11.4 11.95 11.05 11.9 10.75 11.85 10.4 11.8 10.05 11.7 9.7 11.65 9.35 11.55 9.05 11.45 8.7 11.4 8.35 11.25 8.05 11.15 7.7 11.05 7.4 10.9 7.05 10.75 6.75 L10.75 6.75 M-20.35 -26.15 Q-20.25 -26.4 -20.1 -26.6 -19.95 -26.85 -19.8 -27.05 -19.65 -27.25 -19.5 -27.45 -19.3 -27.6 -19.15 -27.8 -18.95 -27.95 -18.75 -28.1 -18.55 -28.25 -18.35 -28.35 -18.1 -28.5 -17.9 -28.6 -17.65 -28.7 -17.4 -28.8 -17.3 -28.85 -17.25 -28.85 -17.2 -28.85 -17.1 -28.9 -17.05 -28.9 -17.0 -28.9 -16.9 -28.9 -16.85 -28.9 -16.8 -28.9 -16.75 -28.85 -16.7 -28.85 -16.65 -28.8 -16.6 -28.75 -16.55 -28.7 -16.5 -28.65 -16.4 -28.55 -16.2 -28.3 -16.05 -28.05 -15.85 -27.8 -15.65 -27.6 -15.45 -27.35 -15.2 -27.15 -15.0 -26.9 -14.8 -26.7 -14.55 -26.45 -14.35 -26.25 -14.1 -26.05 -13.9 -25.8 -13.65 -25.6 -13.4 -25.4 -13.2 -25.2 -12.95 -25.0 -12.9 -24.95 -12.85 -24.95 -12.8 -24.9 -12.8 -24.85 -12.75 -24.85 -12.7 -24.8 -12.7 -24.75 -12.65 -24.7 -12.6 -24.65 -12.6 -24.6 -12.55 -24.55 -12.55 -24.5 -12.55 -24.45 -12.55 -24.35 -12.55 -24.3 -12.55 -24.2 -12.6 -24.1 -12.75 -23.9 -12.9 -23.6 -12.95 -23.55 -13.05 -23.35 -13.15 -23.2 -13.25 -23.0 -13.35 -22.85 -13.45 -22.7 -13.6 -22.55 -13.75 -22.35 -13.85 -22.2 -14.0 -22.05 -14.2 -21.95 -14.35 -21.8 -14.55 -21.7 -14.7 -21.6 -14.85 -21.55 -15.0 -21.45 -15.15 -21.4 -15.3 -21.35 -15.45 -21.35 -15.65 -21.3 -15.8 -21.3 -15.95 -21.3 -16.1 -21.35 -16.25 -21.4 -16.4 -21.45 -16.6 -21.5 -16.75 -21.6 -16.9 -21.75 -17.05 -21.9 -17.25 -22.05 -17.45 -22.25 -17.6 -22.4 -17.85 -22.55 -17.8 -22.5 -18.25 -22.9 -18.5 -23.1 -18.7 -23.2 -18.9 -23.4 -19.1 -23.55 -19.3 -23.75 -19.5 -23.9 -19.7 -24.1 -19.85 -24.25 -20.05 -24.45 -20.2 -24.65 -20.3 -24.75 -20.35 -24.85 -20.4 -24.95 -20.45 -25.0 -20.5 -25.1 -20.5 -25.2 -20.55 -25.25 -20.55 -25.35 -20.55 -25.45 -20.55 -25.5 -20.55 -25.6 -20.5 -25.7 -20.5 -25.8 -20.45 -25.9 -20.4 -26.0 -20.35 -26.15 L-20.35 -26.15 M-21.6 -27.5 Q-21.75 -28.0 -21.8 -28.45 -21.9 -28.9 -21.9 -29.35 -21.9 -29.75 -21.8 -30.15 -21.75 -30.55 -21.6 -30.9 -21.45 -31.25 -21.2 -31.55 -21.0 -31.85 -20.7 -32.15 -20.45 -32.4 -20.1 -32.65 -19.75 -32.9 -19.3 -33.1 -19.2 -33.15 -19.1 -33.2 -19.0 -33.25 -18.9 -33.25 -18.8 -33.25 -18.75 -33.25 -18.7 -33.25 -18.65 -33.25 -18.55 -33.2 -18.5 -33.15 -18.45 -33.1 -18.45 -33.0 -18.4 -32.95 -18.35 -32.85 -18.35 -32.75 -18.3 -32.65 -18.3 -32.55 -18.25 -32.4 -18.2 -32.3 -18.15 -32.15 -18.1 -32.05 -18.05 -31.9 -18.0 -31.7 -17.95 -31.65 -17.9 -31.5 -17.9 -31.4 -17.85 -31.25 -17.8 -31.15 -17.8 -31.0 -17.8 -30.9 -17.8 -30.8 -17.8 -30.7 -17.85 -30.6 -17.9 -30.5 -17.95 -30.4 -18.05 -30.35 -18.15 -30.25 -18.25 -30.2 -18.35 -30.15 -18.5 -30.1 -18.6 -30.05 -18.75 -30.0 -18.95 -29.95 -19.0 -29.9 -19.15 -29.85 -19.25 -29.8 -19.4 -29.75 -19.5 -29.7 -19.65 -29.6 -19.8 -29.5 -19.95 -29.35 -20.1 -29.25 -20.25 -29.15 -20.35 -29.0 -20.5 -28.9 -20.65 -28.75 -20.75 -28.6 -20.9 -28.45 -21.0 -28.3 -21.15 -28.15 -21.25 -28.0 -21.35 -27.85 -21.5 -27.65 -21.6 -27.5 L-21.6 -27.5 M-13.15 -20.55 Q-12.95 -20.65 -12.75 -20.85 -12.6 -21.0 -12.45 -21.25 -12.3 -21.4 -12.15 -21.7 -11.9 -22.15 -11.9 -22.15 -11.8 -22.4 -11.65 -22.6 -11.5 -22.8 -11.35 -22.9 -11.15 -23.05 -10.9 -23.1 -10.65 -23.15 -10.35 -23.15 -10.0 -23.1 -8.35 -22.7 -7.15 -22.45 -6.35 -22.35 -6.25 -22.35 -6.15 -22.3 -6.05 -22.3 -6.0 -22.25 -5.95 -22.2 -5.9 -22.15 -5.85 -22.1 -5.85 -22.0 -5.8 -21.95 -5.8 -21.9 -5.8 -21.8 -5.8 -21.75 -5.8 -21.7 -5.8 -21.6 -5.8 -21.45 -5.8 -21.45 -5.8 -21.15 -5.9 -20.9 -5.95 -20.65 -6.1 -20.4 -6.2 -20.15 -6.35 -19.95 -6.55 -19.75 -6.75 -19.6 -6.95 -19.4 -7.2 -19.3 -7.45 -19.2 -7.7 -19.1 -7.95 -19.05 -8.25 -19.0 -8.5 -19.0 -8.8 -19.05 -11.2 -19.4 -12.05 -19.6 -12.15 -19.6 -13.8 -20.2 -13.3 -20.5 -13.15 -20.55 L-13.15 -20.55 M-5.9 -24.8 Q-6.0 -24.7 -6.1 -24.6 -6.2 -24.5 -6.3 -24.45 -6.4 -24.4 -6.5 -24.35 -6.6 -24.3 -6.7 -24.25 -6.8 -24.2 -6.95 -24.2 -7.05 -24.15 -7.2 -24.15 -7.3 -24.15 -7.45 -24.2 -7.55 -24.2 -7.7 -24.2 -8.05 -24.25 -8.35 -24.35 -8.65 -24.4 -8.95 -24.55 -9.25 -24.65 -9.55 -24.75 -9.85 -24.9 -10.1 -25.05 -10.4 -25.2 -10.65 -25.4 -10.9 -25.55 -11.15 -25.75 -11.4 -25.95 -11.65 -26.15 -11.9 -26.35 -12.15 -26.6 -12.45 -26.85 -12.65 -27.05 -12.95 -27.3 -13.15 -27.55 -13.45 -27.8 -13.65 -28.05 -13.9 -28.3 -14.15 -28.55 -14.4 -28.8 -14.6 -29.05 -14.85 -29.35 -15.05 -29.6 -15.25 -29.9 -15.45 -30.15 -15.65 -30.45 -15.8 -30.75 -15.85 -30.85 -15.95 -31.0 -16.0 -31.1 -16.0 -31.2 -16.05 -31.3 -16.05 -31.4 -16.05 -31.45 -16.0 -31.55 -16.0 -31.65 -15.95 -31.7 -15.95 -31.8 -15.9 -31.85 -15.8 -31.95 -15.75 -32.0 -15.65 -32.1 -15.55 -32.2 -15.35 -32.4 -15.1 -32.55 -14.9 -32.75 -14.65 -32.9 -14.4 -33.1 -14.2 -33.25 -13.95 -33.45 -13.7 -33.6 -13.5 -33.8 -13.25 -33.95 -13.0 -34.1 -12.75 -34.25 -12.5 -34.45 -12.25 -34.6 -12.05 -34.75 -11.8 -34.9 -11.7 -34.95 -11.6 -35.05 -11.6 -35.05 -11.4 -35.15 -11.3 -35.25 -11.2 -35.3 -11.1 -35.4 -11.0 -35.45 -10.9 -35.5 -10.8 -35.5 -10.7 -35.55 -10.6 -35.55 -10.5 -35.55 -10.4 -35.5 -10.3 -35.45 -10.2 -35.35 -10.1 -35.25 -10.0 -35.1 -9.85 -34.95 -9.8 -34.85 -9.7 -34.7 -9.6 -34.55 -9.55 -34.4 -9.5 -34.25 -9.4 -34.1 -9.4 -33.9 -9.35 -33.75 -9.35 -33.6 -9.35 -33.4 -9.4 -33.25 -9.4 -33.05 -9.5 -32.85 -9.55 -32.75 -9.6 -32.6 -9.65 -32.5 -9.7 -32.4 -9.75 -32.3 -9.8 -32.2 -9.9 -32.1 -9.95 -32.0 -10.05 -31.95 -10.1 -31.85 -10.2 -31.75 -10.3 -31.7 -10.4 -31.6 -10.45 -31.5 -10.55 -31.45 -10.7 -31.4 -10.85 -31.3 -10.95 -31.2 -11.1 -31.1 -11.2 -30.95 -11.3 -30.85 -11.4 -30.7 -11.5 -30.6 -11.6 -30.45 -11.65 -30.3 -11.75 -30.15 -11.85 -30.05 -11.9 -29.85 -11.95 -29.75 -12.05 -29.6 -12.1 -29.5 -12.2 -29.3 -12.1 -29.2 -11.95 -29.1 -11.8 -29.25 -11.0 -29.9 -10.4 -30.4 -10.0 -30.65 -9.85 -30.75 -9.7 -30.8 -9.55 -30.9 -9.4 -30.95 -9.25 -31.0 -9.1 -31.0 -9.0 -31.0 -8.85 -31.0 -8.7 -31.0 -8.55 -30.95 -8.4 -30.9 -8.25 -30.85 -8.1 -30.8 -7.95 -30.7 -7.8 -30.6 -7.65 -30.5 -7.7 -30.45 -7.95 -30.2 -8.1 -30.05 -8.25 -29.9 -8.4 -29.75 -8.5 -29.6 -8.65 -29.45 -8.8 -29.3 -8.9 -29.1 -9.0 -28.95 -9.15 -28.75 -9.2 -28.55 -9.3 -28.3 -9.4 -28.1 -9.45 -27.85 -9.5 -27.6 -9.1 -28.0 -9.15 -27.95 -8.9 -28.15 -8.75 -28.3 -8.6 -28.5 -8.4 -28.6 -8.25 -28.75 -8.05 -28.9 -7.85 -29.0 -7.7 -29.1 -7.5 -29.2 -7.3 -29.25 -7.05 -29.35 -6.85 -29.35 -6.65 -29.4 -6.4 -29.4 -6.2 -29.4 -6.0 -29.35 -5.8 -29.3 -5.65 -29.25 -5.5 -29.2 -5.35 -29.1 -5.2 -29.0 -5.1 -28.9 -5.0 -28.8 -4.9 -28.65 -4.85 -28.5 -4.8 -28.35 -4.75 -28.2 -4.75 -28.0 -4.7 -27.8 -4.75 -27.6 -4.75 -27.4 -4.8 -27.2 -4.85 -27.05 -4.9 -26.85 -4.95 -26.65 -5.0 -26.5 -5.05 -26.3 -5.15 -26.15 -5.2 -25.95 -5.3 -25.8 -5.4 -25.6 -5.5 -25.45 -5.6 -25.3 -5.7 -25.15 -5.8 -24.95 -5.9 -24.8 L-5.9 -24.8 M-14.05 -59.45 Q-13.9 -59.5 -13.8 -59.55 -13.7 -59.6 -13.6 -59.65 -13.5 -59.65 -13.4 -59.65 -13.3 -59.7 -13.2 -59.65 -13.1 -59.65 -13.0 -59.6 -12.9 -59.6 -12.8 -59.55 -12.7 -59.45 -12.6 -59.4 -12.5 -59.3 -12.4 -59.2 -11.85 -58.65 -11.35 -58.2 -10.8 -57.7 -10.25 -57.25 -9.7 -56.75 -9.15 -56.35 -8.55 -55.9 -8.0 -55.5 -7.4 -55.1 -6.8 -54.75 -6.15 -54.4 -5.5 -54.1 -4.85 -53.75 -4.2 -53.5 -3.5 -53.25 -2.8 -53.05 -1.6 -52.75 -0.9 -52.65 -0.75 -52.65 -0.6 -52.6 -0.5 -52.6 -0.35 -52.55 -0.25 -52.55 -0.1 -52.5 0.0 -52.45 0.15 -52.4 0.25 -52.35 0.35 -52.3 0.45 -52.2 0.55 -52.1 0.65 -52.05 0.75 -51.9 0.8 -51.8 0.9 -51.7 0.4 -51.25 -0.1 -50.75 -0.55 -50.3 -1.0 -49.8 -1.5 -49.3 -1.9 -48.8 -2.35 -48.3 -2.8 -47.75 -3.2 -47.25 -3.6 -46.7 -4.05 -46.15 -4.4 -45.6 -4.8 -45.05 -5.2 -44.5 -5.55 -43.95 -5.95 -43.35 -5.95 -43.3 -6.0 -43.25 -4.25 -47.25 -6.05 -43.15 -6.1 -43.05 -6.1 -43.0 -6.15 -42.95 -6.15 -42.95 -6.2 -42.9 -6.25 -42.9 -6.3 -42.85 -6.35 -42.9 -6.4 -42.9 -6.5 -42.95 -6.6 -43.0 -6.7 -43.1 -9.5 -45.8 -19.7 -55.4 -19.75 -55.45 -19.8 -55.55 -19.95 -55.7 -20.0 -55.75 -19.65 -56.0 -19.3 -56.3 -18.9 -56.55 -18.55 -56.8 -18.2 -57.0 -17.8 -57.25 -17.45 -57.5 -17.05 -57.75 -16.7 -57.95 -16.3 -58.15 -15.95 -58.4 -15.55 -58.6 -15.2 -58.8 -14.8 -59.05 -14.45 -59.25 -14.05 -59.45 L-14.05 -59.45 M-21.8 -52.75 Q-21.6 -52.85 -21.4 -52.9 -21.2 -53.0 -21.0 -53.05 -20.8 -53.1 -20.65 -53.1 -20.45 -53.1 -20.3 -53.05 -20.1 -53.05 -19.95 -53.0 -19.75 -52.95 -19.6 -52.85 -19.4 -52.75 -19.2 -52.6 -19.05 -52.5 -18.85 -52.3 -18.4 -51.9 -18.0 -51.5 -17.55 -51.1 -17.2 -50.7 -16.8 -50.3 -16.45 -49.85 -16.1 -49.4 -15.8 -48.95 -15.45 -48.5 -15.2 -48.05 -14.9 -47.55 -14.65 -47.05 -14.4 -46.55 -14.2 -46.0 -14.0 -45.5 -13.8 -44.9 -13.35 -43.6 -12.55 -41.7 -10.95 -38.05 -11.15 -38.5 -11.05 -38.4 -10.95 -38.3 -10.9 -38.2 -10.85 -38.1 -10.8 -38.05 -10.8 -37.95 -10.75 -37.85 -10.8 -37.8 -10.8 -37.75 -10.85 -37.65 -10.9 -37.6 -11.0 -37.55 -11.05 -37.5 -11.2 -37.45 -11.35 -37.4 -11.5 -37.35 -11.75 -37.3 -11.95 -37.2 -12.2 -37.1 -12.45 -37.0 -12.65 -36.9 -12.85 -36.8 -13.1 -36.7 -13.3 -36.55 -13.5 -36.45 -13.7 -36.3 -13.9 -36.15 -14.1 -36.0 -14.3 -35.85 -14.55 -35.7 -14.7 -35.55 -14.95 -35.35 -15.0 -35.45 -15.1 -35.55 -15.15 -35.65 -15.2 -35.75 -15.25 -35.8 -15.3 -35.9 -15.35 -36.0 -15.4 -36.1 -15.4 -36.2 -15.45 -36.3 -15.5 -36.4 -15.55 -36.55 -15.6 -36.6 -15.6 -36.75 -15.7 -36.9 -15.7 -36.95 -15.75 -37.05 -18.9 -44.4 -20.85 -48.9 -22.15 -51.85 -22.2 -51.95 -22.2 -52.0 -22.25 -52.1 -22.25 -52.15 -22.3 -52.25 -22.3 -52.3 -22.3 -52.35 -22.25 -52.4 -22.25 -52.45 -22.2 -52.5 -22.2 -52.55 -22.15 -52.6 -22.05 -52.65 -22.0 -52.65 -21.9 -52.7 -21.8 -52.75 L-21.8 -52.75 M-36.2 9.9 Q-36.6 9.75 -36.95 9.6 -37.35 9.45 -37.7 9.25 -38.05 9.05 -38.4 8.85 -38.7 8.65 -39.0 8.4 -39.35 8.15 -39.6 7.85 -39.9 7.6 -40.15 7.3 -40.4 7.0 -40.6 6.65 -40.8 6.3 -41.0 5.95 -41.5 4.85 -41.95 3.85 -42.45 2.75 -42.85 1.75 -43.3 0.7 -43.7 -0.35 -44.15 -1.45 -44.5 -2.45 -44.9 -3.55 -45.25 -4.65 -45.6 -5.75 -45.85 -6.8 -46.15 -7.95 -46.4 -9.0 -46.65 -10.15 -46.85 -11.25 -46.95 -11.9 -47.0 -12.65 -47.1 -13.3 -47.1 -14.05 -47.15 -14.7 -47.15 -15.45 -47.15 -16.1 -47.1 -16.85 -47.05 -17.5 -47.05 -18.25 -47.0 -18.85 -46.95 -19.65 -46.9 -19.8 -46.8 -21.05 -46.75 -21.9 -46.7 -22.45 -46.7 -22.65 -46.65 -22.85 -46.6 -23.05 -46.55 -23.25 -46.5 -23.4 -46.45 -23.6 -46.35 -23.75 -46.25 -23.95 -46.2 -24.1 -46.05 -24.3 -46.0 -24.45 -45.85 -24.65 -45.75 -24.8 -45.65 -24.95 -45.55 -25.1 -45.4 -25.3 -44.6 -26.45 -44.0 -27.3 -43.25 -28.35 -42.65 -29.3 -41.95 -30.35 -41.35 -31.3 -40.65 -32.35 -40.05 -33.35 -39.4 -34.45 -38.85 -35.45 -38.25 -36.55 -37.75 -37.6 -37.15 -38.7 -36.7 -39.8 -36.2 -40.9 -35.8 -42.05 -35.15 -43.7 -32.4 -48.35 -32.25 -48.6 -32.1 -48.85 -31.9 -49.1 -31.75 -49.3 -31.55 -49.5 -31.35 -49.65 -31.15 -49.8 -30.9 -49.95 -30.7 -50.1 -30.45 -50.2 -30.2 -50.35 -29.95 -50.4 -29.65 -50.5 -29.4 -50.55 -29.1 -50.6 -28.8 -50.65 -28.55 -50.65 -28.3 -50.7 -28.0 -50.75 -27.75 -50.8 -27.5 -50.8 -27.25 -50.9 -27.0 -50.95 -26.75 -51.0 -26.5 -51.05 -26.25 -51.15 -26.0 -51.2 -25.75 -51.3 -25.5 -51.4 -25.25 -51.45 -25.0 -51.55 -24.75 -51.65 -24.65 -51.7 -24.55 -51.7 -24.5 -51.75 -24.4 -51.75 -24.35 -51.8 -24.3 -51.8 -24.2 -51.8 -24.15 -51.8 -24.1 -51.75 -24.05 -51.75 -24.0 -51.7 -23.95 -51.65 -23.9 -51.6 -23.85 -51.5 -23.8 -51.4 -23.75 -51.3 -22.65 -48.65 -17.25 -36.0 -17.2 -35.9 -17.1 -35.75 -17.1 -35.7 -16.95 -35.5 -16.9 -35.3 -16.85 -35.2 -16.75 -35.05 -16.7 -34.95 -16.65 -34.8 -16.6 -34.65 -16.55 -34.5 -16.5 -34.35 -16.45 -34.2 -16.45 -34.05 -16.45 -33.85 -16.45 -33.7 -16.95 -34.1 -17.15 -34.3 -17.5 -34.55 -17.7 -34.7 -18.0 -34.85 -18.2 -34.95 -18.45 -35.05 -18.7 -35.05 -18.9 -35.05 -19.2 -34.95 -19.45 -34.85 -19.8 -34.7 -20.1 -34.55 -20.6 -34.3 -20.9 -34.15 -21.6 -33.7 -21.55 -35.3 -22.05 -38.75 -22.15 -39.05 -22.3 -39.45 -21.25 -36.4 -22.5 -40.1 -22.65 -40.5 -22.75 -40.8 -22.9 -41.15 -23.0 -41.5 -23.15 -41.85 -23.3 -42.15 -23.45 -42.5 -23.6 -42.8 -23.8 -43.1 -23.95 -43.4 -24.2 -43.7 -24.4 -44.0 -24.5 -44.15 -24.55 -44.15 -24.6 -44.25 -24.65 -44.3 -24.7 -44.35 -24.75 -44.4 -24.8 -44.45 -24.85 -44.45 -24.85 -44.45 -24.9 -44.5 -24.95 -44.5 -25.05 -44.5 -25.1 -44.5 -25.2 -44.5 -25.25 -44.5 -25.35 -44.5 -25.05 -43.8 -24.8 -43.05 -24.55 -42.35 -24.35 -41.6 -24.15 -40.85 -24.0 -40.1 -23.8 -39.4 -23.7 -38.65 -23.55 -37.9 -23.5 -37.1 -23.4 -36.35 -23.35 -35.6 -23.3 -34.85 -23.3 -34.05 -23.25 -33.3 -23.3 -32.5 -23.45 -32.55 -23.6 -32.65 -23.75 -32.7 -23.9 -32.8 -23.85 -32.75 -24.2 -32.95 -24.4 -33.05 -24.55 -33.1 -24.7 -33.2 -24.85 -33.25 -25.0 -33.3 -25.15 -33.35 -25.3 -33.4 -25.5 -33.45 -25.65 -33.45 -25.85 -33.45 -26.2 -33.45 -26.6 -33.45 -26.95 -33.4 -27.3 -33.35 -27.65 -33.3 -27.95 -33.2 -28.3 -33.1 -28.6 -33.0 -28.95 -32.9 -29.25 -32.7 -29.55 -32.55 -29.85 -32.35 -30.15 -32.2 -30.4 -31.95 -30.7 -31.7 -30.95 -31.45 -31.3 -31.05 -31.7 -30.65 -32.1 -30.3 -32.5 -29.9 -32.9 -29.55 -33.3 -29.15 -33.7 -28.8 -34.15 -28.45 -34.55 -28.1 -35.0 -27.75 -35.4 -27.4 -35.85 -27.05 -36.25 -26.7 -36.7 -26.35 -37.1 -26.05 -37.55 -25.65 -37.6 -25.6 -37.7 -25.55 -37.85 -25.45 -37.85 -25.45 -37.9 -25.4 -38.0 -25.35 -38.05 -25.3 -38.1 -25.25 -38.15 -25.2 -38.2 -25.1 -38.25 -25.05 -38.25 -24.95 -38.25 -24.85 -38.2 -24.75 -38.15 -24.65 -38.1 -24.55 -37.5 -24.75 -36.9 -25.0 -36.35 -25.25 -35.75 -25.55 -35.25 -25.8 -34.7 -26.15 -34.2 -26.5 -33.65 -26.85 -33.2 -27.2 -32.7 -27.6 -32.2 -28.0 -31.7 -28.4 -31.3 -28.8 -30.8 -29.25 -30.4 -29.65 -29.85 -30.1 -29.65 -30.3 -29.45 -30.45 -29.3 -30.6 -29.1 -30.75 -28.9 -30.9 -28.7 -31.05 -28.45 -31.15 -28.25 -31.25 -28.05 -31.4 -27.8 -31.45 -27.6 -31.55 -27.35 -31.6 -27.1 -31.65 -26.85 -31.7 -26.6 -31.7 -26.35 -31.7 -26.05 -31.7 -25.75 -31.65 -25.5 -31.65 -25.25 -31.55 -25.0 -31.5 -24.8 -31.35 -24.6 -31.25 -24.45 -31.1 -24.25 -30.95 -24.15 -30.75 -24.0 -30.55 -23.9 -30.35 -23.8 -30.1 -23.75 -29.85 -23.7 -29.6 -23.65 -29.25 -23.65 -29.05 -23.6 -28.9 -23.6 -28.7 -23.6 -28.5 -23.55 -28.3 -23.55 -28.15 -23.5 -27.95 -23.45 -27.75 -23.45 -27.55 -23.4 -27.35 -23.35 -27.15 -23.3 -27.0 -23.25 -26.8 -23.2 -26.6 -23.15 -26.4 -23.05 -26.2 -23.35 -26.25 -23.65 -26.3 -23.95 -26.3 -24.25 -26.25 -24.5 -26.25 -24.8 -26.15 -25.05 -26.1 -25.3 -26.0 -25.55 -25.9 -25.8 -25.75 -26.0 -25.65 -26.25 -25.5 -26.5 -25.35 -26.7 -25.15 -26.9 -25.0 -27.15 -24.8 -27.4 -24.6 -27.6 -24.4 -27.85 -24.25 -28.1 -24.05 -28.35 -23.9 -28.6 -23.75 -28.85 -23.6 -29.1 -23.45 -29.35 -23.3 -29.65 -23.15 -29.9 -23.0 -30.15 -22.85 -30.45 -22.75 -30.7 -22.6 -31.0 -22.5 -31.25 -22.4 -31.3 -22.35 -31.4 -22.35 -31.4 -22.35 -31.55 -22.3 -31.65 -22.25 -31.7 -22.2 -31.8 -22.2 -31.85 -22.15 -31.95 -22.1 -32.0 -22.05 -32.1 -22.0 -32.15 -21.95 -32.25 -21.9 -32.3 -21.8 -32.4 -21.75 -32.45 -21.65 -32.2 -21.65 -32.0 -21.65 -31.75 -21.65 -31.55 -21.7 -31.35 -21.7 -31.15 -21.75 -30.95 -21.8 -30.7 -21.85 -30.55 -21.9 -30.3 -21.95 -30.15 -22.05 -29.95 -22.1 -29.75 -22.2 -29.55 -22.25 -29.4 -22.35 -29.2 -22.45 -25.6 -24.05 -25.05 -24.25 -24.85 -24.3 -24.65 -24.35 -24.4 -24.4 -24.15 -24.4 -23.9 -24.45 -23.65 -24.4 -23.4 -24.4 -23.15 -24.35 -22.9 -24.3 -22.65 -24.25 -22.4 -24.15 -22.2 -24.05 -21.95 -23.95 -21.8 -23.85 -21.6 -23.7 -21.5 -23.55 -21.05 -23.0 -20.55 -22.5 -20.05 -22.0 -19.5 -21.6 -19.0 -21.15 -18.4 -20.75 -17.9 -20.35 -17.3 -20.0 -16.7 -19.65 -16.1 -19.35 -15.5 -19.05 -14.85 -18.75 -14.25 -18.5 -13.55 -18.25 -12.95 -18.0 -12.25 -17.75 -11.65 -17.55 -11.2 -17.3 -10.7 -17.05 -10.3 -16.7 -9.9 -16.4 -9.6 -16.05 -9.35 -15.65 -9.15 -15.25 -8.95 -14.85 -8.9 -14.4 -8.8 -13.9 -8.85 -13.45 -8.85 -12.95 -9.0 -12.4 -9.15 -11.85 -9.4 -11.3 -9.5 -11.15 -9.55 -10.95 -9.65 -10.8 -9.75 -10.65 -9.85 -10.45 -9.95 -10.3 -10.0 -10.15 -10.15 -10.0 -10.25 -9.8 -10.35 -9.65 -10.45 -9.5 -10.55 -9.35 -10.65 -9.2 -10.75 -9.0 -10.9 -8.85 -11.0 -8.7 -10.95 -8.65 -10.85 -8.65 -10.8 -8.65 -10.75 -8.65 -10.65 -8.65 -10.6 -8.7 -10.55 -8.7 -10.5 -8.75 -10.5 -8.75 -10.45 -8.8 -10.4 -8.85 -10.35 -8.9 -10.35 -8.9 -10.3 -8.95 -10.25 -9.05 -10.25 -9.05 -8.95 -10.5 -9.55 -9.85 -9.15 -10.3 -8.85 -10.65 -8.5 -11.1 -8.25 -11.45 -7.95 -11.9 -7.7 -12.35 -7.45 -12.8 -7.3 -13.25 -7.15 -13.75 -7.05 -14.25 -7.0 -14.75 -7.05 -15.3 -7.05 -15.85 -7.25 -16.45 -7.25 -16.5 -7.25 -16.6 -7.25 -16.65 -7.25 -16.7 -7.25 -16.8 -7.25 -16.85 -7.2 -16.9 -7.2 -16.95 -7.15 -17.0 -7.15 -17.0 -7.1 -17.05 -7.05 -17.1 -7.0 -17.15 -6.95 -17.2 -6.9 -17.25 -6.85 -17.25 -6.8 -17.3 -5.6 -18.3 -5.55 -18.35 -5.5 -18.4 -5.5 -18.4 -5.45 -18.45 -5.4 -18.55 -5.35 -18.55 -5.3 -18.6 -5.25 -18.65 -5.2 -18.65 -5.15 -18.7 -5.1 -18.7 -5.05 -18.7 -5.0 -18.7 -4.95 -18.7 -4.85 -18.65 -4.8 -18.6 -4.75 -18.55 -4.65 -18.5 -4.6 -18.45 -4.55 -18.4 -4.5 -18.35 -4.45 -18.3 -4.45 -18.25 -4.4 -18.2 -4.35 -18.15 -4.35 -18.1 -4.3 -18.0 -4.3 -17.95 -4.3 -17.9 -4.3 -17.8 -4.3 -17.75 -4.3 -17.65 -4.4 -16.85 -4.45 -15.75 -4.3 -17.8 -4.65 -13.85 -4.75 -12.75 -4.8 -11.95 -4.9 -10.95 -5.0 -10.05 -5.1 -9.05 -5.25 -8.2 -5.35 -7.2 -5.5 -6.3 -5.7 -5.35 -5.85 -4.45 -6.05 -3.5 -6.3 -2.6 -6.35 -2.35 -6.45 -2.1 -6.5 -1.85 -6.6 -1.6 -6.7 -1.35 -6.8 -1.1 -6.9 -0.85 -7.0 -0.65 -7.1 -0.4 -7.2 -0.2 -7.35 0.05 -7.45 0.25 -7.6 0.5 -7.75 0.7 -7.9 0.9 -8.05 1.1 -8.65 1.85 -9.25 2.5 -9.85 3.25 -10.5 3.9 -11.1 4.55 -11.75 5.2 -12.45 5.85 -13.1 6.45 -13.8 7.05 -14.5 7.6 -15.25 8.15 -16.0 8.65 -16.75 9.2 -17.55 9.65 -18.4 10.1 -19.2 10.5 -19.45 10.6 -19.75 10.75 -20.0 10.85 -20.3 10.9 -20.55 11.0 -20.85 11.1 -21.15 11.15 -21.4 11.25 -21.7 11.3 -22.0 11.35 -22.25 11.4 -22.55 11.45 -22.85 11.5 -23.15 11.55 -23.4 11.55 -23.7 11.6 -24.5 11.65 -25.3 11.65 -26.1 11.65 -26.9 11.65 -27.7 11.6 -28.45 11.55 -29.25 11.45 -30.05 11.35 -30.8 11.25 -31.6 11.1 -32.35 10.95 -33.15 10.75 -33.9 10.6 -34.65 10.35 -35.4 10.15 -36.2 9.9 L-36.2 9.9 M8.1 22.95 Q7.15 23.0 6.25 23.05 5.3 23.1 4.45 23.05 3.5 23.05 2.6 23.0 1.7 22.9 0.85 22.8 -0.1 22.7 -0.95 22.5 -1.85 22.3 -2.7 22.05 -3.6 21.8 -4.45 21.45 -5.3 21.1 -6.15 20.7 -6.4 20.55 -6.7 20.45 -6.95 20.35 -7.25 20.25 -7.5 20.2 -7.8 20.1 -8.05 20.05 -8.35 20.0 -8.65 19.95 -8.95 19.9 -9.2 19.85 -9.5 19.85 -9.8 19.8 -10.1 19.8 -10.4 19.8 -10.7 19.8 -12.1 20.15 -13.45 20.3 -14.85 20.5 -16.2 20.55 -17.55 20.6 -18.9 20.5 -20.2 20.4 -21.55 20.2 -22.85 20.0 -24.2 19.7 -25.5 19.4 -26.8 18.95 -28.05 18.55 -29.4 18.05 -30.65 17.55 -31.95 17.0 -32.1 16.95 -32.25 16.85 -32.35 16.75 -32.45 16.65 -32.6 16.55 -32.65 16.45 -32.75 16.35 -32.8 16.25 -32.85 16.15 -32.9 16.0 -32.9 15.85 -32.9 15.75 -32.95 15.6 -32.9 15.45 -32.9 15.3 -32.85 15.15 -32.8 14.85 -32.6 14.3 -32.45 13.8 -32.4 13.5 -32.35 13.4 -32.35 13.3 -32.3 13.2 -32.25 13.1 -32.2 13.05 -32.15 13.0 -32.05 12.95 -32.0 12.9 -31.95 12.9 -31.85 12.9 -31.75 12.85 -31.7 12.85 -31.6 12.85 -31.5 12.9 -31.4 12.9 -31.3 12.9 -29.7 13.25 -28.15 13.35 -26.6 13.5 -25.1 13.4 -23.65 13.35 -22.2 13.1 -20.8 12.8 -19.45 12.35 -18.15 11.85 -16.85 11.2 -15.55 10.55 -14.35 9.7 -13.15 8.85 -12.0 7.8 -10.85 6.8 -9.75 5.6 -8.9 4.65 -8.5 4.25 -8.0 3.8 -7.6 3.3 -7.15 2.8 -6.8 2.3 -6.4 1.75 -6.1 1.25 -5.75 0.7 -5.5 0.1 -5.2 -0.45 -5.0 -1.05 -4.75 -1.6 -4.6 -2.25 -4.4 -2.85 -4.3 -3.5 -4.15 -4.1 -4.1 -4.8 -4.05 -5.0 -3.95 -5.4 -3.85 -5.9 -3.8 -6.15 -3.7 -6.05 -3.65 -5.95 -3.55 -5.85 -3.5 -5.8 -3.45 -5.7 -3.35 -5.6 -3.3 -5.5 -3.25 -5.4 -3.2 -5.3 -3.15 -5.25 -3.1 -5.15 -3.05 -5.05 -3.0 -4.95 -2.95 -4.85 -2.9 -4.75 -2.9 -4.65 -2.3 -3.8 1.15 1.0 3.65 4.4 5.25 6.6 5.3 6.7 5.35 6.75 5.4 6.85 5.4 6.95 5.45 7.0 5.45 7.05 5.45 7.1 5.45 7.2 5.4 7.25 5.35 7.3 5.35 7.35 5.3 7.4 5.25 7.45 5.15 7.5 5.1 7.55 5.05 7.6 4.05 8.2 2.35 9.35 1.9 9.65 1.6 9.95 1.25 10.25 1.0 10.6 0.8 10.9 0.65 11.25 0.55 11.6 0.5 11.95 0.5 12.3 0.55 12.65 0.65 13.05 0.85 13.4 1.0 13.75 1.3 14.1 1.6 14.5 1.95 14.85 2.15 15.0 3.1 15.65 3.25 15.75 3.35 15.8 3.45 15.9 3.55 15.95 3.7 16.05 3.8 16.15 3.9 16.2 4.0 16.3 4.1 16.4 4.2 16.5 4.3 16.65 4.35 16.75 4.45 16.85 4.5 17.0 4.55 17.1 4.6 17.25 4.75 17.85 4.95 18.35 5.15 18.8 5.45 19.2 5.7 19.55 6.05 19.85 6.4 20.15 6.8 20.35 7.2 20.55 7.65 20.7 8.05 20.8 8.55 20.9 9.0 20.95 9.5 21.0 9.95 21.05 10.5 21.05 10.65 21.05 10.8 21.05 10.9 21.05 11.05 21.1 11.2 21.1 11.3 21.1 11.45 21.15 11.6 21.15 11.7 21.2 11.85 21.25 12.0 21.3 12.1 21.35 12.25 21.4 12.4 21.45 12.55 21.5 12.65 21.6 12.4 21.75 12.1 21.9 11.8 22.05 11.55 22.15 11.25 22.25 10.95 22.35 10.7 22.45 10.4 22.55 10.15 22.6 9.85 22.7 9.55 22.75 9.25 22.8 8.95 22.85 8.7 22.9 8.4 22.9 8.1 22.95 L8.1 22.95 M13.7 19.9 Q13.6 19.9 13.55 19.9 13.45 19.9 13.4 19.85 13.3 19.85 13.25 19.8 13.2 19.8 13.15 19.75 13.1 19.7 13.1 19.65 13.05 19.6 13.05 19.55 13.05 19.5 13.05 19.4 13.05 19.3 13.1 19.2 13.2 18.95 13.25 18.7 13.3 18.45 13.3 18.2 13.3 17.95 13.3 17.7 13.3 17.45 13.25 17.2 13.25 16.95 13.15 16.7 13.1 16.45 13.05 16.2 12.95 15.95 12.9 15.7 12.8 15.5 12.7 15.25 12.65 15.15 12.65 15.1 12.6 15.0 12.6 14.95 12.6 14.85 12.6 14.8 12.6 14.75 12.6 14.7 12.65 14.65 12.7 14.65 12.75 14.6 12.8 14.6 12.85 14.55 12.95 14.55 13.0 14.55 13.15 14.55 13.5 14.55 13.9 14.5 14.25 14.45 14.6 14.4 14.95 14.35 15.3 14.25 15.65 14.15 16.0 14.0 16.3 13.9 16.65 13.75 17.0 13.6 17.3 13.4 17.6 13.2 17.9 12.95 18.25 12.75 18.55 12.45 18.65 12.8 18.75 13.2 18.8 13.55 18.85 13.95 18.9 14.3 18.95 14.65 18.95 15.0 18.95 15.35 18.95 15.7 18.9 16.1 18.9 16.4 18.85 16.8 18.8 17.1 18.75 17.5 18.7 17.8 18.65 18.2 18.65 18.25 18.6 18.3 18.6 18.35 18.6 18.4 18.55 18.45 18.55 18.45 18.5 18.5 18.45 18.55 18.45 18.6 18.4 18.6 18.35 18.65 18.35 18.7 18.3 18.7 18.25 18.75 18.2 18.75 18.15 18.8 17.9 18.95 17.65 19.05 17.35 19.2 17.1 19.3 16.8 19.4 16.55 19.5 16.25 19.6 16.0 19.65 15.7 19.75 15.45 19.8 15.15 19.85 14.85 19.85 14.55 19.9 14.3 19.9 14.0 19.9 13.7 19.9 L13.7 19.9 M26.7 46.1 Q21.55 46.15 16.85 46.3 16.75 46.3 16.65 46.3 16.55 46.25 16.5 46.25 16.45 46.2 16.4 46.2 16.35 46.15 16.3 46.1 16.3 46.05 16.25 46.0 16.25 45.95 16.25 45.85 16.2 45.8 16.2 45.7 16.2 45.65 16.2 45.55 16.15 40.0 16.05 23.6 16.0 23.3 16.0 23.15 16.0 23.05 16.0 22.95 16.0 22.85 16.0 22.7 16.0 22.65 15.95 22.45 15.95 22.3 15.95 22.2 15.9 22.1 15.95 22.0 15.95 21.85 15.95 21.8 16.0 21.7 16.05 21.6 16.1 21.5 16.15 21.45 16.25 21.35 16.4 21.3 16.5 21.25 16.65 21.2 16.8 21.1 16.95 21.05 17.05 21.05 17.2 21.0 17.35 20.95 17.5 20.9 17.45 20.9 17.8 20.8 17.95 20.75 18.1 20.75 18.25 20.7 18.4 20.65 18.45 20.65 18.5 20.6 18.6 20.6 18.6 20.65 18.65 20.65 18.7 20.65 18.75 20.7 18.75 20.75 18.8 20.75 18.8 20.8 18.8 20.85 18.85 20.9 18.85 20.95 18.85 21.0 18.9 21.05 18.9 21.1 19.0 21.3 19.95 24.05 23.2 32.7 23.9 34.6 26.05 40.6 27.25 45.35 27.3 45.45 27.3 45.55 27.35 45.65 27.35 45.75 27.35 45.8 27.3 45.85 27.3 45.95 27.25 45.95 27.25 46.0 27.2 46.05 27.15 46.05 27.05 46.05 27.0 46.1 26.9 46.1 26.8 46.1 26.7 46.1 L26.7 46.1 M52.15 34.8 Q44.15 38.65 37.35 41.85 36.85 42.1 29.85 45.4 29.8 45.4 29.7 45.45 29.6 45.5 29.6 45.55 29.5 45.55 29.45 45.6 29.4 45.6 29.35 45.6 29.3 45.6 29.25 45.6 29.2 45.55 29.15 45.5 29.1 45.45 29.05 45.35 29.0 45.25 29.0 45.15 28.65 43.85 28.3 42.5 27.9 41.2 27.5 39.85 27.1 38.6 26.6 37.2 26.2 36.0 25.7 34.6 25.3 33.5 24.75 32.0 24.6 31.55 23.8 29.45 23.25 27.85 22.85 26.85 22.35 25.4 21.95 24.25 21.95 24.25 21.9 24.15 21.45 22.95 20.45 20.35 20.95 20.65 21.45 20.85 21.9 21.05 22.4 21.15 22.9 21.3 23.35 21.35 23.85 21.4 24.3 21.4 24.8 21.4 25.25 21.35 25.7 21.3 26.2 21.2 26.65 21.1 27.15 20.95 27.6 20.85 28.1 20.7 28.8 20.45 29.5 20.2 30.2 19.95 30.9 19.65 31.6 19.35 32.25 19.05 32.9 18.7 33.55 18.35 34.25 18.0 34.85 17.65 35.5 17.25 36.15 16.85 36.75 16.45 37.35 16.0 37.95 15.55 38.55 15.1 38.85 14.85 39.15 14.6 39.4 14.3 39.7 14.0 39.95 13.75 40.2 13.45 40.4 13.15 40.65 12.85 40.85 12.55 41.1 12.2 41.3 11.95 41.55 11.55 42.1 10.7 42.0 10.9 42.25 10.55 42.45 10.25 42.7 10.55 42.95 10.9 43.2 11.2 43.45 11.55 43.65 11.85 43.9 12.2 44.15 12.5 44.35 12.85 44.55 13.2 44.8 13.55 45.0 13.85 45.2 14.2 45.4 14.55 45.6 14.9 45.8 15.25 46.0 15.6 46.6 16.7 47.15 17.75 47.75 18.85 48.25 19.9 48.8 21.0 49.25 22.1 49.75 23.25 50.2 24.35 50.6 25.5 51.0 26.65 51.4 27.8 51.75 28.95 52.1 30.1 52.4 31.3 52.65 32.5 52.9 33.7 52.95 33.85 52.95 33.95 52.95 34.1 52.95 34.2 52.95 34.3 52.9 34.35 52.85 34.45 52.85 34.5 52.8 34.55 52.7 34.6 52.65 34.65 52.55 34.7 52.45 34.75 52.35 34.75 52.25 34.8 52.15 34.8 L52.15 34.8" fill="#060606" fill-rule="evenodd" stroke="none"/>
    <path d="M4.3 2.95 Q4.35 2.95 4.35 2.95 4.4 2.95 4.45 2.95 4.5 2.95 4.5 2.95 4.55 2.95 4.6 2.95 4.65 2.9 4.7 2.9 4.7 2.9 4.75 2.85 4.8 2.85 4.85 2.85 4.85 2.8 4.9 2.75 4.95 2.7 5.15 2.25 5.2 2.15 5.25 2.0 5.3 1.9 5.4 1.8 5.45 1.7 5.5 1.6 5.6 1.5 5.65 1.4 5.75 1.3 5.8 1.2 5.9 1.15 6.0 1.05 6.1 0.95 6.2 0.9 6.3 0.8 6.35 0.75 6.6 0.6 6.75 0.5 6.95 0.35 7.1 0.2 7.25 0.1 7.4 -0.05 7.55 -0.2 7.65 -0.35 7.75 -0.55 7.8 -0.7 7.85 -0.9 7.85 -1.1 7.85 -1.35 7.85 -1.55 7.8 -1.8 7.7 -2.1 7.65 -2.15 7.65 -2.2 7.65 -2.3 7.65 -2.35 7.7 -2.45 7.7 -2.5 7.75 -2.6 7.75 -2.7 7.8 -2.75 7.85 -2.85 6.9 -0.7 7.9 -3.0 7.95 -3.1 8.0 -3.2 8.05 -3.3 8.05 -3.35 8.2 -3.25 8.35 -3.1 8.5 -3.0 8.6 -2.85 8.7 -2.7 8.8 -2.55 8.9 -2.4 8.95 -2.25 9.0 -2.1 9.05 -1.9 9.1 -1.75 9.15 -1.55 9.2 -1.4 9.25 -1.2 9.25 -1.15 9.3 -0.85 9.3 -0.75 9.3 -0.7 9.3 -0.6 9.3 -0.55 9.3 -0.5 9.25 -0.45 9.25 -0.4 9.2 -0.4 9.2 -0.35 9.15 -0.3 9.1 -0.3 9.05 -0.25 9.05 -0.25 9.0 -0.2 8.95 -0.2 8.9 -0.15 8.75 -0.05 8.55 0.1 8.4 0.2 8.25 0.35 8.1 0.45 7.95 0.6 7.8 0.75 7.65 0.9 7.5 1.0 7.35 1.15 7.2 1.3 7.05 1.45 6.9 1.6 6.75 1.75 6.65 1.9 6.5 2.05 6.4 2.15 6.35 2.25 6.25 2.35 6.2 2.4 6.15 2.5 6.1 2.6 6.05 2.65 6.0 2.75 5.95 2.8 5.95 2.85 5.9 2.95 5.9 3.0 5.9 3.1 5.85 3.15 5.85 3.2 5.85 3.3 5.85 3.5 6.5 4.85 6.55 4.95 6.6 5.0 6.6 5.1 6.65 5.15 6.7 5.25 6.75 5.3 6.75 5.4 6.8 5.45 6.8 5.5 6.85 5.6 6.9 5.65 6.9 5.7 6.95 5.75 6.95 5.8 6.95 5.85 7.0 5.9 6.95 5.85 6.9 5.8 6.85 5.8 6.8 5.75 6.7 5.7 6.65 5.65 6.6 5.6 6.55 5.55 6.5 5.5 6.45 5.45 6.4 5.4 6.35 5.35 6.3 5.3 6.2 5.25 6.15 5.2 6.1 5.15 5.95 5.0 5.8 4.85 5.7 4.75 5.55 4.6 5.45 4.45 5.3 4.3 5.2 4.2 5.1 4.05 5.0 3.9 4.85 3.75 4.75 3.65 4.65 3.5 4.6 3.35 4.5 3.25 4.4 3.1 4.3 2.95 L4.3 2.95" fill="#000000" fill-opacity="0.27058825" fill-rule="evenodd" stroke="none"/>
    <path d="M-2.9 -4.65 Q-2.95 -4.15 -3.0 -3.7 -3.1 -3.2 -3.2 -2.75 -3.3 -2.25 -3.4 -1.8 -3.5 -1.35 -3.7 -0.85 -3.8 -0.45 -4.0 0.05 -4.1 0.45 -4.3 0.95 -4.4 1.3 -4.65 1.85 -4.9 2.5 -5.0 2.75 -5.2 3.3 -5.4 3.8 -5.65 4.35 -5.9 4.85 -6.15 5.35 -6.4 5.8 -6.7 6.3 -7.0 6.75 -7.3 7.2 -7.65 7.65 -7.95 8.1 -8.35 8.5 -8.7 8.95 -9.15 9.3 -9.55 9.7 -10.0 10.1 -10.35 10.4 -10.7 10.65 -11.05 10.95 -11.35 11.25 -11.7 11.55 -12.0 11.9 -12.35 12.2 -12.65 12.5 -12.95 12.85 -13.25 13.15 -13.55 13.5 -13.85 13.85 -14.1 14.2 -14.4 14.55 -14.65 14.95 -14.9 15.3 -15.15 15.7 -15.3 16.0 -15.5 16.35 -15.55 16.65 -15.65 17.0 -15.65 17.25 -15.65 17.55 -15.55 17.8 -15.45 18.0 -15.25 18.25 -15.1 18.45 -14.8 18.65 -14.55 18.85 -14.2 19.0 -13.85 19.15 -13.4 19.25 -13.25 19.3 -13.05 19.35 -12.9 19.35 -12.7 19.4 -12.6 19.4 -12.4 19.4 -12.0 19.45 -12.05 19.45 -11.85 19.45 -11.7 19.45 -11.5 19.5 -11.35 19.5 -11.15 19.55 -11.0 19.6 -10.85 19.7 -10.7 19.8 -12.1 20.15 -13.45 20.3 -14.85 20.5 -16.2 20.55 -17.55 20.6 -18.9 20.5 -20.2 20.4 -21.55 20.2 -22.85 20.0 -24.2 19.7 -25.5 19.4 -26.8 18.95 -28.05 18.55 -29.4 18.05 -30.65 17.55 -31.95 17.0 -32.1 16.95 -32.25 16.85 -32.35 16.75 -32.45 16.65 -32.6 16.55 -32.65 16.45 -32.75 16.35 -32.8 16.25 -32.85 16.15 -32.9 16.0 -32.9 15.85 -32.9 15.75 -32.95 15.6 -32.9 15.45 -32.9 15.3 -32.85 15.15 -32.8 14.85 -32.6 14.3 -32.45 13.8 -32.4 13.5 -32.35 13.4 -32.35 13.3 -32.3 13.2 -32.25 13.1 -32.2 13.05 -32.15 13.0 -32.05 12.95 -32.0 12.9 -31.95 12.9 -31.85 12.9 -31.75 12.85 -31.7 12.85 -31.6 12.85 -31.5 12.9 -31.4 12.9 -31.3 12.9 -29.7 13.25 -28.15 13.35 -26.6 13.5 -25.1 13.4 -23.65 13.35 -22.2 13.1 -20.8 12.8 -19.45 12.35 -18.15 11.85 -16.85 11.2 -15.55 10.55 -14.35 9.7 -13.15 8.85 -12.0 7.8 -10.85 6.8 -9.75 5.6 -8.9 4.65 -8.5 4.25 -8.0 3.8 -7.6 3.3 -7.15 2.8 -6.8 2.3 -6.4 1.75 -6.1 1.25 -5.75 0.7 -5.5 0.1 -5.2 -0.45 -5.0 -1.05 -4.75 -1.6 -4.6 -2.25 -4.4 -2.85 -4.3 -3.5 -4.15 -4.1 -4.1 -4.8 -4.05 -5.0 -3.95 -5.4 -3.85 -5.9 -3.8 -6.15 -3.7 -6.05 -3.65 -5.95 -3.55 -5.85 -3.5 -5.8 -3.45 -5.7 -3.35 -5.6 -3.3 -5.5 -3.25 -5.4 -3.2 -5.3 -3.15 -5.25 -3.1 -5.15 -3.05 -5.05 -3.0 -4.95 -2.95 -4.85 -2.9 -4.75 -2.9 -4.65 L-2.9 -4.65" fill="#000000" fill-opacity="0.27058825" fill-rule="evenodd" stroke="none"/>
    <path d="M52.15 34.8 Q52.15 34.55 52.15 34.35 52.15 34.1 52.15 33.85 52.1 33.65 52.05 33.4 52.0 33.2 51.95 32.95 51.9 32.75 51.8 32.5 51.75 32.3 51.7 32.05 51.65 32.0 51.5 31.65 51.4 31.35 51.35 31.2 49.85 26.6 49.5 25.35 49.3 24.65 49.0 24.05 48.75 23.45 48.4 22.9 48.05 22.4 47.6 21.95 47.2 21.5 46.7 21.15 46.25 20.8 45.7 20.5 45.15 20.2 44.55 19.95 44.0 19.75 43.35 19.55 42.7 19.4 42.0 19.25 41.55 19.15 41.15 19.15 40.75 19.1 40.35 19.1 39.95 19.1 39.55 19.15 39.2 19.2 38.8 19.3 38.45 19.4 38.05 19.55 37.7 19.7 37.35 19.85 37.0 20.05 36.65 20.25 36.3 20.45 35.95 20.7 35.45 21.05 34.95 21.35 34.45 21.7 33.9 22.0 33.4 22.3 32.85 22.55 32.35 22.85 31.8 23.1 31.25 23.35 30.7 23.55 30.15 23.75 29.55 23.9 29.0 24.1 28.4 24.25 27.8 24.35 27.2 24.45 26.95 24.5 26.65 24.5 26.4 24.55 26.1 24.5 25.85 24.5 25.55 24.45 25.3 24.45 25.0 24.4 24.8 24.35 24.45 24.3 23.65 24.1 23.9 24.15 23.6 24.1 23.35 24.05 23.1 24.0 22.85 24.0 22.8 24.0 22.7 24.0 22.7 23.95 22.6 23.95 22.5 23.9 22.45 23.9 22.4 23.9 22.35 23.9 22.3 23.9 22.25 23.9 22.15 23.9 22.1 23.95 22.05 23.95 22.0 24.0 21.95 24.05 21.9 24.15 21.45 22.95 20.45 20.35 20.95 20.65 21.45 20.85 21.9 21.05 22.4 21.15 22.9 21.3 23.35 21.35 23.85 21.4 24.3 21.4 24.8 21.4 25.25 21.35 25.7 21.3 26.2 21.2 26.65 21.1 27.15 20.95 27.6 20.85 28.1 20.7 28.8 20.45 29.5 20.2 30.2 19.95 30.9 19.65 31.6 19.35 32.25 19.05 32.9 18.7 33.55 18.35 34.25 18.0 34.85 17.65 35.5 17.25 36.15 16.85 36.75 16.45 37.35 16.0 37.95 15.55 38.55 15.1 38.85 14.85 39.15 14.6 39.4 14.3 39.7 14.0 39.95 13.75 40.2 13.45 40.4 13.15 40.65 12.85 40.85 12.55 41.1 12.2 41.3 11.95 41.55 11.55 42.1 10.75 42.0 10.9 42.25 10.55 42.45 10.25 42.7 10.55 42.95 10.9 43.2 11.2 43.45 11.55 43.65 11.85 43.9 12.2 44.15 12.5 44.35 12.85 44.55 13.2 44.8 13.55 45.0 13.85 45.2 14.2 45.4 14.55 45.6 14.9 45.8 15.25 46.0 15.6 46.6 16.7 47.15 17.75 47.75 18.85 48.25 19.9 48.8 21.0 49.25 22.1 49.75 23.25 50.2 24.35 50.6 25.5 51.0 26.65 51.4 27.8 51.75 28.95 52.1 30.1 52.4 31.3 52.65 32.5 52.9 33.7 52.95 33.85 52.95 33.95 52.95 34.1 52.95 34.2 52.95 34.3 52.9 34.35 52.85 34.45 52.85 34.5 52.8 34.55 52.7 34.6 52.65 34.65 52.55 34.7 52.45 34.75 52.35 34.75 52.25 34.8 52.15 34.8 L52.15 34.8" fill="#000000" fill-opacity="0.27058825" fill-rule="evenodd" stroke="none"/>
    <path d="M9.4 -4.65 Q9.55 -4.85 9.7 -5.0 9.85 -5.2 9.95 -5.4 10.1 -5.6 10.2 -5.8 10.3 -6.0 10.4 -6.25 10.45 -6.45 10.55 -6.7 10.6 -6.9 10.65 -7.15 10.75 -7.35 10.8 -7.6 10.85 -7.85 10.85 -8.1 10.9 -8.5 11.0 -8.9 11.1 -9.3 11.25 -9.7 11.4 -10.1 11.55 -10.45 11.7 -10.85 11.9 -11.2 12.1 -11.55 12.3 -11.9 12.55 -12.25 12.8 -12.6 13.05 -12.9 13.3 -13.25 13.55 -13.55 13.85 -13.85 14.0 -14.0 14.15 -14.15 14.25 -14.3 14.4 -14.45 14.55 -14.6 14.7 -14.75 14.8 -14.9 14.95 -15.05 15.1 -15.15 15.2 -15.3 15.35 -15.45 15.5 -15.6 15.6 -15.75 15.75 -15.9 15.85 -16.05 16.0 -16.2 16.25 -16.5 16.45 -16.8 16.6 -17.1 16.75 -17.4 16.9 -17.75 17.0 -18.05 17.05 -18.35 17.1 -18.7 17.15 -19.05 17.15 -19.35 17.15 -19.7 17.1 -20.05 17.1 -20.35 17.05 -20.7 16.95 -21.05 16.9 -21.4 16.65 -22.35 16.5 -23.3 16.4 -24.25 16.3 -25.15 16.25 -26.1 16.3 -27.0 16.3 -27.95 16.4 -28.85 16.55 -29.75 16.75 -30.65 16.95 -31.55 17.25 -32.4 17.5 -33.3 17.9 -34.15 18.3 -35.05 18.75 -35.9 18.8 -36.0 18.85 -36.1 18.85 -36.2 18.9 -36.3 18.8 -35.9 18.95 -36.55 19.0 -36.65 19.05 -36.75 19.1 -36.85 19.15 -36.95 19.2 -37.05 19.25 -37.1 19.3 -37.2 19.4 -37.3 19.5 -37.35 19.65 -37.4 19.65 -37.2 19.45 -35.65 19.35 -34.6 19.25 -33.9 19.15 -33.35 19.1 -32.8 19.05 -32.3 19.05 -31.75 19.05 -31.25 19.1 -30.7 19.15 -30.2 19.2 -29.65 19.3 -29.15 19.4 -28.6 19.45 -28.1 19.6 -27.55 19.65 -27.15 19.8 -26.5 19.95 -25.7 20.0 -25.45 20.1 -25.0 20.15 -24.55 20.25 -24.1 20.3 -23.65 20.35 -23.25 20.4 -22.8 20.4 -22.35 20.45 -21.9 20.45 -21.45 20.45 -21.0 20.45 -20.55 20.45 -20.1 20.4 -19.65 20.4 -19.2 20.35 -18.75 20.3 -18.3 20.3 -18.05 20.25 -17.75 20.2 -17.5 20.1 -17.25 20.05 -17.0 19.95 -16.7 19.9 -16.45 19.8 -16.2 19.7 -16.0 19.55 -15.7 19.45 -15.5 19.3 -15.25 19.2 -15.0 19.05 -14.75 18.95 -14.55 18.8 -14.3 18.75 -14.2 18.7 -14.15 18.65 -14.05 18.55 -14.0 18.5 -13.95 18.45 -13.9 18.4 -13.85 18.3 -13.8 18.25 -13.8 18.15 -13.75 18.1 -13.7 18.0 -13.7 17.95 -13.65 17.85 -13.65 17.75 -13.65 17.65 -13.65 17.3 -13.6 16.95 -13.5 16.6 -13.4 16.35 -13.3 16.0 -13.15 15.75 -13.0 15.5 -12.85 15.25 -12.65 15.05 -12.45 14.85 -12.2 14.65 -11.95 14.55 -11.65 14.4 -11.4 14.3 -11.05 14.2 -10.7 14.15 -10.35 14.1 -9.85 14.0 -9.4 13.85 -8.95 13.7 -8.5 13.55 -8.1 13.35 -7.7 13.15 -7.3 12.95 -6.95 12.7 -6.55 12.4 -6.2 12.15 -5.9 11.8 -5.55 11.5 -5.25 11.1 -4.95 10.75 -4.65 10.35 -4.4 10.25 -4.35 10.15 -4.3 10.05 -4.25 10.0 -4.2 9.95 -4.15 9.85 -4.15 9.8 -4.15 9.75 -4.15 9.7 -4.15 9.65 -4.2 9.6 -4.25 9.55 -4.3 9.5 -4.35 9.45 -4.45 9.45 -4.5 9.4 -4.65 L9.4 -4.65" fill="#000000" fill-opacity="0.27058825" fill-rule="evenodd" stroke="none"/>
    <path d="M-38.1 -24.55 Q-38.15 -24.45 -38.2 -24.35 -38.25 -24.25 -38.3 -24.2 -38.35 -24.15 -38.4 -24.15 -38.45 -24.1 -38.55 -24.1 -38.6 -24.1 -38.65 -24.15 -38.75 -24.15 -38.8 -24.15 -38.85 -24.2 -38.95 -24.25 -39.0 -24.3 -39.05 -24.35 -39.1 -24.4 -39.2 -24.45 -39.25 -24.5 -39.3 -24.55 -39.35 -24.6 -39.35 -24.65 -39.4 -24.7 -39.45 -24.75 -39.45 -24.85 -39.45 -24.9 -39.45 -24.95 -39.45 -25.05 -39.45 -25.1 -39.4 -25.15 -39.35 -25.25 -39.3 -25.3 -39.0 -25.7 -38.65 -26.15 -38.35 -26.55 -38.05 -27.05 -37.8 -27.4 -37.45 -27.95 -36.85 -28.9 -36.9 -28.9 -36.55 -29.4 -36.3 -29.8 -35.95 -30.25 -35.65 -30.65 -35.35 -31.1 -35.0 -31.5 -34.6 -31.95 -34.25 -32.3 -33.95 -32.6 -33.6 -32.9 -33.25 -33.2 -32.95 -33.45 -32.6 -33.75 -32.25 -34.0 -31.9 -34.25 -31.55 -34.5 -31.2 -34.75 -30.8 -34.95 -30.45 -35.2 -30.05 -35.4 -29.7 -35.65 -29.35 -35.85 -28.95 -36.05 -28.55 -36.3 -28.2 -36.5 -27.85 -36.7 -27.55 -36.95 -27.25 -37.15 -26.95 -37.4 -26.75 -37.65 -26.5 -37.95 -26.3 -38.25 -26.1 -38.5 -26.0 -38.85 -25.85 -39.15 -25.8 -39.55 -25.7 -39.9 -25.7 -40.3 -25.7 -40.7 -25.75 -41.15 -25.8 -41.55 -25.8 -42.3 -25.85 -43.2 -25.85 -43.5 -25.85 -43.6 -25.85 -43.65 -25.9 -43.75 -25.9 -43.85 -25.85 -43.9 -25.85 -44.0 -25.85 -44.05 -25.85 -44.1 -25.8 -44.2 -25.75 -44.25 -25.75 -44.3 -25.65 -44.35 -25.6 -44.4 -25.55 -44.4 -25.45 -44.45 -25.35 -44.5 -25.05 -43.8 -24.8 -43.05 -24.55 -42.35 -24.35 -41.6 -24.15 -40.85 -24.0 -40.1 -23.8 -39.4 -23.7 -38.65 -23.55 -37.9 -23.5 -37.1 -23.4 -36.35 -23.35 -35.6 -23.3 -34.85 -23.3 -34.05 -23.25 -33.3 -23.3 -32.5 -23.45 -32.55 -23.6 -32.65 -23.75 -32.7 -23.9 -32.8 -23.85 -32.75 -24.2 -32.95 -24.4 -33.05 -24.55 -33.1 -24.7 -33.2 -24.85 -33.25 -25.0 -33.3 -25.15 -33.35 -25.3 -33.4 -25.5 -33.45 -25.65 -33.45 -25.85 -33.45 -26.2 -33.45 -26.6 -33.45 -26.95 -33.4 -27.3 -33.35 -27.65 -33.3 -27.95 -33.2 -28.3 -33.1 -28.6 -33.0 -28.95 -32.9 -29.25 -32.7 -29.55 -32.55 -29.85 -32.35 -30.15 -32.2 -30.4 -31.95 -30.7 -31.7 -30.95 -31.45 -31.3 -31.05 -31.7 -30.65 -32.1 -30.3 -32.5 -29.9 -32.9 -29.55 -33.3 -29.15 -33.7 -28.8 -34.15 -28.45 -34.55 -28.1 -35.0 -27.75 -35.4 -27.4 -35.85 -27.05 -36.25 -26.7 -36.7 -26.35 -37.1 -26.05 -37.55 -25.65 -37.6 -25.6 -37.7 -25.55 -37.85 -25.45 -37.85 -25.45 -37.9 -25.4 -38.0 -25.35 -38.05 -25.3 -38.1 -25.25 -38.15 -25.2 -38.2 -25.1 -38.25 -25.05 -38.25 -24.95 -38.25 -24.85 -38.2 -24.75 -38.15 -24.65 -38.1 -24.55 L-38.1 -24.55" fill="#000000" fill-opacity="0.27058825" fill-rule="evenodd" stroke="none"/>
    <path d="M21.1 -33.5 Q21.2 -33.5 21.25 -33.45 21.3 -33.45 21.35 -33.4 21.4 -33.4 21.45 -33.3 21.45 -33.3 21.5 -33.2 21.5 -33.15 21.5 -33.1 21.5 -33.05 21.55 -33.0 21.55 -32.9 21.55 -32.85 21.55 -32.8 21.55 -32.75 21.65 -32.25 21.8 -31.8 21.95 -31.3 22.1 -30.85 22.25 -30.4 22.45 -29.95 22.65 -29.5 22.85 -29.1 23.1 -28.65 23.35 -28.25 23.6 -27.8 23.85 -27.4 24.15 -27.0 24.45 -26.65 24.75 -26.25 25.1 -25.85 25.3 -25.65 25.45 -25.4 25.65 -25.2 25.8 -24.95 25.95 -24.75 26.1 -24.5 26.25 -24.25 26.35 -24.0 26.45 -23.75 26.55 -23.5 26.65 -23.2 26.7 -22.95 26.75 -22.65 26.8 -22.35 26.8 -22.1 26.8 -21.8 26.75 -20.25 26.8 -21.7 26.8 -21.65 26.8 -21.65 26.8 -21.6 26.8 -21.55 26.8 -21.5 26.8 -21.45 26.8 -21.45 26.85 -21.4 26.85 -21.35 26.9 -21.35 26.9 -21.3 26.95 -21.25 27.0 -21.25 27.05 -21.2 27.15 -21.15 27.2 -21.15 27.3 -21.1 27.35 -21.1 27.4 -21.05 27.4 -21.05 27.45 -21.0 27.45 -20.95 27.45 -20.95 27.4 -20.9 27.4 -20.85 27.35 -20.8 27.3 -20.75 27.2 -20.65 27.15 -20.6 27.0 -20.45 26.85 -20.35 26.7 -20.2 26.55 -20.1 26.4 -19.95 26.3 -19.8 26.2 -19.65 26.1 -19.5 26.0 -19.35 25.9 -19.2 25.8 -19.0 25.9 -19.1 25.65 -18.65 25.55 -18.45 25.45 -18.35 25.35 -18.15 25.25 -18.0 25.05 -17.7 24.85 -17.4 24.6 -17.1 24.4 -16.8 24.15 -16.55 23.9 -16.3 23.65 -16.0 23.4 -15.75 23.1 -15.5 22.85 -15.3 22.5 -15.05 22.2 -14.85 21.85 -14.65 21.5 -14.5 21.1 -14.3 20.7 -14.15 21.0 -14.7 21.2 -15.25 21.45 -15.8 21.6 -16.35 21.75 -16.9 21.9 -17.45 22.0 -18.0 22.05 -18.55 22.15 -19.1 22.15 -19.65 22.2 -20.2 22.2 -20.75 22.2 -21.25 22.15 -21.85 22.15 -22.35 22.1 -22.95 22.0 -24.25 21.6 -26.35 21.05 -28.85 20.95 -29.7 20.9 -30.0 20.9 -30.2 20.85 -30.45 20.8 -30.65 20.8 -30.9 20.8 -31.15 20.75 -31.4 20.75 -31.6 20.75 -31.85 20.8 -32.1 20.8 -32.35 20.85 -32.55 20.85 -32.8 20.95 -33.05 21.0 -33.25 21.1 -33.5 L21.1 -33.5" fill="#000000" fill-opacity="0.27058825" fill-rule="evenodd" stroke="none"/>
    <path d="M26.8 15.45 Q26.75 15.7 26.7 15.9 26.7 16.05 26.75 16.2 26.8 16.35 26.85 16.4 26.95 16.5 27.05 16.55 27.15 16.6 27.3 16.6 27.4 16.6 27.55 16.6 27.7 16.6 27.85 16.6 28.15 16.55 28.15 16.55 28.75 16.5 29.35 16.4 29.95 16.35 30.55 16.2 31.1 16.05 31.7 15.9 32.25 15.7 32.8 15.5 33.35 15.3 33.9 15.0 34.4 14.8 34.95 14.5 35.45 14.25 36.0 13.9 36.5 13.65 37.05 13.3 37.1 13.25 37.2 13.2 37.25 13.15 37.35 13.05 37.45 13.0 37.5 12.95 37.6 12.9 37.65 12.85 37.75 12.8 37.85 12.75 37.95 12.7 38.0 12.7 38.1 12.65 38.2 12.65 38.3 12.65 38.45 12.65 38.4 12.8 38.3 12.95 38.2 13.05 38.15 13.15 38.05 13.3 37.9 13.4 37.8 13.5 37.7 13.6 37.6 13.65 37.45 13.75 37.35 13.85 37.25 13.95 36.9 14.15 37.0 14.1 36.85 14.2 36.75 14.3 36.1 14.8 35.45 15.25 34.75 15.7 34.05 16.1 33.35 16.55 32.65 16.95 31.95 17.3 31.25 17.65 30.5 18.0 29.75 18.3 29.0 18.6 28.25 18.8 27.5 19.05 26.7 19.25 25.9 19.45 25.1 19.6 25.0 19.6 24.9 19.65 24.8 19.65 24.75 19.65 24.65 19.65 24.55 19.7 24.45 19.7 24.35 19.7 24.25 19.7 24.15 19.7 24.1 19.7 24.0 19.7 23.9 19.7 23.8 19.7 23.7 19.7 23.6 19.65 23.2 19.6 22.8 19.55 22.45 19.45 22.15 19.3 21.85 19.2 21.6 19.0 21.4 18.8 21.2 18.6 21.0 18.35 20.9 18.1 20.75 17.8 20.7 17.5 20.65 17.15 20.65 16.8 20.65 16.4 20.7 16.0 21.1 16.15 21.5 16.25 21.85 16.3 22.25 16.35 22.65 16.4 23.05 16.4 23.4 16.4 23.8 16.35 24.2 16.35 24.55 16.25 24.95 16.15 25.3 16.05 25.7 15.95 26.05 15.8 26.4 15.65 26.8 15.45 L26.8 15.45" fill="#000000" fill-opacity="0.27058825" fill-rule="evenodd" stroke="none"/>
    <path d="M20.85 -12.4 Q20.85 -12.3 20.8 -12.2 20.75 -12.15 20.7 -12.1 20.65 -12.05 20.55 -12.0 20.5 -11.95 20.4 -11.9 20.35 -11.85 20.25 -11.85 20.2 -11.8 20.1 -11.8 20.0 -11.75 19.95 -11.7 19.85 -11.7 19.8 -11.65 19.5 -11.5 19.25 -11.35 19.0 -11.15 18.75 -11.0 18.5 -10.8 18.3 -10.6 18.1 -10.35 17.9 -10.15 17.75 -9.9 17.6 -9.65 17.4 -9.4 17.3 -9.15 17.15 -8.85 17.05 -8.55 17.0 -8.25 16.9 -7.95 16.8 -7.55 16.75 -7.2 16.65 -6.85 16.55 -6.5 16.45 -6.1 16.3 -5.8 16.2 -5.4 16.05 -5.1 15.9 -4.75 15.75 -4.4 15.6 -4.05 15.4 -3.75 15.25 -3.4 15.0 -3.1 14.8 -2.8 14.55 -2.5 14.45 -2.35 14.35 -2.25 14.3 -2.1 14.25 -1.95 14.2 -1.8 14.2 -1.7 14.2 -1.55 14.2 -1.4 14.2 -1.3 14.25 -1.15 14.3 -1.0 14.35 -0.9 14.4 -0.75 14.5 -0.6 14.6 -0.5 14.7 -0.35 14.65 -0.25 14.6 -0.2 14.55 -0.1 14.5 0.0 14.45 0.05 14.4 0.15 14.35 0.25 14.3 0.35 14.25 0.4 14.25 0.5 14.2 0.6 14.2 0.7 14.15 0.8 14.15 0.9 14.15 1.05 14.1 1.15 13.95 1.05 13.75 0.9 13.6 0.8 13.45 0.7 13.3 0.6 13.1 0.45 12.85 0.25 12.8 0.2 12.6 0.05 12.45 -0.05 12.3 -0.15 12.15 -0.25 11.95 -0.35 11.8 -0.45 11.6 -0.55 11.45 -0.65 11.3 -0.7 11.2 -0.85 11.1 -0.95 11.0 -1.05 10.9 -1.2 10.85 -1.35 10.8 -1.5 10.8 -1.65 10.8 -1.8 10.8 -1.95 10.8 -2.1 10.85 -2.25 10.9 -2.45 11.0 -2.55 11.05 -2.7 11.2 -2.85 11.4 -3.1 12.3 -3.75 12.6 -3.95 12.85 -4.2 13.15 -4.45 13.35 -4.7 13.6 -4.95 13.85 -5.2 14.05 -5.45 14.25 -5.75 14.45 -6.0 14.65 -6.3 14.8 -6.6 14.95 -6.9 15.1 -7.25 15.2 -7.55 15.35 -7.9 15.4 -8.25 15.5 -8.65 15.7 -9.5 15.8 -10.1 15.9 -10.35 16.0 -10.75 16.1 -10.95 16.2 -11.2 16.4 -11.35 16.55 -11.5 16.8 -11.6 17.0 -11.7 17.4 -11.8 17.65 -11.85 18.3 -11.95 19.05 -12.1 19.55 -12.2 19.75 -12.25 20.85 -12.4 L20.85 -12.4" fill="#000000" fill-opacity="0.27058825" fill-rule="evenodd" stroke="none"/>
    <path d="M19.2 -2.0 Q19.2 -1.85 19.2 -1.7 19.15 -1.55 19.15 -1.4 19.1 -1.2 19.1 -1.05 19.05 -0.9 19.0 -0.75 19.0 -0.6 18.95 -0.45 18.9 -0.3 18.85 -0.15 18.8 -0.05 18.7 0.1 18.65 0.25 18.6 0.4 18.45 0.8 18.3 1.15 18.2 1.55 18.15 1.9 18.1 2.25 18.1 2.65 18.1 3.0 18.1 3.35 18.15 3.7 18.25 4.05 18.3 4.4 18.45 4.8 18.55 5.1 18.75 5.5 18.9 5.8 19.1 6.15 20.9 9.4 21.9 11.0 22.05 11.25 22.2 11.45 22.4 11.7 22.55 11.9 22.75 12.1 22.9 12.3 23.1 12.5 23.3 12.7 23.5 12.9 23.7 13.05 23.95 13.2 24.15 13.35 24.4 13.5 24.6 13.65 24.85 13.8 25.1 13.9 25.15 13.9 25.2 13.95 25.3 14.0 25.3 14.0 25.35 14.0 25.4 14.05 25.45 14.05 25.45 14.1 25.5 14.1 25.55 14.15 25.6 14.2 25.6 14.2 25.6 14.25 25.65 14.3 25.65 14.35 25.65 14.45 25.15 14.6 24.75 14.7 24.3 14.75 23.9 14.75 23.5 14.75 23.15 14.7 22.8 14.65 22.5 14.5 22.2 14.4 21.95 14.2 21.65 14.0 21.45 13.75 21.2 13.55 21.0 13.25 20.85 12.95 20.65 12.6 20.55 12.35 17.65 5.5 16.4 2.55 16.2 2.15 16.15 2.0 16.1 1.9 16.05 1.75 16.05 1.65 16.05 1.5 16.05 1.4 16.05 1.3 16.05 1.15 16.1 1.05 16.15 0.95 16.2 0.85 16.3 0.75 16.4 0.65 16.5 0.55 16.65 0.45 16.8 0.35 16.95 0.25 17.15 0.1 17.3 0.0 17.45 -0.15 17.6 -0.3 17.75 -0.45 17.9 -0.55 18.05 -0.75 18.15 -0.85 18.35 -1.05 18.15 -0.85 18.65 -1.4 18.8 -1.55 18.9 -1.7 19.05 -1.85 19.2 -2.0 L19.2 -2.0" fill="#000000" fill-opacity="0.27058825" fill-rule="evenodd" stroke="none"/>
    <path d="M-0.7 -16.35 Q-1.15 -14.7 -2.0 -8.95 -2.0 -8.9 -2.0 -8.8 -2.05 -8.75 -2.05 -8.6 -2.05 -8.5 -2.05 -8.4 -2.05 -8.35 -2.1 -8.25 -2.1 -8.15 -2.15 -8.1 -2.15 -8.0 -2.2 -7.95 -2.25 -7.85 -2.35 -7.8 -2.4 -7.75 -2.5 -7.65 -2.6 -7.75 -2.75 -7.9 -2.85 -8.05 -2.9 -8.15 -3.0 -8.3 -3.05 -8.45 -3.1 -8.55 -3.15 -8.7 -3.2 -8.85 -3.2 -9.0 -3.25 -9.15 -3.25 -9.3 -3.25 -9.5 -3.25 -9.65 -3.25 -9.8 -3.25 -10.0 -3.15 -10.85 -2.7 -18.05 -2.7 -18.15 -2.7 -18.2 -2.7 -18.3 -2.7 -18.4 -2.7 -18.5 -2.7 -18.55 -2.7 -18.65 -2.7 -18.75 -2.75 -18.8 -2.75 -18.9 -2.8 -18.95 -2.85 -19.0 -2.85 -19.1 -2.9 -19.15 -2.95 -19.2 -3.05 -19.2 -3.3 -19.35 -3.45 -19.55 -3.65 -19.7 -3.75 -19.9 -3.85 -20.1 -3.95 -20.3 -4.0 -20.5 -4.05 -20.7 -4.05 -20.9 -4.05 -21.15 -4.1 -21.35 -4.05 -21.6 -4.05 -21.85 -4.0 -22.1 -4.0 -22.1 -3.95 -22.6 -2.85 -20.5 -0.7 -16.35 L-0.7 -16.35" fill="#000000" fill-opacity="0.27058825" fill-rule="evenodd" stroke="none"/>
    <path d="M-22.05 -38.75 Q-21.95 -38.8 -21.95 -38.75 -21.8 -38.3 -21.6 -37.95 -21.45 -37.6 -21.2 -37.35 -20.95 -37.1 -20.65 -36.95 -20.35 -36.75 -20.0 -36.65 -19.7 -36.55 -19.35 -36.45 -19.05 -36.35 -18.65 -36.3 -15.95 -35.8 -17.95 -36.15 -17.5 -36.1 -17.25 -36.0 -17.2 -35.9 -17.1 -35.75 -17.1 -35.7 -16.95 -35.5 -16.9 -35.3 -16.85 -35.2 -16.75 -35.05 -16.7 -34.95 -16.65 -34.8 -16.6 -34.65 -16.55 -34.5 -16.5 -34.35 -16.45 -34.2 -16.45 -34.05 -16.45 -33.85 -16.45 -33.7 -16.95 -34.1 -17.15 -34.3 -17.5 -34.55 -17.7 -34.7 -18.0 -34.85 -18.2 -34.95 -18.45 -35.05 -18.7 -35.05 -18.9 -35.05 -19.2 -34.95 -19.45 -34.85 -19.8 -34.7 -20.1 -34.55 -20.6 -34.3 -20.9 -34.15 -21.6 -33.7 -21.55 -35.3 -22.05 -38.75 L-22.05 -38.75" fill="#000000" fill-opacity="0.27058825" fill-rule="evenodd" stroke="none"/>
    <path d="M6.85 -41.45 Q6.75 -41.45 6.65 -41.5 6.55 -41.55 6.45 -41.6 6.4 -41.65 6.3 -41.75 6.25 -41.8 6.15 -41.85 6.1 -41.95 6.05 -42.0 6.0 -42.1 5.95 -42.2 5.75 -42.45 5.85 -42.35 5.75 -42.45 5.7 -42.5 4.45 -44.25 3.25 -45.85 3.25 -45.9 3.15 -46.0 3.1 -46.05 3.05 -46.1 3.0 -46.2 2.95 -46.25 2.9 -46.3 2.85 -46.35 2.8 -46.4 2.75 -46.4 2.65 -46.45 2.6 -46.5 2.5 -46.5 2.45 -46.5 2.35 -46.5 2.25 -46.5 2.25 -47.55 2.25 -50.0 2.45 -49.7 2.95 -48.9 3.35 -48.25 3.6 -47.85 3.95 -47.3 4.25 -46.8 4.55 -46.25 4.85 -45.75 5.15 -45.25 5.4 -44.7 5.7 -44.2 5.95 -43.65 6.2 -43.1 6.4 -42.6 6.65 -42.0 6.85 -41.45 L6.85 -41.45" fill="#000000" fill-opacity="0.27058825" fill-rule="evenodd" stroke="none"/>
    <path d="M0.45 -46.25 Q0.15 -46.05 -0.2 -45.8 -0.5 -45.6 -0.8 -45.35 -1.05 -45.1 -1.35 -44.85 -1.6 -44.55 -1.85 -44.3 -2.1 -44.0 -2.4 -43.7 -2.6 -43.45 -2.85 -43.1 -2.85 -43.15 -3.35 -42.55 -3.65 -42.2 -3.85 -41.95 -3.9 -41.9 -3.95 -41.8 -4.0 -41.75 -4.05 -41.65 -4.15 -41.55 -4.2 -41.5 -4.25 -41.45 -4.3 -41.35 -4.35 -41.3 -4.4 -41.25 -4.5 -41.2 -4.55 -41.15 -4.65 -41.1 -4.75 -41.05 -4.85 -41.05 -4.95 -41.0 -5.0 -41.1 -5.0 -41.2 -5.0 -41.3 -5.0 -41.45 -4.95 -41.5 -4.95 -41.6 -4.9 -41.7 -4.85 -41.8 -4.8 -41.9 -4.75 -42.0 -4.7 -42.05 -4.65 -42.15 -4.85 -41.9 -4.55 -42.3 -4.5 -42.4 -4.45 -42.45 -4.2 -42.85 -3.95 -43.3 -3.65 -43.7 -3.4 -44.1 -3.1 -44.5 -2.8 -44.95 -2.5 -45.3 -2.2 -45.7 -1.9 -46.1 -1.6 -46.5 -1.25 -46.9 -0.9 -47.3 -0.6 -47.7 -0.25 -48.1 0.1 -48.45 0.45 -48.9 0.45 -47.9 0.45 -46.25 L0.45 -46.25" fill="#000000" fill-opacity="0.27058825" fill-rule="evenodd" stroke="none"/>
    <path d="M19.95 24.05 Q16.7 23.6 16.05 23.6 16.0 23.3 16.0 23.15 16.0 23.05 16.0 22.95 16.0 22.85 16.0 22.7 16.0 22.65 15.95 22.45 15.95 22.3 15.95 22.2 15.9 22.1 15.95 22.0 15.95 21.85 15.95 21.8 16.0 21.7 16.05 21.6 16.1 21.5 16.15 21.45 16.25 21.35 16.4 21.3 16.5 21.25 16.65 21.2 16.8 21.1 16.95 21.05 17.05 21.05 17.2 21.0 17.35 20.95 17.5 20.9 17.45 20.9 17.8 20.8 17.95 20.75 18.1 20.75 18.25 20.7 18.4 20.65 18.45 20.65 18.5 20.6 18.6 20.6 18.6 20.65 18.65 20.65 18.7 20.65 18.75 20.7 18.75 20.75 18.8 20.75 18.8 20.8 18.8 20.85 18.85 20.9 18.85 20.95 18.85 21.0 18.9 21.05 18.9 21.1 19.0 21.3 19.95 24.05 L19.95 24.05" fill="#000000" fill-opacity="0.27058825" fill-rule="evenodd" stroke="none"/>
    <path d="M-15.7 -36.95 Q-15.55 -36.95 -15.4 -36.95 -15.3 -36.95 -15.15 -37.0 -15.05 -37.05 -14.9 -37.1 -14.8 -37.15 -14.65 -37.2 -14.55 -37.25 -14.45 -37.35 -13.95 -37.65 -14.2 -37.5 -14.05 -37.55 -13.95 -37.6 -13.85 -37.7 -13.75 -37.7 -13.6 -37.75 -13.45 -37.85 -13.55 -37.8 -13.1 -38.0 -12.95 -38.1 -12.8 -38.15 -12.65 -38.2 -12.5 -38.25 -12.3 -38.35 -12.15 -38.4 -12.0 -38.45 -11.85 -38.45 -11.65 -38.5 -11.5 -38.5 -11.3 -38.55 -11.15 -38.5 -11.05 -38.4 -10.95 -38.3 -10.9 -38.2 -10.85 -38.1 -10.8 -38.05 -10.8 -37.95 -10.75 -37.85 -10.8 -37.8 -10.8 -37.75 -10.85 -37.65 -10.9 -37.6 -11.0 -37.55 -11.05 -37.5 -11.2 -37.45 -11.35 -37.4 -11.5 -37.35 -11.75 -37.3 -11.95 -37.2 -12.2 -37.1 -12.45 -37.0 -12.65 -36.9 -12.85 -36.8 -13.1 -36.7 -13.3 -36.55 -13.5 -36.45 -13.7 -36.3 -13.9 -36.15 -14.1 -36.0 -14.3 -35.85 -14.55 -35.7 -14.7 -35.55 -14.95 -35.35 -15.0 -35.45 -15.1 -35.55 -15.15 -35.65 -15.2 -35.75 -15.25 -35.8 -15.3 -35.9 -15.35 -36.0 -15.4 -36.1 -15.4 -36.2 -15.45 -36.3 -15.5 -36.4 -15.55 -36.55 -15.6 -36.6 -15.6 -36.75 -15.7 -36.9 -15.7 -36.95 L-15.7 -36.95" fill="#000000" fill-opacity="0.27058825" fill-rule="evenodd" stroke="none"/>
    <path d="M19.6 -3.95 Q19.6 -3.9 19.65 -3.9 19.65 -3.9 19.7 -3.85 19.7 -3.85 19.55 -3.9 19.55 -3.9 19.6 -3.95 L19.6 -3.95" fill="#060606" fill-rule="evenodd" stroke="none"/>
  </g>
</svg>
