<?xml version="1.0" encoding="UTF-8" standalone="no"?>
<svg xmlns:xlink="http://www.w3.org/1999/xlink" height="36.7px" width="49.4px" xmlns="http://www.w3.org/2000/svg">
  <g transform="matrix(1.0, 0.0, 0.0, 1.0, 24.7, 18.35)">
    <path d="M-36.05 -10.7 Q-36.05 -10.75 -36.05 -10.75 -36.05 -10.75 -36.05 -10.7 -36.0 -10.75 -36.05 -10.7 L-36.05 -10.7" fill="#dcdcdc" fill-rule="evenodd" stroke="none"/>
    <path d="M3.1 8.25 Q2.8 8.25 2.5 8.25 2.2 8.2 1.95 8.2 1.65 8.15 1.35 8.15 1.05 8.1 0.8 8.05 0.5 8.0 0.2 7.9 -0.05 7.85 -0.35 7.8 -0.65 7.7 -0.9 7.6 -1.2 7.55 -1.5 7.45 -1.65 7.4 -1.8 7.35 -1.95 7.3 -2.1 7.25 -2.25 7.2 -2.35 7.15 -2.5 7.1 -2.65 7.05 -2.8 7.0 -2.95 6.9 -3.1 6.85 -3.25 6.8 -3.4 6.75 -3.5 6.65 -3.65 6.6 -3.8 6.55 -4.0 6.45 -4.2 6.35 -4.4 6.2 -4.6 6.1 -4.8 6.0 -4.95 5.9 -5.15 5.75 -5.35 5.65 -5.55 5.55 -5.75 5.4 -5.95 5.3 -6.1 5.15 -6.3 5.05 -6.5 4.9 -6.65 4.8 -6.85 4.65 -7.1 4.45 -7.4 4.3 -7.65 4.1 -7.95 3.9 -8.2 3.7 -8.45 3.5 -8.7 3.3 -8.95 3.1 -9.2 2.9 -9.45 2.65 -9.75 2.45 -9.95 2.25 -10.2 2.05 -10.45 1.8 -10.7 1.6 -10.95 1.35 -11.1 1.2 -11.25 1.05 -11.4 0.9 -11.55 0.75 -11.7 0.6 -11.85 0.45 -11.95 0.3 -12.1 0.1 -12.25 -0.05 -12.4 -0.2 -12.5 -0.35 -12.65 -0.55 -12.8 -0.7 -12.9 -0.9 -13.05 -1.05 -13.2 -1.2 -15.8 -4.8 -16.45 -5.85 -16.6 -6.1 -16.75 -6.35 -16.9 -6.6 -17.0 -6.8 -17.15 -7.05 -17.3 -7.3 -17.4 -7.55 -17.55 -7.8 -17.65 -8.05 -17.75 -8.35 -17.9 -8.6 -18.0 -8.85 -18.1 -9.1 -18.2 -9.35 -18.3 -9.65 -18.4 -9.9 -18.5 -10.3 -18.6 -10.65 -18.75 -11.0 -18.8 -11.4 -18.9 -11.75 -19.0 -12.15 -19.05 -12.55 -19.1 -12.9 -19.2 -13.3 -19.25 -13.65 -19.3 -14.05 -19.3 -14.45 -19.35 -14.8 -19.35 -15.2 -19.35 -15.6 -19.35 -16.0 -19.25 -17.25 -19.2 -17.55 -19.1 -17.9 -18.85 -18.8 -18.85 -18.9 -18.8 -19.05 -18.75 -19.15 -18.75 -19.3 -18.7 -19.4 -18.65 -19.5 -18.65 -19.65 -18.6 -19.75 -18.55 -19.85 -18.5 -19.95 -18.45 -20.1 -18.4 -20.2 -18.35 -20.3 -18.3 -20.4 -18.25 -20.5 -18.2 -20.65 -18.1 -20.9 -17.95 -21.1 -17.8 -21.35 -17.65 -21.6 -17.5 -21.8 -17.35 -22.0 -17.2 -22.2 -17.0 -22.4 -16.8 -22.6 -16.65 -22.8 -16.45 -23.0 -16.25 -23.15 -16.05 -23.35 -15.85 -23.5 -15.6 -23.7 -15.4 -23.85 -15.25 -23.95 -15.15 -24.0 -15.05 -24.1 -14.9 -24.2 -14.8 -24.25 -14.65 -24.35 -14.55 -24.4 -14.4 -24.5 -14.3 -24.55 -14.15 -24.65 -14.05 -24.7 -13.9 -24.75 -13.8 -24.8 -13.65 -24.85 -13.5 -24.95 -13.35 -24.95 -13.15 -25.0 -12.95 -25.1 -12.75 -25.15 -12.55 -25.2 -12.35 -25.25 -12.15 -25.3 -11.95 -25.35 -11.75 -25.35 -11.55 -25.4 -11.35 -25.4 -11.15 -25.45 -10.95 -25.45 -10.7 -25.45 -10.5 -25.45 -10.3 -25.45 -10.1 -25.45 -9.85 -25.45 -9.65 -25.4 -9.4 -25.4 -9.2 -25.35 -8.95 -25.3 -8.75 -25.25 -8.55 -25.2 -8.3 -25.15 -8.1 -25.1 -7.85 -25.05 -7.65 -25.0 -7.45 -24.95 -7.2 -24.9 -7.0 -24.8 -6.8 -24.75 -6.6 -24.65 -6.45 -24.6 -6.3 -24.55 -6.15 -24.5 -6.0 -24.45 -5.85 -24.4 -5.7 -24.35 -5.55 -24.3 -5.45 -24.25 -5.3 -24.15 -5.15 -24.1 -5.0 -24.05 -4.85 -24.0 -4.7 -23.9 -4.6 -23.85 -4.45 -23.8 -4.3 -23.7 -4.15 -23.65 -4.05 -23.55 -3.9 -23.5 -3.8 -23.45 -3.65 -23.35 -3.55 -23.3 -3.4 -23.25 -3.3 -23.15 -3.15 -23.1 -3.05 -23.0 -2.9 -22.95 -2.8 -22.85 -2.65 -22.8 -2.55 -22.7 -2.4 -22.65 -2.3 -22.55 -2.15 -22.45 -2.05 -22.4 -1.9 -22.3 -1.75 -22.2 -1.65 -22.15 -1.5 -22.05 -1.4 -21.95 -1.25 -21.85 -1.15 -21.75 -1.0 -21.7 -0.9 -21.6 -0.75 -21.5 -0.65 -21.4 -0.5 -21.3 -0.4 -21.2 -0.25 -21.1 -0.1 -21.0 0.0 -20.9 0.15 -20.8 0.3 -20.65 0.45 -20.55 0.55 -20.45 0.7 -20.35 0.85 -20.2 0.95 -20.1 1.1 -20.0 1.25 -19.9 1.35 -19.75 1.5 -19.65 1.65 -19.5 1.75 -19.4 1.9 -19.3 2.1 -19.1 2.3 -18.9 2.5 -18.7 2.7 -18.5 2.9 -18.25 3.1 -18.05 3.3 -17.85 3.5 -17.65 3.7 -17.45 3.9 -17.2 4.05 -17.0 4.25 -16.8 4.45 -16.55 4.6 -16.35 4.8 -16.15 5.0 -15.9 5.15 -15.75 5.25 -15.6 5.4 -15.4 5.5 -15.25 5.65 -15.1 5.75 -14.95 5.85 -14.75 6.0 -14.6 6.1 -14.45 6.25 -14.25 6.35 -14.1 6.45 -13.95 6.6 -13.75 6.7 -13.6 6.8 -13.4 6.9 -13.25 7.05 -13.0 7.2 -12.8 7.35 -12.55 7.5 -12.3 7.65 -12.05 7.8 -11.8 7.95 -11.6 8.05 -11.35 8.2 -11.1 8.35 -10.85 8.45 -10.6 8.6 -10.35 8.7 -10.1 8.85 -9.85 8.95 -9.6 9.1 -9.35 9.2 -9.1 9.3 -8.9 9.4 -8.7 9.5 -8.45 9.55 -8.25 9.65 -8.0 9.75 -7.8 9.85 -7.55 9.9 -7.35 10.0 -7.1 10.1 -6.9 10.15 -6.65 10.25 -6.4 10.3 -6.2 10.35 -5.95 10.45 -5.75 10.5 -5.5 10.55 -5.3 10.6 -5.1 10.65 -4.85 10.7 -4.65 10.75 -4.45 10.8 -4.2 10.85 -4.0 10.9 -3.75 10.95 -3.55 11.0 -3.3 11.0 -3.1 11.05 -2.85 11.05 -2.65 11.1 -2.4 11.1 -2.2 11.1 -2.05 11.1 -1.95 11.15 -1.8 11.15 -1.7 11.15 -1.55 11.15 -1.45 11.15 -1.3 11.15 -1.2 11.15 -1.05 11.15 -0.95 11.15 -0.8 11.15 -0.7 11.15 -0.55 11.15 -0.45 11.15 -0.3 11.1 -0.2 11.1 -0.05 11.1 0.05 11.05 0.2 11.05 0.3 11.05 0.45 11.05 0.55 11.0 0.7 11.0 0.8 10.95 0.95 10.95 1.05 10.9 1.2 10.9 1.3 10.85 1.45 10.85 1.55 10.8 1.7 10.75 1.8 10.75 1.85 10.75 1.9 10.75 1.95 10.75 1.95 10.75 2.0 10.8 2.05 11.45 2.8 12.95 4.45 13.4 4.9 14.65 6.35 15.35 7.1 16.8 8.7 17.0 8.95 17.7 9.65 18.2 10.25 18.55 10.6 19.2 11.35 20.3 12.55 20.95 13.3 22.0 14.45 22.85 15.4 23.25 15.85 23.3 15.9 23.35 15.95 23.35 15.95 23.4 16.0 23.45 16.05 23.5 16.1 23.5 16.15 23.55 16.2 23.6 16.2 23.6 16.25 23.65 16.3 23.7 16.35 23.7 16.4 23.75 16.45 23.75 16.5 23.8 16.55 23.9 16.7 23.95 16.8 24.0 16.95 24.05 17.05 24.1 17.2 24.15 17.35 24.2 17.45 24.2 17.6 24.25 17.75 24.25 17.85 24.25 18.0 24.25 18.15 24.2 18.3 24.2 18.45 24.15 18.6 24.1 18.75 24.05 18.9 24.0 19.05 23.9 19.2 23.85 19.35 23.8 19.5 23.7 19.6 23.65 19.75 23.55 19.9 23.45 20.0 23.35 20.15 23.25 20.25 23.15 20.4 23.05 20.5 22.95 20.6 22.8 20.7 22.7 20.8 22.65 20.85 22.6 20.9 22.5 20.95 22.45 21.0 22.4 21.0 22.35 21.05 22.3 21.1 22.2 21.15 22.15 21.15 22.1 21.2 21.95 21.3 21.95 21.3 21.9 21.35 21.85 21.35 21.8 21.4 21.75 21.45 21.7 21.45 21.7 21.5 21.65 21.5 21.6 21.5 21.6 21.55 21.55 21.55 21.5 21.55 21.5 21.55 21.45 21.6 21.4 21.6 21.4 21.6 21.35 21.6 21.3 21.6 21.3 21.65 21.25 21.65 21.2 21.65 21.1 21.65 20.95 21.7 20.85 21.7 20.75 21.7 20.6 21.7 20.5 21.7 20.35 21.7 20.25 21.7 20.15 21.7 20.0 21.7 19.9 21.65 19.8 21.65 19.65 21.65 19.55 21.6 19.45 21.55 19.3 21.55 19.2 21.5 19.0 21.45 18.7 21.35 18.65 21.35 18.55 21.3 18.2 20.9 18.05 20.75 17.9 20.6 17.8 20.45 17.65 20.3 17.5 20.15 17.35 20.0 17.25 19.85 17.1 19.7 16.95 19.55 16.85 19.4 16.7 19.3 16.55 19.15 16.4 19.0 16.3 18.85 16.15 18.7 16.0 18.55 14.85 17.25 13.65 15.9 12.25 14.4 11.45 13.55 10.4 12.35 9.05 10.85 7.15 8.8 6.6 8.2 6.55 8.15 6.55 8.15 6.55 8.1 6.5 8.1 6.5 8.05 6.45 8.05 6.4 8.05 6.4 8.05 6.35 8.0 6.35 8.0 6.3 8.0 6.3 8.0 6.25 8.0 6.2 8.0 6.2 8.05 6.15 8.05 5.4 8.25 3.6 8.3 3.55 8.3 3.5 8.3 3.45 8.3 3.4 8.3 3.35 8.25 3.3 8.25 3.25 8.25 3.2 8.25 3.15 8.25 3.1 8.25 L3.1 8.25 M-17.55 -11.8 Q-17.6 -11.8 -17.6 -11.75 -17.6 -11.75 -17.55 -11.75 -17.4 -10.95 -16.85 -9.45 -16.8 -9.3 -16.75 -9.1 -16.7 -8.95 -16.6 -8.8 -16.55 -8.6 -16.45 -8.45 -16.4 -8.3 -16.35 -8.15 -16.25 -8.0 -16.2 -7.8 -16.1 -7.65 -16.0 -7.5 -15.95 -7.35 -15.85 -7.2 -15.75 -7.05 -15.65 -6.9 -15.55 -6.75 -15.5 -6.6 -15.4 -6.45 -15.3 -6.3 -15.2 -6.15 -15.1 -6.0 -15.05 -5.85 -14.95 -5.7 -14.85 -5.6 -14.75 -5.45 -14.65 -5.3 -14.55 -5.15 -14.45 -5.0 -14.35 -4.85 -14.25 -4.7 -14.15 -4.55 -14.0 -4.3 -14.1 -4.45 -14.05 -4.35 -14.0 -4.35 L-14.0 -4.35 Q-14.0 -4.35 -13.95 -4.25 -11.85 -1.4 -11.0 -0.4 -10.8 -0.15 -10.6 0.05 -10.35 0.3 -10.15 0.5 -9.9 0.7 -9.7 0.9 -9.45 1.15 -9.2 1.35 -9.0 1.55 -8.75 1.75 -8.5 1.95 -8.25 2.15 -8.05 2.3 -7.75 2.5 -7.55 2.7 -7.25 2.9 -7.0 3.05 -6.8 3.25 -6.55 3.4 -6.35 3.55 -6.1 3.75 -5.85 3.9 -5.65 4.05 -5.4 4.2 -5.15 4.35 -4.9 4.5 -4.65 4.65 -4.45 4.8 -4.2 4.95 -3.95 5.1 -3.7 5.25 -3.45 5.35 -3.2 5.45 -3.0 5.6 -2.75 5.7 -2.5 5.8 -2.3 5.9 -2.05 6.0 -1.8 6.1 -1.55 6.15 -1.3 6.25 -1.05 6.35 -0.85 6.4 -0.6 6.45 -0.35 6.55 -0.1 6.6 0.15 6.65 0.4 6.7 0.55 6.75 1.0 6.85 1.35 6.9 1.6 6.95 1.65 6.95 1.7 6.95 1.75 7.0 1.8 7.0 1.85 7.0 1.9 7.0 1.95 7.0 2.0 7.0 2.05 7.0 2.1 7.05 2.15 7.05 2.2 7.05 2.25 7.05 2.3 7.05 2.3 7.05 2.4 7.05 4.5 7.05 5.1 7.0 5.2 7.0 5.3 7.0 5.35 6.95 5.45 6.95 5.55 6.95 5.65 6.95 5.7 6.9 5.8 6.9 5.9 6.9 6.0 6.85 6.05 6.85 6.15 6.8 6.25 6.8 6.3 6.75 6.4 6.75 6.5 6.7 6.55 6.7 6.6 6.7 6.65 6.7 6.7 6.7 6.7 6.7 6.75 6.7 6.8 6.7 6.85 6.75 6.85 6.75 6.9 6.8 6.95 6.8 7.0 6.85 7.0 6.85 7.05 6.9 7.1 6.9 7.1 6.95 9.15 9.2 13.05 13.45 17.05 17.9 18.95 20.0 19.0 20.05 19.05 20.1 19.1 20.15 19.2 20.2 19.25 20.2 19.3 20.25 19.35 20.3 19.45 20.3 19.5 20.35 19.55 20.35 19.65 20.4 19.7 20.4 19.8 20.4 19.9 20.45 19.95 20.45 20.05 20.45 19.8 20.2 19.4 19.75 19.05 19.35 18.25 18.45 17.5 17.65 17.1 17.2 16.7 16.75 15.85 15.8 15.0 14.9 14.6 14.45 12.45 12.05 11.85 11.35 10.55 9.95 8.8 8.0 7.8 6.9 6.95 5.95 6.9 5.9 6.9 5.9 6.85 5.85 6.8 5.85 6.8 5.85 6.75 5.85 6.7 5.85 6.65 5.9 6.6 5.9 6.5 5.95 6.4 6.0 6.3 6.05 6.15 6.1 5.7 6.2 5.35 6.3 5.1 6.35 4.95 6.35 4.85 6.4 4.75 6.4 4.6 6.4 4.5 6.4 4.35 6.4 4.25 6.4 4.1 6.45 4.0 6.45 3.85 6.45 3.75 6.45 3.6 6.45 3.5 6.45 3.35 6.4 3.25 6.4 3.1 6.4 2.85 6.4 2.6 6.35 2.35 6.3 2.1 6.3 1.85 6.25 1.6 6.2 1.35 6.15 1.1 6.05 0.9 6.0 0.65 5.95 0.4 5.85 0.15 5.8 -0.1 5.7 -0.35 5.6 -0.55 5.5 -0.8 5.45 -1.0 5.35 -1.25 5.25 -1.45 5.15 -1.65 5.05 -1.9 4.95 -2.1 4.85 -2.3 4.75 -2.5 4.65 -2.7 4.55 -2.95 4.4 -3.15 4.3 -3.35 4.2 -3.55 4.05 -3.75 3.95 -3.95 3.8 -4.15 3.7 -4.3 3.6 -4.5 3.45 -4.65 3.35 -4.85 3.25 -5.0 3.1 -5.2 3.0 -5.35 2.9 -5.5 2.75 -5.7 2.65 -5.85 2.5 -6.0 2.4 -6.15 2.25 -6.35 2.15 -6.5 2.0 -6.65 1.9 -6.8 1.75 -6.95 1.65 -7.05 1.55 -7.2 1.45 -7.3 1.3 -7.45 1.2 -7.55 1.1 -7.7 1.0 -7.8 0.9 -7.95 0.75 -8.05 0.65 -8.2 0.55 -8.3 0.4 -8.45 0.3 -8.55 0.2 -8.65 0.1 -8.8 -0.05 -8.9 -0.15 -9.05 -0.3 -9.15 -0.4 -9.25 -0.5 -9.35 -0.6 -9.5 -0.75 -9.6 -0.85 -9.7 -0.95 -9.8 -1.1 -9.95 -1.2 -10.05 -1.35 -10.15 -1.45 -10.25 -1.55 -10.35 -1.7 -10.5 -1.8 -10.6 -1.95 -10.7 -2.1 -10.8 -2.2 -10.9 -2.35 -11.05 -2.45 -11.15 -2.6 -11.25 -2.7 -11.35 -2.85 -11.45 -3.0 -11.55 -3.1 -11.65 -3.25 -11.75 -3.4 -11.85 -3.55 -11.95 -3.65 -12.05 -3.8 -12.2 -3.95 -12.3 -4.05 -13.45 -5.75 -13.85 -6.45 -13.95 -6.6 -14.0 -6.7 -14.1 -6.85 -14.15 -7.0 -14.25 -7.1 -14.3 -7.25 -14.4 -7.4 -14.5 -7.55 -14.55 -7.65 -14.6 -7.8 -14.7 -7.95 -14.75 -8.1 -14.85 -8.25 -14.9 -8.35 -15.0 -8.5 -15.05 -8.65 -15.15 -8.8 -15.2 -8.95 -15.3 -9.1 -15.35 -9.25 -15.4 -9.4 -15.5 -9.6 -15.55 -9.75 -15.65 -9.9 -15.7 -10.05 -15.75 -10.2 -15.85 -10.35 -15.9 -10.5 -15.95 -10.7 -16.0 -10.85 -16.1 -11.0 -16.15 -11.15 -16.2 -11.3 -16.25 -11.45 -16.3 -11.6 -16.35 -11.75 -16.4 -11.9 -16.45 -12.05 -16.5 -12.2 -16.55 -12.35 -16.6 -12.5 -16.65 -12.65 -16.7 -12.8 -16.7 -12.95 -16.75 -13.1 -16.8 -13.25 -16.85 -13.4 -16.9 -13.55 -16.95 -13.7 -16.95 -13.85 -17.0 -14.0 -17.05 -14.2 -17.05 -14.35 -17.1 -14.5 -17.15 -14.65 -17.15 -14.8 -17.2 -14.95 -17.2 -15.15 -17.25 -15.3 -17.25 -15.45 -17.25 -15.6 -17.3 -15.75 -17.3 -15.95 -17.3 -16.1 -17.3 -16.2 -17.3 -16.3 -17.35 -16.45 -17.35 -16.55 -17.35 -16.65 -17.35 -16.75 -17.35 -16.85 -17.35 -17.0 -17.4 -17.1 -17.4 -17.2 -17.4 -17.3 -17.4 -17.4 -17.4 -17.55 -17.4 -17.65 -17.35 -17.75 -17.35 -17.85 -17.35 -17.9 -17.35 -18.0 -17.35 -18.05 -17.35 -18.1 -17.35 -18.15 -17.35 -18.25 -17.3 -18.3 -17.3 -18.35 -17.3 -18.45 -17.3 -18.5 -17.3 -18.55 -17.3 -18.6 -17.3 -18.7 -17.3 -18.75 -17.25 -18.8 -17.25 -18.85 -17.25 -18.95 -17.25 -19.05 -17.2 -19.15 -17.2 -19.25 -17.2 -19.35 -17.15 -19.45 -17.15 -19.55 -17.1 -19.65 -17.1 -19.7 -17.1 -19.8 -17.05 -19.9 -17.05 -20.0 -17.0 -20.1 -17.0 -20.2 -16.95 -20.25 -16.9 -20.35 -16.9 -20.4 -16.9 -20.45 -16.9 -20.5 -16.9 -20.55 -16.95 -20.45 -17.05 -20.35 -17.1 -20.2 -17.15 -20.1 -17.2 -20.0 -17.25 -19.9 -17.3 -19.75 -17.35 -19.65 -17.4 -19.55 -17.45 -19.45 -17.5 -19.3 -17.5 -19.2 -17.55 -19.1 -17.6 -18.95 -17.65 -18.85 -17.65 -18.7 -17.7 -18.55 -17.75 -18.4 -17.8 -18.25 -17.8 -18.1 -17.85 -17.9 -17.9 -17.75 -17.9 -17.6 -17.95 -17.45 -17.95 -17.3 -18.0 -17.1 -18.0 -16.95 -18.05 -16.8 -18.05 -16.65 -18.05 -16.45 -18.05 -16.3 -18.1 -16.15 -18.1 -15.9 -18.1 -15.4 -18.05 -14.85 -18.05 -14.6 -18.05 -14.45 -18.05 -14.25 -18.05 -14.1 -18.05 -13.95 -18.0 -13.8 -18.0 -13.65 -18.0 -13.5 -17.95 -13.3 -17.95 -13.15 -17.9 -13.0 -17.85 -12.85 -17.8 -12.7 -17.8 -12.55 -17.75 -12.35 -17.7 -12.25 -17.65 -12.05 -17.65 -12.05 -17.6 -12.0 -17.6 -11.95 -17.6 -11.9 -17.6 -11.9 -17.6 -11.85 -17.6 -11.8 -17.55 -11.8 L-17.55 -11.8 M-15.85 -12.25 Q-15.7 -11.8 -15.55 -11.35 -15.35 -10.9 -15.15 -10.45 -15.0 -10.0 -14.8 -9.55 -14.6 -9.1 -14.35 -8.65 -14.15 -8.25 -13.9 -7.8 -13.65 -7.4 -13.4 -6.95 -13.2 -6.55 -12.9 -6.15 -12.65 -5.7 -12.35 -5.3 -12.0 -4.75 -11.6 -4.25 -11.2 -3.75 -10.85 -3.25 -10.4 -2.75 -10.0 -2.25 -9.6 -1.75 -9.15 -1.3 -8.7 -0.85 -8.25 -0.4 -7.8 0.05 -7.3 0.5 -6.8 0.9 -6.3 1.3 -5.8 1.7 -5.3 2.1 -5.0 2.35 -4.7 2.55 -4.35 2.75 -4.05 2.95 -3.75 3.15 -3.4 3.35 -3.1 3.55 -2.75 3.75 -2.4 3.9 -2.1 4.1 -1.75 4.25 -1.4 4.4 -1.05 4.55 -0.7 4.7 -0.35 4.85 0.0 4.95 0.25 5.05 0.5 5.1 0.75 5.2 1.0 5.25 1.25 5.35 1.5 5.4 1.75 5.45 2.0 5.5 2.25 5.55 2.5 5.55 2.75 5.6 3.05 5.6 3.3 5.65 3.55 5.65 3.8 5.65 4.05 5.65 4.25 5.65 4.4 5.6 4.6 5.6 4.75 5.6 4.9 5.55 5.1 5.5 5.25 5.5 5.4 5.45 5.6 5.4 5.75 5.35 5.9 5.3 6.05 5.25 6.25 5.2 6.4 5.1 6.55 5.05 6.7 4.95 6.8 4.9 6.85 4.9 6.9 4.9 6.9 4.9 6.95 4.95 7.0 5.05 7.05 5.1 8.1 6.3 12.45 11.1 20.05 19.55 20.55 20.0 20.6 20.05 20.65 20.1 20.75 20.15 20.8 20.2 20.85 20.2 20.9 20.25 20.95 20.25 21.05 20.25 21.1 20.25 21.15 20.25 21.2 20.25 21.25 20.25 21.35 20.2 21.4 20.2 21.45 20.15 21.5 20.1 21.6 20.05 21.7 20.0 21.75 19.95 21.85 19.85 21.9 19.8 21.95 19.75 22.05 19.65 22.1 19.6 22.15 19.55 22.25 19.45 22.3 19.4 22.35 19.3 22.4 19.25 22.5 19.15 22.55 19.05 22.6 19.0 22.65 18.9 22.7 18.8 22.75 18.75 22.75 18.65 22.8 18.6 22.85 18.5 22.85 18.4 22.9 18.35 22.9 18.25 22.9 18.15 22.95 18.05 22.95 18.0 22.95 17.9 22.95 17.8 22.95 17.7 22.95 17.65 22.9 17.55 22.9 17.5 22.9 17.45 22.85 17.4 22.85 17.35 22.85 17.3 22.8 17.25 22.8 17.2 22.75 17.15 22.75 17.1 22.7 17.05 22.7 17.0 22.65 17.0 22.65 16.95 22.6 16.9 22.55 16.85 22.5 16.8 22.0 16.25 21.05 15.15 20.0 14.05 19.55 13.5 16.1 9.75 9.5 2.4 9.5 2.4 9.45 2.3 9.4 2.25 9.35 2.2 9.35 2.15 9.3 2.15 9.3 2.1 9.3 2.05 9.3 2.0 9.3 1.95 9.3 1.95 9.3 1.9 9.35 1.75 9.45 1.55 9.5 1.4 9.55 1.2 9.6 1.05 9.6 0.9 9.65 0.7 9.7 0.55 9.75 0.35 9.75 0.2 9.8 0.0 9.8 -0.15 9.8 -0.3 9.8 -0.5 9.85 -0.65 9.85 -0.85 9.85 -1.15 9.85 -1.5 9.85 -1.8 9.85 -2.15 9.8 -2.45 9.75 -2.8 9.75 -3.1 9.7 -3.45 9.65 -3.75 9.55 -4.05 9.5 -4.4 9.45 -4.7 9.35 -5.0 9.25 -5.35 9.2 -5.65 9.1 -5.95 8.95 -6.45 8.8 -6.9 8.6 -7.4 8.4 -7.85 8.25 -8.3 8.05 -8.75 7.8 -9.2 7.6 -9.65 7.4 -10.1 7.15 -10.55 6.9 -11.0 6.65 -11.45 6.4 -11.85 6.1 -12.3 5.85 -12.7 5.55 -13.1 5.15 -13.65 4.8 -14.2 4.4 -14.75 3.95 -15.25 3.55 -15.75 3.1 -16.25 2.7 -16.75 2.2 -17.25 1.75 -17.7 1.3 -18.2 0.8 -18.65 0.3 -19.05 -0.2 -19.5 -0.7 -19.9 -1.25 -20.35 -1.8 -20.7 -2.1 -20.9 -2.4 -21.1 -2.7 -21.3 -3.0 -21.5 -3.3 -21.7 -3.6 -21.9 -3.9 -22.05 -4.2 -22.25 -4.5 -22.4 -4.85 -22.55 -5.15 -22.75 -5.5 -22.85 -5.8 -23.0 -6.15 -23.15 -6.45 -23.3 -6.8 -23.4 -7.05 -23.5 -7.3 -23.55 -7.6 -23.65 -7.85 -23.7 -8.1 -23.8 -8.35 -23.85 -8.6 -23.9 -8.85 -23.95 -9.15 -24.0 -9.4 -24.0 -9.65 -24.05 -9.95 -24.05 -10.2 -24.05 -10.45 -24.05 -10.75 -24.05 -11.0 -24.05 -11.3 -24.05 -11.55 -24.0 -11.85 -23.95 -12.1 -23.9 -12.35 -23.85 -12.6 -23.75 -12.85 -23.7 -13.1 -23.6 -13.35 -23.45 -13.6 -23.35 -13.85 -23.2 -14.05 -23.05 -14.3 -22.9 -14.5 -22.75 -14.7 -22.55 -14.9 -22.35 -15.05 -22.2 -15.15 -22.05 -15.3 -21.9 -15.4 -21.75 -15.5 -21.55 -15.6 -21.4 -15.7 -21.25 -15.8 -21.05 -15.9 -20.9 -16.0 -20.7 -16.05 -20.55 -16.1 -20.35 -16.2 -20.15 -16.25 -19.95 -16.3 -19.8 -16.35 -19.6 -16.4 -19.45 -16.45 -19.3 -16.45 -19.15 -16.5 -19.0 -16.5 -18.8 -16.55 -18.65 -16.55 -18.5 -16.6 -18.35 -16.6 -18.2 -16.6 -18.05 -16.65 -17.9 -16.65 -17.75 -16.65 -17.6 -16.65 -17.4 -16.65 -17.25 -16.65 -17.1 -16.65 -16.8 -16.65 -16.5 -16.6 -16.2 -16.6 -15.85 -16.55 -15.55 -16.5 -15.25 -16.5 -14.95 -16.45 -14.65 -16.35 -14.35 -16.3 -14.05 -16.25 -13.75 -16.15 -13.45 -16.1 -13.15 -16.0 -12.85 -15.95 -12.55 -15.85 -12.25 L-15.85 -12.25" fill="#040404" fill-rule="evenodd" stroke="none"/>
    <path d="M7.1 -0.55 Q7.0 -0.15 6.8 0.2 6.65 0.55 6.45 0.85 6.25 1.15 6.0 1.4 5.75 1.7 5.45 1.9 5.15 2.15 4.85 2.3 4.5 2.5 4.15 2.6 3.8 2.75 3.4 2.8 3.05 2.9 2.65 2.9 2.4 2.9 2.15 2.9 1.9 2.9 1.65 2.9 1.4 2.85 1.15 2.85 0.9 2.8 0.65 2.75 0.4 2.7 0.15 2.65 -0.1 2.6 -0.35 2.5 -0.55 2.45 -0.8 2.35 -1.05 2.3 -1.3 2.2 -1.6 2.05 -1.95 1.95 -2.25 1.8 -2.55 1.65 -2.9 1.5 -3.2 1.3 -3.5 1.15 -3.8 0.95 -4.1 0.8 -4.35 0.6 -4.65 0.4 -4.95 0.2 -5.2 0.0 -5.5 -0.2 -5.8 -0.45 -6.05 -0.65 -6.55 -1.05 -7.0 -1.45 -7.45 -1.9 -7.9 -2.3 -8.35 -2.75 -8.75 -3.2 -9.2 -3.7 -9.6 -4.15 -10.0 -4.65 -10.35 -5.15 -10.75 -5.6 -11.05 -6.15 -11.4 -6.65 -11.75 -7.2 -12.05 -7.7 -12.35 -8.3 -12.55 -8.7 -12.75 -9.1 -13.0 -9.5 -13.15 -9.9 -13.35 -10.3 -13.5 -10.75 -13.7 -11.15 -13.8 -11.55 -13.95 -12.0 -14.1 -12.4 -14.2 -12.85 -14.3 -13.3 -14.4 -13.75 -14.45 -14.15 -14.55 -14.6 -14.55 -15.05 -14.55 -15.25 -14.6 -15.45 -14.6 -15.7 -14.6 -15.9 -14.6 -16.1 -14.6 -16.3 -14.6 -16.5 -14.6 -16.7 -14.55 -16.9 -14.55 -17.1 -14.5 -17.3 -14.45 -17.5 -14.45 -17.7 -14.4 -17.9 -14.35 -18.1 -14.25 -18.3 -14.15 -18.7 -13.95 -19.05 -13.8 -19.4 -13.6 -19.7 -13.4 -20.05 -13.15 -20.3 -12.9 -20.55 -12.6 -20.8 -12.35 -21.0 -12.0 -21.2 -11.7 -21.35 -11.35 -21.5 -11.0 -21.6 -10.6 -21.7 -10.25 -21.75 -9.85 -21.8 -9.7 -21.8 -9.5 -21.8 -9.35 -21.8 -9.15 -21.8 -9.0 -21.8 -8.85 -21.8 -8.7 -21.75 -8.5 -21.75 -8.35 -21.75 -8.2 -21.7 -8.0 -21.7 -7.85 -21.65 -7.7 -21.65 -7.55 -21.6 -7.35 -21.55 -7.2 -21.5 -6.9 -21.45 -6.65 -21.35 -6.35 -21.25 -6.1 -21.15 -5.8 -21.05 -5.55 -20.95 -5.25 -20.85 -5.0 -20.7 -4.75 -20.6 -4.5 -20.45 -4.2 -20.35 -3.95 -20.2 -3.7 -20.05 -3.45 -19.9 -3.2 -19.75 -2.95 -19.55 -2.55 -19.3 -2.2 -19.05 -1.8 -18.8 -1.45 -18.5 -1.1 -18.2 -0.75 -17.95 -0.4 -17.65 -0.05 -17.35 0.3 -17.0 0.6 -16.7 0.95 -16.4 1.25 -16.05 1.55 -15.7 1.85 -15.35 2.15 -15.0 2.45 -14.65 2.8 -14.25 3.1 -13.85 3.4 -13.45 3.7 -13.0 4.0 -12.6 4.3 -12.15 4.55 -11.75 4.85 -11.3 5.1 -10.85 5.35 -10.4 5.55 -9.95 5.8 -9.45 6.0 -9.0 6.2 -8.5 6.4 -8.05 6.55 -7.55 6.65 -7.25 6.75 -7.0 6.85 -6.7 6.9 -6.45 7.0 -6.15 7.05 -5.9 7.15 -5.6 7.2 -5.3 7.25 -5.0 7.3 -4.75 7.35 -4.45 7.35 -4.15 7.4 -3.85 7.4 -3.55 7.45 -3.2 7.45 -2.9 7.45 -2.75 7.45 -2.65 7.45 -2.5 7.45 -2.35 7.4 -2.2 7.4 -2.05 7.4 -1.9 7.35 -1.75 7.35 -1.6 7.3 -1.45 7.3 -1.3 7.25 -1.15 7.25 -1.0 7.2 -0.85 7.15 -0.7 7.1 -0.55 L7.1 -0.55 M-0.5 1.8 Q-0.45 1.85 -0.35 1.85 -0.25 1.9 -0.2 1.9 -0.1 1.95 -0.05 1.95 0.05 2.0 0.1 2.0 0.2 2.0 0.25 2.05 0.35 2.05 0.4 2.05 0.5 2.1 0.55 2.1 0.6 2.1 0.7 2.15 0.95 2.2 1.35 2.2 1.8 2.25 1.95 2.25 1.95 2.25 2.15 2.25 L2.15 2.25 2.2 2.25 Q2.2 2.25 2.25 2.25 2.3 2.25 2.35 2.25 2.45 2.25 2.6 2.25 2.7 2.2 2.8 2.2 2.95 2.2 3.05 2.15 3.15 2.15 3.3 2.1 3.4 2.1 3.5 2.05 3.65 2.05 3.75 2.0 3.85 1.95 4.0 1.95 4.1 1.9 4.2 1.85 4.25 1.85 4.3 1.8 4.35 1.8 4.35 1.75 4.4 1.75 4.45 1.7 4.5 1.7 4.55 1.65 4.6 1.65 4.6 1.6 4.65 1.55 4.7 1.55 4.75 1.5 4.75 1.5 4.8 1.45 4.85 1.45 4.9 1.45 4.95 1.4 4.95 1.4 5.0 1.35 5.05 1.35 5.05 1.3 5.1 1.3 5.15 1.25 5.15 1.25 5.2 1.2 5.25 1.15 5.25 1.15 5.3 1.1 5.35 1.1 5.35 1.05 5.4 1.0 5.55 0.85 5.7 0.65 5.85 0.5 5.95 0.3 6.1 0.1 6.2 -0.05 6.3 -0.25 6.35 -0.45 6.45 -0.65 6.5 -0.9 6.6 -1.1 6.65 -1.3 6.7 -1.5 6.7 -1.75 6.75 -1.95 6.8 -2.2 6.8 -2.45 6.85 -2.75 6.85 -3.0 6.85 -3.25 6.85 -3.55 6.8 -3.8 6.8 -4.05 6.75 -4.35 6.7 -4.6 6.7 -4.85 6.65 -5.1 6.6 -5.4 6.55 -5.65 6.45 -5.9 6.4 -6.15 6.35 -6.4 6.25 -6.75 6.15 -7.05 6.05 -7.4 5.9 -7.75 5.8 -8.05 5.65 -8.4 5.55 -8.7 5.4 -9.0 5.25 -9.35 5.1 -9.65 4.95 -9.95 4.75 -10.25 4.6 -10.55 4.45 -10.9 4.25 -11.2 4.05 -11.5 4.0 -11.6 3.9 -11.7 3.85 -11.8 3.8 -11.9 3.75 -12.0 3.65 -12.1 3.6 -12.25 3.5 -12.35 3.45 -12.45 3.4 -12.55 3.3 -12.65 3.25 -12.75 3.15 -12.85 3.1 -12.95 3.0 -13.05 2.95 -13.15 2.85 -13.25 2.75 -13.4 2.7 -13.5 2.6 -13.65 2.5 -13.75 2.4 -13.85 2.3 -14.0 2.25 -14.1 2.15 -14.2 2.05 -14.35 1.95 -14.45 1.85 -14.55 1.75 -14.65 1.65 -14.8 1.55 -14.9 1.45 -15.0 0.3 -16.25 0.2 -16.35 -0.8 -17.25 -1.55 -17.85 -2.1 -18.3 -3.15 -19.0 -3.2 -19.05 -3.35 -19.15 -3.45 -19.2 -3.55 -19.3 -3.7 -19.35 -3.8 -19.45 -3.9 -19.5 -4.05 -19.55 -4.15 -19.6 -4.25 -19.7 -4.35 -19.75 -4.5 -19.8 -4.6 -19.85 -4.75 -19.95 -4.85 -20.0 -4.95 -20.05 -5.1 -20.1 -5.2 -20.15 -5.3 -20.2 -5.4 -20.25 -5.55 -20.3 -5.65 -20.35 -5.75 -20.4 -5.85 -20.45 -5.95 -20.5 -6.05 -20.5 -6.2 -20.55 -6.3 -20.6 -6.4 -20.65 -6.5 -20.65 -6.6 -20.7 -6.75 -20.75 -6.85 -20.75 -6.95 -20.8 -7.05 -20.8 -7.1 -20.85 -7.2 -20.85 -7.25 -20.9 -7.35 -20.9 -7.4 -20.9 -7.5 -20.95 -7.55 -20.95 -7.65 -20.95 -7.7 -21.0 -7.8 -21.0 -7.85 -21.0 -7.95 -21.0 -8.0 -21.0 -8.1 -21.05 -8.15 -21.05 -8.2 -21.05 -8.2 -21.05 -8.25 -21.05 -8.3 -21.1 -8.3 -21.1 -8.35 -21.1 -8.4 -21.1 -8.4 -21.1 -8.45 -21.1 -8.5 -21.1 -8.5 -21.1 -8.55 -21.1 -8.55 -21.1 -8.6 -21.1 -8.65 -21.1 -8.65 -21.1 -8.7 -21.1 -8.75 -21.1 -8.8 -21.15 -8.85 -21.15 -8.9 -21.15 -9.0 -21.15 -9.05 -21.15 -9.1 -21.15 -9.15 -21.15 -9.2 -21.15 -9.25 -21.15 -9.3 -21.15 -9.35 -21.15 -9.4 -21.15 -9.45 -21.15 -9.5 -21.1 -9.55 -21.15 -9.6 -21.1 -9.8 -21.1 -10.0 -21.1 -10.2 -21.05 -10.4 -21.05 -10.6 -21.0 -10.8 -20.95 -10.95 -20.9 -11.15 -20.8 -11.35 -20.75 -11.5 -20.65 -11.7 -20.6 -11.85 -20.45 -12.0 -20.35 -12.2 -20.25 -12.35 -20.1 -12.5 -20.0 -12.6 -19.9 -12.7 -19.8 -12.8 -19.7 -12.85 -19.6 -12.95 -19.5 -13.0 -19.4 -13.1 -19.25 -13.15 -19.15 -13.25 -19.05 -13.3 -18.9 -13.35 -18.8 -13.4 -18.7 -13.5 -18.55 -13.55 -18.45 -13.6 -18.3 -13.65 -18.15 -13.7 -18.05 -13.7 -17.9 -13.75 -17.8 -13.8 -17.7 -13.8 -17.55 -13.85 -17.45 -13.85 -17.3 -13.85 -17.2 -13.9 -17.05 -13.9 -16.95 -13.9 -16.8 -13.95 -16.7 -13.95 -16.55 -13.95 -16.45 -13.95 -16.3 -14.0 -16.2 -14.0 -15.9 -14.0 -15.6 -14.0 -15.35 -14.0 -15.05 -13.95 -14.8 -13.9 -14.5 -13.9 -14.2 -13.85 -13.95 -13.8 -13.65 -13.75 -13.4 -13.65 -13.1 -13.6 -12.85 -13.55 -12.55 -13.45 -12.3 -13.35 -12.0 -13.3 -11.75 -13.25 -11.55 -13.15 -11.35 -13.1 -11.2 -13.05 -11.0 -12.95 -10.8 -12.9 -10.65 -12.8 -10.45 -12.75 -10.25 -12.65 -10.1 -12.6 -9.9 -12.5 -9.75 -12.4 -9.55 -12.35 -9.4 -12.25 -9.2 -12.15 -9.05 -12.05 -8.85 -11.95 -8.65 -11.85 -8.5 -11.75 -8.3 -11.65 -8.1 -11.55 -7.95 -11.45 -7.75 -11.35 -7.6 -11.25 -7.4 -11.15 -7.2 -11.0 -7.05 -10.9 -6.85 -10.8 -6.7 -10.7 -6.5 -10.55 -6.35 -10.45 -6.2 -10.3 -6.0 -10.2 -5.85 -10.05 -5.65 -9.95 -5.5 -9.8 -5.35 -9.7 -5.15 -9.55 -5.0 -9.45 -4.85 -9.3 -4.7 -9.2 -4.5 -9.05 -4.35 -8.9 -4.2 -8.8 -4.05 -8.65 -3.9 -8.5 -3.75 -8.35 -3.6 -8.2 -3.45 -8.05 -3.3 -7.9 -3.1 -7.75 -2.95 -7.6 -2.8 -7.45 -2.65 -7.25 -2.5 -7.1 -2.35 -6.95 -2.2 -6.8 -2.05 -6.6 -1.9 -6.45 -1.75 -6.3 -1.6 -6.1 -1.45 -5.95 -1.3 -5.8 -1.15 -5.6 -1.0 -5.5 -0.9 -5.35 -0.8 -5.25 -0.75 -5.15 -0.65 -5.0 -0.55 -4.9 -0.5 -4.8 -0.4 -4.65 -0.3 -4.55 -0.25 -4.45 -0.15 -4.3 -0.05 -4.2 0.0 -4.05 0.1 -3.95 0.15 -3.8 0.25 -3.7 0.35 -2.65 0.95 -2.25 1.1 -2.2 1.15 -2.15 1.15 -2.15 1.2 -2.1 1.2 -2.05 1.2 -2.05 1.25 -2.0 1.25 -1.95 1.25 -1.7 1.4 -0.9 1.7 -0.75 1.75 -0.5 1.8 L-0.5 1.8" fill="#040404" fill-rule="evenodd" stroke="none"/>
    <path d="M-9.6 -21.1 Q-9.8 -21.1 -10.0 -21.1 -10.2 -21.05 -10.4 -21.05 -10.6 -21.0 -10.8 -20.95 -10.95 -20.9 -11.15 -20.8 -11.35 -20.75 -11.5 -20.65 -11.7 -20.6 -11.85 -20.45 -12.0 -20.35 -12.2 -20.25 -12.35 -20.1 -12.5 -20.0 -12.6 -19.9 -12.7 -19.8 -12.8 -19.7 -12.85 -19.6 -12.95 -19.5 -13.0 -19.4 -13.1 -19.25 -13.15 -19.15 -13.25 -19.05 -13.3 -18.9 -13.35 -18.8 -13.4 -18.7 -13.5 -18.55 -13.55 -18.45 -13.6 -18.3 -13.65 -18.15 -13.7 -18.05 -13.7 -17.9 -13.75 -17.8 -13.8 -17.7 -13.8 -17.55 -13.85 -17.45 -13.85 -17.3 -13.85 -17.2 -13.9 -17.05 -13.9 -16.95 -13.9 -16.8 -13.95 -16.7 -13.95 -16.55 -13.95 -16.45 -13.95 -16.3 -14.0 -16.2 -14.0 -15.9 -14.0 -15.6 -14.0 -15.35 -14.0 -15.05 -13.95 -14.8 -13.9 -14.5 -13.9 -14.2 -13.85 -13.95 -13.8 -13.65 -13.75 -13.4 -13.65 -13.1 -13.6 -12.85 -13.55 -12.55 -13.45 -12.3 -13.35 -12.0 -13.3 -11.75 -13.25 -11.55 -13.15 -11.35 -13.1 -11.2 -13.05 -11.0 -12.95 -10.8 -12.9 -10.65 -12.8 -10.45 -12.75 -10.25 -12.65 -10.1 -12.6 -9.9 -12.5 -9.75 -12.4 -9.55 -12.35 -9.4 -12.25 -9.2 -12.15 -9.05 -12.05 -8.85 -11.95 -8.65 -11.85 -8.5 -11.75 -8.3 -11.65 -8.1 -11.55 -7.95 -11.45 -7.75 -11.35 -7.6 -11.25 -7.4 -11.15 -7.2 -11.0 -7.05 -10.9 -6.85 -10.8 -6.7 -10.7 -6.5 -10.55 -6.35 -10.45 -6.2 -10.3 -6.0 -10.2 -5.85 -10.05 -5.65 -9.95 -5.5 -9.8 -5.35 -9.7 -5.15 -9.55 -5.0 -9.45 -4.85 -9.3 -4.7 -9.2 -4.5 -9.05 -4.35 -8.9 -4.2 -8.8 -4.05 -8.65 -3.9 -8.5 -3.75 -8.35 -3.6 -8.2 -3.45 -8.05 -3.3 -7.9 -3.1 -7.75 -2.95 -7.6 -2.8 -7.45 -2.65 -7.25 -2.5 -7.1 -2.35 -6.95 -2.2 -6.8 -2.05 -6.6 -1.9 -6.45 -1.75 -6.3 -1.6 -6.1 -1.45 -5.95 -1.3 -5.8 -1.15 -5.6 -1.0 -5.5 -0.9 -5.35 -0.8 -5.25 -0.75 -5.15 -0.65 -5.0 -0.55 -4.9 -0.5 -4.8 -0.4 -4.65 -0.3 -4.55 -0.25 -4.45 -0.15 -4.3 -0.05 -4.2 0.0 -4.05 0.1 -3.95 0.15 -3.8 0.25 -3.7 0.35 -2.65 0.95 -2.25 1.1 -2.25 1.05 -2.25 1.0 -2.25 0.95 -2.25 0.9 -2.25 0.9 -2.3 0.85 -2.3 0.75 -2.3 0.75 -2.65 -0.25 -3.25 -2.1 -3.9 -4.05 -4.2 -4.9 -4.75 -6.45 -5.6 -9.05 -6.6 -12.05 -7.0 -13.15 -9.2 -19.85 -9.5 -20.75 -9.5 -20.8 -9.55 -20.85 -9.55 -20.9 -9.55 -20.95 -9.6 -20.95 -9.6 -21.0 -9.6 -21.05 -9.6 -21.1 L-9.6 -21.1" fill="#000000" fill-opacity="0.18039216" fill-rule="evenodd" stroke="none"/>
    <path d="M4.85 1.45 Q4.9 1.45 4.95 1.4 4.95 1.4 5.0 1.35 5.05 1.35 5.05 1.3 5.1 1.3 5.15 1.25 5.15 1.25 5.2 1.2 5.25 1.15 5.25 1.15 5.3 1.1 5.35 1.1 5.35 1.05 5.4 1.0 5.55 0.85 5.7 0.65 5.85 0.5 5.95 0.3 6.1 0.1 6.2 -0.05 6.3 -0.25 6.35 -0.45 6.45 -0.65 6.5 -0.9 6.6 -1.1 6.65 -1.3 6.7 -1.5 6.7 -1.75 6.75 -1.95 6.8 -2.2 6.8 -2.45 6.85 -2.75 6.85 -3.0 6.85 -3.25 6.85 -3.55 6.8 -3.8 6.8 -4.05 6.75 -4.35 6.7 -4.6 6.7 -4.85 6.65 -5.1 6.6 -5.4 6.55 -5.65 6.45 -5.9 6.4 -6.15 6.35 -6.4 6.25 -6.75 6.15 -7.05 6.05 -7.4 5.9 -7.75 5.8 -8.05 5.65 -8.4 5.55 -8.7 5.4 -9.0 5.25 -9.35 5.1 -9.65 4.95 -9.95 4.75 -10.25 4.6 -10.55 4.45 -10.9 4.25 -11.2 4.05 -11.5 4.0 -11.6 3.9 -11.7 3.85 -11.8 3.8 -11.9 3.75 -12.0 3.65 -12.1 3.6 -12.25 3.5 -12.35 3.45 -12.45 3.4 -12.55 3.3 -12.65 3.25 -12.75 3.15 -12.85 3.1 -12.95 3.0 -13.05 2.95 -13.15 2.85 -13.25 2.75 -13.4 2.7 -13.5 2.6 -13.65 2.5 -13.75 2.4 -13.85 2.3 -14.0 2.25 -14.1 2.15 -14.2 2.05 -14.35 1.95 -14.45 1.85 -14.55 1.75 -14.65 1.65 -14.8 1.55 -14.9 1.45 -15.0 0.3 -16.25 0.2 -16.35 -0.8 -17.25 -1.55 -17.85 -2.1 -18.3 -3.15 -19.0 -3.2 -19.05 -3.35 -19.15 -3.35 -19.1 -3.35 -19.05 -3.35 -19.0 -3.35 -18.95 -3.35 -18.9 -3.35 -18.9 -3.3 -18.85 -3.3 -18.8 -3.25 -18.75 -3.25 -18.7 -3.1 -18.35 -2.85 -17.75 -2.55 -17.0 -2.45 -16.75 -1.55 -14.5 -0.6 -12.05 0.0 -10.6 0.9 -8.3 1.5 -6.9 2.65 -3.95 3.0 -3.1 4.15 -0.2 4.45 0.45 4.85 1.45 L4.85 1.45" fill="#000000" fill-opacity="0.18039216" fill-rule="evenodd" stroke="none"/>
    <path d="M2.15 2.25 Q2.15 2.2 2.15 2.15 2.15 2.1 2.15 2.1 2.15 2.05 2.1 2.0 2.1 1.95 2.1 1.95 2.05 1.85 2.05 1.85 1.0 -0.8 -0.5 -4.45 -0.95 -5.6 -2.3 -8.95 -2.4 -9.2 -2.5 -9.45 -2.6 -9.7 -2.7 -9.9 -2.8 -10.15 -2.85 -10.4 -2.95 -10.65 -3.05 -10.9 -3.15 -11.15 -3.25 -11.4 -3.35 -11.6 -3.45 -11.85 -3.55 -12.1 -3.65 -12.35 -3.75 -12.6 -3.85 -12.8 -4.25 -13.85 -5.3 -16.45 -6.2 -18.75 -6.9 -20.5 -6.95 -20.55 -6.95 -20.6 -6.95 -20.65 -6.95 -20.7 -6.95 -20.75 -6.95 -20.8 -7.05 -20.8 -7.1 -20.85 -7.2 -20.85 -7.25 -20.9 -7.35 -20.9 -7.4 -20.9 -7.5 -20.95 -7.55 -20.95 -7.65 -20.95 -7.7 -21.0 -7.8 -21.0 -7.85 -21.0 -7.95 -21.0 -8.0 -21.0 -8.1 -21.05 -8.15 -21.05 -7.8 -19.95 -7.05 -17.85 -6.65 -16.55 -5.75 -14.0 -5.55 -13.4 -5.05 -12.0 -4.65 -10.75 -4.4 -10.05 -4.1 -9.25 -3.0 -6.05 -2.65 -5.0 -1.75 -2.4 -1.4 -1.3 -0.75 0.55 -0.6 1.05 -0.4 1.6 -0.4 1.65 -0.35 1.7 -0.35 1.7 -0.35 1.75 -0.35 1.75 -0.4 1.8 -0.4 1.8 -0.5 1.8 -0.45 1.85 -0.35 1.85 -0.25 1.9 -0.2 1.9 -0.1 1.95 -0.05 1.95 0.05 2.0 0.1 2.0 0.2 2.0 0.25 2.05 0.35 2.05 0.4 2.05 0.5 2.1 0.55 2.1 0.6 2.1 0.7 2.15 0.95 2.2 1.35 2.2 1.8 2.25 1.95 2.25 1.95 2.25 2.15 2.25 L2.15 2.25" fill="#000000" fill-opacity="0.18039216" fill-rule="evenodd" stroke="none"/>
    <path d="M-1.95 1.25 Q-1.7 1.4 -0.9 1.7 -0.9 1.65 -0.95 1.5 -1.05 1.15 -1.3 0.55 -1.5 -0.1 -1.6 -0.4 -1.9 -1.2 -2.95 -4.3 -3.2 -5.05 -3.6 -6.25 -4.2 -7.9 -4.3 -8.2 -4.75 -9.5 -5.6 -12.05 -6.15 -13.6 -6.95 -16.0 -7.65 -18.0 -8.55 -20.6 -8.65 -21.1 -8.65 -21.1 -8.7 -21.1 -8.75 -21.1 -8.8 -21.15 -8.85 -21.15 -8.9 -21.15 -9.0 -21.15 -9.05 -21.15 -9.1 -21.15 -9.15 -21.15 -9.2 -21.15 -9.25 -21.15 -9.3 -21.15 -9.35 -21.15 -9.4 -21.15 -9.45 -21.15 -9.5 -21.1 -9.4 -21.1 -9.4 -21.0 -9.35 -20.95 -9.3 -20.85 -9.0 -19.9 -8.45 -18.2 -7.95 -16.75 -7.0 -14.0 -6.05 -11.15 -5.6 -9.8 -5.4 -9.3 -5.15 -8.45 -4.8 -7.4 -4.7 -7.15 -3.95 -4.8 -2.0 0.85 -1.95 1.25 -1.95 1.25 L-1.95 1.25" fill="#000000" fill-opacity="0.18039216" fill-rule="evenodd" stroke="none"/>
    <path d="M2.35 2.25 Q2.25 2.2 2.2 2.25 2.2 2.25 2.25 2.25 2.3 2.25 2.35 2.25 L2.35 2.25" fill="#dcdcdc" fill-rule="evenodd" stroke="none"/>
  </g>
</svg>
