<?xml version="1.0" encoding="UTF-8" standalone="no"?>
<svg xmlns:xlink="http://www.w3.org/1999/xlink" height="128.45px" width="103.05px" xmlns="http://www.w3.org/2000/svg">
  <g transform="matrix(1.0, 0.0, 0.0, 1.0, 51.5, 64.25)">
    <path d="M-8.3 33.0 Q-10.35 40.2 -10.75 42.4 -10.8 42.7 -11.0 45.1 -11.05 45.45 -11.1 45.75 -11.15 46.05 -11.25 46.3 -11.3 46.55 -11.45 46.75 -11.55 46.95 -11.7 47.1 -11.9 47.3 -12.1 47.4 -12.3 47.55 -12.55 47.6 -12.8 47.7 -13.1 47.75 -13.4 47.8 -13.75 47.85 -17.15 48.05 -19.75 48.05 -21.3 48.05 -22.85 48.0 -24.4 47.95 -25.95 47.8 -27.45 47.65 -29.0 47.45 -30.5 47.25 -32.0 46.95 -33.5 46.7 -35.0 46.35 -36.5 46.0 -38.0 45.55 -39.45 45.15 -40.95 44.7 -42.4 44.2 -43.9 43.7 -44.25 43.55 -44.6 43.4 -44.95 43.25 -45.25 43.1 -45.6 42.95 -45.95 42.75 -46.25 42.55 -46.55 42.35 -46.85 42.15 -47.15 41.95 -47.45 41.75 -47.75 41.5 -48.05 41.3 -48.35 41.05 -48.6 40.8 -48.9 40.5 -49.05 40.35 -49.2 40.2 -49.35 40.0 -49.45 39.85 -49.55 39.7 -49.65 39.5 -49.75 39.3 -49.8 39.15 -49.9 38.95 -49.95 38.75 -49.95 38.5 -50.0 38.3 -50.0 38.05 -49.95 37.85 -49.95 37.6 -49.9 37.3 -49.7 36.4 -49.5 35.35 -49.4 34.55 -49.2 33.4 -48.85 31.4 -48.85 31.4 -48.65 30.3 -48.5 29.45 -48.3 28.4 -48.1 27.5 -47.9 26.45 -47.65 25.55 -47.4 24.55 -47.1 23.65 -46.75 22.65 -46.4 21.75 -46.0 20.75 -44.95 18.8 -44.9 18.7 -44.9 18.65 -44.85 18.6 -44.85 18.55 -44.85 18.5 -44.8 18.45 -44.8 18.4 -44.8 18.35 -44.85 18.3 -44.85 18.25 -44.9 18.2 -44.9 18.15 -44.95 18.1 -45.0 18.05 -45.1 18.0 -45.15 17.95 -45.3 17.85 -45.45 17.75 -45.55 17.65 -45.7 17.55 -45.85 17.45 -45.95 17.35 -46.1 17.25 -46.25 17.1 -46.35 17.0 -46.5 16.9 -46.6 16.8 -46.75 16.65 -46.85 16.55 -46.95 16.4 -47.1 16.3 -47.2 16.15 -47.35 15.95 -47.5 15.8 -47.65 15.6 -47.8 15.4 -47.95 15.2 -48.05 15.0 -48.2 14.75 -48.3 14.55 -48.4 14.35 -48.45 14.1 -48.55 13.85 -48.6 13.65 -48.65 13.4 -48.65 13.15 -48.7 12.9 -48.7 12.65 -48.7 12.6 -48.7 12.6 -48.7 12.55 -48.7 12.5 -48.75 11.85 -48.75 11.2 -48.8 10.55 -48.8 9.9 -48.8 9.25 -48.8 8.6 -48.75 8.0 -48.7 7.35 -48.7 6.7 -48.6 6.05 -48.55 5.4 -48.5 4.75 -48.4 4.1 -48.3 3.45 -48.25 2.8 -48.1 2.15 -48.0 1.35 -47.9 0.55 -47.8 -0.25 -47.75 -1.1 -47.65 -1.9 -47.65 -2.7 -47.6 -3.5 -47.55 -4.35 -47.55 -5.15 -47.55 -6.0 -47.55 -6.75 -47.55 -7.65 -47.55 -8.3 -47.55 -9.25 -47.6 -10.95 -47.6 -10.9 -47.6 -11.3 -47.6 -11.8 -47.6 -11.55 -47.65 -12.65 -47.65 -13.2 -47.65 -13.55 -47.65 -14.05 -47.65 -14.45 -47.65 -14.9 -47.65 -15.3 -47.6 -15.8 -47.6 -16.2 -47.55 -16.65 -47.55 -17.1 -47.5 -17.55 -47.4 -18.0 -47.35 -18.4 -47.3 -18.85 -47.25 -19.2 -47.2 -19.7 -47.35 -18.05 -47.15 -20.55 -47.1 -21.05 -47.1 -21.4 -47.05 -21.85 -47.0 -22.25 -46.9 -22.7 -46.85 -23.1 -46.75 -23.55 -46.65 -23.95 -46.55 -24.35 -46.45 -24.75 -46.2 -25.45 -46.05 -25.9 -45.8 -26.55 -45.6 -27.05 -45.4 -27.7 -45.15 -28.2 -44.9 -28.8 -44.65 -29.35 -44.35 -29.9 -44.05 -30.4 -43.7 -30.95 -43.35 -31.45 -43.0 -31.95 -42.6 -32.4 -42.15 -32.9 -41.7 -33.3 -41.35 -33.65 -40.8 -34.25 -40.15 -34.9 -39.85 -35.15 -39.8 -35.2 -39.7 -35.3 -39.55 -35.45 -39.5 -35.5 -39.45 -35.6 -39.35 -35.65 -39.3 -35.75 -39.25 -35.85 -39.15 -35.95 -39.15 -36.05 -39.1 -36.15 -39.1 -36.25 -39.05 -36.4 -39.05 -36.55 -39.1 -36.7 -39.15 -36.85 -39.15 -36.95 -39.15 -37.05 -39.15 -37.15 -39.1 -37.25 -39.1 -37.3 -39.05 -37.4 -39.0 -37.5 -38.9 -37.6 -38.85 -37.7 -38.75 -37.8 -38.7 -37.9 -38.6 -38.0 -38.55 -38.05 -38.45 -38.15 -38.3 -38.3 -38.25 -38.35 -37.65 -39.05 -36.95 -39.7 -36.3 -40.3 -35.6 -40.9 -34.9 -41.5 -34.2 -42.05 -33.45 -42.6 -32.7 -43.15 -31.95 -43.65 -31.2 -44.15 -30.45 -44.65 -29.6 -45.15 -28.85 -45.6 -28.05 -46.05 -27.3 -46.5 -26.4 -46.95 -26.25 -47.05 -26.1 -47.1 -25.95 -47.15 -25.8 -47.15 -25.65 -47.15 -25.5 -47.15 -25.4 -47.1 -25.25 -47.05 -25.15 -47.0 -25.0 -46.95 -24.9 -46.9 -24.8 -46.8 -24.7 -46.7 -24.6 -46.6 -24.5 -46.55 -24.45 -46.45 -23.9 -45.8 -23.25 -45.2 -22.7 -44.6 -22.0 -44.05 -21.4 -43.5 -20.7 -42.95 -20.05 -42.45 -19.35 -41.9 -18.75 -41.45 -17.95 -40.95 -17.4 -40.55 -16.55 -39.95 -15.35 -39.15 -15.15 -39.0 -14.35 -38.45 -13.75 -38.05 -13.55 -37.9 -13.4 -37.75 -13.2 -37.6 -13.05 -37.4 -12.9 -37.25 -12.75 -37.05 -12.65 -36.85 -12.5 -36.65 -12.35 -36.45 -12.2 -36.2 -12.3 -36.35 -11.95 -35.8 -11.8 -35.55 -11.7 -35.4 -11.55 -35.15 -11.4 -34.95 -11.25 -35.35 -11.05 -35.7 -10.9 -36.05 -10.7 -36.4 -10.5 -36.75 -10.25 -37.05 -10.05 -37.4 -9.8 -37.7 -9.6 -38.0 -9.35 -38.25 -9.05 -38.55 -8.8 -38.85 -8.5 -39.1 -8.2 -39.35 -7.9 -39.6 -7.6 -39.85 -7.45 -39.95 -7.3 -40.1 -7.15 -40.2 -7.0 -40.35 -6.85 -40.5 -6.7 -40.65 -6.55 -40.8 -6.45 -40.95 -6.3 -41.1 -6.2 -41.3 -6.1 -41.45 -5.95 -41.65 -5.85 -41.8 -5.75 -42.0 -5.65 -42.15 -5.55 -42.35 -5.35 -42.75 -5.15 -43.05 -4.9 -43.35 -4.65 -43.55 -4.4 -43.75 -4.1 -43.9 -3.85 -44.0 -3.55 -44.05 -3.3 -44.1 -3.0 -44.05 -2.7 -44.0 -2.45 -43.85 -2.15 -43.7 -1.9 -43.45 -1.6 -43.2 -1.35 -42.85 1.1 -39.7 1.75 -38.45 1.8 -38.35 1.85 -38.25 1.95 -38.15 2.0 -38.05 2.05 -37.95 2.15 -37.9 2.2 -37.8 2.3 -37.75 2.35 -37.7 2.45 -37.65 2.55 -37.6 2.65 -37.55 2.75 -37.5 2.85 -37.5 2.95 -37.45 3.1 -37.45 3.15 -37.45 3.2 -37.45 3.25 -37.45 3.25 -37.45 3.3 -37.4 3.35 -37.4 3.4 -37.4 3.45 -37.4 3.5 -37.35 3.5 -37.35 3.55 -37.35 3.6 -37.3 3.65 -37.3 3.65 -37.3 3.7 -37.25 3.7 -37.25 3.95 -37.0 4.15 -36.85 4.35 -36.7 4.6 -36.6 4.8 -36.55 5.0 -36.55 5.15 -36.6 5.35 -36.65 5.55 -36.7 5.75 -36.85 5.9 -36.95 6.1 -37.1 6.2 -37.2 6.45 -37.35 6.7 -37.55 6.8 -37.65 7.2 -38.0 7.65 -38.3 8.1 -38.6 8.55 -38.9 8.95 -39.2 9.4 -39.5 9.85 -39.75 10.35 -40.05 10.8 -40.3 11.25 -40.55 11.7 -40.8 12.2 -41.1 12.65 -41.3 13.15 -41.55 13.6 -41.8 14.1 -42.05 14.7 -42.35 15.3 -42.55 15.9 -42.75 16.5 -42.85 17.1 -42.95 17.7 -42.95 18.3 -43.0 18.9 -42.95 19.5 -42.9 20.1 -42.75 20.65 -42.65 21.25 -42.45 21.85 -42.25 22.4 -42.0 23.0 -41.75 23.6 -41.45 24.45 -41.05 25.3 -40.6 26.15 -40.15 26.95 -39.65 27.8 -39.2 28.6 -38.7 29.4 -38.2 30.2 -37.65 31.0 -37.15 31.75 -36.55 32.55 -36.05 33.3 -35.45 34.05 -34.9 34.8 -34.3 35.55 -33.7 36.3 -33.1 41.55 -28.65 42.25 -27.95 43.05 -27.15 43.8 -26.4 44.5 -25.55 45.15 -24.75 45.85 -23.9 46.4 -23.0 47.0 -22.1 47.5 -21.2 48.0 -20.25 48.4 -19.3 48.8 -18.3 49.15 -17.3 49.45 -16.25 49.65 -15.2 49.9 -14.1 50.0 -13.0 50.05 -12.55 50.05 -12.15 50.0 -11.7 49.9 -11.3 49.85 -10.9 49.7 -10.55 49.55 -10.15 49.35 -9.85 49.1 -9.5 48.85 -9.15 48.55 -8.85 48.25 -8.55 47.9 -8.25 47.5 -8.0 47.15 -7.75 46.7 -7.5 45.95 -7.1 45.1 -6.7 44.35 -6.35 43.5 -6.0 42.7 -5.65 41.85 -5.35 41.1 -5.05 40.2 -4.7 39.45 -4.45 38.55 -4.15 37.8 -3.9 36.9 -3.55 36.35 -3.4 35.2 -3.0 34.1 -2.65 33.55 -2.45 33.5 -2.45 33.45 -2.45 33.45 -2.45 33.4 -2.45 33.35 -2.4 33.3 -2.4 33.0 -2.3 32.7 -2.25 32.4 -2.15 32.15 -2.0 31.9 -1.9 31.7 -1.75 31.45 -1.6 31.25 -1.45 31.05 -1.25 30.9 -1.05 30.7 -0.8 30.6 -0.55 30.5 -0.3 30.4 0.05 30.3 0.35 30.3 0.75 30.3 1.0 30.25 1.3 30.2 1.55 30.1 1.8 30.05 2.05 29.95 2.3 29.8 2.55 29.7 2.8 29.55 3.05 29.4 3.3 29.25 3.5 29.1 3.75 28.95 3.95 28.75 4.15 28.55 4.4 28.3 4.6 28.25 4.65 28.2 4.7 28.15 4.75 28.15 4.8 28.1 4.85 28.05 4.9 28.05 4.95 28.05 5.0 28.05 5.05 28.05 5.1 28.05 5.15 28.05 5.2 28.05 5.25 28.1 5.3 28.15 5.4 28.2 5.45 28.75 6.2 29.25 7.0 29.75 7.75 30.2 8.55 30.65 9.35 31.1 10.2 31.5 10.95 31.95 11.85 32.3 12.6 32.7 13.55 33.0 14.2 33.5 15.2 34.1 16.6 34.25 16.9 34.7 17.85 35.05 18.6 35.3 19.2 35.7 20.1 36.25 21.5 36.3 21.6 36.45 21.9 36.5 22.25 36.55 22.55 36.6 22.85 36.6 23.15 36.55 23.45 36.5 23.75 36.4 24.0 36.35 24.3 36.2 24.55 36.1 24.8 35.9 25.05 35.75 25.3 35.55 25.55 35.4 25.8 35.15 26.0 34.7 26.45 34.25 26.9 33.8 27.3 33.3 27.7 32.85 28.1 32.35 28.45 31.85 28.8 31.3 29.1 30.8 29.4 30.25 29.7 29.7 30.0 29.1 30.25 28.6 30.55 28.0 30.8 27.45 31.0 26.85 31.25 25.2 31.85 23.85 32.3 23.75 32.3 23.7 32.35 23.65 32.4 23.6 32.4 23.5 32.45 23.5 32.5 23.45 32.5 23.4 32.55 23.4 32.6 23.35 32.65 23.35 32.7 23.35 32.8 23.35 32.85 23.35 32.95 23.35 33.0 23.4 33.1 23.5 33.4 23.55 33.7 23.65 33.95 23.7 34.25 23.75 34.55 23.8 34.85 23.85 35.15 23.9 35.45 23.95 35.65 24.0 36.05 24.1 36.45 24.1 36.65 24.15 37.0 24.2 37.25 24.25 37.6 24.35 37.85 24.4 38.1 24.4 38.35 24.45 38.6 24.4 38.8 24.4 39.05 24.35 39.25 24.3 39.45 24.25 39.65 24.15 39.85 24.05 40.05 23.95 40.2 23.8 40.35 23.65 40.55 23.45 40.7 23.3 40.85 23.05 40.95 22.7 41.2 22.35 41.4 22.0 41.6 21.65 41.8 21.25 42.0 20.9 42.2 20.55 42.4 20.15 42.6 19.8 42.8 19.4 42.95 19.05 43.15 18.65 43.3 18.25 43.5 17.9 43.65 17.5 43.8 17.1 43.95 16.05 44.35 15.05 44.7 14.0 45.05 13.0 45.35 11.95 45.7 10.95 45.95 9.85 46.2 8.85 46.4 7.75 46.6 6.75 46.7 5.65 46.85 4.6 46.9 3.5 46.95 2.4 46.9 1.3 46.9 0.25 46.75 -0.15 46.7 -0.45 46.65 -0.75 46.55 -1.05 46.45 -1.3 46.35 -1.5 46.2 -1.7 46.05 -1.85 45.9 -2.0 45.7 -2.1 45.45 -2.2 45.25 -2.25 44.95 -2.3 44.7 -2.3 44.35 -2.3 44.05 -2.25 43.65 -2.15 43.05 -2.15 42.45 -2.1 41.9 -2.15 41.3 -2.15 40.75 -2.2 40.15 -2.25 39.6 -2.35 39.0 -2.45 38.45 -2.55 37.85 -2.7 37.3 -2.85 36.7 -2.95 36.2 -3.15 35.6 -3.3 35.05 -3.45 34.45 -3.5 34.35 -3.5 34.3 -3.55 34.25 -3.6 34.2 -3.65 34.15 -3.7 34.1 -3.7 34.05 -3.8 34.0 -3.85 34.0 -3.9 33.95 -3.95 33.9 -4.0 33.9 -4.05 33.9 -4.15 33.85 -4.2 33.85 -4.3 33.85 -5.05 33.7 -6.3 33.45 -7.85 33.1 -8.3 33.0 L-8.3 33.0 M16.05 1.2 Q16.05 1.15 16.05 1.05 16.05 1.05 15.95 1.1 16.0 1.1 16.05 1.15 16.05 1.15 16.1 1.2 16.15 1.85 16.25 3.0 16.4 4.25 16.45 4.8 16.45 4.85 16.45 4.9 16.45 4.95 16.5 5.0 16.5 5.05 16.5 5.1 16.55 5.15 16.55 5.2 16.55 5.25 16.6 5.3 16.65 5.35 16.7 5.35 16.7 5.4 16.75 5.45 16.8 5.5 16.85 5.5 17.05 5.6 17.25 5.65 17.45 5.75 17.65 5.8 17.8 5.9 18.0 5.95 18.2 6.0 18.4 6.0 18.6 6.05 18.8 6.1 19.0 6.1 19.2 6.1 19.45 6.15 19.65 6.15 19.85 6.15 20.05 6.15 20.1 6.15 20.1 6.15 20.15 6.15 20.2 6.1 20.25 6.1 20.25 6.1 20.3 6.1 20.3 6.05 20.35 6.05 20.4 6.05 20.4 6.0 20.45 6.0 20.45 5.95 20.45 5.95 20.5 5.9 20.5 5.85 20.55 5.7 20.6 5.5 20.65 5.35 20.7 5.2 20.75 5.0 20.8 4.85 20.85 4.65 20.85 4.5 20.85 4.3 20.9 4.15 20.9 3.95 20.9 3.8 20.9 3.6 20.85 3.45 20.85 3.25 20.8 3.1 20.8 3.0 20.75 2.9 20.7 2.85 20.6 2.8 20.55 2.75 20.45 2.7 20.35 2.7 20.25 2.7 20.15 2.7 20.0 2.65 19.85 2.65 19.8 2.65 19.65 2.65 19.55 2.65 19.45 2.6 19.35 2.6 18.05 2.05 17.3 1.7 17.25 1.65 17.15 1.65 17.1 1.6 17.0 1.55 17.05 1.55 16.85 1.45 16.8 1.4 16.75 1.35 16.65 1.3 16.6 1.25 16.5 1.2 16.45 1.2 16.35 1.2 16.25 1.2 16.15 1.2 16.05 1.2 L16.05 1.2 M17.0 -40.4 Q16.25 -40.2 15.5 -39.95 14.8 -39.7 14.1 -39.4 13.4 -39.15 12.75 -38.8 12.05 -38.45 11.4 -38.05 10.75 -37.7 10.15 -37.3 9.5 -36.85 8.9 -36.4 8.3 -35.95 7.75 -35.45 7.15 -35.0 6.6 -34.45 5.7 -33.6 4.8 -32.65 3.9 -31.7 3.05 -30.75 2.25 -29.8 1.45 -28.75 0.7 -27.8 -0.05 -26.7 -0.75 -25.7 -1.5 -24.6 -2.2 -23.6 -2.9 -22.45 -3.55 -21.45 -4.25 -20.3 -4.85 -19.25 -5.55 -18.1 -6.0 -17.35 -6.55 -16.1 -7.4 -14.1 -7.45 -14.0 -6.9 -14.05 -5.95 -14.15 -5.05 -14.25 -4.6 -14.3 -3.85 -14.35 -3.6 -14.4 -3.05 -14.45 -2.6 -14.5 -2.05 -14.5 -1.6 -14.5 -1.1 -14.5 -0.6 -14.5 -0.1 -14.45 0.35 -14.4 0.9 -14.35 1.35 -14.2 1.85 -14.1 2.3 -13.9 2.8 -13.7 3.25 -13.45 3.35 -13.4 3.4 -13.4 3.45 -13.35 3.5 -13.35 3.55 -13.3 3.6 -13.3 3.65 -13.35 3.7 -13.35 3.75 -13.35 3.75 -13.4 3.8 -13.45 3.8 -13.5 3.85 -13.55 3.85 -13.6 3.9 -13.65 3.9 -13.75 3.95 -13.95 4.05 -14.1 4.1 -14.25 4.2 -14.45 4.3 -14.6 4.4 -14.75 4.5 -14.9 4.6 -15.05 4.75 -15.15 4.85 -15.3 5.0 -15.45 5.1 -15.55 5.25 -15.7 5.4 -15.8 5.5 -15.95 5.65 -16.05 5.9 -16.25 6.2 -16.5 6.5 -16.7 6.75 -16.9 7.05 -17.1 7.35 -17.3 7.6 -17.5 7.9 -17.65 8.2 -17.85 8.5 -18.0 8.8 -18.2 9.1 -18.35 9.4 -18.5 9.75 -18.7 10.05 -18.85 10.35 -19.0 10.7 -19.15 11.05 -19.3 11.35 -19.4 11.7 -19.5 12.05 -19.6 12.4 -19.65 12.75 -19.75 13.1 -19.75 13.45 -19.8 13.8 -19.8 14.15 -19.8 14.55 -19.75 14.9 -19.7 15.25 -19.65 15.6 -19.6 15.95 -19.5 16.6 -19.35 17.2 -19.1 17.75 -18.9 18.3 -18.6 18.85 -18.35 19.35 -18.0 19.85 -17.65 20.3 -17.25 20.75 -16.85 21.15 -16.45 21.55 -16.0 21.95 -15.5 22.3 -15.05 22.65 -14.5 23.0 -14.0 23.35 -13.45 23.65 -12.9 24.05 -12.25 24.3 -11.75 24.7 -11.05 25.45 -9.65 25.35 -9.8 25.75 -9.15 26.0 -8.6 26.4 -7.95 26.7 -7.4 27.1 -6.8 27.45 -6.25 27.85 -5.65 28.25 -5.1 28.65 -4.55 29.1 -4.0 29.2 -3.9 29.25 -3.85 29.3 -3.8 29.35 -3.75 29.4 -3.65 29.45 -3.65 29.55 -3.6 29.6 -3.55 29.65 -3.55 29.7 -3.55 29.8 -3.55 29.85 -3.55 29.95 -3.55 30.05 -3.6 30.15 -3.65 30.25 -3.7 30.9 -4.05 34.25 -5.2 34.9 -5.4 35.7 -5.7 35.95 -5.8 37.15 -6.2 38.05 -6.5 38.6 -6.7 39.4 -6.95 40.05 -7.2 40.8 -7.5 41.5 -7.75 42.2 -8.05 42.9 -8.3 43.65 -8.65 44.3 -8.95 45.0 -9.3 45.65 -9.65 45.9 -9.8 46.15 -9.95 46.35 -10.1 46.55 -10.3 46.75 -10.45 46.9 -10.65 47.05 -10.85 47.15 -11.05 47.25 -11.25 47.35 -11.5 47.4 -11.7 47.45 -11.95 47.5 -12.2 47.5 -12.5 47.5 -12.75 47.5 -13.05 47.45 -13.25 47.4 -13.6 47.35 -14.0 47.3 -14.2 47.25 -14.6 47.15 -15.0 47.1 -15.4 47.0 -15.8 46.9 -16.2 46.8 -16.55 46.7 -16.95 46.6 -17.35 46.5 -17.75 46.35 -18.1 46.2 -18.5 46.05 -18.85 45.9 -19.25 45.7 -19.6 45.55 -19.95 45.35 -20.35 45.0 -20.95 44.6 -21.55 44.25 -22.1 43.8 -22.7 43.4 -23.25 42.95 -23.8 42.5 -24.3 42.05 -24.8 41.55 -25.3 41.05 -25.85 40.6 -26.3 40.05 -26.8 39.6 -27.25 39.05 -27.75 38.55 -28.2 38.0 -28.65 36.95 -29.55 36.1 -30.25 35.1 -31.1 34.2 -31.8 33.2 -32.65 32.25 -33.35 31.2 -34.1 30.25 -34.8 29.2 -35.55 28.2 -36.2 27.15 -36.85 26.1 -37.45 25.05 -38.1 23.95 -38.65 22.8 -39.2 21.7 -39.7 21.4 -39.85 21.1 -39.95 20.85 -40.05 20.55 -40.15 20.25 -40.2 19.95 -40.3 19.65 -40.35 19.35 -40.4 19.1 -40.45 18.8 -40.45 18.5 -40.5 18.2 -40.5 17.9 -40.5 17.6 -40.45 17.3 -40.45 17.0 -40.4 L17.0 -40.4 M-33.35 -4.5 Q-32.9 -5.0 -32.45 -5.45 -31.95 -5.9 -31.45 -6.3 -30.95 -6.7 -30.35 -7.05 -29.85 -7.35 -29.25 -7.7 -28.7 -8.0 -28.1 -8.25 -27.55 -8.55 -26.9 -8.8 -26.45 -9.05 -25.7 -9.35 -24.35 -9.9 -24.5 -9.85 -24.45 -9.85 -24.45 -9.9 -24.4 -9.9 -24.35 -9.9 -24.3 -9.95 -24.25 -9.95 -24.25 -9.95 -24.2 -9.95 -24.1 -10.0 -24.05 -10.05 -23.95 -10.05 -23.9 -10.1 -23.8 -10.15 -23.75 -10.2 -23.7 -10.25 -23.7 -10.35 -23.65 -10.4 -23.6 -10.45 -23.6 -10.55 -23.55 -10.6 -23.55 -10.7 -23.55 -10.8 -23.55 -10.9 -23.55 -11.0 -23.65 -14.45 -23.8 -21.15 -23.8 -21.25 -23.8 -21.3 -23.8 -21.4 -23.85 -21.45 -23.85 -21.5 -23.85 -21.6 -23.85 -21.65 -23.9 -21.75 -23.9 -21.8 -23.9 -21.85 -23.95 -21.95 -23.95 -22.0 -23.95 -22.05 -24.0 -22.15 -24.0 -22.2 -24.05 -22.25 -24.55 -23.3 -25.15 -24.3 -25.75 -25.3 -26.45 -26.15 -27.1 -27.05 -27.9 -27.85 -28.65 -28.65 -29.45 -29.35 -30.3 -30.05 -31.2 -30.7 -32.1 -31.3 -33.1 -31.85 -34.05 -32.4 -35.1 -32.85 -36.15 -33.3 -37.25 -33.7 -37.3 -33.7 -37.35 -33.75 -37.4 -33.8 -37.45 -33.8 -37.5 -33.8 -37.5 -33.85 -37.55 -33.85 -37.6 -33.85 -37.65 -33.85 -37.7 -33.85 -37.75 -33.85 -37.8 -33.85 -37.85 -33.85 -37.9 -33.8 -37.95 -33.8 -37.95 -33.75 -38.15 -33.5 -38.35 -33.3 -38.55 -33.1 -38.85 -32.85 -39.0 -32.7 -39.3 -32.45 -39.75 -32.05 -39.75 -32.05 -40.05 -31.8 -40.25 -31.6 -40.5 -31.4 -40.65 -31.2 -40.9 -30.95 -41.1 -30.7 -41.3 -30.45 -41.45 -30.2 -41.8 -29.6 -42.15 -28.95 -42.5 -28.35 -42.75 -27.7 -43.05 -27.05 -43.3 -26.4 -43.55 -25.75 -43.75 -25.1 -44.0 -24.45 -44.15 -23.75 -44.35 -23.1 -44.45 -22.4 -44.6 -21.7 -44.7 -21.0 -44.8 -20.3 -44.85 -19.55 -45.2 -15.9 -45.25 -10.9 -45.15 -18.9 -45.25 -2.25 -45.25 -1.85 -45.25 -1.5 -45.3 -1.1 -45.3 -0.75 -45.3 -0.35 -45.35 0.05 -45.35 0.4 -45.4 0.8 -45.45 1.15 -45.5 1.55 -45.55 1.9 -45.6 2.3 -45.65 2.65 -45.7 3.05 -45.8 3.4 -45.9 3.8 -46.0 4.3 -46.1 4.85 -46.15 5.35 -46.25 5.85 -46.3 6.35 -46.35 6.9 -46.4 7.4 -46.4 7.95 -46.4 8.45 -46.45 9.0 -46.45 9.5 -46.45 10.05 -46.45 10.55 -46.4 11.1 -46.4 11.55 -46.4 12.1 -46.4 12.5 -46.2 12.95 -46.05 13.4 -45.8 13.85 -45.5 14.35 -45.15 14.8 -44.8 15.25 -44.35 15.7 -43.9 16.15 -43.4 16.55 -42.9 16.95 -42.4 17.25 -41.9 17.6 -41.35 17.85 -40.85 18.1 -40.35 18.2 -40.0 18.3 -39.7 18.35 -39.35 18.45 -39.0 18.5 -38.7 18.55 -38.35 18.6 -38.0 18.65 -37.7 18.7 -37.35 18.75 -37.0 18.75 -36.65 18.75 -36.35 18.75 -36.0 18.75 -35.65 18.75 -35.3 18.75 -34.95 18.7 -29.95 18.15 -29.25 18.15 -28.4 18.1 -27.55 18.0 -26.65 17.95 -25.85 17.85 -24.95 17.7 -24.15 17.6 -23.3 17.45 -22.45 17.3 -21.6 17.15 -20.8 16.95 -19.95 16.75 -19.15 16.55 -18.3 16.3 -17.5 16.05 -16.65 15.8 -15.85 15.5 -15.55 15.4 -15.3 15.25 -15.0 15.15 -14.75 15.0 -14.45 14.85 -14.2 14.7 -13.95 14.5 -13.75 14.35 -13.5 14.15 -13.3 13.95 -13.1 13.75 -12.9 13.5 -12.7 13.3 -12.5 13.05 -12.35 12.8 -12.15 12.55 -11.9 12.15 -11.7 11.8 -11.5 11.4 -11.3 11.05 -11.1 10.65 -10.9 10.3 -10.75 9.9 -10.55 9.5 -10.4 9.1 -10.25 8.7 -10.1 8.3 -9.95 7.9 -9.8 7.5 -9.7 7.1 -9.6 6.65 -9.55 6.25 -9.5 6.0 -9.45 5.8 -9.4 5.6 -9.3 5.4 -9.2 5.2 -9.1 5.0 -9.0 4.85 -8.85 4.65 -8.75 4.5 -8.6 4.35 -8.45 4.2 -8.25 4.05 -8.1 3.9 -7.9 3.75 -7.7 3.65 -7.5 3.5 -7.5 3.7 -7.5 3.85 -7.5 4.05 -7.5 4.2 -7.55 4.4 -7.55 4.55 -7.6 4.7 -7.65 4.9 -7.65 5.05 -7.7 5.2 -7.75 5.35 -7.8 5.5 -7.8 5.65 -7.9 5.8 -7.25 3.65 -7.95 6.15 -8.0 6.3 -8.05 6.45 -8.05 6.6 -8.05 6.7 -8.05 6.8 -8.05 6.85 -8.0 6.95 -7.95 7.0 -7.9 7.05 -7.8 7.1 -7.75 7.1 -7.65 7.15 -7.55 7.15 -7.4 7.2 -7.3 7.2 -7.15 7.2 -6.5 7.25 -5.85 7.25 -5.25 7.25 -4.6 7.2 -4.0 7.15 -3.35 7.1 -2.75 7.0 -2.1 6.9 -1.5 6.8 -0.85 6.7 -0.3 6.6 0.35 6.45 0.85 6.35 1.6 6.2 3.15 5.85 2.8 5.9 3.6 5.75 4.2 5.6 4.9 5.45 5.55 5.25 6.3 5.1 6.9 4.9 7.6 4.7 8.25 4.5 8.95 4.25 9.6 4.05 10.25 3.75 10.9 3.5 11.55 3.2 12.15 2.85 12.8 2.5 13.4 2.1 13.5 2.05 13.6 1.95 13.7 1.9 13.75 1.85 13.85 1.75 13.9 1.7 13.95 1.6 14.0 1.55 14.05 1.45 14.05 1.35 14.05 1.3 14.05 1.15 14.05 1.05 14.0 0.95 14.0 0.85 13.9 0.7 13.7 0.3 13.35 -0.7 13.0 -1.6 12.75 -2.1 12.25 -3.0 11.7 -3.8 11.15 -4.6 10.55 -5.4 9.95 -6.15 9.3 -6.85 8.65 -7.55 7.95 -8.2 7.2 -8.85 6.45 -9.4 5.7 -10.0 4.85 -10.5 4.05 -11.0 3.15 -11.45 2.3 -11.9 1.35 -12.3 1.2 -12.35 1.05 -12.4 0.9 -12.45 0.75 -12.5 0.55 -12.55 0.4 -12.6 0.25 -12.65 0.1 -12.65 -0.05 -12.7 -0.2 -12.7 -0.4 -12.7 -0.55 -12.7 -0.7 -12.75 -0.85 -12.75 -1.05 -12.75 -1.2 -12.7 -1.65 -12.7 -2.1 -12.65 -2.55 -12.65 -2.95 -12.6 -3.4 -12.55 -3.85 -12.55 -4.3 -12.5 -4.75 -12.45 -5.2 -12.4 -5.65 -12.35 -6.05 -12.3 -6.5 -12.25 -6.95 -12.15 -7.4 -12.1 -7.85 -12.05 -8.25 -11.95 -9.85 -11.65 -11.4 -11.35 -12.95 -11.05 -14.5 -10.65 -16.05 -10.3 -17.55 -9.9 -19.1 -9.5 -20.6 -9.05 -22.15 -8.6 -23.6 -8.1 -25.15 -7.6 -26.6 -7.05 -28.1 -6.5 -29.55 -5.9 -31.05 -5.3 -32.5 -4.65 -32.5 -4.65 -32.6 -4.6 -32.7 -4.55 -32.7 -4.55 -32.8 -4.5 -32.85 -4.5 -32.9 -4.5 -32.95 -4.45 -33.0 -4.45 -33.05 -4.45 -33.1 -4.45 -33.15 -4.45 -33.2 -4.45 -33.25 -4.45 -33.3 -4.45 -33.35 -4.5 L-33.35 -4.5 M-12.45 15.85 Q-13.1 16.2 -13.8 16.5 -14.45 16.85 -15.15 17.1 -15.8 17.35 -16.5 17.6 -17.2 17.85 -17.9 18.05 -18.55 18.25 -19.3 18.45 -19.95 18.6 -20.7 18.75 -21.35 18.9 -22.1 19.05 -22.75 19.2 -23.5 19.3 -25.45 19.65 -28.85 19.9 -32.75 20.25 -34.2 20.45 -34.7 20.5 -35.2 20.55 -35.7 20.6 -36.2 20.6 -36.7 20.6 -37.2 20.6 -37.7 20.55 -38.2 20.5 -38.7 20.45 -39.15 20.35 -39.65 20.25 -40.15 20.15 -40.6 20.0 -41.1 19.85 -41.6 19.7 -42.05 19.5 -42.15 19.45 -42.25 19.45 -42.3 19.4 -42.4 19.4 -42.45 19.4 -42.5 19.4 -42.55 19.45 -42.6 19.45 -42.65 19.5 -42.7 19.55 -42.7 19.6 -42.75 19.65 -42.75 19.65 -42.8 19.75 -42.85 19.85 -42.85 19.85 -43.05 20.2 -43.25 20.6 -43.45 20.95 -43.6 21.3 -43.8 21.7 -43.95 22.05 -44.1 22.45 -44.25 22.8 -44.4 23.2 -44.55 23.6 -44.7 23.95 -44.8 24.35 -44.95 24.75 -45.05 25.15 -45.15 25.55 -45.25 25.95 -45.8 27.9 -46.3 30.9 -47.15 35.75 -47.15 35.9 -47.25 36.45 -47.3 36.85 -47.4 37.3 -47.4 37.65 -47.4 38.0 -47.35 38.3 -47.3 38.6 -47.15 38.85 -47.05 39.1 -46.85 39.35 -46.65 39.55 -46.35 39.8 -46.1 40.0 -45.7 40.25 -45.35 40.45 -44.85 40.7 -44.5 40.9 -43.8 41.15 -42.05 41.85 -40.2 42.45 -38.45 43.05 -36.6 43.5 -34.8 43.95 -32.95 44.3 -31.1 44.65 -29.25 44.9 -27.4 45.15 -25.5 45.3 -23.7 45.45 -21.75 45.5 -19.9 45.55 -18.0 45.5 -16.15 45.5 -14.2 45.4 -14.1 45.4 -14.0 45.4 -13.95 45.35 -13.85 45.35 -13.8 45.35 -13.75 45.3 -13.7 45.25 -13.65 45.25 -13.6 45.2 -13.6 45.15 -13.55 45.1 -13.55 45.0 -13.5 44.95 -13.5 44.85 -13.5 44.8 -13.5 44.7 -13.45 43.95 -13.35 43.15 -13.25 42.45 -13.1 41.65 -13.0 40.95 -12.8 40.15 -12.65 39.45 -12.45 38.7 -12.25 38.0 -12.05 37.2 -11.85 36.6 -11.6 35.75 -11.6 35.75 -11.15 34.3 -10.9 33.4 -10.7 32.85 -10.65 32.65 -10.6 32.55 -10.6 32.4 -10.55 32.25 -10.55 32.15 -10.55 32.05 -10.55 31.95 -10.6 31.85 -10.65 31.75 -10.7 31.65 -10.75 31.6 -10.85 31.5 -10.95 31.45 -11.1 31.35 -11.2 31.3 -11.4 31.2 -11.7 31.1 -11.95 30.95 -12.2 30.8 -12.45 30.65 -12.7 30.5 -12.9 30.3 -13.15 30.15 -13.3 29.95 -13.5 29.7 -13.65 29.5 -13.8 29.25 -13.85 28.95 -13.95 28.65 -14.0 28.35 -14.05 28.05 -14.0 27.7 -13.95 27.05 -13.65 24.75 -13.55 23.65 -13.0 20.35 -12.6 17.55 -12.45 15.85 L-12.45 15.85 M14.5 22.9 Q12.15 18.6 12.05 18.45 11.95 18.2 11.8 18.0 11.7 17.8 11.55 17.65 11.4 17.45 11.2 17.3 11.05 17.15 10.85 17.05 10.7 16.9 10.5 16.8 10.3 16.7 10.1 16.6 9.9 16.55 9.65 16.45 9.45 16.4 9.2 16.35 8.95 16.3 8.75 16.25 8.5 16.25 8.25 16.2 8.05 16.2 7.8 16.2 7.55 16.15 7.35 16.15 7.1 16.15 6.85 16.2 6.65 16.2 6.4 16.25 6.15 16.25 5.95 16.3 5.7 16.35 5.5 16.4 4.55 16.65 3.6 16.85 2.6 17.1 1.65 17.25 0.7 17.45 -0.3 17.6 -1.25 17.75 -2.25 17.85 -3.2 17.95 -4.2 18.05 -5.15 18.1 -6.15 18.15 -7.1 18.2 -8.1 18.2 -9.1 18.2 -10.1 18.15 -10.2 18.15 -10.3 18.15 -10.4 18.15 -10.5 18.2 -10.6 18.2 -10.65 18.25 -10.7 18.25 -10.75 18.3 -10.8 18.35 -10.85 18.45 -10.9 18.5 -10.9 18.55 -10.95 18.65 -10.95 18.75 -11.0 18.8 -11.0 18.95 -11.75 24.45 -12.2 27.55 -12.2 27.7 -12.2 27.8 -12.2 27.9 -12.2 28.05 -12.2 28.15 -12.15 28.25 -12.1 28.35 -12.1 28.45 -12.05 28.55 -11.95 28.6 -11.9 28.7 -11.85 28.8 -11.75 28.85 -11.7 28.95 -11.6 29.0 -11.5 29.1 -11.3 29.2 -11.15 29.35 -10.95 29.45 -10.75 29.55 -10.6 29.65 -10.4 29.75 -10.2 29.8 -10.0 29.9 -9.8 30.0 -9.6 30.05 -9.4 30.1 -9.2 30.2 -9.0 30.25 -8.8 30.3 -8.6 30.35 -8.4 30.4 -6.3 30.95 -4.3 31.35 -2.2 31.75 -0.25 32.05 1.85 32.35 3.85 32.55 5.95 32.7 7.9 32.7 10.0 32.75 12.0 32.55 14.05 32.4 16.05 32.05 18.1 31.7 20.1 31.1 22.15 30.5 24.15 29.7 24.3 29.65 25.3 29.25 26.0 28.95 26.45 28.75 27.05 28.5 27.55 28.3 28.15 28.0 28.7 27.75 29.25 27.5 29.8 27.2 30.35 26.9 30.85 26.55 31.4 26.25 31.85 25.85 32.4 25.5 32.85 25.05 33.05 24.85 33.2 24.7 33.4 24.5 33.5 24.35 33.65 24.15 33.75 23.95 33.85 23.75 33.9 23.55 34.0 23.35 34.0 23.15 34.05 22.95 34.0 22.75 34.0 22.5 33.95 22.25 33.9 22.05 33.8 21.8 33.4 20.8 33.0 19.95 32.6 18.95 32.25 18.05 31.8 17.1 31.4 16.2 31.0 15.25 30.55 14.4 30.1 13.45 29.7 12.6 29.2 11.65 28.75 10.8 28.25 9.9 27.75 9.05 27.25 8.15 26.7 7.3 26.55 7.1 26.5 7.0 26.4 6.8 26.3 6.7 26.15 6.55 26.05 6.45 25.95 6.35 25.8 6.25 25.7 6.15 25.55 6.15 25.4 6.1 25.2 6.1 25.05 6.1 24.85 6.15 24.65 6.2 24.4 6.35 24.35 6.4 24.25 6.4 24.2 6.45 24.1 6.45 24.05 6.45 23.95 6.45 23.85 6.45 23.8 6.45 23.7 6.45 23.6 6.45 23.55 6.45 23.45 6.45 23.35 6.45 23.25 6.4 23.15 6.4 23.1 6.4 23.0 6.4 22.9 6.4 22.8 6.4 22.7 6.4 22.6 6.4 22.55 6.45 22.45 6.45 22.4 6.5 22.3 6.5 22.25 6.55 22.2 6.65 22.15 6.7 22.1 6.75 22.05 6.85 22.05 6.95 22.0 7.05 21.95 7.2 21.9 7.3 21.85 7.45 21.8 7.5 21.75 7.6 21.65 7.7 21.55 7.75 21.5 7.8 21.4 7.9 21.3 7.9 21.15 7.95 21.05 7.95 20.95 8.0 20.8 8.0 20.7 8.0 20.55 7.95 20.5 7.95 20.45 7.95 20.05 7.9 20.35 7.95 20.3 7.9 20.25 7.9 20.2 7.9 20.15 7.9 20.1 7.9 20.05 7.95 20.0 7.95 19.95 7.95 19.9 8.0 19.85 8.05 19.8 8.05 19.75 8.15 20.5 8.7 21.15 9.15 21.8 9.65 22.35 10.1 22.9 10.55 23.35 10.95 23.8 11.35 24.15 11.75 24.5 12.1 24.75 12.45 25.05 12.8 25.2 13.1 25.4 13.4 25.5 13.7 25.6 14.0 25.6 14.25 25.3 13.95 24.95 13.65 24.65 13.4 24.3 13.15 24.0 12.9 23.65 12.65 23.3 12.4 22.95 12.2 22.65 11.95 22.25 11.75 21.95 11.55 21.55 11.3 21.25 11.15 20.8 10.9 21.3 11.2 20.1 10.5 19.85 10.35 19.6 10.25 19.3 10.2 19.0 10.1 18.7 10.05 18.4 10.05 18.1 10.05 17.8 10.05 17.5 10.1 17.2 10.15 16.95 10.2 16.7 10.3 16.45 10.4 16.3 10.5 16.1 10.65 16.0 10.8 15.85 11.05 15.65 11.3 15.45 11.55 15.25 11.75 15.05 12.0 14.85 12.2 14.65 12.35 14.4 12.55 14.15 12.75 13.9 12.9 13.7 13.05 13.45 13.2 13.15 13.35 12.9 13.5 12.65 13.6 12.35 13.75 12.15 13.85 12.0 13.9 11.85 14.0 11.75 14.1 11.65 14.15 11.6 14.25 11.55 14.35 11.55 14.45 11.55 14.55 11.55 14.65 11.6 14.75 11.65 14.9 11.7 15.0 11.75 15.15 11.85 15.3 11.95 15.45 12.25 15.85 12.5 16.3 12.8 16.7 13.0 17.15 13.25 17.6 13.45 18.05 13.65 18.5 13.8 18.95 13.95 19.45 14.1 19.9 14.25 20.4 14.3 20.85 14.4 21.35 14.45 21.85 14.5 22.35 14.5 22.9 L14.5 22.9 M21.7 -4.0 Q21.8 -3.8 21.9 -3.55 22.0 -3.4 22.15 -3.1 22.3 -2.8 22.35 -2.65 22.45 -2.45 22.55 -2.25 22.65 -2.0 22.75 -1.8 22.8 -1.55 22.85 -1.3 22.9 -1.05 22.9 -0.85 22.9 -0.55 22.85 -0.3 22.75 0.45 22.7 1.75 22.7 3.25 22.65 3.85 22.65 3.95 22.65 4.05 22.65 4.15 22.65 4.2 22.65 4.3 22.7 4.35 22.7 4.4 22.75 4.45 22.8 4.5 22.85 4.55 22.9 4.55 23.0 4.6 23.05 4.6 23.15 4.6 23.25 4.6 23.4 4.6 23.75 4.6 24.05 4.55 24.35 4.5 24.65 4.4 24.95 4.35 25.2 4.2 25.45 4.1 25.7 3.9 25.95 3.75 26.15 3.55 26.4 3.35 26.55 3.15 26.75 2.9 26.95 2.65 27.1 2.4 27.25 2.1 27.45 1.75 27.55 1.45 27.75 1.1 27.85 0.8 28.0 0.45 28.05 0.15 28.15 -0.2 28.2 -0.55 28.25 -0.9 28.25 -1.2 28.2 -1.55 28.15 -1.9 28.05 -2.2 27.9 -2.55 27.7 -2.9 27.45 -3.2 25.45 -5.7 22.5 -11.25 22.4 -11.4 22.35 -11.6 22.25 -11.75 22.15 -11.95 22.05 -12.1 21.95 -12.25 21.85 -12.45 21.75 -12.6 21.65 -12.75 21.55 -12.9 21.45 -13.1 21.35 -13.25 21.25 -13.4 21.15 -13.55 21.0 -13.7 20.9 -13.85 20.0 -15.0 19.1 -15.85 18.2 -16.65 17.2 -17.15 16.3 -17.65 15.3 -17.85 14.35 -18.0 13.4 -17.95 12.45 -17.85 11.5 -17.5 10.55 -17.2 9.6 -16.65 8.7 -16.1 7.75 -15.35 6.85 -14.65 6.0 -13.8 5.85 -13.65 5.75 -13.5 5.6 -13.35 5.55 -13.2 5.5 -13.05 5.5 -12.9 5.45 -12.8 5.5 -12.65 5.5 -12.5 5.6 -12.4 5.65 -12.25 5.8 -12.15 5.9 -12.0 6.05 -11.9 6.2 -11.75 6.4 -11.65 7.0 -11.25 7.55 -10.85 8.1 -10.4 8.65 -9.95 9.2 -9.55 9.7 -9.05 10.2 -8.6 10.65 -8.05 11.1 -7.55 11.55 -7.05 12.0 -6.5 12.4 -5.95 12.8 -5.4 13.2 -4.8 13.55 -4.25 13.9 -3.6 14.15 -3.15 14.5 -2.75 14.8 -2.35 15.15 -2.0 15.45 -1.65 15.85 -1.35 16.2 -1.05 16.6 -0.75 17.0 -0.5 17.45 -0.25 17.85 -0.05 18.3 0.15 18.75 0.35 19.2 0.55 19.65 0.75 20.15 0.9 20.25 0.95 20.35 0.95 20.45 1.0 20.5 1.0 20.6 1.0 20.65 0.95 20.7 0.95 20.75 0.9 20.8 0.85 20.85 0.8 20.9 0.75 20.9 0.65 20.9 0.6 20.95 0.5 20.95 0.4 20.95 0.25 20.95 -0.3 21.05 -1.2 21.1 -2.25 21.1 -2.65 21.1 -2.7 21.1 -2.85 21.1 -2.95 21.15 -3.05 21.15 -3.15 21.15 -3.2 21.15 -3.3 21.2 -3.4 21.2 -3.45 21.25 -3.55 21.3 -3.65 21.35 -3.7 21.4 -3.8 21.5 -3.85 21.6 -3.95 21.7 -4.0 L21.7 -4.0 M-20.35 -25.5 Q-20.65 -26.05 -21.05 -26.6 -21.4 -27.1 -21.8 -27.55 -22.2 -28.0 -22.7 -28.4 -23.1 -28.8 -23.6 -29.2 -24.05 -29.55 -24.6 -29.9 -25.05 -30.2 -25.6 -30.55 -26.05 -30.85 -26.65 -31.15 -27.05 -31.4 -27.7 -31.75 -28.1 -31.95 -28.75 -32.35 -29.5 -32.75 -29.8 -32.9 -30.35 -33.25 -30.85 -33.5 -31.4 -33.8 -31.9 -34.05 -32.45 -34.35 -33.0 -34.6 -33.55 -34.85 -34.1 -35.05 -34.7 -35.3 -35.25 -35.45 -35.85 -35.65 -36.45 -35.8 -36.45 -35.7 -36.4 -35.65 -36.4 -35.6 -36.4 -35.55 -36.35 -35.5 -36.35 -35.45 -36.3 -35.4 -36.3 -35.35 -36.25 -35.35 -36.25 -35.3 -36.2 -35.3 -36.15 -35.3 -36.15 -35.25 -36.1 -35.25 -36.35 -35.35 -36.05 -35.25 -33.25 -34.05 -31.75 -33.2 -30.95 -32.75 -30.2 -32.2 -29.45 -31.7 -28.75 -31.1 -28.05 -30.55 -27.4 -29.95 -26.75 -29.3 -26.15 -28.65 -25.55 -28.0 -25.0 -27.3 -24.5 -26.6 -24.0 -25.85 -23.5 -25.1 -23.05 -24.3 -22.6 -23.5 -22.15 -22.65 -22.1 -22.6 -22.1 -22.5 -22.1 -22.45 -22.05 -22.4 -22.05 -22.3 -22.05 -22.25 -22.05 -22.2 -22.0 -22.1 -22.0 -22.05 -22.0 -21.95 -22.0 -21.9 -22.0 -21.85 -22.0 -21.8 -22.0 -21.7 -22.0 -21.7 -22.0 -21.55 -22.0 -18.9 -22.0 -10.55 -15.75 -12.4 -11.45 -13.15 -11.35 -13.15 -11.25 -13.2 -11.2 -13.2 -11.15 -13.25 -11.1 -13.3 -11.05 -13.35 -11.0 -13.4 -11.0 -13.45 -10.95 -13.5 -10.95 -13.6 -10.95 -13.65 -10.9 -13.75 -10.9 -13.8 -10.9 -13.9 -10.9 -13.95 -10.9 -14.05 -10.85 -21.75 -11.25 -26.7 -11.45 -29.35 -11.75 -30.3 -11.85 -30.6 -11.95 -30.85 -12.05 -31.1 -12.15 -31.25 -12.3 -31.45 -12.4 -31.55 -12.55 -31.7 -12.7 -31.75 -12.85 -31.85 -13.05 -31.9 -13.2 -31.9 -13.45 -31.9 -13.65 -31.9 -13.95 -31.85 -14.2 -31.8 -14.5 -31.7 -15.1 -31.55 -15.65 -31.3 -16.15 -31.1 -16.65 -30.8 -17.1 -30.55 -17.5 -30.2 -17.95 -29.85 -18.3 -29.45 -18.65 -29.05 -18.95 -28.65 -19.25 -28.2 -19.55 -27.7 -19.8 -27.2 -20.0 -26.65 -20.2 -26.1 -20.35 -25.5 L-20.35 -25.5 M-1.15 33.75 Q-1.05 34.1 -0.95 34.4 -0.85 34.7 -0.75 35.0 -0.65 35.3 -0.55 35.6 -0.5 35.95 -0.4 36.25 -0.35 36.55 -0.25 36.85 -0.2 37.15 -0.15 37.45 -0.1 37.75 -0.05 38.05 0.0 38.35 0.05 38.65 0.1 38.95 0.15 39.25 0.15 39.55 0.2 39.9 0.2 40.2 0.25 40.5 0.25 40.8 0.3 41.1 0.3 41.4 0.3 41.75 0.3 42.05 0.3 42.35 0.3 42.65 0.25 42.95 0.25 43.3 0.25 43.6 0.25 43.75 0.25 43.85 0.25 44.0 0.3 44.1 0.3 44.15 0.35 44.2 0.4 44.3 0.5 44.3 0.55 44.35 0.65 44.4 0.7 44.4 0.8 44.4 0.9 44.4 1.0 44.4 0.9 44.4 1.2 44.45 2.5 44.5 3.85 44.45 5.15 44.45 6.45 44.25 7.7 44.15 9.0 43.9 10.25 43.65 11.5 43.3 12.7 42.95 13.95 42.55 15.15 42.15 16.35 41.65 17.55 41.15 18.75 40.6 19.9 40.05 21.1 39.45 21.2 39.4 21.3 39.35 21.4 39.25 21.45 39.2 21.55 39.15 21.6 39.05 21.65 38.95 21.7 38.9 21.75 38.8 21.75 38.7 21.8 38.6 21.8 38.5 21.8 38.4 21.8 38.3 21.8 38.2 21.8 38.1 21.8 37.8 21.75 37.5 21.7 37.2 21.7 36.9 21.65 36.6 21.6 36.3 21.55 36.0 21.5 35.7 21.45 35.4 21.4 35.1 21.35 34.8 21.25 34.5 21.2 34.2 21.15 33.9 21.05 33.65 21.0 33.3 20.95 33.2 20.95 33.1 20.9 33.05 20.9 33.0 20.85 32.9 20.8 32.9 20.75 32.85 20.7 32.8 20.65 32.8 20.6 32.8 20.55 32.8 20.5 32.8 20.4 32.8 20.35 32.85 20.25 32.85 20.15 32.9 19.4 33.15 18.6 33.35 17.85 33.6 17.05 33.75 16.25 33.95 15.45 34.05 14.7 34.2 13.9 34.3 13.1 34.4 12.3 34.45 11.5 34.5 10.7 34.5 9.9 34.55 9.05 34.55 8.25 34.55 7.45 34.5 6.9 34.5 6.4 34.45 5.85 34.45 5.35 34.4 4.8 34.35 4.25 34.3 3.75 34.3 3.2 34.25 2.65 34.2 2.15 34.15 1.6 34.1 1.05 34.05 0.5 33.95 -0.05 33.9 -0.6 33.85 -1.15 33.75 L-1.15 33.75 M-16.75 -37.2 Q-16.75 -37.2 -16.8 -37.25 -16.85 -37.3 -16.85 -37.3 -17.35 -37.65 -18.0 -38.1 -18.35 -38.35 -19.1 -38.9 -19.85 -39.4 -20.25 -39.7 -20.9 -40.1 -21.4 -40.5 -22.0 -40.95 -22.5 -41.35 -23.05 -41.8 -23.55 -42.25 -24.05 -42.7 -24.5 -43.2 -25.0 -43.75 -25.4 -44.3 -25.45 -44.4 -25.55 -44.45 -25.6 -44.5 -25.7 -44.55 -25.75 -44.55 -25.85 -44.55 -25.9 -44.55 -25.95 -44.55 -26.05 -44.5 -26.1 -44.5 -26.15 -44.45 -26.25 -44.4 -26.25 -44.4 -26.35 -44.35 -26.45 -44.3 -26.5 -44.25 -27.0 -44.0 -27.55 -43.7 -28.05 -43.4 -28.55 -43.1 -29.05 -42.8 -29.55 -42.45 -30.05 -42.15 -30.55 -41.8 -31.05 -41.5 -31.55 -41.15 -32.0 -40.8 -32.5 -40.45 -32.95 -40.1 -33.45 -39.7 -33.9 -39.35 -34.35 -39.0 -34.4 -38.95 -35.8 -37.65 -34.7 -37.2 -33.75 -36.8 -32.65 -36.35 -31.7 -35.9 -30.65 -35.4 -29.7 -34.9 -28.7 -34.4 -27.75 -33.9 -26.75 -33.35 -25.85 -32.8 -24.9 -32.2 -24.0 -31.6 -23.1 -31.0 -22.25 -30.35 -21.35 -29.65 -20.55 -28.95 -20.35 -29.4 -20.1 -30.0 -19.95 -30.45 -19.7 -31.05 -18.9 -33.1 -19.3 -32.1 -19.05 -32.7 -18.85 -33.15 -18.65 -33.75 -18.45 -34.2 -18.2 -34.75 -17.95 -35.25 -17.65 -35.75 -17.4 -36.25 -17.1 -36.75 -16.75 -37.2 L-16.75 -37.2 M-9.1 -15.2 Q-9.05 -15.2 -9.0 -15.2 -8.9 -15.2 -8.9 -15.2 -8.9 -15.2 -8.9 -15.2 -8.8 -15.4 -8.45 -16.2 -8.2 -16.8 -8.0 -17.15 -7.45 -18.25 -6.85 -19.35 -6.25 -20.45 -5.6 -21.5 -5.0 -22.6 -4.3 -23.65 -3.65 -24.65 -2.95 -25.7 -2.25 -26.7 -1.5 -27.7 -0.8 -28.7 0.0 -29.7 0.75 -30.7 1.55 -31.65 2.3 -32.6 3.15 -33.55 3.2 -33.6 3.25 -33.65 3.25 -33.65 3.35 -33.75 3.4 -33.8 3.45 -33.8 3.5 -33.85 3.55 -33.9 3.6 -33.95 3.6 -34.0 3.65 -34.1 3.65 -34.15 3.65 -34.2 3.65 -34.3 3.65 -34.35 3.6 -34.45 3.55 -34.5 3.55 -34.55 3.5 -34.6 3.45 -34.65 3.4 -34.7 3.35 -34.75 3.3 -34.8 3.25 -34.85 3.2 -34.85 3.15 -34.9 3.1 -34.95 3.05 -34.95 3.0 -34.95 2.9 -35.0 2.85 -35.0 2.8 -35.0 2.7 -35.0 2.65 -35.0 2.55 -35.0 2.5 -34.95 2.45 -34.95 2.4 -34.9 2.35 -34.85 2.3 -34.8 2.25 -34.75 2.2 -34.7 2.2 -34.65 2.15 -34.6 2.1 -34.5 2.1 -34.45 2.05 -34.4 2.0 -34.35 0.75 -32.45 0.15 -31.65 0.0 -31.45 -0.15 -31.25 -0.3 -31.05 -0.45 -30.9 -0.6 -30.7 -0.75 -30.55 -0.95 -30.35 -1.1 -30.2 -1.3 -30.05 -1.45 -29.9 -1.65 -29.75 -1.85 -29.6 -2.05 -29.45 -2.25 -29.3 -2.45 -29.2 -2.65 -29.05 -2.8 -29.0 -2.9 -28.95 -3.0 -28.9 -3.1 -28.85 -3.2 -28.85 -3.25 -28.85 -3.35 -28.85 -3.4 -28.85 -3.45 -28.9 -3.5 -28.95 -3.55 -29.0 -3.6 -29.1 -3.6 -29.2 -3.65 -29.35 -3.65 -29.45 -3.65 -29.65 -3.65 -29.75 -3.65 -29.9 -3.65 -30.0 -3.65 -30.15 -3.65 -30.25 -3.65 -30.4 -3.7 -30.5 -3.7 -30.65 -3.7 -30.75 -3.7 -30.9 -3.75 -31.0 -3.75 -31.15 -3.8 -31.25 -3.8 -31.4 -3.85 -31.5 -3.85 -31.65 -3.9 -31.8 -3.95 -31.95 -4.0 -32.1 -4.05 -32.2 -4.1 -32.35 -4.2 -32.45 -4.25 -32.55 -4.35 -32.65 -4.45 -32.75 -4.55 -32.85 -4.7 -32.9 -4.8 -33.0 -4.95 -33.05 -5.1 -33.05 -5.2 -33.1 -5.4 -33.1 -6.6 -33.05 -5.95 -33.1 -6.3 -33.05 -6.55 -33.05 -6.85 -33.0 -7.1 -33.0 -7.4 -32.95 -7.65 -32.9 -7.95 -32.85 -8.2 -32.8 -8.5 -32.7 -8.75 -32.6 -9.0 -32.5 -9.25 -32.35 -9.55 -32.2 -9.75 -32.0 -9.8 -31.95 -9.9 -31.9 -9.95 -31.85 -10.0 -31.8 -10.05 -31.75 -10.1 -31.7 -10.1 -31.65 -10.15 -31.6 -10.15 -31.55 -10.2 -31.5 -10.2 -31.45 -10.2 -31.4 -10.2 -31.35 -10.2 -31.25 -10.15 -31.2 -10.15 -31.1 -10.0 -30.7 -9.85 -30.25 -9.75 -29.8 -9.65 -29.35 -9.6 -28.95 -9.55 -28.45 -9.5 -28.05 -9.45 -27.55 -9.45 -27.2 -9.4 -26.65 -9.4 -26.45 -9.35 -25.75 -9.35 -25.2 -9.35 -24.85 -9.3 -24.35 -9.3 -23.95 -9.15 -22.5 -9.1 -15.2 L-9.1 -15.2 M-0.4 15.75 Q0.1 15.7 0.65 15.6 1.1 15.55 1.65 15.45 2.1 15.35 2.6 15.25 3.05 15.15 3.55 15.0 4.0 14.9 4.5 14.75 4.85 14.65 5.45 14.5 6.05 14.35 6.35 14.25 6.9 14.1 7.3 14.0 7.55 13.95 7.75 13.85 7.95 13.8 8.15 13.7 8.35 13.6 8.5 13.45 8.65 13.35 8.8 13.2 8.9 13.05 9.05 12.85 9.15 12.7 9.25 12.5 9.35 12.35 9.4 12.1 9.5 11.9 9.55 11.65 9.65 11.35 9.7 11.05 9.75 10.7 9.75 10.4 9.8 10.1 9.8 9.8 9.8 9.45 9.8 9.15 9.8 8.85 9.75 8.5 9.75 8.2 9.7 7.9 9.65 7.6 9.6 7.25 9.55 6.95 9.5 6.65 9.5 6.55 9.45 6.5 9.4 6.4 9.4 6.35 9.35 6.3 9.3 6.25 9.25 6.2 9.2 6.2 9.15 6.15 9.1 6.15 9.05 6.15 9.0 6.15 8.9 6.15 8.85 6.2 8.75 6.2 8.7 6.2 8.25 6.35 7.8 6.5 7.3 6.65 6.85 6.75 6.4 6.9 5.95 7.05 5.45 7.15 5.0 7.25 4.55 7.4 4.05 7.5 3.6 7.6 3.15 7.7 2.65 7.8 2.2 7.9 1.75 8.0 1.25 8.1 1.2 8.1 1.1 8.1 1.05 8.15 1.0 8.15 0.95 8.15 0.9 8.2 0.85 8.2 0.85 8.25 0.8 8.3 0.75 8.35 0.75 8.4 0.75 8.45 0.75 8.5 0.75 8.55 0.75 8.65 0.75 8.75 0.85 9.2 0.9 9.65 0.95 10.1 0.95 10.55 1.0 11.0 0.95 11.4 0.95 11.85 0.85 12.3 0.8 12.75 0.7 13.15 0.6 13.6 0.45 14.0 0.25 14.45 0.05 14.9 -0.15 15.3 -0.4 15.75 L-0.4 15.75 M-7.95 16.35 Q-6.75 16.4 -3.65 16.15 -3.55 16.15 -3.45 16.15 -3.4 16.1 -3.3 16.1 -3.25 16.1 -3.15 16.05 -3.1 16.0 -3.0 16.0 -2.95 15.95 -2.9 15.9 -2.8 15.85 -2.75 15.8 -2.7 15.75 -2.65 15.7 -2.55 15.65 -2.5 15.55 -2.2 15.2 -2.0 14.85 -1.75 14.5 -1.55 14.15 -1.4 13.75 -1.25 13.4 -1.1 13.0 -1.05 12.6 -0.95 12.2 -0.9 11.8 -0.85 11.4 -0.85 11.0 -0.85 10.6 -0.85 10.15 -0.9 9.75 -0.95 9.3 -0.95 9.2 -1.0 9.1 -1.0 9.05 -1.0 8.95 -1.05 8.9 -1.1 8.85 -1.15 8.8 -1.2 8.75 -1.25 8.7 -1.3 8.65 -1.35 8.65 -1.45 8.65 -1.5 8.6 -1.6 8.65 -1.7 8.65 -1.85 8.65 -2.2 8.75 -2.6 8.8 -2.95 8.85 -3.3 8.9 -3.7 8.95 -4.05 8.95 -4.45 9.0 -4.8 9.0 -5.15 9.05 -5.55 9.05 -5.9 9.05 -6.3 9.05 -6.65 9.0 -7.05 9.0 -7.4 9.0 -7.8 8.95 -7.95 8.95 -8.05 8.95 -8.15 8.95 -8.25 8.95 -8.3 9.0 -8.4 9.0 -8.45 9.05 -8.5 9.1 -8.6 9.15 -8.65 9.2 -8.7 9.3 -8.7 9.35 -8.75 9.45 -8.8 9.55 -8.8 9.65 -8.85 9.75 -9.0 10.35 -9.35 11.55 -9.75 12.75 -9.9 13.35 -9.95 13.5 -10.0 13.7 -10.05 13.85 -10.15 14.05 -8.85 10.95 -10.3 14.45 -10.4 14.65 -10.45 14.8 -10.55 15.0 -10.55 15.15 -10.6 15.35 -10.65 15.5 -10.65 15.7 -10.6 15.8 -10.55 15.95 -10.5 16.1 -10.4 16.25 -10.25 16.3 -10.15 16.4 -9.95 16.45 -9.8 16.5 -9.6 16.5 -9.45 16.5 -9.25 16.45 -9.1 16.45 -8.9 16.4 -8.55 16.35 -8.55 16.35 -8.35 16.35 -8.2 16.35 -8.05 16.35 -7.95 16.35 L-7.95 16.35 M-3.3 -41.6 Q-3.4 -41.4 -3.55 -41.15 -3.65 -40.95 -3.8 -40.75 -3.95 -40.5 -4.1 -40.3 -4.2 -40.1 -4.35 -39.9 -4.5 -39.7 -4.7 -39.55 -4.85 -39.35 -5.0 -39.15 -5.15 -39.0 -5.35 -38.8 -5.5 -38.6 -5.7 -38.45 -5.75 -38.4 -5.8 -38.35 -5.8 -38.3 -5.85 -38.3 -5.9 -38.25 -5.9 -38.2 -5.9 -38.15 -5.9 -38.15 -5.9 -38.1 -5.9 -38.05 -5.9 -38.0 -5.9 -37.95 -5.9 -37.9 -5.85 -37.85 -5.8 -37.8 -5.75 -37.75 -5.45 -37.4 -5.2 -37.05 -4.95 -36.65 -4.7 -36.3 -4.45 -35.9 -4.25 -35.55 -4.0 -35.15 -3.8 -34.75 -3.6 -34.35 -3.4 -33.95 -3.25 -33.55 -3.05 -33.15 -2.9 -32.7 -2.8 -32.25 -2.65 -31.8 -2.55 -31.35 -2.3 -31.55 -2.05 -31.8 -1.85 -32.05 -1.65 -32.3 -1.45 -32.55 -1.25 -32.8 -1.05 -33.05 -0.85 -33.3 -0.7 -33.55 -0.5 -33.8 -0.35 -34.05 -0.15 -34.35 -2.95 -30.05 0.15 -34.85 0.35 -35.15 0.5 -35.4 0.55 -35.45 0.55 -35.5 0.6 -35.55 0.6 -35.6 0.6 -35.65 0.65 -35.7 0.65 -35.75 0.65 -35.8 0.65 -35.85 0.6 -35.9 0.6 -35.95 0.6 -36.0 0.55 -36.05 0.55 -36.1 0.5 -36.15 0.45 -36.2 -1.8 -39.8 -3.3 -41.6 L-3.3 -41.6 M11.35 12.15 Q11.85 11.95 12.25 11.75 12.65 11.55 13.0 11.35 13.35 11.1 13.6 10.85 13.9 10.6 14.1 10.35 14.35 10.05 14.5 9.75 14.65 9.45 14.75 9.1 14.85 8.75 14.9 8.4 14.95 8.0 14.9 7.6 14.9 7.2 14.5 3.6 12.05 4.9 11.35 5.25 11.25 5.3 11.2 5.35 11.15 5.4 11.1 5.45 11.1 5.5 11.1 5.55 11.05 5.6 11.05 5.65 11.1 5.7 11.1 5.8 11.1 5.85 11.1 5.9 11.1 5.9 11.15 6.0 11.2 6.1 11.2 6.1 11.3 6.45 11.35 6.85 11.45 7.2 11.5 7.6 11.55 7.95 11.55 8.35 11.6 8.7 11.6 9.1 11.6 9.45 11.6 9.85 11.6 10.2 11.55 10.6 11.55 10.95 11.5 11.35 11.45 11.75 11.35 12.15 L11.35 12.15 M-13.3 -33.3 Q-13.35 -33.45 -13.4 -33.6 -13.5 -33.75 -13.55 -33.9 -13.6 -34.05 -13.7 -34.15 -13.75 -34.3 -13.85 -34.45 -13.9 -34.55 -14.0 -34.7 -14.05 -34.8 -14.15 -34.95 -14.2 -35.05 -14.3 -35.2 -14.4 -35.3 -14.5 -35.4 -14.6 -35.5 -14.7 -35.6 -14.75 -35.7 -14.85 -35.75 -14.95 -35.8 -15.0 -35.8 -15.1 -35.85 -15.2 -35.85 -15.25 -35.85 -15.35 -35.8 -15.45 -35.75 -15.5 -35.7 -15.6 -35.65 -15.65 -35.55 -15.75 -35.45 -15.85 -35.35 -15.95 -35.2 -16.05 -35.05 -16.1 -34.9 -16.2 -34.75 -16.3 -34.6 -16.35 -34.45 -16.4 -34.3 -16.5 -34.15 -16.55 -34.0 -16.6 -33.8 -16.7 -33.65 -16.75 -33.45 -16.8 -33.3 -16.9 -33.05 -17.05 -32.6 -17.0 -32.7 -16.75 -32.8 -16.55 -32.9 -16.3 -32.95 -16.1 -33.05 -15.85 -33.1 -15.6 -33.15 -15.4 -33.15 -15.15 -33.2 -14.95 -33.2 -14.7 -33.25 -14.5 -33.25 -14.25 -33.25 -14.05 -33.25 -13.75 -33.3 -13.45 -33.3 -13.3 -33.3 L-13.3 -33.3 M-9.1 -34.35 Q-8.9 -34.4 -8.7 -34.5 -8.5 -34.55 -8.3 -34.6 -8.15 -34.65 -7.95 -34.65 -7.75 -34.7 -7.55 -34.7 -7.35 -34.75 -7.15 -34.75 -6.95 -34.8 -6.75 -34.8 -6.55 -34.8 -6.35 -34.8 -6.15 -34.8 -5.9 -34.8 -6.0 -34.95 -6.1 -35.1 -6.2 -35.25 -6.3 -35.45 -6.45 -35.75 -6.45 -35.75 -6.55 -35.9 -6.6 -36.05 -6.7 -36.15 -6.8 -36.3 -6.9 -36.4 -7.0 -36.5 -7.1 -36.6 -7.2 -36.65 -7.35 -36.7 -7.45 -36.7 -7.6 -36.7 -7.7 -36.7 -7.8 -36.65 -7.9 -36.55 -8.0 -36.5 -8.05 -36.4 -8.15 -36.3 -8.2 -36.15 -8.25 -36.05 -8.3 -35.9 -8.55 -35.4 -8.45 -35.65 -8.5 -35.5 -8.55 -35.4 -8.6 -35.25 -8.7 -35.15 -8.7 -35.15 -9.1 -34.35 L-9.1 -34.35" fill="#060606" fill-rule="evenodd" stroke="none"/>
    <path d="M20.65 -33.0 Q20.4 -33.1 20.15 -33.2 19.95 -33.35 19.75 -33.5 19.6 -33.65 19.4 -33.85 19.25 -34.0 19.1 -34.25 18.95 -34.4 18.8 -34.65 18.7 -34.8 18.5 -35.05 18.25 -35.5 18.25 -35.45 18.1 -35.7 18.0 -35.85 17.8 -36.1 17.65 -36.35 17.5 -36.6 17.4 -36.9 17.25 -37.15 17.15 -37.45 17.05 -37.7 16.95 -38.0 16.9 -38.3 16.85 -38.55 16.8 -38.85 16.8 -39.15 16.8 -39.45 16.85 -39.75 16.9 -40.1 17.0 -40.4 17.3 -40.45 17.6 -40.45 17.9 -40.5 18.2 -40.5 18.5 -40.5 18.8 -40.45 19.1 -40.45 19.4 -40.4 19.65 -40.35 19.95 -40.3 20.25 -40.25 20.55 -40.15 20.8 -40.05 21.1 -39.95 21.4 -39.85 21.7 -39.7 22.85 -39.2 23.95 -38.65 25.05 -38.1 26.1 -37.45 27.15 -36.85 28.2 -36.15 29.2 -35.55 30.25 -34.8 31.2 -34.1 32.25 -33.35 33.15 -32.65 34.2 -31.8 35.1 -31.1 36.1 -30.25 36.95 -29.55 38.0 -28.65 38.55 -28.15 39.05 -27.75 39.6 -27.25 40.1 -26.8 40.6 -26.3 41.05 -25.8 41.55 -25.3 42.05 -24.8 42.5 -24.3 42.95 -23.75 43.4 -23.2 43.8 -22.7 44.25 -22.1 44.6 -21.55 45.0 -20.95 45.35 -20.35 45.55 -20.0 45.75 -19.6 45.9 -19.25 46.05 -18.85 46.2 -18.5 46.35 -18.1 46.5 -17.75 46.6 -17.35 46.7 -16.95 46.8 -16.55 46.9 -16.2 47.0 -15.8 47.1 -15.4 47.15 -15.0 47.25 -14.6 47.3 -14.2 47.2 -14.2 47.0 -14.2 46.75 -14.2 46.7 -14.2 46.55 -14.2 46.4 -14.2 46.25 -14.25 46.1 -14.25 45.95 -14.3 45.85 -14.3 45.7 -14.35 45.55 -14.45 45.4 -14.5 45.3 -14.6 45.15 -14.7 45.05 -14.85 45.05 -14.9 45.05 -14.95 45.1 -14.95 45.05 -15.0 45.05 -15.05 45.05 -15.05 45.05 -15.1 45.0 -15.1 45.0 -15.15 44.95 -15.15 44.9 -15.15 44.9 -15.2 44.85 -15.2 44.85 -15.2 44.8 -15.25 44.75 -15.25 41.85 -17.4 37.15 -20.55 30.7 -24.8 29.4 -25.7 29.15 -25.85 28.95 -26.0 28.75 -26.2 28.55 -26.35 28.3 -26.5 28.1 -26.65 27.9 -26.85 27.7 -27.0 27.5 -27.15 27.3 -27.35 27.1 -27.5 26.9 -27.7 26.7 -27.9 26.5 -28.1 26.3 -28.25 26.15 -28.45 24.95 -29.8 20.85 -34.0 20.8 -34.05 20.75 -34.1 20.65 -34.25 20.65 -34.25 20.55 -34.3 20.5 -34.35 20.45 -34.4 20.4 -34.45 20.35 -34.5 20.25 -34.5 20.2 -34.55 20.15 -34.55 20.05 -34.55 19.95 -34.55 19.85 -34.55 19.75 -34.5 19.8 -34.4 19.85 -34.3 19.9 -34.2 20.0 -34.15 20.05 -34.05 20.1 -33.95 20.2 -33.8 20.25 -33.75 20.3 -33.7 20.4 -33.6 20.45 -33.5 20.5 -33.4 20.55 -33.3 20.6 -33.2 20.6 -33.1 20.65 -33.0 L20.65 -33.0" fill="#000000" fill-opacity="0.21960784" fill-rule="evenodd" stroke="none"/>
    <path d="M16.1 1.2 Q16.05 1.15 15.95 1.1 16.0 1.1 16.0 1.05 16.05 1.05 16.05 1.05 16.05 1.1 16.05 1.15 16.05 1.15 16.05 1.2 16.05 1.2 16.1 1.2 L16.1 1.2" fill="#fefefe" fill-rule="evenodd" stroke="none"/>
    <path d="M20.65 -33.0 Q20.65 -33.1 20.6 -33.2 20.55 -33.3 20.5 -33.4 20.45 -33.5 20.4 -33.6 20.35 -33.7 20.25 -33.8 20.25 -33.75 20.1 -33.95 20.05 -34.05 20.0 -34.15 19.9 -34.25 19.85 -34.3 19.8 -34.4 19.75 -34.5 19.85 -34.55 19.95 -34.55 20.05 -34.55 20.1 -34.55 20.2 -34.55 20.25 -34.5 20.35 -34.5 20.4 -34.45 20.45 -34.4 20.5 -34.35 20.55 -34.3 20.6 -34.25 20.65 -34.2 20.75 -34.1 20.8 -34.05 20.85 -34.0 25.3 -29.4 26.15 -28.45 26.35 -28.25 26.5 -28.05 26.7 -27.9 26.9 -27.7 27.1 -27.5 27.3 -27.35 27.5 -27.15 27.7 -27.0 27.9 -26.85 28.1 -26.65 28.3 -26.5 28.55 -26.35 28.75 -26.2 28.95 -26.0 29.15 -25.85 29.4 -25.7 30.7 -24.8 37.15 -20.55 41.85 -17.4 44.75 -15.25 44.75 -15.25 44.8 -15.2 44.7 -15.25 44.9 -15.2 44.9 -15.15 44.95 -15.15 44.95 -15.15 45.0 -15.1 45.05 -15.1 45.05 -15.05 45.05 -15.05 45.1 -15.0 45.1 -14.95 45.1 -14.95 45.1 -14.9 45.05 -14.85 44.85 -14.9 44.6 -14.95 44.4 -15.0 44.2 -15.05 44.0 -15.1 43.8 -15.15 43.55 -15.2 43.35 -15.3 43.15 -15.35 42.95 -15.45 42.75 -15.5 42.55 -15.6 42.35 -15.7 42.15 -15.8 42.0 -15.9 41.8 -16.0 30.95 -22.65 25.45 -27.35 25.1 -27.65 24.75 -28.0 24.4 -28.3 24.1 -28.65 23.8 -28.95 23.45 -29.35 23.2 -29.65 22.9 -30.05 22.6 -30.4 22.3 -30.75 22.05 -31.1 21.75 -31.5 21.55 -31.75 21.2 -32.25 20.85 -32.75 20.65 -33.0 L20.65 -33.0" fill="#060606" fill-rule="evenodd" stroke="none"/>
  </g>
</svg>
