<?xml version="1.0" encoding="UTF-8" standalone="no"?>
<svg xmlns:xlink="http://www.w3.org/1999/xlink" height="333.95px" width="274.5px" xmlns="http://www.w3.org/2000/svg">
  <g transform="matrix(1.0, 0.0, 0.0, 1.0, 156.1, 324.15)">
    <path d="M83.95 -204.2 Q83.95 -203.7 83.95 -203.2 83.95 -202.75 83.9 -202.25 83.85 -201.8 83.8 -201.3 83.7 -200.85 83.6 -200.4 83.5 -199.9 83.35 -199.45 83.2 -199.0 83.0 -198.55 82.8 -198.1 82.6 -197.7 82.35 -197.25 82.1 -196.85 81.65 -196.2 81.15 -195.6 80.6 -195.05 80.0 -194.6 79.4 -194.15 78.7 -193.8 78.0 -193.5 77.3 -193.3 76.55 -193.1 75.8 -193.0 75.05 -192.95 74.25 -193.0 73.45 -193.05 72.7 -193.25 71.9 -193.45 71.1 -193.8 70.55 -194.05 70.05 -194.35 69.6 -194.6 69.15 -194.95 68.75 -195.3 68.4 -195.7 68.05 -196.05 67.75 -196.5 67.45 -196.9 67.15 -197.4 66.9 -197.85 66.7 -198.35 66.5 -198.85 66.35 -199.35 66.15 -199.9 66.05 -200.45 65.95 -200.95 65.85 -201.5 65.75 -202.05 65.7 -202.55 65.65 -203.1 65.65 -203.6 65.65 -204.15 65.65 -204.65 65.65 -205.2 65.7 -205.75 65.75 -206.25 65.8 -206.8 65.85 -207.3 65.95 -207.85 66.0 -208.35 66.1 -208.9 66.35 -210.3 66.65 -211.65 66.95 -213.0 67.35 -214.4 67.75 -215.7 68.2 -217.05 68.65 -218.35 69.15 -219.65 69.65 -220.95 70.25 -222.25 70.8 -223.5 71.4 -224.8 72.0 -226.0 72.7 -227.3 73.35 -228.5 74.05 -229.75 74.1 -229.85 74.2 -230.0 74.25 -230.1 74.35 -230.25 74.4 -230.35 74.5 -230.45 74.6 -230.6 74.65 -230.7 74.75 -230.8 74.85 -230.95 74.9 -231.05 75.0 -231.15 75.1 -231.25 75.2 -231.35 75.3 -231.5 75.4 -231.6 75.55 -231.75 75.7 -231.85 75.85 -231.95 76.0 -232.05 76.15 -232.1 76.35 -232.1 76.5 -232.1 76.65 -232.1 76.8 -232.05 76.95 -231.95 77.1 -231.85 77.25 -231.75 77.4 -231.6 77.5 -231.45 77.6 -231.25 77.7 -231.0 77.9 -230.5 78.1 -230.0 78.3 -229.45 78.5 -228.95 78.65 -228.4 78.85 -227.9 79.05 -227.4 79.2 -226.9 79.4 -226.35 79.55 -225.85 79.75 -225.3 79.9 -224.8 80.1 -224.25 80.25 -223.75 80.4 -223.2 80.55 -222.65 80.8 -221.85 81.0 -221.05 81.25 -220.25 81.45 -219.45 81.65 -218.65 81.85 -217.85 82.05 -217.05 82.25 -216.25 82.45 -215.4 82.6 -214.6 82.8 -213.8 82.95 -213.0 83.1 -212.15 83.25 -211.35 83.4 -210.55 83.5 -209.7 83.55 -209.35 83.6 -209.05 83.65 -208.65 83.7 -208.35 83.75 -208.0 83.75 -207.65 83.8 -207.3 83.85 -207.0 83.9 -206.65 83.9 -206.3 83.9 -205.95 83.95 -205.6 83.95 -205.25 83.95 -204.9 83.95 -204.55 83.95 -204.2 L83.95 -204.2 M80.95 -199.55 Q81.05 -199.75 81.15 -199.95 81.2 -200.15 81.3 -200.35 81.35 -200.55 81.4 -200.75 81.5 -200.95 81.5 -201.15 81.55 -201.4 81.6 -201.6 81.65 -201.8 81.65 -202.0 81.7 -202.25 81.7 -202.45 81.7 -202.65 81.75 -202.9 81.75 -203.25 81.75 -203.6 81.75 -203.95 81.75 -204.3 81.75 -204.65 81.75 -205.0 81.75 -205.3 81.75 -205.65 81.7 -206.0 81.7 -206.35 81.65 -206.7 81.65 -207.05 81.6 -207.4 81.55 -207.75 81.5 -208.1 81.45 -208.45 81.05 -211.3 80.85 -212.0 80.85 -212.05 80.85 -212.2 80.8 -212.35 80.8 -212.45 80.65 -213.15 80.5 -213.85 80.35 -214.6 80.2 -215.3 80.05 -216.0 79.85 -216.7 79.7 -217.4 79.5 -218.1 79.35 -218.85 79.15 -219.55 78.95 -220.25 78.75 -220.95 78.55 -221.65 78.35 -222.35 78.15 -223.05 77.95 -223.75 77.65 -224.75 77.05 -226.3 76.3 -228.45 76.15 -228.95 75.6 -228.05 74.0 -225.0 73.4 -223.85 72.85 -222.7 72.3 -221.55 71.85 -220.4 71.35 -219.2 70.9 -218.05 70.45 -216.85 70.05 -215.65 69.65 -214.45 69.35 -213.25 69.0 -212.0 68.75 -210.8 68.45 -209.55 68.25 -208.3 68.05 -207.05 67.9 -205.75 67.9 -205.5 67.85 -205.35 67.85 -205.15 67.85 -204.95 67.85 -204.75 67.8 -204.55 67.8 -204.3 67.8 -204.15 67.8 -203.9 67.8 -203.7 67.85 -203.5 67.85 -203.3 67.85 -203.1 67.9 -202.9 67.95 -202.7 68.0 -202.5 68.0 -202.4 68.0 -202.35 67.95 -202.25 67.95 -202.2 67.95 -202.1 68.0 -202.05 68.0 -201.95 68.0 -201.9 68.0 -201.8 68.0 -201.75 68.05 -201.65 68.05 -201.6 68.05 -201.55 68.1 -201.45 68.1 -201.35 68.1 -201.3 68.2 -200.95 68.25 -200.65 68.35 -200.3 68.45 -200.0 68.55 -199.65 68.65 -199.35 68.8 -199.05 68.95 -198.75 69.1 -198.45 69.25 -198.2 69.4 -197.9 69.6 -197.65 69.8 -197.4 70.05 -197.15 70.3 -196.9 70.55 -196.65 70.9 -196.35 71.35 -196.1 71.75 -195.9 72.2 -195.7 72.65 -195.55 73.15 -195.4 73.6 -195.3 74.1 -195.25 74.6 -195.2 75.05 -195.2 75.55 -195.2 76.0 -195.25 76.45 -195.35 76.9 -195.5 77.35 -195.65 77.7 -195.85 78.0 -196.0 78.3 -196.15 78.6 -196.3 78.85 -196.5 79.1 -196.7 79.3 -196.9 79.55 -197.1 79.75 -197.35 79.95 -197.55 80.1 -197.8 80.3 -198.1 80.45 -198.35 80.6 -198.65 80.7 -198.9 80.85 -199.2 80.95 -199.55 L80.95 -199.55" fill="#080a0c" fill-rule="evenodd" stroke="none"/>
    <path d="M68.0 -202.5 Q67.95 -202.7 67.9 -202.9 67.9 -203.1 67.85 -203.3 67.85 -203.5 67.85 -203.7 67.8 -203.9 67.8 -204.15 67.8 -204.35 67.85 -204.55 67.85 -204.75 67.85 -204.95 67.85 -205.15 67.9 -205.35 67.9 -205.55 67.9 -205.75 68.05 -207.0 68.25 -208.3 68.45 -209.55 68.75 -210.8 69.0 -212.0 69.35 -213.25 69.65 -214.45 70.05 -215.65 70.45 -216.85 70.9 -218.05 71.35 -219.2 71.85 -220.4 72.3 -221.55 72.85 -222.7 73.4 -223.85 74.0 -225.0 75.75 -228.25 76.15 -228.95 77.9 -223.8 77.95 -223.75 78.15 -223.05 78.35 -222.35 78.6 -221.65 78.75 -220.95 78.95 -220.25 79.15 -219.55 79.35 -218.85 79.5 -218.1 79.7 -217.4 79.85 -216.7 80.05 -216.0 80.2 -215.3 80.35 -214.55 80.5 -213.85 80.65 -213.15 80.8 -212.45 80.8 -212.4 80.85 -212.0 80.85 -211.85 80.8 -210.1 80.8 -208.95 80.7 -208.15 80.65 -207.8 80.6 -207.45 80.55 -207.15 80.5 -206.8 80.4 -206.45 80.35 -206.15 80.25 -205.8 80.15 -205.5 80.05 -205.15 79.95 -204.85 79.8 -204.55 79.7 -204.25 79.55 -203.9 79.35 -203.6 79.2 -203.3 79.0 -203.0 78.95 -202.9 78.85 -202.75 78.75 -202.65 78.65 -202.55 78.55 -202.45 78.45 -202.3 78.5 -202.4 78.25 -202.1 78.15 -201.95 78.05 -201.85 77.95 -201.75 77.9 -201.65 77.8 -201.5 77.7 -201.4 77.6 -201.25 77.55 -201.15 77.5 -201.2 77.45 -201.25 77.35 -201.3 77.3 -201.35 77.25 -201.4 77.15 -201.4 77.1 -201.45 77.0 -201.45 76.95 -201.45 76.9 -201.45 76.8 -201.45 76.75 -201.45 76.65 -201.4 76.6 -201.4 76.5 -201.35 76.45 -201.3 76.35 -201.25 76.3 -201.2 76.2 -201.15 76.1 -201.1 76.05 -201.0 76.0 -200.95 75.9 -200.9 75.85 -200.8 75.8 -200.75 75.75 -200.65 75.7 -200.55 75.7 -200.45 75.65 -200.35 75.65 -200.25 75.65 -200.15 75.7 -200.0 75.25 -199.75 74.85 -199.6 74.4 -199.45 74.0 -199.4 73.6 -199.3 73.15 -199.3 72.75 -199.3 72.35 -199.4 71.95 -199.45 71.55 -199.6 71.15 -199.75 70.8 -199.95 70.4 -200.15 70.0 -200.4 69.65 -200.65 69.25 -200.95 69.15 -201.05 69.05 -201.15 69.0 -201.2 68.9 -201.3 68.85 -201.4 68.75 -201.5 68.7 -201.6 68.6 -201.7 68.5 -201.85 68.45 -201.9 68.4 -202.05 68.3 -202.1 68.25 -202.25 68.15 -202.3 68.05 -202.4 68.0 -202.5 L68.0 -202.5" fill="#82c6ed" fill-rule="evenodd" stroke="none"/>
    <path d="M68.0 -202.5 Q68.1 -202.4 68.15 -202.3 68.25 -202.25 68.3 -202.15 68.4 -202.05 68.45 -201.95 68.45 -201.95 68.6 -201.7 68.7 -201.6 68.75 -201.5 68.85 -201.4 68.9 -201.35 69.0 -201.2 69.05 -201.15 69.15 -201.05 69.25 -200.95 69.65 -200.65 70.0 -200.4 70.4 -200.1 70.75 -199.95 71.15 -199.75 71.55 -199.6 71.95 -199.45 72.35 -199.4 72.75 -199.3 73.15 -199.3 73.55 -199.3 74.0 -199.4 74.4 -199.45 74.8 -199.6 75.25 -199.8 75.7 -200.0 75.75 -199.9 75.8 -199.85 75.9 -199.8 75.95 -199.75 76.05 -199.7 76.1 -199.65 76.15 -199.65 76.25 -199.6 76.35 -199.6 76.4 -199.6 76.5 -199.6 76.6 -199.6 76.65 -199.65 76.75 -199.65 76.85 -199.7 76.95 -199.75 77.05 -199.8 77.15 -199.85 77.2 -199.95 77.3 -200.0 77.35 -200.1 77.4 -200.15 77.5 -200.25 77.55 -200.3 77.6 -200.4 77.6 -200.5 77.65 -200.6 77.65 -200.7 77.65 -200.8 77.6 -200.9 77.6 -201.0 77.55 -201.15 77.6 -201.3 77.7 -201.4 77.8 -201.5 77.85 -201.65 77.95 -201.75 78.05 -201.85 78.15 -201.95 78.25 -202.1 78.5 -202.35 78.45 -202.3 78.6 -202.45 78.65 -202.55 78.75 -202.65 78.85 -202.75 78.95 -202.9 79.0 -203.0 79.2 -203.3 79.35 -203.6 79.5 -203.9 79.65 -204.2 79.8 -204.55 79.95 -204.85 80.05 -205.15 80.15 -205.5 80.25 -205.8 80.35 -206.15 80.45 -206.45 80.5 -206.8 80.55 -207.15 80.6 -207.5 80.65 -207.8 80.7 -208.15 80.75 -208.45 80.85 -212.0 81.0 -211.4 81.45 -208.45 81.5 -208.1 81.55 -207.75 81.6 -207.4 81.6 -207.05 81.65 -206.7 81.7 -206.35 81.7 -206.0 81.75 -205.65 81.75 -205.3 81.75 -204.95 81.75 -204.65 81.75 -204.3 81.75 -203.95 81.75 -203.6 81.75 -203.25 81.75 -202.9 81.75 -202.65 81.7 -202.45 81.7 -202.25 81.65 -202.05 81.65 -201.8 81.6 -201.6 81.55 -201.4 81.5 -201.15 81.5 -200.95 81.4 -200.75 81.35 -200.55 81.3 -200.35 81.2 -200.15 81.15 -199.95 81.05 -199.75 80.95 -199.55 80.85 -199.75 80.75 -199.9 80.65 -200.05 80.5 -200.15 80.4 -200.3 80.3 -200.35 80.15 -200.45 80.05 -200.5 79.9 -200.55 79.75 -200.55 79.65 -200.6 79.5 -200.55 79.35 -200.55 79.2 -200.45 79.05 -200.4 78.9 -200.3 78.75 -200.2 78.55 -200.05 78.4 -199.95 78.25 -199.85 78.1 -199.7 77.95 -199.55 77.8 -199.45 77.65 -199.3 77.5 -199.15 77.35 -199.0 77.2 -198.85 77.05 -198.7 76.9 -198.55 76.8 -198.4 76.65 -198.25 76.5 -198.1 76.45 -198.0 76.4 -197.9 76.3 -197.85 76.3 -197.75 76.25 -197.65 76.2 -197.55 76.15 -197.45 76.15 -197.35 76.15 -197.25 76.15 -197.15 76.15 -197.05 76.15 -196.95 76.15 -196.85 76.2 -196.7 76.25 -196.6 76.3 -196.5 76.35 -196.4 76.4 -196.3 76.5 -196.2 76.55 -196.15 76.65 -196.1 76.7 -196.05 76.8 -196.0 76.9 -195.95 77.0 -195.9 77.1 -195.9 77.2 -195.85 77.3 -195.85 77.4 -195.85 77.5 -195.85 77.6 -195.85 77.7 -195.85 77.3 -195.65 76.9 -195.5 76.45 -195.35 76.0 -195.25 75.55 -195.2 75.05 -195.2 74.6 -195.2 74.1 -195.25 73.6 -195.3 73.15 -195.4 72.65 -195.55 72.2 -195.7 71.75 -195.9 71.35 -196.15 70.95 -196.35 70.55 -196.65 70.3 -196.85 70.05 -197.15 69.8 -197.35 69.6 -197.65 69.4 -197.9 69.25 -198.2 69.1 -198.45 68.95 -198.75 68.8 -199.05 68.7 -199.35 68.55 -199.65 68.45 -200.0 68.35 -200.3 68.3 -200.65 68.2 -200.95 68.1 -201.3 68.1 -201.35 68.05 -201.45 68.15 -201.1 68.05 -201.6 68.05 -201.65 68.0 -201.75 68.0 -201.8 68.0 -201.9 68.0 -201.95 67.95 -202.05 67.95 -202.1 67.95 -202.2 67.95 -202.25 67.95 -202.35 67.95 -202.4 68.0 -202.5 L68.0 -202.5" fill="#5494cf" fill-rule="evenodd" stroke="none"/>
    <path d="M77.7 -195.85 Q77.6 -195.85 77.5 -195.85 77.4 -195.85 77.3 -195.85 77.2 -195.85 77.1 -195.9 77.0 -195.9 76.9 -195.95 76.8 -196.0 76.7 -196.05 76.65 -196.1 76.55 -196.15 76.5 -196.2 76.4 -196.3 76.35 -196.4 76.3 -196.5 76.25 -196.6 76.2 -196.7 76.15 -196.8 76.15 -196.95 76.15 -197.05 76.15 -197.15 76.15 -197.25 76.15 -197.35 76.15 -197.45 76.2 -197.55 76.25 -197.65 76.3 -197.75 76.35 -197.8 76.4 -197.9 76.45 -198.0 76.5 -198.1 76.65 -198.25 76.75 -198.4 76.9 -198.55 77.05 -198.7 77.2 -198.85 77.35 -199.0 77.5 -199.15 77.65 -199.3 77.8 -199.45 77.95 -199.55 78.1 -199.7 78.25 -199.85 78.4 -199.95 78.6 -200.1 78.75 -200.2 78.9 -200.3 79.05 -200.4 79.2 -200.45 79.35 -200.5 79.5 -200.55 79.65 -200.55 79.75 -200.55 79.9 -200.55 80.05 -200.5 80.15 -200.45 80.3 -200.35 80.4 -200.25 80.5 -200.15 80.65 -200.05 80.75 -199.85 80.85 -199.7 80.95 -199.55 80.85 -199.25 80.7 -198.95 80.6 -198.65 80.45 -198.35 80.3 -198.1 80.1 -197.85 79.95 -197.55 79.75 -197.35 79.55 -197.1 79.3 -196.9 79.1 -196.65 78.85 -196.5 78.6 -196.3 78.3 -196.15 78.05 -195.95 77.7 -195.85 L77.7 -195.85" fill="#f8f9fb" fill-rule="evenodd" stroke="none"/>
    <path d="M77.55 -201.15 Q77.6 -201.0 77.6 -200.9 77.65 -200.8 77.65 -200.7 77.65 -200.6 77.6 -200.5 77.55 -200.4 77.55 -200.3 77.5 -200.25 77.4 -200.15 77.35 -200.1 77.3 -200.0 77.2 -199.95 77.1 -199.85 77.05 -199.8 76.95 -199.75 76.85 -199.7 76.75 -199.65 76.65 -199.6 76.6 -199.6 76.5 -199.6 76.4 -199.6 76.35 -199.6 76.25 -199.6 76.15 -199.65 76.1 -199.65 76.0 -199.7 75.95 -199.75 75.9 -199.8 75.8 -199.85 75.75 -199.95 75.7 -200.0 75.65 -200.1 75.65 -200.25 75.65 -200.35 75.7 -200.45 75.7 -200.55 75.75 -200.65 75.8 -200.7 75.85 -200.8 75.9 -200.9 76.0 -200.95 76.05 -201.0 76.1 -201.1 76.2 -201.15 76.3 -201.2 76.35 -201.25 76.45 -201.3 76.5 -201.35 76.6 -201.4 76.65 -201.4 76.75 -201.45 76.8 -201.45 76.9 -201.45 76.95 -201.45 77.0 -201.45 77.1 -201.45 77.15 -201.4 77.25 -201.4 77.3 -201.35 77.35 -201.3 77.45 -201.25 77.5 -201.2 77.55 -201.15 L77.55 -201.15" fill="#f8fcfe" fill-rule="evenodd" stroke="none"/>
  </g>
</svg>
