<?xml version="1.0" encoding="UTF-8" standalone="no"?>
<svg xmlns:xlink="http://www.w3.org/1999/xlink" height="300.0px" width="300.0px" xmlns="http://www.w3.org/2000/svg">
  <g transform="matrix(1.0, 0.0, 0.0, 1.0, 150.0, 150.0)">
    <path d="M73.15 -44.15 Q73.15 -44.2 73.1 -44.25 73.1 -44.25 73.05 -44.3 73.05 -44.35 73.0 -44.4 73.0 -44.45 73.0 -44.5 72.95 -44.5 72.95 -44.55 72.9 -44.6 72.9 -44.65 72.85 -44.7 72.85 -44.75 72.85 -44.8 72.8 -44.8 72.8 -44.85 72.8 -44.9 72.8 -44.95 72.75 -44.95 72.75 -45.0 72.7 -45.1 72.7 -45.15 72.65 -45.4 72.65 -45.45 72.65 -45.5 72.65 -45.6 72.6 -45.6 72.6 -45.6 72.6 -45.65 72.6 -45.7 72.6 -45.8 72.6 -45.85 72.6 -45.85 72.65 -45.9 72.65 -45.9 72.65 -46.0 72.7 -46.15 72.7 -46.2 72.7 -46.2 72.75 -46.3 72.8 -46.35 72.8 -46.35 72.8 -46.4 72.8 -46.3 72.85 -46.45 72.85 -46.45 72.9 -46.5 72.9 -46.55 72.95 -46.55 72.95 -46.6 73.0 -46.6 73.0 -46.65 73.05 -46.65 73.05 -46.7 73.1 -46.7 73.1 -46.7 73.15 -46.75 73.2 -46.8 73.25 -46.85 73.5 -47.05 73.7 -47.15 73.7 -47.15 73.75 -47.2 73.8 -47.2 73.9 -47.2 73.95 -47.2 74.05 -47.2 74.1 -47.2 74.2 -47.15 74.25 -47.15 74.3 -47.15 74.4 -47.15 74.45 -47.15 74.5 -47.15 74.6 -47.15 74.65 -47.1 74.75 -47.1 74.8 -47.1 74.85 -47.1 74.9 -47.1 75.05 -47.05 75.05 -47.05 75.05 -47.05 75.1 -47.05 75.1 -47.05 75.25 -47.05 75.45 -47.0 75.65 -46.95 76.15 -46.9 76.3 -46.85 76.4 -46.85 76.55 -46.8 76.7 -46.8 76.85 -46.75 76.95 -46.75 77.1 -46.7 77.25 -46.7 77.35 -46.65 77.5 -46.65 77.65 -46.6 77.8 -46.6 77.95 -46.6 78.05 -46.6 78.2 -46.55 78.35 -46.55 78.35 -46.5 78.35 -46.45 78.35 -46.4 78.4 -46.35 78.4 -46.35 78.45 -46.3 78.45 -46.25 78.5 -46.2 78.5 -46.15 78.55 -46.15 78.5 -46.05 78.45 -45.95 78.4 -45.85 78.4 -45.8 78.35 -45.7 78.35 -45.6 78.3 -45.5 78.3 -45.45 78.3 -45.35 78.25 -45.25 78.25 -45.15 78.25 -45.1 78.25 -45.0 78.3 -44.9 78.3 -44.8 78.3 -44.75 78.35 -44.65 78.4 -44.55 78.35 -44.55 78.35 -44.5 78.25 -44.3 78.05 -43.9 77.8 -43.55 77.75 -43.35 77.65 -43.25 77.55 -42.95 77.55 -42.95 77.55 -42.9 77.55 -42.9 77.55 -42.9 77.55 -42.85 77.5 -42.8 77.5 -42.75 77.5 -42.75 77.45 -42.65 77.4 -42.6 77.4 -42.6 77.4 -42.55 77.35 -42.5 77.2 -42.35 77.2 -42.35 77.2 -42.35 77.2 -42.35 77.2 -42.35 77.15 -42.35 77.1 -42.25 77.05 -42.25 76.9 -42.15 76.9 -42.15 76.85 -42.1 76.8 -42.1 76.75 -42.1 76.7 -42.1 76.7 -42.05 76.65 -42.05 76.6 -42.0 76.55 -42.0 76.55 -42.0 76.45 -41.95 75.9 -41.75 L75.55 -43.3 Q75.5 -43.25 75.45 -43.2 75.4 -43.1 75.35 -43.05 75.3 -43.0 75.25 -42.95 75.2 -42.9 75.15 -42.8 75.1 -42.75 75.05 -42.7 74.95 -42.65 74.9 -42.6 74.85 -42.5 74.8 -42.45 74.7 -42.4 74.65 -42.3 74.6 -42.35 74.55 -42.4 74.2 -42.8 74.0 -42.95 74.0 -42.95 73.55 -43.55 73.5 -43.6 73.4 -43.75 73.4 -43.75 73.35 -43.85 73.3 -43.85 73.35 -43.8 73.3 -43.85 73.25 -43.95 73.2 -44.1 73.15 -44.15 L73.15 -44.15" fill="url(#gradient0)" fill-rule="evenodd" stroke="none"/>
    <path d="M43.6 -86.0 Q43.9 -86.6 44.25 -87.2 44.6 -87.75 44.95 -88.3 45.3 -88.8 45.7 -89.25 46.05 -89.7 46.4 -90.1 46.75 -90.5 47.1 -90.85 47.4 -91.15 47.75 -91.45 48.0 -91.65 48.3 -91.9 48.45 -92.05 48.7 -92.25 49.15 -92.6 49.6 -92.95 50.05 -93.25 50.55 -93.55 50.95 -93.8 51.4 -94.05 51.85 -94.3 52.25 -94.5 52.65 -94.7 53.05 -94.85 53.4 -95.0 53.8 -95.15 54.15 -95.25 54.5 -95.35 54.8 -95.45 55.1 -95.55 55.8 -95.5 56.45 -95.5 57.1 -95.45 57.75 -95.4 58.4 -95.4 59.0 -95.35 59.6 -95.3 60.2 -95.25 60.75 -95.2 61.3 -95.2 61.8 -95.15 62.3 -95.1 62.8 -95.05 63.25 -95.0 63.7 -94.95 64.15 -94.95 64.9 -94.85 65.5 -94.8 66.15 -94.75 66.65 -94.65 67.15 -94.6 67.55 -94.55 67.9 -94.5 68.25 -94.4 68.55 -94.35 68.8 -94.3 69.05 -94.2 69.3 -94.15 69.5 -94.05 69.7 -94.0 69.85 -93.9 70.05 -93.8 70.7 -93.45 71.3 -93.05 71.85 -92.65 72.4 -92.15 72.9 -91.75 73.35 -91.2 73.75 -90.75 74.15 -90.25 74.45 -89.8 74.8 -89.3 75.05 -88.85 75.3 -88.4 75.5 -88.0 75.7 -87.65 75.85 -87.3 76.0 -87.0 76.2 -86.55 76.35 -86.1 76.5 -85.7 76.65 -85.25 76.75 -84.85 76.85 -84.45 76.95 -84.05 77.05 -83.7 77.1 -83.3 77.15 -82.95 77.2 -82.6 77.25 -82.3 77.3 -82.0 77.3 -81.7 77.35 -81.4 77.35 -81.15 77.5 -81.15 77.6 -81.1 77.75 -81.1 77.9 -81.1 78.05 -81.05 78.2 -81.05 78.35 -81.0 78.55 -81.0 78.7 -80.95 78.9 -80.95 79.1 -80.9 79.3 -80.9 79.5 -80.85 79.7 -80.8 79.9 -80.8 80.1 -80.75 81.15 -80.55 81.6 -80.45 82.4 -80.3 83.0 -80.2 83.65 -80.05 84.2 -79.9 84.8 -79.75 85.3 -79.55 85.85 -79.4 86.3 -79.2 86.75 -79.0 87.2 -78.75 87.6 -78.5 88.0 -78.2 88.4 -77.9 88.75 -77.55 89.15 -77.1 89.55 -76.6 89.9 -76.15 90.15 -75.6 90.45 -75.15 90.65 -74.6 90.85 -74.1 91.05 -73.55 91.2 -73.05 91.3 -72.55 91.4 -72.1 91.5 -71.65 91.55 -71.25 91.6 -70.8 91.65 -70.55 91.7 -70.15 91.8 -69.45 91.8 -68.8 91.85 -68.15 91.8 -67.55 91.75 -66.9 91.7 -66.3 91.6 -65.7 91.5 -65.1 91.35 -64.5 91.2 -63.85 91.05 -63.3 90.85 -62.65 90.65 -62.1 90.45 -61.4 90.3 -60.9 90.0 -60.05 89.85 -59.6 89.7 -59.2 89.5 -58.75 89.35 -58.25 89.15 -57.75 88.95 -57.3 88.7 -56.75 88.5 -56.25 88.25 -55.7 87.95 -55.15 87.7 -54.55 87.4 -54.0 87.1 -53.4 86.75 -52.8 86.4 -52.2 86.05 -51.6 86.0 -51.75 85.9 -52.2 85.85 -52.35 85.75 -52.65 85.65 -52.95 85.6 -53.1 85.6 -53.15 85.55 -53.2 85.55 -53.25 85.5 -53.3 85.5 -53.4 85.45 -53.45 85.4 -53.5 85.4 -53.55 85.35 -53.6 85.35 -53.65 85.3 -53.7 85.25 -53.75 85.25 -53.75 85.2 -53.8 85.15 -53.85 85.1 -53.9 85.1 -53.95 85.05 -54.0 85.05 -54.05 85.0 -54.1 85.0 -54.15 84.95 -54.2 84.95 -54.25 84.9 -54.3 84.9 -54.3 84.85 -54.35 84.8 -54.4 84.75 -54.45 84.75 -54.45 84.7 -54.5 84.65 -54.5 84.6 -54.55 84.5 -54.6 84.4 -54.65 84.3 -54.65 84.25 -54.65 84.15 -54.65 84.05 -54.65 83.95 -54.65 83.85 -54.65 83.75 -54.6 83.65 -54.6 83.55 -54.55 83.5 -54.5 83.4 -54.45 83.3 -54.4 83.2 -54.35 83.15 -54.25 83.1 -54.25 83.1 -54.2 83.05 -54.2 83.05 -54.2 83.05 -54.15 83.0 -54.15 83.0 -54.1 82.95 -54.1 82.95 -54.05 82.9 -54.05 82.9 -54.0 82.85 -54.0 82.85 -53.95 82.85 -53.95 82.8 -53.9 82.8 -53.9 82.8 -53.9 82.75 -53.85 82.65 -53.75 82.6 -53.7 82.55 -53.6 82.45 -53.5 82.4 -53.4 82.35 -53.3 82.3 -53.2 82.25 -53.1 82.15 -53.0 82.1 -52.9 82.05 -52.8 82.0 -52.7 81.95 -52.6 81.9 -52.5 81.9 -52.4 81.85 -52.25 81.8 -52.2 81.8 -52.2 81.8 -52.15 81.75 -52.1 81.75 -52.1 81.75 -52.05 81.7 -52.05 81.7 -52.0 81.65 -52.0 81.6 -51.95 81.6 -51.95 81.55 -51.9 81.55 -51.85 81.55 -51.85 81.5 -51.75 81.4 -51.6 81.35 -51.5 81.3 -51.4 81.25 -51.3 81.2 -51.15 81.1 -51.05 81.05 -50.9 81.0 -50.8 80.95 -50.7 80.9 -50.55 80.85 -50.45 80.85 -50.3 80.8 -50.2 80.75 -50.1 80.7 -49.95 80.7 -49.9 80.65 -49.85 80.65 -49.75 80.65 -49.7 80.7 -49.65 80.7 -49.6 80.7 -49.55 80.75 -49.5 80.75 -49.45 80.8 -49.4 80.85 -49.35 80.9 -49.3 80.95 -49.3 80.95 -49.25 81.0 -49.2 81.05 -49.2 81.1 -49.2 81.15 -49.2 81.2 -49.15 81.25 -49.2 81.3 -49.2 81.35 -49.2 81.4 -49.25 81.45 -49.25 81.5 -49.3 81.55 -49.35 81.55 -49.4 81.6 -49.4 81.65 -49.45 81.65 -49.5 81.7 -49.55 81.7 -49.65 81.7 -49.6 81.75 -49.7 81.75 -49.75 81.75 -49.75 81.8 -49.8 81.85 -50.0 81.85 -50.05 81.9 -50.1 81.95 -50.2 81.95 -50.25 82.0 -50.25 82.05 -50.3 82.05 -50.35 82.1 -50.35 82.15 -50.4 82.15 -50.45 82.2 -50.45 82.2 -50.5 82.2 -50.55 82.25 -50.55 82.25 -50.6 82.3 -50.65 82.3 -50.65 82.3 -50.7 82.35 -50.75 82.35 -50.8 82.35 -50.8 82.4 -50.85 82.4 -50.9 82.4 -50.9 82.45 -50.95 82.45 -51.0 82.45 -51.0 82.5 -51.05 82.5 -51.1 82.55 -51.1 82.55 -51.15 82.55 -51.2 82.6 -51.2 82.6 -51.25 82.6 -51.3 82.65 -51.3 82.65 -51.35 82.65 -51.4 82.65 -51.45 82.7 -51.5 82.7 -51.5 82.7 -51.55 82.7 -51.6 82.75 -51.65 82.75 -51.7 82.8 -51.7 82.8 -51.75 82.8 -51.75 82.8 -51.8 82.85 -51.8 82.85 -51.8 82.85 -51.85 82.85 -51.85 82.85 -51.85 82.9 -51.9 82.95 -51.95 83.0 -52.05 83.15 -52.3 83.2 -52.3 83.25 -52.4 83.25 -52.4 83.25 -52.45 83.3 -52.45 83.3 -52.5 83.35 -52.5 83.3 -52.5 83.35 -52.5 83.4 -52.55 83.4 -52.55 83.45 -52.6 83.45 -52.6 83.5 -52.65 83.5 -52.65 83.55 -52.65 83.6 -52.7 83.65 -52.7 83.65 -52.7 83.65 -52.7 83.7 -52.75 83.75 -52.75 83.75 -52.75 83.8 -52.8 83.85 -52.8 83.9 -52.8 83.9 -52.8 83.9 -52.8 83.95 -52.8 84.0 -52.8 84.05 -52.8 84.1 -52.8 84.1 -52.8 84.1 -52.8 84.1 -52.8 84.2 -52.75 84.2 -52.75 84.25 -52.75 84.3 -52.75 84.35 -52.7 84.35 -52.7 84.35 -52.7 84.4 -52.7 84.4 -52.7 84.4 -52.65 84.45 -52.65 84.45 -52.65 84.5 -52.6 84.55 -52.6 84.6 -52.55 84.6 -52.55 84.65 -52.55 84.65 -52.55 84.65 -52.5 84.7 -52.4 84.8 -52.1 85.2 -50.6 85.25 -50.4 85.25 -50.4 85.25 -50.35 85.0 -49.95 84.6 -49.4 84.85 -49.45 85.4 -49.6 85.4 -49.55 85.4 -49.55 85.4 -49.5 85.45 -49.45 85.45 -49.45 85.45 -49.4 85.45 -49.3 85.45 -49.2 85.45 -49.15 85.45 -49.1 85.45 -49.05 85.45 -49.0 85.45 -48.95 85.45 -48.9 85.45 -48.9 85.45 -48.85 85.45 -48.8 85.45 -48.75 85.45 -48.65 85.45 -48.5 85.45 -48.45 85.45 -48.4 85.45 -48.4 85.45 -48.35 85.45 -48.3 85.4 -48.2 85.4 -48.05 85.35 -48.05 85.35 -48.0 85.35 -47.95 85.35 -47.95 85.35 -47.95 85.35 -47.95 85.35 -47.9 85.3 -47.85 85.3 -47.85 85.3 -47.85 85.25 -47.8 85.25 -47.8 85.25 -47.8 85.25 -47.8 85.2 -47.8 85.2 -47.75 85.2 -47.75 85.15 -47.75 85.1 -47.8 85.05 -47.8 85.0 -47.85 84.95 -47.85 84.9 -47.9 84.85 -47.9 84.85 -47.9 84.8 -47.9 84.75 -47.9 84.7 -47.9 84.65 -47.95 84.6 -47.95 84.55 -47.95 84.5 -47.95 84.45 -47.95 84.45 -47.95 84.4 -47.95 84.35 -47.95 84.3 -47.95 84.05 -47.95 83.55 -47.95 83.05 -47.95 82.85 -47.95 82.7 -47.95 82.5 -48.0 82.4 -48.0 82.45 -48.0 82.4 -48.0 82.4 -48.0 82.3 -48.05 82.15 -48.05 82.1 -48.05 82.05 -48.05 82.0 -48.05 81.95 -48.05 81.9 -48.1 81.85 -48.1 81.8 -48.1 81.75 -48.1 81.7 -48.1 81.7 -48.1 81.65 -48.1 81.6 -48.1 81.55 -48.1 81.5 -48.1 81.45 -48.1 81.4 -48.1 81.35 -48.1 81.3 -48.1 81.25 -48.1 81.2 -48.05 81.15 -48.05 81.15 -48.0 81.1 -48.0 81.05 -47.95 81.0 -47.9 81.0 -47.85 80.9 -47.9 80.85 -47.95 80.75 -47.95 80.7 -48.0 80.6 -48.0 80.5 -48.05 80.4 -48.05 80.35 -48.05 80.25 -48.1 80.15 -48.1 80.05 -48.1 80.0 -48.05 79.9 -48.05 79.8 -48.05 79.75 -48.0 79.65 -48.0 79.6 -48.0 79.6 -47.95 79.55 -47.95 79.5 -47.9 79.5 -47.9 79.45 -47.85 79.4 -47.85 79.4 -47.85 79.35 -47.8 79.35 -47.75 79.3 -47.8 79.3 -47.8 79.25 -47.85 79.2 -47.85 79.2 -47.9 79.15 -47.9 79.15 -47.95 79.1 -47.95 79.05 -47.95 79.05 -47.95 79.0 -48.0 78.9 -48.05 78.85 -48.1 78.8 -48.15 78.7 -48.2 78.65 -48.25 78.55 -48.3 78.5 -48.35 78.4 -48.35 78.35 -48.4 78.25 -48.45 78.15 -48.45 78.1 -48.45 78.0 -48.5 77.95 -48.5 77.85 -48.5 77.65 -48.55 76.35 -48.7 75.8 -48.75 74.35 -48.75 74.2 -48.75 74.1 -48.75 73.95 -48.75 73.85 -48.75 73.75 -48.75 73.6 -48.75 73.5 -48.75 73.35 -48.75 73.25 -48.75 73.15 -48.75 73.0 -48.75 72.9 -48.7 72.75 -48.7 72.65 -48.7 72.55 -48.65 72.4 -48.65 72.2 -48.6 72.0 -48.55 71.8 -48.5 71.65 -48.4 71.45 -48.3 71.3 -48.2 71.1 -48.05 70.95 -47.9 70.8 -47.75 70.7 -47.6 70.55 -47.45 70.5 -47.25 70.4 -47.05 70.35 -46.8 70.35 -46.6 70.35 -46.35 70.35 -46.2 70.4 -46.1 70.4 -45.95 70.45 -45.85 70.45 -45.7 70.5 -45.6 70.55 -45.45 70.6 -45.35 70.65 -45.2 70.7 -45.1 70.7 -44.95 70.8 -44.85 70.85 -44.75 70.9 -44.6 70.95 -44.5 71.0 -44.4 71.05 -44.3 71.1 -44.2 71.15 -44.1 71.25 -44.0 71.3 -43.9 71.35 -43.8 71.4 -43.7 71.5 -43.6 71.55 -43.5 71.65 -43.4 71.7 -43.3 71.75 -43.2 71.85 -43.1 71.9 -43.0 72.0 -42.9 72.05 -42.8 72.75 -42.0 73.25 -41.5 73.25 -41.5 73.25 -41.5 73.2 -41.45 73.15 -41.45 73.1 -41.4 73.1 -41.4 73.05 -41.35 73.0 -41.3 72.95 -41.3 72.9 -41.25 72.85 -41.25 72.8 -41.2 72.75 -41.2 72.7 -41.15 72.65 -41.1 72.6 -41.1 72.55 -41.05 72.5 -41.05 72.2 -40.9 71.9 -40.8 71.6 -40.65 71.35 -40.6 71.05 -40.5 70.75 -40.45 70.5 -40.4 70.2 -40.35 69.9 -40.3 69.6 -40.3 69.35 -40.25 69.0 -40.25 68.75 -40.25 68.4 -40.25 68.15 -40.25 67.75 -40.2 67.05 -40.2 66.75 -40.2 66.25 -40.2 65.85 -40.2 65.45 -40.25 65.1 -40.25 64.7 -40.3 64.4 -40.35 64.05 -40.35 63.75 -40.45 63.45 -40.5 63.15 -40.6 62.9 -40.7 62.6 -40.85 62.35 -40.95 62.1 -41.15 61.65 -41.45 61.3 -41.8 60.95 -42.1 60.6 -42.5 60.3 -42.9 60.05 -43.3 59.8 -43.7 59.6 -44.1 59.4 -44.5 59.25 -44.9 59.1 -45.25 59.0 -45.65 58.9 -45.95 58.8 -46.3 58.75 -46.55 58.65 -46.8 58.35 -46.8 58.1 -46.85 57.75 -46.85 57.45 -46.9 57.1 -46.95 56.75 -47.0 56.4 -47.05 56.0 -47.15 55.6 -47.25 55.2 -47.35 54.75 -47.45 54.35 -47.65 53.9 -47.8 53.45 -48.0 53.0 -48.2 52.55 -48.45 51.85 -48.85 51.15 -49.35 50.55 -49.8 49.95 -50.35 49.4 -50.85 48.9 -51.4 48.45 -51.9 48.0 -52.5 47.6 -53.0 47.25 -53.6 46.9 -54.1 46.6 -54.65 46.3 -55.15 46.05 -55.65 45.85 -56.05 45.55 -56.55 45.1 -57.45 44.75 -58.35 44.4 -59.2 44.1 -60.1 43.85 -60.95 43.6 -61.9 43.4 -62.75 43.25 -63.7 43.1 -64.6 42.95 -65.65 42.85 -66.55 42.75 -67.65 42.7 -68.6 42.6 -69.85 42.55 -70.6 42.45 -72.2 42.35 -73.7 42.3 -74.55 42.2 -75.75 42.2 -76.6 42.15 -77.65 42.15 -78.5 42.15 -79.4 42.2 -80.15 42.2 -81.0 42.3 -81.7 42.45 -82.5 42.6 -83.2 42.75 -83.9 43.0 -84.6 43.25 -85.3 43.6 -86.0 L43.6 -86.0" fill="url(#gradient1)" fill-rule="evenodd" stroke="none"/>
    <path d="M99.15 -11.95 Q99.15 -11.9 99.2 -11.9 99.2 -11.85 99.25 -11.85 99.25 -11.8 99.3 -11.8 99.3 -11.75 99.35 -11.75 99.35 -11.75 99.4 -11.7 99.4 -11.7 99.45 -11.7 99.45 -11.7 99.5 -11.65 99.55 -11.65 99.55 -11.65 100.0 -10.75 100.3 -10.3 100.35 -10.25 100.4 -10.15 100.45 -10.1 100.45 -10.0 100.5 -9.95 100.55 -9.9 100.6 -9.8 100.65 -9.75 100.7 -9.7 100.75 -9.65 100.85 -9.55 100.9 -9.5 100.95 -9.45 101.0 -9.4 101.05 -9.35 101.15 -9.3 101.25 -9.25 101.3 -9.2 101.4 -9.2 101.45 -9.15 101.55 -9.15 101.6 -9.1 101.7 -9.1 101.8 -9.1 101.85 -9.1 101.95 -9.1 102.05 -9.1 102.1 -9.15 102.2 -9.15 102.3 -9.2 102.35 -9.25 102.45 -9.3 102.5 -9.35 102.6 -9.4 102.65 -9.4 102.7 -9.45 102.8 -9.5 102.85 -9.6 102.9 -9.65 102.95 -9.7 103.0 -9.75 103.1 -9.8 103.15 -9.9 103.2 -9.95 103.25 -10.0 103.3 -10.1 103.35 -10.15 103.4 -10.2 103.6 -10.45 103.85 -10.85 103.9 -10.95 104.0 -11.1 104.0 -11.15 104.05 -11.15 104.05 -11.15 104.05 -11.2 104.05 -11.2 104.1 -11.3 104.15 -11.4 104.2 -11.45 104.25 -11.55 104.3 -11.6 104.35 -11.7 104.4 -11.8 104.45 -11.85 104.5 -11.95 104.55 -12.05 104.6 -12.1 104.65 -12.2 104.7 -12.3 104.75 -12.35 104.8 -12.45 104.8 -12.55 104.85 -12.65 104.9 -12.8 105.05 -13.0 105.15 -13.3 105.2 -13.3 105.2 -13.35 105.25 -13.4 105.25 -13.4 105.25 -13.45 105.3 -13.5 105.3 -13.5 105.3 -13.55 105.35 -13.6 105.35 -13.6 105.4 -13.65 105.4 -13.7 105.45 -13.75 105.45 -13.75 105.5 -13.8 105.4 -13.7 105.5 -13.85 105.65 -14.0 105.75 -14.1 105.75 -14.15 105.8 -14.2 105.8 -14.2 105.8 -14.2 105.8 -14.2 105.85 -14.25 105.9 -14.25 105.95 -14.3 106.0 -14.3 106.0 -14.35 106.05 -14.35 106.1 -14.4 106.1 -14.4 106.1 -14.4 106.1 -14.4 106.1 -14.4 106.15 -14.4 106.15 -14.4 106.2 -14.4 106.2 -14.45 106.25 -14.45 106.45 -14.5 106.5 -14.5 106.5 -14.5 106.5 -14.5 106.6 -14.5 106.6 -14.4 106.6 -14.35 106.6 -14.25 106.65 -14.05 106.65 -14.05 106.65 -13.95 106.65 -13.95 106.65 -13.85 106.7 -13.7 106.75 -13.35 106.75 -13.05 106.85 -12.25 106.85 -12.0 106.9 -11.2 106.9 -11.15 106.9 -11.1 106.9 -11.05 106.9 -11.0 106.9 -10.95 106.9 -10.9 106.9 -10.9 106.9 -10.85 106.9 -10.85 106.9 -10.75 106.85 -10.65 106.85 -10.65 106.85 -10.6 106.85 -10.6 106.85 -10.55 106.85 -10.5 106.8 -10.25 106.75 -10.1 106.7 -9.9 106.4 -8.6 106.35 -8.4 106.3 -8.15 106.25 -7.95 106.25 -7.7 106.2 -7.5 106.15 -7.3 106.15 -7.05 106.1 -6.85 106.1 -6.6 106.1 -6.4 106.05 -6.15 106.05 -5.95 106.05 -5.75 106.05 -5.5 106.05 -5.3 106.05 -5.05 106.05 -5.0 106.05 -4.95 106.05 -4.95 106.05 -4.9 106.05 -4.85 106.1 -4.8 106.1 -4.75 106.1 -4.75 106.15 -4.7 106.15 -4.7 106.15 -4.65 106.2 -4.6 106.25 -4.6 106.25 -4.55 106.3 -4.55 106.3 -4.55 106.35 -4.5 106.35 -4.45 106.4 -4.4 106.45 -4.35 106.5 -4.3 106.55 -4.3 106.6 -4.25 106.65 -4.25 106.7 -4.2 106.75 -4.2 106.8 -4.15 106.85 -4.15 106.9 -4.15 106.95 -4.1 107.0 -4.1 107.05 -4.1 107.25 -4.05 107.45 -4.15 107.6 -4.2 107.7 -4.3 107.85 -4.4 107.9 -4.55 108.0 -4.7 108.05 -4.95 108.1 -5.1 108.1 -5.35 108.15 -5.5 108.15 -5.75 108.15 -5.95 108.15 -6.15 108.15 -6.3 108.15 -6.55 108.15 -6.85 108.15 -7.4 108.15 -8.0 108.1 -8.25 108.1 -8.85 108.05 -9.75 108.05 -9.8 108.05 -9.9 108.05 -9.95 108.1 -10.0 108.1 -10.1 108.1 -10.15 108.1 -10.2 108.1 -10.3 108.1 -10.35 108.1 -10.4 108.1 -10.5 108.1 -10.55 108.1 -10.6 108.1 -10.7 108.1 -10.75 108.1 -10.8 108.1 -10.85 108.1 -10.85 108.1 -10.85 108.1 -10.85 108.1 -10.9 108.1 -10.95 108.1 -11.0 108.1 -11.05 108.1 -11.1 108.05 -11.1 108.05 -11.15 108.05 -11.2 108.0 -11.25 108.0 -11.25 108.0 -11.35 108.0 -11.6 108.0 -11.65 108.0 -11.7 107.95 -11.75 107.95 -11.8 107.95 -11.85 107.9 -11.9 107.85 -12.7 107.75 -13.8 107.8 -13.8 107.95 -13.75 107.95 -13.75 108.0 -13.7 108.0 -13.7 108.1 -13.65 108.15 -13.6 108.3 -13.55 108.35 -13.5 108.5 -13.4 108.6 -13.3 108.65 -13.25 108.9 -13.05 109.25 -12.75 109.75 -12.35 109.9 -12.25 109.9 -12.2 109.95 -12.15 110.0 -12.05 110.05 -11.95 110.1 -11.9 110.15 -11.8 110.2 -11.7 110.25 -11.6 110.3 -11.55 110.35 -11.45 110.4 -11.35 110.45 -11.25 110.5 -11.2 110.55 -11.1 110.65 -11.0 110.7 -10.9 110.75 -10.85 110.8 -10.75 110.85 -10.65 111.0 -10.5 111.1 -10.3 111.15 -10.25 111.2 -10.2 111.2 -10.2 111.25 -10.15 111.25 -10.1 111.25 -10.1 111.3 -10.05 111.4 -9.85 111.45 -9.8 111.55 -9.6 111.6 -9.5 111.6 -9.5 111.6 -9.45 111.6 -9.4 111.65 -9.4 111.65 -9.35 111.65 -9.3 111.65 -9.25 111.7 -9.2 111.7 -9.15 111.7 -9.1 111.7 -9.1 111.7 -9.05 111.7 -9.05 111.7 -9.05 111.7 -8.85 111.7 -8.75 111.7 -8.7 111.7 -8.65 111.7 -8.55 111.75 -8.5 111.75 -8.45 111.8 -8.4 111.8 -8.35 111.85 -8.3 111.9 -8.25 111.95 -8.25 112.0 -8.2 112.05 -8.15 112.1 -8.15 112.15 -8.15 112.2 -8.1 112.25 -8.15 112.3 -8.15 112.4 -8.15 112.45 -8.2 112.55 -8.2 112.6 -8.2 112.65 -8.25 112.7 -8.3 112.75 -8.3 112.85 -8.35 112.9 -8.4 112.95 -8.45 113.0 -8.5 113.0 -8.6 113.05 -8.65 113.1 -8.75 113.1 -8.8 113.1 -8.85 113.15 -8.9 113.15 -8.95 113.15 -9.0 113.15 -9.1 113.15 -9.15 113.15 -9.2 113.15 -9.25 113.15 -9.3 113.15 -9.35 113.15 -9.4 113.15 -9.45 113.15 -9.5 113.1 -9.6 113.1 -9.65 113.1 -9.7 113.05 -9.8 113.05 -9.9 113.0 -9.95 112.95 -10.05 112.9 -10.15 112.85 -10.2 112.85 -10.3 112.8 -10.4 112.75 -10.45 112.7 -10.55 112.65 -10.65 112.6 -10.7 112.55 -10.8 112.5 -10.85 112.45 -10.95 112.4 -11.05 112.35 -11.05 112.35 -11.1 112.3 -11.15 112.3 -11.15 112.3 -11.15 112.2 -11.25 112.2 -11.25 112.2 -11.3 112.2 -11.3 112.2 -11.3 112.1 -11.5 111.9 -11.75 111.6 -12.3 111.4 -12.7 111.3 -12.8 111.25 -12.95 111.15 -13.05 111.05 -13.15 110.95 -13.3 110.9 -13.4 110.8 -13.5 110.7 -13.6 110.6 -13.7 110.5 -13.8 110.4 -13.9 110.3 -14.0 110.2 -14.1 110.1 -14.2 110.0 -14.3 109.9 -14.4 109.85 -14.45 109.75 -14.55 109.8 -14.5 109.9 -14.5 109.95 -14.5 110.0 -14.45 110.1 -14.45 110.15 -14.4 110.25 -14.4 110.3 -14.35 110.35 -14.35 110.45 -14.35 110.5 -14.3 110.6 -14.3 110.65 -14.3 110.7 -14.3 110.8 -14.25 110.85 -14.25 110.9 -14.25 111.0 -14.25 111.05 -14.25 111.15 -14.2 111.2 -14.2 111.25 -14.2 111.35 -14.2 111.4 -14.2 111.45 -14.2 111.55 -14.2 111.6 -14.2 111.7 -14.2 111.75 -14.2 111.8 -14.25 111.9 -14.25 111.95 -14.25 112.05 -14.25 112.1 -14.25 112.15 -14.3 112.25 -14.3 112.3 -14.3 112.4 -14.35 112.45 -14.35 112.5 -14.4 112.6 -14.4 112.65 -14.45 112.7 -14.5 112.8 -14.5 112.85 -14.55 112.9 -14.6 112.95 -14.65 113.05 -14.7 113.1 -14.65 113.15 -14.6 113.2 -14.55 113.2 -14.5 113.25 -14.45 113.3 -14.4 113.35 -14.35 113.4 -14.3 113.45 -14.25 113.45 -14.2 113.5 -14.15 113.55 -14.1 113.6 -14.05 113.6 -14.0 113.65 -13.95 113.7 -13.9 114.0 -13.5 114.25 -13.15 114.45 -12.8 114.65 -12.4 114.85 -12.15 115.05 -11.75 115.65 -10.55 115.4 -11.05 115.6 -10.65 115.75 -10.35 116.0 -10.0 116.2 -9.65 116.45 -9.25 116.75 -8.9 117.1 -8.45 117.45 -8.05 117.7 -7.8 117.8 -7.65 118.0 -7.45 118.2 -7.25 118.4 -7.05 118.55 -6.85 118.75 -6.65 118.95 -6.5 119.2 -6.3 119.4 -6.15 119.65 -5.95 119.9 -5.8 120.15 -5.65 120.4 -5.5 120.65 -5.4 120.95 -5.25 121.2 -5.15 121.3 -5.1 121.55 -5.05 121.75 -4.95 122.0 -4.9 122.25 -4.85 122.55 -4.75 122.8 -4.75 123.15 -4.7 123.45 -4.7 123.8 -4.7 124.1 -4.75 124.45 -4.75 124.8 -4.9 125.2 -5.0 125.55 -5.15 125.85 -5.3 126.1 -5.5 126.35 -5.65 126.6 -5.85 126.85 -6.05 127.05 -6.25 127.2 -6.45 127.4 -6.7 127.55 -6.85 127.7 -7.1 127.8 -7.25 127.9 -7.45 128.0 -7.6 128.1 -7.8 128.15 -7.9 128.25 -8.05 128.4 -7.75 128.6 -7.45 128.75 -7.15 128.9 -6.85 129.0 -6.6 129.15 -6.3 129.25 -6.05 129.35 -5.75 129.45 -5.5 129.55 -5.25 129.65 -5.0 129.7 -4.75 129.75 -4.55 129.85 -4.35 129.9 -4.15 129.95 -3.95 130.05 -3.55 130.05 -3.45 130.15 -3.15 130.2 -2.85 130.25 -2.5 130.3 -2.2 130.35 -1.85 130.4 -1.5 130.45 -1.1 130.45 -0.7 130.45 -0.3 130.45 0.1 130.4 0.55 130.35 1.0 130.3 1.5 130.2 1.95 130.1 2.3 130.0 2.65 129.95 2.95 129.8 3.25 129.7 3.55 129.6 3.85 129.45 4.1 129.35 4.35 129.25 4.55 129.1 4.8 129.0 5.0 128.9 5.15 128.8 5.3 128.7 5.5 128.6 5.6 128.5 5.75 128.1 6.3 127.65 6.85 127.2 7.3 126.75 7.7 126.3 8.1 125.8 8.4 125.35 8.75 124.9 9.0 124.45 9.2 124.0 9.4 123.65 9.6 123.25 9.7 122.9 9.85 122.55 9.95 122.3 10.0 122.05 10.05 122.1 10.15 122.15 10.25 122.25 10.4 122.3 10.5 122.4 10.65 122.5 10.8 122.6 10.95 122.75 11.1 122.85 11.3 123.0 11.45 123.2 11.6 123.35 11.75 123.55 11.9 123.75 12.05 123.95 12.2 124.2 12.3 124.35 12.4 124.5 12.45 124.65 12.5 124.8 12.55 124.9 12.6 125.05 12.65 125.2 12.7 125.3 12.75 125.45 12.75 125.55 12.8 125.65 12.8 125.8 12.8 125.9 12.8 126.0 12.85 126.1 12.85 126.15 12.85 125.95 13.0 125.75 13.15 125.5 13.3 125.3 13.45 125.05 13.65 124.8 13.8 124.55 14.0 124.25 14.15 123.95 14.35 123.7 14.5 123.35 14.65 123.05 14.85 122.7 15.0 122.4 15.2 122.05 15.35 121.7 15.5 121.2 15.7 120.95 15.85 120.55 16.0 120.15 16.15 119.7 16.35 119.3 16.5 118.8 16.65 118.35 16.8 117.85 16.95 117.35 17.05 116.8 17.15 116.25 17.2 115.7 17.25 115.15 17.3 114.55 17.3 113.95 17.25 113.1 17.2 112.25 17.0 111.5 16.8 110.75 16.55 110.05 16.3 109.35 15.95 108.75 15.6 108.15 15.25 107.6 14.9 107.1 14.5 106.65 14.2 106.25 13.8 105.9 13.5 105.55 13.2 105.35 13.0 105.1 12.75 104.4 12.05 103.8 11.3 103.25 10.55 102.75 9.75 102.25 9.05 101.85 8.25 101.5 7.5 101.15 6.7 100.85 5.95 100.6 5.2 100.4 4.5 100.15 3.75 100.0 3.1 99.8 2.35 99.7 1.95 99.5 1.1 99.3 0.15 99.1 -0.85 98.95 -1.8 98.85 -2.75 98.75 -3.65 98.7 -4.55 98.65 -5.4 98.65 -6.25 98.65 -7.05 98.65 -7.9 98.7 -8.65 98.75 -9.4 98.8 -10.1 98.9 -10.8 99.0 -11.4 99.1 -12.05 99.1 -12.05 99.1 -12.0 99.15 -12.0 99.15 -11.95 L99.15 -11.95" fill="url(#gradient2)" fill-rule="evenodd" stroke="none"/>
    <path d="M76.8 -37.95 L76.5 -39.35 Q76.55 -39.35 76.6 -39.35 76.65 -39.35 76.7 -39.35 76.7 -39.4 76.75 -39.4 76.8 -39.4 76.85 -39.4 76.9 -39.45 76.95 -39.45 77.0 -39.45 77.0 -39.5 77.05 -39.5 77.1 -39.55 77.15 -39.55 77.2 -39.6 77.35 -39.7 77.45 -39.8 77.55 -39.9 77.65 -40.05 77.75 -40.15 77.85 -40.3 77.95 -40.45 78.0 -40.6 78.1 -40.7 78.15 -40.9 78.25 -41.05 78.3 -41.2 78.35 -41.35 78.4 -41.5 78.45 -41.65 78.5 -41.85 78.6 -42.1 78.8 -42.75 78.8 -42.75 78.85 -42.8 78.9 -42.95 79.1 -43.3 79.3 -43.6 79.35 -43.8 79.4 -43.85 79.45 -43.85 79.5 -43.9 79.55 -43.95 79.6 -44.0 79.6 -44.05 79.65 -44.1 79.7 -44.15 79.75 -44.2 79.75 -44.25 79.8 -44.3 79.85 -44.35 79.9 -44.4 79.9 -44.45 79.95 -44.5 80.0 -44.55 80.0 -44.55 80.05 -44.65 80.05 -44.65 80.05 -44.65 80.1 -44.7 80.1 -44.7 80.15 -44.75 80.2 -44.8 80.25 -44.8 80.3 -44.85 80.3 -44.85 80.35 -44.9 80.35 -44.85 80.4 -44.85 80.4 -44.8 80.4 -44.75 80.45 -44.6 80.5 -44.3 80.55 -44.05 80.65 -43.3 80.75 -42.5 81.05 -41.15 81.1 -41.05 81.15 -40.85 81.15 -40.8 81.15 -40.8 81.15 -40.7 81.2 -39.65 81.2 -39.4 81.2 -39.05 81.2 -38.55 81.2 -38.5 81.2 -38.45 81.2 -38.4 81.2 -38.35 81.2 -38.25 81.2 -38.2 81.2 -38.15 81.2 -38.1 81.2 -38.05 81.2 -38.0 81.2 -37.95 81.2 -37.9 81.2 -37.85 81.2 -37.8 81.2 -37.7 81.2 -37.65 81.2 -37.6 81.2 -37.55 81.2 -37.5 81.2 -37.45 81.2 -37.4 81.15 -37.35 81.15 -37.3 81.15 -37.25 81.15 -37.2 81.15 -37.15 81.15 -37.05 81.15 -37.0 81.15 -36.95 81.15 -36.9 81.15 -36.85 81.15 -36.8 81.15 -36.75 81.15 -36.65 81.15 -36.6 81.2 -36.55 81.2 -36.45 81.2 -36.4 81.25 -36.3 81.25 -36.25 81.3 -36.2 81.3 -36.15 81.35 -36.05 81.4 -36.0 81.45 -35.95 81.45 -35.9 81.5 -35.85 81.55 -35.8 81.6 -35.75 81.65 -35.7 81.7 -35.7 81.75 -35.65 81.8 -35.65 81.85 -35.6 81.9 -35.6 81.95 -35.55 82.0 -35.55 82.1 -35.55 82.15 -35.55 82.2 -35.55 82.25 -35.55 82.3 -35.55 82.35 -35.55 82.4 -35.6 82.45 -35.6 82.5 -35.65 82.6 -35.65 82.65 -35.7 82.7 -35.75 82.75 -35.8 82.8 -35.85 82.85 -35.9 82.9 -35.95 82.9 -36.05 82.95 -36.1 83.0 -36.15 83.0 -36.25 83.0 -36.3 83.05 -36.4 83.05 -36.5 83.05 -36.55 83.05 -36.7 83.0 -37.05 83.0 -37.1 83.0 -37.1 82.95 -37.15 82.95 -37.2 82.95 -37.2 82.95 -37.25 82.95 -37.35 82.9 -37.4 82.85 -38.15 82.8 -38.5 82.8 -38.55 82.55 -39.55 82.45 -39.9 82.2 -41.0 82.2 -41.6 82.2 -41.7 82.2 -42.0 81.75 -43.65 81.75 -43.75 81.6 -44.4 81.6 -44.45 81.55 -44.5 81.55 -44.55 81.55 -44.55 81.55 -44.6 81.5 -44.65 81.5 -44.7 81.5 -44.75 81.5 -44.8 81.5 -44.85 81.5 -44.9 81.45 -44.95 81.45 -45.0 81.45 -45.0 81.45 -45.0 81.45 -44.95 81.45 -44.9 81.45 -45.0 81.45 -45.0 81.45 -45.05 81.45 -45.1 81.45 -45.15 81.45 -45.2 81.4 -45.25 81.85 -45.2 82.0 -45.15 82.0 -45.1 82.05 -45.1 82.05 -45.1 82.1 -45.05 82.1 -45.05 82.15 -45.0 82.15 -45.0 82.2 -45.0 82.2 -44.95 82.25 -44.95 82.25 -44.95 82.3 -44.9 82.35 -44.9 82.35 -44.9 82.4 -44.9 82.45 -44.9 82.45 -44.9 82.45 -44.9 82.5 -44.9 82.55 -44.85 82.6 -44.85 82.6 -44.85 82.65 -44.85 82.7 -44.85 82.75 -44.8 82.9 -44.8 83.0 -44.75 83.05 -44.7 83.1 -44.7 83.15 -44.7 83.15 -44.65 83.2 -44.65 83.2 -44.65 83.25 -44.65 83.3 -44.6 83.3 -44.6 83.3 -44.6 83.3 -44.6 83.3 -44.6 83.35 -44.55 83.35 -44.55 83.4 -44.5 83.4 -44.5 83.45 -44.45 83.45 -44.45 83.5 -44.4 83.5 -44.4 83.55 -44.35 83.55 -44.35 83.6 -44.3 83.6 -44.3 83.65 -44.25 83.65 -44.25 83.7 -44.2 84.05 -43.8 84.9 -42.8 84.95 -42.75 85.0 -42.65 85.15 -42.5 85.15 -42.45 85.2 -42.4 85.25 -42.3 85.25 -42.3 85.3 -42.3 85.3 -42.25 85.3 -42.25 85.3 -42.25 85.35 -42.2 85.35 -42.15 85.45 -42.05 85.5 -41.95 85.5 -41.9 85.55 -41.85 85.55 -41.8 85.55 -41.75 85.55 -41.75 85.6 -41.75 85.6 -41.75 85.6 -41.75 85.65 -41.55 85.7 -41.45 85.7 -41.4 85.75 -41.3 85.75 -41.2 85.8 -41.1 85.85 -41.0 85.9 -40.9 85.9 -40.85 85.95 -40.75 86.0 -40.7 86.1 -40.6 86.15 -40.55 86.2 -40.5 86.25 -40.45 86.35 -40.4 86.45 -40.35 86.55 -40.3 86.65 -40.3 86.75 -40.25 86.9 -40.25 87.0 -40.25 87.1 -40.3 87.2 -40.3 87.3 -40.35 87.4 -40.4 87.5 -40.5 87.55 -40.55 87.6 -40.65 87.7 -40.75 87.7 -40.9 87.7 -40.95 87.7 -41.0 87.7 -41.05 87.7 -41.15 87.7 -41.2 87.7 -41.25 87.7 -41.3 87.65 -41.35 87.65 -41.4 87.65 -41.45 87.6 -41.45 87.6 -41.55 87.55 -41.55 87.55 -41.6 87.5 -41.7 87.5 -41.7 87.45 -41.75 87.2 -42.4 87.15 -42.5 87.1 -42.55 87.05 -42.65 87.05 -42.75 87.0 -42.8 86.95 -42.9 86.9 -43.0 86.85 -43.05 86.8 -43.15 86.7 -43.2 86.65 -43.3 86.6 -43.35 86.55 -43.4 86.5 -43.5 86.4 -43.55 86.35 -43.6 86.3 -43.65 86.2 -43.75 86.15 -43.8 86.05 -43.9 86.0 -43.95 85.9 -44.05 85.85 -44.1 85.8 -44.15 85.7 -44.25 85.65 -44.3 85.55 -44.4 85.5 -44.45 85.4 -44.5 85.35 -44.6 85.25 -44.65 85.2 -44.7 85.1 -44.75 85.05 -44.85 84.95 -44.9 84.9 -44.95 84.8 -45.05 84.7 -45.1 84.65 -45.15 84.55 -45.2 84.45 -45.25 84.4 -45.3 84.3 -45.4 84.2 -45.45 84.1 -45.5 84.05 -45.55 83.95 -45.6 83.85 -45.65 83.8 -45.7 83.8 -45.7 83.75 -45.75 83.7 -45.75 83.7 -45.8 83.65 -45.85 83.6 -45.85 83.55 -45.9 83.55 -45.9 83.5 -45.95 83.45 -46.0 83.4 -46.0 83.4 -46.05 83.35 -46.05 83.3 -46.1 83.25 -46.15 83.3 -46.15 83.35 -46.15 83.4 -46.1 83.45 -46.1 83.5 -46.1 83.55 -46.1 83.6 -46.1 83.6 -46.1 83.65 -46.05 83.7 -46.05 83.75 -46.05 83.8 -46.05 83.85 -46.05 83.9 -46.05 83.95 -46.05 84.0 -46.05 84.1 -46.05 84.2 -46.05 84.3 -46.05 84.35 -46.05 84.45 -46.05 84.55 -46.1 84.65 -46.1 84.75 -46.15 84.85 -46.15 84.9 -46.2 85.0 -46.2 85.1 -46.25 85.2 -46.3 85.25 -46.35 85.35 -46.35 85.45 -46.4 85.5 -46.4 85.55 -46.4 85.6 -46.4 85.6 -46.4 85.65 -46.4 85.7 -46.4 85.75 -46.45 85.8 -46.45 85.85 -46.45 85.9 -46.45 85.9 -46.5 85.95 -46.5 86.0 -46.5 86.05 -46.55 86.1 -46.55 86.15 -46.55 86.3 -46.65 86.4 -46.75 86.55 -46.9 86.65 -47.05 86.75 -47.2 86.85 -47.35 86.9 -47.5 86.95 -47.7 87.0 -47.9 87.05 -48.1 87.1 -48.25 87.1 -48.45 87.1 -48.65 87.05 -48.85 87.05 -49.05 87.0 -49.2 87.0 -49.2 87.0 -49.2 87.0 -49.25 87.0 -49.4 87.0 -49.45 87.0 -49.5 87.0 -49.55 86.95 -49.55 86.95 -49.6 86.95 -49.65 86.9 -49.7 86.9 -49.7 86.9 -49.75 86.85 -49.75 86.85 -49.8 86.8 -49.85 86.8 -49.85 86.75 -49.9 86.75 -49.9 86.7 -49.9 87.05 -50.0 88.1 -50.3 89.25 -50.6 90.35 -50.95 91.25 -51.2 92.1 -51.45 92.8 -51.65 93.5 -51.9 74.55 -45.85 94.65 -52.25 95.2 -52.45 95.5 -52.55 95.95 -52.65 96.25 -52.75 96.65 -52.8 97.0 -52.9 97.35 -52.95 97.7 -52.95 98.5 -53.05 99.35 -53.0 100.1 -52.95 100.9 -52.85 101.6 -52.7 102.3 -52.5 102.95 -52.35 103.6 -52.1 104.15 -51.9 104.75 -51.6 105.2 -51.4 105.7 -51.1 106.1 -50.9 106.45 -50.65 106.75 -50.5 107.05 -50.3 107.45 -50.05 107.7 -49.85 108.15 -49.55 108.6 -49.2 109.2 -48.75 109.7 -48.3 110.3 -47.7 110.9 -47.1 111.5 -46.4 112.1 -45.7 112.7 -44.85 113.2 -43.95 113.75 -43.0 114.2 -41.95 114.65 -40.8 114.95 -39.6 115.15 -38.75 115.3 -37.95 115.4 -37.15 115.45 -36.35 115.45 -35.6 115.45 -34.8 115.45 -34.1 115.35 -33.4 115.3 -32.75 115.15 -32.05 115.1 -31.45 114.95 -30.8 114.8 -30.25 114.65 -29.65 114.6 -29.3 114.4 -28.6 114.3 -28.15 114.15 -27.75 114.05 -27.3 113.9 -26.9 113.8 -26.5 113.65 -26.1 113.5 -25.7 113.35 -25.35 113.2 -24.95 113.05 -24.6 112.9 -24.25 112.75 -23.9 112.6 -23.55 112.4 -23.2 112.25 -22.9 112.1 -22.6 112.05 -22.6 112.05 -22.7 112.05 -22.75 112.0 -22.8 111.95 -22.85 111.95 -22.9 111.9 -22.9 111.85 -22.95 111.8 -23.0 111.75 -23.05 111.7 -23.05 111.7 -23.1 111.65 -23.15 111.6 -23.15 111.55 -23.2 111.5 -23.2 111.45 -23.2 111.4 -23.2 111.3 -23.2 111.25 -23.25 111.15 -23.25 111.05 -23.25 110.95 -23.25 110.9 -23.25 110.8 -23.2 110.7 -23.2 110.65 -23.15 110.55 -23.15 110.5 -23.1 110.4 -23.05 110.35 -23.0 110.25 -22.95 110.2 -22.9 110.15 -22.85 110.1 -22.8 110.1 -22.8 110.05 -22.75 110.05 -22.7 110.0 -22.7 110.0 -22.65 109.95 -22.6 109.85 -22.6 109.8 -22.55 109.75 -22.5 109.7 -22.45 109.6 -22.4 109.55 -22.4 109.5 -22.35 109.45 -22.3 109.4 -22.25 109.35 -22.2 109.25 -22.15 109.2 -22.1 109.15 -22.05 109.1 -22.0 109.05 -21.95 109.0 -21.9 108.9 -21.8 108.85 -21.75 108.75 -21.65 108.7 -21.6 108.65 -21.5 108.55 -21.45 108.5 -21.35 108.45 -21.3 108.4 -21.2 108.35 -21.15 108.25 -21.05 108.2 -20.95 108.15 -20.9 108.1 -20.8 108.05 -20.7 107.85 -20.45 107.25 -19.35 107.2 -19.25 107.15 -19.2 107.1 -19.1 107.05 -19.0 107.0 -18.9 106.95 -18.85 106.9 -18.75 106.85 -18.65 106.85 -18.55 106.8 -18.45 106.75 -18.35 106.75 -18.3 106.75 -18.15 106.75 -18.05 106.7 -17.95 106.75 -17.85 106.75 -17.8 106.75 -17.75 106.75 -17.65 106.8 -17.6 106.8 -17.55 106.85 -17.5 106.85 -17.45 106.9 -17.45 106.9 -17.4 106.95 -17.35 107.0 -17.35 107.05 -17.3 107.1 -17.3 107.15 -17.25 107.2 -17.25 107.25 -17.25 107.3 -17.25 107.35 -17.25 107.4 -17.25 107.45 -17.3 107.5 -17.3 107.5 -17.35 107.55 -17.35 107.6 -17.4 107.65 -17.45 107.65 -17.5 107.7 -17.55 107.7 -17.55 107.75 -17.6 107.75 -17.65 107.75 -17.75 107.8 -17.8 107.85 -17.8 107.85 -17.8 107.9 -17.8 107.95 -17.85 108.0 -17.9 108.0 -17.9 108.05 -17.95 108.1 -17.95 108.1 -18.0 108.15 -18.05 108.15 -18.05 108.2 -18.1 108.25 -18.1 108.25 -18.1 108.3 -18.1 108.35 -18.1 108.35 -18.15 108.4 -18.15 108.4 -18.15 108.45 -18.2 108.5 -18.2 108.5 -18.25 108.55 -18.25 108.55 -18.3 108.6 -18.3 108.6 -18.35 108.65 -18.35 108.65 -18.4 108.7 -18.45 108.7 -18.5 108.75 -18.55 108.75 -18.6 108.8 -18.65 108.8 -18.7 108.85 -18.7 108.85 -18.75 108.9 -18.8 108.9 -18.85 108.95 -18.9 108.95 -18.9 109.0 -18.95 109.0 -19.0 109.05 -19.05 109.05 -19.05 109.15 -19.2 109.3 -19.4 109.5 -19.7 109.6 -19.75 109.65 -19.8 109.65 -19.85 109.7 -19.9 109.75 -19.95 109.8 -20.05 109.8 -20.1 109.85 -20.15 109.9 -20.2 109.9 -20.25 109.95 -20.3 110.0 -20.35 110.0 -20.4 110.05 -20.5 110.05 -20.55 110.1 -20.6 110.15 -20.65 110.15 -20.65 110.2 -20.7 110.2 -20.7 110.25 -20.75 110.25 -20.75 110.3 -20.75 110.6 -20.9 110.35 -20.8 110.35 -20.8 110.4 -20.8 110.5 -20.85 110.7 -20.9 110.7 -20.9 110.7 -20.9 110.7 -20.9 110.7 -20.9 110.7 -20.9 110.9 -20.9 111.0 -20.9 111.1 -20.9 110.95 -20.65 110.8 -20.45 110.65 -20.2 110.5 -20.0 110.35 -19.8 110.25 -19.6 110.1 -19.4 109.95 -19.2 109.8 -19.0 109.7 -18.85 109.55 -18.65 109.4 -18.5 109.3 -18.35 109.15 -18.2 109.05 -18.05 108.95 -17.9 109.15 -17.8 109.3 -17.7 109.5 -17.6 109.65 -17.5 109.85 -17.4 110.0 -17.3 110.15 -17.2 110.3 -17.1 110.5 -16.95 110.65 -16.85 110.8 -16.75 110.95 -16.65 111.05 -16.55 111.2 -16.45 111.35 -16.35 111.5 -16.2 111.45 -16.2 111.4 -16.2 111.4 -16.2 111.35 -16.2 111.3 -16.2 111.35 -16.2 111.3 -16.2 111.3 -16.2 111.25 -16.2 111.2 -16.15 111.15 -16.15 111.15 -16.15 111.05 -16.15 110.65 -16.15 109.65 -16.15 109.5 -16.15 109.5 -16.15 109.5 -16.15 109.5 -16.15 109.4 -16.2 109.4 -16.2 109.3 -16.2 109.25 -16.2 109.2 -16.25 109.2 -16.25 109.15 -16.25 109.1 -16.3 109.05 -16.3 109.0 -16.3 108.95 -16.3 108.9 -16.35 108.85 -16.35 108.8 -16.35 108.8 -16.35 108.75 -16.35 108.7 -16.35 108.65 -16.35 108.6 -16.35 108.55 -16.35 108.5 -16.35 108.45 -16.35 108.4 -16.35 108.35 -16.3 108.3 -16.3 108.25 -16.3 108.25 -16.25 108.2 -16.25 108.15 -16.25 108.15 -16.2 108.1 -16.15 108.1 -16.15 108.05 -16.1 108.05 -16.05 108.0 -16.05 107.95 -16.05 107.95 -16.05 107.9 -16.05 107.9 -16.05 107.85 -16.05 107.8 -16.05 107.8 -16.05 107.75 -16.0 107.75 -16.0 107.7 -16.0 107.65 -16.0 107.65 -15.95 107.6 -15.95 107.6 -15.9 107.55 -15.9 107.55 -15.85 107.5 -15.85 107.5 -15.8 107.45 -15.8 107.45 -15.75 107.45 -15.7 107.4 -15.65 107.35 -15.7 107.35 -15.7 107.3 -15.7 107.25 -15.75 107.25 -15.75 107.2 -15.75 107.1 -15.75 107.05 -15.75 106.95 -15.75 106.85 -15.75 106.8 -15.75 106.7 -15.75 106.6 -15.7 106.55 -15.7 106.45 -15.7 106.4 -15.7 106.3 -15.7 106.2 -15.65 106.15 -15.65 106.05 -15.65 106.0 -15.6 105.9 -15.6 105.8 -15.55 105.75 -15.55 105.65 -15.5 105.6 -15.45 105.5 -15.4 105.45 -15.35 105.4 -15.3 105.3 -15.25 105.25 -15.2 105.15 -15.15 105.1 -15.1 105.05 -15.05 105.0 -14.95 104.9 -14.9 104.85 -14.85 104.8 -14.75 104.75 -14.7 104.75 -14.65 104.7 -14.6 104.65 -14.55 104.65 -14.5 104.6 -14.45 104.55 -14.4 104.55 -14.35 104.5 -14.3 104.45 -14.25 104.45 -14.2 104.4 -14.15 104.4 -14.1 104.35 -14.05 104.35 -14.0 104.3 -13.95 104.25 -13.95 104.25 -13.95 104.2 -13.95 104.15 -13.95 104.1 -13.9 104.1 -13.9 104.05 -13.9 104.0 -13.85 103.95 -13.8 103.85 -13.7 103.8 -13.65 103.75 -13.6 103.7 -13.5 103.6 -13.45 103.55 -13.4 103.5 -13.3 103.45 -13.25 103.4 -13.15 103.35 -13.1 103.25 -13.0 103.2 -12.9 103.15 -12.85 103.1 -12.75 103.05 -12.65 103.0 -12.6 102.9 -12.4 102.85 -12.4 102.85 -12.4 102.85 -12.4 102.85 -12.4 102.85 -12.35 102.85 -12.35 102.8 -12.3 102.8 -12.3 102.8 -12.3 102.8 -12.3 102.8 -12.25 102.75 -12.25 102.75 -12.25 102.75 -12.25 102.75 -12.25 102.75 -12.25 102.6 -12.15 102.5 -12.1 102.5 -12.05 102.45 -12.05 102.45 -12.05 102.4 -12.0 102.4 -12.0 102.4 -12.0 102.4 -12.0 102.4 -12.0 102.35 -12.0 102.1 -11.9 102.1 -11.9 102.1 -11.9 102.1 -11.9 102.1 -11.9 102.05 -11.9 101.95 -11.9 101.8 -11.9 101.8 -11.9 101.7 -11.9 101.7 -11.9 101.7 -11.9 101.4 -12.0 101.2 -12.05 100.95 -12.15 100.9 -12.25 100.85 -12.35 100.8 -12.45 100.7 -12.6 100.65 -12.7 100.6 -12.8 100.55 -12.9 100.45 -13.0 100.4 -13.1 100.35 -13.2 100.25 -13.3 100.2 -13.4 100.1 -13.45 100.05 -13.55 100.0 -13.65 99.9 -13.75 99.85 -13.95 99.75 -14.15 99.7 -14.25 99.7 -14.35 99.65 -14.4 99.6 -14.5 99.55 -14.55 99.5 -14.65 99.5 -14.7 99.45 -14.8 99.4 -14.85 99.35 -14.95 99.3 -15.05 99.25 -15.1 99.2 -15.2 99.15 -15.3 99.1 -15.35 99.1 -15.45 99.1 -15.45 99.05 -15.55 99.05 -15.55 99.05 -15.55 99.05 -15.6 99.0 -15.6 99.0 -15.65 99.0 -15.7 99.0 -15.8 98.95 -15.85 98.95 -15.85 98.95 -15.9 98.95 -16.0 98.95 -15.95 98.95 -16.0 98.95 -16.05 98.95 -16.05 98.95 -16.1 98.95 -16.15 98.95 -16.2 98.95 -16.2 98.95 -16.25 98.95 -16.3 98.95 -16.35 98.95 -16.35 98.95 -16.4 98.95 -16.45 98.95 -16.5 98.95 -16.5 98.95 -16.55 98.95 -16.75 98.95 -17.15 99.0 -17.2 99.0 -17.25 99.0 -17.3 99.0 -17.4 99.0 -17.4 99.0 -17.4 99.05 -17.4 99.05 -17.45 99.1 -17.45 99.1 -17.45 99.2 -17.45 99.2 -17.5 99.4 -17.45 99.45 -17.45 99.65 -17.45 100.1 -17.45 100.5 -17.45 100.7 -17.45 100.95 -17.45 100.95 -17.45 101.05 -17.45 101.65 -17.35 101.7 -17.35 101.75 -17.35 101.75 -17.35 101.8 -17.35 101.85 -17.3 101.95 -17.3 102.0 -17.25 102.1 -17.25 102.15 -17.2 102.25 -17.2 102.3 -17.2 102.4 -17.15 102.45 -17.15 102.5 -17.1 102.6 -17.1 102.65 -17.05 102.75 -17.05 102.8 -17.05 102.85 -17.0 102.95 -17.0 103.1 -16.95 103.3 -16.9 103.6 -16.8 103.7 -16.75 103.75 -16.75 103.8 -16.75 103.8 -16.7 103.85 -16.7 103.9 -16.7 103.95 -16.7 104.0 -16.65 104.05 -16.65 104.05 -16.65 104.1 -16.6 104.1 -16.6 104.1 -16.6 104.15 -16.6 104.2 -16.6 104.2 -16.55 104.25 -16.55 104.25 -16.55 104.4 -16.45 104.5 -16.4 104.6 -16.35 104.7 -16.3 104.75 -16.25 104.85 -16.25 104.95 -16.2 105.0 -16.15 105.1 -16.1 105.2 -16.1 105.3 -16.05 105.4 -16.05 105.45 -16.0 105.55 -16.0 105.65 -16.0 105.7 -16.0 105.75 -16.0 105.8 -16.0 105.85 -16.05 105.9 -16.05 105.95 -16.1 106.0 -16.15 106.05 -16.15 106.05 -16.2 106.1 -16.25 106.1 -16.3 106.15 -16.35 106.15 -16.45 106.15 -16.5 106.2 -16.55 106.2 -16.6 106.2 -16.65 106.2 -16.7 106.2 -16.7 106.2 -16.75 106.15 -16.8 106.15 -16.85 106.15 -16.85 106.1 -16.9 106.1 -16.95 106.1 -16.95 106.05 -17.0 106.05 -17.0 106.0 -17.05 106.0 -17.05 105.95 -17.1 105.95 -17.1 105.9 -17.15 105.9 -17.15 105.85 -17.15 105.8 -17.2 105.8 -17.2 105.75 -17.2 105.7 -17.2 105.6 -17.25 105.55 -17.3 105.5 -17.3 105.5 -17.35 105.45 -17.4 105.45 -17.45 105.45 -17.45 105.4 -17.5 105.4 -17.55 105.35 -17.6 105.3 -17.6 105.3 -17.65 105.25 -17.65 105.15 -17.7 105.05 -17.75 105.0 -17.8 104.9 -17.85 104.8 -17.9 104.7 -17.95 104.6 -17.95 104.5 -18.0 104.45 -18.05 104.35 -18.05 104.25 -18.1 104.15 -18.15 104.05 -18.15 103.95 -18.15 103.85 -18.2 103.75 -18.2 103.45 -18.3 103.0 -18.35 102.95 -18.35 102.95 -18.4 102.35 -18.5 101.9 -18.55 101.85 -18.55 101.8 -18.6 101.75 -18.6 101.7 -18.65 101.65 -18.65 101.6 -18.7 101.55 -18.7 101.5 -18.75 101.45 -18.75 101.4 -18.75 101.35 -18.8 101.25 -18.8 101.2 -18.85 101.15 -18.85 101.1 -18.85 101.05 -18.9 100.95 -18.95 100.85 -18.95 100.75 -19.0 100.65 -19.0 100.55 -19.0 100.45 -19.05 100.35 -19.05 100.25 -19.1 100.15 -19.1 100.05 -19.1 99.95 -19.1 99.85 -19.1 99.75 -19.15 99.65 -19.15 99.55 -19.15 99.45 -19.15 99.25 -19.15 99.1 -19.15 98.85 -19.15 98.7 -19.1 98.5 -19.1 98.3 -19.05 98.1 -19.0 97.9 -18.95 97.7 -18.85 97.55 -18.75 97.4 -18.65 97.25 -18.5 97.1 -18.4 97.0 -18.2 96.9 -18.05 96.8 -17.8 96.75 -17.65 96.75 -17.45 96.7 -17.3 96.7 -17.1 96.7 -16.95 96.75 -16.75 96.8 -16.55 96.85 -16.4 96.9 -16.2 96.95 -16.05 97.0 -15.9 97.05 -15.7 97.15 -15.55 97.2 -15.4 97.25 -15.25 97.35 -15.05 97.4 -14.95 97.45 -14.85 97.5 -14.75 97.55 -14.65 97.6 -14.55 97.65 -14.45 97.7 -14.35 97.75 -14.25 97.8 -14.15 97.85 -14.05 97.95 -13.95 98.0 -13.85 98.05 -13.75 98.1 -13.7 98.15 -13.6 98.2 -13.5 98.1 -13.55 98.0 -13.55 97.9 -13.6 97.8 -13.65 97.7 -13.7 97.6 -13.7 97.5 -13.75 97.4 -13.8 97.3 -13.8 97.15 -13.85 97.05 -13.85 96.95 -13.9 96.8 -13.95 96.7 -13.95 96.6 -14.0 96.45 -14.0 96.2 -14.05 95.95 -14.1 95.75 -14.1 95.5 -14.15 95.25 -14.15 95.05 -14.15 94.85 -14.15 94.6 -14.15 94.45 -14.15 94.25 -14.15 94.05 -14.1 93.85 -14.1 93.7 -14.1 93.55 -14.05 93.4 -14.05 93.25 -14.0 93.1 -13.95 93.0 -13.9 92.85 -13.9 92.7 -13.85 92.55 -13.8 92.4 -13.75 92.25 -13.7 92.05 -13.7 91.9 -13.65 91.7 -13.6 91.55 -13.55 91.35 -13.55 91.15 -13.5 90.95 -13.45 90.75 -13.4 90.55 -13.4 90.05 -13.35 89.8 -13.3 89.35 -13.2 88.95 -13.2 88.5 -13.15 88.1 -13.1 87.65 -13.05 87.2 -13.05 86.75 -13.1 86.3 -13.1 85.8 -13.15 85.35 -13.25 84.85 -13.3 84.4 -13.45 83.9 -13.6 83.45 -13.8 82.75 -14.1 82.05 -14.55 81.45 -15.0 80.85 -15.55 80.35 -16.05 79.85 -16.65 79.45 -17.2 79.05 -17.8 78.7 -18.35 78.35 -18.95 78.1 -19.5 77.85 -20.05 77.65 -20.5 77.45 -21.0 77.35 -21.25 77.15 -21.7 76.95 -22.2 76.85 -22.65 76.7 -23.15 76.6 -23.6 76.45 -24.05 76.4 -24.5 76.3 -24.95 76.25 -25.4 76.2 -25.8 76.15 -26.25 76.1 -26.65 76.1 -27.15 76.05 -27.5 76.05 -27.95 76.0 -28.2 76.0 -28.8 75.95 -29.5 75.95 -30.2 75.95 -30.9 76.0 -31.55 76.0 -32.2 76.05 -32.85 76.1 -33.45 76.15 -34.05 76.2 -34.6 76.3 -35.15 76.35 -35.7 76.45 -36.2 76.55 -36.65 76.65 -37.1 76.7 -37.55 76.8 -37.95 L76.8 -37.95" fill="url(#gradient3)" fill-rule="evenodd" stroke="none"/>
    <path d="M-17.1 -85.45 Q-17.45 -86.05 -17.85 -86.65 -18.2 -87.2 -18.65 -87.75 -19.0 -88.2 -19.45 -88.7 -19.85 -89.1 -20.3 -89.55 -20.65 -89.9 -21.05 -90.25 -21.4 -90.55 -21.8 -90.85 -22.1 -91.05 -22.4 -91.3 -22.65 -91.45 -22.9 -91.65 -23.4 -92.0 -23.95 -92.35 -24.45 -92.65 -25.0 -92.95 -25.45 -93.2 -26.0 -93.45 -26.45 -93.7 -26.95 -93.9 -27.4 -94.05 -27.85 -94.25 -28.25 -94.4 -28.7 -94.5 -29.1 -94.65 -29.45 -94.75 -29.8 -94.85 -30.15 -94.95 -30.95 -94.9 -31.7 -94.9 -32.45 -94.85 -33.2 -94.8 -33.9 -94.75 -34.6 -94.7 -35.3 -94.7 -35.95 -94.65 -36.6 -94.6 -37.2 -94.55 -37.8 -94.5 -38.4 -94.5 -38.95 -94.45 -39.45 -94.4 -40.0 -94.35 -40.45 -94.3 -41.35 -94.25 -42.0 -94.15 -42.75 -94.1 -43.3 -94.05 -43.85 -94.0 -44.3 -93.9 -44.75 -93.85 -45.15 -93.8 -45.5 -93.75 -45.8 -93.65 -46.05 -93.6 -46.3 -93.55 -46.55 -93.45 -46.8 -93.35 -47.0 -93.3 -47.2 -93.2 -47.95 -92.85 -48.6 -92.45 -49.25 -92.05 -49.85 -91.55 -50.4 -91.15 -50.95 -90.65 -51.4 -90.15 -51.85 -89.65 -52.2 -89.2 -52.6 -88.7 -52.9 -88.3 -53.15 -87.85 -53.4 -87.45 -53.65 -87.05 -53.8 -86.75 -53.95 -86.45 -54.15 -86.0 -54.35 -85.6 -54.5 -85.15 -54.65 -84.75 -54.8 -84.35 -54.95 -83.9 -55.05 -83.55 -55.15 -83.15 -55.2 -82.8 -55.25 -82.4 -55.35 -82.1 -55.4 -81.75 -55.4 -81.45 -55.45 -81.15 -55.45 -80.9 -55.5 -80.65 -57.8 -80.35 -58.65 -80.2 -59.8 -80.0 -60.35 -79.9 -61.25 -79.75 -61.9 -79.65 -62.7 -79.5 -63.3 -79.35 -64.0 -79.2 -64.55 -79.05 -65.15 -78.9 -65.65 -78.7 -66.2 -78.5 -66.7 -78.25 -67.15 -78.0 -67.6 -77.7 -68.05 -77.4 -68.45 -77.05 -68.95 -76.6 -69.35 -76.1 -69.75 -75.65 -70.1 -75.15 -70.4 -74.65 -70.65 -74.1 -70.85 -73.6 -71.05 -73.1 -71.25 -72.6 -71.35 -72.1 -71.5 -71.65 -71.6 -71.2 -71.65 -70.8 -71.75 -70.35 -71.75 -70.1 -71.8 -69.7 -71.9 -69.05 -71.95 -68.35 -71.95 -67.75 -71.9 -67.1 -71.9 -66.5 -71.8 -65.85 -71.7 -65.3 -71.55 -64.65 -71.45 -64.1 -71.25 -63.45 -71.05 -62.9 -70.85 -62.25 -70.65 -61.7 -70.4 -61.0 -70.2 -60.5 -69.9 -59.7 -69.75 -59.25 -69.55 -58.85 -69.35 -58.4 -69.15 -57.9 -68.9 -57.4 -68.7 -56.95 -68.45 -56.4 -68.15 -55.9 -67.9 -55.35 -67.6 -54.8 -67.25 -54.2 -66.95 -53.65 -66.55 -53.05 -66.2 -52.5 -65.8 -51.85 -65.4 -51.25 -65.25 -51.7 -65.2 -51.85 -64.9 -52.7 -64.9 -52.75 -64.85 -52.8 -64.85 -52.85 -64.8 -52.95 -64.8 -53.0 -64.75 -53.05 -64.7 -53.1 -64.7 -53.15 -64.65 -53.2 -64.6 -53.25 -64.55 -53.3 -64.55 -53.35 -64.5 -53.4 -64.45 -53.45 -64.4 -53.5 -64.35 -53.5 -64.35 -53.55 -64.3 -53.6 -64.3 -53.65 -64.25 -53.7 -64.25 -53.75 -64.2 -53.8 -64.15 -53.85 -64.15 -53.9 -64.1 -53.95 -64.05 -54.0 -64.0 -54.0 -64.0 -54.05 -63.95 -54.1 -63.9 -54.1 -63.85 -54.15 -63.8 -54.2 -63.75 -54.2 -63.65 -54.25 -63.55 -54.3 -63.45 -54.3 -63.3 -54.3 -63.2 -54.35 -63.1 -54.3 -63.0 -54.3 -62.9 -54.3 -62.8 -54.25 -62.65 -54.25 -62.55 -54.2 -62.45 -54.15 -62.35 -54.1 -62.25 -54.05 -62.2 -54.0 -62.1 -53.95 -62.05 -53.95 -62.05 -53.9 -62.0 -53.9 -62.0 -53.85 -61.95 -53.85 -61.95 -53.8 -61.9 -53.8 -61.9 -53.75 -61.85 -53.75 -61.85 -53.7 -61.8 -53.7 -61.8 -53.65 -61.75 -53.65 -61.75 -53.6 -61.7 -53.6 -61.7 -53.55 -61.65 -53.55 -61.65 -53.5 -61.55 -53.4 -61.5 -53.35 -61.4 -53.25 -61.3 -53.15 -61.25 -53.05 -61.2 -52.95 -61.1 -52.9 -61.05 -52.8 -61.0 -52.7 -60.9 -52.6 -60.85 -52.5 -60.8 -52.35 -60.75 -52.25 -60.7 -52.15 -60.65 -52.05 -60.6 -51.95 -60.55 -51.9 -60.55 -51.85 -60.55 -51.85 -60.5 -51.8 -60.5 -51.75 -60.45 -51.7 -60.4 -51.7 -60.4 -51.65 -60.35 -51.65 -60.3 -51.6 -60.3 -51.55 -60.25 -51.5 -60.2 -51.4 -60.1 -51.3 -60.05 -51.2 -59.95 -51.05 -59.9 -50.95 -59.85 -50.85 -59.8 -50.7 -59.7 -50.6 -59.65 -50.5 -59.6 -50.35 -59.55 -50.25 -59.5 -50.1 -59.45 -50.0 -59.4 -49.9 -59.35 -49.75 -59.3 -49.65 -59.3 -49.6 -59.25 -49.55 -59.25 -49.45 -59.25 -49.4 -59.3 -49.35 -59.3 -49.3 -59.3 -49.25 -59.35 -49.2 -59.4 -49.15 -59.45 -49.1 -59.45 -49.05 -59.5 -49.0 -59.55 -48.95 -59.6 -48.95 -59.65 -48.9 -59.7 -48.9 -59.75 -48.9 -59.85 -48.9 -59.9 -48.85 -59.95 -48.9 -60.0 -48.9 -60.05 -48.9 -60.1 -48.95 -60.15 -48.95 -60.2 -49.0 -60.25 -49.05 -60.3 -49.05 -60.35 -49.1 -60.35 -49.15 -60.4 -49.2 -60.45 -49.25 -60.45 -49.3 -60.45 -49.3 -60.5 -49.4 -60.5 -49.4 -60.5 -49.45 -60.55 -49.5 -60.6 -49.65 -60.65 -49.8 -60.75 -49.95 -60.8 -49.95 -60.85 -50.0 -60.85 -50.0 -60.9 -50.05 -60.95 -50.1 -60.95 -50.1 -61.0 -50.15 -61.05 -50.2 -61.25 -50.6 -61.35 -50.75 -61.35 -50.75 -61.4 -50.8 -61.4 -50.85 -61.45 -50.85 -61.45 -50.9 -61.45 -50.95 -61.5 -50.95 -61.5 -51.0 -61.55 -51.1 -61.55 -51.2 -61.55 -51.2 -61.6 -51.25 -61.6 -51.3 -61.65 -51.35 -61.65 -51.4 -61.7 -51.45 -61.7 -51.45 -61.75 -51.5 -61.75 -51.5 -61.75 -51.5 -61.75 -51.5 -61.75 -51.55 -61.8 -51.55 -61.8 -51.6 -61.8 -51.6 -61.85 -51.65 -61.9 -51.7 -61.9 -51.7 -61.95 -51.75 -61.95 -51.8 -62.0 -51.85 -62.05 -51.85 -62.05 -51.9 -62.1 -51.95 -62.1 -52.0 -62.2 -52.1 -62.2 -52.1 -62.3 -52.15 -62.3 -52.15 -62.35 -52.2 -62.35 -52.2 -62.3 -52.15 -62.3 -52.2 -62.35 -52.25 -62.4 -52.25 -62.55 -52.35 -62.6 -52.35 -62.65 -52.4 -62.65 -52.4 -62.65 -52.4 -62.7 -52.4 -62.75 -52.4 -62.85 -52.45 -62.85 -52.45 -62.9 -52.45 -62.95 -52.45 -62.95 -52.45 -62.95 -52.45 -63.0 -52.45 -63.0 -52.45 -63.05 -52.45 -63.1 -52.45 -63.1 -52.45 -63.15 -52.45 -63.15 -52.45 -63.15 -52.45 -63.2 -52.45 -63.2 -52.45 -63.25 -52.45 -63.25 -52.45 -63.3 -52.45 -63.35 -52.4 -63.4 -52.4 -63.45 -52.4 -63.45 -52.4 -63.5 -52.35 -63.55 -52.3 -63.65 -52.3 -63.7 -52.25 -63.7 -52.25 -63.75 -52.2 -63.8 -52.2 -63.8 -52.2 -63.8 -52.2 -63.85 -52.05 -63.95 -51.8 -64.35 -50.55 -64.5 -50.1 -64.5 -50.05 -64.5 -50.05 -64.2 -49.6 -63.75 -49.05 -64.0 -49.1 -64.65 -49.25 -64.65 -49.25 -64.65 -49.25 -64.7 -49.2 -64.7 -49.15 -64.7 -49.15 -64.7 -49.05 -64.7 -49.05 -64.7 -48.85 -64.7 -48.8 -64.7 -48.8 -64.7 -48.75 -64.7 -48.7 -64.7 -48.65 -64.7 -48.6 -64.7 -48.6 -64.7 -48.55 -64.7 -48.5 -64.7 -48.45 -64.7 -48.4 -64.7 -48.35 -64.7 -48.35 -64.7 -48.3 -64.7 -48.25 -64.7 -48.2 -64.7 -48.2 -64.7 -48.1 -64.7 -48.1 -64.7 -48.05 -64.7 -48.0 -64.65 -47.9 -64.65 -47.8 -64.6 -47.75 -64.6 -47.7 -64.6 -47.65 -64.6 -47.65 -64.6 -47.65 -64.6 -47.65 -64.55 -47.55 -64.55 -47.55 -64.5 -47.5 -64.5 -47.5 -64.5 -47.5 -64.45 -47.5 -64.4 -47.45 -64.35 -47.5 -64.2 -47.55 -64.15 -47.55 -64.1 -47.6 -64.05 -47.6 -64.0 -47.6 -63.95 -47.6 -63.9 -47.6 -63.85 -47.65 -63.8 -47.65 -63.75 -47.65 -63.7 -47.65 -63.65 -47.65 -63.6 -47.65 -63.55 -47.65 -63.5 -47.65 -63.45 -47.65 -63.4 -47.65 -63.1 -47.65 -62.55 -47.65 -62.0 -47.65 -61.75 -47.65 -61.5 -47.7 -61.35 -47.7 -61.25 -47.7 -61.3 -47.7 -61.25 -47.7 -61.2 -47.7 -61.1 -47.75 -60.95 -47.75 -60.9 -47.75 -60.85 -47.75 -60.8 -47.75 -60.75 -47.8 -60.7 -47.8 -60.65 -47.8 -60.55 -47.8 -60.5 -47.8 -60.45 -47.8 -60.4 -47.8 -60.35 -47.8 -60.3 -47.8 -60.25 -47.8 -60.2 -47.8 -60.15 -47.8 -60.1 -47.8 -60.05 -47.8 -60.0 -47.8 -59.95 -47.8 -59.9 -47.75 -59.85 -47.75 -59.8 -47.7 -59.75 -47.7 -59.7 -47.65 -59.65 -47.6 -59.65 -47.55 -59.55 -47.6 -59.45 -47.65 -59.4 -47.65 -59.3 -47.7 -59.2 -47.7 -59.1 -47.75 -59.0 -47.75 -58.9 -47.75 -58.8 -47.8 -58.7 -47.8 -58.6 -47.8 -58.5 -47.75 -58.4 -47.75 -58.3 -47.75 -58.2 -47.7 -58.15 -47.7 -58.1 -47.7 -58.1 -47.65 -58.05 -47.65 -58.0 -47.65 -58.0 -47.65 -57.95 -47.6 -57.9 -47.6 -57.9 -47.6 -57.85 -47.55 -57.85 -47.55 -57.8 -47.55 -57.8 -47.5 -57.75 -47.5 -57.75 -47.5 -57.7 -47.45 -57.7 -47.45 -57.7 -47.5 -57.65 -47.55 -57.6 -47.55 -57.6 -47.6 -57.55 -47.6 -57.5 -47.65 -57.45 -47.65 -57.4 -47.65 -57.35 -47.7 -57.25 -47.75 -57.2 -47.8 -57.1 -47.85 -57.05 -47.9 -56.95 -47.95 -56.85 -48.0 -56.8 -48.05 -56.7 -48.05 -56.6 -48.1 -56.5 -48.15 -56.45 -48.15 -56.35 -48.15 -56.25 -48.2 -56.15 -48.2 -56.05 -48.2 -55.85 -48.25 -54.35 -48.4 -53.75 -48.45 -52.05 -48.45 -51.9 -48.45 -51.8 -48.45 -51.65 -48.45 -51.5 -48.45 -51.35 -48.45 -51.25 -48.45 -51.1 -48.45 -50.95 -48.45 -50.8 -48.45 -50.7 -48.45 -50.55 -48.45 -50.4 -48.4 -50.3 -48.4 -50.15 -48.4 -50.0 -48.35 -49.85 -48.35 -49.65 -48.3 -49.4 -48.25 -49.2 -48.2 -49.0 -48.1 -48.8 -48.0 -48.6 -47.9 -48.4 -47.75 -48.2 -47.6 -48.05 -47.5 -47.9 -47.3 -47.75 -47.15 -47.7 -46.95 -47.6 -46.75 -47.55 -46.5 -47.5 -46.3 -47.55 -46.05 -47.55 -45.9 -47.6 -45.8 -47.6 -45.65 -47.65 -45.55 -47.65 -45.4 -47.7 -45.3 -47.75 -45.2 -47.8 -45.05 -47.85 -44.95 -47.9 -44.8 -47.95 -44.7 -48.0 -44.6 -48.05 -44.45 -48.15 -44.35 -48.2 -44.25 -48.25 -44.15 -48.3 -44.05 -48.4 -43.95 -48.45 -43.85 -48.55 -43.7 -48.6 -43.6 -48.65 -43.5 -48.75 -43.4 -48.8 -43.3 -48.9 -43.2 -49.0 -43.1 -49.05 -43.0 -49.15 -42.95 -49.2 -42.85 -49.3 -42.75 -49.4 -42.65 -49.45 -42.55 -50.3 -41.75 -50.8 -41.25 -50.8 -41.25 -50.85 -41.25 -50.8 -41.2 -50.75 -41.2 -50.7 -41.15 -50.65 -41.15 -50.6 -41.1 -50.55 -41.05 -50.5 -41.05 -50.4 -41.0 -50.35 -41.0 -50.3 -40.95 -50.25 -40.95 -50.2 -40.9 -50.15 -40.9 -50.1 -40.85 -50.05 -40.8 -49.95 -40.8 -49.6 -40.65 -49.3 -40.55 -48.95 -40.45 -48.65 -40.35 -48.3 -40.25 -48.0 -40.2 -47.65 -40.15 -47.35 -40.1 -47.0 -40.05 -46.7 -40.05 -46.35 -40.0 -46.0 -40.0 -45.7 -40.0 -45.3 -40.0 -45.05 -40.0 -44.55 -40.0 -43.8 -40.0 -43.4 -40.0 -42.85 -40.0 -42.4 -40.0 -41.95 -40.0 -41.55 -40.0 -41.1 -40.05 -40.75 -40.1 -40.35 -40.15 -40.05 -40.2 -39.7 -40.25 -39.35 -40.35 -39.05 -40.45 -38.75 -40.6 -38.45 -40.75 -38.1 -40.9 -37.6 -41.2 -37.2 -41.55 -36.8 -41.85 -36.45 -42.25 -36.1 -42.6 -35.8 -43.05 -35.55 -43.4 -35.3 -43.85 -35.1 -44.2 -34.9 -44.6 -34.75 -45.0 -34.6 -45.35 -34.5 -45.65 -34.4 -46.0 -34.3 -46.25 -34.25 -46.5 -33.9 -46.5 -33.6 -46.55 -33.25 -46.55 -32.85 -46.6 -32.45 -46.65 -32.05 -46.7 -31.65 -46.75 -31.2 -46.85 -30.75 -46.95 -30.3 -47.05 -29.8 -47.2 -29.3 -47.35 -28.8 -47.5 -28.3 -47.7 -27.8 -47.9 -27.3 -48.15 -26.5 -48.55 -25.7 -49.05 -25.0 -49.5 -24.35 -50.0 -23.7 -50.5 -23.15 -51.05 -22.6 -51.6 -22.1 -52.15 -21.65 -52.7 -21.25 -53.25 -20.85 -53.75 -20.5 -54.35 -20.2 -54.8 -19.85 -55.3 -19.65 -55.7 -19.35 -56.2 -18.85 -57.1 -18.4 -58.0 -18.0 -58.85 -17.7 -59.75 -17.35 -60.6 -17.15 -61.5 -16.9 -62.35 -16.7 -63.3 -16.5 -64.2 -16.4 -65.2 -16.25 -66.15 -16.15 -67.25 -16.05 -68.15 -15.95 -69.4 -15.9 -70.15 -15.75 -71.75 -15.65 -73.25 -15.6 -74.05 -15.5 -75.25 -15.45 -76.15 -15.4 -77.15 -15.4 -78.0 -15.4 -78.9 -15.45 -79.65 -15.5 -80.45 -15.65 -81.2 -15.75 -81.95 -15.95 -82.65 -16.15 -83.35 -16.4 -84.05 -16.7 -84.75 -17.1 -85.45 L-17.1 -85.45" fill="url(#gradient4)" fill-rule="evenodd" stroke="none"/>
    <path d="M-80.3 -11.9 Q-80.3 -11.85 -80.35 -11.85 -80.35 -11.8 -80.4 -11.8 -80.4 -11.75 -80.45 -11.75 -80.5 -11.7 -80.5 -11.7 -80.55 -11.7 -80.55 -11.65 -80.6 -11.65 -80.65 -11.65 -80.65 -11.65 -80.7 -11.6 -80.75 -11.6 -80.75 -11.6 -81.25 -10.65 -81.6 -10.25 -81.65 -10.2 -81.7 -10.1 -81.75 -10.05 -81.8 -10.0 -81.85 -9.9 -81.9 -9.85 -81.95 -9.8 -82.0 -9.7 -82.1 -9.65 -82.15 -9.6 -82.2 -9.55 -82.3 -9.5 -82.35 -9.45 -82.4 -9.4 -82.5 -9.35 -82.55 -9.3 -82.65 -9.25 -82.75 -9.2 -82.8 -9.15 -82.9 -9.15 -83.0 -9.1 -83.1 -9.1 -83.2 -9.1 -83.3 -9.05 -83.4 -9.05 -83.5 -9.1 -83.6 -9.1 -83.7 -9.1 -83.75 -9.15 -83.85 -9.15 -83.95 -9.2 -84.05 -9.25 -84.15 -9.3 -84.2 -9.35 -84.3 -9.4 -84.35 -9.45 -84.45 -9.5 -84.5 -9.55 -84.55 -9.6 -84.65 -9.65 -84.7 -9.7 -84.75 -9.8 -84.85 -9.85 -84.9 -9.9 -84.95 -9.95 -85.0 -10.05 -85.1 -10.1 -85.15 -10.2 -85.3 -10.4 -85.6 -10.8 -85.7 -10.9 -85.8 -11.05 -85.85 -11.1 -85.85 -11.1 -85.85 -11.15 -85.9 -11.15 -85.85 -11.15 -85.95 -11.25 -86.0 -11.35 -86.05 -11.4 -86.15 -11.5 -86.2 -11.55 -86.25 -11.65 -86.3 -11.75 -86.35 -11.8 -86.4 -11.9 -86.45 -12.0 -86.5 -12.05 -86.55 -12.15 -86.6 -12.25 -86.65 -12.3 -86.7 -12.4 -86.75 -12.5 -86.8 -12.6 -86.85 -12.7 -87.0 -12.95 -87.1 -13.15 -87.2 -13.25 -87.2 -13.3 -87.25 -13.35 -87.25 -13.4 -87.3 -13.45 -87.3 -13.45 -87.35 -13.5 -87.35 -13.55 -87.4 -13.6 -87.4 -13.65 -87.5 -13.75 -87.45 -13.7 -87.5 -13.75 -87.55 -13.8 -87.55 -13.8 -87.6 -13.85 -87.6 -13.85 -87.65 -13.9 -87.65 -13.95 -87.7 -13.95 -87.75 -14.0 -87.75 -14.05 -87.8 -14.05 -87.8 -14.1 -87.85 -14.1 -87.85 -14.1 -87.85 -14.1 -87.9 -14.1 -87.9 -14.15 -87.9 -14.15 -87.95 -14.15 -88.0 -14.2 -88.2 -14.3 -88.2 -14.3 -88.2 -14.3 -88.2 -14.3 -88.2 -14.3 -88.25 -14.3 -88.3 -14.35 -88.3 -14.35 -88.35 -14.35 -88.4 -14.35 -88.45 -14.4 -88.5 -14.4 -88.55 -14.4 -88.55 -14.4 -88.65 -14.4 -88.65 -14.4 -88.65 -14.45 -88.7 -14.45 -88.7 -14.45 -88.75 -14.45 -88.8 -14.45 -88.8 -14.4 -88.8 -14.35 -88.8 -14.35 -88.8 -14.3 -88.8 -14.2 -88.85 -14.0 -88.85 -14.0 -88.85 -13.9 -88.85 -13.85 -88.85 -13.8 -88.9 -13.6 -88.9 -13.3 -88.95 -12.85 -89.05 -12.2 -89.05 -12.0 -89.1 -11.65 -89.15 -11.25 -89.15 -11.15 -89.15 -11.1 -89.15 -10.95 -89.1 -10.85 -89.1 -10.8 -89.1 -10.8 -89.1 -10.6 -89.1 -10.55 -89.05 -10.45 -89.05 -10.3 -88.95 -10.05 -88.9 -9.9 -88.55 -8.55 -88.5 -8.35 -88.45 -8.1 -88.4 -7.9 -88.35 -7.7 -88.3 -7.5 -88.3 -7.25 -88.25 -7.05 -88.2 -6.8 -88.2 -6.6 -88.2 -6.4 -88.15 -6.15 -88.15 -5.95 -88.15 -5.7 -88.15 -5.5 -88.15 -5.3 -88.15 -5.05 -88.15 -5.0 -88.15 -4.95 -88.15 -4.9 -88.15 -4.9 -88.15 -4.85 -88.2 -4.8 -88.2 -4.75 -88.2 -4.75 -88.25 -4.7 -88.25 -4.7 -88.3 -4.65 -88.3 -4.6 -88.35 -4.6 -88.4 -4.55 -88.4 -4.55 -88.45 -4.55 -88.5 -4.5 -88.55 -4.45 -88.55 -4.4 -88.6 -4.35 -88.65 -4.3 -88.7 -4.3 -88.75 -4.25 -88.8 -4.25 -88.85 -4.2 -88.95 -4.2 -89.0 -4.15 -89.05 -4.15 -89.1 -4.15 -89.15 -4.1 -89.2 -4.1 -89.3 -4.1 -89.55 -4.05 -89.75 -4.15 -89.9 -4.2 -90.05 -4.3 -90.15 -4.4 -90.25 -4.55 -90.35 -4.7 -90.4 -4.9 -90.45 -5.1 -90.5 -5.35 -90.55 -5.5 -90.55 -5.75 -90.55 -5.95 -90.55 -6.15 -90.55 -6.3 -90.55 -6.5 -90.55 -6.85 -90.5 -7.35 -90.5 -8.1 -90.5 -8.2 -90.5 -8.85 -90.45 -9.7 -90.5 -10.3 -90.5 -10.75 -90.5 -10.8 -90.5 -10.8 -90.5 -10.8 -90.5 -10.8 -90.5 -10.85 -90.5 -10.9 -90.5 -10.95 -90.5 -11.0 -90.45 -11.05 -90.45 -11.1 -90.45 -11.1 -90.4 -11.15 -90.4 -11.2 -90.35 -11.2 -90.35 -11.5 -90.35 -11.55 -90.35 -11.6 -90.35 -11.65 -90.35 -11.65 -90.35 -11.7 -90.3 -11.75 -90.3 -11.8 -90.3 -11.8 -90.3 -11.85 -90.25 -12.2 -90.2 -12.8 -90.1 -13.6 -90.05 -13.75 -90.1 -13.75 -90.15 -13.75 -90.2 -13.7 -90.25 -13.7 -90.3 -13.7 -90.35 -13.65 -90.35 -13.65 -90.35 -13.65 -90.4 -13.65 -90.4 -13.65 -90.45 -13.6 -90.5 -13.6 -90.55 -13.55 -90.7 -13.5 -90.7 -13.5 -91.1 -13.2 -91.4 -13.0 -91.8 -12.7 -92.35 -12.3 -92.5 -12.2 -92.5 -12.15 -92.55 -12.15 -92.55 -12.15 -92.55 -12.1 -93.15 -11.2 -93.55 -10.7 -93.8 -10.4 -94.0 -10.2 -94.0 -10.15 -94.05 -10.15 -94.05 -10.1 -94.05 -10.1 -94.05 -10.1 -94.1 -10.05 -94.1 -10.05 -94.1 -10.0 -94.15 -9.95 -94.15 -9.95 -94.2 -9.9 -94.2 -9.9 -94.25 -9.85 -94.25 -9.8 -94.3 -9.8 -94.3 -9.75 -94.3 -9.7 -94.35 -9.7 -94.35 -9.65 -94.4 -9.6 -94.4 -9.55 -94.4 -9.55 -94.45 -9.5 -94.45 -9.45 -94.45 -9.45 -94.5 -9.4 -94.5 -9.4 -94.55 -9.25 -94.55 -9.2 -94.55 -9.1 -94.6 -9.05 -94.6 -9.0 -94.6 -9.0 -94.6 -9.0 -94.6 -8.95 -94.6 -8.85 -94.6 -8.75 -94.6 -8.7 -94.6 -8.65 -94.6 -8.6 -94.6 -8.55 -94.65 -8.5 -94.65 -8.4 -94.7 -8.35 -94.7 -8.3 -94.75 -8.3 -94.8 -8.25 -94.85 -8.2 -94.9 -8.15 -94.95 -8.15 -95.0 -8.1 -95.05 -8.1 -95.15 -8.1 -95.2 -8.1 -95.3 -8.1 -95.35 -8.15 -95.45 -8.15 -95.5 -8.15 -95.6 -8.2 -95.65 -8.2 -95.75 -8.25 -95.8 -8.3 -95.85 -8.35 -95.95 -8.4 -96.0 -8.45 -96.05 -8.5 -96.1 -8.55 -96.15 -8.65 -96.15 -8.7 -96.2 -8.8 -96.2 -8.85 -96.25 -8.9 -96.25 -8.95 -96.25 -9.0 -96.25 -9.05 -96.25 -9.1 -96.25 -9.15 -96.25 -9.2 -96.25 -9.25 -96.25 -9.35 -96.25 -9.4 -96.2 -9.45 -96.2 -9.5 -96.2 -9.55 -96.2 -9.6 -96.15 -9.65 -96.1 -9.75 -96.1 -9.85 -96.05 -9.9 -96.0 -10.0 -95.95 -10.1 -95.9 -10.2 -95.85 -10.25 -95.8 -10.35 -95.75 -10.45 -95.7 -10.5 -95.65 -10.6 -95.6 -10.65 -95.55 -10.75 -95.45 -10.85 -95.4 -10.9 -95.35 -11.0 -95.3 -11.05 -95.25 -11.15 -95.25 -11.1 -95.15 -11.2 -95.15 -11.2 -95.15 -11.25 -95.15 -11.25 -95.1 -11.25 -95.05 -11.4 -94.85 -11.7 -94.75 -11.85 -94.55 -12.15 -94.35 -12.5 -94.2 -12.65 -94.1 -12.75 -94.0 -12.9 -93.95 -13.0 -93.85 -13.1 -93.75 -13.25 -93.65 -13.35 -93.55 -13.45 -93.45 -13.55 -93.35 -13.65 -93.2 -13.75 -93.1 -13.85 -93.0 -13.95 -92.9 -14.05 -92.75 -14.15 -92.65 -14.25 -92.5 -14.35 -92.45 -14.4 -92.35 -14.5 -92.45 -14.45 -92.5 -14.45 -92.6 -14.4 -92.65 -14.4 -92.75 -14.35 -92.8 -14.35 -92.9 -14.35 -93.0 -14.3 -93.05 -14.3 -93.15 -14.25 -93.2 -14.25 -93.3 -14.25 -93.4 -14.2 -93.45 -14.2 -93.55 -14.2 -93.6 -14.2 -93.7 -14.2 -93.75 -14.2 -93.85 -14.15 -93.9 -14.15 -94.0 -14.15 -94.1 -14.15 -94.15 -14.15 -94.25 -14.15 -94.3 -14.15 -94.4 -14.15 -94.45 -14.15 -94.55 -14.15 -94.65 -14.15 -94.7 -14.15 -94.8 -14.15 -94.85 -14.15 -94.95 -14.15 -95.0 -14.2 -95.1 -14.2 -95.2 -14.2 -95.3 -14.25 -95.35 -14.25 -95.45 -14.3 -95.5 -14.3 -95.6 -14.35 -95.65 -14.35 -95.75 -14.4 -95.8 -14.45 -95.9 -14.5 -95.95 -14.55 -96.05 -14.6 -96.1 -14.65 -96.55 -14.2 -96.85 -13.85 -97.15 -13.45 -97.45 -13.1 -97.7 -12.75 -97.95 -12.35 -98.15 -12.1 -98.4 -11.7 -99.05 -10.6 -98.8 -11.0 -99.0 -10.6 -99.2 -10.35 -99.45 -9.95 -99.7 -9.6 -100.0 -9.25 -100.35 -8.85 -100.7 -8.45 -101.15 -8.0 -101.4 -7.75 -101.55 -7.6 -101.75 -7.4 -101.95 -7.2 -102.2 -7.0 -102.4 -6.85 -102.65 -6.65 -102.85 -6.45 -103.1 -6.3 -103.35 -6.15 -103.6 -5.95 -103.9 -5.8 -104.15 -5.65 -104.45 -5.5 -104.8 -5.35 -105.1 -5.25 -105.4 -5.15 -105.5 -5.1 -105.75 -5.05 -106.0 -4.95 -106.3 -4.9 -106.6 -4.85 -106.9 -4.75 -107.25 -4.75 -107.6 -4.7 -107.95 -4.7 -108.35 -4.7 -108.7 -4.7 -109.1 -4.75 -109.5 -4.85 -109.9 -5.0 -110.35 -5.15 -110.7 -5.3 -111.0 -5.5 -111.3 -5.65 -111.55 -5.85 -111.8 -6.05 -112.05 -6.25 -112.25 -6.45 -112.45 -6.65 -112.6 -6.85 -112.75 -7.05 -112.9 -7.25 -113.05 -7.45 -113.15 -7.6 -113.25 -7.75 -113.3 -7.9 -113.4 -8.0 -113.6 -7.7 -113.8 -7.4 -113.95 -7.15 -114.1 -6.85 -114.3 -6.55 -114.4 -6.3 -114.55 -6.0 -114.65 -5.75 -114.8 -5.5 -114.9 -5.25 -115.0 -5.0 -115.05 -4.75 -115.15 -4.55 -115.2 -4.35 -115.25 -4.15 -115.35 -3.95 -115.45 -3.55 -115.5 -3.45 -115.55 -3.15 -115.6 -2.85 -115.7 -2.55 -115.75 -2.2 -115.8 -1.85 -115.85 -1.5 -115.9 -1.1 -115.9 -0.75 -115.95 -0.3 -115.9 0.1 -115.9 0.55 -115.8 0.95 -115.75 1.45 -115.65 1.9 -115.55 2.25 -115.45 2.6 -115.35 2.9 -115.2 3.2 -115.1 3.5 -114.95 3.8 -114.8 4.05 -114.65 4.3 -114.55 4.5 -114.4 4.7 -114.25 4.9 -114.15 5.1 -114.0 5.25 -113.9 5.4 -113.8 5.55 -113.7 5.65 -113.25 6.2 -112.7 6.75 -112.25 7.2 -111.7 7.6 -111.2 8.0 -110.65 8.35 -110.1 8.65 -109.6 8.9 -109.1 9.1 -108.6 9.3 -108.15 9.5 -107.7 9.6 -107.3 9.75 -106.95 9.85 -106.65 9.9 -106.35 9.95 -106.4 10.05 -106.45 10.15 -106.55 10.3 -106.65 10.4 -106.75 10.55 -106.85 10.7 -107.0 10.85 -107.15 11.0 -107.3 11.15 -107.45 11.3 -107.65 11.5 -107.85 11.65 -108.05 11.8 -108.3 11.95 -108.55 12.1 -108.8 12.2 -108.95 12.3 -109.15 12.35 -109.3 12.4 -109.45 12.45 -109.6 12.5 -109.75 12.55 -109.9 12.6 -110.05 12.6 -110.2 12.65 -110.35 12.65 -110.45 12.7 -110.6 12.7 -110.7 12.7 -110.85 12.7 -110.95 12.7 -111.05 12.7 -110.8 12.85 -110.6 13.0 -110.3 13.2 -110.05 13.35 -109.8 13.5 -109.5 13.65 -109.2 13.85 -108.85 14.0 -108.55 14.2 -108.2 14.35 -107.85 14.55 -107.5 14.7 -107.1 14.9 -106.75 15.05 -106.35 15.2 -105.95 15.35 -105.45 15.55 -105.1 15.7 -104.6 15.85 -104.2 16.0 -103.7 16.2 -103.2 16.35 -102.65 16.5 -102.15 16.65 -101.55 16.8 -101.0 16.9 -100.4 17.0 -99.8 17.05 -99.15 17.1 -98.5 17.15 -97.8 17.15 -97.15 17.1 -96.2 17.05 -95.25 16.85 -94.35 16.65 -93.5 16.4 -92.7 16.15 -91.9 15.8 -91.2 15.5 -90.55 15.1 -89.9 14.75 -89.35 14.4 -88.85 14.05 -88.35 13.7 -87.95 13.4 -87.6 13.1 -87.35 12.9 -87.05 12.6 -86.25 11.9 -85.6 11.15 -84.95 10.45 -84.35 9.65 -83.85 8.95 -83.4 8.15 -82.95 7.4 -82.6 6.6 -82.25 5.9 -81.95 5.1 -81.7 4.45 -81.45 3.65 -81.25 3.05 -81.05 2.3 -80.9 1.9 -80.7 1.05 -80.45 0.1 -80.25 -0.9 -80.1 -1.8 -79.95 -2.75 -79.85 -3.65 -79.8 -4.55 -79.75 -5.4 -79.75 -6.25 -79.7 -7.05 -79.75 -7.85 -79.8 -8.6 -79.85 -9.35 -79.95 -10.05 -80.0 -10.75 -80.1 -11.35 -80.2 -12.0 -80.25 -12.0 -80.25 -11.95 -80.25 -11.95 -80.3 -11.9 L-80.3 -11.9" fill="url(#gradient5)" fill-rule="evenodd" stroke="none"/>
    <path d="M-54.85 -37.75 L-54.5 -39.1 Q-54.55 -39.1 -54.6 -39.1 -54.65 -39.1 -54.7 -39.15 -54.75 -39.15 -54.8 -39.15 -54.85 -39.15 -54.9 -39.2 -54.95 -39.2 -55.0 -39.2 -55.05 -39.25 -55.1 -39.25 -55.15 -39.3 -55.2 -39.3 -55.25 -39.35 -55.3 -39.35 -55.45 -39.45 -55.6 -39.55 -55.7 -39.65 -55.85 -39.8 -55.95 -39.9 -56.05 -40.05 -56.15 -40.2 -56.25 -40.35 -56.35 -40.5 -56.4 -40.65 -56.5 -40.8 -56.55 -40.95 -56.65 -41.1 -56.7 -41.25 -56.75 -41.4 -56.8 -41.6 -56.9 -41.85 -57.15 -42.45 -57.15 -42.5 -57.2 -42.55 -57.3 -42.7 -57.5 -43.05 -57.7 -43.35 -57.8 -43.55 -57.85 -43.6 -57.9 -43.6 -57.95 -43.65 -58.0 -43.7 -58.05 -43.75 -58.1 -43.8 -58.1 -43.8 -58.15 -43.85 -58.2 -43.9 -58.25 -43.95 -58.3 -44.0 -58.35 -44.05 -58.35 -44.1 -58.4 -44.15 -58.45 -44.2 -58.5 -44.25 -58.5 -44.3 -58.6 -44.4 -58.6 -44.4 -58.6 -44.4 -58.6 -44.4 -58.65 -44.45 -58.65 -44.45 -58.7 -44.5 -58.75 -44.5 -58.75 -44.5 -58.75 -44.55 -58.8 -44.55 -58.8 -44.55 -58.85 -44.6 -58.85 -44.6 -58.95 -44.6 -58.95 -44.6 -58.95 -44.5 -58.95 -44.45 -59.0 -44.4 -59.0 -44.35 -59.0 -44.3 -59.0 -44.25 -59.05 -44.2 -59.05 -44.2 -59.05 -44.15 -59.05 -44.1 -59.1 -44.05 -59.2 -43.35 -59.25 -43.05 -59.25 -42.9 -59.3 -42.8 -59.3 -42.65 -59.35 -42.5 -59.35 -42.4 -59.4 -42.25 -59.4 -42.1 -59.45 -42.0 -59.45 -41.85 -59.5 -41.7 -59.55 -41.6 -59.55 -41.45 -59.6 -41.3 -59.65 -41.2 -59.65 -41.05 -59.7 -40.9 -59.75 -40.8 -59.8 -40.6 -59.8 -40.55 -59.8 -40.55 -59.8 -40.35 -59.8 -39.95 -59.85 -39.5 -59.85 -39.4 -59.9 -38.9 -59.9 -38.25 -59.9 -37.65 -59.85 -37.4 -59.8 -36.75 -59.85 -36.55 -59.85 -36.45 -59.85 -36.4 -59.9 -36.3 -59.9 -36.25 -59.9 -36.2 -59.95 -36.1 -59.95 -36.05 -60.0 -36.0 -60.0 -35.9 -60.05 -35.85 -60.1 -35.8 -60.15 -35.75 -60.2 -35.7 -60.25 -35.65 -60.3 -35.6 -60.35 -35.55 -60.4 -35.5 -60.45 -35.5 -60.5 -35.45 -60.55 -35.4 -60.65 -35.4 -60.7 -35.4 -60.75 -35.35 -60.8 -35.35 -60.85 -35.35 -60.95 -35.35 -61.0 -35.35 -61.05 -35.35 -61.15 -35.35 -61.2 -35.35 -61.25 -35.35 -61.3 -35.4 -61.4 -35.45 -61.45 -35.45 -61.5 -35.5 -61.6 -35.55 -61.65 -35.6 -61.7 -35.65 -61.75 -35.7 -61.8 -35.75 -61.85 -35.8 -61.85 -35.9 -61.9 -35.95 -61.9 -36.05 -61.95 -36.1 -61.95 -36.2 -61.95 -36.25 -61.95 -36.35 -61.95 -36.4 -61.95 -36.45 -61.95 -36.5 -61.95 -36.55 -61.95 -36.6 -61.95 -36.65 -61.95 -36.7 -61.9 -36.75 -61.9 -36.75 -61.9 -36.85 -61.9 -36.9 -61.85 -37.05 -61.85 -37.05 -61.85 -37.1 -61.85 -37.15 -61.85 -37.15 -61.8 -37.35 -61.75 -37.7 -61.7 -38.05 -61.65 -38.25 -61.6 -38.7 -61.4 -39.35 -61.3 -39.65 -61.0 -40.75 -61.0 -40.8 -61.0 -40.85 -61.0 -40.9 -61.0 -40.9 -61.0 -40.95 -61.0 -41.0 -61.0 -41.05 -61.0 -41.1 -61.05 -41.15 -61.05 -41.2 -61.05 -41.2 -61.05 -41.25 -61.05 -41.3 -61.05 -41.35 -61.05 -41.4 -61.05 -41.45 -61.05 -41.65 -60.55 -43.35 -60.55 -43.4 -60.5 -43.45 -60.5 -43.5 -60.5 -43.55 -60.45 -43.6 -60.45 -43.65 -60.45 -43.7 -60.4 -43.75 -60.4 -43.8 -60.4 -43.85 -60.35 -43.9 -60.35 -43.95 -60.35 -44.0 -60.35 -44.05 -60.3 -44.1 -60.3 -44.1 -60.3 -44.2 -60.25 -44.35 -60.2 -44.5 -60.2 -44.55 -60.2 -44.55 -60.2 -44.65 -60.15 -44.7 -60.15 -44.75 -60.15 -44.75 -60.15 -44.7 -60.2 -44.65 -60.2 -44.7 -60.15 -44.75 -60.15 -44.8 -60.15 -44.85 -60.15 -44.9 -60.15 -44.9 -60.15 -44.95 -60.15 -44.95 -60.75 -44.9 -60.75 -44.85 -60.8 -44.85 -60.85 -44.8 -60.85 -44.8 -60.9 -44.75 -60.9 -44.75 -60.95 -44.7 -61.0 -44.7 -61.0 -44.7 -61.05 -44.65 -61.1 -44.65 -61.15 -44.65 -61.15 -44.65 -61.2 -44.65 -61.25 -44.6 -61.3 -44.6 -61.3 -44.6 -61.3 -44.6 -61.35 -44.6 -61.4 -44.6 -61.45 -44.6 -61.5 -44.6 -61.55 -44.55 -61.6 -44.55 -61.65 -44.55 -61.65 -44.55 -61.7 -44.5 -61.75 -44.5 -61.8 -44.5 -61.85 -44.5 -61.85 -44.5 -61.9 -44.45 -61.95 -44.45 -62.0 -44.45 -62.05 -44.4 -62.15 -44.4 -62.2 -44.35 -62.25 -44.35 -62.25 -44.35 -62.25 -44.35 -62.55 -44.05 -62.7 -43.95 -63.1 -43.55 -64.05 -42.55 -64.1 -42.5 -64.1 -42.5 -64.15 -42.45 -64.2 -42.4 -64.2 -42.4 -64.25 -42.35 -64.3 -42.3 -64.3 -42.3 -64.35 -42.25 -64.35 -42.2 -64.4 -42.2 -64.4 -42.15 -64.45 -42.15 -64.45 -42.1 -64.45 -42.1 -64.5 -42.05 -64.5 -42.05 -64.5 -42.0 -64.55 -42.0 -64.55 -42.0 -64.55 -41.95 -64.6 -41.95 -64.65 -41.9 -64.7 -41.8 -64.75 -41.7 -64.8 -41.65 -64.8 -41.6 -64.8 -41.6 -64.8 -41.55 -64.85 -41.5 -64.85 -41.5 -64.85 -41.5 -64.85 -41.5 -64.85 -41.5 -64.9 -41.45 -64.9 -41.3 -65.0 -41.15 -65.0 -41.15 -65.05 -41.05 -65.05 -40.95 -65.1 -40.85 -65.15 -40.75 -65.2 -40.65 -65.25 -40.6 -65.3 -40.5 -65.35 -40.45 -65.4 -40.35 -65.5 -40.3 -65.55 -40.25 -65.65 -40.2 -65.75 -40.15 -65.85 -40.1 -65.95 -40.05 -66.1 -40.05 -66.2 -40.0 -66.35 -40.05 -66.45 -40.05 -66.6 -40.05 -66.7 -40.1 -66.8 -40.15 -66.95 -40.2 -67.0 -40.25 -67.1 -40.35 -67.2 -40.4 -67.25 -40.55 -67.25 -40.65 -67.25 -40.7 -67.25 -40.75 -67.3 -40.8 -67.3 -40.9 -67.25 -40.95 -67.25 -41.0 -67.25 -41.05 -67.25 -41.1 -67.2 -41.15 -67.2 -41.2 -67.15 -41.2 -67.15 -41.25 -67.1 -41.3 -67.1 -41.35 -67.05 -41.45 -67.05 -41.45 -66.95 -41.6 -66.7 -42.15 -66.65 -42.25 -66.6 -42.3 -66.55 -42.4 -66.5 -42.5 -66.45 -42.55 -66.4 -42.65 -66.35 -42.7 -66.3 -42.8 -66.2 -42.85 -66.15 -42.95 -66.1 -43.0 -66.0 -43.1 -65.95 -43.15 -65.9 -43.2 -65.8 -43.3 -65.75 -43.35 -64.95 -44.05 -64.4 -44.45 -64.3 -44.5 -64.2 -44.6 -64.15 -44.65 -64.05 -44.7 -63.95 -44.75 -63.85 -44.8 -63.75 -44.9 -63.7 -44.95 -63.6 -45.0 -63.5 -45.05 -63.4 -45.1 -63.3 -45.15 -63.2 -45.2 -63.1 -45.25 -63.0 -45.3 -62.9 -45.35 -62.85 -45.4 -62.8 -45.4 -62.8 -45.45 -62.75 -45.5 -62.7 -45.5 -62.65 -45.55 -62.6 -45.6 -62.55 -45.6 -62.55 -45.65 -62.5 -45.65 -62.45 -45.7 -62.4 -45.75 -62.35 -45.75 -62.3 -45.8 -62.25 -45.8 -62.25 -45.85 -62.3 -45.85 -62.35 -45.85 -62.4 -45.85 -62.45 -45.8 -62.5 -45.8 -62.55 -45.8 -62.6 -45.8 -62.65 -45.8 -62.7 -45.8 -62.75 -45.8 -62.8 -45.8 -62.85 -45.8 -62.9 -45.75 -62.95 -45.75 -63.0 -45.75 -63.05 -45.75 -63.15 -45.75 -63.25 -45.75 -63.35 -45.75 -63.5 -45.75 -63.6 -45.8 -63.7 -45.8 -63.8 -45.8 -63.9 -45.85 -64.0 -45.85 -64.1 -45.9 -64.2 -45.95 -64.3 -45.95 -64.4 -46.0 -64.5 -46.05 -64.6 -46.1 -64.7 -46.15 -64.75 -46.15 -64.8 -46.15 -64.85 -46.15 -64.9 -46.15 -64.95 -46.15 -65.0 -46.15 -65.05 -46.15 -65.1 -46.15 -65.15 -46.15 -65.2 -46.2 -65.25 -46.2 -65.3 -46.2 -65.35 -46.2 -65.4 -46.25 -65.45 -46.25 -65.5 -46.3 -65.65 -46.4 -65.8 -46.5 -65.95 -46.6 -66.05 -46.75 -66.2 -46.9 -66.3 -47.05 -66.35 -47.25 -66.45 -47.4 -66.5 -47.6 -66.55 -47.8 -66.55 -48.0 -66.55 -48.15 -66.55 -48.35 -66.55 -48.55 -66.5 -48.75 -66.45 -48.9 -66.45 -48.9 -66.45 -48.9 -66.45 -48.95 -66.45 -49.0 -66.45 -49.05 -66.45 -49.1 -66.45 -49.15 -66.45 -49.2 -66.45 -49.2 -66.4 -49.25 -66.4 -49.3 -66.4 -49.35 -66.4 -49.35 -66.35 -49.4 -66.35 -49.45 -66.3 -49.45 -66.3 -49.5 -66.25 -49.5 -66.25 -49.55 -66.2 -49.55 -66.2 -49.6 -66.15 -49.6 -66.5 -49.7 -67.75 -50.0 -69.1 -50.3 -70.3 -50.65 -71.35 -50.9 -72.3 -51.15 -73.05 -51.35 -73.9 -51.6 -66.05 -49.4 -75.15 -51.95 -75.8 -52.1 -76.15 -52.2 -76.65 -52.3 -77.0 -52.4 -77.45 -52.5 -77.8 -52.55 -78.25 -52.6 -78.65 -52.65 -79.6 -52.7 -80.5 -52.7 -81.4 -52.65 -82.25 -52.5 -83.1 -52.4 -83.9 -52.2 -84.6 -52.0 -85.35 -51.75 -86.0 -51.55 -86.65 -51.3 -87.2 -51.05 -87.75 -50.8 -88.2 -50.6 -88.65 -50.35 -88.9 -50.2 -89.3 -50.0 -89.75 -49.75 -90.05 -49.55 -90.6 -49.25 -91.05 -48.9 -91.7 -48.45 -92.3 -48.0 -93.0 -47.45 -93.65 -46.85 -94.4 -46.15 -95.0 -45.4 -95.7 -44.55 -96.3 -43.7 -96.95 -42.7 -97.4 -41.7 -97.95 -40.55 -98.3 -39.35 -98.55 -38.55 -98.65 -37.7 -98.8 -36.9 -98.85 -36.1 -98.9 -35.35 -98.85 -34.6 -98.85 -33.9 -98.75 -33.2 -98.65 -32.55 -98.55 -31.85 -98.4 -31.25 -98.25 -30.6 -98.15 -30.1 -97.95 -29.45 -97.85 -29.1 -97.65 -28.45 -97.5 -28.0 -97.4 -27.6 -97.25 -27.15 -97.1 -26.75 -96.95 -26.35 -96.8 -25.95 -96.65 -25.6 -96.45 -25.2 -96.3 -24.85 -96.1 -24.45 -95.95 -24.1 -95.75 -23.75 -95.6 -23.45 -95.4 -23.1 -95.2 -22.8 -95.0 -22.45 -95.0 -22.5 -95.0 -22.5 -95.0 -22.55 -94.95 -22.55 -94.95 -22.6 -94.9 -22.65 -94.85 -22.7 -94.85 -22.75 -94.8 -22.8 -94.75 -22.85 -94.7 -22.85 -94.65 -22.9 -94.6 -22.95 -94.55 -22.95 -94.5 -23.0 -94.45 -23.0 -94.4 -23.05 -94.35 -23.05 -94.3 -23.1 -94.2 -23.1 -94.1 -23.1 -94.0 -23.1 -93.9 -23.15 -93.85 -23.15 -93.75 -23.1 -93.65 -23.1 -93.55 -23.1 -93.45 -23.05 -93.35 -23.05 -93.3 -23.0 -93.2 -22.95 -93.1 -22.95 -93.0 -22.9 -92.95 -22.85 -92.85 -22.75 -92.8 -22.7 -92.75 -22.7 -92.75 -22.65 -92.7 -22.65 -92.7 -22.6 -92.65 -22.55 -92.65 -22.55 -92.55 -22.5 -92.5 -22.45 -92.45 -22.45 -92.35 -22.4 -92.3 -22.35 -92.2 -22.3 -92.15 -22.25 -92.1 -22.2 -92.0 -22.2 -91.95 -22.15 -91.9 -22.1 -91.8 -22.05 -91.75 -22.0 -91.7 -21.95 -91.6 -21.9 -91.55 -21.85 -91.45 -21.8 -91.4 -21.7 -91.3 -21.65 -91.25 -21.55 -91.15 -21.5 -91.1 -21.4 -91.0 -21.35 -90.95 -21.25 -90.9 -21.2 -90.8 -21.1 -90.75 -21.0 -90.65 -20.95 -90.6 -20.85 -90.55 -20.8 -90.5 -20.7 -90.4 -20.6 -90.35 -20.5 -89.5 -19.25 -89.45 -19.15 -89.4 -19.1 -89.3 -19.0 -89.3 -18.9 -89.2 -18.85 -89.15 -18.75 -89.1 -18.65 -89.1 -18.55 -89.05 -18.45 -89.0 -18.4 -88.95 -18.3 -88.95 -18.2 -88.95 -18.1 -88.9 -18.0 -88.9 -17.85 -88.9 -17.75 -88.9 -17.7 -88.9 -17.65 -88.95 -17.6 -88.95 -17.55 -89.0 -17.5 -89.0 -17.45 -89.05 -17.4 -89.1 -17.35 -89.15 -17.3 -89.2 -17.3 -89.25 -17.25 -89.3 -17.2 -89.35 -17.2 -89.4 -17.2 -89.45 -17.15 -89.5 -17.15 -89.55 -17.15 -89.6 -17.15 -89.65 -17.15 -89.7 -17.2 -89.75 -17.2 -89.8 -17.25 -89.85 -17.3 -89.9 -17.3 -89.95 -17.35 -90.0 -17.4 -90.0 -17.45 -90.05 -17.5 -90.1 -17.55 -90.1 -17.6 -90.1 -17.65 -90.1 -17.7 -90.2 -17.7 -90.3 -17.75 -90.35 -17.75 -90.35 -17.8 -90.4 -17.8 -90.45 -17.85 -90.45 -17.85 -90.5 -17.9 -90.5 -17.95 -90.55 -17.95 -90.55 -18.0 -90.6 -18.0 -90.65 -18.0 -90.65 -18.0 -90.7 -18.0 -90.75 -18.05 -90.8 -18.05 -90.8 -18.05 -90.85 -18.05 -90.9 -18.1 -90.9 -18.1 -90.95 -18.15 -91.0 -18.15 -91.0 -18.2 -91.05 -18.2 -91.05 -18.25 -91.1 -18.25 -91.1 -18.3 -91.15 -18.35 -91.15 -18.4 -91.2 -18.45 -91.25 -18.5 -91.25 -18.55 -91.3 -18.6 -91.3 -18.6 -91.35 -18.65 -91.4 -18.7 -91.4 -18.75 -91.45 -18.8 -91.45 -18.8 -91.5 -18.85 -91.55 -18.9 -91.55 -18.95 -91.6 -18.95 -91.75 -19.15 -92.2 -19.65 -92.25 -19.7 -92.3 -19.75 -92.3 -19.8 -92.35 -19.85 -92.4 -19.9 -92.45 -20.0 -92.45 -20.05 -92.5 -20.1 -92.55 -20.15 -92.6 -20.2 -92.6 -20.25 -92.65 -20.3 -92.7 -20.35 -92.75 -20.45 -92.75 -20.5 -92.8 -20.55 -92.8 -20.55 -92.9 -20.6 -92.9 -20.6 -93.0 -20.65 -93.05 -20.7 -93.05 -20.65 -93.05 -20.7 -93.1 -20.7 -93.2 -20.75 -93.45 -20.8 -93.45 -20.8 -93.45 -20.8 -93.45 -20.8 -93.45 -20.8 -93.5 -20.8 -93.65 -20.8 -93.7 -20.8 -93.8 -20.8 -93.85 -20.8 -93.9 -20.8 -93.75 -20.55 -93.55 -20.35 -93.4 -20.1 -93.25 -19.9 -93.05 -19.7 -92.9 -19.5 -92.75 -19.3 -92.6 -19.1 -92.45 -18.9 -92.3 -18.75 -92.15 -18.55 -92.0 -18.4 -91.85 -18.25 -91.7 -18.1 -91.55 -17.95 -91.45 -17.8 -91.65 -17.7 -91.85 -17.6 -92.05 -17.5 -92.25 -17.4 -92.45 -17.3 -92.65 -17.2 -92.85 -17.1 -93.0 -17.0 -93.2 -16.9 -93.35 -16.8 -93.55 -16.7 -93.7 -16.55 -93.85 -16.45 -94.0 -16.35 -94.15 -16.25 -94.3 -16.15 -94.3 -16.15 -94.25 -16.1 -94.25 -16.1 -94.15 -16.1 -94.15 -16.1 -94.2 -16.1 -94.15 -16.1 -93.95 -16.1 -93.9 -16.1 -93.85 -16.1 -93.85 -16.1 -93.8 -16.1 -93.75 -16.1 -93.75 -16.1 -93.7 -16.1 -93.65 -16.1 -93.6 -16.05 -93.6 -16.05 -93.55 -16.05 -93.5 -16.05 -93.5 -16.05 -93.45 -16.05 -93.4 -16.05 -93.4 -16.05 -93.25 -16.05 -92.75 -16.05 -92.3 -16.05 -92.05 -16.1 -92.05 -16.1 -92.05 -16.1 -92.05 -16.1 -92.0 -16.1 -91.95 -16.1 -91.85 -16.15 -91.85 -16.15 -91.55 -16.2 -91.5 -16.2 -91.45 -16.25 -91.4 -16.25 -91.35 -16.25 -91.3 -16.25 -91.25 -16.25 -91.2 -16.25 -91.15 -16.25 -91.1 -16.25 -91.05 -16.25 -91.0 -16.25 -90.95 -16.25 -90.9 -16.25 -90.85 -16.25 -90.8 -16.25 -90.75 -16.25 -90.7 -16.25 -90.7 -16.2 -90.65 -16.2 -90.65 -16.2 -90.6 -16.2 -90.6 -16.15 -90.55 -16.15 -90.55 -16.15 -90.5 -16.1 -90.5 -16.1 -90.45 -16.05 -90.45 -16.05 -90.45 -16.0 -90.4 -16.0 -90.4 -15.95 -90.4 -15.95 -90.35 -15.95 -90.3 -15.95 -90.3 -15.95 -90.25 -15.95 -90.2 -15.95 -90.15 -15.95 -90.15 -15.95 -90.1 -15.95 -90.05 -15.95 -90.05 -15.9 -90.0 -15.9 -89.95 -15.9 -89.95 -15.85 -89.9 -15.85 -89.85 -15.8 -89.85 -15.8 -89.8 -15.75 -89.8 -15.75 -89.75 -15.7 -89.75 -15.65 -89.7 -15.65 -89.7 -15.6 -89.65 -15.6 -89.6 -15.65 -89.6 -15.65 -89.55 -15.65 -89.5 -15.65 -89.45 -15.65 -89.35 -15.65 -89.25 -15.65 -89.15 -15.65 -89.1 -15.65 -89.0 -15.65 -88.9 -15.65 -88.8 -15.65 -88.7 -15.65 -88.6 -15.65 -88.5 -15.6 -88.45 -15.6 -88.35 -15.6 -88.25 -15.55 -88.15 -15.55 -88.05 -15.55 -88.0 -15.5 -87.9 -15.45 -87.8 -15.45 -87.75 -15.4 -87.65 -15.35 -87.55 -15.35 -87.45 -15.3 -87.4 -15.25 -87.3 -15.2 -87.25 -15.15 -87.15 -15.1 -87.1 -15.0 -87.0 -14.95 -86.95 -14.9 -86.85 -14.85 -86.8 -14.75 -86.75 -14.7 -86.7 -14.65 -86.65 -14.6 -86.6 -14.55 -86.6 -14.5 -86.55 -14.45 -86.5 -14.4 -86.45 -14.35 -86.45 -14.3 -86.4 -14.25 -86.35 -14.2 -86.3 -14.15 -86.3 -14.1 -86.25 -14.05 -86.2 -14.0 -86.2 -13.95 -86.15 -13.9 -86.15 -13.9 -86.1 -13.9 -86.05 -13.9 -86.0 -13.85 -85.95 -13.85 -85.9 -13.85 -85.9 -13.8 -85.85 -13.8 -85.75 -13.75 -85.7 -13.65 -85.6 -13.6 -85.55 -13.55 -85.45 -13.45 -85.4 -13.4 -85.3 -13.3 -85.25 -13.25 -85.2 -13.15 -85.1 -13.1 -85.05 -13.0 -85.0 -12.95 -84.95 -12.85 -84.85 -12.8 -84.8 -12.7 -84.75 -12.6 -84.7 -12.55 -84.55 -12.35 -84.55 -12.35 -84.55 -12.35 -84.5 -12.35 -84.5 -12.35 -84.5 -12.3 -84.5 -12.3 -84.45 -12.25 -84.45 -12.25 -84.45 -12.25 -84.45 -12.2 -84.45 -12.2 -84.4 -12.2 -84.4 -12.2 -84.4 -12.2 -84.4 -12.2 -84.4 -12.2 -84.2 -12.1 -84.15 -12.05 -84.1 -12.0 -84.0 -11.95 -84.0 -11.95 -84.0 -11.95 -84.0 -11.95 -84.0 -11.95 -83.95 -11.95 -83.65 -11.85 -83.65 -11.85 -83.65 -11.85 -83.65 -11.85 -83.65 -11.85 -83.6 -11.85 -83.5 -11.85 -83.35 -11.85 -83.3 -11.85 -83.2 -11.85 -83.2 -11.85 -83.2 -11.85 -82.9 -11.95 -82.65 -12.0 -82.35 -12.1 -82.3 -12.2 -82.2 -12.3 -82.15 -12.4 -82.1 -12.5 -82.0 -12.6 -81.95 -12.75 -81.85 -12.85 -81.8 -12.95 -81.7 -13.05 -81.65 -13.1 -81.55 -13.2 -81.5 -13.3 -81.4 -13.4 -81.3 -13.5 -81.25 -13.6 -81.15 -13.7 -81.1 -13.85 -81.0 -14.1 -80.95 -14.2 -80.9 -14.25 -80.9 -14.35 -80.85 -14.45 -80.8 -14.5 -80.75 -14.6 -80.7 -14.65 -80.6 -14.75 -79.6 -16.25 -80.5 -14.9 -80.45 -15.0 -80.4 -15.05 -80.35 -15.15 -80.3 -15.2 -80.25 -15.3 -80.25 -15.35 -80.25 -15.4 -80.2 -15.4 -80.2 -15.4 -80.2 -15.45 -80.2 -15.45 -80.15 -15.5 -80.15 -15.5 -80.15 -15.55 -80.15 -15.55 -80.15 -15.6 -80.15 -15.65 -80.1 -15.7 -80.1 -15.7 -80.1 -15.75 -80.1 -15.75 -80.1 -15.85 -80.05 -15.9 -80.05 -15.9 -80.05 -16.25 -80.05 -16.45 -80.1 -17.0 -80.1 -17.1 -80.1 -17.1 -80.1 -17.15 -80.1 -17.15 -80.1 -17.2 -80.1 -17.2 -80.15 -17.25 -80.15 -17.3 -80.15 -17.3 -80.15 -17.3 -80.15 -17.3 -80.15 -17.3 -80.2 -17.35 -80.2 -17.35 -80.25 -17.35 -80.25 -17.35 -80.3 -17.4 -80.35 -17.4 -80.35 -17.4 -80.4 -17.4 -80.5 -17.4 -80.6 -17.4 -80.65 -17.4 -80.75 -17.4 -82.1 -17.35 -82.15 -17.35 -82.35 -17.35 -83.1 -17.3 -83.15 -17.25 -83.2 -17.25 -83.25 -17.25 -83.3 -17.25 -83.35 -17.25 -83.45 -17.25 -83.5 -17.2 -83.6 -17.2 -83.65 -17.15 -83.75 -17.15 -83.8 -17.1 -83.9 -17.1 -84.0 -17.05 -84.05 -17.05 -84.15 -17.0 -84.2 -17.0 -84.3 -17.0 -84.4 -16.95 -84.45 -16.95 -84.55 -16.9 -84.6 -16.9 -85.05 -16.8 -85.45 -16.7 -85.5 -16.7 -85.65 -16.65 -85.8 -16.6 -85.9 -16.55 -85.9 -16.55 -85.95 -16.55 -85.95 -16.55 -85.95 -16.55 -86.0 -16.5 -86.0 -16.5 -86.05 -16.5 -86.1 -16.45 -86.15 -16.4 -86.3 -16.35 -86.45 -16.3 -86.5 -16.25 -86.6 -16.25 -86.7 -16.2 -86.8 -16.15 -86.9 -16.1 -87.0 -16.05 -87.1 -16.05 -87.2 -16.0 -87.3 -16.0 -87.4 -15.95 -87.5 -15.95 -87.6 -15.9 -87.7 -15.9 -87.75 -15.9 -87.8 -15.9 -87.9 -15.95 -87.95 -15.95 -88.0 -16.0 -88.05 -16.0 -88.1 -16.05 -88.15 -16.1 -88.15 -16.15 -88.2 -16.2 -88.25 -16.25 -88.25 -16.3 -88.3 -16.35 -88.3 -16.4 -88.3 -16.45 -88.3 -16.5 -88.3 -16.55 -88.3 -16.6 -88.3 -16.65 -88.3 -16.65 -88.3 -16.7 -88.25 -16.75 -88.25 -16.8 -88.25 -16.8 -88.2 -16.85 -88.2 -16.85 -88.15 -16.9 -88.15 -16.95 -88.1 -16.95 -88.1 -17.0 -88.05 -17.0 -88.0 -17.0 -88.0 -17.05 -87.95 -17.05 -87.9 -17.1 -87.9 -17.1 -87.85 -17.1 -87.8 -17.1 -87.75 -17.15 -87.5 -17.2 -87.5 -17.3 -87.45 -17.35 -87.4 -17.4 -87.35 -17.5 -87.3 -17.55 -87.25 -17.55 -87.15 -17.6 -87.05 -17.65 -86.95 -17.7 -86.85 -17.75 -86.75 -17.8 -86.65 -17.85 -86.5 -17.9 -86.4 -17.9 -86.3 -17.95 -86.2 -18.0 -86.1 -18.0 -86.0 -18.05 -85.9 -18.05 -85.75 -18.1 -85.65 -18.1 -85.55 -18.1 -85.2 -18.2 -84.65 -18.25 -84.65 -18.3 -84.6 -18.3 -84.55 -18.3 -84.45 -18.35 -84.4 -18.35 -84.3 -18.35 -84.25 -18.35 -84.2 -18.4 -84.1 -18.4 -84.05 -18.4 -83.95 -18.4 -83.9 -18.4 -83.8 -18.45 -83.75 -18.45 -83.65 -18.45 -83.6 -18.45 -83.5 -18.45 -83.45 -18.5 -83.25 -18.55 -82.95 -18.65 -82.6 -18.75 -82.45 -18.8 -82.35 -18.85 -82.25 -18.85 -82.1 -18.9 -82.0 -18.9 -81.9 -18.9 -81.8 -18.95 -81.65 -18.95 -81.55 -19.0 -81.45 -19.0 -81.3 -19.0 -81.2 -19.0 -81.1 -19.0 -81.0 -19.05 -80.85 -19.05 -80.75 -19.05 -80.65 -19.05 -80.4 -19.05 -80.2 -19.05 -80.0 -19.05 -79.8 -19.0 -79.55 -19.0 -79.35 -18.95 -79.1 -18.9 -78.9 -18.85 -78.65 -18.75 -78.5 -18.65 -78.3 -18.55 -78.15 -18.45 -77.95 -18.3 -77.85 -18.1 -77.7 -17.95 -77.65 -17.7 -77.6 -17.55 -77.55 -17.35 -77.55 -17.2 -77.55 -17.0 -77.55 -16.85 -77.6 -16.65 -77.6 -16.5 -77.65 -16.3 -77.7 -16.15 -77.8 -15.95 -77.85 -15.8 -77.95 -15.65 -78.0 -15.5 -78.1 -15.3 -78.15 -15.2 -78.25 -15.0 -78.3 -14.9 -78.35 -14.8 -78.4 -14.7 -78.5 -14.6 -78.55 -14.5 -78.6 -14.4 -78.65 -14.3 -78.7 -14.2 -78.8 -14.1 -78.85 -14.0 -78.9 -13.9 -78.95 -13.8 -79.05 -13.7 -79.1 -13.6 -79.15 -13.5 -79.2 -13.4 -79.1 -13.45 -79.0 -13.5 -78.9 -13.5 -78.75 -13.55 -78.65 -13.6 -78.55 -13.65 -78.4 -13.65 -78.3 -13.7 -78.15 -13.75 -78.05 -13.75 -77.9 -13.8 -77.8 -13.85 -77.65 -13.85 -77.5 -13.9 -77.4 -13.9 -77.25 -13.95 -76.95 -14.0 -76.7 -14.0 -76.4 -14.05 -76.15 -14.05 -75.9 -14.1 -75.65 -14.1 -75.4 -14.1 -75.15 -14.1 -74.95 -14.1 -74.7 -14.05 -74.5 -14.05 -74.3 -14.05 -74.1 -14.0 -73.9 -14.0 -73.75 -13.95 -73.55 -13.95 -73.4 -13.9 -73.25 -13.85 -73.1 -13.85 -72.95 -13.8 -72.8 -13.75 -72.6 -13.7 -72.4 -13.65 -72.25 -13.6 -72.05 -13.6 -71.85 -13.55 -71.65 -13.5 -71.4 -13.45 -71.2 -13.45 -70.95 -13.4 -70.75 -13.35 -70.5 -13.35 -69.95 -13.3 -69.65 -13.25 -69.15 -13.15 -68.7 -13.15 -68.2 -13.05 -67.75 -13.05 -67.2 -13.0 -66.7 -13.0 -66.15 -13.0 -65.65 -13.05 -65.1 -13.1 -64.6 -13.15 -64.05 -13.25 -63.5 -13.4 -62.95 -13.55 -62.45 -13.75 -61.65 -14.05 -60.85 -14.5 -60.15 -14.95 -59.5 -15.5 -58.9 -15.95 -58.35 -16.55 -57.85 -17.1 -57.4 -17.75 -57.0 -18.25 -56.65 -18.9 -56.35 -19.4 -56.05 -19.95 -55.8 -20.4 -55.6 -20.9 -55.45 -21.15 -55.3 -21.6 -55.1 -22.1 -54.9 -22.55 -54.75 -23.0 -54.65 -23.5 -54.5 -23.95 -54.4 -24.4 -54.3 -24.8 -54.25 -25.25 -54.2 -25.7 -54.15 -26.1 -54.1 -26.5 -54.05 -26.95 -54.0 -27.35 -54.0 -27.8 -54.0 -28.05 -53.95 -28.65 -53.9 -29.35 -53.9 -30.05 -53.9 -30.75 -53.95 -31.4 -53.95 -32.05 -54.0 -32.65 -54.05 -33.25 -54.15 -33.85 -54.2 -34.4 -54.3 -34.95 -54.35 -35.45 -54.45 -35.95 -54.55 -36.45 -54.65 -36.9 -54.75 -37.3 -54.85 -37.75 L-54.85 -37.75" fill="url(#gradient6)" fill-rule="evenodd" stroke="none"/>
    <path d="M-57.65 -46.8 Q-55.45 -46.8 -51.1 -46.75 -51.1 -46.75 -51.05 -46.75 -51.0 -46.75 -50.95 -46.75 -50.9 -46.75 -50.85 -46.75 -50.75 -46.75 -50.7 -46.7 -50.6 -46.7 -50.55 -46.65 -50.45 -46.65 -50.4 -46.6 -50.3 -46.55 -50.25 -46.5 -50.2 -46.45 -50.15 -46.35 -50.15 -46.35 -50.15 -46.3 -50.1 -46.3 -50.1 -46.25 -50.1 -46.25 -50.1 -46.2 -50.1 -46.15 -50.1 -46.1 -50.1 -46.05 -50.1 -46.0 -50.1 -45.95 -50.1 -45.85 -50.1 -45.8 -50.15 -45.7 -50.15 -45.6 -50.2 -45.5 -50.2 -45.45 -50.25 -45.35 -50.3 -45.3 -50.35 -45.2 -50.4 -45.1 -50.45 -45.05 -50.55 -44.9 -50.65 -44.8 -50.75 -44.7 -50.9 -44.55 -51.05 -44.4 -51.25 -44.25 -51.45 -44.05 -51.7 -43.9 -51.95 -43.7 -52.25 -43.45 -52.4 -43.35 -52.55 -43.25 -52.7 -43.15 -52.8 -43.1 -52.95 -43.0 -53.0 -42.95 -53.1 -42.9 -53.2 -42.9 -53.25 -42.85 -53.3 -42.8 -53.35 -42.8 -53.4 -42.8 -53.45 -42.8 -53.45 -42.8 -53.5 -42.75 -53.5 -42.75 -53.55 -42.75 -53.65 -42.75 -53.7 -42.75 -53.8 -42.75 -53.9 -42.8 -53.95 -42.8 -54.1 -42.85 -54.2 -42.9 -54.3 -42.95 -54.45 -43.05 -54.6 -43.1 -54.75 -43.2 -54.9 -43.35 -55.05 -43.5 -55.25 -43.65 -55.45 -43.8 -55.55 -43.9 -55.7 -44.05 -55.8 -44.15 -55.95 -44.3 -56.1 -44.45 -56.2 -44.6 -56.35 -44.8 -56.5 -44.95 -56.65 -45.15 -56.8 -45.35 -56.95 -45.55 -57.1 -45.8 -57.25 -46.05 -57.35 -46.3 -57.5 -46.55 -57.65 -46.8 L-57.65 -46.8" fill="url(#gradient7)" fill-rule="evenodd" stroke="none"/>
  </g>
  <defs>
    <linearGradient gradientTransform="matrix(0.0, 0.0033, -0.0033, 0.0, 75.5, -44.45)" gradientUnits="userSpaceOnUse" id="gradient0" spreadMethod="pad" x1="-819.2" x2="819.2">
      <stop offset="0.0" stop-color="#fff23c" stop-opacity="0.0"/>
      <stop offset="0.3803921568627451" stop-color="#fff23c" stop-opacity="0.84705883"/>
      <stop offset="0.6039215686274509" stop-color="#fff23c" stop-opacity="0.8"/>
      <stop offset="1.0" stop-color="#fff23c" stop-opacity="0.0"/>
    </linearGradient>
    <linearGradient gradientTransform="matrix(0.0, 0.0338, -0.0338, 0.0, 66.9, -67.85)" gradientUnits="userSpaceOnUse" id="gradient1" spreadMethod="pad" x1="-819.2" x2="819.2">
      <stop offset="0.0" stop-color="#fff23c" stop-opacity="0.0"/>
      <stop offset="0.3803921568627451" stop-color="#fff23c" stop-opacity="0.84705883"/>
      <stop offset="0.6039215686274509" stop-color="#fff23c" stop-opacity="0.8"/>
      <stop offset="1.0" stop-color="#fff23c" stop-opacity="0.0"/>
    </linearGradient>
    <linearGradient gradientTransform="matrix(0.0, 0.0195, -0.0195, 0.0, 114.45, 1.25)" gradientUnits="userSpaceOnUse" id="gradient2" spreadMethod="pad" x1="-819.2" x2="819.2">
      <stop offset="0.0" stop-color="#fff23c" stop-opacity="0.0"/>
      <stop offset="0.3803921568627451" stop-color="#fff23c" stop-opacity="0.84705883"/>
      <stop offset="0.6039215686274509" stop-color="#fff23c" stop-opacity="0.8"/>
      <stop offset="1.0" stop-color="#fff23c" stop-opacity="0.0"/>
    </linearGradient>
    <linearGradient gradientTransform="matrix(0.0, 0.0251, -0.0251, 0.0, 95.65, -32.45)" gradientUnits="userSpaceOnUse" id="gradient3" spreadMethod="pad" x1="-819.2" x2="819.2">
      <stop offset="0.0" stop-color="#fff23c" stop-opacity="0.0"/>
      <stop offset="0.3803921568627451" stop-color="#fff23c" stop-opacity="0.84705883"/>
      <stop offset="0.6039215686274509" stop-color="#fff23c" stop-opacity="0.8"/>
      <stop offset="1.0" stop-color="#fff23c" stop-opacity="0.0"/>
    </linearGradient>
    <linearGradient gradientTransform="matrix(0.0, 0.0335, -0.0335, 0.0, -43.65, -67.45)" gradientUnits="userSpaceOnUse" id="gradient4" spreadMethod="pad" x1="-819.2" x2="819.2">
      <stop offset="0.0" stop-color="#fff23c" stop-opacity="0.0"/>
      <stop offset="0.3803921568627451" stop-color="#fff23c" stop-opacity="0.84705883"/>
      <stop offset="0.6039215686274509" stop-color="#fff23c" stop-opacity="0.8"/>
      <stop offset="1.0" stop-color="#fff23c" stop-opacity="0.0"/>
    </linearGradient>
    <linearGradient gradientTransform="matrix(0.0, 0.0194, -0.0194, 0.0, -97.8, 1.2)" gradientUnits="userSpaceOnUse" id="gradient5" spreadMethod="pad" x1="-819.2" x2="819.2">
      <stop offset="0.0" stop-color="#fff23c" stop-opacity="0.0"/>
      <stop offset="0.3803921568627451" stop-color="#fff23c" stop-opacity="0.84705883"/>
      <stop offset="0.6039215686274509" stop-color="#fff23c" stop-opacity="0.8"/>
      <stop offset="1.0" stop-color="#fff23c" stop-opacity="0.0"/>
    </linearGradient>
    <linearGradient gradientTransform="matrix(0.0, 0.0249, -0.0249, 0.0, -76.35, -32.25)" gradientUnits="userSpaceOnUse" id="gradient6" spreadMethod="pad" x1="-819.2" x2="819.2">
      <stop offset="0.0" stop-color="#fff23c" stop-opacity="0.0"/>
      <stop offset="0.3803921568627451" stop-color="#fff23c" stop-opacity="0.84705883"/>
      <stop offset="0.6039215686274509" stop-color="#fff23c" stop-opacity="0.8"/>
      <stop offset="1.0" stop-color="#fff23c" stop-opacity="0.0"/>
    </linearGradient>
    <linearGradient gradientTransform="matrix(0.0, 0.0025, -0.0025, 0.0, -53.85, -44.8)" gradientUnits="userSpaceOnUse" id="gradient7" spreadMethod="pad" x1="-819.2" x2="819.2">
      <stop offset="0.0" stop-color="#fff23c" stop-opacity="0.0"/>
      <stop offset="0.3803921568627451" stop-color="#fff23c" stop-opacity="0.84705883"/>
      <stop offset="0.6039215686274509" stop-color="#fff23c" stop-opacity="0.8"/>
      <stop offset="1.0" stop-color="#fff23c" stop-opacity="0.0"/>
    </linearGradient>
  </defs>
</svg>
