<?xml version="1.0" encoding="UTF-8" standalone="no"?>
<svg xmlns:xlink="http://www.w3.org/1999/xlink" height="300.0px" width="300.0px" xmlns="http://www.w3.org/2000/svg">
  <g transform="matrix(1.0, 0.0, 0.0, 1.0, 150.0, 150.0)">
    <path d="M75.45 30.1 Q75.3 29.85 75.25 29.75 75.15 29.55 75.05 29.35 74.95 29.2 74.85 29.0 74.75 28.85 74.65 28.65 74.5 28.5 74.4 28.35 74.25 28.15 74.1 28.0 73.95 27.8 73.8 27.65 73.6 27.45 73.4 27.25 73.3 27.15 73.2 27.1 73.1 27.0 73.0 26.95 72.9 26.85 72.8 26.75 72.65 26.65 72.5 26.55 72.4 26.45 72.25 26.4 72.1 26.3 71.95 26.2 71.8 26.1 71.6 26.0 71.45 25.9 71.25 25.8 71.4 25.8 71.55 25.85 71.7 25.85 71.85 25.85 71.95 25.85 72.1 25.9 72.2 25.9 72.35 25.9 72.45 25.9 72.6 25.9 72.7 25.9 72.8 25.9 72.9 25.9 73.0 25.9 73.1 25.9 73.2 25.9 73.3 25.9 73.4 25.9 73.5 25.9 73.6 25.9 73.65 25.85 73.75 25.85 73.8 25.85 73.85 25.85 73.9 25.85 73.95 25.8 74.0 25.8 74.05 25.8 74.05 25.8 74.1 25.75 74.1 25.75 74.15 25.75 74.2 25.7 74.2 25.7 74.25 25.65 74.3 25.6 74.35 25.55 74.4 25.45 74.45 25.4 74.5 25.3 74.55 25.2 74.6 25.05 74.65 24.9 74.65 24.75 74.7 24.6 74.7 24.35 74.75 24.15 74.75 23.9 74.75 23.65 74.75 23.45 74.7 23.25 74.7 23.05 74.65 22.85 74.6 22.7 74.55 22.55 74.5 22.3 74.5 22.4 74.35 21.9 74.25 21.6 74.15 21.4 74.05 21.05 73.95 20.75 73.85 20.35 73.75 19.9 73.55 19.15 73.7 19.7 73.65 19.55 73.6 19.45 73.6 19.3 73.55 19.15 73.5 19.0 73.45 18.85 73.35 18.7 73.3 18.55 73.2 18.35 73.1 18.2 73.0 18.05 72.9 17.9 72.8 17.75 72.65 17.6 72.6 17.55 72.6 17.55 72.55 17.5 72.5 17.5 72.5 17.45 72.45 17.4 72.4 17.4 72.4 17.4 72.35 17.35 72.3 17.35 72.3 17.3 72.25 17.3 72.2 17.3 72.15 17.3 72.15 17.25 72.1 17.25 72.0 17.25 71.95 17.25 71.85 17.25 71.75 17.3 71.7 17.35 71.6 17.4 71.5 17.45 71.45 17.55 71.35 17.6 71.25 17.7 71.15 17.8 71.05 17.9 71.0 18.0 70.85 18.15 70.8 18.2 70.65 18.4 69.8 19.4 69.35 19.95 69.15 20.2 69.15 20.2 69.0 20.45 68.85 20.75 68.7 21.0 68.55 21.25 68.45 21.5 68.35 21.8 68.25 22.05 68.2 22.3 68.1 22.5 68.05 22.75 68.0 23.0 67.95 23.2 67.9 23.45 67.9 23.65 67.85 23.85 67.85 24.0 67.75 24.1 67.55 24.25 67.15 24.1 66.75 23.95 66.35 23.8 65.95 23.7 65.6 23.6 65.25 23.5 64.9 23.45 64.55 23.4 64.25 23.35 63.95 23.3 63.65 23.25 63.4 23.25 63.15 23.25 62.9 23.2 62.65 23.2 62.45 23.2 62.25 23.2 62.05 23.2 61.85 23.25 61.65 23.25 61.4 23.3 61.2 23.3 61.0 23.35 60.8 23.4 60.6 23.45 60.4 23.5 60.2 23.6 60.0 23.65 59.8 23.75 59.65 23.85 59.45 23.95 59.25 24.05 59.1 24.15 59.0 24.25 58.9 24.3 58.8 24.4 58.7 24.5 58.6 24.6 58.55 24.65 58.45 24.75 58.4 24.8 58.35 24.9 58.3 24.95 58.3 25.0 58.25 25.05 58.2 25.15 58.2 25.2 58.2 25.25 58.2 25.3 58.15 25.35 58.15 25.4 58.15 25.45 58.1 25.5 58.1 25.6 58.1 25.65 58.1 25.75 58.1 25.85 58.1 25.95 58.1 26.05 58.1 26.15 58.1 26.25 58.15 26.4 58.15 26.55 58.2 26.7 58.2 26.8 58.25 26.9 58.3 27.05 58.3 27.15 58.35 27.3 58.4 27.45 58.5 27.6 58.55 27.8 58.65 27.95 58.75 28.15 58.85 28.35 58.95 28.55 59.1 28.75 59.25 28.95 59.4 29.2 59.6 29.4 59.75 29.6 59.9 29.75 60.0 29.9 60.15 30.0 60.25 30.1 60.35 30.2 60.4 30.25 60.55 30.35 60.7 30.45 60.8 30.5 60.9 30.65 61.05 30.75 61.2 30.9 61.4 31.05 61.6 31.25 61.8 31.5 61.9 31.6 62.05 31.8 62.25 32.0 62.3 32.05 62.4 32.2 62.5 32.3 62.6 32.4 62.7 32.5 62.85 32.6 62.95 32.7 63.05 32.75 63.15 32.85 63.3 32.9 63.4 32.95 63.55 33.0 63.7 33.05 63.75 33.05 63.8 33.05 63.85 33.1 63.9 33.1 63.95 33.1 64.0 33.1 64.1 33.1 64.15 33.1 64.25 33.1 64.3 33.1 64.4 33.1 64.5 33.1 64.6 33.05 64.65 33.05 64.75 33.0 64.85 32.95 64.9 32.9 65.0 32.85 65.05 32.8 65.1 32.75 65.15 32.7 65.2 32.65 65.25 32.6 65.3 32.55 65.35 32.5 65.35 32.4 65.4 32.35 65.45 32.3 65.45 32.25 65.5 32.2 65.5 32.15 65.5 32.1 66.3 30.25 66.7 29.15 66.75 29.05 66.8 28.9 66.85 28.8 66.9 28.65 66.95 28.55 67.0 28.4 67.1 28.25 67.15 28.1 67.25 27.95 67.35 27.8 67.45 27.6 67.55 27.45 67.65 27.3 67.75 27.1 67.85 26.95 68.0 26.75 68.05 26.85 68.1 27.0 68.15 27.1 68.15 27.25 68.2 27.35 68.25 27.5 68.3 27.65 68.35 27.85 68.4 28.0 68.45 28.15 68.5 28.35 68.5 28.55 68.55 28.75 68.6 28.9 68.6 29.15 68.65 29.35 68.7 29.6 68.7 29.85 68.75 30.05 68.75 30.25 68.75 30.45 68.75 30.7 68.75 30.9 68.75 31.1 68.75 31.25 68.75 31.55 68.75 31.9 68.75 32.0 68.7 32.25 68.7 32.45 68.7 32.75 68.7 33.0 68.7 33.2 68.7 33.35 68.7 33.5 68.75 33.7 68.75 33.9 68.75 34.1 68.75 34.3 68.8 34.5 68.8 34.75 68.85 35.0 68.85 35.25 68.9 35.5 68.9 35.75 68.95 36.0 69.0 36.3 69.05 36.55 L70.95 36.6 Q70.95 36.4 70.9 36.2 70.9 36.05 70.9 35.85 70.9 35.65 70.85 35.45 70.85 35.25 70.8 35.05 70.8 34.85 70.75 34.65 70.75 34.45 70.7 34.25 70.7 34.05 70.65 33.8 70.65 33.6 70.6 33.4 70.55 33.1 70.5 32.75 70.45 32.45 70.4 32.15 70.35 31.8 70.3 31.5 70.25 31.2 70.15 30.9 70.1 30.6 70.05 30.3 70.0 30.05 69.9 29.75 69.85 29.45 69.8 29.2 69.75 28.9 69.65 28.65 69.55 27.75 69.3 26.0 69.45 26.15 69.6 26.3 69.75 26.45 69.9 26.6 70.0 26.75 70.15 26.9 70.3 27.0 70.4 27.15 70.55 27.25 70.65 27.4 70.8 27.5 70.9 27.6 71.0 27.7 71.1 27.8 71.2 27.9 71.3 28.0 71.6 28.3 71.9 28.6 72.05 28.7 72.4 29.05 72.7 29.3 72.8 29.45 73.0 29.6 73.15 29.75 73.3 29.9 73.4 30.0 73.5 30.15 73.6 30.3 73.65 30.4 73.75 30.55 73.8 30.7 73.85 30.85 73.9 30.95 73.95 31.05 73.95 31.15 74.0 31.3 74.05 31.5 74.05 31.45 74.1 31.55 74.1 31.65 74.15 31.7 74.15 31.8 74.2 31.85 74.25 31.9 74.3 31.95 74.35 32.0 74.4 32.05 74.45 32.05 74.55 32.1 74.6 32.1 74.7 32.1 74.8 32.05 74.9 32.05 75.0 32.0 75.1 31.95 75.15 31.9 75.25 31.85 75.35 31.75 75.45 31.65 75.5 31.6 75.55 31.5 75.6 31.4 75.65 31.3 75.7 31.2 75.7 31.15 75.75 31.05 75.75 31.0 75.75 30.9 75.75 30.85 75.7 30.8 75.7 30.7 75.7 30.65 75.65 30.6 75.65 30.5 75.6 30.45 75.6 30.4 75.55 30.3 75.55 30.25 75.5 30.2 75.45 30.1 L75.45 30.1 M66.45 26.25 Q66.45 26.3 66.45 26.3 66.45 26.35 66.45 26.4 66.4 26.45 66.4 26.45 66.4 26.5 66.35 26.55 66.3 26.6 66.2 26.7 66.15 26.75 66.1 26.8 66.0 26.85 65.95 26.9 65.85 26.95 65.8 27.0 65.7 27.05 65.65 27.1 65.55 27.1 65.45 27.15 65.4 27.2 65.3 27.25 65.2 27.25 65.1 27.3 64.8 27.4 64.4 27.65 63.75 27.95 63.7 28.0 63.6 28.05 63.55 28.05 63.45 28.1 63.4 28.15 63.3 28.2 63.25 28.2 63.15 28.25 63.05 28.25 63.0 28.3 62.9 28.3 62.8 28.3 62.75 28.3 62.65 28.3 62.55 28.3 62.45 28.3 62.4 28.25 62.3 28.25 62.25 28.2 62.15 28.2 62.1 28.15 62.0 28.1 61.95 28.05 61.9 28.05 61.8 28.0 61.75 27.95 61.7 27.9 61.6 27.85 61.55 27.8 61.5 27.75 61.45 27.65 61.4 27.6 61.35 27.55 61.3 27.5 61.25 27.45 61.2 27.35 61.15 27.3 61.1 27.25 61.05 27.2 61.0 27.15 60.95 27.05 60.9 27.0 60.9 26.95 60.85 26.85 60.8 26.8 60.8 26.7 60.8 26.65 60.75 26.55 60.75 26.5 60.75 26.45 60.75 26.45 60.75 26.4 60.75 26.35 60.75 26.3 60.75 26.3 60.75 26.25 60.75 26.2 60.75 26.15 60.75 26.15 60.75 26.1 60.75 26.05 60.75 26.05 60.75 26.0 60.75 25.95 60.75 25.9 60.75 25.85 60.75 25.85 60.75 25.8 60.75 25.75 60.75 25.75 60.75 25.7 60.75 25.65 60.75 25.65 60.75 25.6 60.75 25.55 60.8 25.55 60.8 25.5 60.8 25.5 60.85 25.45 60.85 25.4 60.9 25.4 60.95 25.35 61.0 25.3 61.05 25.3 61.1 25.25 61.15 25.25 61.25 25.25 61.3 25.2 61.35 25.2 61.45 25.2 61.5 25.2 61.55 25.2 61.65 25.2 61.7 25.2 61.75 25.2 61.8 25.2 61.9 25.2 62.15 25.25 62.5 25.25 63.0 25.3 63.1 25.3 63.35 25.3 63.85 25.35 64.4 25.4 64.65 25.4 66.05 25.55 66.25 25.55 66.3 25.55 66.35 25.55 66.35 25.55 66.4 25.6 66.45 25.6 66.45 25.6 66.5 25.65 66.5 25.65 66.55 25.7 66.55 25.7 66.6 25.75 66.6 25.75 66.6 25.8 66.65 25.85 66.65 25.85 66.65 25.9 66.65 25.95 66.65 26.0 66.6 26.05 66.6 26.1 66.55 26.15 66.55 26.15 66.5 26.2 66.45 26.25 L66.45 26.25 M69.9 24.0 Q69.85 24.0 69.85 24.0 69.8 24.0 69.8 23.95 69.75 23.95 69.7 23.95 69.7 23.9 69.7 23.9 69.65 23.9 69.65 23.85 69.6 23.85 69.6 23.8 69.6 23.8 69.55 23.75 69.55 23.75 69.55 23.7 69.55 23.65 69.5 23.6 69.5 23.6 69.5 23.55 69.5 23.5 69.5 23.45 69.5 23.4 69.5 23.35 69.5 23.3 69.5 23.3 69.5 23.25 69.5 23.2 69.5 23.15 69.5 23.15 69.5 23.1 69.55 23.05 69.6 22.95 69.7 22.5 69.85 22.2 69.9 22.0 70.05 21.5 69.95 21.85 70.0 21.75 70.0 21.7 70.05 21.6 70.05 21.55 70.1 21.5 70.1 21.4 70.15 21.35 70.15 21.25 70.2 21.2 70.25 21.15 70.3 21.05 70.35 21.0 70.4 20.95 70.45 20.9 70.45 20.85 70.45 20.8 70.45 20.8 70.5 20.75 70.5 20.7 70.5 20.7 70.55 20.65 70.55 20.6 70.6 20.55 70.65 20.45 70.7 20.4 70.75 20.35 70.8 20.25 70.85 20.2 70.9 20.15 70.95 20.1 71.0 20.05 71.05 20.0 71.15 20.0 71.2 19.95 71.25 19.9 71.35 19.9 71.4 19.9 71.5 19.85 71.55 19.85 71.55 19.8 71.6 19.8 71.6 19.75 71.65 19.75 71.7 19.75 71.7 19.7 71.75 19.7 71.8 19.7 71.85 19.7 71.85 19.65 71.9 19.65 71.95 19.65 72.0 19.65 72.05 19.65 72.1 19.7 72.2 19.7 72.3 19.8 72.4 19.85 72.45 19.95 72.5 20.0 72.5 20.1 72.55 20.2 72.55 20.35 72.55 20.45 72.55 20.6 72.55 20.7 72.55 20.8 72.55 20.95 72.5 21.05 72.5 21.15 72.45 21.25 72.45 21.3 72.4 21.4 72.4 21.45 72.35 21.5 72.35 21.55 72.3 21.65 72.3 21.7 72.25 21.75 72.2 21.85 72.2 21.9 72.15 21.95 72.1 22.0 72.1 22.1 72.05 22.15 72.0 22.2 71.95 22.25 71.85 22.4 71.35 23.0 72.55 21.65 71.2 23.15 71.1 23.25 71.05 23.35 70.95 23.45 70.9 23.5 70.8 23.6 70.7 23.65 70.6 23.75 70.55 23.8 70.45 23.85 70.35 23.9 70.25 23.95 70.1 23.95 70.0 24.0 69.9 24.0 L69.9 24.0" fill="#ffadcc" fill-rule="evenodd" stroke="none"/>
    <path d="M99.55 58.65 Q99.45 58.55 99.4 58.45 99.3 58.4 99.2 58.3 99.1 58.2 99.0 58.1 98.9 58.0 98.8 57.9 98.7 57.75 98.55 57.65 98.4 57.55 98.3 57.45 98.15 57.35 98.0 57.2 97.85 57.1 97.7 57.0 97.85 57.05 97.95 57.05 98.1 57.1 98.25 57.15 98.35 57.15 98.5 57.2 98.6 57.2 98.7 57.25 98.85 57.25 98.95 57.25 99.05 57.3 99.15 57.3 99.25 57.3 99.35 57.3 99.45 57.35 99.55 57.35 99.65 57.35 99.75 57.35 99.85 57.4 99.9 57.4 100.0 57.4 100.05 57.4 100.1 57.4 100.2 57.4 100.25 57.4 100.25 57.35 100.3 57.35 100.35 57.35 100.4 57.35 100.4 57.35 100.45 57.35 100.45 57.3 100.5 57.3 100.55 57.25 100.6 57.25 100.65 57.2 100.7 57.15 100.75 57.1 100.8 57.05 100.85 56.95 100.9 56.9 101.0 56.75 101.05 56.65 101.1 56.5 101.15 56.35 101.2 56.15 101.25 55.95 101.3 55.75 101.35 55.5 101.35 55.3 101.35 55.1 101.35 54.95 101.35 54.75 101.3 54.6 101.3 54.45 101.25 54.25 101.3 54.45 101.15 53.85 101.1 53.55 101.05 53.35 101.0 53.05 100.95 52.7 100.9 52.35 100.85 51.9 100.85 51.95 100.8 51.7 100.8 51.55 100.8 51.45 100.75 51.3 100.75 51.2 100.7 51.05 100.65 50.9 100.65 50.75 100.6 50.6 100.5 50.45 100.45 50.3 100.4 50.1 100.3 49.95 100.2 49.8 100.1 49.65 100.05 49.6 100.05 49.6 100.0 49.55 100.0 49.5 99.95 49.5 99.95 49.45 99.9 49.45 99.85 49.4 99.85 49.4 99.8 49.35 99.8 49.35 99.75 49.3 99.7 49.3 99.65 49.3 99.65 49.3 99.6 49.25 99.5 49.25 99.45 49.25 99.35 49.25 99.25 49.25 99.2 49.3 99.1 49.35 99.0 49.35 98.95 49.4 98.85 49.5 98.75 49.55 98.65 49.6 98.55 49.7 98.45 49.8 98.3 49.9 98.25 49.95 98.05 50.1 97.15 50.9 96.6 51.35 96.4 51.55 96.4 51.55 96.2 51.75 96.0 52.0 95.85 52.2 95.7 52.45 95.55 52.65 95.4 52.9 95.3 53.1 95.2 53.35 95.1 53.55 95.0 53.75 94.9 53.95 94.85 54.15 94.8 54.35 94.7 54.55 94.65 54.7 94.6 54.9 94.5 54.95 94.3 55.05 93.95 54.85 93.55 54.65 93.2 54.5 92.85 54.35 92.55 54.2 92.2 54.05 91.9 53.95 91.55 53.85 91.25 53.75 91.0 53.7 90.7 53.6 90.45 53.55 90.2 53.5 89.95 53.5 89.75 53.45 89.55 53.4 89.35 53.4 89.15 53.35 88.95 53.35 88.75 53.35 88.55 53.35 88.35 53.35 88.15 53.35 87.95 53.35 87.75 53.4 87.55 53.4 87.35 53.45 87.15 53.5 86.95 53.55 86.75 53.6 86.55 53.65 86.4 53.75 86.25 53.8 86.1 53.9 86.0 53.95 85.9 54.0 85.8 54.1 85.7 54.15 85.6 54.2 85.55 54.25 85.45 54.35 85.4 54.4 85.35 54.45 85.3 54.5 85.3 54.55 85.25 54.6 85.2 54.65 85.2 54.7 85.2 54.75 85.15 54.75 85.15 54.8 85.1 54.85 85.1 54.95 85.05 55.0 85.05 55.05 85.05 55.15 85.0 55.2 85.0 55.3 85.0 55.4 85.0 55.5 85.0 55.65 85.0 55.75 85.0 55.9 85.0 56.05 85.0 56.15 85.0 56.25 85.05 56.35 85.05 56.5 85.1 56.6 85.15 56.75 85.15 56.9 85.2 57.1 85.3 57.25 85.35 57.45 85.4 57.65 85.5 57.85 85.6 58.05 85.75 58.25 85.85 58.5 86.0 58.7 86.15 58.9 86.25 59.05 86.35 59.2 86.45 59.35 86.5 59.45 86.6 59.55 86.7 59.6 86.8 59.7 86.95 59.85 87.0 59.9 87.1 60.0 87.25 60.15 87.35 60.3 87.5 60.5 87.65 60.7 87.85 60.95 87.95 61.05 88.05 61.25 88.25 61.5 88.25 61.5 88.35 61.65 88.45 61.75 88.5 61.9 88.6 62.0 88.7 62.1 88.8 62.2 88.9 62.25 89.0 62.35 89.1 62.45 89.2 62.5 89.3 62.55 89.45 62.6 89.5 62.6 89.55 62.65 89.6 62.65 89.65 62.65 89.7 62.7 89.75 62.7 89.85 62.75 89.9 62.75 90.0 62.75 90.05 62.75 90.15 62.75 90.25 62.75 90.3 62.75 90.4 62.75 90.5 62.7 90.6 62.7 90.65 62.65 90.75 62.65 90.8 62.6 90.85 62.55 90.9 62.5 91.0 62.45 91.05 62.4 91.05 62.35 91.1 62.3 91.15 62.25 91.2 62.2 91.25 62.15 91.25 62.1 91.3 62.05 91.3 62.05 91.35 62.0 92.5 60.1 92.85 59.45 92.9 59.35 92.95 59.25 93.05 59.15 93.1 59.05 93.2 58.9 93.25 58.8 93.35 58.65 93.45 58.55 93.55 58.4 93.65 58.3 93.75 58.15 93.9 58.0 94.0 57.85 94.15 57.7 94.3 57.6 94.45 57.45 94.45 57.55 94.5 57.65 94.5 57.8 94.55 57.9 94.55 58.05 94.6 58.15 94.6 58.3 94.6 58.45 94.65 58.6 94.65 58.8 94.7 58.95 94.7 59.15 94.7 59.3 94.7 59.5 94.7 59.7 94.7 59.9 94.7 60.15 94.7 60.35 94.7 60.55 94.65 60.75 94.65 60.95 94.65 61.15 94.6 61.3 94.55 61.5 94.55 61.65 94.5 61.9 94.45 62.3 94.45 62.3 94.4 62.55 94.35 62.75 94.35 63.0 94.3 63.25 94.3 63.4 94.25 63.55 94.25 63.7 94.25 63.9 94.2 64.1 94.2 64.25 94.2 64.45 94.15 64.65 94.15 64.9 94.15 65.1 94.15 65.3 94.15 65.55 94.15 65.8 94.15 66.05 94.15 66.3 94.15 66.55 L96.0 66.85 Q96.0 66.65 96.0 66.5 96.0 66.3 96.05 66.15 96.05 65.95 96.05 65.8 96.05 65.6 96.05 65.4 96.05 65.25 96.05 65.05 96.05 64.85 96.05 64.65 96.05 64.45 96.05 64.3 96.05 64.1 96.05 63.9 96.05 63.6 96.05 63.3 96.05 63.0 96.05 62.7 96.0 62.4 96.0 62.1 96.0 61.85 95.95 61.55 95.95 61.25 95.95 61.0 95.9 60.7 95.9 60.45 95.85 60.15 95.85 59.9 95.8 59.65 95.75 59.4 95.75 58.55 95.75 56.9 96.65 58.05 97.45 59.0 97.7 59.3 97.95 59.65 98.1 59.8 98.35 60.15 98.6 60.4 98.7 60.55 98.85 60.75 98.95 60.85 99.1 61.05 99.15 61.15 99.25 61.3 99.3 61.4 99.4 61.55 99.45 61.7 99.5 61.85 99.5 62.0 99.55 62.1 99.55 62.2 99.55 62.3 99.6 62.4 99.65 62.75 99.6 62.6 99.65 62.7 99.65 62.75 99.65 62.85 99.7 62.9 99.7 62.95 99.75 63.0 99.8 63.05 99.8 63.1 99.85 63.15 99.95 63.2 100.0 63.25 100.1 63.25 100.2 63.25 100.25 63.25 100.35 63.25 100.45 63.2 100.55 63.15 100.65 63.1 100.75 63.1 100.85 63.0 100.9 62.95 101.0 62.9 101.1 62.8 101.15 62.75 101.2 62.65 101.25 62.55 101.3 62.5 101.3 62.4 101.3 62.35 101.3 62.3 101.3 62.25 101.3 62.15 101.3 62.1 101.3 62.05 101.3 62.0 101.3 61.9 101.25 61.85 101.25 61.8 101.25 61.75 101.2 61.65 101.2 61.6 101.15 61.55 101.05 61.3 101.0 61.15 100.95 60.95 100.85 60.8 100.8 60.6 100.7 60.45 100.65 60.25 100.55 60.1 100.45 59.9 100.35 59.75 100.25 59.55 100.15 59.4 100.0 59.2 99.85 59.0 99.7 58.85 99.55 58.65 L99.55 58.65 M93.2 56.45 Q93.2 56.5 93.2 56.55 93.2 56.55 93.15 56.6 93.15 56.65 93.1 56.65 93.1 56.7 93.1 56.7 93.05 56.75 93.05 56.8 93.0 56.8 93.0 56.8 93.0 56.85 92.95 56.9 92.95 56.9 92.95 56.95 92.95 57.0 92.9 57.1 92.9 57.15 92.85 57.2 92.8 57.25 92.75 57.25 92.75 57.3 92.7 57.35 92.65 57.35 92.65 57.4 92.6 57.4 92.55 57.45 92.5 57.6 92.35 57.75 92.3 57.8 92.05 58.15 91.9 58.4 91.75 58.55 91.7 58.65 91.6 58.75 91.55 58.85 91.45 58.95 91.4 59.05 91.3 59.15 91.25 59.25 91.15 59.3 91.05 59.4 91.0 59.5 90.9 59.55 90.8 59.65 90.7 59.7 90.6 59.75 90.45 59.8 90.35 59.85 90.2 59.9 90.05 59.9 89.9 59.9 89.7 59.85 89.6 59.85 89.45 59.75 89.3 59.65 89.15 59.55 89.0 59.45 88.9 59.35 88.75 59.25 88.65 59.1 88.55 59.0 88.45 58.85 88.35 58.75 88.25 58.6 88.15 58.45 88.05 58.3 87.95 58.15 87.85 58.0 87.75 57.85 87.65 57.7 87.6 57.5 87.5 57.35 87.45 57.2 87.35 57.0 87.3 56.85 87.25 56.65 87.2 56.5 87.15 56.3 87.1 56.15 87.1 55.95 87.1 55.9 87.1 55.8 87.1 55.75 87.1 55.7 87.1 55.6 87.1 55.55 87.1 55.5 87.1 55.4 87.15 55.35 87.15 55.3 87.15 55.2 87.2 55.15 87.25 55.1 87.25 55.05 87.3 55.0 87.35 54.95 87.4 54.85 87.5 54.8 87.6 54.75 87.7 54.7 87.8 54.7 87.9 54.65 88.0 54.65 88.1 54.65 88.2 54.65 88.3 54.65 88.4 54.65 88.5 54.7 88.6 54.7 88.7 54.75 88.8 54.75 88.9 54.8 89.2 54.9 89.7 55.05 90.3 55.25 90.45 55.3 90.9 55.45 92.05 55.9 92.25 55.95 92.9 56.1 92.95 56.1 93.0 56.1 93.0 56.1 93.05 56.15 93.05 56.15 93.1 56.15 93.15 56.2 93.15 56.2 93.15 56.25 93.2 56.25 93.2 56.3 93.2 56.35 93.2 56.35 93.25 56.4 93.25 56.45 93.2 56.45 L93.2 56.45 M97.1 55.3 Q97.05 55.3 97.0 55.25 97.0 55.25 96.95 55.2 96.95 55.2 96.95 55.15 96.9 55.15 96.85 55.15 96.8 55.15 96.75 55.15 96.75 55.15 96.7 55.15 96.65 55.15 96.6 55.15 96.55 55.15 96.5 55.1 96.45 55.1 96.45 55.05 96.4 55.05 96.4 55.0 96.35 54.95 96.35 54.95 96.3 54.9 96.3 54.85 96.3 54.8 96.3 54.75 96.3 54.7 96.3 54.65 96.3 54.65 96.3 54.6 96.3 54.55 96.35 54.5 96.35 54.45 96.35 54.4 96.3 54.35 96.35 54.35 96.35 54.3 96.4 54.25 96.45 54.2 96.65 53.75 96.65 53.75 96.9 53.3 96.95 53.25 96.95 53.15 97.0 53.1 97.0 53.05 97.05 53.0 97.1 52.9 97.1 52.85 97.15 52.8 97.2 52.75 97.25 52.7 97.25 52.6 97.3 52.55 97.35 52.5 97.4 52.45 97.45 52.4 97.5 52.35 97.55 52.3 97.7 52.15 97.75 52.1 97.8 52.0 97.85 51.95 97.9 51.9 97.95 51.85 98.0 51.8 98.05 51.75 98.1 51.75 98.2 51.7 98.25 51.65 98.3 51.65 98.4 51.6 98.45 51.6 98.55 51.6 98.6 51.55 98.7 51.6 98.75 51.55 98.75 51.55 98.8 51.55 98.8 51.5 98.85 51.5 98.9 51.5 98.9 51.45 98.95 51.45 99.0 51.45 99.05 51.45 99.05 51.45 99.1 51.45 99.15 51.45 99.2 51.45 99.25 51.45 99.25 51.5 99.35 51.55 99.4 51.55 99.45 51.6 99.5 51.65 99.55 51.75 99.6 51.8 99.6 51.85 99.6 51.95 99.65 52.0 99.65 52.1 99.65 52.15 99.65 52.25 99.65 52.35 99.6 52.4 99.6 52.5 99.6 52.55 99.6 52.8 99.65 53.2 99.65 53.75 99.7 53.8 99.7 53.9 99.7 54.0 99.7 54.1 99.7 54.15 99.7 54.25 99.7 54.35 99.7 54.45 99.65 54.55 99.65 54.65 99.65 54.7 99.65 54.8 99.6 54.9 99.6 55.0 99.55 55.05 99.5 55.15 99.5 55.25 99.4 55.4 99.25 55.55 99.15 55.65 99.0 55.7 98.85 55.75 98.7 55.75 98.55 55.8 98.35 55.75 98.2 55.75 98.0 55.7 97.85 55.65 97.7 55.55 97.55 55.5 97.35 55.45 97.45 55.5 97.1 55.3 L97.1 55.3" fill="#ffadcc" fill-rule="evenodd" stroke="none"/>
    <path d="M-79.8 31.1 Q-79.75 31.2 -79.7 31.3 -79.65 31.4 -79.55 31.5 -79.5 31.6 -79.4 31.7 -79.3 31.75 -79.2 31.8 -79.1 31.9 -79.0 31.9 -78.9 31.95 -78.8 32.0 -78.65 32.0 -78.55 32.0 -78.45 32.0 -78.4 32.0 -78.35 32.0 -78.25 31.95 -78.2 31.9 -78.15 31.85 -78.1 31.8 -78.05 31.7 -78.05 31.65 -78.0 31.55 -78.0 31.5 -77.95 31.4 -77.95 31.35 -77.9 31.2 -77.85 31.1 -77.8 31.0 -77.75 30.9 -77.75 30.8 -77.7 30.65 -77.6 30.5 -77.5 30.35 -77.4 30.2 -77.35 30.1 -77.2 29.95 -77.1 29.85 -76.9 29.7 -76.75 29.55 -76.55 29.35 -76.4 29.25 -76.1 29.0 -75.65 28.6 -75.55 28.5 -75.2 28.2 -74.85 27.9 -73.9 27.1 -72.6 25.9 -72.75 26.8 -73.05 28.55 -73.15 28.85 -73.2 29.1 -73.25 29.4 -73.35 29.65 -73.4 29.95 -73.5 30.25 -73.55 30.55 -73.6 30.85 -73.7 31.15 -73.75 31.45 -73.8 31.75 -73.85 32.05 -73.95 32.35 -74.0 32.7 -74.05 33.0 -74.1 33.35 -74.15 33.55 -74.15 33.75 -74.2 33.95 -74.25 34.15 -74.25 34.35 -74.3 34.55 -74.3 34.75 -74.35 34.95 -74.35 35.15 -74.4 35.35 -74.4 35.55 -74.4 35.75 -74.45 35.95 -74.45 36.15 -74.5 36.35 -74.5 36.5 L-72.35 36.45 Q-72.3 36.2 -72.25 35.9 -72.2 35.65 -72.2 35.4 -72.15 35.15 -72.1 34.9 -72.1 34.65 -72.05 34.45 -72.05 34.25 -72.05 34.0 -72.0 33.8 -72.0 33.6 -72.0 33.45 -72.0 33.25 -72.0 33.1 -72.0 32.95 -72.0 32.7 -72.0 32.4 -72.0 32.15 -72.0 31.9 -72.0 31.8 -72.0 31.45 -72.0 31.2 -72.0 31.05 -72.0 30.8 -72.0 30.6 -72.0 30.4 -72.0 30.2 -72.0 29.95 -71.95 29.75 -71.95 29.5 -71.9 29.25 -71.85 29.05 -71.85 28.85 -71.8 28.65 -71.75 28.45 -71.7 28.3 -71.65 28.1 -71.6 27.95 -71.55 27.75 -71.5 27.6 -71.45 27.45 -71.45 27.3 -71.4 27.15 -71.35 27.05 -71.3 26.9 -71.25 26.8 -71.2 26.7 -71.05 26.85 -70.9 27.05 -70.8 27.2 -70.65 27.4 -70.55 27.55 -70.45 27.7 -70.35 27.85 -70.25 28.05 -70.15 28.2 -70.1 28.3 -70.0 28.45 -69.95 28.6 -69.9 28.7 -69.8 28.85 -69.75 28.95 -69.75 29.1 -69.35 30.0 -68.4 32.0 -68.4 32.05 -68.35 32.1 -68.35 32.15 -68.3 32.2 -68.25 32.3 -68.25 32.35 -68.2 32.4 -68.15 32.45 -68.1 32.5 -68.05 32.6 -68.0 32.65 -67.95 32.7 -67.9 32.75 -67.8 32.8 -67.75 32.85 -67.65 32.9 -67.55 32.95 -67.45 32.95 -67.35 33.0 -67.25 33.0 -67.15 33.05 -67.05 33.05 -67.0 33.05 -66.9 33.05 -66.8 33.05 -66.75 33.05 -66.65 33.0 -66.6 33.0 -66.5 33.0 -66.45 33.0 -66.4 33.0 -66.35 32.95 -66.2 32.9 -66.05 32.85 -65.9 32.8 -65.75 32.75 -65.65 32.7 -65.5 32.6 -65.4 32.55 -65.3 32.45 -65.2 32.35 -65.05 32.2 -64.95 32.1 -64.8 32.0 -64.8 31.95 -64.55 31.75 -64.4 31.55 -64.25 31.45 -64.0 31.2 -63.8 31.0 -63.6 30.85 -63.4 30.7 -63.25 30.55 -63.1 30.45 -63.0 30.4 -62.85 30.3 -62.7 30.2 -62.65 30.1 -62.5 30.05 -62.4 29.95 -62.25 29.85 -62.15 29.7 -61.95 29.55 -61.8 29.35 -61.6 29.1 -61.4 28.9 -61.25 28.7 -61.1 28.45 -60.95 28.3 -60.85 28.1 -60.75 27.9 -60.65 27.7 -60.55 27.55 -60.5 27.4 -60.4 27.25 -60.35 27.1 -60.3 26.95 -60.3 26.85 -60.25 26.75 -60.2 26.65 -60.15 26.5 -60.15 26.35 -60.1 26.2 -60.1 26.1 -60.1 26.0 -60.1 25.85 -60.1 25.75 -60.1 25.7 -60.1 25.6 -60.1 25.5 -60.15 25.45 -60.15 25.4 -60.15 25.3 -60.2 25.25 -60.2 25.2 -60.2 25.15 -60.25 25.1 -60.25 25.05 -60.3 25.0 -60.3 24.95 -60.35 24.9 -60.4 24.8 -60.45 24.75 -60.55 24.7 -60.6 24.6 -60.7 24.5 -60.8 24.45 -60.9 24.35 -61.0 24.25 -61.1 24.2 -61.25 24.1 -61.4 24.0 -61.6 23.9 -61.85 23.8 -62.05 23.7 -62.25 23.6 -62.5 23.55 -62.7 23.45 -62.95 23.4 -63.15 23.35 -63.4 23.3 -63.6 23.25 -63.85 23.25 -64.05 23.2 -64.3 23.2 -64.55 23.2 -64.75 23.15 -65.0 23.15 -65.25 23.15 -65.5 23.15 -65.75 23.15 -66.05 23.2 -66.35 23.2 -66.65 23.25 -67.0 23.25 -67.35 23.3 -67.75 23.35 -68.1 23.45 -68.5 23.5 -68.9 23.6 -69.35 23.75 -69.75 23.85 -70.25 24.0 -70.7 24.15 -70.8 24.1 -71.0 23.95 -71.0 23.75 -71.05 23.6 -71.1 23.35 -71.15 23.15 -71.2 22.95 -71.25 22.7 -71.3 22.45 -71.4 22.25 -71.5 21.95 -71.6 21.7 -71.7 21.45 -71.8 21.2 -71.95 20.95 -72.1 20.65 -72.3 20.4 -72.45 20.15 -72.45 20.15 -72.7 19.9 -73.1 19.45 -74.15 18.35 -74.3 18.15 -74.4 18.1 -74.5 17.95 -74.6 17.85 -74.75 17.75 -74.8 17.65 -74.95 17.55 -75.0 17.5 -75.1 17.4 -75.2 17.35 -75.3 17.3 -75.4 17.25 -75.5 17.25 -75.55 17.2 -75.65 17.2 -75.75 17.2 -75.8 17.2 -75.85 17.2 -75.9 17.25 -75.95 17.25 -75.95 17.25 -76.0 17.3 -76.05 17.3 -76.1 17.35 -76.15 17.35 -76.15 17.4 -76.2 17.4 -76.25 17.45 -76.25 17.45 -76.3 17.5 -76.35 17.5 -76.4 17.55 -76.55 17.7 -76.7 17.85 -76.8 18.0 -76.9 18.15 -77.0 18.3 -77.1 18.5 -77.2 18.65 -77.25 18.8 -77.3 18.95 -77.35 19.1 -77.4 19.25 -77.45 19.4 -77.5 19.5 -77.55 19.65 -77.55 19.7 -77.6 19.85 -77.7 20.3 -77.85 20.7 -77.95 21.0 -78.05 21.35 -78.15 21.55 -78.25 21.85 -78.45 22.35 -78.4 22.25 -78.5 22.45 -78.55 22.65 -78.6 22.8 -78.65 23.0 -78.7 23.15 -78.7 23.4 -78.7 23.6 -78.7 23.85 -78.7 24.1 -78.7 24.3 -78.65 24.5 -78.6 24.7 -78.6 24.85 -78.55 25.0 -78.5 25.1 -78.45 25.25 -78.4 25.35 -78.35 25.4 -78.3 25.45 -78.25 25.55 -78.2 25.6 -78.15 25.6 -78.1 25.65 -78.05 25.65 -78.0 25.65 -78.0 25.7 -77.95 25.7 -77.9 25.7 -77.9 25.75 -77.85 25.75 -77.8 25.75 -77.75 25.75 -77.65 25.8 -77.6 25.8 -77.5 25.8 -77.45 25.8 -77.35 25.8 -77.25 25.8 -77.1 25.85 -77.0 25.85 -76.9 25.85 -76.8 25.85 -76.65 25.85 -76.55 25.85 -76.45 25.85 -76.3 25.85 -76.15 25.85 -76.05 25.85 -75.9 25.85 -75.75 25.8 -75.6 25.8 -75.45 25.8 -75.3 25.8 -75.15 25.8 -75.0 25.75 -74.8 25.75 -75.0 25.85 -75.2 25.95 -75.4 26.05 -75.6 26.15 -75.75 26.2 -75.9 26.3 -76.1 26.4 -76.25 26.5 -76.4 26.6 -76.5 26.7 -76.65 26.8 -76.8 26.9 -76.9 26.95 -77.0 27.05 -77.1 27.15 -77.2 27.2 -77.4 27.4 -77.65 27.55 -77.8 27.75 -78.0 27.9 -78.15 28.1 -78.3 28.25 -78.45 28.45 -78.6 28.6 -78.7 28.75 -78.85 28.95 -78.95 29.1 -79.05 29.3 -79.15 29.45 -79.3 29.65 -79.35 29.8 -79.5 30.05 -79.55 30.1 -79.6 30.2 -79.6 30.25 -79.65 30.3 -79.7 30.4 -79.7 30.45 -79.75 30.5 -79.75 30.55 -79.8 30.65 -79.8 30.7 -79.8 30.75 -79.8 30.85 -79.8 30.9 -79.8 31.0 -79.8 31.05 -79.8 31.1 L-79.8 31.1 M-69.65 25.85 Q-69.65 25.8 -69.6 25.75 -69.6 25.75 -69.6 25.7 -69.55 25.65 -69.5 25.6 -69.5 25.6 -69.45 25.55 -69.4 25.55 -69.4 25.55 -69.35 25.5 -69.3 25.5 -69.3 25.5 -69.25 25.5 -69.2 25.5 -69.2 25.5 -68.2 25.4 -67.45 25.35 -67.1 25.3 -66.55 25.3 -65.95 25.25 -65.7 25.25 -64.65 25.15 -64.35 25.15 -64.05 25.15 -63.95 25.15 -63.75 25.15 -63.65 25.15 -63.45 25.15 -63.35 25.2 -63.2 25.2 -63.1 25.2 -62.95 25.25 -62.85 25.25 -62.75 25.3 -62.65 25.3 -62.6 25.35 -62.55 25.4 -62.45 25.45 -62.4 25.55 -62.35 25.65 -62.3 25.75 -62.3 25.9 -62.3 26.0 -62.3 26.15 -62.3 26.3 -62.35 26.45 -62.4 26.6 -62.45 26.7 -62.55 26.85 -62.6 27.0 -62.7 27.15 -62.8 27.3 -62.9 27.4 -63.0 27.55 -63.15 27.65 -63.25 27.75 -63.4 27.85 -63.5 27.9 -63.65 27.95 -63.75 28.0 -63.9 28.05 -64.0 28.1 -64.15 28.15 -64.25 28.15 -64.35 28.15 -64.45 28.2 -64.55 28.2 -64.65 28.2 -64.75 28.2 -64.8 28.2 -64.9 28.2 -65.0 28.2 -65.1 28.2 -65.2 28.2 -65.3 28.2 -65.4 28.2 -65.45 28.2 -65.55 28.15 -65.65 28.15 -65.75 28.15 -65.8 28.1 -65.9 28.1 -66.0 28.05 -66.1 28.05 -66.2 28.0 -66.3 27.95 -66.4 27.9 -66.6 27.85 -67.15 27.55 -67.65 27.35 -67.95 27.25 -68.1 27.2 -68.15 27.15 -68.3 27.1 -68.4 27.1 -68.5 27.05 -68.55 27.0 -68.65 26.95 -68.75 26.9 -68.8 26.85 -68.9 26.85 -69.0 26.8 -69.05 26.7 -69.15 26.65 -69.2 26.6 -69.3 26.55 -69.35 26.45 -69.4 26.4 -69.45 26.35 -69.5 26.3 -69.55 26.25 -69.6 26.2 -69.6 26.15 -69.6 26.1 -69.65 26.05 -69.65 26.0 -69.65 26.0 -69.65 25.95 -69.65 25.95 -69.65 25.9 -69.65 25.9 -69.65 25.85 -69.65 25.85 L-69.65 25.85 M-74.9 22.95 Q-75.45 22.4 -75.6 22.2 -75.65 22.15 -75.7 22.1 -75.75 22.0 -75.8 21.95 -75.8 21.9 -75.85 21.85 -75.9 21.75 -75.95 21.7 -75.95 21.65 -76.0 21.6 -76.05 21.5 -76.05 21.45 -76.1 21.4 -76.1 21.3 -76.15 21.25 -76.15 21.2 -76.2 21.1 -76.2 21.0 -76.25 20.9 -76.25 20.8 -76.25 20.65 -76.3 20.55 -76.3 20.4 -76.25 20.3 -76.25 20.15 -76.2 20.05 -76.2 19.95 -76.1 19.85 -76.05 19.8 -75.95 19.7 -75.85 19.65 -75.75 19.65 -75.7 19.65 -75.65 19.65 -75.6 19.6 -75.55 19.6 -75.5 19.6 -75.45 19.65 -75.4 19.65 -75.4 19.65 -75.35 19.65 -75.3 19.7 -75.25 19.7 -75.2 19.7 -75.2 19.75 -75.15 19.75 -75.1 19.8 -75.1 19.8 -75.0 19.8 -74.9 19.85 -74.85 19.85 -74.75 19.9 -74.7 19.95 -74.6 19.95 -74.55 20.0 -74.45 20.05 -74.4 20.1 -74.35 20.15 -74.3 20.2 -74.25 20.3 -74.15 20.35 -74.1 20.4 -74.1 20.5 -74.05 20.55 -74.05 20.6 -74.0 20.6 -74.0 20.65 -73.95 20.7 -73.95 20.75 -73.95 20.75 -73.9 20.8 -73.9 20.85 -73.85 20.9 -73.8 20.95 -73.75 21.05 -73.7 21.1 -73.65 21.15 -73.6 21.2 -73.6 21.3 -73.55 21.35 -73.5 21.4 -73.5 21.5 -73.45 21.55 -73.4 21.65 -73.4 21.7 -73.35 21.8 -73.45 21.6 -73.3 21.95 -73.3 22.0 -73.2 22.2 -73.15 22.35 -73.1 22.45 -73.1 22.5 -73.1 22.5 -73.05 22.55 -73.05 22.6 -73.05 22.65 -73.05 22.65 -73.05 22.7 -73.0 22.75 -73.0 22.75 -73.0 22.8 -73.0 22.85 -72.95 22.85 -72.95 22.9 -72.95 22.95 -72.95 22.95 -72.9 23.0 -72.9 23.05 -72.85 23.1 -72.85 23.1 -72.85 23.15 -72.85 23.2 -72.85 23.2 -72.85 23.25 -72.9 23.3 -72.9 23.35 -72.85 23.4 -72.85 23.45 -72.85 23.5 -72.85 23.5 -72.9 23.55 -72.9 23.6 -72.9 23.65 -72.9 23.7 -72.95 23.7 -72.95 23.75 -72.95 23.75 -73.0 23.8 -73.0 23.8 -73.05 23.85 -73.05 23.85 -73.1 23.85 -73.1 23.9 -73.15 23.9 -73.15 23.9 -73.2 23.9 -73.25 23.9 -73.25 23.9 -73.3 23.9 -73.45 23.9 -73.55 23.9 -73.65 23.9 -73.8 23.85 -73.9 23.8 -74.0 23.75 -74.1 23.7 -74.2 23.6 -74.3 23.55 -74.4 23.45 -74.5 23.35 -74.6 23.3 -74.65 23.2 -74.75 23.1 -74.7 23.15 -74.9 22.95 L-74.9 22.95" fill="#ffadcc" fill-rule="evenodd" stroke="none"/>
    <path d="M-108.2 61.4 Q-108.25 61.45 -108.25 61.55 -108.3 61.6 -108.3 61.65 -108.35 61.75 -108.35 61.8 -108.35 61.85 -108.4 61.9 -108.4 62.0 -108.4 62.05 -108.4 62.1 -108.4 62.2 -108.4 62.25 -108.35 62.3 -108.35 62.35 -108.3 62.45 -108.25 62.55 -108.2 62.6 -108.1 62.7 -108.05 62.75 -107.95 62.85 -107.85 62.9 -107.75 62.95 -107.65 63.0 -107.55 63.05 -107.45 63.05 -107.35 63.1 -107.2 63.1 -107.1 63.1 -107.0 63.1 -106.95 63.1 -106.85 63.05 -106.8 63.0 -106.75 63.0 -106.7 62.95 -106.65 62.9 -106.6 62.85 -106.6 62.75 -106.55 62.7 -106.55 62.6 -106.55 62.55 -106.5 62.45 -106.5 62.45 -106.5 62.3 -106.45 62.15 -106.45 62.1 -106.4 61.95 -106.4 61.85 -106.35 61.7 -106.3 61.55 -106.25 61.45 -106.2 61.3 -106.1 61.15 -106.0 61.05 -105.9 60.9 -105.75 60.75 -105.65 60.6 -105.5 60.4 -105.35 60.3 -105.1 60.0 -104.75 59.65 -104.65 59.5 -104.35 59.2 -104.05 58.9 -102.9 57.65 -102.2 56.8 -102.2 57.6 -102.2 59.25 -102.25 59.5 -102.25 59.8 -102.3 60.05 -102.35 60.3 -102.35 60.6 -102.4 60.85 -102.4 61.15 -102.45 61.4 -102.45 61.7 -102.45 62.0 -102.5 62.3 -102.5 62.55 -102.5 62.85 -102.5 63.15 -102.55 63.45 -102.55 63.75 -102.55 63.95 -102.55 64.15 -102.55 64.35 -102.55 64.55 -102.55 64.75 -102.55 64.9 -102.55 65.1 -102.5 65.3 -102.5 65.5 -102.5 65.65 -102.5 65.85 -102.5 66.05 -102.5 66.2 -102.45 66.4 -102.45 66.55 -102.45 66.75 L-100.35 66.45 Q-100.35 66.2 -100.35 65.95 -100.35 65.7 -100.35 65.45 -100.35 65.2 -100.4 64.95 -100.4 64.75 -100.4 64.55 -100.45 64.35 -100.45 64.15 -100.45 63.95 -100.5 63.8 -100.5 63.6 -100.5 63.45 -100.55 63.3 -100.55 63.15 -100.6 62.9 -100.65 62.65 -100.65 62.45 -100.7 62.2 -100.7 62.15 -100.8 61.8 -100.85 61.55 -100.85 61.4 -100.9 61.2 -100.95 61.0 -100.95 60.8 -101.0 60.65 -101.0 60.4 -101.0 60.2 -101.05 60.0 -101.05 59.75 -101.05 59.55 -101.05 59.35 -101.0 59.2 -101.0 59.0 -101.0 58.85 -100.95 58.65 -100.95 58.5 -100.9 58.35 -100.9 58.2 -100.85 58.05 -100.85 57.9 -100.8 57.8 -100.8 57.65 -100.75 57.55 -100.75 57.45 -100.7 57.3 -100.55 57.45 -100.4 57.6 -100.25 57.75 -100.1 57.9 -99.95 58.0 -99.85 58.15 -99.7 58.3 -99.6 58.4 -99.5 58.55 -99.4 58.65 -99.3 58.8 -99.25 58.9 -99.15 59.0 -99.1 59.15 -99.0 59.25 -98.95 59.35 -98.45 60.15 -97.25 61.85 -97.2 61.9 -97.2 61.95 -97.15 62.0 -97.15 62.05 -97.1 62.1 -97.05 62.15 -97.0 62.2 -96.95 62.25 -96.9 62.3 -96.85 62.35 -96.8 62.4 -96.7 62.45 -96.65 62.45 -96.55 62.5 -96.5 62.55 -96.4 62.55 -96.3 62.6 -96.2 62.6 -96.1 62.6 -96.0 62.65 -95.9 62.65 -95.8 62.65 -95.75 62.65 -95.65 62.6 -95.55 62.6 -95.5 62.6 -95.4 62.55 -95.35 62.55 -95.3 62.55 -95.25 62.5 -95.2 62.5 -95.15 62.5 -95.0 62.45 -94.85 62.4 -94.75 62.3 -94.6 62.25 -94.5 62.15 -94.4 62.05 -94.3 61.95 -94.2 61.85 -94.1 61.75 -94.0 61.65 -93.9 61.55 -93.8 61.4 -93.8 61.35 -93.6 61.1 -93.45 60.95 -93.35 60.85 -93.15 60.6 -92.95 60.4 -92.8 60.2 -92.65 60.05 -92.55 59.9 -92.4 59.8 -92.3 59.7 -92.2 59.6 -92.05 59.5 -92.0 59.4 -91.9 59.3 -91.8 59.2 -91.65 59.1 -91.55 58.95 -91.45 58.8 -91.3 58.6 -91.2 58.45 -91.15 58.35 -91.05 58.2 -91.0 58.1 -90.95 57.95 -90.85 57.8 -90.8 57.7 -90.75 57.55 -90.7 57.4 -90.65 57.2 -90.7 57.35 -90.5 56.85 -90.45 56.6 -90.35 56.4 -90.25 56.15 -90.2 55.9 -90.15 55.75 -90.05 55.55 -90.05 55.5 -89.95 55.3 -89.9 55.15 -89.85 55.05 -89.8 54.95 -89.8 54.9 -89.75 54.8 -89.75 54.75 -89.7 54.7 -89.7 54.6 -89.7 54.55 -89.7 54.5 -89.7 54.45 -89.75 54.4 -89.8 54.25 -89.85 54.15 -89.9 54.0 -89.95 53.9 -90.05 53.8 -90.15 53.7 -90.25 53.6 -90.35 53.5 -90.45 53.45 -90.55 53.35 -90.65 53.3 -90.75 53.25 -90.8 53.2 -90.9 53.15 -90.95 53.15 -91.0 53.1 -91.25 53.0 -91.45 52.95 -91.7 52.85 -91.95 52.85 -92.15 52.8 -92.4 52.8 -92.65 52.8 -92.9 52.8 -93.15 52.85 -93.45 52.9 -93.7 52.95 -94.0 53.0 -94.3 53.05 -94.6 53.15 -94.9 53.2 -95.25 53.3 -95.55 53.4 -95.85 53.45 -96.15 53.55 -96.45 53.65 -96.75 53.75 -97.05 53.8 -97.4 53.9 -97.75 54.0 -98.05 54.1 -98.4 54.25 -98.75 54.35 -99.1 54.45 -99.5 54.55 -99.85 54.7 -100.2 54.8 -100.6 54.95 -100.7 54.9 -100.9 54.8 -100.95 54.6 -101.0 54.45 -101.1 54.25 -101.15 54.05 -101.25 53.85 -101.35 53.65 -101.45 53.45 -101.55 53.25 -101.7 53.0 -101.8 52.8 -101.95 52.55 -102.1 52.35 -102.3 52.1 -102.45 51.9 -102.65 51.65 -102.9 51.45 -102.9 51.45 -104.75 50.0 -105.0 49.85 -105.05 49.8 -105.2 49.7 -105.3 49.6 -105.4 49.5 -105.5 49.45 -105.65 49.4 -105.75 49.35 -105.85 49.25 -105.95 49.25 -106.05 49.2 -106.1 49.15 -106.2 49.15 -106.3 49.15 -106.4 49.15 -106.5 49.15 -106.55 49.15 -106.6 49.2 -106.6 49.2 -106.65 49.2 -106.7 49.25 -106.7 49.25 -106.75 49.3 -106.8 49.3 -106.8 49.35 -106.85 49.35 -106.9 49.4 -106.9 49.4 -106.95 49.45 -106.95 49.5 -107.0 49.5 -107.05 49.55 -107.15 49.7 -107.25 49.85 -107.35 50.0 -107.45 50.2 -107.5 50.35 -107.6 50.5 -107.65 50.65 -107.7 50.8 -107.7 50.95 -107.75 51.1 -107.8 51.2 -107.8 51.35 -107.8 51.5 -107.85 51.6 -107.85 51.65 -107.85 51.8 -107.9 52.2 -107.95 52.6 -108.0 52.9 -108.1 53.2 -108.15 53.45 -108.2 53.7 -108.3 54.15 -108.3 54.1 -108.35 54.35 -108.35 54.5 -108.4 54.65 -108.4 54.8 -108.45 55.0 -108.4 55.2 -108.4 55.4 -108.35 55.6 -108.3 55.85 -108.25 56.05 -108.2 56.2 -108.15 56.4 -108.1 56.55 -108.0 56.65 -107.95 56.75 -107.9 56.85 -107.85 56.95 -107.75 57.0 -107.7 57.05 -107.65 57.1 -107.6 57.15 -107.55 57.15 -107.5 57.2 -107.45 57.2 -107.4 57.2 -107.4 57.25 -107.35 57.25 -107.3 57.25 -107.25 57.25 -107.25 57.25 -107.2 57.25 -107.1 57.25 -107.05 57.25 -107.0 57.25 -106.9 57.25 -106.85 57.25 -106.75 57.25 -106.65 57.25 -106.55 57.25 -106.4 57.25 -105.2 57.1 -104.35 56.9 -104.55 57.0 -104.7 57.1 -104.85 57.2 -105.0 57.35 -105.15 57.45 -105.3 57.55 -105.45 57.65 -105.6 57.75 -105.7 57.85 -105.85 57.95 -105.95 58.05 -106.05 58.15 -106.15 58.25 -106.25 58.35 -106.35 58.45 -106.4 58.55 -106.6 58.75 -106.75 58.9 -106.9 59.1 -107.05 59.3 -107.2 59.45 -107.3 59.65 -107.45 59.8 -107.55 60.0 -107.65 60.15 -107.75 60.35 -107.8 60.5 -107.9 60.7 -107.95 60.85 -108.05 61.05 -108.1 61.15 -108.2 61.4 L-108.2 61.4 M-99.0 55.95 Q-98.7 55.9 -98.05 55.75 -97.9 55.7 -97.15 55.45 -96.65 55.3 -96.3 55.2 -96.0 55.1 -95.4 54.95 -94.85 54.75 -94.55 54.7 -94.45 54.65 -94.35 54.65 -94.2 54.6 -94.1 54.6 -94.0 54.55 -93.85 54.55 -93.75 54.55 -93.65 54.55 -93.5 54.55 -93.4 54.55 -93.3 54.55 -93.2 54.6 -93.1 54.65 -93.0 54.7 -92.9 54.75 -92.8 54.8 -92.75 54.85 -92.7 54.9 -92.65 54.95 -92.65 55.05 -92.6 55.1 -92.55 55.15 -92.55 55.25 -92.55 55.3 -92.5 55.35 -92.5 55.45 -92.5 55.5 -92.5 55.6 -92.5 55.65 -92.5 55.7 -92.5 55.8 -92.5 55.85 -92.5 56.05 -92.55 56.2 -92.6 56.4 -92.65 56.55 -92.75 56.75 -92.8 56.9 -92.9 57.05 -92.95 57.25 -93.05 57.4 -93.15 57.55 -93.25 57.75 -93.35 57.9 -93.45 58.05 -93.6 58.2 -93.7 58.35 -93.8 58.5 -93.9 58.65 -94.0 58.75 -94.15 58.85 -94.25 59.0 -94.4 59.1 -94.5 59.25 -94.65 59.35 -94.8 59.45 -94.95 59.55 -95.1 59.65 -95.3 59.7 -95.45 59.75 -95.65 59.8 -95.8 59.8 -96.0 59.8 -96.15 59.75 -96.3 59.7 -96.4 59.65 -96.5 59.6 -96.65 59.5 -96.75 59.45 -96.85 59.35 -96.95 59.3 -97.05 59.2 -97.15 59.1 -97.25 59.05 -97.3 58.95 -97.4 58.85 -97.5 58.75 -97.6 58.65 -97.65 58.55 -97.75 58.45 -97.8 58.35 -98.05 58.05 -98.25 57.8 -98.35 57.65 -98.4 57.6 -98.65 57.35 -98.7 57.3 -98.7 57.3 -98.75 57.25 -98.75 57.2 -98.8 57.2 -98.85 57.15 -98.9 57.1 -98.9 57.1 -98.95 57.05 -98.95 57.05 -99.0 57.0 -99.0 56.95 -99.05 56.95 -99.05 56.9 -99.05 56.85 -99.05 56.8 -99.1 56.8 -99.1 56.7 -99.15 56.7 -99.15 56.65 -99.2 56.65 -99.2 56.6 -99.2 56.6 -99.25 56.55 -99.3 56.5 -99.3 56.5 -99.3 56.45 -99.35 56.45 -99.35 56.4 -99.35 56.35 -99.35 56.3 -99.35 56.3 -99.35 56.25 -99.35 56.2 -99.35 56.2 -99.3 56.15 -99.3 56.15 -99.3 56.1 -99.25 56.1 -99.25 56.05 -99.2 56.05 -99.15 56.0 -99.15 56.0 -99.1 56.0 -99.05 55.95 -99.0 55.95 L-99.0 55.95 M-106.35 55.15 Q-106.4 55.05 -106.45 55.0 -106.45 54.9 -106.5 54.8 -106.5 54.7 -106.55 54.6 -106.55 54.55 -106.55 54.45 -106.55 54.35 -106.6 54.25 -106.6 54.15 -106.6 54.05 -106.6 54.0 -106.6 53.9 -106.55 53.8 -106.55 53.7 -106.55 53.5 -106.5 53.1 -106.45 52.65 -106.45 52.45 -106.5 52.35 -106.5 52.3 -106.5 52.2 -106.5 52.15 -106.55 52.05 -106.55 52.0 -106.5 51.9 -106.5 51.85 -106.5 51.75 -106.45 51.7 -106.45 51.6 -106.4 51.55 -106.35 51.5 -106.25 51.45 -106.2 51.4 -106.1 51.4 -106.05 51.4 -106.0 51.35 -105.95 51.35 -105.95 51.35 -105.9 51.35 -105.85 51.35 -105.8 51.35 -105.75 51.35 -105.7 51.35 -105.7 51.35 -105.65 51.4 -105.6 51.4 -105.55 51.4 -105.55 51.45 -105.5 51.45 -105.45 51.45 -105.35 51.45 -105.3 51.45 -105.2 51.5 -105.1 51.5 -105.05 51.5 -104.95 51.55 -104.9 51.6 -104.85 51.6 -104.75 51.65 -104.7 51.7 -104.65 51.75 -104.55 51.8 -104.5 51.85 -104.45 51.9 -104.4 51.95 -104.35 52.05 -104.3 52.1 -104.3 52.1 -104.25 52.15 -104.2 52.2 -104.2 52.2 -104.15 52.25 -104.1 52.3 -104.05 52.35 -104.0 52.4 -103.95 52.45 -103.9 52.5 -103.85 52.6 -103.8 52.65 -103.75 52.7 -103.7 52.75 -103.65 52.8 -103.65 52.9 -103.6 52.95 -103.55 53.0 -103.5 53.05 -103.25 53.55 -103.45 53.2 -103.2 53.6 -103.15 53.65 -103.15 53.7 -103.15 53.7 -103.1 53.75 -103.1 53.8 -103.1 53.8 -103.05 53.85 -103.05 53.85 -103.05 53.9 -103.05 53.95 -103.0 53.95 -103.0 54.0 -103.0 54.0 -102.95 54.05 -102.95 54.1 -102.9 54.1 -102.9 54.15 -102.85 54.2 -102.8 54.25 -102.8 54.35 -102.8 54.4 -102.8 54.45 -102.8 54.5 -102.8 54.55 -102.8 54.55 -102.8 54.6 -102.8 54.65 -102.8 54.7 -102.8 54.75 -102.8 54.8 -102.8 54.8 -102.85 54.8 -102.85 54.85 -102.85 54.85 -102.9 54.9 -102.9 54.9 -102.9 54.95 -102.95 54.95 -102.95 54.95 -103.0 55.0 -103.0 55.0 -103.05 55.0 -103.05 55.0 -103.1 55.0 -103.15 55.05 -103.4 55.05 -103.5 55.05 -103.5 55.1 -103.55 55.15 -103.6 55.2 -103.65 55.2 -104.0 55.35 -104.0 55.35 -104.2 55.4 -104.35 55.45 -104.55 55.55 -104.7 55.55 -104.9 55.6 -105.1 55.65 -105.3 55.65 -105.45 55.65 -105.65 55.65 -105.8 55.6 -105.95 55.55 -106.1 55.4 -106.25 55.3 -106.35 55.15 L-106.35 55.15" fill="#ffadcc" fill-rule="evenodd" stroke="none"/>
  </g>
</svg>
