<?xml version="1.0" encoding="UTF-8" standalone="no"?>
<svg xmlns:xlink="http://www.w3.org/1999/xlink" height="114.8px" width="80.7px" xmlns="http://www.w3.org/2000/svg">
  <g transform="matrix(1.0, 0.0, 0.0, 1.0, 40.35, 57.4)">
    <path d="M26.25 2.5 Q28.25 3.55 30.15 4.9 31.9 6.1 33.6 7.5 35.15 8.85 36.65 10.35 38.05 11.7 39.35 13.25 40.55 14.65 41.65 16.15 42.65 17.5 43.6 18.95 44.45 20.2 45.2 21.55 45.9 22.7 46.5 23.85 46.95 24.25 47.35 24.6 47.75 24.9 48.05 25.25 48.35 25.5 48.6 25.8 48.85 26.05 49.0 26.25 49.2 26.45 49.3 26.65 49.4 26.85 49.45 27.0 49.5 27.15 49.5 27.25 49.5 27.35 49.45 27.45 49.35 27.65 49.1 27.7 48.85 27.75 48.4 27.7 48.05 27.7 47.45 27.55 46.95 27.45 46.2 27.3 46.45 27.35 44.75 26.95 43.8 26.75 43.1 26.55 42.15 26.35 41.3 26.2 40.35 26.05 39.4 25.9 38.4 25.75 37.35 25.7 36.4 25.65 35.4 25.65 34.5 25.65 33.55 25.7 32.7 25.7 31.8 25.8 31.0 25.9 30.15 26.0 29.4 26.1 28.6 26.25 27.9 26.4 27.2 26.55 26.55 26.7 25.95 26.9 25.2 26.45 24.6 26.05 22.15 26.8 17.6 28.15 17.5 28.25 17.4 28.3 17.3 28.4 17.2 28.5 17.05 28.6 16.95 28.65 16.85 28.75 16.7 28.85 16.6 28.95 16.5 29.0 16.35 29.1 16.2 29.2 16.1 29.3 15.95 29.35 15.8 29.45 15.65 29.55 15.45 29.65 15.25 29.75 15.05 29.85 14.9 29.95 14.7 30.05 14.5 30.15 14.35 30.25 14.15 30.3 13.95 30.4 13.8 30.45 13.6 30.55 13.45 30.6 13.3 30.65 13.1 30.7 12.95 30.75 12.8 30.8 12.7 30.8 12.7 30.8 12.6 30.8 12.55 30.8 12.45 30.85 12.4 30.85 12.3 30.85 12.2 30.85 12.15 30.85 12.05 30.9 11.95 30.9 11.85 30.9 11.75 30.95 11.7 30.95 11.6 31.0 11.5 31.0 11.25 31.1 11.0 31.2 10.8 31.25 10.55 31.4 10.35 31.5 10.15 31.65 9.95 31.8 9.75 32.0 9.55 32.15 9.35 32.35 9.15 32.5 8.95 32.75 8.75 32.95 8.45 33.25 -73.55 119.25 7.95 33.8 5.95 35.85 5.25 36.55 4.9 36.7 4.6 36.85 4.25 37.0 4.0 37.2 3.7 37.35 3.45 37.5 3.25 37.7 3.0 37.85 2.8 38.05 2.65 38.2 2.45 38.35 2.3 38.55 2.2 38.7 2.05 38.9 1.95 39.05 1.85 39.2 1.7 39.4 1.6 39.6 1.5 39.8 1.35 40.0 1.3 40.15 1.15 40.4 1.05 40.7 0.95 40.8 0.85 41.05 0.75 41.25 0.6 41.45 0.5 41.7 0.35 41.9 0.15 42.15 0.0 42.35 -0.2 42.6 -0.3 42.7 -0.45 42.85 -0.55 42.95 -0.65 43.05 -0.75 43.15 -0.9 43.25 -1.0 43.35 -1.1 43.45 -1.2 43.5 -1.3 43.6 -1.4 43.7 -1.5 43.75 -1.6 43.8 -1.7 43.85 -1.75 43.95 -1.85 44.0 -2.0 44.15 -2.1 44.3 -2.25 44.4 -2.35 44.55 -2.45 44.7 -2.55 44.85 -2.65 44.95 -2.75 45.1 -2.8 45.2 -2.9 45.35 -2.95 45.45 -3.05 45.55 -3.1 45.65 -3.15 45.8 -3.2 45.9 -3.3 46.0 -3.4 46.2 -3.5 46.4 -3.55 46.55 -3.65 46.75 -3.7 46.85 -3.75 47.05 -3.85 47.3 -3.9 47.4 -3.95 47.55 -4.0 47.7 -4.1 47.85 -4.15 48.0 -4.25 48.15 -4.35 48.3 -4.45 48.45 -4.55 48.65 -4.65 48.75 -4.75 48.9 -4.8 49.0 -4.9 49.1 -5.0 49.2 -5.1 49.3 -5.2 49.4 -5.3 49.45 -5.35 49.55 -5.45 49.65 -5.55 49.7 -5.6 49.75 -5.7 49.85 -5.8 49.9 -5.85 49.95 -5.95 50.0 -6.5 52.6 -7.75 58.15 -7.9 58.2 -8.05 58.25 -8.25 58.3 -8.4 58.35 -8.6 58.4 -8.8 58.5 -9.0 58.6 -9.25 58.7 -9.45 58.8 -9.7 58.9 -9.95 59.05 -10.15 59.2 -10.4 59.35 -10.65 59.55 -10.9 59.7 -11.15 59.9 -11.45 60.15 -11.7 60.4 -11.95 60.7 -12.15 60.95 -12.35 61.2 -12.55 61.5 -12.7 61.75 -12.85 62.0 -13.0 62.2 -13.1 62.45 -13.25 62.7 -13.35 62.9 -13.4 63.1 -13.5 63.3 -13.55 63.45 -13.6 63.6 -14.4 63.7 -16.05 63.95 -16.15 63.85 -16.2 63.7 -16.35 63.55 -16.45 63.4 -16.65 63.2 -16.8 63.0 -17.0 62.8 -17.2 62.6 -17.45 62.4 -17.7 62.2 -17.95 62.0 -18.25 61.8 -18.6 61.6 -18.9 61.45 -19.3 61.25 -19.65 61.1 -20.05 60.95 -20.4 60.85 -20.8 60.75 -21.15 60.7 -21.5 60.65 -21.85 60.65 -22.15 60.6 -22.5 60.6 -22.75 60.6 -23.05 60.65 -23.3 60.65 -23.55 60.7 -23.75 60.75 -23.9 60.75 -24.05 60.8 -24.2 60.85 -24.5 60.6 -24.75 60.35 -25.05 60.05 -25.3 59.75 -25.6 59.45 -25.9 59.15 -26.2 58.85 -26.5 58.5 -26.8 58.15 -27.15 57.8 -27.45 57.4 -27.75 57.05 -28.05 56.65 -28.4 56.25 -28.7 55.8 -29.0 55.4 -29.5 54.7 -29.75 54.35 -30.15 53.8 -30.45 53.3 -30.85 52.75 -31.15 52.25 -31.5 51.65 -31.8 51.1 -32.15 50.5 -32.4 49.9 -32.7 49.3 -32.9 48.65 -33.15 47.95 -33.35 47.3 -33.55 46.55 -33.65 45.85 -33.75 45.35 -33.8 44.85 -33.85 44.4 -33.9 43.9 -33.9 43.45 -33.9 42.95 -33.9 42.5 -33.9 42.05 -33.9 41.65 -33.85 41.2 -33.8 40.8 -33.75 40.35 -33.7 40.0 -33.6 39.6 -33.55 39.2 -33.45 38.85 -33.5 38.75 -33.55 38.65 -33.6 38.5 -33.6 38.35 -33.65 38.2 -33.7 38.0 -33.75 37.8 -33.75 37.6 -33.8 37.4 -33.8 37.15 -33.85 36.95 -33.8 36.7 -33.8 36.45 -33.75 36.15 -33.75 35.9 -33.65 35.6 -33.6 35.4 -33.55 35.2 -33.5 35.05 -33.4 34.85 -33.35 34.7 -33.25 34.55 -33.2 34.4 -33.1 34.25 -33.05 34.15 -32.95 34.0 -32.85 33.9 -32.8 33.8 -32.7 33.7 -32.65 33.6 -32.6 33.5 -32.5 33.45 -32.55 33.3 -32.55 33.2 -32.6 33.05 -32.6 32.85 -32.65 32.65 -32.65 32.5 -32.65 32.25 -32.65 32.05 -32.65 31.8 -32.65 31.55 -32.6 31.3 -32.55 31.05 -32.55 30.75 -32.45 30.5 -32.4 30.2 -32.3 29.9 -32.15 29.55 -32.0 29.2 -31.85 28.9 -31.65 28.6 -31.5 28.35 -31.3 28.1 -31.15 27.85 -30.95 27.65 -30.75 27.45 -30.55 27.3 -30.4 27.15 -30.25 27.0 -30.1 26.9 -29.95 26.8 -29.85 26.7 -29.75 26.65 -29.6 26.15 -29.45 25.7 -29.25 25.15 -29.05 24.65 -28.8 24.05 -28.55 23.5 -28.25 22.95 -27.95 22.35 -27.6 21.75 -27.25 21.2 -26.85 20.6 -26.4 20.0 -25.95 19.4 -25.45 18.85 -24.9 18.25 -24.3 17.7 -23.55 17.0 -22.7 16.35 -21.95 15.75 -21.1 15.25 -20.3 14.75 -19.45 14.35 -18.65 13.95 -17.85 13.6 -17.1 13.3 -16.3 13.05 -15.6 12.8 -14.9 12.6 -14.3 12.45 -13.65 12.3 -13.25 12.2 -12.55 12.0 -12.4 11.95 -12.25 11.95 -12.1 11.9 -11.95 11.9 -11.8 11.85 -11.65 11.8 -11.5 11.8 -11.4 11.75 -11.25 11.75 -11.15 11.75 -11.0 11.7 -10.9 11.7 -10.8 11.65 -10.7 11.65 -10.6 11.65 -10.5 11.6 -10.4 11.45 -10.35 11.3 -10.25 11.1 -10.15 10.9 -10.05 10.7 -9.9 10.45 -9.7 10.2 -9.55 9.95 -9.35 9.65 -9.1 9.4 -8.85 9.1 -8.6 8.85 -8.3 8.6 -8.0 8.35 -7.65 8.05 -7.25 7.85 -6.8 7.55 -6.3 7.35 -5.85 7.15 -5.35 7.0 -4.9 6.85 -4.45 6.8 -4.05 6.7 -3.6 6.7 -3.25 6.65 -2.85 6.65 -2.55 6.65 -2.25 6.7 -2.0 6.75 -1.75 6.75 -1.6 6.8 -1.45 6.8 1.8 4.6 4.0 3.25 9.6 -0.25 11.15 -0.85 12.1 -1.2 13.15 -1.35 14.1 -1.5 15.15 -1.5 16.15 -1.45 17.15 -1.25 18.15 -1.05 19.15 -0.75 20.1 -0.45 21.1 -0.05 21.95 0.3 22.95 0.75 23.75 1.15 24.65 1.65 25.2 1.9 26.25 2.5 L26.25 2.5" fill="url(#gradient0)" fill-rule="evenodd" stroke="none"/>
  </g>
  <defs>
    <linearGradient gradientTransform="matrix(1.5276, 0.0, 0.0, 1.5276, 1217.5, 31.2)" gradientUnits="userSpaceOnUse" id="gradient0" spreadMethod="pad" x1="-819.2" x2="819.2">
      <stop offset="0.0" stop-color="#fff23c" stop-opacity="0.0"/>
      <stop offset="0.3803921568627451" stop-color="#fff23c" stop-opacity="0.84705883"/>
      <stop offset="0.6039215686274509" stop-color="#fff23c" stop-opacity="0.8"/>
      <stop offset="1.0" stop-color="#fff23c" stop-opacity="0.0"/>
    </linearGradient>
  </defs>
</svg>
