<?xml version="1.0" encoding="UTF-8" standalone="no"?>
<svg xmlns:xlink="http://www.w3.org/1999/xlink" height="197.6px" width="240.45px" xmlns="http://www.w3.org/2000/svg">
  <g transform="matrix(1.0, 0.0, 0.0, 1.0, 120.2, 98.8)">
    <path d="M96.45 -6.0 Q97.25 -6.05 97.4 -6.05 97.45 -6.05 97.5 -6.0 97.55 -6.0 97.6 -6.0 97.6 -6.0 97.65 -5.95 97.65 -5.95 97.7 -5.9 97.7 -5.9 97.75 -5.85 97.75 -5.85 97.8 -5.8 97.8 -5.75 97.8 -5.75 97.8 -5.7 97.85 -5.65 97.85 -5.55 97.85 -5.35 97.9 -5.15 97.9 -5.05 98.05 -3.0 98.1 -2.1 98.15 -1.8 98.15 -1.5 98.2 -1.2 98.25 -0.9 98.3 -0.6 98.35 -0.3 98.35 0.0 98.4 0.35 98.45 0.65 98.55 0.95 98.6 1.25 98.65 1.55 98.7 1.85 98.75 2.15 98.8 2.45 98.9 2.75 99.05 3.45 99.2 4.2 99.4 4.9 99.55 5.6 99.75 6.3 99.95 7.05 100.1 7.75 100.3 8.45 100.5 9.15 100.75 9.85 100.95 10.55 101.2 11.25 101.4 11.95 101.65 12.65 101.85 13.35 102.1 14.05 102.45 15.0 102.8 15.95 103.1 16.9 103.5 17.85 103.85 18.75 104.25 19.7 104.6 20.65 105.0 21.6 105.35 22.5 105.8 23.45 106.15 24.35 106.6 25.25 107.0 26.15 107.4 27.1 107.8 28.0 108.25 28.95 112.1 37.25 112.2 37.45 112.45 38.05 112.75 38.65 113.0 39.25 113.25 39.85 113.5 40.45 113.7 41.05 113.95 41.65 114.2 42.25 114.4 42.85 114.6 43.45 114.85 44.1 115.05 44.7 115.25 45.3 115.4 45.95 115.6 46.55 115.75 47.2 115.85 47.5 115.9 47.8 116.0 48.1 116.1 48.45 116.15 48.75 116.25 49.05 116.3 49.35 116.4 49.65 116.45 50.0 116.55 50.3 116.6 50.6 116.65 50.9 116.75 51.25 116.8 51.55 116.85 51.85 116.9 52.15 117.0 52.75 117.05 53.35 117.15 53.95 117.2 54.55 117.2 55.15 117.25 55.7 117.25 56.3 117.2 56.9 117.2 57.5 117.15 58.1 117.1 58.7 117.0 59.25 116.9 59.85 116.8 60.45 116.65 61.05 116.5 61.6 115.15 65.55 114.25 67.0 114.05 67.4 113.85 67.7 113.75 67.9 113.35 68.45 113.3 68.55 113.2 68.6 113.1 68.65 113.0 68.7 112.9 68.75 112.8 68.8 112.7 68.8 112.55 68.8 112.45 68.85 112.35 68.85 112.25 68.8 112.15 68.8 112.05 68.8 111.95 68.75 111.85 68.75 111.8 68.7 111.75 68.7 111.75 68.65 111.7 68.65 111.7 68.65 111.7 68.6 111.65 68.6 111.65 68.55 111.65 68.55 111.65 68.5 111.65 68.45 111.6 68.4 111.6 68.4 111.6 68.35 111.6 68.35 111.6 68.3 111.55 68.3 111.5 68.3 111.1 68.75 111.0 68.85 110.9 68.9 110.8 69.0 110.7 69.05 110.6 69.1 110.5 69.1 110.4 69.15 110.3 69.15 110.2 69.15 110.05 69.15 109.95 69.15 109.85 69.15 109.75 69.15 109.6 69.1 109.5 69.1 109.35 69.05 109.3 69.05 109.3 69.05 109.25 69.0 109.25 69.0 109.2 68.95 109.2 68.95 109.15 68.9 109.15 68.85 109.15 68.8 109.15 68.75 109.1 68.6 109.05 68.2 109.0 68.2 109.0 68.25 108.95 68.25 108.95 68.3 108.9 68.35 108.9 68.35 108.85 68.4 108.85 68.4 108.85 68.45 108.85 68.5 108.85 68.5 108.8 68.55 108.8 68.5 108.8 68.6 108.8 68.65 108.8 68.65 107.55 72.25 106.65 74.05 106.3 74.7 105.95 75.35 105.6 76.0 105.2 76.6 104.85 77.2 104.4 77.8 104.0 78.4 103.55 79.0 103.15 79.55 102.65 80.1 102.2 80.65 101.7 81.15 101.2 81.7 100.65 82.2 100.1 82.7 99.55 83.15 99.15 83.5 98.75 83.8 98.35 84.1 97.9 84.35 97.5 84.65 97.05 84.9 96.6 85.2 96.15 85.45 95.75 85.65 95.3 85.9 94.85 86.15 94.35 86.35 93.9 86.55 93.45 86.75 92.95 86.95 92.5 87.1 92.3 87.15 92.25 87.2 92.1 87.25 91.95 87.3 91.8 87.35 91.7 87.4 91.55 87.45 91.4 87.45 91.25 87.5 91.15 87.55 91.0 87.6 90.85 87.6 90.7 87.65 90.6 87.65 90.45 87.7 90.3 87.7 90.15 87.7 90.0 87.75 89.85 87.75 89.7 87.75 89.55 87.8 89.4 87.8 89.25 87.8 89.1 87.8 88.95 87.8 88.8 87.8 88.65 87.85 88.5 87.8 88.35 87.8 88.2 87.8 88.05 87.8 87.9 87.8 87.9 87.8 87.7 87.75 87.6 87.75 87.5 87.7 87.45 87.7 87.45 87.65 87.4 87.65 87.4 87.65 87.35 87.6 87.35 87.55 87.3 87.5 87.3 87.5 87.3 87.4 87.3 87.2 87.25 87.05 87.25 86.95 87.25 86.9 87.25 86.8 87.3 86.75 87.3 86.7 87.3 86.6 87.35 86.55 87.35 86.5 87.4 86.45 87.4 86.4 87.45 86.35 87.5 86.3 87.55 86.25 87.6 86.2 87.65 86.2 87.7 86.15 87.8 86.1 87.9 86.05 88.0 86.0 88.1 85.95 88.2 85.9 88.3 85.85 88.4 85.8 88.55 85.75 88.6 85.7 88.75 85.65 88.85 85.6 88.95 85.5 89.05 85.45 89.15 85.4 89.2 85.35 89.3 85.3 89.4 85.2 89.4 85.1 89.35 85.1 89.2 85.1 89.1 85.1 88.95 85.1 88.8 85.1 88.65 85.1 88.55 85.1 88.4 85.1 88.25 85.05 88.15 85.05 88.0 85.0 87.9 84.95 87.75 84.95 87.6 84.9 87.5 84.85 87.35 84.8 87.25 84.75 87.2 84.8 87.15 84.8 87.15 84.85 87.15 84.85 87.15 84.9 87.15 84.95 87.15 84.95 87.15 85.0 87.2 85.05 87.2 85.05 87.2 85.1 87.2 85.15 87.2 85.2 87.2 85.25 87.2 85.3 87.2 85.35 87.2 85.35 87.2 85.4 87.2 85.45 87.2 85.5 87.2 85.55 87.2 85.6 87.2 85.65 87.2 85.7 87.2 85.75 87.2 85.8 87.2 85.85 87.15 85.9 87.15 86.0 87.15 86.05 87.1 86.1 87.05 86.15 87.05 86.15 87.0 86.2 86.95 86.25 86.9 86.3 86.85 86.3 86.8 86.35 86.75 86.35 86.7 86.4 86.65 86.4 86.6 86.4 85.5 86.55 85.05 86.55 84.95 86.55 84.85 86.55 84.75 86.5 84.65 86.5 84.55 86.5 84.45 86.5 84.35 86.45 84.3 86.45 84.2 86.45 84.1 86.4 84.0 86.4 83.9 86.35 83.8 86.35 83.7 86.3 83.6 86.3 83.5 86.25 83.4 86.2 83.3 86.2 83.2 86.15 83.15 86.1 83.05 86.05 82.95 86.0 82.85 86.0 82.8 85.95 82.7 85.9 82.6 85.85 82.5 85.8 82.45 85.75 82.35 85.7 82.3 85.65 82.2 85.6 82.15 85.5 82.1 85.5 82.05 85.55 82.05 85.55 82.0 85.6 82.0 85.6 82.0 85.65 82.0 85.65 82.0 85.7 82.0 85.7 82.0 85.75 82.0 85.8 82.0 85.8 82.0 85.85 82.0 85.85 82.0 85.9 82.0 85.9 82.0 85.95 82.0 86.0 82.05 86.05 82.05 86.1 82.05 86.15 82.05 86.2 82.05 86.3 82.0 86.4 82.0 86.45 82.0 86.55 81.95 86.6 81.95 86.65 81.9 86.7 81.85 86.75 81.85 86.75 81.8 86.8 81.75 86.8 81.65 86.85 81.6 86.85 81.5 86.85 81.45 86.85 81.35 86.85 81.2 86.85 81.1 86.85 80.95 86.85 80.85 86.8 80.7 86.8 80.6 86.75 80.5 86.75 80.35 86.7 80.25 86.65 80.15 86.6 80.0 86.55 79.9 86.5 79.8 86.45 79.7 86.4 79.6 86.3 79.5 86.25 79.2 86.05 77.9 85.15 77.9 85.2 77.9 85.3 77.95 85.35 77.95 85.4 77.95 85.45 77.95 85.55 77.95 85.6 77.95 85.65 77.95 85.7 77.95 85.75 77.95 85.8 77.9 85.9 77.9 85.95 77.9 86.0 77.9 86.05 77.85 86.1 77.85 86.15 77.85 86.2 77.8 86.2 77.8 86.25 77.75 86.25 77.75 86.3 77.7 86.3 77.65 86.35 77.65 86.35 77.6 86.35 77.45 86.4 77.3 86.4 77.15 86.4 77.05 86.4 76.9 86.4 76.75 86.4 76.65 86.35 76.5 86.3 76.4 86.3 76.25 86.25 76.15 86.2 76.0 86.1 75.9 86.05 75.75 85.95 75.65 85.9 75.55 85.8 75.5 85.75 74.8 85.15 74.45 84.85 74.15 84.55 73.85 84.25 73.55 83.9 73.2 83.6 72.95 83.25 72.65 82.95 72.35 82.6 72.05 82.3 71.75 81.95 71.5 81.6 71.2 81.25 70.95 80.9 70.7 80.55 70.45 80.2 70.2 79.8 70.1 79.65 70.0 79.5 69.9 79.35 69.8 79.2 69.7 79.05 69.6 78.9 69.5 78.75 69.4 78.6 69.3 78.45 69.25 78.3 69.15 78.15 69.05 78.0 68.95 77.85 68.9 77.7 68.8 77.55 68.7 77.35 68.55 77.1 68.45 77.05 68.4 77.05 68.4 77.1 68.4 77.15 68.4 77.2 68.4 76.9 68.4 77.3 68.4 77.35 68.35 77.35 68.35 77.4 68.35 77.45 68.35 77.5 68.3 77.55 68.3 77.55 68.3 77.6 68.3 77.65 68.25 77.7 68.25 77.75 68.25 77.75 68.2 77.8 68.2 77.85 68.15 77.85 68.15 77.85 68.1 77.9 68.05 77.9 68.05 77.9 68.0 77.9 67.9 77.9 67.75 77.9 67.65 77.95 67.55 77.95 67.4 77.95 67.3 77.9 67.2 77.9 67.1 77.9 67.0 77.85 66.9 77.8 66.8 77.8 66.7 77.7 66.6 77.65 66.5 77.6 66.4 77.5 66.35 77.45 66.15 77.2 65.8 76.9 65.2 76.4 65.2 76.4 65.2 76.35 65.15 76.35 65.15 76.3 65.1 76.3 65.1 76.3 65.05 76.25 65.0 76.25 65.0 76.25 64.95 76.2 64.95 76.2 64.9 76.2 64.9 76.2 64.85 76.2 64.8 76.2 64.8 76.25 64.75 76.25 64.7 76.25 64.65 76.3 64.6 76.3 64.6 76.3 64.55 76.3 64.5 76.3 64.45 76.3 64.4 76.3 64.35 76.3 64.3 76.3 64.25 76.3 64.2 76.35 64.15 76.35 64.15 76.35 64.1 76.4 64.05 76.4 64.05 76.45 64.0 76.45 64.0 76.5 63.95 76.55 63.95 76.55 63.9 76.6 63.9 76.65 63.9 76.7 63.9 76.75 63.85 76.8 63.85 76.8 63.85 76.85 63.8 76.9 63.8 76.95 63.75 76.95 63.75 77.0 63.7 77.05 63.7 77.05 63.65 77.1 63.65 77.15 63.6 77.15 63.55 77.2 63.55 77.2 63.5 77.25 62.9 77.9 62.85 77.95 62.8 78.05 62.7 78.1 62.65 78.2 62.55 78.25 62.45 78.3 62.35 78.35 62.3 78.35 62.2 78.4 62.1 78.4 62.0 78.45 61.9 78.45 61.8 78.45 61.7 78.45 61.6 78.45 61.5 78.45 61.35 78.45 61.3 78.45 61.3 78.45 61.25 78.4 61.2 78.4 61.15 78.4 61.15 78.4 61.1 78.35 61.05 78.35 61.0 78.35 61.0 78.35 60.95 78.3 60.9 78.3 60.9 78.3 60.85 78.3 60.8 78.3 60.8 78.3 60.75 78.35 60.75 78.35 60.7 78.35 60.65 78.35 60.65 78.4 60.6 78.4 60.6 78.4 60.55 78.45 60.45 78.55 60.35 78.6 60.3 78.7 60.2 78.8 60.15 78.9 60.05 79.0 60.0 79.1 59.95 79.2 59.9 79.3 59.85 79.4 59.8 79.5 59.75 79.6 59.7 79.75 59.7 79.85 59.65 79.95 59.6 80.1 59.6 80.2 59.55 80.35 59.55 80.45 59.5 80.6 59.5 80.7 59.45 80.8 59.45 80.95 59.4 81.05 59.4 81.2 59.35 81.3 59.35 81.45 59.3 81.55 59.3 81.65 59.25 81.8 59.25 81.9 59.2 82.05 59.15 82.25 59.15 82.35 59.1 82.45 59.1 82.55 59.05 82.65 59.0 82.7 59.0 82.75 58.95 82.8 58.9 82.8 58.8 82.85 58.75 82.85 58.65 82.85 58.55 82.85 58.4 82.85 58.5 82.85 58.1 82.85 58.0 82.85 57.95 82.85 57.9 82.85 57.8 82.8 57.75 82.8 57.7 82.75 57.65 82.7 57.6 82.7 57.55 82.65 57.5 82.6 57.45 82.55 57.4 82.5 57.35 82.45 57.3 82.35 57.3 82.3 57.25 82.25 57.15 82.05 57.05 81.85 57.0 81.65 56.9 81.45 56.85 81.25 56.75 81.05 56.65 80.85 56.6 80.65 56.55 80.45 56.45 80.25 56.4 80.05 56.35 79.85 56.3 79.65 56.25 79.45 56.2 79.25 56.15 79.05 56.15 79.0 55.6 75.75 55.55 75.3 55.45 74.7 55.4 74.7 55.35 74.7 55.3 74.7 55.3 74.75 55.25 74.75 55.25 74.8 55.25 74.8 55.25 74.85 55.25 74.9 55.2 74.95 55.15 75.15 55.05 75.35 55.0 75.55 54.9 75.75 54.85 76.0 54.75 76.2 54.7 76.4 54.6 76.6 54.55 76.8 54.45 77.0 54.35 77.2 54.3 77.4 54.2 77.6 54.1 77.8 54.0 78.0 53.95 78.2 53.8 78.55 53.6 78.9 53.45 79.25 53.25 79.6 53.05 79.95 52.85 80.3 52.65 80.65 52.45 80.95 52.25 81.3 52.05 81.65 51.85 81.95 51.6 82.3 51.4 82.6 51.15 82.9 50.9 83.25 50.65 83.55 50.6 83.65 50.5 83.7 50.45 83.8 50.35 83.85 50.3 83.9 50.2 83.95 50.15 83.95 50.05 84.0 49.95 84.0 49.85 84.0 49.8 84.05 49.7 84.05 49.6 84.0 49.45 84.0 49.35 84.0 49.25 83.95 49.2 83.95 49.2 83.9 49.15 83.9 49.15 83.9 49.1 83.9 49.05 83.85 49.05 83.85 49.05 83.8 49.0 83.8 49.0 83.75 49.0 83.75 48.95 83.7 48.95 83.7 48.95 83.65 48.95 83.6 48.95 83.6 48.95 83.55 48.95 83.45 48.95 83.4 48.9 83.3 48.9 83.25 48.9 83.2 48.9 83.1 48.9 83.05 48.9 83.0 48.95 82.9 48.95 82.85 48.95 82.8 48.95 82.7 48.95 82.65 49.0 82.6 49.0 82.5 49.1 82.3 49.3 81.55 49.3 81.55 49.3 81.5 49.35 81.45 49.35 81.4 49.35 81.35 49.35 81.35 49.35 81.3 49.3 81.25 49.25 81.25 49.2 81.25 49.2 81.3 49.1 81.35 48.9 81.55 48.65 81.8 48.4 82.0 48.15 82.2 47.9 82.35 47.65 82.55 47.4 82.7 47.15 82.85 46.85 83.05 46.6 83.15 46.3 83.3 46.05 83.45 45.75 83.55 45.45 83.7 45.15 83.8 44.85 83.9 44.4 84.05 43.65 84.3 42.8 84.55 42.45 84.65 42.35 84.7 42.2 84.75 42.1 84.75 42.0 84.8 41.85 84.8 41.75 84.85 41.65 84.9 41.5 84.9 41.4 84.9 41.3 84.95 41.15 84.95 41.05 84.95 40.9 85.0 40.8 85.0 40.7 85.0 40.55 85.0 40.15 85.0 39.95 85.05 39.8 85.05 39.7 85.1 39.55 85.1 39.4 85.1 39.3 85.1 39.15 85.1 39.0 85.05 38.85 85.05 38.75 85.05 38.6 85.05 38.35 85.0 38.3 85.0 38.15 85.0 38.05 85.0 37.9 85.0 37.75 84.95 37.7 84.95 37.7 84.95 37.65 84.95 37.6 84.95 37.55 84.95 37.55 84.9 37.5 84.9 37.45 84.9 37.4 84.9 37.35 84.85 37.35 84.85 37.3 84.8 37.3 84.75 37.25 84.75 37.25 84.7 37.25 84.65 37.2 84.5 37.2 84.4 37.2 84.25 37.2 84.15 37.2 84.05 37.2 83.9 37.25 83.8 37.25 83.7 37.3 83.6 37.4 83.5 37.45 83.45 37.55 83.35 37.6 83.25 37.7 83.2 37.85 83.1 37.95 83.05 38.05 83.0 38.2 82.9 38.3 82.85 38.4 82.8 38.55 82.7 38.65 82.65 38.75 82.6 38.85 82.5 39.0 82.45 39.1 82.35 39.2 82.3 39.3 82.2 39.4 82.15 39.55 82.05 39.65 82.0 39.75 81.9 39.85 81.8 39.95 81.75 40.05 81.65 40.15 81.6 40.25 81.5 40.35 81.4 40.45 81.3 40.5 81.2 40.6 81.15 40.7 81.05 40.8 80.95 40.85 80.85 40.95 80.75 41.0 80.65 41.1 80.55 41.2 80.45 41.55 79.95 41.9 79.4 42.25 78.9 42.55 78.35 42.9 77.85 43.2 77.3 43.5 76.8 43.8 76.25 44.1 75.7 44.4 75.15 44.7 74.6 44.95 74.05 45.25 73.5 45.5 72.9 45.75 72.35 46.05 71.8 46.05 71.75 46.1 71.7 46.1 71.65 46.1 71.6 46.15 71.55 46.15 71.5 46.15 71.45 46.15 71.4 46.15 71.35 46.1 71.3 46.1 71.25 46.1 71.2 46.05 71.15 46.05 71.1 46.0 71.05 45.95 71.0 45.55 70.55 45.2 70.1 44.85 69.6 44.55 69.1 44.25 68.65 43.95 68.1 43.65 67.6 43.4 67.1 43.15 66.6 42.9 66.05 42.7 65.5 42.5 64.95 42.25 64.4 42.1 63.85 41.9 63.3 41.7 62.7 41.1 60.6 40.3 56.8 40.1 55.9 39.6 53.45 39.55 53.35 39.55 53.35 39.5 53.25 39.45 53.25 39.4 53.25 39.35 53.3 39.35 53.3 39.35 53.35 39.3 53.7 39.2 53.95 39.15 54.3 39.1 54.6 39.0 54.9 38.95 55.2 38.9 55.5 38.85 55.8 38.8 56.1 38.75 56.45 38.7 56.75 38.65 57.05 38.6 57.35 38.6 57.65 38.55 58.0 38.5 58.3 38.4 59.55 38.6 62.35 38.65 62.9 38.75 63.7 38.9 65.0 38.95 65.1 38.95 65.2 38.95 65.25 38.95 65.3 38.95 65.35 38.95 65.45 38.95 65.5 38.95 65.6 38.95 65.65 38.95 65.7 38.95 65.75 38.95 65.85 38.95 65.9 38.95 65.95 38.95 66.05 38.95 66.1 38.95 66.15 38.95 66.2 38.95 66.2 38.9 66.25 38.9 66.3 38.9 66.3 38.9 66.35 38.85 66.35 38.85 66.4 38.8 66.4 38.8 66.4 38.8 66.45 38.75 66.45 38.75 66.45 38.7 66.5 38.65 66.5 38.65 66.5 38.6 66.5 38.55 66.5 38.5 66.55 38.5 66.55 38.45 66.55 38.4 66.55 38.35 66.55 38.3 66.55 38.25 66.55 38.25 66.55 38.2 66.55 38.15 66.55 38.1 66.55 38.05 66.55 38.0 66.55 38.0 66.55 37.95 66.55 37.85 66.55 37.8 66.5 37.75 66.5 37.7 66.5 37.65 66.45 37.6 66.4 37.55 66.4 37.5 66.35 37.45 66.3 37.4 66.25 37.35 66.2 37.35 66.15 37.3 66.1 37.25 66.05 37.25 66.0 37.2 65.85 37.15 65.7 37.05 65.5 37.0 65.35 36.95 65.2 36.9 65.0 36.85 64.85 36.8 64.7 36.75 64.55 36.7 64.35 36.65 64.2 36.6 64.05 36.55 63.9 36.55 63.7 36.5 63.55 36.45 63.4 36.0 61.4 35.7 59.95 35.4 58.35 35.2 55.75 35.0 52.8 35.35 47.75 35.4 47.2 35.45 46.65 35.5 46.1 35.6 45.5 35.65 44.95 35.75 44.4 35.85 43.85 36.0 43.3 36.1 42.8 36.2 42.25 36.35 41.7 36.5 41.15 36.65 40.6 36.8 40.1 36.95 39.55 37.1 39.0 37.45 37.95 37.8 36.85 38.15 35.8 38.55 34.7 38.9 33.65 39.3 32.6 39.65 31.55 40.05 30.45 40.45 29.4 40.85 28.35 41.25 27.3 41.7 26.25 42.1 25.2 42.55 24.15 42.95 23.1 43.4 22.05 45.8 16.35 46.7 13.8 46.95 13.1 47.2 12.4 47.45 11.65 47.65 10.95 47.9 10.25 48.1 9.5 48.3 8.8 48.5 8.05 48.7 7.35 48.9 6.6 49.05 5.9 49.2 5.15 49.35 4.45 49.5 3.7 49.65 2.95 49.75 2.2 50.45 -1.7 50.6 -4.45 50.85 -7.3 50.8 -8.75 50.8 -8.95 50.5 -11.4 50.05 -14.8 50.0 -15.1 49.5 -19.1 49.4 -19.8 48.85 -23.95 48.65 -25.3 48.55 -26.0 48.35 -27.7 48.15 -29.2 48.05 -30.1 47.75 -32.65 47.65 -33.65 47.4 -35.55 47.0 -37.9 46.95 -38.1 46.95 -38.3 46.95 -38.5 46.95 -38.7 46.95 -38.9 46.95 -39.1 47.0 -39.3 47.0 -39.5 47.05 -39.7 47.1 -39.9 47.15 -40.1 47.25 -40.3 47.3 -40.45 47.4 -40.65 47.5 -40.85 47.6 -41.0 47.65 -41.05 47.65 -41.15 47.7 -41.2 47.7 -41.25 47.75 -41.3 47.75 -41.4 47.75 -41.45 47.75 -41.5 47.8 -41.55 47.75 -41.65 47.75 -41.7 47.75 -41.75 47.75 -41.8 47.75 -41.9 47.75 -41.95 47.7 -42.0 47.2 -43.75 46.6 -46.4 46.3 -47.9 46.0 -50.2 45.8 -51.75 45.7 -55.0 45.6 -57.95 45.7 -60.25 45.75 -61.15 45.8 -63.0 45.85 -64.8 45.9 -65.7 46.1 -69.4 46.4 -73.9 46.4 -74.05 46.45 -74.25 46.45 -74.4 46.5 -74.55 46.55 -74.75 46.6 -74.9 46.65 -75.05 46.7 -75.2 46.8 -75.35 46.85 -75.5 46.95 -75.65 47.05 -75.8 47.1 -75.95 47.25 -76.1 47.35 -76.2 47.45 -76.35 47.55 -76.45 47.75 -76.65 47.95 -76.8 48.05 -76.9 51.4 -79.8 52.6 -80.7 53.05 -81.05 53.55 -81.35 54.05 -81.7 54.55 -82.0 55.05 -82.3 55.55 -82.55 56.05 -82.85 56.55 -83.1 57.1 -83.35 57.6 -83.6 58.15 -83.85 58.65 -84.1 59.2 -84.3 59.75 -84.5 60.3 -84.7 60.85 -84.9 63.25 -85.6 63.55 -85.7 63.8 -85.75 64.1 -85.8 64.35 -85.85 64.65 -85.85 64.9 -85.9 65.2 -85.9 65.5 -85.95 65.75 -85.95 66.05 -85.95 66.3 -85.95 66.6 -85.95 66.85 -85.95 67.15 -85.95 67.45 -85.95 67.7 -85.9 68.0 -85.9 68.35 -85.85 68.7 -85.8 69.1 -85.75 69.45 -85.7 69.8 -85.6 70.15 -85.5 70.5 -85.45 70.8 -85.3 71.15 -85.2 71.5 -85.05 71.85 -84.95 72.15 -84.8 72.5 -84.65 72.8 -84.5 73.15 -84.35 73.45 -84.2 74.2 -83.8 74.9 -83.4 75.6 -83.0 76.3 -82.6 77.0 -82.2 77.7 -81.75 78.35 -81.3 79.05 -80.85 79.7 -80.4 80.35 -79.9 81.0 -79.4 81.65 -78.9 82.3 -78.4 82.9 -77.9 83.5 -77.35 84.1 -76.8 84.95 -76.05 85.75 -75.25 86.6 -74.45 87.35 -73.6 88.15 -72.75 88.85 -71.9 89.6 -71.05 90.3 -70.15 90.95 -69.25 91.6 -68.3 92.25 -67.4 92.85 -66.45 93.5 -65.5 94.05 -64.5 94.6 -63.5 95.15 -62.45 95.45 -61.9 95.7 -61.35 95.95 -60.75 96.2 -60.2 96.45 -59.6 96.65 -59.05 96.9 -58.45 97.1 -57.85 97.3 -57.25 97.5 -56.65 97.7 -56.1 97.85 -55.45 98.05 -54.9 98.2 -54.25 98.4 -53.65 98.55 -53.05 98.65 -52.6 98.75 -52.15 98.85 -51.7 98.95 -51.25 99.05 -50.75 99.15 -50.3 99.25 -49.85 99.35 -49.4 99.45 -48.95 99.5 -48.5 99.6 -48.05 99.7 -47.55 99.75 -47.1 99.85 -46.65 99.9 -46.2 99.95 -45.75 100.5 -41.9 100.7 -39.25 100.7 -38.9 100.75 -38.6 100.75 -38.25 100.8 -37.9 100.8 -37.6 100.8 -37.25 100.85 -36.95 100.85 -36.6 100.85 -36.25 100.9 -35.95 100.9 -35.6 100.9 -35.25 100.9 -34.95 100.95 -34.6 100.95 -34.25 100.95 -33.95 100.95 -33.8 101.0 -32.45 101.0 -32.4 101.0 -32.4 101.0 -32.35 101.0 -32.3 101.0 -32.25 101.0 -32.2 101.0 -32.15 101.0 -32.15 100.95 -31.45 100.95 -30.25 100.95 -28.85 100.9 -28.35 100.8 -24.85 100.45 -22.9 99.95 -19.6 98.65 -14.8 98.2 -13.2 97.5 -10.65 96.55 -7.35 96.35 -6.55 96.35 -6.5 96.25 -6.15 96.25 -6.15 96.2 -6.1 96.2 -6.05 96.2 -6.05 96.1 -5.75 96.05 -5.5 95.95 -5.2 95.85 -4.95 95.75 -4.65 95.7 -4.4 95.6 -4.1 95.55 -3.85 95.45 -3.55 95.4 -3.25 95.3 -3.0 95.25 -2.7 95.15 -2.4 95.1 -2.15 95.05 -1.85 94.95 -1.6 94.95 -1.6 94.95 -1.5 94.95 -1.45 94.95 -1.45 94.95 -1.4 94.95 -1.35 95.0 -1.35 95.05 -1.3 95.1 -1.45 95.15 -1.6 95.15 -1.75 95.2 -1.95 95.25 -2.1 95.3 -2.25 95.35 -2.4 95.4 -2.55 95.4 -2.7 95.45 -2.85 95.5 -3.0 95.55 -3.15 95.6 -3.35 95.65 -3.5 95.7 -3.65 95.75 -3.8 96.2 -5.45 96.45 -6.0 L96.45 -6.0 M94.8 79.95 Q95.0 79.85 95.0 79.85 95.05 79.8 95.15 79.65 95.25 79.5 95.3 79.4 95.5 79.15 95.65 78.9 95.8 78.65 96.0 78.35 96.15 78.1 96.3 77.8 96.45 77.55 96.6 77.25 96.75 77.0 96.9 76.7 97.05 76.45 97.2 76.15 97.35 75.9 97.5 75.6 97.65 75.35 97.8 75.0 98.0 74.6 98.15 74.2 98.35 73.8 98.5 73.4 98.65 73.0 98.8 72.6 98.95 72.15 99.1 71.75 99.25 71.35 99.35 70.9 99.45 70.5 99.55 70.05 99.65 69.65 99.75 69.2 99.85 68.75 99.9 68.35 99.95 68.15 100.15 66.7 100.3 65.7 100.35 65.05 100.7 60.65 100.7 60.45 100.7 60.35 100.7 60.3 100.7 60.2 100.7 60.15 100.7 60.05 100.7 60.0 100.65 59.9 100.65 59.85 100.65 59.75 100.6 59.7 100.6 59.6 100.6 59.55 100.55 59.45 100.5 59.4 100.5 59.3 100.45 59.25 100.4 59.3 100.4 59.3 100.4 59.35 100.35 59.4 100.35 59.4 100.35 59.45 100.35 59.5 100.35 59.55 100.3 59.95 100.3 60.2 100.3 60.25 100.25 60.3 100.25 60.3 100.25 60.35 100.2 60.4 100.2 60.4 100.15 60.45 100.1 60.45 100.05 60.45 100.05 60.45 100.0 60.45 99.95 60.45 99.9 60.5 99.8 60.5 99.75 60.5 99.7 60.5 99.65 60.5 99.6 60.5 99.55 60.5 99.5 60.5 99.45 60.5 99.4 60.5 99.35 60.5 99.3 60.5 99.2 60.5 99.15 60.5 99.1 60.5 99.1 60.45 99.05 60.45 99.0 60.45 99.0 60.45 98.95 60.4 98.9 60.4 98.9 60.35 98.85 60.35 98.85 60.3 98.8 60.3 98.8 60.25 98.8 60.25 98.75 60.2 98.75 60.15 98.75 60.1 98.7 60.0 98.6 59.65 98.5 59.3 98.4 58.95 98.25 58.6 98.15 58.25 98.0 57.9 97.9 57.55 97.75 57.2 97.65 56.85 97.5 56.5 97.35 56.15 97.2 55.8 97.05 55.45 96.9 55.1 96.75 54.8 96.6 54.45 96.45 54.1 96.25 53.75 96.1 53.4 95.95 53.05 95.8 52.75 95.6 52.4 95.45 52.05 95.25 51.75 95.05 51.4 94.85 51.05 94.65 50.75 94.45 50.45 94.25 50.15 94.05 49.8 93.85 49.5 93.6 49.2 93.35 48.9 93.35 48.85 93.35 48.85 93.3 48.75 93.25 48.7 93.2 48.6 93.15 48.5 93.1 48.45 93.05 48.35 93.0 48.25 92.95 48.2 92.95 48.1 92.9 48.0 92.9 47.9 92.85 47.8 92.85 47.7 92.85 47.6 92.85 47.55 92.8 47.45 92.8 47.4 92.8 47.35 92.8 47.3 92.8 47.25 92.8 47.2 92.8 47.2 92.8 47.15 92.8 47.1 92.8 47.05 92.8 47.0 92.8 46.95 92.8 46.95 92.8 46.9 92.75 46.85 92.75 46.8 92.75 46.75 92.7 46.8 92.7 46.85 92.65 46.85 92.65 46.9 92.6 46.95 92.6 47.0 92.6 47.05 92.6 47.1 92.55 47.15 92.55 47.2 92.55 47.2 92.55 47.3 92.55 47.55 92.55 47.35 92.55 47.4 92.55 47.45 92.25 51.15 92.25 51.45 92.2 51.85 92.15 52.2 92.1 52.6 92.05 52.95 92.0 53.35 91.9 53.7 91.85 54.1 91.8 54.45 91.7 54.85 91.6 55.2 91.5 55.55 91.45 55.95 91.35 56.3 91.2 56.7 91.1 57.05 91.0 57.4 90.85 57.85 90.75 58.25 90.6 58.65 90.5 59.05 90.35 59.5 90.25 59.9 90.15 60.3 90.05 60.75 89.95 61.15 89.9 61.55 89.8 62.0 89.7 62.45 89.65 62.85 89.6 63.3 89.55 63.7 89.5 64.15 89.5 64.35 89.5 64.55 89.5 64.7 89.5 64.9 89.5 65.1 89.5 65.3 89.5 65.45 89.5 65.65 89.5 65.85 89.55 66.0 89.55 66.2 89.55 66.4 89.6 66.55 89.65 66.75 89.65 66.95 89.7 67.1 89.8 67.7 90.0 69.05 90.45 72.0 90.55 72.4 90.65 72.75 90.7 73.1 90.8 73.45 90.95 73.75 91.05 74.1 91.2 74.45 91.35 74.75 91.5 75.05 91.65 75.4 91.85 75.7 92.05 76.0 92.25 76.3 92.45 76.55 92.65 76.85 92.9 77.15 93.15 77.4 93.2 77.45 93.3 77.55 93.35 77.6 93.4 77.7 93.5 77.75 93.55 77.85 93.6 77.9 93.7 77.95 93.75 78.05 93.85 78.1 93.9 78.15 94.0 78.2 94.1 78.3 94.15 78.35 94.25 78.4 94.3 78.45 94.4 78.5 94.45 78.55 94.5 78.65 94.55 78.7 94.6 78.75 94.65 78.85 94.7 78.9 94.75 79.0 94.75 79.05 94.8 79.15 94.8 79.2 94.8 79.3 94.85 79.35 94.85 79.45 94.85 79.55 94.85 79.6 94.85 79.7 94.8 79.95 L94.8 79.95" fill="#a40000" fill-rule="evenodd" stroke="none"/>
    <path d="M-45.95 81.4 Q-45.75 82.0 -45.6 82.6 -45.6 82.65 -45.55 82.75 -45.55 82.8 -45.55 82.85 -45.55 82.95 -45.55 83.0 -45.5 83.1 -45.5 83.15 -45.5 83.2 -45.5 83.3 -45.55 83.35 -45.55 83.45 -45.55 83.5 -45.55 83.55 -45.55 83.65 -45.6 83.7 -45.6 83.75 -45.65 83.8 -45.65 83.85 -45.7 83.9 -45.7 83.9 -45.75 83.95 -45.8 83.95 -45.8 84.0 -45.85 84.0 -45.9 84.0 -45.95 84.0 -45.95 84.0 -46.0 84.0 -46.05 84.0 -46.1 84.05 -46.1 84.05 -46.15 84.05 -46.2 84.05 -46.2 84.05 -46.25 84.05 -46.3 84.05 -46.3 84.05 -46.35 84.05 -46.4 84.05 -46.4 84.05 -46.45 84.05 -46.5 84.05 -46.55 84.05 -46.65 84.05 -46.7 84.0 -46.75 84.0 -46.8 84.0 -46.85 83.95 -46.9 83.95 -46.95 83.9 -47.0 83.9 -47.05 83.85 -47.05 83.8 -47.1 83.75 -47.15 83.75 -47.2 83.7 -47.25 83.65 -47.35 83.5 -47.5 83.35 -47.6 83.15 -47.75 83.0 -47.85 82.85 -47.95 82.7 -48.1 82.5 -48.2 82.35 -48.3 82.2 -48.4 82.0 -48.55 81.85 -48.65 81.7 -48.75 81.5 -48.85 81.35 -48.95 81.2 -49.05 81.0 -49.25 80.7 -49.45 80.35 -49.65 80.0 -49.85 79.7 -50.0 79.35 -50.2 79.0 -50.35 78.65 -50.55 78.35 -50.7 78.0 -50.85 77.65 -51.0 77.3 -51.15 76.95 -51.3 76.6 -51.45 76.25 -51.6 75.9 -51.7 75.5 -51.7 75.45 -51.75 75.4 -51.75 75.35 -51.8 75.3 -51.8 75.3 -51.8 75.2 -51.85 75.15 -51.85 75.1 -51.9 75.05 -51.9 75.0 -51.95 74.95 -51.95 74.9 -52.0 74.85 -52.0 74.8 -52.05 74.75 -52.1 74.7 -52.15 74.8 -52.35 76.55 -52.7 78.6 -52.85 79.15 -53.05 80.2 -53.95 82.3 -54.0 82.35 -54.0 82.45 -54.05 82.5 -54.1 82.55 -54.15 82.6 -54.15 82.65 -54.2 82.7 -54.25 82.75 -54.35 82.8 -54.4 82.8 -54.45 82.85 -54.5 82.85 -54.6 82.85 -54.65 82.85 -54.75 82.85 -54.8 82.85 -55.15 82.85 -55.2 82.85 -55.3 82.85 -55.35 82.85 -55.45 82.8 -55.5 82.8 -55.55 82.8 -55.6 82.75 -55.65 82.75 -55.65 82.7 -55.7 82.7 -55.75 82.65 -55.75 82.6 -55.8 82.55 -55.8 82.5 -55.85 82.4 -55.85 82.35 -55.85 82.25 -56.05 81.35 -56.25 80.15 -56.25 80.05 -56.3 80.0 -56.3 79.9 -56.35 79.85 -56.35 79.75 -56.4 79.7 -56.4 79.6 -56.45 79.55 -56.45 79.45 -56.5 79.35 -56.55 79.3 -56.55 79.25 -56.6 79.15 -56.65 79.1 -56.7 79.0 -56.75 78.95 -56.75 78.9 -56.8 78.85 -56.8 78.85 -56.85 78.8 -56.9 78.75 -56.9 78.7 -56.95 78.7 -56.95 78.65 -57.0 78.6 -57.05 78.6 -57.05 78.55 -57.1 78.55 -57.15 78.5 -57.15 78.45 -57.2 78.45 -57.25 78.4 -57.3 78.35 -57.3 78.35 -57.35 78.35 -57.4 78.3 -57.45 78.3 -57.5 78.3 -57.5 78.3 -57.55 78.3 -57.6 78.35 -57.65 78.35 -57.7 78.35 -57.75 78.4 -57.75 78.4 -57.8 78.4 -57.85 78.45 -57.9 78.45 -57.95 78.45 -58.0 78.45 -58.0 78.45 -58.05 78.45 -58.1 78.45 -58.15 78.45 -58.2 78.45 -58.25 78.45 -58.25 78.45 -58.3 78.45 -58.4 78.45 -58.45 78.45 -58.55 78.45 -58.65 78.4 -58.7 78.4 -58.8 78.4 -58.85 78.35 -58.95 78.35 -59.0 78.3 -59.05 78.25 -59.15 78.25 -59.2 78.2 -59.25 78.15 -59.35 78.1 -59.4 78.05 -59.45 78.0 -59.5 77.95 -59.55 77.9 -59.6 77.85 -59.65 77.8 -59.65 77.75 -59.7 77.7 -59.75 77.65 -59.8 77.6 -59.85 77.55 -59.9 77.5 -59.95 77.45 -60.0 77.4 -60.05 77.35 -60.1 77.3 -60.15 77.25 -60.2 77.2 -60.25 77.15 -60.3 77.1 -60.35 77.05 -60.4 76.95 -60.45 76.9 -60.5 76.85 -60.5 76.75 -60.55 76.7 -60.6 76.65 -60.6 76.55 -60.6 76.5 -60.65 76.4 -60.65 76.35 -60.65 76.25 -60.65 76.15 -60.65 76.1 -60.65 76.05 -60.65 76.0 -60.65 75.9 -60.65 75.85 -60.65 75.8 -60.65 75.75 -60.65 75.7 -60.65 75.6 -60.65 75.55 -60.6 75.5 -60.6 75.45 -60.6 75.4 -60.6 75.35 -60.55 75.3 -60.55 75.2 -60.55 75.15 -60.6 75.15 -60.6 75.15 -60.65 75.2 -60.7 75.2 -60.7 75.2 -60.75 75.25 -60.75 75.25 -60.75 75.25 -60.8 75.3 -60.8 75.3 -60.85 75.35 -60.85 75.35 -60.9 75.4 -60.9 75.4 -60.9 75.4 -60.95 75.45 -61.8 76.4 -63.1 77.55 -63.15 77.6 -63.2 77.65 -63.25 77.7 -63.3 77.7 -63.35 77.75 -63.45 77.8 -63.5 77.85 -63.55 77.85 -63.6 77.9 -63.65 77.9 -63.75 77.9 -63.8 77.95 -63.85 77.95 -63.95 77.95 -64.0 77.95 -64.1 77.95 -64.15 77.95 -64.25 77.95 -64.3 77.95 -64.4 77.95 -64.45 77.95 -64.5 77.95 -64.55 77.95 -64.65 78.0 -64.7 78.0 -64.75 78.05 -64.8 78.1 -64.9 78.1 -64.95 78.15 -65.0 78.2 -65.05 78.25 -65.1 78.3 -65.15 78.35 -65.25 78.4 -65.35 78.45 -65.45 78.5 -65.45 78.55 -65.6 78.65 -65.7 78.7 -65.75 78.75 -65.85 78.8 -65.95 78.85 -66.0 78.9 -66.1 78.95 -66.2 79.05 -66.25 79.1 -66.35 79.15 -66.4 79.25 -66.45 79.3 -67.3 80.45 -67.5 80.75 -67.7 81.05 -67.95 81.35 -68.15 81.6 -68.4 81.9 -68.6 82.2 -68.85 82.45 -69.1 82.75 -69.35 83.0 -69.6 83.25 -69.8 83.55 -70.05 83.8 -70.3 84.05 -70.6 84.3 -70.85 84.55 -71.1 84.8 -71.6 85.3 -71.9 85.6 -72.0 85.7 -72.1 85.75 -72.2 85.85 -72.25 85.9 -72.35 85.95 -72.45 86.05 -72.55 86.1 -72.65 86.15 -72.75 86.2 -72.85 86.25 -73.0 86.3 -73.1 86.3 -73.2 86.35 -73.3 86.35 -73.45 86.4 -73.55 86.4 -73.7 86.4 -73.85 86.4 -73.95 86.4 -74.05 86.4 -74.15 86.4 -74.25 86.35 -74.35 86.3 -74.4 86.25 -74.45 86.2 -74.5 86.15 -74.55 86.05 -74.55 86.0 -74.6 85.9 -74.6 85.75 -74.6 85.65 -74.6 85.5 -74.6 85.5 -74.55 85.15 -75.75 86.0 -76.15 86.3 -76.25 86.35 -76.35 86.45 -76.45 86.5 -76.55 86.55 -76.65 86.6 -76.8 86.65 -76.9 86.7 -77.0 86.75 -77.1 86.8 -77.25 86.8 -77.35 86.85 -77.45 86.85 -77.6 86.85 -77.7 86.85 -77.8 86.85 -77.95 86.85 -78.0 86.85 -78.05 86.85 -78.1 86.85 -78.1 86.85 -78.15 86.85 -78.2 86.85 -78.25 86.85 -78.3 86.85 -78.35 86.85 -78.35 86.8 -78.4 86.8 -78.45 86.8 -78.45 86.75 -78.5 86.75 -78.5 86.7 -78.55 86.7 -78.55 86.65 -78.6 86.65 -78.6 86.6 -78.6 86.6 -78.65 86.55 -78.65 86.5 -78.65 86.45 -78.65 86.4 -78.65 86.4 -78.65 86.3 -78.65 86.25 -78.65 86.25 -78.65 86.2 -78.65 86.15 -78.7 86.1 -78.7 86.05 -78.75 86.05 -78.8 86.0 -78.85 86.0 -78.9 85.95 -78.9 85.95 -78.95 85.95 -79.0 85.95 -79.05 85.95 -79.1 85.9 -79.1 85.9 -79.15 85.9 -79.2 85.9 -79.25 85.9 -79.3 85.9 -79.3 85.95 -79.35 85.95 -79.4 85.95 -79.45 86.0 -79.55 86.1 -79.7 86.15 -79.8 86.2 -79.95 86.25 -80.1 86.3 -80.2 86.35 -80.35 86.4 -80.5 86.4 -80.6 86.45 -80.75 86.45 -80.9 86.5 -81.05 86.5 -81.15 86.5 -81.3 86.5 -81.45 86.5 -81.6 86.55 -81.7 86.55 -81.85 86.55 -81.95 86.55 -82.05 86.55 -82.2 86.55 -82.3 86.5 -82.4 86.5 -82.55 86.5 -82.65 86.45 -82.75 86.45 -82.85 86.45 -83.0 86.4 -83.1 86.4 -83.2 86.35 -83.3 86.3 -83.45 86.3 -83.5 86.3 -83.55 86.25 -83.6 86.25 -83.6 86.2 -83.65 86.2 -83.7 86.15 -83.7 86.15 -83.75 86.1 -83.75 86.05 -83.8 86.0 -83.8 86.0 -83.8 85.95 -83.85 85.9 -83.85 85.85 -83.85 85.8 -83.85 85.75 -83.85 85.7 -83.85 85.65 -83.85 85.6 -83.85 85.55 -83.85 85.5 -83.85 85.4 -83.85 85.35 -83.85 85.3 -83.85 85.25 -83.85 85.2 -83.85 85.15 -83.85 85.1 -83.85 85.05 -83.85 85.0 -83.8 84.95 -83.8 84.85 -83.85 84.85 -83.9 84.85 -83.95 84.85 -83.95 84.85 -84.0 84.85 -84.05 84.85 -84.1 84.9 -84.1 84.9 -84.15 84.9 -84.2 84.95 -84.25 84.95 -84.25 84.95 -84.3 85.0 -84.3 85.0 -84.35 85.0 -84.4 85.0 -84.5 85.0 -84.7 85.05 -84.9 85.1 -85.05 85.1 -85.1 85.1 -85.1 85.1 -85.15 85.1 -85.2 85.1 -85.25 85.1 -85.25 85.1 -85.3 85.1 -85.35 85.1 -85.4 85.1 -85.4 85.1 -85.45 85.1 -85.5 85.1 -85.55 85.1 -85.55 85.1 -85.6 85.1 -85.65 85.1 -85.7 85.1 -86.2 85.0 -86.2 85.05 -86.15 85.1 -86.15 85.15 -86.1 85.15 -86.1 85.2 -86.05 85.2 -86.0 85.25 -86.0 85.25 -85.85 85.35 -85.9 85.3 -84.8 85.95 -84.45 86.1 -84.35 86.15 -84.3 86.15 -84.25 86.2 -84.2 86.25 -84.15 86.3 -84.1 86.35 -84.05 86.4 -84.0 86.45 -84.0 86.5 -83.95 86.55 -83.95 86.6 -83.9 86.7 -83.9 86.75 -83.9 86.85 -83.9 86.9 -83.9 86.95 -83.9 87.0 -83.9 87.05 -83.9 87.1 -83.9 87.15 -83.9 87.15 -83.9 87.2 -83.9 87.25 -83.9 87.3 -83.9 87.35 -83.95 87.35 -83.95 87.4 -83.95 87.45 -84.0 87.5 -84.0 87.55 -84.0 87.6 -84.0 87.6 -84.05 87.65 -84.05 87.65 -84.1 87.7 -84.1 87.7 -84.15 87.75 -84.2 87.75 -84.25 87.75 -84.3 87.8 -84.35 87.8 -84.4 87.8 -84.65 87.8 -84.85 87.8 -85.1 87.85 -85.35 87.8 -85.55 87.8 -85.8 87.8 -86.0 87.8 -86.25 87.75 -86.45 87.75 -86.7 87.7 -86.9 87.65 -87.15 87.65 -87.35 87.6 -87.6 87.5 -87.8 87.45 -88.05 87.4 -90.5 86.55 -91.75 85.95 -92.15 85.75 -92.5 85.55 -92.9 85.35 -93.3 85.15 -93.65 84.95 -94.0 84.7 -94.35 84.5 -94.7 84.25 -95.05 84.0 -95.4 83.75 -95.75 83.5 -96.1 83.2 -96.4 82.95 -96.75 82.65 -97.05 82.4 -97.4 82.1 -97.95 81.6 -98.45 81.0 -99.0 80.5 -99.45 79.9 -99.95 79.35 -100.4 78.7 -100.85 78.15 -101.25 77.5 -101.7 76.9 -102.05 76.25 -102.45 75.6 -102.8 74.95 -103.15 74.3 -103.5 73.6 -103.8 72.9 -104.15 72.2 -104.25 72.0 -104.35 71.75 -104.4 71.55 -104.5 71.35 -104.6 71.1 -104.7 70.9 -104.75 70.65 -104.85 70.45 -104.95 70.25 -105.0 70.0 -105.1 69.8 -105.15 69.55 -105.25 69.35 -105.3 69.1 -105.4 68.9 -105.45 68.65 -105.65 68.25 -105.7 68.2 -105.7 68.25 -105.7 68.3 -105.75 68.35 -105.75 68.4 -105.75 68.45 -105.75 68.5 -105.75 68.5 -105.75 68.55 -105.8 68.6 -105.8 68.65 -105.8 68.7 -105.8 68.75 -105.8 68.75 -105.85 68.8 -105.85 68.85 -105.85 68.9 -105.85 68.95 -105.9 68.95 -105.9 69.0 -105.95 69.05 -105.95 69.05 -106.0 69.1 -106.0 69.1 -106.05 69.1 -106.1 69.1 -106.15 69.1 -106.2 69.1 -106.25 69.1 -106.3 69.1 -106.35 69.1 -106.4 69.1 -106.4 69.15 -106.45 69.15 -106.5 69.15 -106.55 69.15 -106.6 69.15 -106.65 69.15 -106.7 69.15 -106.75 69.15 -106.8 69.15 -106.85 69.15 -106.9 69.1 -106.95 69.1 -107.0 69.1 -107.1 69.1 -107.15 69.05 -107.2 69.05 -107.25 69.05 -107.3 69.0 -107.35 69.0 -107.4 68.95 -107.45 68.95 -107.5 68.9 -107.55 68.9 -107.6 68.85 -107.65 68.8 -107.7 68.75 -107.75 68.7 -107.8 68.6 -107.95 68.5 -108.1 68.35 -108.1 68.35 -108.15 68.35 -108.2 68.4 -108.25 68.4 -108.25 68.45 -108.25 68.45 -108.25 68.5 -108.3 68.55 -108.3 68.6 -108.3 68.65 -108.35 68.65 -108.5 68.8 -108.55 68.8 -108.65 68.8 -108.75 68.85 -108.85 68.85 -108.95 68.85 -109.05 68.85 -109.15 68.85 -109.25 68.85 -109.35 68.85 -109.4 68.8 -109.5 68.8 -109.6 68.75 -109.7 68.7 -109.75 68.65 -109.85 68.6 -109.9 68.5 -110.0 68.4 -110.3 68.05 -110.4 67.9 -110.6 67.55 -110.75 67.3 -110.95 66.95 -111.1 66.65 -111.25 66.35 -111.4 66.05 -111.6 65.7 -111.7 65.4 -111.9 65.05 -112.05 64.75 -112.2 64.45 -112.3 64.1 -112.45 63.8 -112.55 63.45 -112.7 63.1 -112.8 62.8 -112.9 62.45 -113.0 62.1 -113.1 61.75 -113.2 61.4 -113.3 61.05 -113.35 60.7 -113.45 60.35 -113.5 60.0 -113.55 59.65 -113.65 59.3 -113.7 58.95 -113.7 58.6 -113.75 58.25 -113.8 57.9 -113.8 57.55 -113.85 57.2 -113.85 56.8 -113.9 56.4 -113.9 56.0 -113.85 55.55 -113.85 55.15 -113.85 54.75 -113.8 54.35 -113.75 53.95 -113.7 53.55 -113.65 53.15 -113.6 52.75 -113.55 52.35 -113.5 51.95 -113.4 51.55 -113.35 51.2 -113.25 50.75 -113.05 49.85 -112.85 48.9 -112.65 48.0 -112.4 47.1 -112.15 46.2 -111.85 45.3 -111.6 44.45 -111.3 43.55 -111.0 42.7 -110.65 41.8 -110.3 40.95 -109.95 40.05 -109.6 39.2 -109.25 38.35 -108.85 37.5 -108.45 36.6 -107.75 35.0 -106.4 32.15 -104.9 29.05 -104.3 27.7 -103.9 26.8 -103.5 26.0 -103.15 25.1 -102.75 24.25 -102.4 23.4 -102.0 22.5 -101.65 21.65 -101.3 20.8 -100.95 19.9 -100.6 19.05 -100.25 18.15 -99.9 17.25 -99.55 16.4 -99.25 15.5 -98.95 14.6 -98.65 13.7 -98.4 13.0 -98.15 12.25 -97.9 11.55 -97.7 10.85 -97.45 10.1 -97.25 9.4 -97.0 8.65 -96.8 7.95 -96.6 7.2 -96.4 6.5 -96.2 5.75 -96.05 5.0 -95.85 4.3 -95.7 3.55 -95.5 2.8 -95.4 2.05 -95.3 1.65 -95.25 1.2 -95.15 0.8 -95.1 0.35 -95.0 -0.05 -94.95 -0.5 -94.9 -0.9 -94.85 -1.35 -94.75 -1.8 -94.75 -2.2 -94.7 -2.65 -94.65 -3.05 -94.6 -3.5 -94.6 -3.95 -94.55 -4.35 -94.55 -4.8 -94.5 -5.4 -94.5 -5.6 -94.5 -5.65 -94.45 -5.7 -94.45 -5.75 -94.45 -5.75 -94.4 -5.8 -94.4 -5.85 -94.4 -5.85 -94.35 -5.9 -94.3 -5.9 -94.3 -5.95 -94.25 -5.95 -94.2 -5.95 -94.2 -6.0 -94.15 -6.0 -94.1 -6.0 -94.05 -6.0 -93.95 -6.0 -93.75 -6.0 -93.6 -6.0 -93.5 -6.0 -93.45 -6.0 -93.4 -6.0 -93.35 -6.0 -93.3 -6.0 -93.25 -6.0 -93.2 -5.95 -93.15 -5.95 -93.1 -5.95 -93.1 -5.9 -93.05 -5.85 -93.0 -5.85 -93.0 -5.8 -92.95 -5.75 -92.95 -5.7 -92.9 -5.65 -92.9 -5.6 -92.9 -5.55 -92.35 -3.75 -92.25 -3.9 -92.3 -3.9 -92.3 -4.0 -92.35 -4.1 -92.35 -4.25 -92.4 -4.35 -92.4 -4.45 -92.45 -4.55 -92.45 -4.7 -92.5 -4.8 -92.5 -4.9 -92.55 -5.0 -92.6 -5.1 -92.6 -5.2 -92.65 -5.3 -92.7 -5.4 -92.75 -5.5 -92.8 -5.6 -92.8 -5.65 -92.8 -5.7 -92.8 -5.75 -92.8 -5.8 -92.8 -5.85 -92.8 -5.9 -92.8 -5.9 -92.85 -6.0 -92.85 -6.05 -92.85 -6.05 -94.35 -11.3 -95.25 -14.65 -95.35 -15.05 -95.45 -15.5 -95.6 -15.9 -95.7 -16.3 -95.8 -16.75 -95.9 -17.15 -96.0 -17.55 -96.1 -17.95 -96.2 -18.4 -96.3 -18.8 -96.4 -19.25 -96.5 -19.65 -96.6 -20.05 -96.7 -20.5 -96.8 -20.9 -96.85 -21.3 -96.9 -21.5 -96.95 -21.7 -97.0 -21.95 -97.0 -22.15 -97.05 -22.35 -97.1 -22.55 -97.1 -22.75 -97.15 -23.0 -97.15 -23.2 -97.2 -23.4 -97.2 -23.6 -97.25 -23.85 -97.25 -24.05 -97.3 -24.25 -97.3 -24.45 -97.35 -24.7 -97.5 -26.7 -97.6 -30.85 -97.6 -31.4 -97.6 -32.0 -97.6 -32.55 -97.6 -33.1 -97.6 -33.65 -97.6 -34.25 -97.55 -34.8 -97.55 -35.35 -97.55 -35.9 -97.5 -36.5 -97.5 -37.05 -97.45 -37.6 -97.4 -38.15 -97.4 -38.7 -97.35 -39.3 -97.3 -39.85 -97.2 -41.35 -96.7 -45.0 -96.65 -45.45 -96.55 -45.95 -96.5 -46.4 -96.45 -46.85 -96.35 -47.3 -96.25 -47.8 -96.2 -48.25 -96.1 -48.7 -96.0 -49.15 -95.95 -49.65 -95.85 -50.1 -95.75 -50.55 -95.65 -51.0 -95.55 -51.5 -95.45 -51.95 -95.35 -52.4 -95.2 -53.1 -95.0 -53.75 -94.85 -54.45 -94.65 -55.1 -94.45 -55.75 -94.2 -56.4 -94.0 -57.1 -93.8 -57.7 -93.55 -58.4 -93.3 -59.0 -93.05 -59.7 -92.75 -60.3 -92.5 -60.95 -92.2 -61.55 -91.9 -62.2 -91.6 -62.85 -91.3 -63.45 -91.0 -64.0 -90.65 -64.55 -90.35 -65.15 -90.0 -65.7 -89.65 -66.25 -89.3 -66.8 -88.95 -67.35 -88.6 -67.85 -88.2 -68.4 -87.8 -68.95 -87.45 -69.45 -87.05 -70.0 -86.65 -70.5 -86.25 -71.0 -85.8 -71.5 -85.0 -72.5 -84.15 -73.4 -83.3 -74.35 -82.45 -75.2 -81.55 -76.1 -80.6 -76.95 -79.7 -77.75 -78.75 -78.55 -77.75 -79.3 -76.75 -80.05 -75.75 -80.8 -74.7 -81.45 -73.7 -82.15 -72.6 -82.8 -71.5 -83.45 -70.4 -84.0 -70.15 -84.15 -69.85 -84.25 -69.6 -84.4 -69.35 -84.55 -69.05 -84.65 -68.8 -84.75 -68.5 -84.85 -68.25 -84.95 -67.95 -85.1 -67.7 -85.15 -67.4 -85.25 -67.15 -85.35 -66.85 -85.45 -66.55 -85.5 -66.25 -85.6 -66.0 -85.65 -65.7 -85.7 -65.45 -85.75 -65.15 -85.8 -64.9 -85.85 -64.6 -85.9 -64.3 -85.9 -64.05 -85.95 -63.75 -85.95 -63.45 -85.95 -63.2 -85.95 -62.9 -85.95 -62.6 -85.95 -62.35 -85.95 -62.05 -85.95 -61.75 -85.9 -61.5 -85.9 -61.2 -85.9 -60.9 -85.85 -60.6 -85.8 -60.3 -85.75 -60.0 -85.7 -59.7 -85.6 -59.4 -85.55 -59.1 -85.45 -58.8 -85.4 -58.5 -85.3 -58.25 -85.2 -57.95 -85.1 -57.65 -85.0 -57.35 -84.9 -57.1 -84.8 -56.8 -84.7 -56.1 -84.45 -55.4 -84.15 -54.75 -83.85 -54.1 -83.55 -53.4 -83.25 -52.8 -82.9 -52.15 -82.55 -51.5 -82.2 -50.9 -81.8 -50.25 -81.4 -49.65 -81.0 -49.05 -80.6 -48.5 -80.15 -47.9 -79.7 -47.35 -79.25 -46.8 -78.75 -46.65 -78.65 -45.75 -77.85 -45.1 -77.25 -44.65 -76.9 -44.55 -76.8 -44.35 -76.6 -44.1 -76.3 -44.05 -76.3 -43.95 -76.15 -43.8 -76.05 -43.7 -75.9 -43.65 -75.75 -43.55 -75.6 -43.45 -75.45 -43.4 -75.3 -43.35 -75.15 -43.25 -75.0 -43.2 -74.85 -43.15 -74.65 -43.15 -74.5 -43.1 -74.35 -43.1 -74.15 -43.05 -74.0 -43.05 -73.85 -42.95 -72.75 -42.85 -70.55 -42.7 -68.35 -42.65 -67.25 -42.55 -65.75 -42.25 -58.0 -42.25 -57.5 -42.3 -56.65 -42.3 -55.55 -42.35 -55.35 -42.35 -55.25 -42.35 -55.1 -42.35 -55.0 -42.35 -54.9 -42.35 -54.8 -42.35 -54.65 -42.35 -54.55 -42.35 -54.45 -42.35 -54.35 -42.35 -54.2 -42.35 -54.1 -42.35 -54.0 -42.35 -53.9 -42.35 -53.75 -42.35 -53.65 -42.35 -53.55 -42.4 -53.05 -42.4 -52.6 -42.45 -52.1 -42.5 -51.6 -42.55 -51.15 -42.6 -50.65 -42.65 -50.2 -42.7 -49.7 -42.8 -49.2 -42.85 -48.75 -42.95 -48.25 -43.0 -47.8 -43.1 -47.3 -43.2 -46.85 -43.3 -46.4 -43.4 -45.9 -43.5 -45.55 -43.55 -45.15 -43.65 -44.8 -43.75 -44.45 -43.8 -44.1 -43.9 -43.7 -44.0 -43.35 -44.1 -43.0 -44.2 -42.65 -44.3 -42.25 -44.4 -41.9 -44.5 -41.55 -44.6 -41.2 -44.7 -40.85 -44.8 -40.45 -44.9 -40.1 -44.9 -40.05 -44.95 -39.95 -44.95 -39.9 -45.0 -39.8 -45.0 -39.75 -45.0 -39.65 -45.0 -39.6 -45.05 -39.55 -45.05 -39.45 -45.05 -39.4 -45.05 -39.3 -45.05 -39.25 -45.05 -39.15 -45.05 -39.1 -45.05 -39.0 -45.05 -38.95 -45.05 -35.55 -45.15 -33.95 -45.15 -33.75 -45.15 -33.4 -45.15 -33.05 -45.15 -32.9 -45.25 -31.95 -45.35 -31.3 -45.4 -30.85 -45.65 -29.4 -45.8 -28.2 -45.9 -27.45 -46.15 -25.55 -46.4 -23.4 -46.8 -19.25 -46.9 -18.0 -46.95 -17.1 -47.05 -15.5 -47.15 -13.7 -47.2 -12.95 -47.25 -12.3 -47.3 -10.7 -47.35 -9.25 -47.45 -8.45 -47.45 -8.4 -47.45 -8.25 -47.45 -8.1 -47.35 -6.2 -47.3 -5.0 -47.25 -4.2 -47.1 -2.2 -46.65 0.85 -46.55 1.65 -46.4 2.45 -46.25 3.2 -46.1 4.0 -45.95 4.8 -45.75 5.55 -45.6 6.35 -45.4 7.1 -45.2 7.9 -45.0 8.65 -44.8 9.45 -44.55 10.2 -44.3 11.0 -44.05 11.75 -43.8 12.5 -43.55 13.25 -42.7 15.65 -40.05 22.05 -37.1 29.15 -35.6 33.4 -34.15 37.65 -33.1 41.15 -33.0 41.4 -32.95 41.7 -32.9 41.95 -32.8 42.25 -32.75 42.55 -32.7 42.8 -32.65 43.1 -32.6 43.35 -32.55 43.65 -32.5 43.9 -32.45 44.2 -32.4 44.45 -32.35 44.75 -32.3 45.05 -32.25 45.3 -32.25 45.6 -32.2 45.95 -32.15 46.3 -32.1 46.7 -32.1 47.05 -32.05 47.4 -32.0 47.75 -32.0 48.1 -31.95 48.5 -31.95 48.85 -31.9 49.2 -31.9 49.55 -31.85 49.9 -31.85 50.3 -31.85 50.65 -31.85 51.0 -31.85 51.35 -31.85 51.55 -31.8 51.85 -31.8 52.2 -31.8 52.3 -31.75 52.8 -31.8 54.75 -31.9 56.65 -32.0 57.5 -32.3 59.85 -32.5 60.7 -32.55 60.9 -32.9 62.45 -33.1 63.5 -33.35 64.2 -33.45 64.5 -34.05 66.2 -34.05 66.25 -34.1 66.3 -34.1 66.3 -34.1 66.35 -34.15 66.4 -34.15 66.4 -34.2 66.45 -34.2 66.45 -34.25 66.5 -34.25 66.5 -34.3 66.55 -34.35 66.55 -34.4 66.55 -34.45 66.55 -34.45 66.6 -34.5 66.6 -34.55 66.6 -34.7 66.6 -34.85 66.6 -34.95 66.6 -35.05 66.6 -35.15 66.55 -35.25 66.55 -35.3 66.5 -35.4 66.5 -35.45 66.45 -35.5 66.4 -35.55 66.3 -35.55 66.25 -35.6 66.15 -35.6 66.1 -35.6 66.0 -35.6 65.85 -35.6 65.75 -35.6 65.45 -35.4 63.9 -35.35 63.65 -35.35 63.4 -35.3 63.1 -35.3 62.85 -35.25 62.6 -35.25 62.35 -35.2 62.1 -35.2 61.85 -35.15 61.55 -35.15 61.3 -35.15 61.05 -35.1 60.8 -35.1 60.55 -35.1 60.3 -35.1 60.0 -35.1 59.75 -35.1 59.55 -35.1 59.35 -35.1 59.15 -35.1 58.9 -35.1 58.7 -35.15 58.5 -35.15 58.3 -35.15 58.05 -35.2 57.85 -35.2 57.65 -35.25 57.45 -35.25 57.25 -35.3 57.05 -35.3 56.8 -35.35 56.6 -35.4 56.4 -35.4 56.2 -35.45 56.05 -35.5 55.85 -35.5 55.65 -35.55 55.5 -35.55 55.3 -35.6 55.15 -35.65 54.95 -35.7 54.75 -35.7 54.6 -35.75 54.4 -35.8 54.25 -35.85 54.05 -35.9 53.9 -35.95 53.7 -36.0 53.55 -36.0 53.45 -36.05 53.4 -36.05 53.35 -36.15 53.3 -36.25 53.3 -36.25 53.4 -36.35 53.95 -36.25 53.5 -37.8 60.65 -37.85 60.85 -38.0 61.45 -38.25 62.25 -39.35 65.45 -39.8 66.5 -39.9 66.8 -40.05 67.1 -40.2 67.35 -40.35 67.65 -40.5 67.95 -40.65 68.2 -40.8 68.5 -40.95 68.75 -41.15 69.0 -41.3 69.3 -41.45 69.55 -41.65 69.8 -41.85 70.05 -42.05 70.3 -42.25 70.55 -42.45 70.8 -42.5 70.9 -42.7 71.1 -42.7 71.15 -42.75 71.15 -42.75 71.2 -42.75 71.25 -42.8 71.25 -42.8 71.3 -42.8 71.3 -42.8 71.35 -42.8 71.4 -42.8 71.4 -42.8 71.45 -42.8 71.5 -42.8 71.5 -42.75 71.55 -42.75 71.6 -42.75 71.6 -42.65 71.8 -42.5 72.15 -42.35 72.5 -42.25 72.7 -42.0 73.2 -41.8 73.65 -41.55 74.15 -41.3 74.65 -41.05 75.15 -40.8 75.6 -40.55 76.1 -40.25 76.55 -40.0 77.0 -39.7 77.5 -39.45 77.95 -39.15 78.4 -38.85 78.85 -38.6 79.3 -38.3 79.75 -37.95 80.2 -37.85 80.35 -37.75 80.5 -37.65 80.65 -37.5 80.8 -37.4 80.95 -37.3 81.05 -37.15 81.2 -37.05 81.35 -36.9 81.45 -36.75 81.6 -36.65 81.7 -36.5 81.8 -36.35 81.95 -36.2 82.05 -36.05 82.15 -35.9 82.25 -35.1 82.75 -34.5 83.05 -34.4 83.1 -34.3 83.2 -34.2 83.25 -34.1 83.35 -34.05 83.45 -33.95 83.55 -33.9 83.6 -33.9 83.7 -33.85 83.8 -33.85 83.95 -33.8 84.05 -33.85 84.15 -33.85 84.3 -33.85 84.4 -33.85 84.55 -33.9 84.7 -33.9 84.75 -33.9 84.75 -33.95 84.8 -33.95 84.8 -33.95 84.85 -33.95 84.85 -34.0 84.9 -34.0 84.9 -34.05 84.9 -34.05 84.95 -34.1 84.95 -34.1 84.95 -34.15 84.95 -34.15 84.95 -34.2 85.0 -34.25 85.0 -34.6 85.05 -34.9 85.05 -35.2 85.05 -35.5 85.05 -35.85 85.05 -36.15 85.05 -36.5 85.05 -36.8 85.05 -37.1 85.0 -37.4 84.95 -37.75 84.9 -38.05 84.85 -38.35 84.8 -38.7 84.7 -39.0 84.65 -39.3 84.55 -40.4 84.15 -42.3 83.5 -42.55 83.45 -42.75 83.35 -42.95 83.25 -43.2 83.15 -43.4 83.05 -43.6 82.95 -43.8 82.85 -44.0 82.75 -44.2 82.6 -44.4 82.45 -44.6 82.35 -44.75 82.2 -44.95 82.05 -45.15 81.9 -45.3 81.75 -45.5 81.6 -45.55 81.55 -45.75 81.4 -45.75 81.35 -45.75 81.35 -45.75 81.3 -45.8 81.3 -45.85 81.25 -46.0 81.15 -46.0 81.2 -46.0 81.25 -46.0 81.25 -46.0 81.3 -46.0 81.35 -45.95 81.4 L-45.95 81.4 M-95.35 46.95 Q-95.35 46.95 -95.4 46.95 -95.65 47.9 -95.7 48.1 -95.8 48.65 -95.95 49.15 -96.05 49.7 -96.15 50.2 -96.25 50.75 -96.35 51.3 -96.45 51.8 -96.55 52.35 -96.65 52.9 -96.7 53.45 -96.8 53.95 -96.9 54.5 -96.95 55.05 -97.0 55.6 -97.1 56.1 -97.15 56.65 -97.35 58.4 -97.35 59.0 -97.35 61.25 -97.25 62.2 -97.15 62.9 -96.95 65.15 -96.95 65.8 -96.9 66.1 -96.55 68.3 -96.4 69.1 -96.35 69.35 -96.3 69.55 -96.25 69.8 -96.2 70.0 -96.15 70.25 -96.1 70.45 -96.05 70.7 -96.0 70.9 -95.95 71.1 -95.9 71.35 -95.8 71.55 -95.75 71.75 -95.7 72.0 -95.6 72.2 -95.5 72.45 -95.45 72.65 -95.35 72.9 -95.25 73.2 -95.1 73.45 -95.0 73.7 -94.9 74.0 -94.75 74.25 -94.65 74.5 -94.5 74.8 -94.4 75.05 -94.25 75.3 -94.15 75.55 -94.0 75.8 -93.9 76.1 -93.75 76.35 -93.6 76.6 -93.5 76.85 -93.4 77.05 -93.3 77.25 -93.2 77.4 -93.1 77.6 -93.0 77.8 -92.85 77.95 -92.75 78.15 -92.65 78.35 -92.55 78.5 -92.4 78.7 -92.3 78.85 -92.2 79.05 -92.05 79.25 -91.95 79.4 -91.85 79.55 -91.7 79.75 -91.6 79.9 -91.6 79.85 -91.55 79.95 -91.45 79.9 -91.45 79.85 -91.45 79.75 -91.45 79.55 -91.45 79.55 -91.45 79.45 -91.45 79.4 -91.45 79.3 -91.45 79.25 -91.45 79.2 -91.4 79.1 -91.4 79.05 -91.35 79.0 -91.35 78.9 -91.3 78.85 -91.25 78.8 -91.2 78.75 -91.15 78.7 -91.1 78.6 -91.05 78.55 -91.0 78.5 -90.9 78.45 -90.5 78.1 -90.2 77.85 -89.9 77.55 -89.65 77.3 -89.4 77.0 -89.15 76.7 -88.95 76.4 -88.7 76.1 -88.5 75.75 -88.35 75.45 -88.15 75.1 -88.0 74.75 -87.85 74.4 -87.7 74.05 -87.55 73.7 -87.45 73.35 -87.3 72.95 -87.15 72.35 -86.65 69.15 -86.45 67.8 -86.35 67.3 -86.3 67.15 -86.3 67.0 -86.25 66.8 -86.25 66.65 -86.2 66.5 -86.2 66.35 -86.2 66.2 -86.15 66.05 -86.15 65.85 -86.15 65.7 -86.15 65.55 -86.1 65.4 -86.1 65.2 -86.1 65.05 -86.1 64.9 -86.1 64.75 -86.1 64.55 -86.15 64.3 -86.15 64.1 -86.2 63.85 -86.2 63.65 -86.25 63.4 -86.25 63.2 -86.3 63.0 -86.3 62.75 -86.35 62.55 -86.4 62.35 -86.45 62.1 -86.45 61.9 -86.5 61.7 -86.55 61.45 -86.6 61.25 -86.85 60.05 -87.65 57.45 -87.8 57.05 -87.9 56.6 -88.05 56.15 -88.15 55.75 -88.25 55.3 -88.35 54.9 -88.45 54.45 -88.5 54.0 -88.6 53.6 -88.65 53.15 -88.75 52.7 -88.8 52.25 -88.85 51.8 -88.9 51.35 -88.95 50.95 -88.95 50.5 -88.95 50.2 -89.2 47.3 -89.2 47.25 -89.2 47.2 -89.2 47.15 -89.25 47.1 -89.25 47.1 -89.25 47.05 -89.25 47.05 -89.3 47.0 -89.3 47.0 -89.35 47.0 -89.4 47.0 -89.4 47.05 -89.4 47.1 -89.45 47.15 -89.45 47.2 -89.45 47.25 -89.45 47.4 -89.5 47.55 -89.5 47.65 -89.55 47.8 -89.55 47.95 -89.6 48.05 -89.65 48.2 -89.7 48.35 -89.75 48.45 -89.8 48.6 -89.85 48.7 -89.95 48.8 -90.0 48.95 -90.1 49.05 -90.2 49.15 -90.3 49.3 -90.35 49.35 -90.4 49.4 -90.45 49.5 -90.5 49.55 -90.55 49.6 -90.6 49.65 -90.65 49.7 -90.7 49.8 -90.75 49.85 -90.8 49.9 -90.8 49.95 -90.85 50.05 -90.9 50.1 -90.95 50.15 -91.0 50.25 -91.05 50.3 -92.6 53.0 -93.15 54.2 -93.35 54.6 -93.45 54.9 -93.65 55.25 -93.8 55.6 -93.95 55.95 -94.1 56.3 -94.25 56.65 -94.4 57.0 -94.55 57.4 -94.65 57.75 -94.8 58.1 -94.9 58.45 -95.05 58.8 -95.15 59.2 -95.25 59.55 -95.35 59.9 -95.4 60.0 -95.4 60.1 -95.45 60.2 -95.5 60.25 -95.5 60.3 -95.55 60.35 -95.6 60.4 -95.65 60.45 -95.7 60.5 -95.75 60.5 -95.8 60.55 -95.9 60.55 -95.95 60.55 -96.05 60.55 -96.15 60.55 -96.25 60.55 -96.3 60.55 -96.7 60.5 -96.75 60.5 -96.8 60.45 -96.85 60.45 -96.85 60.4 -96.9 60.4 -96.9 60.35 -96.9 60.35 -96.95 60.3 -96.95 60.25 -96.95 60.2 -97.05 59.05 -97.0 58.7 -97.0 58.55 -96.95 58.0 -96.95 57.6 -96.95 57.35 -96.9 57.0 -96.85 56.3 -96.8 55.6 -96.75 55.25 -96.7 54.9 -96.65 54.6 -96.65 54.25 -96.6 53.9 -96.55 53.55 -96.5 53.25 -96.45 52.9 -96.4 52.55 -96.35 52.25 -96.3 51.9 -96.2 51.6 -96.15 51.25 -96.1 50.9 -96.05 50.6 -95.95 50.25 -95.9 49.9 -95.85 49.75 -95.35 46.95 L-95.35 46.95" fill="#a40000" fill-rule="evenodd" stroke="none"/>
    <path d="M-95.5 87.65 Q-95.95 87.65 -96.35 87.6 -96.8 87.6 -97.2 87.55 -97.6 87.55 -98.0 87.5 -98.4 87.45 -98.8 87.35 -99.2 87.3 -99.55 87.2 -99.95 87.15 -100.3 87.05 -100.7 86.95 -101.05 86.85 -101.45 86.7 -101.8 86.6 -102.0 86.55 -102.2 86.45 -102.35 86.35 -102.55 86.3 -102.75 86.2 -102.9 86.1 -103.1 86.0 -103.25 85.9 -103.45 85.8 -103.6 85.7 -103.75 85.6 -103.9 85.5 -104.1 85.35 -104.25 85.25 -104.4 85.1 -104.55 85.0 -104.65 84.95 -104.7 84.85 -104.75 84.8 -104.85 84.7 -104.9 84.65 -104.95 84.55 -105.0 84.5 -105.05 84.4 -105.1 84.35 -105.15 84.25 -105.2 84.15 -105.25 84.1 -105.3 84.0 -105.35 83.9 -105.35 83.8 -105.4 83.75 -105.4 83.65 -105.5 83.2 -105.5 83.15 -105.45 83.1 -105.45 83.05 -105.4 83.05 -105.35 83.05 -105.3 83.05 -105.1 83.2 -104.85 83.4 -104.65 83.55 -104.4 83.7 -104.2 83.85 -103.95 84.0 -103.7 84.1 -103.5 84.25 -103.25 84.35 -103.0 84.45 -102.75 84.5 -102.5 84.6 -102.25 84.65 -102.0 84.7 -101.7 84.75 -101.45 84.8 -101.2 84.8 -100.9 84.8 -100.7 84.8 -100.55 84.8 -100.35 84.8 -100.2 84.8 -100.0 84.8 -99.8 84.75 -99.65 84.75 -99.45 84.7 -99.3 84.7 -99.1 84.65 -98.9 84.6 -98.75 84.55 -98.55 84.5 -98.4 84.45 -98.2 84.45 -98.05 84.35 -98.05 84.35 -97.55 84.25 -97.25 84.15 -97.05 84.15 -96.95 84.15 -96.85 84.15 -96.75 84.15 -96.65 84.15 -96.55 84.15 -96.45 84.15 -96.35 84.2 -96.25 84.2 -96.15 84.25 -96.1 84.25 -96.0 84.3 -95.9 84.35 -95.8 84.4 -95.75 84.45 -95.65 84.5 -95.55 84.55 -95.35 84.7 -95.15 84.85 -95.0 85.0 -94.8 85.15 -94.6 85.25 -94.4 85.4 -94.2 85.55 -93.95 85.65 -93.75 85.8 -93.55 85.9 -93.35 86.0 -93.15 86.15 -92.95 86.25 -92.7 86.35 -92.5 86.5 -92.3 86.6 -92.25 86.6 -92.2 86.65 -92.2 86.65 -92.15 86.65 -92.1 86.7 -92.05 86.7 -92.05 86.75 -92.0 86.75 -91.95 86.8 -91.95 86.8 -91.9 86.85 -91.85 86.85 -91.85 86.9 -91.85 86.95 -91.85 87.0 -91.85 87.0 -91.85 87.05 -91.9 87.1 -91.95 87.1 -92.0 87.1 -92.1 87.15 -92.2 87.2 -92.25 87.2 -92.35 87.25 -92.45 87.3 -92.55 87.3 -92.65 87.35 -92.75 87.35 -92.8 87.4 -92.9 87.4 -93.0 87.4 -93.1 87.45 -93.2 87.45 -93.3 87.45 -93.4 87.5 -93.5 87.5 -93.65 87.5 -95.5 87.65 L-95.5 87.65" fill="#a40000" fill-rule="evenodd" stroke="none"/>
    <path d="M99.05 87.65 Q97.05 87.55 96.3 87.4 96.25 87.4 96.15 87.35 96.1 87.35 96.05 87.35 95.95 87.3 95.9 87.3 95.85 87.3 95.75 87.25 95.7 87.25 95.65 87.2 95.6 87.2 95.5 87.15 95.45 87.15 95.4 87.1 95.35 87.1 95.25 87.05 95.2 87.05 95.2 87.0 95.2 86.95 95.2 86.9 95.2 86.85 95.25 86.85 95.3 86.8 95.3 86.8 95.35 86.75 95.4 86.75 95.45 86.7 95.5 86.7 95.75 86.55 95.95 86.45 96.2 86.35 96.4 86.2 96.65 86.1 96.85 85.95 97.05 85.85 97.3 85.7 97.5 85.55 97.7 85.45 97.95 85.3 98.15 85.15 98.35 85.0 98.55 84.85 98.75 84.7 98.95 84.55 99.05 84.45 99.2 84.4 99.3 84.3 99.4 84.25 99.55 84.2 99.65 84.2 99.8 84.15 99.9 84.15 100.05 84.15 100.15 84.15 100.3 84.15 100.4 84.15 100.55 84.15 100.7 84.2 100.8 84.2 100.95 84.25 101.1 84.3 101.45 84.4 101.8 84.5 101.95 84.5 102.15 84.55 102.3 84.6 102.5 84.6 102.7 84.65 102.9 84.7 103.05 84.7 103.25 84.75 103.4 84.75 103.6 84.8 103.8 84.8 104.0 84.8 104.15 84.8 104.35 84.8 104.55 84.8 104.75 84.8 104.9 84.75 105.1 84.7 105.3 84.7 105.55 84.65 105.75 84.6 105.95 84.55 106.15 84.5 106.35 84.45 106.5 84.35 106.7 84.3 106.9 84.2 107.1 84.1 107.25 84.0 107.45 83.9 107.65 83.8 107.8 83.7 108.0 83.55 108.1 83.45 108.3 83.35 108.55 83.1 108.6 83.1 108.65 83.05 108.7 83.05 108.75 83.0 108.8 83.05 108.85 83.1 108.85 83.1 108.85 83.15 108.85 83.2 108.85 83.3 108.8 83.45 108.8 83.55 108.75 83.65 108.75 83.8 108.7 83.9 108.65 84.0 108.6 84.1 108.55 84.2 108.5 84.3 108.45 84.4 108.35 84.5 108.3 84.6 108.2 84.65 108.15 84.75 108.05 84.85 107.95 84.95 107.8 85.05 107.7 85.2 107.55 85.3 107.4 85.4 107.3 85.5 107.15 85.6 107.0 85.65 106.9 85.75 106.75 85.85 106.6 85.95 106.45 86.0 106.3 86.1 106.15 86.15 106.0 86.25 105.85 86.3 105.7 86.4 105.5 86.45 105.35 86.5 105.15 86.6 104.95 86.65 104.8 86.7 104.6 86.8 104.4 86.85 104.25 86.9 104.05 86.95 103.9 87.0 103.7 87.05 103.5 87.1 103.3 87.15 103.15 87.2 102.95 87.2 102.7 87.25 102.5 87.3 102.25 87.35 102.0 87.4 101.75 87.45 101.5 87.45 101.3 87.5 101.05 87.5 100.8 87.55 100.55 87.55 100.3 87.6 100.05 87.6 99.8 87.6 99.55 87.65 99.3 87.65 99.05 87.65 L99.05 87.65" fill="#a40000" fill-rule="evenodd" stroke="none"/>
    <path d="M73.55 85.3 Q73.55 85.35 73.55 85.4 73.55 85.45 73.5 85.5 73.5 85.5 73.45 85.55 73.45 85.6 73.4 85.65 73.2 85.9 72.85 86.3 72.7 86.45 72.55 86.6 72.4 86.8 72.2 86.95 72.05 87.1 71.9 87.25 71.7 87.4 71.55 87.5 71.35 87.65 71.2 87.8 71.0 87.95 70.85 88.05 70.65 88.2 70.45 88.3 70.25 88.45 70.1 88.55 70.05 88.6 69.95 88.65 69.9 88.7 69.85 88.7 69.75 88.75 69.7 88.8 69.65 88.8 69.55 88.85 69.5 88.9 69.4 88.9 69.35 88.95 69.3 88.95 69.2 88.95 69.15 89.0 69.05 89.0 69.0 89.0 68.95 89.0 68.9 89.0 68.85 89.0 68.85 88.95 68.8 88.95 68.8 88.9 68.8 88.85 68.8 88.8 68.85 88.75 68.9 88.65 68.95 88.5 69.0 88.45 69.2 88.15 69.35 87.8 69.5 87.45 69.65 87.15 69.8 86.8 69.9 86.45 70.0 86.1 70.1 85.75 70.2 85.4 70.3 85.05 70.35 84.7 70.4 84.35 70.45 84.0 70.5 83.6 70.55 83.25 70.55 82.85 70.6 82.1 70.6 82.1 70.6 82.0 70.65 82.0 70.75 81.95 70.8 82.0 71.1 82.35 71.1 82.35 73.2 84.7 73.35 84.9 73.4 84.95 73.4 84.95 73.45 85.0 73.5 85.05 73.5 85.05 73.55 85.1 73.55 85.15 73.55 85.2 73.55 85.25 73.55 85.3 L73.55 85.3" fill="#a40000" fill-rule="evenodd" stroke="none"/>
    <path d="M-67.3 82.0 Q-67.3 82.0 -67.25 82.05 -67.25 82.05 -67.25 82.1 -67.2 82.35 -67.2 82.8 -67.2 83.1 -67.15 83.35 -67.15 83.65 -67.1 83.9 -67.05 84.2 -67.0 84.45 -67.0 84.75 -66.9 85.0 -66.85 85.3 -66.8 85.55 -66.75 85.8 -66.65 86.1 -66.55 86.35 -66.45 86.6 -66.4 86.9 -66.25 87.15 -66.2 87.25 -66.2 87.35 -66.15 87.4 -66.1 87.5 -66.05 87.6 -66.0 87.7 -66.0 87.8 -65.95 87.85 -65.9 87.95 -65.85 88.05 -65.8 88.15 -65.75 88.2 -65.7 88.3 -65.65 88.4 -65.6 88.5 -65.55 88.55 -65.55 88.6 -65.45 88.8 -65.4 88.85 -65.45 88.9 -65.45 88.95 -65.5 89.0 -65.55 89.0 -65.6 89.0 -65.7 89.0 -65.75 89.0 -65.85 88.95 -65.9 88.95 -66.0 88.95 -66.05 88.9 -66.15 88.9 -66.2 88.85 -66.3 88.8 -66.35 88.8 -66.4 88.75 -66.5 88.7 -66.55 88.65 -66.65 88.65 -66.7 88.6 -66.75 88.55 -66.9 88.45 -67.05 88.35 -67.2 88.25 -67.35 88.15 -67.5 88.05 -67.65 87.95 -67.8 87.85 -67.95 87.7 -68.05 87.6 -68.2 87.5 -68.35 87.4 -68.5 87.25 -68.6 87.15 -68.75 87.0 -68.85 86.9 -69.0 86.75 -69.05 86.7 -69.15 86.6 -69.2 86.55 -69.25 86.5 -69.35 86.4 -69.4 86.35 -69.45 86.3 -69.55 86.2 -69.6 86.15 -69.65 86.1 -69.7 86.0 -69.8 85.95 -69.85 85.85 -69.9 85.8 -70.0 85.75 -70.05 85.65 -70.1 85.6 -70.1 85.55 -70.15 85.5 -70.15 85.45 -70.2 85.4 -70.2 85.35 -70.2 85.3 -70.2 85.25 -70.2 85.2 -70.2 85.15 -70.2 85.1 -70.15 85.1 -70.15 85.05 -70.1 85.0 -70.05 84.95 -70.0 84.9 -69.45 84.4 -68.75 83.5 -67.65 82.2 -67.55 82.1 -67.45 82.0 -67.45 82.0 -67.4 81.95 -67.3 82.0 L-67.3 82.0" fill="#a40000" fill-rule="evenodd" stroke="none"/>
    <path d="M-45.95 81.4 Q-46.0 81.35 -46.0 81.3 -46.0 81.25 -46.0 81.25 -46.0 81.2 -46.0 81.15 -45.95 81.15 -45.95 81.2 -45.9 81.2 -45.85 81.25 -45.85 81.25 -45.8 81.3 -45.8 81.3 -45.75 81.35 -45.75 81.35 -45.75 81.4 -45.8 81.4 -45.95 81.4 L-45.95 81.4" fill="#fefdfd" fill-rule="evenodd" stroke="none"/>
  </g>
</svg>
