<?xml version="1.0" encoding="UTF-8" standalone="no"?>
<svg xmlns:xlink="http://www.w3.org/1999/xlink" height="116.2px" width="218.25px" xmlns="http://www.w3.org/2000/svg">
  <g transform="matrix(1.0, 0.0, 0.0, 1.0, 109.1, 58.1)">
    <path d="M-39.55 -44.8 Q-40.3 -45.75 -40.6 -46.2 -41.15 -47.3 -41.2 -47.35 -41.85 -48.4 -43.45 -50.55 -46.7 -54.8 -47.35 -55.35 -47.8 -55.75 -48.35 -56.05 -48.85 -56.4 -49.35 -56.65 -49.85 -56.9 -50.35 -57.1 -50.85 -57.3 -51.35 -57.45 -51.8 -57.6 -52.3 -57.7 -52.75 -57.8 -53.2 -57.85 -53.6 -57.95 -54.05 -58.0 -54.3 -58.05 -54.8 -58.1 -56.35 -58.3 -57.95 -58.2 -59.4 -58.15 -60.95 -57.85 -62.35 -57.6 -63.8 -57.15 -65.1 -56.75 -66.4 -56.2 -67.55 -55.75 -68.65 -55.15 -69.65 -54.65 -70.55 -54.1 -71.3 -53.7 -72.0 -53.2 -72.5 -52.9 -72.95 -52.55 -73.2 -52.45 -73.5 -52.3 -73.8 -52.15 -74.15 -52.0 -74.5 -51.8 -74.85 -51.6 -75.2 -51.35 -75.6 -51.1 -76.0 -50.85 -76.4 -50.55 -76.8 -50.2 -77.2 -49.85 -77.6 -49.5 -78.0 -49.1 -78.4 -48.65 -78.8 -48.2 -79.1 -47.85 -79.35 -47.5 -79.6 -47.15 -79.8 -46.8 -80.05 -46.45 -80.25 -46.1 -80.4 -45.8 -80.6 -45.45 -80.75 -45.15 -80.9 -44.8 -81.05 -44.5 -81.15 -44.2 -81.25 -43.95 -81.35 -43.65 -81.45 -43.45 -81.55 -43.2 -81.3 -43.35 -81.05 -43.45 -80.75 -43.55 -80.5 -43.7 -80.2 -43.8 -79.9 -43.95 -79.6 -44.05 -79.25 -44.2 -78.9 -44.3 -78.6 -44.4 -78.25 -44.55 -77.85 -44.65 -77.5 -44.75 -77.1 -44.85 -76.75 -44.95 -76.35 -45.0 -76.1 -45.05 -75.9 -45.1 -75.65 -45.15 -75.45 -45.2 -75.2 -45.2 -75.0 -45.25 -74.75 -45.25 -74.55 -45.3 -74.35 -45.35 -74.15 -45.35 -73.95 -45.35 -73.75 -45.4 -73.55 -45.4 -73.35 -45.4 -73.15 -45.4 -72.95 -45.4 -73.8 -44.35 -75.6 -42.05 -77.15 -40.1 -76.45 -41.0 -76.9 -40.45 -77.15 -40.1 -77.5 -39.65 -77.75 -39.35 -78.05 -38.95 -78.25 -38.65 -78.45 -38.35 -78.65 -38.05 -78.8 -37.75 -78.95 -37.45 -79.1 -37.15 -79.2 -36.85 -79.3 -36.55 -79.4 -36.25 -79.45 -36.05 -79.5 -35.85 -79.55 -35.65 -79.6 -35.45 -79.6 -35.25 -79.65 -35.05 -79.65 -34.9 -79.65 -34.7 -79.7 -34.55 -79.7 -34.4 -79.7 -34.25 -79.7 -34.1 -79.7 -33.95 -79.7 -33.8 -79.7 -33.7 -79.7 -33.6 -79.55 -33.75 -79.4 -33.85 -79.25 -34.0 -79.05 -34.1 -78.9 -34.25 -78.75 -34.35 -78.55 -34.5 -78.35 -34.6 -78.2 -34.75 -78.0 -34.85 -77.8 -35.0 -77.6 -35.1 -77.4 -35.25 -77.2 -35.35 -76.95 -35.5 -76.75 -35.6 -76.2 -35.9 -75.6 -36.2 -75.05 -36.45 -74.45 -36.65 -73.95 -36.85 -73.35 -37.05 -72.85 -37.2 -72.3 -37.35 -71.85 -37.45 -71.3 -37.55 -70.85 -37.65 -70.4 -37.7 -69.95 -37.75 -69.55 -37.8 -69.15 -37.85 -68.8 -37.85 -68.8 -37.75 -68.75 -37.7 -68.75 -37.6 -68.75 -37.5 -68.7 -37.4 -68.7 -37.3 -68.7 -37.2 -68.7 -37.1 -68.7 -36.95 -68.7 -36.85 -68.7 -36.7 -68.7 -36.6 -68.7 -36.45 -68.75 -36.3 -68.75 -36.15 -68.8 -36.05 -68.8 -35.95 -68.85 -35.85 -68.85 -35.75 -68.85 -35.7 -68.9 -35.6 -68.9 -35.5 -68.95 -35.4 -68.95 -35.35 -69.0 -35.25 -69.0 -35.2 -69.05 -35.1 -69.05 -35.05 -69.1 -35.0 -69.15 -34.9 -69.15 -34.85 -69.2 -34.8 -69.35 -34.8 -69.45 -34.75 -69.6 -34.75 -69.75 -34.7 -69.9 -34.7 -70.1 -34.65 -70.25 -34.65 -70.4 -34.6 -70.6 -34.55 -70.75 -34.5 -70.95 -34.45 -71.15 -34.4 -71.35 -34.35 -71.55 -34.3 -71.75 -34.25 -71.95 -34.2 -71.95 -34.2 -72.1 -34.15 -72.35 -34.05 -72.55 -33.95 -72.9 -33.85 -73.25 -33.7 -73.7 -33.5 -74.15 -33.3 -74.65 -33.05 -75.15 -32.75 -75.7 -32.45 -76.2 -32.1 -76.8 -31.75 -77.3 -31.35 -77.9 -30.9 -78.4 -30.4 -79.3 -29.55 -80.0 -28.55 -80.65 -27.65 -81.2 -26.55 -81.7 -25.6 -82.05 -24.5 -82.4 -23.55 -82.6 -22.55 -82.85 -21.7 -82.95 -20.75 -83.05 -20.0 -83.1 -19.25 -83.15 -18.7 -83.2 -18.15 -83.2 -17.8 -83.2 -17.55 -83.55 -17.4 -83.9 -17.2 -84.2 -17.05 -84.55 -16.9 -84.85 -16.75 -85.15 -16.55 -85.45 -16.4 -85.75 -16.25 -86.0 -16.1 -86.3 -15.95 -86.55 -15.8 -86.8 -15.65 -87.0 -15.5 -87.25 -15.35 -87.45 -15.25 -87.65 -15.1 -88.2 -14.75 -88.5 -14.55 -88.9 -14.3 -89.25 -14.05 -89.6 -13.8 -89.9 -13.6 -90.2 -13.4 -90.45 -13.2 -90.7 -12.95 -90.9 -12.75 -91.15 -12.55 -91.35 -12.3 -91.5 -12.1 -91.65 -11.85 -91.85 -11.6 -91.95 -11.3 -92.05 -11.05 -92.15 -10.8 -92.25 -10.6 -92.3 -10.35 -92.35 -10.1 -92.4 -9.85 -92.4 -9.6 -92.45 -9.35 -92.45 -9.1 -92.45 -8.85 -92.45 -8.6 -92.45 -8.25 -92.4 -8.05 -92.4 -7.65 -92.4 -7.2 -92.35 -6.9 -92.35 -6.5 -92.35 -6.15 -92.3 -5.7 -92.3 -5.25 -92.3 -4.8 -92.3 -4.35 -92.35 -3.85 -92.35 -3.35 -92.35 -2.8 -92.4 -2.25 -92.4 -1.65 -92.45 -1.1 -92.5 -0.45 -92.55 0.15 -92.6 0.8 -92.7 1.45 -92.9 1.6 -93.05 1.7 -93.25 1.9 -93.45 2.05 -93.7 2.25 -93.9 2.45 -94.15 2.65 -94.35 2.9 -94.6 3.15 -94.85 3.4 -95.1 3.7 -95.3 3.95 -95.55 4.3 -95.8 4.6 -96.05 4.95 -96.25 5.35 -96.35 5.5 -96.4 5.6 -96.5 5.8 -96.6 6.0 -96.75 6.25 -96.85 6.5 -97.0 6.8 -97.1 7.1 -97.25 7.45 -97.4 7.8 -97.5 8.2 -97.6 8.6 -97.75 9.05 -97.85 9.5 -97.9 9.95 -98.0 10.45 -98.05 10.95 -98.1 11.45 -98.1 11.9 -98.1 12.4 -98.1 12.8 -98.05 13.25 -98.0 13.65 -97.95 14.05 -97.9 14.45 -97.85 14.8 -97.75 15.15 -97.7 15.5 -97.6 15.8 -97.55 16.05 -97.45 16.3 -97.35 16.55 -97.65 16.85 -97.95 17.15 -98.2 17.45 -98.5 17.75 -98.75 18.05 -98.95 18.35 -99.15 18.6 -99.35 18.9 -99.55 19.15 -99.75 19.45 -99.9 19.7 -100.05 19.95 -100.2 20.2 -100.3 20.45 -100.45 20.65 -100.55 20.85 -100.75 21.3 -100.85 21.5 -101.1 21.95 -101.25 22.35 -101.45 22.9 -101.65 23.35 -101.85 23.95 -102.0 24.5 -102.15 25.1 -102.2 25.7 -102.3 26.35 -102.3 26.95 -102.3 27.6 -102.2 28.25 -102.1 28.9 -101.85 29.55 -101.5 30.45 -100.05 32.8 -99.9 33.0 -99.8 33.2 -99.65 33.4 -99.5 33.6 -99.4 33.8 -99.25 34.0 -99.15 34.15 -99.0 34.3 -98.9 34.5 -98.8 34.65 -98.7 34.8 -98.6 34.95 -98.5 35.1 -98.4 35.2 -98.3 35.35 -98.2 35.45 -98.35 35.65 -98.45 35.9 -98.55 36.15 -98.7 36.4 -98.85 36.7 -98.95 37.0 -99.1 37.35 -99.2 37.7 -99.35 38.05 -99.45 38.45 -99.55 38.85 -99.65 39.25 -99.75 39.7 -99.8 40.15 -99.9 40.6 -99.95 41.1 -99.95 41.55 -99.95 41.5 -100.0 41.75 -100.0 42.0 -100.0 42.25 -100.0 42.55 -100.0 42.85 -99.95 43.15 -99.95 43.5 -99.9 43.85 -99.85 44.2 -99.75 44.55 -99.7 44.95 -99.6 45.3 -99.45 45.7 -99.3 46.1 -99.0 46.85 -98.55 47.5 -98.15 48.15 -97.65 48.7 -97.15 49.2 -96.6 49.7 -96.1 50.1 -95.5 50.45 -95.0 50.75 -94.5 51.05 -94.05 51.3 -93.55 51.45 -93.2 51.6 -92.85 51.75 -92.6 51.85 -92.35 51.9 -92.3 52.15 -92.2 52.4 -92.15 52.65 -92.05 52.9 -92.0 53.15 -91.9 53.35 -91.85 53.55 -91.75 53.75 -91.65 53.95 -91.55 54.1 -91.45 54.3 -91.4 54.45 -91.3 54.6 -91.2 54.7 -91.15 54.85 -91.05 54.95 -90.9 55.15 -90.8 55.3 -90.65 55.5 -90.5 55.7 -90.3 55.95 -90.1 56.15 -89.9 56.4 -89.65 56.65 -89.4 56.9 -89.1 57.1 -88.8 57.3 -88.5 57.5 -88.15 57.7 -87.75 57.85 -87.35 58.0 -86.95 58.1 -86.75 58.15 -86.6 58.15 -86.4 58.2 -86.2 58.2 -86.05 58.25 -85.9 58.25 -85.7 58.25 -85.55 58.25 -85.4 58.2 -85.25 58.2 -85.1 58.2 -85.0 58.2 -84.85 58.15 -84.75 58.15 -84.6 58.1 -84.5 58.1 -84.35 58.1 -84.25 58.1 -84.05 58.1 -83.9 58.1 -83.75 58.1 -83.6 58.1 -83.4 58.1 -83.2 58.1 -83.0 58.1 -82.8 58.1 -82.6 58.1 -82.4 58.1 -82.15 58.1 -81.9 58.1 -81.7 58.1 -81.45 58.1 -77.8 58.15 -77.25 58.1 -77.1 58.1 -76.95 58.05 -76.75 58.05 -76.6 58.0 -76.4 58.0 -76.2 57.95 -76.0 57.9 -75.8 57.85 -75.6 57.8 -75.35 57.75 -75.1 57.7 -74.9 57.65 -74.65 57.55 -74.4 57.5 -74.15 57.4 -73.9 57.3 -73.8 57.35 -73.7 57.35 -73.6 57.35 -73.5 57.4 -73.4 57.4 -73.3 57.4 -73.2 57.45 -73.1 57.45 -72.95 57.45 -72.85 57.4 -72.75 57.4 -72.6 57.4 -72.5 57.35 -72.4 57.3 -72.25 57.25 -72.15 57.2 -72.05 57.15 -71.95 57.1 -71.9 57.05 -71.8 56.95 -71.7 56.85 -71.6 56.75 -71.55 56.6 -71.45 56.45 -71.35 56.25 -71.25 56.05 -71.15 55.8 -71.05 55.55 -70.95 55.25 -70.85 54.85 -70.75 54.5 -70.6 54.05 -70.15 52.25 -69.9 50.9 -69.8 50.85 -69.7 50.8 -69.55 50.75 -69.45 50.7 -69.3 50.6 -69.2 50.55 -69.05 50.5 -68.9 50.45 -68.8 50.35 -68.65 50.3 -68.5 50.2 -68.35 50.1 -68.2 50.05 -68.05 49.95 -67.9 49.85 -67.75 49.75 -67.6 49.65 -67.5 49.6 -67.4 49.5 -67.25 49.45 -67.1 49.35 -67.0 49.25 -66.85 49.15 -66.7 49.05 -66.55 48.9 -66.4 48.8 -66.2 48.65 -66.05 48.55 -65.9 48.4 -65.75 48.25 -65.55 48.1 -65.4 47.9 -65.3 47.8 -65.2 47.7 -65.1 47.6 -65.0 47.45 -64.85 47.3 -64.7 47.15 -64.55 46.95 -64.45 46.75 -64.25 46.55 -64.1 46.3 -63.95 46.05 -63.8 45.8 -63.65 45.5 -63.5 45.2 -63.4 44.9 -63.25 44.55 -63.1 44.05 -62.95 43.6 -62.85 43.1 -62.8 42.65 -62.75 42.2 -62.75 41.75 -62.75 41.35 -62.8 40.95 -62.85 40.55 -62.9 40.2 -62.95 39.9 -63.0 39.55 -63.05 39.3 -63.15 39.05 -63.2 38.85 -63.25 38.65 -63.15 38.65 -63.1 38.6 -63.0 38.6 -62.9 38.6 -62.8 38.55 -62.7 38.55 -62.6 38.5 -62.5 38.5 -62.4 38.45 -62.3 38.4 -62.15 38.35 -62.05 38.3 -61.95 38.25 -61.85 38.15 -61.75 38.1 -61.65 38.0 -61.5 37.9 -61.4 37.75 -61.25 37.65 -61.15 37.5 -61.05 37.35 -60.95 37.25 -60.9 37.1 -60.8 36.95 -60.75 36.8 -60.7 36.65 -60.65 36.5 -60.6 36.3 -60.55 36.15 -60.5 36.0 -60.45 35.95 -60.4 35.65 -60.25 35.0 -60.1 34.5 -59.95 34.05 -59.8 33.65 -59.7 33.35 -59.6 33.05 -59.55 32.85 -59.45 32.65 -59.35 32.35 -59.3 32.3 -59.25 32.15 -59.25 32.05 -59.2 31.9 -59.15 31.7 -59.1 31.55 -59.1 31.25 -59.05 30.75 -59.0 30.25 -58.95 29.8 -59.0 29.3 -59.0 28.85 -59.05 28.4 -59.1 27.95 -59.15 27.5 -59.25 27.1 -59.35 26.7 -59.4 26.3 -59.55 25.95 -59.65 25.6 -59.75 25.25 -59.85 24.95 -60.0 24.65 -59.9 24.6 -59.8 24.55 -59.7 24.45 -59.6 24.4 -59.5 24.3 -59.4 24.25 -59.3 24.15 -59.2 24.1 -59.1 24.0 -58.95 23.9 -58.85 23.8 -58.75 23.7 -58.6 23.55 -58.5 23.45 -58.35 23.35 -58.25 23.2 -58.25 23.2 -58.2 23.15 -58.15 23.1 -58.1 23.0 -58.0 22.9 -57.9 22.75 -57.8 22.6 -57.65 22.45 -57.55 22.25 -57.4 22.05 -57.25 21.8 -57.15 21.55 -57.0 21.3 -56.85 21.05 -56.75 20.75 -56.6 20.45 -56.45 20.05 -56.35 19.6 -56.3 19.15 -56.25 18.6 -56.2 18.1 -56.25 17.5 -56.25 16.9 -56.35 16.3 -56.4 15.65 -56.55 15.0 -56.7 14.35 -56.9 13.65 -57.15 12.9 -57.4 12.2 -57.7 11.45 -58.05 10.75 -57.55 9.65 -57.25 8.8 -57.0 8.25 -56.9 7.9 -56.7 7.45 -56.6 7.1 -56.45 6.7 -56.3 6.35 -56.15 5.95 -56.05 5.6 -55.95 5.25 -55.85 4.95 -55.75 4.6 -55.7 4.25 -55.6 3.95 -55.55 3.6 -55.5 3.3 -55.5 3.0 -55.5 2.75 -55.5 2.55 -55.5 2.3 -55.5 2.0 -55.5 1.7 -55.55 1.35 -55.6 1.0 -55.65 0.65 -55.75 0.25 -55.85 -0.15 -56.0 -0.6 -56.15 -1.0 -56.35 -1.5 -56.6 -1.95 -56.85 -2.45 -57.15 -2.95 -57.05 -3.0 -56.95 -3.1 -56.85 -3.2 -56.75 -3.25 -56.65 -3.35 -56.55 -3.45 -56.45 -3.55 -56.3 -3.65 -56.2 -3.8 -56.1 -3.9 -56.0 -4.0 -55.85 -4.15 -55.75 -4.25 -55.65 -4.4 -55.5 -4.55 -55.4 -4.7 -55.3 -4.8 -55.25 -4.9 -55.15 -5.0 -55.05 -5.15 -54.9 -5.3 -54.8 -5.5 -54.65 -5.7 -54.55 -5.9 -54.4 -6.1 -54.25 -6.35 -54.15 -6.6 -54.0 -6.85 -53.85 -7.15 -53.7 -7.4 -53.6 -7.75 -53.45 -8.05 -53.25 -8.6 -53.1 -9.15 -52.95 -9.65 -52.85 -10.15 -52.75 -10.65 -52.7 -11.1 -52.65 -11.55 -52.65 -12.0 -52.6 -12.4 -52.6 -12.8 -52.6 -13.15 -52.65 -13.5 -52.65 -13.75 -52.7 -14.05 -52.7 -14.25 -52.75 -14.5 -52.8 -14.75 -52.85 -14.95 -52.85 -15.15 -52.9 -15.4 -52.95 -15.6 -53.0 -15.8 -53.05 -16.0 -53.1 -16.2 -53.15 -16.35 -53.25 -16.55 -53.3 -16.7 -53.35 -16.85 -53.4 -17.0 -53.45 -17.15 -53.5 -17.3 -53.55 -17.45 -53.5 -17.5 -53.45 -17.55 -53.35 -17.6 -53.3 -17.65 -53.2 -17.7 -53.15 -17.8 -53.05 -17.85 -53.0 -17.9 -52.9 -18.0 -52.85 -18.1 -52.75 -18.15 -52.65 -18.25 -52.6 -18.35 -52.5 -18.45 -52.4 -18.55 -52.35 -18.65 -52.15 -18.9 -52.0 -19.15 -51.85 -19.4 -51.75 -19.7 -51.65 -19.95 -51.55 -20.2 -51.5 -20.45 -51.4 -20.75 -51.35 -21.0 -51.3 -21.35 -51.25 -21.6 -51.2 -21.95 -51.2 -22.05 -51.1 -22.6 -51.05 -23.0 -51.0 -23.25 -50.95 -23.45 -50.95 -23.7 -50.9 -23.9 -50.85 -24.15 -50.8 -24.4 -50.75 -24.65 -50.7 -24.95 -50.65 -25.2 -50.6 -25.5 -50.5 -25.8 -50.45 -26.1 -50.35 -26.4 -50.25 -26.75 -50.2 -27.05 -50.1 -27.4 -50.0 -27.75 -49.85 -27.8 -49.75 -27.85 -49.6 -27.95 -49.45 -28.0 -49.3 -28.1 -49.2 -28.15 -49.0 -28.25 -48.85 -28.35 -48.7 -28.45 -48.55 -28.55 -48.4 -28.65 -48.2 -28.75 -48.05 -28.9 -47.9 -29.0 -47.7 -29.15 -47.55 -29.3 -47.45 -29.4 -47.35 -29.45 -47.2 -29.55 -47.1 -29.7 -46.95 -29.8 -46.8 -29.95 -46.65 -30.1 -46.5 -30.3 -46.3 -30.5 -46.1 -30.7 -45.9 -30.9 -45.75 -31.15 -45.5 -31.45 -45.3 -31.7 -45.1 -32.0 -44.9 -32.35 -44.75 -32.6 -44.55 -32.85 -44.4 -33.15 -44.2 -33.45 -44.0 -33.8 -43.85 -34.15 -43.65 -34.5 -43.45 -34.9 -43.25 -35.3 -43.05 -35.7 -42.9 -36.15 -42.7 -36.6 -42.5 -37.1 -42.35 -37.6 -42.15 -38.15 -42.0 -38.7 -41.9 -38.7 -41.75 -38.75 -41.65 -38.8 -41.5 -38.85 -41.35 -38.85 -41.2 -38.95 -41.05 -39.0 -40.9 -39.05 -40.7 -39.15 -40.55 -39.2 -40.35 -39.3 -40.2 -39.4 -40.0 -39.5 -39.85 -39.65 -39.65 -39.75 -39.45 -39.9 -39.25 -40.05 -39.25 -40.1 -39.1 -40.2 -39.0 -40.25 -38.9 -40.4 -38.8 -40.45 -38.7 -40.6 -38.6 -40.7 -38.5 -40.8 -38.4 -40.95 -38.3 -41.05 -38.25 -41.2 -38.15 -41.3 -38.1 -41.45 -38.05 -41.6 -38.05 -41.75 -38.0 -41.95 -38.0 -42.15 -38.0 -42.35 -38.05 -42.55 -38.1 -42.7 -38.2 -42.9 -38.3 -43.1 -38.4 -43.25 -38.5 -43.45 -38.65 -43.65 -38.75 -43.8 -38.95 -44.05 -39.05 -44.2 -39.25 -44.4 -39.55 -44.8 -39.55 -44.8 L-39.55 -44.8 M-65.0 -15.4 Q-65.1 -15.2 -65.3 -14.9 -65.5 -14.55 -65.6 -14.4 -65.7 -14.25 -65.75 -14.15 -65.85 -14.0 -65.9 -13.9 -66.0 -13.75 -66.05 -13.6 -66.1 -13.5 -66.2 -13.35 -66.25 -13.2 -66.3 -13.1 -66.4 -12.95 -66.45 -12.8 -66.5 -12.65 -66.6 -12.55 -66.65 -12.4 -66.7 -12.25 -66.7 -12.25 -66.7 -12.2 -66.75 -12.2 -66.75 -12.15 -66.75 -12.1 -66.8 -12.05 -66.85 -11.95 -66.9 -11.75 -67.0 -11.5 -67.1 -11.2 -67.1 -11.15 -67.15 -11.05 -67.15 -11.0 -67.2 -10.9 -67.2 -10.85 -67.25 -10.75 -67.25 -10.7 -67.3 -10.6 -67.3 -10.55 -67.3 -10.45 -67.35 -10.4 -67.35 -10.3 -67.35 -10.25 -67.4 -10.15 -67.4 -10.1 -67.45 -10.0 -67.45 -9.95 -67.55 -9.4 -67.55 -9.3 -67.6 -9.15 -67.6 -9.1 -67.6 -9.1 -67.6 -9.05 -67.6 -9.05 -67.6 -9.05 -67.6 -8.95 -67.6 -8.9 -67.6 -8.85 -67.65 -8.8 -67.65 -8.8 -67.65 -8.75 -67.65 -8.75 -67.65 -8.7 -67.65 -8.65 -67.65 -8.6 -67.65 -8.55 -67.65 -8.45 -67.65 -8.4 -67.65 -8.35 -67.65 -8.35 -67.65 -8.3 -67.65 -8.25 -67.65 -8.2 -67.65 -8.2 -67.7 -8.15 -67.7 -8.1 -67.7 -8.1 -67.7 -8.05 -67.7 -8.0 -67.7 -8.0 -67.7 -7.95 -67.7 -7.9 -67.7 -7.9 -67.7 -7.85 -67.7 -7.75 -67.7 -7.55 -67.65 -7.35 -67.65 -7.25 -67.65 -7.2 -67.65 -7.1 -67.65 -7.1 -67.65 -7.05 -67.65 -7.05 -67.65 -7.05 -67.65 -6.95 -67.6 -6.75 -67.6 -6.7 -67.5 -6.5 -67.5 -6.3 -67.45 -6.2 -67.45 -6.2 -67.4 -6.05 -67.35 -6.0 -67.35 -5.95 -67.35 -5.9 -67.35 -5.85 -67.3 -5.85 -67.3 -5.8 -67.3 -5.75 -67.3 -5.75 -67.25 -5.7 -67.25 -5.65 -67.2 -5.6 -67.2 -5.55 -67.15 -5.5 -67.15 -5.45 -67.1 -5.4 -67.1 -5.35 -67.05 -5.35 -67.05 -5.3 -67.0 -5.25 -66.95 -5.2 -66.95 -5.15 -66.9 -5.1 -66.85 -5.05 -66.85 -5.0 -66.85 -5.0 -66.85 -5.0 -66.8 -5.0 -66.8 -4.95 -66.75 -4.9 -66.7 -4.8 -66.65 -4.8 -66.65 -4.75 -66.6 -4.7 -66.6 -4.7 -66.55 -4.65 -66.55 -4.65 -66.5 -4.6 -66.5 -4.55 -66.5 -4.55 -66.45 -4.5 -66.4 -4.4 -66.35 -4.3 -66.3 -4.2 -66.25 -4.1 -66.25 -4.0 -66.2 -3.9 -66.2 -3.8 -66.2 -3.7 -66.2 -3.6 -66.2 -3.5 -66.2 -3.4 -66.2 -3.3 -66.2 -3.2 -66.25 -3.1 -66.25 -3.0 -66.3 -2.85 -66.5 -2.25 -67.2 -0.65 -67.8 0.6 -68.15 1.4 -68.2 1.45 -68.2 1.5 -68.25 1.5 -68.25 1.55 -68.25 1.6 -68.3 1.65 -68.3 1.65 -68.35 1.8 -68.35 1.85 -68.4 1.85 -68.4 1.9 -68.4 1.95 -68.4 1.95 -68.45 2.0 -68.45 2.0 -68.45 2.05 -68.45 2.1 -68.5 2.1 -68.5 2.15 -68.5 2.2 -68.5 2.2 -68.55 2.25 -68.55 2.25 -68.55 2.3 -68.6 2.35 -68.6 2.45 -68.65 2.5 -68.65 2.55 -68.65 2.6 -68.7 2.7 -68.7 2.75 -68.75 2.8 -68.75 2.9 -68.8 2.95 -68.8 3.0 -68.85 3.1 -68.85 3.15 -68.85 3.2 -68.9 3.25 -68.9 3.35 -68.9 3.4 -68.95 3.5 -68.95 3.55 -69.0 3.6 -69.0 3.7 -69.05 3.75 -69.05 3.8 -69.05 3.9 -69.1 3.95 -69.1 4.05 -69.1 4.1 -69.15 4.15 -69.15 4.25 -69.15 4.3 -69.2 4.35 -69.2 4.45 -69.2 4.5 -69.2 4.5 -69.2 4.55 -69.25 4.6 -69.25 4.65 -69.25 4.65 -69.25 4.7 -69.25 4.75 -69.25 4.8 -69.25 4.85 -69.25 4.85 -69.3 4.9 -69.3 4.95 -69.3 5.0 -69.3 5.0 -69.3 5.05 -69.3 5.1 -69.35 5.25 -69.35 5.25 -69.35 5.3 -69.35 5.35 -69.35 5.55 -69.35 5.6 -69.35 5.7 -69.4 5.75 -69.4 5.85 -69.4 5.9 -69.4 6.0 -69.4 6.05 -69.4 6.15 -69.4 6.2 -69.4 6.3 -69.4 6.35 -69.45 6.45 -69.45 6.5 -69.45 6.55 -69.45 6.65 -69.45 6.7 -69.45 6.85 -69.4 7.0 -69.4 7.3 -69.4 7.3 -69.4 7.35 -69.35 7.5 -69.35 7.55 -69.35 7.6 -69.35 7.65 -69.35 7.75 -69.35 7.85 -69.3 8.0 -69.25 8.3 -69.25 8.3 -69.2 8.45 -69.2 8.55 -69.15 8.7 -69.15 8.85 -69.1 8.95 -69.1 9.1 -69.1 9.25 -69.05 9.4 -69.05 9.5 -69.05 9.65 -69.05 9.8 -69.1 9.95 -69.1 10.05 -69.15 10.15 -69.15 10.25 -69.15 10.4 -69.2 10.5 -69.2 10.6 -69.25 10.7 -69.3 10.8 -69.3 10.9 -69.35 11.0 -69.4 11.1 -69.45 11.2 -69.45 11.3 -69.5 11.4 -69.55 11.5 -69.6 11.6 -69.7 11.75 -69.8 12.0 -69.8 12.05 -69.85 12.2 -69.9 12.2 -69.95 12.35 -70.1 12.8 -70.2 13.1 -70.2 13.15 -70.25 13.25 -70.25 13.3 -70.3 13.4 -70.3 13.45 -70.3 13.55 -70.35 13.6 -70.35 13.7 -70.35 13.75 -70.4 13.85 -70.4 13.9 -70.4 14.0 -70.45 14.05 -70.45 14.15 -70.45 14.2 -70.45 14.3 -70.5 14.45 -70.55 14.65 -70.55 14.7 -70.55 14.75 -70.55 14.8 -70.55 14.85 -70.55 14.85 -70.6 14.95 -70.6 15.05 -70.55 14.9 -70.6 15.05 -70.65 15.7 -70.65 15.9 -70.7 16.2 -70.45 17.05 -70.25 17.7 -69.7 19.85 -69.6 21.0 -69.6 21.05 -69.55 21.05 -69.55 21.1 -69.55 21.1 -69.55 21.15 -69.5 21.2 -69.5 21.2 -69.5 21.25 -69.5 21.3 -69.5 21.35 -69.5 21.35 -69.5 21.4 -69.5 21.45 -69.5 21.45 -69.5 21.5 -69.5 21.55 -69.55 21.7 -69.6 21.9 -69.65 22.05 -69.75 22.2 -69.8 22.35 -69.9 22.5 -69.95 22.7 -70.05 22.85 -70.1 23.0 -70.2 23.15 -70.3 23.3 -70.4 23.45 -70.45 23.6 -70.55 23.75 -70.65 23.9 -70.75 24.05 -71.8 25.7 -72.0 26.15 -72.05 26.25 -72.1 26.4 -72.1 26.4 -72.15 26.45 -72.15 26.5 -72.15 26.5 -72.2 26.55 -72.2 26.6 -72.2 26.65 -72.2 26.65 -72.25 26.7 -72.25 26.7 -72.25 26.75 -72.25 26.8 -72.3 26.8 -72.3 26.85 -72.3 26.9 -72.3 26.9 -72.3 26.95 -72.35 27.0 -72.35 27.0 -72.35 27.05 -72.35 27.1 -72.35 27.1 -72.35 27.15 -72.4 27.2 -72.4 27.2 -72.4 27.25 -72.4 27.3 -72.4 27.35 -72.45 27.4 -72.45 27.4 -72.45 27.45 -72.45 27.5 -72.45 27.55 -72.45 27.55 -72.5 27.6 -72.5 27.65 -72.5 27.7 -72.5 27.75 -72.5 27.75 -72.5 27.8 -72.5 27.85 -72.5 27.9 -72.5 27.9 -72.5 27.95 -72.5 28.0 -72.5 28.05 -72.55 28.05 -72.55 28.1 -72.55 28.15 -72.55 28.2 -72.55 28.2 -72.55 28.25 -72.6 28.6 -72.6 28.9 -72.6 29.25 -72.6 29.6 -72.6 29.9 -72.6 30.25 -72.6 30.6 -72.6 30.95 -72.55 31.25 -72.55 31.6 -72.5 31.95 -72.5 32.3 -72.45 32.6 -72.4 32.95 -72.4 33.25 -72.35 33.6 -72.35 33.65 -72.35 33.7 -72.35 33.75 -72.35 33.75 -72.35 33.8 -72.4 33.85 -72.4 33.9 -72.4 33.9 -72.45 33.95 -72.45 34.0 -72.45 34.05 -72.45 34.1 -72.45 34.15 -72.45 34.25 -72.45 34.3 -72.5 34.35 -72.5 34.4 -72.55 34.45 -72.55 34.5 -72.6 34.55 -72.65 34.6 -72.7 34.6 -72.75 34.65 -72.8 34.7 -72.85 34.7 -72.9 34.75 -72.95 34.75 -73.0 34.75 -73.0 34.75 -73.05 34.8 -73.1 34.8 -73.15 34.8 -73.2 34.8 -73.2 34.8 -73.25 34.85 -73.3 34.85 -73.35 34.85 -73.4 34.85 -73.4 34.9 -73.45 34.9 -73.5 34.9 -73.55 34.9 -73.6 34.95 -73.65 34.95 -73.65 34.95 -73.7 35.0 -73.55 34.9 -73.75 35.0 -73.8 35.05 -73.9 35.1 -74.05 35.15 -74.05 35.15 -74.1 35.15 -74.15 35.2 -74.2 35.2 -74.2 35.25 -74.25 35.25 -74.3 35.3 -74.35 35.3 -74.4 35.35 -74.45 35.35 -74.45 35.4 -74.5 35.4 -74.55 35.45 -74.6 35.45 -74.65 35.5 -74.65 35.5 -74.7 35.55 -74.75 35.55 -74.8 35.6 -74.8 35.6 -74.85 35.65 -74.9 35.65 -74.95 35.7 -75.0 35.7 -75.05 35.75 -75.05 35.75 -75.15 35.85 -75.2 35.85 -75.25 35.9 -75.25 35.9 -75.3 35.9 -75.3 35.95 -75.3 35.95 -75.35 36.0 -75.4 36.0 -75.45 36.05 -75.55 36.15 -75.65 36.25 -75.8 36.35 -76.25 36.8 -76.3 36.85 -76.3 36.85 -76.35 36.95 -75.8 36.1 -76.35 36.95 -76.35 37.0 -76.4 37.0 -76.4 37.0 -76.4 37.05 -76.45 37.1 -76.45 37.1 -76.5 37.15 -76.5 37.2 -76.5 37.2 -76.55 37.25 -76.55 37.25 -76.55 37.3 -76.6 37.3 -76.6 37.35 -76.6 37.35 -76.65 37.5 -76.65 37.55 -76.7 37.6 -76.7 37.6 -76.7 37.65 -76.7 37.7 -76.75 37.75 -76.75 37.85 -76.8 38.05 -76.85 38.25 -76.85 38.35 -76.85 38.5 -76.9 38.65 -76.2 34.1 -76.95 38.95 -76.95 39.15 -77.0 39.25 -77.0 39.45 -77.05 39.6 -77.1 39.75 -77.15 39.9 -77.15 40.05 -77.2 40.2 -77.25 40.35 -77.35 40.45 -77.4 40.6 -77.5 40.75 -77.55 40.85 -77.65 40.95 -77.75 41.1 -77.8 41.2 -77.9 41.3 -78.0 41.4 -78.1 41.45 -78.2 41.55 -78.3 41.65 -78.4 41.75 -78.5 41.8 -78.65 41.9 -78.75 41.95 -78.85 42.05 -78.95 42.1 -79.1 42.2 -79.2 42.25 -79.35 42.35 -79.45 42.4 -79.6 42.5 -79.7 42.55 -79.85 42.6 -79.95 42.7 -80.1 42.75 -80.2 42.8 -80.35 42.85 -80.45 42.95 -80.6 43.0 -80.75 43.05 -80.85 43.1 -81.0 43.2 -81.1 43.25 -81.25 43.3 -81.35 43.35 -81.45 43.4 -81.6 43.45 -81.7 43.5 -81.8 43.55 -81.95 43.6 -82.05 43.65 -82.2 43.65 -82.3 43.7 -82.45 43.75 -82.55 43.8 -82.7 43.8 -82.8 43.85 -82.95 43.9 -83.05 43.9 -83.15 43.9 -83.2 43.95 -83.3 43.95 -83.35 43.95 -83.45 43.95 -83.5 43.95 -83.6 43.95 -83.7 43.95 -83.75 43.95 -83.85 43.95 -83.9 43.95 -84.0 43.9 -84.05 43.9 -84.15 43.9 -84.2 43.85 -84.3 43.8 -84.35 43.8 -84.4 43.75 -84.45 43.7 -84.5 43.7 -84.55 43.65 -84.6 43.6 -84.6 43.55 -84.65 43.5 -84.7 43.45 -84.7 43.4 -84.75 43.35 -84.8 43.3 -84.8 43.25 -84.8 43.2 -84.85 43.15 -84.85 43.05 -84.85 42.95 -84.9 42.85 -84.9 42.7 -84.9 42.6 -84.9 42.5 -84.85 42.35 -84.85 42.25 -84.85 42.15 -84.8 42.05 -84.75 41.9 -84.75 41.8 -84.7 41.7 -84.65 41.6 -84.65 41.45 -84.65 41.55 -84.55 41.25 -84.35 40.6 -84.25 40.3 -84.25 40.25 -84.2 40.2 -84.2 40.15 -84.2 40.1 -84.15 40.05 -84.15 40.0 -84.15 39.95 -84.15 39.9 -84.1 39.85 -84.1 39.8 -84.1 39.75 -84.1 39.7 -84.05 39.65 -84.05 39.6 -84.05 39.55 -84.05 39.5 -84.05 39.45 -84.05 39.4 -84.0 39.4 -84.0 39.35 -84.0 39.3 -84.0 39.25 -84.0 39.25 -84.0 39.2 -84.0 39.2 -84.0 39.2 -84.0 39.15 -84.0 39.1 -84.0 39.1 -83.95 39.05 -83.95 39.0 -83.95 38.95 -83.95 38.9 -83.95 38.9 -83.95 38.85 -83.95 38.8 -83.95 38.7 -83.95 38.6 -83.95 38.55 -83.95 38.45 -83.95 38.35 -83.95 38.25 -83.95 38.15 -83.95 38.05 -83.95 38.0 -83.95 37.9 -83.95 37.8 -83.95 37.7 -84.0 37.6 -84.0 37.5 -84.0 37.45 -84.0 37.35 -84.25 37.05 -84.85 36.15 -84.9 36.05 -85.05 35.85 -85.05 35.85 -85.1 35.75 -85.1 35.75 -85.15 35.7 -85.15 35.7 -85.2 35.7 -85.2 35.65 -85.25 35.6 -85.3 35.6 -85.3 35.55 -85.35 35.5 -85.35 35.5 -85.4 35.45 -85.45 35.4 -85.45 35.4 -85.5 35.35 -85.5 35.3 -85.55 35.3 -85.6 35.25 -85.6 35.2 -85.65 35.2 -85.7 35.15 -85.75 35.1 -85.85 35.0 -85.85 35.0 -85.95 34.9 -86.0 34.9 -86.05 34.9 -86.05 34.85 -86.1 34.85 -86.25 34.7 -86.65 34.5 -87.5 33.95 -87.8 33.65 -88.0 33.5 -88.1 33.25 -88.2 33.1 -88.3 32.85 -88.35 32.65 -88.4 32.45 -88.4 32.2 -88.4 31.95 -88.35 31.75 -88.3 31.5 -88.25 31.3 -88.2 31.05 -88.15 30.85 -88.05 30.6 -87.95 30.4 -87.85 30.2 -87.55 29.6 -86.85 28.5 -86.15 27.4 -85.85 26.8 -85.75 26.65 -85.65 26.4 -85.65 26.35 -85.65 26.3 -85.6 26.25 -85.6 26.2 -85.6 26.2 -85.55 26.15 -85.55 26.1 -85.5 25.95 -85.45 25.8 -85.45 25.7 -85.45 25.65 -85.4 25.55 -85.4 25.55 -85.4 25.55 -85.4 25.5 -85.4 25.4 -85.4 25.35 -85.4 25.3 -85.4 25.3 -85.4 25.25 -85.4 25.2 -85.4 25.15 -85.4 25.1 -85.4 25.05 -85.4 25.05 -85.4 25.0 -85.4 24.95 -85.4 24.9 -85.4 24.85 -85.4 24.85 -85.4 24.8 -85.4 24.75 -85.4 24.7 -85.45 24.55 -85.45 24.55 -85.45 24.5 -85.45 24.45 -85.45 24.4 -85.45 24.35 -85.45 24.25 -85.45 24.15 -85.5 24.1 -85.5 24.0 -85.5 23.95 -85.55 23.85 -85.55 23.8 -85.6 23.7 -85.6 23.65 -85.65 23.55 -85.65 23.5 -85.65 23.4 -85.7 23.35 -85.7 23.25 -85.75 23.2 -85.75 23.1 -85.8 23.05 -85.9 22.8 -86.0 22.45 -86.05 22.3 -86.2 21.85 -86.3 21.5 -86.4 21.25 -86.5 20.95 -86.6 20.65 -86.65 20.35 -86.75 20.05 -86.8 19.75 -86.85 19.45 -86.9 19.1 -86.9 18.8 -86.9 18.5 -86.85 18.2 -86.85 18.15 -86.85 18.1 -86.8 18.0 -86.8 17.95 -86.75 17.9 -86.75 17.85 -86.7 17.8 -86.65 17.75 -86.65 17.75 -86.6 17.7 -86.55 17.65 -86.5 17.65 -86.45 17.6 -86.35 17.6 -86.3 17.6 -86.25 17.6 -86.2 17.6 -86.15 17.6 -86.15 17.6 -86.15 17.6 -85.65 16.75 -84.4 15.3 -84.35 15.25 -84.05 14.85 -84.0 14.8 -83.85 14.65 -83.85 14.65 -83.85 14.6 -83.85 14.6 -83.8 14.55 -83.8 14.55 -83.75 14.5 -83.7 14.45 -83.65 14.4 -83.65 14.35 -83.6 14.3 -83.55 14.2 -83.5 14.15 -83.5 14.1 -83.45 14.05 -83.4 14.0 -83.4 13.95 -83.35 13.9 -83.3 13.8 -83.25 13.75 -83.25 13.7 -83.2 13.65 -83.15 13.55 -83.15 13.5 -83.1 13.45 -83.05 13.35 -83.05 13.3 -83.0 13.25 -83.0 13.25 -83.0 13.2 -82.95 13.15 -82.95 13.15 -82.95 13.15 -82.95 13.15 -82.95 13.15 -82.8 12.7 -82.75 12.55 -82.65 12.15 -82.6 11.9 -82.6 11.85 -82.6 11.8 -82.6 11.8 -82.6 11.75 -82.6 11.7 -82.6 11.7 -82.6 11.65 -82.6 11.6 -82.55 11.5 -82.55 11.25 -82.3 8.65 -82.2 6.8 -82.3 6.65 -82.45 6.25 -82.95 4.95 -83.1 4.3 -83.2 4.25 -83.3 4.2 -83.4 4.1 -83.5 4.05 -83.6 3.95 -83.7 3.9 -83.8 3.8 -83.85 3.75 -83.95 3.65 -84.05 3.55 -84.1 3.5 -84.2 3.4 -84.25 3.3 -84.3 3.2 -84.35 3.1 -84.4 2.95 -84.45 2.8 -84.45 2.65 -84.45 2.5 -84.4 2.35 -84.4 2.2 -84.3 2.1 -84.25 1.95 -84.15 1.85 -84.05 1.75 -83.9 1.65 -83.8 1.55 -83.65 1.45 -83.55 1.4 -83.4 1.3 -83.25 1.25 -83.1 1.2 -83.1 1.15 -83.1 1.15 -83.1 1.1 -83.05 1.1 -83.0 1.0 -82.95 0.85 -82.9 0.75 -82.8 0.65 -82.75 0.55 -82.65 0.45 -82.55 0.35 -82.45 0.25 -82.35 0.2 -82.25 0.1 -82.15 0.05 -82.05 -0.05 -81.95 -0.1 -81.85 -0.2 -81.75 -0.25 -81.6 -0.3 -81.45 -0.4 -81.2 -0.55 -80.9 -0.75 -80.85 -0.8 -80.75 -0.85 -80.15 -1.35 -79.85 -1.55 -79.75 -1.65 -79.55 -1.8 -79.4 -1.9 -79.15 -2.05 -79.0 -2.2 -78.75 -2.35 -78.6 -2.45 -78.35 -2.6 -78.15 -2.7 -77.95 -2.8 -77.7 -2.85 -77.5 -2.95 -77.25 -3.0 -77.05 -3.1 -76.8 -3.15 -76.75 -3.15 -76.65 -3.15 -76.6 -3.15 -76.55 -3.15 -76.5 -3.15 -76.45 -3.2 -76.45 -3.2 -76.4 -3.25 -76.05 -3.6 -76.0 -3.7 -75.95 -3.7 -75.95 -3.75 -75.9 -3.8 -75.9 -3.8 -75.85 -3.85 -75.85 -3.85 -75.8 -3.9 -75.8 -3.9 -75.75 -3.95 -75.75 -3.95 -75.7 -4.0 -75.7 -4.05 -75.7 -4.05 -75.65 -4.1 -75.6 -4.1 -75.65 -4.05 -75.6 -4.1 -75.35 -4.55 -75.35 -4.6 -75.3 -4.6 -75.3 -4.65 -75.25 -4.65 -75.25 -4.7 -75.25 -4.7 -75.2 -4.75 -75.2 -4.8 -75.2 -4.8 -75.15 -4.85 -75.15 -4.85 -75.15 -4.9 -75.1 -4.95 -75.1 -4.95 -75.1 -5.0 -75.05 -5.0 -75.05 -5.05 -75.05 -5.1 -75.0 -5.15 -75.05 -5.1 -75.05 -5.1 -75.05 -5.05 -75.05 -5.1 -75.0 -5.15 -75.0 -5.2 -75.0 -5.2 -75.0 -5.25 -74.95 -5.3 -74.95 -5.3 -74.95 -5.35 -74.95 -5.4 -74.9 -5.45 -74.8 -5.85 -74.8 -6.0 -74.8 -6.05 -74.75 -6.15 -74.75 -6.15 -74.75 -6.2 -74.75 -6.25 -74.75 -6.5 -74.7 -6.7 -74.7 -7.1 -74.7 -7.5 -74.7 -8.35 -74.7 -8.9 -74.7 -9.0 -74.7 -9.35 -74.65 -9.6 -74.65 -9.95 -74.6 -10.25 -74.6 -10.6 -74.55 -10.9 -74.45 -11.25 -74.4 -11.5 -74.3 -11.85 -74.15 -12.1 -74.05 -12.4 -73.85 -12.65 -73.65 -12.9 -73.45 -13.15 -73.35 -13.25 -73.3 -13.3 -73.2 -13.35 -73.1 -13.45 -73.0 -13.5 -72.9 -13.6 -72.85 -13.65 -72.75 -13.7 -72.65 -13.8 -72.55 -13.85 -72.45 -13.9 -72.35 -13.95 -72.25 -14.05 -72.15 -14.1 -72.05 -14.15 -71.95 -14.2 -71.85 -14.25 -71.7 -14.35 -71.6 -14.4 -71.45 -14.5 -71.35 -14.55 -71.2 -14.65 -71.1 -14.7 -70.95 -14.75 -70.85 -14.85 -70.7 -14.9 -70.55 -14.95 -70.45 -15.0 -70.3 -15.1 -70.2 -15.15 -70.05 -15.2 -69.95 -15.25 -69.8 -15.3 -69.65 -15.4 -69.55 -15.45 -69.4 -15.5 -69.25 -15.55 -69.1 -15.65 -68.95 -15.7 -68.85 -15.75 -68.7 -15.8 -68.55 -15.85 -68.4 -15.9 -68.25 -15.95 -68.15 -16.0 -68.0 -16.05 -67.85 -16.1 -67.7 -16.15 -67.6 -16.2 -67.5 -16.2 -67.35 -16.25 -67.25 -16.3 -67.15 -16.35 -67.05 -16.35 -66.95 -16.4 -66.85 -16.4 -66.7 -16.45 -66.6 -16.45 -66.5 -16.5 -66.35 -16.5 -66.25 -16.5 -66.15 -16.5 -66.05 -16.55 -65.9 -16.55 -65.85 -16.55 -65.85 -16.55 -65.8 -16.55 -65.8 -16.5 -65.75 -16.5 -65.7 -16.5 -65.7 -16.5 -65.65 -16.45 -65.65 -16.45 -65.6 -16.45 -65.6 -16.4 -65.55 -16.4 -65.55 -16.4 -65.5 -16.35 -65.5 -16.35 -65.45 -16.3 -65.4 -16.3 -65.35 -16.3 -65.35 -16.3 -65.3 -16.3 -65.25 -16.25 -65.2 -16.25 -65.15 -16.2 -65.1 -16.2 -65.05 -16.15 -65.0 -16.1 -65.0 -16.05 -64.95 -16.0 -64.95 -15.9 -64.9 -15.85 -64.9 -15.8 -64.9 -15.75 -64.9 -15.7 -64.9 -15.6 -64.9 -15.55 -64.9 -15.5 -64.95 -15.45 -65.0 -15.4 L-65.0 -15.4" fill="#6fade5" fill-rule="evenodd" stroke="none"/>
    <path d="M49.8 -41.9 Q49.85 -41.75 49.9 -41.6 49.95 -41.45 50.0 -41.3 50.1 -41.2 50.15 -41.05 50.25 -40.95 50.35 -40.85 50.45 -40.7 50.55 -40.6 50.65 -40.5 50.75 -40.4 50.85 -40.3 51.0 -40.2 51.05 -40.15 51.2 -40.05 51.35 -39.9 51.55 -39.75 51.7 -39.65 51.9 -39.55 52.05 -39.45 52.25 -39.35 52.4 -39.25 52.55 -39.2 52.7 -39.1 52.9 -39.05 53.0 -39.0 53.15 -38.95 53.3 -38.9 53.45 -38.85 53.55 -38.85 53.65 -38.8 53.8 -38.25 53.95 -37.75 54.15 -37.25 54.3 -36.75 54.5 -36.3 54.65 -35.85 54.85 -35.4 55.05 -35.0 55.2 -34.65 55.4 -34.25 55.55 -33.95 55.75 -33.6 55.9 -33.3 56.1 -33.0 56.25 -32.75 56.4 -32.5 56.6 -32.15 56.8 -31.85 57.0 -31.55 57.2 -31.3 57.4 -31.05 57.6 -30.85 57.75 -30.6 57.95 -30.4 58.1 -30.25 58.25 -30.1 58.4 -29.95 58.55 -29.8 58.65 -29.7 58.75 -29.6 58.85 -29.5 58.95 -29.4 59.1 -29.25 59.3 -29.15 59.45 -29.0 59.6 -28.9 59.75 -28.8 59.95 -28.7 60.1 -28.6 60.25 -28.5 60.4 -28.4 60.55 -28.3 60.7 -28.2 60.8 -28.15 60.95 -28.1 61.1 -28.0 61.2 -27.95 61.3 -27.9 61.4 -27.55 61.5 -27.2 61.6 -26.9 61.65 -26.55 61.75 -26.25 61.8 -25.95 61.9 -25.65 61.95 -25.35 62.0 -25.05 62.05 -24.8 62.1 -24.55 62.15 -24.3 62.2 -24.05 62.25 -23.8 62.25 -23.6 62.3 -23.4 62.35 -23.1 62.4 -22.7 62.5 -22.15 62.5 -22.05 62.55 -21.7 62.6 -21.45 62.65 -21.15 62.7 -20.9 62.75 -20.6 62.85 -20.35 62.9 -20.05 63.0 -19.8 63.15 -19.55 63.25 -19.3 63.4 -19.05 63.6 -18.8 63.65 -18.7 63.75 -18.6 63.85 -18.5 63.9 -18.4 64.0 -18.3 64.05 -18.2 64.15 -18.15 64.2 -18.05 64.3 -18.0 64.35 -17.9 64.45 -17.85 64.5 -17.8 64.55 -17.75 64.65 -17.65 64.7 -17.6 64.75 -17.55 64.7 -17.4 64.65 -17.3 64.6 -17.15 64.55 -17.0 64.5 -16.85 64.45 -16.65 64.4 -16.5 64.35 -16.3 64.3 -16.1 64.25 -15.95 64.2 -15.7 64.15 -15.5 64.1 -15.3 64.05 -15.1 64.0 -14.85 63.95 -14.6 63.9 -14.35 63.9 -14.2 63.9 -13.9 63.85 -13.6 63.85 -13.25 63.85 -12.95 63.85 -12.55 63.85 -12.15 63.9 -11.7 63.95 -11.25 64.0 -10.75 64.1 -10.3 64.2 -9.75 64.3 -9.25 64.45 -8.7 64.65 -8.2 64.75 -7.9 64.9 -7.55 65.05 -7.25 65.15 -7.0 65.3 -6.75 65.45 -6.45 65.55 -6.25 65.7 -6.0 65.8 -5.8 65.95 -5.6 66.05 -5.45 66.2 -5.3 66.25 -5.15 66.35 -5.0 66.45 -4.9 66.55 -4.8 66.65 -4.65 66.75 -4.5 66.9 -4.4 67.0 -4.25 67.1 -4.15 67.2 -4.0 67.3 -3.9 67.4 -3.8 67.5 -3.7 67.65 -3.6 67.7 -3.5 67.85 -3.4 67.9 -3.3 68.0 -3.25 68.1 -3.15 68.2 -3.05 67.9 -2.55 67.65 -2.05 67.45 -1.6 67.25 -1.15 67.1 -0.7 67.0 -0.3 66.85 0.1 66.8 0.5 66.7 0.85 66.65 1.25 66.65 1.55 66.6 1.85 66.6 2.15 66.6 2.4 66.6 2.65 66.65 2.85 66.65 3.15 66.7 3.5 66.75 3.8 66.8 4.15 66.9 4.45 66.95 4.8 67.05 5.1 67.15 5.5 67.25 5.8 67.4 6.2 67.5 6.55 67.65 6.95 67.8 7.3 67.95 7.8 68.05 8.05 68.3 8.65 68.35 8.8 68.4 8.95 68.45 9.1 68.5 9.25 68.6 9.4 68.65 9.5 68.7 9.65 68.75 9.75 68.8 9.9 68.85 10.0 68.85 10.1 68.9 10.25 68.95 10.35 69.0 10.45 69.05 10.5 69.1 10.6 68.75 11.35 68.5 12.05 68.2 12.8 68.0 13.5 67.8 14.2 67.65 14.85 67.5 15.55 67.45 16.15 67.35 16.8 67.35 17.4 67.3 17.95 67.35 18.5 67.4 19.0 67.5 19.45 67.55 19.95 67.7 20.3 67.8 20.6 67.95 20.9 68.05 21.15 68.2 21.45 68.3 21.65 68.45 21.9 68.6 22.1 68.7 22.3 68.8 22.45 68.95 22.65 69.05 22.75 69.1 22.85 69.2 22.95 69.25 23.0 69.25 23.05 69.3 23.05 69.4 23.2 69.5 23.3 69.65 23.45 69.75 23.55 69.85 23.65 69.95 23.75 70.05 23.85 70.2 23.95 70.3 24.05 70.4 24.1 70.5 24.2 70.6 24.25 70.7 24.35 70.8 24.4 70.85 24.45 70.95 24.5 70.85 24.8 70.75 25.1 70.6 25.45 70.5 25.8 70.4 26.2 70.3 26.55 70.2 27.0 70.15 27.4 70.1 27.8 70.05 28.25 70.0 28.7 69.95 29.2 69.95 29.65 70.0 30.15 70.0 30.65 70.05 31.15 70.1 31.4 70.15 31.6 70.15 31.75 70.2 31.9 70.25 32.05 70.3 32.2 70.3 32.2 70.45 32.5 70.5 32.75 70.6 32.9 70.7 33.2 70.8 33.5 70.9 33.9 71.05 34.35 71.2 34.9 71.35 35.55 71.4 35.8 71.45 35.85 71.5 36.05 71.5 36.2 71.55 36.35 71.6 36.5 71.7 36.65 71.75 36.8 71.8 36.95 71.9 37.1 71.95 37.25 72.05 37.4 72.15 37.5 72.25 37.65 72.4 37.75 72.55 37.9 72.65 38.0 72.75 38.05 72.85 38.1 72.95 38.15 73.05 38.2 73.15 38.25 73.25 38.3 73.35 38.35 73.45 38.35 73.55 38.4 73.65 38.45 73.75 38.45 73.85 38.45 73.95 38.45 74.0 38.5 74.1 38.5 74.05 38.7 74.0 38.9 73.9 39.15 73.85 39.45 73.8 39.75 73.75 40.05 73.7 40.45 73.65 40.8 73.6 41.2 73.6 41.6 73.65 42.05 73.7 42.5 73.75 43.0 73.85 43.45 73.95 43.95 74.1 44.4 74.2 44.75 74.35 45.05 74.5 45.35 74.65 45.65 74.75 45.9 74.9 46.15 75.05 46.4 75.2 46.6 75.35 46.8 75.5 47.0 75.65 47.2 75.75 47.35 75.9 47.45 76.0 47.6 76.05 47.7 76.15 47.8 76.3 47.95 76.45 48.1 76.6 48.25 76.8 48.4 76.95 48.55 77.1 48.65 77.25 48.8 77.4 48.9 77.55 49.0 77.65 49.1 77.8 49.2 77.95 49.3 78.05 49.4 78.2 49.5 78.3 49.55 78.4 49.65 78.55 49.75 78.7 49.85 78.85 49.9 79.0 50.0 79.15 50.1 79.25 50.15 79.4 50.2 79.55 50.3 79.65 50.35 79.8 50.45 79.9 50.5 80.05 50.55 80.15 50.6 80.25 50.65 80.4 50.7 80.5 50.75 80.55 51.0 80.6 51.2 80.6 51.45 80.65 51.7 80.7 51.9 80.75 52.1 80.8 52.3 80.85 52.5 80.9 52.7 80.95 52.9 80.95 53.1 81.0 53.25 81.05 53.45 81.1 53.6 81.15 53.75 81.15 53.9 81.25 54.35 81.4 54.7 81.5 55.1 81.6 55.4 81.7 55.7 81.8 55.9 81.9 56.15 81.95 56.3 82.05 56.5 82.15 56.6 82.2 56.75 82.3 56.8 82.4 56.9 82.5 56.95 82.55 57.05 82.65 57.1 82.75 57.15 82.85 57.2 83.0 57.25 83.1 57.25 83.2 57.3 83.3 57.3 83.45 57.3 83.55 57.3 83.65 57.3 83.75 57.3 83.85 57.3 83.95 57.25 84.05 57.25 84.15 57.25 84.25 57.2 84.3 57.2 84.55 57.3 84.8 57.35 85.05 57.45 85.3 57.5 85.5 57.6 85.75 57.65 85.95 57.7 86.15 57.75 86.35 57.8 86.55 57.8 86.75 57.85 86.9 57.9 87.1 57.9 87.25 57.95 87.4 57.95 87.55 57.95 88.15 58.0 91.6 57.95 93.25 57.95 94.55 57.95 94.65 58.0 94.75 58.0 94.9 58.0 95.0 58.05 95.15 58.05 95.25 58.05 95.4 58.1 95.55 58.1 95.7 58.1 95.85 58.1 96.05 58.1 96.2 58.1 96.35 58.05 96.55 58.05 96.7 58.0 96.9 57.95 97.3 57.85 97.7 57.7 98.05 57.55 98.35 57.35 98.7 57.2 99.0 56.95 99.25 56.75 99.5 56.5 99.75 56.3 99.95 56.05 100.15 55.8 100.3 55.6 100.45 55.4 100.6 55.15 100.7 55.05 100.85 54.85 100.95 54.7 101.0 54.6 101.1 54.45 101.15 54.3 101.25 54.15 101.35 54.0 101.4 53.8 101.5 53.6 101.6 53.4 101.65 53.2 101.75 53.0 101.85 52.75 101.9 52.55 102.0 52.3 102.05 52.05 102.1 51.75 102.3 51.7 102.55 51.6 102.9 51.5 103.25 51.35 103.7 51.15 104.15 50.9 104.65 50.65 105.15 50.3 105.7 49.95 106.15 49.55 106.7 49.1 107.2 48.55 107.7 48.0 108.05 47.4 108.5 46.7 108.8 45.95 108.95 45.6 109.05 45.2 109.15 44.8 109.25 44.45 109.3 44.1 109.35 43.7 109.4 43.4 109.4 43.05 109.45 42.7 109.45 42.4 109.45 42.15 109.45 41.85 109.4 41.6 109.4 41.35 109.4 41.2 109.4 40.95 109.35 40.5 109.3 40.0 109.25 39.55 109.15 39.15 109.05 38.7 108.95 38.3 108.8 37.95 108.7 37.55 108.6 37.25 108.45 36.9 108.35 36.6 108.2 36.3 108.05 36.05 107.95 35.75 107.85 35.55 107.7 35.35 107.8 35.2 107.9 35.1 108.0 34.95 108.1 34.8 108.2 34.65 108.3 34.5 108.4 34.35 108.5 34.2 108.6 34.0 108.75 33.85 108.85 33.65 109.0 33.5 109.1 33.3 109.2 33.1 109.35 32.9 109.5 32.65 110.9 30.3 111.25 29.4 111.5 28.8 111.6 28.1 111.7 27.5 111.7 26.8 111.7 26.2 111.6 25.55 111.5 24.95 111.35 24.35 111.2 23.8 111.05 23.25 110.85 22.75 110.65 22.25 110.5 21.85 110.3 21.4 110.15 21.15 109.95 20.7 109.85 20.5 109.75 20.3 109.6 20.05 109.5 19.8 109.35 19.55 109.2 19.3 109.05 19.05 108.85 18.75 108.65 18.5 108.45 18.2 108.25 17.9 108.0 17.65 107.75 17.35 107.5 17.05 107.2 16.75 106.9 16.45 107.0 16.2 107.05 15.95 107.15 15.65 107.2 15.35 107.3 15.0 107.35 14.7 107.45 14.3 107.5 13.95 107.55 13.55 107.6 13.1 107.6 12.7 107.6 12.25 107.65 11.75 107.6 11.3 107.55 10.8 107.5 10.3 107.45 9.8 107.35 9.35 107.25 8.9 107.15 8.45 107.05 8.05 106.9 7.65 106.8 7.3 106.7 6.95 106.55 6.65 106.45 6.35 106.3 6.1 106.2 5.85 106.1 5.65 106.0 5.5 105.9 5.35 105.85 5.2 105.65 4.85 105.4 4.5 105.2 4.15 104.95 3.85 104.7 3.55 104.5 3.25 104.25 3.0 104.0 2.75 103.8 2.5 103.55 2.3 103.35 2.1 103.15 1.9 102.95 1.75 102.75 1.6 102.6 1.45 102.4 1.3 102.35 0.65 102.3 0.0 102.25 -0.6 102.2 -1.2 102.15 -1.8 102.1 -2.4 102.1 -2.9 102.1 -3.45 102.05 -3.95 102.05 -4.5 102.05 -4.95 102.05 -5.4 102.05 -5.85 102.1 -6.25 102.1 -6.65 102.1 -7.05 102.1 -7.3 102.15 -7.75 102.15 -8.2 102.15 -8.4 102.2 -8.7 102.2 -8.95 102.2 -9.25 102.15 -9.5 102.15 -9.75 102.15 -10.0 102.1 -10.25 102.05 -10.5 102.0 -10.7 101.9 -10.95 101.85 -11.2 101.7 -11.45 101.6 -11.7 101.45 -11.95 101.3 -12.2 101.1 -12.45 100.9 -12.65 100.7 -12.9 100.5 -13.1 100.25 -13.3 100.0 -13.5 99.7 -13.75 99.45 -13.95 99.1 -14.2 98.8 -14.4 98.4 -14.7 98.1 -14.9 97.6 -15.2 97.4 -15.35 97.2 -15.45 96.95 -15.6 96.75 -15.75 96.5 -15.9 96.25 -16.05 96.0 -16.2 95.75 -16.35 95.45 -16.55 95.15 -16.7 94.9 -16.85 94.55 -17.0 94.25 -17.2 93.95 -17.35 93.6 -17.5 93.25 -17.7 93.25 -17.95 93.25 -18.3 93.25 -18.85 93.2 -19.4 93.15 -20.15 93.05 -20.9 92.9 -21.8 92.7 -22.7 92.5 -23.7 92.2 -24.65 91.8 -25.75 91.35 -26.7 90.85 -27.75 90.2 -28.7 89.5 -29.7 88.65 -30.55 88.15 -31.0 87.6 -31.45 87.1 -31.85 86.55 -32.25 86.05 -32.6 85.5 -32.9 85.05 -33.15 84.55 -33.4 84.15 -33.65 83.7 -33.8 83.35 -33.95 83.05 -34.1 82.8 -34.2 82.6 -34.25 82.55 -34.3 82.45 -34.3 82.25 -34.35 82.05 -34.45 81.85 -34.5 81.7 -34.55 81.5 -34.6 81.35 -34.65 81.15 -34.7 81.0 -34.7 80.8 -34.75 80.65 -34.8 80.5 -34.8 80.35 -34.85 80.2 -34.85 80.05 -34.9 79.95 -34.9 79.8 -34.95 79.75 -35.0 79.75 -35.05 79.7 -35.15 79.7 -35.2 79.65 -35.25 79.65 -35.35 79.6 -35.4 79.6 -35.45 79.55 -35.55 79.55 -35.65 79.5 -35.7 79.5 -35.8 79.45 -35.9 79.45 -36.0 79.4 -36.05 79.4 -36.15 79.4 -36.3 79.35 -36.45 79.35 -36.55 79.35 -36.7 79.3 -36.85 79.3 -36.95 79.3 -37.1 79.3 -37.2 79.35 -37.3 79.35 -37.45 79.35 -37.55 79.35 -37.65 79.35 -37.75 79.4 -37.85 79.4 -37.9 79.4 -38.0 79.75 -38.0 80.15 -37.95 80.55 -37.9 80.95 -37.85 81.4 -37.8 81.85 -37.7 82.35 -37.6 82.8 -37.5 83.3 -37.35 83.8 -37.2 84.35 -37.0 84.9 -36.8 85.45 -36.6 85.95 -36.35 86.55 -36.05 87.05 -35.75 87.25 -35.65 87.45 -35.5 87.7 -35.4 87.9 -35.25 88.05 -35.15 88.25 -35.0 88.45 -34.85 88.65 -34.75 88.8 -34.6 89.0 -34.5 89.15 -34.35 89.3 -34.2 89.45 -34.1 89.6 -33.95 89.75 -33.85 89.9 -33.7 89.9 -33.8 89.9 -33.95 89.9 -34.1 89.9 -34.2 89.9 -34.35 89.9 -34.5 89.9 -34.7 89.9 -34.85 89.85 -35.05 89.85 -35.2 89.85 -35.4 89.8 -35.55 89.75 -35.75 89.7 -35.95 89.7 -36.15 89.65 -36.35 89.55 -36.7 89.45 -37.0 89.35 -37.3 89.2 -37.6 89.05 -37.85 88.9 -38.15 88.75 -38.45 88.5 -38.8 88.3 -39.1 88.05 -39.45 87.8 -39.8 87.5 -40.25 87.2 -40.6 86.8 -41.15 78.2 -52.35 86.0 -42.2 85.2 -43.2 83.45 -45.55 83.65 -45.55 83.8 -45.55 84.0 -45.5 84.2 -45.5 84.35 -45.5 84.55 -45.5 84.75 -45.45 84.95 -45.45 85.15 -45.4 85.4 -45.4 85.6 -45.35 85.8 -45.3 86.0 -45.3 86.25 -45.25 86.45 -45.2 86.7 -45.15 87.1 -45.05 87.45 -44.95 87.8 -44.9 88.15 -44.75 88.5 -44.65 88.85 -44.55 89.15 -44.45 89.5 -44.3 89.8 -44.2 90.1 -44.05 90.4 -43.95 90.65 -43.8 90.95 -43.7 91.2 -43.55 91.45 -43.45 91.7 -43.3 91.6 -43.55 91.55 -43.8 91.45 -44.1 91.3 -44.35 91.2 -44.65 91.05 -44.95 90.95 -45.25 90.75 -45.55 90.6 -45.9 90.45 -46.25 90.25 -46.6 90.0 -46.9 89.8 -47.25 89.55 -47.6 89.3 -47.95 89.05 -48.3 88.7 -48.75 88.3 -49.2 87.9 -49.6 87.5 -50.0 87.1 -50.35 86.7 -50.65 86.35 -50.95 85.95 -51.25 85.6 -51.5 85.25 -51.75 84.9 -51.95 84.55 -52.15 84.25 -52.3 83.95 -52.45 83.7 -52.6 83.45 -52.7 83.0 -53.05 82.55 -53.35 81.85 -53.8 81.15 -54.25 80.25 -54.8 79.3 -55.3 78.2 -55.85 77.1 -56.35 75.85 -56.9 74.6 -57.3 73.2 -57.75 71.85 -58.0 70.4 -58.3 68.95 -58.35 67.4 -58.45 65.95 -58.25 65.45 -58.2 65.25 -58.15 64.8 -58.1 64.4 -58.0 63.95 -57.95 63.55 -57.85 63.1 -57.7 62.65 -57.55 62.15 -57.4 61.7 -57.25 61.15 -57.0 60.7 -56.75 60.2 -56.5 59.75 -56.2 59.25 -55.85 58.75 -55.45 58.15 -54.95 55.05 -50.65 53.5 -48.55 52.85 -47.5 52.8 -47.35 52.3 -46.35 52.0 -45.85 51.3 -44.95 51.3 -44.95 51.0 -44.55 50.8 -44.3 50.7 -44.15 50.5 -43.95 50.4 -43.8 50.25 -43.6 50.15 -43.4 50.05 -43.2 50.0 -43.05 49.9 -42.85 49.85 -42.65 49.8 -42.45 49.8 -42.25 49.8 -42.1 49.8 -41.9 L49.8 -41.9 M75.95 -16.35 Q76.0 -16.4 76.1 -16.4 76.1 -16.4 76.15 -16.45 76.15 -16.45 76.2 -16.45 76.2 -16.45 76.25 -16.5 76.25 -16.5 76.3 -16.55 76.3 -16.55 76.35 -16.55 76.4 -16.6 76.4 -16.6 76.45 -16.6 76.45 -16.65 76.5 -16.65 76.5 -16.65 76.55 -16.65 76.6 -16.65 76.6 -16.65 76.65 -16.65 76.75 -16.65 76.85 -16.65 77.0 -16.65 77.1 -16.6 77.2 -16.6 77.3 -16.6 77.4 -16.55 77.55 -16.55 77.65 -16.5 77.75 -16.5 77.85 -16.45 77.95 -16.45 78.05 -16.4 78.15 -16.35 78.25 -16.35 78.4 -16.3 78.55 -16.25 78.65 -16.2 78.8 -16.15 78.95 -16.1 79.05 -16.05 79.2 -16.0 79.35 -15.95 79.45 -15.9 79.6 -15.85 79.7 -15.75 79.85 -15.7 80.0 -15.65 80.1 -15.6 80.25 -15.55 80.4 -15.45 80.5 -15.4 80.65 -15.35 80.75 -15.3 80.9 -15.2 81.0 -15.15 81.15 -15.1 81.25 -15.05 81.35 -14.95 81.5 -14.9 81.6 -14.85 81.75 -14.75 81.85 -14.7 82.0 -14.65 82.1 -14.55 82.2 -14.5 82.35 -14.4 82.45 -14.35 82.55 -14.3 82.65 -14.25 82.75 -14.15 82.85 -14.1 82.95 -14.05 83.0 -14.0 83.1 -13.9 83.2 -13.85 83.3 -13.8 83.4 -13.7 83.5 -13.65 83.55 -13.55 83.65 -13.5 83.75 -13.4 83.8 -13.35 83.9 -13.25 84.1 -13.05 84.3 -12.75 84.45 -12.5 84.6 -12.25 84.7 -11.95 84.8 -11.65 84.9 -11.35 84.95 -11.05 85.0 -10.75 85.0 -10.4 85.05 -10.1 85.05 -9.75 85.1 -9.5 85.1 -9.1 85.1 -8.95 85.1 -8.5 85.1 -8.4 85.1 -8.35 85.1 -8.25 85.1 -8.2 85.1 -8.1 85.1 -8.05 85.1 -7.95 85.1 -7.85 85.1 -7.8 85.1 -7.7 85.1 -7.65 85.1 -7.55 85.1 -7.45 85.1 -7.4 85.1 -7.3 85.1 -7.25 85.1 -7.2 85.1 -7.15 85.1 -7.15 85.1 -7.1 85.1 -7.05 85.1 -7.0 85.1 -6.95 85.1 -6.95 85.1 -6.9 85.1 -6.85 85.1 -6.8 85.1 -6.75 85.1 -6.75 85.15 -6.7 85.15 -6.65 85.15 -6.6 85.15 -6.5 85.15 -6.35 85.15 -6.3 85.15 -6.3 85.15 -6.25 85.2 -6.2 85.2 -6.2 85.2 -6.15 85.2 -6.1 85.2 -6.1 85.2 -6.05 85.2 -6.0 85.25 -5.95 85.25 -5.95 85.25 -5.9 85.25 -5.85 85.25 -5.8 85.25 -5.8 85.25 -5.75 85.3 -5.7 85.3 -5.7 85.3 -5.65 85.3 -5.6 85.3 -5.6 85.3 -5.55 85.35 -5.45 85.4 -5.35 85.4 -5.3 85.4 -5.3 85.4 -5.25 85.45 -5.2 85.45 -5.2 85.45 -5.2 85.4 -5.25 85.45 -5.15 85.4 -5.25 85.4 -5.25 85.45 -5.2 85.45 -5.2 85.45 -5.15 85.7 -4.7 85.7 -4.65 85.75 -4.6 85.85 -4.4 85.95 -4.25 86.05 -4.2 86.0 -4.25 86.05 -4.15 86.1 -4.15 86.15 -4.05 86.2 -3.95 86.35 -3.8 86.55 -3.55 86.75 -3.4 86.8 -3.35 86.9 -3.25 86.95 -3.25 86.95 -3.25 87.0 -3.25 87.05 -3.25 87.1 -3.25 87.15 -3.25 87.35 -3.2 87.6 -3.15 87.8 -3.1 88.0 -3.0 88.2 -2.9 88.45 -2.8 88.65 -2.7 88.85 -2.6 89.0 -2.45 89.25 -2.3 89.4 -2.2 89.6 -2.05 89.75 -1.9 89.95 -1.75 90.1 -1.65 90.35 -1.5 90.4 -1.45 90.45 -1.45 90.45 -1.4 90.5 -1.35 90.55 -1.3 90.6 -1.3 90.65 -1.25 90.65 -1.2 90.7 -1.2 90.75 -1.15 90.8 -1.1 90.85 -1.1 90.9 -1.05 90.9 -1.0 90.95 -1.0 91.0 -0.95 91.15 -0.85 91.4 -0.7 91.75 -0.5 91.75 -0.45 91.85 -0.35 91.95 -0.3 92.1 -0.25 92.15 -0.15 92.3 -0.1 92.4 0.0 92.5 0.05 92.55 0.15 92.65 0.25 92.75 0.3 92.85 0.4 92.9 0.5 93.0 0.6 93.05 0.7 93.1 0.85 93.15 0.95 93.15 1.0 93.15 1.0 93.2 1.05 93.2 1.05 93.35 1.1 93.45 1.2 93.6 1.25 93.75 1.35 93.85 1.45 94.0 1.5 94.1 1.6 94.2 1.7 94.3 1.85 94.35 1.95 94.4 2.1 94.45 2.2 94.5 2.35 94.5 2.5 94.5 2.65 94.45 2.85 94.4 2.95 94.35 3.05 94.3 3.15 94.25 3.25 94.2 3.35 94.1 3.45 94.0 3.55 93.95 3.6 93.85 3.7 93.75 3.75 93.65 3.85 93.55 3.9 93.5 4.0 93.35 4.05 93.3 4.1 93.2 4.2 93.05 4.85 92.55 6.1 92.5 6.25 92.35 6.7 92.4 8.3 92.65 11.1 92.65 11.4 92.7 11.5 92.7 11.5 92.7 11.6 92.7 11.65 92.7 11.75 92.85 12.4 92.85 12.4 92.95 12.75 93.05 13.0 93.05 13.0 93.05 13.05 93.05 13.05 93.05 13.05 93.05 13.05 93.1 13.1 93.1 13.1 93.1 13.15 93.15 13.2 93.25 13.45 93.3 13.5 93.3 13.55 93.35 13.65 93.4 13.7 93.4 13.75 93.45 13.8 93.5 13.85 93.55 13.9 93.55 14.0 93.6 14.05 93.65 14.1 93.7 14.15 93.7 14.2 93.75 14.25 93.8 14.35 93.85 14.4 93.85 14.4 93.9 14.5 93.9 14.5 93.95 14.5 93.95 14.55 94.0 14.6 94.0 14.6 94.05 14.65 94.05 14.7 94.1 14.75 94.2 14.85 94.45 15.2 94.55 15.35 94.7 15.45 94.8 15.6 94.9 15.75 95.0 15.9 95.1 16.0 95.25 16.15 95.35 16.3 95.45 16.45 95.55 16.55 95.65 16.7 95.75 16.85 95.85 17.0 95.95 17.15 96.05 17.3 96.15 17.45 96.15 17.45 96.15 17.45 96.15 17.45 96.2 17.45 96.2 17.45 96.2 17.45 96.25 17.45 96.35 17.45 96.4 17.5 96.45 17.5 96.5 17.55 96.55 17.55 96.6 17.6 96.6 17.65 96.65 17.7 96.7 17.75 96.7 17.75 96.75 17.85 96.75 17.9 96.8 17.95 96.8 18.0 96.8 18.05 96.85 18.35 96.85 18.7 96.85 19.0 96.8 19.3 96.75 19.6 96.7 19.9 96.6 20.2 96.55 20.55 96.45 20.8 96.35 21.15 96.3 21.35 96.15 21.75 96.0 22.2 95.95 22.3 95.85 22.65 95.75 22.9 95.55 23.75 95.45 24.15 95.45 24.2 95.45 24.3 95.45 24.3 95.45 24.35 95.45 24.4 95.45 24.4 95.45 24.45 95.45 24.45 95.4 24.5 95.4 24.55 95.4 24.6 95.4 24.6 95.4 25.05 95.4 25.25 95.4 25.35 95.4 25.4 95.4 25.45 95.4 25.45 95.4 25.45 95.45 25.5 95.45 25.55 95.45 25.6 95.45 25.65 95.45 25.7 95.45 25.7 95.5 25.75 95.5 25.8 95.5 25.85 95.5 25.9 95.55 25.9 95.55 25.95 95.55 26.0 95.55 26.05 95.6 26.15 95.6 26.2 95.65 26.2 95.65 26.25 95.65 26.25 95.65 26.3 95.7 26.35 95.7 26.4 95.75 26.45 95.75 26.45 95.75 26.5 95.8 26.55 95.8 26.6 95.8 26.65 95.85 26.7 96.1 27.25 96.8 28.35 97.45 29.45 97.75 30.05 97.85 30.25 97.95 30.5 98.05 30.7 98.1 30.9 98.15 31.15 98.2 31.4 98.25 31.6 98.25 31.85 98.3 32.1 98.25 32.3 98.25 32.55 98.2 32.75 98.1 32.95 98.0 33.15 97.85 33.35 97.7 33.55 97.65 33.6 97.6 33.65 97.5 33.7 97.45 33.8 97.4 33.85 97.3 33.9 97.25 33.95 97.2 34.0 97.1 34.05 97.05 34.1 96.95 34.1 96.9 34.15 96.85 34.2 96.75 34.25 96.7 34.3 96.6 34.35 96.55 34.4 96.35 34.55 96.15 34.65 96.05 34.7 96.05 34.75 95.95 34.8 95.95 34.8 95.85 34.85 95.8 34.9 95.7 35.0 95.65 35.05 95.65 35.05 95.6 35.1 95.55 35.15 95.5 35.15 95.5 35.2 95.45 35.25 95.45 35.25 95.4 35.3 95.35 35.35 95.35 35.35 95.3 35.4 95.25 35.45 95.25 35.5 95.2 35.5 95.2 35.55 95.2 35.55 95.15 35.6 95.1 35.65 95.05 35.7 95.0 35.8 94.85 36.05 94.25 37.0 94.05 37.2 94.05 37.3 94.05 37.4 94.05 37.5 94.0 37.55 94.0 37.65 94.0 37.75 94.0 37.85 94.0 37.95 94.0 38.05 94.0 38.1 94.0 38.2 94.0 38.3 94.0 38.4 94.0 38.5 94.0 38.6 94.0 38.65 94.0 38.7 94.05 39.05 94.05 39.05 94.05 39.1 94.05 39.1 94.05 39.1 94.05 39.15 94.05 39.2 94.05 39.25 94.05 39.3 94.1 39.3 94.1 39.35 94.1 39.4 94.1 39.45 94.1 39.5 94.15 39.55 94.15 39.6 94.15 39.65 94.15 39.7 94.2 39.75 94.2 39.8 94.2 39.85 94.2 39.9 94.25 39.95 94.25 40.0 94.25 40.05 94.25 40.1 94.3 40.15 94.3 40.2 94.35 40.25 94.35 40.35 94.35 40.4 94.4 40.45 94.4 40.5 94.4 40.55 94.45 40.65 94.45 40.7 94.5 40.75 94.5 40.8 94.5 40.85 94.55 40.95 94.55 41.0 94.55 41.05 94.6 41.1 94.6 41.15 94.9 42.95 94.9 42.9 94.95 43.3 94.95 43.45 94.95 43.5 94.95 43.6 94.95 43.65 94.95 43.7 94.95 43.75 94.95 43.8 94.95 43.85 94.9 43.95 94.8 44.05 94.7 44.1 94.55 44.2 94.45 44.25 94.3 44.3 94.15 44.3 94.0 44.35 93.85 44.35 93.7 44.35 93.6 44.35 93.5 44.35 93.4 44.35 93.3 44.35 93.25 44.35 93.2 44.35 93.1 44.35 93.0 44.35 92.95 44.3 92.85 44.3 92.75 44.3 92.7 44.25 92.6 44.25 92.55 44.2 92.45 44.2 92.4 44.15 92.35 44.15 92.25 44.15 92.2 44.1 92.15 44.1 92.1 44.05 92.05 44.05 92.05 44.0 92.0 43.95 91.95 43.9 91.95 43.85 91.9 43.8 91.85 43.75 91.8 43.65 91.75 43.6 91.7 43.55 91.65 43.5 91.6 43.4 91.55 43.35 91.5 43.3 91.4 43.25 91.35 43.15 91.3 43.1 91.15 43.0 91.05 42.9 90.95 42.85 90.8 42.75 90.7 42.7 90.6 42.65 90.5 42.6 90.35 42.55 89.05 42.0 90.1 42.45 90.0 42.4 89.9 42.35 89.75 42.3 89.6 42.2 89.45 42.15 89.35 42.05 89.25 42.0 89.1 41.9 89.0 41.85 88.9 41.75 88.8 41.7 88.7 41.6 88.6 41.5 88.5 41.45 88.35 41.35 88.3 41.25 88.2 41.15 88.1 41.05 88.0 40.95 87.95 40.85 87.85 40.75 87.8 40.6 87.7 40.45 87.65 40.35 87.6 40.2 87.55 40.05 87.5 39.9 87.45 39.75 87.4 39.6 87.35 39.45 87.35 39.3 87.3 39.15 87.3 39.0 87.25 38.85 87.3 38.9 87.2 38.5 87.2 38.35 87.2 38.2 87.15 38.1 87.15 37.9 87.1 37.7 87.05 37.6 87.05 37.55 87.05 37.55 87.0 37.5 87.0 37.45 87.0 37.4 87.0 37.35 87.0 37.35 86.95 37.3 86.95 37.25 86.9 37.2 86.9 37.2 86.9 37.15 86.9 37.1 86.85 37.05 86.8 36.95 86.75 36.9 86.75 36.9 86.7 36.85 86.75 36.9 86.6 36.75 86.6 36.7 86.55 36.7 86.55 36.65 86.5 36.6 86.45 36.55 86.45 36.55 86.4 36.5 86.4 36.45 86.35 36.45 86.35 36.4 86.3 36.4 86.25 36.35 86.25 36.3 86.2 36.3 86.2 36.25 86.15 36.2 86.1 36.15 85.9 36.0 85.85 35.95 85.75 35.9 85.75 35.85 85.7 35.85 85.7 35.8 85.65 35.8 85.65 35.8 85.6 35.75 85.6 35.75 85.55 35.7 85.5 35.7 85.4 35.6 85.3 35.5 85.1 35.4 85.05 35.35 85.05 35.35 85.0 35.3 84.95 35.3 84.9 35.25 84.9 35.25 84.85 35.25 84.8 35.2 84.75 35.2 84.75 35.15 84.7 35.15 84.65 35.1 84.6 35.1 84.55 35.05 84.55 35.05 84.5 35.05 84.45 35.0 84.4 35.0 84.4 34.95 84.35 34.95 84.3 34.95 84.25 34.9 84.25 34.9 84.2 34.9 84.2 34.9 84.1 34.85 84.1 34.85 84.15 34.85 84.1 34.85 84.0 34.8 83.95 34.8 83.9 34.75 83.9 34.75 83.85 34.75 83.8 34.7 83.75 34.7 83.75 34.7 83.7 34.7 83.65 34.65 83.6 34.65 83.55 34.65 83.55 34.65 83.5 34.65 83.45 34.6 83.4 34.6 83.35 34.6 83.3 34.6 83.25 34.55 83.2 34.55 83.15 34.5 83.1 34.45 83.1 34.4 83.05 34.35 83.0 34.3 83.0 34.25 82.95 34.2 82.95 34.15 82.95 34.1 82.95 34.05 82.95 33.95 82.95 33.9 82.95 33.85 82.9 33.8 82.9 33.75 82.9 33.7 82.85 33.7 82.85 33.65 82.85 33.6 82.85 33.55 82.85 33.5 82.9 33.15 82.9 32.85 82.95 32.45 83.0 32.15 83.0 31.8 83.05 31.5 83.05 31.15 83.05 30.8 83.1 30.45 83.1 30.15 83.1 29.8 83.1 29.45 83.1 29.1 83.1 28.8 83.05 28.45 83.05 28.1 83.05 28.05 83.0 27.8 83.0 27.75 83.0 27.7 83.0 27.65 83.0 27.6 82.9 27.15 82.85 27.0 82.85 26.95 82.85 26.95 82.85 26.9 82.8 26.85 82.8 26.8 82.8 26.8 82.8 26.75 82.8 26.7 82.75 26.7 82.75 26.65 82.75 26.6 82.75 26.6 82.75 26.55 82.7 26.5 82.7 26.5 82.7 26.45 82.7 26.45 82.65 26.35 82.7 26.4 82.65 26.3 82.6 26.2 82.5 26.0 82.25 25.5 81.3 23.9 81.2 23.75 81.1 23.6 81.05 23.45 80.95 23.3 80.85 23.15 80.8 23.0 80.7 22.85 80.6 22.7 80.55 22.55 80.45 22.4 80.4 22.2 80.35 22.05 80.25 21.9 80.2 21.75 80.15 21.55 80.1 21.4 80.1 21.35 80.1 21.35 80.1 21.3 80.1 21.25 80.1 21.25 80.1 21.2 80.1 21.15 80.1 21.15 80.1 21.1 80.1 21.05 80.15 21.05 80.15 21.0 80.15 20.95 80.15 20.95 80.2 20.9 80.2 20.85 80.2 20.65 80.25 20.45 80.25 20.25 80.3 20.05 80.35 19.8 80.35 19.6 80.4 19.4 80.45 19.2 80.5 19.0 80.55 18.8 80.6 18.6 80.65 18.4 80.7 18.2 80.75 17.95 80.8 17.8 80.85 17.55 80.95 17.1 81.25 16.05 81.25 15.95 81.25 15.8 81.2 15.65 81.2 15.55 81.15 14.95 81.15 14.8 81.15 14.9 81.15 14.85 81.1 14.75 81.1 14.7 81.1 14.65 81.1 14.6 81.1 14.6 81.1 14.55 81.1 14.45 81.05 14.15 80.85 13.2 80.75 12.95 80.75 12.9 80.75 12.85 80.7 12.8 80.7 12.75 80.7 12.7 80.7 12.65 80.65 12.6 80.65 12.55 80.65 12.5 80.6 12.5 80.6 12.45 80.6 12.4 80.55 12.35 80.55 12.3 80.55 12.25 80.5 12.2 80.5 12.2 80.5 12.1 80.45 12.05 80.45 12.05 80.45 12.0 80.4 11.9 80.3 11.7 80.2 11.45 80.15 11.35 80.1 11.25 80.05 11.15 80.05 11.05 80.0 10.95 79.95 10.85 79.9 10.75 79.9 10.65 79.85 10.55 79.8 10.45 79.8 10.35 79.75 10.25 79.75 10.15 79.75 10.05 79.7 9.9 79.7 9.8 79.65 9.3 79.95 7.6 79.95 7.55 79.95 7.45 79.95 7.45 79.95 7.4 79.95 7.35 80.0 7.3 80.0 7.3 80.0 7.25 80.0 7.2 80.0 7.15 80.0 7.1 80.0 7.1 80.0 7.05 80.0 7.0 80.0 7.0 80.0 6.95 80.0 6.9 80.0 6.9 80.0 6.85 80.0 6.8 80.0 6.75 80.0 6.75 80.05 6.7 80.05 6.65 80.05 6.6 80.05 6.6 80.0 5.9 79.95 5.4 79.95 5.35 79.95 5.35 79.95 5.3 79.95 5.25 79.95 5.2 79.95 5.15 79.95 5.15 79.95 5.1 79.95 5.05 79.9 5.0 79.9 5.0 79.9 4.9 79.85 4.65 79.8 4.3 79.8 4.25 79.75 4.15 79.75 4.1 79.75 4.05 79.75 3.95 79.7 3.9 79.7 3.8 79.7 3.75 79.65 3.7 79.65 3.6 79.65 3.55 79.6 3.5 79.6 3.4 79.6 3.35 79.55 3.3 79.55 3.2 79.3 2.5 79.2 2.15 79.15 2.05 79.0 1.7 79.0 1.65 78.95 1.55 78.9 1.45 78.8 1.25 78.35 0.25 77.9 -0.8 77.8 -1.0 77.75 -1.1 77.65 -1.25 77.6 -1.4 77.55 -1.55 77.5 -1.65 77.4 -1.8 77.35 -1.9 77.3 -2.05 77.2 -2.15 77.15 -2.25 77.05 -2.35 77.0 -2.5 76.9 -2.6 76.85 -2.7 76.75 -2.85 76.55 -3.1 76.4 -3.3 76.85 -4.2 77.15 -4.65 77.2 -4.65 77.4 -4.95 77.45 -5.0 77.5 -5.1 77.5 -5.1 77.55 -5.15 77.55 -5.15 77.55 -5.15 77.6 -5.2 77.6 -5.25 77.65 -5.3 77.65 -5.3 77.7 -5.35 77.7 -5.4 77.75 -5.45 77.75 -5.5 77.8 -5.55 77.85 -5.6 77.85 -5.65 77.9 -5.7 77.9 -5.75 77.95 -5.8 77.95 -5.85 77.95 -5.9 77.95 -5.9 78.0 -5.9 78.0 -5.95 78.0 -6.0 78.0 -6.0 78.05 -6.05 78.05 -6.15 78.1 -6.35 78.1 -6.4 78.15 -6.4 78.15 -6.45 78.15 -6.5 78.15 -6.5 78.15 -6.55 78.2 -6.6 78.2 -6.6 78.2 -6.65 78.2 -6.7 78.2 -6.7 78.25 -6.75 78.25 -6.8 78.25 -6.8 78.25 -6.85 78.25 -6.9 78.3 -7.0 78.3 -7.2 78.3 -7.2 78.3 -7.2 78.3 -7.2 78.3 -7.25 78.3 -7.3 78.3 -7.35 78.3 -7.4 78.3 -7.45 78.3 -7.45 78.3 -7.5 78.35 -7.55 78.35 -7.6 78.35 -7.65 78.35 -7.65 78.35 -7.7 78.35 -7.75 78.35 -7.8 78.35 -7.8 78.35 -7.85 78.35 -7.9 78.35 -7.95 78.35 -8.0 78.35 -8.05 78.35 -8.05 78.35 -8.1 78.35 -8.1 78.35 -8.15 78.35 -8.2 78.35 -8.2 78.35 -8.25 78.35 -8.3 78.35 -8.3 78.35 -8.35 78.35 -8.4 78.35 -8.4 78.35 -8.45 78.35 -8.5 78.35 -8.5 78.35 -8.6 78.3 -8.8 78.3 -8.85 78.3 -8.85 78.3 -8.9 78.3 -8.95 78.3 -8.95 78.3 -9.0 78.3 -9.05 78.3 -9.05 78.3 -9.1 78.3 -9.15 78.25 -9.15 78.25 -9.15 78.25 -9.2 78.25 -9.2 78.25 -9.25 78.25 -9.3 78.25 -9.35 78.25 -9.4 78.2 -9.5 78.2 -9.55 78.2 -9.8 78.1 -10.15 78.1 -10.25 78.05 -10.3 78.05 -10.4 78.05 -10.45 78.0 -10.55 78.0 -10.6 78.0 -10.65 77.95 -10.75 77.95 -10.8 77.9 -10.9 77.9 -10.95 77.9 -11.05 77.85 -11.1 77.85 -11.2 77.8 -11.25 77.8 -11.35 77.75 -11.45 77.6 -11.9 77.6 -11.9 77.5 -12.15 77.5 -12.2 77.45 -12.3 77.45 -12.3 77.45 -12.35 77.4 -12.35 77.4 -12.4 77.4 -12.4 76.95 -13.25 76.5 -14.2 76.35 -14.55 76.25 -14.75 76.15 -15.0 76.1 -15.15 76.05 -15.35 76.0 -15.5 75.95 -15.65 75.95 -15.8 75.9 -15.9 75.9 -16.0 75.9 -16.1 75.9 -16.2 75.9 -16.25 75.9 -16.3 75.95 -16.35 75.95 -16.35 75.95 -16.35 L75.95 -16.35" fill="#6fade5" fill-rule="evenodd" stroke="none"/>
  </g>
</svg>
