<?xml version="1.0" encoding="UTF-8" standalone="no"?>
<svg xmlns:xlink="http://www.w3.org/1999/xlink" height="116.2px" width="218.25px" xmlns="http://www.w3.org/2000/svg">
  <g transform="matrix(1.0, 0.0, 0.0, 1.0, 109.1, 58.1)">
    <path d="M-39.55 -44.3 Q-40.3 -45.25 -40.6 -45.7 -41.2 -46.85 -41.2 -46.85 -41.85 -47.9 -43.45 -50.0 -46.65 -54.25 -47.35 -54.8 -47.8 -55.2 -48.35 -55.55 -48.85 -55.85 -49.35 -56.1 -49.85 -56.35 -50.35 -56.55 -50.85 -56.75 -51.35 -56.9 -51.8 -57.05 -52.3 -57.15 -52.75 -57.25 -53.2 -57.35 -53.6 -57.4 -54.05 -57.5 -54.3 -57.5 -54.8 -57.6 -56.35 -57.8 -57.95 -57.7 -59.4 -57.65 -60.95 -57.35 -62.35 -57.1 -63.8 -56.65 -65.1 -56.25 -66.4 -55.7 -67.55 -55.2 -68.65 -54.65 -69.65 -54.15 -70.55 -53.6 -71.3 -53.15 -72.0 -52.7 -72.5 -52.4 -72.95 -52.05 -73.25 -51.95 -73.5 -51.8 -73.8 -51.65 -74.15 -51.5 -74.5 -51.3 -74.85 -51.05 -75.2 -50.85 -75.6 -50.6 -76.0 -50.3 -76.4 -50.0 -76.8 -49.7 -77.2 -49.35 -77.6 -48.95 -78.0 -48.55 -78.4 -48.1 -78.8 -47.65 -79.1 -47.3 -79.35 -46.95 -79.6 -46.6 -79.8 -46.25 -80.05 -45.9 -80.25 -45.6 -80.4 -45.25 -80.6 -44.9 -80.75 -44.6 -80.9 -44.3 -81.05 -44.0 -81.15 -43.7 -81.25 -43.45 -81.35 -43.15 -81.45 -42.9 -81.55 -42.65 -81.3 -42.8 -81.05 -42.9 -80.75 -43.05 -80.5 -43.15 -80.2 -43.3 -79.9 -43.4 -79.6 -43.55 -79.25 -43.65 -78.9 -43.8 -78.6 -43.9 -78.25 -44.0 -77.85 -44.1 -77.5 -44.2 -77.1 -44.3 -76.75 -44.4 -76.35 -44.5 -76.1 -44.55 -75.9 -44.6 -75.65 -44.65 -75.45 -44.65 -75.2 -44.7 -75.0 -44.75 -74.75 -44.75 -74.55 -44.8 -74.35 -44.8 -74.15 -44.85 -73.95 -44.85 -73.75 -44.85 -73.55 -44.85 -73.35 -44.9 -73.15 -44.9 -72.95 -44.9 -74.75 -42.6 -75.6 -41.55 -80.9 -34.95 -76.45 -40.5 -76.9 -39.95 -77.15 -39.6 -77.5 -39.15 -77.75 -38.8 -78.05 -38.45 -78.25 -38.15 -78.45 -37.8 -78.65 -37.5 -78.8 -37.2 -78.95 -36.95 -79.1 -36.65 -79.2 -36.35 -79.3 -36.05 -79.4 -35.7 -79.45 -35.5 -79.5 -35.3 -79.55 -35.1 -79.6 -34.9 -79.6 -34.75 -79.65 -34.55 -79.65 -34.35 -79.65 -34.2 -79.7 -34.05 -79.7 -33.85 -79.7 -33.7 -79.7 -33.55 -79.7 -33.45 -79.7 -33.3 -79.7 -33.2 -79.7 -33.05 -79.55 -33.2 -79.4 -33.3 -79.25 -33.45 -79.05 -33.55 -78.9 -33.7 -78.75 -33.85 -78.55 -33.95 -78.35 -34.1 -78.2 -34.2 -78.0 -34.35 -77.8 -34.5 -77.6 -34.6 -77.4 -34.75 -77.2 -34.85 -76.95 -35.0 -76.75 -35.1 -76.2 -35.4 -75.6 -35.7 -75.05 -35.95 -74.45 -36.15 -73.9 -36.35 -73.35 -36.55 -72.85 -36.7 -72.3 -36.8 -71.8 -36.95 -71.3 -37.05 -70.85 -37.15 -70.4 -37.2 -69.95 -37.25 -69.55 -37.3 -69.15 -37.3 -68.8 -37.35 -68.8 -37.25 -68.75 -37.2 -68.75 -37.1 -68.75 -37.0 -68.7 -36.9 -68.7 -36.8 -68.7 -36.65 -68.7 -36.55 -68.7 -36.45 -68.7 -36.3 -68.7 -36.2 -68.7 -36.05 -68.7 -35.95 -68.75 -35.8 -68.75 -35.65 -68.8 -35.5 -68.8 -35.4 -68.85 -35.3 -68.85 -35.25 -68.85 -35.15 -68.9 -35.05 -68.9 -35.0 -68.95 -34.9 -68.95 -34.8 -69.0 -34.75 -69.0 -34.65 -69.05 -34.6 -69.05 -34.55 -69.1 -34.45 -69.15 -34.4 -69.15 -34.35 -69.2 -34.3 -69.35 -34.3 -69.45 -34.25 -69.6 -34.25 -69.75 -34.2 -69.95 -34.15 -70.1 -34.15 -70.25 -34.1 -70.4 -34.05 -70.6 -34.05 -70.75 -34.0 -70.95 -33.95 -71.15 -33.9 -71.35 -33.85 -71.55 -33.8 -71.75 -33.75 -71.95 -33.65 -71.95 -33.65 -72.1 -33.6 -72.3 -33.55 -72.55 -33.45 -72.9 -33.3 -73.25 -33.15 -73.7 -32.95 -74.1 -32.75 -74.65 -32.5 -75.15 -32.25 -75.7 -31.9 -76.2 -31.6 -76.8 -31.2 -77.3 -30.8 -77.9 -30.35 -78.4 -29.9 -79.3 -29.05 -80.0 -28.05 -80.65 -27.1 -81.2 -26.05 -81.7 -25.1 -82.05 -24.0 -82.4 -23.05 -82.6 -22.05 -82.85 -21.15 -82.95 -20.25 -83.05 -19.5 -83.1 -18.75 -83.15 -18.15 -83.2 -17.65 -83.2 -17.3 -83.2 -17.0 -83.55 -16.85 -83.9 -16.7 -84.2 -16.5 -84.55 -16.35 -84.85 -16.2 -85.15 -16.05 -85.45 -15.9 -85.75 -15.7 -86.0 -15.55 -86.3 -15.4 -86.55 -15.25 -86.8 -15.1 -87.0 -15.0 -87.25 -14.85 -87.45 -14.7 -87.65 -14.55 -88.2 -14.2 -88.5 -14.0 -88.9 -13.75 -89.25 -13.55 -89.6 -13.3 -89.9 -13.1 -90.2 -12.85 -90.45 -12.65 -90.7 -12.45 -90.9 -12.25 -91.15 -12.0 -91.35 -11.8 -91.5 -11.55 -91.65 -11.3 -91.85 -11.05 -91.95 -10.8 -92.05 -10.55 -92.15 -10.3 -92.25 -10.05 -92.3 -9.85 -92.35 -9.6 -92.4 -9.35 -92.4 -9.1 -92.45 -8.85 -92.45 -8.6 -92.45 -8.3 -92.45 -8.05 -92.45 -7.75 -92.4 -7.55 -92.4 -7.1 -92.4 -6.65 -92.35 -6.4 -92.35 -6.0 -92.35 -5.6 -92.3 -5.2 -92.3 -4.75 -92.3 -4.3 -92.3 -3.8 -92.35 -3.3 -92.35 -2.8 -92.35 -2.25 -92.4 -1.7 -92.4 -1.15 -92.45 -0.55 -92.5 0.05 -92.55 0.65 -92.6 1.3 -92.65 1.95 -92.85 2.1 -93.0 2.25 -93.25 2.4 -93.45 2.55 -93.65 2.75 -93.9 2.95 -94.1 3.15 -94.35 3.4 -94.6 3.65 -94.85 3.9 -95.1 4.2 -95.3 4.5 -95.55 4.8 -95.8 5.15 -96.05 5.5 -96.25 5.85 -96.35 6.0 -96.4 6.15 -96.5 6.3 -96.6 6.5 -96.75 6.75 -96.85 7.0 -97.0 7.3 -97.1 7.6 -97.25 7.95 -97.4 8.3 -97.5 8.7 -97.6 9.1 -97.75 9.55 -97.85 10.0 -97.9 10.5 -98.0 10.95 -98.05 11.45 -98.1 11.95 -98.1 12.4 -98.1 12.9 -98.1 13.35 -98.05 13.75 -98.0 14.2 -97.95 14.6 -97.9 14.95 -97.85 15.35 -97.75 15.65 -97.7 16.0 -97.6 16.3 -97.55 16.6 -97.45 16.85 -97.35 17.1 -97.65 17.4 -97.95 17.7 -98.2 18.0 -98.5 18.3 -98.75 18.55 -98.95 18.85 -99.15 19.15 -99.35 19.45 -99.55 19.7 -99.75 19.95 -99.9 20.2 -100.05 20.45 -100.2 20.7 -100.3 20.95 -100.45 21.15 -100.55 21.4 -100.75 21.8 -100.85 22.05 -101.1 22.5 -101.25 22.9 -101.45 23.4 -101.65 23.9 -101.85 24.45 -102.0 25.0 -102.15 25.6 -102.2 26.2 -102.3 26.85 -102.3 27.45 -102.3 28.15 -102.2 28.75 -102.1 29.45 -101.85 30.05 -101.5 30.95 -100.05 33.35 -99.9 33.55 -99.8 33.75 -99.65 33.95 -99.5 34.15 -99.4 34.35 -99.25 34.5 -99.15 34.7 -99.0 34.85 -98.9 35.0 -98.8 35.15 -98.7 35.3 -98.6 35.45 -98.45 35.6 -98.35 35.75 -98.3 35.85 -98.2 36.0 -98.3 36.2 -98.45 36.45 -98.55 36.7 -98.7 36.95 -98.85 37.25 -98.95 37.55 -99.1 37.9 -99.2 38.2 -99.35 38.6 -99.45 38.95 -99.55 39.35 -99.65 39.8 -99.75 40.2 -99.8 40.65 -99.9 41.15 -99.95 41.6 -100.0 42.1 -99.95 42.0 -100.0 42.25 -100.0 42.5 -100.0 42.8 -100.0 43.05 -100.0 43.4 -99.95 43.7 -99.95 44.05 -99.9 44.35 -99.85 44.75 -99.75 45.1 -99.7 45.45 -99.6 45.85 -99.45 46.25 -99.3 46.6 -99.0 47.35 -98.55 48.05 -98.15 48.65 -97.65 49.2 -97.15 49.75 -96.6 50.2 -96.1 50.6 -95.5 50.95 -95.0 51.3 -94.5 51.55 -94.05 51.8 -93.55 52.0 -93.2 52.15 -92.85 52.25 -92.6 52.35 -92.35 52.4 -92.3 52.65 -92.2 52.95 -92.15 53.15 -92.05 53.4 -92.0 53.65 -91.9 53.85 -91.85 54.05 -91.75 54.25 -91.65 54.45 -91.55 54.65 -91.45 54.8 -91.4 54.95 -91.3 55.1 -91.2 55.25 -91.1 55.35 -91.05 55.5 -90.9 55.75 -90.8 55.85 -90.65 56.05 -90.5 56.25 -90.3 56.5 -90.1 56.7 -89.9 56.95 -89.65 57.15 -89.4 57.4 -89.1 57.6 -88.8 57.85 -88.5 58.05 -88.15 58.25 -87.75 58.35 -87.35 58.55 -86.95 58.6 -86.75 58.65 -86.6 58.7 -86.4 58.7 -86.2 58.7 -86.05 58.75 -85.9 58.75 -85.7 58.75 -85.55 58.75 -85.4 58.75 -85.25 58.75 -85.1 58.7 -85.0 58.7 -84.85 58.7 -84.75 58.65 -84.6 58.65 -84.5 58.6 -84.25 58.6 -83.2 58.6 -82.2 58.6 -81.45 58.6 -77.9 58.7 -77.25 58.6 -77.1 58.6 -76.95 58.55 -76.75 58.55 -76.6 58.55 -76.4 58.5 -76.2 58.45 -76.0 58.45 -75.8 58.4 -75.6 58.35 -75.35 58.3 -75.1 58.25 -74.9 58.15 -74.65 58.1 -74.4 58.0 -74.15 57.95 -73.9 57.85 -73.8 57.85 -73.7 57.9 -73.6 57.9 -73.5 57.9 -73.4 57.95 -73.3 57.95 -73.2 57.95 -73.1 57.95 -72.95 57.95 -72.85 57.95 -72.75 57.95 -72.6 57.9 -72.5 57.9 -72.4 57.85 -72.25 57.8 -72.15 57.75 -72.05 57.7 -71.95 57.65 -71.9 57.55 -71.8 57.5 -71.7 57.4 -71.6 57.25 -71.55 57.15 -71.45 56.95 -71.35 56.8 -71.25 56.55 -71.15 56.35 -71.05 56.05 -70.95 55.75 -70.85 55.4 -70.75 55.0 -70.6 54.55 -70.55 54.4 -70.5 54.25 -70.5 54.05 -70.45 53.9 -70.4 53.75 -70.35 53.55 -70.3 53.35 -70.25 53.15 -70.2 52.95 -70.15 52.75 -70.15 52.55 -70.1 52.35 -70.05 52.1 -70.0 51.9 -69.95 51.65 -69.9 51.4 -69.8 51.35 -69.7 51.3 -69.55 51.25 -69.45 51.2 -69.3 51.15 -69.2 51.1 -69.05 51.0 -68.9 50.95 -68.8 50.85 -68.65 50.8 -68.5 50.7 -68.35 50.65 -68.2 50.55 -68.05 50.45 -67.9 50.4 -67.75 50.3 -67.8 50.35 -67.5 50.15 -67.35 50.05 -67.25 49.95 -67.1 49.85 -67.0 49.75 -66.8 49.65 -66.7 49.55 -66.5 49.45 -66.35 49.3 -66.2 49.2 -66.05 49.05 -65.9 48.9 -65.75 48.75 -65.55 48.6 -65.4 48.45 -65.3 48.3 -65.2 48.25 -65.1 48.15 -65.0 48.0 -64.85 47.85 -64.7 47.65 -64.55 47.5 -64.45 47.3 -64.25 47.05 -64.1 46.8 -63.95 46.55 -63.8 46.3 -63.65 46.0 -63.5 45.7 -63.4 45.4 -63.25 45.05 -63.1 44.6 -62.95 44.1 -62.85 43.65 -62.8 43.15 -62.75 42.7 -62.75 42.25 -62.75 41.85 -62.8 41.45 -62.85 41.1 -62.9 40.7 -62.95 40.4 -63.0 40.1 -63.05 39.8 -63.15 39.55 -63.2 39.35 -63.25 39.15 -63.15 39.15 -63.1 39.15 -63.0 39.1 -62.9 39.1 -62.8 39.1 -62.7 39.05 -62.6 39.05 -62.5 39.0 -62.4 38.95 -62.3 38.9 -62.15 38.85 -62.05 38.8 -61.95 38.75 -61.85 38.7 -61.75 38.6 -61.65 38.55 -61.5 38.45 -61.4 38.3 -61.25 38.2 -61.15 38.05 -61.05 37.9 -60.95 37.75 -60.9 37.6 -60.8 37.45 -60.75 37.3 -60.7 37.15 -60.65 37.0 -60.6 36.85 -60.55 36.7 -60.5 36.5 -60.45 36.45 -60.4 36.2 -60.25 35.55 -60.1 35.05 -59.95 34.55 -59.8 34.2 -59.7 33.85 -59.6 33.6 -59.55 33.4 -59.45 33.15 -59.35 32.9 -59.3 32.85 -59.25 32.7 -59.25 32.55 -59.2 32.4 -59.15 32.25 -59.1 32.05 -59.05 31.8 -59.0 31.3 -58.95 30.8 -58.95 30.3 -58.95 29.85 -59.0 29.35 -59.05 28.9 -59.1 28.45 -59.15 28.05 -59.25 27.65 -59.35 27.2 -59.4 26.85 -59.55 26.45 -59.65 26.1 -59.75 25.8 -59.85 25.45 -60.0 25.15 -59.9 25.1 -59.8 25.05 -59.7 25.0 -59.6 24.9 -59.5 24.85 -59.4 24.75 -59.3 24.7 -59.2 24.6 -59.1 24.5 -58.95 24.4 -58.85 24.3 -58.75 24.2 -58.6 24.1 -58.5 24.0 -58.35 23.85 -58.25 23.75 -58.25 23.75 -58.2 23.7 -58.05 23.5 -58.1 23.55 -58.0 23.4 -57.9 23.3 -57.8 23.15 -57.65 22.95 -57.55 22.75 -57.4 22.55 -57.25 22.3 -57.15 22.1 -57.0 21.8 -56.85 21.55 -56.75 21.25 -56.6 20.95 -56.45 20.55 -56.35 20.1 -56.3 19.65 -56.25 19.15 -56.2 18.6 -56.25 18.05 -56.25 17.45 -56.35 16.8 -56.4 16.2 -56.55 15.5 -56.7 14.85 -56.9 14.15 -57.15 13.45 -57.4 12.75 -57.7 12.0 -58.05 11.25 -58.0 11.15 -57.95 11.05 -57.95 11.0 -57.9 10.9 -57.85 10.75 -57.8 10.65 -57.75 10.55 -57.7 10.45 -57.65 10.3 -57.6 10.15 -57.5 10.05 -57.45 9.9 -57.4 9.75 -57.35 9.6 -57.3 9.5 -57.25 9.35 -57.0 8.75 -56.9 8.45 -56.7 8.0 -56.6 7.65 -56.45 7.2 -56.3 6.85 -56.15 6.5 -56.05 6.15 -55.95 5.8 -55.85 5.45 -55.75 5.1 -55.7 4.8 -55.6 4.45 -55.55 4.15 -55.5 3.8 -55.5 3.5 -55.5 3.3 -55.5 3.05 -55.5 2.8 -55.5 2.5 -55.5 2.2 -55.55 1.9 -55.6 1.5 -55.65 1.15 -55.75 0.75 -55.85 0.35 -56.0 -0.05 -56.15 -0.5 -56.35 -0.95 -56.6 -1.45 -56.85 -1.95 -57.15 -2.4 -57.05 -2.5 -56.95 -2.55 -56.85 -2.65 -56.75 -2.75 -56.65 -2.85 -56.55 -2.95 -56.45 -3.05 -56.3 -3.15 -56.2 -3.25 -56.1 -3.35 -56.0 -3.5 -55.85 -3.6 -55.75 -3.75 -55.65 -3.9 -55.5 -4.0 -55.4 -4.15 -55.3 -4.25 -55.25 -4.35 -55.15 -4.5 -55.05 -4.65 -54.9 -4.8 -54.8 -4.95 -54.65 -5.15 -54.55 -5.35 -54.4 -5.6 -54.25 -5.8 -54.1 -6.05 -54.0 -6.35 -53.85 -6.6 -53.7 -6.9 -53.6 -7.2 -53.45 -7.5 -53.25 -8.05 -53.1 -8.6 -52.95 -9.1 -52.85 -9.6 -52.75 -10.1 -52.7 -10.6 -52.65 -11.05 -52.65 -11.5 -52.6 -11.9 -52.6 -12.3 -52.6 -12.6 -52.65 -12.95 -52.65 -13.25 -52.7 -13.55 -52.7 -13.75 -52.75 -13.95 -52.8 -14.2 -52.85 -14.4 -52.85 -14.65 -52.9 -14.85 -52.95 -15.05 -53.0 -15.25 -53.05 -15.45 -53.1 -15.65 -53.15 -15.85 -53.25 -16.0 -53.3 -16.2 -53.35 -16.35 -53.4 -16.5 -53.45 -16.65 -53.5 -16.8 -53.55 -16.9 -53.5 -16.95 -53.45 -17.0 -53.35 -17.05 -53.3 -17.1 -53.2 -17.2 -53.15 -17.25 -53.05 -17.35 -53.0 -17.4 -52.9 -17.5 -52.85 -17.55 -52.75 -17.65 -52.65 -17.75 -52.6 -17.85 -52.5 -17.95 -52.4 -18.05 -52.35 -18.15 -52.15 -18.4 -52.0 -18.65 -51.85 -18.9 -51.75 -19.15 -51.65 -19.4 -51.55 -19.7 -51.5 -19.95 -51.4 -20.25 -51.35 -20.5 -51.3 -20.8 -51.25 -21.05 -51.2 -21.4 -51.2 -21.5 -51.1 -22.05 -51.05 -22.45 -51.0 -22.75 -50.95 -22.95 -50.95 -23.15 -50.9 -23.4 -50.85 -23.65 -50.8 -23.9 -50.75 -24.15 -50.7 -24.4 -50.65 -24.7 -50.6 -25.0 -50.5 -25.25 -50.45 -25.6 -50.35 -25.9 -50.25 -26.2 -50.2 -26.55 -50.1 -26.9 -50.0 -27.25 -49.85 -27.3 -49.75 -27.35 -49.6 -27.45 -49.45 -27.5 -49.3 -27.6 -49.2 -27.65 -49.0 -27.75 -48.85 -27.85 -48.7 -27.95 -48.55 -28.05 -48.4 -28.15 -48.2 -28.25 -48.05 -28.35 -47.9 -28.5 -47.7 -28.65 -47.55 -28.75 -47.45 -28.85 -47.35 -28.95 -47.2 -29.05 -47.1 -29.15 -46.95 -29.3 -46.8 -29.45 -46.65 -29.6 -46.45 -29.75 -46.3 -29.95 -46.1 -30.15 -45.9 -30.4 -45.75 -30.65 -45.5 -30.9 -45.3 -31.2 -45.1 -31.5 -44.9 -31.85 -44.75 -32.1 -44.55 -32.35 -44.4 -32.65 -44.2 -32.95 -44.0 -33.3 -43.85 -33.6 -43.65 -34.0 -43.45 -34.35 -43.25 -34.75 -43.05 -35.2 -42.9 -35.65 -42.7 -36.1 -42.5 -36.6 -42.35 -37.1 -42.15 -37.6 -42.0 -38.15 -41.9 -38.2 -41.75 -38.2 -41.65 -38.25 -41.5 -38.3 -41.35 -38.35 -41.2 -38.4 -41.05 -38.45 -40.9 -38.55 -40.7 -38.6 -40.55 -38.7 -40.35 -38.8 -40.2 -38.9 -40.0 -39.0 -39.85 -39.1 -39.65 -39.25 -39.45 -39.4 -39.3 -39.5 -39.25 -39.55 -39.1 -39.65 -39.0 -39.75 -38.9 -39.85 -38.8 -39.95 -38.7 -40.05 -38.6 -40.15 -38.5 -40.3 -38.4 -40.4 -38.3 -40.55 -38.25 -40.65 -38.15 -40.8 -38.1 -40.95 -38.05 -41.1 -38.05 -41.25 -38.0 -41.45 -38.0 -41.65 -38.0 -41.8 -38.05 -42.0 -38.1 -42.2 -38.2 -42.4 -38.3 -42.55 -38.4 -42.75 -38.5 -42.95 -38.65 -43.15 -38.75 -43.3 -38.95 -43.5 -39.05 -43.65 -39.25 -43.9 -39.55 -44.3 -39.55 -44.3 L-39.55 -44.3 M-65.0 -14.85 Q-65.4 -14.25 -65.6 -13.9 -65.7 -13.75 -65.75 -13.65 -65.85 -13.5 -65.9 -13.35 -65.95 -13.25 -66.05 -13.1 -66.1 -12.95 -66.2 -12.85 -66.25 -12.7 -66.3 -12.55 -66.4 -12.4 -66.45 -12.3 -66.5 -12.15 -66.6 -12.0 -66.65 -11.85 -66.7 -11.75 -66.7 -11.7 -66.7 -11.7 -66.75 -11.7 -66.75 -11.65 -66.75 -11.6 -66.8 -11.5 -66.85 -11.35 -66.9 -11.25 -67.0 -10.9 -67.1 -10.7 -67.1 -10.6 -67.15 -10.55 -67.15 -10.45 -67.2 -10.4 -67.2 -10.3 -67.25 -10.25 -67.25 -10.15 -67.3 -10.1 -67.3 -10.0 -67.3 -9.95 -67.35 -9.85 -67.35 -9.8 -67.35 -9.7 -67.4 -9.65 -67.4 -9.55 -67.4 -9.5 -67.4 -9.45 -67.4 -9.4 -67.45 -9.4 -67.45 -9.35 -67.45 -9.3 -67.45 -9.25 -67.5 -9.25 -67.5 -9.2 -67.5 -9.15 -67.5 -9.1 -67.5 -9.1 -67.5 -9.05 -67.5 -9.0 -67.55 -8.95 -67.55 -8.9 -67.55 -8.9 -67.55 -8.85 -67.55 -8.8 -67.55 -8.75 -67.55 -8.7 -67.55 -8.7 -67.6 -8.65 -67.6 -8.6 -67.6 -8.55 -67.6 -8.55 -67.6 -8.5 -67.6 -8.5 -67.6 -8.4 -67.6 -8.4 -67.6 -8.35 -67.65 -8.3 -67.65 -8.3 -67.65 -8.25 -67.65 -8.2 -67.65 -8.2 -67.65 -8.15 -67.65 -8.15 -67.65 -7.85 -67.65 -7.8 -67.65 -7.8 -67.65 -7.75 -67.65 -7.7 -67.65 -7.7 -67.65 -7.65 -67.65 -7.65 -67.7 -7.6 -67.7 -7.55 -67.7 -7.55 -67.7 -7.5 -67.7 -7.45 -67.7 -7.45 -67.7 -7.4 -67.7 -7.35 -67.7 -7.3 -67.7 -7.2 -67.7 -7.0 -67.65 -6.8 -67.65 -6.7 -67.65 -6.7 -67.65 -6.65 -67.65 -6.6 -67.65 -6.6 -67.65 -6.55 -67.65 -6.55 -67.65 -6.55 -67.65 -6.5 -67.6 -6.45 -67.6 -6.25 -67.45 -5.75 -67.45 -5.7 -67.45 -5.65 -67.45 -5.6 -67.4 -5.6 -67.4 -5.55 -67.4 -5.5 -67.4 -5.5 -67.35 -5.45 -67.35 -5.4 -67.3 -5.3 -67.3 -5.25 -67.3 -5.25 -67.3 -5.25 -67.25 -5.2 -67.25 -5.15 -67.2 -5.1 -67.2 -5.05 -67.15 -5.0 -67.15 -4.95 -67.1 -4.9 -67.1 -4.85 -67.05 -4.8 -67.0 -4.75 -67.0 -4.7 -66.95 -4.65 -66.95 -4.6 -66.9 -4.6 -66.85 -4.55 -66.85 -4.5 -66.85 -4.5 -66.85 -4.5 -66.8 -4.45 -66.8 -4.45 -66.75 -4.4 -66.7 -4.3 -66.65 -4.25 -66.65 -4.25 -66.6 -4.2 -66.6 -4.2 -66.55 -4.15 -66.55 -4.1 -66.5 -4.1 -66.5 -4.05 -66.45 -4.0 -66.45 -4.0 -66.4 -3.9 -66.35 -3.8 -66.3 -3.7 -66.25 -3.6 -66.25 -3.5 -66.2 -3.4 -66.2 -3.3 -66.2 -3.2 -66.2 -3.1 -66.2 -3.0 -66.2 -2.85 -66.2 -2.75 -66.2 -2.65 -66.25 -2.55 -66.25 -2.45 -66.3 -2.35 -66.5 -1.7 -67.2 -0.15 -67.95 1.4 -68.15 1.9 -68.2 2.0 -68.3 2.2 -68.3 2.15 -68.35 2.35 -68.45 2.5 -68.55 2.8 -68.75 3.4 -68.9 3.85 -68.9 3.9 -68.95 4.0 -68.95 4.05 -69.0 4.15 -69.0 4.2 -69.05 4.25 -69.05 4.35 -69.05 4.4 -69.1 4.5 -69.1 4.55 -69.1 4.6 -69.15 4.7 -69.15 4.75 -69.15 4.8 -69.2 4.9 -69.2 4.95 -69.3 5.5 -69.3 5.6 -69.3 5.65 -69.35 5.75 -69.35 5.75 -69.35 5.8 -69.35 5.9 -69.35 6.05 -69.35 6.15 -69.35 6.2 -69.4 6.3 -69.4 6.35 -69.4 6.45 -69.4 6.5 -69.4 6.6 -69.4 6.65 -69.4 6.7 -69.4 6.8 -69.4 6.85 -69.4 6.95 -69.45 7.0 -69.45 7.1 -69.45 7.15 -69.4 7.25 -69.4 7.3 -69.4 7.3 -69.4 7.35 -69.4 7.4 -69.4 7.45 -69.4 7.45 -69.4 7.5 -69.4 7.55 -69.4 7.55 -69.4 7.6 -69.4 7.65 -69.4 7.7 -69.4 7.7 -69.4 7.75 -69.4 7.8 -69.4 7.8 -69.4 7.85 -69.35 8.05 -69.35 8.05 -69.35 8.1 -69.35 8.15 -69.35 8.2 -69.35 8.2 -69.35 8.25 -69.0 9.9 -69.1 10.45 -69.1 10.55 -69.15 10.65 -69.15 10.8 -69.15 10.9 -69.2 11.0 -69.2 11.1 -69.25 11.2 -69.3 11.3 -69.3 11.4 -69.35 11.5 -69.4 11.6 -69.45 11.7 -69.45 11.8 -69.5 11.9 -69.55 12.0 -69.6 12.1 -69.65 12.2 -69.7 12.3 -69.75 12.45 -69.8 12.55 -69.8 12.6 -69.85 12.7 -69.85 12.7 -69.95 12.85 -70.2 13.6 -70.2 13.6 -70.2 13.65 -70.25 13.75 -70.25 13.8 -70.3 13.9 -70.3 14.0 -70.3 14.05 -70.35 14.15 -70.35 14.2 -70.35 14.3 -70.4 14.35 -70.4 14.45 -70.4 14.5 -70.4 14.6 -70.45 14.65 -70.45 14.75 -70.45 14.8 -70.5 14.95 -70.55 15.2 -70.55 15.25 -70.55 15.25 -70.55 15.3 -70.55 15.35 -70.55 15.35 -70.6 15.5 -70.6 15.55 -70.55 15.45 -70.6 15.55 -70.65 16.2 -70.65 16.25 -70.65 16.25 -70.65 16.3 -70.65 16.35 -70.65 16.35 -70.65 16.4 -70.65 16.45 -70.65 16.45 -70.7 16.5 -70.7 16.55 -70.7 16.55 -70.7 16.6 -70.7 16.65 -70.7 16.65 -70.7 16.7 -70.7 16.75 -70.5 17.4 -70.25 18.2 -69.7 20.4 -69.6 21.55 -69.6 21.55 -69.55 21.6 -69.55 21.65 -69.55 21.65 -69.5 21.7 -69.5 21.7 -69.5 21.75 -69.5 21.8 -69.5 21.8 -69.5 21.85 -69.5 21.9 -69.5 21.9 -69.5 21.95 -69.5 22.0 -69.5 22.0 -69.5 22.05 -69.55 22.2 -69.6 22.4 -69.65 22.55 -69.75 22.7 -69.8 22.9 -69.9 23.05 -69.95 23.2 -70.05 23.35 -70.1 23.5 -70.2 23.65 -70.3 23.8 -70.4 23.95 -70.45 24.1 -70.55 24.3 -70.65 24.4 -70.75 24.55 -71.85 26.4 -72.0 26.65 -72.0 26.7 -72.1 26.95 -72.1 26.95 -72.15 27.0 -72.15 27.0 -72.15 27.05 -72.15 27.05 -72.2 27.1 -72.3 27.45 -72.35 27.65 -72.35 27.7 -72.4 27.7 -72.4 27.75 -72.4 27.8 -72.4 27.85 -72.4 27.85 -72.45 27.9 -72.45 27.95 -72.45 28.0 -72.45 28.0 -72.45 28.05 -72.45 28.1 -72.5 28.15 -72.5 28.15 -72.5 28.2 -72.5 28.25 -72.5 28.25 -72.5 28.35 -72.5 28.4 -72.5 28.45 -72.5 28.5 -72.5 28.55 -72.55 28.6 -72.55 28.6 -72.55 28.65 -72.55 28.7 -72.55 28.75 -72.55 28.75 -72.6 29.1 -72.6 29.45 -72.6 29.75 -72.6 30.1 -72.6 30.45 -72.6 30.8 -72.6 31.1 -72.6 31.45 -72.55 31.8 -72.55 32.15 -72.5 32.45 -72.5 32.8 -72.45 33.1 -72.4 33.5 -72.4 33.8 -72.35 34.15 -72.35 34.2 -72.35 34.25 -72.35 34.3 -72.35 34.35 -72.4 34.4 -72.4 34.4 -72.45 34.45 -72.45 34.5 -72.45 34.55 -72.45 34.6 -72.45 34.7 -72.45 34.75 -72.45 34.8 -72.5 34.85 -72.5 34.9 -72.55 34.95 -72.55 35.0 -72.6 35.05 -72.65 35.1 -72.7 35.15 -72.75 35.2 -72.8 35.2 -72.85 35.25 -72.9 35.25 -72.95 35.25 -73.0 35.25 -73.0 35.3 -73.05 35.3 -73.1 35.3 -73.15 35.3 -73.2 35.3 -73.2 35.35 -73.25 35.35 -73.3 35.35 -73.35 35.35 -73.4 35.4 -73.4 35.4 -73.45 35.4 -73.5 35.45 -73.55 35.45 -73.6 35.45 -73.7 35.5 -73.65 35.5 -73.75 35.55 -73.8 35.55 -73.85 35.55 -73.85 35.6 -73.9 35.6 -73.95 35.6 -74.0 35.65 -74.0 35.65 -74.05 35.7 -74.1 35.7 -74.15 35.75 -74.2 35.75 -74.2 35.75 -74.25 35.8 -74.3 35.8 -74.35 35.85 -74.4 35.85 -74.45 35.9 -74.45 35.9 -74.5 35.9 -74.55 35.95 -74.6 35.95 -74.65 36.0 -74.65 36.0 -74.7 36.05 -74.85 36.15 -75.05 36.25 -75.05 36.3 -75.1 36.3 -75.1 36.3 -75.15 36.35 -75.2 36.4 -75.25 36.4 -75.25 36.4 -75.3 36.45 -75.3 36.45 -75.3 36.5 -75.35 36.5 -75.4 36.55 -75.45 36.6 -75.55 36.65 -75.6 36.7 -75.8 36.85 -75.9 36.95 -76.05 37.1 -76.25 37.35 -76.3 37.4 -76.3 37.4 -76.35 37.45 -76.4 37.55 -76.35 37.5 -76.35 37.5 -76.4 37.55 -76.4 37.55 -76.4 37.55 -76.45 37.6 -76.45 37.6 -76.45 37.65 -76.5 37.7 -76.5 37.75 -76.55 37.75 -76.55 37.8 -76.55 37.85 -76.6 37.85 -76.6 37.85 -76.6 37.85 -76.65 38.0 -76.65 38.05 -76.7 38.15 -76.7 38.25 -76.75 38.25 -76.75 38.4 -76.8 38.55 -76.85 38.85 -76.85 38.85 -76.85 39.0 -76.9 39.15 -77.0 39.85 -76.95 39.5 -76.95 39.65 -77.0 39.8 -77.0 39.95 -77.05 40.1 -77.1 40.25 -77.1 40.4 -77.15 40.55 -77.2 40.7 -77.25 40.85 -77.35 41.0 -77.4 41.15 -77.5 41.25 -77.55 41.35 -77.65 41.5 -77.75 41.6 -77.8 41.7 -77.9 41.8 -78.0 41.9 -78.1 42.0 -78.2 42.1 -78.3 42.15 -78.4 42.25 -78.5 42.35 -78.65 42.4 -78.75 42.5 -78.85 42.55 -78.95 42.65 -79.1 42.7 -79.2 42.75 -79.35 42.85 -79.45 42.9 -79.6 43.0 -79.7 43.05 -79.85 43.15 -79.95 43.2 -80.1 43.25 -80.2 43.35 -80.35 43.4 -80.45 43.45 -80.6 43.5 -80.7 43.6 -80.85 43.65 -81.0 43.7 -81.1 43.75 -81.25 43.8 -81.35 43.85 -81.45 43.9 -81.6 43.95 -81.7 44.0 -81.8 44.05 -81.95 44.1 -82.05 44.15 -82.2 44.2 -82.3 44.25 -82.45 44.25 -82.55 44.3 -82.7 44.35 -82.8 44.35 -82.95 44.4 -83.05 44.4 -83.15 44.4 -83.2 44.45 -83.3 44.45 -83.35 44.45 -83.45 44.45 -83.5 44.45 -83.6 44.45 -83.7 44.45 -83.75 44.45 -83.85 44.45 -83.9 44.45 -84.0 44.45 -84.05 44.4 -84.15 44.4 -84.2 44.35 -84.3 44.35 -84.35 44.3 -84.4 44.3 -84.45 44.25 -84.5 44.2 -84.55 44.15 -84.6 44.15 -84.6 44.1 -84.65 44.05 -84.7 44.0 -84.7 43.95 -84.75 43.9 -84.8 43.8 -84.8 43.75 -84.8 43.7 -84.85 43.65 -84.85 43.6 -84.85 43.5 -84.9 43.35 -84.9 43.25 -84.9 43.15 -84.9 43.0 -84.85 42.9 -84.85 42.8 -84.85 42.65 -84.8 42.55 -84.75 42.45 -84.75 42.35 -84.7 42.2 -84.65 42.1 -84.65 42.0 -84.65 42.05 -84.55 41.75 -84.5 41.6 -84.4 41.3 -84.3 40.9 -84.25 40.8 -84.25 40.75 -84.2 40.7 -84.2 40.65 -84.2 40.6 -84.15 40.55 -84.15 40.5 -84.15 40.45 -84.15 40.4 -84.1 40.35 -84.1 40.3 -84.1 40.25 -84.1 40.2 -84.05 40.15 -84.05 40.1 -84.05 40.05 -84.05 40.0 -84.05 39.95 -84.0 39.95 -84.0 39.9 -84.0 39.85 -84.0 39.8 -84.0 39.75 -84.0 39.75 -84.0 39.75 -84.0 39.7 -84.0 39.7 -84.0 39.65 -84.0 39.6 -83.95 39.55 -83.95 39.5 -83.95 39.45 -83.95 39.4 -83.95 39.4 -83.95 39.35 -83.95 39.25 -83.95 39.15 -83.95 39.05 -83.95 38.95 -83.95 38.85 -83.95 38.8 -83.95 38.7 -83.95 38.6 -83.95 38.5 -83.95 38.4 -83.95 38.3 -83.95 38.2 -83.95 38.15 -84.0 38.05 -84.0 37.95 -84.0 37.85 -84.25 37.55 -84.85 36.7 -84.85 36.65 -84.9 36.6 -84.9 36.55 -84.95 36.55 -84.95 36.5 -85.0 36.45 -85.0 36.4 -85.05 36.4 -85.05 36.35 -85.1 36.3 -85.35 36.0 -85.2 36.2 -85.2 36.15 -85.25 36.15 -85.3 36.1 -85.3 36.05 -85.35 36.05 -85.35 36.0 -85.4 35.95 -85.45 35.95 -85.45 35.9 -85.5 35.85 -85.5 35.85 -85.55 35.8 -85.6 35.75 -85.6 35.75 -85.65 35.7 -85.7 35.65 -85.75 35.65 -85.85 35.55 -85.85 35.55 -85.9 35.5 -85.95 35.45 -85.95 35.45 -86.0 35.45 -86.1 35.35 -86.25 35.25 -86.65 35.0 -86.75 34.95 -86.8 34.9 -86.9 34.85 -86.95 34.8 -87.05 34.75 -87.1 34.75 -87.15 34.7 -87.25 34.65 -87.3 34.6 -87.4 34.55 -87.45 34.5 -87.55 34.45 -87.6 34.35 -87.65 34.3 -87.75 34.25 -87.8 34.2 -88.0 34.0 -88.1 33.8 -88.2 33.6 -88.3 33.4 -88.35 33.2 -88.4 32.95 -88.4 32.75 -88.4 32.5 -88.35 32.3 -88.3 32.05 -88.25 31.8 -88.2 31.6 -88.15 31.35 -88.05 31.15 -87.95 30.95 -87.85 30.7 -87.55 30.15 -86.85 29.0 -86.15 27.9 -85.85 27.35 -85.8 27.25 -85.65 26.9 -85.65 26.9 -85.6 26.85 -85.6 26.8 -85.6 26.75 -85.6 26.7 -85.55 26.65 -85.45 26.3 -85.45 26.25 -85.45 26.2 -85.4 26.1 -85.4 26.1 -85.4 26.05 -85.4 26.05 -85.4 25.9 -85.4 25.85 -85.4 25.85 -85.4 25.8 -85.4 25.75 -85.4 25.7 -85.4 25.65 -85.4 25.65 -85.4 25.6 -85.4 25.55 -85.4 25.5 -85.4 25.45 -85.4 25.45 -85.4 25.4 -85.4 25.35 -85.4 25.3 -85.4 25.25 -85.4 25.2 -85.45 25.05 -85.45 25.05 -85.45 24.95 -85.45 24.9 -85.45 24.8 -85.45 24.7 -85.5 24.65 -85.5 24.55 -85.5 24.5 -85.55 24.4 -85.55 24.35 -85.6 24.25 -85.6 24.15 -85.6 24.1 -85.65 24.0 -85.65 23.95 -85.7 23.85 -85.7 23.8 -85.75 23.7 -85.75 23.65 -85.8 23.55 -85.9 23.3 -86.0 22.95 -86.05 22.8 -86.2 22.4 -86.3 22.0 -86.4 21.8 -86.5 21.45 -86.6 21.2 -86.65 20.85 -86.75 20.6 -86.8 20.25 -86.85 19.95 -86.9 19.65 -86.9 19.35 -86.9 19.05 -86.85 18.7 -86.85 18.65 -86.85 18.6 -86.8 18.55 -86.8 18.45 -86.75 18.4 -86.75 18.35 -86.7 18.35 -86.65 18.3 -86.65 18.25 -86.6 18.2 -86.55 18.2 -86.5 18.15 -86.45 18.15 -86.35 18.1 -86.3 18.1 -86.25 18.1 -86.25 18.1 -86.2 18.1 -86.15 18.1 -86.15 18.1 -86.15 18.1 -86.15 18.1 -85.65 17.3 -84.4 15.85 -84.3 15.7 -84.05 15.4 -84.0 15.35 -83.85 15.15 -83.85 15.15 -83.85 15.15 -83.85 15.1 -83.75 15.05 -83.3 14.4 -83.15 14.1 -83.15 14.0 -83.05 13.8 -83.0 13.8 -83.0 13.75 -83.0 13.75 -82.95 13.7 -82.95 13.7 -82.95 13.7 -82.95 13.65 -82.95 13.65 -82.95 13.6 -82.9 13.6 -82.9 13.55 -82.9 13.5 -82.9 13.45 -82.85 13.45 -82.85 13.4 -82.85 13.35 -82.85 13.3 -82.8 13.3 -82.8 13.25 -82.8 13.2 -82.8 13.2 -82.8 13.15 -82.75 13.1 -82.75 13.05 -82.75 13.0 -82.75 12.95 -82.7 12.95 -82.7 12.9 -82.7 12.85 -82.7 12.8 -82.7 12.8 -82.7 12.75 -82.65 12.7 -82.65 12.65 -82.65 12.6 -82.65 12.6 -82.65 12.55 -82.65 12.5 -82.6 12.45 -82.6 12.4 -82.6 12.35 -82.6 12.25 -82.6 12.2 -82.6 12.2 -82.6 12.15 -82.55 12.15 -82.55 12.0 -82.55 11.75 -82.3 9.2 -82.2 7.35 -82.3 7.15 -82.45 6.75 -82.5 6.6 -82.55 6.5 -82.6 6.4 -82.65 6.3 -82.7 6.15 -82.75 6.05 -82.8 5.9 -82.8 5.8 -82.85 5.7 -82.9 5.55 -82.95 5.45 -82.95 5.3 -83.0 5.2 -83.05 5.1 -83.05 4.95 -83.1 4.85 -83.2 4.8 -83.3 4.7 -83.4 4.65 -83.5 4.6 -83.6 4.5 -83.7 4.45 -83.8 4.35 -83.85 4.25 -83.95 4.2 -84.05 4.1 -84.1 4.0 -84.2 3.9 -84.25 3.8 -84.3 3.7 -84.35 3.6 -84.4 3.5 -84.45 3.35 -84.45 3.15 -84.45 3.0 -84.4 2.9 -84.4 2.75 -84.3 2.6 -84.25 2.5 -84.15 2.4 -84.05 2.25 -83.9 2.15 -83.8 2.1 -83.65 2.0 -83.55 1.9 -83.4 1.85 -83.25 1.75 -83.1 1.7 -83.1 1.7 -83.1 1.65 -83.05 1.6 -83.05 1.6 -83.0 1.5 -82.95 1.35 -82.9 1.25 -82.8 1.15 -82.75 1.05 -82.65 0.95 -82.55 0.9 -82.45 0.8 -82.35 0.7 -82.25 0.65 -82.15 0.55 -82.05 0.5 -81.95 0.4 -81.85 0.35 -81.75 0.3 -81.6 0.2 -81.5 0.1 -81.2 -0.05 -80.95 -0.2 -80.85 -0.3 -80.65 -0.4 -80.15 -0.8 -79.9 -1.0 -79.75 -1.1 -79.55 -1.25 -79.4 -1.4 -79.15 -1.55 -79.0 -1.65 -78.75 -1.8 -78.6 -1.9 -78.35 -2.05 -78.15 -2.15 -77.95 -2.25 -77.7 -2.35 -77.5 -2.45 -77.25 -2.5 -77.05 -2.55 -76.8 -2.6 -76.75 -2.6 -76.7 -2.6 -76.65 -2.6 -76.65 -2.6 -76.6 -2.6 -76.55 -2.6 -76.45 -2.7 -76.4 -2.75 -76.35 -2.75 -76.35 -2.8 -76.3 -2.8 -76.3 -2.85 -76.25 -2.85 -76.25 -2.9 -76.2 -2.9 -76.2 -2.95 -76.15 -2.95 -76.15 -3.0 -76.1 -3.05 -76.1 -3.05 -76.05 -3.1 -76.05 -3.1 -76.0 -3.15 -76.0 -3.15 -75.95 -3.2 -75.95 -3.2 -75.9 -3.25 -75.9 -3.3 -75.85 -3.3 -75.85 -3.35 -75.8 -3.35 -75.75 -3.4 -75.75 -3.45 -75.75 -3.45 -75.7 -3.45 -75.7 -3.5 -75.7 -3.5 -75.65 -3.6 -75.6 -3.6 -75.65 -3.55 -75.55 -3.65 -75.35 -4.0 -75.35 -4.05 -75.3 -4.05 -75.3 -4.1 -75.25 -4.15 -75.25 -4.15 -75.25 -4.2 -75.2 -4.2 -75.2 -4.25 -75.2 -4.3 -75.15 -4.3 -75.15 -4.35 -75.15 -4.4 -75.1 -4.4 -75.1 -4.45 -75.1 -4.45 -75.05 -4.5 -75.05 -4.5 -75.05 -4.55 -75.05 -4.55 -75.05 -4.6 -75.0 -4.65 -75.05 -4.6 -75.05 -4.55 -75.05 -4.55 -75.05 -4.55 -75.0 -4.65 -75.0 -4.7 -74.95 -4.8 -74.9 -4.9 -74.9 -4.95 -74.9 -5.0 -74.9 -5.0 -74.9 -5.05 -74.85 -5.1 -74.85 -5.1 -74.85 -5.15 -74.85 -5.15 -74.85 -5.2 -74.85 -5.25 -74.85 -5.25 -74.8 -5.3 -74.8 -5.35 -74.8 -5.4 -74.8 -5.4 -74.8 -5.45 -74.8 -5.5 -74.8 -5.55 -74.75 -5.65 -74.75 -5.65 -74.75 -5.65 -74.75 -5.75 -74.75 -5.95 -74.7 -6.2 -74.7 -6.6 -74.7 -7.0 -74.7 -7.85 -74.7 -8.4 -74.7 -8.45 -74.7 -8.85 -74.65 -9.1 -74.65 -9.45 -74.6 -9.75 -74.6 -10.1 -74.55 -10.4 -74.45 -10.7 -74.4 -11.0 -74.3 -11.3 -74.15 -11.6 -74.05 -11.85 -73.85 -12.1 -73.65 -12.4 -73.45 -12.6 -73.35 -12.7 -73.3 -12.75 -73.2 -12.85 -73.1 -12.9 -73.0 -13.0 -72.9 -13.05 -72.85 -13.1 -72.75 -13.2 -72.65 -13.25 -72.55 -13.3 -72.45 -13.4 -72.35 -13.45 -72.25 -13.5 -72.15 -13.55 -72.05 -13.6 -71.95 -13.7 -71.85 -13.75 -71.7 -13.85 -71.6 -13.9 -71.45 -14.0 -71.35 -14.05 -71.2 -14.1 -71.1 -14.2 -70.95 -14.25 -70.8 -14.3 -70.7 -14.4 -70.55 -14.45 -70.45 -14.5 -70.3 -14.55 -70.2 -14.65 -70.05 -14.7 -69.95 -14.75 -68.65 -15.35 -67.7 -15.65 -67.6 -15.7 -67.5 -15.7 -67.35 -15.75 -67.25 -15.8 -67.15 -15.8 -67.05 -15.85 -66.95 -15.85 -66.8 -15.9 -66.7 -15.9 -66.6 -15.95 -66.5 -15.95 -66.35 -15.95 -66.25 -16.0 -66.15 -16.0 -66.05 -16.0 -65.9 -16.0 -65.85 -16.0 -65.85 -16.0 -65.8 -16.0 -65.8 -16.0 -65.75 -16.0 -65.7 -15.95 -65.7 -15.95 -65.65 -15.95 -65.65 -15.95 -65.6 -15.9 -65.6 -15.9 -65.55 -15.9 -65.55 -15.85 -65.5 -15.85 -65.5 -15.8 -65.45 -15.8 -65.4 -15.8 -65.35 -15.8 -65.3 -15.75 -65.3 -15.75 -65.25 -15.75 -65.2 -15.7 -65.15 -15.7 -65.1 -15.65 -65.05 -15.6 -65.0 -15.55 -65.0 -15.5 -64.95 -15.45 -64.95 -15.4 -64.9 -15.35 -64.9 -15.3 -64.9 -15.2 -64.9 -15.15 -64.9 -15.1 -64.9 -15.05 -64.9 -15.0 -64.95 -14.9 -65.0 -14.85 L-65.0 -14.85" fill="url(#gradient0)" fill-rule="evenodd" stroke="none"/>
    <path d="M49.8 -41.35 Q49.85 -41.2 49.9 -41.05 49.95 -40.9 50.0 -40.8 50.1 -40.65 50.15 -40.55 50.25 -40.4 50.35 -40.3 50.45 -40.2 50.55 -40.1 50.65 -40.0 50.75 -39.9 50.85 -39.8 51.0 -39.7 51.05 -39.65 51.2 -39.5 51.35 -39.35 51.55 -39.25 51.7 -39.1 51.9 -39.0 52.05 -38.9 52.25 -38.8 52.4 -38.75 52.55 -38.65 52.7 -38.6 52.9 -38.55 53.0 -38.5 53.15 -38.45 53.3 -38.4 53.45 -38.35 53.55 -38.3 53.65 -38.3 53.8 -37.75 53.95 -37.25 54.15 -36.75 54.3 -36.25 54.5 -35.8 54.65 -35.35 54.85 -34.9 55.05 -34.5 55.2 -34.1 55.4 -33.75 55.55 -33.4 55.75 -33.05 55.9 -32.75 56.1 -32.5 56.25 -32.2 56.4 -31.95 56.6 -31.6 56.8 -31.3 57.0 -31.05 57.2 -30.75 57.4 -30.55 57.6 -30.3 57.75 -30.1 57.95 -29.9 58.1 -29.75 58.25 -29.55 58.4 -29.4 58.55 -29.3 58.65 -29.2 58.75 -29.05 58.85 -29.0 58.95 -28.9 59.1 -28.75 59.3 -28.65 59.45 -28.5 59.6 -28.4 59.75 -28.25 59.95 -28.15 60.1 -28.05 60.25 -27.95 60.4 -27.85 60.55 -27.8 60.7 -27.7 60.8 -27.65 60.95 -27.55 61.1 -27.5 61.2 -27.45 61.3 -27.35 61.4 -27.0 61.5 -26.65 61.6 -26.35 61.65 -26.0 61.75 -25.7 61.8 -25.4 61.9 -25.1 61.95 -24.8 62.0 -24.55 62.05 -24.25 62.1 -24.0 62.15 -23.75 62.2 -23.55 62.25 -23.3 62.25 -23.1 62.3 -22.85 62.35 -22.55 62.4 -22.15 62.5 -21.6 62.5 -21.55 62.55 -21.2 62.6 -20.95 62.65 -20.65 62.7 -20.35 62.75 -20.1 62.85 -19.85 62.9 -19.55 63.0 -19.3 63.15 -19.05 63.25 -18.8 63.4 -18.55 63.6 -18.3 63.65 -18.2 63.75 -18.1 63.85 -18.0 63.9 -17.9 64.0 -17.8 64.05 -17.7 64.15 -17.6 64.2 -17.55 64.3 -17.45 64.35 -17.4 64.45 -17.35 64.5 -17.25 64.55 -17.2 64.65 -17.15 64.7 -17.1 64.75 -17.05 64.7 -16.9 64.65 -16.8 64.6 -16.65 64.55 -16.5 64.5 -16.3 64.45 -16.15 64.4 -15.95 64.35 -15.8 64.3 -15.6 64.25 -15.4 64.2 -15.2 64.15 -15.0 64.1 -14.75 64.05 -14.55 64.0 -14.3 64.0 -14.1 63.95 -13.9 63.95 -13.65 63.9 -13.4 63.9 -13.1 63.85 -12.75 63.85 -12.4 63.85 -12.0 63.85 -11.6 63.9 -11.15 63.95 -10.75 64.0 -10.25 64.1 -9.75 64.2 -9.25 64.3 -8.75 64.45 -8.2 64.65 -7.65 64.75 -7.35 64.9 -7.05 65.05 -6.75 65.15 -6.45 65.3 -6.2 65.45 -5.95 65.55 -5.7 65.7 -5.5 65.85 -5.3 65.95 -5.1 66.05 -4.9 66.2 -4.75 66.3 -4.6 66.35 -4.5 66.45 -4.4 66.55 -4.3 66.65 -4.15 66.75 -4.0 66.9 -3.9 67.0 -3.75 67.1 -3.65 67.2 -3.5 67.3 -3.4 67.4 -3.3 67.5 -3.2 67.65 -3.05 67.75 -3.0 67.85 -2.9 67.9 -2.8 68.0 -2.7 68.1 -2.65 68.2 -2.55 67.9 -2.05 67.65 -1.55 67.45 -1.1 67.25 -0.65 67.1 -0.2 67.0 0.25 66.85 0.65 66.8 1.05 66.7 1.4 66.65 1.75 66.65 2.05 66.6 2.4 66.6 2.65 66.6 2.95 66.6 3.15 66.65 3.35 66.65 3.65 66.7 4.0 66.75 4.3 66.8 4.65 66.9 4.95 66.95 5.3 67.05 5.65 67.15 6.0 67.25 6.35 67.4 6.75 67.5 7.05 67.65 7.5 67.8 7.85 67.95 8.3 68.05 8.6 68.3 9.2 68.35 9.35 68.4 9.5 68.45 9.65 68.5 9.8 68.6 9.9 68.65 10.05 68.7 10.15 68.75 10.3 68.8 10.4 68.85 10.55 68.9 10.65 68.9 10.75 68.95 10.85 69.0 10.95 69.05 11.05 69.1 11.15 68.75 11.85 68.5 12.6 68.2 13.3 68.0 14.05 67.8 14.7 67.65 15.4 67.5 16.05 67.45 16.7 67.35 17.3 67.35 17.9 67.3 18.5 67.35 19.0 67.4 19.55 67.5 20.0 67.55 20.45 67.7 20.85 67.8 21.15 67.95 21.45 68.05 21.7 68.2 21.95 68.3 22.2 68.45 22.45 68.6 22.65 68.7 22.85 68.8 23.0 68.95 23.15 69.05 23.3 69.1 23.4 69.2 23.45 69.25 23.55 69.25 23.55 69.3 23.6 69.4 23.75 69.5 23.85 69.65 23.95 69.75 24.05 69.85 24.2 69.95 24.3 70.05 24.4 70.2 24.45 70.3 24.55 70.4 24.65 70.5 24.7 70.6 24.8 70.7 24.85 70.8 24.9 70.85 24.95 70.95 25.0 70.85 25.3 70.75 25.65 70.6 25.95 70.5 26.3 70.4 26.7 70.3 27.1 70.2 27.5 70.15 27.9 70.1 28.35 70.05 28.75 70.0 29.25 69.95 29.7 69.95 30.2 70.0 30.65 70.0 31.15 70.05 31.65 70.1 31.9 70.15 32.1 70.15 32.25 70.2 32.4 70.25 32.55 70.3 32.7 70.3 32.75 70.45 33.05 70.5 33.25 70.6 33.45 70.7 33.7 70.8 34.05 70.9 34.4 71.05 34.9 71.2 35.4 71.35 36.05 71.4 36.3 71.45 36.4 71.5 36.55 71.5 36.7 71.55 36.85 71.6 37.0 71.7 37.2 71.75 37.3 71.8 37.5 71.9 37.6 71.95 37.75 72.05 37.9 72.15 38.05 72.25 38.15 72.4 38.3 72.55 38.4 72.65 38.5 72.75 38.55 72.85 38.6 72.95 38.7 73.05 38.75 73.15 38.8 73.25 38.8 73.35 38.85 73.45 38.9 73.55 38.9 73.65 38.95 73.75 38.95 73.85 39.0 73.95 39.0 74.0 39.0 74.1 39.0 74.05 39.2 74.0 39.4 73.9 39.7 73.85 39.95 73.8 40.25 73.75 40.6 73.7 40.95 73.65 41.35 73.6 41.75 73.65 42.15 73.65 42.6 73.7 43.05 73.75 43.5 73.85 43.95 73.95 44.45 74.1 44.95 74.2 45.25 74.35 45.6 74.5 45.9 74.65 46.15 74.75 46.45 74.9 46.7 75.05 46.9 75.2 47.15 75.35 47.35 75.5 47.55 75.65 47.7 75.75 47.85 75.9 48.0 76.0 48.1 76.05 48.2 76.15 48.3 76.3 48.45 76.45 48.6 76.6 48.75 76.8 48.9 76.95 49.05 77.1 49.2 77.25 49.3 77.4 49.4 77.55 49.55 77.7 49.65 77.8 49.75 77.95 49.85 78.05 49.9 78.2 50.0 78.3 50.05 78.4 50.15 78.55 50.25 78.7 50.35 78.85 50.4 79.0 50.5 79.15 50.6 79.25 50.65 79.4 50.75 79.55 50.8 79.65 50.9 79.8 50.95 79.9 51.0 80.05 51.05 80.15 51.1 80.25 51.15 80.4 51.2 80.5 51.25 80.55 51.5 80.6 51.75 80.6 51.95 80.65 52.2 80.7 52.4 80.75 52.65 80.8 52.85 80.85 53.05 80.9 53.25 80.95 53.4 80.95 53.6 81.0 53.8 81.05 53.95 81.1 54.1 81.15 54.3 81.2 54.45 81.3 54.9 81.4 55.25 81.5 55.65 81.6 55.9 81.7 56.2 81.8 56.45 81.9 56.65 82.0 56.85 82.05 57.0 82.15 57.15 82.25 57.25 82.3 57.35 82.4 57.45 82.5 57.5 82.55 57.55 82.65 57.6 82.75 57.65 82.85 57.7 83.0 57.75 83.1 57.75 83.2 57.8 83.3 57.8 83.45 57.8 83.55 57.8 83.65 57.8 83.75 57.8 83.85 57.8 83.95 57.8 84.05 57.75 84.15 57.75 84.25 57.75 84.3 57.7 84.55 57.8 84.8 57.9 85.05 57.95 85.3 58.05 85.5 58.1 85.75 58.15 85.95 58.2 86.15 58.25 86.35 58.3 86.55 58.35 86.75 58.35 86.9 58.4 87.1 58.45 87.25 58.45 87.4 58.45 87.55 58.5 88.05 58.55 91.6 58.5 91.85 58.5 92.05 58.5 92.3 58.5 92.5 58.5 92.7 58.5 92.9 58.5 93.1 58.5 93.3 58.5 93.45 58.5 93.65 58.5 93.8 58.5 94.0 58.5 94.15 58.5 94.3 58.5 94.4 58.5 94.55 58.5 94.65 58.5 94.75 58.55 94.9 58.55 95.0 58.55 95.15 58.6 95.25 58.6 95.4 58.6 95.55 58.6 95.7 58.6 95.85 58.6 96.05 58.6 96.2 58.6 96.35 58.6 96.55 58.55 96.7 58.55 96.9 58.5 97.3 58.4 97.7 58.25 98.05 58.1 98.35 57.9 98.7 57.7 99.0 57.5 99.25 57.25 99.5 57.0 99.75 56.8 99.95 56.55 100.15 56.35 100.3 56.1 100.45 55.9 100.6 55.7 100.7 55.55 100.85 55.35 100.95 55.25 101.0 55.1 101.1 54.95 101.15 54.8 101.25 54.65 101.35 54.5 101.4 54.3 101.5 54.15 101.6 53.95 101.65 53.75 101.75 53.5 101.85 53.3 101.9 53.05 102.0 52.8 102.05 52.55 102.1 52.3 102.35 52.2 102.55 52.15 102.9 52.0 103.25 51.85 103.7 51.65 104.15 51.45 104.65 51.15 105.15 50.85 105.7 50.5 106.15 50.05 106.7 49.6 107.2 49.1 107.7 48.5 108.05 47.9 108.5 47.2 108.8 46.45 108.95 46.1 109.05 45.7 109.15 45.35 109.25 44.95 109.3 44.6 109.35 44.25 109.4 43.9 109.4 43.55 109.45 43.25 109.45 42.9 109.45 42.65 109.45 42.35 109.45 42.15 109.4 41.85 109.4 41.7 109.4 41.45 109.35 41.0 109.3 40.5 109.25 40.05 109.15 39.65 109.05 39.25 108.95 38.85 108.85 38.45 108.7 38.1 108.6 37.75 108.45 37.4 108.35 37.1 108.2 36.8 108.05 36.55 107.95 36.3 107.85 36.05 107.7 35.85 107.8 35.75 107.9 35.6 108.0 35.45 108.1 35.35 108.2 35.2 108.3 35.05 108.4 34.9 108.5 34.7 108.6 34.55 108.75 34.35 108.85 34.2 109.0 34.0 109.1 33.8 109.25 33.6 109.35 33.4 109.5 33.2 110.95 30.75 111.25 29.95 111.5 29.35 111.6 28.65 111.7 28.0 111.7 27.35 111.7 26.75 111.6 26.1 111.5 25.5 111.35 24.85 111.2 24.35 111.05 23.75 110.85 23.25 110.65 22.75 110.5 22.35 110.3 21.9 110.15 21.65 109.95 21.25 109.85 21.05 109.75 20.8 109.6 20.6 109.5 20.35 109.35 20.1 109.2 19.85 109.05 19.55 108.85 19.3 108.65 19.0 108.45 18.75 108.25 18.45 108.0 18.15 107.75 17.85 107.5 17.55 107.2 17.25 106.9 16.95 107.0 16.7 107.05 16.45 107.15 16.15 107.2 15.85 107.3 15.55 107.35 15.2 107.45 14.85 107.5 14.45 107.55 14.05 107.6 13.65 107.6 13.2 107.6 12.75 107.65 12.3 107.6 11.8 107.6 11.3 107.5 10.85 107.45 10.35 107.35 9.9 107.25 9.45 107.15 9.0 107.05 8.6 106.9 8.2 106.8 7.85 106.7 7.5 106.55 7.2 106.45 6.9 106.3 6.65 106.2 6.4 106.1 6.2 106.0 6.0 105.9 5.85 105.85 5.7 105.65 5.35 105.4 5.0 105.2 4.65 104.95 4.35 104.7 4.05 104.5 3.8 104.25 3.5 104.0 3.25 103.8 3.05 103.55 2.8 103.35 2.65 103.15 2.45 102.95 2.25 102.75 2.1 102.6 1.95 102.4 1.85 102.35 1.2 102.3 0.55 102.25 -0.05 102.2 -0.7 102.15 -1.25 102.1 -1.85 102.1 -2.4 102.1 -2.95 102.05 -3.45 102.05 -3.95 102.05 -4.45 102.05 -4.9 102.05 -5.3 102.1 -5.75 102.1 -6.15 102.1 -6.55 102.1 -6.8 102.15 -7.25 102.15 -7.65 102.15 -7.9 102.2 -8.2 102.2 -8.45 102.2 -8.75 102.15 -9.0 102.15 -9.25 102.15 -9.45 102.1 -9.7 102.05 -9.95 102.0 -10.2 101.9 -10.45 101.85 -10.7 101.7 -10.95 101.6 -11.2 101.45 -11.45 101.3 -11.7 101.1 -11.95 100.9 -12.15 100.7 -12.35 100.5 -12.6 100.25 -12.8 100.0 -13.0 99.7 -13.2 99.45 -13.45 99.1 -13.7 98.8 -13.9 98.4 -14.15 98.1 -14.35 97.6 -14.7 97.4 -14.85 97.2 -14.95 96.95 -15.1 96.75 -15.25 96.5 -15.4 96.25 -15.55 96.0 -15.7 95.75 -15.85 95.45 -16.0 95.15 -16.15 94.9 -16.35 94.6 -16.5 94.25 -16.65 93.95 -16.85 93.6 -17.0 93.25 -17.15 93.25 -17.4 93.25 -17.75 93.25 -18.3 93.2 -18.85 93.15 -19.6 93.05 -20.4 92.9 -21.3 92.7 -22.15 92.5 -23.2 92.2 -24.15 91.8 -25.2 91.35 -26.15 90.85 -27.25 90.2 -28.15 89.5 -29.2 88.65 -30.0 88.15 -30.5 87.6 -30.9 87.1 -31.35 86.55 -31.7 86.05 -32.05 85.5 -32.35 85.05 -32.65 84.55 -32.9 84.15 -33.1 83.7 -33.3 83.35 -33.45 83.05 -33.6 82.8 -33.65 82.6 -33.75 82.55 -33.75 82.45 -33.8 82.25 -33.85 82.05 -33.9 81.85 -34.0 81.7 -34.05 81.5 -34.1 81.35 -34.1 81.15 -34.15 81.0 -34.2 80.8 -34.25 80.65 -34.25 80.5 -34.3 80.35 -34.35 80.2 -34.35 80.05 -34.4 79.95 -34.4 79.8 -34.4 79.75 -34.45 79.75 -34.5 79.7 -34.6 79.7 -34.65 79.65 -34.75 79.65 -34.8 79.6 -34.85 79.6 -34.95 79.55 -35.05 79.55 -35.1 79.5 -35.2 79.5 -35.3 79.45 -35.35 79.45 -35.45 79.4 -35.55 79.4 -35.65 79.4 -35.8 79.35 -35.95 79.35 -36.05 79.35 -36.2 79.3 -36.3 79.3 -36.45 79.3 -36.55 79.3 -36.7 79.35 -36.8 79.35 -36.9 79.35 -37.0 79.35 -37.1 79.35 -37.2 79.4 -37.3 79.4 -37.4 79.4 -37.5 79.75 -37.45 80.15 -37.45 80.55 -37.4 80.95 -37.35 81.4 -37.25 81.85 -37.2 82.35 -37.1 82.8 -36.95 83.3 -36.85 83.8 -36.65 84.35 -36.5 84.9 -36.3 85.45 -36.05 85.95 -35.8 86.55 -35.55 87.05 -35.25 87.25 -35.15 87.45 -35.0 87.7 -34.85 87.9 -34.75 88.05 -34.6 88.25 -34.5 88.45 -34.35 88.65 -34.2 88.8 -34.1 89.0 -33.95 89.15 -33.85 89.3 -33.7 89.45 -33.6 89.65 -33.45 89.8 -33.3 89.9 -33.2 89.9 -33.3 89.9 -33.45 89.9 -33.55 89.9 -33.7 89.9 -33.85 89.9 -34.0 89.9 -34.15 89.9 -34.35 89.85 -34.5 89.85 -34.7 89.85 -34.85 89.8 -35.05 89.75 -35.25 89.7 -35.45 89.7 -35.65 89.65 -35.85 89.55 -36.2 89.45 -36.5 89.35 -36.8 89.2 -37.05 89.05 -37.35 88.9 -37.65 88.75 -37.95 88.5 -38.25 88.3 -38.6 88.05 -38.95 87.8 -39.3 87.5 -39.7 87.2 -40.05 86.8 -40.6 82.35 -46.4 86.0 -41.65 84.5 -43.65 83.45 -45.05 83.65 -45.05 83.8 -45.05 84.0 -45.0 84.2 -45.0 84.4 -45.0 84.55 -44.95 84.75 -44.95 84.95 -44.9 85.15 -44.9 85.4 -44.85 85.6 -44.85 85.8 -44.8 86.0 -44.75 86.25 -44.7 86.45 -44.65 86.7 -44.65 87.1 -44.55 87.45 -44.45 87.8 -44.35 88.15 -44.25 88.5 -44.15 88.85 -44.05 89.15 -43.9 89.5 -43.8 89.8 -43.7 90.1 -43.55 90.4 -43.45 90.65 -43.3 90.95 -43.15 91.2 -43.05 91.45 -42.9 91.7 -42.8 91.6 -43.05 91.55 -43.3 91.45 -43.55 91.3 -43.85 91.2 -44.15 91.05 -44.45 90.95 -44.75 90.75 -45.05 90.6 -45.4 90.45 -45.7 90.25 -46.05 90.0 -46.4 89.8 -46.75 89.55 -47.1 89.3 -47.45 89.05 -47.8 88.7 -48.25 88.3 -48.7 87.9 -49.1 87.5 -49.45 87.1 -49.8 86.7 -50.15 86.35 -50.45 85.95 -50.7 85.6 -51.0 85.25 -51.2 84.9 -51.4 84.55 -51.6 84.25 -51.8 83.95 -51.95 83.7 -52.05 83.45 -52.2 82.95 -52.55 82.55 -52.85 81.85 -53.3 81.15 -53.75 80.25 -54.3 79.3 -54.75 78.2 -55.35 77.1 -55.8 75.85 -56.35 74.6 -56.75 73.2 -57.2 71.85 -57.5 70.4 -57.75 68.95 -57.85 67.4 -57.9 65.95 -57.7 65.5 -57.65 65.25 -57.6 64.8 -57.55 64.45 -57.5 63.95 -57.4 63.55 -57.3 63.1 -57.2 62.65 -57.05 62.15 -56.9 61.7 -56.7 61.15 -56.5 60.7 -56.25 60.2 -56.0 59.75 -55.65 59.25 -55.35 58.75 -54.95 58.15 -54.4 55.05 -50.15 53.5 -48.05 52.85 -47.0 52.8 -46.85 52.3 -45.85 52.0 -45.35 51.3 -44.4 51.6 -44.75 51.0 -44.0 50.8 -43.8 50.7 -43.65 50.5 -43.4 50.4 -43.25 50.25 -43.05 50.15 -42.9 50.05 -42.7 50.0 -42.5 49.9 -42.3 49.85 -42.15 49.8 -41.95 49.8 -41.75 49.8 -41.55 49.8 -41.35 L49.8 -41.35 M75.95 -15.85 Q76.0 -15.9 76.1 -15.9 76.1 -15.9 76.15 -15.9 76.2 -15.9 76.2 -15.95 76.2 -15.95 76.25 -16.0 76.25 -16.0 76.3 -16.0 76.3 -16.05 76.35 -16.05 76.4 -16.05 76.4 -16.1 76.45 -16.1 76.45 -16.1 76.5 -16.1 76.5 -16.1 76.55 -16.15 76.6 -16.15 76.6 -16.15 76.65 -16.15 76.75 -16.15 76.85 -16.15 77.0 -16.15 77.1 -16.1 77.2 -16.1 77.3 -16.05 77.4 -16.05 77.55 -16.05 77.65 -16.0 77.75 -15.95 77.85 -15.95 77.95 -15.9 78.05 -15.9 78.15 -15.85 78.25 -15.8 78.4 -15.8 78.55 -15.75 78.65 -15.7 78.8 -15.65 78.95 -15.6 79.05 -15.55 79.2 -15.5 79.35 -15.4 79.45 -15.35 79.6 -15.3 79.7 -15.25 79.85 -15.2 80.0 -15.15 80.1 -15.05 80.25 -15.0 80.4 -14.95 80.5 -14.9 80.65 -14.85 80.75 -14.75 80.9 -14.7 81.0 -14.65 81.15 -14.6 81.25 -14.5 81.4 -14.45 81.5 -14.4 81.6 -14.3 81.75 -14.25 81.85 -14.15 82.0 -14.1 82.1 -14.05 82.2 -13.95 82.35 -13.9 82.45 -13.8 82.55 -13.75 82.65 -13.7 82.75 -13.65 82.85 -13.55 82.95 -13.5 83.0 -13.45 83.1 -13.4 83.2 -13.3 83.3 -13.25 83.4 -13.2 83.5 -13.1 83.55 -13.05 83.65 -13.0 83.75 -12.9 83.8 -12.85 83.9 -12.75 84.1 -12.55 84.3 -12.25 84.45 -12.0 84.6 -11.7 84.7 -11.45 84.8 -11.15 84.9 -10.85 84.95 -10.5 85.0 -10.2 85.0 -9.9 85.05 -9.6 85.05 -9.25 85.1 -8.95 85.1 -8.6 85.1 -8.45 85.1 -8.0 85.1 -7.9 85.1 -7.85 85.1 -7.75 85.1 -7.65 85.1 -7.6 85.1 -7.5 85.1 -7.45 85.1 -7.35 85.1 -7.25 85.1 -7.2 85.1 -7.1 85.1 -7.05 85.1 -6.95 85.1 -6.85 85.1 -6.8 85.1 -6.7 85.1 -6.65 85.1 -6.65 85.1 -6.6 85.1 -6.55 85.1 -6.5 85.1 -6.5 85.1 -6.45 85.1 -6.4 85.1 -6.35 85.1 -6.35 85.1 -6.3 85.1 -6.25 85.15 -6.2 85.15 -6.2 85.15 -6.15 85.15 -6.1 85.15 -6.05 85.15 -6.0 85.15 -5.95 85.15 -5.9 85.15 -5.85 85.15 -5.8 85.15 -5.8 85.15 -5.75 85.15 -5.75 85.2 -5.7 85.2 -5.65 85.2 -5.6 85.2 -5.55 85.2 -5.55 85.2 -5.5 85.2 -5.45 85.25 -5.45 85.25 -5.4 85.25 -5.35 85.25 -5.35 85.25 -5.3 85.25 -5.25 85.25 -5.25 85.3 -5.2 85.3 -5.15 85.3 -5.15 85.3 -5.1 85.3 -5.05 85.35 -5.0 85.4 -4.8 85.45 -4.7 85.45 -4.7 85.45 -4.7 85.4 -4.75 85.4 -4.75 85.4 -4.75 85.45 -4.7 85.45 -4.65 85.6 -4.35 85.7 -4.15 85.7 -4.1 85.75 -4.1 85.75 -4.05 85.8 -4.05 85.8 -4.0 85.8 -3.95 85.85 -3.95 85.85 -3.9 85.9 -3.85 85.9 -3.85 85.9 -3.8 85.95 -3.8 85.95 -3.75 86.0 -3.75 86.0 -3.7 86.05 -3.65 85.95 -3.75 86.0 -3.7 86.05 -3.65 86.05 -3.65 86.1 -3.6 86.15 -3.55 86.15 -3.5 86.2 -3.5 86.2 -3.45 86.25 -3.4 86.25 -3.4 86.3 -3.35 86.3 -3.35 86.35 -3.3 86.35 -3.25 86.4 -3.25 86.4 -3.2 86.45 -3.2 86.45 -3.15 86.5 -3.15 86.5 -3.1 86.55 -3.1 86.55 -3.05 86.6 -3.05 86.6 -3.0 86.65 -2.95 86.65 -2.95 86.7 -2.9 86.7 -2.9 86.75 -2.85 86.8 -2.8 86.9 -2.75 86.95 -2.75 86.95 -2.75 87.0 -2.75 87.05 -2.75 87.1 -2.75 87.15 -2.75 87.35 -2.7 87.6 -2.65 87.8 -2.6 88.0 -2.5 88.2 -2.4 88.45 -2.3 88.65 -2.2 88.85 -2.05 89.05 -1.95 89.25 -1.8 89.4 -1.7 89.6 -1.55 89.75 -1.4 90.0 -1.25 90.1 -1.15 90.35 -0.95 90.8 -0.55 91.0 -0.45 91.1 -0.35 91.75 0.05 91.9 0.15 91.95 0.2 92.1 0.25 92.2 0.35 92.3 0.4 92.4 0.5 92.5 0.6 92.55 0.65 92.65 0.75 92.75 0.85 92.85 0.95 92.9 1.05 93.0 1.15 93.05 1.25 93.1 1.35 93.15 1.5 93.15 1.5 93.2 1.6 93.35 1.65 93.45 1.7 93.6 1.8 93.75 1.85 93.85 1.95 94.0 2.05 94.1 2.15 94.2 2.25 94.3 2.35 94.35 2.5 94.4 2.6 94.45 2.75 94.5 2.9 94.5 3.05 94.5 3.2 94.45 3.35 94.4 3.45 94.35 3.55 94.3 3.65 94.25 3.75 94.2 3.85 94.1 3.95 94.0 4.05 93.95 4.15 93.85 4.2 93.75 4.3 93.65 4.35 93.55 4.45 93.5 4.5 93.35 4.55 93.3 4.65 93.2 4.7 93.05 5.35 92.55 6.6 92.5 6.8 92.35 7.2 92.4 8.85 92.65 11.65 92.65 11.7 92.65 11.8 92.7 11.95 92.7 12.0 92.7 12.05 92.7 12.05 92.7 12.1 92.7 12.1 92.7 12.15 92.7 12.2 92.7 12.25 92.7 12.3 92.75 12.4 92.8 12.6 92.85 12.85 92.85 12.95 93.05 13.5 93.05 13.5 93.05 13.55 93.05 13.55 93.05 13.55 93.05 13.55 93.1 13.6 93.1 13.7 93.15 13.75 93.25 13.95 93.3 14.0 93.3 14.1 93.35 14.15 93.4 14.2 93.4 14.25 93.45 14.3 93.5 14.4 93.55 14.45 93.55 14.5 93.6 14.55 93.65 14.6 93.7 14.7 93.7 14.75 93.75 14.8 93.8 14.85 93.85 14.9 93.85 14.95 93.9 15.0 93.9 15.0 93.95 15.05 94.0 15.1 94.1 15.25 94.25 15.4 94.45 15.7 95.6 17.1 96.15 17.95 96.15 17.95 96.15 18.0 96.15 17.95 96.2 17.95 96.25 17.95 96.35 17.95 96.4 18.0 96.45 18.0 96.5 18.05 96.55 18.1 96.6 18.1 96.6 18.15 96.65 18.2 96.7 18.25 96.7 18.3 96.75 18.35 96.75 18.4 96.8 18.45 96.8 18.55 96.8 18.6 96.85 18.9 96.85 19.2 96.85 19.5 96.8 19.85 96.75 20.15 96.7 20.45 96.6 20.75 96.55 21.05 96.45 21.3 96.35 21.65 96.3 21.9 96.15 22.25 96.0 22.7 95.95 22.85 95.85 23.15 95.75 23.4 95.5 24.4 95.45 24.65 95.45 24.7 95.45 24.75 95.45 24.75 95.45 24.8 95.45 24.8 95.45 24.85 95.45 24.9 95.45 24.9 95.45 24.95 95.45 25.0 95.4 25.0 95.4 25.05 95.4 25.1 95.4 25.15 95.4 25.55 95.4 25.8 95.4 25.85 95.4 25.85 95.4 25.9 95.4 25.95 95.4 25.95 95.4 25.95 95.4 26.0 95.45 26.05 95.45 26.05 95.45 26.1 95.45 26.15 95.45 26.2 95.5 26.25 95.5 26.25 95.5 26.3 95.5 26.35 95.5 26.4 95.55 26.45 95.55 26.5 95.55 26.55 95.6 26.6 95.6 26.7 95.6 26.7 95.65 26.75 95.65 26.75 95.65 26.8 95.7 26.85 95.75 27.0 95.8 27.15 95.85 27.2 96.15 27.8 96.8 28.9 97.45 30.0 97.75 30.6 97.85 30.8 97.95 31.0 98.05 31.25 98.1 31.45 98.15 31.7 98.2 31.9 98.25 32.15 98.3 32.35 98.3 32.6 98.25 32.8 98.25 33.05 98.2 33.25 98.1 33.5 98.0 33.7 97.85 33.9 97.7 34.05 97.65 34.1 97.6 34.15 97.5 34.25 97.45 34.3 97.4 34.35 97.3 34.4 97.25 34.45 97.2 34.5 97.1 34.55 97.05 34.6 96.95 34.65 96.9 34.7 96.85 34.75 96.75 34.8 96.7 34.8 96.6 34.9 96.55 34.9 96.55 34.95 96.5 34.95 96.45 34.95 96.45 35.0 96.4 35.0 96.35 35.05 96.35 35.05 96.3 35.05 96.25 35.1 96.25 35.1 96.2 35.15 96.15 35.15 96.15 35.2 96.1 35.2 96.05 35.25 96.05 35.25 95.95 35.3 95.95 35.3 95.9 35.35 95.85 35.4 95.85 35.4 95.8 35.45 95.7 35.55 95.65 35.6 95.65 35.6 95.6 35.65 95.55 35.65 95.55 35.7 95.5 35.75 95.45 35.75 95.45 35.8 95.4 35.85 95.35 35.85 95.35 35.9 95.3 35.95 95.25 35.95 95.25 36.0 95.2 36.05 95.2 36.05 95.2 36.05 95.15 36.15 95.1 36.15 95.1 36.2 95.1 36.2 95.05 36.25 95.0 36.3 94.85 36.55 94.35 37.35 94.05 37.7 94.05 37.8 94.05 37.9 94.05 38.0 94.0 38.1 94.0 38.2 94.0 38.25 94.0 38.35 94.0 38.45 94.0 38.55 94.0 38.65 94.0 38.75 94.0 38.8 94.0 38.9 94.0 39.0 94.0 39.1 94.0 39.2 94.0 39.3 94.05 39.55 94.05 39.55 94.05 39.6 94.05 39.6 94.05 39.65 94.1 39.85 94.1 39.9 94.1 39.95 94.1 40.0 94.1 40.05 94.15 40.1 94.15 40.15 94.15 40.2 94.15 40.25 94.2 40.3 94.2 40.35 94.2 40.4 94.2 40.4 94.25 40.45 94.25 40.5 94.25 40.55 94.25 40.6 94.3 40.65 94.3 40.7 94.35 40.8 94.35 40.85 94.35 40.9 94.4 40.95 94.4 41.05 94.4 41.1 94.45 41.15 94.45 41.2 94.5 41.25 94.5 41.35 94.5 41.4 94.55 41.45 94.55 41.5 94.55 41.55 94.6 41.65 94.6 41.7 94.9 43.45 94.9 43.4 94.95 43.8 94.95 43.95 94.95 44.05 94.95 44.15 94.95 44.2 94.95 44.25 94.95 44.3 94.95 44.3 94.95 44.35 94.9 44.45 94.8 44.55 94.7 44.65 94.55 44.7 94.45 44.75 94.3 44.8 94.15 44.85 94.0 44.85 93.85 44.85 93.7 44.85 93.6 44.9 93.5 44.9 93.4 44.9 93.3 44.85 93.25 44.85 93.2 44.85 93.1 44.85 93.0 44.85 92.95 44.85 92.85 44.8 92.75 44.8 92.7 44.8 92.6 44.75 92.55 44.75 92.45 44.7 92.4 44.7 92.35 44.65 92.25 44.65 92.2 44.65 92.15 44.6 92.1 44.6 92.05 44.55 92.05 44.5 92.0 44.45 91.95 44.4 91.95 44.35 91.9 44.3 91.85 44.25 91.8 44.2 91.75 44.15 91.7 44.05 91.65 44.0 91.6 43.95 91.55 43.9 91.5 43.8 91.4 43.75 91.35 43.7 91.3 43.6 91.15 43.5 91.05 43.4 90.95 43.35 90.8 43.3 90.7 43.2 90.6 43.15 90.5 43.1 90.35 43.05 90.05 42.95 90.1 42.95 90.0 42.9 89.9 42.85 89.75 42.8 89.6 42.75 89.5 42.65 89.35 42.55 89.25 42.5 89.1 42.4 89.0 42.35 88.9 42.25 88.8 42.2 88.7 42.1 88.6 42.05 88.5 41.95 88.35 41.85 88.3 41.75 88.2 41.65 88.1 41.55 88.0 41.45 87.95 41.35 87.85 41.25 87.8 41.15 87.7 41.0 87.65 40.85 87.6 40.75 87.55 40.55 87.5 40.45 87.45 40.3 87.4 40.15 87.35 39.95 87.35 39.85 87.3 39.65 87.3 39.55 87.25 39.35 87.3 39.45 87.2 39.05 87.2 38.85 87.2 38.75 87.2 38.65 87.15 38.45 87.1 38.25 87.05 38.15 87.05 38.1 87.05 38.05 87.0 38.0 87.0 37.95 87.0 37.95 87.0 37.9 87.0 37.85 86.95 37.8 86.95 37.75 86.95 37.75 86.9 37.75 86.9 37.7 86.9 37.65 86.85 37.6 86.85 37.55 86.8 37.5 86.8 37.5 86.75 37.45 86.75 37.4 86.75 37.4 86.75 37.4 86.7 37.35 86.7 37.35 86.7 37.35 86.65 37.25 86.6 37.25 86.6 37.2 86.55 37.2 86.55 37.15 86.5 37.1 86.45 37.1 86.45 37.05 86.4 37.0 86.4 37.0 86.35 36.95 86.35 36.95 86.3 36.9 86.25 36.85 86.25 36.85 86.2 36.8 86.2 36.75 86.15 36.75 86.1 36.7 86.1 36.7 86.05 36.65 86.05 36.65 86.0 36.6 85.95 36.6 85.95 36.55 85.9 36.5 85.85 36.5 85.75 36.4 85.75 36.4 85.7 36.35 85.7 36.35 85.65 36.3 85.65 36.3 85.6 36.3 85.6 36.25 85.55 36.25 85.5 36.2 85.5 36.2 85.45 36.15 85.4 36.15 85.35 36.1 85.35 36.1 85.3 36.05 85.25 36.0 85.25 36.0 85.2 35.95 85.15 35.95 85.1 35.9 84.75 35.7 84.5 35.55 84.45 35.55 84.4 35.5 84.4 35.5 84.35 35.45 84.3 35.45 84.25 35.45 84.25 35.4 84.2 35.4 84.15 35.35 84.15 35.4 84.1 35.35 84.05 35.35 84.05 35.35 84.0 35.3 83.6 35.15 83.4 35.1 83.35 35.1 83.3 35.05 83.25 35.05 83.2 35.0 83.15 34.95 83.1 34.95 83.05 34.9 83.05 34.85 83.0 34.8 83.0 34.7 82.95 34.65 82.95 34.6 82.95 34.55 82.95 34.5 82.95 34.45 82.95 34.35 82.9 34.3 82.9 34.3 82.9 34.25 82.85 34.2 82.85 34.15 82.85 34.1 82.85 34.05 82.85 34.0 82.9 33.65 82.9 33.35 82.95 33.0 83.0 32.65 83.0 32.3 83.05 32.0 83.05 31.65 83.05 31.35 83.1 31.0 83.1 30.65 83.1 30.3 83.1 30.0 83.1 29.65 83.1 29.3 83.05 28.95 83.05 28.65 83.05 28.55 83.0 28.35 83.0 28.3 83.0 28.2 83.0 28.2 83.0 28.1 82.9 27.55 82.85 27.5 82.85 27.45 82.85 27.45 82.85 27.4 82.8 27.35 82.8 27.35 82.8 27.3 82.8 27.25 82.8 27.25 82.75 27.2 82.75 27.15 82.75 27.15 82.75 27.1 82.75 27.05 82.7 27.05 82.7 27.0 82.7 27.0 82.7 26.95 82.7 26.95 82.7 26.9 82.65 26.9 82.65 26.9 82.65 26.8 82.6 26.7 82.5 26.55 82.25 26.0 81.3 24.45 81.2 24.3 81.1 24.15 81.05 24.0 80.95 23.85 80.85 23.7 80.8 23.55 80.7 23.4 80.6 23.2 80.55 23.05 80.45 22.9 80.4 22.75 80.35 22.6 80.25 22.4 80.2 22.25 80.15 22.1 80.1 21.9 80.1 21.85 80.1 21.85 80.1 21.8 80.1 21.8 80.1 21.75 80.1 21.7 80.1 21.7 80.1 21.65 80.1 21.6 80.1 21.6 80.15 21.55 80.15 21.5 80.15 21.5 80.15 21.45 80.2 21.4 80.2 21.4 80.2 21.2 80.25 21.0 80.25 20.75 80.3 20.55 80.35 20.35 80.35 20.15 80.4 19.95 80.45 19.75 80.5 19.55 80.55 19.3 80.6 19.1 80.65 18.9 80.7 18.7 80.75 18.5 80.8 18.3 80.85 18.1 80.95 17.65 81.25 16.6 81.25 16.3 81.2 16.1 81.15 15.45 81.15 15.3 81.15 15.4 81.15 15.35 81.1 15.25 81.1 15.2 81.1 15.15 81.1 15.05 81.1 14.95 81.05 14.7 80.85 13.85 80.75 13.45 80.75 13.4 80.75 13.35 80.7 13.3 80.7 13.25 80.7 13.25 80.7 13.2 80.65 13.15 80.65 13.1 80.65 13.05 80.6 13.0 80.6 12.95 80.6 12.9 80.55 12.85 80.55 12.8 80.55 12.75 80.5 12.7 80.5 12.7 80.5 12.65 80.45 12.6 80.45 12.6 80.45 12.55 80.4 12.5 80.4 12.45 80.4 12.4 80.3 12.25 80.2 12.0 80.15 11.9 80.1 11.8 80.05 11.7 80.05 11.6 80.0 11.5 79.95 11.4 79.9 11.3 79.9 11.2 79.85 11.1 79.8 10.95 79.8 10.85 79.75 10.75 79.75 10.65 79.75 10.55 79.7 10.45 79.7 10.35 79.65 9.85 79.95 8.1 79.95 8.1 79.95 8.0 79.95 8.0 80.0 7.9 80.0 7.85 80.0 7.85 80.0 7.8 80.0 7.75 80.0 7.75 80.0 7.7 80.0 7.35 80.05 7.1 80.05 6.45 79.95 5.95 79.95 5.9 79.95 5.85 79.95 5.8 79.95 5.75 79.95 5.75 79.95 5.7 79.95 5.7 79.95 5.6 79.95 5.55 79.9 5.55 79.9 5.5 79.9 5.45 79.9 5.4 79.9 5.35 79.9 5.35 79.9 5.3 79.9 5.25 79.85 5.2 79.85 5.2 79.85 5.15 79.85 5.1 79.85 5.05 79.85 5.0 79.85 5.0 79.85 4.95 79.8 4.9 79.8 4.85 79.8 4.85 79.8 4.8 79.75 4.7 79.75 4.65 79.75 4.55 79.75 4.5 79.7 4.4 79.7 4.35 79.7 4.3 79.65 4.2 79.65 4.15 79.65 4.05 79.6 4.0 79.6 3.95 79.6 3.85 79.55 3.8 79.55 3.75 79.55 3.7 79.5 3.6 79.5 3.55 79.45 3.45 79.45 3.4 79.4 3.35 79.4 3.25 79.35 3.2 79.35 3.15 79.35 3.05 79.3 3.0 79.3 2.95 79.25 2.9 79.25 2.8 79.2 2.75 79.2 2.7 79.15 2.6 79.1 2.45 79.05 2.3 79.0 2.2 79.0 2.15 78.95 2.05 78.9 1.95 78.8 1.75 78.35 0.75 77.9 -0.25 77.8 -0.45 77.75 -0.55 77.65 -0.75 77.6 -0.85 77.55 -1.0 77.5 -1.15 77.4 -1.25 77.35 -1.4 77.3 -1.5 77.2 -1.6 77.15 -1.75 77.05 -1.85 77.0 -1.95 76.9 -2.1 76.85 -2.2 76.75 -2.3 76.7 -2.35 76.7 -2.4 76.65 -2.45 76.65 -2.45 76.6 -2.5 76.6 -2.55 76.55 -2.6 76.55 -2.6 76.5 -2.65 76.5 -2.65 76.45 -2.7 76.45 -2.75 76.4 -2.75 76.4 -2.8 76.4 -2.8 76.35 -2.8 77.05 -3.9 77.15 -4.1 77.2 -4.15 77.25 -4.25 77.4 -4.45 77.4 -4.45 77.45 -4.5 77.5 -4.55 77.5 -4.6 77.55 -4.6 77.55 -4.6 77.55 -4.6 77.85 -5.1 77.95 -5.35 78.0 -5.4 78.0 -5.4 78.0 -5.45 78.05 -5.55 78.05 -5.6 78.1 -5.8 78.1 -5.85 78.15 -5.85 78.15 -5.9 78.15 -5.95 78.15 -6.0 78.15 -6.0 78.2 -6.05 78.2 -6.1 78.2 -6.1 78.2 -6.15 78.2 -6.2 78.25 -6.25 78.25 -6.25 78.25 -6.3 78.25 -6.35 78.25 -6.35 78.25 -6.4 78.25 -6.45 78.25 -6.45 78.3 -6.5 78.3 -6.55 78.3 -6.6 78.3 -6.6 78.3 -6.65 78.3 -6.65 78.3 -6.7 78.3 -6.7 78.3 -6.7 78.3 -6.75 78.3 -6.8 78.3 -6.8 78.3 -6.85 78.3 -6.9 78.3 -6.9 78.3 -6.95 78.35 -7.0 78.35 -7.05 78.35 -7.05 78.35 -7.1 78.35 -7.15 78.35 -7.2 78.35 -7.25 78.35 -7.25 78.35 -7.3 78.35 -7.35 78.35 -7.4 78.35 -7.4 78.35 -7.45 78.35 -7.5 78.35 -7.5 78.35 -7.55 78.35 -7.6 78.35 -7.6 78.35 -7.65 78.35 -7.7 78.35 -7.75 78.35 -7.75 78.35 -7.8 78.35 -7.85 78.35 -7.85 78.35 -7.9 78.35 -7.95 78.35 -7.95 78.35 -8.0 78.35 -8.1 78.3 -8.3 78.3 -8.35 78.3 -8.4 78.3 -8.4 78.3 -8.55 78.3 -8.55 78.3 -8.6 78.3 -8.65 78.25 -8.65 78.25 -8.65 78.25 -8.7 78.25 -8.7 78.25 -8.75 78.25 -8.85 78.2 -9.0 78.2 -9.05 78.2 -9.1 78.2 -9.1 78.2 -9.15 78.2 -9.2 78.15 -9.25 78.15 -9.3 78.15 -9.3 78.15 -9.35 78.15 -9.4 78.15 -9.45 78.15 -9.5 78.15 -9.5 78.1 -9.55 78.1 -9.6 78.1 -9.65 78.1 -9.7 78.05 -9.8 78.05 -9.85 78.05 -9.95 78.0 -10.0 78.0 -10.1 78.0 -10.15 77.95 -10.25 77.95 -10.3 77.9 -10.4 77.9 -10.45 77.9 -10.55 77.85 -10.6 77.85 -10.65 77.8 -10.75 77.8 -10.8 77.65 -11.2 77.6 -11.35 77.55 -11.45 77.5 -11.65 77.5 -11.7 77.45 -11.75 77.45 -11.8 77.45 -11.8 77.4 -11.85 77.4 -11.85 77.4 -11.9 76.95 -12.75 76.5 -13.7 76.35 -14.0 76.25 -14.25 76.15 -14.45 76.1 -14.65 76.05 -14.8 76.0 -14.95 75.95 -15.1 75.95 -15.25 75.9 -15.4 75.9 -15.5 75.9 -15.55 75.9 -15.65 75.9 -15.7 75.9 -15.75 75.95 -15.8 75.95 -15.85 75.95 -15.85 L75.95 -15.85" fill="url(#gradient1)" fill-rule="evenodd" stroke="none"/>
  </g>
  <defs>
    <linearGradient gradientTransform="matrix(0.0, 0.0711, -0.0711, 0.0, -70.15, 0.5)" gradientUnits="userSpaceOnUse" id="gradient0" spreadMethod="pad" x1="-819.2" x2="819.2">
      <stop offset="0.0" stop-color="#fff23c" stop-opacity="0.0"/>
      <stop offset="0.3803921568627451" stop-color="#fff23c" stop-opacity="0.84705883"/>
      <stop offset="0.6039215686274509" stop-color="#fff23c" stop-opacity="0.8"/>
      <stop offset="1.0" stop-color="#fff23c" stop-opacity="0.0"/>
    </linearGradient>
    <linearGradient gradientTransform="matrix(0.0, 0.0711, -0.0711, 0.0, 80.65, 0.35)" gradientUnits="userSpaceOnUse" id="gradient1" spreadMethod="pad" x1="-819.2" x2="819.2">
      <stop offset="0.0" stop-color="#fff23c" stop-opacity="0.0"/>
      <stop offset="0.3803921568627451" stop-color="#fff23c" stop-opacity="0.84705883"/>
      <stop offset="0.6039215686274509" stop-color="#fff23c" stop-opacity="0.8"/>
      <stop offset="1.0" stop-color="#fff23c" stop-opacity="0.0"/>
    </linearGradient>
  </defs>
</svg>
