<?xml version="1.0" encoding="UTF-8" standalone="no"?>
<svg xmlns:xlink="http://www.w3.org/1999/xlink" height="200.0px" width="200.0px" xmlns="http://www.w3.org/2000/svg">
  <g transform="matrix(1.0, 0.0, 0.0, 1.0, 100.0, 100.0)">
    <path d="M-14.5 39.95 Q-14.5 40.0 -14.5 40.05 -14.45 40.15 -14.45 40.15 -13.8 42.45 -13.5 43.05 -13.45 43.1 -13.45 43.1 -13.45 43.15 -13.4 43.2 -13.4 43.25 -13.4 43.25 -13.4 43.3 -13.4 43.35 -13.4 44.05 -13.4 45.9 -13.45 45.9 -13.55 45.9 -13.65 45.95 -13.7 45.95 -13.95 45.95 -14.2 45.95 -14.45 45.95 -14.7 45.95 -15.0 45.95 -15.25 45.95 -15.5 45.95 -15.75 45.95 -16.0 45.95 -16.25 45.9 -16.5 45.9 -16.8 45.9 -17.05 45.9 -17.3 45.85 -17.55 45.85 -17.8 45.85 -18.25 45.8 -19.3 45.75 -20.25 45.65 -20.75 45.6 -21.25 45.55 -21.75 45.5 -22.25 45.4 -22.75 45.35 -23.25 45.25 -23.75 45.15 -24.25 45.05 -24.75 44.95 -25.25 44.85 -25.7 44.7 -26.2 44.55 -26.65 44.4 -27.15 44.25 -27.6 44.05 -28.1 43.85 -28.55 43.65 -28.8 43.55 -29.05 43.4 -29.3 43.25 -29.55 43.15 -29.8 43.0 -30.05 42.85 -30.3 42.75 -30.55 42.6 -30.8 42.45 -31.0 42.3 -31.25 42.15 -31.5 42.0 -31.75 41.8 -31.95 41.65 -32.2 41.5 -32.4 41.35 -32.5 41.3 -32.75 41.1 -32.75 41.9 -32.75 43.35 -33.0 43.4 -33.05 43.4 -33.05 43.4 -34.15 43.4 -34.8 43.4 -35.25 43.4 -35.3 43.4 -35.35 43.4 -35.35 43.4 -35.4 43.4 -35.45 43.35 -35.5 43.35 -35.55 43.35 -35.55 43.35 -35.75 43.25 -35.95 43.15 -36.15 43.1 -36.3 43.0 -36.5 42.9 -36.7 42.8 -36.85 42.7 -37.05 42.55 -37.25 42.45 -37.4 42.35 -37.55 42.25 -37.75 42.1 -37.9 41.95 -38.05 41.85 -38.2 41.7 -38.35 41.55 -38.45 41.45 -38.5 41.4 -38.6 41.3 -38.7 41.2 -38.75 41.15 -38.85 41.05 -38.95 40.95 -39.0 40.9 -39.1 40.8 -39.15 40.7 -39.25 40.6 -39.3 40.55 -39.4 40.45 -39.45 40.35 -39.55 40.25 -39.6 40.15 -40.55 39.0 -42.3 36.7 -42.35 36.6 -42.4 36.55 -42.5 36.45 -42.55 36.35 -42.6 36.25 -42.65 36.15 -42.7 36.1 -42.75 36.0 -42.75 35.9 -42.8 35.8 -42.85 35.7 -42.9 35.6 -42.9 35.5 -42.95 35.4 -43.0 35.3 -43.0 35.2 -43.0 35.2 -43.05 35.0 -43.1 35.05 -43.1 35.1 -43.15 35.15 -43.2 35.2 -43.2 35.25 -43.25 35.3 -43.3 35.3 -43.3 35.35 -43.3 35.4 -43.35 35.45 -43.45 35.7 -43.6 36.15 -43.8 36.7 -43.85 36.85 -43.85 36.9 -43.9 37.0 -43.9 37.05 -43.9 37.15 -43.95 37.2 -43.95 37.3 -43.95 37.35 -43.95 37.45 -43.95 37.5 -43.95 37.6 -43.95 37.65 -43.95 37.75 -43.95 37.8 -43.9 37.9 -43.9 37.95 -43.9 38.05 -43.85 38.2 -43.8 38.5 -43.75 38.85 -43.75 38.95 -43.65 39.35 -43.6 40.9 -43.6 41.15 -43.6 41.5 -43.65 41.95 -43.65 42.1 -43.7 42.1 -43.8 42.1 -43.85 42.15 -43.9 42.15 -44.9 42.1 -46.1 42.15 -46.15 42.15 -46.2 42.15 -46.25 42.15 -46.25 42.1 -46.3 42.1 -46.35 42.1 -46.4 42.05 -46.45 42.05 -46.5 42.0 -46.5 42.0 -46.55 42.0 -46.55 41.95 -46.6 41.95 -46.6 41.9 -46.65 41.9 -46.65 41.85 -46.7 41.85 -46.7 41.85 -46.75 41.8 -46.75 41.8 -46.8 41.75 -46.8 41.75 -46.85 41.75 -46.85 41.7 -46.9 41.7 -46.9 41.7 -47.0 41.65 -47.05 41.55 -47.15 41.5 -47.25 41.45 -47.3 41.35 -47.4 41.3 -47.5 41.25 -47.55 41.15 -47.65 41.1 -47.7 41.0 -47.75 40.95 -47.85 40.85 -47.9 40.75 -47.95 40.7 -48.0 40.6 -48.1 40.5 -48.4 40.1 -48.95 39.25 -49.5 38.4 -49.8 37.95 -49.9 37.8 -50.0 37.65 -50.05 37.5 -50.15 37.35 -50.2 37.2 -50.25 37.0 -50.3 36.85 -50.35 36.7 -50.4 36.55 -50.45 36.35 -50.45 36.2 -50.5 36.0 -50.5 35.85 -50.55 35.65 -50.55 35.5 -50.55 35.3 -50.55 35.2 -50.55 35.0 -50.55 35.0 -50.55 34.95 -50.6 34.9 -50.6 34.9 -50.6 34.9 -50.65 34.95 -50.65 34.95 -50.65 34.95 -50.8 35.45 -51.7 37.2 -51.7 37.25 -51.75 37.3 -51.75 37.35 -51.8 37.4 -51.8 37.4 -51.85 37.45 -51.85 37.55 -51.85 37.55 -51.9 37.65 -51.9 37.65 -51.95 37.75 -51.95 37.8 -52.0 37.9 -52.0 37.95 -52.0 38.05 -52.05 38.1 -52.05 38.15 -52.05 38.25 -52.05 38.3 -52.05 38.4 -52.05 38.45 -52.0 38.55 -52.0 38.6 -52.0 38.7 -51.95 38.75 -51.95 38.85 -51.6 39.65 -51.25 40.65 -51.25 40.7 -51.25 40.7 -51.2 40.75 -51.2 40.8 -51.2 40.8 -51.2 40.85 -51.2 40.85 -51.15 40.9 -51.15 40.95 -51.15 41.0 -51.15 41.0 -51.15 41.05 -51.15 41.1 -51.15 41.1 -51.15 41.15 -51.15 41.2 -51.1 41.75 -51.15 43.2 -51.15 43.25 -51.15 43.5 -51.2 43.5 -51.25 43.55 -51.3 43.55 -51.3 43.55 -54.85 43.55 -55.05 43.55 -55.35 43.55 -55.65 43.5 -56.0 43.45 -56.3 43.4 -56.6 43.35 -56.9 43.3 -57.2 43.25 -57.5 43.15 -57.8 43.05 -58.1 42.95 -58.4 42.85 -58.65 42.75 -58.95 42.65 -59.25 42.5 -59.55 42.4 -59.8 42.25 -59.9 42.2 -60.05 42.1 -60.15 42.05 -60.25 41.95 -60.35 41.9 -60.45 41.8 -60.5 41.7 -60.6 41.65 -60.7 41.55 -60.8 41.45 -60.85 41.35 -60.95 41.25 -61.0 41.15 -61.1 41.05 -61.15 40.95 -61.2 40.8 -61.3 40.65 -61.35 40.55 -61.4 40.4 -61.5 40.25 -61.55 40.1 -61.6 39.95 -61.65 39.8 -61.7 39.65 -61.7 39.55 -61.75 39.4 -61.75 39.25 -61.8 39.1 -61.8 38.9 -61.8 38.75 -61.85 38.6 -61.85 38.45 -61.85 38.3 -61.85 38.15 -61.85 38.0 -61.85 37.85 -61.85 37.7 -61.85 37.55 -61.85 37.4 -61.85 37.25 -61.85 37.1 -61.85 36.95 -61.85 36.8 -61.85 36.65 -61.85 36.5 -61.85 36.35 -61.85 36.2 -61.85 36.0 -61.85 35.9 -61.85 35.75 -61.85 35.65 -61.8 35.5 -61.8 35.4 -61.8 35.3 -61.75 35.15 -61.75 35.05 -61.7 34.9 -61.7 34.8 -61.65 34.7 -61.6 34.55 -61.6 34.45 -61.55 34.35 -61.5 34.25 -61.45 34.1 -61.3 33.8 -60.8 32.7 -60.4 31.85 -60.15 31.3 -60.15 31.25 -59.55 29.7 -59.55 29.65 -59.5 29.6 -59.5 29.6 -59.5 29.55 -59.5 29.5 -59.5 29.45 -59.5 29.45 -59.5 29.4 -59.5 29.35 -59.5 29.3 -59.5 29.3 -59.5 29.25 -59.5 29.2 -59.5 29.2 -59.55 29.15 -59.55 29.1 -59.6 28.95 -59.65 28.75 -59.7 28.6 -59.75 28.45 -59.8 28.3 -59.85 28.15 -59.9 28.0 -60.0 27.85 -60.05 27.7 -60.15 27.5 -60.2 27.4 -60.3 27.25 -60.35 27.1 -60.45 26.95 -60.55 26.8 -60.6 26.65 -61.65 24.95 -62.35 23.9 -62.6 23.5 -62.85 23.1 -63.05 22.75 -63.3 22.35 -63.5 21.95 -63.7 21.5 -63.9 21.1 -64.1 20.7 -64.3 20.3 -64.45 19.85 -64.6 19.45 -64.8 19.0 -64.95 18.6 -65.05 18.15 -65.2 17.7 -65.35 17.25 -65.45 16.85 -65.6 16.15 -65.8 15.3 -65.9 15.05 -65.9 14.95 -66.0 14.7 -66.1 14.8 -66.3 15.0 -66.5 15.2 -66.6 15.3 -66.8 15.55 -67.0 15.75 -67.2 16.0 -67.35 16.2 -67.55 16.45 -67.7 16.7 -67.85 16.95 -68.0 17.2 -68.15 17.45 -68.3 17.7 -68.45 17.95 -68.55 18.25 -68.65 18.5 -68.75 18.75 -68.9 19.05 -68.95 19.35 -69.0 19.45 -69.0 19.5 -69.05 19.6 -69.05 19.7 -69.1 19.75 -69.1 19.85 -69.15 19.95 -69.15 20.05 -69.15 20.1 -69.2 20.2 -69.2 20.3 -69.25 20.35 -69.25 20.45 -69.25 20.55 -69.3 20.65 -69.3 20.7 -69.3 20.75 -69.3 20.8 -69.3 20.85 -69.3 20.85 -69.3 20.9 -69.3 20.95 -69.3 21.0 -69.3 21.05 -69.3 21.05 -69.3 21.1 -69.3 21.15 -69.3 21.2 -69.3 21.25 -69.3 21.25 -69.3 21.3 -69.25 21.35 -69.2 21.6 -69.15 21.8 -69.1 22.0 -69.0 22.25 -68.95 22.45 -68.85 22.65 -68.75 22.85 -68.65 23.05 -68.55 23.25 -68.45 23.45 -68.35 23.65 -68.2 23.85 -68.1 24.05 -67.95 24.25 -67.8 24.4 -67.65 24.6 -67.6 24.65 -67.6 24.7 -67.55 24.7 -67.55 24.75 -67.5 24.8 -67.5 24.85 -67.45 24.9 -67.45 24.9 -67.45 24.95 -67.4 25.0 -67.4 25.05 -67.4 25.1 -67.4 25.15 -67.4 25.2 -67.4 25.25 -67.4 25.3 -67.4 25.6 -67.4 26.25 -67.4 26.9 -67.4 27.2 -67.4 27.3 -67.4 27.55 -67.45 27.55 -67.5 27.6 -67.55 27.6 -67.55 27.6 -70.25 27.55 -70.35 27.55 -70.55 27.55 -70.8 27.5 -71.0 27.45 -71.2 27.4 -71.4 27.35 -71.55 27.25 -71.75 27.15 -71.95 27.05 -72.1 26.95 -72.25 26.8 -72.4 26.7 -72.55 26.55 -72.7 26.4 -72.85 26.25 -72.95 26.05 -73.1 25.85 -73.2 25.7 -73.3 25.5 -73.4 25.35 -73.45 25.2 -73.55 25.0 -73.65 24.85 -73.7 24.65 -73.8 24.5 -73.85 24.3 -73.95 24.1 -74.0 23.95 -74.05 23.75 -74.1 23.55 -74.1 23.4 -74.15 23.2 -74.2 23.0 -74.3 22.15 -74.3 20.55 -74.25 19.25 -74.2 18.5 -74.2 18.35 -74.15 18.15 -74.1 18.0 -74.05 17.8 -74.0 17.65 -73.95 17.5 -73.9 17.3 -73.85 17.15 -73.8 17.0 -73.75 16.8 -73.7 16.65 -73.6 16.5 -73.55 16.35 -73.45 16.15 -73.4 16.05 -73.35 15.85 -73.2 15.55 -73.05 15.2 -72.85 14.9 -72.7 14.55 -72.5 14.25 -72.3 13.95 -72.1 13.65 -71.9 13.35 -71.7 13.05 -71.5 12.75 -71.3 12.5 -71.05 12.2 -70.85 11.9 -70.65 11.6 -70.45 11.35 -70.2 11.05 -69.55 10.25 -67.85 8.55 -67.6 8.3 -67.3 8.0 -67.05 7.75 -66.8 7.45 -66.55 7.15 -66.3 6.9 -66.05 6.6 -65.8 6.3 -65.55 6.05 -65.3 5.75 -65.05 5.45 -64.8 5.15 -64.55 4.85 -64.3 4.55 -64.1 4.25 -63.85 3.95 -63.75 3.8 -63.5 3.4 -63.25 3.1 -63.1 2.85 -63.15 2.85 -63.2 2.85 -63.25 2.85 -63.25 2.85 -63.35 2.8 -63.35 2.8 -63.35 2.8 -63.4 2.8 -63.45 2.8 -63.5 2.8 -63.5 2.8 -63.55 2.8 -63.6 2.8 -63.65 2.8 -63.7 2.8 -63.7 2.8 -63.75 2.8 -63.8 2.8 -63.85 2.8 -63.9 2.8 -63.95 2.8 -63.95 2.8 -64.0 2.8 -64.05 2.8 -64.1 2.8 -64.15 2.8 -64.15 2.8 -64.2 2.8 -64.2 2.75 -64.25 2.75 -64.25 2.75 -64.3 2.75 -64.3 2.7 -64.3 2.7 -64.35 2.65 -64.35 2.65 -64.35 2.6 -64.35 2.6 -64.35 2.55 -64.35 2.5 -64.35 2.45 -64.35 2.4 -64.35 2.4 -64.35 2.35 -64.4 2.3 -64.4 2.25 -64.4 2.2 -64.4 2.15 -64.4 2.15 -64.4 2.1 -64.4 2.05 -64.4 2.0 -64.4 1.95 -64.4 1.9 -64.4 1.9 -64.4 1.85 -64.45 0.35 -64.55 -2.45 -64.65 -5.35 -64.7 -6.7 -64.75 -7.45 -64.75 -8.2 -64.8 -8.95 -64.8 -9.65 -64.85 -10.45 -64.85 -11.15 -64.85 -11.9 -64.85 -12.65 -64.9 -13.4 -64.9 -14.15 -64.9 -14.9 -64.9 -15.65 -64.9 -16.4 -64.9 -17.1 -64.9 -17.9 -64.85 -18.6 -64.85 -18.95 -64.85 -19.25 -64.85 -19.6 -64.8 -19.95 -64.8 -20.25 -64.8 -20.6 -64.75 -20.95 -64.75 -21.25 -64.7 -21.6 -64.7 -21.95 -64.65 -22.25 -64.65 -22.6 -64.6 -22.95 -64.6 -23.25 -64.55 -23.6 -64.5 -23.95 -64.45 -24.4 -64.4 -24.85 -64.35 -25.35 -64.25 -25.8 -64.2 -26.25 -64.15 -26.7 -64.05 -27.15 -64.0 -27.6 -63.9 -28.1 -63.8 -28.55 -63.75 -29.0 -63.65 -29.45 -63.55 -29.9 -63.45 -30.35 -63.35 -30.8 -63.25 -31.25 -63.1 -32.0 -62.9 -32.7 -62.7 -33.4 -62.5 -34.15 -62.25 -34.85 -62.05 -35.55 -61.8 -36.25 -61.6 -36.95 -61.35 -37.65 -61.05 -38.35 -60.8 -39.05 -60.55 -39.75 -60.25 -40.4 -59.95 -41.1 -59.65 -41.75 -59.35 -42.45 -59.05 -43.1 -58.75 -43.7 -58.45 -44.35 -58.15 -44.95 -57.8 -45.55 -57.5 -46.15 -57.15 -46.8 -56.8 -47.4 -56.45 -48.0 -56.1 -48.55 -55.75 -49.15 -55.4 -49.75 -55.0 -50.35 -54.65 -50.9 -54.25 -51.5 -53.85 -52.05 -53.1 -53.15 -51.65 -55.15 -51.45 -55.4 -51.25 -55.65 -51.05 -55.9 -50.8 -56.15 -50.6 -56.4 -50.35 -56.65 -50.1 -56.85 -49.9 -57.1 -49.65 -57.3 -49.4 -57.55 -49.15 -57.75 -48.9 -57.95 -48.65 -58.15 -48.4 -58.35 -48.1 -58.55 -47.85 -58.75 -47.45 -59.05 -47.05 -59.35 -46.6 -59.6 -46.2 -59.9 -45.8 -60.15 -45.35 -60.45 -44.95 -60.7 -44.5 -60.95 -44.1 -61.25 -43.65 -61.5 -43.25 -61.75 -42.8 -62.0 -42.35 -62.25 -41.95 -62.5 -41.5 -62.7 -41.05 -62.95 -40.65 -63.15 -40.25 -63.35 -39.85 -63.55 -39.45 -63.75 -39.05 -63.95 -38.65 -64.1 -38.25 -64.3 -37.85 -64.45 -37.45 -64.65 -37.05 -64.8 -36.65 -64.95 -36.25 -65.1 -35.8 -65.3 -35.4 -65.45 -35.0 -65.55 -34.55 -65.7 -32.8 -66.3 -29.9 -66.95 -23.7 -68.2 -23.7 -68.25 -21.15 -68.7 -17.1 -69.35 -16.7 -69.4 -16.3 -69.45 -15.9 -69.55 -15.5 -69.6 -15.1 -69.65 -14.7 -69.7 -14.35 -69.75 -13.95 -69.8 -13.55 -69.85 -13.15 -69.85 -12.75 -69.9 -12.35 -69.95 -11.95 -70.0 -11.55 -70.0 -11.15 -70.05 -10.75 -70.1 -8.2 -70.3 -6.85 -70.35 -3.5 -70.55 2.4 -70.45 2.75 -70.45 3.15 -70.45 3.55 -70.45 3.9 -70.4 4.3 -70.4 4.65 -70.4 5.05 -70.35 5.4 -70.35 5.8 -70.3 6.15 -70.3 6.55 -70.25 6.9 -70.25 7.3 -70.2 7.65 -70.15 8.0 -70.15 8.4 -70.1 9.0 -70.05 9.6 -70.0 10.15 -69.9 10.75 -69.85 11.35 -69.75 11.9 -69.65 12.5 -69.6 13.1 -69.5 13.65 -69.4 14.25 -69.3 14.85 -69.2 15.4 -69.1 16.0 -69.0 16.6 -68.85 17.15 -68.75 17.75 -68.6 18.15 -68.5 18.55 -68.4 18.9 -68.35 19.3 -68.25 19.7 -68.15 20.1 -68.05 20.5 -67.95 20.85 -67.85 21.25 -67.75 21.65 -67.6 22.05 -67.5 22.4 -67.4 22.8 -67.3 23.2 -67.15 23.6 -67.05 23.95 -66.9 24.65 -66.65 25.4 -66.45 26.15 -66.2 26.85 -65.95 27.55 -65.7 28.3 -65.4 29.0 -65.15 29.7 -64.85 30.4 -64.6 31.15 -64.3 31.85 -64.0 32.55 -63.7 33.25 -63.4 33.95 -63.1 34.65 -62.8 35.35 -62.45 36.0 -62.15 36.65 -61.85 37.3 -61.55 37.9 -61.25 38.55 -60.9 39.2 -60.6 39.85 -60.25 40.45 -59.95 41.1 -59.6 41.7 -59.25 42.35 -58.9 42.95 -58.55 43.55 -58.2 44.15 -57.8 44.8 -57.45 45.4 -57.05 45.8 -56.8 46.2 -56.55 46.6 -56.25 47.0 -56.0 47.4 -55.75 47.8 -55.45 48.2 -55.2 48.55 -54.9 48.95 -54.6 49.3 -54.3 49.7 -54.0 50.05 -53.7 50.45 -53.4 50.8 -53.1 51.15 -52.75 51.5 -52.45 52.85 -51.2 53.8 -50.25 54.05 -50.0 54.3 -49.75 54.5 -49.45 54.75 -49.2 54.95 -48.95 55.2 -48.65 55.4 -48.4 55.65 -48.1 55.85 -47.85 56.1 -47.55 56.3 -47.3 56.5 -47.0 56.7 -46.75 56.95 -46.45 57.15 -46.15 57.35 -45.85 57.6 -45.5 57.8 -45.2 58.05 -44.85 58.25 -44.5 58.45 -44.2 58.65 -43.85 58.9 -43.5 59.1 -43.15 59.3 -42.8 59.5 -42.45 59.65 -42.1 59.85 -41.75 60.05 -41.4 60.2 -41.0 60.4 -40.65 60.55 -40.3 61.0 -39.4 62.05 -36.8 62.6 -35.5 63.9 -32.25 65.1 -29.35 65.75 -27.65 65.8 -27.5 65.85 -27.35 65.95 -27.2 66.0 -27.0 66.05 -26.85 66.1 -26.7 66.15 -26.55 66.15 -26.4 66.2 -26.2 66.2 -26.05 66.25 -25.9 66.25 -25.75 66.3 -25.55 66.3 -25.4 66.3 -25.2 66.3 -25.05 66.3 -24.95 66.3 -24.8 66.3 -24.7 66.3 -24.55 66.3 -24.45 66.3 -24.3 66.35 -24.2 66.35 -24.05 66.4 -23.95 66.4 -23.85 66.45 -23.7 66.5 -23.6 66.55 -23.5 66.6 -23.35 66.6 -23.25 66.65 -23.15 66.75 -23.0 66.8 -22.8 66.85 -22.65 66.9 -22.5 66.95 -22.3 67.0 -22.15 67.05 -22.0 67.1 -21.8 67.15 -21.65 67.2 -21.45 67.25 -21.3 67.25 -21.1 67.3 -20.95 67.35 -20.75 67.35 -20.7 67.4 -20.4 67.45 -20.1 67.5 -19.75 67.55 -19.4 67.6 -19.1 67.6 -18.75 67.65 -18.4 67.65 -18.1 67.7 -17.75 67.7 -17.45 67.7 -17.1 67.7 -16.75 67.75 -16.4 67.75 -16.1 67.75 -15.75 67.75 -15.45 67.75 -15.05 67.7 -12.55 67.65 -12.05 67.55 -10.6 67.25 -8.6 66.95 -6.8 66.0 -2.9 65.95 -2.7 65.9 -2.55 65.85 -2.35 65.85 -2.2 65.8 -2.0 65.75 -1.85 65.7 -1.65 65.7 -1.5 65.65 -1.3 65.65 -1.1 65.6 -0.95 65.6 -0.75 65.55 -0.6 65.55 -0.4 65.5 -0.25 65.5 -0.05 65.5 0.05 65.5 0.15 65.5 0.25 65.5 0.35 65.5 0.45 65.5 0.55 65.5 0.65 65.5 0.75 65.5 0.85 65.55 0.95 65.55 1.05 65.55 1.2 65.55 1.25 65.6 1.4 65.6 1.5 65.65 1.6 65.7 1.9 65.75 2.15 65.8 2.45 65.85 2.7 65.95 2.95 66.0 3.25 66.1 3.5 66.15 3.8 66.25 4.05 66.35 4.3 66.45 4.55 66.55 4.85 66.65 5.1 66.8 5.35 66.9 5.6 67.0 5.85 67.1 6.0 67.15 6.15 67.25 6.35 67.35 6.5 67.45 6.65 67.5 6.8 67.6 6.95 67.7 7.1 67.8 7.25 67.9 7.4 68.0 7.55 68.1 7.7 68.2 7.85 68.3 8.0 68.35 8.15 68.5 8.3 69.75 10.2 71.15 12.3 72.25 14.0 72.7 14.75 72.8 14.95 72.95 15.2 73.05 15.45 73.15 15.65 73.25 15.9 73.35 16.1 73.45 16.35 73.5 16.6 73.6 16.8 73.65 17.05 73.7 17.3 73.75 17.55 73.8 17.8 73.85 18.05 73.9 18.3 73.9 18.55 73.9 18.7 73.95 19.05 74.0 22.4 73.9 23.95 73.9 24.3 73.9 24.65 73.85 25.0 73.85 25.4 73.85 25.75 73.8 26.1 73.8 26.45 73.75 26.8 73.75 27.15 73.7 27.5 73.7 27.85 73.65 28.2 73.6 28.55 73.55 28.9 73.55 29.3 73.5 29.65 73.4 30.4 73.15 32.4 73.15 32.5 73.15 32.55 73.1 32.65 73.1 32.7 73.05 32.75 73.05 32.8 73.0 32.85 72.95 32.9 72.95 32.95 72.9 32.95 72.85 33.0 72.75 33.0 72.7 33.05 72.65 33.05 72.55 33.05 72.5 33.1 72.05 33.15 71.15 33.3 70.25 33.4 69.75 33.45 69.3 33.5 68.0 33.5 67.75 33.5 66.75 33.45 66.75 33.25 66.75 32.75 66.7 32.3 66.7 32.05 66.75 31.0 66.75 31.0 66.75 30.95 66.75 30.9 66.75 30.85 66.75 30.85 66.75 30.8 66.75 30.75 66.8 30.7 66.8 30.65 66.8 30.65 66.8 30.6 66.85 30.55 66.85 30.5 66.85 30.5 66.9 30.45 66.9 30.4 66.95 30.35 67.1 30.15 67.2 29.9 67.3 29.7 67.45 29.5 67.55 29.25 67.65 29.05 67.75 28.8 67.85 28.6 67.95 28.35 68.05 28.1 68.15 27.9 68.2 27.65 68.3 27.4 68.35 27.15 68.45 26.9 68.5 26.65 68.55 26.5 68.6 26.35 68.6 26.2 68.65 26.05 68.7 25.9 68.7 25.7 68.75 25.55 68.75 25.4 68.8 25.25 68.8 25.1 68.85 24.95 68.85 24.75 68.9 24.6 68.9 24.45 68.9 24.3 68.95 24.1 68.95 23.95 68.9 23.75 68.9 23.45 68.9 23.4 68.85 23.05 68.8 22.7 68.75 22.35 68.7 22.05 68.65 21.7 68.6 21.35 68.5 21.0 68.45 20.7 68.35 20.35 68.25 20.0 68.2 19.65 68.1 19.35 68.0 19.0 67.85 18.7 67.75 18.35 67.6 18.05 67.5 17.75 67.35 17.45 67.25 17.15 67.1 16.9 67.0 16.6 66.85 16.35 66.7 16.05 66.55 15.8 66.4 15.5 66.2 15.25 66.05 15.0 65.9 14.7 65.7 14.45 65.5 14.2 65.35 13.95 65.15 13.7 65.05 13.65 64.95 13.5 64.85 13.75 64.8 13.9 64.35 15.85 64.05 17.05 64.0 17.25 63.9 17.5 63.85 17.7 63.8 17.9 63.7 18.15 63.6 18.35 63.55 18.55 63.45 18.75 63.35 18.95 63.25 19.15 63.15 19.35 63.0 19.55 62.9 19.75 62.8 19.95 62.65 20.15 62.55 20.35 61.8 21.5 60.25 23.25 60.0 23.5 59.15 24.5 58.5 25.25 58.1 25.75 57.95 25.9 57.85 26.1 57.75 26.25 57.6 26.4 57.5 26.6 57.4 26.75 57.3 26.95 57.25 27.1 57.15 27.3 57.05 27.5 57.0 27.7 56.95 27.85 56.85 28.05 56.8 28.25 56.75 28.45 56.7 28.65 56.65 28.9 56.75 29.7 57.1 32.0 57.1 33.35 57.1 33.85 57.1 35.25 57.1 36.45 57.05 37.15 57.05 37.25 57.05 37.4 57.05 37.5 57.0 37.65 57.0 37.75 57.0 37.9 56.95 38.0 56.95 38.1 56.95 38.25 56.9 38.35 56.9 38.5 56.85 38.6 56.85 38.75 56.8 38.85 56.8 39.0 56.75 39.1 56.7 39.35 56.65 39.55 56.6 39.8 56.55 40.0 56.5 40.25 56.4 40.45 56.35 40.7 56.3 40.9 56.2 41.15 56.15 41.35 56.05 41.6 56.0 41.8 55.9 42.05 55.85 42.25 55.75 42.45 55.65 42.7 55.6 42.8 55.55 42.9 55.55 43.0 55.5 43.1 55.45 43.2 55.4 43.3 55.35 43.4 55.3 43.5 55.25 43.6 55.2 43.7 55.15 43.8 55.05 43.9 55.0 44.0 54.95 44.1 54.9 44.2 54.8 44.25 54.7 44.4 54.55 44.55 54.4 44.7 54.3 44.8 54.15 44.95 54.0 45.05 53.85 45.15 53.7 45.25 53.55 45.35 53.4 45.45 53.2 45.55 53.05 45.65 52.9 45.7 52.7 45.8 52.55 45.85 52.35 45.9 52.2 45.95 52.05 46.0 51.9 46.05 51.75 46.1 51.65 46.15 51.5 46.2 51.35 46.2 51.2 46.25 51.05 46.3 50.9 46.3 50.75 46.35 50.6 46.35 50.45 46.35 50.3 46.35 50.15 46.35 50.0 46.35 49.65 46.35 49.05 46.35 48.45 46.35 48.15 46.35 48.15 46.35 47.95 46.35 47.95 46.3 47.95 46.25 47.9 46.2 47.9 46.2 47.9 46.15 47.9 46.1 47.9 46.05 47.9 46.05 47.9 44.0 47.9 43.9 47.9 43.85 47.9 43.85 47.9 43.8 47.9 43.75 47.95 43.7 47.95 43.7 47.95 43.65 47.95 43.6 47.95 43.55 48.0 43.55 48.0 43.5 48.0 43.45 48.0 43.45 48.05 43.4 48.05 43.35 48.05 43.35 48.1 43.2 48.6 42.1 48.95 41.3 49.15 40.8 49.25 40.6 49.25 40.5 49.3 40.4 49.35 40.3 49.35 40.2 49.4 40.1 49.4 40.0 49.4 39.95 49.4 39.85 49.4 39.75 49.35 39.7 49.35 39.55 49.3 39.5 49.25 39.35 49.25 39.3 49.15 39.05 49.05 38.85 49.0 38.65 48.9 38.5 48.85 38.3 48.75 38.1 48.65 37.95 48.6 37.75 48.5 37.55 48.4 37.4 48.3 37.2 48.2 37.05 48.05 36.9 47.95 36.7 47.85 36.55 47.7 36.4 47.6 36.25 47.5 36.1 47.3 35.95 47.05 35.65 47.05 35.6 47.0 35.65 47.0 35.7 46.95 35.75 46.95 35.8 46.9 35.85 46.9 35.9 46.9 35.95 46.85 36.0 45.5 39.8 44.8 41.7 44.7 41.95 44.65 42.15 44.55 42.4 44.45 42.6 44.35 42.8 44.25 43.05 44.15 43.25 44.0 43.45 43.9 43.7 43.8 43.9 43.65 44.1 43.55 44.3 43.4 44.5 43.25 44.7 43.1 44.9 42.95 45.1 42.8 45.25 42.65 45.45 42.55 45.6 42.4 45.75 42.25 45.9 42.1 46.05 41.9 46.2 41.75 46.35 41.6 46.45 41.45 46.6 41.25 46.7 41.1 46.85 40.9 46.95 40.7 47.05 40.55 47.15 40.35 47.25 39.75 47.55 37.3 48.7 37.25 48.7 37.2 48.75 37.15 48.75 37.1 48.75 37.1 48.75 37.05 48.75 35.0 48.75 34.65 48.75 34.55 48.75 34.5 48.75 34.45 48.75 34.4 48.7 34.4 48.7 34.35 48.65 34.35 48.6 34.3 48.55 34.3 48.5 34.3 48.4 34.3 46.2 34.3 46.05 34.3 46.0 34.3 45.95 34.35 45.95 34.35 45.9 34.35 45.85 34.4 45.8 34.4 45.75 34.4 45.7 34.45 45.65 34.45 45.65 34.6 45.4 34.7 45.2 34.85 44.95 34.95 44.75 35.1 44.5 35.2 44.25 35.3 44.05 35.45 43.8 35.55 43.55 35.65 43.3 35.75 43.1 35.85 42.85 35.95 42.6 36.05 42.35 36.15 42.15 36.25 41.9 36.25 41.85 36.3 41.7 36.3 41.7 36.25 41.65 36.25 41.7 36.2 41.75 36.2 41.75 36.15 41.8 36.15 41.85 36.1 41.9 36.1 41.9 36.05 41.95 36.05 42.0 36.0 42.05 35.9 42.2 35.8 42.35 35.7 42.5 35.6 42.6 35.5 42.75 35.4 42.9 35.25 43.0 35.15 43.15 35.05 43.3 34.95 43.4 34.8 43.55 34.7 43.65 34.55 43.8 34.45 43.9 34.3 44.0 34.15 44.15 34.1 44.2 34.05 44.2 34.05 44.25 34.0 44.25 33.95 44.3 33.9 44.3 33.85 44.3 33.8 44.35 33.75 44.35 33.7 44.35 33.65 44.4 33.6 44.4 33.55 44.4 33.5 44.4 33.45 44.4 33.4 44.4 33.05 44.4 32.45 44.4 31.65 44.4 31.5 44.4 31.45 44.4 31.35 44.4 31.2 44.4 31.15 44.35 31.15 44.15 31.1 42.85 31.1 42.8 31.1 42.75 31.15 42.7 31.15 42.7 31.15 42.65 31.15 42.6 31.15 42.55 31.15 42.5 31.15 42.35 31.15 42.25 31.15 42.1 31.15 42.0 31.15 41.85 31.2 41.75 31.2 41.6 31.25 41.5 31.25 41.35 31.3 41.25 31.35 41.15 31.4 41.0 31.4 40.9 31.45 40.75 31.5 40.65 31.55 40.55 31.65 40.35 31.95 39.65 31.9 39.65 31.85 39.6 31.75 39.7 31.55 39.8 28.5 42.05 26.75 43.25 26.55 43.4 26.3 43.55 26.1 43.7 25.85 43.85 25.65 44.0 25.4 44.15 25.2 44.25 24.95 44.4 24.7 44.55 24.45 44.65 24.25 44.8 24.0 44.95 23.75 45.05 23.5 45.2 23.3 45.3 23.05 45.45 22.75 45.6 22.45 45.75 22.1 45.9 21.8 46.0 21.5 46.15 21.15 46.3 20.85 46.4 20.55 46.55 20.2 46.65 19.9 46.8 19.55 46.9 19.25 47.0 18.9 47.1 18.6 47.2 18.25 47.3 17.9 47.4 17.85 47.4 17.85 47.4 17.8 47.4 17.75 47.4 17.75 47.45 17.7 47.45 17.65 47.45 17.6 47.45 17.6 47.45 17.55 47.45 17.5 47.45 17.45 47.45 17.45 47.45 17.4 47.45 17.35 47.45 17.3 47.45 16.75 47.45 15.35 47.45 15.25 47.45 14.95 47.45 14.95 46.8 14.95 45.95 14.95 45.8 14.95 45.65 14.95 45.5 14.95 45.35 14.95 45.25 14.95 45.1 15.0 44.95 15.0 44.8 15.05 44.65 15.05 44.5 15.1 44.4 15.1 44.25 15.15 44.1 15.15 43.95 15.2 43.8 15.25 43.65 15.3 43.45 15.35 43.2 15.4 43.0 15.45 42.75 15.45 42.55 15.5 42.35 15.55 42.1 15.55 41.9 15.6 41.65 15.6 41.45 15.65 41.2 15.65 41.0 15.65 40.75 15.65 40.55 15.7 40.3 15.7 40.1 15.7 39.15 15.75 37.7 15.75 35.3 15.75 35.3 15.75 35.25 15.75 35.25 15.75 35.2 15.75 35.15 15.75 35.15 15.7 35.1 15.5 36.25 15.5 36.25 15.35 36.95 15.05 38.2 14.75 39.55 14.65 40.15 14.4 41.05 14.2 41.6 14.15 41.7 14.1 41.85 14.05 41.95 14.0 42.1 13.95 42.2 13.9 42.3 13.85 42.4 13.8 42.5 13.7 42.6 13.65 42.7 13.55 42.8 13.5 42.9 13.4 43.0 13.3 43.1 13.25 43.2 13.15 43.3 12.85 43.65 12.5 43.95 12.2 44.25 11.85 44.5 11.5 44.8 11.15 45.05 10.8 45.25 10.4 45.5 10.05 45.7 9.65 45.9 9.25 46.1 8.85 46.25 8.45 46.45 8.0 46.55 7.6 46.7 7.15 46.8 5.55 47.25 1.75 47.95 1.35 48.0 1.1 48.05 0.2 48.25 -2.45 48.2 -2.5 48.2 -2.55 48.2 -2.65 48.2 -2.7 48.15 -2.75 48.15 -2.8 48.15 -2.85 48.1 -2.9 48.05 -2.95 48.05 -2.95 48.0 -3.0 47.95 -3.05 47.95 -3.1 47.9 -3.1 47.85 -3.15 47.8 -3.2 47.75 -3.7 47.0 -3.85 46.8 -3.95 46.65 -4.05 46.5 -4.15 46.4 -4.25 46.25 -4.4 46.1 -4.5 46.0 -4.6 45.85 -4.7 45.7 -4.85 45.6 -4.95 45.5 -5.1 45.35 -5.2 45.25 -5.35 45.15 -5.5 45.0 -5.6 44.9 -5.75 44.8 -6.1 44.55 -6.45 44.25 -6.8 44.0 -7.15 43.75 -7.5 43.5 -7.9 43.25 -8.25 43.0 -8.6 42.8 -9.0 42.55 -9.35 42.35 -9.75 42.1 -10.1 41.9 -10.5 41.7 -10.9 41.5 -11.3 41.3 -11.65 41.1 -11.75 41.05 -14.2 40.0 -14.2 40.0 -14.35 40.0 -14.4 39.95 -14.5 39.95 L-14.5 39.95" fill="#000000" fill-rule="evenodd" stroke="none"/>
  </g>
</svg>
