<?xml version="1.0" encoding="UTF-8" standalone="no"?>
<svg xmlns:xlink="http://www.w3.org/1999/xlink" height="400.0px" width="400.0px" xmlns="http://www.w3.org/2000/svg">
  <g transform="matrix(1.0, 0.0, 0.0, 1.0, 200.0, 200.0)">
    <path d="M-33.25 -113.7 Q-34.45 -111.85 -35.5 -109.8 -36.45 -107.9 -37.3 -105.85 -38.05 -103.95 -38.7 -101.9 -39.3 -100.0 -39.8 -97.95 -40.3 -96.05 -40.65 -94.05 -41.0 -92.25 -41.3 -90.2 -41.55 -88.55 -41.8 -86.55 -41.95 -85.35 -42.25 -83.05 -42.45 -81.3 -42.6 -79.65 -42.7 -78.05 -42.75 -76.45 -42.85 -75.0 -42.85 -73.5 -42.85 -72.15 -42.8 -70.7 -42.75 -69.4 -42.7 -67.95 -42.65 -66.8 -42.55 -65.15 -42.15 -58.35 -42.4 -62.35 -42.3 -60.65 -42.25 -59.4 -42.2 -58.4 -42.15 -57.2 -42.1 -55.45 -42.05 -53.55 -42.05 -51.1 -42.05 -48.6 -42.05 -45.55 -42.15 -42.55 -42.25 -39.1 -42.4 -35.65 -42.65 -31.85 -42.95 -28.15 -43.35 -24.05 -43.85 -20.15 -44.4 -15.95 -45.1 -12.0 -45.85 -7.9 -46.75 -3.95 -47.65 -0.15 -48.8 3.6 -49.85 7.15 -51.1 10.8 -52.3 14.2 -53.75 17.8 -55.1 21.1 -56.7 24.7 -58.15 27.95 -59.9 31.7 -61.4 34.85 -63.4 38.9 -64.6 41.35 -67.15 46.4 -68.35 48.8 -69.6 51.2 -70.8 53.5 -72.0 55.75 -73.15 57.95 -74.35 60.1 -75.5 62.1 -76.65 64.1 -77.75 66.0 -78.85 67.85 -79.85 69.6 -80.9 71.35 -81.9 72.95 -82.9 74.55 -83.8 76.0 -84.75 77.45 -83.1 81.3 -79.8 88.9 -79.75 88.5 -79.65 88.1 -79.55 87.7 -79.4 87.35 -79.25 87.0 -79.1 86.65 -78.95 86.35 -78.75 86.05 -78.55 85.8 -78.3 85.55 -78.05 85.3 -77.8 85.1 -77.55 84.95 -77.3 84.8 -77.0 84.65 -76.7 84.6 -76.4 84.5 -76.1 84.5 -75.85 84.5 -75.55 84.5 -75.25 84.55 -75.0 84.6 -74.75 84.7 -74.5 84.8 -74.25 84.85 -74.05 85.0 -73.85 85.1 -73.65 85.2 -73.45 85.3 -73.3 85.45 -73.2 85.5 -73.05 85.6 -72.4 86.05 -71.8 86.7 -71.3 87.3 -70.85 88.0 -70.45 88.65 -70.1 89.45 -69.8 90.15 -69.55 90.9 -69.35 91.6 -69.15 92.35 -69.05 92.95 -68.95 93.65 -68.85 94.2 -68.8 94.75 -68.75 95.1 -68.7 95.55 -68.65 95.95 -68.65 96.35 -68.65 96.7 -68.6 97.1 -68.65 96.0 -68.6 97.75 -68.6 98.1 -68.6 98.35 -68.55 98.7 -68.55 98.95 -68.5 99.3 -68.45 99.6 -68.4 99.9 -68.3 100.25 -68.2 100.6 -68.05 100.95 -68.0 101.05 -67.95 101.2 -67.9 101.35 -67.85 101.5 -67.75 101.75 -67.65 101.95 -67.5 102.2 -67.4 102.45 -67.25 102.7 -67.05 103.0 -66.9 103.3 -66.7 103.6 -66.45 103.9 -66.2 104.2 -65.95 104.55 -65.7 104.85 -65.3 105.3 -64.9 105.7 -64.5 106.05 -64.05 106.4 -63.65 106.7 -63.2 107.0 -62.8 107.25 -62.35 107.5 -61.95 107.7 -61.5 107.9 -61.15 108.1 -60.7 108.25 -60.35 108.4 -59.9 108.55 -59.65 108.65 -59.15 108.85 -58.7 109.0 -58.4 109.1 -57.9 109.25 -57.5 109.4 -56.95 109.55 -56.4 109.7 -55.8 109.8 -55.2 109.9 -54.5 110.05 -53.85 110.1 -53.1 110.15 -52.4 110.15 -51.6 110.15 -50.8 110.1 -49.95 110.0 -49.15 109.85 -48.55 109.75 -48.35 109.7 -47.9 109.6 -47.55 109.5 -47.1 109.4 -46.75 109.3 -46.35 109.2 -46.0 109.05 -45.65 108.9 -45.3 108.75 -44.95 108.6 -44.6 108.4 -44.25 108.2 -43.95 108.0 -43.6 107.75 -43.3 107.45 -42.65 106.85 -42.25 106.15 -41.85 105.55 -41.6 104.8 -41.4 104.15 -41.25 103.35 -41.15 102.8 -41.05 101.75 -40.9 100.55 -40.8 100.0 -40.65 99.0 -40.45 98.15 -40.2 97.1 -39.8 96.1 -39.35 95.0 -38.7 93.9 -38.55 93.6 -38.4 93.35 -38.2 93.05 -38.0 92.8 -37.8 92.45 -37.55 92.1 -37.3 91.75 -37.05 91.45 -36.75 91.1 -36.45 90.75 -36.1 90.4 -35.7 90.05 -35.3 89.7 -34.9 89.4 -34.45 89.05 -33.95 88.75 -33.75 88.6 -33.55 88.5 -33.25 88.35 -32.9 88.25 -32.55 88.05 -32.1 87.95 -31.6 87.8 -31.05 87.65 -30.4 87.5 -29.7 87.4 -28.9 87.3 -28.05 87.25 -27.1 87.2 -26.1 87.2 -25.0 87.2 -23.8 87.3 -23.05 87.35 -22.5 87.4 -21.7 87.5 -20.95 87.55 -20.0 87.7 -19.1 87.85 -18.1 88.0 -17.1 88.25 -15.95 88.5 -14.85 88.8 -13.65 89.15 -12.45 89.55 -11.15 90.0 -9.9 90.55 -8.55 91.15 -7.25 91.85 -6.25 92.35 -5.4 92.9 -4.65 93.3 -4.0 93.8 -3.45 94.15 -2.85 94.6 -2.75 94.7 -1.9 95.35 -1.35 95.8 -0.95 96.05 -0.45 96.45 0.1 96.75 0.7 97.1 1.4 97.45 2.15 97.8 3.1 98.2 4.1 98.6 5.15 98.95 6.1 99.25 7.15 99.5 8.05 99.75 8.95 99.9 9.8 100.1 10.65 100.25 11.35 100.35 12.05 100.45 12.65 100.5 13.2 100.55 13.6 100.6 14.0 100.6 14.25 100.65 14.45 100.65 15.25 100.7 16.0 100.65 16.65 100.65 17.3 100.6 17.8 100.6 18.4 100.5 16.9 100.65 19.45 100.4 20.0 100.35 20.45 100.35 21.0 100.3 21.5 100.3 22.1 100.3 22.7 100.35 23.35 100.4 24.1 100.5 24.8 100.6 25.4 100.7 25.95 100.85 26.45 101.0 26.95 101.1 27.4 101.3 27.8 101.4 28.25 101.6 28.5 101.7 29.1 101.95 29.65 102.2 30.0 102.35 30.55 102.55 31.0 102.7 31.6 102.9 32.2 103.1 33.1 103.35 33.95 103.55 34.8 103.7 35.65 103.8 36.5 103.95 37.45 104.0 38.3 104.0 39.3 104.0 40.2 104.0 41.3 103.95 42.3 103.9 43.5 103.8 44.55 103.7 46.0 103.6 46.85 103.5 48.75 103.3 50.2 103.15 50.95 103.1 52.1 103.0 52.95 102.9 53.9 102.8 54.7 102.7 55.6 102.6 56.35 102.45 57.15 102.35 57.9 102.2 58.65 102.05 59.35 101.9 60.1 101.7 60.85 101.5 61.6 101.3 62.4 101.0 63.2 100.75 63.85 100.5 64.5 100.25 65.1 100.0 65.6 99.75 66.25 99.45 66.7 99.25 67.6 98.75 68.65 98.25 69.2 97.95 70.3 97.4 71.4 96.85 72.75 96.2 74.25 95.5 76.0 94.7 78.0 93.8 78.55 93.55 78.85 93.45 79.35 93.25 79.85 93.05 80.45 92.8 81.05 92.6 81.75 92.4 82.4 92.2 83.15 92.0 83.9 91.85 84.7 91.65 85.55 91.55 86.4 91.45 87.3 91.4 88.2 91.35 89.15 91.35 89.55 91.35 89.95 91.4 90.35 91.45 90.7 91.5 91.0 91.55 91.3 91.6 91.6 91.65 91.85 91.7 92.1 91.8 92.35 91.85 92.55 91.95 92.8 92.0 92.95 92.1 93.15 92.2 93.35 92.25 93.5 92.35 93.95 92.6 94.35 92.9 94.7 93.2 95.05 93.55 95.4 93.85 95.75 94.25 96.0 94.6 96.3 95.0 96.55 95.4 96.8 95.8 97.05 96.2 97.3 96.6 97.5 96.95 97.7 97.4 97.85 97.65 98.1 98.2 98.35 98.7 98.55 99.2 98.75 99.6 98.9 100.0 99.0 100.3 99.15 100.7 99.3 101.15 99.4 101.3 99.5 101.6 99.6 101.8 99.7 102.0 99.85 102.2 99.95 102.4 100.15 102.6 100.3 102.75 100.55 102.95 100.85 103.15 101.2 103.35 101.55 103.5 101.9 103.6 102.25 103.7 102.6 103.75 102.95 103.8 103.3 103.8 103.6 103.8 103.95 103.8 104.25 103.75 104.6 103.7 104.85 103.7 105.15 103.65 105.3 103.6 105.6 103.55 106.75 103.35 107.9 102.85 108.9 102.4 109.95 101.75 110.85 101.1 111.75 100.35 112.55 99.6 113.3 98.75 113.95 98.0 114.6 97.2 115.15 96.45 115.65 95.7 116.05 95.1 116.4 94.45 116.65 94.05 116.85 93.6 116.25 93.1 115.7 92.6 115.1 92.0 114.45 91.4 113.75 90.7 113.1 90.05 112.35 89.3 111.65 88.5 110.9 87.7 110.15 86.8 109.35 85.9 108.6 84.95 107.8 83.95 107.0 82.95 106.2 81.85 105.45 80.75 104.35 79.15 103.45 77.65 102.6 76.25 101.85 74.8 101.15 73.4 100.5 71.85 99.9 70.45 99.2 68.65 98.7 67.35 97.85 65.0 96.55 61.45 96.25 60.7 95.25 57.95 94.3 55.45 93.05 52.3 91.75 49.1 90.6 46.3 89.55 43.75 88.65 41.65 87.7 39.6 87.15 38.25 86.25 36.35 85.4 34.4 85.1 33.75 84.5 32.45 84.1 31.5 83.65 30.4 83.3 29.4 82.95 28.3 82.6 27.1 82.3 25.85 81.95 24.35 81.75 23.35 81.6 22.5 81.35 21.4 81.2 19.95 81.0 18.35 80.75 16.05 80.55 13.6 80.3 10.2 80.0 6.55 79.7 1.7 78.45 -17.8 78.25 -25.25 78.15 -29.55 78.15 -33.25 78.15 -36.5 78.25 -39.35 78.3 -41.7 78.45 -44.0 78.55 -45.5 78.7 -47.7 78.85 -49.95 78.9 -50.8 79.0 -52.5 79.0 -53.9 79.05 -55.55 78.95 -57.35 78.9 -59.3 78.7 -61.65 78.55 -63.35 78.4 -64.5 78.25 -66.3 78.0 -67.9 77.75 -69.9 77.45 -71.85 77.1 -74.05 76.65 -76.2 76.15 -78.6 75.55 -81.0 74.85 -83.55 74.1 -86.1 73.2 -88.85 72.2 -91.5 71.15 -94.4 69.9 -97.15 68.85 -99.45 68.35 -100.65 67.45 -102.6 66.65 -104.15 65.75 -106.05 64.8 -107.7 63.8 -109.6 62.75 -111.3 61.6 -113.1 60.35 -114.8 59.05 -116.6 57.6 -118.25 56.1 -120.05 54.4 -121.65 52.65 -123.35 50.7 -124.95 49.8 -125.7 48.85 -126.4 47.65 -127.25 46.45 -128.1 45.0 -129.05 43.5 -129.9 41.85 -130.9 40.1 -131.75 38.2 -132.75 36.25 -133.55 34.1 -134.45 31.9 -135.15 29.5 -135.9 27.1 -136.5 24.5 -137.05 21.9 -137.4 18.05 -137.9 14.05 -137.85 10.1 -137.85 6.15 -137.3 2.2 -136.75 -1.65 -135.7 -5.55 -134.65 -9.2 -133.1 -12.9 -131.55 -16.3 -129.6 -19.75 -127.55 -22.8 -125.15 -25.9 -122.7 -28.5 -119.85 -31.15 -116.95 -33.25 -113.7 L-33.25 -113.7" fill="url(#gradient0)" fill-rule="evenodd" stroke="none"/>
    <path d="M109.7 48.85 Q109.2 49.15 108.85 49.55 108.5 49.95 108.2 50.4 107.95 50.9 107.75 51.45 107.6 51.95 107.5 52.55 107.4 53.1 107.4 53.7 107.35 54.25 107.4 54.85 107.4 55.4 107.5 55.9 107.55 56.4 107.7 56.85 107.75 57.05 107.8 57.25 107.85 57.5 107.95 57.8 108.05 58.1 108.2 58.45 108.35 58.8 108.55 59.15 108.8 59.55 109.05 59.9 109.3 60.3 109.65 60.65 110.0 61.05 110.4 61.35 110.85 61.7 111.35 61.95 111.5 62.0 111.55 62.05 111.8 62.15 112.0 62.25 112.35 62.35 112.65 62.45 113.05 62.55 113.4 62.65 113.85 62.75 114.25 62.75 114.75 62.8 115.2 62.75 115.7 62.7 116.15 62.55 116.65 62.4 117.1 62.15 117.6 61.85 118.05 61.4 118.45 60.95 118.75 60.35 119.05 59.85 119.25 59.2 119.45 58.55 119.55 57.9 119.6 57.2 119.6 56.5 119.55 55.8 119.45 55.1 119.3 54.45 119.05 53.8 118.85 53.15 118.5 52.55 118.2 52.0 117.75 51.45 117.3 50.95 116.8 50.45 116.25 50.0 115.7 49.6 115.1 49.25 114.5 48.95 113.9 48.7 113.25 48.55 112.65 48.35 112.0 48.35 111.4 48.3 110.85 48.45 110.25 48.6 109.7 48.85 L109.7 48.85" fill="#000000" fill-rule="evenodd" stroke="none"/>
    <path d="M-88.2 71.55 Q-88.55 71.05 -88.75 70.75 -89.15 70.25 -89.5 69.8 -89.95 69.25 -90.4 68.75 -90.95 68.15 -91.5 67.65 -92.15 67.05 -92.8 66.55 -93.55 66.0 -94.3 65.55 -95.1 65.05 -95.95 64.65 -96.85 64.25 -97.8 64.0 -98.4 63.85 -99.05 63.7 -99.55 63.6 -100.2 63.5 -100.5 63.45 -101.3 63.35 -101.95 63.3 -102.3 63.25 -102.85 63.15 -103.2 63.05 -103.65 62.95 -104.0 62.8 -104.35 62.6 -104.65 62.35 -104.95 62.1 -105.15 61.75 -105.3 61.5 -105.35 61.3 -105.45 61.05 -105.45 60.85 -105.45 60.65 -105.45 60.35 -105.45 60.2 -105.4 59.85 -105.35 59.45 -105.3 59.3 -105.3 58.95 -105.25 58.6 -105.25 58.2 -105.25 57.8 -105.3 57.35 -105.35 56.85 -105.4 56.4 -105.5 56.0 -105.6 55.6 -105.7 55.25 -105.8 54.95 -105.95 54.6 -106.05 54.35 -106.25 54.0 -106.3 53.85 -106.55 53.35 -106.75 52.95 -106.9 52.65 -107.1 52.25 -107.25 51.85 -107.45 51.4 -107.6 50.9 -107.8 50.4 -107.9 50.0 -108.0 49.6 -108.1 49.2 -108.15 48.85 -108.2 48.5 -108.25 48.25 -108.3 47.85 -108.1 50.05 -108.35 47.1 -108.4 46.6 -108.45 46.2 -108.5 45.65 -108.6 45.1 -108.7 44.5 -108.85 43.75 -109.1 42.5 -109.2 41.9 -109.4 40.95 -109.55 40.25 -109.75 39.45 -109.9 38.85 -110.1 38.15 -110.3 37.55 -110.5 36.95 -110.75 36.5 -111.0 36.0 -111.3 35.6 -111.6 35.2 -111.95 34.9 -112.3 34.6 -112.7 34.35 -113.15 34.1 -113.7 34.0 -114.2 33.9 -114.75 33.85 -115.25 33.85 -115.75 33.95 -116.25 34.0 -116.75 34.15 -117.2 34.25 -117.65 34.4 -118.05 34.55 -118.45 34.7 -118.75 34.85 -119.05 35.0 -119.2 35.05 -119.45 35.2 -120.25 35.6 -120.95 36.15 -121.6 36.65 -122.15 37.25 -122.6 37.7 -123.1 38.35 -123.4 38.7 -123.85 39.4 -124.35 40.1 -124.55 40.35 -124.95 40.85 -125.25 41.15 -125.65 41.5 -126.05 41.7 -126.5 41.9 -127.0 41.95 -127.3 41.95 -127.6 41.9 -127.85 41.85 -128.15 41.75 -128.45 41.65 -128.75 41.5 -129.0 41.35 -129.35 41.15 -129.65 40.95 -129.95 40.7 -130.25 40.45 -130.6 40.15 -130.95 39.9 -131.35 39.55 -131.6 39.35 -132.1 38.85 -132.5 38.5 -132.85 38.15 -133.2 37.85 -133.45 37.5 -133.7 37.3 -133.9 37.0 -133.7 37.25 -134.3 36.55 -134.5 36.3 -134.6 36.2 -134.8 36.0 -134.95 35.85 -135.1 35.7 -135.3 35.6 -135.55 35.5 -135.8 35.4 -136.25 35.25 -136.7 35.2 -137.15 35.15 -137.6 35.15 -138.05 35.2 -138.55 35.3 -139.0 35.45 -139.45 35.6 -139.9 35.8 -140.3 36.0 -140.75 36.25 -141.15 36.5 -141.55 36.75 -141.9 37.05 -142.25 37.35 -142.55 37.65 -142.7 37.8 -142.75 37.9 -142.95 38.1 -143.15 38.3 -143.4 38.6 -143.6 38.9 -143.85 39.3 -144.05 39.65 -144.3 40.1 -144.45 40.55 -144.65 41.05 -144.75 41.55 -144.9 42.1 -144.9 42.6 -144.9 43.2 -144.8 43.75 -144.65 44.5 -144.25 45.15 -143.9 45.75 -143.4 46.3 -142.9 46.75 -142.3 47.2 -141.8 47.55 -141.15 47.85 -140.65 48.1 -140.05 48.3 -139.55 48.5 -139.05 48.65 -138.7 48.75 -138.35 48.8 -138.15 48.85 -138.05 48.85 -137.1 49.0 -136.15 48.95 -135.25 48.9 -134.4 48.65 -133.6 48.45 -132.85 48.1 -132.15 47.8 -131.5 47.35 -130.9 47.0 -130.35 46.6 -129.9 46.25 -129.5 45.85 -129.2 45.6 -128.9 45.3 -128.75 45.15 -128.65 45.0 -128.25 45.9 -127.8 46.8 -127.35 47.6 -126.9 48.4 -126.45 49.15 -126.0 49.85 -125.55 50.5 -125.1 51.15 -124.65 51.75 -124.2 52.3 -123.75 52.85 -123.3 53.35 -122.9 53.8 -122.5 54.2 -122.1 54.6 -121.7 55.0 -120.7 55.95 -118.85 57.4 -115.7 59.95 -113.75 61.55 -113.35 61.9 -112.9 62.25 -112.5 62.55 -112.1 62.9 -111.75 63.2 -111.35 63.55 -111.0 63.8 -110.65 64.1 -110.35 64.4 -110.0 64.65 -109.7 64.9 -109.4 65.15 -109.15 65.4 -108.9 65.6 -108.65 65.8 -108.4 66.05 -109.25 66.35 -110.0 66.7 -110.7 67.0 -111.35 67.35 -111.9 67.65 -112.35 68.0 -112.85 68.3 -113.2 68.6 -113.5 68.9 -113.8 69.25 -114.0 69.5 -114.2 69.8 -114.35 70.1 -114.45 70.4 -114.5 70.65 -114.55 70.95 -114.6 71.25 -114.55 71.6 -114.5 71.85 -114.4 72.2 -114.35 72.45 -114.2 72.75 -114.15 72.9 -114.0 73.3 -113.85 73.6 -113.75 73.75 -113.65 74.0 -113.65 74.2 -113.6 74.45 -113.6 74.65 -113.6 74.85 -113.75 75.0 -113.85 75.2 -114.1 75.35 -114.3 75.45 -114.55 75.55 -114.8 75.6 -115.15 75.6 -115.45 75.65 -115.85 75.6 -116.15 75.6 -116.55 75.55 -116.85 75.5 -117.3 75.45 -117.5 75.4 -118.0 75.35 -118.45 75.25 -118.65 75.2 -118.65 75.2 -118.9 75.2 -119.2 75.15 -119.6 75.1 -120.15 75.1 -120.7 75.1 -121.45 75.1 -122.2 75.1 -123.15 75.15 -124.05 75.25 -125.15 75.35 -126.25 75.55 -127.45 75.75 -128.65 76.1 -130.0 76.4 -131.3 76.85 -132.35 77.2 -133.35 77.7 -134.35 78.2 -135.35 78.8 -136.3 79.4 -137.25 80.15 -138.15 80.85 -139.0 81.7 -139.85 82.55 -140.6 83.45 -141.35 84.4 -142.0 85.4 -142.65 86.4 -143.2 87.5 -143.75 88.6 -144.15 89.7 -144.3 90.1 -144.4 90.5 -144.6 91.0 -144.75 91.6 -144.9 92.3 -145.05 93.0 -145.2 93.8 -145.3 94.65 -145.4 95.6 -145.4 96.5 -145.4 97.55 -145.35 98.55 -145.25 99.65 -145.0 100.75 -144.75 101.9 -144.35 103.0 -144.15 103.55 -144.05 103.9 -143.8 104.5 -143.6 105.0 -143.35 105.6 -143.1 106.1 -142.8 106.75 -142.45 107.25 -142.1 107.85 -141.7 108.4 -141.25 108.95 -140.8 109.35 -140.25 109.85 -139.7 110.2 -139.1 110.55 -138.45 110.75 -138.2 110.85 -137.9 110.9 -137.55 110.9 -137.2 110.95 -136.8 110.95 -136.35 110.9 -135.95 110.9 -135.4 110.85 -134.9 110.8 -134.25 110.7 -133.65 110.6 -132.95 110.5 -132.3 110.4 -131.4 110.25 -130.85 110.15 -129.65 109.95 -126.25 109.35 -125.6 109.15 -124.9 108.9 -124.3 108.6 -123.75 108.35 -123.2 108.05 -122.8 107.8 -122.3 107.45 -122.35 107.5 -121.5 106.9 -121.05 106.6 -120.75 106.4 -120.35 106.2 -120.0 106.05 -119.6 105.85 -119.15 105.75 -118.7 105.65 -118.2 105.65 -117.95 105.65 -117.65 105.65 -117.4 105.7 -117.1 105.75 -116.8 105.8 -116.55 105.85 -116.25 105.95 -116.0 106.05 -115.75 106.15 -115.5 106.25 -115.3 106.4 -115.1 106.55 -114.9 106.7 -114.75 106.9 -114.6 107.1 -114.55 107.3 -114.45 107.5 -114.45 107.75 -114.45 108.0 -114.55 108.25 -114.6 108.5 -114.7 108.75 -114.85 109.0 -115.0 109.25 -115.15 109.5 -115.35 109.75 -115.55 110.0 -115.75 110.2 -115.95 110.4 -116.15 110.6 -116.4 110.8 -116.6 110.95 -117.2 111.4 -117.9 111.7 -118.5 111.95 -119.15 112.05 -119.7 112.15 -120.4 112.15 -120.9 112.15 -121.7 112.1 -122.6 112.05 -122.95 112.05 -123.65 112.05 -124.15 112.1 -124.8 112.2 -125.4 112.4 -126.05 112.6 -126.6 113.0 -126.95 113.25 -127.25 113.55 -127.55 113.85 -127.8 114.2 -128.05 114.55 -128.25 114.95 -128.45 115.3 -128.65 115.75 -128.85 116.15 -129.0 116.65 -129.15 117.1 -129.3 117.65 -129.4 118.15 -129.6 118.75 -129.65 119.15 -129.85 119.95 -130.0 120.6 -130.1 120.95 -130.2 121.45 -130.3 121.9 -130.4 122.4 -130.5 122.9 -130.55 123.4 -130.6 123.85 -130.65 124.4 -130.65 124.85 -130.6 125.35 -130.55 125.85 -130.5 126.4 -130.4 126.9 -130.25 127.4 -130.05 127.9 -129.75 128.7 -129.35 129.4 -128.95 130.1 -128.45 130.7 -127.95 131.25 -127.4 131.75 -126.9 132.2 -126.35 132.6 -125.85 132.95 -125.35 133.25 -124.9 133.55 -124.45 133.75 -124.1 133.95 -123.75 134.1 -123.55 134.15 -123.35 134.25 -122.45 134.6 -121.5 134.75 -120.6 134.9 -119.7 134.95 -118.85 134.95 -117.9 134.8 -117.05 134.7 -116.1 134.5 -115.2 134.25 -114.2 133.95 -113.4 133.7 -112.3 133.3 -111.9 133.15 -110.3 132.55 -109.05 132.1 -108.2 131.8 -107.6 131.6 -106.9 131.35 -105.8 131.0 -104.6 130.65 -103.05 130.2 -101.4 129.8 -99.45 129.35 -97.45 128.95 -95.15 128.45 -92.8 128.15 -90.2 127.75 -87.6 127.5 -84.75 127.25 -81.95 127.2 -78.9 127.15 -75.95 127.3 -75.15 127.35 -74.35 127.4 -73.45 127.5 -72.6 127.55 -71.65 127.65 -70.7 127.8 -69.65 127.95 -68.65 128.1 -67.6 128.25 -66.5 128.45 -65.4 128.7 -64.25 128.95 -63.05 129.2 -61.85 129.5 -60.65 129.8 -59.4 130.15 -59.5 130.4 -59.55 130.65 -59.65 130.95 -59.75 131.3 -59.8 131.75 -59.9 132.15 -59.95 132.65 -60.0 133.15 -60.05 133.7 -60.05 134.25 -60.0 134.85 -59.9 135.4 -59.85 136.05 -59.65 136.65 -59.45 137.3 -59.2 137.95 -58.8 138.85 -58.2 139.6 -57.7 140.35 -57.0 140.95 -56.4 141.5 -55.7 142.0 -55.05 142.4 -54.3 142.8 -53.65 143.1 -53.0 143.35 -52.4 143.55 -51.8 143.7 -51.3 143.85 -50.85 143.95 -50.5 144.0 -50.2 144.05 -49.55 144.15 -49.0 144.15 -48.4 144.2 -47.85 144.1 -47.25 144.05 -46.65 143.9 -46.05 143.8 -45.35 143.55 -44.75 143.35 -43.9 143.05 -43.2 142.75 -42.2 142.3 -41.5 142.0 -40.2 141.45 -38.2 140.6 -37.75 140.4 -35.1 139.25 -32.85 138.3 -30.7 137.4 -28.95 136.7 -27.25 136.05 -25.9 135.55 -24.65 135.1 -23.6 134.8 -22.7 134.5 -21.95 134.35 -21.25 134.15 -20.7 134.1 -20.25 134.05 -19.85 134.05 -19.55 134.0 -19.15 134.05 -18.75 134.1 -18.4 134.15 -18.05 134.2 -17.7 134.3 -17.35 134.4 -16.9 134.55 -16.4 134.75 -15.8 135.05 -15.25 135.3 -14.4 135.75 -13.65 136.15 -12.55 136.75 -11.65 137.2 -10.05 138.05 -6.1 140.2 -6.9 139.75 -3.8 141.45 -1.5 142.65 0.95 143.95 2.7 144.9 4.5 145.85 5.85 146.5 7.2 147.2 8.15 147.65 9.1 148.05 9.8 148.35 10.4 148.6 10.9 148.75 11.35 148.85 11.75 148.9 12.05 148.95 12.5 148.95 13.0 148.95 13.35 148.95 13.8 148.9 14.25 148.8 14.75 148.65 15.4 148.45 16.05 148.2 16.95 147.8 17.85 147.4 19.15 146.75 20.35 146.2 22.1 145.3 23.6 144.55 26.0 143.35 27.25 142.75 31.1 140.8 41.2 135.7 43.3 134.65 45.35 133.7 46.4 133.45 47.75 133.15 49.1 132.95 50.4 132.75 51.8 132.6 53.15 132.5 54.55 132.5 55.9 132.5 57.4 132.55 58.75 132.6 60.3 132.75 61.7 132.85 63.4 133.05 64.8 133.2 66.65 133.4 67.75 133.55 70.1 133.85 71.25 134.0 72.35 134.15 73.2 134.3 74.05 134.4 74.65 134.5 75.45 134.65 76.25 134.8 76.55 134.85 77.1 134.95 77.5 135.0 77.95 135.05 78.4 135.1 78.85 135.1 79.35 135.1 79.9 135.1 80.5 135.05 81.85 135.0 83.05 134.8 84.2 134.6 85.25 134.35 86.2 134.1 87.25 133.75 88.0 133.45 89.05 133.05 96.5 130.15 90.85 132.35 91.9 131.95 92.7 131.65 93.75 131.3 94.75 131.05 95.9 130.75 97.05 130.6 97.55 130.5 97.95 130.45 98.4 130.4 98.9 130.4 99.45 130.4 100.05 130.4 100.65 130.45 101.45 130.5 102.25 130.6 103.25 130.7 104.3 130.85 105.55 131.05 106.85 131.25 108.5 131.55 110.1 131.85 112.2 132.2 115.45 132.8 118.6 133.4 121.05 133.9 123.75 134.45 123.2 134.35 127.9 135.3 130.1 135.75 131.35 136.0 133.0 136.3 134.25 136.5 135.65 136.75 136.9 136.85 138.2 137.0 139.55 137.05 140.9 137.1 142.4 137.1 144.7 137.1 146.7 136.9 148.55 136.75 150.2 136.45 151.7 136.2 153.0 135.85 154.15 135.5 155.15 135.1 156.0 134.7 156.75 134.25 157.4 133.9 157.9 133.5 158.35 133.15 158.7 132.75 158.9 132.5 159.15 132.2 159.5 131.75 159.85 131.2 160.15 130.7 160.45 130.1 160.75 129.5 160.95 128.9 161.2 128.3 161.35 127.65 161.5 127.0 161.6 126.4 161.65 125.75 161.6 125.2 161.6 124.55 161.45 124.05 161.3 123.5 161.0 123.0 160.95 122.9 160.85 122.8 160.8 122.75 160.7 122.65 160.6 122.55 160.4 122.4 160.25 122.25 159.95 122.05 159.75 121.9 159.3 121.55 159.8 121.95 158.4 120.9 157.7 120.4 157.15 119.95 156.3 119.35 155.5 118.75 155.05 118.45 154.85 118.25 154.5 118.0 154.3 117.85 154.05 117.65 153.85 117.45 153.65 117.3 153.5 117.15 153.3 117.0 153.2 116.85 153.05 116.7 152.95 116.55 152.85 116.4 152.75 116.2 152.7 116.05 152.6 115.85 152.5 115.55 152.45 115.2 152.4 114.9 152.35 114.55 152.35 114.2 152.4 113.9 152.45 113.55 152.55 113.25 152.6 112.9 152.75 112.6 152.85 112.3 153.0 112.0 153.15 111.7 153.3 111.45 153.45 111.2 153.65 110.95 154.0 110.5 154.4 110.15 154.8 109.8 155.3 109.55 155.7 109.3 156.2 109.1 156.6 108.95 157.05 108.8 157.45 108.7 157.85 108.65 158.2 108.6 158.55 108.55 158.8 108.5 159.05 108.5 159.2 108.5 159.35 108.5 160.1 108.5 160.8 108.7 161.45 108.85 162.05 109.15 162.6 109.4 163.15 109.8 163.55 110.05 164.2 110.55 165.05 111.25 165.3 111.4 165.95 111.9 166.55 112.25 167.25 112.7 168.0 113.0 168.85 113.4 169.8 113.6 170.0 113.65 170.2 113.7 170.5 113.8 170.8 113.85 171.2 113.95 171.6 114.0 172.0 114.05 172.45 114.1 173.0 114.1 173.45 114.1 174.05 114.1 174.55 114.1 175.15 114.05 175.75 113.9 176.35 113.8 176.9 113.6 177.85 113.3 178.8 112.8 179.75 112.35 180.65 111.7 181.55 111.05 182.35 110.25 183.15 109.4 183.8 108.5 184.5 107.55 185.0 106.55 185.55 105.5 185.85 104.4 186.15 103.25 186.25 102.1 186.3 100.9 186.1 99.75 185.9 98.55 185.45 97.4 185.05 96.4 184.4 95.45 183.8 94.6 183.05 93.8 182.4 93.15 181.6 92.5 180.95 92.0 180.2 91.5 179.6 91.1 178.95 90.8 178.5 90.55 178.0 90.35 177.75 90.2 177.55 90.15 177.15 90.0 176.7 89.85 176.3 89.75 175.85 89.65 175.45 89.55 175.05 89.5 174.7 89.4 174.3 89.35 173.95 89.35 173.6 89.3 173.3 89.3 172.95 89.3 172.65 89.3 172.35 89.3 172.1 89.3 171.8 89.3 171.95 88.7 172.15 88.1 172.3 87.45 172.45 86.75 172.6 86.05 172.75 85.3 172.95 84.45 173.05 83.65 173.2 82.75 173.3 81.85 173.4 80.95 173.5 80.0 173.6 78.95 173.6 77.95 173.65 76.9 173.65 75.85 173.65 74.15 173.65 73.3 173.6 71.9 173.55 70.85 173.5 69.6 173.4 68.55 173.3 67.35 173.1 66.4 172.9 65.35 172.6 64.45 172.3 63.5 171.9 62.7 171.45 61.85 170.9 61.15 170.3 60.45 169.55 59.9 168.7 59.25 167.65 58.85 166.7 58.45 165.55 58.3 164.55 58.15 163.45 58.15 162.45 58.15 161.35 58.3 160.35 58.45 159.35 58.7 158.5 58.9 157.6 59.2 156.85 59.4 156.15 59.7 155.7 59.85 155.05 60.1 153.75 60.6 152.5 61.3 151.35 61.95 150.3 62.7 149.3 63.4 148.4 64.2 147.55 64.95 146.75 65.8 146.1 66.5 145.45 67.3 144.9 68.0 144.4 68.75 143.95 69.35 143.6 69.95 143.3 70.45 143.0 70.95 141.7 70.7 140.5 70.6 139.3 70.45 138.2 70.45 137.15 70.4 136.15 70.5 135.25 70.55 134.35 70.7 133.55 70.85 132.75 71.05 132.1 71.25 131.4 71.45 130.85 71.65 130.25 71.9 129.8 72.1 129.35 72.35 128.05 73.0 126.8 73.95 125.65 74.8 124.55 75.9 123.55 76.9 122.55 78.1 121.7 79.15 120.85 80.4 120.1 81.5 119.35 82.75 118.7 83.8 118.1 84.95 117.6 85.9 117.05 87.0 116.75 87.6 116.25 88.7 115.85 89.5 115.45 90.5 115.3 90.9 114.75 92.15 114.35 93.1 114.1 93.65 113.75 94.45 113.45 95.05 113.1 95.75 112.7 96.35 112.3 97.0 111.85 97.5 111.35 98.1 110.8 98.6 110.2 99.1 109.55 99.55 109.3 99.7 109.1 99.8 108.8 100.0 108.5 100.2 108.1 100.4 107.7 100.6 107.25 100.8 106.75 100.95 106.25 101.15 105.75 101.3 105.2 101.4 104.65 101.45 104.05 101.5 103.5 101.45 102.9 101.35 102.35 101.15 101.7 100.9 101.15 100.5 100.7 100.15 100.3 99.6 100.0 99.15 99.7 98.55 99.45 98.05 99.15 97.3 98.6 95.9 98.65 96.05 98.35 95.3 98.05 94.75 97.7 94.05 97.3 93.5 96.8 92.85 96.25 92.4 95.45 91.7 94.4 91.3 93.45 90.85 92.3 90.7 91.2 90.5 89.9 90.55 88.7 90.6 87.35 90.8 86.05 91.0 84.6 91.35 83.3 91.7 81.8 92.15 80.5 92.5 78.9 93.05 77.95 93.35 76.0 94.0 73.9 94.75 72.0 95.5 70.35 96.2 68.8 96.95 67.6 97.55 66.2 98.35 65.95 98.5 63.95 99.6 62.65 100.35 61.8 100.8 60.6 101.4 59.5 101.85 58.25 102.4 56.85 102.8 55.3 103.25 53.55 103.6 52.3 103.85 51.65 104.0 50.6 104.2 49.75 104.3 48.75 104.5 47.9 104.6 46.9 104.75 46.0 104.8 45.05 104.85 44.1 104.9 43.15 104.9 42.2 104.8 41.15 104.75 40.15 104.6 39.1 104.45 38.05 104.2 36.95 103.95 35.75 103.55 34.85 103.25 33.7 102.8 33.25 102.6 31.75 102.0 30.6 101.55 29.9 101.3 28.85 100.9 28.0 100.65 27.0 100.4 26.05 100.25 25.0 100.1 24.0 100.1 22.85 100.1 21.7 100.3 21.2 100.35 20.8 100.45 20.45 100.55 20.1 100.65 19.8 100.75 19.5 100.85 19.4 100.9 18.95 101.05 18.6 101.2 18.4 101.25 18.05 101.35 17.75 101.45 17.35 101.55 16.95 101.65 16.5 101.7 15.95 101.8 15.6 101.85 15.4 101.85 14.95 101.9 14.5 101.9 13.9 101.9 13.3 101.9 12.55 101.85 11.8 101.8 10.95 101.7 10.05 101.55 9.1 101.35 8.1 101.1 7.05 100.85 6.0 100.45 4.85 100.05 3.7 99.55 2.4 98.95 1.35 98.3 0.4 97.7 -0.4 97.05 -1.1 96.45 -1.75 95.75 -2.25 95.3 -2.9 94.5 -3.75 93.55 -4.05 93.25 -4.7 92.5 -5.35 91.95 -6.1 91.25 -7.0 90.65 -7.95 89.95 -9.15 89.3 -9.6 89.05 -9.95 88.9 -10.5 88.6 -11.1 88.35 -11.85 88.05 -12.6 87.75 -13.5 87.45 -14.45 87.2 -15.5 86.9 -16.55 86.7 -17.75 86.45 -18.9 86.35 -20.2 86.25 -21.5 86.25 -22.9 86.25 -24.25 86.45 -24.8 86.55 -25.2 86.6 -25.95 86.7 -26.65 86.85 -27.55 87.05 -28.4 87.3 -29.45 87.6 -30.45 87.95 -31.55 88.4 -32.6 88.9 -33.75 89.5 -34.75 90.15 -35.9 90.95 -36.85 91.8 -37.9 92.8 -38.7 93.9 -39.5 95.0 -40.1 96.1 -40.6 97.15 -40.9 98.2 -41.15 99.15 -41.35 100.2 -41.45 100.9 -41.55 102.1 -41.65 103.35 -41.75 103.85 -41.9 104.85 -42.1 105.55 -42.4 106.45 -42.85 107.2 -43.35 108.0 -44.1 108.7 -45.0 109.55 -46.2 110.2 -47.3 110.85 -48.65 111.25 -49.95 111.6 -51.4 111.75 -52.85 111.9 -54.35 111.85 -55.8 111.75 -57.25 111.45 -58.75 111.15 -60.1 110.6 -61.5 110.1 -62.7 109.35 -63.95 108.6 -64.9 107.7 -65.45 107.2 -65.95 106.65 -66.4 106.1 -66.8 105.5 -67.2 104.9 -67.55 104.3 -67.9 103.75 -68.2 103.15 -68.45 102.6 -68.7 102.05 -68.9 101.55 -69.1 101.05 -69.25 100.65 -69.4 100.2 -69.5 99.95 -69.6 99.55 -69.9 98.65 -70.1 97.7 -70.3 96.95 -70.45 96.05 -70.55 95.45 -70.65 94.55 -70.8 93.45 -70.85 93.15 -70.95 92.4 -71.1 91.85 -71.25 91.15 -71.45 90.6 -71.7 89.95 -72.05 89.35 -72.4 88.7 -72.9 88.1 -73.15 87.8 -73.4 87.5 -73.65 87.2 -73.95 86.9 -74.3 86.6 -74.6 86.35 -74.95 86.05 -75.25 85.85 -75.6 85.6 -75.95 85.45 -76.3 85.25 -76.6 85.2 -76.95 85.1 -77.25 85.1 -77.55 85.1 -77.8 85.25 -78.0 85.35 -78.15 85.5 -78.35 85.7 -78.45 85.95 -78.6 86.15 -78.7 86.45 -78.75 86.75 -78.85 87.15 -78.9 87.5 -78.9 87.85 -78.9 88.25 -78.9 88.7 -78.85 89.15 -78.8 89.6 -78.7 90.05 -78.6 90.55 -78.8 90.3 -78.95 90.1 -79.15 89.85 -79.35 89.6 -79.6 89.3 -79.8 89.0 -80.05 88.7 -80.25 88.35 -80.5 88.0 -80.75 87.65 -81.0 87.3 -81.25 86.9 -81.5 86.5 -81.75 86.1 -82.0 85.65 -82.3 85.25 -83.0 84.05 -83.55 82.9 -84.0 81.9 -84.4 80.9 -84.7 80.1 -85.0 79.15 -85.15 78.6 -85.45 77.6 -85.75 76.6 -85.9 76.1 -86.15 75.3 -86.45 74.65 -86.75 73.9 -87.15 73.15 -87.6 72.35 -88.2 71.55 L-88.2 71.55" fill="#000000" fill-rule="evenodd" stroke="none"/>
    <path d="M124.65 46.85 Q124.3 46.4 124.05 45.95 123.75 45.5 123.6 45.0 123.4 44.55 123.25 44.1 123.15 43.7 123.1 43.25 123.0 42.85 123.0 42.45 122.95 42.15 122.95 41.8 122.95 41.55 123.0 41.25 123.0 41.1 123.0 40.9 123.05 40.3 123.2 39.8 123.3 39.3 123.5 38.85 123.65 38.4 123.9 38.0 124.1 37.65 124.4 37.25 124.55 37.05 124.95 36.45 125.3 35.95 125.5 35.6 125.85 35.15 126.1 34.7 126.4 34.15 126.7 33.55 127.1 32.6 127.35 31.75 127.55 30.95 127.6 30.15 127.65 29.45 127.65 28.7 127.6 28.2 127.5 27.4 127.35 26.35 127.35 26.1 127.25 25.4 127.3 24.8 127.3 24.1 127.45 23.45 127.6 22.7 127.9 21.9 128.25 21.05 128.8 20.25 129.3 19.45 130.0 18.75 130.65 18.05 131.45 17.4 132.25 16.8 133.15 16.25 134.05 15.75 135.0 15.35 136.0 14.95 137.0 14.65 138.05 14.4 139.1 14.25 140.15 14.15 141.2 14.15 142.1 14.15 143.1 14.3 144.05 14.45 145.0 14.7 146.0 15.0 146.9 15.35 147.9 15.75 148.75 16.25 149.6 16.75 150.35 17.35 151.15 17.95 151.75 18.65 152.4 19.4 152.8 20.2 153.25 21.0 153.45 21.9 153.55 22.35 153.6 22.85 153.65 23.3 153.6 23.8 153.6 24.25 153.55 24.75 153.45 25.2 153.35 25.7 153.25 26.15 153.05 26.6 152.9 27.05 152.7 27.5 152.5 27.9 152.3 28.3 152.05 28.7 151.8 29.05 151.4 29.6 150.95 30.0 150.6 30.4 150.1 30.75 149.75 31.0 149.25 31.3 149.1 31.4 148.4 31.75 147.9 32.05 147.6 32.25 147.15 32.55 146.8 32.85 146.4 33.15 146.1 33.6 145.75 34.0 145.45 34.6 145.25 35.0 145.15 35.4 145.0 35.75 144.95 36.1 144.9 36.35 144.9 36.7 144.85 36.8 144.85 37.3 144.85 37.65 144.8 37.85 144.75 38.15 144.7 38.4 144.6 38.75 144.45 39.0 144.3 39.35 144.05 39.7 143.9 39.9 143.75 40.05 143.6 40.2 143.4 40.35 143.25 40.45 143.05 40.6 142.85 40.7 142.6 40.9 142.6 40.9 142.0 41.2 141.6 41.45 141.25 41.65 140.8 41.9 140.3 42.2 139.75 42.55 139.15 42.95 136.6 44.6 135.65 45.4 135.15 45.85 134.7 46.25 134.35 46.65 134.0 47.05 133.7 47.35 133.45 47.7 133.3 47.9 133.05 48.25 132.8 48.6 132.65 48.75 132.5 49.0 132.3 49.15 132.1 49.3 131.9 49.45 131.65 49.6 131.4 49.7 131.0 49.85 130.5 49.9 130.05 49.9 129.6 49.85 129.15 49.8 128.65 49.65 128.2 49.5 127.75 49.3 127.3 49.05 126.85 48.8 126.4 48.5 126.0 48.2 125.6 47.9 125.25 47.55 124.9 47.2 124.65 46.85 L124.65 46.85" fill="#000000" fill-rule="evenodd" stroke="none"/>
    <path d="M160.2 34.35 Q160.1 34.75 160.1 35.2 160.1 35.65 160.2 36.1 160.35 36.55 160.55 36.95 160.75 37.4 161.0 37.8 161.25 38.2 161.55 38.6 161.8 38.95 162.15 39.3 162.4 39.6 162.7 39.95 162.9 40.15 163.25 40.5 163.75 41.05 164.35 41.5 164.9 41.95 165.5 42.35 166.05 42.65 166.65 42.95 167.2 43.25 167.75 43.45 168.3 43.65 168.85 43.8 169.3 43.95 169.8 44.05 170.2 44.15 170.65 44.25 170.95 44.3 171.4 44.35 171.65 44.4 171.9 44.45 172.15 44.45 172.35 44.45 172.5 44.5 172.7 44.5 172.85 44.5 172.95 44.5 173.1 44.5 173.2 44.45 173.3 44.45 173.4 44.45 173.45 44.45 173.55 44.4 173.6 44.4 173.65 44.4 174.1 44.25 174.55 44.0 174.95 43.7 175.3 43.35 175.65 42.95 176.0 42.5 176.3 42.05 176.55 41.55 176.8 41.05 176.95 40.45 177.1 39.9 177.2 39.35 177.25 38.75 177.25 38.15 177.25 37.6 177.15 37.05 177.0 36.4 176.75 35.8 176.5 35.2 176.1 34.7 175.75 34.25 175.35 33.8 174.95 33.4 174.5 33.05 174.1 32.75 173.65 32.5 173.3 32.25 172.9 32.05 172.6 31.9 172.3 31.75 172.1 31.7 171.85 31.6 171.0 31.25 170.1 31.05 169.2 30.9 168.25 30.8 167.35 30.75 166.4 30.85 165.5 30.95 164.65 31.15 163.8 31.35 163.05 31.65 162.3 31.95 161.75 32.4 161.15 32.8 160.75 33.3 160.35 33.8 160.2 34.35 L160.2 34.35" fill="#000000" fill-rule="evenodd" stroke="none"/>
  </g>
  <defs>
    <linearGradient gradientTransform="matrix(0.0, 0.1513, -0.1513, 0.0, 16.0, -13.85)" gradientUnits="userSpaceOnUse" id="gradient0" spreadMethod="pad" x1="-819.2" x2="819.2">
      <stop offset="0.0" stop-color="#fff23c" stop-opacity="0.0"/>
      <stop offset="0.3803921568627451" stop-color="#fff23c" stop-opacity="0.84705883"/>
      <stop offset="0.6039215686274509" stop-color="#fff23c" stop-opacity="0.8"/>
      <stop offset="1.0" stop-color="#fff23c" stop-opacity="0.0"/>
    </linearGradient>
  </defs>
</svg>
