<?xml version="1.0" encoding="UTF-8" standalone="no"?>
<svg xmlns:xlink="http://www.w3.org/1999/xlink" height="500.0px" width="400.0px" xmlns="http://www.w3.org/2000/svg">
  <g transform="matrix(1.0, 0.0, 0.0, 1.0, 200.0, 250.0)">
    <path d="M20.6 194.25 Q23.4 193.2 23.8 193.0 25.65 192.3 27.0 191.7 28.65 191.0 30.05 190.3 31.6 189.45 32.9 188.6 34.35 187.7 35.6 186.65 36.9 185.55 38.0 184.3 39.1 183.0 40.05 181.5 41.0 179.9 41.7 178.1 41.6 178.1 38.05 177.8 36.05 177.6 34.8 177.6 31.35 177.6 28.05 177.6 24.65 177.65 21.35 177.75 17.95 177.85 14.65 177.95 11.25 178.1 7.9 178.35 4.55 178.55 1.25 178.85 -2.15 179.15 -5.45 179.5 -8.85 179.85 -12.15 180.3 -15.5 180.75 -18.8 181.3 -21.5 181.75 -24.2 182.35 -26.85 182.95 -29.5 183.7 -32.05 184.4 -34.7 185.3 -37.2 186.15 -39.85 187.15 -42.25 188.05 -44.9 189.15 -47.2 190.15 -49.9 191.3 -52.05 192.25 -54.85 193.55 -56.05 194.05 -59.8 195.8 -62.0 196.8 -64.15 197.75 -66.4 198.7 -68.6 199.5 -70.85 200.4 -73.05 201.15 -75.3 201.95 -77.55 202.65 -79.85 203.35 -82.1 203.9 -84.4 204.5 -86.7 205.0 -89.0 205.45 -91.35 205.8 -93.7 206.2 -96.05 206.4 -98.95 206.7 -101.7 206.75 -104.55 206.85 -107.3 206.7 -110.1 206.55 -112.75 206.15 -115.5 205.75 -118.1 205.05 -120.75 204.4 -123.3 203.45 -125.9 202.5 -128.35 201.25 -130.85 200.0 -133.2 198.45 -135.6 196.9 -137.85 195.05 -138.25 194.7 -138.65 194.3 -139.05 193.95 -139.45 193.55 -139.85 193.1 -140.2 192.7 -140.55 192.25 -140.9 191.8 -141.25 191.35 -141.55 190.85 -141.9 190.4 -142.2 189.9 -142.45 189.4 -142.75 188.95 -143.0 188.45 -143.2 187.95 -143.85 186.55 -144.45 185.2 -145.05 183.75 -145.5 182.4 -146.05 180.95 -146.45 179.55 -146.9 178.1 -147.2 176.7 -147.55 175.2 -147.75 173.75 -148.0 172.25 -148.1 170.75 -148.2 169.25 -148.15 167.7 -148.1 166.15 -147.9 164.6 -149.15 164.3 -150.3 163.9 -151.45 163.45 -152.45 162.95 -153.45 162.4 -154.3 161.8 -155.2 161.15 -155.9 160.4 -156.65 159.6 -157.2 158.7 -157.75 157.8 -158.15 156.8 -158.55 155.75 -158.75 154.55 -159.0 153.35 -159.0 152.0 -159.0 151.3 -158.9 150.55 -158.8 149.8 -158.55 149.05 -158.35 148.35 -158.0 147.65 -157.7 147.0 -157.3 146.35 -156.9 145.7 -156.45 145.15 -155.95 144.6 -155.45 144.15 -154.95 143.7 -154.4 143.35 -153.8 143.0 -153.25 142.8 -153.25 142.5 -153.15 144.9 -153.1 146.15 -152.9 147.0 -152.8 147.55 -152.6 148.0 -152.45 148.45 -152.15 148.85 -151.9 149.2 -151.6 149.5 -151.25 149.8 -150.9 149.95 -150.55 150.1 -150.15 150.2 -149.75 150.25 -149.3 150.15 -148.9 150.1 -148.5 149.9 -148.05 149.7 -147.65 149.35 -147.05 148.85 -146.5 148.4 -145.9 147.9 -145.35 147.4 -144.8 146.9 -144.25 146.35 -143.7 145.85 -143.15 145.3 -142.6 144.8 -142.1 144.25 -141.55 143.7 -141.05 143.15 -140.55 142.55 -140.05 142.0 -139.6 141.4 -139.15 140.85 -135.1 135.7 -129.5 128.2 -111.45 104.05 -119.9 115.35 -121.05 113.9 -121.85 112.4 -122.65 110.9 -123.15 109.35 -123.65 107.9 -123.85 106.3 -124.05 104.8 -124.0 103.25 -123.95 101.7 -123.65 100.15 -123.35 98.6 -122.8 97.0 -122.3 95.5 -121.55 93.9 -120.85 92.35 -119.9 90.75 -119.25 89.6 -118.55 88.45 -117.85 87.35 -117.05 86.25 -116.3 85.2 -115.5 84.15 -114.7 83.1 -113.85 82.1 -113.0 81.1 -112.1 80.1 -111.2 79.15 -110.3 78.2 -109.35 77.25 -108.4 76.35 -107.45 75.45 -106.45 74.55 -102.95 71.5 -99.7 68.2 -96.55 64.95 -93.55 61.45 -90.65 58.05 -87.95 54.35 -85.3 50.8 -82.8 46.95 -80.4 43.2 -78.1 39.2 -75.9 35.35 -73.85 31.25 -71.85 27.25 -69.95 23.0 -68.1 18.9 -66.35 14.55 -65.45 12.3 -64.65 10.25 -63.8 8.05 -63.05 5.95 -62.25 3.75 -61.55 1.65 -60.8 -0.6 -60.15 -2.75 -59.5 -4.95 -58.9 -7.15 -58.35 -9.4 -57.85 -11.6 -57.35 -13.85 -56.95 -16.1 -56.55 -18.4 -56.25 -20.65 -55.95 -23.15 -55.75 -24.75 -55.45 -27.0 -55.25 -28.9 -55.0 -31.1 -54.8 -33.0 -54.6 -35.2 -54.45 -37.15 -54.3 -39.3 -54.2 -41.3 -54.15 -43.45 -54.1 -45.45 -54.1 -47.6 -54.2 -49.6 -54.25 -51.75 -54.45 -53.75 -54.5 -54.25 -54.55 -54.75 -54.6 -55.25 -54.7 -55.75 -54.75 -56.2 -54.85 -56.7 -54.95 -57.2 -55.05 -57.7 -55.15 -58.2 -55.25 -58.65 -55.35 -59.15 -55.5 -59.65 -55.65 -60.1 -55.8 -60.55 -55.95 -61.05 -56.1 -61.5 -57.4 -65.1 -58.1 -68.6 -58.8 -72.1 -58.95 -75.45 -59.05 -78.75 -58.55 -81.95 -58.05 -85.1 -57.0 -88.1 -56.0 -91.05 -54.4 -93.85 -52.8 -96.6 -50.65 -99.15 -48.55 -101.7 -45.9 -104.0 -43.3 -106.3 -40.15 -108.35 -38.4 -109.5 -36.6 -110.55 -34.8 -111.6 -32.95 -112.55 -31.1 -113.5 -29.25 -114.3 -27.3 -115.15 -25.4 -115.9 -23.45 -116.6 -21.45 -117.2 -19.45 -117.8 -17.45 -118.25 -15.4 -118.7 -13.35 -119.05 -11.3 -119.35 -9.2 -119.55 -7.85 -119.65 -6.5 -119.75 -5.2 -119.85 -3.85 -119.9 -2.5 -119.95 -1.15 -120.0 0.2 -120.05 1.55 -120.05 2.9 -120.05 4.25 -120.05 5.6 -120.0 6.95 -119.95 8.3 -119.9 9.65 -119.85 11.0 -119.75 12.3 -119.7 13.45 -119.6 14.5 -119.4 15.55 -119.15 16.55 -118.8 17.5 -118.45 18.4 -117.95 19.3 -117.45 20.1 -116.85 20.9 -116.2 21.65 -115.45 22.35 -114.7 23.0 -113.85 23.65 -113.0 24.2 -112.0 24.7 -111.0 25.15 -109.9 25.35 -109.5 25.55 -109.05 25.75 -108.65 26.0 -108.2 26.2 -107.85 26.45 -107.4 26.7 -107.05 26.95 -106.6 27.05 -106.5 27.5 -105.8 27.8 -105.3 28.0 -105.0 28.3 -104.55 28.5 -104.15 28.75 -103.75 28.95 -103.35 56.25 -52.3 37.7 -87.1 42.7 -77.65 46.2 -70.7 47.0 -69.15 47.85 -67.35 48.55 -65.9 49.45 -63.95 49.3 -64.3 51.0 -60.6 51.95 -58.55 52.6 -57.2 53.45 -55.35 54.2 -53.85 55.1 -52.05 55.9 -50.5 56.85 -48.8 57.75 -47.25 58.75 -45.6 59.75 -44.05 60.15 -43.45 60.55 -42.85 61.0 -42.25 61.4 -41.7 61.85 -41.1 62.3 -40.55 62.75 -39.95 63.2 -39.4 63.7 -38.85 64.15 -38.35 64.65 -37.8 65.2 -37.3 65.7 -36.75 66.25 -36.25 66.8 -35.75 67.35 -35.3 68.05 -34.75 68.85 -34.3 69.65 -33.95 70.5 -33.7 71.35 -33.45 72.25 -33.4 73.15 -33.3 74.0 -33.4 74.9 -33.5 75.75 -33.7 76.6 -33.95 77.35 -34.3 78.15 -34.65 78.8 -35.15 79.5 -35.65 80.0 -36.25 80.05 -36.35 80.75 -36.95 81.0 -36.55 81.15 -36.0 81.25 -35.5 81.3 -34.85 81.3 -34.2 81.2 -33.5 81.15 -32.8 80.95 -32.0 80.75 -31.25 80.45 -30.45 80.2 -29.65 79.8 -28.85 79.45 -28.0 79.0 -27.2 78.5 -26.4 78.0 -25.65 77.15 -24.45 76.2 -23.45 75.3 -22.5 74.25 -21.7 73.25 -21.0 72.15 -20.4 71.05 -19.85 69.9 -19.5 68.75 -19.15 67.45 -18.95 66.25 -18.75 64.95 -18.7 63.7 -18.65 62.3 -18.7 61.0 -18.8 59.55 -19.0 59.55 -18.8 59.55 -18.2 59.55 -17.7 59.55 -17.35 59.65 -14.1 59.65 -11.1 59.65 -7.9 59.6 -4.85 59.55 -1.7 59.35 1.35 59.2 4.5 58.9 7.55 58.65 10.7 58.25 13.7 57.8 16.85 57.25 19.85 56.7 22.95 56.0 25.95 55.3 29.05 54.45 32.05 53.95 33.85 53.3 35.65 52.65 37.45 51.9 39.2 51.2 40.9 50.4 42.6 49.6 44.3 48.7 45.95 47.85 47.6 46.85 49.25 45.95 50.8 44.9 52.45 43.9 54.0 42.85 55.6 41.8 57.1 40.7 58.7 40.35 59.2 38.1 62.55 36.5 64.85 35.4 66.25 34.3 67.6 32.55 69.35 -0.3 102.25 29.6 72.25 28.85 73.05 27.4 74.4 25.85 75.85 25.2 76.55 18.85 82.8 13.45 88.3 12.5 89.25 8.2 93.5 4.95 96.7 2.95 98.75 0.15 101.65 -2.05 104.1 -2.85 105.0 -3.55 105.9 -4.3 106.8 -5.0 107.75 -5.7 108.7 -6.3 109.65 -6.95 110.65 -7.5 111.65 -8.05 112.7 -8.55 113.75 -9.05 114.8 -9.45 115.9 -9.85 117.0 -10.15 118.1 -10.5 119.3 -10.7 120.45 -10.9 121.45 -10.95 122.4 -11.05 123.35 -11.0 124.25 -10.95 125.2 -10.8 126.1 -10.65 127.0 -10.4 127.85 -10.15 128.7 -9.75 129.5 -9.4 130.3 -8.9 131.1 -8.4 131.9 -7.75 132.65 -7.15 133.4 -6.4 134.1 -5.8 134.7 -5.1 135.25 -4.5 135.8 -3.8 136.3 -3.15 136.8 -2.4 137.25 -1.75 137.75 -1.0 138.15 -0.3 138.6 0.45 138.95 1.2 139.35 2.0 139.7 2.75 140.05 3.55 140.4 4.3 140.7 5.1 141.0 7.05 141.7 9.15 142.4 11.1 143.05 13.2 143.65 15.2 144.2 17.3 144.75 19.3 145.25 21.45 145.75 23.35 146.2 25.6 146.65 27.4 147.05 29.75 147.55 30.45 147.7 33.95 148.4 36.5 148.9 38.1 149.25 -82.7 123.75 59.25 153.65 71.65 156.25 80.35 158.4 81.45 158.65 82.55 159.0 83.65 159.3 84.75 159.65 85.85 160.0 86.95 160.4 88.0 160.75 89.1 161.2 90.15 161.6 91.25 162.1 92.3 162.5 93.35 163.0 94.4 163.45 95.45 163.95 96.45 164.45 97.55 164.95 98.15 165.25 98.75 165.6 99.35 165.9 99.9 166.3 100.5 166.65 101.05 167.05 101.6 167.45 102.15 167.9 102.7 168.35 103.25 168.8 103.75 169.25 104.25 169.75 104.75 170.2 105.25 170.7 105.7 171.2 106.15 171.7 106.9 172.55 107.4 173.45 107.95 174.3 108.25 175.2 108.5 176.1 108.6 176.95 108.65 177.8 108.5 178.65 108.3 179.5 107.95 180.3 107.55 181.1 107.0 181.85 106.4 182.55 105.6 183.2 104.8 183.9 103.8 184.45 103.35 184.7 102.85 184.95 102.35 185.15 101.85 185.4 101.35 185.6 100.85 185.8 100.35 186.0 99.8 186.2 99.4 186.35 98.75 186.55 97.8 186.9 97.7 186.95 97.1 187.15 96.7 187.3 96.1 187.55 95.65 187.7 91.8 189.3 91.15 189.65 90.75 189.9 90.45 190.15 90.15 190.45 89.95 190.7 89.75 191.0 89.65 191.3 89.6 191.6 89.6 191.9 89.6 192.2 89.7 192.45 89.85 192.75 90.05 192.95 90.3 193.2 90.6 193.45 90.95 193.65 91.35 193.8 91.9 194.0 92.4 194.2 92.95 194.35 93.5 194.55 94.05 194.7 94.55 194.85 95.1 195.0 95.65 195.15 96.2 195.3 96.75 195.45 97.3 195.55 97.85 195.65 98.4 195.8 98.95 195.9 99.5 195.95 100.05 196.05 102.7 196.4 110.15 197.05 116.5 197.65 120.25 198.25 121.0 198.35 121.75 198.5 122.55 198.65 123.3 198.85 124.05 199.0 124.8 199.2 125.6 199.4 126.3 199.6 127.1 199.85 127.8 200.1 128.55 200.35 129.3 200.65 130.0 200.9 130.7 201.25 131.4 201.55 132.1 201.9 133.5 202.6 134.55 203.5 135.6 204.4 136.35 205.45 137.05 206.45 137.4 207.55 137.8 208.65 137.8 209.8 137.85 210.95 137.5 212.05 137.2 213.2 136.55 214.25 135.85 215.35 134.85 216.3 133.8 217.25 132.5 218.05 132.05 218.3 131.55 218.55 131.05 218.8 130.55 219.05 130.05 219.3 129.55 219.5 129.0 219.7 128.5 219.85 127.95 220.05 127.45 220.2 126.9 220.35 126.35 220.45 125.8 220.6 125.3 220.65 124.75 220.75 124.2 220.8 122.85 220.9 121.65 221.0 120.3 221.1 119.05 221.1 117.75 221.15 116.5 221.15 115.15 221.15 113.9 221.05 112.6 221.0 111.35 220.85 110.05 220.7 108.8 220.5 107.5 220.3 106.25 220.0 104.95 219.7 103.7 219.35 103.5 219.3 103.25 219.2 103.05 219.1 102.8 219.0 102.6 218.95 102.35 218.85 102.15 218.75 101.95 218.6 101.7 218.5 101.5 218.4 101.3 218.25 101.05 218.15 100.85 218.0 100.6 217.9 100.4 217.75 100.2 217.6 101.45 217.65 102.6 217.65 103.85 217.65 104.95 217.55 106.15 217.45 107.25 217.25 108.45 217.05 109.5 216.7 110.65 216.4 111.65 215.95 112.75 215.45 113.75 214.8 114.8 214.15 115.8 213.35 116.8 212.5 117.7 211.5 114.5 210.95 114.35 210.95 112.35 210.85 110.3 210.8 108.35 210.8 106.3 210.85 104.35 210.85 102.25 211.0 100.3 211.1 98.25 211.25 96.3 211.4 94.25 211.6 92.35 211.8 90.25 212.0 88.35 212.25 86.25 212.5 84.45 212.75 82.25 213.05 80.15 213.35 78.5 213.55 76.5 213.8 74.7 214.0 72.75 214.2 70.95 214.35 68.95 214.55 67.15 214.65 65.2 214.75 63.35 214.85 61.4 214.9 59.55 214.85 57.65 214.85 55.75 214.75 53.85 214.6 51.95 214.4 51.35 214.35 50.75 214.25 50.1 214.15 49.5 214.05 48.9 213.95 48.25 213.8 47.65 213.65 47.05 213.5 46.45 213.35 45.85 213.15 45.25 213.0 44.65 212.75 44.05 212.55 43.45 212.35 42.9 212.15 42.3 211.9 41.2 211.4 40.25 210.8 39.4 210.15 38.7 209.4 38.05 208.65 37.65 207.8 37.25 206.95 37.15 206.05 37.0 205.15 37.1 204.25 37.25 203.3 37.65 202.4 38.05 201.5 38.75 200.65 39.45 199.8 40.4 199.05 40.95 198.6 41.6 198.15 42.15 197.75 42.8 197.3 43.45 196.95 44.1 196.55 44.75 196.2 45.4 195.8 46.05 195.45 46.75 195.1 47.4 194.8 48.15 194.45 48.75 194.2 49.5 193.85 49.95 193.65 50.85 193.2 53.2 192.15 57.6 190.5 62.35 188.7 64.35 187.8 64.6 187.7 64.8 187.55 65.05 187.45 65.25 187.25 65.45 187.1 65.65 186.95 65.85 186.75 66.05 186.55 66.25 186.4 66.45 186.15 64.9 187.75 66.85 185.75 67.05 185.55 67.25 185.35 67.45 185.15 67.65 185.0 68.1 185.35 65.85 183.55 64.8 182.7 64.0 182.2 63.85 182.1 63.7 182.05 63.55 181.95 63.35 181.9 63.2 181.85 63.05 181.75 62.85 181.7 62.7 181.65 62.5 181.6 62.35 181.55 62.15 181.55 62.0 181.5 61.8 181.45 61.65 181.4 61.45 181.4 61.25 181.35 61.15 181.35 61.1 181.35 61.0 181.35 60.9 181.35 60.8 181.35 60.7 181.4 60.6 181.4 60.5 181.4 60.4 181.45 60.3 181.5 60.2 181.55 60.15 181.6 60.05 181.65 60.0 181.7 59.9 181.75 59.9 181.8 58.85 183.15 57.65 184.35 56.5 185.55 55.2 186.55 53.95 187.5 52.55 188.35 51.25 189.2 49.75 189.9 48.4 190.55 46.8 191.2 45.4 191.75 43.8 192.25 42.35 192.75 40.65 193.2 39.3 193.6 37.5 194.05 36.45 194.3 35.6 194.5 34.6 194.75 33.7 194.9 32.7 195.1 31.75 195.25 30.8 195.4 29.85 195.45 28.85 195.55 27.95 195.55 26.95 195.55 26.0 195.45 25.0 195.4 24.05 195.2 23.05 195.05 22.1 194.75 21.95 194.7 20.6 194.25 L20.6 194.25 M62.85 177.0 Q63.25 177.25 63.75 177.5 64.1 177.7 64.6 177.95 64.55 177.95 65.5 178.4 66.0 178.7 66.35 178.9 66.85 179.15 67.2 179.35 67.65 179.6 68.05 179.85 68.45 180.1 68.85 180.35 69.25 180.65 69.6 180.9 70.15 181.35 70.6 181.85 71.05 182.35 71.3 182.95 71.6 183.45 71.7 184.05 71.85 184.6 71.85 185.2 71.8 185.8 71.65 186.35 71.5 186.9 71.15 187.45 70.85 188.0 70.4 188.5 69.95 189.0 69.4 189.45 69.1 189.65 68.85 189.85 68.55 190.05 68.3 190.2 68.0 190.4 67.75 190.6 67.45 190.8 67.2 190.95 66.9 191.15 66.6 191.3 66.3 191.45 66.05 191.6 65.75 191.8 65.45 191.9 65.15 192.05 64.85 192.2 63.1 192.9 58.8 194.5 54.95 195.9 52.8 196.85 52.15 197.15 51.6 197.35 50.95 197.65 50.4 197.9 49.8 198.15 49.2 198.45 48.6 198.7 48.05 199.0 47.45 199.3 46.9 199.6 46.3 199.9 45.75 200.25 45.2 200.55 44.65 200.9 44.1 201.25 43.55 201.6 42.9 202.05 42.4 202.55 41.95 203.0 41.65 203.45 41.35 203.9 41.25 204.4 41.1 204.85 41.2 205.3 41.25 205.75 41.5 206.15 41.75 206.6 42.15 206.95 42.55 207.35 43.1 207.75 43.7 208.1 44.45 208.4 44.65 208.5 44.9 208.6 45.1 208.7 45.35 208.75 45.55 208.85 45.8 208.95 46.0 209.0 46.25 209.1 46.45 209.2 46.7 209.25 46.95 209.35 47.15 209.4 47.4 209.45 47.65 209.55 47.85 209.6 48.1 209.65 49.4 210.0 50.75 210.2 52.05 210.45 53.45 210.6 54.75 210.75 56.15 210.8 57.4 210.85 58.8 210.85 60.1 210.85 61.5 210.8 62.75 210.75 64.2 210.65 65.4 210.6 66.85 210.45 67.75 210.4 69.55 210.25 75.3 209.75 84.95 208.7 96.35 207.4 100.35 207.0 101.55 206.9 102.7 206.8 103.85 206.75 105.0 206.7 106.2 206.65 107.35 206.65 108.55 206.65 109.65 206.7 110.85 206.75 112.0 206.85 113.15 206.95 114.3 207.1 115.5 207.3 116.65 207.5 117.8 207.7 118.95 207.95 119.3 208.05 119.65 208.2 120.0 208.35 120.35 208.55 120.7 208.7 121.0 208.95 121.35 209.2 121.6 209.45 121.9 209.75 122.15 210.05 122.4 210.3 122.6 210.6 122.8 210.9 122.9 211.2 123.05 211.5 123.05 211.8 123.1 212.2 123.1 212.6 123.05 212.95 122.95 213.3 122.85 213.6 122.7 213.9 122.55 214.15 122.3 214.4 122.1 214.65 121.85 214.85 121.6 215.05 121.3 215.25 121.05 215.45 120.7 215.6 120.5 215.75 120.1 215.95 119.85 216.1 118.75 216.65 119.7 216.75 120.55 216.8 121.45 216.85 122.3 216.85 123.15 216.8 124.0 216.75 124.85 216.65 125.65 216.5 126.5 216.3 127.3 216.05 128.1 215.8 128.85 215.45 129.65 215.1 130.4 214.6 131.15 214.15 131.85 213.55 132.3 213.15 132.65 212.75 133.0 212.35 133.2 211.9 133.45 211.5 133.6 211.05 133.7 210.6 133.75 210.15 133.75 209.7 133.65 209.3 133.55 208.85 133.35 208.45 133.1 208.0 132.8 207.6 132.45 207.2 132.0 206.85 131.65 206.55 131.3 206.3 130.9 206.0 130.5 205.75 130.15 205.5 129.75 205.25 129.35 205.0 128.95 204.8 128.5 204.6 128.1 204.4 127.65 204.2 127.25 204.05 126.8 203.85 126.4 203.75 125.95 203.65 125.55 203.55 121.95 202.9 115.9 202.15 108.6 201.25 106.25 200.9 96.6 199.4 90.8 198.0 90.25 197.85 89.75 197.7 89.25 197.5 88.8 197.25 88.35 197.0 87.95 196.7 87.55 196.4 87.2 196.05 86.85 195.65 86.55 195.25 86.25 194.8 86.05 194.35 85.85 193.85 85.75 193.3 85.6 192.75 85.6 192.1 85.55 191.5 85.65 190.9 85.7 190.35 85.85 189.85 86.0 189.35 86.25 188.9 86.5 188.45 86.8 188.05 87.1 187.65 87.5 187.3 87.85 186.95 88.3 186.6 88.7 186.3 89.2 186.0 89.7 185.75 90.2 185.5 91.45 184.95 93.65 184.15 96.2 183.25 97.1 182.9 101.15 181.25 102.5 180.45 102.9 180.2 103.2 179.95 103.5 179.7 103.75 179.4 103.95 179.1 104.15 178.8 104.3 178.5 104.35 178.2 104.45 177.9 104.45 177.55 104.4 177.2 104.35 176.85 104.25 176.5 104.1 176.1 103.95 175.75 103.7 175.35 103.55 175.1 103.4 174.85 103.25 174.6 103.05 174.35 102.9 174.1 102.75 173.85 102.55 173.6 102.35 173.4 102.15 173.15 101.95 172.95 101.75 172.7 101.55 172.55 101.35 172.3 101.1 172.15 100.9 171.95 100.65 171.8 100.05 171.4 99.55 171.1 98.95 170.7 98.45 170.35 97.85 170.0 97.3 169.65 96.7 169.3 96.15 168.95 95.55 168.6 95.0 168.3 94.4 167.95 93.85 167.65 93.25 167.35 92.65 167.05 92.05 166.8 91.45 166.5 89.65 165.7 87.7 164.95 85.9 164.25 83.95 163.6 82.1 163.0 80.1 162.4 78.25 161.85 76.25 161.35 74.4 160.85 72.35 160.35 70.5 159.9 68.4 159.45 66.65 159.05 64.5 158.6 63.0 158.3 60.55 157.75 22.0 149.85 15.0 148.3 13.7 148.0 12.45 147.7 11.15 147.4 9.9 147.05 8.65 146.7 7.4 146.3 6.15 145.9 4.95 145.45 3.7 145.0 2.5 144.5 1.3 144.0 0.15 143.45 -1.05 142.85 -2.2 142.2 -3.35 141.55 -4.45 140.85 -6.45 139.55 -8.1 138.1 -9.75 136.7 -11.0 135.1 -12.25 133.55 -13.15 131.85 -14.0 130.15 -14.5 128.3 -15.0 126.5 -15.15 124.6 -15.25 122.7 -14.95 120.7 -14.7 118.7 -14.0 116.65 -13.3 114.6 -12.25 112.45 -11.85 111.7 -11.5 111.0 -11.1 110.3 -10.75 109.6 -10.35 108.85 -9.95 108.2 -9.5 107.45 -9.1 106.8 -8.65 106.1 -8.2 105.45 -7.75 104.75 -7.3 104.1 -6.8 103.45 -6.3 102.85 -5.8 102.2 -5.25 101.65 0.2 95.55 12.15 83.95 14.2 81.95 15.7 80.45 17.6 78.6 19.25 76.95 21.1 75.1 22.7 73.4 24.5 71.55 26.1 69.8 27.85 67.9 29.4 66.1 31.05 64.15 32.6 62.3 34.2 60.3 35.65 58.35 37.15 56.3 38.55 54.3 39.45 53.0 39.9 52.35 40.6 51.25 41.2 50.4 41.9 49.35 42.45 48.4 43.15 47.35 43.7 46.4 44.35 45.35 44.9 44.4 45.5 43.3 46.0 42.3 46.55 41.25 47.05 40.2 47.55 39.1 47.95 38.0 49.25 34.75 50.3 31.35 51.35 28.1 52.15 24.65 52.95 21.35 53.55 17.9 54.1 14.55 54.5 11.05 54.9 7.7 55.15 4.15 55.35 0.85 55.45 -2.75 55.55 -6.05 55.55 -9.7 55.55 -13.0 55.5 -16.7 55.45 -18.15 55.15 -21.8 55.1 -22.45 54.6 -27.45 55.3 -26.55 56.05 -25.8 56.8 -25.1 57.6 -24.55 58.35 -24.05 59.2 -23.65 60.0 -23.3 60.85 -23.1 61.65 -22.9 62.55 -22.8 63.4 -22.75 64.3 -22.8 65.2 -22.8 66.1 -22.95 67.0 -23.05 67.95 -23.25 68.7 -23.4 69.35 -23.65 70.05 -23.9 70.65 -24.2 71.25 -24.55 71.8 -24.9 72.35 -25.3 72.85 -25.75 73.35 -26.2 73.75 -26.7 74.2 -27.2 74.55 -27.75 74.95 -28.35 75.25 -28.95 75.6 -29.55 75.85 -30.2 75.5 -30.2 75.05 -30.2 74.75 -30.2 74.3 -30.15 68.9 -29.95 73.5 -30.15 73.05 -30.1 72.75 -30.1 72.35 -30.1 72.0 -30.1 71.6 -30.1 71.25 -30.1 70.85 -30.15 70.5 -30.15 70.1 -30.2 69.75 -30.25 69.1 -30.35 68.45 -30.55 67.8 -30.7 67.2 -30.95 66.6 -31.15 66.0 -31.45 65.45 -31.75 64.9 -32.1 64.35 -32.45 63.8 -32.85 63.3 -33.2 62.8 -33.65 62.35 -34.1 61.85 -34.6 61.4 -35.05 61.0 -35.55 60.65 -36.0 60.3 -36.4 59.95 -36.8 59.6 -37.2 59.25 -37.65 58.95 -38.05 58.6 -38.5 58.3 -38.9 57.95 -39.35 57.65 -39.8 57.3 -40.2 57.0 -40.65 56.7 -41.1 56.4 -41.55 56.1 -42.0 55.8 -42.45 50.4 -50.85 48.5 -54.7 47.2 -57.35 45.3 -62.15 43.2 -67.55 42.25 -69.65 34.65 -86.4 20.2 -110.15 19.8 -110.8 19.4 -111.35 18.95 -111.95 18.5 -112.45 18.05 -112.95 17.55 -113.35 17.05 -113.8 16.5 -114.15 16.0 -114.5 15.4 -114.75 14.85 -115.05 14.25 -115.25 13.65 -115.45 13.0 -115.55 12.35 -115.65 11.65 -115.7 -0.75 -116.2 -8.6 -115.5 -10.55 -115.35 -12.5 -115.0 -14.35 -114.7 -16.3 -114.25 -18.15 -113.8 -20.0 -113.25 -21.8 -112.7 -23.65 -112.0 -25.4 -111.35 -27.2 -110.55 -28.95 -109.8 -30.75 -108.95 -32.4 -108.1 -34.2 -107.15 -35.85 -106.25 -37.6 -105.25 -40.05 -103.85 -42.2 -102.1 -44.3 -100.4 -46.1 -98.45 -47.9 -96.5 -49.3 -94.3 -50.75 -92.1 -51.8 -89.7 -52.85 -87.35 -53.5 -84.8 -54.2 -82.3 -54.45 -79.65 -54.7 -77.0 -54.55 -74.3 -54.35 -71.55 -53.75 -68.8 -53.55 -68.0 -53.35 -67.15 -53.1 -66.4 -52.85 -65.55 -52.6 -64.8 -52.3 -63.95 -52.05 -63.25 -51.7 -62.35 -51.5 -61.8 -51.1 -60.75 -50.65 -59.65 -50.45 -59.15 -50.15 -58.3 -49.9 -57.6 -49.55 -56.75 -49.3 -56.0 -48.35 -53.15 -47.55 -50.5 -46.7 -47.65 -46.0 -44.95 -45.3 -42.1 -44.7 -39.35 -44.1 -36.5 -43.65 -33.75 -43.2 -30.9 -42.85 -28.1 -42.55 -25.2 -42.4 -22.4 -42.3 -19.5 -42.3 -16.65 -42.35 -13.7 -42.6 -10.85 -42.75 -8.9 -43.2 -5.25 -43.65 -1.45 -43.8 0.35 -44.05 3.3 -44.5 6.2 -44.9 9.1 -45.5 11.95 -46.1 14.8 -46.8 17.6 -47.55 20.35 -48.45 23.1 -49.3 25.85 -50.35 28.55 -51.4 31.25 -52.6 33.9 -53.75 36.55 -55.1 39.15 -56.4 41.75 -57.9 44.35 -59.5 47.1 -61.25 49.9 -62.9 52.6 -64.75 55.35 -66.5 57.95 -68.4 60.65 -70.25 63.2 -72.2 65.9 -74.05 68.35 -76.1 71.05 -78.0 73.45 -80.1 76.1 -81.95 78.45 -84.15 81.15 -85.85 83.3 -88.2 86.2 -90.7 89.25 -93.65 92.65 -96.1 95.5 -99.25 99.05 -101.1 101.15 -104.9 105.35 -108.65 109.5 -110.55 111.65 -113.65 115.15 -116.15 118.0 -119.05 121.4 -121.55 124.45 -124.35 127.9 -126.8 131.1 -129.45 134.6 -131.75 138.0 -131.95 138.3 -132.2 138.65 -132.4 138.9 -132.75 139.3 -133.1 139.75 -133.25 139.95 -133.55 140.3 -133.75 140.6 -134.0 140.95 -134.2 141.3 -134.4 141.65 -134.55 141.95 -134.75 142.3 -134.85 142.65 -134.95 143.0 -134.95 143.35 -135.05 144.25 -135.1 145.15 -135.15 146.05 -135.2 146.95 -135.2 147.85 -135.25 148.8 -135.25 149.65 -135.25 150.6 -135.25 151.5 -135.2 152.4 -135.2 153.3 -135.15 154.25 -135.1 155.15 -135.05 156.05 -135.0 156.95 -134.95 157.9 -134.8 159.85 -134.5 161.7 -134.15 163.6 -133.65 165.3 -133.15 167.05 -132.45 168.7 -131.75 170.3 -130.9 171.8 -129.95 173.35 -128.85 174.7 -127.75 176.05 -126.45 177.3 -125.1 178.55 -123.55 179.6 -121.95 180.7 -120.15 181.6 -119.55 181.9 -118.95 182.2 -118.3 182.5 -117.7 182.8 -117.1 183.1 -116.5 183.4 -115.85 183.65 -115.25 183.95 -114.6 184.2 -114.0 184.45 -113.35 184.7 -112.75 184.95 -112.1 185.15 -111.45 185.4 -110.8 185.6 -110.15 185.8 -107.7 186.55 -105.2 187.05 -102.75 187.6 -100.2 187.95 -97.75 188.25 -95.2 188.4 -92.75 188.6 -90.15 188.6 -87.7 188.6 -85.15 188.45 -82.7 188.35 -80.1 188.1 -77.7 187.85 -75.1 187.5 -72.7 187.2 -70.1 186.8 -62.85 185.65 -54.15 184.0 -47.95 182.85 -38.2 180.95 -25.25 178.4 -22.3 177.85 -18.75 177.15 -15.1 176.6 -11.5 176.05 -7.85 175.6 -4.25 175.15 -0.55 174.8 3.0 174.5 6.7 174.25 10.25 174.0 14.0 173.85 17.55 173.7 21.3 173.65 24.85 173.55 28.6 173.55 32.15 173.55 35.95 173.6 36.45 173.6 41.65 173.95 41.7 173.55 41.7 173.15 41.75 172.8 41.7 172.4 41.7 172.05 41.6 171.75 41.55 171.4 41.4 171.1 41.3 170.8 41.15 170.5 40.95 170.25 40.75 169.95 40.55 169.7 40.3 169.45 40.05 169.15 39.75 168.9 39.2 168.45 38.6 168.05 38.0 167.65 37.35 167.35 36.75 167.05 36.1 166.8 35.5 166.55 34.8 166.35 34.2 166.2 33.5 166.05 32.85 165.9 32.15 165.85 31.5 165.75 30.75 165.7 30.1 165.65 29.4 165.6 26.75 165.5 24.05 165.5 21.4 165.45 18.7 165.45 16.05 165.45 13.4 165.5 10.75 165.55 8.05 165.65 5.4 165.75 2.7 165.85 0.05 165.95 -2.6 166.15 -5.25 166.3 -7.95 166.45 -10.6 166.65 -13.25 166.9 -32.95 168.5 -36.1 168.75 -49.05 169.7 -58.9 170.15 -60.55 170.2 -62.2 170.25 -63.85 170.3 -65.5 170.25 -67.15 170.25 -68.8 170.25 -70.45 170.2 -72.15 170.1 -73.75 170.05 -75.45 169.95 -77.05 169.85 -78.75 169.75 -80.35 169.6 -82.05 169.45 -83.65 169.3 -85.35 169.15 -86.7 169.0 -88.0 168.8 -89.3 168.55 -90.6 168.25 -91.9 167.95 -93.15 167.55 -94.4 167.1 -95.6 166.6 -96.85 166.1 -98.0 165.5 -99.2 164.9 -100.35 164.2 -101.5 163.5 -102.55 162.7 -103.65 161.85 -104.7 160.95 -105.3 160.4 -105.85 159.85 -106.4 159.3 -106.85 158.7 -107.35 158.1 -107.75 157.5 -108.15 156.85 -108.5 156.2 -108.9 155.55 -109.15 154.85 -109.45 154.15 -109.7 153.4 -109.9 152.65 -110.1 151.9 -110.25 151.15 -110.35 150.35 -110.5 149.4 -110.5 148.4 -110.55 147.45 -110.45 146.5 -110.35 145.55 -110.2 144.65 -110.05 143.75 -109.8 142.8 -109.6 141.95 -109.25 141.0 -109.0 140.15 -108.6 139.25 -108.25 138.4 -107.85 137.5 -107.5 136.7 -107.05 135.8 -105.8 133.25 -104.45 130.75 -103.1 128.25 -101.65 125.75 -100.25 123.35 -98.75 120.9 -97.25 118.55 -95.7 116.15 -94.1 113.8 -92.45 111.45 -90.85 109.2 -89.15 106.9 -87.45 104.65 -85.7 102.4 -83.95 100.2 -82.15 97.95 -73.15 87.05 -61.45 74.35 -53.45 65.65 -39.9 51.55 -39.65 51.25 -37.2 48.55 -36.95 48.7 -36.45 49.05 -36.7 49.5 -37.0 50.0 -37.25 50.4 -37.55 51.0 -37.4 50.7 -38.1 51.95 -38.4 52.55 -38.6 52.95 -38.9 53.45 -39.15 53.9 -39.45 54.4 -39.75 54.85 -40.05 55.35 -40.35 55.75 -40.7 56.25 -41.05 56.65 -48.9 66.45 -49.45 67.15 -54.3 73.05 -58.3 77.2 -60.8 79.8 -63.0 82.2 -65.45 84.8 -67.65 87.25 -70.05 89.85 -72.2 92.4 -74.5 95.05 -76.65 97.6 -78.9 100.3 -80.95 102.9 -83.1 105.65 -85.1 108.35 -87.15 111.15 -89.1 113.95 -91.05 116.8 -92.85 119.65 -93.7 121.0 -94.55 122.3 -95.35 123.65 -96.15 125.0 -97.0 126.4 -97.75 127.75 -98.55 129.1 -99.3 130.5 -100.1 131.85 -100.85 133.25 -101.6 134.65 -102.3 136.05 -103.0 137.45 -103.7 138.85 -104.35 140.3 -105.0 141.7 -105.65 143.15 -106.05 144.55 -106.45 145.95 -106.55 147.3 -106.65 148.6 -106.45 149.9 -106.3 151.15 -105.9 152.35 -105.45 153.5 -104.8 154.6 -104.1 155.7 -103.2 156.75 -102.25 157.75 -101.1 158.65 -99.95 159.6 -98.6 160.4 -97.6 161.0 -96.6 161.5 -95.6 162.0 -94.6 162.45 -93.55 162.9 -92.5 163.3 -91.5 163.65 -90.4 164.0 -89.35 164.3 -88.25 164.6 -87.2 164.85 -86.1 165.05 -85.0 165.25 -83.9 165.4 -82.8 165.55 -81.65 165.65 -79.0 165.9 -76.25 166.05 -73.65 166.15 -70.9 166.25 -68.25 166.3 -65.5 166.3 -62.9 166.3 -60.15 166.25 -57.5 166.2 -54.75 166.1 -52.15 165.95 -49.35 165.8 -46.75 165.65 -44.0 165.45 -41.4 165.25 -38.6 165.05 -37.35 164.95 -23.05 163.65 -13.7 162.85 -7.5 162.45 -5.75 162.35 -4.0 162.25 -2.3 162.15 -0.55 162.05 1.2 161.95 2.95 161.85 4.7 161.8 6.4 161.7 8.15 161.65 9.9 161.6 11.65 161.55 13.4 161.5 15.15 161.45 16.9 161.45 18.65 161.4 20.4 161.4 21.4 161.4 22.3 161.4 23.3 161.4 24.25 161.4 25.2 161.45 26.15 161.45 27.15 161.5 28.05 161.6 29.05 161.65 30.0 161.75 30.95 161.8 31.9 161.95 32.85 162.05 33.8 162.2 34.75 162.35 35.65 162.55 37.35 162.9 38.9 163.5 40.35 164.15 41.6 165.05 42.8 165.9 43.75 167.05 44.7 168.1 45.35 169.4 46.0 170.65 46.4 172.0 46.75 173.4 46.85 174.85 46.95 176.3 46.75 177.8 46.55 179.3 46.05 180.8 46.0 180.9 43.4 188.0 44.75 187.55 46.0 187.05 47.3 186.55 48.45 185.95 49.65 185.35 50.7 184.7 51.85 184.0 52.8 183.2 53.8 182.4 54.7 181.55 55.6 180.65 56.4 179.6 57.2 178.6 57.85 177.45 58.55 176.3 59.05 175.0 59.15 174.75 59.2 174.5 59.3 174.25 59.3 173.95 59.35 173.65 59.35 173.35 59.35 173.05 59.35 172.75 59.3 172.45 59.25 172.15 59.2 171.85 59.15 171.55 59.05 171.25 58.95 171.0 58.85 170.75 58.75 170.55 58.2 169.55 57.55 168.65 56.95 167.75 56.25 166.95 55.6 166.1 54.85 165.35 54.1 164.6 53.3 163.9 52.45 163.25 51.55 162.7 50.65 162.1 49.7 161.65 48.75 161.2 47.7 160.9 46.65 160.55 45.55 160.3 44.65 160.15 43.8 160.0 42.9 159.85 42.05 159.7 41.15 159.55 40.3 159.45 39.4 159.3 38.55 159.2 37.65 159.1 36.8 159.0 35.9 158.95 35.0 158.85 34.1 158.8 33.25 158.75 32.35 158.7 31.5 158.65 25.05 158.45 14.55 158.35 1.35 158.25 -2.4 158.15 -4.8 158.1 -6.9 158.05 -9.3 158.0 -11.4 157.9 -13.75 157.8 -15.95 157.7 -18.25 157.55 -20.4 157.4 -22.75 157.2 -24.9 157.0 -27.2 156.75 -29.4 156.45 -31.65 156.15 -33.85 155.75 -36.1 155.4 -38.3 154.95 -39.75 154.65 -41.1 154.3 -42.5 153.95 -43.8 153.5 -45.15 153.1 -46.45 152.6 -47.75 152.05 -49.0 151.5 -50.3 150.9 -51.45 150.2 -52.7 149.5 -53.8 148.7 -55.0 147.9 -56.05 147.0 -57.2 146.05 -58.2 145.05 -58.8 144.45 -59.3 143.9 -59.85 143.25 -60.3 142.65 -60.8 142.05 -61.25 141.4 -61.65 140.75 -62.05 140.1 -62.45 139.45 -62.8 138.75 -63.1 138.05 -63.4 137.35 -63.65 136.6 -63.85 135.85 -64.1 135.05 -64.2 134.3 -64.4 133.05 -64.55 131.85 -64.7 130.6 -64.75 129.4 -64.85 128.15 -64.8 126.95 -64.8 125.7 -64.65 124.5 -64.55 123.3 -64.35 122.1 -64.15 120.9 -63.8 119.75 -63.5 118.6 -63.05 117.45 -62.65 116.3 -62.1 115.2 -61.35 113.65 -60.55 112.05 -59.75 110.5 -58.95 108.9 -58.15 107.35 -57.3 105.8 -56.5 104.25 -55.65 102.7 -54.8 101.2 -53.95 99.65 -53.1 98.1 -52.25 96.6 -51.35 95.05 -50.5 93.55 -49.6 92.05 -48.7 90.5 -48.4 90.0 -48.0 89.45 -47.65 88.95 -47.2 88.45 -46.8 88.0 -46.3 87.5 -45.9 87.1 -45.35 86.6 -44.95 86.25 -44.4 85.7 -37.95 79.95 -43.4 84.85 -42.85 84.3 -42.45 83.95 -41.9 83.45 -41.5 83.05 -41.3 83.2 -40.9 83.5 -40.95 83.65 -42.7 87.5 -43.8 89.9 -44.65 91.4 -45.5 93.0 -50.85 102.5 -54.65 109.25 -56.9 113.7 -57.2 114.35 -57.55 115.05 -57.8 115.7 -58.1 116.45 -58.35 117.1 -58.6 117.85 -58.85 118.55 -59.05 119.3 -59.3 120.0 -59.5 120.75 -59.65 121.45 -59.85 122.2 -60.0 122.95 -60.15 123.7 -60.3 124.4 -60.4 125.15 -60.65 126.6 -60.7 128.05 -60.8 129.45 -60.65 130.8 -60.55 132.15 -60.25 133.4 -59.95 134.7 -59.5 135.9 -59.0 137.1 -58.35 138.25 -57.7 139.4 -56.85 140.45 -56.0 141.55 -54.95 142.55 -53.95 143.55 -52.7 144.45 -52.05 144.95 -51.35 145.4 -50.65 145.9 -49.95 146.3 -49.25 146.75 -48.55 147.1 -47.85 147.5 -47.1 147.85 -46.35 148.2 -45.6 148.5 -44.85 148.8 -44.1 149.1 -43.35 149.35 -42.55 149.6 -41.75 149.85 -40.95 150.05 -38.65 150.65 -36.25 151.15 -33.95 151.65 -31.55 152.0 -29.25 152.4 -26.8 152.7 -24.5 152.95 -22.05 153.2 -19.75 153.4 -17.25 153.55 -15.0 153.7 -12.5 153.8 -10.3 153.9 -7.7 153.95 -5.8 154.05 -2.9 154.1 -0.35 154.15 2.65 154.2 5.0 154.2 8.2 154.2 7.25 154.2 13.75 154.2 17.05 154.2 19.25 154.25 22.3 154.25 24.8 154.3 27.75 154.4 30.35 154.5 33.25 154.65 35.9 154.85 38.75 155.05 41.4 155.4 42.8 155.55 44.1 155.8 45.45 156.05 46.7 156.4 48.0 156.75 49.2 157.2 50.4 157.65 51.55 158.2 52.7 158.8 53.75 159.45 54.85 160.15 55.9 160.95 56.9 161.75 57.9 162.7 58.85 163.65 59.75 164.7 60.35 165.45 60.85 166.1 61.4 166.85 61.85 167.55 62.3 168.3 62.65 169.0 63.0 169.75 63.25 170.5 63.45 171.3 63.6 172.05 63.7 172.85 63.65 173.65 63.6 174.45 63.4 175.3 63.2 176.15 62.85 177.0 L62.85 177.0 M-143.2 161.4 Q-143.65 163.1 -143.85 164.8 -144.05 166.45 -144.1 168.1 -144.1 169.7 -143.95 171.35 -143.8 172.95 -143.5 174.55 -143.2 176.1 -142.7 177.7 -142.3 179.2 -141.75 180.8 -141.2 182.3 -140.55 183.85 -139.95 185.3 -139.2 186.9 -139.05 187.25 -138.85 187.55 -138.7 187.9 -138.5 188.25 -138.3 188.55 -138.1 188.85 -137.85 189.2 -137.6 189.5 -137.4 189.8 -137.15 190.1 -136.9 190.35 -136.6 190.65 -136.35 190.95 -136.05 191.2 -135.8 191.45 -135.5 191.7 -133.95 193.1 -132.3 194.25 -130.65 195.45 -128.9 196.45 -127.2 197.4 -125.35 198.2 -123.6 199.0 -121.7 199.65 -119.85 200.25 -117.9 200.75 -116.05 201.25 -114.05 201.6 -112.15 201.95 -110.1 202.2 -108.15 202.45 -106.05 202.6 -103.75 202.75 -101.4 202.75 -99.15 202.75 -96.85 202.5 -94.6 202.35 -92.3 201.95 -90.1 201.6 -87.8 201.1 -85.65 200.65 -83.4 200.0 -81.3 199.45 -79.0 198.75 -76.95 198.1 -74.65 197.3 -72.65 196.6 -70.3 195.75 -66.75 194.45 -61.65 192.15 -51.55 187.6 -53.1 188.25 -53.2 188.2 -53.3 188.15 -53.35 188.1 -53.45 188.05 -53.5 188.05 -53.6 188.0 -53.7 188.0 -53.75 188.0 -53.85 188.0 -53.9 188.0 -53.95 188.0 -54.05 188.0 -54.1 188.0 -54.2 188.0 -54.25 188.0 -54.35 188.05 -53.6 187.95 -65.15 189.95 -71.6 191.1 -75.95 191.6 -77.85 191.85 -79.7 192.0 -81.6 192.2 -83.45 192.3 -85.4 192.45 -87.2 192.5 -89.15 192.55 -91.0 192.55 -92.9 192.55 -94.75 192.45 -96.65 192.35 -98.5 192.15 -100.4 192.0 -102.25 191.7 -104.15 191.45 -106.0 191.1 -107.3 190.85 -108.6 190.5 -109.9 190.2 -111.15 189.85 -112.4 189.45 -113.65 189.05 -114.9 188.6 -116.1 188.1 -117.3 187.6 -118.5 187.1 -119.7 186.55 -120.85 185.9 -122.05 185.3 -123.15 184.65 -124.3 183.95 -125.4 183.2 -127.1 182.1 -128.55 180.8 -129.95 179.6 -131.2 178.2 -132.4 176.85 -133.45 175.3 -134.45 173.85 -135.25 172.25 -136.05 170.65 -136.7 168.95 -137.3 167.3 -137.8 165.45 -138.25 163.7 -138.55 161.8 -138.9 160.0 -139.05 158.0 -139.05 157.85 -140.1 150.0 -140.9 150.35 -141.95 150.95 -141.55 150.75 -143.75 151.95 -144.8 152.55 -145.5 152.9 -146.45 153.35 -147.25 153.6 -148.2 153.9 -149.05 153.95 -149.95 154.0 -150.85 153.8 -151.75 153.5 -152.65 152.9 -153.65 152.3 -154.55 151.25 -154.75 152.25 -154.75 153.2 -154.7 154.1 -154.45 154.95 -154.15 155.8 -153.65 156.55 -153.15 157.3 -152.45 157.95 -151.7 158.6 -150.75 159.15 -149.8 159.7 -148.65 160.15 -147.45 160.55 -146.1 160.9 -144.75 161.2 -143.2 161.4 L-143.2 161.4 M-49.6 -42.5 Q-49.8 -42.5 -50.15 -42.5 -50.3 -39.95 -50.35 -39.3 -50.0 -42.25 -51.75 -25.85 -52.6 -17.85 -53.6 -12.5 -54.2 -9.4 -55.0 -6.25 -55.75 -3.2 -56.65 -0.05 -57.55 2.95 -58.6 6.0 -59.6 8.95 -60.75 12.0 -61.9 14.9 -63.15 17.9 -64.35 20.75 -65.7 23.7 -67.0 26.55 -68.45 29.5 -69.8 32.25 -71.35 35.2 -72.65 37.7 -73.95 40.05 -75.3 42.5 -76.65 44.85 -78.05 47.25 -79.5 49.5 -81.0 51.85 -82.55 54.05 -84.15 56.3 -85.75 58.45 -87.45 60.65 -89.2 62.75 -90.95 64.85 -92.85 66.85 -94.7 68.9 -96.7 70.8 -105.3 79.2 -109.75 83.9 -110.45 84.65 -111.1 85.35 -111.75 86.1 -112.35 86.85 -113.0 87.65 -113.55 88.4 -114.15 89.2 -114.7 90.0 -115.25 90.85 -115.75 91.65 -116.3 92.5 -116.75 93.35 -117.25 94.25 -117.65 95.15 -118.1 96.05 -118.45 96.95 -118.7 97.6 -118.95 98.25 -119.15 98.9 -119.3 99.5 -119.5 100.15 -119.6 100.8 -119.7 101.45 -119.8 102.1 -119.85 102.8 -119.85 103.45 -119.85 104.1 -119.8 104.75 -119.75 105.4 -119.65 106.1 -119.55 106.75 -119.4 107.4 -119.0 109.0 -119.2 108.1 -119.1 108.5 -119.05 108.8 -118.9 109.15 -118.8 109.45 -118.7 109.8 -118.55 110.1 -118.4 110.45 -118.2 110.75 -118.0 111.05 -117.8 111.3 -117.55 111.6 -117.25 111.85 -116.95 112.1 -116.6 112.3 -116.45 112.1 -115.85 111.5 -115.4 111.05 -115.15 110.75 -114.75 110.3 -114.5 109.95 -114.15 109.55 -113.9 109.15 -113.65 108.7 -113.45 108.25 -113.25 107.75 -113.1 107.25 -112.95 106.7 -112.95 106.1 -112.9 105.45 -112.95 104.8 -113.1 103.05 -113.05 101.3 -113.0 99.6 -112.75 97.95 -112.55 96.3 -112.15 94.65 -111.75 93.05 -111.2 91.5 -110.65 89.95 -109.95 88.45 -109.2 86.95 -108.3 85.5 -107.45 84.05 -106.4 82.65 -105.35 81.3 -104.2 79.95 -103.25 78.85 -102.15 77.8 -101.15 76.75 -100.0 75.75 -98.95 74.8 -97.8 73.8 -96.7 72.9 -95.5 71.95 -94.4 71.05 -93.2 70.15 -92.1 69.3 -90.8 68.4 -89.75 67.65 -88.4 66.7 -87.75 66.25 -86.0 65.0 -83.3 63.1 -80.9 61.15 -78.4 59.15 -76.1 57.0 -73.8 54.85 -71.75 52.6 -69.65 50.3 -67.8 47.9 -65.95 45.4 -64.3 42.85 -62.65 40.2 -61.3 37.45 -59.9 34.65 -58.75 31.75 -57.6 28.75 -56.75 25.6 -54.75 18.4 -52.3 8.05 -39.6 -46.45 -48.25 -9.6 -48.15 -10.1 -47.95 -10.8 -47.9 -11.1 -47.65 -12.0 -47.45 -12.75 -47.35 -13.2 -47.2 -13.85 -47.05 -14.4 -46.9 -15.05 -46.8 -15.6 -46.7 -16.25 -46.6 -16.85 -46.5 -17.45 -46.45 -18.05 -46.4 -18.65 -46.4 -19.25 -46.4 -20.7 -46.45 -22.2 -46.55 -23.65 -46.65 -25.1 -46.75 -26.55 -46.95 -28.05 -47.1 -29.45 -47.35 -30.95 -47.55 -32.4 -47.8 -33.85 -48.05 -35.25 -48.35 -36.75 -48.6 -38.15 -48.95 -39.65 -49.25 -41.0 -49.6 -42.5 L-49.6 -42.5 M-109.15 103.45 Q-107.4 102.15 -101.7 95.65 -96.55 89.85 -90.0 81.9 -83.6 74.1 -79.05 68.2 -74.15 61.8 -73.75 60.6 -72.7 59.8 -84.55 68.8 -91.05 73.75 -95.4 77.2 -96.7 78.2 -97.85 79.25 -99.0 80.3 -100.05 81.45 -101.15 82.55 -102.1 83.75 -103.1 84.95 -103.95 86.2 -104.8 87.5 -105.5 88.85 -106.25 90.2 -106.8 91.6 -107.4 93.1 -107.85 94.6 -108.25 96.15 -108.55 97.75 -108.55 97.85 -109.15 103.45 L-109.15 103.45" fill="#000000" fill-rule="evenodd" stroke="none"/>
  </g>
</svg>
