<?xml version="1.0" encoding="UTF-8" standalone="no"?>
<svg xmlns:xlink="http://www.w3.org/1999/xlink" height="180.1px" width="108.5px" xmlns="http://www.w3.org/2000/svg">
  <g transform="matrix(1.0, 0.0, 0.0, 1.0, 54.25, 90.05)">
    <path d="M-24.95 -39.15 Q-25.25 -39.2 -25.55 -39.25 -25.85 -39.3 -26.15 -39.35 -26.45 -39.4 -26.8 -39.45 -27.1 -39.55 -27.45 -39.6 -27.8 -39.7 -28.15 -39.8 -28.5 -39.9 -28.85 -40.0 -29.25 -40.15 -29.6 -40.25 -30.0 -40.4 -30.35 -40.55 -30.9 -40.75 -31.4 -41.0 -31.9 -41.25 -32.35 -41.5 -32.85 -41.7 -33.25 -42.0 -33.7 -42.2 -34.1 -42.5 -34.5 -42.75 -34.85 -43.0 -35.2 -43.25 -35.55 -43.5 -35.85 -43.75 -36.15 -43.95 -36.45 -44.2 -36.7 -44.45 -37.75 -44.9 -38.65 -45.4 -39.55 -45.85 -40.35 -46.35 -41.1 -46.85 -41.75 -47.35 -42.4 -47.85 -42.95 -48.35 -43.45 -48.85 -43.9 -49.4 -44.3 -49.85 -44.65 -50.35 -44.95 -50.8 -45.25 -51.3 -45.5 -51.75 -45.7 -52.2 -46.25 -53.35 -46.5 -54.55 -46.7 -55.65 -46.75 -56.85 -46.75 -57.9 -46.6 -59.2 -46.55 -59.95 -46.3 -61.7 -46.05 -63.4 -45.95 -64.45 -45.8 -66.05 -45.8 -67.5 -45.75 -69.25 -45.95 -71.0 -46.15 -72.95 -46.6 -75.0 -46.7 -75.45 -46.8 -75.9 -46.9 -76.2 -47.0 -76.7 -47.15 -77.15 -47.2 -77.4 -47.3 -77.7 -47.35 -78.0 -47.4 -78.25 -47.4 -78.5 -47.45 -78.8 -47.45 -79.05 -47.45 -79.3 -47.4 -79.6 -47.35 -79.85 -47.3 -80.15 -47.05 -81.15 -46.45 -82.0 -45.85 -82.8 -45.0 -83.55 -44.2 -84.25 -43.1 -84.85 -42.1 -85.45 -40.85 -85.95 -39.75 -86.4 -38.4 -86.85 -37.2 -87.2 -35.8 -87.6 -34.6 -87.9 -33.15 -88.25 -32.3 -88.4 -30.6 -88.8 -29.15 -89.1 -28.45 -89.25 -27.2 -89.5 -26.1 -89.7 -24.8 -89.9 -23.6 -90.1 -22.2 -90.25 -20.9 -90.35 -19.45 -90.45 -18.05 -90.45 -16.5 -90.45 -15.0 -90.35 -13.4 -90.2 -11.8 -89.95 -10.1 -89.65 -8.45 -89.25 -7.3 -88.95 -6.2 -88.6 -5.15 -88.25 -4.15 -87.85 -3.15 -87.5 -2.15 -87.05 -1.25 -86.65 -0.35 -86.2 0.5 -85.8 1.4 -85.3 2.15 -84.9 3.0 -84.4 3.7 -84.0 4.55 -83.5 5.05 -83.15 6.05 -82.6 6.85 -82.1 16.85 -74.65 18.2 -73.65 19.05 -73.0 20.1 -72.2 20.95 -71.6 21.85 -70.9 22.6 -70.3 23.35 -69.7 24.0 -69.2 24.7 -68.65 25.3 -68.15 25.9 -67.65 26.5 -67.1 27.05 -66.6 27.65 -66.1 28.2 -65.55 28.8 -65.0 29.2 -64.6 29.6 -64.2 29.95 -63.85 30.35 -63.45 30.7 -63.1 31.05 -62.7 31.35 -62.35 31.7 -62.0 32.0 -61.7 32.25 -61.35 32.55 -61.05 32.8 -60.75 33.05 -60.5 33.3 -60.2 33.5 -59.95 33.7 -59.7 33.85 -59.45 34.0 -59.15 34.2 -58.85 34.4 -58.5 34.6 -58.1 34.75 -57.65 34.95 -57.2 35.1 -56.7 35.3 -56.2 35.4 -55.65 35.55 -55.05 35.65 -54.45 35.75 -53.8 35.8 -53.15 35.8 -52.5 35.8 -51.8 35.8 -51.65 35.8 -51.45 35.75 -51.25 35.75 -51.05 35.7 -50.85 35.7 -50.6 35.65 -50.35 35.6 -50.1 35.55 -49.8 35.5 -49.5 35.4 -49.2 35.3 -48.9 35.25 -48.55 35.1 -48.2 35.0 -47.85 34.85 -47.55 34.75 -47.3 34.65 -47.05 34.5 -46.7 34.35 -46.4 34.15 -46.05 33.9 -45.65 33.65 -45.25 33.35 -44.8 33.0 -44.35 32.55 -43.85 32.1 -43.35 31.6 -42.8 31.05 -42.25 30.4 -41.65 29.7 -41.05 28.9 -40.4 28.6 -40.2 28.35 -40.0 27.95 -39.7 27.55 -39.4 27.0 -39.0 26.45 -38.65 25.8 -38.2 25.1 -37.8 24.3 -37.3 23.45 -36.85 22.55 -36.35 21.55 -35.85 20.5 -35.3 19.4 -34.85 18.2 -34.3 16.95 -33.85 15.95 -33.45 15.5 -33.3 14.75 -33.05 14.2 -32.85 13.55 -32.6 13.0 -32.45 12.4 -32.25 11.9 -32.1 11.35 -31.9 10.8 -31.8 10.3 -31.7 9.75 -31.6 9.2 -31.5 8.65 -31.45 8.1 -31.35 7.5 -31.35 6.7 -31.3 5.75 -31.35 4.9 -31.35 3.95 -31.45 3.1 -31.5 2.15 -31.65 1.35 -31.75 0.35 -31.9 0.2 -31.95 -1.35 -32.2 -2.35 -32.35 -2.95 -32.45 -3.8 -32.6 -4.4 -32.65 -5.15 -32.7 -5.7 -32.7 -5.7 -32.7 -5.7 -32.7 -6.25 -32.8 -6.8 -32.95 -7.5 -33.05 -8.15 -33.25 -9.0 -33.4 -9.8 -33.6 -10.7 -33.85 -11.6 -34.1 -12.6 -34.4 -13.6 -34.7 -14.7 -35.05 -15.8 -35.4 -17.0 -35.8 -18.15 -36.25 -19.4 -36.7 -20.6 -37.2 -20.95 -37.35 -21.25 -37.45 -21.6 -37.6 -21.9 -37.75 -22.2 -37.85 -22.5 -38.0 -22.75 -38.1 -23.05 -38.25 -23.3 -38.35 -23.6 -38.5 -23.85 -38.6 -24.1 -38.7 -24.3 -38.8 -24.55 -38.95 -24.75 -39.05 -24.95 -39.15 L-24.95 -39.15" fill="url(#gradient0)" fill-rule="evenodd" stroke="none"/>
    <path d="M-34.55 -39.95 Q-35.0 -39.8 -35.45 -39.6 -36.0 -39.4 -36.5 -39.15 -37.05 -38.9 -37.6 -38.6 -38.25 -38.3 -38.8 -37.9 -39.45 -37.55 -40.05 -37.15 -40.75 -36.7 -41.35 -36.2 -42.05 -35.65 -42.65 -35.1 -43.35 -34.5 -43.95 -33.85 -44.3 -33.5 -44.6 -33.2 -45.0 -32.75 -45.35 -32.3 -45.8 -31.75 -46.25 -31.2 -46.7 -30.6 -47.15 -29.9 -47.6 -29.2 -48.0 -28.4 -48.45 -27.6 -48.85 -26.7 -49.2 -25.8 -49.5 -24.8 -49.85 -23.8 -50.05 -22.7 -50.2 -21.95 -50.25 -21.2 -50.35 -20.45 -50.35 -19.7 -50.4 -19.05 -50.35 -18.35 -50.3 -17.7 -50.25 -17.0 -50.15 -16.35 -50.05 -15.7 -49.95 -15.1 -49.8 -14.4 -49.7 -13.85 -49.55 -13.15 -49.45 -12.75 -49.25 -11.9 -49.0 -10.95 -48.75 -10.05 -48.5 -9.2 -48.2 -8.35 -47.9 -7.55 -47.55 -6.7 -47.25 -5.95 -46.9 -5.15 -46.55 -4.4 -46.2 -3.6 -45.85 -2.9 -45.45 -2.15 -45.1 -1.45 -44.65 -0.65 -44.35 -0.1 -43.85 0.85 -43.35 1.8 -42.75 2.8 -42.35 3.45 -41.75 4.5 -41.05 5.7 -40.8 6.05 -40.35 6.9 -40.0 7.5 -39.55 8.25 -39.25 8.95 -38.9 9.7 -38.6 10.4 -38.3 11.15 -38.05 11.95 -37.8 12.8 -37.65 13.7 -37.6 13.95 -37.55 14.15 -37.5 14.4 -37.45 14.7 -37.4 15.0 -37.4 15.35 -37.35 15.7 -37.35 16.05 -37.3 16.5 -37.3 16.9 -37.3 17.3 -37.35 17.75 -37.4 18.25 -37.45 18.7 -37.5 19.2 -37.65 19.7 -37.75 20.1 -37.8 20.35 -37.9 20.7 -37.95 21.0 -38.05 21.35 -38.15 21.7 -38.3 22.05 -38.45 22.35 -38.6 22.7 -38.75 23.0 -38.95 23.35 -39.15 23.65 -39.4 23.95 -39.65 24.2 -39.95 24.5 -40.3 24.75 -40.6 25.0 -41.0 25.15 -41.3 25.35 -41.7 25.45 -42.05 25.6 -42.4 25.65 -42.8 25.75 -43.15 25.8 -43.5 25.85 -43.9 25.85 -44.25 25.85 -44.65 25.85 -44.95 25.85 -45.35 25.8 -45.55 25.8 -46.0 25.8 -46.25 25.8 -46.55 25.75 -46.8 25.7 -47.05 25.65 -47.3 25.65 -47.55 25.6 -47.8 25.55 -48.0 25.5 -48.2 25.45 -48.4 25.4 -48.6 25.35 -48.8 25.3 -49.0 25.25 -49.15 25.2 -49.3 25.15 -49.45 25.1 -49.45 25.25 -49.5 25.4 -49.5 25.55 -49.5 25.7 -49.5 25.9 -49.5 26.05 -49.5 26.25 -49.5 26.45 -49.45 26.65 -49.4 26.85 -49.35 27.05 -49.3 27.25 -49.2 27.5 -49.1 27.65 -49.0 27.9 -48.9 28.1 -48.75 28.35 -48.55 28.55 -48.35 28.75 -48.15 28.9 -47.9 29.05 -47.65 29.2 -47.4 29.3 -47.1 29.45 -46.85 29.55 -46.5 29.65 -46.2 29.7 -45.85 29.8 -45.5 29.9 -45.1 30.0 -44.8 30.05 -44.3 30.15 -44.05 30.2 -43.8 30.25 -43.55 30.3 -43.3 30.3 -43.0 30.35 -42.75 30.4 -42.4 30.45 -42.1 30.45 -41.8 30.5 -41.45 30.5 -41.1 30.5 -40.75 30.5 -40.4 30.55 -40.0 30.5 -39.65 30.5 -39.25 30.5 -39.3 30.65 -39.35 30.75 -39.4 30.9 -39.5 31.05 -39.55 31.2 -39.65 31.35 -39.75 31.5 -39.8 31.65 -39.95 31.8 -40.05 31.95 -40.15 32.1 -40.25 32.25 -40.4 32.45 -40.55 32.6 -40.7 32.75 -40.85 32.9 -41.25 33.3 -41.75 33.6 -42.2 33.9 -42.65 34.15 -43.1 34.35 -43.6 34.5 -44.0 34.65 -44.45 34.75 -44.85 34.8 -45.3 34.85 -45.6 34.85 -45.95 34.9 -46.25 34.9 -46.5 34.9 -46.65 34.85 -46.85 34.85 -46.6 34.95 -46.35 35.1 -46.05 35.2 -45.75 35.35 -45.45 35.45 -45.15 35.55 -44.75 35.7 -44.4 35.8 -44.05 35.9 -43.65 36.0 -43.2 36.1 -42.8 36.15 -42.35 36.25 -41.9 36.3 -41.45 36.35 -40.95 36.35 -40.7 36.35 -40.45 36.35 -40.15 36.35 -39.9 36.35 -39.6 36.35 -39.35 36.3 -39.05 36.3 -38.75 36.25 -38.45 36.2 -38.15 36.15 -37.85 36.1 -37.55 36.0 -37.2 35.95 -36.85 35.85 -36.5 35.75 -36.15 35.65 -35.75 35.55 -35.4 35.4 -34.8 35.25 -34.25 35.0 -33.5 34.75 -32.75 34.4 -31.9 34.0 -31.0 33.55 -30.0 33.0 -29.0 32.4 -27.9 31.75 -26.85 31.0 -25.65 30.15 -24.5 29.2 -23.3 28.2 -22.1 27.05 -21.6 26.55 -21.45 26.4 -21.1 26.1 -20.85 25.85 -20.55 25.5 -20.3 25.25 -20.0 24.95 -19.75 24.7 -19.5 24.4 -19.25 24.1 -19.0 23.8 -18.75 23.5 -18.5 23.15 -18.25 22.8 -18.0 22.45 -17.75 22.1 -17.55 21.8 -17.4 21.5 -17.15 21.1 -16.9 20.65 -16.6 20.1 -16.3 19.4 -16.0 18.65 -15.65 17.75 -15.3 16.7 -14.95 15.55 -14.55 14.2 -14.15 12.7 -13.7 11.1 -13.3 9.25 -12.9 7.25 -12.45 5.0 -12.35 4.45 -12.25 3.9 -12.15 3.35 -12.1 2.8 -12.0 2.3 -11.9 1.8 -11.85 1.35 -11.75 0.9 -11.7 0.45 -11.65 0.0 -11.55 -0.4 -11.5 -0.8 -11.45 -1.15 -11.4 -1.5 -11.35 -1.85 -11.3 -2.15 -11.2 -2.15 -11.05 -2.15 -10.95 -2.2 -10.8 -2.2 -10.65 -2.2 -10.5 -2.25 -10.35 -2.3 -10.2 -2.3 -10.05 -2.35 -9.9 -2.4 -9.75 -2.5 -9.6 -2.55 -9.45 -2.65 -9.3 -2.75 -9.15 -2.85 -9.0 -2.95 -8.85 -3.1 -8.7 -3.25 -8.55 -3.4 -8.45 -3.6 -8.3 -3.8 -8.2 -4.05 -8.1 -4.3 -8.05 -4.6 -7.95 -4.9 -7.9 -5.2 -7.85 -5.55 -7.8 -5.95 -7.75 -6.4 -7.75 -6.85 -7.75 -7.35 -7.75 -7.9 -7.75 -8.75 -7.8 -9.15 -7.8 -9.8 -7.85 -10.35 -7.85 -10.95 -7.9 -11.45 -7.95 -12.0 -8.0 -12.5 -8.1 -13.0 -8.2 -13.5 -8.3 -14.0 -8.45 -14.5 -8.6 -15.0 -8.8 -15.5 -9.0 -16.0 -9.25 -16.5 -9.6 -17.2 -10.0 -17.75 -10.3 -18.25 -10.7 -18.7 -11.05 -19.05 -11.45 -19.4 -11.7 -19.6 -12.25 -20.05 -12.8 -20.5 -13.1 -20.75 -13.6 -21.2 -14.0 -21.65 -14.55 -22.2 -15.0 -22.8 -15.6 -23.55 -16.15 -24.45 -16.55 -25.1 -17.2 -26.3 -18.2 -28.15 -19.5 -30.4 -20.6 -32.35 -21.9 -34.55 -22.0 -34.5 -22.1 -34.45 -22.2 -34.35 -22.3 -34.3 -22.4 -34.25 -22.5 -34.2 -22.65 -34.1 -22.75 -34.05 -22.9 -34.0 -23.05 -33.95 -23.15 -33.9 -23.3 -33.85 -23.45 -33.75 -23.65 -33.7 -23.8 -33.65 -23.95 -33.65 -24.5 -33.5 -25.1 -33.45 -25.65 -33.4 -26.2 -33.45 -26.75 -33.5 -27.25 -33.6 -27.7 -33.7 -28.2 -33.9 -28.6 -34.05 -29.0 -34.2 -29.35 -34.35 -29.7 -34.55 -29.95 -34.7 -30.25 -34.9 -30.4 -35.0 -30.6 -35.1 -31.05 -35.4 -31.45 -35.75 -31.85 -36.05 -32.2 -36.4 -32.5 -36.7 -32.8 -37.1 -33.1 -37.4 -33.35 -37.75 -33.55 -38.05 -33.75 -38.4 -33.95 -38.7 -34.1 -39.0 -34.25 -39.25 -34.35 -39.5 -34.45 -39.75 -34.55 -39.95 L-34.55 -39.95" fill="url(#gradient1)" fill-rule="evenodd" stroke="none"/>
  </g>
  <defs>
    <linearGradient gradientTransform="matrix(0.0, 0.0361, -0.0361, 0.0, -5.8, -60.85)" gradientUnits="userSpaceOnUse" id="gradient0" spreadMethod="pad" x1="-819.2" x2="819.2">
      <stop offset="0.0" stop-color="#fff23c" stop-opacity="0.0"/>
      <stop offset="0.3803921568627451" stop-color="#fff23c" stop-opacity="0.84705883"/>
      <stop offset="0.6039215686274509" stop-color="#fff23c" stop-opacity="0.8"/>
      <stop offset="1.0" stop-color="#fff23c" stop-opacity="0.0"/>
    </linearGradient>
    <linearGradient gradientTransform="matrix(0.0, 0.0466, -0.0466, 0.0, -29.05, -1.8)" gradientUnits="userSpaceOnUse" id="gradient1" spreadMethod="pad" x1="-819.2" x2="819.2">
      <stop offset="0.0" stop-color="#fff23c" stop-opacity="0.0"/>
      <stop offset="0.3803921568627451" stop-color="#fff23c" stop-opacity="0.84705883"/>
      <stop offset="0.6039215686274509" stop-color="#fff23c" stop-opacity="0.8"/>
      <stop offset="1.0" stop-color="#fff23c" stop-opacity="0.0"/>
    </linearGradient>
  </defs>
</svg>
