<?xml version="1.0" encoding="UTF-8" standalone="no"?>
<svg xmlns:xlink="http://www.w3.org/1999/xlink" height="30.15px" width="62.0px" xmlns="http://www.w3.org/2000/svg">
  <g transform="matrix(1.0, 0.0, 0.0, 1.0, 31.0, 15.05)">
    <path d="M22.35 -13.75 Q21.8 -13.65 17.7 -11.85 13.85 -10.2 13.8 -10.15 13.35 -10.0 12.95 -9.85 12.55 -9.75 12.2 -9.65 11.95 -9.55 11.6 -9.45 11.45 -9.45 11.0 -9.35 10.65 -9.25 10.4 -9.2 10.05 -9.1 9.75 -9.0 9.35 -8.85 8.9 -8.75 8.45 -8.6 7.95 -8.4 6.05 -7.7 5.45 -7.5 5.4 -7.5 5.25 -7.45 5.1 -7.4 5.0 -7.4 4.85 -7.35 4.7 -7.35 4.5 -7.3 4.3 -7.25 4.05 -7.2 3.85 -7.2 3.55 -7.15 3.3 -7.1 3.0 -7.05 2.7 -7.05 2.35 -7.0 2.0 -6.95 1.75 -6.95 1.5 -6.9 1.2 -6.9 0.9 -6.9 0.6 -6.85 0.3 -6.85 0.0 -6.85 -0.35 -6.85 -0.7 -6.85 -1.05 -6.85 -1.4 -6.85 -1.75 -6.85 -2.15 -6.85 -2.55 -6.9 -2.95 -6.9 -3.35 -6.95 -3.3 -6.85 -3.3 -6.8 -3.25 -6.7 -3.25 -6.65 -3.2 -6.55 -3.15 -6.45 -3.1 -6.35 -3.05 -6.25 -3.0 -6.15 -2.95 -6.05 -2.9 -5.95 -2.85 -5.85 -2.75 -5.75 -2.7 -5.65 -2.6 -5.55 -2.55 -5.4 -2.45 -5.3 -2.4 -5.2 -2.25 -5.1 -2.15 -5.0 -2.0 -4.85 -1.9 -4.75 -1.7 -4.6 -1.55 -4.5 -1.35 -4.35 -1.1 -4.25 -0.85 -4.1 -0.6 -3.95 -0.3 -3.8 0.05 -3.7 0.4 -3.55 0.8 -3.45 1.2 -3.3 1.65 -3.2 2.05 -3.1 2.45 -3.0 2.85 -2.95 3.3 -2.9 3.65 -2.85 4.05 -2.8 4.45 -2.75 4.85 -2.75 5.2 -2.75 5.6 -2.75 5.95 -2.75 6.3 -2.75 6.65 -2.8 6.95 -2.8 6.95 -2.8 6.95 -2.75 7.0 -2.75 7.0 -2.7 7.0 -2.7 7.0 -2.65 7.0 -2.6 7.0 -2.6 7.0 -2.55 7.0 -2.5 7.05 -2.45 7.05 -2.45 7.05 -2.4 7.05 -2.35 7.0 -2.3 7.0 -2.25 7.0 -2.15 6.95 -2.05 6.95 -1.95 6.9 -1.85 6.85 -1.75 6.75 -1.65 6.7 -1.55 6.65 -1.5 6.6 -1.4 6.5 -1.35 6.45 -1.3 6.4 -1.2 6.35 -1.15 6.25 -1.1 6.2 -1.1 6.15 -1.05 5.6 -0.65 5.1 -0.3 4.65 0.05 4.2 0.3 3.8 0.55 3.45 0.8 3.15 1.0 2.85 1.15 2.6 1.3 2.4 1.4 2.2 1.5 2.05 1.55 1.95 1.6 1.85 1.65 1.85 1.65 1.8 1.65 1.45 1.8 1.15 1.9 0.75 2.05 0.4 2.15 -0.05 2.3 -0.45 2.4 -0.9 2.55 -1.35 2.7 -1.85 2.8 -2.35 2.95 -2.9 3.05 -3.45 3.2 -4.0 3.3 -4.55 3.4 -5.2 3.5 -5.8 3.6 -5.75 3.65 -5.7 3.7 -5.65 3.8 -5.6 3.85 -5.5 3.9 -5.45 4.0 -5.4 4.05 -5.3 4.15 -5.2 4.2 -5.15 4.3 -5.05 4.35 -4.95 4.45 -4.85 4.5 -4.8 4.6 -4.7 4.65 -4.55 4.75 -4.25 5.0 -3.9 5.2 -3.55 5.35 -3.2 5.55 -2.9 5.7 -2.55 5.8 -2.2 5.95 -1.85 6.05 -1.5 6.15 -1.15 6.2 -0.8 6.3 -0.45 6.35 -0.15 6.4 0.25 6.5 0.5 6.5 0.9 6.6 1.25 6.65 1.6 6.7 1.85 6.7 2.2 6.75 2.25 6.75 2.75 6.8 3.0 6.8 3.2 6.8 3.4 6.85 3.55 6.85 3.7 6.9 3.8 6.95 3.9 6.95 4.0 7.0 4.05 7.05 4.05 7.15 4.05 7.2 4.05 7.2 4.05 7.25 4.05 7.25 4.0 7.3 4.0 7.35 3.95 7.4 3.85 7.45 3.8 7.55 3.7 7.6 3.6 7.7 3.45 7.75 3.3 7.85 3.1 7.95 2.9 8.1 2.7 8.2 2.5 8.3 2.3 8.4 2.1 8.5 1.85 8.6 1.6 8.7 1.35 8.8 1.1 8.95 0.85 9.05 0.55 9.15 0.25 9.25 -0.05 9.35 -0.35 9.45 -0.7 9.55 -1.05 9.65 -1.4 9.75 -1.75 9.85 -1.65 9.95 -1.5 10.0 -1.4 10.1 -1.25 10.15 -1.15 10.2 -1.05 10.25 -0.95 10.3 -0.85 10.35 -0.7 10.4 -0.6 10.45 -0.5 10.45 -0.45 10.5 -0.35 10.5 -0.25 10.55 -0.15 10.55 -0.1 10.55 0.1 10.6 0.3 10.6 0.45 10.6 0.65 10.6 0.8 10.6 1.0 10.55 1.15 10.55 1.4 10.5 1.55 10.45 1.8 10.4 2.15 10.35 2.2 10.3 2.5 10.25 2.7 10.2 3.0 10.15 3.3 10.1 3.45 10.1 3.6 10.05 3.75 10.05 3.9 10.05 4.0 10.0 4.15 10.0 4.3 10.0 4.4 10.0 4.5 10.0 4.65 9.95 4.75 9.95 4.85 9.95 4.95 9.95 5.05 9.95 5.15 9.95 5.25 9.95 3.9 11.1 2.8 11.95 2.5 12.15 2.25 12.35 1.95 12.55 1.65 12.75 1.4 12.95 1.1 13.15 0.85 13.3 0.55 13.5 0.3 13.7 0.0 13.85 -0.25 14.0 -0.5 14.2 -0.8 14.35 -1.05 14.5 -1.3 14.65 -1.55 14.8 -1.45 14.8 -1.35 14.8 -1.2 14.8 -1.1 14.8 -0.95 14.8 -0.85 14.8 -0.7 14.8 -0.55 14.8 -0.4 14.8 -0.25 14.75 -0.1 14.75 0.05 14.75 0.2 14.7 0.4 14.7 0.55 14.65 0.75 14.65 1.0 14.6 1.25 14.55 1.5 14.5 1.75 14.4 2.05 14.3 2.3 14.2 2.6 14.1 2.95 13.95 3.3 13.75 3.65 13.55 4.05 13.35 4.5 13.1 4.95 12.85 5.45 12.55 6.0 12.2 6.6 11.85 8.65 10.55 10.4 9.35 9.9 10.35 8.85 12.45 9.0 12.4 9.1 12.35 9.25 12.3 9.4 12.25 9.6 12.2 9.75 12.15 9.9 12.05 10.1 12.0 10.25 11.95 10.45 11.85 10.65 11.8 10.85 11.7 11.05 11.6 11.25 11.5 11.45 11.4 11.65 11.3 12.25 11.0 12.85 10.7 13.4 10.4 13.95 10.05 14.5 9.75 15.0 9.35 15.5 9.0 16.05 8.6 16.55 8.2 17.1 7.75 17.6 7.3 18.2 6.8 18.7 6.35 19.35 5.75 19.8 5.3 20.65 4.55 23.15 2.2 27.85 -2.15 27.95 -2.3 28.05 -2.4 28.15 -2.55 28.25 -2.7 28.35 -2.85 28.45 -3.0 28.55 -3.2 28.65 -3.35 28.75 -3.55 28.85 -3.75 29.0 -3.95 29.1 -4.15 29.2 -4.35 29.3 -4.6 29.4 -4.85 29.5 -5.05 29.6 -5.4 29.65 -5.45 29.75 -5.7 29.8 -5.9 29.9 -6.15 29.95 -6.35 30.0 -6.6 30.05 -6.85 30.15 -7.1 30.15 -7.35 30.2 -7.6 30.25 -7.9 30.25 -8.15 30.25 -8.45 30.25 -8.75 30.2 -9.05 30.2 -9.2 30.15 -9.3 30.15 -9.5 30.1 -9.65 30.05 -9.9 30.0 -10.1 29.95 -10.35 29.9 -10.55 29.8 -10.8 29.7 -11.05 29.6 -11.3 29.45 -11.55 29.3 -11.8 29.15 -12.05 28.95 -12.3 28.7 -12.5 28.35 -12.9 27.9 -13.15 27.45 -13.4 27.0 -13.6 26.55 -13.75 26.05 -13.85 25.6 -13.95 25.1 -13.95 24.7 -14.0 24.2 -14.0 23.85 -13.95 23.45 -13.9 23.1 -13.9 22.8 -13.85 22.6 -13.8 22.35 -13.75 L22.35 -13.75" fill="#4cd368" fill-rule="evenodd" stroke="none"/>
  </g>
</svg>
