<?xml version="1.0" encoding="UTF-8" standalone="no"?>
<svg xmlns:xlink="http://www.w3.org/1999/xlink" height="131.0px" width="111.35px" xmlns="http://www.w3.org/2000/svg">
  <g transform="matrix(1.0, 0.0, 0.0, 1.0, 55.65, 65.5)">
    <path d="M43.15 23.65 Q43.1 24.2 42.95 26.1 42.85 27.6 42.75 28.5 42.65 29.3 42.55 30.05 42.4 30.8 42.2 31.55 42.0 32.3 41.75 33.0 41.5 33.75 41.2 34.45 40.9 35.1 40.55 35.8 40.2 36.45 39.8 37.15 39.4 37.8 38.95 38.4 38.5 39.05 38.05 39.65 37.8 40.0 37.55 40.3 37.25 40.6 37.0 40.9 36.75 41.2 36.45 41.5 36.2 41.8 35.9 42.1 35.65 42.4 35.35 42.7 35.05 43.0 34.75 43.25 34.45 43.5 34.15 43.8 33.85 44.05 33.55 44.3 33.5 44.3 33.5 44.35 33.45 44.35 33.45 44.4 33.4 44.4 33.4 44.45 33.35 44.45 33.35 44.5 33.3 44.5 33.3 44.55 33.3 44.6 33.25 44.6 33.25 44.65 33.25 44.65 33.2 44.7 33.2 44.75 33.1 44.95 31.6 48.45 31.45 48.75 31.3 49.05 31.15 49.35 31.0 49.65 30.8 49.95 30.65 50.2 30.45 50.45 30.25 50.7 30.05 51.0 29.8 51.2 29.6 51.45 29.35 51.7 29.1 51.95 28.85 52.15 28.6 52.4 28.35 52.6 27.45 53.4 26.5 54.0 25.55 54.6 24.6 55.05 23.65 55.5 22.65 55.8 21.65 56.1 20.65 56.25 19.65 56.35 18.6 56.35 17.6 56.35 16.5 56.2 15.5 56.05 14.4 55.7 13.35 55.4 12.25 55.0 11.35 54.65 9.1 53.4 9.05 53.35 8.95 53.35 8.9 53.3 8.8 53.25 8.75 53.25 8.65 53.2 8.6 53.2 8.5 53.2 8.45 53.15 8.35 53.15 8.3 53.15 8.2 53.15 8.15 53.15 8.05 53.15 7.95 53.15 7.85 53.2 7.1 53.3 6.35 53.4 5.65 53.45 4.9 53.55 4.15 53.6 3.4 53.65 2.65 53.7 1.9 53.75 1.15 53.8 0.4 53.8 -0.35 53.8 -1.1 53.8 -1.85 53.85 -2.6 53.8 -3.35 53.8 -4.1 53.75 -4.55 53.75 -6.1 53.65 -7.35 53.6 -8.15 53.6 -8.2 53.6 -8.25 53.6 -8.3 53.6 -8.3 53.65 -8.35 53.65 -8.4 53.65 -8.45 53.7 -8.5 53.7 -8.55 53.75 -8.6 53.8 -8.65 53.8 -8.7 53.85 -8.7 53.9 -8.75 53.9 -8.8 53.95 -8.8 54.0 -9.2 54.45 -9.55 54.8 -9.95 55.2 -10.35 55.55 -10.8 55.9 -11.2 56.2 -11.65 56.5 -12.1 56.75 -12.55 57.0 -13.05 57.25 -13.55 57.45 -14.05 57.6 -14.55 57.75 -15.1 57.85 -15.65 57.95 -16.2 58.0 -16.65 58.05 -17.05 58.05 -17.5 58.05 -17.95 58.05 -18.35 58.05 -18.8 58.0 -19.2 58.0 -19.65 57.95 -20.05 57.9 -20.5 57.8 -20.9 57.7 -21.35 57.6 -21.75 57.5 -22.15 57.35 -22.6 57.25 -23.0 57.05 -23.55 56.8 -24.1 56.6 -24.65 56.35 -25.15 56.1 -25.7 55.85 -26.2 55.55 -26.7 55.25 -27.15 54.95 -27.65 54.65 -28.1 54.3 -28.6 53.95 -29.0 53.55 -29.45 53.15 -29.85 52.75 -30.25 52.3 -30.65 51.8 -30.85 51.5 -31.05 51.25 -31.3 50.95 -31.45 50.65 -31.65 50.35 -31.8 50.05 -32.0 49.7 -32.1 49.4 -32.25 49.05 -32.4 48.75 -32.5 48.4 -32.6 48.05 -32.7 47.75 -32.75 47.35 -32.8 47.0 -32.85 46.65 -32.85 46.6 -32.85 46.6 -32.85 46.55 -32.9 46.55 -32.9 46.5 -32.9 46.45 -32.9 46.45 -32.95 46.4 -32.95 46.4 -33.0 46.35 -33.0 46.3 -33.05 46.3 -33.05 46.25 -33.1 46.25 -33.1 46.25 -33.15 46.2 -34.3 45.45 -35.3 44.65 -36.3 43.85 -37.2 42.95 -38.1 42.05 -38.9 41.05 -39.7 40.1 -40.4 39.05 -41.1 38.0 -41.7 36.9 -42.3 35.8 -42.85 34.6 -43.35 33.45 -43.8 32.2 -44.2 31.0 -44.6 29.75 -44.85 28.95 -46.05 23.35 -46.05 23.25 -46.1 23.2 -46.1 23.1 -46.15 23.05 -46.15 22.95 -46.2 22.9 -46.2 22.85 -46.25 22.75 -46.3 22.7 -46.35 22.65 -46.4 22.55 -46.45 22.5 -46.5 22.45 -46.55 22.4 -46.6 22.3 -46.65 22.25 -46.8 22.1 -46.9 22.0 -47.05 21.9 -47.15 21.75 -47.3 21.65 -47.4 21.5 -47.55 21.4 -47.65 21.25 -47.75 21.15 -47.9 21.0 -48.0 20.9 -48.1 20.75 -48.2 20.6 -48.3 20.45 -48.4 20.35 -48.5 20.2 -49.25 19.1 -49.9 17.95 -50.5 16.8 -51.0 15.65 -51.5 14.5 -51.9 13.3 -52.3 12.1 -52.55 10.9 -52.8 9.65 -52.95 8.45 -53.1 7.2 -53.15 5.9 -53.15 4.65 -53.1 3.35 -53.0 2.05 -52.8 0.75 -52.65 -0.05 -52.5 -0.85 -52.35 -1.65 -52.15 -2.45 -51.95 -3.25 -51.75 -4.0 -51.5 -4.8 -51.25 -5.55 -50.95 -6.3 -50.65 -7.05 -50.35 -7.8 -50.0 -8.55 -49.65 -9.25 -49.25 -10.0 -48.9 -10.7 -48.45 -11.4 -48.25 -11.75 -48.0 -12.1 -47.75 -12.45 -47.5 -12.8 -47.25 -13.15 -47.0 -13.45 -46.7 -13.8 -46.45 -14.1 -46.15 -14.4 -45.85 -14.7 -45.6 -15.0 -45.3 -15.3 -45.0 -15.6 -44.65 -15.85 -44.35 -16.15 -44.0 -16.45 -43.95 -16.5 -43.9 -16.55 -43.85 -16.55 -43.85 -16.6 -43.8 -16.65 -43.75 -16.7 -43.75 -16.75 -43.7 -16.85 -43.65 -16.9 -43.65 -16.95 -43.6 -17.0 -43.6 -17.05 -43.55 -17.15 -43.55 -17.2 -43.5 -17.25 -43.5 -17.3 -43.25 -18.25 -43.0 -19.15 -42.7 -20.1 -42.45 -21.0 -42.15 -21.95 -41.85 -22.85 -41.55 -23.8 -41.2 -24.65 -40.9 -25.6 -40.55 -26.45 -40.2 -27.4 -39.8 -28.25 -39.45 -29.15 -39.05 -30.0 -38.6 -30.9 -38.15 -31.75 -37.25 -33.5 -36.25 -35.15 -35.2 -36.8 -34.1 -38.3 -32.95 -39.85 -31.7 -41.2 -30.45 -42.6 -29.1 -43.9 -27.75 -45.15 -26.25 -46.3 -24.8 -47.45 -23.15 -48.45 -21.55 -49.45 -19.8 -50.3 -18.1 -51.15 -16.2 -51.85 -15.55 -52.1 -14.95 -52.35 -14.25 -52.6 -13.65 -52.8 -13.0 -53.05 -12.4 -53.25 -11.75 -53.45 -11.1 -53.65 -10.45 -53.85 -9.8 -54.05 -9.15 -54.2 -8.5 -54.35 -7.85 -54.5 -7.15 -54.65 -6.5 -54.75 -5.85 -54.85 -5.05 -54.95 -4.3 -55.05 -3.5 -55.1 -2.7 -55.15 -1.95 -55.2 -1.15 -55.25 -0.4 -55.3 0.4 -55.3 1.15 -55.3 1.95 -55.25 2.75 -55.25 3.5 -55.2 4.3 -55.15 5.05 -55.1 5.85 -55.0 6.65 -54.9 7.85 -54.75 9.05 -54.5 10.25 -54.3 11.4 -53.95 12.55 -53.65 13.7 -53.25 14.8 -52.85 15.95 -52.4 17.0 -51.95 18.1 -51.4 19.15 -50.85 20.25 -50.3 21.25 -49.7 22.35 -49.05 23.35 -48.45 24.4 -47.75 24.9 -47.4 25.4 -47.0 25.9 -46.65 26.35 -46.25 26.8 -45.85 27.25 -45.4 27.65 -44.95 28.1 -44.5 28.5 -44.05 28.9 -43.55 29.25 -43.05 29.65 -42.55 30.0 -42.1 30.35 -41.55 30.7 -41.05 31.05 -40.5 31.8 -39.3 32.5 -38.1 33.25 -36.9 33.95 -35.7 34.65 -34.45 35.3 -33.25 35.95 -32.0 36.6 -30.75 37.2 -29.5 37.8 -28.25 38.4 -27.0 39.0 -25.7 39.55 -24.45 40.1 -23.15 40.65 -21.85 41.15 -20.55 42.3 -17.5 43.6 -10.65 43.6 -10.6 43.65 -10.55 43.65 -10.5 43.65 -10.45 43.7 -10.4 43.7 -10.35 43.7 -10.3 43.75 -10.25 43.75 -10.2 43.8 -10.15 43.8 -10.1 43.85 -10.05 43.85 -10.0 43.9 -9.95 43.9 -9.9 43.95 -9.85 44.3 -9.25 44.85 -8.35 45.85 -6.75 45.8 -6.85 46.3 -5.95 46.7 -5.35 47.2 -4.5 47.6 -3.8 48.1 -3.0 48.5 -2.25 48.95 -1.45 49.35 -0.7 49.75 0.1 50.15 0.85 50.55 1.65 50.9 2.45 51.55 4.0 52.4 6.3 54.45 12.05 53.75 10.25 53.9 10.6 54.0 11.0 54.15 11.35 54.25 11.7 54.4 12.1 54.5 12.45 54.6 12.85 54.7 13.2 54.8 13.6 54.85 14.0 54.95 14.35 55.0 14.75 55.05 15.15 55.1 15.55 55.15 15.9 55.2 16.3 55.2 16.6 55.25 16.8 55.25 17.1 55.3 17.35 55.3 17.6 55.3 17.85 55.3 18.15 55.3 18.4 55.35 18.65 55.35 18.9 55.3 19.2 55.3 19.45 55.3 19.7 55.3 19.95 55.25 20.2 55.2 20.45 55.15 20.9 55.0 21.35 54.85 21.8 54.65 22.25 54.45 22.65 54.15 23.0 53.85 23.35 53.5 23.7 53.2 24.0 52.8 24.25 52.4 24.55 51.95 24.75 51.55 24.95 51.1 25.1 50.6 25.25 50.15 25.3 49.7 25.35 49.3 25.4 48.85 25.4 48.45 25.4 48.05 25.35 47.65 25.3 47.25 25.25 46.8 25.2 46.45 25.1 46.05 24.95 45.65 24.85 45.25 24.7 44.85 24.55 44.5 24.35 44.1 24.2 43.75 24.0 43.45 23.85 43.15 23.65 L43.15 23.65 M-42.1 25.1 Q-41.55 27.6 -41.3 28.45 -40.85 30.0 -40.35 31.4 -39.8 32.85 -39.15 34.15 -38.45 35.5 -37.7 36.7 -36.9 37.9 -35.95 38.95 -35.05 40.05 -34.0 41.05 -32.9 42.0 -31.7 42.85 -30.5 43.7 -29.15 44.45 -27.75 45.15 -26.25 45.75 -24.35 46.5 -22.45 47.1 -20.6 47.7 -18.65 48.2 -16.75 48.7 -14.8 49.1 -12.9 49.45 -10.95 49.7 -9.0 49.95 -7.05 50.1 -5.1 50.25 -3.15 50.3 -1.15 50.3 0.85 50.25 2.8 50.15 4.8 50.0 6.25 49.85 7.7 49.65 9.1 49.45 10.55 49.2 11.95 48.95 13.35 48.6 14.75 48.3 16.15 47.9 17.5 47.5 18.9 47.05 20.25 46.65 21.6 46.15 22.95 45.65 24.3 45.1 25.65 44.6 27.0 44.0 28.0 43.55 28.9 43.05 29.8 42.55 30.65 41.95 31.45 41.4 32.25 40.75 33.0 40.1 33.7 39.4 34.35 38.7 35.0 37.9 35.6 37.1 36.15 36.25 36.7 35.45 37.2 34.5 37.7 33.6 38.1 32.65 38.4 32.0 38.6 31.3 38.8 30.65 39.0 29.95 39.15 29.3 39.25 28.55 39.4 27.9 39.45 27.15 39.5 26.5 39.55 25.75 39.6 25.1 39.55 24.35 39.55 23.7 39.55 22.95 39.5 22.25 39.45 21.55 39.35 20.1 38.25 10.25 38.25 10.05 38.25 9.85 38.25 9.7 38.3 9.5 38.3 9.35 38.4 9.2 38.45 9.05 38.55 8.9 38.65 8.75 38.75 8.65 38.9 8.5 39.0 8.45 39.15 8.35 39.3 8.25 39.5 8.2 39.65 8.2 39.85 8.15 40.0 8.15 40.2 8.15 40.35 8.2 40.55 8.25 40.7 8.3 40.85 8.4 41.0 8.5 41.15 8.6 41.25 8.7 41.35 8.85 41.45 9.0 41.55 9.15 41.6 9.3 41.7 9.5 41.7 9.7 41.8 10.15 41.9 11.0 42.05 11.9 42.1 12.25 42.65 15.65 42.9 16.65 43.0 17.15 43.9 18.85 44.1 19.2 44.3 19.5 44.5 19.85 44.75 20.1 45.0 20.4 45.25 20.6 45.5 20.85 45.8 21.05 46.1 21.2 46.4 21.35 46.75 21.5 47.1 21.6 47.45 21.7 47.85 21.7 48.2 21.75 48.65 21.75 49.0 21.75 49.3 21.7 49.6 21.65 49.9 21.5 50.15 21.4 50.4 21.25 50.65 21.1 50.8 20.95 51.0 20.75 51.15 20.5 51.25 20.25 51.35 20.0 51.45 19.7 51.5 19.4 51.5 19.1 51.5 18.75 51.45 18.15 51.4 17.6 51.35 17.0 51.3 16.45 51.25 15.85 51.15 15.3 51.1 14.7 51.0 14.15 50.9 13.55 50.75 13.0 50.65 12.4 50.5 11.85 50.4 11.3 50.25 10.75 50.1 10.15 49.9 9.6 49.55 8.45 49.1 7.25 48.65 6.1 48.15 4.95 47.65 3.85 47.1 2.7 46.55 1.65 45.95 0.5 45.4 -0.5 44.75 -1.65 44.2 -2.65 43.5 -3.8 42.95 -4.65 42.2 -5.9 45.0 -1.4 40.9 -8.0 40.85 -8.1 40.8 -8.2 40.75 -8.3 40.7 -8.4 40.65 -8.5 40.6 -8.65 40.55 -8.75 40.5 -8.85 40.45 -8.95 40.4 -9.05 40.35 -9.2 40.3 -9.3 40.3 -9.4 40.25 -9.5 40.25 -9.65 40.2 -9.75 38.75 -17.2 37.45 -20.35 37.0 -21.45 36.55 -22.55 36.05 -23.6 35.55 -24.7 35.1 -25.8 34.55 -26.85 34.05 -27.9 33.5 -29.0 33.0 -30.05 32.45 -31.1 31.85 -32.15 31.3 -33.15 30.7 -34.2 30.1 -35.25 29.5 -36.25 28.9 -37.3 28.65 -37.75 28.4 -38.1 28.15 -38.55 27.85 -38.9 27.6 -39.35 27.35 -39.7 27.05 -40.1 26.75 -40.5 26.5 -40.85 26.2 -41.25 25.9 -41.6 25.55 -41.95 25.25 -42.3 24.9 -42.65 24.55 -43.0 24.2 -43.35 23.55 -43.95 22.8 -44.5 22.1 -45.05 21.35 -45.6 20.6 -46.1 19.85 -46.55 19.05 -47.0 18.25 -47.4 17.5 -47.85 16.65 -48.2 15.85 -48.6 15.0 -48.95 14.2 -49.25 13.3 -49.6 12.5 -49.9 11.6 -50.2 10.75 -50.5 9.8 -50.75 8.95 -51.0 8.0 -51.15 7.1 -51.35 6.2 -51.45 5.3 -51.6 4.35 -51.65 3.45 -51.75 2.5 -51.8 1.6 -51.8 0.65 -51.8 -0.25 -51.8 -1.2 -51.75 -2.1 -51.7 -3.05 -51.6 -4.35 -51.5 -5.6 -51.3 -6.9 -51.1 -8.15 -50.85 -9.35 -50.55 -10.6 -50.2 -11.8 -49.85 -13.0 -49.45 -14.2 -49.0 -15.35 -48.5 -16.5 -48.0 -17.65 -47.45 -18.75 -46.9 -19.9 -46.25 -21.0 -45.6 -22.05 -44.9 -23.2 -44.15 -24.3 -43.3 -25.4 -42.5 -26.45 -41.6 -27.45 -40.7 -28.35 -39.7 -29.3 -38.75 -30.15 -37.7 -31.0 -36.65 -31.8 -35.55 -32.6 -34.45 -33.3 -33.25 -34.0 -32.1 -34.65 -30.9 -35.3 -29.7 -35.85 -28.4 -36.2 -27.6 -36.55 -26.8 -36.9 -26.0 -37.2 -25.15 -37.55 -24.35 -37.85 -23.5 -38.15 -22.7 -38.45 -21.85 -38.7 -21.05 -38.95 -20.2 -39.25 -19.35 -39.5 -18.5 -39.75 -17.7 -40.0 -16.8 -40.2 -16.0 -40.45 -15.1 -40.5 -15.0 -40.5 -14.9 -40.55 -14.85 -40.6 -14.75 -40.65 -14.65 -40.65 -14.55 -40.7 -14.45 -40.8 -14.4 -40.85 -14.3 -40.9 -14.2 -40.95 -14.15 -41.0 -14.05 -41.1 -14.0 -41.15 -13.95 -41.2 -13.9 -41.3 -13.85 -41.55 -13.7 -41.85 -13.55 -42.1 -13.4 -42.3 -13.2 -42.55 -13.05 -42.75 -12.85 -43.0 -12.65 -43.2 -12.4 -43.4 -12.2 -43.6 -12.0 -43.8 -11.8 -44.0 -11.55 -44.15 -11.35 -44.35 -11.1 -44.5 -10.9 -44.7 -10.6 -45.05 -10.15 -45.35 -9.7 -45.65 -9.3 -45.9 -8.8 -46.2 -8.35 -46.45 -7.85 -46.65 -7.4 -46.9 -6.9 -47.1 -6.45 -47.35 -5.9 -47.5 -5.45 -47.7 -4.9 -47.9 -4.45 -48.05 -3.9 -48.2 -3.4 -48.4 -2.85 -48.8 -1.5 -49.05 -0.15 -49.35 1.2 -49.5 2.5 -49.6 3.8 -49.6 5.1 -49.65 6.4 -49.5 7.7 -49.35 9.0 -49.1 10.25 -48.8 11.55 -48.35 12.8 -47.9 14.05 -47.3 15.25 -46.7 16.5 -45.95 17.7 -45.75 18.05 -45.5 18.35 -45.25 18.65 -45.0 18.95 -44.75 19.25 -44.5 19.5 -44.25 19.75 -43.95 20.0 -43.65 20.25 -43.35 20.45 -43.05 20.65 -42.7 20.85 -42.4 21.0 -42.05 21.15 -41.7 21.3 -41.35 21.45 -40.9 21.6 -40.45 21.7 -40.05 21.75 -39.65 21.8 -39.25 21.8 -38.9 21.75 -38.55 21.7 -38.25 21.55 -37.95 21.4 -37.65 21.25 -37.4 21.05 -37.15 20.75 -36.9 20.5 -36.7 20.15 -36.5 19.8 -36.35 19.4 -34.95 15.45 -34.85 15.0 -34.65 14.25 -34.45 13.45 -34.2 12.7 -33.95 11.95 -33.7 11.2 -33.4 10.45 -33.15 9.75 -32.85 9.0 -32.55 8.3 -32.2 7.55 -31.9 6.85 -31.5 6.15 -31.15 5.45 -30.8 4.75 -30.4 4.05 -30.0 3.35 -29.9 3.15 -29.75 2.95 -29.65 2.8 -29.5 2.6 -29.35 2.4 -29.25 2.25 -29.1 2.05 -28.95 1.85 -28.8 1.7 -28.65 1.5 -28.5 1.35 -28.35 1.2 -28.2 1.05 -28.0 0.85 -27.9 0.7 -27.7 0.5 -27.55 0.35 -27.4 0.25 -27.3 0.15 -27.1 0.1 -26.95 0.0 -26.8 0.0 -26.6 -0.05 -26.45 -0.05 -26.3 -0.05 -26.1 0.0 -25.95 0.05 -25.8 0.1 -25.65 0.2 -25.5 0.25 -25.35 0.35 -25.2 0.5 -25.05 0.65 -24.95 0.8 -24.9 0.95 -24.8 1.1 -24.75 1.25 -24.7 1.45 -24.7 1.6 -24.7 1.75 -24.7 1.95 -24.75 2.1 -24.8 2.3 -24.85 2.45 -24.95 2.6 -25.05 2.75 -25.15 2.9 -25.3 3.05 -25.7 3.4 -26.05 3.85 -26.4 4.25 -26.7 4.7 -27.0 5.1 -27.25 5.6 -27.5 6.0 -27.8 6.55 -28.0 6.95 -28.25 7.5 -28.4 7.8 -28.7 8.45 -29.0 9.15 -29.2 9.45 -29.45 10.0 -29.65 10.45 -29.3 10.45 -28.85 10.45 2.4 10.4 4.2 10.4 4.45 10.4 4.7 10.45 4.9 10.5 5.1 10.6 5.3 10.7 5.4 10.85 5.55 10.95 5.65 11.15 5.75 11.3 5.8 11.45 5.8 11.65 5.8 11.85 5.8 12.05 5.75 12.25 5.65 12.45 5.55 12.7 5.45 12.9 4.4 14.7 4.0 15.4 3.55 16.05 3.1 16.75 2.65 17.4 2.15 18.0 1.65 18.6 1.15 19.2 0.6 19.8 0.05 20.35 -0.5 20.9 -1.1 21.4 -1.7 21.9 -2.35 22.4 -3.0 22.9 -3.6 23.35 -4.3 23.8 -5.2 24.35 -6.05 24.8 -6.95 25.25 -7.9 25.65 -8.8 26.0 -9.75 26.3 -10.65 26.55 -11.6 26.75 -12.55 26.9 -13.5 27.0 -14.5 27.1 -15.45 27.05 -16.45 27.05 -17.45 26.9 -18.45 26.8 -19.5 26.55 -20.0 26.45 -20.45 26.3 -20.95 26.15 -21.4 26.0 -21.9 25.85 -22.35 25.65 -22.8 25.45 -23.25 25.25 -23.7 25.0 -24.1 24.75 -24.55 24.5 -24.95 24.2 -25.35 23.95 -25.75 23.6 -26.1 23.3 -26.5 22.95 -26.6 22.85 -26.65 22.75 -26.75 22.7 -26.85 22.6 -26.9 22.55 -27.0 22.5 -27.1 22.45 -27.2 22.4 -27.3 22.35 -27.4 22.3 -27.5 22.3 -27.6 22.25 -27.7 22.25 -27.8 22.25 -27.95 22.25 -28.1 22.25 -29.5 22.35 -33.35 22.25 -33.45 22.25 -33.5 22.25 -33.55 22.25 -33.6 22.3 -33.7 22.3 -33.75 22.3 -33.8 22.35 -33.85 22.35 -33.9 22.4 -33.95 22.4 -33.95 22.45 -34.0 22.5 -34.05 22.5 -34.1 22.55 -34.15 22.6 -34.2 22.65 -34.4 22.95 -34.65 23.2 -34.85 23.45 -35.1 23.7 -35.35 23.9 -35.65 24.1 -35.9 24.3 -36.2 24.45 -36.45 24.6 -36.75 24.75 -37.05 24.85 -37.4 24.95 -37.7 25.05 -38.05 25.1 -38.4 25.15 -38.75 25.2 -38.8 25.2 -42.1 25.1 L-42.1 25.1 M0.45 13.65 Q-8.25 13.65 -25.45 13.65 -25.3 14.65 -24.7 17.95 -24.65 18.2 -24.6 18.45 -24.5 18.75 -24.4 18.95 -24.3 19.2 -24.2 19.4 -24.05 19.6 -23.95 19.8 -23.8 20.0 -23.6 20.2 -23.45 20.35 -23.25 20.55 -23.05 20.7 -22.85 20.85 -22.65 21.0 -22.4 21.15 -21.75 21.55 -21.05 21.85 -20.4 22.15 -19.7 22.4 -19.05 22.6 -18.35 22.75 -17.65 22.95 -16.95 23.0 -16.25 23.1 -15.55 23.1 -14.85 23.1 -14.1 23.05 -13.4 23.0 -12.65 22.85 -11.95 22.75 -11.2 22.55 -10.45 22.35 -9.75 22.1 -9.05 21.85 -8.35 21.5 -7.7 21.2 -7.05 20.85 -6.4 20.45 -5.8 20.05 -5.2 19.65 -4.6 19.15 -4.05 18.7 -3.45 18.2 -2.95 17.7 -2.4 17.15 -1.9 16.6 -1.35 16.05 -1.0 15.6 -0.45 14.9 0.35 13.75 0.45 13.65 L0.45 13.65 M-28.5 48.6 Q-28.35 48.95 -28.3 49.0 -27.9 49.6 -27.7 49.8 -27.1 50.4 -26.5 50.95 -25.9 51.5 -25.25 51.95 -24.6 52.4 -23.95 52.8 -23.25 53.2 -22.55 53.5 -21.85 53.8 -21.1 54.0 -20.35 54.2 -19.55 54.35 -18.75 54.45 -17.95 54.5 -17.15 54.55 -16.3 54.45 -16.05 54.45 -15.85 54.4 -15.6 54.35 -15.4 54.3 -15.2 54.25 -14.95 54.2 -14.75 54.1 -14.55 54.05 -14.35 53.95 -14.15 53.85 -13.95 53.7 -13.75 53.6 -13.55 53.45 -13.35 53.35 -13.15 53.2 -12.95 53.05 -13.95 52.9 -14.95 52.7 -15.95 52.5 -16.95 52.3 -17.95 52.05 -18.9 51.85 -19.9 51.6 -20.85 51.3 -21.85 51.05 -22.8 50.7 -23.75 50.4 -24.7 50.1 -25.7 49.75 -26.6 49.35 -27.6 49.0 -28.5 48.6 L-28.5 48.6 M14.5 52.0 Q15.1 52.2 15.7 52.35 16.3 52.5 16.85 52.65 17.45 52.75 18.05 52.8 18.65 52.8 19.2 52.8 19.8 52.8 20.4 52.7 20.95 52.6 21.55 52.45 22.1 52.3 22.7 52.05 23.25 51.8 23.8 51.5 24.2 51.25 24.6 51.0 25.0 50.75 25.4 50.45 25.75 50.2 26.1 49.9 26.45 49.65 26.7 49.35 27.0 49.1 27.25 48.8 27.5 48.55 27.65 48.3 27.85 48.0 27.95 47.8 28.05 47.55 28.05 47.35 27.25 47.7 26.4 48.05 25.55 48.4 24.75 48.75 23.9 49.05 23.05 49.35 22.2 49.7 21.35 49.95 20.5 50.25 19.65 50.55 18.8 50.8 17.95 51.05 17.1 51.3 16.2 51.55 15.35 51.8 14.5 52.0 L14.5 52.0 M-28.9 17.55 Q-29.05 16.25 -29.4 13.7 -29.9 13.7 -30.8 13.7 -31.15 14.95 -31.9 17.55 -30.85 17.55 -28.9 17.55 L-28.9 17.55" fill="#000000" fill-rule="evenodd" stroke="none"/>
    <path d="M2.8 -19.2 Q3.45 -19.2 4.05 -19.2 4.7 -19.15 5.35 -19.1 6.05 -19.05 6.7 -19.0 7.4 -18.9 8.05 -18.8 8.8 -18.7 9.45 -18.55 10.2 -18.4 10.85 -18.25 11.6 -18.05 12.3 -17.85 13.0 -17.65 13.7 -17.4 13.95 -17.3 14.2 -17.2 14.45 -17.1 14.7 -17.0 14.95 -16.85 15.2 -16.75 15.45 -16.65 15.65 -16.5 15.9 -16.35 16.1 -16.25 16.35 -16.1 16.55 -15.95 16.8 -15.8 17.0 -15.6 17.2 -15.45 17.4 -15.25 17.75 -14.9 18.05 -14.55 18.35 -14.2 18.55 -13.85 18.7 -13.5 18.8 -13.1 18.9 -12.75 18.9 -12.35 18.95 -12.0 18.85 -11.6 18.75 -11.25 18.6 -10.85 18.4 -10.5 18.15 -10.15 17.85 -9.75 17.5 -9.45 17.3 -9.25 17.05 -9.05 16.85 -8.85 16.6 -8.7 16.35 -8.5 16.1 -8.35 15.85 -8.2 15.6 -8.05 15.35 -7.95 15.1 -7.8 14.85 -7.65 14.55 -7.55 14.3 -7.45 14.0 -7.35 13.75 -7.25 13.45 -7.1 12.9 -6.9 12.3 -6.7 11.7 -6.55 11.1 -6.4 10.55 -6.25 9.95 -6.1 9.35 -6.0 8.75 -5.9 8.15 -5.8 7.55 -5.7 6.95 -5.65 6.35 -5.6 5.75 -5.5 5.1 -5.5 4.5 -5.45 3.9 -5.4 3.05 -5.35 2.25 -5.35 1.4 -5.35 0.6 -5.4 -0.25 -5.4 -1.05 -5.5 -1.85 -5.55 -2.65 -5.65 -3.45 -5.75 -4.25 -5.85 -5.1 -6.0 -5.85 -6.2 -6.7 -6.35 -7.45 -6.6 -8.25 -6.8 -9.05 -7.1 -9.35 -7.2 -9.6 -7.3 -9.9 -7.4 -10.2 -7.55 -10.45 -7.65 -10.75 -7.75 -11.0 -7.9 -11.3 -8.05 -11.55 -8.2 -11.8 -8.35 -12.05 -8.5 -12.3 -8.7 -12.55 -8.85 -12.8 -9.05 -13.05 -9.25 -13.25 -9.45 -13.6 -9.8 -13.85 -10.15 -14.1 -10.5 -14.3 -10.85 -14.45 -11.2 -14.55 -11.55 -14.65 -11.95 -14.65 -12.3 -14.65 -12.65 -14.55 -13.0 -14.45 -13.4 -14.3 -13.75 -14.1 -14.1 -13.85 -14.45 -13.6 -14.8 -13.25 -15.1 -12.95 -15.4 -12.65 -15.65 -12.3 -15.9 -12.0 -16.1 -11.65 -16.35 -11.3 -16.55 -10.95 -16.7 -10.6 -16.9 -10.25 -17.05 -9.85 -17.2 -9.5 -17.35 -9.15 -17.5 -8.75 -17.6 -8.35 -17.75 -8.0 -17.85 -7.6 -18.0 -7.0 -18.15 -6.4 -18.3 -5.8 -18.45 -5.2 -18.55 -4.6 -18.7 -3.95 -18.75 -3.35 -18.85 -2.7 -18.95 -2.05 -19.0 -1.4 -19.05 -0.75 -19.1 -0.05 -19.15 0.6 -19.2 1.35 -19.2 2.05 -19.2 2.8 -19.2 L2.8 -19.2 M3.2 -17.35 Q2.4 -17.35 1.7 -17.35 1.0 -17.3 0.3 -17.3 -0.35 -17.25 -1.0 -17.2 -1.65 -17.15 -2.25 -17.1 -2.9 -17.05 -3.45 -16.95 -4.05 -16.85 -4.6 -16.75 -5.2 -16.65 -5.75 -16.5 -6.3 -16.35 -6.85 -16.2 -7.2 -16.1 -7.5 -16.0 -7.8 -15.9 -8.1 -15.85 -8.45 -15.7 -8.75 -15.6 -9.05 -15.5 -9.35 -15.35 -9.65 -15.2 -9.95 -15.1 -10.25 -14.9 -10.5 -14.75 -10.8 -14.55 -11.05 -14.4 -11.3 -14.2 -11.55 -13.95 -11.8 -13.75 -11.95 -13.55 -12.15 -13.3 -12.3 -13.1 -12.4 -12.9 -12.45 -12.7 -12.55 -12.45 -12.55 -12.25 -12.55 -12.05 -12.45 -11.85 -12.4 -11.65 -12.3 -11.45 -12.15 -11.25 -12.0 -11.05 -11.8 -10.85 -11.55 -10.65 -11.35 -10.5 -11.2 -10.4 -11.0 -10.25 -10.8 -10.1 -10.6 -10.0 -10.4 -9.9 -10.2 -9.75 -10.0 -9.65 -9.8 -9.55 -9.6 -9.45 -9.35 -9.3 -9.15 -9.25 -8.95 -9.15 -8.75 -9.05 -8.5 -8.95 -8.3 -8.85 -7.75 -8.65 -7.2 -8.45 -6.7 -8.3 -6.15 -8.15 -5.6 -8.0 -5.0 -7.9 -4.45 -7.8 -3.9 -7.7 -3.35 -7.6 -2.75 -7.55 -2.2 -7.45 -1.65 -7.4 -1.1 -7.35 -0.5 -7.3 0.05 -7.3 0.65 -7.25 1.45 -7.2 2.2 -7.2 3.0 -7.2 3.75 -7.25 4.55 -7.3 5.3 -7.35 6.1 -7.4 6.85 -7.5 7.6 -7.6 8.35 -7.7 9.15 -7.85 9.9 -8.05 10.65 -8.25 11.4 -8.45 12.15 -8.7 12.85 -8.95 13.05 -9.05 13.25 -9.1 13.45 -9.2 13.7 -9.3 13.9 -9.4 14.1 -9.5 14.3 -9.65 14.5 -9.75 14.7 -9.85 14.85 -10.0 15.05 -10.1 15.25 -10.25 15.45 -10.35 15.6 -10.5 15.8 -10.65 15.95 -10.75 16.15 -10.95 16.35 -11.15 16.5 -11.3 16.6 -11.5 16.75 -11.7 16.8 -11.9 16.85 -12.1 16.85 -12.3 16.85 -12.55 16.8 -12.75 16.7 -12.95 16.6 -13.1 16.5 -13.3 16.3 -13.5 16.15 -13.7 15.9 -13.9 15.75 -14.05 15.6 -14.15 15.4 -14.25 15.25 -14.4 15.05 -14.5 14.9 -14.6 14.7 -14.7 14.55 -14.85 14.35 -14.95 14.2 -15.05 14.0 -15.15 13.8 -15.25 13.6 -15.3 13.45 -15.4 13.25 -15.5 13.05 -15.55 12.4 -15.8 11.75 -16.05 11.1 -16.25 10.4 -16.4 9.75 -16.6 9.1 -16.75 8.5 -16.85 7.8 -16.95 7.2 -17.05 6.55 -17.15 6.0 -17.2 5.35 -17.25 4.8 -17.3 4.25 -17.3 3.7 -17.35 3.2 -17.35 L3.2 -17.35" fill="#000000" fill-rule="evenodd" stroke="none"/>
    <path d="M-16.6 -23.35 Q-16.25 -23.35 -15.95 -23.3 -15.65 -23.2 -15.35 -23.1 -15.1 -23.0 -14.8 -22.8 -14.55 -22.65 -14.35 -22.45 -14.15 -22.2 -13.95 -21.95 -13.8 -21.7 -13.65 -21.4 -13.55 -21.15 -13.5 -20.8 -13.45 -20.5 -13.45 -20.2 -13.45 -19.85 -13.5 -19.55 -13.55 -19.25 -13.7 -18.95 -13.8 -18.65 -14.0 -18.4 -14.15 -18.15 -14.4 -17.95 -14.6 -17.7 -14.85 -17.55 -15.1 -17.4 -15.4 -17.25 -15.7 -17.15 -16.0 -17.05 -16.3 -17.0 -16.65 -17.0 -16.95 -17.0 -17.3 -17.05 -17.6 -17.15 -17.85 -17.25 -18.15 -17.4 -18.4 -17.55 -18.65 -17.75 -18.85 -17.95 -19.05 -18.15 -19.25 -18.4 -19.4 -18.65 -19.5 -18.95 -19.65 -19.25 -19.7 -19.55 -19.75 -19.85 -19.75 -20.15 -19.75 -20.5 -19.7 -20.8 -19.65 -21.1 -19.5 -21.4 -19.4 -21.7 -19.25 -21.95 -19.05 -22.2 -18.85 -22.45 -18.65 -22.65 -18.4 -22.8 -18.15 -23.0 -17.85 -23.1 -17.55 -23.2 -17.25 -23.3 -16.95 -23.35 -16.6 -23.35 L-16.6 -23.35" fill="#000000" fill-rule="evenodd" stroke="none"/>
    <path d="M19.9 -18.5 Q19.55 -18.5 19.25 -18.55 18.95 -18.6 18.65 -18.75 18.35 -18.85 18.1 -19.0 17.85 -19.2 17.65 -19.4 17.4 -19.6 17.25 -19.85 17.05 -20.1 16.95 -20.4 16.85 -20.7 16.75 -21.0 16.7 -21.3 16.7 -21.65 16.7 -21.95 16.75 -22.3 16.85 -22.6 16.95 -22.9 17.1 -23.15 17.25 -23.4 17.4 -23.65 17.65 -23.9 17.85 -24.1 18.1 -24.25 18.35 -24.45 18.65 -24.55 18.95 -24.7 19.25 -24.75 19.55 -24.8 19.9 -24.8 20.2 -24.8 20.55 -24.75 20.85 -24.65 21.1 -24.55 21.4 -24.45 21.65 -24.25 21.9 -24.1 22.1 -23.9 22.35 -23.65 22.5 -23.4 22.65 -23.15 22.8 -22.9 22.9 -22.6 23.0 -22.3 23.05 -22.0 23.05 -21.65 23.05 -21.3 23.0 -21.0 22.95 -20.7 22.8 -20.4 22.7 -20.15 22.5 -19.85 22.35 -19.6 22.15 -19.4 21.95 -19.2 21.65 -19.0 21.4 -18.85 21.15 -18.75 20.85 -18.6 20.55 -18.55 20.2 -18.5 19.9 -18.5 L19.9 -18.5" fill="#000000" fill-rule="evenodd" stroke="none"/>
  </g>
</svg>
