<?xml version="1.0" encoding="UTF-8" standalone="no"?>
<svg xmlns:xlink="http://www.w3.org/1999/xlink" height="88.9px" width="101.05px" xmlns="http://www.w3.org/2000/svg">
  <g transform="matrix(1.0, 0.0, 0.0, 1.0, 32.35, 43.9)">
    <path d="M1.3 70.95 Q0.8 70.65 -0.5 69.15 -0.65 69.0 -0.8 68.85 -0.9 68.7 -1.05 68.55 -1.2 68.35 -1.3 68.2 -1.45 68.05 -1.6 67.9 -1.7 67.7 -1.8 67.55 -1.95 67.35 -2.05 67.2 -2.15 67.05 -2.3 66.85 -2.4 66.65 -2.5 66.5 -2.45 66.5 -2.4 66.45 -2.4 66.45 -2.4 66.4 -2.4 66.4 -2.4 66.35 -2.4 66.35 -2.4 66.3 -2.4 66.3 -2.45 66.3 -2.45 66.25 -2.45 66.25 -2.5 66.2 -2.5 66.2 -2.7 65.85 -3.75 63.95 -4.55 62.6 -5.1 61.7 -5.2 61.55 -5.2 61.55 -5.2 61.45 -5.15 61.45 -5.1 61.4 -4.95 61.4 -4.6 61.3 -3.65 61.1 -3.4 61.1 -3.0 61.05 -2.55 61.0 -2.3 61.0 -1.75 61.0 0.65 61.05 0.75 61.05 0.85 61.05 0.95 61.1 1.05 61.1 1.15 61.1 1.25 61.15 1.35 61.15 1.45 61.15 1.55 61.2 1.65 61.2 1.75 61.25 1.85 61.25 1.95 61.3 2.05 61.3 2.15 61.35 2.25 61.35 2.2 61.3 2.2 61.25 2.2 61.25 2.15 61.2 2.2 61.15 2.25 61.2 2.3 61.2 2.35 61.25 4.7 62.85 5.45 63.4 5.5 63.45 5.6 63.5 5.65 63.6 5.7 63.65 5.75 63.7 5.8 63.8 5.85 63.85 5.9 63.95 5.95 64.0 6.0 64.1 6.05 64.15 6.05 64.25 6.1 64.35 6.1 64.4 6.15 64.5 6.15 64.6 6.15 64.7 6.15 65.0 6.05 65.45 6.0 65.6 5.95 65.8 5.85 65.95 5.75 66.1 5.6 66.25 5.5 66.35 5.35 66.5 5.2 66.6 5.05 66.7 4.9 66.8 4.7 66.9 4.55 66.95 4.35 67.0 4.15 67.05 3.95 67.1 3.75 67.1 3.55 67.1 3.5 67.1 3.5 67.1 3.45 67.1 3.4 67.1 3.4 67.15 3.35 67.15 3.35 67.15 3.35 67.15 3.3 67.2 3.3 67.2 3.25 67.2 3.25 67.25 3.25 67.25 3.25 67.3 3.2 67.35 3.2 67.35 3.15 67.55 3.1 67.75 3.0 67.9 2.95 68.1 2.9 68.3 2.85 68.5 2.75 68.7 2.7 68.85 2.65 69.05 2.55 69.25 2.5 69.4 2.4 69.6 2.35 69.8 2.25 69.95 2.2 70.15 2.1 70.35 2.1 70.4 2.05 70.45 2.05 70.5 2.0 70.5 2.0 70.55 1.95 70.6 1.95 70.65 1.9 70.7 1.9 70.7 1.85 70.75 1.8 70.8 1.8 70.8 1.75 70.85 1.7 70.9 1.65 70.9 1.6 70.95 1.5 70.95 1.3 70.95 L1.3 70.95" fill="#d762fe" fill-rule="evenodd" stroke="none"/>
    <path d="M-55.15 27.1 Q-55.15 27.15 -55.1 27.2 -55.1 27.2 -55.0 27.2 -54.8 27.2 -54.65 27.25 -54.45 27.25 -54.3 27.3 -54.1 27.3 -53.95 27.35 -53.75 27.4 -53.6 27.45 -53.45 27.5 -53.25 27.55 -53.1 27.6 -52.95 27.65 -52.75 27.7 -52.6 27.75 -52.45 27.8 -52.25 27.9 -52.05 28.0 -51.85 28.05 -51.65 28.15 -51.45 28.25 -51.3 28.35 -51.1 28.5 -50.9 28.6 -50.75 28.75 -50.55 28.85 -50.4 29.0 -50.25 29.15 -50.1 29.3 -49.9 29.4 -49.75 29.6 -49.6 29.75 -49.45 29.9 -49.35 30.0 -49.3 30.1 -49.2 30.15 -49.15 30.25 -49.1 30.35 -49.0 30.45 -48.95 30.55 -48.85 30.65 -48.8 30.75 -48.75 30.85 -48.7 30.95 -48.6 31.05 -48.55 31.15 -48.5 31.25 -48.45 31.4 -48.4 31.5 -48.4 31.55 -48.35 31.6 -48.35 31.6 -48.35 31.65 -48.35 31.7 -48.4 31.7 -48.4 31.75 -48.45 31.8 -48.55 31.95 -48.65 32.05 -48.8 32.2 -48.9 32.35 -49.0 32.45 -49.15 32.6 -49.25 32.7 -49.35 32.85 -49.5 32.95 -49.6 33.1 -49.75 33.2 -49.9 33.3 -50.0 33.4 -50.15 33.55 -50.25 33.65 -50.4 33.75 -50.55 33.85 -50.7 34.0 -50.85 34.1 -51.05 34.2 -51.2 34.35 -51.35 34.45 -51.5 34.55 -51.7 34.65 -51.85 34.75 -52.0 34.85 -52.15 34.95 -52.35 35.05 -52.5 35.1 -52.7 35.2 -52.85 35.3 -53.05 35.4 -53.2 35.45 -53.3 35.5 -53.45 35.55 -53.6 35.6 -53.7 35.7 -53.85 35.75 -54.0 35.8 -54.1 35.85 -54.25 35.9 -54.4 35.9 -54.55 35.95 -54.65 36.0 -54.8 36.05 -54.95 36.1 -55.1 36.15 -55.25 36.2 -55.25 36.15 -55.25 36.2 -55.4 36.3 -55.6 36.3 -55.75 36.35 -55.9 36.35 -56.1 36.4 -56.25 36.35 -56.4 36.35 -56.55 36.3 -56.7 36.25 -56.85 36.2 -56.95 36.1 -57.1 36.05 -57.25 35.95 -57.4 35.85 -57.5 35.8 -57.65 35.65 -57.75 35.6 -57.85 35.5 -57.95 35.45 -58.05 35.35 -58.15 35.3 -58.25 35.2 -58.3 35.15 -58.4 35.05 -58.5 34.95 -58.6 34.9 -58.65 34.8 -58.75 34.7 -58.8 34.6 -58.9 34.5 -59.0 34.45 -59.05 34.35 -59.1 34.3 -59.1 34.25 -59.15 34.2 -59.15 34.15 -59.15 34.0 -59.15 33.9 -59.15 33.75 -59.15 33.6 -59.15 33.5 -59.1 33.35 -59.1 33.2 -59.1 33.1 -59.05 32.95 -59.0 32.85 -58.95 32.7 -58.9 32.6 -58.85 32.45 -58.8 32.35 -58.75 32.25 -58.65 32.1 -58.6 32.0 -58.5 31.95 -58.45 31.85 -58.4 31.75 -58.3 31.7 -58.2 31.6 -58.15 31.55 -58.05 31.5 -57.95 31.4 -57.9 31.35 -57.8 31.3 -57.7 31.25 -57.6 31.2 -57.5 31.15 -57.4 31.1 -57.3 31.1 -57.25 31.05 -57.25 31.05 -57.2 31.05 -57.15 31.0 -57.25 30.95 -57.35 30.9 -57.45 30.85 -57.5 30.8 -57.6 30.75 -57.7 30.65 -57.75 30.6 -57.85 30.55 -57.9 30.5 -58.0 30.4 -58.05 30.35 -58.15 30.25 -58.2 30.2 -58.25 30.1 -58.35 30.0 -58.4 29.95 -58.45 29.9 -58.5 29.8 -58.5 29.75 -58.55 29.65 -58.55 29.6 -58.6 29.5 -58.6 29.4 -58.65 29.35 -58.65 29.25 -58.7 29.2 -58.7 29.1 -58.7 29.05 -58.75 28.95 -58.75 28.85 -58.75 28.8 -58.8 28.7 -58.8 28.65 -58.8 28.65 -58.75 28.6 -58.75 28.55 -58.75 28.55 -58.7 28.5 -58.55 28.35 -58.4 28.25 -58.25 28.1 -58.1 28.0 -57.95 27.85 -57.75 27.75 -57.6 27.65 -57.4 27.6 -57.25 27.5 -57.05 27.45 -56.9 27.35 -56.7 27.3 -56.5 27.25 -56.3 27.25 -56.1 27.2 -55.9 27.2 -55.65 27.15 -55.75 27.2 -55.7 27.15 -55.7 27.1 -55.5 27.1 -55.15 27.1 L-55.15 27.1 M-56.6 32.05 Q-56.6 32.05 -56.65 32.1 -56.7 32.2 -56.8 32.25 -56.85 32.35 -56.9 32.45 -56.95 32.55 -57.0 32.6 -57.05 32.7 -57.1 32.8 -57.15 32.9 -57.2 33.0 -57.25 33.1 -57.25 33.2 -57.3 33.3 -57.35 33.4 -57.35 33.5 -57.35 33.6 -57.35 33.65 -57.35 33.75 -57.4 33.8 -57.4 33.85 -57.35 33.95 -57.35 34.0 -57.35 34.05 -57.3 34.1 -57.3 34.2 -57.25 34.25 -57.25 34.3 -57.2 34.35 -57.15 34.4 -57.1 34.4 -57.05 34.45 -57.0 34.5 -56.9 34.55 -56.8 34.6 -56.65 34.65 -56.55 34.7 -56.45 34.75 -56.35 34.75 -56.2 34.8 -56.1 34.8 -56.0 34.85 -55.9 34.85 -55.75 34.85 -55.65 34.85 -55.55 34.8 -55.4 34.8 -55.3 34.75 -55.2 34.75 -54.9 34.65 -54.6 34.55 -54.3 34.4 -54.05 34.25 -53.75 34.15 -53.5 34.0 -53.2 33.8 -52.95 33.65 -52.7 33.5 -52.45 33.3 -52.2 33.1 -52.0 32.9 -51.75 32.7 -51.55 32.45 -51.3 32.2 -51.1 31.95 -51.05 31.9 -51.0 31.85 -50.95 31.75 -50.95 31.75 -50.9 31.65 -50.85 31.6 -50.8 31.55 -50.75 31.5 -50.7 31.45 -50.65 31.4 -50.65 31.3 -50.6 31.25 -50.55 31.2 -50.55 31.1 -50.5 31.05 -50.45 31.0 -50.4 30.95 -50.4 30.95 -50.35 30.9 -50.35 30.85 -50.35 30.85 -50.35 30.8 -50.4 30.8 -50.4 30.75 -50.45 30.75 -50.45 30.7 -51.4 29.8 -51.65 29.6 -51.85 29.45 -52.05 29.35 -52.2 29.2 -52.4 29.1 -52.6 29.0 -52.8 28.9 -53.0 28.8 -53.2 28.75 -53.45 28.65 -53.65 28.6 -53.85 28.55 -54.1 28.5 -54.3 28.45 -54.55 28.45 -54.8 28.45 -55.0 28.45 -55.1 28.45 -55.2 28.45 -55.3 28.45 -55.4 28.45 -55.5 28.45 -55.55 28.45 -55.65 28.45 -55.75 28.45 -55.85 28.5 -55.95 28.5 -56.05 28.5 -56.1 28.55 -56.2 28.6 -56.3 28.6 -56.4 28.65 -56.45 28.7 -56.5 28.7 -56.5 28.7 -56.55 28.7 -56.55 28.7 -56.65 28.75 -56.7 28.75 -56.75 28.8 -56.8 28.85 -56.85 28.9 -56.85 28.95 -56.9 29.05 -56.9 29.1 -56.95 29.15 -56.95 29.25 -56.95 29.3 -56.9 29.35 -56.9 29.45 -56.85 29.5 -56.8 29.6 -56.75 29.7 -56.7 29.8 -56.6 29.9 -56.55 30.0 -56.45 30.05 -56.35 30.15 -56.25 30.25 -56.2 30.3 -56.1 30.4 -56.0 30.45 -55.9 30.5 -55.8 30.6 -55.65 30.65 -55.55 30.7 -55.45 30.75 -55.35 30.8 -55.25 30.9 -55.25 30.95 -55.35 30.95 -55.35 30.95 -55.4 31.0 L-55.4 31.0 Q-55.45 30.95 -55.5 31.05 L-55.5 31.05 Q-55.55 31.0 -55.6 31.1 L-55.6 31.1 Q-55.65 31.1 -55.7 31.15 -55.75 31.15 -55.8 31.2 -55.85 31.25 -55.9 31.25 -55.95 31.3 -56.0 31.35 -56.05 31.4 -56.1 31.45 -56.15 31.45 -56.2 31.5 -56.2 31.55 -56.25 31.6 -56.35 31.65 -56.35 31.7 -56.4 31.7 -56.4 31.75 -56.4 31.8 -56.4 31.85 -56.45 31.9 -56.5 32.0 -56.55 32.0 -56.6 32.05 L-56.6 32.05 -56.6 32.05" fill="#e8e8ee" fill-rule="evenodd" stroke="none"/>
    <path d="M-49.5 43.25 Q-49.5 43.2 -49.5 43.15 -49.9 42.5 -50.55 41.4 -50.55 41.35 -50.5 41.35 -50.6 41.35 -50.45 41.4 -50.4 41.45 -50.35 41.45 -50.3 41.5 -50.25 41.5 -50.2 41.55 -50.15 41.55 -50.05 41.55 -50.0 41.6 -49.95 41.6 -49.9 41.6 -49.85 41.6 -49.8 41.6 -49.75 41.65 -49.65 41.65 -49.6 41.65 -49.55 41.65 -49.5 41.7 -49.5 41.7 -49.45 41.75 -49.4 41.75 -49.4 41.8 -49.35 41.8 -49.3 41.85 -49.25 41.85 -49.25 41.85 -49.2 41.85 -49.15 41.9 -49.1 41.9 -49.05 41.9 -49.0 41.9 -48.95 41.9 -48.9 41.9 -48.85 41.9 -48.8 41.9 -48.75 41.9 -48.7 41.9 -48.65 41.9 -48.6 41.9 -48.55 41.9 -48.5 41.9 -48.45 41.85 -48.35 41.85 -48.3 41.85 -48.25 41.85 -48.2 41.85 -48.15 41.8 -48.1 41.8 -48.05 41.8 -47.7 41.85 -46.25 42.0 -45.15 42.15 -44.45 42.25 -43.7 42.35 -39.35 43.15 -36.75 43.6 -31.3 44.55 -29.15 44.95 -26.35 45.45 -26.2 45.5 -24.45 45.45 -17.45 45.4 -17.05 45.45 -16.65 45.45 -16.25 45.45 -15.8 45.45 -15.4 45.5 -15.0 45.5 -14.6 45.5 -14.2 45.5 -13.75 45.55 -13.35 45.55 -12.95 45.6 -12.55 45.6 -12.15 45.65 -11.7 45.65 -11.3 45.7 -10.9 45.75 -10.5 45.8 -9.85 45.85 -9.2 45.9 -8.55 46.0 -7.95 46.05 -7.3 46.15 -6.7 46.25 -6.05 46.35 -5.4 46.45 -4.8 46.55 -4.15 46.7 -3.5 46.8 -2.9 46.95 -2.3 47.1 -1.65 47.25 -1.05 47.45 -0.45 47.6 -0.45 47.65 -0.5 47.65 -0.65 47.65 -0.8 47.7 -0.9 47.7 -1.05 47.7 -1.2 47.75 -1.35 47.75 -1.5 47.8 -1.65 47.8 -1.75 47.8 -1.9 47.85 -2.05 47.85 -2.2 47.9 -2.35 47.9 -2.5 47.95 -2.6 48.0 -2.75 48.0 -3.1 48.05 -3.4 48.15 -3.75 48.25 -4.1 48.35 -4.4 48.45 -4.75 48.55 -5.05 48.65 -5.4 48.75 -5.7 48.9 -6.05 49.0 -6.35 49.15 -6.65 49.25 -6.95 49.4 -7.3 49.55 -7.6 49.7 -7.9 49.85 -7.95 49.9 -8.0 49.9 -8.0 49.95 -8.05 49.95 -8.05 50.0 -8.05 50.0 -8.05 50.05 -8.0 50.1 -8.0 50.1 -7.95 50.15 -7.1 51.15 -6.15 52.15 -6.1 52.2 -6.1 52.25 -6.05 52.25 -6.0 52.3 -6.0 52.35 -5.95 52.4 -5.9 52.45 -5.9 52.45 -5.85 52.5 -5.8 52.55 -5.8 52.6 -5.75 52.6 -5.7 52.65 -5.7 52.7 -5.65 52.75 -5.65 52.8 -7.05 52.5 -7.5 52.45 -7.95 52.35 -8.0 52.3 -8.35 52.15 -10.35 51.8 -10.35 51.8 -12.65 51.45 -14.05 51.2 -14.95 51.05 -15.5 50.95 -17.45 50.85 -21.4 50.7 -22.35 50.7 -22.85 50.7 -26.05 50.8 -26.9 50.8 -27.25 50.75 -27.3 50.75 -27.3 50.75 -27.35 50.75 -27.35 50.75 -27.4 50.75 -27.45 50.75 -27.45 50.75 -27.5 50.75 -27.55 50.75 -27.55 50.75 -27.6 50.75 -27.65 50.75 -27.65 50.75 -27.7 50.75 -27.75 50.75 -27.75 50.7 -27.9 50.65 -28.05 50.65 -28.25 50.6 -28.4 50.55 -28.55 50.5 -28.7 50.5 -28.9 50.45 -29.05 50.4 -29.2 50.35 -29.35 50.3 -29.55 50.3 -29.7 50.25 -29.85 50.2 -30.0 50.15 -30.15 50.1 -30.35 50.05 -30.7 49.95 -31.05 49.85 -31.4 49.75 -31.7 49.65 -32.05 49.6 -32.4 49.5 -32.75 49.35 -33.1 49.25 -33.4 49.15 -33.75 49.05 -34.1 48.95 -34.45 48.85 -34.8 48.7 -35.1 48.6 -35.45 48.5 -35.8 48.35 -36.25 48.2 -36.65 48.05 -37.1 47.9 -37.55 47.75 -37.95 47.55 -38.4 47.4 -38.8 47.25 -39.25 47.05 -39.7 46.9 -40.1 46.7 -40.5 46.55 -40.95 46.35 -41.35 46.2 -41.8 46.0 -42.2 45.8 -42.65 45.6 -42.75 45.55 -43.3 45.3 -43.3 45.35 -43.3 45.4 -43.25 45.4 -43.25 45.45 -43.25 45.45 -43.2 45.5 -42.75 45.95 -42.1 46.6 -41.05 47.75 -41.0 47.8 -40.3 48.5 -39.15 49.65 -37.75 51.05 -37.3 51.55 -36.8 52.05 -36.65 52.25 -36.15 52.95 -36.1 53.05 -37.7 52.3 -39.8 51.0 -40.15 50.8 -40.5 50.55 -40.9 50.35 -41.25 50.1 -41.6 49.85 -41.95 49.65 -42.3 49.4 -42.65 49.15 -43.0 48.9 -43.35 48.65 -43.7 48.45 -44.0 48.2 -44.35 47.95 -44.7 47.65 -45.05 47.4 -45.35 47.15 -45.4 47.15 -45.45 47.1 -45.5 47.1 -45.5 47.05 -45.55 47.05 -45.6 47.0 -45.6 46.95 -45.65 47.0 -45.65 46.95 -45.65 47.05 -45.55 47.2 -45.5 47.4 -45.4 47.55 -45.35 47.75 -45.3 47.9 -45.25 48.1 -45.15 48.25 -45.1 48.45 -45.1 48.65 -45.05 48.8 -45.0 49.0 -44.95 49.2 -44.95 49.35 -44.9 49.55 -44.85 49.75 -44.85 49.95 -44.85 50.1 -44.4 51.15 -44.3 51.45 -44.2 51.75 -44.1 52.05 -44.0 52.35 -43.9 52.65 -43.8 52.95 -43.7 53.25 -43.6 53.55 -43.55 53.85 -43.45 54.15 -43.4 54.5 -43.3 54.8 -43.25 55.1 -43.2 55.4 -43.15 55.7 -43.1 56.05 -43.05 56.25 -43.05 56.45 -43.0 56.65 -43.0 56.8 -42.95 57.0 -42.95 57.2 -42.95 57.4 -42.95 57.6 -42.95 57.8 -43.0 58.0 -43.0 58.2 -43.0 58.35 -43.05 58.55 -43.1 58.75 -43.15 58.95 -43.2 59.15 -43.25 59.25 -43.25 59.3 -43.3 59.4 -43.3 59.45 -43.35 59.55 -43.4 59.6 -43.45 59.7 -43.45 59.75 -43.5 59.85 -43.55 59.9 -43.6 60.0 -43.65 60.05 -43.7 60.1 -43.75 60.2 -43.85 60.25 -43.9 60.3 -43.95 60.35 -44.05 60.45 -44.1 60.5 -44.15 60.55 -44.25 60.6 -44.3 60.65 -44.4 60.7 -44.45 60.75 -44.55 60.75 -44.65 60.8 -44.7 60.8 -44.8 60.85 -44.9 60.85 -45.0 60.85 -45.1 60.85 -45.2 60.85 -45.45 60.85 -45.65 60.85 -45.9 60.85 -46.1 60.8 -46.35 60.8 -46.55 60.8 -46.75 60.75 -47.0 60.75 -47.2 60.7 -47.45 60.65 -47.65 60.6 -47.85 60.55 -48.1 60.5 -48.3 60.45 -48.55 60.4 -48.75 60.3 -48.85 60.25 -48.95 60.2 -49.1 60.15 -49.2 60.1 -49.3 60.05 -49.4 60.0 -49.5 59.95 -49.6 59.85 -49.75 59.8 -49.85 59.75 -49.95 59.65 -50.05 59.6 -50.15 59.5 -50.2 59.45 -50.3 59.35 -50.4 59.3 -50.45 59.25 -50.5 59.2 -50.55 59.2 -50.6 59.2 -50.65 59.15 -50.7 59.2 -50.75 59.2 -50.8 59.2 -51.0 59.3 -51.15 59.35 -51.35 59.4 -51.55 59.45 -51.75 59.55 -51.9 59.6 -52.1 59.65 -52.3 59.7 -52.5 59.7 -52.7 59.75 -52.85 59.8 -53.05 59.8 -53.25 59.85 -53.45 59.85 -53.65 59.85 -53.85 59.85 -54.0 59.85 -54.15 59.85 -54.3 59.8 -54.45 59.8 -54.6 59.75 -54.75 59.75 -54.9 59.7 -55.05 59.65 -55.2 59.6 -55.3 59.55 -55.45 59.5 -55.6 59.4 -55.7 59.35 -55.85 59.25 -55.95 59.15 -56.1 59.05 -56.25 58.95 -56.35 58.8 -56.5 58.7 -56.6 58.55 -56.7 58.45 -56.75 58.3 -56.85 58.15 -56.9 58.0 -56.95 57.85 -57.0 57.7 -57.05 57.55 -57.1 57.35 -57.15 57.2 -57.15 57.05 -57.15 56.85 -57.2 56.7 -57.2 56.5 -57.2 56.35 -57.2 56.15 -57.2 56.0 -57.2 55.8 -57.2 55.65 -57.15 55.45 -57.15 55.3 -57.15 55.1 -57.15 54.95 -57.1 54.75 -57.1 54.6 -57.05 54.4 -57.05 54.25 -57.0 54.05 -57.0 53.9 -57.0 53.85 -57.0 53.8 -57.0 53.75 -57.0 53.75 -57.05 53.75 -57.05 53.75 -57.1 53.75 -57.1 53.75 -57.15 53.75 -57.2 53.75 -57.35 53.75 -57.45 53.7 -57.6 53.7 -57.75 53.65 -57.9 53.65 -58.0 53.6 -58.15 53.6 -58.3 53.55 -58.4 53.5 -58.55 53.5 -58.7 53.45 -58.8 53.4 -58.95 53.35 -59.1 53.3 -59.2 53.25 -59.35 53.2 -59.5 53.15 -59.7 53.05 -59.85 53.0 -60.0 52.9 -60.15 52.85 -60.3 52.75 -60.45 52.65 -60.6 52.55 -60.75 52.5 -60.9 52.4 -61.05 52.3 -61.2 52.15 -61.3 52.05 -61.45 51.95 -61.6 51.85 -61.75 51.7 -61.8 51.65 -61.8 51.65 -61.85 51.6 -61.9 51.55 -61.9 51.5 -61.95 51.45 -61.95 51.45 -61.95 51.4 -62.0 51.35 -62.0 51.3 -62.0 51.25 -62.0 51.2 -62.0 51.15 -62.0 51.1 -62.0 51.05 -62.0 51.0 -62.0 50.65 -61.95 50.3 -61.9 49.95 -61.8 49.65 -61.7 49.35 -61.55 49.05 -61.4 48.75 -61.25 48.5 -61.05 48.25 -60.85 48.0 -60.65 47.8 -60.35 47.6 -60.1 47.35 -59.8 47.2 -59.55 47.0 -59.2 46.85 -59.1 46.85 -58.9 46.75 -58.9 46.8 -58.9 46.85 -58.95 46.85 -58.95 46.9 -59.0 46.95 -59.0 47.0 -59.05 47.05 -59.05 47.05 -59.1 47.1 -59.1 47.15 -59.15 47.2 -59.15 47.3 -59.2 47.35 -59.25 47.45 -59.3 47.5 -59.35 47.55 -59.4 47.65 -59.4 47.7 -59.45 47.8 -59.5 47.85 -59.55 47.95 -59.6 48.0 -59.6 48.1 -59.65 48.15 -59.7 48.25 -59.7 48.3 -59.7 48.3 -59.75 48.35 -59.8 48.35 -59.8 48.35 -59.9 48.45 -59.95 48.55 -60.05 48.65 -60.1 48.8 -60.2 48.9 -60.25 49.0 -60.3 49.1 -60.35 49.25 -60.4 49.35 -60.4 49.5 -60.45 49.6 -60.45 49.7 -60.5 49.85 -60.5 50.0 -60.5 50.1 -60.5 50.25 -60.5 50.35 -60.45 50.4 -60.45 50.5 -60.45 50.55 -60.4 50.65 -60.4 50.75 -60.35 50.8 -60.3 50.9 -60.3 50.95 -60.25 51.05 -60.2 51.1 -60.15 51.15 -60.1 51.25 -60.05 51.3 -60.0 51.35 -59.95 51.4 -59.9 51.45 -59.85 51.5 -59.75 51.55 -59.7 51.6 -59.65 51.65 -59.6 51.7 -59.55 51.75 -59.45 51.8 -59.4 51.85 -59.35 51.9 -59.3 51.95 -59.2 51.95 -59.15 52.0 -59.1 52.05 -59.0 52.1 -58.95 52.1 -58.85 52.15 -58.8 52.2 -58.7 52.25 -58.6 52.25 -58.5 52.3 -58.45 52.35 -58.35 52.4 -58.25 52.4 -58.15 52.45 -58.05 52.45 -58.0 52.45 -57.9 52.45 -57.8 52.45 -57.7 52.45 -57.6 52.45 -57.5 52.4 -57.4 52.4 -57.35 52.35 -57.25 52.3 -57.2 52.25 -57.1 52.25 -57.05 52.2 -57.0 52.15 -56.95 52.05 -56.9 52.0 -56.8 51.95 -56.75 51.9 -56.7 51.85 -56.85 52.0 -56.6 51.7 -56.55 51.65 -56.5 51.6 -56.45 51.55 -56.4 51.5 -56.4 51.5 -56.35 51.45 -56.3 51.4 -56.3 51.35 -56.25 51.3 -56.2 51.25 -56.15 51.2 -56.15 51.15 -56.1 51.15 -56.05 51.1 -56.0 51.05 -55.95 51.0 -55.9 51.0 -55.9 50.95 -55.9 51.0 -55.9 51.05 -55.9 51.1 -55.95 51.1 -55.95 51.15 -55.95 51.2 -55.95 51.25 -56.0 51.3 -56.0 51.3 -56.0 51.35 -56.05 51.4 -56.05 51.45 -56.1 51.55 -56.1 51.6 -56.1 51.65 -56.15 51.7 -56.15 51.75 -56.15 51.85 -56.2 51.9 -56.2 51.95 -56.2 52.0 -56.2 52.1 -56.2 52.15 -56.2 52.2 -56.2 52.3 -56.2 52.35 -56.2 52.4 -56.15 53.85 -56.1 54.1 -56.1 54.1 -56.15 54.25 -56.15 55.05 -56.15 55.25 -56.1 55.45 -56.1 55.6 -56.05 55.8 -56.0 55.95 -55.95 56.15 -55.85 56.3 -55.75 56.45 -55.65 56.6 -55.55 56.7 -55.45 56.85 -55.3 56.95 -55.2 57.1 -55.0 57.2 -54.85 57.3 -54.7 57.4 -54.55 57.45 -54.4 57.55 -54.2 57.6 -54.05 57.6 -53.9 57.65 -53.7 57.7 -53.55 57.7 -53.35 57.7 -53.2 57.75 -53.05 57.75 -52.85 57.7 -52.7 57.7 -52.5 57.7 -52.35 57.65 -52.15 57.65 -52.0 57.6 -51.85 57.55 -51.75 57.55 -51.65 57.5 -51.5 57.45 -51.4 57.4 -51.3 57.3 -51.2 57.25 -51.15 57.2 -51.05 57.1 -51.0 57.0 -50.9 56.9 -50.85 56.8 -50.8 56.7 -50.75 56.6 -50.7 56.45 -50.65 56.35 -50.65 56.2 -50.55 55.85 -50.55 55.55 -50.5 55.35 -50.35 54.45 -50.05 52.65 -49.95 52.75 -49.95 52.75 -49.45 55.1 -49.1 56.75 -48.9 57.55 -48.85 57.65 -48.8 57.75 -48.7 57.85 -48.65 57.9 -48.55 58.0 -48.45 58.05 -48.4 58.15 -48.3 58.2 -48.2 58.25 -48.1 58.35 -48.0 58.4 -47.9 58.45 -47.8 58.5 -47.7 58.55 -47.6 58.55 -47.5 58.6 -47.4 58.65 -47.05 58.75 -45.35 58.8 -45.3 58.8 -45.25 58.8 -45.2 58.75 -45.2 58.75 -45.2 58.7 -45.15 58.65 -45.15 58.65 -45.15 58.6 -45.05 56.9 -45.05 56.85 -45.05 55.05 -45.15 54.1 -45.15 53.95 -45.2 53.8 -45.2 53.65 -45.2 53.5 -45.25 53.35 -45.25 53.2 -45.25 53.05 -45.3 52.9 -45.3 52.75 -45.35 52.6 -45.35 52.45 -45.4 52.3 -45.4 52.15 -45.45 52.0 -45.45 51.85 -45.5 51.7 -45.55 51.4 -45.65 51.1 -45.7 50.8 -45.8 50.5 -45.9 50.2 -45.95 49.9 -46.05 49.6 -46.15 49.3 -46.25 49.0 -46.35 48.7 -46.5 48.4 -46.6 48.1 -46.7 47.8 -46.85 47.55 -46.95 47.25 -47.1 46.95 -47.2 46.75 -47.3 46.55 -47.4 46.35 -47.5 46.15 -47.6 45.9 -47.75 45.7 -47.85 45.5 -47.95 45.3 -48.05 45.1 -48.2 44.95 -48.3 44.75 -48.45 44.55 -48.55 44.35 -48.7 44.15 -48.8 43.95 -48.95 43.75 -49.0 43.7 -49.0 43.7 -49.05 43.65 -49.05 43.6 -49.1 43.6 -49.1 43.55 -49.15 43.5 -49.2 43.5 -49.2 43.45 -49.25 43.45 -49.3 43.4 -49.35 43.35 -49.35 43.35 -49.4 43.3 -49.45 43.3 -49.5 43.25 L-49.5 43.25" fill="#271a2d" fill-rule="evenodd" stroke="none"/>
    <path d="M-55.9 50.95 Q-55.95 51.0 -56.0 51.0 -56.0 51.05 -56.05 51.1 -56.1 51.15 -56.15 51.15 -56.15 51.2 -56.2 51.25 -56.25 51.3 -56.25 51.35 -56.3 51.4 -56.35 51.45 -56.4 51.5 -56.4 51.5 -56.45 51.55 -56.5 51.6 -56.55 51.65 -56.6 51.7 -56.7 51.85 -56.7 51.85 -56.8 51.9 -56.8 51.95 -56.9 52.0 -56.95 52.05 -57.0 52.15 -57.05 52.2 -57.15 52.25 -57.2 52.25 -57.25 52.3 -57.35 52.35 -57.4 52.4 -57.5 52.4 -57.6 52.45 -57.7 52.45 -57.8 52.45 -57.9 52.45 -58.0 52.45 -58.05 52.45 -58.15 52.45 -58.25 52.4 -58.35 52.4 -58.45 52.35 -58.5 52.3 -58.6 52.3 -58.7 52.25 -58.8 52.2 -58.85 52.15 -58.95 52.1 -59.0 52.05 -59.1 52.05 -59.15 52.0 -59.2 51.95 -59.3 51.9 -59.35 51.9 -59.4 51.85 -59.45 51.8 -59.55 51.75 -59.6 51.7 -59.65 51.65 -59.7 51.6 -59.75 51.55 -59.8 51.5 -59.9 51.45 -59.95 51.4 -60.0 51.35 -60.05 51.3 -60.1 51.25 -60.15 51.15 -60.2 51.1 -60.25 51.05 -60.3 50.95 -60.3 50.9 -60.35 50.8 -60.4 50.75 -60.4 50.65 -60.4 50.55 -60.45 50.5 -60.45 50.4 -60.45 50.35 -60.5 50.25 -60.5 50.1 -60.5 50.0 -60.5 49.85 -60.5 49.7 -60.45 49.6 -60.45 49.5 -60.4 49.35 -60.35 49.25 -60.3 49.1 -60.25 49.0 -60.2 48.9 -60.1 48.8 -60.05 48.7 -59.95 48.55 -59.9 48.45 -59.8 48.35 -59.8 48.35 -59.75 48.35 -59.7 48.3 -59.7 48.3 -59.7 48.35 -59.7 48.4 -59.75 48.5 -59.75 48.55 -59.75 48.6 -59.75 48.65 -59.75 48.7 -59.75 48.8 -59.75 48.85 -59.75 48.9 -59.75 48.95 -59.75 49.05 -59.75 49.1 -59.75 49.15 -59.75 49.15 -59.75 49.25 -59.75 49.3 -59.75 49.35 -59.75 49.4 -59.7 49.45 -59.7 49.5 -59.7 49.55 -59.65 49.65 -59.65 49.65 -59.6 49.7 -59.6 49.75 -59.55 49.8 -59.55 49.85 -59.5 49.9 -59.45 49.95 -59.45 50.0 -59.4 50.05 -59.35 50.1 -59.3 50.15 -59.25 50.15 -59.2 50.2 -59.15 50.25 -59.1 50.25 -59.0 50.3 -58.95 50.3 -58.9 50.3 -58.85 50.3 -58.8 50.35 -58.7 50.35 -58.65 50.35 -58.6 50.35 -58.55 50.35 -58.45 50.35 -58.3 50.35 -58.2 50.35 -58.1 50.35 -58.0 50.35 -57.9 50.35 -57.85 50.3 -57.75 50.3 -57.7 50.25 -57.6 50.2 -57.55 50.15 -57.5 50.1 -57.45 50.0 -57.4 49.95 -57.35 49.85 -57.35 49.75 -57.3 49.6 -57.2 49.55 -57.1 49.45 -57.0 49.4 -56.9 49.3 -56.8 49.25 -56.75 49.15 -56.65 49.1 -56.55 49.0 -56.5 48.95 -56.4 48.85 -56.35 48.75 -56.25 48.65 -56.2 48.6 -56.1 48.5 -56.05 48.4 -55.95 48.3 -54.55 46.65 -52.6 43.35 -52.6 43.3 -52.6 43.25 -52.6 43.25 -52.65 43.25 -52.65 43.3 -52.7 43.3 -53.0 43.5 -53.2 43.7 -53.5 43.9 -53.7 44.1 -54.0 44.3 -54.25 44.5 -54.5 44.7 -54.75 44.9 -55.0 45.1 -55.25 45.35 -55.5 45.55 -55.7 45.75 -55.95 46.0 -56.2 46.2 -56.45 46.45 -56.65 46.7 -56.75 46.85 -56.9 46.95 -57.0 47.05 -57.1 47.2 -57.2 47.3 -57.35 47.45 -57.45 47.55 -57.55 47.7 -57.65 47.85 -57.75 47.95 -57.8 48.1 -57.9 48.25 -58.0 48.4 -58.05 48.55 -58.15 48.7 -58.2 48.85 -58.2 48.8 -58.25 48.75 -58.25 48.7 -58.25 48.65 -58.25 48.65 -58.25 48.6 -58.25 48.55 -58.2 48.5 -58.2 48.45 -58.15 48.4 -58.1 48.3 -58.1 48.25 -58.05 48.15 -58.0 48.1 -57.95 48.0 -57.9 47.95 -57.9 47.85 -57.85 47.8 -57.8 47.7 -57.75 47.65 -57.7 47.6 -57.65 47.5 -57.6 47.45 -57.55 47.35 -57.5 47.3 -57.45 47.2 -57.3 47.0 -57.2 46.8 -57.05 46.6 -56.9 46.4 -56.75 46.2 -56.65 46.0 -56.5 45.85 -56.35 45.65 -56.2 45.45 -56.0 45.3 -55.85 45.1 -55.7 44.9 -55.55 44.75 -55.35 44.55 -55.2 44.4 -55.05 44.2 -54.95 44.15 -54.9 44.1 -54.85 44.05 -54.85 43.95 -54.8 43.9 -54.7 43.85 -54.65 43.85 -54.6 43.8 -54.5 43.75 -54.45 43.75 -54.4 43.7 -54.3 43.7 -54.45 43.75 -54.15 43.65 -54.1 43.6 -54.0 43.55 -53.95 43.55 -53.9 43.5 -53.8 43.5 -53.75 43.45 -53.65 43.4 -53.55 43.35 -53.45 43.3 -53.35 43.25 -53.25 43.25 -53.15 43.2 -53.05 43.2 -52.95 43.15 -52.85 43.15 -52.75 43.15 -52.65 43.1 -52.55 43.1 -52.45 43.1 -52.35 43.1 -52.25 43.1 -52.15 43.1 -52.15 43.15 -52.15 43.25 -52.15 43.3 -52.15 43.35 -52.15 43.4 -52.15 43.5 -52.2 43.55 -52.2 43.6 -52.2 43.7 -52.2 43.75 -52.2 43.8 -52.2 43.9 -52.2 43.95 -52.2 44.0 -52.25 44.1 -52.25 44.15 -52.25 44.2 -52.25 44.25 -52.25 44.3 -52.25 44.35 -52.25 44.4 -52.25 44.4 -52.25 44.45 -52.25 44.5 -52.25 44.55 -52.2 44.55 -52.15 44.6 -52.1 44.55 -52.1 44.55 -52.0 44.5 -51.95 44.45 -51.9 44.4 -51.9 44.4 -51.85 44.4 -51.8 44.35 -51.75 44.4 -51.75 44.45 -51.75 44.45 -51.75 44.45 -51.8 44.5 -51.85 44.7 -52.0 45.05 -52.05 45.1 -52.1 45.25 -52.15 45.4 -52.15 45.45 -52.2 45.6 -52.25 45.7 -52.3 45.8 -52.3 45.9 -52.35 46.0 -52.35 46.1 -52.4 46.2 -52.4 46.3 -52.45 46.45 -52.45 46.55 -52.45 46.65 -52.45 46.75 -52.45 46.8 -52.45 46.9 -52.45 46.95 -52.45 47.05 -52.5 47.1 -52.5 47.15 -52.5 47.2 -52.5 47.3 -52.5 47.35 -52.55 47.45 -52.55 47.55 -52.55 47.55 -52.55 47.65 -52.55 47.7 -52.6 47.8 -52.6 47.85 -52.7 48.7 -52.7 48.85 -52.55 48.45 -52.35 47.85 -52.05 46.95 -52.0 46.85 -51.95 46.75 -51.9 46.6 -51.9 46.5 -51.85 46.4 -51.8 46.25 -51.8 46.15 -51.75 46.0 -51.75 45.9 -51.7 45.8 -51.7 45.65 -51.7 45.55 -51.7 45.4 -51.7 45.3 -51.7 45.15 -51.7 45.05 -51.7 44.9 -51.7 44.85 -51.7 44.7 -51.7 44.55 -51.7 44.45 -51.7 44.4 -51.7 44.35 -51.7 44.3 -51.65 44.25 -51.65 44.25 -51.6 44.2 -51.6 44.2 -51.55 44.15 -51.5 44.15 -51.45 44.15 -51.35 44.1 -51.3 44.2 -51.45 43.95 -51.25 44.35 -50.0 47.05 -49.9 47.3 -49.5 48.1 -48.35 50.5 -48.3 50.65 -48.15 50.95 -48.25 50.35 -48.55 49.1 -48.8 47.85 -49.2 46.2 -49.2 46.15 -49.95 43.05 -49.9 43.05 -49.9 43.05 -49.85 43.05 -49.8 43.05 -49.8 43.05 -49.75 43.1 -49.75 43.1 -49.7 43.1 -49.7 43.15 -49.65 43.15 -49.6 43.2 -49.6 43.2 -49.55 43.25 -49.55 43.25 -49.5 43.25 -49.5 43.25 -49.45 43.3 -49.4 43.3 -49.35 43.35 -49.35 43.35 -49.3 43.4 -49.25 43.4 -49.2 43.45 -49.2 43.5 -49.15 43.5 -49.1 43.55 -49.1 43.6 -49.05 43.6 -49.05 43.65 -49.0 43.7 -48.95 43.75 -48.95 43.75 -48.8 43.95 -48.7 44.15 -48.55 44.35 -48.45 44.55 -48.3 44.75 -48.2 44.9 -48.05 45.1 -47.95 45.3 -47.85 45.5 -47.75 45.7 -47.6 45.95 -47.5 46.15 -47.4 46.35 -47.3 46.55 -47.2 46.75 -47.1 46.95 -46.95 47.25 -46.85 47.5 -46.7 47.8 -46.6 48.1 -46.5 48.4 -46.35 48.7 -46.25 49.0 -46.15 49.3 -46.05 49.6 -45.95 49.9 -45.9 50.2 -45.8 50.5 -45.7 50.8 -45.65 51.1 -45.55 51.4 -45.5 51.7 -45.45 51.85 -45.45 52.0 -45.4 52.15 -45.4 52.3 -45.35 52.45 -45.35 52.6 -45.3 52.75 -45.3 52.9 -45.25 53.05 -45.25 53.2 -45.25 53.35 -45.2 53.5 -45.2 53.65 -45.2 53.8 -45.15 53.95 -45.15 54.1 -45.05 55.1 -45.05 56.85 -45.05 57.0 -45.15 58.6 -45.15 58.65 -45.15 58.7 -45.2 58.7 -45.2 58.75 -45.2 58.75 -45.25 58.8 -45.3 58.8 -45.35 58.8 -47.1 58.75 -47.4 58.65 -47.5 58.6 -47.6 58.55 -47.7 58.55 -47.8 58.5 -47.9 58.45 -48.0 58.4 -48.1 58.35 -48.2 58.25 -48.3 58.2 -48.4 58.15 -48.45 58.05 -48.55 58.0 -48.6 57.9 -48.7 57.8 -48.75 57.75 -48.85 57.65 -48.9 57.55 -49.1 56.75 -49.2 56.2 -49.55 54.75 -49.8 53.5 -49.95 52.75 -49.95 52.75 -50.0 52.7 -50.0 52.7 -50.05 52.65 -50.2 53.6 -50.5 55.35 -50.65 56.2 -50.65 56.35 -50.7 56.5 -50.75 56.6 -50.8 56.7 -50.85 56.8 -50.9 56.9 -50.95 57.0 -51.05 57.1 -51.15 57.2 -51.2 57.25 -51.3 57.3 -51.4 57.4 -51.5 57.45 -51.6 57.5 -51.75 57.55 -51.85 57.6 -52.0 57.6 -52.15 57.65 -52.35 57.65 -52.5 57.7 -52.7 57.7 -52.85 57.7 -53.05 57.7 -53.2 57.75 -53.35 57.7 -53.55 57.7 -53.7 57.7 -53.9 57.65 -54.05 57.6 -54.2 57.55 -54.35 57.5 -54.55 57.45 -54.7 57.4 -54.9 57.3 -55.05 57.2 -55.2 57.1 -55.3 57.0 -55.45 56.85 -55.55 56.7 -55.65 56.6 -55.75 56.45 -55.85 56.3 -55.9 56.15 -56.0 55.95 -56.05 55.8 -56.1 55.6 -56.1 55.4 -56.15 55.25 -56.15 55.05 -56.15 54.25 -56.1 54.1 -56.05 54.15 -56.0 54.3 -55.95 54.4 -55.9 54.45 -55.85 54.5 -55.85 54.6 -55.8 54.65 -55.75 54.7 -55.75 54.75 -55.7 54.8 -55.65 54.85 -55.6 54.95 -55.6 55.0 -55.55 55.05 -55.5 55.1 -55.45 55.15 -55.4 55.2 -55.4 55.25 -55.35 55.3 -55.3 55.35 -55.2 55.45 -55.1 55.5 -55.0 55.6 -54.9 55.65 -54.8 55.7 -54.7 55.7 -54.6 55.75 -54.45 55.75 -54.35 55.75 -54.25 55.75 -54.15 55.75 -54.05 55.75 -53.9 55.7 -53.8 55.7 -53.7 55.65 -53.55 55.6 -53.45 55.6 -53.4 55.55 -53.35 55.5 -53.3 55.5 -53.25 55.45 -53.2 55.4 -53.2 55.4 -53.15 55.35 -53.1 55.3 -53.1 55.25 -53.1 55.2 -53.1 55.15 -53.1 55.05 -53.1 55.0 -53.1 54.95 -53.1 54.85 -52.7 54.05 -52.7 54.0 -53.2 54.75 -53.3 54.95 L-53.3 54.95 Q-53.3 54.95 -53.35 55.0 L-53.35 55.0 Q-53.35 55.0 -53.4 55.0 -53.45 55.0 -53.45 54.95 -53.55 54.9 -53.55 54.9 -53.6 54.9 -53.6 54.85 -53.65 54.85 -53.7 54.8 -53.7 54.75 -53.7 54.75 -53.75 54.65 -53.8 54.5 -53.85 54.4 -53.9 54.25 -54.05 54.0 -54.05 54.05 -54.1 53.9 -54.15 53.8 -54.2 53.65 -54.25 53.55 -54.3 53.45 -54.35 53.3 -54.35 53.2 -54.4 53.05 -54.4 52.9 -54.4 52.8 -54.4 52.6 -54.4 52.45 -54.4 52.25 -54.45 52.1 -54.45 51.95 -54.45 51.75 -54.45 51.6 -54.4 51.4 -54.4 51.25 -54.4 51.1 -54.4 50.9 -54.35 50.75 -54.35 50.55 -54.35 50.4 -54.3 50.25 -54.25 50.05 -54.2 49.8 -54.15 49.55 -54.05 49.3 -54.0 49.05 -53.9 48.8 -53.85 48.6 -53.75 48.35 -53.65 48.1 -53.55 47.9 -53.4 47.65 -53.3 47.4 -53.2 47.2 -53.05 47.0 -52.9 46.75 -52.75 46.55 -52.6 46.35 -52.55 46.15 -52.55 46.15 -52.55 46.1 -52.65 46.1 -52.65 46.1 -52.75 46.15 -52.9 46.15 -53.0 46.2 -53.15 46.2 -53.25 46.25 -53.35 46.3 -53.5 46.35 -53.6 46.4 -53.7 46.5 -53.8 46.55 -53.9 46.65 -54.0 46.7 -54.05 46.8 -54.15 46.9 -54.25 47.0 -54.3 47.05 -54.4 47.2 -54.5 47.3 -54.55 47.45 -54.65 47.55 -54.75 47.7 -54.8 47.8 -54.85 47.95 -54.95 48.1 -55.0 48.25 -55.05 48.35 -55.1 48.5 -55.15 48.65 -55.2 48.8 -55.25 48.95 -55.3 49.1 -55.35 49.2 -55.4 49.35 -55.75 50.7 -55.9 50.95 L-55.9 50.95" fill="#442e4f" fill-rule="evenodd" stroke="none"/>
    <path d="M-75.25 54.8 Q-75.4 54.7 -75.55 54.65 -75.7 54.55 -75.85 54.45 -76.0 54.35 -76.15 54.25 -76.25 54.15 -76.4 54.0 -76.5 53.9 -76.6 53.75 -76.75 53.6 -76.85 53.5 -76.9 53.35 -77.0 53.15 -77.1 53.0 -77.15 52.85 -77.4 52.25 -77.55 51.7 -77.7 51.1 -77.8 50.55 -77.9 50.0 -77.9 49.45 -77.9 48.85 -77.85 48.3 -77.8 47.75 -77.65 47.25 -77.55 46.7 -77.35 46.15 -77.15 45.6 -76.85 45.1 -76.6 44.55 -76.25 44.05 -76.15 43.9 -76.1 43.8 -76.0 43.65 -75.9 43.5 -75.8 43.4 -75.7 43.25 -75.6 43.15 -75.5 43.0 -75.4 42.9 -75.3 42.75 -75.2 42.65 -75.1 42.55 -75.0 42.4 -74.85 42.3 -74.75 42.2 -74.65 42.05 -74.55 41.95 -74.25 41.5 -73.85 40.95 -73.45 40.45 -73.05 39.95 -72.6 39.45 -72.15 39.0 -71.7 38.55 -71.25 38.05 -70.75 37.65 -70.3 37.2 -69.8 36.8 -69.3 36.4 -68.75 36.0 -68.25 35.65 -67.7 35.3 -67.15 34.9 -66.55 34.6 -66.5 34.55 -66.25 34.45 -66.35 34.75 -66.5 35.05 -66.6 35.35 -66.75 35.65 -66.9 35.9 -67.05 36.2 -67.2 36.45 -67.35 36.75 -67.5 37.0 -67.7 37.25 -67.85 37.5 -68.05 37.75 -68.25 38.0 -68.45 38.25 -68.65 38.5 -68.85 38.7 -68.5 38.6 -68.2 38.5 -67.85 38.4 -67.5 38.3 -67.15 38.25 -66.8 38.15 -66.45 38.1 -66.1 38.05 -65.75 38.0 -65.4 37.95 -65.05 37.95 -64.7 37.95 -64.35 37.9 -64.0 37.9 -63.65 37.95 -63.25 37.95 -63.75 38.55 -64.15 39.1 -64.65 39.7 -65.4 40.7 -65.4 40.75 -65.45 40.75 -65.45 40.8 -65.45 40.85 -65.45 40.85 -65.5 40.9 -65.5 40.95 -65.5 40.95 -65.55 41.0 -65.55 41.05 -65.55 41.1 -65.6 41.1 -65.6 41.15 -65.65 41.15 -65.65 41.2 -65.7 41.2 -65.75 41.2 -65.8 41.2 -65.85 41.25 -65.9 41.25 -65.9 41.3 -65.95 41.3 -66.1 41.45 -66.3 41.65 -66.6 41.9 -66.7 42.0 -66.85 42.15 -67.0 42.3 -67.15 42.45 -67.3 42.6 -67.45 42.75 -67.55 42.9 -67.7 43.05 -67.85 43.2 -68.0 43.35 -68.15 43.5 -68.3 43.65 -68.4 43.8 -68.55 43.95 -68.7 44.1 -68.85 44.25 -68.95 44.4 -69.1 44.55 -69.25 44.75 -69.4 44.9 -69.55 45.1 -69.65 45.25 -69.8 45.45 -69.95 45.6 -70.1 45.8 -70.2 45.95 -70.35 46.15 -70.5 46.3 -70.6 46.5 -70.75 46.7 -70.9 46.85 -71.0 47.05 -71.15 47.2 -71.85 48.2 -72.65 49.6 -73.4 50.75 -74.4 52.85 -74.55 53.15 -74.8 53.85 -75.05 54.45 -75.25 54.8 L-75.25 54.8" fill="#52405b" fill-rule="evenodd" stroke="none"/>
    <path d="M-17.95 52.75 Q-17.3 52.85 -16.65 53.0 -16.0 53.15 -15.35 53.3 -14.7 53.45 -14.05 53.6 -13.4 53.8 -12.75 53.95 -12.15 54.15 -11.5 54.35 -10.85 54.55 -10.25 54.75 -9.6 54.95 -8.95 55.2 -8.35 55.45 -7.7 55.65 -7.2 55.85 -6.75 56.05 -6.25 56.25 -5.8 56.45 -5.3 56.65 -4.85 56.9 -4.35 57.1 -3.9 57.3 -3.45 57.55 -3.0 57.8 -2.5 58.0 -2.05 58.25 -1.6 58.5 -1.15 58.75 -0.7 59.0 -0.25 59.25 -0.2 59.3 -0.1 59.35 -0.1 59.4 -0.15 59.4 -0.05 59.4 -0.25 59.4 -0.45 59.4 -0.8 59.35 -1.15 59.35 -1.35 59.35 -1.6 59.35 -1.85 59.3 -2.15 59.3 -2.4 59.3 -2.65 59.3 -2.9 59.3 -3.2 59.3 -3.45 59.3 -3.7 59.3 -3.95 59.3 -4.25 59.35 -4.5 59.35 -4.75 59.4 -5.0 59.4 -5.25 59.45 -5.55 59.5 -5.7 59.5 -5.85 59.55 -6.0 59.55 -6.15 59.6 -6.25 59.6 -6.45 59.65 -6.65 59.7 -6.75 59.7 -6.95 59.75 -7.05 59.75 -7.25 59.8 -7.35 59.8 -7.55 59.8 -7.7 59.85 -7.85 59.85 -8.0 59.85 -8.5 59.7 -9.45 59.35 -10.45 59.05 -10.95 58.9 -11.1 58.85 -11.25 58.8 -11.4 58.75 -11.55 58.75 -11.7 58.7 -11.85 58.65 -12.0 58.65 -12.15 58.6 -12.3 58.6 -12.5 58.6 -12.65 58.55 -12.8 58.55 -12.95 58.55 -13.1 58.5 -13.25 58.5 -13.4 58.5 -13.5 58.5 -13.55 58.5 -13.65 58.5 -13.75 58.5 -13.8 58.5 -13.9 58.5 -14.0 58.5 -14.05 58.5 -14.15 58.5 -14.25 58.5 -14.3 58.5 -14.4 58.5 -14.5 58.5 -14.55 58.55 -14.65 58.55 -14.75 58.55 -14.75 58.55 -14.9 58.55 -15.0 58.6 -15.1 58.6 -15.15 58.6 -15.25 58.65 -15.35 58.65 -15.4 58.65 -15.5 58.65 -15.6 58.7 -15.65 58.7 -15.75 58.75 -15.85 58.75 -15.9 58.8 -16.0 58.8 -16.05 58.85 -16.2 58.8 -17.6 58.45 -18.55 58.2 -19.15 58.05 -20.45 57.7 -22.9 57.1 -22.9 57.1 -22.95 57.05 -23.0 57.05 -23.0 57.05 -23.0 57.0 -22.95 56.95 -22.95 56.9 -22.9 56.85 -21.75 55.8 -21.35 55.45 -21.2 55.3 -21.0 55.15 -20.85 55.0 -20.65 54.85 -20.5 54.7 -20.3 54.6 -20.1 54.45 -19.95 54.3 -19.75 54.15 -19.6 54.0 -19.4 53.9 -19.2 53.75 -19.05 53.6 -18.85 53.5 -18.65 53.35 -18.45 53.2 -18.4 53.2 -18.4 53.15 -18.35 53.15 -18.3 53.1 -18.25 53.1 -18.25 53.1 -18.2 53.05 -18.2 53.05 -18.15 53.0 -18.1 53.0 -18.1 52.95 -18.05 52.95 -18.0 52.9 -18.0 52.85 -17.95 52.8 -17.95 52.75 L-17.95 52.75" fill="#442e4f" fill-rule="evenodd" stroke="none"/>
    <path d="M-75.25 54.8 Q-75.1 54.45 -74.8 53.85 -74.5 53.15 -74.4 52.85 -73.35 50.65 -72.65 49.6 -72.55 49.45 -72.45 49.3 -72.4 49.15 -72.3 49.0 -72.2 48.85 -72.1 48.7 -72.0 48.55 -71.95 48.4 -71.85 48.25 -71.75 48.1 -71.65 47.95 -71.55 47.8 -71.45 47.65 -71.35 47.5 -71.25 47.35 -71.15 47.2 -69.9 45.55 -68.95 44.4 -68.8 44.25 -68.7 44.1 -68.55 43.95 -68.4 43.8 -68.3 43.65 -68.15 43.5 -68.0 43.35 -67.85 43.2 -67.7 43.05 -67.55 42.9 -67.45 42.75 -67.3 42.6 -67.15 42.45 -67.0 42.3 -66.85 42.15 -66.7 42.0 -66.65 41.95 -66.35 41.65 -66.1 41.45 -65.95 41.3 -65.9 41.25 -65.9 41.25 -65.85 41.25 -65.8 41.2 -65.75 41.2 -65.7 41.2 -65.8 41.35 -65.9 41.45 -66.0 41.6 -66.05 41.75 -66.15 41.9 -66.2 42.0 -66.3 42.15 -66.35 42.3 -66.4 42.45 -66.45 42.6 -66.5 42.75 -66.55 42.9 -66.6 43.05 -66.6 43.2 -66.65 43.35 -66.65 43.5 -66.7 43.7 -66.7 43.75 -66.65 43.8 -66.6 43.8 -66.55 43.85 -66.4 43.8 -65.0 43.65 -60.15 43.1 -60.05 43.1 -59.8 43.1 -59.55 43.05 -59.4 43.05 -59.4 43.1 -59.45 43.15 -59.4 43.1 -59.55 43.2 -59.85 43.4 -60.15 43.6 -60.45 43.75 -60.75 43.95 -61.05 44.15 -61.3 44.35 -61.6 44.55 -61.9 44.75 -62.2 44.95 -62.45 45.15 -62.75 45.4 -63.0 45.6 -63.3 45.8 -63.55 46.05 -63.85 46.25 -64.1 46.5 -64.65 46.95 -65.4 47.7 -66.65 48.9 -66.7 48.9 -66.85 49.05 -66.95 49.15 -67.1 49.3 -67.2 49.45 -67.3 49.6 -67.45 49.75 -67.55 49.9 -67.65 50.05 -67.75 50.15 -67.85 50.35 -68.05 50.6 -68.1 50.65 -68.2 50.85 -68.3 50.95 -68.45 51.15 -68.55 51.25 -69.8 52.95 -69.95 53.15 -70.05 53.3 -70.2 53.45 -70.3 53.6 -70.45 53.75 -70.55 53.85 -70.7 53.95 -70.85 54.1 -71.0 54.2 -71.15 54.3 -71.3 54.4 -71.45 54.5 -71.6 54.55 -71.8 54.65 -71.95 54.7 -72.1 54.8 -72.3 54.85 -72.45 54.9 -72.65 54.95 -72.8 55.0 -72.95 55.05 -73.15 55.1 -73.3 55.1 -73.5 55.15 -73.65 55.15 -73.8 55.15 -74.0 55.15 -74.15 55.15 -74.35 55.15 -74.5 55.15 -74.7 55.15 -74.85 55.1 -75.05 55.1 -75.1 55.1 -75.1 55.1 -75.15 55.1 -75.15 55.05 -75.2 55.05 -75.2 55.05 -75.25 55.05 -75.25 55.0 -75.25 55.0 -75.25 55.0 -75.25 54.95 -75.25 54.95 -75.25 54.9 -75.25 54.85 -75.25 54.85 -75.25 54.8 L-75.25 54.8" fill="#2d252e" fill-rule="evenodd" stroke="none"/>
    <path d="M-36.1 53.05 Q-36.1 53.0 -36.65 52.25 -36.75 52.1 -37.3 51.55 -37.75 51.1 -39.15 49.65 -40.3 48.5 -41.0 47.8 -42.75 45.95 -43.2 45.5 -43.25 45.45 -43.25 45.4 -43.3 45.4 -43.3 45.3 -43.15 45.35 -42.95 45.45 -42.7 45.55 -42.65 45.6 -42.25 45.8 -41.8 46.0 -41.4 46.15 -40.95 46.35 -40.55 46.55 -40.1 46.7 -39.7 46.9 -39.25 47.05 -38.8 47.25 -38.4 47.4 -37.95 47.6 -37.55 47.75 -37.1 47.9 -36.65 48.05 -36.25 48.2 -35.8 48.35 -35.45 48.45 -35.1 48.6 -34.8 48.7 -34.45 48.8 -34.1 48.95 -33.75 49.05 -33.45 49.15 -33.1 49.25 -32.75 49.35 -32.4 49.5 -32.05 49.6 -31.7 49.7 -31.35 49.8 -31.0 49.9 -30.7 49.95 -30.35 50.05 -29.6 50.25 -27.75 50.7 -27.7 50.7 -27.7 50.7 -27.65 50.75 -27.6 50.75 -27.6 50.75 -27.55 50.75 -27.55 50.75 -27.5 50.75 -27.45 50.75 -27.45 50.75 -27.4 50.75 -27.35 50.75 -27.35 50.75 -27.3 50.75 -27.25 50.75 -27.25 50.75 -27.25 50.8 -27.2 50.85 -27.25 50.85 -27.15 50.85 -26.75 50.95 -25.9 51.15 -25.9 51.2 -25.95 51.25 -25.95 51.3 -25.95 51.3 -26.05 51.45 -26.1 51.6 -26.2 51.75 -26.25 51.9 -26.35 52.05 -26.4 52.15 -26.5 52.3 -26.55 52.45 -26.65 52.6 -26.75 52.75 -26.8 52.85 -26.9 53.0 -27.0 53.15 -27.05 53.3 -27.15 53.4 -27.25 53.55 -27.35 53.7 -27.4 53.8 -27.5 53.9 -27.55 54.05 -27.65 54.15 -27.75 54.25 -27.85 54.4 -27.9 54.5 -28.0 54.6 -28.1 54.7 -28.2 54.8 -28.3 54.9 -28.4 55.0 -28.5 55.1 -28.6 55.2 -28.75 55.3 -28.8 55.35 -28.8 55.35 -28.85 55.4 -28.9 55.4 -28.95 55.4 -29.0 55.45 -28.95 55.45 -29.05 55.5 -29.1 55.5 -29.15 55.55 -29.2 55.55 -29.2 55.6 -29.25 55.6 -29.3 55.65 -29.35 55.65 -29.35 55.7 -30.7 55.35 -32.6 54.6 -34.05 54.05 -36.0 53.1 -36.05 53.1 -36.05 53.1 -36.05 53.1 -36.1 53.05 L-36.1 53.05" fill="#442e4f" fill-rule="evenodd" stroke="none"/>
    <path d="M1.7 48.75 Q1.95 48.75 2.2 48.8 2.45 48.85 2.7 48.95 2.95 49.0 3.15 49.1 3.4 49.2 3.6 49.3 3.85 49.4 4.05 49.55 4.25 49.65 4.45 49.85 4.65 50.0 4.8 50.15 5.0 50.35 5.15 50.55 5.25 50.7 5.35 50.85 5.45 51.0 5.55 51.15 5.6 51.3 5.65 51.45 5.7 51.6 5.7 51.75 5.7 51.95 5.65 52.1 5.65 52.25 5.6 52.4 5.55 52.6 5.5 52.75 5.4 52.9 5.3 53.1 5.2 53.2 5.15 53.3 5.05 53.4 5.0 53.5 4.9 53.6 4.8 53.7 4.7 53.8 4.6 53.85 4.5 53.95 4.4 54.05 4.3 54.1 4.2 54.15 4.05 54.25 3.95 54.3 3.85 54.35 3.7 54.4 3.65 54.4 3.6 54.45 3.6 54.5 3.55 54.55 3.55 54.55 3.55 54.6 3.55 54.65 3.55 54.7 3.55 54.85 3.55 55.0 3.55 55.15 3.55 55.3 3.55 55.4 3.55 55.55 3.55 55.7 3.5 55.85 3.5 56.0 3.45 56.15 3.45 56.3 3.4 56.45 3.4 56.55 3.35 56.7 3.35 56.85 3.3 57.0 3.25 57.15 3.2 57.25 3.2 57.35 3.15 57.45 3.05 57.6 3.0 57.65 2.95 57.75 2.85 57.8 2.8 57.9 2.7 57.95 2.6 58.0 2.5 58.0 2.4 58.05 2.3 58.05 2.2 58.05 2.05 58.05 1.95 58.05 1.85 58.05 1.75 58.05 1.65 58.0 1.55 58.0 1.45 58.0 1.35 57.95 1.25 57.9 1.15 57.9 1.05 57.85 0.95 57.8 0.85 57.75 0.75 57.7 0.65 57.65 0.6 57.55 0.5 57.5 0.2 57.25 -1.0 55.85 -1.4 55.35 -2.0 54.65 -2.0 54.65 -2.05 54.6 -2.05 54.6 -2.05 54.6 -2.05 54.6 -2.1 54.55 L-2.1 54.55 Q-2.05 54.5 -2.15 54.5 L-2.15 54.5 Q-2.1 54.45 -2.2 54.4 L-2.2 54.4 Q-2.2 54.4 -2.25 54.35 L-2.25 54.35 Q-2.25 54.35 -2.3 54.3 L-2.3 54.3 Q-2.25 54.25 -2.35 54.25 L-2.35 54.25 Q-2.3 54.2 -2.4 54.15 -2.4 54.15 -2.4 54.1 -2.45 54.1 -2.5 54.05 L-2.5 54.05 Q-2.45 54.0 -2.55 54.0 L-2.55 54.0 Q-2.5 53.95 -2.6 53.9 -2.6 53.9 -2.6 53.85 -2.65 53.75 -2.65 53.8 -2.7 53.75 -2.75 53.75 L-2.75 53.75 Q-2.7 53.7 -2.8 53.65 -2.8 53.65 -2.8 53.6 -2.85 53.5 -2.85 53.55 -2.9 53.5 -2.95 53.5 L-2.95 53.5 Q-2.9 53.45 -3.0 53.4 -3.0 53.4 -3.0 53.35 -3.0 53.3 -3.05 53.25 -3.1 53.25 -3.1 53.2 -3.15 53.15 -3.2 53.15 -3.2 53.15 -3.2 53.1 -3.2 53.05 -3.25 53.0 -3.3 53.0 -3.3 52.95 -3.35 52.9 -3.4 52.9 -3.4 52.9 -3.4 52.85 -3.45 52.8 -3.45 52.8 -3.5 52.75 -3.5 52.7 -3.55 52.7 -3.55 52.65 -3.6 52.6 -3.65 52.6 L-3.65 52.6 Q-3.65 52.55 -3.65 52.5 -3.7 52.5 -3.7 52.45 -3.75 52.45 -3.75 52.4 -3.8 52.4 -3.85 52.35 -3.85 52.35 -3.85 52.3 -3.9 52.3 -3.9 52.25 -4.05 52.05 -3.95 52.15 -4.0 52.1 -4.1 52.1 L-4.1 52.1 Q-4.05 52.05 -4.15 52.0 -4.15 52.0 -4.15 51.95 -4.2 51.95 -4.2 51.9 -4.25 51.9 -4.3 51.85 L-4.3 51.85 Q-4.25 51.8 -4.35 51.8 L-4.35 51.8 Q-4.3 51.75 -4.4 51.75 L-4.4 51.75 Q-4.35 51.7 -4.45 51.65 -4.45 51.65 -4.5 51.6 -4.5 51.6 -4.55 51.55 -4.9 51.05 -5.15 50.85 -5.2 50.8 -5.2 50.75 -5.25 50.7 -5.25 50.7 -5.25 50.65 -5.2 50.65 -5.2 50.6 -5.15 50.6 -5.15 50.55 -5.1 50.55 -4.9 50.45 -4.7 50.35 -4.5 50.25 -4.3 50.2 -4.1 50.1 -3.9 50.0 -3.7 49.95 -3.5 49.85 -3.3 49.75 -3.1 49.7 -2.85 49.6 -2.65 49.55 -2.45 49.5 -2.25 49.45 -2.05 49.35 -1.85 49.3 -1.65 49.25 -1.4 49.2 -1.2 49.15 -0.95 49.1 -0.75 49.05 -0.5 49.0 -0.3 48.95 -0.05 48.95 0.15 48.9 0.35 48.9 0.6 48.85 0.8 48.8 1.05 48.8 1.25 48.8 1.5 48.75 1.7 48.75 L1.7 48.75" fill="#d762fe" fill-rule="evenodd" stroke="none"/>
    <path d="M-29.35 55.7 Q-29.3 55.65 -29.3 55.65 -29.25 55.6 -29.2 55.6 -29.2 55.55 -29.15 55.55 -29.1 55.5 -29.05 55.5 -29.05 55.5 -28.95 55.45 -28.9 55.4 -28.9 55.4 -28.85 55.4 -28.8 55.35 -28.75 55.35 -28.75 55.3 -28.65 55.2 -28.5 55.1 -28.4 55.0 -28.3 54.9 -28.2 54.8 -28.1 54.7 -28.0 54.6 -27.9 54.5 -27.85 54.4 -27.75 54.25 -27.65 54.15 -27.55 54.0 -27.5 53.9 -27.4 53.8 -27.35 53.7 -27.25 53.55 -27.15 53.4 -27.05 53.3 -27.0 53.15 -26.9 53.0 -26.8 52.85 -26.75 52.75 -26.65 52.6 -26.55 52.45 -26.5 52.3 -26.4 52.2 -26.35 52.05 -26.25 51.9 -26.2 51.75 -26.1 51.6 -26.05 51.45 -25.95 51.3 -25.95 51.25 -25.95 51.25 -25.9 51.2 -25.9 51.15 -24.3 51.45 -22.25 51.9 -20.95 52.15 -17.95 52.75 -17.95 52.8 -18.0 52.85 -18.0 52.9 -18.05 52.9 -18.05 52.95 -18.1 53.0 -18.15 53.0 -18.2 53.05 -18.2 53.05 -18.25 53.1 -18.3 53.1 -18.35 53.15 -18.4 53.15 -18.4 53.15 -18.45 53.2 -18.45 53.2 -18.65 53.35 -18.85 53.45 -19.0 53.6 -19.2 53.75 -19.4 53.9 -19.6 54.0 -19.75 54.15 -19.95 54.3 -20.1 54.45 -20.3 54.6 -20.5 54.7 -20.65 54.85 -20.85 55.0 -21.0 55.15 -21.2 55.3 -21.35 55.45 -21.9 55.9 -22.9 56.85 -23.05 57.0 -22.95 56.95 -23.0 57.0 -23.0 57.05 -27.25 56.25 -28.6 55.9 -28.85 55.8 -29.35 55.7 L-29.35 55.7" fill="#261a2c" fill-rule="evenodd" stroke="none"/>
    <path d="M-8.0 59.85 Q-7.85 59.85 -7.7 59.85 -7.55 59.85 -7.35 59.8 -7.25 59.8 -7.05 59.75 -6.95 59.75 -6.75 59.7 -6.65 59.7 -6.45 59.65 -6.2 59.6 -6.15 59.6 -6.0 59.55 -5.85 59.5 -5.7 59.5 -5.55 59.5 -5.3 59.45 -5.0 59.45 -4.75 59.4 -4.5 59.35 -4.25 59.35 -3.95 59.35 -3.7 59.3 -3.45 59.3 -3.2 59.3 -2.9 59.3 -2.65 59.3 -2.4 59.3 -2.15 59.3 -1.85 59.3 -1.6 59.3 -1.35 59.35 -1.15 59.35 -0.25 59.4 -0.1 59.4 -0.15 59.4 -0.1 59.4 -0.1 59.35 0.05 59.4 1.0 60.2 1.2 60.4 1.55 60.7 1.95 61.05 2.1 61.15 2.1 61.2 2.15 61.2 2.15 61.2 2.15 61.2 2.2 61.25 2.25 61.35 1.3 61.1 0.65 61.05 0.65 61.0 0.6 61.0 -0.15 60.9 -1.35 60.85 -1.9 60.85 -2.85 60.95 -3.5 61.05 -3.65 61.1 -3.65 61.1 -4.3 61.25 -4.7 61.3 -4.95 61.4 -5.1 61.45 -5.15 61.45 -5.2 61.45 -5.2 61.55 -5.2 61.6 -5.1 61.7 -4.55 62.55 -3.75 63.95 -2.75 65.8 -2.45 66.25 -2.45 66.25 -2.4 66.3 -2.4 66.35 -2.4 66.35 -2.4 66.35 -2.4 66.4 -2.4 66.4 -2.4 66.45 -2.45 66.45 -2.5 66.5 -2.6 66.5 -2.65 66.5 -2.75 66.5 -2.8 66.5 -2.9 66.5 -2.95 66.45 -3.0 66.45 -3.1 66.4 -3.15 66.35 -3.2 66.3 -3.25 66.25 -3.3 66.2 -3.35 66.2 -3.4 66.1 -3.4 66.15 -3.55 66.0 -4.95 64.6 -5.6 63.95 -5.65 63.9 -5.65 63.9 -5.7 63.85 -5.7 63.8 -5.75 63.8 -5.75 63.75 -5.8 63.7 -5.8 63.65 -5.85 63.65 -5.85 63.6 -5.9 63.5 -5.9 63.5 -5.95 63.45 -6.0 63.45 -6.0 63.4 -6.05 63.35 -6.0 63.3 -6.1 63.3 -6.1 63.3 -6.1 63.3 -6.1 63.25 -6.1 63.2 -6.05 63.25 -6.15 63.1 -6.75 62.15 -7.8 60.45 -7.8 60.4 -7.85 60.4 -7.9 60.35 -7.9 60.3 -7.9 60.25 -7.95 60.25 -7.95 60.2 -8.0 60.15 -8.0 60.1 -8.0 60.1 -8.0 60.05 -8.0 60.0 -8.0 59.95 -8.0 59.95 -8.0 59.9 -8.0 59.85 L-8.0 59.85" fill="#e8e7ee" fill-rule="evenodd" stroke="none"/>
    <path d="M-2.4 54.1 Q-2.4 54.1 -2.4 54.15 -2.35 54.25 -2.35 54.2 -2.35 54.25 -2.35 54.25 -2.35 54.25 -2.35 54.25 -2.35 54.25 -2.35 54.25 -2.3 54.25 -2.3 54.3 -2.3 54.3 -2.3 54.3 -2.25 54.3 -2.25 54.35 -2.25 54.35 -2.25 54.35 -2.2 54.35 -2.2 54.4 -2.2 54.4 -2.2 54.4 -2.2 54.4 -2.2 54.4 -2.15 54.45 -2.15 54.45 -2.15 54.5 -2.15 54.5 -2.15 54.5 -2.15 54.5 -2.1 54.5 -2.1 54.55 -2.1 54.55 -2.1 54.55 -2.1 54.55 -2.1 54.55 -2.05 54.55 -2.05 54.6 -2.05 54.6 -2.05 54.6 -2.05 54.6 -2.05 54.6 -2.05 54.6 -2.05 54.65 -2.05 54.7 -2.05 54.75 -2.05 54.75 -2.05 54.8 -2.05 54.85 -2.05 54.9 -2.05 54.95 -2.05 54.95 -2.05 55.0 -2.05 55.05 -2.05 55.2 -2.05 55.15 -2.0 55.25 -2.05 55.25 -2.1 55.25 -2.15 55.25 -2.15 55.25 -2.25 55.2 -4.15 53.95 -4.55 53.75 -4.7 53.65 -5.65 52.8 -5.7 52.7 -6.15 52.15 -6.45 51.8 -7.05 51.15 -7.65 50.5 -7.95 50.15 -8.0 50.1 -8.0 50.1 -8.05 50.05 -8.05 50.0 -8.05 50.0 -8.05 49.95 -8.0 49.95 -8.0 49.9 -7.95 49.9 -7.9 49.85 -7.6 49.7 -7.3 49.55 -6.95 49.4 -6.65 49.25 -6.35 49.15 -6.05 49.0 -5.7 48.85 -5.4 48.75 -5.05 48.65 -4.75 48.55 -4.4 48.45 -4.1 48.35 -3.75 48.25 -3.45 48.15 -3.1 48.1 -2.75 48.0 -2.6 47.95 -2.45 47.95 -2.35 47.9 -2.2 47.9 -2.05 47.85 -1.9 47.85 -1.75 47.8 -1.6 47.8 -1.5 47.8 -1.35 47.75 -1.2 47.75 -1.05 47.7 -0.9 47.7 -0.75 47.7 -0.6 47.65 -0.5 47.65 -0.45 47.65 -0.45 47.6 -0.35 47.65 -0.25 47.7 -0.1 47.75 0.0 47.8 0.1 47.85 0.2 47.9 0.3 47.95 0.4 48.0 0.5 48.05 0.6 48.1 0.8 48.2 0.8 48.25 0.95 48.3 1.0 48.35 1.15 48.4 1.2 48.45 1.65 48.65 1.7 48.75 1.45 48.75 1.25 48.8 1.05 48.8 0.8 48.85 0.6 48.85 0.35 48.9 0.15 48.9 -0.05 48.95 -0.3 49.0 -0.5 49.0 -0.75 49.05 -0.95 49.1 -1.2 49.15 -1.4 49.2 -1.6 49.25 -1.85 49.3 -2.05 49.35 -2.25 49.4 -2.45 49.5 -2.65 49.55 -2.9 49.6 -3.1 49.7 -3.3 49.75 -3.5 49.85 -3.7 49.9 -3.9 50.0 -4.1 50.1 -4.3 50.15 -4.5 50.25 -4.7 50.35 -4.9 50.45 -5.1 50.55 -5.15 50.55 -5.15 50.6 -5.2 50.6 -5.2 50.65 -5.25 50.65 -5.25 50.7 -5.25 50.7 -5.2 50.75 -5.2 50.8 -5.15 50.85 -5.05 50.95 -4.55 51.55 -4.5 51.55 -4.5 51.6 -4.45 51.6 -4.45 51.65 -4.4 51.7 -4.4 51.7 -4.4 51.75 -4.4 51.75 -4.4 51.75 -4.4 51.75 -4.35 51.75 -4.35 51.8 -4.35 51.8 -4.35 51.8 -4.3 51.8 -4.3 51.85 -4.3 51.85 -4.3 51.85 -4.25 51.85 -4.2 51.9 -4.2 51.95 -4.15 52.0 -4.1 52.1 -4.1 52.05 -4.1 52.1 -4.1 52.1 -4.1 52.1 -4.1 52.1 -4.05 52.1 -4.1 52.1 -4.1 52.15 -4.05 52.2 -4.05 52.2 -4.0 52.25 -3.95 52.25 -3.9 52.25 -3.9 52.3 -3.85 52.35 -3.85 52.4 -3.85 52.45 -3.8 52.5 -3.8 52.5 -3.75 52.55 -3.7 52.6 -3.7 52.6 -3.65 52.6 -3.65 52.6 -3.65 52.6 -3.65 52.65 -3.65 52.7 -3.6 52.75 -3.6 52.8 -3.55 52.8 -3.5 52.85 -3.45 52.85 -3.4 52.85 -3.4 52.85 -3.4 52.9 -3.4 52.95 -3.4 53.0 -3.4 53.0 -3.35 53.05 -3.35 53.05 -3.3 53.1 -3.25 53.1 -3.2 53.1 -3.2 53.1 -3.2 53.15 -3.2 53.2 -3.2 53.25 -3.2 53.25 -3.15 53.3 -3.15 53.3 -3.1 53.35 -3.05 53.35 -3.0 53.35 -3.0 53.35 -3.0 53.4 -2.85 53.65 -2.95 53.45 -2.95 53.5 -2.95 53.5 -2.95 53.5 -2.95 53.5 -2.95 53.5 -2.95 53.5 -2.9 53.6 -2.8 53.6 -2.8 53.6 -2.8 53.65 -2.75 53.75 -2.75 53.7 -2.75 53.75 -2.75 53.75 -2.75 53.75 -2.75 53.75 -2.75 53.75 -2.75 53.75 -2.7 53.85 -2.6 53.85 -2.6 53.85 -2.6 53.9 -2.55 54.0 -2.55 53.95 -2.55 54.0 -2.55 54.0 -2.55 54.0 -2.55 54.0 -2.55 54.0 -2.55 54.0 -2.5 54.0 -2.5 54.05 -2.5 54.05 -2.5 54.05 -2.5 54.05 -2.5 54.05 -2.45 54.05 -2.4 54.1 L-2.4 54.1" fill="#e8e7ee" fill-rule="evenodd" stroke="none"/>
    <path d="M-50.45 41.4 Q-50.55 41.35 -50.55 41.4 -50.75 41.45 -51.15 41.5 -51.5 41.6 -51.7 41.65 -51.75 41.65 -51.8 41.65 -51.85 41.65 -51.85 41.7 -51.9 41.7 -51.95 41.7 -52.0 41.65 -52.0 41.65 -52.05 41.65 -52.1 41.65 -52.1 41.6 -52.15 41.6 -52.2 41.6 -52.2 41.55 -52.25 41.5 -52.25 41.45 -52.25 41.4 -52.25 41.4 -52.3 41.35 -52.3 41.3 -52.6 41.05 -53.3 40.2 -53.3 40.15 -53.35 40.1 -53.35 40.1 -53.4 40.05 -53.4 40.05 -53.45 40.0 L-53.45 40.0 Q-53.45 39.95 -53.5 39.95 L-53.5 39.95 Q-53.45 39.85 -53.6 39.8 L-53.6 39.8 Q-53.55 39.75 -53.65 39.7 L-53.65 39.7 Q-53.65 39.65 -53.65 39.6 -53.7 39.6 -53.75 39.55 -53.75 39.5 -53.8 39.45 -53.8 39.45 -53.85 39.4 -53.85 39.35 -53.9 39.3 -53.9 39.2 -54.0 39.2 L-54.0 39.2 Q-53.95 39.1 -54.1 39.05 L-54.1 39.05 Q-54.1 39.0 -54.1 38.95 -54.1 38.95 -54.1 38.9 -54.15 38.85 -54.15 38.85 -54.2 38.8 -54.25 38.75 L-54.25 38.75 Q-54.25 38.7 -54.25 38.7 -54.25 38.65 -54.3 38.6 -54.3 38.6 -54.35 38.55 -54.35 38.55 -54.35 38.55 -54.35 38.5 -54.4 38.45 -54.4 38.45 -54.4 38.4 -54.85 37.35 -55.0 36.8 -55.0 36.75 -55.05 36.7 -55.05 36.65 -55.05 36.65 -55.0 36.6 -55.0 36.6 -54.95 36.55 -54.9 36.55 -53.75 36.05 -52.0 35.35 -52.0 35.35 -51.95 35.3 -51.85 36.3 -51.85 36.35 -51.8 36.7 -51.7 37.0 -51.65 37.35 -51.55 37.65 -51.45 38.0 -51.35 38.3 -51.25 38.6 -51.1 38.9 -51.0 39.25 -50.85 39.55 -50.7 39.85 -50.55 40.15 -50.4 40.4 -50.2 40.7 -50.0 41.0 -49.8 41.25 -50.0 41.3 -50.45 41.4 L-50.45 41.4" fill="#d762fe" fill-rule="evenodd" stroke="none"/>
    <path d="M-49.8 41.25 Q-50.0 41.0 -50.2 40.7 -50.4 40.4 -50.55 40.1 -50.7 39.85 -50.85 39.55 -51.0 39.25 -51.1 38.9 -51.25 38.6 -51.35 38.3 -51.45 38.0 -51.55 37.65 -51.6 37.35 -51.7 37.0 -51.75 36.7 -51.85 36.35 -51.85 36.15 -51.9 35.85 -51.95 35.5 -51.95 35.3 -51.95 35.25 -51.95 35.2 -51.95 35.15 -51.95 35.1 -51.95 35.05 -51.9 35.05 -51.9 35.0 -51.85 35.0 -51.8 34.95 -51.8 34.95 -51.75 34.9 -51.7 34.9 -52.2 35.15 -51.6 34.85 -51.6 34.85 -51.55 34.85 -51.2 34.65 -50.4 34.25 -50.25 34.2 -50.2 34.2 -50.15 34.2 -50.1 34.25 -50.1 34.3 -50.1 34.45 -50.1 34.8 -50.05 35.15 -50.05 35.55 -50.0 35.9 -49.95 36.25 -49.85 36.55 -49.75 36.9 -49.65 37.25 -49.55 37.6 -49.45 37.9 -49.3 38.25 -49.15 38.55 -49.0 38.85 -48.85 39.2 -48.65 39.5 -48.5 39.8 -48.45 39.9 -48.4 39.95 -48.35 40.05 -48.3 40.1 -48.25 40.2 -48.15 40.25 -48.1 40.35 -48.05 40.4 -48.0 40.5 -47.95 40.55 -47.9 40.6 -47.85 40.7 -47.75 40.75 -47.7 40.85 -47.65 40.9 -47.6 40.95 -47.55 41.0 -47.55 41.05 -47.5 41.05 -47.5 41.1 -47.5 41.15 -47.5 41.2 -47.55 41.2 -47.55 41.25 -47.55 41.3 -47.6 41.3 -47.6 41.35 -47.65 41.35 -47.65 41.4 -47.7 41.45 -47.7 41.45 -47.75 41.5 -47.75 41.5 -47.8 41.55 -47.8 41.55 -47.85 41.6 -47.85 41.6 -47.9 41.6 -47.9 41.65 -47.95 41.65 -48.05 41.8 -48.0 41.7 -48.05 41.75 -48.05 41.8 -48.1 41.8 -48.15 41.8 -48.2 41.8 -48.25 41.85 -48.3 41.85 -48.4 41.85 -48.45 41.85 -48.5 41.9 -48.55 41.9 -48.6 41.9 -48.65 41.9 -48.7 41.9 -48.75 41.9 -48.8 41.9 -48.85 41.9 -48.9 41.9 -48.95 41.9 -49.0 41.9 -49.05 41.9 -49.1 41.9 -49.15 41.85 -49.2 41.85 -49.2 41.85 -49.25 41.85 -49.3 41.8 -49.35 41.8 -49.4 41.8 -49.4 41.75 -49.45 41.75 -49.5 41.7 -49.5 41.65 -49.55 41.65 -49.55 41.6 -49.6 41.55 -49.6 41.5 -49.65 41.45 -49.65 41.45 -49.7 41.4 -49.7 41.35 -49.75 41.35 -49.75 41.3 -49.8 41.25 L-49.8 41.25" fill="#e8e8ee" fill-rule="evenodd" stroke="none"/>
    <path d="M-8.0 59.85 Q-8.0 59.9 -8.0 59.95 -8.0 59.95 -8.0 60.0 -8.0 60.05 -8.0 60.1 -8.0 60.1 -8.0 60.15 -7.95 60.2 -7.95 60.25 -7.95 60.25 -7.9 60.3 -7.9 60.3 -7.85 60.35 -7.85 60.4 -7.8 60.45 -7.5 60.95 -7.0 61.75 -6.3 62.9 -6.15 63.1 -6.15 63.1 -6.1 63.15 -6.1 63.2 -6.1 63.2 -6.05 63.25 -6.1 63.3 -6.15 63.35 -6.2 63.3 -6.5 63.1 -6.25 63.25 -6.75 62.9 -7.3 62.6 -7.85 62.3 -8.4 62.0 -8.9 61.7 -9.5 61.45 -10.0 61.15 -10.6 60.9 -11.15 60.65 -11.7 60.45 -12.25 60.2 -12.85 60.0 -13.4 59.75 -14.0 59.55 -14.55 59.35 -15.2 59.15 -15.55 59.05 -16.05 58.85 -15.95 58.8 -15.9 58.8 -15.8 58.75 -15.75 58.75 -15.65 58.7 -15.55 58.7 -15.5 58.65 -15.4 58.65 -15.35 58.65 -15.25 58.65 -15.15 58.6 -15.05 58.6 -15.0 58.6 -14.9 58.55 -14.65 58.55 -14.75 58.55 -14.65 58.55 -14.6 58.55 -14.5 58.5 -14.4 58.5 -14.3 58.5 -14.25 58.5 -14.15 58.5 -14.05 58.5 -14.0 58.5 -13.9 58.5 -13.8 58.5 -13.75 58.5 -13.65 58.5 -13.6 58.5 -13.5 58.5 -13.4 58.5 -13.25 58.5 -13.1 58.5 -12.95 58.55 -12.8 58.55 -12.6 58.55 -12.5 58.6 -12.3 58.6 -12.15 58.6 -12.0 58.65 -11.85 58.65 -11.7 58.7 -11.55 58.75 -11.4 58.75 -11.25 58.8 -11.1 58.85 -10.95 58.9 -10.4 59.1 -9.45 59.35 -8.35 59.7 -8.0 59.85 L-8.0 59.85" fill="#271a2d" fill-rule="evenodd" stroke="none"/>
    <path d="M-49.95 43.05 Q-49.45 45.05 -49.2 46.2 -49.05 46.75 -48.85 47.65 -48.6 48.75 -48.55 49.1 -48.5 49.2 -48.5 49.35 -48.45 49.45 -48.45 49.55 -48.4 49.7 -48.4 49.8 -48.35 49.9 -48.3 50.0 -48.3 50.15 -48.25 50.25 -48.25 50.35 -48.25 50.5 -48.2 50.6 -48.2 50.75 -48.15 50.85 -48.15 50.95 -48.35 50.6 -48.35 50.5 -48.6 50.0 -49.1 48.9 -49.6 47.85 -49.9 47.3 -50.05 46.95 -50.6 45.8 -51.0 44.9 -51.25 44.35 -52.0 43.05 -51.3 44.2 -51.35 44.1 -51.45 44.15 -51.5 44.15 -51.55 44.2 -51.55 44.2 -51.6 44.2 -51.65 44.25 -51.65 44.25 -51.7 44.3 -51.7 44.35 -51.7 44.4 -51.7 44.45 -51.7 44.55 -51.7 44.7 -51.7 44.85 -51.7 44.9 -51.7 45.05 -51.7 45.15 -51.7 45.3 -51.7 45.4 -51.7 45.55 -51.7 45.65 -51.7 45.8 -51.75 45.9 -51.75 46.0 -51.8 46.15 -51.8 46.25 -51.85 46.4 -51.9 46.5 -51.9 46.65 -51.95 46.75 -52.0 46.85 -52.65 48.75 -52.7 48.85 -52.7 48.7 -52.65 48.35 -52.6 48.05 -52.6 47.85 -52.45 46.85 -52.45 46.75 -52.45 46.65 -52.45 46.55 -52.45 46.4 -52.4 46.3 -52.4 46.2 -52.35 46.1 -52.35 46.0 -52.3 45.9 -52.3 45.8 -52.25 45.7 -52.2 45.6 -52.15 45.5 -52.15 45.4 -52.1 45.3 -52.0 45.1 -52.0 45.05 -51.95 44.9 -51.8 44.5 -51.7 44.45 -51.75 44.4 -51.8 44.35 -51.85 44.4 -51.75 44.35 -51.9 44.4 -52.2 44.6 -52.2 44.55 -52.25 44.55 -52.25 44.5 -52.25 44.45 -52.25 44.35 -52.25 44.35 -52.25 44.25 -52.25 44.05 -52.25 44.15 -52.2 43.75 -52.15 43.1 -51.75 43.0 -51.55 43.0 -51.5 43.0 -51.45 43.0 -51.4 43.0 -51.4 43.0 -51.35 43.0 -51.3 42.95 -51.3 42.95 -51.25 42.95 -51.25 42.9 -51.25 42.9 -51.2 42.85 -51.2 42.8 -51.2 42.8 -51.2 42.75 -51.2 42.7 -51.2 42.65 -51.2 42.55 -51.15 42.4 -51.15 42.2 -51.15 42.15 -50.75 42.45 -49.95 43.05 L-49.95 43.05" fill="#261a2c" fill-rule="evenodd" stroke="none"/>
    <path d="M-53.3 40.2 Q-52.45 41.2 -52.3 41.3 -52.25 41.35 -52.25 41.4 -52.25 41.45 -52.25 41.45 -52.3 41.45 -52.35 41.5 -52.4 41.5 -52.4 41.5 -52.45 41.55 -52.5 41.6 -52.5 41.6 -52.55 41.65 -52.6 41.7 -52.6 41.7 -52.65 41.7 -52.7 41.75 -52.7 41.75 -52.75 41.75 -52.8 41.75 -52.8 41.75 -52.85 41.75 -52.9 41.75 -52.95 41.75 -52.95 41.7 -53.0 41.7 -53.05 41.7 -53.05 41.7 -53.1 41.65 -53.5 41.45 -53.85 41.25 -54.2 41.05 -54.5 40.8 -54.8 40.6 -55.05 40.3 -55.35 40.05 -55.6 39.75 -55.8 39.45 -56.0 39.1 -56.2 38.8 -56.4 38.45 -56.55 38.1 -56.7 37.7 -56.85 37.3 -56.95 36.9 -56.95 36.85 -56.95 36.8 -56.95 36.75 -56.95 36.7 -56.95 36.7 -56.9 36.65 -56.85 36.65 -56.8 36.65 -56.75 36.6 -56.7 36.6 -56.6 36.6 -56.55 36.6 -56.45 36.6 -56.35 36.6 -56.3 36.6 -56.2 36.6 -56.1 36.6 -56.05 36.6 -55.95 36.6 -55.85 36.6 -55.8 36.6 -55.7 36.55 -55.6 36.55 -55.55 36.55 -55.45 36.55 -55.35 36.55 -55.3 36.55 -55.25 36.55 -55.25 36.55 -55.2 36.55 -55.2 36.6 -55.15 36.6 -55.15 36.65 -55.1 36.7 -55.1 36.8 -55.05 36.9 -55.05 36.95 -55.0 37.05 -55.0 37.15 -54.95 37.2 -54.95 37.3 -54.9 37.4 -54.9 37.5 -54.85 37.55 -54.8 37.65 -54.8 37.75 -54.75 37.8 -54.7 37.9 -54.7 38.0 -54.65 38.05 -54.65 38.1 -54.6 38.15 -54.6 38.2 -54.55 38.25 -54.55 38.3 -54.5 38.3 -54.45 38.35 -54.4 38.4 -54.4 38.4 -54.4 38.45 -54.45 38.5 -54.35 38.55 -54.3 38.5 -54.35 38.55 -54.35 38.65 -54.35 38.7 -54.3 38.75 -54.25 38.75 -54.25 38.75 -54.25 38.75 -54.25 38.8 -54.25 38.85 -54.2 38.9 -54.2 38.95 -54.2 38.95 -54.15 39.0 -54.1 39.05 -54.1 39.05 -54.1 39.05 -54.1 39.05 -54.1 39.05 -54.1 39.05 -54.1 39.1 -54.1 39.15 -54.05 39.15 -54.05 39.2 -54.05 39.2 -54.0 39.2 -54.0 39.2 -54.0 39.2 -54.0 39.3 -53.9 39.3 -53.85 39.35 -53.85 39.4 -53.8 39.45 -53.8 39.45 -53.75 39.5 -53.75 39.55 -53.75 39.65 -53.75 39.65 -53.7 39.7 -53.65 39.7 -53.65 39.7 -53.65 39.7 -53.65 39.75 -53.65 39.8 -53.6 39.8 -53.6 39.8 -53.6 39.8 -53.6 39.8 -53.6 39.85 -53.6 39.9 -53.55 39.9 -53.55 39.95 -53.55 39.95 -53.5 39.95 -53.5 39.95 -53.5 39.95 -53.5 39.95 -53.5 39.95 -53.5 40.0 -53.45 40.0 -53.45 40.0 -53.45 40.0 -53.45 40.0 -53.45 40.0 -53.4 40.05 -53.4 40.05 -53.35 40.1 -53.35 40.1 -53.3 40.2 -53.3 40.2 L-53.3 40.2" fill="#e8e8ee" fill-rule="evenodd" stroke="none"/>
    <path d="M-57.3 49.6 Q-57.35 49.7 -57.35 49.8 -57.4 49.9 -57.45 50.0 -57.5 50.1 -57.55 50.15 -57.6 50.2 -57.7 50.25 -57.75 50.3 -57.85 50.3 -57.9 50.35 -58.0 50.35 -58.1 50.4 -58.2 50.4 -58.3 50.4 -58.45 50.35 -58.5 50.35 -58.6 50.35 -58.65 50.35 -58.7 50.35 -58.8 50.35 -58.85 50.3 -58.9 50.3 -58.95 50.3 -59.0 50.25 -59.1 50.25 -59.15 50.2 -59.2 50.2 -59.25 50.15 -59.3 50.1 -59.35 50.1 -59.4 50.05 -59.45 50.0 -59.45 49.95 -59.5 49.9 -59.55 49.85 -59.55 49.8 -59.6 49.75 -59.6 49.75 -59.65 49.7 -59.65 49.65 -59.7 49.6 -59.7 49.55 -59.7 49.5 -59.7 49.45 -59.75 49.4 -59.75 49.3 -59.75 49.25 -59.75 48.55 -59.7 48.3 -59.7 48.2 -59.65 48.15 -59.6 48.05 -59.6 48.0 -59.55 47.95 -59.5 47.85 -59.45 47.8 -59.4 47.7 -59.4 47.65 -59.35 47.55 -59.3 47.5 -59.25 47.45 -59.2 47.35 -59.15 47.3 -59.15 47.2 -59.1 47.15 -58.9 46.8 -58.9 46.75 -58.9 46.75 -58.6 46.45 -58.4 46.25 -58.15 46.1 -57.95 45.9 -57.7 45.75 -57.5 45.6 -57.25 45.45 -57.05 45.3 -56.8 45.15 -56.6 45.0 -56.3 44.85 -55.5 44.4 -55.85 44.55 -55.55 44.4 -55.35 44.3 -55.1 44.1 -54.9 44.0 -54.9 44.0 -54.85 43.95 -54.85 44.05 -54.9 44.1 -54.9 44.1 -55.05 44.2 -55.2 44.35 -55.4 44.55 -55.55 44.75 -55.7 44.9 -55.85 45.1 -56.05 45.25 -56.2 45.45 -56.35 45.65 -56.5 45.85 -56.65 46.0 -56.8 46.2 -56.9 46.4 -57.05 46.6 -57.2 46.8 -57.35 47.0 -57.45 47.2 -57.5 47.25 -57.55 47.35 -57.6 47.4 -57.65 47.5 -57.7 47.55 -57.75 47.65 -57.8 47.7 -57.85 47.8 -57.9 47.85 -57.9 47.95 -57.95 48.0 -58.0 48.1 -58.05 48.2 -58.1 48.25 -58.15 48.35 -58.15 48.4 -58.15 48.45 -58.2 48.45 -58.2 48.5 -58.2 48.5 -58.2 48.55 -58.25 48.55 -58.25 48.6 -58.25 48.65 -58.25 48.65 -58.25 48.7 -58.25 48.7 -58.25 48.75 -58.25 48.75 -58.25 48.8 -58.2 48.85 -58.2 48.85 -58.2 48.9 -58.25 48.95 -58.25 49.0 -58.2 49.0 -58.2 49.05 -58.15 49.05 -58.05 49.1 -57.95 49.15 -57.75 49.25 -57.75 49.25 -57.65 49.3 -57.65 49.3 -57.6 49.35 -57.6 49.4 -57.6 49.45 -57.6 49.5 -57.6 49.55 -57.6 49.55 -57.6 49.6 -57.6 49.6 -57.55 49.65 -57.55 49.65 -57.5 49.65 -57.5 49.65 -57.45 49.65 -57.45 49.65 -57.4 49.65 -57.35 49.65 -57.35 49.65 -57.3 49.6 L-57.3 49.6" fill="#7c5390" fill-rule="evenodd" stroke="none"/>
    <path d="M-6.1 63.3 Q-6.05 63.3 -6.05 63.35 -6.05 63.35 -6.1 63.35 -6.1 63.35 -6.1 63.3 L-6.1 63.3" fill="#271a2d" fill-rule="evenodd" stroke="none"/>
    <path d="M-2.05 54.65 Q-2.05 54.65 -2.05 54.6 -2.0 54.6 -2.0 54.65 -2.0 54.65 -2.05 54.65 L-2.05 54.65" fill="#fcfcfc" fill-rule="evenodd" stroke="none"/>
    <path d="M-3.65 61.1 Q-3.5 61.05 -2.85 60.95 -1.9 60.85 -1.35 60.85 -0.15 60.9 0.6 61.0 0.6 61.0 0.65 61.05 -1.65 60.95 -2.3 61.0 -2.55 61.0 -2.95 61.05 -3.45 61.1 -3.65 61.1 L-3.65 61.1" fill="#e8e8ee" fill-rule="evenodd" stroke="none"/>
    <path d="M-50.45 31.0 Q-50.6 31.3 -51.1 31.95 -51.3 32.2 -51.5 32.45 -51.75 32.65 -51.95 32.9 -52.2 33.1 -52.45 33.3 -52.7 33.45 -52.95 33.65 -53.2 33.8 -53.45 33.95 -53.75 34.1 -54.0 34.25 -54.3 34.4 -54.6 34.5 -54.9 34.65 -55.2 34.75 -55.3 34.8 -55.45 34.8 -55.55 34.85 -55.65 34.85 -55.75 34.85 -55.9 34.85 -56.0 34.85 -56.1 34.8 -56.2 34.8 -56.35 34.75 -56.45 34.75 -56.55 34.7 -56.65 34.65 -56.75 34.6 -56.9 34.55 -57.0 34.5 -57.05 34.45 -57.1 34.4 -57.15 34.4 -57.2 34.35 -57.25 34.3 -57.25 34.25 -57.3 34.2 -57.35 34.1 -57.35 34.05 -57.35 34.0 -57.4 33.95 -57.4 33.85 -57.4 33.8 -57.4 33.75 -57.4 33.65 -57.35 33.6 -57.35 33.5 -57.3 33.4 -57.3 33.3 -57.25 33.2 -57.2 33.1 -57.2 33.0 -57.15 32.9 -57.1 32.8 -57.05 32.7 -57.0 32.6 -56.95 32.55 -56.9 32.45 -56.85 32.35 -56.75 32.25 -56.7 32.2 -56.65 32.1 -56.6 32.1 -56.6 32.05 -56.6 32.05 -56.6 32.05 -56.6 32.05 -56.6 32.05 -56.55 32.0 -56.5 32.0 -56.5 31.95 -56.45 31.9 -56.45 31.9 -56.4 31.85 -56.05 31.55 -55.9 31.4 -55.6 31.1 -55.6 31.1 -55.6 31.1 -55.6 31.1 -55.55 31.1 -55.5 31.05 -55.5 31.05 -55.5 31.05 -55.5 31.05 -55.5 31.05 -55.4 31.0 -55.45 31.05 -55.4 31.0 -55.4 31.0 -55.4 31.0 -55.4 31.0 -55.35 30.95 -55.35 30.95 -55.3 30.95 -55.3 30.95 -55.25 30.9 -55.25 30.9 -55.2 30.85 -55.2 30.8 -55.2 30.8 -55.2 30.75 -55.25 30.75 -55.25 30.7 -55.3 30.7 -55.3 30.7 -55.5 30.5 -55.85 30.2 -56.25 29.85 -56.45 29.65 -56.5 29.6 -56.55 29.55 -56.55 29.55 -56.6 29.5 -56.6 29.45 -56.65 29.4 -56.65 29.35 -56.65 29.3 -56.65 29.25 -56.65 29.2 -56.65 29.15 -56.65 29.1 -56.65 29.05 -56.65 29.0 -56.6 28.95 -56.6 28.9 -56.6 28.85 -56.55 28.85 -56.55 28.8 -56.5 28.75 -56.5 28.75 -56.45 28.7 -56.35 28.65 -56.3 28.6 -56.2 28.6 -56.1 28.55 -56.05 28.55 -55.95 28.5 -55.85 28.5 -55.75 28.45 -55.65 28.45 -55.55 28.45 -55.5 28.45 -55.4 28.45 -55.3 28.45 -55.2 28.45 -55.1 28.45 -55.0 28.45 -54.9 28.5 -54.15 28.7 -53.65 28.85 -53.3 29.0 -53.1 29.1 -52.9 29.15 -52.7 29.25 -52.5 29.35 -52.3 29.45 -52.1 29.55 -51.9 29.65 -51.75 29.8 -51.55 29.9 -51.4 30.0 -51.2 30.15 -51.05 30.3 -50.9 30.45 -50.75 30.6 -50.6 30.8 -50.45 31.0 L-50.45 31.0" fill="#d762fe" fill-rule="evenodd" stroke="none"/>
    <path d="M-55.6 31.1 Q-55.6 31.15 -55.65 31.25 -55.7 31.25 -55.8 31.3 -55.85 31.35 -55.9 31.4 -55.95 31.45 -56.4 31.85 -56.4 31.7 -56.35 31.7 -57.25 32.65 -56.25 31.6 -56.2 31.55 -56.2 31.5 -56.15 31.45 -56.1 31.45 -56.05 31.4 -56.0 31.35 -55.95 31.3 -55.9 31.25 -55.85 31.25 -55.8 31.2 -55.75 31.15 -55.7 31.15 -55.65 31.1 -55.6 31.1 L-55.6 31.1" fill="#fcfcfc" fill-rule="evenodd" stroke="none"/>
    <path d="M-55.4 31.0 Q-55.4 31.0 -55.5 31.05 -55.45 31.0 -55.4 31.0 L-55.4 31.0" fill="#fcfcfc" fill-rule="evenodd" stroke="none"/>
    <path d="M-55.5 31.05 Q-55.55 31.1 -55.6 31.1 -55.55 31.05 -55.5 31.05 L-55.5 31.05" fill="#fcfcfc" fill-rule="evenodd" stroke="none"/>
    <path d="M-56.5 32.0 Q-56.55 32.0 -56.6 32.05 -56.55 32.0 -56.5 32.0 L-56.5 32.0" fill="#fcfcfc" fill-rule="evenodd" stroke="none"/>
    <path d="M-55.35 30.95 Q-55.35 30.95 -55.4 31.0 -55.35 30.95 -55.35 30.95 L-55.35 30.95" fill="#fcfcfc" fill-rule="evenodd" stroke="none"/>
    <path d="M-56.6 32.05 Q-56.6 32.05 -56.65 32.1 -56.6 32.1 -56.6 32.05 L-56.6 32.05" fill="#fcfcfc" fill-rule="evenodd" stroke="none"/>
    <path d="M-53.1 54.85 Q-53.1 54.95 -53.1 55.0 -53.1 55.05 -53.1 55.15 -53.1 55.2 -53.1 55.25 -53.15 55.3 -53.15 55.35 -53.2 55.4 -53.2 55.4 -53.25 55.45 -53.3 55.5 -53.35 55.55 -53.45 55.55 -53.5 55.6 -53.55 55.6 -53.65 55.65 -53.8 55.65 -53.9 55.7 -54.0 55.7 -54.15 55.75 -54.25 55.75 -54.35 55.75 -54.45 55.75 -54.6 55.75 -54.7 55.7 -54.8 55.7 -54.9 55.65 -55.0 55.6 -55.1 55.5 -55.2 55.45 -55.3 55.35 -55.35 55.3 -55.4 55.25 -55.45 55.2 -55.45 55.15 -55.5 55.1 -55.55 55.05 -55.6 55.0 -55.65 54.95 -55.65 54.9 -55.7 54.8 -55.75 54.75 -55.75 54.7 -55.8 54.65 -55.85 54.6 -55.85 54.55 -55.9 54.5 -55.9 54.45 -55.95 54.4 -55.95 54.35 -56.0 54.35 -56.0 54.3 -56.0 54.25 -56.05 54.2 -56.05 54.2 -56.1 54.15 -56.1 54.1 -56.1 54.1 -56.1 53.95 -56.15 53.9 -56.15 53.85 -56.15 52.75 -56.2 52.35 -56.2 52.3 -56.2 52.2 -56.2 52.15 -56.2 52.1 -56.2 52.0 -56.2 51.95 -56.2 51.9 -56.15 51.85 -56.15 51.8 -56.15 51.7 -56.15 51.65 -56.1 51.6 -56.1 51.55 -56.05 51.45 -56.05 51.4 -56.0 51.35 -56.0 51.3 -55.95 51.15 -55.9 51.05 -55.9 50.95 -55.75 50.75 -55.4 49.35 -55.35 49.2 -55.3 49.05 -55.25 48.9 -55.2 48.8 -55.15 48.65 -55.1 48.5 -55.05 48.35 -55.0 48.25 -54.95 48.1 -54.85 47.95 -54.8 47.8 -54.75 47.7 -54.65 47.55 -54.6 47.45 -54.5 47.3 -54.4 47.2 -54.3 47.1 -54.25 47.0 -54.15 46.9 -54.05 46.8 -54.0 46.7 -53.9 46.65 -53.8 46.55 -53.7 46.5 -53.6 46.4 -53.5 46.35 -53.35 46.3 -53.25 46.25 -53.15 46.2 -53.0 46.2 -52.9 46.15 -52.75 46.15 -52.7 46.15 -52.65 46.1 -52.65 46.1 -52.6 46.1 -52.55 46.1 -52.55 46.15 -52.5 46.2 -52.55 46.25 -52.45 46.1 -52.6 46.35 -52.75 46.55 -52.9 46.75 -53.05 47.0 -53.15 47.2 -53.3 47.45 -53.4 47.65 -53.55 47.9 -53.65 48.1 -53.75 48.35 -53.85 48.6 -53.95 48.8 -54.0 49.05 -54.1 49.3 -54.15 49.55 -54.2 49.8 -54.25 50.05 -54.3 50.2 -54.3 50.4 -54.35 50.55 -54.35 50.75 -54.4 50.9 -54.4 51.05 -54.4 51.25 -54.4 51.4 -54.45 51.6 -54.45 51.75 -54.45 51.9 -54.45 52.1 -54.45 52.25 -54.45 52.45 -54.45 52.6 -54.4 52.8 -54.4 52.95 -54.4 53.05 -54.35 53.2 -54.35 53.3 -54.3 53.45 -54.25 53.55 -54.2 53.65 -54.15 53.8 -54.1 53.9 -54.05 54.05 -54.05 53.95 -53.95 54.25 -53.85 54.4 -53.8 54.5 -53.75 54.6 -53.7 54.75 -53.7 54.8 -53.4 55.0 -53.35 55.05 -53.35 55.0 -53.35 55.0 -53.35 55.0 -53.3 55.0 -53.3 54.95 -53.3 54.95 -53.3 54.95 -53.25 54.95 -53.2 54.95 -53.2 54.95 -53.15 54.9 -53.15 54.85 -53.1 54.85 L-53.1 54.85" fill="#7b5290" fill-rule="evenodd" stroke="none"/>
    <path d="M-49.8 41.25 Q-49.75 41.3 -49.75 41.3 -49.7 41.35 -49.7 41.4 -49.65 41.45 -49.65 41.45 -49.6 41.5 -49.6 41.55 -49.55 41.6 -49.55 41.65 -49.6 41.65 -49.65 41.65 -49.75 41.65 -49.8 41.65 -49.85 41.6 -49.9 41.6 -49.95 41.6 -50.0 41.6 -50.05 41.55 -50.1 41.55 -50.2 41.55 -50.25 41.5 -50.3 41.5 -50.35 41.45 -50.4 41.4 -50.45 41.4 -50.2 41.35 -49.8 41.25 L-49.8 41.25" fill="#fcfcfc" fill-rule="evenodd" stroke="none"/>
    <path d="M-45.65 47.05 Q-45.65 47.05 -45.65 47.0 -45.65 47.0 -45.65 47.0 -45.6 46.95 -45.6 47.0 -45.6 47.0 -45.65 47.05 L-45.65 47.05" fill="#fefefe" fill-rule="evenodd" stroke="none"/>
    <path d="M-53.1 54.85 Q-53.15 54.85 -53.15 54.9 -53.2 54.95 -53.2 54.95 -53.25 54.95 -53.3 54.95 -53.2 54.7 -52.7 54.0 -52.7 54.1 -53.1 54.85 L-53.1 54.85" fill="#271a2d" fill-rule="evenodd" stroke="none"/>
    <path d="M-53.3 54.95 Q-53.3 55.0 -53.35 55.0 -53.35 55.0 -53.3 54.95 L-53.3 54.95" fill="#271a2d" fill-rule="evenodd" stroke="none"/>
    <path d="M-53.35 55.0 Q-53.35 55.05 -53.4 55.0 -53.4 55.0 -53.35 55.0 L-53.35 55.0" fill="#271a2d" fill-rule="evenodd" stroke="none"/>
    <path d="M-3.65 52.6 Q-3.7 52.6 -3.75 52.6 -3.75 52.55 -3.8 52.5 -3.8 52.5 -3.8 52.45 -3.85 52.4 -3.85 52.35 -3.8 52.4 -3.8 52.4 -3.75 52.45 -3.7 52.45 -3.7 52.5 -3.65 52.55 -3.65 52.55 -3.65 52.6 L-3.65 52.6" fill="#fcfcfc" fill-rule="evenodd" stroke="none"/>
    <path d="M-3.4 52.85 Q-3.45 52.85 -3.5 52.85 -3.55 52.8 -3.55 52.8 -3.6 52.8 -3.6 52.75 -3.6 52.7 -3.6 52.7 -3.65 52.65 -3.65 52.6 -3.6 52.6 -3.55 52.65 -3.55 52.7 -3.5 52.7 -3.5 52.75 -3.45 52.8 -3.45 52.8 -3.4 52.85 L-3.4 52.85" fill="#fcfcfc" fill-rule="evenodd" stroke="none"/>
    <path d="M-3.0 53.35 Q-3.05 53.35 -3.1 53.35 -3.15 53.3 -3.15 53.3 -3.15 53.25 -3.2 53.25 -3.2 53.2 -3.2 53.15 -3.15 53.15 -3.1 53.2 -3.1 53.25 -3.05 53.25 -3.05 53.3 -3.0 53.35 L-3.0 53.35" fill="#fcfcfc" fill-rule="evenodd" stroke="none"/>
    <path d="M-3.2 53.1 Q-3.25 53.1 -3.3 53.1 -3.35 53.05 -3.35 53.05 -3.35 53.0 -3.4 53.0 -3.4 52.95 -3.4 52.9 -3.35 52.9 -3.3 52.95 -3.3 53.0 -3.25 53.0 -3.25 53.05 -3.2 53.1 L-3.2 53.1" fill="#fcfcfc" fill-rule="evenodd" stroke="none"/>
    <path d="M-3.9 52.25 Q-3.95 52.25 -4.0 52.25 -4.05 52.2 -4.05 52.2 -4.1 52.15 -4.1 52.1 -4.0 52.1 -4.0 52.15 -3.95 52.15 -3.9 52.25 L-3.9 52.25" fill="#fcfcfc" fill-rule="evenodd" stroke="none"/>
    <path d="M-2.8 53.6 Q-2.95 53.6 -2.95 53.5 -2.9 53.5 -2.85 53.55 -2.85 53.55 -2.8 53.6 L-2.8 53.6" fill="#fcfcfc" fill-rule="evenodd" stroke="none"/>
    <path d="M-2.6 53.85 Q-2.75 53.85 -2.75 53.75 -2.7 53.75 -2.65 53.8 -2.65 53.8 -2.6 53.85 L-2.6 53.85" fill="#fcfcfc" fill-rule="evenodd" stroke="none"/>
    <path d="M-2.75 53.75 Q-2.75 53.75 -2.75 53.7 -2.8 53.7 -2.8 53.65 -2.7 53.7 -2.75 53.75 L-2.75 53.75" fill="#fcfcfc" fill-rule="evenodd" stroke="none"/>
    <path d="M-4.1 52.1 Q-4.1 52.1 -4.1 52.05 -4.15 52.05 -4.15 52.0 -4.05 52.05 -4.1 52.1 L-4.1 52.1" fill="#fcfcfc" fill-rule="evenodd" stroke="none"/>
    <path d="M-2.35 54.25 Q-2.35 54.25 -2.35 54.2 -2.4 54.2 -2.4 54.15 -2.3 54.2 -2.35 54.25 L-2.35 54.25" fill="#fcfcfc" fill-rule="evenodd" stroke="none"/>
    <path d="M-2.55 54.0 Q-2.55 54.0 -2.55 53.95 -2.6 53.95 -2.6 53.9 -2.5 53.95 -2.55 54.0 L-2.55 54.0" fill="#fcfcfc" fill-rule="evenodd" stroke="none"/>
    <path d="M-2.15 54.5 Q-2.2 54.45 -2.2 54.4 -2.1 54.45 -2.15 54.5 L-2.15 54.5" fill="#fcfcfc" fill-rule="evenodd" stroke="none"/>
    <path d="M-4.4 51.75 Q-4.45 51.75 -4.45 51.65 -4.35 51.7 -4.4 51.75 L-4.4 51.75" fill="#fcfcfc" fill-rule="evenodd" stroke="none"/>
    <path d="M-2.95 53.5 Q-2.95 53.5 -3.0 53.45 -3.0 53.45 -3.0 53.4 -2.9 53.45 -2.95 53.5 L-2.95 53.5" fill="#fcfcfc" fill-rule="evenodd" stroke="none"/>
    <path d="M-4.35 51.8 Q-4.35 51.8 -4.4 51.75 -4.35 51.75 -4.35 51.8 L-4.35 51.8" fill="#fcfcfc" fill-rule="evenodd" stroke="none"/>
    <path d="M-4.3 51.85 Q-4.3 51.85 -4.35 51.8 -4.3 51.8 -4.3 51.85 L-4.3 51.85" fill="#fcfcfc" fill-rule="evenodd" stroke="none"/>
    <path d="M-4.2 51.9 Q-4.25 51.9 -4.3 51.85 -4.25 51.85 -4.2 51.9 L-4.2 51.9" fill="#fcfcfc" fill-rule="evenodd" stroke="none"/>
    <path d="M-2.3 54.3 Q-2.3 54.3 -2.35 54.25 -2.3 54.25 -2.3 54.3 L-2.3 54.3" fill="#fcfcfc" fill-rule="evenodd" stroke="none"/>
    <path d="M-2.25 54.35 Q-2.25 54.35 -2.3 54.3 -2.25 54.3 -2.25 54.35 L-2.25 54.35" fill="#fcfcfc" fill-rule="evenodd" stroke="none"/>
    <path d="M-2.2 54.4 Q-2.2 54.4 -2.25 54.35 -2.2 54.35 -2.2 54.4 L-2.2 54.4" fill="#fcfcfc" fill-rule="evenodd" stroke="none"/>
    <path d="M-2.1 54.55 Q-2.1 54.55 -2.15 54.5 -2.1 54.5 -2.1 54.55 L-2.1 54.55" fill="#fcfcfc" fill-rule="evenodd" stroke="none"/>
    <path d="M-2.05 54.6 Q-2.05 54.6 -2.1 54.55 -2.05 54.55 -2.05 54.6 L-2.05 54.6" fill="#fcfcfc" fill-rule="evenodd" stroke="none"/>
    <path d="M-2.5 54.05 Q-2.5 54.05 -2.55 54.0 -2.5 54.0 -2.5 54.05 L-2.5 54.05" fill="#fcfcfc" fill-rule="evenodd" stroke="none"/>
    <path d="M-4.5 51.6 Q-4.5 51.6 -4.55 51.55 -4.5 51.55 -4.5 51.6 L-4.5 51.6" fill="#fcfcfc" fill-rule="evenodd" stroke="none"/>
    <path d="M-2.4 54.1 Q-2.45 54.1 -2.5 54.05 -2.45 54.05 -2.4 54.1 L-2.4 54.1" fill="#fcfcfc" fill-rule="evenodd" stroke="none"/>
    <path d="M-54.1 39.05 Q-54.15 39.05 -54.15 39.0 -54.2 38.95 -54.2 38.95 -54.2 38.9 -54.2 38.85 -54.25 38.8 -54.25 38.75 -54.2 38.8 -54.2 38.8 -54.15 38.85 -54.1 38.9 -54.1 38.95 -54.1 39.0 -54.1 39.0 -54.1 39.05 L-54.1 39.05" fill="#fefefe" fill-rule="evenodd" stroke="none"/>
    <path d="M-54.25 38.75 Q-54.3 38.75 -54.3 38.7 -54.35 38.7 -54.35 38.65 -54.35 38.6 -54.35 38.55 -54.3 38.6 -54.3 38.6 -54.25 38.65 -54.25 38.7 -54.25 38.75 -54.25 38.75 L-54.25 38.75" fill="#fefefe" fill-rule="evenodd" stroke="none"/>
    <path d="M-53.65 39.7 Q-53.7 39.7 -53.75 39.65 -53.75 39.65 -53.75 39.55 -53.7 39.6 -53.65 39.6 -53.65 39.65 -53.65 39.7 L-53.65 39.7" fill="#fefefe" fill-rule="evenodd" stroke="none"/>
    <path d="M-53.5 39.95 Q-53.55 39.95 -53.55 39.9 -53.6 39.85 -53.6 39.8 -53.55 39.8 -53.5 39.85 -53.5 39.85 -53.5 39.9 -53.5 39.95 -53.5 39.95 L-53.5 39.95" fill="#fefefe" fill-rule="evenodd" stroke="none"/>
    <path d="M-54.0 39.2 Q-54.05 39.2 -54.05 39.15 -54.1 39.15 -54.1 39.05 -54.05 39.05 -54.0 39.1 -54.0 39.1 -54.0 39.15 -54.0 39.2 -54.0 39.2 L-54.0 39.2" fill="#fefefe" fill-rule="evenodd" stroke="none"/>
    <path d="M-53.9 39.3 Q-54.0 39.35 -54.0 39.2 -53.95 39.2 -53.9 39.25 -53.9 39.25 -53.9 39.3 L-53.9 39.3" fill="#fefefe" fill-rule="evenodd" stroke="none"/>
    <path d="M-54.35 38.55 Q-54.3 38.6 -54.4 38.5 -54.4 38.5 -54.4 38.45 -54.35 38.5 -54.35 38.55 L-54.35 38.55" fill="#fefefe" fill-rule="evenodd" stroke="none"/>
    <path d="M-53.6 39.8 Q-53.65 39.8 -53.65 39.7 -53.55 39.75 -53.6 39.8 L-53.6 39.8" fill="#fefefe" fill-rule="evenodd" stroke="none"/>
    <path d="M-53.3 40.2 Q-53.35 40.2 -53.35 40.15 -53.35 40.1 -53.35 40.1 -53.35 40.15 -53.3 40.2 L-53.3 40.2" fill="#fefefe" fill-rule="evenodd" stroke="none"/>
    <path d="M-53.4 40.05 Q-53.4 40.05 -53.45 40.0 -53.4 40.05 -53.4 40.05 L-53.4 40.05" fill="#fefefe" fill-rule="evenodd" stroke="none"/>
    <path d="M-53.45 40.0 Q-53.45 40.0 -53.5 39.95 -53.45 39.95 -53.45 40.0 L-53.45 40.0" fill="#fefefe" fill-rule="evenodd" stroke="none"/>
    <path d="M-79.35 80.8 Q-79.4 80.8 -79.4 80.8 -79.45 80.75 -79.45 80.75 -79.35 80.75 -79.35 80.8 L-79.35 80.8" fill="#d762fe" fill-rule="evenodd" stroke="none"/>
  </g>
</svg>
