<?xml version="1.0" encoding="UTF-8" standalone="no"?>
<svg xmlns:xlink="http://www.w3.org/1999/xlink" height="200.0px" width="200.0px" xmlns="http://www.w3.org/2000/svg">
  <g transform="matrix(1.0, 0.0, 0.0, 1.0, 100.0, 100.0)">
    <path d="M-55.4 5.75 Q-54.6 6.65 -53.8 7.55 -53.05 8.35 -52.25 9.15 -51.5 9.9 -50.7 10.6 -50.0 11.25 -49.25 11.85 -48.55 12.45 -47.85 13.0 -47.2 13.5 -46.5 13.95 -45.9 14.4 -45.25 14.8 -44.65 15.2 -44.1 15.55 -43.55 15.85 -37.8 19.1 -31.1 22.9 -29.45 23.85 -22.1 27.95 -7.7 34.0 -8.45 34.1 -9.2 34.2 -9.95 34.3 -10.7 34.4 -11.5 34.5 -12.25 34.6 -13.05 34.7 -13.85 34.8 -14.65 34.85 -15.45 34.95 -16.25 35.0 -17.1 35.1 -17.9 35.15 -18.75 35.2 -19.6 35.25 -20.4 35.3 -21.8 35.4 -23.15 35.45 -24.5 35.5 -25.85 35.55 -27.15 35.55 -28.5 35.6 -29.75 35.6 -31.05 35.55 -32.3 35.55 -33.55 35.55 -34.75 35.5 -36.0 35.45 -37.15 35.4 -38.35 35.3 -39.5 35.25 -40.65 35.15 -40.3 35.45 -39.9 35.75 -39.5 36.05 -39.1 36.35 -38.65 36.65 -38.25 36.95 -37.75 37.3 -37.3 37.6 -36.8 37.95 -36.3 38.3 -35.8 38.65 -35.25 39.0 -34.7 39.35 -34.15 39.65 -33.55 40.05 -32.95 40.35 -32.55 40.6 -32.1 40.85 -31.5 41.2 -30.85 41.5 -30.1 41.95 -29.25 42.35 -28.35 42.8 -27.35 43.25 -26.25 43.75 -25.1 44.2 -23.85 44.75 -22.6 45.2 -21.2 45.75 -19.8 46.2 -18.25 46.7 -16.7 47.15 -15.4 47.5 -14.05 47.85 -12.8 48.15 -11.5 48.4 -10.25 48.7 -9.0 48.9 -7.8 49.1 -6.6 49.25 -5.45 49.45 -4.25 49.55 -3.15 49.65 -2.05 49.75 -0.95 49.85 0.1 49.9 1.1 49.95 2.15 49.95 0.5 50.65 -0.95 51.2 -1.5 51.4 -2.05 51.6 -2.6 51.8 -3.15 52.0 -3.65 52.2 -4.2 52.35 -4.75 52.55 -5.25 52.7 -5.8 52.85 -6.3 53.0 -6.8 53.15 -7.3 53.3 -7.85 53.4 -8.35 53.55 -8.8 53.65 -9.3 53.8 -9.0 53.95 -8.7 54.1 -8.4 54.25 -8.05 54.4 -7.7 54.55 -7.35 54.75 -7.0 54.9 -6.6 55.05 -6.2 55.25 -5.8 55.45 -5.35 55.6 -4.9 55.8 -4.45 56.0 -4.0 56.2 -3.5 56.4 -3.05 56.55 -2.05 56.95 -1.5 57.15 -0.65 57.5 0.05 57.75 0.9 58.1 1.7 58.35 2.55 58.65 3.35 58.9 4.25 59.15 5.1 59.4 6.0 59.6 6.9 59.8 7.85 60.0 8.8 60.15 9.8 60.35 10.85 60.45 11.4 60.5 11.95 60.55 12.6 60.6 13.2 60.6 13.9 60.65 14.55 60.65 15.3 60.65 16.05 60.65 16.85 60.6 17.65 60.55 18.5 60.45 19.35 60.35 20.25 60.25 21.15 60.1 22.1 59.95 23.05 59.75 22.65 60.1 22.3 60.45 21.9 60.8 21.55 61.15 21.15 61.5 20.75 61.8 20.35 62.15 19.95 62.5 19.55 62.85 19.15 63.2 18.75 63.55 18.35 63.9 17.95 64.25 17.55 64.6 17.1 64.95 16.7 65.3 16.45 65.5 16.2 65.7 15.95 65.9 15.7 66.1 15.45 66.35 15.2 66.55 14.95 66.75 14.7 66.95 14.45 67.15 14.2 67.35 13.95 67.5 13.7 67.7 13.45 67.9 13.2 68.1 12.95 68.3 12.7 68.5 12.85 68.6 13.0 68.65 13.2 68.75 13.4 68.8 13.6 68.9 13.75 68.95 14.0 69.05 14.2 69.1 14.45 69.2 14.65 69.3 14.9 69.35 15.15 69.45 15.4 69.55 15.65 69.6 15.95 69.7 16.25 69.75 17.05 69.95 17.85 70.05 18.6 70.15 19.35 70.2 20.1 70.25 20.85 70.2 21.55 70.2 22.25 70.15 22.95 70.05 23.7 69.95 24.35 69.85 25.1 69.65 25.7 69.55 26.45 69.35 27.0 69.25 27.85 69.0 28.3 68.9 28.75 68.8 29.2 68.65 29.7 68.5 30.2 68.35 30.75 68.2 31.3 68.0 31.85 67.85 32.4 67.6 33.0 67.4 33.6 67.15 34.2 66.9 34.8 66.65 35.4 66.4 36.05 66.1 36.7 65.75 36.15 67.0 34.95 69.5 35.15 69.5 35.3 69.5 35.45 69.5 35.65 69.5 35.85 69.5 36.05 69.5 36.25 69.5 36.45 69.5 36.7 69.5 36.9 69.5 37.15 69.5 37.4 69.5 37.65 69.45 37.9 69.45 38.15 69.45 38.4 69.4 38.85 69.35 39.1 69.3 39.55 69.25 39.95 69.2 40.45 69.15 40.95 69.05 41.55 68.9 42.05 68.75 42.7 68.6 43.3 68.4 43.95 68.2 44.55 67.9 45.2 67.65 45.85 67.3 46.55 66.9 47.15 66.5 47.9 66.0 48.65 65.35 49.3 64.8 49.95 64.15 50.5 63.55 51.0 62.9 51.5 62.3 51.95 61.65 52.3 61.1 52.65 60.55 52.95 60.05 53.2 59.55 53.4 59.2 53.6 58.8 53.7 58.6 53.85 58.35 53.9 58.2 54.0 58.0 54.1 57.75 54.15 57.7 54.2 57.5 54.3 57.35 54.35 57.15 54.45 57.0 54.55 56.8 54.6 56.65 54.7 56.45 54.85 56.25 54.95 56.05 55.1 55.85 55.2 55.65 55.35 55.4 55.6 55.05 55.85 54.75 56.05 54.5 56.3 54.25 56.5 54.05 56.7 53.85 57.45 53.1 57.1 53.45 57.3 53.25 57.45 53.1 57.6 52.95 57.75 52.75 57.9 52.55 58.0 52.3 58.15 52.1 58.25 51.8 58.35 51.6 58.4 51.35 58.45 51.2 58.45 51.0 58.5 50.85 58.55 50.65 58.55 50.45 58.6 50.35 58.6 50.15 58.65 50.05 58.7 49.9 58.75 49.75 58.8 49.65 58.9 49.5 59.0 49.35 59.1 49.2 59.25 49.05 59.4 48.95 59.5 48.85 59.65 48.8 59.75 48.75 59.9 48.7 60.0 48.65 60.15 48.6 60.3 48.55 60.35 48.55 60.5 48.5 60.6 48.45 60.7 48.4 60.8 48.3 60.95 48.25 61.05 48.1 61.2 47.95 61.3 47.75 61.35 47.6 61.4 47.35 61.45 47.2 61.45 46.95 61.45 46.75 61.45 46.45 61.45 47.25 61.4 45.9 61.4 45.55 61.4 45.25 61.4 44.9 61.4 44.5 61.45 44.1 61.5 43.65 61.55 43.45 61.55 43.25 61.6 43.1 61.65 42.95 61.65 42.85 61.7 42.75 61.75 42.65 61.75 42.5 61.85 42.3 61.85 42.3 61.9 42.15 61.95 42.05 61.95 41.9 62.0 41.75 62.05 41.55 62.1 41.35 62.15 41.15 62.15 40.95 62.2 40.7 62.25 40.5 62.25 40.2 62.25 39.95 62.3 39.65 62.3 39.3 62.25 38.95 62.25 38.5 62.25 38.1 62.2 37.6 62.15 37.1 62.05 36.5 62.0 35.9 61.85 35.25 61.3 31.55 60.9 30.2 60.65 29.45 60.35 28.75 60.05 28.1 59.7 27.45 59.35 26.85 58.95 26.25 58.6 25.7 58.2 25.15 57.8 24.65 57.35 24.15 56.95 23.7 56.5 23.2 56.1 22.8 55.65 22.3 55.3 22.0 54.8 21.5 54.15 20.85 53.5 20.3 52.95 19.85 52.35 19.4 51.95 19.1 51.4 18.7 51.8 19.0 50.55 18.1 50.05 17.8 49.75 17.55 49.3 17.2 48.95 16.9 48.55 16.5 48.15 16.05 47.7 15.6 47.25 15.0 46.55 14.05 44.2 10.6 44.0 10.35 43.85 10.05 43.65 9.8 43.5 9.55 43.3 9.3 43.15 9.05 43.0 8.85 42.85 8.6 42.7 8.4 42.55 8.15 42.45 8.0 42.3 7.8 42.2 7.6 42.05 7.4 41.95 7.25 41.85 7.1 41.65 9.75 41.25 15.05 41.15 15.05 41.1 15.05 41.0 15.0 40.95 15.0 40.85 15.0 40.75 14.95 40.65 14.95 40.55 14.95 40.45 14.9 40.35 14.85 40.25 14.85 40.15 14.8 40.05 14.75 39.9 14.7 39.8 14.65 39.7 14.6 39.5 14.5 39.3 14.35 39.1 14.25 38.9 14.1 38.75 13.95 38.6 13.8 38.5 13.65 38.35 13.5 38.25 13.4 38.1 13.15 37.9 12.95 37.8 12.85 37.65 12.65 37.5 12.5 37.35 12.35 37.15 12.2 37.05 12.1 36.95 12.05 36.85 11.95 36.75 11.85 36.65 11.8 36.5 11.7 36.35 11.6 36.2 11.55 36.05 11.45 35.85 11.35 35.65 11.3 35.4 11.2 35.2 11.1 34.9 11.0 34.65 10.9 34.3 10.8 32.25 10.15 29.2 9.55 22.15 8.15 24.6 8.65 23.75 8.45 23.0 8.3 22.35 8.1 21.7 7.9 21.2 7.75 20.6 7.55 20.35 7.45 19.6 7.15 18.95 6.95 18.5 6.8 17.9 6.55 17.3 6.4 16.55 6.15 15.75 5.95 14.9 5.75 13.85 5.5 13.45 5.4 13.05 5.35 12.7 5.3 12.35 5.2 12.0 5.15 11.65 5.1 11.3 5.05 10.95 5.0 10.65 4.95 10.35 4.9 10.05 4.85 9.8 4.8 9.5 4.8 9.25 4.75 9.05 4.7 8.8 4.7 8.8 4.8 8.75 4.9 8.75 4.95 8.7 5.05 8.65 5.1 8.65 5.15 8.6 5.2 8.6 5.25 8.55 5.3 8.5 5.35 8.5 5.35 8.45 5.4 8.45 5.4 8.4 5.4 8.35 5.45 8.35 5.45 8.2 5.5 8.05 5.45 7.9 5.4 7.7 5.25 7.55 5.1 7.3 4.85 7.15 4.7 6.85 4.35 6.5 3.9 6.35 3.75 6.05 3.4 5.75 3.1 5.4 2.75 5.05 2.45 4.7 2.1 4.3 1.8 4.1 1.65 3.9 1.55 3.7 1.4 3.5 1.3 3.3 1.2 3.1 1.1 2.9 1.0 2.65 0.95 2.45 0.85 2.2 0.75 2.0 0.7 1.7 0.6 1.5 0.55 1.2 0.45 1.0 0.4 0.6 0.3 -7.35 -2.05 -8.7 -2.35 -11.1 -2.9 -20.45 -6.25 -21.35 -6.55 -22.05 -6.8 -23.0 -7.15 -23.85 -7.45 -24.8 -7.8 -25.75 -8.15 -26.8 -8.55 -27.8 -8.9 -28.9 -9.35 -29.95 -9.75 -31.15 -10.2 -32.3 -10.7 -33.5 -11.2 -34.7 -11.7 -36.0 -12.25 -37.25 -12.8 -38.25 -13.25 -39.25 -13.7 -40.35 -14.2 -41.4 -14.7 -42.55 -15.25 -43.65 -15.8 -44.85 -16.35 -46.0 -16.95 -47.25 -17.6 -48.5 -18.2 -49.8 -18.9 -51.05 -19.6 -52.4 -20.3 -53.7 -21.05 -55.1 -21.85 -56.45 -22.6 -56.1 -21.95 -55.7 -21.35 -55.25 -20.7 -54.8 -20.0 -54.35 -19.25 -53.8 -18.55 -53.25 -17.75 -52.7 -17.0 -52.05 -16.15 -51.45 -15.35 -50.75 -14.5 -50.0 -13.7 -49.25 -12.85 -48.45 -12.0 -47.65 -11.1 -46.75 -10.25 -46.2 -9.7 -45.7 -9.25 -45.15 -8.75 -44.65 -8.3 -44.15 -7.85 -43.6 -7.4 -43.1 -7.0 -42.55 -6.55 -42.05 -6.15 -41.45 -5.65 -40.95 -5.25 -40.25 -4.75 -39.9 -4.5 -38.95 -3.75 -38.05 -3.05 -37.5 -2.65 -36.75 -2.05 -36.0 -1.5 -35.2 -0.85 -34.4 -0.25 -33.5 0.45 -32.65 1.15 -31.65 1.9 -30.75 2.7 -29.7 3.5 -28.7 4.3 -27.6 5.2 -26.55 6.05 -25.4 7.0 -24.3 7.95 -23.1 8.95 -21.9 9.95 -28.2 9.5 -33.3 9.0 -39.1 8.45 -43.5 7.8 -44.1 7.7 -44.7 7.65 -45.35 7.55 -46.0 7.45 -46.7 7.35 -47.4 7.2 -48.1 7.1 -48.85 7.0 -49.6 6.85 -50.4 6.7 -51.2 6.6 -52.0 6.45 -52.85 6.25 -53.65 6.1 -54.55 5.95 -55.4 5.75 L-55.4 5.75" fill="#8c448c" fill-rule="evenodd" stroke="none"/>
  </g>
</svg>
