<?xml version="1.0" encoding="UTF-8" standalone="no"?>
<svg xmlns:xlink="http://www.w3.org/1999/xlink" height="233.25px" width="255.6px" xmlns="http://www.w3.org/2000/svg">
  <g transform="matrix(1.0, 0.0, 0.0, 1.0, 150.0, 150.0)">
    <path d="M101.7 68.05 Q101.55 68.25 101.4 68.45 101.2 68.65 101.05 68.85 100.9 69.05 100.7 69.25 100.55 69.45 100.4 69.65 100.2 69.85 100.0 70.05 99.85 70.25 99.65 70.45 99.45 70.65 99.3 70.85 99.1 71.05 98.9 71.25 98.0 72.2 97.05 73.05 96.15 73.9 95.15 74.7 94.25 75.45 93.25 76.15 92.35 76.8 91.4 77.45 90.45 78.0 89.5 78.55 88.6 79.05 87.7 79.55 86.85 80.0 85.95 80.4 85.15 80.75 84.3 81.1 86.9 77.95 92.2 71.65 92.0 71.75 91.8 71.85 91.55 71.95 91.35 72.05 91.15 72.15 90.9 72.25 90.7 72.35 90.45 72.45 90.25 72.55 90.0 72.65 89.75 72.75 89.55 72.85 89.3 72.95 89.05 73.05 88.8 73.15 88.55 73.25 87.85 73.5 87.15 73.75 86.45 74.0 85.8 74.2 85.1 74.4 84.45 74.6 83.8 74.75 83.15 74.9 82.5 75.05 81.85 75.15 81.25 75.3 80.65 75.4 80.05 75.5 79.45 75.55 78.9 75.65 78.3 75.7 82.8 72.75 91.8 66.85 89.2 67.4 86.8 67.9 85.85 68.1 84.9 68.25 83.9 68.45 83.0 68.6 82.05 68.75 81.1 68.95 80.15 69.1 79.2 69.25 78.3 69.4 77.35 69.55 76.4 69.7 75.5 69.85 74.6 69.95 73.65 70.1 72.75 70.25 71.85 70.35 78.5 67.25 91.6 61.05 88.25 61.5 86.9 61.65 79.55 62.45 75.3 62.4 74.75 62.4 74.25 62.35 73.65 62.35 73.05 62.3 72.45 62.25 71.8 62.2 71.15 62.15 70.5 62.1 69.8 62.0 69.1 61.95 68.35 61.85 67.6 61.7 66.85 61.6 66.05 61.45 65.25 61.3 64.45 61.15 70.8 59.65 83.55 56.7 83.45 56.1 83.45 55.95 L83.45 55.95 Q83.45 55.8 83.45 55.8 81.75 56.05 80.9 56.15 79.45 56.35 77.95 56.45 76.5 56.55 75.05 56.55 73.7 56.55 72.25 56.5 70.9 56.45 69.55 56.35 68.25 56.2 66.9 56.0 65.65 55.85 64.35 55.6 63.15 55.35 61.9 55.05 60.75 54.8 59.55 54.45 64.5 53.2 74.35 50.75 73.9 50.75 73.45 50.75 73.0 50.75 72.55 50.75 72.1 50.7 71.65 50.7 71.15 50.7 70.7 50.65 70.2 50.65 69.75 50.6 69.25 50.6 68.75 50.55 68.3 50.55 67.8 50.5 67.3 50.45 66.8 50.4 65.85 50.3 64.95 50.2 64.05 50.1 63.15 50.0 62.25 49.9 61.4 49.75 60.55 49.6 59.7 49.45 58.85 49.3 58.05 49.15 57.25 49.0 56.45 48.85 55.7 48.65 54.95 48.5 54.2 48.3 53.45 48.15 56.35 46.8 62.25 44.15 61.9 44.1 61.6 44.1 61.25 44.05 60.95 44.0 60.6 43.95 60.25 43.9 59.9 43.85 59.6 43.8 59.25 43.75 58.9 43.7 58.55 43.65 58.2 43.55 57.8 43.5 57.45 43.45 57.1 43.35 56.75 43.3 56.0 43.15 55.25 42.95 54.55 42.8 53.8 42.6 53.1 42.4 52.4 42.2 51.75 42.0 51.1 41.8 50.45 41.6 49.8 41.35 49.2 41.15 48.55 40.95 48.0 40.7 47.4 40.5 46.85 40.25 46.3 40.0 49.7 39.55 56.55 38.65 56.2 38.6 55.8 38.55 55.4 38.5 55.05 38.45 54.65 38.4 54.25 38.35 53.8 38.25 53.4 38.2 53.0 38.1 52.55 38.0 52.15 37.9 51.7 37.8 51.25 37.7 50.8 37.6 50.35 37.5 49.9 37.35 49.4 37.2 48.95 37.1 48.5 36.95 48.0 36.8 47.55 36.65 47.15 36.5 46.7 36.35 46.25 36.2 45.85 36.05 45.45 35.9 45.05 35.75 44.65 35.6 44.3 35.45 43.9 35.3 43.55 35.1 43.2 34.95 47.1 34.5 54.9 33.65 54.4 33.6 53.85 33.5 53.3 33.45 52.75 33.35 52.2 33.25 51.6 33.15 51.0 33.0 50.4 32.9 49.8 32.75 49.2 32.6 48.55 32.45 47.95 32.3 47.25 32.1 46.6 31.9 45.95 31.7 45.3 31.5 44.85 31.35 44.4 31.2 43.95 31.0 43.5 30.85 43.05 30.7 42.65 30.5 42.25 30.35 41.8 30.15 41.4 30.0 41.0 29.8 40.65 29.65 40.25 29.45 39.9 29.3 39.5 29.1 39.15 28.95 38.8 28.75 41.55 28.3 47.0 27.4 46.55 27.35 46.15 27.25 45.7 27.15 45.25 27.05 44.75 26.95 44.3 26.8 43.8 26.65 43.3 26.5 42.75 26.35 42.25 26.2 41.7 26.0 41.2 25.8 40.6 25.6 40.05 25.35 39.5 25.1 38.95 24.85 38.6 24.7 38.25 24.5 37.9 24.3 37.55 24.15 37.25 23.95 36.9 23.75 36.6 23.6 36.3 23.4 36.0 23.25 35.7 23.05 35.4 22.85 35.15 22.65 34.85 22.5 34.6 22.3 34.35 22.15 34.1 21.95 37.45 22.05 44.35 22.2 43.9 22.1 43.5 21.95 43.0 21.85 42.55 21.7 42.05 21.5 41.55 21.35 41.0 21.15 40.5 20.9 39.95 20.7 39.4 20.4 38.85 20.15 38.3 19.85 37.7 19.5 37.15 19.15 36.55 18.8 36.0 18.4 35.8 18.25 35.55 18.05 35.35 17.9 35.15 17.75 34.95 17.55 34.75 17.4 34.55 17.25 34.35 17.05 34.15 16.9 33.95 16.75 33.8 16.6 33.6 16.4 33.45 16.25 33.3 16.1 33.1 15.95 32.95 15.8 35.8 15.45 41.55 14.8 41.2 14.6 40.85 14.4 40.55 14.25 40.2 14.05 39.9 13.9 39.6 13.7 39.3 13.55 39.0 13.4 38.7 13.25 38.45 13.15 38.2 13.0 37.95 12.85 37.7 12.75 37.45 12.65 37.25 12.55 37.05 12.45 36.65 12.25 36.2 12.05 35.9 11.9 35.45 11.75 30.95 9.8 34.8 11.45 34.45 11.3 34.2 11.2 33.9 11.05 33.65 10.95 33.4 10.8 33.15 10.65 32.85 10.5 32.6 10.35 32.35 10.2 32.05 10.0 31.75 9.8 31.5 9.6 31.25 9.4 31.0 9.2 30.8 9.0 30.55 8.75 30.35 8.6 30.15 8.35 29.95 8.2 29.8 8.0 29.6 7.8 29.45 7.6 29.3 7.45 29.2 7.25 29.05 7.1 28.95 6.95 29.15 7.0 29.35 7.1 29.6 7.15 29.8 7.2 30.0 7.3 30.25 7.35 30.45 7.4 30.7 7.5 30.9 7.55 31.15 7.6 31.4 7.65 31.65 7.75 31.85 7.8 32.1 7.85 32.35 7.9 32.6 7.95 33.1 8.05 33.55 8.15 34.05 8.25 34.5 8.3 34.95 8.4 35.45 8.45 35.85 8.5 36.3 8.55 36.75 8.6 37.2 8.65 37.6 8.65 38.0 8.7 38.4 8.7 38.8 8.7 39.15 8.75 39.55 8.75 36.65 7.45 34.45 6.3 33.4 5.75 32.75 5.4 31.8 4.9 31.1 4.5 30.2 4.0 29.45 3.55 28.55 3.05 27.8 2.55 26.95 2.0 26.2 1.45 25.4 0.9 24.6 0.25 23.8 -0.4 23.05 -1.05 22.25 -1.75 21.5 -2.55 21.3 -2.75 21.1 -2.95 20.9 -3.2 20.7 -3.4 20.45 -3.65 20.2 -3.95 19.95 -4.2 19.75 -4.5 19.45 -4.8 19.2 -5.15 18.95 -5.5 18.65 -5.85 18.4 -6.2 18.1 -6.6 17.85 -7.0 17.55 -7.4 18.0 -7.1 18.5 -6.85 19.0 -6.55 19.5 -6.25 20.0 -5.95 20.55 -5.65 21.1 -5.35 21.65 -5.1 22.25 -4.8 22.85 -4.5 23.45 -4.2 24.1 -3.95 24.75 -3.65 25.4 -3.35 26.05 -3.1 26.75 -2.85 27.5 -2.55 28.3 -2.3 29.0 -2.05 29.75 -1.8 30.5 -1.6 31.2 -1.35 31.9 -1.2 32.6 -1.0 33.3 -0.85 33.95 -0.7 34.6 -0.55 35.25 -0.4 35.9 -0.3 36.5 -0.2 37.1 -0.1 37.65 0.0 37.1 -0.25 36.55 -0.5 36.0 -0.8 35.45 -1.05 34.85 -1.35 34.3 -1.65 33.7 -2.0 33.1 -2.3 32.5 -2.65 31.95 -3.0 31.3 -3.4 30.7 -3.75 30.1 -4.15 29.5 -4.55 28.85 -5.0 28.25 -5.4 26.85 -6.4 25.55 -7.45 24.3 -8.45 23.1 -9.5 21.95 -10.55 20.9 -11.65 19.85 -12.65 18.9 -13.7 18.0 -14.7 17.1 -15.75 16.3 -16.75 15.55 -17.75 14.85 -18.7 14.15 -19.65 13.55 -20.55 13.0 -21.4 14.95 -20.1 16.6 -19.05 17.8 -18.25 18.9 -17.6 19.9 -16.95 20.8 -16.4 21.6 -15.9 22.35 -15.45 23.05 -15.05 23.65 -14.75 24.25 -14.45 24.75 -14.2 25.2 -14.0 25.65 -13.8 26.05 -13.65 26.45 -13.5 26.75 -13.4 27.15 -13.3 27.4 -13.2 27.7 -13.15 27.95 -13.1 28.2 -13.0 28.4 -12.95 28.65 -12.9 28.9 -12.85 29.1 -12.8 29.3 -12.75 29.5 -12.75 29.7 -12.7 29.85 -12.65 30.05 -12.65 30.2 -12.6 30.35 -12.6 30.45 -12.6 30.25 -12.75 30.05 -12.9 29.8 -13.05 29.55 -13.2 29.3 -13.35 29.05 -13.5 28.8 -13.7 28.5 -13.9 28.25 -14.1 27.95 -14.3 27.65 -14.5 27.35 -14.7 27.05 -14.95 26.75 -15.2 26.4 -15.4 26.1 -15.65 25.45 -16.15 25.0 -16.5 24.3 -17.05 23.7 -17.5 22.95 -18.1 22.25 -18.7 21.45 -19.35 20.7 -20.0 19.9 -20.75 19.1 -21.5 18.25 -22.3 17.45 -23.15 16.55 -24.05 15.75 -24.95 14.85 -25.9 14.05 -26.9 13.5 -27.55 13.0 -28.25 12.45 -29.0 11.9 -29.75 11.3 -30.6 10.75 -31.5 10.1 -32.45 9.55 -33.45 8.9 -34.55 8.35 -35.65 7.7 -36.85 7.15 -38.05 6.55 -39.35 6.0 -40.65 5.45 -42.05 4.9 -43.5 5.1 -43.25 5.25 -43.1 5.45 -42.85 5.65 -42.6 5.85 -42.35 6.05 -42.1 6.3 -41.85 6.5 -41.55 6.75 -41.3 7.0 -41.0 7.25 -40.7 7.55 -40.4 7.8 -40.1 8.1 -39.8 8.4 -39.45 8.7 -39.15 9.35 -38.5 10.0 -37.85 10.6 -37.25 11.25 -36.65 11.85 -36.1 12.5 -35.55 13.05 -35.05 13.7 -34.55 14.25 -34.1 14.85 -33.6 15.4 -33.2 16.05 -32.7 16.55 -32.35 17.15 -31.85 17.6 -31.55 18.3 -31.05 18.7 -30.75 19.1 -30.5 19.5 -30.2 19.95 -29.9 20.4 -29.55 20.85 -29.25 21.35 -28.9 21.85 -28.6 22.35 -28.25 22.9 -27.9 23.45 -27.55 24.0 -27.2 24.55 -26.8 25.15 -26.45 25.75 -26.1 26.4 -25.7 26.05 -26.1 25.7 -26.5 25.35 -26.9 25.0 -27.35 24.65 -27.8 24.3 -28.25 23.95 -28.7 23.6 -29.15 23.25 -29.65 22.9 -30.15 22.55 -30.65 22.2 -31.15 21.8 -31.7 21.5 -32.25 21.1 -32.8 20.8 -33.35 20.6 -33.7 20.4 -34.05 20.15 -34.35 19.95 -34.7 19.8 -35.05 19.6 -35.4 19.4 -35.7 19.2 -36.05 19.05 -36.4 18.85 -36.7 18.7 -37.05 18.55 -37.35 18.4 -37.65 18.2 -38.0 18.05 -38.3 17.9 -38.6 18.1 -38.5 18.3 -38.35 18.5 -38.2 18.7 -38.05 18.95 -37.9 19.2 -37.7 19.45 -37.55 19.7 -37.35 19.95 -37.15 20.2 -36.95 20.5 -36.7 20.8 -36.5 21.1 -36.25 21.35 -36.05 21.7 -35.8 22.0 -35.5 22.45 -35.15 22.85 -34.75 23.2 -34.45 23.55 -34.15 23.85 -33.85 24.2 -33.55 24.4 -33.35 24.75 -33.05 25.15 -32.65 25.3 -32.5 25.65 -32.2 25.9 -31.95 26.25 -31.65 26.6 -31.35 26.95 -31.0 27.4 -30.65 29.05 -29.25 32.9 -26.55 33.5 -26.1 34.15 -25.7 34.7 -25.35 35.25 -24.95 35.8 -24.6 36.3 -24.3 36.75 -24.0 37.2 -23.7 37.6 -23.45 37.95 -23.2 38.3 -23.0 38.6 -22.85 38.85 -22.7 39.1 -22.55 39.25 -22.45 39.4 -22.35 39.7 -22.2 40.0 -22.0 40.25 -21.85 40.55 -21.7 40.8 -21.55 41.05 -21.4 41.3 -21.3 41.5 -21.15 41.7 -21.05 41.9 -20.95 42.05 -20.85 42.25 -20.75 42.35 -20.7 42.5 -20.6 42.6 -20.6 42.65 -20.55 43.05 -20.35 43.5 -20.1 43.95 -19.85 44.4 -19.65 44.9 -19.4 45.4 -19.15 45.9 -18.9 46.45 -18.65 47.0 -18.4 47.55 -18.15 48.15 -17.9 48.75 -17.6 49.35 -17.35 50.0 -17.1 50.65 -16.85 51.35 -16.55 51.75 -15.95 52.2 -15.35 52.6 -14.75 53.1 -14.1 53.55 -13.45 54.05 -12.85 54.6 -12.2 55.1 -11.55 55.7 -10.85 56.25 -10.2 56.85 -9.5 57.45 -8.85 58.1 -8.15 58.75 -7.5 59.45 -6.8 60.15 -6.15 60.6 -5.75 61.0 -5.35 61.45 -4.95 61.9 -4.55 62.3 -4.2 62.75 -3.8 63.15 -3.45 63.6 -3.1 64.0 -2.75 64.4 -2.45 64.85 -2.1 65.25 -1.8 65.65 -1.5 66.05 -1.2 66.45 -0.9 66.85 -0.6 64.15 -1.1 58.8 -2.1 58.9 -1.95 59.0 -1.8 59.1 -1.65 59.2 -1.5 59.3 -1.3 59.45 -1.15 59.55 -0.95 59.7 -0.8 59.85 -0.6 60.0 -0.4 60.15 -0.2 60.35 -0.05 60.5 0.15 60.7 0.35 60.9 0.55 61.1 0.75 61.3 0.95 61.5 1.1 61.7 1.25 61.9 1.4 62.1 1.55 62.3 1.7 62.5 1.85 62.7 1.95 62.9 2.1 63.15 2.2 63.3 2.35 63.55 2.45 63.75 2.55 64.0 2.7 64.15 2.8 64.45 2.95 64.7 3.1 64.9 3.2 65.15 3.35 65.45 3.45 65.7 3.6 66.0 3.7 66.3 3.85 66.6 4.0 66.9 4.15 67.25 4.25 67.6 4.4 67.95 4.55 68.3 4.7 68.65 4.8 69.05 4.95 69.45 5.1 67.65 5.25 64.05 5.55 64.15 5.7 64.25 5.9 64.4 6.05 64.5 6.2 64.6 6.4 64.75 6.55 64.85 6.75 65.0 6.9 65.1 7.1 65.25 7.25 65.4 7.45 65.55 7.6 65.65 7.8 65.8 7.95 65.95 8.15 66.1 8.3 66.5 8.8 66.95 9.25 67.4 9.75 67.85 10.15 68.25 10.6 68.7 11.0 69.1 11.4 69.55 11.75 70.0 12.1 70.4 12.45 70.85 12.8 71.25 13.1 71.65 13.4 72.05 13.65 72.45 13.95 72.85 14.2 70.55 13.7 66.0 12.8 66.1 12.95 66.15 13.15 66.25 13.3 66.3 13.45 66.4 13.6 66.5 13.8 66.6 13.95 66.65 14.15 66.75 14.3 66.85 14.45 66.95 14.65 67.05 14.8 67.15 15.0 67.2 15.15 67.3 15.3 67.4 15.5 67.9 16.3 68.4 17.1 68.9 17.9 69.45 18.6 70.0 19.35 70.55 20.05 71.1 20.7 71.65 21.35 72.2 21.95 72.8 22.55 73.35 23.1 73.9 23.65 74.45 24.15 75.0 24.65 75.55 25.15 76.1 25.6 74.55 24.85 69.4 22.25 69.45 22.4 69.5 22.6 69.55 22.8 69.65 22.95 69.7 23.15 69.75 23.35 69.85 23.55 69.95 23.75 70.0 23.95 70.1 24.2 70.2 24.4 70.3 24.6 70.4 24.85 70.5 25.05 70.65 25.3 70.75 25.55 70.85 25.7 70.9 25.8 71.0 26.0 71.1 26.2 71.25 26.45 71.4 26.65 71.6 26.95 71.8 27.25 72.0 27.6 72.25 27.95 72.5 28.3 72.8 28.7 73.1 29.1 73.4 29.5 73.75 29.9 74.15 30.3 74.45 30.6 74.75 30.95 75.05 31.25 75.35 31.5 75.65 31.8 75.95 32.05 76.2 32.35 76.5 32.6 76.8 32.85 77.1 33.05 77.4 33.3 77.7 33.5 77.95 33.7 78.25 33.9 78.5 34.1 78.8 34.3 76.4 34.1 71.55 33.8 71.7 34.0 71.9 34.25 72.1 34.45 72.25 34.7 72.45 34.9 72.65 35.1 72.85 35.35 73.05 35.55 73.25 35.8 73.45 36.0 73.7 36.25 73.9 36.45 74.15 36.7 74.35 36.9 74.6 37.15 74.85 37.35 75.45 37.9 76.05 38.45 76.65 38.95 77.25 39.4 77.85 39.9 78.45 40.3 79.05 40.7 79.65 41.1 80.2 41.45 80.75 41.8 81.3 42.1 81.9 42.4 82.4 42.7 82.95 42.95 83.45 43.2 83.95 43.45 81.55 43.45 76.65 43.4 76.8 43.6 76.95 43.75 77.1 43.95 77.25 44.1 77.4 44.3 77.55 44.45 77.7 44.65 77.9 44.8 78.05 45.0 78.2 45.15 78.4 45.35 78.55 45.5 78.75 45.7 78.95 45.85 79.1 46.05 79.3 46.2 80.0 46.85 80.8 47.45 81.55 48.05 82.3 48.55 83.05 49.05 83.8 49.5 84.55 49.9 85.3 50.25 86.0 50.6 86.7 50.9 87.4 51.2 88.1 51.45 88.7 51.65 89.35 51.85 89.95 52.05 90.55 52.2 90.4 52.35 90.25 52.5 90.1 52.65 89.9 52.75 89.75 52.9 89.6 53.0 89.5 53.15 89.35 53.25 89.2 53.35 89.05 53.45 88.95 53.55 88.8 53.6 88.7 53.7 88.55 53.8 88.45 53.85 88.35 53.9 87.95 54.15 87.75 54.25 87.45 54.45 87.25 54.55 87.0 54.7 86.8 54.8 86.55 54.95 86.35 55.05 86.15 55.15 85.95 55.2 85.75 55.3 85.6 55.35 85.4 55.4 85.2 55.45 85.05 55.5 84.85 55.5 84.65 55.5 84.75 55.5 84.7 55.5 84.65 55.5 84.55 55.55 84.5 55.55 84.45 55.55 84.4 55.55 84.35 55.6 84.3 55.6 84.2 55.65 84.2 55.65 84.15 55.7 84.1 55.7 84.05 55.75 84.0 55.8 83.95 55.85 83.95 55.95 83.95 56.0 83.95 56.1 84.0 56.15 84.0 56.25 84.05 56.3 84.05 56.4 84.1 56.45 84.15 56.55 84.2 56.6 84.25 56.7 84.3 56.75 84.35 56.85 84.45 56.9 84.5 56.95 84.6 57.05 84.65 57.1 84.75 57.15 84.85 57.2 84.95 57.3 85.05 57.3 85.1 57.35 85.25 57.4 85.35 57.45 85.45 57.45 85.55 57.5 85.7 57.55 85.9 57.6 86.0 57.6 86.15 57.65 86.3 57.7 86.45 57.75 86.6 57.8 86.7 57.85 86.85 57.9 86.95 57.9 87.05 57.95 87.1 58.0 87.2 58.05 87.1 58.0 87.4 58.15 87.5 58.15 87.55 58.2 87.7 58.25 87.8 58.3 87.9 58.35 88.05 58.4 89.0 58.75 91.9 59.1 92.7 59.2 93.9 59.3 95.1 59.45 95.45 59.5 93.95 60.35 90.9 62.1 92.35 62.75 93.4 63.1 94.05 63.35 94.75 63.55 95.4 63.7 96.05 63.85 96.7 64.0 97.35 64.1 97.95 64.2 98.55 64.25 99.15 64.3 99.75 64.35 100.3 64.35 100.85 64.4 101.4 64.4 101.9 64.35 102.4 64.35 102.85 64.3 101.25 65.7 98.05 68.45 98.1 68.45 98.2 68.5 98.3 68.5 98.35 68.55 98.45 68.55 98.55 68.55 98.65 68.6 98.75 68.6 98.85 68.6 98.95 68.6 99.1 68.65 99.2 68.65 99.3 68.65 99.45 68.65 99.6 68.65 99.7 68.6 99.85 68.6 100.05 68.55 100.2 68.55 100.35 68.5 100.5 68.5 100.65 68.45 100.75 68.4 100.9 68.4 101.0 68.35 101.15 68.3 101.25 68.25 101.35 68.2 101.45 68.15 101.55 68.1 101.6 68.1 101.7 68.05 L101.7 68.05" fill="#643699" fill-rule="evenodd" stroke="none"/>
  </g>
</svg>
