<?xml version="1.0" encoding="UTF-8" standalone="no"?>
<svg xmlns:xlink="http://www.w3.org/1999/xlink" height="300.0px" width="300.0px" xmlns="http://www.w3.org/2000/svg">
  <g transform="matrix(1.0, 0.0, 0.0, 1.0, 150.0, 150.0)">
    <path d="M40.95 37.75 Q41.05 37.75 41.15 37.75 41.25 37.75 41.35 37.75 41.5 37.75 41.6 37.75 41.75 37.75 41.85 37.75 42.0 37.75 42.15 37.75 42.25 37.75 42.4 37.75 42.55 37.7 42.7 37.7 42.85 37.65 43.05 37.65 43.3 37.6 43.55 37.55 43.75 37.45 44.0 37.4 44.2 37.3 44.4 37.2 44.6 37.15 44.8 37.05 45.0 36.95 45.15 36.85 45.35 36.75 45.5 36.65 45.65 36.55 45.85 36.45 45.95 36.35 46.15 36.25 47.15 35.55 48.65 34.1 51.45 31.45 51.8 30.85 52.0 30.5 52.2 30.1 52.35 29.75 52.5 29.35 52.6 29.0 52.7 28.65 52.75 28.3 52.8 27.95 52.85 27.65 52.9 27.3 52.95 27.05 52.95 26.75 52.95 26.5 52.95 26.2 52.95 26.05 52.95 25.8 52.95 25.5 52.95 25.2 52.9 24.9 52.9 24.6 52.85 24.35 52.8 24.05 52.75 23.8 52.7 23.55 52.65 23.35 52.6 23.1 52.55 22.9 52.5 22.65 52.45 22.45 52.4 22.25 52.35 22.1 52.25 21.85 52.15 21.5 52.0 21.15 51.9 20.8 51.75 20.5 51.65 20.2 51.5 19.85 51.35 19.55 51.2 19.3 51.1 19.0 50.95 18.75 50.8 18.5 50.65 18.25 50.5 18.0 50.35 17.75 50.25 17.55 50.1 17.35 48.75 16.15 47.0 14.5 46.5 14.0 43.75 11.2 42.75 10.15 41.8 9.3 41.3 8.8 40.15 7.7 39.0 6.6 38.2 5.8 37.85 5.5 37.5 5.15 37.15 4.8 36.8 4.4 36.4 4.05 36.0 3.65 35.55 3.2 35.15 2.8 34.7 2.35 34.25 1.9 33.75 1.4 33.3 0.9 32.8 0.4 32.3 -0.15 31.75 -0.65 31.25 -1.2 31.2 -1.25 31.2 -1.3 31.15 -1.35 31.1 -1.45 31.1 -1.5 31.05 -1.55 31.0 -1.65 30.95 -1.7 30.9 -1.8 30.9 -1.85 30.85 -1.95 30.8 -2.05 30.75 -2.15 30.7 -2.2 30.65 -2.3 30.65 -2.4 30.55 -2.65 30.45 -2.9 30.35 -3.15 30.25 -3.4 30.2 -3.6 30.15 -3.85 30.1 -4.05 30.05 -4.25 30.0 -4.45 29.95 -4.7 29.9 -4.8 29.85 -5.1 29.8 -5.4 29.75 -5.55 29.7 -5.75 29.65 -5.95 29.55 -6.55 28.55 -9.15 28.45 -9.35 28.4 -9.6 28.3 -9.85 28.2 -10.1 28.1 -10.35 28.0 -10.65 27.85 -10.95 27.75 -11.3 27.6 -11.65 27.45 -12.0 27.3 -12.35 27.15 -12.75 26.95 -13.15 26.8 -13.55 26.6 -14.0 26.4 -14.45 25.4 -16.8 23.6 -20.3 30.35 -7.7 23.3 -20.85 23.1 -21.2 22.9 -21.55 22.65 -22.05 22.4 -22.5 22.1 -23.05 21.8 -23.6 21.45 -24.2 21.1 -24.8 20.7 -25.5 20.25 -26.2 19.8 -26.9 19.35 -27.65 18.85 -28.45 18.4 -29.2 16.6 -32.0 15.1 -33.95 13.95 -35.4 12.95 -36.55 12.55 -36.85 11.0 -38.0 9.5 -39.15 8.4 -39.95 6.4 -41.45 0.85 -45.4 -3.9 -48.8 -8.2 -52.05 -8.15 -51.85 -8.1 -51.65 -8.0 -51.4 -7.95 -51.2 -7.85 -50.95 -7.75 -50.7 -7.65 -50.45 -7.55 -50.2 -7.45 -49.9 -7.3 -49.65 -7.2 -49.35 -7.05 -49.05 -6.9 -48.75 -6.75 -48.45 -6.6 -48.15 -6.4 -47.85 -5.85 -46.85 -3.45 -43.85 -0.85 -40.55 0.45 -39.15 0.65 -38.9 0.9 -38.65 1.1 -38.45 1.3 -38.2 1.55 -38.0 1.75 -37.8 1.95 -37.6 2.15 -37.4 2.3 -37.2 2.5 -37.0 2.7 -36.85 2.85 -36.65 3.0 -36.5 3.2 -36.35 3.35 -36.2 3.5 -36.05 5.3 -34.6 9.0 -31.6 6.5 -32.05 1.5 -32.95 1.6 -32.8 1.7 -32.65 1.8 -32.45 1.9 -32.3 2.0 -32.1 2.15 -31.9 2.25 -31.7 2.4 -31.5 2.55 -31.3 2.75 -31.1 2.9 -30.9 3.1 -30.7 3.3 -30.5 3.5 -30.3 3.7 -30.1 3.95 -29.9 4.1 -29.8 4.2 -29.7 4.35 -29.6 4.5 -29.5 4.6 -29.4 4.8 -29.25 4.95 -29.15 5.1 -29.05 5.3 -28.95 5.5 -28.85 5.7 -28.75 5.95 -28.6 6.15 -28.45 6.45 -28.3 6.75 -28.15 7.1 -28.0 9.15 -26.9 11.85 -25.65 10.0 -25.55 6.15 -25.25 6.3 -25.05 6.5 -24.85 6.65 -24.65 6.85 -24.45 7.0 -24.25 7.2 -24.0 7.4 -23.8 7.55 -23.6 7.75 -23.4 7.95 -23.2 8.15 -22.95 8.35 -22.75 8.55 -22.55 8.75 -22.35 8.95 -22.1 9.2 -21.9 9.6 -21.5 10.0 -21.1 10.4 -20.75 10.8 -20.35 11.2 -20.0 11.6 -19.65 12.0 -19.3 12.4 -19.0 12.8 -18.7 13.2 -18.35 13.6 -18.05 13.95 -17.8 14.35 -17.5 14.75 -17.25 15.1 -17.0 15.45 -16.75 13.2 -17.2 8.65 -18.05 8.8 -17.75 8.9 -17.45 9.05 -17.15 9.2 -16.85 9.35 -16.55 9.5 -16.25 9.65 -15.9 9.85 -15.6 10.0 -15.3 10.2 -14.95 10.4 -14.6 10.55 -14.3 10.75 -13.95 10.95 -13.6 11.2 -13.3 11.4 -12.95 11.75 -12.4 12.15 -11.85 12.55 -11.3 12.9 -10.8 13.3 -10.3 13.7 -9.8 14.05 -9.35 14.45 -8.9 14.85 -8.5 15.2 -8.05 15.6 -7.7 15.95 -7.3 16.3 -6.95 16.7 -6.6 17.05 -6.25 17.4 -5.95 15.55 -6.8 11.85 -8.5 12.05 -8.05 12.2 -7.55 12.4 -7.1 12.6 -6.7 12.8 -6.25 13.0 -5.85 13.2 -5.45 13.4 -5.1 13.6 -4.75 13.8 -4.4 14.0 -4.05 14.2 -3.75 14.4 -3.45 14.6 -3.15 14.8 -2.9 14.95 -2.65 15.2 -2.3 15.5 -1.95 15.75 -1.6 16.0 -1.3 16.25 -1.0 16.5 -0.7 16.7 -0.45 16.95 -0.2 17.15 0.0 17.35 0.2 17.5 0.35 17.65 0.55 17.8 0.65 17.95 0.8 18.0 0.9 18.1 0.95 18.3 1.15 18.55 1.35 18.75 1.55 19.0 1.7 19.2 1.9 19.4 2.05 19.6 2.25 19.8 2.4 20.0 2.55 20.2 2.7 20.4 2.8 20.6 2.95 20.8 3.05 21.0 3.2 21.15 3.3 21.3 3.4 19.55 3.15 18.05 3.05 17.8 3.0 17.55 3.0 17.3 2.95 17.05 2.95 16.8 2.95 16.55 2.9 16.3 2.9 16.05 2.85 15.8 2.85 15.6 2.85 15.35 2.8 15.1 2.8 14.85 2.8 14.65 2.8 14.4 2.75 14.15 2.75 14.3 2.95 14.4 3.1 14.55 3.25 14.65 3.45 14.8 3.6 14.95 3.8 15.1 3.95 15.25 4.15 15.35 4.3 15.5 4.5 15.65 4.7 15.8 4.85 16.0 5.05 16.15 5.2 16.3 5.4 16.45 5.55 17.1 6.25 17.75 6.85 18.4 7.5 19.1 8.05 19.75 8.6 20.45 9.1 21.1 9.55 21.8 10.0 22.45 10.4 23.1 10.8 23.75 11.15 24.35 11.5 24.95 11.8 25.6 12.05 26.15 12.35 26.7 12.55 24.25 12.55 19.25 12.55 19.35 12.65 19.45 12.75 19.55 12.9 19.65 13.0 19.75 13.1 19.9 13.25 20.0 13.35 20.15 13.5 20.25 13.6 20.4 13.75 20.55 13.9 20.7 14.05 20.85 14.2 21.0 14.35 21.15 14.5 21.3 14.65 20.75 14.15 21.6 14.9 21.85 15.1 22.05 15.25 22.3 15.5 22.6 15.7 22.95 16.0 23.3 16.25 23.7 16.55 24.1 16.8 24.55 17.15 25.05 17.45 25.55 17.75 26.05 18.05 26.65 18.4 27.2 18.7 27.5 18.85 27.8 19.0 28.15 19.15 28.45 19.3 28.8 19.45 29.15 19.6 29.55 19.75 29.9 19.9 30.3 20.1 30.7 20.25 31.1 20.4 31.55 20.5 32.0 20.65 32.45 20.8 32.9 20.95 33.4 21.05 33.3 21.15 33.25 21.2 33.15 21.3 33.1 21.4 33.0 21.5 32.95 21.55 32.85 21.65 32.75 21.75 32.65 21.8 32.6 21.9 32.5 22.0 32.4 22.05 32.3 22.15 32.2 22.25 32.1 22.35 32.0 22.4 31.6 22.75 31.15 23.05 30.7 23.3 30.3 23.55 29.85 23.8 29.4 24.0 29.0 24.15 28.6 24.3 28.2 24.45 27.8 24.55 27.4 24.7 27.05 24.75 26.7 24.85 26.35 24.9 26.05 24.95 25.75 24.95 25.85 25.05 26.0 25.15 26.1 25.25 26.2 25.35 26.35 25.4 26.45 25.5 26.6 25.6 26.7 25.7 26.85 25.8 26.95 25.85 27.1 25.95 27.25 26.05 27.35 26.15 27.5 26.2 27.65 26.3 27.8 26.4 28.5 26.8 29.25 27.15 29.95 27.45 30.7 27.7 31.4 27.9 32.1 28.1 32.75 28.25 33.45 28.35 34.1 28.45 34.75 28.5 35.35 28.55 35.95 28.55 36.45 28.55 37.0 28.55 37.45 28.55 37.95 28.5 37.85 28.55 37.75 28.6 37.6 28.7 37.5 28.75 37.4 28.8 37.3 28.85 37.15 28.9 37.05 28.95 36.95 29.0 36.8 29.1 36.7 29.15 36.6 29.2 36.45 29.25 36.35 29.3 36.2 29.35 36.1 29.45 35.85 29.55 35.65 29.65 35.4 29.75 35.2 29.85 35.0 29.95 34.75 30.0 34.55 30.1 34.3 30.2 34.1 30.25 33.9 30.35 33.7 30.45 33.45 30.5 33.25 30.6 33.05 30.65 32.85 30.75 32.65 30.8 32.8 30.9 32.95 30.95 33.1 31.05 33.25 31.1 33.45 31.2 33.6 31.25 33.75 31.35 33.9 31.4 34.1 31.5 34.25 31.55 34.4 31.65 34.6 31.7 34.75 31.8 34.95 31.85 35.1 31.9 35.3 32.0 36.0 32.25 36.75 32.5 37.45 32.7 38.15 32.85 38.85 33.0 39.55 33.1 40.2 33.2 40.85 33.3 41.5 33.35 42.1 33.35 42.7 33.4 43.3 33.4 43.85 33.4 44.4 33.4 44.9 33.35 45.4 33.3 43.95 34.8 40.95 37.75 L40.95 37.75" fill="#00e6f3" fill-rule="evenodd" stroke="none"/>
    <path d="M-26.65 -42.75 Q-26.6 -42.8 -26.8 -42.95 -26.9 -43.1 -27.25 -43.3 -27.5 -43.45 -28.05 -43.85 -28.7 -44.3 -29.15 -44.6 -29.8 -45.05 -30.4 -45.5 -31.15 -46.05 -31.85 -46.6 -32.65 -47.25 -33.35 -47.9 -34.2 -48.6 -34.95 -49.35 -35.5 -49.85 -36.05 -50.45 -36.5 -50.9 -37.0 -51.5 -37.3 -51.8 -37.9 -52.5 -38.5 -53.15 -38.85 -53.5 -39.35 -54.1 -39.8 -54.55 -40.35 -55.15 -40.95 -55.7 -41.55 -56.3 -42.25 -56.85 -42.95 -57.5 -43.75 -58.15 -43.85 -58.25 -43.95 -58.35 -44.05 -58.4 -44.15 -58.5 -44.25 -58.55 -44.35 -58.65 -44.45 -58.7 -44.55 -58.8 -44.65 -58.85 -44.7 -58.9 -44.8 -59.0 -44.9 -59.05 -44.95 -59.1 -45.0 -59.15 -45.1 -59.2 -45.15 -59.25 -45.25 -59.4 -45.35 -59.55 -45.45 -59.7 -45.55 -59.9 -45.65 -60.05 -45.75 -60.25 -45.9 -60.4 -46.0 -60.6 -46.1 -60.8 -46.25 -60.95 -46.35 -61.15 -46.45 -61.35 -46.6 -61.6 -46.7 -61.8 -46.85 -62.0 -47.0 -62.25 -47.0 -62.25 -47.5 -63.15 -48.15 -64.25 -48.6 -65.1 -48.95 -65.75 -49.3 -66.5 -49.65 -67.2 -50.0 -67.95 -50.3 -68.65 -50.65 -69.4 -50.95 -70.1 -51.25 -70.8 -51.5 -71.4 -51.75 -72.05 -51.95 -72.6 -52.15 -73.1 -52.35 -73.5 -52.5 -73.9 -52.55 -74.15 -52.65 -74.4 -52.5 -73.6 -52.1 -72.0 -52.2 -72.05 -52.25 -72.1 -52.35 -72.15 -52.45 -72.15 -52.5 -72.2 -52.6 -72.25 -52.7 -72.3 -52.8 -72.35 -52.9 -72.4 -53.0 -72.5 -53.1 -72.55 -53.25 -72.6 -53.35 -72.65 -53.45 -72.7 -53.6 -72.8 -53.7 -72.85 -54.25 -73.15 -54.8 -73.45 -55.3 -73.8 -55.85 -74.1 -56.35 -74.45 -56.9 -74.8 -57.4 -75.1 -57.95 -75.5 -58.45 -75.85 -59.05 -76.25 -59.6 -76.65 -60.15 -77.1 -60.75 -77.55 -61.4 -78.05 -62.0 -78.5 -62.7 -79.05 -68.0 -83.2 -70.7 -85.65 -71.45 -86.3 -72.15 -87.0 -72.95 -87.75 -73.7 -88.5 -74.55 -89.35 -75.4 -90.25 -76.3 -91.15 -77.15 -92.15 -78.1 -93.15 -79.0 -94.2 -80.0 -95.35 -80.95 -96.5 -81.95 -97.75 -82.95 -99.0 -83.95 -100.3 -84.95 -101.7 -84.85 -101.4 -84.75 -101.1 -84.6 -100.85 -84.5 -100.55 -84.4 -100.25 -84.25 -99.95 -84.15 -99.65 -84.05 -99.35 -83.9 -99.05 -83.8 -98.75 -83.65 -98.5 -83.55 -98.2 -83.4 -97.9 -83.25 -97.6 -83.15 -97.3 -83.0 -97.0 -82.5 -95.9 -81.95 -94.8 -81.4 -93.7 -80.85 -92.65 -80.3 -91.65 -79.75 -90.65 -79.15 -89.65 -78.6 -88.7 -78.0 -87.75 -77.4 -86.85 -76.85 -85.95 -76.25 -85.1 -75.65 -84.25 -75.05 -83.45 -74.45 -82.65 -73.85 -81.85 -76.1 -82.85 -77.65 -83.7 -78.25 -84.0 -78.85 -84.35 -79.35 -84.65 -79.9 -85.0 -80.4 -85.3 -80.85 -85.6 -81.3 -85.85 -81.7 -86.15 -82.1 -86.4 -82.45 -86.6 -82.75 -86.85 -83.05 -87.05 -83.3 -87.2 -83.55 -87.4 -83.35 -87.25 -83.85 -87.6 -88.45 -90.95 -97.95 -95.7 -96.2 -92.95 -95.45 -91.8 -94.6 -90.5 -93.7 -89.3 -92.85 -88.1 -91.95 -86.95 -91.1 -85.9 -90.25 -84.85 -89.45 -83.9 -88.55 -82.9 -87.8 -82.05 -86.95 -81.15 -86.25 -80.4 -85.45 -79.55 -84.8 -78.9 -84.0 -78.1 -83.5 -77.6 -82.7 -76.8 -82.3 -76.4 -81.9 -76.05 -81.5 -75.6 -81.05 -75.2 -80.6 -74.75 -80.1 -74.35 -79.6 -73.85 -79.1 -73.4 -78.6 -72.95 -78.05 -72.45 -77.5 -71.95 -76.9 -71.45 -76.3 -70.95 -75.7 -70.4 -75.1 -69.9 -74.45 -69.35 -77.95 -71.2 -81.15 -72.9 -82.2 -73.45 -83.5 -74.15 -287.25 -185.0 -85.45 -75.25 -86.5 -75.8 -87.1 -76.15 -87.95 -76.6 -88.55 -76.9 -89.25 -77.25 -89.85 -77.55 -90.5 -77.85 -91.05 -78.1 -91.65 -78.4 -92.3 -78.65 -92.9 -78.85 -93.55 -79.1 -94.05 -79.3 -94.55 -79.45 -95.0 -79.6 -95.5 -79.75 -95.95 -79.9 -96.4 -80.0 -96.8 -80.15 -97.25 -80.25 -97.6 -80.35 -98.0 -80.45 -98.4 -80.55 -98.75 -80.65 -99.05 -80.7 -99.4 -80.8 -99.7 -80.85 -100.0 -80.9 -99.85 -80.7 -99.7 -80.5 -99.5 -80.25 -99.3 -80.05 -99.15 -79.8 -98.95 -79.55 -98.7 -79.3 -98.5 -79.0 -98.3 -78.75 -98.05 -78.5 -97.8 -78.2 -97.55 -77.9 -97.3 -77.6 -97.05 -77.3 -96.75 -77.0 -96.5 -76.7 -96.1 -76.25 -95.65 -75.8 -95.25 -75.4 -94.85 -75.0 -94.45 -74.55 -94.0 -74.15 -93.6 -73.75 -93.15 -73.35 -92.7 -72.95 -92.25 -72.55 -91.8 -72.15 -91.25 -71.7 -90.8 -71.3 -90.2 -70.8 -89.7 -70.4 -89.1 -69.85 -83.55 -65.3 -78.5 -61.55 -80.55 -62.35 -83.45 -63.6 -85.0 -64.3 -89.9 -66.55 -90.4 -66.8 -90.95 -67.0 -91.5 -67.25 -92.1 -67.5 -92.75 -67.75 -93.4 -68.0 -94.1 -68.25 -94.85 -68.5 -95.65 -68.75 -96.45 -68.95 -97.3 -69.25 -98.2 -69.45 -99.15 -69.7 -100.15 -69.95 -101.15 -70.15 -102.25 -70.4 -102.15 -70.3 -102.05 -70.15 -101.95 -70.05 -101.8 -69.9 -101.7 -69.8 -101.6 -69.65 -101.45 -69.5 -101.3 -69.35 -101.2 -69.2 -101.05 -69.05 -100.9 -68.9 -100.75 -68.75 -100.6 -68.6 -100.45 -68.45 -100.3 -68.25 -100.1 -68.1 -99.75 -67.75 -99.45 -67.45 -99.1 -67.05 -98.7 -66.65 -98.3 -66.2 -97.85 -65.8 -97.35 -65.3 -96.85 -64.8 -96.25 -64.3 -95.7 -63.75 -95.05 -63.2 -94.45 -62.65 -93.75 -62.05 -93.05 -61.5 -92.3 -60.85 -91.55 -60.25 -91.05 -59.85 -90.55 -59.5 -90.05 -59.1 -89.5 -58.75 -88.95 -58.3 -88.4 -57.95 -87.8 -57.5 -87.2 -57.1 -86.55 -56.7 -85.9 -56.25 -85.25 -55.85 -84.55 -55.45 -83.85 -55.0 -83.1 -54.6 -82.35 -54.15 -81.6 -53.75 -82.05 -53.8 -82.45 -53.85 -82.9 -53.9 -83.3 -53.95 -83.65 -54.0 -84.05 -54.1 -84.4 -54.15 -84.75 -54.25 -85.1 -54.3 -85.45 -54.4 -85.75 -54.45 -86.05 -54.55 -86.35 -54.6 -86.6 -54.65 -86.85 -54.75 -87.15 -54.8 -87.4 -54.9 -87.85 -55.0 -88.35 -55.2 -88.5 -55.2 -88.85 -55.35 -89.1 -55.4 -89.45 -55.5 -89.75 -55.55 -90.05 -55.65 -90.35 -55.7 -90.7 -55.75 -91.0 -55.75 -91.35 -55.8 -91.7 -55.8 -92.05 -55.8 -92.4 -55.75 -92.6 -55.75 -92.75 -55.7 -92.95 -55.65 -93.1 -55.65 -93.25 -55.6 -93.45 -55.55 -93.6 -55.5 -93.75 -55.45 -93.9 -55.4 -94.0 -55.35 -94.15 -55.35 -94.25 -55.3 -94.4 -55.25 -94.5 -55.2 -94.6 -55.15 -94.7 -55.1 -94.7 -55.05 -94.65 -55.0 -94.65 -54.9 -94.6 -54.85 -94.6 -54.8 -94.55 -54.7 -94.55 -54.65 -94.5 -54.55 -94.5 -54.5 -94.45 -54.4 -94.4 -54.35 -94.35 -54.25 -94.35 -54.15 -94.3 -54.1 -94.25 -54.0 -94.2 -53.9 -94.1 -53.7 -93.95 -53.45 -93.8 -53.25 -93.7 -53.05 -93.55 -52.9 -93.4 -52.7 -93.3 -52.55 -93.15 -52.4 -93.0 -52.25 -92.9 -52.1 -92.75 -52.0 -92.6 -51.85 -92.5 -51.75 -92.35 -51.6 -91.9 -51.15 -92.15 -51.35 -91.85 -51.1 -91.6 -50.85 -91.35 -50.6 -91.15 -50.35 -90.95 -50.2 -90.8 -49.95 -90.65 -49.8 -90.45 -49.6 -90.4 -49.5 -90.2 -49.3 -90.0 -49.1 -89.9 -48.95 -89.75 -48.8 -89.65 -48.65 -89.45 -48.5 -89.3 -48.35 -88.75 -47.75 -87.95 -47.15 -87.2 -46.55 -86.3 -45.95 -85.45 -45.4 -84.5 -44.8 -83.65 -44.3 -82.7 -43.75 -81.9 -43.3 -81.0 -42.85 -80.3 -42.5 -79.6 -42.1 -79.05 -41.85 -78.55 -41.6 -78.25 -41.5 -78.05 -41.4 -79.0 -41.35 -81.35 -41.4 -83.85 -41.4 -83.1 -41.4 -84.0 -41.4 -84.55 -41.4 -85.25 -41.35 -85.75 -41.35 -86.35 -41.35 -86.75 -41.3 -87.25 -41.25 -87.6 -41.15 -88.0 -41.1 -88.3 -41.0 -88.65 -40.9 -88.95 -40.75 -89.25 -40.6 -89.55 -40.4 -89.65 -40.3 -89.8 -40.25 -89.9 -40.15 -90.0 -40.05 -90.1 -39.95 -90.25 -39.85 -90.35 -39.75 -90.45 -39.65 -90.55 -39.55 -90.65 -39.45 -90.7 -39.35 -90.8 -39.25 -90.9 -39.15 -91.0 -39.0 -91.05 -38.9 -91.15 -38.8 -90.9 -38.7 -90.7 -38.55 -90.45 -38.45 -90.25 -38.35 -90.0 -38.25 -89.75 -38.1 -89.55 -38.0 -89.3 -37.9 -89.05 -37.8 -88.8 -37.65 -88.6 -37.55 -88.35 -37.45 -88.1 -37.35 -87.85 -37.25 -87.6 -37.1 -87.35 -37.0 -86.4 -36.6 -85.4 -36.2 -84.45 -35.8 -83.5 -35.45 -82.55 -35.1 -81.6 -34.75 -80.65 -34.4 -79.7 -34.1 -78.8 -33.85 -77.9 -33.55 -77.0 -33.3 -76.1 -33.05 -75.2 -32.8 -74.3 -32.6 -73.45 -32.4 -72.6 -32.2 -73.0 -32.2 -73.35 -32.15 -73.75 -32.15 -74.1 -32.1 -74.45 -32.1 -74.75 -32.1 -75.1 -32.05 -75.4 -32.05 -75.7 -32.05 -76.0 -32.05 -76.3 -32.05 -76.55 -32.05 -76.8 -32.0 -77.05 -32.0 -77.25 -32.0 -77.5 -32.0 -78.55 -32.0 -80.8 -31.9 -83.0 -31.8 -84.15 -31.8 -85.15 -31.8 -84.75 -31.8 -85.1 -31.8 -85.35 -31.8 -85.65 -31.75 -85.95 -31.75 -86.25 -31.7 -86.5 -31.65 -86.75 -31.65 -87.0 -31.55 -87.25 -31.5 -87.5 -31.4 -87.7 -31.3 -87.9 -31.15 -88.1 -31.0 -88.3 -30.8 -88.3 -30.8 -88.35 -30.75 -88.4 -30.7 -88.45 -30.65 -88.5 -30.55 -88.5 -30.5 -88.55 -30.45 -88.6 -30.35 -88.65 -30.3 -88.7 -30.2 -88.7 -30.1 -88.75 -30.05 -88.75 -29.95 -88.75 -29.85 -88.75 -29.75 -88.75 -29.65 -88.7 -29.55 -88.65 -29.45 -88.6 -29.35 -88.55 -29.3 -88.5 -29.2 -88.4 -29.15 -88.3 -29.1 -88.2 -29.05 -88.1 -29.0 -88.0 -28.95 -87.95 -28.9 -87.85 -28.85 -87.75 -28.8 -87.65 -28.8 -87.6 -28.75 -87.55 -28.75 -82.25 -27.0 -79.15 -26.15 -78.15 -25.95 -77.15 -25.7 -76.65 -25.65 -76.2 -25.55 -75.65 -25.5 -75.15 -25.4 -74.6 -25.3 -74.0 -25.2 -73.4 -25.05 -72.8 -24.95 -72.15 -24.8 -71.5 -24.65 -70.8 -24.5 -70.15 -24.3 -69.4 -24.1 -68.65 -23.9 -67.9 -23.7 -67.15 -23.45 -71.6 -23.0 -80.55 -22.0 -80.15 -21.85 -79.75 -21.7 -79.35 -21.5 -78.95 -21.35 -78.5 -21.2 -78.1 -21.05 -77.65 -20.9 -77.25 -20.75 -76.8 -20.6 -76.4 -20.45 -75.95 -20.3 -75.5 -20.15 -75.05 -20.0 -74.6 -19.85 -74.15 -19.7 -73.7 -19.55 -72.65 -19.25 -71.6 -18.95 -70.6 -18.65 -69.55 -18.4 -68.55 -18.15 -67.55 -17.95 -66.6 -17.7 -65.6 -17.55 -64.65 -17.35 -63.7 -17.2 -62.8 -17.05 -61.9 -16.9 -61.0 -16.8 -60.1 -16.7 -59.25 -16.6 -58.4 -16.5 -63.5 -15.6 -73.75 -13.8 -73.6 -13.75 -73.45 -13.65 -73.3 -13.6 -73.15 -13.5 -72.95 -13.4 -72.75 -13.35 -72.55 -13.25 -72.35 -13.15 -72.15 -13.05 -71.9 -12.95 -71.7 -12.85 -71.45 -12.8 -71.2 -12.65 -70.95 -12.55 -70.7 -12.45 -70.4 -12.35 -69.9 -12.15 -69.45 -12.0 -68.9 -11.8 -68.35 -11.65 -67.7 -11.45 -66.95 -11.25 -66.15 -11.05 -65.3 -10.85 -64.3 -10.65 -63.25 -10.45 -62.1 -10.2 -60.8 -10.0 -59.45 -9.8 -57.95 -9.6 -56.35 -9.4 -54.55 -9.2 -54.1 -9.15 -53.6 -9.1 -53.1 -9.05 -52.6 -9.0 -52.05 -8.95 -51.5 -8.9 -50.9 -8.85 -50.3 -8.8 -49.7 -8.75 -49.05 -8.7 -48.4 -8.65 -47.75 -8.6 -47.05 -8.6 -46.35 -8.55 -45.65 -8.5 -44.9 -8.45 -50.35 -7.3 -61.15 -4.95 -60.95 -4.85 -60.75 -4.8 -60.5 -4.7 -60.3 -4.6 -60.05 -4.5 -59.8 -4.45 -59.5 -4.35 -59.25 -4.25 -58.95 -4.15 -58.65 -4.05 -58.35 -3.95 -58.0 -3.85 -57.65 -3.7 -57.35 -3.6 -57.0 -3.5 -56.65 -3.4 -55.6 -3.1 -54.55 -2.85 -53.55 -2.6 -52.5 -2.4 -51.55 -2.2 -50.55 -2.05 -49.6 -1.9 -48.6 -1.8 -47.65 -1.7 -46.65 -1.6 -45.75 -1.5 -44.7 -1.45 -43.8 -1.4 -42.7 -1.35 -41.9 -1.3 -40.6 -1.2 -40.1 -1.2 -39.65 -1.15 -39.1 -1.15 -38.6 -1.15 -38.0 -1.1 -37.45 -1.1 -36.85 -1.1 -36.3 -1.1 -35.65 -1.05 -35.0 -1.05 -34.35 -1.05 -33.7 -1.05 -33.0 -1.05 -32.3 -1.1 -31.55 -1.1 -30.85 -1.1 -31.3 -1.0 -31.7 -0.9 -32.15 -0.8 -32.6 -0.7 -33.0 -0.6 -33.45 -0.5 -33.9 -0.45 -34.35 -0.35 -34.8 -0.25 -35.25 -0.15 -35.7 -0.05 -36.15 0.05 -36.6 0.1 -37.05 0.2 -37.5 0.3 -37.95 0.4 -38.55 0.5 -39.1 0.6 -39.7 0.7 -40.3 0.8 -40.85 0.9 -41.45 1.0 -42.0 1.1 -42.6 1.2 -43.15 1.3 -43.7 1.4 -44.25 1.45 -44.85 1.55 -45.4 1.65 -45.95 1.7 -46.5 1.8 -47.05 1.9 -45.4 2.65 -44.45 3.05 -43.95 3.25 -43.5 3.4 -43.05 3.55 -42.55 3.65 -42.15 3.8 -41.7 3.9 -41.3 4.0 -40.9 4.05 -40.55 4.15 -40.2 4.2 -39.85 4.25 -39.55 4.3 -39.25 4.35 -38.95 4.4 -38.8 4.4 -38.5 4.45 -37.9 4.55 -37.1 4.6 -36.35 4.7 -35.4 4.75 -34.45 4.8 -33.4 4.85 -32.3 4.9 -31.1 4.9 -29.9 4.95 -28.55 4.95 -27.2 4.95 -25.75 4.9 -24.25 4.9 -22.7 4.85 -21.1 4.8 -19.45 4.7 -19.8 4.8 -20.1 4.95 -20.45 5.05 -20.8 5.2 -21.15 5.3 -21.5 5.4 -21.85 5.55 -22.2 5.65 -22.55 5.75 -22.9 5.85 -23.25 6.0 -23.6 6.1 -23.95 6.2 -24.3 6.3 -24.65 6.45 -25.05 6.55 -26.35 6.95 -27.65 7.25 -28.9 7.6 -30.15 7.9 -31.4 8.2 -32.65 8.45 -33.85 8.7 -35.1 8.9 -36.25 9.1 -37.45 9.3 -38.6 9.45 -39.8 9.6 -40.9 9.75 -42.05 9.85 -43.15 9.95 -44.2 10.05 -44.0 10.15 -43.8 10.25 -43.65 10.3 -43.45 10.4 -43.25 10.5 -43.05 10.6 -42.85 10.65 -42.65 10.75 -42.45 10.85 -42.25 10.95 -42.0 11.0 -41.8 11.1 -41.6 11.2 -41.4 11.25 -41.15 11.35 -40.95 11.4 -39.7 11.85 -38.4 12.2 -37.15 12.5 -35.85 12.75 -34.65 12.95 -33.45 13.05 -32.3 13.15 -31.1 13.2 -30.0 13.25 -28.9 13.2 -27.85 13.15 -26.8 13.05 -25.85 12.95 -24.9 12.8 -24.0 12.7 -23.15 12.5 -23.45 12.65 -23.75 12.75 -24.05 12.9 -24.4 13.0 -24.7 13.1 -25.0 13.25 -25.35 13.35 -25.65 13.5 -26.0 13.6 -26.3 13.7 -26.65 13.85 -27.0 13.95 -27.35 14.05 -27.65 14.2 -28.0 14.3 -28.35 14.4 -29.2 14.65 -30.05 14.9 -30.85 15.15 -31.7 15.35 -32.5 15.55 -33.35 15.75 -34.1 15.9 -34.9 16.05 -35.7 16.2 -36.45 16.35 -37.2 16.45 -37.95 16.6 -38.65 16.7 -39.4 16.8 -40.1 16.85 -40.75 16.95 -40.5 17.05 -40.3 17.1 -40.05 17.2 -39.85 17.25 -39.6 17.35 -39.35 17.4 -39.15 17.5 -38.9 17.55 -38.65 17.65 -38.4 17.7 -38.15 17.8 -37.9 17.85 -37.7 17.95 -37.45 18.0 -37.2 18.05 -36.95 18.15 -35.5 18.55 -34.0 18.85 -32.55 19.1 -31.1 19.3 -29.7 19.5 -28.3 19.6 -26.95 19.7 -25.6 19.7 -24.3 19.7 -23.0 19.65 -21.75 19.6 -20.55 19.5 -19.35 19.4 -18.2 19.25 -17.1 19.15 -16.0 18.95 -16.2 19.05 -16.4 19.15 -16.6 19.2 -16.8 19.3 -17.0 19.4 -17.2 19.5 -17.4 19.55 -17.6 19.65 -17.8 19.75 -18.0 19.8 -18.25 19.9 -18.45 20.0 -18.65 20.1 -18.85 20.15 -19.1 20.25 -19.3 20.3 -20.35 20.7 -21.45 21.05 -22.5 21.35 -23.6 21.65 -24.6 21.9 -25.65 22.15 -26.65 22.35 -27.65 22.5 -28.6 22.65 -29.6 22.75 -30.55 22.85 -31.5 22.9 -32.35 23.0 -33.25 23.0 -34.1 23.05 -34.95 23.0 -34.85 23.1 -34.75 23.2 -34.65 23.3 -34.5 23.35 -34.4 23.45 -34.25 23.55 -34.1 23.7 -33.95 23.8 -33.8 23.9 -33.65 24.0 -33.5 24.1 -33.3 24.2 -33.15 24.3 -32.95 24.4 -32.75 24.5 -32.55 24.65 -32.1 24.9 -31.65 25.05 -31.2 25.25 -30.75 25.4 -30.3 25.55 -29.85 25.7 -29.4 25.8 -28.95 25.9 -28.5 26.0 -28.05 26.05 -27.6 26.1 -27.1 26.15 -26.7 26.2 -26.2 26.2 -25.75 26.2 -25.25 26.25 -24.1 26.25 -22.85 26.25 -21.7 26.2 -20.5 26.1 -19.35 26.05 -18.2 25.9 -17.1 25.8 -16.0 25.65 -15.05 25.5 -14.05 25.35 -13.2 25.25 -12.35 25.1 -11.65 24.95 -11.0 24.85 -10.5 24.75 -10.0 24.65 -10.25 24.8 -10.55 24.95 -10.8 25.1 -11.1 25.25 -11.4 25.35 -11.65 25.5 -11.95 25.65 -12.25 25.8 -12.55 25.95 -12.85 26.1 -13.15 26.25 -13.45 26.35 -13.75 26.5 -14.05 26.65 -14.4 26.8 -14.7 26.95 -15.75 27.4 -16.85 27.8 -17.9 28.2 -19.0 28.55 -20.0 28.9 -21.05 29.2 -22.05 29.5 -23.1 29.75 -24.05 30.0 -25.05 30.2 -26.0 30.4 -26.95 30.6 -27.85 30.75 -28.75 30.9 -29.6 31.0 -30.5 31.1 -30.35 31.15 -30.2 31.25 -30.0 31.3 -29.85 31.35 -29.7 31.4 -29.55 31.5 -29.35 31.55 -29.2 31.6 -29.05 31.65 -28.85 31.7 -28.7 31.75 -28.55 31.85 -28.35 31.9 -28.2 31.95 -28.0 32.0 -27.85 32.05 -26.5 32.45 -25.15 32.7 -23.85 32.9 -22.5 33.0 -21.25 33.1 -19.95 33.1 -18.75 33.05 -17.5 32.95 -16.35 32.85 -15.2 32.65 -14.15 32.45 -13.05 32.2 -12.1 32.0 -11.1 31.7 -10.25 31.45 -9.35 31.1 -9.6 31.25 -9.85 31.4 -10.1 31.5 -10.4 31.65 -10.65 31.8 -10.9 31.95 -11.2 32.05 -11.45 32.2 -11.75 32.35 -12.0 32.45 -12.3 32.6 -12.6 32.75 -12.9 32.85 -13.2 33.0 -13.45 33.1 -13.8 33.25 -14.65 33.6 -15.5 33.9 -16.35 34.25 -17.15 34.5 -18.0 34.75 -18.8 35.0 -19.6 35.2 -20.4 35.4 -21.15 35.6 -21.95 35.75 -22.65 35.9 -23.4 36.05 -24.1 36.2 -24.85 36.3 -25.5 36.4 -26.2 36.45 -26.0 36.55 -25.75 36.65 -25.55 36.7 -25.3 36.8 -25.05 36.9 -24.85 36.95 -24.6 37.05 -24.4 37.1 -24.15 37.2 -23.9 37.25 -23.65 37.35 -23.45 37.4 -23.2 37.5 -22.95 37.55 -22.7 37.6 -22.45 37.65 -20.65 38.1 -18.8 38.3 -17.05 38.5 -15.3 38.5 -13.6 38.45 -11.95 38.25 -10.35 38.05 -8.8 37.7 -7.35 37.4 -5.9 36.95 -4.55 36.55 -3.25 36.05 -2.1 35.6 -0.95 35.1 0.0 34.65 1.0 34.15 0.9 34.25 0.85 34.35 0.75 34.5 0.65 34.6 0.55 34.7 0.4 34.85 0.3 34.95 0.2 35.1 0.05 35.25 -0.05 35.35 -0.2 35.5 -0.35 35.65 -0.5 35.8 -0.65 35.95 -0.8 36.1 -0.95 36.25 -1.4 36.65 -1.9 37.0 -2.35 37.35 -2.8 37.7 -3.25 38.0 -3.7 38.25 -4.15 38.5 -4.6 38.75 -5.0 38.95 -5.45 39.15 -5.85 39.35 -6.3 39.55 -6.65 39.7 -7.05 39.85 -7.3 39.95 -7.8 40.15 -8.4 40.4 -18.9 44.45 -18.1 44.75 -17.7 44.9 -16.85 45.2 -15.95 45.4 -15.15 45.55 -14.3 45.65 -13.5 45.75 -12.65 45.8 -11.9 45.8 -11.1 45.75 -10.4 45.7 -9.6 45.65 -8.95 45.55 -8.2 45.4 -7.6 45.3 -6.9 45.15 -6.4 45.05 -5.7 44.9 -4.9 44.7 -4.1 44.5 -3.3 44.3 -2.55 44.05 -1.8 43.8 -1.1 43.55 -0.4 43.25 0.3 43.0 0.95 42.7 1.55 42.4 2.2 42.1 2.8 41.8 3.35 41.5 3.9 41.15 4.45 40.85 4.95 40.55 4.85 40.65 4.75 40.8 4.6 40.9 4.5 41.0 4.35 41.15 4.2 41.3 4.05 41.45 3.9 41.55 3.75 41.7 3.6 41.85 3.4 42.05 3.25 42.2 3.05 42.35 2.85 42.5 2.7 42.65 2.5 42.85 2.25 43.05 2.0 43.25 1.7 43.45 1.4 43.7 1.1 43.9 0.75 44.15 0.4 44.4 0.0 44.65 -0.45 44.95 -0.95 45.2 -1.45 45.55 -2.0 45.85 -2.6 46.15 -3.25 46.5 -3.95 46.9 -4.7 47.25 -5.1 47.45 -5.55 47.65 -6.0 47.9 -6.45 48.1 -6.95 48.35 -7.45 48.55 -7.95 48.8 -8.45 49.05 -9.0 49.3 -9.6 49.5 -10.15 49.75 -10.75 50.0 -11.35 50.25 -11.95 50.5 -12.6 50.75 -13.25 51.0 -13.1 51.05 -13.0 51.1 -12.85 51.15 -12.7 51.2 -12.55 51.25 -12.35 51.3 -12.2 51.35 -12.05 51.4 -11.85 51.45 -11.65 51.5 -11.45 51.55 -11.25 51.6 -11.05 51.65 -10.85 51.7 -10.6 51.75 -10.4 51.8 -9.8 51.9 -9.25 51.95 -8.7 52.05 -8.15 52.05 -7.65 52.1 -7.1 52.05 -6.65 52.05 -6.15 52.05 -5.7 52.0 -5.25 51.95 -4.85 51.9 -4.45 51.85 -4.1 51.75 -3.7 51.7 -3.45 51.65 -3.05 51.55 -1.95 51.35 -0.75 51.0 0.35 50.65 1.5 50.25 2.5 49.85 3.6 49.4 4.55 48.95 5.5 48.5 6.35 48.05 7.2 47.6 7.95 47.2 8.65 46.75 9.2 46.45 9.75 46.1 10.15 45.85 10.5 45.6 10.4 45.75 10.25 45.95 10.15 46.1 10.0 46.3 9.85 46.5 9.7 46.65 9.55 46.9 9.4 47.1 9.2 47.3 9.0 47.5 8.85 47.75 8.65 47.95 8.45 48.2 8.2 48.4 8.0 48.65 7.75 48.85 7.45 49.15 7.15 49.45 6.85 49.75 6.55 50.0 6.25 50.25 5.95 50.55 5.65 50.8 5.35 51.05 5.05 51.25 4.7 51.5 4.4 51.75 4.05 52.0 3.7 52.25 3.35 52.5 3.0 52.7 2.6 53.0 2.2 53.3 1.75 53.55 1.3 53.85 0.9 54.15 0.4 54.45 -0.05 54.8 -0.6 55.1 -1.1 55.45 -1.6 55.8 -2.15 56.1 -2.7 56.45 -3.25 56.8 -3.85 57.2 -4.45 57.55 -5.05 57.9 -5.7 58.3 -5.5 58.3 -5.3 58.35 -5.05 58.35 -4.85 58.35 -4.6 58.35 -4.35 58.35 -4.05 58.35 -3.8 58.35 -3.55 58.35 -3.25 58.35 -2.95 58.35 -2.7 58.35 -2.35 58.3 -2.05 58.3 -1.75 58.25 -1.4 58.25 -0.9 58.2 -0.4 58.1 0.05 58.05 0.55 57.95 1.05 57.85 1.5 57.7 2.0 57.6 2.5 57.45 2.95 57.3 3.45 57.1 3.95 56.95 4.45 56.75 5.0 56.55 5.5 56.3 6.05 56.1 6.6 55.8 7.75 55.3 8.85 54.7 9.85 54.2 10.85 53.65 11.7 53.15 12.6 52.65 13.3 52.2 14.05 51.75 14.45 51.45 15.2 51.0 15.8 50.6 16.05 50.45 16.4 50.2 16.6 50.1 16.8 50.0 16.85 50.05 16.9 50.1 16.8 50.25 16.75 50.4 16.6 50.6 16.45 50.8 16.2 51.1 15.95 51.35 15.65 51.7 15.3 52.0 14.95 52.35 14.6 52.7 14.2 53.1 13.75 53.45 13.35 53.8 12.85 54.2 12.4 54.55 12.05 54.8 11.75 55.05 11.45 55.3 11.1 55.5 10.8 55.7 10.45 55.95 10.15 56.15 9.7 56.45 9.45 56.6 8.85 56.95 8.2 57.4 7.85 57.6 7.2 58.05 6.6 58.4 5.85 58.9 5.1 59.4 3.85 60.2 2.4 61.15 2.55 61.2 2.75 61.25 2.95 61.3 3.15 61.35 3.35 61.4 3.55 61.45 3.75 61.5 4.0 61.55 4.2 61.6 4.45 61.6 4.7 61.65 4.95 61.7 5.25 61.7 5.5 61.75 5.75 61.75 6.05 61.75 6.25 61.75 6.45 61.75 6.75 61.75 7.0 61.75 7.35 61.7 7.7 61.7 8.1 61.65 8.5 61.55 9.0 61.45 9.5 61.35 10.05 61.2 10.65 61.0 11.3 60.8 11.95 60.55 12.7 60.3 13.5 59.95 13.9 59.8 14.3 59.6 14.7 59.4 15.15 59.2 15.6 59.0 16.05 58.8 16.5 58.55 17.0 58.3 17.5 58.0 18.0 57.75 18.5 57.45 19.0 57.1 19.55 56.8 20.1 56.45 20.65 56.1 21.2 55.7 21.15 55.8 21.05 55.9 21.0 56.05 20.9 56.15 20.85 56.25 20.75 56.4 20.65 56.55 20.55 56.65 20.5 56.8 20.35 56.95 20.25 57.1 20.15 57.25 20.05 57.4 19.9 57.55 19.8 57.75 19.65 57.9 19.4 58.2 19.15 58.5 18.9 58.75 18.65 59.05 18.4 59.3 18.1 59.55 17.8 59.8 17.5 60.1 17.15 60.35 16.8 60.7 16.45 60.95 16.0 61.3 15.6 61.6 15.1 62.0 14.65 62.35 14.05 62.85 12.85 63.75 9.6 66.15 9.75 66.15 9.9 66.2 10.0 66.2 10.15 66.25 10.3 66.25 10.45 66.25 10.6 66.3 10.75 66.3 10.9 66.3 11.05 66.3 11.2 66.35 11.35 66.35 11.5 66.35 11.65 66.35 11.8 66.4 11.95 66.4 12.4 66.4 12.85 66.45 13.3 66.45 13.75 66.45 14.2 66.4 14.6 66.4 15.05 66.4 15.45 66.35 15.85 66.3 16.25 66.25 16.65 66.2 17.0 66.15 17.4 66.1 17.75 66.05 18.1 66.0 18.45 65.95 22.75 59.9 31.4 47.9 29.7 48.8 26.4 50.6 29.1 47.35 34.5 40.8 34.25 40.9 34.0 41.0 33.75 41.15 33.5 41.25 33.2 41.35 32.95 41.45 32.7 41.6 32.4 41.7 32.15 41.8 31.85 41.9 31.6 42.0 31.3 42.15 31.05 42.25 30.75 42.35 30.45 42.45 30.15 42.55 29.5 42.8 28.85 43.0 28.2 43.2 27.55 43.4 26.9 43.6 26.3 43.75 25.65 43.95 25.05 44.1 24.45 44.2 23.85 44.35 23.25 44.5 22.7 44.6 22.1 44.7 21.55 44.8 21.0 44.9 20.45 44.95 25.15 41.9 34.6 35.7 34.05 35.85 33.45 36.05 32.9 36.2 32.3 36.35 31.7 36.55 31.1 36.7 30.45 36.85 29.85 37.0 29.2 37.15 28.55 37.3 27.9 37.45 27.25 37.6 26.55 37.75 25.9 37.85 25.2 38.0 24.5 38.15 23.75 38.25 23.05 38.4 22.35 38.5 21.6 38.6 20.9 38.7 20.25 38.8 19.55 38.85 18.85 38.95 18.2 39.0 17.55 39.05 16.9 39.15 16.25 39.2 15.65 39.25 15.0 39.25 14.4 39.3 13.8 39.35 19.85 36.65 32.05 31.25 32.0 30.95 31.85 30.4 31.55 30.45 31.25 30.5 30.95 30.55 30.6 30.55 30.25 30.6 29.95 30.65 29.55 30.7 29.2 30.75 28.85 30.8 28.45 30.85 28.05 30.9 27.65 30.9 27.25 30.95 26.85 31.0 26.4 31.05 26.0 31.05 25.6 31.1 25.2 31.1 24.75 31.15 24.25 31.15 23.7 31.2 23.15 31.2 22.55 31.25 21.95 31.25 21.25 31.25 20.6 31.3 19.85 31.3 19.1 31.3 18.35 31.25 17.55 31.25 16.7 31.2 15.85 31.2 15.35 31.15 14.8 31.15 14.3 31.1 13.75 31.05 13.2 31.0 12.65 30.95 12.05 30.9 11.45 30.85 10.85 30.75 10.25 30.7 9.65 30.6 9.05 30.55 8.4 30.45 7.75 30.35 7.1 30.25 6.45 30.15 12.85 28.75 25.8 25.95 25.6 25.6 25.25 24.9 24.9 24.95 24.55 25.0 24.25 25.05 23.9 25.1 23.55 25.1 23.2 25.15 22.85 25.2 22.5 25.25 22.15 25.25 21.8 25.3 21.45 25.3 21.05 25.35 20.7 25.35 20.35 25.4 19.95 25.4 19.6 25.45 18.35 25.5 17.05 25.5 15.85 25.5 14.6 25.45 13.45 25.4 12.25 25.3 11.1 25.25 10.0 25.1 8.9 25.0 7.8 24.8 6.75 24.65 5.75 24.5 4.75 24.3 3.75 24.1 2.85 23.9 1.9 23.65 7.15 22.25 17.65 19.5 17.3 19.5 16.9 19.5 16.5 19.5 16.15 19.5 15.75 19.55 15.35 19.5 15.0 19.5 14.6 19.5 14.2 19.5 13.8 19.5 13.4 19.5 13.0 19.45 12.6 19.45 12.2 19.45 11.8 19.4 11.4 19.4 10.3 19.35 9.2 19.25 8.15 19.15 7.1 19.05 6.1 18.95 5.05 18.8 4.05 18.65 3.05 18.5 2.1 18.35 1.15 18.2 0.2 18.05 -0.7 17.85 -1.6 17.65 -2.5 17.45 -3.4 17.25 -4.25 17.05 -1.15 15.8 5.2 13.25 4.9 13.25 4.55 13.25 4.25 13.2 3.9 13.2 3.55 13.2 3.25 13.15 2.9 13.15 2.55 13.1 2.2 13.1 1.85 13.05 1.45 13.0 1.1 12.95 0.75 12.9 0.35 12.85 0.0 12.8 -0.4 12.75 -1.25 12.6 -2.1 12.4 -2.9 12.25 -3.65 12.0 -4.4 11.8 -5.15 11.55 -5.85 11.35 -6.55 11.1 -7.25 10.85 -7.9 10.55 -8.5 10.3 -9.1 10.0 -9.65 9.75 -10.25 9.5 -10.75 9.2 -11.25 8.95 -8.3 8.5 -2.4 7.6 -2.8 7.5 -3.2 7.45 -3.65 7.35 -4.05 7.25 -4.45 7.15 -4.9 7.05 -5.3 6.95 -5.75 6.85 -6.2 6.75 -6.6 6.65 -7.05 6.5 -7.5 6.4 -7.95 6.3 -8.4 6.15 -8.85 6.05 -9.3 5.9 -9.65 5.8 -10.0 5.7 -10.35 5.6 -10.7 5.5 -11.0 5.4 -11.35 5.25 -11.7 5.15 -12.0 5.05 -12.35 4.95 -12.7 4.85 -13.0 4.75 -13.3 4.6 -13.65 4.5 -13.95 4.4 -14.25 4.3 -14.6 4.2 -11.15 3.65 -4.25 2.6 -4.55 2.55 -4.85 2.45 -5.15 2.4 -5.4 2.3 -5.7 2.25 -6.0 2.15 -6.3 2.05 -6.6 2.0 -6.9 1.9 -7.2 1.8 -7.5 1.75 -7.8 1.65 -8.1 1.55 -8.4 1.5 -8.7 1.4 -9.0 1.3 -9.65 1.1 -10.3 0.9 -10.9 0.7 -11.55 0.5 -12.15 0.3 -12.8 0.1 -13.4 -0.1 -14.0 -0.3 -14.6 -0.5 -15.2 -0.75 -15.75 -0.95 -16.35 -1.15 -16.9 -1.35 -17.5 -1.6 -18.05 -1.8 -18.6 -2.05 -15.95 -2.55 -10.75 -3.55 -11.05 -3.65 -11.35 -3.7 -11.65 -3.8 -11.95 -3.9 -12.3 -4.0 -12.6 -4.1 -12.9 -4.2 -13.25 -4.3 -13.55 -4.4 -13.9 -4.5 -14.2 -4.6 -14.55 -4.75 -14.9 -4.85 -15.2 -5.0 -15.55 -5.1 -15.9 -5.25 -16.45 -5.45 -17.05 -5.7 -17.6 -5.95 -18.15 -6.2 -18.65 -6.45 -19.2 -6.7 -19.7 -6.9 -20.2 -7.2 -20.65 -7.45 -21.15 -7.7 -21.6 -7.95 -22.05 -8.2 -22.45 -8.45 -22.9 -8.7 -23.3 -8.95 -23.7 -9.2 -19.7 -9.0 -11.75 -8.55 -12.2 -8.65 -12.65 -8.8 -13.1 -8.95 -13.55 -9.1 -14.05 -9.25 -14.5 -9.4 -15.05 -9.6 -15.5 -9.8 -16.05 -10.0 -16.55 -10.2 -17.1 -10.45 -17.6 -10.7 -18.15 -10.95 -18.7 -11.2 -19.25 -11.5 -19.8 -11.8 -20.15 -12.0 -20.5 -12.2 -20.85 -12.4 -21.2 -12.6 -21.5 -12.75 -21.85 -12.95 -22.15 -13.15 -22.45 -13.35 -22.75 -13.55 -23.05 -13.75 -23.35 -13.95 -23.6 -14.15 -23.9 -14.35 -24.15 -14.55 -24.45 -14.75 -24.7 -14.95 -21.1 -15.45 -15.55 -16.2 -15.85 -16.3 -16.1 -16.4 -16.4 -16.5 -16.7 -16.6 -17.0 -16.7 -17.3 -16.8 -17.6 -16.95 -17.9 -17.05 -18.2 -17.15 -18.5 -17.3 -18.8 -17.4 -19.1 -17.55 -19.4 -17.7 -19.7 -17.8 -20.0 -17.95 -20.3 -18.1 -21.05 -18.45 -21.8 -18.85 -22.5 -19.2 -23.2 -19.6 -23.85 -20.0 -24.5 -20.4 -25.15 -20.8 -25.75 -21.2 -26.35 -21.6 -26.9 -22.0 -27.45 -22.4 -28.0 -22.8 -28.5 -23.2 -29.0 -23.6 -29.45 -24.0 -29.9 -24.35 -29.6 -24.25 -29.3 -24.15 -29.0 -24.05 -28.7 -23.95 -28.4 -23.85 -28.05 -23.75 -27.75 -23.65 -27.4 -23.55 -27.05 -23.45 -26.7 -23.4 -26.35 -23.3 -26.0 -23.2 -25.65 -23.1 -25.25 -23.05 -24.9 -22.95 -24.5 -22.9 -24.0 -22.8 -23.5 -22.7 -23.0 -22.6 -22.5 -22.55 -22.0 -22.5 -21.5 -22.4 -21.05 -22.35 -20.6 -22.3 -20.15 -22.3 -19.7 -22.25 -19.25 -22.2 -18.8 -22.2 -18.4 -22.2 -18.0 -22.2 -17.6 -22.15 -17.2 -22.2 -17.5 -22.3 -17.8 -22.4 -18.1 -22.5 -18.45 -22.65 -18.75 -22.75 -19.05 -22.9 -19.35 -23.0 -19.65 -23.15 -20.0 -23.25 -20.3 -23.4 -20.6 -23.55 -20.95 -23.65 -21.25 -23.8 -21.6 -23.95 -21.9 -24.1 -22.2 -24.25 -23.85 -25.05 -25.4 -25.9 -26.9 -26.75 -28.35 -27.7 -29.75 -28.65 -31.05 -29.65 -32.35 -30.6 -33.55 -31.6 -34.7 -32.6 -35.8 -33.6 -36.8 -34.6 -37.8 -35.65 -38.75 -36.6 -39.65 -37.6 -40.45 -38.55 -41.25 -39.55 -41.05 -39.45 -40.85 -39.3 -40.65 -39.2 -40.45 -39.05 -40.2 -38.9 -39.95 -38.75 -39.7 -38.6 -39.45 -38.45 -39.2 -38.3 -38.9 -38.15 -38.65 -38.0 -38.35 -37.85 -38.05 -37.65 -37.75 -37.5 -37.4 -37.3 -37.1 -37.15 -36.2 -36.65 -35.7 -36.35 -34.95 -35.95 -34.35 -35.65 -33.7 -35.25 -33.15 -34.95 -32.5 -34.65 -31.95 -34.35 -31.35 -34.05 -30.8 -33.8 -30.2 -33.55 -29.65 -33.3 -29.05 -33.05 -28.45 -32.85 -27.85 -32.6 -27.2 -32.4 -26.9 -32.3 -26.6 -32.2 -26.25 -32.1 -25.9 -32.0 -25.55 -31.9 -25.2 -31.8 -24.8 -31.7 -24.4 -31.65 -23.95 -31.55 -23.55 -31.45 -23.05 -31.35 -22.6 -31.25 -22.15 -31.2 -21.65 -31.1 -21.15 -31.05 -20.6 -31.0 -21.1 -31.25 -21.6 -31.55 -22.15 -31.85 -22.7 -32.2 -23.25 -32.5 -23.85 -32.85 -24.45 -33.25 -25.05 -33.6 -25.7 -34.05 -26.35 -34.45 -27.0 -34.9 -27.65 -35.35 -28.35 -35.8 -29.0 -36.3 -29.75 -36.85 -30.45 -37.35 -34.2 -40.25 -36.5 -42.45 -36.95 -42.9 -37.4 -43.3 -37.85 -43.8 -38.35 -44.3 -38.85 -44.85 -39.3 -45.4 -39.85 -45.95 -40.35 -46.6 -40.85 -47.2 -41.4 -47.9 -41.95 -48.55 -42.45 -49.3 -43.0 -50.05 -43.55 -50.8 -44.1 -51.65 -44.6 -52.45 -44.35 -52.3 -44.15 -52.1 -43.9 -51.95 -43.65 -51.8 -43.45 -51.65 -43.25 -51.5 -43.05 -51.35 -42.85 -51.2 -42.65 -51.1 -42.45 -50.95 -42.3 -50.85 -42.1 -50.75 -41.95 -50.6 -41.8 -50.5 -41.65 -50.45 -41.5 -50.35 -40.7 -49.8 -39.9 -49.3 -39.15 -48.85 -38.4 -48.45 -37.7 -48.05 -37.0 -47.7 -36.4 -47.35 -35.7 -47.0 -35.15 -46.7 -34.4 -46.35 -26.35 -42.3 -33.1 -45.7 -32.35 -45.3 -31.75 -45.0 -31.0 -44.6 -30.3 -44.25 -29.95 -44.0 -28.5 -43.4 -26.7 -42.65 -26.65 -42.75 L-26.65 -42.75" fill="#00e6f3" fill-rule="evenodd" stroke="none"/>
  </g>
</svg>
