<?xml version="1.0" encoding="UTF-8" standalone="no"?>
<svg xmlns:xlink="http://www.w3.org/1999/xlink" height="300.0px" width="300.0px" xmlns="http://www.w3.org/2000/svg">
  <g transform="matrix(1.0, 0.0, 0.0, 1.0, 150.0, 150.0)">
    <path d="M31.65 118.55 Q31.65 118.55 31.65 118.55 31.65 118.6 31.7 118.55 31.7 118.55 31.75 118.55 31.7 118.5 31.65 118.55 L31.65 118.55" fill="#0e0096" fill-rule="evenodd" stroke="none"/>
    <path d="M31.55 118.4 Q31.55 118.5 31.55 118.7 31.55 118.65 31.6 118.6 31.6 118.6 31.65 118.55 31.6 118.55 31.6 118.5 31.55 118.5 31.55 118.4 L31.55 118.4" fill="#0e0096" fill-rule="evenodd" stroke="none"/>
    <path d="M108.85 29.9 Q108.9 29.8 109.0 29.75 109.05 29.65 109.1 29.55 109.2 29.5 109.25 29.4 109.35 29.3 109.4 29.25 109.5 29.15 109.55 29.1 109.65 29.0 109.75 28.95 109.8 28.85 109.9 28.8 109.95 28.75 110.05 28.65 110.2 28.5 110.4 28.4 110.55 28.25 110.75 28.15 110.9 28.05 111.1 27.9 111.25 27.8 111.45 27.7 111.6 27.6 111.8 27.5 112.0 27.4 112.15 27.3 112.35 27.2 112.55 27.1 112.75 27.05 112.95 26.95 113.05 26.9 113.15 26.85 113.25 26.8 113.3 26.8 113.45 26.75 113.5 26.7 113.6 26.65 113.7 26.65 113.8 26.6 113.9 26.55 114.0 26.5 114.1 26.5 114.2 26.45 114.3 26.45 114.4 26.4 114.5 26.4 115.55 26.2 115.65 26.15 115.7 26.15 115.75 26.1 115.75 26.05 115.8 26.05 115.8 26.05 115.85 26.0 115.85 26.0 115.9 25.95 115.95 25.95 115.95 25.95 116.0 25.9 116.0 25.9 116.05 25.9 116.05 25.85 116.1 25.85 116.1 25.85 116.15 25.85 116.2 25.8 L116.2 25.1 Q116.2 25.1 116.15 25.05 116.1 25.0 116.1 25.0 116.05 24.8 116.0 24.55 115.95 24.35 115.9 24.15 115.8 23.95 115.75 23.7 115.65 23.5 115.55 23.3 115.45 23.1 115.35 22.9 115.3 22.75 115.15 22.55 115.05 22.35 114.95 22.15 114.85 21.95 114.7 21.75 114.6 21.55 114.45 21.35 114.3 21.15 114.2 21.0 114.05 20.8 113.9 20.6 113.75 20.4 113.6 20.25 113.5 20.05 113.3 19.85 113.2 19.7 113.0 19.5 112.9 19.35 112.7 19.15 112.55 19.0 112.4 18.8 112.05 18.4 110.25 16.45 110.05 16.2 109.85 16.0 109.7 15.75 109.5 15.5 109.35 15.3 109.2 15.05 109.05 14.8 108.9 14.55 108.75 14.3 108.6 14.0 108.5 13.75 108.35 13.5 108.25 13.2 108.15 12.95 108.05 12.65 107.95 12.35 107.85 12.05 107.75 11.75 107.65 11.45 107.5 11.15 107.4 10.9 107.25 10.6 107.1 10.3 106.95 10.05 106.8 9.8 106.65 9.5 106.45 9.25 106.25 9.0 106.1 8.75 105.9 8.5 105.7 8.25 105.45 8.05 105.2 7.8 105.0 7.5 104.8 7.25 104.55 6.95 104.35 6.7 104.15 6.4 103.95 6.1 103.8 5.8 103.6 5.55 103.4 5.25 103.25 4.95 103.05 4.6 102.9 4.3 102.75 4.0 102.6 3.7 102.45 3.35 102.35 3.15 102.25 2.9 102.2 2.7 102.1 2.45 102.0 2.25 101.9 2.0 101.85 1.8 101.75 1.55 101.7 1.35 101.6 1.1 101.5 0.9 101.45 0.65 101.35 0.45 101.3 0.2 101.25 -0.05 101.15 -0.25 101.0 -0.8 99.85 -5.35 99.0 -8.8 98.3 -10.95 98.15 -11.35 98.05 -11.75 97.9 -12.2 97.8 -12.6 97.7 -13.0 97.65 -13.45 97.55 -13.85 97.5 -14.3 97.4 -14.7 97.35 -15.15 97.3 -15.55 97.3 -16.0 97.25 -16.45 97.25 -16.85 97.2 -17.3 97.2 -17.75 97.2 -20.25 97.1 -23.15 97.1 -23.5 97.05 -23.85 97.05 -24.15 97.0 -24.5 97.0 -24.85 96.95 -25.2 96.9 -25.5 96.85 -25.85 96.8 -26.2 96.75 -26.55 96.7 -26.85 96.65 -27.2 96.6 -27.55 96.5 -27.9 96.45 -28.2 96.4 -28.55 96.4 -28.65 96.35 -28.75 96.35 -28.85 96.3 -28.95 96.3 -29.05 96.25 -29.15 96.25 -29.25 96.2 -29.35 96.2 -29.4 96.15 -29.5 96.15 -29.6 96.15 -29.7 96.1 -29.8 96.1 -29.9 96.05 -30.0 96.05 -30.1 96.05 -30.2 96.0 -30.25 96.0 -30.35 96.0 -30.4 96.0 -30.45 96.0 -30.5 96.0 -30.55 96.0 -30.55 96.05 -30.6 96.05 -30.65 96.1 -30.65 96.15 -30.7 96.2 -30.7 96.25 -30.75 96.3 -30.8 96.4 -30.85 96.8 -31.05 97.0 -31.2 97.15 -31.3 97.3 -31.4 97.45 -31.5 97.6 -31.65 97.7 -31.75 97.8 -31.9 97.95 -32.05 98.0 -32.2 98.1 -32.3 98.2 -32.5 98.25 -32.65 98.3 -32.8 98.35 -33.0 98.4 -33.15 98.4 -33.35 98.45 -33.55 98.45 -33.7 98.45 -33.9 98.45 -34.05 98.45 -34.2 98.45 -34.35 98.45 -34.55 98.45 -34.7 98.45 -34.85 98.4 -35.05 98.4 -35.2 98.4 -35.35 98.35 -35.55 98.35 -35.7 98.35 -35.85 98.3 -36.0 98.25 -36.2 98.25 -36.25 98.25 -36.3 98.25 -36.35 98.2 -36.4 98.2 -36.45 98.2 -36.5 98.2 -36.55 98.15 -36.55 98.15 -36.6 98.15 -36.65 98.15 -36.7 98.1 -36.75 98.1 -36.8 98.1 -36.85 98.05 -36.9 98.05 -36.95 98.0 -37.0 98.0 -37.1 97.95 -37.15 97.9 -37.2 97.9 -37.25 97.85 -37.35 97.8 -37.4 97.75 -37.45 97.75 -37.5 97.7 -37.55 97.65 -37.6 97.6 -37.65 97.55 -37.7 97.5 -37.75 97.45 -37.75 97.4 -37.8 97.2 -37.75 97.05 -37.75 96.7 -37.7 96.4 -37.7 95.85 -37.6 94.75 -37.4 93.65 -37.15 93.1 -37.1 92.9 -37.05 92.75 -37.05 92.55 -37.0 92.4 -36.95 92.2 -36.9 92.0 -36.9 91.85 -36.85 91.65 -36.8 91.5 -36.75 91.3 -36.7 91.15 -36.65 90.95 -36.6 90.8 -36.55 90.65 -36.5 90.45 -36.4 90.3 -36.35 90.1 -36.25 89.85 -36.15 89.65 -36.05 89.45 -35.95 89.25 -35.85 89.05 -35.7 88.85 -35.6 88.65 -35.45 88.45 -35.35 88.25 -35.2 88.05 -35.1 87.85 -34.95 87.65 -34.8 87.45 -34.65 87.25 -34.55 87.1 -34.4 85.25 -32.95 84.35 -32.1 83.5 -31.3 82.05 -29.7 80.55 -28.0 79.8 -27.25 78.75 -26.2 77.1 -24.9 62.35 -13.1 74.25 -22.65 74.2 -22.6 74.15 -22.6 74.1 -22.55 74.05 -22.5 74.0 -22.5 74.0 -22.45 73.95 -22.45 73.9 -22.4 73.85 -22.4 73.8 -22.35 73.75 -22.35 73.65 -22.35 73.6 -22.35 73.55 -22.3 73.5 -22.3 73.45 -22.3 73.4 -22.3 73.4 -22.3 73.35 -22.3 73.3 -22.3 73.25 -22.3 73.25 -22.3 73.2 -22.35 73.15 -22.35 73.15 -22.35 73.1 -22.35 73.05 -22.35 73.05 -22.4 73.0 -22.4 72.95 -22.4 72.95 -22.45 72.9 -22.45 72.8 -22.35 72.65 -22.25 72.5 -22.15 72.4 -22.05 72.25 -21.95 72.1 -21.85 72.0 -21.75 71.85 -21.65 71.7 -21.55 71.6 -21.5 71.45 -21.4 71.3 -21.3 71.15 -21.2 71.0 -21.15 70.9 -21.05 70.75 -20.95 70.6 -20.85 70.35 -20.65 70.1 -20.5 69.05 -19.7 68.15 -19.1 67.95 -18.9 67.6 -18.65 66.95 -18.05 66.3 -17.45 65.95 -17.2 65.8 -17.1 65.0 -16.55 64.65 -16.35 64.05 -15.95 62.6 -15.0 62.1 -14.7 60.8 -13.9 59.8 -13.35 L65.4 -13.35 Q65.5 -13.35 65.65 -13.35 65.75 -13.3 65.85 -13.25 65.95 -13.2 66.05 -13.15 66.15 -13.1 66.2 -13.0 66.3 -12.9 66.35 -12.85 66.4 -12.75 66.45 -12.65 66.5 -12.55 66.55 -12.4 66.55 -12.3 66.55 -12.2 66.55 -12.1 66.55 -12.0 66.55 -11.9 66.5 -11.8 66.45 -11.7 66.45 -11.65 66.4 -11.55 66.3 -11.5 66.25 -11.4 66.2 -11.35 66.1 -11.25 66.05 -11.2 65.95 -11.15 65.9 -11.15 65.8 -11.1 65.7 -11.05 65.7 -11.0 65.7 -10.95 65.65 -10.9 65.65 -10.9 65.65 -10.85 65.65 -10.8 65.6 -10.75 65.6 -10.7 65.55 -10.65 65.55 -10.65 65.5 -10.6 65.5 -10.55 65.45 -10.5 65.45 -10.5 65.4 -10.45 65.4 -10.4 64.85 -9.85 62.9 -7.6 61.5 -6.0 60.6 -5.25 59.6 -4.35 57.6 -3.05 56.55 -2.4 56.05 -2.05 55.8 -1.85 55.25 -1.5 54.75 -1.1 54.5 -0.95 53.45 -0.2 51.3 1.25 51.25 1.25 51.2 1.3 51.2 1.3 51.15 1.35 51.1 1.35 51.05 1.35 51.05 1.35 51.0 1.4 50.95 1.4 50.9 1.4 50.85 1.4 50.8 1.4 50.75 1.4 50.75 1.4 50.7 1.4 50.65 1.4 50.6 1.45 50.55 1.45 50.55 1.5 50.5 1.5 50.45 1.5 50.4 1.55 50.35 1.55 50.3 1.6 50.3 1.6 50.25 1.6 50.2 1.6 50.15 1.65 50.1 1.65 50.05 1.65 50.0 1.65 49.95 1.65 49.95 1.65 49.85 1.7 49.8 1.75 48.35 3.05 47.2 4.05 46.95 4.35 46.85 4.5 46.8 4.6 46.85 4.6 46.85 4.65 46.9 4.65 46.95 4.65 46.95 4.65 47.0 4.65 47.15 4.65 47.3 4.7 47.45 4.7 47.6 4.7 47.75 4.7 47.9 4.7 48.05 4.7 48.25 4.65 48.4 4.65 48.55 4.65 48.7 4.65 48.85 4.6 49.0 4.6 49.15 4.6 49.25 4.6 49.45 4.55 49.5 4.55 49.55 4.55 49.6 4.5 49.65 4.5 49.7 4.5 49.75 4.5 49.8 4.5 49.8 4.45 49.85 4.45 49.9 4.45 49.95 4.4 50.0 4.4 50.05 4.4 50.1 4.4 50.15 4.35 50.2 4.35 50.4 4.25 50.35 4.25 50.45 4.25 50.5 4.2 50.6 4.15 50.65 4.1 50.75 4.1 50.85 4.05 50.9 4.0 51.0 4.0 51.1 3.95 51.15 3.95 51.25 3.9 51.35 3.9 51.4 3.85 51.5 3.85 51.6 3.85 51.7 3.8 51.8 3.8 51.9 3.75 52.0 3.75 52.1 3.75 52.2 3.75 52.3 3.75 52.4 3.7 52.5 3.7 52.6 3.7 52.7 3.7 52.8 3.7 52.85 3.7 52.95 3.7 53.05 3.7 53.65 3.75 54.5 3.9 55.7 4.15 55.95 4.2 56.4 4.2 56.65 4.2 57.1 4.1 58.15 3.7 58.25 3.65 58.4 3.6 58.5 3.55 58.6 3.55 58.75 3.5 58.85 3.45 59.0 3.45 59.1 3.4 59.25 3.4 59.35 3.35 59.5 3.35 59.6 3.35 59.75 3.3 59.85 3.3 60.0 3.3 60.1 3.3 60.6 3.25 61.9 3.35 62.25 3.35 62.9 3.35 63.6 3.35 63.9 3.35 63.95 3.35 64.0 3.35 64.05 3.35 64.1 3.35 64.15 3.4 64.2 3.4 64.25 3.4 64.3 3.4 64.35 3.45 64.4 3.45 64.4 3.45 64.45 3.5 64.5 3.5 64.55 3.55 64.6 3.55 64.65 3.6 64.7 3.6 64.7 3.65 64.75 3.7 64.75 3.7 64.8 3.75 64.85 3.8 64.85 3.8 64.9 3.85 64.9 3.9 64.95 3.95 64.95 4.0 65.05 4.2 65.0 4.0 65.05 4.3 65.05 4.35 65.1 4.4 65.1 4.45 65.1 4.5 65.1 4.55 65.1 4.6 65.1 4.65 65.1 4.7 65.1 4.75 65.1 4.8 65.05 4.85 65.05 4.9 65.05 4.95 65.05 5.0 65.05 5.05 65.05 5.05 65.0 5.1 65.0 5.1 65.0 5.15 65.0 5.2 64.95 5.2 64.95 5.25 64.95 5.25 64.95 5.3 64.9 5.3 64.9 5.35 64.9 5.4 64.9 5.4 64.85 5.45 64.85 5.45 64.85 5.5 64.8 5.55 64.75 5.6 64.75 5.65 64.7 5.65 64.7 5.7 64.65 5.75 64.6 5.8 64.6 5.85 64.55 5.85 64.5 5.9 64.45 5.95 64.45 6.0 64.4 6.0 64.35 6.05 64.3 6.1 64.2 6.2 63.35 6.8 63.25 6.9 63.1 7.0 63.0 7.1 62.9 7.2 62.8 7.3 62.7 7.4 62.55 7.5 62.45 7.6 62.35 7.7 62.25 7.8 62.15 7.9 62.05 8.0 61.95 8.15 61.85 8.25 61.75 8.35 61.7 8.45 61.55 8.65 61.25 9.1 61.0 9.5 60.85 9.7 60.8 9.75 60.75 9.8 60.75 9.85 60.7 9.9 60.65 9.95 60.6 10.0 60.55 10.05 60.55 10.1 60.5 10.15 60.45 10.2 60.4 10.25 60.35 10.3 60.3 10.35 60.25 10.4 60.2 10.4 60.15 10.45 60.0 10.6 59.65 10.85 59.55 10.95 59.5 11.05 59.4 11.15 59.35 11.25 59.25 11.4 59.15 11.5 59.1 11.6 59.0 11.7 58.9 11.8 58.8 11.9 58.75 11.95 58.65 12.05 58.55 12.15 58.45 12.25 58.35 12.35 58.25 12.45 58.25 12.45 57.55 13.15 57.15 13.6 56.85 13.9 56.05 15.05 55.8 15.35 55.25 16.0 54.5 16.7 54.3 16.9 53.85 17.35 53.4 17.75 53.15 18.0 52.65 18.45 52.4 18.7 52.45 18.7 52.45 18.7 52.5 18.75 52.55 18.75 52.6 18.75 52.6 18.75 52.65 18.75 52.7 18.75 52.75 18.75 52.8 18.75 52.8 18.75 52.85 18.75 52.9 18.75 52.95 18.75 52.95 18.75 53.0 18.75 53.05 18.75 53.1 18.75 53.1 18.75 53.15 18.75 53.2 18.75 53.3 18.7 53.35 18.7 53.45 18.7 53.5 18.65 53.6 18.65 53.65 18.6 53.7 18.6 53.8 18.6 53.85 18.55 53.9 18.55 54.0 18.5 54.05 18.5 54.1 18.45 54.2 18.45 54.25 18.4 54.35 18.35 55.9 17.5 56.85 17.1 57.0 17.05 57.1 17.0 57.2 17.0 57.3 17.0 57.4 16.95 57.5 16.95 57.6 16.95 57.75 16.95 57.85 16.95 57.95 17.0 58.05 17.0 58.15 17.0 58.25 17.05 58.35 17.1 58.4 17.1 58.5 17.15 58.6 17.2 58.7 17.25 58.8 17.35 58.9 17.45 58.95 17.5 59.0 17.6 59.05 17.7 59.1 17.8 59.15 17.95 59.15 18.05 59.15 18.15 59.2 18.25 59.15 18.35 59.15 18.5 59.1 18.6 59.1 18.7 59.05 18.8 59.0 18.9 58.95 18.95 58.9 19.0 58.85 19.1 58.75 19.15 58.7 19.2 58.6 19.25 58.55 19.25 58.45 19.3 58.4 19.35 58.3 19.35 58.2 19.35 58.15 19.4 58.05 19.4 57.95 19.4 57.9 19.4 57.9 19.45 57.9 19.5 57.9 19.55 57.9 19.6 57.9 19.65 57.9 19.7 57.9 19.75 57.9 19.8 57.85 19.85 57.85 19.9 57.85 19.9 57.85 19.95 57.8 20.0 57.8 20.05 57.75 20.1 57.75 20.15 57.65 20.35 57.5 20.6 57.4 20.8 57.3 21.0 57.15 21.2 57.05 21.45 56.9 21.65 56.8 21.85 56.65 22.1 56.55 22.3 56.4 22.5 56.3 22.7 56.15 22.9 56.05 23.15 55.9 23.35 55.8 23.55 54.85 25.1 53.9 26.5 52.75 28.3 52.05 29.25 51.4 30.1 50.0 31.6 48.6 33.15 47.95 33.9 47.85 34.05 47.75 34.2 47.65 34.35 47.55 34.45 47.45 34.6 47.4 34.75 47.3 34.9 47.2 35.05 47.1 35.2 47.05 35.35 46.95 35.5 46.85 35.65 46.8 35.8 46.7 35.95 46.6 36.1 46.55 36.25 45.55 38.25 45.4 38.55 45.3 38.7 45.2 38.85 45.1 39.0 45.0 39.15 44.9 39.3 44.8 39.45 44.65 39.6 44.55 39.75 44.45 39.85 44.35 40.0 44.25 40.15 44.1 40.3 44.0 40.45 43.9 40.6 43.75 40.7 43.65 40.85 43.05 41.55 41.85 42.85 40.65 44.15 40.05 44.85 40.0 44.9 40.0 44.95 39.95 44.95 39.9 45.0 39.85 45.05 39.8 45.05 39.75 45.1 39.7 45.1 39.65 45.15 39.6 45.15 39.5 45.15 39.45 45.2 39.4 45.2 39.35 45.2 39.3 45.2 39.25 45.2 39.2 45.2 39.15 45.2 39.1 45.2 39.0 45.2 38.95 45.15 38.9 45.15 38.85 45.15 38.8 45.1 38.75 45.1 38.7 45.05 38.65 45.05 38.6 45.0 38.55 45.0 38.5 44.95 38.45 44.9 38.45 44.85 38.4 44.9 38.4 44.95 38.35 44.95 38.3 45.0 38.25 45.05 38.25 45.1 38.2 45.1 38.15 45.15 38.15 45.2 38.1 45.25 38.1 45.25 38.05 45.3 38.0 45.35 38.0 45.4 37.95 45.4 37.95 45.45 37.9 45.5 37.9 45.5 37.9 45.55 37.85 45.6 37.85 45.65 37.8 45.65 37.8 45.7 37.75 45.75 37.75 45.8 37.7 45.8 37.7 45.85 37.7 45.9 37.65 45.95 37.65 45.95 37.65 46.0 37.6 46.05 37.6 46.1 37.6 46.1 37.55 46.15 37.55 46.2 37.55 46.25 37.55 46.25 37.55 46.3 37.55 46.35 37.55 46.4 37.55 46.4 37.55 46.45 37.55 46.5 37.55 46.5 37.6 46.55 37.6 46.6 37.6 46.6 37.65 46.6 37.7 46.6 37.75 46.6 37.8 46.6 37.85 46.6 37.9 46.6 37.95 46.6 38.05 46.6 38.1 46.6 38.15 46.6 38.2 46.6 38.25 46.6 38.3 46.55 38.35 46.55 38.4 46.55 38.45 46.55 38.6 46.55 38.7 46.5 38.85 46.5 39.0 46.45 39.15 46.45 39.25 46.4 39.4 46.35 39.55 46.35 39.65 46.3 39.8 46.25 39.9 46.2 40.05 46.15 40.2 46.1 40.3 46.1 40.45 46.05 40.55 46.0 41.15 45.75 41.9 45.3 42.4 45.0 43.35 44.55 44.45 44.05 44.8 43.85 45.65 43.45 46.05 43.2 46.2 43.05 46.55 42.65 46.9 42.3 47.05 42.15 47.1 42.1 47.15 42.05 47.2 42.0 47.25 41.95 47.3 41.95 47.35 41.9 47.4 41.85 47.45 41.8 47.5 41.75 47.55 41.7 47.6 41.7 47.7 41.65 47.75 41.6 47.8 41.55 47.85 41.55 47.9 41.5 47.95 41.45 48.05 41.4 48.1 41.4 48.2 41.35 48.25 41.35 48.35 41.3 48.4 41.3 48.45 41.25 48.55 41.25 48.6 41.2 48.7 41.2 48.75 41.2 48.85 41.2 48.95 41.15 49.0 41.15 49.1 41.15 49.15 41.15 49.2 41.15 49.25 41.15 49.3 41.15 49.35 41.15 49.45 41.2 49.5 41.2 49.55 41.25 49.6 41.25 49.65 41.3 49.7 41.3 49.75 41.35 49.8 41.4 49.8 41.4 49.85 41.45 49.9 41.5 49.95 41.55 50.0 41.6 50.0 41.6 50.05 41.65 50.1 41.7 50.1 41.75 50.15 41.8 50.15 41.85 50.2 41.9 50.2 42.0 50.2 42.05 50.2 42.1 50.25 42.15 50.25 42.2 50.25 42.25 50.25 42.3 50.25 42.35 50.25 42.4 50.25 42.45 50.25 42.5 50.2 42.55 50.2 42.65 50.2 42.7 50.15 42.75 50.15 42.8 50.1 42.85 50.1 42.9 50.05 42.95 50.05 43.0 50.0 43.05 49.95 43.05 49.95 43.1 49.95 43.15 50.0 43.2 50.0 43.25 50.0 43.3 50.0 43.35 50.0 43.4 50.0 43.45 50.0 43.5 50.05 43.55 50.05 43.6 50.05 43.65 50.0 43.7 50.0 43.7 50.0 43.75 50.0 43.8 50.0 43.85 49.8 44.3 49.5 45.4 49.5 45.5 49.45 45.6 49.4 45.7 49.4 45.8 49.35 45.9 49.35 46.0 49.3 46.1 49.25 46.2 49.25 46.3 49.2 46.4 49.2 46.5 49.15 46.6 49.1 46.7 49.05 46.8 49.05 46.85 49.0 46.95 48.9 47.2 48.45 48.35 48.1 49.2 47.9 49.75 47.85 49.9 47.8 50.1 47.7 50.3 47.65 50.45 47.6 50.65 47.55 50.8 47.5 51.0 47.45 51.15 47.4 51.35 47.35 51.5 47.3 51.7 47.25 51.9 47.2 52.05 47.15 52.25 47.1 52.4 47.05 52.6 46.85 53.5 46.5 55.05 46.15 56.8 46.0 57.5 46.05 57.55 46.05 57.55 46.1 57.6 46.1 57.6 46.15 57.65 46.2 57.7 46.2 57.7 46.2 57.75 46.25 57.8 46.25 57.8 46.3 57.85 46.3 57.9 46.35 57.95 46.35 58.0 46.35 58.05 46.4 58.15 46.4 58.2 46.4 58.25 46.4 58.3 46.4 58.35 46.4 58.4 46.4 58.5 46.4 58.55 46.4 58.6 46.4 58.65 46.4 58.7 46.15 59.7 45.65 61.2 45.15 62.5 44.9 63.35 44.85 63.5 44.3 65.65 44.25 65.95 44.1 66.55 44.1 66.75 44.1 66.8 44.1 67.1 44.1 67.45 44.1 67.75 44.05 68.1 44.0 68.4 43.95 68.75 43.9 69.05 43.8 69.4 43.75 69.65 43.7 70.05 43.55 70.55 43.55 70.7 43.45 71.05 43.4 71.35 43.3 71.7 43.3 72.0 43.25 72.4 43.1 73.75 42.95 74.8 42.85 75.45 42.65 76.6 42.1 78.4 41.95 78.9 41.65 79.8 41.3 80.85 41.2 81.2 41.1 81.6 40.95 81.95 40.85 82.35 40.7 82.7 40.55 83.05 40.45 83.4 40.3 83.8 40.15 84.15 40.0 84.5 39.85 84.85 39.7 85.25 39.55 85.6 39.35 85.95 39.2 86.3 39.0 86.65 38.85 87.0 38.85 87.05 38.8 87.05 38.8 87.1 38.75 87.15 38.7 87.15 38.7 87.2 38.65 87.2 38.65 87.25 38.6 87.25 38.6 87.3 38.55 87.3 38.5 87.35 38.5 87.35 38.45 87.4 38.4 87.4 38.4 87.4 38.1 88.25 37.85 89.1 37.6 89.95 37.3 90.8 37.05 91.65 36.8 92.55 36.55 93.4 36.3 94.25 36.05 95.1 35.85 95.95 35.6 96.8 35.35 97.7 35.15 98.55 34.9 99.4 34.7 100.25 34.45 101.15 33.15 106.3 32.4 109.75 32.35 110.05 32.3 110.35 32.25 110.65 32.2 110.95 32.1 111.25 32.1 111.55 32.05 111.85 32.0 112.15 31.95 112.45 31.9 112.75 31.9 113.05 31.85 113.35 31.85 113.65 31.8 113.95 31.8 114.25 31.8 114.55 31.8 114.55 31.8 114.6 31.8 114.65 31.8 114.7 31.8 114.75 31.75 114.75 31.75 114.8 31.75 114.8 31.75 114.85 31.7 114.85 31.7 114.9 31.7 114.9 31.65 114.9 31.6 114.95 31.6 114.95 31.55 114.95 L31.55 117.2 Q31.65 117.3 31.7 117.3 31.75 117.4 31.75 117.5 31.75 117.7 31.75 118.0 31.8 118.25 31.8 118.4 31.8 118.5 31.75 118.55 31.75 118.55 31.8 118.6 31.8 118.6 31.8 118.65 31.9 119.2 32.05 120.25 32.3 122.05 33.05 125.8 33.1 126.15 33.25 126.8 33.35 127.45 33.4 127.75 33.45 127.9 33.45 128.05 33.45 128.15 33.5 128.3 33.5 128.45 33.5 128.6 33.5 128.7 33.5 128.85 33.45 129.0 33.45 129.1 33.45 129.25 33.45 129.4 33.4 129.5 33.4 129.65 33.35 129.75 33.35 129.95 33.0 132.05 32.7 135.0 32.5 136.7 32.2 141.1 32.15 142.25 32.05 143.5 32.1 143.55 32.1 143.6 32.1 143.6 32.1 143.65 32.1 143.7 32.05 143.75 32.05 144.2 32.05 146.15 32.05 146.6 32.05 147.05 32.1 147.5 32.1 148.0 32.1 148.45 32.15 148.9 32.2 149.35 32.2 149.8 32.25 150.25 32.3 150.75 32.3 151.2 32.35 151.65 32.4 152.1 32.45 152.55 32.5 153.0 32.55 153.45 32.65 154.35 32.8 155.25 32.9 156.15 33.05 157.05 33.2 157.9 33.4 158.8 33.55 159.7 33.75 160.6 33.9 161.45 34.1 162.35 34.3 163.2 34.5 164.1 34.75 164.95 34.95 165.85 35.2 166.7 35.45 167.6 35.5 167.75 35.55 167.9 35.55 168.05 35.6 168.2 35.65 168.4 35.7 168.55 35.75 168.7 35.8 168.85 35.8 169.0 35.85 169.15 35.9 169.3 35.95 169.45 36.0 169.6 36.05 169.8 36.1 169.95 36.15 170.1 36.2 170.2 36.25 170.35 36.3 170.45 36.3 170.6 36.35 170.7 36.4 170.8 36.45 170.95 36.5 171.05 36.55 171.15 36.6 171.3 36.65 171.4 36.75 171.5 36.8 171.6 36.85 171.75 36.9 171.85 36.95 171.95 37.0 171.7 37.1 171.15 37.15 170.9 37.2 170.65 37.2 170.4 37.25 170.2 37.3 169.95 37.35 169.75 37.4 169.5 37.45 169.25 37.55 169.05 37.6 168.8 37.65 168.6 37.75 168.35 37.85 168.15 37.95 167.9 38.05 167.7 38.15 167.5 38.2 167.4 38.3 167.3 38.35 167.2 38.45 167.15 38.55 167.1 38.65 167.05 38.75 167.0 38.85 166.95 39.0 166.95 39.1 166.95 39.2 166.9 39.3 166.95 39.45 166.95 39.55 167.0 39.65 167.0 39.75 167.05 39.75 167.1 39.8 167.1 39.9 167.1 40.0 167.15 40.05 167.2 40.15 167.25 40.2 167.3 40.3 167.35 40.35 167.45 40.4 167.5 40.5 167.6 40.55 167.7 40.6 167.75 40.6 167.85 40.65 167.95 40.65 168.05 40.7 168.15 40.7 168.25 40.7 168.4 40.7 168.6 40.7 168.75 40.7 168.95 40.7 169.1 40.7 169.25 40.7 169.45 40.75 169.6 40.75 169.8 40.75 169.95 40.8 170.1 40.8 170.3 40.8 170.45 40.85 170.65 40.85 170.8 40.85 171.0 41.1 172.4 41.3 173.45 41.4 173.9 41.7 175.65 41.75 175.8 41.75 175.9 41.8 176.05 41.8 176.15 41.85 176.3 41.85 176.4 41.9 176.55 41.95 176.65 41.95 176.8 42.0 176.9 42.05 177.05 42.1 177.2 42.1 177.3 42.15 177.45 42.2 177.55 42.25 177.7 42.35 177.9 42.45 178.2 42.5 178.4 42.65 178.65 42.9 179.3 42.8 179.15 42.95 179.45 43.0 179.65 43.1 179.9 43.2 180.1 43.3 180.4 43.35 180.6 43.45 180.9 43.5 181.1 43.6 181.4 43.6 181.65 43.6 181.7 43.65 181.75 43.65 181.8 43.65 181.85 43.65 181.95 43.65 182.0 43.65 182.05 43.65 182.1 43.65 182.15 43.6 182.2 43.6 182.25 43.6 182.3 43.6 182.35 43.55 182.4 43.55 182.45 43.5 182.55 43.5 182.6 43.45 182.6 43.45 182.65 43.4 182.7 43.4 182.7 43.35 182.75 43.35 182.75 43.3 182.8 43.25 182.8 43.25 182.85 43.2 182.85 43.2 182.9 43.15 182.9 43.1 182.95 43.05 182.95 43.05 182.95 43.05 183.05 43.4 184.2 43.45 184.4 43.5 184.6 43.55 184.75 43.6 184.95 43.65 185.15 43.7 185.35 43.75 185.5 43.8 185.7 43.85 185.9 43.9 186.1 43.95 186.25 44.05 186.45 44.1 186.65 44.15 186.85 44.2 187.0 44.25 187.2 44.85 188.8 45.3 190.1 46.35 192.75 46.35 192.85 46.45 193.05 46.5 193.2 46.6 193.35 46.65 193.55 46.75 193.7 46.8 193.85 46.9 194.05 47.0 194.2 47.05 194.4 47.15 194.55 47.25 194.7 47.35 194.85 47.45 195.0 47.55 195.15 47.65 195.35 47.75 195.45 47.8 195.55 47.9 195.65 47.95 195.7 48.05 195.8 48.1 195.9 48.2 195.95 48.25 196.05 48.35 196.1 48.4 196.2 48.5 196.25 48.6 196.35 48.65 196.4 48.75 196.5 48.8 196.55 48.9 196.65 49.0 196.7 49.0 196.3 49.0 195.65 48.95 193.9 48.85 192.75 48.55 191.0 48.55 190.8 48.5 190.4 48.45 189.95 48.45 189.5 48.45 189.05 48.4 188.65 48.4 188.2 48.45 187.8 48.45 187.35 48.45 186.9 48.5 186.45 48.55 186.05 48.6 185.6 48.65 185.2 48.7 184.75 48.75 184.35 48.8 183.9 48.95 182.8 49.15 180.8 49.4 178.65 49.55 177.75 49.55 177.7 49.55 177.7 49.55 177.65 49.55 177.6 49.55 177.6 49.55 177.55 49.55 177.5 49.55 177.5 49.55 177.45 49.55 177.4 49.6 177.4 49.6 177.35 49.6 177.35 49.6 177.3 49.6 177.25 49.65 177.25 49.6 177.1 49.45 176.65 49.25 175.95 48.75 174.7 48.6 174.4 48.45 173.85 48.25 173.25 48.15 173.05 48.15 173.0 48.15 173.0 48.1 172.95 48.1 172.95 48.1 172.9 48.05 172.85 48.05 172.85 48.05 172.8 48.0 172.75 48.0 172.75 48.0 172.7 47.95 172.7 47.95 172.65 47.95 172.65 47.9 172.6 47.9 172.55 47.85 172.5 47.85 172.45 47.8 172.4 47.8 172.35 47.75 172.3 47.75 172.25 47.75 172.2 47.75 172.15 47.75 172.1 47.75 172.0 47.75 171.95 47.75 171.9 47.75 171.85 47.75 171.8 47.75 171.75 47.75 171.65 47.75 171.6 47.8 171.55 47.8 171.5 47.85 171.45 47.85 171.4 47.9 171.35 47.95 171.3 47.95 171.25 48.0 171.25 48.05 171.2 48.1 171.15 48.1 171.1 48.15 171.05 48.2 171.05 48.25 171.0 48.3 171.0 48.35 170.95 48.4 170.95 48.45 170.9 48.5 170.9 48.55 170.85 48.6 170.85 48.7 170.85 48.75 170.85 48.8 170.8 48.85 170.8 48.9 170.8 49.0 170.8 49.05 170.85 49.1 170.85 49.15 170.85 49.2 170.85 49.25 170.85 49.3 170.9 49.35 170.9 49.4 170.95 49.45 170.95 49.5 171.0 49.55 171.05 49.6 171.05 49.65 171.1 49.7 171.15 49.7 171.15 49.75 171.2 49.8 171.25 49.85 171.3 49.85 171.35 49.9 171.4 50.0 171.5 50.05 171.6 50.1 171.7 50.15 171.85 50.25 171.95 50.3 172.05 50.35 172.15 50.4 172.3 50.4 172.4 50.45 172.55 50.5 172.65 50.55 172.8 50.55 172.9 50.6 173.05 50.7 173.25 50.7 173.25 50.75 173.5 51.3 174.9 51.35 175.0 51.4 175.1 51.45 175.25 51.45 175.35 51.5 175.45 51.55 175.55 51.6 175.65 51.65 175.8 51.65 175.9 51.7 176.0 51.75 176.1 51.75 176.25 51.8 176.35 51.85 176.45 51.85 176.55 51.9 176.7 52.6 179.1 52.95 180.05 53.15 180.45 53.3 180.65 53.3 180.7 53.35 180.7 53.4 180.75 53.5 180.8 53.55 180.85 53.6 180.85 53.65 180.9 53.65 180.95 53.7 180.95 53.75 181.0 53.75 181.05 53.8 181.05 53.85 181.1 53.85 181.15 53.9 181.15 53.95 181.2 53.95 181.25 54.0 181.25 54.0 181.3 54.05 181.35 54.05 181.35 54.05 181.35 54.0 181.3 53.95 181.2 53.95 181.25 54.05 181.35 54.05 181.35 54.05 181.35 54.05 181.35 54.05 181.35 54.1 181.4 54.15 181.5 54.2 181.55 54.25 181.65 54.3 181.7 54.3 181.8 54.35 181.85 54.4 181.95 54.45 182.0 54.45 182.1 54.5 182.15 54.5 182.25 54.55 182.3 54.55 182.4 54.6 182.5 54.6 182.55 54.6 182.65 54.65 182.75 54.65 182.85 54.65 182.9 54.7 183.0 54.7 183.1 54.7 183.2 54.7 183.3 54.7 183.4 54.75 183.45 54.75 183.55 54.75 183.65 54.75 183.75 54.75 183.85 54.75 183.95 54.75 184.0 54.75 184.35 54.75 184.75 54.85 184.7 54.9 184.7 55.0 184.65 55.1 184.65 55.15 184.65 55.25 184.65 55.35 184.65 55.45 184.65 55.5 184.7 55.6 184.7 55.7 184.75 55.75 184.75 55.85 184.8 55.95 184.85 56.0 184.9 56.05 185.0 56.1 185.05 56.15 185.1 56.2 185.15 56.25 185.25 56.3 185.3 56.35 185.35 56.35 185.45 56.4 185.5 56.4 185.6 56.4 185.7 56.4 185.75 56.4 185.85 56.4 185.9 56.4 186.0 56.4 186.05 56.35 186.15 56.35 186.2 56.4 186.2 56.4 186.25 56.4 186.25 56.45 186.3 56.45 186.35 56.5 186.45 56.5 186.55 56.55 186.6 56.55 186.7 56.6 186.8 56.6 186.9 56.65 187.0 56.65 187.1 56.65 187.2 56.65 187.3 56.65 187.4 56.7 187.5 56.7 187.6 56.7 187.7 56.7 187.8 56.7 187.9 56.7 188.4 56.65 189.35 56.65 189.45 56.65 189.55 56.65 189.65 56.6 189.75 56.6 189.85 56.6 189.95 56.6 190.05 56.6 190.15 56.6 190.25 56.6 190.3 56.6 190.4 56.6 190.5 56.6 190.6 56.6 190.7 56.6 190.8 56.6 190.9 56.6 190.95 56.65 190.95 56.65 191.0 56.65 191.05 56.7 191.1 56.7 191.1 56.75 191.15 56.75 191.2 56.8 191.25 56.8 191.25 56.8 191.3 56.85 191.35 56.85 191.35 56.9 191.4 56.9 191.45 56.95 191.45 57.0 191.5 57.75 192.4 57.8 192.5 57.9 192.6 57.95 192.7 58.05 192.75 58.1 192.85 58.2 192.95 58.25 193.05 58.3 193.15 58.4 193.25 58.45 193.35 58.5 193.45 58.55 193.55 58.65 193.65 58.7 193.75 58.75 193.8 58.8 193.9 59.1 194.4 59.7 195.45 59.75 195.55 59.8 195.6 59.8 195.7 59.85 195.8 59.9 195.85 59.95 195.95 60.0 196.0 60.05 196.1 60.1 196.15 60.1 196.25 60.15 196.3 60.2 196.4 60.25 196.45 60.3 196.55 60.35 196.6 60.4 196.7 60.55 196.9 60.75 197.1 60.9 197.25 61.1 197.45 61.25 197.6 61.45 197.8 61.65 197.95 61.85 198.15 62.0 198.3 62.2 198.5 62.4 198.65 62.6 198.8 62.8 198.95 63.0 199.1 63.15 199.25 63.4 199.45 63.75 199.65 63.85 199.7 63.85 199.7 63.9 199.7 63.55 199.1 63.5 199.05 63.45 198.95 63.4 198.85 63.35 198.7 63.35 198.6 63.35 198.5 63.35 198.4 63.35 198.25 63.4 198.15 63.45 198.05 63.5 197.95 63.55 197.85 63.6 197.75 63.65 197.65 63.75 197.6 63.85 197.5 63.95 197.45 64.05 197.4 64.15 197.35 64.25 197.3 64.35 197.3 64.5 197.25 64.6 197.3 64.7 197.3 64.8 197.3 64.9 197.35 65.0 197.4 65.1 197.45 65.2 197.55 65.3 197.6 65.4 197.7 65.45 197.75 65.5 197.85 65.55 197.95 65.65 198.05 65.7 198.2 65.75 198.3 65.85 198.4 65.9 198.5 65.95 198.65 66.0 198.75 66.05 198.85 66.1 199.0 66.2 199.1 66.25 199.2 66.3 199.35 66.35 199.45 66.4 199.55 66.45 199.7 66.5 199.7 66.5 199.7 66.55 199.7 66.6 199.7 66.6 199.7 66.65 199.7 66.7 199.75 66.7 199.75 66.75 199.75 66.8 199.75 66.85 199.8 66.85 199.8 66.9 199.8 66.9 199.8 66.95 199.85 67.0 199.85 67.05 199.9 67.1 199.9 67.15 199.95 67.15 200.0 67.2 200.0 67.25 200.05 67.3 200.1 67.3 200.15 67.35 200.2 67.4 200.25 67.4 200.3 67.45 200.35 67.45 200.4 67.5 200.45 67.5 200.5 67.5 200.55 67.55 200.65 67.6 200.8 67.65 200.9 67.7 201.05 67.75 201.15 67.85 201.25 67.9 201.4 67.95 201.5 68.0 201.6 68.1 201.7 68.15 201.8 68.25 201.95 68.3 202.05 68.35 202.15 68.45 202.25 68.5 202.35 68.6 202.45 68.65 202.55 68.75 202.65 68.8 202.75 68.9 202.85 68.95 202.95 69.05 203.05 69.15 203.1 69.2 203.2 69.3 203.3 69.4 203.4 69.45 203.5 69.55 203.55 69.65 203.65 69.75 203.75 69.8 203.85 69.9 203.9 70.0 204.0 70.45 204.3 71.0 204.7 74.15 206.9 74.75 207.3 75.0 207.45 75.25 207.6 75.5 207.75 75.7 207.9 76.0 208.05 76.2 208.15 76.45 208.3 76.7 208.45 76.95 208.6 77.2 208.7 77.5 208.85 77.75 209.0 78.0 209.1 78.25 209.2 78.5 209.35 78.8 209.45 78.7 209.4 78.5 209.35 78.7 209.4 79.2 209.65 79.25 209.65 79.4 209.7 79.25 209.4 76.65 203.6 73.6 197.0 71.5 191.55 71.2 190.8 70.95 190.1 70.65 189.35 70.4 188.65 70.1 187.9 69.85 187.2 69.6 186.45 69.3 185.7 69.05 185.0 68.8 184.25 68.5 183.5 68.25 182.8 68.0 182.05 67.75 181.3 67.5 180.55 67.25 179.8 66.8 178.5 66.4 177.2 65.95 175.9 65.55 174.6 65.1 173.3 64.7 172.0 64.3 170.7 63.9 169.35 63.5 168.05 63.15 166.75 62.75 165.4 62.4 164.1 62.05 162.8 61.65 161.45 61.3 160.15 61.0 158.8 61.0 158.75 59.45 152.55 59.15 151.5 58.85 150.55 58.8 150.45 58.8 150.35 58.8 150.25 58.75 150.15 58.75 150.05 58.7 149.95 58.7 149.85 58.7 149.75 58.65 149.65 58.65 149.55 58.65 149.45 58.6 149.35 58.6 149.25 58.6 149.1 58.6 149.0 58.55 148.9 58.55 148.6 58.7 147.55 58.75 147.35 58.9 146.75 59.45 144.8 60.2 141.7 60.15 141.6 60.15 141.55 60.15 141.4 60.15 141.2 60.2 141.05 60.2 140.9 60.2 140.75 60.2 140.55 60.25 140.4 60.25 140.25 60.25 140.1 60.3 139.9 60.3 139.75 60.3 139.6 60.35 139.45 60.35 139.25 60.35 139.1 60.4 138.95 60.45 138.65 60.5 138.35 60.5 138.05 60.55 137.75 60.6 137.45 60.65 137.2 60.7 136.9 60.75 136.6 60.8 136.3 60.9 136.0 60.95 135.7 61.0 135.4 61.05 135.15 61.1 134.85 61.2 134.55 61.25 134.25 62.1 130.45 62.2 129.95 62.3 129.25 62.5 126.85 62.65 124.95 62.8 123.8 62.8 123.75 62.85 123.7 62.85 123.65 62.9 123.6 62.9 123.55 62.95 123.5 62.95 123.45 63.0 123.4 63.05 123.35 63.1 123.3 63.15 123.3 63.2 123.25 63.2 123.2 63.25 123.15 63.3 123.15 63.35 123.1 63.4 123.05 63.45 123.05 63.5 123.0 63.55 123.0 63.6 123.0 63.7 122.95 63.75 122.95 63.8 122.95 63.85 122.95 63.9 122.95 63.95 122.95 64.0 122.95 64.1 122.95 64.15 122.95 64.2 123.0 64.25 123.0 64.3 123.0 64.35 123.05 64.4 123.05 64.45 123.05 64.5 123.1 64.55 123.15 64.6 123.15 64.65 123.2 64.7 123.25 64.75 123.25 64.8 123.3 64.8 123.35 64.85 123.4 64.9 123.45 64.9 123.5 64.95 123.5 65.0 123.55 65.0 123.6 65.05 123.65 65.05 123.75 65.05 123.8 65.1 123.85 65.1 123.9 65.1 123.95 65.1 124.0 65.1 124.05 65.1 124.15 65.1 124.2 65.1 124.25 65.1 124.3 65.1 124.35 65.05 124.4 65.05 124.55 65.0 124.9 64.95 125.15 64.95 125.5 64.95 125.5 65.05 125.65 65.1 125.75 65.15 125.85 65.2 125.95 65.25 126.05 65.3 126.1 65.35 126.25 65.4 126.3 65.45 126.45 65.45 126.55 65.5 126.65 65.55 126.75 65.55 126.85 65.6 126.95 65.6 127.05 65.6 127.15 65.65 127.25 65.65 127.4 65.7 127.5 65.7 127.65 65.7 127.75 65.7 127.9 65.75 128.0 65.75 128.15 65.75 128.25 65.75 128.4 65.75 128.5 65.8 128.65 65.8 128.75 65.8 128.9 65.8 129.0 65.8 129.15 65.8 129.25 65.85 129.2 65.85 129.15 65.9 129.1 65.95 129.05 65.95 129.0 66.0 128.9 66.05 128.85 66.05 128.8 66.1 128.75 66.15 128.7 66.15 128.65 66.2 128.6 66.2 128.5 66.25 128.45 66.3 128.4 66.3 128.35 66.65 127.6 67.15 126.35 67.15 126.3 67.2 126.25 67.2 126.2 67.2 126.1 67.25 126.05 67.25 126.0 67.25 125.95 67.25 125.9 67.3 125.8 67.3 125.75 67.3 125.7 67.3 125.65 67.35 125.6 67.35 125.5 67.35 125.45 67.35 125.4 67.35 125.35 67.35 125.3 67.35 125.2 67.35 125.15 67.4 125.1 67.4 125.05 67.4 125.0 67.4 124.9 67.4 124.85 67.4 124.8 67.4 124.75 67.4 124.7 67.4 124.6 67.4 124.55 67.4 124.5 67.35 124.45 67.35 124.4 67.35 124.35 67.35 124.3 67.35 124.3 67.35 124.25 67.3 124.2 67.3 124.15 67.3 124.1 67.25 124.0 67.25 123.85 67.25 123.75 67.25 123.65 67.3 123.55 67.3 123.45 67.35 123.35 67.4 123.25 67.45 123.15 67.55 123.05 67.6 122.95 67.7 122.9 67.8 122.85 67.9 122.75 68.0 122.7 68.1 122.7 68.2 122.65 68.35 122.65 68.45 122.65 68.55 122.65 68.7 122.65 68.8 122.7 68.9 122.75 69.0 122.8 69.1 122.85 69.2 122.95 69.25 123.0 69.35 123.1 69.4 123.2 69.45 123.3 69.5 123.4 69.55 123.5 69.6 123.7 69.65 123.85 69.65 124.05 69.7 124.25 69.7 124.4 69.7 124.6 69.7 124.8 69.7 125.0 69.7 125.15 69.7 125.35 69.7 125.55 69.65 125.75 69.65 125.9 69.6 126.1 69.55 126.3 69.55 126.45 69.45 126.8 69.25 127.55 69.05 128.3 69.0 128.7 68.95 128.95 68.65 130.55 68.65 130.75 68.6 131.0 68.65 131.0 68.65 130.95 68.7 130.9 68.7 130.9 68.75 130.85 68.75 130.85 68.8 130.8 68.8 130.8 68.85 130.75 68.85 130.75 68.9 130.7 68.95 130.65 68.95 130.65 69.0 130.6 69.0 130.6 69.05 130.55 69.35 130.25 69.6 129.95 69.9 129.6 70.15 129.3 70.4 128.95 70.65 128.6 70.9 128.3 71.15 127.95 71.35 127.6 71.6 127.25 71.85 126.9 72.05 126.55 72.25 126.2 72.5 125.8 72.7 125.45 72.9 125.1 73.25 124.45 73.6 123.75 73.95 123.1 74.25 122.4 74.55 121.7 74.85 121.05 75.15 120.35 75.45 119.65 75.7 118.95 75.95 118.25 76.2 117.55 76.45 116.8 76.7 116.1 76.9 115.4 77.1 114.65 77.3 113.9 77.8 111.85 78.05 111.05 78.15 110.8 78.2 110.55 78.3 110.3 78.4 110.05 78.5 109.85 78.6 109.6 78.7 109.35 78.8 109.1 78.9 108.9 79.0 108.65 79.15 108.4 79.25 108.2 79.35 107.95 79.5 107.75 79.6 107.5 79.75 107.3 79.9 107.1 80.0 106.85 80.1 106.65 80.25 106.4 80.35 106.2 80.45 105.95 80.6 105.75 80.7 105.5 80.8 105.3 80.9 105.05 81.0 104.85 81.1 104.6 81.2 104.35 81.25 104.15 81.35 103.9 81.45 103.65 81.45 103.6 81.45 103.5 81.45 103.55 81.45 103.6 81.45 103.6 81.45 103.65 81.45 103.65 81.45 103.65 81.5 103.3 81.6 102.7 81.7 102.0 81.7 101.75 81.7 101.6 81.75 101.45 81.75 101.3 81.8 101.15 81.8 101.0 81.8 100.85 81.8 100.7 81.85 100.55 81.85 100.35 81.85 100.2 81.85 100.05 81.85 99.9 81.85 99.75 81.85 99.6 81.85 99.45 81.85 99.3 81.7 97.4 81.8 96.7 81.8 96.65 81.8 96.6 81.8 96.6 81.8 96.55 81.8 96.5 81.85 96.45 81.85 96.45 81.85 96.4 81.85 96.35 81.85 96.3 81.9 96.3 81.9 96.25 81.9 96.2 81.95 96.15 81.95 96.15 81.95 96.1 82.05 96.05 82.15 95.85 82.2 95.8 82.25 95.8 82.3 95.75 82.35 95.7 82.35 95.7 82.4 95.65 82.45 95.65 82.55 95.6 82.6 95.6 82.65 95.6 82.7 95.55 82.75 95.55 82.8 95.55 82.85 95.55 82.9 95.55 83.0 95.55 83.05 95.55 83.1 95.55 83.15 95.55 83.2 95.55 83.25 95.55 83.3 95.6 83.35 95.6 83.4 95.6 83.5 95.65 83.55 95.65 83.6 95.7 83.65 95.75 83.7 95.75 83.7 95.8 83.75 95.85 83.8 95.85 83.85 95.9 83.85 95.95 83.9 96.0 83.95 96.05 83.95 96.1 84.0 96.15 84.05 96.2 84.05 96.25 84.1 96.3 84.1 96.35 84.1 96.4 84.15 96.45 84.15 96.55 84.15 96.6 84.15 96.65 84.15 96.7 84.1 96.9 84.1 97.15 84.1 97.35 84.1 97.55 84.1 97.75 84.1 98.0 84.1 98.2 84.1 98.45 84.1 98.55 84.15 98.85 84.15 99.15 84.15 99.3 84.2 99.55 84.2 99.75 84.2 99.95 84.2 100.15 84.2 100.8 83.75 103.85 83.35 107.0 83.05 108.35 83.15 108.35 83.2 108.3 83.3 108.3 83.35 108.25 83.45 108.25 83.5 108.2 83.6 108.15 83.65 108.15 83.75 108.1 83.8 108.05 83.85 108.05 83.95 108.0 84.0 107.95 84.1 107.9 84.15 107.85 84.2 107.8 84.4 107.7 84.55 107.55 84.7 107.45 84.9 107.3 85.05 107.2 85.2 107.05 85.4 106.9 85.55 106.8 85.7 106.65 85.85 106.5 86.0 106.35 86.15 106.2 86.3 106.05 86.45 105.9 86.6 105.75 86.75 105.6 87.05 105.3 87.3 104.95 87.55 104.6 87.8 104.25 88.05 103.9 88.3 103.55 88.55 103.2 88.75 102.85 88.95 102.45 89.15 102.1 89.35 101.7 89.55 101.35 89.7 100.95 89.9 100.55 90.05 100.15 90.2 99.75 90.4 99.2 90.6 98.7 90.8 98.15 90.95 97.6 91.15 97.05 91.3 96.5 91.5 96.0 91.65 95.4 91.8 94.9 91.9 94.3 92.05 93.75 92.2 93.2 92.3 92.65 92.4 92.1 92.5 91.55 92.6 91.0 93.85 84.05 94.95 78.95 96.45 72.0 98.75 63.1 99.4 60.6 100.7 55.55 102.0 50.6 102.65 48.05 102.75 47.7 104.45 40.8 105.3 37.45 106.05 35.25 106.1 35.05 106.2 34.8 106.3 34.6 106.35 34.35 106.45 34.15 106.55 33.95 106.6 33.75 106.7 33.5 106.8 33.3 106.9 33.1 107.0 32.9 107.1 32.7 107.25 32.45 107.35 32.25 107.45 32.05 107.55 31.85 107.6 31.75 107.65 31.7 107.7 31.6 107.8 31.5 107.85 31.4 107.9 31.35 107.95 31.25 108.0 31.15 108.05 31.1 108.15 31.0 108.2 30.95 108.25 30.85 108.3 30.75 108.4 30.7 108.45 30.6 108.5 30.55 108.5 30.5 108.5 30.45 108.55 30.4 108.55 30.35 108.55 30.3 108.6 30.3 108.6 30.25 108.65 30.2 108.65 30.15 108.7 30.1 108.7 30.1 108.75 30.05 108.75 30.0 108.8 29.95 108.8 29.95 108.85 29.9 L108.85 29.9" fill="#0e0096" fill-rule="evenodd" stroke="none"/>
  </g>
</svg>
