<?xml version="1.0" encoding="UTF-8" standalone="no"?>
<svg xmlns:xlink="http://www.w3.org/1999/xlink" height="76.15px" width="109.45px" xmlns="http://www.w3.org/2000/svg">
  <g transform="matrix(1.0, 0.0, 0.0, 1.0, 0.0, 0.0)">
    <path d="M6.25 10.9 Q13.2 12.15 23.3 13.7 27.75 14.35 46.9 17.45 49.25 17.85 50.2 18.0 51.95 18.25 53.25 18.45 54.85 18.7 56.15 18.9 57.55 19.1 58.8 19.25 60.15 19.4 61.35 19.5 62.6 19.65 63.75 19.7 64.95 19.8 66.05 19.8 67.25 19.85 68.35 19.8 78.05 19.55 79.25 19.2 80.85 18.75 79.6 19.1 79.8 19.05 80.0 19.0 80.25 18.9 80.45 18.85 80.75 18.8 81.0 18.8 81.3 18.75 81.55 18.7 81.9 18.7 82.2 18.7 82.5 18.65 82.85 18.7 83.2 18.75 83.55 18.8 83.95 18.85 84.35 19.0 84.75 19.1 85.1 19.25 85.45 19.4 85.8 19.55 86.1 19.7 86.4 19.9 86.7 20.05 86.95 20.25 87.2 20.4 87.4 20.6 87.6 20.75 87.8 20.95 87.95 21.05 88.15 21.25 97.5 29.6 99.3 31.75 100.3 32.95 101.25 34.15 102.1 35.3 102.95 36.4 103.65 37.45 104.35 38.45 104.95 39.4 105.55 40.3 106.05 41.1 106.5 41.9 106.85 42.55 107.2 43.2 107.5 43.7 107.75 44.2 107.9 44.5 108.05 44.85 108.15 45.05 108.3 45.3 108.4 45.5 108.5 45.75 108.6 45.95 108.7 46.15 108.75 46.35 108.85 46.55 108.95 46.75 109.05 46.9 109.1 47.1 109.2 47.25 109.25 47.45 109.3 47.6 109.4 47.75 109.45 47.9 109.4 48.0 109.35 48.1 109.3 48.2 109.25 48.3 109.2 48.4 109.15 48.45 109.05 48.55 109.0 48.65 108.95 48.75 108.85 48.85 108.8 48.95 108.7 49.05 108.65 49.15 108.55 49.25 108.45 49.35 108.35 49.45 107.95 49.85 107.5 50.15 107.05 50.45 106.55 50.65 106.1 50.85 105.6 51.0 105.2 51.1 104.7 51.15 104.3 51.2 103.85 51.25 103.5 51.25 103.15 51.25 102.85 51.25 102.6 51.2 102.4 51.2 102.25 51.15 100.45 49.55 96.95 46.35 97.0 46.95 97.1 47.55 97.15 48.15 97.25 48.75 97.3 49.3 97.4 49.85 97.45 50.4 97.55 50.95 97.6 51.45 97.65 51.95 97.75 52.4 97.8 52.9 97.85 53.35 97.95 53.8 98.0 54.2 98.05 54.65 99.15 62.05 100.4 68.4 100.5 68.9 100.6 69.45 100.7 69.95 100.8 70.45 100.9 70.9 101.0 71.35 101.1 71.8 101.2 72.25 101.25 72.7 101.35 73.1 101.45 73.5 101.55 73.9 101.6 74.25 101.7 74.6 101.75 74.95 101.85 75.25 101.65 75.25 101.5 75.2 101.3 75.2 101.1 75.15 100.9 75.15 100.7 75.1 100.45 75.05 100.25 75.05 100.0 75.0 99.8 74.9 99.55 74.85 99.3 74.8 99.05 74.7 98.8 74.65 98.5 74.55 98.25 74.45 97.65 74.2 97.05 73.95 96.5 73.65 96.0 73.3 95.5 73.0 95.0 72.65 94.55 72.3 94.1 71.9 93.7 71.55 93.3 71.1 92.95 70.75 92.55 70.3 92.2 69.95 91.8 69.45 91.55 69.15 91.1 68.65 90.8 68.3 90.55 67.95 90.25 67.55 90.0 67.15 89.7 66.75 89.4 66.3 89.05 65.8 88.75 65.3 88.45 64.8 88.15 64.25 87.8 63.65 87.5 63.05 87.2 62.45 86.95 61.8 86.65 61.1 86.35 60.4 85.55 62.8 84.5 65.75 84.35 66.2 84.15 66.7 84.05 67.1 83.9 67.55 83.8 67.8 83.65 68.3 83.5 68.75 83.4 69.0 83.3 69.4 83.2 69.65 83.05 70.0 82.95 70.3 82.8 70.65 82.65 70.95 82.5 71.25 82.35 71.6 82.2 71.9 82.0 72.15 81.85 72.45 81.7 72.7 81.5 72.95 81.35 73.2 81.2 73.45 81.05 73.65 80.85 73.85 80.7 74.05 80.55 74.25 80.4 74.45 80.3 74.6 80.15 74.75 80.0 74.9 79.9 75.05 79.6 74.8 79.35 74.5 79.0 74.2 78.7 73.9 78.35 73.55 78.0 73.15 77.65 72.7 77.3 72.3 76.95 71.8 76.6 71.3 76.2 70.8 75.9 70.25 75.55 69.65 75.2 69.05 74.85 68.4 74.55 67.7 74.25 66.95 73.95 66.2 73.7 65.5 73.5 64.75 73.3 64.1 73.2 63.4 73.05 62.75 72.95 62.1 72.85 61.5 72.8 60.95 72.75 60.4 72.75 59.85 72.7 59.4 72.7 58.9 72.7 58.5 72.75 58.1 72.55 58.2 72.3 58.35 72.1 58.45 71.85 58.6 71.6 58.75 71.35 58.85 71.05 59.0 70.8 59.15 70.5 59.3 70.2 59.45 69.85 59.6 69.55 59.75 69.2 59.9 68.85 60.05 68.5 60.2 68.15 60.35 67.45 60.65 67.1 60.8 66.45 61.05 65.95 61.25 65.3 61.5 64.75 61.7 64.1 61.9 63.45 62.1 62.75 62.3 62.1 62.45 61.35 62.65 60.65 62.75 59.9 62.9 59.15 63.0 58.3 63.1 57.5 63.1 57.1 63.1 56.7 63.1 56.3 63.15 55.85 63.1 55.35 63.1 54.85 63.05 54.3 63.05 53.75 62.95 53.2 62.9 52.6 62.8 51.95 62.7 51.35 62.55 50.7 62.4 50.0 62.2 49.3 62.0 48.65 61.8 48.9 61.55 49.1 61.3 49.35 61.05 49.6 60.8 49.85 60.5 50.1 60.25 50.35 59.95 50.6 59.7 50.85 59.4 51.1 59.1 51.35 58.8 51.6 58.5 51.85 58.15 52.1 57.85 52.35 57.5 52.6 57.2 52.85 56.85 53.1 56.55 53.35 56.2 53.55 55.9 53.8 55.55 54.0 55.25 54.2 54.9 54.4 54.6 54.6 54.3 54.8 53.95 55.0 53.65 55.2 53.35 55.35 53.05 55.55 52.75 55.7 52.5 55.9 52.2 55.65 52.3 55.45 52.35 55.2 52.45 54.95 52.5 54.7 52.6 54.45 52.65 54.15 52.75 53.85 52.8 53.55 52.9 53.25 53.0 52.9 53.05 52.6 53.15 52.25 53.2 51.9 53.25 51.55 53.35 51.2 53.4 50.3 53.55 49.35 53.65 48.5 53.75 47.65 53.8 46.8 53.8 46.0 53.8 45.2 53.8 44.4 53.75 43.65 53.7 42.9 53.6 42.2 53.5 41.4 53.4 40.8 53.3 40.0 53.15 39.5 53.05 38.6 52.9 38.0 52.8 37.35 52.65 36.7 52.5 36.05 52.35 35.35 52.2 34.6 52.0 33.85 51.8 33.1 51.55 32.3 51.3 31.5 51.05 30.65 50.8 29.8 50.45 28.95 50.15 28.05 49.8 27.15 49.4 26.25 49.0 26.65 48.85 27.05 48.65 27.4 48.5 27.8 48.3 28.2 48.15 28.6 47.95 29.0 47.8 29.4 47.6 29.8 47.4 30.2 47.2 30.6 47.0 31.05 46.8 31.45 46.6 31.85 46.4 32.3 46.15 32.7 45.95 33.1 45.75 33.5 45.5 33.9 45.3 34.3 45.1 34.7 44.85 35.1 44.65 35.5 44.45 35.9 44.2 36.25 44.0 36.65 43.8 37.0 43.55 37.4 43.35 37.75 43.15 38.1 42.9 38.45 42.7 38.8 42.5 38.5 42.55 38.2 42.6 37.85 42.6 37.5 42.65 37.15 42.7 36.8 42.75 36.4 42.75 36.0 42.8 35.6 42.8 35.2 42.85 34.75 42.85 34.35 42.9 33.9 42.9 33.45 42.9 32.95 42.9 32.5 42.9 32.15 42.9 31.85 42.9 31.4 42.85 30.9 42.85 30.35 42.8 29.7 42.75 29.0 42.65 28.25 42.55 27.45 42.45 26.6 42.3 25.7 42.15 24.8 41.95 23.75 41.75 22.8 41.45 21.7 41.2 20.65 40.85 19.55 40.5 18.45 40.05 17.4 39.65 16.35 39.2 15.35 38.8 14.4 38.3 13.5 37.85 12.6 37.35 11.8 36.85 10.95 36.35 10.2 35.9 9.45 35.4 8.75 34.9 8.1 34.4 7.45 33.95 6.85 33.5 6.4 32.9 5.45 31.65 5.85 31.65 6.2 31.6 6.6 31.6 7.0 31.55 7.4 31.5 7.75 31.5 8.15 31.45 8.55 31.4 9.0 31.35 9.4 31.35 9.8 31.3 10.2 31.25 10.6 31.2 11.05 31.15 11.45 31.1 11.85 31.05 12.65 30.95 13.4 30.85 14.2 30.7 14.95 30.6 15.7 30.45 16.45 30.35 17.15 30.2 17.9 30.05 18.6 29.9 19.3 29.75 20.0 29.6 20.65 29.45 21.35 29.3 22.0 29.15 22.65 28.95 23.3 28.8 23.1 28.75 22.9 28.7 22.7 28.65 22.5 28.6 22.25 28.55 22.05 28.45 21.8 28.4 21.55 28.35 21.3 28.25 21.05 28.2 20.75 28.1 20.5 28.05 20.2 27.95 19.9 27.85 19.6 27.75 19.3 27.65 18.55 27.4 18.1 27.25 17.45 27.05 16.95 26.9 16.4 26.7 15.9 26.55 15.35 26.35 14.85 26.15 14.3 25.95 13.8 25.7 13.3 25.5 12.8 25.25 12.3 25.05 11.8 24.75 11.3 24.5 10.85 24.2 10.05 23.7 9.25 23.15 8.55 22.6 7.85 22.0 7.2 21.45 6.6 20.85 6.05 20.3 5.5 19.7 5.05 19.15 4.55 18.55 4.15 18.05 3.75 17.5 3.4 17.05 3.05 16.5 2.8 16.15 2.45 15.6 2.2 15.2 1.9 14.75 1.65 14.35 1.45 13.95 1.2 13.55 1.0 13.15 0.8 12.75 0.6 12.4 0.4 12.0 0.25 11.65 0.1 11.3 -0.1 10.95 -0.2 10.65 -0.35 10.3 -0.5 10.0 -0.6 9.7 3.15 10.4 6.25 10.9 L6.25 10.9" fill="#000000" fill-rule="evenodd" stroke="none"/>
  </g>
</svg>
