<?xml version="1.0" encoding="UTF-8" standalone="no"?>
<svg xmlns:xlink="http://www.w3.org/1999/xlink" height="31.45px" width="20.2px" xmlns="http://www.w3.org/2000/svg">
  <g transform="matrix(1.0, 0.0, 0.0, 1.0, 10.1, 15.7)">
    <path d="M-8.05 -1.9 Q-6.2 -5.95 -5.85 -6.65 -5.45 -7.5 -5.0 -8.35 -4.55 -9.15 -4.1 -10.0 -3.65 -10.8 -3.2 -11.6 -2.75 -12.35 -2.3 -13.1 -1.9 -13.8 -1.45 -14.5 -1.0 -15.15 -0.6 -15.85 -0.2 -16.45 0.2 -17.05 0.55 -17.6 0.95 -18.15 1.25 -18.45 1.5 -18.7 1.8 -18.95 2.05 -19.2 2.3 -19.4 2.6 -19.6 2.85 -19.8 3.1 -19.95 3.35 -20.1 3.6 -20.25 3.8 -20.4 4.0 -20.5 4.25 -20.6 4.45 -20.7 4.6 -20.8 4.8 -20.85 5.25 -21.05 6.45 -21.4 6.95 -21.55 7.15 -21.6 7.5 -21.75 7.8 -21.8 8.1 -21.9 8.3 -21.95 8.55 -22.05 8.75 -22.1 8.95 -22.15 9.15 -22.15 9.3 -22.2 9.45 -22.2 9.6 -22.25 9.7 -22.25 9.8 -22.2 9.85 -22.2 10.15 -22.1 10.4 -21.65 10.6 -21.3 10.7 -20.6 10.8 -20.0 10.8 -19.2 10.85 -18.45 10.8 -17.5 10.75 -16.7 10.65 -15.75 10.6 -14.9 10.5 -14.0 10.4 -13.25 10.3 -12.45 10.2 -11.9 10.1 -11.25 10.1 -11.15 10.1 -11.0 10.05 -10.9 10.05 -10.75 10.05 -10.6 10.05 -10.45 10.0 -10.3 10.0 -10.15 9.95 -10.0 9.95 -9.8 9.9 -9.65 9.85 -9.45 9.85 -9.3 9.8 -9.1 9.75 -8.9 9.7 -8.7 9.6 -8.2 9.4 -7.75 9.25 -7.3 9.1 -6.85 8.95 -6.45 8.75 -6.05 8.55 -5.7 8.4 -5.35 8.2 -5.1 8.05 -4.75 7.9 -4.55 7.75 -4.25 7.5 -3.95 7.5 -3.85 7.35 -3.65 7.3 -3.55 6.75 -2.45 6.3 -1.15 5.9 -0.1 5.55 1.3 5.3 2.1 4.9 3.75 4.45 5.4 4.25 6.2 3.9 7.55 3.5 8.5 3.05 9.7 2.55 10.65 2.0 11.7 1.3 12.5 0.5 13.4 -0.45 14.05 -0.6 14.15 -0.75 14.25 -1.0 14.4 -1.25 14.55 -1.55 14.7 -1.9 14.9 -2.25 15.05 -2.65 15.2 -3.1 15.35 -3.55 15.45 -4.0 15.6 -4.5 15.6 -5.0 15.65 -5.5 15.6 -6.0 15.55 -6.5 15.4 -7.1 15.2 -7.6 14.85 -8.05 14.5 -8.5 14.05 -8.9 13.6 -9.2 13.1 -9.5 12.65 -9.75 12.1 -10.0 11.65 -10.15 11.15 -10.3 10.7 -10.45 10.25 -10.55 9.95 -10.6 9.6 -10.65 9.4 -10.7 9.2 -10.8 8.8 -10.8 8.45 -10.85 8.05 -10.85 7.7 -10.9 7.35 -10.85 7.0 -10.85 6.65 -10.85 6.3 -10.8 6.0 -10.75 5.7 -10.7 5.4 -10.65 5.05 -10.6 4.8 -10.5 4.5 -10.5 4.3 -10.4 3.95 -10.1 2.5 -8.05 -1.9 L-8.05 -1.9" fill="#37a0aa" fill-rule="evenodd" stroke="none"/>
  </g>
</svg>
