<?xml version="1.0" encoding="UTF-8" standalone="no"?>
<svg xmlns:xlink="http://www.w3.org/1999/xlink" height="37.85px" width="21.15px" xmlns="http://www.w3.org/2000/svg">
  <g transform="matrix(1.0, 0.0, 0.0, 1.0, 10.6, 18.9)">
    <path d="M8.8 -18.9 L3.7 -16.35 3.55 -16.3 3.15 -16.0 1.7 -15.0 Q1.5 -14.85 1.35 -14.7 1.15 -14.55 1.0 -14.4 0.8 -14.2 0.6 -14.05 0.4 -13.85 0.2 -13.65 -0.05 -13.4 -0.25 -13.2 -0.45 -12.95 -0.65 -12.7 -0.85 -12.4 -1.05 -12.15 -1.25 -11.85 -1.4 -11.55 -1.5 -11.4 -1.6 -11.25 -1.65 -11.1 -1.75 -10.95 -1.85 -10.8 -1.9 -10.65 -2.0 -10.5 -2.05 -10.35 -2.1 -10.2 -2.2 -10.05 -2.25 -9.9 -2.3 -9.8 -2.35 -9.65 -2.4 -9.5 -2.45 -9.4 -2.5 -9.25 L-2.7 -8.8 Q-3.1 -8.45 -3.5 -8.05 -3.55 -8.0 -3.55 -8.0 -3.6 -7.95 -3.65 -7.9 -3.65 -7.9 -3.7 -7.85 -3.75 -7.8 -3.8 -7.75 -3.8 -7.7 -3.85 -7.65 -3.9 -7.6 -3.9 -7.55 -3.95 -7.5 -4.0 -7.45 -4.05 -7.35 -4.05 -7.3 -4.1 -7.2 -4.15 -7.1 -4.15 -7.05 -4.2 -6.95 -4.25 -6.9 -4.25 -6.8 -4.25 -6.7 -4.3 -6.65 -4.3 -6.55 -4.3 -6.5 -4.3 -6.45 -4.35 -6.35 -4.35 -6.3 -4.35 -6.25 -4.35 -6.2 -4.35 -6.15 -4.35 -6.15 -4.4 -6.15 -4.4 -6.15 -4.4 -6.15 -4.45 -6.15 -4.45 -6.15 -4.5 -6.15 -4.5 -6.1 -4.55 -6.1 -4.6 -6.1 -4.6 -6.1 -4.65 -6.05 -4.7 -6.05 -4.7 -6.0 -4.75 -6.0 -4.8 -5.95 -4.85 -5.9 -4.85 -5.9 -4.9 -5.85 -4.9 -5.8 -4.95 -5.75 -4.95 -5.7 -4.95 -5.7 -4.95 -5.65 -5.0 -5.65 -5.0 -5.6 -5.7 -3.8 -7.25 0.0 L-7.5 0.4 Q-7.65 0.4 -7.85 0.45 -8.0 0.5 -8.15 0.55 -8.3 0.6 -8.45 0.65 -8.55 0.75 -8.7 0.85 -8.85 0.95 -8.95 1.05 -9.05 1.15 -9.15 1.25 -9.25 1.4 -9.35 1.55 -9.4 1.65 -9.45 1.8 -9.5 1.95 -9.55 2.05 -9.55 2.2 -9.6 2.3 -9.6 2.4 -9.6 2.55 -9.6 2.65 -9.6 2.75 -9.6 2.85 -9.6 2.95 -9.6 3.05 -9.55 3.15 -9.55 3.25 -9.5 3.35 -9.5 3.4 -9.45 3.5 L-10.4 5.55 Q-10.45 5.8 -10.5 6.1 -10.55 6.45 -10.6 6.85 -10.65 7.35 -10.65 7.85 -10.65 8.45 -10.6 9.0 -10.55 9.65 -10.45 10.3 -10.3 11.0 -10.1 11.65 -9.85 12.35 -9.55 13.05 -9.2 13.75 -8.7 14.4 -8.55 14.65 -8.35 14.85 -8.2 15.05 -8.05 15.25 -7.85 15.45 -7.7 15.65 -7.5 15.8 -7.35 16.0 -7.15 16.15 -7.0 16.3 -6.8 16.45 -6.65 16.55 -6.45 16.7 -6.3 16.8 -6.15 16.95 -6.0 17.05 -5.7 17.05 -5.4 17.1 -5.05 17.1 -4.75 17.1 -4.35 17.1 -4.0 17.05 -3.6 17.05 -3.2 17.0 -2.8 16.9 -2.4 16.85 -1.95 16.75 -1.55 16.6 -1.1 16.45 -0.65 16.25 -0.2 16.05 0.2 15.8 0.7 15.5 1.15 15.15 1.6 14.8 1.95 14.4 2.35 14.0 2.65 13.55 3.0 13.15 3.3 12.65 3.55 12.15 3.85 11.6 4.1 11.1 4.35 10.5 4.6 10.0 4.85 9.3 5.0 8.9 5.35 8.05 5.6 7.4 5.85 6.7 6.1 6.0 6.3 5.3 6.5 4.65 6.7 3.9 6.85 3.25 7.05 2.5 7.2 1.85 7.35 1.1 7.5 0.45 7.65 -0.3 7.75 -0.95 7.9 -1.75 8.0 -2.2 8.15 -3.15 8.5 -5.1 8.75 -6.1 9.2 -7.95 9.95 -10.65 10.15 -11.35 10.3 -11.95 10.4 -12.6 10.5 -13.2 10.55 -13.8 10.55 -14.35 10.55 -14.9 10.45 -15.45 10.4 -15.95 10.25 -16.45 10.1 -16.9 9.9 -17.35 9.7 -17.75 9.4 -18.15 9.15 -18.55 8.8 -18.9 L8.8 -18.9 M8.6 -9.7 L8.6 -9.75 8.8 -9.75 8.6 -9.7 8.6 -9.7" fill="#4b50b6" fill-rule="evenodd" stroke="none"/>
  </g>
</svg>
