<?xml version="1.0" encoding="UTF-8" standalone="no"?>
<svg xmlns:xlink="http://www.w3.org/1999/xlink" height="19.45px" width="16.05px" xmlns="http://www.w3.org/2000/svg">
  <g transform="matrix(1.0, 0.0, 0.0, 1.0, 8.0, 9.75)">
    <path d="M5.5 -9.75 Q5.7 -9.8 5.85 -9.8 6.05 -9.8 6.2 -9.75 6.35 -9.75 6.5 -9.7 6.65 -9.65 6.75 -9.6 6.9 -9.55 7.0 -9.5 7.05 -9.45 7.15 -9.35 7.2 -9.3 7.25 -9.2 7.3 -9.15 7.3 -9.05 7.3 -9.0 7.3 -8.9 7.3 -8.85 7.25 -8.75 7.2 -8.7 7.15 -8.6 7.1 -8.55 7.05 -8.45 6.95 -8.4 6.85 -8.35 6.8 -8.25 6.65 -8.2 6.55 -8.15 6.45 -8.1 6.35 -8.05 6.2 -8.0 5.9 -7.9 5.55 -7.85 5.25 -7.8 4.85 -7.75 4.6 -7.75 4.2 -7.7 3.7 -7.65 3.5 -7.65 3.1 -7.6 2.8 -7.55 2.45 -7.5 2.15 -7.4 1.8 -7.3 1.5 -7.2 1.2 -7.05 0.9 -6.85 0.45 -6.45 0.0 -6.05 -0.4 -5.6 -0.8 -5.15 -1.2 -4.75 -1.6 -4.25 -1.95 -3.85 -2.35 -3.35 -2.65 -2.9 -3.05 -2.4 -3.35 -2.0 -3.75 -1.4 -4.45 -0.5 -4.45 -0.45 -4.9 0.1 -5.2 0.5 -5.4 0.7 -5.5 0.9 -5.6 1.05 -5.6 1.25 -5.6 1.4 -5.5 1.6 -5.4 1.75 -5.25 1.95 -5.15 2.1 -4.95 2.25 -4.85 2.4 -4.6 2.6 -4.35 2.8 -4.25 2.9 -4.05 3.1 -3.95 3.2 -3.45 3.65 -2.95 4.05 -2.4 4.45 -1.9 4.8 -1.35 5.2 -0.8 5.5 -0.25 5.85 0.25 6.15 0.85 6.4 1.4 6.65 1.95 6.9 2.5 7.05 3.05 7.2 3.6 7.35 4.15 7.45 4.7 7.5 4.85 7.2 4.95 6.85 5.1 6.55 5.2 6.2 5.3 5.9 5.35 5.55 5.45 5.2 5.55 4.85 5.6 4.55 5.7 4.15 5.75 3.9 5.85 3.45 5.9 3.0 5.95 2.75 6.05 2.35 6.1 2.05 6.2 1.75 6.25 1.4 6.3 1.15 6.35 0.85 6.35 0.6 6.4 0.35 6.4 0.15 6.45 -0.15 6.45 -0.45 6.45 -0.55 6.5 -0.8 6.5 -0.95 6.55 -1.15 6.6 -1.35 6.65 -1.55 6.7 -1.7 7.1 -1.95 7.35 -1.95 7.65 -2.0 7.8 -1.85 7.95 -1.7 8.0 -1.4 8.05 -1.15 8.05 -0.75 8.05 -0.4 8.0 0.0 7.95 0.35 7.9 0.75 7.85 0.95 7.75 1.4 7.7 1.75 7.7 1.85 7.55 2.7 7.35 3.75 7.15 4.7 6.9 5.7 6.65 6.7 6.35 7.7 6.05 8.65 5.8 9.55 5.5 10.45 5.25 11.2 4.95 11.95 4.75 12.5 4.5 13.05 4.35 13.4 4.15 13.7 4.1 13.7 3.6 13.7 3.05 13.65 2.5 13.65 1.95 13.55 1.4 13.45 0.85 13.35 0.35 13.25 -0.2 13.15 -0.7 13.0 -1.2 12.85 -1.65 12.75 -2.05 12.6 -2.5 12.45 -2.85 12.3 -3.2 12.15 -3.45 12.05 -4.05 11.7 -4.7 11.25 -5.3 10.85 -5.85 10.3 -6.45 9.8 -6.95 9.25 -7.45 8.75 -7.9 8.15 -8.35 7.6 -8.75 7.05 -9.1 6.55 -9.4 6.05 -9.7 5.55 -9.85 5.1 -10.05 4.7 -10.1 4.35 -8.7 2.55 -6.9 0.15 -4.85 -2.55 -4.45 -3.1 -3.3 -4.6 -2.55 -5.5 -1.65 -6.55 -1.0 -7.25 -0.25 -7.95 0.4 -8.4 1.1 -8.85 1.85 -9.1 2.55 -9.4 3.45 -9.55 4.25 -9.65 5.5 -9.75 L5.5 -9.75 M-8.35 4.7 Q-8.0 5.35 -7.6 6.0 -7.2 6.6 -6.75 7.2 -6.25 7.8 -5.75 8.35 -5.2 8.9 -4.6 9.35 -4.05 9.85 -3.4 10.2 -2.75 10.6 -2.05 10.95 -1.4 11.25 -0.65 11.45 0.1 11.65 0.85 11.75 1.0 11.75 1.25 11.8 1.4 11.85 1.65 11.9 1.75 11.9 2.05 12.0 2.25 12.05 2.4 12.1 2.6 12.15 2.75 12.15 2.9 12.2 3.0 12.15 3.15 12.15 3.2 12.1 3.25 12.05 3.3 11.95 4.5 8.65 3.85 10.55 4.05 9.95 4.15 9.65 4.2 9.35 4.2 9.15 4.15 9.0 3.95 8.95 3.85 8.9 3.5 8.85 2.95 8.75 2.75 8.7 2.2 8.6 1.7 8.45 1.0 8.2 0.3 7.9 -1.3 7.1 -2.55 6.25 -3.65 5.55 -4.5 4.85 -5.1 4.35 -5.65 3.75 -5.75 3.65 -6.3 3.05 -6.55 2.75 -6.65 2.7 -6.8 2.65 -7.0 2.85 -7.1 2.95 -7.45 3.5 -7.95 4.15 -8.35 4.7 L-8.35 4.7" fill="#000000" fill-rule="evenodd" stroke="none"/>
  </g>
</svg>
