<?xml version="1.0" encoding="UTF-8" standalone="no"?>
<svg xmlns:xlink="http://www.w3.org/1999/xlink" height="11.5px" width="15.95px" xmlns="http://www.w3.org/2000/svg">
  <g transform="matrix(1.0, 0.0, 0.0, 1.0, 7.95, 5.75)">
    <path d="M-5.05 -7.0 Q-5.25 -6.95 -5.5 -6.9 -5.75 -6.8 -6.05 -6.7 -6.35 -6.6 -6.65 -6.45 -7.0 -6.3 -7.35 -6.1 -7.7 -5.9 -8.05 -5.65 -8.4 -5.4 -8.75 -5.15 -9.1 -4.85 -9.45 -4.5 -9.8 -4.1 -10.1 -3.7 -10.25 -3.45 -10.35 -3.35 -10.5 -3.15 -10.6 -2.95 -10.75 -2.7 -10.9 -2.5 -11.0 -2.25 -11.15 -2.0 -11.25 -1.7 -11.35 -1.4 -11.4 -1.1 -11.45 -0.85 -11.5 -0.5 -11.5 -0.2 -11.5 0.15 -11.4 0.45 -11.35 0.7 -11.25 0.95 -11.2 1.15 -11.05 1.35 -10.95 1.55 -10.85 1.75 -10.75 1.95 -10.6 2.1 -10.5 2.25 -10.35 2.4 -10.2 2.55 -10.1 2.65 -10.0 2.75 -9.85 2.85 -9.8 2.95 -9.7 3.05 -9.55 3.15 -9.4 3.3 -9.25 3.4 -9.1 3.5 -9.0 3.55 -8.85 3.65 -8.7 3.75 -8.55 3.8 -8.45 3.9 -8.3 3.95 -8.2 4.0 -8.05 4.05 -7.95 4.1 -7.85 4.15 -7.75 4.2 -7.65 4.2 -7.9 4.2 -8.15 4.25 -8.35 4.3 -8.55 4.4 -8.75 4.5 -8.95 4.6 -9.1 4.7 -9.25 4.8 -9.4 4.95 -9.5 5.1 -9.6 5.2 -9.7 5.35 -9.75 5.5 -9.8 5.65 -9.8 5.8 -9.8 5.95 -9.8 6.1 -9.75 6.2 -9.7 6.35 -9.6 6.45 -9.5 6.55 -9.4 6.7 -9.3 6.8 -9.15 6.85 -9.05 6.95 -8.9 7.05 -8.75 7.1 -8.6 7.15 -8.45 7.2 -8.3 7.2 -8.15 7.2 -8.0 7.2 -7.9 7.2 -7.85 7.15 -7.8 7.15 -7.7 7.1 -7.65 7.1 -7.6 7.05 -7.65 7.1 -7.5 7.0 -7.4 6.95 -7.35 6.95 -7.3 6.9 -7.2 6.85 -7.15 6.85 -7.05 6.8 -6.95 6.8 -6.8 6.8 -6.75 6.8 -6.75 6.8 -6.7 6.75 -6.65 6.75 -6.6 6.75 -6.5 6.75 -6.45 6.75 -6.4 6.75 -6.3 6.75 -6.25 6.75 -6.15 6.75 -6.05 6.8 -6.0 6.8 -5.9 6.85 -5.8 6.85 -5.7 6.9 -5.6 6.95 -5.45 7.0 -5.4 7.05 -5.3 7.15 -5.25 7.2 -5.15 7.3 -5.1 7.35 -5.05 7.45 -4.95 7.55 -4.9 7.6 -4.8 7.7 -4.75 7.75 -4.65 7.85 -4.55 7.9 -4.45 8.0 -4.3 8.05 -4.15 8.1 -3.4 8.25 -3.2 8.3 -3.05 8.35 -2.95 8.35 -2.8 8.4 -2.7 8.4 -2.65 8.4 -2.55 8.4 -2.5 8.45 -2.4 8.45 -2.35 8.45 -2.3 8.45 -2.25 8.45 -2.2 8.5 -2.15 8.5 -2.1 8.5 -2.05 8.55 -1.95 8.6 -1.9 8.6 -1.8 8.65 -1.75 8.7 -1.65 8.7 -1.6 8.75 -1.5 8.8 -1.45 8.85 -1.35 8.9 -1.25 8.95 -1.2 9.05 -1.1 9.1 -1.0 9.15 -0.9 9.25 -0.8 9.3 -0.65 9.4 -0.6 9.45 -0.5 9.5 -0.45 9.6 -0.4 9.6 -0.35 9.65 -0.3 9.7 -0.25 9.7 -0.2 9.75 -0.15 9.8 -0.1 9.8 -0.1 9.85 -0.05 9.85 0.0 9.85 0.05 9.85 0.1 9.9 0.15 9.9 0.2 9.9 0.3 9.9 0.35 9.9 0.4 9.85 0.45 9.85 0.5 9.85 0.55 9.8 0.6 9.8 0.7 9.75 0.7 9.75 0.75 9.7 0.8 9.7 0.85 9.65 0.95 9.65 1.0 9.6 1.05 9.6 1.15 9.6 1.2 9.6 1.3 9.6 1.35 9.6 1.45 9.65 1.5 9.65 1.6 9.7 1.65 9.7 1.75 9.75 1.85 9.8 1.9 9.85 2.0 9.9 2.05 9.9 2.15 10.0 2.25 10.05 2.35 10.1 2.5 10.2 2.65 10.3 2.8 10.4 2.9 10.5 3.0 10.6 3.1 10.7 3.15 10.7 3.25 10.85 3.35 10.9 3.4 10.95 3.45 11.0 3.5 11.05 3.55 11.05 3.65 11.1 3.7 11.1 3.8 11.1 3.9 11.1 4.0 11.1 4.1 11.05 4.15 11.05 4.25 11.0 4.35 10.95 4.45 10.9 4.5 10.8 4.6 10.75 4.65 10.65 4.75 10.6 4.8 10.5 4.85 10.4 4.9 10.35 4.95 10.25 4.95 10.15 4.95 10.1 5.0 10.05 5.0 10.0 5.0 9.9 5.05 9.85 5.05 9.8 5.05 9.7 5.05 9.65 5.05 9.55 5.05 9.45 5.05 9.4 5.0 9.3 5.0 9.2 5.0 9.1 5.0 9.0 4.95 8.85 4.9 7.95 4.9 7.95 4.9 7.9 4.95 7.85 4.95 7.8 5.0 7.75 5.0 7.7 5.05 7.65 5.1 7.6 5.15 7.55 5.15 7.5 5.25 7.45 5.3 7.4 5.35 7.3 5.4 7.3 5.5 7.2 5.65 7.05 5.7 7.0 5.95 6.8 5.95 6.75 5.95 6.75 6.6 6.15 7.05 5.75 7.45 5.4 7.85 5.05 8.0 4.9 8.25 4.65 8.4 4.55 8.6 4.35 8.7 4.25 8.9 4.1 9.0 3.95 9.15 3.8 9.25 3.7 9.4 3.55 9.5 3.45 9.6 3.3 9.65 3.2 9.75 3.1 9.8 2.95 9.85 2.85 9.9 2.7 9.95 2.65 9.95 2.55 10.0 2.5 10.0 2.4 10.05 2.35 10.05 2.25 10.05 2.2 10.1 2.1 10.1 2.0 10.1 1.95 10.1 1.85 10.15 1.75 10.15 1.65 10.15 1.55 10.15 1.4 10.15 1.3 10.15 0.9 10.1 0.4 10.05 -0.05 10.0 -0.5 9.9 -0.95 9.8 -1.45 9.7 -1.9 9.55 -2.35 9.45 -2.75 9.35 -3.2 9.2 -3.55 9.1 -3.9 9.0 -4.2 8.9 -4.55 8.8 -4.75 8.75 -5.0 8.85 -5.05 8.95 -5.1 9.05 -5.2 9.2 -5.3 9.35 -5.4 9.5 -5.5 9.7 -5.65 9.85 -5.8 10.05 -5.95 10.15 -6.1 10.3 -6.25 10.4 -6.35 10.5 -6.55 10.55 -6.65 10.6 -6.8 10.55 -6.95 10.55 -7.0 10.5 -7.05 10.5 -7.05 10.4 -7.1 10.35 -7.15 10.3 -7.25 10.2 -7.3 10.1 -7.35 10.0 -7.4 9.85 -7.55 9.75 -7.6 9.65 -7.65 9.6 -7.7 9.5 -7.75 9.45 -7.8 9.35 -7.85 9.4 -7.8 9.25 -7.9 9.15 -7.95 9.1 -8.0 9.05 -8.05 9.0 -8.05 8.9 -8.1 8.85 -8.15 8.75 -8.2 8.7 -8.25 8.6 -8.3 8.55 -8.35 8.5 -8.4 8.45 -8.45 8.4 -8.5 8.35 -8.55 8.35 -8.55 8.3 -8.6 8.25 -8.6 8.25 -8.65 8.2 -8.65 8.2 -8.7 8.15 -8.7 8.15 -8.75 8.1 -8.75 8.05 -8.8 7.9 -8.9 7.75 -8.95 7.65 -9.05 7.5 -9.1 7.35 -9.15 7.2 -9.2 7.1 -9.2 6.95 -9.25 6.85 -9.25 6.7 -9.3 6.6 -9.3 6.5 -9.3 6.4 -9.3 6.35 -9.3 6.25 -9.3 6.2 -9.3 6.05 -9.3 5.95 -9.3 5.85 -9.25 5.75 -9.25 5.65 -9.25 5.6 -9.2 5.55 -9.2 5.45 -9.15 5.35 -9.1 5.3 -9.1 5.25 -9.05 5.15 -9.05 5.05 -9.0 4.95 -9.0 4.85 -9.0 4.7 -9.0 4.55 -9.0 4.4 -9.0 4.25 -9.05 4.1 -9.05 3.95 -9.1 3.85 -9.1 3.7 -9.15 3.6 -9.2 3.5 -9.2 3.4 -9.25 3.3 -9.3 3.25 -9.3 3.15 -9.35 3.1 -9.4 3.05 -9.4 3.0 -9.4 2.9 -9.45 2.85 -9.5 2.8 -9.55 2.7 -9.6 2.7 -9.6 2.65 -9.65 2.65 -9.65 2.55 -9.75 2.5 -9.75 2.5 -9.8 2.45 -9.8 2.4 -9.85 2.4 -9.85 2.35 -9.9 2.3 -9.9 2.2 -9.9 2.1 -9.95 2.0 -9.95 1.9 -9.95 1.85 -9.95 1.75 -9.95 1.65 -9.95 1.6 -9.95 1.5 -9.9 2.2 -10.1 1.3 -9.85 1.2 -9.85 1.1 -9.8 1.0 -9.8 0.85 -9.8 0.7 -9.75 0.55 -9.75 0.55 -9.75 0.45 -9.75 0.35 -9.75 0.3 -9.75 0.25 -9.75 0.15 -9.75 0.05 -9.8 -0.05 -9.8 -0.15 -9.8 -0.2 -9.8 -0.35 -9.85 -0.45 -9.85 -0.55 -9.9 -0.65 -9.95 -0.75 -10.0 -0.9 -10.05 -1.0 -10.1 -1.05 -10.1 -1.1 -10.15 -1.15 -10.2 -1.2 -10.2 -1.25 -10.25 -1.3 -10.3 -1.35 -10.35 -1.45 -10.4 -1.45 -10.4 -1.5 -10.45 -1.6 -10.5 -1.65 -10.6 -1.75 -10.65 -1.85 -10.7 -2.0 -10.8 -2.15 -10.9 -2.2 -10.95 -2.3 -11.0 -2.4 -11.05 -2.45 -11.1 -2.55 -11.15 -2.6 -11.15 -2.7 -11.2 -2.75 -11.25 -2.8 -11.25 -2.9 -11.3 -2.95 -11.3 -3.0 -11.35 -3.1 -11.35 -3.15 -11.35 -3.2 -11.35 -3.35 -11.35 -3.45 -11.35 -3.6 -11.35 -3.7 -11.35 -3.8 -11.35 -3.95 -11.3 -4.05 -11.25 -4.1 -11.25 -4.2 -11.2 -4.3 -11.15 -4.35 -11.15 -4.4 -11.1 -4.45 -11.05 -4.5 -11.05 -4.55 -11.0 -4.55 -11.0 -4.65 -10.95 -4.7 -10.85 -4.8 -10.8 -4.85 -10.7 -4.9 -10.65 -4.95 -10.6 -5.0 -10.5 -5.05 -10.45 -5.1 -10.35 -5.15 -10.3 -5.15 -10.25 -5.2 -10.15 -5.2 -10.1 -5.25 -10.05 -5.25 -10.0 -5.3 -9.9 -5.4 -9.65 -5.45 -9.45 -5.45 -9.2 -5.5 -9.0 -5.5 -8.75 -5.45 -8.55 -5.45 -8.35 -5.4 -8.15 -5.4 -7.95 -5.35 -7.75 -5.3 -7.6 -5.25 -7.45 -5.2 -7.3 -5.15 -7.2 -5.1 -7.1 -5.05 -7.0 L-5.05 -7.0" fill="#a1d4e9" fill-rule="evenodd" stroke="none"/>
  </g>
</svg>
