<?xml version="1.0" encoding="UTF-8" standalone="no"?>
<svg xmlns:xlink="http://www.w3.org/1999/xlink" height="13.5px" width="17.95px" xmlns="http://www.w3.org/2000/svg">
  <g transform="matrix(1.0, 0.0, 0.0, 1.0, 8.95, 6.75)">
    <path d="M-9.3 4.35 Q-9.45 4.25 -9.6 4.15 -9.75 4.1 -9.9 4.0 -10.0 3.9 -10.15 3.8 -10.3 3.7 -10.4 3.6 -10.55 3.45 -10.65 3.35 -10.8 3.25 -10.9 3.1 -11.0 3.0 -11.1 2.9 -11.25 2.75 -11.35 2.6 -11.65 2.25 -11.85 1.85 -12.05 1.45 -12.2 1.0 -12.4 0.6 -12.45 0.15 -12.55 -0.3 -12.5 -0.75 -12.5 -1.2 -12.4 -1.65 -12.3 -2.15 -12.1 -2.55 -11.9 -3.0 -11.55 -3.45 -11.25 -3.85 -10.8 -4.25 -10.5 -4.5 -10.2 -4.75 -9.95 -5.0 -9.65 -5.2 -9.35 -5.45 -9.0 -5.65 -8.7 -5.85 -8.4 -6.05 -8.1 -6.25 -7.75 -6.45 -7.45 -6.65 -7.1 -6.85 -6.8 -7.0 -6.45 -7.2 -6.15 -7.35 -5.8 -7.55 -5.7 -7.6 -5.65 -7.6 -5.6 -7.65 -5.55 -7.65 -5.55 -7.7 -5.5 -7.75 -5.45 -7.75 -5.45 -7.8 -5.45 -7.85 -5.45 -7.9 -5.4 -7.9 -5.45 -8.0 -5.45 -8.05 -5.45 -8.1 -5.5 -8.15 -5.55 -8.25 -5.6 -8.3 -5.65 -8.5 -5.75 -8.65 -5.8 -8.75 -5.85 -8.9 -5.9 -9.0 -6.0 -9.15 -6.05 -9.25 -6.1 -9.4 -6.15 -9.5 -6.2 -9.65 -6.25 -9.8 -6.3 -9.9 -6.3 -10.05 -6.35 -10.2 -6.4 -10.35 -6.4 -10.45 -6.4 -10.5 -6.4 -10.6 -6.4 -10.65 -6.4 -10.7 -6.4 -10.8 -6.35 -10.85 -6.35 -10.9 -6.3 -11.0 -6.3 -11.05 -6.25 -11.1 -6.2 -11.15 -6.15 -11.2 -6.1 -11.25 -6.05 -11.3 -6.0 -11.35 -5.85 -11.45 -5.65 -11.55 -5.5 -11.65 -5.3 -11.7 -5.15 -11.8 -4.95 -11.9 -4.8 -11.95 -4.6 -12.0 -4.45 -12.1 -4.25 -12.15 -4.05 -12.2 -3.9 -12.25 -3.7 -12.3 -3.5 -12.35 -3.35 -12.35 -3.15 -12.4 -2.95 -12.4 -2.8 -12.4 -2.6 -12.4 -2.45 -12.4 -2.3 -12.35 -2.15 -12.3 -2.0 -12.2 -1.85 -12.15 -1.75 -12.05 -1.6 -11.9 -1.5 -11.8 -1.4 -11.65 -1.3 -11.5 -1.2 -11.3 -1.1 -11.15 -1.05 -10.95 -1.0 -10.85 -0.95 -10.8 -0.95 -10.7 -0.9 -10.65 -0.85 -10.6 -0.8 -10.55 -0.75 -10.5 -0.7 -10.5 -0.65 -10.5 -0.6 -10.5 -0.55 -10.45 -0.5 -10.5 -0.45 -10.5 -0.35 -10.5 -0.3 -10.55 -0.2 -10.6 0.9 -11.05 1.15 -11.1 1.35 -11.2 1.6 -11.2 1.8 -11.25 2.0 -11.25 2.2 -11.25 2.4 -11.2 2.55 -11.15 2.75 -11.1 2.9 -11.0 3.05 -10.9 3.2 -10.75 3.35 -10.6 3.45 -10.45 3.55 -10.3 3.65 -10.1 3.75 -9.9 3.75 -9.8 3.8 -9.75 3.85 -9.7 3.85 -9.65 3.9 -9.6 3.95 -9.55 3.95 -9.55 4.0 -9.5 4.05 -9.5 4.1 -9.5 4.15 -9.5 4.2 -9.5 4.25 -9.5 4.3 -9.5 4.35 -9.55 4.4 -9.55 4.7 -9.7 5.35 -9.95 5.4 -10.0 5.95 -10.2 6.35 -10.4 6.6 -10.45 6.8 -10.5 7.0 -10.55 7.2 -10.55 7.4 -10.55 7.55 -10.55 7.75 -10.5 7.9 -10.45 8.05 -10.35 8.2 -10.25 8.3 -10.15 8.45 -10.05 8.55 -9.9 8.6 -9.7 8.7 -9.55 8.75 -9.35 8.8 -9.15 8.8 -9.05 8.85 -9.0 8.85 -8.95 8.9 -8.9 8.9 -8.85 8.95 -8.8 8.95 -8.75 9.0 -8.75 9.05 -8.7 9.1 -8.7 9.15 -8.7 9.2 -8.65 9.25 -8.65 9.3 -8.65 9.35 -8.65 9.4 -8.65 10.55 -8.75 11.0 -8.8 11.1 -8.8 11.15 -8.8 11.25 -8.8 11.35 -8.8 11.4 -8.8 11.5 -8.75 11.55 -8.75 11.6 -8.7 11.7 -8.7 11.75 -8.65 11.8 -8.6 11.85 -8.55 11.9 -8.5 11.95 -8.4 12.0 -8.35 12.05 -8.25 12.1 -8.15 12.1 -8.1 12.1 -8.0 12.1 -7.95 12.1 -7.85 12.1 -7.8 12.1 -7.75 12.05 -7.65 12.05 -7.6 12.0 -7.55 11.95 -7.5 11.9 -7.45 11.85 -7.35 11.8 -7.3 11.75 -7.25 11.7 -7.2 11.2 -6.75 9.65 -5.1 9.6 -5.05 9.6 -5.05 9.6 -5.0 9.6 -5.0 9.55 -4.95 9.55 -4.95 9.55 -4.9 9.55 -4.85 9.6 -4.85 9.6 -4.8 9.6 -4.8 9.6 -4.75 9.6 -4.75 9.65 -4.7 9.65 -4.65 9.65 -4.65 9.75 -4.4 9.85 -4.2 9.95 -3.95 10.05 -3.75 10.15 -3.5 10.2 -3.3 10.3 -3.05 10.4 -2.85 10.45 -2.6 10.55 -2.4 10.6 -2.15 10.65 -1.9 10.7 -1.7 10.75 -1.45 10.8 -1.2 10.85 -0.95 10.95 -0.5 10.95 -0.05 10.95 0.4 10.95 0.8 10.9 1.2 10.8 1.65 10.75 2.05 10.6 2.45 10.5 2.85 10.3 3.2 10.1 3.6 9.9 3.95 9.7 4.3 9.4 4.65 9.15 5.0 8.85 5.35 8.7 5.5 8.6 5.6 8.5 5.75 8.4 5.85 8.3 5.95 8.15 6.05 8.05 6.2 7.9 6.3 7.8 6.4 7.65 6.5 7.55 6.6 7.4 6.7 7.25 6.8 7.1 6.85 7.0 6.95 6.8 7.05 6.7 7.1 6.65 7.15 6.55 7.2 6.5 7.3 6.4 7.35 6.35 7.4 6.3 7.45 6.2 7.6 6.15 7.7 6.1 7.75 6.0 7.85 5.95 7.9 5.85 7.95 5.75 8.0 5.65 8.1 5.55 8.1 5.55 8.1 5.5 8.15 5.5 8.15 5.5 8.2 5.5 8.2 5.5 8.25 5.5 8.25 5.5 8.3 5.5 8.35 5.5 8.4 5.5 8.4 5.5 8.45 5.55 8.45 5.55 8.5 5.55 8.55 5.55 8.55 5.55 8.65 5.95 10.25 5.95 10.3 6.0 10.4 6.0 10.45 6.0 10.5 6.0 10.6 6.0 10.65 6.0 10.7 6.0 10.8 6.0 10.85 6.0 10.9 6.0 10.95 6.0 11.05 6.0 11.1 6.0 11.15 6.0 11.2 5.95 11.3 5.9 11.4 5.85 11.5 5.8 11.6 5.75 11.7 5.65 11.8 5.6 11.85 5.5 11.95 5.35 12.0 5.25 12.05 5.15 12.05 5.0 12.1 4.85 12.1 4.7 12.1 4.55 12.1 4.4 12.1 4.25 12.05 4.1 12.0 4.0 12.0 3.9 11.95 3.75 11.9 3.65 11.85 3.55 11.8 3.4 11.75 3.3 11.7 3.2 11.6 3.1 11.55 3.0 11.5 2.9 11.4 2.8 11.3 2.7 11.25 2.6 11.15 2.5 11.05 2.4 10.95 2.3 10.8 2.1 10.6 2.05 10.55 2.0 10.5 1.95 10.45 1.9 10.4 1.85 10.35 1.8 10.3 1.75 10.3 1.7 10.25 1.65 10.25 1.6 10.2 1.55 10.25 1.5 10.25 1.45 10.25 1.4 10.3 1.35 10.35 1.3 10.4 1.2 10.5 1.15 10.6 1.05 10.65 1.0 10.7 0.9 10.75 0.8 10.8 0.7 10.8 0.6 10.8 0.5 10.8 0.4 10.85 0.3 10.8 0.2 10.8 0.1 10.75 -0.05 10.75 -0.15 10.7 -0.25 10.65 -0.35 10.6 -0.45 10.55 -0.5 10.5 -0.55 10.45 -0.65 10.4 -0.7 10.35 -0.75 10.3 -0.85 10.25 -0.9 10.2 -0.95 10.1 -1.0 10.05 -1.05 10.0 -1.15 9.95 -1.2 9.9 -1.25 9.8 -1.25 9.8 -1.35 9.7 -1.45 9.6 -1.55 9.5 -1.65 9.4 -1.75 9.3 -1.85 9.25 -1.95 9.2 -2.05 9.15 -2.15 9.15 -2.25 9.1 -2.35 9.1 -2.5 9.1 -2.6 9.1 -2.7 9.15 -2.85 9.15 -2.95 9.2 -3.1 9.25 -3.2 9.3 -3.3 9.3 -3.35 9.35 -3.45 9.35 -3.55 9.35 -3.6 9.35 -3.7 9.35 -3.75 9.35 -3.85 9.35 -3.95 9.3 -4.0 9.3 -4.1 9.25 -4.15 9.25 -4.25 9.2 -4.3 9.15 -4.4 9.1 -4.45 9.05 -4.55 9.0 -4.6 8.95 -4.65 8.9 -4.75 8.85 -4.8 8.75 -4.85 8.7 -4.95 8.65 -5.0 8.6 -5.05 8.55 -5.1 8.45 -5.2 8.4 -5.25 8.35 -5.3 8.25 -5.35 8.2 -5.4 8.15 -5.45 8.1 -5.5 8.05 -5.5 8.0 -5.55 7.95 -5.6 7.9 -5.65 7.9 -5.7 7.85 -5.7 7.8 -5.75 7.75 -5.8 7.7 -5.85 7.7 -5.9 7.65 -5.95 7.6 -6.0 7.6 -6.05 7.55 -6.1 7.5 -6.15 7.45 -6.2 7.45 -6.25 7.4 -6.3 7.4 -6.4 7.4 -6.45 7.4 -6.5 7.4 -6.55 7.4 -6.6 7.4 -6.65 7.4 -6.7 7.45 -6.75 7.45 -6.8 7.5 -6.85 7.5 -6.9 7.55 -6.9 7.6 -6.95 7.65 -7.0 7.7 -7.05 7.75 -7.15 7.8 -7.2 7.85 -7.25 7.85 -7.3 7.9 -7.35 7.9 -7.4 7.9 -7.5 7.9 -7.55 7.9 -7.6 7.9 -7.65 7.85 -7.75 7.85 -7.8 7.85 -7.85 7.8 -8.05 7.75 -8.25 7.65 -8.45 7.55 -8.65 7.5 -8.8 7.4 -9.0 7.3 -9.2 7.2 -9.35 7.1 -9.55 7.0 -9.7 6.9 -9.9 6.8 -10.05 6.65 -10.2 6.55 -10.4 6.45 -10.55 6.3 -10.75 6.2 -10.8 6.15 -10.8 6.15 -10.85 6.1 -10.85 6.1 -10.9 6.05 -10.9 6.0 -10.9 6.0 -10.9 5.95 -10.9 5.95 -10.9 5.9 -10.9 5.85 -10.9 5.85 -10.9 5.8 -10.9 5.75 -10.85 5.75 -10.85 5.7 -10.8 5.6 -10.75 5.55 -10.75 5.45 -10.7 5.4 -10.65 5.35 -10.6 5.3 -10.5 5.2 -10.45 5.15 -10.4 5.1 -10.35 5.05 -10.3 5.0 -10.2 4.95 -10.15 4.95 -10.05 4.9 -10.0 4.85 -9.9 4.8 -9.85 4.8 -9.8 4.75 -9.75 4.75 -9.75 4.7 -9.7 4.7 -9.65 4.7 -9.6 4.65 -9.55 4.65 -9.55 4.6 -9.5 4.6 -9.45 4.55 -9.45 4.5 -9.4 4.5 -9.35 4.45 -9.35 4.4 -9.3 4.35 L-9.3 4.35 M4.2 10.25 Q4.15 10.05 4.05 9.5 3.95 9.0 3.9 8.75 3.9 8.6 3.85 8.55 3.85 8.4 3.85 8.3 3.85 8.2 3.85 8.1 3.85 8.0 3.85 7.9 3.85 7.75 3.9 7.65 3.9 7.55 3.95 7.45 4.0 7.35 4.05 7.25 4.15 7.2 4.2 7.1 4.3 7.0 4.4 6.9 4.65 6.6 4.6 6.7 4.7 6.55 4.8 6.5 4.9 6.35 5.0 6.3 5.1 6.2 5.2 6.1 5.3 6.0 5.45 5.9 5.55 5.85 5.65 5.75 5.8 5.7 5.95 5.6 6.05 5.55 6.2 5.5 6.3 5.4 6.4 5.35 6.5 5.25 6.6 5.2 6.7 5.1 6.8 5.0 6.9 4.95 7.0 4.85 7.1 4.75 7.2 4.65 7.3 4.55 7.4 4.45 7.5 4.4 7.55 4.3 7.8 4.05 8.0 3.8 8.2 3.55 8.35 3.3 8.55 3.0 8.7 2.75 8.8 2.45 8.95 2.15 9.05 1.9 9.15 1.6 9.2 1.3 9.25 1.0 9.3 0.65 9.3 0.35 9.3 0.05 9.25 -0.3 9.25 -0.55 9.2 -0.8 9.15 -1.05 9.1 -1.3 9.05 -1.5 9.0 -1.75 8.9 -2.0 8.85 -2.25 8.75 -2.45 8.65 -2.7 8.6 -2.95 8.5 -3.15 8.4 -3.4 8.3 -3.65 8.2 -3.85 8.1 -4.1 8.0 -4.25 7.95 -4.4 7.9 -4.55 7.85 -4.7 7.8 -4.8 7.8 -4.9 7.8 -5.05 7.8 -5.15 7.8 -5.25 7.85 -5.4 7.9 -5.5 7.95 -5.6 8.0 -5.7 8.1 -5.85 8.2 -5.95 8.35 -6.1 8.6 -6.45 9.05 -6.95 9.05 -6.95 9.0 -7.0 9.0 -7.0 9.0 -7.0 8.95 -7.0 8.8 -7.05 8.7 -7.05 8.6 -7.1 8.45 -7.15 8.35 -7.2 8.2 -7.25 8.1 -7.3 8.0 -7.35 7.9 -7.4 7.8 -7.5 7.7 -7.55 7.6 -7.65 7.55 -7.75 7.45 -7.85 7.4 -7.95 7.35 -8.05 7.3 -8.2 7.25 -8.3 7.25 -8.45 7.25 -8.55 7.25 -8.6 7.2 -8.65 7.2 -8.7 7.15 -8.75 7.15 -8.8 7.1 -8.8 7.1 -8.85 7.05 -8.85 7.0 -8.85 6.95 -8.85 6.9 -8.85 6.9 -8.8 6.8 -8.8 6.75 -8.8 6.7 -8.75 5.15 -8.0 4.7 -7.9 4.5 -7.85 4.3 -7.85 4.1 -7.8 3.9 -7.8 3.7 -7.8 3.55 -7.85 3.35 -7.9 3.2 -7.95 3.05 -8.05 2.9 -8.15 2.75 -8.25 2.6 -8.4 2.5 -8.55 2.4 -8.75 2.3 -8.95 2.25 -9.2 2.25 -9.3 2.2 -9.35 2.15 -9.4 2.15 -9.45 2.1 -9.5 2.05 -9.5 2.0 -9.55 2.0 -9.55 1.95 -9.6 1.9 -9.6 1.85 -9.6 1.8 -9.6 1.75 -9.55 1.65 -9.55 1.6 -9.55 1.55 -9.5 0.15 -8.95 -0.1 -8.9 -0.3 -8.85 -0.45 -8.8 -0.65 -8.8 -0.8 -8.8 -1.0 -8.8 -1.15 -8.85 -1.3 -8.85 -1.45 -8.95 -1.6 -9.0 -1.75 -9.1 -1.85 -9.15 -2.0 -9.3 -2.1 -9.4 -2.2 -9.55 -2.3 -9.65 -2.35 -9.85 -2.45 -10.1 -2.5 -10.2 -2.6 -10.35 -2.65 -10.45 -2.75 -10.55 -2.8 -10.6 -2.85 -10.65 -2.95 -10.7 -3.0 -10.75 -3.1 -10.75 -3.2 -10.7 -3.35 -10.7 -3.45 -10.65 -3.6 -10.6 -3.75 -10.55 -4.0 -10.45 -4.05 -10.45 -4.1 -10.4 -4.2 -10.4 -4.2 -10.4 -4.25 -10.4 -4.35 -10.35 -4.4 -10.35 -4.4 -10.3 -4.45 -10.3 -4.5 -10.25 -4.5 -10.2 -4.5 -10.2 -4.55 -10.15 -4.55 -10.1 -4.55 -10.05 -4.5 -10.0 -4.5 -9.95 -4.5 -9.9 -4.5 -9.85 -4.45 -9.8 -4.4 -9.7 -4.35 -9.55 -4.3 -9.4 -4.2 -9.3 -4.15 -9.2 -4.05 -9.05 -3.95 -8.8 -3.95 -8.8 -3.85 -8.65 -3.8 -8.55 -3.75 -8.4 -3.65 -8.25 -3.6 -8.15 -3.55 -8.0 -3.5 -7.85 -3.5 -7.75 -3.45 -7.65 -3.45 -7.55 -3.45 -7.4 -3.45 -7.35 -3.45 -7.25 -3.45 -7.15 -3.45 -7.05 -3.5 -7.0 -3.5 -6.9 -3.55 -6.85 -3.6 -6.8 -3.65 -6.7 -3.75 -6.65 -3.8 -6.6 -3.9 -6.55 -4.0 -6.55 -4.25 -6.45 -4.5 -6.35 -4.7 -6.25 -4.95 -6.1 -5.2 -6.0 -5.4 -5.9 -5.65 -5.75 -5.9 -5.6 -6.1 -5.5 -6.35 -5.35 -6.55 -5.25 -6.8 -5.1 -7.0 -4.95 -7.25 -4.8 -7.45 -4.7 -7.7 -4.55 -7.9 -4.45 -8.0 -4.35 -8.2 -4.2 -8.35 -4.1 -8.5 -4.0 -8.65 -3.9 -8.8 -3.8 -8.95 -3.65 -9.1 -3.55 -9.25 -3.45 -9.4 -3.3 -9.55 -3.2 -9.65 -3.05 -9.8 -2.9 -9.95 -2.75 -10.05 -2.65 -10.15 -2.55 -10.25 -2.4 -10.35 -2.3 -10.4 -2.15 -10.5 -2.05 -10.55 -1.9 -10.65 -1.8 -10.7 -1.65 -10.75 -1.55 -10.75 -1.4 -10.8 -1.25 -10.8 -1.1 -10.85 -0.95 -10.85 -0.8 -10.85 -0.65 -10.85 -0.5 -10.8 -0.2 -10.75 0.05 -10.7 0.35 -10.6 0.6 -10.5 0.8 -10.4 1.05 -10.25 1.25 -10.1 1.5 -9.95 1.7 -9.8 1.9 -9.6 2.05 -9.4 2.25 -9.2 2.4 -9.0 2.55 -8.75 2.7 -8.55 2.85 -7.45 3.45 -7.05 3.75 -6.95 3.8 -6.85 3.9 -6.8 3.95 -6.75 4.0 -6.7 4.05 -6.65 4.15 -6.65 4.2 -6.65 4.25 -6.65 4.3 -6.65 4.35 -6.7 4.45 -6.7 4.5 -6.75 4.55 -6.85 4.6 -6.9 4.7 -7.0 4.75 -7.1 4.85 -7.2 4.9 -7.25 4.95 -7.35 5.05 -7.45 5.1 -7.55 5.2 -7.65 5.25 -7.75 5.35 -7.85 5.4 -7.95 5.45 -8.05 5.55 -8.15 5.6 -8.25 5.65 -8.35 5.75 -8.45 5.8 -8.55 5.85 -8.45 5.9 -8.35 5.95 -8.25 6.05 -8.15 6.05 -8.05 6.1 -7.95 6.15 -7.9 6.15 -7.8 6.15 -7.7 6.2 -7.6 6.15 -7.5 6.15 -7.45 6.1 -7.35 6.1 -7.25 6.0 -7.15 5.95 -7.1 5.85 -7.05 5.8 -7.0 5.75 -6.95 5.75 -6.85 5.7 -6.8 5.7 -6.75 5.65 -6.7 5.65 -6.6 5.65 -6.55 5.65 -6.5 5.65 -6.4 5.65 -6.35 5.65 -6.25 5.65 -6.2 5.7 -6.15 5.7 -6.05 5.7 -5.95 5.75 -5.9 5.75 -5.8 5.8 -5.75 5.85 -5.65 5.9 -5.6 5.9 -5.55 5.95 -5.45 6.0 -5.4 6.05 -5.35 6.1 -5.25 6.15 -5.2 6.25 -5.15 6.3 -5.1 6.35 -5.0 6.4 -4.95 6.45 -4.9 6.5 -4.85 6.6 -4.8 6.65 -4.7 6.75 -4.65 6.8 -4.6 6.85 -4.55 6.95 -4.5 7.0 -4.45 7.05 -4.35 7.15 -4.3 7.2 -4.25 7.25 -4.2 7.3 -4.15 7.4 -4.05 7.45 -4.0 7.5 -3.95 7.55 -3.95 7.55 -3.95 7.6 -3.9 7.6 -3.85 7.6 -3.85 7.65 -3.8 7.65 -3.8 7.65 -3.75 7.7 -3.75 7.7 -3.7 7.7 -3.65 7.7 -3.6 7.7 -3.6 7.65 -3.55 7.65 -3.5 7.65 -3.35 7.55 -3.2 7.5 -3.05 7.45 -2.95 7.4 -2.8 7.4 -2.65 7.4 -2.5 7.4 -2.4 7.4 -2.25 7.4 -2.1 7.45 -1.95 7.5 -1.85 7.55 -1.7 7.6 -1.6 7.7 -1.45 7.75 -1.3 7.85 -1.2 7.95 -0.05 8.85 0.0 8.9 0.0 8.9 0.05 8.9 0.05 8.95 0.1 8.95 0.15 8.95 0.15 9.0 0.2 9.0 0.2 9.0 0.25 9.0 0.25 8.95 0.3 8.95 0.35 8.95 0.35 8.9 0.4 8.9 0.45 8.85 0.5 8.8 0.55 8.75 0.6 8.7 0.65 8.7 0.7 8.65 0.75 8.6 0.8 8.6 0.85 8.55 0.9 8.55 1.0 8.5 1.05 8.5 1.1 8.5 1.15 8.5 1.25 8.5 1.3 8.5 1.35 8.45 1.5 8.45 1.65 8.45 1.75 8.5 1.9 8.5 2.05 8.55 2.15 8.6 2.3 8.65 2.4 8.7 2.5 8.75 2.6 8.85 2.7 8.9 2.85 9.0 2.95 9.1 3.05 9.15 3.15 9.25 3.25 9.35 3.3 9.4 3.35 9.45 3.35 9.45 3.45 9.6 3.5 9.65 3.55 9.7 3.6 9.8 3.65 9.85 3.75 9.9 3.8 9.95 3.85 10.0 3.9 10.05 4.0 10.1 4.05 10.15 4.15 10.2 4.2 10.25 L4.2 10.25" fill="#040404" fill-rule="evenodd" stroke="none"/>
    <path d="M1.35 6.6 Q-0.55 6.1 -0.7 6.05 -1.2 5.9 -2.15 5.55 -3.1 5.15 -3.6 5.0 -3.65 5.0 -3.7 4.95 -3.75 4.95 -3.75 4.9 -3.8 4.9 -3.85 4.9 -3.85 4.85 -3.9 4.8 -3.9 4.8 -3.9 4.75 -3.95 4.7 -3.95 4.7 -3.95 4.65 -3.95 4.6 -3.95 4.55 -3.9 4.5 -3.9 4.45 -3.85 4.4 -3.85 4.35 -3.8 4.35 -3.8 4.3 -3.75 4.3 -3.7 4.3 -3.7 4.25 -3.65 4.25 -3.6 4.25 -3.55 4.25 -3.5 4.25 -3.5 4.3 -3.45 4.3 -3.4 4.3 -3.35 4.3 -3.05 4.4 -2.75 4.55 -2.45 4.65 -2.15 4.75 -1.85 4.9 -1.55 5.0 -1.25 5.1 -0.95 5.2 -0.65 5.3 -0.35 5.4 -0.05 5.45 0.25 5.55 0.55 5.65 0.85 5.7 1.15 5.8 1.45 5.85 1.5 5.85 1.55 5.9 1.6 5.9 1.6 5.9 1.65 5.95 1.7 5.95 1.7 6.0 1.75 6.0 1.75 6.05 1.8 6.05 1.8 6.1 1.8 6.15 1.8 6.2 1.8 6.2 1.8 6.25 1.8 6.3 1.8 6.35 1.8 6.4 1.75 6.4 1.75 6.45 1.7 6.5 1.7 6.5 1.7 6.55 1.65 6.55 1.6 6.55 1.6 6.55 1.55 6.6 1.5 6.6 1.45 6.6 1.45 6.6 1.4 6.6 1.35 6.6 L1.35 6.6" fill="#040404" fill-opacity="0.72156864" fill-rule="evenodd" stroke="none"/>
  </g>
</svg>
