<?xml version="1.0" encoding="UTF-8" standalone="no"?>
<svg xmlns:xlink="http://www.w3.org/1999/xlink" height="61.5px" width="75.4px" xmlns="http://www.w3.org/2000/svg">
  <g transform="matrix(1.0, 0.0, 0.0, 1.0, 37.7, 30.75)">
    <path d="M7.5 12.2 Q-0.95 12.1 -17.85 11.85 -18.8 10.85 -20.75 8.8 -21.3 8.8 -22.4 8.75 -22.4 -2.3 -22.3 -24.35 -21.6 -24.8 -20.25 -25.7 -19.75 -26.35 -18.75 -27.7 -18.4 -27.95 -17.65 -28.5 -4.95 -28.3 20.3 -27.9 21.0 -27.3 22.4 -26.2 23.05 -25.4 24.25 -23.8 24.25 -19.65 24.2 -11.4 23.4 -10.7 21.85 -9.3 19.6 -9.3 15.1 -9.25 14.2 -10.2 12.35 -12.15 11.75 -13.05 10.55 -14.85 10.25 -14.9 9.65 -15.0 9.25 -15.55 8.35 -16.65 7.35 -16.45 5.3 -16.1 4.9 -15.65 4.1 -14.8 3.75 -12.15 3.1 -6.9 2.6 -6.35 1.6 -5.3 1.7 -1.75 1.85 5.2 2.2 5.8 2.8 7.05 3.3 7.2 4.3 7.55 4.75 8.05 5.6 9.0 6.25 10.05 7.5 12.2 L7.5 12.2" fill="#3c8b9e" fill-rule="evenodd" stroke="none"/>
  </g>
</svg>
