<?xml version="1.0" encoding="UTF-8" standalone="no"?>
<svg xmlns:xlink="http://www.w3.org/1999/xlink" height="18.4px" width="24.4px" xmlns="http://www.w3.org/2000/svg">
  <g transform="matrix(1.0, 0.0, 0.0, 1.0, 12.2, 9.2)">
    <path d="M-9.8 -2.75 Q-8.9 -2.95 -7.1 -3.35 -7.1 -3.3 -7.1 -3.3 -7.1 -3.25 -7.1 -3.25 -7.1 -3.2 -7.15 -3.15 -7.15 -3.1 -7.15 -3.1 -7.15 -3.05 -7.15 -3.0 -7.2 -2.95 -7.2 -2.95 -7.2 -2.9 -7.25 -2.85 -7.25 -2.8 -7.3 -2.75 -7.35 -2.65 -7.4 -2.6 -7.45 -2.5 -7.55 -2.45 -7.6 -2.35 -7.7 -2.3 -7.75 -2.25 -7.8 -2.2 -7.9 -2.15 -7.95 -2.1 -8.05 -2.1 -8.1 -2.05 -8.15 -2.05 -8.25 -2.0 -8.25 -2.0 -8.35 -1.95 -8.45 -1.9 -8.5 -1.9 -8.55 -1.9 -8.6 -1.85 -8.7 -1.85 -8.8 -1.8 -8.9 -1.8 -8.95 -1.8 -9.05 -1.75 -9.15 -1.75 -9.25 -1.75 -9.35 -1.75 -9.45 -1.8 -9.55 -1.8 -9.65 -1.85 -9.75 -1.85 -9.8 -1.9 -9.9 -1.9 -9.95 -1.95 -10.0 -2.0 -10.05 -2.05 -10.15 -2.1 -10.2 -2.15 -10.2 -2.2 -10.25 -2.2 -10.3 -2.25 -10.35 -2.3 -10.35 -2.35 -10.4 -2.4 -10.45 -2.45 -10.45 -2.45 -10.45 -2.5 -10.25 -2.6 -9.8 -2.75 L-9.8 -2.75" fill="#000000" fill-rule="evenodd" stroke="none"/>
    <path d="M7.15 5.35 Q7.15 5.5 7.15 5.65 7.15 5.8 7.2 5.95 7.2 6.1 7.25 6.25 7.25 6.35 7.3 6.45 7.3 6.55 7.35 6.7 7.35 6.75 7.4 6.85 7.45 6.95 7.45 7.0 7.5 7.05 7.55 7.15 7.55 7.2 7.6 7.25 7.65 7.35 7.65 7.4 7.7 7.5 7.8 7.6 7.85 7.7 7.9 7.8 8.0 7.9 8.05 7.95 8.15 8.05 8.2 8.1 8.3 8.2 8.4 8.2 8.5 8.25 8.55 8.2 8.6 8.2 8.65 8.15 8.7 8.15 8.75 8.1 8.8 8.05 8.8 8.05 8.85 8.0 8.9 7.95 8.9 7.9 8.95 7.8 8.95 7.75 9.0 7.7 9.0 7.65 9.05 7.6 9.05 7.55 9.1 7.5 9.15 7.35 9.2 7.15 9.25 7.0 9.25 6.85 9.3 6.7 9.3 6.5 9.3 6.35 9.3 6.2 9.3 6.05 9.3 5.9 9.25 5.8 9.25 5.65 9.25 5.55 9.2 5.4 9.2 5.3 9.15 5.2 8.5 5.25 7.15 5.35 L7.15 5.35" fill="#000000" fill-rule="evenodd" stroke="none"/>
    <path d="M-4.25 2.65 Q-4.25 2.7 -4.3 2.8 -4.35 2.9 -4.4 3.0 -4.45 3.1 -4.45 3.15 -4.5 3.25 -4.5 3.35 -4.55 3.45 -4.55 3.5 -4.6 3.6 -4.6 3.65 -4.6 3.7 -4.6 3.75 -4.55 3.8 -4.55 3.85 -4.5 3.9 -4.45 3.9 -4.4 3.9 -4.35 3.9 -4.3 3.85 -4.2 3.85 -4.15 3.8 -4.05 3.8 -3.95 3.75 -3.9 3.7 -3.8 3.65 -3.75 3.6 -3.65 3.55 -3.6 3.45 -3.5 3.4 -3.45 3.35 -3.35 3.3 -3.3 3.2 -3.25 3.15 -3.2 3.05 -3.15 3.0 -3.1 2.9 -3.05 2.85 -3.0 2.75 -2.95 2.7 -2.95 2.6 -2.9 2.55 -2.85 2.5 -2.85 2.4 -2.85 2.35 -2.8 2.3 -2.8 2.25 -3.15 2.1 -3.75 1.85 -3.75 1.9 -3.8 1.9 -3.85 1.95 -3.85 2.0 -3.9 2.05 -3.9 2.1 -3.95 2.15 -3.95 2.2 -4.0 2.25 -4.05 2.3 -4.05 2.35 -4.1 2.4 -4.15 2.45 -4.15 2.55 -4.2 2.6 -4.25 2.65 L-4.25 2.65" fill="#000000" fill-rule="evenodd" stroke="none"/>
  </g>
</svg>
