<?xml version="1.0" encoding="UTF-8" standalone="no"?>
<svg xmlns:xlink="http://www.w3.org/1999/xlink" height="40.2px" width="24.35px" xmlns="http://www.w3.org/2000/svg">
  <g transform="matrix(1.0, 0.0, 0.0, 1.0, 12.2, 20.1)">
    <path d="M12.05 -16.6 Q11.85 -15.9 11.65 -15.25 11.45 -14.55 11.25 -13.85 11.05 -13.15 10.8 -12.45 10.6 -11.75 10.35 -11.05 10.15 -10.3 9.9 -9.6 9.65 -8.85 9.4 -8.15 9.15 -7.4 8.9 -6.65 8.65 -5.9 8.4 -5.15 8.1 -4.4 7.85 -3.65 7.55 -2.9 7.25 -2.15 7.0 -1.45 6.7 -0.7 6.4 0.0 6.15 0.75 5.85 1.45 5.55 2.15 5.25 2.8 4.95 3.5 4.7 4.2 4.4 4.85 4.1 5.5 3.8 6.2 3.75 6.35 3.75 6.5 3.7 6.65 3.7 6.8 3.65 7.0 3.6 7.2 3.6 7.4 3.55 7.6 3.5 7.8 3.5 8.0 3.45 8.25 3.4 8.45 3.4 8.7 3.35 8.95 3.35 9.2 3.3 9.45 3.25 10.05 3.2 10.6 3.15 11.1 3.15 11.55 3.15 11.95 3.15 12.35 3.15 12.6 3.15 13.05 3.15 13.45 3.2 13.6 3.2 13.9 3.15 14.15 3.15 14.45 3.15 14.7 3.1 15.0 3.05 15.25 2.95 15.7 2.8 16.2 2.6 16.7 2.4 17.2 2.15 17.7 1.85 18.2 1.6 18.7 1.25 19.1 0.9 19.6 0.5 19.95 0.1 20.3 -0.3 20.6 -0.75 20.9 -1.25 21.0 -1.7 21.2 -2.2 21.2 -2.55 21.2 -2.9 21.1 -3.25 21.05 -3.6 20.9 -3.95 20.75 -4.25 20.55 -4.6 20.35 -4.9 20.1 -5.2 19.85 -5.5 19.55 -5.75 19.25 -6.05 18.9 -6.3 18.55 -6.5 18.15 -6.75 17.75 -6.95 17.35 -7.05 17.4 -7.2 17.45 -7.35 17.5 -7.5 17.55 -7.65 17.6 -7.85 17.65 -8.05 17.7 -8.25 17.7 -8.45 17.75 -8.65 17.75 -8.9 17.75 -9.1 17.75 -9.35 17.75 -9.6 17.7 -9.85 17.65 -10.05 17.55 -10.3 17.45 -10.55 17.3 -10.75 17.2 -10.95 17.05 -11.15 16.85 -11.35 16.65 -11.5 16.45 -11.65 16.25 -11.85 16.0 -12.0 15.75 -12.15 15.5 -12.3 15.15 -12.4 14.9 -12.6 14.55 -12.7 14.3 -12.9 13.85 -13.15 13.35 -13.25 13.1 -13.45 12.65 -13.55 12.3 -13.75 11.9 -13.85 11.55 -14.0 11.15 -14.1 10.85 -14.2 10.5 -14.2 10.15 -14.25 9.85 -14.25 9.6 -14.25 9.3 -14.15 9.05 -14.05 8.85 -13.9 8.65 -13.75 8.5 -13.5 8.4 -13.3 8.3 -13.05 8.25 -12.8 8.25 -12.55 8.25 -12.3 8.25 -12.0 8.3 -11.75 8.3 -11.5 8.35 -11.3 8.45 -11.05 8.5 -10.85 8.55 -10.7 8.6 -10.55 8.65 -10.45 8.7 -10.1 8.45 -9.5 8.0 -9.5 7.85 -9.5 7.7 -9.5 7.5 -9.5 7.3 -9.5 7.05 -9.45 6.8 -9.45 6.45 -9.35 6.15 -9.3 5.8 -9.2 5.5 -9.05 5.1 -8.9 4.75 -8.75 4.4 -8.5 4.05 -8.25 3.7 -7.95 3.35 -7.8 3.2 -7.65 3.05 -7.55 2.9 -7.4 2.8 -7.25 2.7 -7.1 2.55 -6.95 2.45 -6.85 2.4 -6.7 2.3 -6.55 2.2 -6.45 2.15 -6.3 2.05 -6.2 2.0 -6.05 1.95 -5.95 1.9 -5.85 1.85 0.45 -16.55 0.55 -16.85 0.6 -16.95 0.6 -17.0 0.65 -17.1 0.7 -17.2 0.7 -17.25 0.75 -17.3 0.75 -17.4 0.8 -17.45 0.8 -17.5 0.8 -17.6 0.85 -17.65 0.85 -17.7 0.9 -17.75 0.9 -17.8 0.9 -17.85 0.95 -17.9 1.15 -18.7 1.25 -18.85 1.25 -18.9 1.3 -18.95 1.3 -19.0 1.35 -19.1 1.35 -19.15 1.4 -19.2 1.45 -19.3 1.45 -19.35 1.5 -19.4 1.55 -19.5 1.55 -19.55 1.6 -19.65 1.65 -19.7 1.7 -19.8 1.75 -19.85 1.8 -19.95 6.95 -18.25 12.05 -16.6 L12.05 -16.6" fill="#b79b7d" fill-rule="evenodd" stroke="none"/>
  </g>
</svg>
