<?xml version="1.0" encoding="UTF-8" standalone="no"?>
<svg xmlns:xlink="http://www.w3.org/1999/xlink" height="16.35px" width="19.35px" xmlns="http://www.w3.org/2000/svg">
  <g transform="matrix(1.0, 0.0, 0.0, 1.0, 9.7, 8.2)">
    <path d="M4.2 -1.6 Q4.2 -1.6 4.2 -1.55 4.2 -1.55 4.15 -1.6 4.15 -1.6 4.2 -1.6 L4.2 -1.6" fill="#000000" fill-rule="evenodd" stroke="none"/>
    <path d="M4.2 -1.65 Q4.2 -1.65 4.25 -1.6 4.2 -1.6 4.2 -1.65 4.2 -1.65 4.2 -1.65 L4.2 -1.65" fill="#000000" fill-rule="evenodd" stroke="none"/>
    <path d="M-6.05 4.3 Q-6.0 4.35 -6.0 4.35 -5.95 4.4 -5.95 4.45 -5.95 4.45 -5.9 4.5 -5.9 4.5 -5.85 4.55 -5.85 4.55 -5.85 4.55 -6.0 4.3 -6.05 4.3 L-6.05 4.3" fill="#000000" fill-rule="evenodd" stroke="none"/>
    <path d="M8.8 -8.1 Q8.35 -8.15 7.9 -8.2 7.45 -8.25 7.0 -8.3 6.55 -8.4 6.15 -8.45 5.7 -8.55 5.25 -8.6 4.8 -8.7 4.35 -8.8 3.9 -8.9 3.5 -9.0 3.05 -9.15 2.65 -9.25 2.2 -9.4 1.75 -9.55 1.05 -9.8 -0.45 -10.55 -0.55 -10.6 -0.65 -10.65 -0.75 -10.7 -0.85 -10.7 -0.95 -10.75 -1.05 -10.75 -1.1 -10.75 -1.2 -10.75 -1.3 -10.75 -1.35 -10.7 -1.45 -10.7 -1.55 -10.65 -1.6 -10.6 -1.7 -10.55 -1.8 -10.45 -1.85 -10.4 -1.95 -10.3 -2.05 -10.25 -2.15 -10.1 -2.25 -10.0 -2.4 -9.85 -2.5 -9.7 -2.65 -9.55 -2.75 -9.35 -2.85 -9.15 -2.95 -9.0 -3.05 -8.75 -3.1 -8.55 -3.15 -8.3 -3.2 -8.05 -3.2 -7.8 -3.15 -7.55 -3.15 -7.5 -3.15 -7.5 -3.15 -7.45 -3.15 -7.4 -3.15 -7.35 -3.2 -7.3 -3.2 -7.3 -3.2 -7.25 -3.25 -7.2 -3.25 -7.15 -3.25 -7.1 -3.3 -7.05 -3.3 -7.05 -3.35 -7.0 -3.35 -6.95 -3.4 -6.9 -3.4 -6.85 -3.4 -6.85 -3.45 -6.8 -3.45 -6.75 -5.15 -4.1 -5.65 -3.1 -5.75 -2.95 -5.8 -2.75 -5.9 -2.6 -5.95 -2.45 -6.05 -2.25 -6.1 -2.1 -6.15 -1.95 -6.2 -1.75 -6.25 -1.6 -6.3 -1.4 -6.35 -1.25 -6.4 -1.1 -6.45 -0.9 -6.45 -0.75 -6.5 -0.55 -6.55 -0.35 -6.55 -0.2 -6.6 -0.05 -6.6 0.05 -6.6 0.2 -6.65 0.25 -6.65 0.4 -6.65 0.55 -6.7 0.6 -6.7 0.7 -6.7 0.75 -6.7 0.85 -6.7 0.9 -6.75 1.0 -6.75 1.05 -6.75 1.15 -6.7 1.2 -6.7 1.3 -6.7 1.35 -6.7 1.4 -6.7 1.5 -6.65 1.55 -6.65 1.65 -6.65 1.7 -6.65 1.75 -6.6 1.85 -6.6 1.9 -6.6 1.95 -6.6 2.05 -6.6 2.1 -6.6 2.2 -6.55 2.3 -6.55 2.35 -6.55 2.45 -6.55 2.55 -6.55 2.65 -6.55 2.75 -6.55 2.85 -6.55 2.95 -6.55 3.0 -6.55 3.1 -6.55 3.2 -6.55 3.25 -6.6 3.35 -6.6 3.4 -6.6 3.5 -6.6 3.55 -6.6 3.6 -6.6 3.65 -6.5 3.75 -6.35 3.95 -6.2 4.05 -6.2 4.1 -6.15 4.15 -6.1 4.2 -6.1 4.2 -6.05 4.3 -6.0 4.35 -6.0 4.35 -5.95 4.4 -5.95 4.4 -5.9 4.45 -5.9 4.5 -5.9 4.5 -5.85 4.55 -5.85 4.6 -5.75 4.7 -5.75 4.75 -5.7 4.75 -5.7 4.8 -5.7 4.85 -5.7 4.85 -5.65 4.9 -5.45 5.1 -5.25 5.3 -5.05 5.45 -4.85 5.6 -4.7 5.8 -4.5 5.95 -4.3 6.05 -4.1 6.2 -3.95 6.35 -3.75 6.45 -3.6 6.55 -3.4 6.65 -3.25 6.75 -3.1 6.85 -2.95 6.95 -2.75 7.0 -2.6 7.1 -2.4 7.15 -2.3 7.25 -2.1 7.3 -0.65 8.0 -1.75 7.45 -1.55 7.55 -1.4 7.65 -1.2 7.7 -1.05 7.8 -0.85 7.9 -0.7 8.0 -0.5 8.1 -0.3 8.2 -0.15 8.35 0.05 8.5 0.1 8.5 0.1 8.55 0.15 8.55 0.15 8.55 0.2 8.6 0.2 8.6 0.25 8.6 0.3 8.65 0.3 8.65 0.35 8.7 0.35 8.7 0.4 8.7 0.4 8.75 0.45 8.75 0.45 8.8 0.5 8.8 0.5 8.8 0.55 8.85 0.55 8.85 0.6 8.9 0.65 8.9 0.65 8.95 0.65 8.95 0.7 8.95 0.7 9.0 0.8 9.05 0.8 9.05 0.85 9.1 0.9 9.15 0.95 9.2 0.95 9.2 1.0 9.2 1.0 9.25 1.05 9.3 1.05 9.3 1.1 9.35 L1.1 9.35 Q1.2 9.4 1.35 9.6 1.55 9.75 2.0 10.25 2.45 10.65 3.05 11.3 3.1 11.3 3.15 11.35 3.15 11.35 3.2 11.35 3.25 11.4 3.25 11.4 3.3 11.45 3.35 11.45 3.4 11.5 3.45 11.55 3.5 11.55 3.5 11.6 3.55 11.65 3.6 11.7 3.65 11.75 3.7 11.8 3.75 11.8 3.8 11.85 3.8 11.9 3.85 11.95 3.9 12.0 3.95 12.05 4.0 12.1 4.0 12.15 4.05 12.2 4.1 12.25 4.1 12.25 4.15 12.3 4.2 12.35 4.2 12.4 4.25 12.45 4.3 12.5 4.3 12.55 4.35 12.6 4.35 12.6 4.4 12.65 4.45 12.7 4.45 12.75 4.5 12.8 4.5 12.85 5.15 12.15 6.25 10.7 6.45 10.5 6.6 10.25 6.75 10.05 6.85 9.8 7.0 9.55 7.1 9.3 7.2 9.05 7.25 8.8 7.35 8.55 7.4 8.3 7.45 8.05 7.5 7.8 7.5 7.55 7.55 7.25 7.55 7.0 7.55 6.7 7.55 6.35 7.55 5.65 7.55 4.95 7.55 4.6 7.55 4.35 7.55 4.15 7.55 3.9 7.55 3.65 7.55 3.45 7.6 3.2 7.6 3.0 7.65 2.75 7.65 2.55 7.7 2.25 7.8 1.8 7.75 1.8 7.8 1.55 7.85 1.35 7.85 1.1 7.9 0.9 8.05 -1.05 8.25 -1.55 8.6 -2.5 9.35 -4.35 9.4 -4.45 9.5 -4.55 9.55 -4.6 9.6 -4.7 9.65 -4.8 9.7 -4.9 9.75 -5.0 9.8 -5.1 9.8 -5.25 9.85 -5.35 9.9 -5.45 9.9 -5.55 9.95 -5.65 9.95 -5.8 10.0 -5.9 10.0 -6.0 10.0 -6.0 10.05 -6.15 L10.05 -7.25 Q10.0 -7.35 9.95 -7.45 9.9 -7.5 9.85 -7.6 9.8 -7.65 9.75 -7.75 9.7 -7.8 9.6 -7.85 9.5 -7.9 9.45 -7.95 9.35 -7.95 9.25 -8.0 9.15 -8.0 9.05 -8.05 8.95 -8.05 8.8 -8.1 L8.8 -8.1 M6.7 -3.35 Q6.65 -3.2 6.6 -3.1 6.55 -2.95 6.5 -2.8 6.45 -2.7 6.4 -2.55 6.35 -2.45 6.35 -2.3 6.3 -2.2 6.25 -2.05 6.2 -1.95 6.15 -1.8 6.15 -1.7 6.1 -1.6 6.05 -1.45 6.05 -1.35 6.05 -1.2 6.05 -1.0 6.0 -0.85 6.0 -0.7 5.95 -0.5 5.9 -0.35 5.85 -0.2 5.8 0.0 5.8 0.0 5.7 0.3 5.65 0.5 5.65 0.65 5.6 0.8 5.55 0.95 5.5 1.15 5.5 1.3 5.4 1.75 5.4 1.85 5.4 1.65 5.5 4.7 5.5 6.4 5.45 7.55 5.45 7.7 5.4 7.85 5.4 8.0 5.35 8.15 5.3 8.25 5.25 8.4 5.2 8.55 5.15 8.65 5.1 8.8 5.05 8.95 4.95 9.05 4.9 9.2 4.8 9.3 4.7 9.4 4.65 9.55 4.55 9.65 4.25 10.0 4.1 10.2 3.15 9.05 2.9 8.75 1.4 7.05 0.9 6.7 0.65 6.5 0.4 6.4 0.2 6.25 -0.05 6.15 -0.25 6.05 -0.45 6.0 -0.65 5.95 -0.9 5.85 -0.8 5.9 -1.3 5.75 -1.55 5.65 -1.75 5.6 -2.0 5.55 -2.2 5.45 -2.5 5.35 -2.75 5.2 -2.9 5.15 -3.0 5.05 -3.15 5.0 -3.3 4.9 -3.45 4.8 -3.6 4.7 -3.75 4.6 -3.9 4.5 -4.05 4.4 -4.2 4.25 -4.4 4.1 -4.55 4.0 -4.7 3.85 -4.9 3.65 -5.05 3.5 -5.2 3.3 -5.15 3.1 -5.05 2.95 -5.0 2.75 -4.95 2.55 -4.9 2.35 -4.85 2.15 -4.8 2.0 -4.75 1.8 -4.75 1.6 -4.7 1.4 -4.65 1.2 -4.65 1.0 -4.6 0.8 -4.6 0.6 -4.55 0.4 -4.55 0.2 -4.55 0.05 -4.5 -0.1 -4.5 -0.25 -4.45 -0.4 -4.45 -0.5 -4.4 -0.65 -4.35 -0.8 -4.3 -0.95 -4.25 -1.05 -4.2 -1.2 -4.15 -1.35 -4.1 -1.45 -4.05 -1.6 -3.95 -1.7 -3.9 -1.85 -3.8 -1.95 -2.55 -4.35 -1.85 -5.05 -1.8 -5.1 -1.8 -5.15 -1.75 -5.2 -1.75 -5.25 -1.7 -5.3 -1.7 -5.35 -1.65 -5.4 -1.65 -5.45 -1.6 -5.5 -1.6 -5.55 -1.55 -5.6 -1.55 -5.65 -1.5 -5.75 -1.45 -5.8 -1.45 -5.85 -1.4 -5.9 -1.35 -5.85 -1.2 -5.75 -0.8 -5.55 -0.4 -5.4 0.05 -5.2 0.45 -5.05 0.85 -4.9 1.3 -4.8 1.7 -4.65 2.15 -4.55 2.6 -4.45 3.0 -4.35 3.45 -4.3 3.9 -4.2 4.3 -4.15 4.8 -4.1 5.2 -4.05 5.65 -4.0 5.9 -4.05 6.05 -4.05 6.6 -4.05 7.0 -4.0 7.0 -3.95 6.95 -3.9 6.95 -3.9 6.95 -3.85 6.9 -3.8 6.9 -3.75 6.85 -3.7 6.85 -3.7 6.85 -3.65 6.8 -3.6 6.8 -3.55 6.8 -3.5 6.75 -3.45 6.75 -3.4 6.75 -3.35 6.7 -3.35 L6.7 -3.35 M6.45 -4.85 Q5.95 -4.9 5.5 -4.9 5.05 -4.95 4.6 -5.0 4.1 -5.1 3.65 -5.15 3.2 -5.25 2.75 -5.35 2.3 -5.45 1.85 -5.55 1.4 -5.7 1.0 -5.85 0.55 -6.0 0.1 -6.15 -0.35 -6.35 -0.75 -6.55 -0.8 -6.6 -0.9 -6.6 -0.95 -6.65 -1.0 -6.7 -1.05 -6.7 -1.1 -6.75 -1.1 -6.8 -1.15 -6.85 -1.2 -6.9 -1.2 -6.95 -1.2 -7.0 -1.25 -7.05 -1.25 -7.1 -1.25 -7.2 -1.25 -7.25 -1.2 -7.3 -1.1 -7.85 -0.95 -8.7 -0.4 -8.45 0.15 -8.2 0.7 -8.0 1.25 -7.8 1.8 -7.6 2.35 -7.45 2.9 -7.3 3.5 -7.15 4.05 -7.05 4.65 -6.9 5.15 -6.8 5.8 -6.7 6.3 -6.6 6.9 -6.5 7.4 -6.45 8.05 -6.35 8.05 -6.15 8.0 -6.0 8.0 -5.85 7.95 -5.7 7.9 -5.55 7.8 -5.45 7.7 -5.3 7.6 -5.2 7.5 -5.1 7.4 -5.05 7.25 -4.95 7.1 -4.95 6.95 -4.9 6.8 -4.85 6.65 -4.85 6.45 -4.85 L6.45 -4.85" fill="#000000" fill-rule="evenodd" stroke="none"/>
    <path d="M-6.5 3.8 Q-6.45 3.8 -6.45 3.85 -6.4 3.9 -6.35 3.9 -6.35 3.95 -6.3 3.95 -6.3 4.0 -6.25 4.05 -6.2 4.05 -6.2 4.1 -6.2 4.05 -6.25 4.05 -6.3 4.0 -6.3 3.95 -6.35 3.95 -6.35 3.9 -6.4 3.9 -6.45 3.85 -6.45 3.8 -6.5 3.8 -6.5 3.8 -6.5 3.8 L-6.5 3.8" fill="#000000" fill-rule="evenodd" stroke="none"/>
  </g>
</svg>
