<?xml version="1.0" encoding="UTF-8" standalone="no"?>
<svg xmlns:xlink="http://www.w3.org/1999/xlink" height="6.25px" width="12.95px" xmlns="http://www.w3.org/2000/svg">
  <g transform="matrix(1.0, 0.0, 0.0, 1.0, 6.45, 3.15)">
    <path d="M-6.45 0.5 Q-6.45 0.2 -6.45 -0.15 -6.45 -0.45 -6.45 -0.7 -6.4 -1.0 -6.4 -1.25 -6.35 -1.5 -6.3 -1.7 -6.2 -1.95 -6.15 -2.15 -6.05 -2.35 -5.95 -2.55 -5.85 -2.7 -5.7 -2.85 -5.6 -3.0 -5.45 -3.15 -4.75 -2.95 -4.05 -2.75 -3.35 -2.6 -2.65 -2.4 -1.9 -2.25 -1.2 -2.1 -0.45 -1.95 0.3 -1.8 1.05 -1.65 1.8 -1.5 2.55 -1.35 3.35 -1.2 4.1 -1.1 4.9 -0.95 5.7 -0.85 6.5 -0.75 6.5 -0.55 6.5 -0.35 6.5 -0.15 6.45 0.05 6.4 0.3 6.3 0.5 6.25 0.75 6.1 1.0 6.0 1.25 5.85 1.5 5.65 1.75 5.5 2.0 5.3 2.25 5.05 2.55 4.8 2.8 4.55 3.1 L4.55 3.05 4.0 3.05 Q3.45 3.0 2.95 2.95 2.45 2.9 1.95 2.85 1.5 2.8 1.0 2.75 0.55 2.7 0.1 2.6 -0.35 2.55 -0.8 2.45 -1.2 2.4 -1.6 2.3 -2.05 2.2 -2.45 2.1 -2.85 2.0 -3.2 1.9 -3.45 1.85 -3.65 1.75 -3.9 1.7 -4.1 1.6 -4.35 1.55 -4.55 1.45 -4.75 1.35 -4.95 1.3 -5.15 1.2 -5.35 1.1 -5.55 1.0 -5.75 0.9 -5.95 0.8 -6.1 0.7 -6.3 0.6 -6.45 0.5" fill="#4a1d1d" fill-rule="evenodd" stroke="none"/>
    <path d="M-1.05 7.7 Q-1.0 7.7 -1.0 7.75 -1.0 7.75 -1.05 7.7 -1.05 7.7 -1.05 7.7 L-1.05 7.7" fill="#000000" fill-rule="evenodd" stroke="none"/>
  </g>
</svg>
