<?xml version="1.0" encoding="UTF-8" standalone="no"?>
<svg xmlns:xlink="http://www.w3.org/1999/xlink" height="26.5px" width="20.3px" xmlns="http://www.w3.org/2000/svg">
  <g transform="matrix(1.0, 0.0, 0.0, 1.0, 10.15, 13.25)">
    <path d="M-5.15 -4.85 Q-3.8 -7.75 -1.25 -13.25 -0.9 -12.95 -0.45 -12.65 0.0 -12.4 0.55 -12.15 1.1 -11.9 1.7 -11.75 2.35 -11.55 3.05 -11.4 3.75 -11.25 4.55 -11.2 5.35 -11.1 6.25 -11.05 7.15 -11.0 8.1 -10.95 9.1 -10.95 10.15 -11.0 L5.85 -0.65 5.35 4.0 Q5.35 4.1 5.35 4.2 5.35 4.35 5.35 4.45 5.35 4.55 5.35 4.65 5.35 4.8 5.35 4.9 5.35 5.0 5.35 5.15 5.3 5.25 5.3 5.4 5.3 5.5 5.25 5.65 5.25 5.75 5.2 5.85 5.15 6.0 5.15 6.15 5.1 6.3 5.05 6.45 5.05 6.55 5.0 6.7 4.95 6.8 4.9 6.95 4.85 7.05 4.8 7.2 4.8 7.3 4.7 7.45 4.7 7.55 4.6 7.7 4.6 7.75 4.5 8.0 4.3 8.5 4.1 9.0 3.95 9.4 3.8 9.8 3.7 10.05 3.6 10.4 3.45 10.8 3.45 10.9 3.35 11.1 3.3 11.25 3.25 11.45 3.15 11.55 3.1 11.7 3.0 11.85 2.9 11.95 2.75 12.1 2.7 12.15 2.6 12.25 2.5 12.3 2.45 12.4 2.35 12.45 2.2 12.55 2.1 12.6 2.0 12.7 1.85 12.8 1.7 12.85 1.55 12.95 1.4 13.0 1.25 13.05 1.05 13.15 0.85 13.2 0.65 13.25 0.2 13.4 -0.25 13.5 -0.7 13.55 -1.1 13.6 -1.55 13.65 -1.9 13.6 -2.3 13.6 -2.65 13.5 -3.0 13.4 -3.35 13.3 -3.65 13.15 -3.9 13.0 -4.15 12.85 -4.35 12.65 -4.55 12.4 -4.7 12.2 -4.75 12.15 -4.75 12.1 -4.8 12.0 -4.8 11.95 -4.85 11.85 -4.85 11.75 -4.9 11.65 -4.9 11.55 -4.95 11.45 -4.95 11.35 -4.95 11.2 -4.95 11.1 -4.95 10.95 -4.95 10.8 -4.95 10.65 -4.9 10.5 -5.1 10.6 -5.3 10.65 -5.5 10.7 -5.7 10.75 -5.95 10.85 -6.15 10.85 -6.4 10.9 -6.6 10.95 -6.85 10.95 -7.05 10.95 -7.3 10.95 -7.5 10.9 -7.7 10.85 -7.9 10.8 -8.1 10.7 -8.3 10.6 -8.45 10.5 -8.55 10.4 -8.65 10.35 -8.7 10.2 -8.8 10.1 -8.85 10.0 -8.95 9.9 -9.0 9.75 -9.05 9.6 -9.15 9.4 -9.25 9.15 -9.35 9.0 -9.45 8.75 -9.55 8.55 -9.7 8.3 -9.85 8.0 -10.1 7.55 -10.35 7.2 -10.55 6.85 -10.75 6.55 -10.95 6.3 -11.15 6.05 -12.6 4.25 -11.5 5.65 -11.65 5.4 -11.8 5.25 -11.9 5.05 -12.0 4.9 -12.1 4.7 -12.15 4.5 -12.2 4.25 -12.25 4.0 -12.25 3.85 -12.25 3.65 -12.25 3.45 -12.25 3.25 -12.25 3.05 -12.2 2.9 -12.15 2.7 -12.1 2.5 -12.05 2.3 -12.0 2.1 -11.9 1.95 -11.8 1.8 -11.7 1.6 -11.55 1.5 -11.4 1.35 -11.25 1.25 -11.15 1.2 -11.05 1.15 -10.95 1.1 -10.9 1.1 -10.8 1.05 -10.7 1.05 -10.6 1.05 -10.55 1.05 -10.45 1.05 -10.4 1.05 -10.35 1.05 -10.3 1.05 -10.25 1.05 -10.2 1.05 -10.15 1.05 -10.15 1.05 -9.95 1.1 -9.7 1.15 -9.55 1.25 -9.35 1.4 -9.2 1.5 -9.05 1.65 -8.95 1.75 -8.8 1.95 -8.9 1.85 -8.6 2.2 -8.45 2.35 -8.4 2.45 -8.3 2.55 -8.2 2.6 -8.1 2.7 -7.95 2.7 -7.85 2.7 -7.8 2.65 -7.7 2.6 -7.6 2.5 -7.5 2.35 -7.4 2.2 -7.3 2.0 -7.2 1.75 -7.1 1.5 -7.0 1.15 -6.85 0.8 -6.75 0.4 -6.65 -0.05 -6.55 -0.6 -6.4 -1.15 -6.3 -1.8 -6.1 -2.35 -5.7 -3.35 -5.3 -4.5 -5.15 -4.85 L-5.15 -4.85" fill="#434343" fill-rule="evenodd" stroke="none"/>
  </g>
</svg>
