<?xml version="1.0" encoding="UTF-8" standalone="no"?>
<svg xmlns:xlink="http://www.w3.org/1999/xlink" height="32.4px" width="23.9px" xmlns="http://www.w3.org/2000/svg">
  <g transform="matrix(1.0, 0.0, 0.0, 1.0, 11.95, 16.2)">
    <path d="M1.85 0.3 Q1.85 0.3 1.9 0.35 1.85 0.35 1.85 0.3 1.85 0.3 1.85 0.3 L1.85 0.3" fill="#000000" fill-opacity="0.5411765" fill-rule="evenodd" stroke="none"/>
    <path d="M11.7 -13.6 Q11.65 -13.65 11.6 -13.7 11.55 -13.75 11.5 -13.75 11.45 -13.8 11.4 -13.85 11.35 -13.85 11.25 -13.9 11.2 -13.9 11.1 -13.95 11.05 -13.95 10.95 -13.95 10.85 -13.95 10.75 -13.95 10.7 -14.0 10.6 -14.0 7.8 -13.9 6.05 -14.05 6.05 -14.05 5.95 -14.05 5.75 -14.05 5.6 -14.1 5.35 -14.15 5.05 -14.2 4.7 -14.25 4.35 -14.35 3.9 -14.45 3.45 -14.55 2.95 -14.7 2.45 -14.9 1.85 -15.1 1.3 -15.3 0.7 -15.6 0.05 -15.9 -0.1 -15.95 -0.4 -16.1 -0.7 -16.2 -0.85 -16.3 -0.9 -16.3 -1.1 -16.4 -1.2 -16.45 -1.25 -16.45 -1.3 -16.5 -1.35 -16.5 -1.4 -16.5 -1.45 -16.45 -1.45 -16.45 -1.5 -16.45 -1.5 -16.4 -1.55 -16.4 -1.55 -16.4 -1.55 -16.35 -1.6 -16.35 -1.6 -16.3 -1.6 -16.25 -1.65 -16.25 -1.65 -16.2 -1.65 -16.15 -1.65 -16.15 -1.7 -16.1 -1.7 -16.05 -1.7 -16.0 -3.1 -12.15 -4.85 -7.2 -4.9 -7.05 -4.95 -6.9 -5.0 -6.75 -5.05 -6.6 -5.4 -5.6 -5.15 -6.3 -5.2 -6.1 -5.25 -5.95 -5.3 -5.8 -5.35 -5.65 -5.45 -5.5 -5.5 -5.35 -5.55 -5.2 -5.65 -5.1 -5.7 -4.95 -5.8 -4.8 -7.65 -1.85 -8.0 -1.15 -8.1 -1.0 -8.15 -0.8 -8.25 -0.65 -8.3 -0.5 -8.35 -0.3 -8.4 -0.15 -8.5 0.0 -8.55 0.2 -8.6 0.35 -8.65 0.55 -8.7 0.7 -8.7 0.85 -8.75 1.05 -8.8 1.2 -8.8 1.4 -8.85 1.6 -8.95 2.3 -9.05 3.15 -9.15 3.1 -9.25 3.0 -9.35 2.95 -9.45 2.9 -9.5 2.85 -9.6 2.8 -9.7 2.7 -9.8 2.65 -9.9 2.6 -10.0 2.55 -10.1 2.55 -10.15 2.5 -10.25 2.45 -10.35 2.4 -10.45 2.35 -10.55 2.35 -10.85 2.25 -11.15 2.2 -11.45 2.2 -11.7 2.2 -12.0 2.2 -12.25 2.3 -12.5 2.35 -12.7 2.5 -12.95 2.65 -13.15 2.8 -13.3 3.0 -13.45 3.2 -13.6 3.4 -13.7 3.7 -13.85 3.95 -13.9 4.25 -13.9 4.4 -13.95 4.55 -13.95 4.65 -13.95 4.8 -13.95 4.95 -13.9 5.05 -13.9 5.2 -13.9 5.35 -13.85 5.45 -13.85 5.6 -13.8 5.75 -13.8 5.85 -13.75 6.0 -13.7 6.15 -13.65 6.25 -13.65 6.4 -13.35 7.35 -12.65 8.75 -11.8 10.55 -11.55 11.1 -11.55 11.15 -11.5 11.15 -11.5 11.2 -11.45 11.25 -11.45 11.25 -11.4 11.3 -11.4 11.35 -11.35 11.35 -11.3 11.4 -11.3 11.4 -11.1 11.55 -10.9 11.65 -10.7 11.8 -10.5 11.95 -10.3 12.05 -10.1 12.2 -9.9 12.35 -9.7 12.5 -9.55 12.65 -9.35 12.8 -9.15 12.95 -9.0 13.15 -8.8 13.3 -8.65 13.45 -8.45 13.6 -8.25 13.75 -8.15 13.85 -8.05 13.95 -7.95 14.0 -7.8 14.1 -7.7 14.15 -7.6 14.25 -7.45 14.3 -7.35 14.35 -7.2 14.35 -7.05 14.4 -6.95 14.4 -6.8 14.4 -6.65 14.45 -6.5 14.4 -6.35 14.4 -6.2 14.35 -6.15 14.35 -6.15 14.35 -6.1 14.35 -6.05 14.35 -6.0 14.35 -6.0 14.35 -5.95 14.35 -5.9 14.4 -5.9 14.4 -5.85 14.45 -5.7 14.6 -5.5 14.8 -5.3 14.95 -5.1 15.1 -4.95 15.2 -4.75 15.35 -4.55 15.5 -4.3 15.6 -4.1 15.7 -3.9 15.8 -3.7 15.9 -3.45 16.05 -3.3 16.1 -3.0 16.25 -2.7 16.4 -2.55 16.45 -2.25 16.6 -2.0 16.7 -1.75 16.8 -1.5 16.85 -1.25 16.9 -1.05 16.9 -0.85 16.9 -0.6 16.85 -0.4 16.85 -0.2 16.75 0.0 16.7 0.25 16.55 0.45 16.45 0.65 16.3 0.85 16.1 1.1 15.9 1.3 15.7 1.5 15.55 1.7 15.35 1.9 15.15 2.05 14.95 2.25 14.75 2.4 14.55 2.6 14.35 2.75 14.15 2.95 13.95 3.1 13.75 3.3 13.5 3.45 13.35 3.6 13.1 3.75 12.9 3.95 12.65 4.1 12.45 4.25 12.2 4.4 12.0 4.55 11.75 4.65 11.5 4.75 11.25 4.85 11.0 4.95 10.75 5.0 10.5 5.1 10.25 5.15 10.0 5.15 9.75 5.2 9.5 5.2 9.2 5.2 8.95 5.2 8.65 5.2 8.45 5.25 7.6 5.25 6.95 5.2 6.55 5.2 6.3 5.2 6.1 5.2 5.85 5.2 5.6 5.25 5.4 5.25 5.15 5.3 4.95 5.3 4.7 5.35 4.5 5.4 4.2 5.45 3.85 5.45 3.75 5.5 3.5 5.5 3.3 5.55 3.05 5.55 2.85 5.8 0.75 5.9 0.4 6.3 -0.65 7.15 -2.65 7.75 -4.05 9.35 -7.8 10.8 -11.05 11.55 -12.95 11.55 -12.95 11.55 -13.0 11.55 -13.05 11.6 -13.1 11.6 -13.15 11.6 -13.15 11.6 -13.2 11.65 -13.25 11.65 -13.3 11.65 -13.35 11.65 -13.35 11.65 -13.4 11.7 -13.45 11.7 -13.45 11.7 -13.5 11.7 -13.55 11.7 -13.55 11.7 -13.6 L11.7 -13.6 M-0.15 -13.65 Q0.4 -13.4 0.95 -13.15 1.5 -12.95 2.05 -12.8 2.6 -12.6 3.15 -12.5 3.7 -12.35 4.3 -12.25 4.85 -12.15 5.45 -12.1 6.0 -12.0 6.6 -12.0 7.15 -11.95 7.75 -11.9 8.35 -11.9 8.95 -11.9 8.55 -10.9 7.95 -9.5 7.35 -9.5 6.9 -9.5 6.35 -9.55 5.85 -9.55 5.35 -9.55 4.85 -9.6 4.3 -9.65 3.8 -9.7 3.3 -9.75 2.8 -9.85 2.3 -9.95 1.8 -10.05 1.25 -10.2 0.8 -10.35 0.3 -10.55 -0.2 -10.75 -0.35 -10.8 -1.0 -11.15 -0.7 -12.0 -0.15 -13.65 L-0.15 -13.65 M5.8 -4.65 Q4.15 -0.95 3.7 0.6 3.7 0.75 3.7 0.95 3.7 1.1 3.65 1.3 3.6 1.45 3.6 1.6 3.55 1.75 3.5 1.95 3.45 2.0 3.4 2.25 3.35 2.45 3.3 2.6 3.25 2.75 3.25 2.9 3.2 3.1 3.15 3.25 3.15 3.4 3.1 3.8 3.1 4.0 3.15 6.65 3.2 8.35 3.15 9.5 3.15 9.65 3.1 9.8 3.1 9.95 3.05 10.1 3.0 10.2 2.95 10.35 2.9 10.5 2.85 10.6 2.8 10.75 2.7 10.9 2.65 11.0 2.55 11.15 2.5 11.25 2.4 11.4 2.3 11.5 2.2 11.6 2.05 11.8 1.9 12.0 1.75 12.2 1.6 12.4 1.45 12.6 1.3 12.8 1.15 13.0 0.95 13.15 0.8 13.35 0.65 13.55 0.45 13.75 0.3 13.9 0.1 14.1 -0.05 14.25 -0.25 14.45 -0.45 14.6 -0.5 14.65 -0.55 14.7 -0.6 14.75 -0.7 14.8 -0.75 14.8 -0.8 14.85 -0.85 14.85 -0.95 14.9 -1.0 14.9 -1.05 14.9 -1.15 14.9 -1.2 14.9 -1.25 14.85 -1.35 14.85 -1.4 14.85 -1.5 14.8 -3.6 14.05 -3.85 13.95 -3.9 13.9 -3.9 13.9 -3.95 13.9 -4.0 13.85 -4.0 13.85 -4.05 13.8 -4.1 13.75 -4.1 13.75 -4.15 13.7 -4.15 13.7 -4.15 13.65 -4.15 13.6 -4.2 13.6 -4.2 13.55 -4.2 13.5 -4.2 13.45 -4.2 13.4 -4.15 13.35 -4.15 13.3 -4.15 13.25 -4.1 13.25 -4.1 13.2 -4.05 13.15 -4.0 13.15 -4.0 13.1 -3.95 13.1 -3.9 13.1 -3.85 13.05 -3.8 13.05 -3.75 13.05 -3.7 13.05 -3.65 13.05 -3.55 13.05 -3.5 13.05 -3.4 13.05 -3.35 13.05 -3.25 13.0 -3.2 13.0 -3.1 13.0 -3.0 13.0 -2.95 13.0 -2.85 12.95 -2.8 12.95 -2.7 12.95 -2.6 12.95 -2.55 12.9 -2.45 12.9 -2.4 12.85 -2.15 12.8 -1.95 12.7 -1.75 12.65 -1.6 12.55 -1.45 12.5 -1.3 12.4 -1.2 12.3 -1.1 12.15 -1.05 12.05 -1.0 11.9 -0.95 11.75 -0.95 11.6 -0.95 11.45 -1.0 11.25 -1.0 11.05 -1.1 10.85 -1.1 10.8 -1.1 10.75 -1.15 10.7 -1.15 10.65 -1.15 10.6 -1.15 10.55 -1.2 10.5 -1.2 10.45 -1.2 10.35 -1.2 10.35 -1.25 10.3 -1.25 10.25 -1.3 10.2 -1.3 10.15 -1.35 10.1 -1.35 10.1 -1.4 10.05 -1.45 10.05 -1.5 10.0 -1.55 10.0 -1.6 10.0 -1.65 10.05 -1.7 10.05 -1.75 10.1 -1.8 10.1 -1.85 10.15 -2.0 10.3 -1.9 10.25 -1.95 10.3 -2.0 10.3 -2.05 10.35 -2.1 10.35 -2.7 10.6 -3.95 11.25 -4.1 11.35 -4.25 11.4 -4.4 11.5 -4.6 11.55 -4.75 11.6 -4.9 11.7 -5.1 11.75 -5.25 11.8 -5.45 11.85 -5.6 11.9 -5.75 11.95 -5.95 11.95 -6.1 12.0 -6.3 12.05 -6.45 12.05 -6.65 12.1 -6.7 12.1 -6.75 12.1 -6.8 12.15 -6.9 12.15 -6.95 12.15 -7.0 12.1 -7.05 12.1 -7.1 12.1 -7.15 12.1 -7.2 12.05 -7.25 12.05 -7.3 12.0 -7.3 12.0 -7.35 11.95 -7.4 11.9 -7.45 11.85 -7.55 11.75 -7.7 11.6 -7.8 11.5 -7.95 11.35 -8.05 11.25 -8.2 11.15 -8.3 11.05 -8.45 10.95 -8.6 10.85 -8.75 10.75 -8.85 10.65 -9.05 10.55 -9.15 10.45 -9.3 10.35 -9.4 10.3 -9.6 10.15 -9.65 10.15 -9.7 10.1 -9.75 10.1 -9.75 10.05 -9.8 10.05 -9.85 10.0 -9.85 9.95 -9.9 9.95 -9.9 9.9 -9.95 9.85 -10.2 9.2 -10.8 7.95 -11.4 6.7 -11.6 6.0 -11.65 5.9 -11.65 5.85 -11.7 5.75 -11.7 5.65 -11.75 5.6 -11.75 5.5 -11.8 5.4 -11.8 5.35 -11.85 5.25 -11.85 5.15 -11.85 5.1 -11.85 5.0 -11.9 4.9 -11.9 4.85 -11.9 4.75 -11.9 4.65 -11.9 4.55 -11.85 4.5 -11.85 4.4 -11.85 4.35 -11.8 4.3 -11.75 4.25 -11.75 4.2 -11.7 4.2 -11.65 4.15 -11.6 4.15 -11.55 4.15 -11.45 4.15 -11.4 4.15 -11.3 4.15 -11.25 4.15 -11.15 4.2 -11.05 4.25 -10.95 4.3 -10.85 4.3 -10.8 4.35 -10.7 4.4 -10.6 4.5 -10.55 4.55 -10.45 4.6 -10.4 4.65 -10.35 4.75 -10.25 4.8 -10.2 4.9 -10.15 4.95 -10.05 5.05 -10.0 5.1 -9.95 5.2 -9.9 5.25 -9.9 5.3 -9.9 5.35 -9.9 5.35 -9.9 5.4 -9.9 5.45 -9.9 5.5 -9.95 5.55 -9.95 5.55 -10.0 5.6 -10.05 5.7 -10.2 5.85 -10.35 6.0 -10.4 6.05 -10.45 6.1 -10.5 6.2 -10.55 6.25 -10.55 6.35 -10.6 6.45 -10.6 6.5 -10.6 6.6 -10.6 6.65 -10.6 6.75 -10.6 6.8 -10.6 6.9 -10.55 6.95 -10.55 7.05 -10.5 7.1 -10.45 7.15 -10.4 7.25 -10.35 7.3 -10.25 7.35 -10.2 7.4 -10.15 7.45 -10.05 7.5 -10.0 7.5 -9.9 7.55 -9.8 7.55 -9.75 7.6 -9.65 7.6 -9.6 7.6 -9.5 7.55 -9.4 7.55 -9.35 7.55 -9.25 7.5 -9.15 7.45 -9.05 7.4 -9.0 7.35 -8.95 7.35 -8.85 7.3 -8.8 7.25 -8.75 7.15 -8.65 7.1 -8.6 7.05 -8.55 7.0 -8.5 6.95 -8.45 6.85 -8.4 6.8 -8.35 6.75 -8.3 6.65 -8.25 6.6 -8.2 6.5 -8.05 6.25 -7.9 6.0 -7.75 5.75 -7.6 5.5 -7.5 5.2 -7.4 4.95 -7.3 4.7 -7.25 4.4 -7.15 4.15 -7.1 3.85 -7.05 3.6 -7.0 3.3 -6.95 3.0 -6.9 2.7 -6.9 2.45 -6.85 2.15 -6.85 2.0 -6.8 1.85 -6.8 1.7 -6.75 1.55 -6.75 1.45 -6.7 1.3 -6.65 1.15 -6.65 1.0 -6.6 0.9 -6.55 0.75 -6.5 0.65 -6.4 0.5 -6.35 0.35 -6.3 0.25 -6.2 0.1 -6.1 0.0 -6.05 -0.15 -5.9 -0.4 -5.75 -0.7 -5.7 -0.8 -5.55 -1.05 -5.5 -1.2 -5.35 -1.4 -5.25 -1.6 -5.15 -1.8 -5.0 -2.0 -4.9 -2.2 -4.75 -2.35 -4.65 -2.55 -4.5 -2.75 -4.35 -2.9 -4.2 -3.1 -3.7 -4.4 -2.9 -6.7 -1.95 -9.3 -1.6 -10.3 -1.55 -10.25 -1.45 -10.2 -1.4 -10.2 -1.3 -10.15 -1.25 -10.1 -1.2 -10.1 -1.15 -10.05 -1.05 -10.0 -1.0 -10.0 -0.95 -9.95 -0.9 -9.95 -0.8 -9.9 -0.75 -9.9 -0.7 -9.85 -0.65 -9.85 -0.6 -9.8 -0.35 -9.7 -0.15 -9.65 0.1 -9.55 0.3 -9.5 0.55 -9.4 0.8 -9.35 1.05 -9.25 1.3 -9.2 1.6 -9.1 1.85 -9.05 2.15 -9.0 2.4 -8.95 2.7 -8.85 3.0 -8.8 3.3 -8.75 3.65 -8.75 4.95 -8.55 7.5 -8.5 6.4 -6.1 5.8 -4.65 L5.8 -4.65" fill="#000000" fill-rule="evenodd" stroke="none"/>
    <path d="M1.75 0.3 Q1.75 0.3 1.8 0.35 1.75 0.35 1.75 0.3 1.75 0.3 1.75 0.3 L1.75 0.3" fill="#000000" fill-rule="evenodd" stroke="none"/>
    <path d="M1.75 0.3 Q1.75 0.3 1.8 0.35 1.75 0.35 1.75 0.3 1.75 0.3 1.75 0.3 L1.75 0.3" fill="#000000" fill-rule="evenodd" stroke="none"/>
  </g>
</svg>
