<?xml version="1.0" encoding="UTF-8" standalone="no"?>
<svg xmlns:xlink="http://www.w3.org/1999/xlink" height="26.3px" width="23.9px" xmlns="http://www.w3.org/2000/svg">
  <g transform="matrix(1.0, 0.0, 0.0, 1.0, 11.95, 13.15)">
    <path d="M1.85 3.35 Q1.85 3.4 1.9 3.4 1.9 3.4 1.85 3.35 1.85 3.35 1.85 3.35 L1.85 3.35" fill="#000000" fill-opacity="0.41960785" fill-rule="evenodd" stroke="none"/>
    <path d="M1.95 3.35 Q2.0 3.4 2.0 3.4 2.0 3.4 1.95 3.35 1.95 3.35 1.95 3.35 L1.95 3.35" fill="#000000" fill-opacity="0.41960785" fill-rule="evenodd" stroke="none"/>
    <path d="M1.85 3.35 Q1.85 3.4 1.9 3.4 1.9 3.4 1.85 3.35 1.85 3.35 1.85 3.35 L1.85 3.35" fill="#000000" fill-opacity="0.41960785" fill-rule="evenodd" stroke="none"/>
    <path d="M1.85 3.35 Q1.85 3.4 1.9 3.4 1.9 3.4 1.85 3.35 1.85 3.35 1.85 3.35 L1.85 3.35" fill="#000000" fill-opacity="0.41960785" fill-rule="evenodd" stroke="none"/>
    <path d="M11.85 -10.5 Q11.8 -10.55 11.75 -10.6 11.7 -10.65 11.65 -10.7 11.6 -10.7 11.55 -10.75 11.45 -10.8 11.4 -10.8 11.3 -10.85 11.25 -10.85 11.15 -10.9 11.1 -10.9 11.0 -10.9 10.9 -10.9 10.8 -10.9 10.7 -10.9 7.65 -10.85 6.15 -11.0 6.15 -11.0 6.05 -11.0 5.9 -11.0 5.7 -11.05 5.45 -11.05 5.15 -11.1 4.8 -11.2 4.45 -11.25 4.0 -11.35 3.6 -11.5 3.05 -11.65 2.55 -11.8 2.0 -12.0 1.45 -12.25 0.8 -12.5 0.2 -12.8 0.05 -12.9 -0.25 -13.0 -0.65 -13.15 -0.75 -13.2 -1.0 -13.3 -0.95 -13.3 -1.05 -13.35 -1.1 -13.4 -1.2 -13.4 -1.2 -13.4 -1.25 -13.4 -1.3 -13.4 -1.35 -13.4 -1.35 -13.4 -1.4 -13.35 -1.4 -13.35 -1.4 -13.3 -1.45 -13.3 -1.45 -13.25 -1.5 -13.25 -1.5 -13.2 -1.5 -13.15 -1.5 -13.15 -1.55 -13.1 -1.55 -13.05 -1.55 -13.0 -1.55 -13.0 -1.55 -12.95 -2.45 -10.45 -4.75 -4.15 -5.45 -2.05 -5.65 -1.75 -7.45 1.1 -7.85 1.9 -7.95 2.05 -8.0 2.25 -8.1 2.4 -8.15 2.6 -8.25 2.75 -8.3 2.9 -8.35 3.1 -8.4 3.25 -8.45 3.4 -8.5 3.6 -8.55 3.75 -8.6 3.95 -8.65 4.1 -8.65 4.3 -8.7 4.45 -8.7 4.65 -8.75 4.9 -8.8 5.45 -8.75 5.7 -8.75 5.9 -8.75 6.15 -8.75 6.35 -8.75 6.6 -8.75 6.8 -8.8 7.05 -8.85 7.25 -8.9 7.5 -8.95 7.7 -9.0 7.9 -9.1 8.15 -9.15 8.35 -9.25 8.55 -9.35 8.75 -9.45 8.95 -9.35 8.95 -9.25 9.0 -9.2 9.05 -9.1 9.05 -9.0 9.1 -8.9 9.15 -8.8 9.15 -8.75 9.2 -8.65 9.25 -8.55 9.3 -8.5 9.35 -8.4 9.4 -8.3 9.45 -8.25 9.5 -8.15 9.55 -8.05 9.6 -8.05 9.6 -8.05 9.6 -8.0 9.45 -6.6 10.5 -6.6 10.5 -6.55 10.55 -6.4 10.65 -6.3 10.75 -6.15 10.85 -6.0 10.95 -5.9 11.05 -5.75 11.2 -5.65 11.25 -5.55 11.4 -5.45 11.45 -5.35 11.55 -5.25 11.65 -5.2 11.75 -5.1 11.8 -5.05 11.9 -5.0 11.95 -4.95 12.0 -4.25 12.7 -3.45 13.65 -3.05 14.15 -2.65 14.6 -1.3 14.85 1.5 15.4 2.35 15.5 4.1 15.75 4.1 15.75 4.1 15.75 4.25 15.55 4.4 15.3 4.55 15.05 4.7 14.8 4.8 14.6 4.9 14.35 5.0 14.1 5.05 13.85 5.15 13.6 5.2 13.35 5.25 13.1 5.3 12.8 5.3 12.55 5.35 12.3 5.35 12.0 5.35 11.75 5.35 11.4 5.35 10.65 5.35 10.0 5.35 9.6 5.35 9.4 5.35 9.15 5.35 8.9 5.35 8.65 5.35 8.45 5.4 8.2 5.4 8.0 5.45 7.75 5.5 7.55 5.5 7.3 5.6 6.85 5.6 6.85 5.6 6.55 5.65 6.35 5.65 6.1 5.7 5.9 5.85 3.95 6.05 3.45 6.45 2.4 7.25 0.45 7.8 -0.9 9.5 -4.7 10.9 -7.95 11.65 -9.9 11.65 -9.9 11.65 -9.9 11.65 -9.95 11.7 -10.0 11.7 -10.05 11.7 -10.1 11.75 -10.15 11.75 -10.2 11.75 -10.2 11.75 -10.25 11.8 -10.3 11.8 -10.35 11.8 -10.35 11.8 -10.4 11.8 -10.45 11.85 -10.45 11.85 -10.5 11.85 -10.5 L11.85 -10.5 M5.9 -1.6 Q4.2 2.35 3.85 3.65 3.85 3.8 3.85 4.0 3.8 4.15 3.8 4.35 3.75 4.5 3.7 4.65 3.65 4.8 3.6 5.0 3.6 5.05 3.55 5.35 3.45 5.55 3.45 5.65 3.4 5.85 3.35 6.0 3.3 6.15 3.3 6.3 3.3 6.4 3.2 6.85 3.3 12.15 3.25 12.55 3.25 12.65 3.25 12.75 3.2 12.9 3.2 13.0 3.2 13.1 3.15 13.2 3.1 13.3 3.1 13.4 3.05 13.5 3.0 13.6 2.95 13.7 2.9 13.8 2.9 13.85 2.85 13.95 2.8 14.05 2.7 14.15 2.6 14.15 2.45 14.1 2.35 14.1 2.2 14.05 2.05 14.05 1.95 14.0 1.8 14.0 1.65 13.95 1.55 13.95 1.4 13.9 1.25 13.85 1.1 13.8 0.95 13.75 0.8 13.7 0.65 13.7 0.5 13.6 0.4 13.55 0.3 13.55 0.15 13.5 0.05 13.45 -0.1 13.4 -0.2 13.35 -0.35 13.3 -0.5 13.25 -0.65 13.15 -0.8 13.1 -1.0 13.0 -1.15 12.9 -1.3 12.8 -1.5 12.7 -1.65 12.6 -1.85 12.5 -2.0 12.4 -2.1 12.3 -2.25 12.2 -2.35 12.1 -2.45 12.0 -2.6 11.9 -2.65 11.85 -2.75 11.75 -2.85 11.65 -2.95 11.6 -3.0 11.5 -3.05 11.45 -3.1 11.4 -3.15 11.35 -3.25 11.25 -3.25 11.25 -3.4 11.1 -3.55 10.95 -3.7 10.8 -3.85 10.65 -4.05 10.5 -4.25 10.35 -4.45 10.15 -4.7 10.0 -4.95 9.8 -5.25 9.6 -5.55 9.4 -5.9 9.2 -6.2 9.0 -6.6 8.8 -7.0 8.55 -7.4 8.35 -7.35 8.15 -7.25 7.95 -7.2 7.8 -7.15 7.6 -7.1 7.4 -7.05 7.2 -7.0 7.0 -6.95 6.8 -6.9 6.6 -6.9 6.4 -6.85 6.2 -6.8 6.0 -6.8 5.8 -6.75 5.6 -6.75 5.4 -6.75 5.2 -6.75 5.05 -6.7 4.9 -6.7 4.75 -6.65 4.65 -6.65 4.5 -6.6 4.35 -6.55 4.2 -6.5 4.1 -6.45 3.95 -6.4 3.8 -6.35 3.7 -6.3 3.55 -6.25 3.45 -6.15 3.3 -6.1 3.2 -6.0 3.05 -4.65 0.6 -4.05 0.0 -1.95 -5.8 -1.45 -7.2 -1.4 -7.15 -1.3 -7.15 -1.25 -7.1 -1.2 -7.05 -1.15 -7.05 -1.05 -7.0 -1.0 -6.95 -0.95 -6.95 -0.9 -6.9 -0.8 -6.9 -0.75 -6.85 -0.7 -6.85 -0.65 -6.8 -0.6 -6.8 -0.55 -6.75 -0.45 -6.75 -0.2 -6.65 0.0 -6.6 0.2 -6.5 0.45 -6.45 0.7 -6.35 0.95 -6.3 1.2 -6.2 1.45 -6.15 1.7 -6.05 2.0 -6.0 2.25 -5.9 2.55 -5.85 2.85 -5.8 3.15 -5.75 3.45 -5.7 3.75 -5.65 5.1 -5.5 7.6 -5.45 7.35 -4.85 6.75 -3.5 6.2 -2.25 5.9 -1.6 L5.9 -1.6 M8.05 -6.45 Q7.45 -6.45 7.0 -6.45 6.45 -6.45 6.0 -6.5 5.45 -6.5 4.95 -6.55 4.4 -6.6 3.95 -6.65 3.4 -6.7 2.9 -6.8 2.4 -6.9 1.9 -7.0 1.4 -7.15 0.9 -7.3 0.4 -7.45 -0.05 -7.65 -0.05 -7.65 -0.9 -8.1 -0.6 -8.95 0.0 -10.6 0.55 -10.35 1.1 -10.1 1.6 -9.9 2.2 -9.75 2.7 -9.55 3.3 -9.4 3.85 -9.3 4.4 -9.2 4.95 -9.1 5.55 -9.0 6.1 -8.95 6.7 -8.9 7.3 -8.85 7.9 -8.85 8.45 -8.85 9.1 -8.85 8.55 -7.55 8.05 -6.45 L8.05 -6.45" fill="#000000" fill-rule="evenodd" stroke="none"/>
  </g>
</svg>
