<?xml version="1.0" encoding="UTF-8" standalone="no"?>
<svg xmlns:xlink="http://www.w3.org/1999/xlink" height="17.7px" width="18.9px" xmlns="http://www.w3.org/2000/svg">
  <g transform="matrix(1.0, 0.0, 0.0, 1.0, 9.45, 8.85)">
    <path d="M-3.2 -5.05 L-1.9 -8.85 Q-1.35 -8.6 -0.75 -8.35 -0.1 -8.15 0.5 -7.95 1.15 -7.75 1.85 -7.6 2.5 -7.45 3.2 -7.35 3.9 -7.2 4.65 -7.15 5.4 -7.05 6.2 -7.0 6.95 -6.95 7.8 -6.9 8.6 -6.9 9.45 -6.9 L7.7 -2.7 Q6.7 -2.8 5.8 -2.85 4.9 -2.95 4.1 -3.05 3.25 -3.2 2.5 -3.3 1.75 -3.45 1.05 -3.6 0.35 -3.75 -0.25 -3.9 -0.85 -4.05 -1.4 -4.25 -1.9 -4.45 -2.35 -4.65 -2.8 -4.85 -3.2 -5.05 M6.5 0.75 L6.05 4.6 6.1 5.0 Q4.95 5.0 3.9 4.9 2.8 4.85 1.8 4.7 0.8 4.6 -0.1 4.4 -1.05 4.2 -1.9 4.0 -2.75 3.75 -3.55 3.45 -4.35 3.2 -5.05 2.85 -5.75 2.5 -6.4 2.1 -7.05 1.7 -7.6 1.25 L-5.6 -1.2 -5.35 -1.45 Q-4.5 -1.1 -3.65 -0.8 -2.85 -0.5 -2.05 -0.25 -1.25 0.0 -0.45 0.2 0.3 0.4 1.05 0.55 1.8 0.7 2.5 0.75 3.2 0.85 3.9 0.9 4.55 0.9 5.2 0.85 5.9 0.85 6.5 0.75" fill="#dbdbdb" fill-rule="evenodd" stroke="none"/>
    <path d="M7.7 -2.7 L6.55 -0.05 6.5 0.75 Q5.9 0.85 5.2 0.85 4.55 0.9 3.9 0.9 3.2 0.85 2.5 0.75 1.8 0.7 1.05 0.55 0.3 0.4 -0.45 0.2 -1.25 0.0 -2.05 -0.25 -2.85 -0.5 -3.65 -0.8 -4.5 -1.1 -5.35 -1.45 L-4.5 -2.45 -3.9 -3.2 -3.85 -3.15 -3.2 -5.05 Q-2.8 -4.85 -2.35 -4.65 -1.9 -4.45 -1.4 -4.25 -0.85 -4.05 -0.25 -3.9 0.35 -3.75 1.05 -3.6 1.75 -3.45 2.5 -3.3 3.25 -3.2 4.1 -3.05 4.9 -2.95 5.8 -2.85 6.7 -2.8 7.7 -2.7 M6.35 4.8 Q6.35 4.9 6.3 5.05 6.3 5.15 6.25 5.25 6.25 5.35 6.2 5.5 6.2 5.6 6.15 5.75 6.1 5.85 6.1 5.95 6.05 6.1 6.0 6.2 6.0 6.35 5.95 6.45 5.9 6.55 5.85 6.7 5.8 6.85 5.8 6.95 5.75 7.1 5.7 7.2 5.65 7.35 5.6 7.45 5.6 7.55 5.55 7.7 5.5 7.8 5.45 7.95 5.4 8.05 5.35 8.15 5.35 8.25 5.3 8.4 5.25 8.5 5.2 8.6 5.05 8.85 4.45 9.9 4.0 10.7 3.7 11.2 3.6 11.1 3.5 11.0 3.4 10.9 3.3 10.8 3.2 10.65 3.05 10.55 2.9 10.45 2.75 10.3 2.55 10.2 2.4 10.05 2.2 9.95 2.0 9.8 1.8 9.7 1.6 9.6 1.35 9.5 1.1 9.4 0.9 9.3 0.7 9.25 0.55 9.2 0.35 9.15 0.2 9.1 0.0 9.05 -0.15 9.0 -0.35 8.95 -0.5 8.95 -0.65 8.9 -0.8 8.9 -0.95 8.9 -1.05 8.85 -1.2 8.85 -1.35 8.85 -1.45 8.85 -2.45 8.1 -2.5 8.05 -2.55 8.0 -2.6 7.95 -2.65 7.9 -2.7 7.85 -2.75 7.8 -2.85 7.75 -2.9 7.7 -2.95 7.6 -3.05 7.55 -3.15 7.5 -3.2 7.45 -3.3 7.4 -3.4 7.3 -3.45 7.25 -3.55 7.2 -3.65 7.15 -3.8 7.05 -3.9 7.0 -4.05 6.95 -4.15 6.9 -4.25 6.85 -4.35 6.8 -4.4 6.75 -4.55 6.7 -4.65 6.7 -4.75 6.65 -4.85 6.6 -4.95 6.55 -5.05 6.5 -5.15 6.45 -5.25 6.4 -5.4 6.3 -5.5 6.2 -5.65 6.15 -5.75 6.05 -5.85 5.95 -5.95 5.85 -6.05 5.8 -6.15 5.7 -6.25 5.6 -6.3 5.5 -6.4 5.45 -6.45 5.35 -6.55 5.25 -6.6 5.2 -6.7 5.1 -6.75 5.05 -6.8 4.95 -6.85 4.9 -6.85 4.9 -6.9 4.85 -6.95 4.8 -6.95 4.7 -7.0 4.65 -7.05 4.6 -7.1 4.5 -7.15 4.4 -7.15 4.35 -7.2 4.25 -7.2 4.15 -7.25 4.05 -7.25 3.95 -7.3 3.8 -7.3 3.7 -7.3 3.6 -7.3 3.5 -7.3 3.4 -7.3 3.3 -7.3 3.2 -7.25 3.1 -7.25 3.0 -7.25 2.95 -7.2 2.85 -7.2 2.8 -7.15 2.7 -7.15 2.65 -7.1 2.6 -7.1 2.55 -7.1 2.5 -7.05 2.45 -6.9 2.25 -6.55 1.8 -6.15 2.0 -5.8 2.25 -5.35 2.45 -4.9 2.7 -4.45 2.9 -3.95 3.1 -3.4 3.35 -2.9 3.55 -2.3 3.75 -1.7 3.95 -1.1 4.15 -0.45 4.3 0.2 4.45 0.85 4.55 1.6 4.7 2.3 4.75 2.6 4.8 2.85 4.8 3.15 4.85 3.4 4.85 3.65 4.85 3.95 4.85 4.2 4.9 4.45 4.9 4.7 4.9 4.95 4.9 5.2 4.9 5.45 4.85 5.7 4.85 5.9 4.85 6.15 4.85 6.35 4.8 L6.35 4.8" fill="#434343" fill-rule="evenodd" stroke="none"/>
    <path d="M3.3 -1.15 Q3.3 -1.15 3.35 -1.1 3.3 -1.1 3.3 -1.15 3.3 -1.15 3.3 -1.15 L3.3 -1.15" fill="#000000" fill-rule="evenodd" stroke="none"/>
  </g>
</svg>
