<?xml version="1.0" encoding="UTF-8" standalone="no"?>
<svg xmlns:xlink="http://www.w3.org/1999/xlink" height="18.3px" width="17.9px" xmlns="http://www.w3.org/2000/svg">
  <g transform="matrix(1.0, 0.0, 0.0, 1.0, 8.95, 9.15)">
    <path d="M4.8 -6.8 Q4.85 -6.8 4.85 -6.75 4.85 -6.75 4.8 -6.8 4.8 -6.8 4.8 -6.8 L4.8 -6.8" fill="#000000" fill-rule="evenodd" stroke="none"/>
    <path d="M-8.1 -2.7 Q-8.05 -2.65 -8.0 -2.6 -7.95 -2.55 -7.9 -2.5 -7.85 -2.45 -7.8 -2.4 -7.75 -2.35 -7.7 -2.3 -7.65 -2.25 -7.6 -2.2 -7.55 -2.15 -7.55 -2.1 -7.5 -2.05 -7.45 -2.0 -7.45 -1.95 -7.4 -1.9 -7.45 -1.75 -7.5 -1.65 -7.55 -1.5 -7.6 -1.4 -7.65 -1.3 -7.7 -1.2 -7.75 -1.1 -7.85 -1.05 -7.9 -0.95 -8.0 -0.9 -8.05 -0.85 -8.15 -0.8 -8.2 -0.8 -8.3 -0.75 -8.35 -0.75 -8.4 -0.75 -8.5 -0.75 -8.55 -0.8 -8.6 -0.85 -8.7 -0.9 -8.75 -0.95 -8.8 -1.0 -8.85 -1.1 -8.9 -1.15 -8.95 -1.25 -8.95 -1.3 -9.0 -1.4 -9.05 -1.45 -9.05 -1.5 -9.1 -1.6 -9.1 -1.65 -9.1 -1.7 -9.15 -1.8 -9.15 -1.95 -9.2 -2.1 -9.2 -2.25 -9.25 -2.35 -9.25 -2.5 -9.25 -2.6 -9.25 -2.75 -9.2 -2.85 -9.2 -2.95 -9.15 -3.05 -9.15 -3.15 -9.1 -3.25 -9.05 -3.3 -9.0 -3.35 -8.95 -3.35 -8.9 -3.35 -8.9 -3.35 -8.85 -3.35 -8.8 -3.35 -8.75 -3.35 -8.7 -3.3 -8.65 -3.25 -8.6 -3.25 -8.55 -3.2 -8.5 -3.15 -8.45 -3.1 -8.4 -3.0 -8.3 -2.95 -8.25 -2.9 -8.2 -2.85 -8.1 -2.7 L-8.1 -2.7" fill="#000000" fill-rule="evenodd" stroke="none"/>
  </g>
</svg>
