<?xml version="1.0" encoding="UTF-8" standalone="no"?>
<svg xmlns:xlink="http://www.w3.org/1999/xlink" height="200.0px" width="200.0px" xmlns="http://www.w3.org/2000/svg">
  <g transform="matrix(1.0, 0.0, 0.0, 1.0, 100.0, 100.0)">
    <path d="M2.45 18.5 Q1.7 18.5 1.05 18.45 0.3 18.4 -0.4 18.3 -1.1 18.25 -1.8 18.15 -2.5 18.05 -3.2 17.95 -3.9 17.8 -4.55 17.65 -5.25 17.5 -5.9 17.3 -6.6 17.1 -7.25 16.9 -7.95 16.65 -8.6 16.4 -8.9 16.3 -9.15 16.15 -9.45 16.0 -9.75 15.9 -10.0 15.75 -10.3 15.6 -10.55 15.45 -10.85 15.3 -11.1 15.15 -11.35 15.0 -11.65 14.85 -11.9 14.65 -12.15 14.45 -12.4 14.3 -12.65 14.1 -12.85 13.9 -12.9 13.85 -12.95 13.8 -13.05 13.75 -13.1 13.7 -13.15 13.7 -13.2 13.65 -13.3 13.55 -13.35 13.55 -13.4 13.5 -13.45 13.45 -13.55 13.4 -13.6 13.35 -13.65 13.3 -13.7 13.25 -13.75 13.2 -13.8 13.15 -13.85 13.15 -13.85 13.1 -13.9 13.05 -13.9 13.05 -13.95 13.0 -13.95 13.0 -14.0 12.95 -14.0 12.95 -14.05 12.9 -14.05 12.9 -14.1 12.85 -14.1 12.8 -14.15 12.8 -14.15 12.75 -14.2 12.7 -14.2 12.7 -14.25 12.65 -14.25 12.6 -14.3 12.55 -14.3 12.5 -14.35 12.45 -14.35 12.4 -14.35 12.35 -14.35 12.3 -14.4 12.25 -14.4 12.2 -14.4 12.15 -14.35 12.1 -14.35 12.05 -14.35 12.0 -14.35 11.95 -14.3 11.9 -13.7 10.45 -12.7 7.8 -11.6 4.85 -11.1 3.65 -10.45 2.05 -9.4 -1.0 -8.25 -4.2 -7.65 -5.6 -7.4 -6.2 -7.2 -6.8 -6.95 -7.35 -6.75 -7.95 -6.5 -8.55 -6.25 -9.1 -6.0 -9.7 -5.75 -10.3 -5.5 -10.85 -5.3 -11.45 -5.05 -12.05 -4.8 -12.6 -4.5 -13.2 -4.25 -13.75 -4.0 -14.35 -3.75 -14.95 -3.7 -15.0 -3.7 -15.1 -3.65 -15.15 -3.6 -15.2 -3.55 -15.25 -3.5 -15.3 -3.45 -15.35 -3.4 -15.35 -3.35 -15.4 -3.3 -15.4 -3.25 -15.45 -3.2 -15.45 -3.15 -15.45 -3.1 -15.5 -3.05 -15.5 -2.95 -15.5 -2.9 -15.5 -2.85 -15.5 -2.8 -15.45 -2.75 -15.45 -2.7 -15.45 -2.65 -15.4 -2.6 -15.35 -2.55 -15.35 -2.5 -15.3 -2.5 -15.25 -2.45 -15.2 -2.4 -15.2 -2.35 -15.15 -2.35 -15.1 -2.3 -15.05 -2.3 -14.95 -2.3 -14.9 -2.25 -14.85 -2.25 -14.85 -2.25 -14.8 -2.25 -14.75 -2.25 -14.7 -2.25 -14.65 -2.25 -14.65 -2.25 -14.6 -2.3 -14.55 -2.3 -14.5 -2.3 -14.45 -2.3 -14.45 -2.35 -14.4 -2.35 -14.35 -2.35 -14.3 -2.6 -13.7 -3.1 -12.75 -3.7 -11.6 -3.9 -11.15 -4.2 -10.5 -4.6 -9.35 -5.05 -8.05 -5.25 -7.5 -6.35 -5.0 -7.8 -0.95 -8.0 -0.35 -8.05 -0.2 -8.05 -0.15 -8.1 -0.1 -8.1 -0.05 -8.1 -0.05 -8.1 0.0 -8.05 0.0 -8.05 0.05 -8.0 0.05 -8.0 0.1 -7.95 0.15 -7.65 0.3 -7.3 0.5 -6.95 0.65 -6.6 0.8 -6.3 0.95 -5.95 1.1 -5.6 1.2 -5.25 1.35 -4.95 1.5 -4.55 1.6 -4.25 1.75 -3.9 1.85 -3.55 1.95 -3.2 2.1 -2.85 2.2 -2.45 2.3 -2.1 2.4 -1.7 2.5 -1.3 2.65 -0.95 2.7 -0.55 2.8 -0.15 2.9 0.2 3.0 0.6 3.05 1.0 3.15 1.4 3.2 1.8 3.25 2.2 3.3 2.55 3.4 2.95 3.45 3.35 3.5 3.75 3.5 5.2 3.7 6.8 3.85 7.0 3.9 7.05 3.9 7.15 3.85 7.15 3.8 7.2 3.75 7.2 3.55 7.35 2.95 7.6 2.1 8.05 0.7 8.1 0.6 9.45 -4.05 10.1 -6.85 10.15 -7.1 10.25 -7.4 10.3 -7.65 10.35 -7.9 10.4 -8.2 10.5 -8.45 10.55 -8.7 10.6 -9.0 10.65 -9.25 10.7 -9.55 10.75 -9.8 10.8 -10.05 10.85 -10.35 10.9 -10.6 10.95 -10.9 11.0 -11.15 11.0 -11.25 11.05 -11.3 11.05 -11.35 11.1 -11.45 11.15 -11.5 11.2 -11.55 11.25 -11.6 11.3 -11.65 11.35 -11.7 11.45 -11.7 11.5 -11.75 11.6 -11.75 11.65 -11.8 11.7 -11.8 11.8 -11.8 11.85 -11.8 11.95 -11.8 12.0 -11.75 12.1 -11.7 12.15 -11.65 12.2 -11.65 12.25 -11.6 12.3 -11.5 12.35 -11.45 12.4 -11.4 12.45 -11.35 12.45 -11.25 12.5 -11.2 12.5 -11.1 12.5 -11.05 12.5 -10.95 12.5 -10.85 12.45 -10.55 12.4 -10.25 12.3 -9.9 12.25 -9.6 12.2 -9.3 12.15 -9.0 12.05 -8.65 12.0 -8.35 11.95 -8.05 11.85 -7.75 11.8 -7.45 11.75 -7.1 11.65 -6.8 11.6 -6.5 11.5 -6.2 11.45 -5.9 11.35 -5.45 11.25 -5.05 11.15 -4.65 11.05 -4.25 10.9 -3.8 10.8 -3.4 10.7 -2.95 10.6 -2.55 10.45 -2.15 10.35 -1.75 10.25 -1.3 10.1 -0.9 10.0 -0.5 9.85 -0.1 9.75 0.3 9.6 0.75 9.25 1.8 8.2 6.3 7.6 8.85 6.85 13.65 6.6 15.4 6.4 16.4 6.4 16.55 6.3 17.05 6.25 17.4 6.2 17.65 6.2 17.7 6.2 17.75 6.15 17.75 6.15 17.8 6.15 17.85 6.1 17.85 6.1 17.9 6.05 17.9 6.05 17.95 6.0 17.95 6.0 18.0 5.95 18.0 5.95 18.0 5.9 18.05 5.85 18.05 5.8 18.05 5.6 18.15 5.4 18.2 5.2 18.25 5.0 18.3 4.75 18.35 4.55 18.4 4.35 18.4 4.15 18.45 3.95 18.45 3.7 18.5 3.5 18.5 3.3 18.5 3.1 18.5 2.85 18.5 2.65 18.5 2.45 18.5 L2.45 18.5 M-10.5 6.5 Q-10.55 6.5 -10.55 6.55 -10.9 7.35 -12.05 10.45 -12.05 10.5 -12.05 10.55 -12.05 10.6 -12.05 10.6 -12.05 10.65 -12.05 10.7 -12.0 10.7 -12.0 10.75 -11.95 10.75 -11.95 10.8 -11.8 10.95 -11.65 11.1 -11.45 11.2 -11.3 11.35 -11.15 11.5 -11.0 11.6 -10.8 11.75 -10.65 11.85 -10.45 11.95 -10.3 12.1 -10.1 12.2 -9.95 12.3 -9.75 12.45 -9.6 12.55 -9.4 12.65 -9.2 12.75 -8.8 12.95 -8.4 13.15 -8.0 13.35 -7.6 13.55 -7.2 13.75 -6.8 13.9 -6.4 14.05 -6.0 14.2 -5.6 14.35 -5.15 14.5 -4.75 14.6 -4.3 14.7 -3.9 14.85 -3.45 14.9 -3.0 15.0 -2.55 15.05 -0.95 15.3 1.5 15.45 3.4 15.6 4.45 15.55 4.5 15.55 4.55 15.55 4.6 15.55 4.6 15.55 4.65 15.55 4.7 15.5 4.7 15.5 4.75 15.5 4.75 15.45 4.8 15.45 4.8 15.4 4.8 15.4 4.85 15.35 4.85 15.3 4.85 15.3 4.9 15.25 5.55 12.2 5.65 11.4 5.65 11.35 5.65 11.3 5.65 11.25 5.65 11.25 5.6 11.2 5.6 11.2 5.55 11.2 5.5 11.2 4.65 11.2 3.05 10.95 2.55 10.85 2.1 10.8 1.65 10.7 1.15 10.6 0.7 10.5 0.2 10.4 -0.25 10.3 -0.75 10.2 -1.2 10.1 -1.7 10.0 -2.15 9.85 -2.6 9.75 -3.1 9.6 -3.55 9.5 -4.0 9.35 -4.5 9.2 -4.9 9.1 -5.3 8.95 -5.7 8.85 -6.05 8.7 -6.45 8.55 -6.85 8.4 -7.25 8.25 -7.6 8.1 -8.0 7.9 -8.35 7.75 -8.75 7.55 -9.1 7.35 -9.45 7.15 -9.8 6.95 -10.15 6.75 -10.5 6.5 L-10.5 6.5 M-9.95 5.0 Q-10.0 5.1 -10.05 5.3 -10.1 5.45 -10.15 5.5 -10.15 5.55 -10.2 5.6 -10.2 5.7 -10.2 5.75 -10.2 5.8 -10.2 5.8 -10.2 5.85 -10.15 5.9 -10.1 5.95 -10.05 6.0 -10.05 6.0 -9.95 6.05 -9.9 6.1 -9.8 6.15 -9.6 6.3 -9.35 6.45 -9.15 6.55 -8.9 6.7 -8.7 6.8 -8.45 6.95 -8.25 7.05 -8.0 7.15 -7.75 7.25 -7.55 7.4 -7.3 7.5 -7.05 7.6 -6.85 7.7 -6.6 7.8 -6.35 7.85 -6.1 7.95 -5.75 8.1 -5.35 8.25 -4.95 8.35 -4.6 8.5 -4.2 8.6 -3.8 8.7 -3.45 8.85 -3.05 8.95 -2.65 9.05 -2.25 9.15 -1.9 9.25 -1.45 9.35 -1.1 9.45 -0.7 9.55 -0.3 9.6 0.1 9.7 0.45 9.75 0.75 9.85 1.05 9.9 1.35 9.95 1.7 10.05 2.0 10.1 2.35 10.15 2.65 10.2 2.95 10.25 3.3 10.3 3.6 10.35 3.9 10.4 4.25 10.45 4.55 10.45 4.9 10.5 5.2 10.55 5.35 10.55 5.4 10.55 5.5 10.55 5.55 10.55 5.6 10.55 5.65 10.55 5.7 10.5 5.75 10.5 5.75 10.45 5.8 10.45 5.8 10.4 5.8 10.35 5.85 10.25 5.85 10.2 5.85 10.15 5.9 10.0 5.9 9.95 5.9 9.9 5.9 9.9 5.9 9.85 5.95 9.8 5.95 9.75 5.95 9.7 5.95 9.65 5.9 9.65 5.9 9.6 5.85 9.6 5.8 9.6 5.8 9.6 5.7 9.6 4.15 9.55 0.0 8.75 -1.75 8.45 -5.45 7.2 -5.75 7.1 -6.05 7.0 -6.35 6.9 -6.6 6.8 -6.9 6.7 -7.2 6.55 -7.5 6.45 -7.75 6.3 -8.05 6.2 -8.3 6.05 -8.6 5.9 -8.85 5.75 -9.15 5.55 -9.4 5.4 -9.65 5.2 -9.9 5.0 -9.9 5.0 -9.95 5.0 L-9.95 5.0 M-12.3 11.35 Q-12.45 11.75 -12.45 11.8 -12.45 11.85 -12.5 11.85 -12.5 11.9 -12.5 11.95 -12.5 11.95 -12.5 12.0 -12.5 12.05 -12.5 12.05 -12.45 12.1 -12.45 12.1 -12.45 12.15 -12.4 12.15 -12.4 12.2 -12.35 12.25 -12.35 12.25 -12.3 12.3 -12.2 12.4 -12.1 12.5 -11.95 12.6 -11.85 12.7 -11.75 12.8 -11.65 12.9 -11.5 13.0 -11.4 13.1 -11.25 13.2 -11.15 13.3 -11.0 13.35 -10.9 13.45 -10.75 13.55 -10.65 13.6 -10.5 13.7 -10.4 13.8 -9.95 14.05 -9.45 14.3 -9.0 14.55 -8.55 14.75 -8.05 14.95 -7.55 15.15 -7.1 15.3 -6.6 15.5 -6.1 15.65 -5.6 15.8 -5.1 15.95 -4.6 16.05 -4.1 16.15 -3.55 16.3 -3.05 16.4 -2.55 16.5 -1.2 16.7 1.5 16.95 1.65 16.95 1.85 16.95 2.0 17.0 2.2 17.0 2.35 17.0 2.55 16.95 2.7 16.95 2.85 16.95 3.05 16.95 3.2 16.9 3.4 16.9 3.55 16.85 3.7 16.85 3.9 16.8 4.05 16.75 4.2 16.7 4.25 16.7 4.3 16.65 4.35 16.65 4.35 16.65 4.4 16.6 4.45 16.6 4.45 16.55 4.5 16.55 4.5 16.5 4.5 16.45 4.55 16.45 4.55 16.4 4.55 16.35 4.55 16.3 4.55 16.3 4.55 16.25 2.25 16.25 -0.9 15.95 -1.2 15.9 -1.45 15.9 -1.7 15.85 -2.0 15.85 -2.25 15.8 -2.55 15.75 -2.8 15.7 -3.05 15.7 -3.35 15.65 -3.6 15.6 -3.9 15.5 -4.15 15.45 -4.4 15.4 -4.7 15.35 -4.95 15.25 -5.2 15.15 -5.7 15.0 -6.15 14.85 -6.65 14.65 -7.1 14.5 -7.6 14.3 -8.05 14.1 -8.5 13.9 -8.95 13.65 -9.4 13.45 -9.85 13.15 -10.25 12.9 -10.7 12.65 -11.1 12.35 -11.5 12.05 -11.9 11.7 -12.3 11.35 L-12.3 11.35 M7.05 4.4 Q6.9 4.4 6.5 4.35 6.2 4.3 5.9 4.3 5.65 4.25 5.35 4.25 5.05 4.2 4.75 4.15 4.45 4.15 4.2 4.1 3.9 4.05 3.6 4.05 3.3 4.0 3.05 3.95 2.75 3.95 2.45 3.9 2.15 3.85 1.85 3.8 1.45 3.75 1.0 3.7 0.6 3.6 0.2 3.5 -0.2 3.45 -0.6 3.35 -1.0 3.25 -1.45 3.15 -1.85 3.05 -2.25 2.9 -2.65 2.8 -3.05 2.65 -3.45 2.55 -3.85 2.4 -4.25 2.3 -4.65 2.15 -4.85 2.05 -5.1 2.0 -5.3 1.9 -5.55 1.8 -5.75 1.75 -6.0 1.65 -6.2 1.55 -6.4 1.45 -6.6 1.35 -6.85 1.25 -7.05 1.15 -7.25 1.05 -7.45 0.95 -7.7 0.85 -7.9 0.75 -8.1 0.65 -8.25 0.55 -8.2 0.55 -8.3 0.5 -8.35 0.6 -8.4 0.65 -8.4 0.7 -8.45 0.75 -8.45 0.8 -8.45 0.85 -8.45 0.85 -8.45 0.9 -8.45 0.95 -8.45 1.0 -8.4 1.0 -8.4 1.05 -8.35 1.1 -8.35 1.1 -8.3 1.15 -8.25 1.15 -8.2 1.2 -7.85 1.4 -7.45 1.6 -7.1 1.8 -6.7 1.95 -6.35 2.15 -5.95 2.3 -5.55 2.5 -5.15 2.65 -4.8 2.8 -4.4 2.95 -4.0 3.1 -3.6 3.2 -3.2 3.35 -2.8 3.45 -2.4 3.55 -2.0 3.65 -1.5 3.8 -0.95 3.9 -0.45 4.0 0.05 4.15 0.55 4.25 1.1 4.35 1.6 4.4 2.15 4.5 2.65 4.55 3.2 4.65 3.7 4.7 4.25 4.75 4.75 4.8 5.3 4.85 5.8 4.9 6.35 4.95 6.5 4.95 6.55 4.95 6.65 4.95 6.7 4.95 6.75 4.95 6.8 4.95 6.85 4.95 6.85 4.9 6.9 4.9 6.9 4.85 6.95 4.8 6.95 4.75 7.0 4.7 7.0 4.6 7.0 4.55 7.05 4.4 L7.05 4.4 M4.3 8.1 Q4.3 8.0 4.3 7.85 4.3 7.75 4.3 7.65 4.3 7.55 4.25 7.4 4.25 7.3 4.25 7.2 4.25 7.1 4.2 6.95 4.2 6.85 4.15 6.75 4.15 6.65 4.1 6.5 4.05 6.4 4.0 6.3 3.95 6.2 3.95 6.15 3.9 6.05 3.85 6.0 3.8 5.95 3.75 5.9 3.7 5.9 3.65 5.85 3.6 5.85 3.5 5.8 3.45 5.8 3.4 5.8 3.3 5.85 3.25 5.85 3.15 5.9 3.1 5.9 3.0 5.95 2.95 6.0 2.85 6.05 2.8 6.1 2.7 6.15 2.65 6.2 2.55 6.25 2.5 6.35 2.45 6.4 2.4 6.45 2.35 6.55 2.3 6.6 2.25 6.7 2.25 6.8 2.2 6.85 2.15 6.95 1.95 7.8 1.9 8.2 1.6 10.9 1.85 8.35 1.85 8.4 1.95 8.45 2.05 8.45 2.05 8.35 1.85 9.2 2.05 8.25 2.05 8.15 2.1 8.05 2.1 7.95 2.15 7.9 2.2 7.8 2.2 7.7 2.25 7.6 2.3 7.5 2.3 7.45 2.35 7.35 2.4 7.25 2.45 7.2 2.5 7.1 2.55 7.05 2.6 6.95 2.65 6.85 2.65 6.85 2.7 6.8 2.75 6.75 2.75 6.75 2.8 6.7 2.8 6.7 2.85 6.65 2.85 6.65 2.9 6.65 2.95 6.6 2.95 6.6 3.0 6.55 3.0 6.55 3.05 6.5 3.1 6.5 3.15 6.5 3.2 6.45 3.25 6.45 3.3 6.45 3.35 6.45 3.4 6.45 3.45 6.45 3.5 6.45 3.55 6.5 3.6 6.5 3.65 6.55 3.65 6.55 3.7 6.6 3.75 6.65 3.75 6.7 3.8 6.75 3.8 6.8 3.8 6.85 3.8 6.9 3.85 6.95 3.85 7.0 3.85 7.05 3.85 7.1 3.85 7.15 3.85 7.2 3.85 7.5 3.75 8.55 3.75 8.6 3.75 8.65 3.75 8.7 3.75 8.7 3.75 8.75 3.8 8.75 3.85 8.75 3.9 8.75 4.15 8.8 4.2 8.8 4.25 8.75 4.3 8.7 4.3 8.65 4.3 8.4 4.3 8.3 4.3 8.1 L4.3 8.1 M1.3 7.35 Q1.3 7.25 1.3 7.15 1.3 7.1 1.3 7.0 1.3 6.9 1.3 6.8 1.3 6.7 1.3 6.6 1.3 6.55 1.25 6.45 1.25 6.35 1.25 6.25 1.25 6.15 1.2 6.05 1.2 5.95 1.15 5.9 1.15 5.8 1.1 5.75 1.05 5.65 1.0 5.6 1.0 5.55 0.95 5.5 0.9 5.45 0.85 5.45 0.8 5.4 0.7 5.4 0.65 5.4 0.6 5.4 0.5 5.4 0.45 5.4 0.35 5.4 0.3 5.45 0.2 5.5 0.15 5.5 0.05 5.55 -0.05 5.6 -0.1 5.65 -0.2 5.7 -0.25 5.75 -0.3 5.8 -0.4 5.85 -0.45 5.95 -0.5 6.0 -0.55 6.05 -0.6 6.15 -0.65 6.2 -0.7 6.3 -0.75 6.4 -0.8 6.45 -0.8 6.55 -0.85 6.6 -0.85 6.7 -0.9 6.75 -0.9 6.85 -0.95 6.9 -0.95 7.0 -1.0 7.05 -1.0 7.15 -1.0 7.2 -1.05 7.3 -1.05 7.4 -1.1 7.45 -1.1 7.55 -1.1 7.6 -1.1 7.65 -1.15 7.65 -1.15 7.7 -1.15 7.7 -1.15 7.75 -1.15 7.8 -1.15 7.85 -1.1 7.85 -1.0 7.85 -1.0 7.75 -1.0 7.7 -0.95 7.7 -0.95 7.65 -0.95 7.6 -0.9 7.5 -0.85 7.4 -0.85 7.3 -0.8 7.2 -0.75 7.1 -0.7 7.0 -0.65 6.9 -0.6 6.8 -0.5 6.7 -0.45 6.6 -0.4 6.5 -0.3 6.45 -0.25 6.35 -0.15 6.3 -0.05 6.2 0.05 6.15 0.1 6.1 0.1 6.1 0.15 6.1 0.2 6.05 0.2 6.05 0.25 6.05 0.3 6.0 0.35 6.0 0.35 6.0 0.4 6.0 0.45 6.0 0.5 6.0 0.55 6.0 0.55 6.0 0.6 6.0 0.65 6.05 0.7 6.05 0.75 6.1 0.75 6.1 0.8 6.15 0.8 6.15 0.85 6.2 0.85 6.25 0.85 6.25 0.9 6.3 0.9 6.35 0.9 6.4 0.9 6.4 0.9 6.45 0.9 6.5 0.9 6.55 0.9 6.6 0.9 6.6 0.9 6.65 0.9 6.7 0.9 6.75 0.9 6.8 0.9 6.9 0.9 7.0 0.9 7.05 0.9 7.15 0.9 7.2 0.85 7.3 0.85 7.35 0.85 7.45 0.85 7.5 0.8 7.6 0.8 7.65 0.8 7.75 0.75 7.8 0.75 7.9 0.7 7.95 0.7 8.0 0.7 8.05 0.7 8.1 0.7 8.15 0.7 8.2 0.75 8.2 0.75 8.25 0.8 8.25 0.85 8.25 0.95 8.3 1.0 8.3 1.05 8.3 1.1 8.3 1.15 8.3 1.2 8.25 1.2 8.25 1.25 8.2 1.25 8.15 1.25 8.1 1.25 8.0 1.25 7.9 1.3 7.7 1.3 7.5 1.3 7.35 L1.3 7.35 M-1.55 6.15 Q-1.55 6.1 -1.55 6.05 -1.55 5.95 -1.55 5.9 -1.55 5.85 -1.55 5.8 -1.55 5.7 -1.55 5.65 -1.55 5.6 -1.55 5.55 -1.6 5.5 -1.6 5.4 -1.6 5.35 -1.6 5.3 -1.6 5.25 -1.65 5.2 -1.65 5.15 -1.65 5.1 -1.7 5.05 -1.7 5.0 -1.7 4.95 -1.75 4.9 -1.75 4.85 -1.8 4.85 -1.8 4.8 -1.85 4.8 -1.9 4.75 -2.0 4.75 -2.05 4.75 -2.1 4.7 -2.2 4.7 -2.25 4.7 -2.3 4.7 -2.4 4.7 -2.45 4.7 -2.5 4.7 -2.55 4.7 -2.65 4.7 -2.7 4.75 -2.75 4.75 -2.8 4.8 -2.9 4.85 -2.95 4.9 -3.0 4.9 -3.05 4.95 -3.1 5.0 -3.15 5.05 -3.2 5.05 -3.25 5.1 -3.25 5.15 -3.3 5.2 -3.35 5.25 -3.4 5.3 -3.4 5.35 -3.45 5.4 -3.5 5.45 -3.5 5.5 -3.55 5.55 -3.6 5.6 -3.6 5.7 -3.65 5.75 -3.65 5.8 -3.7 5.9 -3.75 5.95 -3.75 6.0 -3.8 6.1 -3.8 6.15 -3.85 6.2 -3.85 6.3 -3.9 6.35 -3.9 6.45 -3.9 6.5 -3.95 6.55 -3.95 6.65 -4.1 6.95 -4.05 6.85 -4.1 6.95 -3.95 7.0 -3.9 7.0 -3.85 6.95 -3.85 6.95 -3.85 6.85 -3.8 6.75 -3.8 6.7 -3.75 6.6 -3.7 6.5 -3.65 6.4 -3.6 6.3 -3.55 6.2 -3.5 6.1 -3.45 6.0 -3.4 5.95 -3.35 5.85 -3.25 5.75 -3.2 5.7 -3.1 5.6 -3.05 5.55 -2.95 5.45 -2.85 5.4 -2.75 5.35 -2.65 5.3 -2.6 5.25 -2.5 5.25 -2.45 5.25 -2.35 5.2 -2.3 5.25 -2.25 5.25 -2.2 5.25 -2.1 5.3 -2.05 5.35 -2.05 5.4 -2.0 5.45 -1.95 5.55 -1.95 5.6 -1.9 5.7 -1.9 5.8 -1.9 5.95 -1.9 6.0 -1.95 6.35 -2.15 7.15 -2.2 7.35 -2.2 7.4 -2.2 7.5 -2.15 7.55 -2.1 7.6 -1.85 7.65 -1.8 7.65 -1.75 7.65 -1.75 7.65 -1.7 7.6 -1.7 7.55 -1.7 7.5 -1.7 7.4 -1.65 7.35 -1.65 7.25 -1.65 7.15 -1.65 7.1 -1.6 7.0 -1.6 6.9 -1.6 6.85 -1.6 6.75 -1.55 6.65 -1.55 6.55 -1.55 6.5 -1.55 6.4 -1.55 6.3 -1.55 6.25 -1.55 6.15 L-1.55 6.15 M-4.3 4.95 Q-4.3 4.9 -4.3 4.85 -4.3 4.8 -4.3 4.8 -4.3 4.75 -4.3 4.7 -4.3 4.65 -4.3 4.6 -4.3 4.55 -4.35 4.5 -4.35 4.4 -4.4 4.35 -4.4 4.3 -4.4 4.25 -4.45 4.2 -4.5 4.15 -4.5 4.1 -4.55 4.05 -4.6 4.0 -4.65 4.0 -4.7 3.95 -4.75 3.95 -4.85 3.95 -4.9 3.95 -4.95 3.95 -5.05 3.95 -5.15 3.95 -5.2 4.0 -5.3 4.0 -5.4 4.05 -5.45 4.05 -5.55 4.1 -5.6 4.15 -5.7 4.15 -5.75 4.2 -5.85 4.25 -5.9 4.3 -5.95 4.35 -6.0 4.45 -6.1 4.5 -6.15 4.55 -6.2 4.65 -6.25 4.7 -6.3 4.8 -6.35 4.85 -6.35 4.9 -6.4 5.0 -6.45 5.05 -6.5 5.15 -6.55 5.2 -6.55 5.3 -6.6 5.35 -6.65 5.45 -6.65 5.5 -6.7 5.6 -6.75 5.65 -6.75 5.75 -6.8 5.8 -6.85 5.9 -6.85 5.9 -6.85 5.95 -6.8 6.0 -6.75 6.05 -6.7 6.0 -6.7 6.0 -6.65 5.9 -6.6 5.85 -6.6 5.8 -6.55 5.7 -6.5 5.65 -6.5 5.6 -6.45 5.55 -6.4 5.5 -6.35 5.45 -6.35 5.35 -6.3 5.3 -6.25 5.25 -6.2 5.2 -6.15 5.15 -6.1 5.1 -6.1 5.05 -6.05 5.0 -6.0 4.95 -5.95 4.9 -5.9 4.9 -5.85 4.85 -5.8 4.8 -5.75 4.8 -5.7 4.75 -5.65 4.7 -5.6 4.7 -5.55 4.65 -5.5 4.65 -5.45 4.6 -5.4 4.6 -5.35 4.55 -5.3 4.55 -5.2 4.55 -5.15 4.55 -5.1 4.55 -5.05 4.55 -5.0 4.55 -4.95 4.55 -4.9 4.55 -4.85 4.6 -4.85 4.6 -4.8 4.65 -4.75 4.7 -4.75 4.75 -4.7 4.75 -4.7 4.8 -4.65 4.85 -4.65 4.9 -4.65 5.0 -4.65 5.05 -4.65 5.05 -4.65 5.1 -4.65 5.15 -4.65 5.2 -4.65 5.25 -4.65 5.3 -4.7 5.3 -4.7 5.4 -4.7 5.45 -4.75 5.55 -4.75 5.6 -4.75 5.65 -4.8 5.75 -4.8 5.8 -4.85 5.9 -4.85 5.95 -4.9 6.05 -4.9 6.1 -4.95 6.15 -4.95 6.25 -5.0 6.3 -5.0 6.35 -5.05 6.45 -5.05 6.5 -5.1 6.55 -5.1 6.55 -5.05 6.6 -5.05 6.6 -5.05 6.65 -5.0 6.65 -4.95 6.65 -4.9 6.65 -4.85 6.7 -4.75 6.75 -4.7 6.75 -4.65 6.75 -4.65 6.75 -4.6 6.75 -4.6 6.75 -4.55 6.7 -4.55 6.65 -4.5 6.55 -4.5 6.45 -4.45 6.35 -4.45 6.25 -4.45 6.15 -4.4 6.05 -4.4 5.95 -4.35 5.8 -4.35 5.7 -4.35 5.6 -4.3 5.5 -4.3 5.4 -4.3 5.3 -4.3 5.15 -4.3 5.05 -4.3 4.95 L-4.3 4.95 M-6.95 3.8 Q-6.95 3.65 -6.95 3.55 -6.95 3.4 -6.95 3.3 -7.0 3.2 -7.05 3.15 -7.05 3.05 -7.1 3.0 -7.2 2.9 -7.25 2.85 -7.3 2.85 -7.4 2.8 -7.5 2.8 -7.6 2.8 -7.65 2.75 -7.75 2.8 -7.85 2.8 -7.95 2.8 -8.1 2.85 -8.25 2.9 -8.4 2.95 -8.5 3.05 -8.6 3.15 -8.7 3.25 -8.8 3.35 -8.9 3.45 -8.95 3.55 -9.05 3.65 -9.1 3.75 -9.2 3.9 -9.25 4.0 -9.3 4.15 -9.4 4.3 -9.45 4.4 -9.5 4.45 -9.45 4.5 -9.45 4.5 -9.4 4.55 -9.35 4.6 -9.3 4.55 -9.35 4.6 -9.25 4.45 -9.2 4.4 -9.2 4.35 -9.15 4.3 -9.1 4.25 -9.05 4.2 -9.05 4.15 -9.0 4.05 -8.95 4.05 -8.9 3.95 -8.85 3.95 -8.8 3.9 -8.75 3.85 -8.7 3.8 -8.65 3.75 -8.6 3.7 -8.55 3.65 -8.5 3.6 -8.45 3.6 -8.4 3.55 -8.4 3.55 -8.35 3.5 -8.3 3.5 -8.25 3.45 -8.2 3.45 -8.15 3.4 -8.1 3.4 -8.05 3.4 -8.0 3.35 -7.95 3.35 -7.9 3.35 -7.85 3.35 -7.8 3.35 -7.75 3.35 -7.7 3.35 -7.65 3.35 -7.6 3.4 -7.55 3.4 -7.55 3.4 -7.5 3.45 -7.45 3.45 -7.45 3.5 -7.4 3.5 -7.4 3.55 -7.4 3.6 -7.35 3.65 -7.35 3.7 -7.35 3.75 -7.35 3.8 -7.35 3.85 -7.35 3.9 -7.35 3.95 -7.35 4.0 -7.35 4.0 -7.35 4.05 -7.35 4.1 -7.4 4.15 -7.4 4.25 -7.45 4.3 -7.45 4.4 -7.45 4.45 -7.5 4.55 -7.5 4.6 -7.55 4.65 -7.55 4.75 -7.6 4.8 -7.6 4.9 -7.65 4.95 -7.7 5.0 -7.7 5.1 -7.75 5.15 -7.8 5.2 -7.8 5.3 -7.85 5.35 -7.85 5.4 -7.85 5.45 -7.85 5.45 -7.85 5.5 -7.85 5.5 -7.85 5.55 -7.8 5.55 -7.75 5.6 -7.7 5.6 -7.65 5.65 -7.55 5.7 -7.5 5.7 -7.45 5.7 -7.45 5.75 -7.4 5.7 -7.4 5.7 -7.35 5.7 -7.35 5.65 -7.35 5.6 -7.3 5.5 -7.3 5.35 -7.25 5.25 -7.2 5.15 -7.15 5.0 -7.15 4.9 -7.1 4.8 -7.1 4.7 -7.05 4.55 -7.05 4.45 -7.0 4.35 -7.0 4.25 -7.0 4.1 -7.0 4.0 -6.95 3.9 -6.95 3.8 L-6.95 3.8 M4.85 8.65 Q4.85 8.65 4.85 8.75 4.85 8.85 4.95 8.85 5.05 8.85 5.05 8.8 5.05 8.65 5.05 8.65 5.05 8.65 5.05 8.6 5.05 8.6 5.05 8.55 5.05 8.45 5.1 8.35 5.1 8.25 5.15 8.15 5.2 8.0 5.2 7.95 5.25 7.8 5.3 7.75 5.35 7.65 5.4 7.55 5.45 7.45 5.5 7.35 5.55 7.25 5.65 7.2 5.7 7.1 5.8 7.0 5.85 6.95 5.85 6.95 5.9 6.9 5.95 6.9 5.95 6.9 6.0 6.85 6.05 6.85 6.05 6.85 6.1 6.8 6.15 6.8 6.2 6.8 6.2 6.8 6.25 6.8 6.3 6.8 6.35 6.8 6.4 6.8 6.5 6.85 6.55 6.75 6.55 6.7 6.55 6.65 6.55 6.6 6.55 6.55 6.55 6.5 6.6 6.5 6.6 6.45 6.6 6.4 6.65 6.4 6.6 6.35 6.6 6.3 6.6 6.3 6.6 6.25 6.6 6.25 6.55 6.25 6.55 6.2 6.5 6.2 6.5 6.2 6.45 6.2 6.45 6.2 6.4 6.15 6.35 6.15 6.3 6.15 6.3 6.15 6.25 6.15 6.2 6.2 6.15 6.2 6.1 6.2 6.0 6.25 5.9 6.3 5.85 6.35 5.75 6.4 5.65 6.45 5.6 6.5 5.5 6.6 5.45 6.65 5.4 6.7 5.35 6.8 5.3 6.9 5.25 6.95 5.2 7.05 5.15 7.15 5.1 7.25 5.1 7.35 5.1 7.45 5.05 7.5 5.05 7.6 5.0 7.65 5.0 7.75 5.0 7.85 4.95 7.9 4.95 8.0 4.95 8.05 4.95 8.15 4.9 8.25 4.9 8.3 4.9 8.4 4.9 8.5 4.9 8.55 4.85 8.65 L4.85 8.65 M3.45 7.45 Q3.45 7.2 3.45 7.1 3.45 6.95 3.45 6.95 3.45 6.85 3.35 6.85 3.3 6.85 3.3 6.85 3.25 6.85 3.2 6.9 3.2 6.9 3.15 6.95 3.1 7.0 3.1 7.0 3.05 7.05 2.95 7.15 2.9 7.2 2.85 7.25 2.8 7.35 2.75 7.4 2.7 7.5 2.7 7.6 2.65 7.65 2.6 7.75 2.6 7.8 2.55 7.9 2.55 8.0 2.5 8.1 2.5 8.15 2.45 8.25 2.45 8.3 2.45 8.3 2.45 8.35 2.45 8.4 2.45 8.4 2.45 8.45 2.45 8.45 2.45 8.5 2.45 8.5 2.5 8.5 2.5 8.55 2.5 8.55 2.55 8.55 2.6 8.55 2.6 8.55 2.65 8.55 2.75 8.55 3.15 8.65 3.2 8.65 3.25 8.65 3.3 8.65 3.3 8.65 3.35 8.6 3.35 8.6 3.35 8.55 3.35 8.5 3.35 8.45 3.35 8.35 3.35 8.3 3.4 8.25 3.4 8.2 3.4 8.1 3.4 8.0 3.4 7.95 3.45 7.9 3.45 7.85 3.45 7.75 3.45 7.7 3.45 7.65 3.45 7.55 3.45 7.5 3.45 7.45 L3.45 7.45 M0.55 6.75 Q0.45 6.4 0.45 6.4 0.4 6.4 0.35 6.4 0.35 6.4 0.3 6.45 0.25 6.45 0.2 6.5 0.15 6.55 0.15 6.55 0.05 6.6 0.0 6.7 -0.05 6.75 -0.1 6.85 -0.2 6.9 -0.25 7.0 -0.3 7.05 -0.3 7.15 -0.35 7.2 -0.4 7.3 -0.45 7.4 -0.5 7.5 -0.5 7.55 -0.55 7.65 -0.55 7.75 -0.6 7.85 -0.6 7.9 -0.6 7.95 -0.6 7.95 -0.55 8.0 -0.55 8.0 -0.5 8.0 0.0 8.1 0.15 8.1 0.2 8.1 0.25 8.1 0.25 8.1 0.3 8.1 0.3 8.05 0.3 8.0 0.55 7.0 0.55 6.75 L0.55 6.75 M-2.3 5.85 Q-2.3 5.85 -2.3 5.75 -2.3 5.65 -2.35 5.65 -2.4 5.6 -2.5 5.65 -2.55 5.65 -2.65 5.75 -2.75 5.8 -2.8 5.85 -2.9 5.95 -2.95 6.0 -3.0 6.05 -3.05 6.15 -3.1 6.2 -3.15 6.3 -3.2 6.4 -3.25 6.45 -3.3 6.55 -3.35 6.65 -3.4 6.75 -3.4 6.8 -3.45 6.9 -3.5 7.0 -3.5 7.05 -3.5 7.1 -3.5 7.1 -3.45 7.15 -3.45 7.15 -3.4 7.15 -3.3 7.2 -3.1 7.25 -2.9 7.3 -2.8 7.35 -2.75 7.35 -2.7 7.35 -2.65 7.35 -2.65 7.35 -2.6 7.3 -2.6 7.25 -2.3 6.05 -2.3 5.85 L-2.3 5.85 M-5.05 5.05 Q-5.05 5.0 -5.05 4.95 -5.1 4.9 -5.1 4.9 -5.15 4.9 -5.2 4.95 -5.25 4.95 -5.3 4.95 -5.35 5.0 -5.45 5.05 -5.5 5.05 -5.55 5.1 -5.6 5.15 -5.7 5.2 -5.75 5.25 -5.8 5.3 -5.85 5.35 -5.9 5.45 -5.95 5.5 -6.0 5.55 -6.05 5.6 -6.05 5.7 -6.1 5.75 -6.15 5.8 -6.25 6.0 -6.3 6.05 -6.3 6.15 -6.25 6.2 -6.2 6.25 -6.0 6.3 -5.95 6.35 -5.8 6.35 -5.65 6.4 -5.6 6.45 -5.55 6.45 -5.5 6.45 -5.45 6.45 -5.45 6.4 -5.45 6.35 -5.4 6.25 -5.35 6.15 -5.3 6.1 -5.3 6.0 -5.25 5.9 -5.25 5.85 -5.2 5.75 -5.15 5.65 -5.15 5.6 -5.1 5.5 -5.1 5.4 -5.1 5.3 -5.05 5.25 -5.05 5.15 -5.05 5.05 L-5.05 5.05 M-7.7 3.9 Q-7.7 3.85 -7.7 3.8 -7.7 3.75 -7.75 3.75 -7.75 3.75 -7.8 3.75 -7.8 3.7 -7.85 3.75 -7.9 3.75 -7.95 3.75 -8.0 3.75 -8.05 3.8 -8.1 3.8 -8.15 3.85 -8.2 3.9 -8.25 3.9 -8.3 3.95 -8.35 4.0 -8.4 4.0 -8.45 4.05 -8.5 4.1 -8.55 4.15 -8.6 4.2 -8.6 4.25 -8.65 4.3 -8.7 4.35 -8.9 4.6 -8.95 4.7 -9.0 4.8 -8.9 4.9 -8.85 4.95 -8.6 5.1 -8.55 5.15 -8.45 5.2 -8.35 5.25 -8.35 5.25 -8.25 5.35 -8.2 5.25 -7.75 4.15 -7.7 3.9 L-7.7 3.9 M5.8 8.9 Q5.8 8.9 5.85 8.9 5.85 8.9 5.9 8.9 5.95 8.95 6.0 8.95 6.05 8.95 6.05 8.9 6.1 8.9 6.1 8.85 6.2 8.25 6.35 7.5 6.35 7.45 6.35 7.4 6.35 7.35 6.35 7.3 6.35 7.25 6.3 7.2 6.2 7.15 6.15 7.2 6.15 7.25 6.05 7.35 5.95 7.4 5.9 7.5 5.85 7.55 5.8 7.65 5.75 7.75 5.7 7.85 5.65 7.9 5.6 8.0 5.6 8.1 5.55 8.2 5.5 8.3 5.5 8.4 5.5 8.45 5.45 8.55 5.45 8.65 5.4 8.75 5.4 8.8 5.4 8.85 5.45 8.9 5.45 8.9 5.5 8.9 5.55 8.9 5.6 8.9 5.65 8.9 5.7 8.9 5.8 8.9 L5.8 8.9 M5.7 5.95 Q5.15 5.9 4.2 5.85 4.25 5.95 4.3 6.0 4.35 6.1 4.4 6.2 4.4 6.3 4.45 6.4 4.5 6.45 4.5 6.55 4.55 6.65 4.55 6.75 4.6 6.8 4.6 6.95 4.6 6.95 4.65 7.1 4.65 7.2 4.7 7.3 4.7 7.2 4.75 7.1 4.8 7.0 4.85 6.9 4.9 6.8 4.95 6.7 5.0 6.65 5.05 6.55 5.1 6.45 5.2 6.4 5.25 6.3 5.35 6.25 5.4 6.15 5.5 6.1 5.6 6.05 5.7 5.95 L5.7 5.95 M1.75 6.8 Q1.8 6.7 1.85 6.65 1.9 6.55 1.95 6.45 2.0 6.4 2.05 6.3 2.1 6.25 2.15 6.15 2.2 6.1 2.25 6.0 2.35 5.95 2.4 5.9 2.5 5.8 2.6 5.75 2.65 5.7 2.75 5.65 2.25 5.55 1.4 5.45 1.45 5.55 1.45 5.6 1.5 5.7 1.55 5.8 1.55 5.85 1.6 5.95 1.6 6.05 1.6 6.1 1.65 6.2 1.65 6.3 1.65 6.35 1.7 6.45 1.7 6.5 1.7 6.65 1.75 6.75 1.75 6.8 L1.75 6.8 M-6.65 4.55 Q-6.6 4.45 -6.55 4.4 -6.5 4.35 -6.4 4.25 -6.35 4.2 -6.3 4.15 -6.2 4.1 -6.15 4.0 -6.1 3.95 -6.0 3.9 -5.95 3.85 -5.85 3.8 -5.75 3.75 -5.7 3.75 -5.6 3.7 -5.5 3.65 -5.9 3.5 -6.6 3.2 -6.55 3.45 -6.65 4.55 L-6.65 4.55 M-1.3 4.95 Q-1.2 5.25 -1.15 6.25 -1.1 6.15 -1.05 6.1 -1.0 6.0 -0.95 5.95 -0.9 5.85 -0.85 5.8 -0.8 5.7 -0.75 5.65 -0.65 5.6 -0.6 5.55 -0.55 5.45 -0.45 5.4 -0.4 5.35 -0.3 5.3 -0.2 5.25 -0.15 5.2 -0.55 5.1 -1.3 4.95 L-1.3 4.95 M-8.1 2.45 Q-8.5 2.25 -8.7 2.1 -8.75 2.1 -8.8 2.1 -8.85 2.1 -8.85 2.1 -8.85 2.15 -8.9 2.2 -8.95 2.3 -9.3 3.3 -9.25 3.25 -9.2 3.15 -9.15 3.1 -9.05 3.05 -9.0 2.95 -8.95 2.9 -8.85 2.85 -8.8 2.8 -8.7 2.75 -8.65 2.7 -8.55 2.65 -8.5 2.6 -8.4 2.55 -8.3 2.5 -8.2 2.5 -8.1 2.45 L-8.1 2.45 M-4.0 4.2 Q-4.0 4.25 -3.95 4.35 -3.95 4.4 -3.95 4.5 -3.95 4.55 -3.9 4.6 -3.9 4.7 -3.9 4.75 -3.9 4.85 -3.9 4.9 -3.9 4.95 -3.9 5.05 -3.9 5.1 -3.9 5.15 -3.9 5.15 -3.9 5.3 -3.85 5.25 -3.8 5.2 -3.75 5.1 -3.75 5.05 -3.7 5.0 -3.65 4.95 -3.6 4.9 -3.55 4.85 -3.5 4.8 -3.45 4.75 -3.35 4.7 -3.3 4.65 -3.25 4.6 -3.2 4.55 -3.1 4.5 -3.05 4.45 -3.4 4.4 -4.0 4.2 L-4.0 4.2" fill="#030303" fill-rule="evenodd" stroke="none"/>
    <path d="M-9.5 7.9 Q-9.5 7.95 -9.5 7.95 -9.5 8.0 -9.5 8.0 -9.55 8.05 -9.55 8.05 -9.55 8.1 -9.6 8.1 -9.6 8.15 -9.6 8.15 -9.65 8.15 -9.7 8.2 -9.7 8.2 -9.75 8.2 -9.75 8.2 -9.8 8.2 -9.85 8.2 -9.9 8.2 -9.9 8.2 -9.95 8.2 -10.0 8.2 -10.0 8.15 -10.05 8.15 -10.05 8.15 -10.1 8.1 -10.1 8.1 -10.1 8.05 -10.15 8.05 -10.15 8.0 -10.15 7.95 -10.15 7.95 -10.15 7.9 -10.15 7.85 -10.15 7.8 -10.15 7.8 -10.15 7.75 -10.1 7.7 -10.1 7.7 -10.1 7.65 -10.05 7.65 -10.05 7.6 -10.05 7.6 -10.0 7.6 -9.95 7.6 -9.95 7.55 -9.9 7.55 -9.85 7.55 -9.85 7.55 -9.8 7.55 -9.7 7.55 -9.65 7.6 -9.6 7.65 -9.55 7.7 -9.5 7.75 -9.5 7.8 -9.5 7.9 L-9.5 7.9" fill="#030303" fill-rule="evenodd" stroke="none"/>
    <path d="M3.15 11.85 Q3.15 11.9 3.15 11.9 3.15 11.95 3.1 12.0 3.1 12.0 3.1 12.05 3.05 12.05 3.05 12.1 3.0 12.1 3.0 12.15 2.95 12.15 2.95 12.15 2.9 12.15 2.9 12.15 2.85 12.2 2.8 12.2 2.75 12.2 2.7 12.2 2.65 12.15 2.6 12.15 2.55 12.1 2.55 12.05 2.5 12.0 2.5 11.95 2.45 11.9 2.45 11.85 2.45 11.8 2.45 11.8 2.45 11.75 2.5 11.7 2.5 11.7 2.5 11.65 2.55 11.65 2.55 11.6 2.6 11.6 2.6 11.55 2.65 11.55 2.65 11.55 2.7 11.5 2.75 11.5 2.75 11.5 2.8 11.5 2.85 11.5 2.85 11.5 2.9 11.5 2.95 11.55 2.95 11.55 3.0 11.55 3.0 11.6 3.05 11.6 3.05 11.65 3.1 11.65 3.1 11.7 3.1 11.7 3.1 11.75 3.15 11.75 3.15 11.8 3.15 11.85 L3.15 11.85" fill="#030303" fill-rule="evenodd" stroke="none"/>
    <path d="M-6.95 12.0 Q-6.95 12.05 -7.0 12.1 -7.0 12.15 -7.05 12.2 -7.1 12.25 -7.1 12.25 -7.15 12.3 -7.2 12.3 -7.25 12.3 -7.3 12.3 -7.35 12.3 -7.4 12.3 -7.4 12.25 -7.45 12.25 -7.5 12.25 -7.5 12.2 -7.55 12.2 -7.55 12.15 -7.55 12.15 -7.6 12.1 -7.6 12.1 -7.6 12.05 -7.6 12.05 -7.6 12.0 -7.6 11.95 -7.6 11.9 -7.6 11.85 -7.6 11.8 -7.55 11.75 -7.55 11.7 -7.5 11.7 -7.45 11.65 -7.4 11.65 -7.35 11.6 -7.3 11.6 -7.25 11.6 -7.2 11.6 -7.15 11.65 -7.1 11.65 -7.05 11.7 -7.0 11.75 -7.0 11.8 -6.95 11.85 -6.95 11.9 -6.95 11.95 -6.95 12.0 L-6.95 12.0" fill="#030303" fill-rule="evenodd" stroke="none"/>
    <path d="M2.75 14.55 Q2.7 14.55 2.7 14.55 2.65 14.55 2.6 14.5 2.6 14.5 2.55 14.5 2.55 14.5 2.5 14.45 2.5 14.45 2.45 14.4 2.45 14.4 2.45 14.35 2.45 14.35 2.4 14.3 2.4 14.25 2.4 14.2 2.4 14.15 2.4 14.15 2.4 14.1 2.45 14.1 2.45 14.05 2.45 14.05 2.5 14.0 2.5 14.0 2.55 13.95 2.55 13.95 2.6 13.9 2.65 13.9 2.65 13.9 2.7 13.9 2.75 13.9 2.75 13.9 2.8 13.9 2.8 13.9 2.85 13.9 2.9 13.95 2.9 13.95 2.95 13.95 2.95 13.95 3.0 14.0 3.0 14.0 3.05 14.05 3.05 14.05 3.05 14.1 3.05 14.15 3.05 14.15 3.1 14.2 3.1 14.25 3.1 14.3 3.1 14.3 3.1 14.35 3.05 14.4 3.05 14.4 3.05 14.45 3.0 14.45 3.0 14.5 2.95 14.5 2.95 14.5 2.9 14.55 2.9 14.55 2.85 14.55 2.8 14.55 2.8 14.55 2.75 14.55 L2.75 14.55" fill="#030303" fill-rule="evenodd" stroke="none"/>
    <path d="M-6.45 9.1 Q-6.4 9.1 -6.35 9.1 -6.35 9.1 -6.3 9.15 -6.25 9.15 -6.25 9.15 -6.2 9.2 -6.2 9.2 -6.15 9.25 -6.15 9.25 -6.15 9.3 -6.1 9.3 -6.1 9.35 -6.1 9.4 -6.1 9.4 -6.1 9.45 -6.1 9.5 -6.1 9.5 -6.1 9.55 -6.15 9.6 -6.15 9.6 -6.15 9.65 -6.2 9.65 -6.2 9.7 -6.2 9.7 -6.25 9.75 -6.25 9.75 -6.3 9.75 -6.35 9.75 -6.35 9.75 -6.4 9.75 -6.45 9.75 -6.5 9.75 -6.5 9.75 -6.55 9.75 -6.6 9.75 -6.6 9.75 -6.65 9.7 -6.65 9.7 -6.7 9.65 -6.7 9.65 -6.7 9.65 -6.75 9.6 -6.75 9.55 -6.75 9.55 -6.75 9.5 -6.75 9.45 -6.75 9.45 -6.75 9.4 -6.75 9.35 -6.75 9.35 -6.75 9.3 -6.7 9.25 -6.7 9.25 -6.7 9.2 -6.65 9.2 -6.65 9.2 -6.6 9.15 -6.6 9.15 -6.55 9.15 -6.55 9.15 -6.5 9.1 -6.45 9.1 -6.45 9.1 L-6.45 9.1" fill="#030303" fill-rule="evenodd" stroke="none"/>
    <path d="M-10.7 9.9 Q-10.7 9.95 -10.7 9.95 -10.7 10.0 -10.7 10.0 -10.75 10.05 -10.75 10.05 -10.75 10.1 -10.8 10.1 -10.8 10.15 -10.85 10.15 -10.85 10.15 -10.9 10.2 -10.9 10.2 -10.95 10.2 -11.0 10.2 -11.0 10.2 -11.05 10.2 -11.1 10.2 -11.1 10.2 -11.15 10.15 -11.2 10.15 -11.2 10.15 -11.25 10.1 -11.25 10.1 -11.3 10.1 -11.3 10.05 -11.3 10.0 -11.35 10.0 -11.35 9.95 -11.35 9.95 -11.35 9.9 -11.35 9.85 -11.35 9.8 -11.35 9.8 -11.35 9.75 -11.3 9.7 -11.3 9.7 -11.3 9.65 -11.25 9.65 -11.25 9.6 -11.25 9.6 -11.2 9.6 -11.15 9.55 -11.15 9.55 -11.1 9.55 -11.1 9.55 -11.05 9.55 -11.0 9.55 -10.95 9.55 -10.95 9.55 -10.9 9.55 -10.85 9.55 -10.85 9.6 -10.8 9.6 -10.8 9.6 -10.75 9.65 -10.75 9.65 -10.75 9.7 -10.7 9.7 -10.7 9.75 -10.7 9.75 -10.7 9.8 -10.7 9.85 -10.7 9.9 L-10.7 9.9" fill="#030303" fill-rule="evenodd" stroke="none"/>
    <path d="M-1.8 10.8 Q-1.8 10.85 -1.8 10.9 -1.85 10.9 -1.85 10.95 -1.85 11.0 -1.85 11.0 -1.9 11.05 -1.9 11.05 -1.95 11.1 -1.95 11.1 -2.0 11.1 -2.0 11.1 -2.05 11.15 -2.05 11.15 -2.1 11.15 -2.15 11.15 -2.2 11.15 -2.2 11.15 -2.25 11.15 -2.3 11.15 -2.3 11.1 -2.35 11.1 -2.35 11.1 -2.4 11.05 -2.4 11.05 -2.45 11.0 -2.45 11.0 -2.45 10.95 -2.45 10.95 -2.45 10.9 -2.5 10.85 -2.5 10.8 -2.5 10.75 -2.5 10.75 -2.5 10.7 -2.45 10.65 -2.45 10.65 -2.45 10.6 -2.4 10.6 -2.4 10.6 -2.35 10.55 -2.35 10.55 -2.3 10.5 -2.3 10.5 -2.25 10.5 -2.2 10.5 -2.2 10.5 -2.15 10.5 -2.1 10.5 -2.05 10.5 -2.05 10.5 -2.0 10.5 -2.0 10.55 -1.95 10.55 -1.95 10.55 -1.9 10.6 -1.9 10.6 -1.85 10.65 -1.85 10.65 -1.85 10.7 -1.85 10.7 -1.85 10.75 -1.8 10.8 -1.8 10.8 L-1.8 10.8" fill="#030303" fill-rule="evenodd" stroke="none"/>
    <path d="M-2.35 13.4 Q-2.35 13.45 -2.35 13.45 -2.35 13.5 -2.4 13.55 -2.4 13.55 -2.4 13.6 -2.4 13.65 -2.45 13.65 -2.45 13.65 -2.5 13.7 -2.5 13.7 -2.55 13.7 -2.55 13.75 -2.6 13.75 -2.65 13.75 -2.65 13.75 -2.7 13.75 -2.75 13.75 -2.75 13.75 -2.8 13.7 -2.85 13.7 -2.85 13.7 -2.9 13.7 -2.9 13.65 -2.95 13.65 -2.95 13.6 -2.95 13.6 -3.0 13.55 -3.0 13.55 -3.0 13.5 -3.0 13.45 -3.0 13.4 -3.0 13.35 -3.0 13.35 -3.0 13.3 -3.0 13.25 -2.95 13.25 -2.95 13.2 -2.95 13.2 -2.9 13.15 -2.9 13.15 -2.9 13.15 -2.85 13.1 -2.8 13.1 -2.8 13.1 -2.75 13.1 -2.7 13.1 -2.7 13.1 -2.65 13.1 -2.6 13.1 -2.6 13.1 -2.55 13.1 -2.5 13.1 -2.5 13.15 -2.45 13.15 -2.45 13.15 -2.4 13.2 -2.4 13.2 -2.4 13.25 -2.4 13.25 -2.35 13.3 -2.35 13.35 -2.35 13.35 -2.35 13.4 L-2.35 13.4" fill="#030303" fill-rule="evenodd" stroke="none"/>
  </g>
</svg>
