<?xml version="1.0" encoding="UTF-8" standalone="no"?>
<svg xmlns:xlink="http://www.w3.org/1999/xlink" height="49.55px" width="26.8px" xmlns="http://www.w3.org/2000/svg">
  <g transform="matrix(1.0, 0.0, 0.0, 1.0, 24.0, 41.3)">
    <path d="M-11.0 -4.35 Q-9.6 -4.6 -6.9 -5.1 -7.2 -6.25 -7.75 -8.5 -6.65 -8.8 -4.5 -9.4 -4.4 -8.95 -4.1 -8.0 -3.85 -7.8 -3.35 -7.4 -3.4 -7.0 -3.45 -6.15 -1.9 -6.55 1.45 -7.45 1.9 -5.75 2.8 -2.35 2.9 -2.3 3.0 -2.25 3.15 -2.15 3.25 -2.05 3.4 -1.95 3.6 -1.85 3.75 -1.7 3.9 -1.55 4.1 -1.35 4.25 -1.2 4.45 -0.95 4.6 -0.75 4.75 -0.5 4.9 -0.25 5.0 0.05 5.1 0.35 5.1 0.3 5.1 0.45 5.15 0.55 5.15 0.6 5.15 0.7 5.2 0.75 5.2 0.85 5.2 0.95 5.2 1.05 5.2 1.15 5.2 1.25 5.2 1.35 5.2 1.5 5.2 1.6 5.15 1.75 5.15 1.85 5.05 2.15 4.9 2.45 4.75 2.7 4.55 2.95 4.35 3.15 4.15 3.35 3.95 3.55 3.7 3.7 3.45 3.8 3.25 3.95 3.05 4.0 2.85 4.1 2.7 4.15 2.55 4.2 2.5 4.25 2.45 4.25 2.45 4.2 2.45 4.35 2.45 4.45 2.45 4.55 2.45 4.65 2.45 4.75 2.45 4.85 2.45 5.0 2.45 5.1 2.4 5.25 2.4 5.4 2.35 5.55 2.3 5.7 2.2 5.85 2.15 6.0 2.05 6.15 1.95 6.3 1.8 6.45 1.65 6.6 1.5 6.7 1.4 6.8 1.25 6.9 1.1 7.0 0.95 7.05 0.8 7.1 0.65 7.15 0.55 7.2 0.4 7.25 0.3 7.25 0.2 7.3 0.15 7.3 0.05 7.3 -0.15 7.35 -0.35 7.35 -0.5 7.35 -0.7 7.35 -0.85 7.35 -1.05 7.3 -1.2 7.3 -1.35 7.25 -1.45 7.2 -1.6 7.2 -1.7 7.15 -1.8 7.1 -1.9 7.05 -2.0 7.0 -2.05 7.0 -2.15 6.95 -2.2 7.0 -2.25 7.05 -2.25 7.1 -2.3 7.15 -2.4 7.2 -2.45 7.25 -2.5 7.3 -2.55 7.35 -2.65 7.45 -2.7 7.5 -2.8 7.55 -2.9 7.6 -2.95 7.65 -3.05 7.7 -3.15 7.75 -3.25 7.8 -3.45 7.9 -3.65 7.95 -3.85 7.95 -4.05 8.0 -4.25 8.0 -4.4 8.0 -4.6 8.0 -4.75 7.95 -4.9 7.95 -5.05 7.9 -5.2 7.85 -5.35 7.85 -5.45 7.8 -5.55 7.75 -5.6 7.75 -5.7 7.7 -5.9 7.6 -6.05 7.5 -6.25 7.45 -6.4 7.3 -6.55 7.2 -6.7 7.1 -6.8 7.0 -6.9 6.85 -7.0 6.75 -7.1 6.65 -7.2 6.55 -7.25 6.45 -7.35 6.35 -7.4 6.25 -7.45 6.2 -7.5 6.15 -7.55 6.15 -7.65 6.15 -7.7 6.2 -7.8 6.2 -7.9 6.2 -7.95 6.2 -8.05 6.2 -8.2 6.2 -8.3 6.15 -8.4 6.15 -8.5 6.15 -8.65 6.1 -8.75 6.1 -8.85 6.05 -9.0 6.0 -9.1 5.95 -9.3 5.85 -9.5 5.7 -9.7 5.55 -9.85 5.35 -9.95 5.2 -10.1 5.0 -10.2 4.85 -10.3 4.65 -10.35 4.45 -10.4 4.3 -10.45 4.1 -10.5 3.95 -10.55 3.8 -10.6 3.65 -10.6 3.55 -10.6 3.45 -10.65 3.2 -10.65 2.95 -10.65 2.7 -10.65 2.45 -10.65 2.25 -10.6 2.05 -10.55 1.85 -10.5 1.65 -10.45 1.45 -10.4 1.3 -10.35 1.15 -10.3 1.0 -10.25 0.85 -10.2 0.75 -10.15 0.65 -10.1 0.55 -10.4 -1.05 -11.0 -4.35 L-11.0 -4.35" fill="#ffffff" fill-rule="evenodd" stroke="none"/>
    <path d="M-5.45 -0.15 Q-5.55 -0.1 -5.6 0.0 -5.7 0.05 -5.75 0.15 -5.8 0.2 -5.85 0.35 -5.85 0.4 -5.9 0.55 -5.9 0.6 -5.95 0.75 -5.95 0.85 -5.95 0.95 -5.95 1.05 -5.95 1.15 -5.95 1.2 -5.95 1.3 -5.95 1.3 -5.95 1.35 -5.9 1.4 -5.9 1.45 -5.9 1.55 -5.85 1.6 -5.85 1.7 -5.8 1.8 -5.75 1.85 -5.7 1.95 -5.65 2.05 -5.55 2.15 -5.5 2.25 -5.4 2.35 -5.3 2.45 -5.2 2.55 -5.1 2.6 -5.0 2.65 -4.95 2.7 -4.85 2.75 -4.75 2.75 -4.65 2.8 -4.55 2.8 -4.45 2.85 -4.35 2.85 -4.2 2.85 -4.1 2.85 -4.0 2.85 -3.9 2.85 -3.75 2.85 -3.65 2.85 -3.45 2.85 -3.2 2.85 -3.2 2.85 -3.05 2.8 -2.9 2.8 -2.8 2.8 -2.65 2.8 -2.55 2.75 -2.4 2.75 -2.3 2.7 -2.15 2.65 -2.05 2.6 -1.95 2.55 -1.8 2.5 -1.7 2.45 -1.6 2.35 -1.5 2.25 -1.45 2.2 -1.35 2.1 -1.3 2.05 -1.25 2.0 -1.2 1.95 -1.15 1.85 -1.15 1.8 -1.1 1.75 -1.05 1.65 -1.05 1.6 -1.0 1.55 -1.0 1.5 -0.95 1.45 -0.95 1.35 -0.9 1.35 -0.9 1.25 -0.85 1.15 -0.85 1.1 -0.8 1.0 -0.8 0.95 -0.75 0.85 -0.75 0.8 -0.75 0.7 -0.7 0.6 -0.7 0.5 -0.7 0.45 -0.7 0.35 -0.7 0.25 -0.75 0.15 -0.75 0.05 -0.8 0.0 -0.85 -0.1 -0.9 -0.15 -0.9 -0.2 -0.95 -0.25 -1.0 -0.3 -1.0 -0.35 -1.05 -0.4 -1.1 -0.45 -1.15 -0.5 -1.2 -0.5 -1.25 -0.55 -1.35 -0.6 -1.4 -0.6 -1.45 -0.65 -1.5 -0.65 -1.55 -0.7 -1.65 -0.7 -1.75 -0.75 -1.9 -0.7 -2.0 -0.7 -2.1 -0.7 -2.15 -0.65 -2.25 -0.6 -2.35 -0.55 -2.45 -0.5 -2.65 -0.4 -2.65 -0.4 -2.8 -0.3 -2.9 -0.25 -3.0 -0.2 -3.15 -0.15 -3.3 -0.1 -3.45 -0.05 -3.65 0.0 -3.8 0.0 -3.95 0.0 -4.15 -0.05 -4.25 -0.05 -4.4 -0.1 -4.5 -0.15 -4.65 -0.2 -4.8 -0.2 -4.85 -0.25 -5.0 -0.25 -5.05 -0.25 -5.2 -0.3 -5.25 -0.25 -5.35 -0.25 -5.45 -0.15 L-5.45 -0.15" fill="#fcbed7" fill-rule="evenodd" stroke="none"/>
    <path d="M-7.3 2.8 Q-7.35 2.75 -7.35 2.75 -7.4 2.7 -7.4 2.7 -7.45 2.65 -7.5 2.6 -7.55 2.55 -7.55 2.55 -7.6 2.5 -7.65 2.5 -7.7 2.45 -7.75 2.45 -7.8 2.4 -7.9 2.4 -7.95 2.4 -8.0 2.4 -8.1 2.4 -8.2 2.45 -8.25 2.45 -8.35 2.5 -8.4 2.55 -8.5 2.65 -8.55 2.7 -8.65 2.8 -8.7 2.85 -8.75 2.95 -8.8 3.05 -8.8 3.15 -8.85 3.25 -8.85 3.35 -8.85 3.45 -8.85 3.55 -8.85 3.65 -8.8 3.7 -8.8 3.75 -8.75 3.85 -8.7 3.9 -8.65 3.95 -8.6 4.0 -8.55 4.05 -8.5 4.1 -8.45 4.15 -8.4 4.2 -8.35 4.25 -8.3 4.25 -8.2 4.3 -8.15 4.3 -8.1 4.35 -8.05 4.35 -7.95 4.4 -7.9 4.4 -7.8 4.4 -7.7 4.4 -7.65 4.4 -7.55 4.4 -7.5 4.35 -7.4 4.35 -7.3 4.3 -7.25 4.3 -7.2 4.25 -7.1 4.2 -7.05 4.15 -7.0 4.1 -6.95 4.05 -6.9 3.95 -6.9 3.85 -6.85 3.75 -6.85 3.65 -6.9 3.55 -6.9 3.45 -6.95 3.35 -7.0 3.25 -7.05 3.15 -7.1 3.1 -7.15 3.0 -7.2 2.95 -7.2 2.9 -7.25 2.85 -7.3 2.8 -7.3 2.8 L-7.3 2.8" fill="#fcbed7" fill-rule="evenodd" stroke="none"/>
    <path d="M-5.25 4.3 Q-5.3 4.3 -5.35 4.35 -5.4 4.35 -5.5 4.4 -5.55 4.45 -5.6 4.5 -5.65 4.55 -5.65 4.6 -5.7 4.65 -5.75 4.7 -5.8 4.75 -5.8 4.8 -5.85 4.85 -5.85 4.95 -5.85 5.0 -5.85 5.05 -5.85 5.1 -5.85 5.15 -5.85 5.2 -5.85 5.25 -5.85 5.3 -5.8 5.35 -5.8 5.4 -5.8 5.45 -5.75 5.5 -5.75 5.55 -5.75 5.55 -5.7 5.6 -5.7 5.6 -5.65 5.65 -5.65 5.65 -5.65 5.7 -5.65 5.7 -5.6 5.75 -5.6 5.8 -5.55 5.8 -5.5 5.85 -5.45 5.9 -5.45 5.95 -5.4 5.95 -5.3 6.0 -5.25 6.05 -5.2 6.1 -5.15 6.1 -5.05 6.15 -5.0 6.15 -4.9 6.15 -4.85 6.15 -4.75 6.15 -4.65 6.15 -4.6 6.1 -4.5 6.1 -4.4 6.05 -4.35 6.0 -4.25 5.95 -4.2 5.9 -4.1 5.85 -4.05 5.75 -4.0 5.7 -3.95 5.6 -3.9 5.55 -3.9 5.45 -3.85 5.4 -3.85 5.3 -3.85 5.2 -3.9 5.05 -3.9 4.95 -4.0 4.85 -4.05 4.75 -4.15 4.65 -4.2 4.55 -4.35 4.5 -4.45 4.4 -4.55 4.35 -4.65 4.3 -4.8 4.3 -4.9 4.25 -5.05 4.25 -5.15 4.25 -5.25 4.3 L-5.25 4.3" fill="#fcbed7" fill-rule="evenodd" stroke="none"/>
    <path d="M-1.3 3.65 Q-1.35 3.7 -1.4 3.8 -1.45 3.85 -1.45 3.95 -1.45 4.05 -1.45 4.1 -1.45 4.2 -1.45 4.3 -1.45 4.35 -1.4 4.45 -1.4 4.5 -1.4 4.55 -1.35 4.6 -1.35 4.65 -1.35 4.7 -1.35 4.75 -1.35 4.75 -1.3 4.85 -1.3 4.9 -1.25 4.9 -1.25 5.0 -1.2 5.05 -1.15 5.1 -1.15 5.15 -1.1 5.2 -1.05 5.25 -1.0 5.3 -0.95 5.35 -0.9 5.4 -0.8 5.4 -0.75 5.45 -0.65 5.45 -0.6 5.45 -0.5 5.45 -0.45 5.45 -0.35 5.45 -0.3 5.45 -0.25 5.4 -0.15 5.4 -0.1 5.35 -0.05 5.35 0.0 5.3 0.05 5.25 0.05 5.25 0.1 5.2 0.15 5.15 0.15 5.15 0.15 5.15 0.2 5.1 0.25 5.0 0.3 4.95 0.35 4.85 0.4 4.8 0.4 4.7 0.45 4.65 0.45 4.55 0.45 4.45 0.5 4.4 0.5 4.3 0.45 4.2 0.45 4.15 0.45 4.05 0.4 3.95 0.35 3.9 0.3 3.8 0.2 3.7 0.1 3.6 0.0 3.55 -0.1 3.5 -0.2 3.45 -0.35 3.4 -0.45 3.4 -0.6 3.35 -0.7 3.4 -0.8 3.4 -0.95 3.4 -1.05 3.45 -1.15 3.5 -1.25 3.55 -1.3 3.65 L-1.3 3.65" fill="#fcbed7" fill-rule="evenodd" stroke="none"/>
    <path d="M1.8 2.5 Q1.7 2.45 1.65 2.4 1.6 2.35 1.5 2.3 1.45 2.2 1.45 2.15 1.4 2.05 1.35 2.0 1.35 1.9 1.3 1.85 1.3 1.8 1.3 1.7 1.3 1.65 1.25 1.6 1.25 1.6 1.25 1.55 1.25 1.55 1.25 1.45 1.25 1.4 1.25 1.35 1.25 1.3 1.25 1.2 1.25 1.15 1.25 1.05 1.3 1.0 1.3 0.9 1.35 0.85 1.4 0.75 1.4 0.7 1.45 0.6 1.55 0.55 1.6 0.5 1.65 0.45 1.75 0.4 1.8 0.4 1.9 0.35 1.95 0.35 2.05 0.35 2.15 0.35 2.2 0.35 2.3 0.35 2.4 0.4 2.45 0.4 2.55 0.45 2.6 0.45 2.65 0.5 2.75 0.55 2.8 0.6 2.9 0.65 2.95 0.75 3.0 0.8 3.05 0.9 3.1 0.95 3.15 1.05 3.2 1.15 3.2 1.25 3.25 1.35 3.25 1.45 3.25 1.55 3.25 1.65 3.2 1.75 3.2 1.85 3.15 1.95 3.1 2.05 3.05 2.15 3.0 2.2 2.9 2.25 2.85 2.35 2.75 2.4 2.7 2.45 2.6 2.5 2.5 2.5 2.45 2.55 2.35 2.55 2.25 2.6 2.15 2.6 2.05 2.6 1.95 2.55 1.9 2.55 1.8 2.5 L1.8 2.5" fill="#fcbed7" fill-rule="evenodd" stroke="none"/>
    <path d="M-14.25 -32.45 Q-14.25 -32.7 -14.2 -32.9 -14.2 -33.1 -14.1 -33.3 -14.05 -33.5 -13.95 -33.7 -13.9 -33.85 -13.8 -34.0 -13.7 -34.15 -13.6 -34.25 -13.5 -34.35 -13.45 -34.45 -13.35 -34.55 -13.25 -34.65 -13.2 -34.7 -13.15 -34.75 -13.7 -38.0 -14.75 -44.6 -14.75 -44.6 -14.75 -44.65 -14.75 -44.7 -14.75 -44.7 -14.7 -44.8 -14.7 -44.85 -14.7 -44.9 -14.65 -44.95 -14.6 -45.05 -14.6 -45.1 -14.55 -45.2 -14.5 -45.25 -14.4 -45.3 -14.35 -45.4 -14.25 -45.45 -14.15 -45.5 -14.1 -45.55 -14.0 -45.55 -13.95 -45.6 -13.85 -45.6 -13.8 -45.65 -13.7 -45.65 -13.6 -45.65 -13.55 -45.65 -13.45 -45.65 -13.4 -45.6 -13.3 -45.6 -13.25 -45.6 -13.15 -45.55 -13.1 -45.5 -13.0 -45.5 -12.95 -45.45 -12.45 -43.45 -11.75 -40.4 -11.3 -38.6 -10.65 -35.7 -10.6 -35.65 -10.5 -35.65 -10.45 -35.6 -10.35 -35.6 -10.3 -35.55 -10.2 -35.5 -10.1 -35.5 -10.05 -35.45 -9.95 -35.4 -9.85 -35.35 -9.75 -35.3 -9.7 -35.25 -9.6 -35.2 -9.5 -35.15 -9.4 -35.1 -9.3 -35.05 -9.05 -34.9 -8.95 -34.85 -8.8 -34.75 -8.7 -34.65 -8.55 -34.55 -8.4 -34.45 -8.3 -34.4 -8.2 -34.3 -8.1 -34.2 -8.0 -34.1 -7.9 -34.05 -7.85 -33.95 -7.75 -33.85 -7.7 -33.75 -7.6 -33.6 -7.55 -33.5 -7.5 -33.3 -7.45 -33.15 -7.4 -32.95 -7.4 -32.8 -7.35 -32.6 -7.4 -32.45 -7.4 -32.25 -7.45 -32.1 -7.45 -31.95 -7.5 -31.8 -7.55 -31.65 -7.6 -31.55 -7.6 -31.4 -7.65 -31.3 -7.7 -31.25 -7.75 -31.15 -7.75 -31.1 -7.8 -31.0 -7.85 -30.95 -7.85 -30.85 -7.9 -30.75 -7.95 -30.7 -8.0 -30.6 -8.05 -30.5 -8.15 -30.4 -8.2 -30.3 -8.3 -30.2 -8.35 -30.1 -8.45 -30.0 -8.55 -29.9 -8.7 -29.8 -8.8 -29.75 -8.9 -29.65 -9.05 -29.6 -9.15 -29.55 -9.25 -29.5 -9.35 -29.45 -9.45 -29.4 -9.55 -29.35 -9.65 -29.3 -9.75 -29.3 -9.85 -29.25 -9.95 -29.25 -10.0 -29.25 -10.1 -29.2 -10.15 -29.2 -10.2 -29.2 -10.25 -29.2 -10.4 -29.2 -10.6 -29.2 -10.75 -29.2 -10.9 -29.2 -11.05 -29.2 -11.15 -29.25 -11.3 -29.25 -11.45 -29.3 -11.55 -29.3 -11.65 -29.35 -11.75 -29.4 -11.85 -29.4 -11.9 -29.45 -12.0 -29.5 -12.05 -29.5 -12.1 -29.55 -12.15 -29.55 -12.25 -29.6 -12.4 -29.7 -12.5 -29.75 -12.7 -29.9 -12.85 -30.0 -13.1 -30.15 -13.25 -30.35 -13.45 -30.55 -13.65 -30.75 -13.85 -31.0 -13.95 -31.25 -14.1 -31.5 -14.2 -31.8 -14.25 -32.15 -14.25 -32.45 L-14.25 -32.45" fill="#ffffff" fill-rule="evenodd" stroke="none"/>
  </g>
</svg>
