<?xml version="1.0" encoding="UTF-8" standalone="no"?>
<svg xmlns:xlink="http://www.w3.org/1999/xlink" height="94.9px" width="95.25px" xmlns="http://www.w3.org/2000/svg">
  <g transform="matrix(1.0, 0.0, 0.0, 1.0, 47.65, 47.45)">
    <path d="M35.15 -15.05 Q35.1 -15.4 35.0 -15.75 34.95 -16.05 34.85 -16.4 34.75 -16.75 34.65 -17.1 34.55 -17.45 34.4 -17.8 34.25 -18.2 34.05 -18.6 33.9 -19.0 33.7 -19.45 33.55 -19.85 33.3 -20.4 33.15 -20.75 32.8 -21.5 32.45 -22.3 32.25 -22.65 32.0 -23.25 31.75 -23.75 31.5 -24.3 31.25 -24.8 31.0 -25.3 30.75 -25.8 30.45 -26.3 30.2 -26.7 29.9 -27.2 29.6 -27.6 29.3 -28.05 28.95 -28.5 28.65 -28.9 28.25 -29.3 27.6 -30.0 26.9 -30.6 26.2 -31.2 25.45 -31.7 24.75 -32.15 24.0 -32.55 23.35 -32.9 22.6 -33.2 21.9 -33.5 21.2 -33.75 20.6 -33.95 19.95 -34.1 19.45 -34.25 18.85 -34.4 18.5 -34.45 17.95 -34.6 17.5 -34.7 17.1 -34.75 16.25 -34.85 15.35 -34.95 14.1 -35.05 12.85 -35.05 11.35 -35.05 9.9 -34.9 8.15 -34.7 6.55 -34.35 4.75 -33.9 3.1 -33.2 1.25 -32.45 -0.35 -31.4 -2.1 -30.2 -3.6 -28.7 -4.35 -27.95 -4.95 -27.1 -5.55 -26.35 -6.1 -25.5 -6.6 -24.7 -7.0 -23.9 -7.4 -23.15 -7.7 -22.4 -8.0 -21.7 -8.25 -21.0 -8.5 -20.4 -8.65 -19.75 -8.8 -19.25 -8.95 -18.75 -9.0 -18.4 -9.1 -17.95 -9.3 -17.05 -9.45 -16.1 -9.55 -15.25 -9.6 -14.4 -9.65 -13.6 -9.65 -12.8 -9.65 -12.1 -9.6 -11.4 -9.55 -10.8 -9.5 -10.2 -9.45 -9.7 -9.35 -9.2 -9.3 -8.85 -9.2 -8.45 -9.15 -8.25 -9.1 -8.0 -8.75 -6.6 -8.25 -5.25 -7.75 -4.0 -7.1 -2.8 -6.55 -1.75 -5.8 -0.75 -5.2 0.15 -4.45 1.0 -3.85 1.75 -3.15 2.45 -2.6 3.0 -2.0 3.5 -1.5 3.9 -1.05 4.3 -0.75 4.5 -0.45 4.7 0.95 5.7 2.45 6.4 3.85 7.1 5.35 7.6 6.7 8.0 8.1 8.25 9.35 8.5 10.65 8.6 11.75 8.65 12.9 8.65 13.8 8.6 14.75 8.5 15.45 8.45 16.1 8.3 16.55 8.25 16.95 8.15 18.3 7.85 19.6 7.4 20.8 6.95 21.95 6.4 23.0 5.85 24.0 5.25 24.9 4.65 25.75 3.95 26.5 3.4 27.25 2.7 27.85 2.15 28.45 1.5 28.9 1.0 29.35 0.5 29.65 0.1 30.05 -0.35 30.45 -0.9 30.75 -1.2 31.2 -1.85 31.6 -2.45 32.15 -3.2 32.6 -4.0 33.15 -4.9 33.6 -5.8 34.05 -6.85 34.45 -7.85 34.85 -9.0 35.05 -10.1 35.3 -11.35 35.35 -12.5 35.35 -13.8 35.15 -15.05 L35.15 -15.05 M31.7 -10.9 Q31.7 -10.7 31.65 -10.5 31.6 -10.3 31.6 -10.1 31.55 -9.9 31.5 -9.7 31.5 -9.5 31.45 -9.3 31.4 -9.1 31.35 -8.9 31.3 -8.75 31.2 -8.55 31.15 -8.35 31.1 -8.15 31.05 -7.95 31.0 -7.75 30.95 -7.55 30.85 -7.35 30.75 -7.15 30.7 -6.95 30.6 -6.75 30.5 -6.6 30.45 -6.4 30.35 -6.2 30.25 -6.0 30.15 -5.8 30.1 -5.65 30.0 -5.45 29.9 -5.25 29.8 -5.05 29.7 -4.9 29.6 -4.7 29.4 -4.35 29.15 -4.0 28.95 -3.65 28.7 -3.3 28.45 -2.95 28.2 -2.65 27.9 -2.3 27.65 -2.0 27.35 -1.7 27.05 -1.45 26.75 -1.15 26.4 -0.9 26.1 -0.65 25.75 -0.45 25.4 -0.2 25.0 -0.05 24.6 0.15 24.2 0.3 23.8 0.45 23.35 0.55 22.95 0.6 22.5 0.65 22.1 0.75 21.65 0.75 21.2 0.75 20.75 0.75 20.3 0.7 19.85 0.65 19.45 0.6 19.0 0.5 18.6 0.45 18.15 0.35 17.75 0.25 17.3 0.1 16.9 -0.05 16.5 -0.2 16.1 -0.35 15.7 -0.55 15.3 -0.75 14.9 -0.95 14.55 -1.2 14.15 -1.4 13.8 -1.65 13.45 -1.95 13.15 -2.25 12.85 -2.55 12.5 -2.85 12.25 -3.2 11.95 -3.55 11.7 -3.95 11.45 -4.3 11.25 -4.7 11.0 -5.1 10.85 -5.55 10.65 -5.95 10.5 -6.4 10.35 -6.8 10.25 -7.25 10.15 -7.7 10.05 -8.15 9.95 -8.6 9.9 -9.05 9.85 -9.5 9.85 -9.95 9.8 -10.35 9.8 -10.75 9.8 -11.15 9.85 -11.6 9.85 -12.0 9.9 -12.4 9.95 -12.8 10.0 -13.2 10.1 -13.6 10.2 -14.0 10.3 -14.4 10.4 -14.8 10.5 -15.2 10.65 -15.55 10.8 -15.95 10.95 -16.3 10.95 -16.35 11.0 -16.45 11.0 -16.5 11.05 -16.55 11.05 -16.65 11.1 -16.7 11.1 -16.75 11.15 -16.8 11.15 -16.9 11.2 -16.95 11.2 -17.0 11.25 -17.1 11.25 -17.15 11.3 -17.2 11.3 -17.25 11.35 -17.35 11.45 -17.55 11.55 -17.7 11.65 -17.9 11.8 -18.05 11.9 -18.2 12.05 -18.4 12.2 -18.55 12.35 -18.7 12.45 -18.85 12.65 -19.0 12.8 -19.1 12.95 -19.25 13.1 -19.4 13.25 -19.5 13.45 -19.65 13.6 -19.75 13.75 -19.85 13.9 -20.0 14.1 -20.1 14.25 -20.2 14.4 -20.3 14.6 -20.4 14.75 -20.5 14.9 -20.6 15.1 -20.7 15.25 -20.75 15.45 -20.85 15.6 -20.95 15.8 -21.0 15.95 -21.1 16.15 -21.2 16.3 -21.25 16.4 -21.3 16.5 -21.35 16.6 -21.4 16.7 -21.4 16.8 -21.45 16.9 -21.5 17.0 -21.55 17.1 -21.6 17.2 -21.6 17.3 -21.65 17.4 -21.7 17.5 -21.75 17.6 -21.75 17.65 -21.8 17.75 -21.85 17.85 -21.9 18.0 -21.95 18.15 -22.0 18.25 -22.0 18.4 -22.05 18.55 -22.1 18.7 -22.15 18.8 -22.15 18.95 -22.2 19.1 -22.2 19.25 -22.25 19.4 -22.25 19.55 -22.3 19.65 -22.3 19.8 -22.3 19.95 -22.3 20.1 -22.35 20.35 -22.35 20.6 -22.35 20.85 -22.35 21.1 -22.35 21.35 -22.3 21.6 -22.3 21.85 -22.25 22.1 -22.2 22.35 -22.15 22.6 -22.1 22.85 -22.05 23.1 -21.95 23.35 -21.9 23.6 -21.8 23.85 -21.75 24.1 -21.65 24.25 -21.6 24.35 -21.55 24.5 -21.5 24.6 -21.45 24.75 -21.4 24.85 -21.35 25.0 -21.3 25.15 -21.25 25.25 -21.2 25.4 -21.15 25.5 -21.1 25.65 -21.05 25.75 -21.0 25.9 -20.95 26.0 -20.9 26.15 -20.85 26.25 -20.8 26.35 -20.75 26.45 -20.7 26.55 -20.65 26.6 -20.6 26.7 -20.55 26.8 -20.5 26.9 -20.45 27.0 -20.4 27.05 -20.35 27.15 -20.3 27.25 -20.25 27.35 -20.2 27.4 -20.15 27.5 -20.1 27.6 -20.05 27.8 -19.9 27.95 -19.8 28.15 -19.65 28.3 -19.5 28.5 -19.35 28.65 -19.2 28.8 -19.05 28.95 -18.9 29.1 -18.7 29.25 -18.55 29.4 -18.4 29.55 -18.2 29.7 -18.05 29.8 -17.85 29.95 -17.65 30.05 -17.5 30.3 -17.15 30.5 -16.75 30.7 -16.35 30.9 -15.95 31.05 -15.55 31.2 -15.15 31.35 -14.75 31.45 -14.3 31.55 -13.9 31.6 -13.45 31.65 -13.05 31.7 -12.6 31.75 -12.15 31.75 -11.75 31.75 -11.3 31.7 -10.9 L31.7 -10.9" fill="#268e26" fill-rule="evenodd" stroke="none"/>
    <path d="M19.95 -1.1 Q19.95 -1.1 19.9 -1.1 19.85 -1.1 19.85 -1.1 19.85 -1.1 19.95 -1.1 L19.95 -1.1" fill="#268e26" fill-rule="evenodd" stroke="none"/>
    <path d="M11.65 -9.0 Q11.65 -9.0 11.65 -9.1 11.65 -9.05 11.65 -9.05 11.65 -9.0 11.65 -9.0 L11.65 -9.0" fill="#268e26" fill-rule="evenodd" stroke="none"/>
    <path d="M21.45 -20.55 Q21.45 -20.55 21.4 -20.55 21.4 -20.55 21.35 -20.55 21.35 -20.55 21.4 -20.55 21.45 -20.55 21.45 -20.55 L21.45 -20.55" fill="#268e26" fill-rule="evenodd" stroke="none"/>
  </g>
</svg>
