<?xml version="1.0" encoding="UTF-8" standalone="no"?>
<svg xmlns:xlink="http://www.w3.org/1999/xlink" height="39.05px" width="16.65px" xmlns="http://www.w3.org/2000/svg">
  <g transform="matrix(1.0, 0.0, 0.0, 1.0, 0.6, 19.55)">
    <path d="M8.55 17.25 Q8.3 17.25 8.1 17.25 7.9 17.25 7.65 17.25 7.45 17.25 7.2 17.2 7.0 17.2 6.75 17.2 6.55 17.15 6.3 17.15 6.1 17.1 5.9 17.1 5.65 17.05 5.45 17.0 5.2 17.0 5.0 16.95 4.9 16.95 4.8 16.9 4.7 16.9 4.6 16.85 4.5 16.85 4.4 16.8 4.3 16.8 4.25 16.75 4.15 16.75 4.05 16.7 3.95 16.65 3.85 16.65 3.75 16.6 3.65 16.55 3.55 16.55 3.5 16.5 3.35 16.45 3.2 16.35 3.05 16.25 2.95 16.2 2.8 16.1 2.7 16.0 2.6 15.9 2.5 15.75 2.4 15.65 2.3 15.55 2.2 15.4 2.15 15.25 2.05 15.15 2.0 15.0 1.95 14.85 1.9 14.7 1.85 14.55 1.8 14.45 1.8 14.3 1.75 14.15 1.75 14.05 1.7 13.9 1.7 13.75 1.7 13.65 1.65 13.5 1.65 13.4 1.65 13.25 1.65 13.1 1.65 13.0 1.65 12.85 1.65 12.7 1.7 12.55 1.7 12.05 1.7 12.0 1.7 4.45 1.7 -2.35 1.7 -2.75 1.7 -2.75 1.7 -2.8 1.7 -2.85 1.75 -2.9 1.75 -2.95 1.75 -3.0 1.8 -3.05 1.8 -3.1 1.85 -3.15 1.85 -3.2 1.9 -3.2 1.95 -3.25 2.0 -3.3 2.0 -3.3 2.05 -3.35 2.1 -3.4 2.15 -3.4 2.2 -3.45 2.25 -3.45 2.3 -3.5 2.35 -3.5 2.4 -3.5 2.5 -3.55 2.55 -3.55 2.6 -3.55 2.65 -3.6 2.7 -3.6 2.75 -3.6 2.8 -3.65 2.85 -3.65 2.9 -3.65 2.95 -3.65 3.05 -3.7 3.15 -3.7 3.15 -3.7 3.2 -3.75 3.2 -3.75 3.2 -3.8 3.2 -3.9 3.2 -3.95 3.2 -4.0 3.2 -4.05 3.25 -4.1 3.25 -4.15 3.25 -4.2 3.25 -4.25 3.25 -4.25 3.25 -4.3 3.25 -4.35 3.25 -4.4 3.25 -4.45 3.25 -4.5 3.25 -4.55 3.25 -4.6 3.25 -4.65 3.25 -4.7 3.25 -4.75 3.25 -4.8 3.25 -4.85 3.25 -4.9 3.3 -4.95 3.3 -5.0 3.35 -5.05 3.4 -5.1 3.4 -5.1 3.45 -5.15 3.5 -5.2 3.55 -5.2 3.6 -5.2 3.65 -5.25 3.7 -5.25 3.85 -5.3 3.85 -5.3 3.9 -5.35 3.9 -5.5 3.85 -6.05 3.85 -6.95 3.8 -8.5 3.65 -12.15 3.65 -13.3 3.6 -14.9 3.6 -14.95 3.6 -15.0 3.6 -15.05 3.6 -15.1 3.6 -15.15 3.6 -15.2 3.6 -15.25 3.6 -15.3 3.6 -15.35 3.6 -15.4 3.6 -15.5 3.65 -15.55 3.65 -15.6 3.65 -15.65 3.65 -15.7 3.7 -15.75 3.75 -15.85 3.8 -15.95 3.85 -16.05 3.9 -16.15 3.95 -16.25 4.0 -16.35 4.05 -16.45 4.15 -16.55 4.2 -16.65 4.3 -16.7 4.35 -16.8 4.45 -16.85 4.55 -16.95 4.65 -17.0 4.75 -17.1 4.85 -17.15 4.95 -17.2 5.0 -17.2 5.1 -17.25 5.2 -17.25 5.25 -17.3 5.35 -17.3 5.45 -17.3 5.5 -17.3 5.6 -17.3 5.7 -17.3 5.8 -17.3 5.85 -17.3 5.95 -17.3 6.05 -17.3 6.15 -17.25 6.2 -17.25 6.4 -17.2 6.6 -17.15 6.8 -17.05 7.0 -17.0 7.2 -16.9 7.4 -16.8 7.6 -16.75 7.75 -16.6 7.95 -16.5 8.1 -16.4 8.3 -16.3 8.45 -16.15 8.6 -16.0 8.75 -15.85 8.9 -15.7 9.05 -15.55 9.95 -14.6 10.55 -13.85 10.6 -13.8 10.65 -13.75 10.7 -13.65 10.75 -13.6 10.75 -13.55 10.8 -13.45 10.8 -13.4 10.85 -13.35 10.85 -13.25 10.9 -13.2 10.9 -13.15 10.9 -13.05 10.95 -13.0 10.95 -12.95 10.95 -12.85 10.95 -12.8 10.95 -12.4 10.95 -10.15 11.0 -8.45 11.05 -5.45 11.05 -5.4 11.05 -5.35 11.05 -5.35 11.05 -5.3 11.05 -5.3 11.1 -5.25 11.15 -5.25 11.2 -5.25 11.25 -5.25 11.25 -5.2 11.3 -5.2 11.35 -5.2 11.35 -5.15 11.4 -5.1 11.4 -5.1 11.45 -5.05 11.45 -5.0 11.45 -5.0 11.45 -4.95 11.5 -4.95 11.5 -4.9 11.5 -4.9 11.55 -4.85 11.55 -4.85 11.55 -4.8 11.55 -4.8 11.55 -4.75 11.6 -4.7 11.6 -4.7 11.6 -4.65 11.6 -4.65 11.6 -4.6 11.6 -4.6 11.6 -4.55 11.65 -4.05 11.65 -3.95 11.6 -3.85 11.6 -3.8 11.65 -3.8 11.65 -3.75 11.7 -3.75 11.8 -3.75 12.55 -3.55 12.65 -3.5 12.75 -3.45 12.85 -3.4 12.9 -3.4 13.0 -3.35 13.05 -3.3 13.1 -3.25 13.15 -3.2 13.2 -3.1 13.25 -3.05 13.25 -3.0 13.3 -2.9 13.3 -2.85 13.35 -2.75 13.35 -2.65 13.35 -2.6 13.35 -2.5 13.4 5.8 13.35 13.1 13.35 14.3 13.4 14.8 13.4 14.95 13.4 15.05 13.4 15.15 13.35 15.3 13.35 15.4 13.3 15.5 13.25 15.6 13.2 15.7 13.15 15.8 13.1 15.9 13.05 16.0 12.95 16.1 12.9 16.15 12.8 16.25 12.75 16.35 12.65 16.4 12.6 16.45 12.55 16.5 12.45 16.55 12.4 16.6 12.35 16.65 12.25 16.65 12.2 16.7 12.1 16.75 12.05 16.75 12.0 16.8 11.9 16.8 11.85 16.85 11.75 16.85 11.7 16.9 11.65 16.9 11.55 16.95 11.4 17.0 11.25 17.0 11.1 17.05 10.95 17.1 10.8 17.1 10.65 17.15 10.55 17.15 10.4 17.15 10.25 17.2 10.1 17.2 9.95 17.2 9.8 17.25 9.65 17.25 9.5 17.25 9.35 17.25 9.2 17.25 9.05 17.25 8.55 17.25 L8.55 17.25 M6.7 -15.9 L6.7 -15.9 Q6.65 -15.95 6.6 -15.95 6.5 -16.0 6.45 -16.0 6.4 -16.05 6.3 -16.05 6.25 -16.1 6.2 -16.1 6.15 -16.1 6.05 -16.15 6.0 -16.15 5.95 -16.15 5.85 -16.15 5.8 -16.15 5.7 -16.2 5.65 -16.2 5.6 -16.2 5.55 -16.2 5.5 -16.2 5.45 -16.15 5.4 -16.15 5.35 -16.15 5.3 -16.15 5.3 -16.1 5.25 -16.1 5.2 -16.05 5.15 -16.0 5.1 -15.95 5.05 -15.9 5.0 -15.85 4.95 -15.75 4.9 -15.7 4.85 -15.65 4.85 -15.55 4.8 -15.5 4.75 -15.45 4.75 -15.35 4.75 -15.3 4.7 -15.2 4.7 -15.15 4.7 -15.05 4.7 -15.0 4.7 -14.35 4.85 -10.85 4.85 -10.45 4.9 -9.4 4.9 -9.3 4.9 -9.3 4.9 -8.45 5.0 -5.25 5.0 -5.2 5.0 -5.15 5.05 -5.15 5.05 -5.1 5.05 -5.1 5.1 -5.1 5.1 -5.05 5.15 -5.05 5.75 -5.1 6.8 -5.1 8.0 -5.05 9.7 -5.05 9.9 -5.1 9.9 -5.1 9.9 -5.15 9.9 -5.35 9.85 -9.1 9.8 -12.3 9.8 -12.35 9.8 -12.4 9.8 -12.4 9.8 -12.5 9.85 -12.55 9.85 -12.55 9.85 -12.6 9.85 -12.65 9.85 -12.7 9.85 -12.75 9.85 -12.8 9.85 -12.85 9.85 -12.9 9.8 -12.9 9.8 -12.95 9.8 -13.0 9.7 -13.1 9.35 -13.55 9.35 -13.55 9.3 -13.6 8.4 -14.7 7.85 -15.2 7.8 -15.25 7.75 -15.3 7.7 -15.35 7.65 -15.4 7.6 -15.45 7.55 -15.45 7.45 -15.5 7.4 -15.55 7.35 -15.6 7.3 -15.6 7.25 -15.65 7.15 -15.7 7.1 -15.7 7.05 -15.75 6.95 -15.8 6.9 -15.8 6.85 -15.85 6.85 -15.85 6.8 -15.85 6.8 -15.9 6.75 -15.9 6.7 -15.9 L6.7 -15.9 M6.9 16.05 Q7.0 16.1 7.55 16.1 7.75 16.1 7.95 16.15 8.15 16.15 8.35 16.15 8.55 16.15 8.75 16.15 8.95 16.15 9.15 16.15 9.4 16.15 9.6 16.1 9.8 16.1 10.0 16.1 10.2 16.05 10.4 16.05 10.6 16.0 10.8 15.95 10.85 15.95 10.9 15.95 10.95 15.9 11.05 15.9 11.1 15.9 11.15 15.9 11.2 15.85 11.25 15.85 11.3 15.85 11.35 15.8 11.4 15.8 11.5 15.8 11.55 15.75 11.6 15.75 11.65 15.7 11.7 15.7 11.75 15.65 11.85 15.65 11.9 15.6 11.95 15.55 12.0 15.5 12.05 15.45 12.1 15.4 12.1 15.35 12.15 15.3 12.2 15.25 12.2 15.2 12.25 15.1 12.25 15.05 12.3 15.0 12.3 14.9 12.3 14.85 12.3 14.7 12.3 14.45 12.3 12.65 12.3 9.0 12.3 5.45 12.3 -1.6 12.3 -1.65 12.3 -1.65 12.3 -1.7 12.3 -1.75 12.3 -1.8 12.25 -1.85 12.25 -1.9 12.2 -1.9 12.15 -1.9 12.1 -1.9 12.05 -1.9 12.0 -1.85 11.95 -1.85 11.85 -1.85 11.8 -1.8 11.75 -1.8 11.7 -1.8 11.65 -1.75 11.6 -1.75 11.55 -1.75 11.45 -1.75 11.4 -1.75 11.35 -1.75 11.3 -1.7 11.2 -1.7 11.2 -1.7 11.0 -1.7 10.8 -1.65 10.65 -1.65 10.45 -1.6 10.25 -1.6 10.05 -1.6 9.9 -1.6 9.7 -1.55 9.5 -1.55 9.3 -1.55 9.1 -1.55 8.95 -1.55 8.75 -1.55 8.55 -1.5 8.35 -1.5 8.2 -1.5 6.05 -1.5 4.9 -1.6 4.15 -1.65 3.8 -1.7 3.5 -1.75 2.85 -1.85 2.85 -1.8 2.85 -1.6 2.85 3.05 2.85 11.55 2.85 11.65 2.85 11.9 2.85 12.15 2.85 12.25 2.85 12.35 2.85 12.4 2.8 12.5 2.8 12.55 2.8 12.65 2.8 12.75 2.8 12.8 2.8 12.9 2.8 12.95 2.8 13.05 2.8 13.1 2.8 13.2 2.8 13.3 2.8 13.35 2.8 13.45 2.8 13.5 2.8 13.55 2.8 13.6 2.8 13.7 2.8 13.75 2.85 13.8 2.85 13.85 2.85 13.9 2.85 13.95 2.85 14.05 2.9 14.1 2.9 14.15 2.9 14.2 2.9 14.25 2.95 14.3 2.95 14.35 3.0 14.45 3.05 14.55 3.05 14.6 3.1 14.7 3.15 14.8 3.2 14.85 3.25 14.9 3.3 15.0 3.35 15.05 3.4 15.1 3.45 15.2 3.55 15.25 3.6 15.3 3.65 15.35 3.75 15.4 3.85 15.45 3.9 15.45 3.95 15.45 4.0 15.5 4.0 15.5 4.05 15.5 4.1 15.55 4.15 15.55 4.15 15.55 4.2 15.6 4.25 15.6 4.3 15.6 4.4 15.65 4.5 15.65 4.6 15.7 4.7 15.75 4.8 15.75 4.9 15.8 5.0 15.8 5.1 15.85 5.2 15.85 5.3 15.85 5.4 15.9 5.55 15.9 5.65 15.9 5.75 15.95 5.85 15.95 5.95 15.95 5.95 15.95 6.05 15.95 6.15 16.0 6.2 16.0 6.25 16.0 6.3 16.0 6.35 16.0 6.4 16.05 6.5 16.05 6.55 16.05 6.6 16.05 6.65 16.05 6.7 16.05 6.75 16.05 6.85 16.05 6.9 16.05 L6.9 16.05 M7.45 -4.4 Q7.45 -4.4 7.45 -4.4 6.15 -4.4 4.5 -4.4 4.45 -4.4 4.4 -4.4 4.35 -4.4 4.3 -4.4 4.25 -4.4 4.25 -4.4 4.2 -4.4 4.15 -4.4 4.15 -4.4 4.1 -4.05 4.1 -4.0 4.1 -3.5 4.05 -3.2 4.05 -2.95 4.05 -2.75 4.1 -2.7 4.1 -2.6 4.2 -2.6 4.2 -2.55 4.4 -2.5 4.9 -2.45 5.9 -2.4 7.85 -2.35 9.0 -2.45 9.1 -2.45 9.2 -2.45 9.3 -2.5 9.4 -2.5 9.5 -2.5 9.6 -2.55 9.7 -2.55 9.8 -2.55 9.9 -2.6 10.0 -2.6 10.1 -2.65 10.2 -2.65 10.3 -2.7 10.4 -2.7 10.5 -2.75 10.6 -2.8 10.65 -2.8 10.65 -2.8 10.7 -2.85 10.75 -2.85 10.75 -2.9 10.75 -2.95 10.75 -3.2 10.75 -3.6 10.75 -4.05 10.75 -4.2 10.75 -4.3 10.75 -4.35 10.7 -4.4 10.65 -4.4 10.65 -4.4 10.5 -4.4 9.95 -4.4 9.0 -4.4 7.85 -4.4 7.45 -4.4 L7.45 -4.4" fill="#030303" fill-rule="evenodd" stroke="none"/>
    <path d="M3.8 -1.7 Q3.65 -1.7 3.6 -1.7 3.5 -1.65 3.5 -1.6 3.5 -1.55 3.5 -1.35 3.5 -1.3 3.5 -1.2 3.5 -1.15 3.5 -1.05 3.5 -1.0 3.45 -0.9 3.45 -0.8 3.45 -0.75 3.45 -0.65 3.45 -0.6 3.45 -0.5 3.45 -0.4 3.45 -0.35 3.45 -0.25 3.45 -0.2 3.45 -0.1 3.5 0.15 3.5 0.6 3.5 1.15 3.5 1.35 3.5 1.5 3.55 2.15 3.55 2.65 3.6 3.0 3.7 4.4 3.7 4.55 3.75 4.7 3.75 5.15 3.8 5.6 3.9 6.75 3.95 7.05 4.0 7.6 4.1 8.15 4.15 8.4 4.2 8.7 4.2 9.0 4.25 9.25 4.3 9.55 4.35 9.85 4.4 10.15 4.45 10.4 4.5 10.7 4.55 11.0 4.6 11.25 4.65 11.55 4.75 11.8 4.8 12.1 4.85 12.4 4.95 12.65 5.0 12.95 5.05 13.1 5.1 13.25 5.15 13.4 5.2 13.5 5.25 13.65 5.3 13.8 5.35 13.95 5.4 14.1 5.45 14.2 5.5 14.35 5.55 14.5 5.65 14.65 5.7 14.75 5.8 14.9 5.85 15.0 5.95 15.15 6.0 15.2 6.05 15.25 6.05 15.35 6.1 15.4 6.15 15.45 6.2 15.5 6.25 15.55 6.3 15.6 6.35 15.65 6.4 15.7 6.45 15.75 6.5 15.8 6.6 15.8 6.65 15.85 6.7 15.9 6.75 15.95 6.85 15.95 6.9 16.05 6.7 16.05 5.95 15.95 5.85 15.95 5.75 15.95 5.65 15.9 5.55 15.9 5.4 15.9 5.3 15.85 5.2 15.85 5.1 15.8 5.0 15.8 4.9 15.8 4.8 15.75 4.7 15.75 4.6 15.7 4.5 15.65 4.4 15.65 4.3 15.6 4.25 15.6 4.2 15.6 4.2 15.55 4.15 15.55 4.1 15.55 4.05 15.55 4.05 15.5 4.0 15.5 3.95 15.5 3.9 15.45 3.8 15.4 3.75 15.35 3.65 15.35 3.6 15.3 3.5 15.25 3.45 15.15 3.4 15.1 3.35 15.05 3.25 15.0 3.2 14.9 3.15 14.85 3.15 14.75 3.1 14.7 3.05 14.6 3.0 14.5 3.0 14.45 3.0 14.4 2.95 14.35 2.95 14.25 2.9 14.2 2.9 14.15 2.9 14.1 2.85 14.05 2.85 14.0 2.85 13.9 2.85 13.85 2.85 13.8 2.8 13.75 2.8 13.7 2.8 13.65 2.8 13.55 2.8 13.5 2.8 13.4 2.8 13.35 2.8 13.25 2.8 13.2 2.8 13.1 2.8 13.05 2.8 12.95 2.8 12.9 2.8 12.8 2.8 12.75 2.8 12.65 2.8 12.6 2.8 12.5 2.8 12.45 2.8 12.35 2.85 12.25 2.85 12.15 2.85 11.9 2.85 11.65 2.85 11.55 2.85 7.05 2.85 -1.6 2.85 -1.7 2.85 -1.75 2.85 -1.8 2.85 -1.85 3.15 -1.8 3.8 -1.7 L3.8 -1.7" fill="#000000" fill-opacity="0.21960784" fill-rule="evenodd" stroke="none"/>
    <path d="M9.3 -13.6 Q9.3 -13.55 9.3 -13.55 9.3 -13.5 9.3 -13.45 9.3 -13.45 9.3 -13.4 9.3 -13.35 9.3 -13.35 9.3 -13.3 9.3 -13.25 9.3 -13.25 9.25 -13.2 9.25 -13.2 9.25 -13.15 9.2 -13.15 9.2 -13.1 9.2 -13.1 9.15 -13.1 9.15 -13.05 9.1 -13.05 9.1 -13.05 9.05 -13.0 9.0 -12.95 8.95 -12.95 8.85 -12.9 8.8 -12.9 8.75 -12.85 8.7 -12.85 8.6 -12.8 8.55 -12.8 8.5 -12.8 8.4 -12.8 8.35 -12.8 8.25 -12.8 8.2 -12.8 8.1 -12.8 8.05 -12.8 8.0 -12.8 7.95 -12.8 7.9 -12.8 7.85 -12.8 7.8 -12.8 7.75 -12.85 7.7 -12.85 7.65 -12.85 7.6 -12.85 7.55 -12.85 7.5 -12.85 7.45 -12.9 7.4 -12.9 7.4 -12.9 7.35 -12.9 7.3 -12.95 7.25 -12.95 7.15 -12.95 7.15 -13.0 7.1 -13.0 7.1 -13.1 7.45 -13.05 7.45 -13.05 7.4 -13.1 7.35 -13.1 7.35 -13.15 7.25 -13.15 7.15 -13.15 7.1 -13.2 7.0 -13.2 6.9 -13.25 6.85 -13.25 6.75 -13.3 6.7 -13.35 6.6 -13.35 6.55 -13.4 6.45 -13.45 6.4 -13.5 6.3 -13.55 6.25 -13.6 6.2 -13.65 6.1 -13.7 6.05 -13.8 6.0 -13.85 5.95 -13.9 5.9 -13.95 5.85 -14.0 5.8 -14.1 5.75 -14.15 5.7 -14.2 5.65 -14.25 5.6 -14.35 5.55 -14.4 5.5 -14.45 5.45 -14.55 5.45 -14.6 5.4 -14.7 5.35 -14.75 5.35 -14.8 5.25 -15.0 5.1 -15.3 5.1 -15.35 5.1 -15.4 5.1 -15.45 5.1 -15.5 5.1 -15.5 5.1 -15.55 5.1 -15.6 5.1 -15.65 5.15 -15.7 5.15 -15.75 5.15 -15.8 5.2 -15.8 5.2 -15.85 5.25 -15.9 5.25 -15.9 5.3 -15.95 5.3 -15.95 5.35 -16.0 5.35 -16.0 5.4 -16.05 5.45 -16.05 5.45 -16.05 5.5 -16.05 5.55 -16.05 5.6 -16.1 5.65 -16.1 5.7 -16.1 5.75 -16.1 5.8 -16.1 5.85 -16.1 5.9 -16.05 5.95 -16.05 5.95 -16.05 6.0 -16.05 6.05 -16.05 6.1 -16.0 6.15 -16.0 6.2 -16.0 6.25 -16.0 6.3 -15.95 6.35 -15.95 6.4 -15.95 6.45 -15.95 6.45 -15.9 6.5 -15.9 6.55 -15.9 6.6 -15.9 6.6 -15.9 6.65 -15.9 6.7 -15.9 6.7 -15.9 6.7 -15.9 6.7 -15.9 6.7 -15.9 6.7 -15.8 6.8 -15.8 6.55 -15.85 6.9 -15.8 6.95 -15.8 7.05 -15.75 7.1 -15.7 7.15 -15.7 7.25 -15.65 7.3 -15.6 7.35 -15.6 7.4 -15.55 7.45 -15.5 7.55 -15.45 7.6 -15.4 7.65 -15.4 7.7 -15.35 7.75 -15.3 7.8 -15.25 7.85 -15.2 8.4 -14.7 9.3 -13.6 L9.3 -13.6" fill="#000000" fill-opacity="0.21960784" fill-rule="evenodd" stroke="none"/>
    <path d="M4.9 -9.4 Q4.9 -9.4 4.9 -9.35 4.95 -9.35 4.95 -9.35 4.95 -9.25 5.05 -9.0 5.1 -8.75 5.1 -8.65 5.15 -8.4 5.2 -7.85 5.25 -7.3 5.3 -7.05 5.4 -6.4 5.65 -5.35 5.7 -5.2 5.7 -5.2 5.75 -5.15 5.8 -5.1 5.8 -5.1 5.95 -5.1 7.3 -5.1 9.9 -5.1 9.85 -5.05 9.8 -5.05 9.55 -5.05 9.7 -5.05 8.5 -5.05 6.8 -5.1 6.4 -5.1 5.15 -5.05 5.1 -5.05 5.05 -5.1 5.05 -5.1 5.0 -5.15 5.0 -5.15 5.0 -5.25 5.0 -6.2 4.9 -9.3 4.9 -9.3 4.9 -9.4 L4.9 -9.4" fill="#000000" fill-opacity="0.21960784" fill-rule="evenodd" stroke="none"/>
    <path d="M5.1 -15.3 Q5.15 -15.2 5.2 -15.05 5.3 -14.9 5.35 -14.8 5.4 -14.75 5.4 -14.65 5.45 -14.6 5.5 -14.55 5.5 -14.45 5.55 -14.4 5.6 -14.35 5.65 -14.25 5.7 -14.2 5.75 -14.15 5.8 -14.05 5.85 -14.0 5.9 -13.95 5.95 -13.9 6.0 -13.85 6.05 -13.8 6.1 -13.75 6.2 -13.7 6.25 -13.6 6.3 -13.55 6.4 -13.5 6.45 -13.45 6.55 -13.4 6.6 -13.4 6.7 -13.35 6.75 -13.3 6.85 -13.25 6.9 -13.25 7.0 -13.2 7.05 -13.2 7.15 -13.15 7.25 -13.15 7.45 -13.1 7.45 -13.05 7.4 -13.05 7.35 -13.05 7.3 -13.05 7.25 -13.05 7.15 -13.05 7.2 -13.05 7.15 -13.1 7.1 -13.1 7.05 -13.1 7.05 -13.1 7.0 -13.1 7.0 -13.1 7.0 -13.1 6.95 -13.1 6.9 -13.1 6.85 -13.15 6.8 -13.15 6.75 -13.2 6.7 -13.2 6.65 -13.25 6.6 -13.25 6.55 -13.3 6.5 -13.3 6.45 -13.35 6.4 -13.4 6.35 -13.4 6.3 -13.45 6.25 -13.5 6.25 -13.5 6.2 -13.55 6.1 -13.6 6.0 -13.7 5.95 -13.8 5.85 -13.85 5.75 -13.95 5.7 -14.05 5.6 -14.1 5.55 -14.2 5.5 -14.3 5.4 -14.4 5.35 -14.5 5.3 -14.6 5.25 -14.7 5.2 -14.8 5.15 -14.9 5.1 -15.0 5.1 -15.05 5.05 -15.05 5.05 -15.1 5.05 -15.1 5.0 -15.15 5.0 -15.2 5.0 -15.25 5.05 -15.25 5.05 -15.3 5.1 -15.3 L5.1 -15.3" fill="#030303" fill-rule="evenodd" stroke="none"/>
    <path d="M6.95 -13.1 Q6.95 -13.1 6.95 -13.1 7.0 -13.1 7.0 -13.1 6.95 -13.1 6.95 -13.1 6.95 -13.05 6.95 -13.1 6.95 -13.1 6.95 -13.1 L6.95 -13.1" fill="#d3d3d3" fill-rule="evenodd" stroke="none"/>
  </g>
</svg>
