<?xml version="1.0" encoding="UTF-8" standalone="no"?>
<svg xmlns:xlink="http://www.w3.org/1999/xlink" height="138.15px" width="108.85px" xmlns="http://www.w3.org/2000/svg">
  <g transform="matrix(1.0, 0.0, 0.0, 1.0, 54.45, 69.1)">
    <path d="M-182.5 122.7 Q-182.4 122.7 -182.3 122.7 -182.2 122.75 -182.15 122.8 -182.1 122.8 -182.0 122.85 -181.95 122.95 -181.9 123.0 -181.85 123.05 -181.8 123.15 -181.95 122.9 -181.75 123.3 -181.7 123.35 -181.65 123.45 -181.6 123.5 -181.55 123.55 -181.85 123.55 -182.5 123.55 -182.5 123.3 -182.5 122.7 L-182.5 122.7" fill="#050505" fill-rule="evenodd" stroke="none"/>
    <path d="M31.1 -66.15 Q31.85 -65.1 33.05 -63.15 34.35 -61.0 34.95 -60.15 36.0 -58.65 37.5 -55.95 39.25 -52.85 39.95 -51.75 40.4 -51.0 40.9 -50.35 41.4 -49.65 41.95 -49.0 42.45 -48.35 43.05 -47.75 43.6 -47.15 44.2 -46.6 44.85 -46.05 45.5 -45.55 46.15 -45.05 46.8 -44.6 47.5 -44.15 48.25 -43.75 49.0 -43.3 49.75 -42.95 49.9 -42.85 50.05 -42.8 50.2 -42.7 50.3 -42.6 50.45 -42.5 50.55 -42.35 50.6 -42.25 50.7 -42.1 50.75 -41.95 50.75 -41.8 50.8 -41.7 50.8 -41.5 50.8 -41.35 50.75 -41.2 50.75 -41.05 50.7 -40.85 50.65 -40.75 50.65 -40.65 50.6 -40.55 50.55 -40.45 50.55 -40.35 50.5 -40.25 50.5 -40.15 50.45 -40.05 50.45 -39.95 50.45 -39.85 50.4 -39.75 50.4 -39.65 50.4 -39.55 50.35 -39.45 50.35 -39.35 50.35 -39.2 50.05 -35.55 49.8 -33.65 49.7 -32.8 49.65 -31.9 49.6 -31.05 49.65 -30.15 49.65 -29.3 49.7 -28.45 49.8 -27.6 49.9 -26.75 50.0 -25.9 50.2 -25.05 50.35 -24.2 50.55 -23.35 50.75 -22.5 51.0 -21.65 51.25 -20.85 51.55 -20.0 52.15 -18.15 54.25 -11.9 54.3 -11.75 54.3 -11.65 54.35 -11.5 54.35 -11.4 54.35 -11.25 54.3 -11.15 54.3 -11.05 54.25 -10.95 54.2 -10.85 54.15 -10.75 54.05 -10.65 54.0 -10.6 53.9 -10.5 53.8 -10.45 53.7 -10.35 53.55 -10.3 53.15 -10.1 52.05 -9.9 51.9 -9.9 51.75 -9.85 51.65 -9.85 51.5 -9.8 51.1 -9.75 51.2 -9.8 51.05 -9.75 50.9 -9.75 50.75 -9.7 50.6 -9.7 50.45 -9.65 50.35 -9.65 50.2 -9.6 50.05 -9.55 49.9 -9.5 49.8 -9.45 49.2 -9.2 48.65 -9.0 48.1 -8.75 47.55 -8.5 47.0 -8.25 46.45 -8.0 45.9 -7.7 45.35 -7.45 44.8 -7.15 44.3 -6.9 43.75 -6.6 43.25 -6.3 42.7 -5.95 42.2 -5.65 41.65 -5.3 41.15 -5.0 40.5 -4.55 39.9 -4.1 39.25 -3.65 38.65 -3.15 38.05 -2.7 37.45 -2.2 36.85 -1.7 36.25 -1.2 35.7 -0.7 35.1 -0.15 34.55 0.35 33.95 0.9 33.4 1.45 32.85 2.0 32.3 2.5 31.7 3.1 31.6 3.25 31.45 3.35 31.35 3.5 31.3 3.6 31.2 3.75 31.1 3.85 31.05 4.0 31.0 4.15 30.95 4.25 30.9 4.4 30.85 4.55 30.85 4.7 30.8 4.85 30.8 5.05 30.75 5.2 30.75 5.35 30.75 9.05 30.45 10.6 30.25 11.75 29.95 12.8 29.7 13.9 29.3 14.9 28.95 15.95 28.45 16.9 28.0 17.9 27.45 18.8 26.9 19.7 26.25 20.6 25.6 21.45 24.85 22.25 24.15 23.1 23.3 23.85 22.5 24.6 21.6 25.3 20.7 26.0 19.8 26.6 18.85 27.2 17.9 27.7 16.95 28.25 15.95 28.65 14.95 29.1 13.95 29.4 12.95 29.75 11.9 29.95 10.85 30.2 9.8 30.3 8.7 30.45 7.6 30.45 6.5 30.5 5.4 30.4 3.55 30.25 1.75 29.85 -0.05 29.45 -1.75 28.8 -3.45 28.15 -5.0 27.25 -6.55 26.35 -7.95 25.25 -9.4 24.1 -10.6 22.8 -11.85 21.5 -12.85 20.0 -13.9 18.45 -14.7 16.8 -15.5 15.1 -16.05 13.3 -16.2 12.85 -16.3 12.45 -16.4 11.95 -16.5 11.55 -16.6 11.1 -16.7 10.65 -16.8 10.2 -16.85 9.75 -16.9 9.3 -16.95 8.85 -17.0 8.4 -17.0 7.95 -17.0 7.5 -16.95 7.05 -16.9 6.6 -16.85 6.15 -16.85 6.1 -16.85 6.0 -16.85 5.95 -16.85 5.9 -16.85 5.85 -16.85 5.8 -16.9 5.75 -16.9 5.7 -16.95 5.7 -16.95 5.65 -17.0 5.6 -17.05 5.55 -17.05 5.55 -17.1 5.5 -17.15 5.5 -17.2 5.45 -17.75 5.0 -18.25 4.55 -18.8 4.1 -19.3 3.7 -19.85 3.25 -20.4 2.85 -20.95 2.4 -21.5 2.0 -22.05 1.6 -22.6 1.2 -23.15 0.8 -23.7 0.4 -24.3 0.05 -24.85 -0.35 -25.45 -0.7 -26.0 -1.05 -27.2 -1.8 -28.2 -2.4 -29.4 -3.1 -30.45 -3.7 -31.6 -4.3 -32.7 -4.85 -33.9 -5.45 -35.05 -5.95 -36.25 -6.5 -37.4 -6.9 -38.65 -7.35 -39.85 -7.7 -41.1 -8.05 -42.35 -8.3 -43.65 -8.55 -44.9 -8.7 -44.95 -8.7 -45.0 -8.7 -45.05 -8.75 -45.1 -8.75 -45.15 -8.75 -45.2 -8.75 -45.25 -8.8 -45.35 -8.8 -45.4 -8.8 -45.45 -8.85 -45.5 -8.85 -45.55 -8.85 -45.6 -8.9 -45.65 -8.9 -45.65 -8.95 -45.7 -8.95 -45.85 -9.0 -46.0 -9.1 -46.1 -9.15 -46.2 -9.25 -46.35 -9.3 -46.4 -9.4 -46.5 -9.5 -46.55 -9.6 -46.65 -9.7 -46.65 -9.8 -46.7 -9.95 -46.7 -10.05 -46.7 -10.2 -46.65 -10.35 -46.6 -10.5 -46.55 -10.7 -46.1 -11.65 -45.25 -13.8 -44.45 -15.85 -44.0 -16.9 -43.6 -17.8 -43.25 -18.65 -42.85 -19.55 -42.55 -20.4 -42.2 -21.35 -41.95 -22.2 -41.65 -23.1 -41.45 -24.0 -41.2 -24.9 -41.1 -25.8 -40.95 -26.75 -40.85 -27.7 -40.8 -28.65 -40.85 -29.55 -40.85 -30.55 -41.0 -31.5 -41.05 -31.95 -41.1 -32.5 -41.15 -32.95 -41.2 -33.55 -41.3 -35.4 -41.25 -34.55 -41.3 -35.15 -41.3 -35.55 -41.35 -36.1 -41.45 -36.6 -41.5 -37.1 -41.6 -37.6 -41.7 -38.1 -41.85 -38.6 -42.0 -39.1 -42.2 -39.55 -42.3 -39.75 -42.35 -39.95 -42.4 -40.1 -42.4 -40.3 -42.4 -40.45 -42.4 -40.6 -42.35 -40.75 -42.3 -40.85 -42.25 -41.0 -42.15 -41.1 -42.05 -41.2 -41.9 -41.3 -41.8 -41.4 -41.6 -41.5 -41.45 -41.6 -41.25 -41.65 -40.3 -42.0 -39.45 -42.4 -38.55 -42.8 -37.7 -43.2 -36.8 -43.65 -36.0 -44.15 -35.2 -44.65 -34.4 -45.2 -33.6 -45.75 -32.9 -46.35 -32.15 -46.95 -31.45 -47.65 -30.75 -48.3 -30.05 -49.0 -29.4 -49.7 -28.8 -50.45 -28.25 -51.15 -27.7 -51.8 -27.15 -52.5 -26.65 -53.2 -26.1 -53.9 -25.6 -54.6 -25.05 -55.3 -24.55 -56.05 -24.05 -56.75 -23.55 -57.45 -23.05 -58.2 -22.55 -58.9 -22.1 -59.65 -21.6 -60.35 -21.15 -61.1 -20.65 -61.85 -20.55 -61.95 -18.15 -66.0 -18.2 -65.85 -18.2 -65.75 -18.2 -65.6 -18.2 -65.5 -18.15 -65.35 -18.15 -65.25 -18.1 -65.15 -18.05 -65.0 -18.0 -64.9 -17.95 -64.8 -17.85 -64.6 -17.85 -64.55 -17.8 -64.45 -17.8 -64.35 -17.75 -64.25 -17.7 -64.15 -17.65 -63.9 -17.6 -63.65 -17.55 -63.4 -17.55 -63.1 -17.5 -62.85 -17.5 -62.6 -17.5 -62.35 -17.5 -62.05 -17.45 -61.8 -17.45 -61.55 -17.5 -61.3 -17.5 -61.0 -17.5 -60.75 -17.5 -60.5 -17.55 -60.25 -17.55 -59.95 -17.9 -56.15 -19.0 -49.75 -20.0 -44.05 -23.45 -26.8 -23.5 -26.6 -23.5 -26.45 -23.55 -26.25 -23.55 -26.1 -23.6 -25.9 -23.6 -25.75 -23.6 -25.6 -23.6 -25.4 -23.55 -25.25 -23.55 -25.1 -23.5 -24.9 -23.45 -24.75 -23.4 -24.6 -23.35 -24.4 -23.25 -24.25 -23.15 -24.1 -21.2 -20.8 -16.75 -13.2 -16.2 -12.3 -12.6 -6.05 -11.7 -7.3 -10.7 -8.4 -9.7 -9.5 -8.65 -10.45 -7.6 -11.4 -6.45 -12.2 -5.3 -13.05 -4.1 -13.7 -2.85 -14.35 -1.55 -14.8 -0.3 -15.3 1.05 -15.65 2.45 -16.0 3.85 -16.15 5.3 -16.3 6.75 -16.3 8.25 -16.3 9.65 -16.15 11.1 -16.0 12.5 -15.65 13.85 -15.35 15.15 -14.85 16.45 -14.4 17.7 -13.75 18.9 -13.15 20.05 -12.35 21.25 -11.55 22.3 -10.6 23.4 -9.7 24.4 -8.6 25.4 -7.5 26.3 -6.3 31.0 -16.3 31.4 -17.15 33.5 -22.05 35.3 -25.6 35.35 -25.7 35.4 -25.8 35.45 -25.9 35.5 -25.95 35.5 -26.05 35.55 -26.15 35.55 -26.25 35.6 -26.35 35.6 -26.45 35.6 -26.55 35.65 -26.65 35.65 -26.75 35.65 -26.85 35.6 -27.0 35.6 -27.1 35.6 -27.2 35.35 -28.6 35.1 -30.05 34.85 -31.45 34.6 -32.9 34.35 -34.3 34.15 -35.75 33.9 -37.15 33.7 -38.6 33.45 -40.0 33.25 -41.45 33.0 -42.85 32.8 -44.3 32.6 -45.7 32.4 -47.15 32.2 -48.6 32.0 -50.0 31.9 -50.8 31.7 -52.1 31.45 -53.7 31.4 -54.2 31.2 -55.35 31.1 -56.3 30.95 -57.4 30.85 -58.4 30.75 -59.5 30.65 -60.5 30.6 -61.6 30.6 -62.6 30.55 -63.7 30.6 -64.75 30.65 -65.85 30.75 -66.9 30.75 -66.85 30.8 -66.8 30.8 -66.75 30.85 -66.7 30.85 -66.65 30.85 -66.6 30.9 -66.55 30.9 -66.5 30.95 -66.45 30.95 -66.4 30.95 -66.35 31.0 -66.3 31.0 -66.25 31.05 -66.2 31.05 -66.15 31.1 -66.15 L31.1 -66.15 M-14.25 4.55 Q-14.3 5.7 -14.3 6.8 -14.3 7.95 -14.2 9.0 -14.05 10.1 -13.85 11.15 -13.65 12.2 -13.3 13.25 -13.0 14.25 -12.55 15.25 -12.15 16.25 -11.6 17.2 -11.05 18.15 -10.35 19.05 -9.7 19.95 -8.9 20.85 -8.1 21.7 -7.3 22.4 -6.45 23.15 -5.6 23.75 -4.75 24.4 -3.8 24.95 -2.9 25.45 -1.95 25.9 -0.95 26.3 0.05 26.65 1.05 26.95 2.1 27.15 3.15 27.4 4.25 27.5 5.35 27.6 6.5 27.6 8.65 27.6 10.7 27.2 12.75 26.8 14.65 26.0 16.55 25.25 18.25 24.1 19.9 23.0 21.35 21.6 22.8 20.2 23.9 18.55 25.05 16.9 25.85 15.05 26.65 13.2 27.05 11.2 27.5 9.15 27.5 7.05 27.5 4.95 27.05 2.9 26.65 0.95 25.8 -0.9 25.0 -2.75 23.9 -4.4 22.75 -6.0 21.3 -7.4 19.9 -8.8 18.2 -9.9 16.5 -11.0 14.65 -11.8 12.75 -12.55 10.7 -12.95 8.65 -13.4 6.5 -13.4 4.45 -13.45 2.4 -13.05 0.45 -12.65 -1.4 -11.85 -3.2 -11.1 -4.85 -10.0 -6.45 -8.95 -7.9 -7.65 -9.3 -6.35 -10.4 -4.85 -11.55 -3.4 -12.4 -1.8 -13.2 -0.25 -13.7 1.35 -14.15 3.0 -14.25 4.55 L-14.25 4.55 M-16.2 2.85 Q-16.1 2.5 -16.05 2.2 -15.95 1.85 -15.9 1.5 -15.8 1.15 -15.7 0.85 -15.6 0.5 -15.5 0.2 -15.4 -0.15 -15.3 -0.45 -15.15 -0.8 -15.05 -1.1 -14.9 -1.4 -14.75 -1.75 -14.65 -2.05 -14.5 -2.35 -14.45 -2.4 -14.45 -2.45 -14.45 -2.5 -14.4 -2.55 -14.4 -2.6 -14.4 -2.65 -14.4 -2.7 -14.4 -2.75 -14.4 -2.8 -14.4 -2.85 -14.45 -2.9 -14.45 -2.95 -14.45 -3.0 -14.5 -3.05 -14.5 -3.1 -14.55 -3.15 -17.0 -7.35 -24.2 -19.85 -24.2 -19.85 -24.25 -20.0 -24.3 -20.05 -24.35 -20.1 -24.35 -20.15 -24.4 -20.2 -24.45 -20.25 -24.5 -20.3 -24.55 -20.35 -24.6 -20.35 -24.65 -20.35 -24.75 -20.35 -24.8 -20.35 -24.9 -20.35 -25.0 -20.3 -25.1 -20.25 -26.35 -19.55 -33.25 -15.6 -38.3 -12.75 -41.7 -11.05 -39.9 -10.55 -38.1 -9.95 -36.35 -9.35 -34.65 -8.65 -33.0 -7.95 -31.35 -7.15 -29.75 -6.35 -28.15 -5.45 -26.6 -4.6 -25.05 -3.6 -23.5 -2.65 -22.0 -1.6 -20.55 -0.55 -19.1 0.55 -17.65 1.65 -16.2 2.85 L-16.2 2.85 M49.25 -12.15 Q49.25 -12.2 49.25 -12.25 49.25 -12.3 49.25 -12.3 49.25 -12.35 49.2 -12.4 49.2 -12.4 49.2 -12.45 49.15 -12.45 49.15 -12.45 49.1 -12.5 49.05 -12.5 49.05 -12.5 49.0 -12.55 49.0 -12.55 48.95 -12.55 46.55 -14.05 42.95 -16.65 38.05 -20.2 37.0 -20.9 36.85 -21.0 36.75 -21.05 36.65 -21.1 36.55 -21.15 36.5 -21.2 36.4 -21.2 36.3 -21.2 36.25 -21.2 36.2 -21.2 36.1 -21.15 36.05 -21.1 36.0 -21.0 35.95 -20.95 35.9 -20.85 35.85 -20.75 35.75 -20.6 34.8 -18.45 28.75 -5.1 28.7 -5.0 28.65 -4.85 28.55 -4.75 28.5 -4.65 28.45 -4.55 28.35 -4.45 28.25 -4.35 28.2 -4.25 28.1 -4.15 28.0 -4.1 27.9 -4.0 27.85 -3.9 27.75 -3.85 27.65 -3.75 27.55 -3.7 27.4 -3.65 27.35 -3.6 27.3 -3.55 27.25 -3.55 27.2 -3.5 27.15 -3.45 27.15 -3.45 27.1 -3.4 27.1 -3.35 27.1 -3.3 27.1 -3.25 27.05 -3.25 27.1 -3.2 27.1 -3.15 27.1 -3.05 27.15 -3.0 27.2 -2.95 27.35 -2.65 27.45 -2.4 27.6 -2.1 27.75 -1.8 27.85 -1.5 27.95 -1.2 28.1 -0.95 28.2 -0.65 28.3 -0.35 28.4 -0.05 28.5 0.25 28.6 0.55 28.7 0.85 28.8 1.2 28.9 1.5 28.95 1.8 30.1 0.6 31.2 -0.4 32.35 -1.55 33.45 -2.55 34.65 -3.6 35.8 -4.55 37.05 -5.55 38.25 -6.45 39.55 -7.35 40.8 -8.15 42.15 -9.0 43.5 -9.7 44.85 -10.45 46.3 -11.05 47.75 -11.7 49.25 -12.15 L49.25 -12.15 M-39.3 -39.55 Q-36.65 -37.35 -32.9 -33.65 -27.25 -28.05 -26.65 -27.45 -24.75 -37.05 -21.05 -55.95 -21.15 -56.05 -21.3 -56.15 -22.25 -54.75 -23.1 -53.55 -24.05 -52.2 -24.95 -51.05 -25.9 -49.8 -26.9 -48.7 -27.95 -47.5 -29.0 -46.45 -30.1 -45.35 -31.25 -44.35 -32.45 -43.35 -33.7 -42.5 -35.0 -41.65 -36.4 -40.9 -37.8 -40.15 -39.3 -39.55 L-39.3 -39.55 M-35.45 -16.75 Q-31.25 -19.25 -26.45 -21.9 -26.35 -21.95 -26.25 -22.0 -26.15 -22.05 -26.1 -22.1 -26.05 -22.15 -26.0 -22.2 -25.95 -22.3 -25.9 -22.35 -25.9 -22.4 -25.9 -22.45 -25.9 -22.55 -25.95 -22.65 -25.95 -22.7 -26.0 -22.8 -26.05 -22.9 -26.1 -23.05 -26.3 -23.55 -26.6 -24.0 -26.9 -24.45 -27.2 -24.9 -27.5 -25.3 -27.9 -25.7 -28.2 -26.1 -28.6 -26.5 -28.95 -26.85 -29.35 -27.25 -29.65 -27.5 -30.15 -27.95 -30.7 -28.45 -30.9 -28.7 -31.35 -29.1 -31.7 -29.45 -36.6 -34.45 -38.7 -36.2 -38.65 -35.6 -38.55 -34.65 -38.45 -33.5 -38.4 -33.15 -38.3 -32.3 -38.25 -31.65 -38.2 -30.8 -38.2 -30.15 -38.15 -29.35 -38.15 -28.65 -38.15 -27.85 -38.2 -27.15 -38.25 -26.4 -38.35 -25.7 -38.45 -24.9 -38.65 -24.2 -38.8 -23.5 -39.0 -22.75 -39.2 -22.05 -39.45 -21.35 -39.7 -20.7 -39.95 -19.95 -40.2 -19.3 -40.5 -18.55 -40.75 -17.95 -41.05 -17.15 -41.25 -16.7 -41.65 -15.75 -42.05 -14.8 -42.25 -14.3 -42.6 -13.5 -42.85 -12.8 -37.8 -15.4 -35.45 -16.75 L-35.45 -16.75 M47.6 -40.9 Q46.4 -41.5 45.25 -42.25 44.15 -43.0 43.15 -43.8 42.2 -44.65 41.25 -45.55 40.4 -46.45 39.55 -47.45 38.75 -48.4 38.0 -49.5 37.3 -50.5 36.6 -51.6 35.95 -52.65 35.25 -53.85 34.7 -54.9 34.05 -56.15 34.55 -50.9 35.8 -42.85 37.65 -30.85 37.85 -29.35 38.1 -29.65 42.65 -35.3 45.5 -38.8 47.6 -40.9 L47.6 -40.9 M47.15 -25.6 Q47.0 -26.35 46.95 -27.1 46.85 -27.85 46.8 -28.6 46.75 -29.35 46.75 -30.1 46.75 -30.85 46.8 -31.65 46.8 -32.4 46.85 -33.2 46.9 -33.95 47.0 -34.75 47.05 -35.5 47.15 -36.35 47.25 -37.05 47.35 -37.95 47.0 -37.55 45.95 -36.3 45.15 -35.4 44.7 -34.8 43.85 -33.8 42.5 -32.1 40.85 -30.05 40.3 -29.35 40.2 -29.25 39.9 -28.9 39.65 -28.6 39.5 -28.4 39.3 -28.15 39.15 -27.95 38.95 -27.7 38.8 -27.45 38.65 -27.2 38.5 -26.95 38.4 -26.7 38.3 -26.4 38.15 -26.15 38.1 -25.85 38.05 -25.55 38.0 -25.2 38.0 -25.15 38.0 -25.1 38.0 -25.05 37.95 -25.0 37.95 -25.0 37.95 -24.9 37.9 -24.8 37.85 -24.7 37.8 -24.6 37.7 -24.5 37.65 -24.4 37.55 -24.3 37.45 -24.15 37.4 -24.05 37.35 -23.95 37.3 -23.85 37.25 -23.75 37.2 -23.65 37.2 -23.55 37.2 -23.45 37.2 -23.35 37.25 -23.25 37.3 -23.15 37.35 -23.05 37.45 -23.0 37.5 -22.9 37.6 -22.8 37.7 -22.75 37.8 -22.65 37.9 -22.6 38.0 -22.5 38.1 -22.45 38.2 -22.4 38.35 -22.3 38.5 -22.2 38.55 -22.2 38.7 -22.1 38.8 -22.05 39.8 -21.4 44.3 -18.15 47.7 -15.7 49.9 -14.35 50.1 -14.25 50.8 -13.8 50.45 -14.7 50.25 -15.3 49.9 -16.1 49.7 -16.75 49.4 -17.55 49.15 -18.2 48.9 -19.0 48.65 -19.7 48.4 -20.45 48.2 -21.15 47.95 -21.9 47.8 -22.6 47.6 -23.35 47.45 -24.1 47.25 -24.85 47.15 -25.6 L47.15 -25.6" fill="#050505" fill-rule="evenodd" stroke="none"/>
    <path d="M6.7 -0.05 Q7.95 -1.25 9.35 -2.05 10.7 -2.8 12.2 -3.15 13.6 -3.45 15.05 -3.4 16.5 -3.3 17.85 -2.9 19.2 -2.5 20.45 -1.8 21.7 -1.1 22.75 -0.15 23.8 0.75 24.55 1.9 25.35 3.0 25.8 4.25 26.15 5.2 26.35 6.2 26.55 7.2 26.55 8.2 26.6 9.2 26.5 10.25 26.4 11.25 26.15 12.25 25.95 13.25 25.55 14.2 25.2 15.15 24.7 16.05 24.15 16.9 23.55 17.7 22.9 18.5 22.2 19.2 21.7 19.65 21.15 20.05 20.6 20.5 20.1 20.8 19.5 21.15 18.95 21.45 18.4 21.7 17.8 21.9 17.2 22.15 16.6 22.25 15.95 22.4 15.3 22.45 14.65 22.5 14.0 22.45 13.35 22.4 12.65 22.3 11.6 22.1 10.6 21.7 9.6 21.3 8.65 20.7 7.7 20.1 6.9 19.4 6.05 18.65 5.35 17.75 4.65 16.9 4.1 15.9 3.55 14.9 3.15 13.85 2.7 12.8 2.5 11.65 2.25 10.5 2.25 9.35 2.25 8.7 2.35 8.0 2.45 7.35 2.6 6.75 2.75 6.1 2.95 5.5 3.2 4.9 3.45 4.3 3.75 3.7 4.1 3.15 4.45 2.6 4.85 2.05 5.25 1.5 5.7 0.95 6.15 0.45 6.7 -0.05 L6.7 -0.05 M14.6 -1.25 Q14.15 -1.2 13.7 -1.15 13.3 -1.05 12.9 -0.95 12.5 -0.85 12.15 -0.7 11.8 -0.6 11.5 -0.45 11.2 -0.3 10.9 -0.15 10.65 -0.05 10.4 0.1 10.2 0.25 10.0 0.4 9.85 0.5 9.65 0.6 8.85 1.2 8.15 1.85 7.5 2.55 6.95 3.3 6.4 4.05 6.05 4.9 5.65 5.7 5.4 6.6 5.15 7.45 5.05 8.4 4.95 9.3 5.05 10.2 5.1 11.15 5.3 12.1 5.55 13.05 5.9 13.95 5.95 14.0 5.95 14.1 5.7 13.45 6.05 14.25 6.1 14.35 6.1 14.4 6.15 14.5 6.2 14.55 6.2 14.65 6.25 14.7 6.3 14.8 6.35 14.85 6.4 14.9 6.45 14.95 6.55 15.05 6.6 15.1 7.05 16.0 7.7 16.8 8.3 17.6 9.1 18.25 9.85 18.9 10.75 19.35 11.6 19.8 12.55 20.1 13.5 20.35 14.5 20.4 15.5 20.45 16.5 20.25 17.55 20.05 18.55 19.6 19.55 19.15 20.5 18.45 20.8 18.2 21.1 17.95 21.4 17.7 21.65 17.45 21.95 17.2 22.2 16.9 22.45 16.65 22.7 16.35 22.9 16.05 23.1 15.75 23.3 15.4 23.45 15.1 23.65 14.75 23.8 14.4 23.9 14.0 24.0 13.6 24.2 13.25 24.35 12.95 24.55 12.6 24.65 12.25 24.75 11.9 24.85 11.5 24.95 11.2 25.0 10.8 25.05 10.45 25.1 10.05 25.1 9.7 25.1 9.35 25.1 8.95 25.1 8.6 25.1 8.25 25.05 7.85 25.05 7.55 25.0 7.25 24.95 7.0 24.9 6.7 24.85 6.45 24.8 6.2 24.75 6.0 24.65 5.8 24.6 5.6 24.55 5.4 24.45 5.25 24.4 5.1 24.35 5.0 24.3 4.85 24.35 4.9 24.25 4.7 24.1 4.4 24.15 4.5 24.1 4.35 24.0 4.25 23.9 4.05 23.8 3.9 23.7 3.7 23.55 3.45 23.4 3.25 23.2 3.0 23.05 2.75 22.8 2.5 22.6 2.25 22.35 2.0 22.1 1.75 21.8 1.5 21.65 1.35 21.5 1.2 21.25 1.0 20.95 0.8 20.65 0.55 20.3 0.3 19.85 0.05 19.45 -0.2 18.95 -0.45 18.4 -0.65 17.85 -0.85 17.25 -1.0 16.65 -1.15 16.0 -1.2 15.3 -1.3 14.6 -1.25 L14.6 -1.25" fill="#050505" fill-rule="evenodd" stroke="none"/>
    <path d="M20.75 -0.35 Q20.55 -0.45 20.3 -0.55 20.05 -0.65 19.75 -0.75 19.45 -0.85 19.1 -0.95 18.75 -1.05 18.4 -1.1 17.95 -1.2 17.55 -1.25 17.1 -1.3 16.6 -1.3 16.15 -1.35 15.65 -1.35 15.1 -1.3 14.6 -1.25 14.1 -1.2 13.65 -1.1 13.2 -1.0 12.75 -0.85 12.35 -0.75 11.95 -0.6 11.6 -0.45 11.25 -0.3 11.0 -0.15 10.7 0.0 10.45 0.1 10.25 0.25 10.05 0.35 9.9 0.45 9.75 0.55 9.65 0.6 8.85 1.2 8.15 1.85 7.5 2.55 6.95 3.3 6.4 4.05 6.05 4.9 5.65 5.7 5.4 6.6 5.15 7.45 5.05 8.4 4.95 9.3 5.05 10.2 5.1 11.15 5.3 12.1 5.55 13.05 5.9 13.95 5.95 14.0 5.95 14.1 5.7 13.45 6.05 14.25 6.1 14.35 6.1 14.4 6.15 14.5 6.2 14.55 6.2 14.65 6.25 14.7 6.3 14.8 6.35 14.85 6.4 14.9 6.45 14.95 6.55 15.05 6.6 15.1 6.85 14.7 6.95 14.45 7.2 14.0 7.5 13.65 7.8 13.25 8.05 12.9 8.4 12.55 8.7 12.25 9.05 11.9 9.4 11.65 9.75 11.4 10.15 11.2 10.55 10.95 11.0 10.8 11.45 10.65 11.9 10.55 12.4 10.5 12.95 10.45 12.95 10.35 12.95 10.3 12.95 10.2 13.0 10.15 13.0 10.05 13.0 10.0 13.0 9.9 13.0 9.85 13.05 9.75 13.05 9.7 13.05 9.6 13.05 9.55 13.05 9.45 13.1 9.35 13.1 9.3 13.1 9.2 13.15 8.85 13.3 8.45 13.45 8.1 13.65 7.8 13.85 7.45 14.1 7.2 14.35 6.9 14.65 6.7 14.95 6.45 15.3 6.25 15.65 6.1 16.0 6.0 16.35 5.85 16.75 5.85 17.1 5.8 17.5 5.85 17.95 5.9 18.35 6.05 18.75 6.15 19.1 6.35 19.45 6.55 19.75 6.85 20.05 7.15 20.3 7.45 20.5 7.8 20.7 8.2 20.85 8.6 20.95 9.0 21.0 9.45 21.05 9.95 21.05 10.4 20.95 10.9 21.2 10.9 21.45 10.95 21.65 11.0 21.85 11.05 22.05 11.15 22.25 11.25 22.4 11.35 22.6 11.5 22.75 11.6 22.9 11.8 23.0 11.95 23.15 12.1 23.25 12.3 23.4 12.5 23.5 12.7 23.6 12.9 23.6 12.95 23.65 13.0 23.65 13.05 23.65 13.1 23.75 14.35 23.65 13.2 23.65 13.3 23.65 13.35 23.7 13.4 23.7 13.45 23.75 13.5 23.75 13.5 23.8 13.55 23.85 13.6 23.9 13.6 24.0 13.6 24.2 13.25 24.35 12.95 24.55 12.6 24.65 12.25 24.75 11.9 24.85 11.5 24.95 11.2 25.0 10.8 25.05 10.45 25.1 10.05 25.1 9.7 25.1 9.35 25.1 8.95 25.1 8.6 25.1 8.25 25.05 7.85 25.05 7.6 25.0 7.35 24.95 7.1 24.95 6.85 24.9 6.65 24.85 6.4 24.8 6.2 24.7 6.0 24.65 5.8 24.6 5.6 24.55 5.45 24.45 5.3 24.4 5.15 24.35 5.0 24.2 4.65 24.25 4.7 24.15 4.45 24.05 4.2 23.9 3.95 23.8 3.7 23.65 3.4 23.45 3.1 23.3 2.75 23.1 2.45 22.85 2.1 22.6 1.75 22.35 1.4 22.1 1.05 21.8 0.7 21.5 0.35 21.15 0.0 20.75 -0.35 L20.75 -0.35" fill="#000000" fill-opacity="0.2" fill-rule="evenodd" stroke="none"/>
    <path d="M12.95 10.45 Q13.05 10.7 13.05 10.85 13.15 11.1 13.2 11.25 13.3 11.45 13.35 11.65 13.45 11.85 13.55 12.0 13.65 12.2 13.75 12.35 13.9 12.55 14.05 12.7 14.2 12.85 14.35 12.95 14.55 13.1 14.75 13.2 15.2 13.45 15.65 13.55 16.1 13.7 16.6 13.7 17.05 13.75 17.5 13.65 17.95 13.6 18.4 13.45 18.8 13.3 19.2 13.05 19.6 12.8 19.95 12.45 20.25 12.15 20.5 11.75 20.8 11.35 20.95 10.9 21.05 10.4 21.0 9.9 21.0 9.45 20.9 9.0 20.85 8.6 20.7 8.2 20.5 7.8 20.3 7.45 20.05 7.1 19.75 6.85 19.45 6.55 19.1 6.35 18.75 6.15 18.35 6.0 17.95 5.9 17.5 5.85 17.1 5.8 16.75 5.85 16.35 5.9 16.0 6.0 15.65 6.1 15.3 6.3 14.95 6.45 14.65 6.7 14.35 6.9 14.1 7.2 13.85 7.5 13.65 7.8 13.45 8.15 13.3 8.5 13.15 8.85 13.1 9.2 13.05 9.4 13.0 9.85 12.95 10.25 12.95 10.45 L12.95 10.45" fill="#050505" fill-rule="evenodd" stroke="none"/>
  </g>
</svg>
