<?xml version="1.0" encoding="UTF-8" standalone="no"?>
<svg xmlns:xlink="http://www.w3.org/1999/xlink" height="116.85px" width="132.4px" xmlns="http://www.w3.org/2000/svg">
  <g transform="matrix(1.0, 0.0, 0.0, 1.0, 66.2, 58.4)">
    <path d="M21.05 -53.9 Q19.85 -53.7 18.6 -53.5 17.35 -53.35 16.1 -53.2 14.9 -53.1 13.6 -53.0 12.4 -52.95 11.1 -52.9 9.95 -52.85 8.6 -52.85 7.45 -52.8 6.1 -52.8 5.05 -52.8 3.6 -52.8 3.6 -52.8 1.15 -52.85 -1.35 -52.85 -5.1 -53.25 -11.45 -53.9 -11.35 -53.9 -11.6 -53.85 -11.8 -53.7 -12.0 -53.6 -12.2 -53.45 -12.4 -53.3 -12.6 -53.1 -12.75 -52.95 -12.95 -52.75 -13.1 -52.55 -13.25 -52.35 -13.4 -52.15 -13.55 -51.9 -13.65 -51.75 -13.85 -51.45 -14.05 -51.15 -14.1 -51.05 -15.45 -48.45 -18.2 -42.45 -20.7 -36.85 -22.3 -33.95 -22.45 -33.6 -22.7 -33.2 -22.85 -32.9 -23.05 -32.5 -24.35 -30.0 -23.45 -31.75 -23.65 -31.3 -23.85 -31.0 -24.05 -30.6 -24.2 -30.3 -24.4 -29.9 -24.55 -29.55 -24.75 -29.15 -24.9 -28.8 -25.05 -28.4 -25.2 -28.0 -25.2 -27.8 -25.15 -27.55 -25.05 -27.35 -24.95 -27.15 -24.9 -27.0 -24.75 -26.8 -24.65 -26.6 -24.5 -26.45 -24.35 -26.3 -24.2 -26.1 -24.1 -26.0 -23.9 -25.8 -23.65 -25.6 -23.55 -25.5 -23.4 -25.3 -23.3 -25.15 -23.0 -24.85 -22.65 -24.6 -22.35 -24.35 -22.0 -24.1 -21.7 -23.85 -21.3 -23.65 -21.0 -23.45 -20.6 -23.25 -20.25 -23.05 -19.85 -22.85 -19.5 -22.7 -19.1 -22.5 -18.8 -22.35 -18.35 -22.2 -18.05 -22.05 -17.6 -21.9 -17.7 -21.6 -17.75 -21.5 -17.8 -21.25 -17.85 -21.05 -17.95 -20.85 -18.0 -20.65 -18.0 -20.4 -18.05 -20.2 -18.05 -19.95 -18.05 -19.75 -18.0 -19.55 -17.95 -19.35 -17.85 -19.15 -17.7 -19.0 -17.6 -18.85 -17.35 -18.75 -16.95 -18.55 -16.5 -18.35 -16.1 -18.2 -15.6 -18.0 -15.2 -17.85 -14.75 -17.7 -14.3 -17.6 -13.85 -17.45 -13.45 -17.35 -12.95 -17.2 -12.55 -17.1 -12.05 -16.95 -12.2 -17.0 -11.1 -16.75 -10.6 -16.6 -10.2 -16.5 -9.7 -16.4 -9.15 -16.3 -8.65 -16.2 -8.1 -16.15 -7.6 -16.1 -7.05 -16.05 -6.55 -16.0 -5.95 -16.0 -5.5 -16.0 -4.9 -15.95 -4.75 -15.95 -3.8 -15.95 -3.15 -15.95 -2.75 -15.95 -2.15 -15.9 -1.7 -15.9 -1.55 -15.9 -1.45 -15.95 -1.35 -16.0 -1.25 -16.05 -1.15 -16.1 -1.1 -16.2 -1.05 -16.3 -1.0 -16.4 -0.95 -16.5 -0.95 -16.6 -0.9 -16.7 -0.9 -16.85 -0.85 -16.9 -0.85 -17.1 -0.8 -17.2 -0.8 -17.3 -0.7 -17.45 -0.55 -17.6 -0.45 -17.7 -0.25 -17.75 -0.1 -17.85 0.05 -17.9 0.2 -17.9 0.4 -17.95 0.55 -17.95 0.75 -18.0 0.85 -18.0 1.15 -18.0 1.35 -18.0 1.5 -18.0 1.7 -18.0 1.85 -18.05 1.95 -18.05 2.6 -18.05 3.05 -18.05 3.35 -18.05 3.75 -18.05 4.1 -18.05 4.5 -18.0 4.85 -18.0 5.2 -17.95 5.55 -17.9 5.95 -17.85 6.3 -17.8 6.7 -17.7 7.0 -17.6 7.4 -17.45 7.7 -17.3 7.85 -17.2 7.95 -17.1 8.05 -17.0 8.15 -16.8 8.2 -16.7 8.25 -16.5 8.4 -16.05 8.4 -16.15 8.45 -15.95 8.5 -15.85 8.6 -15.7 8.7 -15.6 8.8 -15.5 8.95 -15.45 9.1 -15.4 9.3 -15.45 10.2 -15.5 11.15 -15.6 12.05 -15.65 12.95 -15.8 13.85 -15.9 14.75 -16.05 15.7 -16.2 16.6 -16.4 17.5 -16.6 18.35 -16.8 19.25 -17.05 20.15 -17.3 21.05 -17.55 21.9 -17.85 22.75 -18.15 23.65 -18.5 24.05 -18.7 24.05 -18.65 24.25 -18.8 24.45 -18.85 24.65 -19.0 24.85 -19.1 25.05 -19.2 25.2 -19.35 25.4 -19.5 25.55 -19.65 25.7 -19.85 25.8 -20.05 25.85 -20.25 25.9 -20.45 25.95 -20.7 25.9 -20.95 25.9 -21.0 25.85 -21.15 25.8 -21.25 25.8 -21.35 25.8 -21.45 25.75 -21.55 25.75 -21.65 25.75 -21.7 25.75 -21.8 25.75 -21.9 25.8 -21.95 25.85 -22.0 25.9 -22.1 26.0 -22.15 26.05 -22.2 26.2 -22.2 26.8 -22.4 27.4 -22.7 27.95 -22.95 28.55 -23.3 29.05 -23.6 29.6 -24.0 30.15 -24.35 30.7 -24.75 31.2 -25.15 31.7 -25.55 32.2 -26.0 32.7 -26.45 33.15 -26.85 33.65 -27.35 34.05 -27.8 34.55 -28.3 34.65 -28.5 34.7 -28.75 34.7 -28.95 34.7 -29.15 34.65 -29.35 34.6 -29.55 34.5 -29.75 34.4 -29.95 34.3 -30.15 34.15 -30.35 34.2 -30.35 33.9 -30.75 33.75 -30.95 33.7 -31.1 33.55 -31.3 33.5 -31.5 31.7 -34.65 27.85 -42.45 24.3 -49.5 22.0 -53.3 21.95 -53.35 21.9 -53.45 21.9 -53.5 21.85 -53.55 21.8 -53.6 21.7 -53.65 21.65 -53.7 21.6 -53.75 21.55 -53.8 21.5 -53.85 21.4 -53.85 21.35 -53.9 21.3 -53.9 21.2 -53.9 21.15 -53.9 21.05 -53.9 L21.05 -53.9" fill="#ff0000" fill-rule="evenodd" stroke="none"/>
    <path d="M21.05 -53.9 Q19.85 -53.7 18.6 -53.5 17.35 -53.35 16.1 -53.2 14.9 -53.1 13.6 -53.0 12.4 -52.95 11.1 -52.9 9.95 -52.85 8.6 -52.85 7.45 -52.8 6.1 -52.8 5.05 -52.8 3.6 -52.8 3.6 -52.8 1.15 -52.85 -1.35 -52.85 -5.1 -53.25 -11.45 -53.9 -11.35 -53.9 -11.6 -53.85 -11.8 -53.7 -12.0 -53.6 -12.2 -53.45 -12.4 -53.3 -12.6 -53.1 -12.75 -52.95 -12.95 -52.75 -13.1 -52.55 -13.25 -52.35 -13.4 -52.15 -13.55 -51.9 -13.65 -51.75 -13.85 -51.45 -14.05 -51.15 -14.1 -51.05 -15.45 -48.45 -18.2 -42.45 -20.7 -36.85 -22.3 -33.95 -22.45 -33.6 -22.7 -33.2 -22.85 -32.9 -23.05 -32.5 -24.35 -30.0 -23.45 -31.75 -23.65 -31.3 -23.85 -31.0 -24.05 -30.6 -24.2 -30.3 -24.4 -29.9 -24.55 -29.55 -24.75 -29.15 -24.9 -28.8 -25.05 -28.4 -25.2 -28.0 -25.2 -27.8 -25.15 -27.55 -25.05 -27.35 -24.95 -27.15 -24.9 -27.0 -24.75 -26.8 -24.65 -26.6 -24.5 -26.45 -24.35 -26.3 -24.2 -26.1 -24.1 -26.0 -23.9 -25.8 -23.65 -25.6 -23.55 -25.5 -23.4 -25.3 -23.3 -25.15 -23.0 -24.85 -22.65 -24.6 -22.35 -24.35 -22.0 -24.1 -21.7 -23.85 -21.3 -23.65 -21.0 -23.45 -20.6 -23.25 -20.25 -23.05 -19.85 -22.85 -19.5 -22.7 -19.1 -22.5 -18.8 -22.35 -18.35 -22.2 -18.05 -22.05 -17.6 -21.9 -17.7 -21.6 -17.75 -21.5 -17.8 -21.25 -17.85 -21.05 -17.95 -20.85 -18.0 -20.65 -18.0 -20.4 -18.05 -20.2 -18.05 -19.95 -18.05 -19.75 -18.0 -19.55 -17.95 -19.35 -17.85 -19.15 -17.7 -19.0 -17.6 -18.85 -17.35 -18.75 -16.95 -18.55 -16.5 -18.35 -16.1 -18.2 -15.6 -18.0 -15.2 -17.85 -14.75 -17.7 -14.3 -17.6 -13.85 -17.45 -13.45 -17.35 -12.95 -17.2 -12.55 -17.1 -12.05 -16.95 -12.2 -17.0 -11.1 -16.75 -10.6 -16.6 -10.2 -16.5 -9.7 -16.4 -9.15 -16.3 -8.65 -16.2 -8.1 -16.15 -7.6 -16.1 -7.05 -16.05 -6.55 -16.0 -5.95 -16.0 -5.5 -16.0 -4.9 -15.95 -4.75 -15.95 -3.8 -15.95 -3.15 -15.95 -2.75 -15.95 -2.15 -15.9 -1.7 -15.9 -1.55 -15.9 -1.45 -15.95 -1.35 -16.0 -1.25 -16.05 -1.15 -16.1 -1.1 -16.2 -1.05 -16.3 -1.0 -16.4 -0.95 -16.5 -0.95 -16.6 -0.9 -16.7 -0.9 -16.85 -0.85 -16.9 -0.85 -17.1 -0.8 -17.2 -0.8 -17.3 -0.7 -17.45 -0.55 -17.6 -0.45 -17.7 -0.25 -17.75 -0.1 -17.85 0.05 -17.9 0.2 -17.9 0.4 -17.95 0.55 -17.95 0.75 -18.0 0.85 -18.0 1.15 -18.0 1.35 -18.0 1.5 -18.0 1.7 -18.0 1.85 -18.05 1.95 -18.05 2.6 -18.05 3.05 -18.05 3.35 -18.05 3.75 -18.05 4.1 -18.05 4.5 -18.0 4.85 -18.0 5.2 -17.95 5.55 -17.9 5.95 -17.85 6.3 -17.8 6.7 -17.7 7.0 -17.6 7.4 -17.45 7.7 -17.3 7.85 -17.2 7.95 -17.1 8.05 -17.0 8.15 -16.8 8.2 -16.7 8.25 -16.5 8.4 -16.05 8.4 -16.15 8.45 -15.95 8.5 -15.85 8.6 -15.7 8.7 -15.6 8.8 -15.5 8.95 -15.45 9.1 -15.4 9.3 -15.45 10.2 -15.5 11.15 -15.6 12.05 -15.65 12.95 -15.8 13.85 -15.9 14.75 -16.05 15.7 -16.2 16.6 -16.4 17.5 -16.6 18.35 -16.8 19.25 -17.05 20.15 -17.3 21.05 -17.55 21.9 -17.85 22.75 -18.15 23.65 -18.5 24.05 -18.7 24.05 -18.65 24.25 -18.8 24.45 -18.85 24.65 -19.0 24.85 -19.1 25.05 -19.2 25.2 -19.35 25.4 -19.5 25.55 -19.65 25.7 -19.85 25.8 -20.05 25.85 -20.25 25.9 -20.45 25.95 -20.7 25.9 -20.95 25.9 -21.0 25.85 -21.15 25.8 -21.25 25.8 -21.35 25.8 -21.45 25.75 -21.55 25.75 -21.65 25.75 -21.7 25.75 -21.8 25.75 -21.9 25.8 -21.95 25.85 -22.0 25.9 -22.1 26.0 -22.15 26.05 -22.2 26.2 -22.2 26.8 -22.4 27.4 -22.7 27.95 -22.95 28.55 -23.3 29.05 -23.6 29.6 -24.0 30.15 -24.35 30.7 -24.75 31.2 -25.15 31.7 -25.55 32.2 -26.0 32.7 -26.45 33.15 -26.85 33.65 -27.35 34.05 -27.8 34.55 -28.3 34.65 -28.5 34.7 -28.75 34.7 -28.95 34.7 -29.15 34.65 -29.35 34.6 -29.55 34.5 -29.75 34.4 -29.95 34.3 -30.15 34.15 -30.35 34.2 -30.35 33.9 -30.75 33.75 -30.95 33.7 -31.1 33.55 -31.3 33.5 -31.5 31.7 -34.65 27.85 -42.45 24.3 -49.5 22.0 -53.3 21.95 -53.35 21.9 -53.45 21.9 -53.5 21.85 -53.55 21.8 -53.6 21.7 -53.65 21.65 -53.7 21.6 -53.75 21.55 -53.8 21.5 -53.85 21.4 -53.85 21.35 -53.9 21.3 -53.9 21.2 -53.9 21.15 -53.9 21.05 -53.9 L21.05 -53.9 Z" fill="none" stroke="#000000" stroke-linecap="round" stroke-linejoin="round" stroke-width="0.35000000000000003"/>
    <path d="M18.65 -57.05 Q17.55 -56.95 16.45 -56.9 15.4 -56.8 14.3 -56.75 13.2 -56.7 12.1 -56.65 11.05 -56.6 9.9 -56.55 8.85 -56.5 7.75 -56.5 6.65 -56.45 5.55 -56.45 4.45 -56.45 3.35 -56.45 2.3 -56.45 1.15 -56.45 0.45 -56.45 -0.25 -56.45 -1.0 -56.45 -1.65 -56.45 -2.4 -56.45 -3.1 -56.45 -3.8 -56.5 -4.5 -56.5 -5.2 -56.55 -5.9 -56.55 -6.6 -56.6 -7.3 -56.65 -8.0 -56.65 -8.7 -56.7 -9.45 -56.75 -10.1 -56.8 -10.3 -56.85 -10.5 -56.8 -10.7 -56.75 -10.8 -56.65 -10.95 -56.6 -11.05 -56.45 -11.2 -56.3 -11.25 -56.1 -11.35 -55.95 -11.4 -55.75 -11.45 -55.55 -11.45 -55.35 -11.5 -55.15 -11.5 -54.95 -11.5 -54.8 -11.5 -54.6 -11.5 -54.4 -11.4 -54.2 -11.3 -54.05 -11.2 -53.95 -11.05 -53.85 -10.9 -53.8 -10.75 -53.75 -10.55 -53.7 -10.4 -53.7 -10.2 -53.7 -10.15 -53.65 -9.8 -53.65 -9.6 -53.65 -9.45 -53.65 -9.25 -53.6 -9.1 -53.55 -8.5 -53.5 -7.65 -53.4 -4.7 -53.05 -6.15 -53.25 -5.3 -53.15 -4.65 -53.05 -3.85 -53.0 -3.2 -52.95 -2.4 -52.85 -1.7 -52.8 -0.95 -52.75 -0.2 -52.75 0.55 -52.7 1.25 -52.7 2.05 -52.7 2.75 -52.75 3.7 -52.75 5.0 -52.75 4.85 -52.75 7.25 -52.8 8.55 -52.8 9.45 -52.8 10.7 -52.8 11.7 -52.85 12.9 -52.85 13.95 -52.95 15.1 -53.0 16.15 -53.1 17.3 -53.2 18.4 -53.35 19.55 -53.55 20.6 -53.75 20.8 -53.8 20.95 -53.9 21.1 -53.95 21.2 -54.1 21.3 -54.2 21.4 -54.35 21.45 -54.5 21.5 -54.7 21.5 -54.85 21.5 -55.05 21.5 -55.25 21.45 -55.4 21.45 -55.6 21.35 -55.75 21.3 -55.95 21.2 -56.1 21.1 -56.3 21.0 -56.4 20.9 -56.55 20.75 -56.65 20.6 -56.75 20.45 -56.8 20.3 -56.9 20.1 -56.95 19.95 -56.95 19.75 -57.0 19.55 -57.0 19.35 -57.0 19.2 -57.05 19.0 -57.05 19.3 -57.05 18.65 -57.05 L18.65 -57.05" fill="#ff0000" fill-rule="evenodd" stroke="none"/>
    <path d="M18.65 -57.05 Q17.55 -56.95 16.45 -56.9 15.4 -56.8 14.3 -56.75 13.2 -56.7 12.1 -56.65 11.05 -56.6 9.9 -56.55 8.85 -56.5 7.75 -56.5 6.65 -56.45 5.55 -56.45 4.45 -56.45 3.35 -56.45 2.3 -56.45 1.15 -56.45 0.45 -56.45 -0.25 -56.45 -1.0 -56.45 -1.65 -56.45 -2.4 -56.45 -3.1 -56.45 -3.8 -56.5 -4.5 -56.5 -5.2 -56.55 -5.9 -56.55 -6.6 -56.6 -7.3 -56.65 -8.0 -56.65 -8.7 -56.7 -9.45 -56.75 -10.1 -56.8 -10.3 -56.85 -10.5 -56.8 -10.7 -56.75 -10.8 -56.65 -10.95 -56.6 -11.05 -56.45 -11.2 -56.3 -11.25 -56.1 -11.35 -55.95 -11.4 -55.75 -11.45 -55.55 -11.45 -55.35 -11.5 -55.15 -11.5 -54.95 -11.5 -54.8 -11.5 -54.6 -11.5 -54.4 -11.4 -54.2 -11.3 -54.05 -11.2 -53.95 -11.05 -53.85 -10.9 -53.8 -10.75 -53.75 -10.55 -53.7 -10.4 -53.7 -10.2 -53.7 -10.15 -53.65 -9.8 -53.65 -9.6 -53.65 -9.45 -53.65 -9.25 -53.6 -9.1 -53.55 -8.5 -53.5 -7.65 -53.4 -4.7 -53.05 -6.15 -53.25 -5.3 -53.15 -4.65 -53.05 -3.85 -53.0 -3.2 -52.95 -2.4 -52.85 -1.7 -52.8 -0.95 -52.75 -0.2 -52.75 0.55 -52.7 1.25 -52.7 2.05 -52.7 2.75 -52.75 3.7 -52.75 5.0 -52.75 4.85 -52.75 7.25 -52.8 8.55 -52.8 9.45 -52.8 10.7 -52.8 11.7 -52.85 12.9 -52.85 13.95 -52.95 15.1 -53.0 16.15 -53.1 17.3 -53.2 18.4 -53.35 19.55 -53.55 20.6 -53.75 20.8 -53.8 20.95 -53.9 21.1 -53.95 21.2 -54.1 21.3 -54.2 21.4 -54.35 21.45 -54.5 21.5 -54.7 21.5 -54.85 21.5 -55.05 21.5 -55.25 21.45 -55.4 21.45 -55.6 21.35 -55.75 21.3 -55.95 21.2 -56.1 21.1 -56.3 21.0 -56.4 20.9 -56.55 20.75 -56.65 20.6 -56.75 20.45 -56.8 20.3 -56.9 20.1 -56.95 19.95 -56.95 19.75 -57.0 19.55 -57.0 19.35 -57.0 19.2 -57.05 19.0 -57.05 19.3 -57.05 18.65 -57.05 L18.65 -57.05 Z" fill="none" stroke="#000000" stroke-linecap="round" stroke-linejoin="round" stroke-width="0.35000000000000003"/>
  </g>
</svg>
