<?xml version="1.0" encoding="UTF-8" standalone="no"?>
<svg xmlns:xlink="http://www.w3.org/1999/xlink" height="10.6px" width="29.85px" xmlns="http://www.w3.org/2000/svg">
  <g transform="matrix(1.0, 0.0, 0.0, 1.0, 14.95, 5.3)">
    <path d="M-3.4 3.7 Q-3.6 3.7 -3.85 3.65 -4.15 3.6 -4.4 3.5 -4.65 3.45 -4.9 3.35 -5.2 3.3 -5.45 3.2 -5.7 3.05 -5.9 2.95 -6.15 2.8 -6.3 2.65 -6.5 2.5 -6.6 2.35 -6.75 2.15 -6.8 1.95 -6.85 1.75 -6.8 1.5 -6.75 1.25 -6.55 1.0 -6.45 0.75 -6.2 0.5 -6.0 0.25 -5.7 0.0 -5.4 -0.25 -5.1 -0.45 -4.8 -0.7 -4.45 -0.9 -4.1 -1.1 -3.75 -1.25 -3.4 -1.45 -3.05 -1.55 -2.6 -1.7 -2.15 -1.85 -1.65 -1.95 -1.2 -2.05 -0.65 -2.15 -0.15 -2.15 0.35 -2.2 0.85 -2.15 1.35 -2.1 1.85 -2.0 2.3 -1.9 2.75 -1.7 3.15 -1.5 3.55 -1.25 3.9 -0.95 4.2 -0.6 4.2 -0.6 4.25 -0.5 4.35 -0.4 4.4 -0.25 4.5 -0.1 4.6 0.05 4.7 0.25 4.75 0.45 4.85 0.7 4.9 0.95 4.95 1.2 4.95 1.45 5.0 1.7 4.95 2.0 4.9 2.25 4.75 2.5 4.7 2.65 4.6 2.75 4.5 2.85 4.4 2.95 4.35 3.05 4.25 3.15 4.15 3.25 4.05 3.3 3.95 3.35 3.85 3.45 3.75 3.5 3.65 3.55 3.55 3.55 3.5 3.6 3.4 3.65 3.35 3.65 3.45 3.5 3.5 3.35 3.6 3.2 3.65 3.0 3.75 2.8 3.85 2.55 3.9 2.3 4.0 2.1 4.05 1.8 4.1 1.6 4.1 1.3 4.1 1.05 4.1 0.8 4.05 0.55 3.95 0.3 3.85 0.1 3.7 -0.2 3.4 -0.45 3.1 -0.7 2.75 -0.9 2.35 -1.05 1.9 -1.2 1.4 -1.3 0.9 -1.35 0.35 -1.35 -0.25 -1.3 -0.9 -1.25 -1.5 -1.1 -2.2 -0.95 -2.85 -0.7 -3.55 -0.4 -4.25 -0.05 -4.4 0.0 -4.5 0.1 -4.6 0.15 -4.75 0.25 -4.9 0.3 -5.0 0.4 -5.15 0.5 -5.25 0.6 -5.35 0.7 -5.45 0.8 -5.55 0.9 -5.65 1.05 -5.7 1.15 -5.75 1.3 -5.8 1.4 -5.8 1.55 -5.8 1.7 -5.7 1.85 -5.65 2.0 -5.5 2.15 -5.35 2.3 -5.15 2.45 -4.95 2.6 -4.7 2.75 -4.45 2.85 -4.1 3.0 -3.8 3.1 -3.45 3.25 -3.1 3.35 -2.7 3.45 -2.3 3.55 -1.85 3.6 -1.9 3.6 -2.0 3.65 -2.1 3.65 -2.15 3.65 -2.25 3.65 -2.35 3.7 -2.45 3.7 -2.5 3.7 -2.6 3.7 -2.75 3.7 -2.85 3.7 -2.95 3.7 -3.05 3.7 -3.15 3.7 -3.25 3.7 -3.4 3.7 L-3.4 3.7" fill="#000000" fill-rule="evenodd" stroke="none"/>
    <path d="M2.45 -1.55 Q2.25 -1.55 2.1 -1.55 1.85 -1.55 1.65 -1.55 1.4 -1.5 1.2 -1.5 0.95 -1.45 0.65 -1.45 0.4 -1.4 0.1 -1.35 -0.15 -1.3 -0.45 -1.25 -0.75 -1.2 -1.0 -1.1 -1.3 -1.0 -1.6 -0.9 -1.7 -0.85 -1.8 -0.85 -1.9 -0.8 -2.0 -0.75 -2.1 -0.7 -2.15 -0.65 -2.25 -0.6 -2.35 -0.55 -2.45 -0.5 -2.55 -0.45 -2.65 -0.4 -2.75 -0.35 -2.85 -0.25 -2.9 -0.2 -3.0 -0.1 -3.1 0.0 -3.15 0.05 -3.2 0.1 -3.3 0.15 -3.35 0.2 -3.4 0.3 -3.45 0.35 -3.55 0.4 -3.6 0.5 -3.65 0.6 -3.7 0.65 -3.75 0.75 -3.8 0.85 -3.85 0.9 -3.85 1.0 -3.9 1.1 -3.9 1.2 -3.95 1.35 -3.9 1.5 -3.9 1.7 -3.85 1.85 -3.8 2.0 -3.7 2.15 -3.6 2.35 -3.5 2.5 -3.35 2.65 -3.2 2.8 -3.05 2.95 -2.9 3.1 -2.7 3.2 -2.5 3.35 -2.3 3.45 -2.05 3.55 -2.1 3.55 -2.2 3.55 -2.25 3.55 -2.35 3.55 -2.45 3.55 -2.5 3.55 -2.6 3.55 -2.7 3.5 -2.8 3.5 -2.9 3.5 -3.0 3.5 -3.1 3.45 -3.2 3.45 -3.3 3.45 -3.4 3.4 -3.5 3.4 -3.85 3.3 -3.9 3.3 -4.1 3.25 -4.25 3.25 -4.45 3.2 -4.6 3.15 -4.75 3.1 -4.9 3.05 -5.05 2.95 -5.2 2.9 -5.35 2.85 -5.45 2.75 -5.55 2.7 -5.65 2.6 -5.75 2.5 -5.85 2.35 -5.9 2.25 -5.95 2.2 -6.0 2.1 -6.0 2.0 -6.05 1.9 -6.05 1.8 -6.05 1.7 -6.1 1.6 -6.1 1.5 -6.1 1.4 -6.1 1.3 -6.1 1.2 -6.05 1.1 -6.05 1.0 -6.05 0.9 -6.0 0.85 -5.9 0.5 -5.65 0.15 -5.4 -0.15 -5.0 -0.4 -4.7 -0.6 -4.25 -0.8 -3.85 -1.0 -3.35 -1.1 -2.95 -1.25 -2.5 -1.35 -2.1 -1.45 -1.65 -1.5 -1.35 -1.55 -1.0 -1.6 -0.8 -1.6 -0.55 -1.65 -0.3 -1.65 -0.1 -1.7 0.15 -1.7 0.35 -1.7 0.55 -1.7 0.8 -1.7 1.0 -1.7 1.15 -1.7 1.35 -1.65 1.55 -1.65 1.7 -1.65 1.85 -1.65 2.05 -1.6 2.2 -1.6 2.3 -1.6 2.45 -1.55 L2.45 -1.55" fill="#000000" fill-opacity="0.21176471" fill-rule="evenodd" stroke="none"/>
  </g>
</svg>
