<?xml version="1.0" encoding="UTF-8" standalone="no"?>
<svg xmlns:xlink="http://www.w3.org/1999/xlink" height="12.9px" width="12.9px" xmlns="http://www.w3.org/2000/svg">
  <g transform="matrix(1.0, 0.0, 0.0, 1.0, 6.45, 6.45)">
    <path d="M6.45 -1.25 Q6.45 -1.2 6.45 -1.1 6.45 -1.0 6.45 -0.95 6.4 -0.85 6.4 -0.75 6.4 -0.7 6.4 -0.6 6.35 -0.5 6.35 -0.45 6.35 -0.35 6.3 -0.25 6.3 -0.2 6.3 -0.1 6.25 -0.05 6.25 0.05 6.25 0.1 6.2 0.15 6.2 0.15 6.15 0.2 6.15 0.25 6.1 0.25 6.1 0.3 6.1 0.3 6.05 0.35 6.05 0.35 6.0 0.4 6.0 0.4 6.0 0.4 5.95 0.45 5.9 0.5 5.9 0.5 5.85 0.55 5.85 0.6 5.8 0.65 5.8 0.7 5.75 0.75 5.75 0.75 5.75 0.8 5.7 0.85 5.7 0.9 5.65 0.95 5.65 1.0 5.65 1.05 5.6 1.1 5.6 1.15 5.55 1.2 5.55 1.25 5.5 1.35 5.4 1.5 5.35 1.6 5.25 1.8 5.15 2.0 5.1 2.05 5.05 2.2 5.0 2.35 4.9 2.5 4.8 2.6 4.75 2.75 4.65 2.85 4.55 3.0 4.45 3.1 4.35 3.25 4.25 3.35 4.2 3.4 4.15 3.45 4.15 3.5 4.1 3.55 4.05 3.6 4.0 3.65 3.95 3.7 3.9 3.75 3.85 3.8 3.8 3.8 3.75 3.85 3.65 3.9 3.6 3.95 3.55 3.95 3.55 4.0 3.45 4.05 3.4 4.1 3.35 4.1 3.35 4.15 3.3 4.2 3.25 4.25 3.2 4.25 3.15 4.3 3.1 4.35 3.05 4.35 3.0 4.4 2.95 4.45 2.85 4.45 2.8 4.5 2.75 4.5 2.7 4.55 2.65 4.55 2.55 4.6 2.5 4.6 2.4 4.65 2.35 4.7 2.25 4.75 2.15 4.75 2.05 4.8 2.0 4.8 1.9 4.85 1.8 4.85 1.7 4.85 1.6 4.85 1.55 4.9 1.45 4.85 1.35 4.85 1.25 4.85 1.15 4.8 0.45 4.35 0.15 4.1 -0.15 3.85 -0.55 3.45 -0.95 3.05 -1.45 2.55 -1.45 2.55 -1.65 2.5 -1.85 2.45 -1.9 2.45 -2.0 2.45 -2.05 2.45 -2.15 2.45 -2.2 2.4 -2.25 2.4 -2.3 2.4 -2.4 2.4 -2.45 2.35 -2.5 2.35 -2.55 2.35 -2.6 2.3 -2.65 2.3 -2.75 2.3 -2.8 2.3 -2.85 2.25 -2.95 2.25 -3.05 2.2 -3.1 2.2 -3.2 2.15 -3.25 2.15 -3.35 2.1 -3.4 2.05 -3.5 2.0 -3.55 1.95 -3.65 1.9 -3.7 1.85 -3.75 1.8 -3.85 1.75 -3.9 1.7 -3.95 1.65 -4.05 1.55 -4.25 1.35 -4.85 0.95 -4.9 0.9 -4.95 0.85 -4.95 0.8 -5.0 0.75 -5.05 0.65 -5.1 0.6 -5.15 0.55 -5.2 0.5 -5.25 0.45 -5.3 0.4 -5.35 0.35 -5.45 0.3 -5.5 0.25 -5.55 0.25 -5.6 0.2 -5.65 0.15 -5.7 0.1 -5.7 0.1 -5.75 0.05 -5.8 0.0 -5.8 0.0 -5.85 -0.05 -5.85 -0.05 -5.9 -0.1 -5.95 -0.1 -5.95 -0.15 -6.0 -0.15 -6.0 -0.15 -6.05 -0.2 -6.1 -0.2 -6.1 -0.25 -6.15 -0.25 -6.2 -0.3 -6.2 -0.35 -6.25 -0.4 -6.3 -0.45 -6.3 -0.55 -6.35 -0.6 -6.35 -0.65 -6.35 -0.7 -6.4 -0.75 -6.4 -0.8 -6.4 -0.85 -6.45 -0.9 -6.45 -0.95 -6.45 -0.95 -6.45 -1.0 -6.45 -1.05 -6.45 -1.2 -6.45 -1.3 -6.45 -1.45 -6.45 -1.55 -6.4 -1.7 -6.4 -1.85 -6.4 -1.95 -6.35 -2.1 -6.35 -2.25 -6.3 -2.35 -6.3 -2.5 -6.25 -2.6 -6.2 -2.75 -6.15 -2.9 -6.1 -3.0 -6.05 -3.15 -5.65 -3.75 -5.45 -3.95 -4.95 -4.3 -4.45 -4.65 -4.35 -4.7 -4.25 -4.7 -4.15 -4.75 -4.05 -4.8 -4.0 -4.8 -3.9 -4.85 -3.8 -4.85 -3.7 -4.85 -3.6 -4.9 -3.5 -4.9 -3.4 -4.9 -3.3 -4.9 -3.25 -4.9 -3.15 -4.9 -3.05 -4.85 -2.95 -4.85 -2.85 -4.8 -2.8 -4.8 -2.7 -4.8 -2.65 -4.75 -2.55 -4.75 -2.5 -4.75 -2.45 -4.7 -2.35 -4.7 -2.3 -4.65 -2.2 -4.65 -2.15 -4.6 -2.1 -4.6 -2.05 -4.55 -1.95 -4.5 -1.9 -4.5 -1.85 -4.45 -1.8 -4.45 -1.7 -4.4 -1.65 -4.4 -1.55 -4.35 -1.5 -4.35 -1.45 -4.3 -1.4 -4.25 -1.3 -4.25 -1.25 -4.2 -1.2 -4.15 -1.15 -4.15 -1.1 -4.1 -1.05 -4.05 -0.95 -4.0 -0.9 -4.0 -0.85 -3.95 -0.65 -3.85 -0.45 -3.75 -0.05 -3.6 0.35 -3.45 0.45 -3.4 0.6 -3.4 0.7 -3.35 0.8 -3.3 0.95 -3.3 1.05 -3.3 1.2 -3.25 1.3 -3.25 1.45 -3.25 1.55 -3.25 1.7 -3.25 1.85 -3.25 1.95 -3.25 2.1 -3.3 2.2 -3.3 2.35 -3.35 3.35 -3.55 3.85 -3.55 3.95 -3.55 3.95 -3.55 4.05 -3.55 4.1 -3.55 4.15 -3.55 4.2 -3.55 4.3 -3.55 4.35 -3.55 4.4 -3.55 4.5 -3.55 4.55 -3.5 4.6 -3.5 4.65 -3.5 4.75 -3.5 4.8 -3.45 4.85 -3.45 4.95 -3.45 5.0 -3.4 5.1 -3.4 5.15 -3.35 5.25 -3.35 5.35 -3.3 5.4 -3.25 5.5 -3.2 5.55 -3.2 5.65 -3.15 5.7 -3.1 5.8 -3.05 5.85 -3.0 5.95 -2.95 6.0 -2.9 6.05 -2.85 6.1 -2.8 6.15 -2.75 6.2 -2.65 6.25 -2.6 6.3 -2.55 6.3 -2.5 6.35 -2.4 6.4 -2.35 6.4 -2.25 6.45 -2.2 6.45 -2.15 6.45 -2.05 6.5 -2.0 6.5 -1.9 6.55 -1.85 6.55 -1.75 6.55 -1.7 6.5 -1.65 6.5 -1.6 6.5 -1.6 6.5 -1.55 6.45 -1.5 6.45 -1.45 6.45 -1.45 6.45 -1.4 6.45 -1.35 6.45 -1.35 6.45 -1.3 6.45 -1.3 6.45 -1.25 6.45 -1.2 6.45 -1.2 L6.45 -1.25 M-3.85 -2.55 Q-3.9 -2.5 -3.9 -2.5 -3.95 -2.45 -3.95 -2.4 -4.0 -2.35 -4.0 -2.3 -4.05 -2.25 -4.05 -2.2 -4.05 -2.2 -4.05 -2.15 -4.05 -2.1 -4.05 -2.05 -4.0 -2.0 -4.0 -1.95 -3.95 -1.95 -3.95 -1.9 -3.9 -1.85 -3.9 -1.8 -3.9 -1.8 -3.85 -1.75 -3.85 -1.7 -3.85 -1.65 -3.85 -1.65 -3.85 -1.6 -3.85 -1.55 -3.85 -1.55 -3.85 -1.5 -3.85 -1.45 -3.85 -1.4 -3.9 -1.3 -3.9 -1.25 -3.9 -1.15 -3.9 -1.1 -3.95 -1.05 -3.95 -0.9 -3.95 -0.9 -3.95 -0.85 -3.95 -0.8 -4.0 -0.75 -4.0 -0.7 -4.0 -0.65 -4.0 -0.65 -4.05 -0.6 -4.05 -0.55 -4.05 -0.5 -4.05 -0.5 -4.05 -0.45 -4.05 -0.4 -4.1 -0.35 -4.1 -0.35 -4.1 -0.3 -4.1 -0.25 -4.15 -0.25 -4.15 -0.2 -4.15 -0.15 -4.2 -0.15 -4.2 -0.1 -4.2 -0.1 -4.25 -0.05 -4.25 -0.05 -4.2 -0.05 -4.15 -0.05 -3.9 -0.1 -3.65 -0.15 -3.55 -0.15 -3.55 -0.15 -3.5 -0.15 -3.45 -0.15 -3.35 -0.15 -3.3 -0.15 -3.25 -0.15 -3.2 -0.1 -3.2 -0.1 -3.15 -0.1 -3.1 -0.05 -3.05 0.0 -3.0 0.0 -3.0 0.05 -2.95 0.1 -2.95 0.15 -2.85 0.35 -2.65 0.95 -2.6 1.0 -2.6 1.0 -2.6 1.05 -2.55 1.1 -2.55 1.15 -2.55 1.15 -2.5 1.2 -2.5 1.25 -2.45 1.25 -2.45 1.3 -2.4 1.3 -2.4 1.3 -2.35 1.35 -2.3 1.35 -2.3 1.35 -2.25 1.35 -2.2 1.4 -2.15 1.45 -1.7 1.8 -1.25 2.15 -0.85 2.5 -0.45 2.85 -0.05 3.2 0.35 3.55 0.4 3.6 0.45 3.6 0.45 3.65 0.5 3.7 0.55 3.75 0.6 3.75 0.6 3.8 0.65 3.85 0.7 3.85 0.75 3.9 0.8 3.95 0.85 3.95 0.9 4.0 0.95 4.0 1.0 4.05 1.05 4.05 1.1 4.1 1.15 4.1 1.15 4.1 1.2 4.1 1.25 4.15 1.3 4.15 1.3 4.15 1.35 4.2 1.4 4.2 1.45 4.2 1.5 4.2 1.55 4.25 1.6 4.25 1.65 4.25 1.7 4.25 1.75 4.25 1.85 4.25 1.95 4.2 2.05 4.2 2.1 4.15 2.2 4.1 2.3 4.05 2.4 4.0 2.5 3.95 2.55 3.95 2.65 3.9 2.75 3.85 2.85 3.75 2.9 3.7 3.0 3.65 3.05 3.6 3.15 3.55 3.25 3.5 3.3 3.45 3.4 3.35 3.45 3.3 3.5 3.25 3.6 3.2 3.65 3.1 3.75 3.05 3.8 2.95 3.85 2.9 3.9 2.8 3.95 2.75 4.0 2.65 4.05 2.6 4.1 2.5 4.15 2.45 4.95 1.05 5.25 0.45 5.3 0.35 5.35 0.25 5.3 0.15 5.3 0.15 5.3 0.05 5.25 0.0 5.25 -0.05 5.25 -0.1 5.2 -0.15 5.2 -0.2 5.15 -0.3 5.15 -0.35 5.1 -0.4 5.1 -0.45 5.05 -0.55 5.0 -0.6 5.0 -0.7 4.95 -0.75 4.9 -0.75 4.85 -0.75 4.65 -0.5 4.45 -0.25 4.45 -0.2 4.4 -0.2 4.4 -0.15 4.35 -0.1 4.35 -0.1 4.3 -0.05 4.25 -0.05 4.25 0.0 4.2 0.0 4.15 0.05 4.15 0.05 4.1 0.05 4.05 0.1 4.0 0.1 4.0 0.1 3.95 0.15 3.9 0.15 3.85 0.15 3.8 0.15 3.75 0.1 3.7 0.1 3.65 0.1 3.6 0.05 3.55 0.05 3.55 0.0 3.5 0.0 3.45 -0.05 3.45 -0.05 3.4 -0.1 3.4 -0.1 3.4 -0.1 3.35 -0.15 2.95 -0.75 2.85 -0.85 2.75 -0.9 2.65 -0.95 2.5 -0.9 2.35 -0.85 2.3 -0.85 2.25 -0.8 2.2 -0.8 2.15 -0.8 2.05 -0.8 2.0 -0.8 1.95 -0.8 1.9 -0.8 1.85 -0.8 1.8 -0.8 1.75 -0.8 1.7 -0.8 1.6 -0.8 1.55 -0.8 1.5 -0.85 1.45 -0.85 1.6 -0.15 1.75 0.55 1.7 0.55 1.65 0.55 0.75 -0.8 0.55 -1.05 0.5 -1.15 0.45 -1.2 0.45 -1.2 0.35 -1.2 0.3 -1.15 0.15 -1.05 0.1 -1.0 0.0 -1.0 -0.05 -0.95 -0.15 -0.95 -0.2 -0.95 -0.3 -0.95 -0.35 -1.0 -0.45 -1.0 -0.5 -1.0 -0.6 -1.05 -0.65 -1.05 -0.7 -1.1 -0.75 -1.15 -0.85 -1.2 -0.9 -1.2 -0.95 -1.25 -0.95 -1.25 -1.35 -1.65 -1.4 -1.55 -1.45 -1.45 -1.45 -1.4 -1.45 -1.35 -1.45 -1.35 -1.45 -1.3 -1.5 -1.25 -1.5 -1.2 -1.5 -1.2 -1.5 -1.15 -1.55 -1.1 -1.55 -1.05 -1.55 -1.05 -1.6 -1.0 -1.6 -0.95 -1.6 -0.9 -1.6 -0.9 -1.65 -0.85 -1.7 -0.8 -1.75 -0.75 -1.75 -0.7 -1.8 -0.65 -1.85 -0.65 -1.9 -0.6 -1.95 -0.6 -2.0 -0.55 -2.05 -0.55 -2.1 -0.55 -2.15 -0.6 -2.25 -0.6 -2.3 -0.6 -2.35 -0.65 -2.4 -0.7 -2.45 -0.75 -2.55 -0.85 -2.65 -0.95 -2.85 -1.15 -3.45 -1.95 -3.65 -2.25 -3.85 -2.55 L-3.85 -2.55 M5.75 -0.25 Q5.8 -0.35 5.85 -0.45 5.9 -0.55 5.9 -0.65 5.95 -0.75 5.95 -0.85 6.0 -0.9 6.0 -1.0 6.0 -1.1 6.0 -1.2 6.0 -1.3 6.0 -1.4 6.0 -1.5 5.95 -1.6 5.95 -1.7 5.9 -1.85 5.9 -1.95 5.85 -2.05 5.85 -2.1 5.8 -2.1 5.8 -2.15 5.75 -2.2 5.75 -2.25 5.75 -2.25 5.7 -2.3 5.7 -2.35 5.65 -2.4 5.65 -2.4 5.6 -2.45 5.6 -2.5 5.55 -2.55 5.5 -2.55 5.5 -2.6 5.45 -2.65 5.15 -2.8 4.15 -3.05 4.05 -3.05 3.95 -3.1 3.9 -3.1 3.8 -3.1 3.7 -3.1 3.6 -3.1 3.55 -3.1 3.45 -3.05 3.4 -3.05 3.3 -3.05 3.25 -3.05 3.15 -3.0 3.1 -3.0 3.0 -3.0 2.95 -3.0 2.85 -2.95 2.75 -2.9 2.65 -2.9 2.55 -2.85 2.5 -2.85 2.4 -2.8 2.3 -2.8 2.2 -2.8 2.1 -2.75 2.05 -2.75 1.95 -2.75 1.85 -2.75 1.75 -2.75 1.7 -2.75 1.6 -2.75 1.55 -2.75 1.45 -2.75 1.4 -2.75 1.4 -2.75 1.35 -2.75 1.3 -2.75 1.3 -2.75 1.25 -2.75 1.25 -2.75 1.2 -2.75 1.15 -2.75 1.15 -2.75 1.1 -2.8 1.1 -2.8 1.05 -2.8 1.0 -2.8 1.0 -2.85 0.95 -2.85 0.85 -2.85 0.75 -2.85 0.7 -2.85 0.6 -2.9 0.5 -2.9 0.4 -2.9 0.35 -2.95 0.25 -2.95 0.2 -3.0 0.1 -3.05 0.05 -3.05 -0.05 -3.1 -0.1 -3.15 -0.2 -3.2 -0.25 -3.2 -0.35 -3.25 -0.45 -3.25 -0.55 -3.3 -0.6 -3.3 -0.7 -3.35 -0.8 -3.4 -0.9 -3.45 -0.95 -3.45 -1.05 -3.5 -1.1 -3.55 -1.2 -3.6 -1.35 -3.65 -1.4 -3.7 -1.5 -3.75 -1.55 -3.75 -1.65 -3.8 -1.75 -3.85 -1.8 -3.9 -1.85 -3.9 -1.9 -3.95 -2.0 -4.0 -2.05 -4.0 -2.1 -4.05 -2.15 -4.05 -2.2 -4.1 -2.25 -4.1 -2.35 -4.15 -2.4 -4.15 -2.45 -4.15 -2.55 -4.2 -2.6 -4.2 -2.65 -4.25 -2.75 -4.25 -2.85 -4.3 -2.95 -4.3 -3.05 -4.35 -3.1 -4.35 -3.2 -4.4 -3.3 -4.4 -3.4 -4.4 -3.5 -4.4 -3.6 -4.4 -3.7 -4.35 -3.8 -4.35 -3.85 -4.3 -3.95 -4.3 -4.05 -4.25 -4.15 -4.2 -4.25 -4.15 -4.3 -4.1 -4.35 -4.05 -4.4 -4.05 -4.5 -4.0 -4.5 -3.95 -4.6 -3.9 -4.65 -3.85 -4.7 -3.8 -4.8 -3.75 -4.85 -3.7 -4.9 -3.65 -4.95 -3.6 -5.05 -3.55 -5.1 -3.55 -5.2 -3.5 -5.25 -3.45 -5.35 -3.3 -5.45 -3.15 -5.4 -3.15 -5.35 -3.2 -5.3 -3.2 -5.2 -3.25 -5.2 -3.25 -5.1 -3.3 -5.0 -3.35 -5.0 -3.35 -4.9 -3.4 -4.85 -3.4 -4.8 -3.45 -4.75 -3.45 -4.65 -3.5 -4.6 -3.5 -4.5 -3.55 -4.45 -3.55 -4.4 -3.55 -4.35 -3.55 -4.35 -3.55 -4.3 -3.55 -4.25 -3.55 -4.2 -3.6 -4.2 -3.6 -4.15 -3.65 -4.1 -3.65 -4.05 -3.7 -4.05 -3.7 -4.0 -3.7 -3.95 -3.7 -3.95 -3.7 -3.9 -3.7 -3.9 -3.65 -3.85 -3.65 -3.85 -3.65 -3.8 -3.6 -3.8 -3.6 -3.8 -3.6 -3.75 -3.55 -3.7 -3.5 -3.7 -3.5 -3.65 -3.45 -3.65 -3.35 -3.6 -3.3 -3.6 -3.25 -3.55 -3.15 -3.5 -3.1 -3.45 -3.0 -3.45 -2.95 -3.4 -2.9 -3.35 -2.8 -3.3 -2.75 -3.25 -2.7 -3.2 -2.65 -3.15 -2.55 -3.1 -2.5 -3.05 -2.45 -2.65 -1.9 -2.25 -1.35 -2.25 -1.3 -2.2 -1.25 -2.15 -1.25 -2.05 -1.25 -2.0 -1.35 -1.95 -1.45 -1.85 -1.75 -1.75 -2.05 -1.75 -2.05 -1.7 -2.1 -1.7 -2.1 -1.65 -2.1 -1.65 -2.15 -1.6 -2.15 -1.55 -2.15 -1.55 -2.15 -1.5 -2.2 -1.45 -2.2 -1.45 -2.2 -1.4 -2.2 -1.35 -2.2 -1.3 -2.2 -1.3 -2.15 -1.25 -2.15 -1.05 -2.0 -0.85 -1.85 -0.8 -1.8 -0.75 -1.75 -0.7 -1.7 -0.65 -1.65 -0.6 -1.65 -0.55 -1.6 -0.5 -1.6 -0.4 -1.55 -0.35 -1.55 -0.3 -1.55 -0.25 -1.55 -0.15 -1.55 -0.1 -1.55 0.0 -1.6 0.05 -1.6 0.15 -1.65 0.25 -1.7 0.35 -1.75 0.45 -1.8 0.5 -1.8 0.55 -1.85 0.65 -1.85 0.7 -1.85 0.75 -1.85 0.85 -1.85 0.9 -1.8 0.95 -1.8 1.0 -1.75 1.05 -1.75 1.1 -1.7 1.2 -1.65 1.25 -1.6 1.3 -1.55 1.35 -1.45 1.4 -1.4 1.45 -1.4 1.45 -1.35 1.5 -1.3 1.55 -1.3 1.6 -1.3 1.65 -1.25 1.7 -1.25 1.7 -1.25 1.75 -1.25 1.85 -1.25 1.9 -1.25 1.95 -1.25 2.0 -1.3 2.1 -1.3 2.15 -1.35 2.2 -1.35 2.25 -1.4 2.25 -1.4 2.3 -1.4 2.35 -1.45 2.4 -1.45 2.45 -1.45 2.5 -1.45 2.55 -1.45 2.6 -1.45 2.65 -1.45 2.75 -1.45 2.8 -1.45 2.85 -1.4 2.9 -1.4 2.95 -1.35 3.15 -1.2 3.35 -1.05 3.6 -0.75 3.85 -0.45 4.45 -1.0 5.05 -1.55 5.2 -1.25 5.35 -0.95 5.45 -0.85 5.75 -0.25 L5.75 -0.25 M-4.85 0.25 Q-4.75 -0.05 -4.65 -0.35 -4.5 -0.9 -4.35 -1.45 -4.35 -1.5 -4.35 -1.5 -4.35 -1.55 -4.35 -1.55 -4.35 -1.6 -4.4 -1.6 -4.4 -1.65 -4.45 -1.65 -4.5 -1.65 -4.55 -1.65 -5.2 -1.7 -5.85 -1.75 -5.9 -1.75 -5.95 -1.75 -5.95 -1.6 -6.0 -1.5 -6.0 -1.4 -6.0 -1.3 -6.0 -1.2 -6.0 -1.1 -6.0 -1.0 -5.95 -0.95 -5.9 -0.85 -5.85 -0.8 -5.85 -0.7 -5.75 -0.65 -5.7 -0.55 -5.6 -0.5 -5.5 -0.45 -5.35 -0.35 -5.1 -0.05 -4.85 0.25 L-4.85 0.25 M-4.35 0.65 Q-3.2 1.6 -2.85 1.75 -3.0 1.2 -3.15 0.65 -3.15 0.6 -3.2 0.6 -3.2 0.55 -3.25 0.55 -3.25 0.5 -3.25 0.5 -3.3 0.5 -3.3 0.5 -3.35 0.45 -3.4 0.45 -3.4 0.45 -3.45 0.45 -3.5 0.45 -3.55 0.45 -3.6 0.45 -3.65 0.45 -4.0 0.55 -4.35 0.65 L-4.35 0.65 M-5.65 -2.25 Q-5.55 -2.25 -5.5 -2.25 -5.4 -2.25 -5.35 -2.25 -5.25 -2.25 -5.2 -2.25 -5.15 -2.25 -5.05 -2.25 -5.0 -2.25 -4.9 -2.25 -4.85 -2.2 -4.8 -2.2 -4.75 -2.2 -4.65 -2.2 -4.6 -2.15 -4.55 -2.15 -4.55 -2.2 -4.5 -2.3 -4.5 -2.35 -4.45 -2.4 -4.45 -2.45 -4.4 -2.55 -4.4 -2.6 -4.35 -2.65 -4.35 -2.6 -4.3 -2.75 -4.25 -2.8 -4.25 -2.85 -4.2 -2.9 -4.2 -2.95 -4.15 -3.0 -4.15 -3.05 -4.25 -3.05 -4.35 -3.0 -4.45 -3.0 -4.55 -2.95 -4.65 -2.9 -4.75 -2.85 -4.85 -2.8 -4.95 -2.75 -5.0 -2.7 -5.1 -2.65 -5.2 -2.6 -5.3 -2.55 -5.35 -2.45 -5.45 -2.4 -5.55 -2.35 -5.65 -2.25 L-5.65 -2.25" fill="#000000" fill-rule="evenodd" stroke="none"/>
  </g>
</svg>
