<?xml version="1.0" encoding="UTF-8" standalone="no"?>
<svg xmlns:xlink="http://www.w3.org/1999/xlink" height="5.5px" width="11.6px" xmlns="http://www.w3.org/2000/svg">
  <g transform="matrix(1.0, 0.0, 0.0, 1.0, 5.8, 2.75)">
    <path d="M-4.0 -2.95 Q-3.9 -2.85 -3.6 -2.25 -3.2 -1.7 -2.8 -1.15 -2.65 -1.0 -2.5 -0.85 -2.45 -0.8 -2.4 -0.8 -2.35 -0.75 -2.3 -0.75 -2.2 -0.75 -2.15 -0.75 -2.1 -0.75 -2.05 -0.75 -2.0 -0.8 -1.95 -0.85 -1.9 -0.85 -1.85 -0.9 -1.8 -0.95 -1.8 -1.0 -1.75 -1.1 -1.7 -1.15 -1.7 -1.2 -1.65 -1.25 -1.65 -1.25 -1.65 -1.3 -1.6 -1.35 -1.6 -1.4 -1.6 -1.45 -1.55 -1.5 -1.55 -1.55 -1.55 -1.6 -1.55 -1.65 -1.5 -1.7 -1.5 -1.75 -1.5 -1.75 -1.5 -1.8 -1.5 -1.85 -1.45 -1.95 -1.4 -2.05 -1.4 -2.05 -1.0 -1.65 -0.95 -1.6 -0.9 -1.55 -0.8 -1.5 -0.75 -1.45 -0.65 -1.4 -0.6 -1.4 -0.5 -1.35 -0.45 -1.3 -0.35 -1.3 -0.3 -1.3 -0.2 -1.3 -0.1 -1.3 -0.05 -1.35 0.05 -1.35 0.15 -1.4 0.2 -1.45 0.35 -1.55 0.4 -1.6 0.5 -1.6 0.5 -1.55 0.55 -1.5 0.6 -1.35 0.7 -1.2 1.15 -0.45 1.45 0.05 1.7 0.35 1.75 0.35 1.8 0.35 1.7 -0.05 1.5 -1.05 1.55 -1.05 1.6 -1.0 1.65 -1.0 1.75 -1.0 1.8 -1.0 1.85 -1.0 1.9 -1.0 1.95 -1.0 2.0 -1.0 2.05 -1.0 2.1 -1.0 2.2 -1.05 2.25 -1.05 2.3 -1.1 2.35 -1.1 2.4 -1.15 2.55 -1.2 2.7 -1.25 2.8 -1.25 2.85 -1.25 2.9 -1.2 2.9 -1.15 3.2 -0.8 3.5 -0.45 3.55 -0.4 3.55 -0.4 3.6 -0.35 3.65 -0.3 3.7 -0.25 3.7 -0.25 3.75 -0.2 3.8 -0.2 3.85 -0.15 3.85 -0.1 3.9 -0.1 3.95 -0.1 4.0 -0.05 4.0 -0.05 4.05 -0.05 4.1 -0.05 4.15 -0.05 4.2 -0.05 4.25 -0.05 4.3 -0.1 4.35 -0.1 4.35 -0.1 4.4 -0.15 4.4 -0.2 4.45 -0.2 4.5 -0.25 4.5 -0.25 4.5 -0.3 4.55 -0.35 4.55 -0.4 4.55 -0.4 4.6 -0.45 4.65 -0.5 4.65 -0.55 4.7 -0.55 4.75 -0.6 4.75 -0.65 4.8 -0.7 4.8 -0.7 4.85 -0.75 4.85 -0.8 4.9 -0.85 4.9 -0.85 4.9 -0.9 4.95 -0.95 4.95 -1.0 5.0 -1.0 5.0 -1.05 5.0 -1.05 5.0 -1.05 5.05 -1.05 5.1 -1.05 5.3 -0.5 5.5 0.05 5.5 0.1 5.5 0.15 5.5 0.15 5.5 0.2 5.5 0.25 5.45 0.25 5.45 0.3 5.4 0.35 4.85 1.55 4.3 2.75 4.25 2.85 4.2 2.95 4.15 3.0 4.05 3.1 4.0 3.2 3.95 3.3 3.9 3.35 3.85 3.45 3.8 3.5 3.7 3.6 3.65 3.65 3.6 3.75 3.5 3.8 3.45 3.9 3.35 4.0 3.3 4.05 3.2 4.1 3.15 4.15 3.05 4.2 3.0 4.25 2.9 4.35 2.8 4.4 2.7 4.45 2.65 4.5 2.55 4.5 2.45 4.55 2.35 4.6 2.25 4.65 2.2 4.7 2.1 4.7 2.0 4.75 1.9 4.75 1.85 4.75 1.8 4.75 1.75 4.8 1.7 4.8 1.65 4.75 1.6 4.75 1.55 4.75 1.5 4.75 1.45 4.7 1.45 4.7 1.4 4.65 1.35 4.65 1.3 4.6 1.3 4.6 1.25 4.55 1.2 4.55 1.15 4.5 1.1 4.5 1.05 4.45 1.0 4.4 0.95 4.35 0.9 4.35 0.85 4.3 0.8 4.25 0.75 4.2 0.75 4.2 0.7 4.15 0.65 4.1 0.6 4.05 0.6 4.05 0.55 4.0 0.5 3.95 0.05 3.5 -0.4 3.05 -0.8 2.7 -1.2 2.35 -1.8 1.75 -2.2 1.45 -2.25 1.4 -2.3 1.35 -2.35 1.35 -2.4 1.35 -2.45 1.35 -2.45 1.3 -2.5 1.3 -2.55 1.3 -2.55 1.25 -2.55 1.25 -2.6 1.2 -2.6 1.15 -2.6 1.15 -2.65 1.1 -2.65 1.0 -2.65 1.0 -2.7 1.0 -2.7 0.95 -2.7 0.9 -2.7 0.85 -2.7 0.85 -2.7 0.8 -2.75 0.75 -2.75 0.7 -2.75 0.65 -2.75 0.6 -2.8 0.55 -2.8 0.5 -2.85 0.45 -2.85 0.35 -2.9 0.3 -2.95 0.25 -2.95 0.2 -3.0 0.15 -3.0 0.1 -3.05 0.05 -3.05 0.0 -3.1 -0.05 -3.15 -0.1 -3.2 -0.1 -3.25 -0.15 -3.25 -0.15 -3.3 -0.2 -3.35 -0.2 -3.4 -0.2 -3.5 -0.25 -3.55 -0.25 -3.6 -0.25 -3.65 -0.25 -3.7 -0.25 -3.75 -0.25 -3.75 -0.25 -3.8 -0.25 -3.85 -0.25 -3.85 -0.2 -3.9 -0.2 -3.9 -0.2 -3.95 -0.2 -3.95 -0.2 -4.0 -0.15 -4.0 -0.15 -4.05 -0.1 -4.1 -0.1 -4.15 -0.1 -4.15 -0.05 -4.2 -0.05 -4.25 -0.05 -4.3 -0.05 -4.2 -0.35 -4.1 -0.65 -4.0 -1.15 -3.9 -1.65 -3.9 -1.7 -3.9 -1.75 -3.9 -1.8 -3.9 -1.85 -3.9 -1.9 -3.9 -1.95 -3.9 -2.0 -3.9 -2.05 -3.95 -2.1 -3.95 -2.1 -3.95 -2.15 -4.0 -2.2 -4.0 -2.25 -4.05 -2.25 -4.05 -2.3 -4.1 -2.35 -4.1 -2.4 -4.1 -2.45 -4.1 -2.5 -4.15 -2.5 -4.15 -2.55 -4.15 -2.6 -4.15 -2.65 -4.15 -2.65 -4.15 -2.7 -4.1 -2.75 -4.1 -2.75 -4.1 -2.8 -4.1 -2.85 -4.05 -2.85 -4.05 -2.9 -4.05 -2.9 -4.0 -2.95 -4.0 -2.95 L-4.0 -2.95" fill="#000000" fill-rule="evenodd" stroke="none"/>
  </g>
</svg>
