<?xml version="1.0" encoding="UTF-8" standalone="no"?>
<svg xmlns:xlink="http://www.w3.org/1999/xlink" height="11.35px" width="24.6px" xmlns="http://www.w3.org/2000/svg">
  <g transform="matrix(1.0, 0.0, 0.0, 1.0, 12.5, 8.65)">
    <path d="M5.9 -5.0 Q5.85 -4.95 5.85 -4.85 5.8 -4.8 5.75 -4.75 5.7 -4.65 5.7 -4.6 5.65 -4.5 5.6 -4.45 5.55 -4.4 5.5 -4.3 5.45 -4.25 5.4 -4.15 5.35 -4.1 5.3 -4.0 5.25 -3.95 5.2 -3.9 5.05 -3.75 4.95 -3.55 4.8 -3.4 4.65 -3.25 4.5 -3.15 4.35 -3.0 4.25 -2.9 4.1 -2.8 3.95 -2.7 3.8 -2.6 3.7 -2.5 3.55 -2.4 3.45 -2.35 3.3 -2.25 3.2 -2.2 3.1 -2.15 3.1 -2.4 3.1 -2.6 3.05 -2.8 3.05 -3.0 3.0 -3.15 2.95 -3.3 2.9 -3.5 2.85 -3.6 2.8 -3.75 2.75 -3.9 2.7 -4.0 2.6 -4.1 2.55 -4.2 2.5 -4.3 2.45 -4.35 2.35 -4.45 2.3 -4.55 2.2 -4.6 2.15 -4.7 2.05 -4.75 2.0 -4.8 1.9 -4.9 1.8 -4.95 1.75 -5.0 1.7 -5.05 1.65 -5.1 1.6 -5.15 1.55 -5.2 1.5 -5.25 1.5 -5.3 1.5 -5.35 1.5 -5.4 1.5 -5.45 1.55 -5.45 1.6 -5.5 1.65 -5.55 1.7 -5.55 1.75 -5.6 1.8 -5.6 1.9 -5.6 1.95 -5.6 2.0 -5.65 2.1 -5.65 2.15 -5.65 2.2 -5.65 2.3 -5.65 2.3 -5.65 2.4 -5.65 2.55 -5.65 2.65 -5.65 2.8 -5.65 2.9 -5.65 3.0 -5.65 3.15 -5.6 3.25 -5.6 3.35 -5.55 3.45 -5.55 3.6 -5.5 3.7 -5.5 3.85 -5.45 4.25 -5.35 4.1 -5.35 4.3 -5.35 4.4 -5.3 4.45 -5.3 4.55 -5.25 4.6 -5.25 4.7 -5.2 4.8 -5.2 4.85 -5.2 4.95 -5.15 5.05 -5.15 5.15 -5.1 5.25 -5.1 5.35 -5.1 5.45 -5.05 5.55 -5.05 5.65 -5.0 5.8 -5.0 5.9 -5.0 L5.9 -5.0" fill="#3f0a0a" fill-opacity="0.65882355" fill-rule="evenodd" stroke="none"/>
  </g>
</svg>
