<?xml version="1.0" encoding="UTF-8" standalone="no"?>
<svg xmlns:xlink="http://www.w3.org/1999/xlink" height="13.6px" width="16.3px" xmlns="http://www.w3.org/2000/svg">
  <g transform="matrix(1.0, 0.0, 0.0, 1.0, 8.2, 6.9)">
    <path d="M-0.5 6.6 L-0.7 6.5 -0.95 6.4 -1.2 6.25 -1.55 6.05 -1.85 5.9 -2.25 5.6 -2.65 5.35 -2.95 5.1 -3.25 4.9 -3.6 4.65 -3.9 4.35 -4.15 4.15 -4.4 3.95 -4.75 3.65 -5.05 3.3 -5.4 3.0 -5.7 2.65 -5.95 2.35 -6.2 2.05 -6.4 1.75 -6.65 1.45 -6.8 1.15 -7.0 0.9 -7.25 0.4 -7.45 -0.1 -7.6 -0.5 -7.75 -0.9 -7.8 -1.15 -7.85 -1.4 -7.9 -1.65 -7.9 -1.95 -7.9 -2.35 -7.95 -2.8 -7.9 -3.05 -7.85 -3.3 -7.8 -3.55 -7.75 -3.8 -7.65 -4.1 -7.55 -4.4 -7.45 -4.65 -7.3 -4.9 -7.15 -5.1 -7.05 -5.3 -6.85 -5.5 -6.7 -5.7 -6.5 -5.85 -6.35 -6.0 -6.1 -6.15 -5.85 -6.35 -5.65 -6.45 -5.4 -6.55 -5.1 -6.65 -4.85 -6.75 -4.55 -6.8 -4.25 -6.85 -3.8 -6.85 -3.3 -6.9 -3.0 -6.85 -2.75 -6.8 -2.45 -6.75 -2.15 -6.65 -1.9 -6.55 -1.6 -6.4 -1.4 -6.3 -1.2 -6.15 -1.0 -5.95 -0.8 -5.75 -0.65 -5.55 -0.45 -5.3 -0.3 -5.0 -0.15 -4.7 -0.15 -4.8 -0.1 -4.85 0.0 -5.05 0.1 -5.25 0.25 -5.45 0.4 -5.65 0.55 -5.85 0.75 -6.05 0.9 -6.15 1.1 -6.25 1.25 -6.35 1.45 -6.45 1.6 -6.55 1.8 -6.6 2.05 -6.7 2.3 -6.75 2.55 -6.8 2.8 -6.8 3.15 -6.85 3.5 -6.85 3.85 -6.85 4.2 -6.8 4.55 -6.75 4.85 -6.7 5.15 -6.6 5.4 -6.5 5.7 -6.35 5.95 -6.2 6.15 -6.05 6.35 -5.95 6.65 -5.65 6.9 -5.4 7.05 -5.15 7.2 -4.9 7.35 -4.65 7.45 -4.4 7.55 -4.15 7.65 -3.85 7.7 -3.55 7.75 -3.25 7.8 -2.9 7.8 -2.6 7.8 -2.05 7.8 -1.55 7.75 -1.25 7.7 -0.95 7.65 -0.75 7.6 -0.55 7.5 -0.3 7.4 -0.05 7.3 0.25 7.15 0.55 7.0 0.85 6.85 1.15 6.55 1.5 6.3 1.9 6.1 2.15 5.9 2.45 5.65 2.7 5.4 3.0 4.95 3.45 4.45 3.9 4.1 4.2 3.7 4.55 3.35 4.8 2.95 5.1 2.55 5.35 2.2 5.6 1.85 5.8 1.5 6.0 0.95 6.3 0.4 6.55 0.15 6.65 -0.05 6.7 -0.15 6.7 -0.3 6.7 -0.5 6.6" fill="#cdcdcd" fill-rule="evenodd" stroke="none"/>
    <path d="M-0.4 6.65 L-0.5 6.6 -0.85 6.45 -1.15 6.3 -1.55 6.05 -1.95 5.8 -2.3 5.55 -2.7 5.3 -3.1 5.0 -3.5 4.7 -3.85 4.4 -4.2 4.1 -4.6 3.75 -5.0 3.4 -5.35 3.0 -5.7 2.6 -5.9 2.4 -6.05 2.2 -6.3 1.9 -6.5 1.6 -6.7 1.3 -6.9 1.0 -7.05 0.75 -7.2 0.45 -7.35 0.1 -7.5 -0.2 -7.6 -0.55 -7.75 -0.9 -7.8 -1.2 -7.85 -1.55 -7.9 -1.8 -7.95 -2.05 -7.95 -2.4 -7.95 -2.7 -7.9 -3.0 -7.85 -3.25 -7.85 -3.45 -7.8 -3.65 -7.75 -3.9 -7.65 -4.15 -7.55 -4.4 -7.45 -4.65 -7.35 -4.85 -7.2 -5.05 -7.05 -5.3 -6.9 -5.5 -6.65 -5.75 -6.4 -5.95 -6.15 -6.15 -5.9 -6.3 -5.7 -6.4 -5.45 -6.55 -5.2 -6.6 -4.9 -6.7 -4.65 -6.75 -4.4 -6.8 -4.15 -6.85 -3.85 -6.9 -3.45 -6.85 -3.0 -6.85 -2.75 -6.8 -2.5 -6.75 -2.25 -6.7 -1.95 -6.6 -1.8 -6.5 -1.6 -6.4 -1.45 -6.3 -1.25 -6.15 -1.05 -6.0 -0.9 -5.85 -0.75 -5.65 -0.6 -5.45 -0.45 -5.25 -0.35 -5.05 -0.25 -4.85 -0.15 -4.65 -0.15 -4.7 -0.1 -4.75 -0.05 -4.9 0.0 -5.05 0.05 -5.2 0.15 -5.3 0.25 -5.5 0.4 -5.65 0.6 -5.85 0.85 -6.1 1.0 -6.2 1.15 -6.3 1.4 -6.4 1.6 -6.55 1.85 -6.6 2.1 -6.7 2.3 -6.75 2.5 -6.75 2.8 -6.8 3.1 -6.85 3.5 -6.85 3.9 -6.85 4.2 -6.8 4.5 -6.75 4.8 -6.7 5.1 -6.6 5.4 -6.5 5.7 -6.35 5.9 -6.25 6.15 -6.1 6.3 -5.95 6.5 -5.85 6.7 -5.6 6.9 -5.4 7.05 -5.15 7.2 -4.95 7.3 -4.7 7.4 -4.5 7.5 -4.2 7.6 -3.95 7.65 -3.65 7.75 -3.35 7.75 -3.1 7.8 -2.85 7.8 -2.25 7.8 -1.6 7.75 -1.25 7.7 -0.95 7.6 -0.65 7.5 -0.3 7.4 -0.05 7.25 0.25 7.1 0.55 6.95 0.85 6.85 1.05 6.75 1.25 6.6 1.5 6.4 1.8 6.25 2.0 6.1 2.15 5.85 2.5 5.6 2.8 5.2 3.15 4.85 3.55 4.5 3.85 4.15 4.2 3.8 4.45 3.5 4.7 3.15 4.95 2.8 5.2 2.45 5.45 2.05 5.7 1.7 5.9 1.3 6.1 0.9 6.3 0.45 6.55 0.2 6.6 -0.05 6.7 -0.15 6.7 -0.25 6.7 -0.4 6.65 -0.4 6.65" fill="#ababab" fill-rule="evenodd" stroke="none"/>
    <path d="M-0.45 6.65 L-0.6 6.55 -0.95 6.4 -1.25 6.2 -1.55 6.05 -1.85 5.9 -2.2 5.65 -2.6 5.4 -3.05 5.05 -3.55 4.65 -3.8 4.45 -4.05 4.25 -4.35 4.0 -4.65 3.7 -5.15 3.25 -5.6 2.75 -5.9 2.4 -6.15 2.1 -6.4 1.8 -6.6 1.45 -6.75 1.2 -6.9 0.95 -7.1 0.7 -7.25 0.4 -7.4 0.05 -7.5 -0.25 -7.6 -0.5 -7.7 -0.75 -7.75 -1.0 -7.8 -1.25 -7.85 -1.5 -7.9 -1.75 -7.9 -2.4 -7.9 -3.0 -7.85 -3.35 -7.8 -3.7 -7.7 -4.0 -7.6 -4.3 -7.45 -4.65 -7.25 -5.0 -7.05 -5.3 -6.85 -5.55 -6.6 -5.75 -6.35 -6.0 -6.1 -6.15 -5.85 -6.3 -5.6 -6.45 -5.35 -6.55 -5.1 -6.65 -4.9 -6.7 -4.65 -6.75 -4.4 -6.8 -4.15 -6.85 -3.9 -6.85 -3.6 -6.85 -3.3 -6.85 -2.95 -6.85 -2.65 -6.8 -2.4 -6.75 -2.15 -6.65 -1.95 -6.55 -1.7 -6.45 -1.45 -6.3 -1.2 -6.1 -1.0 -5.9 -0.8 -5.7 -0.65 -5.55 -0.55 -5.4 -0.45 -5.25 -0.35 -5.05 -0.25 -4.85 -0.15 -4.65 -0.15 -4.75 -0.1 -4.85 0.05 -5.1 0.15 -5.35 0.3 -5.55 0.45 -5.75 0.65 -5.9 0.85 -6.1 1.0 -6.2 1.2 -6.3 1.4 -6.4 1.6 -6.55 1.85 -6.6 2.1 -6.7 2.35 -6.75 2.6 -6.8 2.9 -6.8 3.2 -6.85 3.7 -6.85 4.15 -6.85 4.45 -6.75 4.75 -6.7 5.1 -6.6 5.4 -6.5 5.6 -6.4 5.85 -6.3 6.1 -6.15 6.3 -5.95 6.6 -5.7 6.85 -5.4 7.05 -5.2 7.2 -4.95 7.3 -4.75 7.4 -4.55 7.5 -4.3 7.6 -4.05 7.65 -3.75 7.7 -3.5 7.75 -3.2 7.8 -2.9 7.8 -2.3 7.8 -1.65 7.75 -1.4 7.7 -1.1 7.6 -0.75 7.55 -0.4 7.4 0.0 7.25 0.35 7.05 0.7 6.9 1.0 6.75 1.25 6.6 1.5 6.35 1.8 6.15 2.1 5.85 2.45 5.55 2.8 5.1 3.3 4.6 3.75 4.2 4.1 3.8 4.45 3.4 4.75 3.0 5.05 2.75 5.2 2.5 5.4 2.15 5.6 1.8 5.85 1.4 6.05 1.0 6.25 0.7 6.4 0.35 6.55 0.2 6.6 0.0 6.7 -0.1 6.7 -0.25 6.7 -0.45 6.65 -0.45 6.65" fill="#8a8a8a" fill-rule="evenodd" stroke="none"/>
    <path d="M-0.35 6.65 L-0.5 6.6 -0.7 6.5 -0.95 6.4 -1.3 6.2 -1.7 5.95 -2.1 5.7 -2.5 5.4 -2.85 5.15 -3.2 4.9 -3.6 4.6 -3.95 4.35 -4.3 4.0 -4.7 3.7 -5.1 3.25 -5.55 2.8 -5.75 2.55 -6.0 2.3 -6.2 2.05 -6.4 1.8 -6.65 1.35 -6.95 0.9 -7.2 0.4 -7.5 -0.15 -7.6 -0.5 -7.75 -0.9 -7.8 -1.25 -7.85 -1.55 -7.9 -1.95 -7.95 -2.35 -7.9 -2.75 -7.85 -3.2 -7.8 -3.55 -7.75 -3.85 -7.65 -4.1 -7.6 -4.35 -7.45 -4.6 -7.3 -4.9 -7.15 -5.1 -7.0 -5.35 -6.75 -5.6 -6.55 -5.85 -6.3 -6.0 -6.1 -6.2 -5.85 -6.3 -5.65 -6.45 -5.4 -6.55 -5.15 -6.65 -4.9 -6.7 -4.65 -6.75 -4.4 -6.8 -4.15 -6.85 -3.6 -6.85 -3.1 -6.85 -2.8 -6.8 -2.55 -6.75 -2.3 -6.7 -2.05 -6.6 -1.75 -6.45 -1.5 -6.35 -1.3 -6.2 -1.15 -6.05 -0.95 -5.9 -0.8 -5.7 -0.6 -5.5 -0.45 -5.3 -0.3 -5.0 -0.15 -4.7 -0.15 -4.7 -0.15 -4.7 -0.1 -4.8 -0.05 -4.9 0.05 -5.1 0.15 -5.35 0.3 -5.5 0.4 -5.7 0.6 -5.85 0.8 -6.05 1.0 -6.2 1.2 -6.3 1.4 -6.4 1.6 -6.5 1.85 -6.6 2.1 -6.7 2.35 -6.75 2.65 -6.8 2.9 -6.8 3.2 -6.85 3.5 -6.85 3.8 -6.85 4.05 -6.8 4.3 -6.8 4.6 -6.75 4.85 -6.7 5.1 -6.6 5.35 -6.5 5.6 -6.4 5.85 -6.25 5.95 -6.2 6.05 -6.15 6.3 -5.95 6.5 -5.8 6.65 -5.65 6.8 -5.5 6.95 -5.3 7.1 -5.1 7.2 -4.9 7.3 -4.7 7.4 -4.45 7.55 -4.2 7.6 -3.9 7.7 -3.6 7.7 -3.35 7.75 -3.15 7.8 -2.75 7.8 -2.4 7.8 -2.05 7.8 -1.65 7.75 -1.4 7.7 -1.1 7.65 -0.85 7.6 -0.6 7.45 -0.25 7.35 0.05 7.25 0.35 7.1 0.65 6.9 0.95 6.75 1.25 6.55 1.5 6.4 1.75 6.25 2.0 6.05 2.2 5.8 2.5 5.55 2.8 5.25 3.15 4.95 3.45 4.6 3.75 4.25 4.05 3.95 4.35 3.6 4.6 3.3 4.85 3.0 5.05 2.5 5.4 2.0 5.7 1.7 5.9 1.35 6.1 0.9 6.3 0.45 6.55 0.2 6.6 -0.1 6.7 -0.15 6.7 -0.2 6.7 -0.35 6.65 -0.35 6.65" fill="#6b6b6b" fill-rule="evenodd" stroke="none"/>
    <path d="M-0.35 6.65 L-0.5 6.6 -0.7 6.5 -0.9 6.4 -1.2 6.25 -1.55 6.05 -1.85 5.85 -2.15 5.7 -2.45 5.5 -2.7 5.3 -3.1 5.0 -3.55 4.65 -3.8 4.45 -4.1 4.2 -4.45 3.9 -4.75 3.6 -5.15 3.2 -5.55 2.8 -5.8 2.5 -6.1 2.15 -6.3 1.9 -6.45 1.65 -6.65 1.4 -6.8 1.2 -6.95 0.95 -7.05 0.7 -7.2 0.4 -7.35 0.1 -7.5 -0.2 -7.6 -0.5 -7.7 -0.85 -7.8 -1.15 -7.85 -1.5 -7.9 -1.8 -7.9 -2.35 -7.9 -2.85 -7.9 -3.1 -7.85 -3.35 -7.8 -3.6 -7.75 -3.8 -7.65 -4.05 -7.6 -4.35 -7.45 -4.65 -7.3 -4.95 -7.1 -5.2 -6.95 -5.4 -6.7 -5.7 -6.4 -5.95 -6.15 -6.1 -5.95 -6.25 -5.7 -6.4 -5.4 -6.55 -5.2 -6.6 -4.95 -6.7 -4.65 -6.75 -4.35 -6.8 -4.0 -6.85 -3.6 -6.9 -3.25 -6.85 -2.85 -6.8 -2.55 -6.75 -2.3 -6.7 -2.1 -6.65 -1.95 -6.55 -1.75 -6.45 -1.5 -6.35 -1.3 -6.2 -1.1 -6.05 -0.9 -5.85 -0.7 -5.6 -0.55 -5.4 -0.45 -5.2 -0.35 -5.05 -0.3 -4.95 -0.2 -4.8 -0.15 -4.65 -0.15 -4.7 -0.1 -4.75 -0.05 -4.9 0.0 -5.05 0.1 -5.2 0.2 -5.4 0.35 -5.55 0.5 -5.75 0.6 -5.9 0.75 -6.0 0.9 -6.1 1.1 -6.25 1.25 -6.35 1.45 -6.45 1.7 -6.55 1.95 -6.65 2.15 -6.7 2.35 -6.75 2.6 -6.8 2.85 -6.8 3.3 -6.85 3.7 -6.85 4.0 -6.8 4.3 -6.8 4.6 -6.75 4.85 -6.7 5.1 -6.6 5.3 -6.55 5.55 -6.4 5.8 -6.3 6.0 -6.2 6.2 -6.05 6.35 -5.9 6.55 -5.75 6.75 -5.55 6.95 -5.3 7.05 -5.15 7.15 -5.0 7.3 -4.7 7.45 -4.45 7.55 -4.15 7.65 -3.85 7.7 -3.55 7.75 -3.3 7.75 -3.05 7.8 -2.8 7.8 -2.25 7.8 -1.7 7.75 -1.4 7.7 -1.1 7.6 -0.8 7.55 -0.45 7.45 -0.15 7.35 0.1 7.2 0.35 7.1 0.6 6.9 0.95 6.75 1.25 6.5 1.6 6.25 1.95 6.0 2.25 5.8 2.55 5.45 2.95 5.1 3.3 4.7 3.65 4.3 4.05 4.0 4.25 3.75 4.5 3.35 4.8 2.9 5.1 2.5 5.4 2.1 5.65 1.7 5.9 1.3 6.1 0.85 6.3 0.4 6.55 0.2 6.6 0.05 6.65 -0.1 6.7 -0.2 6.7 -0.35 6.65 -0.35 6.65" fill="#484848" fill-rule="evenodd" stroke="none"/>
    <path d="M-0.35 6.65 L-0.55 6.6 -0.85 6.45 -1.1 6.3 -1.4 6.15 -1.65 6.0 -2.15 5.65 -2.65 5.35 -3.05 5.05 -3.45 4.75 -3.85 4.4 -4.2 4.1 -4.55 3.8 -4.85 3.5 -5.2 3.15 -5.5 2.85 -5.75 2.55 -6.0 2.25 -6.25 1.95 -6.45 1.65 -6.65 1.4 -6.8 1.15 -7.0 0.8 -7.15 0.5 -7.3 0.2 -7.5 -0.15 -7.6 -0.45 -7.7 -0.75 -7.75 -1.05 -7.8 -1.3 -7.85 -1.6 -7.9 -1.85 -7.9 -2.35 -7.9 -2.85 -7.85 -3.15 -7.8 -3.5 -7.75 -3.8 -7.65 -4.05 -7.55 -4.3 -7.45 -4.55 -7.35 -4.75 -7.25 -4.95 -7.1 -5.2 -6.95 -5.4 -6.7 -5.65 -6.45 -5.9 -6.2 -6.1 -5.95 -6.25 -5.65 -6.4 -5.35 -6.55 -5.1 -6.65 -4.85 -6.7 -4.6 -6.75 -4.35 -6.8 -4.0 -6.85 -3.65 -6.9 -3.25 -6.85 -2.9 -6.8 -2.65 -6.75 -2.4 -6.7 -2.25 -6.65 -2.05 -6.6 -1.85 -6.5 -1.7 -6.45 -1.45 -6.3 -1.25 -6.15 -1.05 -5.95 -0.8 -5.75 -0.65 -5.55 -0.55 -5.35 -0.4 -5.15 -0.3 -4.95 -0.25 -4.8 -0.15 -4.65 -0.15 -4.65 -0.15 -4.65 -0.15 -4.7 -0.15 -4.75 -0.05 -4.95 0.05 -5.15 0.2 -5.4 0.35 -5.6 0.55 -5.85 0.8 -6.05 1.0 -6.15 1.15 -6.3 1.4 -6.4 1.6 -6.5 1.75 -6.55 1.95 -6.65 2.15 -6.7 2.4 -6.75 2.65 -6.8 2.9 -6.8 3.25 -6.85 3.6 -6.85 3.95 -6.8 4.3 -6.8 4.55 -6.75 4.8 -6.7 5.05 -6.6 5.3 -6.55 5.55 -6.4 5.85 -6.3 6.05 -6.15 6.25 -6.0 6.45 -5.85 6.6 -5.7 6.8 -5.5 6.95 -5.3 7.05 -5.1 7.2 -4.95 7.3 -4.75 7.35 -4.55 7.45 -4.35 7.55 -4.15 7.6 -3.8 7.7 -3.45 7.75 -3.15 7.8 -2.8 7.8 -2.3 7.8 -1.75 7.75 -1.55 7.75 -1.3 7.7 -1.05 7.65 -0.8 7.55 -0.55 7.5 -0.35 7.4 -0.05 7.25 0.25 7.1 0.55 6.95 0.9 6.8 1.15 6.6 1.45 6.4 1.7 6.2 2.0 6.0 2.25 5.8 2.5 5.6 2.75 5.35 3.0 5.0 3.35 4.65 3.75 4.3 4.05 3.9 4.35 3.6 4.6 3.25 4.85 2.9 5.1 2.6 5.3 2.25 5.5 1.95 5.75 1.55 5.95 1.15 6.15 0.95 6.3 0.7 6.4 0.45 6.5 0.15 6.65 0.0 6.65 -0.15 6.7 -0.15 6.7 -0.2 6.7 -0.35 6.65 -0.35 6.65" fill="#2b2b2b" fill-rule="evenodd" stroke="none"/>
    <path d="M-0.4 6.65 L-0.6 6.55 -0.95 6.35 -1.3 6.2 -1.6 6.0 -1.95 5.8 -2.3 5.55 -2.65 5.35 -3.05 5.0 -3.5 4.7 -3.85 4.4 -4.25 4.05 -4.65 3.7 -5.05 3.35 -5.35 3.0 -5.65 2.65 -5.85 2.4 -6.05 2.15 -6.3 1.9 -6.5 1.6 -6.7 1.3 -6.9 1.0 -7.05 0.75 -7.2 0.45 -7.3 0.2 -7.45 -0.1 -7.55 -0.35 -7.65 -0.6 -7.7 -0.85 -7.75 -1.1 -7.8 -1.35 -7.85 -1.6 -7.9 -2.0 -7.95 -2.35 -7.9 -2.7 -7.9 -3.1 -7.85 -3.25 -7.8 -3.45 -7.75 -3.7 -7.7 -3.9 -7.65 -4.1 -7.6 -4.3 -7.45 -4.6 -7.3 -4.9 -7.15 -5.1 -7.0 -5.3 -6.85 -5.5 -6.7 -5.65 -6.5 -5.85 -6.35 -6.0 -6.1 -6.15 -5.85 -6.35 -5.6 -6.45 -5.35 -6.55 -5.1 -6.65 -4.85 -6.7 -4.55 -6.75 -4.3 -6.8 -3.95 -6.85 -3.6 -6.9 -3.25 -6.85 -2.9 -6.8 -2.7 -6.8 -2.5 -6.75 -2.25 -6.65 -2.0 -6.6 -1.8 -6.45 -1.55 -6.35 -1.4 -6.25 -1.2 -6.1 -1.05 -5.95 -0.9 -5.8 -0.75 -5.65 -0.6 -5.45 -0.45 -5.25 -0.35 -5.05 -0.25 -4.85 -0.15 -4.6 -0.15 -4.65 -0.15 -4.65 -0.1 -4.75 -0.05 -4.9 0.05 -5.1 0.2 -5.35 0.35 -5.6 0.55 -5.8 0.7 -5.95 0.85 -6.1 1.0 -6.2 1.15 -6.3 1.4 -6.4 1.6 -6.5 1.8 -6.6 2.05 -6.65 2.35 -6.75 2.7 -6.8 3.1 -6.8 3.5 -6.85 3.85 -6.85 4.25 -6.8 4.5 -6.75 4.8 -6.7 5.1 -6.6 5.35 -6.5 5.6 -6.4 5.9 -6.25 6.1 -6.1 6.3 -6.0 6.6 -5.65 6.9 -5.35 7.0 -5.2 7.15 -5.0 7.3 -4.7 7.4 -4.45 7.55 -4.1 7.65 -3.8 7.7 -3.55 7.75 -3.25 7.75 -3.0 7.8 -2.75 7.8 -2.25 7.8 -1.75 7.75 -1.45 7.7 -1.15 7.65 -0.85 7.55 -0.55 7.45 -0.3 7.4 0.0 7.3 0.2 7.2 0.4 7.05 0.7 6.9 1.0 6.75 1.25 6.6 1.45 6.4 1.75 6.2 2.05 6.0 2.3 5.8 2.55 5.55 2.8 5.3 3.05 4.9 3.5 4.45 3.9 4.1 4.2 3.75 4.45 3.35 4.8 2.9 5.1 2.5 5.4 2.05 5.7 1.65 5.9 1.3 6.1 0.9 6.3 0.5 6.5 0.25 6.6 0.0 6.65 -0.1 6.7 -0.15 6.7 -0.4 6.65 -0.4 6.65" fill="#000000" fill-rule="evenodd" stroke="none"/>
  </g>
</svg>
