<?xml version="1.0" encoding="UTF-8" standalone="no"?>
<svg xmlns:xlink="http://www.w3.org/1999/xlink" height="16.45px" width="10.5px" xmlns="http://www.w3.org/2000/svg">
  <g transform="matrix(1.0, 0.0, 0.0, 1.0, 5.25, 8.25)">
    <path d="M4.85 0.5 Q4.85 -1.55 3.4 -3.0 2.0 -4.45 0.0 -4.45 -2.0 -4.45 -3.4 -3.0 -4.85 -1.55 -4.85 0.5 -4.85 2.55 -3.4 4.0 -2.0 5.45 0.0 5.45 2.0 5.45 3.4 4.0 4.85 2.55 4.85 0.5 L4.85 0.5 Z" fill="none" stroke="#000000" stroke-linecap="round" stroke-linejoin="round" stroke-width="0.8"/>
    <path d="M-1.0 0.0 Q-1.0 -0.55 -1.05 -0.9 -1.15 -1.25 -1.25 -1.25 -1.3 -1.25 -1.4 -0.9 -1.45 -0.55 -1.45 0.0 -1.45 0.5 -1.4 0.85 -1.3 1.2 -1.25 1.2 -1.15 1.2 -1.05 0.85 -1.0 0.5 -1.0 0.0 L-1.0 0.0 Z" fill="none" stroke="#000000" stroke-linecap="round" stroke-linejoin="round" stroke-width="0.7000000000000001"/>
    <path d="M1.45 -0.05 Q1.45 -0.55 1.4 -0.9 1.35 -1.3 1.25 -1.3 1.15 -1.3 1.1 -0.9 1.0 -0.55 1.0 -0.05 1.0 0.45 1.1 0.85 1.15 1.2 1.25 1.2 1.35 1.2 1.4 0.85 1.45 0.45 1.45 -0.05 L1.45 -0.05 Z" fill="none" stroke="#000000" stroke-linecap="round" stroke-linejoin="round" stroke-width="0.7000000000000001"/>
    <path d="M-2.45 2.6 Q-2.05 2.8 -1.65 2.95 -1.3 3.1 -0.9 3.15 -0.5 3.2 -0.15 3.25 0.2 3.25 0.55 3.2 0.85 3.15 1.15 3.1 1.45 3.05 1.7 2.95 1.95 2.9 2.2 2.8 2.35 2.7 2.55 2.6" fill="none" stroke="#000000" stroke-linecap="round" stroke-linejoin="round" stroke-width="0.8"/>
  </g>
</svg>
