<?xml version="1.0" encoding="UTF-8" standalone="no"?>
<svg xmlns:xlink="http://www.w3.org/1999/xlink" height="200.4px" width="159.8px" xmlns="http://www.w3.org/2000/svg">
  <g transform="matrix(1.0, 0.0, 0.0, 1.0, 79.9, 100.2)">
    <path d="M59.45 50.95 Q59.4 50.2 59.35 49.4 59.25 48.5 59.15 47.55 59.05 46.55 58.95 45.5 58.85 44.35 58.7 43.2 58.55 41.95 58.4 40.65 58.25 39.3 58.05 37.95 57.85 36.5 57.65 35.05 57.4 33.5 57.15 31.95 56.7 29.0 56.15 26.25 55.7 23.85 55.2 21.5 54.8 19.6 54.25 17.35 54.05 16.4 53.35 13.55 52.8 11.25 52.45 9.8 52.0 7.75 51.6 5.85 51.15 3.65 50.8 1.4 50.35 -1.1 49.95 -3.85 48.85 -13.25 48.45 -20.1 48.3 -22.75 48.2 -25.35 48.15 -27.6 48.1 -30.0 48.1 -31.8 48.1 -34.2 48.1 -40.45 48.1 -38.2 48.1 -40.4 48.05 -42.1 48.05 -44.2 47.95 -46.15 47.85 -48.35 47.7 -50.55 47.5 -52.95 47.2 -55.5 46.95 -57.65 46.7 -59.55 46.45 -61.3 46.15 -62.85 45.9 -64.25 45.65 -65.45 45.4 -66.55 45.15 -67.45 44.9 -68.3 44.65 -68.95 44.45 -69.55 44.2 -70.05 44.05 -70.45 43.85 -70.8 43.7 -71.0 43.55 -71.3 42.55 -72.9 41.25 -74.25 40.0 -75.55 38.55 -76.7 37.2 -77.75 35.65 -78.65 34.2 -79.45 32.65 -80.15 31.2 -80.8 29.65 -81.3 28.3 -81.75 26.8 -82.15 25.55 -82.45 24.25 -82.7 23.2 -82.9 22.1 -83.05 21.65 -83.3 21.2 -83.5 20.7 -83.75 20.2 -84.0 19.65 -84.25 19.05 -84.45 18.45 -84.7 17.8 -84.9 17.1 -85.15 16.4 -85.3 15.7 -85.5 14.95 -85.65 14.15 -85.85 13.35 -85.95 12.5 -86.05 11.7 -86.15 10.15 -86.25 8.6 -86.2 7.15 -86.15 5.7 -85.9 4.4 -85.7 3.05 -85.35 1.9 -85.05 0.7 -84.65 -0.35 -84.25 -1.35 -83.8 -2.2 -83.4 -3.05 -82.95 -3.8 -82.6 -4.45 -82.2 -5.0 -81.9 -5.5 -81.55 -6.0 -81.5 -6.5 -81.45 -7.05 -81.4 -7.55 -81.3 -8.15 -81.2 -8.75 -81.1 -9.4 -80.95 -10.05 -80.8 -10.75 -80.6 -11.4 -80.4 -12.1 -80.15 -12.8 -79.9 -13.55 -79.6 -14.25 -79.25 -15.0 -78.9 -15.75 -78.5 -16.8 -77.9 -17.8 -77.15 -18.75 -76.5 -19.6 -75.75 -20.4 -75.0 -21.15 -74.2 -21.85 -73.45 -22.55 -72.6 -23.15 -71.8 -23.7 -70.95 -24.25 -70.15 -24.8 -69.3 -25.25 -68.55 -25.75 -67.65 -26.05 -67.1 -26.6 -66.05 -27.3 -64.85 -27.9 -63.55 -28.45 -62.35 -28.95 -61.1 -29.45 -59.95 -29.85 -58.7 -30.25 -57.55 -30.6 -56.35 -30.9 -55.25 -31.15 -54.1 -31.4 -53.05 -31.6 -51.95 -31.8 -50.95 -31.9 -49.9 -32.05 -48.95 -32.15 -48.0 -32.9 -45.7 -34.15 -42.5 -35.05 -40.0 -35.9 -38.0 -36.55 -36.35 -36.9 -35.45 -37.2 -34.55 -37.45 -33.8 -37.65 -33.05 -37.8 -32.35 -37.95 -31.75 -38.05 -31.1 -38.15 -30.65 -38.25 -29.95 -38.45 -28.75 -38.45 -28.75 -38.55 -28.05 -38.7 -27.45 -38.85 -26.7 -39.0 -25.9 -39.2 -25.05 -39.5 -24.1 -40.35 -21.0 -42.4 -16.15 -43.1 -14.45 -43.8 -13.0 -44.45 -11.7 -45.25 -10.1 -45.9 -8.9 -47.15 -6.65 -49.15 -3.0 -49.75 -1.9 -51.0 0.45 -51.95 2.15 -52.9 4.0 -53.65 5.4 -54.4 6.9 -54.95 8.05 -55.5 9.25 -55.9 10.2 -56.25 11.15 -56.5 11.95 -56.75 12.7 -56.85 13.4 -56.95 14.1 -57.0 14.75 -57.0 15.35 -56.95 16.05 -56.95 16.4 -56.9 16.6 -56.85 16.95 -56.85 17.3 -56.75 17.75 -56.7 18.15 -56.6 18.65 -56.5 19.1 -56.35 19.65 -56.2 20.15 -56.0 20.7 -55.75 21.25 -55.5 21.85 -55.2 22.4 -54.9 23.0 -54.5 23.55 -54.05 24.2 -53.55 24.75 -53.1 25.25 -52.5 25.75 -52.0 26.2 -51.35 26.65 -50.8 27.0 -50.05 27.45 -49.6 27.75 -48.6 28.35 -47.45 29.0 -46.95 29.35 -45.9 29.95 -45.0 30.5 -43.9 31.25 -42.85 31.95 -42.4 32.3 -41.9 32.6 -41.5 32.95 -41.05 33.25 -40.65 33.6 -40.25 33.9 -39.85 34.2 -39.5 34.5 -39.15 34.75 -38.8 35.05 -38.5 35.3 -38.2 35.55 -37.95 35.75 -37.65 36.0 -37.45 36.2 -37.2 36.4 -37.15 36.7 -37.1 37.0 -37.05 37.3 -37.0 37.65 -36.95 37.95 -36.9 38.3 -36.85 38.7 -36.85 39.05 -36.8 39.45 -36.8 39.85 -36.75 40.3 -36.75 40.7 -36.7 41.15 -36.7 41.6 -36.7 42.1 -36.75 42.55 -36.75 43.4 -36.85 44.2 -36.9 45.0 -37.0 45.8 -37.15 46.55 -37.3 47.3 -37.4 48.0 -37.6 48.7 -37.75 49.4 -38.0 50.1 -38.15 50.75 -38.4 51.45 -38.6 52.05 -38.85 52.75 -39.05 53.3 -39.35 54.05 -40.0 55.75 -40.3 56.55 -40.75 57.85 -41.15 58.75 -41.55 59.9 -41.95 60.8 -42.35 61.8 -42.7 62.65 -43.1 63.6 -43.5 64.45 -43.9 65.35 -44.3 66.25 -44.75 67.15 -45.2 68.05 -45.7 68.95 -46.25 69.95 -47.1 71.5 -47.9 72.9 -48.65 74.25 -49.45 75.5 -50.15 76.7 -50.95 77.9 -51.65 79.0 -52.45 80.2 -53.1 81.2 -54.1 82.6 -53.5 81.8 -55.85 85.2 -57.0 86.85 -57.85 88.15 -59.05 89.85 -60.15 91.55 -62.2 94.65 -63.15 96.1 -64.7 98.45 -65.8 100.1 -67.1 102.1 -68.1 103.65 -69.15 105.35 -70.0 106.8 -70.9 108.3 -71.6 109.55 -72.3 110.9 -72.9 112.1 -73.45 113.3 -73.85 114.4 -74.3 115.5 -74.55 116.55 -74.85 117.55 -75.05 118.4 -75.35 119.6 -75.6 120.75 -75.85 122.15 -76.05 123.55 -76.3 125.2 -76.4 126.75 -76.5 128.55 -76.45 130.25 -76.4 132.2 -76.15 134.0 -75.9 136.05 -75.4 137.95 -74.9 140.0 -74.1 141.95 -73.7 142.95 -73.25 143.85 -72.8 144.8 -72.3 145.7 -71.8 146.55 -71.2 147.4 -70.6 148.25 -69.9 149.15 -69.25 150.0 -68.45 151.0 -67.7 151.85 -66.75 152.9 -65.95 153.8 -64.8 155.05 -64.15 155.8 -62.6 157.45 -61.4 158.75 -60.1 160.05 -59.05 161.1 -57.85 162.25 -57.15 162.95 -55.8 164.2 -54.5 165.45 -53.85 166.05 -52.8 167.05 -51.95 167.9 -51.0 168.95 -50.1 169.95 -49.15 171.05 -48.2 172.3 -47.2 173.6 -46.25 175.05 -45.6 176.0 -45.05 176.85 -44.55 177.7 -44.1 178.5 -43.65 179.3 -43.3 180.0 -42.95 180.75 -42.7 181.4 -42.4 182.05 -42.2 182.7 -42.0 183.3 -41.85 183.9 -41.75 184.5 -41.65 185.1 -41.55 185.65 -41.5 186.25 -41.4 187.2 -41.4 188.2 -41.4 189.1 -41.5 190.0 -41.55 190.85 -41.75 191.7 -41.85 192.5 -42.1 193.3 -42.25 194.0 -42.5 194.7 -42.75 195.35 -43.0 196.0 -43.2 196.55 -43.45 197.1 -43.7 197.55 -43.95 198.05 -43.65 197.95 -43.4 197.8 -43.1 197.7 -42.75 197.55 -42.45 197.4 -42.1 197.2 -41.75 197.0 -41.4 196.8 -41.0 196.55 -40.65 196.3 -40.3 196.05 -39.9 195.75 -39.55 195.45 -39.15 195.1 -38.8 194.75 -38.4 194.35 -37.7 193.6 -37.15 192.75 -36.6 192.0 -36.15 191.15 -35.75 190.35 -35.45 189.55 -35.2 188.8 -34.95 188.0 -34.8 187.35 -34.65 186.65 -34.55 186.05 -34.5 185.4 -34.45 184.95 -34.45 184.45 -34.45 184.1 -34.45 183.8 -34.25 184.15 -34.05 184.5 -33.85 184.85 -33.7 185.2 -33.5 185.55 -33.35 185.85 -33.2 186.2 -33.05 186.5 -32.9 186.8 -32.8 187.1 -32.65 187.4 -32.55 187.65 -32.45 187.95 -32.35 188.2 -32.25 188.45 -32.15 188.7 -31.85 189.5 -31.6 190.3 -31.35 191.0 -31.15 191.65 -31.0 192.25 -30.9 192.8 -30.8 193.3 -30.75 193.8 -30.7 194.2 -30.65 194.55 -30.65 194.9 -30.65 195.2 -30.7 195.45 -30.7 195.7 -30.75 195.85 -30.75 196.05 -30.75 196.2 -30.8 196.3 -30.85 196.45 -30.85 196.55 -30.9 196.7 -30.9 196.8 -30.95 196.9 -31.0 197.0 -31.0 197.1 -31.05 197.2 -31.05 197.3 -31.1 197.4 -31.15 197.5 -31.15 197.6 -31.2 197.65 -31.2 197.75 -31.0 197.65 -30.85 197.55 -30.6 197.45 -30.4 197.35 -30.2 197.2 -29.95 197.1 -29.7 196.95 -29.5 196.8 -29.2 196.6 -28.95 196.45 -28.7 196.25 -28.45 196.05 -28.2 195.85 -27.9 195.6 -27.65 195.35 -27.4 195.1 -27.2 194.9 -27.0 194.7 -26.75 194.45 -26.5 194.15 -26.15 193.8 -25.9 193.45 -25.55 193.0 -25.25 192.55 -24.95 192.05 -24.65 191.5 -24.35 190.95 -24.1 190.3 -23.85 189.65 -23.7 188.95 -23.5 188.2 -23.4 187.45 -23.35 187.0 -23.35 186.55 -23.3 186.1 -23.35 185.65 -23.35 185.25 -23.4 184.85 -23.45 184.45 -23.5 184.1 -23.55 183.75 -23.65 183.4 -23.7 183.05 -23.8 182.75 -23.9 182.45 -24.0 182.15 -24.05 181.9 -24.15 181.65 -23.9 181.85 -23.7 182.1 -23.4 182.35 -23.1 182.65 -22.8 183.0 -22.5 183.4 -22.15 183.8 -21.8 184.25 -21.45 184.75 -21.15 185.25 -20.8 185.8 -20.5 186.4 -20.15 187.05 -19.9 187.7 -19.65 188.4 -19.4 189.15 -19.25 189.75 -19.1 190.35 -19.0 190.9 -18.95 191.45 -18.85 191.95 -18.85 192.5 -18.8 193.0 -18.8 193.5 -18.8 193.95 -18.85 194.4 -18.85 194.8 -18.9 195.2 -18.95 195.55 -19.0 195.9 -19.05 196.2 -19.1 196.5 -18.9 196.3 -18.65 196.15 -18.45 195.95 -18.2 195.75 -17.95 195.5 -17.75 195.25 -17.5 195.0 -17.25 194.75 -17.0 194.45 -16.75 194.15 -16.5 193.85 -16.25 193.5 -16.0 193.2 -15.75 192.8 -15.5 192.45 -15.3 192.05 -14.9 191.35 -14.55 190.6 -14.25 189.9 -14.0 189.2 -13.75 188.5 -13.6 187.85 -13.45 187.2 -13.35 186.55 -13.25 185.95 -13.2 185.35 -13.15 184.85 -13.1 184.3 -13.1 183.9 -13.1 183.45 -13.1 183.05 -13.15 182.7 -12.95 183.1 -12.7 183.5 -12.5 183.95 -12.2 184.4 -11.95 184.85 -11.65 185.3 -11.35 185.75 -11.0 186.25 -10.65 186.75 -10.3 187.2 -9.9 187.7 -9.5 188.2 -9.05 188.7 -8.6 189.2 -8.15 189.75 -7.65 190.2 -7.35 190.5 -7.05 190.75 -6.75 191.0 -6.5 191.3 -6.2 191.5 -5.9 191.75 -5.6 192.0 -5.35 192.2 -5.05 192.45 -4.8 192.65 -4.5 192.85 -4.25 193.05 -3.95 193.2 -3.7 193.4 -3.45 193.6 -3.2 193.75 -3.15 193.05 -3.1 192.4 -3.05 191.7 -3.0 191.05 -2.9 190.35 -2.85 189.7 -2.8 189.0 -2.75 188.3 -2.65 187.6 -2.6 186.9 -2.5 186.2 -2.45 185.55 -2.35 184.8 -2.3 184.1 -2.2 183.4 -2.1 182.7 -1.9 181.15 -1.65 179.2 -1.5 179.65 -1.35 180.05 -1.2 180.55 -1.0 181.05 -0.8 181.55 -0.6 182.05 -0.35 182.65 -0.05 183.2 0.2 183.75 0.55 184.35 0.85 184.95 1.25 185.55 1.6 186.2 2.05 186.8 2.45 187.45 2.95 188.05 3.65 188.95 4.4 189.8 5.05 190.55 5.8 191.3 6.5 191.95 7.2 192.55 7.85 193.1 8.55 193.6 9.1 194.05 9.75 194.45 10.25 194.8 10.75 195.1 11.15 195.35 11.55 195.6 11.85 195.75 12.15 195.9 12.95 196.3 13.8 196.65 14.55 197.0 15.35 197.3 16.1 197.55 16.85 197.75 17.6 198.0 18.3 198.15 19.0 198.3 19.65 198.4 20.3 198.55 20.9 198.6 21.45 198.7 22.05 198.75 22.5 198.75 23.0 198.8 22.8 198.45 22.55 198.05 22.35 197.65 22.15 197.2 21.9 196.75 21.65 196.3 21.45 195.75 21.2 195.25 21.0 194.7 20.75 194.1 20.55 193.5 20.35 192.9 20.15 192.25 19.95 191.6 19.8 190.9 19.65 190.2 19.55 189.7 19.45 189.35 19.35 188.8 19.3 188.3 19.15 187.65 19.1 187.05 19.0 186.35 19.0 185.7 18.95 184.95 18.95 184.2 18.95 183.4 19.0 182.6 19.1 181.75 19.25 180.95 19.4 180.05 19.65 179.2 19.8 178.6 20.0 178.05 20.2 177.55 20.45 177.05 20.65 176.55 20.95 176.05 21.2 175.6 21.55 175.1 21.85 174.65 22.3 174.05 22.6 173.6 23.15 172.9 22.95 173.15 24.15 171.55 24.8 170.7 25.3 170.0 25.4 169.9 33.9 157.3 40.15 147.95 43.85 141.5 44.8 139.85 45.25 139.05 46.05 137.7 46.6 136.65 47.3 135.4 47.9 134.35 48.55 133.15 49.1 132.0 49.75 130.8 50.3 129.65 50.9 128.45 51.45 127.2 52.0 125.95 52.55 124.65 53.1 123.3 53.65 121.9 54.35 120.1 54.95 118.3 55.55 116.6 56.05 114.85 56.55 113.3 56.95 111.75 57.35 110.3 57.7 108.9 58.0 107.6 58.25 106.4 58.45 105.3 58.65 104.25 58.85 103.4 58.95 102.6 59.05 102.0 59.15 101.35 59.3 100.45 59.4 99.5 59.5 98.55 59.6 97.5 59.7 96.5 59.75 95.4 59.8 94.3 59.85 93.05 59.9 91.85 59.95 90.4 60.0 89.1 60.0 87.45 60.05 86.05 60.05 84.15 60.05 82.8 60.1 80.4 60.15 77.3 60.15 76.05 60.15 73.8 60.15 72.1 60.15 70.05 60.15 68.4 60.15 66.55 60.1 64.9 60.1 63.15 60.05 61.5 60.0 59.75 59.9 58.1 59.85 56.35 59.75 54.6 59.6 52.85 59.45 50.95 L59.45 50.95 M-49.4 100.25 Q-49.4 100.4 -49.45 100.55 -49.45 100.7 -49.5 100.85 -49.5 101.0 -49.55 101.15 -49.6 101.3 -49.6 101.45 -49.65 101.6 -49.7 101.75 -49.75 101.9 -49.8 102.05 -49.85 102.2 -49.9 102.3 -49.95 102.45 -50.05 102.6 -50.25 103.1 -50.6 103.85 -50.6 104.0 -50.65 104.1 -50.65 104.25 -50.65 104.35 -50.65 104.5 -50.7 104.65 -50.7 104.75 -50.7 104.9 -50.75 105.0 -50.75 105.15 -50.8 105.25 -50.8 105.4 -50.85 105.55 -50.85 105.65 -50.9 105.8 -50.9 105.9 -50.95 106.15 -51.0 106.45 -51.05 106.7 -51.15 107.0 -51.2 107.25 -51.25 107.5 -51.35 107.75 -51.4 108.05 -51.5 108.3 -51.6 108.55 -51.65 108.8 -51.75 109.1 -51.85 109.35 -51.9 109.6 -52.0 109.85 -52.1 110.1 -52.1 110.2 -52.1 110.3 -52.1 110.4 -52.1 110.5 -52.1 110.6 -52.15 110.7 -52.15 110.85 -52.15 110.95 -52.15 111.05 -52.15 111.15 -52.15 111.25 -52.2 111.35 -52.2 111.45 -52.2 111.55 -52.2 111.65 -52.25 111.75 -52.35 112.55 -53.05 114.4 -53.65 115.9 -54.0 116.85 -54.1 117.15 -54.2 117.4 -54.3 117.65 -54.35 117.9 -54.45 118.2 -54.55 118.45 -54.65 118.75 -54.7 119.0 -54.8 119.3 -54.85 119.55 -54.95 119.85 -55.0 120.1 -55.05 120.4 -55.1 120.65 -55.2 120.95 -55.25 121.2 -56.1 126.2 -56.2 126.75 -56.3 127.2 -56.35 127.6 -56.45 128.05 -56.55 128.45 -56.65 128.85 -56.75 129.25 -56.85 129.7 -56.95 130.1 -57.05 130.5 -57.15 130.9 -57.3 131.35 -57.4 131.75 -57.55 132.15 -57.7 132.55 -57.85 132.95 -58.0 133.35 -58.1 133.55 -58.15 133.7 -58.25 133.9 -58.3 134.1 -58.4 134.3 -58.5 134.5 -58.6 134.7 -58.7 134.9 -58.8 135.1 -58.9 135.25 -59.0 135.45 -59.1 135.65 -59.25 135.8 -59.35 136.0 -59.5 136.15 -59.6 136.35 -59.65 136.5 -59.8 136.8 -59.95 137.15 -60.0 137.3 -60.0 137.35 -60.05 137.35 -60.05 137.4 -60.05 137.45 -60.05 137.5 -60.05 137.5 -60.1 137.55 -60.1 137.6 -60.1 137.65 -60.15 137.7 -60.15 137.7 -60.15 137.75 -60.2 137.8 -60.2 137.85 -60.25 137.85 -60.25 137.9 -60.3 137.95 -60.35 137.95 -60.35 138.0 -60.4 138.0 -60.4 138.05 -60.45 138.05 -60.5 138.1 -60.5 138.15 -60.55 138.2 -60.6 138.25 -60.6 138.3 -60.65 138.3 -60.7 138.35 -60.75 138.4 -60.75 138.45 -60.8 138.5 -60.85 138.5 -60.9 138.55 -60.95 138.6 -61.0 138.6 -61.05 138.65 -61.1 138.65 -61.2 138.7 -61.35 138.75 -61.45 138.8 -61.55 138.8 -61.7 138.85 -61.8 138.85 -61.95 138.85 -62.05 138.8 -62.15 138.8 -62.3 138.75 -62.4 138.7 -62.5 138.65 -62.6 138.6 -62.7 138.5 -62.8 138.4 -62.9 138.3 -62.95 138.2 -63.05 138.15 -63.1 138.05 -63.15 137.95 -63.2 137.85 -63.25 137.75 -63.3 137.7 -63.35 137.55 -63.4 137.5 -63.4 137.35 -63.45 137.25 -63.5 137.15 -63.55 137.05 -63.55 136.95 -63.6 136.85 -63.6 136.75 -63.6 136.7 -63.65 136.6 -63.65 136.55 -63.7 136.5 -63.7 136.45 -63.7 136.35 -63.75 136.3 -63.75 136.25 -63.75 136.15 -63.8 136.1 -63.8 136.05 -63.8 135.95 -63.85 135.9 -63.85 135.85 -63.85 135.8 -63.85 135.7 -64.15 135.25 -64.4 134.9 -64.65 134.45 -64.9 134.1 -65.15 133.65 -65.4 133.25 -65.65 132.8 -65.85 132.4 -66.05 131.95 -66.25 131.5 -66.45 131.05 -66.55 130.6 -66.7 130.15 -66.85 129.7 -66.95 129.2 -67.0 128.75 -67.05 128.5 -67.05 128.2 -67.05 127.9 -67.05 127.65 -67.05 127.35 -67.05 127.1 -67.05 126.8 -67.0 126.5 -67.0 126.25 -66.95 125.95 -66.9 125.7 -66.85 125.4 -66.85 125.15 -66.8 124.85 -66.75 124.6 -66.7 124.3 -66.4 123.0 -66.2 122.1 -66.15 121.9 -66.0 121.0 -66.0 120.95 -65.9 120.45 -65.9 120.35 -65.9 120.2 -65.9 120.2 -65.85 120.2 -65.85 120.2 -65.85 120.15 -65.6 118.0 -65.4 116.95 -65.35 116.75 -65.3 116.55 -65.3 116.35 -65.25 116.15 -65.2 115.95 -65.15 115.75 -65.1 115.55 -65.05 115.35 -65.0 115.15 -64.95 114.95 -64.9 114.75 -64.8 114.55 -64.75 114.35 -64.7 114.15 -64.65 113.95 -64.6 113.75 -64.45 113.3 -64.3 112.9 -64.15 112.5 -64.0 112.1 -63.8 111.65 -63.65 111.25 -63.45 110.85 -63.25 110.45 -63.05 110.05 -62.85 109.7 -62.6 109.3 -62.4 108.9 -62.15 108.55 -61.9 108.15 -61.65 107.8 -61.35 107.45 -61.3 107.4 -61.25 107.35 -61.2 107.25 -61.15 107.2 -61.15 107.15 -61.1 107.1 -61.05 107.05 -61.0 107.0 -60.95 106.9 -60.9 106.85 -60.85 106.8 -60.8 106.75 -60.75 106.7 -60.7 106.65 -60.65 106.6 -60.6 106.55 -60.5 106.4 -60.45 106.25 -60.35 106.1 -60.25 105.9 -60.2 105.75 -60.1 105.6 -60.0 105.45 -59.9 105.3 -59.85 105.15 -59.75 105.0 -59.65 104.85 -59.55 104.7 -59.45 104.6 -59.35 104.45 -59.25 104.3 -59.15 104.15 -59.05 104.0 -58.95 103.9 -58.85 103.75 -58.8 103.65 -58.7 103.5 -58.6 103.35 -58.5 103.25 -58.4 103.1 -58.3 103.0 -58.2 102.85 -58.1 102.75 -57.95 102.6 -57.85 102.5 -57.75 102.35 -57.65 102.25 -57.55 102.15 -57.25 101.8 -56.75 101.35 -56.1 100.65 -55.95 100.55 -54.2 98.7 -53.3 98.0 -53.25 97.95 -53.2 97.9 -53.1 97.85 -53.05 97.85 -53.0 97.8 -52.9 97.75 -52.85 97.7 -52.8 97.7 -52.7 97.65 -52.65 97.6 -52.6 97.55 -52.5 97.55 -52.45 97.5 -52.4 97.5 -52.3 97.45 -52.25 97.4 -52.25 97.4 -52.25 97.35 -52.25 97.3 -52.25 97.25 -52.2 97.25 -52.2 97.2 -52.2 97.15 -52.2 97.1 -52.2 97.05 -52.2 97.0 -52.2 96.95 -52.2 96.95 -52.2 96.85 -52.2 96.7 -52.15 96.6 -52.1 96.5 -52.1 96.4 -52.0 96.35 -51.95 96.25 -51.9 96.15 -51.8 96.1 -51.75 96.05 -51.65 96.0 -51.55 95.95 -51.45 95.9 -51.35 95.9 -51.25 95.85 -51.15 95.85 -51.05 95.85 -50.95 95.85 -50.85 95.9 -50.75 95.95 -50.65 95.95 -50.55 96.05 -50.45 96.1 -50.4 96.15 -50.3 96.25 -50.25 96.35 -50.2 96.4 -50.15 96.5 -50.1 96.6 -50.1 96.7 -50.05 96.8 -50.05 96.95 -50.05 97.0 -50.05 97.05 -50.05 97.1 -50.05 97.15 -50.05 97.2 -50.05 97.25 -50.05 97.3 -50.1 97.4 -50.1 97.45 -50.1 97.5 -50.1 97.55 -50.1 97.6 -50.1 97.65 -50.1 97.7 -50.15 97.75 -50.15 97.85 -50.1 97.85 -50.1 97.9 -50.05 97.9 -50.05 97.95 -50.0 98.0 -49.95 98.0 -49.95 98.05 -49.9 98.1 -49.9 98.1 -49.85 98.15 -49.8 98.25 -49.7 98.4 -49.65 98.5 -49.6 98.65 -49.55 98.75 -49.5 98.9 -49.5 99.05 -49.45 99.15 -49.45 99.3 -49.4 99.45 -49.4 99.6 -49.4 99.7 -49.4 99.85 -49.4 100.0 -49.4 100.15 -49.4 100.25 L-49.4 100.25 M-33.2 19.7 Q-33.2 19.9 -33.2 20.1 -33.25 20.3 -33.25 20.5 -33.3 20.75 -33.3 20.9 -33.35 21.15 -33.4 21.35 -33.45 21.55 -33.5 21.75 -33.55 21.95 -33.65 22.1 -33.7 22.3 -33.8 22.5 -33.9 22.65 -34.0 22.85 -34.1 23.0 -34.2 23.1 -34.3 23.25 -34.4 23.35 -34.5 23.45 -34.65 23.55 -34.75 23.65 -34.9 23.75 -35.0 23.85 -35.15 23.95 -35.25 24.0 -35.4 24.05 -35.55 24.15 -35.7 24.2 -35.85 24.25 -36.0 24.3 -36.0 24.35 -36.0 24.4 -36.0 24.45 -36.0 24.5 -36.0 24.55 -36.0 24.55 -36.0 24.6 -36.0 24.65 -36.0 24.7 -36.0 24.75 -36.05 24.85 -36.05 24.95 -36.1 25.05 -36.2 25.15 -36.25 25.2 -36.35 25.3 -36.4 25.35 -36.5 25.4 -36.6 25.45 -36.7 25.45 -36.8 25.5 -36.9 25.5 -37.0 25.5 -37.1 25.5 -37.2 25.5 -37.3 25.5 -37.35 25.5 -37.45 25.5 -37.5 25.45 -37.55 25.45 -37.6 25.45 -37.65 25.45 -37.75 25.45 -37.8 25.4 -37.85 25.4 -37.9 25.4 -37.95 25.4 -38.05 25.4 -38.1 25.35 -38.15 25.35 -38.2 25.35 -38.25 25.35 -38.45 25.3 -38.65 25.3 -38.85 25.25 -39.0 25.2 -39.2 25.15 -39.4 25.1 -39.6 25.05 -39.75 25.0 -39.95 24.95 -40.1 24.9 -40.3 24.85 -40.5 24.75 -40.65 24.7 -40.85 24.6 -41.0 24.55 -41.2 24.45 -41.35 24.4 -41.5 24.3 -41.65 24.2 -41.8 24.1 -41.9 24.05 -42.05 23.9 -42.2 23.85 -42.3 23.7 -42.45 23.6 -42.6 23.5 -42.7 23.4 -42.8 23.25 -42.95 23.15 -43.05 23.0 -43.15 22.9 -43.3 22.75 -43.6 22.4 -43.85 22.1 -44.1 21.75 -44.35 21.4 -44.65 21.0 -44.85 20.65 -45.1 20.3 -45.3 19.9 -45.5 19.5 -45.7 19.1 -45.85 18.7 -46.0 18.3 -46.1 17.85 -46.2 17.45 -46.25 17.0 -46.25 16.6 -46.25 16.45 -46.3 16.3 -46.3 16.15 -46.3 16.0 -46.3 15.9 -46.35 15.75 -46.35 15.6 -46.35 15.45 -46.35 15.3 -46.35 15.15 -46.35 15.0 -46.35 14.85 -46.35 14.7 -46.3 14.55 -46.3 14.45 -46.3 14.3 -46.3 14.05 -46.25 13.8 -46.2 13.55 -46.15 13.3 -46.15 13.05 -46.1 12.8 -46.05 12.55 -45.95 12.3 -45.9 12.05 -45.85 11.8 -45.8 11.55 -45.7 11.35 -45.65 11.1 -45.55 10.85 -45.5 10.6 -45.4 10.35 -45.1 9.55 -43.95 7.1 -43.95 7.05 -43.85 6.9 -43.85 6.9 -43.85 6.9 -43.8 6.8 -43.7 6.45 -43.65 6.3 -43.55 6.0 -43.2 4.9 -42.9 4.1 -42.8 3.85 -42.5 2.95 -42.4 2.55 -42.3 2.35 -42.2 2.0 -42.1 1.7 -41.95 1.4 -41.85 1.1 -41.75 0.75 -41.65 0.5 -41.5 0.15 -41.4 -0.15 -41.25 -0.45 -41.15 -0.75 -41.0 -1.05 -40.85 -1.3 -40.7 -1.6 -40.55 -1.9 -39.85 -3.9 -39.25 -4.95 -39.15 -5.15 -39.05 -5.35 -38.9 -5.55 -38.8 -5.7 -38.7 -5.9 -38.55 -6.05 -38.4 -6.25 -38.25 -6.4 -38.1 -6.55 -37.95 -6.7 -37.8 -6.85 -37.65 -6.95 -37.45 -7.1 -37.25 -7.2 -37.05 -7.3 -36.85 -7.35 -36.75 -7.4 -36.7 -7.4 -36.6 -7.4 -36.5 -7.4 -36.4 -7.4 -36.35 -7.4 -36.25 -7.35 -36.2 -7.3 -36.1 -7.3 -36.05 -7.25 -35.95 -7.2 -35.9 -7.1 -35.8 -7.05 -35.75 -7.0 -35.7 -6.95 -35.65 -6.85 -35.55 -6.7 -35.45 -6.55 -35.3 -6.4 -35.2 -6.2 -35.1 -6.05 -35.0 -5.9 -34.95 -5.7 -34.85 -5.55 -34.75 -5.35 -34.7 -5.2 -34.6 -5.0 -34.5 -4.85 -34.45 -4.65 -34.4 -4.45 -34.3 -4.3 -34.25 -4.1 -34.1 -3.7 -34.0 -3.3 -33.9 -2.95 -33.85 -2.5 -33.75 -2.1 -33.7 -1.7 -33.65 -1.3 -33.6 -0.9 -33.6 -0.5 -33.55 -0.05 -33.55 0.35 -33.55 0.75 -33.55 1.15 -33.55 1.6 -33.6 2.0 -33.6 2.4 -33.75 4.25 -34.35 8.6 -34.35 8.8 -34.35 9.0 -34.35 9.2 -34.3 9.4 -34.3 9.6 -34.3 9.8 -34.3 9.95 -34.3 10.15 -34.25 10.35 -34.25 10.55 -34.25 10.75 -34.2 10.95 -34.2 11.15 -34.2 11.35 -34.15 11.55 -34.15 11.75 -34.1 12.4 -34.0 13.1 -34.0 13.35 -33.95 13.8 -33.9 13.9 -33.9 14.15 -33.9 14.15 -33.85 14.25 -33.85 14.25 -33.85 14.25 -33.85 14.4 -33.8 14.55 -33.8 14.7 -33.8 14.85 -33.75 15.0 -33.75 15.15 -33.7 15.3 -33.7 15.45 -33.7 15.6 -33.65 15.75 -33.65 15.9 -33.6 16.05 -33.6 16.2 -33.55 16.3 -33.55 16.45 -33.5 16.6 -33.45 16.8 -33.45 17.0 -33.4 17.2 -33.35 17.4 -33.35 17.6 -33.3 17.75 -33.3 17.95 -33.25 18.15 -33.25 18.35 -33.25 18.55 -33.2 18.75 -33.2 18.95 -33.2 19.15 -33.2 19.3 -33.2 19.5 -33.2 19.7 L-33.2 19.7" fill="url(#gradient0)" fill-rule="evenodd" stroke="none"/>
    <path d="M-36.85 -4.75 Q-36.85 -4.75 -36.85 -4.75 -36.85 -4.75 -36.9 -4.7 -36.9 -4.65 -36.95 -4.65 -36.95 -4.65 -36.95 -4.6 -36.9 -4.6 -36.85 -4.6 -36.85 -4.6 -36.75 -4.6 -36.8 -4.65 -36.8 -4.7 -36.85 -4.7 -36.85 -4.75 L-36.85 -4.75" fill="#70c4ff" fill-opacity="0.4392157" fill-rule="evenodd" stroke="none"/>
  </g>
  <defs>
    <linearGradient gradientTransform="matrix(0.0, 0.1739, -0.1739, 0.0, -8.15, 56.25)" gradientUnits="userSpaceOnUse" id="gradient0" spreadMethod="pad" x1="-819.2" x2="819.2">
      <stop offset="0.0" stop-color="#fff23c" stop-opacity="0.0"/>
      <stop offset="0.3803921568627451" stop-color="#fff23c" stop-opacity="0.84705883"/>
      <stop offset="0.6039215686274509" stop-color="#fff23c" stop-opacity="0.8"/>
      <stop offset="1.0" stop-color="#fff23c" stop-opacity="0.0"/>
    </linearGradient>
  </defs>
</svg>
