<?xml version="1.0" encoding="UTF-8" standalone="no"?>
<svg xmlns:xlink="http://www.w3.org/1999/xlink" height="198.6px" width="315.2px" xmlns="http://www.w3.org/2000/svg">
  <g transform="matrix(1.0, 0.0, 0.0, 1.0, 157.6, 99.3)">
    <path d="M39.25 -30.15 Q39.3 -30.15 39.35 -30.15 39.5 -30.15 39.5 -30.15 39.55 -30.15 39.6 -30.15 39.7 -30.15 39.75 -30.15 39.8 -30.1 39.85 -30.1 39.9 -30.1 39.9 -30.05 39.95 -30.0 40.0 -29.95 40.0 -29.9 40.0 -29.8 40.0 -29.75 40.0 -29.7 40.0 -29.65 40.0 -29.6 40.0 -29.55 39.95 -29.5 39.95 -29.45 39.9 -29.45 39.85 -29.4 39.8 -29.4 39.75 -29.4 39.7 -29.35 39.7 -29.35 39.6 -29.35 39.6 -29.35 39.5 -29.35 39.45 -29.4 39.4 -29.45 39.35 -29.45 39.35 -29.5 39.3 -29.55 39.3 -29.6 39.3 -29.65 39.25 -29.7 39.25 -29.75 39.25 -29.8 39.25 -29.85 39.25 -29.95 39.25 -30.0 39.25 -30.05 39.3 -30.2 39.25 -30.15 L39.25 -30.15" fill="#dbdbdb" fill-opacity="0.21176471" fill-rule="evenodd" stroke="none"/>
    <path d="M42.05 -29.6 Q42.1 -29.55 42.1 -29.55 42.15 -29.5 42.15 -29.5 42.2 -29.45 42.2 -29.45 42.2 -29.4 42.25 -29.35 42.25 -29.35 42.25 -29.3 42.25 -29.25 42.25 -29.2 42.25 -29.2 42.25 -29.15 42.25 -29.1 42.25 -29.05 42.2 -29.05 42.1 -29.1 42.05 -29.1 42.0 -29.1 41.95 -29.15 41.9 -29.15 41.9 -29.2 41.85 -29.2 41.85 -29.25 41.85 -29.3 41.85 -29.35 41.85 -29.35 41.85 -29.4 41.9 -29.5 41.95 -29.55 42.05 -29.6 L42.05 -29.6" fill="#dbdbdb" fill-opacity="0.21176471" fill-rule="evenodd" stroke="none"/>
    <path d="M-12.0 -77.3 Q-12.35 -77.7 -12.7 -78.05 -13.1 -78.45 -13.5 -78.85 -13.95 -79.3 -14.4 -79.7 -14.9 -80.15 -15.4 -80.55 -15.95 -81.0 -16.5 -81.45 -17.1 -81.9 -17.7 -82.3 -18.3 -82.75 -18.95 -83.2 -19.65 -83.65 -20.35 -84.05 -21.45 -84.7 -22.55 -85.2 -23.6 -85.75 -24.7 -86.15 -25.75 -86.6 -26.8 -86.95 -27.8 -87.25 -28.9 -87.55 -29.85 -87.8 -30.9 -88.0 -31.85 -88.2 -32.9 -88.35 -33.8 -88.5 -34.9 -88.7 -35.55 -88.75 -36.85 -88.95 -37.65 -89.05 -38.5 -89.15 -39.35 -89.2 -40.25 -89.25 -41.15 -89.3 -42.2 -89.3 -43.2 -89.3 -44.4 -89.25 -45.5 -89.25 -46.8 -89.2 -48.05 -89.15 -49.6 -89.05 -50.9 -89.0 -52.75 -88.9 -53.85 -88.85 -56.3 -88.7 -57.35 -88.65 -57.95 -88.6 -58.55 -88.55 -58.85 -88.5 -59.15 -88.5 -59.3 -88.45 -59.45 -88.4 -59.65 -88.3 -59.95 -88.2 -60.2 -88.1 -60.6 -87.95 -61.2 -87.8 -61.9 -87.6 -62.95 -87.4 -64.15 -87.15 -65.8 -86.9 -66.1 -86.85 -66.15 -86.85 -66.4 -86.8 -66.55 -86.75 -66.8 -86.7 -67.05 -86.6 -67.3 -86.55 -67.5 -86.45 -67.8 -86.35 -68.05 -86.25 -68.3 -86.1 -68.55 -85.95 -68.8 -85.75 -69.05 -85.6 -69.3 -85.35 -69.55 -85.1 -69.7 -84.95 -69.85 -84.8 -69.95 -84.6 -70.05 -84.45 -70.2 -84.3 -70.25 -84.1 -70.35 -83.95 -70.45 -83.8 -70.5 -83.65 -70.6 -83.45 -70.65 -83.3 -70.7 -83.15 -70.75 -83.0 -70.8 -82.85 -70.8 -82.75 -70.85 -82.6 -70.95 -82.3 -71.05 -82.0 -71.15 -81.65 -71.2 -81.25 -71.3 -80.8 -71.4 -80.35 -71.45 -79.85 -71.5 -79.35 -71.55 -78.8 -71.55 -78.25 -71.55 -77.65 -71.45 -77.05 -71.4 -76.4 -71.3 -75.8 -71.15 -75.1 -70.95 -74.45 -69.9 -71.6 -70.85 -74.15 -70.75 -73.95 -70.7 -73.75 -70.6 -73.5 -70.5 -73.3 -70.4 -73.05 -70.25 -72.8 -70.1 -72.55 -69.95 -72.25 -69.8 -71.95 -69.6 -71.7 -69.4 -71.4 -69.2 -71.1 -68.95 -70.8 -68.7 -70.5 -68.6 -70.35 -68.45 -70.25 -68.3 -70.05 -68.1 -69.9 -67.9 -69.7 -67.65 -69.5 -67.35 -69.3 -67.05 -69.1 -66.7 -68.85 -66.25 -68.6 -65.8 -68.35 -65.3 -68.1 -64.75 -67.8 -64.15 -67.55 -63.45 -67.25 -62.75 -66.95 -62.35 -66.8 -61.95 -66.65 -61.5 -66.5 -61.05 -66.35 -60.6 -66.2 -60.1 -66.1 -59.6 -65.9 -59.05 -65.8 -58.5 -65.65 -57.95 -65.5 -57.35 -65.35 -56.75 -65.25 -56.15 -65.15 -55.5 -65.0 -54.8 -64.9 -54.15 -64.8 -54.65 -64.75 -55.1 -64.7 -55.65 -64.65 -56.2 -64.6 -56.8 -64.55 -57.4 -64.55 -58.05 -64.55 -58.65 -64.55 -59.35 -64.6 -60.05 -64.65 -60.75 -64.7 -61.5 -64.8 -62.25 -64.9 -63.0 -65.0 -63.8 -65.15 -64.55 -65.35 -65.0 -65.45 -65.4 -65.6 -65.8 -65.7 -66.2 -65.8 -66.6 -65.95 -67.0 -66.1 -67.35 -66.2 -67.75 -66.35 -68.1 -66.5 -68.45 -66.65 -68.75 -66.8 -69.1 -66.9 -69.4 -67.05 -69.7 -67.2 -70.0 -67.35 -70.3 -67.5 -70.05 -67.15 -69.8 -66.8 -69.5 -66.45 -69.2 -66.1 -68.9 -65.75 -68.6 -65.35 -68.25 -65.0 -67.9 -64.65 -67.55 -64.25 -67.2 -63.9 -66.8 -63.5 -66.35 -63.15 -65.95 -62.75 -65.5 -62.4 -65.05 -62.05 -64.55 -61.7 -64.4 -61.6 -64.25 -61.45 -64.1 -61.35 -63.95 -61.25 -63.8 -61.15 -63.65 -61.05 -63.5 -60.9 -63.3 -60.8 -63.15 -60.7 -63.0 -60.6 -62.85 -60.55 -62.7 -60.45 -62.55 -60.35 -62.4 -60.25 -62.25 -60.15 -62.1 -60.05 -62.25 -59.95 -62.4 -59.85 -62.55 -59.7 -62.75 -59.55 -62.95 -59.35 -63.1 -59.15 -63.3 -58.95 -63.5 -58.7 -63.75 -58.45 -63.9 -58.15 -64.1 -57.85 -64.3 -57.5 -64.45 -57.2 -64.6 -56.8 -64.75 -56.4 -64.85 -56.0 -64.9 -55.8 -64.95 -55.65 -65.0 -55.45 -65.05 -55.3 -65.1 -55.1 -65.1 -54.9 -65.15 -54.7 -65.15 -54.5 -65.2 -54.3 -65.2 -54.1 -65.2 -53.9 -65.15 -53.7 -65.15 -53.5 -65.1 -53.3 -65.05 -53.1 -64.95 -52.85 -64.9 -52.7 -64.8 -52.55 -64.75 -52.45 -64.65 -52.3 -64.6 -52.15 -64.45 -52.0 -64.4 -51.9 -64.2 -51.7 -64.0 -51.4 -63.9 -51.3 -63.75 -51.05 -63.55 -50.8 -63.35 -50.5 -63.1 -50.2 -62.85 -49.85 -62.6 -49.45 -62.55 -49.35 -62.5 -49.3 -62.45 -49.2 -62.4 -49.15 -62.35 -49.05 -62.3 -49.0 -62.25 -48.9 -62.25 -48.8 -62.2 -48.75 -62.15 -48.65 -62.15 -48.55 -62.15 -48.5 -62.1 -48.4 -62.1 -48.3 -62.1 -48.2 -62.1 -48.1 -62.1 -48.15 -62.1 -48.05 -62.15 -48.0 -62.15 -47.95 -62.15 -47.9 -62.2 -47.85 -62.25 -47.8 -62.3 -47.7 -62.35 -47.6 -62.4 -47.5 -62.5 -47.4 -62.55 -47.25 -62.7 -47.15 -62.8 -47.0 -62.95 -46.85 -63.1 -46.65 -63.2 -46.55 -63.3 -46.45 -63.4 -46.35 -63.5 -46.3 -63.55 -46.2 -63.65 -46.15 -63.7 -46.1 -63.75 -46.05 -63.9 -45.95 -63.85 -46.0 -63.9 -45.95 -63.95 -45.9 -64.0 -45.85 -64.05 -45.85 -64.05 -45.8 -64.1 -45.75 -64.2 -45.65 -64.25 -45.45 -64.35 -45.3 -64.35 -45.1 -64.35 -44.95 -64.35 -44.7 -64.35 -44.45 -64.3 -44.15 -64.25 -43.9 -64.15 -43.55 -64.05 -43.25 -63.95 -42.85 -63.85 -42.5 -63.7 -42.0 -63.6 -41.7 -63.4 -41.1 -63.15 -40.35 -63.05 -39.9 -62.85 -39.35 -62.75 -38.95 -62.6 -38.5 -62.45 -38.15 -62.35 -37.8 -62.25 -37.55 -62.1 -37.25 -62.0 -37.0 -61.9 -36.8 -61.8 -36.6 -61.7 -36.4 -61.55 -36.25 -61.45 -36.05 -61.25 -35.85 -61.15 -35.75 -61.05 -35.6 -60.95 -35.5 -60.85 -35.4 -60.75 -35.3 -60.65 -35.2 -60.55 -35.1 -60.45 -35.0 -60.35 -34.9 -60.25 -34.85 -60.15 -34.75 -60.05 -34.65 -60.0 -34.6 -59.9 -34.55 -59.8 -34.45 -59.75 -34.4 L-59.75 -31.6 Q-59.7 -31.25 -59.65 -30.9 -59.6 -30.55 -59.55 -30.2 -59.5 -29.85 -59.4 -29.55 -59.35 -29.25 -59.3 -28.95 -59.2 -28.65 -59.15 -28.35 -59.1 -28.1 -59.0 -27.85 -58.95 -27.6 -58.9 -27.35 -58.8 -27.15 -58.75 -26.9 -58.6 -26.45 -58.55 -26.25 -58.45 -25.9 -58.35 -25.7 -58.25 -25.4 -58.2 -25.2 -58.1 -24.95 -58.0 -24.75 -57.9 -24.5 -57.85 -24.3 -57.75 -24.1 -57.65 -23.95 -57.5 -23.75 -57.4 -23.6 -57.3 -23.4 -57.15 -23.25 -56.95 -23.05 -56.8 -22.85 -56.6 -22.65 -56.4 -22.45 -56.2 -22.3 -55.95 -22.1 -55.75 -21.95 -55.5 -21.8 -55.3 -21.65 -55.05 -21.5 -54.8 -21.35 -54.5 -21.2 -54.25 -21.05 -53.95 -20.9 -53.75 -20.75 -53.3 -20.55 -53.1 -20.45 -52.95 -20.35 -52.75 -20.25 -52.55 -20.2 -52.4 -20.1 -52.25 -20.0 -52.05 -19.95 -51.9 -19.85 -51.75 -19.8 -51.6 -19.75 -51.45 -19.65 -51.3 -19.6 -51.15 -19.55 -51.05 -19.5 -50.9 -19.45 -50.8 -19.4 -52.4 -18.8 -55.7 -17.55 -55.65 -17.2 -55.55 -16.85 -55.5 -16.5 -55.4 -16.15 -55.3 -15.85 -55.2 -15.5 -55.1 -15.25 -55.0 -14.95 -54.9 -14.7 -54.8 -14.4 -54.7 -14.15 -54.6 -13.95 -54.5 -13.7 -54.4 -13.5 -54.3 -13.3 -54.25 -13.1 -54.05 -12.75 -53.85 -12.35 -53.65 -12.0 -53.4 -11.65 -53.15 -11.35 -52.9 -11.0 -52.7 -10.7 -52.4 -10.35 -52.15 -10.0 -51.85 -9.65 -51.55 -9.35 -51.25 -8.95 -50.95 -8.65 -50.6 -8.25 -50.35 -8.0 -49.85 -7.45 -49.75 -7.3 -49.6 -7.15 -49.5 -7.05 -49.35 -6.9 -49.25 -6.8 -49.15 -6.65 -49.0 -6.55 -48.9 -6.45 -48.8 -6.35 -48.7 -6.2 -48.6 -6.1 -48.5 -6.0 -48.4 -5.95 -48.35 -5.85 -48.25 -5.75 -48.15 -5.7 -48.25 -5.45 -48.35 -5.2 -48.4 -4.95 -48.5 -4.7 -48.55 -4.45 -48.6 -4.2 -48.7 -3.95 -48.7 -3.75 -48.75 -3.5 -48.8 -3.3 -48.85 -3.1 -48.85 -2.9 -48.9 -2.7 -48.9 -2.5 -48.95 -2.35 -48.95 -2.15 -48.95 -1.9 -48.95 -1.7 -49.0 -1.35 -48.95 -1.05 -48.95 -0.6 -48.9 -0.2 -48.85 0.3 -48.8 0.8 -48.7 1.4 -48.55 1.95 -48.4 2.55 -48.15 3.15 -47.95 3.8 -47.6 4.45 -47.3 5.1 -46.85 5.75 -46.7 5.95 -46.55 6.15 -46.4 6.35 -46.25 6.55 -46.1 6.75 -45.95 6.95 -45.85 7.1 -45.7 7.25 -45.55 7.4 -45.4 7.55 -45.25 7.7 -45.1 7.85 -44.95 8.0 -44.85 8.1 -44.7 8.2 -44.55 8.35 -44.65 9.0 -44.75 9.65 -44.8 10.25 -44.8 10.85 -44.85 11.45 -44.85 12.0 -44.8 12.55 -44.75 13.05 -44.75 13.55 -44.65 14.0 -44.6 14.45 -44.5 14.85 -44.45 15.25 -44.35 15.6 -44.3 15.9 -44.2 16.2 -44.05 16.7 -43.95 17.0 -43.85 17.4 -43.75 17.75 -43.6 18.2 -43.45 18.55 -43.25 18.95 -43.1 19.3 -42.9 19.7 -42.7 20.05 -42.45 20.4 -42.15 20.7 -41.9 21.05 -41.55 21.35 -41.2 21.65 -40.8 21.9 -40.55 22.05 -40.3 22.15 -40.1 22.3 -39.85 22.4 -39.6 22.5 -39.35 22.55 -39.15 22.65 -38.9 22.7 -38.7 22.75 -38.5 22.8 -38.3 22.8 -38.05 22.85 -37.9 22.85 -37.7 22.85 -37.55 22.9 -37.35 22.9 -37.5 23.0 -37.65 23.15 -37.8 23.25 -37.95 23.4 -38.15 23.55 -38.3 23.7 -38.45 23.9 -38.6 24.05 -38.75 24.25 -38.9 24.45 -39.0 24.65 -39.15 24.85 -39.3 25.05 -39.4 25.3 -39.5 25.55 -39.6 25.8 -39.7 26.1 -39.8 26.4 -39.85 26.65 -39.9 26.95 -39.95 27.25 -39.95 27.5 -39.95 27.8 -39.95 28.05 -39.95 28.35 -39.95 28.6 -39.9 28.85 -39.9 29.1 -39.85 29.35 -39.8 29.6 -39.8 29.75 -39.75 30.1 -39.75 30.0 -39.75 30.2 -39.7 30.25 -39.7 30.35 -39.7 30.45 -39.65 30.5 -39.65 30.65 -39.6 30.75 -39.6 30.9 -39.55 31.0 -39.55 31.15 -39.5 31.3 -39.45 31.5 -39.4 31.65 -39.35 31.85 -39.3 32.0 -39.15 32.45 -39.1 32.6 -39.0 32.95 -38.9 33.25 -38.8 33.55 -38.65 33.8 -38.55 34.15 -38.4 34.4 -38.25 34.7 -38.1 34.95 -37.95 35.25 -37.8 35.5 -37.6 35.75 -37.4 36.0 -37.15 36.25 -36.9 36.45 -36.7 36.65 -36.5 36.8 -36.25 36.95 -36.05 37.1 -35.85 37.2 -35.6 37.35 -35.35 37.45 -35.1 37.55 -34.85 37.65 -34.55 37.75 -34.3 37.8 -34.0 37.9 -33.75 38.0 -33.35 38.1 -33.15 38.15 -32.7 38.3 -32.55 38.35 -32.35 38.4 -32.2 38.4 -32.05 38.45 -31.9 38.5 -31.75 38.5 -31.6 38.55 -31.45 38.6 -31.3 38.6 -31.2 38.65 -31.05 38.65 -30.95 38.7 -30.8 38.7 -30.7 38.7 -30.6 38.75 -30.5 38.75 -31.65 40.0 -33.3 41.65 -33.65 42.0 -34.05 42.35 -34.3 42.65 -34.6 42.95 -34.7 43.0 -35.1 43.35 -35.3 43.6 -35.45 43.7 -35.6 43.85 -35.7 44.0 -35.85 44.15 -35.95 44.25 -36.05 44.35 -36.15 44.5 -36.25 44.65 -36.4 44.8 -36.6 45.1 -36.65 45.2 -36.85 45.45 -36.95 45.7 -37.15 46.05 -37.3 46.35 -37.5 46.75 -37.6 47.1 -37.75 47.5 -37.85 47.9 -37.95 48.35 -38.0 48.75 -38.0 49.25 -37.95 49.7 -37.9 50.15 -37.75 50.6 -37.75 50.65 -37.7 50.8 -37.6 50.95 -37.55 51.1 -37.45 51.35 -37.3 51.6 -37.15 51.85 -36.95 52.1 -36.7 52.4 -36.45 52.65 -36.2 52.95 -35.9 53.15 -35.55 53.4 -35.15 53.55 -34.75 53.75 -34.3 53.85 -34.05 53.9 -33.75 53.9 -33.5 53.95 -33.25 53.9 -33.05 53.9 -32.8 53.85 -32.6 53.8 -32.4 53.75 -32.2 53.7 -32.0 53.65 -31.85 53.6 -31.7 53.5 -31.55 53.45 -31.45 53.4 -31.35 53.35 -31.25 53.3 -31.35 53.4 -31.45 53.55 -31.55 53.7 -31.65 53.85 -31.8 54.0 -31.9 54.15 -32.0 54.3 -32.15 54.5 -32.25 54.65 -32.35 54.85 -32.5 55.05 -32.6 55.25 -32.75 55.45 -32.85 55.7 -32.95 55.9 -33.1 56.15 -33.35 56.65 -33.45 56.9 -33.65 57.3 -33.8 57.65 -33.95 58.05 -34.1 58.4 -34.25 58.8 -34.35 59.15 -34.45 59.55 -34.5 59.9 -34.55 60.3 -34.5 60.65 -34.5 61.05 -34.4 61.4 -34.35 61.75 -34.15 62.1 -34.0 62.4 -33.8 62.65 -33.6 62.9 -33.35 63.15 -33.1 63.35 -32.85 63.5 -32.6 63.65 -32.35 63.8 -32.1 63.95 -31.85 64.0 -31.6 64.1 -31.4 64.2 -31.2 64.25 -31.05 64.3 -30.9 64.3 -30.8 64.35 -30.55 64.4 -30.3 64.4 -30.05 64.45 -29.8 64.45 -29.55 64.45 -29.35 64.4 -29.1 64.4 -28.9 64.35 -28.7 64.35 -28.55 64.3 -28.35 64.25 -28.2 64.2 -28.05 64.15 -27.95 64.1 -27.85 64.05 -27.7 64.0 -27.95 64.2 -28.15 64.4 -28.4 64.65 -28.65 64.9 -28.9 65.2 -29.15 65.5 -29.45 65.85 -29.7 66.2 -29.95 66.6 -30.2 67.0 -30.45 67.4 -30.65 67.85 -30.9 68.3 -31.05 68.8 -31.25 69.3 -31.4 69.85 -31.45 70.1 -31.5 70.25 -31.55 70.5 -31.6 70.7 -31.65 70.95 -31.7 71.2 -31.75 71.45 -31.75 71.7 -31.75 72.0 -31.75 72.3 -31.75 72.6 -31.75 72.85 -31.7 73.2 -31.65 73.5 -31.6 73.8 -31.45 74.15 -31.4 74.3 -31.35 74.45 -31.3 74.65 -31.2 74.85 -31.15 75.05 -31.05 75.3 -30.9 75.5 -30.8 75.75 -30.65 76.0 -30.45 76.2 -30.25 76.45 -30.05 76.65 -29.85 76.85 -29.6 77.0 -29.3 77.15 -29.0 77.3 -28.75 77.4 -28.5 77.4 -28.3 77.45 -28.05 77.45 -27.8 77.45 -27.55 77.4 -27.3 77.4 -27.05 77.35 -26.85 77.25 -26.6 77.2 -26.35 77.1 -26.1 77.0 -25.9 76.9 -25.6 76.8 -25.45 76.75 -25.1 76.6 -24.95 76.5 -24.75 76.45 -24.6 76.35 -24.45 76.25 -24.3 76.2 -24.15 76.1 -24.0 76.0 -23.85 75.9 -23.75 75.85 -23.6 75.75 -23.5 75.65 -23.35 75.6 -23.25 75.5 -23.15 75.45 -23.05 75.35 -22.95 75.3 -23.05 76.35 -23.2 76.9 -23.25 77.05 -23.3 77.2 -23.35 77.45 -23.45 77.75 -23.6 78.15 -23.75 78.55 -23.95 79.0 -24.2 79.45 -24.45 79.95 -24.8 80.4 -25.15 80.9 -25.55 81.35 -25.95 81.8 -26.45 82.15 -27.0 82.55 -27.55 82.8 -28.3 83.1 -30.0 83.5 -30.3 83.55 -30.6 83.6 -30.85 83.65 -31.1 83.7 -31.15 83.7 -31.5 83.75 -31.7 83.8 -31.8 83.8 -31.95 83.85 -32.05 83.9 -32.2 83.9 -32.25 83.95 -32.35 84.0 -32.4 84.05 -32.5 84.1 -32.55 84.15 -32.65 84.3 -32.75 84.55 -32.8 84.75 -32.8 85.0 -32.75 85.2 -32.7 85.5 -32.65 85.75 -32.55 86.05 -32.45 86.35 -32.3 86.6 -32.2 86.9 -32.0 87.2 -31.85 87.45 -31.7 87.75 -31.5 88.0 -31.3 88.25 -31.05 88.6 -30.7 88.9 -30.4 89.15 -30.05 89.4 -29.75 89.65 -29.4 89.85 -29.05 90.05 -28.7 90.2 -28.4 90.35 -28.1 90.45 -27.8 90.55 -27.5 90.65 -27.3 90.7 -27.05 90.75 -26.9 90.8 -26.75 90.85 -26.55 90.9 -26.35 90.95 -26.2 90.95 -26.0 91.0 -26.1 90.95 -25.65 91.05 -25.45 91.05 -25.3 91.1 -25.1 91.1 -24.95 91.15 -24.75 91.2 -24.6 91.25 -24.4 91.3 -24.2 91.35 -23.95 91.45 -23.75 91.5 -23.5 91.6 -23.4 91.65 -23.2 91.75 -23.05 91.8 -22.9 91.9 -22.75 91.95 -22.6 92.05 -22.45 92.15 -22.3 92.25 -22.15 92.35 -22.05 92.45 -21.95 92.6 -21.8 92.7 -21.75 92.85 -21.65 93.0 -21.6 93.15 -21.55 93.35 -21.5 93.55 -21.45 93.75 -21.5 93.95 -21.5 94.1 -21.55 94.3 -21.6 94.5 -21.65 94.7 -21.7 94.85 -21.8 95.05 -21.85 95.2 -21.95 95.35 -22.05 95.5 -22.15 95.65 -22.2 95.75 -22.3 95.9 -22.45 96.15 -22.65 96.4 -22.85 96.65 -23.1 96.85 -23.3 97.05 -23.5 97.2 -23.7 97.35 -23.9 97.5 -24.1 97.6 -24.3 97.75 -24.5 97.8 -24.65 97.9 -24.8 97.95 -24.95 98.05 -25.05 98.05 -25.2 98.1 -25.45 98.2 -25.75 98.25 -26.0 98.35 -26.25 98.4 -26.5 98.4 -26.75 98.45 -26.95 98.45 -27.2 98.45 -27.4 98.45 -27.6 98.45 -27.8 98.45 -28.0 98.45 -28.15 98.4 -28.3 98.4 -28.45 98.35 -28.55 98.35 -28.5 98.45 -28.4 98.55 -28.3 98.65 -28.15 98.8 -28.05 98.95 -27.85 99.1 -27.7 99.3 -27.5 99.45 -27.25 99.6 -27.0 99.75 -26.75 99.95 -26.45 100.1 -26.15 100.25 -25.85 100.35 -25.5 100.5 -25.1 100.55 -25.0 100.6 -24.85 100.6 -24.7 100.65 -24.5 100.65 -24.3 100.7 -24.05 100.7 -23.8 100.75 -23.55 100.7 -23.25 100.7 -22.95 100.65 -22.6 100.65 -22.3 100.55 -22.0 100.45 -21.7 100.3 -21.35 100.15 -21.05 99.95 -20.85 99.8 -20.65 99.65 -20.5 99.5 -20.35 99.3 -20.2 99.1 -20.05 98.9 -19.95 98.7 -19.8 98.45 -19.7 98.2 -19.6 97.95 -19.5 97.7 -19.35 97.35 -19.3 97.1 -19.15 96.7 -19.05 96.5 -18.9 95.95 -18.8 95.55 -18.75 95.4 -18.65 95.15 -18.6 94.9 -18.5 94.65 -18.45 94.45 -18.4 94.25 -18.35 94.05 -18.35 93.8 -18.3 93.65 -18.3 93.4 -18.3 93.2 -18.3 93.0 -18.3 92.8 -18.35 92.6 -18.4 92.35 -18.45 92.05 -18.55 91.75 -18.65 91.5 -18.75 91.25 -18.85 91.0 -19.0 90.8 -19.1 90.6 -19.25 90.4 -19.35 90.2 -19.5 90.05 -19.6 89.9 -19.75 89.75 -19.85 89.65 -19.95 89.55 -20.05 89.45 -20.15 89.4 -20.3 89.25 -20.4 89.15 -20.55 89.05 -20.7 89.0 -20.8 88.9 -21.0 88.8 -21.15 88.75 -21.3 88.65 -21.5 88.6 -21.7 88.5 -21.9 88.4 -22.2 88.3 -22.65 88.1 -22.8 88.05 -23.15 87.9 -23.5 87.75 -23.75 87.65 -24.0 87.55 -24.2 87.45 -24.45 87.4 -24.65 87.3 -24.85 87.2 -25.05 87.1 -25.25 87.05 -25.45 86.95 -25.6 86.85 -25.8 86.8 -25.95 86.7 -26.1 86.65 -26.25 86.6 -26.35 86.55 -26.5 86.45 -26.4 86.35 -26.15 86.1 -25.85 85.8 -25.65 85.65 -25.35 85.35 -25.05 85.1 -24.8 84.85 -24.55 84.65 -24.3 84.45 -24.05 84.25 -23.85 84.1 -23.65 83.9 -23.45 83.8 -23.25 83.65 -23.4 83.75 -22.9 83.4 -22.75 83.25 -22.6 83.15 -22.45 83.05 -22.35 82.95 -22.15 82.75 -21.95 82.55 -21.75 82.3 -21.6 82.05 -21.45 81.8 -21.3 81.45 -21.15 81.15 -21.0 80.75 -20.85 80.4 -20.75 79.9 -20.6 79.5 -20.45 78.95 -20.3 78.5 -20.15 77.85 -20.05 77.45 -19.85 76.6 -19.75 76.2 -19.7 75.95 -19.6 75.6 -19.5 75.35 -19.45 75.0 -19.4 74.7 -19.3 74.35 -19.25 74.05 -19.2 73.7 -19.15 73.35 -19.05 73.0 -19.05 72.65 -19.0 72.25 -18.95 71.9 -18.95 71.5 -18.9 71.05 -18.9 70.7 -18.9 70.35 -18.9 70.05 -18.9 69.7 -18.9 69.4 -18.9 69.1 -18.95 68.8 -18.95 68.5 -19.0 68.2 -19.0 67.95 -19.05 67.65 -19.1 67.4 -19.1 67.15 -19.15 66.9 -19.2 66.7 -19.2 66.5 -19.3 66.75 -19.45 67.05 -19.55 67.3 -19.7 67.5 -19.8 67.75 -19.95 67.95 -20.05 68.2 -20.2 68.4 -20.3 68.6 -20.45 68.75 -20.55 68.95 -20.7 69.1 -20.8 69.25 -20.9 69.4 -21.05 69.55 -21.15 69.7 -21.2 69.8 -21.3 69.9 -21.5 70.1 -21.65 70.3 -21.9 70.55 -22.2 70.8 -22.5 71.1 -22.85 71.35 -23.25 71.7 -23.65 71.95 -24.1 72.25 -24.55 72.55 -25.05 72.8 -25.6 73.0 -26.15 73.25 -26.75 73.35 -26.85 73.4 -26.95 73.4 -27.05 73.4 -27.1 73.45 -27.2 73.45 -27.3 73.45 -27.4 73.45 -27.5 73.45 -27.55 73.45 -27.65 73.45 -27.75 73.45 -27.85 73.45 -27.95 73.4 -28.0 73.35 -28.1 73.35 -28.2 73.3 -28.4 73.2 -28.55 73.0 -28.65 72.85 -28.8 72.65 -28.85 72.45 -28.95 72.25 -29.0 72.05 -29.05 71.8 -29.05 71.6 -29.1 71.4 -29.1 71.25 -29.1 71.05 -29.1 70.95 -29.1 70.8 -29.1 70.75 -29.1 70.7 -29.1 70.4 -29.0 70.15 -28.95 69.85 -28.85 69.6 -28.75 69.4 -28.6 69.15 -28.45 68.9 -28.25 68.65 -28.1 68.45 -27.85 68.15 -27.8 68.05 -27.35 67.55 -27.05 67.2 -26.8 66.9 -26.5 66.5 -26.2 66.1 -25.55 65.25 -25.2 64.6 -27.05 67.8 -24.65 63.6 -24.25 62.95 -23.6 62.05 -23.25 61.55 -22.9 61.1 -22.55 60.7 -22.25 60.35 -22.0 60.05 -21.7 59.75 -21.6 59.6 -21.25 59.25 -21.0 58.95 -20.85 58.8 -20.6 58.55 -20.45 58.35 -20.25 58.1 -20.05 57.85 -19.85 57.55 -19.7 57.2 -19.6 57.0 -19.45 56.75 -19.35 56.55 -19.25 56.3 -19.1 56.0 -19.0 55.75 -18.9 55.45 -18.8 55.1 -18.7 54.8 -18.6 54.45 -18.5 54.1 -18.45 53.7 -18.35 53.3 -18.3 52.9 -18.25 52.45 -18.2 52.0 -18.55 52.35 -18.85 52.7 -19.2 53.0 -19.5 53.35 -19.8 53.65 -20.15 53.95 -20.45 54.25 -20.75 54.5 -21.0 54.75 -21.3 55.0 -21.55 55.25 -21.85 55.5 -22.1 55.7 -22.35 55.9 -22.6 56.1 -22.8 56.3 -23.25 56.65 -25.95 58.45 -26.3 58.65 -26.5 58.8 -26.75 58.95 -26.95 59.05 -27.15 59.2 -27.35 59.3 -27.55 59.4 -27.7 59.5 -27.85 59.55 -28.0 59.6 -28.2 59.65 -28.35 59.7 -28.5 59.75 -28.65 59.75 -28.8 59.75 -28.95 59.75 -28.95 59.75 -29.05 59.75 -29.15 59.7 -29.2 59.7 -29.35 59.65 -29.45 59.65 -29.6 59.6 -29.75 59.55 -29.9 59.5 -30.05 59.4 -30.2 59.3 -30.3 59.2 -30.45 59.1 -30.6 58.95 -30.7 58.85 -30.8 58.65 -30.85 58.5 -30.9 58.35 -30.95 58.2 -30.95 58.05 -30.95 57.9 -30.9 57.75 -30.9 57.6 -30.85 57.45 -30.8 57.25 -30.75 57.1 -30.65 56.95 -30.6 56.75 -30.5 56.6 -30.4 56.4 -30.35 56.3 -30.25 56.05 -30.2 55.9 -30.1 55.75 -30.0 55.6 -29.9 55.45 -29.8 55.3 -29.7 55.1 -29.6 54.95 -29.45 54.75 -29.3 54.6 -29.15 54.4 -29.0 54.2 -28.85 54.0 -28.65 53.8 -28.45 53.6 -28.25 53.4 -28.05 53.2 -27.8 53.2 -27.55 53.15 -27.25 53.1 -26.9 53.05 -26.5 52.95 -26.1 52.85 -25.6 52.7 -25.15 52.55 -24.65 52.35 -24.15 52.1 -23.6 51.85 -23.15 51.5 -22.6 51.15 -22.15 50.75 -21.65 50.3 -21.2 49.8 -20.95 49.45 -20.7 49.1 -20.45 48.75 -20.25 48.35 -20.05 48.0 -19.9 47.65 -19.75 47.3 -19.6 46.95 -19.5 46.65 -19.4 46.35 -19.3 46.1 -19.25 45.85 -19.2 45.6 -19.15 45.4 -19.1 45.25 -19.05 45.1 -18.85 44.2 -18.75 42.2 -18.75 41.9 -18.7 41.6 -18.7 41.3 -18.7 41.0 -18.7 40.7 -18.7 40.45 -18.7 40.15 -18.7 39.9 -18.7 39.65 -18.7 39.4 -18.7 39.2 -18.7 38.95 -18.75 38.75 -18.75 38.5 -18.75 38.35 -18.75 38.15 -18.9 38.45 -19.0 38.55 -19.15 38.9 -19.35 39.25 -19.65 39.65 -19.9 40.05 -20.25 40.55 -20.6 41.05 -21.0 41.55 -21.4 42.05 -21.85 42.6 -22.35 43.05 -22.85 43.6 -23.4 44.05 -24.0 44.5 -24.6 44.85 -24.75 44.95 -24.9 45.05 -25.05 45.15 -25.25 45.25 -25.45 45.35 -25.65 45.45 -25.85 45.6 -26.1 45.7 -26.35 45.8 -26.6 45.9 -26.85 46.0 -27.15 46.05 -27.45 46.15 -27.75 46.2 -28.1 46.3 -28.4 46.35 -28.55 46.35 -28.7 46.35 -28.85 46.4 -29.0 46.4 -29.15 46.4 -29.25 46.4 -29.4 46.4 -29.55 46.4 -29.65 46.4 -29.8 46.4 -29.9 46.4 -30.0 46.35 -30.1 46.35 -30.2 46.35 -30.3 46.35 -30.4 46.35 -30.35 46.2 -30.3 46.1 -30.25 45.95 -30.2 45.8 -30.1 45.65 -30.05 45.45 -29.95 45.3 -29.9 45.15 -29.8 44.95 -29.7 44.8 -29.6 44.6 -29.5 44.4 -29.4 44.25 -29.3 44.05 -29.15 43.85 -29.0 43.65 -28.8 43.35 -28.6 43.05 -28.4 42.8 -28.15 42.55 -27.95 42.3 -27.7 42.1 -27.5 41.85 -27.25 41.65 -27.05 41.45 -26.75 41.2 -26.6 41.05 -26.15 40.7 -25.8 40.35 -25.55 40.15 -25.15 39.8 -24.8 39.5 -24.45 39.2 -24.3 39.05 -24.0 38.8 -23.8 38.6 -23.55 38.35 -23.3 38.15 -23.05 37.9 -22.85 37.65 -22.6 37.45 -22.35 37.2 -22.15 36.95 -21.9 36.7 -21.65 36.45 -21.45 36.15 -21.2 35.9 -21.0 35.6 -20.65 35.15 -20.45 34.9 -20.15 34.5 -19.9 34.2 -19.65 33.85 -19.45 33.55 -19.2 33.2 -19.0 32.9 -18.8 32.6 -18.65 32.25 -18.5 31.95 -18.4 31.6 -18.25 31.25 -18.15 30.9 -18.05 30.55 -18.0 30.15 -17.95 29.95 -17.95 29.75 -17.95 29.55 -17.9 29.35 -17.9 29.2 -17.9 28.95 -17.9 28.85 -17.9 28.55 -17.9 28.25 -17.9 28.05 -17.9 27.7 -17.9 27.4 -17.9 27.0 -17.9 26.6 -17.85 26.1 -17.85 25.55 -17.85 25.35 -17.8 25.15 -17.8 24.95 -17.8 24.8 -17.75 24.6 -17.75 24.4 -17.75 24.25 -17.75 24.1 -17.7 23.9 -17.7 23.75 -17.7 23.6 -17.65 23.45 -17.65 23.35 -17.65 23.2 -17.6 23.1 -17.6 22.95 -18.05 23.2 -18.5 23.45 -19.0 23.7 -19.5 23.95 -20.0 24.2 -20.55 24.45 -21.1 24.7 -21.65 24.9 -22.25 25.15 -22.85 25.35 -23.45 25.6 -24.1 25.8 -24.75 26.0 -25.4 26.15 -26.1 26.35 -26.8 26.5 -27.0 26.55 -27.25 26.6 -27.45 26.65 -27.7 26.65 -27.9 26.7 -28.1 26.75 -28.3 26.8 -28.55 26.8 -28.75 26.85 -28.95 26.85 -29.15 26.9 -29.35 26.95 -29.55 26.95 -29.75 27.0 -29.95 27.0 -30.15 27.0 -30.05 26.9 -29.95 26.8 -29.85 26.7 -29.75 26.6 -29.6 26.45 -29.5 26.35 -29.35 26.25 -29.2 26.1 -29.05 25.95 -28.95 25.85 -28.75 25.7 -28.6 25.55 -28.45 25.4 -28.3 25.25 -28.1 25.1 -27.95 24.95 -26.0 23.2 -25.2 22.65 -24.7 22.3 -24.2 22.05 -23.8 21.8 -23.35 21.65 -23.0 21.5 -22.55 21.4 -22.3 21.3 -21.85 21.25 -21.35 21.15 -21.2 21.1 -20.85 21.0 -20.55 20.9 -20.25 20.8 -19.9 20.6 -19.55 20.4 -19.2 20.15 -18.9 19.9 -18.65 19.65 -18.4 19.35 -18.2 19.05 -18.0 18.75 -17.8 18.45 -17.6 18.15 -17.45 17.8 -17.3 17.5 -17.2 17.1 -17.05 16.8 -16.9 16.4 -16.8 16.05 -16.7 15.65 -16.6 15.35 -16.45 14.85 -16.35 14.4 -16.25 14.0 -16.15 13.6 -16.05 13.15 -16.0 12.8 -15.95 12.4 -15.9 12.0 -15.85 11.65 -15.85 11.3 -15.85 10.95 -15.8 10.65 -15.8 10.35 -15.8 10.05 -15.8 9.75 -15.85 9.5 -15.85 9.25 -16.35 9.7 -16.8 10.1 -17.3 10.45 -17.8 10.85 -18.25 11.15 -18.7 11.5 -19.15 11.8 -19.6 12.05 -20.0 12.35 -20.45 12.6 -20.85 12.8 -21.25 13.0 -21.6 13.2 -22.0 13.4 -22.35 13.55 -22.65 13.7 -23.0 13.85 -23.35 14.0 -23.65 14.1 -23.95 14.25 -24.25 14.35 -24.6 14.45 -24.85 14.55 -25.15 14.65 -25.45 14.7 -25.75 14.8 -26.0 14.85 -26.3 14.95 -26.55 15.0 -26.85 15.1 -27.05 15.15 -27.4 15.25 -27.95 15.4 -28.45 15.5 -28.95 15.6 -29.4 15.65 -29.8 15.7 -30.15 15.75 -30.5 15.75 -30.8 15.8 -31.1 15.8 -31.35 15.75 -31.6 15.75 -31.85 15.7 -32.05 15.7 -32.25 15.65 -32.45 15.6 -32.6 15.55 -32.75 15.5 -32.85 15.45 -33.0 15.4 -33.15 15.35 -33.3 15.3 -33.45 15.2 -33.6 15.15 -33.75 15.05 -33.95 14.95 -34.05 14.85 -34.2 14.7 -34.35 14.6 -34.5 14.45 -34.6 14.3 -34.7 14.1 -34.75 13.95 -34.8 13.85 -34.85 13.7 -34.85 13.6 -34.9 13.5 -34.9 13.4 -34.9 13.3 -34.9 13.2 -34.9 13.1 -34.9 13.0 -34.9 12.9 -34.9 12.85 -34.9 12.75 -34.9 12.7 -34.85 12.65 -34.85 12.6 -34.85 12.55 -34.8 12.35 -34.7 12.15 -34.65 11.95 -34.55 11.75 -34.45 11.6 -34.35 11.45 -34.2 11.3 -34.1 11.2 -34.0 11.05 -33.85 10.95 -33.75 10.9 -33.65 10.8 -33.6 10.75 -33.5 10.7 -33.45 10.65 -33.4 10.65 -31.05 10.35 -29.7 10.1 -28.5 9.9 -27.85 9.75 -26.9 9.6 -26.2 9.45 -25.4 9.3 -24.75 9.15 -24.0 9.0 -23.4 8.8 -22.8 8.6 -22.25 8.4 -21.65 8.2 -21.15 7.95 -20.6 7.7 -20.1 7.4 -19.6 7.1 -19.15 6.75 -18.9 6.55 -18.75 6.4 -18.45 6.2 -18.25 6.05 -18.0 5.8 -17.75 5.6 -17.5 5.3 -17.3 5.05 -17.05 4.75 -16.8 4.45 -16.6 4.15 -16.4 3.8 -16.2 3.45 -16.05 3.05 -15.85 2.65 -15.75 2.2 -15.7 2.0 -15.65 1.8 -15.65 1.6 -15.6 1.4 -15.6 1.2 -15.6 1.0 -15.6 0.85 -15.6 0.65 -15.6 0.5 -15.6 0.3 -15.6 0.15 -15.6 0.0 -15.65 -0.15 -15.65 -0.3 -15.65 -0.4 -15.7 -0.55 -16.5 -0.35 -18.0 0.0 -17.85 -0.3 -17.75 -0.55 -17.6 -0.85 -17.5 -1.1 -17.35 -1.35 -17.25 -1.65 -17.15 -1.9 -17.05 -2.15 -16.95 -2.4 -16.85 -2.6 -16.75 -2.85 -16.65 -3.1 -16.55 -3.3 -16.45 -3.5 -16.4 -3.7 -16.3 -3.9 -16.2 -4.15 -16.15 -4.3 -16.1 -4.5 -16.05 -4.65 -15.95 -4.85 -15.95 -5.0 -15.9 -5.2 -15.85 -5.35 -15.85 -5.5 -15.8 -5.65 -15.8 -5.85 -15.8 -6.0 -15.8 -6.15 -15.85 -6.3 -15.85 -6.45 -15.9 -6.6 -15.95 -6.7 -16.0 -6.85 -16.05 -6.95 -16.1 -7.05 -16.15 -7.15 -16.2 -7.2 -16.3 -7.3 -16.35 -7.4 -16.4 -7.45 -16.45 -7.55 -16.55 -7.6 -16.6 -7.7 -16.65 -7.75 -16.7 -7.8 -16.8 -7.85 -16.85 -7.9 -17.15 -7.65 -17.45 -7.35 -17.9 -6.95 -18.4 -6.55 -19.0 -6.0 -19.65 -5.5 -20.4 -4.9 -21.2 -4.35 -22.1 -3.7 -22.95 -3.15 -23.95 -2.55 -24.95 -2.0 -26.0 -1.4 -27.1 -0.95 -28.2 -0.45 -29.35 -0.1 -29.75 0.0 -30.0 0.1 -30.35 0.2 -30.7 0.3 -31.15 0.45 -31.55 0.55 -32.0 0.65 -32.5 0.75 -33.0 0.8 -33.5 0.9 -34.05 0.95 -34.6 0.95 -35.2 1.0 -35.8 1.0 -36.45 0.95 -37.05 0.9 -37.2 0.9 -37.4 0.85 -37.55 0.85 -37.75 0.8 -37.9 0.8 -38.05 0.75 -38.2 0.75 -38.35 0.7 -38.45 0.7 -38.6 0.65 -38.7 0.65 -38.85 0.6 -38.95 0.6 -39.1 0.55 -39.2 0.55 -39.3 0.5 -39.35 0.45 -39.4 0.45 -39.45 0.4 -39.55 0.3 -39.6 0.25 -39.7 0.2 -39.75 0.1 -39.85 0.0 -39.9 -0.1 -40.0 -0.2 -40.05 -0.3 -40.15 -0.45 -40.2 -0.55 -40.25 -0.7 -40.3 -0.85 -40.35 -1.0 -40.4 -1.2 -40.4 -1.4 -40.45 -1.6 -40.4 -1.85 -40.4 -2.05 -40.35 -2.25 -40.3 -2.45 -40.25 -2.65 -40.15 -2.85 -40.05 -3.05 -39.95 -3.25 -39.8 -3.4 -39.65 -3.6 -39.5 -3.75 -39.3 -3.95 -39.15 -4.1 -38.75 -4.1 -38.15 -4.15 -37.3 -4.2 -36.35 -4.3 -35.2 -4.45 -34.05 -4.6 -32.65 -4.8 -31.3 -5.05 -29.75 -5.35 -28.35 -5.7 -26.8 -6.15 -25.4 -6.65 -23.85 -7.2 -22.55 -7.85 -21.15 -8.55 -20.05 -9.35 -19.65 -9.65 -19.5 -9.8 -19.15 -10.05 -18.9 -10.25 -18.55 -10.55 -18.25 -10.85 -17.9 -11.15 -17.6 -11.5 -17.3 -11.85 -17.0 -12.2 -16.7 -12.6 -16.5 -13.05 -16.25 -13.5 -16.05 -13.95 -15.85 -14.45 -15.75 -14.95 -15.55 -15.95 -15.7 -18.5 -15.7 -18.9 -15.75 -19.25 -15.75 -19.6 -15.8 -20.0 -15.85 -20.35 -15.85 -20.65 -15.9 -21.0 -15.95 -21.3 -16.0 -21.6 -16.05 -21.9 -16.1 -22.2 -16.15 -22.5 -16.15 -22.75 -16.2 -23.0 -16.25 -23.2 -16.3 -23.45 -16.65 -23.05 -17.05 -22.7 -17.45 -22.3 -17.85 -21.95 -18.3 -21.55 -18.75 -21.15 -19.2 -20.75 -19.7 -20.35 -20.2 -19.95 -20.75 -19.6 -21.3 -19.2 -21.9 -18.85 -22.5 -18.45 -23.1 -18.1 -23.75 -17.75 -24.45 -17.4 -25.45 -16.9 -26.5 -16.45 -27.5 -16.1 -28.5 -15.75 -29.45 -15.45 -30.4 -15.25 -31.3 -15.05 -32.15 -14.9 -32.95 -14.75 -33.75 -14.65 -34.45 -14.55 -35.2 -14.5 -35.75 -14.45 -36.35 -14.45 -36.75 -14.45 -37.3 -14.4 -37.6 -14.4 -37.9 -14.4 -38.15 -14.4 -38.45 -14.4 -38.7 -14.4 -38.95 -14.4 -39.2 -14.45 -39.45 -14.45 -39.7 -14.45 -39.95 -14.45 -40.15 -14.5 -40.35 -14.5 -40.55 -14.5 -40.75 -14.55 -40.95 -14.55 -41.15 -14.55 -39.4 -15.8 -35.85 -18.3 -34.85 -18.55 -33.85 -18.85 -32.9 -19.15 -32.0 -19.5 -31.1 -19.8 -30.25 -20.1 -29.45 -20.45 -28.65 -20.8 -27.95 -21.1 -27.2 -21.45 -26.55 -21.8 -25.9 -22.1 -25.3 -22.45 -24.7 -22.75 -24.2 -23.05 -23.65 -23.4 -22.8 -23.9 -22.1 -24.4 -21.4 -24.85 -20.8 -25.3 -20.25 -25.7 -19.8 -26.1 -19.35 -26.5 -18.95 -26.85 -18.65 -27.2 -18.35 -27.55 -18.1 -27.8 -17.9 -28.1 -17.7 -28.35 -17.55 -28.6 -17.4 -28.75 -17.3 -28.95 -17.0 -29.45 -16.75 -30.0 -16.55 -30.5 -16.35 -31.05 -16.15 -31.5 -16.0 -32.05 -15.85 -32.5 -15.75 -33.0 -15.65 -33.4 -15.55 -33.8 -15.5 -34.2 -15.45 -34.55 -15.4 -34.8 -15.35 -35.05 -15.35 -35.25 -15.3 -35.4 -15.3 -35.6 -15.25 -35.8 -15.25 -36.0 -15.25 -36.15 -15.25 -36.35 -15.25 -36.55 -15.2 -36.7 -15.2 -36.85 -15.2 -37.0 -15.2 -37.2 -15.2 -37.35 -15.2 -37.5 -15.2 -37.6 -15.2 -37.75 -15.25 -37.9 -15.25 -38.0 -15.8 -37.45 -16.35 -36.95 -16.95 -36.35 -17.6 -35.8 -18.3 -35.2 -19.0 -34.6 -19.8 -34.0 -20.6 -33.4 -21.45 -32.75 -22.35 -32.2 -23.3 -31.6 -24.3 -31.05 -25.3 -30.45 -26.4 -29.95 -27.5 -29.4 -28.65 -28.95 -29.15 -28.75 -29.45 -28.65 -29.9 -28.45 -30.35 -28.3 -30.85 -28.15 -31.35 -28.0 -31.95 -27.8 -32.5 -27.65 -33.1 -27.5 -33.75 -27.35 -34.45 -27.2 -35.1 -27.1 -35.85 -26.95 -36.6 -26.9 -37.4 -26.8 -38.2 -26.75 -38.6 -26.75 -39.05 -26.7 -39.45 -26.7 -39.85 -26.7 -40.25 -26.75 -40.65 -26.75 -41.0 -26.75 -41.35 -26.8 -41.7 -26.8 -42.05 -26.85 -42.35 -26.85 -42.7 -26.9 -42.95 -26.95 -43.25 -27.0 -43.55 -27.0 -43.8 -27.05 -43.45 -27.2 -43.05 -27.35 -42.65 -27.55 -42.3 -27.75 -41.85 -27.95 -41.45 -28.2 -41.05 -28.4 -40.6 -28.65 -40.2 -28.95 -39.75 -29.2 -39.3 -29.5 -38.85 -29.85 -38.4 -30.15 -37.95 -30.5 -37.5 -30.9 -37.05 -31.25 -36.85 -31.4 -36.7 -31.6 -36.5 -31.75 -36.35 -31.9 -36.15 -32.1 -36.0 -32.25 -35.85 -32.4 -35.7 -32.6 -35.55 -32.75 -35.4 -32.9 -35.25 -33.1 -35.1 -33.25 -34.95 -33.4 -34.8 -33.55 -34.65 -33.7 -34.55 -33.85 -33.8 -33.95 -33.1 -34.05 -32.4 -34.2 -31.7 -34.3 -31.1 -34.45 -30.45 -34.6 -29.9 -34.75 -29.3 -34.9 -28.8 -35.05 -28.3 -35.25 -27.8 -35.4 -27.35 -35.6 -26.9 -35.75 -26.5 -35.9 -26.1 -36.1 -25.75 -36.25 -25.35 -36.45 -24.95 -36.65 -24.6 -36.8 -24.15 -37.0 -24.3 -36.95 -23.45 -37.4 -23.0 -37.6 -22.75 -37.75 -22.35 -37.95 -22.05 -38.1 -21.65 -38.3 -21.3 -38.4 -20.9 -38.55 -20.5 -38.7 -20.1 -38.85 -19.7 -38.95 -19.6 -38.95 -19.5 -39.0 -19.4 -39.0 -19.25 -39.05 -19.1 -39.1 -18.95 -39.15 -18.75 -39.2 -18.6 -39.25 -18.4 -39.3 -18.2 -39.4 -17.95 -39.45 -17.75 -39.55 -17.5 -39.65 -17.25 -39.75 -17.0 -39.85 -16.75 -40.0 -16.6 -40.1 -16.45 -40.15 -16.35 -40.25 -16.2 -40.3 -16.05 -40.4 -15.95 -40.5 -15.85 -40.55 -15.7 -40.65 -15.6 -40.7 -15.5 -40.8 -15.4 -40.85 -15.3 -40.9 -15.2 -41.0 -15.15 -41.05 -15.05 -41.1 -15.0 -41.2 -14.95 -41.35 -14.9 -41.55 -14.85 -41.75 -14.8 -41.9 -14.75 -42.1 -14.75 -42.35 -14.7 -42.55 -14.65 -42.75 -14.6 -43.0 -14.6 -43.25 -14.55 -43.5 -14.55 -43.75 -14.55 -44.0 -14.55 -44.25 -14.5 -44.55 -14.5 -44.8 -14.5 -45.05 -14.5 -45.35 -14.55 -45.6 -14.55 -45.85 -14.6 -46.1 -14.6 -46.3 -14.65 -46.55 -14.7 -46.8 -14.7 -47.0 -14.75 -47.2 -14.8 -47.4 -14.85 -47.6 -14.9 -47.8 -14.95 -48.0 -15.0 -48.15 -15.05 -48.3 -15.35 -48.15 -15.7 -48.05 -16.05 -47.9 -16.35 -47.75 -16.75 -47.6 -17.1 -47.45 -17.5 -47.3 -17.9 -47.1 -18.3 -46.95 -18.7 -46.8 -19.15 -46.6 -19.6 -46.45 -20.05 -46.3 -20.5 -46.1 -21.0 -45.95 -21.45 -45.75 -22.25 -45.5 -22.35 -45.45 -22.95 -45.25 -23.45 -45.1 -24.05 -44.85 -24.65 -44.7 -25.35 -44.45 -26.05 -44.25 -26.8 -44.05 -27.55 -43.85 -28.4 -43.6 -29.2 -43.4 -30.1 -43.15 -31.0 -42.95 -32.0 -42.75 -32.95 -42.55 -34.05 -42.35 -34.7 -42.2 -35.7 -42.0 -36.5 -41.9 -37.45 -41.7 -38.3 -41.6 -39.25 -41.45 -40.15 -41.4 -41.15 -41.3 -42.1 -41.25 -43.1 -41.2 -44.1 -41.2 -45.1 -41.2 -46.15 -41.25 -47.25 -41.35 -48.4 -41.5 -48.55 -41.5 -48.75 -41.55 -48.9 -41.55 -49.05 -41.6 -49.25 -41.6 -49.4 -41.6 -49.55 -41.65 -49.7 -41.65 -49.8 -41.7 -49.95 -41.7 -50.1 -41.75 -50.2 -41.75 -50.35 -41.8 -50.45 -41.8 -50.55 -41.8 -50.65 -41.85 -50.0 -42.45 -48.7 -43.7 -46.9 -44.15 -45.75 -44.35 -45.05 -44.45 -44.35 -44.55 -43.7 -44.6 -43.05 -44.65 -42.45 -44.65 -41.85 -44.65 -41.3 -44.65 -40.75 -44.6 -40.25 -44.55 -39.7 -44.5 -39.3 -44.5 -38.75 -44.45 -35.5 -44.05 -37.85 -44.3 -37.35 -44.25 -37.0 -44.25 -36.4 -44.2 -35.8 -44.2 -35.25 -44.15 -34.6 -44.2 -34.05 -44.25 -33.4 -44.3 -32.8 -44.35 -32.1 -44.5 -31.45 -44.6 -30.65 -44.7 -29.95 -44.85 -29.1 -45.05 -28.35 -45.2 -27.35 -45.45 -26.7 -45.55 -25.35 -45.85 -24.75 -46.0 -24.2 -46.15 -23.6 -46.3 -23.0 -46.45 -22.35 -46.6 -21.75 -46.8 -21.1 -46.95 -20.45 -47.15 -19.75 -47.35 -19.1 -47.6 -18.4 -47.8 -17.7 -48.05 -16.95 -48.3 -16.25 -48.6 -15.5 -48.85 -14.8 -49.15 -14.75 -50.95 -14.65 -54.6 -14.7 -54.6 -16.1 -54.1 -17.15 -53.75 -17.95 -53.5 -26.05 -50.75 -30.4 -49.9 -30.95 -49.8 -31.25 -49.75 -31.75 -49.65 -32.25 -49.55 -32.8 -49.45 -33.35 -49.35 -33.95 -49.25 -34.6 -49.2 -35.25 -49.1 -35.95 -49.05 -36.7 -48.95 -37.45 -48.9 -38.2 -48.85 -39.0 -48.8 -39.85 -48.75 -40.7 -48.75 -42.05 -48.7 -43.0 -48.8 -43.55 -48.8 -44.3 -48.9 -45.0 -49.0 -45.45 -49.0 -46.2 -49.05 -47.25 -49.0 -46.25 -49.05 -47.85 -48.95 -48.2 -48.95 -48.45 -48.95 -48.8 -48.9 -49.1 -48.9 -49.45 -48.9 -49.8 -48.95 -50.15 -48.95 -50.5 -49.0 -50.9 -49.05 -51.25 -49.15 -51.65 -49.2 -52.0 -49.35 -52.4 -49.5 -52.75 -49.65 -52.9 -49.7 -53.05 -49.8 -53.2 -49.85 -53.35 -49.95 -53.45 -50.05 -53.55 -50.1 -53.7 -50.2 -53.75 -50.25 -53.85 -50.35 -53.95 -50.45 -54.05 -50.55 -54.1 -50.65 -54.15 -50.7 -54.2 -50.8 -54.25 -50.9 -54.3 -51.05 -54.35 -51.25 -54.4 -51.45 -54.4 -51.6 -54.35 -51.8 -54.35 -52.0 -54.3 -52.15 -54.25 -52.35 -54.2 -52.5 -54.1 -52.65 -54.05 -52.85 -53.95 -52.95 -53.85 -53.1 -53.8 -53.25 -53.7 -53.35 -53.65 -53.4 -53.6 -53.55 -53.5 -53.7 -53.35 -53.85 -53.2 -54.0 -53.1 -54.15 -52.95 -54.25 -52.8 -54.4 -52.7 -54.5 -52.55 -54.6 -52.45 -54.7 -52.3 -54.8 -52.15 -54.85 -52.0 -54.95 -51.9 -55.05 -51.75 -55.1 -51.65 -55.15 -51.5 -55.25 -49.3 -56.55 -48.0 -57.3 -47.4 -57.7 -47.2 -57.75 -46.65 -58.0 -46.1 -58.15 -45.6 -58.3 -45.05 -58.35 -44.5 -58.4 -43.9 -58.4 -43.35 -58.4 -42.6 -58.35 -42.1 -58.3 -41.2 -58.2 -39.95 -58.1 -39.5 -58.05 -38.5 -57.95 -37.6 -57.9 -36.45 -57.85 -35.3 -57.8 -35.3 -57.8 -34.8 -57.8 -34.35 -57.8 -33.9 -57.8 -33.25 -57.8 -32.6 -57.85 -31.75 -57.85 -30.95 -57.9 -30.05 -58.0 -29.1 -58.05 -28.1 -58.15 -27.15 -58.3 -26.05 -58.45 -25.05 -58.6 -24.0 -58.8 -23.0 -59.05 -22.7 -59.15 -22.4 -59.2 -22.1 -59.3 -21.8 -59.35 -21.55 -59.45 -21.3 -59.55 -21.05 -59.6 -20.8 -59.65 -20.6 -59.75 -20.4 -59.8 -20.25 -59.85 -20.1 -59.9 -19.95 -59.95 -19.85 -60.0 -19.75 -60.05 -19.7 -60.05 -19.3 -60.2 -18.9 -60.35 -18.5 -60.5 -18.15 -60.7 -17.8 -60.85 -17.45 -61.0 -17.1 -61.15 -16.8 -61.35 -16.45 -61.5 -16.15 -61.65 -15.9 -61.8 -15.6 -61.95 -15.35 -62.1 -15.1 -62.25 -14.85 -62.4 -14.6 -62.5 -14.55 -62.9 -14.25 -64.35 -13.15 -70.2 -13.1 -70.7 -13.05 -71.0 -13.05 -71.3 -13.05 -71.55 -13.0 -71.8 -13.0 -72.3 -13.0 -72.25 -12.95 -72.45 -12.95 -72.6 -12.95 -72.75 -12.9 -72.9 -12.9 -73.05 -12.85 -73.15 -12.8 -73.3 -12.75 -73.4 -12.7 -73.55 -12.65 -73.7 -12.55 -73.85 -12.5 -74.0 -12.4 -74.1 -12.3 -74.25 -12.3 -74.2 -12.1 -74.5 -12.0 -74.65 -11.95 -74.7 -11.85 -74.85 -11.8 -74.95 -11.75 -75.1 -11.7 -75.2 -11.65 -75.35 -11.6 -75.5 -11.55 -75.6 -11.55 -75.8 -11.55 -75.9 -11.55 -76.05 -11.55 -76.15 -11.6 -76.25 -11.6 -76.35 -11.6 -76.45 -11.65 -76.55 -11.7 -76.65 -11.7 -76.75 -11.75 -76.85 -11.8 -76.95 -11.85 -77.0 -11.9 -77.1 -11.95 -77.15 -11.95 -77.25 -12.0 -77.3 L-12.0 -77.3 M-21.45 -70.8 Q-21.5 -70.75 -21.55 -70.75 -21.55 -70.7 -21.6 -70.7 -21.65 -70.65 -21.7 -70.65 -21.75 -70.6 -21.8 -70.6 -21.85 -70.55 -21.9 -70.55 -21.95 -70.5 -21.95 -70.5 -22.0 -70.45 -22.05 -70.45 -22.1 -70.45 -22.15 -70.4 -22.2 -70.4 -22.25 -70.35 -22.3 -70.35 -22.35 -70.35 -22.4 -70.35 -22.45 -70.3 -22.5 -70.3 -22.55 -70.3 -22.6 -70.3 -22.65 -70.25 -22.7 -70.25 -22.75 -70.25 -22.8 -70.25 -22.9 -70.25 -22.95 -70.2 -23.0 -70.2 -23.45 -70.1 -23.7 -70.05 -23.9 -70.0 -23.9 -70.0 -24.3 -69.9 -25.8 -70.0 -27.5 -70.05 -27.7 -70.0 -27.9 -70.0 -28.05 -69.95 -28.2 -69.95 -28.35 -69.9 -28.45 -69.85 -28.6 -69.85 -28.8 -69.75 -28.8 -69.75 -28.95 -69.75 -29.0 -69.7 -29.1 -69.7 -29.2 -69.7 -29.35 -69.7 -29.45 -69.7 -29.55 -69.7 -29.7 -69.75 -29.75 -69.75 -29.8 -69.75 -29.85 -69.8 -29.9 -69.8 -29.95 -69.8 -30.0 -69.85 -30.0 -69.85 -30.1 -69.85 -30.15 -69.9 -30.2 -69.9 -30.25 -69.9 -30.35 -69.95 -30.4 -69.95 -30.5 -69.95 -30.55 -70.0 -30.65 -70.0 -30.7 -70.0 -30.8 -70.05 -30.85 -70.05 -30.9 -70.05 -30.95 -70.1 -31.05 -70.1 -31.1 -70.1 -31.15 -70.1 -31.25 -70.1 -31.3 -70.1 -31.35 -70.15 -31.45 -70.15 -31.5 -70.15 -31.55 -70.15 -31.6 -70.15 -31.7 -70.15 -31.95 -70.15 -32.7 -70.2 -33.35 -70.2 -33.75 -70.25 -33.9 -70.25 -34.0 -70.3 -34.15 -70.3 -34.25 -70.3 -34.4 -70.3 -34.55 -70.35 -34.65 -70.35 -34.8 -70.35 -34.9 -70.35 -35.05 -70.35 -35.2 -70.35 -35.3 -70.4 -35.45 -70.4 -35.6 -70.4 -35.7 -70.4 -35.85 -70.4 -36.2 -70.4 -38.0 -70.45 -39.3 -70.45 -40.15 -70.55 -41.85 -70.65 -44.4 -71.1 -45.4 -71.25 -48.55 -71.75 -51.6 -72.3 -52.3 -72.45 -53.35 -72.75 -54.05 -73.0 -54.45 -73.15 -55.0 -73.4 -55.75 -73.75 -55.95 -73.85 -56.05 -73.9 -56.25 -74.0 -57.1 -74.1 -57.55 -74.2 -57.65 -74.2 -57.75 -74.25 -57.85 -74.25 -57.9 -74.25 -58.0 -74.3 -58.1 -74.3 -58.2 -74.35 -58.25 -74.35 -58.35 -74.4 -58.45 -74.4 -58.55 -74.45 -58.6 -74.5 -58.7 -74.55 -58.8 -74.55 -58.85 -74.6 -58.95 -74.65 -59.0 -74.7 -59.15 -74.85 -59.15 -74.9 -59.15 -74.9 -59.25 -74.9 -59.25 -74.95 -59.3 -75.0 -59.3 -75.0 -59.35 -75.0 -59.4 -75.05 -59.4 -75.05 -59.45 -75.1 -59.5 -75.15 -59.5 -75.15 -59.55 -75.2 -59.55 -75.3 -59.55 -75.35 -59.5 -75.4 -59.5 -75.4 -59.5 -75.45 -59.5 -75.55 -59.5 -75.6 -59.55 -75.65 -59.55 -75.75 -59.5 -75.85 -59.45 -75.85 -59.4 -75.85 -59.4 -75.85 -59.35 -75.9 -59.35 -75.9 -59.3 -75.95 -59.25 -75.95 -59.25 -75.95 -59.2 -76.0 -59.15 -76.0 -59.1 -76.0 -59.05 -76.0 -59.0 -76.0 -58.95 -76.05 -58.95 -76.05 -58.9 -76.1 -58.85 -76.1 -58.8 -76.15 -58.75 -76.15 -58.75 -76.2 -58.7 -76.2 -58.65 -76.25 -58.6 -76.25 -58.55 -76.25 -58.5 -76.3 -58.5 -76.3 -58.45 -76.35 -58.4 -76.35 -58.35 -76.35 -58.0 -76.5 -57.05 -76.7 -56.6 -76.8 -55.65 -77.1 -54.35 -77.5 -53.75 -77.55 -53.05 -77.65 -51.65 -77.65 -51.45 -77.65 -50.6 -77.65 -49.9 -77.6 -49.5 -77.6 -49.35 -77.6 -49.25 -77.6 -49.1 -77.6 -49.0 -77.6 -48.85 -77.65 -48.75 -77.65 -48.6 -77.65 -48.5 -77.65 -48.35 -77.7 -48.25 -77.7 -48.1 -77.7 -48.0 -77.75 -47.9 -77.75 -47.75 -77.75 -47.65 -77.8 -47.5 -77.8 -46.15 -78.1 -45.65 -78.15 -45.5 -78.15 -45.4 -78.15 -45.25 -78.2 -45.1 -78.2 -45.0 -78.2 -44.85 -78.2 -44.7 -78.2 -44.55 -78.2 -44.45 -78.2 -44.3 -78.2 -44.2 -78.25 -44.05 -78.25 -43.9 -78.25 -43.75 -78.25 -43.65 -78.25 -43.5 -78.25 -43.25 -78.25 -43.0 -78.25 -42.7 -78.2 -42.45 -78.2 -42.2 -78.2 -41.95 -78.15 -41.65 -78.15 -41.4 -78.1 -41.15 -78.1 -40.9 -78.05 -40.65 -78.0 -40.35 -78.0 -40.1 -77.95 -39.85 -77.9 -39.6 -77.85 -39.35 -77.85 -39.25 -77.85 -35.3 -76.9 -32.5 -76.25 -31.35 -75.8 -30.95 -75.65 -29.5 -75.05 -28.35 -74.55 -27.6 -74.35 -26.15 -74.0 -25.75 -73.8 -25.4 -73.7 -24.0 -73.0 -22.7 -72.45 -22.4 -72.25 -22.35 -72.2 -22.3 -72.2 -22.25 -72.15 -22.2 -72.15 -22.15 -72.1 -22.1 -72.05 -22.05 -72.05 -22.0 -72.0 -21.95 -71.95 -21.9 -71.95 -21.85 -71.9 -21.8 -71.85 -21.8 -71.85 -21.75 -71.8 -21.7 -71.75 -21.65 -71.75 -21.6 -71.75 -21.6 -71.7 -21.6 -71.7 -21.5 -71.65 -21.5 -71.6 -21.45 -71.6 -21.4 -71.55 -21.4 -71.55 -21.35 -71.5 -21.35 -71.45 -21.3 -71.45 -21.3 -71.4 -21.25 -71.35 -21.25 -71.35 -21.25 -71.3 -21.2 -71.25 -21.2 -71.2 -21.2 -71.2 -21.2 -71.15 -21.2 -71.1 -21.2 -71.1 -21.25 -71.05 -21.25 -71.05 -21.25 -71.0 -21.25 -70.95 -21.3 -70.95 -21.3 -70.9 -21.35 -70.9 -21.35 -70.85 -21.4 -70.85 -21.4 -70.8 -21.45 -70.8 L-21.45 -70.8" fill="url(#gradient0)" fill-rule="evenodd" stroke="none"/>
    <path d="M37.65 -75.85 Q37.65 -75.7 37.7 -75.55 37.75 -75.4 37.8 -75.25 37.85 -75.15 37.9 -75.0 37.95 -74.9 38.05 -74.8 38.1 -74.7 38.2 -74.55 38.4 -74.3 38.4 -74.3 38.5 -74.15 38.55 -74.05 38.65 -73.9 38.75 -73.75 38.85 -73.6 38.9 -73.45 38.95 -73.35 38.95 -73.2 39.0 -73.1 39.05 -72.95 39.05 -72.8 39.05 -72.65 39.1 -72.5 39.1 -72.3 39.05 -72.55 39.1 -71.9 39.15 -71.6 39.15 -71.35 39.15 -71.05 39.2 -70.75 39.25 -70.15 40.35 -64.4 40.5 -63.65 40.7 -62.55 40.95 -62.4 41.2 -62.3 41.45 -62.15 41.7 -62.0 42.0 -61.85 42.25 -61.7 42.55 -61.55 42.9 -61.4 43.2 -61.2 43.55 -61.05 43.9 -60.9 44.25 -60.75 44.6 -60.6 45.0 -60.45 45.4 -60.25 45.8 -60.1 46.0 -60.05 46.15 -59.95 46.35 -59.9 46.5 -59.85 46.7 -59.8 46.9 -59.75 47.1 -59.65 47.3 -59.6 47.5 -59.55 47.7 -59.5 47.9 -59.4 48.15 -59.35 48.35 -59.3 48.6 -59.25 48.85 -59.15 49.1 -59.1 49.95 -58.9 50.8 -58.7 51.6 -58.5 52.4 -58.35 53.15 -58.2 53.9 -58.05 54.55 -57.95 55.2 -57.85 55.8 -57.75 56.35 -57.65 56.8 -57.6 57.25 -57.55 57.6 -57.5 57.9 -57.45 58.1 -57.45 58.25 -57.4 59.8 -57.25 60.45 -57.15 61.6 -57.05 62.4 -57.0 63.35 -56.9 64.1 -56.85 64.9 -56.8 65.6 -56.8 66.25 -56.75 66.85 -56.8 67.4 -56.8 67.9 -56.85 68.4 -56.9 68.8 -57.05 69.2 -57.15 69.55 -57.3 69.55 -57.3 69.65 -57.35 69.75 -57.4 69.95 -57.5 70.15 -57.55 70.35 -57.65 70.6 -57.75 70.9 -57.8 71.2 -57.9 71.5 -57.95 71.8 -58.0 72.1 -58.0 72.45 -58.05 72.75 -58.0 73.05 -57.95 73.3 -57.8 73.4 -57.75 73.5 -57.75 73.25 -57.9 74.35 -57.2 75.45 -56.55 77.6 -55.3 77.75 -55.2 77.85 -55.15 78.0 -55.05 78.1 -55.0 78.25 -54.9 78.4 -54.85 78.55 -54.75 78.65 -54.65 78.8 -54.55 78.9 -54.45 79.05 -54.3 79.2 -54.2 79.3 -54.05 79.45 -53.9 79.55 -53.75 79.7 -53.6 79.95 -53.2 79.8 -53.4 79.9 -53.3 79.95 -53.15 80.05 -53.0 80.15 -52.9 80.2 -52.7 80.3 -52.55 80.35 -52.4 80.4 -52.2 80.45 -52.0 80.45 -51.85 80.5 -51.65 80.5 -51.45 80.45 -51.25 80.4 -51.1 80.35 -51.0 80.3 -50.9 80.25 -50.8 80.2 -50.7 80.15 -50.6 80.05 -50.5 79.95 -50.4 79.9 -50.3 79.8 -50.25 79.65 -50.15 79.55 -50.1 79.45 -50.0 79.3 -49.95 79.15 -49.85 79.05 -49.8 78.85 -49.7 78.5 -49.55 78.1 -49.4 77.75 -49.3 77.35 -49.2 77.0 -49.1 76.6 -49.05 76.25 -49.0 75.9 -49.0 75.55 -48.95 75.2 -48.95 74.9 -48.95 74.55 -49.0 74.3 -49.0 73.95 -49.0 73.25 -49.05 73.35 -49.05 72.3 -49.1 71.55 -49.05 71.1 -49.05 70.4 -48.95 69.65 -48.85 69.1 -48.8 68.15 -48.75 66.8 -48.8 65.95 -48.8 65.1 -48.85 64.3 -48.9 63.5 -48.95 62.8 -49.0 62.05 -49.1 61.35 -49.15 60.7 -49.25 60.05 -49.35 59.45 -49.45 58.9 -49.5 58.35 -49.6 57.85 -49.7 57.35 -49.8 57.0 -49.85 56.5 -49.95 52.25 -50.8 44.05 -53.55 42.5 -54.05 40.75 -54.65 40.8 -52.85 40.9 -49.2 41.7 -48.9 42.45 -48.65 43.2 -48.4 43.95 -48.15 44.65 -47.9 45.4 -47.7 46.05 -47.5 46.75 -47.25 47.4 -47.05 48.05 -46.9 48.65 -46.7 49.25 -46.55 49.8 -46.35 50.4 -46.2 50.9 -46.05 51.45 -45.95 52.9 -45.55 53.65 -45.35 54.8 -45.05 55.6 -44.85 56.55 -44.6 57.35 -44.4 58.2 -44.2 58.9 -44.05 59.65 -43.9 60.3 -43.8 61.0 -43.7 61.65 -43.6 62.3 -43.55 62.9 -43.55 63.5 -43.5 64.1 -43.5 65.65 -43.6 66.6 -43.6 68.7 -43.7 71.05 -43.75 73.55 -43.75 74.8 -43.75 75.45 -43.1 76.75 -41.9 75.8 -41.7 74.5 -41.55 73.4 -41.4 72.3 -41.35 71.25 -41.25 70.2 -41.25 69.2 -41.25 68.2 -41.3 67.25 -41.35 66.25 -41.45 65.35 -41.55 64.4 -41.65 63.55 -41.8 62.6 -41.95 61.8 -42.1 60.8 -42.25 60.15 -42.4 59.05 -42.6 58.1 -42.8 57.1 -43.0 56.2 -43.2 55.3 -43.45 54.5 -43.65 53.65 -43.9 52.9 -44.1 52.15 -44.3 51.45 -44.5 50.75 -44.75 50.15 -44.95 49.55 -45.15 49.05 -45.3 48.5 -45.5 48.1 -45.65 47.55 -45.8 47.05 -45.95 46.6 -46.15 46.15 -46.35 45.7 -46.5 45.25 -46.65 44.8 -46.85 44.4 -47.0 44.0 -47.15 43.6 -47.35 43.2 -47.5 42.8 -47.65 42.45 -47.8 42.1 -47.95 41.75 -48.1 41.45 -48.25 41.15 -48.4 41.1 -48.25 41.05 -48.05 41.0 -47.85 40.95 -47.65 40.9 -47.45 40.85 -47.25 40.85 -47.05 40.8 -46.85 40.75 -46.6 40.75 -46.4 40.7 -46.15 40.65 -45.9 40.65 -45.65 40.65 -45.4 40.6 -45.1 40.6 -44.85 40.6 -44.6 40.6 -44.3 40.6 -44.05 40.65 -43.8 40.65 -43.55 40.7 -43.3 40.7 -43.05 40.75 -42.8 40.8 -42.6 40.85 -42.35 40.85 -42.15 40.9 -41.95 40.95 -41.75 41.0 -41.6 41.05 -41.4 41.1 -41.25 41.15 -41.2 41.25 -41.1 41.35 -41.05 41.4 -41.0 41.5 -40.9 41.6 -40.85 41.7 -40.75 41.8 -40.7 41.95 -40.6 42.05 -40.55 42.2 -40.45 42.3 -40.35 42.45 -40.3 42.6 -40.2 42.7 -40.15 42.85 -40.05 43.1 -39.9 43.35 -39.8 43.6 -39.7 43.85 -39.6 44.05 -39.5 44.25 -39.45 44.45 -39.35 44.65 -39.3 44.85 -39.25 45.05 -39.2 45.2 -39.15 45.35 -39.1 45.45 -39.05 45.6 -39.05 45.45 -39.05 45.8 -39.0 46.2 -38.9 46.65 -38.75 47.0 -38.65 47.4 -38.5 47.75 -38.35 48.15 -38.15 48.45 -38.0 48.85 -37.8 49.1 -37.7 49.55 -37.45 50.35 -37.05 50.25 -37.1 50.7 -36.85 51.0 -36.7 51.45 -36.5 51.85 -36.3 52.2 -36.15 52.6 -35.95 53.0 -35.8 53.45 -35.65 53.9 -35.45 54.4 -35.3 54.9 -35.15 55.4 -34.95 56.0 -34.8 56.55 -34.65 57.2 -34.5 57.8 -34.4 58.5 -34.25 59.15 -34.15 59.9 -34.0 60.65 -33.95 60.8 -33.8 60.9 -33.65 61.05 -33.45 61.2 -33.3 61.35 -33.15 61.5 -32.95 61.65 -32.8 61.8 -32.65 61.95 -32.5 62.1 -32.3 62.3 -32.15 62.45 -32.0 62.6 -31.8 62.8 -31.65 63.0 -31.5 63.15 -31.3 63.6 -30.9 64.05 -30.55 64.5 -30.2 64.95 -29.85 65.4 -29.55 65.85 -29.25 66.3 -29.0 66.7 -28.7 67.15 -28.45 67.55 -28.25 68.0 -28.0 68.4 -27.8 68.8 -27.6 69.15 -27.45 69.55 -27.25 69.9 -27.1 69.65 -27.05 69.35 -27.0 69.05 -27.0 68.75 -26.95 68.45 -26.9 68.15 -26.9 67.8 -26.85 67.45 -26.85 67.1 -26.8 66.75 -26.8 66.35 -26.8 65.95 -26.75 65.55 -26.75 65.15 -26.8 64.75 -26.8 64.3 -26.8 63.5 -26.85 62.7 -26.95 61.95 -27.0 61.2 -27.15 60.55 -27.25 59.85 -27.4 59.2 -27.55 58.6 -27.7 58.05 -27.85 57.45 -28.05 56.95 -28.2 56.45 -28.4 56.0 -28.55 55.55 -28.7 55.2 -28.85 54.75 -29.0 53.6 -29.45 52.5 -30.0 51.45 -30.5 50.4 -31.1 49.4 -31.65 48.45 -32.25 47.55 -32.8 46.7 -33.45 45.9 -34.05 45.1 -34.65 44.4 -35.25 43.7 -35.85 43.05 -36.4 42.45 -37.0 41.85 -37.5 41.35 -38.05 41.35 -37.95 41.35 -37.8 41.35 -37.65 41.35 -37.55 41.3 -37.4 41.3 -37.25 41.3 -37.1 41.3 -36.9 41.35 -36.75 41.35 -36.6 41.35 -36.4 41.35 -36.2 41.35 -36.05 41.4 -35.85 41.4 -35.65 41.4 -35.45 41.45 -35.2 41.45 -35.1 41.5 -34.85 41.5 -34.6 41.6 -34.25 41.65 -33.85 41.75 -33.45 41.85 -33.05 41.95 -32.55 42.1 -32.1 42.25 -31.6 42.45 -31.1 42.65 -30.55 42.85 -30.05 43.1 -29.5 43.4 -29.05 43.5 -28.85 43.65 -28.65 43.8 -28.4 44.0 -28.15 44.2 -27.9 44.45 -27.6 44.75 -27.25 45.05 -26.9 45.45 -26.55 45.9 -26.15 46.35 -25.75 46.9 -25.35 47.5 -24.9 48.2 -24.45 48.95 -23.95 49.75 -23.45 50.25 -23.15 50.8 -22.85 51.4 -22.5 52.0 -22.2 52.65 -21.85 53.3 -21.5 54.05 -21.15 54.75 -20.85 55.55 -20.5 56.35 -20.2 57.2 -19.85 58.1 -19.55 59.0 -19.2 59.95 -18.95 60.95 -18.65 61.95 -18.4 63.7 -17.15 67.25 -14.6 65.05 -14.45 63.4 -14.45 62.8 -14.45 62.45 -14.5 61.85 -14.5 61.3 -14.55 60.55 -14.6 59.85 -14.7 59.05 -14.8 58.25 -14.95 57.4 -15.1 56.5 -15.3 55.55 -15.55 54.6 -15.8 53.6 -16.15 52.6 -16.55 51.55 -16.95 50.55 -17.45 49.9 -17.8 49.25 -18.15 48.6 -18.5 48.0 -18.9 47.4 -19.25 46.85 -19.65 46.35 -20.0 45.8 -20.4 45.3 -20.8 44.85 -21.2 44.4 -21.6 43.95 -22.0 43.55 -22.35 43.15 -22.75 42.75 -23.15 42.4 -23.5 42.35 -23.25 42.3 -23.05 42.25 -22.8 42.25 -22.55 42.2 -22.25 42.15 -21.95 42.1 -21.65 42.05 -21.35 42.0 -21.05 41.95 -20.7 41.95 -20.35 41.9 -20.05 41.85 -19.65 41.85 -19.3 41.8 -18.9 41.8 -18.55 41.8 -18.2 41.75 -18.0 41.75 -17.7 41.75 -17.5 41.75 -17.2 41.75 -17.0 41.75 -16.75 41.75 -16.55 41.75 -16.35 41.75 -16.15 41.75 -15.95 41.75 -15.75 41.8 -15.55 41.8 -15.4 41.85 -15.2 41.85 -15.0 41.95 -14.5 42.15 -14.0 42.35 -13.55 42.6 -13.1 42.8 -12.7 43.1 -12.25 43.4 -11.9 43.7 -11.55 44.0 -11.2 44.35 -10.9 44.65 -10.6 45.0 -10.35 45.25 -10.1 45.6 -9.85 45.8 -9.7 46.15 -9.4 47.25 -8.6 48.65 -7.9 49.95 -7.25 51.5 -6.7 52.85 -6.2 54.45 -5.75 55.85 -5.4 57.4 -5.1 58.75 -4.85 60.15 -4.65 61.3 -4.45 62.45 -4.35 63.35 -4.25 64.25 -4.2 64.75 -4.15 65.25 -4.15 65.45 -4.0 65.6 -3.85 65.75 -3.65 65.9 -3.5 66.05 -3.3 66.15 -3.1 66.25 -2.9 66.35 -2.7 66.4 -2.5 66.45 -2.3 66.5 -2.1 66.55 -1.9 66.55 -1.7 66.55 -1.5 66.5 -1.25 66.45 -1.05 66.4 -0.9 66.35 -0.75 66.3 -0.6 66.25 -0.5 66.15 -0.35 66.1 -0.25 66.0 -0.15 65.95 -0.05 65.85 0.05 65.8 0.15 65.7 0.2 65.65 0.25 65.55 0.35 65.5 0.4 65.45 0.45 65.4 0.45 65.3 0.5 65.2 0.5 65.05 0.55 64.95 0.55 64.85 0.6 64.7 0.6 64.55 0.65 64.45 0.65 64.3 0.7 64.15 0.7 64.0 0.75 63.85 0.75 63.65 0.8 63.5 0.8 63.35 0.85 63.15 0.85 62.5 0.9 61.9 0.95 61.3 0.95 60.7 0.9 60.15 0.9 59.6 0.8 59.1 0.75 58.55 0.65 58.1 0.6 57.65 0.5 57.25 0.4 56.8 0.25 56.45 0.15 56.05 0.05 55.85 0.0 55.45 -0.15 54.35 -0.5 53.2 -1.0 52.15 -1.45 51.05 -2.05 50.05 -2.6 49.05 -3.2 48.2 -3.8 47.3 -4.4 46.5 -4.95 45.75 -5.55 45.1 -6.05 44.5 -6.6 44.0 -7.0 43.55 -7.4 43.25 -7.7 42.95 -7.95 42.9 -7.9 42.85 -7.85 42.75 -7.8 42.7 -7.75 42.65 -7.65 42.55 -7.6 42.5 -7.5 42.45 -7.45 42.4 -7.35 42.35 -7.3 42.25 -7.2 42.2 -7.1 42.15 -7.0 42.1 -6.9 42.05 -6.75 42.05 -6.65 42.0 -6.5 41.95 -6.35 41.95 -6.2 41.9 -6.05 41.9 -5.9 41.9 -5.75 41.95 -5.6 41.95 -5.4 42.0 -5.25 42.05 -5.1 42.1 -4.9 42.15 -4.75 42.2 -4.55 42.25 -4.35 42.3 -4.2 42.4 -4.0 42.5 -3.8 42.55 -3.6 42.65 -3.35 42.75 -3.15 42.85 -2.9 42.9 -2.7 43.0 -2.45 43.15 -2.2 43.25 -1.95 43.35 -1.7 43.45 -1.45 43.6 -1.15 43.7 -0.9 43.85 -0.65 43.95 -0.35 44.1 -0.05 43.35 -0.25 41.8 -0.6 41.8 -0.45 41.75 -0.35 41.75 -0.2 41.7 -0.05 41.7 0.1 41.7 0.25 41.7 0.45 41.7 0.6 41.7 0.8 41.7 0.95 41.7 1.15 41.75 1.35 41.75 1.55 41.8 1.75 41.8 1.95 41.85 2.15 41.95 2.6 42.1 3.0 42.3 3.4 42.5 3.75 42.7 4.1 42.9 4.4 43.15 4.7 43.4 5.0 43.6 5.25 43.85 5.5 44.1 5.75 44.35 5.95 44.55 6.15 44.8 6.35 45.0 6.5 45.25 6.65 45.75 7.0 46.25 7.35 46.7 7.65 47.25 7.9 47.75 8.15 48.35 8.35 48.9 8.55 49.5 8.75 50.1 8.9 50.85 9.1 51.5 9.25 52.3 9.4 53.0 9.55 53.95 9.7 54.6 9.85 55.8 10.05 56.1 10.1 56.35 10.15 56.65 10.2 56.9 10.25 57.15 10.25 57.4 10.3 57.65 10.35 57.9 10.35 58.1 10.4 58.35 10.45 58.55 10.45 58.75 10.5 58.95 10.5 59.15 10.55 59.3 10.55 59.5 10.6 59.55 10.6 59.6 10.65 59.7 10.7 59.75 10.75 59.85 10.85 59.95 10.9 60.1 11.0 60.2 11.15 60.3 11.25 60.45 11.4 60.55 11.55 60.65 11.7 60.75 11.9 60.8 12.05 60.9 12.3 60.95 12.5 60.95 12.55 60.95 12.6 61.0 12.65 61.0 12.7 61.0 12.8 61.0 12.85 61.0 12.95 61.0 13.05 61.0 13.15 61.0 13.25 61.0 13.35 61.0 13.45 60.95 13.55 60.95 13.65 60.9 13.75 60.85 13.85 60.8 14.05 60.65 14.2 60.55 14.35 60.45 14.5 60.3 14.65 60.15 14.8 60.05 14.9 59.85 15.0 59.7 15.1 59.55 15.15 59.4 15.25 59.25 15.3 59.1 15.35 58.95 15.4 58.85 15.45 58.75 15.5 58.55 15.55 58.35 15.6 58.15 15.65 57.95 15.7 57.7 15.7 57.45 15.7 57.2 15.75 56.9 15.75 56.6 15.7 56.25 15.7 55.9 15.65 55.5 15.6 55.05 15.5 54.6 15.4 54.1 15.3 53.5 15.2 54.1 15.35 52.95 15.05 52.6 14.95 52.4 14.9 52.1 14.8 51.85 14.75 51.55 14.65 51.25 14.6 50.95 14.5 50.7 14.4 50.4 14.3 50.1 14.2 49.75 14.05 49.45 13.95 49.1 13.8 48.75 13.65 48.4 13.5 48.1 13.35 47.7 13.15 47.35 12.95 46.95 12.75 46.55 12.55 46.1 12.3 45.7 12.0 45.25 11.75 44.8 11.45 44.35 11.1 43.9 10.8 43.4 10.4 42.9 10.05 42.45 9.65 41.95 9.2 41.95 9.45 41.95 9.7 41.9 10.0 41.9 10.3 41.9 10.6 41.95 10.9 41.95 11.25 42.0 11.6 42.0 11.95 42.05 12.35 42.1 12.75 42.15 13.1 42.25 13.55 42.35 13.95 42.45 14.35 42.55 14.8 42.7 15.35 42.8 15.6 42.9 16.0 43.0 16.35 43.15 16.75 43.3 17.05 43.4 17.45 43.55 17.75 43.75 18.1 43.9 18.4 44.1 18.7 44.3 19.0 44.5 19.3 44.75 19.55 45.0 19.85 45.3 20.1 45.65 20.4 46.0 20.55 46.3 20.75 46.65 20.85 46.95 20.95 47.3 21.05 47.45 21.1 47.95 21.2 48.4 21.25 48.65 21.35 49.1 21.45 49.45 21.6 49.9 21.75 50.3 22.0 50.8 22.25 51.3 22.6 52.1 23.2 54.05 24.9 54.2 25.05 54.4 25.2 54.55 25.35 54.7 25.5 54.9 25.65 55.05 25.8 55.2 25.9 55.3 26.05 55.45 26.2 55.6 26.3 55.7 26.45 55.85 26.55 55.95 26.65 56.05 26.75 56.15 26.85 56.25 26.95 56.05 26.95 55.85 26.9 55.65 26.9 55.45 26.85 55.25 26.85 55.05 26.8 54.85 26.8 54.65 26.75 54.4 26.7 54.2 26.7 54.0 26.65 53.8 26.6 53.55 26.55 53.35 26.55 53.1 26.5 52.9 26.45 52.2 26.3 51.5 26.1 50.85 25.95 50.2 25.75 49.55 25.55 48.95 25.3 48.35 25.1 47.75 24.85 47.2 24.65 46.65 24.4 46.1 24.15 45.6 23.9 45.1 23.65 44.6 23.4 44.15 23.15 43.7 22.9 43.85 24.05 43.95 25.5 44.0 26.05 44.0 26.5 44.0 26.95 44.0 27.35 44.05 27.65 44.05 27.95 44.0 28.2 44.0 28.5 44.0 28.8 44.0 28.9 44.0 29.15 44.0 29.3 44.0 29.5 44.05 29.7 44.05 29.9 44.1 30.1 44.15 30.5 44.25 30.85 44.35 31.2 44.5 31.55 44.6 31.9 44.75 32.2 44.95 32.55 45.1 32.85 45.3 33.15 45.55 33.5 45.75 33.8 46.0 34.15 46.2 34.45 46.5 34.85 46.7 35.05 47.1 35.55 47.3 35.85 47.55 36.1 47.8 36.4 48.0 36.65 48.25 36.9 48.45 37.15 48.7 37.35 48.95 37.6 49.15 37.85 49.4 38.1 49.65 38.3 49.9 38.55 50.1 38.75 50.4 39.0 50.55 39.15 50.9 39.45 51.25 39.75 51.6 40.1 51.9 40.3 52.25 40.65 52.7 41.0 52.85 41.1 53.15 41.4 53.35 41.6 53.6 41.8 53.8 42.05 54.05 42.25 54.25 42.5 54.5 42.75 54.7 43.0 54.9 43.3 55.1 43.6 55.25 43.8 55.35 44.0 55.5 44.2 55.6 44.35 55.7 44.55 55.8 44.75 55.9 44.9 56.0 45.1 56.05 45.25 56.15 45.4 56.2 45.55 56.3 45.75 56.35 45.85 56.4 46.0 56.45 46.15 56.5 46.3 56.4 46.3 56.3 46.3 56.2 46.3 56.1 46.3 56.0 46.35 55.9 46.35 55.75 46.35 55.65 46.35 55.5 46.35 55.4 46.35 55.25 46.35 55.1 46.35 54.95 46.3 54.8 46.3 54.65 46.3 54.5 46.3 54.15 46.25 53.85 46.2 53.55 46.1 53.25 46.05 52.95 45.95 52.7 45.85 52.45 45.75 52.2 45.65 51.95 45.55 51.75 45.4 51.55 45.3 51.35 45.2 51.15 45.1 51.0 45.0 50.85 44.95 50.7 44.8 50.1 44.45 49.5 43.95 49.0 43.55 48.45 43.0 47.95 42.55 47.5 42.0 47.1 41.5 46.7 40.95 46.35 40.5 46.0 40.0 45.75 39.6 45.5 39.15 45.25 38.85 45.1 38.5 44.95 38.3 44.85 38.1 44.85 38.3 44.85 38.5 44.85 38.7 44.8 38.9 44.8 39.15 44.8 39.35 44.8 39.6 44.8 39.85 44.8 40.1 44.8 40.4 44.8 40.65 44.8 40.95 44.8 41.25 44.85 41.5 44.85 41.85 44.85 42.15 45.0 44.15 45.15 45.05 45.2 45.3 45.2 45.35 45.3 45.55 45.35 45.8 45.4 46.05 45.5 46.3 45.6 46.6 45.7 46.9 45.85 47.25 46.0 47.6 46.15 47.95 46.35 48.3 46.55 48.65 46.8 49.0 47.05 49.4 47.3 49.7 47.75 50.2 48.25 50.65 48.7 51.1 49.25 51.45 49.7 51.75 50.25 52.05 50.75 52.3 51.25 52.5 51.7 52.65 52.15 52.8 52.6 52.9 53.0 53.0 53.35 53.05 53.65 53.1 53.9 53.15 54.15 53.15 54.35 53.35 54.55 53.55 54.75 53.75 54.95 53.95 55.1 54.15 55.25 54.35 55.4 54.5 55.55 54.7 55.7 54.9 55.8 55.05 55.9 55.25 56.0 55.4 56.1 55.55 56.2 55.7 56.3 55.85 56.35 56.0 56.45 56.25 56.55 56.35 56.6 56.55 56.7 56.7 56.75 56.9 56.85 57.05 56.9 57.2 56.95 57.4 57.0 57.55 57.0 57.7 57.05 57.85 57.05 58.0 57.05 58.15 57.0 58.3 56.95 58.45 56.9 58.6 56.8 58.75 56.7 58.9 56.6 59.05 56.45 59.15 56.3 59.25 56.15 59.35 56.0 59.45 55.85 59.5 55.7 59.55 55.55 59.6 55.45 59.6 55.3 59.65 55.2 59.65 55.15 59.65 55.1 59.7 55.05 59.7 54.9 59.7 54.75 59.7 54.6 59.7 54.45 59.65 54.3 59.65 54.1 59.55 53.95 59.5 53.8 59.45 53.65 59.35 53.45 59.25 53.25 59.15 53.05 59.0 52.85 58.9 52.6 58.7 52.4 58.6 52.05 58.4 49.25 56.5 48.9 56.25 48.65 56.05 48.45 55.85 48.2 55.65 47.95 55.45 47.65 55.2 47.4 54.95 47.1 54.7 46.85 54.45 46.55 54.2 46.25 53.9 45.9 53.6 45.6 53.3 45.3 52.95 45.0 52.65 44.65 52.3 44.3 51.95 44.35 52.4 44.4 52.85 44.45 53.25 44.5 53.65 44.6 54.0 44.7 54.4 44.75 54.75 44.9 55.05 45.0 55.4 45.1 55.7 45.2 55.95 45.3 56.25 45.45 56.5 45.55 56.7 45.65 56.95 45.8 57.15 46.0 57.5 46.15 57.75 46.35 58.05 46.55 58.3 46.7 58.5 46.95 58.75 47.1 58.9 47.35 59.2 47.7 59.6 47.8 59.7 48.1 60.0 48.35 60.3 48.65 60.65 48.95 61.05 49.3 61.5 49.7 62.0 50.35 62.9 50.75 63.55 53.6 68.55 51.3 64.55 51.65 65.2 52.3 66.05 52.6 66.45 52.9 66.85 53.15 67.15 53.5 67.5 53.9 68.05 53.95 68.1 54.2 68.4 54.35 68.6 54.55 68.85 54.7 69.1 54.85 69.35 54.95 69.55 55.05 69.8 55.1 70.05 55.2 70.35 55.2 70.65 55.2 70.7 55.2 70.75 55.2 70.9 55.2 71.0 55.2 71.2 55.2 71.35 55.15 71.55 55.15 71.75 55.1 72.0 55.05 72.2 54.95 72.4 54.85 72.6 54.75 72.8 54.6 72.95 54.45 73.15 54.3 73.25 54.2 73.3 54.15 73.35 54.05 73.35 53.95 73.4 53.85 73.4 53.75 73.4 53.7 73.4 53.6 73.4 53.5 73.4 53.4 73.4 53.3 73.4 53.2 73.4 53.1 73.4 53.0 73.35 52.95 73.35 52.85 73.3 52.3 73.15 51.7 72.95 51.2 72.75 50.65 72.45 50.2 72.2 49.75 71.9 49.35 71.65 48.95 71.3 48.6 71.05 48.3 70.75 48.0 70.5 47.75 70.25 47.6 70.05 47.4 69.85 47.3 69.75 47.25 69.65 47.15 69.5 47.05 69.4 46.9 69.2 46.8 69.05 46.7 68.9 46.55 68.7 46.45 68.55 46.3 68.35 46.2 68.15 46.05 67.9 45.95 67.7 45.8 67.45 45.7 67.2 45.55 66.95 45.45 66.7 45.3 66.4 45.25 66.65 45.25 66.85 45.2 67.1 45.15 67.35 45.15 67.6 45.1 67.85 45.1 68.15 45.05 68.45 45.05 68.75 45.05 69.05 45.0 69.35 45.0 69.65 45.0 70.0 45.0 70.35 45.0 70.65 45.0 71.0 45.0 71.4 45.05 71.8 45.1 72.2 45.15 72.55 45.15 72.95 45.2 73.3 45.3 73.6 45.35 73.95 45.4 74.3 45.45 74.65 45.55 74.95 45.6 75.25 45.7 75.55 45.75 75.9 45.85 76.15 45.95 76.55 46.15 77.4 46.25 77.8 46.45 78.45 46.55 78.9 46.7 79.45 46.85 79.85 47.0 80.35 47.1 80.7 47.25 81.1 47.4 81.4 47.55 81.75 47.7 82.0 47.85 82.25 48.05 82.5 48.25 82.7 48.45 82.9 48.55 83.0 48.7 83.1 48.85 83.2 49.0 83.35 49.35 83.55 49.35 83.55 49.55 83.75 49.75 83.85 49.95 84.05 50.15 84.2 50.4 84.4 50.65 84.6 50.9 84.8 51.2 85.05 51.45 85.3 51.75 85.55 52.3 86.1 52.6 86.4 51.4 87.0 49.6 87.7 49.25 87.85 48.9 88.0 48.7 88.1 48.3 88.25 47.95 88.35 47.8 88.45 47.6 88.5 47.4 88.6 47.25 88.7 47.1 88.75 46.9 88.85 46.8 88.9 46.65 89.0 46.5 89.1 46.4 89.2 46.25 89.35 46.15 89.4 46.1 89.5 45.95 89.6 45.85 89.7 45.75 89.85 45.6 90.0 45.45 90.15 45.35 90.35 45.2 90.55 45.1 90.75 44.95 90.95 44.85 91.2 44.7 91.45 44.65 91.75 44.55 92.0 44.5 92.3 44.45 92.5 44.45 92.75 44.4 92.95 44.4 93.15 44.4 93.35 44.4 93.55 44.45 93.75 44.5 94.0 44.5 94.2 44.55 94.4 44.6 94.65 44.7 94.9 44.75 95.1 44.85 95.35 44.9 95.55 45.0 95.9 45.15 96.4 45.25 96.65 45.35 97.05 45.45 97.3 45.6 97.65 45.7 97.9 45.8 98.15 45.9 98.4 46.05 98.65 46.15 98.85 46.3 99.05 46.45 99.25 46.6 99.45 46.75 99.6 46.95 99.75 47.15 99.9 47.45 100.1 47.8 100.25 48.1 100.4 48.4 100.5 48.7 100.6 49.05 100.6 49.35 100.65 49.65 100.65 49.9 100.7 50.15 100.65 50.4 100.65 50.6 100.6 50.8 100.6 51.0 100.55 51.1 100.55 51.2 100.5 51.55 100.4 51.9 100.3 52.25 100.2 52.55 100.05 52.85 99.9 53.1 99.7 53.35 99.55 53.6 99.4 53.8 99.25 53.95 99.05 54.15 98.9 54.3 98.75 54.4 98.6 54.5 98.5 54.6 98.4 54.65 98.3 54.5 98.35 54.4 98.35 54.25 98.35 54.05 98.4 53.9 98.4 53.7 98.4 53.5 98.4 53.3 98.4 53.05 98.4 52.85 98.4 52.6 98.35 52.35 98.35 52.1 98.3 51.85 98.2 51.55 98.15 51.3 98.05 51.2 98.0 51.05 97.95 50.9 97.9 50.75 97.85 50.6 97.75 50.4 97.65 50.2 97.55 50.0 97.45 49.8 97.3 49.6 97.15 49.4 97.0 49.2 96.8 48.95 96.6 48.75 96.35 48.55 96.1 48.4 95.85 48.3 95.7 48.25 95.6 48.15 95.45 48.05 95.3 48.0 95.15 47.9 95.0 47.8 94.8 47.75 94.65 47.7 94.45 47.65 94.25 47.6 94.05 47.6 93.85 47.55 93.65 47.6 93.5 47.6 93.25 47.7 93.1 47.75 92.95 47.85 92.8 47.95 92.65 48.05 92.55 48.15 92.4 48.25 92.3 48.4 92.2 48.55 92.1 48.7 92.0 48.85 91.95 49.0 91.85 49.15 91.75 49.3 91.7 49.5 91.6 49.6 91.55 49.85 91.45 50.1 91.35 50.3 91.3 50.5 91.2 50.7 91.15 50.85 91.1 51.05 91.1 51.2 91.05 51.4 91.0 51.5 91.0 51.7 90.95 52.0 90.95 52.05 90.9 52.25 90.9 52.45 90.85 52.65 90.85 52.85 90.8 53.35 90.65 53.15 90.7 53.4 90.65 53.65 90.6 53.9 90.5 54.2 90.4 54.5 90.3 54.8 90.15 55.2 90.0 55.5 89.8 55.85 89.6 56.2 89.35 56.55 89.1 56.85 88.85 57.15 88.5 57.4 88.2 57.6 87.95 57.75 87.7 57.95 87.4 58.1 87.15 58.25 86.85 58.4 86.6 58.55 86.3 58.65 86.0 58.75 85.7 58.8 85.45 58.85 85.2 58.9 84.95 58.9 84.7 58.85 84.5 58.75 84.3 58.65 84.1 58.6 84.05 58.5 84.0 58.45 83.95 58.35 83.9 58.3 83.85 58.15 83.8 58.05 83.8 57.95 83.75 57.8 83.75 57.6 83.7 57.35 83.65 57.2 83.65 56.95 83.6 56.7 83.55 56.4 83.5 56.1 83.45 54.15 82.95 53.65 82.75 53.05 82.5 52.55 82.1 52.05 81.75 51.6 81.3 51.25 80.85 50.9 80.35 50.55 79.9 50.3 79.4 50.05 78.95 49.85 78.5 49.7 78.1 49.55 77.7 49.45 77.4 49.4 77.15 49.35 76.95 49.3 76.85 49.25 76.75 49.25 76.6 49.2 76.5 49.2 76.35 49.2 76.25 49.15 76.15 49.15 76.05 49.15 75.95 49.1 75.85 49.1 75.75 49.1 75.65 49.1 75.55 49.1 75.45 49.1 75.4 49.1 75.3 49.05 75.25 49.15 75.35 49.25 75.4 49.35 75.45 49.45 75.55 49.6 75.6 49.7 75.7 49.85 75.8 49.95 75.85 50.1 75.95 50.25 76.05 50.4 76.1 50.55 76.2 50.7 76.3 50.85 76.35 51.05 76.45 51.2 76.55 51.55 76.7 51.7 76.75 51.95 76.9 52.2 76.95 52.45 77.05 52.7 77.15 52.95 77.2 53.15 77.25 53.45 77.35 53.65 77.35 53.9 77.4 54.15 77.4 54.4 77.4 54.65 77.35 54.9 77.3 55.1 77.2 55.4 77.1 55.65 76.95 55.95 76.8 56.15 76.55 56.35 76.4 56.55 76.15 56.7 75.95 56.9 75.7 57.0 75.45 57.15 75.2 57.25 75.0 57.35 74.8 57.4 74.6 57.5 74.4 57.5 74.25 57.6 74.1 57.7 73.8 57.75 73.45 57.8 73.15 57.85 72.85 57.9 72.55 57.9 72.25 57.9 71.95 57.85 71.65 57.85 71.4 57.8 71.15 57.75 70.9 57.7 70.65 57.65 70.45 57.6 70.2 57.55 70.05 57.5 69.8 57.35 69.25 57.15 68.75 57.0 68.25 56.75 67.8 56.55 67.35 56.3 66.95 56.05 66.55 55.8 66.15 55.55 65.8 55.25 65.45 55.0 65.15 54.75 64.9 54.5 64.65 54.25 64.4 54.05 64.15 53.8 63.95 53.9 64.0 54.0 64.05 54.15 64.1 54.3 64.15 54.45 64.2 54.65 64.2 54.8 64.25 55.0 64.3 55.2 64.35 55.4 64.35 55.65 64.35 55.9 64.35 56.1 64.35 56.35 64.35 56.65 64.35 56.9 64.3 57.05 64.25 57.15 64.25 57.35 64.2 57.5 64.15 57.75 64.05 57.95 64.0 58.2 63.9 58.45 63.75 58.7 63.6 58.95 63.45 59.2 63.3 59.45 63.1 59.7 62.85 59.9 62.65 60.1 62.35 60.25 62.05 60.45 61.7 60.5 61.35 60.6 61.0 60.6 60.6 60.65 60.25 60.6 59.85 60.55 59.5 60.45 59.1 60.35 58.75 60.2 58.35 60.05 58.0 59.9 57.55 59.75 57.25 59.55 56.8 59.4 56.55 59.2 56.1 59.1 55.85 58.95 55.65 58.85 55.4 58.7 55.2 58.6 55.0 58.45 54.8 58.35 54.6 58.25 54.45 58.1 54.25 58.0 54.1 57.9 53.95 57.75 53.8 57.65 53.65 57.55 53.5 57.45 53.35 57.35 53.25 57.45 53.3 57.55 53.35 57.65 53.4 57.8 53.45 57.95 53.55 58.1 53.6 58.3 53.65 58.5 53.7 58.7 53.75 58.9 53.8 59.15 53.85 59.35 53.85 59.6 53.85 59.85 53.85 60.15 53.85 60.4 53.8 60.85 53.7 61.25 53.5 61.65 53.35 62.0 53.1 62.3 52.9 62.55 52.6 62.8 52.35 63.05 52.05 63.25 51.8 63.4 51.55 63.55 51.3 63.65 51.05 63.75 50.9 63.8 50.75 63.85 50.65 63.85 50.55 64.0 50.1 64.05 49.6 64.1 49.15 64.1 48.7 64.05 48.3 63.95 47.85 63.85 47.45 63.7 47.05 63.6 46.65 63.4 46.3 63.25 46.0 63.05 45.65 62.9 45.4 62.75 45.15 62.65 45.0 62.5 44.75 62.4 44.6 62.3 44.45 62.2 44.3 62.05 44.2 61.95 44.1 61.85 43.95 61.7 43.8 61.55 43.65 61.45 43.55 61.2 43.3 60.85 43.0 60.75 42.9 60.45 42.6 60.15 42.3 59.8 41.95 59.4 41.6 59.2 41.4 58.95 41.15 58.75 40.95 58.55 40.75 58.35 40.55 58.15 40.35 57.95 40.15 57.8 39.95 57.6 39.75 57.45 39.6 57.3 39.45 57.1 39.25 57.0 39.1 56.85 38.95 56.7 38.85 56.6 38.7 56.7 38.7 56.8 38.65 56.95 38.65 57.05 38.65 57.15 38.6 57.3 38.6 57.45 38.55 57.55 38.55 57.7 38.5 57.85 38.45 58.0 38.45 58.15 38.4 58.3 38.35 58.45 38.3 58.65 38.3 58.8 38.25 59.3 38.1 59.45 38.05 59.85 37.95 60.1 37.85 60.4 37.8 60.65 37.7 60.95 37.6 61.2 37.5 61.45 37.4 61.7 37.25 61.95 37.15 62.15 37.0 62.4 36.9 62.6 36.75 62.8 36.6 63.0 36.4 63.25 36.2 63.45 35.95 63.7 35.7 63.9 35.45 64.05 35.2 64.2 34.9 64.35 34.65 64.5 34.35 64.65 34.05 64.75 33.75 64.85 33.5 65.0 33.15 65.1 32.9 65.2 32.55 65.25 32.35 65.4 31.95 65.45 31.75 65.5 31.6 65.55 31.45 65.6 31.25 65.65 31.1 65.65 30.95 65.7 30.85 65.75 30.7 65.75 30.6 65.75 30.45 65.8 30.35 65.8 30.3 65.8 30.2 65.85 30.15 65.85 30.1 65.85 30.05 65.9 29.75 65.9 29.55 65.95 29.3 66.0 29.05 66.0 28.8 66.05 28.55 66.05 28.25 66.05 28.0 66.05 27.75 66.05 27.45 66.05 27.2 66.0 26.9 65.95 26.6 65.9 26.35 65.8 26.05 65.7 25.75 65.6 25.5 65.5 25.25 65.4 25.0 65.25 24.8 65.15 24.6 65.0 24.4 64.85 24.2 64.7 24.0 64.55 23.85 64.4 23.65 64.25 23.5 64.1 23.35 63.95 23.2 63.8 23.1 63.65 22.95 63.45 22.85 63.6 22.85 63.8 22.85 64.0 22.8 64.15 22.8 64.35 22.75 64.6 22.75 64.8 22.7 65.0 22.65 65.25 22.6 65.5 22.5 65.7 22.45 65.95 22.35 66.2 22.25 66.45 22.1 66.7 22.0 66.9 21.85 67.3 21.6 67.65 21.3 67.95 21.0 68.25 20.65 68.55 20.35 68.75 20.0 69.0 19.65 69.2 19.25 69.35 18.9 69.55 18.5 69.7 18.15 69.8 17.7 69.95 17.4 70.05 16.95 70.15 16.7 70.3 16.15 70.4 15.85 70.45 15.55 70.55 15.15 70.6 14.8 70.7 14.35 70.75 13.95 70.85 13.5 70.9 13.0 70.9 12.5 70.95 11.95 70.95 11.4 70.95 10.8 70.9 10.2 70.85 9.6 70.8 8.95 70.7 8.3 70.85 8.2 70.95 8.05 71.1 7.95 71.2 7.8 71.35 7.65 71.5 7.5 71.65 7.35 71.8 7.2 71.95 7.05 72.1 6.85 72.25 6.7 72.4 6.5 72.55 6.3 72.7 6.1 72.85 5.9 72.95 5.7 73.35 5.05 73.7 4.4 74.0 3.8 74.25 3.1 74.5 2.5 74.65 1.9 74.8 1.35 74.9 0.75 74.95 0.25 75.0 -0.25 75.05 -0.65 75.05 -1.1 75.05 -1.45 75.05 -1.75 75.05 -2.0 75.05 -2.2 75.05 -2.4 75.0 -2.55 75.0 -2.75 74.95 -2.95 74.95 -3.15 74.9 -3.35 74.85 -3.55 74.85 -3.8 74.8 -4.0 74.75 -4.25 74.65 -4.5 74.6 -4.75 74.55 -5.0 74.45 -5.2 74.35 -5.5 74.3 -5.75 75.35 -6.85 75.95 -7.5 76.45 -8.0 76.65 -8.3 77.05 -8.7 77.35 -9.0 77.65 -9.4 77.95 -9.7 78.25 -10.05 78.5 -10.4 78.8 -10.75 79.0 -11.05 79.25 -11.4 79.5 -11.75 79.7 -12.1 79.9 -12.45 80.15 -12.8 80.35 -13.15 80.45 -13.35 80.55 -13.55 80.65 -13.75 80.7 -14.0 80.85 -14.2 80.9 -14.45 81.0 -14.75 81.1 -15.0 81.2 -15.3 81.3 -15.6 81.4 -15.9 81.5 -16.2 81.55 -16.55 81.65 -16.9 81.7 -17.25 81.8 -17.6 80.15 -18.2 76.9 -19.45 77.0 -19.5 77.15 -19.55 77.3 -19.6 77.4 -19.65 77.55 -19.7 77.7 -19.8 77.85 -19.85 78.0 -19.9 78.15 -20.0 78.35 -20.05 78.5 -20.15 78.7 -20.25 78.85 -20.3 79.05 -20.4 79.2 -20.5 79.4 -20.6 79.8 -20.8 80.05 -20.95 80.35 -21.1 80.6 -21.25 80.9 -21.4 81.15 -21.55 81.4 -21.7 81.6 -21.85 81.85 -22.0 82.05 -22.15 82.3 -22.35 82.5 -22.5 82.7 -22.7 82.85 -22.85 83.05 -23.05 83.25 -23.3 83.4 -23.45 83.5 -23.65 83.65 -23.8 83.75 -24.0 83.85 -24.2 83.95 -24.35 84.05 -24.55 84.1 -24.8 84.2 -25.0 84.3 -25.25 84.35 -25.45 84.45 -25.75 84.55 -26.0 84.65 -26.3 84.7 -26.5 84.85 -26.95 84.9 -27.2 85.0 -27.4 85.05 -27.65 85.1 -27.9 85.2 -28.15 85.25 -28.4 85.35 -28.7 85.4 -29.0 85.45 -29.3 85.5 -29.6 85.6 -29.9 85.65 -30.25 85.7 -30.6 85.75 -30.9 85.8 -31.25 85.85 -31.65 L85.85 -34.45 Q85.95 -34.5 86.0 -34.6 86.1 -34.65 86.2 -34.7 86.25 -34.8 86.35 -34.9 86.45 -34.95 86.55 -35.05 86.65 -35.15 86.75 -35.25 86.85 -35.35 86.95 -35.45 87.05 -35.55 87.15 -35.65 87.25 -35.8 87.4 -35.9 87.55 -36.1 87.65 -36.25 87.8 -36.45 87.9 -36.65 88.0 -36.85 88.1 -37.05 88.25 -37.3 88.35 -37.6 88.45 -37.85 88.55 -38.2 88.7 -38.55 88.85 -39.0 88.95 -39.35 89.15 -39.95 89.3 -40.35 89.5 -41.15 89.7 -41.75 89.8 -42.1 89.95 -42.55 90.05 -42.9 90.15 -43.3 90.25 -43.6 90.35 -43.95 90.4 -44.2 90.45 -44.5 90.45 -44.75 90.45 -45.0 90.45 -45.15 90.45 -45.35 90.35 -45.5 90.3 -45.7 90.2 -45.8 90.15 -45.85 90.15 -45.9 90.1 -45.9 90.05 -45.95 90.0 -46.0 89.95 -46.05 90.1 -45.95 89.85 -46.1 89.8 -46.15 89.75 -46.2 89.65 -46.3 89.6 -46.35 89.5 -46.45 89.4 -46.5 89.3 -46.6 89.2 -46.7 89.05 -46.85 88.9 -47.05 88.75 -47.2 88.65 -47.3 88.6 -47.45 88.5 -47.55 88.45 -47.65 88.4 -47.75 88.35 -47.85 88.3 -47.9 88.25 -47.95 88.25 -48.05 88.25 -48.05 88.25 -48.1 88.2 -48.15 88.2 -48.2 88.2 -48.3 88.2 -48.4 88.2 -48.45 88.2 -48.55 88.25 -48.65 88.25 -48.7 88.3 -48.8 88.35 -48.9 88.35 -48.95 88.4 -49.05 88.45 -49.1 88.5 -49.2 88.55 -49.25 88.6 -49.35 88.6 -49.4 88.7 -49.5 88.95 -49.9 89.25 -50.25 89.45 -50.6 89.65 -50.9 89.85 -51.1 90.05 -51.35 90.05 -51.4 90.3 -51.75 90.5 -51.95 90.55 -52.1 90.7 -52.25 90.75 -52.35 90.85 -52.5 90.9 -52.65 91.0 -52.75 91.05 -52.95 91.15 -53.15 91.2 -53.35 91.25 -53.55 91.25 -53.75 91.3 -53.95 91.3 -54.2 91.3 -54.35 91.25 -54.6 91.25 -54.75 91.2 -54.95 91.2 -55.15 91.15 -55.35 91.1 -55.5 91.05 -55.7 91.05 -55.85 91.0 -56.05 90.9 -56.45 90.75 -56.85 90.6 -57.2 90.4 -57.55 90.25 -57.9 90.0 -58.2 89.85 -58.5 89.6 -58.75 89.45 -59.0 89.2 -59.2 89.05 -59.4 88.85 -59.6 88.65 -59.75 88.5 -59.9 88.35 -60.0 88.2 -60.15 88.35 -60.25 88.5 -60.3 88.65 -60.4 88.8 -60.5 88.95 -60.6 89.1 -60.7 89.25 -60.75 89.4 -60.85 89.6 -60.95 89.75 -61.1 89.9 -61.2 90.05 -61.3 90.2 -61.4 90.35 -61.5 90.5 -61.6 90.65 -61.75 91.15 -62.1 91.6 -62.45 92.05 -62.85 92.45 -63.2 92.9 -63.55 93.25 -63.95 93.65 -64.3 94.0 -64.7 94.35 -65.05 94.7 -65.45 95.0 -65.8 95.35 -66.15 95.6 -66.5 95.9 -66.85 96.15 -67.2 96.4 -67.55 96.1 -67.4 95.8 -67.25 95.5 -67.1 95.2 -66.95 94.85 -66.85 94.55 -66.7 94.2 -66.55 93.85 -66.4 93.45 -66.25 93.1 -66.15 92.7 -66.0 92.3 -65.9 91.9 -65.75 91.5 -65.65 91.1 -65.5 90.65 -65.4 89.85 -65.2 89.1 -65.05 88.35 -64.9 87.55 -64.85 86.85 -64.75 86.15 -64.7 85.45 -64.65 84.75 -64.6 84.15 -64.6 83.5 -64.6 82.9 -64.65 82.3 -64.65 81.75 -64.7 81.25 -64.75 80.75 -64.8 80.25 -64.9 80.9 -65.0 81.6 -65.1 82.25 -65.2 82.85 -65.3 83.45 -65.45 84.05 -65.55 84.6 -65.7 85.15 -65.85 85.7 -66.0 86.2 -66.15 86.7 -66.3 87.15 -66.45 87.6 -66.55 88.05 -66.75 88.45 -66.85 88.85 -67.0 89.6 -67.3 90.25 -67.6 90.85 -67.85 91.4 -68.15 91.95 -68.4 92.4 -68.65 92.8 -68.9 93.15 -69.15 93.45 -69.35 93.75 -69.55 94.0 -69.75 94.2 -69.95 94.4 -70.1 94.55 -70.3 94.7 -70.4 94.8 -70.55 95.05 -70.85 95.3 -71.15 95.5 -71.45 95.7 -71.75 95.9 -72.0 96.05 -72.3 96.2 -72.6 96.35 -72.85 96.5 -73.1 96.6 -73.35 96.7 -73.6 96.8 -73.8 96.85 -74.0 96.9 -74.2 96.95 -74.35 97.05 -74.55 97.25 -75.2 97.4 -75.85 97.5 -76.5 97.6 -77.1 97.65 -77.7 97.65 -78.3 97.65 -78.85 97.6 -79.4 97.55 -79.9 97.5 -80.4 97.4 -80.85 97.3 -81.3 97.25 -81.7 97.15 -82.05 97.05 -82.35 96.95 -82.65 96.9 -82.8 96.9 -82.9 96.85 -83.05 96.8 -83.2 96.75 -83.35 96.7 -83.5 96.6 -83.7 96.55 -83.85 96.45 -84.0 96.35 -84.2 96.3 -84.35 96.15 -84.5 96.05 -84.7 95.95 -84.85 95.8 -85.0 95.65 -85.2 95.4 -85.45 95.15 -85.65 94.95 -85.85 94.65 -86.0 94.4 -86.15 94.15 -86.3 93.9 -86.4 93.6 -86.5 93.4 -86.6 93.15 -86.65 92.9 -86.75 92.65 -86.8 92.45 -86.85 92.25 -86.85 92.15 -86.9 91.9 -86.95 90.25 -87.25 89.05 -87.45 88.0 -87.7 87.3 -87.85 86.7 -88.0 86.3 -88.15 86.05 -88.25 85.75 -88.35 85.5 -88.45 85.4 -88.5 85.25 -88.55 84.95 -88.6 84.65 -88.65 84.05 -88.7 83.45 -88.7 82.4 -88.8 79.8 -88.95 78.85 -89.0 77.0 -89.1 75.7 -89.15 74.15 -89.2 72.9 -89.25 71.6 -89.3 70.5 -89.3 69.3 -89.35 68.3 -89.35 67.25 -89.35 66.35 -89.3 65.45 -89.25 64.6 -89.2 63.75 -89.1 62.95 -89.0 61.65 -88.8 61.0 -88.75 59.9 -88.55 59.0 -88.4 57.95 -88.25 57.0 -88.05 55.95 -87.85 55.0 -87.6 53.95 -87.3 52.95 -87.0 51.85 -86.65 50.8 -86.25 49.75 -85.8 48.65 -85.3 47.55 -84.75 46.45 -84.1 45.75 -83.7 45.05 -83.25 44.4 -82.8 43.75 -82.35 43.15 -81.95 42.6 -81.5 42.05 -81.05 41.5 -80.6 41.0 -80.2 40.5 -79.75 40.05 -79.35 39.6 -78.9 39.2 -78.5 38.8 -78.1 38.45 -77.75 38.1 -77.35 38.05 -77.3 38.0 -77.2 38.0 -77.15 37.95 -77.05 37.9 -77.0 37.85 -76.9 37.8 -76.8 37.8 -76.7 37.75 -76.6 37.7 -76.5 37.7 -76.4 37.7 -76.3 37.65 -76.2 37.65 -76.05 37.65 -75.95 37.65 -75.85 L37.65 -75.85 M47.3 -71.3 Q47.3 -71.35 47.35 -71.4 47.35 -71.4 47.4 -71.45 47.4 -71.5 47.45 -71.5 47.45 -71.55 47.5 -71.6 47.5 -71.6 47.55 -71.65 47.6 -71.65 47.6 -71.7 47.65 -71.7 47.7 -71.75 47.7 -71.75 47.75 -71.8 48.2 -72.15 48.5 -72.3 48.6 -72.35 50.1 -73.1 50.3 -73.2 50.95 -73.5 51.5 -73.75 51.85 -73.85 52.15 -74.0 53.7 -74.4 54.45 -74.6 55.6 -75.1 57.0 -75.7 57.45 -75.85 58.65 -76.3 61.4 -76.95 65.05 -77.8 65.45 -77.9 65.7 -77.95 65.95 -78.0 66.2 -78.0 66.5 -78.05 66.75 -78.1 67.0 -78.1 67.25 -78.15 67.5 -78.15 67.8 -78.2 68.05 -78.2 68.3 -78.25 68.55 -78.25 68.85 -78.25 69.1 -78.25 69.35 -78.25 69.6 -78.3 71.05 -78.25 71.75 -78.2 72.1 -78.15 73.6 -77.85 73.75 -77.85 73.85 -77.8 74.0 -77.8 74.1 -77.75 74.25 -77.75 74.35 -77.75 74.5 -77.75 74.6 -77.7 74.75 -77.7 74.85 -77.7 75.0 -77.7 75.1 -77.7 75.25 -77.65 75.35 -77.65 75.5 -77.65 75.6 -77.65 75.85 -77.65 76.65 -77.7 77.35 -77.7 77.75 -77.7 79.1 -77.7 79.85 -77.65 80.55 -77.55 81.75 -77.15 82.6 -76.85 83.15 -76.75 84.2 -76.5 84.45 -76.4 84.5 -76.4 84.55 -76.35 84.6 -76.35 84.6 -76.35 84.65 -76.3 84.7 -76.3 84.75 -76.3 84.8 -76.25 84.85 -76.25 84.9 -76.2 84.9 -76.2 84.95 -76.15 85.0 -76.15 85.05 -76.1 85.05 -76.1 85.1 -76.05 85.15 -76.05 85.2 -76.05 85.25 -76.05 85.3 -76.05 85.35 -76.0 85.35 -76.0 85.4 -76.0 85.45 -75.95 85.45 -75.95 85.5 -75.9 85.5 -75.9 85.55 -75.9 85.65 -75.9 85.65 -75.8 85.7 -75.7 85.6 -75.65 85.6 -75.6 85.6 -75.5 85.6 -75.5 85.6 -75.45 85.65 -75.4 85.65 -75.35 85.65 -75.25 85.6 -75.2 85.55 -75.2 85.55 -75.15 85.5 -75.15 85.5 -75.1 85.45 -75.1 85.45 -75.05 85.4 -75.05 85.35 -75.0 85.35 -74.95 85.25 -74.95 85.25 -74.95 85.25 -74.95 85.2 -74.9 85.2 -74.9 85.15 -74.85 85.15 -74.8 85.1 -74.8 85.1 -74.75 85.05 -74.75 85.05 -74.75 85.0 -74.7 84.9 -74.65 84.8 -74.6 84.75 -74.55 84.65 -74.5 84.55 -74.45 84.45 -74.45 84.4 -74.4 84.3 -74.4 84.2 -74.35 84.1 -74.35 84.0 -74.3 83.95 -74.3 83.85 -74.3 83.85 -74.3 83.65 -74.25 83.4 -74.2 82.35 -74.05 82.25 -74.0 82.05 -73.9 81.85 -73.8 81.1 -73.5 80.55 -73.2 80.15 -73.05 80.05 -73.0 79.95 -72.95 79.85 -72.95 79.7 -72.9 79.6 -72.85 79.5 -72.85 79.4 -72.8 79.3 -72.75 79.15 -72.75 79.05 -72.7 78.95 -72.65 78.85 -72.65 78.7 -72.6 78.6 -72.55 78.5 -72.55 78.4 -72.5 77.5 -72.3 74.65 -71.8 73.85 -71.7 72.55 -71.45 70.85 -71.2 70.5 -71.15 70.25 -71.1 69.95 -71.05 69.7 -71.0 69.45 -70.95 69.15 -70.95 68.9 -70.9 68.65 -70.85 68.35 -70.8 68.1 -70.8 67.85 -70.75 67.55 -70.7 67.3 -70.7 67.05 -70.65 66.75 -70.65 66.5 -70.6 66.25 -70.6 65.4 -70.5 64.1 -70.5 62.1 -70.45 61.95 -70.45 61.8 -70.45 61.7 -70.45 61.55 -70.45 61.4 -70.45 61.3 -70.4 61.15 -70.4 61.0 -70.4 60.9 -70.4 60.75 -70.4 60.6 -70.4 60.5 -70.35 60.35 -70.35 60.25 -70.35 60.1 -70.35 59.95 -70.3 59.85 -70.3 59.45 -70.25 58.8 -70.25 58.05 -70.25 57.8 -70.2 57.75 -70.2 57.65 -70.2 57.6 -70.2 57.55 -70.2 57.45 -70.2 57.4 -70.2 57.35 -70.15 57.25 -70.15 57.2 -70.15 57.15 -70.15 57.1 -70.15 57.0 -70.1 56.95 -70.1 56.9 -70.1 56.85 -70.1 56.75 -70.05 56.65 -70.05 56.55 -70.0 56.5 -70.0 56.4 -69.95 56.35 -69.95 56.3 -69.95 56.25 -69.9 56.2 -69.9 56.2 -69.9 56.1 -69.85 56.05 -69.85 56.0 -69.85 55.95 -69.85 55.9 -69.8 55.85 -69.8 55.8 -69.8 55.65 -69.75 55.55 -69.75 55.45 -69.75 55.3 -69.75 55.2 -69.75 55.1 -69.8 55.05 -69.8 54.9 -69.85 54.85 -69.85 54.7 -69.9 54.55 -69.95 54.45 -69.95 54.3 -70.0 54.15 -70.0 53.95 -70.05 53.8 -70.1 53.55 -70.1 51.9 -70.05 50.45 -69.95 50.0 -70.05 49.15 -70.25 49.1 -70.25 48.55 -70.35 48.25 -70.45 48.2 -70.45 48.15 -70.5 48.1 -70.5 48.05 -70.55 48.0 -70.55 48.0 -70.6 47.95 -70.6 47.9 -70.65 47.85 -70.65 47.8 -70.7 47.75 -70.7 47.7 -70.75 47.65 -70.75 47.65 -70.8 47.6 -70.85 47.55 -70.85 47.5 -70.85 47.5 -70.9 47.45 -70.9 47.45 -70.95 47.4 -70.95 47.4 -71.0 47.4 -71.0 47.35 -71.05 47.35 -71.1 47.35 -71.1 47.3 -71.15 47.3 -71.2 47.3 -71.2 47.3 -71.25 47.3 -71.3 47.3 -71.3 L47.3 -71.3" fill="url(#gradient1)" fill-rule="evenodd" stroke="none"/>
    <path d="M39.25 -30.1 Q39.3 -30.1 39.35 -30.1 39.8 -30.1 39.5 -30.1 39.55 -30.1 39.6 -30.1 39.65 -30.1 39.7 -30.05 39.75 -30.05 39.8 -30.05 39.85 -30.0 39.9 -29.95 39.9 -29.95 39.95 -29.85 40.0 -29.8 40.0 -29.75 40.0 -29.7 40.0 -29.6 40.0 -29.55 40.0 -29.5 39.95 -29.5 39.95 -29.45 39.9 -29.4 39.85 -29.4 39.85 -29.35 39.8 -29.35 39.75 -29.3 39.7 -29.3 39.65 -29.3 39.6 -29.3 39.55 -29.25 39.5 -29.25 39.45 -29.3 39.4 -29.35 39.35 -29.4 39.3 -29.45 39.3 -29.5 39.25 -29.55 39.25 -29.6 39.25 -29.65 39.25 -29.7 39.25 -29.75 39.2 -29.8 39.25 -29.85 39.25 -29.9 39.25 -30.0 39.25 -30.35 39.25 -30.1 L39.25 -30.1" fill="#dbdbdb" fill-opacity="0.21176471" fill-rule="evenodd" stroke="none"/>
    <path d="M42.0 -29.55 Q42.05 -29.5 42.05 -29.5 42.1 -29.45 42.1 -29.45 42.15 -29.4 42.15 -29.35 42.2 -29.35 42.2 -29.3 42.2 -29.25 42.2 -29.2 42.25 -29.2 42.25 -29.15 42.25 -29.1 42.25 -29.05 42.25 -29.0 42.2 -29.0 42.15 -29.0 42.1 -29.0 42.0 -29.05 41.95 -29.05 41.9 -29.05 41.9 -29.1 41.85 -29.1 41.8 -29.15 41.8 -29.2 41.8 -29.2 41.8 -29.25 41.8 -29.3 41.85 -29.35 41.9 -29.4 41.95 -29.45 42.0 -29.55 L42.0 -29.55" fill="#dbdbdb" fill-opacity="0.21176471" fill-rule="evenodd" stroke="none"/>
  </g>
  <defs>
    <linearGradient gradientTransform="matrix(-0.0488, 0.087, -0.087, -0.0488, -40.25, -1.4)" gradientUnits="userSpaceOnUse" id="gradient0" spreadMethod="pad" x1="-819.2" x2="819.2">
      <stop offset="0.0" stop-color="#fff23c" stop-opacity="0.0"/>
      <stop offset="0.3803921568627451" stop-color="#fff23c" stop-opacity="0.84705883"/>
      <stop offset="0.6039215686274509" stop-color="#fff23c" stop-opacity="0.8"/>
      <stop offset="1.0" stop-color="#fff23c" stop-opacity="0.0"/>
    </linearGradient>
    <linearGradient gradientTransform="matrix(-0.0554, 0.0986, -0.0986, -0.0554, 53.7, -2.65)" gradientUnits="userSpaceOnUse" id="gradient1" spreadMethod="pad" x1="-819.2" x2="819.2">
      <stop offset="0.0" stop-color="#fff23c" stop-opacity="0.0"/>
      <stop offset="0.3803921568627451" stop-color="#fff23c" stop-opacity="0.84705883"/>
      <stop offset="0.6039215686274509" stop-color="#fff23c" stop-opacity="0.8"/>
      <stop offset="1.0" stop-color="#fff23c" stop-opacity="0.0"/>
    </linearGradient>
  </defs>
</svg>
