<?xml version="1.0" encoding="UTF-8" standalone="no"?>
<svg xmlns:xlink="http://www.w3.org/1999/xlink" height="270.7px" width="213.35px" xmlns="http://www.w3.org/2000/svg">
  <g transform="matrix(1.0, 0.0, 0.0, 1.0, 106.65, 135.35)">
    <path d="M-68.2 -45.9 Q-69.05 -45.8 -69.95 -45.7 -70.95 -45.5 -71.95 -45.3 -73.1 -45.1 -74.25 -44.75 -75.55 -44.45 -76.75 -44.0 -78.1 -43.55 -79.4 -43.0 -80.85 -42.4 -82.2 -41.65 -83.6 -40.9 -85.0 -40.0 -86.45 -39.05 -87.8 -37.95 -89.7 -36.45 -91.3 -34.7 -92.85 -33.05 -94.15 -31.25 -95.35 -29.6 -96.4 -27.75 -97.35 -26.1 -98.15 -24.3 -98.85 -22.7 -99.4 -20.95 -99.95 -19.5 -100.35 -17.9 -100.7 -16.65 -101.0 -15.25 -101.2 -14.4 -101.5 -13.05 -101.75 -11.7 -101.9 -11.1 -102.1 -9.95 -102.25 -9.05 -102.4 -7.95 -102.5 -6.95 -102.6 -5.8 -102.65 -4.75 -102.7 -3.6 -102.6 -2.5 -102.55 -1.3 -102.4 -0.15 -102.2 1.05 -101.9 2.25 -101.55 3.5 -101.05 4.75 -100.55 6.0 -99.95 7.2 -99.4 8.3 -98.7 9.35 -98.05 10.35 -97.3 11.3 -96.65 12.15 -95.9 12.95 -95.2 13.65 -94.45 14.35 -93.8 14.95 -93.1 15.55 -92.5 16.0 -91.9 16.45 -91.4 16.85 -90.85 17.2 -91.0 17.4 -91.1 17.6 -91.25 17.8 -91.4 18.0 -91.55 18.2 -91.7 18.45 -91.85 18.7 -92.0 18.95 -92.2 19.2 -92.35 19.45 -92.5 19.75 -92.65 20.05 -92.8 20.35 -93.0 20.65 -93.15 20.95 -93.3 21.3 -93.75 22.15 -93.95 22.6 -94.25 23.25 -94.5 23.75 -94.75 24.3 -94.95 24.8 -95.15 25.35 -95.3 25.8 -95.45 26.3 -95.55 26.75 -95.65 27.2 -95.7 27.65 -95.7 28.1 -95.7 28.55 -95.65 29.0 -95.55 29.45 -95.4 30.2 -95.05 30.9 -94.75 31.55 -94.3 32.15 -93.85 32.7 -93.35 33.2 -92.9 33.65 -92.35 34.05 -91.9 34.4 -91.4 34.7 -91.0 34.95 -90.55 35.15 -90.25 35.3 -89.95 35.45 -89.75 35.55 -89.65 35.6 -89.4 35.7 -89.15 35.75 -88.9 35.85 -88.6 35.9 -88.4 35.95 -88.15 36.0 -87.9 36.05 -87.7 36.1 -87.45 36.1 -87.25 36.15 -87.05 36.15 -86.85 36.15 -86.65 36.2 -86.5 36.2 -86.3 36.2 -86.15 36.2 -86.4 36.85 -86.6 37.55 -86.85 38.35 -87.1 39.2 -87.35 40.1 -87.55 41.05 -87.75 42.15 -87.9 43.2 -88.1 44.4 -88.2 45.55 -88.3 46.85 -88.35 48.1 -88.35 49.5 -88.3 50.85 -88.2 52.3 -88.0 53.75 -87.9 54.4 -87.85 54.85 -87.7 55.55 -87.6 56.25 -87.45 57.05 -87.25 57.8 -87.05 58.7 -86.75 59.6 -86.45 60.55 -86.1 61.5 -85.75 62.55 -85.3 63.55 -84.8 64.6 -84.2 65.65 -83.6 66.8 -82.9 67.85 -82.55 68.35 -82.2 68.85 -81.7 69.5 -81.2 70.2 -80.5 71.0 -79.8 71.8 -78.9 72.75 -78.0 73.6 -76.95 74.6 -75.85 75.45 -74.6 76.45 -73.3 77.25 -71.85 78.2 -70.3 78.9 -68.7 79.7 -66.95 80.3 -65.65 80.75 -64.3 81.05 -63.05 81.4 -61.75 81.55 -60.55 81.7 -59.25 81.75 -58.05 81.85 -56.75 81.8 -55.55 81.75 -54.25 81.6 -53.05 81.45 -51.65 81.25 -50.45 81.1 -48.95 80.85 -47.9 80.65 -46.1 80.3 -44.9 80.1 -43.7 79.8 -42.35 79.5 -41.05 79.2 -39.55 78.8 -38.1 78.35 -36.5 77.85 -34.95 77.3 -33.2 76.7 -31.55 76.05 -29.75 75.3 -27.95 74.5 -26.1 73.65 -24.25 72.65 -22.3 71.65 -20.4 70.5 -20.05 70.95 -19.75 71.4 -19.35 71.85 -19.0 72.35 -18.55 72.85 -18.15 73.4 -17.7 73.95 -17.25 74.45 -16.75 75.05 -16.25 75.6 -15.75 76.2 -15.2 76.8 -14.65 77.4 -14.05 78.05 -13.45 78.65 -12.85 79.3 -11.55 80.6 -11.0 81.15 -10.0 82.15 -9.2 82.9 -8.3 83.75 -7.45 84.5 -6.55 85.3 -5.7 86.0 -4.8 86.75 -3.9 87.35 -2.95 88.05 -2.0 88.6 -1.0 89.25 0.05 89.75 1.15 90.3 2.3 90.75 3.05 91.05 3.45 91.2 4.2 91.5 4.9 91.7 5.75 91.95 6.55 92.2 7.45 92.45 8.35 92.6 9.4 92.8 10.4 92.95 11.5 93.05 12.6 93.05 13.75 93.05 14.95 92.95 16.2 92.85 17.4 92.55 19.0 92.2 20.55 91.6 21.95 91.05 23.3 90.3 24.55 89.6 25.7 88.75 26.8 87.95 27.8 87.05 28.7 86.2 29.6 85.25 30.3 84.45 31.05 83.55 31.65 82.8 32.2 82.0 32.55 81.5 33.15 80.7 34.15 79.25 35.0 77.65 35.8 76.2 36.45 74.65 37.05 73.25 37.5 71.75 37.9 70.4 38.2 69.0 38.5 67.75 38.7 66.45 38.85 65.3 38.95 64.15 39.0 63.2 39.05 62.25 39.05 61.45 39.05 60.7 39.55 61.1 40.05 61.5 40.6 61.9 41.2 62.3 41.8 62.7 42.45 63.1 43.1 63.5 43.75 63.9 44.5 64.3 45.25 64.65 46.0 65.05 46.8 65.4 47.65 65.75 48.5 66.05 49.4 66.35 50.3 66.65 50.55 66.7 50.75 66.75 51.05 66.85 51.35 66.9 51.7 67.0 52.1 67.1 52.5 67.2 52.95 67.25 53.45 67.35 53.95 67.45 54.5 67.55 55.1 67.6 55.7 67.7 56.3 67.75 57.0 67.8 57.65 67.85 58.35 67.9 58.7 67.9 59.35 67.95 59.85 67.95 60.5 67.95 61.05 67.95 61.7 67.95 62.3 67.9 63.0 67.85 63.65 67.8 64.3 67.7 65.0 67.6 65.7 67.45 66.4 67.25 67.15 67.1 67.85 66.85 68.35 66.65 68.65 66.55 69.2 66.35 69.7 66.1 70.4 65.8 71.05 65.45 71.8 65.05 72.55 64.6 73.35 64.05 74.1 63.45 74.9 62.8 75.65 62.05 76.45 61.25 77.15 60.35 77.9 59.35 78.45 58.25 79.1 57.05 79.55 55.8 79.95 54.65 80.2 53.45 80.45 52.35 80.55 51.2 80.6 50.15 80.55 49.1 80.55 48.2 80.4 47.3 80.35 46.55 80.2 45.8 80.05 45.2 79.9 44.65 79.8 44.3 79.7 43.95 79.95 43.85 80.25 43.75 80.6 43.6 80.95 43.4 81.4 43.2 81.8 42.95 82.3 42.65 82.75 42.35 83.25 42.0 83.7 41.6 84.25 41.15 84.7 40.65 85.2 40.15 85.6 39.55 86.05 38.9 86.45 38.25 86.85 37.45 87.15 36.6 87.45 35.8 87.65 34.9 87.8 34.0 87.85 33.1 87.9 32.25 87.8 31.3 87.7 30.4 87.5 29.5 87.3 28.6 87.0 27.75 86.65 26.85 86.2 26.0 85.75 25.15 85.2 24.35 85.45 24.35 85.75 24.35 86.05 24.35 86.35 24.35 86.7 24.35 87.0 24.35 87.35 24.3 87.7 24.25 88.1 24.2 88.5 24.1 88.9 24.05 89.25 23.95 89.7 23.8 90.1 23.65 90.5 23.5 90.95 23.3 91.25 23.15 91.55 23.0 91.85 22.85 92.15 22.65 92.5 22.45 92.8 22.25 93.1 22.0 93.45 21.75 93.75 21.45 94.1 21.15 94.4 20.85 94.75 20.5 95.05 20.1 95.4 19.7 95.7 19.3 96.05 18.85 97.25 17.1 98.3 14.95 99.3 13.0 100.1 10.75 100.85 8.7 101.45 6.4 102.0 4.4 102.45 2.25 102.85 0.45 103.15 -1.45 103.35 -2.95 103.55 -4.4 103.65 -5.45 103.75 -6.4 103.75 -6.75 103.8 -7.1 103.9 -8.55 103.95 -9.25 104.0 -10.45 104.05 -11.4 104.1 -12.55 104.1 -13.6 104.15 -14.75 104.1 -15.8 104.1 -16.95 104.05 -18.0 104.0 -19.2 103.9 -20.3 103.75 -21.45 103.6 -22.55 103.45 -23.75 103.2 -24.9 102.4 -28.6 100.95 -32.1 99.55 -35.4 97.6 -38.5 95.85 -41.35 93.55 -44.05 91.55 -46.5 89.15 -48.8 87.0 -50.85 84.65 -52.75 82.65 -54.35 80.5 -55.85 78.75 -57.05 76.95 -58.1 75.7 -58.9 74.4 -59.6 74.7 -59.65 75.0 -59.75 75.4 -59.85 75.75 -59.95 76.15 -60.1 76.55 -60.25 77.0 -60.45 77.45 -60.65 77.9 -60.85 78.35 -61.1 78.85 -61.4 79.3 -61.7 79.75 -62.05 80.2 -62.45 80.7 -62.85 81.15 -63.3 81.9 -64.1 82.55 -65.0 83.15 -65.95 83.65 -66.95 84.1 -68.0 84.4 -69.1 84.7 -70.15 84.85 -71.3 84.95 -72.4 84.95 -73.55 84.9 -74.7 84.65 -75.8 84.4 -76.95 84.0 -78.0 83.6 -79.05 82.95 -80.05 82.55 -80.7 82.05 -81.3 81.6 -81.85 81.05 -82.35 80.55 -82.85 80.0 -83.25 79.5 -83.65 79.0 -83.95 78.5 -84.3 78.0 -84.55 77.55 -84.8 77.05 -85.0 76.65 -85.15 76.25 -85.3 75.95 -85.45 75.6 -85.55 75.85 -85.8 76.05 -86.05 76.3 -86.35 76.6 -86.7 76.9 -87.1 77.15 -87.5 77.5 -88.0 77.8 -88.5 78.1 -89.05 78.4 -89.6 78.7 -90.25 78.95 -90.9 79.2 -91.6 79.4 -92.35 79.6 -93.1 79.7 -93.9 79.75 -94.15 79.75 -94.4 79.8 -94.85 79.85 -95.35 79.85 -95.95 79.85 -96.55 79.85 -97.3 79.8 -98.05 79.7 -98.85 79.55 -99.65 79.35 -100.55 79.05 -101.35 78.75 -102.3 78.3 -103.1 77.85 -104.0 77.25 -104.75 76.55 -105.65 75.6 -106.4 74.7 -107.15 73.65 -107.7 72.55 -108.3 71.35 -108.7 70.15 -109.05 68.85 -109.25 67.55 -109.45 66.15 -109.45 64.75 -109.4 63.35 -109.2 61.9 -108.95 60.5 -108.5 59.05 -108.05 57.65 -107.4 57.75 -107.95 57.85 -108.45 57.95 -109.1 58.0 -109.7 58.1 -110.4 58.15 -111.15 58.2 -111.95 58.2 -112.7 58.2 -113.6 58.1 -114.45 58.05 -115.35 57.95 -116.3 57.8 -117.25 57.55 -118.25 57.35 -119.25 57.05 -120.25 56.8 -121.0 56.65 -121.4 56.4 -122.2 56.1 -122.9 55.8 -123.8 55.4 -124.6 54.95 -125.55 54.45 -126.4 53.9 -127.35 53.3 -128.15 52.65 -129.1 51.9 -129.85 51.1 -130.65 50.25 -131.25 49.3 -131.9 48.25 -132.3 47.1 -132.75 45.8 -132.95 44.55 -133.15 43.2 -133.05 41.85 -132.95 40.45 -132.55 39.05 -132.2 37.65 -131.55 36.25 -130.9 34.9 -130.0 33.5 -129.15 32.25 -128.0 30.9 -126.85 29.7 -125.5 28.45 -124.1 27.4 -122.5 26.95 -122.75 26.45 -123.0 25.9 -123.25 25.35 -123.5 24.7 -123.75 24.05 -124.0 23.35 -124.25 22.65 -124.4 21.85 -124.65 21.1 -124.75 20.25 -124.9 19.4 -125.0 18.55 -125.1 17.65 -125.05 16.7 -125.05 15.75 -124.95 13.8 -124.75 11.95 -124.1 10.25 -123.5 8.65 -122.6 7.2 -121.75 5.85 -120.65 4.65 -119.65 3.55 -118.45 2.6 -117.45 1.7 -116.3 1.0 -115.35 0.35 -114.3 -0.1 -113.55 -0.55 -112.8 -0.8 -112.3 -1.0 -111.9 -1.3 -111.25 -1.55 -110.6 -1.8 -110.0 -2.0 -109.35 -2.25 -108.75 -2.4 -108.1 -2.55 -107.55 -2.7 -106.95 -2.8 -106.4 -2.9 -105.85 -3.0 -105.35 -3.05 -104.85 -3.1 -104.4 -3.15 -103.95 -3.2 -103.5 -3.25 -103.1 -3.65 -103.2 -4.05 -103.35 -4.5 -103.45 -5.0 -103.55 -5.5 -103.7 -6.0 -103.8 -6.55 -103.95 -7.1 -104.05 -7.65 -104.2 -8.25 -104.3 -8.85 -104.4 -9.5 -104.55 -10.15 -104.65 -10.8 -104.75 -11.5 -104.85 -12.2 -104.95 -14.5 -105.25 -15.85 -105.4 -18.25 -105.7 -20.45 -105.8 -23.2 -106.0 -25.8 -105.95 -28.8 -105.95 -31.65 -105.65 -34.9 -105.3 -37.9 -104.65 -41.25 -103.9 -44.3 -102.75 -47.65 -101.5 -50.65 -99.8 -53.9 -97.95 -56.75 -95.55 -58.85 -93.8 -60.75 -91.7 -62.7 -89.65 -64.4 -87.3 -66.15 -84.95 -67.55 -82.4 -69.0 -79.8 -70.1 -77.1 -71.25 -74.35 -71.95 -71.6 -72.65 -68.7 -72.95 -65.9 -73.25 -62.95 -73.05 -60.15 -72.8 -57.25 -72.05 -54.5 -71.85 -53.8 -71.65 -53.15 -71.45 -52.5 -71.2 -51.85 -70.95 -51.25 -70.7 -50.65 -70.45 -50.05 -70.2 -49.5 -69.95 -49.0 -69.7 -48.5 -69.45 -48.0 -69.15 -47.55 -68.95 -47.1 -68.65 -46.7 -68.45 -46.3 -68.2 -45.9 L-68.2 -45.9" fill="#6fade5" fill-rule="evenodd" stroke="none"/>
  </g>
</svg>
