<?xml version="1.0" encoding="UTF-8" standalone="no"?>
<svg xmlns:xlink="http://www.w3.org/1999/xlink" height="76.45px" width="73.45px" xmlns="http://www.w3.org/2000/svg">
  <g transform="matrix(1.0, 0.0, 0.0, 1.0, 36.7, 38.25)">
    <path d="M-22.55 -13.85 Q-22.85 -13.85 -23.15 -13.85 -23.5 -13.85 -23.85 -13.85 -24.3 -13.85 -24.7 -13.8 -25.2 -13.75 -25.65 -13.65 -26.2 -13.55 -26.7 -13.4 -27.25 -13.3 -27.8 -13.1 -28.4 -12.9 -28.95 -12.65 -29.55 -12.35 -30.1 -12.05 -30.5 -11.8 -30.65 -11.7 -31.05 -11.45 -31.4 -11.2 -31.85 -10.9 -32.25 -10.6 -32.7 -10.2 -33.15 -9.8 -33.6 -9.35 -34.0 -8.85 -34.45 -8.3 -34.8 -7.75 -35.2 -7.1 -35.5 -6.4 -35.8 -5.7 -36.0 -4.9 -36.2 -4.15 -36.25 -3.35 -36.3 -2.6 -36.25 -1.9 -36.2 -1.2 -36.05 -0.55 -35.95 0.1 -35.75 0.7 -35.55 1.25 -35.3 1.75 -35.15 2.2 -34.9 2.65 -34.7 3.05 -34.5 3.4 -34.35 3.6 -34.15 3.9 -33.7 4.65 -33.15 5.3 -32.6 5.9 -32.05 6.5 -31.5 7.0 -30.9 7.45 -30.35 7.85 -29.75 8.2 -29.25 8.5 -28.7 8.75 -28.25 9.0 -27.75 9.2 -27.4 9.35 -27.0 9.5 -26.7 9.55 -26.45 9.65 -26.5 9.8 -26.55 9.85 -26.6 10.0 -26.65 10.1 -26.7 10.3 -26.75 10.5 -26.8 10.75 -26.85 10.95 -26.9 11.25 -26.9 11.5 -26.95 11.8 -26.9 12.1 -26.9 12.4 -26.85 12.75 -26.8 13.1 -26.65 13.4 -26.65 13.4 -26.65 13.5 -26.6 13.55 -26.55 13.7 -26.45 13.85 -26.4 14.0 -26.3 14.2 -26.15 14.35 -26.0 14.6 -25.85 14.8 -25.7 15.0 -25.5 15.2 -25.25 15.45 -25.0 15.65 -24.75 15.85 -24.45 16.0 -24.1 16.2 -23.65 16.35 -23.25 16.5 -22.8 16.55 -22.4 16.65 -21.9 16.65 -21.45 16.65 -21.0 16.55 -20.55 16.5 -20.05 16.35 -19.6 16.2 -19.1 16.0 -18.65 15.8 -18.2 15.55 -17.75 15.25 -17.3 14.95 -17.3 15.15 -17.25 15.4 -17.25 15.65 -17.2 15.9 -17.15 16.15 -17.1 16.4 -17.05 16.7 -17.0 16.95 -16.95 17.25 -16.85 17.55 -16.75 17.85 -16.65 18.15 -16.55 18.5 -16.45 18.8 -16.3 19.15 -16.15 19.45 -16.0 19.75 -15.95 19.95 -15.8 20.25 -15.65 20.55 -15.5 20.85 -15.35 21.15 -15.15 21.45 -14.95 21.75 -14.75 22.05 -14.5 22.35 -14.25 22.7 -14.0 23.0 -13.7 23.3 -13.35 23.6 -13.0 23.9 -12.65 24.15 -12.35 24.35 -12.05 24.5 -11.75 24.7 -11.45 24.8 -11.15 24.95 -10.85 25.05 -10.55 25.15 -10.25 25.25 -10.0 25.3 -9.7 25.35 -9.45 25.4 -9.2 25.45 -9.0 25.5 -8.7 25.55 -8.55 25.55 -8.3 25.6 -8.05 25.6 -7.85 25.65 -7.45 25.65 -7.0 25.65 -6.45 25.65 -5.9 25.6 -5.2 25.55 -4.5 25.45 -3.7 25.3 -2.95 25.1 -2.1 24.85 -1.35 24.5 -0.45 24.1 0.3 23.55 1.15 23.0 1.9 22.3 2.15 22.1 2.35 21.85 2.55 21.65 2.75 21.4 2.95 21.2 3.1 20.95 3.25 20.75 3.4 20.55 3.55 20.35 3.7 20.1 3.8 19.95 3.9 19.75 4.0 19.55 4.1 19.4 4.2 19.25 4.3 19.1 4.35 19.2 4.4 19.3 4.5 19.45 4.55 19.55 4.65 19.7 4.75 19.85 4.85 20.0 5.0 20.15 5.1 20.35 5.25 20.5 5.4 20.65 5.6 20.8 5.75 21.0 5.95 21.15 6.15 21.3 6.35 21.45 6.5 21.55 6.55 21.6 6.7 21.7 6.85 21.75 7.0 21.9 7.15 21.95 7.35 22.05 7.55 22.15 7.75 22.25 8.0 22.35 8.25 22.4 8.45 22.45 8.75 22.55 9.0 22.55 9.3 22.6 9.55 22.6 9.65 22.6 9.7 22.6 9.8 22.6 9.95 22.6 10.1 22.55 10.25 22.55 10.45 22.5 10.65 22.45 10.85 22.4 11.05 22.3 11.3 22.2 11.55 22.1 11.85 21.95 12.1 21.8 12.4 21.65 12.7 21.45 13.3 21.05 13.8 20.55 14.3 20.1 14.8 19.55 15.2 19.1 15.6 18.5 15.95 18.0 16.3 17.45 16.6 16.95 16.85 16.4 17.1 15.9 17.3 15.45 17.45 15.0 17.6 14.6 17.75 14.25 17.85 13.95 17.95 14.0 18.1 14.0 18.2 14.05 18.35 14.1 18.5 14.15 18.65 14.2 18.8 14.2 19.0 14.25 19.15 14.3 19.35 14.35 19.5 14.4 19.7 14.4 19.9 14.45 20.1 14.5 20.3 14.55 20.5 14.55 20.95 14.6 21.15 14.65 21.5 14.7 21.75 14.7 22.0 14.75 22.25 14.75 22.5 14.8 22.7 14.8 22.95 14.8 23.15 14.8 23.35 14.75 23.55 14.7 23.7 14.7 23.9 14.65 24.1 14.55 24.3 14.5 24.55 14.4 24.8 14.2 25.0 14.05 25.25 13.85 25.45 13.7 25.65 13.45 25.85 13.25 26.0 13.0 26.2 12.75 26.3 12.5 26.45 12.25 26.5 12.0 26.6 11.75 26.65 11.45 26.65 11.2 26.65 10.95 26.65 10.85 26.6 10.7 26.6 10.6 26.55 10.5 26.55 10.4 26.5 10.3 26.5 10.35 26.4 10.05 26.35 9.95 26.3 9.8 26.25 9.65 26.25 9.5 26.15 9.3 26.15 9.1 26.1 8.9 26.05 8.65 26.05 8.55 26.0 8.45 26.0 8.3 26.0 8.2 25.95 8.1 25.95 8.0 25.95 7.9 25.95 7.85 25.9 7.75 25.9 7.65 25.9 7.55 25.9 7.5 25.9 7.4 25.9 7.35 25.9 7.25 25.9 7.2 26.05 7.15 26.2 7.1 26.35 7.05 26.5 7.0 26.65 6.9 26.85 6.85 27.0 6.8 27.2 6.7 27.4 6.65 27.6 6.55 27.8 6.45 28.0 6.4 28.2 6.3 28.45 6.2 28.65 6.1 28.85 6.0 29.5 5.7 29.75 5.55 30.2 5.35 30.55 5.15 31.0 4.95 31.3 4.75 31.7 4.55 32.0 4.35 32.35 4.15 32.65 3.95 33.0 3.75 33.25 3.5 33.55 3.3 33.8 3.05 34.05 2.8 34.3 2.55 34.75 2.05 35.1 1.5 35.45 0.95 35.7 0.35 36.0 -0.25 36.15 -0.9 36.35 -1.5 36.45 -2.2 36.55 -2.8 36.6 -3.45 36.65 -4.1 36.6 -4.75 36.6 -5.4 36.5 -6.0 36.4 -6.6 36.25 -7.2 36.2 -7.4 36.15 -7.45 36.1 -7.65 36.05 -7.85 35.95 -8.1 35.85 -8.3 35.75 -8.6 35.6 -8.85 35.5 -9.15 35.3 -9.45 35.15 -9.8 34.95 -10.1 34.7 -10.45 34.5 -10.8 34.2 -11.15 33.95 -11.5 33.3 -12.25 32.55 -12.9 31.8 -13.45 31.0 -13.95 30.25 -14.4 29.45 -14.75 28.7 -15.05 27.9 -15.25 27.25 -15.5 26.5 -15.6 25.9 -15.75 25.3 -15.8 24.8 -15.9 24.3 -15.9 24.0 -15.95 23.65 -15.95 23.7 -16.15 23.8 -16.4 23.85 -16.65 23.95 -16.9 24.0 -17.15 24.1 -17.45 24.15 -17.7 24.2 -18.0 24.25 -18.3 24.35 -18.65 24.4 -18.95 24.45 -19.3 24.5 -19.65 24.5 -20.0 24.55 -20.4 24.6 -20.75 24.65 -21.25 24.65 -21.5 24.65 -21.9 24.65 -22.25 24.7 -22.7 24.65 -23.1 24.65 -23.55 24.6 -24.0 24.6 -24.45 24.5 -24.9 24.45 -25.4 24.35 -25.85 24.2 -26.35 24.05 -26.85 23.9 -27.4 23.65 -27.9 23.5 -28.25 23.4 -28.45 23.25 -28.75 23.15 -29.05 22.95 -29.4 22.75 -29.7 22.55 -30.05 22.35 -30.35 22.1 -30.75 21.8 -31.05 21.5 -31.4 21.15 -31.7 20.8 -32.05 20.4 -32.35 20.0 -32.6 19.55 -32.85 19.05 -33.1 18.55 -33.3 18.05 -33.45 17.55 -33.55 17.1 -33.65 16.6 -33.65 16.15 -33.7 15.7 -33.7 15.25 -33.7 14.85 -33.65 14.45 -33.6 14.05 -33.5 13.75 -33.45 13.35 -33.4 13.15 -33.35 12.8 -33.25 12.25 -33.1 11.65 -32.9 11.15 -32.75 10.65 -32.5 10.2 -32.3 9.75 -32.05 9.35 -31.8 8.95 -31.55 8.55 -31.3 8.2 -31.05 7.9 -30.8 7.6 -30.55 7.35 -30.35 7.15 -30.1 6.95 -29.9 6.75 -29.7 6.7 -29.8 6.65 -29.85 6.6 -29.95 6.5 -30.05 6.45 -30.2 6.35 -30.3 6.25 -30.4 6.15 -30.55 6.05 -30.65 5.9 -30.8 5.75 -30.9 5.6 -31.05 5.45 -31.15 5.3 -31.25 5.1 -31.4 4.9 -31.5 5.0 -31.45 4.75 -31.55 4.65 -31.6 4.5 -31.65 4.35 -31.7 4.15 -31.75 3.95 -31.8 3.75 -31.85 3.5 -31.9 3.25 -31.9 2.95 -31.9 2.7 -31.9 2.4 -31.85 2.1 -31.75 1.8 -31.7 1.5 -31.55 1.4 -31.5 1.35 -31.45 1.25 -31.4 1.15 -31.35 1.1 -31.3 1.0 -31.25 0.95 -31.2 0.9 -31.15 0.8 -31.1 0.75 -31.05 0.7 -31.05 0.65 -31.0 0.6 -30.95 0.55 -30.9 0.5 -30.85 0.45 -30.8 0.35 -30.95 0.2 -31.1 0.1 -31.3 -0.05 -31.45 -0.2 -31.65 -0.35 -31.85 -0.5 -32.05 -0.7 -32.25 -0.9 -32.45 -1.1 -32.65 -1.3 -32.85 -1.55 -33.05 -1.75 -33.25 -2.0 -33.45 -2.25 -33.65 -2.55 -33.85 -2.8 -34.05 -3.0 -34.2 -3.3 -34.4 -3.55 -34.55 -3.9 -34.75 -4.25 -34.95 -4.65 -35.2 -5.05 -35.35 -5.5 -35.55 -5.95 -35.7 -6.45 -35.85 -6.95 -35.95 -7.5 -36.1 -8.1 -36.15 -8.65 -36.2 -9.3 -36.15 -9.45 -36.15 -9.6 -36.15 -9.9 -36.1 -10.25 -36.05 -10.65 -36.0 -11.05 -35.9 -11.55 -35.75 -12.0 -35.6 -12.55 -35.4 -13.05 -35.15 -13.65 -34.9 -14.15 -34.55 -14.75 -34.15 -15.2 -33.7 -15.75 -33.2 -16.15 -32.65 -16.5 -32.2 -16.75 -31.7 -17.0 -31.2 -17.2 -30.7 -17.4 -30.2 -17.5 -29.7 -17.6 -29.2 -17.7 -28.7 -17.75 -28.2 -17.8 -27.7 -17.8 -27.2 -17.85 -26.7 -17.85 -26.3 -17.8 -25.75 -17.8 -25.45 -17.8 -24.9 -17.8 -24.75 -17.8 -24.55 -17.75 -24.4 -17.75 -24.25 -17.75 -24.1 -17.7 -23.95 -17.7 -23.8 -17.7 -23.7 -17.65 -23.55 -17.65 -23.4 -17.65 -23.3 -17.6 -23.2 -17.6 -23.05 -17.6 -22.95 -17.55 -22.85 -17.55 -22.75 -17.7 -22.75 -17.9 -22.75 -18.1 -22.75 -18.3 -22.75 -18.5 -22.7 -18.7 -22.7 -18.95 -22.7 -19.15 -22.65 -19.4 -22.65 -19.65 -22.6 -19.9 -22.55 -20.15 -22.5 -20.4 -22.45 -20.65 -22.35 -20.95 -22.3 -21.25 -22.2 -21.6 -22.1 -21.8 -22.05 -22.05 -21.95 -22.3 -21.85 -22.55 -21.75 -22.8 -21.7 -23.05 -21.6 -23.25 -21.5 -23.5 -21.35 -23.7 -21.25 -23.9 -21.1 -24.1 -20.95 -24.25 -20.8 -24.4 -20.65 -24.55 -20.5 -24.65 -20.3 -24.8 -20.0 -24.9 -19.7 -25.0 -19.35 -25.0 -18.95 -25.05 -18.6 -24.95 -18.2 -24.9 -17.8 -24.75 -17.35 -24.6 -16.95 -24.4 -16.5 -24.2 -16.05 -23.9 -15.6 -23.6 -15.15 -23.3 -14.75 -22.95 -14.3 -22.55 -13.85 L-22.55 -13.85" fill="url(#gradient0)" fill-rule="evenodd" stroke="none"/>
  </g>
  <defs>
    <linearGradient gradientTransform="matrix(-0.0269, -0.0268, 0.0268, -0.0269, 0.55, -5.5)" gradientUnits="userSpaceOnUse" id="gradient0" spreadMethod="pad" x1="-819.2" x2="819.2">
      <stop offset="0.0" stop-color="#fff23c" stop-opacity="0.0"/>
      <stop offset="0.3803921568627451" stop-color="#fff23c" stop-opacity="0.84705883"/>
      <stop offset="0.6039215686274509" stop-color="#fff23c" stop-opacity="0.8"/>
      <stop offset="1.0" stop-color="#fff23c" stop-opacity="0.0"/>
    </linearGradient>
  </defs>
</svg>
