<?xml version="1.0" encoding="UTF-8" standalone="no"?>
<svg xmlns:xlink="http://www.w3.org/1999/xlink" height="123.3px" width="126.9px" xmlns="http://www.w3.org/2000/svg">
  <g transform="matrix(1.0, 0.0, 0.0, 1.0, 0.0, 0.0)">
    <path d="M61.15 1.9 Q59.5 1.9 57.8 2.0 56.15 2.05 54.5 2.25 52.85 2.45 51.2 2.75 49.55 3.0 47.9 3.4 46.3 3.8 44.65 4.25 43.05 4.7 41.5 5.3 39.9 5.85 38.35 6.45 36.8 7.1 35.3 7.8 33.9 8.5 32.55 9.25 31.15 10.0 29.85 10.8 28.5 11.65 27.2 12.5 25.9 13.35 24.65 14.3 23.4 15.25 22.2 16.25 21.0 17.25 19.85 18.3 18.7 19.35 17.6 20.45 16.55 21.6 15.5 22.8 14.05 24.55 12.8 26.45 11.55 28.3 10.5 30.35 9.45 32.35 8.6 34.45 7.7 36.55 7.0 38.7 6.35 40.85 5.8 43.1 5.3 45.3 4.95 47.6 4.6 49.8 4.35 52.1 4.15 54.35 4.1 56.6 4.05 58.75 4.1 60.95 4.2 63.1 4.4 65.25 4.6 67.4 4.95 69.55 5.3 71.7 5.8 73.8 6.25 75.95 6.85 78.0 7.45 80.1 8.2 82.15 8.9 84.15 9.75 86.15 10.6 88.15 11.6 90.1 12.25 91.45 12.9 92.75 13.6 94.1 14.3 95.35 15.05 96.65 15.8 97.9 16.55 99.2 17.35 100.4 18.2 101.65 19.05 102.8 19.95 104.0 20.9 105.15 21.85 106.3 22.85 107.35 23.85 108.45 24.95 109.45 25.85 110.35 26.9 111.15 27.9 111.95 29.05 112.65 30.1 113.3 31.3 113.9 32.4 114.45 33.65 114.95 34.8 115.45 36.1 115.9 37.25 116.3 38.55 116.7 39.7 117.05 41.05 117.45 42.05 117.7 43.55 118.1 45.3 118.55 47.05 118.9 48.8 119.3 50.55 119.6 52.35 119.95 54.1 120.2 55.9 120.5 57.65 120.7 59.45 120.9 61.25 121.05 63.0 121.2 64.8 121.3 66.6 121.4 68.4 121.4 70.2 121.45 71.95 121.4 74.4 121.4 76.1 121.35 78.35 121.35 80.25 121.3 82.45 121.25 84.45 121.1 86.6 121.0 88.6 120.8 90.75 120.6 92.7 120.35 94.85 120.05 96.8 119.7 98.9 119.3 100.85 118.75 102.9 118.25 104.85 117.6 106.15 117.15 107.4 116.6 108.65 116.05 109.9 115.35 111.1 114.65 112.25 113.9 113.35 113.1 114.45 112.2 115.5 111.35 116.5 110.35 117.45 109.4 118.35 108.35 119.25 107.3 120.05 106.2 120.85 105.05 121.55 103.85 121.95 103.2 122.3 102.45 122.6 101.75 122.85 101.05 123.15 100.3 123.3 99.55 123.5 98.8 123.65 98.0 123.75 97.25 123.8 96.5 123.9 95.7 123.9 94.9 123.9 94.15 123.85 93.35 123.8 92.6 123.7 91.8 123.6 90.7 123.5 89.9 123.4 88.9 123.35 88.05 123.3 87.05 123.25 86.15 123.2 85.15 123.2 84.25 123.2 83.25 123.2 82.35 123.25 81.4 123.35 80.5 123.45 79.5 123.6 78.6 123.8 77.65 124.0 76.75 124.15 76.1 124.3 75.4 124.45 74.8 124.5 74.1 124.6 73.45 124.65 72.7 124.7 72.1 124.75 71.35 124.8 70.75 124.8 70.0 124.8 69.5 124.85 68.6 124.85 67.7 124.85 67.25 124.9 66.5 124.9 65.9 124.95 64.65 124.95 63.55 124.95 62.3 124.95 61.15 124.9 59.95 124.85 58.8 124.85 57.55 124.75 56.4 124.65 55.2 124.55 54.05 124.4 52.85 124.25 51.7 124.1 50.5 123.85 49.4 123.65 48.2 123.35 47.05 123.05 45.6 122.65 44.15 122.25 42.7 121.8 41.3 121.35 39.85 120.85 38.45 120.3 37.05 119.75 35.7 119.15 34.3 118.5 33.0 117.85 31.6 117.15 30.3 116.45 29.0 115.7 27.7 114.9 26.45 114.1 25.2 113.15 23.95 112.1 22.7 111.1 21.55 109.95 20.4 108.85 19.3 107.65 18.25 106.45 17.25 105.15 16.25 103.95 15.3 102.6 14.4 101.35 13.5 99.95 12.65 98.65 11.8 97.2 11.0 95.9 10.25 94.45 9.5 93.2 8.9 91.9 8.3 90.65 7.75 89.3 7.25 88.05 6.75 86.7 6.25 85.4 5.8 84.05 5.4 82.7 4.95 81.35 4.6 80.0 4.2 78.65 3.85 77.3 3.5 75.9 3.2 74.55 2.9 73.15 2.6 69.55 1.95 61.15 1.9 L61.15 1.9" fill="#ffccaa" fill-rule="evenodd" stroke="none"/>
  </g>
</svg>
