<?xml version="1.0" encoding="UTF-8" standalone="no"?>
<svg xmlns:xlink="http://www.w3.org/1999/xlink" height="134.5px" width="126.9px" xmlns="http://www.w3.org/2000/svg">
  <g transform="matrix(1.0, 0.0, 0.0, 1.0, 0.0, 0.0)">
    <path d="M61.95 1.25 Q59.55 1.25 57.15 1.45 54.75 1.65 52.35 2.0 50.0 2.4 47.65 2.95 45.3 3.5 43.0 4.2 40.7 4.95 38.5 5.85 36.25 6.75 34.1 7.8 31.95 8.9 29.9 10.1 27.85 11.35 25.9 12.75 24.75 13.55 23.7 14.35 22.55 15.2 21.55 16.05 20.45 16.95 19.45 17.9 18.45 18.8 17.5 19.8 16.5 20.8 15.65 21.8 14.7 22.85 13.9 23.95 13.05 25.05 12.3 26.15 11.55 27.35 10.9 28.5 9.8 30.4 8.85 32.45 7.95 34.4 7.2 36.5 6.45 38.55 5.9 40.7 5.3 42.8 4.85 44.95 4.45 47.1 4.15 49.3 3.9 51.5 3.7 53.7 3.6 55.9 3.55 58.1 3.55 60.3 3.6 62.5 3.7 64.5 3.95 66.55 4.25 68.55 4.65 70.55 5.05 72.5 5.6 74.5 6.15 76.4 6.8 78.35 7.4 80.25 8.15 82.2 8.9 84.0 9.7 85.95 10.5 87.75 11.4 89.65 12.2 91.4 13.15 93.3 13.3 93.6 20.05 106.05 20.6 106.95 21.25 107.8 21.85 108.6 22.65 109.3 23.35 110.05 24.2 110.7 25.0 111.3 25.9 111.85 26.8 112.4 27.75 112.9 28.65 113.35 29.65 113.75 30.6 114.15 31.6 114.45 32.6 114.8 33.6 115.05 34.25 115.2 34.95 115.35 35.6 115.5 36.3 115.6 36.95 115.75 37.65 115.85 38.3 115.95 39.0 116.0 39.65 116.1 40.35 116.2 40.95 116.25 41.75 116.3 41.95 116.35 43.1 116.45 43.9 116.55 44.45 116.6 45.75 117.1 47.1 117.65 48.35 118.15 49.7 118.7 50.95 119.25 52.25 119.8 53.55 120.4 54.85 121.0 56.1 121.55 57.4 122.2 58.65 122.8 59.9 123.4 61.15 124.05 62.45 124.7 63.65 125.3 64.95 126.0 64.85 125.95 70.95 129.1 74.55 130.95 77.05 132.0 77.75 132.25 78.5 132.5 79.2 132.7 79.95 132.85 80.7 133.0 81.45 133.1 82.25 133.15 82.95 133.15 83.75 133.15 84.45 133.1 85.2 133.0 85.95 132.85 86.65 132.65 87.35 132.35 88.05 132.05 88.7 131.65 90.15 130.7 92.4 128.85 95.1 126.6 96.0 125.9 96.5 125.5 96.95 125.1 97.45 124.7 97.95 124.35 98.45 124.0 99.0 123.6 99.5 123.25 100.05 122.95 100.55 122.6 101.1 122.25 101.65 121.95 102.15 121.65 102.7 121.35 103.25 121.05 103.8 120.8 104.35 120.5 106.6 119.35 110.65 117.8 115.25 115.95 116.95 115.2 117.65 114.85 118.3 114.5 118.95 114.1 119.55 113.65 120.2 113.2 120.8 112.75 121.4 112.25 121.9 111.7 122.45 111.15 122.9 110.55 123.35 109.95 123.7 109.3 124.05 108.6 124.3 107.9 124.55 107.15 124.65 106.4 124.75 105.65 124.8 104.85 124.85 104.15 124.85 103.35 124.9 102.6 124.85 101.8 124.85 101.05 124.85 100.25 124.8 99.55 124.75 98.7 124.7 98.05 124.65 97.15 -62.4 -2611.95 124.55 95.65 124.5 94.75 124.45 94.1 123.6 86.1 123.75 82.0 123.75 81.65 123.75 81.25 123.8 80.85 123.8 80.5 123.85 80.1 123.9 79.75 123.95 79.4 124.0 79.0 124.1 78.65 124.15 78.25 124.25 77.9 124.35 77.5 124.4 77.15 124.55 76.8 124.65 76.45 124.75 76.05 124.9 75.15 125.0 74.25 125.15 73.4 125.2 72.45 125.3 71.6 125.4 70.65 125.45 69.8 125.5 68.85 125.55 68.0 125.55 67.05 125.6 66.2 125.6 65.25 125.6 64.35 125.6 63.45 125.6 62.55 125.6 61.65 125.55 59.55 125.4 57.45 125.25 55.35 124.95 53.3 124.7 51.2 124.3 49.15 123.95 47.1 123.45 45.1 122.95 43.05 122.3 41.05 121.7 39.05 120.95 37.1 120.2 35.15 119.3 33.25 118.45 31.35 117.45 29.55 116.7 28.1 115.8 26.7 114.95 25.35 113.9 24.0 112.9 22.75 111.75 21.55 110.7 20.35 109.45 19.2 108.3 18.1 107.0 17.05 105.75 16.0 104.35 15.0 103.1 14.05 101.7 13.15 100.35 12.25 98.9 11.4 98.05 10.85 97.2 10.35 96.35 9.85 95.45 9.4 94.55 8.95 93.65 8.5 92.75 8.1 91.85 7.7 90.95 7.3 90.0 6.95 89.1 6.55 88.15 6.2 87.2 5.9 86.25 5.55 85.3 5.25 84.35 4.95 83.25 4.6 82.25 4.3 81.2 3.95 80.15 3.7 79.1 3.4 78.05 3.15 77.0 2.85 75.95 2.6 74.85 2.4 73.8 2.2 72.7 2.0 71.65 1.85 70.55 1.7 69.5 1.6 68.4 1.5 67.3 1.45 64.25 1.25 61.95 1.25 L61.95 1.25" fill="#ffccaa" fill-rule="evenodd" stroke="none"/>
  </g>
</svg>
