<?xml version="1.0" encoding="UTF-8" standalone="no"?>
<svg xmlns:xlink="http://www.w3.org/1999/xlink" height="50.55px" width="62.75px" xmlns="http://www.w3.org/2000/svg">
  <g transform="matrix(1.0, 0.0, 0.0, 1.0, 27.75, 28.25)">
    <path d="M8.0 -25.15 Q18.2 -23.2 21.75 -16.1 24.9 -9.75 23.95 -0.85 26.25 1.0 29.75 -0.55 32.9 -1.9 34.25 -9.0 28.55 -4.1 27.45 -8.65 25.55 -23.75 20.2 -26.3 13.4 -29.2 8.0 -25.15 L-1.65 -25.9 Q-20.05 -25.75 -24.8 -10.9 -29.6 3.9 -23.9 12.4 -18.2 20.9 -10.05 21.55 -20.35 11.0 -18.5 6.9 -16.4 2.3 -17.3 -4.35 -7.85 -6.75 -4.35 -14.6 -0.7 -3.95 9.75 -1.95 20.8 -0.95 19.3 18.75 20.9 14.25 21.55 9.95 23.1 -0.8 18.9 -10.25 M21.55 9.95 Q23.35 4.15 23.95 -0.85" fill="none" stroke="#000000" stroke-linecap="round" stroke-linejoin="round" stroke-width="1.5"/>
  </g>
</svg>
