<?xml version="1.0" encoding="UTF-8" standalone="no"?>
<svg xmlns:xlink="http://www.w3.org/1999/xlink" height="48.15px" width="53.4px" xmlns="http://www.w3.org/2000/svg">
  <g transform="matrix(1.0, 0.0, 0.0, 1.0, 26.7, 24.1)">
    <path d="M15.7 15.5 Q17.55 13.75 18.15 10.85 15.35 13.4 12.8 12.35 16.8 6.45 16.9 0.55 13.45 -1.45 11.75 -4.2 L13.05 0.55 Q7.9 -1.4 6.2 -6.25 6.35 -2.9 8.15 0.3 3.1 -0.3 0.05 -5.0 -3.1 -0.4 -8.05 0.2 -6.25 -3.0 -6.1 -6.35 -7.8 -1.5 -12.95 0.45 L-11.65 -4.3 Q-13.35 -1.55 -16.8 0.45 -16.7 6.35 -12.7 12.25 -15.25 13.3 -18.05 10.75 -17.45 13.65 -15.6 15.4 -13.4 17.4 -9.45 17.7 -10.35 18.85 -13.25 19.6 -11.45 21.2 -7.9 20.8 -11.05 24.25 -15.35 23.9 L-15.4 23.9 Q-22.15 23.4 -25.0 17.45 -28.0 9.85 -25.75 -4.05 -19.95 -25.6 0.0 -24.0 20.05 -25.5 25.85 -3.95 28.3 11.15 23.85 18.35 21.0 22.95 15.45 24.0 11.15 24.35 8.0 20.9 11.55 21.3 13.35 19.7 10.45 18.95 9.55 17.8 13.5 17.5 15.7 15.5" fill="#c3ec52" fill-rule="evenodd" stroke="none"/>
  </g>
</svg>
