<?xml version="1.0" encoding="UTF-8" standalone="no"?>
<svg xmlns:xlink="http://www.w3.org/1999/xlink" height="77.0px" width="42.5px" xmlns="http://www.w3.org/2000/svg">
  <g transform="matrix(1.0, 0.0, 0.0, 1.0, 21.25, 38.5)">
    <path d="M10.85 33.95 Q6.8 37.25 0.6 37.5 -12.35 36.95 -17.55 32.6 -22.75 28.2 -18.0 17.75 -13.5 8.0 -16.2 -0.5 -18.9 -9.05 -17.7 -14.7 -16.5 -20.4 -10.85 -23.15 -8.05 -24.7 -9.5 -35.75 -7.0 -37.7 -3.05 -37.5 1.7 -36.9 2.05 -33.9 2.0 -24.5 4.35 -22.65 5.6 -21.65 7.25 -20.6 13.2 -16.15 13.85 -6.0 14.85 3.15 17.05 10.75 19.25 18.35 19.85 22.1 20.45 25.8 20.1 27.9" fill="none" stroke="#54453c" stroke-linecap="round" stroke-linejoin="round" stroke-width="2.0"/>
    <path d="M5.85 11.55 Q5.85 11.55 5.7 12.85 5.5 14.2 5.4 14.85 5.3 15.3 5.25 15.7 5.25 16.1 5.25 16.45 5.3 16.75 5.35 17.05 5.4 17.3 5.5 17.5 5.55 17.7 5.65 17.85 5.7 18.0 5.8 18.1 5.85 18.2 5.9 18.25 5.95 18.3 5.95 18.3" fill="none" stroke="#ff0000" stroke-linecap="round" stroke-linejoin="round" stroke-opacity="0.5019608" stroke-width="1.0"/>
    <path d="M5.8 13.3 Q5.7 13.35 5.65 13.5 5.55 13.6 5.5 13.8 5.45 14.0 5.45 14.2 5.4 14.4 5.35 14.7 5.35 14.9 5.35 15.15 5.3 15.35 5.3 15.6 5.3 15.6 5.3 15.95 5.3 16.15 5.3 16.2 5.3 16.35 5.3 16.45 5.35 16.6 5.35 16.75 5.35 16.9 5.4 17.0 5.4 17.2 5.45 17.35 5.5 17.5 5.55 17.6 5.6 17.75 5.65 17.9 5.7 18.05 5.8 18.15 5.85 18.25 5.95 18.3 6.05 18.35 6.1 18.35 6.2 18.35 6.25 18.3 6.3 18.25 6.35 18.2 6.45 18.15 6.5 18.05 6.55 17.95 6.55 17.85 6.6 17.75 6.6 17.65 6.65 17.55 6.65 17.45 6.65 17.35 6.6 17.3 6.45 15.55 6.35 15.1 6.35 15.05 6.3 14.95 6.25 14.85 6.25 14.7 6.2 14.6 6.2 14.4 6.15 14.2 6.1 14.1 6.1 13.9 6.05 13.75 6.0 13.6 5.95 13.5 5.9 13.4 5.9 13.35 5.85 13.3 5.8 13.3 L5.8 13.3" fill="#ff0000" fill-opacity="0.2" fill-rule="evenodd" stroke="none"/>
    <path d="M5.8 13.3 Q5.7 13.35 5.65 13.5 5.55 13.6 5.5 13.8 5.45 14.0 5.45 14.2 5.4 14.4 5.35 14.7 5.35 14.9 5.35 15.15 5.3 15.35 5.3 15.6 5.3 15.6 5.3 15.95 5.3 16.15 5.3 16.2 5.3 16.35 5.3 16.45 5.35 16.6 5.35 16.75 5.35 16.9 5.4 17.0 5.4 17.2 5.45 17.35 5.5 17.5 5.55 17.6 5.6 17.75 5.65 17.9 5.7 18.05 5.8 18.15 5.85 18.25 5.95 18.3 6.05 18.35 6.1 18.35 6.2 18.35 6.25 18.3 6.3 18.25 6.35 18.2 6.45 18.15 6.5 18.05 6.55 17.95 6.55 17.85 6.6 17.75 6.6 17.65 6.65 17.55 6.65 17.45 6.65 17.35 6.6 17.3 6.45 15.55 6.35 15.1 6.35 15.05 6.3 14.95 6.25 14.85 6.25 14.7 6.2 14.6 6.2 14.4 6.15 14.2 6.1 14.1 6.1 13.9 6.05 13.75 6.0 13.6 5.95 13.5 5.9 13.4 5.9 13.35 5.85 13.3 5.8 13.3 L5.8 13.3 Z" fill="none" stroke="#ff0000" stroke-linecap="round" stroke-linejoin="round" stroke-opacity="0.2" stroke-width="0.05"/>
  </g>
</svg>
