<?xml version="1.0" encoding="UTF-8" standalone="no"?>
<svg xmlns:xlink="http://www.w3.org/1999/xlink" height="31.8px" width="34.05px" xmlns="http://www.w3.org/2000/svg">
  <g transform="matrix(1.0, 0.0, 0.0, 1.0, 13.2, 18.95)">
    <path d="M17.5 -8.25 Q18.95 -5.85 19.1 -3.6 L19.25 -0.15 Q18.55 -2.1 17.0 -4.25 0.65 -7.3 -12.55 0.9 -13.2 -1.05 -13.05 -3.2 -8.75 -7.3 -1.6 -9.5 6.6 -11.5 14.35 -9.45 L16.05 -8.8 17.35 -8.3 17.5 -8.25" fill="#000000" fill-opacity="0.32941177" fill-rule="evenodd" stroke="none"/>
    <path d="M7.15 -18.4 Q7.85 -18.45 8.55 -18.45 9.2 -18.45 9.85 -18.45 10.5 -18.4 11.1 -18.3 11.7 -18.25 12.25 -18.1 12.85 -18.0 13.4 -17.85 13.9 -17.7 14.4 -17.5 14.9 -17.3 15.35 -17.05 15.8 -16.8 16.25 -16.5" fill="none" stroke="#000000" stroke-linecap="round" stroke-linejoin="round" stroke-opacity="0.4392157" stroke-width="1.0"/>
  </g>
</svg>
