<?xml version="1.0" encoding="UTF-8" standalone="no"?>
<svg xmlns:xlink="http://www.w3.org/1999/xlink" height="680.9px" width="1309.8px" xmlns="http://www.w3.org/2000/svg">
  <g transform="matrix(1.0, 0.0, 0.0, 1.0, 1437.4, 392.05)">
    <path d="M-1437.4 -392.05 L-127.6 -392.05 -127.6 288.85 -1437.4 288.85 -1437.4 -392.05" fill="#6b3c88" fill-opacity="0.60784316" fill-rule="evenodd" stroke="none"/>
    <path d="M-414.75 -255.4 L-414.75 -250.35 -415.5 -250.35 -1168.15 -250.35 -1168.85 -250.35 -1168.85 -255.4 -414.75 -255.4" fill="#6b3c88" fill-opacity="0.60784316" fill-rule="evenodd" stroke="none"/>
    <path d="M-1168.85 -255.4 L-1168.85 -324.1 Q-1168.85 -338.55 -1154.25 -338.55 L-429.3 -338.55 Q-414.75 -338.55 -414.75 -324.1 L-414.75 -255.4 -1168.85 -255.4" fill="#d2a8ea" fill-opacity="0.9490196" fill-rule="evenodd" stroke="none"/>
    <path d="M-414.75 -250.35 L-414.75 206.1 -551.8 206.1 -1168.85 206.1 -1168.85 -250.35 -1168.15 -250.35 -415.5 -250.35 -414.75 -250.35" fill="#f5c3f3" fill-opacity="0.9490196" fill-rule="evenodd" stroke="none"/>
    <path d="M-414.9 214.9 Q-415.15 217.05 -415.85 218.75 -418.55 226.7 -429.3 226.7 L-1154.25 226.7 Q-1165.0 226.7 -1167.85 218.75 -1168.45 217.05 -1168.7 214.9 L-414.9 214.9" fill="#bfe5e7" fill-rule="evenodd" stroke="none"/>
    <path d="M-414.75 206.1 L-414.75 212.35 -414.9 214.9 -1168.7 214.9 -1168.85 212.35 -1168.85 206.1 -414.75 206.1" fill="#d2a8ea" fill-opacity="0.9490196" fill-rule="evenodd" stroke="none"/>
    <path d="M-1168.85 -255.4 L-1168.85 -324.1 Q-1168.85 -338.55 -1154.25 -338.55 L-429.3 -338.55 Q-414.75 -338.55 -414.75 -324.1 L-414.75 -255.4 -414.75 -250.35 -414.75 206.1 -414.75 212.35 -414.9 214.9 Q-415.15 217.05 -415.85 218.75 -418.55 226.7 -429.3 226.7 L-1154.25 226.7 Q-1165.0 226.7 -1167.85 218.75 -1168.45 217.05 -1168.7 214.9 L-1168.85 212.35 -1168.85 206.1 -1168.85 -250.35 -1168.85 -255.4 Z" fill="none" stroke="#9facbf" stroke-linecap="round" stroke-linejoin="round" stroke-width="1.0"/>
    <path d="M-1168.85 206.1 L-414.75 206.1" fill="none" stroke="#9daabd" stroke-linecap="round" stroke-linejoin="round" stroke-width="1.0"/>
    <path d="M-415.5 -250.35 L-758.25 -250.35 -1168.15 -250.35" fill="none" stroke="#b9c5e2" stroke-linecap="round" stroke-linejoin="round" stroke-width="1.0"/>
    <path d="M-745.1 -203.55 L-451.3 -203.55 Q-439.3 -203.55 -439.3 -191.6 L-439.3 -152.85 Q-439.3 -140.85 -451.3 -140.85 L-745.1 -140.85 Q-757.15 -140.85 -757.15 -152.85 L-757.15 -191.6 Q-757.15 -203.55 -745.1 -203.55" fill="#d2a8ea" fill-opacity="0.9490196" fill-rule="evenodd" stroke="none"/>
    <path d="M-745.1 -203.55 L-451.3 -203.55 Q-439.3 -203.55 -439.3 -191.6 L-439.3 -152.85 Q-439.3 -140.85 -451.3 -140.85 L-745.1 -140.85 Q-757.15 -140.85 -757.15 -152.85 L-757.15 -191.6 Q-757.15 -203.55 -745.1 -203.55 L-745.1 -203.55 Z" fill="none" stroke="#fffafe" stroke-linecap="round" stroke-linejoin="round" stroke-width="2.0"/>
  </g>
</svg>
