<?xml version="1.0" encoding="UTF-8" standalone="no"?>
<svg xmlns:xlink="http://www.w3.org/1999/xlink" height="447.4px" width="518.85px" xmlns="http://www.w3.org/2000/svg">
  <g transform="matrix(1.0, 0.0, 0.0, 1.0, 410.45, 178.65)">
    <path d="M-409.95 -120.6 L-409.95 -168.15 Q-409.95 -178.15 -399.9 -178.15 L97.85 -178.15 Q107.9 -178.15 107.9 -168.15 L107.9 -120.6 -409.95 -120.6" fill="#d2a8ea" fill-opacity="0.9490196" fill-rule="evenodd" stroke="none"/>
    <path d="M-409.45 -117.1 L-409.95 -117.1 -409.95 -120.6 107.9 -120.6 107.9 -117.1 107.4 -117.1 -409.45 -117.1" fill="#5835ac" fill-opacity="0.60784316" fill-rule="evenodd" stroke="none"/>
    <path d="M-409.95 254.0 L107.9 254.0 107.9 258.3 107.8 260.1 -409.85 260.1 -409.95 258.3 -409.95 254.0" fill="#5835ac" fill-opacity="0.60784316" fill-rule="evenodd" stroke="none"/>
    <path d="M107.8 260.1 L107.2 262.8 Q105.25 268.25 97.85 268.25 L-399.9 268.25 Q-407.3 268.25 -409.25 262.8 L-409.85 260.1 107.8 260.1" fill="#bfe5e7" fill-rule="evenodd" stroke="none"/>
    <path d="M-409.95 -117.1 L-409.45 -117.1 107.4 -117.1 107.9 -117.1 107.9 254.0 -409.95 254.0 -409.95 -117.1" fill="#f5c3f3" fill-opacity="0.9490196" fill-rule="evenodd" stroke="none"/>
    <path d="M107.4 -117.1 L-409.45 -117.1" fill="none" stroke="#b9c5e2" stroke-linecap="round" stroke-linejoin="round" stroke-width="1.0"/>
    <path d="M-409.95 254.0 L107.9 254.0" fill="none" stroke="#9daabd" stroke-linecap="round" stroke-linejoin="round" stroke-width="1.0"/>
    <path d="M-409.95 -117.1 L-409.95 254.0 -409.95 258.3 -409.85 260.1 -409.25 262.8 Q-407.3 268.25 -399.9 268.25 L97.85 268.25 Q105.25 268.25 107.2 262.8 L107.8 260.1 107.9 258.3 107.9 254.0 107.9 -117.1 107.9 -120.6 107.9 -168.15 Q107.9 -178.15 97.85 -178.15 L-399.9 -178.15 Q-409.95 -178.15 -409.95 -168.15 L-409.95 -120.6 -409.95 -117.1" fill="none" stroke="#bfe5e7" stroke-linecap="round" stroke-linejoin="round" stroke-width="1.0"/>
  </g>
</svg>
