<?xml version="1.0" encoding="UTF-8" standalone="no"?>
<svg xmlns:xlink="http://www.w3.org/1999/xlink" height="103.35px" width="253.6px" xmlns="http://www.w3.org/2000/svg">
  <g transform="matrix(1.0, 0.0, 0.0, 1.0, 126.8, 63.85)">
    <path d="M-126.3 -40.95 L-126.3 -63.35 73.95 -63.35 73.95 -63.3 73.95 -40.95 14.55 -40.95 -67.75 -40.95 -126.3 -40.95" fill="#d2a8ea" fill-opacity="0.9490196" fill-rule="evenodd" stroke="none"/>
    <path d="M-67.75 39.0 L-126.3 39.0 -126.3 -40.95 -67.75 -40.95 -67.75 39.0" fill="#f5c3f3" fill-opacity="0.9490196" fill-rule="evenodd" stroke="none"/>
    <path d="M73.95 -63.3 L126.3 -63.3 126.3 39.0 73.95 39.0 73.95 -40.95 73.95 -63.3" fill="#5835ac" fill-opacity="0.60784316" fill-rule="evenodd" stroke="none"/>
    <path d="M14.55 39.0 L-67.75 39.0 -67.75 -40.95 14.55 -40.95 14.55 39.0 M-66.25 37.5 L13.05 37.5 13.05 -39.45 -66.25 -39.45 -66.25 37.5" fill="#d2a8ea" fill-opacity="0.9490196" fill-rule="evenodd" stroke="none"/>
    <path d="M-66.25 37.5 L-66.25 -39.45 13.05 -39.45 13.05 37.5 -66.25 37.5" fill="#ffffff" fill-opacity="0.92941177" fill-rule="evenodd" stroke="none"/>
    <path d="M73.95 39.0 L14.55 39.0 14.55 -40.95 73.95 -40.95 73.95 39.0" fill="#8fb3e9" fill-opacity="0.54901963" fill-rule="evenodd" stroke="none"/>
    <path d="M-126.3 -40.95 L-67.75 -40.95 14.55 -40.95" fill="none" stroke="#8ebeff" stroke-linecap="round" stroke-linejoin="round" stroke-width="1.0"/>
    <path d="M73.95 39.0 L14.55 39.0 14.55 -40.95 73.95 -40.95 73.95 39.0" fill="none" stroke="#c6eaff" stroke-linecap="round" stroke-linejoin="round" stroke-width="1.0"/>
    <path d="M-92.6 -4.2 Q-91.75 -4.95 -90.45 -4.95 -89.25 -4.95 -88.3 -4.2 -87.4 -3.3 -87.4 -2.0 -87.4 -0.7 -88.3 0.2 L-88.3 0.25 Q-89.25 1.05 -90.45 1.05 -91.75 1.05 -92.6 0.2 L-92.6 0.25 Q-93.55 -0.7 -93.55 -2.0 -93.55 -3.3 -92.6 -4.2 M-109.05 -2.9 L-96.6 -15.05 Q-96.15 -15.5 -95.5 -15.5 L-94.2 -15.05 Q-93.75 -14.5 -93.75 -13.85 -93.75 -13.1 -94.3 -12.65 L-105.5 -1.7 -94.35 8.5 Q-93.75 9.0 -93.75 9.75 -93.75 10.4 -94.15 10.95 L-94.2 11.0 Q-94.6 11.45 -95.35 11.45 L-96.6 11.0 -109.15 -0.4 -109.2 -0.5 -109.55 -1.2 -109.55 -1.3 -109.55 -2.0 -109.55 -2.1 -109.05 -2.9" fill="#ffffff" fill-opacity="0.827451" fill-rule="evenodd" stroke="none"/>
    <path d="M39.15 -4.2 Q40.1 -3.3 40.1 -2.0 40.1 -0.7 39.15 0.25 L39.15 0.2 Q38.3 1.05 37.0 1.05 35.8 1.05 34.85 0.25 L34.85 0.2 Q33.95 -0.7 33.95 -2.0 33.95 -3.3 34.85 -4.2 35.8 -4.95 37.0 -4.95 38.3 -4.95 39.15 -4.2 M55.6 -2.9 L56.1 -2.1 56.1 -2.0 56.1 -1.3 56.1 -1.2 55.7 -0.5 55.65 -0.4 43.15 11.0 41.9 11.45 Q41.1 11.45 40.75 11.0 L40.7 10.95 Q40.3 10.4 40.3 9.75 40.3 9.0 40.9 8.5 L52.0 -1.7 40.8 -12.65 Q40.3 -13.1 40.3 -13.85 40.3 -14.5 40.75 -15.05 41.2 -15.5 42.0 -15.5 42.65 -15.5 43.15 -15.05 L55.6 -2.9" fill="#ffffff" fill-opacity="0.827451" fill-rule="evenodd" stroke="none"/>
    <path d="M-65.9 37.1 L-65.9 -39.1 12.6 -39.1 12.6 37.1 -65.9 37.1 -65.9 37.1 Z" fill="none" stroke="#8fb3e9" stroke-linecap="round" stroke-linejoin="round" stroke-width="1.0"/>
    <path d="M-126.3 -63.35 L126.3 -63.35 126.3 39.0 -126.3 39.0 -126.3 -63.35 -126.3 -63.35 Z" fill="none" stroke="#9dc0d0" stroke-linecap="round" stroke-linejoin="round" stroke-width="1.0"/>
  </g>
</svg>
