<?xml version="1.0" encoding="UTF-8" standalone="no"?>
<svg xmlns:xlink="http://www.w3.org/1999/xlink" height="494.5px" width="574.3px" xmlns="http://www.w3.org/2000/svg">
  <g transform="matrix(1.0, 0.0, 0.0, 1.0, 636.55, 124.05)">
    <path d="M-636.55 -124.05 L-62.25 -124.05 -62.25 370.45 -636.55 370.45 -636.55 -124.05" fill="#8f78d2" fill-opacity="0.65882355" fill-rule="evenodd" stroke="none"/>
    <path d="M-632.5 -40.95 L-633.0 -40.95 -633.0 -44.45 -115.15 -44.45 -115.15 -40.95 -115.65 -40.95 -632.5 -40.95" fill="#b796ea" fill-rule="evenodd" stroke="none"/>
    <path d="M-633.0 -44.45 L-633.0 -92.0 Q-633.0 -102.0 -622.95 -102.0 L-125.2 -102.0 Q-115.15 -102.0 -115.15 -92.0 L-115.15 -44.45 -633.0 -44.45" fill="#d2a8ea" fill-rule="evenodd" stroke="none"/>
    <path d="M-633.0 -40.95 L-632.5 -40.95 -115.65 -40.95 -115.15 -40.95 -115.15 330.15 -633.0 330.15 -633.0 -40.95" fill="#f5c3f3" fill-rule="evenodd" stroke="none"/>
    <path d="M-115.25 336.25 Q-115.4 337.75 -115.85 338.95 -117.8 344.4 -125.2 344.4 L-622.95 344.4 Q-630.35 344.4 -632.3 338.95 L-632.9 336.25 -115.25 336.25" fill="#8fb3e9" fill-opacity="0.8" fill-rule="evenodd" stroke="none"/>
    <path d="M-633.0 330.15 L-115.15 330.15 -115.15 334.45 -115.25 336.25 -632.9 336.25 -633.0 334.45 -633.0 330.15" fill="#8f78d2" fill-rule="evenodd" stroke="none"/>
    <path d="M-115.65 -40.95 L-632.5 -40.95" fill="none" stroke="#b9c5e2" stroke-linecap="round" stroke-linejoin="round" stroke-width="1.0"/>
    <path d="M-633.0 330.15 L-115.15 330.15" fill="none" stroke="#9daabd" stroke-linecap="round" stroke-linejoin="round" stroke-width="1.0"/>
    <path d="M-633.0 -40.95 L-633.0 330.15 -633.0 334.45 -632.9 336.25 -632.3 338.95 Q-630.35 344.4 -622.95 344.4 L-125.2 344.4 Q-117.8 344.4 -115.85 338.95 -115.4 337.75 -115.25 336.25 L-115.15 334.45 -115.15 330.15 -115.15 -40.95 -115.15 -44.45 -115.15 -92.0 Q-115.15 -102.0 -125.2 -102.0 L-622.95 -102.0 Q-633.0 -102.0 -633.0 -92.0 L-633.0 -44.45 -633.0 -40.95 Z" fill="none" stroke="#9facbf" stroke-linecap="round" stroke-linejoin="round" stroke-width="1.0"/>
  </g>
</svg>
