<?xml version="1.0" encoding="UTF-8" standalone="no"?>
<svg xmlns:xlink="http://www.w3.org/1999/xlink" height="123.1px" width="126.9px" xmlns="http://www.w3.org/2000/svg">
  <g transform="matrix(1.0, 0.0, 0.0, 1.0, 0.0, 0.0)">
    <path d="M60.95 1.9 Q59.8 1.85 58.6 1.9 57.45 1.95 56.3 2.05 55.15 2.1 54.0 2.25 52.85 2.4 51.7 2.6 50.55 2.8 49.4 3.05 48.25 3.3 47.1 3.55 46.0 3.85 44.85 4.15 43.75 4.5 42.6 4.85 40.85 5.4 39.1 6.1 37.4 6.8 35.75 7.55 34.05 8.35 32.45 9.25 30.8 10.15 29.25 11.1 27.7 12.1 26.15 13.15 24.65 14.25 23.2 15.4 21.75 16.55 20.35 17.75 19.0 19.0 17.65 20.3 16.25 21.75 14.95 23.35 13.7 24.95 12.6 26.65 11.5 28.35 10.55 30.2 9.6 31.95 8.75 33.85 8.0 35.7 7.3 37.65 6.65 39.6 6.15 41.55 5.65 43.55 5.25 45.55 4.9 47.55 4.65 49.55 4.5 50.9 4.35 52.3 4.25 53.65 4.15 55.0 4.1 56.4 4.05 57.75 4.05 59.15 4.05 60.5 4.1 61.85 4.15 63.25 4.25 64.6 4.35 65.95 4.5 67.35 4.65 68.7 4.85 70.05 5.1 71.4 5.4 73.3 5.7 75.05 6.1 76.9 6.5 78.7 6.95 80.55 7.45 82.3 7.95 84.1 8.55 85.8 9.2 87.6 9.9 89.3 10.65 91.0 11.45 92.65 12.35 94.3 13.3 95.85 14.3 97.45 15.4 98.95 16.05 99.85 16.85 100.75 17.6 101.6 18.45 102.4 19.25 103.2 20.15 103.95 21.0 104.7 21.95 105.4 22.85 106.05 23.85 106.7 24.8 107.35 25.8 107.95 26.75 108.55 27.8 109.15 28.7 109.7 29.8 110.3 30.75 110.85 31.75 111.35 32.75 111.85 33.7 112.3 34.7 112.75 35.75 113.2 36.75 113.65 37.75 114.05 38.8 114.45 39.8 114.8 40.85 115.2 41.9 115.55 42.95 115.85 44.0 116.15 45.05 116.45 46.1 116.75 47.7 117.2 49.3 117.55 50.9 117.95 52.5 118.3 54.1 118.7 55.7 119.0 57.35 119.3 58.95 119.55 60.6 119.85 62.2 120.05 63.85 120.25 65.5 120.45 67.15 120.6 68.75 120.7 70.4 120.8 72.05 120.85 72.75 120.85 73.55 120.9 74.15 120.95 75.0 121.0 78.75 121.2 76.5 121.1 77.35 121.15 78.0 121.15 78.8 121.2 79.5 121.2 80.25 121.25 80.95 121.25 81.75 121.2 82.45 121.2 83.2 121.15 83.95 121.05 83.2 121.15 86.2 120.7 87.5 120.5 88.4 120.35 89.65 120.1 90.65 119.95 91.85 119.7 92.9 119.5 94.05 119.25 95.1 119.0 96.25 118.75 97.3 118.4 98.4 118.1 99.45 117.75 100.55 117.35 101.6 116.95 102.05 116.75 103.15 116.3 104.2 115.9 104.75 115.7 105.6 115.35 106.3 115.05 107.15 114.7 107.9 114.35 108.7 114.0 109.45 113.65 110.25 113.25 110.95 112.9 111.75 112.5 112.45 112.05 113.2 111.6 113.9 111.15 114.65 110.65 115.3 110.15 116.0 109.6 116.65 109.05 117.35 108.45 117.95 107.85 118.6 107.25 119.2 106.6 119.8 105.95 120.35 105.3 120.9 104.6 121.35 103.85 121.85 103.15 122.25 102.35 122.65 101.6 123.0 100.8 123.25 100.1 123.45 99.4 123.65 98.7 123.75 97.95 123.85 97.25 123.9 96.45 123.95 95.75 123.95 95.0 123.9 94.3 123.9 93.5 123.85 92.85 123.75 92.05 123.7 91.4 123.6 90.6 123.6 90.5 123.45 89.1 123.4 88.45 123.4 87.85 123.35 87.2 123.3 86.6 123.3 85.95 123.25 85.35 123.25 84.7 123.25 84.1 123.25 83.45 123.25 82.85 123.25 82.2 123.3 81.6 123.35 80.95 123.35 80.35 123.4 79.7 123.5 79.1 123.55 78.75 123.65 78.4 123.7 78.1 123.8 77.7 123.85 77.45 123.95 77.0 124.1 76.5 124.15 76.3 124.25 75.9 124.35 75.6 124.4 75.25 124.45 74.9 124.55 74.55 124.6 74.2 124.65 73.8 124.65 73.45 124.9 71.1 125.0 68.85 125.1 66.5 125.15 64.2 125.15 61.85 125.0 59.55 124.9 57.2 124.65 54.9 124.4 52.6 124.05 50.35 123.65 48.0 123.1 45.8 122.55 43.5 121.9 41.3 121.15 39.05 120.3 36.95 119.9 35.85 119.45 34.85 119.0 33.8 118.55 32.8 118.05 31.75 117.55 30.8 117.05 29.75 116.5 28.8 115.9 27.8 115.35 26.9 114.7 25.95 114.05 25.05 113.4 24.15 112.65 23.3 111.95 22.4 111.15 21.65 110.15 20.55 109.0 19.5 107.95 18.5 106.75 17.5 105.6 16.55 104.4 15.6 103.2 14.7 101.95 13.85 100.7 13.0 99.4 12.2 98.1 11.45 96.8 10.7 95.45 10.0 94.1 9.3 92.75 8.65 91.4 8.0 90.4 7.6 89.4 7.25 88.4 6.85 87.4 6.5 86.4 6.15 85.4 5.8 84.4 5.5 83.4 5.15 82.35 4.85 81.35 4.55 80.35 4.25 79.3 3.95 78.3 3.7 77.25 3.45 76.25 3.15 75.2 2.9 74.45 2.75 73.65 2.6 72.85 2.5 72.05 2.4 71.3 2.3 70.5 2.2 69.7 2.1 68.9 2.05 68.1 2.0 67.3 1.95 66.55 1.9 65.75 1.9 64.95 1.9 64.15 1.85 63.35 1.85 62.55 1.9 62.05 1.9 60.95 1.9 L60.95 1.9" fill="#ffccaa" fill-rule="evenodd" stroke="none"/>
  </g>
</svg>
