<?xml version="1.0" encoding="UTF-8" standalone="no"?>
<svg xmlns:xlink="http://www.w3.org/1999/xlink" height="155.25px" width="126.9px" xmlns="http://www.w3.org/2000/svg">
  <g transform="matrix(1.0, 0.0, 0.0, 1.0, 0.0, 0.0)">
    <path d="M61.2 1.3 Q58.8 1.3 56.45 1.55 54.05 1.75 51.7 2.15 49.35 2.5 47.05 3.1 44.75 3.65 42.5 4.4 40.2 5.15 38.0 6.05 35.8 6.95 33.7 8.05 31.55 9.15 29.55 10.35 27.5 11.6 25.6 13.0 24.4 13.85 23.3 14.7 22.1 15.6 21.05 16.5 19.95 17.45 18.9 18.45 17.85 19.45 16.9 20.5 15.9 21.55 15.0 22.65 14.05 23.75 13.25 24.9 12.4 26.1 11.65 27.3 10.85 28.55 10.2 29.8 9.25 31.6 8.4 33.45 7.6 35.3 6.95 37.25 6.3 39.15 5.75 41.15 5.25 43.1 4.85 45.1 4.5 47.05 4.2 49.15 3.95 51.1 3.8 53.2 3.65 55.2 3.55 57.25 3.5 59.25 3.55 61.3 3.6 62.35 3.7 63.4 3.85 64.45 4.0 65.5 4.1 66.5 4.3 67.6 4.5 68.6 4.7 69.65 4.9 70.65 5.15 71.7 5.4 72.7 5.7 73.75 5.95 74.75 6.25 75.8 6.5 76.75 6.8 77.8 7.35 79.6 8.0 81.45 8.65 83.2 9.4 85.05 10.1 86.75 10.95 88.55 11.7 90.25 12.6 92.0 13.45 93.65 14.4 95.4 15.3 97.0 16.3 98.75 17.2 100.3 18.25 102.05 19.15 103.55 20.25 105.3 20.65 107.2 21.15 109.05 21.65 110.95 22.2 112.75 22.85 114.6 23.55 116.4 24.25 118.2 25.05 119.95 25.85 121.7 26.75 123.4 27.7 125.1 28.7 126.75 29.75 128.35 30.9 129.9 32.05 131.5 33.25 132.95 34.55 134.55 35.95 136.0 37.35 137.5 38.85 138.85 40.4 140.25 41.95 141.5 43.6 142.8 45.25 143.95 46.95 145.1 48.7 146.15 50.45 147.15 52.3 148.05 54.15 148.9 56.05 149.65 57.95 150.4 59.9 150.95 60.9 151.25 61.9 151.5 62.85 151.75 63.85 152.0 64.85 152.25 65.9 152.45 66.9 152.65 67.9 152.8 68.9 153.0 69.95 153.15 70.95 153.3 71.95 153.4 73.0 153.5 74.0 153.6 75.05 153.7 76.05 153.8 76.9 153.8 78.0 153.8 78.7 153.8 79.9 153.8 81.45 153.8 81.85 153.8 82.95 153.8 83.75 153.8 84.8 153.8 85.7 153.75 86.7 153.75 87.6 153.65 88.6 153.6 89.55 153.5 90.5 153.4 91.45 153.25 93.1 152.9 94.65 152.55 96.3 152.15 97.8 151.7 99.45 151.25 100.95 150.7 102.55 150.1 104.0 149.45 105.55 148.8 106.95 148.05 108.45 147.25 109.75 146.35 111.15 145.45 112.4 144.45 113.7 143.4 114.85 142.2 115.85 141.2 116.7 140.1 117.6 139.0 118.35 137.85 119.1 136.7 119.75 135.4 120.4 134.2 120.95 132.9 121.5 131.6 122.0 130.25 122.45 128.95 122.85 127.6 123.2 126.25 123.55 124.85 123.85 123.55 124.1 122.1 124.35 120.55 124.5 118.95 124.7 117.35 124.8 115.75 124.95 114.2 125.0 112.55 125.05 111.0 125.1 109.4 125.1 107.8 125.05 106.2 125.05 104.6 124.95 103.0 124.9 101.45 124.8 99.8 124.7 98.25 124.55 96.6 124.5 95.5 124.4 94.1 124.3 93.2 124.15 91.55 124.0 89.75 123.95 89.05 123.8 87.6 123.75 86.5 123.7 85.15 123.65 83.95 123.65 82.65 123.75 81.45 123.85 80.15 124.05 78.95 124.25 77.65 124.6 76.45 124.8 75.35 124.95 74.25 125.1 73.15 125.2 72.05 125.35 70.95 125.4 69.8 125.5 68.75 125.55 67.6 125.6 66.5 125.6 65.35 125.6 64.3 125.6 63.15 125.6 62.05 125.55 60.9 125.5 59.8 125.45 58.7 125.35 56.95 125.2 55.2 125.0 53.45 124.75 51.75 124.5 50.0 124.15 48.3 123.8 46.55 123.4 44.85 122.95 43.15 122.45 41.5 121.9 39.8 121.3 38.2 120.7 36.55 120.0 34.95 119.3 33.35 118.5 31.8 118.0 30.75 117.45 29.7 116.9 28.65 116.3 27.65 115.7 26.65 115.05 25.7 114.4 24.75 113.7 23.8 112.95 22.9 112.2 22.0 111.45 21.15 110.6 20.3 109.8 19.45 108.95 18.7 108.05 17.9 107.15 17.2 105.95 16.25 104.75 15.35 103.55 14.45 102.3 13.6 101.05 12.7 99.8 11.9 98.5 11.1 97.2 10.35 95.85 9.6 94.5 8.95 93.15 8.25 91.8 7.65 90.4 7.05 89.0 6.5 87.55 5.95 86.1 5.55 84.8 5.1 83.6 4.75 82.3 4.35 81.1 4.0 79.8 3.6 78.55 3.3 77.25 2.95 76.0 2.7 74.7 2.4 73.4 2.15 72.1 1.95 70.85 1.75 69.5 1.6 68.2 1.5 66.9 1.4 65.6 1.35 65.3 1.35 65.05 1.35 64.75 1.3 64.5 1.3 64.2 1.3 63.95 1.3 63.65 1.3 63.4 1.3 63.1 1.3 62.85 1.3 62.55 1.3 62.3 1.3 62.0 1.3 61.75 1.3 61.45 1.3 61.2 1.3 L61.2 1.3" fill="#ffccaa" fill-rule="evenodd" stroke="none"/>
  </g>
</svg>
