<?xml version="1.0" encoding="UTF-8" standalone="no"?>
<svg xmlns:xlink="http://www.w3.org/1999/xlink" height="134.5px" width="126.9px" xmlns="http://www.w3.org/2000/svg">
  <g transform="matrix(1.0, 0.0, 0.0, 1.0, 0.0, 0.0)">
    <path d="M18.5 103.5 L18.55 103.6 Q19.15 105.05 19.95 106.35 20.75 107.65 21.8 108.8 22.85 109.9 24.1 110.9 25.35 111.85 26.85 112.65 28.3 113.45 30.05 114.1 31.75 114.75 33.65 115.25 35.6 115.75 37.75 116.05 39.9 116.4 42.3 116.55 L44.05 116.65 Q45.2 117.1 46.35 117.55 47.5 118.0 48.65 118.45 49.8 118.95 50.9 119.4 52.05 119.9 53.15 120.4 54.25 120.9 55.4 121.4 56.5 121.95 57.6 122.45 58.7 123.0 59.8 123.55 60.85 124.1 61.95 124.65 L72.05 129.9 Q73.55 130.75 75.0 131.4 76.45 132.05 77.8 132.5 79.15 132.9 80.4 133.15 81.7 133.35 82.85 133.4 84.05 133.4 85.15 133.2 86.25 133.0 87.3 132.6 88.3 132.2 89.25 131.6 90.2 131.0 91.05 130.15 L97.4 125.0 Q98.05 124.45 98.8 123.95 99.55 123.4 100.4 122.9 101.25 122.35 102.15 121.85 103.1 121.35 104.15 120.8 105.15 120.3 106.25 119.8 107.4 119.25 108.6 118.75 109.8 118.25 111.1 117.75 112.4 117.25 113.8 116.75 115.2 116.25 116.4 115.7 117.6 115.15 118.65 114.5 119.7 113.9 120.6 113.2 121.45 112.55 122.15 111.8 122.85 111.05 123.4 110.25 123.9 109.45 124.25 108.6 124.6 107.75 124.8 106.85 125.0 105.95 125.0 104.95 125.1 97.1 124.5 92.55 124.3 91.05 124.15 89.7 124.05 88.35 123.95 87.1 123.85 85.85 123.85 84.7 123.85 83.55 123.85 82.5 123.9 81.5 124.0 80.55 124.1 79.65 124.25 78.8 124.4 78.0 124.6 77.3 124.8 76.6 125.05 76.0 125.45 72.7 125.65 69.55 125.85 66.35 125.8 63.3 125.8 60.25 125.6 57.25 125.35 54.3 124.9 51.5 124.5 48.65 123.85 45.9 123.2 43.15 122.35 40.55 121.5 37.9 120.45 35.4 119.4 32.9 118.15 30.5 117.4 28.85 116.4 27.25 115.45 25.7 114.3 24.15 113.1 22.65 111.75 21.15 110.4 19.7 108.85 18.3 107.25 16.9 105.5 15.55 103.75 14.2 101.8 12.9 99.8 11.6 97.65 10.4 95.5 9.15 93.15 8.0 L93.1 7.95 Q92.1 7.55 91.1 7.15 90.05 6.7 89.0 6.35 87.95 5.95 86.85 5.55 85.75 5.2 84.6 4.85 83.5 4.45 82.3 4.1 81.15 3.75 79.95 3.45 78.75 3.1 77.55 2.8 76.3 2.45 75.05 2.15 70.9 1.45 66.85 1.2 62.85 0.95 59.0 1.15 55.1 1.35 51.4 1.95 47.7 2.6 44.1 3.65 40.55 4.7 37.1 6.2 33.7 7.65 30.4 9.6 27.15 11.5 24.0 13.85 20.9 16.2 17.9 19.0 16.0 20.9 14.35 23.0 12.7 25.15 11.3 27.45 9.9 29.75 8.75 32.25 7.55 34.7 6.65 37.4 5.75 40.1 5.1 43.0 4.45 45.85 4.0 48.95 3.6 52.05 3.45 55.3 3.25 58.6 3.35 62.05 3.6 64.95 3.55 64.55 3.7 66.2 3.95 67.65 4.2 69.5 4.6 71.35 5.1 73.55 5.75 75.85 6.55 78.4 7.55 81.2 8.7 84.25 10.2 87.5 11.8 91.05 13.75 94.9 15.9 99.05 18.5 103.5" fill="none" stroke="#54453c" stroke-linecap="round" stroke-linejoin="round" stroke-width="2.2"/>
  </g>
</svg>
