<?xml version="1.0" encoding="UTF-8" standalone="no"?>
<svg xmlns:xlink="http://www.w3.org/1999/xlink" height="77.0px" width="42.5px" xmlns="http://www.w3.org/2000/svg">
  <g transform="matrix(1.0, 0.0, 0.0, 1.0, 0.0, 0.0)">
    <path d="M26.5 51.1 Q26.5 51.2 26.45 51.3 26.45 51.35 26.45 51.45 26.4 51.5 26.4 51.55 26.35 51.55 26.35 51.6 26.3 51.6 26.3 51.65 26.25 51.65 26.25 51.65 26.2 51.65 26.15 51.65 26.15 51.65 26.05 51.65 26.0 51.65 25.95 51.65 25.9 51.6 25.9 51.6 25.85 51.6 25.8 51.55 25.75 51.55 25.7 51.5 25.7 51.45 25.65 51.4 25.65 51.35 25.65 51.3 25.6 51.25 25.6 51.15 25.6 51.05 25.65 50.95 25.65 50.85 25.7 50.75 25.7 50.65 25.75 50.55 25.75 50.45 25.8 50.4 25.85 50.3 25.9 50.25 25.9 50.2 25.95 50.15 26.0 50.1 26.05 50.05 26.1 50.0 26.15 50.0 26.2 50.0 26.25 50.0 26.3 50.0 26.35 50.05 26.35 50.05 26.4 50.1 26.45 50.15 26.45 50.2 26.5 50.25 26.5 50.35 26.5 50.4 26.55 50.5 26.55 50.6 26.55 50.7 26.55 50.8 26.55 50.9 26.55 51.0 26.5 51.1 L26.5 51.1" fill="#ffffff" fill-opacity="0.19607843" fill-rule="evenodd" stroke="none"/>
  </g>
</svg>
