<?xml version="1.0" encoding="UTF-8" standalone="no"?>
<svg xmlns:xlink="http://www.w3.org/1999/xlink" height="38.55px" width="50.7px" xmlns="http://www.w3.org/2000/svg">
  <g transform="matrix(1.0, 0.0, 0.0, 1.0, 25.35, 19.3)">
    <path d="M11.5 -1.6 L11.45 -1.6 11.2 -1.1 Q10.0 1.4 7.5 2.9 8.4 -0.1 6.8 -0.95 L6.35 -0.4 Q5.15 2.1 2.65 3.6 3.55 0.6 3.15 -0.75 L3.15 -0.8 -3.15 -0.8 Q-3.55 0.6 -2.65 3.6 -5.15 2.1 -6.35 -0.4 L-6.8 -0.95 Q-8.4 -0.1 -7.5 2.9 -9.8 1.55 -11.0 -0.65 L-11.2 -1.1 -11.6 -1.6 -16.45 -2.35 Q-16.5 2.9 -18.35 7.2 L-20.6 9.55 -22.9 18.75 Q-25.45 14.05 -24.3 7.85 -24.35 5.4 -25.35 3.25 -24.75 -1.45 -22.5 -5.05 L-24.25 -5.05 Q-23.7 -7.05 -21.95 -8.3 -22.75 -11.25 -21.7 -14.25 -20.5 -11.4 -18.45 -11.3 -19.1 -14.1 -16.75 -16.4 L-13.15 -13.05 Q-13.7 -16.65 -10.95 -18.3 L-10.25 -14.7 Q-8.65 -15.95 -8.2 -18.5 -5.85 -16.8 -5.0 -15.15 -3.6 -15.85 -2.75 -19.3 -0.7 -18.7 0.0 -15.5 0.7 -18.7 2.75 -19.3 3.6 -15.85 5.0 -15.15 5.85 -16.8 8.2 -18.5 8.65 -15.95 10.25 -14.7 L10.95 -18.3 Q13.7 -16.65 13.15 -13.05 L16.75 -16.4 Q19.1 -14.1 18.45 -11.3 20.5 -11.4 21.7 -14.25 22.75 -11.25 21.95 -8.3 23.7 -7.05 24.25 -5.05 L22.5 -5.05 Q24.75 -1.45 25.35 3.25 24.35 5.4 24.3 7.85 25.7 14.1 21.65 19.25 L20.6 9.55 18.35 7.2 Q16.5 2.9 16.45 -2.35 L11.5 -1.6" fill="url(#gradient0)" fill-rule="evenodd" stroke="none"/>
  </g>
  <defs>
    <linearGradient gradientTransform="matrix(0.0, -0.0106, 0.0309, 0.0, 0.0, 4.95)" gradientUnits="userSpaceOnUse" id="gradient0" spreadMethod="pad" x1="-819.2" x2="819.2">
      <stop offset="0.18823529411764706" stop-color="#000000" stop-opacity="0.8"/>
      <stop offset="1.0" stop-color="#000000" stop-opacity="0.0"/>
    </linearGradient>
  </defs>
</svg>
