<?xml version="1.0" encoding="UTF-8" standalone="no"?>
<svg xmlns:xlink="http://www.w3.org/1999/xlink" height="200.0px" width="200.0px" xmlns="http://www.w3.org/2000/svg">
  <g transform="matrix(1.0, 0.0, 0.0, 1.0, 100.0, 100.0)">
    <path d="M-30.95 -26.25 Q-30.6 -26.25 -30.3 -26.2 -29.95 -26.15 -29.65 -26.1 -29.3 -26.05 -29.0 -26.0 -28.7 -25.9 -28.4 -25.8 -28.15 -25.7 -27.85 -25.6 -27.55 -25.5 -27.3 -25.35 -27.0 -25.25 -26.75 -25.1 -26.45 -24.95 -26.2 -24.8 -25.95 -24.65 -25.75 -24.55 -25.5 -24.45 -25.3 -24.35 -25.05 -24.25 -24.85 -24.2 -24.65 -24.1 -24.4 -24.1 -24.2 -24.05 -23.95 -24.05 -23.7 -24.05 -23.45 -24.05 -23.25 -24.1 -23.0 -24.15 -22.75 -24.25 -22.45 -24.35 -22.1 -24.5 -21.75 -24.6 -21.4 -24.75 -21.1 -24.75 -20.75 -24.8 -20.4 -24.8 -20.1 -24.8 -19.75 -24.7 -19.45 -24.65 -19.15 -24.5 -18.85 -24.35 -18.55 -24.2 -18.25 -24.0 -18.0 -23.8 -17.7 -23.55 -17.45 -23.25 -17.35 -23.15 -17.3 -23.1 -17.25 -23.05 -17.2 -23.05 -17.1 -23.0 -17.05 -23.0 -17.0 -23.0 -16.95 -23.0 -16.9 -23.0 -16.85 -23.0 -16.8 -23.05 -16.75 -23.1 -16.7 -23.15 -16.65 -23.2 -16.6 -23.25 -16.5 -23.3 -13.05 -27.05 -10.75 -29.35 -10.05 -30.0 -9.35 -30.7 -8.65 -31.35 -7.9 -32.0 -7.2 -32.6 -6.45 -33.25 -5.75 -33.85 -4.95 -34.5 -4.25 -35.05 -3.45 -35.7 -2.7 -36.25 -1.95 -36.85 -1.2 -37.4 -0.4 -38.0 0.35 -38.55 1.2 -39.15 7.25 -43.5 17.85 -49.15 19.45 -50.0 21.0 -50.8 22.6 -51.6 24.2 -52.35 25.8 -53.15 27.4 -53.9 29.0 -54.6 30.65 -55.3 32.25 -56.05 33.9 -56.7 35.55 -57.35 37.2 -58.0 38.85 -58.65 40.5 -59.25 42.2 -59.85 43.85 -60.4 44.7 -60.7 45.6 -60.95 46.45 -61.2 47.35 -61.45 48.2 -61.65 49.1 -61.85 49.95 -62.1 50.85 -62.25 51.75 -62.45 52.65 -62.65 53.5 -62.8 54.4 -62.95 55.3 -63.1 56.2 -63.25 57.1 -63.4 58.0 -63.5 58.55 -63.55 59.1 -63.6 59.6 -63.6 60.05 -63.55 60.55 -63.5 61.0 -63.4 61.4 -63.25 61.8 -63.1 62.2 -62.9 62.55 -62.65 62.95 -62.4 63.25 -62.05 63.6 -61.75 63.9 -61.35 64.2 -60.95 64.5 -60.5 64.8 -60.0 65.05 -59.55 65.3 -59.1 65.55 -58.65 65.8 -58.15 66.05 -57.7 66.3 -57.2 66.55 -56.75 66.75 -56.25 67.0 -55.75 67.2 -55.25 67.4 -54.8 67.6 -54.3 67.8 -53.8 67.95 -53.25 68.1 -52.75 68.25 -52.35 68.3 -51.95 68.35 -51.6 68.35 -51.25 68.35 -50.9 68.3 -50.6 68.2 -50.3 68.05 -50.05 67.9 -49.8 67.7 -49.6 67.45 -49.4 67.2 -49.2 66.9 -49.05 66.55 -48.95 66.15 -48.8 65.75 -48.75 62.1 -48.15 57.45 -47.0 56.35 -46.75 55.25 -46.45 54.15 -46.15 53.05 -45.85 52.0 -45.55 50.9 -45.2 49.85 -44.85 48.75 -44.5 47.7 -44.15 46.65 -43.75 45.6 -43.35 44.5 -42.95 43.5 -42.55 42.4 -42.15 41.4 -41.75 40.3 -41.3 38.85 -40.7 37.45 -40.05 36.05 -39.4 34.65 -38.7 33.25 -38.05 31.85 -37.3 30.5 -36.6 29.15 -35.8 27.8 -35.05 26.45 -34.25 25.1 -33.5 23.8 -32.65 22.5 -31.85 21.15 -30.95 19.85 -30.15 18.55 -29.25 17.25 -28.35 15.05 -26.75 12.55 -24.95 11.6 -24.25 11.5 -24.2 11.45 -24.15 11.4 -24.1 11.35 -24.05 11.35 -24.0 11.3 -23.95 11.3 -23.95 11.3 -23.9 11.3 -23.85 11.3 -23.8 11.3 -23.75 11.3 -23.7 11.35 -23.6 11.4 -23.55 11.4 -23.5 11.45 -23.4 11.6 -23.1 11.75 -22.8 11.9 -22.5 12.0 -22.25 12.15 -21.9 12.25 -21.65 12.35 -21.35 12.4 -21.05 12.5 -20.7 12.5 -20.4 12.55 -20.1 12.55 -19.75 12.55 -19.45 12.5 -19.1 12.4 -18.75 12.3 -18.4 12.25 -18.2 12.2 -17.95 12.2 -17.75 12.25 -17.55 12.3 -17.4 12.35 -17.2 12.45 -17.0 12.55 -16.8 12.65 -16.65 12.8 -16.5 12.9 -16.3 13.05 -16.15 13.2 -16.0 13.35 -15.85 13.45 -15.75 13.65 -15.55 14.3 -14.95 14.75 -14.35 15.25 -13.8 15.55 -13.2 15.85 -12.65 16.05 -12.1 16.2 -11.55 16.25 -10.95 16.25 -10.4 16.15 -9.85 16.05 -9.25 15.8 -8.65 15.55 -8.05 15.15 -7.4 14.8 -6.8 14.25 -6.1 14.0 -5.75 13.9 -5.6 13.75 -5.4 13.65 -5.25 13.55 -5.05 13.5 -4.9 13.45 -4.8 13.45 -4.65 13.45 -4.5 13.5 -4.35 13.55 -4.2 13.6 -4.05 13.7 -3.85 13.85 -3.6 13.95 -3.5 14.2 -3.1 14.45 -2.75 14.6 -2.45 14.8 -2.15 14.95 -1.85 15.15 -1.5 15.25 -1.2 15.4 -0.85 15.5 -0.55 15.6 -0.2 15.6 0.15 15.65 0.5 15.65 0.85 15.6 1.25 15.55 1.6 15.45 2.0 15.25 2.4 15.1 2.7 14.95 2.95 14.8 3.2 14.6 3.45 14.45 3.65 14.25 3.85 14.05 4.05 13.8 4.25 13.6 4.4 13.35 4.6 13.1 4.75 12.85 4.9 12.65 5.05 12.35 5.2 12.15 5.35 11.85 5.5 11.7 5.55 11.6 5.65 11.5 5.7 11.4 5.8 11.3 5.85 11.2 5.95 11.15 6.0 11.1 6.1 11.05 6.2 11.0 6.3 10.95 6.4 10.95 6.55 10.95 6.65 10.95 6.8 10.95 6.95 11.0 7.1 11.1 7.8 11.1 8.4 11.1 9.0 11.0 9.55 10.85 10.1 10.65 10.55 10.45 10.95 10.15 11.35 9.9 11.7 9.5 12.0 9.15 12.3 8.75 12.5 8.35 12.75 7.95 12.9 7.5 13.05 7.05 13.15 6.6 13.25 6.25 13.35 5.85 13.45 5.55 13.6 5.2 13.8 4.95 13.95 4.7 14.15 4.45 14.4 4.25 14.6 4.05 14.9 3.9 15.15 3.75 15.5 3.6 15.8 3.5 16.15 3.4 16.55 3.3 16.95 3.2 17.5 3.05 17.95 2.85 18.45 2.6 18.9 2.4 19.3 2.1 19.65 1.8 20.0 1.45 20.35 1.1 20.65 0.7 20.9 0.3 21.15 -0.15 21.35 -0.55 21.55 -1.05 21.7 -1.5 21.85 -2.05 21.95 -2.55 22.05 -3.0 22.2 -3.45 22.3 -3.85 22.5 -4.3 22.7 -4.7 22.9 -5.05 23.1 -5.45 23.4 -5.8 23.65 -6.15 23.9 -6.5 24.2 -6.8 24.55 -7.1 24.85 -7.45 25.2 -7.75 25.55 -8.05 25.95 -8.4 26.4 -8.85 26.7 -9.25 27.0 -9.75 27.2 -10.2 27.4 -10.75 27.45 -11.25 27.55 -11.8 27.5 -12.3 27.45 -12.8 27.3 -13.35 27.2 -13.8 26.95 -14.3 26.7 -14.7 26.4 -15.1 26.05 -15.45 25.65 -15.65 25.4 -15.85 25.2 -16.05 24.95 -16.25 24.75 -16.5 24.55 -16.7 24.35 -16.95 24.15 -17.15 24.0 -17.4 23.85 -17.65 23.75 -17.9 23.6 -18.2 23.55 -18.5 23.45 -18.8 23.4 -19.1 23.35 -19.45 23.35 -19.75 23.35 -20.0 23.35 -20.3 23.35 -20.6 23.3 -20.85 23.3 -21.15 23.25 -21.4 23.2 -21.7 23.2 -22.0 23.15 -22.25 23.05 -22.55 23.0 -22.8 22.95 -23.1 22.9 -23.35 22.8 -23.6 22.7 -23.9 22.65 -24.0 22.6 -24.1 22.6 -24.2 22.55 -24.25 22.55 -24.3 22.55 -24.4 22.6 -24.45 22.6 -24.5 22.65 -24.5 22.65 -24.55 22.7 -24.6 22.75 -24.65 22.8 -24.65 22.85 -24.7 22.95 -24.75 23.0 -24.75 23.1 -25.15 24.1 -25.5 25.0 -25.85 25.95 -26.15 26.9 -26.5 27.9 -26.75 28.8 -27.05 29.8 -27.3 30.75 -27.55 31.75 -27.8 32.7 -28.0 33.7 -28.15 34.7 -28.3 35.7 -28.4 36.7 -28.55 37.7 -28.6 38.7 -28.6 39.3 -28.75 39.75 -28.85 40.2 -29.05 40.55 -29.2 40.9 -29.45 41.15 -29.7 41.4 -30.0 41.55 -30.3 41.7 -30.65 41.75 -31.0 41.75 -31.35 41.7 -31.75 41.65 -32.15 41.55 -32.5 41.4 -32.95 41.15 -33.55 40.8 -34.15 40.45 -34.75 40.05 -35.3 39.65 -35.9 39.25 -36.4 38.85 -36.95 38.4 -37.45 37.95 -38.0 37.5 -38.45 37.0 -38.95 36.5 -39.4 35.95 -39.85 35.4 -40.3 34.85 -40.7 34.3 -41.1 33.7 -41.3 33.45 -41.4 33.15 -41.55 32.85 -41.65 32.6 -41.7 32.3 -41.75 32.0 -41.8 31.75 -41.8 31.45 -41.8 31.2 -41.75 30.9 -41.75 30.65 -41.7 30.35 -41.65 30.1 -41.6 29.75 -41.6 29.65 -41.5 29.2 -40.6 24.1 -37.25 14.35 -37.15 14.1 -37.1 13.85 -37.05 13.65 -37.05 13.4 -37.05 13.15 -37.05 12.9 -37.1 12.7 -37.1 12.45 -37.15 12.25 -37.2 12.0 -37.15 12.3 -37.3 11.55 -37.35 11.25 -37.4 11.05 -37.4 10.8 -37.45 10.6 -37.45 10.55 -37.5 10.45 -37.5 10.4 -37.55 10.35 -37.6 10.3 -37.65 10.3 -37.7 10.25 -37.75 10.2 -37.85 10.2 -37.9 10.15 -37.95 10.15 -38.05 10.1 -38.2 10.05 -38.2 10.05 -38.3 10.0 -38.35 10.0 -38.5 9.95 -38.75 9.85 -38.9 9.8 -39.1 9.75 -39.2 9.7 -39.5 9.6 -39.75 9.55 -39.85 9.5 -40.1 9.4 -40.25 9.35 -40.45 9.3 -40.65 9.2 -40.8 9.1 -41.0 9.0 -41.2 8.9 -41.35 8.8 -41.7 8.55 -42.0 8.25 -42.25 7.95 -42.5 7.65 -42.7 7.3 -42.9 6.95 -43.05 6.6 -43.15 6.25 -43.25 5.85 -43.3 5.5 -43.3 5.1 -43.3 4.7 -43.25 4.3 -43.15 3.9 -43.05 3.5 -42.85 3.1 -42.8 3.05 -42.1 0.95 -42.1 0.9 -42.05 0.8 -42.05 0.75 -42.05 0.65 -42.05 0.6 -42.1 0.55 -42.1 0.5 -42.1 0.4 -42.15 0.35 -42.15 0.3 -42.2 0.25 -42.25 0.2 -42.25 0.15 -42.3 0.1 -42.35 0.05 -42.4 0.0 -43.2 -0.85 -43.65 -1.2 -44.2 -1.6 -44.6 -2.05 -45.05 -2.5 -45.4 -2.95 -45.7 -3.45 -45.9 -3.95 -46.1 -4.45 -46.2 -4.95 -46.3 -5.5 -46.3 -6.0 -46.3 -6.55 -46.15 -7.1 -46.05 -7.65 -45.8 -8.2 -45.55 -8.8 -45.2 -9.35 -44.45 -10.4 -44.25 -10.8 -44.15 -11.0 -44.1 -11.15 -44.05 -11.35 -44.0 -11.55 -43.95 -11.7 -43.95 -11.9 -43.9 -12.1 -43.9 -12.25 -43.9 -12.45 -43.9 -12.65 -43.95 -12.8 -43.95 -13.0 -44.0 -13.2 -44.05 -13.35 -44.1 -13.55 -44.2 -13.75 -44.55 -14.6 -44.65 -15.4 -44.75 -16.2 -44.6 -17.0 -44.5 -17.75 -44.2 -18.45 -43.9 -19.1 -43.45 -19.75 -43.0 -20.3 -42.45 -20.85 -41.9 -21.35 -41.25 -21.75 -40.6 -22.15 -39.9 -22.4 -39.2 -22.65 -38.5 -22.8 -38.1 -22.9 -37.9 -22.9 -37.6 -23.0 -37.35 -23.05 -37.05 -23.1 -36.8 -23.2 -36.5 -23.25 -36.25 -23.35 -36.0 -23.5 -35.75 -23.6 -35.5 -23.75 -35.3 -23.9 -35.05 -24.1 -34.85 -24.3 -34.65 -24.55 -34.45 -24.8 -34.3 -25.0 -34.1 -25.2 -33.95 -25.35 -33.7 -25.5 -33.55 -25.6 -33.3 -25.7 -33.1 -25.85 -32.85 -25.9 -32.6 -26.0 -32.35 -26.05 -32.15 -26.1 -31.9 -26.15 -31.65 -26.2 -31.4 -26.2 -31.2 -26.25 -30.95 -26.25 L-30.95 -26.25 M-16.25 21.2 Q-16.05 21.35 -15.8 21.5 -15.6 21.65 -15.35 21.8 -15.2 21.95 -14.95 22.15 -15.05 22.05 -14.55 22.5 -14.3 22.75 -14.15 22.85 -13.9 23.05 -13.7 23.2 -13.45 23.35 -13.25 23.5 -13.0 23.65 -12.75 23.8 -12.5 23.95 -12.25 24.0 -12.0 24.1 -11.75 24.15 -11.5 24.2 -11.3 24.2 -11.05 24.2 -10.85 24.15 -10.65 24.1 -10.45 24.0 -10.25 23.9 -10.05 23.8 -9.85 23.65 -9.7 23.5 -9.5 23.3 -9.35 23.1 -9.2 23.05 -9.05 22.95 -8.95 22.85 -8.85 22.75 -8.7 22.65 -8.6 22.5 -8.5 22.4 -8.4 22.3 -8.35 22.25 -8.2 22.05 -8.1 21.9 -8.0 21.8 -7.9 21.7 -7.8 21.6 -7.7 21.45 -7.6 21.35 -7.4 21.15 -7.15 21.0 -6.9 20.8 -6.65 20.65 -6.4 20.5 -6.15 20.4 -5.9 20.25 -5.65 20.15 -5.4 20.0 -5.15 19.9 -4.9 19.8 -4.6 19.7 -4.35 19.65 -4.05 19.55 -3.75 19.5 -3.45 19.45 -2.9 19.35 -2.4 19.2 -1.95 19.05 -1.55 18.85 -1.15 18.7 -0.85 18.5 -0.5 18.25 -0.25 18.0 0.0 17.7 0.2 17.35 0.4 17.05 0.55 16.65 0.7 16.25 0.8 15.75 0.95 15.25 1.0 14.65 1.05 14.25 1.15 13.9 1.2 13.55 1.35 13.25 1.45 12.9 1.65 12.65 1.8 12.35 2.0 12.15 2.2 11.9 2.45 11.7 2.7 11.55 3.0 11.4 3.3 11.25 3.65 11.15 4.0 11.05 4.4 11.0 4.85 10.95 5.65 10.7 6.05 10.55 6.3 10.5 6.65 10.35 6.9 10.25 7.2 10.1 7.4 9.95 7.65 9.8 7.8 9.6 8.0 9.45 8.1 9.2 8.2 8.95 8.25 8.65 8.3 8.35 8.3 8.0 8.3 7.65 8.2 7.2 8.2 7.15 8.2 7.1 8.2 7.05 8.2 7.0 8.2 6.9 8.2 6.85 8.2 6.8 8.2 6.75 8.2 6.7 8.2 6.65 8.2 6.55 8.2 6.5 8.2 6.45 8.2 6.4 8.2 6.35 8.2 6.3 8.3 5.7 8.55 4.5 8.7 4.35 8.85 4.15 9.0 4.0 9.2 3.85 9.35 3.75 9.55 3.6 9.7 3.45 9.9 3.35 10.05 3.25 10.25 3.1 10.45 3.0 10.65 2.9 10.7 2.9 11.05 2.65 11.3 2.55 11.45 2.45 11.75 2.3 12.0 2.1 12.2 1.95 12.4 1.75 12.55 1.6 12.65 1.4 12.8 1.25 12.85 1.05 12.9 0.85 12.85 0.65 12.85 0.45 12.8 0.2 12.75 -0.05 12.6 -0.3 12.5 -0.55 12.3 -0.85 11.05 -2.95 10.8 -3.55 10.75 -3.7 10.75 -3.85 10.75 -4.0 10.7 -4.2 10.7 -4.35 10.7 -4.5 10.7 -4.65 10.7 -4.8 10.7 -5.0 10.7 -5.15 10.7 -5.3 10.7 -5.45 10.7 -5.6 10.7 -5.8 10.7 -5.9 10.7 -6.1 12.35 -8.4 12.85 -9.15 13.0 -9.4 13.1 -9.6 13.25 -9.85 13.3 -10.05 13.35 -10.3 13.4 -10.5 13.4 -10.75 13.4 -10.95 13.4 -11.2 13.3 -11.4 13.25 -11.65 13.15 -11.85 13.05 -12.05 12.9 -12.25 12.75 -12.5 12.55 -12.7 12.5 -12.75 12.15 -13.1 11.9 -13.4 11.75 -13.55 11.5 -13.8 11.35 -14.0 11.15 -14.2 10.95 -14.4 10.75 -14.65 10.6 -14.85 10.4 -15.1 10.25 -15.35 10.05 -15.6 9.9 -15.85 9.75 -16.1 9.6 -16.35 9.55 -16.55 9.55 -16.8 9.5 -17.0 9.5 -17.2 9.5 -17.4 9.5 -17.65 9.5 -17.85 9.55 -18.1 9.55 -18.45 9.55 -18.55 9.55 -18.8 9.55 -18.95 9.55 -19.2 9.55 -19.4 9.55 -19.65 9.5 -19.85 9.55 -20.1 9.55 -20.35 9.55 -20.6 9.5 -20.85 9.5 -21.05 9.4 -21.3 9.35 -21.5 9.25 -21.7 9.15 -21.9 9.0 -22.05 8.85 -22.25 8.7 -22.4 8.5 -22.6 8.3 -22.75 8.15 -22.9 7.9 -23.0 7.65 -23.15 7.4 -23.25 7.2 -23.4 6.95 -23.5 6.7 -23.6 6.45 -23.7 6.2 -23.75 5.95 -23.8 5.7 -23.85 5.45 -23.9 5.2 -23.9 4.9 -23.9 4.65 -23.85 4.4 -23.8 4.1 -23.75 3.85 -23.65 3.3 -23.7 1.55 -23.8 1.45 -23.85 1.3 -23.95 1.2 -24.0 1.05 -24.05 0.7 -24.2 0.75 -24.15 0.6 -24.25 0.5 -24.3 0.35 -24.35 0.25 -24.45 0.1 -24.5 0.0 -24.55 -0.1 -24.65 -0.25 -24.7 -0.35 -24.8 -0.45 -24.9 -0.7 -25.1 -0.95 -25.25 -1.15 -25.4 -1.4 -25.5 -1.65 -25.6 -1.85 -25.6 -2.1 -25.65 -2.35 -25.65 -2.6 -25.65 -2.8 -25.6 -3.05 -25.55 -3.3 -25.45 -3.5 -25.4 -3.75 -25.25 -4.0 -25.15 -4.25 -25.0 -4.45 -24.9 -4.6 -24.8 -4.8 -24.7 -4.95 -24.55 -5.1 -24.45 -5.3 -24.3 -5.45 -24.2 -5.6 -24.05 -5.75 -23.95 -5.9 -23.8 -6.05 -23.65 -6.2 -23.5 -6.35 -23.35 -6.5 -23.2 -6.65 -23.05 -6.8 -22.9 -7.45 -22.55 -8.8 -21.8 -9.15 -21.8 -10.3 -21.9 -11.25 -21.95 -11.8 -22.0 -11.95 -22.0 -12.05 -22.0 -12.15 -22.0 -12.25 -21.95 -12.4 -21.95 -12.5 -21.9 -12.6 -21.85 -12.7 -21.8 -12.75 -21.75 -12.85 -21.7 -12.95 -21.65 -13.05 -21.55 -13.1 -21.5 -13.2 -21.4 -13.3 -21.3 -13.35 -21.2 -13.45 -21.05 -13.6 -20.85 -13.65 -20.8 -13.85 -20.5 -14.0 -20.3 -14.1 -20.2 -14.25 -20.0 -14.35 -19.85 -14.5 -19.7 -14.6 -19.55 -14.75 -19.35 -14.9 -19.2 -15.05 -19.05 -15.2 -18.95 -15.4 -18.8 -15.55 -18.65 -15.7 -18.65 -15.8 -18.6 -15.9 -18.6 -16.05 -18.6 -16.15 -18.6 -16.3 -18.6 -16.4 -18.6 -16.5 -18.65 -16.65 -18.65 -16.75 -18.65 -16.85 -18.7 -17.0 -18.75 -17.1 -18.8 -17.2 -18.85 -17.3 -18.9 -17.45 -19.0 -17.55 -19.1 -18.05 -19.7 -18.45 -20.15 -18.65 -20.45 -18.9 -20.8 -19.05 -21.0 -19.25 -21.25 -19.45 -21.4 -19.6 -21.6 -19.75 -21.7 -19.95 -21.8 -20.1 -21.85 -20.3 -21.9 -20.5 -21.9 -20.65 -21.9 -20.9 -21.85 -21.15 -21.8 -21.45 -21.7 -21.7 -21.65 -22.05 -21.5 -22.25 -21.5 -22.45 -21.45 -22.6 -21.45 -22.8 -21.4 -22.9 -21.35 -23.2 -21.3 -23.4 -21.25 -23.55 -21.25 -23.75 -21.2 -23.9 -21.2 -24.1 -21.15 -24.3 -21.15 -24.5 -21.15 -24.65 -21.15 -24.85 -21.15 -25.05 -21.15 -28.45 -22.8 -29.15 -23.05 -29.35 -23.15 -29.55 -23.2 -29.75 -23.3 -29.95 -23.35 -30.15 -23.4 -30.35 -23.45 -30.55 -23.5 -30.75 -23.5 -31.0 -23.5 -31.2 -23.45 -31.4 -23.45 -31.6 -23.4 -31.8 -23.3 -32.0 -23.2 -32.2 -23.05 -32.35 -22.9 -32.55 -22.7 -34.3 -20.9 -34.4 -20.9 -34.5 -20.85 -34.6 -20.85 -34.7 -20.8 -34.75 -20.75 -34.85 -20.75 -34.95 -20.7 -35.05 -20.65 -35.15 -20.6 -35.2 -20.55 -35.3 -20.5 -35.4 -20.45 -35.45 -20.45 -35.55 -20.4 -35.65 -20.35 -35.75 -20.3 -35.95 -20.3 -36.3 -20.25 -36.8 -20.25 -36.9 -20.25 -37.6 -20.2 -38.2 -20.05 -38.85 -19.95 -39.35 -19.7 -39.85 -19.45 -40.25 -19.1 -40.65 -18.75 -40.95 -18.35 -41.25 -17.95 -41.45 -17.45 -41.6 -16.95 -41.65 -16.4 -41.7 -15.85 -41.65 -15.2 -41.55 -14.6 -41.35 -13.95 -41.3 -13.8 -41.05 -13.05 -41.05 -12.6 -41.05 -11.65 -41.1 -11.35 -41.2 -11.1 -41.25 -10.8 -41.35 -10.55 -41.45 -10.3 -41.6 -10.05 -41.7 -9.8 -41.85 -9.55 -41.95 -9.3 -42.1 -9.05 -42.25 -8.85 -42.4 -8.55 -42.45 -8.5 -42.7 -8.05 -42.85 -7.8 -43.0 -7.6 -43.15 -7.35 -43.25 -7.1 -43.35 -6.85 -43.4 -6.6 -43.5 -6.35 -43.5 -6.15 -43.5 -5.9 -43.5 -5.65 -43.45 -5.45 -43.4 -5.2 -43.3 -5.0 -43.2 -4.75 -43.1 -4.55 -42.9 -4.35 -42.75 -4.15 -42.55 -3.95 -42.25 -3.65 -39.95 -1.6 -39.85 -1.45 -39.8 -1.25 -39.75 -1.1 -39.7 -0.95 -39.65 -0.75 -39.6 -0.6 -39.55 -0.4 -39.5 -0.25 -39.5 -0.05 -39.45 0.15 -39.45 0.3 -39.4 0.5 -39.4 0.6 -39.4 0.85 -39.35 1.1 -39.35 1.2 -39.45 1.5 -39.85 2.7 -40.2 3.65 -40.35 4.25 -40.45 4.5 -40.45 4.75 -40.5 5.0 -40.5 5.2 -40.5 5.4 -40.45 5.6 -40.4 5.8 -40.3 5.95 -40.25 6.1 -40.1 6.25 -39.95 6.4 -39.8 6.5 -39.6 6.65 -39.4 6.75 -39.2 6.85 -38.9 6.95 -38.55 7.05 -36.2 7.8 -35.85 8.1 -34.75 9.5 -34.4 11.65 -34.4 11.65 -34.4 11.9 -34.35 12.1 -34.3 12.3 -34.25 12.5 -34.15 12.7 -34.05 12.85 -33.95 12.95 -33.8 13.1 -33.7 13.2 -33.55 13.3 -33.35 13.4 -33.2 13.45 -33.05 13.55 -32.85 13.6 -32.65 13.65 -32.45 13.65 -32.2 13.7 -32.0 13.75 -31.75 13.75 -31.55 13.8 -31.3 13.85 -31.1 13.85 -30.85 13.9 -30.65 13.9 -30.4 13.9 -30.2 13.9 -29.95 13.95 -29.7 13.95 -29.5 13.9 -29.25 13.9 -29.0 13.9 -28.8 13.85 -28.65 13.9 -28.5 13.95 -28.35 14.0 -28.2 14.1 -28.05 14.15 -27.95 14.2 -27.8 14.25 -27.65 14.35 -27.5 14.4 -27.4 14.5 -27.25 14.6 -27.15 14.7 -27.05 14.8 -26.9 14.9 -26.8 15.0 -26.7 15.1 -26.6 15.3 -26.2 16.2 -25.9 16.9 -25.7 17.3 -25.55 17.65 -25.35 17.95 -25.2 18.3 -25.0 18.55 -24.75 18.85 -24.55 19.1 -24.3 19.3 -24.05 19.5 -23.75 19.7 -23.45 19.85 -23.15 20.05 -22.85 20.15 -22.5 20.25 -22.15 20.3 -21.8 20.4 -21.4 20.4 -21.2 20.4 -18.3 20.45 -17.6 20.7 -16.25 21.2 L-16.25 21.2 M-12.0 -23.8 Q-11.65 -23.7 -11.3 -23.65 -10.95 -23.55 -10.65 -23.55 -10.35 -23.5 -10.05 -23.5 -9.7 -23.5 -9.45 -23.55 -9.15 -23.6 -8.85 -23.7 -8.55 -23.8 -8.3 -23.95 -8.0 -24.1 -7.75 -24.3 -7.5 -24.5 -7.25 -24.75 -7.1 -24.9 -7.0 -25.05 -6.85 -25.15 -6.7 -25.3 -6.55 -25.4 -6.4 -25.55 -6.25 -25.65 -6.1 -25.8 -5.95 -25.9 -5.75 -26.0 -5.6 -26.1 -5.45 -26.25 -5.25 -26.35 -5.1 -26.4 -4.95 -26.5 -4.75 -26.6 -4.4 -26.75 -4.1 -26.9 -3.75 -27.05 -3.4 -27.15 -3.1 -27.2 -2.75 -27.25 -2.45 -27.3 -2.1 -27.3 -1.8 -27.3 -1.5 -27.25 -1.15 -27.2 -0.85 -27.05 -0.5 -26.95 -0.2 -26.75 0.1 -26.55 0.4 -26.3 0.6 -26.15 0.8 -26.0 1.0 -25.85 1.2 -25.75 1.4 -25.65 1.6 -25.55 1.8 -25.45 2.05 -25.4 2.25 -25.35 2.5 -25.35 2.7 -25.3 2.95 -25.3 3.2 -25.3 3.4 -25.35 3.65 -25.35 3.9 -25.4 4.05 -25.45 4.25 -25.5 4.4 -25.5 4.6 -25.55 4.75 -25.55 4.95 -25.55 5.1 -25.55 5.3 -25.55 5.45 -25.55 5.65 -25.55 5.8 -25.5 5.95 -25.5 6.15 -25.45 6.3 -25.4 6.45 -25.35 6.65 -25.3 6.8 -25.25 6.95 -25.2 7.1 -25.2 7.25 -25.15 7.4 -25.15 7.5 -25.2 7.65 -25.2 7.75 -25.25 7.85 -25.25 8.0 -25.35 8.1 -25.4 8.25 -25.45 8.35 -25.5 8.45 -25.6 8.55 -25.7 8.7 -25.8 10.2 -26.95 11.65 -28.05 13.15 -29.15 14.65 -30.25 16.2 -31.3 17.7 -32.35 19.25 -33.4 20.8 -34.35 22.4 -35.35 23.95 -36.3 25.6 -37.25 27.2 -38.15 28.8 -39.05 30.45 -39.9 32.1 -40.8 33.8 -41.6 35.65 -42.5 37.45 -43.3 39.3 -44.1 41.15 -44.85 43.05 -45.6 44.9 -46.3 46.8 -47.0 48.7 -47.6 50.6 -48.25 52.55 -48.8 54.5 -49.35 56.4 -49.85 58.4 -50.35 60.35 -50.75 62.35 -51.15 64.35 -51.5 64.5 -51.5 64.65 -51.55 64.75 -51.6 64.85 -51.65 64.95 -51.65 65.05 -51.7 65.1 -51.8 65.15 -51.85 65.2 -51.9 65.2 -52.0 65.2 -52.1 65.2 -52.2 65.2 -52.3 65.15 -52.45 65.1 -52.55 65.05 -52.7 64.9 -53.15 64.7 -53.65 64.5 -54.1 64.3 -54.55 64.1 -55.0 63.85 -55.45 63.65 -55.9 63.4 -56.35 63.2 -56.8 62.95 -57.25 62.7 -57.65 62.4 -58.1 62.15 -58.5 61.9 -58.95 61.65 -59.35 61.35 -59.75 61.25 -59.85 61.2 -59.95 61.1 -60.05 61.0 -60.15 60.9 -60.25 60.8 -60.3 60.75 -60.35 60.6 -60.4 60.5 -60.45 60.4 -60.5 60.3 -60.55 60.2 -60.55 60.05 -60.55 59.95 -60.6 59.8 -60.6 59.65 -60.55 59.3 -60.55 58.95 -60.5 58.55 -60.45 58.2 -60.45 57.85 -60.4 57.5 -60.4 57.15 -60.35 56.75 -60.3 56.4 -60.25 56.05 -60.2 55.7 -60.2 55.35 -60.15 54.95 -60.05 54.6 -60.0 54.25 -59.95 53.9 -59.9 52.8 -59.7 51.7 -59.45 50.6 -59.25 49.5 -58.95 48.45 -58.7 47.35 -58.35 46.25 -58.05 45.2 -57.75 44.15 -57.4 43.05 -57.05 42.0 -56.7 40.95 -56.3 39.9 -55.9 38.85 -55.5 37.8 -55.1 36.75 -54.65 34.15 -53.6 31.75 -52.5 29.15 -51.4 26.75 -50.25 24.25 -49.1 21.85 -47.9 19.4 -46.65 17.05 -45.4 14.6 -44.05 12.3 -42.7 9.95 -41.3 7.7 -39.85 5.35 -38.35 3.15 -36.85 0.9 -35.25 -1.25 -33.6 -1.95 -33.05 -2.65 -32.5 -3.35 -31.9 -4.05 -31.35 -4.75 -30.75 -5.4 -30.15 -6.1 -29.55 -6.75 -28.95 -7.45 -28.35 -8.1 -27.7 -8.75 -27.1 -9.4 -26.45 -10.05 -25.8 -10.7 -25.15 -11.35 -24.45 -12.0 -23.8 L-12.0 -23.8 M-31.6 38.55 Q-31.55 37.65 -31.4 36.65 -31.3 35.7 -31.15 34.7 -31.0 33.7 -30.75 32.65 -30.55 31.6 -30.3 30.55 -30.05 29.45 -29.75 28.4 -29.4 27.3 -29.05 26.2 -28.7 25.1 -28.3 24.05 -27.9 22.95 -27.45 21.85 -27.3 21.5 -27.2 21.2 -27.1 20.9 -27.05 20.6 -26.95 20.3 -26.9 20.0 -26.9 19.7 -26.9 19.4 -26.9 19.1 -26.9 18.85 -26.95 18.55 -27.05 18.25 -27.1 17.95 -27.25 17.65 -27.35 17.35 -27.55 17.05 -27.65 16.85 -27.75 16.7 -27.85 16.5 -28.0 16.35 -28.1 16.25 -28.2 16.1 -28.35 16.0 -28.45 15.9 -28.6 15.8 -28.75 15.75 -28.9 15.65 -29.1 15.6 -29.25 15.55 -29.45 15.55 -29.65 15.5 -29.85 15.5 -35.3 15.5 -30.35 15.5 -30.65 15.5 -30.85 15.5 -31.15 15.5 -31.35 15.5 -31.65 15.45 -31.85 15.45 -32.15 15.4 -32.35 15.4 -32.6 15.35 -32.85 15.3 -33.1 15.2 -33.35 15.15 -33.6 15.05 -33.8 14.95 -33.9 14.9 -34.0 14.9 -34.05 14.85 -34.15 14.85 -34.2 14.85 -34.25 14.9 -34.3 14.9 -34.35 14.95 -34.35 15.0 -34.4 15.05 -34.4 15.05 -34.45 15.15 -34.45 15.2 -34.5 15.25 -34.55 15.55 -34.5 15.35 -34.75 16.15 -35.1 17.2 -35.25 17.65 -35.7 19.05 -36.05 20.2 -36.3 20.9 -36.6 21.95 -36.85 22.75 -37.15 23.75 -37.4 24.6 -37.7 25.6 -37.9 26.5 -38.15 27.45 -38.35 28.4 -38.55 29.35 -38.7 30.3 -38.7 30.25 -38.75 30.55 -38.75 30.65 -38.75 30.75 -38.75 30.9 -38.8 31.0 -38.8 31.1 -38.8 31.2 -38.8 31.35 -38.75 31.45 -38.75 31.55 -38.75 31.65 -38.7 31.8 -38.65 31.9 -38.6 32.0 -38.55 32.1 -38.25 32.6 -37.9 33.1 -37.55 33.55 -37.15 34.0 -36.75 34.45 -36.35 34.85 -35.95 35.25 -35.45 35.65 -35.05 36.05 -34.55 36.4 -34.1 36.8 -33.6 37.15 -33.15 37.5 -32.6 37.85 -32.2 38.2 -31.6 38.55 L-31.6 38.55" fill="#040404" fill-rule="evenodd" stroke="none"/>
    <path d="M9.6 -16.35 Q8.8 -15.15 7.15 -12.8 7.05 -12.85 7.0 -12.85 6.9 -12.9 6.85 -12.95 6.8 -13.0 6.8 -13.05 6.75 -13.1 6.7 -13.2 6.7 -13.25 6.7 -13.3 6.65 -13.4 6.65 -13.45 6.65 -13.5 6.6 -13.6 6.6 -13.7 6.6 -13.75 6.6 -13.95 6.65 -14.2 6.7 -14.4 6.8 -14.6 6.85 -14.8 6.95 -15.0 7.05 -15.2 7.15 -15.4 7.2 -15.6 7.35 -15.8 7.4 -15.95 7.55 -16.2 7.7 -16.5 7.75 -16.6 7.9 -16.8 7.95 -16.95 8.05 -17.1 8.15 -17.3 8.2 -17.5 8.3 -17.7 9.25 -19.75 8.5 -18.05 8.6 -18.3 8.65 -18.45 8.75 -18.65 8.85 -18.8 8.95 -19.0 9.05 -19.15 9.15 -19.35 9.25 -19.5 9.4 -19.7 9.5 -19.85 9.55 -19.65 9.55 -19.4 9.55 -19.2 9.55 -18.95 9.55 -18.8 9.55 -18.55 9.55 -18.45 9.55 -18.1 9.5 -17.85 9.5 -17.65 9.5 -17.4 9.5 -17.2 9.5 -17.0 9.55 -16.8 9.55 -16.55 9.6 -16.35 L9.6 -16.35" fill="#000000" fill-opacity="0.4" fill-rule="evenodd" stroke="none"/>
    <path d="M-16.65 -12.8 Q-16.6 -13.2 -16.6 -13.6 -16.65 -13.95 -16.65 -14.35 -16.7 -14.75 -16.75 -15.15 -16.8 -15.5 -16.85 -15.9 -16.95 -16.25 -17.0 -16.7 -17.35 -18.35 -17.15 -17.45 -17.25 -17.9 -17.3 -18.2 -17.4 -18.65 -17.45 -19.0 -17.35 -18.9 -17.2 -18.85 -17.1 -18.8 -17.0 -18.75 -16.9 -18.7 -16.75 -18.7 -16.65 -18.65 -16.5 -18.65 -16.4 -18.6 -16.3 -18.6 -16.15 -18.6 -16.05 -18.6 -15.9 -18.6 -15.8 -18.65 -15.7 -18.65 -15.55 -18.65 -15.65 -17.55 -15.6 -15.7 -15.5 -13.4 -15.5 -12.75 -15.6 -12.7 -15.65 -12.65 -15.75 -12.65 -15.8 -12.6 -15.9 -12.55 -15.95 -12.55 -16.0 -12.55 -16.1 -12.55 -16.15 -12.55 -16.25 -12.55 -16.3 -12.6 -16.4 -12.6 -16.45 -12.65 -16.5 -12.7 -16.6 -12.75 -16.65 -12.8 L-16.65 -12.8" fill="#000000" fill-opacity="0.4" fill-rule="evenodd" stroke="none"/>
    <path d="M0.5 -19.15 Q0.5 -19.45 0.55 -19.75 0.55 -20.05 0.6 -20.35 0.65 -20.6 0.75 -20.9 0.8 -21.2 0.85 -21.5 0.95 -21.75 1.0 -22.1 1.1 -22.35 1.2 -22.65 1.25 -22.9 1.35 -23.2 1.55 -23.85 1.55 -23.8 2.3 -23.75 3.85 -23.65 3.8 -23.5 3.7 -23.35 3.6 -23.25 3.5 -23.1 3.4 -23.0 3.3 -22.85 3.25 -22.8 3.05 -22.65 2.9 -22.5 2.85 -22.4 2.7 -22.25 2.65 -22.15 2.55 -22.0 2.45 -21.9 2.35 -21.75 2.3 -21.6 2.2 -21.4 2.15 -21.25 2.1 -21.05 2.0 -20.85 1.95 -20.7 1.9 -20.5 1.85 -20.3 1.8 -20.15 1.75 -19.95 1.75 -19.75 1.7 -19.55 1.7 -19.4 1.65 -19.2 1.65 -19.0 1.65 -18.8 1.7 -18.6 1.3 -18.8 0.5 -19.15 L0.5 -19.15" fill="#000000" fill-opacity="0.4" fill-rule="evenodd" stroke="none"/>
    <path d="M-15.95 18.6 Q-16.0 18.75 -16.05 18.9 -16.1 19.05 -16.15 19.25 -16.2 19.4 -16.25 19.55 -16.25 19.7 -16.3 19.85 -16.3 20.05 -16.3 20.2 -16.3 20.35 -16.3 20.55 -16.3 20.7 -16.3 20.85 -16.3 21.0 -16.25 21.2 -16.95 20.95 -18.3 20.45 -18.3 20.4 -18.25 20.1 -18.2 19.9 -18.2 19.75 -18.15 19.6 -18.15 19.45 -18.1 19.25 -18.05 19.1 -18.0 18.95 -17.95 18.75 -17.9 18.6 -17.85 18.45 -17.8 18.3 -17.7 18.15 -17.65 18.0 -17.55 17.85 -17.45 17.9 -17.35 17.9 -17.25 17.95 -17.1 17.95 -17.0 18.0 -16.9 18.05 -16.8 18.1 -16.7 18.15 -16.6 18.2 -16.5 18.25 -16.4 18.3 -16.35 18.35 -16.25 18.4 -16.15 18.45 -16.05 18.5 -15.95 18.6 L-15.95 18.6" fill="#000000" fill-opacity="0.4" fill-rule="evenodd" stroke="none"/>
    <path d="M-25.8 -18.8 Q-25.65 -18.9 -25.55 -19.05 -25.5 -19.2 -25.4 -19.35 -25.35 -19.45 -25.3 -19.6 -25.25 -19.75 -25.2 -19.9 -25.2 -20.05 -25.2 -20.25 -25.15 -20.3 -25.15 -20.55 -25.1 -20.75 -25.1 -20.85 -25.1 -21.05 -25.05 -21.15 -24.85 -21.15 -24.65 -21.15 -24.5 -21.15 -24.3 -21.15 -24.1 -21.15 -23.9 -21.2 -23.75 -21.2 -23.55 -21.25 -23.4 -21.25 -23.2 -21.3 -22.95 -21.35 -22.8 -21.4 -22.6 -21.4 -22.45 -21.45 -22.25 -21.45 -22.05 -21.5 -22.2 -21.35 -22.35 -21.15 -22.5 -21.0 -22.7 -20.75 -22.95 -20.5 -23.05 -20.4 -23.2 -20.2 -23.35 -20.05 -23.5 -19.85 -23.65 -19.65 -23.75 -19.45 -23.9 -19.25 -24.0 -19.05 -24.05 -18.8 -24.15 -18.55 -24.2 -18.3 -24.7 -18.5 -25.8 -18.8 L-25.8 -18.8" fill="#000000" fill-opacity="0.4" fill-rule="evenodd" stroke="none"/>
    <path d="M10.8 -3.55 Q10.65 -3.5 10.5 -3.45 10.4 -3.4 10.2 -3.3 10.0 -3.2 9.9 -3.15 9.75 -3.1 9.6 -3.05 9.45 -2.95 9.3 -2.9 9.1 -2.85 8.95 -2.85 8.8 -2.8 8.65 -2.8 8.45 -2.75 8.3 -2.8 8.35 -3.35 8.45 -4.45 8.65 -4.5 8.8 -4.55 8.95 -4.65 9.1 -4.75 9.25 -4.8 9.4 -4.95 9.5 -5.05 9.65 -5.2 9.7 -5.25 9.9 -5.45 10.05 -5.6 10.15 -5.65 10.3 -5.8 10.45 -5.9 10.6 -6.0 10.7 -6.1 10.65 -4.35 10.8 -3.55 L10.8 -3.55" fill="#000000" fill-opacity="0.4" fill-rule="evenodd" stroke="none"/>
    <path d="M-36.2 7.8 Q-36.1 7.65 -36.05 7.5 -35.95 7.35 -35.85 7.2 -35.8 7.1 -35.7 6.95 -35.6 6.8 -35.5 6.7 -35.35 6.55 -35.25 6.45 -35.15 6.3 -35.0 6.2 -34.9 6.1 -34.75 6.0 -34.6 5.9 -34.45 5.8 -34.4 5.85 -34.35 5.9 -34.25 5.95 -34.2 6.0 -34.15 6.05 -34.1 6.1 -34.05 6.15 -34.0 6.2 -33.95 6.25 -33.9 6.3 -33.85 6.4 -33.8 6.45 -33.75 6.5 -33.7 6.55 -33.65 6.65 -33.6 6.7 -33.75 6.85 -33.85 7.0 -33.95 7.15 -34.05 7.35 -34.1 7.5 -34.15 7.7 -34.25 7.85 -34.3 8.05 -34.35 8.2 -34.4 8.45 -34.45 8.7 -34.5 8.8 -34.55 9.0 -34.6 9.15 -34.7 9.35 -34.75 9.5 -35.85 8.1 -36.2 7.8 L-36.2 7.8" fill="#000000" fill-opacity="0.4" fill-rule="evenodd" stroke="none"/>
    <path d="M-9.35 23.1 Q-9.55 22.0 -9.9 19.9 -9.85 19.85 -9.8 19.8 -9.7 19.75 -9.65 19.7 -9.6 19.65 -9.5 19.6 -9.45 19.55 -9.35 19.55 -9.3 19.5 -9.2 19.45 -9.15 19.45 -9.05 19.4 -9.0 19.35 -8.9 19.35 -8.75 19.3 -8.75 19.3 -8.7 19.45 -8.65 19.6 -8.6 19.75 -8.55 19.85 -8.5 20.0 -8.45 20.15 -8.4 20.3 -8.3 20.4 -8.25 20.55 -8.15 20.65 -8.1 20.8 -8.0 20.9 -7.9 21.05 -7.8 21.15 -7.7 21.25 -7.6 21.35 -7.7 21.45 -7.8 21.55 -7.9 21.65 -8.0 21.8 -8.1 21.9 -8.2 22.05 -8.35 22.2 -8.4 22.3 -8.5 22.4 -8.6 22.5 -8.7 22.65 -8.8 22.75 -8.95 22.85 -9.05 22.95 -9.2 23.0 -9.35 23.1 L-9.35 23.1" fill="#000000" fill-opacity="0.4" fill-rule="evenodd" stroke="none"/>
    <path d="M-7.8 -19.5 Q-7.85 -19.65 -7.95 -19.8 -8.0 -19.9 -8.1 -20.05 -8.0 -19.9 -8.2 -20.35 -8.3 -20.5 -8.35 -20.65 -8.45 -20.8 -8.5 -20.9 -8.55 -21.05 -8.6 -21.2 -8.7 -21.35 -8.7 -21.5 -8.75 -21.65 -8.8 -21.8 -8.0 -22.25 -6.8 -22.9 -6.85 -21.9 -6.9 -19.85 -6.95 -19.8 -7.0 -19.75 -7.05 -19.7 -7.1 -19.65 -7.15 -19.6 -7.2 -19.6 -7.25 -19.6 -7.3 -19.55 -7.35 -19.55 -7.45 -19.55 -7.45 -19.55 -7.55 -19.55 -7.65 -19.55 -7.65 -19.55 -7.75 -19.55 -7.8 -19.5 L-7.8 -19.5" fill="#000000" fill-opacity="0.4" fill-rule="evenodd" stroke="none"/>
    <path d="M6.2 4.65 Q6.35 4.7 6.5 4.7 6.65 4.7 6.8 4.7 6.95 4.7 7.1 4.65 7.2 4.65 7.4 4.6 7.6 4.55 7.65 4.5 7.85 4.5 7.95 4.45 8.1 4.45 8.25 4.45 8.4 4.5 8.55 4.5 8.4 5.1 8.2 6.3 8.05 6.3 7.85 6.3 7.75 6.25 7.55 6.25 7.65 6.25 7.2 6.25 7.05 6.25 6.9 6.25 6.7 6.25 6.6 6.25 6.4 6.25 6.25 6.2 6.1 6.15 5.95 6.1 5.8 6.05 5.65 6.0 5.85 5.55 6.2 4.65 L6.2 4.65" fill="#000000" fill-opacity="0.4" fill-rule="evenodd" stroke="none"/>
    <path d="M-28.8 13.85 Q-28.75 13.7 -28.65 13.6 -28.6 13.5 -28.5 13.35 -28.4 13.25 -28.3 13.15 -28.1 12.95 -28.1 12.9 -27.95 12.8 -27.9 12.7 -27.8 12.55 -27.75 12.45 -27.65 12.3 -27.65 12.15 -27.6 12.0 -27.6 11.85 -27.55 11.9 -27.45 11.95 -27.4 12.0 -27.25 12.05 -27.15 12.1 -27.1 12.15 -27.0 12.2 -26.95 12.25 -26.85 12.3 -26.8 12.35 -26.7 12.4 -26.65 12.45 -26.6 12.55 -26.5 12.6 -26.45 12.7 -26.45 12.8 -26.55 12.95 -26.6 13.1 -26.65 13.2 -26.65 13.35 -26.7 13.5 -26.7 13.65 -26.7 13.8 -26.7 13.95 -26.7 14.05 -26.7 14.25 -28.35 -30.15 -26.7 14.55 -26.7 14.7 -26.7 14.85 -26.7 15.0 -26.7 15.1 -26.8 15.0 -26.9 14.9 -27.05 14.75 -27.15 14.7 -27.25 14.6 -27.4 14.5 -27.5 14.4 -27.65 14.35 -27.8 14.25 -27.95 14.2 -28.05 14.15 -28.2 14.1 -28.35 14.0 -28.5 13.95 -28.65 13.9 -28.8 13.85 L-28.8 13.85" fill="#000000" fill-opacity="0.4" fill-rule="evenodd" stroke="none"/>
    <path d="M-34.3 -20.9 Q-34.35 -20.75 -34.35 -20.55 -34.35 -20.4 -34.3 -20.2 -34.3 -20.05 -34.25 -19.85 -34.2 -19.7 -34.15 -19.5 -34.15 -19.5 -34.05 -19.2 -34.0 -19.0 -34.0 -18.85 -33.95 -18.65 -33.9 -18.5 -33.9 -18.35 -33.85 -18.2 -33.9 -18.15 -33.95 -18.1 -34.0 -18.05 -34.05 -18.0 -34.1 -17.95 -34.15 -17.9 -34.2 -17.85 -34.25 -17.85 -34.3 -17.8 -34.35 -17.75 -34.45 -17.75 -34.5 -17.7 -34.55 -17.7 -34.6 -17.7 -34.65 -17.65 -34.75 -17.65 -34.85 -17.85 -34.9 -17.95 -35.0 -18.15 -35.05 -18.3 -35.15 -18.45 -35.2 -18.6 -35.25 -18.75 -35.35 -18.95 -35.4 -19.1 -35.45 -19.25 -35.5 -19.45 -35.55 -19.6 -35.6 -19.75 -35.65 -19.95 -35.7 -20.1 -35.75 -20.3 -35.7 -20.3 -35.55 -20.4 -35.45 -20.45 -35.4 -20.5 -35.3 -20.55 -35.2 -20.55 -35.15 -20.6 -35.05 -20.65 -34.95 -20.7 -34.85 -20.75 -34.75 -20.75 -34.7 -20.8 -34.6 -20.8 -34.5 -20.85 -34.4 -20.85 -34.3 -20.9 L-34.3 -20.9" fill="#000000" fill-opacity="0.4" fill-rule="evenodd" stroke="none"/>
    <path d="M-38.05 -0.35 Q-38.1 -0.2 -38.1 -0.1 -38.15 0.05 -38.2 0.15 -38.3 0.25 -38.35 0.35 -38.4 0.5 -38.5 0.55 -38.6 0.65 -38.7 0.75 -38.8 0.85 -38.9 0.9 -39.0 1.0 -39.1 1.05 -39.2 1.15 -39.35 1.2 -39.35 1.2 -39.4 0.85 -39.4 0.6 -39.4 0.5 -39.45 0.3 -39.45 0.1 -39.5 -0.05 -39.5 -0.25 -39.55 -0.4 -39.6 -0.6 -39.65 -0.75 -39.7 -0.95 -39.75 -1.1 -39.8 -1.3 -39.85 -1.45 -39.95 -1.6 -39.4 -1.65 -38.35 -1.7 -38.35 -1.6 -38.3 -1.55 -38.25 -1.45 -38.25 -1.35 -38.15 -1.15 -38.15 -1.2 -38.1 -1.1 -38.1 -1.05 -38.05 -0.95 -38.05 -0.9 -38.05 -0.8 -38.0 -0.7 -38.0 -0.65 -38.0 -0.55 -38.0 -0.45 -38.05 -0.35 L-38.05 -0.35" fill="#000000" fill-opacity="0.4" fill-rule="evenodd" stroke="none"/>
    <path d="M-39.05 -10.9 Q-39.75 -11.15 -41.05 -11.65 -41.05 -12.1 -41.05 -13.05 -40.3 -12.7 -38.8 -11.9 -38.85 -11.55 -39.05 -10.9 L-39.05 -10.9" fill="#000000" fill-opacity="0.4" fill-rule="evenodd" stroke="none"/>
    <path d="M-39.05 -10.9 Q-38.95 -11.25 -38.8 -11.9 -38.65 -12.35 -38.45 -12.75 -38.3 -13.15 -38.1 -13.55 -37.9 -13.95 -37.65 -14.3 -37.4 -14.7 -37.15 -15.05 -36.9 -15.4 -36.65 -15.75 -36.35 -16.1 -36.05 -16.45 -35.75 -16.75 -35.45 -17.05 -35.1 -17.35 -34.75 -17.65 -34.7 -17.65 -34.6 -17.7 -34.55 -17.7 -34.5 -17.7 -34.45 -17.75 -34.35 -17.75 -34.3 -17.8 -34.25 -17.85 -34.2 -17.85 -34.15 -17.9 -34.1 -17.95 -34.05 -18.0 -34.0 -18.0 -33.95 -18.05 -33.9 -18.1 -33.85 -18.2 -33.35 -18.4 -32.85 -18.55 -32.4 -18.7 -31.9 -18.85 -31.4 -18.95 -30.9 -19.0 -30.4 -19.1 -29.85 -19.1 -29.35 -19.15 -28.85 -19.1 -28.35 -19.1 -27.85 -19.05 -27.35 -19.05 -26.8 -18.95 -26.3 -18.9 -25.8 -18.8 -25.25 -18.65 -24.2 -18.3 -23.75 -18.1 -23.3 -17.85 -22.85 -17.6 -22.4 -17.35 -21.95 -17.1 -21.5 -16.85 -21.1 -16.55 -20.7 -16.25 -20.3 -15.95 -19.9 -15.65 -19.5 -15.35 -19.1 -15.0 -18.7 -14.7 -18.35 -14.35 -17.95 -14.0 -17.6 -13.65 -17.55 -13.6 -17.5 -13.55 -17.45 -13.5 -17.4 -13.4 -17.3 -13.3 -17.3 -13.3 -17.25 -13.2 -17.2 -13.15 -17.15 -13.1 -17.05 -13.05 -17.0 -13.0 -16.95 -12.95 -16.9 -12.9 -16.8 -12.9 -16.75 -12.85 -16.65 -12.8 -16.6 -12.75 -16.5 -12.7 -16.45 -12.65 -16.4 -12.6 -16.3 -12.55 -16.25 -12.55 -16.15 -12.55 -16.1 -12.55 -16.0 -12.55 -15.95 -12.55 -15.9 -12.6 -15.8 -12.6 -15.75 -12.65 -15.65 -12.7 -15.6 -12.7 -15.5 -12.75 -15.4 -12.75 -15.3 -12.8 -15.2 -12.85 -15.15 -12.9 -15.05 -12.9 -14.95 -13.0 -14.9 -13.05 -14.85 -13.1 -14.75 -13.15 -14.7 -13.25 -14.65 -13.3 -14.6 -13.4 -14.55 -13.45 -14.5 -13.55 -14.45 -13.6 -14.4 -13.7 -14.1 -14.2 -13.75 -14.65 -13.4 -15.1 -13.05 -15.5 -12.7 -15.95 -12.3 -16.35 -11.95 -16.75 -11.5 -17.1 -11.1 -17.45 -10.7 -17.8 -10.25 -18.15 -9.8 -18.45 -9.3 -18.75 -8.8 -19.0 -8.3 -19.3 -7.8 -19.5 -7.75 -19.5 -7.7 -19.55 -7.65 -19.55 -7.55 -19.55 -6.4 -19.65 -7.45 -19.55 -7.35 -19.55 -7.3 -19.55 -7.25 -19.6 -7.2 -19.6 -7.15 -19.6 -7.1 -19.65 -7.05 -19.65 -7.0 -19.7 -6.95 -19.75 -6.9 -19.85 -6.45 -19.9 -5.95 -19.95 -5.5 -19.95 -5.0 -19.95 -4.55 -19.95 -4.1 -19.95 -3.65 -19.9 -3.15 -19.85 -2.7 -19.8 -2.25 -19.7 -1.8 -19.65 -1.3 -19.55 -0.85 -19.45 -0.4 -19.35 0.05 -19.25 0.5 -19.15 0.9 -18.95 1.7 -18.6 2.1 -18.4 2.45 -18.15 2.85 -17.9 3.2 -17.65 3.5 -17.4 3.85 -17.1 4.15 -16.8 4.45 -16.5 4.75 -16.2 5.05 -15.85 5.3 -15.55 5.6 -15.2 5.85 -14.85 6.1 -14.45 6.35 -14.1 6.6 -13.75 6.6 -13.7 6.6 -13.6 6.65 -13.5 6.65 -13.45 6.65 -13.4 6.7 -13.35 6.7 -13.25 6.7 -13.2 6.75 -13.15 6.8 -13.05 6.8 -13.0 6.85 -12.95 6.9 -12.9 7.0 -12.9 7.05 -12.85 7.15 -12.8 7.2 -12.5 7.3 -12.1 7.35 -11.8 7.45 -11.45 7.5 -11.15 7.65 -10.75 7.8 -10.2 7.8 -10.1 7.9 -9.7 8.0 -9.4 8.1 -9.05 8.15 -8.7 8.2 -8.35 8.25 -8.05 8.3 -7.65 8.3 -7.3 8.4 -5.35 8.45 -4.45 8.4 -3.9 8.3 -2.8 8.2 -2.3 8.15 -1.85 8.05 -1.35 7.95 -0.9 7.85 -0.4 7.7 0.05 7.6 0.55 7.45 1.0 7.35 1.45 7.2 1.9 7.05 2.4 6.9 2.85 6.75 3.3 6.6 3.75 6.4 4.2 6.2 4.65 6.05 5.1 5.65 6.0 5.85 5.7 3.8 8.85 2.7 10.55 1.85 11.65 1.6 12.0 1.3 12.3 1.0 12.6 0.75 12.9 0.45 13.25 0.15 13.5 -0.15 13.8 -0.5 14.1 -0.8 14.4 -1.15 14.65 -1.5 14.9 -1.85 15.15 -2.2 15.4 -2.55 15.65 -2.9 15.85 -3.3 16.1 -4.35 16.7 -6.0 17.7 -8.45 19.1 -8.75 19.3 -8.85 19.35 -8.9 19.35 -9.0 19.4 -9.05 19.4 -9.15 19.45 -9.2 19.45 -9.3 19.5 -9.35 19.55 -9.45 19.55 -9.5 19.6 -9.6 19.65 -9.65 19.7 -9.75 19.75 -9.8 19.8 -9.85 19.85 -9.9 19.9 -10.15 20.05 -10.45 20.15 -10.7 20.25 -11.0 20.3 -11.25 20.3 -11.5 20.3 -11.75 20.3 -12.0 20.25 -12.25 20.2 -12.5 20.1 -12.75 20.0 -13.0 19.9 -13.2 19.8 -13.5 19.7 -13.65 19.6 -14.0 19.45 -14.2 19.35 -15.95 18.6 -16.05 18.55 -16.15 18.45 -16.25 18.4 -16.3 18.35 -16.4 18.3 -16.5 18.25 -16.6 18.2 -16.7 18.15 -16.8 18.1 -16.9 18.05 -17.0 18.0 -17.1 17.95 -17.2 17.95 -17.35 17.9 -17.45 17.85 -17.55 17.85 -20.5 16.15 -26.45 12.8 -26.5 12.7 -26.55 12.6 -26.6 12.55 -26.65 12.45 -26.7 12.4 -26.8 12.35 -26.85 12.3 -26.95 12.25 -27.0 12.2 -27.1 12.15 -27.15 12.1 -27.25 12.05 -27.35 12.0 -27.45 11.95 -27.5 11.9 -27.6 11.85 -28.0 11.55 -28.4 11.25 -28.8 10.95 -29.15 10.65 -29.55 10.35 -29.95 10.0 -30.3 9.7 -30.7 9.35 -31.05 9.05 -31.45 8.7 -31.8 8.4 -32.2 8.05 -32.55 7.75 -32.9 7.4 -33.25 7.05 -33.6 6.7 -33.65 6.65 -33.7 6.55 -33.75 6.5 -33.8 6.45 -33.85 6.35 -33.9 6.3 -33.95 6.25 -34.0 6.2 -34.05 6.15 -34.1 6.1 -34.15 6.05 -34.2 6.0 -34.3 5.95 -34.35 5.9 -34.4 5.85 -34.45 5.8 -35.85 4.05 -38.05 -0.35 -38.0 -0.45 -38.0 -0.55 -38.0 -0.6 -38.0 -0.7 -38.05 -0.8 -38.05 -0.9 -38.05 -0.95 -38.1 -1.05 -38.1 -1.1 -38.15 -1.2 -38.15 -1.15 -38.2 -1.35 -38.25 -1.45 -38.3 -1.5 -38.3 -1.6 -38.35 -1.7 -38.5 -2.3 -38.65 -2.85 -38.8 -3.4 -38.95 -3.95 -39.05 -4.55 -39.15 -5.1 -39.2 -5.7 -39.3 -6.25 -39.35 -6.85 -39.35 -7.4 -39.35 -8.0 -39.35 -8.55 -39.3 -9.15 -39.25 -9.75 -39.15 -10.35 -39.05 -10.9 L-39.05 -10.9 M6.45 -5.3 Q6.45 -5.65 6.45 -5.95 6.45 -6.3 6.4 -6.6 6.4 -6.95 6.35 -7.25 6.3 -7.6 6.25 -7.9 6.2 -8.25 6.15 -8.55 6.05 -8.85 6.0 -9.2 5.95 -9.5 5.85 -9.85 5.75 -10.15 5.65 -10.45 5.4 -11.3 5.1 -12.0 4.75 -12.75 4.35 -13.4 3.95 -14.05 3.5 -14.6 3.0 -15.15 2.45 -15.65 1.9 -16.1 1.3 -16.45 0.65 -16.85 -0.05 -17.1 -0.75 -17.4 -1.55 -17.6 -2.35 -17.8 -3.2 -17.9 -3.9 -18.0 -4.6 -17.95 -5.25 -17.95 -5.9 -17.85 -6.5 -17.75 -7.05 -17.55 -7.65 -17.35 -8.2 -17.05 -8.7 -16.8 -9.2 -16.4 -9.7 -16.05 -10.15 -15.65 -10.6 -15.2 -11.05 -14.75 -11.5 -14.25 -11.9 -13.7 -12.35 -13.1 -13.0 -12.1 -13.95 -10.65 -14.1 -10.45 -14.3 -10.15 -14.5 -9.9 -14.7 -9.7 -14.9 -9.5 -15.05 -9.35 -15.25 -9.3 -15.45 -9.2 -15.65 -9.2 -15.85 -9.15 -16.05 -9.2 -16.25 -9.25 -16.45 -9.4 -16.65 -9.55 -16.9 -9.75 -17.1 -9.9 -17.35 -10.2 -17.4 -10.25 -17.4 -10.25 -17.45 -10.3 -17.45 -10.35 -17.5 -10.35 -17.5 -10.4 -17.55 -10.4 -17.55 -10.45 -17.85 -10.85 -18.15 -11.25 -18.45 -11.6 -18.75 -11.95 -19.1 -12.3 -19.45 -12.65 -19.75 -13.0 -20.15 -13.3 -20.5 -13.6 -20.85 -13.9 -21.25 -14.2 -21.65 -14.5 -22.0 -14.75 -22.4 -15.05 -22.8 -15.3 -23.2 -15.55 -23.7 -15.85 -24.15 -16.1 -24.65 -16.35 -25.15 -16.55 -25.65 -16.7 -26.2 -16.85 -26.7 -17.0 -27.2 -17.05 -27.75 -17.15 -28.25 -17.15 -28.8 -17.2 -29.3 -17.15 -29.85 -17.15 -30.4 -17.05 -30.9 -17.0 -31.45 -16.85 -32.05 -16.7 -32.65 -16.45 -33.2 -16.15 -33.75 -15.8 -34.3 -15.4 -34.75 -14.9 -35.25 -14.45 -35.65 -13.9 -36.05 -13.3 -36.35 -12.7 -36.65 -12.05 -36.9 -11.4 -37.1 -10.7 -37.2 -10.0 -37.35 -9.3 -37.35 -8.6 -37.35 -7.4 -37.25 -6.25 -37.15 -5.1 -36.9 -4.0 -36.65 -2.9 -36.35 -1.85 -36.0 -0.8 -35.55 0.15 -35.1 1.15 -34.5 2.1 -33.95 3.05 -33.25 3.95 -32.6 4.85 -31.8 5.65 -31.0 6.5 -30.1 7.3 -29.1 8.15 -28.05 8.95 -27.0 9.75 -25.9 10.5 -24.85 11.25 -23.7 11.95 -22.65 12.65 -21.5 13.35 -20.4 13.95 -19.2 14.6 -18.05 15.2 -16.85 15.8 -15.75 16.4 -14.5 17.0 -13.4 17.5 -12.1 18.1 -12.0 18.15 -11.9 18.2 -11.85 18.2 -11.75 18.2 -11.65 18.25 -11.6 18.25 -11.5 18.25 -11.45 18.25 -11.35 18.2 -11.3 18.2 -11.2 18.2 -11.15 18.15 -11.05 18.15 -11.0 18.1 -10.95 18.05 -10.85 18.05 -10.5 17.9 -10.1 17.7 -9.75 17.5 -9.4 17.35 -9.05 17.15 -8.65 16.95 -8.3 16.75 -7.95 16.55 -7.6 16.35 -7.25 16.15 -6.9 15.95 -6.55 15.75 -6.2 15.55 -5.85 15.35 -5.5 15.1 -5.2 14.9 -3.8 14.0 -2.6 13.05 -1.4 12.05 -0.35 10.95 0.7 9.9 1.55 8.7 2.45 7.55 3.15 6.25 3.85 5.0 4.4 3.65 5.0 2.3 5.4 0.8 5.8 -0.6 6.05 -2.15 6.3 -3.65 6.45 -5.3 L6.45 -5.3" fill="#040404" fill-rule="evenodd" stroke="none"/>
  </g>
</svg>
