<?xml version="1.0" encoding="UTF-8" standalone="no"?>
<svg xmlns:xlink="http://www.w3.org/1999/xlink" height="61.1px" width="32.25px" xmlns="http://www.w3.org/2000/svg">
  <g transform="matrix(1.0, 0.0, 0.0, 1.0, 16.1, 30.55)">
    <path d="M4.65 30.55 Q0.25 30.3 -1.1 30.05 -4.1 29.55 -5.05 29.45 -5.35 29.45 -5.6 29.35 -5.9 29.3 -6.15 29.25 -6.4 29.15 -6.6 29.05 -6.85 28.95 -7.05 28.8 -7.3 28.65 -7.45 28.5 -7.65 28.35 -7.85 28.15 -8.0 27.95 -8.2 27.7 -8.35 27.45 -8.5 27.2 -8.8 26.65 -9.05 26.15 -9.35 25.6 -9.55 25.1 -9.85 24.5 -10.05 24.0 -10.3 23.45 -10.55 22.9 -10.75 22.35 -10.95 21.8 -11.15 21.25 -11.35 20.7 -11.5 20.1 -11.65 19.55 -11.8 18.95 -11.9 18.4 -11.95 18.05 -12.1 17.7 -12.2 17.35 -12.3 17.0 -12.45 16.7 -12.6 16.35 -12.75 16.05 -12.9 15.7 -13.05 15.45 -13.25 15.1 -13.25 15.05 -13.55 14.5 -13.75 14.1 -13.9 13.85 -14.1 13.5 -14.2 13.2 -14.3 12.95 -14.5 12.65 -15.3 11.05 -14.8 12.1 -14.95 11.75 -15.05 11.5 -15.2 11.2 -15.35 10.95 -15.5 10.65 -15.6 10.4 -15.7 10.1 -15.8 9.8 -15.95 9.5 -16.0 9.2 -16.1 8.9 -16.15 8.6 -16.2 8.35 -16.25 8.1 -16.25 7.85 -16.3 7.55 -16.3 7.3 -16.3 7.05 -16.3 6.8 -16.3 6.55 -16.3 6.3 -16.25 6.0 -16.25 5.75 -16.2 5.5 -16.15 5.25 -16.1 5.0 -16.05 4.75 -16.0 4.45 -15.9 4.0 -15.8 3.55 -15.7 3.1 -15.55 2.7 -15.45 2.25 -15.35 1.8 -15.2 1.35 -15.05 0.95 -14.9 0.5 -14.75 0.1 -14.6 -0.35 -14.45 -0.75 -14.3 -1.2 -14.1 -1.6 -13.9 -2.05 -13.7 -2.45 -13.35 -3.15 -12.75 -4.35 -12.0 -5.7 -11.75 -6.25 -11.5 -6.7 -11.45 -6.85 -11.25 -7.2 -11.15 -7.5 -10.95 -7.8 -10.85 -8.1 -10.7 -8.45 -10.55 -8.75 -10.4 -9.05 -10.3 -9.4 -10.15 -9.7 -10.05 -10.05 -9.95 -10.35 -9.9 -10.7 -9.8 -11.05 -9.75 -11.4 -9.7 -11.7 -9.65 -11.95 -9.55 -12.25 -9.45 -12.5 -9.35 -12.75 -9.25 -12.95 -9.1 -13.2 -8.95 -13.4 -8.8 -13.6 -8.6 -13.8 -8.45 -14.0 -8.2 -14.15 -8.0 -14.35 -7.75 -14.45 -7.5 -14.6 -7.25 -14.75 -7.2 -14.75 -7.15 -14.8 -7.1 -14.85 -7.05 -14.85 -7.0 -14.9 -6.95 -14.95 -6.95 -15.0 -6.9 -15.05 -6.9 -15.05 -6.9 -15.1 -6.85 -15.15 -6.85 -15.2 -6.85 -15.25 -6.9 -15.35 -6.9 -15.4 -6.9 -15.45 -7.0 -15.8 -7.05 -16.1 -7.1 -16.4 -7.1 -16.7 -7.1 -17.0 -7.0 -17.3 -6.95 -17.55 -6.85 -17.85 -6.75 -18.1 -6.6 -18.35 -6.45 -18.55 -6.25 -18.8 -6.05 -19.05 -5.85 -19.25 -5.6 -19.5 -5.35 -19.7 -4.95 -20.05 -4.55 -20.4 -4.1 -20.75 -3.65 -21.05 -3.25 -21.4 -2.8 -21.7 -2.35 -21.95 -1.85 -22.25 -1.4 -22.5 -0.95 -22.8 -0.5 -23.05 0.0 -23.3 0.45 -23.55 1.0 -23.8 1.4 -24.0 1.95 -24.25 2.4 -24.45 2.75 -24.65 3.2 -24.85 3.55 -25.05 4.0 -25.25 4.4 -25.4 4.8 -25.6 5.2 -25.8 5.65 -25.95 6.05 -26.15 6.45 -26.3 6.85 -26.45 7.3 -26.65 7.7 -26.75 8.15 -26.9 8.6 -27.05 8.8 -27.1 8.95 -27.15 9.15 -27.15 9.3 -27.15 9.5 -27.15 9.7 -27.1 9.85 -27.05 10.05 -27.0 10.2 -26.9 10.35 -26.85 10.5 -26.75 10.65 -26.65 10.8 -26.5 10.95 -26.4 11.05 -26.25 11.2 -26.1 11.35 -25.9 11.5 -25.7 11.65 -25.5 11.8 -25.25 11.9 -25.05 12.05 -24.85 12.2 -24.65 12.3 -24.4 12.45 -24.2 12.55 -24.0 12.7 -23.75 12.8 -23.55 12.9 -23.3 13.05 -23.1 13.15 -22.85 13.25 -22.6 13.45 -22.15 13.65 -21.75 13.8 -21.35 14.0 -20.9 14.2 -20.5 14.35 -20.05 14.55 -19.6 14.75 -19.2 14.9 -18.75 15.1 -18.35 15.25 -17.9 15.45 -17.45 15.6 -17.0 15.75 -16.6 15.95 -16.15 16.1 -15.7 16.2 -15.4 16.25 -15.1 16.35 -14.85 16.35 -14.55 16.4 -14.3 16.35 -14.05 16.35 -13.8 16.3 -13.55 16.2 -13.3 16.1 -13.1 16.0 -12.85 15.9 -12.6 15.75 -12.4 15.6 -12.2 15.4 -11.95 15.2 -11.75 15.0 -11.55 14.65 -11.05 14.3 -10.55 14.05 -10.3 14.0 -10.25 13.95 -10.2 13.9 -10.15 13.9 -10.1 13.85 -10.0 13.8 -9.95 13.8 -9.9 13.75 -9.8 13.75 -9.75 13.75 -9.7 13.7 -9.6 13.7 -9.55 13.7 -9.45 13.7 -9.4 13.7 -9.35 13.65 -9.25 13.5 -7.65 13.75 -4.3 14.0 -0.35 13.15 7.25 13.1 7.7 13.05 8.1 13.0 8.55 12.95 8.95 12.85 9.4 12.8 9.8 12.7 10.25 12.65 10.65 12.55 11.1 12.45 11.5 12.35 11.9 12.25 12.35 12.15 12.75 12.05 13.2 11.9 13.6 11.8 14.0 11.7 14.25 11.5 14.8 11.3 15.3 11.25 15.55 11.2 15.8 11.15 16.05 11.1 16.25 11.1 16.5 11.05 16.75 11.1 17.0 11.1 17.2 11.15 17.45 11.15 17.65 11.25 17.9 11.3 18.1 11.35 18.35 11.45 18.55 11.5 18.8 11.6 19.0 11.7 19.25 12.1 20.0 12.6 21.35 12.7 21.55 12.75 21.75 12.8 21.95 12.85 22.15 12.85 22.35 12.9 22.55 12.9 22.75 12.9 22.95 12.85 23.15 12.85 23.35 12.8 23.5 12.75 23.7 12.7 23.9 12.65 24.1 12.6 24.3 12.5 24.45 12.45 24.55 12.4 24.65 12.4 24.75 12.35 24.85 12.35 24.95 12.3 25.05 12.3 25.1 12.25 25.2 12.25 25.3 12.2 25.4 12.2 25.5 12.2 25.6 12.2 25.7 12.15 25.8 12.15 25.9 12.15 26.0 12.1 26.3 12.05 26.55 12.0 26.8 11.95 27.05 11.9 27.3 11.8 27.55 11.7 27.8 11.6 28.05 11.45 28.25 11.3 28.45 11.15 28.65 11.0 28.85 10.8 29.05 10.6 29.2 10.4 29.4 10.15 29.55 10.0 29.65 9.85 29.7 9.7 29.8 9.5 29.85 9.35 29.95 9.2 30.0 9.0 30.05 8.85 30.15 8.7 30.2 8.5 30.2 8.35 30.25 8.2 30.3 8.0 30.35 7.85 30.35 7.65 30.4 7.5 30.4 7.2 30.4 4.65 30.55 L4.65 30.55 M2.1 26.9 Q1.8 26.85 0.95 26.8 0.25 26.75 -0.2 26.65 -0.75 26.6 -1.3 26.45 -1.85 26.35 -2.35 26.2 -2.9 26.05 -3.35 25.9 -3.9 25.7 -4.35 25.45 -4.8 25.25 -5.25 24.95 -5.7 24.65 -6.15 24.3 -6.55 24.0 -6.95 23.6 -7.35 23.2 -7.7 22.75 -7.85 22.55 -7.95 22.4 -8.1 22.2 -8.25 22.05 -8.35 21.85 -8.5 21.7 -8.6 21.5 -8.75 21.35 -8.9 21.15 -9.0 21.0 -9.15 20.8 -9.3 20.65 -9.4 20.45 -9.55 20.3 -9.7 20.1 -9.85 19.95 -9.85 19.95 -9.85 19.9 -9.9 19.85 -9.9 19.8 -9.9 19.75 -9.95 19.75 -10.0 19.75 -10.0 19.75 -10.05 19.75 -10.1 19.75 -10.05 20.0 -9.95 20.2 -9.9 20.45 -9.8 20.65 -9.75 20.9 -9.65 21.15 -9.6 21.35 -9.5 21.6 -9.4 21.8 -9.35 22.05 -9.25 22.25 -9.15 22.5 -9.05 22.7 -8.95 22.95 -8.9 23.15 -8.8 23.4 -8.15 24.7 -7.0 26.85 -6.95 26.95 -6.85 27.1 -6.8 27.2 -6.7 27.3 -6.6 27.4 -6.55 27.45 -6.45 27.55 -6.35 27.6 -6.25 27.7 -6.15 27.75 -6.05 27.8 -5.9 27.85 -5.8 27.9 -5.65 27.9 -5.55 27.95 -5.4 27.95 -3.35 28.25 -0.25 28.7 -0.1 28.75 0.0 28.75 1.9 29.05 7.15 29.0 7.3 29.0 7.45 29.0 7.6 28.95 7.75 28.95 7.85 28.9 8.0 28.85 8.15 28.85 8.3 28.8 8.45 28.75 8.55 28.7 8.7 28.65 8.85 28.6 9.0 28.5 9.1 28.45 9.25 28.4 9.35 28.3 9.55 28.2 9.7 28.1 9.85 27.95 10.0 27.8 10.1 27.7 10.2 27.55 10.3 27.4 10.4 27.2 10.45 27.05 10.5 26.9 10.55 26.7 10.6 26.5 10.65 26.35 10.65 26.15 10.7 25.95 10.7 25.75 10.45 25.85 10.15 25.95 9.9 26.05 9.6 26.15 9.35 26.25 9.05 26.3 8.8 26.4 8.5 26.45 8.25 26.5 7.95 26.55 7.7 26.6 7.4 26.65 7.15 26.7 6.85 26.7 6.55 26.75 6.3 26.75 5.8 26.8 2.1 26.9 L2.1 26.9 M6.5 25.65 Q6.7 25.65 6.95 25.65 7.15 25.65 7.35 25.6 7.6 25.6 7.8 25.55 8.0 25.5 8.2 25.45 8.45 25.4 8.65 25.35 8.85 25.3 9.05 25.25 9.25 25.2 9.45 25.1 9.65 25.05 9.85 24.95 10.1 24.85 10.35 24.7 10.55 24.6 10.75 24.45 10.9 24.3 11.05 24.1 11.2 23.95 11.3 23.75 11.35 23.55 11.4 23.35 11.45 23.15 11.45 22.9 11.45 22.65 11.4 22.4 11.4 22.15 11.3 21.9 11.25 21.75 11.2 21.6 11.15 21.45 11.1 21.3 11.05 21.15 10.95 21.0 10.9 20.85 10.85 20.7 10.8 20.6 10.7 20.4 10.6 20.2 10.55 20.15 10.5 20.0 10.45 19.85 10.35 19.7 10.3 19.55 10.2 19.25 10.1 19.0 9.95 18.7 9.9 18.45 9.8 18.15 9.75 17.85 9.7 17.55 9.65 17.3 9.6 17.0 9.6 16.7 9.6 16.4 9.65 16.15 9.7 15.85 9.75 15.55 9.85 15.25 9.95 14.95 10.5 13.55 11.25 10.2 11.7 7.9 12.15 2.95 12.25 2.2 12.3 1.45 12.35 0.75 12.35 -0.05 12.35 -0.75 12.35 -1.55 12.35 -2.25 12.35 -3.05 12.3 -3.65 12.3 -4.6 12.25 -5.8 12.25 -6.1 12.2 -6.95 12.2 -7.65 12.2 -8.45 12.2 -9.15 12.15 -9.1 12.1 -9.1 12.0 -9.05 12.0 -9.0 11.95 -9.0 11.9 -8.95 11.85 -8.9 11.8 -8.9 11.75 -8.85 11.75 -8.85 11.7 -8.8 11.7 -8.75 11.65 -8.75 11.65 -8.7 11.6 -8.7 11.6 -8.65 11.05 -8.25 9.95 -7.45 9.95 -7.45 9.9 -7.5 9.95 -7.65 10.05 -7.8 10.15 -7.95 10.25 -8.1 10.3 -8.25 10.4 -8.4 10.5 -8.55 10.65 -8.7 10.75 -8.85 10.85 -9.0 10.95 -9.1 11.05 -9.25 11.2 -9.4 11.3 -9.5 11.45 -9.65 11.55 -9.8 12.5 -10.75 14.15 -12.7 14.3 -12.85 14.4 -13.0 14.5 -13.1 14.6 -13.25 14.7 -13.4 14.75 -13.55 14.8 -13.7 14.85 -13.85 14.9 -14.0 14.9 -14.2 14.9 -14.35 14.9 -14.5 14.9 -14.7 14.85 -14.9 14.8 -15.05 14.75 -15.25 14.6 -15.75 14.4 -16.2 14.2 -16.7 14.05 -17.2 13.85 -17.65 13.65 -18.15 13.45 -18.6 13.25 -19.1 13.05 -19.55 12.85 -20.0 12.65 -20.5 12.45 -20.95 12.2 -21.4 12.0 -21.9 11.8 -22.35 11.55 -22.8 11.5 -22.95 11.4 -23.1 11.35 -23.25 11.25 -23.4 11.2 -23.55 11.1 -23.7 11.0 -23.85 10.95 -23.95 10.85 -24.1 10.75 -24.25 10.65 -24.4 10.55 -24.5 10.5 -24.65 10.4 -24.8 10.3 -24.95 10.2 -25.05 10.1 -25.2 10.0 -25.3 9.9 -25.4 9.85 -25.45 9.75 -25.55 9.65 -25.6 9.6 -25.65 9.5 -25.7 9.4 -25.7 9.35 -25.7 9.25 -25.7 9.15 -25.7 9.0 -25.7 8.9 -25.65 8.75 -25.6 8.6 -25.55 7.3 -25.15 4.2 -23.75 3.75 -23.55 3.25 -23.35 2.8 -23.1 2.35 -22.9 1.9 -22.65 1.45 -22.45 1.0 -22.2 0.55 -21.95 0.1 -21.7 -0.35 -21.45 -0.8 -21.2 -1.25 -20.95 -1.65 -20.65 -2.1 -20.4 -2.55 -20.1 -2.95 -19.85 -3.1 -19.75 -3.25 -19.65 -3.4 -19.55 -3.55 -19.45 -3.7 -19.3 -3.85 -19.2 -4.0 -19.1 -4.1 -19.0 -4.25 -18.85 -4.4 -18.75 -4.5 -18.65 -4.65 -18.5 -4.75 -18.35 -4.9 -18.25 -5.0 -18.1 -5.1 -17.95 -5.2 -17.85 -5.25 -17.75 -5.35 -17.65 -5.4 -17.55 -5.45 -17.45 -5.5 -17.35 -5.55 -17.2 -5.6 -17.1 -5.65 -17.0 -5.65 -16.9 -5.65 -16.75 -5.65 -16.65 -5.65 -16.5 -5.6 -16.4 -5.6 -16.25 -5.55 -16.15 -5.4 -15.85 -4.4 -13.35 -3.7 -11.65 -3.15 -10.6 -3.05 -10.4 -3.05 -10.3 -3.0 -10.25 -3.05 -10.0 -3.2 -10.15 -3.3 -10.3 -3.45 -10.45 -3.55 -10.6 -3.7 -10.75 -3.8 -10.9 -3.95 -11.05 -4.05 -11.2 -4.15 -11.35 -4.25 -11.5 -4.4 -11.65 -4.5 -11.8 -4.6 -12.0 -4.7 -12.15 -4.8 -12.3 -4.9 -12.5 -4.95 -12.55 -5.0 -12.65 -5.0 -12.7 -5.05 -12.85 -5.1 -13.0 -5.1 -13.0 -5.15 -13.1 -5.2 -13.15 -5.25 -13.25 -5.3 -13.35 -5.35 -13.4 -5.35 -13.45 -5.45 -13.55 -5.5 -13.6 -5.55 -13.65 -5.6 -13.65 -5.65 -13.7 -5.75 -13.7 -5.85 -13.7 -5.9 -13.65 -6.0 -13.65 -6.05 -13.6 -6.15 -13.6 -6.25 -13.55 -6.3 -13.5 -6.4 -13.45 -6.55 -13.35 -6.6 -13.35 -6.7 -13.3 -6.75 -13.25 -6.85 -13.2 -6.95 -13.15 -7.05 -13.1 -7.2 -13.05 -7.3 -13.05 -7.4 -12.95 -7.5 -12.9 -7.55 -12.85 -7.65 -12.75 -7.75 -12.7 -7.8 -12.6 -7.85 -12.5 -7.95 -12.4 -8.0 -12.3 -8.05 -12.2 -8.05 -12.1 -8.1 -12.0 -8.15 -11.85 -8.25 -11.55 -8.35 -11.0 -8.5 -10.4 -8.6 -10.1 -8.7 -9.7 -8.85 -9.35 -8.95 -8.95 -9.1 -8.55 -9.25 -8.2 -9.4 -7.85 -9.55 -7.5 -9.75 -7.1 -9.9 -6.75 -10.1 -6.4 -10.25 -6.05 -10.45 -5.65 -10.6 -5.35 -10.8 -4.95 -10.95 -4.7 -11.2 -4.25 -11.5 -3.7 -11.75 -3.2 -12.0 -2.7 -12.25 -2.15 -12.55 -1.6 -12.75 -1.1 -13.0 -0.55 -13.2 -0.05 -13.4 0.5 -13.6 1.05 -13.8 1.6 -13.95 2.15 -14.15 2.75 -14.25 3.3 -14.4 3.9 -14.55 4.45 -13.5 -1.4 -14.65 5.0 -14.7 5.3 -14.75 5.55 -14.8 5.8 -14.8 6.05 -14.85 6.35 -14.85 6.6 -14.9 6.9 -14.9 7.15 -14.9 7.4 -14.85 7.7 -14.85 7.95 -14.8 8.2 -14.75 8.5 -14.65 8.75 -14.5 9.15 -14.35 9.6 -14.2 10.0 -14.0 10.45 -13.85 10.85 -13.65 11.25 -13.45 11.65 -13.2 12.1 -13.05 12.45 -12.8 12.9 -12.65 13.15 -12.35 13.65 -12.05 14.2 -11.9 14.45 -11.7 14.9 -11.5 15.25 -11.5 15.3 -11.5 15.35 -11.45 15.4 -11.45 15.4 -11.45 15.45 -11.45 15.45 -11.25 15.8 -11.1 16.1 -10.9 16.45 -10.7 16.75 -10.5 17.05 -10.3 17.4 -10.1 17.7 -9.9 18.0 -9.7 18.3 -9.5 18.6 -9.3 18.9 -9.1 19.2 -8.85 19.5 -8.65 19.8 -8.4 20.1 -8.2 20.4 -8.1 20.55 -8.0 20.7 -7.9 20.85 -7.8 21.0 -7.65 21.15 -7.55 21.3 -7.45 21.45 -7.35 21.6 -7.2 21.7 -7.1 21.85 -7.0 22.0 -6.85 22.15 -6.75 22.3 -6.6 22.4 -6.5 22.55 -6.35 22.65 -6.2 22.85 -6.0 23.0 -5.85 23.15 -5.7 23.3 -5.5 23.45 -5.35 23.6 -5.15 23.75 -4.95 23.9 -4.8 24.05 -4.6 24.15 -4.4 24.3 -4.2 24.4 -4.0 24.5 -3.75 24.6 -3.55 24.7 -3.35 24.8 -2.8 25.05 -2.15 25.2 -1.6 25.35 -1.0 25.5 -0.4 25.6 0.2 25.7 0.8 25.75 1.4 25.8 2.0 25.8 2.6 25.85 3.15 25.85 3.8 25.8 4.35 25.8 5.05 25.8 4.85 25.8 6.25 25.75 6.3 25.75 6.35 25.7 6.5 25.7 6.5 25.65 L6.5 25.65" fill="#040404" fill-rule="evenodd" stroke="none"/>
    <path d="M-8.2 20.4 Q-8.45 20.1 -8.65 19.8 -8.85 19.5 -9.1 19.2 -9.3 18.95 -9.5 18.6 -9.7 18.3 -9.9 18.0 -10.1 17.7 -10.3 17.4 -10.5 17.05 -10.7 16.75 -10.9 16.45 -11.1 16.1 -11.25 15.8 -11.45 15.45 -11.45 15.45 -11.45 15.35 -11.5 15.3 -11.5 15.25 -10.5 13.3 -9.8 11.9 -8.65 9.6 -8.0 8.75 -6.55 6.8 -3.55 2.15 -3.35 1.85 -3.25 1.65 -3.1 1.4 -2.95 1.2 -2.8 0.9 -2.65 0.7 -2.5 0.45 -2.4 0.2 -2.25 -0.05 -2.15 -0.3 -2.0 -0.6 -1.9 -0.85 -1.8 -1.1 -1.7 -1.4 -1.6 -1.65 -1.55 -1.95 -1.45 -2.2 -1.45 -2.35 -1.35 -2.55 -1.35 -2.7 -1.25 -2.95 -1.25 -3.1 -1.2 -3.3 -1.15 -3.5 -1.1 -3.7 -1.05 -3.9 -1.05 -4.1 -1.05 -4.3 -1.0 -4.5 -1.0 -4.7 -1.0 -4.9 -1.05 -5.1 -1.1 -5.45 -1.1 -5.75 -1.15 -6.1 -1.25 -6.45 -1.3 -6.75 -1.35 -7.1 -1.45 -7.45 -1.5 -7.75 -1.6 -8.1 -1.7 -8.4 -1.8 -8.7 -1.9 -9.05 -2.0 -9.35 -2.15 -9.65 -2.3 -10.0 -2.4 -10.3 -2.55 -10.65 -2.7 -11.0 -2.8 -11.4 -2.85 -11.7 -2.9 -12.05 -2.9 -12.4 -2.9 -12.7 -2.8 -13.05 -2.75 -13.35 -2.6 -13.65 -2.5 -13.95 -2.3 -14.25 -2.1 -14.55 -1.85 -14.8 -1.6 -15.1 -1.3 -15.4 -0.95 -15.7 -0.6 -16.0 -0.25 -16.3 0.1 -16.55 0.45 -16.85 0.8 -17.1 1.2 -17.35 1.55 -17.6 1.95 -17.85 2.3 -18.1 2.7 -18.35 3.1 -18.55 3.5 -18.8 3.9 -19.0 4.3 -19.2 4.7 -19.4 4.9 -19.5 5.1 -19.55 5.3 -19.65 5.45 -19.7 5.65 -19.75 5.85 -19.85 6.05 -19.9 6.25 -19.95 6.45 -20.0 6.65 -20.0 6.85 -20.05 7.05 -20.1 7.3 -20.1 7.5 -20.1 7.7 -20.15 7.9 -20.15 8.3 -20.15 9.95 -19.6 10.0 -19.55 10.0 -19.55 10.05 -19.5 10.05 -19.45 10.05 -19.45 10.05 -19.4 10.05 -19.35 10.05 -19.3 10.05 -19.25 10.05 -19.25 10.05 -18.9 10.0 -18.5 10.0 -18.15 9.95 -17.75 9.9 -17.4 9.85 -17.05 9.75 -16.7 9.65 -16.35 9.6 -16.0 9.45 -15.65 9.35 -15.3 9.25 -14.95 9.1 -14.6 8.95 -14.25 8.8 -13.95 8.65 -13.6 8.45 -13.25 8.3 -12.85 8.15 -12.5 8.05 -12.15 7.9 -11.75 7.8 -11.4 7.7 -11.0 7.65 -10.65 7.55 -10.25 7.5 -9.9 7.45 -9.5 7.45 -9.1 7.45 -8.7 7.5 -8.3 7.5 -7.9 7.55 -7.5 7.65 -7.95 7.7 -8.2 7.75 -8.6 7.8 -8.95 7.85 -9.35 7.95 -9.7 8.05 -10.1 8.15 -10.45 8.25 -10.8 8.35 -11.15 8.45 -11.55 8.6 -11.9 8.75 -12.25 8.95 -12.55 9.1 -12.9 9.3 -13.25 9.5 -13.55 9.7 -13.85 9.8 -13.95 9.85 -14.05 9.9 -14.2 10.0 -14.3 10.05 -14.4 10.1 -14.5 10.15 -14.65 10.2 -14.75 10.25 -14.85 10.3 -15.0 10.3 -15.1 10.35 -15.25 10.4 -15.35 10.45 -15.5 10.45 -15.6 10.5 -15.75 10.55 -15.9 10.55 -16.1 10.6 -16.25 10.6 -16.45 10.6 -16.6 10.6 -16.8 10.6 -16.95 10.6 -17.15 10.6 -17.3 10.6 -17.5 10.6 -17.75 10.55 -17.85 10.55 -18.05 10.55 -18.2 10.55 -18.4 10.55 -18.55 10.6 -18.55 10.65 -18.6 10.7 -18.6 10.7 -18.55 10.75 -18.55 10.8 -18.55 10.8 -18.5 10.85 -18.5 10.85 -18.45 10.9 -18.45 11.1 -18.15 11.4 -17.75 13.7 -14.6 11.85 -17.1 12.15 -16.7 12.35 -16.45 12.6 -16.05 12.8 -15.75 13.05 -15.4 13.25 -15.05 13.45 -14.65 13.6 -14.3 13.8 -13.9 13.9 -13.55 14.05 -13.1 14.15 -12.7 12.25 -10.5 11.55 -9.8 11.4 -9.65 11.3 -9.55 11.2 -9.4 11.05 -9.25 10.95 -9.1 10.85 -9.0 10.75 -8.85 10.6 -8.7 10.5 -8.55 10.4 -8.4 10.3 -8.25 10.25 -8.1 10.15 -7.95 10.05 -7.8 9.95 -7.65 9.9 -7.5 9.9 -7.45 9.85 -7.4 9.85 -7.35 9.85 -7.35 9.9 -7.35 9.95 -7.45 10.5 -7.85 11.6 -8.65 11.65 -8.6 11.65 -8.6 11.7 -8.55 11.7 -8.5 11.7 -8.45 11.7 -8.4 11.7 -8.4 11.65 -8.35 11.65 -8.3 11.65 -8.25 11.6 -8.05 11.6 -7.85 11.55 -7.65 11.5 -7.5 11.5 -7.3 11.45 -7.1 11.4 -6.9 11.4 -6.7 11.35 -6.5 11.35 -6.3 11.35 -6.15 11.3 -5.95 11.3 -5.75 11.3 -5.55 11.25 -5.35 11.25 -5.15 11.25 -4.85 11.25 -4.5 11.25 -4.2 11.25 -3.9 11.25 -3.6 11.3 -3.25 11.3 -2.95 11.35 -2.65 11.35 -2.35 11.4 -2.0 11.4 -1.7 11.45 -1.4 11.5 -1.1 11.55 -0.75 11.6 -0.45 11.6 -0.15 12.05 2.65 12.15 2.95 11.7 8.05 11.25 10.2 10.45 13.7 9.95 14.95 9.85 15.25 9.75 15.55 9.7 15.85 9.65 16.15 9.6 16.4 9.6 16.7 9.6 17.0 9.65 17.3 9.7 17.55 9.75 17.85 9.8 18.15 9.9 18.45 9.95 18.7 10.1 19.0 10.2 19.25 10.3 19.55 10.35 19.7 10.45 19.85 10.5 19.95 10.55 20.15 10.6 20.2 10.7 20.4 10.8 20.6 10.85 20.7 10.9 20.85 10.95 21.0 11.05 21.15 11.1 21.3 11.15 21.45 11.2 21.6 11.25 21.75 11.3 21.9 11.4 22.15 11.4 22.45 11.45 22.7 11.45 22.9 11.45 23.15 11.4 23.35 11.35 23.55 11.3 23.75 11.2 23.95 11.05 24.1 10.95 24.3 10.75 24.45 10.6 24.6 10.35 24.7 10.15 24.85 9.85 24.95 9.65 25.05 9.45 25.1 9.25 25.2 9.05 25.25 8.85 25.3 8.65 25.35 8.45 25.4 8.2 25.45 8.0 25.5 7.8 25.55 7.6 25.6 7.35 25.6 7.15 25.65 6.95 25.65 6.7 25.65 6.5 25.65 6.55 25.4 6.55 25.1 6.55 24.85 6.5 24.6 6.5 24.3 6.45 24.05 6.4 23.8 6.3 23.55 6.25 23.3 6.15 23.05 6.05 22.85 5.95 22.6 5.85 22.35 5.7 22.1 5.6 21.9 5.45 21.65 5.15 21.2 4.85 20.8 4.5 20.4 4.15 20.1 3.8 19.75 3.4 19.45 3.0 19.15 2.6 18.95 2.2 18.7 1.75 18.5 1.3 18.3 0.85 18.2 0.35 18.05 -0.15 17.95 -0.65 17.9 -1.15 17.85 -1.5 17.85 -1.8 17.85 -2.1 17.85 -2.45 17.85 -2.75 17.9 -3.1 17.95 -3.4 18.0 -3.7 18.1 -4.0 18.2 -4.3 18.3 -4.6 18.4 -4.9 18.5 -5.2 18.6 -5.5 18.75 -5.8 18.85 -6.1 19.0 -6.3 19.1 -6.4 19.15 -6.55 19.2 -6.65 19.3 -6.8 19.35 -6.95 19.45 -7.05 19.5 -7.2 19.6 -7.35 19.7 -7.45 19.75 -7.6 19.85 -7.7 19.95 -7.85 20.05 -7.95 20.15 -8.05 20.3 -8.2 20.4 L-8.2 20.4 M4.9 18.25 Q4.95 18.15 4.95 18.05 4.95 18.0 4.95 17.9 4.95 17.8 4.95 17.75 4.95 17.65 4.95 17.6 4.9 17.5 4.9 17.45 4.9 17.4 4.85 17.3 4.85 17.25 4.8 17.2 4.8 17.1 4.8 17.05 4.7 16.75 4.6 16.45 4.5 16.1 4.45 15.8 4.4 15.5 4.35 15.2 4.3 14.85 4.3 14.55 4.25 14.25 4.25 13.95 4.25 13.6 4.3 13.3 4.3 13.0 4.35 12.65 4.45 12.35 4.5 12.0 4.6 11.6 4.7 11.2 4.8 10.8 4.85 10.4 4.95 10.0 5.05 9.6 5.15 9.2 5.2 8.8 5.3 8.4 5.35 8.0 5.45 7.6 5.5 7.2 5.6 6.8 5.65 6.4 5.75 6.0 5.8 5.6 5.8 5.5 5.85 5.4 5.85 5.35 5.85 5.15 5.9 5.05 5.9 4.95 5.95 4.85 5.95 4.7 5.95 4.6 5.95 4.5 5.95 4.35 5.95 4.25 5.95 4.1 5.95 4.0 5.95 3.85 5.9 3.75 5.85 3.95 5.1 6.05 4.65 7.45 4.4 8.3 4.3 8.55 4.2 8.85 4.15 9.15 4.05 9.4 4.0 9.7 3.9 9.95 3.85 10.25 3.75 10.55 3.7 10.8 3.65 11.1 3.6 11.35 3.55 11.65 3.45 11.95 3.4 12.2 3.35 12.5 3.35 12.8 3.3 13.15 3.3 13.55 3.3 13.9 3.3 14.25 3.35 14.6 3.45 14.95 3.55 15.25 3.65 15.6 3.75 15.9 3.9 16.25 4.05 16.55 4.2 16.9 4.35 17.2 4.55 17.6 4.5 17.5 4.9 18.25 L4.9 18.25 M6.8 25.35 Q6.9 25.35 7.0 25.3 7.1 25.3 7.2 25.25 7.25 25.25 7.35 25.2 7.4 25.15 7.45 25.1 7.5 25.05 7.55 24.95 7.55 24.9 7.6 24.8 7.65 24.75 7.65 24.65 7.7 24.55 7.7 24.4 7.7 24.25 7.75 24.15 7.75 24.0 7.7 23.85 7.7 23.7 7.65 23.6 7.65 23.45 7.6 23.35 7.55 23.25 7.45 23.1 7.4 23.0 7.3 22.9 7.2 22.8 7.1 22.75 7.0 22.65 6.9 22.6 6.9 22.6 7.0 22.95 7.1 23.15 7.15 23.3 7.2 23.5 7.2 23.65 7.25 23.8 7.25 24.0 7.3 24.15 7.25 24.3 7.25 24.5 7.2 24.65 7.15 24.85 7.05 25.0 6.95 25.2 6.8 25.35 L6.8 25.35" fill="#000000" fill-opacity="0.18039216" fill-rule="evenodd" stroke="none"/>
    <path d="M-0.25 28.7 Q-0.2 28.65 -0.15 28.6 -0.05 28.55 0.0 28.55 0.05 28.5 0.15 28.5 0.2 28.45 0.25 28.45 0.3 28.45 0.4 28.45 0.5 28.4 0.55 28.4 0.65 28.4 0.7 28.4 0.75 28.35 0.8 28.35 0.95 28.3 1.05 28.25 1.2 28.2 1.3 28.15 1.45 28.05 1.5 28.0 1.65 27.9 1.7 27.85 1.8 27.75 1.85 27.65 1.95 27.55 2.0 27.4 2.05 27.3 2.05 27.15 2.1 27.05 2.1 26.9 2.6 26.9 4.2 26.85 5.5 26.8 6.3 26.75 6.6 26.75 6.85 26.7 7.15 26.7 7.4 26.65 7.7 26.6 7.95 26.55 8.25 26.5 8.5 26.45 8.8 26.35 9.05 26.3 9.35 26.2 9.6 26.15 9.9 26.05 10.15 25.95 10.45 25.85 10.7 25.75 10.7 25.95 10.65 26.15 10.65 26.35 10.6 26.5 10.55 26.7 10.5 26.9 10.45 27.05 10.4 27.2 10.3 27.4 10.2 27.55 10.1 27.7 10.0 27.85 9.85 27.95 9.7 28.1 9.55 28.2 9.35 28.3 9.2 28.4 9.1 28.45 8.95 28.5 8.85 28.55 8.7 28.65 8.55 28.7 8.4 28.75 8.3 28.8 8.15 28.85 8.0 28.85 7.85 28.9 7.7 28.95 7.55 28.95 7.4 28.95 7.3 29.0 7.15 29.0 1.7 29.0 0.0 28.75 -0.05 28.75 -0.1 28.75 -0.1 28.75 -0.15 28.75 0.0 28.8 -0.25 28.7 L-0.25 28.7" fill="#000000" fill-opacity="0.18039216" fill-rule="evenodd" stroke="none"/>
    <path d="M4.9 18.25 Q4.45 17.35 4.55 17.6 4.35 17.2 4.2 16.9 4.05 16.55 3.9 16.25 3.75 15.9 3.65 15.6 3.5 15.25 3.45 14.95 3.35 14.55 3.3 14.25 3.25 13.9 3.25 13.55 3.25 13.15 3.35 12.8 3.4 12.5 3.45 12.25 3.5 11.95 3.55 11.65 3.6 11.4 3.65 11.1 3.7 10.8 3.75 10.55 3.85 10.25 3.9 9.95 3.95 9.7 4.05 9.4 4.15 9.15 4.2 8.85 4.3 8.6 4.4 8.3 4.65 7.45 5.9 3.75 5.95 3.9 5.95 4.0 5.95 4.15 5.95 4.25 5.95 4.35 5.95 4.5 5.95 4.6 5.95 4.75 5.95 4.85 5.9 4.95 5.9 5.05 5.85 5.15 5.8 5.4 5.85 5.4 5.8 5.5 5.8 5.6 5.75 6.0 5.65 6.4 5.6 6.8 5.55 7.2 5.45 7.6 5.35 8.0 5.3 8.4 5.2 8.8 5.15 9.2 5.05 9.6 4.95 10.0 4.85 10.4 4.8 10.8 4.7 11.2 4.6 11.6 4.5 12.0 4.4 12.3 4.35 12.65 4.3 12.95 4.3 13.3 4.25 13.6 4.25 13.95 4.25 14.25 4.3 14.55 4.3 14.85 4.35 15.2 4.4 15.5 4.45 15.8 4.5 16.1 4.6 16.45 4.65 16.75 4.8 17.05 4.8 17.1 4.85 17.2 4.9 17.3 4.85 17.3 4.9 17.4 4.9 17.45 4.95 17.5 4.95 17.6 4.95 17.65 4.95 17.75 4.95 17.8 4.95 17.9 4.95 18.0 4.95 18.05 4.95 18.15 4.9 18.25 L4.9 18.25" fill="#040404" fill-rule="evenodd" stroke="none"/>
    <path d="M9.95 -19.6 Q9.9 -21.15 9.75 -21.55 9.85 -21.4 9.95 -21.2 10.0 -21.05 10.1 -20.85 10.15 -20.65 10.2 -20.45 10.25 -20.3 10.3 -20.1 10.3 -19.95 10.35 -19.7 10.35 -19.7 10.4 -19.35 10.45 -19.1 10.5 -18.95 10.55 -18.75 10.55 -18.55 10.55 -18.4 10.55 -18.2 10.55 -18.05 10.55 -17.85 10.55 -17.85 10.6 -17.5 10.6 -17.3 10.6 -17.15 10.6 -16.95 10.6 -16.8 10.6 -16.6 10.6 -16.45 10.6 -16.25 10.55 -16.1 10.55 -15.9 10.5 -15.75 10.45 -15.6 10.45 -15.5 10.4 -15.35 10.35 -15.25 10.35 -15.1 10.3 -15.0 10.25 -14.9 10.2 -14.75 10.15 -14.65 10.1 -14.55 10.05 -14.4 10.0 -14.3 9.95 -14.2 9.85 -14.1 9.8 -14.0 9.7 -13.85 9.5 -13.55 9.3 -13.2 9.1 -12.9 8.9 -12.55 8.75 -12.2 8.6 -11.85 8.45 -11.55 8.35 -11.15 8.2 -10.8 8.1 -10.45 8.0 -10.1 7.95 -9.75 7.85 -9.35 7.8 -9.0 7.75 -8.6 7.7 -8.2 7.7 -8.1 7.65 -7.85 7.6 -7.65 7.55 -7.5 7.5 -7.9 7.45 -8.3 7.45 -8.7 7.45 -9.1 7.45 -9.5 7.5 -9.9 7.55 -10.25 7.65 -10.65 7.7 -11.0 7.8 -11.4 7.9 -11.75 8.05 -12.15 8.15 -12.5 8.3 -12.85 8.45 -13.25 8.65 -13.6 8.8 -13.95 8.95 -14.25 9.1 -14.6 9.25 -14.95 9.35 -15.3 9.45 -15.65 9.6 -16.0 9.65 -16.35 9.75 -16.7 9.85 -17.05 9.9 -17.4 9.95 -17.75 10.0 -18.15 10.0 -18.5 10.05 -18.85 10.05 -19.25 10.1 -19.0 10.05 -19.45 10.05 -19.55 9.95 -19.6 L9.95 -19.6" fill="#040404" fill-rule="evenodd" stroke="none"/>
    <path d="M6.8 25.35 Q6.95 25.2 7.05 25.0 7.15 24.85 7.2 24.65 7.25 24.5 7.25 24.35 7.3 24.15 7.25 24.0 7.25 23.8 7.2 23.65 7.2 23.5 7.15 23.3 7.1 23.15 7.0 22.95 6.9 22.6 6.9 22.6 7.0 22.65 7.1 22.75 7.2 22.8 7.3 22.9 7.4 23.0 7.45 23.1 7.55 23.2 7.6 23.35 7.65 23.45 7.65 23.6 7.7 23.7 7.7 23.85 7.75 24.0 7.75 24.1 7.7 24.25 7.7 24.4 7.7 24.55 7.65 24.65 7.65 24.75 7.6 24.8 7.55 24.9 7.55 24.95 7.5 25.05 7.45 25.1 7.4 25.15 7.3 25.2 7.25 25.2 7.2 25.25 7.1 25.3 7.0 25.3 6.9 25.35 6.8 25.35 L6.8 25.35" fill="#040404" fill-rule="evenodd" stroke="none"/>
    <path d="M-40.2 -12.7 Q-40.2 -12.6 -40.3 -12.65 -40.3 -12.65 -40.25 -12.75 -40.2 -12.75 -40.2 -12.7 L-40.2 -12.7" fill="#040404" fill-rule="evenodd" stroke="none"/>
  </g>
</svg>
