<?xml version="1.0" encoding="UTF-8" standalone="no"?>
<svg xmlns:xlink="http://www.w3.org/1999/xlink" height="59.1px" width="30.25px" xmlns="http://www.w3.org/2000/svg">
  <g transform="matrix(1.0, 0.0, 0.0, 1.0, 15.1, 29.55)">
    <path d="M12.8 -9.75 Q12.8 -9.7 12.75 -9.65 12.75 -9.6 12.75 -9.55 12.7 -9.45 12.7 -9.35 12.7 -9.25 12.7 -9.1 12.7 -8.95 12.7 -8.75 12.7 -8.55 12.7 -8.25 12.7 -7.95 12.75 -7.6 12.75 -7.25 12.8 -6.8 12.85 -6.35 12.9 -5.9 12.95 -5.55 12.95 -5.15 13.0 -4.9 13.05 -4.55 13.05 -4.35 13.1 -4.05 13.15 -3.75 13.2 -3.6 13.2 -3.35 13.25 -3.15 13.25 -2.9 13.3 -2.7 13.3 -2.45 13.3 -2.2 13.35 -1.45 12.95 1.9 12.8 3.25 12.7 4.25 12.65 5.0 12.65 5.65 12.65 5.45 12.6 6.55 12.6 6.95 12.55 7.25 12.5 7.7 12.4 8.25 12.2 9.25 11.6 11.55 10.95 13.85 10.6 15.65 10.55 15.8 10.55 15.9 10.55 16.05 10.5 16.15 10.5 16.3 10.5 16.4 10.45 16.55 10.45 16.7 10.45 16.85 10.45 16.95 10.45 17.1 10.45 17.25 10.45 17.4 10.45 17.55 10.5 17.7 10.5 17.85 10.55 18.05 10.6 18.25 10.65 18.45 10.7 18.6 10.75 18.75 10.85 18.9 10.9 19.0 11.0 19.2 11.1 19.4 11.15 19.5 11.25 19.7 11.3 19.85 11.4 20.05 11.45 20.3 11.55 20.55 11.65 20.8 11.7 21.0 11.75 21.25 11.8 21.45 11.8 21.65 11.85 21.8 11.85 22.0 11.9 22.15 11.9 22.3 11.9 22.45 11.95 22.6 11.95 22.7 11.95 22.8 11.95 22.9 11.95 23.0 11.95 23.05 11.95 23.1 11.95 23.25 11.95 23.35 11.9 23.5 11.9 23.65 11.9 23.75 11.9 23.9 11.85 24.0 11.85 24.1 11.85 24.2 11.8 24.3 11.8 24.4 11.75 24.5 11.75 24.6 11.7 24.7 11.7 24.8 11.7 24.85 11.6 24.9 11.5 24.95 11.4 25.0 11.3 25.05 11.2 25.1 11.05 25.1 10.95 25.15 10.8 25.2 10.7 25.25 10.55 25.3 10.4 25.35 10.3 25.4 10.15 25.45 10.0 25.5 9.85 25.55 9.7 25.6 9.6 25.65 9.45 25.7 9.3 25.75 9.15 25.8 8.9 25.85 8.65 25.9 8.4 25.95 8.1 26.0 7.75 26.1 7.4 26.15 7.0 26.2 6.55 26.25 6.1 26.3 5.65 26.35 5.1 26.4 4.6 26.45 3.95 26.5 3.7 26.5 3.25 26.5 2.9 26.5 2.45 26.55 2.1 26.55 1.7 26.55 1.35 26.5 0.95 26.5 0.6 26.45 0.25 26.45 -0.1 26.4 -0.5 26.3 -0.85 26.25 -1.25 26.15 -1.65 26.05 -1.95 25.95 -2.25 25.85 -2.55 25.75 -2.8 25.65 -3.05 25.55 -3.3 25.4 -3.55 25.3 -3.75 25.2 -3.95 25.1 -4.1 25.05 -4.25 24.95 -4.4 24.85 -4.5 24.8 -4.6 24.75 -4.7 24.7 -4.75 24.65 -5.0 24.5 -5.25 24.3 -5.5 24.15 -5.75 23.95 -5.95 23.75 -6.2 23.55 -6.4 23.4 -6.6 23.2 -6.8 23.0 -7.0 22.8 -7.15 22.6 -7.35 22.35 -7.55 22.15 -7.75 21.9 -7.9 21.7 -8.2 21.4 -8.4 21.2 -8.55 20.95 -8.75 20.75 -8.9 20.5 -9.1 20.25 -9.3 20.0 -9.5 19.7 -9.7 19.45 -9.9 19.15 -10.1 18.85 -10.3 18.5 -10.5 18.2 -10.7 17.85 -10.95 17.5 -11.15 17.15 -11.35 16.8 -12.6 14.8 -13.65 12.95 -13.95 12.45 -14.15 12.1 -14.4 11.65 -14.55 11.35 -14.75 11.0 -14.9 10.75 -15.05 10.45 -15.15 10.25 -15.25 10.0 -15.35 9.8 -15.4 9.6 -15.45 9.4 -15.5 9.25 -15.55 9.05 -15.6 8.85 -15.65 8.65 -15.7 8.45 -15.7 8.25 -15.7 8.05 -15.75 7.85 -15.75 7.65 -15.75 7.5 -15.75 7.3 -15.75 7.1 -15.7 6.95 -15.7 6.75 -15.7 6.55 -15.7 6.35 -15.65 6.2 -15.65 5.95 -15.6 5.85 -15.6 5.55 -15.6 5.4 -15.55 5.35 -15.55 5.2 -15.5 5.05 -15.5 4.85 -15.45 4.7 -15.4 4.5 -15.4 4.25 -15.3 4.0 -15.25 3.75 -15.2 3.5 -15.1 3.2 -15.05 2.9 -14.95 2.55 -14.85 2.2 -14.7 1.85 -14.65 1.7 -14.6 1.5 -14.5 1.25 -14.45 1.0 -14.35 0.7 -14.2 0.4 -14.1 0.05 -13.95 -0.3 -13.8 -0.7 -13.65 -1.1 -13.45 -1.5 -13.25 -1.95 -13.05 -2.4 -12.8 -2.9 -12.6 -3.4 -12.3 -3.9 -12.1 -4.35 -11.85 -4.75 -11.7 -5.05 -11.5 -5.35 -11.4 -5.6 -11.25 -5.8 -11.25 -5.75 -11.0 -6.2 -10.9 -6.4 -10.8 -6.55 -10.7 -6.7 -10.65 -6.85 -10.55 -7.05 -10.45 -7.25 -10.35 -7.45 -10.3 -7.7 -9.7 -9.6 -9.05 -11.5 -8.95 -11.8 -8.95 -11.8 -8.9 -12.0 -8.85 -12.1 -8.8 -12.25 -8.75 -12.4 -8.7 -12.55 -8.65 -12.65 -8.6 -12.75 -8.55 -12.9 -8.5 -13.0 -8.4 -13.1 -8.35 -13.25 -8.25 -13.35 -8.2 -13.45 -8.1 -13.55 -7.95 -13.7 -7.85 -13.8 -7.7 -13.9 -7.55 -14.0 -7.4 -14.1 -7.25 -14.15 -7.15 -14.2 -7.0 -14.3 -6.85 -14.35 -6.7 -14.4 -6.6 -14.45 -6.45 -14.45 -6.35 -14.5 -6.2 -14.5 -6.1 -14.55 -6.0 -14.55 -6.2 -15.4 -6.6 -17.0 -6.5 -17.15 -6.4 -17.3 -6.3 -17.45 -6.15 -17.6 -6.05 -17.8 -5.9 -17.95 -5.75 -18.15 -5.6 -18.35 -5.45 -18.5 -5.25 -18.7 -5.1 -18.9 -4.9 -19.1 -4.7 -19.3 -4.5 -19.5 -4.3 -19.7 -4.1 -19.9 -3.8 -20.15 -3.55 -20.35 -3.3 -20.55 -3.05 -20.7 -2.85 -20.85 -2.55 -21.0 -2.35 -21.15 -2.0 -21.35 -1.75 -21.45 -1.35 -21.7 -0.7 -22.0 -0.5 -22.1 0.05 -22.4 0.55 -22.65 1.15 -23.0 1.85 -23.35 2.05 -23.45 2.3 -23.6 2.65 -23.8 3.0 -23.95 3.45 -24.2 3.9 -24.45 4.45 -24.7 4.95 -24.95 5.55 -25.2 6.1 -25.4 6.7 -25.65 7.25 -25.8 7.85 -26.0 8.35 -26.1 8.9 -26.25 9.35 -26.25 9.4 -26.25 9.45 -26.25 9.5 -26.25 9.55 -26.25 9.6 -26.25 9.65 -26.25 9.7 -26.25 9.75 -26.25 9.8 -26.25 9.9 -26.2 9.95 -26.2 10.0 -26.2 10.05 -26.2 10.1 -26.15 10.2 -26.15 10.25 -26.1 10.4 -26.05 10.55 -25.95 10.7 -25.85 10.8 -25.7 10.95 -25.6 11.05 -25.4 11.15 -25.3 11.2 -25.1 11.3 -24.95 11.4 -24.75 11.45 -24.6 11.55 -24.4 11.6 -24.2 11.7 -23.95 11.85 -23.5 11.85 -23.55 11.9 -23.35 13.15 -20.35 14.9 -16.2 15.15 -15.8 15.1 -15.85 15.3 -15.6 15.35 -15.5 15.4 -15.4 15.5 -15.3 15.55 -15.15 15.6 -15.05 15.65 -14.95 15.7 -14.8 15.75 -14.7 15.8 -14.55 15.8 -14.4 15.85 -14.3 15.85 -14.15 15.85 -14.0 15.8 -13.85 15.8 -13.75 15.75 -13.7 15.75 -13.6 15.7 -13.55 15.7 -13.45 15.65 -13.4 15.6 -13.3 15.55 -13.25 15.55 -13.2 15.5 -13.1 15.45 -13.05 15.4 -13.0 15.35 -12.95 15.25 -12.85 15.25 -12.85 15.15 -12.75 13.05 -10.35 12.8 -9.75 L12.8 -9.75" fill="#2a2a2a" fill-rule="evenodd" stroke="none"/>
  </g>
</svg>
