<?xml version="1.0" encoding="UTF-8" standalone="no"?>
<svg xmlns:xlink="http://www.w3.org/1999/xlink" height="200.0px" width="200.0px" xmlns="http://www.w3.org/2000/svg">
  <g transform="matrix(1.0, 0.0, 0.0, 1.0, 100.0, 100.0)">
    <path d="M-9.9 16.65 Q-8.45 18.3 -5.8 21.35 -5.75 21.45 -5.65 21.5 -5.55 21.6 -5.5 21.7 -5.4 21.8 -5.3 21.9 -5.2 22.0 -5.05 22.1 -4.95 22.2 -4.85 22.3 -4.7 22.4 -4.55 22.5 -4.45 22.6 -4.3 22.7 -4.15 22.8 -4.0 22.9 -3.7 23.1 -3.35 23.25 -3.05 23.45 -2.7 23.55 -2.4 23.7 -2.1 23.8 -1.8 23.9 -1.45 24.0 -1.2 24.1 -0.85 24.15 -0.55 24.2 -0.25 24.25 0.05 24.3 0.35 24.35 0.6 24.4 0.95 24.45 2.2 24.6 5.45 24.5 5.9 24.5 6.3 24.45 6.65 24.45 7.0 24.45 7.3 24.4 7.6 24.4 7.85 24.35 8.1 24.35 8.3 24.35 8.45 24.3 8.65 24.3 8.75 24.25 8.9 24.25 9.0 24.2 9.05 24.2 9.15 24.2 9.4 24.15 9.65 24.05 9.9 24.0 10.15 23.9 10.35 23.85 10.6 23.75 10.8 23.7 11.0 23.6 11.2 23.55 11.35 23.45 11.55 23.4 11.7 23.3 11.85 23.2 12.05 23.15 12.15 23.05 12.3 23.0 12.3 23.1 12.25 23.2 12.25 23.3 12.2 23.4 12.2 23.5 12.15 23.6 12.15 23.7 12.1 23.8 12.1 23.95 12.05 24.05 12.0 24.2 11.95 24.3 11.95 24.45 11.9 24.55 11.85 24.7 11.8 24.85 11.7 25.1 11.7 25.15 11.65 25.3 11.6 25.4 11.55 25.5 11.5 25.6 11.5 25.75 11.45 25.8 11.4 25.9 11.35 26.0 11.3 26.1 11.25 26.15 11.25 26.25 11.2 26.3 11.15 26.4 11.1 26.45 11.05 26.55 11.0 26.6 10.9 26.7 10.85 26.75 10.75 26.85 10.65 26.95 10.5 27.05 10.35 27.15 10.2 27.25 10.05 27.35 9.9 27.45 9.7 27.55 9.45 27.6 9.25 27.7 9.0 27.75 8.7 27.85 8.35 27.85 8.0 27.85 7.6 27.9 7.25 27.9 6.85 27.9 6.5 27.9 6.1 27.9 5.7 27.9 5.35 27.9 4.95 27.85 4.55 27.85 4.15 27.85 3.7 27.8 3.3 27.8 2.9 27.8 2.45 27.75 1.85 27.7 1.25 27.65 0.7 27.6 0.1 27.55 -0.45 27.5 -1.0 27.4 -1.55 27.35 -2.05 27.25 -2.6 27.15 -3.1 27.1 -3.65 27.0 -4.15 26.9 -4.65 26.8 -5.1 26.7 -5.6 26.6 -6.05 26.5 -6.2 26.3 -6.35 26.1 -6.55 25.9 -6.7 25.7 -6.85 25.45 -7.0 25.25 -7.2 24.95 -7.35 24.7 -7.55 24.45 -7.7 24.15 -7.9 23.85 -8.05 23.55 -8.2 23.2 -8.35 22.85 -8.55 22.5 -8.7 22.15 -8.85 21.75 -9.0 21.35 -9.15 20.95 -9.25 20.55 -9.35 20.15 -9.45 19.8 -9.55 19.45 -9.6 19.05 -9.65 18.75 -9.7 18.4 -9.75 18.1 -9.8 17.75 -9.85 17.5 -9.85 17.2 -9.85 16.95 -9.9 16.65 L-9.9 16.65" fill="#000000" fill-rule="evenodd" stroke="none"/>
  </g>
</svg>
