<?xml version="1.0" encoding="UTF-8" standalone="no"?>
<svg xmlns:xlink="http://www.w3.org/1999/xlink" height="200.0px" width="200.0px" xmlns="http://www.w3.org/2000/svg">
  <g transform="matrix(1.0, 0.0, 0.0, 1.0, 100.0, 100.0)">
    <path d="M-12.2 -2.05 Q-12.2 -2.25 -12.2 -3.45 -12.2 -4.35 -12.2 -4.9 -12.2 -5.0 -12.2 -5.1 -12.2 -5.2 -12.2 -5.3 -12.2 -5.4 -12.2 -5.5 -12.2 -5.6 -12.2 -5.7 -12.15 -5.8 -12.15 -5.9 -12.15 -6.1 -12.15 -6.1 -12.15 -6.25 -12.1 -6.3 -12.1 -6.4 -12.1 -6.5 -12.1 -6.7 -12.1 -6.8 -12.1 -7.0 -12.1 -7.15 -12.05 -7.3 -12.1 -7.45 -12.1 -7.6 -12.1 -7.75 -12.1 -7.95 -12.15 -8.1 -12.15 -8.25 -12.2 -8.4 -12.2 -8.55 -12.25 -8.7 -12.3 -8.85 -12.4 -9.0 -12.45 -9.15 -12.5 -9.25 -12.55 -9.4 -12.55 -9.55 -12.55 -9.65 -12.55 -9.8 -12.55 -9.95 -12.55 -10.05 -12.5 -10.2 -12.45 -10.3 -12.45 -10.45 -12.4 -10.55 -12.35 -10.7 -12.3 -10.8 -12.3 -10.9 -12.2 -11.05 -12.1 -11.3 -11.9 -11.8 -11.7 -12.3 -11.65 -12.55 -11.6 -12.65 -11.6 -12.75 -11.55 -12.85 -11.55 -12.95 -11.55 -13.0 -11.55 -13.1 -11.55 -13.2 -11.55 -13.3 -11.6 -13.4 -11.6 -13.5 -11.6 -13.6 -11.65 -13.7 -11.65 -13.9 -11.65 -13.9 -11.7 -14.0 -11.7 -14.1 -12.0 -16.15 -12.85 -21.95 -12.9 -22.2 -12.95 -22.7 -13.05 -23.2 -13.1 -23.45 -13.1 -23.55 -13.1 -23.65 -13.1 -23.75 -13.1 -23.85 -13.1 -23.95 -13.05 -24.05 -13.0 -24.15 -12.95 -24.25 -12.9 -24.35 -12.85 -24.4 -12.8 -24.5 -12.7 -24.55 -12.65 -24.65 -12.55 -24.7 -12.45 -24.75 -12.4 -24.8 -12.25 -24.85 -12.15 -24.9 -12.0 -24.95 -11.85 -25.0 -11.75 -25.0 -11.6 -25.05 -11.45 -25.1 -11.35 -25.15 -11.2 -25.15 -11.05 -25.2 -10.95 -25.25 -10.8 -25.25 -10.65 -25.3 -10.5 -25.3 -10.4 -25.35 -10.25 -25.35 -10.2 -25.35 -10.1 -25.35 -10.05 -25.35 -10.0 -25.35 -9.9 -25.35 -9.85 -25.35 -9.8 -25.35 -9.7 -25.35 -9.65 -25.3 -9.6 -25.25 -9.55 -25.25 -9.5 -25.2 -9.45 -25.15 -9.4 -25.1 -9.35 -25.05 -9.3 -24.95 -9.25 -24.9 -9.25 -24.8 -9.2 -24.7 -9.2 -24.65 -9.2 -24.55 -9.2 -24.5 -9.2 -24.4 -9.2 -24.3 -9.2 -24.25 -9.25 -24.15 -9.25 -24.1 -9.3 -24.0 -9.3 -23.95 -9.35 -23.9 -9.4 -23.8 -9.45 -23.75 -9.5 -23.7 -9.55 -23.65 -9.6 -23.6 -9.6 -23.55 -9.65 -23.5 -9.65 -23.5 -9.65 -23.45 -9.65 -23.4 -9.65 -23.35 -9.6 -23.35 -9.6 -23.3 -9.55 -23.25 -9.55 -23.25 -9.45 -23.2 -9.4 -23.2 -9.35 -23.15 -8.75 -23.0 -6.0 -22.45 -0.5 -21.45 3.0 -21.1 3.5 -21.05 4.0 -21.0 4.5 -20.95 4.95 -20.9 5.45 -20.9 5.95 -20.85 6.45 -20.85 6.95 -20.85 7.45 -20.8 7.95 -20.8 8.45 -20.8 8.9 -20.85 9.4 -20.85 9.9 -20.9 10.4 -20.9 10.9 -20.95 10.95 -20.95 11.0 -20.95 11.0 -20.95 11.05 -21.0 11.1 -21.0 11.1 -21.0 11.15 -21.0 11.15 -21.05 11.15 -21.05 11.2 -21.05 11.2 -21.1 11.2 -21.15 11.25 -21.15 11.25 -21.2 11.25 -21.2 11.25 -21.25 11.25 -21.4 11.35 -21.8 11.45 -22.1 11.45 -22.3 11.45 -22.45 11.55 -22.6 11.6 -22.75 11.7 -22.85 11.75 -23.0 11.9 -23.05 12.0 -23.1 12.15 -23.15 12.25 -23.2 12.4 -23.2 12.55 -23.2 12.7 -23.15 12.8 -23.15 12.95 -23.05 13.1 -23.0 13.25 -22.9 13.4 -22.75 13.55 -22.6 13.65 -22.5 13.75 -22.35 13.85 -22.2 13.9 -22.05 13.95 -21.9 13.95 -21.7 14.0 -21.55 13.95 -21.4 13.95 -21.25 13.9 -21.05 13.85 -20.9 13.75 -20.7 13.7 -20.55 13.55 -20.35 13.45 -20.2 13.2 -19.35 12.85 -18.15 12.4 -16.05 11.85 -13.55 11.6 -12.75 11.6 -12.65 11.55 -12.55 11.55 -12.45 11.55 -12.35 11.55 -12.25 11.55 -12.15 11.55 -12.05 11.55 -11.95 11.55 -11.9 11.55 -11.8 11.6 -11.7 11.6 -11.6 11.6 -11.5 11.65 -11.4 11.65 -11.35 11.7 -11.25 11.75 -11.1 11.8 -10.95 11.85 -10.8 11.9 -10.7 11.9 -10.55 11.95 -10.4 12.0 -10.25 12.0 -10.1 12.05 -9.95 12.05 -9.8 12.1 -9.65 12.1 -9.5 12.1 -9.35 12.1 -9.2 12.1 -9.05 12.05 -8.9 12.05 -8.75 12.0 -8.6 12.0 -8.4 11.95 -8.25 11.9 -8.1 11.8 -7.95 11.75 -7.85 11.7 -7.7 11.6 -7.55 11.5 -7.45 11.45 -7.3 11.35 -7.2 11.2 -7.1 11.1 -6.95 11.0 -6.85 10.85 -6.75 10.8 -6.7 10.75 -6.65 10.7 -6.65 10.65 -6.6 10.6 -6.55 10.55 -6.5 10.55 -6.45 10.5 -6.4 10.5 -6.35 10.45 -6.3 10.45 -6.2 10.4 -6.15 10.4 -6.1 10.4 -6.05 10.35 -6.0 10.35 -5.9 10.3 -5.65 10.3 -5.4 10.25 -5.15 10.2 -4.95 10.2 -4.7 10.15 -4.45 10.1 -4.2 10.1 -4.0 10.05 -3.75 10.05 -3.5 10.05 -3.25 10.0 -3.0 10.0 -2.75 10.0 -2.5 10.0 -2.25 10.0 -2.05 10.0 -1.4 10.0 -0.9 10.0 -0.3 10.0 0.25 10.0 0.85 10.0 1.35 10.0 1.95 10.05 2.5 10.05 3.1 10.1 3.65 10.15 4.2 10.2 4.75 10.25 5.35 10.3 5.9 10.35 6.45 10.45 7.0 10.5 7.4 10.6 7.75 10.7 8.15 10.8 8.5 10.9 8.9 11.05 9.25 11.2 9.6 11.35 9.95 11.5 10.3 11.7 10.6 11.9 10.95 12.1 11.25 12.3 11.6 12.55 11.9 12.8 12.2 13.05 12.5 13.15 12.6 13.2 12.7 13.3 12.75 13.4 12.85 13.5 12.95 13.6 13.05 13.9 13.35 13.75 13.2 13.9 13.3 13.95 13.4 14.05 13.5 14.15 13.55 14.25 13.65 14.3 13.75 14.4 13.85 14.45 13.95 14.55 14.05 14.6 14.2 14.65 14.3 14.75 14.4 14.8 14.55 14.85 14.65 14.85 14.75 14.9 14.9 14.95 15.0 14.95 15.15 14.95 15.25 15.0 15.4 15.0 15.5 15.0 15.65 15.0 15.75 15.0 15.9 15.0 16.1 14.95 16.3 14.95 16.5 14.95 16.7 14.9 16.9 14.9 17.1 14.9 17.3 14.9 17.5 14.85 17.7 14.85 17.9 14.85 18.1 14.85 18.3 14.85 18.5 14.8 18.7 14.8 18.9 14.8 19.1 14.8 19.25 14.8 19.35 14.75 19.5 14.75 19.6 14.7 19.75 14.65 19.85 14.65 19.95 14.55 20.05 14.5 20.15 14.45 20.2 14.35 20.3 14.3 20.4 14.2 20.45 14.1 20.55 14.0 20.6 13.9 20.65 13.6 20.8 13.3 20.95 13.0 21.1 12.7 21.25 12.4 21.4 12.05 21.5 11.75 21.65 11.45 21.75 11.15 21.85 10.8 21.95 10.5 22.05 10.15 22.1 9.85 22.2 9.5 22.25 9.2 22.3 8.85 22.35 8.3 22.45 7.75 22.5 7.2 22.55 6.65 22.6 6.1 22.65 5.6 22.7 5.05 22.7 4.5 22.7 3.95 22.7 3.4 22.7 2.85 22.65 2.3 22.6 1.75 22.55 1.2 22.5 0.65 22.4 0.1 22.3 -0.15 22.25 -0.35 22.2 -0.6 22.15 -0.85 22.1 -1.05 22.05 -1.3 22.0 -1.55 21.9 -1.75 21.85 -2.0 21.75 -2.2 21.7 -2.4 21.6 -2.65 21.5 -2.85 21.4 -3.05 21.3 -3.3 21.2 -3.5 21.05 -3.55 21.05 -3.6 21.0 -3.6 21.0 -3.65 21.0 -3.7 21.0 -3.75 21.0 -3.8 21.05 -3.8 21.05 -3.85 21.05 -3.9 21.1 -4.05 21.25 -4.2 21.35 -4.35 21.5 -4.55 21.55 -4.7 21.6 -4.85 21.65 -5.05 21.7 -5.2 21.7 -5.35 21.7 -5.55 21.65 -5.7 21.65 -5.9 21.55 -6.05 21.5 -6.25 21.45 -6.4 21.35 -6.6 21.25 -6.7 21.2 -6.8 21.15 -6.95 21.1 -7.05 21.05 -7.15 20.95 -7.25 20.9 -7.35 20.85 -7.5 20.8 -7.6 20.75 -7.7 20.65 -7.8 20.6 -7.9 20.55 -8.05 20.5 -8.15 20.4 -8.25 20.35 -8.35 20.3 -8.4 20.25 -8.45 20.25 -8.5 20.2 -8.55 20.15 -8.55 20.1 -8.6 20.05 -8.65 20.05 -8.65 20.0 -8.7 19.95 -8.75 19.9 -8.75 19.85 -8.75 19.8 -8.8 19.75 -8.8 19.7 -8.8 19.65 -8.85 19.6 -9.1 18.3 -9.55 16.35 -10.25 13.45 -10.3 13.15 -10.5 12.2 -10.7 11.25 -10.85 10.35 -11.05 9.4 -11.2 8.45 -11.35 7.5 -11.45 6.55 -11.6 5.6 -11.7 4.65 -11.8 3.7 -11.9 2.75 -11.95 1.8 -12.05 0.85 -12.1 -0.1 -12.15 -1.05 -12.2 -2.05 L-12.2 -2.05 M-5.25 18.65 Q-5.25 19.0 -4.95 20.05 -4.85 20.0 -4.7 19.9 -4.55 19.85 -4.45 19.8 -4.4 19.75 -4.35 19.75 -4.35 19.7 -4.35 19.7 -4.3 19.65 -4.3 19.6 -4.3 19.55 -4.35 19.5 -4.4 19.35 -4.5 19.05 -4.6 18.7 -4.65 18.55 -4.65 18.45 -4.75 18.15 -4.8 17.9 -4.8 17.75 -5.0 16.3 -5.05 15.9 -5.05 15.85 -5.05 15.8 -5.05 15.75 -5.1 15.75 -5.1 15.7 -5.15 15.7 -5.15 15.7 -5.15 15.65 -5.2 15.65 -5.25 15.65 -5.25 15.65 -5.3 15.6 -5.35 15.6 -5.35 15.6 -5.4 15.6 -5.4 15.55 -5.45 15.55 -5.5 15.55 -5.5 15.6 -5.55 15.6 -5.55 15.65 -5.55 15.7 -5.4 17.95 -5.25 18.65 L-5.25 18.65 M-11.45 -22.45 Q-11.45 -22.5 -11.5 -22.5 -11.5 -22.5 -11.5 -22.5 -11.45 -22.45 -11.45 -22.45 -11.5 -22.4 -11.45 -22.1 -10.75 -17.4 -10.35 -14.9 -10.35 -14.75 -10.3 -14.6 -10.3 -14.5 -10.25 -14.35 -10.25 -14.1 -10.2 -14.05 -10.2 -13.9 -10.15 -13.75 -10.15 -13.6 -10.15 -13.45 -10.15 -13.3 -10.15 -13.15 -10.15 -13.0 -10.15 -12.85 -10.15 -12.7 -10.15 -12.6 -10.2 -12.45 -10.2 -12.35 -10.25 -12.2 -10.25 -12.1 -10.3 -11.95 -10.35 -11.85 -10.4 -11.75 -10.45 -11.6 -10.45 -11.5 -10.5 -11.35 -10.55 -11.25 -10.6 -11.15 -10.65 -11.05 -10.7 -10.9 -10.8 -10.8 -10.85 -10.7 -10.9 -10.55 -10.95 -10.45 -11.0 -10.3 -11.05 -10.15 -11.05 -10.05 -11.1 -9.9 -11.1 -9.8 -11.05 -9.65 -11.05 -9.55 -11.05 -9.4 -11.0 -9.3 -10.95 -9.15 -10.9 -9.05 -10.85 -8.9 -10.8 -8.8 -10.7 -8.7 -10.65 -8.6 -10.65 -8.5 -10.65 -8.4 -10.6 -8.3 -10.6 -8.2 -10.6 -8.1 -10.6 -8.05 -10.65 -7.95 -10.65 -7.85 -10.65 -7.75 -10.65 -7.55 -10.65 -7.55 -10.7 -7.45 -10.7 -7.35 -10.7 -7.25 -10.7 -7.15 -10.65 0.0 -10.5 1.9 -10.1 6.4 -9.65 9.0 -9.1 12.2 -7.55 18.5 -7.5 18.65 -7.45 18.75 -7.45 18.9 -7.35 19.0 -7.3 19.1 -7.2 19.2 -7.15 19.3 -7.05 19.4 -6.95 19.5 -6.85 19.55 -6.75 19.6 -6.6 19.7 -6.5 19.75 -6.35 19.8 -6.25 19.85 -6.1 19.85 -6.15 19.55 -6.25 19.25 -6.3 18.95 -6.35 18.65 -6.4 18.35 -6.4 18.05 -6.45 17.75 -6.5 17.4 -6.5 17.1 -6.55 16.8 -6.55 16.5 -6.55 16.2 -6.6 15.9 -6.6 15.6 -6.6 15.3 -6.6 14.95 -6.6 14.9 -6.6 14.85 -6.6 14.8 -6.6 14.75 -6.6 14.65 -6.55 14.6 -6.55 14.55 -6.55 14.5 -6.5 14.45 -6.5 14.45 -6.45 14.4 -6.45 14.35 -6.4 14.3 -6.35 14.3 -6.3 14.25 -6.25 14.25 -6.2 14.25 -6.15 14.2 -6.1 14.2 -6.1 14.15 -6.05 14.15 -6.05 14.1 -6.0 14.1 -6.0 14.05 -6.0 14.05 -6.0 14.0 -6.0 13.95 -6.0 13.95 -6.0 13.9 -6.05 13.85 -6.0 13.85 -6.05 13.8 -6.25 13.05 -6.4 12.4 -6.6 11.65 -6.75 11.0 -6.95 10.25 -7.1 9.6 -7.25 8.85 -7.4 8.15 -7.55 7.45 -7.7 6.75 -7.8 6.05 -7.95 5.35 -8.05 4.6 -8.15 3.9 -8.25 3.15 -8.3 2.45 -8.35 1.75 -8.4 1.25 -8.45 0.55 -8.5 0.0 -8.55 -0.6 -8.6 -1.2 -8.6 -1.85 -8.6 -2.4 -8.6 -3.05 -8.6 -3.65 -8.6 -4.25 -8.5 -4.85 -8.45 -5.45 -8.35 -6.05 -8.25 -6.7 -8.15 -7.25 -8.15 -7.3 -8.15 -7.35 -8.1 -7.4 -8.1 -7.4 -8.1 -7.45 -8.15 -7.45 -8.15 -7.5 -8.15 -7.5 -8.15 -7.55 -8.2 -7.55 -8.2 -7.6 -8.25 -7.6 -8.25 -7.6 -8.3 -7.65 -8.35 -7.65 -8.4 -7.65 -8.5 -7.65 -8.55 -7.7 -8.65 -7.7 -8.75 -7.75 -8.8 -7.8 -8.9 -7.8 -8.95 -7.85 -9.05 -7.85 -9.15 -7.9 -9.2 -7.95 -9.3 -7.95 -9.4 -8.0 -9.45 -8.05 -9.55 -8.05 -9.6 -8.1 -9.7 -8.15 -9.75 -8.15 -9.8 -8.2 -9.8 -8.2 -9.85 -8.25 -9.9 -8.25 -9.9 -8.25 -9.95 -8.3 -9.95 -8.35 -10.0 -8.35 -10.0 -8.4 -10.0 -8.45 -10.05 -8.45 -10.05 -8.5 -10.05 -8.55 -10.05 -8.6 -10.05 -8.65 -9.7 -8.6 -8.95 -8.45 -9.0 -8.6 -9.0 -8.7 -9.05 -8.85 -9.05 -8.95 -9.1 -9.1 -9.1 -9.2 -9.1 -9.35 -9.1 -9.45 -9.05 -9.6 -9.05 -9.7 -9.05 -9.85 -9.0 -9.95 -8.95 -10.05 -8.9 -10.2 -8.85 -10.3 -8.8 -10.4 -8.75 -10.45 -8.75 -10.5 -8.75 -10.55 -8.7 -10.6 -8.7 -10.65 -8.7 -10.65 -8.7 -10.7 -8.7 -10.75 -8.7 -10.8 -8.7 -10.8 -8.7 -10.85 -8.75 -10.9 -8.75 -10.95 -8.8 -10.95 -8.85 -11.0 -8.9 -11.0 -8.85 -11.05 -8.8 -11.05 -8.8 -11.1 -8.75 -11.1 -8.7 -11.15 -8.65 -11.15 -8.65 -11.15 -8.6 -11.15 -8.55 -11.15 -8.5 -11.15 -8.45 -11.15 -8.4 -11.15 -8.35 -11.15 -8.35 -11.15 -8.3 -11.15 -8.3 -11.2 -8.25 -11.2 -8.25 -11.2 -8.2 -11.25 -8.2 -11.25 -8.2 -11.3 -8.2 -11.35 -8.2 -11.35 -8.2 -11.4 -8.2 -11.45 -8.2 -11.5 -8.2 -12.75 -8.2 -14.05 -8.2 -14.1 -8.15 -21.05 -8.15 -21.1 -8.15 -21.1 -8.15 -21.1 -8.15 -21.2 -8.15 -21.2 -8.15 -21.25 -8.15 -21.25 -8.15 -21.3 -8.15 -21.3 -8.15 -21.35 -8.2 -21.35 -8.2 -21.4 -8.25 -21.4 -8.25 -21.45 -8.3 -21.45 -8.35 -21.45 -9.15 -21.6 -10.7 -22.15 -10.75 -22.2 -10.8 -22.2 -10.85 -22.25 -10.9 -22.25 -10.95 -22.25 -10.95 -22.3 -11.0 -22.3 -11.05 -22.35 -11.1 -22.35 -11.15 -22.35 -11.2 -22.4 -11.25 -22.4 -11.3 -22.4 -11.35 -22.45 -11.4 -22.45 -11.45 -22.45 L-11.45 -22.45 M6.45 21.15 Q6.6 21.15 6.75 21.15 6.95 21.15 7.1 21.15 7.25 21.15 7.4 21.1 7.55 21.1 7.7 21.1 7.85 21.1 8.05 21.05 8.2 21.05 8.35 21.0 8.5 21.0 8.65 20.95 8.8 20.95 9.0 20.9 9.25 20.85 9.55 20.8 9.8 20.7 10.05 20.65 10.35 20.6 10.6 20.5 10.85 20.4 11.1 20.35 11.35 20.25 11.6 20.15 11.9 20.05 12.15 19.95 12.4 19.8 12.65 19.7 12.9 19.6 13.1 19.45 13.15 19.45 13.15 19.4 13.2 19.4 13.25 19.35 13.25 19.35 13.3 19.35 13.3 19.3 13.3 19.3 13.35 19.25 13.35 19.25 13.35 19.2 13.35 19.15 13.4 19.15 13.4 19.1 13.4 19.05 13.4 19.0 13.4 18.7 13.4 16.05 13.4 16.0 13.4 15.95 13.4 15.9 13.4 15.85 13.4 15.8 13.4 15.8 13.35 15.75 13.35 15.7 13.35 15.65 13.35 15.6 13.3 15.55 13.3 15.5 13.3 15.45 13.25 15.45 13.25 15.4 13.2 15.35 13.15 15.3 13.15 15.25 13.1 15.25 13.1 15.25 13.05 15.2 13.05 15.25 13.0 15.25 12.95 15.25 12.9 15.3 12.9 15.3 12.85 15.35 12.75 15.45 12.7 15.5 12.65 15.55 12.55 15.6 12.5 15.65 12.4 15.75 12.35 15.8 12.3 15.85 12.2 15.9 12.15 15.95 12.05 16.0 12.0 16.05 11.9 16.1 11.85 16.15 11.75 16.2 11.5 16.35 11.25 16.5 11.0 16.6 10.7 16.7 10.45 16.8 10.15 16.9 9.9 17.0 9.65 17.05 9.35 17.1 9.05 17.15 8.8 17.2 8.5 17.25 8.25 17.3 7.95 17.3 7.65 17.35 7.35 17.35 6.85 17.4 6.35 17.4 5.85 17.4 5.35 17.4 4.85 17.4 4.35 17.4 3.85 17.35 3.35 17.35 2.85 17.3 2.3 17.25 1.85 17.2 1.3 17.15 0.85 17.1 0.3 17.05 -0.15 17.0 -0.65 16.9 -0.85 16.85 -1.05 16.85 -1.2 16.8 -1.4 16.75 -1.6 16.75 -1.75 16.7 -1.95 16.65 -2.15 16.6 -2.3 16.6 -2.5 16.55 -2.7 16.5 -2.85 16.45 -3.05 16.4 -3.25 16.35 -3.4 16.3 -3.6 16.25 -3.7 16.2 -3.75 16.2 -3.8 16.2 -3.85 16.2 -3.9 16.2 -3.9 16.25 -3.95 16.3 -3.95 16.35 -3.95 16.4 -3.95 16.5 -3.65 18.2 -3.5 18.75 -3.45 18.85 -3.45 18.95 -3.4 19.1 -3.35 19.2 -3.3 19.25 -3.25 19.35 -3.15 19.45 -3.1 19.55 -3.05 19.6 -2.95 19.7 -2.9 19.75 -2.8 19.8 -2.7 19.9 -2.6 19.95 -2.5 20.0 -2.4 20.05 -2.3 20.1 -2.15 20.15 -2.05 20.2 -1.95 20.25 -1.8 20.3 -1.7 20.35 -1.6 20.4 -1.45 20.45 -1.35 20.5 -1.2 20.55 -1.1 20.55 -0.95 20.6 -0.85 20.65 -0.75 20.65 -0.6 20.7 -0.5 20.75 -0.1 20.85 0.35 20.9 0.75 21.0 1.2 21.05 1.6 21.1 2.05 21.15 2.45 21.2 2.85 21.2 3.3 21.25 3.7 21.25 4.15 21.25 4.55 21.25 4.95 21.25 5.4 21.25 5.8 21.2 6.25 21.2 6.3 21.2 6.35 21.2 6.4 21.2 6.45 21.15 L6.45 21.15 M6.35 -10.4 Q6.55 -10.45 6.7 -10.45 6.9 -10.5 7.05 -10.55 7.25 -10.6 7.4 -10.65 7.6 -10.7 7.75 -10.75 7.95 -10.8 8.1 -10.85 8.3 -10.9 8.45 -10.95 8.6 -11.05 8.8 -11.1 8.95 -11.15 9.15 -11.25 9.25 -11.3 9.35 -11.35 9.45 -11.45 9.55 -11.5 9.65 -11.55 9.7 -11.65 9.8 -11.7 9.85 -11.8 9.9 -11.9 9.95 -12.0 10.0 -12.1 10.05 -12.2 10.1 -12.3 10.15 -12.45 10.15 -12.55 10.2 -12.7 10.25 -13.0 10.3 -13.3 10.35 -13.65 10.45 -13.95 10.5 -14.25 10.55 -14.55 10.6 -14.85 10.7 -15.15 10.75 -15.5 10.85 -15.8 10.9 -16.1 10.95 -16.4 11.05 -16.7 11.1 -17.0 11.2 -17.3 11.25 -17.6 11.4 -18.15 11.8 -19.65 11.55 -19.6 11.25 -19.55 10.7 -19.5 10.2 -19.5 9.7 -19.45 9.15 -19.45 8.65 -19.4 8.1 -19.4 7.6 -19.4 7.05 -19.4 6.55 -19.4 6.05 -19.45 5.5 -19.45 5.0 -19.5 4.45 -19.5 3.95 -19.55 3.45 -19.6 2.9 -19.65 -0.85 -20.05 -5.95 -21.0 -6.05 -21.0 -6.1 -21.0 -6.15 -21.0 -6.15 -21.0 -6.2 -21.0 -6.2 -20.95 -6.2 -20.9 -6.25 -20.85 -6.25 -20.85 -6.25 -20.75 -6.35 -17.75 -6.35 -15.65 -6.35 -11.9 -6.15 -11.0 -6.15 -10.95 -6.15 -10.9 -6.1 -10.85 -6.1 -10.8 -6.1 -10.75 -6.1 -10.75 -6.05 -10.7 -6.05 -10.7 -6.0 -10.65 -5.95 -10.65 -5.95 -10.6 -5.9 -10.6 -5.85 -10.6 -5.8 -10.55 -5.8 -10.55 -5.75 -10.55 -5.4 -10.45 -5.05 -10.4 -4.7 -10.3 -4.35 -10.2 -3.95 -10.15 -3.65 -10.05 -3.25 -10.0 -2.9 -9.95 -2.55 -9.85 -2.2 -9.8 -1.85 -9.75 -1.5 -9.7 -1.15 -9.6 -0.75 -9.6 -0.4 -9.5 -0.05 -9.5 -0.15 -9.4 -0.15 -9.4 -0.3 -9.4 -0.35 -9.4 -0.75 -9.4 -1.1 -9.45 -1.45 -9.45 -1.8 -9.45 -2.2 -9.5 -2.55 -9.5 -2.9 -9.55 -3.25 -9.6 -3.65 -9.6 -4.0 -9.65 -4.35 -9.7 -4.7 -9.75 -5.05 -9.8 -5.4 -9.9 -5.75 -9.95 -6.1 -10.05 -6.15 -10.05 -6.15 -10.05 -6.2 -10.05 -6.25 -10.05 -6.25 -10.05 -6.3 -10.05 -6.35 -10.05 -6.35 -10.05 -6.4 -10.05 -6.4 -10.05 -6.45 -10.05 -6.45 -10.0 -6.5 -10.0 -6.5 -9.95 -6.55 -9.95 -6.55 -9.9 -6.6 -9.8 -6.65 -9.75 -6.7 -9.65 -6.75 -9.55 -6.8 -9.45 -6.85 -9.4 -6.85 -9.3 -6.9 -9.2 -6.9 -9.1 -6.9 -9.0 -6.95 -8.95 -6.95 -8.85 -6.95 -8.75 -6.95 -8.65 -6.95 -8.55 -6.9 -8.45 -6.9 -8.4 -6.9 -8.3 -6.85 -8.25 -6.85 -8.2 -6.85 -8.15 -6.8 -8.05 -6.75 -8.0 -6.75 -7.95 -6.7 -7.9 -6.65 -7.9 -6.6 -7.85 -6.55 -7.8 -6.5 -7.8 -6.4 -7.75 -6.35 -7.75 -6.25 -7.75 -4.65 -7.5 -4.45 -7.45 -4.45 -7.45 -2.7 -7.3 -2.75 -7.25 -2.75 -7.25 -2.8 -7.2 -2.85 -7.2 -2.85 -7.2 -2.9 -7.15 -2.95 -7.15 -2.95 -7.15 -3.0 -7.15 -3.0 -7.15 -3.05 -7.15 -3.1 -7.15 -3.1 -7.15 -3.15 -7.15 -3.2 -7.15 -3.2 -7.15 -5.2 -7.1 -6.1 -7.25 -6.2 -7.25 -6.25 -7.25 -6.3 -7.25 -6.35 -7.2 -6.4 -7.2 -6.4 -7.15 -6.45 -7.15 -6.45 -7.1 -6.45 -7.05 -6.5 -6.95 -6.5 -6.9 -6.65 -5.2 -6.7 -4.85 -6.7 -4.5 -6.75 -4.15 -6.75 -3.8 -6.8 -3.45 -6.8 -3.15 -6.8 -2.8 -6.85 -2.45 -6.85 -2.1 -6.85 -1.75 -6.85 -1.4 -6.8 -1.05 -6.8 -0.7 -6.8 -0.4 -6.75 -0.05 -6.7 0.3 -6.5 2.25 -5.9 5.75 -5.8 6.35 -5.7 6.9 -5.6 7.45 -5.5 8.0 -5.35 8.6 -5.25 9.15 -5.15 9.7 -5.0 10.25 -4.9 10.85 -4.75 11.35 -4.6 11.95 -4.45 12.5 -4.3 13.05 -4.15 13.6 -3.95 14.15 -3.8 14.7 -3.75 14.75 -3.75 14.8 -3.7 14.85 -3.7 14.9 -3.65 14.95 -3.65 15.0 -3.6 15.05 -3.55 15.1 -3.5 15.15 -3.45 15.15 -3.4 15.2 -3.35 15.2 -3.3 15.25 -3.25 15.25 -3.2 15.3 -3.15 15.3 -2.45 15.5 -1.75 15.65 -1.05 15.8 -0.3 15.9 0.4 16.0 1.1 16.1 1.8 16.2 2.5 16.25 3.25 16.3 3.95 16.35 4.65 16.35 5.4 16.35 6.1 16.35 6.8 16.3 7.55 16.3 8.25 16.25 8.5 16.25 8.7 16.2 8.95 16.15 9.15 16.1 9.35 16.05 9.6 16.0 9.8 15.95 10.0 15.9 10.2 15.8 10.4 15.75 10.65 15.65 10.8 15.55 11.0 15.45 11.2 15.3 11.4 15.2 11.6 15.05 11.7 14.95 11.8 14.85 11.9 14.75 11.95 14.65 12.05 14.5 12.05 14.4 12.1 14.3 12.1 14.15 12.15 14.05 12.1 13.95 12.1 13.8 12.05 13.7 12.0 13.55 11.95 13.45 11.9 13.3 11.8 13.2 11.45 12.8 11.2 12.4 10.9 12.05 10.65 11.6 10.4 11.2 10.2 10.75 9.95 10.35 9.8 9.9 9.6 9.45 9.5 9.0 9.35 8.55 9.2 8.05 9.1 7.6 9.0 7.1 8.95 6.65 8.9 6.15 8.6 3.55 8.55 -1.15 8.55 -1.65 8.55 -2.45 8.6 -3.6 8.6 -3.75 8.7 -4.15 8.8 -4.95 8.9 -5.8 8.95 -6.15 8.95 -6.25 8.95 -6.3 8.95 -6.35 8.95 -6.35 8.95 -6.4 8.9 -6.4 8.9 -6.45 8.85 -6.45 8.8 -6.45 8.7 -6.45 8.15 -6.4 6.4 -6.25 6.25 -6.3 6.25 -6.3 6.15 -6.35 6.1 -6.45 6.15 -6.45 6.15 -6.5 6.2 -6.5 6.2 -6.5 6.45 -6.55 6.65 -6.6 6.9 -6.65 7.1 -6.75 7.35 -6.8 7.55 -6.85 7.75 -6.95 8.0 -7.0 8.2 -7.1 8.4 -7.15 8.65 -7.25 8.85 -7.35 9.05 -7.4 9.25 -7.5 9.5 -7.6 9.7 -7.7 9.85 -7.8 10.0 -7.9 10.15 -8.0 10.25 -8.15 10.4 -8.25 10.5 -8.4 10.6 -8.55 10.65 -8.7 10.7 -8.85 10.75 -9.0 10.8 -9.15 10.85 -9.3 10.85 -9.45 10.85 -9.6 10.85 -9.8 10.8 -9.95 10.75 -10.1 10.75 -10.2 10.7 -10.3 10.65 -10.35 10.6 -10.45 10.55 -10.5 10.5 -10.55 10.4 -10.6 10.35 -10.65 10.3 -10.65 10.2 -10.65 10.1 -10.65 10.0 -10.65 9.9 -10.65 9.8 -10.65 9.7 -10.6 6.25 -9.75 5.3 -9.6 5.25 -9.6 5.2 -9.6 5.15 -9.6 5.1 -9.55 5.05 -9.55 5.0 -9.55 4.95 -9.55 4.9 -9.55 4.85 -9.55 4.85 -9.55 4.8 -9.55 4.75 -9.6 4.7 -9.6 4.65 -9.6 4.6 -9.6 4.55 -9.65 5.8 -10.1 6.35 -10.4 L6.35 -10.4 M-4.5 14.8 Q-4.6 14.45 -4.8 13.75 -5.0 13.05 -5.1 12.7 -6.15 8.95 -7.05 3.0 -7.1 2.6 -7.15 2.25 -7.25 1.85 -7.3 1.45 -7.35 1.1 -7.35 0.7 -7.4 0.3 -7.45 -0.05 -7.5 -0.45 -7.5 -0.8 -7.55 -1.2 -7.55 -1.6 -7.55 -2.0 -7.55 -2.35 -7.55 -2.75 -7.5 -3.15 -7.45 -3.95 -7.15 -7.1 -7.15 -7.1 -7.15 -7.15 -7.15 -7.2 -7.15 -7.25 -7.15 -7.25 -7.15 -7.3 -7.15 -7.35 -7.2 -7.35 -7.2 -7.35 -7.25 -7.4 -7.3 -7.4 -7.35 -7.4 -7.4 -7.4 -7.4 -7.35 -7.45 -7.3 -7.45 -7.3 -7.45 -7.25 -7.45 -7.2 -7.45 -7.15 -7.45 -7.15 -7.85 -5.15 -7.9 -4.3 -7.9 -3.7 -7.95 -3.15 -7.95 -2.55 -7.95 -1.95 -7.9 -1.4 -7.9 -0.8 -7.85 -0.25 -7.8 0.35 -7.8 0.9 -7.7 1.5 -7.65 2.1 -7.6 2.65 -7.55 3.25 -7.45 3.8 -7.35 4.4 -7.3 4.95 -6.75 8.4 -5.3 14.0 -5.25 14.1 -5.25 14.15 -5.2 14.25 -5.2 14.3 -5.15 14.4 -5.1 14.45 -5.05 14.5 -5.0 14.55 -4.95 14.6 -4.9 14.65 -4.85 14.65 -4.8 14.7 -4.75 14.75 -4.65 14.75 -4.6 14.8 -4.5 14.8 L-4.5 14.8 M-7.45 -21.25 Q-7.45 -21.1 -7.45 -21.05 -7.5 -17.8 -7.5 -13.25 -7.5 -12.9 -7.5 -12.25 -7.5 -11.55 -7.5 -11.25 -7.5 -11.15 -7.5 -11.1 -7.45 -11.05 -7.45 -11.0 -7.4 -10.95 -7.4 -10.95 -7.35 -10.9 -7.3 -10.9 -7.25 -10.9 -7.25 -10.9 -7.2 -10.85 -7.15 -10.85 -7.1 -10.85 -7.05 -10.85 -7.0 -10.9 -7.0 -10.9 -6.95 -10.9 -6.9 -10.9 -6.9 -10.9 -6.85 -10.95 -6.85 -10.95 -6.85 -11.0 -6.85 -11.0 -6.85 -11.05 -6.85 -11.05 -6.9 -11.1 -6.9 -11.15 -6.9 -11.15 -6.9 -11.2 -6.9 -11.2 -6.9 -11.25 -6.9 -11.25 -7.0 -12.3 -7.0 -12.35 -7.1 -17.15 -6.9 -20.7 -6.9 -20.8 -6.9 -20.85 -6.9 -20.9 -6.9 -20.95 -6.95 -21.0 -6.95 -21.05 -7.0 -21.1 -7.0 -21.15 -7.05 -21.2 -7.1 -21.2 -7.1 -21.25 -7.15 -21.25 -7.25 -21.25 -7.3 -21.25 -7.35 -21.25 -7.45 -21.25 L-7.45 -21.25 M-7.55 -8.05 Q-7.6 -8.2 -7.6 -8.35 -7.65 -8.5 -7.65 -8.65 -7.65 -8.8 -7.65 -8.95 -7.65 -9.05 -7.6 -9.2 -7.55 -9.35 -7.55 -9.5 -7.5 -9.6 -7.45 -9.75 -7.4 -9.9 -7.3 -10.0 -7.25 -10.15 -7.15 -10.25 -7.3 -10.3 -7.45 -10.35 -7.6 -10.35 -7.7 -10.4 -7.8 -10.4 -7.9 -10.4 -7.95 -10.35 -8.05 -10.35 -8.1 -10.3 -8.15 -10.25 -8.2 -10.15 -8.25 -10.05 -8.3 -9.95 -8.3 -9.85 -8.35 -9.7 -8.35 -9.55 -8.35 -9.5 -8.4 -9.45 -8.4 -9.4 -8.4 -9.4 -8.4 -9.35 -8.4 -9.3 -8.4 -9.2 -8.4 -9.1 -8.4 -9.0 -8.35 -8.9 -8.35 -8.8 -8.3 -8.7 -8.25 -8.6 -8.2 -8.5 -8.15 -8.45 -8.1 -8.35 -8.0 -8.3 -7.9 -8.25 -7.85 -8.2 -7.75 -8.15 -7.65 -8.1 -7.55 -8.05 L-7.55 -8.05" fill="#040404" fill-rule="evenodd" stroke="none"/>
    <path d="M-0.65 16.9 Q-0.55 17.15 -0.45 17.45 -0.35 17.7 -0.2 17.9 -0.05 18.15 0.1 18.35 0.25 18.55 0.45 18.75 0.65 18.95 0.85 19.15 1.05 19.3 1.25 19.45 1.5 19.6 1.75 19.75 2.0 19.85 2.25 20.0 2.5 20.1 2.75 20.2 2.95 20.3 3.2 20.35 3.45 20.45 3.7 20.5 3.95 20.6 4.2 20.65 4.45 20.7 4.65 20.75 4.9 20.85 5.15 20.85 5.45 20.9 5.7 20.95 5.95 21.0 6.2 21.0 6.2 21.0 6.25 21.0 6.3 21.0 6.35 21.0 6.4 21.0 6.4 21.05 6.4 21.05 6.45 21.15 6.4 21.2 6.35 21.2 6.3 21.2 6.25 21.2 5.8 21.2 5.4 21.25 4.95 21.25 4.55 21.25 4.1 21.25 3.7 21.25 3.3 21.25 2.85 21.2 2.45 21.2 2.05 21.15 1.6 21.1 1.2 21.05 0.75 21.0 0.35 20.9 -0.05 20.85 -0.5 20.75 -0.6 20.7 -0.75 20.7 -0.85 20.65 -1.0 20.6 -1.1 20.55 -1.2 20.55 -1.35 20.5 -1.45 20.45 -1.6 20.4 -1.7 20.35 -1.8 20.3 -1.95 20.25 -2.05 20.2 -2.15 20.15 -2.3 20.1 -2.4 20.05 -2.5 20.0 -2.6 19.95 -2.7 19.9 -2.8 19.8 -2.9 19.75 -2.95 19.7 -3.05 19.6 -3.1 19.55 -3.15 19.45 -3.25 19.35 -3.3 19.25 -3.35 19.2 -3.4 19.1 -3.45 18.95 -3.45 18.85 -3.5 18.75 -3.7 18.05 -3.95 16.5 -3.95 16.45 -3.95 16.4 -3.95 16.35 -3.95 16.3 -3.95 16.25 -3.95 16.25 -3.9 16.25 -3.9 16.2 -3.85 16.2 -3.85 16.2 -3.8 16.2 -3.75 16.2 -3.75 16.2 -3.7 16.2 -3.65 16.2 -3.6 16.25 -3.4 16.3 -3.25 16.35 -3.05 16.4 -2.85 16.45 -2.7 16.5 -2.5 16.55 -2.35 16.6 -2.15 16.6 -1.95 16.65 -1.8 16.7 -1.6 16.75 -1.4 16.75 -1.25 16.8 -1.05 16.85 -0.85 16.85 -0.65 16.9 L-0.65 16.9" fill="#000000" fill-opacity="0.30980393" fill-rule="evenodd" stroke="none"/>
    <path d="M6.35 -10.4 Q6.4 -10.45 6.4 -10.55 6.45 -10.6 6.5 -10.65 6.55 -10.7 6.6 -10.75 6.65 -10.8 6.7 -10.85 6.75 -10.9 6.8 -10.9 6.85 -10.95 6.9 -11.0 7.0 -11.1 7.0 -11.1 7.1 -11.15 7.15 -11.15 7.5 -11.4 7.8 -11.7 8.1 -12.0 8.35 -12.3 8.6 -12.6 8.85 -12.95 9.1 -13.25 9.3 -13.6 9.5 -13.95 9.7 -14.3 9.85 -14.7 10.05 -15.05 10.2 -15.45 10.3 -15.85 10.45 -16.2 10.55 -16.65 10.6 -16.9 11.25 -19.55 11.4 -19.55 11.8 -19.65 11.7 -19.35 11.25 -17.6 11.2 -17.3 11.1 -17.0 11.05 -16.7 10.95 -16.4 10.9 -16.1 10.8 -15.8 10.75 -15.45 10.7 -15.15 10.6 -14.85 10.55 -14.55 10.5 -14.25 10.45 -13.95 10.35 -13.65 10.3 -13.3 10.25 -13.0 10.2 -12.7 10.15 -12.55 10.15 -12.45 10.1 -12.3 10.05 -12.2 10.0 -12.1 9.95 -12.0 9.9 -11.9 9.85 -11.8 9.8 -11.7 9.7 -11.65 9.65 -11.55 9.55 -11.5 9.45 -11.45 9.35 -11.35 9.25 -11.3 9.15 -11.25 9.0 -11.15 8.8 -11.1 8.65 -11.05 8.45 -10.95 8.3 -10.9 8.1 -10.85 7.95 -10.8 7.75 -10.75 7.6 -10.7 7.4 -10.65 7.25 -10.6 7.05 -10.55 6.85 -10.5 6.7 -10.45 6.5 -10.45 6.35 -10.4 L6.35 -10.4" fill="#000000" fill-opacity="0.30980393" fill-rule="evenodd" stroke="none"/>
    <path d="M-10.7 -22.15 Q-10.1 -18.55 -10.05 -18.1 -9.7 -14.35 -9.85 -12.75 -9.85 -12.65 -9.9 -12.55 -9.9 -12.45 -9.9 -12.35 -9.95 -12.25 -9.95 -12.15 -10.0 -12.05 -10.0 -11.95 -10.05 -11.85 -10.05 -11.75 -10.1 -11.65 -10.1 -11.55 -10.15 -11.45 -10.2 -11.35 -10.2 -11.3 -10.25 -11.15 -10.3 -11.0 -10.35 -10.9 -10.4 -10.75 -10.45 -10.6 -10.45 -10.5 -10.5 -10.35 -10.55 -10.2 -10.55 -10.1 -10.6 -9.95 -10.6 -9.8 -10.65 -9.65 -10.65 -9.5 -10.65 -9.35 -10.65 -9.25 -10.65 -9.1 -10.65 -8.95 -10.65 -8.9 -10.65 -8.85 -10.65 -8.8 -10.65 -8.75 -10.65 -8.7 -10.7 -8.7 -10.8 -8.8 -10.85 -8.95 -10.9 -9.05 -10.95 -9.2 -11.0 -9.3 -11.05 -9.4 -11.05 -9.55 -11.05 -9.65 -11.1 -9.8 -11.1 -9.9 -11.05 -10.05 -11.05 -10.15 -11.0 -10.3 -10.95 -10.45 -10.9 -10.55 -10.85 -10.7 -10.8 -10.8 -10.75 -10.9 -10.65 -11.05 -10.6 -11.15 -10.55 -11.25 -10.5 -11.35 -10.45 -11.5 -10.45 -11.6 -10.4 -11.75 -10.35 -11.85 -10.3 -11.95 -10.3 -12.1 -10.25 -12.2 -10.2 -12.35 -10.2 -12.45 -10.15 -12.6 -10.1 -13.0 -10.35 -14.9 -11.25 -20.9 -11.45 -22.1 -11.45 -22.45 -11.45 -22.45 L-11.45 -22.45 Q-11.4 -22.45 -11.35 -22.45 -11.3 -22.4 -11.25 -22.4 -11.2 -22.4 -11.15 -22.35 -11.1 -22.35 -11.05 -22.35 -11.05 -22.3 -11.0 -22.3 -10.95 -22.25 -10.9 -22.25 -10.85 -22.2 -10.8 -22.2 -10.75 -22.2 -10.7 -22.15 L-10.7 -22.15" fill="#000000" fill-opacity="0.30980393" fill-rule="evenodd" stroke="none"/>
    <path d="M8.6 -3.75 Q8.55 -3.8 8.5 -3.85 8.5 -3.9 8.45 -3.95 8.4 -4.0 8.35 -4.1 8.35 -4.15 8.3 -4.2 8.3 -4.2 8.25 -4.3 8.2 -4.4 8.15 -4.45 8.15 -4.5 8.1 -4.55 8.05 -4.65 8.05 -4.7 8.0 -4.8 7.9 -4.85 7.85 -4.95 7.75 -5.05 7.7 -5.1 7.6 -5.2 7.55 -5.25 7.45 -5.3 7.4 -5.4 7.3 -5.45 7.2 -5.5 7.1 -5.6 7.05 -5.65 6.95 -5.7 7.3 -5.45 6.8 -5.85 6.8 -5.85 6.75 -5.9 6.7 -5.9 6.7 -5.95 6.65 -5.95 6.6 -5.95 6.6 -6.0 6.55 -6.0 6.55 -6.05 6.5 -6.05 6.5 -6.1 6.45 -6.1 6.45 -6.15 6.45 -6.15 6.4 -6.2 6.4 -6.25 7.85 -6.35 8.7 -6.45 8.8 -6.45 8.8 -6.45 8.9 -6.45 8.9 -6.4 8.95 -6.4 8.95 -6.35 8.95 -6.35 8.95 -6.3 9.0 -6.25 8.95 -6.15 8.9 -5.8 8.8 -4.95 8.7 -4.15 8.6 -3.75 L8.6 -3.75" fill="#000000" fill-opacity="0.30980393" fill-rule="evenodd" stroke="none"/>
    <path d="M-5.25 18.65 Q-5.45 17.9 -5.55 15.7 -5.55 15.65 -5.55 15.6 -5.5 15.6 -5.5 15.55 -5.45 15.55 -5.4 15.55 -5.4 15.55 -5.35 15.6 -5.3 15.6 -5.3 15.6 -5.25 15.65 -5.25 15.65 -5.2 15.65 -5.15 15.65 -5.15 15.65 -5.1 15.7 -5.1 15.7 -5.1 15.75 -5.05 15.75 -5.05 15.8 -5.05 15.85 -5.05 15.9 -5.0 16.25 -4.8 17.75 -4.8 17.9 -4.75 18.15 -4.65 18.45 -4.65 18.55 -4.75 18.5 -5.25 18.65 L-5.25 18.65" fill="#000000" fill-opacity="0.30980393" fill-rule="evenodd" stroke="none"/>
    <path d="M-11.45 -22.45 Q-11.45 -22.45 -11.5 -22.5 -11.5 -22.5 -11.5 -22.5 -11.45 -22.5 -11.45 -22.45 -11.45 -22.45 -11.45 -22.45 L-11.45 -22.45" fill="#9b9b9b" fill-rule="evenodd" stroke="none"/>
  </g>
</svg>
