<?xml version="1.0" encoding="UTF-8" standalone="no"?>
<svg xmlns:xlink="http://www.w3.org/1999/xlink" height="57.7px" width="32.5px" xmlns="http://www.w3.org/2000/svg">
  <g transform="matrix(1.0, 0.0, 0.0, 1.0, 16.25, 28.85)">
    <path d="M1.35 19.3 Q1.45 19.3 1.55 19.3 1.7 19.3 1.8 19.25 1.85 19.25 1.95 19.25 2.05 19.2 2.15 19.2 2.25 19.15 2.35 19.15 2.5 19.1 2.55 19.1 2.65 19.05 2.75 19.0 2.9 19.0 3.0 18.95 3.2 18.9 3.35 18.9 3.55 18.9 3.7 18.9 3.85 18.9 4.0 18.95 4.15 18.95 4.3 19.0 4.4 19.0 4.6 19.05 4.8 19.1 4.9 19.1 5.1 19.15 5.25 19.2 5.45 19.2 5.65 19.25 6.1 19.3 6.55 19.25 6.9 19.25 7.3 19.2 7.6 19.15 7.9 19.05 8.1 19.0 8.5 18.9 8.8 18.8 8.95 18.75 9.2 18.7 9.4 18.7 9.6 18.7 9.8 18.75 10.0 18.8 10.15 18.95 10.25 19.0 10.35 19.1 10.4 19.2 10.45 19.25 10.5 19.35 10.55 19.45 10.6 19.5 10.65 19.65 10.7 19.75 10.7 19.85 10.75 19.95 10.85 20.05 10.9 20.15 11.0 20.3 11.1 20.4 11.25 20.55 11.4 20.65 11.5 20.75 11.65 20.85 11.75 20.9 11.85 20.95 12.0 21.0 12.05 21.05 12.2 21.1 12.4 21.15 12.45 21.2 12.6 21.25 12.7 21.3 12.85 21.4 13.0 21.45 13.15 21.55 13.3 21.7 13.4 21.8 13.5 21.9 13.6 21.95 13.7 22.05 13.8 22.15 13.85 22.25 13.95 22.35 14.0 22.45 14.1 22.5 14.15 22.6 14.2 22.7 14.3 22.8 14.35 22.9 14.4 23.0 14.45 23.05 14.5 23.15 14.65 23.35 14.7 23.45 14.8 23.65 14.85 23.8 14.95 23.95 15.05 24.1 15.1 24.3 15.2 24.45 15.25 24.65 15.3 24.8 15.35 25.0 15.4 25.15 15.4 25.35 15.45 25.55 15.45 25.75 15.4 25.95 15.4 26.0 15.4 26.1 15.4 26.2 15.35 26.3 15.35 26.4 15.3 26.55 15.3 26.7 15.25 26.85 15.2 27.0 15.1 27.2 15.05 27.35 14.95 27.5 14.8 27.7 14.7 27.85 14.55 28.0 14.35 28.15 14.3 28.2 14.3 28.2 14.25 28.25 14.15 28.3 14.1 28.35 14.0 28.4 13.9 28.45 13.75 28.5 13.6 28.55 13.45 28.6 13.25 28.65 13.05 28.7 12.85 28.75 12.6 28.8 12.3 28.85 12.0 28.85 11.75 28.85 11.5 28.85 11.3 28.9 11.05 28.85 10.85 28.85 10.65 28.85 10.45 28.85 10.25 28.8 10.05 28.8 9.85 28.75 9.7 28.75 9.5 28.7 9.35 28.7 9.15 28.65 8.75 28.6 8.8 28.6 7.9 28.45 7.25 28.4 7.9 28.45 6.15 28.3 5.45 28.2 4.5 28.05 4.05 28.0 3.75 27.95 3.25 27.85 2.85 27.8 2.35 27.7 1.85 27.65 1.3 27.5 0.75 27.4 0.2 27.3 -0.4 27.15 -1.05 27.0 -1.65 26.8 -2.3 26.6 -3.0 26.4 -3.65 26.2 -4.35 25.95 -5.0 25.7 -5.35 25.6 -5.85 25.4 -6.2 25.25 -6.65 25.05 -7.0 24.9 -7.35 24.75 -7.7 24.55 -8.05 24.4 -8.35 24.2 -8.65 24.0 -8.9 23.8 -9.2 23.6 -9.5 23.35 -9.75 23.1 -10.0 22.8 -10.2 22.55 -10.4 22.3 -10.6 22.1 -10.75 21.85 -10.9 21.6 -11.05 21.4 -11.2 21.15 -11.3 20.95 -11.45 20.7 -11.55 20.5 -11.65 20.3 -11.75 20.05 -11.8 19.9 -11.9 19.7 -11.95 19.55 -12.0 19.3 -12.15 18.85 -12.3 18.45 -12.4 18.0 -12.5 17.6 -12.6 17.15 -12.65 16.7 -12.75 16.3 -12.75 15.8 -12.8 15.35 -12.8 14.8 -12.85 14.35 -12.85 13.75 -12.85 13.2 -12.85 12.55 -12.8 12.1 -12.8 11.2 -12.8 10.7 -12.8 10.25 -12.75 10.0 -12.75 9.45 -12.7 8.9 -12.7 8.5 -12.7 7.9 -12.7 7.1 -12.65 5.15 -12.7 2.9 -12.7 1.6 -12.75 -0.5 -12.8 -2.55 -12.8 -3.35 -12.8 -4.75 -12.8 -5.7 -12.8 -6.8 -12.8 -7.65 -12.75 -8.55 -12.75 -9.35 -12.7 -10.1 -12.6 -10.8 -12.55 -11.55 -12.4 -12.2 -12.3 -12.9 -12.15 -13.65 -12.1 -13.9 -12.05 -14.15 -11.95 -14.4 -11.9 -14.65 -11.85 -14.9 -11.8 -15.1 -11.75 -15.3 -11.7 -15.55 -11.6 -15.7 -11.55 -15.9 -11.5 -16.1 -11.45 -16.25 -11.4 -16.4 -11.35 -16.55 -11.3 -16.7 -11.3 -16.85 -11.05 -16.7 -10.75 -16.6 -10.5 -16.45 -10.2 -16.35 -9.9 -16.2 -9.6 -16.05 -9.3 -15.95 -9.0 -15.8 -8.7 -15.7 -8.4 -15.55 -8.1 -15.45 -7.8 -15.35 -7.45 -15.2 -7.15 -15.1 -6.8 -15.0 -6.45 -14.85 -5.8 -14.65 -5.2 -14.45 -4.55 -14.3 -3.95 -14.1 -3.35 -13.95 -2.75 -13.85 -2.15 -13.7 -1.55 -13.6 -1.0 -13.5 -0.45 -13.4 0.1 -13.3 0.65 -13.25 1.15 -13.15 1.65 -13.1 2.15 -13.05 2.65 -13.05 2.65 -13.1 2.6 -13.25 2.55 -13.4 2.55 -13.55 2.5 -13.8 2.5 -14.0 2.45 -14.25 2.45 -14.5 2.45 -14.8 2.5 -15.05 2.5 -15.3 2.55 -15.55 2.65 -15.8 2.75 -16.0 2.9 -16.2 3.1 -16.3 3.15 -16.35 3.15 -16.35 3.2 -16.35 3.25 -16.4 3.3 -16.4 3.4 -16.4 3.5 -16.45 3.6 -16.45 3.75 -16.45 3.9 -16.45 4.05 -16.45 4.25 -16.45 4.45 -16.45 4.7 -16.4 5.0 -16.4 5.3 -16.35 5.6 -16.3 7.6 -16.0 8.1 -15.9 8.6 -15.9 9.05 -15.85 9.45 -15.85 9.8 -15.85 10.2 -15.9 10.05 -15.9 10.8 -15.95 11.15 -15.95 11.35 -15.95 11.65 -16.0 11.9 -15.95 12.15 -15.9 12.4 -15.8 12.65 -15.75 12.95 -15.55 13.05 -15.5 13.1 -15.45 13.2 -15.4 13.25 -15.35 13.35 -15.3 13.45 -15.25 13.5 -15.15 13.6 -15.1 13.7 -15.0 13.75 -14.95 13.85 -14.85 13.9 -14.75 14.0 -14.65 14.05 -14.55 14.1 -14.4 14.15 -14.3 14.25 -14.05 14.25 -13.85 14.25 -13.65 14.2 -13.4 14.15 -13.25 14.05 -13.0 13.95 -12.85 13.8 -12.55 13.65 -12.2 13.55 -12.05 13.45 -11.75 13.35 -11.5 13.2 -11.15 13.15 -10.8 13.05 -10.4 13.0 -10.0 13.0 -9.85 13.0 -9.65 13.0 -9.55 13.0 -9.3 13.0 -9.1 13.0 -9.0 13.0 -8.85 12.95 -8.75 12.95 -8.6 12.95 -8.5 12.9 -8.35 12.9 -8.25 12.85 -8.15 12.8 -8.1 12.7 -8.0 12.6 -7.95 12.55 -7.9 12.5 -7.9 12.45 -7.85 12.35 -7.85 12.3 -7.85 12.25 -7.85 12.2 -7.85 12.1 -7.85 12.05 -7.85 12.0 -7.9 11.95 -7.9 11.9 -7.9 11.85 -7.9 11.8 -7.95 11.8 -7.95 11.75 -7.95 11.55 -8.0 11.35 -8.05 11.15 -8.1 11.0 -8.1 10.85 -8.1 10.6 -8.1 10.5 -8.1 10.2 -8.1 9.9 -8.05 9.65 -8.05 9.3 -8.05 8.95 -8.05 8.5 -8.05 8.0 -8.1 7.45 -8.1 6.8 -8.15 6.1 -8.2 5.55 -8.3 5.0 -8.35 4.55 -8.45 4.15 -8.5 3.8 -8.6 3.6 -8.65 3.2 -8.7 2.9 -8.8 2.75 -8.85 2.5 -8.9 2.3 -8.9 2.1 -8.9 1.85 -8.9 1.6 -8.9 1.3 -8.85 1.0 -8.8 0.65 -8.75 0.35 -8.7 0.1 -8.6 -0.2 -8.5 -0.45 -8.4 -0.75 -8.3 -1.0 -8.2 -1.2 -8.1 -1.45 -7.95 -1.65 -7.85 -1.85 -7.75 -2.05 -7.6 -2.25 -7.5 -2.4 -7.35 -2.55 -7.25 -2.45 -7.05 -2.3 -6.85 -2.2 -6.65 -2.05 -6.5 -1.9 -6.25 -1.7 -6.05 -1.55 -5.85 -1.35 -5.65 -1.15 -5.45 -0.95 -5.25 -0.7 -5.05 -0.5 -4.85 -0.25 -4.65 0.05 -4.45 0.3 -4.25 0.6 -4.1 0.65 -4.1 0.7 -4.05 0.75 -4.0 0.8 -3.95 0.9 -3.9 1.0 -3.9 1.1 -3.8 1.2 -3.75 1.35 -3.7 1.5 -3.65 1.6 -3.6 1.75 -3.5 1.95 -3.45 2.1 -3.4 2.3 -3.3 2.45 -3.25 2.7 -3.15 2.95 -3.1 3.2 -3.05 3.45 -3.0 3.65 -2.95 3.9 -2.9 4.15 -2.9 4.4 -2.85 4.6 -2.85 4.85 -2.85 5.1 -2.8 5.35 -2.8 5.6 -2.8 5.9 -2.8 6.05 -2.8 6.45 -2.8 7.95 -2.75 11.35 -2.7 11.25 -0.65 11.0 3.45 10.75 3.5 10.5 3.55 10.25 3.6 10.0 3.6 9.7 3.65 9.45 3.7 9.15 3.7 8.9 3.75 8.6 3.8 8.3 3.8 8.0 3.8 7.7 3.85 7.35 3.85 7.05 3.85 6.75 3.85 6.4 3.85 5.9 3.85 5.4 3.85 4.95 3.8 4.45 3.8 4.0 3.75 3.55 3.7 3.15 3.65 2.7 3.55 2.3 3.5 1.9 3.4 1.55 3.35 1.15 3.25 0.8 3.2 0.45 3.1 0.1 3.0 -0.2 2.9 -1.15 3.5 -3.1 4.6 -2.15 5.7 -0.35 7.9 -0.2 7.95 -0.05 8.0 0.05 8.0 0.2 8.05 0.35 8.1 0.5 8.15 0.65 8.15 0.8 8.2 0.95 8.25 1.05 8.25 1.2 8.3 1.35 8.35 1.55 8.35 1.7 8.4 1.85 8.45 2.0 8.45 2.55 8.55 3.15 8.65 3.7 8.7 4.25 8.75 4.8 8.8 5.35 8.8 5.85 8.8 6.35 8.8 6.85 8.8 7.35 8.75 7.8 8.75 8.25 8.65 8.7 8.65 9.15 8.55 9.55 8.5 9.95 8.4 9.9 10.05 9.8 13.35 9.45 13.4 9.1 13.45 8.7 13.5 8.35 13.5 7.95 13.55 7.6 13.6 7.2 13.6 6.8 13.65 6.4 13.65 6.0 13.7 5.6 13.7 5.2 13.7 4.75 13.7 4.35 13.75 3.9 13.75 3.45 13.7 3.2 13.7 2.95 13.7 2.7 13.7 2.45 13.7 2.2 13.65 1.95 13.65 1.7 13.65 1.45 13.6 1.2 13.6 0.95 13.6 0.75 13.55 0.5 13.55 0.25 13.55 0.05 13.5 -0.2 13.5 -0.4 13.45 -1.4 14.1 -3.4 15.4 -2.4 16.45 -0.4 18.55 -0.35 18.6 -0.25 18.65 -0.15 18.75 -0.1 18.8 0.0 18.85 0.1 18.9 0.2 18.95 0.3 19.0 0.45 19.05 0.55 19.1 0.65 19.15 0.8 19.2 0.9 19.2 1.05 19.25 1.2 19.25 1.35 19.3 L1.35 19.3" fill="#333333" fill-rule="evenodd" stroke="none"/>
  </g>
</svg>
