<?xml version="1.0" encoding="UTF-8" standalone="no"?>
<svg xmlns:xlink="http://www.w3.org/1999/xlink" height="26.6px" width="23.4px" xmlns="http://www.w3.org/2000/svg">
  <g transform="matrix(1.0, 0.0, 0.0, 1.0, 0.0, 0.0)">
    <path d="M11.5 3.85 Q11.5 3.85 11.5 3.9 11.5 3.95 11.45 4.0 11.45 4.05 11.45 4.15 11.45 4.2 11.45 4.3 11.45 4.4 11.45 4.5 11.45 4.6 11.5 4.7 11.5 4.85 11.55 4.95 11.6 5.05 11.7 5.15 11.75 5.25 11.85 5.3 11.9 5.4 12.0 5.45 12.1 5.5 12.2 5.5 12.25 5.55 12.35 5.55 12.45 5.55 12.55 5.55 12.65 5.55 12.75 5.55 12.8 5.5 12.9 5.5 12.95 5.45 13.05 5.45 13.05 5.45 13.1 5.4 13.15 5.4 13.2 5.4 13.25 5.35 13.3 5.3 13.35 5.25 13.4 5.25 13.45 5.15 13.5 5.1 13.55 5.05 13.6 4.95 13.65 4.9 13.7 4.8 13.75 4.7 13.8 4.6 13.8 4.55 13.85 4.45 13.85 4.4 13.85 4.3 13.85 4.2 13.85 4.15 13.85 4.05 13.85 4.0 13.85 3.9 13.85 3.85 13.8 3.75 13.8 3.7 13.75 3.6 13.75 3.55 13.7 3.5 13.65 3.45 13.6 3.35 13.5 3.3 13.4 3.25 13.3 3.2 13.2 3.15 13.05 3.15 12.9 3.15 12.8 3.15 12.65 3.15 12.5 3.2 12.3 3.25 12.15 3.35 12.0 3.45 11.85 3.55 11.65 3.7 11.5 3.85 L11.5 3.85" fill="#cfc3ee" fill-rule="evenodd" stroke="none"/>
    <path d="M12.0 7.15 Q11.9 7.2 11.85 7.3 11.8 7.35 11.75 7.45 11.7 7.55 11.65 7.65 11.6 7.75 11.55 7.85 11.55 7.95 11.55 8.05 11.5 8.2 11.5 8.3 11.5 8.4 11.5 8.5 11.55 8.65 11.55 8.75 11.55 8.75 11.55 8.8 11.6 8.85 11.6 8.85 11.6 8.9 11.65 8.95 11.65 9.0 11.7 9.05 11.7 9.15 11.75 9.2 11.8 9.25 11.85 9.3 11.9 9.4 11.95 9.45 12.0 9.5 12.1 9.55 12.15 9.6 12.25 9.65 12.3 9.65 12.4 9.7 12.5 9.7 12.55 9.75 12.65 9.75 12.75 9.75 12.8 9.75 12.9 9.75 13.0 9.7 13.05 9.7 13.15 9.65 13.25 9.6 13.3 9.55 13.4 9.5 13.5 9.45 13.55 9.35 13.6 9.25 13.65 9.15 13.7 9.1 13.75 9.0 13.8 8.9 13.8 8.8 13.85 8.7 13.85 8.6 13.85 8.5 13.85 8.4 13.85 8.3 13.85 8.2 13.85 8.1 13.8 8.0 13.75 7.85 13.7 7.7 13.6 7.6 13.5 7.45 13.4 7.35 13.3 7.25 13.2 7.15 13.05 7.1 12.95 7.05 12.8 7.0 12.65 7.0 12.55 7.0 12.4 7.0 12.25 7.05 12.15 7.05 12.0 7.15 L12.0 7.15" fill="#cfc3ee" fill-rule="evenodd" stroke="none"/>
    <path d="M12.45 11.1 Q12.35 11.15 12.3 11.25 12.25 11.3 12.2 11.4 12.15 11.5 12.1 11.6 12.05 11.7 12.0 11.8 12.0 11.9 11.95 12.05 11.95 12.15 11.95 12.25 11.95 12.35 11.95 12.5 12.0 12.6 12.0 12.7 12.0 12.75 12.0 12.75 12.05 12.8 12.05 12.85 12.05 12.9 12.1 12.9 12.1 13.0 12.15 13.05 12.15 13.1 12.2 13.15 12.25 13.2 12.3 13.3 12.35 13.35 12.4 13.4 12.45 13.45 12.55 13.5 12.6 13.55 12.7 13.6 12.75 13.65 12.85 13.65 12.9 13.7 13.0 13.7 13.1 13.7 13.2 13.7 13.25 13.7 13.35 13.7 13.45 13.7 13.5 13.65 13.6 13.6 13.7 13.55 13.75 13.5 13.85 13.45 13.95 13.4 14.0 13.3 14.05 13.2 14.1 13.15 14.15 13.05 14.2 12.95 14.25 12.85 14.25 12.75 14.3 12.65 14.3 12.55 14.3 12.45 14.3 12.35 14.3 12.25 14.3 12.15 14.3 12.05 14.25 11.95 14.2 11.8 14.15 11.65 14.05 11.55 13.95 11.4 13.85 11.3 13.75 11.2 13.65 11.15 13.5 11.05 13.4 11.0 13.25 10.95 13.1 10.95 13.0 10.95 12.85 10.95 12.7 11.0 12.6 11.05 12.45 11.1 L12.45 11.1" fill="#cfc3ee" fill-rule="evenodd" stroke="none"/>
    <path d="M13.5 15.25 Q13.4 15.3 13.35 15.4 13.3 15.45 13.2 15.55 13.15 15.65 13.15 15.75 13.1 15.85 13.05 15.95 13.0 16.05 13.0 16.15 13.0 16.25 13.0 16.35 13.0 16.5 13.0 16.6 13.0 16.7 13.05 16.8 13.05 16.8 13.05 16.85 13.05 16.9 13.1 16.95 13.1 17.0 13.1 17.05 13.15 17.1 13.15 17.15 13.2 17.2 13.25 17.25 13.3 17.35 13.3 17.4 13.4 17.45 13.45 17.5 13.5 17.6 13.55 17.65 13.6 17.7 13.7 17.75 13.8 17.75 13.85 17.8 13.95 17.8 14.05 17.8 14.1 17.85 14.2 17.85 14.3 17.85 14.4 17.8 14.45 17.8 14.55 17.75 14.65 17.75 14.7 17.7 14.8 17.65 14.9 17.55 14.95 17.5 15.05 17.4 15.1 17.35 15.15 17.25 15.2 17.15 15.25 17.05 15.25 16.95 15.3 16.85 15.3 16.75 15.3 16.65 15.35 16.55 15.35 16.45 15.35 16.35 15.3 16.25 15.3 16.15 15.3 16.1 15.25 15.95 15.2 15.8 15.1 15.65 15.0 15.55 14.9 15.45 14.8 15.35 14.65 15.25 14.55 15.2 14.4 15.1 14.3 15.1 14.15 15.05 14.0 15.05 13.85 15.05 13.75 15.1 13.6 15.15 13.5 15.25 L13.5 15.25" fill="#cfc3ee" fill-rule="evenodd" stroke="none"/>
    <path d="M15.75 19.25 Q15.65 19.3 15.6 19.4 15.55 19.45 15.5 19.55 15.45 19.65 15.4 19.75 15.35 19.85 15.3 19.95 15.3 20.05 15.25 20.15 15.25 20.25 15.25 20.4 15.25 20.5 15.25 20.6 15.25 20.7 15.3 20.85 15.3 20.85 15.3 20.9 15.35 20.95 15.35 20.95 15.35 21.0 15.35 21.05 15.4 21.1 15.45 21.15 15.45 21.25 15.5 21.3 15.55 21.35 15.6 21.4 15.65 21.5 15.7 21.55 15.75 21.6 15.85 21.65 15.9 21.7 16.0 21.75 16.05 21.75 16.15 21.8 16.2 21.8 16.3 21.85 16.4 21.85 16.45 21.85 16.55 21.85 16.65 21.8 16.75 21.8 16.8 21.75 16.9 21.75 17.0 21.7 17.05 21.65 17.15 21.6 17.2 21.55 17.3 21.45 17.35 21.35 17.4 21.25 17.45 21.2 17.5 21.1 17.5 21.0 17.55 20.9 17.55 20.8 17.6 20.7 17.6 20.6 17.6 20.5 17.6 20.4 17.6 20.3 17.55 20.2 17.55 20.1 17.5 19.95 17.45 19.8 17.35 19.65 17.25 19.55 17.15 19.45 17.05 19.35 16.95 19.25 16.8 19.2 16.65 19.15 16.55 19.1 16.4 19.05 16.25 19.1 16.15 19.1 16.0 19.1 15.9 19.15 15.75 19.25 L15.75 19.25" fill="#cfc3ee" fill-rule="evenodd" stroke="none"/>
    <path d="M20.85 17.5 Q20.75 17.55 20.7 17.65 20.65 17.7 20.6 17.8 20.5 17.9 20.5 18.0 20.45 18.1 20.4 18.2 20.4 18.3 20.35 18.4 20.35 18.5 20.35 18.65 20.35 18.75 20.35 18.85 20.35 18.95 20.4 19.05 20.4 19.05 20.4 19.1 20.4 19.15 20.45 19.2 20.45 19.25 20.45 19.3 20.5 19.35 20.5 19.4 20.55 19.45 20.6 19.55 20.65 19.6 20.7 19.65 20.75 19.7 20.8 19.8 20.85 19.85 20.9 19.9 20.95 19.95 21.05 20.0 21.15 20.0 21.2 20.05 21.3 20.05 21.4 20.1 21.45 20.1 21.55 20.1 21.65 20.1 21.75 20.05 21.8 20.05 21.9 20.0 22.0 20.0 22.05 19.95 22.15 19.9 22.25 19.8 22.3 19.75 22.4 19.65 22.45 19.6 22.5 19.5 22.55 19.4 22.6 19.3 22.6 19.2 22.65 19.1 22.65 19.0 22.7 18.9 22.7 18.8 22.7 18.7 22.7 18.6 22.7 18.5 22.65 18.45 22.65 18.35 22.6 18.2 22.55 18.05 22.45 17.9 22.35 17.8 22.25 17.7 22.15 17.6 22.05 17.5 21.9 17.45 21.75 17.4 21.65 17.35 21.5 17.3 21.35 17.3 21.25 17.3 21.1 17.35 20.95 17.4 20.85 17.5 L20.85 17.5" fill="#cfc3ee" fill-rule="evenodd" stroke="none"/>
    <path d="M18.95 13.6 Q18.85 13.65 18.8 13.75 18.7 13.8 18.65 13.9 18.6 14.0 18.55 14.1 18.5 14.2 18.5 14.3 18.45 14.4 18.45 14.55 18.4 14.65 18.4 14.75 18.4 14.85 18.45 15.0 18.45 15.1 18.45 15.2 18.45 15.2 18.45 15.25 18.5 15.3 18.5 15.3 18.5 15.4 18.55 15.4 18.55 15.5 18.6 15.55 18.6 15.6 18.65 15.65 18.7 15.7 18.75 15.8 18.8 15.85 18.85 15.9 18.9 15.95 19.0 16.0 19.05 16.05 19.15 16.1 19.2 16.15 19.3 16.15 19.4 16.2 19.45 16.2 19.55 16.2 19.65 16.2 19.7 16.2 19.8 16.2 19.9 16.15 20.0 16.15 20.05 16.1 20.15 16.05 20.25 16.0 20.3 15.95 20.4 15.9 20.45 15.8 20.5 15.7 20.55 15.65 20.6 15.55 20.65 15.45 20.7 15.35 20.7 15.25 20.75 15.15 20.75 15.05 20.75 14.95 20.75 14.85 20.75 14.75 20.75 14.65 20.75 14.55 20.7 14.45 20.65 14.3 20.6 14.15 20.5 14.05 20.4 13.9 20.35 13.8 20.2 13.7 20.1 13.65 19.95 13.55 19.85 13.5 19.7 13.45 19.55 13.45 19.45 13.45 19.3 13.45 19.15 13.5 19.05 13.55 18.95 13.6 L18.95 13.6" fill="#cfc3ee" fill-rule="evenodd" stroke="none"/>
    <path d="M18.3 10.0 Q18.25 10.05 18.15 10.15 18.1 10.2 18.05 10.3 18.0 10.4 17.95 10.5 17.95 10.6 17.9 10.7 17.85 10.8 17.85 10.9 17.85 11.0 17.85 11.15 17.85 11.25 17.85 11.35 17.85 11.45 17.9 11.55 17.9 11.55 17.9 11.6 17.9 11.65 17.95 11.7 17.95 11.75 17.95 11.8 18.0 11.85 18.0 11.9 18.05 11.95 18.05 12.05 18.1 12.1 18.15 12.15 18.2 12.2 18.25 12.3 18.3 12.35 18.35 12.4 18.4 12.45 18.5 12.5 18.55 12.5 18.65 12.55 18.7 12.55 18.8 12.6 18.85 12.6 18.95 12.6 19.05 12.6 19.1 12.55 19.2 12.55 19.25 12.5 19.35 12.5 19.4 12.45 19.5 12.4 19.55 12.3 19.6 12.25 19.7 12.15 19.75 12.1 19.8 12.0 19.85 11.9 19.9 11.8 19.9 11.7 19.95 11.6 19.95 11.5 19.95 11.4 20.0 11.3 20.0 11.2 20.0 11.1 19.95 11.05 19.95 10.95 19.95 10.85 19.9 10.7 19.85 10.55 19.8 10.4 19.7 10.3 19.6 10.2 19.5 10.1 19.4 10.0 19.25 9.95 19.15 9.9 19.0 9.85 18.9 9.8 18.75 9.8 18.65 9.85 18.55 9.85 18.4 9.9 18.3 10.0 L18.3 10.0" fill="#cfc3ee" fill-rule="evenodd" stroke="none"/>
    <path d="M18.05 5.9 Q17.95 5.95 17.9 6.05 17.85 6.1 17.75 6.2 17.7 6.3 17.65 6.4 17.6 6.5 17.6 6.6 17.55 6.7 17.55 6.8 17.55 6.9 17.55 7.05 17.55 7.15 17.55 7.25 17.55 7.35 17.6 7.45 17.6 7.45 17.6 7.5 17.6 7.55 17.6 7.6 17.65 7.65 17.65 7.7 17.7 7.75 17.7 7.8 17.75 7.85 17.75 7.95 17.8 8.0 17.85 8.05 17.9 8.1 17.95 8.15 18.05 8.25 18.1 8.3 18.15 8.35 18.25 8.4 18.3 8.4 18.4 8.45 18.5 8.45 18.55 8.45 18.65 8.5 18.75 8.5 18.85 8.5 18.9 8.45 19.0 8.45 19.1 8.4 19.2 8.4 19.25 8.35 19.35 8.3 19.4 8.2 19.5 8.15 19.55 8.05 19.6 8.0 19.65 7.9 19.7 7.8 19.75 7.7 19.8 7.6 19.8 7.5 19.85 7.4 19.85 7.3 19.85 7.2 19.85 7.1 19.85 7.0 19.85 6.9 19.85 6.8 19.8 6.75 19.75 6.6 19.7 6.45 19.65 6.3 19.55 6.2 19.45 6.1 19.3 6.0 19.2 5.9 19.1 5.85 18.95 5.8 18.8 5.75 18.7 5.7 18.55 5.7 18.4 5.7 18.3 5.75 18.15 5.8 18.05 5.9 L18.05 5.9" fill="#cfc3ee" fill-rule="evenodd" stroke="none"/>
    <path d="M18.5 1.85 Q18.4 1.9 18.35 2.0 18.25 2.05 18.2 2.15 18.15 2.25 18.1 2.35 18.05 2.45 18.05 2.55 18.0 2.65 18.0 2.75 18.0 2.85 18.0 3.0 17.95 3.1 18.0 3.2 18.0 3.3 18.0 3.4 18.0 3.4 18.0 3.45 18.05 3.5 18.05 3.55 18.05 3.6 18.1 3.65 18.1 3.7 18.15 3.75 18.2 3.8 18.2 3.9 18.25 3.95 18.3 4.0 18.35 4.05 18.4 4.15 18.5 4.2 18.55 4.25 18.6 4.3 18.7 4.35 18.75 4.35 18.85 4.4 18.95 4.4 19.0 4.45 19.1 4.45 19.2 4.45 19.3 4.45 19.35 4.4 19.45 4.4 19.55 4.35 19.6 4.35 19.7 4.3 19.8 4.25 19.85 4.15 19.95 4.1 20.0 4.0 20.05 3.95 20.1 3.85 20.15 3.75 20.2 3.65 20.25 3.55 20.25 3.45 20.3 3.4 20.3 3.3 20.3 3.2 20.3 3.05 20.3 2.95 20.3 2.9 20.3 2.8 20.25 2.7 20.2 2.55 20.15 2.4 20.05 2.25 20.0 2.15 19.9 2.05 19.75 1.95 19.65 1.85 19.5 1.8 19.4 1.75 19.25 1.7 19.15 1.65 19.0 1.65 18.85 1.7 18.75 1.7 18.6 1.75 18.5 1.85 L18.5 1.85" fill="#cfc3ee" fill-rule="evenodd" stroke="none"/>
    <path d="M14.9 25.35 Q14.95 24.6 15.1 23.15 15.2 23.2 15.25 23.2 15.35 23.25 15.45 23.3 15.55 23.35 15.65 23.35 15.75 23.4 15.85 23.45 15.95 23.45 16.05 23.5 16.2 23.55 16.3 23.55 16.45 23.6 16.55 23.6 16.7 23.65 16.8 23.65 16.9 23.65 17.0 23.7 17.15 23.7 17.3 23.7 17.5 23.7 17.7 23.7 17.95 23.75 18.2 23.7 18.45 23.7 18.7 23.7 19.05 23.65 19.35 23.6 19.65 23.55 19.95 23.45 20.3 23.35 20.65 23.2 21.1 23.05 21.5 22.85 21.85 22.65 22.2 22.4 22.55 22.2 22.85 21.95 23.15 21.7 23.45 21.45 23.7 21.25 23.9 21.0 24.1 20.75 24.3 20.55 24.45 20.35 24.6 20.15 24.7 20.0 24.85 19.8 24.9 19.8 24.95 19.8 25.0 19.8 25.05 19.85 25.1 19.85 25.15 19.85 25.2 19.85 25.3 19.9 25.35 19.9 25.4 19.95 25.5 20.0 25.55 20.0 25.65 20.05 25.7 20.1 25.8 20.15 25.85 20.2 25.9 20.25 25.95 20.35 26.0 20.4 26.05 20.5 26.1 20.55 26.15 20.65 26.2 20.7 26.2 20.8 26.25 20.85 26.3 20.95 26.3 21.05 26.35 21.15 26.35 21.2 26.35 21.3 26.4 21.4 26.4 21.5 26.45 21.65 26.45 21.75 26.45 21.85 26.5 21.95 26.5 22.05 26.5 22.15 26.5 22.2 26.5 22.35 26.55 23.8 26.5 22.5 26.5 22.65 26.5 22.75 26.5 22.9 26.55 23.0 26.55 23.15 26.55 23.35 26.55 23.5 26.6 23.65 26.6 23.75 26.65 23.85 26.65 23.95 26.7 24.05 26.7 24.05 26.7 24.2 26.75 24.3 26.75 24.35 26.75 24.45 26.8 24.5 26.8 24.6 26.8 24.7 26.8 24.8 26.8 24.9 26.8 24.95 26.8 25.0 26.8 25.05 26.8 25.1 26.8 25.2 26.8 25.3 26.8 25.4 26.8 25.5 26.8 25.65 26.8 25.75 26.8 25.85 26.75 26.0 26.75 26.15 26.7 26.25 26.7 26.4 26.65 26.5 26.6 26.65 26.55 26.8 26.45 26.9 26.4 27.05 26.3 27.15 26.2 27.3 26.1 27.4 25.95 27.55 25.85 27.65 25.7 27.75 25.55 27.9 25.35 28.0 25.2 28.1 25.0 28.2 24.8 28.3 24.55 28.45 24.25 28.6 24.05 28.7 23.75 28.85 23.45 29.0 23.05 29.15 22.65 29.3 22.2 29.45 21.75 29.6 21.25 29.7 20.75 29.8 20.2 29.9 19.65 29.95 19.1 30.0 18.5 29.95 17.9 29.95 17.3 29.8 17.0 29.75 16.75 29.7 16.5 29.6 16.3 29.55 16.1 29.45 15.9 29.4 15.7 29.3 15.55 29.2 15.4 29.15 15.25 29.05 15.1 29.0 15.0 28.9 14.9 28.8 14.8 28.75 14.7 28.65 14.65 28.6 14.55 28.55 14.5 28.45 14.4 28.4 14.35 28.3 14.3 28.25 14.25 28.15 14.15 28.1 14.1 28.05 14.05 27.95 14.0 27.9 13.95 27.85 13.9 27.8 13.9 27.7 13.85 27.65 13.8 27.6 13.8 27.55 13.75 27.55 13.7 27.6 13.65 27.6 13.6 27.65 13.55 27.65 13.45 27.7 13.4 27.7 13.35 27.75 13.3 27.75 13.2 27.8 13.15 27.8 13.1 27.8 13.0 27.85 12.95 27.85 12.85 27.9 12.8 27.9 12.7 27.95 12.6 27.95 12.45 28.0 12.35 28.0 12.2 28.05 12.1 28.1 11.95 28.1 11.8 28.15 11.65 28.15 11.45 28.15 11.3 28.2 11.15 28.2 10.95 28.2 10.8 28.15 10.65 28.15 10.45 28.15 10.2 28.1 9.95 28.0 9.75 27.95 9.5 27.85 9.3 27.75 9.1 27.6 8.95 27.5 8.75 27.35 8.6 27.25 8.45 27.1 8.35 26.95 8.2 26.85 8.1 26.7 8.0 26.6 7.9 26.5 7.85 26.4 7.8 26.4 7.75 26.4 7.7 26.4 7.6 26.4 7.55 26.4 7.5 26.35 7.45 26.35 7.35 26.35 7.3 26.35 7.2 26.35 7.15 26.35 7.05 26.3 7.0 26.3 6.9 26.3 6.8 26.3 6.75 26.25 6.6 26.25 6.45 26.2 6.3 26.2 6.2 26.15 6.05 26.15 5.95 26.1 5.8 26.1 5.7 26.05 5.55 26.0 5.4 25.95 5.3 25.9 5.2 25.85 5.05 25.8 4.95 25.75 4.8 25.7 4.7 25.65 4.55 25.55 4.45 25.45 4.35 25.4 4.25 25.3 4.2 25.2 4.1 25.15 4.1 25.05 4.0 24.95 3.95 24.85 3.9 24.8 3.85 24.75 3.75 24.65 3.7 24.55 3.6 24.5 3.5 24.4 3.35 24.3 3.2 24.2 3.0 24.1 2.85 24.05 2.7 24.0 2.55 24.0 2.45 23.95 2.35 23.95 2.2 23.9 2.05 23.9 1.95 23.9 1.85 23.85 1.75 23.85 1.65 23.8 1.55 23.7 1.45 23.65 1.35 23.55 1.25 23.45 1.2 23.3 1.1 23.2 1.05 23.05 1.0 22.9 1.0 22.75 0.95 22.65 0.95 22.5 0.9 22.35 0.9 22.25 0.9 22.1 0.9 22.0 0.9 21.9 0.9 21.8 0.9 21.75 0.9 21.65 0.9 21.55 0.95 21.45 0.95 21.3 0.95 21.2 1.0 21.1 1.0 21.0 1.05 20.95 1.05 20.85 1.1 20.75 1.1 20.7 1.15 20.6 1.2 20.55 1.2 20.45 1.25 20.4 1.25 20.35 1.3 20.3 1.4 20.35 1.5 20.45 1.6 20.5 1.7 20.55 1.8 20.65 1.85 20.7 1.95 20.75 2.05 20.8 2.1 20.85 2.2 20.9 2.3 20.95 2.35 21.0 2.4 21.05 2.5 21.1 2.55 21.15 2.6 21.2 5.0 22.65 6.55 23.3 6.6 23.35 6.7 23.35 6.75 23.4 6.85 23.45 6.9 23.45 6.95 23.5 7.0 23.5 7.1 23.55 7.15 23.55 7.2 23.6 7.25 23.6 7.3 23.6 7.35 23.65 7.4 23.65 7.4 23.65 7.45 23.7 7.9 23.85 8.35 24.0 8.75 24.15 9.2 24.3 9.55 24.4 9.95 24.5 10.3 24.6 10.65 24.7 11.0 24.75 11.3 24.85 11.6 24.9 11.9 24.95 12.15 25.0 12.4 25.05 12.6 25.05 12.8 25.1 12.9 25.1 13.0 25.15 13.1 25.15 13.2 25.15 13.35 25.2 13.45 25.2 13.6 25.2 13.7 25.2 13.85 25.25 14.0 25.25 14.15 25.25 14.3 25.3 14.45 25.3 14.6 25.3 14.75 25.3 14.9 25.35 L14.9 25.35" fill="#cfc3ee" fill-rule="evenodd" stroke="none"/>
    <path d="M24.2 -4.0 Q23.95 -2.8 23.45 -0.5 23.7 -0.6 24.85 -1.1 25.15 -1.25 25.6 -1.4 26.05 -1.6 26.15 -1.65 26.45 -1.75 26.6 -1.85 26.8 -1.9 26.95 -2.0 27.1 -2.05 27.25 -2.1 27.35 -2.2 27.45 -2.25 27.55 -2.3 27.6 -2.4 27.7 -2.45 27.8 -2.55 27.9 -2.7 28.05 -2.85 28.1 -3.0 28.2 -3.15 28.3 -3.3 28.35 -3.45 28.4 -3.6 28.45 -3.75 28.5 -3.85 28.5 -4.0 28.55 -4.1 28.55 -4.25 28.6 -4.3 28.6 -4.4 28.6 -4.5 28.6 -4.55 28.6 -4.7 28.6 -4.85 28.65 -5.0 28.6 -5.15 28.6 -5.3 28.6 -5.45 28.6 -5.55 28.55 -5.7 28.55 -5.8 28.5 -5.9 28.5 -6.0 28.45 -6.1 28.45 -6.2 28.4 -6.25 28.4 -6.35 28.35 -6.4 26.9 -5.55 25.95 -4.95 25.55 -4.75 24.2 -4.0 L24.2 -4.0" fill="#cfc3ee" fill-rule="evenodd" stroke="none"/>
  </g>
</svg>
