<?xml version="1.0" encoding="UTF-8" standalone="no"?>
<svg xmlns:xlink="http://www.w3.org/1999/xlink" height="47.15px" width="68.1px" xmlns="http://www.w3.org/2000/svg">
  <g transform="matrix(1.0, 0.0, 0.0, 1.0, 34.1, 23.55)">
    <path d="M24.3 -20.05 L-30.6 -20.05 -30.6 20.1 30.5 20.1 30.5 -13.85 Q30.5 -20.05 24.3 -20.05 M24.3 -23.05 Q33.5 -23.05 33.5 -13.85 L33.5 23.1 -33.6 23.1 -33.6 -23.05 24.3 -23.05" fill="#d2a8ea" fill-rule="evenodd" stroke="none"/>
    <path d="M24.3 -20.05 Q30.5 -20.05 30.5 -13.85 L30.5 20.1 -30.6 20.1 -30.6 -20.05 24.3 -20.05" fill="#f5c3f3" fill-rule="evenodd" stroke="none"/>
    <path d="M24.3 -23.05 Q33.5 -23.05 33.5 -13.85 L33.5 23.1 -33.6 23.1 -33.6 -23.05 24.3 -23.05 24.3 -23.05 Z" fill="none" stroke="#9facbf" stroke-linecap="round" stroke-linejoin="round" stroke-width="1.0"/>
    <path d="M3.85 -7.15 Q3.9 -7.2 3.95 -7.25 4.0 -7.3 4.05 -7.35 4.15 -7.35 4.2 -7.4 4.25 -7.45 4.35 -7.45 4.4 -7.5 4.45 -7.5 4.55 -7.5 4.6 -7.55 4.7 -7.55 4.8 -7.55 4.85 -7.55 4.95 -7.55 5.05 -7.55 5.1 -7.55 5.2 -7.55 5.3 -7.55 5.35 -7.5 5.45 -7.5 5.5 -7.5 5.6 -7.45 5.65 -7.45 5.7 -7.4 5.75 -7.35 5.85 -7.35 5.9 -7.3 5.95 -7.25 6.0 -7.2 6.05 -7.15 L6.35 -6.15 6.1 -5.2 6.05 -5.15 1.65 0.75 1.85 1.05 6.0 6.85 6.25 7.8 5.95 8.9 Q5.9 8.95 5.85 9.0 5.75 9.05 5.7 9.1 5.65 9.15 5.6 9.15 5.5 9.2 5.45 9.25 5.4 9.25 5.3 9.3 5.25 9.3 5.15 9.3 5.1 9.35 5.0 9.35 4.95 9.35 4.85 9.35 4.75 9.35 4.65 9.35 4.55 9.35 4.5 9.3 4.4 9.3 4.3 9.25 4.25 9.25 4.15 9.2 4.1 9.15 4.0 9.1 3.95 9.05 3.9 9.0 3.8 8.95 3.75 8.9 3.7 8.8 3.65 8.75 L1.25 5.45 -0.45 3.15 -4.75 8.8 -4.75 8.9 Q-4.8 8.95 -4.9 9.0 -4.95 9.05 -5.0 9.1 -5.05 9.15 -5.15 9.15 -5.2 9.2 -5.25 9.25 -5.35 9.25 -5.4 9.3 -5.5 9.3 -5.55 9.3 -5.65 9.35 -5.7 9.35 -5.75 9.35 -5.85 9.35 -5.95 9.35 -6.0 9.35 -6.1 9.35 -6.15 9.3 -6.25 9.3 -6.3 9.3 -6.35 9.25 -6.45 9.25 -6.5 9.2 -6.55 9.15 -6.65 9.15 -6.7 9.1 -6.75 9.05 -6.8 9.0 -6.85 8.95 -6.9 8.9 -6.95 8.85 -7.0 8.8 -7.05 8.75 -7.1 8.65 -7.1 8.6 -7.15 8.55 -7.2 8.5 -7.2 8.4 -7.25 8.35 -7.25 8.3 -7.25 8.2 -7.3 8.15 -7.3 8.05 -7.3 8.0 -7.3 7.95 -7.3 7.85 -7.3 7.8 -7.3 7.7 -7.3 7.65 -7.3 7.55 -7.25 7.5 -7.25 7.45 -7.25 7.35 -7.2 7.3 -7.2 7.25 -7.15 7.2 -7.15 7.1 -7.1 7.05 -7.05 7.0 -7.05 6.95 -7.0 6.9 -6.95 6.85 L-6.9 6.85 -2.4 0.8 -6.7 -5.15 Q-6.75 -5.2 -6.8 -5.25 -6.8 -5.3 -6.85 -5.35 -6.9 -5.4 -6.9 -5.45 -6.95 -5.5 -6.95 -5.55 -7.0 -5.6 -7.0 -5.65 -7.0 -5.7 -7.05 -5.8 -7.05 -5.85 -7.05 -5.9 -7.05 -6.0 -7.05 -6.05 L-6.6 -7.15 Q-6.55 -7.2 -6.5 -7.25 -6.45 -7.3 -6.4 -7.35 -6.35 -7.35 -6.3 -7.4 -6.25 -7.45 -6.15 -7.45 -6.1 -7.5 -6.05 -7.5 -5.95 -7.5 -5.9 -7.55 -5.8 -7.55 -5.7 -7.55 -5.65 -7.55 -5.55 -7.55 -5.45 -7.55 -5.35 -7.55 -5.25 -7.55 -5.2 -7.55 -5.1 -7.5 -5.0 -7.5 -4.95 -7.5 -4.9 -7.45 -4.8 -7.45 -4.75 -7.4 -4.7 -7.35 -4.65 -7.35 -4.6 -7.3 -4.55 -7.25 -4.5 -7.2 -4.45 -7.15 L-0.4 -1.5 3.8 -7.15 3.85 -7.15 Z" fill="none" stroke="#d2a8ea" stroke-linecap="round" stroke-linejoin="round" stroke-width="1.0"/>
    <path d="M3.85 -7.15 Q4.25 -7.55 4.95 -7.55 5.65 -7.55 6.05 -7.15 L6.35 -6.15 6.1 -5.2 6.05 -5.15 1.65 0.75 6.0 6.85 6.25 7.8 5.95 8.9 Q5.5 9.35 4.85 9.35 4.05 9.35 3.65 8.75 L-0.45 3.15 -4.75 8.8 -4.75 8.9 Q-5.25 9.35 -5.85 9.35 -6.5 9.35 -6.9 8.9 -7.3 8.45 -7.3 7.85 -7.3 7.25 -6.95 6.85 L-6.9 6.85 -2.4 0.8 -6.7 -5.15 Q-7.05 -5.5 -7.05 -6.05 L-6.6 -7.15 Q-6.25 -7.55 -5.55 -7.55 -4.75 -7.55 -4.45 -7.15 L-0.4 -1.5 3.8 -7.15 3.85 -7.15" fill="#b067d6" fill-opacity="0.61960787" fill-rule="evenodd" stroke="none"/>
  </g>
</svg>
