<?xml version="1.0" encoding="UTF-8" standalone="no"?>
<svg xmlns:xlink="http://www.w3.org/1999/xlink" height="532.35px" width="1030.85px" xmlns="http://www.w3.org/2000/svg">
  <g transform="matrix(1.0, 0.0, 0.0, 1.0, 1133.1, 331.7)">
    <path d="M-1133.1 -331.7 L-102.25 -331.7 -102.25 200.65 -1133.1 200.65 -1133.1 -331.7" fill="#6b3c88" fill-opacity="0.60784316" fill-rule="evenodd" stroke="none"/>
    <path d="M-315.75 -294.1 L-315.7 -293.95 -315.2 -293.3 Q-313.6 -290.3 -313.6 -285.7 L-313.6 152.0 -313.7 154.4 -313.7 154.45 Q-314.0 156.6 -314.65 158.15 -317.25 166.85 -328.4 166.85 L-907.9 166.85 Q-919.05 166.85 -921.75 158.2 L-922.8 155.4 -923.1 153.95 -923.1 -285.7 Q-923.1 -297.85 -912.2 -299.25 L-912.0 -299.25 -909.4 -299.4 -327.3 -299.4 Q-319.3 -299.4 -316.0 -294.5 L-315.75 -294.1" fill="#f5c3f3" fill-opacity="0.65882355" fill-rule="evenodd" stroke="none"/>
    <path d="M-919.15 145.1 L-919.15 -287.85 Q-919.15 -296.4 -911.65 -297.5 L-909.4 -297.6 -327.3 -297.6 Q-321.6 -297.6 -319.25 -294.35 L-318.8 -293.7 -318.75 -293.65 Q-317.55 -291.35 -317.55 -287.85 L-317.55 145.1 -321.9 145.1 -321.9 -240.65 -321.9 -287.85 Q-321.9 -293.25 -327.3 -293.25 L-909.4 -293.25 Q-914.75 -293.25 -914.75 -287.85 L-914.75 -240.65 -914.75 145.1 -919.15 145.1" fill="#bfe5e7" fill-opacity="0.9490196" fill-rule="evenodd" stroke="none"/>
    <path d="M-914.75 145.1 L-914.75 -240.65 -321.9 -240.65 -321.9 145.1 -914.75 145.1" fill="#f5c3f3" fill-opacity="0.9490196" fill-rule="evenodd" stroke="none"/>
    <path d="M-914.75 -240.65 L-914.75 -287.85 Q-914.75 -293.25 -909.4 -293.25 L-327.3 -293.25 Q-321.9 -293.25 -321.9 -287.85 L-321.9 -240.65 -914.75 -240.65" fill="#d2a8ea" fill-opacity="0.9490196" fill-rule="evenodd" stroke="none"/>
    <path d="M-317.65 151.75 Q-317.85 153.45 -318.4 154.7 -320.45 160.7 -328.4 160.7 L-907.9 160.7 Q-915.9 160.7 -918.05 154.7 L-919.15 151.75 -317.65 151.75" fill="#bfe5e7" fill-rule="evenodd" stroke="none"/>
    <path d="M-317.55 145.1 L-317.55 145.6 -317.55 149.85 -317.65 151.75 -919.15 151.75 -919.15 145.1 -914.75 145.1 -321.9 145.1 -317.55 145.1" fill="#d2a8ea" fill-rule="evenodd" stroke="none"/>
    <path d="M-919.15 145.1 L-919.15 -287.85 Q-919.15 -296.4 -911.65 -297.5 L-909.4 -297.6 -327.3 -297.6 Q-321.6 -297.6 -319.25 -294.35 L-318.8 -293.7 -318.75 -293.65 Q-317.55 -291.35 -317.55 -287.85 L-317.55 145.1" fill="none" stroke="#889ab8" stroke-linecap="round" stroke-linejoin="round" stroke-width="1.0"/>
    <path d="M-914.75 -240.65 L-321.9 -240.65" fill="none" stroke="#9063e7" stroke-linecap="round" stroke-linejoin="round" stroke-width="1.0"/>
    <path d="M-317.55 145.6 L-317.55 149.85 -317.65 151.75 Q-317.85 153.45 -318.4 154.7 -320.45 160.7 -328.4 160.7 L-907.9 160.7 Q-915.9 160.7 -918.05 154.7 L-919.15 151.75 -919.15 145.1" fill="none" stroke="#9facbf" stroke-linecap="round" stroke-linejoin="round" stroke-width="1.0"/>
    <path d="M-919.15 145.1 L-914.75 145.1 -321.9 145.1 -317.55 145.1" fill="none" stroke="#9daabd" stroke-linecap="round" stroke-linejoin="round" stroke-width="1.0"/>
  </g>
</svg>
