<?xml version="1.0" encoding="UTF-8" standalone="no"?>
<svg xmlns:xlink="http://www.w3.org/1999/xlink" height="131.65px" width="253.1px" xmlns="http://www.w3.org/2000/svg">
  <g transform="matrix(1.0, 0.0, 0.0, 1.0, 148.55, -106.0)">
    <path d="M-19.85 106.5 L104.05 106.5 104.05 178.75 -19.85 178.75 -19.85 106.5" fill="#f5c3f3" fill-opacity="0.92941177" fill-rule="evenodd" stroke="none"/>
    <path d="M-148.05 106.5 L-24.15 106.5 -24.15 178.75 -148.05 178.75 -148.05 106.5" fill="#f5c3f3" fill-opacity="0.92941177" fill-rule="evenodd" stroke="none"/>
    <path d="M-19.85 184.05 L103.6 184.05 103.6 237.15 -19.85 237.15 -19.85 184.05" fill="#f5c3f3" fill-opacity="0.92941177" fill-rule="evenodd" stroke="none"/>
    <path d="M-147.85 184.05 L-24.45 184.05 -24.45 237.15 -147.85 237.15 -147.85 184.05" fill="#f5c3f3" fill-opacity="0.92941177" fill-rule="evenodd" stroke="none"/>
    <path d="M-19.85 106.5 L104.05 106.5 104.05 178.75 -19.85 178.75 -19.85 106.5 M-19.85 184.05 L103.6 184.05 103.6 237.15 -19.85 237.15 -19.85 184.05 M-148.05 106.5 L-24.15 106.5 -24.15 178.75 -148.05 178.75 -148.05 106.5 M-147.85 184.05 L-24.45 184.05 -24.45 237.15 -147.85 237.15 -147.85 184.05" fill="none" stroke="#9daabd" stroke-linecap="round" stroke-linejoin="round" stroke-width="1.0"/>
  </g>
</svg>
