<?xml version="1.0" encoding="UTF-8" standalone="no"?>
<svg xmlns:xlink="http://www.w3.org/1999/xlink" height="142.1px" width="124.2px" xmlns="http://www.w3.org/2000/svg">
  <g transform="matrix(1.0, 0.0, 0.0, 1.0, 62.45, 61.6)">
    <path d="M-61.95 -38.7 L-61.95 -61.1 61.25 -61.1 61.25 -38.7 -61.95 -38.7" fill="#d2a8ea" fill-opacity="0.9490196" fill-rule="evenodd" stroke="none"/>
    <path d="M61.25 -38.7 L61.25 -38.65 61.25 80.0 -61.95 80.0 -61.95 -38.65 -61.95 -38.7 61.25 -38.7 M61.25 -38.65 L-61.95 -38.65 61.25 -38.65" fill="#f5c3f3" fill-opacity="0.9490196" fill-rule="evenodd" stroke="none"/>
    <path d="M61.25 -38.7 L61.25 -38.65 61.25 80.0 -61.95 80.0 -61.95 -38.65 -61.95 -38.7 -61.95 -61.1 61.25 -61.1 61.25 -38.7" fill="none" stroke="#9dc0d0" stroke-linecap="round" stroke-linejoin="round" stroke-width="1.0"/>
    <path d="M-61.95 -38.65 L61.25 -38.65" fill="none" stroke="#8ebeff" stroke-linecap="round" stroke-linejoin="round" stroke-width="1.0"/>
    <path d="M-56.4 -34.3 L55.75 -34.3 55.75 74.9 -56.4 74.9 -56.4 -34.3" fill="#f5c3f3" fill-opacity="0.9490196" fill-rule="evenodd" stroke="none"/>
  </g>
</svg>
