<?xml version="1.0" encoding="UTF-8" standalone="no"?>
<svg xmlns:xlink="http://www.w3.org/1999/xlink" height="200.0px" width="200.0px" xmlns="http://www.w3.org/2000/svg">
  <g transform="matrix(1.0, 0.0, 0.0, 1.0, 100.0, 100.0)">
    <path d="M5.8 21.75 Q5.75 21.75 4.75 21.7 4.15 21.7 3.75 21.6 3.65 21.6 3.6 21.55 3.5 21.55 3.4 21.55 3.3 21.55 3.25 21.5 3.15 21.5 3.05 21.5 2.95 21.45 2.9 21.45 2.8 21.45 2.7 21.4 2.6 21.4 2.55 21.4 2.45 21.35 2.35 21.35 1.15 21.0 0.75 20.85 -0.25 20.55 -0.5 20.45 -0.55 20.45 -1.55 20.0 -1.6 20.0 -1.7 19.95 -1.75 19.95 -1.85 19.9 -1.9 19.9 -1.95 19.85 -2.05 19.8 -2.1 19.8 -2.15 19.75 -2.25 19.75 -2.3 19.7 -2.4 19.7 -2.45 19.65 -2.5 19.65 -2.6 19.6 -2.65 19.6 -2.85 19.5 -3.15 19.4 -3.65 19.2 -3.7 19.2 -3.75 19.2 -3.8 19.15 -3.85 19.15 -3.9 19.1 -3.95 19.1 -4.0 19.1 -4.0 19.05 -4.05 19.05 -4.1 19.05 -4.15 19.0 -4.2 19.0 -4.25 19.0 -4.3 18.95 -4.35 18.95 -4.4 18.95 -4.45 18.95 -4.55 18.9 -4.7 18.9 -4.8 18.85 -4.95 18.8 -5.05 18.8 -5.15 18.75 -5.3 18.7 -5.4 18.7 -5.5 18.65 -5.65 18.65 -5.75 18.6 -5.9 18.6 -6.0 18.55 -6.1 18.55 -6.25 18.5 -6.35 18.5 -6.8 18.4 -7.75 18.3 -8.65 18.15 -9.15 18.05 -10.25 17.8 -10.95 17.65 -11.05 17.6 -11.15 17.6 -11.25 17.55 -11.35 17.5 -11.45 17.5 -11.6 17.45 -11.7 17.4 -11.8 17.35 -11.9 17.35 -12.0 17.3 -12.1 17.25 -12.2 17.2 -12.3 17.15 -12.4 17.1 -12.5 17.1 -12.6 17.05 -13.8 16.4 -13.85 16.4 -13.95 16.35 -14.0 16.3 -14.1 16.3 -14.2 16.25 -14.25 16.15 -14.3 16.1 -14.35 16.05 -14.4 15.95 -14.5 15.9 -14.5 15.8 -14.55 15.75 -14.6 15.65 -14.65 15.55 -14.65 15.5 -14.7 15.4 -14.75 15.3 -14.75 15.2 -14.8 15.1 -14.8 15.0 -14.85 14.95 -14.85 14.85 -14.9 14.75 -14.9 14.65 -14.95 14.55 -14.95 14.5 -15.0 14.4 -15.0 14.3 -15.05 14.2 -15.1 14.1 -15.1 14.05 -15.15 13.95 -15.2 13.85 -15.2 13.8 -15.25 13.75 -15.25 13.75 -15.3 13.7 -15.3 13.65 -15.35 13.65 -15.35 13.65 -15.4 13.6 -15.4 13.6 -15.45 13.6 -15.45 13.6 -15.5 13.6 -15.55 13.65 -15.6 13.65 -15.65 13.65 -15.65 13.7 -15.75 13.75 -15.9 13.8 -16.0 13.9 -16.1 13.95 -16.2 14.0 -16.35 14.1 -16.45 14.15 -16.55 14.2 -16.65 14.3 -16.75 14.35 -16.9 14.45 -17.0 14.5 -17.1 14.6 -17.2 14.65 -17.3 14.75 -17.4 14.8 -17.45 14.85 -17.5 14.9 -17.55 14.9 -17.6 14.95 -17.7 14.95 -17.75 15.0 -17.8 15.0 -17.85 15.0 -17.9 15.0 -18.0 15.05 -18.05 15.05 -18.1 15.05 -18.2 15.05 -18.25 15.0 -18.3 15.0 -18.35 15.0 -19.6 14.7 -19.75 14.65 -19.85 14.6 -19.95 14.6 -20.05 14.55 -20.15 14.55 -20.25 14.5 -20.3 14.45 -20.4 14.45 -20.5 14.4 -20.6 14.35 -20.7 14.3 -20.8 14.3 -20.9 14.25 -21.0 14.2 -21.05 14.15 -21.15 14.1 -21.25 14.05 -21.4 13.95 -22.9 13.15 -22.95 13.15 -22.95 13.1 -23.0 13.1 -23.05 13.1 -23.1 13.1 -23.15 13.1 -23.2 13.05 -23.25 13.05 -23.3 13.0 -23.3 13.0 -23.35 12.95 -23.4 12.95 -23.4 12.9 -23.45 12.85 -23.45 12.8 -23.45 12.8 -23.5 12.75 -23.5 12.7 -23.5 12.65 -23.55 12.6 -23.55 12.55 -23.55 12.55 -23.6 12.5 -23.6 12.45 -23.65 12.35 -23.7 12.2 -23.75 12.05 -23.75 11.95 -23.8 11.8 -23.8 11.7 -23.85 11.55 -23.85 11.45 -23.85 11.3 -23.85 11.15 -23.85 11.05 -23.85 10.9 -23.85 10.75 -23.8 10.65 -23.8 10.5 -23.75 10.35 -23.65 10.1 -23.6 9.3 -23.6 9.2 -23.6 9.1 -23.55 9.0 -23.55 8.9 -23.55 8.8 -23.5 8.7 -23.5 8.6 -23.45 8.5 -23.45 8.4 -23.4 8.3 -23.4 8.2 -23.35 8.1 -23.3 8.0 -23.25 7.9 -23.25 7.8 -23.2 7.7 -23.05 7.35 -22.0 5.65 -21.75 5.2 -21.4 4.25 -21.35 4.05 -21.2 3.65 -21.05 3.25 -20.95 3.0 -20.9 2.8 -20.75 2.45 -20.65 2.05 -20.6 1.9 -20.4 1.45 -20.4 1.4 -20.35 1.3 -20.25 1.3 -20.2 1.3 -20.2 1.35 -20.15 1.35 -20.1 1.4 -20.1 1.4 -20.05 1.45 -20.05 1.5 -20.05 1.5 -20.05 1.55 -20.05 1.6 -20.05 1.65 -20.0 1.65 -20.0 1.65 -20.0 1.65 -19.95 1.7 -19.95 1.7 -19.9 1.7 -19.85 1.7 -19.8 1.7 -19.75 1.7 -19.75 1.7 -19.7 1.7 -19.65 1.7 -19.6 1.75 -19.6 1.75 -19.55 1.8 -19.55 1.85 -19.5 1.85 -19.5 1.9 -19.45 1.9 -19.45 1.95 -19.4 1.95 -19.4 2.0 -19.35 2.0 -19.3 2.0 -19.3 2.05 -19.25 2.05 -19.25 2.05 -19.2 2.05 -19.15 2.05 -19.1 2.05 -19.05 2.05 -19.0 2.05 -18.95 2.05 -18.95 2.1 -18.9 2.1 -18.85 2.15 -18.8 2.15 -18.8 2.2 -18.75 2.25 -18.75 2.3 -18.7 2.35 -18.7 2.4 -18.7 2.45 -18.7 2.5 -18.7 2.55 -18.7 2.6 -18.75 2.65 -18.75 2.7 -18.8 2.75 -18.8 2.75 -18.8 2.8 -18.85 2.85 -18.85 2.9 -18.85 2.95 -18.9 3.0 -18.9 3.0 -18.9 3.05 -18.95 3.15 -18.95 3.15 -18.95 3.2 -18.95 3.25 -19.0 3.3 -19.0 3.35 -19.15 3.75 -19.45 4.6 -19.75 5.45 -19.9 5.9 -20.1 6.3 -20.8 7.45 -20.85 7.55 -20.9 7.65 -20.95 7.7 -21.0 7.8 -21.1 7.9 -21.15 8.0 -21.2 8.1 -21.25 8.15 -21.3 8.25 -21.3 8.35 -21.35 8.45 -21.4 8.55 -21.45 8.65 -21.5 8.75 -21.55 8.85 -21.55 8.95 -21.55 9.0 -21.6 9.05 -21.6 9.1 -21.6 9.15 -21.6 9.2 -21.6 9.25 -21.6 9.3 -21.6 9.35 -21.6 9.45 -21.6 9.45 -21.6 9.5 -21.6 9.55 -21.6 9.65 -21.6 9.7 -21.65 9.75 -21.65 9.8 -21.65 9.9 -21.7 9.95 -21.7 10.05 -21.7 10.15 -21.75 10.2 -21.75 10.3 -21.65 9.55 -21.75 10.5 -21.75 10.6 -21.8 10.65 -21.8 10.75 -21.8 10.85 -21.8 10.95 -21.85 11.0 -21.85 11.1 -21.9 11.2 -21.9 11.25 -21.9 11.3 -21.9 11.35 -21.9 11.4 -21.85 11.45 -21.8 11.5 -21.5 11.65 -20.8 12.05 -20.15 12.4 -19.8 12.55 -19.35 12.7 -18.5 12.9 -18.45 12.9 -18.45 12.9 -18.4 12.95 -18.35 12.95 -18.35 12.95 -18.3 12.95 -18.25 12.95 -18.25 12.95 -18.2 12.95 -18.15 12.9 -18.15 12.9 -18.1 12.9 -18.1 12.85 -18.05 12.85 -18.0 12.85 -18.0 12.8 -17.1 12.15 -16.65 11.95 -16.55 11.9 -16.45 11.85 -16.35 11.8 -16.25 11.75 -16.15 11.75 -16.05 11.7 -15.95 11.65 -15.85 11.65 -15.75 11.6 -15.65 11.6 -15.55 11.55 -15.45 11.55 -15.35 11.55 -15.25 11.55 -15.15 11.55 -15.0 11.55 -14.9 11.55 -14.75 11.6 -14.65 11.65 -14.55 11.7 -14.45 11.75 -14.35 11.8 -14.25 11.85 -14.15 11.9 -14.05 11.95 -14.0 12.05 -13.9 12.15 -13.85 12.2 -13.75 12.3 -13.7 12.4 -13.6 12.5 -13.55 12.65 -13.5 12.75 -13.45 12.85 -13.4 13.0 -13.35 13.1 -13.3 13.2 -13.25 13.35 -13.2 13.45 -13.15 13.55 -13.15 13.7 -13.1 13.8 -13.05 13.9 -13.0 14.05 -13.0 14.15 -12.95 14.3 -12.9 14.4 -12.9 14.55 -12.9 14.6 -12.85 14.65 -12.8 14.7 -12.8 14.7 -12.75 14.75 -12.7 14.75 -12.65 14.8 -12.65 14.8 -12.4 14.9 -11.95 15.1 -11.45 15.35 -11.25 15.4 -11.2 15.4 -9.85 15.85 -9.55 15.95 -8.9 16.05 -7.3 16.3 -6.25 16.45 -6.15 16.45 -6.1 16.5 -6.0 16.5 -5.9 16.5 -5.85 16.5 -5.75 16.55 -5.65 16.55 -5.6 16.55 -5.5 16.6 -5.4 16.6 -5.3 16.65 -5.25 16.65 -5.15 16.65 -5.05 16.7 -5.0 16.7 -4.9 16.75 -4.75 16.8 -4.5 16.85 -4.25 16.9 -4.15 16.95 -3.3 17.15 -1.9 17.7 -1.6 17.8 -0.8 18.15 -0.15 18.4 0.25 18.55 0.4 18.6 0.55 18.65 0.7 18.7 0.8 18.75 0.95 18.8 1.1 18.85 1.25 18.9 1.4 18.95 1.55 19.0 1.65 19.05 1.8 19.1 1.95 19.15 2.1 19.2 2.25 19.2 2.4 19.25 2.55 19.3 2.8 19.35 3.05 19.4 3.3 19.5 3.55 19.5 3.75 19.55 4.0 19.6 4.25 19.65 4.5 19.65 4.75 19.7 5.0 19.7 5.25 19.75 5.5 19.75 5.75 19.75 6.0 19.75 6.25 19.75 6.5 19.75 9.4 19.5 9.7 19.45 9.85 19.45 10.45 19.35 10.9 19.25 11.2 19.2 11.3 19.2 11.4 19.15 11.55 19.15 11.65 19.1 11.75 19.1 11.85 19.1 11.95 19.05 12.05 19.05 12.15 19.0 12.3 18.95 12.4 18.95 12.5 18.9 12.6 18.85 12.7 18.85 12.8 18.8 12.9 18.75 13.0 18.7 13.1 18.7 13.15 18.65 13.25 18.65 13.35 18.6 13.45 18.55 13.5 18.55 13.6 18.5 13.7 18.45 13.75 18.45 13.85 18.4 13.95 18.35 14.0 18.3 14.1 18.3 14.2 18.25 14.25 18.2 14.35 18.15 14.5 18.1 14.6 18.05 14.75 17.95 14.85 17.9 14.95 17.85 15.1 17.75 15.2 17.7 15.3 17.65 15.4 17.55 15.5 17.45 15.65 17.4 15.75 17.3 15.85 17.25 15.95 17.15 16.05 17.05 16.2 16.95 16.3 16.8 16.4 16.7 16.55 16.6 16.65 16.45 16.75 16.35 16.9 16.25 17.0 16.1 17.1 16.0 17.2 15.85 17.3 15.7 17.45 15.6 17.55 15.45 17.65 15.3 17.75 15.2 17.8 15.05 18.1 14.6 18.6 13.85 18.65 13.75 18.7 13.65 18.75 13.6 18.85 13.5 18.9 13.4 18.95 13.3 19.0 13.25 19.05 13.15 19.1 13.05 19.2 13.0 19.25 12.9 19.3 12.8 19.35 12.75 19.45 12.65 19.5 12.55 19.55 12.5 19.65 12.35 19.75 12.25 19.9 12.1 20.0 11.95 20.1 11.85 20.25 11.7 20.35 11.6 20.5 11.45 20.6 11.35 20.75 11.25 20.85 11.1 21.0 11.0 21.15 10.9 21.25 10.8 21.4 10.7 21.55 10.6 21.6 10.55 21.6 10.55 21.65 10.5 21.7 10.5 21.75 10.5 21.75 10.45 21.8 10.4 21.8 10.4 21.85 10.35 21.85 10.3 21.85 10.3 21.85 10.25 21.85 10.2 21.85 10.15 21.75 9.9 21.6 9.2 21.45 8.55 21.3 8.2 21.25 8.05 21.2 7.95 21.2 7.8 21.15 7.7 21.1 7.55 21.05 7.45 21.0 7.3 20.95 7.15 20.9 7.05 20.85 6.9 20.8 6.8 20.75 6.65 20.7 6.55 20.65 6.4 20.6 6.3 20.55 6.15 20.45 5.9 20.1 5.1 19.8 4.45 19.6 4.05 19.0 2.55 18.95 2.45 18.9 2.4 18.9 2.35 18.9 2.3 18.95 2.3 18.95 2.25 19.05 2.2 19.1 2.2 19.15 2.15 19.15 2.15 19.2 2.1 19.25 2.1 19.3 2.05 19.35 2.0 19.35 1.95 19.4 1.95 19.45 1.9 19.45 1.85 19.5 1.8 19.5 1.75 19.55 1.7 19.55 1.7 19.6 1.65 19.6 1.6 19.65 1.55 19.65 1.55 19.65 1.5 19.7 1.5 19.7 1.5 19.75 1.5 19.8 1.5 19.8 1.5 19.85 1.5 19.9 1.5 19.9 1.5 19.95 1.5 19.95 1.45 19.95 1.4 19.95 1.35 20.0 1.35 20.05 1.3 20.05 1.3 20.1 1.25 20.15 1.2 20.15 1.15 20.2 1.15 20.25 1.1 20.3 1.1 20.35 1.1 20.35 1.1 20.4 1.1 20.45 1.1 20.45 1.15 20.5 1.15 20.5 1.15 20.55 1.2 20.55 1.2 20.55 1.25 20.6 1.25 20.6 1.3 20.65 1.35 20.65 1.35 20.65 1.4 20.85 1.95 21.3 3.05 21.4 3.25 21.9 4.35 21.95 4.45 22.1 4.8 22.25 5.1 22.35 5.25 22.4 5.4 22.55 5.7 22.65 6.05 22.7 6.2 23.05 7.05 23.15 7.5 23.35 8.15 23.45 8.55 23.55 8.85 23.7 9.7 23.75 9.85 23.8 10.15 23.85 10.45 23.9 10.55 23.9 10.65 23.9 10.75 23.95 10.8 23.9 10.9 23.9 11.0 23.9 11.05 23.85 11.15 23.85 11.2 23.8 11.3 23.75 11.35 23.7 11.45 23.65 11.5 23.6 11.55 23.55 11.6 23.45 11.65 23.4 11.75 22.45 12.35 22.1 12.7 21.95 12.8 21.85 12.95 21.7 13.05 21.6 13.2 21.5 13.3 21.35 13.45 21.25 13.55 21.15 13.7 21.05 13.85 20.95 13.95 20.85 14.1 20.7 14.25 20.6 14.35 20.5 14.5 20.45 14.65 20.35 14.8 20.2 15.0 19.7 15.8 19.25 16.45 19.0 16.8 18.9 16.9 18.8 17.05 18.7 17.15 18.6 17.25 18.5 17.4 18.4 17.5 18.3 17.6 18.2 17.7 18.1 17.85 18.0 17.95 17.9 18.05 17.8 18.15 17.65 18.25 17.55 18.35 17.45 18.45 17.35 18.55 17.25 18.65 17.15 18.7 17.05 18.8 16.95 18.9 16.85 18.95 16.75 19.05 16.65 19.1 16.55 19.2 16.45 19.25 16.35 19.35 16.25 19.4 16.15 19.45 16.05 19.55 15.95 19.6 15.85 19.65 15.75 19.7 15.65 19.75 15.55 19.8 15.45 19.85 15.35 19.95 15.2 20.0 15.1 20.05 15.0 20.1 14.9 20.15 14.8 20.2 14.7 20.25 14.6 20.3 14.5 20.3 14.35 20.35 14.25 20.4 14.15 20.45 14.05 20.5 13.95 20.55 13.9 20.55 13.8 20.6 13.75 20.6 13.65 20.65 13.55 20.65 13.5 20.7 13.4 20.7 13.35 20.75 13.25 20.75 13.15 20.8 13.1 20.8 13.0 20.85 12.95 20.85 12.85 20.9 12.75 20.9 12.7 20.9 12.65 20.95 12.55 20.95 12.5 21.0 12.45 21.0 12.4 21.05 12.3 21.05 12.25 21.05 12.2 21.1 12.1 21.1 12.05 21.1 12.0 21.15 11.9 21.15 11.85 21.15 11.8 21.15 11.7 21.15 11.45 21.2 11.05 21.25 10.55 21.35 10.35 21.4 10.0 21.45 9.4 21.5 8.7 21.55 8.4 21.6 7.9 21.7 7.1 21.7 6.0 21.7 5.8 21.75 L5.8 21.75" fill="#070707" fill-rule="evenodd" stroke="none"/>
    <path d="M9.6 18.7 Q9.5 18.7 9.35 18.7 9.25 18.7 9.15 18.7 9.05 18.7 8.9 18.7 8.8 18.7 8.7 18.65 8.6 18.65 8.45 18.65 8.35 18.6 8.25 18.6 8.15 18.55 8.05 18.55 8.0 18.55 7.8 18.5 7.2 18.35 7.05 18.25 7.0 18.2 6.55 18.2 6.5 18.2 6.45 18.2 6.4 18.15 6.4 18.15 6.35 18.15 6.35 18.1 6.3 18.05 6.3 18.0 6.25 17.95 6.3 17.85 6.3 17.85 6.4 17.75 6.45 17.7 6.55 17.65 6.65 17.55 6.7 17.5 6.8 17.45 6.85 17.45 6.95 17.4 7.05 17.35 7.15 17.3 7.2 17.3 7.3 17.25 7.4 17.2 7.5 17.2 7.6 17.15 7.65 17.15 7.75 17.15 7.9 17.1 8.2 17.0 8.5 16.9 8.6 16.85 8.85 16.8 9.2 16.65 9.45 16.55 9.8 16.4 10.25 16.2 10.35 16.15 10.55 16.05 10.95 15.85 11.4 15.65 11.6 15.55 12.0 15.35 12.65 14.95 12.7 14.9 12.8 14.9 12.85 14.85 12.9 14.8 12.95 14.8 13.05 14.75 13.1 14.7 13.15 14.65 13.2 14.65 13.3 14.6 13.35 14.55 13.4 14.5 13.45 14.45 13.5 14.45 13.6 14.4 13.65 14.35 14.45 13.8 14.75 13.55 16.1 12.45 16.4 12.25 16.5 12.2 16.6 12.15 16.7 12.1 16.8 12.05 16.9 12.0 17.0 11.95 17.1 11.9 17.25 11.9 17.35 11.85 17.45 11.8 17.55 11.8 17.65 11.75 17.75 11.75 17.9 11.75 18.0 11.75 18.1 11.7 18.5 11.8 18.2 11.7 18.3 11.75 18.3 11.8 18.3 11.85 18.3 11.9 18.3 11.95 18.3 11.95 18.3 12.0 18.3 12.05 18.25 12.1 18.25 12.15 18.1 12.25 17.9 12.4 17.8 12.45 17.75 12.5 17.65 12.55 17.6 12.65 17.55 12.7 17.45 12.75 17.4 12.8 17.35 12.9 17.3 12.95 17.2 13.05 17.15 13.1 17.1 13.15 17.05 13.25 17.0 13.3 16.95 13.4 16.9 13.45 16.8 13.6 16.6 13.9 16.45 14.2 16.35 14.35 16.35 14.35 16.1 14.8 16.0 14.95 15.95 15.1 15.85 15.25 15.8 15.35 15.7 15.5 15.6 15.65 15.5 15.75 15.45 15.9 15.35 16.0 15.25 16.15 15.15 16.25 15.0 16.35 14.9 16.45 14.8 16.55 14.65 16.65 14.55 16.75 14.45 16.8 14.4 16.9 14.3 16.95 14.2 17.0 14.15 17.05 14.05 17.1 13.95 17.15 13.9 17.25 13.8 17.3 13.7 17.35 13.65 17.4 13.55 17.45 13.45 17.5 13.35 17.55 13.3 17.6 13.2 17.65 13.1 17.7 13.0 17.75 12.95 17.8 12.85 17.85 12.75 17.9 12.65 17.95 12.55 18.0 12.45 18.0 12.4 18.05 12.3 18.1 12.2 18.15 12.1 18.2 12.0 18.2 11.9 18.25 11.8 18.3 11.7 18.35 11.55 18.4 11.45 18.45 11.3 18.5 11.2 18.5 11.05 18.55 10.95 18.6 10.8 18.6 10.7 18.65 10.55 18.7 10.4 18.7 10.3 18.7 10.15 18.7 10.0 18.75 9.85 18.75 9.7 18.75 9.6 18.7 L9.6 18.7 M9.55 17.95 Q9.6 17.95 9.7 17.95 9.75 17.95 9.8 17.95 9.9 17.95 9.95 17.95 10.0 17.95 10.05 17.95 10.1 17.95 10.15 17.95 10.25 17.95 10.3 17.9 10.35 17.9 10.4 17.9 10.45 17.9 10.5 17.9 10.6 17.85 10.7 17.85 10.8 17.8 10.9 17.8 11.0 17.75 11.1 17.7 11.2 17.7 11.25 17.65 11.35 17.6 11.45 17.6 11.55 17.55 11.65 17.5 11.75 17.45 11.85 17.4 11.9 17.4 12.0 17.35 12.15 17.25 12.3 17.2 12.5 17.1 12.65 17.05 12.8 16.95 12.95 16.9 13.1 16.8 13.25 16.7 13.4 16.6 13.55 16.55 13.7 16.45 13.85 16.35 14.0 16.25 14.1 16.1 14.25 16.0 14.4 15.9 14.5 15.8 14.55 15.75 14.65 15.65 14.75 15.55 14.8 15.45 14.9 15.4 14.95 15.3 15.0 15.2 15.1 15.1 15.15 15.0 15.2 14.9 15.25 14.8 15.3 14.65 15.35 14.55 15.35 14.45 15.4 14.3 15.9 12.1 15.45 14.2 15.45 14.1 15.4 14.1 15.35 14.1 15.35 14.1 15.3 14.1 15.25 14.1 15.25 14.15 15.2 14.15 14.7 14.55 13.85 15.15 13.75 15.2 13.65 15.25 13.55 15.35 13.45 15.4 13.35 15.45 13.25 15.5 13.15 15.6 13.05 15.65 12.95 15.7 12.85 15.75 12.75 15.8 12.65 15.85 12.55 15.9 12.45 15.95 12.35 16.05 12.25 16.1 11.95 16.25 11.25 16.55 10.65 16.9 10.3 17.05 9.15 17.5 8.6 17.65 8.6 17.65 8.5 17.7 8.45 17.7 8.45 17.75 8.45 17.8 8.5 17.85 8.5 17.85 8.6 17.85 9.25 17.95 9.55 17.95 L9.55 17.95" fill="#121212" fill-rule="evenodd" stroke="none"/>
  </g>
</svg>
