<?xml version="1.0" encoding="UTF-8" standalone="no"?>
<svg xmlns:xlink="http://www.w3.org/1999/xlink" height="57.6px" width="52.9px" xmlns="http://www.w3.org/2000/svg">
  <g transform="matrix(1.0, 0.0, 0.0, 1.0, 26.45, 28.8)">
    <path d="M-18.4 -16.1 Q-18.35 -16.1 -18.3 -16.05 -18.25 -16.05 -18.2 -16.05 -18.2 -16.0 -18.1 -16.0 -18.05 -15.95 -18.0 -15.95 -17.95 -15.95 -17.9 -15.9 -17.85 -15.9 -17.8 -15.85 -17.75 -15.85 -17.7 -15.85 -17.65 -15.8 -17.6 -15.8 -17.3 -15.65 -16.6 -15.2 -15.95 -14.8 -15.6 -14.6 -13.65 -13.45 -12.85 -13.0 -11.65 -12.25 -10.7 -11.65 -10.25 -11.35 -9.5 -10.9 -8.6 -10.35 -8.3 -10.15 -7.75 -9.8 -6.85 -9.25 -5.75 -8.55 -5.4 -8.35 -3.85 -7.4 -2.95 -6.9 -2.9 -6.9 -2.9 -6.85 -2.85 -6.85 -2.8 -6.85 -2.8 -6.85 -2.75 -6.85 -2.7 -6.85 -2.65 -6.85 -2.6 -6.85 -2.55 -6.9 -2.55 -6.9 -2.5 -6.9 -2.45 -6.9 -2.4 -6.95 -2.35 -6.95 -2.35 -7.0 -2.3 -7.05 0.1 -8.45 0.1 -8.45 3.65 -10.6 4.0 -10.8 4.8 -11.3 5.5 -11.75 5.9 -12.0 8.65 -13.6 10.4 -14.6 10.55 -14.7 10.75 -14.75 10.9 -14.8 11.05 -14.8 11.2 -14.8 11.35 -14.8 11.45 -14.75 11.6 -14.7 11.7 -14.6 11.8 -14.5 11.9 -14.4 12.0 -14.25 12.1 -14.1 12.15 -13.95 12.2 -13.75 12.25 -13.55 12.3 -13.3 12.5 -12.7 12.65 -12.15 12.7 -11.8 12.75 -11.65 12.75 -11.5 12.75 -11.35 12.8 -11.2 12.8 -11.05 12.85 -10.9 12.85 -10.75 12.85 -10.6 12.9 -10.45 12.9 -10.3 12.9 -10.15 12.9 -10.0 12.9 -9.85 12.9 -9.7 12.95 -9.55 12.95 -9.4 12.95 -8.85 12.95 -7.8 12.9 -6.75 12.95 -6.25 12.95 -6.15 12.95 -6.05 12.9 -5.95 12.9 -5.9 12.85 -5.8 12.85 -5.7 12.8 -5.65 12.75 -5.6 12.7 -5.5 12.65 -5.45 12.6 -5.4 12.55 -5.35 12.5 -5.3 12.45 -5.25 12.4 -5.2 12.3 -5.15 11.9 -4.9 9.9 -3.65 7.8 -2.4 6.3 -1.45 6.25 -1.4 6.2 -1.4 6.15 -1.35 6.15 -1.3 6.1 -1.3 6.1 -1.25 6.1 -1.25 6.1 -1.2 6.1 -1.15 6.1 -1.15 6.1 -1.1 6.15 -1.1 6.15 -1.05 6.2 -1.0 6.25 -1.0 6.3 -0.95 6.4 -0.9 8.15 0.4 9.8 1.6 9.9 1.65 10.55 2.2 11.55 3.05 12.9 4.2 13.15 4.4 13.2 4.45 13.25 4.5 13.3 4.55 13.35 4.65 13.35 4.7 13.4 4.75 13.4 4.85 13.45 4.9 13.45 5.0 13.45 5.05 13.45 5.15 13.45 5.25 13.45 5.3 13.45 5.4 13.45 5.45 13.4 5.55 13.4 5.65 13.2 6.25 13.1 6.65 13.05 6.95 13.0 7.1 13.0 7.25 12.95 7.4 12.9 7.55 12.85 7.7 12.8 7.85 12.75 8.0 12.7 8.15 12.65 8.25 12.6 8.4 12.5 8.55 12.45 8.7 12.4 8.8 12.3 8.95 12.25 9.1 12.15 9.25 12.15 9.3 12.1 9.3 12.1 9.35 12.05 9.4 12.05 9.45 12.0 9.5 12.0 9.55 12.0 9.55 11.95 9.6 11.95 9.65 11.9 9.7 11.9 9.7 11.85 9.75 11.85 9.8 11.8 9.85 11.8 9.9 10.95 10.95 10.75 11.1 10.7 11.15 10.65 11.2 10.55 11.25 10.5 11.3 10.4 11.35 10.3 11.35 10.2 11.4 10.1 11.4 10.0 11.4 9.9 11.4 9.8 11.4 9.7 11.4 9.55 11.35 9.45 11.3 9.35 11.25 9.25 11.2 7.85 10.3 5.7 9.0 5.35 8.75 4.6 8.35 3.85 7.9 3.5 7.7 3.05 7.4 2.1 6.8 1.2 6.25 0.7 5.95 0.15 5.6 -1.65 4.5 -1.7 4.5 -1.75 4.5 -1.85 4.35 -2.0 4.25 -2.1 4.15 -2.25 4.1 -2.35 4.05 -2.45 4.05 -2.6 4.05 -2.7 4.05 -2.8 4.1 -2.95 4.15 -3.05 4.2 -3.15 4.25 -3.3 4.3 -3.4 4.4 -3.4 4.4 -3.65 4.55 -4.45 5.05 -5.75 5.85 -7.65 7.0 -7.8 7.1 -8.35 7.45 -9.5 8.15 -10.6 8.8 -11.15 9.15 -11.25 9.2 -14.55 11.2 -14.8 11.35 -15.25 11.6 -15.75 11.9 -15.95 12.0 -16.05 12.05 -16.15 12.1 -16.2 12.1 -16.3 12.1 -16.4 12.15 -16.5 12.1 -16.6 12.1 -16.7 12.1 -16.8 12.05 -16.85 12.05 -16.95 12.0 -17.05 11.95 -17.15 11.9 -17.2 11.85 -17.3 11.75 -17.35 11.7 -17.45 11.55 -18.0 10.9 -18.4 10.4 -18.6 10.1 -18.7 9.9 -18.8 9.75 -18.9 9.55 -19.0 9.35 -19.1 9.2 -19.2 9.0 -19.3 8.8 -19.35 8.6 -19.45 8.4 -19.5 8.2 -19.6 8.0 -19.65 7.8 -19.7 7.6 -19.75 7.4 -19.8 7.2 -19.8 6.95 -19.8 6.9 -19.8 6.85 -19.85 6.8 -19.85 6.8 -19.85 6.75 -19.9 6.7 -19.9 6.65 -19.9 6.6 -19.9 6.55 -19.95 6.55 -19.95 6.5 -19.95 6.45 -20.0 6.4 -20.0 6.35 -20.0 6.35 -20.05 6.3 -20.1 6.2 -20.15 6.1 -20.15 6.0 -20.15 5.9 -20.2 5.8 -20.15 5.7 -20.15 5.65 -20.15 5.55 -20.15 5.45 -20.1 5.35 -20.05 5.3 -20.0 5.2 -19.95 5.15 -19.9 5.05 -19.85 5.0 -19.75 4.95 -19.35 4.6 -18.4 3.75 -18.2 3.6 -17.85 3.3 -17.35 2.95 -17.3 2.9 -15.6 1.5 -14.75 0.9 -14.4 0.6 -11.9 -1.05 -11.9 -1.05 -11.8 -1.1 -11.75 -1.15 -11.7 -1.2 -11.65 -1.25 -11.6 -1.3 -11.55 -1.35 -11.55 -1.35 -11.5 -1.4 -11.5 -1.45 -11.5 -1.45 -11.5 -1.5 -11.5 -1.5 -11.5 -1.55 -11.55 -1.6 -11.55 -1.6 -11.6 -1.65 -11.65 -1.7 -11.7 -1.7 -11.75 -1.75 -12.0 -1.9 -14.05 -3.2 -14.3 -3.35 -14.9 -3.7 -16.35 -4.55 -17.15 -5.0 -19.5 -6.55 -19.55 -6.55 -19.6 -6.6 -19.65 -6.65 -19.65 -6.65 -19.7 -6.7 -19.75 -6.75 -19.75 -6.85 -19.8 -6.9 -19.8 -6.95 -19.85 -7.0 -19.85 -7.05 -19.9 -7.15 -19.9 -7.2 -19.9 -7.25 -19.95 -7.3 -19.95 -7.4 -19.95 -7.45 -20.15 -9.5 -20.15 -10.65 -20.1 -11.55 -19.8 -13.75 -19.8 -13.85 -19.8 -13.95 -19.75 -14.0 -19.75 -14.1 -19.75 -14.2 -19.7 -14.3 -19.7 -14.35 -19.65 -14.45 -19.65 -14.55 -19.6 -14.65 -19.55 -14.8 -19.55 -14.8 -19.55 -14.9 -19.5 -15.0 -19.5 -15.1 -19.5 -15.15 -19.45 -15.25 -19.45 -15.35 -19.4 -15.45 -19.35 -15.5 -19.3 -15.6 -19.25 -15.7 -19.15 -15.75 -19.1 -15.8 -19.05 -15.9 -18.95 -15.95 -18.85 -16.0 -18.8 -16.0 -18.7 -16.05 -18.6 -16.05 -18.5 -16.1 -18.4 -16.1 L-18.4 -16.1 M10.75 -9.2 Q10.6 -11.05 10.55 -11.65 10.55 -11.7 10.55 -11.7 10.55 -11.75 10.55 -11.8 10.5 -11.85 10.5 -11.9 10.5 -11.95 10.45 -11.95 10.45 -12.0 10.4 -12.0 10.35 -12.0 10.35 -12.0 10.3 -12.05 10.25 -12.0 10.2 -12.0 10.15 -12.0 10.1 -11.95 10.05 -11.9 9.65 -11.7 6.3 -9.65 5.75 -9.35 4.85 -8.8 3.85 -8.15 3.45 -7.95 -0.1 -5.75 -0.9 -5.3 -1.3 -5.05 -1.95 -4.7 -2.85 -4.3 -3.05 -4.15 -3.5 -3.9 -4.85 -3.1 -6.35 -2.15 -6.6 -2.0 -6.8 -1.85 -7.2 -1.5 -7.6 -1.2 -7.85 -1.05 -8.35 -0.7 -9.3 -0.1 -10.35 0.55 -10.75 0.8 -13.0 2.3 -13.8 2.9 -14.0 3.05 -17.4 5.75 -17.45 5.8 -17.5 5.85 -17.55 5.9 -17.55 5.95 -17.6 6.0 -17.65 6.05 -17.65 6.1 -17.65 6.15 -17.7 6.2 -17.7 6.3 -17.7 6.35 -17.7 6.4 -17.7 6.45 -17.7 6.55 -17.7 6.6 -17.65 6.7 -17.65 6.9 -17.6 7.05 -17.55 7.25 -17.5 7.45 -17.45 7.6 -17.4 7.8 -17.3 7.95 -17.25 8.1 -17.15 8.25 -17.05 8.45 -17.0 8.6 -16.9 8.75 -16.8 8.9 -16.7 9.1 -16.65 9.2 -16.5 9.4 -16.5 9.45 -16.45 9.45 -16.4 9.5 -16.35 9.5 -16.35 9.55 -16.3 9.55 -16.25 9.6 -16.2 9.6 -16.15 9.6 -16.1 9.55 -15.75 9.35 -14.6 8.65 -14.2 8.4 -13.5 8.0 -12.75 7.5 -12.4 7.3 -12.1 7.1 -11.35 6.65 -10.65 6.25 -10.25 6.0 -9.85 5.75 -9.2 5.35 -8.45 4.9 -8.15 4.7 -8.0 4.6 -7.25 4.2 -6.65 3.85 -6.3 3.65 -6.1 3.5 -4.65 2.6 -3.65 1.95 -3.0 1.55 -2.6 1.3 -1.7 0.85 -0.8 0.35 -0.4 0.1 0.2 -0.25 1.1 -0.8 2.35 -1.6 2.55 -1.75 5.2 -3.3 5.25 -3.35 9.4 -5.9 9.55 -6.0 9.6 -6.05 9.65 -6.05 9.7 -6.1 9.8 -6.15 9.85 -6.2 9.9 -6.25 9.95 -6.3 10.0 -6.3 10.05 -6.35 10.1 -6.4 10.15 -6.45 10.2 -6.5 10.25 -6.55 10.3 -6.6 10.35 -6.65 10.4 -6.7 10.45 -6.75 10.45 -6.8 10.5 -6.8 10.5 -6.85 10.55 -6.9 10.55 -6.95 10.6 -7.0 10.6 -7.05 10.65 -7.1 10.65 -7.15 10.7 -7.2 10.7 -7.25 10.7 -7.3 10.7 -7.3 10.7 -7.35 10.75 -7.4 10.75 -7.75 10.75 -8.3 10.75 -9.1 10.75 -9.2 L10.75 -9.2 M-4.9 -5.65 Q-5.55 -6.0 -6.45 -6.55 -7.8 -7.35 -7.95 -7.45 -9.95 -8.65 -10.95 -9.25 -11.5 -9.6 -12.45 -10.15 -13.5 -10.85 -13.9 -11.1 -14.35 -11.4 -15.6 -12.15 -16.7 -12.8 -17.3 -13.15 -17.35 -13.2 -17.4 -13.2 -17.45 -13.25 -17.5 -13.25 -17.55 -13.25 -17.55 -13.25 -17.6 -13.25 -17.65 -13.2 -17.65 -13.2 -17.7 -13.2 -17.7 -13.15 -17.75 -13.1 -17.75 -13.05 -17.75 -13.0 -17.8 -12.95 -17.8 -12.9 -17.85 -12.65 -17.85 -12.45 -17.9 -12.2 -17.9 -12.0 -17.95 -11.75 -17.95 -11.5 -17.95 -11.3 -17.95 -11.05 -17.95 -10.85 -17.95 -10.6 -17.95 -10.35 -17.95 -10.15 -17.9 -9.9 -17.9 -9.65 -17.9 -9.45 -17.85 -9.2 -17.85 -9.1 -17.85 -9.05 -17.85 -9.0 -17.85 -8.95 -17.85 -8.85 -17.85 -8.8 -17.8 -8.7 -17.8 -8.65 -17.8 -8.6 -17.8 -8.5 -17.75 -8.45 -17.75 -8.4 -17.7 -8.3 -17.7 -8.25 -17.65 -8.2 -17.65 -8.15 -17.6 -8.1 -17.5 -8.0 -17.45 -7.95 -17.35 -7.85 -17.3 -7.8 -17.2 -7.75 -17.15 -7.65 -17.05 -7.6 -17.0 -7.55 -16.9 -7.5 -16.85 -7.4 -16.75 -7.35 -16.65 -7.3 -16.6 -7.25 -16.5 -7.2 -16.4 -7.15 -16.05 -6.9 -15.4 -6.5 -14.55 -6.0 -14.35 -5.9 -14.1 -5.75 -12.1 -4.45 -11.95 -4.35 -10.9 -3.65 -10.15 -3.15 -9.7 -2.85 -9.65 -2.8 -9.6 -2.8 -9.6 -2.8 -9.55 -2.8 -9.5 -2.75 -9.5 -2.75 -9.45 -2.75 -9.4 -2.75 -9.4 -2.75 -9.35 -2.75 -9.35 -2.75 -9.3 -2.8 -9.25 -2.8 -9.25 -2.8 -9.2 -2.85 -9.2 -2.85 -9.0 -3.0 -8.5 -3.35 -8.05 -3.7 -7.75 -3.85 -7.15 -4.25 -4.9 -5.65 L-4.9 -5.65 M-0.5 2.55 Q-0.5 2.6 -0.5 2.6 -0.5 2.65 -0.5 2.7 -0.35 2.8 0.0 3.05 0.35 3.25 0.55 3.35 1.1 3.7 2.05 4.25 3.15 4.95 3.55 5.2 4.05 5.5 6.7 7.1 6.95 7.25 7.35 7.5 7.85 7.75 8.05 7.9 8.2 8.0 8.7 8.3 9.05 8.6 9.3 8.75 9.35 8.8 9.4 8.8 9.5 8.85 9.55 8.85 9.6 8.85 9.65 8.85 9.7 8.85 9.75 8.85 9.8 8.85 9.8 8.8 9.85 8.8 9.9 8.75 9.95 8.7 10.0 8.65 10.0 8.6 10.05 8.55 10.15 8.4 10.2 8.25 10.3 8.1 10.35 7.95 10.45 7.8 10.5 7.7 10.55 7.55 10.6 7.4 10.7 7.25 10.75 7.1 10.8 6.9 10.85 6.75 10.9 6.6 10.9 6.45 10.95 6.3 11.0 6.15 11.0 6.0 11.0 5.9 11.05 5.8 11.05 5.7 11.0 5.6 11.0 5.55 11.0 5.45 10.95 5.4 10.9 5.3 10.85 5.25 10.8 5.2 10.75 5.1 10.7 5.05 10.6 5.0 10.55 4.95 10.45 4.9 10.3 4.8 10.15 4.65 9.7 4.3 8.7 3.5 7.75 2.7 7.2 2.3 6.15 1.5 4.25 0.15 4.2 0.15 4.2 0.1 4.15 0.1 4.1 0.1 4.1 0.1 4.05 0.1 4.0 0.1 4.0 0.1 3.95 0.1 3.9 0.1 3.85 0.1 3.85 0.1 3.8 0.1 3.75 0.1 3.75 0.1 3.7 0.1 0.95 1.75 0.65 1.9 0.55 1.95 0.05 2.25 -0.3 2.45 -0.5 2.55 L-0.5 2.55" fill="#000000" fill-rule="evenodd" stroke="none"/>
  </g>
</svg>
