<?xml version="1.0" encoding="UTF-8" standalone="no"?>
<svg xmlns:xlink="http://www.w3.org/1999/xlink" height="75.15px" width="43.25px" xmlns="http://www.w3.org/2000/svg">
  <g transform="matrix(1.0, 0.0, 0.0, 1.0, 21.65, 37.55)">
    <path d="M-25.25 -24.8 Q-26.7 -25.25 -29.6 -26.2 -29.45 -26.45 -29.25 -26.7 -29.1 -26.95 -28.9 -27.2 -28.75 -27.45 -28.55 -27.65 -28.4 -27.85 -28.2 -28.1 -28.05 -28.3 -27.9 -28.45 -27.75 -28.65 -27.6 -28.85 -27.45 -29.0 -27.3 -29.15 -27.15 -29.3 -27.0 -29.45 -26.65 -29.85 -26.25 -30.15 -25.95 -30.45 -25.6 -30.7 -25.35 -30.95 -25.05 -31.15 -24.8 -31.35 -24.55 -31.5 -24.3 -31.6 -24.1 -31.7 -23.9 -31.8 -23.75 -31.9 -23.6 -31.95 -23.45 -32.0 -23.35 -32.0 -23.25 -32.05 -23.15 -32.05 -23.1 -32.1 -23.0 -32.1 -22.95 -32.15 -22.85 -32.15 -22.8 -32.15 -22.7 -32.15 -22.65 -32.2 -22.55 -32.2 -22.5 -32.2 -22.45 -32.2 -22.4 -32.2 -22.35 -32.25 -22.25 -32.25 -22.2 -32.25 -22.15 -32.25 -22.15 -32.2 -22.15 -32.2 -22.15 -32.1 -22.1 -32.05 -22.1 -31.95 -22.1 -31.9 -22.05 -31.8 -22.0 -31.7 -21.95 -31.6 -21.9 -31.5 -21.85 -31.4 -21.8 -31.35 -21.7 -31.25 -21.6 -31.15 -21.5 -31.1 -21.4 -31.0 -21.25 -30.95 -21.1 -30.9 -21.0 -30.9 -20.85 -30.9 -20.7 -30.9 -20.55 -30.9 -20.45 -30.95 -20.3 -31.0 -20.2 -31.05 -20.05 -31.1 -19.95 -31.15 -19.85 -31.25 -19.75 -31.3 -19.65 -31.35 -19.6 -31.4 -19.55 -31.45 -19.5 -31.5 -19.45 -31.5 -19.35 -31.6 -19.3 -31.65 -19.2 -31.7 -19.1 -31.8 -19.0 -31.9 -18.9 -32.0 -18.8 -32.15 -18.75 -32.25 -18.65 -32.4 -18.6 -32.5 -18.55 -32.65 -18.5 -32.8 -18.5 -32.95 -18.5 -33.1 -18.5 -33.2 -18.55 -33.3 -18.55 -33.4 -18.6 -33.5 -18.65 -33.55 -18.7 -33.65 -18.75 -33.7 -18.8 -33.75 -18.9 -33.85 -18.9 -33.9 -18.95 -33.95 -19.0 -34.0 -19.05 -34.05 -19.05 -34.15 -19.1 -34.2 -19.05 -34.25 -19.05 -34.35 -19.0 -34.4 -19.0 -34.5 -18.9 -34.55 -18.85 -34.65 -18.75 -34.7 -18.6 -34.75 -18.45 -34.85 -18.3 -34.95 -18.1 -35.0 -17.85 -35.1 -17.6 -35.2 -17.3 -35.3 -16.95 -35.4 -16.6 -35.5 -16.15 -35.65 -15.7 -35.8 -15.3 -35.9 -14.9 -36.0 -14.6 -36.1 -14.25 -36.15 -14.0 -36.25 -13.7 -36.3 -13.5 -36.3 -13.25 -36.35 -13.05 -36.35 -12.85 -36.35 -12.7 -36.35 -12.5 -36.35 -12.35 -36.3 -12.2 -36.25 -12.05 -36.2 -12.05 -36.2 -11.95 -36.15 -11.9 -36.1 -11.85 -36.1 -11.8 -36.05 -11.75 -36.05 -11.65 -36.0 -11.6 -35.95 -11.55 -35.95 -11.5 -35.9 -11.4 -35.85 -11.35 -35.8 -11.3 -35.75 -11.25 -35.65 -11.15 -35.6 -11.1 -35.55 -11.05 -35.45 -10.95 -35.35 -10.9 -35.3 -10.9 -35.2 -10.85 -35.15 -10.8 -35.05 -10.8 -35.0 -10.75 -34.9 -10.75 -34.85 -10.75 -34.8 -10.7 -34.7 -10.65 -34.65 -10.65 -34.6 -10.6 -34.55 -10.55 -34.5 -10.5 -34.45 -10.4 -34.35 -10.3 -34.3 -10.2 -34.25 -10.05 -34.2 -9.95 -34.15 -9.8 -34.1 -9.65 -34.1 -9.5 -34.1 -9.4 -34.1 -9.25 -34.1 -9.1 -34.15 -9.0 -34.2 -8.9 -34.2 -8.8 -34.3 -8.7 -34.35 -8.6 -34.45 -8.55 -34.55 -8.5 -34.65 -8.45 -34.7 -8.45 -34.85 -8.45 -34.9 -8.45 -35.05 -8.45 -35.1 -8.5 -35.25 -8.5 -35.4 -8.5 -35.45 -8.5 -35.6 -8.5 -35.7 -8.5 -35.8 -8.45 -35.9 -8.4 -36.0 -8.35 -36.1 -8.3 -36.15 -8.25 -36.2 -8.2 -36.25 -8.1 -36.3 -8.05 -36.35 -7.95 -36.4 -7.85 -36.4 -7.75 -36.45 -7.65 -36.45 -7.55 -36.45 -7.45 -36.45 -7.3 -36.5 -7.2 -36.5 -7.05 -36.5 -6.95 -36.5 -6.75 -36.5 -6.45 -36.5 -6.2 -36.5 -5.95 -36.5 -5.7 -36.45 -5.55 -36.4 -5.3 -36.4 -5.5 -36.4 -4.95 -36.3 -4.75 -36.3 -4.65 -36.25 -4.45 -36.25 -4.3 -36.25 -4.15 -36.25 -4.0 -36.25 -3.8 -36.3 -3.6 -36.35 -3.5 -36.4 -3.4 -36.4 -3.3 -36.45 -3.2 -36.5 -3.1 -36.5 -3.0 -36.55 -2.9 -36.6 -2.85 -36.65 -2.75 -36.7 -2.7 -36.7 -2.65 -36.75 -2.6 -36.8 -2.55 -36.85 -2.5 -36.85 -2.45 -36.9 -2.4 -36.95 -2.25 -37.05 -2.1 -37.2 -1.95 -37.3 -1.8 -37.45 -1.7 -37.6 -1.6 -37.75 -1.5 -37.85 -1.4 -38.0 -1.3 -38.1 -1.25 -38.25 -1.2 -38.35 -1.1 -38.5 -1.0 -38.7 -1.0 -38.75 -0.9 -38.85 -0.85 -38.95 -0.75 -39.15 -0.6 -39.3 -0.45 -39.45 -0.25 -39.6 -0.05 -39.7 0.2 -39.8 0.4 -39.95 0.7 -40.05 0.95 -40.1 1.3 -40.2 1.6 -40.3 1.95 -40.4 2.3 -40.45 2.75 -40.55 3.05 -40.6 3.7 -40.75 4.3 -40.85 4.6 -40.95 5.05 -41.0 5.4 -41.1 5.85 -41.15 6.25 -41.2 6.65 -41.25 7.0 -41.3 7.4 -41.35 7.8 -41.35 8.15 -41.35 8.55 -41.3 8.95 -41.25 9.3 -41.2 9.7 -41.15 10.1 -41.0 10.2 -41.0 10.3 -40.95 10.5 -40.9 10.5 -40.9 10.65 -40.85 10.7 -40.8 10.85 -40.8 10.95 -40.75 11.05 -40.75 11.15 -40.75 11.25 -40.7 11.35 -40.7 11.5 -40.7 11.6 -40.75 11.7 -40.75 11.85 -40.8 12.05 -40.85 12.25 -40.95 12.45 -41.05 12.6 -41.15 12.7 -41.25 12.85 -41.4 12.95 -41.5 13.1 -41.7 13.3 -41.9 13.35 -41.95 13.5 -42.1 13.65 -42.2 13.8 -42.35 13.95 -42.4 14.15 -42.5 14.35 -42.55 14.45 -42.55 14.55 -42.55 14.6 -42.6 14.65 -42.55 14.75 -42.55 14.8 -42.55 14.85 -42.55 15.0 -42.5 15.1 -42.45 15.2 -42.45 15.3 -42.4 15.45 -42.4 15.65 -42.35 15.85 -42.35 16.1 -42.3 16.35 -42.3 16.6 -42.25 16.75 -42.25 16.95 -42.25 17.1 -42.25 17.3 -42.2 17.4 -42.2 17.55 -42.2 17.65 -42.2 17.8 -42.2 17.9 -42.25 18.0 -42.25 18.1 -42.3 18.15 -42.3 18.25 -42.35 18.3 -42.4 18.35 -42.45 18.4 -42.55 18.45 -42.6 18.45 -42.7 18.5 -42.8 18.5 -42.85 18.45 -42.95 18.45 -43.05 18.45 -43.15 18.45 -43.3 18.4 -43.4 18.4 -43.5 18.4 -43.6 18.4 -43.75 18.45 -43.9 18.45 -44.0 18.5 -44.15 18.5 -44.2 18.55 -44.25 18.55 -44.3 18.6 -44.35 18.6 -44.4 18.65 -44.5 18.7 -44.55 18.75 -44.65 18.85 -44.7 18.9 -44.8 19.0 -44.9 19.1 -44.95 19.2 -45.05 19.3 -45.15 19.45 -45.25 19.6 -45.4 20.1 -45.7 19.85 -45.55 20.05 -45.7 20.3 -45.8 20.55 -46.0 20.85 -46.15 21.2 -46.3 21.6 -46.45 22.0 -46.6 22.45 -46.7 22.9 -46.8 23.4 -46.85 23.95 -46.95 24.45 -46.9 25.0 -46.9 25.6 -46.8 25.65 -46.8 25.75 -46.75 25.8 -46.75 25.85 -46.75 25.9 -46.75 26.0 -46.7 26.05 -46.7 26.1 -46.7 26.15 -46.65 26.2 -46.65 26.25 -46.65 26.3 -46.6 26.35 -46.6 26.4 -46.6 26.45 -46.6 26.45 -46.55 26.45 -46.55 26.45 -46.5 26.45 -46.4 26.45 -46.35 26.45 -46.25 26.45 -46.15 26.45 -46.05 26.45 -45.95 26.5 -45.85 26.5 -45.75 26.55 -45.6 26.6 -45.5 26.65 -45.4 26.75 -45.3 26.8 -45.2 26.95 -45.1 27.0 -45.05 27.05 -45.05 27.1 -45.0 27.15 -45.0 27.2 -44.95 27.25 -44.95 27.3 -44.95 27.35 -44.95 27.4 -44.9 27.5 -44.9 27.55 -44.9 27.6 -44.9 27.7 -44.9 27.75 -44.9 27.8 -44.9 27.9 -44.9 28.05 -44.9 28.15 -44.9 28.25 -44.9 28.4 -44.9 28.5 -44.85 28.6 -44.9 28.7 -44.9 28.8 -44.9 28.9 -44.9 29.0 -44.95 29.1 -44.95 29.2 -45.0 29.25 -45.0 29.35 -45.05 29.4 -45.1 29.45 -45.2 29.5 -45.3 29.55 -45.4 29.55 -45.5 29.55 -45.6 29.55 -45.7 29.5 -45.85 29.5 -45.9 29.45 -46.05 29.4 -46.2 29.4 -46.3 29.35 -46.45 29.35 -46.55 29.35 -46.65 29.35 -46.75 29.4 -46.9 29.45 -47.0 29.5 -47.05 29.55 -47.1 29.6 -47.2 29.7 -47.2 29.75 -47.25 29.85 -47.3 29.9 -47.35 30.0 -47.35 30.1 -47.4 30.15 -47.4 30.25 -47.4 30.35 -47.4 30.45 -47.45 30.55 -47.45 30.6 -47.45 30.7 -47.45 31.15 -47.45 31.55 -47.45 31.95 -47.45 32.35 -47.35 32.65 -47.3 33.05 -47.25 33.35 -47.15 33.75 -47.05 33.95 -47.0 34.45 -46.85 34.95 -46.7 35.25 -46.6 35.75 -46.45 36.15 -46.35 36.7 -46.25 37.25 -46.15 37.35 -46.15 37.55 -46.1 37.7 -46.05 37.8 -46.05 37.95 -46.0 38.05 -46.0 38.2 -45.95 38.3 -45.9 38.45 -45.9 38.5 -45.85 38.6 -45.8 38.7 -45.75 38.75 -45.7 38.8 -45.65 38.85 -45.55 38.9 -45.5 38.9 -45.45 38.9 -45.4 38.9 -45.35 38.85 -45.3 38.85 -45.25 38.8 -45.15 38.75 -45.1 38.7 -45.05 38.65 -44.95 38.55 -44.85 38.5 -44.8 38.35 -44.65 38.25 -44.5 38.15 -44.4 38.0 -44.25 37.9 -44.1 37.7 -43.9 37.55 -43.7 37.4 -43.5 37.25 -43.35 37.15 -43.2 37.05 -43.05 36.9 -42.9 36.85 -42.85 36.8 -42.75 36.75 -42.7 36.65 -42.6 36.6 -42.55 36.55 -42.5 36.45 -42.45 36.4 -42.4 36.3 -42.4 36.2 -42.35 36.05 -42.35 35.95 -42.3 35.8 -42.35 35.7 -42.35 35.55 -42.35 35.45 -42.4 35.35 -42.45 35.2 -42.5 35.1 -42.55 35.0 -42.6 34.85 -42.65 34.6 -42.75 34.55 -42.75 34.4 -42.85 34.3 -42.9 34.1 -42.95 33.9 -43.05 33.7 -43.1 33.5 -43.1 33.3 -43.15 33.1 -43.2 32.85 -43.2 32.6 -43.2 32.35 -43.25 32.05 -43.25 31.8 -43.25 31.45 -43.25 31.15 -43.25 30.75 -43.2 30.5 -43.2 30.0 -43.2 28.85 -43.15 27.6 -43.0 26.5 -42.9 25.4 -42.65 24.4 -42.5 23.4 -42.2 22.5 -42.0 21.65 -41.7 20.9 -41.45 20.2 -41.2 19.6 -40.95 19.1 -40.75 18.7 -40.6 18.4 -40.45 18.3 -40.4 18.15 -40.3 17.9 -40.2 17.65 -40.05 17.4 -39.9 17.15 -39.75 16.85 -39.6 16.55 -39.45 16.25 -39.25 15.95 -39.1 15.65 -38.9 15.35 -38.7 15.0 -38.45 14.7 -38.25 14.35 -38.0 14.0 -37.75 13.65 -37.45 13.35 -37.2 13.8 -34.25 14.1 -31.65 14.15 -31.0 14.25 -30.4 14.3 -29.85 14.3 -29.4 14.35 -28.95 14.35 -28.55 14.4 -28.15 14.4 -27.85 14.4 -27.55 14.4 -27.25 14.35 -27.0 14.35 -26.75 14.35 -26.5 14.3 -26.3 14.25 -26.1 14.2 -25.85 14.15 -25.6 14.1 -25.4 14.05 -25.15 14.0 -24.95 13.95 -24.7 13.9 -24.5 13.8 -24.25 13.75 -24.0 13.65 -23.75 13.55 -23.5 13.4 -23.25 13.3 -23.05 13.15 -22.8 13.0 -22.55 12.8 -22.3 12.6 -22.05 12.3 -21.7 12.0 -21.45 11.7 -21.15 11.35 -20.95 11.05 -20.75 10.7 -20.55 10.4 -20.4 10.1 -20.25 9.8 -20.15 9.5 -20.05 9.25 -19.95 9.0 -19.9 8.8 -19.85 8.6 -19.8 8.45 -19.8 8.3 -19.75 7.7 -19.65 7.1 -19.65 6.5 -19.65 5.95 -19.75 5.45 -19.85 4.9 -20.0 4.45 -20.15 4.0 -20.3 3.6 -20.5 3.25 -20.7 2.95 -20.85 2.65 -21.05 2.4 -21.2 2.2 -21.35 2.05 -21.45 1.95 -21.5 1.6 -21.8 1.25 -22.15 0.9 -22.5 0.55 -22.9 0.2 -23.3 -0.1 -23.75 -0.4 -24.15 -0.65 -24.65 -0.95 -25.1 -1.2 -25.6 -1.4 -26.05 -1.6 -26.55 -1.85 -27.05 -2.0 -27.55 -2.15 -28.05 -2.25 -28.55 -2.25 -28.6 -2.35 -28.95 -2.4 -29.2 -2.45 -29.35 -2.5 -29.65 -2.6 -29.85 -2.65 -30.15 -2.75 -30.35 -2.85 -30.65 -2.95 -30.85 -3.1 -31.15 -3.25 -31.35 -3.4 -31.55 -3.6 -31.75 -3.8 -31.95 -4.0 -32.1 -4.85 -32.55 -5.45 -32.9 L-5.45 -32.9 -5.45 -32.9 Q-5.45 -32.9 -5.75 -32.85 -6.1 -32.85 -6.45 -32.8 -6.95 -32.75 -7.5 -32.65 -8.2 -32.6 -8.9 -32.5 -9.75 -32.35 -10.55 -32.25 -11.45 -32.05 -12.35 -31.9 -13.35 -31.7 -14.3 -31.45 -15.35 -31.2 -16.35 -30.95 -17.15 -30.7 -17.9 -30.5 -18.55 -30.25 -19.2 -30.05 -19.75 -29.8 -20.3 -29.55 -20.8 -29.35 -21.2 -29.1 -21.6 -28.9 -22.0 -28.65 -22.35 -28.4 -22.65 -28.15 -22.9 -27.95 -23.2 -27.7 -23.45 -27.45 -23.65 -27.2 -23.8 -27.05 -23.95 -26.85 -24.1 -26.7 -24.2 -26.55 -24.35 -26.35 -24.45 -26.2 -24.55 -26.05 -24.65 -25.9 -24.75 -25.75 -24.85 -25.6 -24.95 -25.45 -25.0 -25.3 -25.1 -25.2 -25.15 -25.05 -25.2 -24.95 -25.25 -24.8 L-25.25 -24.8" fill="#c1f3f1" fill-rule="evenodd" stroke="none"/>
    <path d="M-14.3 -5.3 Q-13.95 -5.5 -13.6 -5.7 -13.25 -5.9 -12.9 -6.1 -12.55 -6.25 -12.25 -6.45 -11.95 -6.65 -11.65 -6.85 -11.35 -7.0 -11.1 -7.2 -10.85 -7.4 -10.6 -7.55 -10.35 -7.7 -10.1 -7.9 -9.9 -8.05 -9.7 -8.2 -8.9 -8.75 -8.15 -9.4 -7.45 -9.95 -6.8 -10.55 -6.15 -11.1 -5.55 -11.7 -5.0 -12.25 -4.45 -12.85 -3.95 -13.35 -3.45 -13.9 -3.05 -14.4 -2.65 -14.85 -2.25 -15.3 -1.9 -15.75 -1.65 -16.15 -1.35 -16.55 -1.15 -16.8 -1.0 -17.05 -0.8 -17.3 -0.65 -17.5 -0.5 -17.75 -0.35 -18.0 -0.2 -18.2 -0.05 -18.4 0.1 -18.6 0.2 -18.8 0.35 -19.0 0.45 -19.2 0.55 -19.4 0.65 -19.55 0.75 -19.7 0.85 -19.85 0.85 -19.6 0.9 -19.3 0.9 -19.0 0.9 -18.7 0.9 -18.4 0.85 -18.05 0.85 -17.7 0.85 -17.35 0.8 -17.0 0.75 -16.65 0.7 -16.25 0.6 -15.85 0.5 -15.45 0.4 -15.05 0.3 -14.65 0.15 -14.25 0.1 -14.1 0.05 -13.95 0.0 -13.75 -0.1 -13.55 -0.25 -13.25 -0.35 -12.95 -0.5 -12.65 -0.7 -12.3 -0.9 -11.95 -1.1 -11.6 -1.35 -11.2 -1.65 -10.8 -1.95 -10.4 -2.25 -10.0 -2.6 -9.6 -3.0 -9.2 -3.25 -8.95 -3.5 -8.75 -3.7 -8.55 -3.9 -8.4 -4.1 -8.3 -4.3 -8.2 -4.45 -8.1 -4.6 -8.0 -4.75 -7.95 -4.9 -7.9 -5.0 -7.9 -5.1 -7.85 -5.2 -7.85 -5.3 -7.85 -5.35 -7.85 -5.4 -7.85 -5.55 -7.85 -5.7 -7.9 -5.8 -7.9 -5.95 -7.95 -6.05 -8.0 -6.2 -8.05 -6.45 -8.15 -6.4 -8.15 -6.55 -8.15 -6.65 -8.2 -6.75 -8.25 -6.85 -8.25 -6.95 -8.25 -7.1 -8.25 -7.2 -8.25 -7.35 -8.2 -7.45 -8.15 -7.5 -8.15 -7.6 -8.1 -7.7 -8.05 -7.75 -8.0 -7.85 -7.95 -7.9 -7.85 -7.95 -7.8 -8.05 -7.75 -8.1 -7.65 -8.15 -7.6 -8.25 -7.5 -8.3 -7.45 -8.35 -7.35 -8.4 -7.3 -8.5 -7.2 -8.55 -7.1 -8.6 -7.05 -8.65 -7.0 -8.7 -6.95 -8.75 -6.9 -8.8 -6.85 -8.85 -6.75 -8.85 -6.7 -8.9 -6.65 -8.95 -6.6 -8.95 -6.55 -9.0 -6.5 -9.0 -6.45 -9.05 -6.35 -9.05 -6.3 -9.05 -6.25 -9.1 -6.1 -9.1 -5.95 -9.1 -5.85 -9.1 -5.7 -9.1 -5.55 -9.05 -5.45 -9.05 -5.35 -9.0 -5.2 -8.95 -5.1 -8.9 -5.0 -8.9 -4.9 -8.85 -4.85 -8.8 -4.75 -8.75 -4.7 -8.7 -4.65 -8.7 -4.6 -9.2 -4.25 -10.5 -3.5 -11.25 -3.05 -11.6 -2.85 -12.15 -2.55 -12.5 -2.35 -12.9 -2.1 -13.15 -1.95 -13.45 -1.75 -13.7 -1.65 -13.9 -1.55 -14.05 -1.5 -14.2 -1.45 -14.35 -1.4 -14.45 -1.4 -14.5 -1.4 -14.6 -1.4 -14.65 -1.45 -14.7 -1.5 -14.75 -1.5 -14.8 -1.55 -14.85 -1.65 -14.9 -1.75 -14.9 -1.9 -14.95 -2.05 -14.95 -2.2 -14.95 -2.45 -14.9 -2.7 -14.9 -3.0 -14.8 -3.35 -14.75 -3.75 -14.6 -4.2 -14.5 -4.7 -14.3 -5.3 L-14.3 -5.3" fill="#c1f3f1" fill-rule="evenodd" stroke="none"/>
    <path d="M17.8 -21.55 Q17.85 -21.4 17.9 -21.3 18.0 -21.05 18.1 -20.85 18.2 -20.6 18.35 -20.35 18.55 -20.05 18.75 -19.75 18.95 -19.45 19.2 -19.15 19.5 -18.85 19.8 -18.55 20.15 -18.25 20.5 -18.0 20.9 -17.7 21.35 -17.5 21.55 -17.4 21.65 -17.35 21.85 -17.25 22.05 -17.2 22.25 -17.1 22.5 -17.05 22.75 -16.95 22.95 -16.9 23.25 -16.85 23.5 -16.8 23.8 -16.75 24.05 -16.75 24.35 -16.75 24.6 -16.8 24.9 -16.85 25.2 -16.9 25.35 -16.95 25.5 -17.0 25.65 -17.05 25.8 -17.15 25.7 -17.1 26.1 -17.3 26.25 -17.35 26.35 -17.4 26.5 -17.5 26.65 -17.55 26.8 -17.6 26.95 -17.6 27.15 -17.65 27.3 -17.7 27.5 -17.7 27.7 -17.7 27.8 -17.7 27.85 -17.7 27.95 -17.7 28.05 -17.65 28.15 -17.65 28.25 -17.65 28.35 -17.65 28.45 -17.6 28.55 -17.55 28.65 -17.55 28.75 -17.5 28.85 -17.45 28.95 -17.35 29.05 -17.3 29.1 -17.2 29.2 -17.1 29.25 -17.0 29.3 -16.95 29.35 -16.85 29.35 -16.75 29.4 -16.7 29.4 -16.6 29.45 -16.55 29.45 -16.45 29.45 -16.4 29.45 -16.3 29.45 -16.25 29.45 -16.15 29.45 -16.1 29.45 -16.05 29.4 -16.0 29.4 -15.95 29.6 -15.9 29.8 -15.85 30.05 -15.75 30.3 -15.7 30.55 -15.65 30.85 -15.6 31.1 -15.55 31.4 -15.5 31.75 -15.45 32.05 -15.45 32.4 -15.4 32.75 -15.4 33.1 -15.4 33.45 -15.4 33.85 -15.4 34.25 -15.45 34.5 -15.5 34.7 -15.5 34.95 -15.55 35.15 -15.6 35.35 -15.65 35.55 -15.7 35.75 -15.75 35.95 -15.8 36.15 -15.85 36.35 -15.9 36.5 -15.95 36.7 -16.05 36.85 -16.1 37.0 -16.15 37.15 -16.2 37.3 -16.25 36.85 -17.35 35.9 -19.5 34.15 -19.45 31.5 -19.5 26.95 -19.5 25.8 -19.6 25.4 -19.65 25.05 -19.65 24.65 -19.7 24.2 -19.75 23.75 -19.85 23.3 -19.9 22.85 -20.0 22.35 -20.1 21.8 -20.25 21.3 -20.35 20.75 -20.5 20.2 -20.7 19.6 -20.9 19.05 -21.1 18.4 -21.3 17.8 -21.55 L17.8 -21.55" fill="#c1f3f1" fill-rule="evenodd" stroke="none"/>
  </g>
</svg>
