<?xml version="1.0" encoding="UTF-8" standalone="no"?>
<svg xmlns:xlink="http://www.w3.org/1999/xlink" height="139.6px" width="139.5px" xmlns="http://www.w3.org/2000/svg">
  <g transform="matrix(1.0, 0.0, 0.0, 1.0, 69.75, 69.8)">
    <path d="M-35.4 60.2 Q-34.4 59.55 -33.4 58.9 -32.45 58.3 -31.5 57.65 -30.65 57.05 -29.75 56.45 -28.95 55.85 -28.15 55.25 -27.35 54.7 -26.6 54.15 -25.9 53.65 -25.25 53.15 -24.6 52.65 -24.0 52.2 -23.4 51.75 -22.85 51.3 -20.55 49.5 -9.35 39.9 -1.1 32.85 0.35 31.6 1.1 30.95 1.85 30.3 2.7 29.55 3.5 28.85 4.4 28.05 5.3 27.3 6.25 26.45 7.2 25.6 8.25 24.7 9.3 23.75 10.35 22.8 11.45 21.85 12.6 20.8 13.75 19.75 14.95 18.7 16.15 17.6 18.1 15.85 20.0 14.1 21.95 12.35 23.9 10.6 25.8 8.8 27.75 7.0 29.7 5.15 31.65 3.3 33.6 1.45 35.55 -0.4 37.55 -2.3 39.5 -4.2 41.45 -6.15 43.4 -8.05 45.4 -10.0 47.35 -12.0 48.4 -13.05 49.4 -14.05 50.45 -15.1 51.45 -16.15 52.5 -17.2 53.5 -18.2 54.5 -19.25 55.5 -20.3 56.5 -21.3 57.5 -22.35 58.5 -23.4 59.5 -24.4 60.45 -25.45 61.45 -26.45 62.4 -27.5 63.4 -28.55 62.1 -28.85 59.25 -29.5 59.25 -30.75 59.25 -32.0 49.1 -29.2 38.95 -26.4 40.3 -32.35 43.25 -45.0 42.0 -46.1 39.65 -48.1 34.4 -44.15 24.25 -36.55 24.1 -36.95 23.65 -37.9 23.1 -37.25 22.55 -36.7 22.05 -36.2 21.55 -35.8 21.1 -35.4 20.7 -35.1 20.3 -34.8 19.95 -34.65 19.6 -34.45 19.3 -34.35 19.0 -34.25 18.75 -34.25 18.5 -34.2 18.3 -34.2 18.1 -34.25 17.9 -34.3 17.5 -34.45 17.2 -34.75 16.85 -35.05 16.6 -35.55 16.4 -36.05 16.2 -36.75 16.0 -37.4 15.8 -38.35 15.65 -39.2 15.5 -40.35 15.35 -41.35 15.2 -42.85 15.15 -43.1 14.85 -45.8 14.65 -47.75 14.45 -49.2 14.35 -50.2 14.2 -51.15 14.1 -52.1 13.95 -53.05 13.85 -53.95 13.75 -54.8 13.65 -55.65 13.5 -56.5 13.4 -57.25 13.3 -58.05 13.2 -58.75 13.05 -59.45 12.95 -60.15 12.85 -60.8 12.8 -61.4 12.7 -61.95 12.45 -62.0 12.25 -62.1 12.0 -62.15 11.8 -62.25 11.5 -62.35 11.3 -62.45 11.05 -62.55 10.8 -62.7 10.55 -62.8 10.3 -62.95 10.05 -63.1 9.85 -63.3 9.6 -63.5 9.35 -63.7 9.15 -63.95 8.95 -64.15 8.8 -64.35 8.65 -64.6 8.5 -64.8 8.4 -65.0 8.3 -65.2 8.2 -65.4 8.15 -65.5 8.05 -65.8 7.95 -66.05 7.85 -66.2 7.75 -66.4 7.65 -66.55 7.55 -66.75 7.45 -66.9 7.3 -67.1 7.1 -67.3 6.85 -67.55 6.6 -67.7 6.35 -67.9 6.1 -68.05 5.8 -68.2 5.5 -68.3 5.25 -68.4 4.95 -68.45 4.65 -68.55 4.35 -68.6 4.1 -68.6 3.8 -68.65 3.55 -68.7 3.25 -68.7 3.05 -68.7 2.75 -68.7 0.65 -68.8 -1.35 -68.8 -3.2 -68.8 -4.95 -68.75 -6.5 -68.75 -8.0 -68.65 -9.3 -68.6 -10.55 -68.5 -11.6 -68.4 -12.55 -68.3 -13.3 -68.2 -13.95 -68.1 -14.45 -68.05 -14.85 -68.0 -15.0 -67.95 -15.15 -67.95 -16.05 -67.8 -16.45 -67.7 -17.2 -67.55 -17.85 -67.4 -18.6 -67.25 -19.3 -67.1 -20.1 -66.9 -20.85 -66.7 -21.65 -66.5 -22.45 -66.3 -23.35 -66.05 -24.2 -65.8 -25.1 -65.55 -26.0 -65.25 -26.95 -64.9 -27.9 -64.6 -28.7 -64.3 -29.2 -64.15 -30.0 -63.85 -30.7 -63.55 -31.55 -63.25 -32.35 -62.9 -33.3 -62.5 -34.2 -62.1 -35.2 -61.65 -36.15 -61.2 -37.2 -60.65 -38.2 -60.1 -39.3 -59.55 -40.35 -58.9 -41.45 -58.25 -42.5 -57.55 -44.1 -56.5 -45.65 -55.3 -47.1 -54.2 -48.45 -53.0 -49.7 -51.9 -50.9 -50.7 -52.0 -49.65 -53.05 -48.5 -53.95 -47.5 -54.85 -46.4 -55.65 -45.45 -56.4 -44.5 -57.0 -43.65 -57.65 -42.8 -58.05 -42.2 -58.6 -41.4 -60.45 -38.7 -62.05 -35.85 -63.5 -33.2 -64.75 -30.4 -65.85 -27.85 -66.75 -25.15 -67.6 -22.75 -68.25 -20.3 -68.8 -18.15 -69.2 -15.95 -69.6 -14.05 -69.85 -12.15 -70.05 -10.65 -70.15 -9.1 -70.25 -8.05 -70.3 -6.95 -70.4 -4.6 -70.35 -2.25 -70.3 0.0 -70.1 2.2 -69.9 4.2 -69.6 6.25 -69.3 8.1 -68.9 10.0 -68.55 11.65 -68.05 13.35 -67.65 14.85 -67.2 16.35 -66.8 17.65 -66.3 19.0 -66.0 19.9 -65.5 21.25 -65.15 22.15 -64.8 23.05 -64.3 24.3 -63.75 25.55 -63.1 27.1 -62.35 28.65 -61.45 30.4 -60.45 32.2 -59.35 34.2 -58.15 36.1 -56.8 38.3 -55.35 40.35 -53.7 42.6 -51.95 44.75 -50.05 47.05 -48.05 49.25 -47.2 50.15 -46.3 51.05 -45.45 51.9 -44.55 52.75 -43.7 53.55 -42.85 54.3 -42.05 55.0 -41.2 55.7 -40.45 56.4 -39.65 57.0 -38.9 57.6 -38.15 58.2 -37.45 58.75 -36.75 59.25 -36.1 59.75 -35.4 60.2 L-35.4 60.2" fill="#48a366" fill-rule="evenodd" stroke="none"/>
    <path d="M-26.3 63.15 Q-24.55 61.8 -22.85 60.45 -21.2 59.15 -19.6 57.85 -18.05 56.6 -16.55 55.35 -15.15 54.2 -13.75 53.0 -12.45 51.9 -11.15 50.8 -9.95 49.75 -8.8 48.7 -7.7 47.75 -6.65 46.75 -5.65 45.9 -4.7 45.0 7.75 33.4 13.65 28.2 14.95 27.05 16.7 25.6 18.35 24.2 19.55 23.15 30.35 13.85 45.05 -0.05 46.15 -1.1 47.25 -2.15 48.45 -3.25 49.6 -4.35 50.8 -5.55 52.0 -6.7 53.3 -7.95 54.55 -9.15 55.9 -10.45 57.2 -11.75 58.6 -13.1 59.95 -14.45 61.35 -15.85 62.8 -17.25 64.25 -18.7 65.7 -20.15 65.85 -19.8 66.0 -19.45 66.15 -19.05 66.3 -18.65 66.45 -18.2 66.6 -17.8 66.75 -17.3 66.95 -16.85 67.1 -16.35 67.25 -15.85 67.4 -15.3 67.55 -14.8 67.7 -14.2 67.85 -13.65 68.0 -13.05 68.15 -12.45 68.4 -11.25 68.6 -10.05 68.8 -8.95 68.95 -7.8 69.05 -6.7 69.15 -5.65 69.2 -4.65 69.25 -3.6 69.25 -2.65 69.25 -1.65 69.25 -0.8 69.2 0.15 69.2 0.95 69.15 1.9 69.1 2.5 69.05 3.5 68.65 9.7 66.75 21.1 66.8 20.95 66.6 22.05 66.5 22.55 66.45 22.9 66.4 23.35 66.3 23.7 66.25 24.15 66.2 24.5 66.15 24.9 66.15 25.3 66.1 25.7 66.1 26.1 66.05 26.55 66.05 26.95 66.05 27.4 66.05 27.85 66.05 28.55 66.15 29.25 66.2 29.85 66.25 30.45 66.35 30.95 66.45 31.55 66.5 31.85 66.65 32.6 66.8 33.25 66.85 33.6 66.95 34.2 67.0 34.7 67.1 35.3 67.15 35.9 67.2 36.55 67.2 37.3 67.2 37.5 67.2 37.75 67.2 38.0 67.2 38.3 67.2 38.65 67.15 39.05 67.15 39.45 67.1 39.85 67.05 40.35 67.0 40.8 66.95 41.3 66.85 41.85 66.8 42.4 66.65 42.9 66.55 43.5 66.4 44.05 66.35 44.35 66.25 44.65 66.1 45.1 65.95 45.6 65.75 46.15 65.5 46.75 65.25 47.5 64.9 48.2 64.55 49.0 64.1 49.75 63.6 50.65 63.1 51.45 62.5 52.35 61.85 53.2 61.1 54.15 60.3 55.0 59.65 55.7 59.0 56.3 58.35 56.9 57.65 57.45 57.0 57.95 56.25 58.4 55.55 58.9 54.75 59.35 54.05 59.75 53.2 60.15 52.4 60.55 51.45 61.0 50.65 61.35 49.6 61.8 48.85 62.15 47.55 62.7 46.9 62.95 46.3 63.2 45.6 63.5 44.9 63.75 44.15 64.05 43.4 64.3 42.6 64.6 41.75 64.85 40.9 65.1 40.0 65.4 39.05 65.65 38.1 65.9 37.1 66.2 36.05 66.45 35.0 66.7 33.9 66.95 31.85 67.4 29.8 67.7 27.85 68.05 25.9 68.25 24.1 68.45 22.25 68.6 20.5 68.75 18.75 68.8 17.15 68.85 15.45 68.9 13.95 68.9 12.35 68.85 11.0 68.85 9.4 68.75 8.35 68.75 6.65 68.65 6.1 68.65 5.5 68.6 4.8 68.55 4.05 68.5 3.15 68.45 2.2 68.35 1.15 68.3 0.1 68.2 -1.1 68.05 -2.3 67.95 -3.65 67.8 -4.95 67.6 -6.4 67.4 -7.85 67.2 -9.4 66.95 -10.9 66.7 -12.0 66.5 -13.15 66.3 -14.2 66.1 -15.25 65.85 -16.3 65.65 -17.35 65.45 -18.3 65.2 -19.3 65.0 -20.25 64.75 -21.2 64.5 -22.1 64.3 -23.0 64.05 -23.85 63.85 -24.7 63.6 -25.5 63.35 -26.3 63.15 L-26.3 63.15" fill="#48a366" fill-rule="evenodd" stroke="none"/>
  </g>
</svg>
