<?xml version="1.0" encoding="UTF-8" standalone="no"?>
<svg xmlns:xlink="http://www.w3.org/1999/xlink" height="120.05px" width="126.9px" xmlns="http://www.w3.org/2000/svg">
  <g transform="matrix(1.0, 0.0, 0.0, 1.0, 63.45, 60.05)">
    <path d="M0.85 -60.25 Q0.85 -60.2 0.9 -60.15 0.95 -60.15 1.0 -60.15 1.0 -60.15 0.95 -60.15 1.05 -60.15 1.15 -60.15 1.3 -60.15 1.45 -60.15 1.6 -60.15 1.75 -60.15 1.85 -60.15 2.0 -60.15 2.15 -60.15 2.3 -60.15 2.45 -60.1 2.6 -60.1 2.75 -60.1 2.85 -60.1 3.0 -60.1 3.15 -60.05 3.3 -60.05 3.45 -60.05 3.6 -60.05 3.75 -60.05 3.9 -60.05 4.0 -60.0 4.15 -60.0 4.3 -60.0 4.45 -60.0 4.6 -60.0 4.75 -60.0 4.85 -59.95 5.0 -59.95 5.15 -59.95 5.3 -59.95 5.4 -59.9 5.55 -59.9 5.7 -59.9 5.85 -59.9 6.0 -59.85 6.15 -59.85 6.3 -59.85 6.4 -59.85 6.55 -59.8 6.7 -59.8 6.85 -59.8 7.0 -59.75 7.15 -59.75 7.3 -59.75 7.4 -59.7 7.55 -59.7 7.7 -59.7 7.85 -59.65 8.0 -59.65 9.1 -59.5 10.25 -59.35 10.4 -59.35 10.5 -59.3 10.65 -59.25 10.8 -59.25 10.95 -59.2 11.05 -59.2 11.2 -59.15 11.35 -59.15 11.5 -59.1 11.65 -59.1 11.75 -59.05 11.9 -59.0 12.05 -59.0 12.2 -58.95 12.3 -58.95 12.45 -58.9 12.6 -58.9 12.75 -58.85 12.9 -58.8 13.0 -58.8 13.15 -58.75 13.3 -58.75 13.45 -58.7 13.6 -58.7 13.75 -58.65 13.85 -58.6 14.0 -58.6 14.15 -58.55 14.3 -58.5 14.4 -58.45 14.55 -58.45 14.7 -58.4 14.85 -58.35 14.95 -58.35 15.1 -58.3 15.25 -58.25 15.4 -58.25 15.5 -58.2 15.65 -58.15 15.8 -58.15 15.95 -58.1 16.1 -58.05 16.2 -58.05 16.35 -58.0 16.5 -57.95 16.65 -57.9 16.75 -57.9 16.9 -57.85 17.05 -57.8 17.15 -57.75 17.3 -57.75 17.45 -57.7 17.6 -57.65 17.7 -57.6 17.85 -57.6 18.0 -57.55 18.15 -57.5 18.3 -57.45 18.4 -57.4 18.55 -57.35 18.7 -57.35 18.85 -57.3 18.95 -57.25 19.1 -57.2 26.3 -54.85 28.9 -53.75 29.0 -53.7 29.05 -53.7 29.15 -53.65 29.2 -53.6 29.3 -53.6 29.4 -53.55 29.45 -53.5 29.55 -53.5 29.65 -53.45 29.7 -53.4 29.8 -53.4 29.9 -53.35 29.95 -53.3 30.05 -53.25 30.1 -53.25 30.2 -53.2 30.8 -52.9 31.45 -52.55 31.5 -52.5 31.6 -52.45 31.7 -52.45 31.75 -52.4 31.85 -52.35 31.9 -52.3 32.0 -52.3 32.05 -52.25 32.15 -52.2 32.2 -52.2 32.3 -52.15 32.4 -52.1 32.45 -52.05 32.55 -52.05 32.6 -52.0 32.7 -51.95 33.3 -51.6 33.9 -51.25 34.0 -51.2 34.05 -51.15 34.15 -51.15 34.2 -51.1 34.3 -51.05 34.35 -51.0 34.45 -50.95 34.5 -50.95 34.6 -50.9 34.65 -50.85 34.75 -50.8 34.8 -50.75 34.9 -50.7 34.95 -50.65 35.05 -50.6 35.1 -50.55 35.7 -50.2 36.3 -49.85 36.4 -49.8 36.45 -49.75 36.55 -49.7 36.6 -49.65 36.7 -49.65 36.75 -49.6 36.8 -49.55 36.9 -49.5 36.95 -49.45 37.05 -49.4 37.15 -49.35 37.2 -49.3 37.25 -49.25 37.35 -49.2 37.4 -49.15 37.5 -49.1 38.05 -48.75 38.7 -48.35 39.45 -47.85 40.2 -47.35 40.3 -47.3 40.4 -47.2 40.5 -47.15 40.6 -47.1 40.65 -47.05 40.75 -46.95 40.85 -46.9 40.95 -46.85 41.05 -46.75 41.15 -46.7 41.25 -46.65 41.35 -46.55 41.4 -46.5 41.5 -46.45 41.6 -46.35 41.7 -46.3 42.4 -45.75 43.1 -45.2 43.2 -45.15 43.3 -45.05 43.4 -45.0 43.45 -44.9 43.55 -44.85 43.65 -44.8 43.75 -44.7 43.85 -44.65 43.9 -44.6 44.0 -44.5 44.1 -44.45 44.15 -44.4 44.25 -44.3 44.35 -44.25 44.4 -44.15 44.5 -44.1 45.2 -43.5 45.9 -42.9 46.55 -42.3 47.2 -41.7 47.85 -41.05 48.5 -40.4 48.6 -40.3 48.65 -40.25 48.75 -40.15 48.8 -40.05 48.9 -40.0 49.0 -39.9 49.05 -39.8 49.15 -39.75 49.2 -39.65 49.3 -39.55 49.35 -39.5 49.45 -39.4 49.5 -39.3 49.6 -39.2 49.7 -39.15 49.75 -39.05 49.8 -39.0 49.85 -38.9 49.9 -38.85 50.0 -38.8 50.05 -38.75 50.1 -38.65 50.15 -38.6 50.2 -38.55 50.25 -38.45 50.3 -38.4 50.35 -38.35 50.45 -38.25 50.5 -38.2 50.55 -38.15 50.6 -38.05 50.65 -38.0 51.1 -37.45 51.55 -36.9 51.6 -36.85 51.65 -36.75 51.7 -36.7 51.75 -36.6 51.8 -36.55 51.85 -36.5 51.9 -36.4 51.95 -36.35 52.0 -36.25 52.05 -36.2 52.1 -36.1 52.15 -36.05 52.2 -35.95 52.25 -35.9 52.3 -35.85 52.35 -35.75 52.4 -35.7 52.45 -35.6 52.5 -35.55 52.55 -35.45 52.6 -35.4 52.65 -35.35 52.7 -35.25 52.75 -35.2 52.8 -35.1 52.85 -35.05 52.9 -34.95 52.95 -34.9 53.0 -34.8 53.05 -34.75 53.1 -34.7 53.15 -34.6 53.2 -34.5 53.25 -34.45 53.3 -34.4 53.35 -34.3 53.35 -34.25 53.4 -34.15 53.45 -34.05 53.5 -34.0 53.55 -33.9 53.6 -33.85 53.65 -33.8 53.7 -33.7 53.75 -33.6 53.8 -33.55 53.85 -33.45 53.9 -33.4 54.25 -32.8 54.6 -32.2 54.65 -32.1 54.7 -32.05 54.75 -31.95 54.75 -31.9 54.8 -31.8 54.85 -31.75 54.9 -31.65 54.95 -31.6 55.0 -31.5 55.05 -31.45 55.1 -31.35 55.15 -31.25 55.15 -31.2 55.2 -31.1 55.25 -31.05 55.3 -30.95 55.6 -30.35 55.95 -29.7 56.05 -29.55 56.1 -29.35 56.2 -29.2 56.25 -29.05 56.35 -28.9 56.45 -28.7 56.5 -28.55 56.6 -28.4 56.65 -28.2 56.75 -28.05 56.8 -27.9 56.9 -27.7 56.95 -27.55 57.05 -27.4 57.15 -27.2 57.2 -27.05 57.25 -26.9 57.35 -26.7 57.4 -26.55 57.5 -26.35 57.55 -26.2 57.65 -26.05 57.7 -25.85 57.8 -25.7 57.85 -25.55 57.95 -25.35 58.0 -25.2 58.05 -25.0 58.15 -24.85 58.2 -24.7 58.3 -24.5 58.35 -24.35 58.4 -24.2 58.5 -24.0 58.55 -23.85 58.6 -23.65 58.7 -23.5 58.75 -23.35 58.8 -23.15 58.9 -23.0 58.95 -22.8 59.0 -22.65 59.05 -22.45 59.1 -22.3 59.2 -22.1 59.25 -21.95 59.3 -21.8 59.35 -21.6 59.4 -21.45 59.45 -21.25 59.55 -21.1 59.6 -20.9 59.65 -20.75 59.7 -20.6 59.75 -20.4 59.8 -20.25 59.9 -20.05 59.95 -19.9 60.0 -19.7 60.05 -19.55 60.1 -19.35 60.15 -19.2 60.2 -19.0 60.25 -18.85 60.3 -18.7 60.35 -18.5 60.4 -18.35 60.45 -18.15 60.5 -18.0 60.55 -17.8 60.65 -17.6 60.7 -17.45 60.75 -17.25 60.75 -17.1 60.8 -16.9 60.85 -16.75 60.9 -16.55 60.95 -16.4 61.0 -16.2 61.05 -16.05 61.45 -14.55 61.75 -13.2 61.8 -13.05 61.8 -12.85 61.85 -12.65 61.9 -12.5 61.95 -12.3 61.95 -12.15 62.0 -11.95 62.05 -11.8 62.05 -11.6 62.1 -11.45 62.15 -11.25 62.15 -11.05 62.2 -10.9 62.25 -10.7 62.25 -10.55 62.3 -10.35 62.35 -10.15 62.35 -10.0 62.4 -9.8 62.4 -9.6 62.45 -9.45 62.45 -9.25 62.5 -9.1 62.55 -8.9 62.55 -8.7 62.55 -8.55 62.6 -8.35 62.6 -8.2 62.65 -8.0 62.65 -7.8 62.7 -7.65 62.7 -7.45 62.7 -7.3 62.75 -7.2 62.75 -7.05 62.75 -6.9 62.8 -6.8 62.8 -6.65 62.8 -6.55 62.85 -6.4 62.85 -6.25 62.85 -6.15 62.9 -6.0 62.9 -5.85 62.9 -5.75 62.9 -5.6 62.95 -5.5 62.95 -5.35 63.05 -4.55 63.15 -3.3 63.15 -3.15 63.15 -3.05 63.2 -2.9 63.2 -2.75 63.2 -2.65 63.2 -2.5 63.25 -2.4 63.25 -2.25 63.25 -2.1 63.25 -2.0 63.25 -1.85 63.25 -1.7 63.3 -1.6 63.3 -1.45 63.3 -1.35 63.3 -1.2 63.3 -1.05 63.3 -0.95 63.3 -0.8 63.3 -0.7 63.35 -0.55 63.35 -0.45 63.35 -0.3 63.35 -0.2 63.35 -0.05 63.35 0.05 63.35 0.2 63.35 0.35 63.35 0.45 63.35 0.6 63.35 0.7 63.35 0.85 63.35 1.0 63.35 1.1 63.35 1.25 63.35 1.4 63.4 1.5 63.4 1.65 63.4 1.75 63.4 1.9 63.4 2.05 63.4 2.15 63.4 2.3 63.4 2.45 63.4 2.55 63.4 2.7 63.4 2.8 63.4 2.95 63.4 4.0 63.4 5.05 63.4 5.15 63.4 5.3 63.4 5.45 63.4 5.55 63.4 5.7 63.4 5.8 63.4 5.95 63.4 6.05 63.4 6.2 63.4 6.3 63.4 6.45 63.35 6.6 63.35 6.7 63.35 6.85 63.35 6.95 63.35 7.1 63.3 8.15 63.25 9.2 63.25 9.25 63.25 9.3 63.25 9.35 63.25 9.4 63.2 9.45 63.2 9.5 63.2 9.55 63.2 9.6 63.2 9.65 63.2 9.7 63.2 9.75 63.2 9.8 63.2 9.85 63.2 9.9 63.2 9.95 63.2 10.0 63.2 10.05 63.2 10.1 63.2 10.15 63.2 10.2 63.15 10.25 63.15 10.3 63.15 10.35 63.15 10.4 63.15 10.45 63.15 10.5 63.15 10.55 63.15 10.6 63.15 10.65 63.15 10.7 63.15 10.75 63.15 10.8 63.1 11.2 63.05 11.6 63.05 11.65 63.05 11.7 63.05 11.75 63.05 11.8 63.05 11.85 63.05 11.9 63.05 11.95 63.05 12.0 63.05 12.05 63.05 12.1 63.05 12.15 63.0 12.15 63.0 12.2 63.0 12.25 63.0 12.3 63.0 12.35 63.0 12.4 63.0 12.45 63.0 12.5 63.0 12.55 62.95 12.6 62.95 12.65 62.95 12.7 62.95 12.75 62.95 12.8 62.95 12.85 62.95 12.9 62.95 12.95 62.95 13.0 62.95 13.05 62.95 13.1 62.95 13.15 62.9 13.55 62.85 13.95 62.8 14.35 62.75 14.75 62.75 14.8 62.75 14.85 62.75 14.9 62.75 14.95 62.75 15.0 62.75 15.05 62.75 15.1 62.75 15.15 62.75 15.2 62.75 15.25 62.75 15.3 62.7 15.35 62.7 15.4 62.7 15.45 62.7 15.5 62.7 15.55 62.7 15.6 62.7 15.65 62.7 15.65 62.7 15.7 62.7 15.75 62.65 15.8 62.65 15.8 62.65 15.85 62.6 16.0 62.55 16.15 62.5 16.3 62.45 16.45 62.45 16.5 62.45 16.55 62.45 16.55 62.45 16.6 62.4 16.65 62.4 16.7 62.4 16.7 62.35 16.75 61.8 18.25 62.25 17.05 62.2 17.2 62.15 17.35 62.1 17.5 62.05 17.65 62.0 17.8 61.95 17.95 61.85 18.45 61.75 18.95 61.75 19.0 61.75 19.05 61.75 19.15 61.7 19.2 61.7 19.25 61.7 19.3 61.7 19.4 61.7 19.45 61.7 19.5 61.65 19.6 61.65 19.65 61.65 19.7 61.65 19.75 61.6 19.85 61.6 19.9 61.6 19.95 61.6 20.0 61.6 20.05 61.6 20.15 61.6 20.2 61.55 20.25 61.55 20.3 61.55 20.4 61.55 20.45 61.55 20.5 61.55 20.6 61.55 20.65 61.55 20.7 61.55 20.75 61.55 20.85 61.55 20.9 61.55 20.95 61.55 21.0 61.55 21.05 61.55 21.1 61.55 21.2 61.5 21.25 61.5 21.3 61.5 21.35 61.5 21.4 61.5 21.5 61.5 21.55 61.5 21.6 61.45 21.7 61.45 21.75 61.45 21.8 61.45 21.9 61.45 21.95 61.45 22.45 61.45 22.95 61.45 23.45 61.45 23.95 61.45 24.45 61.45 24.95 61.45 25.0 61.45 25.05 61.45 25.1 61.45 25.2 61.5 25.25 61.5 25.3 61.5 25.35 61.5 25.4 61.5 25.5 61.5 25.55 61.5 25.6 61.5 25.7 61.5 25.75 61.5 25.8 61.5 25.9 61.5 25.95 61.55 27.35 61.85 29.8 62.15 32.5 62.2 33.6 62.2 33.7 62.2 33.8 62.2 33.9 62.2 34.0 62.25 34.15 62.25 34.25 62.25 34.35 62.25 34.45 62.25 34.55 62.25 34.65 62.25 34.75 62.25 34.85 62.25 34.95 62.25 35.05 62.25 35.15 62.25 35.25 62.25 35.35 62.25 35.45 62.25 35.55 62.25 35.65 62.25 35.75 62.25 35.85 62.25 35.95 62.25 36.05 62.2 36.15 62.2 36.25 62.2 36.35 62.2 36.4 62.2 36.5 62.15 36.6 62.15 36.7 62.15 36.8 62.15 36.9 62.15 37.0 62.15 37.1 62.1 37.2 62.1 37.3 62.1 37.4 62.1 37.5 62.1 37.6 62.05 37.7 62.05 37.8 62.05 37.9 62.0 37.95 62.0 38.05 62.0 38.15 61.95 38.25 61.95 38.35 61.95 38.45 61.9 38.55 61.9 38.65 61.85 38.75 61.85 38.85 61.85 38.95 61.8 39.05 61.8 39.15 61.75 39.25 61.75 39.35 61.7 39.45 61.7 39.5 61.65 39.6 61.65 39.7 61.6 39.8 61.6 39.9 61.35 40.7 61.1 41.35 61.05 41.45 61.0 41.55 61.0 41.65 60.95 41.7 60.9 41.8 60.85 41.9 60.85 42.0 60.8 42.1 60.75 42.2 60.7 42.25 60.65 42.35 60.6 42.45 60.6 42.55 60.55 42.6 60.5 42.7 60.45 42.8 60.4 42.9 60.35 42.95 60.3 43.05 60.25 43.15 60.2 43.25 60.15 43.3 60.15 43.4 60.1 43.5 60.05 43.55 59.95 43.65 59.9 43.75 59.85 43.8 59.8 43.9 59.75 44.0 59.7 44.05 59.65 44.15 59.6 44.25 59.55 44.3 59.5 44.4 59.45 44.5 59.4 44.6 59.35 44.65 59.3 44.75 59.2 44.85 59.15 44.9 59.1 45.0 59.05 45.1 59.0 45.15 58.95 45.25 58.85 45.35 58.8 45.4 58.75 45.5 58.7 45.6 58.6 45.7 58.55 45.75 58.45 45.85 58.4 45.95 58.35 46.05 58.25 46.1 58.2 46.2 58.1 46.3 58.05 46.35 57.95 46.45 57.9 46.55 57.8 46.65 57.75 46.7 57.7 46.8 57.6 46.9 57.55 47.0 57.45 47.05 57.4 47.15 57.3 47.2 57.25 47.3 57.15 47.4 57.1 47.45 57.0 47.55 56.95 47.65 56.85 47.7 56.8 47.8 56.7 47.9 56.65 47.95 56.55 48.05 56.5 48.1 56.4 48.2 56.35 48.3 56.25 48.35 56.15 48.45 56.1 48.5 56.0 48.6 55.95 48.7 55.85 48.75 55.8 48.85 55.7 48.9 55.65 49.0 55.55 49.05 55.45 49.15 55.4 49.2 55.3 49.3 55.25 49.4 55.15 49.45 55.05 49.5 55.0 49.6 54.9 49.65 54.85 49.75 54.75 49.8 54.65 49.9 54.6 49.95 54.5 50.05 54.4 50.1 54.35 50.2 54.25 50.25 54.15 50.3 54.1 50.4 54.0 50.45 53.95 50.55 53.85 50.6 53.75 50.65 53.65 50.75 53.6 50.8 53.5 50.85 53.4 50.95 53.3 51.0 53.25 51.05 53.15 51.15 53.05 51.2 53.0 51.25 52.9 51.35 52.8 51.4 52.7 51.45 52.65 51.5 52.55 51.6 52.45 51.65 52.35 51.7 52.25 51.75 52.2 51.85 52.1 51.9 52.0 51.95 51.9 52.0 51.85 52.1 51.75 52.15 51.65 52.2 51.55 52.3 51.45 52.35 51.35 52.4 51.3 52.45 51.2 52.55 51.1 52.6 51.0 52.65 50.25 53.1 49.5 53.55 49.4 53.6 49.3 53.65 49.2 53.7 49.1 53.75 49.0 53.8 48.9 53.85 48.8 53.95 48.7 54.0 48.6 54.05 48.5 54.05 48.4 54.1 48.3 54.15 48.2 54.2 48.1 54.25 48.0 54.3 47.9 54.35 47.0 54.8 46.1 55.25 45.2 55.65 44.3 56.05 44.2 56.1 44.05 56.15 43.95 56.2 43.85 56.25 43.7 56.35 43.6 56.4 43.5 56.45 43.35 56.5 43.25 56.55 43.15 56.6 43.0 56.65 42.9 56.7 42.8 56.75 42.7 56.8 42.55 56.85 42.45 56.9 42.35 56.95 42.2 57.0 42.1 57.05 42.0 57.1 41.85 57.1 41.75 57.15 41.65 57.2 41.5 57.25 41.4 57.3 41.3 57.35 41.15 57.4 41.05 57.45 40.95 57.5 40.85 57.55 40.7 57.6 40.6 57.65 39.65 58.0 38.7 58.35 38.6 58.4 38.45 58.45 38.35 58.5 38.25 58.5 38.15 58.55 38.0 58.6 37.9 58.65 37.8 58.7 37.65 58.75 37.55 58.8 37.45 58.85 37.3 58.9 37.2 58.9 37.1 58.95 36.95 59.0 36.85 59.05 35.9 59.35 34.95 59.65 34.85 59.7 34.7 59.7 34.6 59.75 34.45 59.8 34.35 59.85 34.2 59.85 34.1 59.9 33.95 59.95 33.85 59.95 33.7 60.0 33.6 60.05 33.5 60.05 33.35 60.1 33.25 60.15 33.1 60.15 33.0 60.2 31.25 60.7 25.0 61.8 24.15 61.95 22.5 62.25 20.8 62.5 19.95 62.7 19.4 62.8 16.95 62.7 16.2 62.65 12.45 62.5 9.7 62.35 7.95 62.3 7.75 62.3 7.5 62.3 7.25 62.3 7.05 62.25 6.8 62.25 6.6 62.25 6.35 62.25 6.15 62.25 5.9 62.2 5.7 62.2 5.45 62.2 5.2 62.15 5.0 62.15 4.75 62.15 4.55 62.1 4.3 62.1 4.05 62.1 3.85 62.05 3.6 62.05 3.4 62.05 3.15 62.05 2.95 62.0 2.7 62.0 2.5 61.95 2.25 61.95 2.05 61.95 1.8 61.9 1.55 61.9 1.35 61.85 1.1 61.85 0.9 61.8 0.65 61.8 0.45 61.8 0.2 61.75 0.0 61.7 -0.25 61.7 -0.45 61.65 -0.7 61.65 -0.9 61.6 -1.15 61.6 -1.35 61.55 -1.6 61.5 -1.8 61.5 -2.05 61.45 -2.25 61.4 -2.5 61.35 -2.7 61.35 -2.95 61.3 -3.15 61.25 -3.4 61.25 -3.6 61.2 -3.85 61.15 -4.05 61.15 -4.3 61.1 -4.5 61.05 -4.75 61.05 -4.95 61.0 -5.2 60.95 -5.4 60.95 -5.65 60.9 -5.85 60.85 -6.1 60.8 -6.3 60.8 -6.55 60.75 -8.5 60.35 -10.1 60.05 -10.3 60.0 -10.55 59.95 -10.75 59.9 -11.0 59.85 -11.2 59.8 -11.4 59.75 -11.65 59.7 -11.85 59.65 -12.1 59.6 -12.3 59.55 -12.55 59.5 -12.75 59.4 -13.0 59.35 -13.2 59.3 -13.45 59.25 -13.65 59.2 -13.85 59.15 -14.1 59.1 -14.3 59.05 -14.55 59.0 -14.75 58.95 -14.95 58.9 -15.2 58.85 -15.4 58.75 -15.65 58.7 -15.85 58.65 -16.1 58.6 -16.3 58.55 -16.55 58.5 -16.75 58.4 -16.95 58.35 -17.2 58.3 -18.85 57.85 -20.7 57.35 -20.9 57.3 -21.1 57.2 -21.3 57.15 -21.5 57.1 -21.75 57.05 -21.95 56.95 -22.15 56.9 -22.35 56.85 -22.55 56.75 -22.75 56.7 -22.95 56.65 -23.15 56.55 -23.35 56.5 -23.55 56.45 -23.75 56.35 -23.95 56.3 -24.15 56.25 -24.35 56.15 -24.55 56.1 -24.75 56.0 -24.95 55.95 -25.15 55.85 -25.35 55.8 -25.55 55.7 -25.75 55.65 -25.95 55.55 -26.15 55.5 -26.3 55.4 -26.5 55.35 -26.7 55.25 -26.9 55.2 -27.1 55.1 -27.3 55.0 -27.5 54.95 -27.7 54.85 -27.85 54.8 -28.05 54.7 -28.25 54.65 -28.45 54.55 -28.65 54.5 -28.85 54.4 -29.05 54.3 -29.25 54.25 -29.45 54.15 -29.6 54.05 -29.8 53.95 -30.0 53.9 -30.2 53.8 -30.4 53.7 -30.55 53.6 -30.75 53.55 -30.95 53.45 -31.15 53.35 -31.3 53.25 -31.5 53.15 -31.7 53.05 -31.9 53.0 -32.05 52.9 -32.25 52.8 -32.45 52.7 -32.65 52.6 -32.8 52.5 -33.0 52.4 -33.2 52.3 -33.4 52.2 -33.55 52.1 -33.75 52.0 -33.95 51.9 -34.15 51.8 -34.3 51.7 -34.5 51.6 -34.7 51.5 -34.85 51.4 -35.05 51.3 -35.25 51.2 -35.4 51.05 -35.6 50.95 -35.8 50.85 -35.95 50.75 -36.15 50.65 -36.35 50.55 -36.5 50.45 -36.7 50.35 -36.85 50.25 -37.05 50.15 -37.25 50.05 -37.4 49.9 -37.6 49.8 -37.75 49.7 -37.95 49.6 -38.1 49.5 -38.3 49.35 -38.45 49.25 -38.65 49.15 -38.8 49.0 -39.0 48.9 -39.2 48.8 -39.35 48.65 -39.55 48.55 -39.7 48.45 -39.9 48.35 -40.05 48.2 -40.25 48.1 -40.4 48.0 -40.6 47.85 -40.75 47.75 -40.95 47.6 -41.1 47.5 -41.3 47.35 -41.45 47.25 -41.65 47.1 -41.8 47.0 -42.0 46.85 -42.15 46.75 -42.3 46.6 -42.5 46.5 -42.65 46.35 -42.85 46.25 -43.0 46.1 -43.2 46.0 -43.35 45.85 -43.55 45.75 -43.7 45.6 -43.85 45.45 -44.05 45.35 -44.2 45.2 -44.4 45.1 -44.55 44.95 -44.55 44.95 -44.6 44.9 -44.65 44.9 -44.65 44.9 -44.65 44.9 -44.7 44.85 -44.7 44.85 -44.75 44.8 -44.8 44.8 -44.8 44.8 -44.85 44.8 -44.9 44.8 -44.9 44.8 -44.95 44.8 -45.0 44.8 -45.05 44.8 -45.05 44.8 -45.1 44.85 -45.15 44.85 -45.15 44.85 -45.15 44.85 -45.2 44.85 -45.25 44.9 -45.25 44.9 -45.3 44.9 -45.3 44.95 -45.35 44.95 -45.4 44.95 -45.4 45.0 -45.45 45.0 -45.5 45.0 -45.5 45.05 -45.55 45.05 -45.6 45.05 -45.6 45.1 -45.65 45.1 -45.7 45.1 -45.75 45.1 -45.75 45.15 -45.8 45.15 -45.85 45.15 -45.85 45.15 -45.9 45.2 -45.95 45.2 -45.95 45.2 -46.0 45.2 -46.0 45.25 -46.05 45.25 -46.1 45.25 -46.1 45.25 -46.15 45.25 -46.15 45.25 -46.2 45.3 -46.25 45.3 -46.25 45.3 -46.3 45.3 -46.35 45.3 -46.35 45.3 -46.4 45.35 -46.45 45.35 -46.5 45.35 -46.5 45.35 -46.55 45.4 -46.6 45.4 -46.6 45.4 -46.65 45.4 -46.7 45.4 -46.7 45.4 -46.75 45.45 -46.8 45.45 -46.8 45.45 -46.85 45.45 -46.9 45.45 -46.9 45.45 -46.95 45.45 -47.0 45.45 -47.0 45.5 -47.05 45.5 -47.1 45.5 -47.1 45.5 -47.15 45.5 -47.2 45.5 -47.2 45.5 -47.25 45.5 -47.3 45.5 -47.35 45.5 -47.35 45.5 -47.4 45.5 -47.65 45.5 -47.95 45.5 -48.0 45.5 -48.0 45.5 -48.05 45.5 -48.1 45.5 -48.15 45.5 -48.15 45.5 -48.2 45.5 -48.25 45.5 -48.25 45.5 -48.3 45.5 -48.35 45.5 -48.35 45.5 -48.4 45.5 -48.45 45.5 -48.45 45.5 -48.5 45.5 -48.8 45.5 -49.1 45.5 -49.15 45.5 -49.15 45.5 -49.2 45.5 -49.25 45.5 -49.25 45.45 -49.3 45.45 -49.35 45.45 -49.35 45.45 -49.4 45.45 -49.45 45.45 -49.45 45.45 -49.5 45.45 -49.55 45.45 -49.6 45.45 -49.6 45.45 -49.65 45.45 -49.7 45.45 -49.75 45.45 -49.8 45.45 -49.85 45.4 -49.95 45.4 -50.0 45.4 -50.05 45.4 -50.1 45.4 -50.15 45.4 -50.2 45.35 -50.25 45.35 -50.3 45.35 -50.35 45.35 -50.4 45.3 -50.45 45.3 -50.5 45.3 -50.55 45.3 -50.6 45.3 -50.65 45.3 -50.7 45.25 -50.75 45.25 -50.8 45.25 -50.85 45.25 -50.9 45.25 -50.95 45.2 -51.0 45.2 -51.05 45.2 -51.1 45.15 -51.15 45.15 -51.2 45.15 -51.25 45.1 -51.3 45.1 -51.35 45.1 -51.4 45.05 -51.45 45.05 -51.5 45.05 -51.55 45.05 -51.6 45.0 -51.65 45.0 -51.7 45.0 -51.75 44.95 -51.8 44.95 -51.85 44.95 -51.9 44.9 -51.95 44.9 -52.0 44.9 -52.05 44.85 -52.1 44.85 -52.15 44.85 -52.2 44.8 -52.25 44.8 -52.3 44.75 -52.35 44.75 -52.4 44.75 -52.45 44.7 -52.5 44.7 -52.55 44.65 -52.6 44.65 -52.65 44.6 -52.65 44.6 -52.7 44.55 -52.75 44.55 -52.8 44.5 -52.85 44.5 -52.9 44.5 -52.95 44.45 -53.0 44.45 -53.05 44.4 -53.1 44.4 -53.15 44.35 -53.2 44.35 -53.25 44.3 -53.3 44.3 -53.35 44.25 -53.4 44.25 -53.4 44.2 -53.45 44.2 -53.5 44.15 -53.55 44.15 -53.6 44.1 -53.65 44.1 -53.7 44.05 -53.75 44.0 -53.75 44.0 -53.8 43.95 -53.85 43.95 -53.9 43.9 -53.95 43.9 -54.0 43.85 -54.05 43.85 -54.1 43.8 -54.15 43.75 -54.15 43.75 -54.2 43.7 -54.25 43.7 -54.3 43.65 -54.65 43.4 -55.0 43.15 -55.35 42.85 -55.65 42.6 -56.2 42.1 -56.75 41.6 -56.8 41.55 -56.9 41.5 -56.95 41.4 -57.0 41.35 -57.1 41.3 -57.15 41.25 -57.2 41.15 -57.3 41.1 -57.35 41.05 -57.4 40.95 -57.5 40.9 -57.55 40.85 -57.6 40.8 -57.65 40.7 -57.75 40.65 -57.8 40.6 -57.85 40.55 -57.9 40.45 -58.0 40.4 -58.05 40.3 -58.1 40.25 -58.15 40.2 -58.25 40.1 -58.3 40.05 -58.35 40.0 -58.4 39.9 -58.45 39.85 -58.5 39.8 -58.6 39.7 -58.65 39.65 -58.7 39.55 -58.75 39.5 -58.8 39.45 -58.85 39.35 -58.95 39.3 -59.0 39.2 -59.05 39.15 -59.1 39.1 -59.2 39.0 -59.25 38.95 -59.3 38.85 -59.35 38.8 -59.4 38.7 -59.45 38.65 -59.55 38.55 -59.6 38.5 -59.65 38.4 -59.7 38.35 -59.75 38.3 -59.8 38.2 -59.85 38.15 -59.9 38.05 -60.0 38.0 -60.05 37.95 -60.1 37.85 -60.15 37.8 -60.2 37.7 -60.25 37.65 -60.3 37.55 -60.35 37.5 -60.4 37.4 -60.45 37.35 -60.5 37.3 -60.55 37.2 -60.6 37.1 -60.65 37.05 -60.7 36.95 -60.75 36.9 -60.8 36.8 -60.85 36.7 -60.9 36.65 -60.95 36.55 -61.0 36.5 -61.05 36.4 -61.1 36.35 -61.1 36.25 -61.15 36.2 -61.2 36.1 -61.25 36.05 -61.3 35.95 -61.65 35.3 -62.0 34.65 -62.05 34.55 -62.05 34.5 -62.1 34.4 -62.15 34.3 -62.2 34.25 -62.2 34.15 -62.25 34.05 -62.3 34.0 -62.35 33.9 -62.35 33.8 -62.4 33.75 -62.45 33.65 -62.5 33.55 -62.5 33.45 -62.55 33.4 -62.6 33.3 -62.65 33.25 -62.65 33.15 -62.7 33.1 -62.7 33.0 -62.75 32.95 -62.75 32.85 -62.8 32.8 -62.85 32.7 -62.85 32.65 -62.85 32.55 -62.9 32.5 -62.9 32.4 -62.95 32.35 -62.95 32.25 -63.0 32.2 -63.0 32.1 -63.0 32.0 -63.05 31.95 -63.05 31.9 -63.1 31.8 -63.1 31.7 -63.15 31.65 -63.15 31.55 -63.15 31.5 -63.2 31.45 -63.2 31.35 -63.25 31.3 -63.25 31.2 -63.25 31.15 -63.25 31.05 -63.3 30.95 -63.3 30.9 -63.3 30.85 -63.3 30.75 -63.35 30.7 -63.35 30.6 -63.35 30.55 -63.35 30.45 -63.35 30.4 -63.4 30.3 -63.4 30.25 -63.4 30.15 -63.4 30.1 -63.4 30.05 -63.4 29.95 -63.4 29.9 -63.4 29.8 -63.4 29.75 -63.4 29.7 -63.4 29.6 -63.4 29.55 -63.4 29.45 -63.4 29.35 -63.4 29.3 -63.4 29.25 -63.4 29.15 -63.4 29.05 -63.4 29.0 -63.4 28.95 -63.4 28.85 -63.4 28.8 -63.4 28.7 -63.4 28.65 -63.4 28.55 -63.4 28.5 -63.4 28.4 -63.4 28.35 -63.35 28.25 -63.35 28.2 -63.35 28.15 -63.35 28.05 -63.35 28.0 -63.35 27.9 -63.3 27.85 -63.3 27.75 -63.3 27.7 -63.3 27.6 -63.25 27.55 -63.25 27.5 -63.25 27.4 -63.25 27.35 -63.2 27.25 -63.2 27.2 -63.15 27.1 -63.15 27.05 -63.15 27.0 -63.1 26.9 -63.1 26.85 -63.1 26.75 -63.05 26.7 -63.05 26.6 -63.0 26.55 -63.0 26.45 -63.0 26.4 -62.95 26.3 -62.95 26.25 -62.95 26.2 -62.9 26.1 -62.85 26.05 -62.85 25.95 -62.8 25.9 -62.8 25.85 -62.75 25.75 -62.75 25.7 -62.7 25.6 -62.7 25.55 -62.65 25.45 -62.6 25.4 -62.6 25.3 -62.55 25.25 -62.55 25.2 -62.5 25.1 -62.2 24.55 -61.9 24.0 -61.9 23.95 -61.85 23.95 -61.85 23.9 -61.8 23.85 -61.8 23.8 -61.8 23.8 -61.75 23.75 -61.75 23.7 -61.7 23.7 -61.7 23.65 -61.65 23.6 -61.65 23.6 -61.6 23.55 -61.6 23.5 -61.55 23.5 -61.55 23.45 -61.55 23.4 -61.5 23.4 -61.5 23.35 -61.45 23.35 -61.45 23.3 -61.4 23.25 -61.4 23.25 -61.35 23.2 -61.35 23.2 -61.3 23.15 -61.25 23.15 -61.25 23.1 -61.2 23.1 -61.2 23.05 -61.2 23.05 -61.15 23.0 -61.15 22.95 -61.1 22.95 -61.05 22.9 -61.05 22.9 -61.0 22.85 -61.0 22.85 -60.95 22.8 -60.95 22.75 -60.9 22.75 -60.9 22.75 -60.85 22.7 -60.8 22.7 -60.8 22.65 -60.75 22.65 -60.75 22.6 -60.7 22.6 -60.65 22.6 -60.65 22.55 -60.6 22.55 -60.6 22.5 -60.55 22.5 -60.5 22.45 -60.5 22.45 -60.45 22.4 -60.45 22.4 -60.4 22.35 -60.4 22.3 -60.35 22.3 -60.35 22.25 -60.3 22.25 -60.3 22.25 -60.25 22.2 -60.0 22.05 -59.75 21.9 -59.7 21.9 -59.7 21.85 -59.65 21.85 -59.6 21.85 -59.55 21.8 -59.55 21.8 -59.5 21.8 -59.45 21.75 -59.45 21.75 -59.4 21.75 -59.35 21.7 -59.35 21.7 -59.3 21.7 -59.25 21.7 -59.25 21.65 -59.2 21.65 -58.9 21.55 -58.65 21.45 -58.35 21.35 -58.05 21.25 -57.5 21.1 -57.3 21.1 -57.25 21.1 -57.2 21.1 -57.15 21.05 -57.15 21.05 -57.1 21.05 -57.05 21.05 -57.05 21.0 -57.0 21.0 -57.0 21.0 -56.95 20.95 -56.95 20.9 -56.95 20.85 -56.95 20.8 -56.95 20.75 -56.95 20.75 -56.95 20.75 -56.95 20.7 -56.95 20.65 -56.95 20.65 -56.95 20.6 -57.0 20.55 -57.0 20.55 -57.0 20.45 -57.05 20.4 -57.1 20.3 -57.1 20.2 -57.15 20.15 -57.15 20.05 -57.2 19.95 -57.2 19.9 -57.25 19.8 -57.25 19.7 -57.3 19.65 -57.35 19.55 -57.35 19.45 -57.4 19.35 -57.4 19.3 -57.45 19.2 -57.65 18.55 -57.85 17.9 -58.05 17.25 -58.25 16.55 -58.25 16.45 -58.3 16.4 -58.3 16.3 -58.35 16.2 -58.35 16.1 -58.4 16.05 -58.4 15.95 -58.45 15.85 -58.45 15.8 -58.5 15.7 -58.5 15.6 -58.5 15.55 -58.55 15.45 -58.55 15.35 -58.6 15.3 -58.6 15.2 -58.8 14.5 -59.0 13.85 -59.0 13.75 -59.05 13.7 -59.05 13.6 -59.1 13.5 -59.1 13.45 -59.1 13.35 -59.15 13.25 -59.15 13.2 -59.2 13.1 -59.2 13.0 -59.25 12.95 -59.25 12.85 -59.3 12.75 -59.3 12.65 -59.35 12.6 -59.35 12.5 -59.5 11.8 -59.65 11.15 -59.8 10.45 -59.95 9.8 -59.95 9.7 -60.0 9.65 -60.0 9.55 -60.0 9.45 -60.05 9.35 -60.05 9.3 -60.05 9.2 -60.1 9.1 -60.1 9.05 -60.1 8.95 -60.15 8.85 -60.15 8.8 -60.15 8.7 -60.15 8.6 -60.2 8.55 -60.2 8.45 -60.2 8.35 -60.25 8.3 -60.25 8.2 -60.25 8.1 -60.3 8.0 -60.3 7.95 -60.3 7.85 -60.35 7.75 -60.35 7.7 -60.35 7.6 -60.4 7.5 -60.4 7.45 -60.4 7.35 -60.4 7.25 -60.45 7.2 -60.45 7.1 -60.45 7.0 -60.5 6.95 -60.5 6.85 -60.5 6.75 -60.55 6.65 -60.55 6.6 -60.55 6.5 -60.6 6.4 -60.6 6.35 -60.6 6.25 -60.6 6.15 -60.6 6.1 -60.65 6.0 -60.65 5.9 -60.65 5.85 -60.65 5.75 -60.65 5.65 -60.7 5.6 -60.7 5.5 -60.7 5.4 -60.75 5.3 -60.75 5.25 -60.75 5.15 -60.8 5.05 -60.8 5.0 -60.8 4.9 -60.8 4.8 -60.8 4.75 -60.85 4.65 -60.85 4.55 -60.85 4.5 -60.85 4.4 -60.85 4.3 -60.85 4.25 -60.9 4.15 -60.9 4.05 -60.9 3.95 -60.9 3.9 -60.95 3.8 -60.95 3.7 -60.95 3.65 -60.95 3.55 -60.95 3.45 -60.95 3.4 -61.0 3.3 -61.0 3.2 -61.0 3.15 -61.0 3.05 -61.0 2.95 -61.0 2.9 -61.05 2.8 -61.05 2.7 -61.05 2.6 -61.05 2.55 -61.05 2.45 -61.1 2.35 -61.1 2.3 -61.1 2.2 -61.1 2.1 -61.1 2.05 -61.1 1.95 -61.1 1.85 -61.1 1.8 -61.1 1.7 -61.15 1.0 -61.2 0.3 -61.2 -0.35 -61.2 -1.05 -61.2 -1.7 -61.1 -3.9 -61.1 -4.05 -61.1 -4.25 -61.1 -4.4 -61.05 -4.6 -61.05 -4.75 -61.05 -4.95 -61.05 -5.1 -61.05 -5.3 -61.05 -5.5 -61.0 -5.65 -61.0 -5.85 -61.0 -6.0 -61.0 -6.2 -60.95 -6.35 -60.95 -6.55 -60.95 -6.7 -60.95 -6.9 -60.9 -7.05 -60.9 -7.25 -60.9 -7.4 -60.9 -7.6 -60.85 -7.75 -60.85 -7.95 -60.85 -8.15 -60.8 -8.3 -60.8 -8.45 -60.8 -8.65 -60.75 -8.8 -60.75 -9.0 -60.75 -9.15 -60.7 -9.35 -60.7 -9.5 -60.7 -9.65 -60.65 -9.85 -60.65 -10.0 -60.6 -10.2 -60.6 -10.35 -60.6 -10.55 -60.55 -10.7 -60.55 -10.9 -60.5 -11.05 -60.5 -11.25 -60.45 -11.4 -60.45 -11.6 -60.4 -11.75 -60.4 -11.95 -60.35 -12.1 -60.35 -12.3 -60.35 -12.45 -60.3 -12.65 -60.25 -12.8 -60.25 -13.0 -60.2 -13.15 -60.2 -13.35 -60.15 -13.5 -60.15 -13.7 -60.1 -13.85 -60.05 -14.05 -60.05 -14.2 -60.0 -14.35 -59.95 -14.55 -59.9 -14.7 -59.9 -14.9 -59.85 -15.05 -59.8 -15.25 -59.8 -15.4 -59.75 -15.55 -59.7 -15.75 -59.7 -15.9 -59.65 -16.1 -59.6 -16.25 -59.6 -16.45 -59.55 -16.6 -59.5 -16.8 -59.5 -16.95 -59.45 -17.1 -59.4 -17.3 -59.35 -17.45 -59.35 -17.65 -59.3 -17.8 -58.95 -19.1 -58.6 -20.55 -58.55 -20.7 -58.5 -20.9 -58.45 -21.05 -58.4 -21.2 -58.35 -21.4 -58.3 -21.55 -58.25 -21.75 -58.2 -21.9 -58.15 -22.05 -58.1 -22.25 -58.05 -22.4 -57.95 -22.55 -57.9 -22.75 -57.85 -22.9 -57.8 -23.1 -57.75 -23.25 -57.7 -23.4 -57.65 -23.6 -57.6 -23.75 -57.5 -23.9 -57.45 -24.1 -57.4 -24.25 -57.35 -24.4 -57.3 -24.6 -57.25 -24.75 -57.15 -24.9 -57.1 -25.05 -57.05 -25.2 -57.0 -25.4 -56.9 -25.55 -56.85 -25.7 -56.8 -25.85 -56.25 -27.2 -55.7 -28.4 -55.65 -28.55 -55.55 -28.7 -55.5 -28.9 -55.4 -29.05 -55.35 -29.2 -55.25 -29.35 -55.2 -29.5 -55.1 -29.7 -55.05 -29.85 -54.95 -30.0 -54.9 -30.15 -54.8 -30.3 -54.75 -30.45 -54.65 -30.6 -54.6 -30.75 -54.5 -30.9 -54.4 -31.05 -54.35 -31.2 -54.25 -31.35 -54.15 -31.5 -54.1 -31.65 -54.0 -31.8 -53.9 -31.95 -53.85 -32.1 -53.75 -32.25 -53.65 -32.4 -53.6 -32.55 -53.5 -32.7 -53.4 -32.85 -53.3 -33.0 -53.25 -33.15 -53.15 -33.3 -53.05 -33.45 -52.95 -33.6 -52.9 -33.75 -52.8 -33.9 -52.7 -34.0 -52.6 -34.15 -52.55 -34.3 -52.45 -34.45 -52.35 -34.6 -52.25 -34.75 -52.15 -34.9 -52.05 -35.0 -52.0 -35.15 -51.9 -35.3 -51.8 -35.45 -51.7 -35.6 -51.6 -35.75 -51.5 -35.85 -51.4 -36.0 -51.3 -36.15 -51.2 -36.3 -51.1 -36.4 -51.0 -36.55 -50.9 -36.7 -50.8 -36.85 -50.7 -37.0 -50.6 -37.1 -50.45 -37.25 -50.35 -37.4 -50.25 -37.55 -50.15 -37.65 -50.05 -37.8 -49.95 -37.95 -49.85 -38.05 -49.75 -38.2 -49.6 -38.35 -49.5 -38.5 -49.4 -38.6 -49.3 -38.75 -49.2 -38.85 -49.1 -39.0 -48.95 -39.15 -48.85 -39.25 -48.75 -39.4 -48.65 -39.5 -48.5 -39.65 -48.4 -39.75 -48.3 -39.9 -48.2 -40.05 -48.05 -40.15 -47.95 -40.3 -47.8 -40.4 -47.7 -40.55 -47.6 -40.65 -47.45 -40.8 -47.35 -40.95 -47.2 -41.05 -47.1 -41.15 -46.95 -41.3 -46.85 -41.4 -46.7 -41.55 -46.6 -41.65 -46.5 -41.8 -46.35 -41.9 -46.15 -42.1 -45.9 -42.3 -45.7 -42.5 -45.5 -42.7 -45.3 -42.9 -45.05 -43.1 -44.85 -43.3 -44.65 -43.5 -44.4 -43.7 -44.2 -43.9 -43.95 -44.1 -43.75 -44.3 -43.5 -44.5 -43.3 -44.65 -43.1 -44.85 -42.85 -45.05 -42.65 -45.25 -42.4 -45.4 -42.2 -45.6 -41.95 -45.8 -41.75 -45.95 -41.5 -46.15 -41.3 -46.35 -41.05 -46.5 -40.85 -46.7 -40.6 -46.85 -40.4 -47.05 -40.15 -47.2 -39.95 -47.4 -39.7 -47.55 -39.5 -47.75 -39.25 -47.9 -39.0 -48.05 -38.8 -48.25 -38.55 -48.4 -38.3 -48.55 -38.1 -48.75 -37.85 -48.9 -37.6 -49.05 -37.4 -49.25 -37.15 -49.4 -36.9 -49.55 -36.65 -49.7 -36.4 -49.85 -36.2 -50.05 -35.95 -50.2 -35.7 -50.35 -35.45 -50.5 -35.2 -50.65 -34.95 -50.8 -34.7 -50.95 -34.45 -51.1 -34.25 -51.25 -34.0 -51.4 -33.75 -51.55 -33.5 -51.7 -33.25 -51.85 -33.0 -52.0 -32.75 -52.1 -32.5 -52.25 -32.3 -52.4 -32.05 -52.55 -31.8 -52.65 -31.55 -52.8 -31.3 -52.95 -31.05 -53.05 -30.8 -53.2 -30.5 -53.35 -30.25 -53.45 -30.0 -53.6 -29.75 -53.7 -29.5 -53.85 -29.25 -53.95 -29.0 -54.1 -28.75 -54.2 -28.5 -54.35 -28.2 -54.45 -27.95 -54.55 -27.7 -54.7 -27.45 -54.8 -27.2 -54.9 -26.9 -55.05 -26.65 -55.15 -26.4 -55.25 -26.15 -55.4 -25.85 -55.5 -25.6 -55.6 -25.35 -55.7 -25.05 -55.8 -24.8 -55.95 -24.55 -56.05 -24.25 -56.15 -24.0 -56.25 -23.75 -56.35 -23.45 -56.45 -23.2 -56.55 -22.9 -56.65 -22.65 -56.75 -22.35 -56.85 -22.1 -56.95 -21.8 -57.05 -21.55 -57.1 -21.25 -57.2 -21.0 -57.3 -20.7 -57.4 -20.45 -57.45 -20.15 -57.55 -19.9 -57.65 -19.6 -57.7 -19.35 -57.8 -19.05 -57.9 -18.8 -57.95 -18.5 -58.05 -18.25 -58.1 -17.95 -58.2 -17.65 -58.25 -17.4 -58.35 -17.1 -58.4 -16.8 -58.5 -16.55 -58.55 -16.25 -58.6 -15.95 -58.7 -15.65 -58.75 -15.35 -58.8 -15.1 -58.85 -14.8 -58.95 -14.5 -59.0 -14.2 -59.05 -13.35 -59.2 -12.5 -59.35 -12.4 -59.35 -12.3 -59.4 -12.2 -59.4 -12.05 -59.4 -11.95 -59.45 -11.85 -59.45 -11.75 -59.45 -11.65 -59.5 -11.55 -59.5 -11.4 -59.5 -11.3 -59.55 -11.2 -59.55 -11.1 -59.55 -10.95 -59.55 -10.85 -59.6 -10.75 -59.6 -10.65 -59.6 -10.55 -59.65 -10.45 -59.65 -10.3 -59.65 -10.2 -59.7 -10.1 -59.7 -10.0 -59.7 -9.9 -59.75 -9.8 -59.75 -9.7 -59.75 -9.6 -59.8 -9.5 -59.8 -9.35 -59.8 -9.25 -59.8 -9.15 -59.85 -9.05 -59.85 -8.95 -59.85 -8.85 -59.85 -8.75 -59.85 -8.6 -59.9 -8.5 -59.9 -8.4 -59.9 -8.3 -59.9 -8.2 -59.9 -8.1 -59.9 -7.95 -59.95 -7.85 -59.95 -7.75 -59.95 -7.65 -59.95 -7.5 -60.0 -7.4 -60.0 -7.3 -60.0 -6.45 -60.05 -5.6 -60.1 -4.45 -60.15 -3.85 -60.2 -3.0 -60.2 -2.1 -60.2 -1.25 -60.2 -0.4 -60.2 -0.35 -60.2 -0.35 -60.2 -0.3 -60.2 -0.25 -60.2 -0.2 -60.2 -0.2 -60.2 -0.15 -60.2 -0.15 -60.2 -0.1 -60.2 -0.05 -60.2 0.0 -60.2 0.0 -60.2 0.05 -60.2 0.05 -60.2 0.1 -60.25 0.1 -60.25 0.45 -60.25 0.85 -60.25 L0.85 -60.25 M12.05 60.25 Q15.9 60.45 16.25 60.45 16.5 60.45 16.7 60.45 16.75 60.45 16.8 60.45 16.8 60.45 16.85 60.45 16.9 60.45 16.95 60.45 17.0 60.45 17.05 60.5 17.1 60.5 17.15 60.5 22.3 60.85 17.6 60.5 17.65 60.5 17.7 60.5 17.75 60.55 17.8 60.55 17.85 60.55 17.9 60.55 17.95 60.55 17.95 60.55 18.0 60.55 18.05 60.55 18.25 60.55 18.5 60.55 18.7 60.55 18.95 60.55 19.15 60.55 19.4 60.55 19.65 60.5 19.9 60.45 20.5 60.35 21.55 60.15 22.8 59.95 23.25 59.85 22.0 60.05 27.3 59.2 29.65 58.8 31.3 58.4 31.4 58.35 31.55 58.35 31.65 58.3 31.8 58.25 31.9 58.25 32.0 58.2 32.15 58.15 32.25 58.15 32.4 58.1 32.5 58.05 32.65 58.05 32.75 58.0 32.9 57.95 33.0 57.9 33.15 57.9 33.25 57.85 33.35 57.8 33.5 57.8 33.6 57.75 33.7 57.7 33.85 57.7 33.95 57.65 34.1 57.6 34.2 57.55 34.3 57.55 34.45 57.5 34.55 57.45 34.7 57.4 34.8 57.4 34.9 57.35 35.05 57.3 35.15 57.25 35.25 57.2 35.4 57.15 35.5 57.15 35.6 57.1 35.75 57.05 35.85 57.0 36.0 57.0 36.1 56.95 36.2 56.9 36.35 56.85 36.45 56.8 36.6 56.75 36.7 56.75 36.8 56.7 36.95 56.65 37.05 56.6 37.15 56.55 37.3 56.5 37.4 56.5 37.5 56.45 37.6 56.4 37.75 56.35 37.85 56.3 37.95 56.3 38.1 56.25 38.2 56.2 38.35 56.15 38.45 56.1 38.6 56.05 38.7 56.0 38.85 55.95 38.95 55.9 39.05 55.85 39.2 55.8 39.3 55.75 39.4 55.7 39.5 55.7 39.65 55.65 39.75 55.6 39.85 55.55 40.0 55.5 40.1 55.45 40.2 55.4 40.35 55.35 40.45 55.3 40.55 55.25 40.7 55.2 40.8 55.15 40.9 55.1 41.05 55.05 41.15 55.0 41.25 54.95 41.35 54.9 41.5 54.85 41.6 54.85 41.7 54.8 41.85 54.75 41.95 54.65 42.05 54.6 42.2 54.55 42.3 54.5 42.4 54.45 42.55 54.4 42.65 54.35 42.75 54.3 42.9 54.25 43.0 54.2 43.1 54.15 43.2 54.1 43.35 54.05 43.45 54.05 43.55 54.0 43.7 53.95 43.8 53.85 43.9 53.8 44.05 53.75 44.15 53.7 44.25 53.65 44.4 53.6 44.5 53.55 45.5 53.05 46.3 52.7 46.4 52.65 46.45 52.6 46.55 52.6 46.6 52.55 46.7 52.5 46.8 52.45 46.85 52.45 46.95 52.4 47.05 52.35 47.1 52.3 47.2 52.25 47.3 52.2 47.35 52.2 47.45 52.15 47.5 52.1 47.6 52.05 47.7 52.0 47.75 51.95 47.85 51.95 47.9 51.9 48.0 51.85 48.05 51.8 48.15 51.75 48.2 51.75 48.3 51.7 48.35 51.65 48.45 51.6 48.5 51.55 48.6 51.5 48.65 51.45 48.75 51.4 48.8 51.35 48.9 51.3 48.95 51.25 49.05 51.2 49.1 51.15 49.2 51.15 49.25 51.1 49.3 51.05 49.4 51.0 49.45 50.95 49.55 50.9 49.65 50.85 49.7 50.8 49.75 50.75 49.85 50.7 49.95 50.65 50.0 50.6 50.1 50.55 50.15 50.5 50.2 50.45 50.3 50.4 50.35 50.35 50.45 50.3 50.5 50.25 50.6 50.2 50.65 50.15 50.75 50.1 50.8 50.05 50.85 50.0 50.95 49.95 51.0 49.9 51.1 49.85 51.15 49.8 51.25 49.75 51.3 49.7 51.35 49.65 51.45 49.6 51.5 49.55 51.6 49.5 51.65 49.45 51.75 49.4 51.8 49.35 51.9 49.3 51.95 49.25 52.0 49.15 52.1 49.1 52.15 49.05 52.25 49.0 52.3 48.95 52.35 48.9 52.45 48.85 52.5 48.8 52.55 48.75 52.65 48.65 52.7 48.6 52.75 48.55 52.85 48.5 52.9 48.45 52.95 48.4 53.05 48.35 53.1 48.3 53.15 48.2 53.2 48.15 53.3 48.1 53.35 48.05 53.4 48.0 53.5 47.95 53.55 47.85 53.6 47.8 53.7 47.75 53.75 47.7 53.8 47.6 53.9 47.55 53.95 47.5 54.0 47.4 54.1 47.35 54.15 47.3 54.2 47.25 54.25 47.15 54.35 47.1 54.4 47.05 54.9 46.55 55.4 46.05 55.45 45.95 55.55 45.9 55.6 45.8 55.7 45.7 55.75 45.65 55.85 45.55 55.9 45.45 56.0 45.4 56.05 45.3 56.15 45.2 56.2 45.15 56.25 45.05 56.35 44.95 56.4 44.85 56.5 44.8 56.55 44.7 56.6 44.6 56.7 44.55 56.75 44.45 56.8 44.35 56.9 44.3 56.95 44.2 57.0 44.1 57.1 44.05 57.15 43.95 57.2 43.85 57.25 43.75 57.3 43.65 57.4 43.6 57.45 43.5 57.5 43.4 57.55 43.3 57.6 43.2 57.65 43.1 57.75 43.05 57.8 42.95 57.85 42.85 57.9 42.75 57.95 42.7 58.0 42.6 58.05 42.5 58.1 42.4 58.15 42.3 58.2 42.2 58.25 42.15 58.3 42.05 58.35 41.95 58.4 41.85 58.45 41.75 58.5 41.65 58.55 41.55 58.6 41.5 58.65 41.4 58.7 41.3 58.75 41.2 58.8 41.1 58.8 41.0 58.85 40.9 58.9 40.8 58.95 40.75 59.0 40.65 59.0 40.55 59.05 40.45 59.1 40.35 59.15 40.25 59.15 40.15 59.2 40.05 59.25 39.95 59.3 39.85 59.3 39.75 59.35 39.65 59.4 39.55 59.4 39.45 59.45 39.35 59.45 39.25 59.5 39.15 59.5 39.05 59.55 38.95 59.6 38.85 59.6 38.75 59.6 38.65 59.65 38.55 59.65 38.45 59.7 38.35 59.7 38.25 59.75 38.15 59.75 38.05 59.75 37.95 59.8 37.85 59.8 37.75 59.85 37.65 59.85 37.55 59.85 37.45 59.85 37.35 59.9 37.25 59.9 37.15 59.9 37.05 59.95 36.95 59.95 36.85 59.95 36.7 60.0 36.6 60.0 36.5 60.0 36.4 60.0 36.3 60.0 36.2 60.05 36.05 60.05 35.95 60.05 35.85 60.05 35.75 60.05 35.6 60.05 35.5 60.05 35.4 60.05 35.3 60.05 35.2 60.05 35.1 60.05 34.95 60.05 34.85 60.05 34.75 60.05 34.65 60.05 34.55 60.05 34.45 60.05 34.3 60.05 34.2 60.05 34.1 60.05 34.0 60.0 33.85 60.0 33.75 60.0 33.65 59.95 32.75 59.6 29.55 59.3 27.05 59.25 25.45 59.25 24.95 59.25 24.45 59.25 24.4 59.25 24.3 59.25 24.25 59.25 24.2 59.2 24.1 59.2 24.05 59.2 24.0 59.2 23.9 59.2 23.85 59.2 23.8 59.2 23.75 59.2 23.7 59.2 23.6 59.2 23.55 59.2 23.5 59.2 23.45 59.2 23.4 59.2 23.3 59.2 23.25 59.2 23.2 59.2 23.1 59.2 23.05 59.2 23.0 59.2 22.9 59.2 22.85 59.2 22.8 59.2 22.75 59.25 22.7 59.25 22.6 59.25 22.55 59.25 22.5 59.25 22.45 59.25 22.4 59.25 22.3 59.25 22.25 59.25 22.2 59.25 22.1 59.25 22.05 59.25 22.0 59.25 21.9 59.25 21.85 59.25 21.8 59.25 21.7 59.3 21.65 59.3 21.6 59.3 21.55 59.3 21.45 59.3 21.4 59.3 21.35 59.3 21.3 59.3 21.2 59.3 21.15 59.3 21.1 59.3 21.05 59.3 20.95 59.3 20.9 59.3 20.85 59.3 20.75 59.3 20.7 59.35 20.65 59.35 20.6 59.35 20.5 59.35 20.45 59.35 20.4 59.4 19.9 59.45 19.4 59.45 19.35 59.45 19.3 59.5 19.2 59.5 19.15 59.5 19.1 59.5 19.05 59.55 18.95 59.55 18.9 59.55 18.85 59.55 18.75 59.55 18.7 59.55 18.65 59.6 18.6 59.6 18.5 59.6 18.45 59.6 18.4 59.7 17.9 59.8 17.4 59.85 17.25 59.9 17.1 59.95 16.95 60.0 16.8 60.0 16.75 60.0 16.75 60.0 16.7 60.0 16.65 60.05 16.65 60.05 16.6 60.05 16.55 60.1 16.5 60.2 16.25 60.2 16.2 60.25 16.05 60.3 15.9 60.35 15.75 60.4 15.6 60.4 15.55 60.4 15.55 60.45 15.5 60.45 15.45 60.45 15.4 60.45 15.4 60.45 15.35 60.45 15.3 60.45 15.25 60.45 15.25 60.5 15.2 60.5 15.15 60.5 15.1 60.5 15.1 60.5 15.05 60.5 15.0 60.5 14.9 60.5 14.85 60.55 14.75 60.55 14.7 60.55 14.6 60.55 14.5 60.6 14.45 60.6 14.35 60.6 14.25 60.6 14.2 60.6 14.1 60.6 14.0 60.65 13.95 60.65 13.85 60.65 13.8 60.65 13.7 60.65 13.6 60.65 13.55 60.65 13.45 60.7 13.35 60.7 13.3 60.7 13.2 60.7 13.1 60.7 13.05 60.7 12.95 60.75 12.85 60.75 12.8 60.75 12.7 60.75 12.6 60.8 12.5 60.8 12.45 60.8 12.35 60.85 11.7 60.9 11.05 60.95 10.4 61.0 9.75 61.0 9.65 61.0 9.6 61.0 9.5 61.0 9.4 61.05 9.3 61.05 9.25 61.05 9.15 61.05 9.05 61.05 9.0 61.05 8.9 61.05 8.8 61.05 8.75 61.05 8.65 61.05 8.55 61.05 8.5 61.05 8.4 61.1 7.75 61.15 7.1 61.15 7.0 61.15 6.95 61.15 6.85 61.15 6.8 61.15 6.7 61.15 6.6 61.15 6.55 61.15 6.45 61.15 6.35 61.15 6.3 61.15 6.2 61.2 6.1 61.2 6.05 61.2 5.95 61.2 5.9 61.2 5.8 61.2 5.15 61.2 4.45 61.2 3.65 61.2 2.85 61.2 2.75 61.2 2.65 61.2 2.55 61.2 2.45 61.2 2.35 61.2 2.25 61.2 2.15 61.2 2.05 61.2 1.95 61.2 1.85 61.2 1.75 61.15 1.65 61.15 1.55 61.15 1.45 61.15 1.35 61.15 1.25 61.15 1.15 61.15 1.05 61.15 0.95 61.15 0.85 61.15 0.7 61.15 0.6 61.15 0.5 61.15 0.4 61.15 0.3 61.15 0.2 61.15 0.1 61.1 0.0 61.1 -0.1 61.1 -0.2 61.1 -0.3 61.1 -0.4 61.1 -0.5 61.1 -0.6 61.1 -0.7 61.1 -0.8 61.1 -0.9 61.1 -1.0 61.1 -1.1 61.1 -1.2 61.1 -1.3 61.1 -1.4 61.1 -1.5 61.05 -1.6 61.05 -1.7 61.05 -1.8 61.05 -1.9 61.05 -2.0 61.05 -2.1 61.05 -2.2 61.05 -2.3 61.0 -2.4 61.0 -2.5 61.0 -2.6 61.0 -2.7 61.0 -2.8 61.0 -2.9 60.95 -3.0 60.95 -3.1 60.95 -3.2 60.95 -3.3 60.9 -3.4 60.9 -3.5 60.9 -3.6 60.9 -3.7 60.9 -3.8 60.9 -3.9 60.85 -4.0 60.85 -4.1 60.85 -4.2 60.85 -4.3 60.85 -4.4 60.85 -4.5 60.8 -4.6 60.8 -4.7 60.8 -4.8 60.8 -4.9 60.75 -5.0 60.75 -5.1 60.75 -5.2 60.65 -6.0 60.55 -6.8 60.45 -7.6 60.35 -8.4 60.35 -8.55 60.3 -8.75 60.25 -8.9 60.25 -9.05 60.2 -9.25 60.2 -9.4 60.15 -9.55 60.15 -9.75 60.1 -9.9 60.1 -10.05 60.05 -10.25 60.0 -10.4 60.0 -10.55 59.95 -10.7 59.95 -10.9 59.9 -11.05 59.85 -11.2 59.85 -11.4 59.8 -11.55 59.75 -11.7 59.75 -11.9 59.7 -12.05 59.65 -12.2 59.65 -12.4 59.6 -12.55 59.55 -12.7 59.55 -12.9 59.5 -13.05 59.45 -13.2 59.4 -13.35 59.4 -13.55 59.35 -13.7 59.3 -13.85 59.25 -14.0 59.25 -14.2 59.2 -14.35 59.15 -14.5 59.1 -14.65 59.1 -14.85 59.05 -15.0 59.0 -15.15 58.95 -15.3 58.9 -15.45 58.85 -15.6 58.85 -15.8 58.8 -15.95 58.75 -16.1 58.7 -16.25 58.65 -16.4 58.6 -16.6 58.55 -16.75 58.5 -16.9 58.5 -17.05 58.45 -17.25 58.4 -17.4 58.35 -17.55 58.3 -17.7 58.25 -17.85 58.2 -18.05 58.15 -18.2 58.1 -18.35 58.05 -18.5 58.0 -18.7 57.95 -18.85 57.9 -19.0 57.85 -19.15 57.8 -19.3 57.75 -19.45 57.7 -19.65 57.65 -19.8 57.6 -19.95 57.55 -20.1 57.5 -20.25 57.45 -20.4 57.4 -20.55 57.3 -20.75 57.25 -20.9 57.2 -21.05 57.15 -21.2 57.1 -21.35 57.05 -21.5 57.0 -21.65 56.95 -21.8 56.85 -21.95 56.8 -22.15 56.75 -22.3 56.7 -22.45 56.65 -22.6 56.6 -22.75 56.5 -22.9 56.45 -23.05 56.4 -23.25 56.35 -23.4 56.25 -23.55 56.2 -23.7 56.15 -23.85 56.1 -24.0 56.0 -24.15 55.95 -24.3 55.9 -24.45 55.85 -24.65 55.75 -24.8 55.7 -24.95 55.65 -25.1 55.55 -25.25 55.5 -25.4 55.45 -25.55 55.35 -25.75 55.3 -25.9 55.25 -26.05 55.15 -26.2 55.1 -26.35 54.5 -27.55 53.9 -28.75 53.5 -29.5 53.1 -30.25 52.7 -31.0 52.3 -31.75 51.85 -32.45 51.4 -33.15 51.35 -33.25 51.3 -33.35 51.25 -33.45 51.15 -33.5 51.1 -33.6 51.05 -33.7 51.0 -33.8 50.95 -33.9 50.9 -33.95 50.8 -34.05 50.75 -34.15 50.7 -34.2 50.65 -34.3 50.55 -34.4 50.5 -34.45 50.45 -34.55 50.4 -34.65 50.35 -34.7 50.25 -34.8 50.2 -34.9 50.15 -35.0 50.1 -35.05 50.0 -35.15 49.95 -35.25 49.9 -35.3 49.8 -35.4 49.75 -35.5 49.7 -35.55 49.65 -35.65 49.55 -35.75 49.5 -35.8 49.45 -35.9 49.4 -36.0 49.3 -36.05 49.25 -36.15 49.2 -36.2 49.15 -36.3 49.05 -36.4 49.0 -36.45 48.95 -36.55 48.85 -36.65 48.8 -36.7 48.75 -36.8 48.65 -36.9 48.6 -36.95 48.55 -37.05 48.45 -37.1 48.4 -37.2 48.35 -37.3 48.25 -37.35 48.2 -37.45 48.1 -37.5 48.05 -37.6 48.0 -37.7 47.9 -37.75 47.85 -37.85 47.75 -37.9 47.7 -38.0 47.6 -38.05 47.55 -38.15 47.45 -38.2 47.4 -38.3 47.3 -38.4 47.25 -38.45 47.2 -38.55 47.1 -38.6 47.05 -38.7 46.95 -38.75 46.9 -38.85 46.85 -38.95 46.75 -39.0 46.7 -39.1 46.6 -39.15 46.55 -39.25 46.45 -39.3 46.4 -39.4 46.3 -39.45 46.25 -39.55 46.15 -39.65 46.1 -39.7 46.05 -39.75 45.95 -39.8 45.9 -39.9 45.85 -39.95 45.8 -40.0 45.7 -40.05 45.65 -40.15 45.6 -40.2 45.5 -40.25 45.45 -40.3 45.4 -40.35 45.3 -40.4 45.25 -40.5 45.2 -40.55 45.1 -40.6 45.05 -40.65 45.0 -40.7 44.9 -40.75 44.85 -40.85 44.8 -40.9 44.75 -40.95 44.65 -41.0 44.6 -41.1 44.55 -41.15 44.45 -41.2 44.4 -41.25 44.35 -41.3 44.25 -41.35 44.2 -41.45 44.15 -41.5 44.05 -41.55 44.0 -41.6 43.95 -41.65 43.85 -41.7 43.8 -41.8 43.7 -41.85 43.65 -41.9 43.6 -41.95 43.5 -42.05 43.45 -42.1 43.4 -42.15 43.3 -42.2 43.25 -42.25 43.2 -42.3 43.1 -42.4 43.05 -42.45 42.95 -42.5 42.9 -42.55 42.85 -42.6 42.75 -42.65 42.7 -42.7 42.65 -42.75 42.6 -42.85 42.5 -42.9 42.45 -42.95 42.4 -43.0 42.3 -43.05 42.25 -43.1 42.15 -43.15 42.1 -43.2 42.0 -43.25 41.95 -43.3 41.9 -43.35 41.8 -43.4 41.75 -43.45 41.65 -43.5 41.6 -43.55 41.5 -43.6 41.45 -43.7 41.4 -43.75 41.3 -43.8 41.25 -43.85 41.2 -43.9 41.1 -43.95 41.05 -44.0 41.0 -44.05 40.9 -44.1 40.85 -44.15 40.75 -44.2 40.7 -44.25 40.65 -44.3 40.55 -44.35 40.5 -44.4 40.4 -44.45 40.35 -44.55 40.3 -44.6 40.2 -44.65 40.15 -44.7 40.05 -44.75 40.0 -44.8 39.9 -44.85 39.85 -44.9 39.75 -44.95 39.7 -45.0 39.65 -45.05 39.55 -45.1 39.45 -45.15 39.4 -45.2 39.35 -45.25 39.25 -45.3 39.2 -45.35 39.1 -45.4 39.05 -45.45 38.95 -45.5 38.9 -45.55 38.8 -45.6 38.75 -45.65 38.7 -45.7 38.6 -45.75 38.55 -45.8 38.45 -45.85 38.4 -45.9 37.8 -46.3 37.2 -46.7 37.15 -46.75 37.05 -46.8 37.0 -46.85 36.9 -46.85 36.85 -46.9 36.75 -46.95 36.7 -47.0 36.6 -47.05 36.55 -47.1 36.5 -47.15 36.4 -47.2 36.35 -47.25 36.3 -47.25 36.25 -47.3 36.15 -47.35 36.1 -47.4 35.5 -47.75 35.0 -48.05 34.4 -48.4 33.9 -48.7 33.3 -49.05 32.75 -49.35 32.7 -49.4 32.6 -49.45 32.55 -49.5 32.45 -49.5 32.4 -49.55 32.35 -49.6 32.25 -49.65 32.2 -49.7 32.1 -49.75 32.05 -49.75 31.95 -49.8 31.9 -49.85 31.8 -49.9 31.75 -49.9 31.65 -49.95 31.6 -50.0 31.55 -50.05 31.45 -50.05 31.4 -50.1 31.3 -50.15 31.25 -50.2 31.2 -50.2 31.1 -50.25 31.05 -50.3 30.95 -50.3 30.9 -50.35 30.8 -50.4 30.75 -50.4 30.65 -50.45 30.6 -50.5 30.55 -50.5 30.45 -50.55 30.4 -50.6 30.3 -50.6 30.25 -50.65 30.15 -50.7 30.1 -50.75 30.05 -50.75 29.95 -50.8 29.9 -50.85 29.8 -50.9 29.75 -50.9 29.65 -50.95 29.6 -51.0 29.5 -51.05 29.45 -51.05 29.35 -51.1 29.3 -51.15 28.7 -51.4 28.1 -51.65 28.05 -51.7 27.95 -51.7 27.9 -51.75 27.8 -51.75 27.75 -51.8 27.7 -51.85 27.6 -51.85 27.55 -51.9 27.45 -51.9 27.4 -51.95 27.3 -51.95 27.25 -52.0 27.15 -52.0 27.1 -52.05 27.0 -52.1 26.95 -52.1 26.9 -52.15 26.8 -52.15 26.75 -52.2 26.65 -52.2 26.6 -52.25 26.55 -52.3 26.45 -52.3 26.4 -52.35 26.35 -52.35 26.25 -52.4 26.2 -52.4 26.15 -52.45 26.05 -52.45 26.0 -52.5 25.9 -52.55 25.85 -52.55 25.75 -52.6 25.7 -52.6 25.65 -52.65 25.55 -52.65 25.5 -52.7 25.4 -52.75 25.35 -52.75 25.25 -52.8 25.2 -52.8 25.1 -52.85 25.05 -52.85 25.0 -52.9 24.9 -52.9 24.85 -52.95 24.75 -53.0 24.7 -53.0 24.65 -53.0 24.55 -53.05 24.5 -53.05 24.4 -53.1 24.35 -53.1 24.25 -53.15 24.2 -53.15 24.1 -53.2 24.05 -53.2 23.95 -53.25 23.9 -53.25 23.85 -53.3 23.75 -53.3 23.7 -53.35 23.6 -53.35 23.55 -53.4 22.95 -53.6 22.35 -53.8 22.3 -53.85 22.2 -53.85 22.15 -53.9 22.05 -53.9 22.0 -53.95 21.95 -53.95 21.85 -54.0 21.8 -54.0 21.7 -54.05 21.65 -54.05 21.55 -54.1 21.5 -54.1 21.4 -54.15 21.35 -54.15 21.25 -54.2 21.2 -54.2 21.15 -54.2 21.05 -54.25 21.0 -54.25 20.9 -54.3 20.85 -54.3 20.8 -54.35 20.7 -54.35 20.65 -54.4 20.55 -54.4 20.5 -54.45 20.4 -54.45 20.35 -54.45 20.25 -54.5 20.2 -54.5 20.1 -54.55 20.05 -54.55 19.95 -54.55 19.9 -54.6 19.8 -54.6 19.75 -54.65 19.65 -54.65 19.6 -54.7 19.5 -54.7 19.45 -54.75 19.35 -54.75 19.3 -54.8 19.2 -54.8 19.15 -54.8 19.05 -54.85 19.0 -54.85 18.9 -54.9 18.85 -54.9 13.55 -56.5 11.0 -57.0 8.05 -57.55 3.5 -57.85 2.6 -57.9 1.7 -57.95 1.6 -57.95 1.45 -57.95 1.35 -57.95 1.25 -57.95 1.1 -58.0 1.0 -58.0 0.9 -58.0 0.75 -58.0 0.65 -58.0 0.55 -58.0 0.4 -58.0 0.3 -58.0 0.2 -58.0 0.1 -58.0 -0.05 -58.0 -0.15 -58.0 -1.05 -58.0 -1.95 -58.0 -2.85 -58.0 -3.75 -58.0 -4.65 -57.95 -5.55 -57.9 -5.65 -57.9 -5.75 -57.9 -5.9 -57.9 -6.0 -57.85 -6.1 -57.85 -6.2 -57.85 -6.35 -57.85 -6.45 -57.85 -6.55 -57.85 -6.65 -57.8 -6.8 -57.8 -6.9 -57.8 -7.0 -57.8 -7.15 -57.75 -7.25 -57.75 -7.35 -57.75 -7.45 -57.75 -7.55 -57.75 -7.7 -57.75 -7.8 -57.7 -7.9 -57.7 -8.0 -57.7 -8.15 -57.7 -8.25 -57.7 -8.35 -57.7 -8.5 -57.65 -8.6 -57.65 -8.7 -57.65 -8.8 -57.65 -8.95 -57.6 -9.05 -57.6 -9.15 -57.6 -9.25 -57.6 -9.35 -57.55 -9.5 -57.55 -9.6 -57.55 -9.7 -57.55 -9.8 -57.5 -9.95 -57.5 -10.05 -57.5 -10.15 -57.45 -10.25 -57.45 -10.4 -57.45 -10.5 -57.4 -10.6 -57.4 -10.75 -57.4 -10.85 -57.35 -10.95 -57.35 -11.1 -57.35 -11.3 -57.3 -11.45 -57.25 -11.6 -57.25 -11.8 -57.2 -11.95 -57.2 -12.1 -57.15 -12.3 -57.15 -12.45 -57.1 -12.6 -57.1 -12.8 -57.05 -12.95 -57.0 -13.1 -57.0 -13.25 -56.95 -13.45 -56.95 -13.6 -56.9 -13.75 -56.85 -13.95 -56.85 -14.1 -56.8 -14.25 -56.75 -14.45 -56.75 -14.6 -56.7 -14.75 -56.65 -14.95 -56.6 -15.1 -56.6 -15.25 -56.55 -15.45 -56.5 -15.6 -56.45 -15.75 -56.45 -15.9 -56.4 -16.1 -56.35 -16.25 -56.3 -16.4 -56.25 -16.6 -56.2 -16.75 -56.2 -16.9 -56.15 -17.05 -56.1 -17.25 -56.05 -17.4 -56.05 -17.55 -56.0 -17.7 -55.95 -17.85 -55.9 -18.05 -55.85 -18.2 -55.8 -18.35 -55.8 -18.5 -55.75 -18.7 -55.7 -18.85 -55.65 -20.1 -55.25 -21.35 -54.85 -21.5 -54.8 -21.65 -54.75 -21.85 -54.7 -22.0 -54.6 -22.15 -54.55 -22.3 -54.5 -22.5 -54.45 -22.65 -54.4 -22.8 -54.35 -22.95 -54.25 -23.1 -54.2 -23.25 -54.15 -23.45 -54.1 -23.6 -54.0 -23.75 -53.95 -23.9 -53.9 -24.05 -53.85 -24.2 -53.75 -24.35 -53.7 -24.5 -53.65 -24.65 -53.6 -24.8 -53.5 -24.95 -53.45 -25.1 -53.4 -25.25 -53.3 -25.4 -53.25 -25.55 -53.2 -25.75 -53.1 -25.9 -53.05 -26.05 -53.0 -26.2 -52.9 -26.35 -52.85 -26.5 -52.8 -26.65 -52.7 -26.8 -52.65 -26.95 -52.55 -27.1 -52.5 -27.25 -52.45 -27.4 -52.35 -27.55 -52.3 -27.7 -52.2 -27.85 -52.15 -28.0 -52.05 -28.15 -52.0 -28.3 -51.9 -28.45 -51.85 -28.6 -51.75 -28.75 -51.7 -28.9 -51.65 -29.05 -51.55 -29.2 -51.45 -29.35 -51.4 -29.5 -51.3 -29.65 -51.25 -29.8 -51.15 -29.95 -51.1 -30.1 -51.0 -30.25 -50.95 -30.4 -50.85 -30.55 -50.75 -30.7 -50.7 -30.85 -50.6 -31.0 -50.55 -31.15 -50.45 -32.1 -49.9 -33.05 -49.35 -33.15 -49.3 -33.3 -49.2 -33.4 -49.15 -33.5 -49.05 -33.65 -49.0 -33.75 -48.95 -33.85 -48.85 -34.0 -48.8 -34.1 -48.7 -34.2 -48.65 -34.35 -48.55 -34.45 -48.5 -34.55 -48.4 -34.65 -48.35 -34.8 -48.25 -34.9 -48.2 -35.8 -47.6 -36.7 -47.0 -36.8 -46.9 -36.9 -46.85 -37.05 -46.75 -37.15 -46.7 -37.25 -46.6 -37.35 -46.5 -37.5 -46.45 -37.6 -46.35 -37.7 -46.25 -37.8 -46.2 -37.9 -46.1 -38.0 -46.0 -38.15 -45.95 -38.25 -45.85 -38.35 -45.8 -38.45 -45.7 -38.55 -45.6 -38.65 -45.55 -38.8 -45.45 -38.9 -45.4 -39.0 -45.3 -39.1 -45.2 -39.25 -45.15 -39.35 -45.05 -39.45 -44.95 -39.55 -44.9 -39.65 -44.8 -39.75 -44.7 -39.9 -44.65 -40.0 -44.55 -40.1 -44.5 -40.2 -44.4 -40.3 -44.3 -40.4 -44.2 -40.5 -44.15 -40.6 -44.05 -40.75 -43.95 -40.85 -43.85 -40.95 -43.8 -41.05 -43.7 -41.15 -43.6 -41.25 -43.55 -41.35 -43.45 -41.45 -43.35 -41.55 -43.25 -41.65 -43.2 -41.75 -43.1 -41.85 -43.0 -41.95 -42.9 -42.05 -42.8 -42.15 -42.75 -42.25 -42.65 -42.4 -42.55 -42.5 -42.45 -42.6 -42.4 -42.7 -42.3 -42.8 -42.2 -42.9 -42.1 -43.0 -42.0 -43.1 -41.9 -43.2 -41.85 -43.3 -41.75 -43.4 -41.65 -43.5 -41.55 -43.6 -41.45 -43.7 -41.35 -43.8 -41.25 -43.9 -41.15 -44.0 -41.1 -44.1 -41.0 -44.2 -40.9 -44.3 -40.8 -44.4 -40.7 -44.5 -40.6 -44.6 -40.5 -44.65 -40.4 -44.75 -40.35 -44.85 -40.25 -44.95 -40.15 -45.05 -40.05 -45.15 -39.95 -45.25 -39.85 -45.35 -39.75 -45.45 -39.6 -45.55 -39.5 -45.65 -39.4 -45.8 -39.3 -45.9 -39.2 -46.0 -39.1 -46.05 -39.0 -46.15 -38.9 -46.25 -38.8 -46.35 -38.65 -46.45 -38.55 -46.55 -38.45 -46.65 -38.35 -46.75 -38.25 -46.85 -38.1 -46.95 -38.0 -47.05 -37.9 -47.15 -37.8 -47.25 -37.65 -47.35 -37.55 -47.4 -37.45 -47.5 -37.35 -47.6 -37.2 -47.7 -37.1 -47.8 -37.0 -47.9 -36.9 -47.95 -36.75 -48.05 -36.65 -48.15 -36.55 -48.25 -36.45 -48.35 -36.3 -48.45 -36.2 -48.5 -36.1 -48.6 -36.0 -48.7 -35.85 -48.8 -35.75 -48.9 -35.65 -48.95 -35.5 -49.05 -35.4 -49.15 -35.3 -49.2 -35.15 -49.3 -35.05 -49.4 -34.95 -49.45 -34.8 -49.55 -34.7 -49.65 -34.6 -49.7 -34.45 -49.8 -34.35 -49.9 -34.2 -50.0 -34.1 -50.05 -34.0 -50.15 -33.85 -50.25 -33.75 -50.3 -33.6 -50.4 -33.5 -50.45 -33.35 -50.55 -33.25 -50.6 -33.1 -50.7 -33.0 -50.75 -32.9 -50.85 -32.75 -50.9 -32.65 -51.0 -32.5 -51.05 -32.4 -51.15 -32.25 -51.2 -32.15 -51.3 -32.0 -51.35 -31.9 -51.45 -31.8 -51.5 -31.65 -51.6 -31.5 -51.65 -31.4 -51.7 -31.25 -51.8 -31.15 -51.85 -31.0 -51.95 -30.9 -52.0 -30.75 -52.1 -30.6 -52.15 -30.5 -52.2 -30.35 -52.3 -30.25 -52.35 -30.1 -52.45 -30.0 -52.5 -29.85 -52.6 -29.75 -52.65 -29.6 -52.7 -29.5 -52.8 -29.35 -52.85 -29.2 -52.9 -29.1 -52.95 -28.95 -53.05 -28.85 -53.1 -28.7 -53.15 -28.55 -53.2 -28.45 -53.3 -28.3 -53.35 -28.15 -53.4 -28.05 -53.45 -27.9 -53.55 -27.75 -53.6 -27.65 -53.65 -27.5 -53.75 -27.35 -53.8 -27.25 -53.85 -27.1 -53.9 -26.95 -54.0 -26.8 -54.05 -26.7 -54.1 -26.55 -54.15 -26.4 -54.2 -26.3 -54.25 -26.15 -54.3 -26.0 -54.4 -25.9 -54.45 -25.75 -54.5 -25.6 -54.55 -25.5 -54.6 -25.35 -54.65 -25.2 -54.7 -25.1 -54.75 -24.95 -54.8 -24.8 -54.85 -24.65 -54.9 -24.55 -54.95 -24.4 -55.0 -24.25 -55.05 -24.1 -55.1 -23.95 -55.15 -23.8 -55.25 -23.65 -55.3 -23.5 -55.35 -23.35 -55.4 -23.2 -55.45 -23.05 -55.5 -22.9 -55.55 -22.75 -55.6 -22.55 -55.65 -22.4 -55.7 -22.25 -55.75 -22.1 -55.8 -21.95 -55.85 -21.8 -55.9 -21.65 -55.95 -21.5 -56.0 -21.35 -56.05 -21.2 -56.1 -21.05 -56.15 -20.9 -56.2 -20.75 -56.25 -20.6 -56.3 -20.45 -56.35 -20.3 -56.35 -20.1 -56.4 -19.95 -56.45 -19.8 -56.5 -19.65 -56.55 -19.5 -56.6 -19.35 -56.65 -19.2 -56.7 -19.05 -56.7 -18.9 -56.75 -18.75 -56.8 -18.6 -56.85 -18.45 -56.9 -18.3 -56.95 -18.1 -56.95 -17.95 -57.0 -17.8 -57.05 -17.65 -57.1 -17.5 -57.1 -17.3 -57.15 -17.15 -57.2 -17.0 -57.25 -16.85 -57.25 -16.7 -57.3 -16.55 -57.35 -16.4 -57.4 -16.25 -57.4 -16.1 -57.45 -15.95 -57.5 -15.8 -57.5 -15.6 -57.55 -15.45 -57.55 -15.3 -57.6 -15.15 -57.6 -15.0 -57.65 -14.8 -57.7 -14.65 -57.7 -14.5 -57.75 -14.35 -57.75 -14.2 -57.8 -14.05 -57.8 -13.9 -57.85 -13.75 -57.9 -13.6 -57.9 -13.45 -57.95 -13.3 -57.95 -13.1 -58.0 -12.95 -58.0 -12.8 -58.05 -12.65 -58.05 -12.5 -58.1 -12.3 -58.15 -12.15 -58.15 -12.0 -58.3 -10.75 -58.45 -9.45 -58.45 -9.3 -58.5 -9.15 -58.5 -9.0 -58.5 -8.8 -58.55 -8.65 -58.55 -8.5 -58.55 -8.35 -58.6 -8.2 -58.6 -8.05 -58.6 -7.85 -58.65 -7.7 -58.65 -7.55 -58.65 -7.4 -58.65 -7.2 -58.7 -7.05 -58.7 -6.9 -58.7 -6.75 -58.7 -6.6 -58.75 -6.45 -58.75 -6.25 -58.75 -6.1 -58.75 -5.95 -58.8 -5.8 -58.8 -5.65 -58.8 -5.5 -58.8 -5.3 -58.8 -5.15 -58.8 -5.0 -58.85 -4.85 -58.85 -4.65 -58.85 -4.5 -58.85 -4.35 -59.1 0.9 -58.75 3.65 -58.75 3.8 -58.7 3.95 -58.7 4.1 -58.65 4.25 -58.65 4.35 -58.65 4.5 -58.6 4.65 -58.6 4.8 -58.55 4.95 -58.55 5.1 -58.5 5.25 -58.5 5.35 -58.45 5.5 -58.45 5.65 -58.4 5.8 -58.4 5.95 -58.4 6.1 -58.35 6.25 -58.35 6.35 -58.3 6.5 -58.3 6.65 -58.25 6.8 -58.25 6.9 -58.25 7.05 -58.2 7.2 -58.15 7.35 -58.15 7.5 -58.1 7.65 -58.1 7.75 -58.05 7.9 -58.05 8.05 -58.0 8.2 -58.0 8.35 -57.95 8.5 -57.9 8.6 -57.9 8.75 -57.85 8.9 -57.85 9.05 -57.8 9.15 -57.8 9.3 -57.75 9.45 -57.75 9.6 -57.7 9.75 -57.65 9.9 -57.65 10.0 -57.6 10.15 -57.6 10.3 -57.55 10.45 -57.5 10.6 -57.5 10.7 -57.45 10.85 -57.4 11.0 -57.4 11.15 -57.35 11.25 -57.3 11.4 -57.3 11.55 -57.25 11.7 -57.2 11.85 -57.2 11.95 -57.15 12.1 -57.1 12.25 -57.05 12.4 -57.05 12.5 -57.0 12.65 -56.7 13.75 -56.4 14.85 -56.35 15.0 -56.3 15.1 -56.3 15.25 -56.25 15.4 -56.2 15.55 -56.15 15.65 -56.15 15.8 -56.1 15.95 -56.05 16.1 -56.0 16.25 -55.95 16.35 -55.9 16.5 -55.9 16.65 -55.85 16.8 -55.8 16.9 -55.75 17.05 -55.7 17.2 -55.65 17.3 -55.65 17.45 -55.6 17.6 -55.55 17.75 -55.5 17.85 -55.5 18.0 -55.45 18.15 -55.4 18.3 -55.35 18.45 -55.3 18.55 -55.25 18.7 -55.25 18.85 -55.2 19.0 -55.15 19.1 -55.1 19.25 -55.05 19.4 -55.0 19.5 -54.95 19.65 -54.9 19.8 -54.9 19.95 -54.85 20.05 -54.8 20.2 -54.75 20.35 -54.7 20.5 -54.65 20.65 -54.6 20.75 -54.55 20.9 -54.5 21.05 -54.45 21.2 -54.4 21.3 -54.35 21.45 -54.35 21.45 -54.35 21.5 -54.3 21.55 -54.3 21.55 -54.3 21.6 -54.3 21.6 -54.3 21.6 -54.3 21.65 -54.25 21.7 -54.25 21.7 -54.25 21.75 -54.2 21.75 -54.2 21.8 -54.15 21.8 -54.15 21.8 -54.15 21.85 -54.1 21.9 -54.1 21.9 -54.05 21.9 -54.05 21.95 -54.05 21.95 -54.0 21.95 -53.95 22.0 -53.95 22.0 -53.9 22.0 -53.9 22.05 -53.85 22.05 -53.85 22.05 -53.8 22.05 -53.75 22.1 -53.75 22.1 -53.7 22.1 -53.7 22.15 -53.65 22.15 -53.65 22.15 -53.6 22.2 -53.6 22.2 -53.55 22.2 -53.5 22.25 -53.5 22.25 -53.3 22.4 -53.05 22.6 -53.05 22.6 -53.0 22.65 -53.0 22.65 -52.95 22.7 -52.95 22.7 -52.9 22.7 -52.9 22.75 -52.85 22.75 -52.8 22.8 -52.8 22.8 -52.75 22.85 -52.75 22.85 -52.7 22.9 -52.7 22.9 -52.65 22.95 -52.65 22.95 -52.65 22.95 -52.6 23.0 -52.6 23.0 -52.55 23.05 -52.55 23.05 -52.5 23.05 -52.5 23.1 -52.45 23.1 -52.4 23.15 -52.4 23.15 -52.35 23.2 -52.35 23.2 -52.3 23.25 -52.3 23.25 -52.25 23.3 -52.25 23.3 -52.05 23.5 -51.9 23.65 -51.7 23.85 -51.5 24.05 -51.3 24.3 -51.15 24.45 -51.15 24.45 -51.1 24.5 -51.1 24.5 -51.05 24.55 -51.05 24.55 -51.0 24.6 -51.0 24.6 -50.95 24.65 -50.9 24.65 -50.9 24.7 -50.85 24.7 -50.85 24.7 -50.8 24.75 -50.8 24.75 -50.75 24.8 -50.75 24.8 -50.7 24.9 -50.6 24.95 -50.6 25.0 -50.55 25.0 -50.55 25.05 -50.55 25.1 -50.55 25.1 -50.55 25.15 -50.55 25.2 -50.5 25.2 -50.5 25.25 -50.5 25.3 -50.5 25.3 -50.5 25.35 -50.45 25.45 -50.5 25.55 -50.5 25.65 -50.5 25.75 -50.5 25.8 -50.55 25.8 -50.55 25.85 -50.55 25.9 -50.55 25.9 -50.55 25.95 -50.55 26.0 -50.6 26.05 -50.6 26.05 -50.65 26.1 -50.65 26.15 -50.7 26.15 -50.7 26.2 -50.75 26.25 -50.75 26.25 -50.8 26.3 -50.85 26.4 -50.95 26.45 -51.05 26.5 -51.15 26.55 -51.15 26.55 -51.2 26.55 -51.25 26.6 -51.3 26.6 -51.35 26.6 -51.35 26.6 -51.4 26.6 -51.45 26.6 -51.45 26.65 -51.5 26.65 -51.55 26.65 -51.55 26.65 -51.6 26.65 -51.65 26.65 -51.65 26.6 -51.7 26.6 -51.8 26.6 -51.9 26.6 -52.0 26.55 -52.1 26.5 -52.2 26.45 -52.3 26.4 -52.4 26.3 -52.5 26.2 -52.55 26.15 -52.65 26.05 -54.9 24.0 -55.35 23.7 -55.5 23.6 -55.65 23.5 -55.7 23.5 -55.75 23.45 -55.75 23.45 -55.8 23.45 -55.85 23.4 -55.9 23.4 -55.9 23.4 -55.95 23.35 -56.0 23.35 -56.05 23.35 -56.05 23.3 -56.1 23.3 -56.15 23.3 -56.2 23.3 -56.2 23.3 -56.25 23.3 -56.3 23.3 -56.35 23.3 -56.35 23.25 -56.4 23.25 -56.45 23.25 -56.5 23.25 -56.5 23.25 -56.55 23.25 -56.7 23.25 -56.85 23.25 -56.9 23.25 -56.9 23.25 -56.95 23.25 -57.0 23.25 -57.05 23.25 -57.05 23.3 -57.1 23.3 -57.15 23.3 -57.2 23.3 -57.2 23.3 -57.25 23.35 -57.3 23.35 -57.3 23.35 -57.35 23.35 -57.4 23.35 -57.45 23.35 -57.5 23.35 -57.5 23.35 -57.55 23.4 -57.6 23.4 -57.6 23.4 -57.65 23.45 -57.7 23.45 -57.75 23.45 -57.85 23.5 -57.95 23.55 -58.15 23.6 -58.2 23.6 -58.25 23.6 -58.3 23.65 -58.35 23.65 -58.35 23.65 -58.4 23.7 -58.4 23.7 -58.45 23.7 -58.5 23.75 -58.55 23.75 -58.6 23.75 -58.6 23.8 -58.65 23.8 -58.75 23.85 -58.85 23.9 -58.9 23.95 -58.9 23.95 -58.95 24.0 -59.0 24.0 -59.0 24.05 -59.05 24.05 -59.1 24.05 -59.1 24.1 -59.15 24.1 -59.2 24.15 -59.2 24.15 -59.25 24.2 -59.3 24.25 -59.3 24.25 -59.35 24.3 -59.35 24.35 -59.4 24.35 -59.4 24.4 -59.4 24.45 -59.45 24.45 -59.45 24.5 -59.5 24.5 -59.5 24.55 -59.55 24.6 -59.55 24.6 -59.6 24.65 -59.6 24.65 -59.65 24.7 -59.75 24.85 -59.85 25.0 -59.85 25.0 -59.9 25.05 -59.9 25.05 -59.95 25.1 -59.95 25.1 -59.95 25.15 -60.0 25.2 -60.0 25.2 -60.05 25.25 -60.05 25.3 -60.15 25.45 -60.25 25.6 -60.25 25.65 -60.3 25.7 -60.3 25.7 -60.3 25.75 -60.35 25.8 -60.35 25.85 -60.35 25.85 -60.4 25.9 -60.4 25.95 -60.45 26.0 -60.45 26.0 -60.45 26.05 -60.5 26.1 -60.5 26.1 -60.5 26.15 -60.55 26.2 -60.55 26.2 -60.55 26.25 -60.6 26.3 -60.6 26.35 -60.6 26.35 -60.65 26.4 -60.65 26.45 -60.65 26.5 -60.7 26.55 -60.7 26.6 -60.7 26.65 -60.7 26.7 -60.75 26.7 -60.75 26.75 -60.75 26.8 -60.8 26.85 -60.8 26.9 -60.8 26.95 -60.8 27.0 -60.85 27.05 -60.85 27.1 -60.85 27.15 -60.9 27.2 -60.9 27.25 -60.9 27.3 -60.95 27.35 -60.95 27.4 -60.95 27.45 -61.0 27.5 -61.0 27.6 -61.0 27.65 -61.0 27.7 -61.05 27.75 -61.05 27.8 -61.1 28.2 -61.15 28.6 -61.15 28.65 -61.15 28.7 -61.15 28.75 -61.15 28.8 -61.2 28.85 -61.2 28.9 -61.2 28.95 -61.2 29.0 -61.2 29.05 -61.2 29.1 -61.2 29.15 -61.2 29.25 -61.2 29.3 -61.2 29.35 -61.2 29.4 -61.2 29.45 -61.2 29.5 -61.2 29.55 -61.2 29.6 -61.2 29.65 -61.2 29.7 -61.2 29.75 -61.2 29.8 -61.2 29.85 -61.2 29.9 -61.2 29.95 -61.2 30.0 -61.15 30.05 -61.15 30.1 -61.15 30.15 -61.15 30.2 -61.15 30.25 -61.15 30.3 -61.15 30.35 -61.15 30.4 -61.1 30.45 -61.1 30.5 -61.1 30.55 -61.1 30.6 -61.1 30.65 -61.1 30.7 -61.05 30.75 -61.05 30.8 -61.05 30.85 -61.05 30.9 -61.0 30.95 -61.0 31.0 -61.0 31.05 -60.9 31.45 -60.8 31.85 -60.8 31.9 -60.75 31.95 -60.75 32.0 -60.75 32.05 -60.7 32.05 -60.7 32.1 -60.65 32.15 -60.65 32.2 -60.65 32.25 -60.6 32.3 -60.6 32.35 -60.55 32.4 -60.55 32.45 -60.55 32.5 -60.5 32.55 -60.5 32.6 -60.5 32.65 -60.45 32.7 -60.45 32.75 -60.4 32.8 -60.4 32.85 -60.4 32.9 -60.35 32.95 -60.35 33.0 -60.3 33.05 -60.3 33.1 -60.25 33.15 -60.25 33.2 -60.2 33.25 -60.2 33.3 -60.2 33.35 -60.15 33.4 -60.1 33.45 -60.1 33.55 -60.05 33.6 -60.0 33.7 -60.0 33.75 -59.95 33.8 -59.9 33.9 -59.85 33.95 -59.85 34.0 -59.8 34.1 -59.75 34.15 -59.7 34.2 -59.7 34.3 -59.65 34.35 -59.6 34.45 -59.55 34.5 -59.5 34.55 -59.45 34.65 -59.45 34.7 -59.4 34.75 -59.35 34.8 -59.35 34.9 -59.3 34.95 -59.25 35.0 -59.2 35.1 -59.2 35.15 -59.15 35.2 -59.1 35.3 -59.05 35.35 -59.05 35.4 -59.0 35.5 -58.95 35.55 -58.6 36.05 -58.25 36.55 -58.2 36.6 -58.15 36.65 -58.1 36.75 -58.05 36.8 -58.05 36.85 -58.0 36.9 -57.95 37.0 -57.9 37.05 -57.85 37.1 -57.8 37.15 -57.75 37.2 -57.7 37.25 -57.65 37.35 -57.6 37.4 -57.55 37.45 -57.5 37.5 -57.45 37.55 -57.4 37.6 -57.35 37.7 -57.3 37.75 -57.3 37.8 -57.25 37.85 -57.2 37.95 -57.15 38.0 -57.1 38.05 -57.05 38.1 -57.0 38.15 -56.95 38.2 -56.9 38.3 -56.85 38.35 -56.8 38.4 -56.75 38.45 -56.7 38.5 -56.65 38.55 -56.6 38.6 -56.55 38.7 -56.5 38.75 -56.45 38.8 -56.4 38.85 -56.35 38.9 -56.3 38.95 -56.25 39.0 -56.2 39.05 -56.1 39.15 -56.05 39.2 -56.0 39.25 -55.95 39.3 -55.9 39.35 -55.85 39.4 -55.8 39.45 -55.75 39.5 -55.65 39.55 -55.6 39.6 -55.55 39.65 -55.5 39.7 -55.45 39.75 -55.4 39.8 -55.35 39.85 -55.3 39.9 -55.2 40.0 -55.15 40.05 -55.1 40.1 -55.05 40.15 -55.0 40.2 -54.55 40.6 -54.1 41.0 -53.8 41.25 -53.55 41.45 -53.5 41.5 -53.45 41.5 -53.45 41.55 -53.4 41.55 -53.35 41.6 -53.35 41.65 -53.3 41.65 -53.25 41.7 -53.2 41.7 -53.2 41.75 -53.15 41.75 -53.1 41.8 -53.05 41.8 -53.05 41.85 -53.0 41.9 -52.95 41.9 -52.9 41.9 -52.85 41.95 -52.85 41.95 -52.8 42.0 -52.75 42.0 -52.7 42.05 -52.7 42.05 -52.65 42.1 -52.6 42.1 -52.55 42.15 -52.5 42.15 -52.45 42.15 -52.45 42.2 -52.4 42.2 -52.35 42.25 -52.3 42.25 -52.25 42.25 -52.2 42.3 -52.2 42.3 -52.15 42.35 -52.1 42.35 -52.1 42.4 -52.05 42.4 -52.0 42.45 -51.95 42.45 -51.95 42.5 -51.9 42.5 -51.85 42.5 -51.8 42.55 -51.8 42.55 -51.75 42.6 -51.7 42.6 -51.65 42.6 -51.6 42.65 -51.55 42.65 -51.55 42.65 -51.5 42.7 -51.45 42.7 -51.4 42.7 -51.35 42.75 -51.3 42.75 -51.3 42.75 -51.25 42.8 -51.2 42.8 -51.15 42.8 -51.15 42.8 -51.1 42.85 -51.05 42.85 -51.0 42.85 -50.95 42.9 -50.9 42.9 -50.9 42.9 -50.85 42.95 -50.8 42.95 -50.75 42.95 -50.7 43.0 -50.65 43.0 -50.6 43.0 -50.55 43.0 -50.5 43.0 -50.5 43.05 -50.45 43.05 -50.4 43.05 -50.35 43.05 -50.3 43.05 -50.25 43.05 -50.2 43.1 -50.2 43.1 -50.15 43.1 -50.1 43.1 -50.05 43.15 -50.0 43.15 -49.95 43.15 -49.9 43.15 -49.85 43.15 -49.8 43.15 -49.8 43.2 -49.75 43.2 -49.7 43.2 -49.65 43.2 -49.3 43.25 -48.9 43.3 -48.7 43.3 -48.45 43.3 -48.45 43.3 -48.4 43.3 -48.15 43.3 -47.9 43.3 -47.65 43.3 -47.4 43.3 -47.35 43.3 -47.3 43.3 -47.25 43.25 -47.2 43.25 -47.15 43.25 -47.1 43.25 -47.05 43.25 -47.05 43.2 -47.0 43.2 -46.95 43.2 -46.9 43.2 -46.85 43.2 -46.8 43.15 -46.75 43.15 -46.7 43.15 -46.65 43.1 -46.6 43.1 -46.6 43.1 -46.55 43.05 -46.5 43.05 -46.45 43.05 -46.4 43.0 -46.4 43.0 -46.35 42.95 -46.3 42.95 -46.25 42.9 -46.2 42.9 -46.2 42.85 -46.15 42.85 -46.1 42.8 -46.05 42.75 -46.0 42.75 -46.0 42.7 -45.95 42.65 -45.9 42.65 -45.9 42.6 -45.85 42.55 -45.8 42.55 -45.8 42.5 -45.75 42.45 -45.75 42.45 -45.7 42.4 -45.7 42.35 -45.65 42.35 -45.65 42.3 -45.6 42.3 -45.6 42.25 -45.6 42.25 -45.55 42.2 -45.55 42.2 -45.5 42.15 -45.5 42.1 -45.5 42.1 -45.5 42.05 -45.45 42.05 -45.45 42.0 -45.4 41.95 -45.4 41.95 -45.35 41.9 -45.35 41.85 -45.3 41.8 -45.25 41.75 -45.25 41.75 -45.2 41.7 -45.15 41.7 -45.1 41.7 -45.1 41.7 -45.05 41.65 -45.0 41.65 -44.95 41.65 -44.95 41.65 -44.9 41.6 -44.85 41.6 -44.8 41.6 -44.7 41.6 -44.65 41.6 -44.55 41.6 -44.5 41.6 -44.45 41.6 -44.4 41.6 -44.35 41.65 -44.35 41.65 -44.3 41.65 -44.25 41.65 -44.2 41.7 -44.2 41.7 -44.15 41.7 -44.15 41.75 -44.1 41.75 -44.05 41.75 -44.05 41.75 -44.0 41.75 -43.95 41.8 -43.9 41.85 -43.85 41.85 -43.8 41.9 -43.8 41.9 -43.75 41.95 -43.7 42.0 -43.65 42.05 -43.65 42.1 -43.65 42.15 -43.6 42.2 -43.6 42.2 -43.6 42.25 -43.55 42.3 -43.55 42.35 -43.55 42.35 -43.55 42.45 -43.55 42.55 -43.55 42.65 -43.55 42.7 -43.55 42.7 -43.5 42.75 -43.5 42.8 -43.5 42.8 -43.5 42.8 -43.5 42.85 -43.45 42.9 -43.45 42.9 -43.45 42.9 -43.4 42.95 -43.4 43.0 -43.4 43.0 -43.35 43.05 -43.3 43.1 -43.3 43.15 -43.25 43.15 -43.2 43.2 -43.15 43.25 -43.15 43.25 -43.1 43.25 -43.05 43.3 -43.05 43.3 -42.3 43.9 -41.55 44.5 -40.85 45.05 -40.0 45.6 -39.9 45.65 -39.8 45.75 -39.7 45.8 -39.6 45.85 -39.5 45.95 -39.4 46.0 -39.3 46.05 -39.2 46.15 -39.1 46.2 -39.0 46.25 -38.9 46.35 -38.8 46.4 -38.7 46.45 -38.6 46.5 -38.5 46.6 -38.4 46.65 -38.3 46.7 -38.2 46.8 -38.1 46.85 -38.0 46.9 -37.9 47.0 -37.8 47.05 -37.7 47.1 -37.6 47.2 -37.5 47.25 -37.4 47.3 -37.3 47.4 -37.2 47.45 -37.1 47.5 -37.0 47.55 -36.9 47.65 -36.8 47.7 -36.7 47.75 -36.6 47.8 -36.5 47.9 -36.4 47.95 -36.3 48.0 -36.2 48.05 -36.1 48.15 -36.0 48.2 -35.9 48.25 -35.8 48.3 -35.7 48.35 -35.55 48.4 -35.45 48.5 -35.35 48.55 -35.25 48.6 -35.15 48.65 -35.05 48.7 -34.95 48.75 -34.85 48.85 -34.75 48.9 -34.65 48.95 -34.55 49.0 -34.45 49.1 -34.35 49.15 -34.25 49.2 -34.15 49.25 -34.05 49.3 -33.9 49.35 -33.8 49.45 -33.7 49.5 -33.6 49.55 -33.5 49.6 -32.65 50.05 -31.8 50.5 -31.7 50.55 -31.6 50.6 -31.5 50.65 -31.35 50.7 -31.25 50.75 -31.15 50.8 -31.05 50.85 -30.95 50.9 -30.85 50.95 -30.75 51.0 -30.65 51.05 -30.55 51.15 -30.4 51.2 -30.3 51.25 -30.2 51.3 -30.1 51.35 -25.65 53.45 -23.3 54.2 -23.2 54.25 -23.15 54.25 -23.05 54.3 -23.0 54.3 -22.9 54.35 -22.85 54.35 -22.75 54.4 -22.7 54.4 -22.6 54.45 -22.55 54.45 -22.45 54.5 -22.35 54.5 -22.3 54.55 -22.2 54.55 -22.15 54.6 -22.05 54.6 -21.95 54.65 -21.9 54.65 -21.8 54.7 -21.75 54.7 -21.65 54.75 -21.6 54.75 -21.5 54.8 -21.45 54.8 -21.35 54.85 -21.3 54.85 -21.2 54.9 -21.1 54.9 -21.05 54.95 -20.95 54.95 -20.9 55.0 -20.8 55.0 -20.7 55.0 -20.65 55.05 -20.55 55.05 -20.5 55.1 -20.4 55.1 -20.35 55.15 -20.25 55.15 -20.2 55.2 -20.1 55.2 -20.05 55.25 -19.95 55.25 -19.85 55.25 -19.8 55.3 -19.7 55.3 -19.65 55.35 -19.55 55.35 -19.45 55.35 -19.4 55.4 -19.3 55.4 -19.25 55.45 -19.15 55.45 -19.05 55.5 -19.0 55.5 -18.9 55.55 -18.85 55.55 -18.75 55.6 -18.7 55.6 -18.6 55.65 -18.55 55.65 -18.45 55.7 -18.4 55.7 -18.3 55.75 -18.2 55.75 -18.15 55.8 -18.05 55.8 -18.0 55.85 -17.9 55.85 -17.8 55.85 -17.75 55.9 -17.65 55.9 -17.55 55.95 -17.5 55.95 -17.4 56.0 -17.3 56.0 -17.25 56.05 -17.15 56.05 -17.1 56.1 -17.0 56.1 -16.4 56.25 -15.75 56.4 -15.65 56.4 -15.6 56.45 -15.5 56.45 -15.45 56.5 -15.35 56.5 -15.25 56.55 -15.2 56.55 -15.1 56.6 -15.0 56.6 -14.95 56.65 -14.85 56.65 -14.75 56.65 -14.7 56.7 -14.6 56.7 -14.55 56.75 -14.45 56.75 -13.85 56.9 -13.2 57.05 -12.35 57.25 -11.5 57.45 -10.65 57.65 -9.8 57.85 -9.7 57.85 -9.6 57.9 -9.5 57.9 -9.35 57.95 -9.25 57.95 -9.15 57.95 -9.05 58.0 -8.95 58.0 -8.85 58.05 -8.75 58.05 -8.65 58.1 -8.55 58.1 -8.4 58.15 -8.3 58.15 -8.2 58.2 -8.1 58.2 -7.2 58.35 -6.35 58.5 -5.5 58.65 -4.65 58.8 -3.8 58.95 -2.95 59.1 -2.85 59.1 -2.75 59.15 -2.6 59.15 -2.5 59.15 -2.4 59.15 -2.3 59.2 -2.15 59.2 -2.05 59.2 -1.95 59.25 -1.85 59.25 -1.75 59.25 -1.65 59.3 -1.5 59.3 -1.4 59.3 -1.3 59.35 -1.2 59.35 -0.5 59.45 0.55 59.55 2.7 59.8 12.05 60.25 L12.05 60.25" fill="#56473e" fill-rule="evenodd" stroke="none"/>
    <path d="M-58.7 30.35 Q-58.7 30.3 -58.7 30.25 -58.7 30.25 -58.7 30.2 -58.7 30.15 -58.7 30.1 -58.7 30.05 -58.65 30.05 -58.65 30.0 -58.65 29.95 -58.65 29.9 -58.65 29.85 -58.6 29.8 -58.6 29.75 -58.6 29.7 -58.55 29.7 -58.55 29.65 -58.55 29.6 -58.5 29.4 -58.45 29.2 -58.45 29.15 -58.45 29.15 -58.4 29.1 -58.4 29.05 -58.4 29.05 -58.35 29.0 -58.35 28.95 -58.35 28.95 -58.3 28.9 -58.3 28.85 -58.3 28.8 -58.25 28.8 -58.25 28.75 -58.2 28.7 -58.2 28.7 -58.2 28.65 -58.15 28.6 -58.15 28.6 -58.1 28.55 -58.1 28.5 -58.0 28.35 -57.9 28.2 -57.75 28.0 -57.65 27.85 -57.5 27.7 -57.35 27.55 -57.3 27.5 -57.3 27.5 -57.25 27.5 -57.25 27.45 -57.2 27.45 -57.15 27.4 -57.15 27.4 -57.1 27.35 -57.05 27.3 -57.05 27.3 -57.0 27.3 -57.0 27.25 -56.95 27.25 -56.9 27.25 -56.9 27.2 -56.85 27.2 -56.8 27.2 -56.75 27.15 -56.7 27.15 -56.65 27.15 -56.65 27.1 -56.6 27.1 -56.55 27.1 -56.5 27.1 -56.5 27.1 -56.45 27.1 -56.4 27.1 -56.35 27.05 -56.35 27.05 -56.3 27.05 -56.15 27.05 -56.0 27.05 -55.95 27.05 -55.95 27.1 -55.9 27.1 -55.85 27.1 -55.8 27.1 -55.75 27.1 -55.6 27.15 -55.45 27.2 -55.4 27.2 -55.35 27.25 -55.35 27.25 -55.3 27.25 -55.25 27.3 -55.2 27.3 -55.2 27.3 -55.15 27.35 -55.1 27.35 -55.05 27.4 -55.05 27.4 -55.0 27.45 -54.95 27.5 -54.95 27.5 -54.9 27.55 -54.85 27.55 -54.75 27.65 -54.7 27.7 -54.65 27.75 -54.6 27.8 -54.5 27.85 -54.45 27.95 -54.4 28.0 -54.4 28.0 -54.35 28.05 -54.3 28.05 -54.3 28.1 -54.25 28.15 -54.25 28.15 -54.2 28.2 -54.2 28.25 -54.15 28.3 -54.15 28.3 -54.1 28.35 -54.05 28.4 -54.05 28.45 -54.0 28.5 -53.95 28.5 -53.9 28.55 -53.9 28.6 -53.85 28.65 -53.8 28.7 -53.8 28.75 -53.75 28.8 -53.7 28.85 -53.7 28.9 -53.65 28.9 -53.6 28.95 -53.6 29.0 -53.55 29.05 -53.5 29.1 -53.5 29.15 -53.45 29.2 -53.4 29.2 -53.35 29.25 -53.35 29.3 -53.3 29.35 -53.25 29.4 -53.25 29.45 -53.2 29.5 -53.15 29.55 -53.15 29.6 -53.1 29.6 -53.05 29.65 -53.05 29.7 -53.0 29.75 -52.95 29.8 -52.95 29.85 -52.9 29.9 -52.85 29.95 -52.8 29.95 -52.8 30.0 -52.75 30.05 -52.7 30.1 -52.7 30.15 -52.65 30.2 -52.6 30.25 -52.6 30.3 -52.55 30.35 -52.5 30.4 -52.5 30.45 -52.45 30.5 -52.2 30.85 -51.95 31.2 -51.9 31.25 -51.9 31.3 -51.85 31.35 -51.8 31.4 -51.8 31.45 -51.75 31.5 -51.75 31.55 -51.7 31.6 -51.65 31.65 -51.65 31.7 -51.6 31.75 -51.6 31.75 -51.55 31.8 -51.5 31.85 -51.5 31.9 -51.45 31.95 -51.45 32.0 -51.4 32.05 -51.35 32.1 -51.35 32.15 -51.3 32.2 -51.3 32.25 -51.25 32.3 -51.25 32.35 -51.2 32.4 -51.2 32.45 -51.15 32.5 -51.1 32.5 -51.1 32.55 -51.05 32.6 -51.05 32.65 -51.0 32.7 -51.0 32.75 -50.95 32.8 -50.9 32.85 -50.9 32.9 -50.85 32.95 -50.85 33.0 -50.8 33.05 -50.8 33.1 -50.75 33.15 -50.75 33.2 -50.7 33.25 -50.65 33.3 -50.65 33.35 -50.6 33.4 -50.6 33.45 -50.55 33.5 -50.35 33.85 -50.1 34.25 -49.35 35.65 -49.15 36.0 -49.15 36.0 -49.15 36.05 -49.1 36.1 -49.1 36.1 -49.1 36.15 -49.1 36.2 -49.1 36.2 -49.05 36.25 -49.05 36.3 -49.05 36.3 -49.05 36.35 -49.05 36.4 -49.05 36.45 -49.05 36.45 -49.05 36.45 -49.1 36.5 -49.1 36.55 -49.1 36.55 -49.1 36.55 -49.1 36.6 -49.15 36.65 -49.15 36.65 -49.15 36.65 -49.15 36.7 -49.2 36.75 -49.2 36.75 -49.2 36.8 -49.25 36.85 -49.25 36.85 -49.3 36.9 -49.3 36.95 -49.35 36.95 -49.35 37.0 -49.4 37.05 -49.4 37.05 -49.45 37.1 -49.45 37.15 -49.5 37.15 -49.5 37.2 -49.55 37.25 -49.55 37.25 -49.55 37.3 -49.6 37.35 -49.6 37.35 -49.65 37.4 -49.65 37.45 -49.65 37.5 -49.7 37.5 -49.7 37.55 -49.75 37.6 -49.75 37.6 -49.75 37.65 -49.8 37.7 -49.8 37.7 -49.85 37.75 -49.85 37.8 -49.85 37.85 -49.9 37.9 -49.9 37.9 -49.95 37.95 -49.95 38.0 -49.95 38.0 -50.0 38.05 -50.0 38.1 -50.05 38.1 -50.05 38.15 -50.05 38.2 -50.1 38.25 -50.1 38.25 -50.1 38.3 -50.15 38.35 -50.15 38.4 -50.15 38.45 -50.2 38.45 -50.2 38.5 -50.2 38.55 -50.25 38.6 -50.25 38.65 -50.25 38.65 -50.3 38.7 -50.3 38.75 -50.3 38.8 -50.35 38.85 -50.35 38.9 -50.35 38.95 -50.4 39.0 -50.4 39.0 -50.4 39.05 -50.45 39.1 -50.45 39.15 -50.45 39.2 -50.5 39.2 -50.5 39.25 -50.5 39.3 -50.55 39.5 -50.6 39.7 -50.6 39.7 -50.6 39.75 -50.65 39.8 -50.65 39.8 -50.65 39.85 -50.65 39.9 -50.65 39.9 -50.7 39.95 -50.7 40.0 -50.7 40.0 -50.7 40.0 -50.75 40.0 -50.8 40.05 -50.8 40.05 -50.8 40.1 -50.85 40.1 -50.85 40.1 -50.9 40.1 -50.95 40.15 -50.95 40.15 -51.0 40.15 -51.05 40.15 -51.1 40.15 -51.15 40.15 -51.2 40.15 -51.25 40.15 -51.25 40.15 -51.3 40.1 -51.35 40.1 -51.35 40.1 -51.35 40.1 -51.4 40.1 -51.45 40.05 -51.45 40.05 -51.45 40.0 -51.5 40.0 -51.5 40.0 -51.5 39.95 -51.55 39.9 -51.55 39.9 -51.55 39.9 -51.55 39.9 -51.55 39.85 -51.55 39.85 -51.55 39.85 -51.55 39.8 -51.6 39.75 -51.6 39.75 -51.6 39.7 -51.6 39.65 -51.6 39.65 -51.6 39.6 -51.6 39.55 -51.6 39.5 -51.6 39.5 -51.6 39.5 -51.6 39.45 -51.6 39.45 -51.6 39.45 -51.6 39.45 -51.65 39.4 -51.65 39.4 -51.65 39.4 -51.65 39.4 -51.65 39.35 -51.7 39.35 -51.7 39.35 -51.7 39.35 -51.75 39.3 -51.75 39.3 -51.75 39.3 -51.8 39.3 -51.85 39.3 -51.85 39.25 -51.9 39.25 -51.95 39.25 -52.0 39.25 -52.0 39.2 -52.05 39.2 -52.1 39.2 -52.1 39.15 -52.15 39.15 -52.2 39.15 -52.2 39.1 -52.25 39.1 -52.3 39.1 -52.3 39.05 -52.35 39.05 -52.6 38.9 -52.85 38.75 -52.85 38.75 -52.9 38.7 -52.95 38.7 -52.95 38.65 -53.0 38.65 -53.0 38.6 -53.05 38.6 -53.05 38.55 -53.1 38.55 -53.1 38.5 -53.15 38.5 -53.2 38.5 -53.2 38.45 -53.25 38.45 -53.25 38.4 -53.3 38.4 -53.5 38.2 -53.7 38.0 -53.7 37.95 -53.75 37.95 -53.75 37.9 -53.8 37.9 -53.8 37.85 -53.8 37.8 -53.85 37.8 -53.85 37.75 -53.9 37.75 -53.9 37.7 -53.95 37.7 -53.95 37.65 -54.0 37.65 -54.0 37.6 -54.05 37.55 -54.05 37.55 -54.2 37.3 -54.35 37.05 -54.35 37.0 -54.4 37.0 -54.4 36.95 -54.4 36.9 -54.45 36.9 -54.45 36.85 -54.45 36.85 -54.5 36.8 -54.5 36.75 -54.5 36.75 -54.55 36.7 -54.55 36.7 -54.55 36.65 -54.55 36.6 -54.6 36.6 -54.6 36.55 -54.6 36.5 -54.65 36.5 -54.65 36.45 -54.65 36.4 -54.7 36.4 -54.7 36.35 -54.7 36.3 -54.75 36.3 -54.75 36.25 -54.75 36.2 -54.8 36.2 -54.8 36.15 -54.8 36.1 -54.8 36.05 -54.85 36.05 -54.85 36.0 -54.85 36.0 -54.9 35.95 -54.9 35.9 -54.9 35.9 -54.9 35.85 -54.9 35.8 -54.95 35.75 -54.95 35.75 -54.95 35.7 -54.95 35.65 -54.95 35.6 -54.95 35.55 -54.95 35.55 -54.9 35.5 -54.9 35.45 -54.9 35.45 -54.9 35.45 -54.85 35.4 -54.8 35.4 -54.8 35.4 -54.8 35.4 -54.8 35.35 -54.75 35.3 -54.75 35.3 -54.75 35.3 -54.7 35.3 -54.65 35.25 -54.6 35.25 -54.6 35.25 -54.55 35.2 -54.5 35.2 -54.5 35.2 -54.45 35.2 -54.4 35.2 -54.4 35.2 -54.35 35.2 -54.3 35.25 -54.3 35.25 -54.25 35.25 -54.2 35.25 -54.15 35.3 -54.1 35.35 -54.1 35.4 -54.05 35.4 -54.05 35.4 -54.0 35.45 -54.0 35.5 -54.0 35.5 -54.0 35.5 -53.95 35.55 -53.95 35.6 -53.95 35.6 -53.95 35.65 -53.9 35.7 -53.9 35.75 -53.9 35.8 -53.85 35.8 -53.85 35.85 -53.8 35.95 -53.7 36.1 -53.65 36.2 -53.6 36.3 -53.6 36.35 -53.55 36.35 -53.55 36.4 -53.55 36.45 -53.5 36.45 -53.5 36.5 -53.5 36.5 -53.45 36.55 -53.45 36.6 -53.4 36.6 -53.4 36.65 -53.35 36.7 -53.35 36.7 -53.3 36.75 -53.3 36.8 -53.25 36.8 -53.25 36.85 -53.25 36.9 -53.2 36.9 -53.2 36.95 -53.2 36.95 -53.15 37.0 -53.15 37.05 -53.1 37.05 -53.1 37.1 -53.05 37.15 -53.05 37.15 -53.0 37.2 -53.0 37.25 -52.95 37.25 -52.95 37.3 -52.9 37.35 -52.9 37.35 -52.85 37.4 -52.8 37.5 -52.7 37.55 -52.65 37.6 -52.65 37.6 -52.6 37.65 -52.55 37.65 -52.5 37.75 -52.4 37.8 -52.35 37.85 -52.35 37.85 -52.3 37.9 -52.25 37.9 -52.2 37.95 -52.2 37.95 -52.15 38.0 -52.1 38.0 -52.05 38.05 -52.05 38.05 -52.0 38.1 -51.95 38.1 -51.9 38.1 -51.85 38.15 -51.85 38.15 -51.8 38.2 -51.7 38.25 -51.6 38.3 -51.6 38.3 -51.55 38.3 -51.5 38.35 -51.5 38.35 -51.5 38.35 -51.5 38.35 -51.45 38.35 -51.45 38.35 -51.4 38.35 -51.4 38.35 -51.35 38.35 -51.35 38.35 -51.35 38.35 -51.3 38.35 -51.3 38.35 -51.25 38.3 -51.25 38.3 -51.2 38.25 -51.2 38.2 -51.2 38.2 -51.15 38.2 -51.15 38.15 -51.1 38.05 -51.05 37.95 -51.05 37.9 -51.0 37.9 -51.0 37.85 -51.0 37.8 -51.0 37.8 -51.0 37.75 -50.95 37.65 -50.9 37.55 -50.85 37.45 -50.8 37.35 -50.8 37.3 -50.75 37.3 -50.75 37.25 -50.7 37.2 -50.7 37.2 -50.65 37.15 -50.6 37.05 -50.55 36.95 -50.55 36.9 -50.5 36.85 -50.5 36.85 -50.45 36.8 -50.45 36.75 -50.4 36.75 -50.4 36.7 -50.35 36.65 -50.35 36.65 -50.3 36.6 -50.3 36.55 -50.25 36.55 -50.25 36.5 -50.25 36.45 -50.25 36.45 -50.2 36.4 -50.2 36.35 -50.2 36.3 -50.2 36.3 -50.2 36.3 -50.2 36.25 -50.2 36.25 -50.2 36.2 -50.25 36.2 -50.25 36.15 -50.25 36.1 -50.3 36.1 -50.3 36.05 -50.55 35.55 -50.8 35.1 -50.85 35.05 -50.85 35.0 -50.9 34.9 -50.95 34.85 -51.0 34.8 -51.0 34.75 -51.05 34.65 -51.1 34.6 -51.1 34.55 -51.15 34.45 -51.2 34.4 -51.2 34.35 -51.25 34.3 -51.3 34.2 -51.3 34.15 -51.35 34.1 -51.4 34.05 -51.4 34.0 -51.45 33.95 -51.5 33.9 -51.55 33.8 -51.55 33.75 -51.6 33.7 -51.65 33.65 -51.65 33.6 -51.7 33.55 -51.75 33.5 -51.75 33.45 -51.8 33.35 -51.85 33.3 -51.85 33.25 -51.9 33.2 -51.95 33.15 -52.0 33.1 -52.0 33.0 -52.05 32.95 -52.1 32.9 -52.15 32.85 -52.15 32.75 -52.2 32.7 -52.25 32.65 -52.3 32.6 -52.3 32.55 -52.35 32.5 -52.4 32.4 -52.45 32.35 -52.45 32.3 -52.5 32.25 -52.8 31.8 -53.1 31.35 -53.15 31.3 -53.2 31.25 -53.2 31.2 -53.25 31.15 -53.3 31.05 -53.35 31.0 -53.35 30.95 -53.4 30.9 -53.45 30.85 -53.5 30.8 -53.55 30.75 -53.6 30.7 -53.6 30.6 -53.65 30.55 -53.7 30.5 -53.75 30.45 -53.8 30.4 -53.85 30.35 -53.85 30.3 -53.9 30.25 -53.95 30.15 -54.0 30.1 -54.0 30.05 -54.05 30.0 -54.1 29.95 -54.15 29.9 -54.2 29.85 -54.25 29.8 -54.25 29.75 -54.3 29.7 -54.35 29.65 -54.4 29.6 -54.45 29.55 -54.5 29.5 -54.55 29.45 -54.55 29.4 -54.6 29.3 -54.65 29.25 -54.7 29.2 -54.75 29.15 -54.8 29.1 -54.85 29.05 -54.9 29.0 -54.95 28.95 -54.95 28.9 -55.0 28.85 -55.05 28.8 -55.1 28.75 -55.15 28.75 -55.15 28.7 -55.2 28.7 -55.2 28.65 -55.2 28.65 -55.25 28.6 -55.25 28.55 -55.25 28.55 -55.3 28.55 -55.3 28.5 -55.3 28.5 -55.35 28.5 -55.4 28.45 -55.4 28.45 -55.4 28.45 -55.4 28.45 -55.45 28.4 -55.45 28.4 -55.45 28.4 -55.45 28.4 -55.5 28.35 -55.5 28.35 -55.5 28.35 -55.5 28.35 -55.55 28.3 -55.55 28.3 -55.6 28.3 -55.65 28.25 -55.65 28.25 -55.7 28.2 -55.8 28.15 -55.9 28.1 -55.9 28.1 -55.95 28.1 -56.0 28.05 -56.05 28.05 -56.1 28.05 -56.2 28.05 -56.2 28.05 -56.25 28.05 -56.3 28.1 -56.35 28.1 -56.35 28.1 -56.4 28.1 -56.45 28.15 -56.5 28.15 -56.55 28.2 -56.55 28.2 -56.6 28.25 -56.65 28.25 -56.65 28.3 -56.7 28.35 -56.7 28.35 -56.75 28.4 -56.75 28.4 -56.8 28.45 -56.8 28.45 -56.85 28.5 -56.85 28.5 -56.9 28.55 -56.9 28.55 -56.95 28.6 -56.95 28.65 -57.0 28.65 -57.0 28.7 -57.0 28.7 -57.05 28.75 -57.05 28.75 -57.1 28.8 -57.1 28.8 -57.1 28.85 -57.15 28.85 -57.15 28.9 -57.15 28.95 -57.2 28.95 -57.2 29.0 -57.2 29.0 -57.25 29.05 -57.25 29.1 -57.25 29.1 -57.3 29.15 -57.3 29.15 -57.3 29.2 -57.3 29.25 -57.35 29.25 -57.35 29.3 -57.35 29.3 -57.4 29.35 -57.4 29.4 -57.4 29.4 -57.45 29.45 -57.45 29.45 -57.45 29.5 -57.5 29.5 -57.5 29.55 -57.5 29.55 -57.5 29.6 -57.5 29.65 -57.55 29.65 -57.55 29.7 -57.55 29.7 -57.55 29.75 -57.55 29.8 -57.55 29.8 -57.6 29.85 -57.6 29.9 -57.6 29.9 -57.6 29.95 -57.6 29.95 -57.65 30.0 -57.65 30.05 -57.65 30.05 -57.65 30.1 -57.65 30.1 -57.65 30.15 -57.65 30.2 -57.65 30.2 -57.65 30.25 -57.65 30.3 -57.65 30.3 -57.65 30.35 -57.65 30.4 -57.65 30.4 -57.65 30.45 -57.65 30.45 -57.65 30.5 -57.65 30.55 -57.65 30.55 -57.65 30.6 -57.65 30.6 -57.65 30.65 -57.65 30.7 -57.65 30.7 -57.65 30.75 -57.65 30.8 -57.65 30.8 -57.65 30.85 -57.6 30.9 -57.6 30.9 -57.6 30.95 -57.6 30.95 -57.6 31.0 -57.6 31.05 -57.55 31.05 -57.55 31.1 -57.55 31.1 -57.55 31.15 -57.5 31.2 -57.5 31.2 -57.5 31.25 -57.5 31.3 -57.45 31.3 -57.45 31.35 -57.4 31.4 -57.4 31.4 -57.4 31.45 -57.35 31.45 -57.35 31.5 -57.3 31.55 -57.3 31.55 -57.25 31.6 -57.25 31.6 -57.2 31.65 -57.2 31.7 -57.2 31.7 -57.15 31.75 -57.15 31.8 -57.1 31.8 -57.05 31.85 -57.05 31.9 -57.0 31.9 -57.0 31.95 -56.95 31.95 -56.95 32.0 -56.9 32.05 -56.85 32.05 -56.85 32.1 -56.8 32.1 -56.75 32.15 -56.7 32.2 -56.7 32.2 -56.65 32.25 -56.6 32.3 -56.55 32.35 -56.5 32.4 -56.45 32.45 -56.4 32.5 -56.35 32.55 -56.35 32.55 -56.35 32.6 -56.3 32.65 -56.3 32.65 -56.3 32.7 -56.3 32.75 -56.3 32.8 -56.3 32.85 -56.3 32.85 -56.3 32.9 -56.35 32.95 -56.35 32.95 -56.35 33.0 -56.35 33.05 -56.4 33.1 -56.4 33.1 -56.45 33.15 -56.5 33.2 -56.5 33.2 -56.55 33.25 -56.6 33.25 -56.6 33.25 -56.7 33.25 -56.75 33.25 -56.8 33.3 -56.85 33.25 -56.9 33.25 -56.95 33.25 -56.95 33.25 -57.0 33.2 -57.05 33.2 -57.05 33.2 -57.1 33.15 -57.15 33.1 -57.15 33.1 -57.2 33.1 -57.25 33.05 -57.3 33.05 -57.35 33.0 -57.35 33.0 -57.4 32.95 -57.4 32.95 -57.45 32.9 -57.5 32.9 -57.5 32.85 -57.55 32.85 -57.55 32.8 -57.6 32.8 -57.6 32.75 -57.65 32.75 -57.65 32.7 -57.7 32.7 -57.7 32.65 -57.75 32.6 -57.75 32.6 -57.8 32.55 -57.8 32.55 -57.85 32.5 -57.85 32.45 -57.9 32.45 -57.9 32.4 -57.95 32.4 -57.95 32.35 -58.0 32.3 -58.0 32.3 -58.05 32.25 -58.05 32.25 -58.1 32.2 -58.2 32.05 -58.3 31.9 -58.3 31.85 -58.3 31.85 -58.35 31.8 -58.35 31.75 -58.35 31.75 -58.4 31.7 -58.4 31.65 -58.4 31.65 -58.45 31.6 -58.45 31.55 -58.45 31.5 -58.45 31.45 -58.5 31.45 -58.5 31.4 -58.5 31.35 -58.55 31.3 -58.55 31.25 -58.55 31.2 -58.6 31.0 -58.65 30.8 -58.65 30.75 -58.65 30.7 -58.65 30.7 -58.65 30.65 -58.65 30.6 -58.65 30.55 -58.65 30.5 -58.7 30.45 -58.7 30.4 -58.7 30.35 L-58.7 30.35" fill="#56473e" fill-rule="evenodd" stroke="none"/>
    <path d="M-44.8 43.8 Q-42.75 42.25 -40.65 40.8 -37.85 38.9 -34.95 37.15 -31.5 35.05 -27.9 33.2 -23.75 31.05 -19.5 29.25 -14.75 27.25 -9.9 25.7 -4.55 24.05 0.9 22.95 6.8 21.7 12.75 21.2 19.15 20.7 25.55 20.95 28.25 21.05 30.9 21.3 33.45 21.55 36.0 21.95 38.4 22.3 40.8 22.75 43.1 23.2 45.4 23.75 47.55 24.3 49.65 24.9 51.65 25.5 53.65 26.15 55.5 26.75 57.35 27.45 59.05 28.1 60.7 28.8 60.65 28.25 60.6 27.7 60.55 27.1 60.55 26.5 60.5 25.9 60.5 25.3 60.45 24.65 60.5 24.0 60.5 23.3 60.5 22.65 60.5 21.95 60.55 21.25 60.6 20.5 60.65 19.8 60.75 19.05 60.85 18.3 60.9 17.8 61.0 17.25 61.05 16.75 61.15 16.25 61.2 15.8 61.3 15.3 61.4 14.85 61.5 14.35 61.55 13.9 61.65 13.45 61.75 13.0 61.9 12.6 62.0 12.15 62.1 11.75 62.2 11.35 62.3 10.95 62.5 9.6 62.7 8.25 62.9 6.3 63.05 4.25 63.2 1.75 63.15 -0.8 63.1 -3.75 62.8 -6.7 62.45 -10.0 61.8 -13.15 61.0 -16.7 59.85 -20.0 58.6 -23.65 56.85 -27.0 54.95 -30.6 52.5 -33.85 50.9 -35.95 49.1 -37.9 47.4 -39.7 45.5 -41.4 43.75 -42.95 41.85 -44.4 40.1 -45.7 38.25 -46.95 36.55 -48.05 34.8 -49.05 33.25 -49.95 31.6 -50.8 30.3 -51.5 28.8 -52.15 28.0 -52.55 26.55 -53.2 24.85 -54.0 23.1 -54.65 21.5 -55.3 19.85 -55.9 18.35 -56.4 16.85 -56.85 15.45 -57.25 14.1 -57.55 12.9 -57.85 11.75 -58.1 10.75 -58.35 9.75 -58.5 9.0 -58.65 8.25 -58.75 7.7 -58.85 7.15 -58.9 6.45 -59.0 5.8 -59.05 4.95 -59.15 4.1 -59.2 3.15 -59.3 2.2 -59.35 1.1 -59.4 0.0 -59.4 -1.2 -59.45 -2.4 -59.4 -3.7 -59.4 -4.95 -59.3 -6.35 -59.25 -7.7 -59.1 -9.2 -58.95 -10.6 -58.7 -12.0 -58.5 -13.1 -58.3 -15.1 -57.9 -17.05 -57.45 -19.6 -56.8 -22.1 -56.0 -25.05 -55.0 -27.85 -53.8 -31.1 -52.4 -34.05 -50.7 -37.35 -48.75 -40.25 -46.5 -43.5 -44.0 -46.2 -41.1 -49.2 -37.9 -51.55 -34.25 -52.6 -32.65 -53.5 -30.95 -54.35 -29.4 -55.1 -27.75 -55.8 -26.2 -56.35 -24.6 -56.9 -23.15 -57.35 -21.65 -57.8 -20.3 -58.15 -18.85 -58.45 -17.6 -58.7 -16.25 -58.95 -15.15 -59.15 -13.9 -59.3 -13.1 -59.5 -11.85 -59.95 -9.05 -60.15 -6.25 -60.3 -3.65 -60.3 -1.0 -60.25 1.45 -60.05 3.95 -59.85 6.2 -59.5 8.5 -59.15 10.55 -58.75 12.65 -58.3 14.45 -57.8 16.3 -57.4 17.9 -56.85 19.5 -56.45 20.8 -55.95 22.1 -56.15 22.15 -56.35 22.15 -56.55 22.2 -56.8 22.25 -57.05 22.3 -57.3 22.4 -57.55 22.45 -57.85 22.55 -58.15 22.65 -58.4 22.8 -58.7 22.95 -59.0 23.1 -59.3 23.3 -59.55 23.5 -59.85 23.7 -60.1 23.95 -60.6 24.45 -61.05 25.0 -61.4 25.55 -61.65 26.2 -61.9 26.75 -62.05 27.4 -62.2 27.95 -62.25 28.6 -62.3 29.15 -62.35 29.7 -62.35 30.2 -62.3 30.7 -62.25 31.1 -62.2 31.55 -62.15 31.75 -62.1 32.1 -61.95 32.95 -61.7 33.75 -61.5 34.45 -61.15 35.15 -60.85 35.8 -60.45 36.45 -60.1 37.0 -59.65 37.5 -59.3 37.95 -58.9 38.4 -58.55 38.75 -58.15 39.1 -57.85 39.35 -57.55 39.6 -57.35 39.8 -57.1 39.95 -56.95 40.15 -56.8 40.3 -56.65 40.5 -56.45 40.7 -56.2 40.95 -56.0 41.15 -55.75 41.4 -55.45 41.65 -55.15 41.9 -54.85 42.15 -54.5 42.4 -54.15 42.6 -53.75 42.85 -53.35 43.05 -52.9 43.25 -52.45 43.45 -51.8 43.7 -51.15 43.9 -50.55 44.05 -49.9 44.15 -49.35 44.25 -48.75 44.25 -48.2 44.3 -47.65 44.25 -47.2 44.25 -46.7 44.2 -46.3 44.15 -45.9 44.05 -45.6 44.0 -45.25 43.9 -45.0 43.85 -44.8 43.8 L-44.8 43.8" fill="#54453c" fill-opacity="0.23137255" fill-rule="evenodd" stroke="none"/>
    <path d="M-44.8 43.8 Q-42.75 42.25 -40.65 40.8 -37.85 38.9 -34.95 37.15 -31.5 35.05 -27.9 33.2 -23.75 31.05 -19.5 29.25 -14.75 27.25 -9.9 25.7 -4.55 24.05 0.9 22.95 6.8 21.7 12.75 21.2 19.15 20.7 25.55 20.95 28.25 21.05 30.9 21.3 33.45 21.55 36.0 21.95 38.4 22.3 40.8 22.75 43.1 23.2 45.4 23.75 47.55 24.3 49.65 24.9 51.65 25.5 53.65 26.15 55.5 26.75 57.35 27.45 59.05 28.1 60.7 28.8 60.65 28.25 60.6 27.7 60.55 27.1 60.55 26.5 60.5 25.9 60.5 25.3 60.45 24.65 60.5 24.0 60.5 23.3 60.5 22.65 60.5 21.95 60.55 21.25 60.6 20.5 60.65 19.8 60.75 19.05 60.85 18.3 60.9 17.8 61.0 17.25 61.05 16.75 61.15 16.25 61.2 15.8 61.3 15.3 61.4 14.85 61.5 14.35 61.55 13.9 61.65 13.45 61.75 13.0 61.9 12.6 62.0 12.15 62.1 11.75 62.2 11.35 62.3 10.95 62.5 9.6 62.7 8.25 62.9 6.3 63.05 4.25 63.2 1.75 63.15 -0.8 63.1 -3.75 62.8 -6.7 62.45 -10.0 61.8 -13.15 61.0 -16.7 59.85 -20.0 58.6 -23.65 56.85 -27.0 54.95 -30.6 52.5 -33.85 50.9 -35.95 49.1 -37.9 47.4 -39.7 45.5 -41.4 43.75 -42.95 41.85 -44.4 40.1 -45.7 38.25 -46.95 36.55 -48.05 34.8 -49.05 33.25 -49.95 31.6 -50.8 30.3 -51.5 28.8 -52.15 28.0 -52.55 26.55 -53.2 24.85 -54.0 23.1 -54.65 21.5 -55.3 19.85 -55.9 18.35 -56.4 16.85 -56.85 15.45 -57.25 14.1 -57.55 12.9 -57.85 11.75 -58.1 10.75 -58.35 9.75 -58.5 9.0 -58.65 8.25 -58.75 7.7 -58.85 7.15 -58.9 6.45 -59.0 5.8 -59.05 4.95 -59.15 4.1 -59.2 3.15 -59.3 2.2 -59.35 1.1 -59.4 0.0 -59.4 -1.2 -59.45 -2.4 -59.4 -3.7 -59.4 -4.95 -59.3 -6.35 -59.25 -7.7 -59.1 -9.2 -58.95 -10.6 -58.7 -12.0 -58.5 -13.1 -58.3 -15.1 -57.9 -17.05 -57.45 -19.6 -56.8 -22.1 -56.0 -25.05 -55.0 -27.85 -53.8 -31.1 -52.4 -34.05 -50.7 -37.35 -48.75 -40.25 -46.5 -43.5 -44.0 -46.2 -41.1 -49.2 -37.9 -51.55 -34.25 -52.6 -32.65 -53.5 -30.95 -54.35 -29.4 -55.1 -27.75 -55.8 -26.2 -56.35 -24.6 -56.9 -23.15 -57.35 -21.65 -57.8 -20.3 -58.15 -18.85 -58.45 -17.6 -58.7 -16.25 -58.95 -15.15 -59.15 -13.9 -59.3 -13.1 -59.5 -11.85 -59.95 -9.05 -60.15 -6.25 -60.3 -3.65 -60.3 -1.0 -60.25 1.45 -60.05 3.95 -59.85 6.2 -59.5 8.5 -59.15 10.55 -58.75 12.65 -58.3 14.45 -57.8 16.3 -57.4 17.9 -56.85 19.5 -56.45 20.8 -55.95 22.1 -56.15 22.15 -56.35 22.15 -56.55 22.2 -56.8 22.25 -57.05 22.3 -57.3 22.4 -57.55 22.45 -57.85 22.55 -58.15 22.65 -58.4 22.8 -58.7 22.95 -59.0 23.1 -59.3 23.3 -59.55 23.5 -59.85 23.7 -60.1 23.95 -60.6 24.45 -61.05 25.0 -61.4 25.55 -61.65 26.2 -61.9 26.75 -62.05 27.4 -62.2 27.95 -62.25 28.6 -62.3 29.15 -62.35 29.7 -62.35 30.2 -62.3 30.7 -62.25 31.1 -62.2 31.55 -62.15 31.75 -62.1 32.1 -61.95 32.95 -61.7 33.75 -61.5 34.45 -61.15 35.15 -60.85 35.8 -60.45 36.45 -60.1 37.0 -59.65 37.5 -59.3 37.95 -58.9 38.4 -58.55 38.75 -58.15 39.1 -57.85 39.35 -57.55 39.6 -57.35 39.8 -57.1 39.95 -56.95 40.15 -56.8 40.3 -56.65 40.5 -56.45 40.7 -56.2 40.95 -56.0 41.15 -55.75 41.4 -55.45 41.65 -55.15 41.9 -54.85 42.15 -54.5 42.4 -54.15 42.6 -53.75 42.85 -53.35 43.05 -52.9 43.25 -52.45 43.45 -51.8 43.7 -51.15 43.9 -50.55 44.05 -49.9 44.15 -49.35 44.25 -48.75 44.25 -48.2 44.3 -47.65 44.25 -47.2 44.25 -46.7 44.2 -46.3 44.15 -45.9 44.05 -45.6 44.0 -45.25 43.9 -45.0 43.85 -44.8 43.8 L-44.8 43.8" fill="#493b34" fill-opacity="0.23137255" fill-rule="evenodd" stroke="none"/>
  </g>
</svg>
