<?xml version="1.0" encoding="UTF-8" standalone="no"?>
<svg xmlns:xlink="http://www.w3.org/1999/xlink" height="117.85px" width="124.7px" xmlns="http://www.w3.org/2000/svg">
  <g transform="matrix(1.0, 0.0, 0.0, 1.0, 62.35, 58.95)">
    <path d="M-44.95 43.45 Q-45.2 43.55 -45.4 43.65 -45.65 43.8 -45.95 43.9 -46.2 44.0 -46.5 44.1 -46.85 44.2 -47.15 44.25 -47.5 44.35 -47.85 44.4 -48.2 44.45 -48.55 44.5 -48.95 44.55 -49.35 44.55 -49.75 44.55 -50.15 44.5 -51.0 44.4 -51.8 44.15 -52.55 43.95 -53.3 43.55 -53.95 43.15 -54.6 42.7 -55.2 42.2 -55.8 41.65 -56.3 41.15 -56.85 40.55 -57.3 40.0 -57.8 39.35 -58.15 38.9 -58.6 38.25 -59.3 37.25 -59.35 37.2 -60.05 36.25 -60.6 35.3 -61.1 34.35 -61.5 33.45 -61.85 32.55 -62.1 31.7 -62.3 30.8 -62.35 29.95 -62.4 29.1 -62.3 28.3 -62.15 27.5 -61.9 26.7 -61.6 25.9 -61.2 25.15 -60.75 24.4 -60.15 23.65 -59.95 23.5 -59.7 23.35 -59.5 23.2 -59.25 23.1 -59.0 22.95 -58.75 22.85 -58.5 22.75 -58.2 22.65 -57.95 22.55 -57.65 22.5 -57.35 22.4 -57.05 22.35 -56.75 22.3 -56.4 22.25 -56.1 22.2 -55.75 22.2 L-55.2 22.8 Q-55.7 21.35 -56.15 19.9 -56.65 18.5 -57.05 17.1 -57.45 15.75 -57.8 14.4 -58.15 13.05 -58.5 11.75 -58.8 10.45 -59.05 9.2 -59.3 7.95 -59.5 6.7 -59.7 5.5 -59.85 4.3 -60.0 3.15 -60.1 2.0 -60.2 -1.45 -60.0 -4.75 -59.85 -8.0 -59.45 -11.1 -59.0 -14.2 -58.35 -17.05 -57.7 -19.95 -56.8 -22.65 -55.9 -25.35 -54.7 -27.8 -53.55 -30.3 -52.15 -32.6 -50.75 -34.9 -49.1 -37.05 -47.45 -39.15 -45.55 -41.05 -42.55 -43.85 -39.45 -46.2 -36.3 -48.55 -33.05 -50.45 -29.75 -52.4 -26.35 -53.85 -22.9 -55.35 -19.35 -56.4 -15.75 -57.45 -12.05 -58.1 -8.35 -58.7 -4.45 -58.9 -0.6 -59.1 3.4 -58.85 7.45 -58.6 11.6 -57.9 12.85 -57.6 14.1 -57.25 15.3 -56.95 16.5 -56.6 17.7 -56.3 18.85 -55.95 20.05 -55.6 21.15 -55.2 22.3 -54.85 23.4 -54.5 24.5 -54.1 25.55 -53.7 26.6 -53.35 27.65 -52.9 28.65 -52.5 29.65 -52.1 L29.7 -52.05 Q32.05 -50.9 34.2 -49.65 36.35 -48.45 38.35 -47.15 40.3 -45.85 42.05 -44.5 43.8 -43.15 45.4 -41.75 46.95 -40.35 48.3 -38.9 49.65 -37.4 50.85 -35.9 52.0 -34.35 52.95 -32.8 53.95 -31.2 54.7 -29.55 55.95 -27.15 57.0 -24.65 58.05 -22.15 58.9 -19.5 59.75 -16.9 60.4 -14.15 61.05 -11.4 61.45 -8.55 61.9 -5.75 62.15 -2.8 62.35 0.2 62.35 3.25 62.4 6.3 62.2 9.5 62.0 12.65 61.6 15.95 61.35 16.55 61.15 17.2 60.9 17.85 60.75 18.55 60.6 19.3 60.5 20.05 60.4 20.85 60.35 21.65 60.3 22.5 60.3 23.4 60.35 24.3 60.4 25.25 60.45 26.2 60.55 27.2 60.7 28.25 60.85 29.3 60.95 29.85 61.0 30.3 61.05 30.85 61.15 31.25 61.2 31.75 61.2 32.2 61.25 32.7 61.25 33.15 61.3 33.65 61.3 34.1 61.25 34.6 61.25 35.1 61.2 35.65 61.15 36.2 61.1 36.75 61.0 37.35 60.95 37.75 60.9 38.0 60.8 38.45 60.75 38.8 60.65 39.3 60.5 39.7 60.4 40.25 60.25 40.75 60.05 41.3 59.85 41.8 59.65 42.4 59.35 42.95 59.1 43.55 58.75 44.1 58.4 44.75 58.0 45.3 57.75 45.65 57.55 45.95 57.3 46.25 57.0 46.6 56.75 46.9 56.45 47.2 56.1 47.5 55.75 47.85 55.4 48.15 54.95 48.5 54.55 48.85 54.05 49.25 53.55 49.6 52.95 50.0 52.35 50.4 51.7 50.85 50.8 51.45 50.4 51.7 49.65 52.15 49.05 52.55 48.35 53.0 47.7 53.4 46.95 53.85 46.2 54.25 45.45 54.65 44.65 55.05 43.85 55.5 43.0 55.9 42.1 56.3 41.2 56.7 40.25 57.1 39.3 57.5 37.4 58.2 35.35 58.8 33.5 59.4 31.5 59.85 29.7 60.25 27.75 60.55 26.05 60.85 24.2 61.05 22.6 61.25 20.9 61.4 19.45 61.5 17.9 61.55 16.6 61.6 15.25 61.65 14.3 61.65 13.0 61.65 11.6 61.65 10.25 61.65 8.5 61.6 6.8 61.5 4.8 61.4 2.75 61.2 0.45 61.0 -1.8 60.7 -4.35 60.3 -6.9 59.85 -9.65 59.35 -12.35 58.65 -15.3 57.95 -18.2 57.05 -21.3 56.15 -24.35 55.0 -25.8 54.45 -27.2 53.9 -28.6 53.35 -29.95 52.75 -31.2 52.2 -32.5 51.6 -33.7 51.05 -34.85 50.45 -36.0 49.9 -37.1 49.3 -38.1 48.8 -39.15 48.2 -40.05 47.7 -41.0 47.15 -41.85 46.65 -42.7 46.15 -43.8 44.8 -44.95 43.45 L-44.95 43.45" fill="#b28f69" fill-rule="evenodd" stroke="none"/>
  </g>
</svg>
