<?xml version="1.0" encoding="UTF-8" standalone="no"?>
<svg xmlns:xlink="http://www.w3.org/1999/xlink" height="138.75px" width="126.9px" xmlns="http://www.w3.org/2000/svg">
  <g transform="matrix(1.0, 0.0, 0.0, 1.0, 63.45, 69.35)">
    <path d="M-9.85 11.7 Q-7.55 9.2 -6.45 8.25 -5.15 7.2 -3.5 5.6 1.2 1.1 -0.65 2.8 -0.6 2.75 3.4 -1.25 3.65 -1.5 3.9 -1.75 4.1 -2.05 4.3 -2.3 4.5 -2.55 4.7 -2.85 4.85 -3.15 5.0 -3.4 5.15 -3.7 5.25 -4.0 5.4 -4.3 5.5 -4.6 5.55 -4.95 5.65 -5.25 5.7 -5.55 5.75 -5.9 5.8 -6.25 5.85 -6.6 5.95 -6.95 6.05 -7.25 6.15 -7.6 6.3 -7.9 6.45 -8.2 6.65 -8.45 6.85 -8.75 7.05 -9.0 7.25 -9.3 7.5 -9.55 7.75 -9.8 8.0 -10.05 8.3 -10.3 8.6 -10.5 9.45 -11.25 9.9 -11.8 10.05 -11.95 10.2 -12.1 10.35 -12.25 10.45 -12.4 10.6 -12.55 10.75 -12.7 10.9 -12.85 11.05 -13.0 11.2 -13.15 11.35 -13.3 11.55 -13.45 11.7 -13.55 11.85 -13.7 12.0 -13.85 12.15 -14.0 12.35 -14.1 12.55 -14.3 12.75 -14.45 12.95 -14.65 13.1 -14.85 13.25 -15.05 13.4 -15.25 13.5 -15.45 13.6 -15.7 13.7 -15.9 13.8 -16.15 13.9 -16.35 14.0 -16.6 14.05 -16.85 14.1 -17.1 14.15 -17.3 14.2 -17.55 14.25 -17.95 14.3 -18.4 14.35 -18.8 14.35 -19.2 14.35 -19.6 14.35 -20.0 14.3 -20.4 14.25 -20.8 14.2 -21.2 14.15 -21.6 14.1 -22.0 14.0 -22.4 13.95 -22.8 13.85 -23.2 13.75 -23.55 13.65 -24.0 13.6 -24.15 13.6 -24.3 13.6 -24.45 13.6 -24.6 13.6 -24.75 13.6 -24.9 13.6 -25.05 13.65 -25.2 13.7 -25.35 13.75 -25.5 13.8 -25.6 13.85 -25.75 13.95 -25.85 14.05 -26.0 14.1 -26.1 14.2 -26.25 14.85 -27.0 16.05 -28.3 17.4 -29.75 17.95 -30.35 18.65 -31.1 19.95 -32.35 21.4 -33.75 21.95 -34.35 22.35 -34.75 22.7 -35.2 23.1 -35.6 23.45 -36.05 23.85 -36.45 24.2 -36.9 24.55 -37.3 24.9 -37.75 25.25 -38.2 25.6 -38.65 25.95 -39.1 26.3 -39.55 26.65 -39.95 26.95 -40.45 27.3 -40.9 27.65 -41.35 27.7 -41.45 27.75 -41.5 27.8 -41.6 27.85 -41.65 27.9 -41.7 27.95 -41.8 28.0 -41.85 28.05 -41.95 28.15 -42.0 28.2 -42.1 28.25 -42.15 28.3 -42.2 28.35 -42.3 28.45 -42.35 28.5 -42.4 28.55 -42.5 28.7 -42.65 28.85 -42.75 28.95 -42.9 29.1 -43.05 29.25 -43.15 29.35 -43.3 29.5 -43.45 29.6 -43.6 29.7 -43.75 29.8 -43.9 29.9 -44.05 30.0 -44.2 30.1 -44.35 30.2 -44.5 30.3 -44.7 30.4 -44.85 30.45 -44.95 30.5 -45.05 30.6 -45.15 30.65 -45.25 30.7 -45.35 30.8 -45.45 30.85 -45.55 30.95 -45.65 31.05 -45.75 31.15 -45.85 31.2 -45.95 31.35 -46.05 31.4 -46.15 31.55 -46.25 31.65 -46.35 31.75 -46.45 30.9 -43.5 30.4 -41.85 29.6 -39.05 29.2 -38.25 29.0 -37.9 28.8 -37.5 28.6 -37.15 28.35 -36.8 28.15 -36.45 27.9 -36.1 27.7 -35.75 27.45 -35.45 27.2 -35.1 26.95 -34.75 26.7 -34.4 26.45 -34.1 26.2 -33.75 25.95 -33.4 25.7 -33.1 25.4 -32.75 25.1 -32.4 24.8 -32.05 24.5 -31.75 24.2 -31.4 23.9 -31.05 23.6 -30.75 23.3 -30.45 22.95 -30.15 22.6 -29.8 22.3 -29.55 21.95 -29.25 21.6 -28.95 21.25 -28.65 20.85 -28.35 20.5 -28.1 20.1 -27.85 19.55 -27.45 17.0 -25.2 16.9 -25.1 16.8 -25.0 16.7 -24.9 16.6 -24.8 16.55 -24.7 16.45 -24.6 16.4 -24.45 16.35 -24.35 16.3 -24.25 16.3 -24.1 16.3 -24.0 16.25 -23.85 16.25 -23.7 16.3 -23.6 16.3 -23.45 16.35 -23.3 16.5 -22.9 16.75 -21.9 16.95 -21.0 17.15 -20.5 17.2 -20.3 17.25 -20.1 17.3 -19.9 17.35 -19.75 17.35 -19.55 17.35 -19.35 17.4 -19.15 17.35 -18.95 17.35 -18.8 17.35 -18.6 17.3 -18.4 17.25 -18.2 17.2 -18.0 17.1 -17.85 17.05 -17.65 16.95 -17.45 16.8 -17.1 16.6 -16.75 16.4 -16.4 16.2 -16.05 16.05 -15.7 15.8 -15.35 15.6 -15.05 15.4 -14.7 15.2 -14.4 14.95 -14.05 14.75 -13.75 14.5 -13.4 14.3 -13.1 14.05 -12.75 13.8 -12.45 13.55 -12.15 13.3 -11.75 12.75 -11.2 12.1 -10.5 11.9 -10.25 11.8 -10.15 11.7 -10.0 11.65 -9.9 11.55 -9.75 11.45 -9.65 11.4 -9.5 11.3 -9.4 11.25 -9.25 11.2 -9.15 11.15 -9.0 11.1 -8.9 11.05 -8.75 11.0 -8.6 10.95 -8.5 10.9 -8.35 10.85 -8.2 10.8 -8.05 10.8 -7.9 10.75 -7.75 10.7 -7.55 10.65 -7.4 10.6 -7.25 10.6 -7.1 10.55 -6.95 10.5 -6.8 10.45 -6.6 10.4 -6.45 10.35 -6.3 10.3 -6.15 10.25 -6.0 10.2 -5.85 10.15 -5.7 10.15 -5.65 10.15 -5.6 10.1 -5.55 10.1 -5.55 10.1 -5.5 10.1 -5.45 10.1 -5.4 10.1 -5.35 10.1 -5.35 10.1 -5.3 10.05 -5.25 10.05 -5.2 10.05 -5.2 10.05 -5.15 10.05 -5.1 10.1 -5.05 10.1 -4.9 10.1 -4.75 10.1 -4.6 10.1 -4.45 10.1 -4.3 10.05 -4.15 10.0 -4.05 9.95 -3.9 9.9 -3.75 9.85 -3.65 9.8 -3.5 9.7 -3.35 9.6 -3.25 9.5 -3.1 9.45 -3.0 9.3 -2.9 8.6 -2.1 7.85 -1.35 7.15 -0.6 6.4 0.1 5.65 0.85 4.85 1.55 4.1 2.25 3.3 2.9 2.5 3.6 1.65 4.25 0.8 4.9 -0.05 5.5 -0.9 6.15 -1.8 6.7 -2.7 7.3 -3.65 7.85 -7.95 10.35 -9.85 11.7 L-9.85 11.7" fill="#55473e" fill-opacity="0.34901962" fill-rule="evenodd" stroke="none"/>
    <path d="M-37.8 39.15 Q-36.75 39.3 -33.7 39.7 -33.35 39.7 -33.2 39.7 -32.95 39.75 -32.7 39.75 -32.5 39.75 -32.25 39.7 -32.05 39.65 -31.85 39.6 -31.65 39.5 -31.45 39.45 -31.3 39.35 -31.1 39.25 -30.95 39.15 -30.75 39.0 -30.6 38.9 -30.45 38.75 -30.35 38.7 -30.15 38.5 -30.05 38.4 -29.9 38.3 -29.8 38.25 -29.7 38.15 -29.6 38.05 -29.5 37.95 -29.4 37.85 -29.3 37.75 -29.2 37.65 -29.1 37.55 -29.0 37.45 -28.9 37.35 -28.8 37.25 -28.75 37.15 -28.65 37.05 -28.6 36.9 -28.5 36.75 -28.4 36.6 -28.3 36.45 -28.15 36.35 -28.05 36.2 -27.9 36.1 -27.8 35.95 -27.65 35.85 -27.5 35.75 -27.35 35.65 -27.2 35.55 -27.05 35.45 -26.9 35.35 -26.75 35.25 -26.55 35.15 -26.4 35.05 -25.55 34.65 -23.55 33.4 -22.8 32.95 -22.05 32.45 -21.3 32.0 -20.55 31.55 -19.8 31.1 -19.0 30.7 -18.25 30.25 -17.45 29.85 -16.7 29.4 -15.9 29.0 -15.15 28.55 -14.35 28.15 -13.55 27.75 -12.75 27.35 -11.95 26.95 -11.15 26.6 -11.1 26.55 -10.85 26.5 -10.8 26.55 -10.8 26.55 -10.8 26.6 -10.85 26.65 -10.85 26.65 -10.9 26.7 -11.05 26.8 -11.95 27.55 -12.6 28.1 -13.1 28.4 -13.45 28.65 -13.85 28.9 -14.2 29.15 -14.6 29.4 -14.95 29.65 -15.3 29.9 -15.65 30.15 -16.05 30.4 -16.35 30.65 -16.75 30.95 -17.05 31.2 -17.4 31.5 -17.75 31.75 -18.1 32.05 -18.45 32.3 -18.8 32.6 -19.05 32.8 -19.25 33.0 -19.5 33.15 -19.75 33.35 -20.0 33.55 -20.25 33.7 -20.45 33.9 -20.75 34.05 -21.0 34.25 -21.25 34.4 -21.5 34.6 -21.75 34.75 -22.0 34.95 -22.25 35.1 -22.55 35.25 -22.8 35.45 -22.95 35.55 -23.05 35.6 -23.15 35.7 -23.25 35.8 -23.4 35.85 -23.5 35.95 -23.55 36.05 -23.65 36.15 -23.75 36.25 -23.8 36.4 -23.9 36.5 -23.95 36.6 -24.0 36.75 -24.05 36.85 -24.1 37.0 -24.1 37.1 -24.15 37.25 -24.15 37.45 -24.2 37.6 -24.25 37.75 -24.3 37.9 -24.35 38.1 -24.4 38.25 -24.45 38.4 -24.5 38.55 -24.55 38.7 -24.6 38.9 -24.65 39.05 -24.7 39.2 -24.75 39.35 -24.8 39.5 -24.9 39.65 -24.95 39.75 -24.95 39.8 -24.95 39.9 -25.0 40.0 -25.0 40.1 -25.0 40.15 -25.0 40.25 -25.0 40.35 -25.0 40.4 -25.0 40.5 -24.95 40.6 -24.95 40.7 -24.95 40.85 -24.95 40.85 -24.95 40.95 -24.95 41.05 -24.95 41.25 -24.95 41.45 -24.95 41.6 -24.95 41.8 -24.95 42.0 -24.95 42.2 -24.95 42.35 -25.0 42.55 -25.0 42.75 -25.05 42.9 -25.1 43.1 -25.15 43.3 -25.2 43.45 -25.3 43.65 -25.35 43.85 -25.45 44.0 -25.45 44.05 -25.5 44.1 -25.5 44.15 -25.55 44.2 -25.55 44.25 -25.55 44.35 -25.55 44.4 -25.55 44.45 -25.6 44.5 -25.6 44.55 -25.6 44.65 -25.6 44.7 -25.6 44.75 -25.6 44.8 -25.65 44.85 -25.65 44.9 -25.65 44.95 -25.7 45.05 -25.7 45.1 -25.75 45.2 -25.8 45.25 -25.9 45.3 -25.95 45.4 -26.0 45.45 -26.1 45.5 -26.15 45.55 -26.25 45.6 -26.3 45.65 -26.4 45.7 -26.5 45.7 -26.55 45.7 -26.65 45.7 -26.7 45.7 -26.8 45.7 -26.85 45.7 -26.9 45.7 -26.95 45.65 -26.95 45.65 -27.0 45.6 -27.0 45.6 -27.05 45.55 -27.05 45.5 -27.05 45.5 -27.05 45.45 -27.05 45.4 -27.05 45.35 -27.05 45.3 -27.0 45.25 -26.95 45.2 -26.95 45.1 -26.9 45.05 -26.9 45.0 -26.9 44.95 -26.9 44.9 -26.9 44.85 -26.95 44.8 -26.95 44.75 -27.0 44.7 -27.05 44.7 -27.1 44.65 -27.15 44.6 -27.25 44.55 -27.3 44.55 -27.4 44.5 -27.6 44.4 -27.85 44.3 -28.05 44.2 -28.3 44.05 -28.7 43.9 -28.75 43.85 -29.05 43.7 -29.25 43.65 -29.45 43.5 -29.7 43.45 -29.95 43.3 -30.15 43.25 -30.4 43.15 -30.65 43.1 -30.9 43.0 -31.15 42.95 -31.2 42.95 -31.25 42.95 -31.3 42.9 -31.3 42.9 -31.45 42.7 -31.6 42.55 -31.75 42.45 -31.95 42.3 -32.15 42.2 -32.35 42.1 -32.55 42.0 -32.75 41.95 -32.95 41.85 -33.2 41.8 -32.95 41.85 -33.65 41.65 -33.9 41.6 -34.05 41.5 -34.3 41.45 -34.5 41.35 -34.9 41.15 -35.55 40.95 -36.65 40.6 -36.7 40.6 -36.75 40.6 -36.8 40.55 -36.85 40.55 -36.85 40.5 -36.9 40.5 -36.95 40.5 -36.95 40.45 -37.0 40.4 -37.0 40.4 -37.05 40.35 -37.05 40.3 -37.05 40.3 -37.05 40.25 -37.05 40.2 -37.05 40.15 -37.05 40.1 -37.05 40.0 -37.05 39.95 -37.05 39.85 -37.05 39.8 -37.1 39.7 -37.15 39.65 -37.15 39.55 -37.2 39.5 -37.25 39.45 -37.35 39.4 -37.4 39.35 -37.45 39.3 -37.55 39.25 -37.65 39.2 -37.7 39.15 -37.8 39.15 L-37.8 39.15" fill="#55473e" fill-opacity="0.34901962" fill-rule="evenodd" stroke="none"/>
    <path d="M63.35 -1.25 Q63.25 -1.0 63.15 0.45 62.95 3.95 62.6 6.6 62.6 6.75 62.55 6.9 62.5 7.05 62.45 7.2 62.45 7.3 62.35 7.45 62.35 7.6 62.3 7.75 62.05 8.35 62.15 8.05 62.1 8.2 62.1 8.3 62.05 8.5 62.0 8.6 61.95 8.75 61.9 8.9 61.8 9.4 61.7 9.95 61.6 10.45 61.55 10.95 61.5 11.45 61.45 12.0 61.4 12.5 61.4 13.05 61.35 13.55 61.35 14.1 61.35 14.6 61.4 15.15 61.4 15.65 61.4 16.2 61.45 16.65 61.45 17.25 61.5 18.55 61.75 20.7 62.05 23.4 62.1 24.1 62.2 25.05 62.2 25.95 62.2 26.85 62.1 27.7 62.0 28.6 61.85 29.45 61.65 30.3 61.4 31.1 61.15 31.95 60.8 32.75 60.5 33.55 60.05 34.3 59.65 35.05 59.15 35.8 58.6 36.55 58.0 37.3 57.45 37.95 56.9 38.55 56.3 39.2 55.7 39.8 55.1 40.35 54.45 40.9 53.85 41.45 53.2 41.95 52.5 42.5 51.85 42.95 51.15 43.45 50.45 43.9 49.7 44.3 48.95 44.75 48.25 45.15 47.45 45.5 46.55 45.95 45.7 46.35 44.75 46.75 43.9 47.15 43.0 47.55 42.1 47.9 41.2 48.3 40.3 48.65 39.35 49.05 38.45 49.35 37.55 49.7 36.6 50.0 35.65 50.35 34.75 50.65 33.8 50.9 32.85 51.2 31.35 51.6 24.8 52.75 23.9 52.95 22.3 53.2 20.45 53.5 19.75 53.65 19.65 53.65 19.55 53.7 19.45 53.7 19.35 53.7 19.3 53.7 19.2 53.7 19.1 53.7 19.0 53.7 18.9 53.7 18.8 53.7 18.7 53.7 18.6 53.7 18.55 53.7 18.4 53.7 18.35 53.7 18.25 53.7 6.05 53.15 4.4 53.05 3.3 53.0 2.2 52.9 1.15 52.8 0.05 52.65 -1.05 52.55 -2.15 52.4 -3.2 52.25 -4.3 52.05 -5.35 51.9 -6.45 51.7 -7.5 51.5 -8.6 51.3 -9.65 51.1 -10.75 50.85 -11.8 50.6 -12.85 50.35 -13.6 50.2 -14.3 50.0 -15.0 49.85 -15.75 49.65 -16.45 49.5 -17.15 49.3 -17.9 49.1 -18.6 48.9 -19.3 48.7 -20.0 48.5 -20.7 48.3 -21.4 48.1 -22.15 47.9 -22.8 47.65 -23.55 47.45 -24.25 47.2 -26.75 46.4 -31.25 44.25 -32.15 43.8 -33.05 43.35 -33.95 42.9 -34.8 42.4 -35.65 41.95 -36.5 41.45 -37.4 40.95 -38.2 40.4 -39.05 39.9 -39.9 39.35 -40.75 38.8 -41.55 38.25 -42.35 37.65 -43.15 37.05 -43.95 36.45 -44.7 35.85 -44.75 35.8 -44.75 35.8 -44.8 35.8 -44.8 35.75 -44.85 35.75 -44.85 35.75 -44.9 35.7 -44.9 35.7 -44.95 35.7 -44.95 35.7 -45.0 35.7 -45.0 35.7 -45.05 35.7 -45.1 35.7 -45.1 35.7 -45.15 35.75 -45.4 35.9 -45.7 36.0 -45.95 36.15 -46.25 36.2 -46.5 36.3 -46.8 36.35 -47.05 36.4 -47.35 36.4 -47.6 36.45 -47.9 36.45 -48.2 36.45 -48.5 36.45 -48.75 36.45 -49.05 36.45 -49.3 36.4 -49.65 36.4 -50.05 36.35 -50.45 36.3 -50.8 36.2 -51.2 36.1 -51.55 36.0 -51.9 35.9 -52.25 35.75 -52.6 35.6 -52.95 35.45 -53.3 35.25 -53.6 35.1 -53.95 34.85 -54.25 34.65 -54.6 34.45 -54.9 34.2 -55.2 33.95 -55.8 33.45 -56.35 32.95 -56.95 32.45 -57.45 31.9 -58.0 31.4 -58.5 30.85 -59.0 30.25 -59.45 29.7 -59.95 29.1 -60.35 28.45 -60.8 27.85 -61.15 27.2 -61.55 26.55 -61.9 25.9 -62.25 25.2 -62.55 24.5 -62.8 23.95 -62.95 23.35 -63.15 22.8 -63.25 22.25 -63.4 21.65 -63.45 21.1 -63.5 20.55 -63.5 20.0 -63.45 19.4 -63.4 18.85 -63.3 18.3 -63.15 17.75 -63.0 17.15 -62.8 16.6 -62.55 16.05 -62.3 15.5 -62.1 15.15 -61.9 14.8 -61.7 14.5 -61.45 14.2 -61.2 13.95 -60.95 13.7 -60.7 13.45 -60.4 13.25 -60.1 13.05 -59.8 12.85 -59.5 12.7 -59.15 12.55 -58.85 12.4 -58.5 12.3 -58.15 12.15 -57.75 12.1 -57.55 12.05 -57.5 12.05 -57.35 12.0 -57.3 12.0 -57.2 11.95 -57.15 11.9 -57.1 11.9 -57.05 11.85 -57.05 11.8 -57.05 11.75 -57.05 11.65 -57.05 11.6 -57.05 11.5 -57.1 11.4 -57.15 11.3 -57.2 11.15 -57.5 10.2 -57.8 9.25 -58.1 8.3 -58.35 7.4 -58.6 6.45 -58.85 5.5 -59.15 4.55 -59.35 3.6 -59.6 2.65 -59.8 1.7 -60.0 0.7 -60.2 -0.25 -60.4 -1.2 -60.55 -2.15 -60.75 -3.15 -60.9 -4.1 -61.0 -4.7 -61.05 -5.3 -61.1 -5.85 -61.15 -6.45 -61.2 -7.05 -61.2 -7.65 -61.25 -8.2 -61.25 -8.85 -61.25 -9.4 -61.25 -10.0 -61.25 -10.6 -61.25 -11.2 -61.2 -11.75 -61.2 -12.4 -61.2 -12.9 -61.15 -13.6 -61.1 -14.2 -61.1 -14.85 -61.05 -15.45 -61.0 -16.05 -60.95 -16.7 -60.9 -17.3 -60.85 -17.95 -60.8 -18.55 -60.7 -19.15 -60.65 -19.75 -60.55 -20.4 -60.45 -21.0 -60.4 -21.6 -60.3 -22.25 -60.2 -22.85 -60.05 -23.45 -59.75 -25.2 -59.35 -26.9 -58.95 -28.6 -58.45 -30.25 -57.95 -31.9 -57.4 -33.5 -56.8 -35.15 -56.1 -36.7 -55.4 -38.3 -54.6 -39.8 -53.8 -41.3 -52.9 -42.8 -52.0 -44.25 -50.95 -45.65 -49.9 -47.1 -48.8 -48.45 -48.2 -49.15 -47.55 -49.85 -46.9 -50.5 -46.25 -51.15 -45.6 -51.8 -44.9 -52.45 -44.2 -53.05 -43.5 -53.65 -42.8 -54.25 -42.05 -54.8 -41.35 -55.35 -40.6 -55.95 -39.9 -56.5 -39.1 -57.05 -38.4 -57.55 -37.6 -58.1 -36.3 -59.0 -35.0 -59.8 -33.65 -60.6 -32.3 -61.35 -30.95 -62.1 -29.55 -62.8 -28.2 -63.45 -26.75 -64.1 -25.35 -64.7 -23.9 -65.2 -22.45 -65.75 -21.0 -66.25 -19.5 -66.7 -18.0 -67.1 -16.5 -67.5 -15.0 -67.8 -14.3 -67.95 -13.55 -68.1 -12.85 -68.25 -12.15 -68.35 -11.4 -68.45 -10.7 -68.6 -9.95 -68.7 -9.25 -68.75 -8.5 -68.85 -7.8 -68.95 -7.1 -69.0 -6.35 -69.05 -5.6 -69.1 -4.9 -69.15 -4.15 -69.2 -3.45 -69.2 -3.2 -69.2 -2.85 -69.25 -2.4 -69.3 -2.2 -69.3 -0.75 -69.3 2.2 -69.3 2.2 -69.25 2.25 -69.25 2.25 -69.2 2.3 -69.2 2.35 -69.2 2.35 -69.2 2.4 -69.2 2.4 -69.2 2.45 -69.2 2.5 -69.2 2.5 -69.2 2.55 -69.2 2.6 -69.2 2.6 -69.2 2.65 -69.2 2.65 -69.2 3.25 -69.15 3.8 -69.15 4.4 -69.1 4.95 -69.05 5.55 -69.0 6.1 -68.95 6.7 -68.9 7.25 -68.85 7.85 -68.8 8.4 -68.7 8.95 -68.65 9.5 -68.55 10.1 -68.45 10.65 -68.35 11.25 -68.25 11.8 -68.15 14.8 -67.55 20.15 -65.9 26.65 -63.85 29.95 -62.3 30.65 -62.0 31.3 -61.65 32.0 -61.3 32.65 -60.95 33.3 -60.6 33.95 -60.25 34.65 -59.9 35.3 -59.5 35.95 -59.1 36.55 -58.75 37.2 -58.35 37.85 -57.95 38.5 -57.5 39.1 -57.1 39.75 -56.7 40.35 -56.25 41.65 -55.35 42.85 -54.45 44.05 -53.5 45.15 -52.5 46.3 -51.5 47.4 -50.45 48.45 -49.4 49.45 -48.3 50.45 -47.15 51.35 -46.0 52.3 -44.8 53.15 -43.55 54.0 -42.3 54.75 -40.95 55.5 -39.6 56.15 -38.2 56.9 -36.6 57.6 -35.0 58.3 -33.4 58.9 -31.75 59.5 -30.1 60.0 -28.45 60.5 -26.8 60.95 -25.15 61.4 -23.45 61.75 -21.75 62.1 -20.05 62.35 -18.35 62.65 -16.65 62.85 -14.9 63.05 -13.15 63.15 -11.4 63.25 -9.6 63.35 -9.4 63.35 -6.7 63.35 -1.25 L63.35 -1.25 M11.35 51.2 Q11.35 51.2 11.35 51.15 12.1 51.2 14.3 51.3 16.15 51.4 17.25 51.45 17.5 51.45 17.75 51.45 18.0 51.5 18.2 51.5 18.45 51.5 18.7 51.45 18.95 51.45 19.2 51.45 19.45 51.4 19.65 51.4 19.9 51.35 20.15 51.35 20.4 51.3 20.65 51.25 20.85 51.2 21.1 51.15 21.55 51.05 22.4 50.95 23.3 50.8 23.7 50.7 18.2 51.7 27.85 50.0 30.3 49.6 32.0 49.1 32.9 48.85 33.8 48.6 34.7 48.3 35.6 48.0 36.45 47.7 37.35 47.4 38.2 47.1 39.1 46.75 39.95 46.4 40.85 46.05 41.7 45.7 42.55 45.3 43.4 44.95 44.3 44.55 45.1 44.15 46.0 43.75 46.65 43.45 47.3 43.1 47.9 42.8 48.55 42.45 49.15 42.05 49.75 41.7 50.35 41.3 50.9 40.9 51.45 40.45 52.05 40.05 52.6 39.6 53.1 39.1 53.65 38.65 54.15 38.15 54.7 37.65 55.2 37.15 55.85 36.5 56.4 35.8 56.95 35.1 57.45 34.35 57.9 33.6 58.3 32.85 58.7 32.1 59.0 31.3 59.3 30.5 59.55 29.7 59.75 28.85 59.85 28.0 59.95 27.1 60.0 26.25 60.0 25.35 59.9 24.4 59.95 25.2 59.45 19.85 59.2 17.1 59.15 15.25 59.15 14.8 59.15 14.35 59.15 13.9 59.15 13.45 59.15 13.0 59.2 12.6 59.2 12.1 59.25 11.7 59.3 11.25 59.35 10.8 59.4 10.35 59.45 9.9 59.5 9.5 59.6 9.05 59.7 8.6 59.8 8.15 59.85 8.0 59.9 7.85 59.9 7.75 59.95 7.6 60.0 7.5 60.05 7.3 60.15 7.1 60.15 7.05 60.2 6.9 60.25 6.75 60.3 6.6 60.35 6.5 60.4 6.35 60.4 6.2 60.45 6.05 60.45 5.9 60.75 2.9 60.9 0.95 61.0 -0.2 61.05 -1.3 61.1 -2.45 61.1 -3.55 61.15 -4.7 61.15 -5.8 61.15 -6.95 61.1 -8.05 61.05 -9.2 61.0 -10.3 60.95 -11.4 60.85 -12.55 60.75 -13.65 60.6 -14.8 60.5 -15.9 60.35 -17.0 60.15 -18.35 59.9 -19.75 59.65 -21.1 59.35 -22.45 59.05 -23.75 58.7 -25.1 58.35 -26.4 57.9 -27.7 57.5 -29.05 57.05 -30.3 56.6 -31.6 56.1 -32.9 55.55 -34.15 55.0 -35.4 54.45 -36.65 53.8 -37.9 53.35 -38.8 52.85 -39.7 52.4 -40.55 51.85 -41.4 51.35 -42.25 50.8 -43.05 50.2 -43.9 49.6 -44.65 49.0 -45.45 48.4 -46.2 47.75 -46.95 47.05 -47.7 46.4 -48.4 45.65 -49.1 44.95 -49.8 44.2 -50.45 43.05 -51.45 41.85 -52.4 40.65 -53.35 39.4 -54.2 38.15 -55.1 36.9 -55.9 35.6 -56.75 34.3 -57.5 33.0 -58.25 31.7 -58.95 30.35 -59.65 28.95 -60.3 27.55 -60.9 26.15 -61.5 24.75 -62.05 23.25 -62.55 21.95 -63.0 20.9 -63.3 19.65 -63.7 18.55 -64.05 17.35 -64.4 16.2 -64.75 15.0 -65.1 13.85 -65.35 12.6 -65.65 11.45 -65.9 10.2 -66.15 9.0 -66.35 7.75 -66.55 6.55 -66.7 5.3 -66.85 4.1 -66.9 3.1 -66.95 2.1 -67.0 1.1 -67.05 0.15 -67.05 -0.85 -67.05 -1.85 -67.05 -2.85 -67.0 -3.8 -67.0 -4.8 -66.95 -5.8 -66.85 -6.75 -66.8 -7.75 -66.7 -8.75 -66.6 -9.7 -66.45 -10.7 -66.35 -11.65 -66.2 -12.85 -66.0 -14.05 -65.75 -15.2 -65.5 -16.4 -65.25 -17.55 -64.95 -18.7 -64.6 -19.85 -64.3 -21.0 -63.9 -22.1 -63.5 -23.25 -63.1 -24.35 -62.7 -25.45 -62.2 -26.6 -61.75 -27.65 -61.25 -28.75 -60.7 -29.85 -60.15 -30.9 -59.6 -31.85 -59.05 -32.9 -58.5 -33.85 -57.9 -34.85 -57.3 -35.8 -56.65 -36.75 -56.05 -37.65 -55.4 -38.6 -54.7 -39.5 -54.0 -40.4 -53.3 -41.3 -52.6 -42.2 -51.85 -43.05 -51.1 -43.9 -50.3 -44.7 -49.5 -45.7 -48.5 -46.65 -47.45 -47.6 -46.4 -48.45 -45.3 -49.3 -44.2 -50.1 -43.05 -50.85 -41.95 -51.6 -40.75 -52.3 -39.55 -52.9 -38.3 -53.55 -37.05 -54.1 -35.8 -54.65 -34.5 -55.15 -33.2 -55.65 -31.9 -56.05 -30.5 -56.35 -29.55 -56.65 -28.55 -56.9 -27.55 -57.15 -26.55 -57.4 -25.55 -57.6 -24.55 -57.8 -23.55 -58.0 -22.55 -58.15 -21.55 -58.3 -20.55 -58.45 -19.55 -58.55 -18.5 -58.65 -17.5 -58.75 -16.5 -58.8 -15.45 -58.9 -14.45 -58.95 -13.7 -58.95 -13.15 -59.0 -12.45 -59.0 -11.8 -59.05 -11.15 -59.05 -10.5 -59.05 -9.8 -59.05 -9.2 -59.05 -8.5 -59.0 -7.85 -58.95 -7.2 -58.9 -6.55 -58.85 -5.9 -58.8 -5.25 -58.7 -4.6 -58.6 -3.95 -58.45 -2.9 -58.25 -1.85 -58.05 -0.8 -57.85 0.25 -57.6 1.25 -57.4 2.3 -57.15 3.3 -56.85 4.35 -56.6 5.35 -56.3 6.4 -56.05 7.4 -55.7 8.45 -55.4 9.45 -55.1 10.45 -54.75 11.45 -54.4 12.45 -54.4 12.5 -54.4 12.5 -54.35 12.55 -54.35 12.6 -54.35 12.6 -54.35 12.65 -54.35 12.65 -54.3 12.7 -54.3 12.7 -54.3 12.75 -54.25 12.75 -54.25 12.8 -54.2 12.8 -54.2 12.85 -54.15 12.85 -54.15 12.85 -53.9 13.0 -53.65 13.15 -53.45 13.3 -53.25 13.45 -53.0 13.6 -52.8 13.8 -52.6 13.95 -52.4 14.15 -52.25 14.35 -52.05 14.55 -51.95 14.6 -51.65 14.95 -51.4 15.15 -51.25 15.3 -51.05 15.5 -50.9 15.7 -50.85 15.75 -50.8 15.8 -50.75 15.85 -50.75 15.9 -50.7 15.95 -50.65 16.0 -50.65 16.05 -50.6 16.1 -50.6 16.15 -50.6 16.2 -50.6 16.25 -50.55 16.3 -50.55 16.4 -50.55 16.45 -50.55 16.5 -50.55 16.55 -50.55 16.65 -50.6 16.7 -50.6 16.8 -50.65 16.9 -50.65 16.95 -50.7 17.0 -50.75 17.1 -50.8 17.15 -50.85 17.2 -50.9 17.25 -50.95 17.3 -51.0 17.35 -51.05 17.4 -51.15 17.45 -51.2 17.45 -51.3 17.5 -51.4 17.55 -51.45 17.55 -51.55 17.55 -51.6 17.55 -51.7 17.55 -51.8 17.55 -51.85 17.55 -51.95 17.55 -52.0 17.5 -52.1 17.5 -52.15 17.45 -52.25 17.4 -52.3 17.35 -52.35 17.3 -52.45 17.25 -52.5 17.2 -55.1 14.85 -55.45 14.6 -55.6 14.5 -55.75 14.4 -55.9 14.35 -56.05 14.3 -56.2 14.25 -56.3 14.2 -56.45 14.2 -56.6 14.2 -56.7 14.2 -56.85 14.2 -57.0 14.2 -57.15 14.25 -57.25 14.25 -57.4 14.3 -57.55 14.3 -57.7 14.35 -57.9 14.4 -58.1 14.5 -58.3 14.55 -58.45 14.65 -58.65 14.75 -58.8 14.85 -59.0 14.95 -59.15 15.05 -59.3 15.15 -59.45 15.3 -59.55 15.45 -59.7 15.6 -59.85 15.75 -59.95 15.9 -60.05 16.1 -60.2 16.3 -60.45 16.75 -60.65 17.2 -60.85 17.65 -61.0 18.1 -61.1 18.55 -61.2 19.0 -61.25 19.5 -61.25 19.95 -61.3 20.4 -61.25 20.85 -61.2 21.35 -61.1 21.8 -61.0 22.25 -60.85 22.75 -60.7 23.2 -60.5 23.65 -60.25 24.3 -59.9 24.9 -59.6 25.5 -59.25 26.1 -58.9 26.65 -58.5 27.2 -58.15 27.75 -57.7 28.3 -57.3 28.8 -56.85 29.3 -56.4 29.8 -55.95 30.3 -55.45 30.8 -54.95 31.25 -54.45 31.7 -53.95 32.15 -53.65 32.4 -53.35 32.6 -53.05 32.8 -52.75 33.0 -52.45 33.2 -52.1 33.35 -51.8 33.55 -51.45 33.65 -51.15 33.8 -50.8 33.9 -50.45 34.0 -50.1 34.1 -49.75 34.15 -49.35 34.2 -49.0 34.25 -48.6 34.25 -48.3 34.25 -48.15 34.25 -47.9 34.25 -47.7 34.25 -47.5 34.2 -47.3 34.2 -47.05 34.15 -46.9 34.1 -46.7 34.05 -46.5 33.95 -46.3 33.85 -46.15 33.75 -45.95 33.6 -45.8 33.4 -45.65 33.2 -45.55 33.0 -45.5 32.9 -45.45 32.85 -45.4 32.8 -45.35 32.75 -45.3 32.7 -45.2 32.65 -45.15 32.6 -45.05 32.6 -45.0 32.55 -44.9 32.55 -44.85 32.55 -44.75 32.55 -44.65 32.55 -44.6 32.55 -44.5 32.55 -44.4 32.55 -44.3 32.6 -44.25 32.6 -44.15 32.65 -44.1 32.7 -44.05 32.75 -43.95 32.75 -43.9 32.8 -43.85 32.9 -43.8 32.95 -43.75 33.0 -43.7 33.05 -43.7 33.15 -43.65 33.2 -43.65 33.3 -43.6 33.35 -43.6 33.45 -43.6 33.5 -43.6 33.6 -43.6 33.65 -43.55 33.7 -43.55 33.75 -43.55 33.8 -43.5 33.85 -43.5 33.9 -43.45 33.95 -43.4 33.95 -43.4 34.0 -43.35 34.05 -43.3 34.1 -43.25 34.15 -43.25 34.2 -43.2 34.2 -42.45 34.8 -41.65 35.4 -40.9 36.0 -40.05 36.55 -39.3 37.1 -38.45 37.65 -37.65 38.15 -36.8 38.65 -36.0 39.2 -35.15 39.65 -34.3 40.15 -33.45 40.6 -32.6 41.05 -31.75 41.5 -30.9 41.95 -30.0 42.35 -25.75 44.4 -23.4 45.15 -22.4 45.45 -21.45 45.75 -20.45 46.05 -19.45 46.35 -18.5 46.65 -17.5 46.9 -16.5 47.2 -15.5 47.45 -14.5 47.7 -13.5 47.95 -12.5 48.2 -11.55 48.4 -10.5 48.65 -9.5 48.85 -8.5 49.05 -7.5 49.25 -6.75 49.4 -6.0 49.55 -5.25 49.65 -4.5 49.8 -3.75 49.9 -3.0 50.05 -2.25 50.15 -1.5 50.25 -0.7 50.35 0.05 50.45 0.8 50.5 1.55 50.6 2.3 50.65 3.05 50.75 3.85 50.8 4.6 50.85 5.8 50.9 7.95 51.0 10.35 51.15 11.35 51.2 L11.35 51.2" fill="#55473e" fill-rule="evenodd" stroke="none"/>
    <path d="M-58.75 21.1 Q-58.75 20.9 -58.7 20.75 -58.65 20.55 -58.6 20.4 -58.55 20.2 -58.5 20.05 -58.4 19.85 -58.35 19.7 -58.25 19.5 -58.15 19.35 -58.0 19.15 -57.9 19.0 -57.75 18.85 -57.6 18.7 -57.45 18.55 -57.3 18.4 -57.2 18.3 -57.1 18.25 -56.95 18.15 -56.85 18.1 -56.75 18.05 -56.65 18.05 -56.5 18.0 -56.4 18.0 -56.25 18.0 -56.15 18.0 -56.05 18.0 -55.9 18.05 -55.8 18.05 -55.65 18.1 -55.55 18.15 -55.4 18.2 -55.3 18.25 -55.25 18.3 -55.15 18.35 -55.05 18.4 -55.0 18.45 -54.9 18.5 -54.85 18.6 -54.75 18.65 -54.7 18.7 -54.6 18.8 -54.55 18.85 -54.5 18.95 -54.4 19.0 -54.35 19.05 -54.3 19.15 -54.2 19.2 -53.9 19.55 -53.65 19.9 -53.4 20.25 -53.1 20.6 -52.85 20.95 -52.6 21.3 -52.35 21.65 -52.1 22.0 -51.9 22.35 -51.65 22.75 -51.4 23.1 -51.2 23.5 -50.95 23.85 -50.75 24.25 -50.5 24.6 -50.3 25.0 -50.15 25.25 -49.8 25.95 -49.5 26.55 -49.3 26.9 -49.25 26.95 -49.25 27.0 -49.2 27.05 -49.2 27.1 -49.15 27.2 -49.15 27.25 -49.15 27.3 -49.15 27.35 -49.15 27.4 -49.15 27.45 -49.2 27.5 -49.2 27.55 -49.2 27.6 -49.25 27.65 -49.3 27.7 -49.35 27.75 -49.45 27.95 -49.55 28.1 -49.7 28.25 -49.75 28.45 -49.9 28.6 -49.95 28.8 -50.05 28.95 -50.15 29.15 -50.25 29.3 -50.3 29.5 -50.4 29.65 -50.45 29.85 -50.5 30.05 -50.55 30.25 -50.6 30.45 -50.65 30.65 -50.65 30.7 -50.7 30.75 -50.7 30.8 -50.7 30.85 -50.75 30.9 -50.8 30.95 -50.8 30.95 -50.85 31.0 -50.9 31.0 -50.9 31.05 -50.95 31.05 -51.0 31.1 -51.05 31.1 -51.1 31.1 -51.15 31.1 -51.25 31.1 -51.3 31.1 -51.35 31.1 -51.4 31.05 -51.45 31.05 -51.5 31.0 -51.5 31.0 -51.55 30.95 -51.55 30.9 -51.6 30.9 -51.6 30.85 -51.65 30.8 -51.65 30.75 -51.65 30.7 -51.65 30.65 -51.65 30.6 -51.65 30.55 -51.65 30.5 -51.65 30.45 -51.65 30.4 -51.7 30.35 -51.7 30.35 -51.75 30.3 -51.75 30.3 -51.8 30.25 -51.85 30.25 -51.9 30.25 -52.2 30.15 -52.45 30.0 -52.7 29.85 -52.95 29.7 -53.15 29.5 -53.35 29.3 -53.6 29.15 -53.75 28.9 -53.95 28.7 -54.1 28.45 -54.25 28.25 -54.4 28.0 -54.55 27.75 -54.7 27.5 -54.8 27.25 -54.95 26.95 -54.95 26.9 -55.0 26.85 -55.0 26.75 -55.0 26.7 -55.0 26.65 -55.0 26.6 -55.0 26.55 -55.0 26.5 -55.0 26.45 -54.95 26.4 -54.95 26.4 -54.9 26.35 -54.9 26.3 -54.85 26.25 -54.8 26.25 -54.75 26.2 -54.7 26.15 -54.6 26.15 -54.55 26.15 -54.5 26.15 -54.45 26.15 -54.4 26.15 -54.35 26.2 -54.3 26.2 -54.25 26.25 -54.2 26.25 -54.15 26.3 -54.15 26.35 -54.1 26.4 -54.05 26.45 -54.05 26.5 -54.0 26.55 -53.95 26.7 -53.9 26.85 -53.8 26.95 -53.75 27.1 -53.65 27.25 -53.6 27.35 -53.55 27.5 -53.45 27.65 -53.35 27.75 -53.3 27.9 -53.2 28.0 -53.1 28.1 -53.0 28.25 -52.9 28.35 -52.8 28.45 -52.7 28.55 -52.6 28.65 -52.4 28.8 -52.2 28.95 -52.1 29.0 -51.95 29.1 -51.85 29.15 -51.75 29.25 -51.7 29.25 -51.6 29.3 -51.55 29.25 -51.45 29.25 -51.4 29.2 -51.35 29.15 -51.25 29.05 -51.2 28.95 -51.1 28.8 -51.05 28.7 -50.95 28.5 -50.65 27.95 -50.55 27.85 -50.5 27.75 -50.45 27.7 -50.4 27.6 -50.35 27.55 -50.35 27.45 -50.35 27.4 -50.3 27.3 -50.3 27.25 -50.3 27.2 -50.35 27.1 -50.35 27.05 -50.35 26.95 -50.4 26.9 -50.45 26.8 -50.45 26.7 -50.5 26.65 -53.1 22.15 -54.8 20.1 -54.75 20.15 -54.9 20.0 -54.95 19.9 -55.0 19.85 -55.05 19.8 -55.1 19.75 -55.15 19.7 -55.2 19.6 -55.25 19.55 -55.35 19.5 -55.4 19.45 -55.45 19.4 -55.5 19.35 -55.55 19.3 -55.6 19.25 -55.7 19.2 -55.8 19.15 -55.85 19.1 -55.95 19.05 -56.0 19.05 -56.1 19.0 -56.15 19.0 -56.2 19.0 -56.3 19.0 -56.35 19.0 -56.4 19.05 -56.5 19.05 -56.55 19.1 -56.6 19.15 -56.7 19.2 -56.75 19.25 -56.8 19.3 -57.0 19.5 -57.15 19.75 -57.3 20.0 -57.45 20.2 -57.55 20.45 -57.65 20.7 -57.7 20.95 -57.75 21.2 -57.75 21.45 -57.7 21.7 -57.65 21.95 -57.55 22.2 -57.4 22.45 -57.2 22.7 -57.0 22.95 -56.7 23.2 -56.65 23.25 -56.6 23.3 -56.55 23.35 -56.5 23.35 -56.45 23.4 -56.45 23.45 -56.4 23.5 -56.4 23.55 -56.35 23.6 -56.35 23.65 -56.35 23.7 -56.35 23.75 -56.35 23.85 -56.4 23.9 -56.45 23.95 -56.5 24.0 -56.55 24.05 -56.6 24.1 -56.65 24.15 -56.7 24.2 -56.75 24.2 -56.8 24.2 -56.85 24.2 -56.9 24.2 -56.95 24.2 -57.0 24.2 -57.05 24.15 -57.1 24.15 -57.15 24.1 -57.2 24.1 -57.25 24.05 -57.3 24.0 -57.45 23.85 -57.6 23.75 -57.75 23.6 -57.9 23.45 -58.05 23.3 -58.15 23.15 -58.25 23.0 -58.35 22.8 -58.45 22.65 -58.5 22.45 -58.6 22.25 -58.65 22.05 -58.7 21.85 -58.7 21.6 -58.75 21.35 -58.75 21.1 L-58.75 21.1" fill="#55473e" fill-rule="evenodd" stroke="none"/>
  </g>
</svg>
