<?xml version="1.0" encoding="UTF-8" standalone="no"?>
<svg xmlns:xlink="http://www.w3.org/1999/xlink" height="136.55px" width="124.7px" xmlns="http://www.w3.org/2000/svg">
  <g transform="matrix(1.0, 0.0, 0.0, 1.0, 62.35, 68.25)">
    <path d="M-43.35 36.1 Q-44.0 34.85 -44.65 33.65 -46.25 35.3 -48.35 35.45 -50.3 35.55 -52.45 34.45 -54.45 33.45 -56.4 31.5 -58.3 29.6 -59.7 27.3 -61.15 24.9 -61.85 22.55 -62.55 20.1 -62.25 18.1 -61.9 15.95 -60.4 14.65 -58.7 13.2 -55.75 12.9 L-55.2 13.5 Q-58.15 5.5 -59.35 -2.3 -60.5 -9.85 -59.95 -17.0 -59.45 -24.0 -57.35 -30.4 -55.3 -36.7 -51.8 -42.2 -48.35 -47.65 -43.6 -52.1 -38.9 -56.6 -33.05 -59.9 -27.15 -63.25 -20.4 -65.35 -13.5 -67.4 -5.95 -68.1 -1.25 -68.45 3.7 -68.1 8.5 -67.75 13.35 -66.75 18.2 -65.7 22.85 -64.05 27.5 -62.45 31.75 -60.25 36.1 -58.05 39.9 -55.35 43.75 -52.65 46.9 -49.55 50.1 -46.35 52.45 -42.9 54.9 -39.3 56.35 -35.5 57.75 -32.35 58.8 -29.2 59.85 -26.1 60.55 -22.95 61.25 -19.9 61.7 -16.8 62.1 -13.8 62.25 -10.7 62.4 -7.75 62.3 -4.65 62.25 -1.75 62.0 1.35 61.75 4.25 61.35 7.35 60.95 10.15 60.4 13.35 60.65 16.7 60.8 20.7 61.15 29.05 61.0 30.25 60.85 31.55 60.35 32.8 59.85 33.95 59.1 35.1 58.35 36.15 57.35 37.2 56.4 38.2 55.2 39.15 54.15 40.0 52.85 40.9 51.7 41.65 50.35 42.45 49.25 43.15 47.85 43.9 47.05 44.35 45.5 45.2 44.45 45.75 43.4 46.25 42.2 46.85 41.0 47.4 39.6 48.0 38.2 48.55 36.65 49.1 35.1 49.65 33.4 50.2 31.65 50.65 29.75 51.15 27.8 51.5 25.75 51.9 23.7 52.2 21.45 52.5 19.2 52.65 17.25 52.75 15.3 52.75 13.1 52.8 10.95 52.75 8.55 52.65 6.2 52.5 3.65 52.3 1.1 52.0 -1.65 51.7 -4.35 51.2 -7.2 50.7 -10.05 50.05 -13.05 49.4 -16.0 48.55 -19.1 47.6 -22.15 46.55 -23.75 46.0 -25.3 45.35 -26.8 44.75 -28.3 44.1 -29.75 43.5 -31.15 42.8 -32.5 42.2 -33.85 41.5 -35.15 40.85 -36.45 40.15 -37.7 39.5 -38.9 38.8 -40.05 38.15 -41.2 37.45 -42.3 36.8 -43.35 36.1 L-43.35 36.1" fill="#cc9b66" fill-rule="evenodd" stroke="none"/>
  </g>
</svg>
