<?xml version="1.0" encoding="UTF-8" standalone="no"?>
<svg xmlns:xlink="http://www.w3.org/1999/xlink" height="200.0px" width="200.0px" xmlns="http://www.w3.org/2000/svg">
  <g transform="matrix(1.0, 0.0, 0.0, 1.0, 100.0, 100.0)">
    <path d="M34.95 -7.35 Q30.15 -10.25 20.45 -16.0 19.2 -21.55 16.6 -32.55 15.95 -32.3 15.3 -32.05 14.6 -31.8 13.9 -31.55 13.15 -31.3 12.4 -31.1 11.6 -30.85 10.75 -30.6 9.9 -30.4 9.05 -30.2 8.1 -30.0 7.2 -29.8 6.25 -29.65 5.25 -29.5 4.25 -29.35 3.2 -29.25 1.7 -29.1 0.15 -29.05 -1.3 -29.0 -2.75 -29.0 -4.1 -29.05 -5.5 -29.15 -6.75 -29.25 -8.05 -29.4 -9.2 -29.55 -10.4 -29.75 -11.45 -29.95 -12.5 -30.2 -13.5 -30.4 -14.45 -30.65 -15.3 -30.85 -16.1 -31.1 -17.6 -26.1 -20.65 -16.1 -25.55 -12.9 -35.3 -6.5 -35.25 -6.3 -35.25 -6.05 -35.2 -5.85 -35.15 -5.6 -35.1 -5.3 -35.0 -5.05 -34.95 -4.75 -34.85 -4.5 -34.75 -4.15 -34.6 -3.85 -34.5 -3.55 -34.35 -3.25 -34.15 -2.9 -34.0 -2.6 -33.8 -2.25 -33.55 -1.95 -33.1 -1.3 -32.55 -0.7 -32.05 -0.2 -31.5 0.25 -30.95 0.7 -30.35 1.05 -29.85 1.35 -29.3 1.65 -28.8 1.85 -28.25 2.05 -27.8 2.2 -27.35 2.35 -27.0 2.45 -26.65 2.55 -26.4 2.6 -26.15 2.65 -24.85 2.1 -22.25 1.0 -21.95 1.2 -21.7 1.4 -21.35 1.65 -21.05 1.85 -20.7 2.05 -20.3 2.3 -19.95 2.5 -19.55 2.7 -19.1 2.95 -18.7 3.15 -18.25 3.4 -17.75 3.6 -17.3 3.8 -16.8 4.0 -16.25 4.25 -15.7 4.4 -15.2 4.6 -14.7 4.75 -14.2 4.9 -13.7 5.0 -13.2 5.15 -12.75 5.25 -12.3 5.35 -11.85 5.4 -11.4 5.5 -11.0 5.55 -10.55 5.6 -10.15 5.65 -9.8 5.7 -9.4 5.7 -9.05 5.75 -8.7 5.75 -7.7 4.85 -5.7 3.05 -5.35 3.2 -5.05 3.35 -4.65 3.5 -4.3 3.65 -3.9 3.8 -3.5 4.0 -3.1 4.15 -2.65 4.3 -2.2 4.45 -1.75 4.6 -1.25 4.75 -0.75 4.9 -0.25 5.05 0.3 5.15 0.85 5.3 1.4 5.4 1.85 5.5 2.15 5.55 2.55 5.65 2.9 5.75 3.35 5.8 3.7 5.9 4.15 5.95 4.55 6.0 5.0 6.05 5.4 6.1 5.85 6.15 6.3 6.15 6.8 6.2 7.3 6.2 7.8 6.2 8.3 6.15 9.1 6.1 9.9 6.0 10.6 5.95 11.35 5.8 12.05 5.65 12.75 5.45 13.45 5.3 14.1 5.05 14.75 4.85 15.4 4.6 15.95 4.35 16.6 4.1 17.1 3.85 17.75 3.6 18.15 3.4 18.9 3.05 19.2 2.9 19.5 2.75 19.8 2.65 20.1 2.5 20.35 2.35 20.6 2.2 20.9 2.1 21.15 1.95 21.35 1.8 21.6 1.7 21.8 1.55 22.05 1.45 22.25 1.3 22.45 1.2 22.6 1.1 22.8 1.0 23.85 1.5 25.95 2.6 26.2 2.55 26.4 2.5 26.7 2.4 26.95 2.3 27.3 2.2 27.6 2.1 27.95 1.95 28.25 1.8 28.65 1.65 29.0 1.45 29.4 1.25 29.75 1.05 30.15 0.8 30.55 0.55 30.95 0.25 31.3 -0.05 31.75 -0.4 32.15 -0.8 32.5 -1.15 32.85 -1.55 33.15 -1.9 33.45 -2.3 33.7 -2.65 33.95 -3.05 34.15 -3.35 34.35 -3.7 34.5 -4.0 34.65 -4.35 34.8 -4.6 34.9 -4.9 35.0 -5.1 35.1 -5.35 35.05 -6.0 34.95 -7.35 L34.95 -7.35 M-4.8 -21.9 Q-4.85 -21.85 -4.95 -21.8 -5.0 -21.8 -5.1 -21.75 -5.2 -21.7 -5.25 -21.7 -5.35 -21.65 -5.45 -21.65 -5.55 -21.65 -5.6 -21.65 -5.7 -21.6 -5.8 -21.6 -5.9 -21.6 -6.0 -21.6 -6.05 -21.6 -6.15 -21.6 -6.25 -21.6 -6.35 -21.6 -6.45 -21.65 -6.55 -21.65 -6.65 -21.65 -6.75 -21.7 -6.85 -21.7 -6.95 -21.75 -7.05 -21.8 -7.15 -21.85 -7.25 -21.9 -7.3 -21.95 -7.4 -22.0 -7.5 -22.05 -7.55 -22.1 -7.65 -22.15 -7.7 -22.2 -7.75 -22.25 -7.85 -22.3 -7.9 -22.4 -7.95 -22.45 -8.0 -22.5 -8.0 -22.55 -8.05 -22.65 -8.1 -22.7 -8.15 -22.8 -8.2 -22.85 -8.2 -22.95 -8.25 -23.0 -8.3 -23.05 -8.3 -23.15 -8.35 -23.2 -8.35 -23.25 -8.4 -23.35 -8.4 -23.4 -8.4 -23.5 -8.45 -23.55 -8.45 -23.65 -8.45 -23.7 -8.45 -23.75 -8.45 -23.85 -8.45 -23.9 -8.45 -24.0 -8.45 -24.05 -8.45 -24.1 -8.45 -24.2 -8.45 -24.25 -8.4 -24.35 -8.4 -24.45 -8.4 -24.5 -8.35 -24.6 -8.35 -24.65 -8.35 -24.75 -8.3 -24.8 -8.25 -24.9 -8.25 -24.95 -8.2 -25.05 -8.15 -25.1 -8.15 -25.15 -8.1 -25.25 -8.05 -25.3 -8.0 -25.35 -7.95 -25.45 -7.9 -25.5 -7.85 -25.55 -7.75 -25.6 -7.7 -25.7 -7.6 -25.75 -7.55 -25.8 -7.45 -25.8 -7.35 -25.85 -7.25 -25.9 -7.2 -25.95 -7.1 -25.95 -7.0 -26.0 -6.9 -26.0 -6.8 -26.0 -6.75 -26.0 -6.65 -26.0 -6.55 -26.0 -6.5 -26.0 -6.45 -26.0 -6.4 -26.0 -6.4 -26.0 -6.35 -26.0 -6.3 -26.0 -6.25 -25.95 -6.2 -25.95 -6.2 -25.95 -6.15 -25.95 -6.1 -25.95 -6.05 -25.95 -6.0 -25.95 -5.9 -25.95 -5.85 -25.95 -5.8 -25.95 -5.7 -25.95 -5.65 -25.95 -5.55 -25.95 -5.5 -25.9 -5.45 -25.9 -5.35 -25.9 -5.3 -25.85 -5.25 -25.85 -5.15 -25.8 -5.1 -25.75 -5.05 -25.75 -5.0 -25.7 -4.9 -25.65 -4.85 -25.6 -4.8 -25.55 -4.7 -25.5 -4.65 -25.45 -4.6 -25.35 -4.55 -25.3 -4.5 -25.25 -4.45 -25.2 -4.4 -25.1 -4.35 -25.05 -4.3 -24.95 -4.3 -24.9 -4.25 -24.8 -4.2 -24.75 -4.2 -24.65 -4.2 -24.6 -4.15 -24.6 -4.15 -24.55 -4.15 -24.5 -4.15 -24.5 -4.15 -24.45 -4.15 -24.4 -4.15 -24.4 -4.15 -24.35 -4.15 -24.3 -4.15 -24.3 -4.15 -24.25 -4.15 -24.2 -4.15 -24.2 -4.15 -24.15 -4.15 -24.1 -4.15 -24.05 -4.1 -24.0 -4.1 -23.95 -4.1 -23.9 -4.05 -23.85 -4.05 -23.8 -4.05 -23.75 -4.05 -23.7 -4.0 -23.65 -4.0 -23.6 -4.0 -23.55 -4.0 -23.5 -4.0 -23.45 -4.0 -23.4 -4.0 -23.35 -4.0 -23.3 -4.0 -23.2 -4.0 -23.1 -4.0 -23.0 -4.05 -22.9 -4.05 -22.8 -4.1 -22.7 -4.15 -22.6 -4.2 -22.5 -4.25 -22.4 -4.3 -22.35 -4.35 -22.25 -4.45 -22.15 -4.5 -22.1 -4.6 -22.05 -4.7 -21.95 -4.8 -21.9 L-4.8 -21.9 M13.55 -23.85 Q13.5 -23.65 13.4 -23.5 13.3 -23.3 13.15 -23.15 13.0 -23.05 12.85 -22.9 12.7 -22.8 12.55 -22.7 12.35 -22.6 12.15 -22.55 12.0 -22.45 11.8 -22.4 11.6 -22.4 11.4 -22.35 11.2 -22.35 11.0 -22.35 10.8 -22.35 10.65 -22.35 10.45 -22.4 10.3 -22.45 10.1 -22.5 9.95 -22.55 9.8 -22.6 9.65 -22.7 9.5 -22.8 9.35 -22.9 9.2 -23.05 9.1 -23.15 9.0 -23.3 8.95 -23.45 8.85 -23.65 8.85 -23.8 8.85 -23.9 8.8 -24.0 8.8 -24.05 8.8 -24.15 8.8 -24.25 8.8 -24.35 8.8 -24.4 8.8 -24.5 8.8 -24.6 8.85 -24.65 8.85 -24.75 8.9 -24.85 8.9 -24.9 8.95 -25.0 8.95 -25.05 9.0 -25.15 9.0 -25.2 8.95 -25.2 8.95 -25.25 8.9 -25.3 8.9 -25.35 8.9 -25.35 8.85 -25.4 8.85 -25.45 8.85 -25.5 8.85 -25.55 8.8 -25.55 8.8 -25.6 8.8 -25.65 8.8 -25.7 8.8 -25.75 8.8 -25.8 8.8 -25.9 8.8 -26.05 8.85 -26.15 8.9 -26.25 8.95 -26.35 9.0 -26.45 9.05 -26.55 9.15 -26.6 9.25 -26.7 9.35 -26.75 9.45 -26.85 9.55 -26.9 9.65 -26.9 9.8 -26.95 9.9 -26.95 10.0 -26.95 10.15 -26.95 10.3 -26.95 10.45 -26.95 10.6 -26.95 10.8 -26.95 10.95 -26.9 11.1 -26.9 11.25 -26.9 11.4 -26.85 11.55 -26.85 11.7 -26.8 11.85 -26.75 12.0 -26.7 12.1 -26.65 12.25 -26.6 12.4 -26.5 12.45 -26.45 12.55 -26.4 12.6 -26.35 12.7 -26.3 12.75 -26.25 12.8 -26.2 12.9 -26.15 12.95 -26.1 13.0 -26.05 13.05 -25.95 13.1 -25.9 13.15 -25.85 13.2 -25.75 13.25 -25.7 13.3 -25.6 13.35 -25.55 13.4 -25.45 13.45 -25.35 13.5 -25.25 13.5 -25.15 13.55 -25.05 13.6 -24.95 13.6 -24.85 13.6 -24.75 13.65 -24.6 13.65 -24.5 13.65 -24.4 13.65 -24.3 13.65 -24.2 13.6 -24.1 13.6 -24.0 13.55 -23.85 L13.55 -23.85" fill="#c94fa6" fill-rule="evenodd" stroke="none"/>
  </g>
</svg>
