<?xml version="1.0" encoding="UTF-8" standalone="no"?>
<svg xmlns:xlink="http://www.w3.org/1999/xlink" height="38.05px" width="61.0px" xmlns="http://www.w3.org/2000/svg">
  <g transform="matrix(1.0, 0.0, 0.0, 1.0, 30.5, 19.0)">
    <path d="M12.4 -31.3 Q12.35 -31.2 12.3 -31.15 12.25 -31.05 12.2 -31.0 12.15 -30.9 12.1 -30.8 12.05 -30.7 12.0 -30.6 11.9 -30.5 11.85 -30.4 11.8 -30.25 11.75 -30.15 11.7 -30.0 11.65 -29.9 11.55 -29.75 11.5 -29.6 11.45 -29.45 11.4 -29.35 11.35 -29.2 11.3 -29.05 11.25 -28.85 11.2 -28.6 11.15 -28.35 11.1 -28.05 11.05 -27.7 11.0 -27.3 10.95 -26.9 10.9 -26.4 10.85 -25.9 10.85 -25.3 10.8 -24.7 10.8 -24.0 10.8 -23.85 10.8 -23.7 10.8 -23.55 10.8 -23.4 10.8 -23.2 10.8 -23.05 10.8 -22.85 10.8 -22.7 10.8 -22.5 10.8 -22.3 10.8 -22.1 10.85 -21.85 10.85 -21.65 10.85 -21.45 10.85 -21.2 10.85 -21.0 10.95 -20.85 11.0 -20.65 11.1 -20.45 11.25 -20.3 11.35 -20.05 11.5 -19.85 11.65 -19.6 11.75 -19.4 11.95 -19.15 12.1 -18.9 12.3 -18.7 12.5 -18.45 12.7 -18.25 12.9 -18.05 13.1 -17.8 13.35 -17.65 13.4 -17.6 13.45 -17.55 13.5 -17.5 13.55 -17.5 13.6 -17.45 13.65 -17.4 13.7 -17.4 13.75 -17.35 13.8 -17.3 13.85 -17.3 13.9 -17.25 14.0 -17.2 14.05 -17.2 14.1 -17.15 14.15 -17.15 14.2 -17.1 14.5 -17.0 14.35 -17.05 14.5 -17.0 14.6 -16.95 14.7 -16.9 14.85 -16.9 15.0 -16.85 15.15 -16.8 15.3 -16.8 15.45 -16.75 15.6 -16.75 15.8 -16.75 15.95 -16.75 16.15 -16.8 16.3 -16.85 16.5 -16.9 16.7 -17.0 16.9 -17.15 17.1 -17.25 17.25 -17.45 17.4 -17.6 17.5 -17.8 17.6 -17.95 17.7 -18.15 17.8 -18.3 17.85 -18.45 17.9 -18.6 17.95 -18.75 17.95 -18.85 18.0 -18.95 18.0 -19.0 18.0 -19.05 18.5 -17.85 19.15 -16.4 19.3 -16.0 19.5 -15.65 19.65 -15.25 19.85 -14.9 20.0 -14.5 20.2 -14.15 20.35 -13.75 20.55 -13.4 20.7 -13.0 20.9 -12.65 21.05 -12.3 21.25 -11.95 21.4 -11.55 21.6 -11.2 21.75 -10.85 21.95 -10.5 22.1 -10.4 22.2 -10.3 22.35 -10.2 22.5 -10.1 22.65 -10.0 22.8 -9.9 22.95 -9.8 23.1 -9.7 23.25 -9.6 23.45 -9.5 23.6 -9.4 23.8 -9.3 23.95 -9.2 24.15 -9.1 24.35 -9.0 24.55 -8.9 24.85 -8.75 25.15 -8.6 25.45 -8.5 25.75 -8.4 26.05 -8.3 26.35 -8.2 26.6 -8.1 26.9 -8.0 27.15 -7.95 27.4 -7.85 27.65 -7.8 27.95 -7.75 28.15 -7.7 28.4 -7.65 28.6 -7.6 28.85 -7.55 28.65 -8.35 28.3 -9.95 28.35 -11.15 28.4 -13.45 26.25 -16.55 24.15 -19.5 24.05 -19.65 22.75 -21.5 22.65 -22.0 22.65 -22.2 22.6 -22.6 22.9 -23.7 22.95 -23.85 22.95 -24.05 22.95 -24.2 22.95 -24.4 22.95 -24.55 22.9 -24.75 22.85 -24.9 22.8 -25.05 22.75 -25.2 22.65 -25.4 22.6 -25.5 22.55 -25.7 22.45 -25.8 22.4 -25.95 22.35 -26.05 22.25 -26.2 22.15 -26.4 22.0 -26.6 21.85 -26.8 21.7 -27.0 21.55 -27.15 21.35 -27.3 21.2 -27.45 21.05 -27.6 20.9 -27.7 20.7 -27.85 20.55 -27.95 20.35 -28.05 20.2 -28.15 20.0 -28.25 19.85 -28.35 19.7 -28.45 19.2 -28.7 18.7 -28.95 18.25 -29.15 17.7 -29.4 17.25 -29.6 16.75 -29.8 16.3 -30.0 15.8 -30.15 15.35 -30.35 14.85 -30.5 14.45 -30.65 14.0 -30.8 13.6 -30.95 13.15 -31.05 12.8 -31.2 12.4 -31.3 L12.4 -31.3" fill="#eabfff" fill-rule="evenodd" stroke="none"/>
    <path d="M-11.35 10.95 Q-11.4 10.95 -11.4 10.95 -11.45 10.95 -11.5 10.95 -11.55 10.95 -11.6 10.95 -11.65 10.9 -11.65 10.9 -11.7 10.9 -11.75 10.9 -11.8 10.9 -11.85 10.9 -11.85 10.85 -11.9 10.85 -11.95 10.8 -11.95 10.8 -12.15 10.6 -12.4 10.45 -12.6 10.3 -12.85 10.2 -13.05 10.05 -13.3 9.95 -13.55 9.85 -13.8 9.8 -14.05 9.7 -14.3 9.65 -14.55 9.6 -14.8 9.55 -15.05 9.55 -15.3 9.5 -15.55 9.5 -15.85 9.5 -17.65 9.4 -20.45 9.55 -20.95 9.6 -21.45 9.6 -21.95 9.6 -22.45 9.55 -22.95 9.55 -23.4 9.5 -23.9 9.45 -24.4 9.4 -24.9 9.3 -25.35 9.2 -25.85 9.1 -26.3 8.95 -26.8 8.8 -27.25 8.6 -27.7 8.4 -28.2 8.2 -28.4 8.1 -28.6 8.0 -28.85 7.9 -29.05 7.8 -29.3 7.75 -29.5 7.65 -29.7 7.6 -29.95 7.55 -30.2 7.5 -30.4 7.5 -30.65 7.45 -30.9 7.45 -31.15 7.45 -31.35 7.45 -31.6 7.45 -31.85 7.5 -31.9 7.5 -32.85 7.25 -32.15 6.4 -32.1 6.35 -32.05 6.3 -32.05 6.3 -32.0 6.25 -31.95 6.25 -31.9 6.2 -31.85 6.2 -31.85 6.15 -31.8 6.15 -31.75 6.15 -31.7 6.1 -31.65 6.1 -31.6 6.1 -31.55 6.1 -31.55 6.1 -31.5 6.1 -31.45 6.1 -31.25 6.15 -31.05 6.15 -30.9 6.15 -30.6 6.2 -30.3 6.2 -30.15 6.25 -29.9 6.25 -29.75 6.3 -29.5 6.3 -29.3 6.35 -29.1 6.4 -28.9 6.45 -28.7 6.5 -28.5 6.55 -28.3 6.65 -28.15 6.75 -27.6 7.05 -27.0 7.25 -26.45 7.5 -25.85 7.65 -25.3 7.8 -24.7 7.9 -24.1 8.0 -23.5 8.1 -22.95 8.15 -22.3 8.15 -21.75 8.2 -21.1 8.2 -20.55 8.15 -19.9 8.15 -19.35 8.1 -18.7 8.05 -18.35 8.0 -18.0 8.0 -17.6 8.0 -17.25 8.0 -16.9 8.0 -16.55 8.0 -16.2 8.0 -15.85 8.05 -15.45 8.1 -15.1 8.15 -14.75 8.2 -14.4 8.25 -14.05 8.35 -13.7 8.4 -13.35 8.5 -13.0 8.65 -12.75 8.75 -12.65 8.8 -12.4 8.85 -12.25 8.95 -12.05 9.0 -11.95 9.1 -11.75 9.2 -11.65 9.35 -11.5 9.45 -11.4 9.6 -11.35 9.75 -11.3 9.95 -11.25 10.15 -11.25 10.4 -11.3 10.65 -11.35 10.95 L-11.35 10.95" fill="#000000" fill-rule="evenodd" stroke="none"/>
    <path d="M-4.25 -3.95 Q-5.05 -4.25 -5.1 -4.25 -5.15 -4.35 -5.25 -4.45 -5.35 -4.5 -5.45 -4.6 -5.5 -4.65 -5.6 -4.7 -5.7 -4.75 -5.8 -4.75 -5.9 -4.75 -6.0 -4.8 -6.1 -4.8 -6.2 -4.8 -6.3 -4.8 -6.45 -4.8 -6.55 -4.8 -6.65 -4.75 -6.9 -4.7 -11.8 -4.1 -12.4 -4.05 -12.95 -4.0 -13.55 -3.95 -14.15 -3.95 -14.7 -3.95 -15.3 -4.0 -15.85 -4.0 -16.4 -4.1 -17.0 -4.2 -17.5 -4.3 -18.1 -4.45 -18.6 -4.65 -19.15 -4.85 -19.7 -5.1 -20.25 -5.35 -20.75 -5.65 -21.0 -5.8 -21.2 -5.9 -21.45 -6.05 -21.7 -6.15 -21.95 -6.25 -22.2 -6.35 -22.45 -6.4 -22.7 -6.5 -22.95 -6.55 -23.2 -6.6 -23.5 -6.65 -23.75 -6.65 -24.0 -6.7 -24.25 -6.7 -24.55 -6.7 -24.8 -6.7 -24.9 -6.7 -25.0 -6.7 -25.1 -6.7 -25.15 -6.7 -25.25 -6.75 -25.35 -6.75 -25.4 -6.8 -25.5 -6.8 -25.55 -6.85 -25.6 -6.9 -25.65 -6.95 -25.7 -7.05 -25.75 -7.1 -25.75 -7.2 -25.8 -7.3 -25.8 -7.4 -25.8 -7.5 -25.75 -7.6 -25.75 -7.7 -25.7 -7.8 -25.65 -7.85 -25.6 -7.9 -25.55 -7.95 -25.5 -8.0 -25.4 -8.05 -25.35 -8.05 -25.25 -8.1 -25.15 -8.1 -25.1 -8.1 -25.0 -8.1 -24.9 -8.1 -24.8 -8.1 -24.5 -8.1 -24.2 -8.1 -23.9 -8.1 -23.65 -8.05 -23.35 -8.0 -23.05 -8.0 -22.8 -7.95 -22.5 -7.85 -22.2 -7.8 -21.95 -7.7 -21.7 -7.65 -21.4 -7.55 -21.15 -7.4 -20.9 -7.3 -20.65 -7.15 -20.4 -7.0 -19.85 -6.65 -19.3 -6.4 -18.75 -6.15 -18.2 -5.95 -17.6 -5.75 -17.05 -5.65 -16.5 -5.5 -15.9 -5.45 -15.3 -5.35 -14.7 -5.35 -14.15 -5.3 -13.55 -5.35 -12.95 -5.35 -12.35 -5.4 -11.75 -5.45 -11.15 -5.55 -9.3 -5.85 -6.7 -6.15 -6.65 -6.15 -6.6 -6.15 -6.55 -6.15 -6.5 -6.15 -6.4 -6.2 -6.35 -6.2 -6.3 -6.2 -6.25 -6.2 -6.2 -6.2 -6.15 -6.2 -6.05 -6.15 -6.0 -6.15 -5.95 -6.15 -5.9 -6.15 -5.85 -6.15 -5.8 -6.15 -5.65 -6.15 -5.55 -6.1 -5.45 -6.1 -5.35 -6.05 -5.25 -6.05 -5.15 -6.0 -5.05 -5.95 -5.0 -5.9 -4.9 -5.85 -4.85 -5.75 -4.8 -5.7 -4.75 -5.6 -4.7 -5.5 -4.7 -5.4 -4.65 -5.25 -4.7 -5.1 -4.7 -5.1 -4.25 -3.95 L-4.25 -3.95" fill="#000000" fill-rule="evenodd" stroke="none"/>
    <path d="M14.8 -7.1 Q14.75 -7.3 14.7 -7.45 14.6 -7.55 14.55 -7.7 14.45 -7.8 14.35 -7.9 14.25 -7.95 14.15 -8.0 14.0 -8.05 13.9 -8.1 13.75 -8.15 13.6 -8.15 13.5 -8.15 13.35 -8.15 13.2 -8.15 13.0 -8.15 12.5 -8.1 12.05 -8.05 11.55 -8.0 11.05 -7.9 10.6 -7.8 10.1 -7.75 9.65 -7.65 9.15 -7.5 8.7 -7.4 8.25 -7.25 7.75 -7.1 7.3 -6.95 6.85 -6.8 6.4 -6.6 5.95 -6.45 5.5 -6.25 5.35 -6.2 5.2 -6.1 5.05 -6.0 4.9 -5.95 4.8 -5.85 4.65 -5.75 4.5 -5.65 4.4 -5.55 4.25 -5.45 4.1 -5.35 4.0 -5.25 3.85 -5.1 3.75 -5.0 3.6 -4.9 3.5 -4.8 3.4 -4.7 3.35 -4.65 3.3 -4.55 3.2 -4.5 3.15 -4.45 3.1 -4.35 3.05 -4.25 3.0 -4.2 2.95 -4.1 2.95 -4.0 2.9 -3.95 2.85 -3.85 2.85 -3.75 2.85 -3.7 2.8 -3.6 2.8 -3.55 2.8 -3.45 2.8 -3.3 2.8 -3.2 2.8 -3.1 2.8 -2.95 2.75 -2.85 2.75 -2.8 2.7 -2.7 2.65 -2.6 2.6 -2.55 2.5 -2.5 2.45 -2.45 2.35 -2.4 2.3 -2.35 2.2 -2.3 2.1 -2.25 2.0 -2.2 1.85 -2.15 1.75 -2.1 1.65 -2.05 1.55 -2.0 1.4 -1.95 1.3 -1.95 1.2 -1.9 1.05 -1.85 0.95 -1.8 0.85 -1.8 0.7 -1.75 0.6 -1.7 0.5 -1.7 0.35 -1.7 0.25 -1.65 0.1 -1.65 -0.4 -1.6 -4.05 -1.65 -4.05 -1.5 -4.0 -1.4 -4.0 -1.3 -4.0 -1.25 -4.0 -1.15 -4.05 -1.05 -4.05 -1.0 -4.1 -0.9 -4.15 -0.85 -4.2 -0.75 -4.2 -0.7 -4.25 -0.65 -4.3 -0.55 -4.4 -0.5 -4.45 -0.45 -4.5 -0.4 -4.55 -0.35 -4.65 -0.3 -2.95 -0.15 -2.5 -0.15 -2.1 -0.15 -1.85 -0.15 -1.5 -0.15 -1.2 -0.15 -0.85 -0.15 -0.55 -0.15 -0.2 -0.2 0.1 -0.2 0.45 -0.25 0.75 -0.3 1.1 -0.4 1.4 -0.45 1.7 -0.55 2.0 -0.65 2.35 -0.8 2.65 -0.95 2.75 -1.0 2.85 -1.05 2.95 -1.1 3.0 -1.15 3.1 -1.2 3.15 -1.3 3.25 -1.35 3.3 -1.45 3.35 -1.5 3.4 -1.6 3.45 -1.7 3.5 -1.8 3.55 -1.9 3.55 -2.0 3.6 -2.1 3.6 -2.25 3.6 -2.35 3.6 -2.45 3.65 -2.5 3.65 -2.6 3.7 -2.7 3.7 -2.8 3.75 -2.9 3.8 -3.0 3.85 -3.05 3.9 -3.15 3.95 -3.25 4.0 -3.3 4.05 -3.4 4.15 -3.45 4.2 -3.55 4.25 -3.6 4.4 -3.75 4.5 -3.85 4.65 -3.95 4.8 -4.05 4.9 -4.2 5.05 -4.3 5.2 -4.4 5.35 -4.5 5.45 -4.6 5.6 -4.7 5.75 -4.8 5.9 -4.9 6.05 -4.95 6.2 -5.05 6.35 -5.1 6.5 -5.15 8.3 -5.85 11.45 -6.55 11.6 -6.6 11.75 -6.6 11.9 -6.6 12.05 -6.65 12.2 -6.65 12.35 -6.65 12.5 -6.65 12.65 -6.7 12.8 -6.7 12.95 -6.7 13.1 -6.7 13.25 -6.7 13.4 -6.7 13.6 -6.65 13.7 -6.65 13.9 -6.65 13.95 -6.65 14.0 -6.65 14.05 -6.6 14.05 -6.6 14.1 -6.55 14.15 -6.55 14.2 -6.5 14.25 -6.45 14.3 -6.45 14.35 -6.4 14.55 -6.15 14.4 -6.3 14.45 -6.25 14.5 -6.2 14.55 -6.15 14.6 -6.15 14.8 -5.95 15.35 -5.55 15.4 -5.6 15.55 -5.75 14.85 -6.9 14.8 -7.1 L14.8 -7.1" fill="#000000" fill-rule="evenodd" stroke="none"/>
    <path d="M-46.5 -7.05 Q-46.0 -7.55 -45.95 -7.6 -45.9 -7.6 -45.85 -7.6 -45.8 -7.6 -45.75 -7.6 -45.7 -7.6 -45.65 -7.55 -45.6 -7.55 -45.55 -7.55 -45.5 -7.5 -45.45 -7.5 -45.4 -7.45 -45.35 -7.45 -45.35 -7.4 -45.3 -7.4 -45.25 -7.35 -45.2 -7.3 -45.15 -7.25 -44.45 -6.15 -43.0 -3.75 -40.95 -0.55 -40.9 -0.45 -40.8 -0.35 -40.75 -0.25 -40.7 -0.2 -40.6 -0.1 -40.55 -0.05 -40.45 0.05 -40.35 0.1 -40.3 0.15 -40.2 0.2 -40.1 0.3 -40.0 0.35 -39.9 0.4 -39.8 0.45 -39.7 0.5 -39.55 0.55 -39.35 0.65 -39.1 0.75 -38.9 0.85 -38.7 0.95 -38.45 1.05 -38.25 1.2 -38.05 1.3 -37.85 1.45 -37.65 1.6 -37.45 1.75 -37.25 1.9 -37.05 2.05 -36.9 2.2 -36.7 2.4 -36.5 2.55 -36.35 2.7 -36.2 2.85 -36.1 3.0 -35.95 3.15 -35.85 3.3 -35.7 3.45 -35.6 3.65 -35.5 3.8 -35.4 4.0 -35.3 4.15 -35.2 4.35 -34.1 6.3 -35.0 4.7 -34.85 4.9 -34.75 5.05 -34.65 5.25 -34.55 5.4 -34.45 5.6 -33.85 6.5 -33.4 7.15 -33.15 7.6 -33.1 7.65 -33.1 7.7 -33.05 7.75 -33.05 7.8 -33.05 7.9 -33.0 7.95 -33.0 8.0 -33.0 8.1 -33.0 8.15 -33.0 8.2 -33.0 8.25 -33.0 8.3 -33.0 8.4 -33.0 8.45 -33.05 8.5 -33.05 8.5 -33.1 8.55 -33.1 8.55 -33.15 8.6 -33.2 8.6 -33.25 8.65 -33.35 8.65 -33.4 8.7 -33.45 8.7 -33.5 8.7 -33.6 8.7 -33.65 8.7 -33.7 8.7 -33.8 8.7 -33.85 8.7 -33.9 8.7 -33.95 8.65 -34.0 8.6 -34.05 8.6 -34.15 8.55 -34.2 8.5 -34.25 8.45 -34.3 8.4 -34.35 8.35 -34.4 8.3 -34.45 8.25 -34.5 8.15 -34.55 8.1 -34.6 8.05 -34.65 8.0 -34.7 7.9 -34.75 7.85 -34.8 7.8 -35.05 7.35 -36.15 5.35 -36.35 4.95 -36.55 4.6 -36.8 4.3 -37.05 3.95 -37.3 3.65 -37.55 3.35 -37.85 3.1 -38.15 2.85 -38.45 2.6 -38.75 2.4 -39.1 2.2 -39.45 2.0 -39.8 1.8 -40.2 1.7 -40.55 1.55 -41.0 1.45 -41.05 1.45 -41.1 1.4 -41.1 1.4 -41.15 1.35 -41.2 1.35 -41.25 1.3 -41.3 1.3 -41.35 1.25 -41.35 1.2 -41.4 1.2 -41.45 1.15 -41.45 1.1 -41.5 1.05 -41.55 1.05 -41.55 1.0 -41.6 0.95 -43.3 -1.75 -46.25 -6.4 -46.3 -6.5 -46.35 -6.65 -46.45 -6.95 -46.5 -7.05 L-46.5 -7.05" fill="#000000" fill-rule="evenodd" stroke="none"/>
    <path d="M30.3 3.6 Q30.55 3.7 30.8 3.75 31.05 3.8 31.25 3.75 31.5 3.75 31.7 3.65 31.9 3.6 32.05 3.45 32.25 3.35 32.4 3.25 32.55 3.1 32.7 2.95 32.85 2.8 33.0 2.6 33.1 2.5 33.25 2.3 34.1 1.2 35.35 -0.6 37.0 -3.05 37.4 -3.6 37.4 -3.6 38.25 -4.05 38.25 -4.0 38.3 -3.95 38.35 -3.9 38.35 -3.85 38.35 -3.8 38.4 -3.7 38.45 -3.65 38.5 -3.6 38.5 -3.55 38.55 -3.5 38.55 -3.45 38.6 -3.4 38.6 -3.3 38.6 -3.25 38.65 -3.2 38.65 -3.15 38.65 -3.1 38.65 -3.05 38.65 -3.05 38.65 -3.0 38.65 -2.95 38.6 -2.9 38.6 -2.85 38.6 -2.8 38.55 -2.75 38.55 -2.7 38.5 -2.7 38.5 -2.65 38.45 -2.6 38.45 -2.55 38.4 -2.5 38.4 -2.45 38.35 -2.4 36.25 0.5 35.0 2.25 34.1 3.4 33.75 3.85 32.05 4.95 31.95 5.0 31.9 5.05 31.8 5.1 31.7 5.15 31.65 5.15 31.55 5.2 31.45 5.25 31.35 5.25 31.25 5.25 31.15 5.25 31.05 5.25 30.95 5.25 30.85 5.2 30.75 5.2 30.65 5.15 30.55 5.05 30.5 5.05 30.5 5.05 30.45 5.0 30.4 5.0 30.35 5.05 30.3 5.05 30.25 5.05 30.2 5.05 30.15 5.05 30.1 5.1 30.05 5.1 30.0 5.1 29.95 5.15 29.9 5.15 29.85 5.2 29.8 5.2 27.5 6.9 26.85 7.45 26.5 7.75 25.9 8.35 25.25 9.0 25.0 9.25 24.95 9.3 24.85 9.35 24.8 9.4 24.7 9.45 24.65 9.5 24.55 9.5 24.5 9.55 24.4 9.55 24.35 9.55 24.25 9.55 24.15 9.55 24.1 9.5 24.0 9.45 23.95 9.4 23.9 9.3 23.8 9.25 23.75 9.15 23.7 9.05 23.65 9.0 23.65 8.9 23.65 8.85 23.65 8.75 23.7 8.7 23.7 8.6 23.75 8.55 23.8 8.5 23.85 8.45 23.9 8.35 23.95 8.3 24.05 8.25 24.05 8.2 24.15 8.15 24.85 7.55 25.8 6.55 26.0 6.35 26.2 6.1 26.45 5.9 26.65 5.7 26.9 5.5 27.1 5.3 27.35 5.15 27.55 4.95 27.8 4.8 28.05 4.65 28.3 4.45 28.55 4.3 28.8 4.15 29.1 4.05 29.35 3.9 29.65 3.8 29.7 3.75 30.3 3.6 L30.3 3.6" fill="#000000" fill-rule="evenodd" stroke="none"/>
    <path d="M-1.4 12.4 Q-1.4 12.35 -1.45 12.35 -1.45 12.3 -1.45 12.3 -1.5 12.05 -1.55 11.85 -1.55 11.65 -1.55 11.45 -1.55 11.3 -1.5 11.1 -1.45 10.95 -1.35 10.75 -1.3 10.6 -1.2 10.45 -1.05 10.3 -0.95 10.2 -0.8 10.05 -0.6 9.95 -0.45 9.8 -0.25 9.7 0.5 9.25 1.25 8.85 2.05 8.45 2.8 8.15 3.6 7.8 4.4 7.5 5.15 7.2 5.95 6.95 6.8 6.7 7.6 6.5 8.4 6.3 9.25 6.15 10.1 6.0 10.95 5.95 11.8 5.85 12.65 5.8 12.85 5.8 13.1 5.8 13.5 5.8 13.55 5.8 13.7 6.2 14.05 7.05 13.1 7.2 12.95 7.2 12.05 7.2 11.2 7.3 10.35 7.35 9.5 7.5 8.65 7.65 7.8 7.85 7.0 8.05 6.2 8.3 5.35 8.55 4.6 8.85 3.8 9.2 3.0 9.55 2.25 9.9 1.45 10.35 0.7 10.75 -0.05 11.25 -0.1 11.25 -1.4 12.4 L-1.4 12.4" fill="#000000" fill-rule="evenodd" stroke="none"/>
    <path d="M-36.4 -8.95 Q-36.35 -8.95 -36.35 -8.95 -36.35 -9.0 -36.4 -9.05 -36.4 -9.05 -36.4 -9.1 -36.45 -9.15 -36.45 -9.2 -36.45 -9.2 -36.5 -9.25 -36.5 -9.3 -36.55 -9.35 -36.65 -9.5 -36.8 -9.7 -36.9 -9.85 -37.05 -10.0 -37.15 -10.15 -37.3 -10.35 -37.5 -10.55 -37.55 -10.65 -37.7 -10.85 -37.8 -11.0 -37.95 -11.2 -38.05 -11.35 -38.2 -11.5 -38.3 -11.7 -38.4 -11.85 -38.5 -12.05 -39.0 -13.0 -40.5 -16.85 -40.55 -16.95 -40.6 -17.05 -40.65 -17.15 -40.7 -17.2 -40.75 -17.25 -40.8 -17.35 -40.85 -17.4 -40.9 -17.45 -41.0 -17.5 -41.05 -17.5 -41.1 -17.55 -41.2 -17.55 -41.3 -17.55 -41.35 -17.55 -41.45 -17.55 -41.55 -17.55 -41.65 -17.55 -41.75 -17.5 -41.85 -17.45 -41.9 -17.4 -41.95 -17.35 -42.05 -17.3 -42.1 -17.25 -42.15 -17.15 -42.15 -17.1 -42.2 -17.05 -42.25 -16.95 -42.25 -16.85 -42.25 -16.8 -42.25 -16.7 -42.25 -16.6 -42.25 -16.5 -42.25 -16.45 -42.25 -16.4 -42.25 -16.35 -42.25 -16.3 -42.2 -16.25 -42.2 -16.2 -42.2 -16.2 -42.2 -16.15 -42.2 -16.1 -42.15 -16.05 -42.15 -16.0 -42.15 -15.95 -42.15 -15.9 -42.1 -15.85 -42.1 -15.8 -42.1 -15.8 -40.15 -11.35 -39.95 -10.95 -39.6 -10.3 -37.95 -8.2 -37.95 -8.15 -37.9 -8.15 -37.85 -8.1 -37.85 -8.05 -37.8 -8.05 -37.75 -8.0 -37.7 -8.0 -37.65 -7.95 -37.65 -8.05 -37.6 -8.15 -37.55 -8.25 -37.5 -8.35 -37.4 -8.45 -37.35 -8.5 -37.3 -8.6 -37.2 -8.65 -37.1 -8.7 -37.0 -8.75 -36.9 -8.85 -36.8 -8.85 -36.7 -8.9 -36.6 -8.9 -36.5 -8.95 -36.4 -8.95 L-36.4 -8.95" fill="#000000" fill-rule="evenodd" stroke="none"/>
    <path d="M-26.65 -4.45 Q-26.65 -4.55 -26.65 -4.65 -26.65 -4.75 -26.6 -4.8 -26.6 -4.9 -26.55 -5.0 -26.55 -5.05 -26.5 -5.15 -26.45 -5.2 -26.35 -5.3 -26.3 -5.35 -26.25 -5.4 -26.2 -5.45 -26.1 -5.55 -26.05 -5.6 -25.95 -5.6 -27.4 -7.1 -28.0 -7.65 -28.4 -7.95 -28.8 -8.25 -29.15 -8.55 -29.6 -8.8 -30.0 -9.05 -30.4 -9.25 -30.85 -9.5 -31.25 -9.65 -31.7 -9.85 -32.15 -10.0 -32.6 -10.1 -33.05 -10.25 -33.5 -10.35 -33.95 -10.45 -34.4 -10.5 -34.9 -10.55 -35.7 -10.5 -35.7 -10.5 -35.75 -10.45 -35.8 -10.4 -35.85 -10.35 -35.9 -10.3 -36.0 -10.25 -36.05 -10.25 -36.1 -10.15 -36.15 -10.1 -36.2 -10.05 -36.25 -10.0 -36.25 -9.95 -36.3 -9.9 -36.35 -9.85 -36.35 -9.8 -36.35 -9.75 -36.35 -9.7 -36.35 -9.6 -36.35 -9.55 -36.35 -9.45 -36.3 -9.4 -36.3 -9.35 -36.25 -9.3 -36.2 -9.25 -36.15 -9.25 -36.1 -9.2 -36.05 -9.15 -35.95 -9.15 -35.9 -9.15 -35.8 -9.1 -35.7 -9.1 -35.65 -9.1 -35.55 -9.15 -35.5 -9.15 -35.4 -9.15 -35.35 -9.15 -35.3 -9.15 -35.25 -9.15 -35.15 -9.15 -35.1 -9.15 -35.05 -9.15 -35.0 -9.15 -34.9 -9.15 -34.85 -9.15 -34.8 -9.15 -34.75 -9.15 -34.65 -9.1 -34.6 -9.1 -34.55 -9.1 -33.95 -9.0 -33.4 -8.9 -32.85 -8.75 -32.35 -8.6 -31.8 -8.4 -31.3 -8.15 -30.85 -7.95 -30.35 -7.65 -29.9 -7.35 -29.45 -7.05 -29.0 -6.75 -28.6 -6.35 -28.15 -6.0 -27.75 -5.6 -27.4 -5.2 -27.0 -4.75 -27.0 -4.7 -26.95 -4.7 -26.95 -4.65 -26.9 -4.65 -26.9 -4.6 -26.85 -4.6 -26.85 -4.55 -26.8 -4.55 -26.8 -4.5 -26.75 -4.5 -26.75 -4.45 -26.7 -4.45 -26.7 -4.45 -26.65 -4.4 -26.65 -4.4 -26.6 -4.4 -26.65 -4.45 -26.65 -4.45 L-26.65 -4.45" fill="#000000" fill-rule="evenodd" stroke="none"/>
    <path d="M23.75 -9.05 Q23.65 -9.1 23.55 -9.15 23.35 -9.2 23.3 -9.2 23.25 -9.2 23.2 -9.25 23.2 -9.25 23.15 -9.25 23.1 -9.3 23.05 -9.3 23.05 -9.3 23.0 -9.35 22.95 -9.35 22.95 -9.4 22.9 -9.4 22.85 -9.45 22.85 -9.45 22.8 -9.5 22.75 -9.5 22.75 -9.55 22.7 -9.65 22.55 -9.8 22.5 -9.8 22.45 -9.8 22.45 -9.75 22.4 -9.75 22.35 -9.75 22.3 -9.75 22.25 -9.75 22.25 -9.75 22.2 -9.75 22.15 -9.8 22.1 -9.8 22.1 -9.8 22.05 -9.8 22.0 -9.8 22.0 -9.85 21.95 -9.85 21.85 -9.95 21.7 -10.0 21.6 -10.05 21.5 -10.1 21.4 -10.1 21.25 -10.1 21.15 -10.15 21.05 -10.1 20.95 -10.1 20.85 -10.05 20.75 -10.05 20.65 -10.0 20.55 -9.95 20.45 -9.85 20.35 -9.8 20.3 -9.7 19.85 -9.3 18.2 -7.4 18.1 -7.25 17.9 -7.05 17.9 -7.05 17.65 -6.75 17.5 -6.55 17.4 -6.4 17.25 -6.25 17.1 -6.1 16.95 -5.95 16.8 -5.8 16.6 -5.65 16.45 -5.55 16.25 -5.45 16.05 -5.4 15.85 -5.3 15.6 -5.25 15.55 -5.25 15.55 -5.25 15.5 -5.2 15.45 -5.2 15.45 -5.15 15.4 -5.1 15.4 -5.05 15.35 -5.0 15.3 -4.95 15.3 -4.9 15.25 -4.85 15.25 -4.8 15.25 -4.7 15.25 -4.7 15.25 -4.6 15.25 -4.6 15.25 -4.55 15.25 -4.5 15.3 -4.45 15.3 -4.4 15.35 -4.35 15.4 -4.3 15.4 -4.25 15.45 -4.25 15.5 -4.2 15.55 -4.15 15.6 -4.1 15.65 -4.1 15.7 -4.05 15.7 -4.05 15.75 -4.05 15.8 -4.05 16.0 -4.1 16.0 -4.1 16.15 -4.1 16.2 -4.1 16.35 -4.15 16.45 -4.15 16.55 -4.2 16.65 -4.2 16.75 -4.25 16.85 -4.3 16.95 -4.3 17.05 -4.35 17.15 -4.4 17.25 -4.45 17.3 -4.5 17.4 -4.55 17.45 -4.6 19.55 -6.95 20.5 -8.1 20.95 -8.5 21.0 -8.55 21.0 -8.55 21.05 -8.6 21.1 -8.6 21.15 -8.6 21.2 -8.65 21.25 -8.65 21.3 -8.65 21.35 -8.65 21.4 -8.7 21.45 -8.7 21.5 -8.7 21.5 -8.7 21.55 -8.65 21.6 -8.65 21.6 -8.65 21.7 -8.55 21.8 -8.5 21.9 -8.45 21.95 -8.4 22.05 -8.4 22.15 -8.35 22.25 -8.35 22.35 -8.35 22.45 -8.35 22.55 -8.35 22.65 -8.35 22.75 -8.4 22.8 -8.4 22.95 -8.45 23.0 -8.45 23.1 -8.5 23.15 -8.5 23.2 -8.55 23.3 -8.55 23.35 -8.55 23.4 -8.6 23.45 -8.6 23.5 -8.65 23.55 -8.65 23.65 -8.65 23.7 -8.7 23.75 -8.7 23.8 -8.75 23.85 -8.75 23.9 -8.8 23.95 -8.8 24.0 -8.85 23.95 -8.85 23.95 -8.9 23.9 -8.9 23.85 -8.95 23.85 -9.0 23.8 -9.0 23.75 -9.05 23.75 -9.05 L23.75 -9.05" fill="#000000" fill-rule="evenodd" stroke="none"/>
    <path d="M-11.3 13.85 Q-11.55 13.3 -11.85 12.45 -11.6 12.5 -9.15 12.75 -7.5 12.9 -6.45 13.05 -6.15 13.1 -5.75 13.1 -5.45 13.15 -5.1 13.15 -4.8 13.15 -4.4 13.15 -4.3 13.15 -3.7 13.1 -3.3 13.1 -3.05 13.1 -2.65 13.1 -2.35 13.1 -2.0 13.15 -1.7 13.15 -1.35 13.2 -1.0 13.25 -1.05 13.5 -1.1 13.65 -1.15 13.85 -1.25 13.95 -1.3 14.1 -1.45 14.2 -1.55 14.3 -1.65 14.35 -1.75 14.4 -1.9 14.45 -2.0 14.5 -2.15 14.5 -2.3 14.5 -2.45 14.5 -2.6 14.5 -2.75 14.5 -3.35 14.45 -5.5 14.4 -7.2 14.35 -8.25 14.3 -8.45 14.3 -11.3 13.85 L-11.3 13.85" fill="#000000" fill-rule="evenodd" stroke="none"/>
    <path d="M22.55 5.9 Q22.5 5.75 22.4 5.65 22.35 5.55 22.25 5.5 22.2 5.45 22.1 5.4 22.0 5.4 21.9 5.35 21.85 5.35 21.75 5.35 21.65 5.4 21.55 5.4 21.45 5.45 21.35 5.45 21.25 5.5 21.1 5.55 20.8 5.65 20.5 5.8 20.2 5.9 19.95 6.05 19.65 6.2 19.4 6.35 19.15 6.5 18.85 6.7 18.6 6.85 18.35 7.05 18.1 7.25 17.9 7.45 17.65 7.65 17.4 7.85 17.15 8.05 16.95 8.3 16.85 8.4 16.7 8.5 16.6 8.6 16.5 8.7 16.4 8.8 16.25 8.9 16.15 9.0 16.05 9.1 15.9 9.2 15.8 9.3 15.7 9.4 15.55 9.5 15.45 9.6 15.35 9.7 15.2 9.75 15.1 9.85 15.15 9.9 15.15 9.95 15.2 10.0 15.2 10.05 15.25 10.1 15.25 10.15 15.3 10.2 15.3 10.25 15.3 10.3 15.35 10.35 15.35 10.4 15.35 10.45 15.35 10.5 15.35 10.55 15.4 10.6 15.4 10.65 15.4 10.7 15.4 10.75 15.4 10.8 15.4 10.85 15.35 10.9 15.35 10.95 15.35 11.0 15.35 11.05 15.3 11.1 15.3 11.15 15.3 11.2 15.25 11.2 15.25 11.25 15.2 11.3 15.2 11.35 15.15 11.4 15.35 11.3 15.55 11.2 15.7 11.15 15.9 11.0 16.1 10.9 16.25 10.8 16.4 10.65 16.6 10.55 16.75 10.4 16.9 10.25 17.05 10.15 17.25 10.0 17.35 9.85 17.55 9.7 17.65 9.55 17.85 9.4 18.1 9.15 18.35 8.9 18.6 8.65 18.85 8.45 19.1 8.2 19.35 8.0 19.6 7.8 19.9 7.65 20.2 7.45 20.45 7.3 20.75 7.15 21.1 7.0 21.4 6.9 21.7 6.8 22.05 6.7 22.4 6.65 22.4 6.65 23.05 6.3 22.55 5.9 22.55 5.9 L22.55 5.9" fill="#000000" fill-rule="evenodd" stroke="none"/>
    <path d="M30.35 -17.5 Q30.3 -17.55 30.3 -17.6 30.25 -17.65 30.2 -17.7 30.2 -17.75 30.15 -17.8 30.1 -17.85 30.05 -17.9 30.05 -17.95 30.0 -18.0 29.95 -18.05 29.9 -18.1 29.85 -18.1 29.8 -18.15 29.75 -18.15 29.7 -18.2 29.65 -18.2 29.65 -18.2 29.6 -18.2 29.55 -18.15 29.5 -18.15 29.45 -18.1 29.4 -18.05 29.35 -18.0 29.3 -17.95 29.25 -17.9 29.2 -17.85 29.2 -17.8 29.15 -17.75 29.1 -17.7 29.05 -17.65 29.05 -17.6 29.0 -17.45 28.9 -17.3 28.85 -17.15 28.8 -17.0 28.75 -16.85 28.7 -16.65 28.6 -16.4 28.55 -16.35 28.5 -16.15 28.45 -16.0 28.4 -15.85 28.35 -15.7 28.25 -15.55 28.2 -15.4 28.1 -15.25 28.0 -15.15 28.0 -15.1 27.95 -15.05 27.95 -15.05 27.95 -15.0 28.0 -14.95 28.05 -14.9 28.1 -14.85 28.15 -14.8 28.2 -14.75 28.25 -14.65 28.3 -14.6 28.3 -14.55 28.35 -14.45 28.35 -14.4 28.4 -14.35 28.4 -14.25 28.45 -14.2 28.45 -14.1 28.45 -14.05 28.45 -13.95 L28.45 -13.7 Q28.45 -13.65 28.5 -13.6 28.5 -13.6 28.5 -13.55 28.5 -13.5 28.55 -13.45 28.55 -13.4 28.55 -13.35 28.55 -13.3 28.55 -13.25 28.7 -13.45 28.8 -13.7 28.95 -13.9 29.05 -14.1 29.2 -14.35 29.3 -14.55 29.4 -14.8 29.55 -15.0 29.65 -15.25 29.75 -15.45 29.85 -15.7 29.95 -15.9 30.05 -16.15 30.1 -16.35 30.2 -16.6 30.25 -16.85 30.25 -16.9 30.3 -16.95 30.3 -16.95 30.3 -17.0 30.35 -17.05 30.35 -17.1 30.35 -17.15 30.35 -17.2 30.35 -17.25 30.35 -17.25 30.4 -17.3 30.4 -17.35 30.4 -17.4 30.35 -17.4 30.35 -17.45 30.35 -17.5 L30.35 -17.5" fill="#000000" fill-rule="evenodd" stroke="none"/>
  </g>
</svg>
