<?xml version="1.0" encoding="UTF-8" standalone="no"?>
<svg xmlns:xlink="http://www.w3.org/1999/xlink" height="45.05px" width="86.75px" xmlns="http://www.w3.org/2000/svg">
  <g transform="matrix(1.0, 0.0, 0.0, 1.0, 43.35, 22.5)">
    <path d="M-23.05 -13.15 Q-22.9 -13.55 -22.8 -14.0 -22.65 -14.4 -22.5 -14.85 -22.35 -15.25 -22.2 -15.7 -22.05 -16.15 -21.85 -16.6 -21.7 -17.05 -21.5 -17.5 -21.35 -17.95 -21.15 -18.4 -20.95 -18.85 -20.75 -19.3 -20.55 -19.8 -20.35 -20.25 -20.2 -20.65 -20.0 -21.05 -19.8 -21.45 -19.65 -21.85 -19.45 -22.2 -19.3 -22.6 -19.1 -23.0 -18.9 -23.35 -18.75 -23.75 -18.55 -24.1 -18.4 -24.45 -18.2 -24.8 -18.0 -25.15 -17.8 -25.5 -17.65 -25.85 -17.45 -26.2 -16.2 -25.8 -13.7 -25.05 -12.95 -24.95 -12.25 -24.85 -11.45 -24.75 -10.7 -24.65 -9.85 -24.6 -9.05 -24.55 -8.2 -24.45 -7.3 -24.4 -6.4 -24.4 -5.5 -24.35 -4.55 -24.35 -3.6 -24.35 -2.65 -24.35 -1.65 -24.4 -0.65 -24.45 0.4 -24.5 1.4 -24.55 2.45 -24.65 3.4 -24.75 4.35 -24.9 5.3 -25.0 6.25 -25.15 7.15 -25.3 8.0 -25.45 8.85 -25.65 9.7 -25.8 10.5 -26.0 11.3 -26.2 12.1 -26.35 12.85 -26.55 13.55 -26.75 14.25 -26.95 14.45 -26.65 14.6 -26.35 14.8 -26.0 14.95 -25.7 15.15 -25.35 15.35 -25.05 15.5 -24.7 15.7 -24.35 15.85 -24.05 16.05 -23.7 16.25 -23.35 16.4 -23.0 16.6 -22.6 16.75 -22.25 16.9 -21.9 17.1 -21.5 17.45 -20.7 17.8 -19.85 18.15 -19.05 18.45 -18.25 18.75 -17.45 19.05 -16.65 19.3 -15.85 19.55 -15.1 19.8 -14.35 20.0 -13.55 20.25 -12.85 20.4 -12.1 20.6 -11.4 20.75 -10.7 20.95 -10.0 21.05 -9.35 21.3 -9.2 21.55 -9.05 21.8 -8.9 22.05 -8.7 22.3 -8.55 22.6 -8.35 22.85 -8.15 23.15 -7.95 23.4 -7.75 23.7 -7.55 24.0 -7.3 24.25 -7.1 24.55 -6.85 24.85 -6.6 25.15 -6.3 25.45 -6.05 25.7 -5.8 25.95 -5.55 26.2 -5.3 26.45 -5.0 26.7 -4.75 26.9 -4.5 27.15 -4.25 27.35 -4.0 27.55 -3.75 27.75 -3.55 27.9 -3.3 28.1 -3.05 28.25 -2.85 28.45 -2.6 28.6 -2.4 28.75 -2.15 28.25 -1.05 27.85 -0.1 27.65 0.35 27.45 0.7 27.25 1.1 27.1 1.4 26.95 1.7 26.8 1.95 26.7 2.2 26.55 2.35 26.45 2.55 26.3 2.7 26.2 2.85 26.1 3.0 26.0 3.1 25.9 3.2 25.75 3.3 25.65 3.4 25.55 3.5 25.5 3.55 25.4 3.6 25.3 3.65 25.25 3.7 25.15 3.75 25.05 3.85 25.0 3.9 24.9 3.9 24.85 3.95 24.75 4.0 24.65 4.05 24.55 4.05 24.45 4.1 24.35 4.1 24.25 4.1 24.1 4.1 23.9 4.1 23.75 4.05 23.6 4.0 23.45 3.95 23.25 3.9 23.1 3.8 22.95 3.7 22.75 3.6 22.6 3.45 22.4 3.3 22.2 3.15 22.05 3.0 21.8 2.8 21.65 2.7 21.4 2.45 21.3 2.35 21.2 2.25 21.1 2.15 21.0 2.1 20.9 2.0 20.85 1.9 20.75 1.85 20.65 1.75 20.6 1.65 20.5 1.6 20.45 1.5 20.35 1.45 20.3 1.35 20.25 1.3 20.2 1.25 20.15 1.15 19.35 1.65 17.85 2.65 17.4 3.3 16.1 4.95 16.1 5.0 16.1 5.0 16.15 5.05 16.15 5.1 16.15 5.15 16.2 5.2 16.2 5.2 16.2 5.25 16.25 5.3 16.25 5.35 16.25 5.4 16.3 5.45 16.3 5.5 16.35 5.55 16.35 5.6 16.4 5.65 16.45 5.75 16.5 5.8 16.55 5.85 16.55 5.9 16.6 5.95 16.65 6.05 16.65 6.05 16.7 6.1 16.75 6.15 16.75 6.2 16.8 6.2 16.8 6.25 16.8 6.3 16.85 6.35 16.85 6.35 16.85 6.4 16.85 6.45 16.85 6.5 16.85 6.55 16.85 6.6 16.85 6.65 16.8 6.7 16.75 6.8 16.7 6.85 16.65 6.95 16.6 7.0 16.55 7.1 16.45 7.15 16.35 7.25 16.2 7.35 16.1 7.45 15.95 7.55 15.85 7.6 15.7 7.7 15.6 7.75 15.45 7.8 15.3 7.9 15.15 7.95 15.0 8.0 14.85 8.1 14.7 8.15 14.55 8.2 14.35 8.25 14.2 8.35 14.0 8.4 13.8 8.45 13.6 8.5 13.4 8.55 13.05 8.6 12.7 8.65 12.4 8.7 12.05 8.7 11.75 8.7 11.45 8.7 11.15 8.7 10.85 8.65 10.6 8.65 10.35 8.6 10.1 8.55 9.9 8.5 9.7 8.45 9.5 8.4 9.35 8.35 9.15 8.3 9.1 8.3 9.1 8.25 9.05 8.2 9.0 8.2 8.95 8.15 8.95 8.15 8.9 8.1 8.85 8.05 8.8 8.0 8.75 7.95 8.75 7.95 8.7 7.9 8.65 7.85 8.65 7.8 8.6 7.7 8.6 7.65 8.55 7.6 8.45 6.65 8.45 6.6 8.45 6.55 8.45 6.5 8.45 6.45 8.45 6.4 8.4 6.35 8.4 6.25 8.4 6.2 8.4 6.15 8.35 6.1 8.35 6.0 8.35 5.95 8.3 5.85 8.3 5.8 8.25 5.75 8.25 5.65 8.15 5.55 8.05 5.5 8.0 5.4 7.9 5.35 7.8 5.25 7.7 5.2 7.65 5.15 7.55 5.1 7.45 5.05 7.4 5.0 7.3 4.95 7.2 4.9 7.15 4.9 7.05 4.85 7.0 4.8 6.9 4.8 6.55 4.65 6.15 4.6 5.75 4.6 5.35 4.6 4.9 4.65 4.5 4.8 4.05 4.9 3.65 5.1 3.2 5.3 2.8 5.6 2.35 5.85 1.9 6.2 1.5 6.55 1.1 6.95 0.7 7.35 0.3 7.85 0.25 8.2 0.15 8.8 0.05 8.85 -0.05 8.95 -0.2 9.0 -0.3 9.1 -0.4 9.15 -0.55 9.25 -0.7 9.3 -0.8 9.4 -0.95 9.45 -1.1 9.5 -1.25 9.6 -1.4 9.65 -1.55 9.7 -1.7 9.8 -1.9 9.85 -2.05 9.9 -2.35 10.0 -2.6 10.1 -2.9 10.15 -3.15 10.2 -3.45 10.3 -3.7 10.3 -3.95 10.35 -4.2 10.4 -4.4 10.4 -4.65 10.4 -4.85 10.45 -5.1 10.45 -5.3 10.45 -5.5 10.45 -5.65 10.45 -5.85 10.4 -7.0 10.35 -9.2 10.2 -11.5 9.25 -13.1 8.65 -13.35 8.0 -13.9 6.65 -14.3 6.15 -15.15 5.1 -15.2 5.05 -15.25 4.95 -15.35 4.85 -15.5 4.7 -15.7 4.55 -15.85 4.4 -16.1 4.2 -16.35 4.05 -16.65 3.9 -16.95 3.75 -17.25 3.6 -17.6 3.5 -18.0 3.35 -18.4 3.3 -18.85 3.25 -19.3 3.3 -19.8 3.35 -20.25 3.45 -20.65 3.6 -21.05 3.75 -21.4 3.95 -21.7 4.2 -22.0 4.4 -22.25 4.65 -22.5 4.85 -22.7 5.1 -22.85 5.3 -23.0 5.5 -23.1 5.65 -23.2 5.8 -23.25 5.9 -23.3 5.95 -23.35 5.95 -23.35 6.0 -23.4 6.0 -23.45 6.0 -23.45 6.0 -23.5 6.05 -23.55 6.05 -23.6 6.05 -23.65 6.1 -23.7 6.1 -23.75 6.1 -23.75 6.1 -23.85 6.15 -23.9 6.15 -23.95 6.15 -24.0 6.15 -24.15 6.2 -24.3 6.2 -24.4 6.2 -24.55 6.2 -24.7 6.2 -24.8 6.2 -24.95 6.15 -25.05 6.15 -25.2 6.1 -25.3 6.05 -25.45 6.0 -25.55 6.0 -25.7 5.95 -25.8 5.9 -25.9 5.85 -26.05 5.75 -26.3 5.65 -26.55 5.5 -26.8 5.4 -27.05 5.25 -27.3 5.1 -27.55 4.95 -27.75 4.85 -28.0 4.7 -28.2 4.55 -28.4 4.4 -28.6 4.3 -28.75 4.15 -28.95 4.05 -29.1 3.9 -29.25 3.8 -29.4 3.7 -30.15 2.75 -30.7 2.05 -30.8 1.95 -30.85 1.8 -30.95 1.7 -31.05 1.6 -31.1 1.5 -31.2 1.4 -31.25 1.25 -31.35 1.15 -31.4 1.05 -31.5 0.95 -31.55 0.85 -31.65 0.75 -31.7 0.65 -31.75 0.5 -31.85 0.4 -31.9 0.3 -32.15 -0.2 -32.6 -1.2 -32.5 -1.4 -32.35 -1.55 -32.25 -1.7 -32.1 -1.85 -32.0 -2.0 -31.85 -2.15 -31.75 -2.3 -31.6 -2.4 -31.5 -2.55 -31.4 -2.65 -31.3 -2.75 -31.15 -2.85 -31.05 -2.95 -30.95 -3.05 -30.85 -3.1 -30.75 -3.2 -30.6 -3.3 -30.5 -3.4 -30.35 -3.5 -30.25 -3.55 -30.15 -3.6 -30.0 -3.7 -29.95 -3.7 -29.8 -3.8 -29.65 -3.9 -29.55 -3.95 -29.4 -4.05 -29.25 -4.1 -29.1 -4.2 -28.95 -4.3 -28.75 -4.45 -28.55 -4.6 -28.4 -4.7 -28.25 -4.85 -28.1 -4.95 -28.0 -5.05 -27.9 -5.15 -27.8 -5.2 -27.75 -5.25 -27.6 -5.35 -27.5 -5.45 -27.45 -5.5 -27.4 -5.6 -27.3 -5.65 -27.2 -5.75 -27.1 -5.8 -27.0 -5.85 -26.9 -5.95 -26.8 -6.0 -26.7 -6.1 -26.55 -6.15 -26.45 -6.2 -26.3 -6.3 -26.15 -6.35 -26.0 -6.45 -25.85 -6.5 -25.7 -6.55 -25.55 -6.6 -25.35 -6.7 -25.2 -6.75 -25.0 -6.8 -24.8 -6.85 -24.6 -6.9 -24.4 -6.95 -24.0 -8.85 -23.05 -13.15 L-23.05 -13.15" fill="#c94fa6" fill-rule="evenodd" stroke="none"/>
  </g>
</svg>
