<?xml version="1.0" encoding="UTF-8" standalone="no"?>
<svg xmlns:xlink="http://www.w3.org/1999/xlink" height="40.0px" width="78.0px" xmlns="http://www.w3.org/2000/svg">
  <g transform="matrix(1.0, 0.0, 0.0, 1.0, 39.0, 20.0)">
    <path d="M30.7 -0.75 Q30.6 -1.2 30.45 -1.6 30.35 -2.0 30.2 -2.4 30.1 -2.8 29.95 -3.15 29.8 -3.5 29.65 -3.85 29.5 -4.15 29.35 -4.45 29.25 -4.75 29.05 -5.05 28.95 -5.3 28.8 -5.55 28.7 -5.75 28.5 -6.05 26.9 -9.0 25.75 -11.2 24.65 -13.35 24.55 -13.45 24.2 -14.15 23.6 -15.1 23.4 -15.4 23.2 -15.7 23.0 -16.0 22.8 -16.3 22.55 -16.65 22.35 -16.95 22.1 -17.3 21.85 -17.65 21.6 -18.05 21.35 -18.4 21.1 -18.75 20.8 -19.15 20.5 -19.5 20.25 -19.9 19.95 -20.3 19.6 -20.7 19.5 -20.65 19.35 -20.55 19.25 -20.5 19.1 -20.4 19.0 -20.3 18.85 -20.25 18.7 -20.15 18.55 -20.05 18.35 -20.0 18.2 -19.9 18.0 -19.8 17.85 -19.7 17.65 -19.65 17.45 -19.55 17.25 -19.45 17.05 -19.4 16.75 -19.25 16.4 -19.15 16.1 -19.05 15.8 -18.95 15.5 -18.9 15.15 -18.8 14.85 -18.75 14.45 -18.7 14.1 -18.6 13.7 -18.55 13.3 -18.5 12.8 -18.45 12.35 -18.45 11.8 -18.4 11.3 -18.35 10.6 -18.3 4.55 -17.85 2.2 -17.9 0.9 -17.9 -3.45 -18.25 -8.45 -18.6 -10.7 -18.85 -11.15 -18.9 -11.55 -18.95 -12.0 -19.0 -12.45 -19.1 -12.95 -19.15 -13.45 -19.25 -13.95 -19.3 -14.5 -19.4 -15.05 -19.5 -15.6 -19.6 -16.15 -19.7 -16.75 -19.85 -17.35 -19.95 -18.0 -20.1 -18.65 -20.2 -19.25 -20.35 -20.55 -19.2 -22.35 -17.45 -22.9 -16.95 -23.4 -16.4 -23.95 -15.85 -24.5 -15.3 -25.05 -14.7 -25.65 -14.1 -26.2 -13.5 -26.8 -12.9 -27.4 -12.25 -28.0 -11.55 -28.6 -10.9 -29.2 -10.2 -29.85 -9.45 -30.45 -8.75 -31.1 -7.95 -31.75 -7.2 -32.0 -6.9 -32.25 -6.55 -32.55 -6.2 -32.8 -5.9 -33.1 -5.5 -33.35 -5.15 -33.65 -4.8 -33.95 -4.4 -34.3 -4.0 -34.6 -3.6 -34.9 -3.15 -35.2 -2.75 -35.55 -2.3 -35.85 -1.85 -36.2 -1.4 -36.55 -0.95 -36.45 -0.9 -36.4 -0.8 -36.3 -0.75 -36.2 -0.7 -36.1 -0.6 -36.0 -0.55 -35.9 -0.45 -35.75 -0.35 -35.65 -0.3 -35.5 -0.2 -35.4 -0.15 -35.25 -0.05 -35.1 0.05 -35.0 0.1 -34.85 0.2 -34.7 0.3 -33.55 0.9 -30.35 1.7 -24.15 3.3 -22.8 3.55 -22.65 3.6 -22.55 3.6 -22.4 3.65 -22.3 3.65 -22.15 3.65 -22.05 3.7 -21.95 3.7 -21.8 3.75 -21.7 3.75 -21.6 3.75 -21.5 3.8 -21.4 3.8 -21.35 3.8 -21.25 3.85 -21.15 3.85 -21.05 3.85 -19.85 1.45 -17.35 -3.45 -17.2 -3.75 -16.8 -4.4 -16.8 -4.4 -16.85 -4.4 -16.85 -4.35 -16.9 -4.35 -16.9 -4.3 -16.95 -4.3 -17.0 -4.3 -17.0 -4.25 -17.05 -4.25 -17.05 -4.2 -17.1 -4.2 -17.15 -4.2 -17.15 -4.2 -17.2 -4.15 -17.25 -4.15 -17.25 -4.15 -17.3 -4.15 -17.35 -4.1 -17.4 -4.1 -17.4 -4.1 -17.45 -4.05 -17.5 -4.05 -17.55 -4.05 -17.55 -4.05 -17.6 -4.05 -17.65 -4.05 -17.7 -4.05 -17.75 -4.05 -17.8 -4.05 -17.8 -4.05 -17.85 -4.05 -17.9 -4.05 -17.95 -4.05 -18.0 -4.05 -18.05 -4.05 -18.1 -4.05 -18.1 -4.05 -18.15 -4.05 -18.2 -4.05 -18.25 -4.05 -18.3 -4.05 -18.35 -4.05 -18.35 -4.05 -18.4 -4.1 -18.45 -4.1 -18.5 -4.1 -18.55 -4.1 -18.6 -4.15 -18.65 -4.15 -18.7 -4.2 -18.75 -4.2 -18.8 -4.25 -18.85 -4.25 -18.9 -4.3 -18.9 -4.3 -18.95 -4.35 -19.0 -4.35 -19.05 -4.4 -19.1 -4.4 -19.15 -4.45 -19.15 -4.5 -19.2 -4.55 -19.25 -4.55 -19.25 -4.6 -19.3 -4.6 -19.3 -4.65 -19.35 -4.65 -19.35 -4.7 -19.4 -4.75 -19.4 -4.75 -19.45 -4.8 -19.45 -4.8 -19.45 -4.85 -19.5 -4.9 -19.5 -4.9 -19.5 -4.95 -19.55 -5.0 -19.55 -5.05 -19.55 -5.05 -19.6 -5.1 -19.6 -5.15 -19.65 -5.15 -19.65 -5.2 -19.65 -5.25 -19.7 -5.25 -19.7 -5.3 -19.7 -5.3 -19.7 -5.35 -19.7 -5.4 -19.75 -5.45 -19.75 -5.45 -19.75 -5.5 -19.75 -5.55 -19.75 -5.55 -19.75 -5.6 -19.75 -5.65 -19.75 -5.7 -19.75 -5.75 -19.8 -5.8 -19.8 -5.8 -19.8 -5.85 -19.8 -5.9 -19.8 -5.95 -19.8 -6.0 -19.9 -5.95 -19.95 -5.9 -20.05 -5.9 -20.15 -5.85 -20.25 -5.8 -20.35 -5.8 -20.45 -5.75 -20.55 -5.75 -20.65 -5.7 -20.75 -5.7 -20.85 -5.7 -20.95 -5.65 -21.05 -5.65 -21.15 -5.65 -21.25 -5.65 -21.35 -5.65 -21.5 -5.65 -21.65 -5.65 -21.85 -5.65 -22.0 -5.65 -22.15 -5.65 -22.3 -5.7 -22.5 -5.75 -22.65 -5.75 -22.8 -5.8 -22.95 -5.9 -23.1 -5.95 -23.25 -6.05 -23.4 -6.1 -23.5 -6.25 -23.65 -6.35 -23.75 -6.45 -23.9 -6.65 -24.0 -6.85 -24.1 -7.05 -24.2 -7.25 -24.25 -7.45 -24.3 -7.65 -24.35 -7.9 -24.35 -8.1 -24.35 -8.3 -24.3 -8.55 -24.25 -8.75 -24.2 -8.95 -24.15 -9.2 -24.0 -9.35 -23.9 -9.6 -23.75 -9.75 -23.6 -9.95 -23.45 -10.1 -23.3 -10.25 -23.1 -10.4 -22.95 -10.5 -22.75 -10.6 -22.55 -10.7 -22.35 -10.75 -22.1 -10.8 -21.9 -10.85 -21.7 -10.85 -21.45 -10.85 -21.25 -10.85 -21.0 -10.8 -20.8 -10.75 -20.6 -10.65 -20.5 -10.6 -20.45 -10.6 -20.35 -10.55 -20.25 -10.5 -20.15 -10.45 -20.1 -10.4 -20.0 -10.35 -19.9 -10.3 -19.85 -10.25 -19.75 -10.2 -19.65 -10.15 -19.6 -10.1 -19.5 -10.05 -19.45 -10.0 -19.4 -9.95 -19.35 -9.85 -19.3 -9.8 -19.25 -9.75 -19.2 -9.7 -19.15 -9.6 -19.1 -9.55 -19.05 -9.5 -19.0 -9.4 -19.0 -9.35 -18.95 -9.3 -18.95 -9.2 -18.9 -9.15 -18.9 -9.05 -18.85 -9.0 -18.85 -8.9 -18.85 -8.85 -18.85 -8.75 -18.8 -8.65 -18.75 -8.2 -18.75 -8.15 -18.75 -8.1 -18.75 -8.05 -18.7 -8.0 -18.7 -7.95 -18.7 -7.9 -18.7 -7.85 -18.7 -7.8 -18.65 -7.75 -18.65 -7.75 -18.65 -7.7 -18.65 -7.65 -18.65 -7.6 -18.65 -7.55 -18.65 -7.5 -18.65 -7.45 -18.7 -7.4 -18.7 -7.35 -18.65 -7.35 -18.65 -7.35 -18.6 -7.35 -18.55 -7.35 -18.5 -7.35 -18.5 -7.35 -18.45 -7.4 -18.45 -7.4 -18.4 -7.4 -18.4 -7.4 -18.35 -7.4 -18.3 -7.4 -18.3 -7.4 -18.25 -7.4 -18.2 -7.4 -18.2 -7.4 -18.15 -7.4 -18.1 -7.4 -18.1 -7.4 -18.05 -7.4 -18.0 -7.4 -17.95 -7.4 -17.9 -7.4 -17.85 -7.4 -17.85 -7.4 -17.8 -7.4 -17.75 -7.4 -17.75 -7.35 -17.7 -7.35 -17.65 -7.35 -17.6 -7.35 -17.6 -7.35 -17.55 -7.3 -17.5 -7.3 -17.5 -7.3 -17.45 -7.3 -17.5 -7.3 -17.5 -7.3 -17.55 -7.3 -17.55 -7.35 -17.5 -7.35 -17.25 -7.2 -17.25 -7.2 -17.2 -7.2 L-17.25 -7.2 Q-17.2 -7.2 -17.2 -7.15 -17.15 -7.15 -17.15 -7.15 -17.1 -7.15 -17.1 -7.1 -17.05 -7.1 -17.05 -7.1 -17.0 -7.05 -17.0 -7.05 -16.95 -7.0 -16.95 -7.0 -16.9 -7.0 -16.9 -6.95 -16.85 -6.95 -16.85 -6.9 -16.8 -6.9 -16.8 -6.85 -16.75 -6.85 -16.75 -6.8 -16.75 -6.8 -16.7 -6.7 -16.7 -6.7 -16.65 -6.65 -16.6 -6.65 -16.6 -6.6 -16.55 -6.55 -16.55 -6.55 -16.55 -6.5 -16.5 -6.45 -16.5 -6.45 -16.45 -6.4 -16.45 -6.35 -16.45 -6.3 -16.4 -6.3 -16.4 -6.25 -16.4 -6.2 -16.4 -6.15 -16.35 -6.15 -16.35 -6.1 -16.35 -6.05 -16.35 -6.0 -16.3 -6.0 -16.3 -5.95 -16.3 -5.9 -16.3 -5.9 -16.25 -5.85 -16.25 -5.8 -16.25 -5.75 -16.25 -5.75 -16.25 -5.7 -16.25 -5.65 -16.25 -5.65 -16.25 -5.6 -16.25 -5.55 -16.25 -5.5 -16.25 -5.5 -16.25 -5.45 -16.25 -5.4 -16.25 -5.4 -15.15 -7.35 -12.9 -11.3 -12.85 -11.1 -12.75 -10.6 -12.65 -10.05 -12.6 -9.75 -12.6 -9.6 -12.55 -9.5 -12.55 -9.35 -12.5 -9.2 -12.45 -9.0 -12.45 -8.85 -12.4 -8.65 -12.35 -8.45 -12.35 -8.25 -12.3 -8.0 -12.25 -7.75 -12.25 -7.55 -12.2 -7.3 -12.15 -7.0 -12.1 -6.75 -12.1 -6.5 -12.05 -6.35 -12.05 -6.0 -12.0 -6.05 -11.95 -6.05 -11.9 -6.1 -11.85 -6.1 -11.8 -6.15 -11.75 -6.15 -11.7 -6.15 -11.65 -6.2 -11.6 -6.2 -11.55 -6.2 -11.5 -6.25 -11.45 -6.25 -11.4 -6.25 -11.35 -6.25 -11.3 -6.25 -11.25 -6.25 -11.15 -6.25 -11.05 -6.25 -10.95 -6.25 -10.85 -6.2 -10.8 -6.2 -10.7 -6.15 -10.6 -6.1 -10.55 -6.05 -10.45 -6.05 -10.4 -6.0 -10.3 -5.95 -10.25 -5.85 -10.2 -5.8 -10.15 -5.75 -10.05 -5.7 -10.0 -5.6 -9.95 -5.55 -9.95 -5.55 -9.9 -5.5 -9.9 -5.5 -9.85 -5.45 -9.85 -5.4 -9.8 -5.35 -9.8 -5.35 -9.75 -5.3 -9.75 -5.25 -9.7 -5.15 -9.6 -4.9 -9.6 -4.85 -9.55 -4.85 -9.55 -4.8 -9.55 -4.75 -9.55 -4.7 -9.55 -4.7 -9.55 -4.65 -9.55 -4.6 -9.55 -4.55 -9.55 -4.55 -9.55 -4.5 -9.55 -4.45 -9.55 -4.45 -9.55 -4.4 -9.55 -4.35 -9.55 -4.3 -9.55 -4.25 -9.55 -4.25 -9.55 -4.2 -9.55 -4.15 -9.6 -4.15 -9.6 -4.1 -9.6 -4.05 -9.6 -4.05 -9.6 -4.0 -9.65 -3.95 -9.65 -3.95 -9.65 -3.9 -9.7 -3.85 -9.7 -3.85 -9.7 -3.8 -9.75 -3.75 -9.75 -3.7 -9.8 -3.7 -9.8 -3.65 -9.8 -3.65 -9.85 -3.6 -9.85 -3.6 -9.9 -3.55 -9.9 -3.55 -9.9 -3.5 -9.95 -3.5 -9.95 -3.45 -10.0 -3.45 -10.05 -3.4 -10.05 -3.4 -10.1 -3.35 -10.1 -3.35 -10.15 -3.35 -10.15 -3.3 -10.2 -3.3 -10.2 -3.25 -10.25 -3.25 -10.3 -3.2 -10.3 -3.2 -10.35 -3.2 -10.4 -3.15 -10.4 -3.15 -10.45 -3.15 -10.5 -3.15 -10.5 -3.1 -10.55 -3.1 -10.6 -3.1 -10.6 -3.1 -10.65 -3.1 -10.7 -3.05 -10.7 -3.05 -10.75 -3.05 -10.8 -3.05 -10.85 -3.05 -10.85 -3.05 -10.9 -3.0 -10.95 -3.0 -11.0 -3.0 -11.0 -3.0 -11.05 -3.0 -11.1 -3.0 -11.15 -3.0 -11.15 -3.0 -11.2 -3.0 -11.25 -3.0 -11.25 -3.0 -11.3 -3.0 -11.3 -3.0 -11.45 -3.0 -11.7 -3.05 -11.7 -3.05 -11.75 -3.05 -11.75 -3.05 -11.75 -3.05 -11.75 -2.8 -11.7 -2.05 -11.7 -1.7 -11.65 -1.35 -11.65 -0.95 -11.65 -0.6 -11.6 -0.2 -11.6 0.2 -11.6 0.65 -11.6 1.1 -11.6 1.55 -11.55 2.0 -11.55 2.5 -11.55 2.95 -11.55 3.5 -11.55 4.0 -11.6 4.5 -11.6 5.05 -11.3 5.1 -10.95 5.15 -10.6 5.15 -10.25 5.2 -9.9 5.25 -9.5 5.3 -9.1 5.35 -8.7 5.4 -8.3 5.4 -7.85 5.45 -7.4 5.5 -6.95 5.55 -6.5 5.6 -6.0 5.6 -5.55 5.65 -5.05 5.7 -4.25 5.75 -3.45 5.8 -2.75 5.85 -2.0 5.85 -1.3 5.9 -0.6 5.9 0.05 5.9 0.65 5.95 1.25 5.95 1.85 5.95 2.4 5.95 2.95 5.95 3.4 5.95 3.9 5.95 4.25 5.95 4.8 5.95 8.05 5.95 11.95 5.75 18.45 5.4 21.35 4.9 23.1 4.55 27.15 3.35 27.3 3.3 27.35 3.3 27.5 3.25 27.6 3.2 27.75 3.15 27.9 3.1 28.05 3.05 28.2 3.0 28.35 2.95 28.5 2.85 28.7 2.8 28.85 2.7 29.05 2.6 29.25 2.55 29.45 2.45 29.6 2.35 29.7 2.3 29.85 2.2 29.95 2.15 30.05 2.05 30.2 2.0 30.3 1.95 30.4 1.85 30.5 1.8 30.55 1.75 30.65 1.7 30.75 1.6 30.85 1.55 30.9 1.5 31.0 1.45 31.05 1.4 31.1 1.35 31.1 1.25 31.1 1.15 31.05 1.05 31.05 0.95 31.05 0.8 31.0 0.7 31.0 0.55 30.95 0.45 30.95 0.3 30.9 0.15 30.9 0.0 30.85 -0.15 30.8 -0.3 30.8 -0.45 30.75 -0.6 30.7 -0.75 L30.7 -0.75 M-4.25 -5.15 Q-4.3 -5.0 -4.3 -4.85 -4.35 -4.75 -4.4 -4.6 -4.45 -4.45 -4.55 -4.3 -4.6 -4.2 -4.65 -4.05 -4.75 -3.95 -4.85 -3.85 -4.95 -3.7 -5.05 -3.6 -5.15 -3.5 -5.25 -3.4 -5.35 -3.3 -5.5 -3.25 -5.6 -3.2 -5.7 -3.15 -5.8 -3.1 -5.9 -3.05 -6.0 -3.0 -6.1 -3.0 -6.2 -2.95 -6.3 -2.95 -6.4 -2.9 -6.55 -2.9 -6.65 -2.9 -6.75 -2.9 -6.85 -2.9 -6.95 -2.9 -7.05 -2.9 -7.2 -2.95 -7.3 -2.95 -7.35 -2.95 -7.45 -3.0 -7.5 -3.0 -7.6 -3.05 -7.65 -3.05 -7.75 -3.1 -7.8 -3.1 -7.9 -3.15 -7.95 -3.2 -8.05 -3.25 -8.1 -3.3 -8.2 -3.35 -8.25 -3.4 -8.3 -3.45 -8.35 -3.5 -8.4 -3.5 -8.4 -3.55 -8.4 -3.6 -8.45 -3.6 -8.45 -3.65 -8.5 -3.65 -8.5 -3.7 -8.55 -3.7 -8.55 -3.75 -8.6 -3.75 -8.6 -3.8 -8.6 -3.85 -8.65 -3.85 -8.65 -3.9 -8.65 -3.9 -8.7 -3.95 -8.7 -3.95 -8.7 -3.95 -8.7 -3.95 -8.7 -3.95 -8.7 -3.95 -8.85 -4.3 -8.95 -4.55 -8.8 -4.2 -8.8 -4.25 -8.85 -4.25 -8.85 -4.3 -8.85 -4.3 -8.85 -4.35 -8.85 -4.4 -8.9 -4.4 -8.9 -4.45 -8.9 -4.45 -8.9 -4.5 -8.9 -4.55 -8.9 -4.55 -8.95 -4.6 -8.95 -4.6 -8.95 -4.65 -8.95 -4.65 -9.0 -4.7 -9.05 -4.75 -9.1 -4.8 -9.1 -4.9 -9.15 -4.95 -9.2 -5.0 -9.2 -5.05 -9.25 -5.15 -9.25 -5.2 -9.3 -5.25 -9.3 -5.35 -9.3 -5.4 -9.35 -5.45 -9.35 -5.55 -9.35 -5.6 -9.35 -5.65 -9.35 -5.75 -9.35 -5.8 -9.35 -5.85 -9.35 -5.9 -9.35 -6.0 -9.35 -6.05 -9.35 -6.1 -9.35 -6.15 -9.35 -6.25 -9.35 -6.3 -9.35 -6.35 -9.35 -6.4 -9.35 -6.5 -9.3 -6.55 -9.3 -6.6 -9.3 -6.65 -9.3 -6.75 -9.25 -6.8 -9.25 -6.9 -9.2 -6.95 -9.2 -7.05 -9.15 -7.1 -9.1 -7.2 -9.1 -7.25 -9.05 -7.3 -9.0 -7.4 -8.95 -7.45 -8.9 -7.5 -8.85 -7.6 -8.8 -7.65 -8.75 -7.7 -8.7 -7.75 -8.6 -7.85 -8.55 -7.9 -8.45 -8.0 -8.35 -8.05 -8.25 -8.15 -8.15 -8.2 -8.05 -8.25 -7.95 -8.3 -7.85 -8.35 -7.75 -8.4 -7.65 -8.45 -7.5 -8.5 -7.4 -8.55 -7.3 -8.6 -7.2 -8.6 -7.1 -8.65 -6.9 -8.7 -6.7 -8.7 -6.55 -8.7 -6.35 -8.65 -6.15 -8.65 -6.0 -8.6 -5.8 -8.55 -5.65 -8.5 -5.45 -8.4 -5.3 -8.3 -5.15 -8.2 -5.05 -8.1 -4.9 -8.0 -4.8 -7.85 -4.65 -7.7 -4.6 -7.5 -4.5 -7.35 -4.45 -7.2 -4.4 -7.1 -4.35 -6.95 -4.3 -6.8 -4.3 -6.65 -4.25 -6.5 -4.25 -6.35 -4.2 -6.2 -4.2 -6.05 -4.2 -5.9 -4.2 -5.75 -4.2 -5.6 -4.25 -5.45 -4.25 -5.3 -4.25 -5.15 L-4.25 -5.15" fill="#7b3ca0" fill-rule="evenodd" stroke="none"/>
  </g>
</svg>
