<?xml version="1.0" encoding="UTF-8" standalone="no"?>
<svg xmlns:xlink="http://www.w3.org/1999/xlink" height="19.65px" width="65.15px" xmlns="http://www.w3.org/2000/svg">
  <g transform="matrix(1.0, 0.0, 0.0, 1.0, 32.55, 9.85)">
    <path d="M-10.9 8.4 Q-10.9 8.3 -10.85 8.25 -10.85 8.15 -10.8 8.05 -10.75 7.95 -10.7 7.85 -10.65 7.75 -10.6 7.6 -10.55 7.5 -10.5 7.35 -10.4 7.25 -10.3 7.1 -10.2 7.0 -10.1 6.85 -10.0 6.7 -9.85 6.6 -9.8 6.55 -9.7 6.5 -9.65 6.4 -9.55 6.3 -9.4 6.25 -9.25 6.15 -9.1 6.05 -8.95 5.95 -8.8 5.85 -8.6 5.8 -8.4 5.75 -8.2 5.7 -8.0 5.65 -7.75 5.65 -7.55 5.65 -7.3 5.7 -7.15 5.75 -7.0 5.8 -6.85 5.85 -6.7 5.95 -6.55 6.0 -6.45 6.1 -6.35 6.15 -6.25 6.25 -6.15 6.3 -6.05 6.4 -6.0 6.5 -5.9 6.55 -5.85 6.6 -5.8 6.7 -5.8 6.75 -5.75 6.75 -5.65 6.9 -5.55 7.05 -5.5 7.2 -5.45 7.35 -5.4 7.5 -5.35 7.65 -5.3 7.75 -5.3 7.9 -5.3 8.0 -5.25 8.15 -5.25 8.25 -5.25 8.35 -5.25 8.45 -5.25 8.55 -5.25 8.6 -5.3 8.7 -5.3 8.8 -5.3 8.85 -5.3 8.95 -5.35 9.1 -5.35 9.2 -5.35 9.35 -5.4 9.5 -5.45 9.6 -5.5 9.8 -5.55 9.9 -5.65 10.1 -5.7 10.2 -5.8 10.35 -5.95 10.5 -6.05 10.65 -6.2 10.75 -6.35 10.85 -6.55 10.95 -6.7 11.0 -6.9 11.05 -7.1 11.1 -7.3 11.1 -7.45 11.1 -7.65 11.1 -7.8 11.1 -8.0 11.05 -8.15 11.05 -8.3 11.0 -8.4 11.0 -8.55 10.95 -8.65 10.9 -8.8 10.85 -8.95 10.8 -9.1 10.75 -9.25 10.7 -9.4 10.65 -9.55 10.55 -9.65 10.5 -9.8 10.4 -9.9 10.35 -10.0 10.3 -10.1 10.2 -10.2 10.15 -10.3 10.05 -10.4 10.0 -10.45 9.9 -10.5 9.85 -10.6 9.8 -10.7 10.0 -11.0 10.45 -11.5 11.2 -11.65 11.35 -11.75 11.4 -11.85 11.45 -11.95 11.5 -12.05 11.5 -12.1 11.55 -12.2 11.55 -12.3 11.55 -12.4 11.55 -12.5 11.55 -12.55 11.55 -12.65 11.55 -12.7 11.55 -12.8 11.55 -12.85 11.55 -12.9 11.55 -12.95 11.5 -13.15 11.45 -13.3 11.4 -13.45 11.35 -13.6 11.3 -13.75 11.2 -13.85 11.1 -13.95 11.0 -14.05 10.9 -14.15 10.85 -14.25 10.75 -14.3 10.65 -14.4 10.55 -14.45 10.5 -14.45 10.4 -14.5 10.4 -14.55 10.35 -14.55 10.4 -14.55 10.4 -14.6 10.45 -14.6 10.5 -14.6 10.5 -14.6 10.55 -14.65 10.6 -14.65 10.65 -14.7 10.65 -14.7 10.7 -14.7 10.75 -14.75 10.8 -14.75 10.85 -14.8 10.9 -14.8 10.95 -14.85 11.0 -14.95 11.1 -14.95 11.15 -15.0 11.2 -15.0 11.25 -15.05 11.35 -15.1 11.4 -15.15 11.45 -15.2 11.5 -15.25 11.55 -15.3 11.6 -15.35 11.65 -15.4 11.7 -15.5 11.8 -15.55 11.8 -15.6 11.85 -15.7 11.9 -15.7 11.9 -15.75 11.9 -15.75 11.95 -15.8 11.95 -15.85 12.0 -15.9 12.0 -16.0 12.05 -16.05 12.05 -16.15 12.1 -16.25 12.1 -16.35 12.1 -16.45 12.1 -16.55 12.1 -16.65 12.1 -16.8 12.1 -16.9 12.1 -17.05 12.05 -17.15 12.0 -17.3 11.95 -17.4 11.85 -17.55 11.8 -17.65 11.7 -17.75 11.6 -17.85 11.45 -17.95 11.35 -18.05 11.2 -18.1 11.1 -18.2 10.95 -18.25 10.8 -18.3 10.65 -18.35 10.45 -18.35 10.3 -18.45 10.35 -18.5 10.35 -18.6 10.4 -18.65 10.4 -18.75 10.45 -18.8 10.45 -18.85 10.45 -18.9 10.5 -19.0 10.5 -19.05 10.5 -19.1 10.5 -19.15 10.5 -19.2 10.5 -19.25 10.5 -19.3 10.5 -19.3 10.5 -19.45 10.5 -19.6 10.45 -19.75 10.4 -19.9 10.3 -20.05 10.2 -20.2 10.1 -20.35 10.0 -20.45 9.85 -20.6 9.75 -20.7 9.6 -20.8 9.4 -20.9 9.25 -21.0 9.05 -21.05 8.85 -21.1 8.65 -21.15 8.45 -21.2 8.5 -21.25 8.5 -21.25 8.55 -21.3 8.6 -21.35 8.65 -21.4 8.7 -21.45 8.7 -21.5 8.75 -21.55 8.8 -21.65 8.85 -21.7 8.85 -21.75 8.9 -21.8 8.95 -21.9 8.95 -21.95 9.0 -22.05 9.05 -22.2 9.1 -22.4 9.15 -22.6 9.15 -22.8 9.2 -22.95 9.2 -23.15 9.15 -23.35 9.15 -23.5 9.05 -23.7 9.0 -23.85 8.95 -24.05 8.85 -24.2 8.8 -24.35 8.7 -24.5 8.55 -24.65 8.45 -24.8 8.35 -24.9 8.2 -25.05 8.05 -25.15 7.9 -25.25 7.75 -25.35 7.6 -25.4 7.45 -25.45 7.25 -25.5 7.1 -25.55 6.9 -25.6 6.7 -25.6 6.5 -25.6 6.35 -25.6 6.15 -25.6 5.95 -25.55 5.75 -25.5 5.55 -25.45 5.35 -25.3 5.15 -25.2 4.95 -25.1 4.75 -24.95 4.6 -24.8 4.45 -24.65 4.3 -24.45 4.2 -24.3 4.1 -24.1 4.0 -23.95 3.9 -23.75 3.85 -23.55 3.75 -23.35 3.75 -23.15 3.7 -23.0 3.65 -22.85 3.65 -22.85 3.65 -22.7 3.65 -22.6 3.65 -22.45 3.65 -22.3 3.65 -22.15 3.7 -22.0 3.7 -21.8 3.75 -21.65 3.8 -21.45 3.9 -21.25 4.0 -21.1 4.1 -20.9 4.2 -20.75 4.35 -20.6 4.5 -20.45 4.65 -20.3 4.85 -20.2 5.05 -20.1 5.25 -20.05 5.4 -20.0 5.6 -19.95 5.75 -19.9 5.95 -19.9 6.1 -19.9 6.25 -19.9 6.35 -19.9 6.5 -19.9 6.6 -19.9 6.7 -19.9 6.75 -19.9 6.8 -19.85 6.8 -19.8 6.8 -19.75 6.8 -19.7 6.8 -19.65 6.8 -19.6 6.8 -19.55 6.85 -19.5 6.85 -19.45 6.85 -19.4 6.85 -19.35 6.85 -19.3 6.9 -19.25 6.9 -19.2 6.9 -19.1 6.95 -19.05 6.95 -18.85 7.05 -18.7 7.15 -18.55 7.25 -18.4 7.35 -18.3 7.45 -18.15 7.6 -18.05 7.7 -17.95 7.85 -17.9 7.95 -17.8 8.05 -17.75 8.15 -17.7 8.3 -17.65 8.35 -17.6 8.45 -17.6 8.5 -17.55 8.55 -17.05 8.5 -17.45 8.55 -17.35 8.55 -17.3 8.5 -17.2 8.5 -17.1 8.5 -17.0 8.5 -16.9 8.5 -16.8 8.5 -16.7 8.5 -16.55 8.55 -16.45 8.55 -16.3 8.6 -16.2 8.6 -16.05 8.65 -15.9 8.7 -15.75 8.75 -15.6 8.85 -15.45 8.9 -15.35 9.0 -15.2 9.1 -15.1 9.2 -15.0 9.25 -14.9 9.35 -14.85 9.45 -14.75 9.55 -14.7 9.6 -14.65 9.7 -14.6 9.75 -14.55 9.8 -14.5 9.85 -14.5 9.9 -14.5 9.95 -14.5 9.8 -14.45 9.75 -14.45 9.65 -14.45 9.55 -14.4 9.5 -14.4 9.35 -14.35 9.25 -14.3 9.15 -14.25 9.05 -14.15 8.9 -14.1 8.8 -14.0 8.65 -13.9 8.55 -13.8 8.45 -13.65 8.35 -13.5 8.25 -13.35 8.15 -13.2 8.1 -13.05 8.05 -12.85 8.0 -12.7 7.95 -12.5 7.95 -12.3 7.95 -12.15 7.95 -11.95 8.0 -11.8 8.0 -11.6 8.05 -11.4 8.15 -11.25 8.2 -11.05 8.3 -10.9 8.4 L-10.9 8.4" fill="#d187fe" fill-rule="evenodd" stroke="none"/>
  </g>
</svg>
