<?xml version="1.0" encoding="UTF-8" standalone="no"?>
<svg xmlns:xlink="http://www.w3.org/1999/xlink" height="46.3px" width="80.0px" xmlns="http://www.w3.org/2000/svg">
  <g transform="matrix(1.0, 0.0, 0.0, 1.0, 40.0, 23.15)">
    <path d="M-37.95 5.65 Q-38.0 5.65 -38.05 5.6 -38.1 5.6 -38.15 5.6 -38.2 5.6 -38.25 5.55 -38.3 5.55 -38.35 5.55 -38.35 5.55 -38.4 5.55 -38.45 5.55 -38.5 5.55 -38.55 5.6 -38.6 5.6 -38.6 5.6 -38.65 5.6 -38.7 5.6 -38.75 5.6 -38.8 5.6 -38.85 5.6 -38.9 5.55 -38.95 5.55 -39.0 5.55 -39.0 5.5 -39.05 5.5 -39.1 5.45 -39.15 5.45 -39.15 5.4 -39.2 5.35 -39.2 5.35 -39.25 5.3 -39.25 5.25 -39.25 5.2 -39.3 5.15 -39.3 5.1 -39.3 5.05 -39.3 5.0 -39.3 4.95 -39.25 4.95 -39.25 4.9 -39.25 4.85 -39.2 4.8 -39.2 4.75 -39.15 4.75 -39.15 4.7 -39.1 4.65 -39.05 4.65 -39.05 4.6 -38.45 4.15 -36.65 2.65 -36.5 2.5 -36.2 2.25 -36.2 2.2 -36.25 2.2 -36.3 2.15 -36.3 2.1 -36.35 2.1 -36.4 2.1 -36.4 2.05 -36.45 2.05 -36.5 2.0 -36.5 2.0 -36.55 2.0 -36.6 1.95 -36.9 1.85 -36.65 1.95 -36.7 1.95 -36.75 1.9 -36.9 1.85 -37.0 1.8 -37.1 1.75 -37.15 1.65 -37.2 1.6 -37.25 1.55 -37.3 1.45 -37.3 1.4 -37.35 1.3 -37.3 1.25 -37.3 1.15 -37.25 1.05 -37.25 1.0 -37.15 0.9 -37.1 0.8 -37.0 0.65 -36.55 0.05 -36.1 -0.5 -35.7 -1.1 -35.25 -1.7 -34.8 -2.25 -34.3 -2.85 -33.85 -3.4 -33.4 -3.95 -32.95 -4.55 -32.45 -5.1 -32.0 -5.65 -31.5 -6.2 -31.05 -6.75 -30.55 -7.35 -30.05 -7.9 -29.55 -8.45 -28.95 -9.1 -28.35 -9.75 -27.8 -10.35 -27.2 -11.0 -26.6 -11.65 -26.0 -12.3 -25.4 -12.9 -24.75 -13.55 -24.15 -14.15 -23.55 -14.75 -22.9 -15.4 -22.3 -16.0 -21.65 -16.6 -21.05 -17.25 -20.4 -17.85 -19.75 -18.45 -19.7 -18.5 -19.65 -18.55 -19.6 -18.6 -19.55 -18.65 -19.45 -18.65 -19.4 -18.7 -19.35 -18.7 -19.3 -18.75 -19.25 -18.75 -19.15 -18.75 -19.1 -18.75 -19.05 -18.75 -18.95 -18.75 -18.9 -18.75 -18.8 -18.7 -18.75 -18.7 -18.4 -18.55 -18.0 -18.45 -17.6 -18.35 -17.2 -18.25 -16.85 -18.15 -16.45 -18.05 -16.05 -17.95 -15.7 -17.9 -15.3 -17.8 -14.9 -17.75 -14.5 -17.65 -14.1 -17.6 -13.75 -17.55 -13.35 -17.5 -12.95 -17.45 -12.55 -17.4 -7.45 -16.7 1.2 -16.35 1.75 -16.35 2.3 -16.3 2.85 -16.3 3.35 -16.3 3.9 -16.3 4.45 -16.3 5.0 -16.3 5.55 -16.3 6.1 -16.3 6.6 -16.3 7.15 -16.3 7.7 -16.35 8.25 -16.35 8.75 -16.4 9.3 -16.45 9.85 -16.45 10.3 -16.5 10.65 -16.5 11.1 -16.55 11.5 -16.6 11.9 -16.65 12.3 -16.7 12.7 -16.75 13.1 -16.85 13.55 -16.9 13.95 -16.95 14.35 -17.05 14.75 -17.15 15.15 -17.25 15.55 -17.35 15.95 -17.45 16.3 -17.55 17.3 -17.9 19.1 -18.8 19.25 -18.85 19.3 -18.9 19.45 -18.95 19.5 -19.0 19.6 -19.0 19.65 -19.0 19.7 -19.05 19.8 -19.0 19.85 -19.0 19.9 -18.95 19.95 -18.95 20.0 -18.85 20.1 -18.8 20.15 -18.7 20.2 -18.65 20.3 -18.5 25.2 -11.5 26.9 -8.3 28.85 -4.6 29.65 -2.75 30.05 -1.8 30.55 -0.3 31.35 2.0 31.45 2.15 31.5 2.35 31.65 2.7 31.8 3.2 31.8 3.2 31.85 3.3 31.85 3.35 31.9 3.4 31.9 3.45 31.9 3.5 31.9 3.55 31.85 3.6 31.85 3.65 31.85 3.75 31.85 3.8 31.8 3.85 31.85 3.9 31.85 3.95 31.85 4.0 31.85 4.05 31.9 4.1 31.9 4.15 31.95 4.2 31.95 4.2 32.0 4.3 32.05 4.35 32.05 4.35 32.3 4.8 33.65 7.3 33.7 7.4 33.75 7.5 33.8 7.6 33.8 7.7 33.85 7.8 33.85 7.85 33.85 7.9 33.8 8.0 33.8 8.05 33.75 8.1 33.7 8.15 33.65 8.2 33.6 8.25 33.5 8.3 33.4 8.35 33.25 8.35 33.3 8.45 33.6 8.85 35.25 10.75 38.05 14.2 38.1 14.25 38.1 14.25 38.15 14.3 38.2 14.35 38.2 14.35 38.25 14.4 38.3 14.45 38.3 14.45 38.35 14.5 38.35 14.55 38.4 14.6 38.4 14.7 38.45 14.75 38.45 14.8 38.45 14.9 38.45 14.95 38.45 15.0 38.4 15.05 38.35 15.1 38.35 15.15 38.3 15.2 38.25 15.25 38.15 15.3 38.1 15.3 38.05 15.35 37.95 15.35 37.85 15.35 37.7 15.4 37.5 15.4 37.4 15.4 37.15 15.45 36.9 15.5 36.7 15.55 36.45 15.6 36.2 15.65 36.0 15.75 35.8 15.85 35.55 15.95 35.35 16.05 35.15 16.15 34.95 16.3 34.75 16.45 34.6 16.6 34.4 16.75 34.2 16.9 34.05 17.1 33.05 18.2 32.8 18.45 32.65 18.65 32.5 18.8 32.35 19.0 32.2 19.15 32.0 19.35 31.85 19.5 31.7 19.7 31.5 19.85 31.35 20.0 31.15 20.15 30.95 20.3 30.75 20.45 30.6 20.55 30.4 20.7 30.2 20.85 29.95 20.95 29.9 21.0 29.85 21.0 29.75 21.05 29.7 21.1 29.65 21.1 29.6 21.15 29.5 21.2 29.45 21.2 29.4 21.25 29.3 21.25 29.25 21.3 29.2 21.35 29.1 21.35 29.05 21.4 29.0 21.4 28.9 21.45 28.8 21.5 28.7 21.5 28.6 21.55 28.55 21.55 28.45 21.6 28.35 21.6 28.25 21.65 28.15 21.65 28.05 21.65 27.95 21.65 27.85 21.65 27.75 21.65 27.65 21.65 27.55 21.65 27.45 21.65 27.35 21.65 26.55 21.55 23.75 21.3 23.25 21.25 21.9 21.1 20.7 20.95 20.0 20.9 19.7 20.9 19.45 20.9 19.15 20.9 18.9 20.95 18.6 21.0 18.35 21.0 18.1 21.05 17.85 21.15 17.55 21.2 17.3 21.3 17.05 21.4 16.8 21.5 16.55 21.6 16.35 21.75 16.1 21.85 15.85 22.0 15.65 22.15 15.45 22.25 15.25 22.4 15.05 22.5 14.85 22.6 14.65 22.7 14.45 22.8 14.25 22.9 14.05 23.0 13.8 23.1 13.6 23.15 13.4 23.25 13.15 23.3 12.95 23.4 12.7 23.45 12.5 23.5 12.2 23.55 11.95 23.65 11.65 23.7 11.35 23.75 11.1 23.8 10.8 23.8 10.5 23.85 10.25 23.85 9.95 23.85 9.65 23.85 9.4 23.85 9.1 23.8 8.8 23.75 8.55 23.75 8.25 23.7 7.95 23.6 7.05 23.4 5.2 22.6 4.95 22.5 4.7 22.4 4.45 22.3 4.25 22.2 4.0 22.1 3.75 22.0 3.5 21.95 3.25 21.85 3.05 21.75 2.8 21.7 2.55 21.6 2.3 21.55 2.05 21.5 1.8 21.45 1.55 21.4 1.3 21.35 0.95 21.3 0.6 21.25 0.25 21.2 -0.1 21.2 -0.45 21.2 -0.75 21.25 -1.1 21.25 -1.45 21.3 -1.8 21.35 -2.1 21.45 -2.45 21.55 -2.75 21.65 -3.05 21.8 -3.4 21.95 -3.7 22.1 -4.0 22.3 -4.45 22.55 -4.85 22.8 -5.3 23.0 -5.75 23.15 -6.2 23.3 -6.65 23.35 -7.1 23.45 -7.55 23.5 -8.0 23.5 -8.45 23.5 -8.9 23.5 -9.4 23.4 -9.85 23.35 -10.3 23.2 -10.8 23.1 -11.25 22.9 -11.45 22.8 -11.65 22.75 -11.9 22.65 -12.1 22.55 -12.3 22.45 -12.5 22.35 -12.7 22.25 -12.9 22.15 -13.1 22.05 -13.25 21.95 -13.45 21.8 -13.65 21.7 -13.85 21.55 -14.0 21.45 -14.2 21.3 -14.35 21.15 -14.6 20.95 -14.8 20.8 -15.05 20.6 -15.3 20.45 -15.55 20.3 -15.8 20.15 -16.05 20.0 -16.3 19.9 -16.55 19.75 -16.8 19.65 -17.05 19.55 -17.35 19.45 -17.6 19.35 -17.9 19.3 -18.2 19.25 -18.5 19.2 -18.7 19.15 -18.95 19.15 -19.15 19.1 -19.4 19.1 -19.6 19.1 -19.85 19.1 -20.05 19.1 -20.3 19.1 -20.5 19.15 -20.75 19.15 -20.95 19.2 -21.2 19.25 -21.4 19.3 -21.6 19.35 -21.85 19.4 -22.05 19.5 -22.35 19.6 -22.65 19.7 -23.0 19.75 -23.3 19.85 -23.6 19.9 -23.95 19.95 -24.25 20.0 -24.55 20.05 -24.9 20.05 -25.2 20.1 -25.5 20.1 -25.85 20.1 -26.15 20.1 -26.5 20.05 -26.8 20.0 -27.15 19.95 -28.4 19.75 -29.3 19.75 -29.5 19.75 -29.65 19.7 -29.85 19.7 -30.0 19.65 -30.2 19.6 -30.35 19.55 -30.55 19.55 -30.7 19.45 -30.9 19.4 -31.05 19.35 -31.2 19.3 -31.35 19.2 -31.55 19.15 -31.7 19.05 -31.85 19.0 -32.0 18.9 -32.2 18.8 -32.4 18.65 -32.6 18.55 -32.8 18.4 -32.95 18.25 -33.15 18.15 -33.3 18.0 -33.5 17.85 -33.65 17.7 -33.85 17.5 -34.0 17.35 -34.15 17.2 -34.3 17.05 -34.45 16.85 -34.6 16.7 -34.75 16.55 -35.05 16.2 -35.35 15.9 -35.65 15.6 -35.95 15.3 -36.25 15.0 -36.55 14.7 -36.9 14.4 -37.25 14.15 -37.6 13.9 -37.95 13.7 -38.3 13.45 -38.65 13.25 -39.05 13.05 -39.45 12.85 -39.85 12.7 -40.25 12.55 -40.55 12.45 -40.8 12.4 -41.1 12.3 -41.35 12.25 -41.65 12.2 -41.95 12.2 -42.2 12.2 -42.5 12.2 -42.75 12.2 -43.05 12.2 -43.3 12.25 -43.6 12.3 -43.85 12.35 -44.15 12.4 -44.4 12.5 -44.7 12.55 -44.75 12.6 -44.8 12.6 -44.85 12.6 -44.85 12.65 -44.9 12.65 -44.95 12.65 -45.0 12.7 -45.0 12.7 -45.05 12.7 -45.1 12.7 -45.15 12.7 -45.2 12.7 -45.25 12.7 -45.25 12.7 -45.3 12.7 -45.35 12.7 -45.4 12.7 -45.4 12.7 -45.45 12.65 -45.5 12.65 -45.5 12.65 -45.55 12.6 -45.6 12.6 -45.6 12.55 -45.65 12.5 -45.65 12.5 -45.7 12.45 -45.7 12.4 -45.7 12.35 -45.75 12.35 -45.75 12.3 -45.75 12.25 -45.75 12.2 -45.75 12.15 -45.75 12.1 -45.75 12.1 -45.7 12.05 -45.7 12.0 -45.7 11.95 -45.65 11.95 -45.65 11.9 -45.6 11.85 -45.55 11.8 -45.25 11.55 -43.9 10.45 -41.8 8.75 -38.75 6.3 -38.35 6.0 -38.2 5.85 -37.95 5.65 L-37.95 5.65 M-14.7 -3.9 Q-14.7 -3.9 -14.7 -3.9 -14.65 -3.9 -14.65 -3.9 -14.6 -3.85 -14.6 -3.85 -14.55 -3.85 -14.55 -3.85 -14.5 -3.85 -14.45 -3.8 -14.4 -3.8 -14.4 -3.8 -14.35 -3.75 -14.3 -3.75 -14.25 -3.7 -14.2 -3.7 -14.15 -3.65 -14.1 -3.6 -14.05 -3.6 -14.0 -3.55 -13.95 -3.5 -13.9 -3.45 -13.85 -3.4 -13.8 -3.35 -13.75 -3.3 -13.7 -3.25 -13.7 -3.2 -13.65 -3.15 -13.6 -3.1 -13.55 -3.0 -13.55 -2.95 -13.5 -2.9 -13.45 -2.9 -13.45 -2.95 -13.4 -2.95 -13.4 -3.0 -13.35 -3.05 -13.35 -3.05 -13.35 -3.1 -13.35 -3.15 -13.35 -3.2 -13.3 -3.25 -13.3 -3.35 -13.25 -3.4 -13.25 -3.45 -13.2 -3.5 -13.15 -3.55 -13.15 -3.65 -13.1 -3.7 -13.05 -3.75 -13.0 -3.8 -13.0 -3.85 -12.95 -3.9 -12.9 -3.95 -12.85 -4.0 -12.8 -4.05 -12.7 -4.2 -12.75 -4.1 -12.7 -4.15 -12.7 -4.2 -12.65 -4.25 -12.65 -4.25 -12.65 -4.3 -12.65 -4.35 -12.7 -4.6 -12.8 -5.45 -12.85 -6.1 -12.95 -6.55 -12.95 -6.85 -13.15 -7.95 -14.7 -5.4 -15.45 -4.0 -15.4 -4.0 -15.35 -4.0 -15.3 -4.0 -15.25 -4.0 -15.25 -4.0 -15.15 -4.0 -15.1 -4.0 -15.05 -3.95 -15.0 -3.95 -14.95 -3.95 -14.9 -3.95 -14.85 -3.95 -14.85 -3.9 -14.8 -3.9 -14.75 -3.9 -14.75 -3.9 -14.7 -3.9 -14.7 -3.9 -14.65 -3.9 -14.65 -3.9 L-14.7 -3.9 M11.95 8.5 Q11.7 8.5 11.35 8.5 10.75 8.55 10.1 8.55 9.5 8.55 8.9 8.6 8.25 8.6 7.65 8.6 7.0 8.6 6.4 8.6 5.8 8.6 5.15 8.6 4.55 8.6 3.9 8.6 3.3 8.6 2.7 8.55 2.05 8.55 1.45 8.55 0.4 8.5 -3.75 8.4 -4.0 8.4 -4.45 8.35 -5.05 8.3 -6.2 8.2 -7.45 8.1 -8.0 8.1 -8.7 8.05 -9.75 7.95 -11.25 7.85 -11.55 7.85 -11.7 7.85 -11.75 7.8 -11.85 7.8 -11.95 7.8 -12.0 7.75 -12.05 7.75 -12.1 7.7 -12.15 7.65 -12.2 7.6 -12.2 7.55 -12.25 7.5 -12.25 7.4 -12.25 7.35 -12.25 7.25 -12.25 7.15 -12.25 7.0 -12.25 6.2 -12.15 3.7 -12.15 2.9 -12.2 1.65 -12.25 -0.2 -12.3 -0.45 -12.3 -0.5 -12.3 -0.55 -12.3 -0.6 -12.3 -0.65 -12.3 -0.65 -12.35 -0.7 -12.35 -0.75 -12.4 -0.75 -12.45 -0.8 -12.5 -0.8 -12.6 -0.85 -12.65 -0.9 -12.7 -0.95 -12.75 -1.0 -12.8 -1.0 -12.85 -1.05 -12.9 -1.1 -12.95 -1.15 -13.05 -1.2 -13.1 -1.25 -13.15 -1.3 -13.2 -1.35 -13.25 -1.4 -13.3 -1.45 -13.3 -1.35 -13.35 -1.3 -13.35 -1.25 -13.35 -1.15 -13.4 -1.1 -13.45 -1.05 -13.45 -1.0 -13.5 -0.95 -13.55 -0.9 -13.55 -0.8 -13.6 -0.8 -13.65 -0.7 -13.65 -0.7 -13.7 -0.65 -13.75 -0.55 -13.8 -0.55 -13.85 -0.5 -13.85 -0.5 -13.9 -0.45 -13.9 -0.4 -13.9 -0.4 -13.9 -0.4 -13.9 -0.4 -13.9 -0.4 -13.95 -0.35 -14.05 -0.3 -14.3 -0.2 -14.2 -0.25 -14.25 -0.2 -14.35 -0.15 -14.4 -0.1 -14.5 -0.1 -14.55 -0.05 -14.65 0.0 -14.7 0.0 -14.8 0.05 -14.9 0.05 -14.95 0.05 -15.05 0.1 -15.15 0.1 -15.2 0.1 -15.25 0.1 -15.3 0.1 -15.35 0.05 -15.4 0.05 -15.45 0.05 -15.55 0.05 -15.55 0.05 -15.6 0.0 -15.65 0.0 -15.7 0.0 -15.75 0.0 -15.8 0.0 -15.85 0.0 -15.9 0.0 -15.95 0.0 -16.05 -0.05 -16.1 -0.05 -16.2 -0.1 -16.25 -0.15 -16.35 -0.2 -16.4 -0.25 -16.45 -0.3 -16.55 -0.35 -16.6 -0.4 -16.65 -0.45 -16.7 -0.5 -16.8 -0.55 -16.85 -0.65 -16.9 -0.7 -16.95 -0.75 -17.05 -0.85 -17.15 -0.65 -17.3 -0.3 -17.5 0.1 -17.55 0.15 -19.45 4.0 -20.35 6.1 -20.4 6.2 -20.4 6.25 -20.45 6.35 -20.5 6.4 -20.55 6.45 -20.6 6.5 -20.6 6.5 -20.65 6.55 -20.7 6.55 -20.75 6.6 -20.85 6.6 -20.9 6.6 -20.95 6.6 -21.05 6.6 -21.15 6.6 -21.25 6.55 -21.85 6.5 -21.95 6.5 -22.05 6.45 -22.45 6.35 -22.85 6.25 -23.3 6.2 -23.7 6.1 -24.1 6.05 -24.5 5.95 -24.95 5.85 -25.35 5.75 -25.75 5.65 -26.2 5.55 -26.6 5.45 -27.0 5.35 -27.4 5.25 -27.8 5.15 -28.25 5.05 -28.65 4.95 -29.05 4.8 -29.4 4.7 -29.75 4.6 -30.15 4.5 -30.5 4.4 -30.85 4.3 -31.2 4.15 -31.55 4.05 -31.9 3.95 -32.25 3.8 -32.6 3.7 -32.95 3.55 -33.3 3.45 -33.65 3.3 -34.0 3.15 -34.35 3.0 -34.65 2.85 -34.7 2.85 -34.75 2.8 -34.8 2.8 -34.85 2.8 -34.95 2.8 -34.95 2.8 -35.0 2.8 -35.05 2.8 -35.1 2.8 -35.15 2.8 -35.2 2.85 -35.25 2.85 -35.3 2.9 -35.35 2.9 -35.4 2.95 -35.45 3.0 -35.65 3.2 -36.0 3.45 -36.45 3.85 -36.55 3.95 -36.6 3.95 -36.6 4.0 -36.75 4.1 -36.7 4.05 -36.75 4.1 -36.75 4.1 -36.8 4.15 -36.85 4.15 -36.9 4.2 -36.9 4.2 -36.95 4.25 -36.95 4.25 -37.0 4.3 -37.05 4.35 -37.05 4.4 -37.1 4.4 -37.05 4.4 -37.05 4.45 -37.0 4.45 -37.0 4.45 -37.0 4.45 -36.95 4.5 -36.9 4.5 -36.85 4.5 -36.65 4.5 -36.45 4.5 -36.25 4.55 -36.05 4.55 -35.85 4.6 -35.65 4.65 -35.45 4.7 -35.25 4.75 -35.05 4.8 -34.9 4.85 -34.7 4.95 -34.5 5.05 -34.35 5.1 -34.15 5.2 -34.0 5.3 -33.8 5.4 -33.7 5.5 -33.55 5.55 -33.45 5.65 -33.35 5.75 -33.25 5.8 -33.15 5.9 -33.0 6.0 -32.9 6.1 -32.8 6.2 -32.7 6.3 -32.6 6.35 -32.5 6.45 -32.4 6.55 -32.35 6.65 -32.25 6.75 -32.15 6.85 -32.05 7.0 -31.9 7.1 -31.8 7.25 -31.65 7.4 -31.55 7.5 -31.4 7.65 -31.3 7.8 -31.15 7.9 -31.05 8.05 -30.9 8.15 -30.8 8.3 -30.65 8.4 -30.5 8.5 -30.4 8.65 -30.25 8.75 -30.1 8.85 -29.9 9.0 -29.7 9.15 -29.5 9.3 -29.3 9.4 -29.1 9.55 -28.9 9.65 -28.7 9.8 -28.5 9.9 -28.3 9.95 -28.05 10.05 -27.85 10.15 -27.6 10.2 -27.4 10.25 -27.15 10.3 -26.9 10.35 -26.65 10.4 -26.5 10.4 -26.35 10.45 -26.2 10.45 -26.1 10.45 -25.95 10.5 -25.8 10.5 -25.65 10.5 -25.5 10.5 -25.35 10.5 -25.25 10.45 -25.1 10.45 -24.95 10.4 -24.8 10.4 -24.65 10.35 -24.5 10.3 -24.4 10.25 -24.3 10.25 -24.2 10.25 -24.1 10.2 -23.95 10.2 -23.85 10.15 -23.75 10.15 -23.65 10.15 -23.55 10.1 -23.45 10.1 -23.35 10.05 -23.25 10.0 -23.15 10.0 -23.05 9.95 -22.95 9.9 -22.9 9.9 -22.75 9.85 -22.55 9.8 -22.35 9.75 -22.15 9.7 -21.95 9.65 -21.75 9.6 -21.55 9.55 -21.35 9.5 -21.15 9.5 -20.95 9.5 -20.75 9.5 -20.55 9.5 -20.35 9.5 -20.15 9.5 -19.95 9.55 -19.75 9.55 -19.55 9.65 -19.3 9.7 -18.85 9.75 -18.35 9.85 -18.15 9.85 -17.45 10.15 -17.25 10.25 -17.15 10.3 -17.1 10.35 -17.0 10.4 -16.95 10.45 -16.85 10.55 -16.75 10.6 -16.7 10.65 -16.6 10.7 -16.55 10.75 -16.45 10.85 -16.4 10.9 -16.3 10.95 -16.25 11.0 -16.15 11.1 -16.1 11.15 -16.0 11.2 -15.85 11.45 -15.65 11.7 -15.45 11.9 -15.25 12.1 -15.05 12.3 -14.85 12.45 -14.6 12.6 -14.35 12.7 -14.1 12.85 -13.85 12.95 -13.6 13.05 -13.35 13.1 -13.05 13.2 -12.75 13.2 -12.5 13.25 -12.2 13.3 -12.05 13.3 -11.9 13.3 -11.8 13.3 -11.65 13.3 -11.5 13.3 -11.35 13.3 -11.25 13.3 -11.1 13.3 -10.95 13.3 -10.8 13.25 -10.7 13.25 -10.55 13.25 -10.4 13.25 -10.25 13.2 -10.15 13.2 -10.0 13.2 -9.7 13.15 -9.45 13.1 -9.15 13.05 -8.9 13.0 -8.6 12.95 -8.35 12.9 -8.05 12.8 -7.8 12.75 -7.55 12.65 -7.25 12.6 -7.0 12.5 -6.7 12.45 -6.45 12.35 -6.2 12.25 -5.95 12.15 -5.65 12.05 -5.6 12.05 -4.95 11.9 -4.85 11.9 -4.75 11.85 -4.7 11.85 -4.6 11.8 -4.55 11.8 -4.4 11.75 -4.3 11.75 -4.25 11.7 -4.15 11.7 -4.05 11.7 -3.95 11.65 -3.9 11.65 -3.8 11.65 -3.7 11.6 -3.6 11.6 -3.5 11.6 -2.8 11.75 -2.25 11.8 -1.9 11.85 -1.6 11.9 -1.3 11.95 -1.0 12.0 -0.65 12.1 -0.4 12.2 -0.1 12.3 0.2 12.45 0.5 12.55 0.75 12.7 1.05 12.85 1.3 13.0 1.55 13.2 1.85 13.4 2.1 13.55 2.35 13.8 2.4 13.85 2.4 13.85 2.45 13.9 2.5 13.9 2.55 13.95 2.55 13.95 2.6 14.0 2.65 14.0 2.7 14.05 2.75 14.05 2.8 14.05 2.85 14.1 2.85 14.1 2.9 14.1 2.95 14.15 3.0 14.15 3.3 14.2 3.6 14.25 3.9 14.35 4.15 14.4 4.45 14.45 4.75 14.45 5.05 14.5 5.3 14.55 5.6 14.6 5.9 14.6 6.2 14.65 6.45 14.65 6.75 14.65 7.05 14.65 7.35 14.65 7.65 14.6 7.9 14.6 8.15 14.55 8.4 14.55 8.65 14.5 8.9 14.45 9.15 14.4 9.4 14.35 9.65 14.3 9.85 14.25 10.1 14.15 10.35 14.05 10.55 13.95 10.8 13.85 11.05 13.75 11.25 13.65 11.5 13.5 11.6 13.45 11.6 13.45 11.6 13.45 11.65 13.4 11.7 13.4 11.75 13.35 11.8 13.35 11.8 13.3 11.85 13.25 11.9 13.25 11.9 13.2 11.95 13.15 12.0 13.15 12.0 13.1 12.05 13.05 12.1 13.0 12.15 13.0 12.2 13.0 12.25 12.95 12.3 12.9 12.8 12.4 12.4 12.85 12.95 12.3 14.0 11.3 14.0 11.3 14.5 11.0 14.7 10.9 14.9 10.8 15.1 10.7 15.3 10.65 15.5 10.55 15.7 10.5 15.9 10.45 16.1 10.4 16.3 10.35 16.5 10.3 16.75 10.3 16.95 10.3 17.15 10.25 17.35 10.3 17.6 10.3 17.8 10.3 18.0 10.3 18.15 10.35 18.35 10.4 18.5 10.45 18.7 10.5 18.85 10.55 19.05 10.6 19.2 10.65 19.35 10.7 19.55 10.75 19.7 10.85 19.85 10.9 20.0 11.0 20.15 11.1 20.35 11.15 20.5 11.25 20.55 11.25 20.55 11.3 20.6 11.3 20.65 11.35 20.65 11.35 20.7 11.35 20.75 11.4 20.75 11.4 20.8 11.4 20.85 11.4 20.85 11.45 20.9 11.45 20.95 11.45 21.0 11.45 21.05 11.45 21.05 11.45 22.9 11.65 24.45 11.85 24.7 11.85 25.05 11.9 25.6 12.0 25.7 12.0 25.85 12.0 26.0 12.0 26.1 12.0 26.25 12.0 26.4 12.0 26.5 11.95 26.65 11.9 26.75 11.85 26.9 11.85 27.0 11.75 27.15 11.7 27.25 11.65 27.35 11.6 27.5 11.5 27.6 11.45 27.7 11.35 27.75 11.3 27.8 11.3 27.85 11.25 27.85 11.2 27.9 11.15 27.95 11.15 27.95 11.1 28.0 11.05 28.0 11.0 28.05 10.95 28.05 10.9 28.1 10.85 28.1 10.8 28.1 10.75 28.1 10.7 28.15 10.65 29.05 9.4 29.55 8.85 29.7 8.7 29.85 8.55 30.0 8.4 30.15 8.3 30.3 8.15 30.5 8.05 30.65 7.9 30.8 7.8 31.0 7.7 31.2 7.6 31.35 7.5 31.55 7.45 31.75 7.4 31.95 7.35 32.2 7.3 32.4 7.25 31.9 6.3 30.9 4.45 30.6 4.65 30.25 4.8 29.95 4.95 29.65 5.1 29.3 5.25 29.0 5.4 28.65 5.55 28.35 5.7 28.0 5.8 27.7 5.95 27.35 6.05 27.0 6.15 26.7 6.25 26.35 6.4 26.0 6.5 25.7 6.6 25.6 6.55 25.55 6.65 25.5 6.65 25.45 6.65 25.45 6.65 25.4 6.65 24.7 6.85 24.05 7.0 23.45 7.15 22.85 7.25 22.3 7.35 21.75 7.45 21.3 7.55 20.75 7.6 20.3 7.7 19.75 7.75 19.4 7.8 18.7 7.9 18.0 7.95 17.65 8.0 17.0 8.1 16.45 8.15 15.45 8.35 13.8 8.45 12.6 8.45 11.95 8.5 L11.95 8.5 M-5.6 -1.85 Q-5.55 -1.85 -5.55 -1.85 -5.5 -1.9 -5.45 -1.9 -5.45 -1.9 -5.4 -1.95 -5.4 -1.95 -5.35 -2.0 -5.35 -2.0 -5.3 -2.0 -5.3 -2.05 -5.25 -2.05 -5.05 -2.2 -5.2 -2.1 -5.2 -2.15 -5.15 -2.15 -4.9 -2.35 -4.75 -2.55 -4.6 -2.8 -4.5 -3.05 -4.4 -3.25 -4.4 -3.5 -4.35 -3.75 -4.4 -4.0 -4.4 -4.25 -4.5 -4.5 -4.6 -4.75 -4.7 -4.95 -4.85 -5.2 -5.0 -5.35 -5.2 -5.55 -5.35 -5.7 -5.5 -5.8 -5.65 -5.9 -5.8 -6.0 -6.0 -6.05 -6.15 -6.1 -6.35 -6.1 -6.5 -6.15 -6.7 -6.15 -6.85 -6.15 -7.05 -6.1 -7.2 -6.1 -7.35 -6.05 -7.55 -6.0 -7.7 -5.9 -7.85 -5.85 -7.95 -5.8 -8.05 -5.75 -8.1 -5.7 -8.2 -5.65 -8.25 -5.6 -8.35 -5.55 -8.4 -5.5 -8.45 -5.45 -8.5 -5.4 -8.55 -5.35 -8.6 -5.3 -8.6 -5.25 -8.65 -5.2 -8.65 -5.2 -8.7 -5.15 -8.7 -5.15 -8.7 -5.1 -8.8 -4.95 -8.9 -4.75 -8.95 -4.6 -9.0 -4.4 -9.05 -4.25 -9.05 -4.05 -9.1 -3.85 -9.05 -3.65 -9.05 -3.45 -9.0 -3.25 -8.95 -3.1 -8.9 -2.9 -8.8 -2.75 -8.7 -2.55 -8.6 -2.4 -8.45 -2.25 -8.3 -2.1 -8.15 -2.0 -8.0 -1.85 -7.8 -1.75 -7.65 -1.65 -7.45 -1.6 -7.3 -1.55 -7.1 -1.55 -6.9 -1.5 -6.7 -1.5 -6.55 -1.5 -6.35 -1.55 -6.15 -1.6 -5.95 -1.65 -5.75 -1.75 -5.6 -1.85 L-5.6 -1.85 M-23.85 -6.6 Q-23.9 -6.45 -23.9 -6.3 -23.9 -6.2 -23.9 -6.05 -23.9 -5.9 -23.9 -5.8 -23.9 -5.7 -23.85 -5.55 -23.85 -5.45 -23.85 -5.35 -23.8 -5.3 -23.75 -5.2 -23.75 -5.15 -23.7 -5.05 -23.7 -5.05 -23.7 -5.0 -23.7 -4.95 -23.65 -4.9 -23.65 -4.85 -23.6 -4.8 -23.6 -4.8 -23.55 -4.75 -23.55 -4.7 -23.5 -4.65 -23.5 -4.6 -23.45 -4.6 -23.45 -4.55 -23.4 -4.5 -23.4 -4.45 -23.35 -4.45 -23.35 -4.4 -23.3 -4.35 -23.2 -4.25 -23.1 -4.15 -23.0 -4.1 -22.9 -4.05 -22.8 -3.95 -22.7 -3.9 -22.65 -3.85 -22.55 -3.85 -22.45 -3.8 -22.35 -3.75 -22.3 -3.75 -22.2 -3.7 -22.15 -3.7 -22.1 -3.7 -22.05 -3.7 -22.0 -3.65 -22.0 -3.65 -21.9 -3.65 -21.8 -3.65 -21.75 -3.6 -21.65 -3.6 -21.55 -3.6 -21.45 -3.6 -21.3 -3.6 -21.2 -3.6 -21.05 -3.65 -20.95 -3.65 -20.85 -3.7 -20.7 -3.75 -20.6 -3.8 -20.5 -3.85 -20.4 -3.95 -20.4 -3.95 -20.35 -4.0 -20.3 -4.0 -20.3 -4.05 -20.25 -4.05 -20.25 -4.1 -20.2 -4.1 -20.2 -4.15 -20.15 -4.2 -20.15 -4.25 -20.1 -4.25 -20.1 -4.3 -20.05 -4.35 -20.0 -4.4 -20.0 -4.5 -19.95 -4.55 -19.95 -4.6 -19.9 -4.65 -19.9 -4.7 -19.9 -4.75 -19.85 -4.75 -19.85 -4.8 -19.8 -4.85 -19.8 -4.9 -19.75 -4.95 -19.75 -5.0 -19.7 -5.0 -19.65 -5.05 -19.65 -5.1 -19.6 -5.1 -19.55 -5.15 -19.5 -5.15 -19.45 -5.2 -19.4 -5.25 -19.35 -5.25 -19.35 -5.3 -19.3 -5.35 -19.3 -5.4 -19.25 -5.45 -19.25 -5.5 -19.25 -5.55 -19.2 -5.6 -19.2 -5.65 -19.2 -5.7 -19.2 -5.75 -19.2 -5.8 -19.2 -5.85 -19.2 -5.9 -19.2 -6.1 -19.2 -6.25 -19.25 -6.4 -19.3 -6.55 -19.3 -6.75 -19.4 -6.85 -19.45 -7.0 -19.5 -7.15 -19.6 -7.3 -19.7 -7.4 -19.8 -7.55 -19.9 -7.65 -20.05 -7.75 -20.2 -7.85 -20.35 -7.95 -20.5 -8.0 -20.55 -8.0 -20.6 -8.05 -20.65 -8.05 -20.7 -8.1 -20.75 -8.15 -20.85 -8.15 -20.9 -8.2 -21.0 -8.2 -21.1 -8.25 -21.2 -8.25 -21.3 -8.25 -21.45 -8.3 -21.55 -8.3 -21.65 -8.3 -21.8 -8.3 -21.9 -8.25 -22.05 -8.25 -22.25 -8.2 -22.4 -8.15 -22.55 -8.05 -22.7 -8.0 -22.85 -7.9 -23.0 -7.8 -23.15 -7.7 -23.25 -7.6 -23.35 -7.45 -23.5 -7.35 -23.55 -7.2 -23.65 -7.05 -23.75 -6.9 -23.8 -6.75 -23.85 -6.6 L-23.85 -6.6 M-21.2 10.6 Q-21.25 10.6 -21.3 10.6 -21.35 10.6 -21.45 10.6 -21.5 10.6 -21.55 10.6 -21.6 10.65 -21.65 10.65 -21.7 10.65 -21.8 10.65 -21.85 10.7 -21.9 10.7 -21.95 10.7 -22.0 10.75 -22.05 10.75 -22.1 10.75 -22.35 10.85 -22.6 10.9 -22.85 11.0 -23.1 11.05 -23.35 11.15 -23.6 11.2 -23.85 11.25 -24.1 11.3 -24.35 11.35 -24.6 11.4 -24.85 11.45 -25.1 11.5 -25.4 11.5 -25.65 11.55 -25.9 11.55 -26.15 11.55 -26.2 11.55 -26.35 11.5 -26.45 11.5 -26.5 11.5 -26.8 11.45 -27.1 11.4 -27.4 11.35 -27.65 11.3 -27.95 11.2 -28.25 11.15 -28.5 11.05 -28.75 10.9 -29.05 10.8 -29.3 10.7 -29.55 10.55 -29.8 10.4 -30.05 10.25 -30.3 10.1 -30.5 9.9 -30.75 9.75 -31.45 9.2 -33.1 7.4 -33.2 7.3 -33.3 7.2 -33.4 7.1 -33.5 7.0 -33.6 6.9 -33.7 6.8 -33.8 6.75 -33.95 6.65 -34.05 6.55 -34.15 6.5 -34.25 6.4 -34.4 6.35 -34.5 6.25 -34.6 6.2 -34.75 6.1 -34.85 6.05 -34.95 6.0 -35.05 5.95 -35.2 5.95 -35.3 5.9 -35.4 5.9 -35.5 5.9 -35.65 5.9 -35.75 5.9 -35.85 5.9 -35.95 5.9 -36.05 5.95 -36.2 5.95 -36.35 5.95 -36.4 6.0 -36.55 6.0 -36.65 6.0 -36.65 6.0 -36.8 6.1 -37.1 6.35 -37.9 7.0 -40.1 8.75 -41.6 10.0 -41.95 10.25 -42.95 11.1 -42.65 11.1 -42.35 11.1 -42.1 11.1 -41.85 11.15 -41.6 11.15 -41.4 11.2 -41.2 11.2 -41.0 11.25 -40.8 11.3 -40.65 11.3 -40.5 11.35 -40.3 11.4 -40.15 11.45 -40.0 11.5 -39.9 11.55 -39.7 11.6 -39.25 11.75 -38.8 11.95 -38.4 12.15 -38.0 12.4 -37.6 12.6 -37.2 12.9 -36.8 13.15 -36.45 13.4 -36.05 13.7 -35.7 14.0 -35.4 14.3 -35.05 14.65 -34.7 14.95 -34.4 15.3 -34.1 15.65 -33.75 16.05 -33.6 16.25 -33.4 16.45 -33.2 16.65 -33.05 16.8 -32.85 17.0 -32.65 17.15 -32.45 17.3 -32.25 17.45 -32.0 17.6 -31.8 17.75 -31.6 17.9 -31.35 18.0 -31.1 18.15 -30.85 18.25 -30.65 18.35 -30.35 18.45 -30.3 18.45 -30.3 18.5 -30.25 18.5 -30.25 18.5 -30.2 18.5 -30.2 18.55 -30.15 18.55 -30.1 18.55 -30.1 18.55 -30.05 18.55 -30.05 18.55 -30.0 18.55 -29.95 18.55 -29.95 18.55 -29.9 18.55 -29.85 18.55 -29.75 18.6 -29.75 18.6 -27.3 18.9 -25.8 19.05 -25.7 19.05 -25.65 19.05 -25.55 19.05 -25.5 19.05 -25.4 19.05 -25.3 19.05 -25.25 19.05 -25.15 19.05 -25.05 19.05 -25.0 19.05 -24.9 19.05 -24.85 19.0 -24.75 19.0 -24.65 18.95 -24.6 18.95 -24.5 18.9 -24.45 18.9 -24.45 18.9 -24.4 18.9 -24.35 18.9 -24.3 18.9 -24.25 18.9 -24.25 18.9 -24.2 18.9 -24.05 18.9 -23.85 18.85 -23.7 18.85 -23.55 18.8 -23.4 18.75 -23.2 18.7 -23.05 18.7 -22.9 18.65 -22.75 18.6 -22.55 18.55 -22.25 18.45 -22.25 18.45 -22.05 18.4 -21.9 18.35 -21.75 18.3 -21.6 18.25 -21.35 18.2 -21.05 18.15 -20.8 18.1 -20.5 18.1 -20.25 18.05 -20.0 18.05 -19.7 18.05 -19.45 18.05 -19.2 18.05 -18.9 18.05 -18.65 18.1 -18.4 18.15 -18.1 18.15 -17.85 18.25 -17.6 18.3 -17.35 18.35 -17.1 18.45 -16.85 18.5 -16.6 18.6 -16.35 18.7 -16.1 18.8 -15.85 18.9 -15.65 19.05 -15.4 19.15 -15.15 19.3 -14.95 19.4 -14.7 19.55 -14.5 19.7 -14.3 19.85 -14.1 20.0 -13.9 20.15 -13.7 20.35 -13.55 20.5 -13.35 20.6 -13.2 20.75 -13.0 20.85 -12.8 21.0 -12.65 21.1 -12.45 21.2 -12.25 21.3 -12.05 21.4 -11.85 21.5 -11.7 21.6 -11.5 21.65 -11.3 21.75 -11.1 21.85 -10.9 21.9 -10.7 22.0 -10.7 22.0 -10.5 22.05 -10.35 22.1 -10.3 22.15 -10.15 22.15 -10.05 22.2 -9.95 22.25 -9.85 22.25 -9.75 22.3 -9.65 22.3 -9.55 22.3 -9.45 22.35 -9.3 22.35 -9.2 22.35 -9.1 22.35 -9.0 22.35 -8.8 22.35 -8.7 22.4 -8.55 22.4 -8.4 22.4 -8.25 22.4 -8.15 22.4 -8.0 22.4 -7.85 22.4 -7.7 22.4 -7.55 22.4 -7.4 22.4 -7.3 22.35 -7.15 22.35 -7.0 22.3 -6.85 22.3 -6.75 22.25 -6.7 22.25 -6.65 22.25 -6.65 22.25 -6.6 22.25 -6.55 22.25 -6.5 22.25 -6.5 22.25 -6.45 22.2 -6.4 22.2 -6.35 22.2 -6.2 22.15 -6.1 22.1 -6.0 22.05 -5.85 22.05 -5.75 22.0 -5.6 21.95 -5.5 21.9 -5.35 21.85 -5.25 21.8 -5.15 21.7 -5.0 21.65 -4.9 21.6 -4.8 21.55 -4.65 21.45 -4.55 21.4 -4.45 21.35 -4.2 21.2 -3.95 21.05 -3.75 20.9 -3.5 20.8 -3.25 20.7 -3.0 20.6 -2.75 20.5 -2.5 20.45 -2.2 20.35 -1.95 20.3 -1.7 20.25 -1.4 20.2 -1.15 20.2 -0.9 20.15 -0.6 20.15 -0.3 20.15 0.05 20.15 0.35 20.2 0.7 20.2 1.0 20.25 1.35 20.3 1.65 20.35 2.0 20.4 2.3 20.5 2.65 20.55 2.95 20.65 3.25 20.75 3.6 20.85 3.9 20.95 4.2 21.05 4.5 21.15 4.85 21.3 5.7 21.65 5.8 21.7 7.6 22.35 7.75 22.4 7.75 22.4 7.8 22.45 7.8 22.45 7.85 22.5 7.9 22.5 7.9 22.5 7.95 22.55 8.0 22.55 8.0 22.55 8.05 22.55 8.1 22.55 8.1 22.6 8.15 22.6 8.2 22.6 8.25 22.6 8.25 22.6 8.5 22.65 8.7 22.7 8.95 22.75 9.2 22.75 9.45 22.75 9.65 22.8 9.9 22.8 10.15 22.8 10.35 22.8 10.6 22.75 10.85 22.75 11.05 22.7 11.3 22.7 11.55 22.65 11.75 22.6 12.0 22.55 12.2 22.5 12.4 22.45 12.6 22.4 12.75 22.35 12.95 22.3 13.15 22.25 13.35 22.15 13.5 22.1 13.7 22.0 13.9 21.95 14.05 21.85 14.25 21.75 14.4 21.7 14.6 21.6 14.75 21.5 14.9 21.35 15.05 21.25 15.25 21.1 15.45 21.0 15.6 20.9 15.8 20.8 15.95 20.7 16.15 20.65 16.35 20.55 16.55 20.45 16.7 20.4 16.9 20.35 17.1 20.25 17.3 20.2 17.5 20.15 17.7 20.1 17.9 20.05 18.2 20.0 18.65 19.95 19.2 19.85 19.4 19.8 20.25 19.9 21.9 20.0 21.85 20.0 22.0 20.0 22.05 20.0 22.05 20.0 22.1 20.0 22.15 19.95 22.2 19.95 22.25 19.95 22.3 19.95 22.3 20.0 22.35 20.1 22.45 20.1 22.5 20.1 22.65 20.1 22.7 20.1 22.75 20.15 22.75 20.15 22.8 20.15 22.85 20.15 22.9 20.2 22.95 20.2 23.0 20.2 23.05 20.2 23.05 20.2 23.1 20.2 23.15 20.2 23.2 20.2 23.25 20.25 23.3 20.25 23.35 20.25 26.0 20.45 27.3 20.6 27.4 20.6 27.5 20.6 27.6 20.6 27.7 20.6 27.8 20.6 27.9 20.6 28.0 20.6 28.1 20.55 28.2 20.55 28.3 20.55 28.4 20.5 28.5 20.45 28.55 20.45 28.65 20.4 28.75 20.35 28.85 20.35 29.1 20.25 29.3 20.1 29.55 20.0 29.75 19.85 30.0 19.7 30.2 19.55 30.4 19.4 30.6 19.2 30.8 19.05 31.0 18.85 31.15 18.7 31.35 18.5 31.55 18.35 31.7 18.15 31.85 17.95 32.05 17.75 32.1 17.7 32.1 17.7 32.1 17.65 32.15 17.6 32.15 17.55 32.15 17.55 32.15 17.5 32.15 17.45 32.2 17.45 32.2 17.45 32.25 17.4 32.3 17.4 32.3 17.4 32.35 17.35 32.35 17.35 32.4 17.3 32.4 17.3 32.45 17.25 32.45 17.25 32.5 17.2 32.5 17.15 32.55 17.15 32.55 17.1 32.6 17.1 33.15 16.5 33.85 15.8 34.0 15.65 34.2 15.55 34.35 15.45 34.55 15.3 34.7 15.2 34.9 15.1 35.05 15.0 35.25 14.95 35.45 14.85 35.65 14.75 35.8 14.7 36.0 14.65 36.2 14.55 36.45 14.5 36.65 14.45 36.85 14.4 36.8 14.35 36.7 14.25 36.65 14.15 36.6 14.1 34.95 12.1 32.15 8.75 32.0 8.55 31.95 8.5 31.85 8.45 31.75 8.5 31.7 8.5 31.5 8.65 31.3 8.8 31.1 8.95 30.9 9.1 30.7 9.25 30.55 9.4 30.35 9.55 30.2 9.7 30.05 9.9 29.85 10.05 29.75 10.25 29.6 10.45 29.45 10.65 29.3 10.85 29.2 11.05 29.1 11.25 29.0 11.5 29.0 11.55 28.95 11.6 28.95 11.6 28.9 11.65 28.9 11.7 28.85 11.75 28.85 11.75 28.8 11.8 28.75 11.85 28.75 11.85 28.65 11.95 28.55 12.05 28.45 12.15 28.35 12.2 28.25 12.3 28.15 12.35 28.05 12.45 27.9 12.5 27.8 12.55 27.7 12.6 27.6 12.65 27.45 12.7 27.35 12.75 27.25 12.8 27.1 12.85 27.0 12.9 26.95 12.95 26.85 12.95 26.8 12.95 26.75 13.0 26.65 13.0 26.6 13.0 26.55 13.05 26.5 13.05 26.4 13.05 26.35 13.05 26.3 13.05 26.2 13.05 26.15 13.05 26.1 13.05 26.0 13.05 25.95 13.05 23.05 12.75 21.0 12.5 20.95 12.5 20.85 12.5 20.8 12.5 20.7 12.45 20.65 12.45 20.6 12.45 20.55 12.45 20.45 12.4 20.4 12.4 20.35 12.35 20.3 12.35 20.2 12.3 20.15 12.3 20.1 12.25 20.05 12.25 20.0 12.2 19.95 12.15 19.85 12.1 19.8 12.05 19.7 12.0 19.6 12.0 19.55 11.95 19.45 11.9 19.4 11.85 19.3 11.8 19.25 11.8 19.15 11.75 19.05 11.7 19.0 11.7 18.9 11.65 18.85 11.65 18.75 11.6 18.45 11.5 18.1 11.45 17.8 11.35 17.5 11.35 17.2 11.3 16.9 11.35 16.6 11.35 16.35 11.4 16.05 11.45 15.8 11.6 15.5 11.7 15.25 11.8 15.0 11.95 14.75 12.15 14.45 12.35 14.25 12.55 14.2 12.6 14.15 12.65 14.1 12.7 14.05 12.7 14.0 12.75 13.95 12.8 13.9 12.85 13.85 12.9 13.8 12.95 13.75 13.0 13.75 13.0 13.7 13.05 13.65 13.1 13.6 13.15 13.55 13.2 13.5 13.25 13.2 13.55 12.9 13.8 12.55 14.05 12.25 14.3 11.9 14.5 11.55 14.7 11.2 14.85 10.85 15.0 10.45 15.15 10.1 15.25 9.7 15.4 9.3 15.45 8.9 15.55 8.5 15.6 8.1 15.65 7.7 15.65 7.7 15.65 5.8 15.65 5.7 15.65 5.45 15.6 5.4 15.6 5.4 15.55 5.35 15.55 5.3 15.55 5.25 15.55 5.2 15.5 5.2 15.5 5.15 15.5 5.1 15.5 5.05 15.5 5.0 15.5 5.0 15.5 4.95 15.5 4.9 15.5 4.85 15.55 4.8 15.55 4.2 15.5 2.45 15.1 2.4 15.1 2.35 15.05 2.3 15.05 2.25 15.05 2.2 15.0 2.2 15.0 2.15 15.0 2.1 14.95 2.05 14.95 2.0 14.9 1.95 14.9 1.95 14.85 1.9 14.8 1.85 14.8 1.8 14.75 1.8 14.7 1.65 14.6 1.55 14.45 1.4 14.35 1.25 14.25 1.1 14.15 0.95 14.05 0.85 13.95 0.7 13.85 0.55 13.8 0.35 13.7 0.2 13.6 0.05 13.55 -0.1 13.45 -0.25 13.4 -0.4 13.3 -0.6 13.25 -1.25 13.0 -3.0 12.75 -3.1 12.75 -3.15 12.75 -3.25 12.7 -3.35 12.7 -3.4 12.7 -3.5 12.7 -3.55 12.7 -3.65 12.7 -3.7 12.7 -3.8 12.75 -3.9 12.75 -3.95 12.75 -4.05 12.75 -4.1 12.8 -4.2 12.8 -4.25 12.8 -4.65 12.95 -5.35 13.15 -6.15 13.35 -6.45 13.45 -6.7 13.5 -6.9 13.6 -7.15 13.65 -7.4 13.7 -7.6 13.8 -7.85 13.85 -8.1 13.9 -8.35 13.95 -8.55 14.0 -8.8 14.05 -9.05 14.1 -9.3 14.15 -9.5 14.2 -9.75 14.2 -10.0 14.25 -10.25 14.25 -10.45 14.3 -10.65 14.3 -10.85 14.3 -11.05 14.35 -11.25 14.35 -11.45 14.35 -11.65 14.35 -11.85 14.35 -12.05 14.35 -12.25 14.35 -12.45 14.3 -12.6 14.3 -12.8 14.25 -13.0 14.25 -13.2 14.2 -13.4 14.15 -13.65 14.1 -13.85 14.05 -14.1 13.95 -14.3 13.9 -14.55 13.8 -14.75 13.7 -14.95 13.6 -15.15 13.5 -15.35 13.4 -15.55 13.25 -15.75 13.1 -15.9 12.95 -16.1 12.8 -16.25 12.65 -16.4 12.45 -16.55 12.25 -16.65 12.15 -16.75 12.05 -16.85 11.9 -16.95 11.8 -17.05 11.7 -17.15 11.6 -17.25 11.5 -17.35 11.45 -17.5 11.35 -17.6 11.25 -17.75 11.2 -17.85 11.15 -18.0 11.05 -18.1 11.0 -18.25 10.95 -18.4 10.9 -18.5 10.9 -20.45 10.55 -20.5 10.55 -20.55 10.55 -20.55 10.55 -20.65 10.55 -20.7 10.55 -20.7 10.55 -20.75 10.5 -20.8 10.5 -20.85 10.5 -20.9 10.5 -20.95 10.55 -21.0 10.55 -21.05 10.55 -21.1 10.55 -21.15 10.55 -21.2 10.6 L-21.2 10.6 M-6.35 -6.95 Q-6.25 -6.95 -6.15 -6.95 -6.05 -6.9 -5.95 -6.9 -5.85 -6.85 -5.75 -6.85 -5.7 -6.8 -5.6 -6.8 -5.55 -6.75 -5.45 -6.75 -5.4 -6.7 -5.35 -6.7 -5.3 -6.65 -5.25 -6.65 -5.25 -6.65 -5.2 -6.6 -5.05 -6.5 -4.9 -6.45 -4.75 -6.35 -4.65 -6.2 -4.5 -6.1 -4.4 -6.0 -4.3 -5.85 -4.2 -5.7 -4.1 -5.55 -4.0 -5.4 -3.9 -5.25 -3.85 -5.1 -3.75 -4.9 -3.7 -4.75 -3.65 -4.55 -3.6 -4.4 -3.6 -4.35 -3.6 -4.3 -3.6 -4.25 -3.55 -4.15 -3.55 -4.1 -3.55 -4.05 -3.55 -3.95 -3.55 -3.95 -3.5 -3.9 -3.5 -3.85 -3.5 -3.75 -3.5 -3.7 -3.5 -3.65 -3.5 -3.6 -3.5 -3.55 -3.5 -3.5 -3.55 -3.2 -3.65 -2.85 -3.75 -2.55 -3.95 -2.25 -4.1 -1.95 -4.35 -1.7 -4.6 -1.45 -4.9 -1.25 -5.15 -1.05 -5.5 -0.9 -5.8 -0.75 -6.15 -0.7 -6.55 -0.65 -6.9 -0.65 -7.3 -0.7 -7.65 -0.8 -7.75 -0.85 -7.9 -0.9 -8.0 -0.95 -8.1 -1.0 -8.25 -1.05 -8.35 -1.1 -8.45 -1.15 -8.55 -1.25 -8.65 -1.3 -8.75 -1.35 -8.85 -1.45 -8.9 -1.55 -9.0 -1.6 -9.1 -1.7 -9.2 -1.75 -9.25 -1.85 -9.3 -1.85 -9.5 -1.5 -9.55 -1.45 -9.6 -1.35 -9.65 -1.3 -9.7 -1.25 -9.75 -1.2 -9.85 -1.15 -9.9 -1.1 -9.95 -1.05 -10.0 -1.0 -10.1 -0.95 -10.15 -0.9 -10.2 -0.85 -10.3 -0.8 -10.35 -0.75 -10.45 -0.7 -10.5 -0.65 -10.55 -0.65 -10.6 -0.6 -10.65 -0.6 -10.7 -0.6 -10.7 -0.6 -10.8 -0.6 -10.85 -0.6 -10.9 -0.6 -10.95 -0.6 -10.95 -0.6 -11.0 -0.55 -11.05 -0.55 -11.1 -0.55 -11.1 -0.5 -11.15 -0.5 -11.15 -0.45 -11.2 -0.4 -11.2 -0.35 -11.2 -0.3 -11.2 -0.25 -11.2 -0.2 -11.2 -0.15 -11.2 -0.15 -11.2 -0.05 -11.2 -0.05 -11.2 0.05 -11.2 0.1 -11.2 0.15 -11.15 0.2 -11.15 0.25 -11.15 0.3 -11.15 0.35 -11.15 0.4 -11.15 0.45 -11.15 0.45 -11.15 0.5 -11.15 0.55 -11.15 0.6 -11.15 0.65 -11.15 0.7 -11.15 0.8 -11.15 0.95 -11.15 1.05 -11.15 1.15 -11.15 1.25 -11.15 1.4 -11.15 1.55 -11.15 1.65 -11.15 1.75 -11.15 1.85 -11.1 2.0 -11.1 2.1 -11.1 2.2 -11.1 2.35 -11.1 2.45 -11.05 2.55 -11.05 2.75 -11.1 4.3 -11.15 5.6 -11.15 6.35 -11.15 6.6 -11.15 6.65 -11.15 6.75 -11.05 6.8 -10.95 6.85 -10.7 6.85 -10.7 6.85 -10.65 6.85 -10.4 6.85 -5.65 7.2 -2.65 7.4 -0.65 7.4 7.45 7.55 8.65 7.55 9.25 7.55 9.8 7.5 10.4 7.5 10.95 7.5 11.55 7.45 12.15 7.45 12.7 7.4 13.3 7.35 13.85 7.35 14.45 7.3 15.05 7.25 15.6 7.2 16.2 7.15 16.75 7.1 17.35 7.05 17.9 6.95 18.4 6.9 18.85 6.85 19.3 6.8 19.75 6.7 20.25 6.65 20.7 6.6 21.15 6.5 21.6 6.4 22.1 6.35 22.55 6.25 23.0 6.15 23.45 6.05 23.9 5.95 24.35 5.85 24.8 5.7 25.25 5.6 25.6 5.5 25.9 5.4 26.25 5.3 26.55 5.2 26.9 5.1 27.2 5.0 27.55 4.85 27.85 4.75 28.2 4.6 28.5 4.5 28.8 4.35 29.1 4.2 29.4 4.05 29.7 3.9 30.0 3.75 30.3 3.55 30.5 3.4 30.6 3.35 30.65 3.3 30.65 3.2 30.65 3.15 30.55 2.9 29.35 -0.55 29.1 -1.1 28.95 -1.5 28.8 -1.9 28.65 -2.3 28.55 -2.6 27.35 -5.55 24.35 -10.55 23.5 -11.95 20.4 -16.55 20.15 -17.0 19.5 -17.9 19.45 -17.85 19.35 -17.85 19.25 -17.8 19.25 -17.75 19.0 -17.65 18.8 -17.5 18.55 -17.4 18.3 -17.3 18.1 -17.2 17.85 -17.05 17.6 -16.95 17.35 -16.9 17.1 -16.8 16.85 -16.7 16.6 -16.6 16.35 -16.55 16.1 -16.45 15.85 -16.4 15.6 -16.3 15.35 -16.25 14.95 -16.15 14.5 -16.05 14.1 -16.0 13.65 -15.9 13.2 -15.85 12.8 -15.8 12.35 -15.7 11.95 -15.65 11.5 -15.6 11.05 -15.55 10.65 -15.55 10.2 -15.5 9.75 -15.45 9.35 -15.45 8.9 -15.4 8.45 -15.4 7.9 -15.35 7.4 -15.35 6.85 -15.35 6.35 -15.35 5.8 -15.3 5.25 -15.3 4.75 -15.3 4.2 -15.3 3.65 -15.3 3.15 -15.3 2.6 -15.3 2.05 -15.35 1.55 -15.35 1.0 -15.35 0.5 -15.4 -0.05 -15.4 -5.5 -15.65 -9.95 -16.1 -11.95 -16.3 -14.75 -16.7 -14.8 -16.7 -14.85 -16.75 -14.9 -16.75 -14.95 -16.75 -14.95 -16.8 -15.0 -16.8 -15.05 -16.8 -15.1 -16.8 -15.15 -16.8 -15.2 -16.8 -15.25 -16.8 -15.3 -16.8 -15.35 -16.8 -15.4 -16.8 -15.45 -16.8 -15.5 -16.8 -17.5 -17.2 -18.5 -17.55 -18.55 -17.6 -18.65 -17.6 -18.7 -17.6 -18.75 -17.6 -18.8 -17.65 -18.85 -17.65 -18.9 -17.6 -18.95 -17.6 -19.0 -17.6 -19.05 -17.55 -19.1 -17.55 -19.15 -17.5 -19.2 -17.5 -19.25 -17.45 -19.3 -17.4 -19.35 -17.35 -19.85 -16.85 -20.35 -16.4 -20.85 -15.9 -21.35 -15.4 -21.85 -14.95 -22.35 -14.45 -22.85 -13.95 -23.3 -13.45 -23.8 -12.95 -24.3 -12.45 -24.8 -11.95 -25.25 -11.45 -25.75 -10.95 -26.2 -10.45 -26.7 -9.95 -27.15 -9.45 -27.7 -8.85 -28.25 -8.25 -28.85 -7.6 -29.4 -7.0 -29.95 -6.4 -30.45 -5.75 -31.0 -5.15 -31.55 -4.5 -32.1 -3.9 -32.6 -3.25 -33.15 -2.6 -33.65 -1.95 -34.15 -1.3 -34.65 -0.65 -35.15 0.0 -35.65 0.65 -35.65 0.65 -35.7 0.7 -35.65 0.7 -35.75 0.75 -35.75 0.8 -35.8 0.8 -35.8 0.85 -35.85 0.85 -35.85 0.9 -35.85 0.9 -35.9 0.95 -35.9 1.0 -35.9 1.0 -35.9 1.05 -35.95 1.1 -35.95 1.15 -35.8 1.2 -35.0 1.6 -34.95 1.65 -34.8 1.7 -34.65 1.75 -34.6 1.75 -34.1 1.95 -33.6 2.15 -33.1 2.35 -32.6 2.55 -32.1 2.75 -31.55 2.9 -31.05 3.1 -30.55 3.25 -30.05 3.4 -29.55 3.6 -29.0 3.75 -28.5 3.9 -28.0 4.0 -27.45 4.15 -26.95 4.3 -26.4 4.4 -24.55 4.9 -21.7 5.45 -21.45 5.5 -21.4 5.5 -21.3 5.45 -21.25 5.4 -21.2 5.35 -21.1 5.1 -20.8 4.5 -20.15 3.0 -19.4 1.5 -17.95 -1.5 -18.0 -1.55 -18.05 -1.55 -18.05 -1.55 -18.1 -1.55 -18.15 -1.55 -18.15 -1.55 -18.2 -1.55 -18.25 -1.55 -18.25 -1.55 -18.3 -1.55 -18.45 -1.55 -18.6 -1.6 -18.7 -1.6 -18.85 -1.65 -18.95 -1.7 -19.05 -1.75 -19.2 -1.8 -19.3 -1.9 -19.4 -1.95 -19.5 -2.05 -19.6 -2.15 -19.7 -2.25 -19.75 -2.3 -19.85 -2.45 -19.9 -2.55 -20.0 -2.65 -20.1 -2.85 -20.15 -2.9 -20.2 -3.0 -20.3 -3.0 -20.4 -3.0 -20.6 -2.95 -21.15 -2.9 -21.4 -2.85 -21.45 -2.85 -21.5 -2.85 -21.6 -2.8 -21.65 -2.8 -21.7 -2.8 -21.75 -2.8 -21.8 -2.8 -21.85 -2.8 -21.95 -2.8 -22.0 -2.8 -22.05 -2.8 -22.1 -2.85 -22.15 -2.85 -22.25 -2.85 -22.3 -2.85 -22.35 -2.9 -22.4 -2.9 -22.5 -2.95 -22.55 -2.95 -22.65 -3.0 -22.7 -3.0 -22.75 -3.05 -22.85 -3.05 -22.9 -3.1 -22.95 -3.1 -23.05 -3.15 -23.1 -3.2 -23.15 -3.2 -23.2 -3.25 -23.3 -3.3 -23.35 -3.3 -23.4 -3.35 -23.5 -3.45 -23.6 -3.5 -23.7 -3.6 -23.8 -3.7 -23.9 -3.75 -23.95 -3.85 -24.05 -3.95 -24.1 -4.0 -24.15 -4.1 -24.2 -4.15 -24.25 -4.25 -24.3 -4.3 -24.35 -4.35 -24.35 -4.4 -24.4 -4.45 -24.4 -4.5 -24.45 -4.55 -24.45 -4.6 -24.5 -4.7 -24.55 -4.75 -24.6 -4.85 -24.6 -4.95 -24.65 -5.1 -24.7 -5.2 -24.75 -5.35 -24.75 -5.5 -24.8 -5.65 -24.8 -5.8 -24.8 -6.0 -24.8 -6.15 -24.8 -6.35 -24.75 -6.55 -24.7 -6.85 -24.55 -7.1 -24.45 -7.4 -24.3 -7.6 -24.1 -7.85 -23.9 -8.05 -23.7 -8.25 -23.45 -8.45 -23.25 -8.6 -23.0 -8.75 -22.75 -8.85 -22.45 -8.95 -22.2 -9.05 -21.95 -9.1 -21.7 -9.1 -21.45 -9.1 -21.4 -9.1 -21.3 -9.1 -21.25 -9.1 -21.2 -9.1 -21.15 -9.1 -21.1 -9.1 -21.05 -9.1 -21.0 -9.05 -20.95 -9.05 -20.9 -9.05 -20.85 -9.05 -20.8 -9.05 -20.8 -9.05 -20.75 -9.0 -20.7 -9.0 -20.7 -9.0 -20.65 -9.0 -20.55 -8.95 -20.5 -8.95 -20.4 -8.9 -20.3 -8.85 -20.2 -8.8 -20.05 -8.75 -19.95 -8.7 -19.8 -8.6 -19.7 -8.55 -19.55 -8.45 -19.45 -8.35 -19.3 -8.25 -19.2 -8.1 -19.1 -8.0 -19.0 -7.85 -18.9 -7.75 -18.85 -7.65 -18.8 -7.55 -18.7 -7.4 -18.65 -7.3 -18.6 -7.2 -18.55 -7.05 -18.5 -6.95 -18.45 -6.8 -18.45 -6.7 -18.4 -6.55 -18.35 -6.45 -18.35 -6.3 -18.35 -6.15 -18.35 -6.0 -18.3 -5.9 -18.3 -5.8 -18.3 -5.75 -18.3 -5.7 -18.25 -5.65 -18.2 -5.65 -18.1 -5.65 -18.05 -5.65 -18.0 -5.65 -17.9 -5.65 -17.85 -5.65 -17.8 -5.6 -17.7 -5.6 -17.65 -5.6 -17.6 -5.55 -17.5 -5.55 -17.45 -5.5 -17.4 -5.5 -17.3 -5.45 -17.25 -5.45 -17.2 -5.4 -17.15 -5.35 -17.1 -5.35 -17.0 -5.3 -16.95 -5.25 -16.9 -5.2 -16.85 -5.15 -16.8 -5.1 -16.75 -5.05 -16.7 -5.0 -16.65 -4.95 -16.6 -4.9 -16.55 -4.85 -16.5 -4.8 -16.45 -4.7 -16.35 -4.6 -16.35 -4.6 -16.3 -4.75 -16.1 -5.05 -15.95 -5.35 -15.75 -5.65 -15.6 -5.9 -15.45 -6.2 -15.25 -6.5 -15.1 -6.8 -14.95 -7.05 -14.75 -7.35 -14.6 -7.65 -14.4 -7.9 -14.25 -8.2 -14.05 -8.45 -13.9 -8.75 -13.7 -9.05 -13.5 -9.3 -13.35 -9.6 -13.3 -9.65 -13.3 -9.7 -13.25 -9.7 -13.2 -9.75 -13.2 -9.8 -13.15 -9.8 -13.1 -9.85 -13.05 -9.85 -13.0 -9.9 -13.0 -9.9 -12.95 -9.9 -12.9 -9.9 -12.85 -9.9 -12.8 -9.9 -12.75 -9.9 -12.65 -9.9 -12.6 -9.9 -12.55 -9.85 -12.5 -9.85 -12.5 -9.8 -12.45 -9.8 -12.4 -9.75 -12.4 -9.75 -12.35 -9.7 -12.35 -9.65 -12.35 -9.6 -12.3 -9.55 -12.3 -9.55 -12.3 -9.5 -12.3 -9.45 -12.25 -9.4 -12.25 -9.35 -12.2 -9.0 -12.1 -8.3 -12.0 -7.6 -11.9 -7.25 -11.85 -6.8 -11.75 -6.05 -11.65 -5.1 -11.65 -4.9 -11.65 -4.85 -11.65 -4.85 -11.65 -4.8 -11.6 -4.8 -11.6 -4.75 -11.6 -4.75 -11.6 -4.7 -11.55 -4.7 -11.55 -4.65 -11.55 -4.65 -11.5 -4.65 -11.5 -4.65 -11.45 -4.6 -11.45 -4.6 -11.4 -4.6 -11.35 -4.6 -11.25 -4.6 -11.15 -4.6 -11.1 -4.6 -11.0 -4.6 -10.9 -4.55 -10.8 -4.55 -10.7 -4.55 -10.65 -4.5 -10.55 -4.45 -10.45 -4.45 -10.4 -4.4 -10.3 -4.35 -10.2 -4.3 -10.15 -4.25 -10.05 -4.2 -9.95 -4.15 -9.9 -4.35 -9.85 -4.6 -9.85 -4.7 -9.8 -4.75 -9.8 -4.85 -9.75 -4.95 -9.75 -5.0 -9.7 -5.1 -9.65 -5.15 -9.65 -5.25 -9.6 -5.3 -9.55 -5.4 -9.5 -5.45 -9.5 -5.5 -9.45 -5.6 -9.4 -5.65 -9.35 -5.7 -9.3 -5.75 -9.25 -5.85 -9.15 -5.9 -9.1 -6.0 -9.05 -6.05 -9.0 -6.1 -8.9 -6.15 -8.85 -6.2 -8.8 -6.25 -8.75 -6.3 -8.7 -6.35 -8.65 -6.4 -8.6 -6.4 -8.55 -6.45 -8.5 -6.5 -8.45 -6.5 -8.4 -6.55 -8.3 -6.6 -8.25 -6.65 -8.15 -6.65 -8.05 -6.7 -7.95 -6.75 -7.85 -6.8 -7.7 -6.85 -7.6 -6.85 -7.45 -6.9 -7.3 -6.95 -7.15 -6.95 -7.05 -6.95 -6.85 -7.0 -6.7 -7.0 -6.55 -7.0 -6.35 -6.95 L-6.35 -6.95 M-11.4 -1.1 Q-11.25 -1.1 -11.1 -1.1 -10.95 -1.15 -10.85 -1.2 -10.7 -1.25 -10.6 -1.3 -10.45 -1.35 -10.35 -1.45 -10.25 -1.55 -10.15 -1.65 -10.1 -1.8 -10.0 -1.9 -9.95 -2.05 -9.9 -2.15 -9.85 -2.3 -9.85 -2.45 -9.85 -2.6 -9.85 -2.7 -9.9 -2.85 -9.95 -2.95 -10.0 -3.1 -10.05 -3.2 -10.1 -3.35 -10.2 -3.45 -10.3 -3.55 -10.4 -3.65 -10.5 -3.75 -10.65 -3.8 -10.75 -3.85 -10.85 -3.9 -11.0 -3.95 -11.1 -3.95 -11.25 -3.95 -11.4 -3.95 -11.55 -3.95 -11.7 -3.9 -11.85 -3.85 -12.0 -3.75 -12.1 -3.7 -12.2 -3.6 -12.3 -3.55 -12.4 -3.4 -12.5 -3.3 -12.55 -3.2 -12.65 -3.05 -12.65 -2.9 -12.7 -2.8 -12.7 -2.65 -12.7 -2.5 -12.7 -2.35 -12.7 -2.2 -12.65 -2.05 -12.6 -1.95 -12.5 -1.8 -12.45 -1.7 -12.35 -1.6 -12.3 -1.5 -12.15 -1.4 -12.05 -1.3 -11.95 -1.25 -11.8 -1.2 -11.65 -1.15 -11.55 -1.1 -11.4 -1.1 L-11.4 -1.1 M-18.2 -2.2 Q-18.05 -2.2 -17.95 -2.2 -17.8 -2.25 -17.7 -2.3 -17.55 -2.35 -17.45 -2.4 -17.35 -2.5 -17.2 -2.55 -17.1 -2.65 -17.05 -2.75 -16.95 -2.85 -16.9 -3.0 -16.85 -3.1 -16.8 -3.25 -16.75 -3.35 -16.75 -3.5 -16.75 -3.65 -16.75 -3.75 -16.8 -3.9 -16.85 -4.0 -16.9 -4.15 -16.95 -4.25 -17.0 -4.4 -17.1 -4.5 -17.2 -4.6 -17.3 -4.7 -17.4 -4.8 -17.5 -4.85 -17.65 -4.9 -17.75 -4.95 -17.85 -5.0 -18.0 -5.0 -18.15 -5.0 -18.3 -5.0 -18.45 -4.95 -18.6 -4.95 -18.75 -4.9 -18.85 -4.8 -19.0 -4.75 -19.1 -4.65 -19.2 -4.55 -19.3 -4.45 -19.4 -4.35 -19.45 -4.25 -19.5 -4.1 -19.55 -3.95 -19.6 -3.85 -19.6 -3.7 -19.6 -3.55 -19.6 -3.4 -19.55 -3.25 -19.5 -3.15 -19.45 -3.0 -19.4 -2.9 -19.3 -2.75 -19.2 -2.65 -19.1 -2.55 -19.0 -2.5 -18.9 -2.4 -18.75 -2.35 -18.65 -2.3 -18.5 -2.25 -18.35 -2.2 -18.2 -2.2 L-18.2 -2.2 M-15.3 -0.5 Q-15.2 -0.5 -15.05 -0.5 -14.95 -0.5 -14.85 -0.55 -14.7 -0.6 -14.6 -0.65 -14.5 -0.7 -14.4 -0.8 -14.3 -0.85 -14.25 -0.95 -14.15 -1.1 -14.1 -1.2 -14.0 -1.3 -13.95 -1.45 -13.9 -1.6 -13.9 -1.75 -13.9 -1.85 -13.9 -1.95 -13.9 -2.05 -13.9 -2.2 -13.95 -2.3 -14.0 -2.4 -14.05 -2.5 -14.1 -2.65 -14.15 -2.75 -14.25 -2.85 -14.3 -2.95 -14.4 -3.0 -14.5 -3.1 -14.6 -3.15 -14.7 -3.25 -14.8 -3.25 -14.95 -3.3 -15.1 -3.35 -15.2 -3.35 -15.35 -3.35 -15.45 -3.35 -15.6 -3.3 -15.7 -3.3 -15.85 -3.2 -15.95 -3.15 -16.05 -3.1 -16.15 -3.0 -16.25 -2.9 -16.3 -2.75 -16.4 -2.65 -16.45 -2.5 -16.5 -2.35 -16.55 -2.2 -16.6 -2.0 -16.6 -1.85 -16.55 -1.7 -16.55 -1.55 -16.5 -1.4 -16.45 -1.25 -16.35 -1.1 -16.3 -0.95 -16.15 -0.85 -16.05 -0.75 -15.9 -0.65 -15.8 -0.6 -15.65 -0.55 -15.5 -0.5 -15.3 -0.5 L-15.3 -0.5" fill="#070606" fill-rule="evenodd" stroke="none"/>
    <path d="M32.15 17.45 Q32.15 17.5 32.15 17.55 32.15 17.55 32.15 17.6 32.1 17.65 32.1 17.7 32.1 17.7 32.05 17.75 31.9 17.95 31.7 18.15 31.55 18.35 31.35 18.5 31.15 18.7 31.0 18.85 30.8 19.05 30.6 19.2 30.4 19.4 30.2 19.55 30.0 19.7 29.75 19.85 29.55 19.95 29.3 20.1 29.1 20.2 28.85 20.35 28.75 20.4 28.65 20.4 28.55 20.45 28.5 20.5 28.4 20.5 28.3 20.55 28.2 20.55 28.1 20.55 28.0 20.6 27.9 20.6 27.8 20.6 27.7 20.6 27.6 20.6 27.5 20.6 27.4 20.6 27.3 20.6 26.5 20.5 23.35 20.25 22.8 20.15 22.65 20.1 22.65 20.15 22.65 20.2 22.6 20.25 22.6 20.25 22.55 20.3 22.55 20.35 22.45 20.4 22.35 20.35 22.35 20.35 22.35 20.3 22.35 20.25 22.35 20.2 22.35 20.2 22.35 20.15 22.35 20.1 22.35 20.05 22.3 20.0 22.3 19.95 22.25 19.95 22.25 19.95 22.25 19.9 22.25 19.85 22.25 19.8 22.25 19.8 22.2 19.75 22.2 19.7 22.4 20.1 22.15 19.65 20.9 17.05 18.75 12.75 18.75 12.75 18.7 12.65 18.7 12.6 18.7 12.6 18.65 12.55 18.65 12.55 18.6 12.5 18.55 12.5 18.5 12.6 18.5 12.7 18.45 12.8 18.45 12.95 18.4 13.05 18.4 13.15 18.4 13.25 18.35 13.35 18.35 13.45 18.35 13.6 18.35 13.7 18.35 13.8 18.35 13.9 18.3 14.0 18.3 14.05 18.3 14.2 18.3 14.55 18.3 14.95 18.3 15.3 18.35 15.65 18.4 16.0 18.45 16.35 18.5 16.7 18.6 17.05 18.65 17.4 18.75 17.75 18.85 18.1 18.95 18.45 19.05 18.8 19.15 19.15 19.3 19.45 19.4 19.8 19.15 19.85 18.65 19.95 18.15 20.0 17.9 20.05 17.7 20.1 17.5 20.15 17.3 20.2 17.1 20.25 16.9 20.3 16.7 20.4 16.55 20.45 16.35 20.55 16.15 20.65 15.95 20.75 15.8 20.8 15.6 20.9 15.45 21.0 15.25 21.15 15.1 21.25 14.9 21.35 14.75 21.45 14.55 21.55 14.4 21.65 14.25 21.75 14.05 21.85 13.9 21.95 13.7 22.0 13.5 22.1 13.35 22.15 13.15 22.2 12.95 22.3 12.75 22.35 12.6 22.4 12.4 22.45 12.2 22.5 12.0 22.55 11.75 22.6 11.55 22.65 11.3 22.7 11.05 22.7 10.85 22.75 10.6 22.75 10.35 22.8 10.15 22.8 9.9 22.8 9.65 22.8 9.45 22.75 9.2 22.75 8.95 22.75 8.75 22.7 8.5 22.65 8.25 22.6 8.2 22.6 8.2 22.6 8.15 22.6 8.1 22.55 8.05 22.55 8.05 22.55 8.0 22.55 7.95 22.55 7.95 22.5 7.9 22.5 7.9 22.5 7.85 22.5 7.8 22.45 7.8 22.45 7.75 22.4 7.75 22.4 7.75 22.35 7.75 22.25 7.75 22.15 7.7 22.15 7.65 21.8 7.6 21.4 7.5 21.05 7.45 20.65 7.4 20.3 7.3 19.95 7.25 19.55 7.15 19.2 7.05 18.85 7.0 18.45 6.9 18.1 6.8 17.75 6.7 17.4 6.6 17.0 6.5 16.65 6.4 16.3 6.4 16.25 6.4 16.25 6.35 16.2 6.35 16.15 6.35 16.1 6.35 16.1 6.3 16.05 6.3 16.05 6.3 16.0 6.3 15.95 6.3 15.9 6.3 15.9 6.3 15.85 6.3 15.8 6.3 15.75 6.3 15.75 6.4 15.75 6.5 15.75 6.55 15.75 6.65 15.75 6.7 15.75 6.85 15.75 6.95 15.75 7.0 15.75 7.1 15.75 7.15 15.75 7.25 15.75 7.35 15.7 7.45 15.7 7.5 15.7 7.6 15.7 7.7 15.65 8.1 15.65 8.5 15.6 8.95 15.55 9.3 15.45 9.7 15.35 10.1 15.25 10.5 15.15 10.85 15.0 11.2 14.85 11.55 14.7 11.9 14.5 12.25 14.3 12.6 14.05 12.9 13.8 13.2 13.55 13.5 13.25 13.55 13.2 13.6 13.15 13.65 13.1 13.7 13.05 13.7 13.0 13.75 13.0 13.8 12.95 13.85 12.9 13.9 12.85 13.95 12.8 14.0 12.75 14.05 12.7 14.1 12.7 14.15 12.65 14.2 12.6 14.25 12.55 14.5 12.35 14.75 12.15 15.0 11.95 15.25 11.8 15.5 11.7 15.8 11.6 16.05 11.45 16.35 11.4 16.65 11.35 16.9 11.35 17.2 11.3 17.5 11.35 17.8 11.35 18.1 11.45 18.45 11.5 18.75 11.6 18.85 11.65 18.9 11.65 19.0 11.7 19.05 11.7 19.15 11.75 19.25 11.8 19.3 11.8 19.4 11.85 19.45 11.9 19.55 11.95 19.6 11.95 19.7 12.0 19.75 12.05 19.85 12.1 19.9 12.15 20.0 12.2 20.05 12.25 20.1 12.25 20.15 12.3 20.25 12.35 20.3 12.35 20.35 12.4 20.4 12.4 20.45 12.4 20.5 12.45 20.6 12.45 20.65 12.45 20.7 12.5 20.8 12.5 20.85 12.5 20.9 12.5 21.0 12.5 25.7 13.0 25.95 13.05 26.0 13.05 26.1 13.05 26.15 13.05 26.2 13.05 26.3 13.05 26.35 13.05 26.4 13.05 26.5 13.05 26.55 13.05 26.6 13.0 26.65 13.0 26.75 13.0 26.8 13.0 26.85 12.95 26.9 12.95 27.0 12.9 27.15 12.85 27.25 12.8 27.35 12.75 27.45 12.7 27.6 12.65 27.7 12.6 27.8 12.55 27.9 12.5 28.05 12.45 28.15 12.35 28.25 12.3 28.35 12.2 28.45 12.15 28.55 12.05 28.65 11.95 28.75 11.85 29.0 11.6 29.0 11.5 29.1 11.25 29.2 11.05 29.3 10.85 29.45 10.65 29.6 10.45 29.7 10.25 29.85 10.05 30.05 9.9 30.2 9.7 30.35 9.55 30.5 9.4 30.7 9.25 30.9 9.1 31.1 8.95 31.3 8.8 31.5 8.65 31.7 8.5 31.75 8.5 31.85 8.45 31.95 8.5 32.0 8.55 32.15 8.75 33.7 10.6 36.6 14.1 36.65 14.15 36.85 14.4 36.65 14.45 36.45 14.5 36.2 14.55 36.0 14.65 35.8 14.7 35.65 14.75 35.45 14.85 35.25 14.95 35.05 15.0 34.9 15.1 34.7 15.2 34.5 15.3 34.35 15.45 34.2 15.55 34.0 15.65 33.85 15.8 33.8 15.8 33.8 15.8 33.75 15.75 33.7 15.75 33.7 15.75 33.65 15.7 33.65 15.7 33.6 15.65 33.6 15.65 33.6 15.6 33.55 15.6 33.55 15.55 33.5 15.5 33.5 15.5 33.5 15.45 33.45 15.45 31.65 13.2 30.25 11.5 30.25 11.45 30.2 11.45 30.2 11.4 30.15 11.4 30.15 11.35 30.1 11.3 30.1 11.3 30.05 11.25 30.05 11.25 30.0 11.2 30.0 11.2 29.95 11.15 29.95 11.15 29.9 11.15 29.85 11.1 29.8 11.1 29.75 11.25 29.7 11.35 29.7 11.5 29.65 11.6 29.65 11.75 29.6 11.85 29.6 12.0 29.6 12.15 29.6 12.25 29.6 12.4 29.6 12.5 29.6 12.65 29.6 12.8 29.6 12.9 29.65 13.05 29.65 13.15 29.7 13.35 29.75 13.6 29.8 13.8 29.9 14.0 29.95 14.2 30.05 14.45 30.15 14.6 30.25 14.8 30.35 15.0 30.45 15.2 30.55 15.4 30.65 15.6 30.8 15.75 30.9 15.95 31.05 16.15 31.15 16.3 31.9 17.25 32.15 17.45 L32.15 17.45" fill="#000000" fill-opacity="0.56078434" fill-rule="evenodd" stroke="none"/>
    <path d="M-15.5 -16.75 Q-15.5 -16.6 -15.55 -16.45 -15.55 -16.35 -15.6 -16.2 -15.6 -16.05 -15.65 -15.95 -15.7 -15.8 -15.8 -15.7 -15.85 -15.55 -15.9 -15.45 -16.0 -15.35 -16.05 -15.2 -16.1 -15.1 -16.2 -14.95 -16.25 -14.9 -16.35 -14.7 -14.7 -13.55 -13.05 -12.45 -11.35 -11.35 -9.7 -10.35 -7.95 -9.3 -6.25 -8.35 -4.5 -7.4 -2.75 -6.5 -0.95 -5.6 0.85 -4.85 2.7 -4.0 4.55 -3.3 6.4 -2.6 8.3 -2.0 10.2 -1.4 12.15 -0.85 11.95 -0.85 11.2 -0.9 10.65 -0.95 10.3 -1.0 10.2 -1.0 9.35 -1.1 8.75 -1.15 8.4 -1.25 7.95 -1.3 7.55 -1.35 7.1 -1.45 6.7 -1.5 6.25 -1.55 5.85 -1.65 5.4 -1.7 5.0 -1.8 4.55 -1.9 4.15 -1.95 3.7 -2.05 3.3 -2.15 2.9 -2.25 2.45 -2.35 2.05 -2.45 1.6 -2.6 1.3 -2.7 1.0 -2.75 0.7 -2.85 0.4 -2.95 0.05 -3.05 -0.25 -3.15 -0.55 -3.25 -0.85 -3.35 -1.15 -3.45 -1.45 -3.55 -1.75 -3.65 -2.05 -3.8 -2.35 -3.9 -2.65 -4.05 -2.95 -4.15 -3.25 -4.3 -3.3 -4.3 -3.3 -4.35 -3.35 -4.35 -3.4 -4.35 -3.45 -4.35 -3.5 -4.35 -3.55 -4.4 -3.6 -4.4 -3.65 -4.65 -3.75 -4.9 -3.85 -5.15 -3.95 -5.4 -4.1 -5.6 -4.25 -5.8 -4.4 -6.0 -4.55 -6.15 -4.75 -6.35 -4.95 -6.45 -5.15 -6.6 -5.4 -6.7 -5.6 -6.8 -5.85 -6.9 -6.1 -6.95 -6.35 -6.95 -6.4 -6.95 -6.5 -6.95 -6.55 -6.95 -6.6 -6.95 -6.7 -6.95 -6.75 -6.95 -6.7 -6.95 -6.9 -6.95 -6.95 -6.95 -7.0 -6.95 -7.1 -6.95 -7.15 -6.95 -7.2 -6.95 -7.25 -6.95 -7.35 -6.95 -7.4 -7.0 -7.5 -6.95 -7.6 -7.0 -7.6 -7.05 -7.75 -7.1 -11.25 -9.85 -15.6 -13.75 -15.9 -14.05 -16.5 -14.55 -16.7 -14.35 -16.85 -14.15 -17.05 -13.9 -17.2 -13.7 -17.4 -13.5 -17.6 -13.25 -17.75 -13.05 -17.95 -12.8 -18.15 -12.6 -18.3 -12.35 -18.5 -12.15 -18.7 -11.9 -18.85 -11.65 -19.05 -11.45 -19.25 -11.2 -19.45 -10.95 -20.4 -9.7 -20.95 -8.9 -21.0 -8.9 -21.0 -8.9 -21.05 -8.9 -21.1 -8.9 -21.15 -8.95 -21.15 -8.95 -21.2 -8.95 -21.25 -8.95 -21.3 -8.95 -21.35 -8.95 -21.4 -8.95 -21.45 -8.95 -21.5 -8.95 -21.55 -8.95 -21.6 -8.9 -21.65 -8.9 -21.9 -8.85 -22.15 -8.8 -22.4 -8.7 -22.6 -8.6 -22.85 -8.5 -23.05 -8.35 -23.25 -8.25 -23.4 -8.05 -23.6 -7.9 -23.75 -7.75 -23.9 -7.55 -24.05 -7.4 -24.15 -7.2 -24.25 -7.0 -24.35 -6.85 -24.45 -6.65 -24.5 -6.5 -24.55 -6.4 -24.6 -6.3 -24.6 -6.15 -24.65 -6.05 -24.65 -6.0 -24.7 -5.9 -24.7 -5.8 -24.7 -5.75 -24.75 -5.7 -24.75 -5.6 -24.75 -5.55 -24.75 -5.5 -24.7 -5.45 -24.7 -5.45 -24.7 -5.4 -24.7 -5.35 -24.65 -5.3 -24.65 -5.25 -24.6 -5.2 -24.6 -5.15 -24.55 -5.15 -24.55 -5.1 -24.5 -5.05 -24.5 -5.05 -24.45 -5.0 -24.45 -4.95 -24.4 -4.95 -24.4 -4.9 -24.35 -4.9 -24.35 -4.85 -24.3 -4.85 -24.35 -4.85 -24.35 -4.85 -24.4 -4.8 -24.4 -4.8 -24.45 -4.8 -24.5 -4.75 -24.5 -4.75 -24.55 -4.75 -24.6 -4.7 -24.6 -4.7 -24.65 -4.65 -24.7 -4.65 -24.75 -4.6 -24.8 -4.6 -24.85 -4.55 -24.85 -4.55 -25.0 -4.45 -25.15 -4.35 -25.25 -4.25 -25.35 -4.15 -25.45 -4.05 -25.55 -3.95 -25.65 -3.85 -25.75 -3.75 -25.8 -3.65 -25.95 -3.5 -26.05 -3.3 -26.15 -3.25 -26.25 -3.05 -26.4 -2.95 -26.55 -2.75 -26.7 -2.6 -26.75 -2.5 -26.8 -2.45 -26.9 -2.4 -26.95 -2.35 -27.0 -2.25 -27.05 -2.2 -27.1 -2.15 -27.15 -2.1 -27.25 -2.0 -27.3 -1.95 -27.35 -1.9 -27.4 -1.85 -27.5 -1.8 -27.55 -1.75 -27.6 -1.65 -27.65 -1.6 -27.75 -1.5 -27.85 -1.45 -27.9 -1.4 -27.95 -1.35 -28.05 -1.3 -28.05 -1.25 -28.1 -1.2 -28.15 -1.15 -28.15 -1.1 -28.15 -1.0 -28.15 -0.95 -28.15 -0.85 -28.1 -0.8 -28.1 -0.7 -28.05 -0.6 -28.05 -0.5 -27.95 -0.25 -27.85 -0.05 -27.75 0.15 -27.65 0.35 -27.5 0.5 -27.4 0.7 -27.25 0.85 -27.1 1.0 -26.9 1.15 -26.75 1.3 -26.6 1.4 -26.4 1.55 -26.2 1.65 -26.0 1.75 -25.8 1.85 -25.55 1.9 -25.25 2.0 -24.9 2.15 -24.55 2.25 -24.25 2.35 -23.9 2.4 -23.55 2.5 -23.25 2.6 -22.9 2.65 -22.55 2.7 -22.2 2.8 -21.9 2.85 -21.55 2.9 -21.2 2.95 -20.85 2.95 -20.5 3.0 -20.15 3.0 -20.3 3.35 -20.65 4.05 -20.95 4.75 -21.1 5.1 -21.2 5.35 -21.25 5.4 -21.3 5.45 -21.4 5.5 -21.45 5.5 -21.7 5.45 -24.75 4.85 -26.4 4.4 -26.95 4.25 -27.45 4.15 -27.95 4.0 -28.5 3.85 -29.0 3.7 -29.5 3.55 -30.05 3.4 -30.55 3.25 -31.05 3.1 -31.55 2.9 -32.1 2.75 -32.6 2.55 -33.1 2.35 -33.6 2.2 -34.1 2.0 -34.6 1.75 -34.9 1.65 -35.0 1.6 -35.15 1.55 -35.95 1.15 -35.95 1.1 -35.95 1.05 -35.9 1.05 -35.9 1.0 -35.9 0.95 -35.85 0.9 -35.85 0.9 -35.85 0.85 -35.8 0.85 -35.8 0.8 -35.75 0.8 -35.75 0.75 -35.7 0.7 -35.7 0.7 -35.65 0.65 -35.65 0.65 -35.15 0.0 -34.65 -0.65 -34.15 -1.3 -33.65 -1.95 -33.15 -2.6 -32.6 -3.25 -32.1 -3.9 -31.55 -4.5 -31.0 -5.15 -30.5 -5.75 -29.95 -6.4 -29.4 -7.0 -28.85 -7.6 -28.3 -8.25 -27.75 -8.85 -27.15 -9.45 -23.85 -13.05 -19.35 -17.35 -19.3 -17.4 -19.3 -17.4 -19.25 -17.45 -19.25 -17.45 -19.2 -17.45 -19.2 -17.5 -19.15 -17.5 -19.15 -17.55 -19.1 -17.55 -19.1 -17.55 -19.05 -17.6 -19.05 -17.6 -19.0 -17.6 -19.0 -17.6 -18.95 -17.6 -18.9 -17.6 -18.85 -17.6 -18.8 -17.6 -18.75 -17.65 -18.7 -17.6 -18.7 -17.6 -18.65 -17.6 -18.6 -17.6 -18.6 -17.6 -18.55 -17.6 -18.5 -17.6 -18.5 -17.6 -18.5 -17.55 -18.45 -17.55 -18.45 -17.55 -18.0 -17.4 -15.5 -16.75 L-15.5 -16.75" fill="#000000" fill-opacity="0.21960784" fill-rule="evenodd" stroke="none"/>
    <path d="M-20.45 10.55 Q-18.55 10.85 -18.4 10.9 -18.25 10.95 -18.1 11.0 -18.0 11.05 -17.85 11.1 -17.75 11.2 -17.6 11.25 -17.5 11.35 -17.35 11.45 -17.25 11.5 -17.15 11.6 -17.05 11.7 -16.95 11.8 -16.85 11.9 -16.75 12.05 -16.65 12.15 -16.55 12.25 -16.4 12.45 -16.25 12.6 -16.1 12.8 -15.9 12.95 -15.75 13.1 -15.55 13.25 -15.35 13.4 -15.15 13.5 -14.95 13.6 -14.75 13.7 -14.55 13.8 -14.35 13.9 -14.1 14.0 -13.9 14.05 -13.65 14.1 -13.4 14.15 -13.2 14.2 -13.0 14.25 -12.8 14.25 -12.6 14.3 -12.4 14.3 -12.2 14.35 -12.05 14.35 -11.85 14.35 -11.65 14.35 -11.45 14.35 -11.25 14.35 -11.05 14.35 -10.85 14.35 -10.65 14.3 -10.45 14.3 -10.25 14.25 -10.0 14.25 -9.75 14.2 -9.55 14.15 -9.3 14.15 -9.05 14.1 -8.8 14.05 -8.55 14.0 -8.35 13.95 -8.1 13.9 -7.85 13.85 -7.65 13.8 -7.4 13.7 -7.15 13.65 -6.9 13.6 -6.7 13.55 -6.45 13.45 -6.05 13.35 -5.35 13.15 -4.6 12.9 -4.25 12.8 -4.2 12.8 -4.1 12.75 -4.05 12.75 -3.95 12.75 -3.85 12.75 -3.8 12.7 -3.7 12.7 -3.65 12.7 -3.55 12.7 -3.5 12.7 -3.4 12.7 -3.35 12.7 -3.25 12.7 -3.2 12.7 -3.1 12.75 -3.0 12.75 -2.95 12.75 -2.7 12.8 -2.5 12.8 -2.4 12.85 -2.25 12.85 -2.1 12.85 -1.95 12.9 -1.8 12.9 -1.6 12.95 -1.5 13.0 -1.3 13.0 -1.2 13.05 -1.0 13.1 -0.9 13.15 -0.75 13.2 -0.6 13.25 -0.45 13.3 -0.25 13.4 -0.1 13.45 0.05 13.55 0.2 13.6 0.35 13.7 0.5 13.8 0.65 13.85 0.8 13.95 0.95 14.05 1.1 14.15 1.25 14.25 1.4 14.35 1.5 14.5 1.65 14.6 1.8 14.7 1.85 14.75 1.85 14.75 1.9 14.8 1.9 14.85 1.95 14.85 2.0 14.9 2.05 14.9 2.05 14.95 2.1 14.95 2.15 15.0 2.15 15.0 2.25 15.0 2.35 15.05 2.45 15.1 2.5 15.1 2.6 15.1 2.65 15.1 2.75 15.1 2.85 15.1 2.95 15.1 3.05 15.1 3.15 15.1 3.25 15.1 3.4 15.1 3.55 15.05 3.65 15.05 3.8 15.0 3.95 15.0 4.1 14.95 4.25 14.95 4.3 14.95 4.3 14.95 4.35 14.95 4.4 14.95 4.4 14.95 4.45 14.95 4.45 14.95 4.5 14.95 4.55 14.95 4.55 14.95 4.6 15.0 4.65 15.0 4.65 15.0 4.7 15.0 4.75 15.0 4.75 15.0 4.8 15.0 4.85 15.05 4.9 15.05 4.95 15.05 5.0 15.05 5.05 15.1 5.05 15.1 5.1 15.1 5.15 15.15 5.2 15.15 5.25 15.15 5.3 15.15 5.3 15.2 5.35 15.2 5.4 15.2 5.4 15.25 5.7 15.15 6.25 14.95 6.2 15.0 6.2 15.05 6.15 15.1 6.15 15.15 6.1 15.2 6.05 15.25 6.05 15.3 6.0 15.4 5.95 15.45 5.9 15.5 5.9 15.6 5.85 15.65 5.8 15.75 5.8 15.8 5.75 15.9 5.7 15.95 5.65 16.05 5.6 16.15 5.55 16.3 5.5 16.45 5.45 16.6 5.4 16.75 5.35 16.95 5.3 17.15 5.2 17.4 5.15 17.65 5.1 17.9 5.05 18.1 5.0 18.4 5.0 18.65 4.95 18.9 4.95 19.2 4.95 19.3 4.95 19.4 4.95 19.5 4.95 19.6 4.95 19.7 4.95 19.85 4.95 19.95 4.95 20.05 4.95 20.15 4.95 20.25 4.95 20.35 4.95 20.45 4.95 20.55 4.95 20.7 4.95 20.8 4.95 20.9 4.95 20.9 4.95 20.95 4.95 21.0 4.95 21.0 5.0 21.05 5.0 21.05 5.0 21.1 5.0 21.1 5.0 21.15 4.95 21.15 4.95 21.2 4.95 21.2 4.95 21.25 4.9 21.25 4.85 21.3 4.85 21.3 4.55 21.15 4.2 21.05 3.9 20.95 3.6 20.85 3.25 20.75 2.95 20.65 2.65 20.55 2.3 20.5 2.0 20.4 1.65 20.35 1.35 20.3 1.0 20.25 0.7 20.2 0.35 20.2 0.0 20.15 -0.3 20.15 -0.6 20.15 -0.85 20.15 -1.15 20.2 -1.4 20.2 -1.7 20.25 -1.95 20.3 -2.2 20.35 -2.45 20.45 -2.75 20.5 -3.0 20.6 -3.25 20.7 -3.5 20.8 -3.75 20.9 -3.95 21.05 -4.2 21.2 -4.45 21.35 -4.55 21.4 -4.65 21.5 -4.8 21.55 -4.9 21.6 -5.0 21.65 -5.15 21.7 -5.25 21.8 -5.35 21.85 -5.5 21.9 -5.6 21.95 -5.75 22.0 -5.85 22.05 -6.0 22.05 -6.1 22.1 -6.25 22.15 -6.35 22.2 -6.4 22.2 -6.45 22.25 -6.5 22.25 -6.55 22.25 -6.6 22.25 -6.65 22.25 -6.7 22.25 -6.75 22.25 -6.55 21.7 -6.4 21.2 -6.25 20.65 -6.15 20.15 -6.05 19.6 -6.0 19.1 -5.95 18.55 -5.9 18.05 -5.9 17.5 -5.95 16.95 -5.95 16.45 -6.05 15.9 -6.1 15.35 -6.25 14.8 -6.35 14.3 -6.55 13.75 -6.6 13.85 -6.65 13.95 -6.75 14.1 -6.75 14.15 -6.85 14.4 -7.0 14.65 -7.1 14.9 -7.2 15.15 -7.3 15.4 -7.4 15.65 -7.5 15.9 -7.6 16.15 -7.7 16.4 -7.8 16.65 -7.85 16.9 -7.95 17.15 -8.05 17.4 -8.1 17.65 -8.2 17.95 -8.25 18.2 -8.3 18.45 -8.4 18.7 -8.45 18.95 -8.5 19.2 -8.6 19.5 -8.65 19.75 -8.7 20.0 -8.75 20.25 -8.8 20.5 -8.85 20.75 -8.85 21.05 -8.9 21.3 -8.95 21.55 -8.95 21.8 -8.95 22.1 -9.0 22.35 -9.1 22.35 -9.2 22.35 -9.3 22.35 -9.45 22.35 -9.55 22.3 -9.65 22.3 -9.75 22.3 -9.85 22.25 -9.95 22.25 -10.05 22.2 -10.15 22.15 -10.25 22.15 -10.35 22.1 -10.5 22.05 -10.55 22.05 -10.7 22.0 -10.9 21.9 -11.1 21.85 -11.3 21.75 -11.5 21.7 -11.7 21.6 -11.9 21.5 -12.05 21.4 -12.25 21.3 -12.45 21.2 -12.65 21.1 -12.8 21.0 -13.0 20.85 -13.15 20.75 -13.35 20.6 -13.5 20.5 -13.7 20.35 -13.9 20.2 -14.1 20.0 -14.3 19.85 -14.5 19.7 -14.75 19.55 -14.95 19.4 -15.15 19.3 -15.4 19.15 -15.6 19.05 -15.85 18.9 -16.1 18.8 -16.35 18.7 -16.6 18.6 -16.8 18.5 -17.05 18.45 -17.35 18.35 -17.6 18.3 -17.85 18.2 -18.15 18.15 -18.4 18.1 -18.65 18.1 -18.9 18.05 -19.2 18.05 -19.45 18.05 -19.7 18.05 -20.0 18.05 -20.25 18.05 -20.5 18.1 -20.8 18.1 -21.05 18.15 -21.3 18.2 -21.6 18.25 -21.7 18.2 -21.7 18.2 -21.75 18.2 -21.75 18.15 -21.7 18.05 -21.65 17.95 -21.6 17.8 -21.6 17.75 -21.5 17.4 -21.35 17.1 -21.25 16.8 -21.15 16.45 -21.05 16.1 -20.95 15.8 -20.85 15.45 -20.8 15.15 -20.7 14.8 -20.65 14.45 -20.6 14.15 -20.55 13.8 -20.5 13.45 -20.45 13.1 -20.45 12.75 -20.4 12.45 -20.4 12.15 -20.4 11.5 -20.45 10.9 -20.45 10.55 L-20.45 10.55" fill="#000000" fill-opacity="0.56078434" fill-rule="evenodd" stroke="none"/>
    <path d="M-29.85 18.55 Q-29.9 18.55 -29.9 18.55 -29.95 18.55 -30.0 18.55 -30.0 18.55 -30.05 18.55 -30.1 18.55 -30.1 18.55 -30.15 18.55 -30.2 18.55 -30.2 18.5 -30.25 18.5 -30.3 18.5 -30.3 18.5 -30.35 18.5 -30.35 18.45 -30.6 18.35 -30.85 18.25 -31.1 18.15 -31.35 18.0 -31.55 17.9 -31.8 17.75 -32.0 17.6 -32.25 17.45 -32.45 17.3 -32.65 17.15 -32.85 17.0 -33.05 16.8 -33.25 16.6 -33.4 16.45 -33.6 16.25 -33.75 16.05 -34.05 15.7 -34.4 15.35 -34.7 15.0 -35.05 14.65 -35.35 14.3 -35.7 14.0 -36.05 13.7 -36.45 13.45 -36.8 13.15 -37.2 12.9 -37.6 12.6 -38.0 12.4 -38.4 12.15 -38.85 11.95 -39.25 11.75 -39.7 11.6 -39.85 11.55 -40.0 11.5 -40.15 11.45 -40.3 11.4 -40.45 11.35 -40.65 11.3 -40.8 11.3 -41.0 11.25 -41.2 11.2 -41.4 11.2 -41.6 11.15 -41.85 11.15 -42.1 11.1 -42.35 11.1 -42.65 11.1 -42.95 11.1 -41.7 10.05 -41.6 10.0 -40.45 9.05 -37.9 7.0 -37.55 6.7 -36.8 6.1 -36.8 6.1 -36.7 6.05 -36.65 6.0 -36.65 6.0 -36.55 6.0 -36.4 6.0 -36.35 5.95 -36.2 5.95 -36.05 5.95 -35.95 5.9 -35.85 5.9 -35.75 5.9 -35.65 5.9 -35.55 5.9 -35.4 5.9 -35.3 5.9 -35.2 5.95 -35.1 5.95 -34.95 6.0 -34.85 6.05 -34.75 6.1 -34.6 6.2 -34.5 6.25 -34.4 6.35 -34.25 6.4 -34.15 6.5 -34.05 6.55 -33.95 6.65 -33.8 6.75 -33.7 6.8 -33.6 6.9 -33.5 7.0 -33.4 7.1 -33.3 7.2 -33.2 7.3 -33.1 7.4 -31.5 9.15 -30.75 9.75 -30.5 9.95 -30.3 10.1 -30.05 10.25 -29.8 10.4 -29.55 10.55 -29.3 10.7 -29.05 10.8 -28.75 10.95 -28.5 11.05 -28.25 11.15 -27.95 11.2 -27.7 11.3 -27.4 11.35 -27.1 11.4 -26.8 11.45 -26.5 11.5 -26.45 11.5 -26.15 11.55 -26.15 11.7 -26.35 12.25 -27.05 14.15 -29.85 18.55 L-29.85 18.55" fill="#000000" fill-opacity="0.6784314" fill-rule="evenodd" stroke="none"/>
    <path d="M-11.05 2.55 Q-10.8 2.75 -10.55 2.95 -10.35 3.15 -10.05 3.3 -9.8 3.45 -9.55 3.6 -9.3 3.75 -9.0 3.85 -8.75 4.0 -8.45 4.1 -8.2 4.2 -7.9 4.3 -7.6 4.4 -7.3 4.5 -7.05 4.6 -6.7 4.65 -5.4 5.05 -3.0 5.4 0.1 5.9 5.85 6.05 8.2 6.1 11.15 5.95 11.7 5.9 12.25 5.9 12.8 5.85 13.35 5.8 13.9 5.75 14.45 5.7 15.0 5.65 15.55 5.6 16.1 5.55 16.65 5.45 17.2 5.4 17.7 5.3 18.25 5.2 18.8 5.1 19.35 5.0 19.9 4.9 20.25 4.85 20.55 4.75 20.85 4.7 21.15 4.6 21.45 4.55 21.75 4.45 22.1 4.35 22.4 4.3 22.7 4.2 23.0 4.1 23.3 4.0 23.6 3.9 23.9 3.75 24.2 3.65 24.5 3.5 24.8 3.35 25.05 3.25 25.25 3.15 25.45 3.0 25.65 2.9 25.85 2.8 26.05 2.65 26.3 2.5 26.45 2.35 26.65 2.25 26.85 2.05 27.05 1.9 27.2 1.75 27.4 1.6 27.55 1.4 27.7 1.2 27.85 1.0 27.9 0.95 27.95 0.9 28.0 0.8 28.05 0.7 28.1 0.6 28.15 0.5 28.2 0.4 28.25 0.25 28.3 0.15 28.35 0.0 28.45 -0.15 28.5 -0.3 28.55 -0.45 28.6 -0.65 28.7 -0.8 28.75 -0.95 28.9 -1.5 29.05 -1.9 29.1 -1.7 29.3 -1.15 29.4 -0.85 29.55 -0.5 29.7 -0.2 29.75 -0.05 29.85 0.25 29.95 0.55 30.05 0.8 30.1 1.05 30.15 1.25 30.2 1.45 30.25 1.6 30.25 1.85 30.35 2.35 30.35 2.15 30.35 2.3 30.4 2.45 30.4 2.55 30.45 2.7 30.5 2.8 30.55 2.9 30.55 2.9 30.6 2.95 30.6 3.0 30.6 3.0 30.65 3.05 30.65 3.1 30.65 3.15 30.65 3.2 30.65 3.25 30.65 3.3 30.65 3.35 30.6 3.35 30.55 3.4 30.5 3.45 30.45 3.5 30.3 3.55 30.0 3.7 29.7 3.9 29.4 4.05 29.1 4.2 28.8 4.35 28.5 4.5 28.2 4.6 27.85 4.75 27.55 4.85 27.2 5.0 26.9 5.1 26.55 5.2 26.25 5.3 25.9 5.4 25.6 5.5 25.25 5.6 24.8 5.7 24.35 5.85 23.9 5.95 23.45 6.05 23.0 6.15 22.55 6.25 22.1 6.35 21.6 6.4 21.15 6.5 20.7 6.6 20.25 6.65 19.75 6.7 19.3 6.8 18.85 6.85 18.4 6.9 17.9 6.95 17.35 7.0 16.75 7.1 16.2 7.15 15.6 7.2 15.05 7.25 14.45 7.3 13.9 7.3 13.3 7.35 12.7 7.4 12.15 7.4 11.55 7.45 11.0 7.5 10.4 7.5 9.8 7.5 9.25 7.55 8.65 7.55 6.8 7.6 4.0 7.55 -0.65 7.4 -0.65 7.4 -2.65 7.4 -5.65 7.2 -10.7 6.85 -10.65 6.85 -10.65 6.85 -10.7 6.85 -10.8 6.85 -10.85 6.85 -10.95 6.85 -11.0 6.8 -11.05 6.8 -11.05 6.8 -11.1 6.8 -11.1 6.75 -11.15 6.75 -11.15 6.7 -11.15 6.65 -11.15 6.6 -11.2 6.6 -11.2 6.5 -11.2 6.45 -11.15 6.35 -11.15 5.85 -11.1 4.3 -11.1 3.45 -11.05 2.55 L-11.05 2.55" fill="#000000" fill-opacity="0.21960784" fill-rule="evenodd" stroke="none"/>
    <path d="M-3.75 8.4 Q-3.3 8.4 -1.15 8.45 0.45 8.5 1.45 8.55 2.05 8.55 2.7 8.6 3.3 8.6 3.95 8.6 4.55 8.6 5.15 8.6 5.8 8.6 6.4 8.6 7.05 8.6 7.65 8.6 8.25 8.6 8.9 8.6 9.5 8.55 10.15 8.55 10.75 8.55 11.35 8.5 11.7 8.5 12.55 8.45 12.6 8.45 12.65 8.5 12.65 8.5 12.7 8.55 12.7 8.55 12.7 8.6 12.7 8.6 12.7 8.65 12.7 8.65 12.7 8.7 12.7 8.7 12.65 8.75 12.65 8.75 12.6 8.8 12.6 8.85 12.6 8.85 12.5 9.05 12.4 9.3 12.3 9.5 12.25 9.75 12.15 9.95 12.1 10.2 12.05 10.4 12.05 10.65 12.0 10.85 12.0 11.1 11.95 11.35 11.95 11.6 11.95 11.8 11.95 12.05 11.95 12.25 11.95 12.55 11.95 12.6 11.95 12.6 11.95 12.65 11.95 12.65 11.95 12.7 11.95 12.75 11.95 12.75 11.95 12.8 11.95 12.8 12.0 12.85 12.0 12.9 12.0 12.9 12.0 12.95 12.05 12.95 12.05 13.0 12.1 13.0 12.05 13.05 12.05 13.1 12.0 13.15 11.95 13.15 11.95 13.2 11.9 13.25 11.85 13.25 11.8 13.3 11.75 13.35 11.75 13.35 11.7 13.4 11.65 13.4 11.6 13.45 11.55 13.45 11.6 13.45 11.5 13.5 11.3 13.65 11.05 13.75 10.8 13.85 10.6 13.95 10.35 14.05 10.1 14.15 9.9 14.2 9.65 14.3 9.4 14.35 9.15 14.4 8.9 14.45 8.65 14.5 8.4 14.55 8.15 14.6 7.9 14.6 7.65 14.6 7.35 14.6 7.05 14.65 6.75 14.65 6.5 14.65 6.2 14.6 5.9 14.6 5.6 14.6 5.3 14.55 5.05 14.5 4.75 14.45 4.45 14.45 4.15 14.4 3.9 14.35 3.6 14.25 3.3 14.2 3.0 14.15 2.95 14.15 2.9 14.1 2.85 14.1 2.8 14.1 2.8 14.05 2.75 14.05 2.7 14.05 2.65 14.0 2.6 14.0 2.55 13.95 2.55 13.95 2.5 13.9 2.45 13.9 2.4 13.85 2.35 13.8 2.35 13.8 2.1 13.6 1.85 13.4 1.6 13.2 1.3 13.0 1.05 12.85 0.75 12.7 0.5 12.55 0.2 12.45 -0.1 12.3 -0.4 12.2 -0.65 12.1 -1.0 12.0 -1.3 11.95 -1.6 11.85 -1.9 11.8 -2.25 11.8 -2.4 11.8 -2.9 11.7 -3.25 11.65 -3.5 11.6 -3.5 11.4 -3.5 11.2 -3.5 11.0 -3.5 10.8 -3.5 10.6 -3.5 10.4 -3.5 10.2 -3.55 10.0 -3.55 9.8 -3.6 9.6 -3.6 9.4 -3.65 9.2 -3.65 9.0 -3.7 8.8 -3.75 8.6 -3.75 8.4 L-3.75 8.4" fill="#000000" fill-opacity="0.4509804" fill-rule="evenodd" stroke="none"/>
    <path d="M-13.7 -1.1 Q-13.65 -1.15 -13.65 -1.2 -13.6 -1.2 -13.55 -1.25 -13.55 -1.3 -13.5 -1.3 -13.5 -1.35 -13.45 -1.35 -13.45 -1.4 -13.4 -1.4 -13.35 -1.4 -13.35 -1.45 -13.3 -1.45 -13.3 -1.45 -13.3 -1.5 -13.25 -1.5 -13.2 -1.45 -13.15 -1.4 -13.1 -1.3 -13.05 -1.25 -13.0 -1.2 -12.95 -1.15 -12.9 -1.1 -12.85 -1.05 -12.8 -1.05 -12.75 -1.0 -12.7 -0.95 -12.65 -0.9 -12.6 -0.85 -12.55 -0.85 -12.45 -0.8 -12.4 -0.75 -12.3 -0.7 -12.3 -0.6 -12.3 -0.6 -12.3 -0.45 -12.15 3.25 -12.15 3.7 -12.15 4.05 -12.25 7.0 -12.25 7.15 -12.25 7.2 -12.25 7.3 -12.25 7.4 -12.25 7.5 -12.2 7.55 -12.2 7.6 -12.15 7.65 -12.1 7.7 -12.05 7.7 -12.0 7.75 -11.95 7.8 -11.85 7.8 -11.75 7.8 -11.7 7.85 -11.55 7.85 -8.7 8.05 -8.0 8.1 -7.0 8.15 -4.45 8.35 -4.45 8.4 -4.45 8.45 -4.45 8.5 -4.45 8.55 -4.45 8.55 -4.5 8.6 -4.5 8.65 -4.5 8.7 -4.55 8.85 -4.6 8.95 -4.7 9.1 -4.75 9.2 -4.8 9.35 -4.85 9.5 -4.9 9.6 -4.95 9.75 -5.0 9.9 -5.05 10.0 -5.1 10.15 -5.15 10.3 -5.2 10.4 -5.25 10.55 -5.3 10.7 -5.35 10.8 -5.65 11.95 -5.65 12.05 -5.9 12.15 -6.2 12.25 -6.45 12.35 -6.7 12.45 -7.0 12.5 -7.25 12.6 -7.55 12.65 -7.8 12.75 -8.05 12.8 -8.35 12.85 -8.6 12.95 -8.9 13.0 -9.15 13.05 -9.45 13.1 -9.7 13.15 -10.0 13.2 -10.15 13.2 -10.25 13.25 -10.4 13.25 -10.55 13.25 -10.7 13.25 -10.8 13.3 -10.95 13.3 -11.1 13.3 -11.2 13.3 -11.35 13.3 -11.5 13.3 -11.65 13.3 -11.75 13.3 -11.9 13.3 -12.05 13.3 -12.15 13.3 -12.45 13.3 -12.75 13.25 -13.05 13.2 -13.3 13.1 -13.6 13.05 -13.85 12.95 -14.1 12.85 -14.35 12.75 -14.6 12.6 -14.85 12.45 -15.05 12.3 -15.25 12.1 -15.45 11.9 -15.65 11.7 -15.85 11.45 -16.0 11.2 -15.9 10.6 -15.7 9.7 -15.4 8.4 -15.35 8.2 -14.7 5.25 -14.55 4.0 -14.2 2.1 -14.15 1.55 -14.1 1.4 -14.1 1.2 -14.05 1.05 -14.05 0.9 -14.05 0.7 -14.0 0.55 -14.0 0.4 -13.95 0.25 -13.95 0.1 -13.95 -0.05 -13.9 -0.15 -13.9 -0.3 -13.9 -0.4 -13.85 -0.55 -13.85 -0.65 -13.85 -0.8 -13.85 -0.85 -13.85 -0.85 -13.8 -0.9 -13.8 -0.9 -13.8 -0.95 -13.75 -1.0 -13.75 -1.0 -13.75 -1.05 -13.7 -1.1 -13.7 -1.1 L-13.7 -1.1" fill="#000000" fill-opacity="0.4509804" fill-rule="evenodd" stroke="none"/>
    <path d="M-24.4 10.25 Q-24.55 10.3 -24.65 10.35 -24.8 10.4 -24.95 10.4 -25.1 10.45 -25.25 10.45 -25.35 10.5 -25.5 10.5 -25.65 10.5 -25.8 10.5 -25.95 10.5 -26.1 10.45 -26.25 10.45 -26.4 10.45 -26.5 10.45 -26.65 10.4 -26.9 10.35 -27.15 10.3 -27.35 10.25 -27.6 10.2 -27.85 10.15 -28.05 10.05 -28.3 9.95 -28.5 9.9 -28.7 9.8 -28.9 9.65 -29.15 9.55 -29.35 9.45 -29.55 9.3 -29.75 9.15 -29.9 9.0 -30.1 8.85 -30.25 8.75 -30.4 8.6 -30.5 8.5 -30.65 8.4 -30.8 8.3 -30.9 8.15 -31.05 8.05 -31.15 7.9 -31.3 7.8 -31.4 7.65 -31.55 7.55 -31.65 7.4 -31.8 7.25 -31.9 7.15 -32.0 7.0 -32.15 6.85 -32.25 6.75 -32.35 6.65 -32.45 6.55 -32.5 6.45 -32.6 6.35 -32.7 6.25 -32.8 6.2 -32.9 6.1 -33.05 6.0 -33.15 5.9 -33.25 5.8 -33.35 5.75 -33.45 5.65 -33.55 5.6 -33.7 5.5 -33.8 5.4 -34.0 5.3 -34.15 5.2 -34.35 5.1 -34.5 5.0 -34.7 4.95 -34.9 4.85 -35.05 4.8 -35.25 4.75 -35.45 4.7 -35.65 4.65 -35.85 4.6 -36.05 4.55 -36.25 4.55 -36.45 4.5 -36.65 4.5 -36.85 4.5 -36.9 4.5 -37.0 4.45 -37.0 4.45 -37.1 4.4 -37.1 4.4 -36.55 3.95 -36.35 3.8 -36.0 3.45 -35.6 3.15 -35.45 3.0 -35.4 2.95 -35.35 2.9 -35.3 2.9 -35.25 2.85 -35.2 2.85 -35.15 2.8 -35.1 2.8 -35.05 2.8 -35.05 2.8 -35.0 2.8 -34.95 2.8 -34.9 2.8 -34.85 2.8 -34.8 2.85 -34.75 2.85 -34.65 2.85 -34.3 3.0 -33.95 3.15 -33.65 3.3 -33.3 3.4 -32.95 3.55 -32.6 3.7 -32.25 3.8 -31.9 3.95 -31.55 4.05 -31.2 4.15 -30.85 4.3 -30.5 4.4 -30.15 4.5 -29.75 4.6 -29.4 4.7 -29.05 4.8 -28.65 4.9 -28.25 5.05 -27.8 5.15 -27.4 5.25 -27.0 5.35 -26.6 5.45 -26.2 5.55 -25.75 5.65 -25.35 5.75 -24.95 5.85 -24.5 5.95 -24.1 6.05 -23.7 6.1 -23.25 6.2 -22.85 6.3 -22.45 6.35 -22.0 6.45 -21.9 6.5 -21.9 6.55 -21.95 6.6 -21.95 6.7 -22.0 6.7 -22.75 7.85 -24.4 10.25 L-24.4 10.25" fill="#000000" fill-opacity="0.6117647" fill-rule="evenodd" stroke="none"/>
    <path d="M14.05 8.35 Q14.8 8.3 15.5 8.25 16.25 8.2 16.9 8.1 17.65 8.05 18.35 7.95 19.05 7.9 19.75 7.8 20.5 7.7 21.2 7.55 21.9 7.45 22.6 7.3 23.3 7.15 24.0 7.0 24.7 6.85 25.4 6.65 25.45 6.65 25.5 6.65 25.55 6.65 25.55 6.65 25.55 6.8 25.5 7.1 25.4 7.45 25.4 7.6 25.4 7.85 25.4 8.1 25.4 8.3 25.4 8.55 25.4 8.8 25.45 9.05 25.45 9.25 25.5 9.5 25.55 9.7 25.6 9.95 25.6 10.2 25.7 10.4 25.75 10.65 25.8 10.9 25.85 11.1 25.95 11.35 26.1 11.85 26.05 11.95 25.95 11.95 25.85 11.95 25.75 11.95 25.65 11.9 25.6 11.9 25.45 11.9 25.3 11.85 25.25 11.85 25.15 11.85 25.05 11.85 24.95 11.85 24.85 11.85 24.75 11.8 24.65 11.8 24.55 11.8 24.45 11.85 24.25 11.8 24.05 11.8 23.8 11.75 23.6 11.75 23.4 11.7 23.2 11.7 22.95 11.65 22.75 11.65 22.55 11.6 22.35 11.6 22.15 11.6 21.9 11.55 21.7 11.55 21.5 11.5 21.3 11.5 21.05 11.45 21.0 11.45 21.0 11.45 20.95 11.45 20.9 11.45 20.85 11.4 20.85 11.4 20.8 11.4 20.75 11.4 20.75 11.4 20.7 11.35 20.65 11.35 20.6 11.35 20.6 11.3 20.55 11.3 20.5 11.25 20.5 11.25 20.35 11.15 20.2 11.1 20.0 11.0 19.85 10.9 19.7 10.85 19.55 10.75 19.35 10.7 19.2 10.65 19.05 10.6 18.85 10.55 18.7 10.5 18.5 10.45 18.35 10.4 18.15 10.35 18.0 10.35 17.8 10.3 17.6 10.3 17.35 10.25 17.15 10.25 16.95 10.3 16.7 10.3 16.5 10.3 16.3 10.35 16.1 10.4 15.9 10.45 15.7 10.5 15.5 10.55 15.3 10.65 15.1 10.7 14.9 10.8 14.7 10.9 14.5 11.0 14.45 11.0 14.45 11.05 14.45 11.05 14.4 11.1 14.35 11.1 14.35 11.15 14.3 11.15 14.25 11.15 14.25 11.2 14.2 11.2 14.15 11.2 14.15 11.25 14.1 11.25 14.05 11.25 14.05 11.3 14.0 11.3 13.75 10.35 13.3 8.45 13.3 8.45 13.3 8.45 13.3 8.45 13.3 8.45 13.35 8.45 13.4 8.45 13.45 8.45 13.5 8.45 13.55 8.45 13.6 8.45 13.65 8.45 13.7 8.45 13.75 8.45 13.8 8.45 13.8 8.45 13.85 8.4 13.9 8.4 13.95 8.4 14.0 8.4 14.05 8.35 L14.05 8.35" fill="#000000" fill-opacity="0.4509804" fill-rule="evenodd" stroke="none"/>
    <path d="M-29.85 18.55 Q-29.65 18.25 -29.35 17.8 -29.0 17.25 -28.9 17.05 -28.6 16.6 -28.4 16.25 -28.15 15.85 -27.95 15.5 -27.7 15.1 -27.5 14.7 -27.25 14.3 -27.05 13.9 -26.85 13.5 -26.7 13.1 -26.5 12.65 -26.35 12.25 -26.35 12.2 -26.3 12.15 -26.3 12.15 -26.3 12.1 -26.25 12.05 -26.25 12.0 -26.2 11.95 -26.2 11.9 -26.2 11.85 -26.2 11.85 -26.15 11.8 -26.15 11.75 -26.15 11.7 -26.15 11.65 -26.15 11.6 -26.15 11.55 -25.9 11.55 -25.65 11.55 -25.4 11.5 -25.1 11.5 -24.85 11.45 -24.6 11.4 -24.35 11.35 -24.1 11.3 -23.85 11.25 -23.6 11.2 -23.35 11.15 -23.1 11.05 -22.85 11.0 -22.6 10.9 -22.4 10.85 -22.1 10.75 -26.6 11.9 -22.0 10.7 -21.95 10.7 -21.9 10.7 -21.8 10.7 -21.75 10.65 -21.7 10.65 -21.65 10.65 -21.6 10.65 -21.55 10.6 -21.5 10.6 -21.45 10.6 -21.35 10.6 -21.3 10.6 -21.25 10.6 -21.2 10.6 -21.2 10.65 -21.2 10.65 -21.2 10.7 -21.2 10.75 -21.2 10.75 -21.2 10.8 -21.25 10.85 -21.25 10.85 -21.25 10.9 -21.25 10.95 -21.3 10.95 -21.3 11.0 -21.35 11.05 -21.35 11.05 -21.35 11.1 -21.35 11.15 -23.65 16.35 -24.1 17.7 -24.5 18.8 -24.5 18.9 -24.6 18.95 -24.65 18.95 -24.75 19.0 -24.85 19.0 -24.9 19.05 -25.0 19.05 -25.05 19.05 -25.15 19.05 -25.25 19.05 -25.3 19.05 -25.4 19.05 -25.5 19.05 -25.55 19.05 -25.65 19.05 -25.75 19.05 -25.8 19.05 -26.5 19.0 -29.75 18.6 -29.75 18.6 -29.85 18.55 L-29.85 18.55" fill="#000000" fill-opacity="0.56078434" fill-rule="evenodd" stroke="none"/>
    <path d="M-24.4 10.25 Q-23.4 8.8 -22.0 6.7 -22.0 6.7 -21.9 6.5 -21.8 6.5 -21.25 6.55 -21.15 6.55 -21.05 6.6 -20.95 6.6 -20.9 6.6 -20.85 6.6 -20.75 6.55 -20.7 6.55 -20.65 6.55 -20.6 6.5 -20.55 6.45 -20.55 6.45 -20.5 6.4 -20.45 6.3 -20.4 6.25 -20.4 6.2 -20.35 6.1 -19.45 3.95 -17.55 0.15 -17.45 -0.05 -17.3 -0.3 -17.05 -0.8 -17.05 -0.85 -17.0 -0.75 -16.9 -0.7 -16.85 -0.65 -16.8 -0.6 -16.75 -0.5 -16.65 -0.45 -16.6 -0.4 -16.55 -0.35 -16.45 -0.3 -16.4 -0.25 -16.3 -0.2 -16.25 -0.15 -16.15 -0.1 -16.1 -0.05 -16.0 -0.05 -15.95 0.0 -15.9 0.0 -15.9 0.05 -15.85 0.05 -15.85 0.05 -15.8 0.1 -15.75 0.1 -15.75 0.1 -15.7 0.1 -15.65 0.1 -15.65 0.15 -15.6 0.15 -15.55 0.15 -15.55 0.15 -15.5 0.2 -15.45 0.2 -15.45 0.2 -15.5 0.5 -15.65 1.0 -15.8 1.65 -15.8 1.8 -15.8 1.85 -17.85 9.5 -17.85 9.55 -17.85 9.55 -17.9 9.6 -17.9 9.6 -17.9 9.65 -17.9 9.7 -17.95 9.7 -17.95 9.75 -17.95 9.75 -18.0 9.8 -18.0 9.8 -18.05 9.8 -18.05 9.85 -18.1 9.85 -18.15 9.85 -18.15 9.85 -19.3 9.7 -19.55 9.65 -19.75 9.6 -19.95 9.55 -20.15 9.5 -20.35 9.5 -20.55 9.5 -20.75 9.5 -20.95 9.5 -21.15 9.5 -21.35 9.55 -21.55 9.55 -21.75 9.6 -21.95 9.65 -22.15 9.7 -22.35 9.75 -22.55 9.8 -22.75 9.85 -22.85 9.9 -22.95 9.9 -23.05 9.95 -23.15 10.0 -23.25 10.0 -23.35 10.05 -23.45 10.05 -23.55 10.1 -23.65 10.15 -23.75 10.15 -23.85 10.15 -23.95 10.2 -24.05 10.2 -24.15 10.2 -24.25 10.25 -24.4 10.25 L-24.4 10.25" fill="#000000" fill-opacity="0.4509804" fill-rule="evenodd" stroke="none"/>
    <path d="M-18.15 9.85 Q-18.1 9.85 -18.1 9.85 -18.05 9.85 -18.05 9.8 -18.0 9.8 -18.0 9.8 -17.95 9.75 -17.95 9.75 -17.95 9.7 -17.9 9.7 -17.9 9.65 -17.9 9.6 -17.9 9.6 -17.85 9.55 -17.85 9.55 -17.85 9.5 -15.9 2.1 -15.8 1.8 -15.75 1.5 -15.45 0.2 -15.5 0.2 -15.5 0.15 -15.55 0.15 -15.55 0.15 -15.6 0.15 -15.65 0.1 -15.65 0.1 -15.7 0.1 -15.75 0.1 -15.75 0.1 -15.8 0.1 -15.85 0.05 -15.85 0.05 -15.9 0.05 -15.9 0.0 -15.95 0.0 -15.9 0.0 -15.85 0.0 -15.8 0.0 -15.75 0.0 -15.7 0.0 -15.65 0.0 -15.6 0.0 -15.55 0.05 -15.35 0.05 -15.45 0.05 -15.4 0.05 -15.35 0.05 -15.3 0.1 -15.25 0.1 -15.2 0.1 -15.15 0.1 -15.05 0.1 -14.95 0.1 -14.9 0.05 -14.8 0.05 -14.7 0.0 -14.65 0.0 -14.55 -0.05 -14.5 -0.1 -14.4 -0.1 -14.35 -0.15 -14.25 -0.2 -14.2 -0.25 -13.35 -0.7 -14.05 -0.3 -13.95 -0.35 -13.9 -0.4 -13.9 -0.35 -14.15 1.55 -14.2 2.05 -14.35 2.8 -14.5 3.85 -14.55 4.0 -14.75 5.3 -15.35 8.2 -15.5 8.8 -15.7 9.7 -16.0 11.1 -16.0 11.2 -16.1 11.15 -16.15 11.05 -16.25 11.0 -16.3 10.95 -16.4 10.9 -16.45 10.8 -16.55 10.75 -16.6 10.7 -16.7 10.65 -16.75 10.6 -16.85 10.55 -16.95 10.45 -17.0 10.4 -17.1 10.35 -17.2 10.3 -17.25 10.25 -17.55 10.1 -18.15 9.85 L-18.15 9.85" fill="#000000" fill-opacity="0.6117647" fill-rule="evenodd" stroke="none"/>
    <path d="M25.7 6.6 Q26.05 6.5 26.35 6.4 26.7 6.3 27.05 6.15 27.35 6.05 27.7 5.95 28.0 5.8 28.35 5.7 28.65 5.55 29.0 5.4 29.3 5.25 29.6 5.1 29.95 4.95 30.25 4.8 30.55 4.65 30.9 4.45 31.4 5.4 32.4 7.25 32.2 7.3 31.95 7.35 31.75 7.4 31.55 7.45 31.35 7.5 31.15 7.6 31.0 7.7 30.8 7.8 30.65 7.9 30.5 8.05 30.3 8.15 30.15 8.3 30.0 8.4 29.85 8.55 29.7 8.7 29.55 8.85 29.1 9.3 28.15 10.65 28.1 10.6 28.05 10.6 28.0 10.55 28.0 10.5 27.2 9.3 25.8 6.9 25.75 6.85 25.75 6.85 25.7 6.8 25.7 6.75 25.7 6.7 25.7 6.65 25.65 6.6 25.7 6.6 L25.7 6.6" fill="#000000" fill-opacity="0.4509804" fill-rule="evenodd" stroke="none"/>
    <path d="M-9.0 22.35 Q-9.0 22.1 -8.95 21.8 -8.95 21.55 -8.9 21.3 -8.85 21.05 -8.85 20.75 -8.8 20.5 -8.75 20.25 -8.7 20.0 -8.65 19.75 -8.6 19.5 -8.5 19.2 -8.45 18.95 -8.4 18.7 -8.35 18.45 -8.25 18.2 -8.2 17.95 -8.1 17.7 -8.05 17.4 -7.95 17.15 -7.85 16.9 -7.8 16.65 -7.7 16.4 -7.6 16.15 -7.5 15.9 -7.4 15.65 -7.3 15.35 -7.2 15.15 -7.1 14.85 -7.0 14.65 -6.85 14.4 -6.75 14.15 -6.7 14.1 -6.55 13.75 -6.35 14.3 -6.25 14.85 -6.1 15.35 -6.05 15.9 -5.95 16.45 -5.95 17.0 -5.9 17.5 -5.9 18.05 -5.95 18.55 -6.0 19.1 -6.05 19.6 -6.15 20.15 -6.25 20.65 -6.4 21.2 -6.55 21.7 -6.75 22.25 -6.9 22.3 -7.0 22.35 -7.15 22.35 -7.3 22.4 -7.45 22.4 -7.55 22.4 -7.7 22.4 -7.85 22.4 -8.0 22.4 -8.15 22.4 -8.25 22.4 -8.4 22.4 -8.55 22.4 -8.7 22.35 -8.8 22.35 -9.0 22.35 L-9.0 22.35" fill="#000000" fill-opacity="0.6784314" fill-rule="evenodd" stroke="none"/>
    <path d="M-24.5 18.9 Q-24.5 18.85 -24.1 17.7 -23.75 16.7 -21.35 11.15 -21.35 11.1 -21.35 11.1 -21.3 11.05 -21.3 11.0 -21.3 11.0 -21.25 10.95 -21.25 10.9 -21.25 10.85 -21.25 10.85 -21.2 10.8 -21.2 10.75 -21.2 10.75 -21.2 10.7 -21.2 10.65 -21.2 10.65 -21.2 10.6 -21.15 10.6 -21.1 10.55 -21.05 10.55 -21.0 10.55 -20.95 10.55 -20.9 10.55 -20.85 10.5 -20.8 10.5 -20.75 10.55 -20.7 10.55 -20.7 10.55 -20.65 10.55 -20.55 10.55 -20.55 10.55 -20.5 10.55 -20.45 10.55 -20.45 10.8 -20.45 11.5 -20.4 12.1 -20.4 12.45 -20.4 12.8 -20.45 13.15 -20.5 13.45 -20.55 13.8 -20.6 14.15 -20.65 14.45 -20.7 14.8 -20.8 15.15 -20.85 15.45 -20.95 15.8 -21.05 16.1 -21.15 16.45 -21.25 16.8 -21.35 17.1 -21.45 17.45 -21.6 17.75 -21.6 17.8 -21.65 17.95 -21.7 18.05 -21.75 18.15 -21.75 18.2 -21.7 18.2 -21.05 18.5 -21.6 18.25 -24.0 18.9 -24.2 18.9 -24.25 18.9 -24.5 18.9 L-24.5 18.9" fill="#000000" fill-opacity="0.6784314" fill-rule="evenodd" stroke="none"/>
    <path d="M19.4 19.8 Q19.25 19.45 19.15 19.15 19.05 18.8 18.95 18.45 18.85 18.1 18.75 17.75 18.65 17.4 18.6 17.05 18.5 16.7 18.45 16.35 18.4 16.0 18.35 15.65 18.3 15.3 18.3 14.95 18.3 14.6 18.3 14.2 18.3 14.2 18.3 14.0 18.3 13.85 18.35 13.8 18.35 13.65 18.35 13.55 18.35 13.45 18.35 13.35 18.35 13.25 18.4 13.15 18.4 13.05 18.45 12.95 18.45 12.85 18.45 12.75 18.5 12.65 18.55 12.5 18.65 12.5 18.7 12.6 18.65 12.5 18.75 12.75 19.95 15.1 22.15 19.65 22.2 19.7 22.2 19.7 22.2 19.75 22.2 19.8 22.25 19.8 22.25 19.85 22.25 19.9 22.25 19.95 22.2 19.95 22.15 20.0 22.1 20.0 22.05 20.0 22.05 20.0 22.0 20.0 21.95 20.0 21.9 20.0 21.05 19.95 19.4 19.8 L19.4 19.8" fill="#000000" fill-opacity="0.6784314" fill-rule="evenodd" stroke="none"/>
    <path d="M4.85 21.3 Q4.9 21.3 4.9 21.25 4.95 21.25 4.95 21.2 5.0 21.2 5.0 21.15 5.0 21.1 5.0 21.1 5.0 21.05 5.0 21.0 5.0 21.05 4.95 20.95 4.95 20.9 4.95 20.9 4.95 20.85 4.95 20.85 4.95 20.75 4.95 20.65 4.95 20.55 4.95 20.45 4.95 20.35 4.95 20.25 4.95 20.15 4.95 20.05 4.95 19.95 4.95 19.8 4.95 19.7 4.95 19.6 4.95 19.5 4.95 19.4 4.95 19.3 4.95 19.2 4.95 19.0 5.0 18.8 5.0 18.55 5.0 18.35 5.05 18.15 5.1 17.95 5.1 17.75 5.15 17.55 5.2 17.35 5.25 17.15 5.35 16.95 5.4 16.75 5.45 16.55 5.55 16.35 5.6 16.15 5.7 15.95 5.7 15.9 5.75 15.9 5.75 15.85 5.75 15.8 5.8 15.8 5.8 15.75 5.8 15.7 5.8 15.65 5.9 15.65 6.05 15.65 6.15 15.65 6.25 15.65 6.3 15.65 6.5 15.65 6.65 15.65 6.75 15.65 6.85 15.65 6.95 15.65 7.1 15.65 7.2 15.65 7.35 15.65 7.45 15.65 7.55 15.65 7.7 15.65 7.6 15.65 7.55 15.7 7.45 15.7 7.35 15.7 7.25 15.7 7.2 15.75 7.1 15.75 7.0 15.75 6.95 15.75 6.85 15.75 6.65 15.75 6.65 15.75 6.55 15.75 6.5 15.75 6.4 15.75 6.3 15.75 6.3 15.8 6.3 15.8 6.3 15.85 6.3 15.9 6.3 15.95 6.3 15.95 6.3 16.0 6.3 16.05 6.3 16.05 6.35 16.1 6.35 16.1 6.35 16.15 6.35 16.2 6.4 16.25 6.4 16.25 6.4 16.3 6.5 16.65 6.6 17.0 6.7 17.4 6.8 17.75 6.9 18.1 7.0 18.45 7.05 18.85 7.15 19.2 7.25 19.55 7.3 19.95 7.4 20.3 7.45 20.65 7.55 21.0 7.6 21.4 7.65 21.75 7.7 22.15 7.75 22.2 7.75 22.4 7.75 22.4 5.8 21.7 5.7 21.65 4.85 21.3 L4.85 21.3" fill="#000000" fill-opacity="0.6784314" fill-rule="evenodd" stroke="none"/>
    <path d="M32.15 17.45 Q31.85 17.25 31.15 16.3 31.0 16.1 30.9 15.95 30.75 15.75 30.65 15.6 30.55 15.4 30.45 15.2 30.3 15.0 30.25 14.8 30.15 14.65 30.05 14.45 29.95 14.25 29.9 14.0 29.8 13.8 29.75 13.6 29.7 13.4 29.65 13.15 29.65 13.0 29.6 12.9 29.6 12.75 29.6 12.65 29.6 12.5 29.6 12.4 29.6 12.25 29.6 12.15 29.6 12.0 29.6 11.85 29.65 11.75 29.65 11.6 29.7 11.5 29.75 11.35 29.75 11.2 29.8 11.1 29.85 11.1 29.9 11.15 29.9 11.15 29.95 11.15 30.0 11.2 30.0 11.2 30.05 11.25 30.05 11.25 30.1 11.3 30.1 11.3 30.1 11.35 30.15 11.4 30.2 11.45 30.2 11.45 30.2 11.45 30.25 11.5 33.25 15.2 33.45 15.45 33.45 15.45 33.5 15.5 33.5 15.5 33.55 15.55 33.55 15.6 33.55 15.6 33.6 15.65 33.6 15.65 33.65 15.7 33.65 15.7 33.7 15.7 33.7 15.75 33.75 15.75 33.75 15.75 33.8 15.8 33.85 15.8 33.6 16.05 33.2 16.45 32.7 17.0 32.6 17.1 32.2 17.45 32.15 17.45 L32.15 17.45" fill="#000000" fill-opacity="0.6784314" fill-rule="evenodd" stroke="none"/>
    <path d="M25.7 6.6 Q25.7 6.65 25.7 6.7 25.7 6.7 25.7 6.75 25.7 6.8 25.75 6.85 25.75 6.85 25.8 6.9 26.6 8.25 28.0 10.5 28.0 10.55 28.05 10.55 28.05 10.6 28.05 10.6 28.15 10.65 28.15 10.65 28.15 10.7 28.1 10.75 28.1 10.8 28.1 10.85 28.05 10.9 28.05 10.95 28.05 11.0 28.0 11.05 27.95 11.1 27.95 11.15 27.9 11.15 27.85 11.2 27.85 11.25 27.8 11.3 27.75 11.3 27.7 11.35 27.6 11.45 27.5 11.5 27.35 11.6 27.25 11.65 27.15 11.7 27.0 11.75 26.9 11.85 26.75 11.85 26.65 11.9 26.5 11.95 26.4 12.0 26.25 12.0 26.1 12.0 26.0 12.0 25.85 12.0 25.7 12.0 25.55 12.0 24.45 11.85 24.55 11.85 24.65 11.85 24.75 11.85 24.85 11.85 24.95 11.85 25.05 11.85 25.15 11.85 25.25 11.85 25.3 11.85 25.45 11.9 25.6 11.9 25.65 11.9 25.75 11.9 25.85 11.9 25.95 11.95 26.05 11.95 26.05 11.9 26.05 11.85 26.05 11.8 26.05 11.75 26.05 11.75 26.05 11.7 26.05 11.65 26.05 11.6 26.0 11.6 26.0 11.55 26.0 11.5 26.0 11.45 25.95 11.4 25.95 11.4 25.95 11.35 25.95 11.35 25.85 11.1 25.8 10.9 25.75 10.65 25.7 10.45 25.65 10.2 25.6 9.95 25.55 9.75 25.5 9.5 25.45 9.25 25.45 9.05 25.4 8.8 25.4 8.55 25.4 8.3 25.4 8.1 25.4 7.85 25.4 7.6 25.4 7.45 25.5 7.1 25.55 6.8 25.55 6.65 25.6 6.55 25.7 6.6 L25.7 6.6" fill="#000000" fill-opacity="0.6117647" fill-rule="evenodd" stroke="none"/>
    <path d="M13.3 8.45 Q13.55 9.4 14.0 11.3 13.7 11.6 13.2 12.05 12.55 12.65 12.4 12.85 12.1 13.0 12.1 13.0 12.05 13.0 12.05 12.95 12.05 12.95 12.0 12.9 12.0 12.85 12.0 12.85 11.95 12.8 11.95 12.8 11.95 12.75 11.95 12.7 11.95 12.7 11.95 12.65 11.95 12.65 11.95 12.6 11.95 12.55 11.95 12.55 11.95 12.3 11.95 12.05 11.95 11.8 11.95 11.6 11.95 11.35 12.0 11.1 12.0 10.9 12.05 10.65 12.05 10.4 12.1 10.2 12.15 9.95 12.25 9.75 12.3 9.5 12.4 9.3 12.5 9.05 12.6 8.85 12.6 8.85 12.65 8.8 12.65 8.75 12.65 8.75 12.7 8.7 12.7 8.7 12.7 8.65 12.7 8.65 12.7 8.6 12.7 8.6 12.7 8.55 12.7 8.55 12.65 8.5 12.65 8.5 12.6 8.5 12.55 8.45 12.6 8.45 13.3 8.45 L13.3 8.45" fill="#000000" fill-opacity="0.6117647" fill-rule="evenodd" stroke="none"/>
    <path d="M-13.35 -3.15 Q-13.35 -3.1 -13.35 -3.05 -13.35 -3.05 -13.4 -3.0 -13.4 -2.95 -13.45 -2.95 -13.45 -2.9 -13.5 -2.9 -13.55 -3.0 -13.6 -3.05 -13.65 -3.15 -13.7 -3.25 -13.75 -3.3 -13.85 -3.4 -13.9 -3.45 -14.0 -3.5 -14.05 -3.6 -14.15 -3.65 -14.2 -3.7 -14.3 -3.75 -14.4 -3.8 -14.5 -3.8 -14.6 -3.85 -14.7 -3.9 -14.65 -3.9 -14.6 -3.95 -14.55 -3.95 -14.5 -4.0 -14.5 -4.05 -14.45 -4.1 -14.45 -4.1 -14.45 -4.15 -14.4 -4.2 -14.4 -4.25 -14.4 -4.35 -14.4 -4.35 -14.4 -4.4 -14.35 -4.45 -14.35 -4.5 -14.3 -4.55 -14.35 -4.55 -14.4 -4.5 -14.45 -4.45 -14.5 -4.45 -14.55 -4.4 -14.55 -4.35 -14.6 -4.3 -14.65 -4.25 -14.65 -4.2 -14.7 -4.2 -14.7 -4.15 -14.75 -4.1 -14.8 -4.1 -14.85 -4.05 -14.85 -4.05 -14.9 -4.0 -14.95 -4.0 -14.95 -4.0 -15.0 -4.0 -15.05 -4.0 -15.05 -3.95 -15.1 -3.95 -15.1 -3.95 -15.15 -3.95 -15.2 -4.0 -15.2 -4.0 -15.25 -4.0 -15.3 -4.0 -15.3 -4.0 -15.35 -4.0 -15.4 -4.0 -15.45 -4.0 -14.6 -5.65 -13.15 -7.95 -12.9 -6.9 -12.95 -6.55 -12.95 -6.5 -13.0 -6.45 -13.0 -6.4 -13.05 -6.4 -13.15 -5.55 -13.4 -3.55 -13.4 -3.5 -13.4 -3.45 -13.4 -3.4 -13.4 -3.35 -13.4 -3.35 -13.4 -3.3 -13.4 -3.25 -13.4 -3.2 -13.4 -3.15 -13.35 -3.15 L-13.35 -3.15" fill="#000000" fill-opacity="0.6117647" fill-rule="evenodd" stroke="none"/>
    <path d="M-5.65 12.05 Q-5.65 11.85 -5.35 10.8 -5.3 10.65 -5.25 10.55 -5.2 10.4 -5.15 10.25 -5.1 10.15 -5.05 10.0 -5.0 9.9 -4.95 9.75 -4.9 9.6 -4.85 9.5 -4.8 9.35 -4.75 9.2 -4.7 9.1 -4.65 8.95 -4.6 8.85 -4.5 8.7 -4.4 8.45 -4.45 8.35 -4.2 8.35 -3.75 8.4 -3.7 8.6 -3.7 8.8 -3.65 9.0 -3.65 9.2 -3.6 9.4 -3.6 9.6 -3.55 9.8 -3.55 10.0 -3.55 10.2 -3.5 10.4 -3.5 10.6 -3.5 10.8 -3.5 11.0 -3.5 11.2 -3.5 11.4 -3.5 11.6 -3.6 11.6 -3.7 11.6 -3.8 11.6 -3.9 11.65 -3.95 11.65 -4.05 11.65 -4.15 11.7 -4.25 11.7 -4.3 11.75 -4.4 11.75 -4.6 11.8 -4.6 11.8 -4.7 11.85 -4.75 11.85 -4.85 11.9 -4.95 11.9 -5.55 12.05 -5.65 12.05 L-5.65 12.05" fill="#000000" fill-opacity="0.6117647" fill-rule="evenodd" stroke="none"/>
    <path d="M-8.5 -5.25 Q-8.45 -5.25 -8.4 -5.2 -8.4 -5.2 -8.35 -5.15 -8.35 -5.1 -8.35 -5.05 -8.3 -4.95 -8.3 -4.95 -8.25 -4.8 -8.2 -4.7 -8.15 -4.55 -8.1 -4.4 -8.05 -4.3 -8.0 -4.15 -7.95 -4.0 -7.9 -3.9 -7.85 -3.75 -7.75 -3.65 -7.7 -3.5 -7.6 -3.4 -7.55 -3.3 -7.45 -3.15 -7.4 -3.05 -7.3 -2.95 -7.2 -2.85 -7.15 -2.75 -7.05 -2.65 -6.95 -2.55 -6.85 -2.45 -6.75 -2.35 -6.65 -2.25 -6.55 -2.2 -6.45 -2.1 -6.35 -2.05 -6.25 -2.0 -6.1 -1.95 -6.0 -1.9 -5.85 -1.85 -5.7 -1.85 -5.6 -1.85 -5.8 -1.75 -5.95 -1.65 -6.15 -1.6 -6.35 -1.55 -6.55 -1.5 -6.75 -1.5 -6.9 -1.5 -7.1 -1.55 -7.3 -1.55 -7.45 -1.6 -7.65 -1.7 -7.8 -1.75 -8.0 -1.85 -8.15 -2.0 -8.3 -2.1 -8.45 -2.25 -8.6 -2.4 -8.7 -2.55 -8.8 -2.75 -8.9 -2.9 -8.95 -3.1 -9.0 -3.25 -9.05 -3.45 -9.1 -3.65 -9.1 -3.85 -9.1 -4.05 -9.1 -4.2 -9.05 -4.4 -9.0 -4.6 -8.9 -4.75 -8.85 -4.95 -8.7 -5.1 -8.7 -5.15 -8.65 -5.2 -8.65 -5.2 -8.6 -5.25 -8.55 -5.25 -8.5 -5.25 L-8.5 -5.25" fill="#000000" fill-opacity="0.18039216" fill-rule="evenodd" stroke="none"/>
    <path d="M-22.7 -8.2 Q-22.65 -6.55 -22.65 -6.4 -22.6 -6.2 -22.6 -6.0 -22.55 -5.8 -22.5 -5.65 -22.45 -5.45 -22.35 -5.25 -22.3 -5.1 -22.2 -4.9 -22.1 -4.75 -22.0 -4.6 -21.9 -4.45 -21.75 -4.3 -21.65 -4.15 -21.5 -4.0 -21.3 -3.9 -21.15 -3.8 -21.15 -3.8 -21.1 -3.75 -21.1 -3.75 -21.05 -3.7 -21.0 -3.7 -21.0 -3.7 -20.95 -3.65 -20.9 -3.65 -20.9 -3.65 -20.9 -3.6 -20.85 -3.6 -20.85 -3.55 -20.8 -3.55 -20.8 -3.5 -20.8 -3.45 -20.8 -3.4 -20.85 -3.35 -20.9 -3.35 -20.95 -3.35 -21.0 -3.3 -21.05 -3.3 -21.05 -3.3 -21.1 -3.3 -21.15 -3.3 -21.2 -3.3 -21.25 -3.3 -21.3 -3.3 -21.35 -3.3 -21.4 -3.3 -21.45 -3.3 -21.5 -3.3 -21.55 -3.35 -21.75 -3.4 -21.9 -3.45 -22.05 -3.5 -22.2 -3.55 -22.4 -3.6 -22.55 -3.7 -22.65 -3.75 -22.8 -3.85 -22.95 -3.95 -23.05 -4.05 -23.15 -4.2 -23.3 -4.3 -23.4 -4.45 -23.45 -4.6 -23.55 -4.7 -23.6 -4.9 -23.7 -5.1 -23.75 -5.3 -23.8 -5.45 -23.85 -5.65 -23.9 -5.85 -23.9 -6.05 -23.9 -6.2 -23.9 -6.4 -23.9 -6.6 -23.85 -6.75 -23.8 -6.95 -23.7 -7.15 -23.65 -7.3 -23.5 -7.5 -23.4 -7.65 -23.25 -7.8 -23.2 -7.85 -23.2 -7.85 -23.15 -7.9 -23.15 -7.95 -23.1 -8.0 -23.05 -8.0 -23.05 -8.05 -23.0 -8.05 -22.95 -8.1 -22.95 -8.1 -22.9 -8.15 -22.85 -8.15 -22.85 -8.2 -22.8 -8.2 -22.75 -8.2 -22.7 -8.2 L-22.7 -8.2" fill="#000000" fill-opacity="0.18039216" fill-rule="evenodd" stroke="none"/>
    <path d="M-13.35 -3.15 Q-13.4 -3.2 -13.4 -3.25 -13.4 -3.3 -13.4 -3.35 -13.4 -3.35 -13.4 -3.45 -13.4 -3.45 -13.4 -3.55 -13.15 -5.5 -13.05 -6.4 -13.05 -6.4 -13.0 -6.45 -12.95 -6.5 -12.95 -6.55 -12.85 -6.15 -12.8 -5.45 -12.7 -4.65 -12.65 -4.35 -12.65 -4.25 -12.7 -4.2 -12.7 -4.15 -12.8 -4.05 -12.85 -4.0 -12.9 -3.95 -12.95 -3.9 -13.0 -3.85 -13.0 -3.8 -13.05 -3.75 -13.1 -3.7 -13.15 -3.6 -13.15 -3.55 -13.2 -3.5 -13.25 -3.45 -13.25 -3.4 -13.3 -3.3 -13.3 -3.25 -13.35 -3.2 -13.35 -3.15 L-13.35 -3.15" fill="#000000" fill-opacity="0.4509804" fill-rule="evenodd" stroke="none"/>
    <path d="M-14.9 -4.0 Q-14.85 -4.05 -14.8 -4.1 -14.7 -4.2 -14.65 -4.25 -14.6 -4.3 -14.6 -4.3 -14.55 -4.35 -14.55 -4.4 -14.5 -4.45 -14.5 -4.45 -14.45 -4.5 -14.45 -4.55 -14.45 -4.55 -14.4 -4.6 -14.4 -4.6 -14.4 -4.65 -14.4 -4.65 -14.35 -4.7 -14.35 -4.7 -14.35 -4.75 -14.35 -4.75 -14.35 -4.7 -14.35 -4.4 -14.35 -4.6 -14.35 -4.55 -14.35 -4.55 -14.35 -4.5 -14.35 -4.45 -14.35 -4.35 -14.35 -4.3 -14.4 -4.25 -14.4 -4.2 -14.4 -4.15 -14.45 -4.1 -14.5 -4.05 -14.5 -4.0 -14.55 -3.95 -14.55 -3.95 -14.6 -3.9 -14.65 -3.85 -14.65 -3.85 -14.7 -3.8 -14.75 -3.8 -14.75 -3.8 -14.8 -3.75 -14.8 -3.75 -14.95 -3.8 -15.05 -3.8 -15.15 -3.85 -15.2 -3.85 -15.25 -3.9 -15.25 -3.9 -15.25 -3.9 -15.2 -3.95 -15.15 -3.95 -15.1 -4.0 -15.0 -4.0 -14.9 -4.0 L-14.9 -4.0" fill="#000000" fill-opacity="0.4509804" fill-rule="evenodd" stroke="none"/>
    <path d="M-18.85 -5.0 Q-18.85 -4.15 -18.85 -3.85 -18.85 -3.7 -18.8 -3.6 -18.8 -3.5 -18.75 -3.4 -18.7 -3.25 -18.65 -3.15 -18.65 -3.05 -18.6 -2.95 -18.55 -2.85 -18.45 -2.75 -18.4 -2.65 -18.35 -2.55 -18.25 -2.5 -18.15 -2.4 -18.05 -2.3 -17.95 -2.25 -17.75 -2.1 -17.85 -2.15 -17.75 -2.1 -17.75 -2.05 -17.8 -2.0 -17.8 -2.0 -17.85 -2.0 -17.9 -1.95 -17.9 -1.95 -17.95 -1.95 -17.95 -1.95 -18.0 -1.95 -18.05 -1.95 -18.05 -1.95 -18.1 -1.95 -18.15 -1.95 -18.15 -1.95 -18.2 -1.95 -18.15 -1.95 -18.25 -2.0 -18.35 -2.0 -18.45 -2.05 -18.55 -2.05 -18.6 -2.1 -18.7 -2.15 -18.8 -2.2 -18.85 -2.25 -18.95 -2.3 -19.0 -2.35 -19.1 -2.45 -19.15 -2.5 -19.2 -2.55 -19.3 -2.65 -19.35 -2.75 -19.4 -2.85 -19.4 -2.95 -19.45 -3.05 -19.5 -3.2 -19.55 -3.3 -19.55 -3.4 -19.55 -3.5 -19.6 -3.65 -19.6 -3.75 -19.6 -3.85 -19.55 -4.0 -19.55 -4.1 -19.5 -4.2 -19.45 -4.3 -19.4 -4.4 -19.35 -4.55 -19.3 -4.65 -19.2 -4.75 -19.2 -4.75 -19.15 -4.8 -19.1 -4.85 -19.1 -4.85 -19.05 -4.9 -19.0 -4.9 -19.0 -4.95 -18.95 -4.95 -18.9 -4.95 -18.85 -5.0 L-18.85 -5.0" fill="#000000" fill-opacity="0.18039216" fill-rule="evenodd" stroke="none"/>
    <path d="M-16.15 -3.35 Q-16.15 -2.45 -16.1 -2.2 -16.1 -2.1 -16.05 -1.95 -16.05 -1.85 -16.0 -1.75 -16.0 -1.65 -15.95 -1.5 -15.9 -1.4 -15.85 -1.3 -15.8 -1.2 -15.75 -1.1 -15.7 -1.0 -15.6 -0.95 -15.55 -0.85 -15.45 -0.75 -15.35 -0.7 -15.25 -0.6 -15.15 -0.55 -15.1 -0.55 -15.05 -0.5 -15.05 -0.4 -15.1 -0.35 -15.15 -0.35 -15.2 -0.35 -15.2 -0.3 -15.25 -0.3 -15.3 -0.3 -15.35 -0.3 -15.4 -0.3 -15.45 -0.35 -15.5 -0.35 -15.6 -0.35 -15.7 -0.4 -15.8 -0.45 -15.9 -0.45 -16.0 -0.5 -16.05 -0.55 -16.15 -0.6 -16.25 -0.65 -16.3 -0.7 -16.4 -0.8 -16.45 -0.85 -16.5 -0.95 -16.55 -1.0 -16.6 -1.1 -16.65 -1.2 -16.7 -1.3 -16.75 -1.4 -16.8 -1.55 -16.8 -1.65 -16.85 -1.75 -16.85 -1.9 -16.9 -2.0 -16.9 -2.1 -16.85 -2.25 -16.85 -2.35 -16.85 -2.45 -16.8 -2.55 -16.75 -2.65 -16.7 -2.8 -16.65 -2.9 -16.55 -3.0 -16.5 -3.1 -16.55 -3.05 -16.45 -3.15 -16.4 -3.2 -16.4 -3.25 -16.35 -3.25 -16.3 -3.3 -16.3 -3.3 -16.25 -3.3 -16.2 -3.35 -16.15 -3.35 L-16.15 -3.35" fill="#000000" fill-opacity="0.18039216" fill-rule="evenodd" stroke="none"/>
    <path d="M-12.25 -3.9 Q-12.2 -3.75 -12.15 -3.35 -12.1 -3.0 -12.05 -2.8 -12.0 -2.65 -12.0 -2.55 -11.95 -2.45 -11.9 -2.35 -11.85 -2.25 -11.8 -2.1 -11.75 -2.0 -11.7 -1.9 -11.6 -1.85 -11.55 -1.75 -11.45 -1.65 -11.4 -1.55 -11.3 -1.5 -11.2 -1.45 -11.1 -1.35 -11.0 -1.3 -10.85 -1.25 -10.85 -1.25 -10.75 -1.2 -10.75 -1.1 -10.8 -1.05 -10.85 -1.05 -10.85 -1.0 -10.9 -1.0 -10.95 -1.0 -11.0 -1.0 -11.05 -1.0 -11.1 -1.0 -11.15 -1.0 -11.2 -1.0 -11.3 -1.0 -11.4 -1.05 -11.5 -1.05 -11.6 -1.1 -11.7 -1.1 -11.8 -1.15 -11.9 -1.2 -11.95 -1.25 -12.05 -1.3 -12.1 -1.35 -12.2 -1.4 -12.25 -1.45 -12.35 -1.55 -12.4 -1.6 -12.45 -1.7 -12.5 -1.8 -12.55 -1.9 -12.6 -2.0 -12.65 -2.15 -12.7 -2.25 -12.75 -2.35 -12.75 -2.45 -12.8 -2.6 -12.8 -2.7 -12.8 -2.8 -12.8 -2.95 -12.75 -3.05 -12.75 -3.15 -12.7 -3.3 -12.65 -3.4 -12.6 -3.5 -12.5 -3.6 -12.5 -3.65 -12.45 -3.7 -12.45 -3.7 -12.4 -3.75 -12.4 -3.8 -12.35 -3.8 -12.35 -3.85 -12.3 -3.85 -12.25 -3.9 -12.25 -3.9 L-12.25 -3.9" fill="#000000" fill-opacity="0.18039216" fill-rule="evenodd" stroke="none"/>
  </g>
</svg>
