<?xml version="1.0" encoding="UTF-8" standalone="no"?>
<svg xmlns:xlink="http://www.w3.org/1999/xlink" height="200.0px" width="200.0px" xmlns="http://www.w3.org/2000/svg">
  <g transform="matrix(1.0, 0.0, 0.0, 1.0, 100.0, 100.0)">
    <path d="M-16.05 -35.15 Q-15.2 -35.05 -13.85 -34.75 -12.2 -34.45 -11.65 -34.35 -11.05 -34.25 -8.5 -33.75 -6.55 -33.35 -5.3 -33.2 -4.05 -33.1 -1.35 -33.05 -0.7 -33.05 0.7 -33.05 2.05 -33.0 2.75 -33.0 3.0 -33.0 7.7 -33.0 9.15 -33.0 13.05 -33.85 13.45 -33.95 13.8 -34.0 14.2 -34.1 14.55 -34.15 14.95 -34.25 15.3 -34.35 15.7 -34.45 16.05 -34.55 16.45 -34.65 16.8 -34.75 17.2 -34.85 17.55 -35.0 17.9 -35.1 18.3 -35.25 18.65 -35.35 19.0 -35.5 19.2 -35.55 19.4 -35.65 19.6 -35.7 19.8 -35.75 19.95 -35.8 20.15 -35.8 20.35 -35.85 20.55 -35.85 20.75 -35.9 20.95 -35.9 21.15 -35.9 21.35 -35.9 21.55 -35.85 21.75 -35.85 21.95 -35.85 22.15 -35.8 22.4 -35.75 22.55 -35.7 22.75 -35.65 22.9 -35.6 23.05 -35.55 23.15 -35.45 23.25 -35.35 23.35 -35.25 23.45 -35.15 23.55 -35.05 23.6 -34.95 23.65 -34.8 23.7 -34.65 23.75 -34.5 23.8 -34.35 23.85 -34.15 23.9 -34.0 23.95 -33.8 23.95 -33.65 24.0 -33.5 24.0 -33.3 24.05 -33.15 24.05 -32.95 24.05 -32.8 24.05 -32.65 24.05 -32.45 24.05 -32.3 24.05 -32.1 24.0 -31.95 24.0 -31.8 23.95 -31.6 23.9 -31.45 23.9 -31.35 23.85 -31.3 23.85 -31.2 23.8 -31.1 23.8 -31.05 23.75 -30.95 23.75 -30.85 23.7 -30.8 23.65 -30.7 23.65 -30.65 23.6 -30.55 23.55 -30.5 23.55 -30.4 23.5 -30.35 23.45 -30.25 23.4 -30.2 23.4 -30.15 23.35 -30.15 23.35 -30.1 23.35 -30.1 23.3 -30.05 23.3 -30.05 23.3 -30.0 23.3 -30.0 23.3 -29.95 23.3 -29.9 23.3 -29.9 23.3 -29.85 23.3 -29.8 23.3 -29.8 23.3 -29.75 23.35 -29.7 24.25 -28.1 25.45 -25.4 26.05 -23.95 27.35 -21.05 28.95 -17.55 29.5 -16.3 30.7 -13.55 31.25 -12.3 31.45 -11.8 32.05 -10.2 32.55 -8.9 32.9 -8.1 33.1 -7.55 33.6 -6.4 34.05 -5.3 34.3 -4.7 34.9 -3.05 34.95 -2.85 34.95 -2.7 35.0 -2.6 35.0 -2.5 35.0 -2.35 35.0 -2.25 34.95 -2.15 34.95 -2.05 34.9 -1.95 34.85 -1.85 34.8 -1.75 34.75 -1.65 34.7 -1.6 34.6 -1.5 34.5 -1.4 34.45 -1.35 34.35 -1.25 31.4 0.85 30.15 1.65 29.45 2.1 27.15 3.05 27.05 3.1 25.5 3.7 25.3 3.8 25.1 3.8 24.9 3.85 24.7 3.85 24.55 3.85 24.4 3.8 24.2 3.75 24.05 3.65 23.95 3.55 23.8 3.45 23.7 3.3 23.6 3.15 23.55 3.0 23.5 2.8 23.45 2.65 23.4 2.4 23.4 2.35 23.4 2.3 23.4 2.25 23.35 2.2 23.35 2.15 23.35 2.15 23.35 2.1 23.3 2.1 23.3 2.1 23.25 2.1 23.2 2.1 23.2 2.1 23.15 2.1 23.1 2.15 23.05 2.15 23.0 2.2 21.0 3.5 20.3 3.9 20.15 4.0 20.0 4.1 19.85 4.2 19.65 4.25 19.5 4.35 19.35 4.4 19.2 4.5 19.0 4.55 18.85 4.65 18.7 4.7 18.55 4.8 18.35 4.85 18.2 4.9 18.0 5.0 17.9 5.0 17.7 5.1 17.4 5.2 13.8 6.25 13.6 6.3 13.4 6.3 13.2 6.35 13.0 6.3 12.8 6.25 12.65 6.2 12.5 6.15 12.35 6.05 12.2 5.95 12.05 5.8 11.95 5.65 11.85 5.5 11.75 5.35 11.7 5.15 11.65 4.95 11.6 4.7 11.6 4.6 11.6 4.55 11.6 4.5 11.55 4.45 11.55 4.45 11.55 4.4 11.5 4.4 11.5 4.35 11.45 4.35 11.45 4.35 11.4 4.35 11.35 4.35 11.3 4.4 11.25 4.4 11.2 4.4 11.1 4.45 10.8 4.6 10.55 4.7 10.25 4.85 10.0 4.95 9.7 5.05 9.4 5.15 9.1 5.25 8.85 5.35 8.55 5.45 8.25 5.55 7.95 5.65 7.65 5.7 7.35 5.75 7.05 5.85 6.75 5.9 6.45 5.95 5.95 6.0 4.9 6.2 3.9 6.45 3.35 6.5 3.2 6.5 3.0 6.55 2.85 6.55 2.65 6.55 2.5 6.55 2.3 6.5 2.15 6.5 1.95 6.5 1.8 6.5 1.65 6.45 1.45 6.45 1.3 6.45 1.15 6.4 0.95 6.4 0.8 6.35 0.6 6.35 0.3 6.3 0.0 6.25 -0.3 6.2 -0.6 6.1 -0.85 6.05 -1.15 6.0 -1.45 5.9 -1.75 5.85 -2.05 5.75 -2.35 5.65 -2.6 5.6 -2.9 5.5 -3.2 5.4 -3.5 5.3 -3.75 5.2 -4.05 5.1 -4.3 5.0 -4.65 4.9 -5.25 4.65 -5.25 4.65 -5.3 4.65 -5.35 4.6 -5.35 4.6 -5.4 4.6 -5.45 4.6 -5.45 4.6 -5.5 4.6 -5.55 4.6 -5.55 4.6 -5.6 4.65 -5.6 4.65 -5.65 4.7 -5.65 4.7 -5.65 4.75 -5.65 4.8 -5.7 4.85 -5.7 5.1 -5.8 5.3 -5.85 5.5 -5.95 5.7 -6.05 5.85 -6.15 6.0 -6.3 6.15 -6.45 6.25 -6.6 6.4 -6.8 6.45 -6.95 6.55 -7.15 6.55 -7.35 6.6 -7.6 6.6 -7.8 6.55 -8.05 6.5 -12.2 5.55 -13.45 5.1 -13.7 5.0 -13.95 4.9 -14.2 4.8 -14.45 4.7 -14.7 4.6 -14.95 4.5 -15.2 4.35 -15.45 4.25 -15.7 4.15 -15.95 4.0 -16.2 3.9 -16.4 3.75 -16.65 3.65 -16.9 3.5 -17.15 3.35 -17.35 3.2 -18.6 2.5 -18.8 2.4 -18.85 2.4 -18.85 2.35 -18.9 2.35 -18.95 2.35 -19.0 2.3 -19.0 2.3 -19.05 2.3 -19.05 2.3 -19.1 2.35 -19.1 2.35 -19.15 2.35 -19.15 2.4 -19.2 2.45 -19.2 2.5 -19.2 2.55 -19.2 2.6 -19.2 2.8 -19.3 3.0 -19.35 3.2 -19.4 3.35 -19.5 3.55 -19.6 3.65 -19.75 3.8 -19.85 3.9 -20.0 4.0 -20.15 4.05 -20.35 4.1 -20.5 4.1 -20.7 4.15 -20.9 4.1 -21.1 4.1 -21.35 4.05 -21.6 3.95 -21.9 3.9 -22.15 3.8 -22.45 3.7 -22.7 3.6 -23.0 3.5 -23.25 3.45 -23.55 3.35 -23.8 3.25 -24.05 3.15 -24.35 3.05 -24.6 2.95 -24.9 2.85 -25.15 2.7 -25.4 2.6 -25.7 2.5 -26.75 2.05 -29.45 0.4 -30.45 -0.25 -31.75 -1.0 -31.85 -1.1 -31.95 -1.15 -32.05 -1.25 -32.15 -1.35 -32.2 -1.45 -32.3 -1.5 -32.35 -1.6 -32.35 -1.7 -32.4 -1.85 -32.45 -1.95 -32.45 -2.05 -32.45 -2.15 -32.45 -2.3 -32.45 -2.4 -32.4 -2.55 -32.35 -2.65 -32.2 -3.25 -30.95 -5.95 -30.65 -6.6 -29.55 -9.0 -29.5 -9.15 -28.45 -11.4 -27.8 -12.8 -27.3 -13.75 -26.8 -14.7 -25.85 -16.6 -24.85 -18.5 -24.4 -19.45 -21.8 -24.55 -21.65 -24.8 -20.2 -27.7 -19.05 -29.55 -19.05 -29.6 -19.0 -29.6 -19.0 -29.65 -19.0 -29.7 -19.0 -29.75 -19.0 -29.75 -19.0 -29.8 -19.0 -29.85 -19.0 -29.9 -19.0 -29.95 -19.0 -29.95 -19.0 -30.0 -19.05 -30.05 -19.05 -30.1 -19.05 -30.1 -19.05 -30.15 -19.15 -30.5 -19.2 -30.9 -19.25 -31.25 -19.25 -31.65 -19.25 -32.0 -19.15 -32.35 -19.1 -32.7 -18.95 -33.0 -18.8 -33.35 -18.65 -33.65 -18.45 -33.95 -18.2 -34.2 -17.95 -34.5 -17.65 -34.7 -17.35 -34.9 -17.0 -35.1 -16.9 -35.15 -16.05 -35.15 L-16.05 -35.15 M32.7 -2.8 Q32.65 -2.8 32.65 -3.3 32.65 -3.3 32.65 -3.3 32.55 -3.65 32.25 -4.35 32.2 -4.5 31.55 -6.0 31.15 -7.0 30.9 -7.65 30.65 -8.3 28.95 -12.5 28.05 -14.6 26.95 -17.05 26.05 -18.95 25.9 -19.1 25.9 -19.15 25.9 -19.2 25.9 -19.2 25.85 -19.25 25.85 -19.3 25.85 -19.35 25.8 -19.45 25.7 -19.7 25.65 -19.9 25.6 -20.0 23.6 -24.55 22.85 -26.15 22.3 -27.3 22.1 -27.5 22.05 -27.6 21.95 -27.8 21.95 -27.9 21.7 -28.35 21.7 -28.4 21.65 -28.45 21.65 -28.45 21.6 -28.5 21.55 -28.5 21.55 -28.5 21.5 -28.5 21.45 -28.5 21.4 -28.5 21.4 -28.5 21.25 -28.4 21.05 -28.3 20.9 -28.25 20.7 -28.15 20.55 -28.1 20.35 -28.0 20.2 -27.95 20.0 -27.85 19.85 -27.8 19.65 -27.75 19.5 -27.7 19.3 -27.6 19.15 -27.55 18.95 -27.5 18.8 -27.45 18.6 -27.4 16.45 -26.8 16.0 -26.7 15.45 -26.65 14.1 -26.45 12.85 -26.25 12.15 -26.15 8.05 -25.75 5.45 -25.75 -0.3 -25.7 -3.85 -25.95 -6.9 -26.15 -11.0 -26.75 -11.3 -26.8 -11.65 -26.85 -11.95 -26.9 -12.3 -26.95 -12.6 -27.0 -12.95 -27.1 -13.25 -27.15 -13.55 -27.25 -13.9 -27.3 -14.2 -27.4 -14.5 -27.45 -14.85 -27.55 -15.15 -27.65 -15.45 -27.75 -15.75 -27.85 -16.1 -27.95 -16.15 -27.95 -16.2 -28.0 -16.25 -28.0 -16.3 -28.05 -16.55 -28.15 -16.4 -28.1 -16.45 -28.1 -16.5 -28.15 -16.55 -28.15 -16.6 -28.2 -16.65 -28.2 -16.7 -28.2 -16.75 -28.2 -16.8 -28.2 -16.85 -28.2 -16.95 -28.2 -17.0 -28.2 -17.05 -28.2 -17.05 -28.2 -17.1 -28.2 -17.1 -28.2 -17.15 -28.15 -17.15 -28.15 -17.2 -28.1 -17.2 -28.1 -17.25 -28.05 -17.3 -27.95 -17.4 -27.85 -17.45 -27.8 -17.5 -27.7 -17.55 -27.6 -17.65 -27.5 -17.7 -27.4 -17.75 -27.3 -17.8 -27.2 -17.85 -27.1 -17.9 -27.05 -17.95 -26.95 -18.0 -26.85 -18.05 -26.7 -18.1 -26.6 -18.1 -26.5 -18.1 -26.5 -18.15 -26.45 -18.15 -26.45 -18.2 -26.4 -18.25 -26.35 -18.3 -26.3 -18.3 -26.25 -18.35 -26.2 -18.4 -26.15 -18.4 -26.1 -18.45 -26.05 -18.45 -26.0 -18.5 -25.95 -18.5 -25.9 -18.55 -25.85 -18.55 -25.8 -18.6 -25.75 -18.6 -25.7 -18.6 -25.6 -18.65 -25.55 -18.65 -25.5 -18.7 -25.45 -18.8 -25.35 -19.15 -24.65 -20.3 -22.5 -20.45 -22.0 -20.45 -21.95 -20.5 -21.9 -20.55 -21.85 -20.6 -21.8 -20.65 -21.75 -20.65 -21.7 -20.7 -21.65 -20.75 -21.6 -20.8 -21.55 -20.8 -21.45 -20.85 -21.4 -20.85 -21.35 -20.9 -21.3 -20.9 -21.25 -20.9 -21.15 -20.95 -21.1 -20.95 -21.05 -20.95 -21.0 -21.0 -20.95 -21.0 -20.9 -21.0 -20.9 -21.05 -20.85 -21.1 -20.85 -21.1 -20.8 -21.15 -20.75 -21.15 -20.7 -21.15 -20.7 -21.15 -20.65 -21.15 -20.65 -21.2 -20.6 -21.25 -20.6 -21.25 -20.55 -21.3 -20.55 -21.3 -20.5 -21.3 -20.45 -21.35 -20.45 -21.35 -20.4 -21.35 -20.4 -21.35 -20.35 -21.35 -20.3 -21.4 -20.3 -21.4 -20.25 -21.4 -20.25 -21.4 -20.2 -21.4 -20.15 -21.4 -20.1 -21.45 -20.1 -21.45 -20.05 -21.5 -20.05 -21.55 -20.0 -21.55 -20.0 -21.6 -19.9 -21.75 -19.6 -22.25 -18.65 -22.65 -17.85 -22.9 -17.35 -23.7 -15.8 -23.75 -15.6 -23.75 -15.6 -23.75 -15.6 -23.75 -15.55 -23.75 -15.55 -23.8 -15.55 -23.8 -15.5 -23.85 -15.5 -23.9 -15.45 -23.9 -15.45 -23.9 -15.4 -23.95 -15.4 -23.95 -15.35 -23.95 -15.35 -23.95 -15.3 -23.95 -15.25 -23.95 -15.25 -22.95 -20.4 -24.0 -15.15 -24.0 -15.1 -24.0 -15.1 -24.05 -15.05 -24.05 -15.05 -24.1 -15.05 -24.1 -15.0 -24.15 -15.0 -24.15 -14.95 -24.15 -14.95 -24.2 -14.9 -24.2 -14.85 -24.2 -14.85 -24.2 -14.8 -24.25 -14.8 -24.25 -14.75 -24.25 -14.7 -24.25 -14.7 -24.25 -14.65 -24.25 -14.55 -24.25 -14.6 -24.3 -14.55 -24.3 -14.5 -24.35 -14.5 -24.35 -14.5 -25.1 -13.15 -27.0 -9.15 -27.85 -7.25 -28.4 -6.0 -28.65 -5.5 -29.1 -4.55 -29.6 -3.55 -29.8 -3.1 -29.85 -3.05 -29.85 -2.95 -29.85 -2.9 -29.9 -2.85 -29.9 -2.8 -29.9 -2.7 -29.85 -2.65 -29.85 -2.6 -29.85 -2.55 -29.8 -2.5 -29.75 -2.5 -29.7 -2.45 -29.7 -2.4 -29.6 -2.35 -29.55 -2.3 -29.5 -2.3 -28.45 -1.7 -27.95 -1.35 -27.65 -1.15 -27.35 -0.95 -27.05 -0.8 -26.75 -0.6 -26.45 -0.45 -26.15 -0.25 -25.85 -0.1 -25.55 0.05 -25.2 0.2 -24.9 0.35 -24.6 0.5 -24.25 0.65 -23.95 0.75 -23.6 0.85 -23.25 1.0 -22.95 1.1 -22.9 1.1 -22.9 1.1 -22.85 1.15 -22.8 1.15 -22.8 1.15 -22.75 1.2 -22.7 1.25 -22.65 1.25 -22.65 1.25 -22.6 1.3 -22.6 1.3 -22.55 1.3 -22.5 1.3 -22.5 1.3 -22.45 1.3 -22.45 1.3 -22.35 1.3 -22.35 1.2 -22.35 1.2 -22.35 1.15 -22.35 1.15 -22.35 1.1 -22.35 1.1 -22.4 1.05 -22.4 1.05 -22.45 1.05 -22.45 1.0 -22.5 1.0 -22.5 1.0 -22.5 0.95 -22.55 0.95 -22.55 0.9 -22.6 0.9 -22.6 0.85 -22.65 0.85 -22.65 0.8 -22.7 0.75 -22.7 0.75 -22.75 0.65 -22.85 0.55 -22.9 0.45 -22.95 0.35 -22.95 0.25 -23.0 0.15 -23.0 0.05 -23.05 -0.05 -23.05 -0.15 -23.05 -0.25 -23.05 -0.3 -23.1 -0.4 -23.1 -0.45 -23.1 -0.55 -23.1 -0.6 -23.05 -0.65 -23.05 -0.65 -23.0 -0.7 -23.0 -0.75 -22.95 -0.85 -22.9 -0.9 -22.85 -0.95 -22.75 -1.05 -22.7 -1.15 -22.6 -1.2 -22.5 -1.3 -22.4 -1.35 -22.3 -1.4 -22.2 -1.5 -22.05 -1.5 -21.95 -1.55 -21.8 -1.55 -21.75 -1.55 -21.65 -1.55 -21.6 -1.55 -21.5 -1.5 -21.45 -1.5 -21.35 -1.5 -21.3 -1.45 -21.25 -1.45 -21.15 -1.4 -21.1 -1.4 -21.05 -1.35 -21.0 -1.35 -20.95 -1.3 -20.9 -1.3 -20.85 -1.25 -20.8 -1.25 -20.55 -1.1 -20.4 -1.0 -20.15 -0.85 -19.9 -0.75 -19.65 -0.6 -19.35 -0.5 -19.1 -0.35 -18.85 -0.25 -18.6 -0.1 -18.35 0.05 -18.1 0.15 -17.85 0.3 -17.6 0.45 -17.35 0.6 -17.1 0.75 -16.85 0.9 -16.6 1.0 -16.35 1.15 -15.95 1.4 -15.5 1.65 -15.05 1.9 -14.65 2.1 -14.2 2.3 -13.75 2.5 -13.3 2.7 -12.85 2.85 -12.4 3.05 -11.9 3.2 -11.45 3.35 -10.95 3.45 -10.5 3.6 -10.0 3.7 -9.55 3.8 -9.05 3.9 -9.0 3.9 -9.0 3.9 -8.95 3.95 -8.9 3.95 -8.9 3.95 -8.85 4.0 -8.8 4.05 -8.75 4.05 -8.75 4.1 -8.7 4.1 -8.65 4.1 -8.65 4.1 -8.6 4.1 -8.6 4.1 -8.55 4.05 -8.55 4.0 -8.55 3.95 -8.55 3.95 -8.5 3.9 -8.55 3.9 -8.55 3.85 -8.55 3.8 -8.55 3.8 -8.6 3.75 -8.6 3.7 -8.65 3.65 -8.65 3.65 -8.7 3.6 -8.75 3.55 -8.75 3.5 -8.8 3.45 -8.8 3.45 -8.9 3.3 -8.95 3.1 -9.0 2.95 -9.0 2.8 -9.0 2.6 -8.95 2.45 -8.95 2.3 -8.85 2.15 -8.8 2.05 -8.7 1.9 -8.55 1.8 -8.45 1.7 -8.3 1.6 -8.1 1.55 -7.95 1.5 -7.75 1.5 -7.65 1.5 -7.6 1.5 -7.5 1.5 -7.45 1.5 -7.35 1.55 -7.3 1.55 -7.2 1.55 -7.15 1.6 -7.1 1.6 -7.0 1.65 -6.95 1.65 -6.85 1.7 -6.75 1.75 -6.7 1.75 -6.65 1.8 -6.55 1.8 -6.15 1.95 -5.3 2.25 -4.45 2.5 -4.0 2.7 -3.8 2.75 -3.65 2.85 -3.45 2.9 -3.25 2.95 -3.05 3.05 -2.85 3.1 -2.7 3.15 -2.5 3.25 -2.3 3.3 -2.1 3.35 -1.9 3.4 -1.7 3.45 -1.5 3.5 -1.3 3.55 -1.1 3.65 -0.9 3.7 -0.9 3.7 -0.25 3.8 0.1 3.9 0.35 3.95 0.5 4.0 0.7 4.05 0.85 4.1 1.0 4.15 1.15 4.15 1.35 4.2 1.5 4.25 1.65 4.25 1.85 4.3 2.0 4.3 2.15 4.3 2.3 4.35 2.5 4.35 2.65 4.35 2.8 4.35 3.0 4.3 3.2 4.3 3.35 4.3 3.55 4.25 3.7 4.25 3.9 4.2 4.1 4.2 4.25 4.15 4.45 4.15 4.65 4.1 4.8 4.05 5.0 4.05 5.2 4.0 5.35 3.95 5.55 3.9 5.7 3.85 5.9 3.85 6.15 3.8 6.4 3.75 6.65 3.65 6.85 3.6 7.1 3.55 7.35 3.5 7.55 3.4 7.8 3.35 8.05 3.25 8.25 3.2 8.5 3.1 8.75 3.05 8.95 2.95 9.2 2.85 9.4 2.75 9.65 2.7 9.85 2.6 10.05 2.5 10.25 2.4 10.45 2.35 10.65 2.25 10.85 2.15 11.05 2.05 11.25 1.95 11.5 1.9 11.7 1.8 11.9 1.7 12.1 1.65 12.3 1.55 12.5 1.45 12.7 1.4 12.9 1.3 13.05 1.25 13.25 1.2 13.4 1.2 13.55 1.2 13.65 1.25 13.8 1.3 13.95 1.35 14.05 1.4 14.15 1.5 14.25 1.6 14.35 1.7 14.4 1.8 14.45 1.95 14.5 2.05 14.55 2.2 14.55 2.35 14.55 2.45 14.55 2.55 14.55 2.6 14.55 2.7 14.5 2.75 14.5 2.85 14.45 2.9 14.45 3.0 14.4 3.05 14.35 3.15 14.35 3.2 14.3 3.3 14.5 2.9 14.25 3.45 14.2 3.5 14.15 3.55 14.1 3.75 14.15 3.75 14.2 3.85 14.3 3.8 14.4 3.75 14.5 3.7 14.6 3.7 14.7 3.65 14.8 3.6 14.95 3.6 15.0 3.55 15.15 3.55 15.15 3.55 15.35 3.5 15.5 3.45 15.6 3.45 15.7 3.4 15.8 3.4 15.9 3.35 16.0 3.3 17.35 2.85 17.4 2.85 18.05 2.6 19.55 1.8 19.7 1.7 19.9 1.65 20.05 1.55 20.2 1.45 20.35 1.4 20.45 1.3 20.6 1.2 20.75 1.15 20.85 1.05 20.95 0.95 21.1 0.9 21.2 0.8 21.3 0.75 21.4 0.65 21.5 0.55 21.65 0.5 21.75 0.35 22.0 0.15 23.95 -0.95 24.65 -1.4 24.65 -1.4 24.7 -1.45 24.75 -1.45 24.75 -1.5 24.8 -1.5 24.85 -1.5 24.9 -1.55 24.95 -1.55 25.0 -1.6 25.05 -1.6 25.1 -1.65 25.15 -1.65 25.2 -1.65 25.3 -1.7 25.35 -1.7 25.45 -1.7 25.5 -1.7 25.5 -1.7 25.55 -1.7 25.55 -1.7 25.6 -1.7 25.65 -1.7 25.7 -1.7 25.75 -1.7 25.8 -1.7 25.85 -1.65 25.9 -1.65 25.95 -1.65 26.0 -1.6 26.05 -1.6 26.1 -1.55 26.15 -1.55 26.25 -1.5 26.3 -1.4 26.4 -1.35 26.45 -1.25 26.5 -1.15 26.55 -1.05 26.6 -0.95 26.65 -0.85 26.65 -0.75 26.7 -0.65 26.7 -0.55 26.7 -0.45 26.7 -0.35 26.7 -0.25 26.7 -0.15 26.65 -0.05 26.65 0.0 26.6 0.05 26.6 0.1 26.6 0.15 26.55 0.2 26.55 0.25 26.5 0.3 26.5 0.35 26.5 0.4 26.45 0.45 26.45 0.5 26.4 0.55 26.4 0.6 26.35 0.65 26.3 0.75 26.3 0.75 26.15 1.0 26.25 0.85 26.2 0.9 26.25 0.95 26.3 1.0 26.35 1.0 26.35 1.0 26.45 0.95 26.55 0.9 27.0 0.75 27.3 0.6 27.5 0.5 27.6 0.45 27.65 0.45 26.8 0.8 27.8 0.4 27.95 0.3 28.15 0.2 28.75 -0.05 29.3 -0.3 29.8 -0.55 30.25 -0.85 30.65 -1.05 31.05 -1.3 31.35 -1.5 31.65 -1.7 31.9 -1.9 32.15 -2.1 32.3 -2.25 32.45 -2.4 32.6 -2.55 32.65 -2.65 32.7 -2.75 32.7 -2.8 L32.7 -2.8 M3.0 -28.0 Q5.75 -27.95 9.45 -28.2 11.8 -28.35 13.15 -28.55 13.6 -28.6 14.0 -28.7 14.45 -28.75 14.9 -28.85 15.35 -28.95 15.75 -29.0 16.2 -29.1 16.6 -29.2 17.05 -29.3 17.45 -29.45 17.9 -29.55 18.3 -29.7 18.75 -29.8 19.15 -29.95 19.55 -30.1 20.0 -30.3 20.2 -30.4 20.35 -30.5 20.55 -30.55 20.7 -30.7 20.85 -30.8 21.0 -30.95 21.1 -31.05 21.25 -31.2 21.35 -31.35 21.45 -31.5 21.5 -31.7 21.6 -31.85 21.65 -32.05 21.65 -32.25 21.7 -32.45 21.7 -32.65 21.7 -32.85 21.7 -33.0 21.7 -33.15 21.65 -33.25 21.65 -33.35 21.6 -33.45 21.55 -33.5 21.5 -33.55 21.45 -33.6 21.4 -33.6 21.3 -33.65 21.2 -33.65 21.05 -33.65 20.9 -33.6 20.75 -33.6 20.55 -33.55 20.45 -33.55 20.25 -33.5 19.8 -33.35 19.1 -33.15 18.15 -32.85 17.95 -32.8 17.3 -32.6 16.8 -32.45 16.2 -32.3 15.65 -32.15 15.05 -31.95 14.5 -31.85 13.9 -31.7 13.3 -31.55 12.7 -31.45 12.15 -31.35 11.5 -31.25 10.95 -31.2 7.85 -30.9 7.2 -30.85 5.4 -30.7 -0.05 -30.8 -1.6 -30.8 -5.5 -31.1 -5.95 -31.15 -6.45 -31.2 -6.9 -31.25 -7.35 -31.3 -7.85 -31.35 -8.3 -31.4 -8.75 -31.45 -9.2 -31.5 -9.7 -31.55 -10.15 -31.65 -10.6 -31.7 -11.05 -31.8 -11.55 -31.85 -12.0 -31.95 -12.45 -32.0 -12.9 -32.1 -13.1 -32.15 -13.25 -32.15 -13.4 -32.2 -13.55 -32.25 -13.7 -32.25 -13.9 -32.3 -14.05 -32.35 -14.2 -32.4 -14.35 -32.4 -14.5 -32.45 -14.7 -32.5 -14.85 -32.55 -15.0 -32.6 -15.15 -32.65 -15.3 -32.7 -15.45 -32.75 -15.55 -32.8 -15.65 -32.85 -15.75 -32.85 -15.85 -32.85 -15.95 -32.85 -16.0 -32.85 -16.1 -32.85 -16.2 -32.85 -16.25 -32.8 -16.35 -32.75 -16.4 -32.7 -16.45 -32.65 -16.55 -32.6 -16.6 -32.5 -16.65 -32.4 -16.7 -32.3 -16.75 -32.25 -16.75 -32.15 -16.8 -32.1 -16.85 -32.0 -16.85 -31.95 -16.85 -31.9 -16.9 -31.8 -16.9 -31.75 -16.9 -31.65 -16.9 -31.6 -16.9 -31.5 -16.9 -31.45 -16.9 -31.35 -16.9 -31.3 -16.9 -31.2 -16.9 -31.15 -16.9 -31.1 -16.9 -31.05 -16.9 -31.0 -16.85 -30.95 -16.85 -30.95 -16.8 -30.9 -16.8 -30.85 -16.75 -30.85 -16.7 -30.8 -16.65 -30.75 -16.6 -30.75 -16.55 -30.7 -16.5 -30.65 -16.45 -30.6 -16.4 -30.6 -16.35 -30.55 -16.3 -30.5 -16.2 -30.5 -16.15 -30.45 -16.1 -30.4 -16.05 -30.4 -16.0 -30.35 -15.95 -30.35 -15.85 -30.3 -14.35 -29.7 -10.95 -29.05 -10.6 -29.0 -10.25 -28.95 -9.95 -28.9 -9.6 -28.8 -9.25 -28.75 -8.9 -28.7 -8.6 -28.7 -8.25 -28.65 -7.9 -28.6 -7.55 -28.55 -7.2 -28.5 -6.9 -28.45 -6.55 -28.45 -6.2 -28.4 -5.85 -28.35 -5.5 -28.35 -5.0 -28.3 -4.45 -28.25 -3.95 -28.2 -3.4 -28.2 -2.9 -28.15 -2.4 -28.15 -1.85 -28.1 -1.3 -28.1 -0.8 -28.05 -0.25 -28.05 0.3 -28.05 0.8 -28.0 1.35 -28.0 1.9 -28.0 2.45 -28.0 3.0 -28.0 L3.0 -28.0" fill="#000000" fill-rule="evenodd" stroke="none"/>
    <path d="M14.7 1.6 Q14.7 1.5 14.65 1.35 14.45 0.55 14.4 0.05 14.35 -0.3 13.8 -3.1 13.75 -3.45 13.6 -4.1 13.45 -4.8 13.4 -5.1 13.15 -6.4 12.8 -8.25 12.7 -8.8 12.35 -10.45 12.1 -11.8 11.9 -12.65 11.65 -13.7 11.35 -15.4 10.95 -17.5 10.8 -18.2 10.75 -18.4 10.45 -19.95 10.25 -21.0 10.1 -21.7 9.95 -22.35 9.75 -23.4 9.5 -24.85 9.45 -25.05 9.4 -25.5 9.4 -25.55 9.35 -25.55 9.35 -25.6 9.35 -25.65 9.35 -25.7 9.35 -25.8 9.35 -25.8 9.35 -25.85 9.3 -25.85 9.3 -25.9 9.3 -25.9 9.05 -25.9 8.3 -25.85 7.65 -25.8 7.3 -25.8 7.3 -25.75 7.4 -25.45 7.4 -25.4 7.45 -25.4 7.45 -25.35 7.45 -25.3 7.45 -25.25 7.5 -25.2 7.8 -23.9 8.2 -21.55 8.25 -21.25 8.45 -20.45 8.6 -19.75 8.7 -19.35 9.15 -16.75 9.25 -16.25 9.35 -15.85 9.6 -14.7 9.8 -13.75 9.9 -13.2 10.0 -12.6 10.2 -11.65 10.4 -10.5 10.5 -10.1 10.55 -9.75 10.7 -9.2 10.85 -8.4 10.85 -8.3 10.9 -8.15 10.9 -8.05 10.95 -7.9 10.95 -7.8 11.0 -7.7 11.0 -7.55 11.05 -7.45 11.05 -7.3 11.1 -7.2 11.1 -7.05 11.15 -6.95 11.15 -6.8 11.2 -6.7 11.2 -6.55 11.2 -6.45 11.25 -6.3 11.3 -6.1 11.55 -4.9 11.55 -4.8 11.7 -3.95 11.8 -3.4 11.9 -3.05 11.95 -2.8 12.3 -1.15 12.55 0.4 12.65 0.65 12.65 0.7 12.7 0.75 12.7 0.8 12.7 0.85 12.7 0.9 12.7 0.9 12.7 0.95 12.75 1.0 12.75 1.05 12.8 1.1 12.8 1.1 12.8 1.15 12.85 1.2 12.85 1.25 12.85 1.3 12.9 1.35 12.9 1.3 12.9 1.3 13.05 1.25 13.25 1.2 13.4 1.2 13.55 1.2 13.65 1.25 13.8 1.3 13.95 1.35 14.05 1.4 14.15 1.5 14.25 1.6 14.35 1.7 14.4 1.8 14.45 1.95 14.5 2.05 14.55 2.2 14.55 2.35 14.55 2.4 14.55 2.45 14.55 2.45 14.55 2.5 14.55 2.55 14.55 2.55 14.55 2.55 14.6 2.5 14.6 2.45 14.65 2.45 14.65 2.4 14.7 2.25 14.7 2.15 14.75 1.8 14.75 1.75 14.7 1.7 14.7 1.7 14.7 1.6 L14.7 1.6" fill="#000000" fill-opacity="0.36862746" fill-rule="evenodd" stroke="none"/>
    <path d="M26.0 -2.7 Q25.65 -3.75 25.3 -4.65 25.25 -4.8 24.8 -6.05 24.5 -6.9 24.25 -7.7 24.1 -8.15 23.8 -9.0 23.5 -9.9 23.4 -10.3 23.3 -10.6 22.9 -11.6 22.6 -12.4 22.45 -12.85 22.2 -13.5 21.9 -14.45 21.45 -15.8 21.35 -16.1 20.8 -17.5 20.4 -18.75 20.2 -19.35 19.85 -20.4 19.4 -21.6 19.25 -22.0 18.65 -23.7 18.35 -24.55 17.75 -26.35 17.65 -26.6 17.65 -26.65 17.65 -26.65 17.6 -26.7 17.6 -26.75 17.6 -26.75 17.55 -26.8 17.55 -26.85 17.5 -26.9 17.5 -26.95 17.5 -26.95 17.45 -27.0 17.45 -27.05 17.35 -27.0 17.25 -27.0 17.2 -26.95 17.1 -26.95 17.0 -26.9 16.9 -26.9 16.85 -26.9 16.75 -26.85 16.65 -26.85 16.55 -26.8 16.45 -26.8 16.4 -26.8 16.3 -26.75 16.2 -26.75 16.1 -26.75 16.0 -26.7 15.9 -26.7 15.65 -26.65 15.7 -26.55 15.8 -26.2 15.8 -26.2 15.85 -26.15 15.85 -26.15 15.85 -26.1 15.85 -26.1 15.9 -26.05 15.9 -26.05 15.9 -26.0 15.9 -26.0 15.9 -25.95 15.95 -25.95 15.95 -25.9 15.95 -25.9 15.95 -25.85 15.95 -25.8 16.0 -25.8 16.1 -25.35 17.15 -22.45 17.3 -22.0 17.6 -21.1 17.9 -20.25 18.05 -19.8 18.3 -19.15 18.95 -17.2 19.05 -16.95 19.25 -16.35 19.45 -15.8 19.55 -15.5 19.65 -15.25 19.9 -14.6 20.1 -14.0 20.25 -13.65 20.3 -13.55 20.65 -12.4 20.9 -11.6 21.1 -11.1 21.3 -10.5 21.7 -9.45 22.1 -8.25 22.3 -7.75 22.45 -7.3 22.75 -6.45 23.05 -5.55 23.2 -5.15 23.6 -3.9 24.35 -1.9 24.35 -1.85 24.35 -1.8 24.4 -1.75 24.4 -1.75 24.4 -1.65 24.55 -1.35 24.55 -1.35 24.65 -1.4 24.75 -1.45 24.85 -1.5 24.95 -1.55 25.05 -1.6 25.15 -1.65 25.25 -1.65 25.35 -1.7 25.45 -1.7 25.55 -1.7 25.65 -1.7 25.75 -1.7 25.85 -1.7 25.9 -1.65 26.0 -1.6 26.1 -1.6 26.15 -1.55 26.3 -1.45 26.35 -1.35 26.35 -1.45 26.35 -1.65 26.25 -1.95 26.0 -2.7 L26.0 -2.7" fill="#000000" fill-opacity="0.36862746" fill-rule="evenodd" stroke="none"/>
    <path d="M-1.75 -25.45 Q-1.75 -25.45 -1.75 -25.5 -1.75 -25.5 -1.75 -25.55 -1.75 -25.6 -1.75 -25.65 -1.75 -25.65 -1.75 -25.7 -1.75 -25.75 -1.75 -25.8 -1.75 -25.8 -1.7 -25.85 -2.5 -25.85 -3.6 -25.95 -3.6 -25.9 -3.6 -25.85 -3.6 -25.8 -3.6 -25.75 -3.6 -25.7 -3.65 -25.65 -3.65 -25.65 -3.65 -25.6 -3.65 -25.65 -3.65 -25.6 -3.65 -25.55 -3.65 -25.5 -3.65 -25.5 -3.65 -25.45 -3.65 -25.4 -3.65 -25.4 -3.65 -25.35 -3.65 -25.3 -3.65 -25.3 -3.65 -25.25 -3.65 -25.2 -3.65 -25.15 -3.7 -25.1 -3.7 -25.05 -3.7 -25.0 -3.7 -24.95 -3.75 -24.9 -3.75 -24.85 -3.85 -24.55 -4.15 -23.0 -4.2 -22.85 -4.2 -22.65 -4.25 -22.5 -4.25 -22.35 -4.3 -22.2 -4.35 -22.0 -4.35 -21.85 -4.4 -21.7 -4.4 -21.5 -4.45 -21.35 -4.5 -21.2 -4.5 -21.05 -4.55 -20.85 -4.55 -20.7 -4.6 -20.55 -4.65 -20.4 -5.1 -17.95 -5.65 -15.0 -5.85 -14.15 -6.15 -12.55 -6.5 -10.8 -6.65 -10.05 -6.8 -9.25 -7.05 -8.0 -7.35 -6.35 -7.45 -6.0 -7.55 -5.35 -7.8 -4.05 -8.05 -2.75 -8.2 -2.1 -8.25 -1.65 -8.55 -0.3 -8.75 0.8 -8.85 1.45 -8.85 1.5 -8.85 1.6 -8.9 1.65 -8.9 1.7 -8.9 1.8 -8.95 1.85 -8.95 1.9 -9.0 2.0 -9.0 2.1 -9.05 2.1 -9.05 2.2 -9.05 2.25 -9.1 2.3 -9.1 2.35 -9.1 2.45 -9.15 2.5 -9.15 2.55 -9.15 2.65 -9.15 2.7 -9.15 2.75 -9.15 2.85 -9.15 2.9 -9.15 2.95 -9.15 3.0 -9.15 3.1 -9.1 3.15 -9.1 3.2 -9.05 3.25 -9.05 3.35 -9.05 3.4 -9.0 3.45 -8.95 3.5 -8.95 3.55 -8.9 3.55 -8.9 3.6 -8.9 3.6 -8.85 3.65 -8.85 3.65 -8.85 3.65 -8.8 3.7 -8.8 3.7 -8.75 3.7 -8.75 3.7 -8.75 3.7 -8.7 3.75 -8.5 3.9 -8.5 3.85 -8.55 3.8 -8.6 3.75 -8.65 3.7 -9.1 3.05 -8.7 3.55 -8.8 3.5 -8.8 3.45 -8.9 3.3 -8.95 3.1 -9.0 2.95 -9.0 2.8 -9.0 2.6 -8.95 2.45 -8.95 2.3 -8.85 2.15 -8.8 2.05 -8.7 1.9 -8.55 1.8 -8.45 1.7 -8.3 1.6 -8.1 1.55 -7.95 1.5 -7.75 1.5 -7.7 1.5 -7.65 1.5 -7.6 1.5 -7.55 1.5 -7.5 1.5 -7.4 1.5 -7.35 1.55 -7.3 1.55 -7.25 1.55 -7.2 1.55 -7.15 1.6 -7.1 1.6 -7.05 1.6 -7.0 1.65 -6.95 1.65 -6.9 1.7 -6.9 1.65 -6.9 1.6 -6.9 1.6 -6.9 1.55 -6.9 1.5 -6.9 1.45 -6.9 1.4 -6.85 1.4 -6.85 1.35 -6.85 1.3 -6.85 1.3 -6.85 1.25 -6.9 1.25 -6.9 1.2 -6.9 1.2 -6.9 1.15 -6.9 1.1 -6.9 1.1 -6.9 1.05 -6.9 1.05 -6.9 1.0 -6.9 0.95 -6.85 0.95 -6.85 0.9 -6.85 0.85 -6.85 0.8 -6.7 0.1 -6.45 -1.15 -6.2 -2.55 -6.1 -3.1 -5.95 -3.65 -5.75 -4.65 -5.55 -5.8 -5.45 -6.25 -5.15 -7.55 -5.05 -8.35 -5.0 -8.75 -4.85 -9.4 -4.7 -10.15 -4.65 -10.4 -4.55 -11.05 -4.35 -12.15 -4.05 -13.5 -4.0 -13.85 -3.9 -14.45 -3.7 -15.35 -3.4 -16.8 -3.4 -16.85 -3.3 -17.25 -3.2 -17.9 -3.05 -18.7 -3.0 -18.95 -2.85 -19.65 -2.55 -21.25 -2.25 -22.75 -2.1 -23.55 -1.8 -25.1 -1.8 -25.3 -1.8 -25.4 -1.75 -25.45 -1.75 -25.45 -1.75 -25.45 L-1.75 -25.45" fill="#000000" fill-opacity="0.36862746" fill-rule="evenodd" stroke="none"/>
    <path d="M-10.55 -26.25 Q-10.55 -26.25 -10.55 -26.25 -10.55 -26.3 -10.5 -26.35 -10.5 -26.4 -10.45 -26.4 -10.45 -26.45 -10.45 -26.5 -10.4 -26.55 -10.4 -26.55 -10.35 -26.6 -10.35 -26.65 -10.6 -26.65 -11.0 -26.75 -11.1 -26.75 -11.15 -26.75 -11.25 -26.8 -11.35 -26.8 -11.4 -26.8 -11.5 -26.8 -11.6 -26.8 -11.65 -26.85 -11.75 -26.85 -11.8 -26.85 -11.9 -26.85 -12.0 -26.9 -12.05 -26.9 -12.15 -26.9 -12.2 -26.95 -12.3 -26.95 -12.3 -26.9 -12.3 -26.85 -12.35 -26.85 -12.35 -26.8 -12.35 -26.75 -12.4 -26.7 -12.4 -26.7 -12.4 -26.65 -12.4 -26.6 -12.4 -26.55 -12.55 -26.25 -12.8 -25.6 -13.05 -25.0 -13.2 -24.7 -13.7 -23.4 -14.15 -22.3 -14.3 -21.9 -14.9 -20.55 -15.35 -19.45 -15.6 -18.8 -15.85 -18.25 -16.15 -17.4 -16.65 -16.1 -16.75 -16.0 -17.0 -15.35 -17.8 -13.35 -17.85 -13.2 -19.0 -10.45 -19.25 -9.9 -19.85 -8.35 -20.4 -7.0 -20.75 -6.25 -20.85 -6.05 -21.45 -4.5 -21.85 -3.45 -22.1 -2.75 -22.2 -2.5 -22.45 -1.95 -22.7 -1.4 -22.8 -1.15 -22.85 -1.1 -22.85 -1.05 -22.85 -1.0 -22.85 -0.95 -22.85 -0.95 -22.85 -0.9 -22.8 -0.9 -22.75 -0.95 -22.75 -0.95 -22.7 -1.0 -22.6 -1.1 -22.5 -1.2 -22.35 -1.3 -22.25 -1.4 -22.15 -1.45 -22.05 -1.5 -21.95 -1.55 -21.8 -1.55 -21.7 -1.55 -21.6 -1.55 -21.45 -1.55 -21.35 -1.5 -21.2 -1.45 -21.1 -1.4 -20.95 -1.35 -20.8 -1.25 -20.8 -1.25 -20.75 -1.2 -20.75 -1.25 -20.7 -1.25 -20.7 -1.3 -20.7 -1.3 -20.65 -1.45 -20.7 -1.35 -20.7 -1.35 -20.7 -1.35 -20.7 -1.4 -20.65 -1.45 -20.65 -1.5 -20.65 -1.55 -20.65 -1.65 -20.4 -2.2 -20.2 -2.6 -19.45 -4.4 -18.85 -5.9 -18.6 -6.55 -17.7 -8.8 -17.4 -9.5 -17.25 -9.9 -16.7 -11.2 -16.25 -12.3 -15.95 -12.95 -15.8 -13.3 -15.55 -14.0 -15.25 -14.75 -15.1 -15.1 -14.55 -16.45 -14.2 -17.3 -13.95 -17.9 -13.05 -20.1 -12.9 -20.55 -12.6 -21.25 -12.25 -22.1 -12.15 -22.35 -12.05 -22.6 -11.0 -25.15 -10.9 -25.45 -10.6 -26.15 -10.6 -26.2 -10.55 -26.25 L-10.55 -26.25" fill="#000000" fill-opacity="0.36862746" fill-rule="evenodd" stroke="none"/>
    <path d="M3.3 -27.6 Q1.8 -27.5 -2.2 -27.7 -5.05 -27.9 -7.3 -28.2 -7.75 -28.25 -8.2 -28.35 -8.65 -28.4 -9.1 -28.5 -9.6 -28.55 -10.0 -28.65 -10.5 -28.7 -10.95 -28.8 -11.4 -28.9 -11.85 -29.0 -12.3 -29.1 -12.75 -29.2 -13.2 -29.3 -13.65 -29.4 -14.1 -29.5 -14.55 -29.65 -14.8 -29.7 -15.0 -29.75 -15.2 -29.85 -15.4 -29.9 -15.65 -29.95 -15.85 -30.05 -16.05 -30.1 -16.25 -30.2 -16.5 -30.3 -16.7 -30.4 -16.9 -30.5 -17.1 -30.6 -17.3 -30.7 -17.5 -30.85 -17.7 -31.0 -17.9 -31.15 -17.95 -31.2 -18.0 -31.25 -18.05 -31.3 -18.1 -31.35 -18.15 -31.4 -18.15 -31.45 -18.2 -31.5 -18.25 -31.55 -18.25 -31.6 -18.25 -31.7 -18.3 -31.75 -18.3 -31.8 -18.3 -31.9 -18.3 -31.95 -18.3 -32.05 -18.3 -32.15 -18.3 -32.2 -18.3 -32.3 -18.3 -32.35 -18.3 -32.4 -18.3 -32.5 -18.25 -32.55 -18.25 -32.6 -18.25 -32.65 -18.25 -32.75 -18.2 -32.8 -18.2 -32.85 -18.2 -32.9 -18.15 -33.0 -18.15 -33.05 -18.15 -33.1 -18.1 -33.2 -18.05 -33.35 -18.0 -33.45 -17.9 -33.6 -17.85 -33.7 -17.8 -33.75 -17.7 -33.85 -17.6 -33.9 -17.55 -33.95 -17.45 -34.0 -17.35 -34.0 -17.25 -34.0 -17.15 -34.0 -17.05 -34.0 -16.9 -33.95 -16.8 -33.95 -16.65 -33.85 -16.45 -33.75 -16.25 -33.7 -16.05 -33.6 -15.8 -33.55 -15.6 -33.45 -15.4 -33.4 -15.2 -33.35 -14.95 -33.25 -14.75 -33.2 -14.55 -33.15 -14.35 -33.1 -14.1 -33.05 -13.9 -33.0 -13.65 -32.95 -13.45 -32.9 -13.25 -32.85 -12.85 -32.75 -12.45 -32.7 -12.05 -32.6 -11.6 -32.5 -11.2 -32.45 -10.8 -32.35 -10.4 -32.3 -10.0 -32.25 -9.6 -32.15 -9.2 -32.1 -8.75 -32.05 -8.35 -32.0 -7.95 -31.95 -7.55 -31.9 -7.15 -31.85 -6.75 -31.8 -4.6 -31.55 -1.15 -31.35 -0.4 -31.3 0.8 -31.25 2.45 -31.25 2.8 -31.25 3.1 -31.25 3.45 -31.25 3.75 -31.2 4.05 -31.2 4.4 -31.2 4.7 -31.2 5.05 -31.2 5.35 -31.2 5.65 -31.2 6.0 -31.25 6.3 -31.25 6.65 -31.25 6.95 -31.3 7.25 -31.3 7.6 -31.35 7.9 -31.4 9.55 -31.55 11.75 -31.85 12.35 -31.95 13.0 -32.05 13.65 -32.2 14.25 -32.35 14.85 -32.5 15.5 -32.7 16.1 -32.85 16.75 -33.1 17.3 -33.3 17.95 -33.5 18.45 -33.7 19.2 -33.95 27.15 -36.9 20.4 -34.4 21.1 -34.65 21.6 -34.85 21.6 -34.85 21.65 -34.9 21.7 -34.9 21.75 -34.9 22.0 -34.95 22.2 -35.0 22.4 -35.05 22.5 -35.05 22.65 -35.05 22.75 -35.0 22.85 -35.0 22.95 -34.9 23.0 -34.8 23.05 -34.7 23.1 -34.55 23.1 -34.35 23.1 -34.2 23.1 -33.9 23.1 -33.7 23.1 -33.3 23.1 -33.05 23.05 -32.8 23.0 -32.55 22.9 -32.35 22.85 -32.15 22.75 -31.95 22.65 -31.8 22.5 -31.65 22.4 -31.5 22.25 -31.35 22.1 -31.2 21.95 -31.1 21.8 -30.95 21.6 -30.85 21.45 -30.75 21.25 -30.65 20.9 -30.45 20.5 -30.25 20.15 -30.1 19.75 -29.95 19.4 -29.8 19.0 -29.65 18.6 -29.5 18.2 -29.4 17.85 -29.25 17.45 -29.15 17.05 -29.05 16.65 -28.95 16.3 -28.85 15.85 -28.75 15.55 -28.7 15.1 -28.55 13.45 -28.2 8.85 -27.8 8.5 -27.75 8.2 -27.75 7.85 -27.7 7.5 -27.7 7.2 -27.65 6.85 -27.65 6.5 -27.65 6.15 -27.6 5.85 -27.6 5.5 -27.6 5.15 -27.6 4.75 -27.6 4.4 -27.6 4.05 -27.6 3.7 -27.55 3.3 -27.6 L3.3 -27.6" fill="#000000" fill-opacity="0.32156864" fill-rule="evenodd" stroke="none"/>
  </g>
</svg>
