<?xml version="1.0" encoding="UTF-8" standalone="no"?>
<svg xmlns:xlink="http://www.w3.org/1999/xlink" height="200.0px" width="200.0px" xmlns="http://www.w3.org/2000/svg">
  <g transform="matrix(1.0, 0.0, 0.0, 1.0, 100.0, 100.0)">
    <path d="M-40.15 38.2 Q-41.85 38.05 -43.2 37.95 -44.45 37.85 -45.45 37.8 -46.35 37.75 -47.1 37.75 -47.75 37.75 -48.35 37.75 -48.8 37.8 -49.3 37.85 -49.25 37.85 -50.25 37.95 -50.85 38.0 -51.3 38.05 -52.0 38.1 -52.7 38.15 -54.75 37.85 -56.5 37.85 -58.0 37.85 -59.4 38.1 -60.45 38.25 -61.6 38.65 -40.55 32.3 -63.45 39.2 -64.45 39.5 -65.2 39.6 -66.1 39.7 -67.05 39.55 -68.05 39.35 -69.25 38.75 -70.55 38.15 -72.15 37.1 -72.9 36.75 -73.65 36.5 -74.25 36.3 -74.9 36.1 -75.4 36.0 -75.95 35.9 -75.55 35.95 -76.9 35.7 -77.45 35.6 -77.85 35.5 -78.3 35.35 -78.75 35.2 -79.25 35.0 -79.8 34.75 -80.35 34.4 -80.95 34.0 -81.95 33.5 -82.9 33.15 -83.75 32.85 -84.6 32.65 -85.3 32.5 -86.1 32.5 -86.7 32.45 -87.45 32.45 -87.55 32.45 -88.75 32.5 -89.55 32.55 -90.05 32.55 -90.75 32.5 -91.35 32.4 -92.05 32.3 -92.7 32.05 -92.9 32.05 -93.1 32.0 -93.3 31.95 -93.45 31.85 -93.65 31.75 -93.8 31.65 -93.95 31.55 -94.1 31.4 -94.25 31.3 -94.35 31.15 -94.5 31.0 -94.55 30.8 -94.65 30.65 -94.7 30.45 -94.75 30.25 -94.8 30.1 -94.8 29.9 -94.8 29.65 -94.8 29.45 -94.7 29.25 -94.65 29.05 -94.55 28.85 -94.5 28.7 -94.35 28.5 -94.25 28.35 -94.1 28.2 -93.9 28.05 -93.75 27.95 -93.55 27.85 -93.35 27.75 -93.15 27.65 -92.95 27.65 -92.85 27.35 -92.8 27.1 -92.7 26.8 -92.6 26.5 -92.5 26.2 -92.4 25.85 -92.3 25.5 -92.15 25.2 -92.05 24.8 -91.95 24.45 -91.8 24.1 -91.7 23.7 -91.55 23.3 -91.4 22.95 -91.25 22.5 -91.1 22.1 -90.95 21.75 -90.8 21.3 -90.55 20.65 -90.3 20.0 -89.95 19.1 -89.55 18.2 -89.1 17.15 -88.65 16.05 -88.05 14.8 -87.5 13.6 -86.85 12.25 -86.15 10.9 -85.4 9.45 -84.65 8.1 -83.8 6.55 -82.95 5.15 -82.6 4.6 -82.3 4.1 -81.85 3.4 -81.35 2.7 -80.75 1.8 -80.05 0.85 -79.2 -0.25 -78.3 -1.4 -77.25 -2.7 -76.1 -4.1 -74.8 -5.65 -73.35 -7.25 -71.75 -9.05 -70.0 -10.9 -68.1 -12.95 -66.0 -15.05 -65.3 -15.75 -64.5 -16.55 -63.05 -17.95 -61.55 -19.4 -59.5 -21.3 -57.45 -23.15 -54.95 -25.4 -52.5 -27.45 -49.65 -29.85 -46.95 -31.9 -43.95 -34.25 -41.15 -36.15 -38.0 -38.25 -35.25 -39.8 -32.2 -41.45 -29.65 -42.45 -28.8 -42.75 -27.9 -43.05 -27.0 -43.3 -26.1 -43.55 -25.2 -43.75 -24.3 -43.95 -23.45 -44.15 -22.55 -44.3 -21.7 -44.45 -20.9 -44.55 -20.1 -44.65 -19.3 -44.75 -18.55 -44.8 -17.85 -44.85 -17.2 -44.85 -16.6 -44.85 -16.1 -44.85 -15.55 -44.85 -15.05 -44.85 -14.55 -44.8 -14.05 -44.75 -13.6 -44.7 -13.2 -44.65 -12.8 -44.6 -12.45 -44.6 -12.1 -44.55 -11.85 -44.5 -11.6 -44.45 -11.4 -44.4 -11.25 -44.4 -11.2 -44.4 -11.15 -44.35 -10.85 -44.25 -10.55 -44.15 -10.35 -44.05 -10.05 -43.95 -10.0 -43.9 -9.6 -43.75 -9.35 -43.6 -9.2 -43.55 -8.95 -43.45 -8.8 -43.4 -8.6 -43.35 -8.4 -43.3 -8.15 -43.25 -7.95 -43.3 -7.7 -43.3 -7.45 -43.3 -7.35 -43.3 -7.2 -43.3 -7.1 -43.3 -6.95 -43.3 -6.85 -43.3 -6.75 -43.3 -6.65 -43.25 -6.5 -43.25 -6.4 -43.25 -6.3 -43.2 -6.2 -43.2 -6.05 -43.15 -5.95 -43.1 -5.85 -43.1 -5.75 -43.05 -5.6 -43.0 -5.45 -42.9 -5.35 -42.85 -5.2 -42.8 -5.05 -42.75 -4.9 -42.75 -4.75 -42.75 -4.65 -42.7 -4.5 -42.75 -4.35 -42.75 -4.2 -42.75 -4.05 -42.75 -3.9 -42.75 -3.5 -42.8 -3.6 -42.8 -3.4 -42.85 -3.25 -42.85 2.8 -43.2 3.75 -42.85 3.85 -42.8 3.95 -42.75 4.05 -42.7 4.15 -42.65 4.25 -42.55 4.35 -42.5 4.4 -42.4 4.5 -42.3 4.55 -42.2 4.6 -42.1 4.65 -42.0 4.75 -41.9 4.8 -41.8 4.85 -41.7 4.9 -41.6 4.95 -41.45 5.75 -39.8 6.2 -38.1 6.6 -36.45 6.75 -34.75 6.85 -33.1 6.75 -31.4 6.6 -29.8 6.25 -28.05 5.95 -26.5 5.4 -24.75 4.95 -23.25 4.35 -21.5 3.85 -20.15 3.15 -18.25 1.55 -14.2 1.9 -15.1 0.7 -12.15 -2.75 -6.3 -3.45 -4.9 -4.05 -3.5 -4.55 -2.25 -4.95 -0.95 -5.3 0.2 -5.55 1.4 -5.75 2.4 -5.95 3.6 -5.85 2.85 -6.3 5.65 -6.5 6.8 -6.65 7.5 -6.85 8.5 -7.15 9.25 -7.4 10.15 -7.8 10.9 -8.25 11.75 -8.75 12.6 -9.25 13.4 -9.85 14.2 -10.4 14.95 -11.05 15.8 -11.5 16.4 -12.25 17.3 -13.55 18.9 -13.5 18.85 -14.2 19.7 -14.7 20.4 -15.35 21.25 -15.85 21.95 -16.45 22.8 -16.95 23.6 -17.35 24.25 -17.85 25.1 18.9 -35.45 -18.65 26.4 -19.1 27.15 -19.4 27.6 -19.75 28.2 -20.1 28.65 -20.45 29.2 -20.8 29.65 -21.2 30.1 -21.6 30.55 -22.0 31.0 -22.5 31.45 -22.95 31.9 -23.55 32.35 -24.35 33.0 -25.3 33.6 -26.25 34.2 -27.35 34.8 -28.4 35.3 -29.55 35.8 -30.7 36.3 -31.9 36.7 -33.05 37.1 -34.2 37.4 -35.35 37.7 -36.4 37.9 -37.5 38.1 -38.4 38.2 -39.4 38.25 -40.15 38.2 L-40.15 38.2" fill="#8f1111" fill-rule="evenodd" stroke="none"/>
    <path d="M73.7 32.9 Q72.8 32.85 71.9 32.75 71.05 32.7 70.2 32.55 69.4 32.45 68.65 32.25 67.95 32.1 67.25 31.95 66.65 31.8 66.0 31.6 65.5 31.4 64.95 31.25 64.5 31.05 64.05 30.9 63.65 30.75 63.3 30.6 62.65 30.3 61.45 29.7 60.2 29.1 59.6 28.8 58.65 28.3 57.85 27.9 56.95 27.4 56.2 27.0 55.35 26.55 54.6 26.1 53.8 25.6 53.1 25.1 52.35 24.6 51.65 24.05 50.95 23.5 50.3 22.95 49.65 22.35 49.0 21.7 48.5 21.15 48.0 20.6 47.65 20.15 47.3 19.65 47.0 19.3 46.7 18.8 45.25 16.65 46.15 18.0 45.9 17.6 45.65 17.3 45.35 16.9 45.05 16.6 44.75 16.2 44.35 15.9 43.9 15.5 43.4 15.15 40.85 13.4 39.65 12.4 37.5 10.6 36.8 9.75 36.45 9.3 36.1 8.8 35.8 8.35 35.55 7.85 35.3 7.4 35.05 6.9 34.85 6.5 34.65 5.95 34.6 5.85 34.25 5.05 34.0 4.5 33.85 4.15 33.65 3.65 33.45 3.3 33.2 2.85 33.0 2.45 32.8 2.1 32.55 1.75 32.3 1.4 32.05 1.05 31.8 0.7 31.55 0.4 31.3 0.05 31.05 -0.25 30.75 -0.55 30.45 -0.85 30.2 -1.2 29.9 -1.45 29.6 -1.75 29.25 -2.05 28.95 -2.35 28.65 -2.6 27.95 -3.2 27.35 -3.8 26.8 -4.35 26.35 -4.95 25.9 -5.5 25.55 -6.1 25.2 -6.65 24.85 -7.25 24.6 -7.7 24.3 -8.35 31.85 6.95 23.75 -9.45 23.45 -10.1 23.2 -10.55 22.9 -11.1 22.55 -11.6 21.65 -13.1 19.7 -15.7 17.6 -18.45 16.8 -19.75 16.1 -21.0 15.4 -22.4 14.75 -23.65 14.1 -25.1 13.55 -26.35 12.95 -27.85 12.45 -29.1 11.9 -30.65 11.45 -31.75 10.85 -33.45 9.8 -36.3 9.85 -36.25 9.25 -37.9 8.8 -39.1 8.2 -40.6 7.7 -41.85 7.55 -42.2 7.5 -42.45 7.5 -42.7 7.55 -42.85 7.65 -43.0 7.8 -43.15 7.95 -43.25 8.15 -43.3 8.35 -43.35 8.6 -43.4 8.8 -43.4 9.1 -43.45 9.45 -43.5 9.6 -43.55 9.85 -43.55 10.0 -43.65 10.75 -43.8 11.35 -43.9 11.95 -44.0 12.45 -44.05 12.95 -44.1 13.35 -44.15 13.75 -44.2 14.15 -44.25 14.5 -44.25 14.85 -44.25 15.2 -44.3 15.6 -44.25 15.9 -44.25 16.35 -44.2 16.7 -44.2 17.2 -44.15 17.25 -44.15 17.3 -44.2 17.35 -44.2 17.35 -44.2 17.4 -44.25 17.45 -44.3 17.45 -44.3 17.5 -44.35 17.55 -44.35 17.6 -44.4 17.6 -44.45 17.65 -44.5 17.65 -44.55 17.7 -44.6 17.85 -44.75 17.8 -44.7 18.0 -45.0 18.3 -45.25 18.55 -45.5 18.85 -45.7 19.1 -45.9 19.45 -46.05 19.75 -46.2 20.1 -46.3 20.45 -46.4 20.8 -46.45 21.1 -46.5 21.45 -46.5 21.8 -46.5 22.15 -46.45 22.5 -46.4 22.8 -46.35 24.6 -45.85 25.9 -45.45 27.35 -45.05 28.45 -44.7 29.6 -44.35 30.55 -44.0 31.5 -43.65 32.35 -43.25 33.2 -42.9 34.0 -42.5 34.75 -42.1 35.6 -41.6 36.4 -41.15 37.35 -40.6 38.15 -40.05 39.35 -39.3 39.85 -39.0 40.3 -38.7 40.75 -38.4 41.2 -38.1 41.65 -37.8 42.05 -37.5 42.45 -37.2 42.85 -36.9 43.2 -36.65 43.6 -36.35 43.95 -36.1 44.3 -35.8 44.6 -35.55 44.95 -35.25 45.25 -35.0 45.55 -34.75 46.15 -34.25 46.7 -33.75 47.25 -33.25 47.75 -32.75 48.25 -32.3 48.7 -31.85 49.15 -31.45 49.6 -31.0 50.0 -30.6 50.4 -30.2 50.75 -29.85 51.1 -29.45 51.4 -29.15 51.75 -28.75 51.95 -28.55 52.4 -28.1 53.35 -27.05 54.3 -26.1 55.15 -25.25 56.0 -24.45 56.75 -23.75 57.55 -23.05 58.2 -22.45 58.95 -21.8 59.4 -21.45 60.3 -20.7 61.1 -20.0 61.55 -19.65 62.25 -19.05 62.8 -18.55 63.5 -17.9 64.15 -17.3 65.25 -16.2 66.25 -15.05 67.2 -13.95 68.1 -12.7 69.0 -11.5 69.8 -10.15 70.6 -8.85 71.45 -7.3 72.2 -5.9 73.05 -4.15 73.8 -2.6 74.7 -0.6 75.45 1.1 76.45 3.45 77.1 4.9 78.45 8.05 78.85 9.0 79.25 9.95 79.7 11.0 80.1 12.05 80.55 13.2 80.95 14.3 81.45 15.55 81.9 16.75 82.35 18.05 82.8 19.35 83.3 20.75 83.75 22.15 84.25 23.6 84.7 25.05 85.15 26.6 85.6 28.15 85.6 28.2 85.6 28.3 85.65 28.35 85.65 28.4 85.65 28.5 85.65 28.55 85.65 28.65 85.65 28.75 85.65 28.8 85.6 28.9 85.6 29.0 85.6 29.05 85.6 29.15 85.55 29.25 85.55 29.35 85.5 29.45 85.4 29.7 85.3 29.9 85.15 30.1 85.0 30.3 84.85 30.45 84.65 30.65 84.45 30.8 84.25 30.95 84.0 31.05 83.75 31.2 83.55 31.3 83.3 31.45 83.05 31.55 82.75 31.65 82.55 31.7 82.25 31.8 81.55 32.05 80.75 32.2 80.05 32.4 79.3 32.5 78.65 32.65 77.95 32.7 77.3 32.8 76.7 32.85 76.15 32.9 75.6 32.9 75.15 32.95 74.7 32.95 74.35 32.95 74.05 32.9 73.85 32.9 73.7 32.9 L73.7 32.9" fill="#8f1111" fill-rule="evenodd" stroke="none"/>
    <path d="M-2.55 53.1 Q-2.55 53.15 -2.55 53.2 -2.55 53.25 -2.5 53.25 -2.5 53.3 -2.5 53.35 -2.5 53.4 -2.5 53.4 -2.5 53.45 -2.5 53.5 -2.5 53.5 -2.45 53.55 -2.45 53.6 -2.45 53.6 -2.45 53.65 -2.45 53.7 -2.45 53.85 -2.45 53.95 -2.45 54.1 -2.45 54.2 -2.45 54.3 -2.5 54.4 -2.55 54.5 -2.6 54.55 -2.65 54.65 -2.7 54.7 -2.75 54.8 -2.85 54.85 -2.95 54.9 -3.05 54.95 -3.15 55.0 -3.3 55.05 -3.45 55.1 -3.6 55.15 -3.75 55.2 -3.9 55.25 -4.05 55.3 -4.2 55.3 -4.35 55.35 -4.5 55.4 -4.65 55.45 -4.8 55.45 -4.95 55.5 -5.1 55.5 -5.25 55.55 -5.4 55.55 -5.55 55.6 -5.7 55.6 -5.85 55.6 -5.95 55.65 -6.1 55.65 -6.25 55.65 -6.4 55.7 -6.5 55.7 -6.65 55.7 -6.8 55.7 -6.95 55.7 -7.05 55.75 -7.2 55.75 -7.35 55.75 -7.5 55.75 -7.6 55.75 -7.75 55.75 -7.9 55.75 -8.0 55.75 -8.1 55.75 -8.85 55.85 -11.4 55.65 -12.0 55.6 -13.6 55.5 -17.45 55.15 -19.95 54.65 -20.25 54.6 -20.6 54.5 -20.9 54.45 -21.25 54.4 -21.55 54.3 -21.9 54.2 -22.2 54.15 -22.5 54.05 -22.85 53.95 -23.15 53.85 -23.45 53.75 -23.8 53.65 -24.1 53.55 -24.4 53.45 -24.75 53.3 -25.05 53.2 -25.3 53.1 -25.9 52.85 -26.0 52.8 -26.05 52.75 -26.1 52.7 -26.2 52.7 -26.25 52.65 -26.35 52.6 -26.4 52.55 -26.45 52.5 -26.55 52.45 -26.6 52.4 -26.65 52.35 -26.7 52.3 -26.75 52.2 -26.85 52.15 -26.9 52.1 -26.95 52.0 -26.95 52.0 -27.0 51.95 -27.0 51.95 -27.05 51.9 -27.05 51.9 -27.05 51.9 -27.1 51.85 -27.1 51.85 -27.15 51.85 -27.2 51.8 -27.2 51.8 -27.25 51.8 -27.25 51.75 -27.3 51.75 -27.3 51.75 -27.35 51.75 -27.6 51.65 -27.8 51.55 -28.0 51.45 -28.2 51.35 -28.4 51.2 -28.6 51.05 -28.75 50.95 -28.95 50.75 -29.1 50.6 -29.25 50.45 -29.4 50.25 -29.5 50.05 -29.65 49.85 -29.75 49.65 -29.85 49.45 -29.95 49.2 -30.0 49.05 -30.05 49.0 -30.1 48.95 -30.15 48.9 -30.2 48.9 -30.4 48.9 -31.35 48.95 -33.05 49.05 -34.9 49.15 -35.7 49.2 -35.9 49.2 -36.8 49.4 -36.85 49.4 -36.9 49.4 -36.95 49.4 -37.0 49.45 -37.05 49.45 -37.1 49.45 -37.15 49.45 -37.2 49.45 -37.25 49.45 -37.3 49.45 -37.35 49.45 -37.4 49.45 -37.45 49.4 -37.5 49.4 -37.55 49.4 -37.6 49.4 -37.7 49.4 -37.8 49.4 -37.85 49.35 -37.95 49.35 -38.05 49.35 -38.15 49.35 -38.2 49.35 -38.3 49.35 -38.4 49.35 -38.5 49.35 -38.6 49.35 -38.65 49.35 -38.75 49.35 -38.85 49.35 -38.95 49.4 -39.05 49.4 -39.1 49.4 -39.15 49.4 -39.2 49.4 -39.25 49.4 -39.3 49.45 -39.3 49.45 -39.35 49.45 -39.4 49.45 -39.45 49.4 -39.5 49.4 -39.55 49.4 -39.6 49.4 -39.65 49.4 -39.7 49.4 -39.7 49.35 -39.75 49.35 -39.85 49.3 -40.0 49.25 -40.1 49.2 -40.2 49.2 -40.3 49.15 -40.45 49.1 -40.55 49.1 -40.7 49.1 -40.8 49.05 -40.9 49.05 -42.95 48.8 -41.15 49.0 -41.3 49.0 -41.4 49.0 -41.55 48.95 -41.65 48.95 -42.1 48.85 -42.9 48.75 -43.9 48.55 -44.1 48.5 -44.15 48.5 -44.2 48.5 -44.2 48.5 -44.25 48.5 -44.3 48.45 -44.35 48.45 -44.4 48.45 -44.4 48.45 -44.45 48.45 -44.5 48.45 -44.5 48.4 -44.55 48.4 -44.6 48.4 -44.65 48.4 -44.65 48.35 -44.7 48.35 -44.75 48.35 -44.75 48.3 -44.8 48.3 -44.85 48.3 -44.85 48.25 -44.9 48.25 -44.9 48.2 -44.95 48.2 -44.95 48.15 -45.0 48.15 -45.0 48.1 -45.0 48.05 -45.05 48.05 -45.05 48.0 -45.05 47.95 -45.05 47.9 -45.05 47.85 -45.05 47.75 -45.1 47.7 -45.1 47.6 -45.1 47.55 -45.1 47.45 -45.1 47.4 -45.1 47.3 -45.1 47.25 -45.1 47.15 -45.05 47.1 -45.05 47.0 -45.05 46.95 -45.05 46.85 -45.05 46.8 -45.05 46.7 -45.05 46.65 -45.0 46.6 -45.0 46.6 -44.95 46.55 -44.95 46.5 -44.9 46.5 -44.85 46.45 -44.8 46.45 -44.75 46.45 -44.7 46.45 -44.65 46.45 -44.6 46.45 -44.55 46.4 -44.55 46.4 -44.5 46.4 -44.45 46.4 -44.4 46.4 -44.35 46.4 -44.3 46.4 -44.25 46.4 -44.05 46.4 -43.85 46.45 -43.65 46.45 -43.45 46.45 -43.25 46.45 -43.05 46.4 -42.85 46.4 -42.65 46.4 -42.45 46.35 -42.25 46.3 -42.1 46.3 -41.9 46.25 -41.7 46.2 -41.5 46.15 -41.3 46.1 -41.1 46.05 -41.05 46.05 -39.3 45.55 -39.25 45.55 -39.15 45.5 -39.05 45.5 -39.0 45.5 -38.9 45.5 -38.85 45.5 -38.75 45.5 -38.7 45.5 -38.65 45.5 -38.6 45.5 -38.5 45.55 -38.5 45.55 -38.45 45.6 -38.4 45.65 -38.35 45.65 -38.35 45.7 -38.3 45.8 -38.3 45.85 -38.25 45.9 -38.2 46.0 -38.2 46.05 -38.15 46.25 -38.15 46.3 -38.1 46.3 -38.1 46.35 -38.1 46.4 -38.05 46.4 -38.05 46.45 -38.0 46.45 -38.0 46.5 -37.95 46.5 -37.95 46.5 -37.9 46.55 -37.9 46.55 -37.85 46.55 -37.8 46.55 -37.8 46.55 -37.75 46.55 -37.65 46.55 -37.6 46.55 -37.5 46.55 -37.4 46.55 -37.35 46.55 -37.25 46.55 -37.15 46.55 -37.1 46.55 -37.0 46.55 -36.9 46.55 -36.85 46.55 -36.75 46.5 -36.65 46.5 -36.6 46.5 -36.5 46.5 -36.4 46.5 -34.65 46.25 -32.5 46.0 -32.45 46.0 -32.4 46.0 -32.35 46.0 -32.3 45.95 -32.25 45.95 -32.2 45.95 -32.15 45.95 -32.15 45.95 -32.1 45.9 -32.05 45.9 -32.0 45.9 -31.95 45.85 -31.9 45.85 -31.85 45.8 -31.8 45.8 -31.75 45.75 -31.65 45.65 -31.5 45.6 -31.35 45.5 -31.25 45.45 -31.1 45.35 -30.95 45.3 -30.85 45.2 -30.7 45.15 -30.55 45.1 -30.4 45.05 -30.3 44.95 -30.15 44.9 -30.0 44.85 -29.85 44.8 -29.7 44.75 -29.55 44.7 -29.5 44.65 -29.45 44.65 -29.35 44.6 -29.3 44.6 -29.25 44.55 -29.2 44.55 -29.15 44.5 -29.1 44.45 -29.0 44.45 -28.95 44.4 -28.9 44.35 -28.85 44.35 -28.8 44.3 -28.75 44.25 -28.7 44.2 -28.65 44.15 -28.6 44.1 -28.5 44.0 -28.4 43.95 -28.35 43.9 -28.25 43.85 -28.15 43.8 -28.1 43.75 -28.0 43.7 -27.9 43.65 -27.8 43.6 -27.75 43.55 -27.65 43.55 -27.55 43.5 -27.45 43.45 -27.35 43.45 -27.25 43.4 -27.2 43.4 -27.15 43.35 -27.1 43.35 -27.1 43.35 -27.05 43.3 -27.0 43.3 -26.95 43.3 -26.95 43.25 -26.9 43.25 -26.85 43.2 -26.85 43.2 -26.8 43.15 -26.75 43.1 -26.75 43.1 -26.7 43.05 -26.65 43.0 -26.45 42.75 -26.3 42.55 -26.1 42.35 -25.85 42.2 -25.65 42.05 -25.45 41.9 -25.2 41.75 -24.95 41.65 -24.75 41.55 -24.45 41.5 -24.2 41.45 -23.95 41.4 -23.7 41.35 -23.4 41.35 -23.1 41.3 -22.8 41.35 -22.75 41.35 -22.7 41.35 -22.65 41.35 -22.6 41.35 -22.55 41.35 -22.5 41.35 -22.45 41.35 -22.4 41.35 -22.35 41.35 -22.35 41.35 -22.3 41.35 -22.3 41.35 -22.25 41.35 -22.2 41.35 -22.2 41.35 -22.15 41.35 -22.15 41.35 -22.1 41.35 -22.05 41.3 -22.05 41.3 -22.0 41.3 -22.0 41.3 -21.95 41.25 -21.9 41.25 -21.8 41.2 -21.65 41.1 -21.55 41.05 -21.4 40.95 -21.3 40.9 -21.15 40.8 -20.95 40.7 -20.9 40.7 -20.75 40.6 -20.65 40.55 -20.5 40.45 -20.4 40.4 -20.25 40.3 -20.15 40.25 -20.05 40.15 -19.9 40.05 -19.85 40.05 -19.85 40.0 -19.8 40.0 -19.8 39.95 -19.75 39.95 -19.7 39.95 -19.7 39.9 -19.65 39.9 -19.6 39.9 -19.6 39.9 -19.55 39.9 -19.5 39.9 -19.45 39.9 -19.45 39.9 -19.4 39.9 -19.35 39.9 -19.3 39.9 -19.25 39.9 -19.2 39.9 -19.15 39.9 -19.1 39.9 -19.05 39.9 -19.0 39.85 -18.95 39.85 -18.9 39.85 -18.85 39.85 -18.8 39.8 -18.75 39.8 -18.7 39.8 -18.65 39.75 -18.6 39.75 -18.55 39.7 -17.55 39.3 -15.15 38.7 -14.45 38.5 -14.1 38.35 -13.95 38.3 -13.8 38.25 -13.65 38.2 -13.5 38.15 -13.35 38.1 -13.2 38.0 -13.05 37.95 -12.9 37.9 -12.75 37.8 -12.65 37.75 -12.5 37.65 -12.35 37.6 -12.25 37.5 -12.1 37.4 -11.95 37.3 -11.85 37.25 -9.9 35.75 -9.4 35.3 -9.3 35.2 -9.15 35.05 -9.05 34.95 -8.95 34.85 -8.85 34.7 -8.75 34.6 -8.65 34.45 -8.55 34.35 -8.45 34.2 -8.35 34.1 -8.25 33.95 -8.2 33.85 -8.1 33.7 -8.05 33.55 -7.95 33.4 -7.9 33.25 -7.9 33.2 -7.85 33.2 -7.85 33.15 -7.85 33.1 -7.8 33.05 -7.8 33.05 -7.8 33.0 -7.8 32.95 -7.8 32.9 -7.8 32.9 -7.8 32.85 -7.8 32.8 -7.85 32.75 -7.85 32.7 -7.85 32.7 -7.9 32.65 -7.95 32.55 -8.0 32.45 -8.1 32.35 -8.15 32.25 -8.2 32.15 -8.25 32.05 -8.35 31.95 -8.4 31.85 -8.45 31.75 -8.55 31.7 -8.6 31.6 -8.7 31.5 -8.75 31.4 -8.85 31.35 -8.95 31.25 -9.0 31.15 -9.05 31.1 -9.1 31.05 -9.15 31.0 -9.2 30.9 -9.25 30.85 -9.3 30.8 -9.3 30.7 -9.35 30.65 -9.35 30.55 -9.35 30.5 -9.35 30.4 -9.35 30.3 -9.35 30.25 -9.35 30.15 -9.3 30.1 -9.3 30.05 -9.3 30.0 -9.25 29.95 -9.25 29.95 -9.2 29.9 -9.15 29.85 -9.15 29.85 -9.1 29.8 -9.1 29.8 -9.05 29.75 -9.0 29.75 -8.95 29.7 -8.95 29.7 -8.9 29.7 -8.85 29.65 -8.8 29.65 -8.75 29.65 -8.7 29.65 -8.65 29.65 -8.65 29.65 -8.6 29.65 -8.55 29.65 -8.5 29.65 -8.45 29.65 -8.45 29.65 -8.4 29.65 -8.35 29.65 -8.3 29.65 -8.25 29.65 -8.2 29.65 -8.2 29.65 -8.15 29.65 -8.1 29.65 -7.85 29.65 -7.1 29.7 -6.95 29.7 -6.9 29.7 -6.8 29.7 -6.75 29.6 -6.75 29.55 -6.7 29.4 -6.7 29.4 -6.65 29.25 -6.6 29.1 -6.5 28.95 -6.45 28.75 -6.35 28.6 -6.3 28.45 -6.2 28.3 -6.1 28.2 -6.0 28.05 -5.9 27.9 -5.75 27.8 -5.65 27.65 -5.55 27.55 -5.4 27.4 -5.25 27.3 -5.1 27.2 -4.95 27.1 -4.9 27.05 -4.85 27.05 -4.8 27.0 -4.8 26.95 -4.75 26.95 -4.7 26.9 -4.65 26.85 -4.65 26.85 -4.6 26.8 -4.6 26.75 -4.55 26.7 -4.55 26.65 -4.5 26.6 -4.5 26.55 -4.45 26.5 -4.45 26.45 -4.4 26.3 -4.25 25.9 -4.1 25.55 -4.05 25.35 -4.0 25.25 -3.95 25.2 -3.95 25.1 -3.9 25.05 -3.85 24.95 -3.8 24.9 -3.7 24.85 -3.65 24.85 -3.6 24.8 -3.5 24.75 -3.45 24.75 -3.35 24.75 -3.25 24.7 -3.15 24.7 -3.05 24.7 -2.9 24.75 -2.85 24.75 -2.8 24.75 -2.75 24.75 -2.75 24.8 -2.7 24.8 -2.65 24.8 -2.6 24.8 -2.55 24.85 -2.55 24.85 -2.5 24.85 -2.45 24.9 -2.4 24.9 -2.35 24.95 -2.35 24.95 -2.3 25.0 -2.25 25.0 -2.2 25.05 -2.15 25.05 -2.1 25.05 -2.05 25.05 -2.05 25.1 -2.0 25.05 -1.95 25.05 -1.9 25.05 -1.85 25.0 -1.85 24.95 -1.8 24.9 -1.75 24.9 -1.7 24.85 -1.7 24.8 -1.65 24.75 -1.6 24.75 -1.6 24.7 -1.55 24.65 -1.5 24.6 -1.5 24.55 -1.45 24.5 -1.45 24.45 -1.4 24.4 -1.4 24.35 -1.35 24.3 -1.35 24.25 -0.55 22.35 -0.3 21.75 0.15 20.5 1.25 17.7 1.3 17.55 1.4 17.4 1.45 17.25 1.5 17.05 1.55 16.9 1.6 16.75 1.65 16.6 1.7 16.45 1.75 16.25 1.8 16.1 1.85 15.95 1.9 15.8 1.95 15.6 2.0 15.45 2.0 15.3 2.05 15.1 2.1 14.8 2.15 14.3 2.25 13.65 2.25 13.55 2.25 13.5 2.25 13.5 2.25 13.45 2.25 13.4 2.25 13.4 2.25 13.35 2.25 13.35 2.25 13.3 2.25 13.25 2.25 13.25 2.25 13.2 2.2 13.2 2.2 13.15 2.2 13.15 2.2 13.1 2.15 13.1 2.15 13.05 2.1 13.0 2.1 13.0 2.05 12.95 2.05 12.9 2.0 12.85 2.0 12.8 1.95 12.8 1.9 12.75 1.9 12.7 1.85 12.6 1.8 12.55 1.75 12.45 1.7 12.4 1.65 12.3 1.65 12.25 1.65 12.15 1.65 12.1 1.65 12.0 1.65 11.95 1.65 11.85 1.7 11.8 1.7 11.7 1.75 11.6 1.8 11.55 1.85 11.45 1.85 11.4 1.9 11.4 1.9 11.35 1.95 11.35 1.95 11.3 1.95 11.3 2.0 11.25 2.0 11.2 2.05 11.2 2.05 11.15 2.05 11.15 2.1 11.1 2.1 11.1 2.1 11.05 2.15 11.0 2.15 11.0 2.15 10.95 2.2 10.9 2.2 10.85 2.25 10.8 2.25 10.75 2.25 10.7 2.25 10.7 2.3 10.65 2.3 10.6 2.3 10.55 2.3 10.5 2.3 10.45 2.3 10.4 2.3 10.35 2.3 10.3 2.3 10.25 2.3 10.0 2.3 9.75 2.35 9.5 2.35 9.25 2.4 9.0 2.45 8.8 2.5 8.55 2.6 8.35 2.7 8.1 2.8 7.9 2.9 7.7 3.05 7.5 3.15 7.3 3.35 7.1 3.5 6.95 3.7 6.75 3.8 6.7 3.85 6.6 3.95 6.55 4.0 6.45 4.1 6.4 4.2 6.35 4.3 6.3 4.4 6.25 4.45 6.2 4.55 6.15 4.65 6.1 4.75 6.05 4.85 6.0 4.95 5.95 5.05 5.9 5.15 5.9 5.2 5.9 5.25 5.85 5.3 5.85 5.35 5.8 5.4 5.8 5.45 5.75 5.45 5.7 5.5 5.7 5.55 5.65 5.55 5.6 5.6 5.55 5.6 5.5 5.6 5.5 5.65 5.45 5.65 5.4 5.7 5.35 5.7 5.35 5.95 3.95 6.0 3.55 6.2 2.5 6.35 1.55 6.45 1.0 6.5 0.85 6.5 0.7 6.55 0.55 6.55 0.35 6.6 0.2 6.6 0.05 6.65 -0.1 6.65 -0.25 6.65 -0.45 6.7 -0.6 6.7 -0.75 6.7 -0.9 6.7 -1.05 6.7 -1.25 6.7 -1.4 6.7 -1.55 6.7 -1.7 6.7 -1.85 6.7 -2.05 6.7 -2.2 6.7 -2.35 6.65 -2.5 6.65 -2.7 6.65 -2.85 6.6 -3.0 6.6 -3.15 6.6 -3.35 6.55 -3.5 6.5 -3.65 6.5 -3.8 6.45 -3.95 6.4 -4.15 6.4 -4.25 6.35 -4.3 6.35 -4.4 6.35 -4.45 6.35 -4.55 6.3 -4.6 6.3 -4.7 6.3 -4.8 6.3 -4.85 6.3 -4.95 6.3 -5.05 6.3 -5.1 6.3 -5.2 6.3 -5.25 6.35 -5.35 6.35 -5.45 6.35 -5.5 6.4 -5.6 6.4 -5.65 6.4 -5.7 6.45 -5.75 6.45 -5.85 6.5 -5.9 6.5 -5.95 6.55 -6.0 6.55 -6.05 6.6 -6.15 6.6 -6.2 6.65 -6.25 6.7 -6.3 6.75 -6.35 6.8 -6.4 6.85 -6.45 6.85 -6.45 6.9 -6.5 6.9 -6.55 6.95 -6.6 6.95 -6.6 7.0 -6.65 7.0 -6.7 7.0 -6.75 7.0 -6.75 7.05 -6.8 7.05 -6.85 7.05 -6.9 7.05 -6.95 7.05 -7.0 7.05 -7.05 7.05 -7.1 7.05 -7.2 7.05 -7.25 7.1 -7.35 7.1 -7.4 7.1 -7.5 7.1 -7.55 7.15 -7.65 7.15 -7.7 7.15 -7.8 7.2 -7.85 7.2 -7.9 7.25 -8.0 7.25 -8.05 7.3 -8.15 7.3 -8.2 7.35 -8.35 7.4 -8.5 7.45 -8.65 7.5 -8.8 7.55 -8.95 7.6 -9.1 7.65 -9.25 7.65 -9.4 7.7 -9.55 7.7 -9.75 7.75 -9.9 7.75 -10.05 7.8 -10.2 7.8 -10.35 7.85 -10.5 7.85 -10.65 7.85 -10.8 7.95 -11.2 8.0 -11.55 8.0 -11.7 8.0 -11.75 8.1 -12.05 8.1 -12.1 8.15 -12.15 8.15 -12.2 8.2 -12.2 8.2 -12.25 8.25 -12.3 8.25 -12.3 8.3 -12.35 8.35 -12.35 8.35 -12.4 8.4 -12.4 8.45 -12.45 8.5 -12.45 8.55 -12.45 8.6 -12.45 8.65 -12.45 8.95 -12.5 9.1 -12.45 9.15 -12.45 9.2 -12.45 9.3 -12.45 9.35 -12.45 9.4 -12.45 9.45 -12.45 9.55 -12.45 9.6 -12.45 9.65 -12.45 9.7 -12.45 9.8 -12.45 9.85 -12.45 9.9 -12.45 9.95 -12.45 10.05 -12.45 10.1 -12.45 10.2 -12.45 10.3 -12.45 10.35 -12.45 10.4 -12.45 10.5 -12.4 10.55 -12.4 10.6 -12.35 10.65 -12.35 10.65 -12.3 10.7 -12.25 10.75 -12.2 10.75 -12.15 10.8 -12.1 10.8 -12.0 10.85 -11.9 10.85 -11.8 10.85 -11.75 10.85 -11.75 10.85 -11.7 10.9 -11.7 10.9 -11.65 10.9 -11.6 10.9 -11.6 10.9 -11.55 10.9 -11.5 10.9 -11.5 10.9 -11.45 10.9 -11.4 10.9 -11.4 10.9 -11.35 10.9 -11.35 10.9 -11.3 10.9 -11.25 10.9 -11.2 10.85 -11.15 10.85 -11.1 10.85 -11.05 10.8 -11.0 10.8 -11.0 10.75 -10.95 10.75 -10.9 10.7 -10.9 10.65 -10.85 10.65 -10.85 10.6 -10.8 10.55 -10.8 10.5 -10.75 10.45 -10.75 10.4 -10.75 10.35 -10.75 10.3 -10.7 10.3 -10.7 10.25 -10.7 10.2 -10.65 10.15 -10.65 10.1 -10.6 10.1 -10.6 10.05 -10.55 10.0 -10.55 10.0 -10.5 9.95 -10.5 9.9 -10.45 9.9 -10.4 9.85 -10.4 9.8 -10.35 9.8 -10.35 9.75 -10.3 9.75 -10.25 9.75 -10.2 9.75 -10.2 9.7 -10.15 9.7 -10.1 9.7 -10.1 9.7 -10.05 9.7 -10.0 9.7 -10.0 9.7 -9.95 9.7 -9.9 9.75 -9.85 9.75 -9.85 9.75 -9.8 9.75 -9.8 9.8 -9.75 9.8 -9.7 9.8 -9.7 9.85 -9.65 9.85 -9.6 9.85 -9.6 9.85 -9.55 9.9 -9.55 9.9 -9.5 9.9 -9.45 9.95 -9.45 9.95 -9.4 9.95 -9.4 10.0 -9.35 10.4 -8.55 11.4 -6.7 12.3 -5.15 13.0 -4.25 13.3 -3.85 14.8 -1.55 14.9 -1.4 15.1 -1.05 15.3 -0.75 15.4 -0.6 15.45 -0.55 15.45 -0.5 15.5 -0.45 15.55 -0.4 15.6 -0.35 15.6 -0.3 15.65 -0.25 15.7 -0.2 15.75 -0.15 15.8 -0.15 15.85 -0.1 15.9 -0.1 15.95 -0.05 16.05 -0.05 16.1 -0.05 16.15 -0.05 16.25 -0.05 16.4 0.0 16.55 0.05 16.65 0.05 16.75 0.05 16.85 0.1 16.95 0.1 17.0 0.15 17.1 0.2 17.2 0.25 17.25 0.3 17.35 0.35 17.4 0.4 17.5 0.45 17.55 0.5 17.6 0.55 17.7 0.65 17.75 0.7 17.8 0.8 17.85 0.9 17.85 0.9 17.9 0.95 17.9 0.95 17.95 1.0 17.95 1.05 17.95 1.05 18.0 1.1 18.0 1.1 18.0 1.15 18.05 1.15 18.05 1.2 18.05 1.2 18.1 1.25 18.1 1.3 18.1 1.3 18.1 1.35 18.15 1.5 18.25 1.6 18.35 1.75 18.4 1.9 18.5 2.0 18.6 2.15 18.65 2.25 18.75 2.4 18.85 2.5 18.95 2.65 19.05 2.75 19.15 2.85 19.25 3.0 19.35 3.1 19.45 3.2 19.55 3.3 20.85 4.65 21.1 4.9 21.15 4.95 21.2 5.0 21.2 5.05 21.25 5.1 21.3 5.1 21.3 5.15 21.35 5.2 21.35 5.25 21.4 5.3 21.4 5.35 21.4 5.4 21.45 5.5 21.45 5.55 21.45 5.6 21.45 5.65 21.45 5.7 21.45 5.8 21.45 5.85 21.45 5.95 21.45 6.0 21.5 6.1 21.5 6.15 21.55 6.2 21.6 6.3 21.6 6.35 21.65 6.4 21.7 6.45 21.75 6.55 21.8 6.55 21.85 6.65 21.9 6.75 21.95 6.75 21.95 6.8 22.0 6.8 22.0 6.85 22.05 6.9 22.05 6.9 22.15 6.95 22.3 7.05 22.45 7.2 22.6 7.3 22.7 7.45 22.85 7.6 22.95 7.7 23.05 7.85 23.15 8.0 23.25 8.15 23.35 8.35 23.45 8.5 23.5 8.65 23.6 8.85 23.65 9.0 23.7 9.2 23.75 9.4 23.75 9.45 23.75 9.5 23.75 9.5 23.8 9.55 23.8 9.6 23.8 9.65 23.85 9.65 23.85 9.7 23.85 9.75 23.9 9.8 23.9 9.8 23.9 9.85 23.95 9.9 23.95 9.9 24.0 9.95 24.0 10.0 24.35 10.45 25.0 11.35 25.05 11.4 25.05 11.45 25.1 11.45 25.15 11.5 25.15 11.55 25.2 11.6 25.25 11.65 25.3 11.65 25.3 11.7 25.35 11.75 25.4 11.75 25.45 11.8 25.45 11.85 25.5 11.9 25.55 11.9 25.6 11.95 25.8 12.1 26.0 12.25 26.2 12.45 26.4 12.6 26.6 12.75 26.8 12.9 27.0 13.05 27.2 13.2 27.4 13.35 27.6 13.5 27.8 13.65 28.0 13.8 28.2 13.95 28.4 14.1 28.65 14.25 28.85 14.4 28.85 14.4 28.9 14.45 28.95 14.45 29.0 14.5 29.0 14.5 29.05 14.55 29.1 14.55 29.1 14.6 29.15 14.6 29.15 14.65 29.2 14.65 29.2 14.7 29.25 14.75 29.25 14.8 29.25 14.8 29.25 14.85 29.25 14.9 29.3 14.95 29.3 15.0 29.35 15.0 29.4 15.05 29.45 15.05 29.45 15.05 29.5 15.05 29.6 15.05 29.75 15.1 29.85 15.15 30.0 15.2 30.1 15.2 30.2 15.25 30.3 15.3 30.4 15.35 30.5 15.4 30.65 15.5 30.8 15.55 30.85 15.6 30.95 15.65 31.05 15.7 31.2 15.75 31.3 15.8 31.35 15.8 31.35 15.8 31.4 15.85 31.4 15.85 31.45 15.85 31.45 15.9 31.5 15.9 31.5 15.9 31.55 15.95 31.55 15.95 31.6 16.0 31.6 16.0 31.65 16.05 31.65 16.05 31.7 16.1 31.7 16.1 32.2 16.65 34.25 18.45 34.3 18.5 34.55 18.75 34.6 18.8 34.65 18.85 34.65 18.9 34.7 18.95 34.7 19.0 34.75 19.05 34.75 19.1 34.75 19.15 34.75 19.2 34.75 19.25 34.75 19.3 34.75 19.35 34.75 19.4 34.7 19.45 34.7 19.5 34.65 19.6 34.6 19.65 34.5 19.8 34.4 19.95 34.35 20.0 34.3 20.1 34.25 20.15 34.25 20.25 34.2 20.3 34.2 20.4 34.2 20.5 34.15 20.55 34.15 20.65 34.2 20.7 34.2 20.8 34.2 20.85 34.25 20.95 34.3 21.0 34.35 21.1 34.4 21.15 34.45 21.2 36.25 22.8 36.7 23.1 36.75 23.15 36.75 23.15 36.8 23.2 36.85 23.25 36.85 23.25 36.9 23.3 36.95 23.35 37.0 23.4 37.1 23.45 37.15 23.5 37.2 23.55 37.2 23.6 37.25 23.65 37.3 23.7 37.35 23.8 37.35 23.85 37.4 23.9 37.4 24.0 37.4 24.05 37.45 24.15 37.45 24.2 37.45 24.3 37.45 24.4 37.45 24.65 37.5 24.65 37.5 24.7 37.55 24.7 37.55 24.7 37.6 24.75 37.65 24.75 37.65 24.75 37.7 24.75 37.75 24.8 37.75 24.8 37.8 24.8 37.85 24.8 37.95 24.85 37.9 24.8 37.95 24.85 38.0 24.85 38.25 24.9 38.55 25.0 38.8 25.05 39.05 25.15 39.3 25.25 39.55 25.3 39.8 25.4 40.05 25.5 40.3 25.65 40.55 25.75 40.8 25.85 41.05 26.0 41.3 26.15 41.5 26.25 41.75 26.4 42.0 26.6 42.1 26.7 42.2 26.75 42.35 26.85 42.45 26.9 42.55 27.0 42.65 27.1 42.75 27.2 42.85 27.3 43.0 27.35 43.1 27.45 43.2 27.55 43.3 27.65 43.4 27.75 43.5 27.85 43.6 27.95 43.7 28.05 43.8 28.15 45.3 29.65 45.3 29.65 45.35 29.7 45.3 29.65 45.4 29.75 45.4 29.75 45.45 29.8 45.45 29.8 45.5 29.85 45.5 29.85 45.55 29.85 45.55 29.9 45.6 29.9 45.65 29.9 45.65 29.9 45.7 29.9 45.75 29.9 45.8 29.9 45.85 29.9 45.9 29.9 46.0 29.95 46.05 29.95 46.1 30.0 46.15 30.0 46.2 30.05 46.25 30.05 46.3 30.1 46.3 30.1 46.35 30.15 46.5 30.25 46.45 30.2 46.5 30.25 46.55 30.3 47.7 30.95 48.25 31.3 48.3 31.3 48.3 31.35 48.4 31.4 48.4 31.4 48.4 31.4 48.45 31.45 48.5 31.45 48.5 31.5 48.55 31.5 48.55 31.55 48.6 31.55 48.6 31.6 48.6 31.6 48.65 31.65 48.65 31.7 48.65 31.75 48.65 31.8 48.65 31.85 48.65 31.9 48.65 31.95 48.65 32.0 48.65 32.05 48.65 32.1 48.6 32.1 48.6 32.15 48.6 32.2 48.55 32.25 48.55 32.25 48.5 32.3 48.45 32.35 48.4 32.4 48.35 32.45 48.4 32.5 48.4 32.55 48.45 32.55 48.45 32.6 48.5 32.65 48.55 32.65 48.55 32.7 48.6 32.75 48.65 32.75 48.65 32.8 48.7 32.8 48.75 32.85 48.8 32.85 48.8 32.9 48.85 32.9 48.9 32.95 49.05 33.05 49.15 33.15 49.3 33.25 49.4 33.35 49.5 33.45 49.6 33.55 49.75 33.65 49.85 33.8 49.95 33.9 50.0 34.05 50.1 34.15 50.2 34.3 50.25 34.45 50.35 34.55 50.4 34.7 50.5 34.85 50.5 34.9 50.5 34.9 50.55 34.95 50.55 35.0 50.55 35.0 50.6 35.05 50.6 35.05 50.6 35.1 50.65 35.1 50.65 35.15 50.7 35.15 50.7 35.2 50.75 35.2 50.75 35.2 50.8 35.25 50.8 35.25 51.25 35.55 51.7 35.8 52.15 36.05 52.6 36.3 53.05 36.6 53.5 36.8 53.95 37.05 54.4 37.3 54.85 37.55 55.3 37.75 55.8 37.95 56.25 38.15 56.75 38.4 57.2 38.55 57.7 38.75 58.2 38.9 58.25 38.95 58.35 38.95 58.4 39.0 58.5 39.0 58.55 39.05 58.65 39.05 58.7 39.1 58.8 39.1 58.85 39.15 58.95 39.15 59.0 39.15 59.1 39.2 59.15 39.2 59.25 39.25 59.3 39.25 59.4 39.25 59.45 39.25 59.5 39.25 59.55 39.3 59.6 39.3 59.65 39.3 59.7 39.25 59.75 39.25 59.8 39.25 59.85 39.25 59.9 39.2 59.9 39.2 59.95 39.2 60.0 39.15 60.05 39.15 60.1 39.1 60.15 39.05 60.2 39.0 60.25 38.95 60.25 38.95 60.3 38.9 60.35 38.85 60.35 38.8 60.4 38.75 60.45 38.7 60.45 38.65 60.5 38.6 60.5 38.55 60.55 38.5 60.55 38.45 60.6 38.4 60.6 38.35 60.65 38.3 61.0 37.45 61.4 35.95 61.55 35.35 62.35 31.75 62.4 31.5 62.4 31.4 62.4 31.35 62.45 31.3 62.45 31.25 62.5 31.2 62.5 31.15 62.55 31.15 62.6 31.15 62.65 31.1 62.7 31.1 62.75 31.1 62.8 31.1 62.9 31.1 62.95 31.1 63.0 31.1 63.05 31.1 63.15 31.1 63.2 31.1 63.25 31.1 63.3 31.1 63.4 31.1 63.45 31.1 63.5 31.15 63.55 31.15 63.6 31.15 63.7 31.2 63.75 31.2 63.8 31.2 63.85 31.25 63.9 31.25 63.95 31.3 64.0 31.3 64.05 31.35 64.05 31.4 64.1 31.45 64.15 31.45 64.15 31.5 64.2 31.55 64.2 31.6 64.2 31.65 64.25 31.7 64.25 31.75 64.25 31.85 64.25 31.95 64.25 32.0 64.25 32.1 64.25 32.15 64.25 32.25 64.25 32.35 64.2 32.4 64.2 32.5 64.2 32.55 64.15 32.65 64.15 32.75 64.1 32.8 64.1 32.9 64.05 32.95 64.0 33.05 64.0 33.1 63.95 33.2 63.9 33.25 63.85 33.35 63.85 33.4 63.8 33.5 63.75 33.55 63.7 33.65 63.65 33.75 63.6 33.8 63.6 33.9 63.55 33.95 63.5 34.05 63.45 34.1 63.45 34.2 63.4 34.3 63.35 34.35 63.25 34.6 63.15 34.85 63.0 35.05 62.9 35.3 62.8 35.55 62.7 35.8 62.6 36.05 62.5 36.3 62.45 36.5 62.35 36.75 62.25 37.0 62.2 37.25 62.1 37.5 62.05 37.75 61.95 38.0 61.9 38.3 61.9 38.35 61.9 38.35 61.9 38.4 61.85 38.4 61.85 38.45 61.85 38.5 61.85 38.5 61.85 38.55 61.85 38.55 61.85 38.6 61.8 38.65 61.8 38.65 61.8 38.7 61.8 38.75 61.8 38.75 61.8 38.8 61.8 38.9 61.8 39.0 61.75 39.1 61.8 39.2 61.8 39.25 61.8 39.35 61.85 39.45 61.9 39.5 61.9 39.6 61.95 39.65 62.0 39.7 62.1 39.8 62.15 39.85 62.25 39.9 62.3 39.95 62.4 40.0 62.65 40.15 63.4 40.4 63.95 40.55 64.2 40.65 64.25 40.65 64.3 40.7 64.35 40.75 64.4 40.8 64.45 40.85 64.5 40.9 64.5 40.95 64.5 41.0 64.55 41.05 64.55 41.1 64.55 41.15 64.5 41.25 64.5 41.3 64.45 41.35 64.4 41.4 64.35 41.45 64.25 41.55 63.95 41.75 63.7 41.9 63.5 42.05 63.25 42.2 63.0 42.35 62.8 42.5 62.55 42.65 62.3 42.8 62.05 42.95 61.8 43.05 61.55 43.2 61.3 43.3 61.05 43.45 60.8 43.55 60.55 43.7 60.3 43.8 60.05 43.9 59.7 44.05 59.35 44.2 58.95 44.4 58.6 44.55 58.25 44.7 57.9 44.85 57.55 45.0 57.2 45.15 56.8 45.3 56.45 45.4 56.1 45.55 55.75 45.7 55.35 45.85 55.0 45.95 54.6 46.1 54.25 46.2 54.2 46.2 54.15 46.25 54.05 46.25 54.0 46.25 54.0 46.25 53.9 46.3 53.8 46.3 53.75 46.3 53.7 46.35 53.65 46.35 53.55 46.35 53.5 46.4 53.45 46.4 53.4 46.4 53.35 46.45 53.3 46.5 53.2 46.55 52.6 47.15 52.55 47.2 52.5 47.25 52.45 47.35 52.35 47.4 52.3 47.45 52.25 47.5 52.2 47.55 52.1 47.6 52.05 47.65 52.0 47.65 51.9 47.7 51.85 47.75 51.8 47.8 51.7 47.85 51.65 47.9 51.6 47.9 51.55 47.95 51.5 47.95 51.5 48.0 51.45 48.0 51.45 48.05 51.45 48.05 51.4 48.1 51.4 48.15 51.4 48.2 51.4 48.25 51.4 48.4 51.35 49.1 51.35 49.25 51.3 49.35 51.25 49.5 51.25 49.6 51.2 49.7 51.15 49.8 51.1 49.95 51.05 50.05 50.95 50.15 50.9 50.25 50.8 50.35 50.75 50.45 50.65 50.5 50.55 50.6 50.45 50.7 50.35 50.75 50.3 50.8 50.3 50.8 50.25 50.85 50.2 50.85 50.2 50.9 50.15 50.9 50.1 50.95 50.1 50.95 49.75 51.15 49.45 51.35 49.15 51.55 48.8 51.75 48.5 51.95 48.15 52.1 47.85 52.3 47.5 52.45 47.15 52.65 46.85 52.8 46.5 52.95 46.15 53.1 45.8 53.25 45.45 53.4 45.1 53.55 44.75 53.65 44.45 53.75 44.2 53.85 43.9 53.95 43.65 54.0 43.35 54.1 43.05 54.15 42.75 54.25 42.5 54.3 42.2 54.35 41.9 54.4 41.6 54.45 41.3 54.45 41.05 54.5 40.75 54.5 40.45 54.55 40.15 54.55 39.15 54.55 36.9 54.5 36.85 54.5 36.75 54.5 36.7 54.5 36.6 54.5 36.55 54.45 36.45 54.45 36.4 54.45 36.3 54.45 36.25 54.45 36.2 54.45 36.1 54.4 36.05 54.4 35.95 54.4 35.9 54.4 35.85 54.4 35.75 54.35 35.7 54.35 35.65 54.35 35.6 54.3 35.55 54.3 35.5 54.3 35.45 54.3 35.4 54.25 35.35 54.25 35.3 54.25 35.25 54.2 35.2 54.2 35.15 54.15 35.1 54.15 35.05 54.1 35.0 54.05 34.95 54.05 34.9 54.0 34.9 54.0 34.85 53.95 34.8 53.95 34.75 53.9 34.7 53.9 34.7 53.85 34.65 53.85 34.6 53.85 34.55 53.85 34.5 53.85 34.45 53.85 34.45 53.85 34.4 53.85 34.35 53.85 34.3 53.85 34.2 53.9 34.1 53.9 33.95 53.9 33.85 53.95 33.75 53.95 33.65 54.0 33.5 54.0 33.4 54.05 33.3 54.05 33.2 54.1 33.05 54.1 32.95 54.1 32.85 54.15 32.75 54.15 32.65 54.2 32.5 54.2 31.65 54.35 29.45 55.05 29.35 55.1 29.2 55.15 29.0 55.25 28.95 55.25 28.7 55.35 28.5 55.45 28.25 55.55 28.0 55.65 27.75 55.75 27.5 55.85 27.3 55.9 27.05 56.0 26.8 56.05 26.55 56.1 26.3 56.15 26.05 56.25 25.8 56.3 25.55 56.3 25.3 56.35 25.0 56.4 24.75 56.45 24.55 56.45 24.3 56.5 24.1 56.5 23.85 56.55 23.6 56.55 23.4 56.6 23.15 56.6 22.95 56.6 22.7 56.6 22.45 56.65 22.25 56.65 22.0 56.65 21.75 56.65 21.55 56.65 21.3 56.65 20.95 56.65 20.6 56.65 20.25 56.65 19.9 56.65 19.55 56.6 19.25 56.6 18.9 56.55 18.55 56.55 18.2 56.5 17.85 56.45 17.5 56.4 17.2 56.35 16.85 56.25 16.5 56.2 16.15 56.1 15.85 56.0 15.75 56.0 15.7 55.95 15.65 55.95 15.55 55.9 15.5 55.9 15.4 55.85 15.35 55.85 15.25 55.8 15.2 55.8 15.15 55.75 15.05 55.75 15.0 55.7 14.9 55.65 14.85 55.65 14.8 55.6 14.7 55.6 14.6 55.55 14.5 55.45 14.4 55.4 14.3 55.3 14.2 55.25 14.15 55.15 14.05 55.05 14.0 54.95 13.9 54.85 13.85 54.75 13.8 54.65 13.8 54.55 13.75 54.45 13.75 54.3 13.7 54.2 13.7 54.05 13.7 54.0 13.7 53.95 13.7 53.9 13.7 53.85 13.65 53.8 13.65 53.75 13.65 53.7 13.6 53.65 13.6 53.6 13.55 53.55 13.55 53.55 13.5 53.5 13.45 53.45 13.4 53.4 13.35 53.4 13.3 53.35 13.2 53.3 13.1 53.25 13.0 53.15 12.9 53.1 12.8 53.0 12.7 52.95 12.6 52.85 12.5 52.75 12.4 52.7 12.35 52.6 12.25 52.5 12.15 52.4 12.1 52.3 12.05 52.2 11.95 52.1 11.9 52.0 11.85 51.95 11.85 51.9 11.8 51.85 11.75 51.8 11.75 51.75 11.7 51.75 11.65 51.7 11.6 51.65 11.55 51.65 11.5 51.6 11.45 51.6 11.4 51.55 11.4 51.55 11.35 51.55 11.3 51.5 11.2 51.5 11.0 51.45 10.85 51.4 10.65 51.4 10.5 51.35 10.3 51.3 10.15 51.25 9.95 51.25 9.8 51.2 9.6 51.15 9.45 51.15 9.25 51.1 9.05 51.05 8.9 51.05 8.7 51.0 8.55 51.0 8.35 50.95 8.15 50.9 7.9 50.9 7.7 50.85 7.45 50.85 7.25 50.85 7.0 50.8 6.8 50.8 6.55 50.8 6.35 50.8 6.1 50.8 5.9 50.8 5.65 50.8 5.45 50.8 5.2 50.8 5.0 50.8 4.75 50.8 4.5 50.8 4.25 50.85 3.95 50.85 3.7 50.9 3.45 50.95 3.2 50.95 2.95 51.0 2.65 51.05 2.4 51.05 2.15 51.1 1.9 51.15 1.65 51.2 1.4 51.25 1.1 51.25 0.85 51.3 0.6 51.35 0.55 51.35 0.5 51.4 0.45 51.4 0.45 51.4 0.4 51.45 0.35 51.45 0.3 51.45 0.25 51.5 0.25 51.5 0.2 51.55 0.15 51.55 0.1 51.6 0.1 51.6 0.05 51.65 0.0 51.7 0.0 51.7 -0.05 51.75 -0.1 51.8 -0.2 51.9 -0.25 51.95 -0.3 52.0 -0.35 52.05 -0.4 52.1 -0.5 52.15 -0.55 52.2 -0.6 52.25 -0.65 52.3 -0.75 52.35 -0.8 52.4 -0.85 52.45 -0.9 52.5 -1.0 52.5 -1.1 52.55 -1.15 52.6 -1.25 52.65 -1.35 52.7 -1.45 52.75 -1.5 52.8 -1.6 52.85 -1.7 52.85 -1.8 52.9 -1.9 52.95 -2.0 53.0 -2.1 53.0 -2.2 53.05 -2.3 53.05 -2.4 53.1 -2.55 53.1 L-2.55 53.1" fill="#8f1212" fill-rule="evenodd" stroke="none"/>
  </g>
</svg>
