<?xml version="1.0" encoding="UTF-8" standalone="no"?>
<svg xmlns:xlink="http://www.w3.org/1999/xlink" height="300.0px" width="300.0px" xmlns="http://www.w3.org/2000/svg">
  <g transform="matrix(1.0, 0.0, 0.0, 1.0, 200.0, 200.0)">
    <path d="M23.65 47.65 Q23.45 47.65 22.7 47.65 18.45 43.35 17.3 42.2 16.8 41.65 15.7 40.6 15.6 40.5 15.5 40.4 15.4 40.3 15.3 40.15 15.2 40.05 15.1 39.95 15.0 39.85 14.9 39.75 14.8 39.65 14.7 39.55 14.6 39.45 14.5 39.35 14.4 39.25 14.3 39.2 14.2 39.1 14.1 39.0 14.0 38.9 13.9 38.8 13.8 38.7 13.7 38.6 13.6 38.45 13.5 38.35 13.4 38.25 13.3 38.15 13.2 38.05 13.1 37.95 13.0 37.85 12.9 37.75 12.8 37.7 12.7 37.6 12.6 37.5 12.5 37.4 12.4 37.3 12.3 37.2 12.2 37.1 12.1 37.0 12.0 36.9 11.9 36.8 11.8 36.7 11.7 36.6 11.6 36.5 11.5 36.4 11.4 36.35 11.3 36.25 11.2 36.15 11.1 36.05 11.0 35.95 10.9 35.85 10.3 35.3 9.25 34.3 8.2 33.4 7.5 32.85 6.95 32.35 5.8 31.35 5.1 30.75 4.05 29.9 3.2 29.25 2.15 28.4 2.05 28.3 1.2 27.65 0.65 27.15 0.3 26.9 0.1 26.75 -0.6 26.1 -1.15 25.6 -1.45 25.3 -2.4 24.45 -3.2 23.65 -3.75 23.05 -4.9 21.95 -5.45 21.4 -6.5 20.25 -7.35 19.3 -8.05 18.45 -9.0 17.25 -9.55 16.55 -10.15 15.75 -10.5 15.35 -10.55 15.25 -10.65 15.2 -10.7 15.1 -10.75 15.0 -10.8 14.95 -10.9 14.85 -10.95 14.75 -11.0 14.7 -11.05 14.6 -11.1 14.55 -11.15 14.45 -11.2 14.35 -11.3 14.3 -11.35 14.2 -11.4 14.15 -11.45 14.05 -11.95 13.4 -12.4 12.85 -12.45 12.75 -12.5 12.7 -12.55 12.6 -12.65 12.5 -12.7 12.45 -12.75 12.35 -12.8 12.25 -12.85 12.2 -12.9 12.1 -13.0 12.05 -13.05 11.95 -13.1 11.85 -13.15 11.8 -13.2 11.7 -13.25 11.65 -13.3 11.6 -13.35 11.5 -13.4 11.4 -13.5 11.35 -13.55 11.25 -13.6 11.15 -13.65 11.05 -13.7 11.0 -13.75 10.9 -13.8 10.8 -13.85 10.75 -13.9 10.65 -14.0 10.55 -14.05 10.5 -14.1 10.4 -14.15 10.35 -14.2 10.25 -14.5 9.65 -15.0 8.9 -15.35 8.3 -15.8 7.6 -16.05 7.0 -16.45 6.15 -16.85 5.35 -17.0 5.1 -17.15 4.7 -17.5 4.1 -17.55 4.05 -17.55 3.95 -17.6 3.9 -17.6 3.85 -17.65 3.75 -17.7 3.7 -17.7 3.65 -17.75 3.55 -17.8 3.5 -17.8 3.45 -17.85 3.4 -17.9 3.3 -17.9 3.25 -17.95 3.2 -18.0 3.15 -18.0 3.05 -18.1 2.85 -18.3 2.55 -18.55 2.1 -18.6 2.05 -18.65 2.0 -18.65 1.9 -18.7 1.85 -18.75 1.8 -18.75 1.75 -18.8 1.65 -18.85 1.6 -18.9 1.55 -18.9 1.5 -18.95 1.4 -19.0 1.35 -19.0 1.3 -19.05 1.25 -19.1 1.2 -19.15 1.1 -19.15 1.05 -19.2 1.0 -19.25 0.9 -19.25 0.85 -19.3 0.8 -19.35 0.75 -19.4 0.65 -19.4 0.6 -19.45 0.55 -19.5 0.45 -19.55 0.4 -19.6 0.35 -19.6 0.3 -19.65 0.25 -19.7 0.15 -19.75 0.1 -19.8 0.05 -19.85 0.0 -19.85 -0.05 -19.9 -0.15 -19.95 -0.2 -20.0 -0.25 -20.0 -0.3 -20.05 -0.35 -20.1 -0.45 -20.15 -0.5 -20.15 -0.55 -20.2 -0.6 -20.25 -0.65 -20.3 -0.75 -20.35 -0.8 -20.4 -0.85 -20.4 -0.9 -20.75 -1.5 -21.05 -1.85 -21.1 -1.9 -21.1 -1.9 -21.1 -1.95 -21.1 -1.95 -21.15 -2.0 -21.15 -2.0 -21.15 -2.05 -21.15 -2.1 -21.15 -2.1 -21.2 -2.15 -21.2 -2.15 -21.2 -2.2 -21.2 -2.2 -21.2 -2.3 -21.2 -2.3 -21.2 -2.35 -21.2 -2.35 -21.2 -2.4 -21.2 -2.4 -21.2 -2.45 -21.2 -2.45 -21.2 -2.5 -21.15 -2.6 -21.15 -2.6 -21.15 -2.6 -21.1 -2.7 -20.95 -3.05 -20.45 -4.25 -19.75 -5.75 -19.35 -6.75 -18.15 -9.55 -17.55 -10.85 -17.5 -10.9 -17.45 -11.05 -17.45 -11.1 -17.45 -11.15 -17.45 -11.15 -17.4 -11.2 -17.4 -11.25 -17.4 -11.25 -17.35 -11.3 -17.35 -11.35 -17.35 -11.35 -17.35 -11.4 -17.35 -11.45 -17.35 -11.5 -17.3 -11.55 -17.3 -11.6 -17.25 -11.6 -17.25 -11.65 -17.25 -11.7 -17.25 -11.7 -17.25 -11.75 -17.25 -11.8 -17.25 -11.8 -17.2 -11.85 -17.2 -11.95 -17.2 -12.05 -17.15 -12.2 -17.15 -12.3 -17.15 -12.35 -17.15 -12.5 -17.1 -14.2 -16.85 -18.3 -16.85 -18.3 -16.85 -18.4 -16.85 -18.45 -16.85 -18.5 -16.85 -18.5 -16.85 -18.55 -16.85 -18.55 -16.85 -18.6 -16.85 -18.6 -16.85 -18.65 -16.9 -18.7 -16.8 -18.75 -16.8 -18.8 -16.75 -18.8 -16.75 -18.85 -16.7 -18.85 -16.65 -18.9 -16.65 -18.9 -16.6 -18.9 -16.55 -18.9 -16.55 -18.9 -16.55 -18.9 -16.5 -18.9 -16.45 -18.9 -16.4 -18.9 -16.4 -18.9 -16.35 -18.9 -16.3 -18.9 -12.7 -18.65 -10.75 -18.4 -5.5 -17.65 -2.65 -17.6 3.75 -17.55 7.65 -17.65 7.7 -17.65 7.8 -17.65 7.85 -17.65 7.95 -17.65 8.0 -17.65 8.05 -17.65 8.15 -17.65 8.2 -17.65 8.3 -17.65 8.35 -17.65 8.4 -17.65 8.5 -17.7 8.55 -17.7 8.65 -17.7 8.7 -17.7 8.8 -17.7 8.85 -17.7 8.95 -17.7 9.0 -17.7 9.05 -17.7 9.15 -17.7 9.2 -17.7 9.25 -17.7 9.35 -17.7 9.4 -17.7 9.45 -17.7 9.55 -17.7 9.6 -17.75 9.65 -17.75 9.75 -17.75 9.8 -17.75 9.85 -17.75 9.9 -17.75 10.0 -17.75 10.05 -17.75 10.15 -17.75 10.2 -17.75 10.3 -17.75 10.35 -17.75 10.45 -17.75 10.5 -17.75 10.6 -17.75 10.65 -17.8 10.7 -17.8 10.8 -17.8 10.85 -17.8 10.95 -17.8 11.0 -17.8 11.05 -17.8 11.15 -17.8 11.2 -17.8 11.3 -17.8 11.35 -17.8 11.45 -17.8 11.5 -17.8 11.6 -17.8 11.65 -17.8 11.75 -17.85 11.8 -17.85 11.85 -17.85 11.95 -17.85 12.0 -17.85 12.1 -17.85 12.15 -17.85 12.35 -17.85 13.25 -17.95 13.6 -18.0 14.4 -18.05 14.75 -18.1 15.5 -18.2 15.55 -18.2 15.65 -18.2 15.7 -18.2 15.75 -18.2 15.85 -18.2 15.9 -18.25 16.0 -18.25 16.05 -18.25 16.1 -18.25 16.2 -18.25 16.25 -18.3 16.35 -18.3 16.4 -18.3 16.5 -18.3 16.55 -18.3 16.6 -18.35 17.0 -18.4 20.65 -18.9 20.65 -18.65 20.65 -17.25 20.65 -16.55 20.65 -15.55 20.65 -15.5 20.65 -15.5 20.65 -15.45 20.65 -15.4 20.65 -15.35 20.65 -15.3 20.65 -15.3 20.65 -15.25 20.65 -15.2 20.65 -15.15 20.65 -15.1 20.65 -15.05 20.65 -15.0 20.65 -15.0 20.7 -14.95 20.7 -14.9 20.7 -14.8 20.7 -14.15 20.7 -14.1 20.7 -14.05 20.7 -14.0 20.7 -13.95 20.7 -13.9 20.7 -13.85 20.7 -13.8 20.7 -13.75 20.7 -13.7 20.7 -13.65 20.7 -13.65 20.7 -13.6 20.7 -13.55 20.75 -13.5 20.75 -13.5 20.75 -13.45 20.75 -13.15 20.75 -12.7 20.8 -12.4 20.85 -12.0 20.85 -11.95 20.85 -11.9 20.85 -11.85 20.85 -11.8 20.85 -11.75 20.85 -11.7 20.85 -11.65 20.85 -11.6 20.9 -11.55 20.9 -11.5 20.9 -11.5 20.9 -11.45 20.9 -11.4 20.9 -11.35 20.9 -11.3 20.9 -11.25 21.0 -10.8 21.1 -10.6 21.1 -10.55 21.1 -10.5 21.1 -10.45 21.15 -10.4 21.15 -10.35 21.15 -10.3 21.15 -10.25 21.15 -10.2 21.15 -10.2 21.2 -10.15 21.2 -10.1 21.2 -10.05 21.2 -10.0 21.25 -9.95 21.25 -9.95 21.25 -9.9 21.35 -9.65 21.45 -9.35 21.55 -9.1 21.6 -8.85 21.7 -8.55 21.8 -8.3 21.9 -8.0 21.95 -7.75 22.05 -7.5 22.15 -7.2 22.25 -6.95 22.3 -6.65 22.4 -6.4 22.45 -6.15 22.55 -5.85 22.65 -5.6 23.4 -3.15 23.9 -1.25 24.55 1.1 25.05 3.15 25.1 3.4 25.2 3.7 25.25 3.95 25.3 4.25 25.4 4.5 25.45 4.75 25.5 5.05 25.6 5.3 25.65 5.6 25.7 5.85 25.75 6.1 25.85 6.4 25.9 6.65 25.95 6.95 26.0 7.2 26.05 7.5 26.4 9.1 27.0 11.9 27.15 12.75 27.8 16.3 28.0 17.8 28.45 20.75 28.7 22.45 29.05 25.25 29.15 26.1 29.15 26.15 29.15 26.3 29.2 26.6 29.25 26.9 29.25 27.05 29.3 27.3 29.4 28.0 29.45 28.35 29.5 28.9 29.65 29.55 29.75 29.8 29.8 30.15 29.95 30.7 29.95 30.75 30.0 30.8 30.0 30.9 30.0 30.95 30.05 31.0 30.05 31.05 30.05 31.1 30.1 31.15 30.1 31.2 30.15 31.3 30.15 31.35 30.15 31.4 30.2 31.45 30.2 31.5 30.25 31.55 30.25 31.6 30.25 31.65 30.3 31.7 30.3 31.75 30.3 31.8 30.35 31.85 30.35 31.9 30.35 31.95 30.4 32.05 30.4 32.1 30.45 32.15 30.45 32.2 30.5 32.25 30.5 32.3 30.55 32.35 30.55 32.4 30.6 32.45 31.5 34.55 33.15 39.35 33.15 39.4 33.2 39.4 33.2 39.45 33.25 39.45 33.25 39.5 33.25 39.55 33.25 39.6 33.3 39.65 33.3 39.65 33.3 39.75 33.3 39.75 33.3 39.85 33.35 39.95 33.35 40.0 33.35 40.0 33.35 40.05 33.35 40.05 33.35 40.1 33.3 40.15 33.3 40.2 33.3 40.25 33.3 40.25 33.3 40.3 33.3 40.3 33.3 40.35 33.3 40.35 32.6 43.5 31.9 47.0 31.9 47.05 31.85 47.1 31.85 47.15 31.8 47.2 31.8 47.3 31.75 47.35 31.75 47.35 31.7 47.4 31.65 47.4 31.6 47.4 31.55 47.45 31.5 47.45 31.5 47.45 31.45 47.45 31.45 47.45 31.4 47.45 31.35 47.45 31.2 47.45 30.85 47.4 30.45 47.4 30.1 47.4 29.8 47.35 29.45 47.35 29.15 47.35 28.85 47.3 28.55 47.3 28.25 47.3 28.0 47.3 27.7 47.3 27.45 47.35 27.25 47.35 27.0 47.35 26.8 47.35 26.6 47.4 26.45 47.4 26.25 47.4 26.15 47.4 25.85 47.4 25.75 47.4 25.6 47.4 25.5 47.45 25.5 47.45 25.35 47.45 25.1 47.45 25.0 47.45 24.75 47.45 24.7 47.45 24.65 47.45 24.6 47.45 24.6 47.5 24.55 47.5 24.5 47.5 24.45 47.5 24.4 47.5 24.15 47.55 24.0 47.55 23.9 47.6 23.65 47.65 L23.65 47.65" fill="#8e2337" fill-rule="evenodd" stroke="none"/>
    <path d="M-33.5 33.45 Q-33.2 33.05 -32.7 32.2 -32.4 31.65 -32.0 30.9 -31.8 30.45 -31.45 29.55 -31.15 28.95 -30.85 28.2 -30.6 27.45 -30.45 26.8 -30.4 26.7 -30.4 26.65 -30.35 26.55 -30.35 26.45 -30.3 26.4 -30.3 26.3 -30.25 26.2 -30.25 26.1 -30.2 26.05 -30.2 25.95 -30.15 25.85 -30.15 25.75 -30.15 25.65 -30.1 25.6 -30.1 25.5 -30.05 25.4 -29.85 24.5 -29.7 24.0 -29.65 23.8 -29.55 23.3 -29.45 22.85 -29.4 22.6 -29.4 22.55 -29.35 22.5 -29.35 22.45 -29.35 22.35 -29.3 22.3 -29.3 22.25 -29.3 22.2 -29.3 22.1 -29.25 22.05 -29.25 22.0 -29.25 21.95 -29.25 21.85 -29.25 21.8 -29.2 21.7 -29.2 21.65 -29.2 21.6 -29.15 21.35 -29.05 20.65 -29.0 20.45 -28.85 19.65 -28.85 19.6 -28.85 19.5 -28.8 19.45 -28.8 19.35 -28.8 19.3 -28.75 19.25 -28.75 19.15 -28.75 19.1 -28.75 19.05 -28.7 19.0 -28.7 18.95 -28.7 18.85 -28.7 18.8 -28.65 18.75 -28.65 18.7 -28.65 18.65 -28.55 18.05 -28.45 17.65 -28.3 17.1 -28.2 16.7 -28.15 16.65 -28.15 16.6 -28.15 16.5 -28.1 16.45 -28.1 16.4 -28.05 16.35 -28.05 16.25 -28.0 16.2 -28.0 16.15 -28.0 16.1 -27.95 16.05 -27.95 16.0 -27.95 15.95 -27.9 15.9 -27.9 15.85 -27.9 15.75 -27.7 15.35 -27.5 14.85 -27.5 14.8 -27.45 14.8 -27.45 14.75 -27.45 14.75 -27.45 14.7 -27.45 14.65 -27.45 14.65 -27.4 14.6 -27.4 14.6 -27.4 14.55 -27.4 14.55 -27.35 14.5 -27.35 14.5 -27.3 14.45 -27.3 14.45 -27.3 14.4 -27.3 14.4 -27.25 14.35 -27.25 14.3 -27.2 14.3 -27.15 14.25 -27.15 14.25 -27.1 14.2 -27.1 14.15 -27.05 14.15 -27.05 14.1 -27.0 14.05 -27.0 14.05 -26.95 14.0 -26.95 14.0 -26.9 13.95 -26.85 13.95 -26.85 13.9 -26.8 13.9 -26.8 13.85 -26.75 13.85 -26.7 13.85 -26.6 13.85 -26.55 13.85 -26.5 13.85 -26.5 13.85 -26.45 13.85 -26.45 13.85 -26.35 13.95 -26.3 14.0 -26.2 14.1 -26.15 14.15 -26.15 14.15 -26.15 14.2 -26.1 14.25 -26.1 14.25 -26.05 14.3 -19.7 25.1 -16.55 30.25 -16.45 30.3 -16.45 30.45 -16.4 30.45 -16.4 30.55 -16.4 30.55 -16.4 30.7 -16.4 30.7 -16.4 30.8 -16.4 30.85 -16.45 30.85 -16.45 30.85 -16.45 30.9 -16.45 30.9 -16.55 30.95 -16.5 31.0 -16.6 31.05 -16.6 31.1 -16.7 31.15 -18.1 32.3 -20.15 34.45 -20.2 34.55 -20.2 34.55 -20.25 34.6 -20.3 34.6 -20.3 34.65 -20.35 34.65 -20.35 34.7 -20.4 34.7 -20.4 34.75 -20.45 34.8 -20.5 34.85 -20.5 34.85 -20.55 34.85 -20.6 34.85 -20.6 34.9 -20.65 34.9 -20.65 34.95 -20.7 35.0 -20.8 35.05 -20.8 35.05 -20.9 35.1 -20.95 35.1 -28.05 38.95 -31.8 40.1 -31.8 40.1 -31.85 40.1 -31.9 40.15 -31.95 40.15 -32.0 40.15 -32.0 40.15 -32.05 40.2 -32.1 40.2 -32.15 40.2 -32.15 40.25 -32.2 40.25 -32.2 40.3 -32.25 40.3 -32.3 40.3 -32.4 40.35 -32.4 40.35 -32.45 40.35 -32.5 40.4 -32.55 40.4 -32.6 40.4 -32.65 40.4 -32.7 40.4 -32.7 40.4 -32.75 40.4 -32.75 40.4 -32.8 40.4 -32.8 40.4 -32.85 40.4 -32.95 40.35 -32.95 40.35 -33.05 40.35 -33.05 40.25 -33.05 40.25 -33.05 40.15 -33.05 40.15 -33.05 40.1 -33.05 40.05 -33.05 40.0 -33.05 39.95 -33.05 39.85 -33.0 39.8 -33.0 39.8 -32.95 39.75 -32.95 39.7 -32.95 39.65 -32.95 39.65 -32.95 39.6 -32.9 39.55 -32.85 39.3 -32.85 39.4 -32.8 39.25 -32.8 39.2 -32.45 38.15 -32.3 37.85 -32.25 37.75 -32.2 37.55 -32.15 37.45 -32.05 37.25 -32.05 37.2 -32.05 37.2 -32.05 37.15 -32.05 37.1 -32.05 37.1 -32.05 37.05 -32.0 37.0 -32.0 36.95 -32.0 36.85 -32.0 36.65 -32.0 36.6 -32.05 36.55 -32.05 36.5 -32.05 36.45 -32.05 36.45 -32.05 36.4 -32.1 36.3 -32.2 36.1 -32.2 36.05 -32.2 36.0 -32.2 35.95 -32.25 35.95 -32.25 35.9 -32.25 35.85 -32.25 35.85 -32.3 35.8 -32.35 35.7 -32.5 35.5 -33.3 34.4 -33.5 34.2 -33.5 34.0 -33.5 33.45 L-33.5 33.45" fill="#8e2438" fill-rule="evenodd" stroke="none"/>
  </g>
</svg>
