<?xml version="1.0" encoding="UTF-8" standalone="no"?>
<svg xmlns:xlink="http://www.w3.org/1999/xlink" height="22.4px" width="95.75px" xmlns="http://www.w3.org/2000/svg">
  <g transform="matrix(1.0, 0.0, 0.0, 1.0, 47.85, 11.2)">
    <path d="M-43.1 -10.05 Q-43.3 -9.6 -43.45 -9.15 -43.6 -8.75 -43.75 -8.3 -43.85 -8.1 -44.0 -7.6 -44.15 -7.2 -44.2 -7.0 -44.3 -6.7 -44.4 -6.45 -44.5 -6.25 -44.55 -6.05 -44.65 -5.9 -44.75 -5.75 -44.85 -5.65 -44.95 -5.6 -45.5 -5.35 -46.0 -5.25 -46.45 -5.15 -46.85 -5.1 -47.2 -5.1 -47.55 -5.1 -47.8 -5.1 -48.1 -5.15 -48.45 -5.25 -48.5 -5.25 -48.75 -5.25 -48.9 -5.25 -49.05 -5.2 -49.15 -5.1 -49.3 -4.95 -49.45 -4.75 -49.65 -4.5 -49.65 -4.2 -49.7 -3.95 -49.55 -3.65 -49.45 -3.4 -49.25 -3.1 -49.05 -2.85 -48.75 -2.55 -48.55 -2.35 -48.25 -2.05 -48.1 -1.95 -47.7 -1.55 -47.4 -1.3 -47.25 -1.15 -47.05 -0.95 -47.0 -0.85 -46.0 0.25 -44.85 1.25 -43.75 2.2 -42.55 3.15 -41.4 4.0 -40.2 4.8 -39.0 5.55 -37.8 6.25 -36.6 6.9 -35.4 7.5 -34.25 8.05 -33.05 8.55 -32.0 9.0 -30.9 9.4 -29.85 9.8 -28.85 10.1 -26.25 10.9 -24.05 11.5 -21.9 12.05 -20.05 12.45 -18.25 12.85 -16.65 13.1 -15.15 13.35 -13.7 13.45 -12.4 13.6 -11.0 13.6 -9.8 13.65 -8.4 13.6 -7.35 13.6 -5.65 13.5 -2.95 13.4 -2.65 13.4 -2.4 13.45 -2.2 13.35 -2.05 13.25 -1.95 13.05 -1.85 12.85 -1.8 12.55 -1.8 12.3 -1.8 12.0 -1.85 11.75 -1.9 11.4 -1.95 11.15 -2.0 10.85 -2.05 10.6 -2.15 10.4 -2.2 10.2 -2.25 10.1 -2.6 9.5 -3.0 9.25 -3.3 9.05 -3.7 9.1 -3.95 9.15 -4.35 9.35 -4.8 9.6 -5.0 9.65 -5.35 9.75 -5.6 9.6 -5.95 9.45 -6.25 8.95 -6.6 8.35 -6.95 7.3 -7.3 6.15 -7.65 4.35 -7.8 4.25 -7.9 4.3 -7.95 4.35 -8.05 4.5 -8.15 4.6 -8.25 4.85 -8.4 5.35 -8.4 5.35 -8.5 5.6 -8.65 5.8 -8.75 6.05 -8.9 6.2 -9.1 6.35 -9.3 6.4 -9.55 6.45 -9.85 6.35 -10.5 5.95 -10.95 5.4 -11.3 4.95 -11.55 4.4 -11.75 3.95 -11.85 3.4 -11.9 2.9 -11.9 2.4 -11.9 2.0 -11.85 1.5 -11.75 0.85 -11.75 0.8 -11.75 0.45 -11.8 0.25 -11.85 0.1 -12.0 0.05 -12.2 0.0 -12.3 0.05 -12.45 0.05 -12.5 0.15 -12.55 0.25 -12.6 0.4 -12.65 0.55 -12.65 0.75 -12.65 0.9 -12.65 1.1 -12.65 1.15 -12.6 1.45 -12.6 1.65 -12.6 1.8 -12.6 1.95 -12.6 2.0 -12.65 3.4 -13.0 5.75 -13.55 6.95 -14.0 7.7 -14.45 8.4 -14.8 8.7 -15.1 9.0 -15.4 8.95 -15.65 8.95 -15.85 8.65 -16.05 8.45 -16.25 8.1 -16.3 8.0 -16.55 7.4 -16.75 7.0 -16.85 6.85 -17.0 6.65 -17.15 6.7 -17.35 6.7 -17.45 6.75 -17.6 6.8 -17.7 6.95 -17.75 7.1 -17.85 7.3 -17.9 7.45 -17.95 7.7 -17.95 7.8 -18.0 8.1 -18.05 8.35 -18.1 8.5 -18.15 8.7 -18.2 8.85 -18.25 9.0 -18.35 9.05 -18.6 9.25 -18.8 9.3 -19.0 9.4 -19.15 9.35 -19.35 9.35 -19.5 9.25 -19.65 9.15 -19.8 9.0 -19.9 8.85 -20.0 8.65 -20.1 8.5 -20.2 8.3 -20.3 8.1 -20.35 7.9 -20.4 7.75 -20.45 7.55 -21.0 5.6 -21.15 4.05 -21.3 2.65 -21.2 1.55 -21.05 0.65 -20.75 -0.05 -20.5 -0.6 -20.1 -1.1 -20.1 -1.1 -19.5 -1.8 -19.2 -2.15 -19.1 -2.4 -19.0 -2.7 -19.2 -3.1 -19.45 -3.5 -20.05 -4.15 -20.65 -4.45 -20.95 -4.4 -21.25 -4.3 -21.4 -3.85 -21.5 -3.55 -21.55 -2.85 -21.75 1.95 -21.6 -1.55 -21.65 -0.7 -21.75 -0.15 -21.9 0.55 -22.25 1.05 -22.6 1.6 -23.25 1.85 -23.95 2.15 -25.0 2.1 -25.1 2.15 -25.3 2.3 -25.5 2.4 -25.6 2.45 -25.75 2.55 -25.9 2.6 -26.05 2.7 -26.2 2.75 -26.35 2.85 -26.5 2.85 -26.7 2.9 -26.85 2.9 -27.05 2.9 -27.2 2.9 -27.4 2.85 -27.6 2.8 -27.8 2.8 -27.85 2.65 -27.95 2.55 -27.95 2.4 -27.95 2.25 -27.9 2.05 -27.9 1.75 -27.85 1.7 -27.85 1.5 -27.9 1.4 -27.95 1.25 -28.1 1.2 -28.2 1.15 -28.5 1.25 -28.75 1.3 -29.2 1.5 -29.5 1.6 -29.8 1.7 -30.05 1.75 -30.35 1.8 -30.65 1.8 -30.9 1.8 -31.15 1.8 -31.4 1.75 -31.65 1.7 -31.9 1.65 -32.05 1.6 -32.25 1.55 -32.4 1.5 -32.6 1.4 -32.8 1.35 -32.8 1.35 -33.0 1.3 -33.15 1.2 -33.3 1.15 -33.45 1.1 -33.6 1.0 -33.75 0.9 -33.9 0.85 -34.0 0.75 -34.15 0.65 -34.25 0.55 -34.4 0.5 -34.5 0.4 -34.6 0.3 -34.75 0.2 -34.8 0.15 -34.95 0.0 -35.1 -0.1 -35.2 -0.2 -35.35 -0.35 -35.5 -0.5 -35.65 -0.65 -35.8 -0.8 -35.95 -0.95 -36.1 -1.15 -36.25 -1.35 -36.4 -1.55 -36.55 -1.75 -36.75 -2.0 -36.9 -2.25 -37.05 -2.5 -37.2 -2.8 -37.35 -3.1 -37.45 -3.3 -37.5 -3.45 -37.6 -3.65 -37.7 -3.8 -37.8 -3.95 -37.9 -4.15 -37.75 -3.9 -38.1 -4.5 -38.25 -4.65 -38.3 -4.8 -38.45 -5.0 -38.5 -5.15 -38.6 -5.35 -38.7 -5.5 -38.75 -5.7 -38.85 -5.9 -38.75 -7.35 -38.5 -8.8 -38.3 -10.05 -37.95 -11.25 -37.7 -12.25 -37.35 -13.25 -37.2 -13.8 -36.8 -14.85 -36.5 -15.65 -36.4 -16.0 -36.25 -16.5 -36.3 -16.75 -36.35 -17.05 -36.6 -17.1 -36.9 -17.15 -37.45 -17.05 -37.9 -16.9 -38.2 -16.3 -38.5 -15.8 -38.65 -14.85 -38.75 -14.2 -38.85 -12.95 -39.1 -10.25 -39.0 -10.85 -39.15 -9.65 -39.3 -8.8 -39.5 -7.75 -39.8 -7.05 -40.15 -6.25 -40.7 -5.85 -41.35 -5.4 -42.2 -5.45 -42.35 -5.6 -42.4 -5.8 -42.45 -6.0 -42.45 -6.3 -42.45 -6.5 -42.4 -6.9 -42.35 -7.45 -42.35 -7.55 -42.3 -7.9 -42.3 -8.2 -42.3 -8.6 -42.4 -8.9 -42.45 -9.25 -42.65 -9.5 -42.8 -9.8 -43.1 -10.05 L-43.1 -10.05" fill="#000000" fill-rule="evenodd" stroke="none"/>
    <path d="M-48.0 -9.45 Q-48.05 -9.4 -48.1 -9.35 -48.1 -9.3 -48.15 -9.3 -48.2 -9.25 -48.2 -9.2 -48.2 -9.15 -48.25 -9.15 -48.3 -9.0 -48.3 -9.05 -48.3 -9.0 -48.3 -9.0 -48.35 -8.95 -48.35 -8.95 -48.4 -8.9 -48.4 -8.85 -48.55 -8.75 -48.65 -8.65 -48.8 -8.55 -48.85 -8.45 -48.95 -8.35 -49.0 -8.2 -49.05 -8.1 -49.1 -8.0 -49.15 -7.85 -49.15 -7.75 -49.15 -7.65 -49.2 -7.5 -49.55 -4.5 -49.2 -7.2 -49.25 -7.05 -49.25 -6.95 -49.25 -6.85 -49.25 -6.8 -49.25 -6.7 -49.2 -6.6 -49.15 -6.55 -49.05 -6.5 -49.0 -6.4 -48.9 -6.35 -48.8 -6.3 -48.7 -6.3 -48.6 -6.25 -48.5 -6.25 -48.4 -6.25 -48.3 -6.25 -48.2 -6.25 -48.1 -6.3 -48.1 -6.3 -48.05 -6.35 -48.05 -6.35 -48.0 -6.4 -48.0 -6.45 -48.0 -6.5 -47.95 -6.5 -47.95 -6.55 -47.95 -6.6 -47.95 -6.65 -47.95 -7.4 -47.95 -9.4 -47.95 -9.4 -47.95 -9.4 -48.0 -9.45 -48.0 -9.45 L-48.0 -9.45" fill="#000000" fill-rule="evenodd" stroke="none"/>
    <path d="M-35.4 -15.3 Q-35.35 -15.4 -35.25 -15.5 -35.15 -15.6 -35.05 -15.65 -35.0 -15.65 -34.9 -15.7 -34.8 -15.7 -34.7 -15.75 -34.65 -15.75 -34.55 -15.75 -34.4 -15.75 -34.35 -15.75 -34.3 -15.75 -34.2 -15.8 -34.15 -15.8 -34.1 -15.85 -34.05 -15.9 -33.9 -16.55 -33.85 -16.65 -33.85 -16.75 -33.85 -16.85 -33.85 -16.9 -33.8 -17.0 -33.8 -17.05 -33.8 -17.15 -33.85 -17.2 -33.85 -17.25 -33.9 -17.3 -33.95 -17.35 -34.0 -17.4 -34.05 -17.4 -34.15 -17.4 -34.25 -17.45 -34.35 -17.45 -34.5 -17.45 -34.65 -17.35 -34.8 -17.3 -34.95 -17.15 -35.05 -17.05 -35.15 -16.9 -35.3 -16.75 -35.35 -16.6 -35.45 -16.4 -35.5 -16.25 -35.5 -16.05 -35.55 -15.9 -35.55 -15.7 -35.5 -15.55 -35.45 -15.4 -35.4 -15.3 L-35.4 -15.3" fill="#000000" fill-rule="evenodd" stroke="none"/>
    <path d="M-47.75 -10.05 Q-47.65 -10.05 -47.6 -10.1 -47.5 -10.1 -47.45 -10.15 -47.35 -10.15 -47.3 -10.2 -47.25 -10.2 -47.2 -10.25 -47.15 -10.25 -47.15 -10.3 -47.1 -10.35 -47.1 -10.4 -47.05 -10.45 -47.05 -10.5 -47.05 -10.55 -47.0 -10.6 -47.0 -10.65 -47.0 -10.75 -47.0 -10.8 -46.95 -10.9 -46.95 -10.95 -46.95 -11.05 -46.95 -11.1 -46.9 -11.2 -46.9 -11.3 -46.9 -11.35 -46.85 -11.4 -46.85 -11.5 -46.85 -11.55 -46.85 -11.6 -46.8 -11.7 -46.8 -11.75 -46.8 -11.85 -46.8 -11.9 -46.85 -12.0 -46.85 -12.1 -46.9 -12.15 -46.95 -12.25 -46.95 -12.3 -47.0 -12.35 -47.05 -12.45 -47.1 -12.5 -47.2 -12.55 -47.25 -12.6 -47.3 -12.65 -47.4 -12.75 -47.45 -12.8 -47.55 -12.8 -47.6 -12.85 -48.05 -12.85 -47.9 -12.55 -47.9 -12.5 -47.65 -11.35 -47.65 -11.1 -47.6 -10.8 -47.75 -10.05 L-47.75 -10.05" fill="#000000" fill-rule="evenodd" stroke="none"/>
    <path d="M-17.4 4.95 Q-17.05 5.4 -17.0 5.4 -16.9 5.4 -16.8 5.35 -16.75 5.35 -16.65 5.25 -16.55 5.2 -16.45 5.1 -16.4 5.0 -16.3 4.9 -16.25 4.8 -16.2 4.65 -16.15 4.55 -16.15 4.45 -16.15 4.35 -16.2 4.3 -16.2 4.2 -16.25 4.15 -16.3 4.15 -16.3 4.15 -16.35 4.1 -16.4 4.1 -16.45 4.1 -16.5 4.1 -16.55 4.1 -16.6 4.1 -16.65 4.1 -16.7 4.15 -16.75 4.15 -16.85 4.2 -16.9 4.2 -16.95 4.25 -17.0 4.25 -17.05 4.3 -17.1 4.35 -17.15 4.4 -17.2 4.45 -17.25 4.5 -17.3 4.55 -17.3 4.65 -17.35 4.7 -17.35 4.8 -17.4 4.9 -17.4 4.95 L-17.4 4.95" fill="#000000" fill-rule="evenodd" stroke="none"/>
    <path d="M-9.55 0.45 Q-9.85 0.15 -9.9 0.15 -9.95 0.15 -10.0 0.15 -10.05 0.15 -10.1 0.2 -10.15 0.2 -10.2 0.25 -10.2 0.25 -10.25 0.3 -10.25 0.35 -10.3 0.35 -10.3 0.4 -10.3 0.45 -10.3 0.5 -10.3 0.55 -10.3 0.6 -10.3 0.65 -10.3 0.65 -10.3 0.7 -10.3 0.7 -10.25 0.75 -10.25 0.75 -10.2 0.8 -10.2 0.85 -10.15 0.85 -10.15 0.85 -10.1 0.9 -10.1 0.9 -10.05 0.95 -10.05 0.95 -10.0 0.95 -9.95 0.95 -9.95 0.95 -9.9 0.95 -9.85 0.95 -9.8 0.95 -9.75 0.95 -9.7 0.9 -9.7 0.9 -9.65 0.85 -9.65 0.8 -9.65 0.8 -9.6 0.75 -9.6 0.7 -9.6 0.65 -9.6 0.6 -9.55 0.55 -9.55 0.5 -9.55 0.45 L-9.55 0.45" fill="#000000" fill-rule="evenodd" stroke="none"/>
    <path d="M-36.8 -9.65 Q-36.85 -9.55 -36.8 -9.75 -36.75 -9.8 -36.75 -9.85 -36.7 -9.9 -36.7 -10.0 -36.65 -10.1 -36.6 -10.15 -36.55 -10.25 -36.5 -10.35 -36.45 -10.45 -36.35 -10.55 -36.3 -10.65 -36.2 -10.7 -36.1 -10.8 -35.95 -10.9 -35.9 -10.95 -35.85 -10.95 -35.75 -11.0 -35.7 -11.05 -35.6 -11.1 -35.55 -11.1 -35.45 -11.15 -35.35 -11.15 -35.3 -11.2 -35.2 -11.2 -35.15 -11.2 -35.05 -11.2 -35.0 -11.2 -34.95 -11.2 -34.85 -11.15 -34.8 -11.15 -34.75 -11.1 -34.7 -11.0 -34.65 -10.9 -34.65 -10.75 -34.65 -10.6 -34.7 -10.45 -34.7 -10.3 -34.75 -10.15 -34.8 -10.0 -34.9 -9.85 -34.95 -9.7 -35.05 -9.6 -35.15 -9.45 -35.3 -9.4 -35.45 -9.3 -35.6 -9.25 -35.65 -9.25 -35.75 -9.2 -35.8 -9.2 -35.9 -9.2 -36.0 -9.2 -36.05 -9.25 -36.15 -9.25 -36.2 -9.25 -36.3 -9.3 -36.35 -9.35 -36.45 -9.4 -36.5 -9.4 -36.6 -9.45 -36.65 -9.55 -36.75 -9.6 -36.8 -9.65 L-36.8 -9.65" fill="#000000" fill-rule="evenodd" stroke="none"/>
  </g>
</svg>
