<?xml version="1.0" encoding="UTF-8" standalone="no"?>
<svg xmlns:xlink="http://www.w3.org/1999/xlink" height="178.7px" width="265.4px" xmlns="http://www.w3.org/2000/svg">
  <g transform="matrix(1.0, 0.0, 0.0, 1.0, 132.7, 89.35)">
    <path d="M-33.5 35.9 Q-33.4 36.55 -33.3 37.95 -33.3 37.95 -33.3 38.1 -33.3 38.2 -33.25 38.25 -33.15 38.65 -33.2 40.1 -33.2 41.3 -33.3 41.85 -33.3 41.95 -33.3 42.0 -33.35 42.1 -33.35 42.2 -33.35 42.25 -33.35 42.35 -33.35 42.45 -33.35 42.55 -33.35 42.6 -33.3 42.7 -33.3 42.8 -33.3 42.9 -33.3 42.95 -33.3 43.05 -33.3 43.0 -33.25 43.25 -32.95 45.45 -32.75 46.6 -32.15 49.9 -31.6 52.45 -31.5 53.0 -31.35 53.5 -31.2 54.05 -31.1 54.55 -30.95 55.1 -30.75 55.6 -30.6 56.1 -30.45 56.65 -30.25 57.15 -30.1 57.65 -29.9 58.15 -29.7 58.65 -29.5 59.15 -29.3 59.65 -29.05 60.15 -28.85 60.65 -28.8 60.8 -28.7 60.95 -28.65 61.05 -28.6 61.2 -28.6 61.35 -28.55 61.5 -28.5 61.65 -28.5 61.8 -28.5 61.95 -28.5 62.1 -28.5 62.25 -28.55 62.4 -28.55 62.55 -28.6 62.7 -28.65 62.85 -28.7 63.0 -28.75 63.05 -28.85 63.05 -28.9 63.1 -29.0 63.1 -29.05 63.15 -29.15 63.15 -29.25 63.2 -29.3 63.2 -29.4 63.2 -29.45 63.2 -29.55 63.2 -29.65 63.2 -29.7 63.2 -29.8 63.2 -29.9 63.2 -29.95 63.2 -30.05 63.2 -30.15 63.15 -30.25 63.15 -30.35 63.1 -30.45 63.05 -30.55 63.05 -30.65 63.0 -30.75 62.95 -30.85 62.9 -30.9 62.85 -31.0 62.8 -31.1 62.75 -31.15 62.65 -31.25 62.6 -31.35 62.55 -31.4 62.45 -31.75 62.1 -32.1 61.75 -32.4 61.45 -32.75 61.1 -33.1 60.75 -33.4 60.4 -33.7 60.05 -34.05 59.65 -34.35 59.3 -34.65 58.95 -34.95 58.55 -35.25 58.2 -35.55 57.8 -35.85 57.45 -36.1 57.05 -36.4 56.65 -36.75 56.15 -37.05 55.65 -37.4 55.15 -37.7 54.65 -38.0 54.15 -38.3 53.6 -38.6 53.1 -38.9 52.55 -39.15 52.05 -39.45 51.5 -39.7 50.95 -39.95 50.4 -40.2 49.85 -40.45 49.3 -40.65 48.75 -40.9 48.2 -41.1 47.65 -41.35 47.1 -41.55 46.55 -41.75 46.0 -41.95 45.45 -42.1 44.9 -42.3 44.3 -42.5 43.75 -42.65 43.2 -42.8 42.6 -42.95 42.05 -43.1 41.5 -43.25 40.9 -43.4 40.35 -43.5 39.75 -43.65 39.2 -43.7 38.85 -43.75 38.55 -43.85 38.2 -43.9 37.9 -43.95 37.55 -44.0 37.2 -44.05 36.9 -44.1 36.55 -44.15 36.2 -44.2 35.9 -44.2 35.55 -44.25 35.25 -44.3 34.9 -44.3 34.55 -44.35 34.25 -44.4 33.9 -44.4 33.5 -44.45 33.1 -44.5 32.7 -44.55 32.3 -44.55 31.9 -44.6 31.5 -44.65 31.15 -44.7 30.75 -44.75 30.35 -44.8 29.95 -44.9 29.55 -44.95 29.15 -45.0 28.75 -45.05 28.35 -45.15 27.95 -45.2 27.55 -45.3 27.1 -45.35 27.05 -45.35 27.05 -45.4 27.0 -45.55 27.2 -45.6 27.3 -45.7 27.55 -45.8 27.8 -45.95 28.0 -46.05 28.25 -46.15 28.5 -46.2 28.75 -46.3 29.0 -46.4 29.25 -46.5 29.5 -46.6 29.75 -46.65 30.0 -46.75 30.25 -46.8 30.5 -46.9 30.75 -46.95 31.0 -47.05 31.25 -47.15 31.55 -47.2 31.85 -47.3 32.15 -47.35 32.45 -47.45 32.75 -47.5 33.05 -47.6 33.35 -47.65 33.65 -47.7 34.0 -47.75 34.3 -47.85 34.6 -47.9 34.9 -47.95 35.2 -48.0 35.5 -48.05 35.8 -48.05 36.15 -48.1 36.45 -48.25 38.45 -48.3 39.05 -48.3 39.4 -48.3 39.55 -48.3 39.55 -48.35 39.65 -48.35 39.7 -48.35 39.8 -48.35 39.85 -48.4 39.95 -48.4 40.0 -48.4 40.1 -48.4 40.15 -48.4 40.25 -48.4 40.35 -48.4 40.4 -48.4 40.5 -48.4 40.55 -48.35 40.65 -48.35 40.7 -48.35 40.75 -48.35 40.8 -48.35 40.85 -48.35 40.9 -48.35 40.9 -48.35 40.95 -48.35 41.0 -48.4 41.05 -48.4 41.1 -48.45 41.25 -48.45 41.35 -48.5 41.5 -48.5 41.65 -48.5 41.8 -48.5 41.9 -48.55 42.05 -48.5 42.2 -48.5 42.35 -48.5 42.45 -48.5 42.6 -48.5 42.75 -48.5 42.85 -48.5 43.0 -48.45 43.25 -48.45 43.3 -48.4 43.85 -48.35 44.4 -48.3 45.0 -48.2 45.55 -48.1 46.1 -48.0 46.65 -47.9 47.2 -47.8 47.75 -47.65 48.3 -47.55 48.8 -47.4 49.35 -47.25 49.9 -47.05 50.45 -46.9 51.0 -46.7 51.5 -46.55 52.05 -46.5 52.15 -46.5 52.25 -46.45 52.3 -46.4 52.4 -46.4 52.5 -46.35 52.6 -46.35 52.7 -46.3 52.8 -46.3 52.85 -46.3 52.95 -46.25 53.05 -46.25 53.15 -46.25 53.25 -46.25 53.35 -46.2 53.45 -46.2 53.55 -46.2 53.6 -46.2 53.65 -46.2 53.75 -46.2 53.8 -46.2 53.85 -46.25 53.95 -46.25 54.0 -46.25 54.05 -46.25 54.1 -46.3 54.2 -46.3 54.3 -46.3 54.3 -46.3 54.4 -46.35 54.45 -46.35 54.5 -46.35 54.6 -46.5 54.65 -46.65 54.7 -46.8 54.75 -46.9 54.8 -47.05 54.8 -47.2 54.85 -47.35 54.85 -47.5 54.85 -47.6 54.85 -47.75 54.8 -47.9 54.8 -48.0 54.75 -48.15 54.7 -48.3 54.65 -48.4 54.6 -48.55 54.5 -48.9 54.3 -49.25 54.05 -49.6 53.85 -49.9 53.6 -50.25 53.35 -50.6 53.1 -50.9 52.85 -51.2 52.6 -51.55 52.3 -51.85 52.05 -52.15 51.75 -52.45 51.45 -52.7 51.2 -53.0 50.9 -53.3 50.6 -53.55 50.25 -53.85 49.9 -54.1 49.55 -54.35 49.25 -54.6 48.85 -54.8 48.5 -55.05 48.15 -55.25 47.8 -55.45 47.4 -55.65 47.0 -55.8 46.65 -55.95 46.25 -56.1 45.85 -56.25 45.45 -56.4 45.05 -56.5 44.6 -56.6 44.2 -56.7 43.9 -56.75 43.6 -56.8 43.35 -56.85 43.05 -56.95 42.75 -57.0 42.45 -57.05 42.15 -57.05 41.9 -57.1 41.6 -57.15 41.3 -57.2 41.0 -57.2 40.7 -57.25 40.4 -57.3 40.1 -57.3 39.85 -57.3 39.5 -57.3 39.35 -57.35 39.2 -57.35 39.05 -57.35 38.85 -57.35 38.8 -57.35 38.55 -57.35 38.35 -57.4 38.25 -57.4 38.05 -57.4 37.9 -57.4 37.75 -57.45 37.6 -57.45 37.4 -57.5 37.25 -57.5 37.1 -57.55 36.95 -57.55 36.9 -57.55 36.85 -57.55 36.8 -57.55 36.8 -57.55 36.75 -57.55 36.7 -57.55 36.65 -57.55 36.6 -57.4 36.1 -57.35 34.7 -57.35 34.05 -57.25 33.4 -57.2 32.8 -57.15 32.15 -57.05 31.5 -56.95 30.85 -56.85 30.25 -56.7 29.6 -56.6 29.0 -56.45 28.35 -56.3 27.75 -56.1 27.15 -55.95 26.5 -55.75 25.9 -55.55 25.3 -55.35 24.65 -54.85 23.1 -53.0 18.65 -48.0 6.85 -44.35 -1.25 -42.15 -6.05 -40.75 -9.75 -40.35 -10.8 -40.0 -11.9 -39.6 -12.95 -39.25 -14.05 -38.9 -15.15 -38.6 -16.25 -38.25 -17.3 -37.95 -18.4 -37.65 -19.5 -37.35 -20.6 -37.1 -21.7 -36.8 -22.8 -36.55 -23.9 -36.35 -25.05 -36.1 -26.15 -35.9 -27.25 -35.45 -29.35 -34.75 -33.7 -34.2 -37.4 -33.75 -40.35 -33.4 -42.6 -33.2 -44.55 -33.2 -44.8 -33.15 -45.0 -33.15 -45.25 -33.15 -45.5 -33.15 -45.7 -33.1 -45.95 -33.1 -46.2 -33.1 -46.4 -33.15 -46.65 -33.15 -46.9 -33.15 -47.1 -33.15 -47.35 -33.15 -47.55 -33.2 -47.8 -33.2 -48.05 -33.25 -48.3 -33.35 -49.4 -33.8 -52.75 -33.9 -53.4 -33.95 -54.45 -34.05 -55.8 -34.05 -56.15 -34.2 -57.3 -34.2 -57.4 -34.2 -57.5 -34.2 -57.55 -34.2 -57.65 -34.2 -57.7 -34.2 -57.8 -34.15 -57.9 -34.15 -57.95 -34.15 -58.05 -34.15 -58.1 -34.15 -58.2 -34.1 -58.3 -34.1 -58.35 -34.1 -58.45 -34.1 -58.5 -34.05 -58.6 -34.05 -58.65 -33.9 -60.95 -33.85 -61.2 -33.8 -61.55 -33.75 -61.95 -33.7 -62.3 -33.65 -62.65 -33.55 -63.0 -33.45 -63.4 -33.4 -63.75 -33.3 -64.1 -33.2 -64.45 -33.1 -64.8 -33.0 -65.15 -32.85 -65.5 -32.75 -65.85 -32.6 -66.2 -32.45 -66.55 -32.35 -66.9 -32.15 -67.4 -31.9 -67.85 -31.65 -68.35 -31.4 -68.8 -31.15 -69.25 -30.85 -69.7 -30.6 -70.15 -30.3 -70.6 -30.0 -71.0 -29.65 -71.4 -29.35 -71.85 -29.0 -72.25 -28.65 -72.65 -28.3 -73.05 -27.9 -73.4 -27.55 -73.8 -26.9 -74.4 -26.25 -75.0 -25.6 -75.6 -24.9 -76.15 -24.25 -76.75 -23.55 -77.3 -22.85 -77.85 -22.15 -78.35 -21.45 -78.85 -20.7 -79.35 -20.0 -79.85 -19.25 -80.3 -18.5 -80.8 -17.7 -81.25 -16.95 -81.65 -16.15 -82.1 -15.45 -82.45 -14.8 -82.8 -14.1 -83.15 -13.4 -83.45 -12.7 -83.75 -12.0 -84.05 -11.25 -84.35 -10.55 -84.6 -9.85 -84.9 -9.1 -85.15 -8.4 -85.4 -7.65 -85.6 -6.9 -85.85 -6.15 -86.05 -5.45 -86.25 -4.7 -86.45 -4.35 -86.55 -3.95 -86.6 -3.6 -86.7 -3.25 -86.8 -2.9 -86.85 -2.5 -86.95 -2.15 -87.05 -1.8 -87.1 -1.45 -87.15 -1.05 -87.25 -0.7 -87.3 -0.35 -87.4 0.05 -87.45 0.4 -87.5 0.75 -87.55 1.15 -87.6 1.5 -87.65 1.85 -87.7 2.25 -87.75 2.6 -87.8 2.95 -87.85 3.3 -87.9 3.65 -87.95 4.05 -88.0 4.4 -88.05 4.75 -88.05 5.15 -88.1 5.5 -88.1 5.85 -88.15 6.2 -88.15 6.6 -88.2 6.95 -88.2 7.75 -88.25 9.9 -88.35 9.95 -88.35 10.0 -88.35 10.05 -88.35 10.1 -88.35 10.25 -88.4 10.35 -88.4 10.5 -88.4 10.6 -88.45 10.75 -88.45 10.9 -88.45 11.0 -88.45 11.15 -88.45 11.25 -88.45 11.4 -88.45 11.5 -88.4 11.65 -88.4 11.75 -88.4 11.95 -88.4 12.15 -88.35 12.2 -88.35 12.75 -88.3 13.7 -88.25 14.85 -88.25 15.2 -88.2 16.6 -88.15 17.95 -88.0 19.3 -87.85 20.65 -87.65 22.0 -87.4 23.3 -87.15 24.6 -86.85 25.9 -86.5 27.25 -86.15 28.5 -85.7 29.8 -85.3 31.05 -84.8 32.35 -84.3 33.6 -83.75 34.8 -83.2 36.05 -82.55 36.7 -82.2 37.35 -81.85 38.0 -81.5 38.6 -81.15 39.25 -80.8 39.85 -80.4 40.5 -80.0 41.1 -79.6 41.7 -79.2 42.3 -78.8 42.9 -78.35 43.5 -77.9 44.1 -77.5 44.7 -77.05 45.25 -76.6 45.85 -76.15 46.3 -75.8 46.7 -75.4 47.15 -75.0 47.55 -74.6 47.95 -74.2 48.3 -73.8 48.7 -73.4 49.05 -72.95 49.4 -72.55 49.75 -72.1 50.1 -71.65 50.4 -71.15 50.75 -70.7 51.0 -70.2 51.3 -69.7 51.6 -69.2 51.75 -68.9 51.9 -68.6 52.05 -68.3 52.15 -68.0 52.3 -67.7 52.4 -67.4 52.55 -67.1 52.65 -66.75 52.8 -66.45 52.9 -66.15 53.0 -65.85 53.1 -65.5 53.2 -65.2 53.3 -64.9 53.4 -64.55 53.45 -64.25 53.55 -63.85 53.65 -63.45 53.75 -63.0 53.85 -62.6 53.95 -62.2 54.05 -61.8 54.1 -61.35 54.2 -60.95 54.25 -60.55 54.3 -60.15 54.35 -59.7 54.4 -59.3 54.45 -58.9 54.5 -58.45 54.55 -58.05 54.55 -57.6 54.6 -57.1 54.7 -55.2 54.7 -54.75 54.75 -54.55 54.8 -54.4 54.8 -54.25 54.8 -54.1 54.8 -53.95 54.85 -53.8 54.85 -53.65 54.85 -53.5 54.85 -53.35 54.85 -53.2 54.8 -53.05 54.8 -52.9 54.8 -52.75 54.8 -52.6 54.75 -52.4 54.75 -52.25 54.7 -52.1 54.7 -51.95 54.75 -51.3 54.8 -50.95 54.8 -50.55 54.85 -50.2 54.9 -49.8 54.95 -49.45 55.05 -49.05 55.1 -48.7 55.15 -48.3 55.25 -47.95 55.35 -47.6 55.4 -47.25 55.5 -46.85 55.6 -46.5 55.7 -46.1 55.8 -45.75 55.95 -45.4 56.5 -43.55 57.75 -40.55 61.15 -32.05 62.7 -28.45 64.45 -24.25 67.85 -17.05 72.6 -7.25 75.05 -2.1 75.4 -1.35 75.75 -0.6 76.1 0.15 76.45 0.9 76.8 1.7 77.15 2.4 77.45 3.2 77.8 3.95 78.1 4.7 78.45 5.5 78.75 6.25 79.05 7.0 79.35 7.8 79.65 8.6 79.95 9.35 80.2 10.15 81.15 12.8 82.4 17.35 82.5 17.7 82.75 18.65 82.95 19.45 83.1 19.9 83.15 20.0 83.15 20.1 83.15 20.2 83.15 20.3 83.2 20.4 83.2 20.5 83.2 20.6 83.15 20.7 83.15 20.8 83.15 20.9 83.1 21.0 83.1 21.1 83.05 21.2 83.05 21.3 83.0 21.4 82.95 21.5 82.85 21.55 82.75 21.6 82.65 21.65 82.5 21.7 82.4 21.7 82.3 21.75 82.2 21.75 82.05 21.75 81.95 21.8 81.85 21.8 81.7 21.8 81.6 21.75 81.5 21.75 81.35 21.7 81.25 21.7 81.1 21.65 81.05 21.65 81.05 21.65 81.0 21.6 80.95 21.6 80.95 21.6 80.9 21.55 80.9 21.55 80.85 21.55 80.85 21.5 80.8 21.5 80.8 21.45 80.75 21.45 80.75 21.4 80.7 21.35 80.7 21.35 80.7 21.3 80.65 21.25 80.65 21.2 80.6 21.15 80.6 21.1 80.55 21.05 80.55 21.0 80.5 20.95 80.5 20.85 80.45 20.8 80.45 20.75 80.4 20.7 80.4 20.65 80.4 20.6 80.35 20.55 80.35 20.5 80.3 20.45 80.1 19.95 79.9 19.5 79.7 19.0 79.5 18.5 79.35 18.05 79.1 17.55 78.9 17.1 78.7 16.6 78.5 16.15 78.3 15.65 78.1 15.2 77.85 14.7 77.65 14.25 77.45 13.75 77.2 13.3 77.0 12.8 76.6 11.9 76.15 11.0 75.7 10.15 75.25 9.25 74.8 8.35 74.35 7.5 73.9 6.6 73.45 5.7 73.0 4.85 72.5 4.0 72.05 3.1 71.55 2.25 71.05 1.4 70.55 0.55 70.05 -0.35 69.55 -1.2 69.1 -1.9 66.15 -6.8 66.1 -6.85 65.8 -7.3 65.65 -6.95 65.65 -6.9 65.2 -3.65 65.1 -3.1 65.1 -3.05 65.1 -3.0 65.1 -2.95 65.1 -2.9 65.1 -2.85 65.1 -2.8 65.1 -2.75 65.1 -2.7 65.1 -2.65 65.1 -2.6 65.1 -2.55 65.15 -2.5 65.15 -2.45 65.15 -2.4 65.15 -2.35 65.2 -2.3 66.2 0.85 66.3 1.25 69.65 11.3 70.65 14.2 72.3 19.25 72.85 21.4 72.95 21.8 73.05 22.25 73.15 22.7 73.25 23.1 73.35 23.55 73.45 23.95 73.55 24.4 73.65 24.8 73.7 25.25 73.8 25.7 73.85 26.1 73.9 26.55 74.0 27.0 74.05 27.45 74.1 27.85 74.15 28.3 74.2 28.65 74.25 29.0 74.25 29.35 74.3 29.7 74.35 30.0 74.35 30.35 74.4 30.7 74.4 31.05 74.45 31.4 74.45 31.75 74.5 32.1 74.5 32.45 74.5 32.8 74.55 33.15 74.55 33.45 74.55 33.8 74.55 34.05 74.6 34.45 74.6 34.95 74.65 35.1 74.65 35.25 74.65 35.6 74.65 35.9 74.65 36.1 74.65 36.25 74.65 36.55 74.6 36.85 74.6 37.0 74.65 38.15 74.7 38.8 74.75 38.8 74.8 38.8 74.8 38.8 74.85 38.8 74.9 38.8 74.9 38.8 74.95 38.75 74.95 38.75 75.0 38.75 75.0 38.7 75.05 38.7 75.05 38.65 75.1 38.65 75.1 38.65 75.15 38.6 75.15 38.6 75.55 38.35 75.9 38.05 76.3 37.75 76.6 37.45 76.95 37.15 77.25 36.8 77.6 36.5 77.85 36.1 78.15 35.75 78.4 35.4 78.65 35.0 78.85 34.6 79.05 34.2 79.25 33.8 79.45 33.35 79.6 32.95 79.65 32.75 79.75 32.6 79.8 32.4 79.85 32.2 79.9 32.0 79.95 31.85 80.0 31.65 80.05 31.45 80.05 31.25 80.1 31.1 80.15 30.9 80.15 30.7 80.2 30.5 80.25 30.3 80.25 30.15 80.3 29.95 80.3 29.75 80.45 29.1 80.55 29.05 80.7 29.0 80.8 28.95 80.9 28.95 81.05 28.9 81.15 28.9 81.25 28.9 81.4 28.9 81.5 28.9 81.65 28.9 81.75 28.9 81.85 28.95 82.0 28.95 82.1 29.0 82.25 29.05 82.35 29.1 82.4 29.15 82.35 29.15 82.4 29.2 82.4 29.2 82.4 29.25 82.45 29.25 82.45 29.3 82.45 29.3 82.45 29.35 82.5 29.35 82.5 29.4 82.5 29.45 82.5 29.45 82.5 29.5 82.5 29.5 82.55 29.55 82.55 29.6 82.7 30.45 82.8 31.0 82.85 31.4 83.0 32.95 83.05 34.15 83.05 34.5 82.95 35.5 82.65 37.35 82.6 37.6 82.45 38.35 81.75 40.4 81.65 40.65 81.55 40.85 81.45 41.1 81.35 41.35 81.25 41.55 81.1 41.75 81.0 42.0 80.85 42.2 80.7 42.4 80.55 42.6 80.4 42.8 80.25 43.0 80.1 43.2 79.95 43.4 79.75 43.6 79.6 43.8 79.3 44.1 78.85 44.55 78.65 44.75 78.45 44.9 78.25 45.05 78.05 45.2 77.85 45.35 77.65 45.45 77.45 45.6 77.25 45.7 77.0 45.8 76.8 45.9 76.55 46.0 76.3 46.05 76.05 46.15 75.8 46.2 75.55 46.25 75.3 46.25 75.25 46.35 75.2 46.5 75.1 46.6 75.1 46.7 74.3 48.5 73.95 49.3 73.75 49.75 73.55 50.2 73.35 50.6 73.15 51.05 72.95 51.45 72.7 51.9 72.5 52.3 72.25 52.75 72.05 53.15 71.8 53.55 71.55 53.95 71.3 54.35 71.05 54.75 70.8 55.2 70.55 55.55 70.3 56.0 69.95 56.5 69.65 57.0 69.3 57.5 68.95 58.0 68.6 58.5 68.2 59.0 67.85 59.5 67.5 59.95 67.1 60.45 66.75 60.9 66.35 61.35 65.95 61.85 65.55 62.3 65.15 62.75 64.75 63.2 64.3 63.65 64.2 63.75 64.1 63.85 64.05 63.9 63.95 63.95 63.85 64.0 63.75 64.05 63.65 64.1 63.55 64.15 63.45 64.15 63.3 64.2 63.2 64.2 63.1 64.2 63.0 64.2 62.9 64.2 62.75 64.2 62.65 64.2 62.55 64.2 62.4 64.15 62.15 64.05 62.1 64.05 62.05 64.0 62.05 63.9 62.0 63.85 62.0 63.75 61.95 63.7 61.95 63.6 61.95 63.55 61.9 63.45 61.75 62.4 61.9 63.3 61.9 63.2 61.85 63.15 61.85 63.05 61.85 63.0 61.8 62.9 61.75 62.85 61.7 62.85 61.7 62.85 61.65 62.85 61.6 62.85 61.6 62.9 61.55 62.9 61.55 62.9 61.5 62.95 61.5 62.95 61.45 62.95 61.45 62.95 61.4 63.0 61.4 63.05 61.35 63.05 61.35 63.05 61.3 63.1 61.2 63.15 60.9 63.35 60.8 63.7 60.55 64.7 60.35 65.5 60.2 65.95 59.8 67.45 58.35 71.35 58.25 71.6 58.15 71.85 58.05 72.1 57.9 72.35 57.8 72.55 57.65 72.8 57.55 73.0 57.4 73.25 57.25 73.45 57.1 73.65 56.95 73.85 56.75 74.05 56.6 74.25 56.45 74.45 56.25 74.65 56.1 74.85 55.9 75.05 55.75 75.25 55.55 75.4 55.35 75.6 55.15 75.75 55.0 75.95 54.8 76.1 54.6 76.25 54.4 76.45 54.2 76.6 54.0 76.75 53.75 76.9 53.55 77.05 53.35 77.2 53.15 77.35 52.9 77.5 52.8 77.6 52.65 77.65 52.55 77.7 52.45 77.75 52.3 77.8 52.2 77.85 52.05 77.9 51.95 77.9 51.8 77.95 51.7 77.95 51.55 77.95 51.45 77.95 51.3 77.95 51.15 77.9 51.05 77.9 50.9 77.85 50.9 77.85 50.75 77.8 50.6 77.8 50.55 77.8 50.5 77.7 50.5 77.6 50.45 77.55 50.45 77.45 50.4 77.35 50.4 77.25 50.4 77.15 50.35 77.1 50.35 77.0 50.35 76.9 50.35 76.8 50.35 76.75 50.35 76.65 50.35 76.55 50.4 76.45 50.4 76.35 50.55 75.9 50.8 75.1 51.05 74.2 51.15 73.9 51.9 71.65 53.3 66.1 53.35 65.9 53.6 64.55 53.55 64.55 53.45 64.55 53.35 64.55 53.3 64.55 53.2 64.55 52.7 64.7 52.7 64.75 52.65 64.9 52.55 65.05 52.55 65.15 52.5 65.35 52.45 65.55 52.4 65.7 52.35 65.9 52.3 66.1 52.2 66.3 52.15 66.5 52.1 66.65 52.05 66.85 51.95 67.05 51.9 67.25 51.8 67.4 51.75 67.6 51.65 67.8 51.6 67.95 51.5 68.15 51.45 68.3 51.4 68.45 51.3 68.55 51.25 68.7 51.2 68.8 51.1 68.95 51.05 69.1 50.95 69.2 50.85 69.35 50.8 69.45 50.7 69.55 50.6 69.7 50.5 69.8 50.4 69.95 50.35 70.05 50.25 70.2 50.0 70.5 49.75 70.85 49.45 71.15 49.2 71.45 48.9 71.7 48.65 72.0 48.35 72.3 48.05 72.55 47.75 72.8 47.45 73.1 47.15 73.35 46.8 73.6 46.5 73.85 46.2 74.1 45.85 74.3 45.5 74.55 45.0 74.9 44.45 75.25 43.9 75.55 43.35 75.9 42.85 76.2 42.3 76.5 41.75 76.8 41.15 77.05 40.6 77.35 40.05 77.6 39.45 77.85 38.9 78.1 38.3 78.35 37.7 78.55 37.15 78.8 36.55 79.0 36.05 79.2 35.55 79.35 35.1 79.5 34.6 79.65 34.1 79.85 33.6 80.0 33.1 80.15 32.6 80.3 32.1 80.45 31.6 80.55 31.1 80.7 30.6 80.85 30.1 80.95 29.6 81.1 29.1 81.2 28.6 81.35 27.9 81.5 27.9 81.5 27.8 81.55 27.7 81.55 27.55 81.55 27.45 81.6 27.35 81.6 27.25 81.6 27.15 81.6 27.0 81.6 26.9 81.6 26.8 81.6 26.7 81.55 26.6 81.55 26.45 81.55 26.35 81.5 26.25 81.5 26.15 81.45 26.05 81.4 25.95 81.4 25.85 81.35 25.75 81.3 25.65 81.25 25.6 81.2 25.5 81.1 25.45 81.05 25.35 81.0 25.3 80.9 25.25 80.8 25.2 80.75 25.15 80.65 25.15 80.55 25.1 80.45 25.1 80.35 25.1 80.3 25.05 80.15 25.05 80.05 25.05 80.0 25.0 79.85 25.0 79.7 25.0 79.55 24.95 79.4 24.95 79.25 25.0 79.1 25.0 78.95 25.05 78.8 25.05 78.65 25.1 78.5 25.15 78.35 25.2 78.2 25.25 78.05 25.35 77.95 25.4 77.8 25.5 77.65 25.85 77.15 26.2 76.65 26.5 76.1 26.8 75.6 27.1 75.05 27.4 74.5 27.65 73.95 27.9 73.4 28.15 72.85 28.35 72.3 28.6 71.7 28.8 71.15 29.0 70.55 29.15 69.95 29.35 69.4 29.5 68.8 29.95 67.1 30.4 64.0 30.75 61.85 31.05 59.15 31.05 58.9 31.1 58.7 31.1 58.45 31.15 58.25 31.15 58.0 31.2 57.8 31.2 57.55 31.2 57.35 31.25 57.1 31.25 56.9 31.25 56.65 31.3 56.45 31.3 56.2 31.3 56.0 31.35 55.75 31.35 55.55 31.45 53.1 31.5 50.95 31.5 50.45 31.5 49.9 31.55 49.4 31.5 48.85 31.5 48.35 31.5 47.85 31.5 47.3 31.5 46.8 31.45 46.3 31.45 45.75 31.4 45.25 31.35 44.7 31.35 44.2 31.3 43.7 31.25 43.15 31.2 42.65 31.2 42.6 31.2 42.6 31.2 42.55 31.2 42.5 31.2 42.5 31.2 42.45 31.2 42.4 31.2 42.4 31.2 42.35 31.2 42.3 31.2 42.3 31.2 42.25 31.2 42.2 31.2 42.2 31.2 42.15 31.2 42.1 31.35 41.3 31.45 40.6 31.25 40.75 31.2 40.85 30.75 41.5 30.35 42.1 29.95 42.75 29.55 43.4 29.1 44.05 28.75 44.7 28.35 45.35 27.95 45.95 27.55 46.65 27.2 47.3 26.8 47.95 26.45 48.6 26.05 49.25 25.7 49.95 25.35 50.6 25.0 51.3 24.8 51.7 24.6 52.05 24.4 52.45 24.25 52.85 24.05 53.25 23.9 53.6 23.7 54.0 23.55 54.4 23.35 54.8 23.2 55.2 23.0 55.6 22.85 56.0 22.7 56.4 22.55 56.8 22.4 57.2 22.25 57.6 22.1 58.0 22.0 58.35 21.85 58.75 21.7 59.15 21.6 59.55 21.45 59.95 21.35 60.35 21.25 60.75 21.15 61.1 21.05 61.5 20.95 61.9 20.85 62.3 20.75 62.7 20.65 63.1 20.55 63.5 20.5 63.95 20.5 64.05 20.45 64.1 20.45 64.2 20.4 64.3 20.4 64.4 20.4 64.45 20.35 64.55 20.35 64.65 20.35 64.75 20.35 64.85 20.35 64.9 20.35 65.0 20.35 65.1 20.35 65.2 20.35 65.3 20.35 65.4 20.35 65.45 20.35 65.45 20.35 65.5 20.35 65.55 20.35 65.6 20.35 65.65 20.3 65.75 20.3 65.9 20.25 66.0 20.25 66.1 20.25 66.2 20.25 66.35 20.25 66.45 20.25 66.55 20.25 66.65 20.25 66.8 20.25 66.9 20.25 67.05 20.3 67.1 20.3 67.25 20.3 67.1 20.35 67.5 20.4 67.9 20.45 68.25 20.55 68.65 20.6 69.05 20.7 69.4 20.75 69.8 20.85 70.15 20.95 70.55 21.05 70.95 21.15 71.3 21.25 71.7 21.35 72.05 21.45 72.45 21.55 72.8 21.65 73.2 21.8 73.55 21.9 73.85 22.0 74.15 22.1 74.45 22.2 74.75 22.3 75.05 22.4 75.35 22.5 75.65 22.6 75.95 22.7 76.25 22.8 76.55 22.95 76.85 23.05 77.15 23.15 77.45 23.3 77.75 23.4 78.0 23.5 78.3 23.6 78.5 23.65 78.65 23.75 78.85 23.85 79.0 23.9 79.2 24.0 79.4 24.1 79.55 24.2 79.7 24.3 79.9 24.4 80.05 24.5 80.25 24.6 80.4 24.7 80.55 24.8 80.75 24.9 80.9 25.0 81.05 25.1 81.2 25.4 81.65 25.65 82.0 25.8 82.2 25.85 82.25 25.9 82.35 25.95 82.4 26.0 82.5 26.05 82.55 26.1 82.65 26.15 82.7 26.15 82.8 26.2 82.9 26.25 82.95 26.25 83.05 26.3 83.15 26.3 83.2 26.3 83.3 26.35 83.4 26.35 83.45 26.35 83.55 26.4 83.6 26.4 83.7 26.4 83.75 26.4 83.85 26.4 83.9 26.35 84.0 26.35 84.05 26.35 84.15 26.35 84.2 26.3 84.3 26.3 84.35 26.3 84.4 26.25 84.5 26.2 84.65 26.2 84.65 26.2 84.7 26.15 84.7 26.15 84.75 26.1 84.8 26.05 84.8 26.05 84.8 26.05 84.8 25.9 84.85 25.85 84.85 25.8 84.9 25.7 84.9 25.65 84.9 25.6 84.95 25.5 84.95 25.45 84.95 25.4 84.95 25.35 85.0 25.25 85.0 25.2 85.0 25.15 85.0 25.05 85.0 25.0 84.95 24.7 84.9 24.4 84.85 24.15 84.8 23.85 84.7 23.55 84.65 23.3 84.55 23.0 84.5 22.75 84.4 22.45 84.3 22.2 84.2 21.95 84.05 21.65 83.95 21.4 83.85 21.15 83.7 20.85 83.6 20.6 83.45 20.25 83.25 19.9 83.05 19.55 82.9 19.2 82.65 18.9 82.45 18.55 82.25 18.25 82.05 17.9 81.8 17.6 81.55 17.3 81.3 17.0 81.1 16.65 80.8 16.35 80.55 16.05 80.3 15.8 80.05 15.5 79.75 15.1 79.4 14.7 79.0 14.35 78.6 13.95 78.2 13.6 77.8 13.25 77.4 12.9 77.0 12.6 76.55 12.25 76.15 11.95 75.7 11.6 75.25 11.3 74.8 11.05 74.35 10.75 73.9 10.45 73.45 10.2 72.95 9.4 71.6 8.55 70.15 8.5 70.1 8.2 69.6 7.2 70.6 7.05 70.7 6.85 70.9 5.8 71.7 5.8 71.75 5.85 71.9 5.85 72.1 5.9 72.15 5.95 72.4 6.15 73.0 6.3 73.55 6.4 73.85 6.7 75.0 6.75 75.5 6.75 75.55 6.75 75.65 6.75 75.7 6.75 75.75 6.75 75.8 6.75 75.9 6.75 75.95 6.7 76.0 6.7 76.05 6.7 76.15 6.7 76.2 6.65 76.25 6.7 76.2 6.65 76.35 6.6 76.45 6.6 76.5 6.6 76.55 6.55 76.55 6.55 76.6 6.5 76.6 6.5 76.65 6.45 76.65 6.4 76.7 6.35 76.7 6.25 76.75 6.15 76.75 6.1 76.75 6.0 76.8 5.9 76.8 5.8 76.8 5.7 76.8 5.6 76.8 5.5 76.8 5.45 76.8 5.35 76.8 5.25 76.8 5.15 76.75 5.05 76.75 4.95 76.7 4.85 76.7 4.8 76.7 4.8 76.65 4.75 76.65 4.75 76.65 4.7 76.6 4.7 76.6 4.65 76.6 4.65 76.55 4.6 76.55 4.6 76.5 4.55 76.5 4.55 76.45 4.5 76.45 4.5 76.4 4.45 76.4 4.45 76.4 3.9 75.8 3.7 75.45 3.4 75.0 2.1 73.2 2.05 73.1 1.8 72.75 1.5 72.75 0.85 72.75 0.75 73.0 0.7 73.1 0.45 74.35 0.35 74.7 0.05 75.75 -0.5 77.5 -0.5 77.55 -0.55 77.6 -0.55 77.6 -0.55 77.65 -0.55 77.7 -0.6 77.75 -0.6 77.8 -0.6 77.8 -0.65 77.85 -0.65 77.9 -0.65 77.95 -0.7 78.0 -0.7 78.05 -0.75 78.05 -0.75 78.1 -0.8 78.15 -0.9 78.35 -1.05 78.5 -1.15 78.7 -1.3 78.85 -1.4 79.05 -1.55 79.2 -1.7 79.35 -1.85 79.5 -1.95 79.65 -2.15 79.85 -2.3 80.0 -2.45 80.15 -2.6 80.25 -2.75 80.4 -2.9 80.55 -3.1 80.7 -3.2 80.8 -3.35 80.9 -3.5 81.05 -3.55 81.05 -3.7 81.15 -3.85 81.25 -4.0 81.35 -4.15 81.45 -4.3 81.5 -4.45 81.55 -4.6 81.6 -4.75 81.65 -4.9 81.65 -5.05 81.65 -5.2 81.65 -5.4 81.65 -5.55 81.65 -5.75 81.6 -5.9 81.55 -6.05 81.5 -6.1 81.4 -6.1 81.35 -6.15 81.25 -6.2 81.15 -6.2 81.05 -6.2 80.95 -6.25 80.9 -6.25 80.8 -6.25 80.7 -6.25 80.6 -6.25 80.55 -6.25 80.45 -6.25 80.35 -6.25 80.25 -6.25 80.15 -6.2 80.05 -6.2 79.95 -6.15 79.8 -6.15 79.7 -6.1 79.55 -6.1 79.45 -6.05 79.3 -6.05 79.2 -6.0 79.05 -6.0 78.95 -6.0 78.8 -5.95 78.7 -5.95 78.55 -5.9 78.4 -5.9 78.3 -5.9 78.15 -5.85 78.05 -5.85 77.9 -5.8 77.75 -5.8 77.6 -5.8 77.5 -5.8 77.35 -5.8 77.2 -5.85 77.05 -5.85 76.9 -5.85 76.8 -5.9 76.65 -5.9 76.5 -5.9 76.35 -5.95 76.2 -5.95 76.05 -6.0 75.95 -6.0 75.8 -6.05 75.5 -6.15 75.15 -6.2 74.85 -6.3 74.55 -6.35 74.25 -6.45 73.95 -6.55 73.65 -6.65 73.35 -6.75 73.05 -6.85 72.75 -7.0 72.45 -7.1 72.15 -7.2 71.85 -7.35 71.6 -7.45 71.3 -7.6 71.0 -7.8 70.6 -8.0 70.15 -8.25 69.75 -8.45 69.35 -8.7 68.95 -8.95 68.55 -9.2 68.15 -9.45 67.75 -9.75 67.4 -10.0 67.0 -10.3 66.65 -10.6 66.3 -10.85 65.9 -11.15 65.55 -11.5 65.2 -11.8 64.85 -12.25 64.35 -14.9 61.65 -16.05 60.4 -20.9 55.4 -21.3 55.0 -21.65 54.6 -22.05 54.15 -22.35 53.7 -22.7 53.3 -23.05 52.85 -23.35 52.4 -23.65 51.9 -23.95 51.45 -24.25 50.95 -24.5 50.5 -24.75 50.0 -25.0 49.5 -25.25 49.0 -25.5 48.5 -25.7 47.95 -26.05 47.1 -26.3 46.45 -26.3 46.4 -26.35 46.35 -26.35 46.3 -26.4 46.25 -26.4 46.2 -26.45 46.15 -26.45 46.1 -26.5 46.05 -26.5 46.0 -26.55 45.95 -26.6 45.9 -26.6 45.85 -26.65 45.8 -26.7 45.75 -26.7 45.7 -26.75 45.65 -27.0 45.4 -27.25 45.1 -27.45 44.85 -27.7 44.55 -27.9 44.3 -28.15 44.0 -28.35 43.7 -28.6 43.45 -28.8 43.15 -29.05 42.85 -29.25 42.55 -29.45 42.25 -29.65 42.0 -29.9 41.7 -30.1 41.4 -30.3 41.1 -30.35 41.05 -30.7 40.5 -30.95 40.1 -31.1 39.85 -31.15 39.8 -31.15 39.75 -31.2 39.7 -31.25 39.65 -31.3 39.6 -31.3 39.55 -31.35 39.5 -31.4 39.45 -31.45 39.4 -31.5 39.35 -31.55 39.35 -31.6 39.3 -31.65 39.3 -31.75 39.25 -31.8 39.25 -31.85 39.25 -32.0 38.9 -32.05 38.75 -32.2 38.1 -33.25 36.05 -33.3 36.0 -33.3 35.95 -33.3 35.95 -33.35 35.9 -33.35 35.9 -33.4 35.9 -33.45 35.85 -33.5 35.9 -33.5 35.85 -33.45 35.75 -33.5 35.75 -33.5 35.75 -33.5 35.8 -33.5 35.85 -33.5 35.85 -33.5 35.9 L-33.5 35.9" fill="#000000" fill-rule="evenodd" stroke="none"/>
    <path d="M-111.3 35.5 Q-111.3 35.45 -111.3 35.45 -111.3 35.4 -111.3 35.35 -111.3 35.35 -111.3 35.35 -111.3 35.35 -111.3 35.35 -111.3 35.4 -111.3 35.4 -111.3 35.45 -111.3 35.5 -111.3 35.5 -111.3 35.5 L-111.3 35.5" fill="#ffffff" fill-rule="evenodd" stroke="none"/>
  </g>
</svg>
