<?xml version="1.0" encoding="UTF-8" standalone="no"?>
<svg xmlns:xlink="http://www.w3.org/1999/xlink" height="242.6px" width="135.85px" xmlns="http://www.w3.org/2000/svg">
  <g transform="matrix(1.0, 0.0, 0.0, 1.0, 67.95, 121.3)">
    <path d="M4.45 48.8 Q4.1 48.75 3.7 48.75 3.25 48.7 2.8 48.7 2.3 48.7 1.75 48.7 1.15 48.75 0.55 48.8 -0.1 48.9 -0.75 49.0 -1.45 49.15 -2.1 49.35 -2.85 49.55 -3.55 49.85 -4.3 50.1 -5.05 50.5 -5.9 50.9 -6.65 51.45 -7.35 51.9 -8.05 52.5 -8.65 53.0 -9.25 53.6 -9.75 54.1 -10.25 54.7 -10.65 55.25 -11.1 55.85 -11.45 56.35 -11.8 56.9 -12.05 57.35 -12.35 57.9 -12.55 58.2 -12.85 58.75 -13.25 59.5 -13.6 60.3 -13.95 61.0 -14.2 61.75 -14.45 62.45 -14.65 63.2 -14.85 63.9 -15.0 64.55 -15.15 65.2 -15.3 65.85 -15.4 66.45 -15.45 67.05 -15.5 67.55 -15.55 68.1 -15.6 68.55 -15.6 69.0 -15.25 68.7 -14.9 68.45 -14.55 68.2 -14.15 67.95 -13.85 67.7 -13.5 67.5 -13.15 67.25 -12.85 67.05 -12.5 66.9 -12.2 66.7 -11.9 66.5 -11.6 66.35 -11.35 66.2 -11.05 66.05 -10.8 65.95 -10.55 65.8 -9.7 65.4 -8.85 65.05 -8.05 64.7 -7.25 64.45 -6.45 64.15 -5.7 63.95 -4.95 63.75 -4.25 63.6 -3.6 63.45 -2.9 63.3 -2.3 63.2 -1.7 63.1 -1.2 63.05 -0.7 63.0 -0.3 62.95 0.2 62.9 0.35 62.9 0.5 62.85 0.7 62.85 0.85 62.85 1.0 62.8 1.15 62.8 1.25 62.8 1.4 62.8 1.55 62.8 1.65 62.75 1.8 62.75 1.9 62.75 2.0 62.75 2.15 62.75 2.2 62.75 2.35 62.75 2.25 62.9 2.1 63.1 2.0 63.25 1.9 63.45 1.75 63.65 1.6 63.9 1.5 64.1 1.35 64.3 1.2 64.55 1.05 64.8 0.9 65.05 0.8 65.3 0.65 65.55 0.5 65.85 0.35 66.15 0.2 66.4 -0.1 66.95 -0.2 67.2 -0.45 67.6 -0.6 67.9 -0.75 68.25 -0.9 68.5 -1.05 68.85 -1.15 69.1 -1.3 69.4 -1.4 69.65 -1.5 69.9 -1.55 70.15 -1.65 70.4 -1.7 70.65 -1.75 70.9 -1.8 71.15 -1.85 71.45 -1.9 71.7 -1.9 71.95 -1.9 72.2 -1.9 72.4 -1.85 72.65 -1.85 72.9 -1.8 73.2 -1.75 73.4 -1.7 73.8 -1.6 74.3 -1.55 74.6 -1.45 75.1 -1.4 75.6 -1.3 76.2 -1.2 76.85 -1.2 76.95 -1.15 77.1 -1.15 77.3 -1.1 77.55 -1.1 77.85 -1.05 78.2 -1.0 78.6 -0.95 79.0 -0.9 79.5 -0.9 79.95 -0.85 80.5 -0.8 81.0 -0.8 81.6 -0.75 82.2 -0.75 82.8 -0.75 83.4 -0.75 84.15 -0.75 84.55 -0.75 85.1 -0.75 85.55 -0.75 86.05 -0.75 86.45 -0.75 86.85 -0.8 87.2 -0.85 87.6 -0.9 87.9 -0.95 88.25 -1.05 88.5 -1.1 88.8 -1.25 89.05 -1.35 89.3 -1.5 89.55 -1.75 89.9 -2.05 90.25 -2.3 90.55 -2.65 90.85 -2.95 91.05 -3.25 91.3 -3.55 91.5 -3.9 91.65 -4.15 91.8 -4.45 91.9 -4.7 92.0 -5.0 92.1 -5.2 92.2 -5.4 92.25 -5.5 92.25 -5.65 92.3 -6.1 92.4 -6.5 92.45 -6.9 92.5 -7.3 92.5 -7.7 92.5 -8.05 92.5 -8.4 92.45 -8.75 92.4 -9.05 92.35 -9.35 92.25 -9.6 92.2 -9.85 92.1 -10.05 92.05 -10.25 91.95 -10.4 91.9 -10.55 91.85 -10.7 91.8 -10.85 91.7 -11.0 91.65 -11.15 91.55 -11.3 91.45 -11.45 91.4 -11.6 91.3 -11.7 91.2 -11.85 91.15 -11.95 91.05 -12.05 91.0 -12.15 90.9 -12.25 90.85 -12.35 90.75 -12.45 90.7 -12.55 90.6 -12.5 90.8 -12.45 91.0 -12.4 91.2 -12.3 91.4 -12.25 91.65 -12.15 91.85 -12.1 92.1 -12.0 92.35 -11.9 92.6 -11.85 92.85 -11.75 93.1 -11.6 93.35 -11.5 93.6 -11.4 93.9 -11.3 94.15 -11.15 94.45 -10.95 94.85 -10.85 95.1 -10.65 95.5 -10.45 95.9 -10.2 96.35 -9.95 96.75 -9.7 97.25 -9.4 97.7 -9.05 98.2 -8.7 98.7 -8.3 99.25 -7.85 99.75 -7.4 100.25 -6.9 100.75 -6.35 101.3 -5.8 101.8 -5.55 102.0 -5.4 102.15 -5.15 102.35 -4.85 102.55 -4.55 102.8 -4.2 103.05 -3.8 103.3 -3.4 103.55 -2.95 103.8 -2.5 104.05 -2.0 104.35 -1.45 104.6 -0.9 104.85 -0.3 105.05 0.3 105.3 0.95 105.45 1.8 105.7 2.65 105.85 3.45 106.0 4.3 106.05 5.05 106.1 5.85 106.05 6.6 106.05 7.35 105.95 8.0 105.9 8.7 105.75 9.35 105.65 10.0 105.5 10.55 105.35 11.2 105.15 11.6 105.05 12.3 104.85 13.45 104.5 14.55 104.05 15.6 103.65 16.65 103.15 17.6 102.7 18.5 102.15 19.35 101.6 20.2 101.05 20.95 100.55 21.65 99.95 22.35 99.45 22.95 98.85 23.55 98.35 24.1 97.85 24.55 97.4 25.0 96.9 25.05 97.1 25.05 97.25 25.1 97.45 25.1 97.65 25.15 97.85 25.15 98.05 25.15 98.3 25.15 98.5 25.2 98.75 25.2 98.95 25.2 99.2 25.2 99.4 25.2 99.65 25.2 99.9 25.15 100.15 25.15 100.4 25.1 100.9 25.05 101.4 24.95 101.9 24.85 102.4 24.75 102.8 24.6 103.25 24.5 103.65 24.35 104.05 24.2 104.45 24.05 104.8 23.9 105.15 23.75 105.45 23.6 105.75 23.45 106.05 23.3 106.3 23.15 106.55 23.3 106.6 23.45 106.65 23.6 106.7 23.75 106.75 23.9 106.8 24.1 106.85 24.3 106.9 24.45 106.95 24.65 107.0 24.85 107.05 25.1 107.1 25.3 107.1 25.5 107.15 25.75 107.15 26.0 107.15 26.2 107.15 26.8 107.15 27.4 107.05 27.95 106.95 28.5 106.75 29.0 106.6 29.5 106.35 30.0 106.1 30.45 105.8 30.9 105.5 31.35 105.15 31.75 104.85 32.2 104.45 32.55 104.15 32.95 103.75 33.25 103.45 33.7 103.0 33.95 102.75 34.2 102.5 34.6 102.1 34.95 101.7 35.4 101.15 35.85 100.6 36.4 99.95 36.9 99.2 37.45 98.4 37.95 97.5 38.55 96.55 39.05 95.5 39.65 94.4 40.1 93.2 40.65 91.95 41.1 90.6 41.25 90.05 41.45 89.5 41.55 89.0 41.7 88.45 41.85 87.95 41.95 87.45 42.05 86.95 42.15 86.5 42.2 86.05 42.3 85.6 42.35 85.15 42.45 84.75 42.5 84.35 42.55 83.95 42.55 83.6 42.6 83.25 42.75 83.35 42.95 83.45 43.15 83.55 43.35 83.65 43.6 83.8 43.8 84.0 44.05 84.15 44.3 84.35 44.6 84.6 44.85 84.85 45.15 85.1 45.4 85.4 45.7 85.7 45.95 86.05 46.2 86.4 46.45 86.8 46.7 87.2 46.9 87.6 47.05 87.95 47.2 88.35 47.35 88.75 47.45 89.1 47.55 89.45 47.6 89.8 47.7 90.1 47.75 90.45 47.75 90.7 47.8 91.0 47.8 91.25 47.8 91.45 47.8 91.65 47.8 91.85 47.95 91.75 48.1 91.7 48.25 91.6 48.45 91.5 48.6 91.4 48.8 91.3 48.95 91.2 49.15 91.05 49.35 90.95 49.5 90.8 49.7 90.65 49.9 90.5 50.1 90.35 50.3 90.2 50.5 90.05 50.7 89.85 51.0 89.55 51.3 89.3 51.65 88.95 51.95 88.65 52.25 88.3 52.5 87.9 52.85 87.5 53.1 87.05 53.4 86.6 53.7 86.1 53.95 85.55 54.25 85.0 54.5 84.4 54.8 83.75 55.05 83.1 55.3 82.35 55.45 81.95 55.55 81.55 55.75 80.95 55.95 80.35 56.15 79.6 56.3 78.8 56.55 77.85 56.7 76.9 56.9 75.8 57.0 74.65 57.15 73.4 57.25 72.15 57.3 70.75 57.3 69.35 57.3 67.8 57.15 66.25 57.05 65.2 57.0 64.6 56.95 63.7 56.85 63.0 56.75 62.15 56.65 61.4 56.5 60.6 56.3 59.85 56.15 59.05 55.9 58.3 55.65 57.5 55.3 56.75 55.0 55.95 54.6 55.25 54.15 54.45 53.65 53.7 53.45 53.4 53.2 53.1 53.0 52.8 52.75 52.55 52.55 52.25 52.3 52.0 52.1 51.75 51.85 51.55 51.65 51.3 51.45 51.1 51.25 50.9 51.0 50.7 50.85 50.5 50.65 50.35 50.45 50.2 50.25 50.05 50.35 49.95 50.45 49.9 50.55 49.8 50.65 49.7 50.75 49.6 50.85 49.5 50.95 49.35 51.1 49.25 51.2 49.15 51.3 49.0 51.45 48.9 51.55 48.75 51.7 48.6 51.85 48.5 51.95 48.35 52.1 48.2 52.75 47.5 53.35 46.75 53.9 46.0 54.45 45.25 54.9 44.6 55.35 43.85 55.8 43.2 56.15 42.5 56.5 41.85 56.8 41.2 57.1 40.6 57.4 40.0 57.6 39.5 57.85 38.9 58.0 38.5 58.25 37.95 58.5 37.3 58.6 36.95 58.85 36.3 59.05 35.7 59.3 34.95 59.55 34.2 59.8 33.35 60.0 32.5 60.25 31.5 60.45 30.55 60.65 29.5 60.8 28.45 60.95 27.3 61.05 26.15 61.15 24.9 61.15 23.7 61.15 21.6 60.9 19.55 60.65 17.6 60.2 15.7 59.75 13.95 59.15 12.2 58.6 10.65 57.9 9.1 57.25 7.75 56.55 6.4 55.9 5.2 55.15 4.1 54.55 3.15 53.9 2.25 53.4 1.55 52.85 0.85 53.05 0.6 53.25 0.4 53.5 0.15 53.7 -0.15 53.95 -0.4 54.2 -0.7 54.45 -1.0 54.7 -1.3 54.95 -1.6 55.2 -1.95 55.5 -2.3 55.75 -2.65 56.05 -3.0 56.3 -3.4 56.6 -3.8 56.85 -4.2 57.2 -4.7 57.4 -5.0 57.75 -5.5 58.05 -6.0 58.4 -6.55 58.75 -7.1 59.15 -7.75 59.5 -8.4 59.9 -9.1 60.3 -9.8 60.7 -10.6 61.05 -11.35 61.4 -12.2 61.75 -13.0 62.1 -13.9 62.35 -14.75 62.7 -15.85 63.0 -17.0 63.25 -18.1 63.4 -19.15 63.55 -20.2 63.65 -21.25 63.75 -22.2 63.75 -23.2 63.75 -24.15 63.7 -25.1 63.7 -25.95 63.6 -26.9 63.55 -27.7 63.45 -28.6 63.4 -29.15 63.3 -30.25 63.2 -31.05 63.15 -31.6 63.0 -32.4 62.9 -33.2 62.75 -34.15 62.55 -35.05 62.35 -36.1 62.05 -37.1 61.75 -38.25 61.4 -39.35 61.0 -40.6 60.55 -41.75 60.05 -43.05 59.45 -44.3 58.8 -45.65 58.1 -46.9 57.65 -47.7 57.15 -48.45 56.7 -49.15 56.25 -49.85 55.75 -50.5 55.3 -51.15 54.8 -51.75 54.35 -52.35 53.9 -52.9 53.4 -53.45 53.0 -53.95 52.55 -54.45 52.1 -54.9 51.65 -55.35 51.3 -55.75 50.9 -56.1 51.15 -56.3 51.35 -56.45 51.6 -56.65 51.85 -56.85 52.15 -57.05 52.4 -57.25 52.7 -57.5 52.95 -57.7 53.25 -57.95 53.55 -58.2 53.85 -58.5 54.2 -58.75 54.5 -59.05 54.8 -59.35 55.15 -59.65 55.45 -59.95 55.95 -60.4 56.3 -60.75 56.85 -61.3 57.3 -61.75 57.9 -62.35 58.4 -62.95 59.05 -63.65 59.6 -64.3 60.2 -65.1 60.8 -65.85 61.45 -66.7 62.0 -67.6 62.6 -68.55 63.15 -69.5 63.7 -70.55 64.2 -71.6 64.95 -73.15 65.5 -74.8 66.0 -76.35 66.35 -77.9 66.65 -79.4 66.85 -80.9 67.05 -82.25 67.1 -83.65 67.15 -84.85 67.15 -86.1 67.1 -87.2 67.05 -88.3 66.95 -89.2 66.85 -90.1 66.75 -90.7 66.65 -91.5 66.45 -92.9 66.15 -94.3 65.85 -95.55 65.45 -96.85 65.1 -97.95 64.7 -99.1 64.35 -100.1 63.9 -101.05 63.55 -101.95 63.15 -102.75 62.8 -103.45 62.4 -104.1 62.15 -104.6 61.85 -105.1 61.65 -105.4 61.45 -105.75 60.95 -106.55 60.65 -107.0 60.1 -107.8 59.55 -108.55 58.85 -109.45 58.15 -110.3 57.3 -111.3 56.4 -112.2 55.45 -113.2 54.4 -114.05 53.2 -115.0 52.0 -115.8 50.65 -116.7 49.25 -117.35 47.75 -118.1 46.15 -118.6 45.25 -118.9 44.3 -119.1 43.45 -119.3 42.55 -119.4 41.7 -119.55 40.8 -119.6 39.95 -119.65 39.05 -119.65 38.25 -119.7 37.35 -119.65 36.55 -119.6 35.65 -119.55 34.9 -119.5 33.95 -119.4 33.35 -119.35 32.2 -119.2 31.55 -119.15 31.05 -119.1 30.45 -119.0 29.85 -118.95 29.2 -118.85 28.6 -118.75 27.9 -118.65 27.25 -118.5 26.55 -118.35 25.85 -118.2 25.1 -118.0 24.35 -117.75 23.55 -117.55 22.8 -117.25 21.95 -116.95 21.15 -116.6 20.55 -116.35 20.15 -116.15 19.55 -115.9 19.05 -115.65 18.4 -115.35 17.75 -115.0 17.05 -114.6 16.4 -114.2 15.65 -113.75 15.0 -113.25 14.2 -112.7 13.5 -112.1 12.75 -111.5 12.05 -110.8 11.3 -110.05 10.6 -109.25 10.1 -108.7 9.65 -108.1 9.2 -107.5 8.8 -106.9 8.45 -106.4 8.1 -105.8 7.8 -105.3 7.5 -104.7 7.25 -104.2 7.0 -103.7 6.75 -103.2 6.55 -102.7 6.35 -102.3 6.2 -101.8 6.05 -101.5 5.85 -101.0 5.25 -99.5 4.85 -98.0 4.4 -96.55 4.1 -95.1 3.85 -93.75 3.65 -92.3 3.5 -91.05 3.45 -89.7 3.35 -88.5 3.35 -87.25 3.35 -86.15 3.4 -85.0 3.45 -84.05 3.55 -83.0 3.6 -82.25 3.7 -81.25 3.8 -80.3 3.85 -79.8 3.95 -79.0 4.0 -78.35 4.1 -77.6 4.2 -76.9 4.35 -76.1 4.5 -75.4 4.65 -74.6 4.85 -73.85 5.05 -73.05 5.3 -72.3 5.55 -71.45 5.9 -70.65 6.2 -69.8 6.6 -69.0 7.05 -68.1 7.5 -67.2 8.0 -66.35 8.5 -65.55 9.0 -64.8 9.5 -64.1 10.0 -63.4 10.55 -62.75 11.0 -62.15 11.55 -61.55 12.0 -61.05 12.5 -60.5 12.95 -60.05 13.45 -59.65 13.85 -59.25 14.25 -58.85 13.95 -58.7 13.6 -58.55 13.3 -58.35 12.95 -58.15 12.6 -57.95 12.2 -57.75 11.85 -57.5 11.45 -57.25 11.05 -57.0 10.65 -56.75 10.25 -56.45 9.85 -56.15 9.4 -55.8 9.0 -55.45 8.55 -55.1 8.15 -54.75 7.95 -54.55 7.8 -54.4 7.5 -54.15 7.25 -53.85 6.85 -53.5 6.5 -53.1 6.05 -52.6 5.65 -52.1 5.15 -51.5 4.7 -50.9 4.2 -50.2 3.7 -49.5 3.2 -48.7 2.7 -47.85 2.2 -46.95 1.7 -46.0 1.1 -44.75 0.55 -43.45 0.1 -42.2 -0.3 -40.95 -0.65 -39.8 -0.9 -38.55 -1.15 -37.45 -1.35 -36.3 -1.5 -35.25 -1.6 -34.15 -1.7 -33.2 -1.75 -32.15 -1.8 -31.3 -1.8 -30.35 -1.8 -29.7 -1.8 -28.7 -1.8 -27.35 -1.8 -26.7 -1.8 -25.6 -1.75 -24.7 -1.75 -23.65 -1.65 -22.75 -1.6 -21.7 -1.45 -20.8 -1.3 -19.8 -1.1 -18.85 -0.85 -17.85 -0.55 -16.9 -0.2 -15.85 0.25 -14.9 0.7 -13.9 1.25 -12.9 1.65 -12.2 2.15 -11.5 2.55 -10.85 3.05 -10.25 3.5 -9.7 4.0 -9.15 4.45 -8.6 4.95 -8.1 5.45 -7.65 5.9 -7.25 6.35 -6.85 6.8 -6.45 7.25 -6.15 7.65 -5.8 8.05 -5.55 8.45 -5.25 8.25 -5.05 8.05 -4.9 7.85 -4.7 7.65 -4.5 7.45 -4.25 7.2 -4.05 7.0 -3.8 6.75 -3.55 6.5 -3.3 6.25 -3.05 6.0 -2.8 5.7 -2.5 5.45 -2.2 5.2 -1.9 4.9 -1.6 4.6 -1.3 3.9 -0.5 3.75 -0.3 3.2 0.35 2.7 0.9 2.15 1.65 1.6 2.3 1.0 3.1 0.4 3.9 -0.2 4.75 -0.8 5.6 -1.4 6.55 -1.95 7.5 -2.55 8.55 -3.1 9.55 -3.65 10.65 -4.1 11.75 -4.4 12.4 -4.6 12.95 -4.9 13.75 -5.2 14.5 -5.55 15.45 -5.8 16.4 -6.1 17.5 -6.35 18.6 -6.65 19.85 -6.8 21.05 -7.0 22.4 -7.05 23.75 -7.1 25.25 -7.05 26.7 -6.95 28.25 -6.7 29.8 -6.4 31.75 -5.8 33.6 -5.3 35.3 -4.55 37.0 -3.9 38.5 -3.05 40.0 -2.25 41.3 -1.35 42.55 -0.55 43.7 0.35 44.75 1.15 45.65 2.0 46.5 2.65 47.2 3.4 47.85 3.9 48.35 4.45 48.8 L4.45 48.8" fill="url(#gradient0)" fill-rule="evenodd" stroke="none"/>
  </g>
  <defs>
    <linearGradient gradientTransform="matrix(0.0, 0.1384, -0.1384, 0.0, 25.75, -6.25)" gradientUnits="userSpaceOnUse" id="gradient0" spreadMethod="pad" x1="-819.2" x2="819.2">
      <stop offset="0.0" stop-color="#fff23c" stop-opacity="0.0"/>
      <stop offset="0.3803921568627451" stop-color="#fff23c" stop-opacity="0.84705883"/>
      <stop offset="0.6039215686274509" stop-color="#fff23c" stop-opacity="0.8"/>
      <stop offset="1.0" stop-color="#fff23c" stop-opacity="0.0"/>
    </linearGradient>
  </defs>
</svg>
