<?xml version="1.0" encoding="UTF-8" standalone="no"?>
<svg xmlns:xlink="http://www.w3.org/1999/xlink" height="235.6px" width="197.75px" xmlns="http://www.w3.org/2000/svg">
  <g transform="matrix(1.0, 0.0, 0.0, 1.0, 98.9, 117.8)">
    <path d="M-49.2 96.55 Q-51.9 99.35 -54.85 102.4 -55.1 102.65 -55.35 102.85 -55.55 103.05 -55.8 103.2 -56.1 103.35 -56.35 103.5 -56.6 103.6 -56.9 103.65 -57.15 103.75 -57.45 103.8 -57.75 103.8 -58.05 103.8 -58.35 103.8 -58.65 103.75 -59.0 103.75 -59.35 103.65 -60.4 103.4 -61.4 103.1 -62.45 102.75 -63.4 102.35 -64.35 101.95 -65.3 101.5 -66.25 101.05 -67.15 100.5 -68.0 99.95 -68.85 99.35 -69.7 98.75 -70.55 98.1 -71.35 97.45 -72.15 96.75 -72.9 96.0 -73.65 95.25 -73.85 95.05 -74.0 94.85 -74.2 94.7 -74.35 94.5 -74.5 94.3 -74.65 94.1 -74.85 93.85 -75.0 93.65 -75.1 93.45 -75.25 93.25 -75.4 93.0 -75.55 92.8 -75.65 92.55 -75.8 92.35 -75.9 92.1 -76.0 91.9 -76.25 91.4 -76.35 90.95 -76.5 90.5 -76.5 90.1 -76.55 89.7 -76.5 89.35 -76.45 89.0 -76.35 88.7 -76.25 88.4 -76.05 88.1 -75.85 87.85 -75.65 87.6 -75.4 87.4 -75.15 87.2 -74.85 87.0 -74.55 86.85 -73.8 86.45 -73.1 86.0 -72.45 85.55 -71.8 85.0 -71.2 84.5 -70.6 83.9 -70.05 83.35 -69.5 82.75 -69.0 82.2 -68.45 81.5 -68.0 80.95 -67.5 80.25 -67.1 79.75 -66.55 78.95 -65.8 77.9 -65.6 77.6 -64.3 75.8 -63.05 73.95 -61.85 72.1 -60.75 70.2 -59.7 68.3 -58.65 66.3 -57.7 64.4 -56.75 62.35 -55.85 60.4 -55.0 58.35 -54.2 56.35 -53.45 54.2 -52.7 52.2 -52.0 50.05 -51.3 48.0 -50.65 45.85 -50.25 44.55 -49.9 43.25 -49.55 41.95 -49.2 40.65 -48.85 39.35 -48.55 38.05 -48.2 36.7 -47.9 35.4 -47.6 34.1 -47.35 32.8 -47.1 31.45 -46.85 30.15 -46.6 28.8 -46.4 27.5 -46.2 26.15 -46.05 24.8 -46.0 24.5 -45.8 23.0 -45.65 21.9 -45.6 21.2 -45.45 20.2 -45.35 19.35 -45.25 18.4 -45.2 17.55 -45.1 16.6 -45.05 15.7 -45.0 14.75 -45.0 13.85 -44.95 12.95 -45.0 12.05 -45.05 11.1 -45.1 10.2 -45.1 10.05 -45.1 9.9 -45.1 9.75 -45.1 9.6 -45.1 9.5 -45.05 9.3 -45.05 9.2 -45.0 9.05 -45.0 8.95 -44.95 8.75 -44.95 8.55 -44.9 8.45 -44.9 8.25 -44.9 8.15 -44.85 8.0 -44.85 7.85 -44.75 6.25 -44.75 4.55 -44.7 2.95 -44.75 1.25 -44.75 -0.3 -44.8 -2.05 -44.85 -3.6 -44.95 -5.35 -45.0 -6.85 -45.1 -8.65 -45.2 -9.9 -45.3 -11.9 -45.5 -14.85 -45.55 -15.2 -45.65 -17.1 -45.7 -18.5 -45.9 -21.85 -47.0 -34.5 -47.9 -44.4 -47.95 -50.55 -47.95 -51.75 -47.95 -52.9 -47.9 -54.1 -47.8 -55.25 -47.75 -56.45 -47.6 -57.6 -47.5 -58.8 -47.35 -59.95 -47.2 -61.1 -47.0 -62.3 -46.8 -63.45 -46.55 -64.6 -46.3 -65.75 -46.05 -66.9 -45.75 -68.05 -45.45 -69.2 -44.9 -71.3 -44.25 -73.3 -43.55 -75.35 -42.8 -77.35 -42.05 -79.3 -41.15 -81.25 -40.3 -83.15 -39.35 -85.05 -38.35 -86.9 -37.3 -88.75 -36.25 -90.55 -35.05 -92.3 -33.9 -94.1 -32.6 -95.8 -31.35 -97.55 -30.0 -99.2 -29.2 -100.15 -28.45 -101.05 -27.65 -101.95 -26.85 -102.8 -26.0 -103.65 -25.15 -104.45 -24.3 -105.3 -23.4 -106.05 -22.5 -106.85 -21.55 -107.55 -20.6 -108.3 -19.65 -108.95 -18.65 -109.65 -17.6 -110.2 -16.55 -110.85 -15.5 -111.35 -14.6 -111.8 -13.6 -112.2 -12.65 -112.6 -11.65 -113.0 -10.75 -113.35 -9.7 -113.65 -8.75 -113.95 -7.75 -114.25 -6.8 -114.5 -5.75 -114.8 -4.8 -115.0 -3.75 -115.25 -2.75 -115.45 -1.7 -115.65 -0.75 -115.85 0.35 -116.05 2.7 -116.5 5.05 -116.7 7.4 -116.9 9.7 -116.95 12.0 -116.95 14.3 -116.75 16.55 -116.55 18.75 -116.15 21.0 -115.75 23.2 -115.15 25.4 -114.55 27.55 -113.8 29.7 -113.0 31.85 -112.05 33.95 -111.1 36.1 -109.95 37.15 -109.4 38.2 -108.75 39.2 -108.1 40.2 -107.4 41.15 -106.7 42.1 -105.95 43.0 -105.25 43.95 -104.45 44.8 -103.65 45.7 -102.85 46.55 -102.0 47.4 -101.15 48.25 -100.3 49.05 -99.35 49.85 -98.5 50.65 -97.55 51.6 -96.4 52.5 -95.3 53.4 -94.15 54.25 -93.0 55.15 -91.8 55.95 -90.65 56.8 -89.45 57.55 -88.25 58.35 -87.05 59.1 -85.8 59.85 -84.55 60.55 -83.3 61.25 -82.0 61.85 -80.7 62.5 -79.4 63.1 -78.1 63.75 -76.6 64.35 -75.1 64.95 -73.6 65.5 -72.05 66.05 -70.55 66.6 -69.0 67.1 -67.5 67.6 -65.9 68.05 -64.4 68.55 -62.8 69.0 -61.25 69.4 -59.65 69.85 -58.15 70.25 -56.5 70.6 -55.0 71.0 -53.35 71.75 -50.2 72.45 -46.85 73.1 -43.7 73.65 -40.35 74.2 -37.15 74.7 -33.8 75.15 -30.65 75.6 -27.2 75.95 -24.1 76.35 -20.65 76.65 -17.6 77.0 -14.05 77.3 -11.2 77.65 -7.45 77.7 -6.7 78.25 -0.8 78.65 3.4 79.8 18.45 80.7 30.4 81.5 37.7 81.65 39.25 81.9 40.75 82.1 42.3 82.35 43.8 82.65 45.3 82.95 46.8 83.3 48.3 83.7 49.8 84.1 51.3 84.55 52.75 85.0 54.2 85.5 55.65 86.05 57.1 86.65 58.5 87.25 59.95 87.9 61.35 88.15 61.9 88.45 62.45 88.75 63.0 89.05 63.55 89.35 64.05 89.7 64.6 90.0 65.1 90.35 65.6 90.7 66.15 91.05 66.65 91.4 67.15 91.75 67.6 92.15 68.1 92.55 68.6 92.95 69.05 93.35 69.55 93.45 69.65 93.55 69.75 93.65 69.85 93.75 69.95 93.85 70.05 93.95 70.15 94.1 70.25 94.2 70.35 94.3 70.45 94.45 70.5 94.55 70.6 94.7 70.7 94.8 70.75 94.95 70.85 95.05 70.9 95.2 71.0 95.55 71.2 95.85 71.45 96.15 71.65 96.35 71.85 96.6 72.1 96.75 72.35 96.95 72.6 97.05 72.85 97.15 73.1 97.2 73.4 97.2 73.7 97.2 74.0 97.2 74.35 97.1 74.7 97.05 75.05 96.9 75.4 96.75 75.85 96.55 76.3 96.35 76.75 96.1 77.2 95.85 77.6 95.6 78.05 95.35 78.45 95.05 78.85 94.75 79.25 94.45 79.65 94.2 80.0 93.85 80.4 93.55 80.75 93.2 81.15 92.95 81.45 92.6 81.85 92.05 82.45 91.55 83.0 91.05 83.6 90.55 84.1 90.0 84.7 89.5 85.25 88.95 85.8 88.4 86.35 87.85 86.9 87.3 87.45 86.75 88.0 86.2 88.5 85.65 89.05 85.1 89.55 84.5 90.05 83.95 90.55 77.6 96.0 73.4 98.75 72.05 99.6 70.65 100.45 69.3 101.25 67.9 101.95 66.5 102.7 65.0 103.35 63.6 104.0 62.1 104.65 60.7 105.2 59.15 105.8 57.7 106.35 56.15 106.85 54.7 107.35 53.1 107.8 51.65 108.25 50.05 108.75 49.6 108.9 49.15 109.0 48.7 109.1 48.3 109.2 47.8 109.35 47.4 109.45 46.95 109.55 46.5 109.65 46.05 109.7 45.6 109.8 45.15 109.9 44.7 109.95 44.25 110.05 43.8 110.1 43.3 110.15 42.85 110.2 41.7 110.3 41.45 110.3 41.05 110.25 40.7 110.2 40.3 110.15 39.95 110.05 39.6 109.95 39.3 109.8 38.95 109.65 38.7 109.5 38.4 109.3 38.15 109.05 37.9 108.8 37.7 108.55 37.5 108.25 37.4 107.85 37.25 107.5 37.15 107.05 37.15 107.0 36.7 106.05 36.7 106.05 36.55 106.0 36.55 106.0 36.5 106.05 36.45 106.1 36.4 106.1 36.4 106.15 36.4 106.15 36.4 106.65 36.3 107.1 36.2 107.55 36.05 107.95 35.9 108.3 35.65 108.65 35.45 108.95 35.15 109.25 34.9 109.55 34.55 109.8 34.25 110.0 33.85 110.25 33.5 110.45 33.1 110.6 32.7 110.8 32.25 110.95 30.45 111.6 28.55 112.15 26.75 112.7 24.85 113.15 23.0 113.65 21.1 114.05 19.25 114.45 17.35 114.8 15.45 115.15 13.55 115.4 11.65 115.7 9.75 115.9 7.85 116.1 5.9 116.25 4.0 116.4 2.05 116.5 -0.35 116.6 -2.75 116.65 -5.1 116.7 -7.5 116.65 -9.9 116.6 -12.25 116.45 -14.6 116.3 -16.95 116.1 -19.35 115.9 -21.7 115.55 -24.05 115.25 -26.35 114.85 -28.7 114.45 -31.05 114.0 -33.4 113.5 -35.7 112.9 -36.7 112.65 -37.55 112.45 -38.55 112.15 -39.45 111.9 -40.4 111.65 -41.25 111.35 -42.2 111.05 -43.1 110.75 -44.05 110.4 -44.9 110.05 -45.8 109.65 -46.65 109.25 -47.55 108.85 -48.4 108.4 -49.25 107.9 -50.05 107.4 -50.35 107.25 -50.55 107.0 -50.8 106.8 -50.95 106.55 -51.15 106.3 -51.25 106.05 -51.4 105.8 -51.45 105.55 -51.5 105.25 -51.5 104.95 -51.45 104.7 -51.4 104.4 -51.35 104.15 -51.2 103.85 -51.05 103.6 -50.85 103.35 -50.6 103.0 -50.35 102.65 -50.15 102.3 -49.95 101.9 -49.8 101.55 -49.65 101.15 -49.5 100.75 -49.4 100.35 -49.3 99.95 -49.2 99.55 -49.15 99.2 -49.1 98.75 -49.05 98.4 -48.95 97.9 -48.85 96.9 -48.85 97.1 -48.85 97.05 -48.8 97.0 -48.75 96.95 -48.75 96.9 -48.7 96.85 -48.65 96.8 -48.65 96.7 -48.65 96.65 -48.6 96.6 -48.6 96.55 -48.6 96.5 -48.6 96.45 -48.6 96.4 -48.65 96.35 -48.65 96.3 -48.7 96.25 -48.75 96.2 -48.8 96.2 -48.85 96.15 -48.9 96.15 -48.9 96.15 -48.95 96.2 -49.0 96.2 -49.0 96.25 -49.05 96.25 -49.05 96.3 -49.1 96.35 -49.15 96.4 -49.1 96.35 -49.2 96.5 -49.2 96.55 -49.2 96.55 L-49.2 96.55 M77.0 90.6 Q77.35 90.4 77.7 90.2 78.0 90.0 78.35 89.75 78.65 89.5 78.95 89.25 79.25 89.05 79.55 88.75 79.85 88.5 80.1 88.25 80.4 88.0 80.7 87.7 80.95 87.45 81.25 87.15 81.45 86.9 81.8 86.6 82.2 86.3 82.65 85.95 83.0 85.65 83.4 85.3 83.75 84.95 84.15 84.55 84.5 84.25 84.9 83.85 85.2 83.55 85.6 83.1 86.7 81.9 86.3 82.35 86.7 81.9 87.0 81.6 87.4 81.2 87.75 80.85 88.05 80.55 88.35 80.2 88.65 79.9 88.95 79.6 89.25 79.25 89.55 78.9 89.8 78.6 90.1 78.25 90.35 77.9 90.65 77.55 90.9 77.2 91.15 76.85 91.4 76.5 91.65 76.1 91.9 75.75 92.15 75.4 92.2 75.35 92.25 75.25 92.1 75.45 92.35 75.1 92.45 75.0 92.5 74.95 92.55 74.9 92.55 74.8 92.6 74.75 92.6 74.65 92.6 74.55 92.6 74.45 92.55 74.4 92.45 74.3 92.4 74.2 92.25 74.05 91.3 73.3 90.45 72.45 89.65 71.6 88.85 70.7 88.1 69.85 87.4 68.85 86.75 67.95 86.15 66.95 85.55 65.95 85.0 64.9 84.45 63.9 83.95 62.8 83.45 61.75 83.0 60.65 82.6 59.6 82.15 58.45 81.6 56.95 81.15 55.45 80.65 53.95 80.2 52.45 79.75 50.9 79.35 49.4 78.95 47.9 78.6 46.35 78.3 44.8 78.0 43.25 77.7 41.7 77.45 40.15 77.2 38.6 77.05 37.05 76.85 35.45 76.7 33.9 65.95 -101.3 74.75 9.05 73.6 -5.4 72.55 -15.8 72.3 -18.45 72.0 -20.85 71.75 -23.45 71.45 -25.9 71.1 -28.45 70.8 -30.9 70.4 -33.45 70.05 -35.9 69.65 -38.45 69.2 -40.9 68.75 -43.45 68.3 -45.9 67.8 -48.4 67.25 -50.85 66.7 -53.35 66.1 -55.8 65.5 -58.1 64.95 -60.2 64.3 -62.45 63.65 -64.55 63.0 -66.75 62.25 -68.8 61.5 -71.0 60.65 -73.0 59.8 -75.15 58.9 -77.15 57.9 -79.2 56.85 -81.15 55.8 -83.2 54.6 -85.1 53.35 -87.05 52.05 -88.9 51.15 -90.1 50.4 -91.15 49.5 -92.3 48.7 -93.3 47.8 -94.45 46.95 -95.45 46.0 -96.5 45.1 -97.45 44.15 -98.5 43.2 -99.45 42.2 -100.4 41.15 -101.25 40.1 -102.2 39.0 -103.0 37.9 -103.85 36.7 -104.55 34.4 -106.0 32.0 -107.2 29.65 -108.4 27.25 -109.35 24.85 -110.25 22.4 -110.95 19.95 -111.6 17.45 -112.0 15.0 -112.4 12.45 -112.5 9.9 -112.65 7.3 -112.55 4.75 -112.4 2.1 -112.05 -0.55 -111.7 -3.2 -111.1 -4.7 -110.75 -6.05 -110.35 -7.5 -109.95 -8.85 -109.5 -10.25 -109.0 -11.55 -108.45 -12.85 -107.9 -14.1 -107.25 -15.4 -106.6 -16.6 -105.85 -17.8 -105.1 -18.95 -104.25 -20.1 -103.4 -21.2 -102.45 -22.25 -101.45 -23.3 -100.4 -26.05 -97.45 -28.45 -94.35 -30.8 -91.25 -32.85 -88.05 -34.85 -84.8 -36.5 -81.45 -38.15 -78.1 -39.4 -74.6 -40.65 -71.1 -41.55 -67.45 -42.45 -63.85 -42.95 -60.05 -43.5 -56.3 -43.6 -52.4 -43.75 -48.45 -43.45 -44.45 -43.15 -39.45 -42.1 -27.05 -41.15 -16.0 -40.85 -9.7 -40.7 -6.25 -40.6 -3.05 -40.5 0.4 -40.55 3.65 -40.55 7.05 -40.65 10.25 -40.8 13.65 -41.05 16.85 -41.3 20.25 -41.65 23.45 -42.05 26.8 -42.6 30.0 -43.15 33.35 -43.85 36.55 -44.6 39.85 -45.5 43.05 -46.3 45.85 -47.1 48.5 -47.95 51.25 -48.9 53.8 -49.85 56.5 -50.85 59.05 -51.9 61.7 -53.05 64.2 -54.2 66.8 -55.5 69.2 -56.8 71.75 -58.2 74.1 -59.7 76.55 -61.25 78.85 -62.9 81.2 -64.65 83.4 -65.05 83.9 -65.35 84.3 -65.75 84.8 -66.1 85.2 -66.5 85.7 -66.85 86.1 -67.25 86.55 -67.65 86.9 -68.05 87.35 -68.5 87.7 -68.95 88.1 -69.35 88.45 -69.85 88.8 -70.3 89.15 -70.8 89.45 -71.3 89.75 -71.45 89.85 -71.6 89.9 -71.7 90.0 -71.75 90.05 -71.85 90.15 -71.9 90.25 -71.95 90.3 -71.95 90.4 -71.95 90.5 -71.9 90.55 -71.9 90.65 -71.85 90.75 -71.8 90.85 -71.7 90.95 -71.65 91.05 -71.55 91.15 -70.9 91.9 -70.25 92.6 -69.6 93.3 -68.9 93.95 -68.2 94.6 -67.45 95.2 -66.7 95.8 -65.95 96.3 -65.15 96.85 -64.35 97.3 -63.5 97.75 -62.65 98.15 -61.75 98.55 -60.85 98.85 -59.9 99.15 -58.95 99.4 -58.85 99.45 -58.75 99.45 -58.65 99.45 -58.55 99.5 -58.45 99.5 -58.35 99.5 -58.2 99.5 -58.15 99.5 -58.0 99.45 -57.95 99.45 -57.85 99.4 -57.75 99.35 -57.65 99.3 -57.55 99.25 -57.45 99.15 -57.35 99.05 -50.05 91.15 -47.4 87.45 -47.25 87.35 -47.1 87.2 -46.95 87.1 -46.8 86.95 -46.7 86.8 -46.6 86.65 -46.5 86.5 -46.4 86.35 -46.4 86.4 -46.2 86.0 -46.1 85.8 -46.0 85.7 -45.9 85.5 -45.75 85.4 -45.65 85.25 -45.5 85.1 -45.3 85.05 -45.1 85.05 -44.9 85.05 -44.7 85.05 -44.55 85.05 -44.35 85.1 -44.2 85.15 -44.05 85.25 -43.9 85.3 -43.8 85.45 -43.65 85.55 -43.55 85.7 -43.45 85.85 -43.35 86.0 -43.25 86.2 -43.2 86.45 -43.3 86.7 -43.35 86.95 -43.45 87.2 -43.5 87.45 -43.55 87.65 -43.55 87.95 -43.6 88.15 -43.6 88.45 -43.6 88.65 -43.6 88.95 -43.6 89.15 -43.6 89.45 -43.6 89.8 -43.6 90.0 -43.6 90.25 -43.6 90.5 -43.65 91.3 -43.7 92.1 -43.75 92.9 -43.85 93.7 -43.9 94.5 -44.0 95.25 -44.15 96.1 -44.25 96.85 -44.4 97.65 -44.6 98.4 -44.75 99.2 -44.95 99.95 -45.15 100.75 -45.4 101.5 -45.65 102.25 -45.95 103.0 -46.05 103.3 -46.15 103.55 -46.2 103.8 -46.2 104.05 -46.2 104.25 -46.2 104.4 -46.15 104.55 -46.1 104.7 -46.0 104.85 -45.9 104.95 -45.75 105.05 -45.6 105.15 -45.45 105.25 -45.25 105.35 -45.05 105.45 -44.8 105.55 -42.6 106.45 -40.3 107.2 -38.1 107.95 -35.8 108.55 -33.55 109.2 -31.2 109.7 -28.95 110.2 -26.6 110.6 -24.3 111.0 -21.95 111.3 -19.65 111.55 -17.25 111.75 -14.95 111.95 -12.55 112.1 -10.25 112.2 -7.8 112.3 -6.75 112.3 -4.6 112.3 -3.75 112.35 -2.85 112.35 -1.95 112.35 -1.1 112.35 -0.2 112.35 0.7 112.3 1.55 112.3 2.45 112.25 3.3 112.2 4.2 112.1 5.05 112.05 5.95 112.0 6.8 111.9 7.7 111.8 8.55 111.75 9.45 111.65 10.8 111.5 12.1 111.3 13.45 111.15 14.75 110.95 16.1 110.7 17.4 110.5 18.75 110.25 20.05 109.95 21.4 109.7 22.65 109.4 24.0 109.05 25.25 108.7 26.6 108.35 27.85 107.95 29.15 107.55 30.4 107.1 30.65 107.0 30.8 106.95 31.0 106.85 31.2 106.75 31.35 106.65 31.5 106.55 31.65 106.4 31.75 106.3 31.85 106.15 31.95 106.0 32.0 105.8 32.1 105.65 32.15 105.45 32.2 105.2 32.2 105.0 32.25 104.75 32.4 102.9 33.55 91.6 33.75 91.4 33.95 91.3 34.15 91.15 34.35 91.1 34.55 91.0 34.75 91.0 34.9 91.0 35.1 91.0 35.3 91.05 35.45 91.1 35.6 91.2 35.8 91.3 35.95 91.45 36.1 91.6 36.25 91.75 36.45 91.95 37.05 94.4 38.3 97.85 41.3 106.1 40.45 103.7 40.65 104.25 40.75 104.5 40.9 104.9 41.0 105.15 41.1 105.4 41.25 105.55 41.4 105.75 41.55 105.8 41.7 105.9 41.9 105.95 42.1 106.0 42.4 105.95 42.65 105.95 43.1 105.9 43.3 105.85 43.95 105.8 44.0 105.8 44.0 105.75 44.05 105.75 44.1 105.75 44.15 105.75 44.15 105.75 44.2 105.7 44.25 105.7 45.8 105.4 47.3 105.05 48.85 104.65 50.35 104.25 51.85 103.85 53.35 103.35 54.8 102.9 56.3 102.4 57.75 101.85 59.2 101.25 60.65 100.7 62.05 100.05 63.5 99.4 64.9 98.75 66.3 98.05 67.7 97.3 68.2 97.05 68.6 96.8 69.1 96.5 69.5 96.25 70.0 96.0 70.4 95.7 70.85 95.4 71.3 95.15 71.75 94.85 72.15 94.5 72.6 94.2 73.0 93.9 73.4 93.55 73.8 93.2 74.2 92.85 74.6 92.5 74.8 92.4 74.95 92.3 75.1 92.25 75.3 92.15 75.45 92.05 75.6 91.9 75.75 91.8 75.9 91.7 76.05 91.6 76.2 91.45 76.35 91.3 76.5 91.2 76.65 91.05 76.75 90.9 76.9 90.75 77.0 90.6 L77.0 90.6" fill="#040404" fill-rule="evenodd" stroke="none"/>
    <path d="M81.8 86.6 Q81.45 86.95 81.25 87.15 80.95 87.45 80.7 87.7 80.4 88.0 80.15 88.25 79.85 88.5 79.55 88.75 79.25 89.05 78.95 89.25 78.65 89.5 78.35 89.75 78.0 89.95 77.7 90.2 77.35 90.4 77.0 90.6 76.7 90.35 76.4 90.1 76.1 89.8 75.8 89.55 75.55 89.25 75.25 88.95 75.0 88.65 74.75 88.35 74.55 88.05 74.25 87.7 74.1 87.5 73.75 87.1 73.4 86.65 73.25 86.45 73.0 86.1 72.8 85.85 71.9 84.8 71.15 83.8 70.3 82.7 69.6 81.7 68.8 80.6 68.1 79.55 67.4 78.45 66.8 77.35 66.15 76.2 65.6 75.05 65.0 73.85 64.55 72.65 64.05 71.4 63.7 70.2 63.3 68.9 63.05 67.6 62.9 66.85 62.75 66.1 62.6 65.35 62.45 64.6 62.35 63.8 62.2 63.05 62.05 62.3 61.95 61.55 61.85 60.8 61.75 60.05 61.6 59.3 61.55 58.55 61.45 57.75 61.35 57.0 61.25 56.25 61.2 55.45 59.85 39.9 60.25 44.9 59.75 38.8 59.7 34.35 59.7 33.55 59.7 32.8 59.7 32.0 59.7 31.25 59.7 30.45 59.7 29.65 59.7 28.9 59.7 28.1 59.75 27.35 59.75 26.55 59.8 25.8 59.8 25.0 59.85 24.25 59.9 23.45 59.95 22.65 59.95 21.9 59.95 21.7 59.95 21.5 59.95 21.3 59.9 21.1 59.9 20.95 59.8 20.8 59.75 20.6 59.65 20.5 59.6 20.35 59.45 20.25 59.35 20.15 59.2 20.05 59.05 20.0 58.85 19.95 58.65 19.9 58.45 19.9 58.2 19.9 58.0 19.95 57.85 19.95 57.65 20.05 57.5 20.1 57.4 20.2 57.25 20.3 57.15 20.45 57.05 20.6 57.0 20.75 56.95 20.9 56.9 21.1 56.85 21.25 56.85 21.45 56.85 21.65 56.85 21.85 56.9 24.1 56.75 29.2 56.55 33.9 56.7 36.55 56.8 38.05 56.9 39.55 56.95 41.05 57.05 42.55 57.2 44.05 57.3 45.55 57.4 47.05 57.55 48.55 57.65 50.0 57.8 51.55 57.95 53.0 58.1 54.5 58.2 56.0 58.4 57.5 58.55 59.0 58.7 60.5 58.9 62.2 59.15 63.8 59.4 65.45 59.75 67.0 60.1 68.6 60.55 70.15 61.0 71.75 61.55 73.2 62.15 74.75 62.8 76.2 63.45 77.7 64.25 79.1 65.05 80.55 65.95 81.9 66.9 83.3 67.9 84.6 68.25 85.05 68.7 85.6 68.95 85.95 69.5 86.65 70.0 87.3 70.3 87.65 70.75 88.2 71.1 88.65 71.5 89.2 71.9 89.65 72.35 90.2 72.75 90.65 73.2 91.15 73.65 91.6 74.1 92.05 74.6 92.5 74.2 92.85 73.8 93.2 73.4 93.55 73.0 93.9 72.6 94.2 72.15 94.55 71.75 94.85 71.3 95.15 70.85 95.4 70.4 95.7 70.0 96.0 69.5 96.25 69.1 96.5 68.6 96.8 68.15 97.05 67.7 97.3 66.3 98.05 64.9 98.75 63.5 99.4 62.05 100.05 60.65 100.7 59.2 101.25 57.75 101.85 56.3 102.4 54.8 102.9 53.35 103.35 51.85 103.85 50.35 104.25 48.85 104.7 47.3 105.05 45.8 105.4 44.25 105.7 44.2 105.7 44.15 105.7 44.15 105.75 44.1 105.75 44.05 105.75 44.0 105.75 44.0 105.75 43.95 105.8 43.35 105.9 43.1 105.9 42.7 105.95 42.4 106.0 42.15 106.0 41.9 105.95 41.7 105.9 41.55 105.8 41.4 105.75 41.25 105.55 41.1 105.4 41.0 105.15 40.85 104.9 40.75 104.5 40.65 104.25 40.45 103.7 41.3 106.1 38.3 97.9 37.05 94.45 36.45 91.95 36.5 91.8 36.55 91.65 36.6 91.5 36.65 91.35 36.65 91.2 36.65 91.0 36.65 90.9 36.65 90.7 36.65 90.55 36.65 90.4 36.65 90.25 36.65 90.1 36.6 89.7 36.6 89.75 36.6 89.6 36.6 89.45 36.5 87.45 36.0 77.6 35.6 70.35 35.4 65.75 35.4 65.5 35.35 65.3 35.35 65.1 35.3 64.9 35.25 64.65 35.2 64.5 35.15 64.3 35.05 64.15 34.95 64.0 34.85 63.85 34.75 63.75 34.55 63.65 34.4 63.55 34.2 63.5 34.0 63.45 33.75 63.45 33.5 63.45 33.3 63.5 33.1 63.55 32.95 63.65 32.8 63.75 32.65 63.9 32.55 64.05 32.45 64.2 32.35 64.35 32.3 64.55 32.25 64.75 32.25 64.95 32.2 65.15 32.2 65.35 32.2 65.55 32.25 65.8 32.25 66.55 32.25 66.6 32.7 73.3 32.8 75.8 33.0 79.15 33.55 91.6 32.25 104.45 32.25 104.75 32.25 105.0 32.2 105.2 32.15 105.45 32.1 105.65 32.0 105.8 31.95 106.0 31.85 106.15 31.75 106.3 31.65 106.45 31.5 106.55 31.35 106.65 31.2 106.75 31.05 106.85 30.85 106.95 30.65 107.05 30.4 107.1 29.15 107.55 27.85 107.95 26.55 108.35 25.25 108.7 24.0 109.05 22.65 109.4 21.4 109.7 20.05 109.95 18.75 110.25 17.4 110.5 16.1 110.7 14.75 110.9 13.45 111.1 12.1 111.3 10.8 111.5 9.45 111.65 8.55 111.75 7.7 111.85 6.8 111.9 5.95 112.0 5.05 112.05 4.2 112.15 3.3 112.2 2.45 112.25 1.55 112.3 0.7 112.3 -0.2 112.35 -1.1 112.35 -1.95 112.35 -2.85 112.35 -3.75 112.3 -4.6 112.3 -4.55 108.65 -4.4 102.65 -4.3 95.25 -4.25 93.0 -4.25 92.9 -4.2 92.6 -4.15 92.35 -4.15 92.2 -3.5 76.4 -3.35 73.55 -3.35 73.35 -3.35 73.2 -3.4 73.0 -3.45 72.85 -3.5 72.65 -3.55 72.55 -3.6 72.4 -3.7 72.25 -3.8 72.15 -3.95 72.05 -4.05 71.95 -4.2 71.9 -4.35 71.8 -4.55 71.75 -4.7 71.75 -4.9 71.75 -5.1 71.75 -5.3 71.8 -5.45 71.8 -5.6 71.9 -5.75 71.95 -5.85 72.05 -6.0 72.15 -6.1 72.25 -6.2 72.4 -6.25 72.55 -6.35 72.65 -6.4 72.85 -6.45 73.0 -6.45 73.2 -6.5 73.35 -6.5 73.55 -6.5 74.65 -6.6 76.35 -6.75 78.75 -6.75 79.15 -6.85 81.5 -7.45 101.9 -7.6 105.95 -7.8 112.3 -10.25 112.25 -12.55 112.1 -14.95 112.0 -17.25 111.8 -19.65 111.55 -21.95 111.3 -24.3 111.0 -26.6 110.6 -28.95 110.2 -31.2 109.7 -33.55 109.2 -35.8 108.55 -38.1 107.95 -40.3 107.2 -42.6 106.4 -44.8 105.55 -45.05 105.45 -45.25 105.35 -45.45 105.25 -45.6 105.15 -45.75 105.05 -45.9 104.95 -46.0 104.85 -46.1 104.7 -46.15 104.55 -46.2 104.4 -46.2 104.2 -46.2 104.0 -46.2 103.8 -46.1 103.55 -46.05 103.3 -45.95 103.0 -45.65 102.25 -45.4 101.5 -45.2 100.75 -44.95 99.95 -44.75 99.2 -44.6 98.4 -44.4 97.65 -44.3 96.85 -44.15 96.1 -44.05 95.25 -43.9 94.5 -43.85 93.7 -43.75 92.9 -43.7 92.1 -43.65 91.3 -43.6 90.5 -43.6 90.25 -43.6 90.0 -43.6 89.85 -43.6 89.45 -43.6 89.15 -43.6 88.95 -43.6 88.65 -43.6 88.45 -43.6 88.15 -43.55 87.95 -43.55 87.65 -43.5 87.45 -43.45 87.15 -43.35 86.9 -43.3 86.65 -43.2 86.45 -43.1 86.45 -43.0 86.4 -42.9 86.35 -42.85 86.3 -42.75 86.25 -42.7 86.15 -42.65 86.1 -42.65 86.0 -42.6 85.95 -42.55 85.85 -42.55 85.8 -42.5 85.7 -42.45 85.55 -42.45 85.5 -42.4 85.4 -42.4 85.35 -41.25 82.5 -40.1 79.55 -39.05 76.65 -38.0 73.65 -37.0 70.8 -36.0 67.75 -35.1 64.85 -34.2 61.8 -33.35 58.9 -32.5 55.8 -31.65 52.9 -30.85 49.8 -30.1 46.9 -29.35 43.75 -28.6 40.9 -27.85 37.7 -27.8 37.5 -27.8 37.3 -27.75 37.1 -27.75 36.95 -27.75 36.75 -27.8 36.6 -27.85 36.45 -27.9 36.35 -27.95 36.2 -28.05 36.1 -28.15 35.95 -28.3 35.9 -28.4 35.8 -28.55 35.7 -28.75 35.65 -28.9 35.6 -29.1 35.55 -29.25 35.55 -29.45 35.5 -29.6 35.55 -29.75 35.55 -29.9 35.6 -30.0 35.65 -30.15 35.75 -30.25 35.85 -30.35 35.95 -30.45 36.05 -30.55 36.2 -30.6 36.35 -30.7 36.5 -30.75 36.65 -30.8 36.85 -30.85 37.0 -31.75 40.7 -34.65 52.15 -35.6 55.65 -37.9 64.1 -40.15 70.45 -40.65 71.95 -45.5 85.1 -45.65 85.2 -45.75 85.4 -45.85 85.5 -46.0 85.7 -46.05 85.8 -46.2 86.0 -46.5 86.5 -46.4 86.35 -46.5 86.5 -46.6 86.65 -46.7 86.8 -46.8 86.95 -46.95 87.1 -47.05 87.2 -47.2 87.35 -47.4 87.45 -47.4 87.35 -47.45 87.3 -47.45 87.2 -47.45 87.15 -47.45 87.05 -47.45 86.95 -47.4 86.9 -47.4 86.8 -47.4 86.75 -47.4 86.65 -47.35 86.6 -47.35 86.5 -47.3 86.45 -47.3 86.35 -47.15 85.9 -47.25 86.2 -38.8 55.95 -35.45 40.9 -35.15 39.7 -34.9 38.45 -34.65 37.25 -34.4 36.05 -34.2 34.8 -33.95 33.6 -33.75 32.35 -33.5 31.15 -33.3 29.9 -33.1 28.7 -32.95 27.45 -32.75 26.25 -32.6 25.0 -32.45 23.8 -32.3 22.55 -32.15 21.3 -32.05 20.35 -31.95 19.4 -31.9 18.45 -31.8 17.5 -31.7 16.55 -31.65 15.6 -31.6 14.65 -31.5 13.7 -31.45 12.75 -31.4 11.8 -31.35 10.85 -31.3 9.9 -31.3 8.9 -31.25 8.0 -31.25 7.0 -31.2 6.05 -31.15 0.45 -30.8 -8.35 -30.35 -20.3 -30.25 -22.75 -30.2 -24.55 -30.1 -36.55 -30.0 -44.95 -29.6 -50.35 -29.55 -51.15 -29.5 -51.85 -29.4 -52.65 -29.35 -53.35 -29.25 -54.1 -29.2 -54.8 -29.1 -55.6 -29.0 -56.3 -28.9 -57.05 -28.8 -57.8 -28.7 -58.55 -28.55 -59.25 -28.4 -60.0 -28.25 -60.7 -28.1 -61.45 -27.95 -62.15 -27.65 -63.45 -27.3 -64.65 -26.9 -65.9 -26.5 -67.1 -26.1 -68.3 -25.6 -69.45 -25.1 -70.65 -24.6 -71.75 -24.0 -72.95 -23.4 -74.0 -22.75 -75.15 -22.05 -76.15 -21.35 -77.25 -20.55 -78.25 -19.75 -79.25 -18.85 -80.2 -17.95 -81.15 -16.95 -82.05 -16.0 -82.9 -14.95 -83.7 -13.95 -84.5 -12.85 -85.2 -11.8 -85.85 -10.7 -86.5 -9.55 -87.1 -8.4 -87.65 -7.25 -88.15 -6.0 -88.6 -4.8 -89.1 -3.55 -89.45 -2.35 -89.85 -1.05 -90.2 0.65 -90.65 2.4 -91.0 4.15 -91.35 5.9 -91.6 7.6 -91.85 9.4 -92.1 11.1 -92.25 12.9 -92.4 14.6 -92.55 16.4 -92.6 18.1 -92.7 19.9 -92.7 21.65 -92.75 23.45 -92.75 25.15 -92.7 26.95 -92.65 27.85 -92.65 28.75 -92.55 29.6 -92.4 30.45 -92.25 31.3 -92.05 32.15 -91.8 32.95 -91.5 33.75 -91.15 34.55 -90.85 35.3 -90.4 36.05 -90.0 36.75 -89.5 37.5 -89.0 38.2 -88.4 38.85 -87.85 39.5 -87.2 40.2 -86.5 40.85 -85.8 41.45 -85.1 42.05 -84.3 42.65 -83.6 43.2 -82.8 43.75 -82.0 44.3 -81.2 44.8 -80.45 45.3 -79.6 45.8 -78.8 46.3 -77.95 46.75 -77.15 47.25 -76.25 47.65 -75.55 48.15 -74.6 52.3 -66.75 57.6 -53.15 58.35 -51.25 59.0 -49.3 59.65 -47.35 60.25 -45.4 60.85 -43.45 61.35 -41.5 61.9 -39.55 62.3 -37.55 62.75 -35.55 63.15 -33.55 63.5 -31.55 63.85 -29.55 64.15 -27.55 64.4 -25.5 64.6 -23.5 64.8 -21.45 64.9 -20.4 65.25 -15.15 65.55 -11.35 65.85 -8.9 66.55 -3.1 67.3 12.7 67.45 15.65 67.65 20.25 67.9 26.75 67.95 27.8 68.1 31.3 68.55 36.55 69.2 44.65 69.25 45.25 70.15 57.45 71.55 66.1 71.75 67.15 71.95 68.2 72.15 69.25 72.4 70.2 72.65 71.25 73.0 72.2 73.3 73.25 73.65 74.2 74.05 75.15 74.5 76.1 74.9 77.05 75.45 77.95 75.95 78.85 76.55 79.7 77.15 80.6 77.8 81.45 78.05 81.75 78.3 82.05 78.55 82.35 78.85 82.7 75.95 79.5 79.4 83.3 79.75 83.65 79.95 83.9 80.25 84.2 80.5 84.5 80.75 84.85 80.95 85.15 81.2 85.5 81.4 85.85 81.6 86.2 81.8 86.6 L81.8 86.6" fill="#000000" fill-opacity="0.2509804" fill-rule="evenodd" stroke="none"/>
    <path d="M74.6 92.5 Q74.15 92.05 73.65 91.6 73.2 91.15 72.75 90.65 72.35 90.2 71.9 89.65 71.55 89.2 71.1 88.65 70.75 88.2 70.3 87.65 70.0 87.3 69.5 86.65 68.95 85.9 68.7 85.6 68.25 85.05 67.9 84.6 66.85 83.3 65.95 81.9 65.05 80.55 64.25 79.1 63.45 77.7 62.8 76.2 62.15 74.75 61.55 73.25 61.0 71.75 60.55 70.15 60.1 68.65 59.75 67.0 59.4 65.45 59.15 63.8 58.9 62.2 58.7 60.5 58.55 59.0 58.4 57.5 58.2 56.0 58.1 54.5 57.95 53.0 57.8 51.5 57.65 50.0 57.55 48.55 57.4 47.0 57.3 45.55 57.2 44.05 57.1 42.55 56.95 41.05 56.9 39.55 56.8 38.0 56.7 36.55 56.55 33.95 56.75 29.2 56.9 24.15 56.85 21.85 56.85 21.65 56.85 21.45 56.85 21.25 56.9 21.1 56.95 20.9 57.0 20.75 57.05 20.6 57.15 20.45 57.25 20.3 57.4 20.2 57.5 20.1 57.65 20.05 57.8 19.95 58.0 19.95 58.2 19.9 58.45 19.9 58.65 19.9 58.85 19.95 59.05 20.0 59.2 20.05 59.35 20.15 59.45 20.25 59.6 20.35 59.7 20.5 59.75 20.6 59.85 20.8 59.9 20.95 59.95 21.1 59.95 21.3 59.95 21.5 60.0 21.7 59.95 21.9 59.9 22.7 59.9 23.45 59.85 24.25 59.8 25.0 59.8 25.8 59.75 26.55 59.75 27.35 59.7 28.1 59.7 28.9 59.7 29.65 59.7 30.45 59.7 31.2 59.65 32.0 59.7 32.8 59.7 33.55 59.7 34.35 59.75 38.85 60.25 44.9 59.95 41.3 61.2 55.45 61.25 56.2 61.35 57.0 61.45 57.75 61.55 58.5 61.6 59.25 61.75 60.05 61.85 60.8 61.95 61.55 62.05 62.3 62.2 63.05 62.3 63.8 62.45 64.6 62.6 65.3 62.75 66.1 62.9 66.85 63.05 67.6 63.3 68.9 63.7 70.2 64.05 71.45 64.55 72.65 65.0 73.85 65.6 75.05 66.15 76.2 66.8 77.35 67.4 78.45 68.1 79.55 68.8 80.6 69.6 81.7 70.3 82.7 71.15 83.8 71.9 84.8 72.8 85.85 73.0 86.1 73.3 86.45 73.4 86.6 73.75 87.1 74.05 87.5 74.25 87.7 74.55 88.05 74.75 88.35 75.0 88.65 75.25 88.95 75.55 89.25 75.8 89.5 76.1 89.8 76.4 90.05 76.7 90.35 77.0 90.6 76.9 90.75 76.75 90.9 76.65 91.05 76.5 91.2 76.35 91.35 76.2 91.45 76.05 91.6 75.9 91.7 75.75 91.8 75.6 91.9 75.45 92.05 75.25 92.1 75.1 92.2 74.95 92.3 74.75 92.4 74.6 92.5 L74.6 92.5" fill="#000000" fill-opacity="0.45882353" fill-rule="evenodd" stroke="none"/>
    <path d="M-45.5 85.1 Q-45.15 84.15 -42.8 77.8 -41.15 73.35 -40.15 70.45 -37.9 64.05 -35.6 55.65 -34.55 51.8 -31.75 40.7 -31.2 38.4 -30.8 36.85 -30.75 36.65 -30.7 36.5 -30.6 36.35 -30.55 36.2 -30.45 36.05 -30.35 35.95 -30.25 35.85 -30.15 35.75 -30.05 35.65 -29.9 35.6 -29.75 35.55 -29.6 35.55 -29.45 35.5 -29.3 35.5 -29.1 35.55 -28.9 35.6 -28.7 35.65 -28.55 35.7 -28.4 35.8 -28.25 35.9 -28.15 36.0 -28.05 36.1 -27.95 36.2 -27.9 36.35 -27.85 36.45 -27.8 36.6 -27.75 36.75 -27.75 36.95 -27.75 37.1 -27.8 37.3 -27.8 37.45 -27.85 37.7 -28.6 40.9 -29.3 43.75 -30.1 46.9 -30.85 49.8 -31.65 52.9 -32.45 55.8 -33.35 58.9 -34.2 61.8 -35.1 64.85 -36.0 67.75 -37.0 70.8 -38.0 73.65 -39.0 76.65 -40.1 79.55 -41.2 82.5 -42.4 85.35 -42.45 85.4 -42.45 85.5 -42.45 85.5 -42.5 85.7 -42.55 85.8 -42.55 85.85 -42.6 85.95 -42.65 86.0 -42.65 86.1 -42.7 86.15 -42.75 86.25 -42.85 86.3 -42.9 86.35 -43.0 86.35 -43.1 86.4 -43.2 86.45 -43.25 86.25 -43.35 86.05 -43.45 85.85 -43.55 85.7 -43.65 85.55 -43.8 85.45 -43.9 85.3 -44.05 85.25 -44.2 85.15 -44.35 85.1 -44.55 85.05 -44.7 85.05 -44.9 85.05 -45.1 85.05 -45.3 85.05 -45.5 85.1 L-45.5 85.1" fill="#000000" fill-opacity="0.45882353" fill-rule="evenodd" stroke="none"/>
    <path d="M-7.8 112.3 Q-7.5 103.6 -7.45 101.9 -6.95 84.5 -6.75 79.15 -6.75 78.8 -6.6 76.35 -6.5 74.65 -6.5 73.55 -6.5 73.35 -6.45 73.2 -6.45 73.0 -6.4 72.85 -6.35 72.65 -6.25 72.5 -6.2 72.4 -6.1 72.25 -6.0 72.15 -5.9 72.05 -5.75 71.95 -5.6 71.85 -5.45 71.8 -5.3 71.75 -5.1 71.75 -4.9 71.75 -4.7 71.75 -4.55 71.8 -4.35 71.8 -4.2 71.9 -4.05 71.95 -3.95 72.05 -3.8 72.15 -3.7 72.25 -3.6 72.4 -3.55 72.55 -3.5 72.7 -3.45 72.85 -3.4 73.0 -3.35 73.2 -3.35 73.35 -3.35 73.55 -3.45 76.3 -4.15 92.2 -4.15 92.3 -4.2 92.6 -4.25 92.85 -4.25 93.0 -4.35 99.85 -4.6 112.3 -5.65 112.3 -7.8 112.3 L-7.8 112.3" fill="#000000" fill-opacity="0.45882353" fill-rule="evenodd" stroke="none"/>
    <path d="M33.55 91.6 Q33.15 82.05 32.8 75.8 32.75 74.4 32.25 66.6 32.25 66.05 32.25 65.8 32.25 65.55 32.25 65.35 32.25 65.15 32.25 64.95 32.25 64.75 32.3 64.55 32.35 64.35 32.45 64.2 32.55 64.05 32.65 63.9 32.8 63.75 32.95 63.7 33.1 63.6 33.3 63.55 33.5 63.45 33.75 63.45 34.0 63.45 34.2 63.5 34.4 63.55 34.55 63.65 34.75 63.7 34.85 63.85 34.95 64.0 35.05 64.15 35.15 64.3 35.2 64.5 35.25 64.65 35.3 64.9 35.35 65.05 35.35 65.3 35.35 65.5 35.4 65.75 35.6 70.3 36.0 77.6 36.45 87.0 36.6 89.45 36.6 89.6 36.6 89.75 36.6 89.8 36.65 90.1 36.65 90.25 36.65 90.4 36.65 90.55 36.65 90.7 36.65 90.9 36.65 91.05 36.65 91.2 36.6 91.35 36.6 91.5 36.55 91.65 36.5 91.8 36.45 91.95 36.3 91.75 36.15 91.6 35.95 91.45 35.8 91.3 35.65 91.2 35.45 91.1 35.3 91.05 35.1 91.0 34.9 91.0 34.75 91.0 34.55 91.0 34.35 91.1 34.15 91.15 33.95 91.3 33.75 91.4 33.55 91.6 L33.55 91.6" fill="#000000" fill-opacity="0.45882353" fill-rule="evenodd" stroke="none"/>
  </g>
</svg>
