<?xml version="1.0" encoding="UTF-8" standalone="no"?>
<svg xmlns:xlink="http://www.w3.org/1999/xlink" height="600.0px" width="600.0px" xmlns="http://www.w3.org/2000/svg">
  <g transform="matrix(1.0, 0.0, 0.0, 1.0, 300.0, 300.0)">
    <path d="M226.0 -74.65 Q230.35 -72.1 231.7 -71.3 232.8 -70.6 233.9 -69.9 235.0 -69.2 236.1 -68.45 237.2 -67.75 238.25 -67.0 239.3 -66.2 240.35 -65.45 241.4 -64.65 242.45 -63.85 243.45 -63.05 244.45 -62.25 245.5 -61.4 246.45 -60.55 247.45 -59.7 248.45 -58.85 249.55 -57.85 250.6 -56.85 251.7 -55.8 252.75 -54.75 253.8 -53.7 254.8 -52.65 255.8 -51.55 256.8 -50.5 257.75 -49.35 258.7 -48.25 259.65 -47.1 260.6 -45.95 261.5 -44.8 262.4 -43.6 263.3 -42.45 264.15 -41.2 264.65 -40.5 265.1 -39.85 265.55 -39.15 266.0 -38.45 266.45 -37.75 266.9 -37.05 267.35 -36.3 267.8 -35.6 268.2 -34.9 268.65 -34.15 269.05 -33.45 269.45 -32.7 269.85 -32.0 270.25 -31.25 270.65 -30.5 271.05 -29.75 271.55 -28.8 272.0 -27.9 272.45 -26.95 272.9 -26.05 273.35 -25.1 273.8 -24.15 274.2 -23.2 274.6 -22.25 275.05 -21.3 275.4 -20.3 275.8 -19.35 276.2 -18.4 276.55 -17.4 276.9 -16.45 277.25 -15.45 277.6 -14.45 277.95 -13.45 278.25 -12.5 278.55 -11.5 278.85 -10.5 279.15 -9.5 279.4 -8.5 279.7 -7.5 279.95 -6.5 280.2 -5.5 280.4 -4.5 280.65 -3.5 280.85 -2.5 281.1 -1.45 281.25 -0.45 281.45 0.55 281.65 1.6 281.75 2.3 281.85 2.95 281.95 3.65 282.05 4.35 282.1 5.0 282.2 5.7 282.3 6.4 282.35 7.1 282.4 7.75 282.45 8.45 282.5 9.15 282.55 9.85 282.6 10.55 282.65 11.2 282.65 11.9 282.7 12.6 282.7 13.1 282.8 14.4 282.85 15.55 282.8 16.2 282.75 18.25 282.6 20.3 282.45 22.35 282.2 24.35 281.95 26.35 281.65 28.35 281.3 30.35 280.8 32.3 280.35 34.25 279.8 36.2 279.2 38.1 278.55 40.0 277.85 41.95 277.05 43.8 276.25 45.7 275.3 47.55 274.7 48.7 274.1 49.85 273.45 51.0 272.8 52.1 272.15 53.2 271.45 54.3 270.75 55.4 270.0 56.45 269.3 57.55 268.5 58.6 267.75 59.6 266.95 60.65 266.15 61.65 265.3 62.65 264.5 63.65 263.6 64.6 262.55 65.8 261.45 66.9 260.35 68.05 259.2 69.1 258.05 70.2 256.85 71.2 255.65 72.2 254.45 73.2 253.2 74.15 251.95 75.05 250.65 76.0 249.35 76.85 248.05 77.7 246.7 78.5 245.3 79.35 243.95 80.1 242.75 80.75 241.5 81.35 240.25 82.0 239.0 82.55 237.75 83.1 236.45 83.65 235.2 84.15 233.9 84.65 232.6 85.15 231.3 85.6 230.0 86.0 228.7 86.45 227.4 86.85 226.05 87.2 224.7 87.55 223.35 87.9 221.3 88.4 217.8 89.2 213.7 90.15 212.2 90.5 211.95 90.6 211.8 90.6 211.5 90.65 211.3 90.7 211.1 90.7 210.9 90.7 210.75 90.7 210.6 90.65 210.45 90.6 210.35 90.5 210.25 90.45 210.2 90.3 210.15 90.15 210.1 89.95 210.1 89.75 210.1 89.5 210.1 89.25 210.15 88.9 210.15 88.85 210.2 88.8 210.2 88.75 210.2 88.7 210.25 88.65 210.25 88.6 210.3 88.6 210.35 88.55 210.35 88.5 210.4 88.45 210.45 88.4 210.5 88.35 210.55 88.35 210.55 88.3 210.6 88.25 210.65 88.25 210.75 88.2 210.85 88.15 210.95 88.1 211.0 88.05 211.1 88.0 211.2 87.95 211.3 87.9 211.4 87.85 211.5 87.8 211.6 87.75 211.7 87.7 211.8 87.65 211.9 87.6 212.0 87.55 212.1 87.55 212.2 87.5 212.8 87.25 213.4 87.0 213.95 86.75 214.5 86.45 215.05 86.15 215.6 85.8 216.15 85.5 216.7 85.15 217.2 84.8 217.75 84.4 218.25 84.05 218.75 83.65 219.25 83.25 219.75 82.85 220.2 82.45 220.7 82.0 221.85 81.0 222.95 79.95 224.0 78.9 225.05 77.85 226.1 76.75 227.1 75.65 228.05 74.5 229.0 73.35 229.95 72.15 230.85 70.95 231.7 69.75 232.55 68.5 233.4 67.25 234.2 66.0 235.0 64.7 235.75 63.4 236.6 61.85 238.35 57.9 238.55 57.45 238.7 57.0 238.9 56.55 239.0 56.1 239.15 55.65 239.25 55.15 239.4 54.7 239.45 54.25 239.55 53.75 239.65 53.3 239.7 52.85 239.75 52.35 239.8 51.9 239.85 51.4 239.9 50.95 239.9 50.4 239.95 49.75 239.95 49.1 239.95 48.5 239.95 47.85 239.9 47.2 239.85 46.55 239.8 45.95 239.7 45.3 239.6 44.7 239.45 44.05 239.35 43.45 239.2 42.8 239.05 42.2 238.9 41.55 238.75 40.95 238.55 40.3 238.3 39.4 238.0 38.55 237.7 37.7 237.35 36.85 237.0 36.05 236.55 35.2 236.2 34.4 235.75 33.6 235.3 32.8 234.85 32.0 234.4 31.25 233.9 30.45 233.4 29.75 232.85 28.95 232.4 28.25 231.8 27.45 230.7 25.9 229.5 24.4 228.3 22.9 227.0 21.5 225.75 20.1 224.4 18.75 223.05 17.45 221.65 16.2 220.25 14.95 218.75 13.75 217.25 12.6 215.7 11.5 214.15 10.4 212.5 9.4 210.9 8.4 209.2 7.45 208.35 6.95 207.45 6.5 206.55 6.05 205.65 5.65 204.75 5.2 203.85 4.8 202.95 4.4 202.0 4.05 201.1 3.65 200.15 3.3 199.2 2.95 198.25 2.6 197.35 2.3 196.4 2.0 195.45 1.65 194.5 1.35 193.7 1.15 191.25 0.8 190.65 0.7 188.75 0.6 188.7 0.6 188.65 0.6 188.55 0.6 188.5 0.6 188.45 0.6 188.4 0.55 188.3 0.55 188.25 0.55 188.2 0.55 188.15 0.55 188.05 0.55 188.0 0.55 187.95 0.6 187.9 0.6 187.8 0.6 187.75 0.6 187.6 0.6 187.45 0.65 187.3 0.7 187.2 0.75 187.05 0.8 187.0 0.9 186.9 1.0 186.8 1.05 186.75 1.15 186.7 1.3 186.65 1.4 186.65 1.5 186.6 1.65 186.6 1.8 186.6 1.95 186.6 2.1 186.9 6.25 186.9 7.3 186.9 7.75 186.9 8.15 186.9 8.6 186.85 9.05 186.85 9.45 186.85 9.9 186.8 10.35 186.75 10.75 186.75 11.2 186.7 11.65 186.65 12.05 186.6 12.5 186.55 12.9 186.5 13.35 186.45 13.8 186.4 14.25 186.3 15.15 186.15 16.0 186.0 16.9 185.8 17.75 185.6 18.6 185.4 19.45 185.15 20.3 184.9 21.15 184.65 22.0 184.35 22.85 184.05 23.65 183.75 24.5 183.4 25.3 183.05 26.1 182.7 26.95 182.3 27.75 181.95 28.45 181.55 29.15 181.2 29.85 180.75 30.5 180.35 31.2 179.9 31.85 179.5 32.5 179.05 33.15 178.55 33.8 178.1 34.4 177.6 35.05 177.1 35.65 176.55 36.25 176.05 36.85 175.5 37.4 174.95 38.0 174.2 38.75 173.45 39.4 172.7 40.1 171.9 40.75 171.1 41.4 170.3 42.0 169.45 42.6 168.6 43.15 167.75 43.75 166.9 44.25 166.0 44.75 165.1 45.25 164.2 45.7 163.25 46.15 162.35 46.55 161.35 46.95 161.25 47.0 161.15 47.05 161.05 47.05 160.9 47.1 160.8 47.1 160.7 47.15 160.6 47.15 160.45 47.2 160.35 47.2 160.25 47.2 160.15 47.25 160.0 47.25 159.9 47.25 159.75 47.25 159.6 47.3 159.55 47.3 159.45 47.3 159.35 47.3 159.3 47.3 159.2 47.25 159.15 47.25 159.1 47.2 159.05 47.15 159.0 47.1 158.95 47.05 158.9 47.0 158.9 46.95 158.85 46.85 158.85 46.8 158.8 46.7 158.8 46.65 158.8 46.55 158.8 46.45 158.8 46.35 158.8 46.25 158.8 46.15 158.85 46.05 158.85 45.95 158.9 45.85 158.9 45.8 158.95 45.7 159.0 45.6 159.05 45.5 159.1 45.45 159.15 45.35 159.2 45.25 159.25 45.2 159.35 45.1 162.6 41.2 164.15 39.25 164.6 38.7 165.0 38.15 165.45 37.55 165.85 37.0 166.25 36.45 166.65 35.85 167.0 35.25 167.4 34.7 167.75 34.1 168.1 33.5 168.45 32.85 168.75 32.25 169.05 31.6 169.35 31.0 169.65 30.35 169.9 29.7 170.05 29.3 170.2 28.9 170.35 28.5 170.45 28.1 170.6 27.7 170.7 27.3 170.85 26.9 170.95 26.45 171.05 26.05 171.1 25.65 171.2 25.25 171.3 24.8 171.35 24.4 171.4 23.95 171.5 23.55 171.5 23.15 171.55 22.7 171.55 22.2 171.6 21.75 171.55 21.3 171.55 20.85 171.5 20.4 171.45 19.95 171.35 19.5 171.3 19.05 171.2 18.6 171.1 18.2 171.0 17.7 170.9 17.3 170.75 16.85 170.65 16.45 170.5 15.95 170.3 15.35 170.05 14.7 169.8 14.1 169.55 13.55 169.25 12.95 168.95 12.4 168.65 11.8 168.3 11.25 167.95 10.75 167.55 10.2 167.2 9.7 166.8 9.2 166.4 8.7 165.95 8.2 165.5 7.7 165.05 7.2 164.2 6.35 163.3 5.55 162.45 4.75 161.5 4.0 160.6 3.3 159.6 2.6 158.65 1.95 157.65 1.35 156.65 0.75 155.6 0.2 154.6 -0.35 153.5 -0.85 152.45 -1.35 151.3 -1.8 150.25 -2.25 149.1 -2.65 148.05 -3.0 147.0 -3.35 145.95 -3.7 144.9 -3.95 143.85 -4.25 142.75 -4.55 141.7 -4.8 140.65 -5.0 139.55 -5.25 138.45 -5.4 137.4 -5.6 136.3 -5.75 135.25 -5.9 134.15 -6.05 133.05 -6.15 131.95 -6.25 131.35 -6.3 130.75 -6.35 130.1 -6.4 129.5 -6.45 128.9 -6.5 128.3 -6.5 127.7 -6.55 127.05 -6.6 126.45 -6.65 125.85 -6.65 125.25 -6.7 124.6 -6.7 124.0 -6.75 123.4 -6.8 122.8 -6.8 122.15 -6.8 116.95 -7.0 108.5 -6.3 102.4 -5.75 97.8 -5.2 95.7 -4.95 89.0 -3.95 85.25 -3.4 77.35 -2.2 75.4 -1.9 71.8 -1.35 68.05 -0.8 66.3 -0.55 61.75 0.15 54.35 1.15 49.25 1.9 46.15 2.25 38.65 3.1 35.6 3.35 33.45 3.5 24.75 3.95 23.55 4.0 22.05 3.95 16.85 3.7 14.75 3.6 14.0 3.55 13.2 3.5 12.45 3.45 11.65 3.4 10.9 3.3 10.1 3.25 9.35 3.15 8.55 3.05 7.8 2.95 7.0 2.85 6.25 2.75 5.45 2.65 4.7 2.5 3.95 2.4 3.15 2.25 2.4 2.1 1.65 1.95 0.9 1.85 0.15 1.7 -0.6 1.55 -1.35 1.4 -2.1 1.2 -2.85 1.05 -3.55 0.85 -4.3 0.7 -5.05 0.5 -5.8 0.3 -6.5 0.1 -7.25 -0.15 -7.95 -0.35 -8.7 -0.6 -9.4 -0.85 -10.3 -1.15 -11.15 -1.45 -12.05 -1.8 -12.9 -2.1 -13.8 -2.45 -14.6 -2.8 -15.5 -3.15 -16.35 -3.55 -17.2 -3.9 -18.0 -4.3 -18.85 -4.7 -19.7 -5.15 -20.5 -5.55 -21.3 -6.0 -22.15 -6.45 -22.95 -6.95 -23.9 -7.55 -24.85 -8.2 -25.75 -8.85 -26.65 -9.55 -27.5 -10.2 -28.35 -10.95 -29.15 -11.7 -29.95 -12.5 -30.7 -13.3 -31.45 -14.15 -32.15 -15.0 -32.85 -15.9 -33.5 -16.8 -34.15 -17.75 -34.8 -18.65 -35.35 -19.65 -35.85 -20.45 -36.3 -21.3 -36.75 -22.15 -37.15 -23.0 -37.55 -23.85 -37.95 -24.7 -38.3 -25.55 -38.65 -26.45 -39.0 -27.3 -39.3 -28.2 -39.65 -29.1 -39.9 -29.95 -40.2 -30.85 -40.45 -31.8 -40.65 -32.7 -40.85 -33.65 -41.1 -34.65 -41.55 -37.85 -41.55 -37.95 -41.6 -38.15 -41.6 -38.3 -41.6 -38.4 -41.6 -38.55 -41.65 -38.7 -41.65 -38.8 -41.7 -38.95 -41.7 -39.1 -41.75 -39.2 -41.8 -39.35 -41.85 -39.45 -41.9 -39.6 -41.95 -39.7 -42.0 -39.85 -42.1 -39.95 -42.15 -40.0 -42.3 -40.5 -42.65 -41.7 -44.35 -47.7 -44.5 -48.2 -44.75 -49.15 -45.05 -50.1 -45.2 -50.6 -45.3 -51.0 -45.55 -51.55 -45.85 -52.35 -45.9 -52.55 -46.05 -53.0 -46.2 -53.5 -46.35 -54.0 -46.45 -54.5 -46.6 -54.95 -46.7 -55.5 -46.8 -55.95 -46.85 -56.45 -46.95 -56.95 -47.0 -57.45 -47.1 -57.95 -47.15 -58.45 -47.2 -58.95 -47.25 -59.5 -47.25 -59.95 -47.3 -60.5 -47.35 -61.25 -47.35 -62.05 -47.4 -62.8 -47.35 -63.6 -47.35 -64.4 -47.3 -65.15 -47.25 -65.9 -47.15 -66.7 -47.1 -67.45 -47.0 -68.25 -46.9 -69.0 -46.75 -69.8 -46.65 -70.55 -46.5 -71.3 -46.35 -72.05 -46.2 -72.85 -46.05 -73.55 -45.9 -74.2 -45.75 -74.9 -45.55 -75.6 -45.35 -76.25 -45.15 -76.9 -44.9 -77.55 -44.65 -78.2 -44.4 -78.85 -44.15 -79.5 -43.9 -80.15 -43.6 -80.8 -43.3 -81.45 -43.0 -82.05 -42.7 -82.7 -42.35 -83.3 -41.95 -84.1 -41.5 -84.9 -41.05 -85.7 -40.55 -86.45 -40.1 -87.2 -39.6 -88.0 -39.1 -88.75 -38.6 -89.5 -38.05 -90.2 -37.55 -90.95 -37.0 -91.65 -36.45 -92.4 -35.9 -93.1 -35.3 -93.8 -34.75 -94.5 -34.15 -95.2 -33.75 -95.65 -33.35 -96.1 -33.0 -96.6 -32.6 -97.05 -32.2 -97.5 -31.8 -97.95 -31.4 -98.4 -31.0 -98.85 -30.55 -99.3 -30.15 -99.75 -29.75 -100.2 -29.35 -100.65 -28.95 -101.1 -28.5 -101.5 -28.1 -101.95 -27.7 -102.4 -26.85 -103.3 -25.95 -104.15 -25.05 -105.0 -24.1 -105.8 -23.2 -106.65 -22.25 -107.45 -21.3 -108.2 -20.3 -109.0 -19.35 -109.75 -18.35 -110.45 -17.35 -111.2 -16.35 -111.9 -15.35 -112.6 -14.3 -113.3 -13.25 -113.95 -12.2 -114.6 -10.4 -115.75 -8.5 -116.8 -6.65 -117.8 -4.75 -118.8 -2.9 -119.75 -0.95 -120.65 0.95 -121.5 2.95 -122.3 4.9 -123.1 6.9 -123.85 8.9 -124.55 10.9 -125.25 12.9 -125.9 15.0 -126.5 17.0 -127.05 19.1 -127.6 19.95 -127.8 20.85 -128.0 21.7 -128.2 22.55 -128.4 23.45 -128.55 24.3 -128.7 25.15 -128.85 26.05 -129.0 26.9 -129.15 27.8 -129.25 28.65 -129.4 29.55 -129.5 30.45 -129.6 31.3 -129.7 32.2 -129.75 33.1 -129.85 34.1 -129.9 35.65 -130.0 37.75 -130.1 38.15 -130.1 38.45 -130.1 40.55 -130.25 41.15 -130.3 41.25 -130.3 43.2 -130.25 45.1 -130.1 47.05 -130.0 48.95 -129.85 50.9 -129.7 52.8 -129.45 54.75 -129.25 56.6 -129.0 58.55 -128.7 60.4 -128.4 62.3 -128.05 64.2 -127.65 66.1 -127.25 67.95 -126.8 69.85 -126.35 71.7 -125.8 73.05 -125.4 74.35 -125.0 75.7 -124.6 77.0 -124.2 78.35 -123.75 79.65 -123.35 81.0 -122.9 82.3 -122.4 83.6 -121.95 84.9 -121.45 86.2 -121.0 87.5 -120.45 88.8 -119.95 90.05 -119.45 91.35 -118.9 92.65 -118.35 98.5 -115.8 108.8 -111.0 109.1 -110.85 119.45 -105.75 130.55 -100.2 132.95 -99.05 134.7 -98.2 136.4 -97.4 138.15 -96.6 139.85 -95.85 141.6 -95.05 143.3 -94.3 145.1 -93.5 146.8 -92.75 148.55 -92.0 150.3 -91.3 152.1 -90.55 153.85 -89.9 155.65 -89.2 157.4 -88.5 159.2 -87.85 160.95 -87.2 162.05 -86.8 163.2 -86.45 164.3 -86.1 165.45 -85.75 166.55 -85.4 167.7 -85.1 168.85 -84.8 170.0 -84.5 171.15 -84.2 172.25 -83.95 173.4 -83.7 174.6 -83.45 175.75 -83.2 176.9 -83.0 178.05 -82.75 179.2 -82.6 179.95 -82.5 180.65 -82.35 181.4 -82.25 182.1 -82.15 182.85 -82.05 183.6 -81.95 184.3 -81.85 185.05 -81.8 185.8 -81.7 186.5 -81.6 187.25 -81.55 188.0 -81.5 188.7 -81.45 189.45 -81.4 190.2 -81.35 190.9 -81.3 197.75 -80.95 197.8 -80.95 198.3 -80.95 198.8 -80.95 199.25 -80.95 199.75 -80.95 200.25 -81.0 200.75 -81.0 201.2 -81.0 201.7 -81.05 202.2 -81.05 202.65 -81.05 203.15 -81.1 203.65 -81.1 204.15 -81.15 204.6 -81.2 205.1 -81.2 205.6 -81.25 212.85 -81.8 217.1 -82.4 220.95 -82.9 226.7 -84.2 227.65 -84.4 228.6 -84.65 229.5 -84.9 230.45 -85.15 231.4 -85.4 232.3 -85.65 233.25 -85.95 234.15 -86.25 235.1 -86.55 236.0 -86.85 236.9 -87.15 237.8 -87.5 238.75 -87.8 239.65 -88.15 240.55 -88.5 241.45 -88.9 241.6 -88.95 241.7 -89.0 241.85 -89.05 242.0 -89.1 242.15 -89.15 242.3 -89.2 242.45 -89.2 242.55 -89.25 242.7 -89.25 242.85 -89.25 243.0 -89.3 243.15 -89.25 243.3 -89.25 243.45 -89.25 243.6 -89.2 243.75 -89.15 243.8 -89.15 243.85 -89.1 243.9 -89.1 243.9 -89.05 243.95 -89.05 244.0 -89.0 244.05 -89.0 244.1 -88.95 244.15 -88.95 244.15 -88.9 244.2 -88.85 244.25 -88.85 244.25 -88.8 244.3 -88.75 244.3 -88.7 244.35 -88.7 244.4 -88.55 244.45 -88.4 244.5 -88.25 244.5 -88.05 244.55 -87.9 244.5 -87.75 244.5 -87.6 244.45 -87.45 244.4 -87.3 244.35 -87.15 244.3 -87.05 244.2 -86.9 244.1 -86.75 243.95 -86.65 243.85 -86.55 243.7 -86.45 243.45 -86.3 226.55 -75.1 226.5 -75.05 226.3 -74.9 226.15 -74.75 226.0 -74.65 L226.0 -74.65" fill="url(#gradient0)" fill-rule="evenodd" stroke="none"/>
  </g>
  <defs>
    <linearGradient gradientTransform="matrix(0.2015, 0.0, 0.0, 0.2015, 117.75, -19.8)" gradientUnits="userSpaceOnUse" id="gradient0" spreadMethod="pad" x1="-819.2" x2="819.2">
      <stop offset="0.0" stop-color="#fff23c" stop-opacity="0.0"/>
      <stop offset="0.3803921568627451" stop-color="#fff23c" stop-opacity="0.84705883"/>
      <stop offset="0.6039215686274509" stop-color="#fff23c" stop-opacity="0.8"/>
      <stop offset="1.0" stop-color="#fff23c" stop-opacity="0.0"/>
    </linearGradient>
  </defs>
</svg>
