<?xml version="1.0" encoding="UTF-8" standalone="no"?>
<svg xmlns:xlink="http://www.w3.org/1999/xlink" height="400.0px" width="400.0px" xmlns="http://www.w3.org/2000/svg">
  <g transform="matrix(1.0, 0.0, 0.0, 1.0, 200.0, 200.0)">
    <path d="M71.9 116.4 Q71.7 116.7 71.45 116.95 71.15 117.3 70.85 117.65 70.5 118.0 70.15 118.35 69.7 118.75 69.25 119.1 68.8 119.45 68.25 119.8 67.7 120.15 67.15 120.4 66.5 120.7 65.85 120.95 65.2 121.15 64.45 121.3 64.0 121.4 63.6 121.45 63.15 121.5 62.75 121.55 62.3 121.55 61.9 121.55 61.5 121.55 61.1 121.55 60.7 121.5 60.3 121.4 59.9 121.35 59.55 121.25 59.15 121.15 58.75 121.0 58.35 120.8 57.95 120.65 50.35 116.75 45.05 114.85 44.7 114.75 44.3 114.65 43.95 114.55 43.55 114.5 43.15 114.45 42.75 114.4 42.35 114.4 41.9 114.4 41.5 114.4 41.1 114.4 40.7 114.45 40.25 114.5 39.85 114.55 39.45 114.65 39.05 114.7 38.7 114.8 26.5 117.9 21.1 120.0 19.1 120.8 17.05 121.45 15.0 122.05 12.95 122.55 10.9 123.05 8.8 123.4 6.75 123.75 4.65 124.0 2.6 124.2 0.5 124.3 -1.55 124.45 -3.7 124.45 -5.75 124.45 -7.9 124.35 -9.95 124.25 -12.1 124.05 -13.75 123.9 -15.7 123.8 -17.2 123.7 -19.3 123.6 -18.0 123.7 -22.9 123.45 -25.05 123.35 -26.5 123.3 -28.5 123.2 -30.1 123.05 -32.0 122.9 -33.7 122.7 -35.6 122.5 -37.3 122.25 -39.15 121.95 -40.85 121.55 -41.9 121.3 -42.7 121.1 -43.65 120.85 -44.5 120.6 -45.45 120.3 -46.3 120.0 -47.2 119.6 -48.0 119.2 -48.85 118.75 -49.6 118.25 -50.4 117.7 -51.1 117.05 -51.85 116.4 -52.45 115.65 -53.1 114.8 -53.65 113.9 -54.1 113.1 -54.5 112.55 -54.9 112.0 -55.3 111.6 -55.65 111.15 -56.05 110.95 -56.5 110.7 -56.9 110.55 -57.35 110.45 -57.85 110.5 -58.35 110.5 -58.9 110.65 -59.45 110.8 -60.15 111.1 -60.75 111.3 -61.6 111.7 -62.2 111.95 -62.9 112.3 -63.45 112.6 -64.15 113.0 -64.5 113.15 -65.4 113.65 -66.2 114.1 -66.7 114.35 -67.4 114.7 -67.95 115.0 -68.65 115.35 -69.25 115.6 -69.95 115.9 -70.6 116.1 -71.3 116.35 -71.95 116.55 -72.55 116.7 -73.1 116.75 -73.6 116.85 -74.1 116.85 -74.6 116.85 -75.05 116.75 -75.45 116.65 -75.85 116.5 -76.25 116.3 -76.6 116.1 -76.95 115.85 -77.25 115.5 -77.55 115.2 -77.85 114.8 -78.1 114.4 -78.35 113.9 -78.4 113.8 -78.45 113.65 -78.55 113.4 -78.65 113.15 -78.75 112.8 -78.85 112.45 -79.0 112.0 -79.15 111.55 -79.3 111.05 -79.45 110.5 -79.6 109.9 -79.7 109.3 -79.85 108.6 -80.0 107.95 -80.1 107.2 -80.2 106.45 -80.25 106.5 -80.3 106.55 -80.3 106.65 -80.35 106.7 -80.4 106.75 -80.45 106.8 -80.5 106.85 -80.55 106.95 -80.6 107.0 -80.6 107.05 -80.65 107.1 -80.7 107.15 -80.75 107.2 -80.8 107.3 -80.85 107.35 -80.9 107.4 -81.0 107.45 -81.1 107.5 -81.2 107.5 -81.35 107.55 -98.1 113.0 -81.55 107.65 -81.7 107.65 -81.8 107.7 -81.9 107.75 -82.0 107.8 -82.1 107.85 -82.2 107.9 -82.3 107.95 -82.4 108.0 -82.5 108.05 -82.6 108.1 -83.75 109.0 -84.75 109.7 -85.75 110.35 -86.6 110.8 -87.4 111.25 -88.1 111.55 -88.75 111.8 -89.4 111.95 -89.9 112.1 -90.45 112.15 -90.85 112.2 -91.35 112.2 -92.45 112.25 -92.1 112.25 -92.5 112.25 -92.8 112.3 -93.2 112.4 -93.55 112.4 -94.0 112.45 -94.4 112.5 -94.9 112.5 -95.35 112.45 -95.9 112.4 -96.4 112.3 -96.95 112.25 -97.5 112.1 -98.1 111.9 -98.75 111.7 -99.4 111.45 -100.05 111.15 -100.75 110.85 -101.45 110.45 -100.8 109.15 -100.15 107.9 -99.45 106.6 -98.8 105.3 -98.15 104.0 -97.5 102.75 -96.85 101.45 -96.25 100.15 -95.6 98.85 -94.95 97.55 -94.3 96.25 -93.7 94.95 -93.05 93.65 -92.45 92.35 -91.8 91.05 -91.2 89.75 -90.55 88.35 -89.9 86.95 -89.25 85.55 -88.6 84.15 -87.95 82.75 -87.3 81.35 -86.65 79.95 -86.05 78.55 -85.4 77.15 -84.75 75.75 -84.15 74.35 -83.55 72.9 -82.9 71.5 -82.3 70.1 -81.7 68.65 -81.1 67.25 -76.75 68.8 -73.5 69.8 -73.2 69.9 -73.05 69.95 -72.75 70.0 -72.55 70.1 -72.25 70.2 -72.0 70.3 -71.7 70.4 -71.4 70.5 -71.1 70.65 -70.8 70.8 -70.5 70.95 -70.2 71.1 -69.9 71.3 -69.6 71.5 -69.25 71.75 -68.95 72.0 -68.85 72.1 -68.75 72.15 -68.65 72.25 -68.5 72.35 -68.4 72.45 -68.3 72.5 -68.2 72.6 -68.1 72.7 -68.0 72.8 -67.9 72.9 -67.8 73.0 -67.7 73.1 -67.6 73.2 -67.5 73.3 -67.4 73.45 -67.35 73.55 -67.5 74.15 -67.7 74.7 -67.9 75.3 -68.05 75.9 -68.25 76.45 -68.45 77.05 -68.6 77.6 -68.8 78.2 -69.0 78.75 -69.2 79.35 -69.4 79.9 -69.6 80.5 -69.8 81.05 -70.0 81.65 -70.2 82.2 -70.45 82.8 -70.0 82.5 -69.55 82.2 -69.1 81.95 -68.65 81.7 -68.2 81.45 -67.8 81.25 -67.4 81.0 -66.95 80.85 -66.6 80.65 -66.2 80.5 -65.8 80.35 -65.45 80.2 -65.15 80.05 -64.8 79.95 -64.5 79.85 -64.2 79.75 -63.85 79.95 -63.55 80.2 -63.3 80.45 -63.05 80.7 -62.85 81.0 -62.65 81.3 -62.5 81.6 -62.4 81.95 -62.25 82.25 -62.15 82.65 -62.05 82.9 -61.95 83.3 -62.1 82.8 -61.8 84.0 -61.7 84.45 -61.6 84.7 -61.4 85.45 -61.25 85.95 -61.05 86.55 -60.85 86.95 -60.65 87.35 -60.45 87.6 -60.25 87.9 -60.0 88.0 -59.7 88.15 -59.4 88.15 -59.05 88.2 -58.6 88.1 -58.2 88.0 -57.65 87.8 -57.15 87.6 -56.45 87.3 -55.0 86.65 -53.75 86.25 -52.5 85.85 -51.4 85.7 -50.3 85.6 -49.35 85.7 -48.45 85.85 -47.6 86.25 -46.8 86.65 -46.05 87.35 -45.3 88.05 -44.65 89.0 -44.0 89.95 -43.35 91.25 -42.75 92.5 -42.15 94.1 -42.1 94.25 -42.0 94.45 -41.95 94.6 -41.9 94.8 -41.85 94.95 -41.75 95.15 -41.7 95.3 -41.65 95.5 -41.6 95.7 -41.55 95.85 -41.5 96.05 -41.5 96.2 -41.45 96.4 -41.4 96.55 -41.4 96.75 -41.35 96.95 -41.25 97.75 -41.0 98.5 -40.8 99.15 -40.5 99.75 -40.2 100.35 -39.75 100.8 -39.35 101.3 -38.85 101.65 -38.35 102.05 -37.75 102.3 -37.2 102.6 -36.5 102.75 -35.8 102.95 -35.05 103.05 -34.3 103.15 -33.45 103.2 -32.0 103.25 -30.6 103.35 -29.2 103.4 -27.85 103.55 -26.4 103.65 -25.05 103.85 -23.65 104.0 -22.3 104.25 -20.9 104.45 -19.55 104.75 -18.2 105.0 -16.85 105.35 -15.45 105.65 -14.1 106.05 -12.75 106.45 -11.4 106.9 -9.9 107.4 -8.55 107.75 -7.1 108.2 -5.7 108.55 -4.2 108.9 -2.8 109.2 -1.3 109.5 0.1 109.7 1.6 109.85 3.05 109.95 4.55 110.05 6.0 110.0 7.5 109.95 8.95 109.75 10.45 109.6 11.9 109.25 13.2 108.95 14.25 108.65 15.5 108.35 16.6 108.0 17.8 107.65 18.9 107.25 20.05 106.85 21.1 106.4 22.25 105.9 23.3 105.35 24.35 104.8 25.35 104.15 26.4 103.45 27.35 102.7 28.3 101.9 29.2 101.0 29.5 100.7 29.8 100.4 30.05 100.1 30.4 99.85 30.7 99.55 31.0 99.25 31.3 99.0 31.6 98.7 31.9 98.45 32.25 98.2 32.55 97.9 32.9 97.65 33.2 97.4 33.55 97.15 33.85 96.9 34.2 96.65 34.6 96.35 35.05 96.1 35.5 95.85 35.95 95.7 36.4 95.55 36.9 95.45 37.35 95.35 37.85 95.35 38.3 95.3 38.8 95.35 39.25 95.35 39.75 95.45 40.2 95.55 40.7 95.65 41.15 95.75 41.65 95.95 42.0 96.05 42.35 96.15 42.65 96.2 42.9 96.15 43.15 96.15 43.35 96.1 43.55 96.0 43.7 95.9 43.9 95.75 44.0 95.55 44.15 95.4 44.2 95.15 44.3 94.95 44.4 94.65 44.45 94.4 44.5 94.05 44.6 93.35 44.7 92.65 44.8 92.05 44.9 91.45 44.95 90.85 45.0 90.3 45.05 89.8 45.1 89.3 45.15 88.85 45.15 88.35 45.15 87.9 45.2 87.4 45.2 87.0 45.2 86.5 45.2 86.2 45.25 85.55 45.25 85.05 45.35 84.55 45.5 84.0 45.7 83.45 45.95 82.9 46.35 82.3 46.8 81.65 47.35 81.05 48.0 80.35 48.8 79.7 49.6 79.0 50.65 78.3 51.75 77.55 53.05 76.8 54.4 76.0 56.0 75.2 56.6 76.3 57.2 77.4 57.8 78.55 58.35 79.65 58.95 80.85 59.55 82.05 60.15 83.25 60.75 84.5 61.35 85.8 61.9 87.05 62.5 88.4 63.05 89.7 63.65 91.1 64.2 92.45 64.8 93.85 65.35 95.3 65.9 96.7 66.4 98.15 66.95 99.55 67.4 100.95 67.9 102.3 68.35 103.65 68.75 105.0 69.15 106.35 69.55 107.65 69.95 108.95 70.3 110.25 70.65 111.5 71.0 112.75 71.35 114.0 71.65 115.2 71.9 116.4 L71.9 116.4" fill="#f1d7fd" fill-rule="evenodd" stroke="none"/>
  </g>
</svg>
