<?xml version="1.0" encoding="UTF-8" standalone="no"?>
<svg xmlns:xlink="http://www.w3.org/1999/xlink" height="166.8px" width="148.65px" xmlns="http://www.w3.org/2000/svg">
  <g transform="matrix(1.0, 0.0, 0.0, 1.0, 74.35, 83.4)">
    <path d="M51.35 57.15 Q51.35 57.1 51.4 57.05 51.4 57.0 51.45 57.0 51.45 56.95 51.5 57.0 51.55 57.0 51.6 57.0 51.6 57.0 51.55 57.1 51.5 57.3 51.5 57.3 51.45 57.25 51.35 57.15 L51.35 57.15" fill="#fdfdfd" fill-opacity="0.1882353" fill-rule="evenodd" stroke="none"/>
    <path d="M71.2 13.5 Q70.75 12.1 70.3 10.95 69.9 9.85 69.45 8.8 69.1 7.9 68.6 6.9 68.25 6.1 67.65 5.0 65.65 1.05 66.6 2.85 65.9 1.5 65.3 0.35 64.55 -1.2 63.8 -2.85 62.95 -4.75 62.0 -6.85 58.6 -14.8 56.8 -20.5 56.5 -21.4 56.25 -22.3 56.0 -23.15 55.8 -23.95 55.55 -24.75 55.35 -25.55 55.15 -26.25 55.0 -27.0 54.8 -27.65 54.65 -28.35 54.5 -28.95 54.35 -29.6 54.25 -30.1 54.1 -30.7 54.0 -31.1 53.9 -31.7 53.6 -33.05 53.45 -33.7 53.25 -34.7 53.1 -35.45 52.9 -36.35 52.75 -37.0 52.6 -37.8 52.5 -38.4 52.4 -39.1 52.3 -39.7 52.2 -40.3 52.15 -40.85 52.1 -41.4 52.1 -41.95 52.05 -42.5 52.05 -43.0 52.05 -44.1 52.35 -51.9 52.45 -52.4 52.35 -56.05 52.35 -56.6 52.3 -57.1 52.3 -57.6 52.25 -58.0 52.25 -58.4 52.2 -58.7 52.2 -59.05 52.15 -59.3 52.1 -59.55 52.1 -59.8 52.05 -59.95 52.0 -60.15 52.0 -60.3 51.95 -60.4 51.95 -60.5 51.9 -60.65 51.85 -60.85 51.8 -61.0 51.75 -61.15 51.7 -61.3 51.65 -61.4 51.6 -61.55 51.55 -61.65 51.5 -61.85 51.4 -62.05 51.35 -62.15 51.25 -62.35 51.15 -62.55 51.05 -62.85 50.95 -63.15 50.8 -63.45 50.7 -63.85 50.55 -64.3 50.4 -64.65 50.3 -65.0 50.2 -65.3 50.1 -65.6 50.0 -65.85 49.95 -66.05 49.9 -66.25 49.75 -66.7 49.8 -66.6 49.75 -66.8 49.7 -66.9 49.65 -67.1 49.6 -67.2 49.5 -67.35 49.45 -67.55 49.3 -67.9 49.1 -68.25 48.9 -68.6 48.65 -68.9 48.4 -69.2 48.15 -69.45 47.9 -69.75 47.6 -70.0 47.35 -70.25 47.0 -70.5 46.7 -70.7 46.35 -70.95 46.05 -71.15 45.7 -71.4 45.4 -71.55 45.0 -71.8 43.7 -72.6 42.4 -73.35 41.2 -74.05 40.1 -74.65 39.1 -75.2 38.15 -75.7 37.3 -76.1 36.5 -76.5 35.85 -76.8 35.2 -77.1 34.7 -77.3 34.3 -77.5 33.95 -77.6 33.7 -77.7 33.6 -77.75 33.5 -77.8 32.9 -78.0 32.35 -78.2 31.6 -78.45 30.8 -78.7 29.9 -79.0 28.9 -79.3 27.8 -79.6 26.65 -79.9 25.35 -80.25 24.05 -80.55 22.55 -80.9 21.1 -81.2 19.45 -81.55 17.8 -81.85 16.05 -82.15 14.25 -82.4 13.3 -82.5 12.85 -82.6 12.05 -82.7 11.35 -82.75 10.5 -82.85 9.65 -82.95 8.75 -83.05 7.85 -83.1 6.85 -83.2 5.9 -83.25 4.8 -83.35 3.75 -83.35 2.65 -83.4 1.5 -83.4 0.3 -83.45 -0.95 -83.4 -1.75 -83.4 -2.3 -83.35 -3.1 -83.35 -3.8 -83.3 -4.7 -83.3 -5.55 -83.2 -6.5 -83.15 -7.45 -83.1 -8.5 -83.0 -9.5 -82.85 -10.65 -82.7 -11.75 -82.55 -12.95 -82.35 -14.15 -82.15 -15.45 -81.9 -16.7 -81.6 -21.4 -80.55 -29.1 -77.65 -29.95 -77.35 -30.7 -77.05 -31.4 -76.75 -32.05 -76.5 -32.65 -76.25 -33.15 -76.0 -33.65 -75.75 -34.1 -75.55 -34.5 -75.35 -34.9 -75.15 -35.25 -74.95 -35.55 -74.8 -35.85 -74.6 -36.1 -74.45 -36.35 -74.3 -36.6 -74.1 -37.2 -73.7 -37.75 -73.3 -38.25 -72.9 -38.75 -72.5 -39.25 -72.1 -39.7 -71.7 -40.1 -71.3 -40.55 -70.9 -40.9 -70.55 -41.3 -70.15 -41.6 -69.8 -41.95 -69.45 -42.2 -69.1 -42.55 -68.75 -42.75 -68.5 -43.05 -68.15 -43.2 -68.0 -43.35 -67.8 -43.6 -67.5 -43.85 -67.15 -44.2 -66.7 -44.5 -66.25 -44.95 -65.7 -45.3 -65.1 -45.75 -64.45 -46.2 -63.8 -46.65 -63.05 -47.1 -62.3 -47.55 -61.5 -47.95 -60.65 -48.35 -59.8 -48.7 -58.95 -49.25 -57.65 -49.55 -56.45 -49.85 -55.3 -50.0 -54.15 -50.15 -53.1 -50.15 -51.85 -50.15 -50.8 -50.05 -49.35 -50.0 -48.9 -49.8 -46.4 -49.65 -44.4 -49.6 -42.85 -49.5 -40.65 -49.45 -38.45 -49.4 -35.85 -49.5 -33.05 -49.55 -31.4 -49.6 -29.9 -49.7 -28.45 -49.8 -27.15 -49.9 -25.95 -50.05 -24.85 -50.2 -23.8 -50.35 -22.85 -50.5 -21.95 -50.65 -21.15 -50.8 -20.4 -51.0 -19.7 -51.2 -19.05 -51.4 -18.45 -51.55 -17.9 -51.8 -17.3 -52.15 -16.4 -52.5 -15.5 -52.85 -14.65 -53.25 -13.8 -53.65 -13.05 -54.05 -12.3 -54.4 -11.65 -54.75 -11.0 -55.1 -10.4 -55.45 -9.85 -55.75 -9.4 -56.05 -8.95 -56.3 -8.6 -56.5 -8.25 -56.65 -8.0 -56.85 -7.8 -57.4 -7.0 -57.95 -6.35 -58.45 -5.75 -58.95 -5.25 -59.4 -4.8 -59.9 -4.3 -60.25 -3.95 -60.8 -3.45 -61.6 -2.75 -61.8 -2.55 -62.4 -2.0 -62.9 -1.5 -63.55 -0.85 -64.2 -0.15 -64.95 0.65 -65.7 1.55 -66.5 2.5 -66.95 3.05 -67.6 3.8 -68.1 4.4 -68.65 5.1 -69.1 5.7 -69.6 6.35 -70.0 6.95 -70.4 7.6 -70.75 8.2 -71.1 8.85 -71.35 9.45 -71.65 10.15 -71.9 10.8 -72.15 11.5 -72.3 12.25 -72.4 12.7 -72.5 13.0 -72.6 13.5 -72.65 13.95 -72.75 14.5 -72.8 15.0 -72.85 15.6 -72.85 16.2 -72.85 16.85 -72.8 17.45 -72.75 18.15 -72.65 18.8 -72.5 19.5 -72.25 20.2 -72.05 20.9 -71.7 21.6 -71.5 22.0 -71.3 22.35 -71.1 22.75 -70.85 23.05 -70.65 23.4 -70.4 23.7 -70.15 24.0 -69.9 24.25 -69.7 24.55 -69.45 24.75 -69.25 25.0 -69.0 25.2 -68.8 25.4 -68.55 25.6 -68.4 25.75 -68.15 25.9 -68.25 26.25 -68.3 26.65 -68.4 27.05 -68.5 27.45 -68.6 27.9 -68.65 28.4 -68.75 28.85 -68.8 29.35 -68.85 29.9 -68.9 30.45 -69.0 31.0 -69.0 31.55 -69.05 32.15 -69.1 32.75 -69.1 33.4 -69.1 34.0 -69.1 35.15 -69.1 35.65 -69.05 36.55 -69.05 37.25 -69.0 38.1 -68.95 38.8 -68.85 39.6 -68.75 40.3 -68.6 41.1 -68.45 41.8 -68.25 42.5 -68.0 43.2 -67.7 43.95 -67.35 44.6 -66.95 45.3 -66.5 45.95 -65.95 46.75 -65.3 47.4 -64.7 48.05 -64.0 48.6 -63.4 49.15 -62.7 49.6 -62.05 50.0 -61.4 50.3 -60.85 50.6 -60.25 50.85 -59.75 51.1 -59.2 51.25 -58.8 51.4 -58.4 51.5 -58.15 51.55 -57.9 51.65 -57.6 51.7 -57.4 51.75 -57.1 51.8 -56.85 51.85 -56.5 51.9 -56.2 51.95 -55.85 52.0 -55.5 52.0 -55.1 52.05 -54.7 52.05 -54.3 52.05 -53.9 52.0 -53.45 51.95 -53.0 51.85 -52.55 51.75 -52.1 51.65 -51.8 51.55 -51.45 51.45 -51.2 51.35 -50.9 51.2 -50.6 51.1 -50.35 50.95 -50.1 50.8 -49.85 50.65 -49.65 50.55 -49.45 50.4 -49.25 50.25 -49.05 50.15 -48.9 50.0 -48.7 49.9 -48.55 49.75 -48.4 49.65 -48.55 49.6 -48.75 49.6 -49.0 49.5 -49.25 49.45 -49.6 49.35 -49.95 49.2 -50.35 49.05 -50.7 48.85 -51.15 48.65 -51.55 48.4 -52.0 48.1 -52.4 47.75 -52.85 47.4 -53.2 46.95 -53.6 46.5 -53.95 45.95 -54.05 45.8 -54.1 45.7 -54.2 45.5 -54.3 45.3 -54.45 45.0 -54.55 44.7 -54.7 44.35 -54.8 44.0 -54.95 43.6 -55.0 43.2 -55.1 42.8 -55.1 42.35 -55.1 41.85 -55.05 41.4 -55.0 40.9 -54.85 40.45 -54.8 40.25 -54.7 40.1 -54.65 39.9 -54.55 39.75 -54.4 39.55 -54.3 39.4 -54.15 39.2 -53.95 39.0 -53.75 38.75 -53.5 38.5 -53.2 38.25 -52.9 37.95 -52.55 37.65 -52.1 37.3 -51.7 36.95 -51.15 36.45 -50.9 36.25 -50.65 36.05 -50.4 35.8 -50.1 35.6 -49.85 35.35 -49.55 35.1 -49.25 34.9 -48.95 34.65 -48.65 34.4 -48.35 34.1 -48.0 33.85 -47.7 33.6 -47.35 33.3 -47.0 33.05 -46.65 32.75 -46.25 32.5 -46.45 32.8 -46.7 33.15 -46.95 33.6 -47.25 34.05 -47.55 34.6 -47.85 35.2 -48.15 35.9 -48.4 36.6 -48.7 37.4 -48.9 38.2 -49.1 39.05 -49.2 39.95 -49.3 40.9 -49.25 41.8 -49.25 42.85 -49.05 43.8 -48.9 44.45 -48.7 45.1 -48.5 45.7 -48.25 46.3 -48.05 46.8 -47.75 47.35 -47.5 47.8 -47.25 48.25 -47.0 48.7 -46.7 49.05 -46.45 49.4 -46.2 49.7 -46.0 50.0 -45.8 50.2 -45.65 50.4 -45.5 50.55 -45.05 51.05 -44.55 51.5 -44.15 51.9 -43.7 52.25 -43.3 52.5 -42.8 52.85 -42.6 52.95 -41.9 53.4 -41.35 53.75 -41.0 54.0 -40.5 54.35 -40.0 54.7 -39.45 55.1 -38.9 55.6 -38.3 56.2 -37.7 56.85 -37.3 57.3 -36.95 57.7 -36.65 58.05 -36.35 58.45 -36.1 58.8 -35.9 59.1 -35.7 59.45 -35.5 59.75 -35.35 60.0 -35.25 60.25 -35.1 60.5 -35.05 60.75 -34.95 61.0 -34.9 61.2 -34.85 61.4 -34.8 61.6 -34.75 61.75 -34.75 61.9 -34.7 62.1 -34.65 62.3 -34.6 62.6 -34.6 62.85 -34.55 63.15 -34.55 63.5 -34.55 63.85 -34.6 64.2 -34.65 64.6 -34.7 64.95 -34.8 65.4 -34.9 65.8 -35.05 66.25 -35.25 66.65 -35.35 66.85 -35.4 67.0 -35.5 67.2 -35.6 67.4 -35.75 67.65 -35.85 67.85 -36.0 68.05 -36.15 68.3 -36.35 68.5 -36.55 68.75 -36.75 68.95 -37.0 69.15 -37.25 69.35 -37.55 69.55 -37.85 69.7 -38.15 69.85 -38.55 70.05 -39.0 70.15 -39.4 70.2 -39.8 70.25 -40.15 70.25 -40.55 70.25 -40.9 70.2 -41.25 70.15 -41.55 70.05 -41.85 70.0 -42.1 69.9 -42.35 69.8 -42.5 69.75 -42.7 69.65 -42.8 69.6 -42.9 69.55 -42.75 69.75 -42.6 69.95 -42.4 70.2 -42.15 70.5 -41.9 70.75 -41.6 71.05 -41.25 71.4 -40.9 71.65 -40.55 72.0 -40.1 72.3 -39.65 72.6 -39.2 72.9 -38.65 73.15 -38.1 73.4 -37.55 73.65 -36.95 73.85 -36.3 74.05 -35.6 74.15 -35.0 74.25 -34.35 74.3 -33.8 74.3 -33.2 74.25 -32.65 74.25 -32.1 74.15 -31.6 74.05 -31.1 73.95 -30.65 73.85 -30.2 73.7 -29.85 73.6 -29.45 73.45 -29.2 73.4 -28.8 73.25 -28.45 73.1 -28.25 73.05 -27.95 72.9 -27.65 72.75 -27.3 72.6 -27.0 72.45 -26.6 72.25 -26.3 72.05 -25.9 71.85 -25.55 71.6 -25.2 71.3 -24.85 71.0 -24.45 70.7 -24.15 70.35 -23.75 69.95 -23.45 69.55 -23.3 69.35 -23.15 69.15 -23.0 68.95 -22.9 68.75 -22.75 68.55 -22.65 68.35 -22.55 68.15 -22.45 67.95 -22.35 67.8 -22.3 67.6 -22.2 67.45 -22.15 67.25 -22.1 67.1 -22.0 66.95 -21.95 66.8 -21.9 66.65 -21.55 66.95 -21.2 67.25 -20.85 67.55 -20.5 67.85 -20.2 68.1 -19.85 68.4 -19.55 68.65 -19.2 68.9 -18.9 69.15 -18.6 69.4 -18.35 69.6 -18.05 69.85 -17.8 70.05 -17.5 70.25 -17.25 70.45 -17.0 70.6 -16.05 71.35 -15.2 71.95 -14.4 72.5 -13.65 73.0 -13.0 73.45 -12.4 73.8 -11.8 74.15 -11.3 74.4 -10.85 74.65 -10.45 74.8 -10.05 75.0 -9.7 75.1 -9.4 75.2 -9.1 75.25 -8.85 75.3 -8.6 75.35 -8.3 75.4 -7.95 75.45 -7.65 75.5 -7.35 75.5 -7.1 75.55 -6.8 75.55 -6.5 75.55 -6.25 75.55 -6.0 75.55 -5.75 75.5 -5.5 75.5 -5.25 75.5 -5.05 75.45 -4.85 75.45 -4.65 75.4 -4.45 75.35 -4.55 75.2 -4.6 75.05 -4.7 74.85 -4.8 74.7 -4.9 74.5 -4.95 74.3 -5.05 74.05 -5.15 73.85 -5.2 73.6 -5.3 73.35 -5.35 73.1 -5.4 72.85 -5.45 72.55 -5.5 72.3 -5.5 72.0 -5.55 71.7 -5.55 71.25 -5.55 70.85 -5.5 70.45 -5.4 70.05 -5.35 69.65 -5.2 69.25 -5.1 68.85 -4.9 68.45 -4.75 68.05 -4.55 67.6 -4.35 67.2 -4.1 66.7 -3.85 66.3 -3.55 65.75 -3.3 65.35 -2.95 64.65 -2.0 63.1 0.15 60.05 0.35 59.75 0.55 59.5 0.75 59.2 0.95 58.95 1.15 58.7 1.3 58.45 1.5 58.2 1.65 57.95 1.85 57.75 2.0 57.5 2.15 57.3 2.35 57.1 2.45 56.9 2.6 56.75 2.75 56.55 2.9 56.4 2.95 56.55 3.05 56.7 3.1 56.85 3.15 57.0 3.25 57.2 3.3 57.4 3.4 57.6 3.45 57.8 3.5 58.0 3.55 58.25 3.6 58.45 3.65 58.7 3.7 58.95 3.75 59.2 3.8 59.5 3.8 59.75 3.85 60.35 3.85 61.0 3.8 61.55 3.7 62.1 3.65 62.6 3.5 63.1 3.4 63.6 3.25 64.0 3.1 64.4 2.9 64.8 2.75 65.1 2.6 65.4 2.45 65.65 2.3 65.9 2.25 66.05 2.15 66.2 2.0 66.4 1.8 66.65 1.65 66.85 1.5 67.05 1.35 67.2 1.15 67.4 1.0 67.6 0.8 67.75 0.65 67.9 0.5 68.05 0.3 68.2 0.15 68.3 0.0 68.45 -0.15 68.55 -0.3 68.7 -0.5 68.8 -0.35 68.8 -0.2 68.85 -0.05 68.85 0.15 68.85 0.3 68.85 0.5 68.85 0.65 68.9 0.85 68.9 1.05 68.9 1.2 68.9 1.4 68.9 1.6 68.85 1.8 68.85 2.0 68.85 2.2 68.8 2.45 68.8 2.85 68.75 3.2 68.65 3.55 68.6 3.9 68.5 4.25 68.4 4.6 68.3 4.9 68.2 5.2 68.05 5.45 67.95 5.75 67.8 6.0 67.7 6.2 67.55 6.45 67.45 6.65 67.35 6.85 67.2 7.05 67.1 6.9 67.3 6.75 67.45 6.6 67.65 6.45 67.85 6.3 68.05 6.2 68.25 6.05 68.45 5.9 68.65 5.75 68.85 5.6 69.05 5.45 69.25 5.3 69.45 5.15 69.65 5.0 69.9 4.85 70.1 4.75 70.3 4.55 70.65 4.3 70.95 4.1 71.3 3.9 71.6 3.7 71.95 3.5 72.25 3.3 72.6 3.15 72.9 2.95 73.25 2.8 73.55 2.6 73.85 2.45 74.15 2.3 74.45 2.1 74.75 1.95 75.05 1.8 75.35 2.15 75.45 2.55 75.5 2.9 75.55 3.25 75.6 3.6 75.65 3.9 75.7 4.25 75.7 4.55 75.75 4.85 75.8 5.15 75.8 5.45 75.8 5.7 75.8 6.0 75.85 6.25 75.85 6.5 75.85 6.7 75.85 7.45 75.85 7.8 75.85 8.45 75.8 8.95 75.8 9.5 75.75 10.05 75.7 10.6 75.65 11.15 75.55 11.7 75.45 12.2 75.3 12.75 75.1 13.25 74.9 13.75 74.65 14.2 74.4 14.7 74.05 15.15 73.7 15.35 73.5 15.55 73.3 15.75 73.1 15.95 72.9 16.1 72.7 16.25 72.5 16.4 72.3 16.55 72.1 16.65 71.9 16.75 71.7 16.9 71.5 16.95 71.3 17.05 71.15 17.15 70.95 17.2 70.8 17.3 70.6 17.95 70.7 18.6 70.75 19.4 70.8 20.15 70.85 21.0 70.85 21.9 70.85 22.85 70.85 23.8 70.75 24.85 70.65 25.9 70.5 27.0 70.3 28.1 70.05 29.25 69.75 30.4 69.4 31.6 69.0 32.75 68.5 33.2 68.3 33.7 68.05 34.1 67.85 34.55 67.6 35.0 67.4 35.4 67.15 35.8 66.95 36.2 66.7 36.55 66.45 36.9 66.2 37.3 66.0 37.6 65.75 37.95 65.5 38.3 65.25 38.6 65.05 38.9 64.8 38.95 65.6 39.05 67.25 39.55 67.2 40.05 67.15 40.7 67.1 41.35 66.95 42.1 66.85 42.9 66.65 43.75 66.4 44.6 66.15 45.55 65.8 46.45 65.4 47.4 65.0 48.35 64.45 49.35 63.85 50.25 63.2 51.2 62.45 52.05 61.6 52.8 60.85 53.45 60.05 54.05 59.3 54.6 58.45 55.1 57.65 55.5 56.8 55.9 56.05 56.3 55.2 56.6 54.45 56.9 53.65 57.15 53.0 57.35 52.25 57.55 51.6 57.75 50.9 57.85 50.5 58.05 49.8 58.15 49.5 58.2 49.15 58.25 48.85 58.35 48.55 58.4 48.25 58.45 47.95 58.5 47.65 58.55 47.4 58.6 47.1 58.6 46.85 58.65 46.6 58.7 46.35 58.7 46.15 58.75 45.9 58.75 45.7 58.8 45.5 59.2 45.4 59.6 45.3 60.15 45.15 60.7 45.0 61.3 44.8 61.95 44.55 62.65 44.3 63.3 43.95 64.05 43.6 64.8 43.15 65.55 42.7 66.3 42.15 67.05 41.55 67.8 40.9 68.55 40.2 69.2 39.4 69.9 38.6 70.45 37.7 71.0 36.85 71.4 36.0 71.85 35.15 72.15 34.3 72.45 33.45 72.7 32.6 72.9 31.85 73.05 31.0 73.15 30.3 73.25 29.55 73.35 28.9 73.4 28.15 73.45 27.75 73.5 26.95 73.5 26.6 73.55 26.3 73.55 25.85 73.55 25.4 73.55 24.85 73.5 24.2 73.45 23.5 73.35 22.75 73.25 21.85 73.1 20.95 72.9 19.9 72.65 18.8 72.4 17.6 72.05 16.35 71.65 14.95 71.2 13.5 L71.2 13.5 M62.5 34.1 Q62.5 34.4 62.45 34.6 62.4 34.9 62.4 35.15 62.35 35.4 62.3 35.65 62.25 35.9 62.15 36.15 62.1 36.4 62.0 36.65 61.9 36.9 61.8 37.1 61.7 37.35 61.55 37.55 61.4 37.8 61.2 38.0 61.1 38.1 61.0 38.2 60.85 38.25 60.7 38.3 60.6 38.35 60.45 38.35 60.3 38.35 60.15 38.35 60.05 38.3 59.9 38.25 59.75 38.2 59.65 38.15 59.5 38.05 59.4 37.95 59.3 37.85 59.25 37.7 59.15 37.55 59.1 37.4 59.0 37.25 58.95 37.1 58.85 36.95 58.8 36.8 58.75 36.65 58.65 36.5 58.6 36.35 58.55 36.2 58.5 36.0 58.45 35.85 58.45 35.7 58.4 35.55 58.35 35.35 58.35 35.2 58.3 34.9 58.25 34.55 58.2 34.25 58.15 33.9 58.15 33.6 58.1 33.25 58.1 32.95 58.1 32.6 58.1 32.3 58.1 31.95 58.1 31.65 58.1 31.3 58.1 31.0 58.1 30.65 58.1 30.35 58.15 30.0 58.25 26.7 58.1 25.45 57.9 24.3 57.7 23.5 57.6 23.0 57.3 21.55 57.0 20.3 56.9 19.55 56.85 19.3 56.8 19.05 56.75 18.8 56.75 18.6 56.7 18.35 56.65 18.1 56.65 17.85 56.6 17.6 56.6 17.35 56.6 17.1 56.55 16.85 56.55 16.6 56.55 16.35 56.6 16.15 56.6 15.9 56.6 15.65 56.6 15.6 56.6 15.6 56.6 15.55 56.6 15.5 56.65 15.5 56.65 15.45 56.65 15.4 56.65 15.4 56.65 15.35 56.65 15.3 56.65 15.3 56.7 15.25 56.7 15.2 56.7 15.2 56.7 15.15 56.75 15.1 56.7 15.0 56.65 14.85 56.65 14.75 56.6 14.65 56.55 14.55 56.5 14.4 56.5 14.3 56.45 14.15 56.4 14.05 56.4 13.95 56.35 13.8 56.3 13.7 56.3 13.6 56.25 13.45 56.25 13.35 56.2 13.2 56.15 13.1 56.15 12.95 56.15 12.85 56.15 12.7 56.2 12.6 56.25 12.5 56.25 12.35 56.3 12.25 56.4 12.15 56.45 12.05 56.55 12.0 56.65 11.9 56.75 11.8 56.85 11.75 56.95 11.7 57.1 11.65 57.2 11.6 57.35 11.6 57.45 11.6 57.6 11.6 57.7 11.65 57.8 11.7 57.95 11.7 58.05 11.8 58.15 11.85 58.25 11.95 58.35 12.0 58.4 12.1 58.5 12.2 58.55 12.3 58.6 12.45 58.65 12.55 58.7 12.85 58.85 13.35 59.2 14.6 60.05 17.15 60.3 17.6 61.0 18.9 62.3 21.35 62.85 22.8 62.95 23.05 63.05 23.3 63.1 23.55 63.2 23.85 63.25 24.1 63.35 24.35 63.4 24.6 63.45 24.85 63.5 25.15 63.55 25.4 63.6 25.65 63.6 25.95 63.65 26.2 63.65 26.45 63.7 26.75 63.7 27.0 63.7 27.45 63.7 27.9 63.7 28.35 63.65 28.8 63.6 29.25 63.55 29.7 63.5 30.15 63.4 30.6 63.35 31.05 63.25 31.5 63.15 31.9 63.0 32.35 62.9 32.8 62.75 33.25 62.65 33.65 62.5 34.1 L62.5 34.1" fill="url(#gradient0)" fill-rule="evenodd" stroke="none"/>
  </g>
  <defs>
    <linearGradient gradientTransform="matrix(0.0, 0.0972, -0.0972, 0.0, 0.3, -3.8)" gradientUnits="userSpaceOnUse" id="gradient0" spreadMethod="pad" x1="-819.2" x2="819.2">
      <stop offset="0.0" stop-color="#fff23c" stop-opacity="0.0"/>
      <stop offset="0.3803921568627451" stop-color="#fff23c" stop-opacity="0.84705883"/>
      <stop offset="0.6039215686274509" stop-color="#fff23c" stop-opacity="0.8"/>
      <stop offset="1.0" stop-color="#fff23c" stop-opacity="0.0"/>
    </linearGradient>
  </defs>
</svg>
