<?xml version="1.0" encoding="UTF-8" standalone="no"?>
<svg xmlns:xlink="http://www.w3.org/1999/xlink" height="300.0px" width="400.0px" xmlns="http://www.w3.org/2000/svg">
  <g transform="matrix(1.0, 0.0, 0.0, 1.0, 200.0, 150.0)">
    <path d="M-95.75 122.15 Q-88.5 130.1 -86.8 131.35 -85.8 132.1 -84.75 132.8 -83.75 133.45 -82.75 134.05 -81.8 134.55 -80.85 135.05 -79.95 135.5 -79.0 135.9 -78.2 136.25 -77.35 136.6 -76.6 136.9 -75.85 137.15 -75.25 137.35 -74.55 137.55 -74.1 137.7 -73.5 137.9 -72.1 138.3 -70.65 138.65 -69.3 138.95 -67.9 139.15 -66.6 139.35 -65.3 139.5 -64.05 139.6 -62.8 139.65 -61.65 139.7 -60.5 139.7 -59.45 139.7 -58.35 139.65 -57.4 139.6 -56.45 139.5 -55.55 139.4 -54.7 139.3 -54.45 139.5 -54.2 139.7 -53.95 139.95 -53.7 140.15 -53.4 140.4 -53.15 140.65 -52.85 140.95 -52.55 141.2 -52.25 141.5 -52.0 141.8 -51.65 142.1 -51.35 142.45 -51.05 142.75 -50.75 143.1 -50.45 143.45 -50.1 143.85 -49.85 144.15 -49.65 144.35 -49.4 144.7 -49.15 145.0 -48.85 145.35 -48.55 145.7 -48.25 146.15 -47.95 146.55 -47.6 147.05 -47.3 147.5 -46.95 148.0 -46.65 148.55 -46.3 149.1 -46.0 149.65 -45.7 150.25 -45.4 150.85 -44.95 151.75 -44.65 152.7 -44.3 153.65 -44.05 154.55 -43.85 155.45 -43.65 156.4 -43.5 157.25 -43.4 158.1 -43.35 158.95 -43.3 159.8 -43.25 160.55 -43.25 161.35 -43.3 162.1 -43.35 162.8 -43.4 163.45 -43.45 164.1 -43.3 163.9 -43.1 163.65 -42.95 163.4 -42.75 163.15 -42.6 162.9 -42.4 162.65 -42.25 162.35 -42.1 162.1 -41.9 161.8 -41.75 161.5 -41.55 161.15 -41.4 160.85 -41.25 160.5 -41.1 160.15 -40.95 159.8 -40.8 159.45 -40.45 158.55 -40.2 157.6 -39.95 156.7 -39.8 155.75 -39.65 154.9 -39.6 154.05 -39.55 153.25 -39.55 152.45 -39.55 151.75 -39.6 151.0 -39.65 150.35 -39.75 149.7 -39.8 149.15 -39.9 148.6 -40.0 148.15 -40.1 147.7 -39.8 147.95 -39.5 148.2 -39.15 148.45 -38.8 148.75 -38.45 149.0 -38.1 149.3 -37.7 149.55 -37.3 149.85 -36.85 150.15 -36.45 150.45 -36.0 150.75 -35.55 151.0 -35.05 151.35 -34.6 151.6 -34.1 151.9 -33.55 152.2 -33.15 152.45 -32.8 152.6 -32.35 152.9 -31.95 153.1 -31.4 153.4 -30.9 153.65 -30.35 153.95 -29.75 154.2 -29.1 154.5 -28.45 154.8 -27.7 155.1 -27.0 155.35 -26.2 155.65 -25.45 155.9 -24.6 156.2 -23.75 156.4 -23.4 156.5 -23.05 156.6 -22.5 156.7 -21.9 156.85 -21.2 157.0 -20.45 157.1 -19.5 157.25 -18.6 157.4 -17.5 157.5 -16.4 157.55 -15.2 157.65 -14.0 157.65 -12.65 157.65 -11.3 157.6 -9.85 157.5 -8.4 157.35 -7.05 157.15 -5.7 156.9 -4.45 156.65 -3.2 156.35 -2.1 156.05 -0.95 155.7 0.05 155.4 1.0 155.0 1.9 154.7 2.75 154.3 3.45 154.0 4.15 153.65 4.75 153.4 5.3 153.1 5.7 152.9 6.1 152.65 6.65 152.35 7.1 152.1 7.65 151.8 8.15 151.5 8.75 151.15 9.3 150.8 9.95 150.4 10.55 150.0 11.2 149.55 11.75 149.1 12.4 148.6 13.0 148.05 13.65 147.5 14.2 146.95 14.8 146.3 15.3 145.65 15.4 145.55 15.5 145.4 15.6 145.3 15.8 145.05 16.05 144.7 16.1 144.65 16.3 144.4 16.5 144.2 16.75 143.9 16.95 143.65 17.2 143.35 17.5 143.05 17.75 142.7 18.05 142.35 18.4 142.0 18.7 141.65 19.9 140.3 20.9 139.35 21.65 138.6 22.1 138.1 22.45 137.65 22.65 137.4 23.05 136.9 23.4 136.45 23.8 135.85 24.2 135.25 24.65 134.5 25.0 133.8 25.45 133.0 25.75 132.25 26.1 131.35 26.3 130.55 26.5 129.6 26.6 128.75 26.65 127.8 26.5 126.9 26.45 126.7 26.4 126.4 26.75 128.25 26.35 125.85 26.25 125.5 26.25 125.25 26.2 124.95 26.15 124.7 26.15 124.4 26.15 124.15 26.15 123.9 26.2 123.7 26.25 123.45 26.35 123.25 26.45 123.1 26.65 123.0 26.7 122.95 26.75 122.9 26.85 122.9 26.9 122.85 26.95 122.85 27.05 122.8 27.1 122.8 27.15 122.8 27.25 122.75 27.3 122.75 27.35 122.75 27.4 122.75 27.45 122.75 27.5 122.75 27.55 122.75 27.6 122.75 27.8 122.75 27.95 122.8 28.15 122.8 28.3 122.85 28.45 122.9 28.6 122.95 28.75 123.05 28.9 123.1 29.05 123.2 29.15 123.25 29.25 123.35 29.35 123.4 29.45 123.5 29.55 123.55 29.6 123.6 29.65 123.65 34.3 127.75 34.55 128.1 35.7 129.6 37.8 132.05 40.2 134.9 41.1 136.0 42.2 137.35 42.75 138.1 43.55 139.05 44.05 139.7 44.65 140.45 45.05 140.95 45.5 141.5 45.85 141.85 46.2 142.25 46.45 142.55 46.7 142.85 46.95 143.05 47.15 143.25 47.4 143.45 47.55 143.6 47.85 143.75 48.4 144.15 49.0 144.55 49.55 144.85 50.1 145.2 50.65 145.45 51.2 145.7 51.7 145.95 52.25 146.15 52.7 146.3 53.2 146.5 53.6 146.6 54.0 146.75 54.4 146.85 54.75 146.9 55.05 147.0 55.35 147.05 56.25 147.25 57.15 147.3 58.05 147.4 58.9 147.4 59.7 147.4 60.5 147.35 61.25 147.3 61.95 147.2 62.65 147.1 63.3 146.95 63.9 146.8 64.45 146.65 64.95 146.5 65.45 146.35 65.85 146.2 66.25 146.05 65.9 145.95 65.6 145.85 65.2 145.7 64.85 145.55 64.45 145.4 64.05 145.25 63.65 145.1 63.25 144.9 62.8 144.7 62.35 144.5 61.9 144.25 61.45 144.05 60.95 143.75 60.45 143.5 59.95 143.2 59.5 142.9 58.45 142.25 57.5 141.55 56.6 140.85 55.75 140.05 54.95 139.35 54.2 138.55 53.45 137.75 52.75 136.9 52.1 136.1 51.4 135.15 50.8 134.3 50.15 133.3 49.6 132.45 48.9 131.35 48.45 130.65 47.6 129.25 47.15 128.55 46.8 127.95 46.45 127.3 46.15 126.7 45.8 126.1 45.55 125.55 45.3 124.95 45.1 124.45 44.9 123.9 44.75 123.35 44.6 122.85 44.5 122.3 44.4 121.8 44.35 121.25 44.25 120.7 44.25 120.15 44.25 119.8 44.25 119.65 44.25 119.3 44.25 119.0 44.3 118.6 44.35 118.3 44.35 117.9 44.45 117.55 44.55 117.15 44.65 116.8 44.75 116.4 44.95 116.1 45.15 115.75 45.35 115.5 45.6 115.25 45.95 115.05 46.2 114.9 46.45 114.8 46.75 114.75 47.0 114.7 47.3 114.7 47.65 114.75 47.95 114.8 48.3 114.85 48.6 114.95 49.0 115.05 49.35 115.2 49.75 115.35 50.1 115.5 50.55 115.7 50.9 115.85 51.45 116.1 52.0 116.35 52.55 116.6 53.05 116.85 53.55 117.15 54.05 117.4 54.55 117.7 55.0 118.0 55.5 118.3 55.95 118.6 56.4 118.9 56.85 119.2 57.3 119.55 57.75 119.9 58.2 120.25 58.6 120.6 59.1 120.95 61.05 122.6 65.6 126.9 66.4 127.65 67.3 128.5 73.15 134.05 68.65 129.8 69.25 130.4 69.65 130.75 70.1 131.15 70.4 131.45 70.75 131.75 71.0 131.95 71.25 132.15 71.45 132.3 71.65 132.45 71.9 132.6 72.1 132.7 72.35 132.85 73.0 133.2 73.7 133.5 74.35 133.75 75.05 133.95 75.65 134.15 76.3 134.3 76.9 134.4 77.5 134.5 78.05 134.6 78.65 134.6 79.15 134.65 79.65 134.7 80.05 134.7 80.55 134.7 80.8 134.7 81.25 134.7 82.0 134.7 82.7 134.65 83.4 134.55 84.1 134.45 84.7 134.35 85.35 134.25 85.95 134.1 86.55 133.9 87.15 133.75 87.75 133.55 88.25 133.4 88.85 133.2 89.3 133.0 89.9 132.75 90.25 132.6 90.95 132.35 91.9 131.95 92.3 131.8 93.0 131.5 93.5 131.3 94.1 131.05 94.55 130.8 95.05 130.55 95.5 130.35 95.95 130.1 96.35 129.85 96.75 129.55 97.1 129.25 97.45 129.0 97.8 128.65 98.15 128.3 98.5 127.9 98.95 127.35 99.35 126.8 99.7 126.2 100.0 125.6 100.3 125.05 100.5 124.45 100.75 123.9 100.9 123.3 101.05 122.75 101.2 122.15 101.3 121.6 101.4 121.0 101.45 120.55 101.55 119.95 101.6 119.6 101.65 118.95 101.7 118.6 101.7 118.4 101.75 118.0 101.75 117.7 101.8 117.25 101.8 116.85 101.8 116.4 101.8 115.95 101.8 115.45 101.75 114.9 101.7 114.35 101.65 113.8 101.55 113.2 101.45 112.65 101.3 112.0 101.15 111.35 101.0 110.9 100.95 110.6 100.8 110.15 100.65 109.7 100.45 109.2 100.25 108.7 100.05 108.15 99.75 107.6 99.45 107.05 99.15 106.5 98.75 105.85 98.35 105.3 97.9 104.7 97.4 104.15 96.85 103.55 96.25 103.0 95.6 102.45 94.95 101.95 94.3 101.5 93.6 101.1 93.0 100.75 92.3 100.45 91.7 100.15 91.1 99.95 90.5 99.75 89.95 99.55 89.4 99.45 88.9 99.3 88.45 99.25 88.05 99.15 87.7 99.1 87.35 99.1 87.75 99.45 88.15 99.85 88.5 100.2 88.85 100.6 89.2 100.95 89.5 101.3 89.8 101.65 90.1 102.0 90.35 102.35 90.6 102.7 90.85 103.0 91.1 103.35 91.3 103.65 91.5 103.95 91.65 104.2 91.85 104.5 92.05 104.85 92.2 105.05 92.4 105.4 92.55 105.65 92.7 106.0 92.9 106.3 93.05 106.65 93.2 106.95 93.4 107.3 93.55 107.65 93.7 108.05 93.8 108.45 93.95 108.85 94.1 109.25 94.2 109.7 94.3 110.15 94.4 110.6 94.45 110.8 94.5 111.2 94.55 111.5 94.65 111.9 94.65 112.25 94.7 112.6 94.75 113.0 94.75 113.35 94.75 113.75 94.7 114.15 94.65 114.55 94.6 114.95 94.5 115.35 94.4 115.8 94.25 116.2 94.2 116.4 94.1 116.55 94.0 116.75 93.9 117.0 93.75 117.3 93.6 117.6 93.4 117.9 93.2 118.25 92.9 118.6 92.65 118.9 92.35 119.25 92.0 119.55 91.6 119.9 91.2 120.2 90.7 120.5 90.2 120.75 89.95 120.9 89.65 121.0 89.4 121.1 89.1 121.15 88.85 121.25 88.6 121.3 88.35 121.35 88.1 121.35 87.85 121.4 87.65 121.4 87.45 121.45 87.25 121.45 87.05 121.45 86.85 121.45 86.7 121.45 86.55 121.45 86.2 121.4 85.9 121.3 85.55 121.2 85.2 121.1 84.85 121.0 84.45 120.9 84.05 120.75 83.65 120.6 83.25 120.45 82.8 120.3 82.35 120.1 81.95 119.9 81.5 119.7 81.05 119.45 80.55 119.2 80.1 118.95 79.3 118.45 78.55 117.9 77.8 117.4 77.15 116.8 76.5 116.25 75.9 115.6 75.35 115.0 74.8 114.35 74.25 113.75 73.75 113.0 73.3 112.4 72.8 111.65 72.35 111.0 71.85 110.2 71.55 109.7 70.9 108.75 70.4 107.95 70.25 107.7 69.9 107.1 69.6 106.65 69.3 106.1 69.0 105.6 68.7 105.0 68.4 104.45 68.1 103.9 67.85 103.3 67.55 102.7 67.3 102.05 67.05 101.4 66.8 100.75 66.55 100.05 66.3 99.3 66.0 98.2 65.75 97.1 65.5 96.1 65.35 95.05 65.2 94.05 65.1 93.05 65.05 92.15 65.0 91.25 64.95 90.4 65.0 89.55 65.0 88.85 65.05 88.05 65.05 87.4 65.15 86.7 65.15 86.25 65.25 85.6 65.35 84.45 65.5 83.4 65.6 82.45 65.75 81.6 65.85 80.75 66.0 80.05 66.15 79.4 66.25 78.85 66.4 78.3 66.55 77.85 66.7 77.4 66.85 77.05 66.95 76.75 67.1 76.45 67.2 76.2 67.35 76.0 67.7 75.4 70.55 72.2 72.2 70.35 74.0 68.4 75.75 66.55 76.4 65.8 78.25 63.7 82.25 58.35 83.2 57.05 83.6 56.55 84.25 55.6 84.75 54.95 85.35 54.15 85.8 53.5 86.3 52.8 86.7 52.2 87.15 51.55 87.5 50.95 87.9 50.35 88.25 49.8 88.6 49.2 88.9 48.65 89.25 48.05 89.55 47.45 89.85 46.8 89.95 46.65 90.15 46.15 90.35 45.8 90.55 45.35 90.7 44.95 90.95 44.45 91.1 44.05 91.3 43.55 91.45 43.1 91.65 42.6 91.8 42.1 91.95 41.55 92.1 41.0 92.25 40.45 92.4 39.85 92.6 39.0 92.75 38.15 92.85 37.3 92.95 36.5 93.0 35.7 93.0 34.85 93.05 34.1 93.0 33.25 93.0 32.5 92.95 31.7 92.9 30.95 92.8 30.05 92.75 29.35 92.6 28.4 92.55 27.8 92.4 26.7 92.3 25.85 92.25 25.4 92.15 24.7 92.05 24.15 92.0 23.55 91.9 23.0 91.8 22.4 91.7 21.85 91.6 21.25 91.45 20.7 91.35 20.1 91.2 19.55 91.05 18.95 90.85 18.4 90.65 17.8 90.45 17.15 90.15 16.25 89.8 15.45 89.5 14.7 89.1 13.95 88.75 13.3 88.35 12.6 88.0 12.0 87.45 11.15 87.65 11.4 86.45 9.55 85.75 8.45 85.2 7.55 84.45 6.3 83.7 5.05 82.85 3.6 81.95 1.95 79.5 -2.45 78.45 -4.8 78.1 -5.5 77.9 -6.05 77.55 -6.75 77.25 -7.45 76.9 -8.3 76.55 -9.1 76.2 -10.0 75.85 -10.9 75.5 -11.9 75.15 -12.95 74.8 -14.0 74.45 -15.1 74.1 -16.3 73.85 -17.5 73.5 -18.75 73.25 -20.0 73.15 -20.6 72.2 -29.15 70.8 -41.25 70.9 -43.1 70.95 -44.0 71.05 -44.85 71.1 -45.55 71.25 -46.35 71.3 -46.7 71.4 -47.55 71.55 -48.25 71.6 -48.6 71.65 -49.15 71.65 -49.55 71.7 -50.05 71.65 -50.45 71.6 -50.9 71.5 -51.35 71.35 -51.85 71.15 -52.35 71.0 -52.7 70.85 -52.95 70.7 -53.25 70.5 -53.5 70.35 -53.75 70.1 -54.05 69.85 -54.3 69.6 -54.6 69.3 -54.9 68.9 -55.25 68.6 -55.6 68.1 -56.0 67.8 -56.3 67.1 -56.9 66.3 -57.65 65.9 -58.0 63.1 -60.55 61.1 -62.55 59.55 -64.0 58.7 -64.75 57.25 -66.0 55.5 -67.2 53.9 -68.35 52.1 -69.45 50.4 -70.5 48.55 -71.5 46.85 -72.4 44.95 -73.3 43.3 -74.1 41.45 -74.9 39.9 -75.6 38.2 -76.3 36.8 -76.85 35.2 -77.5 34.15 -77.9 32.65 -78.45 31.15 -79.0 30.4 -79.3 29.15 -79.75 28.15 -80.1 26.95 -80.55 25.9 -80.95 24.65 -81.35 23.55 -81.7 22.3 -82.1 21.1 -82.45 19.8 -82.85 18.55 -83.2 17.2 -83.55 15.8 -83.85 14.4 -84.2 12.9 -84.5 11.0 -84.9 9.55 -85.15 7.45 -85.55 5.5 -85.85 3.05 -86.2 0.7 -86.45 -2.0 -86.75 -4.7 -86.85 -7.7 -87.0 -10.65 -86.95 -13.9 -86.9 -17.1 -86.6 -20.55 -86.25 -24.0 -85.65 -27.65 -85.0 -31.2 -84.05 -32.2 -83.8 -33.2 -83.5 -34.3 -83.15 -35.4 -82.8 -36.55 -82.45 -37.7 -82.05 -38.95 -81.6 -40.15 -81.1 -41.45 -80.6 -42.75 -80.05 -44.1 -79.5 -45.45 -78.85 -46.85 -78.2 -48.25 -77.5 -49.7 -76.75 -51.15 -75.95 -51.7 -74.4 -52.2 -72.9 -52.7 -71.45 -53.2 -70.0 -53.65 -68.6 -54.05 -67.2 -54.45 -65.9 -54.85 -64.65 -55.2 -63.4 -55.5 -62.2 -55.85 -61.1 -56.15 -59.95 -56.4 -58.9 -56.65 -57.9 -56.9 -56.95 -57.1 -56.0 -57.25 -55.3 -57.55 -54.1 -57.8 -52.9 -57.95 -52.4 -58.15 -51.5 -58.35 -50.85 -58.55 -50.1 -58.75 -49.5 -58.95 -48.8 -59.2 -48.25 -59.45 -47.65 -59.75 -47.1 -60.05 -46.55 -60.4 -46.0 -60.8 -45.5 -61.25 -45.0 -62.0 -44.15 -62.9 -43.45 -63.75 -42.8 -64.75 -42.3 -65.7 -41.8 -66.7 -41.4 -67.7 -41.05 -68.75 -40.75 -69.7 -40.55 -70.75 -40.35 -71.75 -40.25 -72.75 -40.15 -73.65 -40.1 -74.6 -40.05 -75.4 -40.05 -76.25 -40.1 -76.2 -39.9 -76.1 -39.75 -76.05 -39.55 -75.95 -39.3 -75.85 -39.1 -75.75 -38.9 -75.6 -38.65 -75.5 -38.45 -75.35 -38.2 -75.2 -37.95 -75.0 -37.75 -74.85 -37.5 -74.65 -37.25 -74.4 -37.05 -74.2 -36.8 -73.95 -36.55 -73.75 -36.35 -73.65 -36.25 -73.4 -36.1 -73.2 -35.9 -72.95 -35.7 -72.7 -35.55 -72.4 -35.35 -72.1 -35.2 -71.75 -35.0 -71.45 -34.85 -71.05 -34.7 -70.65 -34.6 -70.25 -34.45 -69.8 -34.45 -69.35 -34.4 -68.9 -34.4 -68.65 -34.4 -68.4 -34.45 -68.2 -34.5 -67.95 -34.55 -67.75 -34.6 -67.55 -34.7 -67.35 -34.75 -67.15 -34.85 -66.95 -34.9 -66.8 -35.0 -66.65 -35.1 -66.5 -35.2 -66.35 -35.25 -66.2 -35.35 -66.1 -35.4 -66.0 -35.5 -67.95 -33.5 -71.95 -29.5 -76.45 -25.4 -85.45 -17.1 -85.85 -16.7 -86.2 -16.25 -86.6 -15.8 -86.95 -15.3 -87.35 -14.8 -87.7 -14.25 -88.1 -13.7 -88.45 -13.1 -88.85 -12.5 -89.2 -11.9 -89.55 -11.25 -89.9 -10.55 -90.25 -9.85 -90.55 -9.15 -90.85 -8.4 -91.1 -7.6 -91.3 -7.1 -91.4 -6.75 -91.55 -6.3 -91.7 -5.85 -91.85 -5.35 -91.95 -4.85 -92.1 -4.3 -92.2 -3.75 -92.35 -3.15 -92.4 -2.6 -92.5 -1.95 -92.55 -1.35 -92.6 -0.65 -92.6 0.0 -92.55 0.7 -92.5 1.45 -92.45 1.7 -92.45 1.95 -92.4 2.2 -92.35 2.45 -92.25 2.75 -92.15 3.1 -92.05 3.45 -91.9 3.9 -91.75 4.4 -91.55 4.95 -91.3 5.55 -91.0 6.25 -90.7 7.0 -90.3 7.95 -89.9 8.85 -89.45 10.0 -89.0 11.05 -84.7 20.4 -84.5 20.85 -84.3 21.3 -84.05 21.8 -83.8 22.35 -83.55 22.85 -83.3 23.45 -83.05 24.0 -82.8 24.6 -82.5 25.25 -82.25 25.9 -81.95 26.6 -81.65 27.25 -81.35 28.0 -81.05 28.7 -80.7 29.45 -80.4 30.25 -80.4 30.8 -80.35 31.3 -80.35 31.8 -80.35 32.3 -80.35 32.8 -80.4 33.3 -80.4 33.75 -80.4 34.2 -80.45 34.65 -80.5 35.1 -80.5 35.5 -80.55 35.9 -80.6 36.3 -80.6 36.7 -80.65 37.05 -80.7 37.45 -80.75 37.9 -80.8 38.25 -80.85 38.7 -80.9 39.1 -81.0 39.6 -81.05 40.1 -81.15 40.65 -81.25 41.2 -81.4 41.75 -81.5 42.35 -81.65 43.0 -81.85 43.6 -82.0 44.25 -82.2 44.9 -82.45 45.6 -82.7 46.3 -82.75 46.45 -82.85 46.65 -82.9 46.9 -83.0 47.2 -83.15 47.5 -83.25 47.8 -83.4 48.2 -83.55 48.55 -83.75 48.95 -83.9 49.35 -84.1 49.8 -84.35 50.2 -84.55 50.65 -84.8 51.1 -85.05 51.55 -85.3 52.0 -85.75 52.75 -86.25 53.45 -86.75 54.15 -87.3 54.8 -87.8 55.4 -88.4 56.0 -88.95 56.55 -89.55 57.1 -90.15 57.6 -90.8 58.15 -91.4 58.65 -92.15 59.2 -92.75 59.65 -93.6 60.25 -93.75 60.35 -95.1 61.3 -97.25 62.85 -98.3 63.65 -99.95 64.8 -101.15 65.7 -102.55 66.7 -103.6 67.5 -104.75 68.35 -105.7 69.1 -106.7 69.85 -107.5 70.5 -108.3 71.2 -109.0 71.8 -109.65 72.4 -110.2 72.95 -110.75 73.5 -111.2 74.05 -111.8 74.75 -112.1 75.2 -112.65 75.8 -113.05 76.35 -113.55 77.05 -113.95 77.65 -114.4 78.35 -114.8 79.0 -115.25 79.75 -115.6 80.5 -115.95 81.25 -116.25 82.05 -116.55 82.95 -116.8 83.8 -117.0 84.75 -117.15 85.7 -117.3 86.75 -117.35 87.85 -117.35 88.85 -117.25 89.9 -117.2 90.85 -117.0 91.8 -116.85 92.7 -116.6 93.6 -116.4 94.4 -116.15 95.2 -115.9 95.9 -115.6 96.65 -115.35 97.25 -115.05 97.95 -114.85 98.3 -114.55 99.0 -114.3 99.5 -114.05 100.0 -113.8 100.45 -113.5 101.0 -113.15 101.5 -112.8 102.0 -112.45 102.55 -112.0 103.1 -111.6 103.65 -111.1 104.3 -110.65 104.9 -110.05 105.65 -109.55 106.3 -108.85 107.15 -108.4 107.75 -107.5 108.8 -104.3 112.75 -95.75 122.15 L-95.75 122.15" fill="#95c2ff" fill-rule="evenodd" stroke="none"/>
  </g>
</svg>
