<?xml version="1.0" encoding="UTF-8" standalone="no"?>
<svg xmlns:xlink="http://www.w3.org/1999/xlink" height="182.1px" width="110.5px" xmlns="http://www.w3.org/2000/svg">
  <g transform="matrix(1.0, 0.0, 0.0, 1.0, 55.25, 91.05)">
    <path d="M-50.8 34.0 Q-50.15 34.0 -49.55 34.0 -48.9 34.0 -48.3 33.95 -47.65 33.85 -47.05 33.75 -46.45 33.65 -45.85 33.55 -45.25 33.4 -44.7 33.2 -44.1 33.0 -43.55 32.75 -42.95 32.5 -42.45 32.2 -41.85 31.9 -41.35 31.5 -41.35 31.45 -41.35 31.35 -41.55 31.35 -41.95 31.35 -42.3 31.35 -42.5 31.35 -42.75 31.35 -43.0 31.3 -43.3 31.3 -43.5 31.3 -43.8 31.25 -44.05 31.25 -44.3 31.2 -44.55 31.2 -44.8 31.15 -45.05 31.1 -45.3 31.1 -45.55 31.05 -45.8 31.0 -46.05 30.9 -46.3 30.85 -46.55 30.8 -46.8 30.75 -47.0 30.65 -47.25 30.55 -47.45 30.5 -47.65 30.4 -47.9 30.3 -48.1 30.2 -48.3 30.1 -48.5 30.0 -48.7 29.85 -48.9 29.75 -49.1 29.6 -49.3 29.5 -49.5 29.35 -49.7 29.2 -49.85 29.05 -50.1 28.85 -50.3 28.65 -50.5 28.4 -50.65 28.2 -50.8 27.95 -50.95 27.75 -51.05 27.5 -51.15 27.25 -51.2 27.0 -51.25 26.7 -51.3 26.45 -51.35 26.2 -51.35 25.9 -51.35 25.6 -51.3 25.35 -51.25 25.05 -51.2 24.9 -51.2 24.75 -51.15 24.6 -51.1 24.45 -51.05 24.3 -50.95 24.2 -50.9 24.05 -50.8 23.95 -50.75 23.8 -50.65 23.7 -50.55 23.6 -50.45 23.5 -50.4 23.4 -50.25 23.3 -50.15 23.2 -50.05 23.1 -48.6 24.0 -47.9 24.35 -47.75 24.4 -47.65 24.5 -47.5 24.55 -47.4 24.6 -47.25 24.65 -47.1 24.65 -46.95 24.7 -46.85 24.75 -46.7 24.75 -46.55 24.75 -46.4 24.8 -46.25 24.8 -46.15 24.8 -46.0 24.8 -45.85 24.8 -45.7 24.8 -45.55 24.8 -44.55 24.7 -43.85 24.65 -43.4 24.55 -43.05 24.45 -42.7 24.35 -42.4 24.25 -42.1 24.1 -41.8 23.95 -41.55 23.75 -41.25 23.6 -41.0 23.35 -40.75 23.15 -40.55 22.9 -40.35 22.65 -40.15 22.4 -39.95 22.1 -39.8 21.8 -39.6 21.55 -39.45 21.2 -39.25 20.8 -39.1 20.35 -38.95 19.95 -38.85 19.5 -38.75 19.1 -38.7 18.65 -38.65 18.25 -38.6 17.8 -38.6 17.35 -38.6 16.95 -38.6 16.5 -38.65 16.05 -38.7 15.6 -38.8 15.2 -38.85 14.75 -38.95 14.3 -39.05 13.85 -39.2 13.4 -39.35 12.95 -39.5 12.5 -39.65 12.05 -39.85 11.6 -40.0 11.15 -40.2 10.75 -40.4 10.3 -40.6 9.85 -40.75 9.45 -41.0 9.0 -41.2 8.6 -41.4 8.2 -41.65 7.8 -41.85 7.35 -46.25 -0.55 -47.2 -2.25 -47.5 -2.8 -47.75 -3.35 -48.05 -3.9 -48.3 -4.45 -48.55 -5.0 -48.8 -5.55 -49.05 -6.1 -49.3 -6.7 -49.5 -7.25 -49.7 -7.8 -49.95 -8.4 -50.15 -9.0 -50.3 -9.55 -50.5 -10.15 -50.65 -10.75 -50.85 -11.35 -51.15 -12.6 -51.35 -13.8 -51.55 -15.0 -51.6 -16.2 -51.7 -17.4 -51.65 -18.6 -51.55 -19.75 -51.4 -20.9 -51.2 -22.1 -50.9 -23.2 -50.55 -24.35 -50.15 -25.45 -49.7 -26.6 -49.15 -27.7 -48.6 -28.8 -47.9 -29.85 -47.6 -30.3 -47.35 -30.75 -47.05 -31.15 -46.75 -31.6 -46.45 -32.0 -46.1 -32.4 -45.8 -32.8 -45.45 -33.25 -45.15 -33.65 -44.8 -34.0 -44.45 -34.4 -44.1 -34.8 -43.75 -35.15 -43.4 -35.55 -43.05 -35.9 -42.65 -36.3 -42.3 -36.65 -41.95 -36.95 -41.55 -37.25 -41.2 -37.55 -40.8 -37.85 -40.4 -38.15 -40.05 -38.4 -39.6 -38.7 -39.2 -38.95 -38.8 -39.2 -38.4 -39.45 -37.95 -39.7 -37.55 -39.9 -37.1 -40.15 -36.7 -40.35 -36.25 -40.55 -36.15 -40.6 -34.55 -41.15 -34.85 -41.25 -35.0 -41.35 -36.0 -42.0 -36.1 -42.05 -36.25 -42.2 -36.4 -42.3 -36.6 -42.45 -36.75 -42.55 -36.9 -42.7 -37.1 -42.8 -37.25 -42.9 -37.45 -43.0 -37.6 -43.1 -37.8 -43.2 -38.0 -43.3 -38.2 -43.4 -38.35 -43.5 -38.55 -43.6 -38.0 -43.3 -38.9 -43.8 -39.4 -44.05 -39.85 -44.3 -40.3 -44.55 -40.75 -44.8 -41.2 -45.1 -41.6 -45.35 -42.05 -45.65 -42.45 -45.95 -42.85 -46.3 -43.25 -46.6 -43.65 -46.95 -44.0 -47.3 -44.4 -47.65 -44.75 -48.05 -45.1 -48.4 -45.45 -48.8 -45.95 -49.4 -46.35 -50.0 -46.8 -50.65 -47.1 -51.3 -47.45 -51.9 -47.7 -52.6 -48.0 -53.25 -48.2 -53.95 -48.35 -54.6 -48.5 -55.3 -48.6 -56.0 -48.65 -56.75 -48.7 -57.45 -48.7 -58.2 -48.65 -58.95 -48.6 -59.7 -48.5 -60.65 -48.25 -62.45 -48.0 -64.3 -47.9 -65.15 -47.85 -65.5 -47.8 -65.9 -47.8 -66.25 -47.75 -66.6 -47.75 -67.0 -47.7 -67.35 -47.7 -67.7 -47.7 -68.1 -47.7 -68.45 -47.75 -68.85 -47.75 -69.2 -47.75 -69.55 -47.8 -69.95 -47.8 -70.3 -47.85 -70.65 -47.85 -71.05 -47.85 -71.15 -48.65 -77.7 -48.7 -78.05 -48.8 -79.15 -48.85 -79.35 -48.85 -79.6 -48.85 -79.8 -48.8 -80.0 -48.8 -80.2 -48.7 -80.4 -48.65 -80.55 -48.6 -80.75 -48.55 -80.95 -48.45 -81.15 -48.35 -81.3 -48.25 -81.5 -48.15 -81.65 -48.0 -81.8 -47.9 -82.0 -47.75 -82.15 -47.6 -82.35 -47.45 -82.55 -47.3 -82.7 -47.15 -82.9 -46.95 -83.05 -46.8 -83.2 -46.6 -83.4 -46.45 -83.55 -46.25 -83.7 -46.05 -83.85 -45.85 -84.0 -45.65 -84.1 -45.45 -84.25 -45.25 -84.4 -45.05 -84.5 -44.85 -84.65 -44.6 -84.8 -44.3 -84.95 -44.05 -85.1 -43.75 -85.25 -43.5 -85.4 -43.2 -85.55 -42.9 -85.65 -42.65 -85.8 -42.35 -85.9 -42.05 -86.05 -41.8 -86.15 -41.5 -86.3 -41.2 -86.4 -40.9 -86.5 -40.6 -86.6 -40.3 -86.75 -39.5 -87.05 -38.75 -87.3 -37.95 -87.55 -37.2 -87.8 -36.4 -88.05 -35.65 -88.3 -34.85 -88.55 -34.05 -88.75 -33.25 -89.0 -32.45 -89.2 -31.65 -89.4 -30.85 -89.55 -30.05 -89.75 -29.25 -89.9 -28.45 -90.05 -27.65 -90.2 -26.8 -90.35 -25.9 -90.5 -25.05 -90.6 -24.15 -90.7 -23.3 -90.8 -22.4 -90.85 -21.55 -90.95 -20.65 -91.0 -19.8 -91.05 -18.9 -91.05 -18.0 -91.05 -17.15 -91.05 -16.25 -91.05 -15.4 -91.0 -14.5 -90.95 -13.6 -90.9 -12.65 -90.8 -11.7 -90.7 -10.75 -90.6 -9.85 -90.45 -8.9 -90.25 -8.0 -90.1 -7.05 -89.9 -6.15 -89.65 -5.25 -89.4 -4.35 -89.15 -3.45 -88.85 -2.55 -88.55 -1.65 -88.25 -0.75 -87.9 0.1 -87.55 1.0 -87.15 1.35 -87.0 1.7 -86.85 2.05 -86.65 2.35 -86.5 2.7 -86.3 3.05 -86.15 3.4 -85.95 3.7 -85.75 4.05 -85.55 4.35 -85.35 4.65 -85.15 5.0 -84.9 5.3 -84.7 5.6 -84.45 5.9 -84.25 6.2 -84.0 12.65 -78.85 16.05 -76.45 19.95 -73.75 22.6 -71.8 23.25 -71.35 23.8 -70.9 24.4 -70.45 25.0 -70.0 25.6 -69.5 26.15 -69.05 26.75 -68.55 27.35 -68.1 27.9 -67.6 28.45 -67.1 29.05 -66.6 29.55 -66.1 30.1 -65.55 30.65 -65.05 31.2 -64.5 31.7 -63.95 32.05 -63.55 32.4 -63.2 32.7 -62.8 33.05 -62.4 33.35 -62.0 33.65 -61.6 33.9 -61.15 34.2 -60.75 34.45 -60.3 34.7 -59.85 34.95 -59.4 35.15 -58.95 35.4 -58.5 35.55 -58.0 35.75 -57.55 35.9 -57.05 36.15 -56.2 36.3 -55.4 36.5 -54.55 36.55 -53.75 36.6 -52.95 36.55 -52.15 36.55 -51.35 36.4 -50.55 36.3 -49.8 36.05 -49.0 35.85 -48.25 35.55 -47.5 35.25 -46.75 34.85 -46.0 34.5 -45.25 34.0 -44.5 33.85 -44.25 33.65 -44.0 33.5 -43.75 33.3 -43.5 33.1 -43.25 32.9 -43.0 32.7 -42.75 32.5 -42.5 32.3 -42.3 32.1 -42.05 31.9 -41.85 31.65 -41.6 31.45 -41.4 31.2 -41.15 31.0 -40.95 30.75 -40.75 30.15 -40.25 29.6 -39.75 29.0 -39.25 28.4 -38.8 27.75 -38.3 27.15 -37.85 26.55 -37.4 25.9 -37.0 25.25 -36.55 24.6 -36.15 23.95 -35.75 23.3 -35.4 22.6 -35.0 21.95 -34.7 21.25 -34.35 20.55 -34.05 20.1 -33.85 19.6 -33.65 19.15 -33.45 18.65 -33.25 18.15 -33.1 17.7 -32.9 17.2 -32.75 16.7 -32.6 16.25 -32.4 15.75 -32.25 15.25 -32.1 14.8 -31.95 14.3 -31.8 13.8 -31.65 13.3 -31.55 12.8 -31.4 12.35 -31.3 11.85 -31.15 11.4 -31.05 10.95 -30.95 10.45 -30.85 10.0 -30.75 9.55 -30.65 9.05 -30.55 8.6 -30.5 8.1 -30.4 7.65 -30.35 7.15 -30.3 6.7 -30.2 6.2 -30.15 5.75 -30.1 5.25 -30.1 4.8 -30.05 4.4 -30.05 3.95 -30.05 3.55 -30.05 3.1 -30.05 2.7 -30.05 2.25 -30.05 1.85 -30.1 1.4 -30.15 1.0 -30.2 0.55 -30.2 0.15 -30.3 -0.3 -30.35 -0.7 -30.4 -1.15 -30.5 -1.55 -30.6 -2.35 -30.75 -3.1 -30.9 -3.9 -31.1 -4.65 -31.25 -5.45 -31.4 -6.2 -31.6 -6.95 -31.8 -7.7 -32.0 -8.5 -32.2 -9.25 -32.4 -10.0 -32.6 -10.75 -32.8 -11.5 -33.05 -12.25 -33.3 -13.0 -33.5 -13.75 -33.75 -13.55 -33.7 -14.25 -33.9 -14.55 -34.0 -14.75 -34.1 -15.0 -34.2 -15.2 -34.3 -15.45 -34.4 -15.7 -34.45 -15.95 -34.6 -16.15 -34.7 -16.4 -34.8 -16.6 -34.9 -16.85 -35.05 -17.05 -35.15 -17.3 -35.3 -17.5 -35.45 -17.6 -35.5 -17.7 -35.55 -17.75 -35.6 -17.9 -35.65 -18.0 -35.7 -18.1 -35.7 -18.2 -35.75 -18.35 -35.75 -18.45 -35.8 -18.6 -35.8 -18.75 -35.8 -18.9 -35.8 -19.05 -35.8 -19.2 -35.8 -19.35 -35.8 -19.5 -35.75 -19.85 -35.3 -20.55 -34.25 -20.35 -34.05 -20.15 -33.85 -19.95 -33.7 -19.8 -33.45 -19.65 -33.25 -19.5 -33.05 -19.35 -32.8 -19.2 -32.55 -19.1 -32.35 -19.0 -32.1 -18.9 -31.85 -18.8 -31.6 -18.7 -31.35 -18.6 -31.1 -18.5 -30.9 -18.4 -30.6 -18.25 -30.15 -18.05 -29.7 -17.85 -29.3 -17.65 -28.9 -17.45 -28.45 -17.2 -28.05 -17.0 -27.65 -16.75 -27.3 -16.5 -26.9 -16.2 -26.55 -15.95 -26.15 -15.65 -25.8 -15.35 -25.45 -15.0 -25.1 -14.7 -24.75 -14.4 -24.45 -11.95 -21.95 -10.9 -20.75 -10.5 -20.25 -10.1 -19.8 -9.7 -19.3 -9.35 -18.75 -9.0 -18.25 -8.7 -17.75 -8.35 -17.2 -8.1 -16.65 -7.8 -16.1 -7.55 -15.55 -7.3 -14.95 -7.1 -14.4 -6.9 -13.8 -6.75 -13.2 -6.55 -12.6 -6.45 -11.95 -6.35 -11.6 -6.3 -11.25 -6.25 -10.9 -6.2 -10.55 -6.15 -10.2 -6.15 -9.8 -6.15 -9.45 -6.15 -9.1 -6.1 -8.75 -6.15 -8.4 -6.15 -8.05 -6.2 -7.7 -6.25 -7.35 -6.3 -6.95 -6.35 -6.6 -6.4 -6.25 -6.5 -5.75 -6.65 -5.25 -6.8 -4.75 -7.0 -4.3 -7.2 -3.8 -7.45 -3.35 -7.65 -2.95 -7.95 -2.5 -8.2 -2.1 -8.5 -1.7 -8.8 -1.3 -9.1 -0.9 -9.45 -0.55 -9.8 -0.2 -10.2 0.2 -10.55 0.5 -10.6 0.55 -10.7 0.6 -10.75 0.7 -10.8 0.75 -10.85 0.8 -10.85 0.85 -10.9 0.9 -10.95 1.0 -10.95 1.05 -11.0 1.1 -11.0 1.2 -11.0 1.25 -11.0 1.35 -11.05 1.4 -11.05 1.5 -11.05 1.55 -11.0 3.15 -11.1 4.7 -11.2 6.25 -11.4 7.8 -11.6 9.3 -11.95 10.8 -12.25 12.3 -12.7 13.75 -13.15 15.2 -13.75 16.6 -14.3 18.0 -15.0 19.4 -15.7 20.75 -16.5 22.1 -17.3 23.45 -18.2 24.75 -18.45 25.1 -18.7 25.45 -19.0 25.8 -19.25 26.1 -19.55 26.45 -19.85 26.75 -20.1 27.1 -20.4 27.4 -20.7 27.7 -21.05 28.0 -21.35 28.3 -21.65 28.65 -21.95 28.9 -22.3 29.2 -22.6 29.5 -22.9 29.8 -23.15 30.0 -23.4 30.2 -23.65 30.4 -23.9 30.55 -24.15 30.75 -24.4 30.9 -24.65 31.1 -24.95 31.25 -25.2 31.4 -25.5 31.5 -25.75 31.65 -26.05 31.8 -26.3 31.9 -26.6 32.05 -26.85 32.15 -27.15 32.3 -27.2 32.3 -27.25 32.35 -27.35 32.35 -27.4 32.4 -27.45 32.4 -27.5 32.45 -27.55 32.45 -27.65 32.5 -27.7 32.55 -27.75 32.55 -27.8 32.6 -27.85 32.65 -27.9 32.65 -27.95 32.7 -28.0 32.75 -28.05 32.8 -28.5 33.15 -29.0 33.5 -29.5 33.85 -30.0 34.15 -30.5 34.5 -31.0 34.8 -31.5 35.1 -32.05 35.35 -32.55 35.6 -33.1 35.85 -33.6 36.1 -34.15 36.3 -34.7 36.55 -35.3 36.7 -35.85 36.9 -36.4 37.1 -36.65 37.15 -36.95 37.25 -37.25 37.3 -37.5 37.3 -37.8 37.35 -38.05 37.4 -38.35 37.4 -38.65 37.4 -38.9 37.45 -39.2 37.45 -39.45 37.45 -39.75 37.4 -40.0 37.4 -40.3 37.4 -40.55 37.35 -40.85 37.35 -41.25 37.3 -41.65 37.25 -42.05 37.25 -42.45 37.2 -42.85 37.15 -43.25 37.05 -43.65 37.0 -44.05 36.95 -44.45 36.9 -44.85 36.8 -45.25 36.75 -45.65 36.65 -46.05 36.55 -46.4 36.45 -46.8 36.4 -47.2 36.25 -47.4 36.2 -47.65 36.15 -47.85 36.05 -48.05 36.0 -48.25 35.9 -48.45 35.85 -48.65 35.75 -48.85 35.65 -49.05 35.55 -49.25 35.45 -49.45 35.3 -49.65 35.2 -49.8 35.1 -50.0 34.95 -50.2 34.8 -50.35 34.65 -50.45 34.6 -50.85 34.15 -50.85 34.1 -50.85 34.1 -50.8 34.05 -50.8 34.0 L-50.8 34.0 M-12.5 -36.1 Q-12.4 -36.05 -12.25 -36.0 -12.05 -35.95 -11.95 -35.9 -11.2 -35.65 -10.5 -35.45 -9.75 -35.25 -9.05 -35.05 -8.3 -34.85 -7.55 -34.65 -6.85 -34.45 -6.1 -34.25 -5.35 -34.05 -4.6 -33.9 -3.85 -33.7 -3.15 -33.55 -2.4 -33.4 -1.65 -33.25 -0.9 -33.1 -0.15 -32.95 0.2 -32.9 0.55 -32.85 0.85 -32.8 1.2 -32.75 1.55 -32.7 1.9 -32.7 2.2 -32.65 2.55 -32.65 2.9 -32.65 3.25 -32.65 3.55 -32.6 3.9 -32.65 4.25 -32.65 4.6 -32.65 4.95 -32.65 5.25 -32.7 5.85 -32.75 6.45 -32.8 7.0 -32.9 7.6 -33.0 8.2 -33.05 8.8 -33.15 9.35 -33.3 9.95 -33.4 10.5 -33.5 11.1 -33.65 11.65 -33.8 12.25 -33.95 12.8 -34.1 13.4 -34.25 13.95 -34.4 14.5 -34.6 15.25 -34.8 15.9 -35.05 16.6 -35.3 17.3 -35.55 18.0 -35.8 18.65 -36.05 19.35 -36.35 20.0 -36.65 20.65 -36.95 21.3 -37.25 21.95 -37.6 22.55 -37.95 23.2 -38.3 23.8 -38.7 24.45 -39.1 25.05 -39.55 25.9 -40.2 29.1 -42.8 29.35 -43.0 29.6 -43.2 29.8 -43.4 30.05 -43.65 30.25 -43.85 30.45 -44.1 30.65 -44.3 30.85 -44.55 31.05 -44.8 31.25 -45.05 31.4 -45.3 31.6 -45.55 31.75 -45.85 31.95 -46.1 32.1 -46.35 32.25 -46.65 32.65 -47.35 32.95 -48.0 33.25 -48.7 33.45 -49.4 33.65 -50.1 33.8 -50.75 33.9 -51.45 33.95 -52.15 34.0 -52.85 33.95 -53.55 33.9 -54.25 33.75 -54.95 33.6 -55.7 33.35 -56.4 33.15 -57.1 32.8 -57.8 32.65 -58.1 32.5 -58.4 32.35 -58.7 32.15 -59.0 32.0 -59.3 31.8 -59.55 31.65 -59.85 31.45 -60.15 31.25 -60.4 31.05 -60.65 30.85 -60.95 30.65 -61.2 30.45 -61.45 30.2 -61.7 30.0 -61.95 29.75 -62.2 29.25 -62.7 28.75 -63.25 28.25 -63.75 27.75 -64.25 27.2 -64.7 26.7 -65.2 26.15 -65.65 25.6 -66.15 25.05 -66.6 24.5 -67.05 23.95 -67.5 23.4 -67.95 22.85 -68.4 22.25 -68.8 21.7 -69.25 21.1 -69.65 -6.25 -89.55 12.65 -75.75 7.8 -79.3 4.4 -82.1 4.15 -82.3 3.9 -82.5 3.6 -82.7 3.35 -82.9 3.05 -83.1 2.8 -83.25 2.5 -83.45 2.2 -83.6 1.95 -83.8 1.65 -83.95 1.35 -84.1 1.05 -84.25 0.75 -84.4 0.45 -84.55 0.15 -84.65 -0.15 -84.8 -0.95 -85.15 -1.8 -85.5 -2.6 -85.8 -3.45 -86.1 -4.3 -86.4 -5.1 -86.65 -5.95 -86.9 -6.8 -87.1 -7.65 -87.35 -8.5 -87.5 -9.35 -87.7 -10.25 -87.85 -11.1 -88.0 -11.95 -88.1 -12.85 -88.2 -13.7 -88.3 -14.5 -88.35 -15.3 -88.4 -16.1 -88.45 -16.85 -88.45 -17.65 -88.45 -18.45 -88.45 -19.25 -88.45 -20.05 -88.4 -20.8 -88.4 -21.6 -88.35 -22.4 -88.25 -23.2 -88.2 -23.95 -88.1 -24.75 -88.0 -25.55 -87.9 -26.3 -87.8 -27.15 -87.65 -28.0 -87.5 -28.85 -87.35 -29.75 -87.15 -30.6 -86.95 -31.45 -86.75 -32.25 -86.55 -33.1 -86.3 -33.95 -86.1 -34.8 -85.85 -35.6 -85.6 -36.45 -85.3 -37.25 -85.05 -38.1 -84.75 -38.9 -84.5 -39.75 -84.15 -40.05 -84.05 -40.3 -83.95 -40.55 -83.85 -40.85 -83.75 -41.1 -83.6 -41.4 -83.5 -41.65 -83.4 -41.9 -83.25 -42.2 -83.15 -42.45 -83.0 -42.7 -82.85 -42.95 -82.7 -43.2 -82.55 -43.45 -82.4 -43.75 -82.25 -44.0 -82.1 -44.15 -82.0 -44.25 -81.9 -44.4 -81.8 -44.5 -81.75 -44.65 -81.65 -44.75 -81.55 -44.9 -81.4 -45.0 -81.3 -45.15 -81.2 -45.25 -81.1 -45.35 -81.0 -45.45 -80.85 -45.6 -80.75 -45.7 -80.6 -45.8 -80.5 -45.85 -80.35 -45.9 -80.25 -46.0 -80.15 -46.05 -80.05 -46.1 -79.95 -46.15 -79.85 -46.2 -79.75 -46.2 -79.65 -46.25 -79.55 -46.25 -79.45 -46.25 -79.35 -46.3 -79.2 -46.3 -79.1 -46.25 -79.0 -46.25 -78.9 -46.25 -78.75 -46.2 -78.65 -46.2 -78.6 -46.15 -78.55 -46.15 -78.5 -46.15 -78.45 -46.15 -78.45 -46.1 -78.4 -46.1 -78.35 -46.1 -78.3 -46.1 -78.25 -46.1 -78.2 -46.05 -78.15 -46.05 -78.1 -46.05 -78.05 -46.05 -78.0 -46.05 -77.95 -46.05 -77.9 -45.35 -72.5 -45.3 -71.3 -45.25 -71.0 -45.25 -70.65 -45.2 -70.35 -45.2 -70.0 -45.2 -69.7 -45.2 -69.35 -45.15 -69.05 -45.15 -68.7 -45.15 -68.4 -45.15 -68.05 -45.15 -67.75 -45.15 -67.4 -45.15 -67.1 -45.2 -66.75 -45.2 -66.45 -45.2 -66.1 -45.3 -64.8 -45.55 -62.85 -45.95 -60.0 -46.0 -59.55 -46.05 -59.15 -46.05 -58.75 -46.1 -58.4 -46.1 -58.0 -46.1 -57.6 -46.1 -57.2 -46.05 -56.85 -46.0 -56.45 -45.95 -56.05 -45.9 -55.7 -45.85 -55.3 -45.75 -54.95 -45.65 -54.55 -45.5 -54.2 -45.4 -53.8 -45.25 -53.45 -45.05 -53.0 -44.8 -52.5 -44.6 -52.1 -44.3 -51.65 -44.05 -51.25 -43.75 -50.85 -43.45 -50.45 -43.1 -50.1 -42.8 -49.75 -42.45 -49.4 -42.1 -49.05 -41.7 -48.75 -41.35 -48.4 -40.9 -48.1 -40.55 -47.8 -40.1 -47.5 -40.1 -47.5 -40.0 -47.45 -39.9 -47.45 -39.85 -47.4 -39.95 -47.8 -40.05 -48.2 -40.1 -48.6 -40.15 -49.05 -40.25 -49.4 -40.3 -49.85 -40.3 -50.25 -40.35 -50.65 -40.4 -51.0 -40.4 -51.45 -40.45 -51.75 -40.5 -52.3 -40.5 -52.85 -40.55 -53.1 -40.55 -53.55 -40.6 -53.9 -40.55 -53.8 -40.5 -53.7 -40.45 -53.65 -40.4 -53.55 -40.35 -53.45 -40.3 -53.35 -40.25 -53.25 -40.2 -53.15 -40.2 -53.05 -40.15 -52.95 -40.15 -52.85 -40.1 -52.75 -40.1 -52.65 -40.05 -52.55 -40.05 -52.5 -40.0 -52.35 -39.95 -52.05 -39.85 -51.75 -39.8 -51.45 -39.7 -51.2 -39.6 -50.9 -39.5 -50.6 -39.4 -50.35 -39.3 -50.05 -39.2 -49.75 -39.1 -49.5 -39.0 -49.2 -38.85 -48.95 -38.75 -48.65 -38.65 -48.4 -38.5 -48.1 -38.4 -47.85 -38.35 -47.7 -38.25 -47.55 -38.15 -47.4 -38.1 -47.25 -38.0 -47.1 -37.9 -46.95 -37.8 -46.8 -37.7 -46.7 -37.6 -46.55 -37.5 -46.45 -37.4 -46.3 -37.25 -46.2 -37.15 -46.05 -37.0 -45.95 -36.9 -45.85 -36.75 -45.75 -36.35 -45.45 -35.75 -45.0 -34.95 -44.4 -34.75 -44.25 -34.75 -44.25 -31.8 -42.05 -31.6 -41.9 -31.45 -41.8 -31.25 -41.7 -31.05 -41.6 -30.85 -41.5 -30.65 -41.4 -30.45 -41.3 -30.25 -41.2 -30.05 -41.15 -29.85 -41.05 -29.65 -41.0 -29.45 -40.95 -29.25 -40.9 -29.0 -40.85 -28.8 -40.8 -28.6 -40.75 -28.1 -40.65 -27.35 -40.55 -26.85 -40.45 -26.35 -40.4 -25.85 -40.35 -25.35 -40.3 -24.85 -40.25 -24.3 -40.25 -23.8 -40.2 -23.3 -40.25 -22.8 -40.25 -22.3 -40.25 -21.8 -40.3 -21.3 -40.35 -20.8 -40.4 -20.3 -40.5 -19.75 -40.6 -19.25 -40.7 -19.2 -40.7 -18.7 -40.75 -18.75 -40.65 -18.8 -40.6 -18.8 -40.5 -18.85 -40.45 -18.9 -40.35 -18.95 -40.3 -19.0 -40.25 -19.1 -40.2 -19.15 -40.15 -19.2 -40.15 -19.25 -40.1 -19.35 -40.05 -19.4 -40.0 -19.45 -40.0 -19.5 -39.95 -19.6 -39.95 -20.5 -39.65 -22.0 -39.25 -22.2 -39.2 -23.35 -38.95 -23.35 -38.9 -23.35 -38.8 -22.45 -38.6 -22.2 -38.55 -22.0 -38.5 -21.15 -38.4 -20.45 -38.3 -20.05 -38.25 -19.8 -38.2 -19.5 -38.15 -19.25 -38.1 -19.0 -38.05 -18.7 -38.05 -18.45 -38.0 -18.2 -38.0 -17.9 -37.95 -17.65 -37.95 -17.35 -37.95 -17.1 -37.95 -16.85 -37.95 -16.55 -37.95 -16.3 -37.95 -16.0 -37.95 -15.75 -37.95 -15.1 -38.0 -14.05 -38.1 -12.7 -38.2 -12.35 -38.25 -11.2 -38.35 -8.3 -38.55 -8.2 -38.55 -7.8 -38.55 -8.05 -38.35 -8.35 -38.15 -8.65 -37.95 -8.9 -37.8 -9.2 -37.65 -9.5 -37.45 -9.8 -37.3 -10.1 -37.15 -10.35 -37.05 -10.7 -36.9 -10.95 -36.75 -11.3 -36.6 -11.5 -36.5 -11.9 -36.35 -12.9 -35.9 -12.5 -36.1 L-12.5 -36.1 M-22.15 25.2 Q-22.1 25.25 -22.1 25.25 -22.1 25.25 -22.05 25.25 -21.45 24.65 -21.2 24.3 -20.65 23.65 -20.15 22.95 -19.65 22.25 -19.2 21.55 -18.75 20.85 -18.3 20.1 -17.9 19.35 -17.5 18.6 -17.1 17.85 -16.75 17.1 -16.4 16.35 -16.1 15.55 -15.8 14.75 -15.55 13.95 -15.25 13.15 -15.0 12.3 -14.2 9.5 -13.5 4.15 -13.45 3.7 -13.4 3.3 -13.35 2.85 -13.3 2.45 -13.25 2.0 -13.25 1.6 -13.25 1.15 -13.2 0.75 -13.2 0.3 -13.25 -0.1 -13.25 -0.55 -13.3 -0.95 -13.3 -1.4 -13.35 -1.8 -13.45 -2.25 -13.5 -2.65 -13.6 -3.1 -13.65 -3.45 -13.75 -3.9 -13.8 -4.25 -13.9 -4.65 -14.0 -5.05 -14.1 -5.45 -14.2 -5.85 -14.3 -6.25 -14.45 -6.65 -14.55 -7.0 -14.7 -7.4 -14.8 -7.8 -14.95 -8.15 -15.1 -8.55 -15.3 -8.9 -15.4 -9.15 -15.55 -9.45 -15.65 -9.7 -15.8 -9.95 -15.95 -10.2 -16.1 -10.45 -16.2 -10.7 -16.4 -10.95 -16.55 -11.15 -16.7 -11.4 -16.9 -11.6 -17.1 -11.85 -17.3 -12.05 -17.5 -12.25 -17.7 -12.45 -17.9 -12.65 -18.0 -12.7 -18.25 -12.95 -18.05 -12.95 -17.8 -12.95 -17.6 -12.9 -17.4 -12.85 -17.2 -12.85 -17.0 -12.75 -16.8 -12.7 -16.6 -12.65 -16.45 -12.55 -16.25 -12.45 -16.1 -12.4 -15.9 -12.25 -15.75 -12.2 -15.55 -12.05 -15.4 -11.95 -15.2 -11.85 -14.65 -11.5 -14.2 -11.15 -13.7 -10.75 -13.25 -10.4 -12.8 -10.0 -12.45 -9.55 -12.0 -9.1 -11.7 -8.65 -11.35 -8.2 -11.05 -7.65 -10.8 -7.15 -10.6 -6.6 -10.35 -6.0 -10.25 -5.4 -10.1 -4.75 -10.05 -4.1 -9.8 -4.45 -9.8 -4.5 -9.65 -4.8 -9.5 -5.15 -9.35 -5.45 -9.25 -5.8 -9.15 -6.15 -9.05 -6.45 -8.95 -6.8 -8.9 -7.15 -8.85 -7.45 -8.8 -7.8 -8.75 -8.15 -8.75 -8.5 -8.7 -8.85 -8.7 -9.2 -8.75 -9.55 -8.75 -9.9 -8.8 -10.45 -8.9 -11.0 -9.0 -11.5 -9.1 -12.05 -9.25 -12.55 -9.4 -13.1 -9.55 -13.6 -9.75 -14.1 -9.95 -14.6 -10.2 -15.05 -10.45 -15.55 -10.7 -16.0 -10.95 -16.5 -11.25 -16.95 -11.55 -17.4 -11.9 -17.85 -12.55 -18.7 -14.55 -20.9 -14.95 -21.35 -16.25 -22.7 -17.3 -23.8 -17.9 -24.5 -18.15 -24.8 -18.45 -25.15 -18.7 -25.45 -18.9 -25.8 -19.15 -26.15 -19.35 -26.5 -19.55 -26.85 -19.75 -27.2 -19.95 -27.6 -20.1 -27.95 -20.25 -28.35 -20.4 -28.7 -20.55 -29.1 -20.7 -29.5 -20.85 -29.9 -20.95 -30.3 -21.0 -30.45 -21.05 -30.6 -21.1 -30.75 -21.15 -30.9 -21.2 -31.05 -21.25 -31.2 -21.3 -31.35 -21.35 -31.5 -21.45 -31.6 -21.5 -31.75 -21.6 -31.9 -21.7 -32.05 -21.75 -32.15 -21.85 -32.3 -21.95 -32.4 -22.1 -32.55 -22.15 -32.6 -22.2 -32.65 -22.3 -32.75 -22.35 -32.8 -22.4 -32.85 -22.45 -32.9 -22.55 -32.9 -22.6 -32.95 -22.7 -33.0 -22.75 -33.0 -22.85 -33.0 -22.9 -33.0 -23.0 -33.05 -23.1 -33.0 -23.2 -33.0 -23.3 -32.95 -23.35 -32.95 -23.8 -32.95 -24.35 -32.95 -24.9 -32.95 -25.4 -33.0 -25.95 -33.05 -26.45 -33.15 -26.95 -33.25 -27.45 -33.35 -27.95 -33.5 -28.45 -33.65 -28.95 -33.85 -29.4 -34.0 -29.9 -34.25 -30.35 -34.45 -30.8 -34.7 -31.25 -34.95 -31.7 -35.25 -31.75 -35.3 -31.85 -35.35 -31.9 -35.4 -32.0 -35.4 -32.05 -35.45 -32.1 -35.45 -32.2 -35.5 -32.25 -35.5 -32.3 -35.5 -32.4 -35.5 -32.45 -35.5 -32.5 -35.5 -32.6 -35.5 -32.65 -35.5 -32.7 -35.45 -32.8 -35.4 -33.3 -35.25 -33.35 -35.2 -33.6 -35.05 -33.85 -34.9 -34.1 -34.7 -34.3 -34.55 -34.55 -34.35 -34.75 -34.2 -35.0 -34.0 -35.2 -33.8 -35.4 -33.65 -35.6 -33.45 -35.8 -33.25 -36.0 -33.0 -36.2 -32.8 -36.4 -32.6 -36.55 -32.35 -36.75 -32.1 -37.05 -31.7 -37.3 -31.25 -37.6 -30.85 -37.85 -30.4 -38.1 -30.0 -38.4 -29.55 -38.65 -29.15 -38.9 -28.7 -39.15 -28.25 -39.4 -27.8 -39.6 -27.35 -39.85 -26.9 -40.1 -26.45 -40.3 -26.0 -40.55 -25.55 -40.75 -25.1 -40.75 -25.1 -41.0 -24.65 -41.05 -24.65 -41.15 -24.7 -41.15 -25.0 -41.1 -25.25 -41.1 -25.55 -41.05 -25.85 -41.0 -26.1 -40.95 -26.4 -40.9 -26.7 -40.85 -26.95 -40.75 -27.25 -40.7 -27.5 -40.6 -27.8 -40.55 -28.05 -40.45 -28.35 -40.35 -28.6 -40.25 -28.9 -40.15 -29.15 -39.9 -29.8 -39.6 -30.4 -39.35 -30.95 -39.0 -31.5 -38.65 -32.05 -38.25 -32.55 -37.85 -33.05 -37.4 -33.5 -36.95 -33.95 -36.5 -34.4 -36.0 -34.8 -35.5 -35.2 -34.95 -35.55 -34.4 -35.9 -33.9 -36.25 -33.3 -36.6 -33.6 -37.2 -34.25 -38.5 -34.3 -38.5 -34.35 -38.5 -34.4 -38.45 -34.4 -38.45 -34.45 -38.45 -34.5 -38.45 -34.55 -38.45 -34.6 -38.4 -34.65 -38.4 -34.7 -38.4 -35.05 -38.25 -35.35 -38.1 -35.65 -37.95 -35.95 -37.8 -36.3 -37.65 -36.6 -37.5 -36.9 -37.3 -37.2 -37.15 -37.5 -36.95 -37.8 -36.8 -38.1 -36.6 -38.4 -36.4 -38.7 -36.2 -38.95 -36.0 -39.25 -35.75 -39.5 -35.55 -40.15 -35.0 -40.75 -34.45 -41.35 -33.9 -41.95 -33.3 -42.5 -32.7 -43.05 -32.1 -43.55 -31.5 -44.05 -30.85 -44.55 -30.2 -45.0 -29.55 -45.5 -28.85 -45.9 -28.15 -46.3 -27.45 -46.7 -26.7 -47.1 -26.0 -47.4 -25.25 -47.65 -24.75 -47.8 -24.25 -48.0 -23.7 -48.2 -23.2 -48.35 -22.65 -48.5 -22.15 -48.6 -21.6 -48.7 -21.1 -48.8 -20.55 -48.9 -20.0 -48.95 -19.5 -49.0 -18.95 -49.05 -18.4 -49.05 -17.85 -49.05 -17.3 -49.05 -16.75 -49.05 -16.35 -49.0 -15.95 -48.95 -15.55 -48.95 -15.15 -48.9 -14.8 -48.8 -14.4 -48.75 -14.0 -48.7 -13.6 -48.6 -13.25 -48.5 -12.85 -48.45 -12.45 -48.35 -12.1 -48.25 -11.7 -48.1 -11.3 -48.0 -10.95 -47.9 -10.55 -47.75 -10.0 -47.55 -9.45 -47.35 -8.9 -47.1 -8.3 -46.9 -7.8 -46.7 -7.2 -46.45 -6.7 -46.2 -6.15 -45.95 -5.6 -45.7 -5.05 -45.45 -4.55 -45.2 -4.0 -44.9 -3.5 -44.65 -2.95 -44.35 -2.45 -44.1 -1.9 -43.4 -0.6 -41.8 2.15 -40.3 4.8 -39.5 6.2 -39.2 6.75 -38.95 7.2 -38.7 7.75 -38.45 8.25 -38.2 8.75 -38.0 9.25 -37.75 9.8 -37.55 10.3 -37.3 10.85 -37.15 11.4 -36.95 11.95 -36.75 12.45 -36.6 13.0 -36.45 13.55 -36.35 14.15 -36.25 14.7 -36.15 15.2 -36.1 15.65 -36.05 16.1 -36.0 16.6 -36.0 17.05 -36.0 17.5 -36.0 18.0 -36.05 18.45 -36.1 18.9 -36.15 19.35 -36.25 19.85 -36.35 20.3 -36.5 20.75 -36.65 21.2 -36.8 21.65 -37.0 22.1 -37.2 22.5 -37.4 22.9 -37.6 23.3 -37.85 23.65 -38.1 24.0 -38.4 24.35 -38.65 24.65 -39.0 24.95 -39.3 25.25 -39.65 25.55 -39.95 25.8 -40.35 26.05 -40.7 26.25 -41.1 26.45 -41.5 26.65 -41.95 26.85 -42.25 26.95 -42.55 27.05 -42.85 27.15 -43.2 27.2 -43.5 27.25 -43.8 27.3 -44.1 27.3 -44.4 27.35 -44.7 27.35 -45.0 27.35 -45.35 27.35 -45.65 27.3 -45.95 27.3 -46.25 27.25 -46.55 27.2 -46.9 27.15 -47.3 27.1 -47.85 26.95 -48.8 26.7 -48.85 26.7 -48.7 26.95 -48.7 27.0 -48.6 27.1 -48.55 27.2 -48.45 27.25 -48.35 27.35 -48.3 27.45 -48.2 27.5 -48.1 27.6 -48.0 27.65 -47.9 27.75 -47.8 27.8 -47.7 27.85 -47.6 27.95 -47.5 28.0 -47.4 28.05 -47.3 28.1 -47.15 28.15 -44.65 29.0 -43.95 29.1 -43.55 29.2 -43.15 29.25 -42.75 29.3 -42.35 29.4 -41.95 29.45 -41.55 29.5 -41.15 29.55 -40.75 29.55 -40.35 29.6 -39.95 29.6 -39.55 29.65 -39.1 29.65 -38.7 29.65 -38.3 29.7 -37.9 29.7 -37.5 29.7 -37.25 29.7 -36.85 29.7 -36.8 29.8 -36.8 29.85 -36.8 29.95 -36.8 30.0 -36.8 30.1 -36.8 30.15 -36.8 30.25 -36.8 30.3 -36.8 30.4 -36.85 30.45 -36.85 30.5 -36.9 30.55 -36.9 30.65 -36.95 30.7 -37.0 30.75 -37.0 30.8 -37.75 31.85 -38.25 32.35 -38.45 32.55 -38.65 32.7 -38.85 32.9 -39.05 33.05 -39.25 33.25 -39.45 33.4 -39.65 33.55 -39.9 33.7 -40.1 33.85 -40.35 34.0 -40.55 34.15 -40.8 34.25 -41.0 34.4 -41.25 34.5 -41.5 34.65 -41.75 34.75 -42.1 35.0 -42.2 35.05 -42.15 35.1 -42.15 35.2 -42.0 35.2 -41.05 35.15 -40.35 35.1 -39.95 35.05 -39.05 34.95 -38.2 34.75 -37.35 34.6 -36.55 34.35 -35.75 34.15 -34.95 33.85 -34.15 33.55 -33.4 33.15 -32.65 32.8 -31.95 32.35 -31.2 31.9 -30.55 31.4 -29.85 30.9 -29.2 30.3 -28.55 29.75 -27.95 29.1 -27.4 28.5 -26.9 27.9 -26.4 27.25 -25.95 26.6 -25.5 25.95 -25.15 25.3 -24.75 24.6 -24.45 23.9 -24.15 23.2 -23.9 22.5 -23.65 21.75 -23.45 21.0 -23.25 20.25 -23.15 19.45 -23.0 18.65 -22.95 17.85 -22.9 17.1 -22.85 16.4 -22.85 15.7 -22.9 15.0 -22.95 14.3 -23.05 13.6 -23.2 12.95 -23.35 12.25 -23.5 11.6 -23.75 10.95 -24.0 10.3 -24.25 9.65 -24.55 9.05 -24.9 8.4 -25.25 7.8 -25.7 7.2 -26.9 5.5 -28.4 3.45 -28.8 2.95 -29.15 2.45 -29.5 1.95 -29.85 1.4 -30.25 0.9 -30.6 0.4 -30.95 -0.15 -31.25 -0.65 -31.6 -1.2 -31.95 -1.75 -32.3 -2.25 -32.6 -2.8 -32.95 -3.35 -33.25 -3.9 -33.55 -4.45 -33.85 -5.0 -33.9 -5.1 -33.95 -5.15 -34.0 -5.25 -34.0 -5.3 -34.05 -5.4 -34.1 -5.45 -34.15 -5.55 -34.15 -5.65 -34.2 -5.7 -34.25 -5.8 -34.25 -5.9 -34.3 -5.95 -34.35 -6.05 -34.35 -6.15 -34.4 -6.25 -34.4 -6.3 -34.55 -6.8 -34.65 -7.25 -34.75 -7.75 -34.8 -8.25 -34.9 -8.75 -34.95 -9.2 -35.0 -9.7 -35.0 -10.2 -35.05 -10.7 -35.05 -11.2 -35.05 -11.65 -35.05 -12.15 -35.0 -12.65 -35.0 -13.15 -34.95 -13.65 -34.9 -14.15 -34.85 -14.55 -34.7 -15.2 -34.55 -15.95 -34.5 -16.25 -34.45 -16.2 -34.45 -16.2 -34.4 -16.15 -34.4 -16.15 -34.35 -16.1 -34.35 -16.05 -34.35 -16.05 -34.35 -16.0 -34.3 -15.4 -34.2 -14.45 -34.1 -13.15 -34.1 -12.95 -34.1 -12.75 -34.05 -12.6 -34.05 -12.4 -34.0 -12.25 -34.0 -12.05 -33.95 -11.9 -33.95 -11.7 -33.9 -11.55 -33.85 -11.35 -33.85 -11.2 -33.8 -11.0 -33.75 -10.85 -33.7 -10.7 -33.65 -10.5 -33.6 -10.35 -33.55 -10.2 -33.35 -9.65 -33.15 -9.1 -32.9 -8.55 -32.7 -8.0 -32.45 -7.45 -32.2 -6.9 -31.95 -6.35 -31.65 -5.85 -31.4 -5.3 -31.1 -4.8 -30.85 -4.3 -30.5 -3.8 -30.2 -3.25 -29.9 -2.75 -29.55 -2.25 -29.25 -1.8 -27.35 0.9 -25.9 2.55 -25.15 3.4 -23.3 6.1 -23.1 6.4 -22.85 6.75 -22.65 7.1 -22.5 7.4 -22.3 7.75 -22.1 8.1 -21.95 8.45 -21.8 8.8 -21.65 9.15 -21.5 9.5 -21.35 9.85 -21.2 10.2 -21.1 10.6 -21.0 10.95 -20.9 11.35 -20.8 11.7 -20.6 12.5 -20.45 13.35 -20.35 14.15 -20.3 15.0 -20.25 15.8 -20.25 16.6 -20.25 17.4 -20.35 18.2 -20.4 19.0 -20.55 19.8 -20.65 20.6 -20.85 21.4 -21.05 22.2 -21.3 23.0 -21.55 23.75 -21.85 24.55 -21.95 24.8 -22.15 25.2 L-22.15 25.2 M-32.0 -39.8 Q-32.15 -39.6 -32.15 -39.6 -32.15 -39.5 -32.2 -39.4 -32.2 -39.35 -32.2 -39.25 -32.2 -39.15 -32.2 -39.05 -32.2 -39.0 -32.15 -38.9 -32.15 -38.8 -32.15 -38.7 -32.1 -38.65 -32.05 -38.55 -32.05 -38.45 -32.0 -38.4 -31.95 -38.3 -31.9 -38.25 -31.8 -38.15 -31.75 -38.0 -31.65 -37.9 -31.6 -37.8 -31.5 -37.7 -31.4 -37.6 -31.3 -37.5 -31.2 -37.4 -31.1 -37.35 -31.0 -37.25 -30.9 -37.15 -30.8 -37.1 -30.7 -37.0 -30.6 -36.95 -30.5 -36.85 -30.35 -36.8 -29.95 -36.55 -29.55 -36.35 -29.15 -36.15 -28.75 -35.95 -28.35 -35.75 -27.95 -35.6 -27.55 -35.45 -27.1 -35.35 -26.7 -35.25 -26.25 -35.15 -25.8 -35.05 -25.4 -35.0 -24.95 -34.95 -24.5 -34.95 -24.05 -34.95 -23.6 -34.95 -23.45 -34.95 -23.3 -35.0 -23.2 -35.0 -23.05 -35.05 -22.95 -35.05 -22.8 -35.1 -22.7 -35.15 -22.6 -35.25 -22.45 -35.3 -22.35 -35.4 -22.25 -35.45 -22.15 -35.55 -22.05 -35.65 -22.0 -35.8 -21.9 -35.9 -21.8 -36.05 -22.2 -36.1 -22.55 -36.15 -22.95 -36.25 -23.3 -36.35 -23.65 -36.45 -24.0 -36.55 -24.35 -36.65 -24.7 -36.8 -25.05 -36.95 -25.4 -37.1 -25.7 -37.25 -26.05 -37.4 -26.35 -37.55 -26.7 -37.75 -27.0 -37.95 -27.3 -38.15 -27.35 -38.15 -27.4 -38.2 -27.45 -38.2 -27.5 -38.2 -27.5 -38.25 -27.55 -38.25 -27.6 -38.25 -27.65 -38.3 -27.7 -38.3 -27.75 -38.3 -27.9 -38.35 -28.3 -38.4 -28.65 -38.5 -28.85 -38.55 -29.15 -38.6 -29.4 -38.7 -29.7 -38.75 -29.95 -38.85 -30.25 -38.9 -30.5 -39.0 -30.75 -39.1 -31.0 -39.25 -31.25 -39.35 -31.5 -39.5 -31.75 -39.65 -32.0 -39.8 L-32.0 -39.8" fill="#000000" fill-rule="evenodd" stroke="none"/>
  </g>
</svg>
