<?xml version="1.0" encoding="UTF-8" standalone="no"?>
<svg xmlns:xlink="http://www.w3.org/1999/xlink" height="300.0px" width="300.0px" xmlns="http://www.w3.org/2000/svg">
  <g transform="matrix(1.0, 0.0, 0.0, 1.0, 150.0, 150.0)">
    <path d="M58.75 13.65 Q56.4 13.6 56.05 13.6 55.85 13.6 55.65 13.6 55.4 13.55 55.2 13.55 55.0 13.5 54.8 13.45 54.6 13.45 54.4 13.4 54.2 13.35 54.0 13.3 53.8 13.2 53.6 13.15 53.4 13.1 53.2 13.0 53.0 12.95 52.8 12.85 52.6 12.75 52.35 12.65 52.15 12.55 51.95 12.5 51.7 12.4 51.5 12.3 51.3 12.15 51.1 12.05 50.9 11.95 50.7 11.85 50.5 11.7 50.3 11.6 50.1 11.45 49.9 11.35 49.7 11.2 49.55 11.05 49.15 10.75 48.75 10.4 48.35 10.1 48.0 9.75 47.65 9.45 47.3 9.1 46.9 8.75 46.6 8.35 46.25 8.0 45.95 7.65 45.6 7.25 45.3 6.85 45.0 6.45 44.75 6.05 44.45 5.6 44.2 5.2 44.0 4.9 43.85 4.6 43.65 4.25 43.5 3.95 43.35 3.6 43.25 3.3 43.1 2.95 42.95 2.65 42.85 2.3 42.75 1.95 42.65 1.65 42.6 1.3 42.5 0.95 42.45 0.6 42.4 0.25 42.35 -0.1 42.15 -0.25 40.95 -1.1 40.1 -1.65 39.6 -2.1 39.3 -2.35 37.05 -4.4 36.95 -4.3 36.75 -4.2 36.55 -4.05 36.45 -4.0 36.0 -3.65 35.55 -3.4 35.1 -3.1 34.65 -2.9 34.15 -2.65 33.7 -2.5 33.2 -2.35 32.75 -2.2 32.25 -2.1 31.75 -2.0 31.25 -1.95 30.7 -1.95 30.2 -1.9 29.65 -1.95 29.15 -2.0 28.6 -2.1 27.9 -2.2 27.2 -2.35 26.5 -2.5 25.85 -2.7 25.15 -2.85 24.5 -3.1 23.85 -3.3 23.2 -3.6 22.55 -3.85 21.95 -4.15 21.3 -4.45 20.7 -4.8 20.1 -5.15 19.5 -5.55 18.95 -5.95 18.35 -6.4 18.35 -6.4 16.55 -8.0 16.35 -8.25 15.9 -8.6 15.7 -8.1 15.45 -7.6 15.3 -7.25 15.1 -6.95 14.95 -6.6 14.75 -6.3 14.6 -6.0 14.4 -5.7 14.2 -5.35 14.0 -5.05 13.8 -4.75 13.6 -4.5 13.4 -4.2 13.15 -3.9 12.9 -3.6 12.7 -3.35 12.45 -3.1 12.2 -2.85 11.8 -2.45 11.4 -2.1 11.0 -1.75 10.55 -1.45 10.1 -1.15 9.65 -0.9 9.2 -0.65 8.75 -0.4 8.25 -0.2 7.8 0.0 7.3 0.15 6.8 0.3 6.3 0.45 5.75 0.55 5.25 0.7 4.7 0.75 4.3 0.8 3.9 0.85 3.5 0.85 3.1 0.85 2.75 0.85 2.35 0.8 1.95 0.8 1.55 0.7 1.2 0.65 0.8 0.55 0.45 0.5 0.05 0.4 -0.3 0.25 -0.7 0.15 -1.05 0.0 -1.45 -0.15 -1.6 -0.2 -2.15 -0.45 -2.2 -0.45 -2.25 -0.4 -2.3 -0.35 -2.35 -0.35 -2.4 -0.3 -2.4 -0.25 -2.45 -0.2 -2.45 -0.2 -2.5 -0.15 -2.5 -0.1 -2.5 -0.05 -2.55 0.0 -2.5 -0.2 -2.55 0.1 -2.55 0.15 -2.6 0.15 -2.7 0.55 -2.85 0.9 -3.0 1.3 -3.15 1.65 -3.3 2.05 -3.45 2.4 -3.6 2.75 -3.8 3.15 -3.95 3.5 -4.15 3.85 -4.3 4.2 -4.5 4.55 -4.7 4.9 -4.9 5.25 -5.05 5.6 -5.3 5.95 -5.65 6.6 -6.1 7.15 -6.5 7.75 -6.95 8.3 -7.4 8.85 -7.9 9.35 -8.4 9.8 -8.9 10.3 -9.45 10.75 -10.0 11.15 -10.6 11.55 -11.2 11.9 -11.8 12.3 -12.4 12.65 -13.05 12.95 -13.7 13.25 -13.95 13.35 -14.15 13.45 -14.4 13.55 -14.65 13.6 -14.9 13.7 -15.15 13.75 -15.35 13.8 -15.6 13.85 -15.85 13.95 -16.1 14.0 -16.35 14.05 -16.6 14.1 -16.8 14.1 -17.1 14.15 -17.25 14.2 -17.55 14.25 -18.15 14.35 -18.7 14.45 -19.3 14.5 -19.9 14.55 -20.5 14.65 -21.05 14.7 -21.65 14.7 -22.25 14.75 -22.85 14.75 -23.4 14.75 -24.0 14.8 -24.6 14.75 -25.2 14.75 -25.8 14.7 -26.35 14.65 -26.95 14.6 -27.6 14.55 -31.15 14.15 -31.2 14.2 -31.2 14.25 -31.25 14.3 -31.25 14.35 -31.25 14.4 -31.25 14.45 -31.25 14.5 -31.25 14.55 -31.2 14.6 -31.2 14.65 -31.15 14.7 -31.15 14.75 -31.1 14.85 -31.1 14.85 -31.1 14.9 -31.05 14.95 -30.85 15.5 -30.65 16.0 -30.4 16.55 -30.2 17.05 -30.0 17.6 -29.75 18.1 -29.55 18.65 -29.3 19.15 -29.05 19.7 -28.85 20.2 -28.6 20.75 -28.35 21.25 -28.1 21.75 -27.8 22.25 -27.55 22.8 -27.3 23.3 -27.05 23.75 -26.8 24.2 -26.55 24.65 -26.3 25.1 -26.1 25.55 -25.85 26.0 -25.6 26.45 -25.35 26.9 -25.1 27.35 -24.9 27.8 -24.65 28.25 -24.4 28.7 -24.15 29.2 -23.95 29.65 -23.7 30.1 -23.45 30.55 -23.25 30.9 -23.1 31.25 -22.95 31.65 -22.75 32.0 -22.6 32.35 -22.45 32.75 -22.3 33.1 -22.15 33.45 -22.0 33.85 -21.9 34.2 -21.75 34.6 -21.65 35.0 -21.55 35.35 -21.45 35.75 -21.3 36.15 -21.25 36.55 -21.1 37.1 -21.05 37.65 -20.95 38.15 -20.9 38.7 -20.85 39.25 -20.85 39.8 -20.85 40.3 -20.9 40.85 -20.9 41.4 -21.0 41.9 -21.1 42.45 -21.2 42.95 -21.35 43.5 -21.5 44.0 -21.65 44.55 -21.85 45.05 -22.0 45.4 -22.15 45.7 -22.3 46.0 -22.45 46.3 -22.6 46.6 -22.8 46.85 -23.0 47.15 -23.2 47.4 -23.4 47.7 -23.65 47.95 -23.85 48.2 -24.1 48.4 -24.35 48.65 -24.6 48.9 -24.85 49.1 -25.15 49.3 -25.2 49.35 -25.5 49.6 -25.75 49.8 -25.9 49.9 -25.75 50.2 -25.6 50.45 -25.5 50.75 -25.35 51.05 -25.25 51.35 -25.15 51.65 -25.0 51.9 -24.95 52.2 -24.85 52.5 -24.75 52.8 -24.65 53.1 -24.6 53.4 -24.55 53.7 -24.5 54.0 -24.45 54.3 -24.4 54.65 -24.35 55.05 -24.35 55.45 -24.3 55.9 -24.35 56.25 -24.4 56.65 -24.45 57.05 -24.55 57.4 -24.65 57.8 -24.8 58.15 -24.95 58.5 -25.1 58.85 -25.35 59.2 -25.55 59.5 -25.8 59.85 -26.05 60.15 -26.4 60.45 -26.55 60.6 -26.7 60.75 -26.9 60.85 -27.05 61.0 -27.25 61.1 -27.4 61.2 -27.6 61.3 -27.8 61.4 -27.95 61.5 -28.15 61.55 -28.35 61.65 -28.55 61.7 -28.75 61.75 -28.95 61.8 -29.15 61.85 -29.4 61.9 -29.6 61.95 -29.95 61.95 -30.35 62.0 -30.5 62.05 -30.75 62.65 -30.75 62.7 -30.8 62.9 -30.85 63.05 -30.9 63.2 -31.0 63.35 -31.05 63.55 -31.15 63.7 -31.2 63.85 -31.3 63.95 -31.4 64.1 -31.5 64.25 -31.6 64.4 -31.75 64.5 -31.85 64.65 -32.0 64.75 -32.1 64.85 -32.25 65.0 -32.9 65.5 -33.25 65.7 -33.8 66.0 -34.3 66.25 -34.8 66.5 -35.35 66.75 -35.85 67.0 -36.4 67.2 -36.95 67.4 -37.45 67.55 -38.05 67.75 -38.6 67.85 -39.15 68.0 -39.7 68.1 -40.3 68.2 -40.85 68.25 -41.45 68.3 -42.05 68.3 -42.35 68.3 -42.6 68.3 -42.9 68.3 -43.2 68.3 -43.5 68.3 -43.75 68.25 -44.05 68.25 -44.35 68.2 -44.6 68.2 -44.9 68.15 -45.2 68.1 -45.45 68.05 -45.75 68.0 -46.05 67.95 -46.3 67.9 -46.6 67.8 -46.8 67.75 -46.95 67.7 -47.15 67.7 -47.35 67.65 -47.5 67.6 -47.7 67.55 -47.9 67.5 -48.05 67.45 -48.25 67.4 -48.4 67.35 -48.6 67.3 -48.8 67.25 -48.95 67.2 -49.15 67.1 -49.3 67.05 -49.5 67.0 -50.15 66.75 -50.8 66.45 -51.4 66.15 -51.95 65.8 -52.5 65.45 -53.0 65.05 -53.5 64.65 -53.95 64.15 -54.35 63.7 -54.75 63.2 -55.1 62.65 -55.4 62.05 -55.7 61.5 -55.95 60.85 -56.2 60.2 -56.35 59.5 -56.45 59.25 -56.5 59.05 -56.55 58.8 -56.65 58.5 -56.75 58.6 -56.95 58.7 -57.15 58.8 -57.2 58.85 -57.75 59.25 -58.35 59.6 -58.95 59.95 -59.55 60.25 -60.15 60.55 -60.75 60.8 -61.4 61.1 -62.0 61.3 -62.65 61.55 -63.3 61.7 -63.95 61.9 -64.6 62.05 -65.25 62.15 -65.95 62.3 -66.6 62.4 -67.3 62.45 -67.9 62.5 -68.45 62.5 -69.05 62.5 -69.6 62.45 -70.15 62.45 -70.75 62.35 -71.3 62.25 -71.8 62.15 -72.35 62.0 -72.9 61.85 -73.4 61.7 -73.95 61.45 -74.45 61.25 -75.0 61.0 -75.5 60.75 -76.0 60.5 -76.25 60.35 -76.5 60.2 -76.75 60.05 -77.0 59.85 -77.25 59.7 -77.5 59.5 -77.7 59.35 -77.95 59.15 -78.15 58.95 -78.4 58.75 -78.6 58.55 -78.8 58.35 -79.0 58.15 -79.2 57.9 -79.4 57.7 -79.6 57.45 -79.8 57.15 -80.0 56.85 -80.2 56.6 -80.4 56.25 -80.55 55.95 -80.7 55.65 -80.85 55.35 -81.0 55.0 -81.1 54.7 -81.2 54.35 -81.3 54.0 -81.35 53.65 -81.45 53.3 -81.5 52.95 -81.55 52.6 -81.55 52.25 -81.6 51.8 -81.6 51.35 -81.6 50.9 -81.6 50.45 -81.6 50.0 -81.55 49.55 -81.55 49.1 -81.5 48.7 -81.45 48.25 -81.35 47.8 -81.3 47.35 -81.2 46.95 -81.05 46.5 -80.95 46.1 -80.8 45.65 -80.65 45.25 -80.65 45.2 -80.6 44.8 -81.5 44.7 -81.75 44.7 -82.15 44.7 -82.5 44.65 -82.9 44.6 -83.25 44.55 -83.65 44.45 -84.0 44.4 -84.35 44.3 -84.7 44.2 -85.1 44.05 -85.45 43.95 -85.8 43.8 -86.1 43.65 -86.45 43.45 -86.8 43.3 -87.1 43.1 -87.45 42.9 -87.8 42.65 -88.1 42.4 -88.4 42.15 -88.7 41.9 -89.0 41.6 -89.2 41.35 -89.45 41.05 -89.7 40.7 -89.9 40.4 -90.05 40.05 -90.25 39.7 -90.35 39.35 -90.5 39.0 -90.6 38.6 -90.7 38.2 -90.75 37.8 -90.8 37.5 -90.8 37.25 -90.8 36.95 -90.8 36.65 -90.8 36.4 -90.75 36.1 -90.75 35.85 -90.7 35.55 -90.65 35.3 -90.6 35.0 -90.55 34.75 -90.45 34.45 -90.4 34.2 -90.3 33.95 -90.2 33.65 -90.1 33.4 -90.0 33.2 -89.85 32.85 -89.65 32.35 -89.6 32.3 -89.6 32.25 -89.65 32.2 -89.7 32.15 -89.75 32.1 -89.75 32.05 -89.8 32.05 -89.85 32.0 -89.9 32.0 -89.95 32.0 -90.0 31.95 -90.05 31.95 -90.1 31.95 -90.0 31.95 -90.2 31.95 -90.25 31.95 -90.3 31.9 -90.95 31.75 -91.65 31.6 -92.3 31.4 -92.9 31.2 -93.55 31.0 -94.15 30.75 -94.75 30.5 -95.4 30.2 -95.95 29.9 -96.55 29.55 -97.15 29.25 -97.7 28.85 -98.25 28.5 -98.8 28.1 -99.35 27.7 -99.9 27.3 -100.4 26.9 -100.9 26.45 -101.4 26.0 -101.85 25.55 -102.25 25.05 -102.65 24.55 -103.1 24.05 -103.45 23.55 -103.8 23.0 -104.15 22.45 -104.45 21.9 -104.75 21.3 -105.05 20.75 -105.25 20.15 -105.5 19.55 -105.75 18.9 -105.9 18.4 -106.05 17.9 -106.2 17.4 -106.3 16.9 -106.4 16.4 -106.55 15.9 -106.65 15.4 -106.7 14.9 -106.8 14.4 -106.85 13.9 -106.95 13.4 -107.0 12.9 -107.05 12.35 -107.1 11.85 -107.1 11.35 -107.15 10.85 -107.2 9.7 -107.15 8.55 -107.15 7.4 -107.0 6.3 -106.9 5.15 -106.7 4.05 -106.55 2.95 -106.25 1.85 -106.0 0.75 -105.7 -0.3 -105.35 -1.4 -104.95 -2.45 -104.55 -3.5 -104.1 -4.55 -103.65 -5.6 -103.1 -6.6 -102.8 -7.2 -102.45 -7.8 -102.1 -8.35 -101.75 -8.9 -101.4 -9.45 -101.0 -10.0 -100.6 -10.5 -100.15 -11.0 -99.75 -11.5 -99.3 -12.0 -98.85 -12.5 -98.35 -12.95 -97.9 -13.4 -97.35 -13.85 -96.9 -14.3 -96.35 -14.7 -96.1 -14.95 -95.85 -15.1 -95.6 -15.35 -95.35 -15.5 -95.05 -15.75 -94.8 -15.9 -94.55 -16.1 -94.3 -16.3 -94.0 -16.45 -93.75 -16.6 -93.45 -16.8 -93.15 -16.95 -92.9 -17.1 -92.6 -17.2 -92.3 -17.35 -92.0 -17.45 -92.0 -17.45 -91.65 -17.7 -91.7 -18.0 -91.85 -18.85 -91.95 -19.55 -92.0 -19.95 -92.05 -20.25 -92.1 -20.6 -92.1 -20.9 -92.1 -21.2 -92.15 -21.5 -92.1 -21.8 -92.1 -22.1 -92.05 -22.45 -92.0 -22.7 -91.9 -23.05 -91.85 -23.3 -91.75 -23.6 -91.65 -23.9 -91.55 -24.2 -91.45 -24.5 -91.35 -24.8 -91.1 -25.3 -90.7 -26.1 -90.1 -27.3 -90.0 -27.45 -90.05 -27.45 -90.35 -27.7 -90.6 -27.85 -90.75 -27.95 -91.0 -28.1 -91.2 -28.25 -91.45 -28.35 -91.65 -28.5 -91.85 -28.65 -92.1 -28.8 -92.3 -29.0 -92.5 -29.15 -92.7 -29.3 -92.9 -29.5 -93.1 -29.65 -93.3 -29.85 -93.5 -30.0 -93.7 -30.2 -93.85 -30.4 -94.05 -30.6 -94.35 -30.95 -94.6 -31.3 -94.9 -31.65 -95.1 -32.05 -95.3 -32.45 -95.45 -32.8 -95.65 -33.2 -95.75 -33.6 -95.85 -34.05 -95.95 -34.45 -96.0 -34.85 -96.05 -35.3 -96.05 -35.75 -96.05 -36.2 -96.0 -36.6 -95.95 -37.1 -95.9 -37.45 -95.85 -37.85 -95.75 -38.2 -95.65 -38.6 -95.6 -38.95 -95.45 -39.3 -95.35 -39.65 -95.25 -40.0 -95.1 -40.35 -94.95 -40.7 -94.8 -41.05 -94.65 -41.4 -94.5 -41.75 -94.3 -42.05 -94.15 -42.4 -93.95 -42.75 -93.4 -43.7 -92.8 -44.6 -92.2 -45.5 -91.55 -46.35 -90.9 -47.2 -90.2 -48.0 -89.5 -48.8 -88.75 -49.5 -88.0 -50.25 -87.2 -50.95 -86.35 -51.6 -85.5 -52.25 -84.6 -52.85 -83.7 -53.4 -82.75 -53.95 -81.8 -54.45 -81.35 -54.7 -80.9 -54.9 -80.4 -55.15 -79.95 -55.35 -79.5 -55.55 -79.05 -55.75 -78.55 -55.95 -78.1 -56.15 -77.65 -56.3 -77.15 -56.5 -76.65 -56.65 -76.2 -56.8 -75.7 -56.95 -75.25 -57.1 -74.75 -57.2 -74.25 -57.35 -73.65 -57.5 -73.0 -57.6 -72.4 -57.7 -71.75 -57.75 -71.15 -57.85 -70.5 -57.9 -69.9 -57.95 -69.3 -57.95 -68.65 -57.95 -68.05 -57.95 -67.4 -57.95 -66.8 -57.9 -66.15 -57.85 -65.55 -57.75 -64.9 -57.7 -64.3 -57.6 -63.8 -57.5 -62.95 -57.35 -61.95 -57.1 -61.55 -57.05 -61.5 -57.05 -60.9 -57.0 -60.9 -57.1 -60.95 -57.25 -60.95 -57.35 -61.0 -57.5 -61.05 -57.6 -61.1 -57.7 -61.1 -57.8 -61.15 -57.9 -61.2 -58.0 -61.25 -58.1 -61.3 -58.2 -61.35 -58.3 -61.4 -58.4 -61.5 -58.5 -61.55 -58.65 -61.6 -58.7 -61.7 -58.9 -61.75 -59.05 -61.85 -59.25 -61.95 -59.4 -62.0 -59.6 -62.1 -59.8 -62.15 -59.95 -62.2 -60.15 -62.25 -60.35 -62.35 -60.5 -62.4 -60.7 -62.45 -60.9 -62.5 -61.1 -62.5 -61.3 -62.55 -61.5 -62.6 -61.65 -62.6 -61.8 -62.65 -61.9 -62.65 -62.0 -62.65 -62.15 -62.65 -62.25 -62.65 -62.4 -62.65 -62.5 -62.65 -62.6 -62.65 -62.75 -62.65 -62.85 -62.65 -63.0 -62.6 -63.1 -62.6 -63.25 -62.6 -63.35 -62.55 -63.45 -62.55 -63.6 -62.25 -64.8 -61.45 -66.8 -61.4 -66.95 -60.6 -68.8 -60.1 -70.0 -59.7 -70.75 -59.6 -70.95 -59.5 -71.2 -59.4 -71.4 -59.3 -71.6 -59.2 -71.8 -59.1 -72.05 -59.0 -72.25 -58.9 -72.45 -58.8 -72.65 -58.7 -72.85 -58.55 -73.05 -58.45 -73.25 -58.35 -73.5 -58.2 -73.7 -58.1 -73.9 -58.0 -74.1 -57.7 -74.6 -57.35 -75.05 -57.0 -75.5 -56.65 -75.9 -56.25 -76.3 -55.85 -76.7 -55.45 -77.05 -55.05 -77.4 -54.6 -77.75 -54.15 -78.1 -53.7 -78.4 -53.2 -78.65 -52.75 -78.95 -52.25 -79.2 -51.7 -79.45 -51.2 -79.65 -50.95 -79.75 -50.7 -79.85 -50.4 -79.9 -50.15 -80.0 -49.9 -80.05 -49.65 -80.1 -49.35 -80.2 -49.1 -80.2 -48.85 -80.25 -48.55 -80.3 -48.3 -80.3 -48.05 -80.3 -47.75 -80.3 -47.5 -80.3 -47.2 -80.3 -46.95 -80.25 -46.5 -80.2 -46.1 -80.1 -45.75 -80.0 -45.35 -79.9 -45.0 -79.75 -44.7 -79.55 -44.4 -79.35 -44.1 -79.15 -43.85 -78.9 -43.6 -78.65 -43.35 -78.35 -43.15 -78.05 -42.9 -77.75 -42.75 -77.35 -42.55 -77.0 -42.45 -76.6 -42.35 -76.35 -42.05 -75.35 -41.6 -76.1 -41.5 -76.3 -41.4 -76.45 -41.3 -76.65 -41.2 -76.8 -41.1 -76.95 -41.0 -77.1 -40.9 -77.25 -40.8 -77.45 -40.7 -77.55 -40.55 -77.7 -40.45 -77.85 -40.3 -78.0 -40.2 -78.15 -40.05 -78.25 -39.9 -78.4 -39.75 -78.55 -39.6 -78.65 -39.35 -78.85 -39.15 -79.0 -38.9 -79.15 -38.65 -79.3 -38.4 -79.4 -38.15 -79.5 -37.9 -79.6 -37.65 -79.7 -37.4 -79.75 -37.15 -79.8 -36.85 -79.85 -36.6 -79.85 -36.3 -79.85 -36.05 -79.8 -35.75 -79.8 -35.45 -79.7 -34.95 -79.55 -33.35 -79.15 -33.3 -79.15 -33.25 -79.1 -33.15 -79.1 -33.1 -79.05 -33.05 -79.05 -33.0 -79.0 -32.9 -79.0 -32.85 -79.0 -32.8 -78.95 -32.7 -78.95 -32.65 -78.9 -32.6 -78.9 -32.55 -78.85 -32.45 -78.85 -32.4 -78.85 -32.35 -78.8 -32.25 -78.85 -32.15 -78.95 -32.1 -79.0 -32.0 -79.1 -31.95 -79.15 -31.9 -79.25 -31.85 -79.3 -31.75 -79.4 -31.7 -79.5 -31.7 -79.55 -31.65 -79.65 -31.6 -79.75 -31.55 -79.85 -31.55 -79.95 -31.5 -80.0 -31.45 -80.1 -30.7 -82.7 -30.6 -83.15 -30.55 -83.45 -30.45 -83.75 -30.35 -84.05 -30.3 -84.35 -30.2 -84.65 -30.1 -84.95 -30.05 -85.25 -29.95 -85.6 -29.85 -85.85 -29.75 -86.2 -29.65 -86.45 -29.55 -86.8 -29.45 -87.05 -29.35 -87.4 -29.25 -87.65 -29.15 -88.0 -29.0 -88.35 -28.85 -88.7 -28.75 -89.05 -28.55 -89.4 -28.4 -89.75 -28.2 -90.05 -28.0 -90.35 -27.8 -90.7 -27.6 -91.0 -27.4 -91.3 -27.15 -91.6 -26.95 -91.9 -26.7 -92.2 -26.45 -92.45 -26.2 -92.75 -25.9 -93.0 -25.4 -93.5 -24.9 -94.0 -24.35 -94.5 -23.8 -94.95 -23.3 -95.4 -22.75 -95.85 -22.2 -96.3 -21.6 -96.7 -21.05 -97.1 -20.45 -97.5 -19.85 -97.9 -19.25 -98.25 -18.65 -98.6 -18.0 -99.0 -17.4 -99.3 -16.75 -99.65 -16.3 -99.9 -15.8 -100.15 -15.35 -100.35 -14.85 -100.55 -14.4 -100.8 -13.9 -100.95 -13.4 -101.15 -12.9 -101.35 -12.4 -101.5 -11.9 -101.7 -11.4 -101.85 -10.9 -102.0 -10.4 -102.15 -9.9 -102.3 -9.4 -102.45 -8.85 -102.55 -2.1 -104.35 2.1 -104.95 2.6 -105.0 3.05 -105.05 3.5 -105.1 3.95 -105.15 4.45 -105.2 4.9 -105.25 5.35 -105.25 5.85 -105.3 6.3 -105.3 6.75 -105.3 7.25 -105.3 7.7 -105.3 8.15 -105.3 8.65 -105.25 9.1 -105.2 9.55 -105.15 10.1 -105.1 10.6 -105.05 11.15 -105.0 11.65 -104.95 12.15 -104.85 12.65 -104.8 13.2 -104.75 13.7 -104.65 14.25 -104.6 14.75 -104.5 15.25 -104.4 15.75 -104.3 16.25 -104.2 16.8 -104.1 17.3 -104.0 17.8 -103.9 18.3 -103.75 18.85 -103.6 19.35 -103.45 19.85 -103.3 20.35 -103.1 20.8 -102.9 21.3 -102.7 21.75 -102.45 22.25 -102.25 22.7 -102.0 23.15 -101.7 23.6 -101.45 24.0 -101.15 24.45 -100.8 24.9 -100.5 25.3 -100.15 25.55 -99.9 25.8 -99.7 26.05 -99.45 26.3 -99.2 26.5 -98.95 26.7 -98.65 26.9 -98.4 27.1 -98.1 27.25 -97.85 27.4 -97.55 27.55 -97.25 27.7 -96.95 27.85 -96.65 27.95 -96.3 28.05 -96.0 28.15 -95.65 28.2 -95.5 28.65 -93.3 28.75 -93.0 28.9 -92.15 29.5 -92.35 29.6 -92.4 30.0 -92.6 30.45 -92.75 30.9 -92.95 31.35 -93.1 31.75 -93.25 32.2 -93.4 32.65 -93.55 33.1 -93.65 33.55 -93.8 34.0 -93.9 34.45 -94.0 34.9 -94.1 35.35 -94.2 35.85 -94.3 36.3 -94.35 36.75 -94.45 37.05 -94.5 37.3 -94.55 37.6 -94.6 37.9 -94.6 38.2 -94.65 38.45 -94.7 38.75 -94.7 39.05 -94.75 39.35 -94.8 39.6 -94.8 39.9 -94.85 40.2 -94.85 40.45 -94.85 40.75 -94.9 41.05 -94.9 41.3 -94.9 42.0 -94.9 42.75 -94.9 43.45 -94.9 44.15 -94.8 44.85 -94.75 45.5 -94.65 46.2 -94.55 46.9 -94.4 47.55 -94.2 48.25 -94.0 48.9 -93.8 49.55 -93.6 50.2 -93.35 50.85 -93.05 51.5 -92.75 52.15 -92.45 52.4 -92.3 52.6 -92.2 52.85 -92.05 53.05 -91.9 53.3 -91.8 53.5 -91.65 53.75 -91.5 53.95 -91.3 54.15 -91.15 54.35 -91.0 54.55 -90.85 54.75 -90.65 54.95 -90.45 55.15 -90.3 55.3 -90.1 55.5 -89.9 55.75 -89.6 56.0 -89.3 56.2 -89.0 56.4 -88.7 56.6 -88.4 56.75 -88.05 56.95 -87.75 57.05 -87.4 57.2 -87.05 57.3 -86.7 57.4 -86.35 57.45 -86.0 57.5 -85.65 57.55 -85.25 57.6 -84.9 57.6 -84.5 57.6 -84.4 57.5 -82.6 57.5 -82.4 57.45 -81.75 57.6 -81.65 58.55 -81.75 58.9 -81.75 60.3 -81.85 61.4 -81.9 62.05 -81.9 62.45 -81.9 62.8 -81.9 63.2 -81.85 63.55 -81.8 63.95 -81.75 64.3 -81.7 64.7 -81.6 65.05 -81.5 65.4 -81.4 65.75 -81.3 66.1 -81.2 66.45 -81.05 66.8 -80.9 67.15 -80.75 67.5 -80.55 67.85 -80.4 68.4 -80.1 68.9 -79.75 69.4 -79.35 69.8 -78.95 70.25 -78.55 70.6 -78.1 70.95 -77.65 71.2 -77.2 71.5 -76.7 71.7 -76.15 71.95 -75.65 72.1 -75.1 72.25 -74.5 72.35 -73.9 72.45 -73.35 72.5 -72.7 72.5 -72.5 72.5 -72.35 72.5 -72.15 72.5 -72.0 72.5 -71.8 72.45 -71.65 72.45 -71.45 72.4 -71.25 72.35 -71.1 72.3 -70.9 72.25 -70.75 72.2 -70.55 72.15 -70.4 72.1 -70.2 72.05 -70.05 71.95 -69.9 71.85 -69.6 71.7 -69.35 71.6 -69.05 71.45 -68.8 71.3 -68.5 71.2 -68.25 71.05 -68.0 70.85 -67.75 70.7 -67.5 70.55 -67.25 70.35 -67.0 70.2 -66.75 70.0 -66.5 69.8 -66.25 69.6 -66.05 69.4 -65.8 69.15 -65.5 68.8 -65.1 68.95 -65.0 70.15 -64.3 71.0 -63.8 71.5 -63.45 71.65 -63.35 71.8 -63.2 71.9 -63.1 72.05 -62.95 72.15 -62.8 72.25 -62.65 72.35 -62.5 72.45 -62.35 72.55 -62.2 72.65 -62.0 72.75 -61.85 72.8 -61.65 72.9 -61.5 72.95 -61.3 73.05 -61.15 73.1 -60.95 73.15 -60.75 73.2 -60.55 73.25 -60.4 73.3 -60.2 73.35 -60.0 73.35 -59.8 73.35 -59.6 73.4 -59.4 73.4 -59.25 73.4 -59.0 73.4 -58.9 73.4 -58.6 73.4 -58.35 73.4 -58.2 73.4 -57.95 73.4 -57.8 73.7 -57.85 75.9 -58.35 76.35 -58.45 76.75 -58.5 77.2 -58.55 77.65 -58.6 78.05 -58.6 78.5 -58.6 78.9 -58.55 79.35 -58.5 79.75 -58.45 80.15 -58.35 80.55 -58.25 81.0 -58.15 81.4 -58.0 81.8 -57.85 82.2 -57.7 82.6 -57.5 82.95 -57.3 83.3 -57.1 83.65 -56.9 83.95 -56.7 84.3 -56.45 84.55 -56.2 84.85 -55.95 85.1 -55.65 85.35 -55.35 85.6 -55.05 85.85 -54.75 86.0 -54.4 86.2 -54.1 86.4 -53.7 86.55 -53.35 86.7 -52.95 86.75 -52.85 87.3 -50.65 87.35 -50.5 87.5 -49.95 88.2 -49.7 89.3 -49.35 90.8 -48.9 91.05 -48.8 91.5 -48.65 91.9 -48.5 92.35 -48.35 92.75 -48.15 93.2 -48.0 93.6 -47.8 94.0 -47.6 94.4 -47.4 94.8 -47.2 95.2 -46.95 95.55 -46.7 95.95 -46.5 96.35 -46.25 96.7 -45.95 97.1 -45.7 97.45 -45.45 98.1 -44.95 98.7 -44.4 99.3 -43.85 99.85 -43.3 100.35 -42.7 100.85 -42.1 101.35 -41.5 101.75 -40.85 102.2 -40.2 102.55 -39.5 102.95 -38.8 103.25 -38.1 103.55 -37.35 103.85 -36.6 104.1 -35.85 104.3 -35.05 104.5 -34.3 104.65 -33.5 104.85 -32.75 104.95 -32.0 105.1 -31.2 105.2 -30.45 105.3 -29.65 105.35 -28.9 105.4 -28.1 105.45 -27.3 105.45 -26.55 105.45 -25.75 105.45 -24.95 105.45 -24.2 105.4 -23.4 105.3 -22.6 105.25 -21.85 105.15 -21.1 105.05 -20.3 104.95 -19.55 104.85 -18.8 104.7 -18.05 104.55 -17.3 104.4 -16.6 104.2 -15.85 104.0 -15.1 103.8 -14.4 103.6 -13.65 103.35 -12.95 103.1 -12.2 102.85 -11.5 102.55 -10.8 102.45 -10.6 102.35 -10.35 102.3 -10.15 102.2 -9.9 102.1 -9.7 102.0 -9.45 101.9 -9.25 101.8 -9.0 101.7 -8.8 101.6 -8.6 101.5 -8.35 101.35 -8.15 101.25 -7.95 101.15 -7.7 101.05 -7.5 100.9 -7.3 100.7 -6.95 100.5 -6.6 100.3 -6.25 100.05 -5.95 99.8 -5.6 99.55 -5.3 99.3 -5.05 99.0 -4.75 98.7 -4.5 98.4 -4.25 98.1 -4.0 97.75 -3.75 97.45 -3.55 97.1 -3.35 96.75 -3.15 96.35 -2.95 96.15 -2.8 95.65 -2.55 95.65 -2.55 95.55 -2.4 95.75 -1.85 95.9 -1.55 96.35 -0.7 96.8 0.2 97.25 1.1 97.65 2.0 98.05 2.9 98.4 3.8 98.8 4.7 99.15 5.65 99.45 6.55 99.8 7.5 100.1 8.45 100.35 9.4 100.65 10.35 100.9 11.3 101.15 12.25 101.4 13.2 101.5 13.65 101.6 14.1 101.7 14.6 101.8 15.05 101.9 15.5 102.0 15.95 102.05 16.45 102.15 16.9 102.2 17.35 102.25 17.8 102.3 18.3 102.35 18.75 102.4 19.2 102.4 19.7 102.45 20.15 102.45 20.6 102.45 21.05 102.45 21.55 102.45 22.0 102.4 22.45 102.35 22.9 102.3 23.35 102.25 23.85 102.2 24.3 102.15 24.75 102.05 25.2 101.95 25.65 101.85 26.1 101.7 26.55 101.6 26.95 101.45 27.4 101.3 27.85 101.0 28.7 100.6 29.5 100.25 30.3 99.85 31.05 99.4 31.85 98.95 32.55 98.45 33.3 97.95 34.0 97.45 34.65 96.85 35.35 96.3 36.0 95.65 36.6 95.05 37.2 94.4 37.8 93.75 38.4 93.0 38.9 92.6 39.2 92.2 39.5 91.8 39.75 91.35 40.0 90.9 40.2 90.45 40.4 90.05 40.6 89.55 40.75 89.1 40.9 88.65 41.05 88.2 41.2 87.7 41.3 87.2 41.4 86.75 41.45 86.25 41.55 85.75 41.6 85.45 41.65 84.9 41.7 84.25 41.75 84.05 41.75 84.05 41.8 83.9 42.2 83.8 42.45 83.75 42.6 83.5 43.45 83.2 44.25 82.9 45.05 82.55 45.85 82.2 46.6 81.8 47.4 81.4 48.15 81.0 48.85 80.55 49.6 80.1 50.3 79.6 51.05 79.1 51.7 78.6 52.4 78.0 53.05 77.45 53.75 76.9 54.4 76.65 54.65 76.4 54.9 76.15 55.1 75.9 55.35 75.65 55.55 75.35 55.75 75.1 55.95 74.8 56.15 74.55 56.35 74.25 56.5 73.95 56.7 73.65 56.85 73.35 57.0 73.05 57.15 72.75 57.3 72.4 57.4 71.85 57.6 71.35 57.8 70.8 58.0 70.25 58.15 69.7 58.3 69.2 58.45 68.65 58.55 68.1 58.65 67.5 58.75 66.95 58.8 66.4 58.9 65.85 58.95 65.3 58.95 64.7 58.95 64.15 58.95 63.55 58.95 63.25 58.95 63.0 58.9 62.7 58.9 62.45 58.85 62.15 58.8 61.9 58.75 61.65 58.7 61.35 58.65 61.1 58.6 60.8 58.55 60.55 58.45 60.3 58.4 60.0 58.3 59.75 58.25 59.45 58.15 59.2 58.05 58.65 57.85 58.15 57.6 57.65 57.35 57.25 57.05 56.8 56.75 56.4 56.4 56.05 56.05 55.7 55.65 55.4 55.25 55.15 54.8 54.85 54.35 54.65 53.9 54.45 53.4 54.3 52.85 54.15 52.35 54.05 51.75 54.0 51.65 53.95 51.05 53.9 51.0 53.55 50.7 53.15 50.4 52.8 50.05 52.45 49.75 52.15 49.4 51.85 49.05 51.55 48.65 51.3 48.25 51.05 47.85 50.8 47.45 50.6 47.05 50.45 46.6 50.25 46.15 50.1 45.75 49.95 45.25 49.85 44.8 49.7 44.3 49.55 43.65 49.5 43.05 49.4 42.4 49.35 41.75 49.35 41.15 49.35 40.5 49.4 39.9 49.45 39.25 49.55 38.65 49.7 38.05 49.8 37.45 50.0 36.85 50.2 36.25 50.45 35.65 50.65 35.05 50.95 34.45 51.05 34.25 51.2 34.0 51.3 33.8 51.45 33.55 51.55 33.35 51.7 33.15 51.85 32.95 52.0 32.7 52.15 32.55 52.3 32.3 52.35 32.25 52.6 31.85 52.8 31.6 52.9 31.45 53.1 31.2 53.2 31.05 53.3 30.95 54.8 28.75 55.8 27.4 56.35 26.45 56.6 26.0 56.85 25.6 57.1 25.15 57.3 24.7 57.5 24.25 57.65 23.75 57.85 23.3 58.0 22.85 58.15 22.35 58.25 21.9 58.35 21.4 58.45 20.9 58.5 20.4 58.55 19.95 58.6 19.4 58.6 18.9 58.65 18.3 58.7 17.0 58.8 15.7 58.8 15.05 58.8 14.85 58.75 13.65 L58.75 13.65 M63.15 -62.65 Q63.8 -63.4 63.8 -63.45 66.0 -65.65 66.45 -66.1 66.7 -66.35 66.9 -66.65 67.1 -66.9 67.3 -67.2 67.55 -67.45 67.7 -67.75 67.9 -68.05 68.1 -68.35 68.25 -68.65 68.45 -68.95 68.6 -69.25 68.75 -69.55 68.9 -69.85 69.05 -70.2 69.2 -70.5 69.3 -70.85 69.45 -71.3 69.55 -71.75 69.6 -72.2 69.6 -72.7 69.55 -73.2 69.45 -73.7 69.35 -74.15 69.2 -74.65 69.0 -75.1 68.8 -75.55 68.55 -75.95 68.25 -76.35 68.0 -76.7 67.65 -77.0 67.3 -77.3 66.95 -77.55 66.8 -77.65 66.6 -77.75 66.45 -77.85 66.25 -77.95 66.1 -78.0 65.9 -78.1 65.75 -78.15 65.55 -78.25 65.4 -78.3 65.2 -78.4 65.05 -78.45 64.85 -78.5 64.65 -78.6 64.45 -78.65 64.3 -78.7 64.1 -78.75 63.8 -78.85 63.5 -78.9 63.2 -78.95 62.85 -79.0 62.55 -79.0 62.25 -79.05 61.95 -79.05 61.65 -79.05 61.35 -79.05 61.0 -79.05 60.7 -79.05 60.4 -79.0 60.1 -79.0 59.8 -78.95 59.5 -78.9 59.15 -78.9 58.5 -78.8 57.45 -78.6 56.1 -78.3 55.75 -78.25 55.7 -78.25 55.65 -78.25 55.6 -78.2 55.5 -78.2 55.45 -78.15 55.4 -78.15 55.35 -78.15 55.25 -78.15 55.2 -78.15 55.15 -78.15 55.1 -78.15 55.0 -78.15 54.95 -78.15 54.9 -78.15 54.8 -78.2 54.75 -78.25 54.75 -78.35 54.8 -78.65 54.8 -78.9 54.85 -79.05 54.85 -79.3 54.95 -79.95 55.0 -80.5 55.05 -80.85 55.05 -81.15 55.05 -81.5 55.05 -81.8 55.05 -82.1 55.05 -82.4 55.0 -82.75 55.0 -83.05 54.95 -83.35 54.9 -83.7 54.85 -84.0 54.8 -84.3 54.75 -84.6 54.7 -84.9 54.65 -85.25 54.6 -85.55 54.5 -85.85 54.5 -85.95 54.45 -86.1 54.4 -86.2 54.35 -86.35 54.35 -86.45 54.3 -86.55 54.25 -86.65 54.2 -86.75 54.15 -86.9 54.05 -87.0 54.0 -87.1 53.95 -87.2 53.9 -87.3 53.8 -87.4 53.75 -87.5 53.65 -87.6 53.5 -87.75 53.4 -87.9 53.25 -88.1 53.1 -88.25 52.95 -88.4 52.8 -88.5 52.65 -88.65 52.45 -88.8 52.3 -88.9 52.15 -89.05 51.95 -89.15 51.8 -89.3 51.6 -89.4 51.45 -89.5 51.25 -89.6 51.05 -89.7 50.4 -90.05 49.75 -90.35 49.1 -90.65 48.45 -90.9 47.8 -91.15 47.1 -91.3 46.45 -91.5 45.75 -91.65 45.05 -91.8 44.35 -91.85 43.65 -91.95 42.95 -92.0 42.25 -92.05 41.55 -92.0 40.85 -92.0 40.1 -91.95 39.9 -91.95 39.7 -91.9 39.5 -91.9 39.3 -91.85 39.15 -91.85 38.95 -91.85 38.75 -91.8 38.55 -91.8 38.35 -91.75 38.15 -91.75 37.95 -91.7 37.75 -91.65 37.55 -91.65 37.4 -91.6 37.2 -91.6 37.0 -91.55 36.55 -91.45 36.2 -91.4 35.75 -91.3 35.4 -91.25 35.0 -91.15 34.6 -91.05 34.2 -90.95 33.8 -90.85 33.4 -90.75 33.05 -90.6 32.65 -90.5 32.25 -90.35 31.85 -90.2 31.5 -90.05 31.1 -89.9 30.75 -89.7 30.55 -89.6 30.35 -89.5 30.1 -89.4 29.9 -89.3 29.7 -89.2 29.5 -89.1 29.25 -89.05 29.05 -88.95 28.85 -88.85 28.6 -88.8 28.4 -88.7 28.2 -88.6 27.95 -88.55 27.75 -88.45 27.5 -88.4 27.3 -88.35 27.2 -88.3 26.75 -88.25 26.65 -90.05 26.55 -90.5 26.5 -90.85 26.45 -91.15 26.35 -91.5 26.3 -91.8 26.2 -92.15 26.15 -92.5 26.05 -92.8 25.95 -93.15 25.85 -93.45 25.75 -93.8 25.65 -94.1 25.55 -94.4 25.45 -94.75 25.3 -95.05 25.2 -95.35 25.1 -95.7 25.05 -95.85 25.0 -95.95 24.95 -96.1 24.85 -96.2 24.8 -96.35 24.75 -96.45 24.65 -96.55 24.6 -96.65 24.5 -96.8 24.45 -96.9 24.35 -97.0 24.25 -97.1 24.2 -97.2 24.1 -97.3 24.0 -97.4 23.9 -97.5 22.45 -98.65 21.8 -99.1 21.55 -99.25 21.3 -99.45 21.05 -99.6 20.75 -99.75 20.5 -99.85 20.2 -100.0 19.95 -100.1 19.65 -100.25 19.4 -100.35 19.1 -100.45 18.85 -100.55 18.55 -100.65 18.25 -100.75 17.95 -100.85 17.65 -100.9 17.35 -101.0 15.7 -101.4 11.45 -102.05 10.8 -102.15 10.1 -102.2 9.45 -102.3 8.8 -102.35 8.1 -102.35 7.45 -102.4 6.8 -102.4 6.15 -102.4 5.45 -102.35 4.8 -102.3 4.15 -102.3 3.5 -102.2 2.85 -102.15 2.2 -102.05 1.5 -101.9 0.85 -101.8 -4.15 -100.75 -7.4 -99.95 -8.1 -99.8 -8.75 -99.6 -9.4 -99.45 -10.05 -99.25 -10.7 -99.05 -11.35 -98.8 -12.0 -98.6 -12.65 -98.35 -13.25 -98.1 -13.9 -97.85 -14.5 -97.55 -15.15 -97.25 -15.75 -96.95 -16.35 -96.6 -16.95 -96.3 -17.55 -95.9 -18.0 -95.65 -18.4 -95.35 -18.85 -95.1 -19.25 -94.8 -19.65 -94.5 -20.05 -94.2 -20.5 -93.9 -20.9 -93.6 -21.3 -93.3 -21.65 -93.0 -22.05 -92.65 -22.45 -92.35 -22.8 -92.0 -23.2 -91.65 -23.55 -91.3 -23.9 -90.95 -24.1 -90.75 -24.25 -90.6 -24.4 -90.4 -24.6 -90.2 -24.75 -90.0 -24.9 -89.85 -25.05 -89.65 -25.2 -89.45 -25.35 -89.2 -25.45 -89.0 -25.6 -88.8 -25.7 -88.6 -25.85 -88.35 -25.95 -88.15 -26.05 -87.9 -26.15 -87.7 -26.25 -87.4 -26.35 -87.1 -26.5 -86.8 -26.6 -86.55 -26.7 -86.25 -26.8 -85.95 -26.9 -85.65 -27.0 -85.35 -27.1 -85.05 -27.15 -84.75 -27.25 -84.45 -27.35 -84.15 -27.45 -83.85 -27.5 -83.6 -27.6 -83.25 -27.65 -83.0 -28.25 -80.7 -28.6 -79.5 -28.65 -79.4 -28.7 -79.25 -28.75 -79.15 -28.75 -79.05 -28.8 -78.95 -28.85 -78.8 -28.9 -78.7 -28.95 -78.6 -29.0 -78.5 -29.1 -78.35 -29.15 -78.25 -29.2 -78.15 -29.25 -78.05 -29.3 -77.95 -29.35 -77.85 -29.4 -77.75 -29.45 -77.65 -29.5 -77.6 -29.55 -77.5 -29.6 -77.45 -29.65 -77.35 -29.7 -77.3 -29.8 -77.2 -29.85 -77.15 -29.9 -77.1 -29.95 -77.0 -30.0 -76.95 -30.1 -76.9 -30.15 -76.8 -30.2 -76.75 -30.3 -76.7 -30.35 -76.65 -30.5 -76.5 -30.65 -76.4 -30.8 -76.3 -30.95 -76.25 -31.1 -76.15 -31.3 -76.1 -31.45 -76.0 -31.6 -75.95 -31.8 -75.9 -31.95 -75.9 -32.15 -75.9 -32.3 -75.9 -32.5 -75.9 -32.7 -75.9 -32.85 -75.95 -33.05 -76.0 -33.45 -76.1 -34.35 -76.4 -35.15 -76.65 -35.6 -76.75 -35.8 -76.8 -36.0 -76.85 -36.2 -76.9 -36.4 -76.9 -36.55 -76.9 -36.75 -76.9 -36.9 -76.85 -37.1 -76.8 -37.25 -76.75 -37.4 -76.65 -37.55 -76.6 -37.7 -76.45 -37.85 -76.35 -38.0 -76.2 -38.15 -76.1 -38.3 -75.9 -38.5 -75.65 -38.65 -75.45 -38.85 -75.2 -39.05 -74.95 -39.2 -74.7 -39.35 -74.45 -39.5 -74.2 -39.65 -73.95 -39.8 -73.7 -39.9 -73.4 -40.05 -73.15 -40.15 -72.85 -40.25 -72.6 -40.35 -72.3 -40.45 -72.0 -40.5 -71.7 -40.55 -71.45 -40.6 -71.25 -40.65 -71.0 -40.7 -70.75 -40.7 -70.55 -40.75 -70.3 -40.8 -70.05 -40.85 -69.85 -40.85 -69.6 -40.9 -69.4 -40.9 -69.15 -40.9 -68.9 -40.95 -68.7 -40.95 -68.45 -40.95 -68.2 -40.95 -68.0 -40.95 -67.3 -40.9 -66.3 -40.9 -64.8 -40.9 -64.6 -40.9 -64.55 -40.9 -64.55 -40.9 -64.5 -40.9 -64.45 -40.9 -64.4 -40.9 -64.4 -40.9 -64.35 -40.9 -64.3 -40.9 -64.3 -40.95 -64.25 -40.95 -64.2 -41.0 -64.2 -41.05 -64.2 -41.1 -64.15 -41.15 -64.15 -41.2 -64.15 -42.05 -65.2 -42.1 -65.35 -42.3 -65.7 -42.5 -66.0 -42.7 -66.35 -42.85 -66.7 -43.05 -67.05 -43.2 -67.4 -43.35 -67.75 -43.5 -68.1 -43.65 -68.45 -43.75 -68.8 -43.9 -69.2 -44.0 -69.55 -44.1 -69.9 -44.2 -70.3 -44.3 -70.65 -44.35 -71.05 -44.45 -71.65 -44.65 -72.85 -44.85 -74.0 -44.95 -74.6 -44.95 -74.7 -45.0 -74.8 -45.0 -74.9 -45.0 -74.95 -45.05 -75.05 -45.05 -75.15 -45.05 -75.25 -45.1 -75.35 -45.1 -75.4 -45.15 -75.5 -45.15 -75.6 -45.2 -75.7 -45.2 -75.75 -45.25 -75.85 -45.25 -75.95 -45.3 -76.0 -45.35 -76.15 -45.45 -76.3 -45.5 -76.45 -45.6 -76.55 -45.7 -76.65 -45.8 -76.75 -45.9 -76.85 -46.0 -76.95 -46.15 -77.05 -46.25 -77.1 -46.4 -77.2 -46.55 -77.25 -46.7 -77.3 -46.85 -77.3 -47.0 -77.35 -47.15 -77.35 -47.35 -77.35 -47.55 -77.35 -47.75 -77.4 -47.95 -77.4 -48.15 -77.35 -48.35 -77.35 -48.55 -77.35 -48.7 -77.3 -48.9 -77.3 -49.1 -77.25 -49.3 -77.2 -49.5 -77.15 -49.65 -77.1 -49.85 -77.05 -50.05 -77.0 -50.25 -76.9 -50.45 -76.85 -50.6 -76.75 -50.8 -76.65 -51.0 -76.6 -51.15 -76.5 -51.35 -76.4 -51.5 -76.3 -51.7 -76.2 -51.85 -76.1 -52.05 -76.0 -52.2 -75.9 -52.4 -75.75 -52.55 -75.65 -52.7 -75.55 -52.9 -75.4 -53.05 -75.3 -53.4 -75.05 -53.7 -74.75 -54.0 -74.45 -54.3 -74.15 -54.6 -73.85 -54.85 -73.5 -55.1 -73.2 -55.35 -72.85 -55.6 -72.5 -55.8 -72.15 -56.05 -71.75 -56.25 -71.4 -56.45 -71.05 -56.6 -70.65 -56.8 -70.25 -56.95 -69.85 -57.3 -69.05 -57.95 -67.55 -58.65 -65.95 -58.95 -65.2 -59.0 -65.05 -59.1 -64.9 -59.15 -64.75 -59.2 -64.6 -59.25 -64.4 -59.3 -64.25 -59.3 -64.1 -59.35 -63.95 -59.35 -63.8 -59.4 -63.6 -59.4 -63.45 -59.4 -63.3 -59.4 -63.15 -59.4 -62.95 -59.4 -62.8 -59.4 -62.6 -59.4 -62.0 -59.35 -61.45 -59.3 -60.9 -59.2 -60.3 -59.1 -59.75 -59.0 -59.2 -58.85 -58.65 -58.7 -58.1 -58.55 -57.55 -58.35 -57.0 -58.2 -56.5 -57.95 -55.95 -57.75 -55.4 -57.5 -54.9 -57.25 -54.4 -56.95 -53.9 -56.9 -53.8 -56.85 -53.6 -56.7 -53.3 -56.7 -53.25 -58.25 -53.55 -58.7 -53.65 -61.45 -54.05 -61.8 -54.15 -62.3 -54.25 -63.25 -54.45 -64.25 -54.65 -64.75 -54.7 -65.35 -54.8 -65.9 -54.85 -66.5 -54.95 -67.05 -55.0 -67.65 -55.05 -68.2 -55.05 -68.8 -55.05 -69.4 -55.05 -69.95 -55.05 -70.55 -55.0 -71.1 -54.95 -71.7 -54.85 -72.25 -54.8 -72.85 -54.65 -73.4 -54.55 -73.95 -54.4 -74.75 -54.2 -75.55 -53.95 -76.35 -53.7 -77.15 -53.4 -77.9 -53.1 -78.65 -52.8 -79.45 -52.45 -80.15 -52.1 -80.9 -51.7 -81.6 -51.3 -82.35 -50.85 -83.0 -50.4 -83.7 -49.95 -84.35 -49.45 -85.05 -48.95 -85.7 -48.4 -86.15 -48.0 -86.6 -47.55 -87.05 -47.15 -87.5 -46.7 -87.9 -46.25 -88.3 -45.75 -88.7 -45.3 -89.1 -44.8 -89.45 -44.35 -89.85 -43.85 -90.2 -43.35 -90.5 -42.8 -90.85 -42.3 -91.15 -41.75 -91.5 -41.2 -91.8 -40.65 -91.9 -40.45 -92.0 -40.2 -92.1 -40.0 -92.2 -39.75 -92.3 -39.55 -92.4 -39.3 -92.5 -39.05 -92.55 -38.85 -92.65 -38.6 -92.7 -38.35 -92.8 -38.15 -92.85 -37.9 -92.9 -37.65 -92.95 -37.4 -93.0 -37.15 -93.05 -36.9 -93.1 -36.55 -93.15 -36.2 -93.15 -35.85 -93.15 -35.5 -93.1 -35.15 -93.05 -34.85 -93.0 -34.55 -92.9 -34.2 -92.8 -33.9 -92.65 -33.6 -92.5 -33.35 -92.3 -33.05 -92.1 -32.75 -91.9 -32.5 -91.65 -32.25 -91.4 -32.0 -91.25 -31.85 -91.1 -31.7 -90.95 -31.6 -90.75 -31.45 -90.6 -31.35 -90.45 -31.2 -90.3 -31.1 -90.1 -31.0 -89.95 -30.85 -89.75 -30.75 -89.6 -30.65 -89.4 -30.55 -89.25 -30.45 -89.05 -30.35 -88.9 -30.25 -88.7 -30.15 -88.7 -30.15 -87.75 -29.6 -87.2 -29.3 -86.85 -29.05 -86.8 -29.0 -86.7 -28.95 -86.65 -28.95 -86.6 -28.9 -86.55 -28.85 -86.45 -28.8 -86.4 -28.75 -86.35 -28.7 -86.3 -28.65 -86.25 -28.6 -86.2 -28.55 -86.1 -28.5 -86.05 -28.45 -86.0 -28.4 -85.95 -28.35 -85.9 -28.25 -85.9 -28.25 -85.65 -27.55 -86.0 -27.3 -86.0 -27.3 -86.25 -27.15 -86.5 -27.0 -86.75 -26.85 -87.0 -26.65 -87.2 -26.5 -87.4 -26.3 -87.55 -26.1 -87.75 -25.9 -87.9 -25.65 -88.05 -25.45 -88.15 -25.2 -88.3 -24.95 -88.4 -24.7 -88.5 -24.45 -88.6 -24.15 -88.7 -23.9 -88.75 -23.75 -88.8 -23.5 -88.9 -23.15 -88.9 -23.05 -89.0 -22.6 -89.05 -22.2 -89.15 -21.8 -89.2 -21.35 -89.2 -20.95 -89.2 -20.55 -89.2 -20.1 -89.15 -19.7 -89.1 -19.3 -89.05 -18.9 -88.95 -18.5 -88.85 -18.1 -88.7 -17.7 -88.55 -17.3 -88.35 -16.9 -88.15 -16.5 -87.95 -16.15 -87.95 -16.1 -87.95 -16.05 -87.9 -16.0 -87.9 -15.95 -87.9 -15.9 -87.9 -15.9 -87.95 -15.85 -87.95 -15.8 -87.95 -15.75 -88.0 -15.7 -88.0 -15.65 -88.05 -15.65 -88.05 -15.6 -88.1 -15.55 -88.15 -15.55 -88.2 -15.5 -88.2 -15.5 -88.35 -15.5 -88.55 -15.45 -88.8 -15.4 -89.1 -15.35 -89.35 -15.3 -89.6 -15.25 -89.85 -15.2 -90.15 -15.1 -90.4 -15.05 -90.65 -14.95 -90.85 -14.85 -91.1 -14.75 -91.35 -14.65 -91.6 -14.5 -91.8 -14.4 -92.05 -14.25 -92.25 -14.1 -92.5 -13.95 -93.15 -13.5 -93.8 -13.05 -94.45 -12.55 -95.05 -12.05 -95.65 -11.55 -96.2 -11.0 -96.8 -10.45 -97.3 -9.9 -97.85 -9.3 -98.35 -8.7 -98.8 -8.05 -99.25 -7.4 -99.7 -6.75 -100.1 -6.1 -100.5 -5.4 -100.85 -4.65 -101.35 -3.6 -101.8 -2.55 -102.2 -1.5 -102.6 -0.45 -102.95 0.6 -103.25 1.7 -103.5 2.75 -103.75 3.85 -103.95 4.95 -104.05 6.05 -104.2 7.15 -104.25 8.25 -104.3 9.4 -104.25 10.5 -104.2 11.65 -104.05 12.8 -104.0 13.15 -103.95 13.5 -103.9 13.9 -103.85 14.25 -103.8 14.6 -103.75 14.95 -103.65 15.3 -103.6 15.65 -103.5 16.0 -103.45 16.35 -103.35 16.7 -103.25 17.05 -103.15 17.4 -103.05 17.75 -102.95 18.1 -102.8 18.45 -102.65 18.8 -102.55 19.2 -102.4 19.55 -102.2 19.9 -102.05 20.25 -101.9 20.55 -101.7 20.9 -101.5 21.25 -101.3 21.55 -101.1 21.85 -100.85 22.2 -100.65 22.5 -100.4 22.8 -100.15 23.1 -99.85 23.35 -99.6 23.65 -99.15 24.1 -98.65 24.55 -98.15 24.95 -97.65 25.35 -97.15 25.75 -96.65 26.1 -96.1 26.5 -95.6 26.8 -95.05 27.15 -94.45 27.45 -93.9 27.7 -93.3 27.95 -92.7 28.2 -92.1 28.45 -91.5 28.65 -90.85 28.8 -90.2 28.95 -85.8 29.95 -85.75 29.95 -85.75 29.95 -85.25 30.1 -85.65 30.0 -85.6 30.0 -85.6 30.0 -85.55 30.05 -85.5 30.05 -85.5 30.05 -85.45 30.1 -85.45 30.1 -85.4 30.15 -85.4 30.15 -85.35 30.2 -85.35 30.25 -85.35 30.3 -85.45 30.55 -85.45 30.6 -85.6 30.8 -85.75 31.05 -85.9 31.25 -86.05 31.5 -86.15 31.7 -86.3 31.95 -86.4 32.2 -86.5 32.45 -86.65 32.65 -86.75 32.9 -86.85 33.15 -86.95 33.4 -87.05 33.6 -87.15 33.9 -87.25 34.1 -87.35 34.35 -87.4 34.5 -87.5 34.7 -87.55 34.85 -87.6 35.0 -87.65 35.2 -87.7 35.35 -87.7 35.55 -87.75 35.7 -87.8 35.85 -87.8 36.05 -87.8 36.2 -87.85 36.4 -87.85 36.55 -87.85 36.75 -87.85 36.9 -87.85 37.1 -87.85 37.25 -87.85 37.45 -87.85 37.6 -87.8 37.75 -87.75 37.9 -87.75 38.05 -87.7 38.25 -87.65 38.4 -87.55 38.55 -87.5 38.7 -87.45 38.8 -87.35 38.95 -87.25 39.1 -87.15 39.25 -87.05 39.35 -86.95 39.5 -86.85 39.6 -86.75 39.75 -86.65 39.85 -86.5 39.95 -86.4 40.05 -86.3 40.15 -86.2 40.25 -86.05 40.3 -85.95 40.4 -85.8 40.5 -85.7 40.55 -85.55 40.65 -85.45 40.7 -85.3 40.8 -85.15 40.85 -85.0 40.95 -84.75 41.1 -84.45 41.2 -84.15 41.3 -83.9 41.4 -83.6 41.5 -83.3 41.55 -83.05 41.65 -82.75 41.7 -82.45 41.75 -82.15 41.75 -81.85 41.8 -81.55 41.8 -81.25 41.8 -80.95 41.8 -80.65 41.8 -80.35 41.8 -79.05 41.75 -75.5 41.6 -75.45 41.6 -75.35 41.65 -75.2 41.7 -75.1 41.75 -75.4 42.1 -75.6 42.35 -76.45 43.4 -76.55 43.55 -76.9 44.05 -77.15 44.55 -77.45 45.1 -77.65 45.6 -77.9 46.15 -78.05 46.65 -78.25 47.2 -78.35 47.75 -78.5 48.3 -78.6 48.85 -78.65 49.4 -78.7 50.0 -78.75 50.55 -78.7 51.15 -78.7 51.7 -78.65 52.3 -78.6 52.55 -78.6 52.8 -78.55 53.1 -78.45 53.35 -78.4 53.6 -78.35 53.8 -78.25 54.05 -78.15 54.3 -78.05 54.55 -77.9 54.75 -77.8 55.0 -77.65 55.2 -77.5 55.4 -77.35 55.6 -77.2 55.8 -77.0 56.0 -76.8 56.2 -76.6 56.4 -76.45 56.6 -76.25 56.75 -76.0 56.95 -75.8 57.1 -75.6 57.25 -75.4 57.45 -75.15 57.6 -74.95 57.75 -74.7 57.9 -74.5 58.0 -74.25 58.15 -74.0 58.3 -73.75 58.4 -73.5 58.55 -73.05 58.75 -72.6 58.95 -72.15 59.1 -71.65 59.2 -71.2 59.35 -70.75 59.4 -70.25 59.5 -69.8 59.55 -69.3 59.6 -68.85 59.6 -68.35 59.6 -67.9 59.6 -67.4 59.55 -66.9 59.5 -66.45 59.45 -65.95 59.35 -65.6 59.3 -65.2 59.2 -64.85 59.15 -64.5 59.05 -64.1 58.95 -63.75 58.85 -63.4 58.75 -63.05 58.65 -62.7 58.55 -62.3 58.4 -61.95 58.3 -61.6 58.15 -61.25 58.0 -60.9 57.85 -60.55 57.75 -60.2 57.6 -59.95 57.5 -59.65 57.35 -59.4 57.25 -59.1 57.1 -58.85 56.95 -58.55 56.8 -58.3 56.7 -58.05 56.55 -57.8 56.4 -57.5 56.25 -57.25 56.1 -57.0 55.95 -56.75 55.8 -56.5 55.65 -56.25 55.45 -56.0 55.3 -55.65 54.1 -55.55 53.75 -55.55 53.7 -55.5 53.65 -55.5 53.6 -55.5 53.55 -55.45 53.5 -55.45 53.45 -55.4 53.4 -55.4 53.35 -55.35 53.3 -55.35 53.25 -55.3 53.2 -55.3 53.15 -55.25 53.1 -55.25 53.1 -55.2 53.05 -55.2 53.0 -55.2 53.0 -54.5 52.7 -54.5 53.2 -54.45 54.0 -54.4 54.4 -54.4 54.75 -54.35 55.15 -54.3 55.5 -54.25 55.9 -54.2 56.25 -54.15 56.6 -54.1 57.0 -54.0 57.35 -53.95 57.7 -53.85 58.1 -53.75 58.45 -53.65 58.8 -53.5 59.15 -53.4 59.5 -53.25 59.85 -53.1 60.25 -52.85 60.65 -52.65 61.0 -52.45 61.35 -52.2 61.7 -51.95 62.0 -51.65 62.3 -51.4 62.6 -51.1 62.85 -50.75 63.1 -50.45 63.35 -50.1 63.55 -49.75 63.75 -49.35 63.95 -48.95 64.15 -48.55 64.3 -47.8 64.55 -47.05 64.75 -46.25 65.0 -45.5 65.1 -44.75 65.25 -44.0 65.3 -43.25 65.4 -42.45 65.4 -41.7 65.35 -40.95 65.3 -40.2 65.25 -39.4 65.1 -38.65 65.0 -37.9 64.8 -37.15 64.6 -36.35 64.35 -36.05 64.25 -35.75 64.1 -35.45 63.95 -35.2 63.8 -35.0 63.6 -34.75 63.4 -34.55 63.2 -34.4 63.0 -34.2 62.8 -34.05 62.55 -33.9 62.3 -33.8 62.0 -33.7 61.75 -33.6 61.45 -33.55 61.15 -33.5 60.8 -33.45 60.65 -33.45 60.45 -33.45 60.15 -33.4 60.1 -33.4 59.95 -33.25 59.4 -33.1 59.4 -32.7 59.45 -32.4 59.5 -32.25 59.5 -32.05 59.5 -31.9 59.5 -31.7 59.5 -31.5 59.5 -31.35 59.5 -31.15 59.5 -30.95 59.5 -30.8 59.45 -30.6 59.45 -30.4 59.45 -30.25 59.4 -30.05 59.35 -29.9 59.35 -29.7 59.3 -29.55 59.25 -29.35 59.2 -29.05 59.1 -28.8 58.95 -28.55 58.85 -28.35 58.7 -28.1 58.5 -27.95 58.35 -27.75 58.15 -27.6 57.95 -27.5 57.7 -27.4 57.5 -27.25 57.25 -27.2 57.0 -27.15 56.75 -27.15 56.45 -27.1 56.15 -27.15 55.85 -27.2 55.4 -27.25 54.95 -27.35 54.5 -27.45 54.05 -27.55 53.6 -27.65 53.2 -27.8 52.75 -27.95 52.35 -28.1 51.95 -28.35 51.55 -28.55 51.15 -28.8 50.8 -29.05 50.45 -29.35 50.1 -29.7 49.75 -30.05 49.4 -30.05 49.4 -30.3 48.9 -29.2 48.75 -28.8 48.6 -28.75 48.6 -28.65 48.55 -28.6 48.55 -28.5 48.55 -28.45 48.5 -28.35 48.5 -28.3 48.45 -28.25 48.45 -28.15 48.4 -28.1 48.4 -28.0 48.35 -27.95 48.3 -27.9 48.3 -27.8 48.25 -27.75 48.2 -27.7 48.15 -27.5 48.0 -27.3 47.85 -27.1 47.7 -26.9 47.55 -26.7 47.4 -26.5 47.25 -26.35 47.1 -26.15 46.9 -26.0 46.7 -25.85 46.55 -25.7 46.35 -25.55 46.15 -25.4 45.95 -25.3 45.7 -25.15 45.5 -25.05 45.25 -24.8 44.65 -24.55 44.1 -24.35 43.5 -24.2 42.95 -24.05 42.35 -23.95 41.75 -23.85 41.15 -23.8 40.55 -23.75 40.0 -23.75 39.4 -23.8 38.8 -23.85 38.2 -23.95 37.6 -24.1 36.95 -24.25 36.35 -24.45 35.75 -24.55 35.4 -24.7 35.1 -24.8 34.75 -24.9 34.45 -25.05 34.1 -25.15 33.8 -25.3 33.5 -25.45 33.15 -25.55 32.85 -25.7 32.55 -25.85 32.2 -26.0 31.9 -26.15 31.6 -26.3 31.3 -26.45 30.95 -26.65 30.65 -28.2 27.65 -29.45 25.35 -29.85 24.6 -30.25 23.9 -30.6 23.15 -31.0 22.4 -31.35 21.65 -31.7 20.9 -32.05 20.15 -32.4 19.35 -32.7 18.6 -33.05 17.85 -33.35 17.1 -33.65 16.3 -33.95 15.55 -34.2 14.75 -34.5 13.95 -34.8 13.2 -34.85 13.0 -35.0 12.55 -38.55 10.5 -38.8 10.35 -39.05 10.2 -39.3 10.0 -39.55 9.85 -39.75 9.65 -40.0 9.45 -40.25 9.25 -40.45 9.05 -40.65 8.8 -40.85 8.6 -41.05 8.4 -41.25 8.15 -41.45 7.9 -41.65 7.7 -41.85 7.45 -42.0 7.2 -42.2 6.95 -42.45 6.6 -42.65 6.2 -42.85 5.85 -43.05 5.45 -43.2 5.05 -43.35 4.7 -43.5 4.3 -43.6 3.9 -43.7 3.5 -43.75 3.05 -43.85 2.65 -43.85 2.25 -43.9 1.8 -43.9 1.4 -43.9 0.95 -43.8 0.55 -43.75 0.2 -43.7 -0.2 -43.6 -0.55 -43.55 -0.9 -43.45 -1.25 -43.3 -1.6 -43.2 -1.9 -43.05 -2.25 -42.9 -2.6 -42.75 -2.9 -42.6 -3.2 -42.4 -3.55 -42.2 -3.85 -42.0 -4.15 -41.8 -4.45 -41.55 -4.75 -41.25 -5.15 -40.9 -5.5 -40.55 -5.9 -40.2 -6.25 -39.85 -6.6 -39.5 -6.9 -39.1 -7.2 -38.75 -7.5 -38.35 -7.8 -37.95 -8.1 -37.5 -8.35 -37.1 -8.6 -36.65 -8.85 -36.2 -9.1 -35.75 -9.3 -35.3 -9.5 -35.05 -9.6 -34.8 -9.7 -34.55 -9.8 -34.3 -9.9 -34.05 -9.95 -33.75 -10.05 -33.5 -10.1 -33.25 -10.2 -33.0 -10.25 -32.7 -10.3 -32.45 -10.35 -32.2 -10.4 -31.9 -10.45 -31.65 -10.45 -31.4 -10.5 -31.1 -10.5 -31.15 -10.45 -31.2 -10.4 -31.25 -10.4 -31.3 -10.35 -31.35 -10.3 -31.4 -10.3 -31.45 -10.25 -31.5 -10.25 -31.55 -10.2 -31.6 -10.15 -31.65 -10.15 -31.7 -10.1 -31.75 -10.1 -31.8 -10.05 -31.85 -10.05 -31.9 -10.0 -34.55 -8.75 -35.05 -8.5 -35.65 -8.15 -36.25 -7.75 -36.8 -7.4 -37.3 -6.95 -37.8 -6.5 -38.25 -6.0 -38.7 -5.55 -39.1 -5.0 -39.5 -4.5 -39.85 -3.95 -40.2 -3.35 -40.45 -2.75 -40.75 -2.15 -41.0 -1.5 -41.25 -0.9 -41.4 -0.2 -41.5 0.1 -41.55 0.4 -41.6 0.65 -41.6 0.95 -41.65 1.25 -41.65 1.5 -41.65 1.8 -41.65 2.05 -41.6 2.35 -41.55 2.65 -41.5 2.9 -41.45 3.2 -41.4 3.45 -41.3 3.75 -41.2 4.0 -41.1 4.3 -40.95 4.6 -40.8 4.9 -40.65 5.2 -40.45 5.5 -40.3 5.8 -40.1 6.05 -39.9 6.35 -39.65 6.6 -39.45 6.85 -39.2 7.1 -39.0 7.35 -38.75 7.55 -38.5 7.8 -38.2 8.0 -37.95 8.2 -37.65 8.4 -37.4 8.6 -37.15 8.75 -36.9 8.95 -36.6 9.1 -36.35 9.25 -36.1 9.4 -35.8 9.55 -35.55 9.7 -35.25 9.85 -35.0 9.95 -34.7 10.1 -34.45 10.2 -34.15 10.35 -33.85 10.45 -33.55 10.55 -33.25 10.65 -32.95 10.75 -32.65 10.85 -32.35 10.95 -32.0 11.05 -31.7 11.1 -31.4 11.2 -31.1 11.25 -30.75 11.35 -30.45 11.4 -30.15 11.45 -29.8 11.5 -29.5 11.55 -29.2 11.6 -28.85 11.65 -28.55 11.7 -28.2 11.7 -27.6 11.75 -27.0 11.8 -26.35 11.85 -25.75 11.9 -25.15 11.95 -24.55 11.95 -23.9 11.95 -23.3 11.95 -22.7 11.95 -22.1 11.95 -21.5 11.9 -20.9 11.9 -20.25 11.85 -19.65 11.75 -19.05 11.7 -18.45 11.6 -18.0 11.55 -17.95 11.5 -17.7 11.5 -17.45 11.45 -17.2 11.4 -16.95 11.35 -16.7 11.3 -16.5 11.25 -16.25 11.2 -16.0 11.15 -15.75 11.05 -15.5 11.0 -15.3 10.9 -15.05 10.85 -14.8 10.75 -14.6 10.65 -14.05 10.4 -13.55 10.1 -13.0 9.85 -12.55 9.5 -12.05 9.2 -11.6 8.85 -11.1 8.5 -10.7 8.15 -10.25 7.75 -9.85 7.35 -9.45 6.95 -9.05 6.5 -8.7 6.1 -8.35 5.6 -8.0 5.1 -7.7 4.6 -7.45 4.15 -7.2 3.75 -6.95 3.3 -6.75 2.9 -6.5 2.45 -6.3 2.0 -6.1 1.55 -5.9 1.15 -5.7 0.65 -5.55 0.2 -5.35 -0.25 -5.2 -0.7 -5.05 -1.2 -4.9 -1.65 -4.8 -2.15 -4.7 -2.6 -4.65 -2.8 -4.55 -3.1 -4.35 -3.6 -4.35 -3.65 -3.65 -3.35 -3.6 -3.3 -3.3 -3.15 -2.95 -3.0 -2.65 -2.85 -2.35 -2.75 -2.0 -2.6 -1.7 -2.5 -1.35 -2.4 -1.05 -2.3 -0.7 -2.2 -0.35 -2.1 -0.05 -2.05 0.3 -2.0 0.65 -1.9 1.0 -1.85 1.35 -1.8 1.7 -1.8 2.2 -1.75 2.65 -1.75 3.15 -1.7 3.6 -1.75 4.05 -1.8 4.5 -1.85 4.95 -1.9 5.4 -2.0 5.85 -2.1 6.3 -2.25 6.7 -2.4 7.15 -2.6 7.55 -2.8 7.95 -3.05 8.4 -3.3 8.8 -3.55 9.2 -3.85 9.55 -4.15 9.9 -4.45 10.25 -4.8 10.55 -5.1 10.85 -5.45 11.15 -5.8 11.45 -6.2 11.7 -6.55 11.95 -6.95 12.2 -7.35 12.4 -7.75 12.65 -8.15 12.85 -8.6 13.05 -9.0 13.2 -9.45 13.3 -9.75 13.4 -10.0 13.5 -10.25 13.55 -10.55 13.6 -10.8 13.65 -11.1 13.7 -11.35 13.7 -11.65 13.7 -11.9 13.7 -12.2 13.7 -12.45 13.65 -12.75 13.6 -13.0 13.55 -13.3 13.5 -13.55 13.4 -13.85 13.4 -13.9 13.35 -13.95 13.35 -14.0 13.3 -14.05 13.3 -14.1 13.3 -14.15 13.25 -14.2 13.25 -14.25 13.25 -14.3 13.25 -14.35 13.25 -14.4 13.25 -14.45 13.2 -14.5 13.2 -14.55 13.2 -14.6 13.2 -14.65 13.2 -14.7 13.2 -14.75 13.2 -14.85 13.25 -14.9 13.25 -14.95 13.25 -15.0 13.25 -15.05 13.3 -15.15 13.3 -15.2 13.3 -15.25 13.35 -15.3 13.35 -15.35 13.35 -15.4 13.4 -15.45 13.4 -15.55 13.4 -15.6 13.4 -15.65 13.45 -15.7 13.45 -15.7 13.5 -15.75 13.5 -15.8 13.55 -15.8 13.6 -15.85 13.6 -15.85 13.65 -15.9 13.7 -15.9 13.75 -15.9 13.8 -15.9 13.85 -15.9 13.9 -15.9 13.95 -15.9 14.05 -15.9 14.25 -15.45 14.55 -14.85 14.7 -14.5 14.85 -14.2 15.05 -13.85 15.2 -13.55 15.4 -13.25 15.6 -12.95 15.75 -12.6 16.0 -12.35 16.2 -12.05 16.4 -11.75 16.65 -11.45 16.85 -11.2 17.1 -10.9 17.35 -10.65 17.6 -10.4 17.9 -10.15 18.4 -9.7 18.95 -9.3 19.45 -8.85 20.0 -8.5 20.55 -8.1 21.15 -7.75 21.7 -7.4 22.3 -7.1 22.85 -6.75 23.45 -6.5 24.05 -6.2 24.7 -5.95 25.3 -5.7 25.95 -5.5 26.6 -5.3 27.25 -5.1 27.45 -5.05 27.9 -4.95 28.3 -4.85 28.55 -4.8 28.65 -4.75 28.75 -4.75 28.85 -4.75 28.95 -4.7 29.05 -4.7 29.1 -4.7 29.2 -4.65 29.3 -4.65 29.4 -4.65 29.5 -4.6 29.6 -4.6 29.7 -4.6 29.8 -4.55 29.9 -4.55 30.0 -4.55 30.1 -4.55 30.4 -4.55 30.65 -4.55 30.95 -4.55 31.2 -4.6 31.5 -4.65 31.75 -4.7 32.05 -4.75 32.3 -4.8 32.55 -4.9 32.85 -5.0 33.1 -5.05 33.35 -5.15 33.6 -5.25 33.85 -5.4 34.1 -5.5 34.35 -5.65 34.6 -5.75 34.8 -5.9 35.0 -6.0 35.2 -6.15 35.45 -6.3 35.6 -6.45 35.8 -6.6 36.0 -6.75 36.2 -6.95 36.35 -7.1 36.55 -7.3 36.7 -7.45 36.85 -7.65 37.0 -7.85 37.15 -8.05 37.3 -8.25 37.5 -8.5 37.65 -8.8 37.8 -9.05 37.95 -9.35 38.15 -9.6 38.25 -9.9 38.4 -10.2 38.55 -10.5 38.65 -10.75 38.75 -11.05 38.85 -11.35 38.95 -11.65 39.05 -11.95 39.15 -12.3 39.2 -12.6 39.3 -12.9 39.35 -13.3 39.6 -14.3 39.7 -13.8 39.7 -13.35 39.75 -12.85 39.75 -12.4 39.75 -11.9 39.7 -11.45 39.65 -11.0 39.55 -10.55 39.5 -10.1 39.35 -9.6 39.25 -9.2 39.1 -8.7 38.95 -8.3 38.8 -7.85 38.6 -7.4 38.45 -6.95 38.7 -6.7 39.3 -6.1 39.85 -5.6 40.1 -5.3 40.4 -5.0 40.65 -4.75 40.95 -4.5 41.3 -4.25 41.6 -4.0 41.9 -3.75 42.2 -3.55 42.55 -3.3 42.9 -3.1 43.2 -2.95 43.55 -2.75 43.9 -2.55 44.25 -2.4 44.65 -2.25 45.0 -2.1 45.35 -1.95 45.5 -1.9 45.65 -1.85 45.75 -1.8 45.9 -1.75 46.05 -1.7 46.2 -1.7 46.35 -1.65 46.45 -1.65 46.6 -1.6 46.75 -1.6 46.9 -1.6 47.05 -1.6 47.15 -1.55 47.3 -1.55 47.45 -1.55 47.6 -1.6 48.35 -1.65 49.0 -1.75 49.7 -1.9 50.35 -2.1 50.95 -2.25 51.55 -2.55 52.15 -2.8 52.7 -3.15 53.2 -3.5 53.7 -3.95 54.2 -4.35 54.6 -4.85 55.05 -5.35 55.45 -5.95 55.8 -6.55 56.15 -7.2 56.55 -7.95 57.25 -9.85 57.35 -10.2 57.45 -10.55 57.55 -10.85 57.65 -11.2 57.7 -11.55 57.75 -11.9 57.8 -12.25 57.8 -12.55 57.8 -12.9 57.8 -13.25 57.8 -13.6 57.75 -13.95 57.75 -14.3 57.65 -14.65 57.6 -15.0 57.55 -15.35 57.45 -15.7 57.35 -16.1 57.25 -16.45 57.15 -16.8 57.05 -17.15 56.9 -17.5 56.8 -17.85 56.65 -18.2 56.5 -18.55 56.35 -18.9 56.2 -19.25 56.05 -19.55 55.85 -19.9 55.7 -20.25 55.5 -20.55 55.3 -20.9 55.05 -21.4 54.75 -21.85 54.45 -22.3 54.15 -22.7 53.85 -23.15 53.55 -23.6 53.2 -24.0 52.85 -24.4 52.55 -24.85 52.15 -25.2 51.8 -25.6 51.45 -26.0 51.05 -26.35 50.65 -26.7 50.25 -27.05 49.8 -27.4 49.75 -27.4 49.55 -27.75 49.65 -27.75 49.75 -27.8 49.85 -27.8 49.9 -27.8 50.0 -27.8 50.1 -27.8 50.15 -27.75 50.25 -27.75 50.3 -27.75 50.4 -27.7 50.45 -27.7 50.5 -27.65 50.6 -27.6 50.65 -27.6 50.8 -27.55 50.8 -27.55 51.1 -27.4 51.4 -27.3 51.65 -27.15 51.95 -27.0 52.25 -26.85 52.5 -26.7 52.75 -26.5 53.05 -26.35 53.3 -26.15 53.55 -26.0 53.8 -25.8 54.05 -25.6 54.3 -25.4 54.5 -25.15 54.75 -24.95 55.0 -24.7 55.4 -24.3 55.8 -23.85 56.2 -23.4 56.55 -22.95 56.9 -22.5 57.2 -22.0 57.5 -21.55 57.8 -21.05 58.1 -20.55 58.35 -20.05 58.6 -19.5 58.8 -18.95 59.0 -18.45 59.2 -17.9 59.35 -17.3 59.5 -16.75 59.6 -16.4 59.65 -16.05 59.75 -15.7 59.8 -15.35 59.85 -15.0 59.9 -14.65 59.95 -14.3 60.0 -13.95 60.0 -13.6 60.05 -13.25 60.05 -12.9 60.05 -12.55 60.0 -12.2 59.95 -11.85 59.95 -11.45 59.85 -11.1 59.8 -10.75 59.7 -10.4 59.65 -10.1 59.55 -9.75 59.45 -9.4 59.35 -9.1 59.25 -8.75 59.1 -8.45 59.0 -8.1 58.85 -7.8 58.75 -7.5 58.6 -7.15 58.45 -6.85 58.3 -6.55 58.15 -6.2 58.0 -5.9 57.8 -5.5 57.55 -5.1 57.35 -4.75 57.1 -4.4 56.85 -4.0 56.55 -3.7 56.3 -3.35 56.0 -3.05 55.7 -2.75 55.4 -2.45 55.05 -2.15 54.7 -1.9 54.35 -1.6 54.0 -1.4 53.65 -1.15 53.25 -0.9 52.8 -0.65 52.4 -0.45 51.95 -0.25 51.5 -0.1 51.05 0.05 50.6 0.2 50.15 0.35 49.7 0.45 49.25 0.55 48.8 0.6 48.3 0.65 47.85 0.65 47.35 0.65 46.9 0.65 46.4 0.6 45.9 0.55 45.85 0.55 45.3 0.55 45.4 1.2 45.4 1.2 45.75 2.15 45.95 2.55 46.2 3.05 46.45 3.55 46.7 4.0 47.0 4.45 47.3 4.9 47.6 5.35 47.95 5.75 48.3 6.15 48.65 6.55 49.0 6.95 49.35 7.3 49.8 7.65 50.15 8.0 50.6 8.35 51.0 8.7 51.45 9.0 51.7 9.2 51.95 9.35 52.25 9.55 52.5 9.7 52.8 9.85 53.05 10.0 53.35 10.15 53.65 10.25 53.95 10.4 54.25 10.5 54.55 10.6 54.85 10.65 55.15 10.75 55.45 10.75 55.8 10.8 56.1 10.85 56.6 10.85 57.05 10.9 57.55 10.9 58.0 10.9 58.5 10.9 58.95 10.85 59.45 10.85 59.9 10.8 60.4 10.75 60.85 10.7 61.35 10.65 61.8 10.6 62.3 10.5 62.75 10.45 63.2 10.35 63.65 10.2 64.4 10.0 65.15 9.75 65.9 9.55 66.6 9.25 67.3 8.95 67.95 8.6 68.6 8.25 69.25 7.85 69.9 7.45 70.5 7.0 71.1 6.55 71.7 6.05 72.3 5.55 72.85 5.05 73.4 4.5 73.95 3.95 74.05 3.85 74.15 3.7 74.25 3.6 74.35 3.45 74.45 3.35 74.55 3.2 74.6 3.1 74.7 2.95 74.8 2.8 74.85 2.65 74.95 2.55 75.05 2.4 75.1 2.25 75.2 2.1 75.25 2.0 75.3 1.85 75.5 1.5 75.6 1.1 75.75 0.75 75.85 0.35 75.95 0.0 76.0 -0.35 76.05 -0.75 76.05 -1.1 76.05 -1.5 76.0 -1.85 75.95 -2.2 75.85 -2.6 75.7 -2.95 75.55 -3.3 75.4 -3.7 75.2 -4.05 75.05 -4.3 74.9 -4.6 74.7 -4.85 74.55 -5.1 74.4 -5.35 74.2 -5.65 74.05 -5.9 73.85 -6.1 73.65 -6.35 73.45 -6.6 73.25 -6.85 73.05 -7.05 72.85 -7.3 72.65 -7.55 72.4 -7.75 72.2 -7.95 70.5 -9.6 68.2 -12.5 68.0 -12.75 67.8 -13.0 67.6 -13.3 67.45 -13.55 67.25 -13.8 67.1 -14.1 66.95 -14.4 66.8 -14.65 66.65 -14.95 66.5 -15.25 66.35 -15.55 66.2 -15.85 66.1 -16.1 65.95 -16.4 65.85 -16.7 65.75 -17.05 65.7 -17.1 65.65 -17.7 65.95 -17.45 66.3 -17.05 68.75 -14.45 69.3 -13.9 70.8 -12.45 73.9 -9.45 74.15 -9.2 74.45 -8.9 74.7 -8.65 74.95 -8.35 75.2 -8.05 75.4 -7.75 75.65 -7.45 75.85 -7.15 76.1 -6.85 76.3 -6.55 76.5 -6.2 76.7 -5.9 76.9 -5.6 77.1 -5.25 77.25 -4.9 77.45 -4.55 77.6 -4.25 77.75 -3.9 77.85 -3.6 77.95 -3.3 78.05 -2.95 78.1 -2.65 78.2 -2.3 78.2 -2.0 78.25 -1.65 78.25 -1.3 78.25 -1.0 78.25 -0.65 78.2 -0.3 78.15 0.05 78.1 0.35 78.05 0.7 77.95 1.05 77.85 1.45 77.75 1.8 77.65 2.15 77.5 2.5 77.35 2.85 77.2 3.15 77.0 3.5 76.85 3.8 76.65 4.1 76.45 4.4 76.2 4.7 76.0 5.0 75.75 5.3 75.5 5.55 75.25 5.85 74.8 6.3 74.4 6.7 73.95 7.1 73.5 7.5 73.0 7.9 72.55 8.25 72.05 8.6 71.55 8.95 71.1 9.3 70.55 9.65 70.05 9.95 69.55 10.25 69.0 10.55 68.45 10.8 67.9 11.1 67.35 11.3 67.05 11.45 66.8 11.55 66.5 11.65 66.25 11.75 65.95 11.9 65.7 12.0 65.4 12.1 65.1 12.15 64.8 12.25 64.55 12.35 64.25 12.4 63.95 12.45 63.65 12.55 63.35 12.6 63.05 12.65 62.75 12.7 62.55 12.7 61.3 12.95 61.3 14.15 61.3 14.2 61.3 14.7 61.3 15.15 61.3 15.65 61.3 16.15 61.3 16.65 61.25 17.1 61.25 17.6 61.25 18.1 61.2 18.55 61.15 19.05 61.1 19.55 61.05 20.0 61.05 20.5 60.95 20.95 60.9 21.45 60.85 21.95 60.85 22.05 60.8 22.1 60.8 22.2 60.8 22.3 60.75 22.4 60.75 22.45 60.75 22.55 60.7 22.65 60.7 22.75 60.65 22.8 60.65 22.9 60.6 23.0 60.6 23.1 60.55 23.15 60.55 23.25 60.5 23.35 60.35 23.75 60.2 24.1 60.05 24.5 59.9 24.85 59.75 25.2 59.6 25.55 59.45 25.95 59.3 26.3 59.1 26.65 58.95 27.0 58.75 27.35 58.55 27.7 58.35 28.05 58.15 28.4 57.95 28.75 57.7 29.05 57.05 30.0 55.35 32.4 54.25 33.9 54.0 34.25 53.85 34.5 53.7 34.75 53.5 35.0 53.4 35.25 53.25 35.5 53.1 35.75 52.95 36.0 52.85 36.25 52.75 36.5 52.65 36.8 52.55 37.05 52.45 37.3 52.35 37.6 52.3 37.85 52.25 38.15 52.2 38.45 51.95 39.85 51.95 40.6 51.95 40.95 51.9 41.35 51.9 41.7 51.95 42.05 51.95 42.4 52.0 42.8 52.05 43.15 52.1 43.5 52.2 43.85 52.3 44.2 52.35 44.55 52.5 44.85 52.6 45.2 52.75 45.55 52.9 45.9 53.05 46.2 53.2 46.5 53.35 46.75 53.5 47.05 53.7 47.3 53.9 47.55 54.1 47.75 54.3 48.0 54.5 48.2 54.7 48.45 54.95 48.6 55.2 48.8 55.45 48.95 55.7 49.15 56.0 49.3 56.25 49.45 56.55 49.55 56.7 49.6 56.8 49.65 56.95 49.7 57.1 49.75 57.25 49.8 57.35 49.85 57.5 49.9 57.65 49.95 57.75 50.0 57.9 50.05 58.05 50.1 58.2 50.15 58.3 50.15 58.45 50.2 58.6 50.25 58.75 50.3 59.05 50.35 59.3 50.45 59.6 50.5 59.9 50.55 60.15 50.6 60.45 50.65 60.75 50.7 61.05 50.7 61.35 50.75 61.65 50.75 61.9 50.8 62.2 50.8 62.5 50.8 62.8 50.8 63.1 50.8 63.4 50.8 63.65 50.8 64.05 50.8 64.6 50.8 64.7 50.8 64.2 50.95 63.7 51.1 63.2 51.25 62.7 51.3 62.2 51.4 61.7 51.45 61.2 51.5 60.7 51.5 60.2 51.55 59.7 51.55 59.2 51.55 58.65 51.5 58.2 51.5 57.65 51.45 57.4 51.45 56.65 51.4 56.7 51.7 56.75 52.0 56.8 52.25 56.85 52.55 56.95 52.8 57.05 53.05 57.15 53.25 57.3 53.5 57.4 53.7 57.55 53.9 57.75 54.15 57.9 54.3 58.1 54.5 58.3 54.65 58.5 54.85 58.7 55.0 58.85 55.1 59.0 55.2 59.15 55.3 59.35 55.35 59.5 55.45 59.65 55.55 59.85 55.6 60.0 55.65 60.15 55.75 60.35 55.8 60.5 55.85 60.7 55.9 60.85 55.95 61.05 56.0 61.2 56.05 61.4 56.1 61.85 56.2 62.3 56.25 62.75 56.3 63.2 56.35 63.65 56.4 64.15 56.4 64.6 56.4 65.05 56.4 65.5 56.4 65.95 56.35 66.4 56.35 66.85 56.25 67.3 56.2 67.8 56.15 68.25 56.05 68.7 55.95 69.2 55.85 69.65 55.7 70.1 55.6 70.55 55.45 71.0 55.3 71.4 55.1 71.85 54.9 72.25 54.7 72.7 54.5 73.1 54.25 73.5 54.0 73.85 53.7 74.25 53.45 74.6 53.15 75.0 52.8 75.35 52.5 75.55 52.3 75.7 52.15 75.9 51.95 76.05 51.8 76.2 51.6 76.35 51.4 76.55 51.2 76.7 51.0 76.85 50.8 77.0 50.6 77.1 50.4 77.25 50.2 77.4 50.0 77.5 49.8 77.65 49.55 77.75 49.35 77.8 49.25 78.45 48.05 79.7 45.9 79.9 45.45 80.85 43.25 82.0 40.45 82.6 39.0 83.5 36.6 84.65 33.6 85.0 32.8 85.05 32.7 85.25 32.3 85.3 32.7 85.3 33.1 85.3 33.5 85.3 33.9 85.25 34.3 85.25 34.7 85.2 35.05 85.15 35.5 85.1 35.85 85.05 36.3 85.0 36.65 84.95 37.1 84.9 37.45 84.85 37.9 84.8 38.05 84.7 38.7 84.8 38.7 85.15 38.7 85.45 38.7 85.6 38.7 86.05 38.65 86.5 38.6 86.95 38.5 87.4 38.4 87.85 38.3 88.25 38.15 88.7 38.05 89.1 37.9 89.55 37.7 89.95 37.55 90.35 37.35 90.7 37.1 91.1 36.9 91.5 36.6 91.85 36.35 92.2 36.05 92.55 35.75 92.95 35.4 93.3 35.1 93.65 34.75 93.95 34.45 94.3 34.1 94.65 33.75 94.95 33.4 95.25 33.05 95.55 32.7 95.85 32.3 96.15 31.95 96.4 31.55 96.7 31.15 96.95 30.75 97.2 30.35 97.6 29.65 98.0 29.0 98.35 28.3 98.65 27.55 98.9 26.85 99.15 26.15 99.35 25.4 99.5 24.7 99.7 23.95 99.8 23.2 99.85 22.45 99.9 21.65 99.95 20.9 99.9 20.15 99.9 19.35 99.8 18.55 99.75 18.05 99.65 17.55 99.6 17.05 99.5 16.55 99.45 16.05 99.35 15.55 99.25 15.05 99.1 14.55 99.0 14.1 98.9 13.6 98.8 13.1 98.65 12.6 98.5 12.15 98.4 11.65 98.25 11.15 98.1 10.65 96.95 6.75 94.45 0.95 94.35 0.7 94.2 0.45 94.1 0.2 93.95 -0.05 93.85 -0.3 93.7 -0.55 93.55 -0.8 93.45 -1.05 93.3 -1.3 93.15 -1.5 93.0 -1.75 92.85 -2.0 92.65 -2.2 92.5 -2.45 92.35 -2.65 92.15 -2.9 92.15 -2.95 91.75 -3.5 91.8 -3.5 92.1 -3.7 92.3 -3.8 92.45 -3.85 93.9 -4.55 93.95 -4.6 94.75 -5.1 95.25 -5.4 95.85 -5.8 96.3 -6.1 96.75 -6.45 97.1 -6.75 97.5 -7.05 97.8 -7.4 98.1 -7.75 98.35 -8.1 98.6 -8.45 98.85 -8.9 99.1 -9.35 99.4 -9.9 99.6 -10.4 99.9 -11.1 100.3 -12.05 100.7 -13.05 101.05 -14.0 101.35 -15.0 101.65 -16.0 101.9 -17.0 102.15 -18.0 102.3 -19.0 102.5 -20.0 102.65 -21.0 102.75 -22.05 102.85 -23.05 102.9 -24.1 102.9 -25.15 102.95 -26.15 102.9 -27.25 102.9 -27.65 102.85 -28.05 102.85 -28.45 102.8 -28.85 102.8 -29.25 102.75 -29.65 102.7 -30.05 102.65 -30.4 102.6 -30.8 102.55 -31.2 102.5 -31.6 102.4 -32.0 102.35 -32.4 102.25 -32.8 102.2 -33.2 102.1 -33.55 101.9 -34.4 101.65 -35.2 101.35 -35.95 101.05 -36.7 100.7 -37.45 100.35 -38.15 99.95 -38.85 99.45 -39.5 99.0 -40.15 98.5 -40.75 97.95 -41.35 97.4 -41.9 96.8 -42.45 96.15 -42.95 95.45 -43.45 94.75 -43.95 94.2 -44.3 93.65 -44.6 93.1 -44.9 92.5 -45.15 91.95 -45.45 91.35 -45.65 90.8 -45.9 90.2 -46.1 89.6 -46.3 89.0 -46.5 88.4 -46.65 87.75 -46.8 87.15 -46.95 86.55 -47.1 85.95 -47.25 85.3 -47.35 85.25 -47.35 85.15 -47.35 85.1 -47.4 85.0 -47.4 84.9 -47.4 84.85 -47.4 84.75 -47.45 84.7 -47.45 84.6 -47.45 84.55 -47.5 84.45 -47.5 84.35 -47.55 84.3 -47.6 84.2 -47.65 84.15 -47.75 84.1 -47.8 84.1 -47.9 84.1 -48.0 84.1 -48.05 84.1 -48.2 84.05 -48.65 84.05 -48.4 84.05 -48.5 84.05 -48.6 84.05 -48.7 84.05 -48.8 84.05 -48.95 84.05 -49.05 84.05 -49.15 84.05 -49.25 84.1 -49.4 84.1 -49.5 84.4 -49.65 84.9 -49.95 84.9 -50.0 84.9 -50.05 84.9 -50.15 84.9 -50.15 84.9 -50.2 84.9 -50.25 84.9 -50.3 84.8 -50.5 84.75 -50.7 84.7 -50.8 84.5 -51.3 84.3 -51.8 84.05 -52.25 83.8 -52.65 83.55 -53.05 83.2 -53.4 82.9 -53.8 82.55 -54.1 82.2 -54.4 81.8 -54.65 81.4 -54.9 80.95 -55.1 80.5 -55.25 80.0 -55.4 79.5 -55.55 78.95 -55.6 78.65 -55.65 78.4 -55.65 78.1 -55.7 77.85 -55.7 77.6 -55.75 77.3 -55.75 77.05 -55.75 76.75 -55.7 76.5 -55.7 76.2 -55.65 75.95 -55.65 75.7 -55.6 75.4 -55.55 75.15 -55.5 74.9 -55.45 74.6 -55.4 74.1 -55.3 70.05 -54.25 70.0 -54.25 70.0 -54.25 69.95 -54.25 69.9 -54.2 69.85 -54.2 69.85 -54.2 69.8 -54.2 69.75 -54.15 69.75 -54.15 69.7 -54.15 69.65 -54.15 69.6 -54.2 69.55 -54.2 69.55 -54.2 69.5 -54.25 69.45 -54.25 69.6 -54.6 69.65 -54.8 69.8 -55.05 69.95 -55.35 70.05 -55.6 70.15 -55.9 70.25 -56.2 70.35 -56.45 70.4 -56.75 70.45 -57.05 70.55 -57.35 70.55 -57.65 70.6 -57.9 70.6 -58.2 70.6 -58.55 70.55 -58.85 70.55 -59.15 70.5 -59.45 70.45 -59.65 70.45 -59.8 70.4 -60.0 70.3 -60.15 70.25 -60.3 70.2 -60.45 70.1 -60.6 70.05 -60.75 69.95 -60.9 69.85 -61.0 69.75 -61.15 69.6 -61.25 69.45 -61.35 69.35 -61.45 69.2 -61.55 69.0 -61.65 68.85 -61.7 68.75 -61.8 68.6 -61.85 68.5 -61.9 68.35 -61.95 68.25 -62.0 68.1 -62.05 67.95 -62.1 67.85 -62.15 67.7 -62.2 67.55 -62.25 67.4 -62.25 67.3 -62.3 67.15 -62.3 67.0 -62.35 66.85 -62.35 66.45 -62.4 63.15 -62.65 L63.15 -62.65" fill="#000000" fill-rule="evenodd" stroke="none"/>
    <path d="M32.95 -43.9 Q32.9 -43.95 32.85 -44.0 32.75 -44.05 32.75 -44.1 32.7 -44.15 32.65 -44.2 32.6 -44.25 32.6 -44.3 32.6 -44.4 32.55 -44.45 32.55 -44.5 32.55 -44.55 32.55 -44.6 32.55 -44.7 32.55 -44.75 32.55 -44.8 32.55 -44.85 32.6 -44.9 32.6 -45.0 32.6 -45.05 32.65 -45.1 32.65 -45.15 32.7 -45.2 32.7 -45.25 32.75 -45.3 32.8 -45.35 32.85 -45.4 32.85 -45.45 32.9 -45.5 32.95 -45.5 33.0 -45.55 33.05 -45.6 33.1 -45.65 33.7 -46.0 34.1 -46.25 34.4 -46.4 34.8 -46.6 35.2 -46.8 35.6 -47.0 36.05 -47.15 36.45 -47.3 36.85 -47.45 37.25 -47.6 37.7 -47.75 38.1 -47.85 38.55 -48.0 39.0 -48.1 39.4 -48.2 39.85 -48.25 40.3 -48.35 40.75 -48.4 41.2 -48.45 41.4 -48.45 41.55 -48.5 41.75 -48.5 41.95 -48.55 42.1 -48.55 42.3 -48.55 42.5 -48.55 42.7 -48.6 42.85 -48.6 43.05 -48.6 43.25 -48.6 43.45 -48.65 43.6 -48.65 43.8 -48.65 44.0 -48.65 44.2 -48.65 44.4 -48.65 44.6 -48.65 44.85 -48.65 45.05 -48.6 45.25 -48.6 45.45 -48.55 45.65 -48.55 45.85 -48.5 46.05 -48.45 46.3 -48.4 46.5 -48.4 46.7 -48.3 46.9 -48.25 47.1 -48.2 47.3 -48.15 47.5 -48.05 47.9 -47.9 48.3 -47.75 48.7 -47.55 49.05 -47.35 49.45 -47.15 49.75 -46.9 50.1 -46.65 50.4 -46.35 50.7 -46.1 51.0 -45.8 51.3 -45.5 51.55 -45.15 51.8 -44.85 52.05 -44.45 52.3 -44.15 52.5 -43.75 52.75 -43.3 53.0 -42.85 53.2 -42.4 53.4 -41.95 53.55 -41.45 53.7 -41.0 53.8 -40.5 53.9 -40.05 54.0 -39.55 54.0 -39.05 54.05 -38.6 54.05 -38.1 54.05 -37.6 54.0 -37.1 53.95 -36.6 53.85 -36.05 53.8 -35.75 53.75 -35.4 53.65 -35.1 53.6 -34.8 53.5 -34.5 53.4 -34.15 53.35 -33.85 53.25 -33.55 53.15 -33.25 53.05 -32.95 52.95 -32.65 52.8 -32.35 52.7 -32.05 52.55 -31.75 52.45 -31.45 52.3 -31.15 52.2 -30.95 52.15 -30.8 52.05 -30.6 51.95 -30.45 51.85 -30.25 51.75 -30.1 51.65 -29.95 51.55 -29.75 51.45 -29.6 51.3 -29.45 51.2 -29.3 51.1 -29.15 50.95 -29.0 50.85 -28.8 50.7 -28.65 50.6 -28.5 50.15 -28.05 49.85 -27.9 49.75 -27.85 49.7 -27.8 49.6 -27.75 49.5 -27.75 49.45 -27.7 49.35 -27.7 49.25 -27.7 49.2 -27.7 49.1 -27.75 49.0 -27.75 48.95 -27.8 48.85 -27.85 48.75 -27.85 48.7 -27.95 48.6 -28.0 48.55 -28.05 48.5 -28.1 48.45 -28.2 48.4 -28.25 48.35 -28.35 48.3 -28.45 48.25 -28.5 48.25 -28.6 48.25 -28.7 48.2 -28.8 48.25 -28.85 48.25 -28.95 48.25 -29.05 48.25 -29.15 48.3 -29.2 48.35 -29.3 48.4 -29.4 48.45 -29.5 48.75 -29.85 48.9 -30.0 49.05 -30.2 49.2 -30.35 49.35 -30.55 49.5 -30.75 49.6 -30.9 49.75 -31.1 49.85 -31.3 49.95 -31.5 50.05 -31.7 50.2 -31.9 50.3 -32.1 50.4 -32.3 50.45 -32.5 50.55 -32.7 50.65 -32.9 50.75 -33.15 50.85 -33.4 50.95 -33.7 51.05 -33.95 51.1 -34.2 51.2 -34.45 51.3 -34.7 51.35 -35.0 51.45 -35.25 51.5 -35.5 51.55 -35.75 51.6 -36.05 51.65 -36.3 51.7 -36.55 51.75 -36.85 51.75 -37.1 51.8 -37.7 51.8 -38.3 51.8 -38.85 51.75 -39.4 51.65 -39.95 51.5 -40.5 51.4 -41.0 51.2 -41.5 51.0 -42.0 50.7 -42.45 50.45 -42.95 50.1 -43.35 49.75 -43.8 49.35 -44.2 48.95 -44.65 48.5 -45.0 48.25 -45.2 48.0 -45.4 47.7 -45.55 47.45 -45.7 47.15 -45.85 46.85 -45.95 46.55 -46.05 46.25 -46.15 45.95 -46.25 45.65 -46.3 45.35 -46.35 45.05 -46.4 44.7 -46.4 44.4 -46.4 44.1 -46.45 43.75 -46.45 43.4 -46.45 43.05 -46.4 42.7 -46.4 42.4 -46.4 42.05 -46.35 41.7 -46.3 41.35 -46.25 41.05 -46.25 40.7 -46.2 40.35 -46.1 40.05 -46.05 39.7 -46.0 39.35 -45.9 39.05 -45.8 38.7 -45.7 38.4 -45.6 37.45 -45.3 35.7 -44.75 33.8 -44.15 32.95 -43.9 L32.95 -43.9" fill="#000000" fill-rule="evenodd" stroke="none"/>
  </g>
</svg>
