<?xml version="1.0" encoding="UTF-8" standalone="no"?>
<svg xmlns:xlink="http://www.w3.org/1999/xlink" height="152.3px" width="167.75px" xmlns="http://www.w3.org/2000/svg">
  <g transform="matrix(1.0, 0.0, 0.0, 1.0, 83.85, 76.15)">
    <path d="M-110.9 -23.55 Q-110.9 -23.2 -110.85 -22.85 -110.8 -22.45 -110.75 -22.1 -110.7 -21.65 -110.65 -21.25 -110.55 -20.8 -110.45 -20.35 -110.35 -19.85 -110.2 -19.4 -110.05 -18.9 -109.9 -18.4 -109.7 -17.85 -109.5 -17.35 -109.3 -16.8 -109.05 -16.3 -108.8 -15.8 -108.5 -15.3 -108.25 -14.8 -107.95 -14.35 -107.65 -13.9 -107.35 -13.5 -107.0 -13.05 -106.65 -12.65 -106.35 -12.25 -105.95 -11.9 -105.6 -11.5 -105.25 -11.1 -104.85 -10.75 -104.45 -10.4 -104.05 -10.05 -103.65 -9.65 -102.5 -8.7 -101.3 -7.75 -100.1 -6.85 -98.85 -6.0 -97.7 -5.15 -96.45 -4.4 -95.3 -3.65 -94.05 -2.95 -92.95 -2.3 -91.8 -1.65 -90.75 -1.1 -89.65 -0.55 -88.7 -0.05 -87.75 0.4 -86.9 0.8 -86.05 1.15 -86.35 1.35 -86.6 1.5 -86.9 1.7 -87.2 1.85 -87.5 2.05 -87.8 2.2 -88.1 2.35 -88.4 2.55 -88.7 2.7 -89.0 2.85 -89.3 3.05 -89.65 3.2 -89.95 3.35 -90.3 3.5 -90.65 3.65 -90.95 3.85 -92.45 4.55 -94.0 5.1 -95.45 5.6 -96.95 6.05 -98.4 6.45 -99.85 6.75 -101.25 7.05 -102.65 7.25 -103.95 7.4 -105.3 7.55 -106.55 7.65 -107.8 7.65 -108.95 7.7 -110.1 7.7 -111.15 7.65 -112.2 7.6 -112.05 7.85 -111.9 8.1 -111.75 8.4 -111.6 8.65 -111.4 8.95 -111.25 9.25 -111.05 9.55 -110.85 9.85 -110.6 10.2 -110.4 10.5 -110.15 10.85 -109.9 11.2 -109.65 11.55 -109.4 11.9 -109.1 12.25 -108.85 12.6 -108.5 13.05 -108.15 13.4 -107.75 13.9 -107.35 14.3 -106.9 14.8 -106.35 15.3 -105.8 15.85 -105.2 16.35 -104.55 16.95 -103.85 17.55 -103.1 18.15 -102.25 18.75 -101.35 19.4 -100.35 20.1 -99.35 20.8 -98.2 21.5 -97.45 22.0 -96.65 22.45 -95.8 22.95 -94.95 23.45 -94.0 23.95 -93.05 24.45 -92.0 25.0 -90.95 25.5 -89.85 26.05 -88.7 26.6 -87.5 27.15 -86.25 27.65 -84.95 28.15 -83.65 28.65 -82.25 29.2 -80.85 29.65 -81.05 29.85 -81.3 30.05 -81.5 30.3 -81.7 30.5 -81.95 30.7 -82.2 30.9 -82.45 31.15 -82.7 31.35 -82.95 31.55 -83.2 31.75 -83.5 32.0 -83.75 32.2 -84.05 32.4 -84.35 32.6 -84.65 32.85 -84.95 33.05 -85.8 33.6 -86.65 34.1 -87.5 34.6 -88.35 35.0 -89.15 35.4 -90.0 35.75 -90.8 36.05 -91.6 36.35 -92.35 36.6 -93.15 36.8 -93.85 37.0 -94.55 37.15 -95.25 37.3 -95.9 37.45 -96.5 37.55 -97.1 37.65 -96.95 37.7 -96.85 37.75 -96.7 37.85 -96.55 37.9 -96.4 37.95 -96.25 38.05 -96.05 38.1 -95.9 38.15 -95.7 38.25 -95.5 38.3 -95.3 38.4 -95.1 38.45 -94.9 38.55 -94.7 38.6 -94.45 38.7 -94.25 38.75 -93.55 38.95 -92.8 39.1 -92.1 39.25 -91.4 39.35 -90.75 39.45 -90.05 39.5 -89.4 39.5 -88.7 39.5 -88.05 39.5 -87.35 39.45 -86.7 39.45 -86.0 39.35 -85.4 39.3 -84.65 39.25 -84.15 39.15 -83.3 39.05 -83.05 39.0 -82.8 39.0 -82.55 38.95 -82.25 38.9 -82.0 38.85 -81.7 38.85 -81.35 38.8 -81.05 38.7 -80.75 38.65 -80.4 38.6 -80.05 38.55 -79.7 38.45 -79.35 38.4 -78.95 38.3 -78.6 38.25 -78.2 38.15 -78.45 38.4 -78.7 38.65 -78.95 38.9 -79.25 39.1 -79.5 39.35 -79.8 39.6 -80.1 39.85 -80.4 40.1 -80.7 40.35 -81.0 40.6 -81.3 40.85 -81.65 41.05 -81.95 41.3 -82.3 41.55 -82.65 41.8 -83.0 42.0 -84.15 42.75 -85.4 43.45 -86.55 44.1 -87.8 44.6 -88.9 45.1 -90.1 45.55 -91.2 45.9 -92.35 46.25 -93.4 46.5 -94.5 46.75 -95.45 46.95 -96.45 47.1 -97.35 47.2 -98.25 47.3 -99.05 47.4 -99.85 47.45 -99.75 47.55 -99.6 47.6 -99.5 47.7 -99.35 47.8 -99.25 47.9 -99.1 48.0 -98.95 48.1 -98.8 48.2 -98.6 48.3 -98.45 48.4 -98.25 48.55 -98.1 48.65 -97.9 48.75 -97.7 48.85 -97.5 48.95 -97.3 49.05 -96.85 49.3 -96.4 49.45 -95.95 49.65 -95.5 49.8 -95.05 49.95 -94.55 50.1 -94.0 50.25 -93.45 50.35 -92.9 50.45 -92.3 50.5 -91.65 50.6 -90.95 50.6 -90.25 50.65 -89.45 50.7 -88.7 50.7 -87.8 50.7 -87.25 50.7 -86.65 50.7 -86.05 50.65 -85.45 50.65 -84.8 50.6 -84.1 50.6 -83.4 50.55 -82.7 50.5 -82.0 50.45 -81.25 50.35 -80.45 50.25 -79.7 50.2 -78.85 50.05 -78.05 49.95 -77.2 49.85 -76.35 49.7 -76.5 49.85 -76.65 49.95 -76.8 50.1 -76.95 50.25 -77.1 50.4 -77.3 50.55 -77.45 50.65 -77.6 50.8 -77.75 50.95 -77.95 51.1 -78.1 51.25 -78.3 51.35 -78.45 51.5 -78.65 51.65 -78.85 51.8 -79.0 51.95 -79.6 52.4 -80.2 52.8 -80.75 53.2 -81.35 53.55 -81.95 53.9 -82.55 54.2 -83.1 54.5 -83.7 54.8 -84.25 55.1 -84.8 55.35 -85.35 55.55 -85.9 55.8 -86.4 56.0 -86.9 56.2 -87.4 56.35 -87.9 56.5 -87.65 56.6 -87.4 56.75 -87.15 56.85 -86.85 56.95 -86.6 57.1 -86.3 57.2 -86.05 57.3 -85.75 57.45 -85.45 57.55 -85.15 57.65 -84.85 57.75 -84.55 57.85 -84.25 57.95 -83.95 58.05 -83.6 58.15 -83.3 58.25 -82.7 58.45 -82.1 58.6 -81.5 58.75 -80.95 58.85 -80.35 59.0 -79.8 59.1 -79.25 59.2 -78.7 59.25 -78.2 59.35 -77.65 59.4 -77.15 59.45 -76.65 59.5 -76.2 59.55 -75.7 59.55 -75.25 59.6 -74.85 59.6 -74.95 59.7 -75.05 59.8 -75.15 59.9 -75.25 59.95 -75.35 60.05 -75.5 60.15 -75.6 60.25 -75.7 60.35 -75.85 60.45 -76.0 60.55 -76.1 60.65 -76.25 60.75 -76.4 60.85 -76.55 60.95 -76.7 61.05 -76.85 61.1 -77.15 61.3 -77.45 61.45 -77.75 61.6 -78.05 61.7 -78.35 61.85 -78.65 61.95 -78.9 62.05 -79.2 62.15 -79.45 62.2 -79.7 62.3 -79.95 62.35 -80.2 62.4 -80.4 62.45 -80.65 62.5 -80.85 62.5 -81.05 62.55 -80.75 62.7 -80.45 62.8 -80.15 62.95 -79.8 63.1 -79.45 63.25 -79.15 63.35 -78.75 63.5 -78.4 63.65 -78.05 63.75 -77.65 63.9 -77.25 64.05 -76.85 64.15 -76.45 64.25 -76.0 64.4 -75.55 64.5 -75.15 64.6 -74.75 64.7 -74.4 64.75 -74.0 64.85 -73.65 64.9 -73.3 64.95 -72.95 65.0 -72.6 65.05 -72.25 65.1 -71.9 65.15 -71.55 65.2 -71.25 65.2 -70.9 65.25 -70.6 65.25 -70.3 65.3 -70.0 65.3 -69.7 65.3 -69.7 65.1 -69.75 64.9 -69.75 64.7 -69.75 64.5 -69.75 64.25 -69.75 64.0 -69.7 63.7 -69.7 63.45 -69.65 63.15 -69.6 62.85 -69.55 62.55 -69.5 62.25 -69.45 61.9 -69.35 61.6 -69.25 61.25 -69.1 60.9 -68.95 60.55 -68.9 60.35 -68.75 60.05 -68.65 59.8 -68.5 59.5 -68.35 59.2 -68.2 58.9 -68.05 58.65 -67.85 58.35 -67.65 58.1 -67.4 57.8 -67.15 57.6 -66.9 57.35 -66.6 57.15 -66.3 56.95 -65.95 56.85 -65.6 56.7 -65.25 56.65 -64.9 56.6 -64.55 56.6 -64.15 56.55 -63.8 56.65 -63.4 56.7 -63.05 56.8 -62.65 56.9 -62.3 57.05 -61.95 57.2 -61.6 57.45 -61.2 57.65 -60.9 57.9 -60.55 58.15 -60.2 58.45 -60.05 58.9 -59.9 59.3 -59.7 59.75 -59.55 60.15 -59.4 60.55 -59.25 60.9 -59.05 61.3 -58.9 61.65 -58.75 62.0 -58.6 62.35 -58.4 62.65 -58.25 62.95 -58.1 63.25 -57.95 63.55 -57.8 63.8 -57.65 64.1 -57.35 64.65 -57.15 65.0 -56.85 65.5 -56.6 65.95 -56.3 66.45 -56.0 66.95 -55.65 67.5 -55.3 68.0 -54.9 68.55 -54.5 69.05 -54.05 69.65 -53.6 70.15 -53.1 70.75 -52.6 71.25 -52.05 71.8 -51.45 72.35 -51.15 72.65 -50.8 72.9 -50.5 73.15 -50.2 73.4 -49.9 73.6 -49.6 73.85 -49.35 74.05 -49.05 74.25 -48.75 74.45 -48.5 74.65 -48.25 74.8 -47.95 74.95 -47.75 75.1 -47.5 75.25 -47.25 75.4 -47.05 75.5 -47.1 75.2 -47.2 74.9 -47.25 74.6 -47.35 74.25 -47.4 73.9 -47.5 73.55 -47.55 73.15 -47.65 72.75 -47.75 72.35 -47.85 71.9 -47.9 71.45 -48.0 71.0 -48.1 70.55 -48.2 70.1 -48.3 69.6 -48.35 69.1 -49.65 62.15 -49.8 58.75 -49.85 58.05 -49.1 49.05 -49.0 47.75 -48.9 47.0 -48.85 45.95 -48.75 45.15 -48.65 44.25 -48.55 43.5 -48.45 42.65 -48.35 41.95 -48.25 41.15 -48.1 40.45 -47.95 39.75 -47.8 39.0 -47.6 38.3 -47.4 37.6 -47.2 36.85 -46.95 36.1 -46.9 35.95 -46.85 35.8 -46.8 35.65 -46.75 35.5 -46.7 35.35 -46.65 35.25 -46.6 35.1 -46.55 35.0 -46.5 34.85 -46.45 34.75 -46.4 34.65 -46.35 34.55 -46.35 34.45 -46.3 34.35 -46.25 34.25 -46.25 34.15 -44.65 32.5 -41.45 29.25 -41.4 28.75 -41.3 28.2 -41.25 27.7 -41.15 27.25 -41.1 26.75 -41.0 26.25 -40.95 25.8 -40.85 25.35 -40.75 24.9 -40.7 24.5 -40.6 24.05 -40.55 23.65 -40.45 23.25 -40.35 22.85 -40.3 22.5 -40.2 22.1 -40.0 21.3 -39.95 20.85 -39.8 20.25 -39.65 19.75 -39.55 19.2 -39.45 18.75 -39.3 18.3 -39.2 17.85 -39.05 17.4 -38.95 17.0 -38.8 16.6 -38.65 16.2 -38.5 15.85 -38.35 15.45 -38.15 15.05 -37.95 14.65 -37.8 14.4 -37.7 14.15 -37.55 13.85 -37.4 13.6 -37.2 13.25 -37.0 12.9 -36.8 12.55 -36.55 12.2 -36.3 11.8 -36.0 11.4 -35.7 11.0 -35.35 10.6 -35.0 10.15 -34.6 9.75 -34.2 9.35 -33.75 8.95 -33.3 8.5 -32.8 8.15 -32.3 7.75 -31.8 7.4 -31.35 7.1 -30.85 6.85 -30.4 6.55 -29.9 6.35 -29.45 6.1 -29.0 5.9 -28.6 5.75 -28.15 5.55 -27.75 5.45 -27.35 5.3 -27.05 5.2 -26.6 5.05 -24.75 4.45 -22.8 3.95 -21.05 3.5 -19.2 3.1 -17.55 2.7 -15.85 2.4 -14.35 2.15 -12.85 1.9 -11.6 1.7 -10.4 1.55 -9.4 1.4 -8.45 1.3 -7.8 1.25 -7.25 1.2 -7.0 1.2 -6.8 1.15 -5.4 1.05 -4.6 1.0 -3.35 0.95 -2.25 0.9 -0.9 0.85 0.3 0.8 1.7 0.75 3.05 0.75 4.55 0.75 6.0 0.75 7.55 0.8 9.15 0.85 10.8 0.95 12.5 1.05 14.25 1.2 16.05 1.4 17.3 1.55 18.55 1.7 19.9 1.85 21.25 2.05 22.7 2.25 24.1 2.5 25.6 2.8 27.1 3.1 28.7 3.4 30.25 3.75 31.9 4.15 33.55 4.55 35.25 5.0 36.95 5.5 38.7 6.0 40.5 6.6 40.8 6.85 41.1 7.1 41.45 7.35 41.8 7.65 42.15 7.95 42.5 8.25 42.9 8.6 43.25 8.95 43.65 9.35 44.05 9.75 44.45 10.15 44.85 10.6 45.3 11.05 45.7 11.5 46.1 12.0 46.5 12.5 47.45 13.7 48.3 15.05 49.1 16.25 49.8 17.55 50.45 18.75 51.0 20.0 51.5 21.2 51.95 22.4 52.35 23.5 52.65 24.65 52.95 25.7 53.25 26.75 53.45 27.65 53.65 28.65 53.8 29.3 53.95 30.3 54.15 31.3 54.25 32.2 54.4 33.05 54.45 33.85 54.5 34.6 54.55 35.45 54.55 36.1 54.6 37.15 54.85 56.25 54.6 39.1 54.6 40.35 54.65 41.5 54.7 43.0 54.75 44.55 54.85 46.35 55.0 48.35 55.05 49.3 55.15 50.25 55.2 51.2 55.25 52.1 55.35 52.95 55.4 53.8 55.45 54.6 55.55 55.4 55.6 56.15 55.7 56.9 55.75 57.6 55.85 58.25 55.9 58.9 55.95 59.5 56.05 60.05 56.1 60.6 56.2 60.5 56.35 60.4 56.45 60.3 56.6 60.2 56.7 60.1 56.85 60.0 56.95 59.9 57.1 59.8 57.2 59.65 57.35 59.55 57.45 59.4 57.55 59.25 57.7 59.1 57.8 58.95 57.95 58.8 58.05 58.65 58.5 58.05 58.8 57.4 59.1 56.8 59.35 56.15 59.5 55.55 59.65 54.9 59.75 54.3 59.8 53.7 59.8 53.15 59.8 52.6 59.8 52.15 59.75 51.65 59.75 51.3 59.65 50.9 59.65 50.65 59.55 50.4 59.7 50.6 59.85 50.85 60.0 51.05 60.15 51.3 60.35 51.55 60.5 51.8 60.7 52.05 60.95 52.3 61.15 52.6 61.4 52.85 61.65 53.15 61.9 53.4 62.2 53.7 62.5 53.95 62.8 54.2 63.15 54.5 63.7 54.9 64.25 55.25 64.75 55.6 65.3 55.9 65.85 56.15 66.35 56.4 66.85 56.6 67.35 56.8 67.8 56.95 68.3 57.1 68.7 57.2 69.15 57.3 69.5 57.4 69.9 57.45 70.2 57.5 70.5 57.55 70.3 57.4 70.15 57.3 69.95 57.15 69.75 56.95 69.5 56.8 69.3 56.6 69.05 56.4 68.85 56.15 68.6 55.95 68.4 55.7 68.15 55.4 67.95 55.15 67.7 54.85 67.45 54.55 67.25 54.2 67.05 53.85 66.75 53.35 66.5 52.85 66.25 52.35 66.05 51.85 65.85 51.4 65.7 50.95 65.6 50.5 65.5 50.05 65.4 49.65 65.35 49.2 65.3 48.85 65.25 48.5 65.2 48.15 65.2 47.85 65.2 47.6 65.2 47.35 65.35 47.55 65.5 47.8 65.7 48.05 65.9 48.3 66.1 48.55 66.35 48.8 66.55 49.1 66.85 49.35 67.1 49.65 67.4 49.9 67.7 50.2 68.0 50.5 68.35 50.8 68.7 51.05 69.1 51.35 69.5 51.6 70.0 51.95 70.55 52.25 71.05 52.55 71.55 52.85 72.05 53.05 72.55 53.25 73.0 53.45 73.5 53.65 73.9 53.75 74.35 53.9 74.75 54.0 75.15 54.1 75.45 54.2 75.85 54.25 76.05 54.3 76.45 54.4 77.0 54.5 77.6 54.55 78.1 54.65 78.65 54.7 79.15 54.7 79.7 54.75 80.15 54.75 80.65 54.7 81.1 54.7 81.55 54.7 82.0 54.65 82.4 54.6 82.8 54.55 83.2 54.5 83.55 54.45 83.9 54.4 83.7 54.25 83.45 54.15 83.25 54.0 83.0 53.85 82.75 53.7 82.5 53.55 82.25 53.35 82.0 53.15 81.7 52.95 81.45 52.75 81.15 52.55 80.85 52.35 80.55 52.1 80.3 51.85 80.0 51.6 79.7 51.3 79.05 50.7 78.45 50.05 77.9 49.45 77.4 48.8 76.9 48.2 76.45 47.5 76.05 46.9 75.65 46.2 75.25 45.55 74.9 44.85 74.6 44.25 74.25 43.5 73.95 42.9 73.65 42.15 73.4 41.65 73.05 40.8 72.85 40.4 72.7 39.95 72.55 39.5 72.35 39.05 72.15 38.55 72.0 38.05 71.8 37.55 71.65 37.0 71.45 36.45 71.3 35.85 71.1 35.25 70.95 34.65 70.75 34.0 70.6 33.35 70.45 32.7 70.3 32.0 70.5 32.1 70.7 32.2 70.9 32.3 71.1 32.4 71.3 32.5 71.5 32.6 71.75 32.7 71.95 32.8 72.2 32.9 72.45 33.0 72.7 33.05 72.95 33.15 73.2 33.25 73.45 33.3 73.7 33.4 73.95 33.45 74.9 33.7 75.9 33.75 76.8 33.85 77.75 33.85 78.6 33.8 79.45 33.7 80.25 33.55 81.05 33.4 81.75 33.2 82.45 33.0 83.05 32.8 83.65 32.55 84.15 32.3 84.65 32.1 85.05 31.9 85.4 31.7 85.2 31.65 85.0 31.65 84.75 31.6 84.55 31.55 84.3 31.5 84.05 31.45 83.8 31.4 83.55 31.35 83.3 31.25 83.0 31.2 82.75 31.15 82.45 31.05 82.15 30.95 81.85 30.9 81.55 30.8 81.25 30.7 80.8 30.55 80.5 30.45 80.05 30.3 79.65 30.15 79.15 30.0 78.75 29.8 78.25 29.6 77.75 29.4 77.25 29.2 76.75 28.95 76.2 28.65 75.65 28.35 75.1 28.05 74.6 27.7 74.0 27.3 73.45 26.9 73.25 26.75 73.05 26.6 72.85 26.45 72.65 26.3 72.45 26.1 72.2 25.9 72.0 25.7 71.75 25.5 71.5 25.3 71.3 25.05 71.05 24.8 70.8 24.55 70.55 24.3 70.3 24.0 70.05 23.75 69.8 23.45 70.0 23.45 70.2 23.4 70.4 23.4 70.6 23.35 70.85 23.3 71.05 23.3 71.25 23.25 71.45 23.25 71.7 23.2 71.9 23.15 72.15 23.15 72.35 23.1 72.6 23.05 72.8 23.0 73.05 22.95 73.25 22.9 73.55 22.85 73.85 22.8 74.15 22.75 74.45 22.65 74.75 22.6 75.0 22.55 75.3 22.45 75.55 22.4 75.85 22.35 76.1 22.25 76.4 22.2 76.65 22.1 76.9 22.05 77.15 21.95 77.4 21.9 77.65 21.8 76.2 21.05 73.75 19.85 74.0 19.85 74.2 19.8 74.45 19.75 74.7 19.75 74.95 19.7 75.25 19.65 75.5 19.6 75.8 19.55 76.1 19.5 76.4 19.45 76.7 19.4 77.0 19.35 77.35 19.3 77.7 19.2 78.0 19.15 78.35 19.05 78.95 18.9 79.3 18.8 79.8 18.7 80.2 18.55 80.7 18.45 81.15 18.3 81.65 18.15 82.1 18.0 82.6 17.85 83.05 17.65 83.55 17.45 84.0 17.25 84.5 17.0 84.95 16.75 85.45 16.5 85.9 16.2 86.2 16.0 86.5 15.8 86.8 15.6 87.15 15.3 87.5 15.05 87.85 14.7 88.25 14.35 88.65 14.0 89.05 13.55 89.45 13.1 89.9 12.65 90.25 12.1 90.7 11.55 91.05 10.95 91.5 10.35 91.85 9.65 91.4 9.75 90.95 9.8 90.4 9.85 89.9 9.9 89.3 9.95 88.7 10.0 88.05 10.0 87.4 10.0 86.7 10.0 86.0 9.95 85.25 9.9 84.5 9.85 83.7 9.75 82.9 9.6 82.05 9.45 81.25 9.25 80.45 9.05 79.7 8.8 79.0 8.6 78.3 8.3 77.65 8.05 77.0 7.8 76.45 7.55 75.95 7.25 75.45 7.05 75.0 6.8 74.6 6.55 74.25 6.35 74.0 6.2 73.7 6.0 73.55 5.9 73.35 5.75 72.45 5.1 71.6 4.4 70.8 3.75 70.05 3.0 69.4 2.3 68.75 1.55 68.15 0.85 67.65 0.1 67.15 -0.6 66.75 -1.3 66.35 -1.95 66.0 -2.6 65.7 -3.2 65.4 -3.75 65.2 -4.25 65.0 -4.75 65.2 -4.65 65.35 -4.6 65.6 -4.5 65.8 -4.45 66.0 -4.35 66.25 -4.25 66.5 -4.2 66.75 -4.1 67.05 -4.0 67.3 -3.95 67.6 -3.85 67.9 -3.8 68.2 -3.7 68.5 -3.65 68.85 -3.6 69.15 -3.55 70.15 -3.4 71.2 -3.35 72.15 -3.3 73.1 -3.35 74.0 -3.4 74.9 -3.55 75.7 -3.7 76.55 -3.9 77.3 -4.1 78.05 -4.35 78.7 -4.55 79.4 -4.8 80.0 -5.05 80.6 -5.3 81.0 -5.5 81.65 -5.75 82.05 -5.95 82.45 -6.15 82.9 -6.4 83.35 -6.6 83.85 -6.9 84.35 -7.2 84.9 -7.5 85.4 -7.85 85.95 -8.2 86.5 -8.6 87.1 -9.05 87.65 -9.5 88.25 -9.95 88.8 -10.45 89.45 -11.0 90.0 -11.6 89.8 -11.5 89.6 -11.45 89.35 -11.35 89.1 -11.3 88.85 -11.2 88.6 -11.1 88.3 -11.05 88.05 -10.95 87.75 -10.9 87.45 -10.8 87.1 -10.75 86.8 -10.7 86.45 -10.6 86.1 -10.55 85.75 -10.5 85.4 -10.45 84.5 -10.35 83.6 -10.35 82.7 -10.35 81.85 -10.4 81.05 -10.45 80.25 -10.6 79.5 -10.75 78.7 -10.95 78.0 -11.1 77.25 -11.35 76.6 -11.55 75.9 -11.8 75.35 -12.05 74.65 -12.3 74.2 -12.5 73.45 -12.8 72.3 -13.3 71.2 -13.85 70.15 -14.4 69.1 -15.0 68.15 -15.6 67.2 -16.25 66.3 -16.85 65.4 -17.5 64.6 -18.15 63.8 -18.8 63.05 -19.4 62.35 -20.1 61.65 -20.7 61.05 -21.35 60.45 -21.9 59.9 -22.5 62.4 -24.0 63.85 -24.95 64.75 -25.55 65.6 -26.15 66.4 -26.75 67.2 -27.35 67.95 -27.95 68.65 -28.5 69.3 -29.05 69.95 -29.55 70.5 -30.05 71.05 -30.55 71.5 -30.95 71.95 -31.4 72.35 -31.75 72.7 -32.1 73.0 -32.35 73.25 -32.65 74.1 -33.5 74.6 -34.0 75.35 -34.75 75.95 -35.4 76.7 -36.15 77.3 -36.9 78.05 -37.7 78.65 -38.5 79.35 -39.35 79.95 -40.2 80.6 -41.15 81.15 -42.1 81.8 -43.1 82.3 -44.15 82.9 -45.25 83.35 -46.4 83.65 -47.1 83.9 -47.85 84.15 -48.5 84.4 -49.2 84.6 -49.85 84.8 -50.55 84.95 -51.15 85.1 -51.8 85.25 -52.4 85.35 -53.0 85.45 -53.55 85.55 -54.1 85.65 -54.6 85.7 -55.1 85.75 -55.55 85.8 -56.0 85.65 -55.75 85.55 -55.5 85.35 -55.25 85.2 -55.0 85.05 -54.7 84.85 -54.45 84.65 -54.15 84.45 -53.85 84.2 -53.55 84.0 -53.25 83.75 -52.95 83.5 -52.6 83.25 -52.3 82.95 -51.95 82.65 -51.65 82.35 -51.3 82.1 -51.05 81.9 -50.85 81.55 -50.5 81.15 -50.2 80.7 -49.8 80.2 -49.4 79.6 -48.95 78.95 -48.5 78.2 -48.0 77.4 -47.55 76.55 -47.05 75.55 -46.55 74.5 -46.05 73.35 -45.55 72.15 -45.05 70.8 -44.6 69.3 -44.05 67.7 -43.65 66.25 -43.25 64.75 -43.0 63.4 -42.7 61.95 -42.5 60.65 -42.35 59.35 -42.25 58.1 -42.15 56.9 -42.1 55.8 -42.1 54.6 -42.1 53.65 -42.1 52.6 -42.15 51.85 -42.2 50.8 -42.25 50.1 -42.3 49.4 -42.35 48.65 -42.4 47.9 -42.45 47.05 -42.55 46.25 -42.65 45.35 -42.75 44.45 -42.85 43.55 -43.0 42.6 -43.15 41.6 -43.35 40.65 -43.55 39.6 -43.75 38.55 -44.0 37.45 -44.3 36.4 -44.6 36.65 -44.9 36.9 -45.25 37.15 -45.6 37.4 -45.95 37.65 -46.3 37.9 -46.7 38.2 -47.1 38.45 -47.5 38.75 -47.95 39.05 -48.4 39.3 -48.85 39.6 -49.3 39.9 -49.8 40.2 -50.3 40.5 -50.8 40.8 -51.3 41.15 -51.95 41.3 -52.25 41.65 -52.9 41.95 -53.4 42.3 -54.1 42.6 -54.75 42.95 -55.55 43.3 -56.3 43.7 -57.1 44.0 -57.95 44.4 -58.9 44.7 -59.8 45.1 -60.8 45.4 -61.8 45.7 -62.9 46.0 -64.0 46.3 -65.2 46.55 -66.45 46.8 -67.65 46.95 -68.85 47.1 -70.0 47.2 -71.2 47.3 -72.3 47.35 -73.4 47.4 -74.5 47.4 -75.55 47.4 -76.6 47.35 -77.6 47.3 -78.55 47.2 -79.55 47.15 -80.45 47.0 -81.35 46.9 -81.15 46.85 -80.9 46.75 -80.7 46.65 -80.45 46.55 -80.2 46.45 -79.9 46.35 -79.65 46.2 -79.35 46.1 -79.1 45.95 -78.8 45.85 -78.5 45.7 -78.15 45.55 -77.85 45.4 -77.55 45.25 -77.2 45.05 -76.85 44.85 -76.4 44.6 -75.95 44.3 -75.35 44.0 -74.75 43.6 -74.05 43.2 -73.3 42.7 -72.5 42.2 -71.65 41.6 -70.75 41.0 -69.8 40.35 -68.8 39.6 -67.85 38.85 -66.8 38.0 -65.75 37.1 -64.65 36.2 -63.6 35.7 -63.05 35.2 -62.5 34.75 -62.0 34.25 -61.5 33.8 -61.0 33.4 -60.55 32.95 -60.15 32.55 -59.8 32.2 -59.45 31.85 -59.1 31.55 -58.8 31.25 -58.5 31.0 -58.3 30.75 -58.1 30.55 -57.9 30.35 -57.75 29.75 -57.2 29.1 -56.7 28.45 -56.15 27.75 -55.6 26.95 -55.0 26.15 -54.45 25.3 -53.85 24.4 -53.25 23.45 -52.6 22.5 -52.05 21.45 -51.4 20.4 -50.8 19.3 -50.2 18.1 -49.6 16.9 -49.0 15.65 -48.45 15.7 -48.55 15.75 -48.7 15.8 -48.85 15.85 -48.95 15.95 -49.1 16.0 -49.25 16.05 -49.4 16.1 -49.6 16.2 -49.75 16.25 -49.95 16.3 -50.1 16.35 -50.3 16.4 -50.5 16.45 -50.7 16.55 -50.9 16.6 -51.1 16.75 -51.65 16.8 -52.15 16.9 -52.7 16.95 -53.2 17.0 -53.75 17.0 -54.25 17.0 -54.75 16.95 -55.3 16.95 -55.8 16.85 -56.4 16.8 -56.95 16.7 -57.55 16.65 -58.1 16.5 -58.75 16.4 -59.35 16.25 -60.1 14.7 -68.55 14.05 -70.4 13.8 -71.1 13.7 -71.35 13.45 -71.9 13.3 -72.4 13.05 -72.95 12.85 -73.45 12.6 -74.0 12.3 -74.55 12.0 -75.15 11.7 -75.7 11.35 -76.3 11.0 -76.9 10.6 -77.5 10.2 -78.1 9.75 -78.7 9.25 -79.3 8.75 -79.9 8.25 -80.45 7.75 -80.95 7.2 -81.45 6.75 -81.9 6.2 -82.35 5.75 -82.75 5.2 -83.15 4.75 -83.5 4.25 -83.8 3.85 -84.1 3.35 -84.4 2.95 -84.65 2.55 -84.9 2.15 -85.15 1.75 -85.35 1.8 -85.0 1.85 -84.65 1.9 -84.3 1.9 -83.95 1.95 -83.55 2.0 -83.15 2.0 -82.75 2.05 -82.3 2.1 -81.85 2.1 -81.45 2.15 -80.95 2.15 -80.5 2.15 -80.0 2.15 -79.5 2.2 -79.0 2.2 -78.5 2.2 -77.1 2.1 -75.7 2.05 -74.4 1.9 -73.1 1.8 -71.95 1.65 -70.75 1.5 -69.65 1.3 -68.6 1.15 -67.65 0.95 -66.75 0.75 -65.9 0.55 -65.15 0.4 -64.5 0.2 -63.85 0.1 -63.35 -0.05 -62.85 -0.2 -62.3 -0.4 -61.75 -0.6 -61.2 -0.8 -60.6 -1.0 -60.0 -1.25 -59.4 -1.5 -58.75 -1.75 -58.1 -2.0 -57.45 -2.3 -56.75 -2.6 -56.05 -2.95 -55.4 -3.3 -54.65 -3.65 -53.95 -4.05 -53.2 -4.45 -52.45 -5.7 -53.3 -6.4 -53.75 -6.85 -54.05 -7.35 -54.35 -7.75 -54.6 -8.2 -54.9 -8.6 -55.1 -9.0 -55.35 -9.35 -55.55 -9.75 -55.75 -10.05 -55.95 -10.35 -56.1 -10.65 -56.25 -10.9 -56.4 -11.1 -56.45 -11.3 -56.6 -11.7 -56.8 -11.6 -56.75 -12.1 -57.0 -12.6 -57.3 -13.05 -57.55 -13.55 -57.85 -14.0 -58.15 -14.5 -58.5 -14.95 -58.85 -15.5 -59.25 -15.95 -59.6 -16.5 -60.05 -17.0 -60.45 -17.6 -60.95 -18.1 -61.35 -18.75 -61.95 -19.2 -62.3 -20.1 -63.05 -20.8 -63.65 -21.5 -64.3 -22.2 -64.9 -22.8 -65.55 -23.4 -66.1 -24.0 -66.7 -24.55 -67.2 -25.1 -67.8 -25.55 -68.3 -26.05 -68.8 -26.5 -69.25 -26.9 -69.75 -27.3 -70.15 -27.7 -70.6 -27.95 -70.9 -28.35 -71.35 -31.4 -74.8 -33.05 -77.15 -33.45 -77.75 -33.85 -78.35 -34.25 -78.95 -34.6 -79.55 -34.95 -80.15 -35.3 -80.7 -35.6 -81.25 -35.9 -81.8 -36.2 -82.35 -36.45 -82.85 -36.7 -83.35 -36.95 -83.85 -37.15 -84.3 -37.35 -84.8 -37.55 -85.2 -37.75 -85.65 -37.8 -85.4 -37.9 -85.1 -37.95 -84.8 -38.05 -84.5 -38.1 -84.2 -38.2 -83.9 -38.25 -83.55 -38.3 -83.2 -38.4 -82.8 -38.45 -82.45 -38.5 -82.05 -38.6 -81.65 -38.65 -81.2 -38.7 -80.8 -38.75 -80.35 -38.75 -79.9 -38.85 -78.6 -38.85 -77.3 -38.9 -76.05 -38.8 -74.8 -38.7 -73.65 -38.55 -72.5 -38.4 -71.45 -38.15 -70.35 -37.95 -69.35 -37.7 -68.35 -37.45 -67.5 -37.15 -66.6 -36.9 -65.85 -36.6 -65.0 -36.45 -64.4 -36.1 -63.6 -35.95 -63.15 -35.75 -62.7 -35.6 -62.2 -35.4 -61.75 -35.2 -61.2 -34.95 -60.7 -34.7 -60.15 -34.45 -59.6 -34.2 -59.05 -33.9 -58.5 -33.6 -57.9 -33.3 -57.3 -32.95 -56.65 -32.6 -56.05 -32.2 -55.4 -31.85 -54.8 -32.05 -54.9 -32.25 -54.95 -32.45 -55.05 -32.65 -55.15 -32.85 -55.25 -33.1 -55.35 -33.35 -55.45 -33.55 -55.6 -33.8 -55.7 -34.05 -55.8 -34.35 -55.95 -34.6 -56.05 -34.85 -56.2 -35.15 -56.35 -35.45 -56.5 -35.7 -56.65 -35.95 -56.75 -36.25 -56.9 -36.6 -57.1 -37.0 -57.35 -37.5 -57.6 -38.0 -57.85 -38.6 -58.2 -39.2 -58.55 -39.85 -58.95 -40.55 -59.4 -41.3 -59.85 -42.05 -60.35 -42.85 -60.9 -43.7 -61.45 -44.55 -62.05 -45.4 -62.65 -46.1 -63.15 -46.8 -63.7 -47.45 -64.2 -48.1 -64.7 -48.7 -65.2 -49.3 -65.65 -49.85 -66.1 -50.35 -66.55 -50.85 -67.0 -51.3 -67.4 -51.7 -67.75 -52.15 -68.15 -52.5 -68.45 -52.8 -68.75 -53.1 -69.05 -53.4 -69.3 -54.0 -69.9 -54.6 -70.45 -55.15 -71.0 -55.65 -71.6 -56.15 -72.1 -56.65 -72.6 -57.1 -73.1 -57.5 -73.55 -57.9 -74.0 -58.25 -74.4 -58.55 -74.75 -58.85 -75.1 -59.1 -75.4 -59.35 -75.7 -59.55 -75.9 -59.7 -76.15 -60.15 -76.7 -60.55 -77.2 -60.95 -77.75 -61.35 -78.25 -61.75 -78.8 -62.1 -79.3 -62.45 -79.8 -62.8 -80.3 -63.15 -80.8 -63.5 -81.25 -63.8 -81.75 -64.1 -82.2 -64.4 -82.65 -64.7 -83.15 -64.95 -83.55 -65.25 -84.0 -65.35 -83.75 -65.4 -83.55 -65.5 -83.3 -65.55 -83.05 -65.65 -82.75 -65.75 -82.5 -65.8 -82.2 -65.9 -81.9 -65.95 -81.55 -66.05 -81.25 -66.15 -80.9 -66.2 -80.55 -66.25 -80.2 -66.35 -79.85 -66.4 -79.5 -66.45 -79.1 -66.5 -78.8 -66.5 -78.55 -66.55 -78.2 -66.6 -77.8 -66.6 -77.35 -66.65 -76.85 -66.65 -76.3 -66.65 -75.75 -66.65 -75.1 -66.6 -74.4 -66.55 -73.65 -66.45 -72.9 -66.35 -72.05 -66.2 -71.2 -66.05 -70.25 -65.85 -69.3 -65.75 -68.8 -65.65 -68.4 -65.45 -67.75 -65.3 -67.1 -65.05 -66.35 -64.8 -65.55 -64.5 -64.6 -64.15 -63.7 -63.75 -62.65 -63.3 -61.65 -62.8 -60.5 -62.25 -59.4 -61.65 -58.15 -60.95 -57.0 -60.2 -55.7 -59.4 -54.5 -59.05 -54.0 -58.7 -53.5 -58.35 -52.95 -57.95 -52.45 -57.55 -51.85 -57.1 -51.3 -56.6 -50.7 -56.1 -50.15 -55.6 -49.5 -55.05 -48.9 -54.45 -48.25 -53.85 -47.65 -53.2 -47.0 -52.55 -46.4 -51.85 -45.7 -51.15 -45.1 -51.25 -45.05 -51.35 -45.0 -51.45 -44.9 -51.55 -44.85 -51.7 -44.8 -51.8 -44.7 -51.95 -44.65 -52.1 -44.55 -52.25 -44.5 -52.4 -44.4 -52.55 -44.35 -52.7 -44.25 -52.85 -44.2 -53.0 -44.1 -53.2 -44.05 -53.4 -43.95 -54.15 -43.65 -54.85 -43.4 -55.6 -43.2 -56.3 -43.05 -57.0 -42.9 -57.7 -42.8 -58.4 -42.7 -59.15 -42.65 -59.85 -42.6 -60.6 -42.6 -61.3 -42.6 -62.15 -42.6 -62.7 -42.6 -63.8 -42.6 -64.95 -42.65 -65.55 -42.65 -68.0 -42.7 -69.7 -42.6 -67.05 -42.7 -72.1 -42.45 -73.4 -42.4 -75.05 -42.45 -76.7 -42.5 -78.4 -42.6 -80.05 -42.75 -81.75 -42.95 -83.35 -43.1 -85.0 -43.4 -86.55 -43.65 -88.15 -43.95 -89.65 -44.25 -91.15 -44.6 -92.6 -44.9 -94.05 -45.3 -95.4 -45.65 -96.8 -46.05 -98.05 -46.45 -99.35 -46.85 -99.3 -46.7 -99.3 -46.55 -99.25 -46.4 -99.2 -46.25 -99.15 -46.1 -99.1 -45.95 -99.05 -45.75 -99.0 -45.6 -98.95 -45.4 -98.85 -45.2 -98.8 -45.0 -98.75 -44.8 -98.65 -44.6 -98.6 -44.4 -98.5 -44.2 -98.4 -43.95 -98.0 -43.0 -97.55 -42.1 -97.05 -41.25 -96.5 -40.45 -96.0 -39.7 -95.4 -38.95 -94.85 -38.3 -94.2 -37.65 -93.6 -37.05 -92.9 -36.4 -92.3 -35.9 -91.6 -35.3 -91.05 -34.85 -90.3 -34.3 -89.8 -33.95 -89.0 -33.35 -88.5 -32.95 -87.95 -32.6 -87.35 -32.2 -86.75 -31.8 -86.05 -31.35 -85.4 -30.95 -84.65 -30.5 -83.85 -30.1 -83.05 -29.65 -82.2 -29.25 -81.3 -28.85 -80.35 -28.45 -79.4 -28.0 -78.4 -27.65 -77.35 -27.25 -76.25 -26.9 -76.4 -26.8 -76.5 -26.75 -76.6 -26.65 -76.75 -26.55 -76.9 -26.45 -77.05 -26.35 -77.2 -26.25 -77.35 -26.15 -77.5 -26.05 -77.65 -25.95 -77.85 -25.85 -78.05 -25.75 -78.2 -25.6 -78.4 -25.5 -78.6 -25.4 -78.8 -25.3 -79.05 -25.15 -79.3 -25.0 -79.7 -24.85 -80.1 -24.65 -80.65 -24.4 -81.25 -24.15 -81.95 -23.9 -82.7 -23.65 -83.6 -23.35 -84.55 -23.1 -85.65 -22.8 -86.8 -22.55 -88.1 -22.25 -89.45 -22.05 -91.0 -21.8 -92.6 -21.6 -93.6 -21.5 -94.05 -21.45 -94.8 -21.35 -95.35 -21.3 -96.0 -21.2 -96.55 -21.2 -97.15 -21.15 -97.65 -21.1 -98.2 -21.05 -98.7 -21.05 -99.2 -21.05 -99.75 -21.05 -100.25 -21.05 -100.8 -21.1 -101.3 -21.15 -101.9 -21.2 -102.6 -21.25 -103.3 -21.4 -103.95 -21.5 -104.65 -21.6 -105.25 -21.75 -105.9 -21.9 -106.45 -22.05 -107.05 -22.2 -107.6 -22.35 -108.15 -22.5 -108.65 -22.7 -109.15 -22.85 -109.6 -23.05 -110.05 -23.2 -110.45 -23.35 -110.9 -23.55 L-110.9 -23.55" fill="url(#gradient0)" fill-rule="evenodd" stroke="none"/>
  </g>
  <defs>
    <linearGradient gradientTransform="matrix(0.0, 0.0983, -0.0983, 0.0, -10.15, -5.05)" gradientUnits="userSpaceOnUse" id="gradient0" spreadMethod="pad" x1="-819.2" x2="819.2">
      <stop offset="0.0" stop-color="#fff23c" stop-opacity="0.0"/>
      <stop offset="0.3803921568627451" stop-color="#fff23c" stop-opacity="0.84705883"/>
      <stop offset="0.6039215686274509" stop-color="#fff23c" stop-opacity="0.8"/>
      <stop offset="1.0" stop-color="#fff23c" stop-opacity="0.0"/>
    </linearGradient>
  </defs>
</svg>
