<?xml version="1.0" encoding="UTF-8" standalone="no"?>
<svg xmlns:xlink="http://www.w3.org/1999/xlink" height="900.0px" width="900.0px" xmlns="http://www.w3.org/2000/svg">
  <g transform="matrix(1.0, 0.0, 0.0, 1.0, 450.0, 450.0)">
    <path d="M50.75 10.1 Q50.4 10.0 49.95 9.85 49.35 9.6 49.2 9.6 48.85 9.5 48.5 9.35 48.15 9.2 47.8 9.05 47.45 8.9 47.15 8.75 46.8 8.55 46.5 8.4 46.2 8.2 45.85 8.0 45.55 7.8 45.25 7.6 44.95 7.4 44.7 7.15 44.4 6.9 44.15 6.65 43.25 5.8 41.9 4.45 39.8 2.35 39.7 2.25 38.75 1.35 38.35 1.1 37.95 0.8 35.05 -0.95 35.05 -0.95 35.05 -0.95 35.0 -0.95 35.0 -0.95 35.0 -0.95 35.0 -0.95 34.95 -0.95 34.95 -1.0 34.9 -1.0 34.85 -1.0 34.85 -1.0 34.8 -1.0 34.75 -1.0 34.75 -1.0 34.7 -1.0 34.65 -1.0 34.15 -0.9 33.7 -0.9 33.25 -0.85 32.75 -0.85 32.3 -0.85 31.85 -0.9 31.4 -0.95 30.95 -1.05 30.5 -1.15 30.1 -1.25 29.65 -1.4 29.2 -1.55 28.8 -1.75 28.35 -1.95 27.95 -2.15 27.5 -2.4 27.25 -2.55 26.95 -2.7 26.7 -2.85 26.45 -3.0 26.15 -3.15 25.9 -3.25 25.65 -3.4 25.35 -3.55 25.05 -3.65 24.8 -3.8 24.5 -3.9 24.2 -4.0 23.95 -4.15 23.65 -4.25 23.35 -4.35 23.05 -4.45 22.9 -4.5 22.75 -4.55 22.6 -4.6 22.5 -4.7 22.35 -4.75 22.2 -4.8 22.05 -4.9 21.9 -4.95 21.8 -5.05 21.65 -5.15 21.5 -5.2 21.35 -5.3 21.25 -5.4 21.1 -5.45 21.0 -5.55 20.85 -5.65 20.75 -5.75 20.6 -5.8 20.5 -5.85 20.35 -5.9 20.25 -5.95 20.15 -6.0 20.0 -6.05 19.9 -6.05 19.75 -6.1 19.65 -6.1 19.5 -6.1 19.4 -6.1 19.25 -6.05 19.1 -6.05 19.0 -6.0 18.85 -6.0 18.55 -5.9 18.25 -5.85 17.95 -5.75 17.6 -5.65 17.3 -5.6 17.0 -5.5 16.7 -5.45 16.35 -5.35 16.05 -5.3 15.75 -5.2 15.45 -5.15 15.15 -5.1 14.8 -5.0 14.5 -4.95 14.2 -4.9 13.9 -4.85 13.3 -4.75 12.7 -4.65 12.1 -4.55 11.5 -4.45 10.9 -4.4 10.3 -4.35 9.7 -4.25 9.1 -4.25 8.5 -4.2 7.9 -4.15 7.3 -4.15 6.7 -4.15 6.1 -4.15 5.5 -4.15 4.9 -4.15 4.3 -4.2 4.05 -4.2 3.75 -4.25 3.5 -4.25 3.25 -4.3 2.95 -4.3 2.7 -4.35 2.45 -4.4 2.2 -4.5 1.9 -4.55 1.65 -4.65 1.4 -4.7 1.15 -4.8 0.9 -4.9 0.65 -5.0 0.4 -5.15 0.15 -5.25 -0.35 -5.55 -1.4 -6.05 -2.5 -6.55 -3.0 -6.85 -3.3 -7.0 -5.85 -8.7 -9.3 -8.05 -9.9 -7.9 -10.0 -7.85 -10.1 -7.85 -10.2 -7.8 -10.3 -7.75 -10.4 -7.7 -10.5 -7.65 -10.6 -7.6 -10.7 -7.5 -10.9 -7.4 -10.9 -7.4 -11.0 -7.35 -11.1 -7.3 -11.2 -7.25 -11.25 -7.2 -11.4 -7.15 -11.45 -7.1 -12.3 -6.8 -13.15 -6.55 -14.05 -6.3 -14.9 -6.15 -15.75 -5.95 -16.6 -5.85 -17.5 -5.75 -18.35 -5.7 -19.2 -5.65 -20.1 -5.7 -20.95 -5.75 -21.8 -5.85 -22.7 -6.0 -23.55 -6.2 -24.45 -6.4 -25.3 -6.7 -25.65 -6.8 -26.75 -7.15 -26.85 -7.1 -26.95 -7.1 -27.0 -7.05 -27.1 -7.0 -27.25 -6.95 -27.35 -6.9 -27.45 -6.8 -27.55 -6.75 -27.65 -6.65 -27.75 -6.6 -27.9 -6.5 -28.0 -6.4 -28.1 -6.3 -28.2 -6.2 -28.3 -6.05 -28.4 -5.95 -28.65 -5.65 -28.8 -5.3 -28.9 -5.0 -29.0 -4.65 -29.05 -4.35 -29.05 -4.0 -29.05 -3.75 -29.05 -3.35 -29.0 -2.7 -29.0 -2.75 -29.0 -2.35 -29.0 -2.1 -29.05 -1.75 -29.1 -1.45 -29.2 -1.1 -29.35 -0.8 -29.55 -0.45 -29.85 -0.1 -30.15 0.2 -30.55 0.5 -30.95 0.75 -31.4 0.95 -31.85 1.2 -32.35 1.35 -32.8 1.5 -33.35 1.65 -33.85 1.75 -34.35 1.85 -34.85 1.9 -35.35 1.9 -35.85 1.95 -36.25 1.9 -36.45 1.9 -36.75 1.85 -37.25 1.8 -37.25 1.8 -37.6 1.8 -37.85 1.8 -38.15 1.75 -38.45 1.75 -38.75 1.8 -39.1 1.8 -39.45 1.85 -39.75 1.9 -40.1 2.0 -40.45 2.1 -40.8 2.25 -41.15 2.4 -41.6 2.7 -41.65 2.7 -41.5 3.0 -41.4 3.1 -41.3 3.3 -41.25 3.45 -41.15 3.6 -41.1 3.7 -41.05 3.85 -41.05 3.95 -41.0 4.1 -41.0 4.25 -41.0 4.4 -41.0 4.55 -41.0 4.75 -41.0 5.0 -41.0 5.15 -41.05 5.5 -41.5 5.9 -42.0 6.25 -42.45 6.6 -42.95 6.9 -43.45 7.25 -43.95 7.55 -44.45 7.85 -45.0 8.1 -45.5 8.4 -46.05 8.65 -46.55 8.9 -47.15 9.15 -47.7 9.35 -48.25 9.55 -48.8 9.75 -49.4 9.95 -49.9 10.1 -50.4 10.25 -50.9 10.35 -51.45 10.45 -51.95 10.55 -52.5 10.65 -53.0 10.75 -53.5 10.8 -54.0 10.85 -54.55 10.9 -55.05 10.95 -55.6 10.95 -56.1 11.0 -56.65 11.0 -57.15 11.05 -57.7 11.05 -62.5 11.15 -65.35 11.2 -65.45 11.2 -66.2 11.3 -66.25 11.4 -66.3 11.5 -66.3 11.6 -66.3 11.7 -66.3 11.8 -66.3 11.85 -66.25 11.95 -66.25 12.0 -66.2 12.1 -66.15 12.15 -66.15 12.2 -66.1 12.25 -66.05 12.3 -66.0 12.4 -65.95 12.45 -65.9 12.5 -63.95 15.35 -59.5 19.85 -55.75 23.7 -54.75 24.55 -54.4 24.85 -54.1 25.2 -53.8 25.55 -53.55 25.9 -53.35 26.3 -53.15 26.65 -53.0 27.05 -52.9 27.4 -52.8 27.8 -52.75 28.2 -52.7 28.6 -52.65 29.05 -52.65 29.45 -52.7 29.9 -52.75 30.3 -52.85 30.8 -53.1 32.1 -53.75 34.0 -54.15 35.15 -57.95 46.4 -58.0 46.55 -58.15 46.95 -58.25 47.3 -58.35 47.5 -58.45 47.8 -58.55 48.1 -58.65 48.4 -58.7 48.65 -58.8 48.95 -58.8 49.25 -58.85 49.55 -58.85 49.85 -58.85 50.1 -58.85 50.4 -58.85 50.7 -58.8 51.0 -58.75 51.3 -58.65 51.65 -58.6 51.95 -58.5 52.25 -58.35 52.75 -58.25 53.3 -58.15 53.8 -58.1 54.3 -58.05 54.85 -58.05 55.35 -58.05 55.9 -58.05 56.4 -58.1 56.9 -58.2 57.45 -58.25 57.95 -58.4 58.45 -58.55 58.95 -58.7 59.5 -58.85 60.0 -59.1 60.5 -59.15 60.65 -59.2 60.7 -59.25 60.85 -59.3 60.95 -59.35 61.05 -59.35 61.15 -59.4 61.3 -59.45 61.4 -59.45 61.5 -59.45 61.6 -59.5 61.75 -59.5 61.85 -59.5 62.0 -59.45 62.1 -59.45 62.25 -59.4 62.35 -59.3 62.65 -59.25 63.0 -59.2 63.35 -59.15 63.65 -59.1 64.0 -59.1 64.3 -59.05 64.65 -59.05 64.95 -59.1 65.3 -59.1 65.6 -59.15 65.95 -59.2 66.3 -59.25 66.6 -59.3 66.95 -59.35 67.25 -59.45 67.6 -59.45 67.65 -59.45 67.65 -59.45 67.7 -59.45 67.75 -59.45 67.75 -59.45 67.8 -59.45 67.85 -59.45 67.85 -59.45 67.9 -59.45 67.95 -59.45 68.0 -59.45 68.0 -59.45 68.05 -59.5 68.1 -59.5 68.15 -59.5 68.2 -58.95 68.8 -58.1 69.8 -58.0 69.9 -57.9 70.05 -57.85 70.15 -57.75 70.3 -57.7 70.45 -57.65 70.55 -57.6 70.7 -57.55 70.85 -57.5 70.95 -57.45 71.1 -57.45 71.25 -57.45 71.4 -57.4 71.55 -57.4 71.7 -57.4 71.85 -57.4 72.0 -57.4 72.15 -57.45 72.3 -57.45 72.45 -57.5 72.6 -57.55 72.75 -57.6 72.85 -57.65 72.95 -57.7 73.05 -57.8 73.15 -57.9 73.2 -57.95 73.3 -58.1 73.35 -58.2 73.4 -58.35 73.45 -58.45 73.5 -58.65 73.5 -58.75 73.5 -58.9 73.5 -59.0 73.55 -59.1 73.55 -59.25 73.55 -59.35 73.5 -59.45 73.5 -59.6 73.5 -59.7 73.5 -59.85 73.5 -59.95 73.5 -60.1 73.45 -60.2 73.45 -60.3 73.45 -60.4 73.45 -60.55 73.4 -60.6 73.4 -60.7 73.4 -60.75 73.35 -60.85 73.35 -60.9 73.3 -61.0 73.3 -61.05 73.3 -61.1 73.25 -61.2 73.25 -61.25 73.2 -61.4 73.15 -61.4 73.15 -61.5 73.1 -61.55 73.1 -61.6 73.05 -61.7 73.05 -61.9 73.0 -62.85 72.7 -64.2 73.45 -64.4 73.5 -65.1 73.85 -65.8 74.05 -66.45 74.3 -67.15 74.45 -67.8 74.6 -68.5 74.6 -69.15 74.65 -69.8 74.6 -70.45 74.55 -71.1 74.35 -71.75 74.2 -72.4 73.95 -73.05 73.7 -73.65 73.3 -74.3 72.95 -74.9 72.5 -75.05 72.35 -75.25 72.25 -75.4 72.1 -75.6 72.0 -75.75 71.9 -75.95 71.8 -76.1 71.7 -76.3 71.6 -76.45 71.5 -76.65 71.4 -76.85 71.3 -77.0 71.25 -77.2 71.15 -77.4 71.05 -77.6 71.0 -77.8 70.9 -84.7 68.35 -88.35 66.75 -89.15 66.4 -89.95 66.05 -90.7 65.65 -91.5 65.25 -92.25 64.8 -93.0 64.35 -93.75 63.9 -94.45 63.45 -95.2 62.95 -95.9 62.45 -96.6 61.95 -97.3 61.4 -97.95 60.9 -98.65 60.3 -99.3 59.75 -99.95 59.15 -100.65 58.5 -101.35 57.85 -102.05 57.2 -102.7 56.55 -103.35 55.9 -104.0 55.2 -104.65 54.5 -105.25 53.8 -105.85 53.1 -106.45 52.35 -107.05 51.6 -107.6 50.85 -108.2 50.1 -108.75 49.35 -109.3 48.6 -109.8 47.8 -112.4 44.0 -113.75 41.5 -121.05 28.45 -124.4 22.1 -125.2 20.6 -125.95 19.05 -126.7 17.55 -127.4 16.0 -128.1 14.45 -128.75 12.9 -129.4 11.35 -130.0 9.8 -130.6 8.2 -131.2 6.65 -131.75 5.05 -132.25 3.45 -132.75 1.8 -133.2 0.2 -133.7 -1.45 -134.1 -3.1 -134.45 -4.55 -134.75 -6.0 -135.1 -7.5 -135.35 -8.95 -135.65 -10.4 -135.85 -11.9 -136.1 -13.35 -136.25 -14.85 -136.45 -16.3 -136.6 -17.8 -136.75 -19.3 -136.8 -20.75 -136.9 -22.25 -136.95 -23.75 -137.0 -25.25 -137.0 -26.75 -136.95 -28.5 -136.9 -31.45 -136.8 -35.0 -136.8 -36.15 -136.8 -36.5 -136.75 -38.4 -136.75 -39.75 -136.7 -40.65 -136.7 -40.8 -136.7 -40.95 -136.7 -41.15 -136.75 -41.3 -136.75 -41.45 -136.75 -41.6 -136.8 -41.75 -136.85 -41.9 -136.9 -42.05 -136.95 -42.2 -137.0 -42.35 -137.05 -42.5 -137.1 -42.6 -137.2 -42.75 -137.3 -42.9 -137.4 -43.05 -137.65 -43.4 -137.85 -43.7 -138.0 -44.05 -138.2 -44.4 -138.35 -44.75 -138.5 -45.1 -138.6 -45.5 -138.7 -45.85 -138.8 -46.25 -138.9 -46.6 -138.95 -47.0 -139.0 -47.4 -139.05 -47.75 -139.05 -48.15 -139.05 -48.55 -139.05 -48.95 -139.05 -49.6 -139.05 -50.2 -139.05 -50.85 -139.05 -51.45 -139.05 -52.1 -139.1 -52.7 -139.15 -53.35 -139.25 -53.95 -139.3 -54.55 -139.4 -55.2 -139.5 -55.8 -139.6 -56.4 -139.75 -57.0 -139.9 -57.6 -140.05 -58.25 -140.25 -58.85 -141.1 -61.75 -141.7 -63.3 -144.95 -71.9 -146.05 -74.6 -146.4 -75.5 -146.8 -76.4 -147.2 -77.3 -147.65 -78.2 -148.05 -79.1 -148.5 -79.95 -148.95 -80.8 -149.45 -81.65 -149.95 -82.5 -150.45 -83.35 -150.95 -84.2 -151.5 -85.0 -152.05 -85.8 -152.6 -86.6 -153.2 -87.4 -153.8 -88.2 -155.0 -89.75 -156.3 -91.2 -157.55 -92.65 -158.95 -93.95 -160.3 -95.3 -161.75 -96.5 -163.2 -97.7 -164.75 -98.75 -166.3 -99.85 -167.9 -100.8 -169.55 -101.8 -171.25 -102.65 -172.95 -103.5 -174.7 -104.25 -176.5 -104.95 -178.35 -105.6 -179.15 -105.85 -180.0 -106.15 -180.8 -106.4 -181.65 -106.6 -182.45 -106.85 -183.3 -107.05 -184.1 -107.25 -184.95 -107.45 -185.8 -107.65 -186.65 -107.85 -187.45 -108.0 -188.35 -108.15 -189.15 -108.3 -190.0 -108.45 -190.85 -108.6 -191.7 -108.75 -193.4 -109.0 -200.65 -109.85 -201.2 -109.9 -201.7 -109.95 -202.25 -110.0 -202.75 -110.0 -203.3 -110.05 -203.8 -110.05 -204.35 -110.05 -204.85 -110.0 -205.4 -110.0 -205.9 -109.95 -206.45 -109.9 -206.95 -109.8 -207.5 -109.75 -208.0 -109.65 -208.5 -109.55 -209.05 -109.4 -209.75 -109.25 -210.95 -109.1 -211.05 -109.1 -211.1 -109.1 -211.15 -109.1 -211.2 -109.1 -211.3 -109.1 -211.35 -109.05 -211.4 -109.05 -211.45 -109.05 -211.55 -109.1 -211.6 -109.1 -211.65 -109.1 -211.7 -109.1 -211.75 -109.1 -211.8 -109.15 -211.9 -109.15 -211.95 -109.15 -212.0 -109.2 -212.05 -109.2 -212.1 -109.25 -212.15 -109.3 -212.25 -109.35 -212.3 -109.4 -212.35 -109.45 -212.4 -109.5 -212.45 -109.55 -212.5 -109.6 -212.55 -109.65 -212.55 -109.7 -212.6 -109.75 -212.65 -109.8 -212.7 -109.9 -212.7 -109.95 -212.75 -110.0 -212.75 -110.1 -212.8 -110.15 -212.8 -110.2 -212.8 -110.3 -212.75 -110.35 -212.75 -110.45 -212.75 -110.5 -212.7 -110.55 -212.7 -110.65 -212.65 -110.7 -212.6 -110.75 -212.55 -110.8 -212.5 -110.85 -212.45 -110.95 -212.4 -111.0 -211.95 -111.25 -211.9 -111.3 -211.85 -111.3 -211.8 -111.35 -211.75 -111.35 -211.65 -111.4 -211.6 -111.4 -211.55 -111.45 -211.5 -111.45 -211.45 -111.45 -211.4 -111.5 -211.3 -111.5 -211.25 -111.55 -211.2 -111.55 -211.15 -111.55 -211.1 -111.6 -211.05 -111.6 -210.95 -111.6 -209.45 -111.9 -204.15 -113.3 -199.9 -114.45 -197.25 -114.8 -196.2 -114.95 -195.2 -115.05 -194.15 -115.15 -193.15 -115.25 -192.1 -115.3 -191.1 -115.35 -190.05 -115.45 -189.05 -115.45 -188.0 -115.45 -187.0 -115.45 -185.95 -115.45 -184.9 -115.4 -183.9 -115.35 -182.85 -115.3 -181.85 -115.2 -180.8 -115.1 -179.7 -115.0 -178.65 -114.85 -177.55 -114.75 -176.45 -114.6 -175.4 -114.4 -174.3 -114.25 -173.25 -114.05 -172.15 -113.85 -171.1 -113.65 -170.05 -113.45 -168.95 -113.2 -167.9 -112.95 -166.85 -112.7 -165.8 -112.4 -164.75 -112.1 -163.7 -111.8 -163.55 -111.75 -163.2 -111.7 -162.85 -111.65 -162.7 -111.6 -162.6 -111.8 -162.55 -112.0 -162.5 -112.2 -162.5 -112.4 -162.45 -112.6 -162.45 -112.85 -162.4 -113.05 -162.4 -113.25 -162.4 -113.4 -162.4 -113.7 -162.4 -114.0 -162.4 -114.1 -162.4 -114.35 -162.35 -114.55 -162.35 -114.75 -162.35 -114.95 -163.45 -115.9 -163.85 -116.2 -176.9 -125.95 -180.55 -128.6 -181.8 -129.5 -183.0 -130.45 -184.25 -131.35 -185.45 -132.3 -186.65 -133.25 -187.85 -134.2 -189.05 -135.15 -190.2 -136.15 -191.4 -137.15 -192.5 -138.1 -193.7 -139.15 -194.8 -140.15 -195.95 -141.2 -197.05 -142.25 -198.15 -143.35 -199.2 -144.4 -201.4 -146.6 -203.4 -148.9 -205.4 -151.2 -207.25 -153.6 -209.1 -155.95 -210.75 -158.45 -212.45 -160.95 -213.95 -163.5 -215.45 -166.1 -216.75 -168.8 -218.1 -171.5 -219.25 -174.25 -220.4 -177.05 -221.4 -179.95 -222.35 -182.85 -223.15 -185.8 -223.6 -187.5 -224.0 -189.2 -224.35 -190.9 -224.65 -192.6 -225.0 -194.35 -225.2 -196.05 -225.45 -197.75 -225.65 -199.5 -225.8 -201.2 -225.9 -202.95 -226.05 -204.65 -226.05 -206.4 -226.1 -208.15 -226.1 -209.9 -226.05 -211.6 -225.95 -213.35 -225.85 -215.1 -225.7 -216.8 -225.5 -218.55 -225.25 -220.25 -225.05 -221.95 -224.7 -223.65 -224.4 -225.35 -224.05 -227.0 -223.65 -228.7 -223.2 -230.35 -222.75 -232.0 -222.25 -233.7 -221.75 -235.3 -221.2 -236.95 -220.65 -238.6 -220.05 -240.25 -219.25 -242.4 -218.35 -244.5 -217.45 -246.6 -216.5 -248.65 -215.55 -250.7 -214.45 -252.75 -213.45 -254.75 -212.3 -256.7 -211.2 -258.65 -210.0 -260.6 -208.8 -262.55 -207.5 -264.45 -206.25 -266.3 -204.9 -268.15 -203.6 -270.0 -202.2 -271.85 -200.65 -273.8 -198.2 -276.7 -194.45 -281.15 -194.15 -281.5 -193.95 -281.75 -193.55 -282.25 -193.15 -282.8 -192.95 -283.0 -192.2 -283.9 -191.65 -284.5 -191.55 -284.6 -191.45 -284.7 -191.3 -284.8 -191.2 -284.9 -191.05 -284.95 -190.95 -285.0 -190.8 -285.05 -190.7 -285.1 -190.55 -285.1 -190.4 -285.1 -190.25 -285.1 -190.1 -285.1 -189.95 -285.1 -189.8 -285.05 -189.65 -285.0 -189.45 -284.95 -189.35 -284.75 -189.3 -284.5 -189.3 -284.3 -189.25 -284.05 -189.25 -283.85 -189.25 -283.65 -189.3 -283.45 -189.3 -283.2 -189.35 -283.0 -189.45 -282.8 -189.5 -282.6 -189.6 -282.4 -189.7 -282.2 -189.8 -282.05 -189.9 -281.85 -190.05 -281.65 -190.65 -280.8 -191.2 -279.9 -191.75 -279.05 -192.3 -278.15 -192.8 -277.3 -193.3 -276.35 -193.8 -275.45 -194.3 -274.5 -194.75 -273.65 -195.2 -272.65 -195.65 -271.8 -196.1 -270.75 -196.45 -270.05 -197.0 -268.9 -197.7 -267.4 -197.9 -267.0 -198.95 -264.7 -200.0 -262.4 -201.0 -260.1 -201.9 -257.75 -202.85 -255.4 -203.7 -253.05 -204.6 -250.7 -205.4 -248.3 -206.2 -245.9 -206.9 -243.5 -207.65 -241.1 -208.3 -238.65 -208.95 -236.25 -209.55 -233.8 -210.15 -231.3 -210.65 -228.85 -210.85 -227.8 -211.05 -226.8 -211.25 -225.75 -211.45 -224.75 -211.65 -223.7 -211.8 -222.7 -211.95 -221.65 -212.1 -220.65 -212.25 -219.6 -212.35 -218.6 -212.5 -217.55 -212.55 -216.5 -212.65 -215.45 -212.7 -214.45 -212.8 -213.4 -212.8 -212.35 -212.9 -210.1 -212.8 -207.85 -212.75 -205.65 -212.6 -203.45 -212.4 -201.25 -212.1 -199.05 -211.8 -196.9 -211.35 -194.75 -210.9 -192.6 -210.35 -190.5 -209.75 -188.35 -209.05 -186.25 -208.35 -184.15 -207.5 -182.1 -206.65 -180.05 -205.65 -178.0 -204.8 -176.2 -203.8 -174.45 -202.85 -172.7 -201.85 -171.0 -200.8 -169.35 -199.65 -167.7 -198.55 -166.05 -197.35 -164.5 -196.2 -162.95 -194.9 -161.4 -193.65 -159.9 -192.35 -158.4 -191.0 -156.95 -189.6 -155.5 -188.2 -154.1 -186.75 -152.7 -185.05 -151.1 -180.85 -147.25 -180.8 -147.2 -179.4 -146.1 -178.85 -147.15 -178.75 -147.4 -178.75 -147.4 -178.2 -148.65 -178.25 -148.7 -178.55 -149.2 -178.75 -149.5 -178.85 -149.65 -180.7 -152.2 -180.7 -152.2 -181.35 -153.05 -181.95 -153.9 -182.5 -154.8 -183.05 -155.7 -183.55 -156.6 -184.0 -157.55 -184.45 -158.45 -184.85 -159.4 -185.25 -160.35 -185.6 -161.35 -185.95 -162.3 -186.25 -163.3 -186.5 -164.3 -186.75 -165.3 -187.0 -166.3 -187.25 -167.35 -187.45 -168.4 -187.65 -169.45 -187.85 -170.45 -188.0 -171.5 -188.15 -172.55 -188.3 -173.6 -188.45 -174.65 -188.55 -175.7 -188.7 -176.75 -188.75 -177.75 -188.85 -178.85 -188.9 -179.85 -188.95 -180.95 -189.0 -182.0 -189.0 -183.05 -189.0 -184.1 -189.0 -185.95 -188.9 -187.75 -188.85 -189.55 -188.7 -191.35 -188.55 -193.15 -188.3 -194.95 -188.05 -196.75 -187.75 -198.5 -187.45 -200.3 -187.05 -202.0 -186.6 -203.8 -186.1 -205.5 -185.6 -207.25 -185.0 -208.95 -184.4 -210.7 -183.7 -212.4 -181.9 -216.75 -177.75 -223.85 -175.75 -227.2 -174.55 -229.05 -174.25 -229.5 -173.7 -230.2 -172.95 -231.2 -172.85 -231.4 -172.8 -231.45 -172.75 -231.55 -172.7 -231.6 -172.65 -231.65 -172.6 -231.75 -172.55 -231.8 -172.5 -231.9 -172.45 -231.95 -172.4 -232.0 -172.35 -232.1 -172.3 -232.15 -172.25 -232.25 -172.25 -232.3 -172.2 -232.4 -172.15 -232.45 -172.1 -232.55 -158.65 -255.35 -151.45 -267.65 -150.4 -269.45 -149.4 -271.2 -148.4 -273.0 -147.4 -274.8 -146.4 -276.6 -145.5 -278.4 -144.5 -280.2 -143.6 -282.0 -142.65 -283.85 -141.8 -285.65 -140.9 -287.55 -140.05 -289.35 -139.2 -291.25 -138.4 -293.1 -137.6 -295.0 -136.85 -296.9 -136.1 -298.8 -135.4 -300.65 -134.65 -302.55 -134.0 -304.4 -133.3 -306.3 -132.65 -308.2 -132.0 -310.1 -131.45 -312.0 -130.85 -313.95 -130.3 -315.85 -129.75 -317.8 -129.25 -319.7 -128.7 -321.7 -128.25 -323.6 -127.8 -325.6 -127.4 -327.55 -127.25 -328.45 -127.05 -329.25 -126.9 -330.15 -126.75 -330.95 -126.6 -331.85 -126.5 -332.7 -126.35 -333.55 -126.25 -334.4 -126.15 -335.3 -126.05 -336.15 -125.95 -337.0 -125.9 -337.85 -125.85 -338.75 -125.8 -339.6 -125.75 -340.45 -125.75 -341.35 -125.75 -341.9 -125.75 -342.45 -125.75 -343.0 -125.75 -343.6 -125.75 -344.15 -125.8 -344.7 -125.8 -345.25 -125.85 -345.85 -125.9 -346.4 -125.95 -346.95 -126.0 -347.5 -126.05 -348.1 -126.1 -348.65 -126.15 -349.2 -126.2 -349.75 -126.25 -350.3 -127.75 -363.15 -132.45 -385.2 -132.65 -386.1 -133.15 -388.45 -133.6 -390.5 -133.9 -391.7 -134.1 -392.6 -134.6 -394.55 -135.1 -396.4 -135.3 -397.4 -135.35 -397.6 -135.4 -397.75 -135.4 -397.95 -135.45 -398.1 -135.5 -398.3 -135.5 -398.45 -135.5 -398.65 -135.55 -398.8 -135.55 -399.0 -135.55 -399.15 -135.55 -399.35 -135.5 -399.55 -135.5 -399.7 -135.45 -399.9 -135.4 -400.05 -135.3 -400.25 -135.15 -400.3 -134.95 -400.35 -134.8 -400.4 -134.65 -400.4 -134.5 -400.4 -134.4 -400.4 -134.25 -400.35 -134.15 -400.3 -134.0 -400.25 -133.9 -400.2 -133.8 -400.1 -133.7 -400.0 -133.6 -399.9 -133.55 -399.75 -133.45 -399.6 -133.4 -399.45 -132.05 -396.35 -131.95 -396.05 -129.2 -387.55 -128.35 -384.45 -127.85 -382.7 -127.4 -380.95 -126.95 -379.2 -126.5 -377.45 -126.05 -375.7 -125.65 -373.9 -125.25 -372.15 -124.85 -370.4 -124.45 -368.6 -124.1 -366.85 -123.75 -365.05 -123.45 -363.3 -123.1 -361.5 -122.8 -359.7 -122.55 -357.9 -122.25 -356.15 -122.05 -354.75 -121.9 -353.35 -121.7 -352.0 -121.55 -350.6 -121.45 -349.2 -121.3 -347.8 -121.2 -346.4 -121.15 -345.05 -121.05 -343.65 -121.0 -342.25 -120.95 -340.85 -120.95 -339.45 -120.9 -338.05 -120.9 -336.65 -120.95 -335.25 -120.95 -333.85 -121.0 -332.1 -121.1 -330.3 -121.2 -328.55 -121.3 -326.75 -121.4 -325.0 -121.55 -323.25 -121.7 -321.45 -121.85 -319.7 -122.05 -317.95 -122.25 -316.15 -122.4 -314.4 -122.65 -312.65 -122.85 -310.9 -123.1 -309.15 -123.35 -307.4 -123.6 -305.6 -123.8 -304.4 -124.0 -303.25 -124.15 -302.05 -124.35 -300.85 -124.6 -299.7 -124.8 -298.5 -125.0 -297.35 -125.25 -296.15 -125.45 -295.0 -125.7 -293.8 -125.95 -292.65 -126.15 -291.45 -126.4 -290.3 -126.7 -289.1 -126.95 -287.95 -127.2 -286.8 -127.35 -286.1 -127.55 -285.35 -127.75 -284.6 -127.95 -283.9 -128.1 -283.2 -128.35 -282.45 -128.55 -281.75 -128.75 -281.0 -128.95 -280.3 -129.2 -279.6 -129.4 -278.9 -129.65 -278.15 -129.9 -277.45 -130.15 -276.75 -130.35 -276.05 -130.6 -275.35 -130.7 -275.05 -131.3 -273.2 -129.7 -272.9 -126.7 -272.4 -126.55 -272.7 -126.0 -273.7 -125.55 -274.5 -125.35 -275.0 -115.15 -295.8 -112.25 -301.85 -105.0 -317.05 -99.95 -329.1 -94.35 -342.45 -91.7 -351.05 -91.3 -352.4 -90.9 -353.8 -90.5 -355.15 -90.15 -356.55 -89.8 -357.9 -89.5 -359.3 -89.15 -360.65 -88.85 -362.05 -88.55 -363.4 -88.25 -364.85 -88.0 -366.2 -87.7 -367.6 -87.45 -369.0 -87.2 -370.4 -87.0 -371.8 -86.75 -373.2 -86.55 -374.55 -86.35 -375.9 -86.15 -377.25 -86.0 -378.6 -85.85 -379.95 -85.7 -381.3 -85.55 -382.65 -85.4 -384.0 -85.3 -385.35 -85.2 -386.7 -85.1 -388.05 -85.0 -389.4 -84.9 -390.75 -84.85 -392.15 -84.8 -393.5 -84.75 -394.85 -84.7 -395.6 -84.7 -396.35 -84.7 -397.1 -84.7 -397.85 -84.75 -398.6 -84.75 -399.35 -84.8 -400.05 -84.85 -400.8 -84.85 -401.55 -84.95 -402.3 -85.0 -403.05 -85.05 -403.8 -85.15 -404.55 -85.2 -405.3 -85.3 -406.0 -85.4 -406.75 -85.6 -408.05 -85.9 -410.05 -86.35 -413.05 -86.4 -413.35 -86.45 -413.75 -86.5 -414.0 -86.5 -414.3 -86.55 -414.5 -86.55 -414.75 -86.55 -415.0 -86.6 -415.2 -86.55 -415.4 -86.55 -415.55 -86.55 -415.75 -86.5 -415.95 -86.5 -416.15 -86.45 -416.35 -86.4 -416.55 -86.35 -416.75 -86.25 -417.05 -85.6 -417.15 -85.35 -417.15 -85.25 -417.15 -85.1 -417.15 -85.0 -417.15 -84.9 -417.1 -84.8 -417.1 -84.7 -417.05 -84.6 -417.05 -84.5 -417.0 -84.4 -416.95 -84.35 -416.85 -84.25 -416.8 -84.2 -416.7 -84.1 -416.65 -84.05 -416.55 -83.95 -416.45 -83.9 -416.35 -83.45 -415.55 -82.35 -413.6 -81.35 -411.9 -80.8 -410.9 -80.1 -409.55 -79.4 -408.25 -78.75 -406.9 -78.1 -405.55 -77.45 -404.2 -76.85 -402.85 -76.25 -401.45 -75.75 -400.1 -75.2 -398.7 -74.7 -397.3 -74.2 -395.9 -73.75 -394.45 -73.3 -393.05 -72.9 -391.6 -72.5 -390.15 -72.15 -388.7 -71.95 -387.85 -71.75 -387.05 -71.6 -386.2 -71.4 -385.35 -71.25 -384.5 -71.1 -383.65 -70.95 -382.85 -70.8 -382.0 -70.7 -381.15 -70.55 -380.3 -70.45 -379.45 -70.35 -378.6 -70.25 -377.75 -70.15 -376.9 -70.05 -376.05 -70.0 -375.2 -69.9 -374.05 -69.8 -372.9 -69.7 -371.75 -69.65 -370.65 -69.55 -369.5 -69.5 -368.35 -69.45 -367.2 -69.4 -366.1 -69.35 -364.95 -69.3 -363.8 -69.25 -362.65 -69.25 -361.55 -69.25 -360.4 -69.25 -359.25 -69.25 -358.1 -69.3 -357.0 -69.3 -356.75 -69.25 -356.4 -69.2 -355.85 -69.2 -355.7 -67.7 -356.1 -64.7 -356.95 -64.05 -357.8 -63.6 -358.4 -62.55 -359.95 -60.9 -362.35 -58.7 -365.5 -58.15 -366.3 -56.85 -368.25 -55.45 -370.1 -54.05 -372.0 -52.6 -373.8 -51.15 -375.6 -49.6 -377.35 -48.1 -379.1 -46.5 -380.85 -44.95 -382.5 -43.3 -384.15 -41.65 -385.8 -39.95 -387.4 -38.3 -389.0 -36.5 -390.55 -34.75 -392.05 -32.95 -393.55 -31.2 -395.0 -29.4 -396.4 -27.65 -397.8 -25.8 -399.15 -24.0 -400.55 -22.15 -401.85 -20.35 -403.15 -18.45 -404.45 -16.6 -405.75 -14.7 -407.0 -12.85 -408.25 -10.9 -409.5 -9.0 -410.7 -7.05 -411.9 -5.15 -413.05 -3.2 -414.2 -1.75 -415.05 0.5 -416.3 3.85 -418.15 4.2 -418.3 4.4 -418.45 4.75 -418.7 5.25 -419.1 5.3 -419.1 5.5 -419.25 5.65 -419.35 5.85 -419.5 5.95 -419.55 6.1 -419.65 6.25 -419.7 6.4 -419.75 6.55 -419.8 6.7 -419.85 6.85 -419.85 7.05 -419.85 7.25 -419.85 7.45 -419.85 7.7 -419.8 7.95 -419.8 8.3 -419.75 8.4 -419.55 8.45 -419.35 8.5 -419.15 8.5 -419.0 8.55 -418.8 8.55 -418.6 8.55 -418.45 8.5 -418.25 8.45 -418.05 8.4 -417.9 8.35 -417.75 8.25 -417.6 8.15 -417.4 8.0 -417.25 7.85 -417.1 7.7 -417.0 7.55 -416.85 7.4 -416.75 7.25 -416.6 7.1 -416.45 7.0 -416.3 6.85 -416.15 6.75 -416.0 6.6 -415.85 6.5 -415.7 6.35 -415.55 6.25 -415.4 6.15 -415.25 6.05 -415.15 5.9 -414.9 5.75 -414.7 5.7 -414.6 5.55 -414.4 4.7 -413.25 4.1 -412.4 3.7 -411.9 2.3 -410.15 1.0 -408.3 -0.3 -406.5 -1.5 -404.65 -2.7 -402.8 -3.85 -400.85 -4.95 -398.95 -6.0 -397.0 -7.05 -395.05 -8.05 -393.05 -9.0 -391.05 -9.9 -389.0 -10.8 -387.0 -11.65 -384.9 -12.45 -382.85 -13.25 -380.7 -15.85 -373.35 -16.8 -368.7 -17.0 -367.75 -17.35 -364.65 -17.35 -364.5 -17.35 -363.55 -17.25 -363.55 -17.2 -363.55 -17.15 -363.55 -17.05 -363.55 -17.0 -363.55 -16.95 -363.55 -16.9 -363.6 -16.9 -363.65 -16.85 -363.65 -16.8 -363.7 -16.8 -363.75 -16.75 -363.8 -16.75 -363.8 -16.7 -363.85 -16.7 -363.9 -16.7 -363.95 -16.2 -365.05 -15.65 -366.15 -15.1 -367.2 -14.5 -368.25 -13.9 -369.3 -13.25 -370.3 -12.6 -371.3 -11.9 -372.25 -11.25 -373.25 -10.5 -374.2 -9.75 -375.1 -8.95 -376.05 -8.2 -376.95 -7.4 -377.85 -6.6 -378.7 -5.7 -379.6 -5.0 -380.3 -4.25 -381.0 -3.55 -381.7 -2.8 -382.4 -2.1 -383.05 -1.35 -383.7 -0.6 -384.35 0.2 -385.05 0.95 -385.65 1.75 -386.3 2.5 -386.95 3.3 -387.55 4.1 -388.15 4.9 -388.75 5.7 -389.35 6.55 -389.95 7.35 -390.55 8.2 -391.1 9.0 -391.7 9.85 -392.25 10.7 -392.8 11.5 -393.35 12.35 -393.9 13.2 -394.45 14.1 -394.95 14.95 -395.45 15.8 -395.95 16.7 -396.45 17.55 -396.95 18.45 -397.4 19.35 -397.85 20.25 -398.3 21.55 -398.95 21.95 -399.25 24.7 -401.15 29.3 -403.95 35.15 -407.5 36.75 -408.5 42.0 -411.9 47.95 -416.1 49.0 -416.85 50.45 -418.1 53.65 -420.85 52.9 -420.25 53.05 -420.35 53.15 -420.4 53.25 -420.5 53.35 -420.55 53.45 -420.6 53.55 -420.6 53.65 -420.65 53.75 -420.65 53.85 -420.65 54.0 -420.6 54.1 -420.6 54.2 -420.55 54.3 -420.5 54.4 -420.4 54.5 -420.35 54.65 -420.25 54.8 -420.1 54.95 -420.0 55.1 -419.85 55.2 -419.7 55.3 -419.55 55.35 -419.4 55.45 -419.25 55.5 -419.1 55.55 -418.95 55.55 -418.75 55.6 -418.6 55.6 -418.4 55.55 -418.25 55.55 -418.05 55.5 -417.85 55.45 -417.65 55.35 -417.35 55.25 -417.1 55.15 -416.8 55.05 -416.55 54.95 -416.25 54.85 -416.0 54.7 -415.75 54.6 -415.45 54.45 -415.2 54.3 -414.95 54.2 -414.7 54.05 -414.45 53.9 -414.2 53.75 -413.9 53.6 -413.7 53.45 -413.45 52.9 -412.6 52.35 -411.8 51.8 -411.0 51.25 -410.2 50.65 -409.4 50.05 -408.6 49.45 -407.8 48.85 -407.05 48.25 -406.3 47.6 -405.55 47.0 -404.8 46.35 -404.05 45.7 -403.3 45.0 -402.6 44.35 -401.9 43.65 -401.2 41.2 -398.7 36.8 -394.3 32.0 -389.45 30.0 -387.45 29.0 -386.45 28.1 -385.4 27.15 -384.4 26.25 -383.35 25.35 -382.25 24.55 -381.15 23.7 -380.05 22.9 -378.95 22.1 -377.8 21.35 -376.65 20.6 -375.5 19.9 -374.3 19.2 -373.1 18.55 -371.9 17.9 -370.65 17.3 -369.4 17.25 -369.25 17.15 -369.0 17.05 -368.65 17.0 -368.55 18.25 -367.75 21.0 -366.0 21.45 -366.35 22.25 -366.95 23.2 -367.6 23.5 -367.85 24.8 -368.8 26.05 -369.75 27.35 -370.7 28.65 -371.6 30.0 -372.5 31.3 -373.4 32.65 -374.25 33.95 -375.1 35.3 -375.95 36.7 -376.8 38.05 -377.6 39.4 -378.4 40.8 -379.2 42.2 -379.95 43.6 -380.75 45.0 -381.45 46.65 -382.3 48.3 -383.1 49.95 -383.95 51.6 -384.7 53.25 -385.5 54.95 -386.25 56.6 -387.0 58.3 -387.75 59.95 -388.5 61.7 -389.2 63.35 -389.9 65.1 -390.55 66.8 -391.25 68.5 -391.9 70.25 -392.55 71.95 -393.15 76.3 -394.75 78.25 -395.4 78.5 -395.5 78.7 -395.55 78.95 -395.65 79.2 -395.7 79.45 -395.8 79.65 -395.85 79.9 -395.9 80.1 -395.95 80.35 -396.0 80.6 -396.0 80.85 -396.0 81.1 -396.0 81.35 -396.0 81.55 -396.0 81.8 -395.95 82.05 -395.9 82.2 -395.6 82.25 -395.4 82.35 -395.15 82.4 -394.95 82.45 -394.75 82.5 -394.55 82.5 -394.4 82.45 -394.25 82.45 -394.1 82.35 -393.95 82.3 -393.8 82.15 -393.65 82.05 -393.55 81.85 -393.35 81.7 -393.25 81.5 -393.05 80.8 -392.55 79.5 -391.6 78.1 -390.6 77.5 -390.15 75.9 -388.95 74.4 -387.7 72.85 -386.45 71.45 -385.15 70.0 -383.8 68.65 -382.4 67.3 -381.0 66.05 -379.55 64.8 -378.05 63.6 -376.5 62.45 -374.95 61.35 -373.35 60.25 -371.7 59.25 -370.05 58.2 -368.35 57.3 -366.55 56.3 -364.65 55.35 -362.75 54.4 -360.8 53.5 -358.85 52.6 -356.9 51.8 -354.95 50.95 -352.95 50.2 -351.0 49.45 -348.95 48.75 -346.95 48.05 -344.95 47.45 -342.9 46.8 -340.85 46.25 -338.8 45.7 -336.7 45.25 -334.6 44.05 -329.4 42.7 -319.95 42.55 -318.95 42.4 -317.95 42.25 -316.95 42.15 -315.9 42.0 -314.9 41.9 -313.9 41.75 -312.9 41.65 -311.9 41.55 -310.9 41.4 -309.85 41.3 -308.85 41.2 -307.85 41.15 -306.85 41.05 -305.85 40.95 -304.8 40.85 -303.8 40.75 -302.45 40.65 -301.1 40.6 -299.7 40.5 -298.4 40.45 -297.0 40.4 -295.65 40.4 -294.3 40.35 -292.95 40.35 -291.6 40.35 -290.25 40.35 -288.85 40.4 -287.5 40.45 -286.15 40.5 -284.8 40.55 -283.45 40.65 -282.1 40.65 -282.0 40.7 -281.8 40.8 -281.5 40.8 -281.4 41.0 -281.4 41.25 -281.45 41.45 -281.5 41.65 -281.55 41.9 -281.6 42.1 -281.65 42.3 -281.7 42.5 -281.8 42.7 -281.85 42.95 -281.9 43.05 -281.95 43.35 -282.05 43.6 -282.15 43.75 -282.2 44.0 -282.3 44.15 -282.35 44.45 -283.1 44.55 -283.45 44.75 -284.3 45.0 -285.15 45.2 -286.0 45.45 -286.85 45.7 -287.7 46.0 -288.55 46.3 -289.35 46.6 -290.2 46.9 -291.0 47.25 -291.85 47.55 -292.6 47.9 -293.45 48.2 -294.25 48.55 -295.1 48.85 -295.8 49.25 -296.7 50.45 -299.5 51.8 -302.25 53.1 -304.95 54.55 -307.65 56.0 -310.25 57.55 -312.85 59.1 -315.45 60.8 -317.95 62.45 -320.45 64.25 -322.9 66.0 -325.3 67.9 -327.7 69.75 -330.05 71.75 -332.35 73.7 -334.65 75.8 -336.9 77.25 -338.45 78.7 -339.95 80.2 -341.45 81.7 -342.95 83.25 -344.4 84.75 -345.85 86.3 -347.25 87.9 -348.65 89.5 -350.05 91.1 -351.35 92.75 -352.7 94.4 -354.0 96.05 -355.3 97.75 -356.55 99.45 -357.8 101.15 -359.0 102.75 -360.1 104.35 -361.15 105.95 -362.2 107.55 -363.25 109.2 -364.25 110.8 -365.2 112.45 -366.2 114.1 -367.15 115.8 -368.05 117.5 -368.95 119.2 -369.85 120.9 -370.65 122.6 -371.5 124.35 -372.3 126.1 -373.1 127.9 -373.8 129.35 -374.4 130.85 -375.0 132.35 -375.55 133.85 -376.1 135.35 -376.6 136.85 -377.1 138.35 -377.6 139.9 -378.0 141.4 -378.45 142.95 -378.85 144.5 -379.25 146.05 -379.6 147.6 -380.0 149.15 -380.3 150.75 -380.6 152.3 -380.9 152.65 -380.95 152.95 -381.0 153.25 -381.05 153.55 -381.05 153.8 -381.1 154.05 -381.1 154.3 -381.1 154.5 -381.1 154.75 -381.1 155.0 -381.1 155.2 -381.1 155.45 -381.05 155.65 -381.0 155.9 -380.95 156.15 -380.9 156.4 -380.85 156.5 -380.1 156.5 -379.7 156.5 -379.6 156.5 -379.55 156.5 -379.5 156.45 -379.4 156.45 -379.35 156.45 -379.25 156.4 -379.2 156.35 -379.15 156.35 -379.1 156.3 -379.05 156.25 -379.0 156.2 -378.95 156.15 -378.9 156.05 -378.85 156.0 -378.8 155.95 -378.75 155.85 -378.7 155.8 -378.7 155.7 -378.65 155.65 -378.6 155.55 -378.55 155.5 -378.55 155.4 -378.5 155.3 -378.45 155.25 -378.45 155.15 -378.4 155.1 -378.35 155.0 -378.35 154.9 -378.3 154.85 -378.25 154.75 -378.25 154.7 -378.2 153.35 -377.65 152.0 -377.15 150.65 -376.6 149.3 -376.05 148.0 -375.5 146.65 -374.95 145.3 -374.35 144.0 -373.8 142.65 -373.2 141.35 -372.6 140.05 -372.0 138.75 -371.4 137.4 -370.8 136.1 -370.15 134.8 -369.55 133.5 -368.9 131.35 -367.85 129.25 -366.7 127.15 -365.55 125.1 -364.35 123.05 -363.1 121.0 -361.85 119.0 -360.55 117.05 -359.2 115.1 -357.85 113.2 -356.4 111.3 -354.95 109.45 -353.45 107.6 -351.95 105.8 -350.4 103.95 -348.8 102.2 -347.2 101.05 -346.1 99.95 -345.0 98.8 -343.9 97.75 -342.8 96.65 -341.65 95.55 -340.5 94.5 -339.35 93.45 -338.2 92.45 -337.05 91.4 -335.85 90.4 -334.65 89.4 -333.45 88.4 -332.2 87.45 -331.0 86.5 -329.75 85.55 -328.5 84.75 -327.45 84.0 -326.35 83.25 -325.3 82.55 -324.2 81.8 -323.1 81.15 -321.95 80.45 -320.85 79.8 -319.7 79.15 -318.6 78.55 -317.4 77.95 -316.3 77.35 -315.1 76.75 -313.95 76.2 -312.75 75.65 -311.55 75.1 -310.35 74.35 -308.65 73.6 -307.0 72.9 -305.3 72.2 -303.6 71.5 -301.9 70.85 -300.2 70.2 -298.45 69.6 -296.75 68.95 -295.0 68.4 -293.3 67.8 -291.55 67.25 -289.8 66.7 -288.05 66.2 -286.25 65.7 -284.5 65.25 -282.7 65.1 -282.2 64.65 -280.35 66.0 -279.1 68.55 -276.7 68.65 -276.9 69.0 -277.6 69.25 -278.15 69.4 -278.5 69.95 -279.85 70.55 -281.15 71.15 -282.45 71.75 -283.75 72.35 -285.1 73.0 -286.35 73.65 -287.7 74.3 -288.95 74.95 -290.25 75.6 -291.5 76.3 -292.8 77.0 -294.05 77.7 -295.3 78.4 -296.55 79.15 -297.8 79.9 -299.05 81.0 -300.85 82.1 -302.55 83.25 -304.3 84.4 -305.95 85.55 -307.65 86.8 -309.3 88.0 -310.95 89.25 -312.55 90.55 -314.2 91.85 -315.75 93.2 -317.35 94.55 -318.85 95.95 -320.4 97.4 -321.85 98.8 -323.35 100.3 -324.75 101.3 -325.7 108.65 -332.15 108.75 -332.25 108.85 -332.35 108.95 -332.45 109.05 -332.5 109.15 -332.6 109.25 -332.7 109.35 -332.8 109.45 -332.9 109.55 -333.0 109.65 -333.1 109.7 -333.2 109.8 -333.3 109.9 -333.4 110.0 -333.5 110.05 -333.6 110.15 -333.7 110.25 -333.85 110.35 -334.0 110.45 -334.1 110.55 -334.25 110.65 -334.4 110.8 -334.5 110.9 -334.65 111.0 -334.75 111.15 -334.9 111.25 -335.0 111.4 -335.1 111.5 -335.25 111.65 -335.35 111.8 -335.45 111.9 -335.55 112.05 -335.65 115.5 -338.3 117.9 -339.9 119.8 -341.15 124.4 -343.95 124.5 -344.0 124.65 -344.1 124.75 -344.15 124.9 -344.2 125.0 -344.25 125.15 -344.3 125.25 -344.4 125.4 -344.45 125.5 -344.5 125.65 -344.55 125.75 -344.6 125.9 -344.65 126.0 -344.65 126.15 -344.7 126.25 -344.75 126.4 -344.8 126.45 -344.8 126.55 -344.85 126.65 -344.85 126.7 -344.85 126.8 -344.9 126.9 -344.9 126.95 -344.9 127.05 -344.9 127.15 -344.9 127.25 -344.9 127.3 -344.85 127.4 -344.85 127.5 -344.85 127.6 -344.85 127.65 -344.85 127.75 -344.8 127.9 -344.8 128.0 -344.75 128.1 -344.7 128.2 -344.6 128.3 -344.55 128.35 -344.45 128.45 -344.35 128.45 -344.25 128.5 -344.15 128.55 -344.0 128.55 -343.9 128.55 -343.75 128.55 -343.65 128.5 -343.55 128.45 -343.4 128.4 -343.3 128.4 -343.3 127.9 -342.7 123.35 -337.15 119.2 -332.1 118.5 -331.25 118.0 -330.75 117.9 -330.65 117.8 -330.55 117.7 -330.5 117.6 -330.45 117.5 -330.4 117.4 -330.35 117.3 -330.3 117.2 -330.3 117.05 -330.3 116.95 -330.3 116.85 -330.3 116.75 -330.35 116.6 -330.4 116.5 -330.45 116.4 -330.55 116.25 -330.65 116.2 -330.7 116.1 -330.75 115.85 -330.8 115.8 -330.85 114.75 -329.7 114.4 -329.3 113.25 -328.0 112.15 -326.7 111.05 -325.35 109.95 -324.0 108.9 -322.65 107.85 -321.25 106.85 -319.9 105.85 -318.5 104.85 -317.1 103.85 -315.65 102.9 -314.2 102.0 -312.75 101.05 -311.3 100.15 -309.8 99.25 -308.35 98.4 -306.85 96.65 -303.85 95.05 -300.75 93.4 -297.7 91.85 -294.6 90.35 -291.5 88.95 -288.35 87.5 -285.15 86.2 -282.0 84.9 -278.8 83.75 -275.55 82.55 -272.3 81.45 -269.0 80.4 -265.7 79.4 -262.4 78.45 -259.05 77.6 -255.65 74.75 -244.3 73.45 -235.95 73.2 -234.45 73.0 -233.05 72.8 -231.6 72.65 -230.2 72.45 -228.7 72.3 -227.3 72.15 -225.8 72.05 -224.4 71.9 -222.9 71.85 -221.5 71.75 -220.0 71.7 -218.55 71.65 -217.1 71.7 -215.65 71.7 -214.2 71.75 -212.75 71.8 -211.9 71.85 -211.0 71.9 -210.15 71.95 -209.25 72.0 -208.4 72.1 -207.55 72.2 -206.7 72.35 -205.8 72.45 -204.95 72.6 -204.1 72.75 -203.25 72.95 -202.4 73.1 -201.55 73.3 -200.7 73.5 -199.85 73.7 -199.0 73.75 -198.75 73.8 -198.6 73.9 -198.35 73.95 -198.15 74.0 -197.95 74.1 -197.75 74.15 -197.5 74.25 -197.3 74.3 -197.05 74.4 -196.85 74.5 -196.65 74.6 -196.4 74.7 -196.15 74.85 -195.95 74.95 -195.7 75.1 -195.45 75.15 -195.55 75.3 -195.85 75.4 -196.0 75.4 -196.1 75.75 -197.05 76.2 -198.05 76.55 -198.95 77.0 -199.95 77.45 -200.85 77.9 -201.8 78.35 -202.7 78.8 -203.7 79.25 -204.55 79.75 -205.55 80.2 -206.35 80.75 -207.4 81.15 -208.1 81.75 -209.2 82.7 -211.05 82.7 -211.05 83.45 -212.5 84.2 -213.8 85.0 -215.25 85.75 -216.55 86.6 -217.95 87.35 -219.3 88.2 -220.7 89.0 -222.0 89.85 -223.35 90.7 -224.65 91.55 -226.0 92.45 -227.3 93.35 -228.65 94.25 -229.9 95.15 -231.2 96.1 -232.45 97.15 -233.85 98.15 -235.15 99.25 -236.5 100.3 -237.75 101.4 -239.1 102.5 -240.3 103.65 -241.6 104.8 -242.8 105.95 -244.05 107.15 -245.2 108.4 -246.4 109.65 -247.5 110.9 -248.65 112.2 -249.7 113.5 -250.8 114.85 -251.85 119.5 -255.35 122.6 -257.1 123.05 -257.35 123.6 -257.7 124.05 -257.95 124.6 -258.3 127.25 -259.95 125.6 -258.95 126.2 -259.3 126.6 -259.55 127.15 -259.9 127.65 -260.15 128.15 -260.45 128.65 -260.7 129.2 -261.0 129.7 -261.25 130.3 -261.5 130.8 -261.7 131.0 -261.8 131.15 -261.8 131.35 -261.9 131.5 -261.95 131.7 -262.0 131.85 -262.0 132.05 -262.05 132.2 -262.05 132.4 -262.1 132.6 -262.1 132.75 -262.1 132.95 -262.05 133.1 -262.0 133.3 -261.95 133.5 -261.9 133.7 -261.8 133.7 -261.25 133.7 -260.25 130.15 -257.65 128.45 -256.75 128.35 -256.7 128.25 -256.65 128.15 -256.6 128.05 -256.55 127.95 -256.5 127.85 -256.45 127.75 -256.4 127.65 -256.35 127.55 -256.3 127.45 -256.2 127.4 -256.15 127.3 -256.1 127.2 -256.05 127.1 -255.95 127.0 -255.9 126.95 -255.85 119.7 -250.1 117.4 -247.95 116.65 -247.25 115.9 -246.5 115.2 -245.8 114.5 -245.05 113.75 -244.3 113.1 -243.55 112.4 -242.8 111.75 -242.0 111.05 -241.25 110.4 -240.45 109.75 -239.65 109.15 -238.8 108.55 -238.0 107.95 -237.15 107.35 -236.3 106.75 -235.45 105.5 -233.55 104.35 -231.7 103.15 -229.8 102.0 -227.9 100.9 -225.95 99.85 -224.05 98.75 -222.05 97.75 -220.1 96.75 -218.1 95.8 -216.1 94.85 -214.05 94.0 -212.05 93.1 -209.95 92.35 -207.9 91.55 -205.8 90.8 -203.7 90.4 -202.55 90.05 -201.4 89.7 -200.25 89.35 -199.1 89.0 -197.95 88.7 -196.8 88.35 -195.65 88.1 -194.5 87.8 -193.3 87.55 -192.15 87.3 -191.0 87.05 -189.8 86.85 -188.65 86.65 -187.45 86.5 -186.25 86.35 -185.05 86.2 -183.95 86.1 -182.8 86.0 -181.7 85.9 -180.55 85.85 -179.45 85.8 -178.35 85.75 -177.2 85.75 -176.1 85.7 -174.95 85.75 -173.85 85.75 -172.75 85.8 -171.6 85.85 -170.5 85.9 -169.35 86.0 -168.25 86.1 -167.1 86.2 -166.2 86.25 -165.25 86.35 -164.35 86.45 -163.45 86.55 -162.55 86.65 -161.6 86.8 -160.7 86.9 -159.8 87.05 -158.9 87.15 -158.0 87.3 -157.1 87.45 -156.15 87.6 -155.25 87.75 -154.35 87.9 -153.45 88.05 -152.55 88.3 -151.2 88.55 -149.9 88.85 -148.6 89.15 -147.25 89.5 -145.95 89.85 -144.65 90.2 -143.35 90.6 -142.1 91.0 -140.8 91.45 -139.55 91.85 -138.25 92.35 -137.0 92.8 -135.75 93.35 -134.5 93.85 -133.25 94.4 -132.0 96.15 -128.05 99.05 -121.75 102.85 -113.45 103.75 -111.5 112.5 -92.15 113.9 -88.8 114.85 -86.6 115.75 -84.3 116.6 -82.05 117.45 -79.8 118.25 -77.5 119.0 -75.2 119.75 -72.9 120.45 -70.6 121.15 -68.3 121.8 -65.95 122.4 -63.6 123.0 -61.25 123.6 -58.9 124.1 -56.55 124.65 -54.2 125.1 -51.8 125.3 -50.7 125.55 -49.65 125.75 -48.55 125.95 -47.45 126.1 -46.35 126.3 -45.3 126.5 -44.2 126.65 -43.1 126.8 -42.0 126.95 -40.95 127.1 -39.85 127.25 -38.75 127.35 -37.65 127.5 -36.55 127.6 -35.45 127.7 -34.35 127.75 -33.5 127.85 -32.75 127.9 -31.9 127.95 -31.15 128.0 -30.3 128.05 -29.5 128.1 -28.7 128.15 -27.9 128.15 -27.1 128.2 -26.3 128.2 -25.5 128.2 -24.7 128.25 -23.85 128.25 -23.05 128.2 -22.25 128.2 -21.45 128.2 -20.55 128.15 -19.65 128.15 -18.75 128.1 -17.9 128.05 -16.95 128.0 -16.1 127.95 -15.2 127.9 -14.3 127.8 -13.4 127.75 -12.55 127.65 -11.65 127.55 -10.75 127.45 -9.85 127.35 -9.0 127.25 -8.1 127.1 -7.2 126.85 -5.65 126.6 -4.15 126.3 -2.65 125.95 -1.15 125.6 0.35 125.2 1.85 124.85 3.35 124.4 4.8 123.95 6.3 123.45 7.75 122.95 9.2 122.35 10.6 121.8 12.05 121.2 13.5 120.6 14.9 119.9 16.3 119.5 17.1 119.15 17.9 118.75 18.7 118.35 19.45 117.95 20.25 117.5 21.0 117.1 21.8 116.65 22.55 116.2 23.3 115.75 24.05 115.3 24.8 114.8 25.55 114.35 26.3 113.85 27.0 113.35 27.75 112.8 28.45 112.35 29.1 111.85 29.7 111.4 30.35 110.9 30.95 110.4 31.55 109.9 32.15 109.4 32.75 108.85 33.3 108.35 33.9 107.8 34.45 107.25 35.05 106.7 35.6 106.15 36.15 105.55 36.7 105.0 37.2 104.4 37.75 103.3 38.75 102.25 39.7 101.15 40.65 100.05 41.55 98.9 42.45 97.8 43.35 96.65 44.25 95.5 45.1 94.3 45.95 93.1 46.75 91.9 47.55 90.7 48.3 89.45 49.1 88.2 49.8 86.95 50.55 85.7 51.2 84.75 51.7 83.85 52.15 82.9 52.65 81.95 53.1 81.0 53.55 80.05 53.95 79.1 54.4 78.15 54.75 77.2 55.15 76.2 55.55 75.25 55.9 74.25 56.25 73.3 56.6 72.3 56.95 71.3 57.25 70.3 57.55 69.95 57.65 69.65 57.75 69.3 57.85 68.95 57.9 68.65 58.0 68.3 58.05 67.95 58.15 67.65 58.2 67.3 58.25 66.95 58.3 66.6 58.35 66.3 58.4 65.95 58.45 65.6 58.45 65.25 58.5 64.9 58.5 63.65 58.55 56.65 58.55 56.55 58.55 55.8 58.45 55.45 57.35 55.4 57.2 55.35 55.2 55.4 53.7 55.45 52.35 55.5 51.05 55.5 49.7 55.55 48.4 55.55 47.05 55.55 45.75 55.55 44.4 55.55 43.1 55.55 41.75 55.55 40.45 55.55 39.1 55.5 37.8 55.45 36.5 55.4 35.15 55.35 33.85 55.3 32.5 55.25 31.4 55.15 30.3 55.1 29.2 54.95 28.15 54.85 27.05 54.7 26.0 54.5 24.9 54.3 23.85 54.1 22.8 53.85 21.75 53.6 20.7 53.3 19.65 53.0 18.6 52.65 17.6 52.25 16.55 51.85 15.55 51.8 15.45 51.75 15.3 51.7 15.2 51.7 15.1 51.65 14.95 51.6 14.85 51.55 14.7 51.55 14.6 51.5 14.5 51.5 14.35 51.45 14.25 51.45 14.15 51.4 14.0 51.4 13.9 51.4 13.75 51.4 13.65 51.35 13.4 51.35 12.85 51.35 12.75 51.35 12.6 51.35 12.5 51.35 12.35 51.35 12.2 51.3 12.05 51.3 11.9 51.25 11.7 51.2 11.55 51.15 11.35 51.15 11.15 51.05 10.95 51.0 10.75 50.9 10.55 50.85 10.35 50.75 10.1 L50.75 10.1" fill="url(#gradient0)" fill-rule="evenodd" stroke="none"/>
  </g>
  <defs>
    <linearGradient gradientTransform="matrix(0.0, 0.3023, -0.3023, 0.0, -34.75, -172.95)" gradientUnits="userSpaceOnUse" id="gradient0" spreadMethod="pad" x1="-819.2" x2="819.2">
      <stop offset="0.0" stop-color="#fff23c" stop-opacity="0.0"/>
      <stop offset="0.3803921568627451" stop-color="#fff23c" stop-opacity="0.84705883"/>
      <stop offset="0.6039215686274509" stop-color="#fff23c" stop-opacity="0.8"/>
      <stop offset="1.0" stop-color="#fff23c" stop-opacity="0.0"/>
    </linearGradient>
  </defs>
</svg>
