<?xml version="1.0" encoding="UTF-8" standalone="no"?>
<svg xmlns:xlink="http://www.w3.org/1999/xlink" height="34.75px" width="46.95px" xmlns="http://www.w3.org/2000/svg">
  <g transform="matrix(1.0, 0.0, 0.0, 1.0, 0.0, 0.0)">
    <path d="M44.05 21.55 L44.0 21.55 43.05 21.65 42.1 21.75 41.7 21.8 41.25 21.8 41.0 21.85 40.75 21.9 40.65 21.85 40.6 21.85 39.95 21.9 39.35 22.0 39.25 21.95 39.1 21.9 38.8 21.95 38.5 22.05 37.65 22.1 36.75 22.15 35.2 22.25 33.65 22.35 32.3 22.4 31.0 22.45 30.15 22.45 29.3 22.45 28.95 22.45 28.6 22.45 27.8 22.5 27.0 22.5 26.1 22.5 25.25 22.5 24.35 22.45 23.5 22.4 23.0 22.25 22.45 22.05 22.35 22.1 22.2 22.15 21.75 22.15 21.25 22.15 20.2 22.0 19.15 21.9 18.4 21.75 17.65 21.6 17.6 21.5 17.55 21.4 17.35 21.5 17.1 21.6 16.65 21.4 16.25 21.25 16.15 21.2 16.05 21.2 15.7 21.05 15.4 20.95 15.3 20.95 15.25 20.95 14.7 20.8 14.15 20.65 13.95 20.6 13.75 20.55 13.8 20.45 13.9 20.4 14.65 20.6 15.4 20.75 15.6 20.8 15.8 20.85 15.3 20.7 14.8 20.5 14.55 20.45 14.3 20.35 13.6 20.2 12.9 20.0 12.45 19.85 12.0 19.7 11.75 19.6 11.5 19.5 11.35 19.3 11.2 19.05 11.3 18.95 11.4 18.85 11.6 18.75 11.8 18.7 12.15 18.65 12.45 18.65 12.7 18.7 12.95 18.75 13.25 18.85 13.55 18.9 13.65 18.9 13.7 18.85 13.75 18.7 13.8 18.55 13.7 18.25 13.6 17.95 13.6 17.75 13.65 17.55 13.75 17.4 13.85 17.25 14.05 17.2 14.25 17.15 14.45 17.3 14.7 17.45 14.7 17.5 14.7 17.55 14.6 17.9 14.5 18.25 14.4 18.35 14.35 18.45 14.4 18.8 14.5 19.2 14.65 19.35 14.85 19.5 15.05 19.55 15.2 19.65 15.2 19.7 15.2 19.8 15.45 19.9 15.7 19.95 15.85 20.1 16.05 20.25 16.35 20.4 16.65 20.55 16.7 20.45 16.8 20.4 16.75 20.1 16.7 19.8 16.35 19.35 16.05 18.9 16.0 18.85 16.0 18.8 16.15 18.7 16.35 18.6 16.4 18.65 16.5 18.65 16.75 19.15 17.0 19.7 17.15 19.8 17.3 19.95 17.55 20.3 17.85 20.65 18.1 20.8 18.35 20.95 18.65 20.95 18.9 20.9 19.1 21.05 19.35 21.15 19.35 21.2 19.4 21.25 19.55 21.2 19.7 21.2 19.75 21.3 19.8 21.4 20.25 21.4 20.75 21.4 20.85 21.4 20.95 21.4 20.95 21.35 20.9 21.3 20.65 21.25 20.4 21.2 20.4 21.05 20.4 20.95 20.6 20.9 20.8 20.85 21.15 20.95 21.5 21.05 21.5 20.85 21.45 20.6 21.6 20.5 21.75 20.4 21.7 20.35 21.7 20.25 21.4 20.25 21.15 20.2 21.05 20.1 20.95 20.0 20.9 19.85 20.85 19.75 21.0 19.65 21.1 19.55 21.35 19.55 21.55 19.55 21.8 19.6 22.05 19.7 22.25 19.7 22.5 19.75 22.6 19.7 22.7 19.65 22.6 19.45 22.5 19.2 22.25 19.05 22.0 18.95 22.05 18.8 22.1 18.65 22.2 18.55 22.3 18.45 22.45 18.45 22.6 18.4 22.7 18.45 22.85 18.55 22.85 18.6 22.9 18.7 23.2 18.8 23.5 18.95 23.5 19.05 23.45 19.1 23.6 19.15 23.75 19.25 23.9 19.35 24.05 19.5 24.2 19.2 24.4 18.95 24.35 18.75 24.25 18.55 24.05 18.2 23.85 17.85 23.7 17.4 23.55 16.95 23.55 16.65 23.55 16.4 23.6 16.15 23.7 15.9 23.65 15.8 23.65 15.7 23.5 15.65 23.35 15.6 23.3 15.45 23.25 15.35 23.35 15.25 23.5 15.1 23.5 15.0 23.55 14.9 23.75 14.9 24.0 14.9 24.35 15.05 24.7 15.25 24.95 15.3 25.25 15.3 25.65 15.4 26.05 15.5 26.25 15.6 26.4 15.75 26.55 15.7 26.65 15.7 26.8 15.55 26.95 15.4 27.3 15.2 27.6 15.05 27.95 14.75 28.3 14.5 28.65 14.35 29.05 14.15 29.05 14.05 29.05 13.95 29.2 13.85 29.35 13.75 29.6 13.75 29.8 13.75 30.05 13.75 30.3 13.75 30.4 13.85 30.5 14.0 30.6 14.2 30.7 14.45 30.55 14.6 30.45 14.75 30.25 14.85 30.0 14.9 29.8 14.9 29.55 14.9 29.45 14.9 29.35 14.9 29.1 15.1 28.85 15.3 28.85 15.35 28.85 15.4 28.65 15.6 28.4 15.75 28.35 15.75 28.25 15.75 27.9 16.1 27.55 16.45 27.55 16.55 27.55 16.65 27.65 16.65 27.75 16.7 27.9 16.9 28.05 17.1 27.95 17.2 27.85 17.3 27.4 17.35 27.0 17.35 26.9 17.5 26.8 17.65 26.75 17.65 26.7 17.7 26.65 17.85 26.55 18.05 26.65 18.1 26.7 18.15 26.55 18.3 26.45 18.5 26.55 18.75 26.65 19.0 26.75 19.0 26.8 19.0 27.4 18.75 28.0 18.45 28.05 18.35 28.15 18.25 28.2 18.1 28.25 17.95 28.45 17.8 28.65 17.65 28.8 17.7 29.0 17.75 28.95 17.85 28.9 17.95 28.95 18.1 29.0 18.2 28.85 18.45 28.65 18.7 28.3 18.95 27.9 19.2 27.9 19.25 27.85 19.3 27.6 19.35 27.4 19.45 27.4 19.55 27.4 19.65 27.8 19.55 28.2 19.5 28.45 19.4 28.65 19.3 28.8 19.2 29.0 19.1 29.25 19.0 29.45 18.95 29.7 19.05 29.9 19.1 29.9 19.2 29.95 19.3 30.2 19.45 30.45 19.55 30.75 19.5 31.1 19.4 31.45 19.25 31.75 19.1 32.0 18.9 32.25 18.7 32.2 18.6 32.15 18.5 32.25 18.3 32.35 18.05 32.55 18.0 32.75 18.0 32.95 18.15 33.15 18.3 33.1 18.45 33.1 18.6 33.2 18.55 33.35 18.5 33.6 18.35 33.9 18.15 34.1 18.15 34.3 18.1 34.35 18.05 34.4 17.95 34.9 17.75 35.45 17.5 35.4 17.45 35.4 17.4 35.75 17.1 36.05 16.75 36.15 16.75 36.25 16.7 36.35 16.65 36.45 16.55 36.9 16.45 37.4 16.4 37.75 16.45 38.15 16.5 38.25 16.55 38.35 16.65 38.45 16.9 38.55 17.15 38.6 17.15 38.7 17.2 38.85 17.1 39.05 17.0 39.55 16.8 40.05 16.65 40.2 16.5 40.3 16.4 40.75 16.35 41.2 16.35 41.45 16.4 41.7 16.45 41.75 16.6 41.8 16.75 41.6 16.8 41.4 16.9 40.95 16.95 40.5 17.0 40.5 17.1 40.45 17.15 40.15 17.25 39.9 17.35 39.75 17.5 39.6 17.6 38.9 17.7 38.2 17.85 38.0 17.85 37.85 17.85 37.45 18.0 37.05 18.15 37.0 18.2 36.9 18.25 36.8 18.25 36.65 18.3 36.5 18.4 36.3 18.55 36.15 18.55 36.0 18.6 36.0 18.65 35.95 18.75 35.8 18.8 35.6 18.85 35.35 19.05 35.1 19.2 35.1 19.35 35.15 19.5 35.1 19.6 35.05 19.7 35.25 19.7 35.4 19.7 35.7 19.75 36.0 19.85 36.6 19.8 37.15 19.75 37.2 19.8 37.3 19.8 37.4 19.8 37.55 19.8 37.8 19.6 38.05 19.4 38.35 19.4 38.65 19.35 38.8 19.4 38.95 19.45 38.95 19.65 38.95 19.9 39.2 19.85 39.4 19.75 39.75 19.55 40.1 19.35 40.3 19.3 40.45 19.2 40.85 18.95 41.25 18.7 41.5 18.45 41.75 18.25 42.0 18.15 42.3 18.1 42.4 18.1 42.5 18.1 42.55 18.3 42.6 18.45 42.4 18.6 42.25 18.75 41.85 19.0 41.45 19.25 41.1 19.35 40.75 19.5 40.55 19.6 40.4 19.7 40.3 19.7 40.2 19.7 40.1 19.8 40.0 19.9 40.0 19.95 40.0 20.0 40.25 19.95 40.45 19.9 41.1 19.85 41.75 19.75 41.85 19.8 42.0 19.8 42.0 19.9 42.05 20.05 42.0 20.1 41.9 20.15 41.55 20.2 41.2 20.2 40.85 20.45 40.5 20.65 40.4 20.8 40.25 21.0 40.1 21.15 39.95 21.25 40.0 21.35 40.0 21.45 40.25 21.45 40.5 21.5 41.05 21.45 41.65 21.4 42.25 21.3 42.8 21.25 43.5 21.1 44.15 20.95 44.5 20.9 44.8 20.85 45.1 20.85 45.4 20.85 45.4 21.0 45.4 21.15 45.3 21.25 45.2 21.35 44.65 21.45 44.05 21.55 44.05 21.55 44.05 21.55 M21.5 21.2 L21.45 21.1 21.35 21.15 21.25 21.25 21.25 21.3 21.3 21.35 21.4 21.3 21.55 21.3 21.5 21.2 M42.9 19.65 L42.9 19.6 42.95 19.55 43.05 19.55 43.0 19.5 43.0 19.4 43.1 19.35 43.25 19.25 43.3 19.15 43.3 19.05 43.45 19.0 43.55 18.95 43.75 19.05 43.95 19.1 43.9 19.25 43.85 19.35 43.8 19.35 43.7 19.35 43.5 19.5 43.3 19.65 43.1 19.7 42.95 19.75 42.9 19.65 42.9 19.65 M20.25 19.65 L20.0 19.55 20.0 19.4 20.0 19.3 20.1 19.15 20.2 19.05 20.5 19.05 20.8 19.0 20.95 19.05 21.05 19.1 21.1 19.15 21.15 19.25 20.9 19.5 20.65 19.7 20.6 19.7 20.55 19.7 20.25 19.65 M30.15 18.1 L29.9 18.0 29.9 17.9 29.85 17.8 30.15 17.55 30.45 17.3 30.55 17.25 30.65 17.25 30.9 17.3 31.1 17.35 31.25 17.45 31.35 17.55 31.3 17.7 31.2 17.85 30.95 18.0 30.7 18.15 30.55 18.2 30.35 18.2 30.15 18.1 30.15 18.1 M18.95 19.65 L18.85 19.55 18.8 19.45 18.8 19.35 18.35 18.95 17.95 18.6 17.85 18.5 17.75 18.4 17.85 18.35 17.95 18.35 18.2 18.45 18.4 18.5 18.5 18.65 18.65 18.75 18.7 18.75 18.75 18.7 18.95 18.75 19.15 18.85 19.25 19.05 19.35 19.3 19.45 19.45 19.6 19.55 19.45 19.65 19.3 19.75 19.2 19.75 19.1 19.75 18.95 19.65 18.95 19.65 M44.05 16.0 L43.85 16.0 43.75 15.9 43.6 15.85 43.55 15.65 43.5 15.5 43.55 15.45 43.65 15.4 43.9 15.35 44.15 15.3 44.4 15.45 44.65 15.55 44.7 15.65 44.75 15.8 44.7 15.85 44.65 15.9 44.45 15.95 44.25 16.0 44.05 16.0 44.05 16.0 M21.5 18.05 L21.15 17.85 21.1 17.75 21.1 17.65 20.95 17.65 20.8 17.6 20.65 17.45 20.5 17.25 20.5 17.1 20.5 16.95 20.7 16.9 20.95 16.85 21.25 16.95 21.55 17.05 21.6 17.1 21.6 17.2 21.95 17.45 22.25 17.7 22.3 17.85 22.35 17.95 22.15 18.05 21.95 18.15 21.9 18.2 21.85 18.2 21.5 18.05 21.5 18.05 M29.7 16.4 L29.35 16.3 29.35 16.2 29.3 16.15 29.45 16.05 29.6 15.95 29.85 15.95 30.15 16.0 30.25 16.15 30.35 16.25 30.25 16.35 30.15 16.45 30.05 16.5 30.0 16.5 29.7 16.4 M16.75 18.3 L16.65 18.25 16.6 18.1 16.55 17.95 16.65 17.85 16.8 17.8 17.0 17.9 17.2 18.0 17.25 18.1 17.25 18.2 17.15 18.25 17.0 18.3 16.9 18.3 16.8 18.3 16.75 18.3 M32.15 15.0 L31.9 14.9 31.85 14.85 31.85 14.75 31.95 14.7 32.0 14.65 32.2 14.65 32.4 14.65 32.6 14.75 32.85 14.85 32.8 15.0 32.75 15.1 32.6 15.1 32.45 15.15 32.15 15.0 M13.75 16.35 L13.7 16.25 13.6 16.2 13.45 16.15 13.5 16.05 13.5 15.95 13.6 15.95 13.7 15.9 13.95 16.0 14.2 16.1 14.1 16.25 14.05 16.35 13.9 16.4 13.75 16.4 13.75 16.35 M22.7 14.7 L22.55 14.65 22.55 14.45 22.55 14.25 22.65 14.2 22.7 14.15 23.0 14.2 23.3 14.25 23.3 14.3 23.3 14.35 23.25 14.5 23.2 14.65 23.15 14.7 23.05 14.75 22.95 14.75 22.85 14.75 22.7 14.7 M26.3 14.1 L26.1 13.95 26.25 13.75 26.35 13.55 26.55 13.5 26.75 13.45 26.85 13.5 27.0 13.55 27.15 13.7 27.35 13.85 27.3 13.95 27.25 14.0 26.95 14.1 26.65 14.15 26.55 14.2 26.45 14.2 26.3 14.1" fill="#cbacac" fill-rule="evenodd" stroke="none"/>
    <path d="M42.75 21.7 L42.75 21.7 42.3 21.75 41.85 21.75 41.1 21.8 40.4 21.85 39.9 21.9 39.45 22.0 39.3 21.95 39.1 21.9 38.6 21.95 38.05 22.05 36.8 22.15 35.55 22.25 34.2 22.3 32.85 22.4 30.7 22.4 28.6 22.45 27.15 22.45 25.65 22.5 24.7 22.45 23.7 22.45 23.1 22.25 22.5 22.0 22.35 22.05 22.2 22.1 21.8 22.1 21.4 22.05 21.25 22.1 21.1 22.1 20.95 22.05 20.8 22.0 20.15 21.95 19.5 21.95 18.6 21.8 17.75 21.65 17.7 21.55 17.65 21.45 17.55 21.45 17.45 21.4 17.25 21.5 17.1 21.55 16.75 21.45 16.4 21.3 16.35 21.25 16.35 21.25 16.15 21.2 15.9 21.15 15.6 21.05 15.3 20.95 14.85 20.85 14.45 20.75 14.1 20.65 13.75 20.5 13.8 20.45 13.9 20.4 14.7 20.6 15.5 20.8 15.7 20.85 15.9 20.9 15.2 20.65 14.45 20.4 14.15 20.35 13.9 20.25 13.6 20.15 13.3 20.1 12.85 19.95 12.45 19.8 12.25 19.75 12.05 19.7 11.8 19.55 11.5 19.45 11.4 19.25 11.25 19.1 11.4 18.95 11.55 18.8 11.75 18.75 11.95 18.7 12.35 18.7 12.8 18.7 13.2 18.85 13.6 19.0 13.7 18.9 13.75 18.85 13.8 18.65 13.8 18.5 13.7 18.1 13.6 17.75 13.7 17.5 13.85 17.25 14.0 17.2 14.15 17.15 14.2 17.2 14.3 17.2 14.35 17.25 14.35 17.35 14.45 17.35 14.55 17.3 14.6 17.55 14.65 17.8 14.5 18.15 14.35 18.45 14.35 18.8 14.4 19.1 14.55 19.25 14.75 19.45 14.95 19.55 15.1 19.6 15.15 19.7 15.2 19.8 15.45 19.9 15.7 20.0 15.9 20.2 16.15 20.35 16.4 20.45 16.7 20.6 16.8 20.4 16.85 20.25 16.75 20.0 16.65 19.75 16.35 19.3 16.05 18.85 16.15 18.8 16.2 18.7 16.3 18.7 16.4 18.7 16.5 18.75 16.6 18.85 16.7 19.1 16.8 19.4 16.95 19.55 17.05 19.7 17.45 20.15 17.85 20.65 18.1 20.8 18.35 21.0 18.65 21.0 18.9 20.95 19.1 21.1 19.3 21.2 19.5 21.25 19.75 21.25 19.75 21.35 19.75 21.45 20.35 21.45 20.9 21.45 21.25 21.35 21.6 21.3 21.6 21.0 21.55 20.65 21.65 20.55 21.75 20.4 21.85 20.4 22.0 20.35 22.0 20.3 21.95 20.3 21.6 20.2 21.3 20.15 21.15 20.1 21.05 20.0 21.0 19.9 20.95 19.75 21.05 19.7 21.15 19.65 21.35 19.6 21.55 19.55 21.95 19.7 22.4 19.8 22.65 19.75 22.85 19.7 22.8 19.6 22.75 19.55 22.65 19.35 22.6 19.15 22.4 19.1 22.2 19.0 22.15 18.9 22.1 18.75 22.15 18.65 22.2 18.55 22.35 18.55 22.45 18.5 22.6 18.5 22.7 18.5 22.75 18.6 22.8 18.7 23.05 18.8 23.35 18.95 23.35 19.05 23.4 19.15 23.6 19.25 23.75 19.3 23.8 19.5 23.9 19.65 23.95 19.65 24.0 19.6 24.2 19.35 24.45 19.1 24.45 18.8 24.45 18.55 24.3 18.4 24.15 18.25 23.85 17.5 23.55 16.75 23.65 16.5 23.7 16.2 23.75 16.0 23.8 15.85 23.65 15.7 23.5 15.55 23.4 15.45 23.3 15.35 23.5 15.2 23.7 15.05 23.8 15.05 23.9 15.0 24.2 15.1 24.5 15.2 24.55 15.25 24.55 15.35 24.9 15.35 25.25 15.35 25.6 15.4 25.95 15.5 26.1 15.65 26.3 15.75 26.5 15.75 26.7 15.75 26.85 15.6 27.0 15.45 27.3 15.25 27.65 15.1 27.95 14.85 28.25 14.55 28.5 14.45 28.7 14.35 28.9 14.3 29.1 14.25 29.15 14.05 29.25 13.9 29.55 13.8 29.9 13.75 30.1 13.8 30.25 13.85 30.4 14.05 30.55 14.2 30.6 14.3 30.65 14.4 30.4 14.6 30.2 14.8 29.8 14.8 29.35 14.85 29.1 15.05 28.8 15.2 28.75 15.35 28.75 15.5 28.4 15.65 28.05 15.8 28.05 15.85 28.1 15.9 27.8 16.15 27.55 16.35 27.45 16.5 27.4 16.65 27.6 16.7 27.75 16.75 27.85 16.95 27.9 17.15 27.8 17.2 27.75 17.25 27.4 17.25 27.05 17.25 26.95 17.3 26.85 17.35 26.75 17.5 26.65 17.7 26.6 17.85 26.5 18.0 26.55 18.1 26.6 18.15 26.5 18.35 26.4 18.6 26.45 18.75 26.5 18.95 26.65 19.0 26.8 19.05 27.4 18.8 28.0 18.5 28.15 18.35 28.3 18.2 28.3 18.1 28.25 18.05 28.4 17.9 28.5 17.75 28.7 17.75 28.85 17.7 28.9 18.0 28.9 18.25 28.7 18.5 28.45 18.75 28.05 19.05 27.7 19.3 27.45 19.35 27.25 19.4 27.3 19.55 27.4 19.7 27.8 19.6 28.25 19.55 28.8 19.3 29.35 19.0 29.6 19.1 29.8 19.15 29.85 19.25 29.85 19.3 30.15 19.45 30.4 19.65 30.7 19.55 31.05 19.5 31.4 19.3 31.75 19.15 31.95 19.0 32.2 18.85 32.25 18.5 32.3 18.15 32.4 18.1 32.5 18.05 32.75 18.1 33.0 18.15 33.05 18.25 33.1 18.4 33.05 18.5 33.0 18.6 33.05 18.65 33.1 18.65 33.55 18.45 34.0 18.2 34.15 18.2 34.3 18.15 34.4 18.1 34.5 18.0 34.95 17.75 35.45 17.55 35.5 17.4 35.6 17.25 35.9 17.0 36.2 16.8 36.3 16.75 36.35 16.75 36.45 16.65 36.55 16.6 36.75 16.55 36.95 16.5 37.4 16.5 37.85 16.5 38.05 16.55 38.2 16.65 38.35 16.95 38.45 17.2 38.6 17.25 38.75 17.25 38.95 17.15 39.15 17.0 39.6 16.85 40.05 16.65 40.2 16.55 40.4 16.45 40.75 16.4 41.1 16.4 41.35 16.45 41.65 16.5 41.7 16.6 41.75 16.75 41.55 16.8 41.35 16.85 40.95 16.9 40.5 16.95 40.45 17.05 40.35 17.15 40.1 17.2 39.9 17.25 39.7 17.4 39.5 17.55 38.85 17.65 38.2 17.8 38.0 17.8 37.8 17.75 37.15 18.05 36.5 18.35 36.45 18.4 36.4 18.45 36.15 18.5 35.9 18.55 35.9 18.6 35.95 18.65 35.5 18.9 35.05 19.2 35.0 19.45 34.95 19.7 35.0 19.75 35.05 19.8 35.2 19.75 35.4 19.75 35.6 19.8 35.8 19.85 36.1 19.85 36.45 19.9 36.8 19.85 37.15 19.8 37.25 19.85 37.3 19.85 37.5 19.85 37.7 19.8 37.85 19.65 38.05 19.45 38.25 19.4 38.5 19.4 38.65 19.45 38.85 19.5 38.9 19.6 38.95 19.75 38.8 19.8 38.7 19.85 38.8 19.9 38.95 19.95 39.15 19.85 39.35 19.8 39.7 19.6 40.1 19.4 40.3 19.3 40.5 19.2 40.6 19.15 40.7 19.1 41.05 18.85 41.4 18.6 41.55 18.45 41.75 18.25 42.05 18.2 42.4 18.1 42.45 18.3 42.55 18.45 42.35 18.65 42.15 18.8 41.95 18.95 41.75 19.05 41.5 19.2 41.2 19.3 41.0 19.4 40.85 19.45 40.45 19.65 40.05 19.8 39.95 19.9 39.85 20.0 39.95 20.0 40.1 20.0 40.9 19.9 41.75 19.8 41.85 19.8 41.95 19.85 41.95 19.95 41.95 20.1 41.6 20.15 41.3 20.2 41.0 20.3 40.75 20.45 40.5 20.6 40.3 20.8 40.3 20.85 40.35 20.9 40.1 21.1 39.85 21.3 39.9 21.35 39.9 21.4 40.15 21.45 40.35 21.5 41.1 21.45 41.8 21.4 42.75 21.25 43.65 21.05 44.4 20.95 45.15 20.85 45.25 21.0 45.35 21.2 45.25 21.3 45.1 21.35 43.95 21.55 42.8 21.7 42.75 21.7 M42.9 19.65 L42.9 19.6 43.1 19.4 43.35 19.2 43.35 19.15 43.3 19.05 43.4 19.05 43.5 19.0 43.65 19.0 43.85 19.05 43.85 19.1 43.9 19.2 43.55 19.45 43.25 19.7 43.1 19.7 42.95 19.75 42.9 19.65 42.9 19.65 M20.65 21.2 L20.5 21.15 20.5 21.05 20.5 20.95 20.65 20.9 20.85 20.9 21.05 20.95 21.25 21.05 21.25 21.1 21.3 21.2 21.05 21.25 20.85 21.3 20.65 21.2 M20.25 19.55 L20.05 19.5 20.1 19.4 20.1 19.3 20.2 19.2 20.35 19.05 20.6 19.05 20.85 19.1 20.9 19.2 21.0 19.3 20.85 19.45 20.7 19.6 20.55 19.6 20.4 19.65 20.25 19.55 M30.2 18.05 L30.0 17.95 29.95 17.9 29.95 17.85 30.2 17.6 30.5 17.35 30.55 17.3 30.65 17.3 30.95 17.4 31.25 17.5 31.2 17.7 31.1 17.85 30.9 18.0 30.7 18.1 30.55 18.15 30.35 18.15 30.2 18.05 M19.1 19.65 L18.95 19.65 18.9 19.5 18.85 19.35 18.65 19.15 18.45 18.95 18.3 18.9 18.2 18.8 18.0 18.6 17.8 18.4 17.8 18.4 17.8 18.4 17.9 18.35 18.0 18.35 18.25 18.5 18.5 18.6 18.55 18.7 18.65 18.75 18.75 18.75 18.9 18.75 18.95 18.8 19.05 18.85 19.2 19.1 19.35 19.35 19.45 19.45 19.55 19.55 19.4 19.6 19.3 19.7 19.1 19.65 19.1 19.65 M44.0 15.95 L43.8 15.9 43.7 15.75 43.6 15.55 43.65 15.5 43.75 15.4 43.85 15.4 44.0 15.35 44.3 15.5 44.6 15.6 44.65 15.7 44.7 15.8 44.5 15.9 44.3 16.0 44.2 16.0 44.15 16.0 44.0 15.95 M21.65 18.1 L21.45 18.0 21.3 17.85 21.1 17.75 20.9 17.55 20.7 17.4 20.65 17.2 20.55 17.0 20.65 17.0 20.75 16.95 21.0 16.95 21.25 17.0 21.35 17.05 21.5 17.15 21.9 17.5 22.3 17.9 22.15 18.0 22.0 18.15 21.9 18.15 21.85 18.15 21.65 18.1 21.65 18.1 M16.8 18.25 L16.7 18.2 16.65 18.1 16.6 18.0 16.7 17.9 16.8 17.85 16.95 17.9 17.1 17.95 17.1 18.1 17.15 18.25 17.0 18.25 16.9 18.3 16.8 18.25 M29.65 16.35 L29.45 16.25 29.45 16.2 29.4 16.1 29.55 16.05 29.7 16.0 29.95 16.05 30.2 16.1 30.2 16.2 30.25 16.35 30.05 16.35 29.9 16.4 29.65 16.35 M32.2 15.0 L31.9 14.9 31.9 14.8 31.95 14.75 32.15 14.7 32.3 14.7 32.55 14.8 32.75 14.9 32.7 14.95 32.65 15.05 32.55 15.05 32.5 15.05 32.2 15.0 M13.7 16.3 L13.6 16.2 13.55 16.1 13.5 16.0 13.6 15.95 13.65 15.9 13.85 16.0 14.05 16.05 14.1 16.1 14.1 16.15 14.05 16.25 14.0 16.4 13.9 16.4 13.85 16.4 13.7 16.3 M22.75 14.6 L22.65 14.55 22.65 14.45 22.65 14.35 22.8 14.3 22.9 14.25 23.05 14.25 23.2 14.3 23.15 14.45 23.15 14.6 22.95 14.65 22.8 14.65 22.75 14.6 M26.45 14.1 L26.3 14.05 26.3 14.0 26.25 13.95 26.35 13.75 26.45 13.6 26.55 13.55 26.65 13.5 26.85 13.6 27.05 13.65 27.15 13.75 27.25 13.9 27.15 13.95 27.05 14.0 26.8 14.05 26.55 14.15 26.45 14.1" fill="#b78b8b" fill-rule="evenodd" stroke="none"/>
    <path d="M42.45 21.7 L41.95 21.75 41.2 21.8 40.45 21.85 39.95 21.9 39.4 22.0 39.25 21.9 39.15 21.8 38.7 21.9 38.25 22.0 37.25 22.1 36.25 22.2 34.8 22.25 33.35 22.35 31.6 22.4 29.85 22.45 28.1 22.45 26.4 22.5 25.4 22.45 24.4 22.45 24.05 22.45 23.65 22.4 23.1 22.2 22.55 22.0 22.2 22.05 21.9 22.1 21.65 22.05 21.4 22.05 21.2 22.05 21.0 22.1 20.85 22.05 20.7 22.0 20.1 21.95 19.5 21.9 18.6 21.75 17.75 21.6 17.75 21.55 17.7 21.5 17.7 21.45 17.65 21.4 17.3 21.45 16.95 21.5 16.35 21.25 15.7 21.05 14.9 20.85 14.15 20.65 13.95 20.6 13.75 20.5 13.8 20.45 13.85 20.4 14.8 20.65 15.7 20.85 15.8 20.85 15.85 20.9 15.85 20.85 15.85 20.85 15.6 20.75 15.35 20.65 14.75 20.5 14.1 20.3 13.9 20.25 13.75 20.15 13.7 20.2 13.65 20.2 13.5 20.15 13.35 20.1 12.7 19.9 12.05 19.7 11.8 19.55 11.5 19.4 11.4 19.25 11.25 19.05 11.55 18.9 11.85 18.7 12.2 18.7 12.5 18.7 12.75 18.7 13.0 18.75 13.3 18.85 13.55 19.0 13.65 18.95 13.7 18.9 13.75 18.75 13.85 18.55 13.75 18.3 13.65 18.0 13.7 17.7 13.75 17.45 13.85 17.3 14.0 17.2 14.15 17.2 14.3 17.2 14.45 17.3 14.6 17.45 14.65 17.55 14.65 17.7 14.5 18.05 14.35 18.45 14.35 18.75 14.4 19.05 14.55 19.25 14.75 19.45 14.95 19.55 15.1 19.6 15.15 19.7 15.2 19.85 15.4 19.9 15.6 20.0 15.85 20.15 16.1 20.35 16.4 20.45 16.65 20.55 16.7 20.55 16.75 20.55 16.8 20.4 16.85 20.2 16.75 19.95 16.65 19.7 16.55 19.55 16.4 19.4 16.25 19.1 16.05 18.85 16.2 18.75 16.35 18.7 16.45 18.8 16.6 18.85 16.75 19.2 16.9 19.55 17.05 19.7 17.2 19.85 17.45 20.2 17.7 20.5 17.95 20.7 18.2 20.95 18.35 21.0 18.5 21.05 18.65 21.0 18.8 20.95 19.05 21.1 19.3 21.25 19.5 21.25 19.75 21.25 19.75 21.35 19.75 21.45 20.2 21.45 20.65 21.45 21.15 21.4 21.6 21.35 21.65 21.15 21.65 20.9 21.6 20.9 21.55 20.85 21.6 20.8 21.7 20.75 21.65 20.65 21.6 20.55 21.85 20.45 22.05 20.35 22.05 20.3 22.05 20.3 21.6 20.2 21.15 20.1 21.1 19.9 21.05 19.75 21.15 19.7 21.2 19.6 21.35 19.6 21.5 19.6 21.65 19.65 21.75 19.7 22.2 19.75 22.6 19.85 22.8 19.75 23.0 19.65 22.9 19.6 22.8 19.5 22.7 19.3 22.6 19.15 22.4 19.05 22.15 18.95 22.2 18.85 22.2 18.7 22.25 18.6 22.3 18.55 22.5 18.55 22.7 18.5 22.75 18.65 22.85 18.75 23.1 18.85 23.35 18.95 23.4 19.1 23.45 19.25 23.55 19.25 23.65 19.25 23.75 19.45 23.85 19.65 23.95 19.65 24.05 19.7 24.2 19.45 24.35 19.25 24.4 19.15 24.5 19.0 24.4 18.7 24.3 18.35 24.0 17.7 23.7 17.05 23.65 16.75 23.65 16.45 23.75 16.15 23.9 15.85 23.6 15.6 23.3 15.4 23.5 15.25 23.7 15.1 23.8 15.1 23.9 15.05 24.15 15.15 24.4 15.2 24.5 15.3 24.6 15.35 24.95 15.35 25.35 15.4 25.6 15.45 25.85 15.5 26.1 15.7 26.3 15.85 26.5 15.8 26.7 15.75 26.9 15.55 27.15 15.4 27.35 15.25 27.55 15.15 27.95 14.85 28.35 14.55 28.55 14.45 28.8 14.3 28.95 14.3 29.05 14.3 29.2 14.05 29.35 13.85 29.6 13.8 29.85 13.75 30.1 13.85 30.35 13.95 30.5 14.15 30.6 14.4 30.45 14.6 30.25 14.75 29.8 14.8 29.35 14.8 29.1 15.0 28.85 15.2 28.75 15.35 28.65 15.5 28.35 15.65 28.05 15.8 28.05 15.85 28.05 15.9 27.8 16.1 27.5 16.3 27.4 16.5 27.3 16.7 27.35 16.7 27.4 16.75 27.55 16.75 27.65 16.7 27.75 16.8 27.8 16.85 27.85 16.95 27.9 17.1 27.8 17.15 27.7 17.2 27.3 17.25 26.9 17.3 26.65 17.65 26.45 18.0 26.5 18.1 26.55 18.25 26.45 18.35 26.35 18.45 26.4 18.65 26.4 18.85 26.55 18.95 26.65 19.1 26.8 19.05 26.95 19.05 27.1 18.95 27.25 18.9 27.4 18.85 27.5 18.75 27.8 18.6 28.1 18.45 28.15 18.4 28.25 18.3 28.35 18.05 28.45 17.85 28.55 17.8 28.7 17.75 28.75 17.75 28.85 17.75 28.9 18.0 28.9 18.2 28.7 18.45 28.5 18.7 28.05 19.0 27.65 19.3 27.45 19.35 27.2 19.35 27.3 19.5 27.4 19.7 27.9 19.6 28.35 19.55 28.85 19.3 29.3 19.05 29.55 19.15 29.8 19.2 29.9 19.35 30.0 19.45 30.25 19.55 30.55 19.7 30.6 19.6 30.7 19.55 30.95 19.5 31.2 19.45 31.55 19.25 31.95 19.1 32.1 18.9 32.25 18.75 32.25 18.6 32.25 18.5 32.3 18.3 32.35 18.15 32.55 18.1 32.7 18.1 32.85 18.15 33.05 18.2 33.05 18.3 33.1 18.4 33.05 18.5 33.0 18.6 33.05 18.65 33.1 18.7 33.5 18.45 33.9 18.25 34.1 18.25 34.25 18.2 34.35 18.1 34.5 18.0 34.9 17.8 35.35 17.6 35.65 17.35 35.9 17.05 36.3 16.8 36.7 16.55 37.0 16.55 37.35 16.5 37.7 16.55 38.0 16.6 38.1 16.7 38.2 16.75 38.3 17.0 38.35 17.25 38.6 17.25 38.85 17.25 38.95 17.2 39.05 17.1 39.6 16.85 40.15 16.65 40.25 16.55 40.35 16.5 40.8 16.45 41.2 16.45 41.45 16.5 41.65 16.5 41.65 16.6 41.7 16.75 41.5 16.8 41.3 16.85 40.85 16.9 40.4 17.0 40.35 17.05 40.3 17.15 40.05 17.2 39.8 17.25 39.7 17.4 39.6 17.5 38.95 17.6 38.3 17.75 38.25 17.75 38.15 17.75 37.9 17.75 37.65 17.75 36.9 18.15 36.1 18.5 36.0 18.55 35.9 18.55 35.85 18.6 35.85 18.7 35.5 18.85 35.2 19.0 35.05 19.15 34.95 19.3 34.95 19.45 34.95 19.6 34.9 19.65 34.8 19.65 34.85 19.75 34.85 19.8 35.05 19.8 35.25 19.75 35.6 19.85 35.9 19.9 36.1 19.9 36.3 19.85 36.35 19.9 36.4 19.9 36.8 19.85 37.25 19.85 37.3 19.85 37.4 19.9 37.55 19.9 37.65 19.85 37.9 19.65 38.15 19.45 38.35 19.45 38.6 19.45 38.7 19.45 38.85 19.5 38.9 19.6 38.9 19.7 38.65 19.8 38.35 19.9 38.4 19.95 38.5 19.95 38.8 19.95 39.1 19.9 39.4 19.8 39.65 19.65 40.3 19.3 41.0 18.95 41.1 18.85 41.2 18.75 41.5 18.5 41.8 18.25 42.1 18.2 42.4 18.15 42.45 18.3 42.5 18.45 42.35 18.65 42.2 18.8 42.15 18.8 42.05 18.85 41.75 19.05 41.45 19.25 41.4 19.25 41.35 19.25 41.1 19.35 40.9 19.4 40.9 19.4 40.85 19.4 40.4 19.6 40.0 19.85 39.9 19.9 39.8 20.0 40.05 20.05 40.25 20.05 40.95 19.9 41.7 19.8 41.8 19.85 41.95 19.9 41.95 20.0 41.95 20.1 41.55 20.15 41.2 20.2 40.9 20.35 40.65 20.45 40.45 20.65 40.3 20.85 40.05 21.05 39.85 21.3 39.9 21.35 39.95 21.45 40.2 21.5 40.45 21.55 40.85 21.5 41.3 21.45 42.1 21.35 42.9 21.2 43.9 21.05 44.9 20.85 45.05 20.9 45.25 20.9 45.3 21.0 45.3 21.1 45.2 21.25 45.05 21.35 44.05 21.55 43.0 21.7 42.45 21.7 42.45 21.7 M42.95 19.65 L42.9 19.65 43.1 19.4 43.35 19.2 43.35 19.1 43.4 19.05 43.6 19.05 43.8 19.0 43.85 19.15 43.9 19.25 43.85 19.25 43.8 19.25 43.5 19.45 43.25 19.7 43.15 19.7 43.0 19.7 42.95 19.65 M20.95 21.25 L20.75 21.25 20.6 21.15 20.45 21.1 20.55 21.0 20.6 20.95 20.8 20.95 21.0 20.95 21.15 21.05 21.3 21.1 21.2 21.15 21.1 21.25 20.95 21.25 M20.3 19.6 L20.15 19.55 20.15 19.45 20.1 19.35 20.15 19.25 20.25 19.15 20.5 19.1 20.75 19.1 20.85 19.2 20.95 19.3 20.8 19.45 20.65 19.6 20.55 19.6 20.4 19.65 20.3 19.6 M30.3 18.1 L30.15 18.0 30.05 17.95 30.0 17.9 30.25 17.6 30.5 17.35 30.7 17.35 30.95 17.35 31.05 17.45 31.2 17.55 31.1 17.75 31.05 17.9 30.8 18.0 30.6 18.15 30.55 18.15 30.45 18.15 30.3 18.1 M19.0 19.6 L18.95 19.55 18.85 19.4 18.75 19.25 18.3 18.85 17.8 18.45 17.85 18.4 17.9 18.35 18.1 18.45 18.35 18.5 18.5 18.65 18.65 18.75 18.75 18.75 18.85 18.75 19.0 18.85 19.15 18.95 19.2 19.1 19.25 19.3 19.4 19.4 19.55 19.5 19.45 19.55 19.35 19.6 19.2 19.65 19.05 19.65 19.0 19.6 M43.95 15.9 L43.8 15.85 43.75 15.7 43.65 15.6 43.7 15.5 43.75 15.45 43.9 15.45 44.05 15.4 44.35 15.5 44.6 15.65 44.65 15.7 44.65 15.75 44.6 15.85 44.5 15.9 44.25 15.95 44.05 15.95 43.95 15.9 M21.55 18.0 L21.35 17.9 21.25 17.8 21.15 17.65 20.95 17.6 20.8 17.5 20.7 17.3 20.65 17.05 20.7 17.0 20.75 16.95 21.1 17.0 21.45 17.1 21.55 17.2 21.65 17.35 21.75 17.45 21.9 17.5 22.05 17.7 22.25 17.9 22.15 18.0 22.1 18.05 21.95 18.1 21.8 18.1 21.55 18.0 21.55 18.0 M16.8 18.25 L16.75 18.2 16.65 18.1 16.6 18.0 16.7 17.9 16.8 17.85 16.95 17.9 17.1 18.0 17.15 18.1 17.2 18.2 17.05 18.25 16.95 18.3 16.9 18.3 16.85 18.3 16.8 18.25 M29.75 16.35 L29.55 16.3 29.5 16.2 29.5 16.1 29.55 16.05 29.65 16.05 29.8 16.05 30.0 16.05 30.1 16.1 30.25 16.2 30.15 16.3 30.1 16.35 30.05 16.4 30.0 16.4 29.75 16.35 M32.15 14.95 L31.95 14.9 31.95 14.8 32.0 14.75 32.1 14.7 32.25 14.7 32.45 14.8 32.65 14.85 32.7 14.9 32.7 15.0 32.5 15.0 32.3 15.05 32.15 14.95 M13.7 16.25 L13.6 16.2 13.55 16.1 13.5 16.0 13.65 15.95 13.75 15.95 13.9 16.0 14.1 16.05 14.1 16.1 14.1 16.15 14.1 16.25 14.05 16.3 13.95 16.35 13.85 16.35 13.7 16.25 M22.75 14.5 L22.7 14.4 22.8 14.35 22.85 14.3 23.0 14.3 23.1 14.3 23.1 14.45 23.1 14.6 22.95 14.6 22.8 14.6 22.75 14.5 M26.35 14.05 L26.3 13.95 26.4 13.8 26.5 13.65 26.6 13.6 26.7 13.55 26.9 13.65 27.1 13.7 27.1 13.8 27.15 13.9 27.05 13.95 27.0 14.05 26.7 14.05 26.45 14.1 26.35 14.05" fill="#a77171" fill-rule="evenodd" stroke="none"/>
    <path d="M41.95 21.75 L40.65 21.8 40.0 21.9 39.35 21.95 39.25 21.9 39.1 21.85 38.6 21.9 38.15 22.0 36.9 22.1 35.7 22.2 34.55 22.3 33.35 22.35 31.65 22.4 29.9 22.45 27.8 22.45 25.65 22.45 24.7 22.45 23.7 22.4 23.2 22.2 22.65 22.0 22.2 22.05 21.8 22.05 21.5 22.05 21.25 22.0 21.15 22.05 21.1 22.1 20.95 22.0 20.75 21.95 20.35 21.95 19.95 21.9 19.65 21.9 19.4 21.9 18.65 21.75 17.9 21.65 17.8 21.55 17.75 21.45 17.65 21.4 17.6 21.4 17.4 21.4 17.2 21.4 17.05 21.45 16.9 21.45 16.35 21.25 15.8 21.1 15.1 20.9 14.4 20.7 14.35 20.7 14.3 20.65 14.05 20.6 13.75 20.55 13.85 20.5 13.95 20.45 14.35 20.55 14.75 20.6 15.3 20.75 15.9 20.95 16.0 20.9 16.05 20.9 15.7 20.8 15.4 20.65 14.6 20.45 13.8 20.2 13.6 20.15 13.4 20.1 13.0 20.0 12.6 19.85 12.15 19.7 11.65 19.5 11.5 19.35 11.35 19.2 11.4 19.05 11.45 18.95 11.7 18.85 11.9 18.7 12.3 18.7 12.7 18.7 13.15 18.85 13.6 19.0 13.65 18.95 13.7 18.9 13.75 18.75 13.85 18.55 13.75 18.35 13.7 18.1 13.7 17.85 13.7 17.55 13.8 17.4 13.9 17.25 14.05 17.25 14.25 17.2 14.25 17.3 14.3 17.35 14.4 17.35 14.55 17.35 14.6 17.5 14.65 17.65 14.45 18.1 14.25 18.55 14.35 18.9 14.45 19.3 14.8 19.45 15.15 19.65 15.15 19.75 15.2 19.8 15.55 20.0 15.85 20.15 15.9 20.2 15.9 20.25 16.35 20.45 16.75 20.6 16.85 20.45 16.9 20.25 16.8 20.0 16.65 19.7 16.35 19.3 16.05 18.85 16.15 18.8 16.25 18.75 16.35 18.75 16.45 18.75 16.75 19.2 17.0 19.7 17.35 20.1 17.7 20.55 18.05 20.8 18.4 21.1 18.7 21.05 18.95 21.0 19.05 21.1 19.2 21.25 19.35 21.25 19.5 21.25 19.65 21.3 19.75 21.3 19.7 21.4 19.6 21.45 19.85 21.5 20.1 21.5 20.75 21.45 21.45 21.4 21.6 21.4 21.7 21.35 21.7 21.1 21.65 20.85 21.7 20.75 21.75 20.7 21.75 20.6 21.75 20.5 21.95 20.45 22.1 20.4 22.05 20.35 22.05 20.3 21.6 20.15 21.15 20.0 21.1 19.9 21.1 19.75 21.25 19.7 21.35 19.6 21.6 19.65 21.8 19.7 22.25 19.8 22.7 19.85 22.85 19.8 23.0 19.7 22.9 19.55 22.75 19.4 22.7 19.25 22.65 19.05 22.5 19.05 22.3 19.0 22.25 18.9 22.2 18.75 22.2 18.7 22.25 18.6 22.45 18.6 22.65 18.55 22.75 18.65 22.85 18.8 23.05 18.9 23.25 19.0 23.3 19.1 23.35 19.25 23.5 19.3 23.65 19.35 23.75 19.55 23.8 19.75 24.0 19.75 24.15 19.7 24.2 19.55 24.25 19.35 24.4 19.25 24.55 19.15 24.5 18.8 24.5 18.45 24.35 18.3 24.2 18.1 23.9 17.4 23.65 16.75 23.7 16.55 23.75 16.4 23.85 16.15 23.9 15.95 23.85 15.8 23.75 15.7 23.55 15.55 23.4 15.4 23.5 15.3 23.65 15.15 23.85 15.15 24.0 15.1 24.2 15.2 24.45 15.3 24.5 15.35 24.6 15.45 24.75 15.4 24.9 15.4 25.25 15.4 25.6 15.45 25.8 15.6 26.05 15.7 26.05 15.8 26.1 15.85 26.2 15.9 26.3 15.9 26.55 15.8 26.85 15.7 26.9 15.6 26.95 15.5 27.25 15.35 27.5 15.25 27.95 14.9 28.4 14.55 28.65 14.45 28.9 14.35 29.05 14.3 29.2 14.2 29.3 14.05 29.35 13.9 29.65 13.85 29.95 13.8 30.1 13.85 30.25 13.95 30.4 14.15 30.55 14.4 30.4 14.55 30.2 14.7 29.7 14.75 29.25 14.8 29.0 15.05 28.75 15.25 28.55 15.45 28.3 15.65 28.15 15.7 28.0 15.7 28.0 15.75 28.05 15.8 27.85 15.95 27.65 16.15 27.55 16.2 27.4 16.3 27.3 16.5 27.25 16.75 27.45 16.75 27.7 16.75 27.75 16.95 27.85 17.15 27.5 17.2 27.2 17.2 27.0 17.25 26.8 17.3 26.65 17.65 26.45 18.0 26.5 18.1 26.5 18.2 26.45 18.3 26.35 18.4 26.35 18.6 26.3 18.85 26.5 19.0 26.7 19.15 26.8 19.15 26.9 19.1 27.1 19.0 27.35 18.9 27.45 18.8 27.6 18.75 27.9 18.6 28.2 18.45 28.35 18.15 28.5 17.85 28.65 17.8 28.75 17.75 28.85 17.95 28.9 18.15 28.55 18.55 28.2 18.9 27.95 19.05 27.65 19.25 27.4 19.3 27.2 19.35 27.2 19.45 27.2 19.55 27.35 19.65 27.45 19.75 27.8 19.7 28.15 19.65 28.7 19.4 29.3 19.1 29.5 19.15 29.75 19.2 29.75 19.25 29.8 19.35 29.95 19.45 30.1 19.55 30.35 19.65 30.6 19.7 30.7 19.6 30.8 19.5 31.05 19.5 31.25 19.45 31.55 19.3 31.9 19.15 32.1 18.9 32.3 18.7 32.3 18.6 32.25 18.5 32.35 18.3 32.45 18.1 32.5 18.1 32.6 18.1 32.8 18.15 33.0 18.2 33.05 18.3 33.1 18.45 33.05 18.45 32.95 18.5 33.0 18.6 33.05 18.7 33.1 18.7 33.2 18.65 33.55 18.5 33.9 18.3 34.05 18.3 34.2 18.3 34.35 18.15 34.5 18.05 34.9 17.85 35.3 17.65 35.8 17.25 36.25 16.8 36.35 16.8 36.5 16.8 36.55 16.7 36.65 16.6 37.0 16.6 37.35 16.55 37.45 16.6 37.55 16.65 37.7 16.6 37.85 16.6 38.05 16.7 38.2 16.85 38.2 17.05 38.2 17.2 38.3 17.25 38.4 17.3 38.7 17.3 38.95 17.25 39.0 17.2 39.05 17.15 39.65 16.9 40.2 16.65 40.3 16.55 40.4 16.45 40.55 16.5 40.7 16.5 40.95 16.5 41.25 16.45 41.45 16.5 41.65 16.5 41.65 16.6 41.7 16.65 41.55 16.7 41.4 16.8 40.95 16.85 40.5 16.95 40.4 17.0 40.3 17.1 39.95 17.2 39.65 17.3 39.55 17.4 39.5 17.45 39.1 17.55 38.65 17.6 38.5 17.65 38.3 17.75 38.05 17.75 37.8 17.75 37.45 17.85 37.1 18.0 36.9 18.1 36.7 18.25 36.6 18.25 36.55 18.25 36.45 18.35 36.35 18.4 36.15 18.45 35.9 18.5 35.85 18.6 35.8 18.7 35.55 18.8 35.3 18.9 35.1 19.05 34.9 19.25 34.95 19.25 34.95 19.3 34.85 19.55 34.75 19.8 34.85 19.8 35.0 19.85 35.2 19.8 35.35 19.8 35.5 19.85 35.65 19.9 35.95 19.9 36.3 19.9 36.7 19.9 37.15 19.9 37.45 19.85 37.75 19.85 37.9 19.7 38.1 19.5 38.3 19.45 38.5 19.45 38.7 19.5 38.9 19.6 38.85 19.65 38.75 19.75 38.7 19.75 38.65 19.75 38.5 19.8 38.35 19.9 38.4 19.95 38.4 20.0 38.7 20.0 38.95 19.95 39.35 19.8 39.75 19.6 40.1 19.45 40.5 19.25 40.7 19.1 40.9 19.0 41.4 18.6 41.85 18.25 42.1 18.25 42.3 18.2 42.4 18.3 42.45 18.4 42.3 18.6 42.15 18.8 42.05 18.85 42.0 18.85 41.65 19.05 41.35 19.25 41.1 19.35 40.8 19.45 40.45 19.6 40.05 19.8 39.9 19.9 39.8 20.0 39.95 20.05 40.1 20.1 40.55 20.0 41.0 19.9 41.4 19.9 41.85 19.85 41.85 19.95 41.85 20.1 41.6 20.15 41.3 20.15 40.95 20.3 40.65 20.45 40.5 20.6 40.3 20.8 40.1 21.0 39.85 21.25 39.9 21.35 39.95 21.45 40.25 21.5 40.55 21.55 41.85 21.4 43.15 21.2 43.85 21.05 44.5 20.95 44.8 20.9 45.1 20.9 45.2 21.05 45.25 21.15 45.15 21.25 45.1 21.35 44.15 21.5 43.25 21.65 41.95 21.75 M43.7 21.45 L43.55 21.45 43.5 21.5 43.4 21.55 43.6 21.5 43.8 21.45 43.7 21.45 M42.95 19.7 L42.9 19.65 43.15 19.4 43.45 19.15 43.4 19.1 43.4 19.05 43.55 19.05 43.7 19.05 43.8 19.1 43.95 19.2 43.8 19.25 43.7 19.25 43.55 19.4 43.4 19.55 43.25 19.65 43.1 19.7 43.05 19.7 43.0 19.7 42.95 19.7 M20.7 21.15 L20.55 21.1 20.55 21.05 20.55 21.05 20.7 21.0 20.85 20.95 21.05 21.05 21.2 21.1 21.2 21.15 21.25 21.2 21.0 21.2 20.8 21.25 20.7 21.15 M20.25 19.55 L20.2 19.5 20.2 19.4 20.2 19.3 20.25 19.2 20.3 19.15 20.5 19.1 20.65 19.1 20.75 19.2 20.85 19.3 20.8 19.4 20.7 19.55 20.5 19.55 20.3 19.6 20.25 19.55 M30.2 18.05 L30.1 17.95 30.05 17.9 30.05 17.85 30.3 17.6 30.55 17.35 30.8 17.4 31.05 17.45 31.1 17.55 31.15 17.7 30.95 17.85 30.75 18.05 30.55 18.1 30.35 18.1 30.2 18.05 M19.05 19.6 L18.95 19.55 18.9 19.45 18.85 19.3 18.65 19.1 18.4 18.9 18.2 18.75 17.95 18.6 17.9 18.45 17.85 18.35 18.05 18.4 18.25 18.45 18.45 18.65 18.7 18.8 18.75 18.8 18.85 18.75 19.0 18.85 19.15 18.95 19.3 19.3 19.45 19.6 19.3 19.6 19.2 19.65 19.05 19.6 M44.05 15.9 L43.9 15.9 43.8 15.75 43.7 15.6 43.8 15.5 43.9 15.4 44.2 15.5 44.5 15.6 44.55 15.7 44.6 15.8 44.45 15.85 44.35 15.9 44.25 15.95 44.15 15.95 44.05 15.9 44.05 15.9 M21.7 18.05 L21.55 18.0 21.35 17.85 21.15 17.65 21.0 17.55 20.8 17.45 20.75 17.3 20.7 17.15 20.75 17.05 20.8 17.0 20.95 17.0 21.15 17.05 21.3 17.1 21.5 17.15 21.6 17.3 21.65 17.4 21.85 17.55 22.0 17.7 22.15 17.8 22.25 17.9 22.1 18.0 22.0 18.1 21.9 18.1 21.8 18.1 21.7 18.05 21.7 18.05 M16.7 18.1 L16.65 17.95 16.8 17.9 16.9 17.9 17.05 18.0 17.15 18.05 17.15 18.15 17.1 18.2 16.95 18.25 16.75 18.25 16.7 18.1 M29.8 16.35 L29.7 16.3 29.6 16.25 29.5 16.15 29.6 16.1 29.7 16.05 29.9 16.1 30.1 16.1 30.15 16.2 30.2 16.3 30.05 16.35 29.9 16.35 29.8 16.35 29.8 16.35 M32.15 14.95 L31.95 14.85 32.0 14.8 32.05 14.8 32.15 14.75 32.3 14.75 32.45 14.8 32.6 14.9 32.6 14.9 32.6 14.95 32.45 14.95 32.3 15.0 32.15 14.95 M13.7 16.25 L13.55 16.1 13.55 16.05 13.6 16.0 13.65 15.95 13.75 15.95 13.85 16.0 14.0 16.05 14.0 16.2 14.05 16.3 13.95 16.35 13.85 16.35 13.7 16.25 M26.45 14.05 L26.35 13.95 26.45 13.8 26.5 13.65 26.65 13.6 26.75 13.6 26.85 13.65 26.95 13.65 27.05 13.75 27.15 13.85 27.05 13.95 26.9 14.05 26.7 14.05 26.5 14.1 26.45 14.05" fill="#914e4e" fill-rule="evenodd" stroke="none"/>
    <path d="M43.4 21.6 L43.1 21.6 43.1 21.6 43.05 21.55 42.85 21.55 42.65 21.6 42.7 21.65 42.8 21.7 42.4 21.7 42.05 21.7 41.35 21.75 40.65 21.8 40.05 21.9 39.45 21.95 39.3 21.9 39.2 21.8 38.35 21.95 37.5 22.05 36.35 22.15 35.2 22.25 34.35 22.3 33.55 22.35 31.55 22.4 29.55 22.45 29.3 22.45 29.05 22.4 28.15 22.45 27.25 22.45 25.7 22.45 24.15 22.45 23.95 22.4 23.75 22.4 23.2 22.15 22.6 21.95 22.3 22.0 22.0 22.05 21.65 22.0 21.3 21.95 21.15 22.0 21.05 22.0 20.75 21.95 20.5 21.95 20.2 21.9 19.9 21.9 19.75 21.9 19.6 21.9 18.7 21.75 17.85 21.6 17.8 21.55 17.75 21.45 17.65 21.4 17.5 21.35 17.35 21.4 17.2 21.4 16.9 21.35 16.6 21.35 16.1 21.15 15.6 21.0 15.3 20.95 15.05 20.85 14.75 20.8 14.4 20.7 14.15 20.6 13.85 20.5 13.85 20.45 13.9 20.45 14.4 20.55 14.95 20.65 15.05 20.7 15.15 20.75 15.45 20.8 15.75 20.9 15.95 20.9 16.2 20.95 16.1 20.9 16.0 20.85 14.85 20.5 13.65 20.15 13.1 20.0 12.5 19.8 12.25 19.75 12.05 19.65 12.0 19.6 12.0 19.55 11.8 19.5 11.6 19.45 11.6 19.4 11.65 19.4 11.55 19.3 11.4 19.2 11.4 19.1 11.4 19.0 11.65 18.85 11.9 18.75 12.3 18.75 12.75 18.7 13.15 18.85 13.6 19.0 13.65 18.95 13.75 18.9 13.8 18.7 13.9 18.5 13.8 18.4 13.75 18.3 13.75 17.9 13.75 17.5 13.85 17.4 13.9 17.25 14.05 17.25 14.2 17.2 14.35 17.35 14.55 17.5 14.55 17.65 14.55 17.85 14.45 18.0 14.4 18.15 14.3 18.35 14.25 18.5 14.4 18.95 14.55 19.4 14.85 19.5 15.15 19.65 15.15 19.75 15.2 19.8 15.7 20.1 16.2 20.4 16.55 20.55 16.9 20.65 16.9 20.5 16.9 20.35 16.75 19.95 16.6 19.55 16.35 19.25 16.1 18.95 16.2 18.85 16.3 18.8 16.4 18.8 16.5 18.8 16.7 19.2 16.9 19.6 17.3 20.05 17.7 20.5 17.95 20.75 18.25 21.0 18.4 21.05 18.55 21.1 18.75 21.1 18.95 21.05 19.1 21.15 19.2 21.25 19.4 21.25 19.65 21.25 19.65 21.3 19.7 21.35 19.6 21.4 19.55 21.45 19.55 21.45 19.55 21.5 20.15 21.5 20.75 21.5 21.25 21.45 21.75 21.4 21.7 21.3 21.65 21.15 21.8 20.8 21.95 20.45 22.05 20.45 22.15 20.4 22.15 20.35 22.15 20.25 21.7 20.15 21.25 20.0 21.2 19.9 21.2 19.75 21.3 19.7 21.45 19.6 21.7 19.7 22.0 19.8 22.35 19.85 22.7 19.9 22.9 19.8 23.1 19.7 23.05 19.6 23.0 19.5 22.9 19.45 22.8 19.4 22.8 19.2 22.75 19.05 22.9 19.0 23.0 18.95 23.1 19.0 23.2 19.05 23.25 19.15 23.25 19.25 23.4 19.3 23.55 19.35 23.6 19.55 23.65 19.7 23.8 19.75 23.9 19.8 24.15 19.75 24.35 19.65 24.35 19.55 24.3 19.4 24.45 19.25 24.6 19.15 24.6 18.75 24.55 18.35 24.4 18.2 24.2 18.0 23.95 17.35 23.75 16.7 23.8 16.55 23.8 16.4 23.9 16.15 24.0 15.9 23.9 15.8 23.85 15.7 23.65 15.55 23.5 15.45 23.55 15.35 23.6 15.25 23.8 15.2 24.0 15.15 24.2 15.2 24.35 15.3 24.45 15.4 24.5 15.5 24.75 15.45 25.0 15.4 25.25 15.45 25.5 15.45 25.7 15.6 25.85 15.7 25.95 15.85 26.05 16.0 26.15 16.0 26.2 16.0 26.55 15.85 26.9 15.7 26.95 15.65 26.95 15.55 27.35 15.3 27.75 15.1 28.15 14.75 28.6 14.45 28.85 14.4 29.05 14.4 29.3 14.15 29.5 13.95 29.65 13.9 29.8 13.85 30.05 13.95 30.3 14.05 30.3 14.1 30.25 14.15 30.35 14.2 30.45 14.2 30.5 14.3 30.55 14.35 30.35 14.5 30.2 14.65 29.75 14.7 29.35 14.75 29.0 15.0 28.6 15.2 28.65 15.3 28.65 15.35 28.55 15.45 28.45 15.55 28.2 15.6 28.0 15.65 27.9 15.8 27.85 15.95 27.5 16.1 27.2 16.25 27.15 16.5 27.1 16.75 27.2 16.8 27.25 16.9 27.45 16.85 27.65 16.8 27.7 16.95 27.75 17.1 27.6 17.15 27.45 17.15 27.25 17.1 27.05 17.0 27.1 17.05 27.1 17.15 26.9 17.25 26.75 17.3 26.55 17.7 26.4 18.05 26.4 18.15 26.45 18.2 26.35 18.35 26.25 18.45 26.3 18.7 26.35 18.9 26.5 19.05 26.7 19.2 26.85 19.15 26.95 19.15 27.05 19.05 27.2 18.95 27.35 18.95 27.5 18.9 27.5 18.9 27.45 18.85 27.9 18.65 28.3 18.45 28.35 18.3 28.35 18.15 28.5 17.95 28.6 17.8 28.7 17.8 28.8 17.85 28.85 17.95 28.9 18.1 28.55 18.5 28.15 18.9 27.85 19.1 27.5 19.3 27.3 19.3 27.1 19.3 27.2 19.5 27.3 19.75 27.8 19.7 28.3 19.65 28.75 19.4 29.25 19.2 29.45 19.2 29.65 19.2 29.75 19.35 29.9 19.5 30.15 19.65 30.4 19.75 30.55 19.7 30.65 19.7 30.75 19.6 30.85 19.5 30.95 19.55 31.1 19.55 31.4 19.4 31.75 19.25 31.7 19.25 31.7 19.2 31.8 19.2 31.9 19.15 32.1 19.0 32.25 18.85 32.3 18.55 32.35 18.3 32.45 18.2 32.55 18.15 32.75 18.15 32.95 18.15 33.0 18.45 33.05 18.75 33.15 18.75 33.25 18.7 33.55 18.55 33.85 18.4 34.1 18.35 34.3 18.3 34.45 18.15 34.6 18.05 34.8 17.95 35.0 17.9 35.25 17.75 35.45 17.6 35.8 17.3 36.1 17.0 36.4 16.85 36.7 16.75 36.75 16.7 36.8 16.6 37.15 16.65 37.5 16.7 37.65 16.7 37.8 16.7 37.9 16.75 38.0 16.85 38.05 16.85 38.15 16.9 38.05 17.05 38.0 17.2 37.9 17.2 37.8 17.2 37.85 17.25 37.85 17.3 38.15 17.35 38.45 17.35 38.6 17.35 38.75 17.35 38.75 17.45 38.7 17.5 38.5 17.6 38.35 17.7 38.05 17.7 37.75 17.7 37.4 17.85 37.0 18.0 36.8 18.1 36.6 18.25 36.55 18.25 36.45 18.25 36.35 18.35 36.3 18.45 36.1 18.45 35.9 18.5 35.85 18.55 35.85 18.65 35.5 18.8 35.2 18.9 35.05 19.05 34.85 19.2 34.8 19.35 34.75 19.5 34.75 19.55 34.8 19.6 34.65 19.65 34.55 19.65 34.55 19.7 34.55 19.75 34.75 19.8 34.9 19.85 35.15 19.85 35.35 19.85 35.5 19.9 35.6 19.9 36.0 19.95 36.4 19.95 36.85 19.95 37.35 19.9 37.75 19.85 38.1 19.85 38.3 19.95 38.45 20.05 38.75 20.0 39.05 20.0 39.55 19.7 40.05 19.45 40.45 19.25 40.85 19.05 41.25 18.8 41.6 18.55 41.7 18.45 41.75 18.35 41.85 18.3 42.0 18.25 42.2 18.25 42.4 18.3 42.4 18.35 42.45 18.4 42.3 18.5 42.15 18.65 42.2 18.7 42.2 18.75 42.05 18.85 41.85 18.9 41.65 19.05 41.45 19.2 41.3 19.2 41.2 19.25 41.05 19.35 40.9 19.4 40.45 19.6 40.0 19.8 39.85 19.9 39.75 20.05 39.8 20.05 39.9 20.1 40.75 19.95 41.65 19.85 41.75 19.9 41.85 19.9 41.85 20.0 41.8 20.1 41.55 20.15 41.25 20.15 41.0 20.3 40.7 20.4 40.5 20.6 40.25 20.8 40.1 20.95 39.9 21.15 39.85 21.25 39.8 21.35 39.9 21.4 39.95 21.45 40.25 21.5 40.55 21.55 41.7 21.4 42.85 21.25 43.65 21.1 44.5 20.95 44.75 20.95 45.05 20.95 45.1 21.0 45.2 21.05 45.15 21.15 45.15 21.25 45.0 21.3 44.9 21.4 44.3 21.45 43.75 21.55 43.4 21.6 43.4 21.6 M43.8 21.45 L43.65 21.45 43.5 21.5 43.3 21.55 43.65 21.5 43.95 21.45 43.8 21.45 43.8 21.45 M43.05 19.65 L42.95 19.6 43.05 19.5 43.1 19.4 43.3 19.35 43.5 19.3 43.45 19.2 43.4 19.1 43.45 19.1 43.5 19.05 43.6 19.05 43.75 19.05 43.8 19.15 43.8 19.25 43.65 19.3 43.5 19.35 43.5 19.4 43.55 19.45 43.3 19.55 43.1 19.7 43.05 19.65 M38.15 19.8 L38.05 19.75 38.0 19.7 38.0 19.6 38.15 19.55 38.3 19.45 38.55 19.5 38.75 19.55 38.8 19.65 38.85 19.7 38.65 19.7 38.5 19.75 38.4 19.8 38.3 19.85 38.15 19.8 M20.75 21.15 L20.75 21.1 20.85 21.1 20.9 21.1 20.95 21.15 20.95 21.15 20.85 21.2 20.8 21.2 20.75 21.15 M39.05 17.4 L39.05 17.4 39.1 17.25 39.15 17.15 39.65 16.95 40.15 16.7 40.3 16.6 40.4 16.5 40.7 16.55 41.0 16.55 41.1 16.55 41.15 16.5 41.35 16.5 41.55 16.55 41.6 16.6 41.6 16.7 41.0 16.8 40.45 16.9 40.35 17.0 40.2 17.1 39.9 17.15 39.6 17.2 39.55 17.3 39.45 17.4 39.25 17.4 39.05 17.45 39.05 17.4 M20.3 19.5 L20.2 19.45 20.25 19.3 20.3 19.2 20.45 19.15 20.65 19.15 20.7 19.3 20.75 19.4 20.6 19.5 20.45 19.55 20.4 19.6 20.35 19.6 20.3 19.5 M30.3 18.0 L30.15 17.95 30.15 17.85 30.1 17.8 30.25 17.7 30.4 17.65 30.4 17.6 30.35 17.5 30.5 17.45 30.7 17.4 30.85 17.45 30.95 17.5 31.0 17.6 31.05 17.7 30.85 17.9 30.65 18.05 30.55 18.1 30.4 18.1 30.3 18.0 M19.15 19.6 L19.0 19.6 18.95 19.5 18.9 19.35 18.7 19.15 18.5 18.9 18.35 18.85 18.25 18.8 18.05 18.65 17.9 18.45 17.9 18.4 17.95 18.4 18.1 18.45 18.25 18.45 18.4 18.65 18.55 18.8 18.8 18.8 19.0 18.8 19.05 18.9 19.1 19.05 19.2 19.15 19.25 19.3 19.35 19.4 19.45 19.5 19.35 19.55 19.25 19.65 19.15 19.6 M22.35 18.95 L22.25 18.9 22.25 18.8 22.25 18.65 22.4 18.6 22.5 18.55 22.55 18.6 22.65 18.6 22.75 18.7 22.85 18.85 22.7 18.95 22.6 19.0 22.55 19.0 22.5 19.05 22.35 18.95 22.35 18.95 M43.95 15.85 L43.85 15.85 43.85 15.65 43.85 15.5 43.9 15.45 44.0 15.45 44.25 15.55 44.55 15.65 44.5 15.75 44.5 15.85 44.25 15.9 44.0 15.9 43.95 15.85 M21.65 18.0 L21.45 17.9 21.3 17.75 21.1 17.6 21.0 17.55 20.95 17.5 20.85 17.3 20.8 17.15 20.9 17.1 21.05 17.05 21.2 17.1 21.4 17.2 21.75 17.55 22.15 17.85 22.15 17.9 22.15 17.95 22.0 18.0 21.85 18.1 21.65 18.0 M16.7 18.15 L16.65 18.0 16.75 17.95 16.85 17.9 17.0 17.95 17.15 18.05 17.15 18.1 17.15 18.2 16.95 18.25 16.75 18.3 16.7 18.15 M29.8 16.3 L29.6 16.25 29.6 16.15 29.55 16.1 29.7 16.1 29.8 16.05 30.0 16.15 30.15 16.2 30.1 16.25 30.1 16.3 30.0 16.35 29.95 16.35 29.8 16.3 M32.25 14.95 L32.2 14.85 32.3 14.85 32.4 14.85 32.4 14.9 32.4 14.9 32.35 14.95 32.3 15.0 32.25 14.95 M13.75 16.3 L13.7 16.25 13.65 16.15 13.6 16.05 13.75 16.05 13.9 16.0 13.95 16.15 14.05 16.3 13.95 16.35 13.85 16.35 13.75 16.3 M26.45 14.0 L26.4 14.0 26.5 13.85 26.55 13.7 26.75 13.65 26.95 13.65 27.0 13.8 27.05 13.95 26.8 14.0 26.55 14.05 26.45 14.0" fill="#833737" fill-rule="evenodd" stroke="none"/>
    <path d="M44.0 21.45 L44.0 21.4 43.25 21.5 42.5 21.6 42.5 21.7 42.5 21.75 42.45 21.7 42.35 21.65 41.8 21.7 41.25 21.8 41.0 21.8 40.8 21.8 40.7 21.8 40.6 21.8 40.1 21.85 39.6 21.9 39.25 21.85 38.9 21.8 38.3 21.95 37.7 22.05 36.5 22.15 35.25 22.2 34.25 22.25 33.25 22.3 32.15 22.35 31.05 22.4 30.45 22.4 29.8 22.4 29.2 22.4 28.6 22.4 28.25 22.45 27.85 22.45 27.05 22.45 26.2 22.45 25.25 22.45 24.3 22.4 24.1 22.4 23.85 22.4 23.25 22.15 22.65 21.95 22.1 21.95 21.6 22.0 21.5 21.95 21.35 21.95 21.15 21.95 20.95 21.95 20.6 21.95 20.3 21.9 20.1 21.9 19.95 21.9 19.7 21.9 19.5 21.9 18.7 21.75 17.9 21.65 17.9 21.55 17.85 21.45 17.65 21.4 17.4 21.3 17.25 21.35 17.1 21.35 16.75 21.3 16.35 21.25 16.15 21.2 16.0 21.1 15.15 20.9 14.3 20.65 14.05 20.6 13.85 20.5 13.85 20.45 13.9 20.45 14.3 20.55 14.65 20.6 15.3 20.8 15.95 20.95 16.1 20.95 16.3 21.0 15.6 20.75 14.85 20.5 14.5 20.35 14.1 20.25 13.45 20.05 12.8 19.85 12.4 19.75 12.0 19.65 12.0 19.6 12.0 19.5 11.9 19.5 11.8 19.5 11.6 19.35 11.4 19.15 11.45 19.1 11.45 19.0 11.75 18.9 12.0 18.8 12.4 18.75 12.8 18.75 13.2 18.9 13.6 19.05 13.65 19.0 13.7 19.0 13.75 18.85 13.85 18.7 13.85 18.6 13.9 18.55 13.85 18.3 13.75 18.1 13.75 17.75 13.8 17.4 13.95 17.3 14.1 17.2 14.15 17.25 14.2 17.3 14.35 17.35 14.5 17.4 14.5 17.6 14.5 17.8 14.4 18.15 14.25 18.45 14.3 18.8 14.35 19.15 14.5 19.3 14.65 19.45 14.85 19.55 15.05 19.6 15.05 19.7 15.1 19.8 15.75 20.15 16.35 20.5 16.6 20.6 16.9 20.7 16.9 20.65 16.95 20.65 16.9 20.45 16.9 20.25 16.8 20.0 16.75 19.7 16.55 19.45 16.3 19.2 16.25 19.05 16.2 18.85 16.3 18.85 16.4 18.85 16.5 18.9 16.55 19.0 16.75 19.35 16.95 19.7 17.25 20.0 17.5 20.3 17.55 20.4 17.6 20.5 18.0 20.8 18.4 21.1 18.6 21.15 18.75 21.15 18.8 21.1 18.85 21.05 19.05 21.2 19.25 21.3 19.35 21.25 19.45 21.25 19.55 21.3 19.7 21.35 19.5 21.4 19.35 21.5 19.6 21.5 19.9 21.55 20.75 21.5 21.6 21.5 21.7 21.45 21.8 21.4 21.8 21.15 21.75 20.95 21.95 20.75 22.1 20.6 22.25 20.45 22.35 20.3 21.85 20.15 21.3 20.0 21.3 19.9 21.25 19.75 21.35 19.7 21.45 19.65 21.65 19.7 21.8 19.75 22.25 19.85 22.7 19.9 23.0 19.8 23.3 19.75 23.65 19.85 24.05 19.9 24.1 19.9 24.2 19.9 24.4 19.75 24.65 19.55 24.6 19.4 24.6 19.3 24.7 19.1 24.8 18.95 24.75 18.85 24.65 18.75 24.7 18.55 24.7 18.35 24.45 18.05 24.15 17.8 24.2 17.75 24.25 17.65 24.3 17.65 24.4 17.65 24.3 17.4 24.2 17.2 24.05 17.15 23.9 17.05 23.85 16.9 23.8 16.75 23.85 16.55 23.9 16.35 23.95 16.35 24.05 16.3 24.0 16.2 23.95 16.1 24.0 15.95 24.05 15.8 23.85 15.65 23.65 15.5 23.65 15.4 23.65 15.25 23.85 15.25 24.05 15.2 24.2 15.3 24.3 15.35 24.35 15.45 24.4 15.55 24.5 15.6 24.65 15.65 24.7 15.55 24.75 15.5 24.95 15.5 25.15 15.45 25.35 15.5 25.5 15.5 25.55 15.55 25.55 15.65 25.8 15.85 26.1 16.05 26.2 16.05 26.3 16.05 26.4 15.95 26.5 15.85 26.6 15.85 26.7 15.85 26.95 15.65 27.2 15.4 27.3 15.4 27.35 15.4 27.75 15.1 28.15 14.8 28.2 14.75 28.2 14.7 28.45 14.6 28.65 14.5 28.85 14.45 29.05 14.45 29.25 14.25 29.45 14.05 29.6 14.0 29.75 13.95 29.9 13.95 30.0 13.95 30.05 14.0 30.05 14.05 30.3 14.15 30.5 14.3 30.45 14.35 30.45 14.45 30.3 14.5 30.2 14.6 29.75 14.65 29.3 14.7 29.1 14.85 28.9 15.0 28.7 15.15 28.5 15.35 28.45 15.3 28.45 15.25 28.35 15.4 28.2 15.55 28.1 15.55 27.95 15.55 27.85 15.75 27.7 15.9 27.45 16.0 27.2 16.1 27.1 16.2 26.95 16.3 27.0 16.6 27.05 16.9 27.0 16.9 26.95 16.95 26.95 17.1 27.0 17.2 26.85 17.2 26.7 17.2 26.6 17.5 26.45 17.85 26.4 18.1 26.3 18.35 26.25 18.6 26.2 18.8 26.4 19.0 26.55 19.15 26.75 19.25 26.95 19.3 27.1 19.55 27.3 19.75 27.5 19.75 27.7 19.75 28.0 19.7 28.3 19.65 28.8 19.45 29.25 19.25 29.45 19.25 29.65 19.25 29.75 19.4 29.8 19.6 30.2 19.7 30.6 19.75 30.7 19.65 30.85 19.55 31.0 19.55 31.2 19.5 31.7 19.25 32.25 19.0 32.3 18.8 32.4 18.55 32.35 18.55 32.35 18.5 32.35 18.35 32.4 18.2 32.65 18.2 32.9 18.2 32.9 18.3 32.9 18.4 32.95 18.7 33.05 19.0 33.1 19.0 33.2 19.0 33.5 18.8 33.8 18.55 34.0 18.55 34.2 18.55 34.45 18.4 34.65 18.3 34.6 18.2 34.55 18.05 34.8 18.05 35.0 18.0 35.45 17.65 35.9 17.25 35.95 17.2 36.0 17.1 36.2 17.0 36.4 16.9 36.8 16.8 37.2 16.75 37.2 16.8 37.25 16.85 37.45 16.8 37.65 16.75 37.7 16.95 37.75 17.1 37.7 17.15 37.65 17.2 37.7 17.3 37.8 17.35 38.1 17.4 38.45 17.5 38.45 17.5 38.5 17.55 38.35 17.6 38.2 17.65 37.8 17.7 37.45 17.75 37.15 17.9 36.85 18.05 36.6 18.15 36.4 18.3 36.35 18.35 36.35 18.35 36.1 18.45 35.85 18.5 35.8 18.6 35.7 18.7 35.45 18.8 35.2 18.85 34.95 19.1 34.65 19.3 34.45 19.4 34.2 19.5 34.3 19.65 34.35 19.85 34.8 19.85 35.2 19.9 36.0 19.95 36.8 20.0 37.35 19.95 37.95 19.9 38.2 20.0 38.45 20.05 38.75 20.0 39.05 19.95 39.4 19.8 39.75 19.65 40.25 19.4 40.75 19.15 41.25 18.8 41.75 18.45 41.8 18.45 41.85 18.45 41.8 18.5 41.8 18.55 41.95 18.6 42.1 18.65 42.1 18.7 42.15 18.75 41.95 18.85 41.75 18.95 41.75 19.0 41.8 19.05 41.6 19.05 41.45 19.05 41.45 19.1 41.5 19.15 41.35 19.2 41.2 19.2 40.5 19.55 39.85 19.9 39.8 20.0 39.75 20.05 39.8 20.1 39.9 20.15 40.3 20.05 40.7 20.0 41.05 19.95 41.4 19.9 41.55 19.9 41.75 19.9 41.8 20.0 41.8 20.1 41.55 20.15 41.25 20.15 41.0 20.25 40.8 20.3 40.6 20.45 40.45 20.55 40.1 20.95 39.8 21.3 39.8 21.4 39.85 21.45 40.1 21.5 40.35 21.55 40.8 21.5 41.25 21.5 42.25 21.35 43.25 21.2 43.45 21.15 43.6 21.1 43.65 21.2 43.7 21.25 43.75 21.15 43.85 21.05 44.2 21.0 44.55 20.95 44.65 21.0 44.7 21.05 44.85 21.05 45.0 21.0 45.05 21.05 45.15 21.1 45.1 21.2 45.05 21.3 44.7 21.35 44.4 21.45 44.25 21.5 44.05 21.55 44.0 21.45 44.0 21.45 M38.8 21.3 L38.75 21.25 38.65 21.25 38.5 21.25 38.55 21.3 38.55 21.35 38.7 21.35 38.8 21.35 38.8 21.3 M36.6 21.1 L36.55 21.05 36.5 21.05 36.4 21.05 36.4 21.1 36.35 21.15 36.4 21.2 36.5 21.2 36.55 21.2 36.6 21.2 36.6 21.1 M41.6 18.85 L41.6 18.8 41.5 18.8 41.45 18.8 41.5 18.85 41.55 18.9 41.6 18.9 41.65 18.9 41.6 18.85 M24.8 17.7 L24.8 17.65 24.7 17.6 24.6 17.6 24.65 17.7 24.65 17.75 24.7 17.75 24.75 17.75 24.8 17.7 M13.95 19.05 L13.85 19.0 13.85 19.05 13.9 19.1 13.95 19.15 14.0 19.15 14.05 19.15 14.1 19.1 13.95 19.05 M24.7 17.35 L24.65 17.2 24.55 17.2 24.5 17.2 24.45 17.3 24.45 17.4 24.5 17.5 24.5 17.6 24.6 17.55 24.7 17.5 24.7 17.35 M43.75 21.5 L43.85 21.45 43.9 21.5 44.0 21.5 43.8 21.5 43.65 21.55 43.75 21.5 43.75 21.5 M43.05 19.55 L43.15 19.4 43.3 19.4 43.4 19.35 43.45 19.4 43.45 19.45 43.35 19.55 43.25 19.65 43.1 19.65 43.0 19.65 43.05 19.55 M43.5 19.15 L43.5 19.1 43.6 19.05 43.65 19.05 43.7 19.15 43.7 19.2 43.65 19.2 43.55 19.25 43.5 19.15 M38.2 19.65 L38.15 19.55 38.3 19.5 38.45 19.5 38.6 19.55 38.8 19.6 38.8 19.6 38.8 19.65 38.5 19.7 38.2 19.75 38.2 19.65 38.2 19.65 M42.0 18.5 L42.0 18.45 41.9 18.4 41.8 18.4 41.9 18.35 42.0 18.3 42.05 18.3 42.1 18.25 42.2 18.3 42.35 18.3 42.3 18.4 42.3 18.5 42.1 18.5 41.95 18.55 42.0 18.5 M27.2 19.2 L27.0 19.15 27.1 19.1 27.25 19.0 27.4 19.0 27.5 18.95 27.55 18.9 27.6 18.8 27.9 18.7 28.2 18.55 28.25 18.6 28.3 18.6 28.2 18.75 28.1 18.9 27.9 19.0 27.65 19.1 27.7 19.15 27.7 19.2 27.55 19.2 27.4 19.25 27.2 19.2 27.2 19.2 M23.25 19.55 L23.2 19.5 23.3 19.4 23.4 19.35 23.45 19.4 23.5 19.45 23.45 19.55 23.35 19.65 23.25 19.55 M39.85 17.0 L39.7 16.95 39.85 16.9 39.95 16.8 40.25 16.7 40.5 16.55 40.75 16.6 40.95 16.6 41.05 16.6 41.15 16.55 41.4 16.55 41.6 16.55 41.55 16.6 41.5 16.7 41.45 16.65 41.35 16.65 41.3 16.7 41.3 16.75 40.9 16.8 40.5 16.85 40.35 16.95 40.15 17.05 40.1 17.1 40.05 17.1 39.85 17.0 39.85 17.0 M22.9 19.4 L22.85 19.35 22.95 19.25 23.05 19.2 23.15 19.2 23.2 19.25 23.15 19.3 23.15 19.4 23.05 19.4 23.0 19.4 22.9 19.4 M28.45 18.4 L28.4 18.4 28.4 18.3 28.4 18.2 28.5 18.05 28.55 17.85 28.65 17.85 28.7 17.85 28.75 18.0 28.8 18.15 28.65 18.3 28.5 18.45 28.45 18.4 M20.3 19.45 L20.25 19.3 20.35 19.25 20.45 19.15 20.5 19.15 20.55 19.2 20.55 19.35 20.55 19.5 20.45 19.5 20.35 19.55 20.3 19.45 M30.25 17.95 L30.15 17.85 30.3 17.75 30.5 17.6 30.45 17.55 30.45 17.5 30.6 17.45 30.8 17.45 30.9 17.55 31.05 17.65 30.95 17.7 30.8 17.8 30.85 17.85 30.85 17.95 30.7 18.0 30.5 18.05 30.45 18.05 30.4 18.05 30.25 17.95 30.25 17.95 M19.1 19.55 L19.0 19.5 18.75 19.2 18.5 18.9 18.35 18.85 18.25 18.8 18.05 18.65 17.9 18.45 17.95 18.4 17.95 18.4 18.2 18.5 18.4 18.55 18.4 18.65 18.45 18.7 18.75 18.8 19.05 18.9 19.2 19.2 19.35 19.55 19.25 19.6 19.15 19.6 19.1 19.55 19.1 19.55 M22.35 18.85 L22.3 18.7 22.45 18.65 22.65 18.65 22.7 18.7 22.75 18.8 22.65 18.9 22.5 18.95 22.45 19.0 22.35 19.0 22.35 18.85 22.35 18.85 M43.95 15.8 L43.85 15.75 43.9 15.65 44.0 15.5 44.25 15.6 44.5 15.7 44.45 15.8 44.45 15.85 44.25 15.9 44.1 15.9 43.95 15.8 M21.65 18.0 L21.55 17.95 21.5 17.9 21.5 17.85 21.2 17.6 20.9 17.35 20.85 17.35 20.85 17.3 20.95 17.2 21.0 17.1 21.25 17.15 21.45 17.2 21.45 17.3 21.5 17.35 21.65 17.5 21.85 17.6 22.0 17.75 22.1 17.9 22.05 17.95 22.0 18.05 21.9 18.05 21.8 18.05 21.65 18.0 21.65 18.0 M27.5 17.0 L27.4 16.95 27.4 16.95 27.4 16.9 27.5 16.9 27.6 16.85 27.65 16.95 27.7 17.05 27.65 17.1 27.55 17.1 27.5 17.0 M16.8 18.15 L16.8 18.05 16.75 18.05 16.7 18.0 16.85 17.95 17.0 17.9 17.0 18.05 17.05 18.2 16.95 18.25 16.85 18.25 16.8 18.15 M29.85 16.3 L29.7 16.25 29.7 16.2 29.65 16.15 29.75 16.1 29.8 16.1 29.95 16.15 30.05 16.2 30.05 16.25 30.1 16.3 30.0 16.3 29.95 16.3 29.85 16.3 29.85 16.3 M13.75 16.25 L13.65 16.2 13.7 16.1 13.7 16.0 13.85 16.05 14.0 16.15 14.05 16.2 14.05 16.25 13.95 16.3 13.8 16.3 13.75 16.25 M26.55 14.0 L26.5 14.0 26.55 13.85 26.6 13.75 26.75 13.7 26.9 13.7 26.95 13.75 27.0 13.75 26.95 13.9 26.9 14.0 26.75 14.0 26.6 14.05 26.55 14.0" fill="#782525" fill-rule="evenodd" stroke="none"/>
    <path d="M44.15 21.45 L44.2 21.35 43.4 21.5 42.6 21.6 41.85 21.65 41.15 21.75 40.8 21.8 40.45 21.8 40.0 21.85 39.6 21.85 39.25 21.85 38.95 21.8 38.0 21.95 37.1 22.1 36.0 22.15 34.9 22.25 34.4 22.25 33.85 22.3 33.1 22.3 32.4 22.35 31.6 22.35 30.8 22.35 28.6 22.4 26.45 22.45 25.6 22.4 24.75 22.4 24.5 22.4 24.25 22.4 24.2 22.35 24.1 22.3 24.0 22.35 23.9 22.4 23.9 22.3 23.9 22.2 23.7 22.25 23.55 22.25 23.05 22.05 22.55 21.85 22.6 21.85 22.65 21.85 22.5 21.8 22.35 21.8 22.2 21.85 22.05 21.95 21.75 21.95 21.4 21.95 21.35 21.9 21.3 21.9 21.1 21.9 20.9 21.95 20.85 21.9 20.75 21.85 20.55 21.9 20.3 21.9 20.1 21.9 19.9 21.85 19.7 21.85 19.5 21.9 19.35 21.85 19.25 21.8 19.05 21.8 18.8 21.75 18.45 21.7 18.05 21.65 17.9 21.5 17.7 21.35 17.55 21.35 17.4 21.35 16.8 21.25 16.15 21.2 16.15 21.15 16.15 21.1 15.4 20.95 14.7 20.75 14.3 20.65 13.9 20.5 14.0 20.5 14.05 20.5 15.1 20.75 16.1 21.0 16.2 21.0 16.25 20.95 15.8 20.8 15.35 20.65 14.6 20.4 13.8 20.15 13.65 20.1 13.5 20.1 13.55 20.05 13.6 20.0 13.2 19.85 12.8 19.7 12.55 19.6 12.3 19.55 12.25 19.55 12.2 19.55 12.0 19.5 11.8 19.4 11.6 19.25 11.45 19.1 11.55 19.05 11.7 18.95 11.8 18.9 11.9 18.9 12.05 18.95 12.2 19.0 12.4 19.0 12.6 18.95 12.45 18.95 12.3 18.95 12.3 18.9 12.25 18.85 12.55 18.8 12.85 18.8 13.45 19.0 14.1 19.2 14.15 19.2 14.15 19.15 14.0 19.05 13.8 18.95 13.85 18.7 13.9 18.5 13.85 18.3 13.8 18.15 13.85 17.95 13.9 17.75 13.85 17.55 13.85 17.35 14.0 17.3 14.1 17.3 14.1 17.3 14.15 17.3 14.25 17.4 14.4 17.5 14.4 17.55 14.4 17.65 14.4 17.85 14.35 18.05 14.3 18.35 14.2 18.65 14.35 19.05 14.45 19.4 14.75 19.55 15.05 19.65 15.05 19.7 15.1 19.8 15.65 20.1 16.25 20.45 16.6 20.6 16.95 20.75 17.0 20.7 17.05 20.7 16.95 20.25 16.8 19.85 16.5 19.4 16.25 19.0 16.2 18.95 16.2 18.9 16.3 18.9 16.45 18.85 16.6 19.15 16.75 19.4 16.9 19.6 17.05 19.85 17.35 20.2 17.65 20.55 18.05 20.85 18.45 21.15 18.6 21.15 18.75 21.2 18.85 21.15 18.95 21.1 19.1 21.25 19.25 21.35 19.35 21.3 19.45 21.3 19.55 21.3 19.6 21.35 19.3 21.45 19.0 21.5 19.4 21.55 19.8 21.55 20.1 21.55 20.45 21.55 21.05 21.55 21.65 21.55 21.8 21.45 21.95 21.4 21.85 21.2 21.8 21.0 22.1 20.7 22.45 20.4 22.35 20.3 22.25 20.2 22.25 20.2 22.25 20.2 22.05 20.2 21.85 20.15 21.55 20.0 21.25 19.85 21.3 19.8 21.4 19.7 21.7 19.75 21.95 19.8 22.05 19.8 22.15 19.8 22.15 19.85 22.15 19.85 22.4 19.9 22.65 19.9 23.05 19.9 23.45 19.85 23.7 19.9 24.0 20.0 24.1 19.95 24.2 19.95 24.5 19.8 24.85 19.65 24.8 19.45 24.8 19.3 24.9 19.15 24.95 18.95 24.85 18.8 24.75 18.65 24.85 18.6 24.95 18.5 24.9 18.4 24.85 18.25 24.75 18.2 24.65 18.15 24.8 17.9 24.9 17.7 24.8 17.45 24.75 17.2 24.65 17.15 24.55 17.05 24.4 17.1 24.25 17.1 24.2 17.0 24.2 16.95 24.05 16.7 23.95 16.5 24.05 16.5 24.1 16.5 24.1 16.4 24.1 16.3 24.1 16.1 24.1 15.95 24.05 15.7 24.0 15.5 23.95 15.55 23.9 15.65 23.8 15.6 23.75 15.5 23.75 15.45 23.8 15.4 24.0 15.35 24.2 15.35 24.25 15.45 24.3 15.55 24.4 15.65 24.45 15.7 24.6 15.7 24.75 15.65 24.8 15.6 24.85 15.55 25.1 15.5 25.35 15.5 25.4 15.6 25.45 15.75 25.5 15.75 25.6 15.75 25.8 15.9 26.0 16.1 26.1 16.1 26.2 16.1 26.55 15.95 26.95 15.75 27.0 15.65 27.05 15.55 27.3 15.45 27.5 15.3 27.75 15.15 28.0 14.95 28.1 14.95 28.15 15.0 28.15 14.9 28.1 14.85 28.25 14.85 28.4 14.85 28.3 14.8 28.25 14.7 28.45 14.6 28.65 14.5 28.9 14.5 29.1 14.5 29.0 14.55 28.9 14.55 29.0 14.6 29.15 14.7 29.1 14.8 29.05 14.9 28.65 15.1 28.2 15.3 28.1 15.4 28.0 15.5 27.9 15.5 27.8 15.55 27.75 15.65 27.7 15.8 27.6 15.8 27.5 15.85 27.15 16.0 26.85 16.2 26.9 16.5 26.95 16.85 26.8 17.0 26.65 17.1 26.55 17.25 26.5 17.4 26.55 17.5 26.55 17.55 26.45 17.75 26.35 17.95 26.35 18.0 26.4 18.05 26.25 18.35 26.15 18.65 26.3 18.9 26.4 19.15 26.75 19.3 27.1 19.5 27.2 19.65 27.3 19.75 27.55 19.8 27.75 19.8 28.25 19.75 28.75 19.65 28.7 19.6 28.65 19.6 28.9 19.45 29.1 19.35 29.35 19.3 29.6 19.3 29.65 19.45 29.7 19.55 29.6 19.65 29.5 19.7 29.5 19.75 29.5 19.8 29.85 19.75 30.2 19.7 30.45 19.75 30.7 19.8 30.8 19.7 30.85 19.55 31.0 19.6 31.15 19.6 31.5 19.4 31.85 19.2 31.95 19.25 32.0 19.25 32.0 19.3 32.05 19.35 31.8 19.5 31.6 19.6 31.6 19.65 31.6 19.7 31.75 19.7 31.9 19.65 32.2 19.55 32.5 19.4 32.45 19.35 32.45 19.3 32.3 19.25 32.1 19.2 32.2 19.1 32.3 19.0 32.4 18.8 32.5 18.6 32.45 18.5 32.35 18.4 32.5 18.3 32.6 18.2 32.65 18.2 32.75 18.2 32.8 18.2 32.85 18.25 32.75 18.35 32.65 18.45 32.7 18.5 32.8 18.5 32.9 18.8 33.0 19.1 33.2 19.1 33.35 19.05 33.4 19.0 33.5 18.9 33.75 18.8 34.05 18.65 34.4 18.55 34.75 18.45 34.85 18.4 34.95 18.4 34.9 18.3 34.9 18.2 35.1 18.1 35.25 18.0 35.3 17.9 35.35 17.8 35.6 17.55 35.85 17.35 36.05 17.15 36.2 17.0 36.45 17.0 36.7 16.95 36.95 16.95 37.2 16.9 37.25 17.0 37.25 17.05 37.25 17.25 37.3 17.45 37.45 17.4 37.6 17.4 37.8 17.4 37.95 17.45 37.95 17.55 37.95 17.65 37.7 17.7 37.5 17.7 37.15 17.85 36.8 18.0 36.7 18.1 36.6 18.15 36.4 18.3 36.2 18.4 36.05 18.4 35.9 18.45 35.75 18.6 35.6 18.75 35.4 18.75 35.2 18.8 35.1 18.85 34.95 18.9 35.0 18.95 35.0 19.0 34.85 19.05 34.7 19.05 34.7 19.1 34.7 19.15 34.3 19.35 33.85 19.55 33.75 19.65 33.7 19.75 33.7 19.8 33.7 19.85 33.9 19.8 34.1 19.7 34.15 19.8 34.2 19.9 34.45 19.9 34.7 19.9 34.9 19.95 35.15 20.0 35.55 20.0 35.95 19.95 36.3 20.0 36.7 20.0 37.3 20.0 37.9 20.0 38.05 19.95 38.15 19.95 38.3 20.05 38.45 20.1 38.7 20.05 38.95 20.05 39.7 19.65 40.5 19.3 40.65 19.25 40.75 19.2 40.8 19.2 40.85 19.2 40.9 19.25 40.9 19.35 40.45 19.55 40.0 19.75 39.8 19.9 39.65 20.05 39.7 20.1 39.75 20.15 40.05 20.15 40.35 20.15 40.65 20.05 41.0 19.95 41.25 19.95 41.5 19.95 41.6 20.0 41.7 20.05 41.25 20.15 40.8 20.3 40.5 20.5 40.2 20.7 40.0 20.95 39.8 21.2 39.8 21.35 39.8 21.5 39.8 21.6 39.8 21.65 40.05 21.65 40.3 21.65 40.05 21.6 39.8 21.55 40.1 21.55 40.35 21.55 40.35 21.6 40.35 21.65 41.15 21.55 41.9 21.4 42.7 21.35 43.5 21.25 43.5 21.2 43.45 21.15 43.55 21.2 43.65 21.25 43.85 21.2 44.0 21.1 44.25 21.05 44.45 21.05 44.7 21.05 44.95 21.05 44.95 21.15 45.0 21.2 44.9 21.25 44.8 21.3 44.45 21.4 44.1 21.5 44.15 21.45 44.15 21.45 M42.45 21.5 L42.4 21.45 42.35 21.5 42.25 21.5 42.3 21.55 42.4 21.6 42.4 21.55 42.45 21.55 42.45 21.5 M43.05 21.45 L42.95 21.45 42.85 21.5 42.75 21.5 42.95 21.5 43.15 21.45 43.05 21.45 M39.2 21.4 L39.25 21.35 39.05 21.25 38.8 21.2 38.55 21.2 38.3 21.25 38.4 21.3 38.45 21.4 38.65 21.4 38.85 21.4 38.95 21.4 39.05 21.45 39.1 21.45 39.15 21.45 39.2 21.4 39.2 21.4 M37.55 21.2 L37.5 21.15 37.35 21.2 37.25 21.2 37.25 21.25 37.3 21.3 37.45 21.25 37.65 21.25 37.55 21.2 M36.65 21.05 L36.55 21.0 36.4 21.0 36.25 21.05 36.25 21.15 36.25 21.2 36.45 21.2 36.6 21.2 36.65 21.15 36.7 21.1 36.65 21.05 M24.1 22.05 L24.05 21.95 23.95 21.95 23.8 21.95 23.85 22.0 23.9 22.1 23.95 22.15 24.0 22.15 24.1 22.15 24.15 22.15 24.1 22.05 M20.55 21.7 L20.5 21.65 20.45 21.65 20.4 21.65 20.25 21.75 20.15 21.8 20.35 21.75 20.55 21.75 20.55 21.7 M19.8 21.65 L19.7 21.65 19.6 21.7 19.5 21.75 19.7 21.7 19.85 21.7 19.8 21.65 19.8 21.65 M33.3 19.65 L33.3 19.65 33.2 19.65 33.1 19.65 33.15 19.7 33.15 19.75 33.25 19.75 33.3 19.7 33.3 19.65 M32.75 18.7 L32.75 18.65 32.65 18.65 32.55 18.65 32.6 18.75 32.6 18.8 32.7 18.8 32.8 18.8 32.75 18.7 M37.8 17.55 L37.65 17.5 37.55 17.55 37.45 17.6 37.7 17.55 37.9 17.55 37.8 17.55 M26.15 17.45 L26.2 17.3 26.15 17.3 26.1 17.3 25.95 17.4 25.8 17.55 25.9 17.6 25.95 17.6 26.05 17.6 26.1 17.6 26.15 17.45 M26.1 16.95 L26.1 16.9 26.0 16.9 25.9 16.9 25.9 17.0 25.9 17.1 26.0 17.05 26.15 17.0 26.1 16.95 26.1 16.95 M24.45 16.9 L24.4 16.85 24.35 16.85 24.25 16.85 24.25 16.9 24.3 17.0 24.4 17.0 24.45 16.95 24.45 16.9 M43.05 19.6 L43.05 19.55 43.15 19.5 43.25 19.4 43.35 19.45 43.4 19.45 43.3 19.55 43.25 19.65 43.15 19.65 43.1 19.65 43.05 19.6 M40.95 19.15 L40.9 19.1 41.05 19.05 41.25 19.0 41.2 18.9 41.2 18.85 41.25 18.85 41.3 18.85 41.55 18.9 41.8 18.95 41.7 19.0 41.6 19.0 41.55 19.05 41.5 19.05 41.35 19.1 41.25 19.15 41.3 19.1 41.35 19.05 41.25 19.05 41.15 19.05 41.2 19.1 41.2 19.15 41.1 19.2 40.95 19.2 40.95 19.15 40.95 19.15 M42.05 18.45 L42.0 18.4 42.1 18.35 42.25 18.35 42.2 18.4 42.2 18.45 42.15 18.45 42.1 18.45 42.05 18.45 M27.4 19.1 L27.35 19.05 27.45 19.05 27.55 19.0 27.5 19.1 27.5 19.15 27.45 19.15 27.4 19.15 27.4 19.1 M27.85 18.9 L27.85 18.9 27.95 18.85 28.0 18.85 28.0 18.9 27.95 18.95 27.9 18.95 27.9 18.95 27.85 18.9 M40.15 16.9 L40.1 16.85 40.05 16.85 40.05 16.8 40.3 16.7 40.55 16.6 40.65 16.65 40.75 16.7 40.6 16.8 40.5 16.85 40.35 16.9 40.2 16.9 40.15 16.9 M28.4 18.25 L28.4 18.2 28.5 18.1 28.55 18.05 28.6 17.95 28.65 17.8 28.75 18.0 28.85 18.15 28.7 18.25 28.55 18.3 28.5 18.3 28.45 18.35 28.4 18.25 M30.3 17.9 L30.2 17.8 30.35 17.8 30.45 17.75 30.7 17.8 30.9 17.9 30.75 17.9 30.6 17.9 30.5 17.95 30.4 18.0 30.3 17.9 M18.9 19.3 L18.65 19.1 18.6 18.95 18.55 18.85 18.45 18.85 18.35 18.8 18.15 18.65 17.9 18.45 18.0 18.45 18.05 18.45 18.2 18.55 18.35 18.65 18.4 18.7 18.45 18.75 18.75 18.85 19.05 18.95 19.15 19.2 19.25 19.5 19.2 19.5 19.15 19.5 18.9 19.3 M44.15 15.85 L44.0 15.85 43.95 15.75 43.9 15.7 44.0 15.65 44.05 15.6 44.2 15.6 44.35 15.65 44.35 15.65 44.4 15.7 44.25 15.75 44.1 15.75 44.25 15.8 44.45 15.8 44.35 15.8 44.3 15.85 44.15 15.85 44.15 15.85 M22.55 18.75 L22.5 18.65 22.6 18.7 22.65 18.75 22.6 18.8 22.6 18.85 22.55 18.75 22.55 18.75 M21.7 18.0 L21.5 17.9 21.5 17.85 21.45 17.75 21.5 17.65 21.55 17.55 21.65 17.55 21.7 17.5 21.8 17.65 21.9 17.75 22.0 17.85 22.1 17.9 21.95 17.9 21.8 17.9 21.85 17.95 21.95 18.05 21.9 18.05 21.9 18.05 21.7 18.0 21.7 18.0 M21.3 17.7 L21.25 17.65 21.2 17.6 21.2 17.5 21.25 17.5 21.35 17.45 21.3 17.35 21.3 17.25 21.2 17.35 21.05 17.4 21.0 17.4 20.95 17.4 21.0 17.3 21.0 17.25 21.2 17.25 21.35 17.2 21.45 17.3 21.55 17.4 21.45 17.55 21.4 17.7 21.3 17.7 M16.8 18.1 L16.8 18.0 16.85 18.0 16.9 18.0 17.0 18.05 17.05 18.15 17.1 18.15 17.1 18.15 16.95 18.2 16.85 18.2 16.8 18.1 M30.0 14.5 L29.85 14.55 29.65 14.55 29.45 14.55 29.4 14.5 29.4 14.45 29.55 14.25 29.7 14.05 29.8 14.05 29.9 14.0 30.1 14.1 30.25 14.2 30.3 14.2 30.4 14.2 30.4 14.3 30.45 14.4 30.3 14.45 30.2 14.5 30.0 14.5 M13.75 16.2 L13.75 16.1 13.8 16.1 13.9 16.1 13.95 16.2 14.0 16.3 13.9 16.3 13.8 16.3 13.75 16.2 M26.7 13.95 L26.6 13.95 26.75 13.9 26.9 13.9 26.9 13.95 26.9 14.0 26.85 14.0 26.75 14.0 26.7 13.95" fill="#721b1b" fill-rule="evenodd" stroke="none"/>
  </g>
</svg>
