<?xml version="1.0" encoding="UTF-8" standalone="no"?>
<svg xmlns:xlink="http://www.w3.org/1999/xlink" height="48.15px" width="70.35px" xmlns="http://www.w3.org/2000/svg">
  <g transform="matrix(1.0, 0.0, 0.0, 1.0, 0.75, 0.75)">
    <path d="M-0.5 18.6 L-0.55 18.4 -0.65 17.7 -0.7 17.0 -0.65 16.65 -0.65 16.25 -0.5 15.25 -0.35 14.2 -0.15 13.55 0.1 12.85 0.35 12.4 0.65 11.9 0.9 11.6 1.1 11.25 1.65 10.8 2.15 10.35 2.45 10.3 2.7 10.3 3.05 10.4 3.45 10.45 5.3 10.85 7.15 11.25 8.45 11.55 9.75 11.8 10.65 12.0 11.55 12.2 13.7 12.65 15.8 13.1 16.95 13.35 18.1 13.55 18.6 13.7 19.15 13.8 19.55 13.9 19.95 13.95 20.05 14.0 20.2 14.0 22.05 14.4 23.95 14.8 25.2 15.1 26.5 15.35 26.9 15.45 27.3 15.5 27.5 15.3 27.7 15.05 27.9 15.0 28.1 15.0 31.65 15.85 35.2 16.75 36.75 17.1 38.3 17.5 39.8 17.85 41.25 18.2 43.0 18.65 44.7 19.05 46.1 19.4 47.55 19.75 48.9 20.05 50.25 20.4 52.2 20.9 54.1 21.35 56.5 21.95 58.95 22.55 61.5 23.15 64.0 23.75 66.7 24.45 69.35 25.1 69.5 25.3 69.6 25.5 69.55 25.8 69.5 26.1 68.85 26.45 68.2 26.8 67.75 27.05 67.3 27.3 66.9 27.45 66.5 27.65 65.5 28.0 64.45 28.35 63.75 28.55 63.05 28.75 62.35 28.9 61.65 29.1 60.3 29.45 58.95 29.75 58.05 29.85 57.2 29.95 56.8 30.05 56.35 30.1 54.85 30.25 53.35 30.35 51.6 30.45 49.85 30.55 48.75 30.55 47.6 30.6 47.15 30.6 46.65 30.6 45.2 30.6 43.7 30.55 41.65 30.4 39.65 30.25 37.9 30.05 36.15 29.8 35.05 29.65 34.0 29.45 33.9 29.45 33.85 29.45 31.95 29.1 30.05 28.7 28.9 28.45 27.8 28.2 26.75 27.95 25.75 27.65 25.55 27.55 25.4 27.4 25.3 27.25 25.25 27.05 25.35 26.3 25.5 25.6 25.55 25.2 25.65 24.8 25.2 24.7 24.7 24.6 24.45 24.5 24.15 24.4 22.6 24.05 21.05 23.75 18.85 23.3 16.7 22.8 16.1 22.7 15.5 22.55 13.75 22.2 12.0 21.8 9.65 21.3 7.3 20.8 5.3 20.4 3.25 19.95 1.65 19.6 0.05 19.25 -0.2 19.0 -0.4 18.75 -0.5 18.6 M28.05 27.0 L29.5 27.4 30.6 27.6 31.7 27.85 31.75 27.85 31.85 27.85 32.4 27.95 33.0 28.1 34.4 28.35 35.8 28.55 37.8 28.8 39.75 29.05 41.8 29.2 43.85 29.4 44.8 29.4 45.7 29.4 46.35 29.4 46.95 29.45 47.45 29.4 47.95 29.4 48.5 29.4 49.0 29.4 51.3 29.3 53.55 29.15 55.15 29.0 56.75 28.85 57.85 28.7 58.95 28.55 60.5 28.15 62.0 27.8 62.75 27.6 63.45 27.4 64.4 27.1 65.35 26.8 65.8 26.6 66.25 26.4 66.85 26.15 67.45 25.9 67.45 25.85 67.45 25.85 65.15 25.25 62.9 24.7 59.35 23.85 55.85 23.0 54.45 22.65 53.1 22.3 51.55 21.95 49.95 21.55 46.3 20.65 42.7 19.8 41.1 19.4 39.55 19.0 36.5 18.25 33.5 17.5 32.35 17.25 31.25 17.0 29.75 16.65 28.3 16.25 28.05 16.55 27.8 16.8 27.35 16.8 26.9 16.75 26.7 17.2 26.5 17.6 26.3 18.1 26.15 18.55 25.75 20.15 25.4 21.75 25.3 22.5 25.15 23.2 25.2 23.35 25.2 23.5 25.9 23.65 26.6 23.75 26.75 23.95 26.85 24.1 26.85 24.35 26.85 24.55 26.7 25.4 26.55 26.2 26.5 26.4 26.45 26.55 26.5 26.6 26.55 26.65 28.05 27.0 28.05 27.0" fill="#d0d0d0" fill-rule="evenodd" stroke="none"/>
    <path d="M-0.5 18.35 L-0.6 17.9 -0.65 17.25 -0.65 16.55 -0.5 15.65 -0.4 14.7 -0.25 14.05 -0.1 13.45 0.0 13.15 0.1 12.9 0.3 12.5 0.5 12.1 1.0 11.5 1.5 10.9 1.9 10.65 2.25 10.4 2.4 10.35 2.6 10.3 3.9 10.6 5.25 10.9 6.6 11.15 7.95 11.45 9.25 11.75 10.55 12.0 12.75 12.45 14.95 12.95 16.55 13.3 18.15 13.65 18.95 13.8 19.7 13.95 21.65 14.35 23.55 14.8 24.95 15.05 26.3 15.35 26.75 15.45 27.25 15.5 27.55 15.25 27.85 15.05 28.3 15.1 28.7 15.15 31.5 15.85 34.3 16.55 36.25 17.05 38.2 17.5 39.1 17.7 40.0 17.95 42.95 18.65 45.85 19.4 47.15 19.7 48.4 20.0 49.7 20.3 50.95 20.6 54.25 21.4 57.5 22.2 58.8 22.55 60.15 22.85 61.8 23.25 63.45 23.7 66.25 24.35 69.0 25.05 69.25 25.15 69.5 25.25 69.55 25.5 69.6 25.7 69.45 25.9 69.35 26.1 69.0 26.35 68.65 26.55 68.15 26.8 67.65 27.05 67.2 27.3 66.7 27.5 65.7 27.85 64.75 28.2 63.8 28.5 62.9 28.75 61.25 29.15 59.65 29.55 58.8 29.7 57.95 29.85 56.0 30.05 54.0 30.3 53.4 30.3 52.8 30.35 51.35 30.45 49.9 30.5 48.65 30.55 47.4 30.55 46.45 30.55 45.55 30.55 44.05 30.5 42.6 30.45 40.9 30.3 39.25 30.15 38.2 30.05 37.1 29.9 35.8 29.7 34.55 29.55 33.05 29.25 31.55 29.0 29.8 28.6 28.05 28.2 27.0 27.95 25.9 27.7 25.65 27.55 25.4 27.4 25.35 27.25 25.25 27.05 25.45 26.05 25.65 25.05 25.65 24.9 25.7 24.75 25.1 24.65 24.5 24.5 24.5 24.45 24.45 24.4 22.9 24.1 21.4 23.75 19.4 23.35 17.4 22.9 15.35 22.5 13.3 22.05 9.75 21.3 6.2 20.55 4.4 20.15 2.6 19.8 1.4 19.5 0.15 19.25 0.0 19.15 -0.2 19.05 -0.3 18.95 -0.35 18.8 -0.5 18.35 -0.5 18.35 M27.55 26.95 L28.35 27.15 29.8 27.45 31.25 27.8 32.75 28.05 34.25 28.35 36.4 28.65 38.55 29.0 40.45 29.15 42.35 29.3 43.8 29.4 45.3 29.45 45.95 29.45 46.6 29.45 48.0 29.45 49.4 29.4 51.2 29.35 53.0 29.25 54.5 29.1 56.05 29.0 57.4 28.8 58.8 28.6 60.2 28.3 61.6 27.95 62.4 27.75 63.2 27.5 64.1 27.25 65.0 26.95 65.95 26.55 66.95 26.2 67.2 26.05 67.5 25.85 67.45 25.8 67.45 25.8 62.4 24.55 57.35 23.35 55.2 22.8 53.0 22.25 51.75 21.95 50.5 21.65 47.75 21.0 45.05 20.3 44.25 20.1 43.4 19.95 41.35 19.4 39.3 18.9 35.85 18.05 32.4 17.25 31.8 17.1 31.2 16.95 29.75 16.6 28.3 16.25 28.15 16.45 27.95 16.65 27.7 16.75 27.4 16.8 27.15 16.7 26.9 16.65 26.65 17.2 26.4 17.75 26.2 18.35 26.0 19.0 25.7 20.25 25.4 21.55 25.3 22.3 25.15 23.1 25.2 23.35 25.2 23.55 25.75 23.65 26.35 23.75 26.55 23.8 26.75 23.9 26.8 24.15 26.85 24.35 26.65 25.5 26.45 26.65 26.6 26.7 26.8 26.75 27.55 26.95" fill="#afafaf" fill-rule="evenodd" stroke="none"/>
    <path d="M-0.4 18.55 L-0.55 18.25 -0.6 17.7 -0.65 17.15 -0.55 16.15 -0.45 15.15 -0.3 14.4 -0.15 13.65 0.05 13.2 0.2 12.7 0.5 12.2 0.8 11.75 1.3 11.2 1.85 10.65 2.1 10.5 2.35 10.4 2.55 10.35 2.75 10.35 6.3 11.1 9.85 11.9 11.2 12.15 12.55 12.45 14.45 12.85 16.35 13.25 18.75 13.75 21.15 14.25 21.75 14.4 22.3 14.55 24.4 14.95 26.45 15.4 26.85 15.5 27.3 15.6 27.5 15.4 27.65 15.2 27.85 15.1 28.0 15.05 29.6 15.4 31.2 15.8 34.35 16.6 37.45 17.35 39.6 17.85 41.7 18.4 44.65 19.1 47.6 19.8 49.3 20.25 51.0 20.65 53.0 21.15 54.95 21.6 58.3 22.45 61.6 23.25 64.0 23.85 66.35 24.4 67.45 24.65 68.5 24.9 68.9 25.05 69.3 25.15 69.4 25.3 69.55 25.5 69.55 25.7 69.5 25.9 69.25 26.1 69.0 26.35 68.45 26.65 67.85 26.95 66.7 27.45 65.55 27.9 64.65 28.2 63.75 28.5 63.2 28.65 62.7 28.8 61.1 29.2 59.45 29.6 58.65 29.7 57.85 29.85 55.7 30.05 53.6 30.3 52.3 30.35 51.0 30.45 49.25 30.5 47.45 30.55 46.1 30.55 44.7 30.55 43.4 30.45 42.1 30.4 39.6 30.15 37.1 29.9 35.95 29.7 34.8 29.55 34.35 29.45 33.9 29.4 32.0 29.05 30.1 28.65 28.7 28.35 27.35 28.05 26.5 27.8 25.65 27.6 25.45 27.35 25.25 27.1 25.5 25.95 25.75 24.85 25.7 24.8 25.65 24.75 24.95 24.55 24.25 24.35 22.3 23.95 20.35 23.55 18.8 23.2 17.25 22.85 16.15 22.65 15.05 22.4 12.9 21.95 10.7 21.45 9.6 21.25 8.5 21.0 6.6 20.6 4.75 20.2 3.4 19.9 2.05 19.65 1.2 19.45 0.4 19.3 0.1 19.15 -0.2 19.0 -0.25 18.95 -0.3 18.9 -0.4 18.55 M27.8 27.05 L29.15 27.35 30.15 27.55 31.15 27.8 32.1 27.95 33.05 28.15 34.75 28.45 36.5 28.75 39.85 29.1 43.25 29.4 44.7 29.45 46.2 29.45 47.3 29.45 48.45 29.45 50.1 29.4 51.75 29.35 53.85 29.2 55.95 29.0 57.25 28.85 58.55 28.7 60.05 28.35 61.5 28.0 62.75 27.65 64.0 27.3 64.95 26.95 65.95 26.65 66.75 26.25 67.55 25.9 67.55 25.85 67.55 25.8 66.8 25.6 66.1 25.45 64.35 25.0 62.65 24.6 60.95 24.15 59.2 23.75 56.45 23.1 53.65 22.4 51.7 21.9 49.7 21.45 48.65 21.15 47.6 20.9 45.25 20.35 42.95 19.8 41.1 19.35 39.3 18.9 37.7 18.5 36.05 18.1 32.65 17.25 29.2 16.4 28.7 16.3 28.25 16.25 28.0 16.5 27.75 16.75 27.3 16.7 26.85 16.65 26.65 17.05 26.5 17.5 26.25 18.1 26.05 18.7 25.7 20.15 25.35 21.6 25.2 22.45 25.1 23.35 25.2 23.45 25.25 23.55 25.9 23.7 26.55 23.8 26.7 24.0 26.85 24.2 26.8 24.6 26.7 25.05 26.55 25.8 26.4 26.6 26.45 26.65 26.5 26.7 27.8 27.05" fill="#8f8f8f" fill-rule="evenodd" stroke="none"/>
    <path d="M-0.5 18.1 L-0.6 17.5 -0.55 16.6 -0.5 15.65 -0.3 14.6 -0.1 13.5 0.15 12.95 0.35 12.45 0.75 11.9 1.15 11.35 1.65 10.9 2.2 10.45 2.45 10.4 2.7 10.35 3.25 10.5 3.75 10.6 5.0 10.9 6.25 11.15 7.15 11.3 8.05 11.5 10.2 12.0 12.4 12.45 14.2 12.85 16.0 13.2 18.0 13.65 20.0 14.05 23.5 14.8 26.95 15.5 27.15 15.55 27.35 15.6 27.45 15.45 27.55 15.3 27.75 15.2 27.95 15.1 28.2 15.1 28.45 15.15 29.95 15.55 31.5 15.9 32.85 16.25 34.2 16.55 36.7 17.2 39.15 17.8 40.45 18.1 41.7 18.4 43.15 18.75 44.6 19.1 48.05 19.95 51.5 20.8 52.3 21.0 53.1 21.2 55.25 21.7 57.35 22.2 59.15 22.65 60.9 23.1 62.6 23.5 64.35 23.95 66.8 24.55 69.25 25.15 69.4 25.3 69.5 25.45 69.5 25.7 69.45 25.95 69.3 26.1 69.1 26.25 68.4 26.65 67.65 27.05 67.0 27.3 66.35 27.6 65.6 27.85 64.8 28.15 63.7 28.45 62.6 28.8 60.9 29.2 59.2 29.6 58.4 29.75 57.55 29.85 55.6 30.05 53.65 30.25 51.8 30.35 50.0 30.45 47.7 30.5 45.4 30.55 43.55 30.45 41.65 30.35 39.65 30.15 37.7 29.95 35.55 29.65 33.4 29.3 31.55 28.95 29.7 28.55 28.0 28.15 26.25 27.75 25.95 27.6 25.6 27.5 25.45 27.3 25.3 27.15 25.35 26.95 25.35 26.7 25.55 25.75 25.75 24.85 25.7 24.8 25.65 24.75 24.45 24.4 23.2 24.1 22.15 23.9 21.1 23.65 20.0 23.45 18.95 23.2 16.8 22.75 14.65 22.3 13.8 22.1 12.9 21.9 10.15 21.35 7.4 20.75 5.9 20.45 4.45 20.15 2.3 19.65 0.1 19.2 -0.15 18.95 -0.35 18.7 -0.5 18.1 M27.45 26.95 L28.4 27.2 29.95 27.55 31.5 27.9 32.55 28.1 33.55 28.3 34.4 28.4 35.3 28.55 36.05 28.65 36.85 28.8 38.5 29.0 40.2 29.2 42.15 29.35 44.15 29.45 45.35 29.5 46.55 29.5 48.25 29.45 50.0 29.4 50.7 29.4 51.4 29.4 52.9 29.3 54.4 29.15 56.25 28.95 58.05 28.75 58.85 28.6 59.65 28.45 61.15 28.1 62.7 27.7 63.85 27.35 65.0 27.0 65.8 26.7 66.55 26.4 67.05 26.15 67.55 25.95 67.55 25.85 67.55 25.8 65.0 25.15 62.4 24.5 60.8 24.15 59.25 23.75 58.0 23.45 56.8 23.15 52.4 22.05 48.0 21.0 46.9 20.7 45.75 20.45 42.25 19.6 38.75 18.75 35.95 18.05 33.15 17.35 30.7 16.75 28.3 16.15 28.05 16.45 27.8 16.7 27.3 16.7 26.85 16.65 26.45 17.6 26.1 18.5 25.65 20.25 25.25 22.0 25.2 22.75 25.1 23.55 25.3 23.6 25.5 23.65 26.0 23.75 26.55 23.85 26.7 24.05 26.85 24.2 26.8 24.45 26.75 24.75 26.6 25.65 26.4 26.6 26.45 26.65 26.5 26.75 27.45 26.95 27.45 26.95" fill="#6f6f6f" fill-rule="evenodd" stroke="none"/>
    <path d="M-0.4 18.55 L-0.5 18.3 -0.55 17.75 -0.6 17.2 -0.55 16.65 -0.55 16.15 -0.35 15.05 -0.2 14.0 -0.05 13.5 0.15 13.0 0.35 12.6 0.55 12.2 0.9 11.7 1.25 11.25 1.7 10.9 2.15 10.5 2.4 10.45 2.65 10.4 3.3 10.5 3.95 10.65 6.2 11.15 8.4 11.6 9.5 11.85 10.6 12.1 11.65 12.3 12.7 12.5 14.85 13.0 16.95 13.45 18.75 13.8 20.5 14.2 23.55 14.85 26.6 15.45 26.95 15.55 27.25 15.65 27.55 15.4 27.85 15.1 28.2 15.15 28.55 15.2 30.25 15.6 31.95 16.05 33.8 16.5 35.6 16.95 39.15 17.8 42.7 18.65 45.25 19.3 47.85 19.9 51.5 20.8 55.1 21.7 56.6 22.05 58.05 22.4 60.5 23.0 63.0 23.6 66.0 24.35 69.05 25.1 69.25 25.2 69.45 25.3 69.45 25.55 69.5 25.8 69.35 26.0 69.25 26.15 68.5 26.55 67.75 26.95 67.1 27.25 66.4 27.55 65.65 27.8 64.85 28.1 64.0 28.35 63.2 28.6 61.4 29.05 59.6 29.5 58.9 29.65 58.2 29.75 56.5 29.95 54.75 30.15 53.0 30.25 51.2 30.4 49.25 30.45 47.35 30.5 46.1 30.5 44.85 30.5 43.65 30.45 42.4 30.4 40.25 30.2 38.05 30.0 36.35 29.75 34.6 29.45 33.35 29.25 32.15 29.05 30.9 28.75 29.65 28.5 28.4 28.25 27.15 27.95 26.4 27.75 25.6 27.55 25.5 27.4 25.4 27.25 25.4 27.1 25.35 26.95 25.55 25.85 25.75 24.75 25.65 24.7 25.55 24.65 25.1 24.55 24.6 24.45 24.35 24.35 24.05 24.25 22.15 23.85 20.2 23.45 19.6 23.3 18.95 23.2 17.7 22.9 16.45 22.65 14.4 22.2 12.35 21.8 11.7 21.65 11.0 21.5 9.8 21.25 8.55 21.0 7.6 20.8 6.65 20.6 3.75 19.95 0.85 19.35 0.5 19.3 0.2 19.25 -0.05 19.0 -0.3 18.75 -0.4 18.55 M28.4 27.2 L30.25 27.65 31.8 27.95 33.3 28.25 35.1 28.55 36.85 28.85 38.85 29.05 40.85 29.3 42.7 29.4 44.5 29.5 45.9 29.5 47.3 29.5 47.85 29.5 48.35 29.5 49.25 29.45 50.15 29.45 50.8 29.4 51.5 29.4 52.8 29.3 54.1 29.2 55.45 29.1 56.8 28.95 57.6 28.85 58.35 28.75 59.0 28.6 59.65 28.5 60.85 28.2 62.1 27.9 63.15 27.6 64.25 27.25 65.25 26.9 66.25 26.55 66.8 26.3 67.35 26.05 67.55 25.95 67.7 25.85 67.65 25.8 67.65 25.75 66.65 25.55 65.7 25.3 63.2 24.7 60.65 24.05 59.45 23.75 58.25 23.5 56.6 23.1 55.0 22.7 52.3 22.0 49.55 21.35 48.25 21.05 46.9 20.7 44.75 20.2 42.55 19.65 39.05 18.8 35.5 17.95 33.2 17.35 30.85 16.8 29.6 16.5 28.3 16.15 28.1 16.4 27.9 16.6 27.6 16.65 27.35 16.75 27.15 16.65 26.95 16.6 26.85 16.7 26.75 16.8 26.55 17.25 26.35 17.7 26.15 18.3 25.95 18.95 25.65 20.2 25.35 21.45 25.25 22.2 25.1 22.9 25.1 23.2 25.1 23.5 25.15 23.55 25.2 23.6 25.85 23.7 26.55 23.85 26.65 23.95 26.7 24.05 26.75 24.25 26.8 24.4 26.6 25.55 26.35 26.7 26.45 26.75 26.6 26.8 28.4 27.2" fill="#4f4f4f" fill-rule="evenodd" stroke="none"/>
    <path d="M-0.35 18.5 L-0.45 18.2 -0.55 17.7 -0.6 17.2 -0.45 16.05 -0.35 14.9 -0.15 14.1 0.05 13.3 0.2 12.95 0.35 12.55 0.8 11.9 1.3 11.2 1.7 10.85 2.1 10.55 2.4 10.45 2.7 10.4 3.55 10.6 4.45 10.8 7.85 11.5 11.2 12.25 12.65 12.55 14.15 12.85 16.55 13.35 19.0 13.9 19.8 14.05 20.6 14.2 22.5 14.65 24.45 15.05 25.4 15.25 26.3 15.45 26.8 15.55 27.3 15.65 27.45 15.45 27.65 15.3 27.85 15.2 28.05 15.1 30.9 15.8 33.75 16.5 35.25 16.85 36.8 17.25 40.8 18.2 44.8 19.2 45.35 19.35 45.9 19.45 48.5 20.1 51.05 20.75 54.65 21.6 58.25 22.5 61.45 23.25 64.7 24.05 65.15 24.15 65.6 24.3 66.95 24.6 68.3 24.95 68.75 25.05 69.2 25.2 69.35 25.35 69.5 25.55 69.45 25.7 69.45 25.85 69.2 26.05 68.9 26.3 68.1 26.75 67.3 27.15 66.3 27.55 65.3 27.95 64.3 28.25 63.35 28.55 62.75 28.7 62.1 28.9 60.6 29.25 59.1 29.6 58.2 29.7 57.3 29.85 55.7 30.0 54.05 30.2 52.35 30.3 50.7 30.4 49.15 30.45 47.6 30.45 46.55 30.5 45.55 30.5 43.95 30.45 42.4 30.35 39.7 30.1 37.05 29.85 35.15 29.55 33.2 29.2 32.25 29.05 31.3 28.85 30.8 28.75 30.3 28.65 29.7 28.5 29.15 28.4 27.55 28.0 26.0 27.6 25.75 27.5 25.45 27.35 25.4 27.1 25.35 26.8 25.6 25.8 25.8 24.8 25.75 24.7 25.7 24.65 25.45 24.65 25.25 24.6 24.7 24.45 24.2 24.3 22.1 23.85 20.05 23.4 18.35 23.05 16.7 22.7 14.0 22.1 11.3 21.55 9.9 21.25 8.55 20.95 7.55 20.75 6.5 20.5 4.5 20.1 2.55 19.7 1.35 19.4 0.15 19.15 -0.05 19.0 -0.25 18.85 -0.35 18.5 M28.0 27.15 L29.6 27.5 30.65 27.75 31.7 27.95 33.15 28.25 34.6 28.5 35.8 28.7 37.0 28.85 39.3 29.1 41.6 29.35 43.2 29.45 44.85 29.5 45.6 29.55 46.35 29.55 47.7 29.55 49.0 29.5 50.9 29.4 52.85 29.35 53.7 29.25 54.55 29.2 56.25 29.0 58.0 28.8 58.7 28.7 59.4 28.55 61.15 28.15 62.9 27.7 63.05 27.65 63.25 27.6 63.75 27.45 64.3 27.3 65.1 27.0 65.95 26.7 66.65 26.4 67.3 26.1 67.55 25.95 67.8 25.8 67.7 25.8 67.55 25.75 66.1 25.35 64.65 25.0 63.55 24.75 62.5 24.5 60.0 23.9 57.45 23.25 56.45 23.0 55.45 22.75 53.9 22.4 52.4 22.0 48.8 21.15 45.2 20.25 43.35 19.8 41.5 19.35 40.35 19.1 39.25 18.8 38.1 18.55 36.95 18.25 34.35 17.6 31.75 17.0 30.05 16.55 28.35 16.15 28.05 16.4 27.7 16.65 27.25 16.65 26.8 16.6 26.6 17.1 26.35 17.6 26.15 18.2 25.95 18.85 25.6 20.45 25.2 22.1 25.1 22.75 25.0 23.4 25.1 23.5 25.2 23.6 25.65 23.7 26.15 23.8 26.4 23.9 26.65 23.95 26.7 24.15 26.8 24.3 26.6 25.35 26.4 26.4 26.35 26.5 26.3 26.65 26.35 26.7 26.4 26.75 28.0 27.15 28.0 27.15" fill="#2e2e2e" fill-rule="evenodd" stroke="none"/>
    <path d="M-0.45 17.95 L-0.55 17.35 -0.5 16.65 -0.5 15.95 -0.3 14.95 -0.1 13.9 0.05 13.4 0.25 12.9 0.5 12.45 0.7 12.05 1.2 11.45 1.7 10.85 1.95 10.7 2.2 10.55 2.4 10.5 2.65 10.45 4.35 10.8 6.05 11.2 7.4 11.45 8.7 11.75 11.5 12.35 14.3 12.95 15.45 13.15 16.6 13.4 17.9 13.7 19.2 13.95 19.25 13.95 19.3 14.0 21.95 14.55 24.6 15.1 25.25 15.25 25.9 15.4 26.65 15.55 27.35 15.7 27.55 15.45 27.75 15.25 28.0 15.2 28.2 15.2 30.45 15.75 32.75 16.3 34.6 16.75 36.45 17.2 37.8 17.5 39.1 17.85 42.6 18.7 46.15 19.55 48.05 20.05 50.0 20.5 53.2 21.3 56.4 22.05 57.45 22.3 58.5 22.6 60.65 23.1 62.75 23.6 65.55 24.3 68.35 25.0 68.8 25.1 69.25 25.25 69.35 25.35 69.4 25.45 69.4 25.7 69.35 25.95 69.0 26.2 68.65 26.4 67.75 26.85 66.8 27.3 66.2 27.55 65.55 27.8 64.55 28.1 63.6 28.45 62.5 28.75 61.4 29.0 59.85 29.35 58.3 29.7 56.7 29.9 55.1 30.05 53.9 30.15 52.7 30.25 51.95 30.3 51.15 30.35 49.55 30.4 47.9 30.45 47.05 30.45 46.2 30.45 45.5 30.45 44.8 30.4 43.2 30.35 41.55 30.25 39.15 30.0 36.75 29.75 36.1 29.65 35.45 29.55 34.1 29.35 32.8 29.1 31.1 28.75 29.35 28.4 28.55 28.2 27.8 28.0 26.8 27.8 25.85 27.55 25.7 27.45 25.55 27.3 25.45 27.15 25.4 26.95 25.6 25.9 25.8 24.8 25.75 24.7 25.7 24.65 25.1 24.5 24.5 24.4 24.5 24.35 24.45 24.3 23.5 24.1 22.55 23.9 21.35 23.65 20.15 23.4 18.8 23.1 17.45 22.8 17.0 22.7 16.5 22.6 13.95 22.05 11.4 21.55 10.5 21.35 9.65 21.15 7.9 20.8 6.2 20.4 4.1 20.0 2.05 19.55 1.1 19.35 0.15 19.15 -0.1 18.85 -0.35 18.6 -0.45 17.95 M26.7 26.85 L27.05 26.95 28.6 27.3 30.2 27.7 32.0 28.05 33.8 28.4 34.4 28.5 35.0 28.6 36.1 28.75 37.2 28.95 39.45 29.15 41.7 29.4 43.05 29.5 44.4 29.55 45.25 29.55 46.05 29.6 47.4 29.55 48.7 29.55 49.85 29.5 51.0 29.45 52.0 29.4 52.95 29.35 53.7 29.3 54.45 29.25 55.75 29.1 57.05 28.95 57.85 28.85 58.6 28.75 60.0 28.45 61.4 28.15 62.55 27.8 63.7 27.5 64.7 27.15 65.65 26.85 66.3 26.6 66.95 26.3 67.25 26.15 67.55 26.0 67.7 25.95 67.85 25.9 67.8 25.8 67.7 25.75 65.95 25.3 64.2 24.85 61.3 24.15 58.4 23.45 55.65 22.8 52.95 22.1 50.8 21.6 48.7 21.1 46.85 20.65 45.05 20.2 43.0 19.7 40.95 19.2 40.4 19.05 39.85 18.95 39.1 18.75 38.4 18.55 36.4 18.1 34.45 17.6 32.9 17.25 31.4 16.85 29.85 16.5 28.25 16.1 28.0 16.35 27.7 16.65 27.3 16.6 26.85 16.55 26.7 16.8 26.55 17.1 26.25 17.85 25.95 18.6 25.6 20.2 25.2 21.8 25.1 22.7 25.0 23.55 25.05 23.6 25.1 23.65 25.8 23.8 26.5 23.9 26.65 24.1 26.75 24.3 26.55 25.45 26.3 26.65 26.35 26.7 26.4 26.8 26.7 26.85" fill="#000000" fill-rule="evenodd" stroke="none"/>
    <path d="M28.1 15.55 Q28.05 15.6 27.95 15.65 27.9 15.65 27.85 15.7 27.85 15.75 27.75 15.85 27.65 15.9 27.6 15.95 27.55 16.0 27.5 16.0 27.4 16.05 27.35 16.05 27.25 16.05 27.2 16.05 27.1 16.05 27.0 16.0 26.85 16.0 26.7 16.05 26.55 16.1 26.45 16.15 26.35 16.25 26.25 16.35 26.15 16.45 26.1 16.6 26.05 16.75 25.95 16.9 25.9 17.0 25.85 17.2 25.7 17.6 25.75 17.5 25.7 17.65 25.65 17.75 25.55 18.15 25.45 18.4 25.35 18.75 25.25 19.05 25.15 19.4 25.1 19.7 25.0 20.05 24.9 20.4 24.85 20.75 24.75 21.05 24.7 21.4 24.65 21.7 24.6 22.05 24.55 22.4 24.5 22.75 24.45 23.1 24.45 23.2 24.45 23.35 24.45 23.45 24.5 23.55 24.55 23.65 24.6 23.75 24.65 23.85 24.7 23.95 24.8 24.05 24.9 24.1 25.0 24.2 25.1 24.25 25.2 24.3 25.3 24.3 25.45 24.35 25.55 24.35 25.65 24.35 25.7 24.35 25.75 24.35 25.8 24.4 25.9 24.4 25.95 24.4 26.0 24.45 26.0 24.45 26.05 24.5 26.05 24.55 26.1 24.6 26.1 24.65 26.1 24.7 26.05 24.75 26.05 24.8 26.0 24.9 26.0 25.45 25.85 24.95 25.7 24.4 26.0 24.9 26.45 25.25 30.05 26.05 34.15 27.0 34.15 27.0 41.35 27.95 39.4 27.75 42.0 28.05 45.4 28.2 46.35 28.25 47.1 28.25 47.95 28.3 48.75 28.25 49.55 28.25 50.3 28.25 51.1 28.2 51.9 28.1 52.7 28.05 53.55 27.9 54.4 27.8 55.35 27.6 56.3 27.45 57.3 27.25 58.35 27.0 59.55 26.7 61.45 26.3 62.5 25.95 63.35 25.65 65.3 24.75 65.45 24.7 65.65 24.7 65.85 24.65 66.05 24.7 66.3 24.7 66.55 24.75 66.75 24.8 66.95 24.85 67.15 24.9 67.3 24.95 67.45 25.0 67.55 25.0 67.6 25.05 67.6 25.05 67.55 25.05 67.4 25.05 60.0 23.2 48.0 20.3 32.9 16.6 28.55 15.55 28.4 15.55 28.1 15.55 L28.1 15.55" fill="#000000" fill-opacity="0.4" fill-rule="evenodd" stroke="none"/>
  </g>
</svg>
