<?xml version="1.0" encoding="UTF-8" standalone="no"?>
<svg xmlns:xlink="http://www.w3.org/1999/xlink" height="44.0px" width="41.3px" xmlns="http://www.w3.org/2000/svg">
  <g transform="matrix(1.0, 0.0, 0.0, 1.0, 20.65, 22.0)">
    <path d="M-1.45 24.4 Q-1.05 24.2 2.75 22.4 5.3 21.2 7.05 20.55 7.7 20.3 8.35 20.1 9.0 19.9 9.7 19.7 10.35 19.55 11.05 19.4 11.75 19.3 12.45 19.2 13.1 19.1 13.8 19.0 14.5 18.95 15.2 18.9 15.9 18.85 16.65 18.85 17.3 18.8 18.05 18.8 18.1 18.8 18.1 18.8 18.15 18.8 18.2 18.85 18.25 18.85 18.25 18.85 18.3 18.85 18.35 18.85 18.4 18.85 18.4 18.85 18.45 18.85 18.5 18.85 18.5 18.8 18.55 18.8 18.55 18.75 18.55 18.7 18.6 18.55 18.65 18.4 18.75 18.25 18.85 18.15 18.95 18.0 19.05 17.9 19.15 17.8 19.3 17.7 19.4 17.6 19.55 17.5 19.7 17.4 19.85 17.35 20.0 17.25 20.15 17.2 20.3 17.15 20.5 17.05 20.65 17.0 20.75 16.95 20.85 16.9 20.95 16.8 21.05 16.75 21.1 16.7 21.15 16.6 21.2 16.55 21.25 16.45 21.3 16.35 21.35 16.25 21.35 16.15 21.35 16.1 21.35 15.95 21.35 15.85 21.35 15.75 21.3 15.45 21.3 15.15 21.35 14.85 21.35 14.6 21.4 14.3 21.45 14.0 21.55 13.75 21.65 13.45 21.75 13.2 21.85 12.9 22.0 12.65 22.15 12.4 22.3 12.15 22.45 11.9 22.6 11.65 22.8 11.4 22.9 11.25 23.0 11.1 23.1 11.0 23.2 10.85 23.25 10.7 23.3 10.55 23.35 10.45 23.4 10.3 23.4 10.15 23.45 10.0 23.45 9.85 23.4 9.7 23.4 9.6 23.35 9.45 23.3 9.3 23.25 9.15 22.95 8.5 22.2 6.8 21.5 5.3 21.1 4.45 20.95 4.1 20.8 3.7 20.7 3.3 20.55 2.9 20.45 2.5 20.4 2.1 20.3 1.75 20.2 1.3 20.15 0.95 20.1 0.55 20.05 0.15 20.0 -0.25 19.95 -0.65 19.9 -1.05 19.9 -1.4 19.85 -1.9 19.35 -7.85 18.95 -10.65 18.9 -10.8 18.9 -10.95 18.85 -11.05 18.85 -11.2 18.85 -11.3 18.8 -11.5 18.8 -11.7 18.8 -11.75 18.75 -11.95 18.75 -12.05 18.75 -12.2 18.7 -12.35 18.65 -12.5 18.6 -12.6 18.55 -12.75 18.5 -12.9 18.55 -13.05 18.55 -13.2 18.55 -13.3 18.55 -13.45 18.55 -13.6 18.55 -13.75 18.55 -13.9 18.5 -14.05 18.5 -14.15 18.45 -14.3 18.35 -15.0 18.4 -14.6 18.4 -14.75 18.35 -14.9 18.35 -15.05 18.35 -15.15 18.3 -15.5 18.3 -15.7 18.3 -16.0 18.25 -16.25 18.25 -16.5 18.25 -16.75 18.2 -17.05 18.2 -17.3 18.2 -17.55 18.2 -17.8 18.25 -18.1 18.25 -18.35 18.3 -18.65 18.3 -18.9 18.35 -19.15 18.45 -19.4 18.45 -19.45 18.45 -19.55 18.45 -19.6 18.5 -19.65 18.5 -19.75 18.55 -19.8 18.55 -19.85 18.6 -19.9 18.6 -19.95 18.65 -20.0 18.7 -20.05 18.7 -20.1 18.75 -20.15 18.8 -20.2 18.8 -20.25 18.85 -20.3 18.9 -20.3 18.95 -20.35 19.0 -20.4 19.1 -20.45 19.15 -20.45 19.25 -20.5 19.35 -20.5 19.4 -20.5 19.5 -20.5 19.6 -20.5 19.65 -20.5 19.75 -20.45 19.85 -20.45 19.9 -20.45 20.0 -20.4 20.05 -20.4 20.1 -20.35 20.15 -20.35 20.3 -20.25 20.45 -20.1 20.55 -19.9 20.6 -19.7 20.65 -19.45 20.65 -19.15 20.65 -18.9 20.65 -18.55 20.65 -18.25 20.6 -17.85 20.6 -17.75 20.55 -17.05 20.5 -16.55 20.45 -16.2 20.4 -15.7 20.4 -15.25 20.4 -14.55 20.4 -14.1 20.45 -13.7 20.55 -13.1 18.1 -27.5 20.8 -11.55 21.05 -10.3 21.25 -8.85 21.65 -6.2 21.9 -2.3 21.95 -1.7 22.0 -1.15 22.05 -0.55 22.15 0.0 22.25 0.6 22.35 1.15 22.45 1.7 22.6 2.3 22.75 2.85 22.95 3.4 23.1 3.95 23.35 4.5 23.55 5.05 23.8 5.6 24.05 6.15 24.35 6.65 24.45 6.85 24.55 7.0 24.65 7.15 24.7 7.35 24.8 7.5 24.85 7.7 24.95 7.85 25.0 8.05 25.1 8.25 25.15 8.4 25.25 8.6 25.3 8.75 25.35 8.95 25.4 9.15 25.45 9.3 25.45 9.5 25.5 9.7 25.5 9.85 25.5 10.05 25.5 10.2 25.5 10.35 25.5 10.55 25.45 10.7 25.4 10.85 25.35 11.05 25.3 11.2 25.2 11.35 25.15 11.5 25.05 11.65 24.95 11.8 24.85 11.95 24.7 12.1 24.55 12.35 24.4 12.55 24.2 12.75 24.1 13.0 23.95 13.25 23.85 13.45 23.75 13.7 23.65 13.95 23.55 14.15 23.5 14.4 23.45 14.65 23.4 14.9 23.4 15.15 23.4 15.4 23.4 15.7 23.45 15.95 23.45 16.15 23.45 16.3 23.45 16.5 23.45 16.65 23.4 16.8 23.35 16.95 23.3 17.15 23.2 17.25 23.1 17.4 23.0 17.55 22.9 17.7 22.75 17.8 22.6 17.95 22.45 18.05 22.3 18.15 22.1 18.25 22.05 18.25 21.75 18.45 21.5 18.55 21.35 18.6 21.2 18.65 21.1 18.7 21.0 18.75 20.9 18.8 20.8 18.9 20.75 18.95 20.7 19.0 20.65 19.1 20.6 19.2 20.55 19.25 20.55 19.35 20.55 19.45 20.55 19.55 20.55 19.65 20.55 19.75 20.55 19.9 20.6 20.1 20.6 20.15 20.65 20.3 20.65 20.35 20.65 20.45 20.65 20.5 20.6 20.55 20.55 20.55 20.55 20.6 20.45 20.6 20.4 20.65 20.3 20.65 20.2 20.65 20.05 20.6 20.05 20.6 19.7 20.6 18.85 20.55 18.0 20.55 17.15 20.55 16.3 20.55 15.45 20.6 14.65 20.65 13.8 20.7 13.0 20.8 12.15 20.95 11.35 21.1 10.55 21.25 9.75 21.5 8.95 21.7 8.2 22.0 7.4 22.25 6.65 22.6 5.95 22.9 5.3 23.2 4.6 23.5 3.9 23.85 3.25 24.15 2.55 24.45 1.9 24.8 1.2 25.1 0.55 25.4 -0.1 25.75 -0.8 26.1 -1.45 26.4 -2.15 26.75 -2.8 27.1 -3.45 27.4 -4.1 27.75 -4.25 27.85 -4.35 27.9 -4.5 27.95 -4.6 28.05 -4.75 28.1 -4.85 28.15 -5.0 28.25 -5.15 28.3 -5.25 28.35 -5.4 28.4 -5.55 28.45 -5.7 28.5 -5.8 28.55 -5.95 28.6 -6.1 28.65 -6.25 28.65 -6.45 28.7 -6.6 28.7 -6.75 28.7 -6.9 28.7 -7.05 28.7 -7.2 28.65 -7.3 28.6 -7.45 28.55 -7.55 28.5 -7.65 28.4 -7.75 28.3 -7.8 28.2 -7.85 28.1 -7.9 27.95 -7.95 27.85 -7.95 27.7 -7.95 27.6 -7.95 27.5 -7.95 27.4 -8.0 27.3 -8.0 27.2 -8.0 27.1 -8.0 27.0 -8.0 26.9 -7.95 26.8 -7.95 26.7 -7.95 26.6 -7.95 26.5 -7.9 26.4 -7.9 26.35 -7.85 26.25 -7.85 26.15 -7.8 26.1 -7.8 26.05 -7.8 25.95 -7.8 25.9 -7.8 25.9 -7.8 25.85 -7.8 25.8 -7.85 25.75 -7.85 25.75 -7.9 25.7 -7.95 25.65 -8.0 25.65 -8.05 25.6 -8.1 25.6 -8.15 25.6 -8.25 25.6 -8.3 25.6 -8.75 25.4 -9.0 25.3 -9.2 25.2 -9.45 25.1 -9.6 24.95 -9.75 24.85 -9.9 24.7 -10.0 24.6 -10.1 24.45 -10.15 24.3 -10.2 24.15 -10.25 23.95 -10.25 23.8 -10.25 23.6 -10.2 23.4 -10.2 23.2 -10.1 22.95 -10.05 22.9 -10.05 22.8 -10.0 22.7 -9.95 22.65 -9.95 22.65 -9.85 22.45 -9.8 22.35 -9.75 22.3 -9.7 22.2 -9.7 22.15 -9.65 22.05 -9.65 22.0 -9.6 21.9 -9.6 21.85 -9.65 21.75 -9.65 21.7 -9.7 21.65 -9.75 21.6 -9.8 21.5 -9.85 21.45 -9.95 21.4 -10.0 21.4 -10.1 21.35 -10.2 21.3 -10.3 21.25 -10.4 21.2 -10.55 21.15 -10.6 21.1 -10.7 21.05 -10.8 21.05 -10.9 21.0 -11.0 20.95 -11.2 20.8 -11.4 20.7 -11.6 20.55 -11.75 20.45 -11.95 20.3 -12.1 20.15 -12.25 20.0 -12.35 19.85 -12.5 19.7 -12.6 19.55 -12.7 19.35 -12.75 19.15 -12.8 19.0 -12.85 18.75 -12.85 18.55 -12.85 18.35 -12.8 18.0 -12.75 17.95 -12.55 17.55 -12.4 17.05 -12.25 16.65 -12.1 16.2 -12.0 15.75 -11.9 15.3 -11.8 14.9 -11.7 14.4 -11.6 14.0 -11.5 13.5 -11.45 13.15 -11.35 12.6 -11.05 10.7 -11.2 11.7 -11.1 11.15 -11.05 10.8 -10.9 9.85 -10.7 8.95 -10.5 8.0 -10.3 7.05 -10.1 6.15 -9.9 5.2 -9.7 4.25 -9.5 3.35 -9.25 2.4 -9.05 1.5 -8.8 0.55 -8.55 -0.35 -8.35 -1.3 -8.05 -2.2 -7.85 -3.15 -7.55 -4.05 -7.5 -4.2 -6.45 -7.55 -5.55 -10.5 -5.1 -12.6 -4.35 -15.65 -4.35 -16.9 -4.35 -17.5 -4.25 -18.5 -4.15 -19.65 -4.15 -20.1 -4.15 -20.4 -4.15 -20.45 -4.15 -20.6 -4.1 -20.75 -4.1 -20.9 -4.1 -21.05 -4.1 -21.15 -4.05 -21.3 -4.05 -21.4 -4.0 -21.5 -3.95 -21.6 -3.9 -21.7 -3.85 -21.8 -3.8 -21.85 -3.75 -21.95 -3.65 -22.0 -3.6 -22.05 -3.5 -22.1 -3.4 -22.15 -3.3 -22.15 -3.25 -22.2 -3.15 -22.2 -3.05 -22.2 -2.95 -22.2 -2.85 -22.2 -2.75 -22.2 -2.65 -22.2 -2.55 -22.15 -2.5 -22.15 -2.4 -22.1 -2.3 -22.05 -2.25 -22.0 -2.15 -21.95 -2.1 -21.85 -2.05 -21.75 -2.0 -21.65 -1.95 -21.55 -1.95 -21.45 -1.9 -21.35 -1.9 -21.25 -1.9 -21.1 -1.9 -21.0 -1.9 -20.85 -1.9 -20.75 -1.9 -20.6 -1.9 -20.45 -1.95 -20.35 -1.95 -20.2 -2.35 -16.5 -2.55 -15.5 -2.75 -14.55 -2.85 -13.95 -2.95 -13.05 -2.95 -13.1 -3.05 -12.55 -3.3 -11.6 -7.1 1.5 -8.45 8.1 -8.6 8.8 -9.2 12.15 -9.65 14.65 -10.0 16.2 -10.05 16.3 -10.05 16.45 -10.1 16.55 -10.15 16.65 -10.15 16.8 -10.2 16.9 -10.25 17.05 -10.3 17.15 -10.3 17.25 -10.35 17.35 -10.4 17.5 -10.45 17.6 -10.5 17.7 -10.55 17.8 -10.6 17.95 -10.65 18.05 -10.7 18.15 -10.7 18.25 -10.75 18.3 -10.75 18.4 -10.75 18.5 -10.75 18.55 -10.75 18.65 -10.7 18.7 -10.7 18.8 -10.65 18.85 -10.6 18.95 -10.55 19.0 -10.5 19.05 -10.4 19.15 -10.35 19.2 -10.25 19.25 -10.1 19.35 -9.95 19.45 -9.85 19.5 -9.7 19.6 -9.55 19.7 -9.4 19.75 -9.25 19.85 -9.1 19.9 -8.95 20.0 -8.8 20.05 -8.65 20.15 -8.5 20.2 -8.35 20.25 -8.2 20.3 -8.0 20.4 -7.85 20.45 -7.7 20.5 -7.55 20.55 -7.45 20.6 -7.35 20.7 -7.25 20.75 -7.2 20.85 -7.1 20.9 -7.1 21.0 -7.05 21.05 -7.05 21.15 -7.05 21.25 -7.05 21.35 -7.05 21.45 -7.1 21.55 -7.15 21.7 -7.25 21.8 -7.3 21.9 -7.35 22.0 -7.45 22.1 -7.5 22.2 -7.55 22.3 -7.6 22.4 -7.65 22.45 -7.7 22.55 -7.75 22.65 -7.8 22.75 -7.85 22.85 -7.9 22.95 -7.95 23.05 -8.0 23.15 -8.05 23.25 -8.1 23.35 -8.1 23.4 -8.15 23.45 -8.15 23.5 -8.15 23.55 -8.15 23.6 -8.15 23.65 -8.15 23.65 -8.1 23.7 -8.1 23.75 -8.05 23.75 -8.05 23.8 -8.0 23.8 -7.95 23.85 -7.9 23.85 -7.85 23.9 -7.8 23.9 -6.5 24.25 -6.1 24.2 -5.95 24.4 -5.6 24.75 -5.55 24.85 -5.55 25.0 -5.5 25.1 -5.5 25.2 -5.5 25.3 -5.55 25.45 -5.55 25.55 -5.6 25.65 -5.6 25.75 -5.65 25.9 -5.7 26.1 -5.7 26.15 -5.75 26.3 -5.8 26.4 -5.8 26.55 -5.85 26.7 -4.7 26.1 -2.7 25.0 -2.3 24.8 -1.45 24.4 L-1.45 24.4" fill="#040404" fill-rule="evenodd" stroke="none"/>
    <path d="M-5.6 24.75 Q-5.75 24.55 -6.1 24.2 -6.0 24.1 -5.85 24.05 -5.75 23.95 -5.6 23.9 -5.45 23.8 -5.3 23.75 -5.2 23.7 -5.0 23.6 -4.8 23.55 -4.75 23.5 -4.55 23.4 -4.45 23.35 -4.3 23.3 -4.15 23.2 -4.05 23.15 -3.9 23.05 -3.9 23.0 -3.95 23.0 -4.0 22.95 -4.0 22.95 -4.05 22.9 -4.1 22.9 -4.15 22.9 -4.15 22.9 -4.2 22.9 -4.25 22.85 -4.2 22.9 -4.3 22.85 -4.35 22.85 -4.4 22.85 -4.45 22.85 -4.45 22.85 -4.6 22.8 -4.75 22.7 -4.9 22.65 -5.05 22.55 -5.15 22.5 -5.25 22.4 -5.35 22.3 -5.4 22.2 -5.45 22.1 -5.5 22.0 -5.55 21.9 -5.55 21.75 -5.55 21.65 -5.55 21.5 -5.55 21.35 -5.5 21.2 -5.4 20.85 -5.35 20.7 -5.3 20.45 -5.25 20.3 -5.25 20.1 -5.25 19.95 -5.25 19.85 -5.3 19.7 -5.35 19.6 -5.45 19.5 -5.55 19.4 -5.75 19.3 -5.9 19.2 -6.15 19.05 -6.3 18.95 -6.7 18.75 -6.85 18.65 -7.45 18.35 -7.7 18.2 -7.85 18.1 -8.1 17.95 -8.25 17.8 -8.4 17.65 -8.55 17.5 -8.7 17.35 -8.8 17.15 -8.9 16.95 -8.95 16.75 -9.0 16.55 -9.0 16.3 -8.95 16.05 -8.9 15.8 -8.85 15.55 -8.7 15.25 -8.35 14.4 -7.95 12.9 -7.5 11.2 -7.3 10.55 -6.85 9.25 -5.75 6.4 -4.7 3.65 -4.2 2.2 -3.2 -0.5 -2.8 -1.15 -2.85 -0.9 -2.85 -0.7 -2.9 -0.45 -2.95 -0.25 -3.0 0.0 -3.05 0.2 -3.1 0.45 -3.15 0.7 -3.2 0.9 -3.25 1.15 -3.3 1.35 -3.35 1.6 -3.45 1.8 -3.5 2.05 -3.55 2.25 -3.65 2.45 -5.1 6.8 -7.25 14.65 -7.3 14.9 -7.7 15.85 -7.75 16.0 -7.75 16.1 -7.8 16.2 -7.8 16.3 -7.8 16.4 -7.8 16.5 -7.8 16.6 -7.75 16.7 -7.75 16.75 -7.7 16.85 -7.65 16.9 -7.55 17.0 -7.5 17.1 -7.4 17.15 -7.3 17.25 -7.15 17.3 -6.95 17.4 -5.45 18.25 -5.2 18.4 -5.0 18.55 -4.75 18.7 -4.6 18.8 -4.45 18.95 -4.35 19.1 -4.2 19.25 -4.15 19.4 -4.1 19.55 -4.05 19.75 -4.0 19.9 -4.0 20.1 -4.05 20.3 -4.05 20.5 -4.1 20.75 -4.2 21.0 -4.25 21.1 -4.3 21.25 -4.35 21.4 -4.35 21.45 -4.35 21.55 -4.35 21.6 -4.35 21.65 -4.35 21.7 -4.3 21.75 -4.25 21.8 -4.2 21.8 -4.1 21.85 -4.0 21.9 -3.85 21.95 -3.6 22.0 -3.5 22.05 -3.3 22.15 -3.05 22.15 -2.85 22.2 -2.65 22.2 -2.5 22.2 -2.3 22.15 -2.15 22.1 -1.95 22.05 -1.8 22.0 -1.65 21.9 -1.5 21.85 -1.35 21.75 -1.25 21.65 -1.1 21.55 -1.0 21.5 -0.85 21.35 -0.45 21.05 0.0 20.75 0.4 20.45 0.85 20.15 1.3 19.85 1.7 19.6 2.15 19.3 2.6 19.05 3.05 18.8 3.55 18.5 4.0 18.25 4.45 18.05 4.95 17.8 5.4 17.55 5.9 17.3 6.4 17.1 6.85 16.9 7.2 16.75 7.6 16.55 8.0 16.35 8.45 16.2 8.8 16.05 9.25 15.85 9.65 15.7 10.1 15.55 10.5 15.45 10.95 15.3 11.35 15.2 11.8 15.1 12.25 15.0 12.7 14.9 13.15 14.85 13.4 14.85 13.6 14.8 13.85 14.8 14.05 14.8 14.3 14.8 14.5 14.8 14.75 14.8 14.95 14.8 15.2 14.85 15.4 14.9 15.6 14.95 15.8 15.0 16.05 15.1 16.25 15.15 16.45 15.25 16.65 15.4 16.7 15.4 16.7 15.45 16.75 15.5 16.8 15.55 16.85 15.6 16.85 15.6 16.8 15.65 16.75 15.7 16.7 15.7 16.65 15.7 16.15 15.65 15.7 15.6 15.2 15.55 14.75 15.55 14.3 15.55 13.8 15.6 13.35 15.6 12.9 15.7 12.45 15.75 12.0 15.85 11.55 15.95 11.1 16.05 10.65 16.2 10.2 16.35 9.8 16.5 9.35 16.65 8.9 16.85 8.5 17.0 8.05 17.2 7.7 17.35 7.25 17.55 6.85 17.7 6.45 17.9 6.05 18.1 5.65 18.3 5.25 18.5 4.85 18.7 4.45 18.9 4.05 19.15 3.7 19.35 3.3 19.6 2.95 19.8 2.95 19.8 2.75 19.85 2.65 19.9 2.7 19.95 2.7 20.0 2.75 20.0 2.75 20.0 2.8 20.0 2.85 20.0 2.9 20.0 2.9 20.0 2.95 19.95 3.0 19.95 3.05 19.9 7.85 18.2 11.1 17.5 11.4 17.45 11.6 17.4 11.85 17.35 12.05 17.3 12.3 17.25 12.55 17.2 12.8 17.15 13.05 17.15 13.3 17.1 13.5 17.1 13.8 17.1 14.0 17.1 14.25 17.1 14.5 17.15 14.75 17.2 15.0 17.25 15.05 17.25 15.1 17.25 15.15 17.25 15.2 17.3 15.25 17.3 15.3 17.3 15.35 17.3 15.35 17.35 15.4 17.35 15.45 17.35 15.5 17.4 15.55 17.4 15.6 17.4 15.65 17.45 15.7 17.45 15.75 17.5 15.4 17.5 15.1 17.55 14.75 17.6 14.45 17.65 14.1 17.7 13.8 17.75 13.5 17.8 13.15 17.85 12.85 17.9 12.5 17.95 12.2 18.05 11.9 18.1 11.6 18.15 11.25 18.25 10.95 18.3 10.6 18.4 9.95 18.55 9.3 18.75 8.65 18.9 8.0 19.1 7.35 19.25 6.7 19.45 6.1 19.65 5.45 19.9 4.8 20.1 4.2 20.35 3.55 20.55 2.95 20.8 2.35 21.05 1.7 21.3 1.1 21.55 0.5 21.85 0.4 21.9 0.25 21.95 0.15 22.0 0.05 22.0 -0.05 22.05 -0.2 22.1 -0.35 22.15 -0.45 22.2 -0.6 22.25 -0.7 22.25 -0.8 22.3 -0.9 22.35 -1.05 22.4 -1.15 22.45 -1.25 22.5 -1.4 22.6 -1.5 22.65 -1.55 22.7 -1.6 22.75 -1.7 22.75 -1.75 22.8 -1.8 22.85 -1.85 22.9 -1.85 22.95 -1.9 23.0 -1.9 23.1 -1.9 23.15 -1.9 23.2 -1.9 23.25 -1.9 23.35 -1.85 23.4 -1.8 23.5 -1.8 23.55 -1.75 23.6 -1.75 23.65 -1.75 23.75 -1.75 23.75 -1.75 23.85 -1.75 23.95 -1.7 23.95 -1.7 24.05 -1.7 24.1 -1.7 24.15 -1.65 24.2 -1.6 24.25 -1.6 24.3 -1.55 24.35 -1.45 24.4 -1.85 24.6 -2.7 25.0 -2.75 24.85 -2.8 24.45 -2.85 24.1 -2.9 23.9 -2.9 23.85 -2.9 23.8 -2.95 23.75 -2.95 23.75 -3.0 23.7 -3.0 23.7 -3.0 23.65 -3.05 23.65 -3.1 23.65 -3.1 23.65 -3.15 23.65 -3.2 23.65 -3.25 23.65 -3.3 23.65 -3.35 23.7 -3.4 23.7 -4.9 24.5 -5.6 24.75 L-5.6 24.75" fill="#040404" fill-opacity="0.23137255" fill-rule="evenodd" stroke="none"/>
    <path d="M18.5 -12.9 Q18.55 -12.75 18.6 -12.6 18.65 -12.5 18.7 -12.35 18.7 -12.2 18.75 -12.05 18.75 -11.95 18.8 -11.8 18.8 -11.7 18.8 -11.5 18.85 -11.3 18.85 -11.2 18.85 -11.05 18.9 -10.95 18.9 -10.8 18.95 -10.65 18.9 -10.65 18.85 -10.65 18.8 -10.65 18.75 -10.6 18.7 -10.6 18.65 -10.55 18.65 -10.55 18.6 -10.5 18.6 -10.45 18.55 -10.45 18.55 -10.4 18.5 -10.35 18.5 -10.3 18.45 -10.3 18.45 -10.25 18.45 -10.25 18.35 -10.1 18.2 -9.95 18.1 -9.85 17.95 -9.7 17.85 -9.55 17.7 -9.45 17.55 -9.3 17.45 -9.2 17.3 -9.05 17.15 -8.95 17.0 -8.85 16.85 -8.75 16.7 -8.6 16.55 -8.5 16.4 -8.4 16.25 -8.3 15.95 -8.15 15.65 -8.0 15.35 -7.9 15.05 -7.8 14.75 -7.7 14.45 -7.65 14.15 -7.6 13.85 -7.55 13.55 -7.55 13.2 -7.55 12.9 -7.55 12.6 -7.6 12.25 -7.6 11.95 -7.7 11.65 -7.75 11.3 -7.85 10.6 -8.05 9.95 -8.25 9.25 -8.5 8.65 -8.75 8.0 -9.0 7.35 -9.25 6.75 -9.55 6.15 -9.85 5.55 -10.15 4.95 -10.5 4.4 -10.85 3.85 -11.2 3.3 -11.6 2.75 -12.0 2.25 -12.4 1.75 -12.85 1.75 -12.85 1.8 -12.9 2.35 -12.65 2.95 -12.4 3.55 -12.2 4.15 -12.0 4.7 -11.8 5.35 -11.65 5.95 -11.5 6.55 -11.4 7.15 -11.3 7.8 -11.2 8.4 -11.1 9.05 -11.05 9.7 -11.0 10.35 -11.0 10.95 -10.95 11.6 -10.95 12.1 -10.95 12.5 -10.95 13.0 -10.95 13.45 -11.0 13.9 -11.0 14.3 -11.05 14.8 -11.15 15.2 -11.25 15.65 -11.3 16.0 -11.45 16.45 -11.6 16.8 -11.8 17.2 -12.0 17.55 -12.25 17.95 -12.5 18.25 -12.8 18.3 -12.8 18.35 -12.85 18.35 -12.85 18.4 -12.85 18.5 -12.85 18.5 -12.9 L18.5 -12.9 M18.25 -11.7 Q18.1 -11.6 17.95 -11.55 17.8 -11.45 17.65 -11.35 17.5 -11.3 17.35 -11.2 17.2 -11.1 17.05 -11.05 16.9 -11.0 16.7 -10.9 16.55 -10.85 16.4 -10.8 16.2 -10.75 16.05 -10.7 15.85 -10.65 15.7 -10.6 15.35 -10.5 15.0 -10.45 14.65 -10.4 14.3 -10.35 13.95 -10.3 13.55 -10.3 13.2 -10.25 12.85 -10.25 12.5 -10.2 12.15 -10.2 11.8 -10.2 11.45 -10.2 11.1 -10.2 10.7 -10.25 10.35 -10.25 10.0 -10.25 9.9 -10.25 6.2 -10.65 6.55 -10.5 6.8 -10.35 7.1 -10.2 7.4 -10.1 7.7 -9.95 8.0 -9.85 8.35 -9.7 8.65 -9.55 8.95 -9.45 9.25 -9.3 9.55 -9.2 9.85 -9.1 10.2 -8.95 10.5 -8.85 10.85 -8.75 11.15 -8.65 11.35 -8.6 11.5 -8.55 11.7 -8.5 11.85 -8.45 12.05 -8.4 12.2 -8.4 12.4 -8.35 12.55 -8.3 12.75 -8.3 12.9 -8.3 13.1 -8.25 13.3 -8.25 13.45 -8.25 13.65 -8.3 13.85 -8.3 14.0 -8.35 14.4 -8.4 14.8 -8.55 15.15 -8.65 15.5 -8.8 15.8 -8.95 16.1 -9.15 16.4 -9.35 16.65 -9.55 16.9 -9.8 17.15 -10.05 17.35 -10.25 17.6 -10.55 17.8 -10.8 17.95 -11.1 18.15 -11.35 18.35 -11.65 18.35 -11.7 18.35 -11.7 18.35 -11.75 18.4 -11.8 18.35 -11.75 18.3 -11.75 18.3 -11.75 18.25 -11.7 L18.25 -11.7" fill="#040404" fill-opacity="0.23137255" fill-rule="evenodd" stroke="none"/>
    <path d="M1.75 -12.85 Q1.7 -12.85 1.65 -12.85 1.6 -12.9 1.6 -12.9 1.55 -12.9 1.5 -12.95 1.5 -12.95 1.45 -13.0 1.45 -13.0 1.4 -13.05 1.45 -13.05 1.5 -13.05 1.5 -13.05 1.55 -13.05 1.6 -13.05 1.6 -13.05 1.65 -13.05 1.65 -13.05 1.7 -13.0 1.7 -13.0 1.75 -13.0 1.75 -12.95 1.8 -12.95 1.8 -12.9 1.85 -12.85 1.85 -12.85 1.8 -12.9 1.75 -12.85 L1.75 -12.85" fill="#040404" fill-opacity="0.23137255" fill-rule="evenodd" stroke="none"/>
  </g>
</svg>
