<?xml version="1.0" encoding="UTF-8" standalone="no"?>
<svg xmlns:xlink="http://www.w3.org/1999/xlink" height="16.85px" width="26.85px" xmlns="http://www.w3.org/2000/svg">
  <g transform="matrix(1.0, 0.0, 0.0, 1.0, 0.0, 0.0)">
    <path d="M8.0 9.7 Q8.15 9.65 8.3 9.55 8.4 9.45 8.5 9.3 8.55 9.15 8.65 8.95 8.7 8.8 8.8 8.5 8.85 8.45 9.0 7.95 9.1 7.55 9.2 7.25 9.35 6.85 9.45 6.45 9.65 5.95 9.85 5.5 10.0 5.15 10.1 4.95 10.25 4.65 10.35 4.4 10.45 4.15 10.6 3.9 10.7 3.7 10.85 3.5 10.95 3.25 11.1 3.1 11.25 2.9 11.4 2.7 11.55 2.55 11.75 2.4 11.9 2.25 12.1 2.1 12.2 2.05 12.3 1.95 12.45 1.9 12.55 1.85 12.7 1.8 12.85 1.75 13.0 1.7 13.15 1.6 13.3 1.55 13.5 1.5 13.7 1.45 13.95 1.4 14.15 1.35 14.4 1.3 14.55 1.25 14.95 1.15 15.2 1.1 15.4 1.05 15.65 0.95 15.9 0.9 16.15 0.85 16.35 0.8 16.65 0.75 16.9 0.7 17.15 0.65 17.4 0.6 17.7 0.55 18.0 0.5 18.3 0.45 18.6 0.45 18.9 0.4 19.25 0.35 19.7 0.3 19.75 0.3 20.0 0.3 20.2 0.3 20.4 0.3 20.6 0.3 20.8 0.3 20.95 0.3 21.15 0.3 21.35 0.3 21.55 0.3 21.7 0.3 21.9 0.35 22.05 0.35 22.25 0.4 22.45 0.45 22.6 0.5 22.7 0.5 22.85 0.55 22.95 0.6 23.15 0.6 23.3 0.65 23.5 0.75 23.65 0.8 23.85 0.9 24.05 0.95 24.25 1.05 24.45 1.15 24.7 1.3 24.9 1.4 25.1 1.55 25.3 1.7 25.75 2.05 26.15 2.55 26.5 3.0 26.75 3.5 27.0 4.0 27.2 4.5 27.35 5.0 27.45 5.5 27.55 5.95 27.6 6.45 27.65 6.85 27.7 7.25 27.7 7.55 27.7 7.85 27.7 8.05 27.7 8.2 27.7 8.45 27.65 8.7 27.65 8.9 27.6 9.15 27.55 9.3 27.55 9.55 27.45 9.9 27.45 9.9 27.4 10.1 27.4 10.25 27.35 10.45 27.35 10.65 27.35 10.9 27.35 11.15 27.35 11.4 27.35 11.7 27.5 13.8 27.45 14.4 27.4 14.6 27.4 14.65 27.4 14.8 27.35 14.95 27.3 15.1 27.3 15.25 27.25 15.4 27.2 15.55 27.15 15.7 27.1 15.85 27.0 15.95 26.95 16.05 26.85 16.2 26.75 16.25 26.65 16.35 26.55 16.4 26.5 16.4 26.45 16.4 26.4 16.45 26.35 16.4 26.3 16.4 26.25 16.4 26.2 16.4 26.1 16.35 26.05 16.3 26.0 16.3 25.9 16.3 25.85 16.25 25.75 16.25 25.65 16.2 25.55 16.2 25.45 16.2 25.3 16.2 25.2 16.2 25.1 16.2 24.95 16.2 24.85 16.2 24.75 16.25 24.7 16.25 24.55 16.3 24.35 16.35 24.35 16.35 24.25 16.4 24.1 16.4 23.95 16.45 23.8 16.5 23.65 16.5 23.45 16.55 23.4 16.55 23.3 16.55 23.2 16.55 23.15 16.55 23.05 16.6 22.95 16.6 22.9 16.6 22.8 16.6 22.7 16.6 22.6 16.6 22.5 16.6 22.4 16.6 22.3 16.55 22.2 16.55 22.05 16.55 21.95 16.55 21.85 16.55 21.7 16.5 21.6 16.5 21.5 16.45 21.45 16.45 21.35 16.4 21.25 16.35 21.2 16.35 21.15 16.35 21.1 16.35 21.0 16.3 20.95 16.3 20.9 16.3 20.85 16.3 20.75 16.3 20.7 16.35 20.6 16.35 20.5 16.4 20.45 16.45 20.35 16.5 20.3 16.55 20.25 16.6 20.2 16.65 20.15 16.7 20.05 16.75 20.05 16.8 19.95 16.85 19.9 16.9 19.85 16.95 19.75 16.95 19.7 17.0 19.6 17.05 19.55 17.05 19.45 17.05 19.4 17.05 19.35 17.05 19.3 17.05 19.25 17.05 19.2 17.0 19.1 17.0 19.0 16.95 19.0 16.95 18.9 16.95 18.8 16.9 18.7 16.9 18.6 16.9 18.45 16.85 18.3 16.85 18.25 16.85 18.2 16.85 18.15 16.85 18.1 16.85 18.05 16.85 18.0 16.85 17.95 16.85 17.85 16.85 17.8 16.85 17.75 16.85 17.65 16.85 17.6 16.85 17.5 16.85 17.45 16.85 17.35 16.85 17.3 16.85 17.15 16.85 17.0 16.9 16.85 16.9 16.75 16.95 16.65 16.95 16.55 17.0 16.5 17.0 16.4 17.05 16.3 17.05 16.25 17.1 16.15 17.1 16.1 17.1 16.0 17.1 15.95 17.1 15.85 17.1 15.75 17.1 15.65 17.1 15.55 17.05 15.55 17.05 15.45 17.0 15.3 16.9 15.2 16.85 15.0 16.8 14.7 16.7 14.6 16.65 14.5 16.65 14.4 16.6 14.35 16.55 14.25 16.55 14.2 16.5 14.1 16.5 14.05 16.45 14.0 16.45 13.95 16.45 13.85 16.4 13.8 16.4 13.75 16.4 13.7 16.4 13.65 16.4 13.55 16.4 13.45 16.4 13.4 16.4 13.3 16.4 13.25 16.4 13.2 16.4 13.15 16.45 13.1 16.45 13.05 16.45 12.95 16.5 12.95 16.5 12.9 16.5 12.85 16.5 12.8 16.5 12.75 16.5 12.7 16.5 12.6 16.5 12.5 16.5 12.45 16.45 12.4 16.45 12.35 16.4 12.3 16.35 12.25 16.3 12.2 16.3 12.15 16.25 11.95 16.05 12.05 16.15 12.0 16.1 11.95 16.05 11.9 15.95 11.8 15.9 11.75 15.85 11.65 15.8 11.6 15.75 11.5 15.75 11.45 15.7 11.4 15.7 11.35 15.65 11.3 15.65 11.25 15.65 11.15 15.6 10.5 15.5 11.0 15.6 10.85 15.55 10.75 15.55 10.65 15.5 10.5 15.5 10.3 15.45 10.1 15.4 9.15 15.1 8.9 14.95 8.8 14.9 8.65 14.8 8.6 14.75 8.5 14.65 8.45 14.6 8.4 14.55 8.35 14.5 8.25 14.4 8.2 14.35 8.2 14.3 8.1 14.25 8.1 14.2 8.0 14.15 7.95 14.1 7.9 14.1 7.8 14.05 7.65 14.0 7.55 14.0 7.45 13.95 7.3 14.0 7.2 14.0 7.1 14.0 7.05 14.05 6.9 14.05 6.8 14.1 6.75 14.1 6.65 14.15 6.55 14.15 6.45 14.15 6.35 14.15 6.25 14.15 6.15 14.1 6.05 14.05 6.0 14.0 5.9 13.95 5.85 13.85 5.8 13.8 5.75 13.75 5.75 13.7 5.7 13.6 5.65 13.45 5.6 13.4 5.55 13.3 5.45 13.25 5.4 13.15 5.3 13.05 5.2 12.95 5.05 12.85 5.0 12.8 4.9 12.75 4.85 12.7 4.8 12.7 4.7 12.65 4.65 12.6 4.6 12.6 4.55 12.55 4.5 12.55 4.45 12.5 4.4 12.5 4.35 12.5 4.3 12.45 4.25 12.45 4.2 12.45 4.2 12.45 4.05 12.4 3.95 12.4 3.8 12.35 3.7 12.35 3.6 12.35 3.5 12.35 3.45 12.4 3.35 12.4 3.2 12.4 3.2 12.4 3.1 12.4 3.05 12.4 3.0 12.4 2.95 12.4 2.85 12.4 2.8 12.35 2.7 12.3 2.6 12.15 2.5 12.05 2.45 11.9 2.4 11.75 2.35 11.55 2.35 11.4 2.3 11.15 2.3 10.95 2.3 10.75 2.3 10.55 2.3 10.3 2.35 10.15 2.35 9.9 2.35 9.75 2.4 9.55 2.4 9.35 2.45 9.2 2.45 9.0 2.5 8.85 2.5 8.7 2.55 8.55 2.55 8.4 2.6 8.25 2.6 8.1 2.65 7.95 2.7 7.85 2.7 7.7 2.75 7.6 2.8 7.5 2.8 7.4 2.85 7.3 3.9 7.9 5.3 8.65 5.7 8.85 6.0 9.0 6.3 9.2 6.55 9.3 6.8 9.4 7.0 9.5 7.2 9.6 7.3 9.65 7.45 9.7 7.55 9.7 7.65 9.75 7.75 9.75 7.8 9.75 7.85 9.75 7.9 9.75 8.0 9.7 L8.0 9.7" fill="#37ffe0" fill-rule="evenodd" stroke="none"/>
    <path d="M10.85 -6.05 Q10.9 -5.7 10.95 -5.35 10.95 -5.05 11.0 -4.75 11.0 -4.5 11.05 -4.25 11.05 -4.0 11.05 -3.8 11.05 -3.6 11.05 -3.45 11.0 -3.25 11.0 -3.15 11.0 -3.0 10.95 -2.9 10.95 -2.8 10.95 -2.7 10.95 -2.65 10.95 -2.65 10.9 -2.6 10.9 -2.55 10.9 -2.5 10.85 -2.45 10.85 -2.4 10.85 -2.35 10.85 -2.3 10.85 -2.2 10.85 -2.15 10.85 -2.1 10.9 -2.05 10.9 -1.95 10.95 -1.9 10.95 -1.85 11.0 -1.8 11.0 -1.8 11.05 -1.75 11.1 -1.7 11.1 -1.7 11.15 -1.65 11.2 -1.65 11.2 -1.65 11.25 -1.6 11.3 -1.6 11.3 -1.6 11.35 -1.55 11.4 -1.55 11.4 -1.55 11.45 -1.55 11.45 -1.55 11.75 -1.5 12.05 -1.45 12.4 -1.4 12.7 -1.35 13.05 -1.35 13.35 -1.35 13.65 -1.35 13.95 -1.35 14.25 -1.35 14.5 -1.35 14.7 -1.35 14.9 -1.4 15.05 -1.4 15.2 -1.4 15.25 -1.4 15.3 -1.45 18.9 -1.85 20.15 -1.7 20.4 -1.65 20.3 -1.7 20.45 -1.65 20.5 -1.65 20.6 -1.65 20.7 -1.65 20.85 -1.65 20.95 -1.65 21.05 -1.65 21.2 -1.65 21.3 -1.65 21.45 -1.65 21.55 -1.7 21.7 -1.7 21.8 -1.75 21.95 -1.8 22.05 -1.85 22.05 -1.85 22.15 -1.9 22.2 -1.9 22.3 -1.95 22.4 -2.0 22.5 -2.1 22.6 -2.15 22.7 -2.25 22.8 -2.35 22.95 -2.45 23.05 -2.55 23.15 -2.65 23.25 -2.8 23.35 -2.95 23.4 -3.1 23.5 -3.3 23.55 -3.55 23.6 -3.75 23.65 -3.95 23.65 -4.15 23.65 -4.35 23.65 -4.5 23.6 -4.7 23.6 -4.85 23.55 -5.0 23.5 -5.15 23.45 -5.3 23.4 -5.4 23.35 -5.5 23.35 -5.55 23.3 -5.65 23.25 -5.75 23.25 -5.75 23.2 -5.8 23.15 -5.85 23.15 -5.95 23.1 -6.0 23.05 -6.05 23.05 -6.1 23.0 -6.15 22.95 -6.2 22.9 -6.25 22.85 -6.3 22.8 -6.35 22.75 -6.35 22.65 -6.4 22.6 -6.45 22.5 -6.5 22.4 -6.55 22.3 -6.55 22.2 -6.55 22.1 -6.6 22.0 -6.55 21.9 -6.55 21.8 -6.55 21.7 -6.55 21.55 -6.5 21.45 -6.5 21.3 -6.45 21.1 -6.4 21.0 -6.4 20.85 -6.35 20.7 -6.35 20.65 -6.35 18.65 -6.2 16.9 -6.0 10.85 -6.05 L10.85 -6.05" fill="#37ffe0" fill-rule="evenodd" stroke="none"/>
    <path d="M-3.85 -5.7 Q-3.7 -5.55 -3.5 -5.4 -3.3 -5.25 -3.15 -5.1 -2.9 -4.95 -2.7 -4.8 -2.5 -4.65 -2.25 -4.5 -2.0 -4.35 -1.75 -4.2 -1.5 -4.05 -1.25 -3.9 -1.0 -3.75 -0.7 -3.6 -0.4 -3.45 -0.1 -3.3 0.1 -3.2 0.3 -3.15 0.45 -3.05 0.65 -2.95 0.85 -2.9 1.05 -2.85 1.2 -2.75 1.4 -2.7 1.55 -2.65 1.75 -2.6 1.9 -2.55 2.1 -2.5 2.25 -2.45 2.4 -2.4 2.55 -2.35 2.75 -2.3 2.75 -2.45 2.7 -2.6 2.7 -2.75 2.7 -2.9 2.65 -3.0 2.65 -3.15 2.65 -3.25 2.65 -3.4 2.65 -3.5 2.65 -3.6 2.65 -3.7 2.65 -3.8 2.65 -3.9 2.7 -4.0 2.7 -4.1 2.7 -4.2 2.7 -4.0 2.8 -5.45 2.95 -6.5 2.95 -7.25 2.95 -7.3 2.95 -7.3 2.95 -7.35 2.95 -7.4 2.95 -7.45 2.95 -7.45 2.95 -7.5 2.95 -7.55 2.95 -7.6 2.95 -7.65 2.9 -7.7 2.9 -7.75 2.9 -7.8 2.85 -7.85 2.85 -7.9 2.8 -7.95 2.75 -8.0 2.7 -8.05 2.65 -8.1 2.6 -8.15 2.55 -8.2 2.45 -8.25 2.4 -8.25 2.35 -8.3 2.3 -8.3 2.2 -8.35 2.15 -8.35 2.05 -8.35 2.0 -8.4 1.95 -8.4 1.85 -8.45 1.8 -8.45 1.65 -8.5 1.6 -8.5 1.5 -8.55 1.4 -8.55 1.35 -8.6 1.25 -8.65 1.2 -8.7 1.1 -8.75 1.0 -8.8 0.9 -8.85 0.75 -8.95 0.6 -9.05 0.45 -9.15 0.2 -9.25 -0.05 -9.35 -0.35 -9.5 -0.55 -9.6 -0.7 -9.65 -0.9 -9.75 -1.0 -9.8 -1.2 -9.9 -1.3 -9.95 -1.45 -10.0 -1.55 -10.05 -1.65 -10.05 -1.75 -10.1 -1.9 -10.15 -1.95 -10.15 -2.05 -10.15 -2.15 -10.15 -2.25 -10.15 -2.35 -10.15 -2.5 -10.15 -2.65 -10.1 -2.8 -10.05 -2.95 -10.0 -3.05 -9.9 -3.2 -9.85 -3.3 -9.8 -3.4 -9.7 -3.45 -9.65 -3.55 -9.55 -3.6 -9.5 -3.65 -9.4 -3.7 -9.35 -3.75 -9.35 -3.75 -9.3 -3.8 -9.3 -3.85 -9.2 -3.9 -9.1 -3.95 -9.0 -4.0 -8.9 -4.05 -8.8 -4.05 -8.7 -4.1 -8.6 -4.1 -8.5 -4.1 -8.4 -4.15 -8.3 -4.15 -8.2 -4.15 -8.1 -4.15 -8.0 -4.15 -7.85 -4.15 -7.8 -4.15 -7.65 -4.15 -7.55 -4.15 -7.45 -4.15 -7.4 -4.15 -7.3 -4.15 -7.15 -4.15 -7.05 -4.15 -6.95 -4.1 -6.8 -4.1 -6.7 -4.1 -6.55 -4.05 -6.45 -4.05 -6.3 -4.0 -6.15 -3.95 -6.0 -3.9 -5.85 -3.85 -5.7 L-3.85 -5.7" fill="#37ffe0" fill-rule="evenodd" stroke="none"/>
    <path d="M-3.6 -15.05 Q-0.8 -13.9 1.1 -13.05 1.0 -13.1 1.25 -13.0 1.35 -12.95 1.45 -12.9 1.55 -12.85 1.7 -12.85 1.8 -12.8 1.9 -12.75 2.0 -12.75 2.1 -12.7 2.25 -12.7 2.35 -12.7 2.4 -12.7 2.5 -12.7 2.55 -12.75 2.6 -12.8 2.65 -12.85 2.65 -12.9 2.65 -12.9 2.65 -12.95 2.7 -13.0 2.65 -13.05 2.65 -13.1 2.65 -13.1 2.65 -13.15 2.65 -13.2 2.6 -13.4 2.6 -13.6 2.6 -13.8 2.6 -14.0 2.6 -14.15 2.65 -14.35 2.65 -14.4 2.7 -14.7 2.75 -14.95 2.75 -15.1 2.8 -15.35 2.8 -15.6 2.85 -15.85 2.8 -16.1 2.8 -16.4 2.75 -16.7 2.75 -16.9 2.7 -17.05 2.7 -17.2 2.65 -17.3 2.65 -17.45 2.65 -17.55 2.6 -17.7 2.55 -17.8 2.55 -17.9 2.5 -18.0 2.45 -18.1 2.45 -18.15 2.4 -18.25 2.3 -18.35 2.25 -18.4 2.2 -18.45 2.1 -18.55 2.0 -18.6 1.95 -18.65 1.85 -18.7 1.7 -18.75 1.6 -18.8 1.5 -18.85 1.35 -18.85 1.2 -18.9 1.05 -18.9 0.9 -18.9 0.75 -18.95 0.55 -18.95 0.35 -18.95 0.2 -18.95 -0.05 -18.95 -0.4 -18.95 -0.55 -18.95 -0.85 -19.0 -1.0 -19.0 -1.25 -19.0 -1.4 -19.0 -1.6 -19.0 -1.75 -18.95 -1.95 -18.95 -2.05 -18.9 -2.2 -18.9 -2.35 -18.85 -2.45 -18.8 -2.55 -18.75 -2.7 -18.65 -2.8 -18.6 -2.9 -18.5 -3.0 -18.35 -3.1 -18.25 -3.2 -18.15 -3.25 -18.0 -3.3 -17.85 -3.35 -17.75 -3.4 -17.6 -3.45 -17.45 -3.5 -17.3 -3.55 -17.2 -3.55 -17.05 -3.55 -16.95 -3.6 -16.8 -3.6 -16.7 -3.65 -16.55 -3.65 -16.45 -3.65 -16.3 -3.65 -16.2 -3.7 -16.1 -3.7 -16.0 -3.7 -15.9 -3.65 -15.8 -3.65 -15.7 -3.65 -15.6 -3.65 -15.5 -3.65 -15.45 -3.65 -15.35 -3.65 -15.3 -3.6 -15.2 -3.6 -15.15 -3.6 -15.05 L-3.6 -15.05" fill="#37ffe0" fill-rule="evenodd" stroke="none"/>
    <path d="M11.25 -15.95 Q11.25 -15.8 11.25 -15.6 11.3 -15.45 11.3 -15.3 11.3 -15.15 11.25 -15.0 11.25 -14.9 11.25 -14.75 11.25 -14.65 11.25 -14.5 11.2 -14.4 11.2 -14.25 11.2 -14.15 11.15 -14.05 11.15 -13.95 11.1 -13.85 11.05 -13.6 10.9 -12.65 10.75 -11.9 10.6 -11.4 10.6 -11.4 10.6 -11.35 10.6 -11.35 10.6 -11.3 10.6 -11.3 10.6 -11.25 10.55 -11.25 10.55 -11.2 10.55 -11.2 10.55 -11.15 10.55 -11.1 10.6 -11.1 10.6 -11.05 10.6 -11.05 10.6 -11.0 10.6 -10.95 10.65 -10.9 10.7 -10.8 10.8 -10.75 10.85 -10.75 10.95 -10.7 11.05 -10.7 11.15 -10.65 11.3 -10.65 11.4 -10.65 11.5 -10.65 11.6 -10.65 11.7 -10.65 11.8 -10.65 11.9 -10.65 11.85 -10.65 12.05 -10.65 12.35 -10.65 12.55 -10.65 12.75 -10.65 12.9 -10.65 13.05 -10.65 13.2 -10.6 13.3 -10.6 13.5 -10.55 13.7 -10.5 13.85 -10.45 14.05 -10.45 14.3 -10.4 14.55 -10.35 14.9 -10.35 15.3 -10.3 15.75 -10.3 16.55 -10.3 17.1 -10.35 17.45 -10.35 17.95 -10.45 18.45 -10.5 18.8 -10.55 19.35 -10.6 20.1 -10.6 20.35 -10.6 20.7 -10.6 12.2 -10.95 21.2 -10.55 21.5 -10.55 21.65 -10.55 21.9 -10.55 22.05 -10.55 22.3 -10.55 22.45 -10.6 22.6 -10.6 22.8 -10.65 22.95 -10.7 23.1 -10.8 23.25 -10.85 23.4 -10.95 23.5 -11.05 23.6 -11.1 23.7 -11.2 23.8 -11.3 23.85 -11.4 23.95 -11.5 24.0 -11.6 24.1 -11.7 24.15 -11.75 24.2 -11.85 24.25 -11.95 24.3 -12.05 24.35 -12.15 24.4 -12.25 24.4 -12.35 24.45 -12.4 24.55 -12.65 24.6 -12.85 24.7 -13.15 24.8 -13.4 24.9 -13.7 24.95 -13.95 25.05 -14.25 25.1 -14.55 25.15 -14.85 25.2 -15.05 25.2 -15.35 25.2 -15.55 25.2 -15.8 25.15 -15.95 25.05 -16.1 24.95 -16.15 24.95 -16.15 24.9 -16.2 24.9 -16.2 24.85 -16.2 24.85 -16.2 24.8 -16.2 24.75 -16.25 24.7 -16.25 24.65 -16.25 24.6 -16.25 24.5 -16.25 24.45 -16.2 24.35 -16.2 24.25 -16.2 24.1 -16.2 24.0 -16.15 23.8 -16.15 23.7 -16.1 23.55 -16.1 23.4 -16.1 23.3 -16.1 23.2 -16.05 23.05 -16.05 22.95 -16.05 22.85 -16.0 22.75 -16.0 22.6 -15.95 22.5 -15.95 22.4 -15.9 22.3 -15.9 22.15 -15.85 22.05 -15.85 22.0 -15.85 21.95 -15.8 21.85 -15.8 21.8 -15.8 21.7 -15.75 21.55 -15.75 21.45 -15.75 21.25 -15.75 21.05 -15.75 20.8 -15.75 20.55 -15.75 20.25 -15.75 19.9 -15.75 19.45 -15.8 19.05 -15.8 18.5 -15.85 17.8 -15.9 17.2 -15.9 16.75 -15.95 16.3 -16.0 15.3 -16.05 15.6 -16.05 15.25 -16.05 15.0 -16.1 14.65 -16.1 14.3 -16.1 14.05 -16.1 13.8 -16.1 13.6 -16.1 13.35 -16.1 13.15 -16.1 12.95 -16.05 12.7 -16.05 12.5 -16.05 12.35 -16.05 12.15 -16.05 12.0 -16.0 11.8 -16.0 11.65 -16.0 11.5 -15.95 11.35 -15.95 11.25 -15.95 L11.25 -15.95" fill="#37ffe0" fill-rule="evenodd" stroke="none"/>
  </g>
</svg>
