<?xml version="1.0" encoding="UTF-8" standalone="no"?>
<svg xmlns:xlink="http://www.w3.org/1999/xlink" height="30.6px" width="27.8px" xmlns="http://www.w3.org/2000/svg">
  <g transform="matrix(1.0, 0.0, 0.0, 1.0, 13.9, 15.3)">
    <path d="M5.05 -8.2 Q5.15 -8.1 5.25 -8.0 5.35 -7.85 5.45 -7.7 5.6 -7.55 5.75 -7.35 5.9 -7.15 6.0 -6.9 6.15 -6.65 6.25 -6.4 6.4 -6.1 6.45 -5.8 6.6 -5.5 6.65 -5.15 6.7 -4.8 6.75 -4.45 6.8 -3.95 6.75 -3.5 6.7 -3.05 6.6 -2.6 6.45 -2.2 6.3 -1.8 6.15 -1.45 6.0 -1.1 5.8 -0.8 5.6 -0.45 5.45 -0.2 5.25 0.05 5.1 0.25 4.95 0.45 4.85 0.55 4.7 0.7 4.6 0.8 4.55 0.85 4.45 0.95 4.4 1.0 4.35 1.1 4.25 1.15 4.2 1.2 4.1 1.3 4.05 1.35 4.0 1.4 3.9 1.45 3.85 1.5 3.8 1.55 3.75 1.6 3.7 1.6 3.65 1.65 3.55 1.75 3.4 1.8 3.3 1.9 3.15 2.0 3.0 2.1 2.85 2.2 2.7 2.25 2.5 2.35 2.35 2.45 2.15 2.55 1.95 2.6 1.75 2.7 1.55 2.75 1.35 2.85 1.1 2.9 0.9 2.95 0.75 3.0 0.55 3.05 0.4 3.05 0.2 3.1 -0.05 3.1 -0.3 3.1 -0.55 3.15 -0.85 3.1 -1.15 3.1 -1.5 3.05 -1.85 3.05 -2.3 2.95 -2.75 2.9 -3.2 2.75 -3.75 2.65 -4.3 2.5 -5.05 2.3 -5.45 2.2 -6.05 2.05 -6.45 1.9 -6.95 1.75 -7.35 1.65 -7.8 1.5 -8.15 1.35 -8.55 1.2 -8.9 1.05 -9.25 0.85 -9.6 0.65 -9.95 0.45 -10.25 0.25 -10.6 0.0 -10.9 -0.3 -11.1 -0.5 -11.25 -0.6 -11.5 -0.8 -11.7 -1.0 -11.95 -1.25 -12.15 -1.5 -12.4 -1.75 -12.65 -2.05 -12.85 -2.35 -13.05 -2.65 -13.25 -3.0 -13.35 -3.35 -13.5 -3.7 -13.6 -4.1 -13.65 -4.5 -13.65 -4.9 -13.65 -5.0 -13.65 -5.05 -13.65 -5.15 -13.65 -5.25 -13.6 -5.3 -13.6 -5.4 -13.6 -5.45 -13.6 -5.5 -13.55 -5.6 -13.55 -5.65 -13.55 -5.7 -13.5 -5.8 -13.5 -5.85 -13.5 -5.9 -13.5 -5.95 -13.45 -6.0 -13.05 -5.95 -12.6 -5.85 -12.25 -5.75 -11.85 -5.65 -11.5 -5.55 -11.15 -5.45 -10.8 -5.3 -10.5 -5.2 -10.2 -5.05 -9.9 -4.95 -9.6 -4.8 -9.35 -4.7 -9.1 -4.55 -8.85 -4.45 -8.65 -4.3 -8.4 -4.2 -8.15 -4.05 -7.95 -3.9 -7.7 -3.75 -7.45 -3.6 -7.3 -3.5 -7.0 -3.3 -6.5 -2.9 -6.5 -2.95 -6.2 -2.75 -5.95 -2.55 -5.65 -2.35 -5.35 -2.15 -5.0 -1.9 -4.65 -1.7 -4.25 -1.45 -3.8 -1.15 -3.4 -0.9 -3.0 -0.7 -2.7 -0.5 -2.4 -0.4 -2.15 -0.25 -1.9 -0.15 -1.7 -0.05 -1.55 0.0 -1.4 0.05 -1.3 0.1 -1.2 0.1 -1.1 0.1 -1.0 0.1 -0.95 0.1 -0.9 0.1 -0.85 0.1 -0.6 0.05 -0.4 -0.15 -0.15 -0.25 0.0 -0.5 0.2 -0.7 0.35 -1.0 0.5 -1.25 0.65 -1.65 0.7 -1.75 1.0 -2.45 1.25 -2.95 1.4 -3.3 1.65 -3.8 1.95 -4.25 2.25 -4.8 2.55 -5.3 2.7 -5.55 2.9 -5.8 3.05 -6.05 3.25 -6.25 3.4 -6.5 3.6 -6.7 3.75 -6.9 3.9 -7.05 4.05 -7.25 4.25 -7.4 4.35 -7.55 4.5 -7.7 4.65 -7.85 4.8 -8.0 4.9 -8.1 5.05 -8.2 L5.05 -8.2" fill="#b84fd4" fill-rule="evenodd" stroke="none"/>
  </g>
</svg>
