<?xml version="1.0" encoding="UTF-8" standalone="no"?>
<svg xmlns:xlink="http://www.w3.org/1999/xlink" height="10.5px" width="47.3px" xmlns="http://www.w3.org/2000/svg">
  <g transform="matrix(1.0, 0.0, 0.0, 1.0, 23.65, 5.25)">
    <path d="M21.3 -5.25 Q21.4 -5.25 21.45 -5.25 21.45 -5.25 21.5 -5.25 21.5 -5.25 21.5 -5.25 21.55 -5.25 21.6 -5.2 21.65 -5.2 21.7 -5.2 21.7 -5.15 21.75 -5.15 21.8 -5.1 21.85 -5.1 21.9 -5.05 21.9 -5.05 21.95 -5.0 22.0 -4.95 22.0 -4.9 22.05 -4.85 22.1 -4.85 22.1 -4.8 22.15 -4.75 22.2 -4.7 22.2 -4.65 22.25 -4.6 22.3 -4.55 22.3 -4.5 22.35 -4.45 22.4 -4.45 22.4 -4.4 22.45 -4.35 22.5 -4.25 22.6 -4.15 22.65 -4.0 22.7 -3.9 22.75 -3.8 22.8 -3.65 22.85 -3.55 22.9 -3.45 22.95 -3.35 23.0 -3.2 23.05 -3.1 23.1 -2.95 23.15 -2.85 23.2 -2.75 23.2 -2.6 23.25 -2.5 23.35 -2.25 23.45 -1.75 23.5 -1.45 23.5 -1.3 23.55 -1.2 23.55 -0.95 23.6 -0.8 23.6 -0.55 23.6 -0.45 23.65 -0.2 23.65 -0.15 23.65 -0.15 23.65 -0.1 23.6 -0.05 23.2 0.25 22.55 0.85 22.45 0.9 22.35 1.05 22.15 1.2 22.1 1.25 22.05 1.3 22.0 1.3 21.95 1.35 21.9 1.4 21.85 1.45 21.8 1.45 21.75 1.5 21.7 1.55 21.65 1.55 21.6 1.6 21.55 1.65 21.5 1.65 21.45 1.7 21.4 1.75 21.35 1.75 21.3 1.8 21.2 1.85 20.65 2.15 20.65 2.15 20.2 2.3 20.15 2.3 20.05 2.35 20.0 2.35 19.95 2.4 19.85 2.4 19.8 2.45 19.75 2.45 19.65 2.5 19.6 2.5 19.55 2.5 19.45 2.55 19.4 2.55 19.3 2.6 19.25 2.6 19.2 2.6 19.1 2.65 18.9 2.7 18.35 2.8 17.9 2.9 17.6 2.95 17.35 3.0 16.5 3.15 16.3 3.15 15.85 3.2 15.65 3.25 15.2 3.3 15.05 3.3 14.75 3.35 14.55 3.4 14.25 3.4 14.05 3.45 13.75 3.45 13.55 3.5 13.15 3.5 13.0 3.55 12.7 3.55 12.5 3.6 12.15 3.6 12.05 3.6 11.75 3.65 11.55 3.65 11.15 3.7 11.0 3.7 10.7 3.7 10.5 3.75 10.15 3.75 10.0 3.75 9.65 3.8 9.5 3.8 9.05 3.8 8.9 3.85 8.65 3.85 8.5 3.85 8.0 3.9 7.85 3.9 7.55 3.9 7.5 3.9 7.15 3.9 6.9 3.95 6.75 3.95 4.45 3.95 -0.1 3.95 -0.15 3.95 -0.2 3.95 -0.25 3.95 -0.3 3.95 -0.35 3.95 -0.4 3.95 -0.45 3.9 -0.5 3.9 -0.55 3.9 -0.6 3.9 -0.65 3.9 -0.7 3.9 -0.7 3.9 -0.75 3.9 -0.8 3.9 -0.85 3.9 -1.2 3.9 -1.95 3.85 -2.15 3.85 -2.5 3.85 -2.9 3.85 -3.4 3.8 -3.6 3.8 -3.9 3.8 -4.2 3.8 -4.7 3.75 -4.9 3.75 -5.15 3.75 -5.4 3.7 -5.85 3.7 -5.95 3.7 -6.25 3.65 -6.45 3.65 -6.85 3.65 -7.0 3.65 -7.4 3.6 -7.5 3.6 -8.2 3.55 -8.3 3.55 -8.5 3.55 -8.7 3.5 -8.8 3.5 -9.1 3.5 -9.75 3.45 -10.0 3.4 -10.55 3.35 -10.9 3.35 -11.4 3.3 -11.7 3.25 -12.35 3.2 -12.5 3.2 -12.75 3.15 -13.15 3.1 -13.15 3.1 -13.2 3.1 -13.25 3.1 -13.35 3.1 -13.4 3.05 -13.45 3.05 -13.5 3.05 -13.6 3.05 -13.65 3.05 -13.7 3.05 -13.75 3.0 -13.85 3.0 -13.9 3.0 -13.95 3.0 -14.0 3.0 -14.1 3.0 -14.15 2.95 -14.2 2.95 -14.3 2.95 -14.35 2.95 -14.45 2.9 -14.5 2.9 -14.55 2.9 -14.65 2.9 -14.7 2.9 -14.8 2.85 -14.85 2.85 -14.9 2.85 -15.0 2.85 -15.05 2.85 -15.15 2.8 -15.2 2.8 -15.25 2.8 -16.25 2.6 -16.85 2.5 -17.6 2.3 -18.05 2.2 -19.2 1.75 -19.25 1.75 -20.3 1.35 -21.95 0.45 -22.0 0.45 -22.05 0.4 -22.05 0.4 -22.1 0.35 -22.15 0.35 -22.2 0.3 -22.2 0.3 -22.25 0.25 -22.3 0.25 -22.35 0.2 -22.4 0.2 -22.4 0.15 -22.45 0.15 -22.5 0.1 -22.55 0.1 -22.6 0.1 -22.35 -0.5 -22.35 -0.5 -22.05 -1.05 -22.0 -1.15 -21.95 -1.3 -21.9 -1.4 -21.85 -1.55 -21.8 -1.65 -21.7 -1.8 -21.65 -1.9 -21.6 -2.05 -21.5 -2.15 -21.45 -2.3 -21.4 -2.4 -21.3 -2.55 -21.25 -2.65 -21.15 -2.8 -21.1 -2.9 -21.0 -3.05 -20.95 -3.15 -20.9 -3.25 -20.8 -3.35 -20.75 -3.45 -20.65 -3.5 -20.6 -3.6 -20.5 -3.7 -20.45 -3.8 -20.35 -3.85 -20.3 -3.95 -20.2 -4.05 -20.15 -4.15 -20.05 -4.2 -19.95 -4.3 -19.9 -4.35 -19.8 -4.45 -19.7 -4.55 -19.65 -4.55 -19.65 -4.6 -19.6 -4.6 -19.6 -4.65 -19.55 -4.65 -19.5 -4.65 -19.45 -4.7 -19.45 -4.7 -19.4 -4.7 -19.35 -4.7 -19.3 -4.7 -19.25 -4.7 -19.05 -4.55 -18.9 -4.5 -18.4 -4.3 -18.25 -4.25 -18.1 -4.2 -17.6 -4.1 -17.25 -4.0 -17.0 -3.95 -16.65 -3.85 -16.15 -3.75 -15.85 -3.7 -15.2 -3.55 -15.1 -3.55 -14.85 -3.5 -14.6 -3.45 -14.5 -3.45 -14.25 -3.4 -13.7 -3.3 -13.5 -3.25 -13.2 -3.2 -13.05 -3.2 -12.75 -3.15 -12.6 -3.15 -12.25 -3.1 -12.1 -3.05 -11.85 -3.05 -11.7 -3.0 -11.45 -3.0 -11.35 -3.0 -11.1 -2.95 -10.75 -2.9 -10.75 -2.9 -10.65 -2.9 -10.4 -2.9 -10.3 -2.9 -10.0 -2.85 -9.95 -2.85 -9.7 -2.8 -9.5 -2.8 -9.4 -2.8 -9.15 -2.75 -8.75 -2.75 -8.15 -2.75 -8.05 -2.75 -7.85 -2.7 -7.35 -2.7 -7.2 -2.7 -6.9 -2.7 -6.55 -2.7 -6.15 -2.7 -6.0 -2.7 -5.75 -2.65 -5.55 -2.65 -5.1 -2.65 -4.95 -2.6 -4.65 -2.6 -4.4 -2.6 -3.85 -2.55 -3.65 -2.55 -3.3 -2.55 -3.0 -2.55 -2.5 -2.5 -2.25 -2.5 -1.85 -2.5 -1.45 -2.45 -0.75 -2.45 -0.15 -2.45 -0.05 -2.45 0.35 -2.4 1.15 -2.4 1.4 -2.4 1.8 -2.4 2.3 -2.35 3.15 -2.35 3.4 -2.35 3.95 -2.35 4.0 -2.35 4.05 -2.35 4.1 -2.35 4.1 -2.35 4.15 -2.35 4.2 -2.35 4.25 -2.35 4.3 -2.35 4.35 -2.35 4.4 -2.35 4.45 -2.35 4.45 -2.35 4.5 -2.35 4.55 -2.35 4.6 -2.35 4.65 -2.35 4.9 -2.35 5.6 -2.35 5.75 -2.35 6.1 -2.4 6.4 -2.4 6.95 -2.4 7.1 -2.45 7.4 -2.45 7.7 -2.45 8.1 -2.5 8.25 -2.5 8.55 -2.5 8.75 -2.5 9.15 -2.55 9.3 -2.55 9.55 -2.55 9.75 -2.6 10.1 -2.6 10.55 -2.65 10.55 -2.65 10.75 -2.65 11.2 -2.7 11.4 -2.7 11.75 -2.7 12.0 -2.75 12.4 -2.75 12.6 -2.8 13.0 -2.8 13.3 -2.85 13.75 -2.9 14.35 -2.95 14.65 -3.0 15.0 -3.05 15.55 -3.1 16.5 -3.25 16.6 -3.25 16.7 -3.25 16.8 -3.3 16.9 -3.3 17.0 -3.3 17.1 -3.35 17.2 -3.35 17.3 -3.35 17.4 -3.4 17.45 -3.4 17.55 -3.4 17.65 -3.45 17.75 -3.45 17.85 -3.5 17.95 -3.5 18.05 -3.5 18.15 -3.55 18.25 -3.55 18.35 -3.6 18.4 -3.6 18.5 -3.6 18.6 -3.65 18.7 -3.65 18.75 -3.65 18.85 -3.7 18.95 -3.7 19.05 -3.75 19.1 -3.75 19.2 -3.8 19.3 -3.8 19.35 -3.85 19.45 -3.85 19.55 -3.9 19.55 -3.9 19.55 -3.95 19.6 -3.95 19.65 -3.95 19.7 -3.95 19.75 -4.0 19.8 -4.0 19.85 -4.05 19.95 -4.05 20.0 -4.1 20.05 -4.1 20.1 -4.1 20.15 -4.15 20.25 -4.15 20.3 -4.2 20.35 -4.2 20.4 -4.25 20.45 -4.3 20.5 -4.3 20.55 -4.35 20.6 -4.4 20.65 -4.4 20.7 -4.45 20.75 -4.5 20.8 -4.55 20.85 -4.6 20.9 -4.65 20.95 -4.7 21.0 -4.75 21.05 -4.8 21.1 -4.85 21.15 -4.9 21.15 -4.95 21.2 -5.0 21.25 -5.05 21.25 -5.15 21.3 -5.2 21.3 -5.25 L21.3 -5.25 M-19.75 -2.35 Q-19.7 -2.35 -19.7 -2.35 -19.65 -2.35 -19.6 -2.35 -19.6 -2.35 -19.55 -2.35 -19.5 -2.35 -19.45 -2.35 -19.45 -2.35 -19.4 -2.35 -19.35 -2.3 -19.3 -2.3 -19.3 -2.3 -19.25 -2.3 -19.2 -2.25 -19.2 -2.25 -19.15 -2.25 -19.1 -2.2 -19.05 -2.15 -19.0 -2.15 -18.95 -2.1 -18.95 -2.1 -18.9 -2.05 -18.85 -2.0 -18.85 -1.95 -18.8 -1.9 -18.8 -1.9 -18.75 -1.85 -18.75 -1.8 -18.7 -1.75 -18.7 -1.7 -18.7 -1.65 -18.7 -1.6 -18.7 -1.55 -18.7 -1.5 -18.7 -1.45 -18.7 -1.4 -18.7 -1.3 -18.7 -1.25 -18.7 -1.2 -18.75 -1.15 -18.75 -1.1 -18.75 -1.05 -18.8 -1.0 -18.8 -0.95 -18.85 -0.95 -18.9 -0.9 -18.95 -0.85 -18.95 -0.8 -19.0 -0.75 -19.05 -0.7 -19.1 -0.7 -19.1 -0.7 -19.15 -0.65 -19.2 -0.65 -19.25 -0.6 -19.3 -0.6 -19.35 -0.6 -19.4 -0.6 -19.45 -0.55 -19.5 -0.55 -19.5 -0.55 -19.55 -0.55 -19.6 -0.55 -19.65 -0.55 -19.7 -0.55 -19.75 -0.55 -19.8 -0.6 -19.9 -0.6 -19.95 -0.6 -20.0 -0.65 -20.05 -0.65 -20.1 -0.7 -20.15 -0.75 -20.15 -0.75 -20.2 -0.8 -20.25 -0.85 -20.3 -0.85 -20.3 -0.9 -20.35 -0.95 -20.4 -1.0 -20.4 -1.05 -20.4 -1.05 -20.45 -1.1 -20.55 -0.85 -20.75 -0.35 -20.75 -0.35 -20.75 -0.35 -19.4 0.35 -19.35 0.35 -19.3 0.35 -19.15 0.45 -19.05 0.5 -18.95 0.55 -18.85 0.6 -18.6 0.65 -18.4 0.75 -18.3 0.8 -18.0 0.85 -17.3 1.05 -17.2 1.05 -16.75 1.2 -16.4 1.25 -16.2 1.3 -16.05 1.35 -15.25 1.5 -15.05 1.5 -14.55 1.6 -14.3 1.65 -13.75 1.75 -13.55 1.75 -13.25 1.8 -13.2 1.8 -13.15 1.8 -13.1 1.85 -13.05 1.85 -13.0 1.85 -12.95 1.85 -12.95 1.85 -12.9 1.85 -12.85 1.9 -12.8 1.9 -12.65 1.9 -12.3 1.95 -12.3 1.95 -12.05 2.0 -11.9 2.0 -11.8 2.0 -11.7 2.0 -11.35 2.05 -11.3 2.05 -11.25 2.05 -11.25 2.05 -11.2 2.05 -11.15 2.1 -11.1 2.1 -11.1 2.1 -11.05 2.1 -11.0 2.1 -10.95 2.1 -10.95 2.1 -10.9 2.1 -10.85 2.1 -10.8 2.1 -10.8 2.1 -10.75 2.15 -10.7 2.15 -10.65 2.15 -10.6 2.15 -10.55 2.15 -10.5 2.15 -10.45 2.15 -10.45 2.15 -10.4 2.15 -10.35 2.15 -10.3 2.15 -10.05 2.2 -9.7 2.2 -9.5 2.25 -9.15 2.25 -8.95 2.3 -8.6 2.3 -8.5 2.3 -8.35 2.3 -8.15 2.3 -8.1 2.3 -7.95 2.3 -7.5 2.3 -7.45 2.3 -7.45 2.3 -7.4 2.3 -7.35 2.3 -7.35 2.3 -7.3 2.3 -7.25 2.3 -7.25 2.3 -7.2 2.35 -7.15 2.35 -7.15 2.35 -7.1 2.35 -7.05 2.35 -7.0 2.35 -7.0 2.35 -6.95 2.35 -6.65 2.35 -5.75 2.4 -5.5 2.4 -5.0 2.4 -4.6 2.45 -3.95 2.45 -3.7 2.5 -2.9 2.5 -2.85 2.5 -2.85 2.5 -2.8 2.5 -2.75 2.5 -2.7 2.5 -2.7 2.5 -2.65 2.5 -2.6 2.5 -2.55 2.5 -2.5 2.5 -2.45 2.5 -2.4 2.5 -2.4 2.5 -2.35 2.5 -2.35 1.95 -2.35 0.85 -2.4 0.9 -2.4 0.95 -2.4 1.0 -2.45 1.05 -2.45 1.1 -2.5 1.15 -2.5 1.15 -2.55 1.2 -2.6 1.25 -2.6 1.25 -2.65 1.3 -2.7 1.35 -2.75 1.35 -2.8 1.4 -2.85 1.4 -2.9 1.45 -2.9 1.45 -3.0 1.45 -3.05 1.45 -3.1 1.5 -3.15 1.5 -3.2 1.5 -3.25 1.5 -3.35 1.5 -3.4 1.5 -3.45 1.45 -3.5 1.45 -3.6 1.4 -3.65 1.4 -3.7 1.35 -3.75 1.35 -3.8 1.3 -3.85 1.25 -3.9 1.2 -3.95 1.15 -4.0 1.1 -4.0 1.05 -4.05 1.0 -4.1 0.95 -4.1 0.9 -4.1 0.85 -4.15 0.75 -4.15 0.7 -4.15 0.65 -4.15 0.6 -4.15 0.55 -4.15 0.5 -4.15 0.4 -4.15 0.35 -4.1 0.3 -4.1 0.25 -4.05 0.15 -4.05 0.1 -4.0 0.05 -3.95 0.0 -3.9 -0.05 -3.9 -0.1 -3.85 -0.1 -3.8 -0.15 -3.7 -0.2 -3.65 -0.2 -3.6 -0.25 -3.55 -0.25 -3.45 -0.25 -3.4 -0.3 -3.3 -0.3 -3.25 -0.3 -3.15 -0.3 -3.1 -0.3 -3.0 -0.25 -2.95 -0.25 -2.85 -0.2 -2.8 -0.2 -2.75 -0.15 -2.7 -0.1 -2.65 -0.05 -2.6 0.0 -2.55 0.05 -2.5 0.1 -2.45 0.15 -2.4 0.2 -2.4 0.3 -2.4 0.3 -2.35 0.35 -2.35 -0.15 -2.35 -1.2 -2.5 -1.2 -3.1 -1.2 -3.25 -1.25 -3.65 -1.25 -3.85 -1.25 -4.45 -1.3 -4.6 -1.3 -4.9 -1.3 -5.2 -1.3 -5.6 -1.35 -5.65 -1.35 -5.7 -1.35 -5.75 -1.35 -5.8 -1.35 -5.8 -1.35 -5.85 -1.35 -5.9 -1.35 -5.95 -1.35 -6.0 -1.35 -6.05 -1.35 -6.25 -1.4 -6.6 -1.4 -7.0 -1.4 -7.2 -1.45 -7.4 -1.45 -7.85 -1.5 -7.9 -1.5 -7.95 -1.5 -8.0 -1.5 -8.0 -1.5 -8.05 -1.5 -8.1 -1.5 -8.15 -1.5 -8.2 -1.5 -8.2 -1.5 -8.25 -1.5 -8.3 -1.5 -8.35 -1.5 -8.4 -1.5 -8.4 -1.5 -8.45 -1.5 -8.5 -1.5 -8.8 -1.55 -9.35 -1.6 -9.65 -1.6 -10.1 -1.65 -10.35 -1.65 -10.95 -1.7 -11.15 -1.75 -11.7 -1.8 -12.0 -1.8 -12.55 -1.9 -12.9 -1.9 -13.35 -1.95 -13.6 -2.0 -14.25 -2.1 -14.95 -2.2 -15.2 -2.25 -15.3 -2.25 -15.35 -2.3 -15.45 -2.3 -15.55 -2.3 -15.6 -2.3 -15.7 -2.35 -15.8 -2.35 -15.85 -2.35 -15.95 -2.4 -16.0 -2.4 -16.1 -2.4 -16.2 -2.4 -16.25 -2.45 -16.35 -2.45 -16.4 -2.45 -16.5 -2.5 -16.6 -2.5 -16.7 -2.55 -16.85 -2.55 -16.95 -2.6 -17.05 -2.6 -17.15 -2.65 -17.3 -2.65 -17.4 -2.7 -17.5 -2.7 -17.6 -2.75 -17.7 -2.8 -17.85 -2.8 -17.95 -2.85 -18.05 -2.9 -18.15 -2.9 -18.25 -2.95 -18.35 -3.0 -19.05 -3.25 -19.5 -2.7 -19.75 -2.35 L-19.75 -2.35 M7.05 2.6 Q7.1 2.6 7.15 2.6 7.35 2.6 7.75 2.6 7.85 2.55 8.1 2.55 8.25 2.55 8.75 2.5 8.95 2.5 9.3 2.5 9.55 2.5 9.9 2.45 10.05 2.45 10.25 2.45 10.4 2.4 10.75 2.4 10.8 2.4 11.2 2.35 11.4 2.35 11.8 2.3 12.0 2.3 12.3 2.3 12.5 2.25 12.95 2.2 13.15 2.2 13.5 2.15 13.7 2.15 14.1 2.1 14.45 2.05 14.75 2.05 15.0 2.0 15.45 1.95 15.55 1.95 15.75 1.9 15.95 1.9 16.05 1.85 16.1 1.85 16.15 1.85 16.2 1.85 16.25 1.85 16.3 1.85 16.35 1.8 16.35 1.8 16.4 1.8 16.45 1.8 16.5 1.8 16.55 1.8 16.6 1.8 16.65 1.8 16.7 1.75 16.75 1.75 16.8 1.75 17.55 1.65 17.85 1.55 18.1 1.5 19.1 1.25 19.2 1.25 19.25 1.2 19.35 1.2 19.4 1.2 19.5 1.15 19.55 1.15 19.65 1.1 19.7 1.1 19.8 1.05 19.85 1.05 19.95 1.0 20.0 1.0 20.1 0.95 20.15 0.95 20.2 0.9 20.3 0.85 20.4 0.8 20.45 0.75 20.55 0.7 20.65 0.7 20.75 0.65 20.8 0.6 20.9 0.55 20.95 0.5 21.05 0.4 21.1 0.35 21.2 0.3 21.25 0.25 21.35 0.2 21.4 0.1 21.45 0.05 21.55 -0.05 21.65 -0.15 22.1 -0.7 22.1 -0.7 22.1 -0.7 22.1 -0.75 22.1 -0.75 22.1 -0.8 22.1 -0.9 22.05 -1.0 22.05 -1.05 22.05 -1.2 21.95 -1.6 21.95 -1.65 21.95 -1.7 21.9 -1.8 21.9 -1.85 21.9 -1.9 21.85 -1.95 21.85 -2.05 21.85 -2.1 21.8 -2.15 21.8 -2.2 21.8 -2.25 21.75 -2.35 21.75 -2.4 21.75 -2.45 21.7 -2.5 21.7 -2.55 21.7 -2.6 21.65 -2.65 21.65 -2.7 21.6 -2.75 21.6 -2.8 21.6 -2.85 21.55 -2.9 21.55 -2.95 21.55 -2.95 21.5 -3.0 21.5 -3.05 21.45 -3.1 21.45 -3.15 21.4 -3.2 21.4 -3.25 21.4 -3.3 21.1 -3.1 21.0 -3.05 20.9 -3.0 20.85 -2.95 20.75 -2.95 20.65 -2.9 20.55 -2.85 20.5 -2.8 20.4 -2.8 20.3 -2.75 20.2 -2.7 20.1 -2.7 20.05 -2.65 19.95 -2.6 19.85 -2.6 19.75 -2.55 19.65 -2.55 19.55 -2.5 19.45 -2.45 19.35 -2.45 19.25 -2.4 19.15 -2.4 19.05 -2.35 18.95 -2.35 18.85 -2.35 18.75 -2.3 18.65 -2.3 18.55 -2.25 18.45 -2.25 18.35 -2.2 18.25 -2.2 18.15 -2.2 18.05 -2.15 17.95 -2.15 17.5 -2.05 16.9 -1.95 16.6 -1.9 16.25 -1.85 16.05 -1.85 15.65 -1.8 15.45 -1.75 15.15 -1.7 14.95 -1.7 14.55 -1.65 14.45 -1.65 14.15 -1.6 13.95 -1.6 13.6 -1.55 13.45 -1.55 13.15 -1.5 13.0 -1.5 12.65 -1.45 12.55 -1.45 12.3 -1.45 12.05 -1.4 11.75 -1.4 11.6 -1.4 11.3 -1.35 11.1 -1.35 10.65 -1.3 10.5 -1.3 10.15 -1.3 9.95 -1.25 9.55 -1.25 9.45 -1.25 9.2 -1.25 8.9 -1.2 8.45 -1.2 8.25 -1.15 7.8 -1.15 7.55 -1.15 6.8 -1.1 6.75 -1.1 6.65 -1.1 6.7 -0.65 6.8 0.4 6.8 0.4 6.85 0.35 6.85 0.3 6.9 0.2 6.95 0.15 6.95 0.1 7.0 0.05 7.05 0.0 7.1 -0.05 7.15 -0.1 7.25 -0.15 7.3 -0.15 7.35 -0.2 7.45 -0.2 7.5 -0.2 7.6 -0.25 7.65 -0.25 7.75 -0.25 7.8 -0.25 7.85 -0.25 7.95 -0.2 8.0 -0.2 8.05 -0.15 8.1 -0.15 8.15 -0.1 8.2 -0.1 8.25 -0.05 8.3 -0.05 8.3 0.0 8.35 0.05 8.4 0.1 8.45 0.15 8.45 0.2 8.5 0.25 8.55 0.3 8.55 0.35 8.6 0.4 8.6 0.45 8.6 0.5 8.6 0.55 8.65 0.6 8.65 0.65 8.65 0.7 8.65 0.75 8.65 0.8 8.6 0.85 8.6 0.9 8.6 0.95 8.55 1.0 8.55 1.05 8.55 1.1 8.5 1.15 8.5 1.15 8.45 1.2 8.45 1.25 8.4 1.3 8.35 1.3 8.35 1.35 8.3 1.35 8.25 1.4 8.2 1.4 8.2 1.45 8.15 1.45 8.1 1.5 8.05 1.5 8.0 1.5 7.95 1.5 7.85 1.55 7.8 1.55 7.75 1.55 7.65 1.55 7.6 1.55 7.55 1.55 7.45 1.5 7.4 1.5 7.35 1.45 7.3 1.45 7.2 1.4 7.15 1.35 7.1 1.3 7.05 1.25 7.0 1.2 7.0 1.2 6.95 1.1 6.9 1.05 6.9 1.05 6.95 1.55 7.05 2.6 L7.05 2.6 M0.85 -1.1 Q0.85 0.2 0.85 2.65 1.9 2.65 3.95 2.7 3.85 1.45 3.65 -1.0 2.7 -1.05 0.85 -1.1 L0.85 -1.1" fill="#000000" fill-rule="evenodd" stroke="none"/>
    <path d="M-13.65 -0.25 Q-13.65 -0.2 -13.65 -0.15 -13.65 -0.1 -13.65 -0.05 -13.7 0.05 -13.7 0.1 -13.7 0.1 -13.75 0.15 -13.75 0.2 -13.8 0.25 -13.8 0.3 -13.85 0.35 -13.9 0.4 -13.95 0.4 -13.95 0.45 -14.0 0.5 -14.05 0.5 -14.1 0.55 -14.1 0.55 -14.15 0.6 -14.2 0.6 -14.25 0.6 -14.3 0.65 -14.35 0.65 -14.4 0.65 -14.4 0.65 -14.45 0.65 -14.5 0.65 -14.55 0.65 -14.6 0.65 -14.65 0.65 -14.7 0.65 -14.75 0.65 -14.8 0.65 -14.85 0.6 -14.9 0.6 -14.95 0.55 -15.0 0.55 -15.05 0.55 -15.1 0.5 -15.15 0.45 -15.15 0.45 -15.2 0.4 -15.25 0.35 -15.25 0.35 -15.3 0.3 -15.3 0.25 -15.35 0.2 -15.35 0.15 -15.4 0.1 -15.4 0.1 -15.45 0.05 -15.45 0.0 -15.45 -0.05 -15.45 -0.1 -15.45 -0.15 -15.45 -0.2 -15.45 -0.25 -15.45 -0.25 -15.45 -0.3 -15.45 -0.35 -15.45 -0.4 -15.45 -0.45 -15.45 -0.5 -15.45 -0.55 -15.4 -0.6 -15.4 -0.65 -15.35 -0.65 -15.35 -0.7 -15.3 -0.75 -15.3 -0.8 -15.25 -0.85 -15.25 -0.85 -15.2 -0.9 -15.15 -0.95 -15.15 -0.95 -15.1 -1.0 -15.05 -1.0 -15.0 -1.05 -14.95 -1.05 -14.85 -1.1 -14.75 -1.1 -14.65 -1.1 -14.55 -1.15 -14.45 -1.15 -14.4 -1.1 -14.3 -1.1 -14.2 -1.05 -14.15 -1.05 -14.05 -1.0 -14.0 -0.95 -13.9 -0.9 -13.85 -0.85 -13.8 -0.75 -13.75 -0.7 -13.7 -0.6 -13.7 -0.55 -13.65 -0.5 -13.65 -0.45 -13.65 -0.4 -13.65 -0.35 -13.65 -0.35 -13.65 -0.3 -13.65 -0.25 L-13.65 -0.25" fill="#000000" fill-rule="evenodd" stroke="none"/>
    <path d="M-9.9 0.25 Q-9.9 0.2 -9.9 0.2 -9.9 0.15 -9.85 0.15 -9.85 0.1 -9.85 0.05 -9.85 0.05 -9.85 0.0 -9.8 0.0 -9.8 -0.05 -9.8 -0.1 -9.75 -0.1 -9.75 -0.15 -9.7 -0.2 -9.7 -0.2 -9.7 -0.25 -9.65 -0.3 -9.6 -0.35 -9.55 -0.35 -9.5 -0.4 -9.45 -0.45 -9.4 -0.45 -9.3 -0.45 -9.25 -0.5 -9.15 -0.5 -9.1 -0.5 -9.05 -0.55 -8.95 -0.55 -8.9 -0.55 -8.8 -0.5 -8.75 -0.5 -8.7 -0.5 -8.6 -0.45 -8.55 -0.45 -8.45 -0.4 -8.4 -0.35 -8.35 -0.3 -8.3 -0.2 -8.25 -0.15 -8.2 -0.1 -8.15 0.0 -8.1 0.05 -8.1 0.1 -8.05 0.2 -8.05 0.25 -8.05 0.35 -8.05 0.4 -8.05 0.5 -8.05 0.55 -8.05 0.6 -8.1 0.65 -8.1 0.7 -8.1 0.75 -8.15 0.8 -8.15 0.8 -8.2 0.85 -8.2 0.9 -8.25 0.95 -8.3 1.0 -8.35 1.0 -8.35 1.05 -8.4 1.1 -8.45 1.1 -8.5 1.15 -8.55 1.15 -8.6 1.2 -8.65 1.2 -8.65 1.2 -8.7 1.25 -8.75 1.25 -8.8 1.25 -8.85 1.25 -8.9 1.25 -8.95 1.25 -9.0 1.25 -9.05 1.25 -9.1 1.25 -9.15 1.25 -9.15 1.2 -9.2 1.2 -9.25 1.2 -9.3 1.15 -9.35 1.15 -9.4 1.15 -9.45 1.1 -9.5 1.1 -9.55 1.05 -9.55 1.0 -9.6 1.0 -9.65 0.95 -9.65 0.9 -9.7 0.9 -9.7 0.85 -9.75 0.8 -9.75 0.75 -9.8 0.7 -9.8 0.7 -9.8 0.65 -9.85 0.65 -9.85 0.6 -9.85 0.6 -9.85 0.55 -9.85 0.55 -9.85 0.5 -9.85 0.5 -9.85 0.45 -9.85 0.4 -9.9 0.4 -9.9 0.35 -9.9 0.3 -9.9 0.3 -9.9 0.25 L-9.9 0.25" fill="#000000" fill-rule="evenodd" stroke="none"/>
    <path d="M18.95 0.4 Q18.85 0.4 18.8 0.4 18.7 0.35 18.65 0.35 18.55 0.3 18.5 0.3 18.4 0.25 18.35 0.25 18.3 0.2 18.25 0.15 18.2 0.1 18.15 0.05 18.1 0.0 18.1 -0.05 18.05 -0.1 18.0 -0.15 18.0 -0.2 17.95 -0.25 17.95 -0.3 17.95 -0.35 17.95 -0.35 17.9 -0.4 17.9 -0.45 17.9 -0.5 17.9 -0.55 17.9 -0.6 17.9 -0.65 17.9 -0.7 17.95 -0.7 17.95 -0.75 17.95 -0.8 17.95 -0.85 17.95 -0.9 18.0 -0.9 18.0 -0.95 18.0 -1.0 18.05 -1.0 18.05 -1.05 18.1 -1.1 18.1 -1.1 18.15 -1.15 18.15 -1.15 18.2 -1.2 18.25 -1.2 18.25 -1.25 18.3 -1.25 18.35 -1.25 18.4 -1.3 18.5 -1.35 18.55 -1.35 18.65 -1.4 18.75 -1.4 18.85 -1.4 18.9 -1.4 19.0 -1.35 19.1 -1.35 19.15 -1.3 19.25 -1.25 19.3 -1.25 19.4 -1.2 19.45 -1.15 19.5 -1.05 19.6 -1.0 19.6 -0.95 19.65 -0.9 19.65 -0.85 19.7 -0.8 19.7 -0.75 19.75 -0.7 19.75 -0.65 19.75 -0.6 19.75 -0.55 19.75 -0.5 19.75 -0.45 19.75 -0.4 19.75 -0.35 19.75 -0.3 19.75 -0.25 19.75 -0.2 19.7 -0.15 19.7 -0.1 19.65 -0.05 19.65 0.0 19.6 0.0 19.6 0.05 19.55 0.1 19.55 0.1 19.5 0.15 19.45 0.2 19.45 0.2 19.4 0.25 19.35 0.25 19.3 0.3 19.25 0.3 19.2 0.35 19.15 0.35 19.1 0.35 18.95 0.4 L18.95 0.4" fill="#000000" fill-rule="evenodd" stroke="none"/>
    <path d="M13.55 1.1 Q13.45 1.1 13.4 1.1 13.3 1.1 13.25 1.05 13.15 1.05 13.1 1.0 13.05 1.0 12.95 0.95 12.9 0.9 12.85 0.9 12.8 0.85 12.75 0.8 12.7 0.75 12.7 0.7 12.65 0.6 12.6 0.55 12.6 0.5 12.55 0.45 12.55 0.45 12.55 0.4 12.55 0.35 12.5 0.3 12.5 0.25 12.5 0.2 12.5 0.2 12.5 0.15 12.5 0.1 12.5 0.05 12.55 0.0 12.55 -0.05 12.55 -0.1 12.55 -0.1 12.55 -0.15 12.6 -0.2 12.6 -0.2 12.6 -0.25 12.65 -0.3 12.65 -0.3 12.7 -0.35 12.7 -0.4 12.75 -0.4 12.8 -0.45 12.8 -0.45 12.85 -0.5 12.9 -0.5 12.9 -0.55 12.95 -0.55 13.0 -0.55 13.05 -0.6 13.15 -0.6 13.2 -0.65 13.3 -0.65 13.35 -0.65 13.45 -0.65 13.5 -0.65 13.6 -0.65 13.65 -0.6 13.75 -0.6 13.8 -0.55 13.85 -0.55 13.95 -0.5 14.0 -0.45 14.05 -0.4 14.1 -0.35 14.15 -0.3 14.2 -0.25 14.25 -0.2 14.25 -0.15 14.3 -0.1 14.3 -0.05 14.35 0.0 14.35 0.1 14.35 0.15 14.35 0.2 14.35 0.25 14.35 0.3 14.35 0.35 14.35 0.45 14.35 0.5 14.3 0.55 14.3 0.6 14.25 0.65 14.25 0.7 14.2 0.75 14.2 0.75 14.15 0.8 14.15 0.85 14.1 0.9 14.05 0.9 14.05 0.95 14.0 1.0 13.95 1.0 13.9 1.05 13.85 1.05 13.8 1.05 13.75 1.1 13.75 1.1 13.65 1.1 13.55 1.1 13.55 1.1 L13.55 1.1" fill="#000000" fill-rule="evenodd" stroke="none"/>
    <path d="M3.15 0.7 Q3.15 0.75 3.15 0.8 3.15 0.9 3.15 0.95 3.1 1.0 3.1 1.05 3.1 1.1 3.05 1.15 3.05 1.2 3.0 1.25 2.95 1.25 2.95 1.3 2.9 1.35 2.85 1.4 2.8 1.45 2.75 1.45 2.7 1.5 2.65 1.5 2.6 1.55 2.5 1.55 2.45 1.6 2.4 1.6 2.35 1.6 2.3 1.6 2.2 1.6 2.15 1.6 2.1 1.6 2.05 1.55 2.0 1.55 1.95 1.55 1.9 1.5 1.85 1.5 1.75 1.45 1.7 1.4 1.65 1.35 1.6 1.3 1.55 1.25 1.5 1.2 1.45 1.15 1.4 1.05 1.4 1.0 1.35 0.95 1.35 0.9 1.35 0.8 1.35 0.75 1.35 0.65 1.35 0.6 1.35 0.55 1.35 0.5 1.35 0.5 1.35 0.45 1.35 0.4 1.4 0.35 1.4 0.35 1.4 0.3 1.4 0.25 1.4 0.25 1.45 0.2 1.45 0.2 1.5 0.15 1.5 0.1 1.5 0.1 1.55 0.05 1.6 0.05 1.65 0.0 1.7 0.0 1.75 -0.05 1.8 -0.1 1.85 -0.1 1.9 -0.15 1.95 -0.15 2.0 -0.15 2.05 -0.2 2.1 -0.2 2.2 -0.2 2.25 -0.2 2.3 -0.2 2.35 -0.2 2.4 -0.15 2.5 -0.15 2.55 -0.15 2.65 -0.1 2.7 -0.05 2.75 -0.05 2.8 0.0 2.85 0.05 2.9 0.05 2.95 0.1 2.95 0.15 3.0 0.2 3.05 0.25 3.05 0.3 3.1 0.35 3.1 0.4 3.15 0.5 3.15 0.55 3.15 0.6 3.15 0.65 3.15 0.7 3.15 0.7 L3.15 0.7" fill="#000000" fill-rule="evenodd" stroke="none"/>
  </g>
</svg>
