<?xml version="1.0" encoding="UTF-8" standalone="no"?>
<svg xmlns:xlink="http://www.w3.org/1999/xlink" height="36.2px" width="74.5px" xmlns="http://www.w3.org/2000/svg">
  <g transform="matrix(1.0, 0.0, 0.0, 1.0, 37.25, 18.1)">
    <path d="M-18.35 -26.1 Q-18.75 -24.85 -19.7 -22.1 -19.95 -21.4 -20.5 -19.9 -21.75 -17.45 -22.3 -16.2 -22.4 -15.95 -22.55 -15.7 -22.65 -15.45 -22.8 -15.2 -22.9 -14.9 -23.05 -14.6 -23.2 -14.25 -23.35 -13.95 -23.5 -13.6 -23.65 -13.25 -23.8 -12.9 -23.95 -12.5 -24.1 -12.15 -24.25 -11.75 -24.4 -11.35 -24.55 -10.9 -24.85 -10.1 -25.1 -9.3 -25.35 -8.55 -25.55 -7.8 -25.75 -7.1 -25.95 -6.45 -26.1 -5.8 -26.25 -5.2 -26.35 -4.65 -26.5 -4.15 -26.55 -3.7 -26.65 -3.25 -26.7 -2.95 -26.75 -2.6 -26.8 -2.4 -26.85 -2.2 -26.9 -1.9 -26.95 -1.6 -27.0 -1.25 -27.05 -0.95 -27.05 -0.6 -27.1 -0.25 -27.15 0.1 -27.2 0.45 -27.2 0.85 -27.25 1.2 -27.3 1.6 -27.3 2.0 -27.35 2.4 -27.35 2.8 -27.35 3.2 -27.4 3.65 -27.4 3.7 -27.45 3.7 -27.45 3.75 -27.45 3.8 -27.5 3.85 -27.5 3.9 -27.55 3.95 -27.6 3.95 -27.6 4.0 -27.65 4.05 -27.7 4.1 -27.75 4.15 -27.75 4.2 -27.8 4.25 -27.85 4.3 -27.9 4.35 -28.0 4.45 -28.15 4.5 -28.3 4.6 -28.45 4.65 -28.55 4.7 -28.7 4.7 -28.85 4.75 -28.95 4.75 -29.1 4.8 -29.2 4.8 -29.35 4.8 -29.45 4.8 -29.55 4.8 -29.65 4.8 -29.85 4.8 -29.85 4.8 -30.0 4.8 -30.15 4.8 -30.35 4.8 -30.5 4.85 -30.7 4.85 -30.9 4.9 -31.1 4.95 -31.3 5.0 -31.55 5.05 -31.75 5.15 -32.0 5.25 -32.25 5.35 -32.5 5.45 -32.8 5.6 -33.05 5.75 -33.35 5.95 -32.75 6.55 -31.5 7.8 -31.45 8.1 -31.45 8.75 -31.3 8.8 -31.2 8.85 -31.05 8.9 -30.95 8.95 -30.8 9.0 -30.65 9.05 -30.5 9.1 -30.35 9.15 -30.2 9.2 -30.1 9.25 -29.95 9.35 -29.8 9.4 -29.65 9.5 -29.45 9.55 -29.3 9.65 -29.15 9.75 -28.95 9.85 -28.75 10.0 -28.55 10.1 -28.4 10.2 -28.2 10.35 -28.05 10.45 -27.85 10.6 -27.7 10.7 -27.55 10.8 -27.4 10.95 -27.25 11.05 -27.1 11.15 -27.0 11.3 -26.85 11.4 -26.75 11.5 -26.6 11.65 -26.2 11.2 -25.4 10.25 -25.2 10.25 -25.0 10.25 -24.8 10.25 -24.6 10.25 -24.4 10.25 -24.2 10.25 -24.05 10.25 -23.85 10.25 -23.7 10.25 -23.5 10.25 -23.35 10.25 -23.2 10.25 -23.05 10.25 -22.9 10.25 -22.75 10.25 -22.65 10.25 -22.4 10.25 -22.15 10.3 -21.95 10.3 -21.75 10.35 -21.55 10.35 -21.4 10.35 -21.25 10.4 -21.15 10.4 -21.0 10.45 -20.9 10.45 -20.8 10.5 -20.7 10.5 -20.65 10.5 -20.6 10.55 -20.5 10.55 -20.45 10.6 -20.3 10.65 -20.15 10.7 -20.0 10.75 -19.85 10.85 -19.75 10.9 -19.6 10.95 -19.5 11.05 -19.35 11.1 -19.25 11.2 -19.15 11.25 -19.05 11.35 -18.95 11.4 -18.9 11.45 -18.8 11.55 -18.7 11.6 -18.65 11.7 -18.65 11.65 -18.6 11.65 -18.6 11.6 -18.55 11.6 -18.55 11.55 -18.55 11.55 -18.5 11.5 -18.5 11.5 -18.45 11.45 -18.4 11.45 -18.4 11.4 -18.35 11.4 -18.3 11.35 -18.3 11.35 -18.25 11.3 -18.2 11.3 -18.1 11.25 -17.95 11.2 -17.85 11.2 -17.75 11.15 -17.6 11.15 -17.5 11.15 -17.4 11.2 -17.25 11.2 -17.15 11.25 -17.05 11.25 -16.9 11.3 -16.8 11.35 -16.7 11.4 -16.6 11.45 -16.4 11.5 -16.4 11.5 -16.25 11.55 -16.15 11.6 -16.0 11.65 -15.85 11.7 -15.7 11.7 -15.55 11.75 -15.35 11.8 -15.2 11.85 -15.0 11.85 -14.8 11.9 -14.65 11.9 -14.4 11.95 -14.2 11.95 -14.0 11.95 -13.75 12.0 -13.5 12.0 -13.45 11.95 -13.45 11.9 -13.4 11.9 -13.35 11.85 -13.35 11.8 -13.3 11.75 -13.25 11.7 -13.2 11.65 -13.15 11.65 -13.1 11.6 -13.05 11.55 -13.0 11.5 -12.9 11.45 -12.85 11.4 -12.8 11.4 -12.7 11.35 -12.55 11.3 -12.45 11.25 -12.3 11.2 -12.2 11.15 -12.05 11.1 -11.95 11.1 -11.8 11.05 -11.65 11.05 -11.55 11.05 -11.4 11.05 -11.25 11.05 -11.1 11.05 -10.95 11.05 -10.75 11.05 -10.5 11.1 -10.35 11.1 -9.7 11.1 -9.2 11.1 -8.95 11.1 -8.5 11.05 -8.15 11.05 -7.9 11.05 -7.5 11.05 -7.0 11.1 -6.85 11.1 -6.65 11.15 -6.5 11.15 -6.35 11.15 -6.2 11.2 -6.0 11.2 -5.9 11.2 -5.75 11.25 -5.6 11.25 -5.45 11.3 -5.35 11.3 -5.2 11.35 -5.1 11.35 -4.95 11.4 -4.85 11.4 -4.75 11.4 -4.75 11.45 -4.8 11.5 -4.8 11.55 -4.8 11.6 -4.8 11.65 -4.85 11.7 -4.85 11.75 -4.85 11.8 -4.85 11.85 -4.85 11.9 -4.85 11.95 -4.85 12.0 -4.85 12.05 -4.8 12.15 -4.8 12.2 -4.8 12.25 -4.75 12.35 -4.7 12.45 -4.65 12.5 -4.55 12.55 -4.45 12.65 -4.35 12.7 -4.3 12.75 -4.15 12.8 -4.05 12.85 -3.9 12.9 -3.8 12.9 -3.65 12.95 -3.55 13.0 -3.4 13.0 -3.3 13.05 -3.05 13.1 -3.05 13.1 -2.9 13.15 -2.8 13.15 -2.7 13.15 -2.6 13.2 -2.5 13.2 -2.35 13.2 -2.25 13.2 -2.1 13.25 -2.0 13.25 -1.9 13.25 -1.8 13.2 -1.7 13.2 -1.65 13.15 -1.6 13.15 -1.55 13.1 -1.55 13.05 -1.55 13.05 -1.55 13.0 -1.55 12.95 -1.55 12.95 -1.6 12.9 -1.6 12.85 -1.65 12.8 -1.7 12.75 -1.7 12.7 -1.75 12.65 -1.8 12.6 -1.8 12.5 -1.85 12.45 -1.9 12.35 -1.9 12.25 -1.9 12.2 -1.95 12.15 -1.95 12.1 -1.95 12.05 -2.0 12.0 -2.0 11.95 -2.05 11.85 -2.05 11.8 -2.05 11.75 -2.05 11.7 -2.05 11.6 -2.05 11.55 -2.05 11.5 -2.0 11.45 -2.0 11.4 -1.95 11.35 -1.9 11.3 -1.9 11.3 -1.85 11.3 -1.8 11.25 -1.75 11.25 -1.7 11.25 -1.65 11.25 -1.6 11.25 -1.55 11.25 -1.5 11.25 -1.45 11.25 -1.4 11.25 -1.25 11.3 -1.3 11.3 -1.2 11.3 -1.15 11.3 -0.8 11.35 0.65 10.95 0.8 10.9 0.95 10.85 1.1 10.85 1.25 10.8 1.4 10.8 1.6 10.75 1.75 10.75 1.9 10.7 2.1 10.7 2.3 10.7 2.45 10.7 2.7 10.7 2.9 10.65 3.15 10.65 3.3 10.65 3.65 10.65 3.85 10.65 4.05 10.65 4.3 10.65 4.5 10.65 4.75 10.65 4.95 10.65 5.2 10.7 5.45 10.7 5.7 10.7 6.0 10.75 6.25 10.75 6.5 10.8 6.8 10.85 7.1 10.85 7.4 10.9 7.7 10.95 7.45 11.5 6.95 12.55 6.95 12.6 7.0 12.6 7.0 12.65 7.05 12.7 7.05 12.7 7.1 12.75 7.15 12.8 7.15 12.8 7.2 12.85 7.25 12.9 7.25 12.9 7.3 12.95 7.35 13.0 7.4 13.0 7.45 13.05 7.5 13.1 7.55 13.15 7.6 13.15 7.65 13.15 7.7 13.2 7.75 13.2 7.8 13.25 7.9 13.3 8.0 13.3 8.1 13.35 8.2 13.35 8.3 13.4 8.45 13.4 8.55 13.45 8.7 13.45 8.9 13.45 9.05 13.45 9.2 13.45 9.3 13.45 9.45 13.45 9.55 13.45 9.6 13.45 9.7 13.45 9.8 13.45 9.9 13.4 10.05 13.4 10.1 13.4 10.25 13.35 10.35 13.35 10.5 13.35 10.7 13.3 10.9 13.3 11.15 13.3 11.25 13.3 11.35 13.3 11.5 13.25 11.55 13.25 11.6 13.25 11.7 13.25 11.8 13.25 11.85 13.25 11.95 13.25 12.0 13.2 12.1 13.2 12.15 13.2 12.25 13.15 12.35 13.15 12.4 13.1 12.5 13.1 11.95 13.35 12.6 13.05 12.7 13.0 12.75 13.0 12.8 12.95 12.85 12.95 12.95 12.9 13.0 12.85 13.05 12.85 13.1 12.8 13.15 12.75 13.2 12.7 13.2 12.7 13.25 12.65 13.3 12.6 13.3 12.5 13.35 12.4 13.35 12.35 13.35 12.25 13.35 12.15 13.35 12.05 13.35 11.95 13.3 11.85 13.25 11.75 13.2 11.65 13.15 11.55 13.05 11.45 13.0 11.3 12.9 11.2 12.8 11.1 12.7 11.0 12.6 10.9 12.75 10.9 12.85 10.85 13.0 10.85 13.15 10.85 13.25 10.8 13.4 10.8 13.55 10.8 13.7 10.75 13.85 10.75 13.95 10.75 14.1 10.7 14.25 10.7 14.4 10.7 14.55 10.7 14.7 10.65 14.85 10.65 15.2 10.6 15.6 10.6 15.95 10.6 16.3 10.6 16.7 10.55 17.05 10.55 17.4 10.55 17.75 10.6 18.05 10.6 18.4 10.6 18.7 10.6 19.05 10.65 19.35 10.65 19.7 10.7 20.0 10.7 20.3 10.75 20.3 10.75 20.3 10.8 20.25 10.85 20.25 10.85 20.25 10.9 20.25 10.95 20.2 11.05 20.2 11.1 20.2 11.15 20.2 11.25 20.2 11.3 20.2 11.4 20.25 11.45 20.25 11.55 20.3 11.6 20.35 11.7 20.35 11.7 20.35 11.75 20.4 11.75 20.4 11.75 20.4 11.8 20.45 11.8 20.45 11.85 20.5 11.85 20.55 11.9 20.6 11.9 20.6 11.95 20.65 11.95 20.7 12.0 20.75 12.0 20.85 12.05 20.9 12.05 20.95 12.05 21.0 12.1 21.05 12.1 21.1 12.1 21.15 12.15 21.25 12.15 21.3 12.15 21.4 12.15 21.55 12.15 21.65 12.15 21.75 12.15 21.9 12.15 22.05 12.15 22.2 12.1 22.4 12.1 22.55 12.05 22.7 12.0 22.85 12.0 23.0 11.95 23.1 11.9 23.25 11.85 23.35 11.85 23.5 11.8 23.6 11.75 23.7 11.7 23.8 11.65 23.9 11.6 24.0 11.55 24.1 11.55 24.2 11.5 24.25 11.45 24.35 11.4 24.35 11.4 24.4 11.35 24.45 11.35 24.5 11.35 24.55 11.3 24.6 11.3 24.65 11.25 24.7 11.2 24.75 11.2 24.85 11.15 24.9 11.1 25.0 11.05 25.05 11.0 25.15 10.95 25.25 10.9 25.3 10.85 25.6 10.65 25.85 10.45 26.05 10.3 26.25 10.15 26.45 10.0 26.6 9.85 26.65 9.8 26.85 9.6 27.0 9.5 27.1 9.4 27.2 9.3 27.3 9.25 27.45 9.15 27.55 9.1 27.7 9.05 27.85 9.0 27.95 9.0 28.05 8.95 28.15 8.95 28.25 8.95 28.25 8.95 28.4 8.9 28.5 8.9 28.55 8.9 28.65 8.9 28.7 8.85 28.8 8.85 28.85 8.8 28.95 8.8 29.0 8.75 29.05 8.7 29.15 8.65 29.2 8.6 29.2 8.6 29.25 8.55 29.25 8.55 29.3 8.5 29.35 8.45 29.35 8.45 29.4 8.4 29.4 8.35 29.45 8.3 29.5 8.2 29.5 8.15 29.55 8.1 29.6 8.0 29.65 7.9 29.7 7.8 29.85 7.5 30.0 7.3 30.1 7.05 30.2 6.85 30.3 6.7 30.35 6.55 30.45 6.4 30.5 6.3 30.55 6.15 30.55 6.05 30.6 6.0 30.6 5.9 30.65 5.8 30.65 5.75 30.65 5.7 30.65 5.6 30.65 5.55 30.65 5.5 30.65 5.45 30.65 5.4 30.65 5.35 30.65 5.3 30.65 5.25 30.65 5.2 30.65 5.15 30.6 5.1 30.6 5.05 30.6 5.0 30.6 4.95 30.55 4.9 30.55 4.8 30.55 4.75 29.8 4.45 28.85 4.05 27.95 3.65 27.7 3.55 27.45 3.45 27.35 3.4 27.2 3.35 27.05 3.3 26.9 3.2 26.8 3.15 26.65 3.1 26.55 3.05 26.45 2.95 26.35 2.9 26.25 2.8 26.15 2.75 26.05 2.65 25.95 2.6 25.85 2.5 25.8 2.4 25.7 2.3 25.65 2.2 25.6 2.1 25.55 2.0 25.5 1.9 25.45 1.8 25.4 1.75 25.35 1.65 25.3 1.55 25.3 1.45 25.25 1.35 25.25 1.25 25.2 1.15 25.2 1.05 25.15 1.0 25.15 0.9 24.75 -0.8 24.05 -4.7 23.95 -5.35 23.6 -7.05 23.2 -8.85 22.2 -12.65 21.35 -15.75 20.2 -20.5 20.1 -20.9 20.0 -21.25 19.95 -21.6 19.85 -21.95 19.75 -22.3 19.7 -22.65 19.6 -23.0 19.55 -23.3 19.45 -23.65 19.4 -23.95 19.3 -24.25 19.25 -24.55 19.2 -24.8 19.15 -25.1 19.05 -25.35 19.0 -25.6 18.9 -25.6 17.25 -25.35 15.9 -25.15 14.9 -25.05 8.65 -24.2 4.85 -24.2 4.45 -24.2 -0.1 -24.35 -8.4 -24.7 -9.65 -24.8 -10.05 -24.85 -10.5 -24.9 -10.95 -24.9 -11.4 -24.95 -11.9 -25.05 -12.4 -25.1 -12.9 -25.15 -13.45 -25.25 -14.0 -25.3 -14.55 -25.4 -15.15 -25.5 -15.75 -25.6 -16.4 -25.7 -17.0 -25.8 -17.7 -25.95 -18.35 -26.1 L-18.35 -26.1" fill="#4949e2" fill-rule="evenodd" stroke="none"/>
  </g>
</svg>
