<?xml version="1.0" encoding="UTF-8" standalone="no"?>
<svg xmlns:xlink="http://www.w3.org/1999/xlink" height="55.1px" width="125.75px" xmlns="http://www.w3.org/2000/svg">
  <g transform="matrix(1.0, 0.0, 0.0, 1.0, 62.9, 27.55)">
    <path d="M-89.45 27.4 Q-87.7 28.75 -85.1 30.85 -83.05 32.45 -79.8 35.05 -79.4 39.35 -78.65 47.45 -78.5 47.4 -78.3 47.3 -78.1 47.25 -77.95 47.15 -77.7 47.1 -77.5 47.0 -77.3 46.9 -77.1 46.8 -76.85 46.7 -76.6 46.55 -76.4 46.45 -76.15 46.35 -75.9 46.2 -75.65 46.05 -75.4 45.9 -75.15 45.75 -74.7 45.5 -74.3 45.25 -73.9 45.0 -73.5 44.7 -73.15 44.45 -72.8 44.15 -72.4 43.9 -72.05 43.55 -71.7 43.25 -71.35 42.9 -71.0 42.6 -70.6 42.2 -70.25 41.9 -69.8 41.45 -69.5 41.15 -68.9 40.55 -68.1 39.75 -67.4 39.0 -66.8 38.35 -66.3 37.75 -65.9 37.25 -65.55 36.75 -65.25 36.35 -64.95 35.9 -63.2 33.25 -64.5 35.2 -64.2 34.8 -64.0 34.5 -63.75 34.15 -63.4 33.85 -63.1 33.45 -62.65 33.05 -62.6 33.0 -62.55 32.95 -62.5 32.9 -62.45 32.85 -62.4 32.8 -62.3 32.75 -62.25 32.65 -62.2 32.6 -62.15 32.5 -62.1 32.4 -62.05 32.35 -62.0 32.25 -61.95 32.15 -61.9 32.0 -61.85 31.9 -61.85 31.8 -61.8 31.6 -61.8 31.4 -61.85 31.2 -61.9 31.0 -61.95 30.85 -62.05 30.65 -62.15 30.45 -62.3 30.25 -62.45 30.1 -62.65 29.85 -62.6 29.85 -63.0 29.35 -63.25 29.05 -63.4 28.85 -63.65 28.55 -63.85 28.25 -64.2 27.75 -66.7 22.3 -67.15 21.4 -67.7 20.2 -68.15 20.2 -68.55 20.15 -69.05 20.15 -69.5 20.15 -70.0 20.15 -70.5 20.15 -71.0 20.2 -71.5 20.25 -72.05 20.25 -72.6 20.3 -73.15 20.4 -73.7 20.45 -74.3 20.55 -74.85 20.65 -75.45 20.75 -76.05 20.9 -77.2 21.15 -78.35 21.5 -79.45 21.8 -80.5 22.2 -81.5 22.6 -82.45 23.05 -83.35 23.45 -84.2 23.9 -85.0 24.35 -85.8 24.8 -86.5 25.25 -87.2 25.7 -87.8 26.15 -88.4 26.6 -88.95 26.95 -89.45 27.4 L-89.45 27.4" fill="#4685a1" fill-rule="evenodd" stroke="none"/>
    <path d="M-50.9 15.3 Q-50.5 15.05 -50.1 14.8 -49.7 14.6 -49.3 14.35 -48.95 14.15 -48.55 13.95 -48.2 13.75 -47.85 13.6 -47.5 13.4 -47.2 13.25 -46.9 13.1 -46.55 12.95 -46.3 12.8 -46.0 12.7 -45.75 12.55 -45.5 12.45 -44.5 12.0 -43.9 11.75 -43.0 11.35 -42.25 11.05 -41.4 10.75 -40.65 10.45 -39.8 10.2 -39.0 9.95 -38.1 9.75 -37.3 9.6 -36.4 9.45 -35.55 9.35 -34.65 9.3 -33.75 9.35 -32.85 9.4 -31.95 9.55 -31.7 9.6 -31.4 9.65 -31.15 9.7 -30.9 9.75 -30.7 9.8 -30.45 9.85 -30.25 9.95 -30.05 10.0 -29.85 10.05 -29.65 10.1 -29.45 10.15 -29.3 10.25 -29.15 10.3 -29.0 10.35 -28.85 10.4 -28.7 10.45 -28.95 10.9 -29.2 11.4 -29.45 11.9 -29.65 12.4 -29.9 12.9 -30.15 13.4 -30.35 13.95 -30.6 14.5 -30.8 15.05 -31.0 15.6 -31.2 16.2 -31.4 16.8 -31.6 17.4 -31.8 18.0 -32.0 18.65 -32.15 19.25 -32.2 19.4 -32.25 19.6 -32.3 19.75 -32.35 19.95 -32.35 20.1 -32.4 20.3 -32.45 20.45 -32.5 20.65 -32.55 20.8 -32.55 20.95 -32.6 21.15 -32.65 21.3 -32.65 21.45 -32.7 21.6 -32.75 21.8 -32.75 21.95 -31.5 25.45 -29.0 32.45 -29.15 32.55 -29.3 32.6 -29.45 32.7 -29.6 32.75 -29.75 32.85 -29.95 32.95 -30.1 33.0 -30.3 33.1 -30.5 33.2 -30.7 33.25 -30.9 33.3 -31.15 33.4 -31.35 33.45 -31.6 33.5 -31.85 33.55 -32.1 33.6 -32.5 33.65 -32.9 33.65 -33.25 33.7 -33.6 33.65 -33.95 33.6 -34.3 33.5 -34.65 33.45 -35.05 33.3 -35.4 33.2 -35.9 33.05 -35.35 33.25 -36.9 32.7 -37.55 32.45 -38.1 32.3 -38.8 32.05 -39.5 31.85 -40.2 31.65 -40.85 31.45 -41.4 31.3 -41.95 31.15 -42.35 31.05 -42.9 30.95 -43.5 30.8 -43.7 30.75 -44.15 30.65 -44.45 30.55 -44.85 30.45 -45.2 30.3 -45.55 30.2 -45.95 30.0 -46.4 29.85 -46.85 29.6 -47.1 29.5 -47.35 29.35 -47.6 29.2 -47.85 29.1 -48.05 28.95 -48.25 28.85 -48.45 28.7 -48.65 28.6 -48.85 28.5 -49.05 28.35 -49.2 28.25 -49.4 28.15 -49.55 28.05 -49.7 27.95 -49.85 27.85 -49.95 27.75 -49.95 27.4 -49.95 27.1 -49.95 26.75 -49.95 26.4 -49.95 26.05 -49.95 25.7 -49.95 25.35 -49.95 25.0 -49.95 24.65 -49.95 24.3 -50.0 23.95 -50.0 23.6 -50.0 23.2 -50.05 22.85 -50.05 22.45 -50.1 22.1 -50.15 21.65 -50.15 21.2 -50.2 20.75 -50.25 20.3 -50.25 19.85 -50.3 19.4 -50.35 18.95 -50.4 18.55 -50.45 18.1 -50.5 17.7 -50.55 17.3 -50.65 16.9 -50.7 16.5 -50.75 16.1 -50.8 15.7 -50.9 15.3 L-50.9 15.3" fill="#4685a1" fill-rule="evenodd" stroke="none"/>
    <path d="M-49.6 29.2 Q-49.1 29.65 -48.65 30.1 -48.2 30.55 -47.75 31.0 -47.35 31.45 -46.95 31.9 -46.55 32.3 -46.2 32.7 -45.85 33.1 -45.55 33.5 -45.25 33.9 -44.95 34.25 -44.7 34.6 -44.4 34.95 -44.2 35.25 -43.95 35.6 -43.5 36.25 -43.0 37.0 -42.55 37.7 -42.1 38.5 -41.7 39.25 -41.2 40.1 -40.75 40.95 -40.3 41.95 -39.8 42.9 -39.3 44.05 -38.8 45.1 -38.2 46.4 -37.7 47.5 -37.0 49.05 -36.55 50.1 -35.7 52.05 -35.3 52.9 -34.85 53.95 -36.2 52.85 -38.95 50.6 -39.15 52.85 -39.5 57.4 -39.8 56.55 -40.15 55.7 -40.45 54.8 -40.8 53.95 -41.2 53.0 -41.55 52.1 -41.95 51.15 -42.4 50.25 -42.85 49.25 -43.3 48.3 -43.8 47.35 -44.3 46.35 -44.8 45.35 -45.35 44.35 -45.9 43.35 -46.5 42.3 -46.9 41.65 -47.25 41.0 -47.65 40.4 -48.05 39.75 -48.4 39.15 -48.8 38.55 -49.2 37.95 -49.6 37.35 -50.0 36.8 -50.4 36.2 -50.75 35.65 -51.15 35.1 -51.55 34.6 -51.95 34.05 -52.3 33.55 -52.7 33.05 -51.65 31.75 -49.6 29.2 L-49.6 29.2" fill="#4685a1" fill-rule="evenodd" stroke="none"/>
    <path d="M-61.95 32.9 Q-62.05 33.15 -62.15 33.4 -62.3 33.7 -62.4 33.95 -62.55 34.25 -62.65 34.55 -62.75 34.9 -62.9 35.2 -63.0 35.55 -63.15 35.95 -63.25 36.3 -63.35 36.7 -63.5 37.1 -63.6 37.5 -63.7 37.9 -63.8 38.35 -63.9 38.85 -64.0 39.3 -64.1 39.75 -64.15 40.2 -64.2 40.65 -64.25 41.1 -64.3 41.55 -64.35 42.0 -64.35 42.45 -64.4 42.95 -64.4 43.45 -64.45 44.0 -64.45 44.45 -64.45 45.1 -64.45 45.5 -64.5 46.4 -64.5 47.35 -64.5 48.3 -64.5 49.15 -64.45 50.0 -64.45 50.8 -64.4 51.6 -64.35 52.3 -64.3 53.0 -64.25 53.65 -64.2 54.25 -64.15 54.8 -64.1 55.3 -64.05 55.7 -64.0 56.1 -64.0 56.4 -63.95 56.7 -63.9 57.1 -63.85 57.5 -63.8 57.9 -63.75 58.25 -63.65 58.65 -63.6 59.0 -63.55 59.35 -63.5 59.7 -63.45 60.0 -63.35 60.35 -63.3 60.65 -63.25 60.95 -63.2 61.25 -63.15 61.55 -63.1 61.8 -63.0 62.1 -62.4 60.1 -61.1 56.2 -60.05 58.25 -57.65 62.85 -57.65 61.6 -57.65 60.4 -57.65 59.2 -57.7 58.1 -57.75 57.0 -57.75 55.95 -57.8 54.95 -57.85 54.0 -57.9 53.05 -57.95 52.2 -58.0 51.35 -58.1 50.55 -58.15 49.75 -58.2 49.05 -58.3 48.35 -58.35 47.7 -58.45 46.8 -58.45 46.9 -58.5 46.4 -58.55 45.95 -58.6 45.4 -58.6 44.85 -58.65 44.2 -58.7 43.6 -58.75 42.9 -58.75 42.2 -58.75 41.4 -58.75 40.65 -58.75 39.8 -58.7 39.0 -58.65 38.1 -58.6 37.2 -58.55 36.9 -58.55 36.6 -58.5 36.35 -58.5 36.05 -58.45 35.8 -58.4 35.55 -58.4 35.3 -58.35 35.05 -58.35 34.8 -58.3 34.6 -58.25 34.4 -58.25 34.15 -58.2 34.0 -58.2 33.8 -58.15 33.6 -58.1 33.45 -59.4 33.25 -61.95 32.9 L-61.95 32.9" fill="#4685a1" fill-rule="evenodd" stroke="none"/>
  </g>
</svg>
