<?xml version="1.0" encoding="UTF-8" standalone="no"?>
<svg xmlns:xlink="http://www.w3.org/1999/xlink" height="5.75px" width="13.15px" xmlns="http://www.w3.org/2000/svg">
  <g transform="matrix(1.0, 0.0, 0.0, 1.0, 6.6, 3.0)">
    <path d="M-4.2 -1.6 Q-4.2 -1.6 -4.1 -1.55 -4.05 -1.55 -4.05 -1.5 -4.0 -1.5 -3.95 -1.5 -3.95 -1.5 -3.9 -1.45 -3.9 -1.45 -3.85 -1.45 -3.8 -1.45 -3.8 -1.4 -3.75 -1.4 -3.7 -1.4 -3.65 -1.4 -3.65 -1.4 -3.6 -1.35 -3.55 -1.35 -3.55 -1.35 -3.1 -1.3 -3.05 -1.3 -2.5 -1.25 -2.4 -1.25 -1.85 -1.15 -1.75 -1.1 -1.7 -1.05 -1.6 -1.0 -1.35 -0.95 -1.3 -0.95 -1.3 -0.95 -1.25 -0.9 -1.25 -0.9 -1.2 -0.9 -1.2 -0.9 -1.15 -0.9 -1.1 -0.85 -1.1 -0.85 -1.05 -0.85 -1.05 -0.85 -1.0 -0.85 -0.95 -0.85 -0.95 -0.8 -0.9 -0.8 -0.85 -0.8 -0.65 -0.75 -0.35 -0.7 -0.3 -0.7 -0.2 -0.7 -0.15 -0.7 -0.1 -0.7 -0.05 -0.7 0.05 -0.7 0.1 -0.65 0.15 -0.65 0.2 -0.65 0.3 -0.65 0.35 -0.65 0.4 -0.7 0.45 -0.7 0.55 -0.7 0.6 -0.7 0.65 -0.7 0.85 -0.7 0.95 -0.7 1.0 -0.7 1.0 -0.7 1.0 -0.7 1.0 -0.65 1.0 -0.65 1.0 -0.65 1.0 -0.65 1.0 -0.65 0.95 -0.6 0.95 -0.6 0.9 -0.6 0.85 -0.55 0.85 -0.55 0.8 -0.55 0.8 -0.55 0.7 -0.55 0.65 -0.55 0.6 -0.5 0.55 -0.5 0.5 -0.5 0.4 -0.5 0.35 -0.5 0.3 -0.5 0.25 -0.5 0.2 -0.5 0.15 -0.5 0.1 -0.5 0.0 -0.5 -0.05 -0.5 -0.1 -0.5 -0.15 -0.5 -0.2 -0.5 -0.25 -0.5 -0.3 -0.5 -0.35 -0.5 -0.4 -0.5 -0.45 -0.5 -0.5 -0.5 -0.55 -0.5 -0.6 -0.55 -0.65 -0.55 -0.9 -0.6 -1.0 -0.6 -1.1 -0.65 -1.25 -0.65 -1.3 -0.7 -1.4 -0.7 -1.7 -0.75 -1.8 -0.8 -2.1 -0.85 -2.15 -0.85 -2.35 -0.9 -2.55 -0.9 -2.65 -0.95 -2.8 -0.95 -3.1 -1.0 -3.2 -1.0 -3.35 -1.05 -3.55 -1.05 -3.65 -1.05 -3.65 -1.05 -3.9 -1.1 -4.05 -1.1 -4.1 -1.1 -4.4 -1.15 -4.6 -1.15 -4.65 -1.15 -4.85 -1.2 -4.85 -1.2 -5.1 -1.25 -5.2 -1.3 -5.4 -1.35 -5.45 -1.4 -5.65 -1.45 -5.7 -1.45 -5.75 -1.45 -5.8 -1.5 -5.85 -1.5 -5.85 -1.5 -5.9 -1.55 -5.95 -1.55 -6.0 -1.55 -6.0 -1.55 -6.05 -1.6 -6.05 -1.6 -6.1 -1.6 -6.15 -1.65 -6.2 -1.65 -6.25 -1.65 -6.3 -1.7 -6.3 -1.7 -6.35 -1.75 -6.4 -1.75 -6.4 -1.8 -6.45 -1.85 -6.45 -1.85 -6.5 -1.9 -6.5 -1.95 -6.5 -1.95 -6.5 -2.0 -6.55 -2.05 -6.55 -2.1 -6.55 -2.15 -6.55 -2.2 -6.5 -2.2 -6.5 -2.25 -6.5 -2.3 -6.45 -2.3 -6.45 -2.35 -6.4 -2.35 -6.35 -2.4 -6.35 -2.4 -6.3 -2.45 -6.3 -2.45 -6.25 -2.45 -6.25 -2.5 -6.2 -2.5 -6.15 -2.5 -6.15 -2.55 -6.1 -2.55 -6.05 -2.55 -6.0 -2.55 -5.95 -2.55 -5.9 -2.55 -5.85 -2.55 -5.8 -2.5 -5.7 -2.45 -5.4 -2.3 -5.1 -2.15 -4.95 -2.05 -4.9 -2.05 -4.9 -2.0 -4.85 -2.0 -4.85 -2.0 -4.8 -1.95 -4.8 -1.95 -4.75 -1.95 -4.75 -1.9 -4.7 -1.9 -4.7 -1.9 -4.65 -1.85 -4.65 -1.85 -4.6 -1.85 -4.6 -1.8 -4.55 -1.8 -4.55 -1.8 -4.45 -1.75 -4.2 -1.6 -4.2 -1.6 -4.2 -1.6 -4.2 -1.6 -4.2 -1.6 L-4.2 -1.6" fill="#000000" fill-rule="evenodd" stroke="none"/>
    <path d="M6.05 -2.05 Q6.1 -2.05 6.1 -2.05 6.15 -2.05 6.2 -2.05 6.2 -2.05 6.25 -2.0 6.3 -2.0 6.3 -1.95 6.35 -1.95 6.35 -1.9 6.4 -1.85 6.4 -1.8 6.4 -1.75 6.4 -1.7 6.4 -1.65 6.4 -1.6 6.35 -1.55 6.35 -1.55 6.35 -1.5 6.3 -1.5 6.25 -1.45 6.25 -1.45 6.2 -1.4 6.2 -1.4 6.15 -1.4 6.15 -1.35 6.1 -1.35 6.05 -1.35 6.05 -1.35 6.0 -1.3 6.0 -1.3 5.95 -1.3 5.9 -1.3 5.9 -1.3 5.85 -1.3 5.8 -1.25 5.75 -1.25 5.65 -1.25 5.6 -1.25 5.55 -1.2 5.5 -1.2 5.45 -1.2 5.4 -1.2 5.35 -1.2 5.3 -1.2 5.2 -1.15 5.15 -1.15 5.1 -1.15 5.05 -1.15 5.0 -1.15 4.95 -1.15 4.85 -1.15 4.75 -1.15 4.75 -1.15 4.7 -1.15 4.65 -1.15 4.6 -1.1 4.6 -1.1 4.55 -1.1 4.5 -1.1 4.45 -1.1 4.4 -1.05 4.35 -1.05 4.3 -1.05 4.3 -1.05 4.25 -1.05 4.2 -1.05 4.15 -1.0 4.1 -1.0 4.05 -1.0 4.0 -1.0 3.95 -1.0 3.9 -0.95 3.85 -0.95 3.8 -0.95 3.8 -0.95 3.75 -0.95 3.7 -0.9 3.65 -0.9 3.65 -0.9 3.6 -0.9 3.55 -0.9 3.5 -0.85 3.45 -0.85 3.5 -0.85 3.35 -0.85 3.35 -0.85 3.35 -0.85 3.35 -0.85 3.35 -0.85 3.35 -0.9 3.35 -0.9 3.4 -0.9 3.45 -0.95 3.5 -1.0 3.55 -1.0 3.75 -1.1 3.85 -1.1 3.9 -1.1 3.95 -1.15 4.0 -1.15 4.05 -1.2 4.05 -1.2 4.1 -1.2 4.15 -1.25 4.2 -1.25 4.25 -1.25 4.25 -1.25 4.3 -1.25 4.35 -1.25 4.35 -1.3 4.4 -1.3 4.4 -1.3 4.45 -1.3 4.5 -1.3 4.5 -1.3 4.55 -1.35 4.55 -1.35 4.6 -1.35 4.65 -1.35 4.65 -1.35 4.7 -1.35 4.75 -1.4 4.85 -1.45 4.95 -1.5 5.05 -1.55 5.1 -1.55 5.15 -1.6 5.15 -1.65 5.25 -1.7 5.25 -1.7 5.3 -1.75 5.35 -1.8 5.4 -1.85 5.45 -1.9 5.45 -1.9 5.5 -1.95 5.55 -1.95 5.6 -1.95 5.6 -2.0 5.65 -2.0 5.7 -2.0 5.75 -2.0 5.8 -2.05 5.8 -2.05 5.85 -2.05 5.9 -2.05 5.95 -2.05 6.0 -2.05 6.05 -2.05 L6.05 -2.05" fill="#000000" fill-rule="evenodd" stroke="none"/>
  </g>
</svg>
