<?xml version="1.0" encoding="UTF-8" standalone="no"?>
<svg xmlns:xlink="http://www.w3.org/1999/xlink" height="13.05px" width="15.35px" xmlns="http://www.w3.org/2000/svg">
  <g transform="matrix(1.0, 0.0, 0.0, 1.0, 4.7, 2.6)">
    <path d="M0.1 -0.15 Q-0.05 -0.1 -0.2 0.0 -0.35 0.05 -0.5 0.15 -0.65 0.2 -0.8 0.25 -0.9 0.35 -1.05 0.4 -1.15 0.5 -1.25 0.55 -1.35 0.6 -1.45 0.7 -1.55 0.75 -1.65 0.8 -1.75 0.9 -1.85 0.95 -2.05 1.1 -2.1 1.15 -2.25 1.25 -2.4 1.35 -2.55 1.5 -2.65 1.6 -2.8 1.75 -2.95 1.9 -3.1 2.0 -3.2 2.15 -3.3 2.3 -3.35 2.45 -3.45 2.6 -3.5 2.75 -3.5 2.9 -3.5 3.0 -3.45 3.45 -3.45 3.65 -3.45 3.7 -3.45 3.75 -3.45 3.8 -3.45 3.85 -3.45 3.9 -3.5 3.9 -3.5 3.95 -3.5 4.0 -3.5 4.05 -3.5 4.05 -3.55 4.1 -3.55 4.15 -3.55 4.2 -3.55 4.25 -3.55 4.3 -3.55 4.35 -3.55 4.4 -3.55 4.5 -3.55 4.55 -3.6 4.65 -3.6 4.7 -3.6 4.75 -3.6 4.8 -3.55 4.85 -3.55 4.95 -3.55 5.0 -3.55 5.0 -3.55 5.05 -3.55 5.1 -3.55 5.15 -3.55 5.15 -3.55 5.2 -3.55 5.25 -3.5 5.3 -3.5 5.35 -3.5 5.4 -3.5 5.45 -3.45 5.5 -3.45 5.55 -3.45 5.6 -3.4 5.65 -3.4 5.7 -3.4 5.7 -3.4 5.75 -3.35 5.75 -3.35 5.8 -3.35 5.9 -3.35 5.85 -3.3 6.0 -3.25 6.15 -3.2 6.3 -3.15 6.4 -3.15 6.55 -3.1 6.65 -3.1 6.75 -3.05 6.85 -3.05 6.9 -3.05 7.1 -3.0 7.2 -3.0 7.25 -3.0 7.35 -2.95 7.45 -2.95 7.55 -2.9 7.6 -2.85 7.7 -2.8 7.8 -2.75 7.85 -2.7 7.95 -2.65 8.05 -2.55 8.15 -2.45 8.25 -2.35 8.35 -2.25 8.45 -2.1 8.5 -1.95 8.6 -1.8 8.7 -1.6 8.8 -1.4 8.9 -1.2 8.95 -0.95 9.05 -0.75 9.15 -0.55 9.2 -0.4 9.25 -0.25 9.35 -0.1 9.4 0.0 9.45 0.1 9.5 0.2 9.55 0.25 9.55 0.3 9.6 0.35 9.65 0.4 9.65 0.4 9.7 0.4 9.7 0.45 9.75 0.45 9.75 0.45 9.8 0.35 9.8 0.25 9.85 0.1 9.85 -0.05 9.85 -0.2 9.85 -0.4 9.85 -0.65 9.8 -0.9 9.75 -1.15 9.7 -1.4 9.65 -1.65 9.55 -1.95 9.45 -2.2 9.3 -2.5 9.2 -2.75 9.05 -2.8 9.05 -2.85 9.0 -2.9 8.95 -2.95 8.9 -3.05 8.85 -3.1 8.8 -3.15 8.75 -3.2 8.7 -3.3 8.65 -3.35 8.6 -3.4 8.55 -3.5 8.45 -3.55 8.4 -3.6 8.3 -3.7 8.25 -3.75 8.15 -3.85 8.05 -3.9 7.95 -3.95 7.85 -4.0 7.75 -4.1 7.65 -4.15 7.55 -4.2 7.45 -4.25 7.3 -4.25 7.2 -4.3 7.05 -4.35 6.95 -4.4 6.8 -4.45 6.65 -4.5 6.45 -4.55 6.35 -4.6 6.1 -4.65 5.9 -4.7 5.75 -4.75 5.6 -4.8 5.45 -4.8 5.3 -4.85 5.2 -4.9 5.05 -4.9 4.95 -4.95 4.85 -4.95 4.7 -4.95 4.6 -4.95 4.5 -5.0 4.35 -5.0 4.25 -5.0 4.15 -4.95 4.0 -4.95 3.9 -4.95 3.85 -4.95 3.8 -4.95 3.7 -4.95 3.6 -4.9 3.55 -4.9 3.45 -4.9 3.35 -4.85 3.3 -4.85 3.2 -4.8 3.1 -4.8 3.0 -4.75 2.9 -4.7 2.8 -4.65 2.7 -4.6 2.65 -4.55 2.6 -4.55 2.55 -4.5 2.5 -4.5 2.45 -4.45 2.45 -4.45 2.4 -4.4 2.35 -4.4 2.35 -4.2 2.1 -4.3 2.25 -4.25 2.2 -4.2 2.15 -4.15 2.1 -4.1 2.0 -4.05 1.95 -4.0 1.85 -3.85 1.7 -3.8 1.55 -3.7 1.45 -3.65 1.3 -3.55 1.2 -3.5 1.1 -3.45 1.0 -3.3 0.85 -3.25 0.75 -3.2 0.7 -3.1 0.6 -3.1 0.5 -3.0 0.45 -2.95 0.4 -2.9 0.3 -2.85 0.25 -2.8 0.2 -2.75 0.15 -2.7 0.1 -2.65 0.05 -2.6 0.0 -2.5 -0.05 -2.45 -0.1 -2.4 -0.15 -2.35 -0.2 -2.25 -0.25 -2.2 -0.3 -2.1 -0.3 -2.05 -0.35 -2.0 -0.35 -1.9 -0.4 -1.85 -0.4 -1.8 -0.45 -1.75 -0.45 -1.7 -0.5 -1.65 -0.5 -1.6 -0.5 -1.55 -0.5 -1.5 -0.55 -1.45 -0.55 -1.35 -0.55 -1.35 -0.55 -1.3 -0.6 -1.25 -0.6 -1.2 -0.6 -1.15 -0.6 -1.1 -0.6 -1.05 -0.65 -1.0 -0.65 -0.95 -0.65 -0.95 -0.65 -0.9 -0.65 -0.85 -0.65 -0.8 -0.65 -0.75 -0.65 -0.7 -0.6 -0.65 -0.6 -0.55 -0.55 -0.5 -0.55 -0.4 -0.55 -0.35 -0.5 -0.3 -0.45 -0.25 -0.45 -0.2 -0.4 -0.15 -0.4 -0.1 -0.35 -0.05 -0.3 -0.05 -0.3 0.0 -0.25 0.05 -0.2 0.05 -0.2 0.1 -0.15 L0.1 -0.15" fill="#000000" fill-opacity="0.4509804" fill-rule="evenodd" stroke="none"/>
  </g>
</svg>
