<?xml version="1.0" encoding="UTF-8" standalone="no"?>
<svg xmlns:xlink="http://www.w3.org/1999/xlink" height="14.5px" width="20.85px" xmlns="http://www.w3.org/2000/svg">
  <g transform="matrix(1.0, 0.0, 0.0, 1.0, 10.4, 7.25)">
    <path d="M-3.6 -0.8 Q-3.5 -0.85 -3.45 -0.85 -3.35 -0.9 -3.3 -0.95 -3.2 -1.0 -3.1 -1.0 -3.0 -1.05 -2.9 -1.1 -2.85 -1.15 -2.75 -1.15 -2.65 -1.2 -2.55 -1.25 -2.45 -1.3 -2.3 -1.3 -2.2 -1.35 -2.1 -1.4 -2.05 -1.4 -2.0 -1.45 -1.9 -1.45 -1.85 -1.45 -1.8 -1.5 -1.7 -1.5 -1.6 -1.55 -1.5 -1.55 -1.45 -1.55 -1.3 -1.6 -1.2 -1.6 -1.1 -1.65 -0.95 -1.65 -0.8 -1.65 -0.65 -1.7 -0.5 -1.7 0.4 -1.8 1.7 -1.8 3.2 -1.9 4.7 -2.0 5.2 -2.05 5.55 -2.1 5.75 -2.1 6.2 -2.1 6.25 -2.1 6.4 -2.05 6.4 -2.05 6.6 -2.0 6.75 -2.0 6.85 -1.95 7.0 -1.95 7.1 -1.9 7.25 -1.9 7.35 -1.85 7.5 -1.8 7.6 -1.75 7.75 -1.7 7.8 -1.65 7.95 -1.55 8.0 -1.5 8.15 -1.35 8.25 -1.15 8.35 -1.0 8.4 -0.75 8.4 -0.5 8.4 -0.2 8.4 0.1 8.35 0.45 8.25 0.75 8.15 1.15 8.0 1.5 7.85 1.9 7.7 2.3 7.5 2.7 7.25 3.1 7.0 3.5 6.55 3.55 6.1 3.6 5.85 3.6 5.55 3.55 5.3 3.55 5.05 3.5 4.8 3.45 4.55 3.4 4.35 3.35 4.1 3.25 3.85 3.2 3.6 3.1 3.5 3.05 3.15 2.95 2.85 2.8 2.7 2.75 2.4 2.65 2.2 2.6 2.05 2.55 1.9 2.5 1.75 2.5 1.6 2.45 1.45 2.4 1.25 2.35 1.05 2.3 0.85 2.25 0.65 2.2 0.45 2.15 0.2 2.1 0.0 2.0 -0.25 1.95 -0.5 1.9 -0.75 1.85 -1.0 1.8 -1.5 1.75 -2.35 1.6 -3.25 1.45 -3.6 1.4 -6.4 1.0 -7.9 0.8 -7.05 0.5 -5.7 0.0 -4.15 -0.6 -3.6 -0.8 L-3.6 -0.8" fill="#000000" fill-rule="evenodd" stroke="none"/>
  </g>
</svg>
