<?xml version="1.0" encoding="UTF-8" standalone="no"?>
<svg xmlns:xlink="http://www.w3.org/1999/xlink" height="14.0px" width="16.55px" xmlns="http://www.w3.org/2000/svg">
  <g transform="matrix(1.0, 0.0, 0.0, 1.0, 8.3, 7.0)">
    <path d="M-2.35 7.75 Q-3.0 7.7 -3.6 7.6 -4.2 7.5 -4.75 7.25 -5.25 7.1 -5.75 6.85 -6.15 6.55 -6.6 6.3 -6.95 6.0 -7.25 5.65 -7.5 5.35 -7.7 5.0 -7.85 4.7 -8.0 4.3 -8.05 4.0 -8.05 3.65 -8.05 3.4 -7.95 3.2 -7.8 2.9 -7.7 2.65 -7.55 2.4 -7.35 2.2 -7.2 1.95 -6.95 1.8 -6.7 1.55 -6.5 1.4 -6.2 1.25 -5.95 1.1 -5.65 0.95 -5.35 0.85 -5.05 0.8 -4.8 0.75 -4.4 0.7 -4.05 0.75 -3.7 0.8 -3.4 0.95 -3.15 1.1 -2.8 1.3 -2.6 1.4 -2.3 1.65 -1.9 1.95 -1.7 2.05 -1.4 2.2 -1.1 2.35 -0.8 2.55 -0.5 2.6 -0.1 2.65 0.3 2.65 0.7 2.65 1.05 2.55 1.4 2.4 1.65 2.25 1.9 2.15 2.2 1.95 2.35 1.85 2.7 1.55 3.05 1.35 3.2 1.2 3.5 1.0 3.75 0.9 4.05 0.75 4.35 0.7 4.75 0.65 5.1 0.7 5.25 0.7 5.5 0.75 5.65 0.75 5.8 0.8 6.0 0.85 6.15 0.95 6.4 1.0 6.55 1.15 6.7 1.25 6.85 1.35 7.1 1.45 7.2 1.6 7.35 1.7 7.45 1.9 7.6 2.05 7.65 2.2 7.75 2.35 7.8 2.6 7.9 2.75 7.95 2.9 7.95 3.05 7.95 3.25 7.95 3.4 7.95 3.55 7.95 3.7 7.95 3.8 7.9 4.0 7.9 4.1 7.8 4.2 7.8 4.25 7.75 4.3 7.75 4.4 7.65 4.65 7.55 4.85 7.45 5.05 7.35 5.2 7.2 5.45 7.05 5.6 6.85 5.75 6.7 5.85 6.55 6.05 6.4 6.15 6.25 6.25 6.05 6.35 5.9 6.45 5.75 6.55 5.6 6.6 5.45 6.75 4.9 7.0 4.3 7.25 3.8 7.45 3.2 7.6 2.6 7.75 2.1 7.8 1.55 7.9 0.95 7.9 0.5 7.95 -0.05 7.95 -0.5 7.9 -0.95 7.9 -1.35 7.85 -1.75 7.8 -2.0 7.8 -2.35 7.75 L-2.35 7.75" fill="#8aaeff" fill-rule="evenodd" stroke="none"/>
  </g>
</svg>
