<?xml version="1.0" encoding="UTF-8" standalone="no"?>
<svg xmlns:xlink="http://www.w3.org/1999/xlink" height="21.9px" width="36.35px" xmlns="http://www.w3.org/2000/svg">
  <g transform="matrix(1.0, 0.0, 0.0, 1.0, 14.7, 11.2)">
    <path d="M10.8 12.95 Q10.15 13.15 9.55 13.3 8.9 13.45 8.3 13.55 7.7 13.65 7.1 13.7 6.5 13.7 5.9 13.75 5.35 13.75 4.7 13.7 4.1 13.7 3.45 13.65 2.9 13.6 2.15 13.55 1.7 13.5 0.8 13.4 0.1 13.35 -0.55 13.25 -1.2 13.15 -1.85 13.05 -2.4 12.95 -3.0 12.85 -3.55 12.75 -4.1 12.6 -4.55 12.5 -5.05 12.35 -5.5 12.25 -5.95 12.1 -6.3 12.0 -6.75 11.85 -7.0 11.75 -7.45 11.65 -8.0 11.45 -8.55 11.25 -9.05 11.1 -9.5 10.9 -9.9 10.75 -10.3 10.55 -10.65 10.4 -11.0 10.25 -11.3 10.1 -11.55 9.95 -11.8 9.8 -12.05 9.7 -12.25 9.55 -12.45 9.45 -12.6 9.35 -12.75 9.2 -12.9 9.1 -13.05 9.0 -13.25 8.85 -13.4 8.75 -13.6 8.6 -13.8 8.45 -14.0 8.3 -14.15 8.15 -14.35 7.95 -14.55 7.8 -14.75 7.6 -14.95 7.4 -15.2 7.2 -15.4 6.95 -15.6 6.75 -15.8 6.5 -16.15 6.1 -16.35 5.85 -16.7 5.45 -17.0 5.0 -17.4 4.45 -17.75 3.95 -18.1 3.35 -18.4 2.75 -18.75 2.1 -19.0 1.45 -19.25 0.75 -19.35 0.05 -19.45 -0.65 -19.4 -1.35 -19.35 -2.05 -19.05 -2.75 -18.85 -3.2 -18.55 -3.65 -18.3 -4.05 -17.95 -4.4 -17.6 -4.7 -17.25 -5.0 -16.9 -5.25 -16.5 -5.5 -16.1 -5.7 -15.75 -5.9 -15.4 -6.05 -15.05 -6.2 -14.75 -6.3 -14.45 -6.4 -14.2 -6.45 -14.0 -6.5 -13.55 -6.8 -13.1 -7.1 -12.5 -7.5 -11.8 -7.9 -10.95 -8.35 -10.05 -8.75 -9.0 -9.25 -7.9 -9.65 -6.65 -10.1 -5.4 -10.45 -3.95 -10.8 -2.55 -11.0 -1.0 -11.2 0.6 -11.25 2.3 -11.25 4.0 -11.05 6.0 -10.8 7.95 -10.25 9.7 -9.75 11.4 -9.0 12.95 -8.3 14.4 -7.4 15.7 -6.6 16.9 -5.65 17.95 -4.85 18.9 -3.9 19.75 -3.15 20.5 -2.35 21.05 -1.7 21.55 -1.05 21.9 -0.65 22.15 -0.25 22.1 0.05 22.05 0.4 22.0 0.75 21.95 1.15 21.85 1.55 21.75 2.0 21.65 2.45 21.5 2.95 21.3 3.45 21.1 3.95 20.9 4.5 20.65 5.0 20.35 5.6 20.05 6.1 19.7 6.7 19.3 7.2 18.75 7.9 18.15 8.55 17.6 9.15 17.0 9.7 16.4 10.2 15.8 10.6 15.2 11.0 14.6 11.35 14.05 11.65 13.45 11.95 12.95 12.2 12.4 12.4 12.0 12.55 11.5 12.75 11.2 12.85 10.8 12.95 L10.8 12.95" fill="#fff6f6" fill-rule="evenodd" stroke="none"/>
  </g>
</svg>
