<?xml version="1.0" encoding="UTF-8" standalone="no"?>
<svg xmlns:xlink="http://www.w3.org/1999/xlink" height="25.5px" width="21.6px" xmlns="http://www.w3.org/2000/svg">
  <g transform="matrix(1.0, 0.0, 0.0, 1.0, 10.8, 12.75)">
    <path d="M7.7 3.75 Q7.7 3.25 7.7 2.75 7.7 2.25 7.65 1.75 7.55 1.25 7.45 0.8 7.35 0.35 7.25 -0.1 7.1 -0.55 6.9 -0.95 6.7 -1.4 6.5 -1.8 6.3 -2.2 6.0 -2.6 5.75 -3.0 5.45 -3.35 5.15 -3.7 4.85 -4.0 4.55 -4.3 4.25 -4.6 3.9 -4.85 3.6 -5.1 3.25 -5.3 2.9 -5.5 2.55 -5.7 2.15 -5.8 1.8 -5.95 1.4 -6.05 1.05 -6.15 0.65 -6.2 0.2 -6.3 -0.2 -6.3 -0.65 -6.3 -1.05 -6.3 -1.45 -6.25 -1.85 -6.15 -2.25 -6.1 -2.65 -5.95 -3.05 -5.85 -3.4 -5.7 -3.75 -5.5 -4.1 -5.3 -4.45 -5.1 -4.8 -4.85 -5.15 -4.6 -5.5 -4.3 -5.8 -4.0 -6.1 -3.65 -6.4 -3.3 -6.7 -2.95 -6.95 -2.6 -7.15 -2.25 -7.4 -1.85 -7.6 -1.45 -7.75 -1.05 -7.9 -0.6 -8.05 -0.2 -8.15 0.25 -8.25 0.7 -8.3 1.2 -8.35 1.7 -8.35 2.2 -8.4 2.7 -8.35 3.2 -8.35 3.75 -8.3 4.25 -8.25 4.75 -8.15 5.2 -8.05 5.7 -7.95 6.15 -7.8 6.6 -7.65 7.05 -7.5 7.45 -7.3 7.85 -7.1 8.25 -6.85 8.65 -6.6 9.05 -6.35 9.4 -6.05 9.75 -5.75 10.05 -5.4 10.4 -5.1 10.7 -4.75 11.0 -4.4 11.25 -4.05 11.5 -3.65 11.7 -3.3 11.95 -2.9 12.1 -2.55 12.3 -2.15 12.4 -1.75 12.55 -1.35 12.65 -0.95 12.75 -0.55 12.8 -0.15 12.9 0.3 12.9 0.7 12.9 1.1 12.9 1.5 12.9 1.9 12.8 2.25 12.75 2.65 12.65 3.0 12.55 3.35 12.4 3.7 12.25 4.0 12.05 4.3 11.85 4.6 11.6 4.95 11.4 5.2 11.1 5.5 10.85 5.75 10.5 6.0 10.15 6.2 9.8 6.4 9.45 6.6 9.1 6.75 8.7 6.9 8.3 7.05 7.9 7.2 7.5 7.3 7.05 7.4 6.6 7.5 6.15 7.55 5.7 7.65 5.25 7.65 4.75 7.7 4.25 7.7 3.75 M9.05 3.8 Q9.05 4.4 9.0 5.0 8.95 5.6 8.9 6.15 8.8 6.7 8.7 7.25 8.6 7.8 8.45 8.3 8.3 8.8 8.1 9.25 7.9 9.7 7.7 10.15 7.45 10.6 7.2 11.0 6.95 11.4 6.65 11.8 6.35 12.2 6.05 12.5 5.7 12.85 5.35 13.15 5.05 13.45 4.65 13.65 4.3 13.9 3.9 14.1 3.5 14.25 3.05 14.4 2.65 14.55 2.2 14.6 1.75 14.7 1.25 14.7 0.8 14.75 0.3 14.75 -0.2 14.7 -0.7 14.6 -1.2 14.55 -1.7 14.4 -2.15 14.25 -2.6 14.1 -3.1 13.95 -3.55 13.7 -3.95 13.5 -4.4 13.25 -4.8 12.95 -5.2 12.65 -5.65 12.35 -6.0 12.0 -6.4 11.65 -6.75 11.25 -7.15 10.85 -7.5 10.45 -7.85 10.0 -8.15 9.55 -8.45 9.1 -8.7 8.65 -8.95 8.15 -9.15 7.65 -9.35 7.15 -9.5 6.65 -9.65 6.1 -9.75 5.55 -9.85 5.0 -9.9 4.4 -10.0 3.85 -10.0 3.2 -10.0 2.6 -10.0 2.0 -9.95 1.4 -9.9 0.85 -9.8 0.3 -9.65 -0.25 -9.55 -0.75 -9.35 -1.3 -9.15 -1.8 -8.95 -2.25 -8.7 -2.75 -8.4 -3.2 -8.15 -3.65 -7.8 -4.05 -7.45 -4.5 -7.1 -4.9 -6.75 -5.3 -6.35 -5.65 -5.95 -6.0 -5.55 -6.3 -5.15 -6.55 -4.75 -6.8 -4.35 -7.05 -3.9 -7.25 -3.45 -7.45 -3.05 -7.6 -2.6 -7.7 -2.1 -7.8 -1.65 -7.9 -1.15 -7.95 -0.7 -7.95 -0.2 -7.95 0.3 -7.95 0.8 -7.85 1.25 -7.8 1.7 -7.7 2.2 -7.6 2.6 -7.4 3.05 -7.25 3.45 -7.05 3.9 -6.8 4.25 -6.55 4.65 -6.3 5.05 -5.95 5.4 -5.65 5.75 -5.25 6.1 -4.9 6.4 -4.5 6.75 -4.05 7.05 -3.6 7.35 -3.15 7.6 -2.7 7.85 -2.2 8.05 -1.7 8.3 -1.2 8.45 -0.7 8.6 -0.2 8.75 0.35 8.85 0.9 8.95 1.45 9.0 2.0 9.05 2.6 9.1 3.2 9.05 3.8" fill="#000000" fill-rule="evenodd" stroke="none"/>
  </g>
</svg>
