<?xml version="1.0" encoding="UTF-8" standalone="no"?>
<svg xmlns:xlink="http://www.w3.org/1999/xlink" height="20.75px" width="18.85px" xmlns="http://www.w3.org/2000/svg">
  <g transform="matrix(1.0, 0.0, 0.0, 1.0, 9.4, 10.35)">
    <path d="M6.9 0.15 Q6.9 0.6 6.85 1.0 6.85 1.4 6.8 1.85 6.7 2.25 6.65 2.6 6.55 3.0 6.4 3.4 6.3 3.75 6.15 4.1 6.0 4.45 5.8 4.8 5.6 5.15 5.4 5.5 5.15 5.8 4.95 6.1 4.7 6.4 4.4 6.7 4.15 7.0 3.85 7.2 3.55 7.45 3.25 7.65 2.95 7.85 2.65 8.05 2.35 8.2 2.05 8.3 1.7 8.4 1.4 8.5 1.05 8.6 0.7 8.6 0.35 8.65 0.0 8.65 -0.35 8.65 -0.7 8.6 -1.05 8.6 -1.4 8.5 -1.75 8.4 -2.05 8.3 -2.4 8.2 -2.7 8.05 -3.0 7.85 -3.3 7.65 -3.6 7.45 -3.85 7.25 -4.15 7.0 -4.4 6.7 -4.7 6.45 -4.95 6.1 -5.2 5.8 -5.4 5.45 -5.65 5.15 -5.85 4.8 -6.0 4.45 -6.15 4.1 -6.35 3.75 -6.45 3.35 -6.6 3.0 -6.7 2.6 -6.75 2.2 -6.85 1.8 -6.9 1.4 -6.95 0.95 -6.95 0.55 -6.95 0.1 -6.95 -0.35 -6.9 -0.75 -6.9 -1.15 -6.85 -1.55 -6.75 -1.95 -6.7 -2.35 -6.6 -2.75 -6.45 -3.1 -6.35 -3.5 -6.15 -3.85 -6.0 -4.2 -5.8 -4.55 -5.65 -4.85 -5.4 -5.2 -5.2 -5.5 -4.95 -5.85 -4.7 -6.15 -4.45 -6.45 -4.15 -6.7 -3.9 -6.95 -3.6 -7.15 -3.3 -7.35 -3.0 -7.55 -2.7 -7.7 -2.4 -7.85 -2.05 -7.95 -1.75 -8.1 -1.4 -8.15 -1.05 -8.25 -0.7 -8.3 -0.35 -8.3 0.0 -8.3 0.35 -8.3 0.7 -8.25 1.05 -8.25 1.4 -8.15 1.7 -8.1 2.05 -7.95 2.35 -7.85 2.65 -7.7 2.95 -7.55 3.25 -7.35 3.55 -7.15 3.85 -6.9 4.15 -6.7 4.4 -6.4 4.65 -6.15 4.95 -5.85 5.2 -5.55 5.4 -5.2 5.6 -4.9 5.8 -4.55 6.0 -4.2 6.15 -3.85 6.3 -3.5 6.4 -3.1 6.55 -2.75 6.65 -2.35 6.75 -1.95 6.8 -1.55 6.85 -1.15 6.9 -0.7 6.9 -0.3 6.9 0.15" fill="#303b64" fill-rule="evenodd" stroke="none"/>
  </g>
</svg>
