<?xml version="1.0" encoding="UTF-8" standalone="no"?>
<svg xmlns:xlink="http://www.w3.org/1999/xlink" height="23.85px" width="17.4px" xmlns="http://www.w3.org/2000/svg">
  <g transform="matrix(1.0, 0.0, 0.0, 1.0, 8.7, 11.9)">
    <path d="M9.6 0.3 Q9.65 0.45 9.65 0.65 9.7 0.85 9.7 1.05 9.75 1.25 9.75 1.5 9.75 1.75 9.75 2.0 9.75 2.3 9.7 2.6 9.7 2.9 9.65 3.2 9.6 3.5 9.5 3.85 9.4 4.15 9.3 4.5 9.3 4.5 9.25 4.6 9.25 4.7 9.2 4.85 9.1 5.0 9.0 5.2 8.9 5.45 8.8 5.7 8.65 5.95 8.5 6.2 8.3 6.5 8.1 6.8 7.9 7.1 7.65 7.35 7.4 7.65 7.1 7.95 6.5 8.5 5.75 8.95 5.0 9.35 4.1 9.65 3.2 9.95 2.2 10.1 1.2 10.25 0.2 10.25 -0.8 10.25 -1.8 10.05 -2.85 9.85 -3.75 9.45 -4.7 9.05 -5.55 8.45 -6.4 7.85 -7.1 7.0 -7.7 6.3 -8.1 5.45 -8.45 4.7 -8.7 3.9 -8.9 3.15 -8.95 2.3 -9.05 1.6 -9.0 0.85 -9.0 0.2 -8.9 -0.5 -8.8 -1.05 -8.7 -1.55 -8.6 -1.95 -8.5 -2.35 -8.4 -2.55 -8.35 -2.75 -8.3 -2.9 -8.2 -3.15 -8.05 -3.5 -7.85 -3.85 -7.6 -4.35 -7.35 -4.85 -7.0 -5.4 -6.6 -5.9 -6.1 -6.5 -5.6 -7.0 -5.0 -7.6 -4.4 -8.05 -3.65 -8.55 -2.9 -8.9 -2.05 -9.25 -1.15 -9.45 -0.95 -9.5 -0.85 -9.5 -0.55 -9.55 -0.25 -9.55 0.1 -9.6 0.5 -9.6 0.95 -9.6 1.4 -9.55 1.95 -9.55 2.45 -9.45 3.0 -9.35 3.55 -9.15 4.15 -8.95 4.65 -8.7 5.25 -8.4 5.8 -8.0 6.2 -7.7 6.55 -7.35 6.9 -7.05 7.15 -6.7 7.45 -6.35 7.7 -6.0 7.9 -5.65 8.1 -5.3 8.3 -5.0 8.45 -4.65 8.6 -4.35 8.7 -4.05 8.8 -3.75 8.9 -3.5 8.95 -3.35 9.05 -3.05 9.15 -2.8 9.2 -2.55 9.25 -2.3 9.35 -2.05 9.4 -1.85 9.4 -1.6 9.45 -1.4 9.5 -1.15 9.55 -0.95 9.55 -0.75 9.55 -0.55 9.6 -0.35 9.6 -0.2 9.6 0.0 9.6 0.15 9.6 0.3 L9.6 0.3" fill="#7ba4ff" fill-rule="evenodd" stroke="none"/>
  </g>
</svg>
