<?xml version="1.0" encoding="UTF-8" standalone="no"?>
<svg xmlns:xlink="http://www.w3.org/1999/xlink" height="99.0px" width="88.25px" xmlns="http://www.w3.org/2000/svg">
  <g transform="matrix(1.0, 0.0, 0.0, 1.0, -47.95, 56.05)">
    <path d="M141.95 25.25 Q141.3 25.05 140.7 24.8 140.05 24.55 139.45 24.25 138.8 23.95 138.25 23.6 137.6 23.3 137.1 22.9 136.5 22.5 136.05 22.05 135.55 21.6 135.15 21.15 134.75 20.65 134.45 20.1 134.15 19.5 134.0 18.9 133.85 18.45 133.85 18.0 133.8 17.6 133.85 17.2 133.9 16.8 134.0 16.3 134.1 15.95 134.25 15.4 134.4 15.1 134.65 14.3 134.95 13.5 135.1 13.05 135.35 12.25 135.6 11.45 135.85 10.55 136.1 9.55 136.4 8.35 136.55 7.75 136.8 6.75 136.95 6.0 137.15 5.1 137.25 4.3 137.4 3.45 137.45 2.65 137.55 1.85 137.5 1.1 137.5 0.3 137.4 -0.45 137.3 -1.2 137.1 -1.9 136.85 -2.6 136.5 -3.3 136.35 -3.55 136.25 -3.8 136.05 -4.1 135.8 -4.45 135.55 -4.8 135.2 -5.15 134.85 -5.55 134.45 -5.95 133.95 -6.35 133.45 -6.75 132.85 -7.15 132.15 -7.5 131.45 -7.9 130.6 -8.25 129.75 -8.65 128.75 -8.95 128.85 -9.1 128.95 -9.3 129.1 -9.65 129.25 -10.0 129.4 -10.45 129.55 -10.9 129.7 -11.5 129.85 -12.05 129.95 -12.75 130.0 -13.4 130.05 -14.15 130.05 -14.9 130.0 -15.75 129.8 -16.55 129.6 -17.4 129.25 -18.25 128.9 -19.15 128.4 -19.9 127.95 -20.65 127.4 -21.3 126.9 -21.9 126.3 -22.4 125.75 -22.85 125.15 -23.25 124.65 -23.6 124.1 -23.9 123.65 -24.15 123.2 -24.35 122.85 -24.5 122.5 -24.65 122.3 -24.7 122.1 -24.75 122.3 -24.75 122.4 -24.75 122.7 -24.75 123.05 -24.75 123.45 -24.8 123.9 -24.85 124.45 -24.9 124.95 -25.05 125.55 -25.2 126.1 -25.4 126.75 -25.65 127.3 -25.95 127.9 -26.35 128.45 -26.8 129.0 -27.3 129.45 -27.95 129.65 -28.25 129.85 -28.6 130.0 -28.9 130.15 -29.2 130.3 -29.5 130.4 -29.85 130.5 -30.1 130.55 -30.4 130.6 -30.7 130.65 -30.95 130.7 -31.2 130.75 -31.45 130.75 -31.7 130.75 -31.9 130.75 -32.1 130.75 -32.25 130.55 -32.15 130.3 -32.0 130.05 -31.85 129.75 -31.75 129.45 -31.6 129.15 -31.45 128.75 -31.35 128.4 -31.2 128.0 -31.05 127.55 -30.95 127.1 -30.85 126.65 -30.8 126.15 -30.7 125.65 -30.65 125.15 -30.6 124.6 -30.6 123.85 -30.6 123.1 -30.7 122.4 -30.75 121.7 -30.95 121.05 -31.1 120.45 -31.3 119.9 -31.5 119.35 -31.75 118.9 -31.95 118.4 -32.2 118.0 -32.45 117.65 -32.7 117.3 -32.9 117.05 -33.1 116.8 -33.25 116.6 -33.45 115.8 -34.05 115.05 -34.65 114.3 -35.25 113.6 -35.85 112.9 -36.4 112.25 -36.95 111.6 -37.5 110.95 -38.05 110.4 -38.55 109.8 -39.05 109.25 -39.5 108.75 -39.95 108.25 -40.4 107.8 -40.8 107.35 -41.2 106.95 -41.6 105.9 -42.55 104.8 -43.6 103.95 -44.4 102.9 -45.4 100.7 -47.55 101.2 -47.05 100.25 -47.95 99.6 -48.55 98.75 -49.35 98.05 -50.0 97.2 -50.7 96.4 -51.35 95.5 -52.05 94.6 -52.7 93.65 -53.4 92.6 -54.1 92.05 -54.45 91.45 -54.8 90.9 -55.15 90.35 -55.45 89.85 -55.75 89.35 -56.05 88.9 -56.3 88.4 -56.55 88.0 -56.75 87.55 -57.0 87.2 -57.15 86.8 -57.35 86.5 -57.5 86.15 -57.65 85.9 -57.75 85.6 -57.9 83.4 -58.9 81.1 -59.75 79.0 -60.55 76.75 -61.15 74.75 -61.7 72.65 -62.15 70.75 -62.5 68.85 -62.8 67.15 -63.05 65.4 -63.2 63.9 -63.3 62.35 -63.4 61.15 -63.45 59.85 -63.45 59.05 -63.45 57.95 -63.45 57.45 -63.45 57.0 -63.4 56.5 -63.4 56.0 -63.4 55.5 -63.35 54.95 -63.35 54.4 -63.3 53.85 -63.25 53.3 -63.2 52.7 -63.15 52.15 -63.1 51.55 -63.05 50.9 -62.95 50.3 -62.9 49.65 -62.8 49.05 -62.7 50.5 -62.1 51.8 -61.45 53.05 -60.85 54.15 -60.15 55.15 -59.5 56.1 -58.8 56.9 -58.15 57.65 -57.45 58.35 -56.8 58.95 -56.1 59.5 -55.5 59.95 -54.85 60.35 -54.3 60.7 -53.75 61.0 -53.25 61.25 -52.75 62.35 -50.6 62.9 -48.1 63.45 -45.7 63.45 -42.9 63.45 -40.25 63.0 -37.25 62.6 -34.4 61.75 -31.2 61.0 -28.3 59.9 -24.95 58.95 -22.0 57.6 -18.5 56.5 -15.6 55.0 -12.0 54.1 -9.8 52.25 -5.5 52.0 -4.9 52.05 -4.95 51.9 -4.6 51.75 -4.25 51.6 -3.8 51.45 -3.35 51.3 -2.85 51.15 -2.3 51.0 -1.7 50.85 -1.1 50.7 -0.4 50.6 0.25 50.5 1.0 50.5 1.75 50.45 2.5 50.45 3.3 50.45 3.95 50.5 4.6 50.55 5.2 50.65 5.8 50.75 6.35 50.85 6.95 50.95 7.45 51.1 8.0 51.25 8.5 51.4 8.95 51.55 9.4 51.7 9.85 51.85 10.25 52.0 10.65 52.15 11.0 52.3 11.35 52.45 11.6 52.6 11.85 52.8 12.15 52.95 12.4 53.15 12.65 53.35 12.9 53.55 13.2 53.75 13.45 53.95 13.75 54.15 14.0 54.35 14.25 54.6 14.55 54.8 14.8 55.05 15.1 55.3 15.35 55.55 15.6 55.9 16.0 56.25 16.35 56.7 16.8 57.2 17.25 57.75 17.8 58.35 18.25 59.05 18.85 59.8 19.35 60.65 19.95 61.5 20.45 62.45 21.0 63.45 21.5 64.5 22.0 65.65 22.35 66.85 22.8 68.1 23.05 68.85 23.2 69.6 23.35 70.3 23.45 71.0 23.55 71.65 23.6 72.35 23.6 72.95 23.65 73.6 23.65 74.15 23.65 74.75 23.6 75.3 23.55 75.8 23.5 76.3 23.45 76.75 23.4 77.2 23.3 77.6 23.25 77.3 23.0 77.0 22.8 76.6 22.5 76.2 22.15 75.75 21.75 75.35 21.35 74.85 20.85 74.45 20.35 73.95 19.8 73.6 19.2 73.15 18.55 72.85 17.85 72.5 17.15 72.25 16.4 72.0 15.55 71.95 14.75 71.9 14.5 71.9 14.25 71.9 14.0 71.9 13.7 71.85 13.4 71.9 13.15 71.9 12.85 71.9 12.55 71.95 12.3 72.0 12.05 72.05 11.8 72.1 11.6 72.2 11.4 72.3 11.3 72.4 11.15 72.55 11.1 72.75 11.05 72.95 11.2 73.15 11.35 73.35 11.7 73.55 11.95 73.8 12.5 74.5 13.9 74.35 13.55 74.7 14.2 75.0 14.7 75.4 15.4 75.8 15.95 76.3 16.6 76.85 17.15 77.45 17.75 78.1 18.25 79.0 18.9 80.0 19.3 81.0 19.75 82.1 19.95 83.15 20.2 84.35 20.3 85.4 20.35 86.6 20.3 87.7 20.25 88.95 20.1 90.0 20.0 91.2 19.8 92.2 19.6 93.4 19.35 94.1 19.2 95.45 18.9 95.8 18.8 96.15 18.75 96.5 18.65 96.85 18.55 97.15 18.5 97.5 18.4 97.8 18.3 98.1 18.2 98.35 18.15 98.65 18.05 98.9 17.95 99.2 17.9 99.4 17.8 99.65 17.75 99.9 17.65 100.1 17.55 99.5 18.45 99.0 19.35 98.55 20.3 98.2 21.25 97.85 22.2 97.6 23.15 97.35 24.15 97.25 25.1 97.15 26.05 97.2 27.0 97.25 28.0 97.4 28.9 97.55 29.85 97.85 30.7 98.15 31.6 98.6 32.4 98.95 33.0 99.35 33.6 99.7 34.1 100.15 34.6 100.55 35.05 100.95 35.5 101.35 35.85 101.8 36.2 102.15 36.5 102.55 36.8 102.9 37.05 103.25 37.25 103.5 37.4 103.75 37.55 103.95 37.65 104.1 37.75 104.75 38.05 105.4 38.3 106.0 38.55 106.65 38.75 107.2 38.9 107.8 39.0 108.35 39.1 108.9 39.15 109.4 39.2 109.85 39.2 110.3 39.2 110.7 39.2 111.05 39.15 111.4 39.15 111.65 39.1 111.95 39.05 111.85 39.8 111.75 40.6 111.65 41.3 111.55 42.05 111.5 42.7 111.45 43.4 111.4 44.05 111.35 44.7 111.35 45.3 111.3 45.9 111.3 46.45 111.25 47.0 111.25 47.5 111.25 48.0 111.25 48.45 111.25 48.9 111.25 49.45 111.3 50.2 111.3 50.4 111.35 51.45 111.35 52.3 111.4 52.8 111.4 53.55 111.4 54.2 111.4 54.95 111.4 55.65 111.4 56.45 111.35 57.25 111.35 58.1 111.25 58.9 111.2 59.8 111.1 60.75 111.05 61.4 110.95 62.0 110.85 62.55 110.8 63.0 110.7 63.5 110.6 63.9 110.5 64.25 110.4 64.6 110.25 64.9 110.15 65.2 110.0 65.45 109.9 65.65 109.75 65.85 109.55 66.05 109.4 66.25 109.2 66.4 108.8 66.75 108.3 67.0 107.85 67.25 107.35 67.4 106.85 67.55 106.3 67.6 105.85 67.65 105.3 67.65 104.85 67.65 104.4 67.6 104.0 67.55 103.55 67.5 103.25 67.45 102.9 67.35 102.65 67.3 102.45 67.25 102.75 68.15 103.05 68.95 103.4 69.75 103.8 70.5 104.2 71.2 104.6 71.8 105.05 72.4 105.5 72.9 105.95 73.4 106.45 73.75 106.9 74.1 107.4 74.35 107.85 74.6 108.35 74.7 108.8 74.8 109.25 74.75 109.35 74.75 109.45 74.7 109.55 74.7 109.65 74.65 109.8 74.65 109.9 74.6 110.05 74.55 110.15 74.5 110.3 74.45 110.4 74.35 110.55 74.3 110.7 74.2 110.85 74.1 110.95 74.0 111.1 73.85 111.25 73.75 111.45 73.9 111.6 74.0 111.85 74.15 112.1 74.3 112.4 74.45 112.75 74.6 113.1 74.8 113.45 74.95 113.9 75.1 114.3 75.25 114.75 75.4 115.25 75.5 115.75 75.6 116.3 75.65 116.85 75.75 117.45 75.75 117.95 75.75 118.4 75.7 118.9 75.65 119.35 75.6 119.75 75.5 120.15 75.4 120.55 75.3 120.9 75.2 121.25 75.05 121.55 74.95 121.85 74.8 122.15 74.7 122.35 74.55 122.6 74.45 122.8 74.35 122.95 74.25 122.65 74.2 122.65 74.15 122.35 74.1 122.1 74.05 121.75 73.9 121.4 73.8 121.0 73.65 120.6 73.45 120.15 73.2 119.75 72.95 119.35 72.65 118.95 72.35 118.55 71.95 118.2 71.55 117.85 71.1 117.6 70.55 117.35 70.05 117.2 69.45 117.1 68.95 117.05 68.4 117.05 67.9 117.1 67.35 117.15 66.85 117.25 66.3 117.4 65.85 117.55 65.35 117.7 64.95 117.9 64.5 118.05 64.15 118.25 63.7 118.4 63.5 118.6 63.05 118.75 62.8 118.9 62.55 119.05 62.3 119.25 62.05 119.45 61.75 119.7 61.45 119.95 61.15 120.25 60.8 120.6 60.45 121.05 60.0 121.5 59.55 122.05 59.05 122.65 58.55 123.35 57.95 124.05 57.3 124.95 56.55 126.25 55.45 127.4 54.55 127.85 54.2 129.15 53.15 130.2 52.35 130.95 51.75 132.3 50.65 132.8 50.2 133.8 49.4 134.45 48.85 135.25 48.15 135.85 47.65 136.55 47.05 137.05 46.55 137.6 46.0 138.05 45.55 138.5 45.1 138.85 44.65 139.2 44.2 139.5 43.75 139.75 43.35 139.95 42.9 140.4 41.9 140.55 40.8 140.7 39.75 140.65 38.65 140.55 37.6 140.3 36.45 140.05 35.4 139.65 34.3 139.3 33.3 138.8 32.25 138.4 31.35 137.85 30.4 137.4 29.6 136.85 28.75 136.4 28.1 135.95 27.4 L141.95 25.25 141.95 25.25" fill="#53995e" fill-rule="evenodd" stroke="none"/>
  </g>
</svg>
