<?xml version="1.0" encoding="UTF-8" standalone="no"?>
<svg xmlns:xlink="http://www.w3.org/1999/xlink" height="18.05px" width="90.8px" xmlns="http://www.w3.org/2000/svg">
  <g transform="matrix(1.0, 0.0, 0.0, 1.0, 1.85, 38.95)">
    <path d="M-0.3 -18.4 Q0.15 -17.45 0.4 -16.6 0.7 -15.75 0.8 -14.9 0.85 -14.1 0.8 -13.3 0.7 -12.55 0.45 -11.85 0.15 -11.15 -0.25 -10.5 -0.7 -9.8 -1.35 -9.2 -1.95 -8.6 -2.75 -8.05 -3.55 -7.5 -4.5 -7.0 -4.8 -6.85 -5.1 -6.75 -5.35 -6.7 -5.6 -6.65 -5.8 -6.65 -6.0 -6.7 -6.2 -6.7 -6.35 -6.8 -6.5 -6.9 -6.6 -7.1 -6.7 -7.25 -6.8 -7.5 -6.85 -7.7 -6.9 -8.0 -6.9 -8.3 -6.9 -8.65 -6.9 -9.6 -6.75 -10.45 -6.65 -11.3 -6.4 -12.05 -6.2 -12.8 -5.9 -13.5 -5.55 -14.2 -5.15 -14.8 -4.75 -15.4 -4.25 -15.95 -3.7 -16.5 -3.1 -16.95 -2.5 -17.4 -1.8 -17.75 -1.1 -18.1 -0.3 -18.4 M-12.7 -15.25 Q-13.15 -15.0 -13.5 -14.85 -13.85 -14.7 -14.15 -14.6 -14.45 -14.55 -14.7 -14.55 -14.9 -14.6 -15.05 -14.7 -15.2 -14.8 -15.3 -15.0 -15.4 -15.2 -15.4 -15.5 -15.45 -15.8 -15.4 -16.2 -15.35 -16.6 -15.2 -17.05 -15.05 -17.6 -14.9 -18.15 -14.7 -18.65 -14.5 -19.15 -14.25 -19.6 -13.95 -20.05 -13.7 -20.5 -13.35 -20.85 -13.05 -21.25 -12.65 -21.6 -12.25 -21.95 -11.85 -22.25 -11.4 -22.55 -10.95 -22.8 -10.45 -23.05 -9.9 -23.25 -9.4 -22.75 -9.1 -22.25 -8.8 -21.75 -8.6 -21.25 -8.45 -20.75 -8.5 -20.25 -8.5 -19.75 -8.65 -19.25 -8.85 -18.75 -9.2 -18.25 -9.5 -17.75 -10.05 -17.25 -10.55 -16.75 -11.2 -16.25 -11.9 -15.75 -12.7 -15.25 M83.15 -33.95 Q83.65 -34.0 84.15 -33.95 84.6 -33.9 85.05 -33.75 85.5 -33.65 85.9 -33.4 86.3 -33.15 86.65 -32.85 87.05 -32.55 87.35 -32.1 87.7 -31.7 88.0 -31.2 88.3 -30.7 88.55 -30.1 88.8 -29.5 89.05 -28.85 89.1 -28.7 89.15 -28.55 89.15 -28.4 89.15 -28.3 89.15 -28.2 89.15 -28.1 89.15 -28.0 89.1 -27.9 89.1 -27.85 89.0 -27.75 88.95 -27.7 88.9 -27.65 88.8 -27.6 88.7 -27.6 88.6 -27.55 88.5 -27.55 87.65 -27.45 86.9 -27.5 86.2 -27.5 85.6 -27.65 85.0 -27.85 84.5 -28.1 84.05 -28.4 83.75 -28.8 83.4 -29.2 83.2 -29.7 83.0 -30.2 82.9 -30.85 82.85 -31.5 82.9 -32.3 82.95 -33.05 83.15 -33.95 M70.05 -26.0 Q70.95 -25.55 71.7 -25.05 72.45 -24.5 73.05 -24.0 73.65 -23.45 74.05 -22.9 74.5 -22.35 74.8 -21.75 75.1 -21.15 75.25 -20.5 75.4 -19.9 75.4 -19.2 75.35 -18.55 75.2 -17.9 75.05 -17.2 74.75 -16.45 74.7 -16.35 74.65 -16.3 74.6 -16.2 74.55 -16.15 74.5 -16.15 74.4 -16.1 74.35 -16.05 74.25 -16.05 74.2 -16.05 74.1 -16.1 74.0 -16.1 73.9 -16.15 73.8 -16.15 73.7 -16.25 73.6 -16.3 73.5 -16.35 72.6 -17.0 71.85 -17.65 71.1 -18.3 70.55 -18.95 69.95 -19.55 69.6 -20.2 69.2 -20.8 68.95 -21.4 68.75 -22.0 68.7 -22.6 68.65 -23.2 68.8 -23.75 68.95 -24.35 69.25 -24.9 69.55 -25.45 70.05 -26.0 M11.45 -14.3 Q11.85 -13.7 12.1 -13.1 12.4 -12.5 12.5 -11.95 12.65 -11.4 12.65 -10.85 12.7 -10.3 12.55 -9.8 12.45 -9.25 12.2 -8.75 11.95 -8.25 11.6 -7.8 11.2 -7.3 10.7 -6.85 10.25 -6.4 9.6 -5.95 9.4 -5.8 9.2 -5.75 9.05 -5.65 8.9 -5.6 8.75 -5.6 8.6 -5.6 8.45 -5.6 8.35 -5.65 8.25 -5.7 8.15 -5.8 8.05 -5.9 8.0 -6.05 7.9 -6.2 7.9 -6.4 7.85 -6.6 7.8 -6.85 7.75 -7.5 7.75 -8.1 7.75 -8.7 7.85 -9.25 7.9 -9.85 8.05 -10.35 8.25 -10.85 8.45 -11.3 8.7 -11.8 9.0 -12.2 9.3 -12.6 9.65 -13.0 10.05 -13.35 10.5 -13.7 10.95 -14.0 11.45 -14.3" fill="#1d9138" fill-rule="evenodd" stroke="none"/>
  </g>
</svg>
