<?xml version="1.0" encoding="UTF-8" standalone="no"?>
<svg xmlns:xlink="http://www.w3.org/1999/xlink" height="81.4px" width="82.95px" xmlns="http://www.w3.org/2000/svg">
  <g transform="matrix(1.0, 0.0, 0.0, 1.0, 12.5, 33.65)">
    <path d="M50.8 -8.05 Q50.85 -7.75 50.9 -7.45 51.0 -7.15 51.05 -6.85 51.15 -6.55 51.25 -6.2 51.35 -5.9 51.45 -5.55 51.6 -5.2 51.75 -4.85 51.9 -4.5 52.05 -4.15 52.25 -3.8 52.4 -3.45 52.6 -3.1 52.85 -2.75 53.55 -1.65 54.45 -0.65 55.3 0.2 56.3 1.0 57.2 1.65 58.2 2.25 59.15 2.75 60.15 3.2 61.0 3.55 61.95 3.85 62.7 4.05 63.5 4.25 64.1 4.4 64.7 4.5 65.1 4.55 65.5 4.6 63.6 5.0 59.95 5.75 60.05 6.15 60.2 6.55 60.35 7.0 60.5 7.4 60.65 7.85 60.8 8.3 60.95 8.75 61.15 9.2 61.35 9.7 61.55 10.15 61.75 10.65 61.95 11.1 62.2 11.6 62.45 12.1 62.7 12.6 62.95 13.1 63.1 13.4 63.25 13.65 63.4 13.9 63.55 14.2 63.7 14.45 63.85 14.7 64.0 14.95 64.2 15.2 64.35 15.45 64.5 15.65 64.65 15.9 64.8 16.15 64.95 16.35 65.1 16.6 65.25 16.8 65.4 17.0 65.15 17.0 64.85 17.05 64.55 17.05 64.3 17.05 64.0 17.05 63.65 17.05 63.35 17.05 63.05 17.05 62.7 17.05 62.35 17.0 62.0 17.0 61.65 16.95 61.3 16.9 60.95 16.9 60.55 16.85 60.2 16.8 59.85 16.75 59.5 16.7 59.2 16.6 58.85 16.55 58.55 16.45 58.2 16.4 57.9 16.3 57.6 16.25 57.3 16.15 57.0 16.05 56.75 16.0 56.45 15.9 56.2 15.8 55.95 15.75 55.7 15.65 55.45 15.55 54.5 18.75 53.8 21.5 53.65 22.0 53.55 22.5 53.4 23.0 53.3 23.45 53.15 23.95 53.05 24.45 52.95 24.95 52.8 25.4 52.7 25.9 52.6 26.35 52.5 26.85 52.35 27.3 52.25 27.8 52.15 28.25 52.05 28.75 51.95 29.2 L51.9 29.45 Q51.55 29.85 51.25 30.2 50.9 30.6 50.6 31.0 50.25 31.4 49.95 31.75 49.6 32.15 49.3 32.55 48.95 32.95 48.6 33.3 48.3 33.7 47.95 34.1 47.65 34.45 47.3 34.85 46.95 35.25 46.65 35.6 43.9 38.8 40.65 42.5 41.1 41.65 41.45 40.8 41.75 39.9 42.0 39.05 42.2 38.15 42.3 37.3 42.4 36.4 42.4 35.55 42.4 34.7 42.25 33.9 42.1 33.05 41.9 32.3 41.65 31.5 41.3 30.8 40.9 30.05 40.45 29.4 39.85 28.6 39.1 27.9 38.4 27.25 37.55 26.75 36.75 26.2 35.85 25.8 35.0 25.45 34.15 25.2 33.35 24.95 32.6 24.85 31.85 24.7 31.25 24.7 30.65 24.75 30.25 24.9 29.8 25.0 29.65 25.3 29.55 25.4 29.55 25.55 29.5 25.7 29.55 25.9 29.55 26.1 29.65 26.3 29.75 26.55 29.9 26.85 30.05 27.15 30.3 27.5 30.55 27.9 30.85 28.3 31.2 28.75 31.65 29.25 32.1 29.75 32.6 30.35 32.4 30.35 32.2 30.35 32.0 30.35 31.75 30.4 31.5 30.4 31.3 30.4 31.05 30.4 30.8 30.4 30.5 30.35 30.25 30.35 29.95 30.35 29.7 30.35 29.4 30.35 29.1 30.3 28.8 30.3 28.5 30.25 28.15 30.2 27.85 30.2 27.5 30.15 27.15 30.1 26.75 30.0 26.35 29.95 25.9 29.85 25.45 29.75 25.0 29.65 24.5 29.55 24.0 29.4 23.45 29.25 22.9 29.1 22.35 28.9 21.75 28.7 21.15 28.5 20.85 28.4 20.55 28.25 20.1 28.1 19.7 27.95 19.15 27.7 18.6 27.45 18.0 27.15 17.35 26.85 16.6 26.5 15.85 26.1 15.0 25.65 14.2 25.15 13.25 24.65 12.35 24.05 11.35 23.45 10.35 22.75 9.5 22.15 9.0 21.85 8.3 21.35 7.75 20.95 7.05 20.5 6.5 20.1 5.85 19.6 5.25 19.15 4.65 18.65 4.05 18.15 3.45 17.65 2.85 17.1 2.25 16.55 1.65 15.95 1.05 15.35 0.45 14.7 -0.3 13.9 -0.75 13.4 -1.5 12.55 -2.15 11.75 -3.0 10.75 -3.75 9.8 -4.6 8.7 -5.35 7.6 -6.2 6.35 -6.95 5.15 -7.75 3.8 -8.45 2.45 -9.15 1.0 -9.7 -0.45 -10.35 -2.0 -10.75 -3.55 -10.85 -3.85 -10.85 -3.9 -10.9 -4.1 -10.95 -4.3 -11.0 -4.5 -11.1 -4.7 -11.15 -4.95 -11.25 -5.15 -11.35 -5.35 -11.5 -5.55 -11.6 -5.8 -11.75 -6.0 -11.9 -6.25 -12.1 -6.4 -12.3 -6.65 -12.5 -6.8 -13.0 -7.2 -13.6 -7.5 -14.2 -7.75 -14.85 -7.9 -15.55 -8.0 -16.25 -8.0 -17.0 -8.05 -17.75 -7.95 -18.5 -7.85 -19.3 -7.65 -20.05 -7.5 -20.85 -7.25 -21.6 -7.05 -22.4 -6.75 -23.1 -6.5 -23.85 -6.2 -24.1 -7.15 -24.25 -8.1 -24.4 -9.0 -24.45 -9.85 -24.55 -10.65 -24.55 -11.45 -24.6 -12.2 -24.55 -12.9 -24.5 -13.6 -24.45 -14.25 -24.35 -14.85 -24.25 -15.45 -24.15 -16.0 -24.0 -16.5 -23.85 -17.0 -23.7 -17.45 -23.65 -17.65 -23.45 -18.05 -23.3 -18.5 -23.25 -18.7 -23.1 -19.1 -23.0 -19.4 -22.9 -19.75 -22.8 -20.1 -22.75 -20.5 -22.7 -20.85 -22.65 -21.25 -22.65 -21.6 -22.65 -22.0 -22.75 -22.35 -22.85 -22.75 -23.0 -23.15 -23.0 -23.2 -23.05 -23.3 -23.1 -23.4 -23.2 -23.55 -23.3 -23.7 -23.4 -23.9 -23.55 -24.1 -23.7 -24.3 -23.9 -24.55 -24.1 -24.75 -24.3 -24.95 -24.55 -25.15 -24.8 -25.35 -25.1 -25.5 -25.4 -25.65 -25.75 -25.75 -26.15 -25.85 -26.6 -25.85 -26.95 -25.85 -27.35 -25.75 -27.7 -25.7 -28.05 -25.55 -28.35 -25.4 -28.75 -25.2 -29.45 -24.85 -29.35 -24.9 -29.75 -24.7 -30.0 -24.6 -30.35 -24.5 -30.65 -24.45 -30.95 -24.4 -31.25 -24.5 -31.5 -24.55 -31.7 -24.65 -31.95 -24.8 -32.2 -25.0 -32.45 -25.2 -32.65 -25.5 -32.9 -25.85 -33.15 -26.25 -33.35 -26.75 -33.55 -27.3 -33.8 -27.9 -34.0 -28.65 -34.2 -29.45 -34.35 -30.35 -34.55 -31.3 -34.7 -32.4 -34.4 -33.2 -34.1 -34.0 -33.65 -35.0 -33.2 -36.0 -32.65 -37.15 -32.0 -38.25 -31.25 -39.5 -30.45 -40.7 -29.55 -42.0 -28.55 -43.15 -27.45 -44.45 -26.2 -45.55 -24.9 -46.75 -23.45 -47.75 -21.9 -48.8 -20.25 -49.65 -19.15 -50.15 -18.05 -50.55 -17.0 -50.95 -15.9 -51.25 -14.8 -51.5 -13.7 -51.7 -12.6 -51.85 -11.45 -51.95 -10.35 -52.05 -9.1 -52.1 -8.0 -52.15 -6.7 -52.1 -5.55 -52.1 -4.1 -52.05 -3.25 -52.0 -1.4 -51.95 -0.1 -51.9 0.5 -51.85 1.6 -51.8 2.5 -51.75 3.6 -51.65 4.6 -51.55 5.75 -51.4 6.8 -51.25 7.95 -51.05 9.05 -50.8 10.25 -50.5 11.4 -50.15 12.65 -49.8 13.8 -49.35 15.1 -48.85 16.3 -48.25 17.35 -47.75 18.25 -47.25 19.05 -46.8 19.8 -46.25 20.4 -45.85 21.05 -45.35 21.55 -44.95 22.2 -44.4 23.65 -43.2 23.25 -43.5 23.9 -42.95 24.4 -42.55 25.05 -42.05 25.75 -41.65 26.5 -41.15 27.35 -40.65 28.2 -40.2 29.05 -39.8 30.0 -39.35 31.0 -39.0 32.05 -38.6 33.2 -38.3 34.45 -38.0 35.7 -37.75 37.1 -37.5 38.55 -37.35 40.05 -37.2 41.65 -37.2 43.35 -37.15 45.1 -37.3 47.0 -37.4 48.95 -37.7 48.8 -37.5 48.6 -37.3 48.4 -37.05 48.2 -36.8 47.9 -36.55 47.65 -36.25 47.3 -35.95 47.0 -35.7 46.6 -35.4 46.2 -35.1 45.8 -34.8 45.35 -34.55 44.85 -34.3 44.3 -34.05 43.75 -33.85 43.2 -33.65 42.9 -33.55 42.55 -33.45 42.25 -33.4 41.9 -33.35 41.6 -33.25 41.3 -33.25 41.05 -33.2 40.75 -33.15 40.5 -33.15 40.2 -33.15 39.95 -33.1 39.7 -33.1 39.5 -33.15 39.25 -33.15 39.05 -33.15 38.85 -33.15 39.35 -33.05 39.85 -32.9 40.5 -32.75 41.15 -32.55 41.9 -32.3 42.6 -32.05 43.45 -31.7 44.2 -31.3 45.05 -30.85 45.85 -30.35 46.7 -29.75 47.4 -29.1 48.2 -28.4 48.85 -27.6 49.55 -26.7 50.1 -25.75 50.25 -25.5 50.35 -25.25 50.45 -25.0 50.55 -24.75 50.65 -24.55 50.75 -24.3 50.85 -24.05 50.9 -23.85 51.0 -23.6 51.05 -23.4 51.1 -23.2 51.15 -22.95 51.2 -22.75 51.25 -22.55 51.3 -22.4 51.4 -22.1 51.55 -21.55 51.65 -21.05 51.75 -20.4 51.85 -19.75 51.95 -19.0 52.0 -18.25 52.05 -17.45 52.05 -16.6 52.05 -15.65 52.0 -14.7 51.9 -13.7 51.8 -12.65 51.65 -11.55 51.4 -10.45 51.15 -9.25 50.8 -8.05 L50.8 -8.05" fill="url(#gradient0)" fill-rule="evenodd" stroke="none"/>
  </g>
  <defs>
    <linearGradient gradientTransform="matrix(-0.3181, 0.3181, -0.3181, -0.3181, -214.45, 220.15)" gradientUnits="userSpaceOnUse" id="gradient0" spreadMethod="pad" x1="-819.2" x2="819.2">
      <stop offset="0.0" stop-color="#3ece60"/>
      <stop offset="0.996078431372549" stop-color="#3ece60"/>
      <stop offset="1.0" stop-color="#3ece60"/>
    </linearGradient>
  </defs>
</svg>
