<?xml version="1.0" encoding="UTF-8" standalone="no"?>
<svg xmlns:xlink="http://www.w3.org/1999/xlink" height="173.75px" width="159.7px" xmlns="http://www.w3.org/2000/svg">
  <g transform="matrix(1.0, 0.0, 0.0, 1.0, 79.85, 86.85)">
    <path d="M-60.25 15.9 Q-60.6 16.3 -60.95 16.75 -61.3 17.15 -61.6 17.6 -61.9 18.0 -62.15 18.45 -62.4 18.85 -62.6 19.3 -62.85 19.75 -63.0 20.15 -63.2 20.6 -63.35 21.05 -63.5 21.5 -63.65 21.95 -63.8 22.4 -63.9 22.85 -64.0 23.3 -64.15 23.8 -64.3 24.25 -64.5 24.7 -64.7 25.15 -64.9 25.65 -65.1 26.05 -65.3 26.55 -65.5 26.95 -65.75 27.4 -65.95 27.75 -66.25 28.3 -66.55 28.95 -66.7 29.2 -66.95 29.7 -67.15 30.05 -67.25 30.2 -67.35 30.35 -67.45 30.5 -67.6 30.65 -67.7 30.75 -67.85 30.85 -68.0 30.95 -68.15 31.1 -68.25 31.15 -68.5 31.3 -68.7 31.45 -68.8 31.5 -68.95 31.6 -69.1 31.7 -69.25 31.85 -69.35 31.95 -70.2 32.85 -71.15 33.7 -72.05 34.5 -73.05 35.3 -74.0 36.05 -75.05 36.8 -76.05 37.5 -77.1 38.2 -78.15 38.9 -79.25 39.55 -80.35 40.15 -81.5 40.75 -82.6 41.35 -83.8 41.9 -84.95 42.45 -86.15 43.0 -86.3 43.05 -86.4 43.15 -86.55 43.2 -86.65 43.25 -86.75 43.3 -86.9 43.4 -87.1 43.55 -87.15 43.55 -87.3 43.65 -87.4 43.7 -87.55 43.8 -87.65 43.85 -87.8 43.9 -87.95 43.95 -88.1 44.0 -88.25 44.05 -89.05 44.25 -89.65 44.35 -90.35 44.45 -90.95 44.5 -91.55 44.5 -92.1 44.45 -92.65 44.35 -93.15 44.15 -93.7 43.95 -94.15 43.6 -94.65 43.2 -95.1 42.65 -95.55 42.1 -96.05 41.4 -96.5 40.65 -96.95 39.65 -97.65 38.15 -98.3 36.6 -98.9 35.05 -99.45 33.5 -99.95 31.95 -100.35 30.4 -100.75 28.8 -101.1 27.2 -101.4 25.65 -101.6 24.0 -101.85 22.4 -101.95 20.8 -102.05 19.2 -102.1 17.55 -102.15 15.9 -102.05 14.25 -102.0 13.45 -101.9 12.65 -101.8 11.9 -101.65 11.1 -101.45 10.35 -101.25 9.55 -101.0 8.8 -100.75 8.05 -100.45 7.3 -100.15 6.55 -99.85 5.85 -99.5 5.05 -99.15 4.4 -98.8 3.6 -98.5 3.0 -98.05 2.15 -97.3 0.7 -96.05 -1.75 -94.6 -4.65 -94.05 -5.7 -92.95 -7.9 -92.1 -9.6 -91.05 -11.7 -90.15 -13.55 -89.15 -15.6 -88.3 -17.5 -87.35 -19.55 -86.55 -21.5 -85.65 -23.55 -84.85 -25.5 -84.05 -27.6 -83.3 -29.6 -83.05 -30.3 -82.8 -30.95 -82.5 -31.6 -82.2 -32.3 -81.85 -32.95 -81.5 -33.55 -81.15 -34.2 -80.75 -34.8 -80.4 -35.45 -79.95 -36.05 -79.5 -36.65 -79.05 -37.2 -78.6 -37.8 -78.1 -38.35 -77.6 -38.9 -77.05 -39.4 -76.95 -39.5 -76.85 -39.6 -76.7 -39.7 -76.55 -39.85 -76.4 -40.05 -76.2 -40.2 -75.95 -40.4 -75.75 -40.65 -75.45 -40.85 -75.2 -41.1 -74.85 -41.35 -74.55 -41.6 -74.2 -41.85 -73.8 -42.15 -73.45 -42.4 -73.05 -42.7 -72.5 -43.1 -72.15 -43.3 -71.65 -43.65 -71.2 -43.9 -70.7 -44.2 -70.25 -44.45 -69.75 -44.75 -69.25 -45.0 -68.7 -45.25 -68.15 -45.45 -67.6 -45.7 -67.0 -45.85 -66.4 -46.05 -65.8 -46.2 -65.15 -46.35 -64.45 -46.4 -64.2 -46.45 -63.95 -46.45 -63.7 -46.45 -63.45 -46.5 -63.2 -46.5 -62.95 -46.5 -62.75 -46.5 -62.5 -46.5 -62.3 -46.5 -62.1 -46.5 -61.9 -46.5 -61.75 -46.45 -61.55 -46.45 -61.4 -46.45 -61.25 -46.4 -61.05 -46.4 -60.85 -46.75 -60.6 -47.05 -60.4 -47.45 -60.15 -47.8 -59.85 -48.2 -59.6 -48.55 -59.3 -49.0 -58.95 -49.4 -58.65 -49.8 -58.3 -50.25 -57.95 -50.7 -57.55 -51.1 -57.15 -51.55 -56.7 -52.0 -56.3 -52.5 -55.85 -52.95 -55.6 -53.2 -55.4 -53.4 -55.1 -53.7 -54.75 -53.95 -54.4 -54.3 -54.0 -54.6 -53.55 -55.0 -53.1 -55.4 -52.55 -55.8 -52.0 -56.25 -51.4 -56.7 -50.75 -57.15 -50.1 -57.65 -49.35 -58.1 -48.55 -58.65 -47.75 -59.15 -46.0 -60.25 -44.0 -61.25 -42.25 -62.2 -40.3 -63.1 -38.5 -63.9 -36.65 -64.65 -35.0 -65.3 -33.35 -65.95 -31.9 -66.45 -30.4 -66.95 -29.25 -67.35 -28.05 -67.7 -27.25 -67.95 -26.45 -68.15 -25.4 -68.45 -25.7 -68.4 -23.3 -69.1 -20.85 -69.6 -18.45 -70.15 -16.0 -70.5 -13.6 -70.9 -11.15 -71.1 -8.75 -71.3 -6.3 -71.35 -3.9 -71.45 -1.45 -71.35 0.95 -71.3 3.4 -71.1 5.85 -70.9 8.3 -70.55 10.7 -70.25 13.15 -69.8 14.25 -69.6 15.3 -69.4 16.35 -69.15 17.4 -68.9 18.45 -68.65 19.5 -68.4 20.55 -68.1 21.6 -67.75 22.65 -67.45 23.65 -67.1 24.7 -66.7 25.65 -66.3 26.7 -65.9 27.65 -65.45 28.65 -65.0 29.6 -64.5 29.65 -64.5 29.7 -64.45 29.75 -64.45 29.75 -64.4 29.8 -64.4 29.85 -64.35 29.9 -64.35 29.95 -64.35 30.0 -64.3 30.05 -64.3 30.1 -64.3 30.15 -64.25 30.2 -64.25 30.25 -64.25 30.3 -64.2 30.35 -64.2 31.8 -63.75 33.2 -63.15 34.55 -62.6 35.85 -61.95 37.15 -61.3 38.4 -60.55 39.65 -59.85 40.85 -59.05 42.0 -58.3 43.2 -57.4 44.3 -56.6 45.45 -55.7 46.5 -54.85 47.65 -53.9 48.65 -53.05 49.75 -52.05 50.1 -51.75 50.4 -51.5 50.7 -51.2 51.0 -51.0 51.35 -50.75 51.65 -50.55 51.95 -50.35 52.3 -50.15 52.6 -50.0 52.95 -49.85 53.3 -49.7 53.7 -49.6 54.1 -49.5 54.5 -49.4 54.9 -49.35 55.4 -49.3 55.8 -49.25 56.25 -49.2 56.65 -49.1 57.0 -49.0 57.4 -48.85 57.8 -48.7 58.15 -48.55 58.55 -48.4 58.9 -48.2 59.25 -48.0 59.6 -47.8 59.95 -47.55 60.3 -47.35 60.65 -47.05 60.95 -46.85 61.3 -46.55 61.9 -46.1 64.6 -44.15 66.7 -42.65 67.85 -41.55 68.85 -40.6 69.85 -39.55 70.75 -38.6 71.65 -37.5 72.5 -36.5 73.35 -35.35 74.1 -34.35 74.9 -33.2 75.65 -32.15 76.45 -30.95 77.05 -30.0 77.9 -28.65 77.65 -29.05 79.3 -26.4 80.2 -25.05 80.75 -24.15 84.85 -17.85 87.55 -13.1 88.1 -12.15 88.65 -11.2 89.2 -10.3 89.8 -9.4 90.4 -8.45 91.0 -7.55 91.65 -6.65 92.25 -5.75 92.9 -4.85 93.6 -4.0 94.25 -3.15 94.95 -2.25 95.65 -1.4 96.35 -0.55 97.1 0.3 97.85 1.1 98.25 1.55 98.6 2.05 98.95 2.55 99.25 3.1 99.55 3.6 99.75 4.15 100.0 4.65 100.15 5.25 100.35 5.8 100.5 6.35 100.6 6.9 100.7 7.5 100.8 8.05 100.85 8.65 100.9 9.2 100.95 9.85 101.0 10.65 101.7 18.8 102.2 24.25 102.1 27.8 102.1 27.95 102.1 28.15 102.05 28.3 102.05 28.5 102.05 28.65 102.0 28.8 102.0 29.0 101.95 29.15 101.95 29.3 101.9 29.5 101.85 29.65 101.8 29.85 101.75 30.0 101.7 30.15 101.7 30.3 101.6 30.5 101.55 30.7 101.45 30.9 101.35 31.1 101.25 31.25 101.1 31.45 101.0 31.6 100.85 31.75 100.7 31.9 100.5 32.05 100.35 32.15 100.15 32.25 99.95 32.35 99.7 32.4 99.45 32.45 99.25 32.5 98.95 32.55 97.6 32.6 96.35 32.65 95.0 32.7 93.75 32.65 92.4 32.65 91.15 32.6 89.85 32.5 88.6 32.4 87.25 32.3 86.0 32.1 84.75 31.9 83.5 31.65 82.2 31.4 81.0 31.05 79.75 30.7 78.55 30.3 75.8 29.35 71.45 27.1 71.5 22.25 71.35 33.5 71.35 37.3 71.45 39.9 71.85 48.7 72.1 60.5 72.1 60.5 72.4 81.05 72.65 97.45 73.15 111.25 73.15 111.95 73.1 112.55 73.0 113.15 72.8 113.7 72.6 114.2 72.25 114.65 71.95 115.1 71.55 115.45 71.15 115.8 70.65 116.1 70.1 116.35 69.5 116.55 68.9 116.75 68.2 116.9 67.5 117.0 66.75 117.05 65.95 117.1 65.2 117.0 64.45 116.95 63.75 116.8 63.1 116.65 62.4 116.4 61.8 116.15 61.2 115.85 60.6 115.55 60.0 115.2 59.5 114.9 58.9 114.5 58.45 114.2 57.8 113.7 56.8 113.0 56.7 112.95 56.05 112.5 55.55 112.0 55.0 111.5 54.55 111.0 54.1 110.45 53.75 109.9 53.4 109.35 53.1 108.75 52.85 108.15 52.7 107.55 52.5 106.95 52.45 106.3 52.35 105.65 52.4 104.95 52.4 104.3 52.5 103.6 52.6 103.05 52.6 102.5 52.65 102.0 52.65 101.4 52.65 100.9 52.6 100.35 52.55 99.85 52.45 99.3 52.4 98.85 52.3 98.2 52.15 97.05 52.15 97.15 52.05 96.55 52.0 96.1 51.95 95.5 51.9 95.0 51.75 92.85 51.7 91.95 51.55 90.25 51.45 88.85 51.35 87.25 51.3 85.8 51.2 84.2 51.15 82.75 51.05 81.15 51.05 79.7 51.0 78.1 51.0 76.6 51.0 75.05 51.05 73.55 51.1 71.95 51.2 70.45 51.55 63.95 50.9 53.0 50.15 40.1 50.15 35.5 50.2 26.5 50.05 -10.55 50.05 -10.8 50.05 -11.1 50.05 -11.3 50.0 -11.6 50.0 -11.8 49.95 -12.15 49.9 -12.55 49.9 -12.65 49.9 -12.95 49.85 -13.2 49.85 -13.45 49.85 -13.7 49.85 -14.0 49.85 -14.2 49.85 -14.5 49.9 -14.75 49.95 -15.1 49.95 -15.4 49.95 -15.7 49.85 -15.95 49.8 -16.2 49.65 -16.4 49.5 -16.6 49.35 -16.75 49.15 -16.95 48.95 -17.1 48.75 -17.25 48.45 -17.35 48.2 -17.5 47.9 -17.6 47.65 -17.7 47.35 -17.8 47.05 -17.9 46.7 -18.0 46.4 -18.1 46.05 -18.2 45.75 -18.3 45.4 -18.4 45.1 -18.45 44.75 -18.55 44.4 -18.6 44.1 -18.7 43.75 -18.75 43.45 -18.85 43.1 -18.9 42.75 -18.95 42.45 -19.0 42.1 -19.1 40.35 -19.4 38.55 -19.65 36.8 -19.85 35.0 -20.05 33.25 -20.2 31.45 -20.3 29.7 -20.4 27.9 -20.4 26.15 -20.45 24.35 -20.45 22.6 -20.4 20.8 -20.35 19.05 -20.25 17.25 -20.15 15.55 -20.0 13.75 -19.85 12.3 -19.7 10.9 -19.55 9.45 -19.4 8.05 -19.2 6.6 -19.0 5.2 -18.8 3.75 -18.6 2.4 -18.35 0.95 -18.15 -0.45 -17.85 -1.85 -17.6 -3.25 -17.3 -4.65 -17.0 -6.05 -16.65 -7.45 -16.3 -8.8 -15.9 -9.65 -15.65 -10.5 -15.4 -11.35 -15.15 -12.25 -14.9 -13.05 -14.65 -13.95 -14.35 -14.75 -14.1 -15.65 -13.8 -16.45 -13.5 -17.3 -13.2 -18.15 -12.9 -19.0 -12.6 -19.85 -12.3 -20.7 -12.0 -21.5 -11.7 -22.35 -11.35 -22.8 -11.2 -23.25 -11.0 -23.7 -10.8 -24.15 -10.6 -24.55 -10.4 -25.0 -10.15 -25.4 -9.95 -25.9 -9.7 -26.25 -9.5 -26.75 -9.25 -26.95 -9.1 -27.6 -8.8 -28.1 -8.5 -28.45 -8.3 -28.9 -8.05 -29.3 -7.85 -29.6 -7.7 -29.85 -7.5 -30.1 -7.35 -30.3 -7.15 -30.5 -6.95 -30.65 -6.7 -30.8 -6.5 -30.95 -6.25 -31.05 -6.05 -31.15 -5.75 -31.25 -5.55 -31.3 -5.25 -31.35 -5.0 -31.35 -4.7 -31.4 -4.45 -31.4 -4.15 -31.35 -1.5 -31.35 1.2 -31.35 3.85 -31.35 6.55 -31.4 9.2 -31.4 11.9 -31.45 14.55 -31.5 17.25 -31.6 19.9 -31.65 22.6 -31.75 25.25 -31.85 27.95 -31.95 30.6 -32.1 33.3 -32.2 35.95 -32.35 38.65 -32.55 42.4 -32.7 45.7 -32.9 49.4 -33.0 52.8 -33.15 56.45 -33.2 59.85 -33.3 63.5 -33.35 66.95 -33.35 70.55 -33.3 74.0 -33.3 77.6 -33.2 81.1 -33.05 84.7 -32.9 88.15 -32.7 91.75 -32.4 95.25 -32.3 96.3 -32.25 97.25 -32.2 98.25 -32.15 99.25 -32.1 100.25 -32.1 101.25 -32.05 102.25 -32.05 103.25 -32.1 104.25 -32.15 105.25 -32.2 106.25 -32.25 107.25 -32.35 108.25 -32.5 109.25 -32.6 110.25 -32.8 111.2 -33.0 112.2 -33.2 113.05 -33.45 113.9 -33.75 114.55 -34.1 115.25 -34.5 115.85 -34.9 116.4 -35.45 116.85 -36.0 117.3 -36.65 117.65 -37.3 118.0 -38.1 118.3 -38.9 118.55 -39.85 118.7 -40.8 118.9 -42.0 119.05 -42.65 119.1 -43.35 119.15 -44.05 119.2 -44.7 119.2 -45.4 119.25 -46.05 119.2 -46.75 119.2 -47.45 119.2 -48.1 119.15 -48.8 119.1 -49.45 119.05 -50.15 118.95 -50.8 118.9 -51.5 118.8 -52.2 118.7 -52.85 118.6 -53.75 118.45 -54.6 118.2 -55.35 117.95 -56.1 117.6 -56.8 117.25 -57.45 116.85 -58.05 116.4 -58.6 115.9 -59.1 115.45 -59.6 114.85 -60.05 114.3 -60.5 113.7 -60.9 113.1 -61.3 112.45 -61.65 111.85 -62.0 111.15 -62.4 110.4 -62.7 109.6 -63.0 108.8 -63.25 108.0 -63.5 107.2 -63.7 106.35 -63.85 105.6 -64.0 104.75 -64.1 103.95 -64.2 103.1 -64.3 102.3 -64.35 101.45 -64.4 100.7 -64.45 99.8 -64.45 99.2 -64.5 98.1 -64.6 95.0 -64.65 91.85 -64.7 88.8 -64.65 85.65 -64.65 82.55 -64.55 79.4 -64.45 76.35 -64.25 73.2 -64.1 70.15 -63.9 67.0 -63.7 63.95 -63.4 60.75 -63.15 57.7 -62.85 54.55 -62.5 51.5 -62.15 48.35 -61.95 46.35 -61.75 44.35 -61.55 42.35 -61.35 40.3 -61.2 38.3 -61.05 36.3 -60.95 34.3 -60.8 32.25 -60.7 30.25 -60.6 28.2 -60.5 26.15 -60.45 24.1 -60.4 22.1 -60.35 20.0 -60.3 17.95 -60.25 15.9 L-60.25 15.9 M-51.15 -33.6 Q-51.2 -32.85 -51.4 -32.05 -51.6 -31.3 -51.9 -30.5 -52.2 -29.8 -52.6 -29.0 -52.9 -28.4 -53.35 -27.5 -54.0 -26.3 -54.15 -26.0 -54.6 -25.15 -54.9 -24.5 -55.25 -23.65 -55.5 -22.95 -55.75 -22.15 -55.85 -21.35 -56.65 -17.25 -57.05 -10.3 -57.55 -1.85 -57.9 0.8 -57.45 14.95 -57.4 16.7 -57.25 23.35 -57.45 28.15 -57.65 33.4 -58.4 40.35 -59.85 54.55 -60.65 64.65 -61.55 75.55 -61.8 83.35 -62.05 91.5 -61.7 97.2 -61.35 102.95 -60.3 106.8 -59.25 110.55 -57.5 112.8 -55.8 114.95 -53.2 115.9 -50.8 116.75 -47.3 116.7 -44.3 116.7 -39.75 115.95 -38.6 115.7 -37.75 114.85 -36.95 114.1 -36.4 112.85 -35.9 111.75 -35.6 110.25 -35.3 108.9 -35.2 107.25 -35.1 105.85 -35.1 104.15 -35.1 102.85 -35.15 101.2 -35.5 92.65 -35.25 98.65 -35.3 97.4 -35.3 96.8 -35.75 90.6 -36.0 84.55 -36.25 78.9 -36.3 73.3 -36.35 68.15 -36.25 62.75 -36.2 58.05 -36.0 52.8 -35.85 48.65 -35.6 43.2 -35.65 44.0 -35.15 33.75 -34.85 28.05 -34.7 24.15 -34.5 18.9 -34.4 14.3 -34.25 11.05 -34.3 7.7 -34.3 5.85 -34.45 2.4 -34.55 -0.45 -34.55 -1.75 -34.5 -3.7 -34.25 -5.0 -33.95 -6.45 -33.3 -7.6 -32.6 -8.8 -31.4 -9.8 -30.15 -10.8 -28.2 -11.8 -26.3 -12.8 -23.45 -13.9 -21.6 -14.65 -19.75 -15.35 -17.9 -16.05 -16.0 -16.65 -14.15 -17.3 -12.2 -17.85 -10.3 -18.4 -8.35 -18.9 -6.45 -19.4 -4.5 -19.8 -2.55 -20.25 -0.55 -20.6 1.4 -21.0 3.4 -21.3 5.4 -21.6 7.4 -21.85 9.55 -22.15 11.8 -22.35 13.95 -22.55 16.2 -22.65 18.35 -22.8 20.55 -22.85 22.7 -22.9 24.95 -22.9 27.1 -22.9 29.3 -22.8 31.45 -22.75 33.7 -22.65 35.8 -22.55 38.05 -22.35 40.15 -22.25 42.4 -22.05 44.45 -21.75 46.4 -21.15 48.3 -20.55 50.1 -19.65 51.9 -18.8 53.45 -17.75 55.05 -16.65 56.4 -15.35 57.75 -14.1 58.8 -12.65 59.85 -11.2 60.6 -9.7 61.35 -8.1 61.75 -6.45 62.15 -4.8 62.1 -3.1 61.8 -3.95 61.4 -4.75 61.0 -5.55 60.6 -6.3 60.15 -7.1 59.65 -7.8 59.15 -8.55 58.6 -9.25 58.05 -9.95 57.4 -10.6 56.8 -11.25 56.1 -11.9 55.45 -12.5 54.7 -13.1 53.95 -13.65 53.15 -14.2 53.15 -10.45 53.05 11.35 53.0 26.9 53.2 36.9 53.5 50.85 54.35 62.4 54.25 65.25 54.2 67.55 54.1 70.1 54.1 72.25 54.05 74.55 54.05 76.6 54.05 78.7 54.05 80.7 54.1 82.75 54.15 84.7 54.25 86.7 54.35 88.75 54.5 90.75 54.65 92.9 54.85 95.0 55.05 97.3 55.05 97.35 55.1 97.4 55.1 97.45 55.15 97.45 55.15 97.5 55.2 97.55 55.25 97.55 55.3 97.6 55.3 97.6 55.4 97.65 55.45 97.65 55.5 97.65 55.55 97.7 55.65 97.7 55.7 97.7 55.8 97.7 56.65 97.7 57.35 97.9 58.0 98.1 58.5 98.5 58.95 98.9 59.25 99.45 59.55 99.95 59.75 100.6 59.95 101.1 60.1 101.85 60.2 102.3 60.35 103.15 60.45 104.0 60.55 104.4 60.7 105.05 60.85 105.5 61.3 106.0 61.9 106.65 62.15 106.9 62.95 107.65 63.55 108.25 63.85 108.6 64.35 109.1 64.6 109.5 64.9 109.95 64.95 110.4 65.05 110.9 64.9 111.35 64.75 111.9 64.3 112.45 63.8 113.0 63.0 113.65 64.15 113.85 64.85 113.95 65.8 114.1 66.45 114.1 67.2 114.15 67.75 114.1 68.3 114.05 68.75 113.85 69.2 113.65 69.5 113.3 69.8 112.95 69.95 112.4 70.1 111.9 70.15 111.15 70.2 110.4 70.1 109.4 69.5 90.8 69.5 89.0 69.15 46.95 67.5 16.7 67.4 15.4 66.55 -3.05 65.95 -15.9 65.15 -19.1 65.0 -19.95 64.75 -20.85 64.55 -21.7 64.2 -22.55 63.95 -23.4 63.55 -24.25 63.2 -25.05 62.8 -25.9 62.45 -26.7 62.0 -27.55 61.6 -28.25 61.1 -29.2 61.05 -29.4 60.25 -30.85 59.7 -31.8 59.35 -32.45 58.55 -34.2 57.8 -35.65 57.0 -37.25 56.25 -38.65 55.45 -40.05 54.6 -41.35 53.8 -42.7 52.9 -43.9 52.0 -45.15 51.05 -46.3 50.05 -47.45 49.0 -48.6 47.9 -49.7 46.7 -50.85 45.5 -51.95 44.15 -53.05 38.95 -57.15 32.9 -60.2 27.1 -63.15 20.6 -65.1 14.3 -66.95 7.6 -67.8 1.0 -68.6 -5.7 -68.4 -12.35 -68.2 -18.9 -67.0 -25.45 -65.8 -31.6 -63.65 -37.8 -61.45 -43.35 -58.4 -49.05 -55.3 -53.85 -51.4 -54.2 -51.2 -54.55 -50.9 -54.85 -50.6 -55.2 -50.3 -55.5 -49.95 -55.85 -49.6 -56.15 -49.25 -56.45 -48.85 -56.75 -48.5 -57.0 -48.1 -57.25 -47.75 -57.45 -47.35 -57.7 -47.0 -57.85 -46.7 -58.0 -46.35 -58.15 -46.05 -57.0 -45.55 -54.75 -44.6 -59.25 -44.35 -63.05 -43.35 -66.55 -42.45 -69.45 -40.95 -72.05 -39.6 -74.15 -37.8 -76.0 -36.15 -77.45 -34.15 -78.7 -32.45 -79.7 -30.45 -80.5 -28.9 -81.15 -27.05 -81.3 -26.55 -82.05 -24.3 -82.5 -23.0 -82.75 -22.55 -90.15 -6.45 -95.85 4.25 -97.3 6.5 -98.1 9.45 -98.85 12.2 -99.05 15.4 -99.2 18.35 -98.9 21.6 -98.6 24.6 -97.95 27.65 -97.3 30.5 -96.45 33.1 -95.6 35.6 -94.7 37.55 -93.8 39.45 -92.95 40.5 -92.1 41.55 -91.45 41.55 -91.1 41.65 -90.65 41.65 -90.25 41.6 -89.8 41.5 -89.35 41.4 -88.9 41.25 -88.45 41.05 -87.9 40.85 -87.5 40.65 -86.95 40.35 -86.6 40.15 -86.0 39.85 -85.3 39.45 -85.05 39.35 -84.5 39.05 -84.1 38.85 -82.75 38.2 -81.55 37.5 -80.25 36.75 -79.05 36.05 -77.8 35.25 -76.7 34.45 -75.5 33.6 -74.5 32.7 -73.4 31.8 -72.45 30.85 -71.45 29.9 -70.6 28.85 -69.75 27.8 -69.05 26.7 -68.3 25.55 -67.75 24.35 -66.9 22.0 -64.7 16.8 -63.0 12.85 -62.55 11.0 -61.65 6.2 -61.05 1.6 -60.55 -2.1 -60.25 -6.1 -60.1 -8.0 -59.8 -12.35 -59.6 -15.8 -59.4 -17.55 -59.15 -20.1 -58.7 -21.95 -58.2 -24.1 -57.3 -25.9 -56.4 -27.8 -54.9 -29.65 -53.4 -31.55 -51.15 -33.6 L-51.15 -33.6 M70.45 8.2 Q70.35 8.25 70.15 8.3 70.35 12.75 70.85 22.6 70.85 22.7 70.85 22.8 70.85 22.9 70.85 22.95 70.85 23.05 70.9 23.1 70.9 23.2 70.95 23.3 70.95 23.35 71.0 23.45 71.05 23.5 71.1 23.6 71.2 23.65 71.25 23.7 71.35 23.75 71.45 23.85 72.2 24.2 73.75 25.05 75.2 25.9 76.0 26.25 77.15 26.8 78.35 27.25 79.5 27.65 80.7 28.0 81.9 28.3 83.15 28.6 84.35 28.85 85.65 29.0 86.8 29.2 88.15 29.35 89.3 29.45 90.65 29.55 91.75 29.65 93.2 29.75 93.35 29.75 95.7 29.9 96.3 29.95 96.75 29.95 97.25 29.95 97.6 29.9 97.95 29.85 98.2 29.75 98.5 29.65 98.65 29.5 98.85 29.35 98.95 29.1 99.1 28.9 99.15 28.55 99.2 28.25 99.2 27.85 99.2 27.45 99.15 26.9 99.0 23.6 98.65 18.65 98.1 10.4 98.1 10.4 98.05 9.6 97.9 8.85 97.8 8.1 97.6 7.35 97.4 6.6 97.1 5.9 96.85 5.2 96.5 4.55 96.15 3.85 95.7 3.2 95.3 2.55 94.8 1.9 94.35 1.3 93.8 0.7 93.25 0.1 92.6 -0.5 92.3 -0.8 92.0 -1.1 91.7 -1.4 91.45 -1.75 91.15 -2.05 90.9 -2.4 90.65 -2.75 90.4 -3.1 90.15 -3.45 89.9 -3.8 89.65 -4.15 89.4 -4.5 89.2 -4.85 88.95 -5.2 88.75 -5.55 88.5 -5.95 86.9 -8.5 83.75 -13.75 80.6 -18.95 78.95 -21.6 73.95 -29.55 71.55 -32.9 70.85 -33.9 70.1 -34.8 69.35 -35.75 68.6 -36.6 67.8 -37.55 67.0 -38.35 66.2 -39.2 65.3 -40.0 64.45 -40.8 63.5 -41.55 62.55 -42.35 61.6 -43.0 60.6 -43.75 59.55 -44.35 58.45 -45.0 57.35 -45.6 57.3 -45.65 57.1 -45.75 56.9 -45.85 56.8 -45.9 56.65 -45.95 56.5 -46.0 56.35 -46.1 56.2 -46.15 56.05 -46.2 55.9 -46.2 55.7 -46.25 55.55 -46.25 55.35 -46.25 55.2 -46.25 55.0 -46.25 54.8 -46.2 55.2 -45.65 55.65 -45.05 56.0 -44.5 56.4 -43.9 56.8 -43.35 57.15 -42.75 57.5 -42.2 57.85 -41.55 58.2 -41.0 58.55 -40.4 58.85 -39.9 59.25 -39.2 60.2 -37.5 59.9 -38.05 60.3 -37.35 60.55 -36.85 61.3 -35.6 62.0 -34.3 62.65 -33.0 63.3 -31.7 63.95 -30.4 64.55 -29.05 65.15 -27.8 65.7 -26.4 66.25 -25.15 66.85 -23.75 67.35 -22.45 67.9 -21.05 68.35 -19.8 68.9 -18.35 69.35 -17.25 69.95 -15.65 70.3 -14.7 70.7 -13.7 71.05 -12.75 71.45 -11.8 71.9 -10.85 72.3 -9.9 72.7 -8.95 73.15 -8.0 73.6 -7.05 74.1 -6.15 74.55 -5.2 75.05 -4.3 75.5 -3.35 76.05 -2.45 76.55 -1.55 77.05 -0.65 78.3 1.45 81.9 7.3 84.9 12.25 86.65 15.25 87.05 15.9 87.2 16.2 87.5 16.75 87.75 17.2 88.0 17.7 88.25 18.15 88.55 18.65 88.75 19.15 89.0 19.65 89.25 20.15 89.5 20.65 89.7 21.15 89.9 21.7 90.1 22.2 90.3 22.7 90.45 23.25 90.5 23.45 90.55 23.6 90.6 23.8 90.6 24.0 90.6 24.15 90.6 24.35 90.6 24.5 90.55 24.7 90.5 24.85 90.45 25.0 90.35 25.15 90.25 25.3 90.15 25.45 90.0 25.6 89.85 25.75 89.65 25.85 89.5 25.95 89.3 26.0 89.15 26.1 88.95 26.1 88.8 26.15 88.6 26.15 88.45 26.15 88.25 26.1 88.05 26.05 87.9 26.0 87.7 25.95 87.55 25.85 87.4 25.8 87.25 25.7 87.1 25.65 86.9 25.55 79.45 20.6 76.2 17.6 75.85 17.25 75.5 16.9 75.15 16.55 74.8 16.2 74.5 15.85 74.2 15.5 73.85 15.1 73.6 14.7 73.3 14.35 73.05 13.95 72.8 13.5 72.55 13.1 72.35 12.7 72.15 12.25 71.95 11.8 71.8 11.35 71.7 11.05 70.45 8.2 L70.45 8.2 M86.65 21.75 Q84.1 16.4 77.95 6.45 71.9 -3.35 69.45 -8.5 69.4 -6.45 69.7 -4.3 69.95 -2.15 70.5 0.05 71.05 2.25 71.9 4.4 72.7 6.6 73.8 8.65 74.9 10.75 76.25 12.65 77.65 14.6 79.2 16.25 80.85 17.95 82.7 19.3 84.6 20.75 86.65 21.75 L86.65 21.75 M58.4 105.25 Q58.4 104.95 58.35 104.7 58.35 104.45 58.3 104.15 58.25 103.85 58.25 103.55 58.2 103.25 58.1 102.95 58.05 102.65 57.95 102.35 57.9 102.0 57.75 101.7 57.65 101.35 57.55 101.05 57.4 100.7 57.2 100.4 57.15 100.3 57.15 100.25 57.1 100.2 57.05 100.1 57.0 100.05 56.95 100.0 56.9 99.9 56.85 99.85 56.75 99.8 56.7 99.75 56.65 99.7 56.55 99.7 56.45 99.65 56.4 99.65 56.3 99.65 56.2 99.65 56.1 99.65 56.05 99.7 55.95 99.75 55.85 99.75 55.75 99.8 55.7 99.85 55.6 99.9 55.5 99.95 55.45 100.0 55.4 100.05 55.3 100.15 55.25 100.2 55.2 100.25 55.15 100.3 55.15 100.35 55.1 100.4 55.0 101.05 54.9 101.5 54.8 102.1 54.75 102.55 54.65 103.15 54.65 103.65 54.6 104.2 54.6 104.75 54.6 105.3 54.7 105.8 54.75 106.35 54.9 106.85 55.0 107.4 55.25 107.9 55.45 108.45 55.75 108.95 55.8 109.05 55.85 109.1 55.9 109.2 55.95 109.25 56.0 109.3 56.05 109.4 56.1 109.45 56.15 109.5 56.2 109.55 56.3 109.6 56.35 109.65 56.45 109.7 56.5 109.7 56.6 109.75 56.7 109.75 56.8 109.75 56.9 109.75 57.05 109.7 57.15 109.7 57.25 109.65 57.3 109.6 57.4 109.55 57.45 109.5 57.5 109.4 57.6 109.35 57.65 109.25 57.7 109.2 57.75 109.1 57.75 109.05 57.8 108.95 57.9 108.75 57.9 108.75 58.0 108.55 58.05 108.4 58.15 108.2 58.2 108.0 58.25 107.8 58.25 107.6 58.3 107.4 58.3 107.2 58.35 107.0 58.35 106.75 58.35 106.55 58.35 106.3 58.35 106.1 58.35 105.8 58.4 105.3 58.4 105.25 L58.4 105.25 M62.55 110.7 Q62.55 110.55 62.5 110.35 62.45 110.2 62.4 110.05 62.3 109.95 62.25 109.8 62.15 109.7 62.05 109.55 61.95 109.45 61.8 109.3 61.7 109.2 61.6 109.1 61.45 109.0 61.3 108.9 61.2 108.8 61.05 108.7 61.05 108.7 61.05 108.7 61.0 108.7 60.95 108.7 60.95 108.75 60.9 108.75 60.85 108.8 60.85 108.8 60.8 108.85 60.75 108.85 60.7 108.9 60.7 108.9 60.65 108.95 60.65 108.95 60.65 108.95 60.65 109.0 60.65 109.15 60.7 109.25 60.75 109.4 60.85 109.5 60.9 109.6 60.95 109.75 61.05 109.85 61.15 109.95 61.25 110.05 61.35 110.15 61.45 110.25 61.55 110.35 61.65 110.4 61.8 110.5 61.9 110.6 62.0 110.7 62.05 110.7 62.2 110.7 62.4 110.7 62.55 110.7 L62.55 110.7" fill="#090909" fill-rule="evenodd" stroke="none"/>
    <path d="M-22.55 -31.9 Q-22.85 -31.9 -23.2 -31.95 -23.55 -31.95 -23.85 -31.95 -24.2 -32.0 -24.55 -32.0 -24.9 -32.05 -25.25 -32.05 -25.6 -32.1 -25.95 -32.1 -26.3 -32.15 -26.65 -32.2 -27.0 -32.25 -27.35 -32.3 -27.75 -32.35 -28.1 -32.4 -28.75 -32.45 -29.7 -32.65 -29.75 -32.7 -29.8 -32.75 -29.85 -32.8 -29.9 -32.9 -29.95 -32.95 -30.0 -33.0 -30.05 -33.1 -30.1 -33.15 -30.15 -33.25 -30.2 -33.35 -30.25 -33.45 -30.3 -33.55 -30.35 -33.65 -30.4 -33.75 -30.4 -33.85 -30.45 -33.95 -30.5 -34.1 -30.5 -34.15 -30.55 -34.25 -30.6 -34.35 -30.6 -34.5 -30.65 -34.6 -30.65 -34.75 -30.7 -34.85 -30.7 -35.0 -30.7 -35.1 -30.7 -35.25 -30.65 -35.35 -30.65 -35.45 -30.6 -35.55 -30.55 -35.7 -30.45 -35.75 -30.4 -35.8 -30.35 -35.9 -30.25 -35.95 -30.2 -36.0 -30.1 -36.05 -30.0 -36.1 -29.95 -36.15 -29.85 -36.2 -29.75 -36.25 -29.6 -36.25 -29.5 -36.3 -29.4 -36.3 -29.25 -36.35 -29.15 -36.35 -29.0 -36.35 -28.9 -36.35 -19.95 -36.45 -15.65 -36.0 -15.5 -36.0 -15.25 -35.95 -14.95 -35.95 -14.85 -35.9 -14.6 -35.9 -14.4 -35.85 -14.2 -35.8 -14.0 -35.75 -13.8 -35.7 -13.65 -35.6 -13.45 -35.55 -13.35 -35.4 -13.2 -35.3 -13.1 -35.1 -13.0 -34.95 -12.95 -34.7 -12.9 -34.5 -12.9 -34.35 -12.9 -34.15 -12.95 -34.0 -13.0 -33.8 -13.05 -33.65 -13.15 -33.5 -13.25 -33.35 -13.35 -33.2 -13.5 -33.1 -13.6 -32.95 -13.75 -32.8 -13.9 -32.7 -14.05 -32.55 -14.15 -32.45 -14.4 -32.3 -15.7 -31.25 -18.9 -28.3 -21.75 -25.75 -23.55 -24.4 -23.9 -24.15 -24.2 -23.95 -24.5 -23.75 -24.8 -23.6 -25.05 -23.45 -25.35 -23.35 -25.6 -23.25 -25.85 -23.2 -26.05 -23.15 -26.3 -23.15 -26.55 -23.2 -26.75 -23.25 -26.95 -23.3 -27.15 -23.45 -27.4 -23.6 -27.6 -23.8 -28.0 -24.2 -28.25 -24.45 -28.55 -24.8 -28.75 -25.05 -28.95 -25.3 -29.05 -25.55 -29.1 -25.75 -29.1 -26.0 -29.1 -26.2 -29.05 -26.4 -28.95 -26.65 -28.75 -26.85 -28.6 -27.1 -28.3 -27.35 -28.1 -27.6 -27.7 -27.95 -26.05 -29.45 -22.55 -31.9 L-22.55 -31.9" fill="#090909" fill-rule="evenodd" stroke="none"/>
    <path d="M36.0 -38.95 L36.0 -38.95 Q36.0 -38.95 45.75 -35.65 45.4 -34.75 44.8 -32.85 44.55 -32.55 44.0 -31.9 42.65 -32.2 39.9 -32.75 37.7 -33.45 35.85 -34.1 34.15 -34.75 32.8 -35.35 31.55 -35.9 30.55 -36.4 29.7 -36.9 29.05 -37.35 28.5 -37.75 28.1 -38.1 27.8 -38.45 27.6 -38.75 27.45 -39.0 27.45 -39.25 27.4 -39.4 27.4 -39.6 27.45 -39.85 27.55 -40.05 27.7 -40.25 27.95 -40.45 28.15 -40.65 28.5 -40.85 28.8 -41.05 29.2 -41.25 29.55 -41.45 30.05 -41.65 30.5 -41.85 31.1 -42.05 31.55 -42.25 32.25 -42.45 32.65 -42.6 33.55 -42.9 34.3 -43.15 35.1 -43.4 35.85 -43.65 36.6 -43.85 37.3 -44.05 38.0 -44.25 38.7 -44.4 39.35 -44.55 40.0 -44.7 40.65 -44.85 41.25 -44.95 41.85 -45.05 42.35 -45.15 42.9 -45.2 43.4 -45.3 43.9 -45.35 44.1 -45.0 44.25 -44.7 44.35 -44.35 44.45 -44.1 44.55 -43.85 44.55 -43.6 44.6 -43.35 44.6 -43.15 44.6 -42.95 44.6 -42.8 44.55 -42.6 44.5 -42.45 44.5 -42.35 44.4 -42.2 44.35 -42.1 44.3 -42.0 44.2 -41.9 44.1 -41.8 44.0 -41.7 43.9 -41.65 43.75 -41.55 43.6 -41.5 43.45 -41.45 43.2 -41.35 43.05 -41.3 42.7 -41.25 42.2 -41.1 42.05 -41.05 41.6 -40.9 41.25 -40.8 40.7 -40.65 40.2 -40.45 38.95 -40.05 37.35 -39.45 35.35 -38.75 36.0 -38.95 L36.0 -38.95" fill="#090909" fill-rule="evenodd" stroke="none"/>
    <path d="M4.5 -34.4 Q4.65 -34.25 4.8 -34.1 5.0 -33.95 5.2 -33.8 5.35 -33.65 5.55 -33.55 5.8 -33.45 6.0 -33.4 6.2 -33.3 6.45 -33.25 6.65 -33.2 6.9 -33.2 7.15 -33.2 7.35 -33.2 7.6 -33.2 7.85 -33.25 8.15 -33.3 8.4 -33.4 8.65 -33.5 8.9 -33.65 9.1 -33.75 9.3 -33.9 9.45 -34.05 9.6 -34.2 9.75 -34.35 9.85 -34.5 9.95 -34.6 10.0 -34.75 10.05 -34.8 10.1 -34.9 10.15 -34.95 10.15 -35.0 10.3 -34.85 10.45 -34.7 10.6 -34.55 10.75 -34.45 10.9 -34.3 11.1 -34.2 11.3 -34.1 11.5 -34.0 11.65 -33.95 11.9 -33.9 12.1 -33.85 12.3 -33.8 12.5 -33.8 12.75 -33.75 12.95 -33.75 13.15 -33.8 13.45 -33.85 13.7 -33.9 13.95 -34.0 14.15 -34.1 14.35 -34.2 14.55 -34.3 14.75 -34.4 14.9 -34.55 15.0 -34.65 15.15 -34.8 15.25 -34.9 15.3 -35.0 15.4 -35.05 15.45 -35.15 15.45 -35.2 15.5 -35.25 15.55 -35.05 15.6 -34.85 15.65 -34.65 15.65 -34.45 15.65 -34.25 15.65 -34.05 15.65 -33.85 15.6 -33.65 15.55 -33.5 15.45 -33.3 15.35 -33.15 15.25 -32.95 15.15 -32.8 15.0 -32.65 14.85 -32.5 14.7 -32.4 14.5 -32.25 14.25 -32.1 14.0 -32.0 13.75 -31.95 13.5 -31.85 13.2 -31.85 12.9 -31.8 12.6 -31.8 12.35 -31.85 12.05 -31.9 11.75 -31.95 11.5 -32.05 11.2 -32.15 10.95 -32.3 10.7 -32.45 10.45 -32.65 10.4 -32.6 10.4 -32.55 10.35 -32.5 10.3 -32.4 10.2 -32.3 10.1 -32.2 10.0 -32.1 9.9 -31.95 9.75 -31.85 9.6 -31.75 9.45 -31.6 9.3 -31.5 9.1 -31.4 8.85 -31.3 8.65 -31.2 8.4 -31.15 8.35 -31.15 8.25 -31.1 8.15 -31.1 8.05 -31.1 7.9 -31.05 7.7 -31.05 7.55 -31.05 7.35 -31.05 7.1 -31.05 6.9 -31.1 6.65 -31.1 6.45 -31.2 6.2 -31.25 6.0 -31.35 5.75 -31.45 5.5 -31.65 5.35 -31.75 5.2 -31.9 5.05 -32.05 4.95 -32.2 4.8 -32.35 4.7 -32.5 4.65 -32.7 4.55 -32.85 4.5 -33.05 4.45 -33.25 4.45 -33.4 4.4 -33.6 4.4 -33.8 4.45 -34.0 4.45 -34.2 4.5 -34.4 L4.5 -34.4" fill="#090909" fill-rule="evenodd" stroke="none"/>
  </g>
</svg>
