<?xml version="1.0" encoding="UTF-8" standalone="no"?>
<svg xmlns:xlink="http://www.w3.org/1999/xlink" height="115.6px" width="126.65px" xmlns="http://www.w3.org/2000/svg">
  <g transform="matrix(1.0, 0.0, 0.0, 1.0, 63.35, 57.8)">
    <path d="M-56.5 33.65 Q-56.55 33.7 -56.6 33.85 -56.55 33.75 -56.5 33.65 L-56.5 33.65" fill="#000000" fill-rule="evenodd" stroke="none"/>
    <path d="M-49.7 23.35 Q-49.7 23.35 -49.7 23.35 -52.6 27.3 -53.5 28.65 -53.45 28.45 -53.35 28.2 -53.3 28.0 -53.2 27.8 -53.1 27.6 -52.95 27.4 -52.8 27.2 -52.65 27.0 -52.5 26.8 -52.35 26.6 -52.2 26.45 -52.05 26.2 -49.2 22.9 -51.7 25.85 -51.5 25.6 -51.4 25.45 -51.05 25.0 -49.7 23.35 L-49.7 23.35" fill="#000000" fill-rule="evenodd" stroke="none"/>
    <path d="M-44.1 53.05 Q-44.5 55.0 -45.25 58.65 -46.05 62.45 -46.45 64.25 -46.45 64.3 -46.45 64.3 -46.5 64.35 -46.5 64.4 -46.5 64.4 -46.55 64.45 -46.45 63.5 -46.35 62.6 -46.2 61.7 -46.1 60.85 -45.95 60.0 -45.8 59.2 -45.65 58.4 -45.45 57.6 -45.3 56.9 -45.1 56.15 -44.95 55.45 -44.75 54.8 -44.6 54.15 -44.4 53.55 -44.25 52.95 -44.05 52.4 -44.05 52.4 -44.05 52.4 -44.05 52.45 -44.05 52.45 -44.05 52.5 -44.05 52.55 -44.05 52.6 -44.05 52.6 -44.05 52.65 -44.05 52.7 -44.05 52.75 -44.05 52.8 -44.05 52.85 -44.05 52.85 -44.1 52.9 -44.1 52.95 -44.1 53.0 -44.1 53.05 L-44.1 53.05" fill="#000000" fill-rule="evenodd" stroke="none"/>
    <path d="M-39.7 42.4 Q-39.95 42.85 -40.8 44.45 -40.65 44.2 -40.25 43.45 -39.95 42.8 -39.7 42.4 -39.7 42.4 -39.7 42.4 L-39.7 42.4" fill="#000000" fill-rule="evenodd" stroke="none"/>
    <path d="M-36.7 37.4 Q-36.75 37.45 -36.75 37.55 -36.8 37.6 -36.85 37.65 -36.85 37.75 -36.9 37.8 -36.95 37.85 -37.0 37.95 -37.05 38.0 -37.05 38.05 -37.1 38.15 -37.15 38.2 -37.2 38.25 -37.25 38.3 -37.3 38.4 -37.35 38.45 -37.35 38.5 -37.65 38.95 -37.3 38.35 -36.7 37.4 L-36.7 37.4" fill="#000000" fill-rule="evenodd" stroke="none"/>
    <path d="M-21.0 -4.15 Q-21.0 -4.15 -21.0 -4.15 -21.15 -4.05 -21.3 -3.95 -21.5 -3.85 -21.65 -3.75 -21.8 -3.65 -21.95 -3.55 -22.1 -3.45 -22.25 -3.35 -22.4 -3.25 -22.55 -3.15 -22.7 -3.05 -22.85 -2.9 -23.0 -2.8 -23.15 -2.7 -23.3 -2.6 -23.45 -2.5 -23.45 -2.55 -23.4 -2.55 -23.4 -2.6 -23.35 -2.6 -23.35 -2.65 -23.3 -2.7 -23.3 -2.7 -23.25 -2.75 -23.25 -2.75 -23.2 -2.8 -23.2 -2.8 -23.15 -2.8 -23.15 -2.85 -23.1 -2.85 -23.1 -2.9 -23.05 -2.9 -22.1 -3.5 -21.0 -4.15 L-21.0 -4.15" fill="#000000" fill-rule="evenodd" stroke="none"/>
    <path d="M12.55 -17.65 Q10.7 -17.2 8.55 -16.65 8.8 -16.75 9.05 -16.8 9.3 -16.9 9.55 -16.95 9.8 -17.05 10.05 -17.1 10.3 -17.2 10.55 -17.25 10.8 -17.3 11.05 -17.4 11.3 -17.45 11.55 -17.5 11.8 -17.55 12.05 -17.6 12.3 -17.65 12.55 -17.65 L12.55 -17.65" fill="#000000" fill-rule="evenodd" stroke="none"/>
    <path d="M41.0 -19.95 Q40.85 -20.0 40.65 -20.0 40.5 -20.05 40.35 -20.05 40.15 -20.1 40.0 -20.1 39.8 -20.15 39.65 -20.15 39.45 -20.2 39.25 -20.2 39.05 -20.25 38.9 -20.25 38.7 -20.3 38.5 -20.3 38.3 -20.3 38.1 -20.35 38.1 -20.35 38.1 -20.4 38.3 -20.4 38.5 -20.4 38.7 -20.4 38.85 -20.4 39.05 -20.35 39.25 -20.35 39.4 -20.35 39.6 -20.3 39.8 -20.3 39.95 -20.25 40.15 -20.2 40.3 -20.15 40.5 -20.15 40.65 -20.05 40.85 -20.0 41.0 -19.95 L41.0 -19.95" fill="#000000" fill-rule="evenodd" stroke="none"/>
    <path d="M61.75 -0.1 Q61.6 -0.15 61.3 -0.25 61.35 -0.25 61.4 -0.25 61.45 -0.25 61.45 -0.25 61.5 -0.3 61.55 -0.3 61.6 -0.3 61.6 -0.3 61.65 -0.35 61.7 -0.35 61.7 -0.4 61.75 -0.4 61.75 -0.4 61.8 -0.45 61.8 -0.45 61.85 -0.5 61.85 -0.5 61.85 -0.45 61.85 -0.45 61.85 -0.45 61.85 -0.4 61.85 -0.4 61.85 -0.4 61.8 -0.35 61.8 -0.35 61.8 -0.3 61.8 -0.3 61.8 -0.25 61.75 -0.2 61.75 -0.2 61.75 -0.15 61.75 -0.1 L61.75 -0.1" fill="#000000" fill-rule="evenodd" stroke="none"/>
    <path d="M61.85 -0.5 Q61.8 -0.4 61.7 -0.35 61.6 -0.3 61.5 -0.3 61.4 -0.25 61.3 -0.25 61.2 -0.25 61.05 -0.25 60.9 -0.25 60.8 -0.25 60.65 -0.3 60.55 -0.3 60.4 -0.35 60.3 -0.35 60.2 -0.4 60.05 -0.4 53.55 -2.2 51.85 -2.55 49.55 -3.05 45.35 -3.45 44.3 -3.35 43.35 -3.3 42.4 -3.25 41.55 -3.2 40.75 -3.2 40.0 -3.2 39.3 -3.2 38.6 -3.25 38.0 -3.3 37.3 -3.35 36.75 -3.4 36.1 -3.45 35.55 -3.55 34.85 -3.65 35.0 -3.6 33.55 -3.8 33.35 -3.85 33.2 -3.85 33.0 -3.85 32.8 -3.9 32.6 -3.9 32.4 -3.95 32.2 -3.95 32.0 -3.95 31.8 -4.0 31.6 -4.0 31.35 -4.0 31.15 -4.0 30.9 -4.0 30.7 -4.05 30.45 -4.05 30.2 -4.05 30.15 -3.95 30.1 -3.85 30.0 -3.75 29.95 -3.7 29.85 -3.6 29.8 -3.5 29.7 -3.45 29.6 -3.35 29.5 -3.3 29.4 -3.25 29.25 -3.2 29.15 -3.15 29.0 -3.1 28.85 -3.05 28.75 -3.05 28.6 -3.0 25.9 -2.6 16.35 -1.05 16.3 -1.15 16.25 -1.4 13.8 -0.45 13.0 0.0 12.05 0.55 11.85 0.6 5.1 3.3 2.25 4.5 -0.95 5.85 -2.8 6.8 -4.25 7.55 -6.35 8.8 -10.45 11.3 -11.55 11.95 -13.25 13.1 -14.65 14.1 -16.05 15.05 -17.15 15.95 -18.25 16.8 -19.2 17.6 -20.05 18.35 -20.9 19.15 -21.65 19.8 -22.45 20.65 -23.05 21.25 -23.95 22.2 -25.6 24.0 -25.6 23.95 -26.6 25.05 -27.5 25.95 -21.45 19.5 -30.45 29.05 -32.35 31.05 -32.6 31.55 -33.35 32.7 -34.9 34.9 -36.5 37.05 -37.05 38.0 -38.1 39.6 -39.05 41.25 -40.0 42.9 -40.85 44.55 -41.65 46.2 -42.35 47.85 -43.05 49.5 -43.6 51.15 -44.2 52.8 -44.65 54.5 -45.15 56.15 -45.5 57.8 -45.85 59.45 -46.1 61.1 -46.4 62.75 -46.55 64.4 -46.65 65.15 -46.7 65.9 -46.75 66.65 -46.75 67.35 -46.8 68.0 -46.8 68.7 -46.85 69.35 -46.85 70.05 -46.85 70.65 -46.85 71.35 -46.8 71.85 -46.8 72.65 -46.8 74.1 -46.8 73.95 -46.8 74.7 -46.8 75.25 -47.2 75.25 -47.6 75.2 -47.95 75.15 -48.35 75.05 -48.7 74.95 -49.0 74.8 -49.35 74.65 -49.65 74.45 -49.95 74.25 -50.25 74.05 -50.55 73.8 -50.8 73.55 -51.05 73.25 -51.3 72.95 -51.5 72.7 -51.7 72.35 -52.85 70.55 -55.4 65.45 -55.9 64.4 -56.35 63.7 -56.65 63.15 -57.15 62.45 -57.8 61.5 -58.1 61.05 -58.75 60.05 -59.5 58.8 -59.7 58.4 -59.9 58.05 -60.15 57.65 -60.35 57.25 -60.6 56.8 -60.8 56.35 -61.05 55.85 -61.3 55.4 -61.55 54.85 -61.8 54.35 -62.05 53.8 -62.3 53.2 -62.55 52.6 -62.85 52.0 -63.1 51.4 -63.35 50.75 -63.25 50.0 -63.15 49.2 -63.05 48.4 -62.9 47.55 -62.75 46.65 -62.6 45.8 -62.4 44.85 -62.15 43.95 -61.95 43.0 -61.65 42.0 -61.4 41.0 -61.05 40.0 -60.7 38.95 -60.35 37.95 -59.95 36.85 -59.5 35.8 -58.8 34.1 -57.95 32.45 -57.15 30.85 -56.25 29.35 -55.4 27.95 -54.45 26.55 -53.6 25.3 -52.65 24.05 -51.8 22.95 -50.85 21.85 -50.0 20.85 -49.1 19.9 -48.3 19.05 -47.45 18.25 -46.75 17.55 -45.95 16.85 -45.9 14.9 -45.8 11.05 -45.85 8.95 -45.95 4.85 -46.3 4.05 -46.95 2.4 -47.15 1.7 -47.35 1.0 -47.55 0.3 -47.75 -0.35 -47.95 -1.0 -48.1 -1.65 -48.25 -2.25 -48.45 -2.85 -48.6 -3.4 -48.75 -4.0 -48.9 -4.5 -49.0 -5.05 -49.15 -5.5 -49.25 -6.0 -49.4 -6.45 -49.5 -6.9 -49.6 -7.25 -49.7 -7.6 -49.8 -8.15 -49.95 -8.65 -50.1 -9.35 -50.25 -10.05 -50.4 -10.85 -50.6 -11.7 -50.75 -12.65 -50.95 -13.6 -51.15 -14.65 -51.3 -15.7 -51.5 -16.85 -51.65 -18.05 -51.8 -19.3 -51.95 -20.5 -52.05 -21.5 -52.1 -22.35 -52.2 -23.2 -52.2 -23.9 -52.25 -24.65 -52.25 -25.25 -52.2 -25.9 -52.15 -26.4 -52.1 -26.95 -52.0 -27.4 -51.85 -27.85 -51.7 -28.2 -51.5 -28.55 -51.3 -28.85 -51.05 -29.15 -50.75 -29.4 -50.55 -29.55 -50.3 -29.7 -50.1 -29.85 -49.85 -29.95 -49.65 -30.05 -49.4 -30.1 -49.2 -30.15 -48.95 -30.2 -48.75 -30.25 -48.55 -30.25 -48.4 -30.3 -48.25 -30.3 -48.1 -30.3 -47.95 -30.3 -47.85 -30.3 -47.8 -30.3 -47.4 -30.3 -47.05 -30.2 -46.65 -30.15 -46.3 -30.0 -45.95 -29.85 -45.65 -29.7 -45.3 -29.5 -45.0 -29.3 -44.7 -29.05 -44.4 -28.8 -44.1 -28.55 -43.8 -28.25 -43.55 -28.0 -43.25 -27.7 -43.0 -27.4 -42.75 -27.1 -41.8 -25.95 -40.95 -24.65 -40.2 -23.45 -39.5 -22.1 -38.85 -20.9 -38.3 -19.55 -37.75 -18.35 -37.35 -17.1 -36.95 -16.0 -36.6 -14.85 -36.3 -13.85 -36.05 -12.85 -35.9 -12.05 -35.7 -11.3 -35.6 -10.75 -35.5 -10.2 -34.3 -3.35 -34.25 -0.2 -34.25 0.15 -34.25 0.65 -34.25 0.15 -34.3 1.4 -34.3 1.8 -34.3 2.05 -34.3 2.4 -34.3 2.65 -34.25 2.9 -34.25 3.1 -34.2 3.35 -34.15 3.5 -34.1 3.65 -34.05 3.8 -33.95 3.9 -33.85 3.95 -33.65 4.0 -33.45 3.9 -33.25 3.75 -33.0 3.45 -32.8 3.2 -32.45 2.75 -32.45 2.75 -31.8 1.75 -31.35 1.1 -31.0 0.6 -30.5 -0.1 -30.0 -0.7 -29.45 -1.4 -28.8 -2.05 -28.1 -2.8 -27.35 -3.45 -26.95 -3.8 -26.5 -4.15 -26.1 -4.45 -25.65 -4.75 -25.2 -5.05 -24.7 -5.35 -24.25 -5.65 -23.7 -5.95 -23.15 -6.25 -22.55 -6.55 -21.95 -6.85 -21.25 -7.2 -20.65 -7.5 -19.8 -7.95 -19.3 -8.2 -18.15 -8.7 -16.65 -9.5 -12.45 -11.25 -10.45 -12.1 -5.65 -13.9 0.05 -16.05 0.65 -16.3 1.2 -16.5 1.75 -16.75 2.35 -17.0 2.95 -17.25 3.65 -17.5 4.3 -17.8 5.0 -18.1 5.75 -18.4 6.5 -18.75 7.25 -19.1 8.05 -19.45 8.9 -19.85 9.75 -20.25 10.6 -20.65 11.5 -21.1 12.4 -21.55 12.9 -22.2 13.35 -22.8 13.75 -23.45 14.15 -24.05 14.5 -24.65 14.85 -25.25 15.2 -25.8 15.5 -26.4 15.75 -26.95 16.0 -27.5 16.25 -28.0 16.5 -28.5 16.7 -28.95 16.85 -29.45 17.05 -29.85 17.2 -30.3 17.45 -31.05 17.7 -31.9 17.9 -32.65 18.05 -33.5 18.2 -34.25 18.3 -35.15 18.4 -35.85 18.55 -36.9 18.5 -36.4 18.75 -38.75 18.9 -39.9 19.0 -40.75 19.15 -41.9 19.35 -42.95 19.55 -44.15 19.75 -45.35 19.9 -46.1 20.05 -46.85 20.2 -47.55 20.4 -48.25 20.55 -48.9 20.7 -49.55 20.9 -50.15 21.05 -50.75 21.2 -51.35 21.35 -51.9 21.5 -52.4 21.7 -52.9 21.8 -53.4 21.95 -53.85 22.1 -54.25 22.25 -54.65 22.35 -54.85 22.4 -55.1 22.5 -55.35 22.6 -55.55 22.75 -55.85 22.85 -56.05 23.0 -56.35 23.15 -56.55 23.3 -56.8 23.5 -57.0 23.65 -57.2 23.85 -57.35 24.05 -57.55 24.3 -57.65 24.5 -57.75 24.75 -57.8 25.15 -57.85 25.55 -57.7 25.95 -57.55 26.35 -57.25 26.75 -56.95 27.15 -56.55 27.5 -56.15 27.85 -55.65 28.2 -55.2 28.5 -54.7 28.8 -54.25 29.05 -53.75 29.3 -53.4 29.5 -52.95 29.65 -52.7 29.8 -52.35 30.1 -51.75 30.35 -51.15 30.7 -50.4 30.95 -49.6 31.25 -48.75 31.5 -47.85 31.75 -46.8 31.95 -45.75 32.1 -44.6 32.2 -43.35 32.35 -42.05 32.3 -40.7 32.3 -39.2 32.15 -37.7 32.0 -36.05 31.7 -34.4 31.4 -33.7 31.1 -33.05 30.75 -32.35 30.45 -31.7 30.1 -31.05 29.8 -30.35 29.45 -29.7 29.15 -29.05 28.8 -28.4 28.45 -27.7 28.1 -27.05 27.8 -26.4 27.45 -25.75 27.1 -25.1 26.75 -24.45 26.35 -23.8 25.45 -22.15 24.3 -20.2 23.7 -20.15 22.8 -20.0 23.45 -20.1 24.3 -20.2 24.3 -20.2 24.3 -20.2 24.4 -20.3 24.45 -20.45 24.55 -20.55 24.65 -20.7 24.75 -20.8 24.8 -20.9 24.9 -21.05 24.95 -21.15 25.05 -21.3 25.15 -21.4 25.2 -21.55 25.3 -21.7 25.35 -21.8 25.45 -21.95 25.5 -22.05 25.6 -22.2 25.95 -22.25 26.3 -22.25 26.65 -22.3 27.0 -22.35 27.35 -22.35 27.75 -22.4 28.1 -22.4 28.5 -22.45 28.85 -22.45 29.25 -22.45 29.65 -22.5 30.05 -22.5 30.45 -22.5 30.85 -22.5 31.25 -22.5 31.65 -22.5 32.35 -22.5 33.1 -22.45 33.8 -22.45 34.45 -22.4 35.15 -22.35 35.8 -22.3 36.45 -22.2 37.1 -22.15 37.75 -22.05 38.35 -21.95 38.95 -21.9 39.55 -21.8 40.1 -21.7 40.65 -21.55 41.2 -21.45 41.75 -21.35 41.95 -21.1 42.15 -20.9 42.35 -20.65 42.55 -20.4 42.8 -20.15 43.05 -19.9 43.35 -19.65 43.6 -19.4 43.9 -19.1 44.2 -18.85 44.55 -18.55 44.85 -18.3 45.2 -18.0 45.6 -17.75 45.95 -17.5 46.35 -17.2 46.85 -16.85 47.35 -16.55 47.85 -16.3 48.3 -16.05 48.75 -15.8 49.2 -15.6 49.6 -15.45 50.05 -15.25 50.4 -15.1 50.85 -14.95 51.1 -14.85 51.55 -14.7 52.0 -14.55 52.2 -14.45 52.55 -14.35 52.8 -14.25 53.35 -14.0 53.85 -13.75 54.4 -13.4 54.9 -13.0 55.45 -12.6 56.0 -12.1 56.6 -11.55 57.1 -10.85 57.7 -10.2 58.2 -9.4 58.75 -8.5 59.3 -7.55 59.85 -6.5 60.3 -5.35 60.85 -4.15 61.3 -2.75 61.4 -2.55 61.5 -2.4 61.6 -2.2 61.7 -2.05 61.75 -1.85 61.8 -1.7 61.85 -1.55 61.9 -1.4 61.95 -1.25 61.95 -1.15 61.95 -1.0 61.95 -0.9 61.95 -0.75 61.95 -0.65 61.9 -0.6 61.85 -0.5 L61.85 -0.5" fill="#000000" fill-rule="evenodd" stroke="none"/>
    <path d="M-34.0 2.15 Q-34.0 2.0 -34.05 1.65 -34.05 1.7 -34.05 1.7 -34.05 1.75 -34.0 1.8 -34.0 1.8 -34.0 1.85 -34.0 1.9 -34.0 1.9 -34.0 1.95 -34.0 2.0 -34.0 2.0 -34.0 2.05 -34.0 2.05 -34.0 2.1 -34.0 2.15 -34.0 2.15 L-34.0 2.15" fill="#000000" fill-rule="evenodd" stroke="none"/>
    <path d="M-37.65 38.95 Q-37.8 39.2 -38.0 39.5 -38.15 39.75 -38.3 40.0 -38.45 40.2 -38.6 40.45 -38.75 40.65 -38.85 40.9 -39.0 41.1 -39.1 41.3 -39.2 41.5 -39.35 41.7 -39.45 41.9 -39.55 42.05 -39.6 42.2 -39.7 42.4 -39.6 42.15 -39.45 41.95 -39.35 41.7 -39.25 41.5 -39.1 41.3 -39.0 41.05 -38.85 40.85 -38.75 40.65 -38.6 40.4 -38.5 40.2 -38.35 39.95 -38.2 39.75 -38.1 39.55 -37.95 39.35 -37.8 39.15 -37.65 38.95 L-37.65 38.95" fill="#000000" fill-rule="evenodd" stroke="none"/>
    <path d="M-30.35 28.95 Q-31.8 30.75 -33.95 33.55 -33.8 33.35 -33.65 33.1 -33.55 32.95 -33.35 32.7 -33.3 32.6 -33.1 32.3 -32.95 32.05 -32.85 31.9 -32.7 31.65 -32.6 31.5 -32.45 31.3 -32.3 31.15 -32.2 30.95 -32.05 30.8 -31.9 30.6 -31.75 30.45 -31.2 29.85 -30.35 28.95 L-30.35 28.95" fill="#000000" fill-rule="evenodd" stroke="none"/>
    <path d="M13.0 -17.8 Q13.0 -17.75 13.0 -17.75 12.85 -17.7 12.55 -17.65 12.7 -17.7 13.0 -17.8 L13.0 -17.8" fill="#000000" fill-rule="evenodd" stroke="none"/>
    <path d="M24.3 -20.2 Q24.3 -20.2 24.3 -20.2 23.7 -20.15 22.8 -20.0 23.45 -20.1 24.3 -20.2 L24.3 -20.2" fill="#000000" fill-rule="evenodd" stroke="none"/>
    <path d="M-34.05 1.65 Q-34.05 1.6 -34.05 1.55 -34.05 1.55 -34.05 1.5 -34.05 1.45 -34.1 1.4 -34.1 1.35 -34.1 1.35 -34.1 1.3 -34.1 1.25 -34.1 1.2 -34.15 1.15 -34.15 1.1 -34.15 1.05 -34.15 1.05 -34.2 1.0 -34.2 0.95 -34.2 0.85 -34.2 0.75 -34.2 0.7 -34.2 0.6 -34.45 -3.65 -34.3 -1.9 -34.05 1.65 L-34.05 1.65" fill="#000000" fill-rule="evenodd" stroke="none"/>
    <path d="M24.3 -20.2 Q24.3 -20.2 24.3 -20.2 23.7 -20.15 22.8 -20.0 23.45 -20.1 24.3 -20.2 L24.3 -20.2" fill="#000000" fill-rule="evenodd" stroke="none"/>
  </g>
</svg>
