<?xml version="1.0" encoding="UTF-8" standalone="no"?>
<svg xmlns:xlink="http://www.w3.org/1999/xlink" height="157.75px" width="157.9px" xmlns="http://www.w3.org/2000/svg">
  <g transform="matrix(1.0, 0.0, 0.0, 1.0, 78.95, 78.9)">
    <path d="M1.85 -81.15 Q0.5 -81.3 7.7 -80.6 11.25 -80.25 13.65 -79.75 14.8 -79.55 15.9 -79.3 17.0 -79.05 18.1 -78.8 19.25 -78.55 20.3 -78.25 21.45 -77.95 22.5 -77.65 23.6 -77.3 24.7 -76.95 25.8 -76.6 26.85 -76.25 27.9 -75.85 28.95 -75.45 30.05 -75.0 31.05 -74.55 31.6 -74.3 32.15 -74.05 32.7 -73.8 33.2 -73.55 33.75 -73.3 34.3 -73.05 34.8 -72.8 35.35 -72.5 35.85 -72.25 36.4 -71.95 36.9 -71.7 37.4 -71.4 37.95 -71.1 38.45 -70.8 38.95 -70.5 39.45 -70.2 42.95 -68.0 47.7 -64.3 48.1 -64.0 48.5 -63.7 48.85 -63.4 49.25 -63.05 49.65 -62.75 50.0 -62.45 50.4 -62.1 50.75 -61.8 51.1 -61.45 51.5 -61.1 51.85 -60.8 52.2 -60.45 52.6 -60.1 52.95 -59.75 53.3 -59.4 53.65 -59.05 54.35 -58.35 55.05 -57.6 55.75 -56.85 56.4 -56.1 57.05 -55.35 57.65 -54.55 58.3 -53.75 58.9 -52.95 59.5 -52.15 60.05 -51.35 60.65 -50.5 61.2 -49.65 61.7 -48.8 62.25 -47.95 62.75 -47.1 63.25 -46.2 65.35 -42.5 70.45 -33.2 70.5 -33.15 70.55 -33.05 70.55 -33.0 70.6 -32.9 70.65 -32.85 70.7 -32.8 70.7 -32.7 70.75 -32.65 70.75 -32.55 70.8 -32.5 70.8 -32.4 70.85 -32.35 70.85 -32.25 70.85 -32.15 70.9 -32.1 70.9 -32.0 70.9 -31.85 70.9 -31.8 70.9 -31.7 70.95 -31.6 70.95 -31.5 70.95 -31.4 70.95 -31.3 70.95 -31.2 70.95 -31.1 70.9 -31.0 70.9 -30.9 70.9 -30.8 70.85 -30.7 70.8 -30.65 70.75 -30.55 70.7 -30.5 70.65 -30.45 70.6 -30.4 70.5 -30.35 70.4 -30.3 70.35 -30.3 70.25 -30.25 70.15 -30.25 70.05 -30.2 69.9 -30.2 69.8 -30.2 69.7 -30.15 69.6 -30.15 69.5 -30.15 69.4 -30.2 69.3 -30.2 69.2 -30.2 68.05 -30.4 65.55 -30.85 63.2 -31.3 61.9 -31.5 61.3 -31.6 60.7 -31.6 60.15 -31.65 59.55 -31.65 59.0 -31.6 58.4 -31.55 57.85 -31.5 57.25 -31.4 56.7 -31.3 56.15 -31.15 55.6 -31.05 55.0 -30.9 54.5 -30.75 53.9 -30.55 53.45 -30.45 52.8 -30.25 52.5 -30.15 52.2 -30.1 51.9 -30.0 51.65 -29.95 51.35 -29.9 51.05 -29.9 50.8 -29.85 50.5 -29.85 50.2 -29.9 49.95 -29.9 49.65 -29.95 49.4 -30.0 49.1 -30.05 48.8 -30.1 48.55 -30.2 48.25 -30.3 47.4 -30.6 46.55 -30.85 45.7 -31.05 44.85 -31.25 44.0 -31.4 43.1 -31.5 42.25 -31.6 41.35 -31.65 40.55 -31.75 39.6 -31.75 38.8 -31.8 37.85 -31.8 37.1 -31.8 36.1 -31.8 36.15 -31.8 34.3 -31.8 33.35 -31.8 32.4 -31.75 31.45 -31.75 30.55 -31.65 29.6 -31.6 28.7 -31.5 27.75 -31.4 26.85 -31.25 25.95 -31.1 25.05 -30.9 24.1 -30.7 23.25 -30.5 22.3 -30.25 21.45 -29.95 20.55 -29.65 19.65 -29.3 19.55 -29.25 19.45 -29.25 19.4 -29.2 19.25 -29.2 19.2 -29.15 19.05 -29.15 18.95 -29.15 18.85 -29.15 18.75 -29.15 18.65 -29.15 18.55 -29.15 18.4 -29.2 18.3 -29.2 18.2 -29.2 18.1 -29.25 18.0 -29.25 17.15 -29.4 16.0 -29.6 12.55 -30.25 13.95 -30.0 12.8 -30.2 11.9 -30.35 10.8 -30.55 9.9 -30.7 8.8 -30.9 7.85 -31.05 6.75 -31.2 5.75 -31.3 4.7 -31.4 3.7 -31.5 2.6 -31.6 1.6 -31.65 1.6 -31.15 1.6 -30.5 1.85 11.1 2.05 42.15 2.05 42.25 2.1 42.35 2.1 42.45 2.15 42.55 2.15 42.65 2.2 42.8 2.25 42.85 2.3 43.0 2.35 43.05 2.4 43.2 2.45 43.35 2.5 43.4 2.55 43.5 2.6 43.6 2.65 43.75 2.65 43.85 3.25 45.5 3.25 45.95 3.3 48.1 3.35 52.2 3.4 56.45 3.45 58.5 3.45 58.8 3.45 59.15 3.45 59.45 3.5 59.8 3.5 60.1 3.5 60.45 3.55 60.75 3.55 61.1 3.6 61.4 3.6 61.75 3.65 62.05 3.7 62.4 3.7 62.7 3.75 63.05 3.8 63.35 3.85 63.7 3.9 64.0 3.95 64.3 4.05 64.6 4.15 64.9 4.25 65.15 4.35 65.4 4.5 65.7 4.65 65.95 4.8 66.15 5.0 66.4 5.2 66.65 5.4 66.85 5.65 67.1 5.9 67.3 6.15 67.5 6.4 67.7 7.05 68.15 7.7 68.5 8.35 68.85 9.0 69.15 9.7 69.4 10.4 69.6 11.05 69.8 11.75 69.9 12.45 70.0 13.2 70.1 13.85 70.15 14.6 70.15 15.3 70.15 16.05 70.1 16.75 70.05 17.55 70.0 17.95 69.95 18.35 69.85 18.7 69.75 19.05 69.55 19.35 69.4 19.7 69.15 20.0 68.95 20.25 68.7 20.55 68.5 20.8 68.2 21.05 67.95 21.3 67.6 21.55 67.35 21.8 67.0 22.0 66.75 22.25 66.4 22.5 66.05 22.75 65.65 22.95 65.3 23.15 64.9 23.35 64.5 23.5 64.1 23.65 63.7 23.8 63.3 23.9 62.9 24.0 62.45 24.1 62.05 24.15 61.6 24.25 61.2 24.3 60.75 24.35 60.3 24.4 59.85 24.4 59.55 24.5 59.3 24.55 59.05 24.65 58.8 24.75 58.5 24.9 58.3 25.05 58.05 25.25 57.85 25.4 57.65 25.65 57.45 25.85 57.3 26.1 57.15 26.35 57.0 26.6 56.85 26.9 56.75 27.15 56.7 27.45 56.65 27.75 56.6 28.05 56.6 28.35 56.6 28.65 56.6 28.95 56.7 29.25 56.75 29.5 56.85 29.8 56.95 30.05 57.1 30.3 57.25 30.55 57.4 30.75 57.6 30.95 57.8 31.15 58.05 31.25 58.3 31.35 58.45 31.4 58.6 31.5 58.75 31.55 58.9 31.6 59.05 31.65 59.2 31.7 59.35 31.75 59.5 31.8 59.65 31.85 59.8 31.9 59.95 31.9 60.15 31.95 60.3 31.95 60.45 31.95 60.6 31.95 60.75 31.95 61.45 31.9 62.1 31.85 62.8 31.75 63.45 31.65 64.1 31.5 64.75 31.35 65.4 31.15 66.05 30.95 66.7 30.75 67.3 30.5 67.95 30.2 68.55 29.9 69.15 29.55 69.75 29.25 70.35 28.85 70.95 28.65 71.3 28.4 71.6 28.2 71.9 27.95 72.2 27.7 72.5 27.45 72.75 27.2 73.05 26.9 73.3 26.65 73.55 26.35 73.85 26.1 74.1 25.8 74.35 25.5 74.55 25.2 74.8 24.9 75.05 24.6 75.3 23.5 76.15 22.35 76.75 21.2 77.4 20.0 77.85 18.85 78.25 17.65 78.5 16.5 78.75 15.3 78.8 14.1 78.9 12.9 78.8 11.7 78.7 10.45 78.45 9.25 78.25 8.0 77.85 6.8 77.5 5.5 76.95 5.1 76.8 4.75 76.65 4.4 76.5 4.05 76.35 3.65 76.15 3.3 76.0 2.95 75.8 2.6 75.65 2.25 75.45 1.9 75.25 1.55 75.05 1.25 74.85 0.9 74.65 0.55 74.4 0.25 74.2 -0.05 73.95 -0.7 73.4 -1.3 72.85 -1.9 72.3 -2.45 71.7 -3.0 71.05 -3.45 70.45 -3.9 69.75 -4.3 69.1 -4.7 68.4 -5.0 67.65 -5.3 66.95 -5.5 66.15 -5.7 65.4 -5.85 64.6 -5.95 63.75 -6.0 62.95 -6.1 59.5 -6.15 54.35 -6.15 46.1 -6.15 45.75 -6.15 45.55 -6.15 45.4 -6.15 45.2 -6.1 45.05 -6.05 44.9 -6.0 44.7 -5.95 44.55 -5.9 44.4 -5.8 44.25 -5.75 44.1 -5.65 44.0 -5.55 43.85 -5.45 43.7 -5.3 43.6 -5.2 43.5 -5.05 43.35 -4.95 43.25 -4.85 43.2 -4.8 43.1 -4.7 43.05 -4.65 42.95 -4.6 42.85 -4.55 42.75 -4.55 42.65 -4.5 42.6 -4.45 42.45 -4.45 42.4 -4.45 42.25 -4.45 42.15 -4.45 42.05 -4.4 41.95 -4.4 41.85 -4.6 24.75 -5.0 -11.2 -5.05 -19.0 -5.2 -30.7 -5.2 -30.85 -5.25 -31.6 -5.5 -31.6 -7.2 -31.45 -8.35 -31.35 -9.1 -31.2 -11.4 -30.85 -14.95 -30.2 -19.85 -29.35 -20.8 -29.2 -20.9 -29.2 -21.0 -29.15 -21.1 -29.15 -21.15 -29.15 -21.25 -29.15 -21.35 -29.15 -21.45 -29.15 -21.55 -29.15 -21.65 -29.15 -21.75 -29.15 -21.85 -29.15 -21.95 -29.15 -22.0 -29.2 -22.1 -29.2 -22.2 -29.25 -22.25 -29.25 -23.4 -29.75 -24.6 -30.1 -25.75 -30.5 -26.95 -30.75 -28.1 -31.05 -29.35 -31.2 -30.5 -31.4 -31.75 -31.55 -32.95 -31.65 -34.2 -31.7 -35.35 -31.75 -36.65 -31.8 -37.75 -31.8 -39.1 -31.8 -40.1 -31.8 -41.55 -31.8 -42.25 -31.8 -42.9 -31.75 -43.6 -31.7 -44.25 -31.65 -44.9 -31.6 -45.6 -31.5 -46.25 -31.4 -46.9 -31.3 -47.55 -31.15 -48.2 -31.05 -48.85 -30.9 -49.5 -30.7 -50.15 -30.55 -50.8 -30.35 -51.45 -30.2 -52.1 -29.95 -52.2 -29.9 -52.35 -29.9 -52.45 -29.85 -52.6 -29.85 -52.75 -29.85 -52.85 -29.8 -53.0 -29.8 -53.15 -29.8 -53.3 -29.8 -53.4 -29.85 -53.55 -29.85 -53.7 -29.85 -53.85 -29.9 -53.95 -29.9 -54.1 -29.9 -54.25 -29.95 -55.05 -30.1 -57.75 -30.75 -59.95 -31.25 -61.3 -31.5 -61.9 -31.6 -62.5 -31.6 -63.1 -31.65 -63.7 -31.65 -64.3 -31.6 -64.9 -31.55 -65.45 -31.5 -66.1 -31.4 -66.65 -31.3 -67.25 -31.2 -67.8 -31.1 -68.45 -30.95 -68.6 -30.9 -69.65 -30.7 -70.35 -30.5 -70.8 -30.4 -71.0 -30.35 -71.5 -30.25 -71.95 -30.15 -72.2 -30.1 -72.4 -30.1 -72.6 -30.1 -72.75 -30.1 -72.9 -30.15 -73.1 -30.2 -73.2 -30.3 -73.35 -30.35 -73.45 -30.5 -73.55 -30.6 -73.6 -30.7 -73.7 -30.85 -73.7 -31.0 -73.75 -31.15 -73.75 -31.35 -73.7 -31.55 -73.65 -31.7 -73.65 -31.8 -73.6 -31.9 -73.6 -32.0 -73.55 -32.1 -73.55 -32.2 -73.5 -32.25 -73.45 -32.35 -73.45 -32.45 -73.4 -32.55 -73.35 -32.65 -73.35 -32.75 -73.3 -32.85 -73.25 -32.9 -73.2 -33.0 -73.15 -33.1 -73.1 -33.2 -69.5 -39.95 -68.6 -41.45 -67.05 -44.05 -60.95 -53.75 -60.7 -54.2 -59.75 -55.25 -59.25 -55.85 -58.85 -56.25 -58.35 -56.8 -57.9 -57.3 -57.45 -57.8 -57.0 -58.3 -56.5 -58.8 -56.05 -59.25 -55.55 -59.75 -55.05 -60.25 -54.55 -60.7 -54.05 -61.15 -53.5 -61.65 -53.0 -62.05 -52.45 -62.5 -51.9 -62.9 -50.95 -63.65 -48.0 -65.85 -45.55 -67.65 -44.15 -68.75 -43.65 -69.15 -43.05 -69.55 -42.55 -69.9 -41.95 -70.3 -41.4 -70.65 -40.8 -70.95 -40.25 -71.3 -39.65 -71.6 -39.1 -71.9 -38.45 -72.2 -37.9 -72.5 -37.25 -72.8 -36.8 -73.05 -36.05 -73.4 -35.05 -73.85 -34.85 -73.95 -33.85 -74.45 -32.8 -74.9 -31.75 -75.35 -30.7 -75.75 -29.65 -76.15 -28.6 -76.5 -27.55 -76.85 -26.45 -77.2 -25.4 -77.55 -24.3 -77.85 -23.25 -78.15 -22.15 -78.4 -21.05 -78.65 -19.95 -78.9 -18.85 -79.15 -17.75 -79.35 -15.4 -79.8 -5.95 -80.95 -5.8 -80.95 -5.7 -81.0 -5.6 -81.0 -5.5 -81.05 -5.4 -81.1 -5.35 -81.15 -5.25 -81.2 -5.2 -81.25 -5.15 -81.3 -5.1 -81.35 -5.05 -81.45 -5.0 -81.5 -4.95 -81.6 -4.95 -81.7 -4.9 -81.8 -4.9 -81.95 -4.8 -82.45 -2.85 -90.7 -2.8 -90.8 -2.8 -90.9 -2.75 -91.0 -2.7 -91.1 -2.65 -91.2 -2.6 -91.3 -2.55 -91.4 -2.5 -91.45 -2.45 -91.5 -2.35 -91.6 -2.3 -91.65 -2.2 -91.7 -2.1 -91.7 -2.0 -91.75 -1.85 -91.75 -1.75 -91.75 -1.6 -91.75 -1.5 -91.75 -1.4 -91.7 -1.3 -91.7 -1.2 -91.65 -1.1 -91.6 -1.0 -91.55 -0.95 -91.45 -0.9 -91.4 -0.85 -91.3 -0.8 -91.25 -0.75 -91.15 -0.7 -91.05 -0.65 -90.95 -0.65 -90.85 -0.6 -90.7 0.05 -88.15 1.85 -81.15 L1.85 -81.15 M16.95 -31.95 Q16.85 -33.15 16.4 -38.1 16.05 -41.8 15.8 -44.05 15.7 -44.95 15.55 -45.9 15.45 -46.8 15.25 -47.75 15.1 -48.65 14.95 -49.55 14.75 -50.45 14.55 -51.35 14.35 -52.25 14.1 -53.15 13.9 -54.05 13.65 -54.95 13.4 -55.85 13.1 -56.75 12.85 -57.6 12.55 -58.5 12.1 -59.85 11.65 -61.1 11.15 -62.45 10.65 -63.65 10.1 -64.95 9.55 -66.2 8.95 -67.45 8.35 -68.65 7.7 -69.9 7.0 -71.05 6.3 -72.25 5.55 -73.35 4.8 -74.55 3.95 -75.65 3.15 -76.75 2.2 -77.8 2.15 -77.85 2.1 -77.9 2.05 -77.95 2.0 -78.0 1.95 -78.05 1.9 -78.1 1.85 -78.15 1.75 -78.2 1.7 -78.25 1.65 -78.25 1.6 -78.3 1.5 -78.3 1.45 -78.35 1.4 -78.35 1.3 -78.35 1.25 -78.4 -1.4 -78.55 -3.55 -78.55 -3.6 -78.55 -3.7 -78.55 -3.75 -78.55 -3.85 -78.5 -3.95 -78.5 -4.0 -78.45 -4.1 -78.45 -4.15 -78.4 -4.25 -78.35 -4.3 -78.35 -4.35 -78.3 -4.45 -78.25 -4.5 -78.2 -4.55 -78.15 -4.6 -78.1 -4.65 -78.05 -4.85 -77.8 -5.05 -77.55 -5.25 -77.3 -5.45 -77.0 -5.65 -76.75 -5.85 -76.5 -6.05 -76.25 -6.25 -76.0 -6.45 -75.75 -6.65 -75.45 -6.85 -75.2 -7.05 -74.95 -7.25 -74.7 -7.45 -74.4 -7.6 -74.15 -7.8 -73.9 -8.35 -73.15 -8.85 -72.4 -9.3 -71.65 -9.8 -70.85 -10.25 -70.1 -10.65 -69.25 -11.1 -68.5 -11.5 -67.65 -11.9 -66.85 -12.25 -66.0 -12.6 -65.25 -13.0 -64.35 -13.3 -63.55 -13.65 -62.7 -13.95 -61.9 -14.3 -61.0 -14.85 -59.55 -15.35 -58.05 -15.85 -56.6 -16.25 -55.05 -16.65 -53.6 -17.0 -52.05 -17.35 -50.55 -17.65 -49.0 -17.95 -47.5 -18.15 -45.95 -18.4 -44.45 -18.6 -42.85 -18.75 -41.35 -18.9 -39.8 -19.05 -38.25 -19.15 -36.65 -19.2 -36.0 -19.5 -31.9 -15.95 -32.8 -15.85 -32.85 -15.1 -33.0 -14.0 -33.15 -40.7 -28.45 -12.2 -33.5 -11.1 -33.7 -10.35 -33.8 -9.35 -33.95 -8.5 -34.1 -7.55 -34.25 -6.7 -34.35 -5.7 -34.45 -4.85 -34.5 -3.9 -34.6 -3.0 -34.6 -2.05 -34.6 -1.1 -34.55 1.55 -34.45 5.15 -34.0 4.3 -34.1 11.4 -33.15 12.45 -33.0 14.05 -32.6 16.95 -31.95 16.95 -31.95 L16.95 -31.95 M-21.95 -31.65 Q-21.95 -31.9 -21.85 -32.95 -21.85 -33.05 -21.25 -39.65 -20.9 -43.65 -20.5 -46.3 -20.25 -48.15 -19.9 -49.95 -19.55 -51.75 -19.15 -53.55 -18.7 -55.35 -18.2 -57.1 -17.7 -58.85 -17.1 -60.55 -16.5 -62.3 -15.8 -64.0 -15.1 -65.7 -14.3 -67.35 -13.5 -69.0 -12.6 -70.65 -11.7 -72.25 -10.75 -73.85 -10.7 -73.9 -8.4 -77.45 -9.1 -77.3 -10.0 -77.05 -10.55 -76.95 -11.6 -76.7 -12.7 -76.5 -13.15 -76.35 -14.05 -76.15 -14.75 -76.0 -15.6 -75.8 -16.3 -75.6 -17.1 -75.4 -17.85 -75.15 -18.65 -74.9 -19.35 -74.65 -20.15 -74.35 -20.85 -74.0 -21.5 -73.7 -22.1 -73.45 -22.75 -73.15 -23.3 -72.9 -23.95 -72.6 -24.5 -72.3 -25.15 -72.0 -25.7 -71.7 -26.3 -71.4 -26.9 -71.05 -27.5 -70.75 -28.05 -70.4 -28.6 -70.0 -29.15 -69.65 -29.75 -69.25 -30.25 -68.85 -31.05 -68.25 -31.8 -67.65 -32.6 -67.05 -33.3 -66.4 -34.05 -65.8 -34.8 -65.1 -35.5 -64.45 -36.15 -63.8 -36.85 -63.1 -37.5 -62.4 -38.15 -61.65 -38.75 -60.9 -39.4 -60.15 -39.95 -59.4 -40.55 -58.6 -41.1 -57.8 -44.85 -52.25 -46.8 -48.4 -47.2 -47.65 -47.55 -46.8 -47.9 -46.05 -48.2 -45.2 -48.5 -44.4 -48.8 -43.55 -49.05 -42.75 -49.3 -41.9 -49.5 -41.1 -49.7 -40.2 -49.9 -39.4 -50.1 -38.5 -50.25 -37.75 -50.45 -36.8 -50.6 -36.1 -50.8 -35.1 -50.95 -34.3 -51.2 -33.0 -50.3 -33.3 -49.35 -33.55 -48.45 -33.75 -47.5 -33.95 -46.6 -34.1 -45.65 -34.2 -44.75 -34.3 -43.8 -34.35 -42.95 -34.4 -41.95 -34.45 -41.1 -34.45 -40.1 -34.45 -39.35 -34.45 -38.25 -34.45 -60.5 -34.7 -36.4 -34.45 -35.4 -34.45 -34.55 -34.4 -33.6 -34.4 -32.7 -34.3 -31.75 -34.25 -30.9 -34.15 -29.95 -34.05 -29.05 -33.9 -28.15 -33.75 -27.25 -33.55 -26.35 -33.35 -25.5 -33.1 -24.55 -32.8 -23.7 -32.45 -22.8 -32.1 -21.95 -31.65 L-21.95 -31.65 M48.6 -33.0 Q48.45 -33.65 48.05 -35.55 47.75 -37.1 47.55 -38.0 47.35 -38.85 47.2 -39.6 47.0 -40.4 46.8 -41.15 46.6 -42.0 46.35 -42.75 46.15 -43.55 45.9 -44.25 45.65 -45.05 45.35 -45.8 45.05 -46.55 44.75 -47.3 44.4 -48.05 44.05 -48.75 43.65 -49.5 43.25 -50.2 39.95 -55.9 37.55 -59.15 36.95 -59.95 36.35 -60.75 35.7 -61.5 35.05 -62.25 34.4 -63.0 33.7 -63.7 33.0 -64.45 32.3 -65.1 31.55 -65.8 30.8 -66.45 30.05 -67.1 29.3 -67.7 28.5 -68.35 27.65 -68.9 26.85 -69.5 26.0 -70.0 25.5 -70.35 24.95 -70.65 24.4 -71.0 23.9 -71.3 23.35 -71.6 22.8 -71.9 22.25 -72.2 21.7 -72.5 21.15 -72.75 20.55 -73.05 20.0 -73.3 19.45 -73.55 18.85 -73.8 18.3 -74.05 17.7 -74.25 17.15 -74.5 14.95 -75.3 11.5 -76.15 4.6 -77.9 5.65 -77.65 6.2 -76.8 7.0 -75.6 8.0 -74.1 8.2 -73.75 8.6 -73.15 8.95 -72.55 9.3 -71.95 9.65 -71.3 10.0 -70.7 10.35 -70.05 10.65 -69.4 11.0 -68.75 11.3 -68.15 11.6 -67.5 11.85 -66.85 12.15 -66.2 12.45 -65.55 12.75 -64.85 13.0 -64.25 13.3 -63.55 13.95 -61.95 14.55 -60.25 15.1 -58.65 15.6 -56.95 16.1 -55.3 16.5 -53.6 16.9 -51.95 17.25 -50.2 17.55 -48.55 17.85 -46.8 18.1 -45.1 18.3 -43.35 18.5 -41.65 18.7 -39.9 18.85 -38.2 18.95 -36.4 19.0 -35.85 19.3 -31.65 20.15 -32.1 21.05 -32.45 21.95 -32.8 22.85 -33.1 23.7 -33.35 24.65 -33.55 25.55 -33.75 26.45 -33.9 27.35 -34.05 28.3 -34.15 29.15 -34.25 30.1 -34.3 31.0 -34.35 31.95 -34.4 32.8 -34.45 33.8 -34.45 38.0 -34.5 35.65 -34.45 36.7 -34.5 37.5 -34.5 38.5 -34.45 39.35 -34.45 40.35 -34.4 41.2 -34.35 42.15 -34.3 43.05 -34.2 44.0 -34.1 44.9 -33.9 45.85 -33.75 46.75 -33.5 47.7 -33.3 48.6 -33.0 L48.6 -33.0 M-25.95 -74.55 Q-26.0 -74.6 -26.1 -74.65 -26.45 -74.5 -27.3 -74.15 -28.1 -73.85 -28.55 -73.7 -29.1 -73.5 -30.0 -73.15 -31.4 -72.65 -31.4 -72.65 -32.2 -72.3 -32.8 -72.1 -33.6 -71.8 -34.25 -71.5 -34.95 -71.2 -35.6 -70.9 -36.35 -70.55 -37.0 -70.25 -37.65 -69.85 -38.3 -69.5 -38.95 -69.05 -39.6 -68.65 -40.55 -67.95 -43.3 -66.1 -45.65 -64.5 -47.0 -63.5 -48.9 -62.05 -53.45 -58.1 -54.1 -57.55 -54.7 -56.95 -55.3 -56.4 -55.9 -55.75 -56.45 -55.15 -57.0 -54.55 -57.55 -53.9 -58.1 -53.25 -58.6 -52.65 -59.1 -51.95 -59.6 -51.3 -60.1 -50.6 -60.55 -49.9 -61.0 -49.2 -61.45 -48.5 -61.9 -47.8 -62.0 -47.65 -69.75 -34.1 -69.8 -34.0 -69.9 -33.8 -70.0 -33.6 -69.95 -33.6 -72.1 -33.4 -65.9 -34.0 -63.45 -34.2 -61.8 -34.2 -61.3 -34.2 -60.8 -34.15 -60.3 -34.1 -59.75 -34.05 -59.25 -34.0 -58.75 -33.9 -58.25 -33.8 -57.75 -33.7 -57.25 -33.6 -56.75 -33.45 -56.25 -33.3 -55.75 -33.15 -55.3 -33.0 -54.8 -32.8 -54.3 -32.65 -53.8 -32.45 -53.25 -35.2 -52.95 -36.5 -52.75 -37.55 -52.55 -38.45 -52.35 -39.5 -52.1 -40.4 -51.85 -41.4 -51.6 -42.35 -51.35 -43.35 -51.05 -44.25 -50.75 -45.25 -50.4 -46.15 -50.05 -47.1 -49.65 -48.0 -49.3 -48.95 -48.85 -49.8 -48.4 -50.75 -47.9 -51.6 -44.75 -56.95 -43.2 -59.15 -42.65 -59.9 -42.1 -60.65 -41.55 -61.35 -41.0 -62.05 -40.4 -62.8 -39.8 -63.45 -39.2 -64.15 -38.55 -64.85 -37.95 -65.5 -37.3 -66.15 -36.6 -66.8 -35.95 -67.4 -35.25 -68.05 -34.55 -68.65 -33.85 -69.25 -33.1 -69.8 -31.95 -70.7 -30.1 -71.9 -26.35 -74.2 -26.95 -73.85 -26.75 -74.0 -25.95 -74.55 L-25.95 -74.55 M67.35 -33.3 Q67.4 -33.4 67.55 -33.6 67.85 -33.1 63.2 -41.15 60.6 -45.7 58.75 -48.65 58.25 -49.45 57.7 -50.25 57.15 -51.05 56.6 -51.85 56.0 -52.6 55.4 -53.35 54.8 -54.1 54.15 -54.8 53.5 -55.55 52.85 -56.25 52.2 -56.9 51.5 -57.6 50.8 -58.25 50.05 -58.95 49.35 -59.6 48.6 -60.2 45.45 -63.0 43.65 -64.2 37.5 -68.45 34.4 -70.15 32.75 -71.05 30.15 -72.05 25.05 -74.0 25.8 -73.7 25.05 -74.0 23.4 -74.7 26.45 -72.9 29.15 -70.85 31.85 -68.8 34.2 -66.55 36.55 -64.3 38.6 -61.85 40.65 -59.4 42.35 -56.75 44.05 -54.1 45.45 -51.25 46.85 -48.4 47.95 -45.35 49.05 -42.3 49.85 -39.05 50.6 -35.85 51.1 -32.4 52.1 -32.8 53.1 -33.1 54.15 -33.4 55.15 -33.65 56.15 -33.9 57.15 -34.0 58.2 -34.15 59.2 -34.2 60.2 -34.25 61.25 -34.25 62.25 -34.2 63.25 -34.1 64.3 -34.0 65.3 -33.8 66.35 -33.6 67.35 -33.3 L67.35 -33.3 M1.5 52.65 Q1.5 52.65 1.55 52.6 1.5 45.8 1.5 45.75 1.5 45.7 1.5 45.6 1.5 45.55 1.5 45.5 1.45 45.4 1.45 45.35 1.45 45.3 1.4 45.2 1.4 45.15 1.35 45.1 1.35 45.0 1.3 44.95 1.25 44.9 1.2 44.85 1.15 44.8 1.15 44.75 0.95 44.55 0.7 44.35 0.4 44.15 0.1 44.05 -0.15 43.9 -0.5 43.8 -0.8 43.75 -1.15 43.7 -1.45 43.7 -1.8 43.7 -2.1 43.75 -2.4 43.8 -2.75 43.9 -3.0 44.05 -3.3 44.2 -3.55 44.4 -3.6 44.45 -3.7 44.55 -3.75 44.6 -3.85 44.7 -3.9 44.75 -4.0 44.85 -4.05 44.95 -4.1 45.05 -4.15 45.15 -4.2 45.25 -4.25 45.35 -4.3 45.45 -4.3 45.55 -4.35 45.65 -4.35 45.75 -4.35 45.85 -4.35 57.4 -4.2 63.2 -4.2 63.9 -4.05 64.55 -3.95 65.25 -3.75 65.85 -3.6 66.5 -3.3 67.1 -3.05 67.7 -2.75 68.3 -2.4 68.85 -2.05 69.4 -1.65 69.9 -1.2 70.45 -0.8 70.9 -0.3 71.4 0.2 71.85 0.7 72.3 1.25 72.75 1.9 73.2 2.5 73.6 3.15 73.95 3.8 74.3 4.45 74.6 5.1 74.9 5.85 75.2 6.5 75.45 7.25 75.7 7.9 75.9 8.65 76.1 9.35 76.3 10.1 76.5 10.75 76.65 11.55 76.85 12.1 77.0 12.7 77.05 13.25 77.15 13.8 77.15 14.35 77.15 14.95 77.1 15.45 77.05 16.05 76.95 16.55 76.9 17.1 76.75 17.65 76.6 18.2 76.45 18.7 76.3 19.25 76.1 19.75 75.9 20.3 75.65 20.7 75.5 21.1 75.3 21.5 75.1 21.85 74.9 22.25 74.7 22.6 74.5 23.0 74.3 23.35 74.05 23.7 73.85 24.05 73.6 24.35 73.35 24.7 73.05 25.0 72.8 25.3 72.5 25.6 72.2 25.9 71.9 26.45 71.3 26.9 70.65 27.4 70.0 27.8 69.35 28.2 68.7 28.5 68.0 28.85 67.3 29.15 66.6 29.4 65.85 29.6 65.15 29.8 64.4 29.95 63.65 30.1 62.85 30.15 62.1 30.25 61.3 30.25 60.5 30.25 60.3 30.2 60.1 30.15 59.9 30.1 59.7 30.0 59.5 29.9 59.35 29.75 59.15 29.65 59.0 29.5 58.85 29.3 58.75 29.15 58.6 28.95 58.5 28.8 58.4 28.6 58.35 28.4 58.3 28.2 58.3 28.0 58.3 27.8 58.3 27.65 58.35 27.45 58.4 27.3 58.5 27.15 58.6 26.95 58.7 26.85 58.8 26.7 58.95 26.55 59.1 26.45 59.25 26.35 59.45 26.3 59.65 26.2 59.8 26.15 60.05 26.15 60.25 26.1 61.0 25.95 61.7 25.85 62.45 25.65 63.1 25.5 63.8 25.25 64.5 25.0 65.15 24.7 65.75 24.4 66.4 24.0 67.0 23.65 67.6 23.2 68.15 22.7 68.7 22.2 69.2 21.65 69.7 21.05 70.2 20.85 70.35 20.7 70.45 20.5 70.6 20.3 70.75 20.1 70.85 19.9 71.0 19.7 71.1 19.5 71.25 19.3 71.35 19.1 71.45 18.9 71.55 18.7 71.65 18.5 71.7 18.3 71.8 18.05 71.85 17.85 71.85 17.2 71.95 16.5 72.0 15.85 72.05 15.15 72.1 14.5 72.1 13.85 72.05 13.2 72.0 12.55 71.9 11.9 71.8 11.25 71.65 10.6 71.55 9.95 71.35 9.3 71.15 8.7 70.9 8.05 70.65 7.4 70.35 6.7 70.0 6.1 69.65 5.45 69.25 4.95 68.8 4.4 68.4 4.0 67.9 3.55 67.4 3.2 66.85 2.85 66.35 2.6 65.75 2.3 65.15 2.15 64.5 1.95 63.85 1.85 63.1 1.8 62.4 1.8 61.65 1.8 61.5 1.5 52.65 L1.5 52.65 M0.3 42.05 Q0.1 17.55 -0.2 -31.65 -1.35 -31.65 -3.4 -31.65 -3.15 -7.6 -2.65 42.05 -1.65 42.05 0.3 42.05 L0.3 42.05 M-1.55 -88.05 Q-1.65 -88.05 -1.9 -88.05 -2.4 -85.8 -3.35 -81.15 -2.15 -81.15 -0.1 -81.15 -0.6 -83.55 -1.55 -88.05 L-1.55 -88.05" fill="#000000" fill-rule="evenodd" stroke="none"/>
    <path d="M-5.25 46.35 Q-4.8 55.9 -5.1 61.2 -5.1 61.6 -5.1 61.6 -5.15 61.85 -5.15 62.05 -5.15 62.3 -5.15 62.6 -5.1 62.9 -5.1 63.2 -5.1 63.55 -5.05 63.85 -5.0 64.25 -4.95 64.6 -4.85 65.0 -4.75 65.35 -4.65 65.8 -4.55 66.2 -4.4 66.6 -4.25 67.0 -4.1 67.4 -3.9 67.75 -3.7 68.1 -3.5 68.45 -3.35 68.75 -3.15 69.05 -2.95 69.35 -2.75 69.6 -2.6 69.85 -2.4 70.1 -2.2 70.3 -2.05 70.5 -1.9 70.65 -1.7 70.9 -1.2 71.5 -0.65 72.05 -0.1 72.55 0.45 73.0 0.95 73.4 1.55 73.8 2.05 74.15 2.6 74.5 3.1 74.8 3.6 75.05 4.05 75.3 4.55 75.55 4.95 75.7 5.35 75.9 5.65 76.05 6.1 76.2 6.55 76.4 6.9 76.5 7.35 76.7 7.75 76.85 8.25 77.0 8.75 77.15 9.3 77.35 9.8 77.45 10.4 77.6 11.0 77.7 11.6 77.8 12.25 77.85 12.95 77.95 13.6 77.95 14.35 77.95 15.05 77.9 15.3 77.9 15.45 77.85 15.75 77.85 16.05 77.8 16.45 77.75 16.85 77.65 17.3 77.55 17.75 77.45 18.3 77.35 18.8 77.2 19.35 77.0 19.95 76.8 20.55 76.55 21.15 76.3 21.8 76.0 22.4 75.65 22.65 75.5 22.9 75.4 23.2 75.25 23.45 75.05 23.75 74.9 24.05 74.7 24.4 74.45 24.75 74.2 25.1 73.95 25.45 73.65 25.8 73.35 26.15 73.05 26.55 72.7 26.9 72.3 27.25 71.9 27.6 71.45 28.0 70.95 28.35 70.45 28.7 69.95 28.95 69.45 29.25 68.95 29.45 68.45 29.7 67.95 29.85 67.45 30.05 66.95 30.2 66.4 30.35 65.9 30.5 65.35 30.6 64.9 30.75 64.3 30.85 63.95 31.0 63.2 31.1 62.65 31.2 62.2 31.25 61.75 31.3 61.35 31.35 60.95 31.35 60.65 31.35 60.3 31.3 60.05 31.3 59.75 31.25 59.55 31.2 59.3 31.1 59.15 31.05 58.95 30.95 58.8 30.85 58.65 30.75 58.5 30.6 58.35 30.45 58.2 30.3 58.05 30.15 57.95 30.0 57.85 29.85 57.75 29.7 57.65 29.5 57.6 29.4 57.55 29.25 57.5 29.1 57.45 29.0 57.4 28.9 57.4 28.85 57.4 28.8 57.35 28.75 57.35 28.35 57.3 28.65 57.35 28.55 57.3 28.45 57.3 28.3 57.3 28.2 57.3 28.05 57.3 27.9 57.3 27.7 57.3 27.55 57.35 27.35 57.35 27.2 57.4 27.0 57.45 26.85 57.55 26.65 57.65 26.45 57.75 26.3 57.85 26.2 57.95 26.05 58.1 25.95 58.2 25.85 58.35 25.75 58.5 25.7 58.65 25.6 58.8 25.55 58.95 25.5 59.15 25.45 59.3 25.35 59.5 25.3 59.65 25.25 59.85 25.25 60.0 25.15 60.25 24.65 62.35 24.35 63.9 24.15 64.8 24.0 65.15 23.85 65.6 23.65 66.1 23.4 66.5 23.15 66.95 22.9 67.35 22.55 67.75 22.25 68.15 21.9 68.5 21.55 68.85 21.15 69.15 20.8 69.45 20.4 69.75 20.0 70.0 19.55 70.25 19.15 70.45 18.75 70.6 18.45 70.75 18.1 70.8 17.8 70.9 17.5 71.0 17.2 71.05 16.9 71.1 16.6 71.1 16.3 71.15 16.0 71.15 15.7 71.15 15.45 71.15 15.1 71.15 14.85 71.15 14.5 71.1 14.25 71.1 13.85 71.05 13.35 71.0 13.0 71.0 12.55 70.95 12.15 70.9 11.65 70.85 11.2 70.8 10.7 70.7 10.2 70.6 9.7 70.45 9.2 70.25 8.65 70.1 8.2 69.85 7.65 69.6 7.15 69.3 6.65 68.95 6.15 68.55 5.75 68.2 5.4 67.85 5.05 67.5 4.75 67.15 4.5 66.8 4.25 66.45 4.05 66.1 3.85 65.75 3.65 65.45 3.5 65.1 3.35 64.85 3.25 64.55 3.15 64.35 3.05 64.1 3.0 64.0 2.95 63.8 2.9 63.6 2.85 63.45 2.8 63.25 2.75 63.05 2.7 62.85 2.65 62.6 2.6 62.35 2.6 62.05 2.55 61.75 2.55 61.4 2.55 61.0 2.5 60.55 2.5 60.05 2.5 59.5 2.5 58.9 2.5 58.2 2.45 50.5 2.35 47.35 2.35 46.9 2.3 46.6 2.3 46.25 2.25 45.95 2.25 45.65 2.2 45.4 2.15 45.1 2.1 44.9 2.05 44.65 2.0 44.45 1.95 44.25 1.85 44.05 1.75 43.9 1.6 43.75 1.5 43.55 1.35 43.4 1.15 43.2 0.9 43.05 0.6 42.9 0.35 42.75 0.05 42.65 -0.3 42.6 -0.6 42.5 -0.95 42.5 -1.3 42.45 -1.6 42.5 -1.95 42.5 -2.3 42.6 -2.65 42.7 -2.95 42.85 -3.25 43.0 -3.55 43.2 -3.85 43.4 -4.05 43.65 -4.3 43.85 -4.45 44.1 -4.6 44.35 -4.75 44.6 -4.85 44.8 -4.95 45.05 -5.05 45.3 -5.1 45.5 -5.15 45.7 -5.2 45.9 -5.2 46.05 -5.25 46.15 -5.25 46.25 -5.25 46.35 L-5.25 46.35" fill="#000000" fill-opacity="0.70980394" fill-rule="evenodd" stroke="none"/>
    <path d="M-4.0 -32.45 L1.05 -32.45 1.05 44.5 -4.0 44.5 -4.0 -32.45 -4.0 -32.45" fill="#000000" fill-opacity="0.6117647" fill-rule="evenodd" stroke="none"/>
  </g>
</svg>
