<?xml version="1.0" encoding="UTF-8" standalone="no"?>
<svg xmlns:xlink="http://www.w3.org/1999/xlink" height="235.25px" width="88.45px" xmlns="http://www.w3.org/2000/svg">
  <g transform="matrix(1.0, 0.0, 0.0, 1.0, 44.2, 117.6)">
    <path d="M61.2 70.25 Q60.15 61.6 58.2 50.35 57.6 46.85 54.65 30.5 54.15 27.9 53.8 25.95 53.4 23.45 53.05 21.35 52.65 18.95 52.3 16.8 51.95 14.4 51.7 12.2 51.4 9.8 51.15 7.6 50.9 5.25 50.75 3.0 50.6 0.65 50.55 -1.6 50.5 -4.0 50.5 -6.25 50.85 -34.5 50.25 -54.9 50.15 -57.75 50.0 -60.5 49.8 -63.3 49.5 -66.05 49.2 -68.85 48.8 -71.6 48.4 -74.4 47.85 -77.15 47.3 -79.9 46.65 -82.6 45.95 -85.4 45.15 -88.1 44.35 -90.85 43.4 -93.55 42.45 -96.25 41.35 -98.95 40.95 -99.9 40.5 -100.85 40.05 -101.8 39.6 -102.7 39.1 -103.6 38.55 -104.5 38.0 -105.45 37.4 -106.3 36.8 -107.2 36.2 -108.05 35.55 -108.95 34.85 -109.8 34.15 -110.65 33.45 -111.45 32.7 -112.3 31.9 -113.1 31.85 -113.25 31.75 -113.4 31.7 -113.55 31.6 -113.7 31.5 -113.85 31.4 -114.05 31.3 -114.2 31.2 -114.35 31.1 -114.5 30.95 -114.7 30.85 -114.85 30.7 -115.0 30.55 -115.15 30.4 -115.35 30.25 -115.5 30.05 -115.65 29.65 -116.0 29.15 -116.35 28.75 -116.6 28.25 -116.85 27.85 -117.05 27.4 -117.2 26.95 -117.3 26.55 -117.4 26.15 -117.5 25.75 -117.55 25.4 -117.6 25.1 -117.6 24.8 -117.6 24.55 -117.6 24.35 -117.6 24.15 -117.6 23.7 -117.55 23.3 -117.5 22.9 -117.4 22.45 -117.3 22.05 -117.2 21.65 -117.05 21.3 -116.85 20.9 -116.65 20.5 -116.45 20.15 -116.2 19.8 -116.0 19.45 -115.7 19.1 -115.45 18.8 -115.1 18.45 -114.8 18.15 -114.45 18.1 -114.4 18.0 -114.35 17.95 -114.3 17.85 -114.25 17.75 -114.15 17.65 -114.1 17.6 -114.0 17.5 -113.95 17.4 -113.85 17.3 -113.8 17.2 -113.7 17.05 -113.65 16.95 -113.55 16.85 -113.45 16.75 -113.35 16.6 -113.25 16.35 -113.05 16.1 -112.85 15.8 -112.55 15.45 -112.25 15.0 -111.9 14.6 -111.5 14.1 -111.05 13.6 -110.55 13.0 -110.0 12.45 -109.4 11.85 -108.8 11.25 -108.1 10.6 -107.4 10.0 -106.6 9.3 -105.8 8.65 -104.95 8.05 -104.15 7.45 -103.3 6.9 -102.5 6.35 -101.65 5.85 -100.85 5.35 -100.05 4.9 -99.25 4.45 -98.45 4.05 -97.75 3.65 -96.95 3.3 -96.3 2.95 -95.55 2.6 -94.9 2.3 -94.2 2.0 -93.65 1.7 -93.0 1.05 -91.6 0.45 -90.15 -0.1 -88.7 -0.65 -87.25 -1.15 -85.8 -1.6 -84.3 -2.05 -82.85 -2.45 -81.35 -2.85 -79.9 -3.15 -78.4 -3.5 -76.9 -3.8 -75.4 -4.05 -73.9 -4.25 -72.4 -4.45 -70.9 -4.65 -69.4 -5.65 -59.55 -6.45 -45.15 -8.2 -13.65 -7.75 -20.85 -7.7 -20.85 -6.4 -20.8 -6.2 -25.35 -7.2 -1.0 -7.65 10.75 -8.35 18.75 -8.5 20.2 -8.7 21.75 -8.85 23.2 -9.1 24.75 -9.35 26.15 -9.65 27.7 -9.9 29.15 -10.25 30.7 -10.5 32.05 -10.85 33.7 -11.15 34.9 -11.5 36.65 -13.7 46.4 -12.2 39.65 -12.6 41.35 -12.85 42.6 -13.3 44.75 -14.15 48.55 -15.1 52.8 -15.5 54.5 -16.2 57.85 -16.75 60.45 -17.45 63.65 -18.0 66.4 -18.6 69.55 -19.1 72.35 -19.6 75.45 -20.0 78.35 -20.45 81.45 -20.75 84.35 -21.1 87.45 -21.25 90.35 -21.3 90.9 -21.3 91.35 -21.35 91.9 -21.35 92.4 -21.4 92.95 -21.4 93.4 -21.4 93.95 -21.4 94.45 -21.35 94.95 -21.35 95.45 -21.3 96.0 -21.25 96.5 -21.2 97.0 -21.15 97.5 -21.05 98.0 -20.95 98.5 -20.75 99.55 -20.35 100.55 -20.0 101.5 -19.5 102.45 -18.95 103.35 -18.3 104.15 -17.6 105.0 -16.8 105.75 -16.0 106.5 -15.05 107.15 -14.15 107.8 -13.05 108.35 -12.0 108.95 -10.85 109.4 -9.65 109.9 -8.4 110.25 -7.7 110.45 -7.0 110.7 -6.4 110.95 -5.75 111.2 -5.15 111.45 -4.55 111.8 -4.05 112.05 -3.45 112.4 -2.95 112.65 -2.4 113.0 -1.95 113.3 -1.35 113.7 -1.25 113.75 -0.35 114.35 0.3 114.75 0.7 115.0 2.05 115.85 3.5 116.65 4.95 117.4 6.45 118.05 7.9 118.7 9.5 119.3 11.0 119.85 12.65 120.35 14.2 120.8 15.9 121.25 17.5 121.65 19.2 122.05 20.8 122.4 22.6 122.75 24.15 123.05 26.0 123.4 29.15 123.95 33.95 125.1 40.85 126.7 41.9 126.95 47.35 128.15 50.5 128.5 50.65 128.5 50.85 128.5 51.0 128.5 51.2 128.45 51.4 128.4 51.6 128.35 51.75 128.3 51.95 128.2 52.15 128.15 52.35 128.05 52.5 127.95 52.7 127.85 52.85 127.75 53.05 127.6 53.2 127.5 53.3 127.4 53.35 127.35 53.35 127.3 53.35 127.25 53.3 127.15 53.3 127.05 53.2 126.9 53.15 126.8 53.05 126.65 53.0 126.5 52.9 126.35 52.75 126.25 52.65 126.1 52.55 125.95 52.4 125.85 52.3 125.75 52.2 125.7 50.95 124.85 49.85 123.9 48.75 122.95 47.85 121.95 46.95 121.0 46.25 119.9 45.5 118.9 44.95 117.8 44.35 116.7 43.95 115.55 43.5 114.45 43.2 113.25 42.9 112.1 42.65 110.85 42.45 109.7 42.35 108.45 42.35 108.35 42.35 108.2 42.4 108.05 42.45 107.9 42.5 107.75 42.6 107.55 42.7 107.4 42.8 107.25 42.9 107.1 43.05 107.0 43.15 106.85 43.3 106.75 43.45 106.6 43.6 106.55 43.75 106.45 43.9 106.4 45.8 105.85 47.45 105.15 49.1 104.5 50.55 103.65 51.95 102.85 53.15 101.9 54.35 101.0 55.4 99.95 56.35 98.9 57.15 97.75 57.95 96.6 58.55 95.35 59.15 94.1 59.6 92.75 60.0 91.45 60.25 90.05 60.45 88.8 60.65 87.6 60.85 86.35 61.0 85.1 61.15 83.85 61.25 82.65 61.35 81.35 61.45 80.15 61.5 78.85 61.55 77.65 61.55 76.4 61.5 75.15 61.5 73.9 61.4 72.7 61.3 71.45 61.2 70.25 L61.2 70.25 M33.7 -104.95 Q33.55 -104.8 33.4 -104.65 33.25 -104.5 33.1 -104.4 32.95 -104.35 32.8 -104.25 32.65 -104.2 32.5 -104.2 32.35 -104.15 32.2 -104.2 32.05 -104.2 31.9 -104.25 31.75 -104.3 31.55 -104.4 31.4 -104.45 31.2 -104.6 30.95 -104.8 30.75 -105.05 30.55 -105.25 30.4 -105.5 30.25 -105.75 30.15 -106.05 30.0 -106.25 29.9 -106.55 29.8 -106.75 29.7 -107.1 29.5 -107.55 29.5 -107.65 29.35 -107.95 29.25 -108.2 29.15 -108.5 29.0 -108.75 29.05 -108.85 29.15 -109.0 29.2 -109.1 29.3 -109.25 29.45 -109.45 29.5 -109.5 29.55 -109.65 29.65 -109.75 29.75 -109.9 29.8 -110.0 29.9 -110.15 30.0 -110.25 30.1 -110.4 30.2 -110.45 30.3 -110.55 30.35 -110.65 30.85 -110.7 31.35 -110.5 31.85 -110.35 32.25 -110.0 32.65 -109.7 33.0 -109.25 33.35 -108.85 33.6 -108.35 33.85 -107.85 34.0 -107.35 34.1 -106.85 34.15 -106.4 34.15 -105.9 34.05 -105.55 33.95 -105.15 33.7 -104.95 L33.7 -104.95 M28.0 23.4 Q27.8 23.35 27.65 23.2 27.45 23.1 27.25 22.95 27.1 22.8 26.9 22.65 26.75 22.5 26.55 22.3 26.45 22.15 26.2 21.9 25.95 21.65 25.85 21.55 25.65 21.35 25.5 21.2 25.3 21.0 25.15 20.9 25.55 19.8 26.1 18.95 26.6 18.15 27.15 17.65 27.7 17.15 28.3 16.9 28.9 16.7 29.45 16.7 30.0 16.75 30.45 17.0 30.95 17.25 31.3 17.65 31.65 18.1 31.8 18.65 32.0 19.25 32.0 19.9 32.1 20.4 32.05 20.85 32.0 21.3 31.85 21.65 31.7 22.05 31.45 22.35 31.25 22.65 30.95 22.85 30.65 23.1 30.3 23.25 29.95 23.4 29.55 23.45 29.2 23.55 28.8 23.5 28.4 23.5 28.0 23.4 L28.0 23.4 M28.1 79.55 Q27.9 80.55 27.75 81.6 27.65 82.55 27.55 83.6 27.45 84.6 27.45 85.65 27.4 86.6 27.35 87.7 27.35 88.65 27.35 89.8 27.35 90.5 27.35 91.85 27.4 93.25 27.4 93.95 27.4 95.15 27.35 96.1 25.85 94.55 23.2 91.85 22.8 92.0 22.25 92.2 22.5 92.9 23.5 96.05 23.2 96.15 22.5 96.3 22.1 95.75 21.8 95.35 21.5 94.9 21.3 94.55 21.1 94.25 20.95 93.95 20.85 93.7 20.75 93.45 20.65 93.2 20.6 92.95 20.55 92.75 20.55 92.45 20.5 92.3 20.45 91.9 20.45 91.5 20.4 91.25 20.25 90.5 20.25 89.7 20.25 89.0 20.3 88.2 20.4 87.5 20.55 86.7 20.7 86.0 20.9 85.25 21.1 84.6 21.35 83.8 21.55 83.2 21.85 82.35 22.3 81.05 22.4 80.85 22.65 80.05 22.85 79.4 22.45 80.45 25.55 71.9 27.15 67.45 28.6 64.4 28.3 63.7 29.9 67.2 30.65 68.8 31.1 69.9 31.7 71.4 32.15 72.6 32.6 74.05 32.85 75.3 33.15 76.7 33.2 77.95 33.25 79.35 33.0 80.6 32.8 82.0 32.2 83.3 31.6 84.65 30.65 85.95 30.25 86.0 29.6 86.0 L29.6 79.55 Q29.1 79.55 28.1 79.55 L28.1 79.55 M28.85 62.2 Q28.35 62.2 27.95 62.15 27.55 62.05 27.25 61.9 26.95 61.75 26.7 61.5 26.45 61.3 26.3 61.05 26.15 60.8 26.05 60.5 25.9 60.2 25.85 59.9 25.8 59.6 25.75 59.25 25.7 59.0 25.65 58.65 25.6 58.35 25.65 58.05 25.65 57.75 25.7 57.5 25.75 57.2 25.85 56.9 25.95 56.65 26.1 56.4 26.3 56.15 26.5 55.95 26.7 55.75 27.0 55.65 27.3 55.5 27.65 55.4 28.0 55.35 28.45 55.35 28.95 55.35 29.35 55.45 29.75 55.55 30.05 55.75 30.3 55.9 30.55 56.15 30.75 56.35 30.9 56.7 31.05 56.95 31.2 57.3 31.3 57.5 31.5 58.0 31.65 58.45 31.75 58.7 31.9 59.1 32.1 59.45 31.9 59.6 31.7 59.85 31.5 60.0 31.3 60.3 31.7 59.85 30.9 60.75 30.65 61.0 30.5 61.2 30.25 61.4 30.05 61.6 29.85 61.8 29.65 61.9 29.45 62.05 29.25 62.15 29.05 62.2 28.85 62.2 L28.85 62.2 M27.25 52.0 Q26.9 51.75 26.6 51.5 26.3 51.3 26.1 51.1 25.95 50.95 25.8 50.75 25.7 50.6 25.6 50.45 25.55 50.3 25.5 50.2 25.45 50.05 25.45 49.9 25.45 49.8 25.45 49.6 25.4 49.4 25.4 49.25 25.4 49.0 25.45 48.75 25.45 48.5 25.55 48.25 25.6 48.0 25.7 47.75 25.75 47.5 25.9 47.3 26.0 47.05 26.1 46.85 26.25 46.65 26.4 46.45 26.55 46.25 26.7 46.05 26.85 45.9 27.0 45.75 27.45 45.3 27.95 45.15 28.45 45.05 28.95 45.25 29.4 45.4 29.9 45.75 30.3 46.1 30.75 46.65 31.1 47.1 31.45 47.65 31.75 48.15 31.95 48.65 32.2 49.15 32.25 49.5 32.3 49.85 32.2 50.0 32.05 50.25 31.85 50.55 31.65 50.85 31.4 51.15 31.1 51.45 30.8 51.7 30.45 51.95 30.1 52.15 29.75 52.35 29.4 52.45 29.05 52.55 28.7 52.55 28.3 52.55 27.95 52.45 27.6 52.3 27.25 52.0 L27.25 52.0 M30.8 40.95 Q30.4 41.45 29.95 41.8 29.5 42.15 28.95 42.3 28.45 42.45 27.9 42.4 27.4 42.35 26.9 42.15 26.45 41.95 26.05 41.6 25.6 41.2 25.3 40.7 25.0 40.2 24.85 39.6 24.7 38.95 24.7 38.2 25.45 37.4 26.2 36.95 26.9 36.5 27.55 36.35 28.2 36.2 28.8 36.35 29.35 36.45 29.8 36.75 30.25 37.05 30.55 37.55 30.85 38.0 31.0 38.55 31.15 39.1 31.1 39.75 31.05 40.35 30.8 40.95 L30.8 40.95 M26.05 32.9 Q25.9 32.75 25.75 32.6 25.65 32.45 25.6 32.25 25.5 32.1 25.5 31.9 25.45 31.75 25.45 31.55 25.45 31.35 25.5 31.15 25.5 31.0 25.5 30.75 25.55 30.5 25.55 30.4 25.6 30.15 25.6 30.0 25.75 29.05 26.0 28.35 26.25 27.65 26.6 27.15 27.0 26.7 27.4 26.45 27.85 26.2 28.3 26.2 28.75 26.2 29.25 26.45 29.7 26.65 30.15 27.1 30.55 27.55 30.95 28.2 31.3 28.9 31.6 29.8 31.5 30.15 31.35 30.6 31.15 31.0 30.95 31.45 30.7 31.9 30.4 32.25 30.05 32.65 29.7 32.95 29.35 33.3 28.95 33.5 28.5 33.7 28.05 33.7 27.55 33.7 27.1 33.55 26.6 33.35 26.05 32.9 L26.05 32.9 M27.45 13.8 Q27.2 13.65 26.95 13.4 26.75 13.15 26.55 12.85 26.4 12.55 26.25 12.25 26.15 11.95 26.0 11.6 25.95 11.3 25.85 10.95 25.8 10.75 25.7 10.35 25.6 10.0 25.55 9.8 25.5 9.55 25.4 9.4 25.45 8.45 25.75 7.65 26.0 6.95 26.45 6.45 26.85 5.95 27.4 5.75 27.9 5.5 28.5 5.55 29.05 5.55 29.55 5.8 30.1 6.05 30.5 6.55 30.95 7.1 31.25 7.8 31.55 8.55 31.6 9.5 31.65 9.9 31.65 10.3 31.6 10.75 31.45 11.2 31.3 11.65 31.1 12.05 30.9 12.45 30.6 12.8 30.3 13.2 29.95 13.45 29.6 13.7 29.2 13.85 28.8 14.0 28.35 14.0 27.9 14.0 27.45 13.8 L27.45 13.8 M27.85 2.8 Q27.1 2.25 26.65 1.65 26.25 1.05 26.05 0.45 25.9 -0.1 25.95 -0.7 25.95 -1.25 26.15 -1.8 26.35 -2.3 26.7 -2.7 27.0 -3.15 27.35 -3.45 27.75 -3.75 28.1 -3.95 28.5 -4.1 28.8 -4.1 29.45 -3.9 29.95 -3.55 30.45 -3.2 30.7 -2.75 31.0 -2.3 31.05 -1.75 31.15 -1.25 31.05 -0.7 31.0 -0.2 30.7 0.35 30.45 0.85 30.05 1.35 29.65 1.8 29.1 2.2 28.5 2.55 27.85 2.8 L27.85 2.8 M28.0 -7.15 Q27.8 -7.4 27.55 -7.75 27.35 -7.9 27.05 -8.25 26.75 -8.6 26.6 -8.75 26.35 -9.0 26.2 -9.25 26.0 -9.5 25.9 -9.75 25.75 -10.05 25.65 -10.35 25.55 -10.65 25.5 -11.0 25.5 -11.35 25.55 -11.75 25.75 -12.55 25.7 -12.4 25.85 -12.85 25.95 -13.2 26.1 -13.6 26.25 -13.95 26.4 -14.35 26.65 -14.65 26.9 -15.0 27.15 -15.25 27.45 -15.5 27.85 -15.6 28.2 -15.75 28.65 -15.7 29.15 -15.6 29.7 -15.4 30.0 -15.15 30.3 -14.8 30.6 -14.45 30.85 -14.05 31.1 -13.65 31.3 -13.25 31.5 -12.8 31.7 -12.4 31.85 -11.95 31.95 -11.55 32.05 -11.15 32.1 -10.75 32.15 -10.4 32.15 -10.05 32.1 -9.75 32.05 -9.5 31.95 -9.35 31.8 -9.2 31.65 -9.05 31.4 -8.9 31.2 -8.75 30.95 -8.6 30.7 -8.45 30.35 -8.3 30.15 -8.2 29.75 -8.0 29.25 -7.8 29.15 -7.75 28.8 -7.55 28.55 -7.45 28.25 -7.3 28.0 -7.15 L28.0 -7.15 M27.2 -19.75 Q27.15 -20.15 27.15 -20.6 27.15 -21.05 27.2 -21.5 27.2 -21.9 27.25 -22.35 27.3 -22.75 27.35 -23.25 27.4 -23.6 27.5 -24.2 27.6 -25.05 27.6 -25.15 27.7 -25.7 27.75 -26.1 27.8 -26.65 27.85 -27.15 29.55 -26.2 30.6 -25.15 31.6 -24.15 32.0 -23.15 32.35 -22.3 32.2 -21.4 32.1 -20.6 31.65 -19.95 31.2 -19.35 30.55 -18.95 29.9 -18.55 29.25 -18.5 28.55 -18.4 28.05 -18.7 27.45 -19.05 27.2 -19.75 L27.2 -19.75 M30.05 -29.6 Q29.8 -29.7 29.5 -29.85 29.3 -30.0 29.05 -30.2 28.85 -30.4 28.6 -30.6 28.4 -30.8 28.2 -31.05 28.05 -31.25 27.85 -31.5 28.05 -31.25 27.45 -31.95 27.25 -32.25 27.05 -32.4 26.85 -32.65 26.65 -32.85 26.8 -33.2 27.0 -33.6 27.1 -33.85 27.25 -34.35 27.4 -34.85 27.5 -35.1 27.65 -35.45 27.8 -35.75 28.0 -36.05 28.2 -36.3 28.4 -36.55 28.7 -36.75 29.05 -36.95 29.45 -37.05 29.85 -37.15 30.4 -37.15 30.85 -37.15 31.25 -37.05 31.6 -36.95 31.85 -36.8 32.1 -36.6 32.3 -36.35 32.45 -36.15 32.6 -35.85 32.7 -35.6 32.75 -35.3 32.85 -35.0 32.9 -34.65 32.9 -34.5 32.95 -34.05 33.0 -33.7 33.05 -33.5 33.1 -33.1 33.05 -32.7 33.0 -32.35 32.9 -31.95 32.8 -31.6 32.6 -31.2 32.4 -30.9 32.15 -30.6 31.9 -30.3 31.65 -30.05 31.4 -29.85 31.1 -29.7 30.85 -29.55 30.55 -29.55 30.3 -29.5 30.05 -29.6 L30.05 -29.6 M32.9 -41.45 Q32.8 -41.25 32.7 -41.05 32.55 -40.85 32.4 -40.7 32.25 -40.55 32.1 -40.4 31.9 -40.25 31.7 -40.15 31.5 -40.05 31.25 -40.05 31.0 -40.0 30.75 -40.05 30.5 -40.05 30.2 -40.2 29.9 -40.3 29.6 -40.5 29.1 -40.85 28.7 -41.3 28.35 -41.75 28.15 -42.3 27.95 -42.8 27.9 -43.4 27.85 -43.95 27.95 -44.55 28.05 -45.1 28.3 -45.65 28.55 -46.25 28.95 -46.75 29.35 -47.3 29.9 -47.7 30.45 -48.15 31.1 -48.5 31.45 -48.0 31.7 -47.65 32.0 -47.2 32.25 -46.8 32.5 -46.35 32.7 -45.95 32.9 -45.5 33.05 -45.1 33.25 -44.65 33.3 -44.25 33.4 -43.8 33.35 -43.35 33.35 -42.85 33.25 -42.4 33.1 -41.95 32.9 -41.45 L32.9 -41.45 M31.2 -50.85 Q30.55 -51.25 30.05 -51.65 29.55 -52.1 29.25 -52.6 28.95 -53.05 28.8 -53.55 28.65 -54.1 28.7 -54.6 28.75 -55.1 28.95 -55.65 29.15 -56.15 29.5 -56.7 29.85 -57.2 30.35 -57.7 30.85 -58.2 31.5 -58.6 32.05 -58.1 32.45 -57.55 32.9 -57.0 33.15 -56.45 33.45 -55.95 33.6 -55.4 33.75 -54.9 33.75 -54.35 33.75 -53.85 33.6 -53.35 33.45 -52.9 33.1 -52.45 32.8 -52.0 32.35 -51.6 31.85 -51.15 31.2 -50.85 L31.2 -50.85 M31.45 -69.15 Q31.55 -68.75 31.65 -68.3 31.75 -67.95 31.85 -67.5 40.2 -36.65 32.1 -66.65 32.2 -66.2 32.3 -65.9 32.4 -65.5 32.5 -65.15 32.55 -64.75 32.65 -64.4 32.7 -64.05 32.75 -63.7 32.75 -63.35 32.75 -63.05 32.1 -62.4 31.4 -62.15 30.8 -61.95 30.25 -62.15 29.75 -62.3 29.35 -62.75 28.95 -63.2 28.75 -63.8 28.55 -64.45 28.6 -65.15 28.65 -65.95 28.95 -66.65 29.25 -67.4 29.85 -68.05 30.5 -68.7 31.45 -69.15 L31.45 -69.15 M29.7 -71.8 Q29.5 -72.0 29.4 -72.3 29.35 -72.6 29.3 -73.0 29.3 -73.35 29.35 -73.8 29.35 -74.2 29.45 -74.7 29.5 -75.05 29.6 -75.55 31.5 -84.6 29.8 -76.35 29.9 -76.8 29.9 -77.05 30.0 -77.4 30.0 -77.65 31.3 -76.8 32.1 -75.95 32.8 -75.2 33.1 -74.5 33.35 -73.9 33.25 -73.35 33.15 -72.85 32.8 -72.45 32.45 -72.1 31.95 -71.85 31.5 -71.65 31.0 -71.55 30.5 -71.45 30.15 -71.55 29.8 -71.6 29.7 -71.8 L29.7 -71.8 M31.0 -79.65 Q30.3 -79.85 29.75 -80.15 29.25 -80.45 28.9 -80.85 28.55 -81.25 28.35 -81.7 28.2 -82.15 28.2 -82.65 28.2 -83.15 28.4 -83.65 28.6 -84.15 28.95 -84.6 29.35 -85.1 29.9 -85.5 30.45 -85.95 31.15 -86.3 31.3 -86.0 31.75 -85.4 32.15 -84.75 32.4 -84.4 32.75 -83.85 33.0 -83.35 33.3 -82.8 33.4 -82.35 33.6 -81.8 33.55 -81.4 33.55 -80.9 33.3 -80.6 33.0 -80.2 32.5 -80.0 31.9 -79.75 31.0 -79.65 L31.0 -79.65 M31.45 -93.5 Q32.1 -93.05 32.6 -92.7 33.05 -92.3 33.35 -91.95 33.7 -91.65 33.85 -91.3 34.0 -91.0 34.0 -90.75 34.0 -90.45 33.8 -90.2 33.65 -89.95 33.3 -89.7 33.0 -89.45 32.5 -89.2 32.0 -88.95 31.35 -88.7 30.8 -89.1 30.45 -89.45 30.05 -89.8 29.8 -90.1 29.5 -90.4 29.4 -90.65 29.25 -90.95 29.25 -91.25 29.25 -91.5 29.4 -91.75 29.55 -92.05 29.8 -92.3 30.1 -92.6 30.5 -92.9 30.9 -93.2 31.45 -93.5 L31.45 -93.5 M29.0 -98.8 Q30.05 -100.0 31.2 -101.25 31.75 -100.9 32.0 -100.75 32.35 -100.5 32.6 -100.3 32.9 -100.1 33.05 -99.95 33.25 -99.75 33.35 -99.6 33.5 -99.45 33.55 -99.25 33.6 -99.05 33.6 -98.8 33.6 -98.6 33.6 -98.3 33.55 -98.05 33.5 -97.65 33.45 -97.45 33.35 -97.1 33.25 -96.8 33.2 -96.7 33.15 -96.5 33.1 -96.4 33.05 -96.25 32.95 -96.2 32.9 -96.1 32.75 -96.0 32.65 -95.95 32.45 -95.9 32.3 -95.85 32.0 -95.8 31.8 -95.75 31.45 -95.75 31.3 -95.7 31.15 -95.8 31.0 -95.9 30.8 -96.05 30.65 -96.25 30.45 -96.5 30.3 -96.7 30.1 -97.0 29.95 -97.25 29.75 -97.55 29.8 -97.55 29.45 -98.1 29.3 -98.4 29.2 -98.5 29.05 -98.7 29.0 -98.8 L29.0 -98.8 M58.15 86.1 Q57.8 88.35 57.25 90.3 56.7 92.25 55.9 93.9 55.1 95.6 54.0 97.05 52.9 98.5 51.5 99.7 50.1 100.9 48.35 101.9 46.65 102.85 44.5 103.65 42.4 104.4 39.9 105.0 37.4 105.55 34.45 105.95 35.65 104.25 36.65 102.6 37.7 100.95 38.6 99.35 39.5 97.7 40.25 96.1 41.0 94.5 41.6 92.9 42.2 91.25 42.65 89.65 43.15 88.0 43.45 86.3 43.75 84.6 43.95 82.85 44.1 81.1 44.15 79.3 44.15 78.8 44.15 77.6 44.15 76.75 44.1 76.4 44.1 75.85 44.05 75.55 44.05 75.2 43.95 75.0 43.9 74.75 43.75 74.55 43.65 74.4 43.45 74.2 43.35 74.1 43.0 73.8 42.65 73.45 42.35 73.2 42.0 73.7 41.7 74.1 41.45 74.5 41.3 74.85 41.15 75.1 41.1 75.35 41.0 75.6 41.0 75.8 41.0 76.0 41.0 76.25 41.0 76.35 41.05 76.65 41.1 76.95 41.1 77.15 41.1 77.5 41.1 77.8 41.15 81.3 40.6 84.6 40.15 87.6 39.2 90.4 38.4 92.9 37.25 95.3 36.3 97.35 35.0 99.4 34.1 100.85 32.8 102.7 30.9 105.4 30.95 105.35 30.05 106.65 29.75 107.45 29.35 108.35 29.5 109.0 30.1 109.05 30.7 109.05 31.25 109.05 31.85 109.0 32.4 108.95 33.05 108.85 33.55 108.75 34.2 108.65 34.65 108.55 35.35 108.4 33.6 108.8 36.5 108.15 37.2 108.05 37.7 107.95 38.3 107.8 38.9 107.7 39.05 109.0 39.25 110.15 39.5 111.4 39.75 112.55 40.05 113.75 40.4 114.85 40.75 116.05 41.25 117.15 41.7 118.3 42.3 119.35 42.85 120.45 43.6 121.5 44.3 122.55 45.15 123.55 46.05 124.55 47.05 125.55 44.1 125.0 41.25 124.15 38.5 123.35 35.85 122.25 33.3 121.2 30.9 119.85 28.55 118.55 26.4 117.05 24.25 115.6 22.3 113.9 20.4 112.25 18.7 110.45 17.05 108.65 15.6 106.7 14.15 104.8 12.95 102.8 11.35 100.15 10.1 97.3 8.9 94.65 8.0 91.75 7.15 89.0 6.6 86.1 6.05 83.35 5.7 80.4 5.4 77.65 5.3 74.65 5.2 71.95 5.2 68.85 5.2 66.3 5.35 63.1 5.4 61.1 5.55 57.3 5.75 53.4 6.0 49.35 6.1 46.95 6.35 42.85 6.55 39.2 6.65 37.65 6.8 35.15 6.85 33.5 6.95 31.55 6.95 30.05 6.95 28.45 6.9 27.15 6.85 25.8 6.7 24.5 6.55 23.2 6.3 21.85 6.0 21.85 5.4 21.85 5.2 22.35 5.0 22.9 4.85 23.4 4.7 23.95 4.6 24.45 4.55 25.0 4.45 25.5 4.4 26.1 4.35 26.5 4.3 27.2 4.25 28.0 4.2 28.3 4.15 28.9 4.1 29.35 4.05 29.95 3.95 30.45 2.8 41.4 2.25 50.45 1.75 59.5 1.85 67.0 2.0 74.45 2.75 80.6 3.5 86.65 4.85 91.7 6.2 96.55 8.25 100.65 10.2 104.6 12.85 108.0 15.35 111.25 18.65 114.2 21.65 116.85 25.6 119.6 25.8 119.7 25.95 119.8 26.1 119.9 26.2 119.95 26.3 120.05 26.4 120.15 26.5 120.2 26.6 120.3 26.65 120.35 26.75 120.5 26.85 120.55 27.0 120.7 27.25 120.95 27.3 121.05 27.45 121.25 27.65 121.4 23.55 120.6 20.25 119.8 16.6 118.95 13.6 118.0 10.35 116.95 7.65 115.8 4.8 114.55 2.45 113.1 0.05 111.6 -1.9 109.85 -3.9 108.0 -5.45 105.9 -7.0 103.7 -8.1 101.15 -9.25 98.5 -9.9 95.45 -10.45 92.65 -10.75 87.55 -11.05 82.5 -11.5 80.15 -11.8 80.2 -12.5 80.25 -13.0 82.05 -13.3 83.8 -13.65 85.55 -13.75 87.3 -13.9 89.05 -13.8 90.75 -13.75 92.5 -13.45 94.2 -13.15 95.95 -12.65 97.65 -12.15 99.4 -11.45 101.1 -10.7 102.8 -9.75 104.5 -8.8 106.25 -7.6 107.95 -9.0 107.35 -10.2 106.7 -11.4 106.05 -12.45 105.35 -13.45 104.6 -14.3 103.8 -15.15 103.0 -15.8 102.1 -16.45 101.2 -16.95 100.25 -17.4 99.3 -17.75 98.25 -18.05 97.2 -18.15 96.1 -18.3 95.0 -18.25 93.85 -18.15 91.45 -18.0 89.1 -17.9 86.75 -17.65 84.4 -17.45 82.0 -17.2 79.65 -16.9 77.3 -16.55 74.95 -16.2 72.6 -15.8 70.25 -15.4 67.9 -14.9 65.6 -14.45 63.25 -13.9 60.95 -13.3 58.6 -12.7 56.3 -11.2 50.7 -9.95 44.9 -8.75 39.3 -7.75 33.5 -6.85 27.9 -6.1 22.05 -5.4 16.45 -4.9 10.55 -4.45 4.95 -4.15 -0.95 -3.85 -6.5 -3.7 -12.45 -3.55 -17.95 -3.5 -23.95 -3.5 -29.4 -3.55 -35.5 -3.6 -38.0 -3.6 -40.1 -3.6 -42.55 -3.55 -44.75 -3.55 -47.15 -3.45 -49.35 -3.4 -51.75 -3.25 -53.95 -3.15 -56.3 -2.95 -58.55 -2.75 -60.9 -2.45 -63.15 -2.2 -65.5 -1.85 -67.75 -1.45 -70.1 -1.0 -72.35 -0.55 -74.5 -0.1 -76.45 0.35 -78.55 0.9 -80.5 1.45 -82.55 2.05 -84.5 2.7 -86.55 3.4 -88.5 4.15 -90.5 5.0 -92.4 5.85 -94.4 6.85 -96.25 7.85 -98.25 8.95 -100.1 10.1 -102.0 11.4 -103.8 11.75 -104.35 12.2 -104.85 12.6 -105.4 13.0 -105.9 13.45 -106.4 13.9 -106.95 14.35 -107.45 14.8 -107.95 15.25 -108.4 15.75 -108.9 16.25 -109.4 16.75 -109.9 17.25 -110.35 17.8 -110.85 18.3 -111.3 18.8 -111.75 19.25 -112.15 19.8 -112.5 20.35 -112.8 20.9 -113.05 21.45 -113.25 22.05 -113.4 22.65 -113.55 23.25 -113.6 23.9 -113.65 24.5 -113.65 25.1 -113.6 25.7 -113.5 26.3 -113.4 26.85 -113.25 27.45 -113.05 28.0 -112.8 25.75 -110.75 23.95 -108.9 22.05 -106.95 20.5 -105.1 18.95 -103.2 17.65 -101.35 16.4 -99.45 15.4 -97.55 14.35 -95.65 13.6 -93.65 12.85 -91.7 12.3 -89.55 11.75 -87.45 11.35 -85.15 11.0 -82.9 10.85 -80.4 9.0 -62.85 8.65 -59.35 7.4 -45.9 6.6 -27.85 6.7 -29.3 5.5 3.7 5.45 4.15 5.5 4.6 5.5 5.05 5.55 5.55 5.55 5.95 5.65 6.45 5.7 6.85 5.8 7.35 5.85 7.75 5.95 8.25 5.95 8.35 6.15 9.2 6.25 9.75 6.3 10.1 6.4 10.6 6.45 11.0 6.6 11.0 6.9 11.0 7.2 11.0 7.35 10.95 7.55 10.2 7.7 9.45 7.85 8.7 8.0 7.95 8.1 7.2 8.2 6.45 8.3 5.7 8.4 4.95 8.5 4.2 8.55 3.45 8.6 2.7 8.65 1.9 8.7 1.2 8.75 0.4 8.8 -0.35 8.8 -1.15 9.4 -12.65 10.15 -28.45 10.95 -45.3 11.2 -49.8 11.7 -59.95 12.2 -66.3 12.75 -73.65 13.45 -78.75 14.2 -84.2 15.25 -88.2 16.3 -92.3 17.85 -95.6 19.35 -98.8 21.6 -101.85 23.6 -104.65 26.75 -107.95 27.6 -106.35 29.6 -102.75 28.95 -102.3 28.5 -101.8 28.05 -101.3 27.75 -100.8 27.45 -100.3 27.35 -99.8 27.2 -99.3 27.2 -98.75 27.2 -98.25 27.35 -97.75 27.5 -97.2 27.75 -96.65 28.0 -96.15 28.35 -95.6 28.65 -95.05 29.1 -94.5 28.45 -94.1 28.05 -93.65 27.6 -93.2 27.35 -92.75 27.15 -92.35 27.05 -91.9 27.0 -91.5 27.05 -91.05 27.15 -90.6 27.3 -90.15 27.5 -89.75 27.8 -89.3 28.05 -88.9 28.4 -88.45 28.7 -88.05 29.1 -87.6 28.5 -87.05 28.0 -86.55 27.45 -86.0 27.1 -85.45 26.65 -84.9 26.4 -84.35 26.1 -83.8 26.0 -83.25 25.85 -82.7 25.9 -82.1 25.95 -81.55 26.15 -81.0 26.4 -80.4 26.8 -79.8 27.25 -79.2 27.9 -78.6 28.0 -78.45 28.1 -78.35 28.15 -78.25 28.15 -78.1 28.15 -78.0 28.1 -77.9 28.1 -77.8 28.05 -77.7 28.0 -77.6 27.9 -77.5 28.15 -77.85 27.75 -77.3 27.65 -77.2 27.6 -77.1 27.55 -77.0 27.5 -76.9 27.35 -76.65 27.25 -76.4 27.2 -76.15 27.1 -75.85 27.05 -75.6 27.05 -75.35 27.0 -75.1 27.0 -74.8 27.0 -74.55 27.0 -74.25 27.0 -74.0 27.05 -73.75 27.05 -73.5 27.1 -73.2 27.15 -72.95 27.2 -72.65 27.45 -71.05 27.4 -69.9 27.4 -68.95 27.15 -68.3 26.95 -67.8 26.6 -67.35 25.85 -66.4 26.1 -66.75 25.9 -66.45 25.9 -66.1 25.9 -65.65 26.15 -64.95 26.5 -64.2 27.25 -63.0 28.0 -61.75 29.3 -59.75 28.6 -58.95 28.15 -58.35 27.6 -57.7 27.3 -57.1 26.95 -56.55 26.75 -56.0 26.55 -55.45 26.5 -54.9 26.45 -54.35 26.55 -53.8 26.7 -53.25 26.95 -52.6 27.2 -52.0 27.6 -51.3 28.0 -50.6 28.55 -49.75 27.8 -48.95 27.25 -48.2 26.7 -47.45 26.35 -46.8 25.95 -46.1 25.75 -45.45 25.55 -44.8 25.55 -44.2 25.55 -43.55 25.7 -42.9 25.85 -42.3 26.2 -41.65 26.55 -41.0 27.1 -40.3 27.6 -39.65 28.35 -38.9 27.65 -38.35 27.1 -37.8 26.55 -37.2 26.15 -36.65 25.75 -36.05 25.5 -35.45 25.25 -34.85 25.1 -34.25 25.0 -33.65 25.0 -33.0 25.05 -32.4 25.25 -31.75 25.4 -31.1 25.75 -30.45 26.05 -29.8 26.5 -29.15 26.55 -29.1 26.6 -29.0 26.6 -28.9 26.65 -28.8 26.65 -28.7 26.65 -28.6 26.65 -28.5 26.65 -28.4 26.65 -28.3 26.6 -28.2 26.6 -28.1 26.55 -28.0 26.5 -27.9 26.5 -27.8 26.45 -27.7 26.4 -27.6 26.05 -26.9 25.8 -26.3 25.5 -25.65 25.25 -25.0 25.05 -24.35 24.9 -23.7 24.75 -23.05 24.7 -22.4 24.6 -21.75 24.65 -21.1 24.7 -20.45 24.9 -19.8 25.1 -19.15 25.4 -18.5 25.7 -17.85 26.2 -17.2 25.5 -16.5 25.0 -15.85 24.45 -15.15 24.1 -14.5 23.75 -13.85 23.55 -13.2 23.35 -12.55 23.35 -11.9 23.3 -11.25 23.4 -10.55 23.55 -9.9 23.8 -9.15 24.1 -8.45 24.55 -7.7 24.95 -6.95 25.55 -6.15 25.6 -6.05 25.65 -5.95 25.7 -5.85 25.7 -5.75 25.75 -5.65 25.75 -5.5 25.75 -5.4 25.75 -5.25 25.75 -5.15 25.75 -5.05 25.7 -4.9 25.65 -4.8 25.6 -4.7 25.55 -4.6 25.5 -4.5 25.45 -4.4 25.0 -3.85 24.65 -3.3 24.3 -2.75 24.05 -2.2 23.8 -1.65 23.7 -1.1 23.6 -0.6 23.6 -0.05 23.6 0.5 23.75 1.0 23.9 1.55 24.2 2.05 24.45 2.6 24.9 3.1 25.3 3.6 25.9 4.1 25.3 4.65 24.85 5.2 24.45 5.8 24.1 6.4 23.8 7.05 23.6 7.7 23.4 8.35 23.35 9.0 23.3 9.65 23.4 10.35 23.45 11.0 23.65 11.7 23.9 12.35 24.2 13.0 24.55 13.7 25.0 14.35 25.1 14.45 25.15 14.6 25.25 14.7 25.3 14.85 25.4 15.0 25.45 15.1 25.55 15.25 25.6 15.4 25.65 15.55 25.7 15.65 25.7 15.8 25.7 15.9 25.7 16.05 25.7 16.1 25.65 16.2 25.6 16.3 25.05 16.85 24.65 17.4 24.25 17.95 24.0 18.5 23.75 19.05 23.65 19.6 23.5 20.15 23.55 20.7 23.55 21.25 23.7 21.75 23.85 22.3 24.15 22.85 24.4 23.4 24.85 23.9 25.25 24.45 25.75 24.95 25.15 25.6 24.7 26.2 24.2 26.8 23.85 27.4 23.45 28.05 23.2 28.6 22.95 29.25 22.85 29.85 22.75 30.45 22.8 31.05 22.85 31.7 23.1 32.3 23.35 32.9 23.8 33.5 24.3 34.15 24.95 34.75 24.25 35.5 23.85 36.05 23.35 36.7 23.05 37.2 22.75 37.75 22.6 38.25 22.45 38.75 22.5 39.25 22.55 39.75 22.75 40.25 22.95 40.8 23.35 41.35 23.75 41.95 24.3 42.6 24.85 43.25 25.65 44.1 25.0 44.85 24.5 45.5 24.05 46.15 23.7 46.75 23.4 47.35 23.25 47.95 23.1 48.5 23.1 49.1 23.1 49.65 23.25 50.25 23.45 50.8 23.75 51.45 24.1 52.05 24.6 52.7 25.1 53.35 25.75 54.15 24.6 55.3 24.0 56.35 23.45 57.3 23.35 58.2 23.25 58.95 23.45 59.7 23.65 60.3 24.05 61.0 24.2 61.25 24.85 62.2 25.35 62.85 25.55 63.3 25.85 63.95 25.85 64.5 25.85 65.15 25.45 65.8 25.0 66.8 24.1 68.85 23.2 70.85 22.75 71.85 22.05 73.5 21.5 74.8 20.85 76.35 20.4 77.7 19.85 79.25 19.4 80.65 19.0 82.15 18.7 83.6 18.35 85.15 18.2 86.65 18.05 88.2 18.05 89.8 18.0 90.6 18.05 91.3 18.1 92.05 18.25 92.75 18.4 93.45 18.6 94.1 18.9 94.8 19.25 95.4 19.6 96.0 20.1 96.5 20.6 97.05 21.25 97.55 21.9 98.0 22.7 98.4 23.5 98.8 24.45 99.1 24.6 99.1 24.75 99.1 24.9 99.1 25.0 99.1 25.15 99.05 25.25 99.0 25.4 98.95 25.5 98.85 25.6 98.75 25.7 98.65 25.8 98.5 25.9 98.35 26.0 98.2 26.1 98.0 26.2 97.85 26.25 97.6 27.15 98.0 27.4 98.1 27.95 98.35 28.3 98.5 28.7 98.65 28.95 98.75 29.25 98.85 29.5 98.9 29.8 98.95 30.05 98.95 30.25 99.0 30.55 98.95 30.8 98.95 31.2 98.9 31.25 98.9 32.0 98.8 31.8 98.35 31.3 97.3 30.85 96.4 30.65 95.9 30.3 95.1 30.1 94.5 29.85 93.75 29.75 93.15 29.65 92.45 29.7 91.8 29.75 91.1 29.95 90.45 30.2 89.75 30.7 89.05 31.15 88.35 31.9 87.65 32.4 87.1 32.8 86.6 33.2 86.05 33.6 85.5 33.95 84.9 34.25 84.35 34.55 83.8 34.75 83.2 35.0 82.65 35.15 82.05 35.3 81.45 35.4 80.85 35.45 80.25 35.45 79.65 35.45 79.0 35.35 78.4 34.8 75.7 33.5 71.7 31.65 66.05 31.4 65.05 31.3 64.75 31.25 64.55 31.2 64.3 31.25 64.1 31.25 63.95 31.3 63.8 31.35 63.65 31.4 63.55 31.5 63.45 31.6 63.3 31.65 63.25 31.8 63.1 31.95 62.95 32.05 62.85 32.2 62.7 32.3 62.6 32.75 62.05 33.05 61.5 33.35 61.0 33.5 60.45 33.65 59.9 33.65 59.35 33.7 58.85 33.6 58.3 33.5 57.8 33.3 57.25 33.1 56.75 32.8 56.2 32.55 55.7 32.15 55.15 31.8 54.65 31.4 54.1 32.2 53.5 32.75 52.95 33.35 52.35 33.75 51.8 34.15 51.25 34.3 50.7 34.5 50.1 34.5 49.5 34.5 48.9 34.25 48.25 34.05 47.6 33.65 46.85 33.2 46.1 32.6 45.25 32.0 44.45 31.15 43.5 31.75 42.9 32.15 42.4 32.55 41.85 32.85 41.4 33.1 40.9 33.25 40.45 33.4 39.95 33.4 39.5 33.35 39.0 33.2 38.5 33.05 38.0 32.75 37.4 32.45 36.85 32.0 36.2 31.55 35.6 30.95 34.8 31.6 34.2 32.05 33.6 32.55 33.0 32.9 32.35 33.2 31.75 33.4 31.15 33.6 30.55 33.6 29.95 33.6 29.3 33.45 28.7 33.3 28.1 33.0 27.45 32.65 26.85 32.15 26.25 31.6 25.6 30.9 25.0 32.15 24.2 32.95 23.45 33.7 22.75 34.05 22.1 34.4 21.5 34.45 20.9 34.5 20.35 34.3 19.75 34.2 19.25 33.85 18.65 35.5 21.95 33.3 17.5 32.95 16.85 32.8 16.35 32.55 15.7 32.55 15.05 32.55 14.3 32.7 13.55 32.85 12.95 33.1 12.3 32.8 13.1 33.6 11.15 33.85 10.55 33.95 10.1 34.1 9.5 34.05 8.95 33.95 8.3 33.6 7.6 33.25 6.8 32.55 5.9 31.75 4.95 30.6 3.85 31.3 3.25 31.8 2.65 32.3 2.0 32.65 1.4 33.0 0.8 33.15 0.2 33.35 -0.4 33.35 -1.0 33.35 -1.6 33.2 -2.2 33.0 -2.8 32.7 -3.4 32.35 -3.95 31.85 -4.55 31.3 -5.15 30.65 -5.75 31.7 -6.4 32.45 -6.95 33.2 -7.55 33.7 -8.15 34.25 -8.7 34.5 -9.3 34.8 -9.85 34.85 -10.5 34.85 -11.1 34.65 -11.8 34.45 -12.5 34.05 -13.3 33.6 -14.1 32.9 -15.05 32.3 -15.95 31.35 -17.1 32.4 -17.75 33.1 -18.4 33.75 -19.05 34.15 -19.7 34.5 -20.35 34.6 -21.0 34.7 -21.65 34.6 -22.3 34.5 -22.9 34.2 -23.55 34.0 -24.1 33.6 -24.75 33.3 -25.25 32.9 -25.9 33.2 -25.45 32.15 -26.95 33.1 -28.55 33.45 -29.15 34.05 -30.2 34.35 -30.85 34.75 -31.55 34.9 -32.1 35.1 -32.7 35.1 -33.2 35.15 -33.7 35.05 -34.25 34.9 -34.75 34.65 -35.45 34.5 -35.9 34.1 -37.0 33.6 -38.25 33.3 -39.05 33.95 -39.5 34.45 -39.95 34.9 -40.45 35.2 -40.95 35.5 -41.45 35.6 -41.95 35.75 -42.45 35.75 -43.0 35.75 -43.55 35.6 -44.1 35.5 -44.65 35.3 -45.25 35.1 -45.75 34.85 -46.4 34.65 -46.9 34.3 -47.55 34.2 -47.75 34.15 -47.85 34.05 -48.0 34.0 -48.15 33.95 -48.35 33.85 -48.5 33.8 -48.7 33.75 -48.85 33.7 -49.0 33.7 -49.15 33.65 -49.3 33.65 -49.45 33.65 -49.6 33.7 -49.7 33.75 -49.85 33.85 -49.9 34.5 -50.6 34.95 -51.25 35.4 -51.95 35.65 -52.6 35.9 -53.25 35.95 -53.95 36.05 -54.55 35.95 -55.2 35.85 -55.85 35.6 -56.5 35.35 -57.1 35.0 -57.75 34.6 -58.4 34.1 -59.0 33.65 -59.65 33.0 -60.25 33.8 -60.85 34.3 -61.5 34.8 -62.05 35.05 -62.7 35.3 -63.3 35.35 -63.9 35.4 -64.5 35.25 -65.1 35.1 -65.7 34.85 -66.35 34.6 -66.9 34.2 -67.55 33.95 -68.05 33.45 -68.75 32.1 -70.9 32.65 -70.0 33.45 -70.45 34.05 -70.95 34.65 -71.4 35.0 -71.9 35.35 -72.4 35.5 -72.9 35.65 -73.4 35.6 -73.9 35.6 -74.4 35.4 -74.95 35.2 -75.45 34.9 -76.0 34.55 -76.55 34.1 -77.1 33.7 -77.6 33.15 -78.2 34.05 -78.75 34.65 -79.3 35.2 -79.85 35.5 -80.4 35.8 -80.95 35.85 -81.5 35.95 -82.05 35.8 -82.6 35.7 -83.15 35.4 -83.7 35.15 -84.2 34.75 -84.8 34.4 -85.3 33.9 -85.9 33.65 -86.2 33.0 -86.95 33.9 -87.65 34.35 -88.05 35.0 -88.55 35.35 -88.95 35.8 -89.35 36.0 -89.75 36.25 -90.1 36.3 -90.45 36.35 -90.85 36.25 -91.25 36.1 -91.65 35.85 -92.1 35.6 -92.55 35.15 -93.15 34.75 -93.65 34.1 -94.5 35.05 -95.2 35.6 -95.85 36.1 -96.45 36.3 -97.1 36.45 -97.65 36.35 -98.25 36.3 -98.75 36.05 -99.35 35.85 -99.7 35.5 -100.35 35.1 -101.05 34.95 -101.35 34.7 -101.9 34.65 -102.35 34.6 -102.9 34.8 -103.35 35.1 -103.35 35.75 -103.4 36.8 -101.7 37.75 -99.65 38.65 -97.75 39.5 -95.6 40.25 -93.6 40.95 -91.35 41.6 -89.35 42.2 -87.2 42.75 -85.25 43.25 -83.2 43.65 -81.45 44.05 -79.55 44.4 -78.15 44.7 -76.5 44.65 -76.85 45.15 -74.15 46.0 -69.8 46.55 -65.1 47.05 -60.8 47.35 -56.25 47.65 -52.15 47.75 -47.75 47.85 -43.9 47.8 -39.8 47.75 -36.35 47.6 -32.5 47.5 -29.7 47.3 -26.05 47.0 -19.8 47.0 -20.65 46.9 -17.95 46.85 -16.4 46.8 -14.25 46.85 -12.1 46.85 -9.95 46.9 -7.85 46.95 -5.7 47.05 -3.55 47.15 -1.4 47.3 0.7 47.5 2.85 47.7 5.0 47.9 7.1 48.15 9.25 48.4 11.4 48.65 13.5 48.95 15.65 49.3 17.8 50.4 24.25 51.7 31.2 52.55 35.65 53.85 42.55 55.2 49.55 55.7 52.2 56.6 57.05 57.15 60.45 57.8 64.45 58.2 67.65 58.6 71.1 58.7 74.1 58.85 77.2 58.7 80.1 58.6 83.1 58.15 86.1 L58.15 86.1" fill="#000000" fill-rule="evenodd" stroke="none"/>
    <path d="M113.85 129.35 L113.85 129.35 113.85 129.35" fill="#000000" fill-rule="evenodd" stroke="none"/>
  </g>
</svg>
