<?xml version="1.0" encoding="UTF-8" standalone="no"?>
<svg xmlns:xlink="http://www.w3.org/1999/xlink" height="195.9px" width="255.7px" xmlns="http://www.w3.org/2000/svg">
  <g transform="matrix(1.0, 0.0, 0.0, 1.0, 127.85, 97.95)">
    <path d="M-78.75 -81.9 L-78.85 -81.85 -78.85 -81.9 -78.75 -81.9" fill="#c7c7c7" fill-rule="evenodd" stroke="none"/>
    <path d="M-47.6 -78.45 L-51.4 -75.9 -54.9 -73.55 Q-55.55 -73.05 -55.75 -72.95 -56.2 -72.6 -56.5 -72.35 -56.95 -72.05 -57.3 -71.8 -57.7 -71.5 -58.05 -71.2 -58.4 -70.9 -58.75 -70.6 -59.15 -70.3 -59.5 -69.95 -59.85 -69.65 -60.2 -69.3 -60.55 -68.95 -60.9 -68.55 -61.2 -68.25 -61.5 -67.9 -61.75 -67.6 -62.0 -67.3 -62.25 -67.0 -62.5 -66.7 -62.75 -66.45 -62.95 -66.15 -63.15 -65.9 -63.35 -65.65 -63.5 -65.4 -63.65 -65.15 -63.8 -64.95 -63.95 -64.7 -64.1 -64.55 -64.25 -64.3 -64.35 -64.15 -64.45 -63.95 -64.6 -63.8 -64.7 -63.6 -64.85 -63.4 -65.0 -63.15 -65.15 -62.9 -65.25 -62.65 -65.45 -62.4 -65.6 -62.1 -65.75 -61.8 -65.95 -61.5 -66.1 -61.15 -66.3 -60.8 -66.5 -60.4 -66.7 -60.0 -67.1 -59.2 -67.5 -58.35 -67.85 -57.6 -68.2 -56.8 -68.55 -56.05 -68.85 -55.25 -69.15 -54.55 -69.45 -53.8 -69.7 -53.15 -69.95 -52.4 -70.2 -51.8 -70.45 -51.05 -70.65 -50.5 -70.85 -49.8 -71.0 -49.3 -71.25 -48.55 -71.35 -48.2 -71.45 -47.9 -71.55 -47.6 -71.65 -47.25 -71.8 -46.95 -71.9 -46.6 -72.0 -46.25 -72.1 -45.9 -72.25 -45.5 -72.35 -45.1 -72.45 -44.7 -72.6 -44.3 -72.7 -43.9 -72.8 -43.45 -72.95 -43.0 -73.05 -42.55 -73.2 -41.95 -73.3 -41.5 -73.45 -40.9 -73.6 -40.35 -73.75 -39.7 -73.9 -39.1 -74.05 -38.45 -74.2 -37.75 -74.35 -37.05 -74.45 -36.3 -74.6 -35.55 -74.75 -34.75 -74.85 -33.95 -74.95 -33.1 -75.1 -32.25 -75.15 -31.35 -75.5 -28.1 -75.3 -20.45 L-75.0 -10.55 -74.9 -7.35 Q-74.9 -6.6 -74.9 -5.9 -74.85 -5.2 -74.85 -4.5 -74.85 -3.85 -74.85 -3.2 -74.85 -2.6 -74.9 -2.0 -74.9 -1.45 -74.9 -0.9 -74.9 -0.4 -74.95 0.1 -74.95 0.55 -74.95 1.0 -74.95 1.35 -75.0 1.75 -75.05 3.15 -75.7 11.8 -75.75 12.25 -75.75 12.4 -75.8 12.75 -75.8 13.05 -75.85 13.35 -75.9 13.65 -75.9 13.95 -75.95 14.3 -76.0 14.6 -76.05 14.95 -76.15 15.25 -76.2 15.6 -76.3 15.95 -76.35 16.3 -76.45 16.7 -76.55 17.05 -76.75 17.6 -76.65 17.45 -76.75 17.7 -76.8 17.85 -76.9 18.1 -76.95 18.35 -77.05 18.6 -77.15 18.85 -77.25 19.15 -77.4 19.4 -77.5 19.7 -77.65 20.0 -77.8 20.3 -77.95 20.6 -78.1 20.9 -78.3 21.2 -78.5 21.55 -78.75 21.95 -78.95 22.3 -79.2 22.6 -79.45 22.95 -79.7 23.25 -79.9 23.55 -80.2 23.85 -80.4 24.15 -80.7 24.45 -80.95 24.7 -81.25 25.0 -81.45 25.25 -81.75 25.55 -81.95 25.75 -82.35 26.15 -82.75 26.55 -83.65 27.55 -84.5 28.45 -85.05 28.95 -85.15 29.0 -85.25 29.15 -85.4 29.3 -85.45 29.35 -85.55 29.45 -85.65 29.55 -85.75 29.6 -85.8 29.7 -85.9 29.8 -85.95 29.85 -86.0 29.95 -86.05 30.05 -86.1 30.1 -86.15 30.2 -86.2 30.3 -86.25 30.4 -86.3 30.5 -86.35 30.65 -86.35 30.75 -86.4 30.9 -86.4 31.05 -86.45 31.2 -86.45 31.4 -86.45 31.55 -86.4 31.75 -86.4 32.0 -86.35 32.2 -86.3 32.45 -86.2 32.7 -86.1 33.0 -86.0 33.3 -85.9 33.6 -85.7 34.05 -85.5 34.5 -85.25 34.9 -85.0 35.3 -84.75 35.7 -84.5 36.1 -84.2 36.45 -83.95 36.8 -83.65 37.1 -83.35 37.45 -83.1 37.75 -82.8 38.0 -82.55 38.3 -82.25 38.55 -82.0 38.75 -81.7 39.0 -81.7 39.15 -81.75 39.25 -81.75 39.4 -81.75 39.5 -81.8 39.7 -81.8 39.85 -81.85 40.0 -81.85 40.15 -81.9 40.35 -81.95 40.5 -81.95 40.7 -82.0 40.9 -82.05 41.1 -82.1 41.3 -82.15 41.5 -82.2 41.7 -82.3 42.05 -82.4 42.35 -82.5 42.6 -82.65 42.9 -82.75 43.15 -82.85 43.4 -83.0 43.6 -83.15 43.9 -83.25 44.1 -83.45 44.4 -83.4 44.3 -83.75 44.95 -83.95 45.3 -84.1 45.6 -84.35 46.0 -84.55 46.35 -84.9 46.95 -85.05 47.3 -85.3 47.8 -85.5 48.15 -85.7 48.55 -85.9 48.9 -86.05 49.3 -86.2 49.6 -86.35 49.95 -86.45 50.25 -86.55 50.6 -86.65 50.9 -86.75 51.25 -86.8 51.55 -86.85 51.9 -86.85 52.25 -86.85 52.5 -86.9 52.65 -86.9 52.9 -86.9 53.1 -86.9 53.35 -86.9 53.55 -86.9 53.85 -86.85 54.05 -86.85 54.3 -86.8 54.55 -86.75 54.85 -86.65 55.05 -86.55 55.3 -86.45 55.55 -86.3 55.8 -86.15 56.05 -86.0 56.25 -85.85 56.4 -85.7 56.5 -85.55 56.65 -85.4 56.75 -85.25 56.85 -85.25 56.85 -84.95 57.05 -84.8 57.15 -84.7 57.2 -84.55 57.3 -84.45 57.4 -84.3 57.5 -84.25 57.65 -84.15 57.8 -84.05 58.0 -83.95 58.2 -83.9 58.45 -83.9 58.65 -83.9 58.85 -83.9 59.0 -83.95 59.2 -84.0 59.35 -84.05 59.6 -84.15 59.85 -84.15 59.95 -84.2 60.15 -84.25 60.35 -84.25 60.6 -84.25 60.8 -84.25 61.05 -84.15 61.3 -84.1 61.45 -84.05 61.6 -83.95 61.75 -83.85 61.95 -83.75 62.1 -83.65 62.25 -83.5 62.4 -83.35 62.55 -83.2 62.7 -83.0 62.9 -82.8 63.05 -82.55 63.25 -82.35 63.45 -82.05 63.65 -81.85 63.8 -81.45 64.1 -81.25 64.25 -81.1 64.4 -80.9 64.5 -80.75 64.65 -80.6 64.8 -80.4 64.9 -80.25 65.0 -80.1 65.15 -79.95 65.25 -79.8 65.35 -79.65 65.45 -79.5 65.5 -79.4 65.6 -79.25 65.7 -79.15 65.75 -79.0 65.85 -79.1 65.95 -79.2 66.05 -79.3 66.15 -79.4 66.3 -79.5 66.4 -79.6 66.55 -79.7 66.7 -79.8 66.8 -79.95 66.95 -80.05 67.1 -80.15 67.3 -80.25 67.45 -80.4 67.6 -80.5 67.8 -80.6 67.95 -80.75 68.15 -80.95 68.5 -81.05 68.6 -81.2 68.85 -81.3 69.05 -81.4 69.25 -81.5 69.4 -81.6 69.6 -81.7 69.8 -81.8 69.95 -81.85 70.15 -81.95 70.3 -82.0 70.5 -82.05 70.65 -82.1 70.85 -82.15 71.05 -82.2 71.2 -82.3 71.6 -82.3 72.0 -82.35 72.4 -82.3 72.8 -82.3 73.15 -82.25 73.5 -82.2 73.8 -82.1 74.1 -82.05 74.35 -81.95 74.6 -81.9 74.85 -81.8 75.05 -81.75 75.2 -81.7 75.35 -81.65 75.45 -81.6 75.5 -81.45 75.75 -81.3 76.0 -81.15 76.2 -81.0 76.4 -80.85 76.6 -80.7 76.8 -80.55 76.95 -80.35 77.15 -80.2 77.25 -80.05 77.4 -79.9 77.5 -79.75 77.65 -79.65 77.75 -79.5 77.8 -79.4 77.9 -79.25 77.95 -79.35 78.0 -79.4 78.05 -79.5 78.1 -79.6 78.15 -79.7 78.25 -79.85 78.3 -79.95 78.4 -80.05 78.45 -80.15 78.55 -80.3 78.65 -80.4 78.75 -80.5 78.9 -80.65 79.0 -80.75 79.15 -80.9 79.3 -81.0 79.45 -81.05 79.55 -81.1 79.6 -81.2 79.75 -81.25 79.85 -81.35 80.0 -81.4 80.1 -81.5 80.3 -81.55 80.45 -81.65 80.65 -81.7 80.85 -81.8 81.05 -81.8 81.3 -81.85 81.5 -81.85 81.75 -81.85 82.0 -81.85 82.25 -81.85 82.45 -81.8 82.65 -81.75 82.85 -81.65 83.0 -81.6 83.15 -81.55 83.35 -81.45 83.5 -81.35 83.65 -81.3 83.75 -81.2 83.9 -81.1 84.0 -81.05 84.1 -80.95 84.2 -80.9 84.3 -80.8 84.35 -80.75 84.45 -80.65 84.55 -80.55 84.65 -80.45 84.75 -80.35 84.85 -80.25 84.9 -80.1 85.0 -79.95 85.1 -79.8 85.2 -79.6 85.3 -79.4 85.4 -79.2 85.55 -78.9 85.65 -78.65 85.8 -78.3 85.95 -77.95 86.1 -77.55 86.3 -77.1 86.5 -76.65 86.7 -76.65 86.7 -75.9 87.0 -75.55 87.15 -75.35 87.25 -75.1 87.4 -74.9 87.45 -74.7 87.55 -74.55 87.65 -74.45 87.75 -74.3 87.85 -74.2 87.9 -74.15 88.0 -74.05 88.15 -74.0 88.25 -73.95 88.35 -73.9 88.45 -73.9 88.55 -73.85 88.65 -73.85 88.75 -73.85 88.9 -73.85 89.0 -73.85 89.15 -73.85 89.3 -73.9 89.5 -73.9 89.65 -73.95 89.9 -73.95 90.05 -74.0 90.35 -74.05 90.5 -74.1 90.95 L-74.85 95.25 Q-74.9 95.45 -75.0 95.65 -75.05 95.9 -75.2 96.15 -75.3 96.5 -75.45 96.8 -75.65 97.15 -75.85 97.5 -76.05 97.95 -76.3 98.3 -76.6 98.75 -76.9 99.15 -77.25 99.55 -77.65 99.95 -78.05 100.4 -78.55 100.75 -79.05 101.15 -79.55 101.5 -80.05 101.8 -80.55 102.05 -81.05 102.3 -81.55 102.5 -82.05 102.65 -82.5 102.8 -82.95 102.9 -83.35 103.0 -83.75 103.05 -84.15 103.1 -84.45 103.15 -84.8 103.2 -85.05 103.2 -85.25 103.2 -85.2 103.3 -85.1 103.4 -85.05 103.5 -84.95 103.6 -84.85 103.7 -84.75 103.85 -84.65 103.95 -84.55 104.05 -84.45 104.15 -84.3 104.3 -84.2 104.4 -84.05 104.5 -83.9 104.6 -83.75 104.7 -83.6 104.85 -83.45 104.9 -83.15 105.1 -82.8 105.2 -82.5 105.35 -82.15 105.45 -81.85 105.55 -81.5 105.55 -81.2 105.6 -80.85 105.65 -80.55 105.65 -80.15 105.65 -79.85 105.6 -79.45 105.6 -79.15 105.55 -78.7 105.5 -78.45 105.5 -77.9 105.4 -77.55 105.35 -77.3 105.35 -77.0 105.3 -76.7 105.25 -76.4 105.2 -76.1 105.1 -75.8 105.05 -75.5 105.0 -75.15 104.9 -74.9 104.8 -74.55 104.65 -74.25 104.55 -73.95 104.4 -73.65 104.2 -73.35 104.05 -73.0 103.8 -72.85 103.7 -72.7 103.6 -72.6 103.5 -72.45 103.4 -72.35 103.3 -72.2 103.2 -72.1 103.1 -72.0 103.0 -71.9 102.9 -71.8 102.8 -71.7 102.7 -71.6 102.6 -71.55 102.5 -71.45 102.4 -71.35 102.3 -71.3 102.25 -71.35 102.45 -71.45 102.65 -71.5 102.85 -71.55 103.05 -71.65 103.3 -71.75 103.55 -71.85 103.8 -71.9 104.05 -72.0 104.3 -72.15 104.55 -72.25 104.85 -72.35 105.1 -72.5 105.4 -72.6 105.7 -72.75 106.0 -72.9 106.25 -73.1 106.7 -73.25 106.95 -73.45 107.35 -73.6 107.65 -73.8 108.05 -74.0 108.4 -74.2 108.75 -74.45 109.1 -74.65 109.5 -74.9 109.85 -75.15 110.2 -75.45 110.55 -75.75 110.9 -76.05 111.25 -76.35 111.6 -76.7 111.9 -77.15 112.35 -77.7 112.7 -78.15 113.05 -78.7 113.4 -79.2 113.7 -79.7 113.95 -80.2 114.15 -80.7 114.35 -81.2 114.55 -81.7 114.7 -82.15 114.8 -82.65 114.95 -83.05 115.05 -83.5 115.1 -83.9 115.15 -84.3 115.2 -84.2 115.3 -84.1 115.4 -83.95 115.45 -83.85 115.55 -83.7 115.65 -83.55 115.75 -83.45 115.85 -83.3 115.95 -83.1 116.05 -82.95 116.15 -82.8 116.25 -82.6 116.35 -82.45 116.4 -82.25 116.5 -82.05 116.6 -81.85 116.7 -81.45 116.85 -81.05 117.0 -80.7 117.1 -80.3 117.2 -79.95 117.25 -79.55 117.3 -79.2 117.35 -78.85 117.4 -78.5 117.4 -78.15 117.4 -77.8 117.4 -77.45 117.4 -77.2 117.35 -76.85 117.35 -76.6 117.35 -76.2 117.3 -75.8 117.25 -75.55 117.25 -75.15 117.2 -74.75 117.15 -74.3 117.1 -73.9 117.0 -73.4 116.9 -72.9 116.8 -72.4 116.65 -71.85 116.5 -71.3 116.35 -70.75 116.1 -70.15 115.9 -69.6 115.6 -68.95 115.3 -68.35 114.95 -68.0 114.75 -67.75 114.6 -67.4 114.35 -67.05 114.15 -66.6 113.85 -66.2 113.55 -65.75 113.2 -65.3 112.8 -64.85 112.35 -64.4 111.9 -63.9 111.4 -63.5 110.85 -63.05 110.25 -62.65 109.65 -62.2 108.95 -61.85 108.25 -61.7 107.9 -61.55 107.5 -61.4 107.15 -61.25 106.8 -61.15 106.45 -61.05 106.1 -60.95 105.75 -60.85 105.4 -60.8 105.1 -60.75 104.8 -60.7 104.5 -60.65 104.2 -60.6 103.95 -60.55 103.7 -60.55 103.45 -60.5 103.2 -60.45 103.45 -60.35 103.7 -60.3 104.0 -60.2 104.25 -60.1 104.6 -60.0 104.9 -59.9 105.2 -59.75 105.5 -59.65 105.85 -59.5 106.2 -59.3 106.55 -59.15 106.9 -58.95 107.25 -58.75 107.6 -58.55 108.0 -58.3 108.35 -58.3 108.35 -58.2 108.5 -58.1 108.65 -57.95 108.85 -57.75 109.1 -57.55 109.4 -57.3 109.75 -56.95 110.1 -56.6 110.5 -56.25 110.9 -55.8 111.4 -55.35 111.8 -54.85 112.3 -54.35 112.7 -53.75 113.2 -53.15 113.6 -52.35 114.15 -51.4 114.65 -50.5 115.2 -49.4 115.6 -48.3 116.05 -47.1 116.4 -45.85 116.8 -44.55 117.05 -43.15 117.35 -41.75 117.5 -40.25 117.7 -38.75 117.8 -37.15 117.85 -35.55 117.85 -33.9 117.8 -32.2 117.65 -32.7 117.45 -33.15 117.2 -33.65 117.0 -34.1 116.75 -34.5 116.55 -34.9 116.35 -35.3 116.1 -35.7 115.9 -36.05 115.65 -36.4 115.45 -36.75 115.25 -37.1 115.0 -37.4 114.8 -37.7 114.6 -37.95 114.45 -38.2 114.25 -38.55 114.0 -38.75 113.85 -39.0 113.65 -39.25 113.5 -39.5 113.3 -39.7 113.15 -39.9 112.95 -40.1 112.8 -40.35 112.6 -40.5 112.4 -40.7 112.25 -40.9 112.05 -41.1 111.85 -41.3 111.6 -41.45 111.4 -41.65 111.15 -41.9 110.8 -42.15 110.5 -42.35 110.15 -42.55 109.8 -42.75 109.5 -42.9 109.15 -43.05 108.8 -43.2 108.45 -43.35 108.15 -43.45 107.8 -43.55 107.45 -43.7 107.1 -43.8 106.75 -43.9 106.4 -43.95 106.1 -44.1 105.65 -44.25 105.1 -44.4 104.5 -44.55 103.85 -44.65 103.25 -44.8 102.6 -44.9 102.0 -45.0 101.35 -45.1 100.8 -45.15 100.2 -45.15 99.7 -45.2 99.2 -45.15 98.85 -45.15 98.45 -45.05 98.25 -45.0 98.0 -44.85 97.95 -44.75 97.9 -44.6 98.0 -44.5 98.05 -44.35 98.2 -44.25 98.35 -44.05 98.6 -43.95 98.8 -43.7 99.1 -43.85 98.95 -43.35 99.75 -43.1 100.15 -42.9 100.45 -42.6 100.85 -42.35 101.2 -42.05 101.6 -41.75 102.0 -41.4 102.45 -41.05 102.75 -40.75 103.1 -40.35 103.4 -40.0 103.65 -39.55 103.95 -39.15 104.2 -38.6 104.5 -38.15 104.75 -37.45 105.1 -37.75 104.95 -35.95 105.85 -34.95 106.35 -34.1 106.8 -33.0 107.4 -31.85 108.0 -26.3 110.95 -23.65 113.0 -22.95 113.5 -22.35 114.0 -21.8 114.5 -21.35 114.95 -20.9 115.35 -20.5 115.75 -20.15 116.1 -19.85 116.45 -19.6 116.75 -19.4 117.05 -19.2 117.3 -19.05 117.55 -18.9 117.75 -18.8 117.95 -18.7 118.1 -18.6 118.3 -18.5 118.55 -18.4 118.7 -18.3 118.95 -18.15 119.25 -18.05 119.65 -17.9 120.0 -17.75 120.45 -17.65 120.9 -17.55 121.4 -17.5 121.9 -17.4 122.45 -17.4 123.0 -17.4 123.55 -17.5 124.15 -17.55 124.8 -17.75 125.4 -17.8 125.55 -17.85 125.7 -17.9 125.85 -17.95 126.0 -18.0 126.15 -18.05 126.25 -18.1 126.4 -18.15 126.55 -18.25 126.65 -18.3 126.75 -18.35 126.85 -18.4 127.0 -18.45 127.1 -18.5 127.15 -18.55 127.25 -18.6 127.35 -18.2 127.2 -17.75 127.0 -17.4 126.8 -17.0 126.65 -16.65 126.45 -16.25 126.25 -15.95 126.1 -15.6 125.9 -15.3 125.7 -15.0 125.55 -14.7 125.35 -14.45 125.2 -14.15 125.0 -13.9 124.85 -13.7 124.7 -13.45 124.55 -12.75 124.05 -12.0 123.45 -11.35 122.9 -10.65 122.3 -10.05 121.75 -9.45 121.15 -8.9 120.6 -8.35 120.05 -7.9 119.6 -7.45 119.1 -7.15 118.7 -6.8 118.35 -6.55 118.1 -6.4 117.85 -6.3 117.75 -6.25 117.65 -6.2 117.7 -6.1 117.75 -6.05 117.8 -5.95 117.85 -5.85 117.9 -5.75 117.95 -5.65 117.95 -5.55 118.0 -5.45 118.05 -5.35 118.1 -5.25 118.15 -5.15 118.15 -5.0 118.2 -4.9 118.25 -4.75 118.25 -4.65 118.3 -4.3 118.35 -4.0 118.35 -3.65 118.3 -3.35 118.25 -3.05 118.15 -2.75 118.0 -2.45 117.9 -2.1 117.7 -1.75 117.5 -1.4 117.25 -1.1 117.05 -0.6 116.75 -0.9 116.95 0.25 116.15 0.8 115.75 1.25 115.45 2.4 114.7 3.35 114.15 3.8 113.9 4.65 113.4 5.3 113.05 5.7 112.8 6.35 112.4 7.15 111.8 7.6 111.4 7.4 111.55 7.6 111.4 7.75 111.3 8.0 111.1 8.2 110.9 8.4 110.7 8.65 110.5 8.9 110.25 9.15 110.05 9.45 109.75 9.7 109.5 10.0 109.2 10.3 108.9 10.65 108.55 10.95 108.25 11.15 108.0 11.4 107.75 11.6 107.5 11.8 107.3 11.95 107.05 12.15 106.8 12.35 106.6 12.5 106.35 12.7 106.15 12.85 105.9 13.0 105.7 13.2 105.5 13.35 105.3 13.45 105.05 13.6 104.9 13.75 104.7 13.8 104.75 13.85 104.85 13.9 104.9 13.95 105.0 14.05 105.05 14.1 105.15 14.15 105.25 14.2 105.35 14.25 105.45 14.3 105.55 14.35 105.65 14.4 105.75 14.45 105.9 14.5 106.0 14.55 106.15 14.6 106.25 14.7 106.6 14.75 107.0 14.8 107.35 14.8 107.75 14.75 108.1 14.7 108.5 14.6 108.8 14.5 109.2 14.4 109.5 14.25 109.85 14.1 110.2 13.95 110.55 13.8 110.85 13.6 111.2 13.45 111.45 13.25 111.8 12.9 112.45 12.5 113.05 12.1 113.7 11.7 114.3 11.3 114.9 10.9 115.5 10.5 116.1 10.1 116.65 9.7 117.25 9.25 117.8 8.9 118.35 8.45 118.85 8.05 119.35 7.65 119.9 7.3 120.35 6.9 120.85 7.05 120.9 7.2 120.9 7.35 120.95 7.5 121.0 7.7 121.05 7.85 121.05 8.05 121.1 8.25 121.1 8.45 121.15 8.65 121.15 8.9 121.2 9.1 121.2 9.35 121.2 9.6 121.2 9.8 121.25 10.05 121.2 10.6 121.2 11.1 121.15 11.6 121.1 12.1 121.0 12.6 120.9 13.05 120.75 13.5 120.6 14.0 120.4 14.45 120.25 14.9 120.05 15.35 119.85 15.85 119.6 16.25 119.35 16.8 119.1 17.15 118.9 17.8 118.55 18.35 118.25 18.95 117.9 19.45 117.55 20.0 117.2 20.45 116.9 20.95 116.55 21.4 116.25 21.85 115.9 22.3 115.6 22.7 115.25 23.1 114.95 23.45 114.65 23.8 114.35 24.15 114.05 24.45 113.8 24.8 113.5 25.45 112.9 25.75 112.6 26.25 112.15 26.6 111.8 27.05 111.4 27.4 111.05 27.75 110.65 28.1 110.25 28.45 109.9 28.7 109.5 29.0 109.1 29.25 108.7 29.5 108.3 29.75 107.85 29.95 107.4 30.15 106.9 30.3 106.5 30.45 106.05 30.6 105.65 30.7 105.25 30.8 104.85 30.85 104.45 30.9 104.1 30.95 103.7 31.0 103.35 31.0 103.0 31.05 102.7 31.05 102.35 31.05 102.05 31.05 101.75 31.05 101.5 31.05 101.25 31.2 101.45 31.4 101.65 31.6 101.9 31.8 102.15 32.0 102.4 32.2 102.65 32.45 102.9 32.7 103.15 32.95 103.45 33.2 103.7 33.45 104.0 33.75 104.3 34.05 104.6 34.3 104.9 34.65 105.25 34.95 105.55 35.5 106.1 35.7 106.3 36.1 106.7 36.4 107.0 36.8 107.35 37.1 107.65 37.5 108.0 37.85 108.25 38.2 108.6 38.55 108.85 38.95 109.2 39.3 109.45 39.7 109.75 40.1 110.0 40.5 110.3 40.95 110.55 41.25 110.7 41.5 110.9 41.8 111.05 42.15 111.25 42.5 111.4 42.85 111.6 43.2 111.75 43.6 111.95 44.05 112.15 44.45 112.3 44.9 112.5 45.4 112.65 45.9 112.8 46.4 112.95 46.9 113.1 47.45 113.25 47.15 112.75 46.85 112.2 46.6 111.7 46.35 111.15 46.1 110.7 45.85 110.2 45.65 109.7 45.45 109.25 45.3 108.8 45.1 108.35 44.95 107.95 44.85 107.5 44.7 107.1 44.6 106.75 44.5 106.4 44.4 106.05 44.2 105.4 44.1 105.0 43.95 104.4 43.85 103.95 43.7 103.35 43.65 102.85 43.55 102.25 43.5 101.7 43.4 101.15 43.4 100.6 43.4 100.0 43.45 99.4 43.5 98.8 43.6 98.2 43.7 97.6 43.9 96.95 43.95 96.8 44.0 96.6 44.05 96.45 44.1 96.3 44.15 96.15 44.25 96.0 44.3 95.9 44.35 95.75 44.4 95.6 44.45 95.5 44.5 95.4 44.55 95.25 44.6 95.15 44.65 95.05 44.7 94.95 44.75 94.9 45.0 95.05 45.3 95.15 45.6 95.3 45.9 95.5 46.2 95.65 46.5 95.85 46.85 96.05 47.15 96.25 47.5 96.5 47.85 96.75 48.2 97.0 48.55 97.3 48.95 97.6 49.3 97.9 49.65 98.2 50.0 98.55 50.55 99.05 51.0 99.6 51.45 100.1 51.9 100.6 52.3 101.1 52.65 101.65 53.0 102.1 53.3 102.6 53.55 103.0 53.8 103.45 54.05 103.85 54.25 104.3 54.4 104.6 54.55 104.95 54.7 105.25 54.8 105.55 55.05 106.1 55.15 106.45 55.4 107.0 55.55 107.5 55.75 108.1 55.95 108.65 56.1 109.3 56.25 109.95 56.4 110.65 56.45 111.35 56.5 112.05 56.5 112.8 56.5 113.6 56.4 114.35 56.25 115.15 56.05 115.95 55.9 116.4 55.75 116.8 55.6 117.2 55.45 117.6 55.25 118.0 55.05 118.35 54.9 118.65 54.7 119.0 54.5 119.3 54.3 119.6 54.1 119.85 53.9 120.1 53.75 120.35 53.55 120.6 53.4 120.8 53.2 121.0 53.45 120.95 53.65 120.9 53.9 120.85 54.15 120.8 54.4 120.75 54.65 120.7 54.95 120.65 55.2 120.55 55.5 120.5 55.75 120.4 56.05 120.3 56.35 120.2 56.7 120.1 57.0 120.0 57.3 119.9 57.6 119.75 57.85 119.65 58.15 119.55 58.45 119.4 58.75 119.25 59.1 119.1 59.45 118.9 59.8 118.7 60.15 118.5 60.55 118.25 60.95 118.0 61.4 117.75 61.8 117.45 62.2 117.15 62.65 116.8 63.1 116.45 63.5 116.1 63.75 115.9 63.95 115.7 64.2 115.45 64.45 115.2 64.75 114.9 65.0 114.6 65.3 114.25 65.6 113.9 65.9 113.5 66.2 113.15 66.55 112.7 66.85 112.25 67.15 111.75 67.45 111.25 67.75 110.75 68.05 110.2 68.15 110.0 68.25 109.75 68.35 109.55 68.45 109.35 68.55 109.15 68.6 108.95 68.7 108.8 68.8 108.6 68.85 108.4 68.9 108.2 69.0 108.05 69.05 107.9 69.1 107.7 69.15 107.55 69.2 107.4 69.25 107.25 69.35 107.45 69.45 107.65 69.6 107.85 69.7 108.05 69.85 108.3 70.0 108.55 70.15 108.75 70.3 109.0 70.45 109.25 70.65 109.5 70.85 109.75 71.05 110.0 71.25 110.25 71.5 110.55 71.7 110.8 71.95 111.05 72.2 111.3 72.35 111.5 72.65 111.75 72.9 112.0 73.25 112.3 73.55 112.55 73.95 112.9 74.35 113.15 74.8 113.5 75.3 113.75 75.8 114.05 76.35 114.3 76.9 114.6 77.5 114.8 78.15 115.05 78.8 115.2 79.3 115.35 79.85 115.4 80.3 115.5 80.8 115.55 81.25 115.6 81.75 115.6 82.15 115.6 82.6 115.6 83.0 115.6 83.4 115.55 83.75 115.5 84.1 115.45 84.45 115.4 84.75 115.35 85.05 115.3 85.3 115.2 83.8 114.15 82.6 112.65 82.2 112.15 81.9 111.65 81.55 111.15 81.3 110.65 81.05 110.2 80.85 109.7 80.65 109.25 80.5 108.8 80.35 108.45 80.25 108.05 80.15 107.7 80.1 107.4 80.05 107.1 80.0 106.85 79.95 106.7 79.95 106.5 79.9 106.15 79.85 105.75 79.8 105.4 79.8 105.05 79.8 104.7 79.8 104.4 79.8 104.05 79.85 103.75 79.85 103.45 79.9 103.15 79.95 102.85 79.95 102.6 80.0 102.35 80.05 102.1 80.1 101.85 80.15 101.6 80.3 101.8 80.4 101.95 80.6 102.15 80.75 102.35 80.95 102.55 81.15 102.75 81.35 103.0 81.55 103.2 81.8 103.45 82.05 103.65 82.35 103.85 82.65 104.1 82.95 104.3 83.25 104.5 83.6 104.75 83.95 104.9 84.25 105.05 84.45 105.15 84.75 105.35 85.05 105.45 85.35 105.6 85.65 105.75 86.0 105.85 86.35 105.95 86.75 106.1 87.15 106.15 87.55 106.25 87.95 106.25 88.4 106.3 88.8 106.25 89.3 106.25 89.75 106.15 90.25 106.05 90.7 105.9 91.15 105.7 91.55 105.5 91.95 105.3 92.3 105.05 92.6 104.85 92.9 104.6 93.2 104.35 93.45 104.1 93.65 103.85 93.85 103.65 94.05 103.45 94.2 103.25 94.3 103.1 94.4 102.95 94.15 102.9 93.9 102.85 93.6 102.8 93.35 102.75 93.05 102.7 92.75 102.6 92.4 102.55 92.05 102.4 91.7 102.3 91.4 102.2 91.0 102.05 90.65 101.9 90.25 101.75 89.9 101.55 89.5 101.35 89.1 101.15 88.45 100.75 87.8 100.3 87.25 99.85 86.7 99.4 86.2 98.95 85.7 98.45 85.3 97.95 84.9 97.45 84.55 97.0 84.2 96.55 83.9 96.1 83.65 95.65 83.4 95.25 83.2 94.85 83.05 94.5 82.85 94.15 82.7 93.8 82.65 93.65 82.5 93.35 82.4 93.1 82.3 92.8 82.2 92.5 82.1 92.15 82.0 91.85 81.9 91.5 81.85 91.1 81.75 90.75 81.7 90.35 81.65 89.95 81.65 89.5 81.6 89.05 81.65 88.65 81.65 88.45 81.65 88.3 81.7 88.05 81.7 87.85 81.75 87.6 81.75 87.35 81.8 87.1 81.85 86.85 81.9 86.6 82.0 86.3 82.05 86.05 82.2 85.75 82.3 85.45 82.45 85.15 82.55 84.85 82.75 84.6 82.9 84.3 83.1 84.1 83.25 83.9 83.45 83.7 83.6 83.5 83.8 83.35 83.95 83.2 84.2 83.05 84.3 82.95 84.65 82.7 84.95 82.45 85.2 82.3 85.5 82.05 85.8 81.8 86.2 81.5 86.55 81.15 86.95 80.75 87.15 80.6 87.5 80.3 87.7 80.05 88.0 79.8 88.2 79.6 88.45 79.35 88.65 79.1 88.85 78.85 89.05 78.65 89.25 78.4 89.4 78.15 89.55 77.9 89.7 77.65 89.85 77.4 90.0 77.1 90.2 76.6 90.35 76.1 90.5 75.6 90.55 75.05 90.6 74.6 90.6 74.1 90.6 73.65 90.6 73.2 90.55 72.8 90.5 72.4 90.45 72.05 90.35 71.7 90.3 71.4 90.2 71.1 90.15 70.95 90.1 70.75 89.85 69.9 89.2 68.45 87.95 65.85 87.3 64.25 87.25 64.15 87.2 64.05 87.15 63.9 87.1 63.8 87.05 63.7 87.05 63.55 87.0 63.45 86.95 63.3 86.9 63.15 86.9 63.0 86.85 62.85 86.8 62.7 86.8 62.55 86.8 62.4 86.8 62.2 86.8 62.05 86.8 61.85 86.85 61.65 86.85 61.5 86.9 61.35 86.95 61.2 86.95 61.1 87.0 61.0 87.05 60.85 87.1 60.7 87.15 60.65 87.2 60.5 87.2 60.4 87.25 60.25 87.25 60.15 87.3 60.0 87.3 59.85 87.3 59.6 87.25 59.4 87.2 59.25 87.15 59.05 87.1 58.9 87.0 58.75 86.9 58.65 86.8 58.45 86.65 58.2 86.6 58.15 86.5 57.95 86.4 57.8 86.3 57.6 86.2 57.4 86.1 57.15 86.05 56.9 86.0 56.75 86.0 56.6 86.0 56.5 85.95 56.35 85.95 56.2 85.95 56.05 85.95 55.9 86.0 55.75 86.0 55.6 86.0 55.4 86.05 55.25 86.05 55.05 86.1 54.9 86.1 54.65 86.15 54.5 86.2 54.2 86.25 53.75 86.35 53.35 86.4 53.0 86.5 52.7 86.55 52.45 86.65 52.15 86.7 52.0 86.75 51.75 86.85 51.5 86.9 51.4 86.95 51.25 86.95 51.1 87.0 50.95 87.05 50.8 87.05 50.6 87.05 50.4 87.05 50.2 87.0 50.05 87.0 49.85 86.95 49.7 86.85 49.55 86.8 49.35 86.7 49.2 86.55 48.95 86.45 48.8 86.25 48.5 86.8 49.35 85.85 47.9 85.55 47.45 85.35 47.1 85.0 46.6 84.7 46.1 84.35 45.55 84.15 45.25 83.9 44.8 83.7 44.45 83.5 44.1 83.3 43.8 83.15 43.45 83.0 43.2 82.85 42.9 82.75 42.7 82.65 42.45 82.55 42.2 82.5 42.0 82.45 41.8 82.4 41.6 82.4 41.45 82.4 41.1 82.4 40.8 82.45 40.5 82.5 40.2 82.6 40.0 82.7 39.7 82.75 39.6 82.9 39.25 83.0 38.95 83.1 38.8 83.2 38.5 83.25 38.25 83.35 37.95 83.35 37.65 83.4 37.3 83.35 36.9 83.35 36.6 83.3 36.3 83.25 36.05 83.15 35.75 83.1 35.5 83.0 35.25 82.9 35.0 82.8 34.75 82.7 34.55 82.6 34.35 82.5 34.15 82.4 33.95 82.3 33.8 82.2 33.65 82.15 33.55 82.0 33.35 81.75 33.0 81.55 32.7 81.3 32.4 81.05 32.15 80.85 31.95 80.6 31.7 80.4 31.55 80.15 31.35 79.95 31.2 79.65 31.0 79.35 30.8 79.2 30.7 78.95 30.5 78.8 30.3 78.55 30.15 78.35 29.9 78.05 29.6 77.8 29.3 77.6 28.95 77.4 28.6 77.25 28.25 77.1 27.85 77.0 27.5 76.9 27.0 76.8 26.55 76.7 26.0 76.65 25.5 76.55 24.8 76.5 24.3 76.4 23.35 76.3 22.15 76.25 21.7 76.1 20.1 75.95 18.8 75.8 17.65 75.65 16.7 75.55 15.9 75.4 15.15 75.35 14.7 75.2 14.05 75.1 13.4 75.05 13.15 74.95 12.7 74.95 12.35 74.85 11.9 74.85 11.35 74.8 10.8 74.8 10.05 74.75 9.2 74.8 8.6 74.85 7.95 74.95 6.85 75.0 6.25 75.3 3.7 75.6 0.85 75.9 -1.8 76.95 -12.05 77.25 -16.75 77.5 -21.5 77.5 -24.85 77.5 -25.75 77.45 -26.7 77.45 -27.55 77.4 -28.4 77.4 -29.15 77.35 -29.95 77.3 -30.65 77.25 -31.3 77.2 -31.9 77.2 -32.5 77.15 -33.0 77.1 -33.45 77.05 -33.85 77.05 -34.2 77.0 -34.4 77.0 -34.65 76.85 -36.1 76.8 -36.75 76.65 -37.9 76.55 -38.75 76.45 -39.85 76.3 -40.75 76.15 -41.8 76.0 -42.75 75.8 -43.8 75.6 -44.75 75.4 -45.75 75.1 -46.75 74.85 -47.8 74.55 -48.85 74.2 -49.9 73.8 -50.95 73.45 -51.9 73.1 -52.8 72.7 -53.65 72.3 -54.55 71.95 -55.35 71.5 -56.15 71.1 -56.95 70.7 -57.7 70.3 -58.45 69.8 -59.2 69.4 -59.9 68.9 -60.7 68.5 -61.35 68.0 -62.15 67.7 -62.6 67.05 -63.6 66.6 -64.3 66.15 -64.95 65.75 -65.6 65.3 -66.2 64.9 -66.8 64.5 -67.35 64.1 -67.9 63.7 -68.45 63.35 -68.9 62.95 -69.4 62.65 -69.85 62.25 -70.3 61.95 -70.65 61.65 -71.1 61.4 -71.35 61.05 -71.8 60.25 -72.8 59.85 -73.3 59.15 -74.15 58.55 -74.85 57.85 -75.7 57.25 -76.45 56.5 -77.25 55.8 -78.05 55.05 -78.85 54.3 -79.65 53.5 -80.5 52.65 -81.3 51.8 -82.15 50.9 -82.95 49.9 -83.85 48.95 -84.65 48.2 -85.3 47.7 -85.7 46.95 -86.3 46.25 -86.85 45.45 -87.45 44.7 -88.05 43.85 -88.65 43.0 -89.25 42.05 -89.9 41.1 -90.5 40.05 -91.15 39.0 -91.75 37.9 -92.35 36.7 -92.95 35.5 -93.55 34.2 -94.1 33.0 -94.6 31.8 -95.1 30.65 -95.5 29.5 -95.9 28.45 -96.2 27.35 -96.5 26.4 -96.8 25.45 -97.0 24.6 -97.25 23.75 -97.4 23.05 -97.55 22.35 -97.65 21.8 -97.75 21.25 -97.85 20.9 -97.9 20.5 -97.95 19.05 -98.15 17.65 -98.2 16.3 -98.3 14.95 -98.3 13.65 -98.3 12.25 -98.2 10.95 -98.1 9.55 -97.95 8.2 -97.75 6.7 -97.5 5.3 -97.25 3.6 -96.95 2.2 -96.65 0.3 -96.25 -1.05 -95.95 -3.4 -95.45 -5.1 -95.05 -6.8 -94.65 -8.4 -94.3 -9.95 -93.85 -11.4 -93.5 -12.85 -93.1 -14.15 -92.7 -15.4 -92.35 -16.55 -92.0 -17.65 -91.65 -18.6 -91.35 -19.5 -91.05 -20.25 -90.8 -21.0 -90.55 -21.5 -90.35 -22.05 -90.2 -23.4 -89.7 -24.7 -89.25 -26.1 -88.7 -27.5 -88.15 -29.0 -87.55 -30.5 -86.9 -32.1 -86.25 -33.65 -85.55 -35.3 -84.8 -36.95 -84.0 -38.7 -83.2 -40.4 -82.35 -42.15 -81.45 -43.95 -80.5 -45.75 -79.5 -47.6 -78.45 L-47.6 -78.45" fill="#ffadec" fill-rule="evenodd" stroke="none"/>
  </g>
</svg>
