<?xml version="1.0" encoding="UTF-8" standalone="no"?>
<svg xmlns:xlink="http://www.w3.org/1999/xlink" height="238.95px" width="220.95px" xmlns="http://www.w3.org/2000/svg">
  <g transform="matrix(1.0, 0.0, 0.0, 1.0, 110.5, 119.45)">
    <path d="M-30.8 139.6 Q-30.65 140.75 -30.4 143.0 -30.7 143.05 -30.95 143.1 -31.3 143.15 -31.6 143.2 -31.95 143.25 -32.3 143.25 -32.7 143.3 -33.05 143.35 -33.45 143.35 -33.85 143.35 -34.3 143.35 -34.75 143.35 -35.2 143.35 -35.65 143.3 -36.15 143.25 -36.6 143.2 -37.9 143.05 -39.15 142.75 -40.3 142.45 -41.4 142.0 -42.45 141.6 -43.45 141.1 -44.35 140.65 -45.25 140.1 -46.0 139.65 -46.75 139.1 -47.4 138.6 -48.0 138.1 -48.5 137.7 -49.0 137.25 -49.3 136.95 -49.7 136.55 -50.3 135.95 -50.9 135.3 -51.45 134.7 -51.95 134.05 -52.4 133.4 -52.85 132.8 -53.25 132.2 -53.6 131.55 -53.95 130.95 -54.3 130.35 -54.6 129.8 -54.85 129.2 -55.1 128.7 -55.35 128.15 -55.55 127.7 -55.8 127.15 -57.4 123.4 -58.85 119.45 -60.2 115.85 -61.4 112.1 -62.5 108.7 -63.45 105.25 -64.35 102.15 -65.1 99.05 -65.8 96.3 -66.35 93.6 -66.85 91.3 -67.25 89.05 -67.6 87.25 -67.85 85.6 -68.05 84.35 -68.2 83.3 -68.3 82.45 -68.4 81.65 -68.5 80.85 -68.6 80.05 -68.7 79.3 -68.75 78.55 -68.85 77.85 -68.9 77.15 -69.0 76.5 -69.05 75.8 -69.1 75.2 -69.15 74.55 -69.2 74.0 -69.25 73.45 -69.3 72.9 -69.35 72.4 -69.4 73.5 -69.4 74.6 -69.4 75.8 -69.4 77.05 -69.4 78.35 -69.4 79.65 -69.35 81.1 -69.3 82.5 -69.25 84.0 -69.15 85.5 -69.05 87.1 -68.95 88.7 -68.8 90.35 -68.65 92.05 -68.45 93.8 -68.25 95.55 -66.95 105.1 -65.45 111.1 -65.15 112.25 -64.8 113.4 -64.4 114.75 -63.95 116.1 -63.4 117.65 -62.8 119.25 -62.1 121.0 -61.3 122.75 -60.45 124.65 -59.45 126.55 -58.4 128.65 -57.2 130.7 -55.9 132.9 -54.5 135.1 -52.95 137.45 -51.25 139.75 -51.85 139.7 -52.4 139.6 -53.05 139.55 -53.7 139.45 -54.35 139.35 -55.05 139.2 -55.8 139.1 -56.5 138.95 -57.3 138.8 -58.05 138.6 -58.85 138.45 -59.65 138.25 -60.5 138.0 -61.35 137.8 -62.25 137.55 -63.1 137.25 -64.95 136.65 -66.8 136.0 -68.5 135.35 -70.15 134.6 -71.7 133.9 -73.25 133.15 -74.6 132.45 -75.95 131.65 -77.15 130.95 -78.35 130.25 -79.4 129.6 -80.4 128.9 -81.25 128.3 -82.1 127.7 -82.7 127.3 -83.5 126.7 -85.95 124.9 -88.15 122.9 -90.3 120.9 -92.15 118.75 -94.05 116.6 -95.65 114.25 -97.25 111.9 -98.55 109.4 -99.85 106.9 -100.95 104.25 -102.0 101.6 -102.8 98.8 -103.6 96.05 -104.15 93.1 -104.65 90.2 -104.95 87.1 -105.25 84.25 -105.3 81.25 -105.4 78.4 -105.3 75.45 -105.2 72.65 -104.9 69.7 -104.65 66.95 -104.2 64.0 -103.85 61.25 -103.3 58.3 -102.8 55.6 -102.2 52.65 -101.6 50.05 -100.9 47.0 -100.35 44.55 -99.55 41.4 -98.45 36.95 -97.1 32.35 -95.85 27.95 -94.35 23.4 -92.95 19.05 -91.35 14.55 -89.8 10.3 -88.1 5.75 -86.5 1.6 -84.65 -2.95 -83.0 -7.0 -81.1 -11.6 -79.5 -15.4 -77.4 -20.25 -76.4 -22.65 -73.7 -28.85 -72.9 -30.75 -71.45 -33.45 -69.0 -38.15 -69.05 -38.05 -68.35 -39.45 -67.8 -40.9 -67.25 -42.3 -66.85 -43.75 -66.5 -45.15 -66.25 -46.65 -66.0 -48.05 -65.9 -49.55 -65.8 -51.0 -65.85 -52.5 -65.9 -53.95 -66.0 -55.45 -66.15 -56.95 -66.4 -58.45 -66.65 -59.9 -67.0 -61.45 -67.5 -63.6 -67.75 -65.75 -67.95 -67.9 -68.0 -70.0 -68.05 -72.1 -67.85 -74.2 -67.7 -76.25 -67.35 -78.3 -67.0 -80.35 -66.5 -82.4 -65.95 -84.4 -65.3 -86.4 -64.65 -88.4 -63.8 -90.4 -63.0 -92.35 -62.1 -94.35 -62.05 -94.4 -62.05 -94.4 -62.05 -94.45 -62.0 -94.5 -62.0 -94.5 -61.95 -94.55 -61.95 -94.6 -61.95 -94.65 -60.65 -98.0 -58.95 -100.95 -57.3 -103.85 -55.3 -106.35 -53.35 -108.8 -51.0 -110.9 -48.8 -112.95 -46.2 -114.65 -43.7 -116.35 -40.85 -117.7 -38.1 -119.0 -35.05 -120.05 -32.1 -121.0 -28.8 -121.75 -25.65 -122.45 -22.2 -122.9 -19.1 -123.3 -16.1 -123.5 -13.0 -123.7 -10.0 -123.7 -6.95 -123.75 -3.95 -123.55 -0.95 -123.35 2.05 -122.95 5.0 -122.55 7.95 -121.95 10.9 -121.35 13.85 -120.5 16.75 -119.7 19.65 -118.7 22.55 -117.65 25.4 -116.45 26.7 -115.9 27.95 -115.25 29.2 -114.6 30.4 -113.85 31.6 -113.15 32.75 -112.35 33.85 -111.55 35.0 -110.65 36.05 -109.85 37.15 -108.9 38.15 -108.0 39.2 -107.05 40.2 -106.15 41.25 -105.1 42.2 -104.15 43.2 -103.1 43.95 -102.35 44.55 -101.45 45.15 -100.6 45.6 -99.7 46.05 -98.8 46.4 -97.8 46.7 -96.9 47.0 -95.85 47.2 -94.9 47.4 -93.8 47.55 -92.9 47.65 -91.75 47.75 -90.9 47.9 -89.7 47.75 -91.1 48.05 -87.65 48.45 -83.55 48.7 -73.75 49.0 -64.8 49.6 -59.9 49.95 -56.85 50.45 -53.85 50.95 -50.85 51.55 -47.9 52.15 -44.95 52.9 -42.0 53.65 -39.05 54.5 -36.2 55.4 -33.3 56.4 -30.45 57.45 -27.6 58.6 -24.85 59.75 -22.0 61.05 -19.3 62.35 -16.5 63.8 -13.85 65.2 -11.25 71.95 0.95 77.0 9.95 79.9 15.85 80.65 17.4 81.3 18.85 82.0 20.4 82.55 21.9 83.15 23.5 83.55 25.05 84.05 26.65 84.35 28.25 84.65 29.85 84.8 31.45 84.95 33.1 84.95 34.7 84.9 36.35 84.65 38.0 84.45 39.65 83.95 41.3 83.6 42.5 83.2 43.7 82.8 44.9 82.35 46.1 81.9 47.25 81.35 48.5 80.9 49.6 80.35 50.85 79.8 51.95 79.25 53.15 78.7 54.2 78.1 55.45 77.6 56.45 76.9 57.75 76.65 58.25 75.75 60.0 75.45 60.55 75.25 61.05 75.0 61.55 74.85 62.05 74.65 62.55 74.5 63.0 74.35 63.5 74.3 64.0 74.2 64.5 74.15 65.0 74.1 65.5 74.15 66.05 74.15 66.55 74.2 67.1 74.25 67.65 74.4 68.25 77.2 82.15 78.2 87.7 80.25 98.6 81.45 107.2 81.75 109.3 81.8 111.3 81.85 113.35 81.7 115.3 81.5 117.25 81.1 119.15 80.7 121.05 80.05 122.8 79.35 124.6 78.45 126.3 77.55 127.95 76.35 129.55 75.15 131.1 73.7 132.55 72.2 134.0 70.45 135.3 69.35 136.1 68.2 136.8 67.0 137.5 65.8 138.1 64.6 138.65 63.35 139.1 62.15 139.55 60.85 139.9 59.6 140.2 58.25 140.4 56.95 140.6 55.6 140.65 54.25 140.7 52.9 140.65 51.55 140.6 50.15 140.4 49.8 140.35 49.55 140.3 49.2 140.25 48.9 140.2 48.6 140.1 48.35 140.0 48.05 139.9 47.85 139.75 47.6 139.55 47.5 139.35 47.4 139.1 47.4 138.85 47.45 138.5 47.6 138.15 47.8 137.75 48.15 137.3 49.35 135.75 50.35 134.15 51.35 132.55 52.15 130.85 52.9 129.2 53.55 127.45 54.15 125.75 54.6 123.95 55.0 122.2 55.35 120.35 55.6 118.6 55.8 116.7 55.95 114.9 56.05 113.0 56.1 111.15 56.1 109.2 56.1 108.15 56.05 107.1 56.05 106.05 56.0 104.95 55.95 103.9 55.85 102.85 55.8 101.8 55.7 100.7 55.65 99.65 55.55 98.6 55.45 97.55 55.35 96.45 55.25 95.45 55.15 94.35 55.05 93.3 54.9 92.25 55.3 87.0 54.15 103.05 53.65 109.4 53.2 113.8 53.15 114.5 53.05 115.15 52.95 115.85 52.85 116.55 52.7 117.2 52.6 117.9 52.45 118.55 52.3 119.25 52.2 119.95 52.0 120.6 51.85 121.3 51.7 121.95 51.55 122.6 51.35 123.3 51.15 123.95 51.0 124.65 50.4 126.8 49.5 128.7 48.65 130.55 47.55 132.2 46.45 133.8 45.15 135.2 43.85 136.55 42.35 137.65 40.85 138.8 39.15 139.7 37.45 140.55 35.55 141.2 33.7 141.9 31.65 142.35 29.65 142.75 27.45 143.0 23.25 143.5 17.2 143.8 -15.05 145.5 6.9 144.3 6.3 144.35 5.85 144.3 5.35 144.3 5.05 144.25 4.7 144.2 4.45 144.05 4.25 143.95 4.15 143.75 4.0 143.55 4.0 143.3 4.0 143.0 4.1 142.65 4.2 142.3 4.45 141.85 4.65 141.45 4.95 140.85 6.15 138.65 7.2 136.3 8.15 134.05 9.0 131.65 9.8 129.35 10.45 126.95 11.1 124.6 11.6 122.1 12.1 119.8 12.45 117.25 12.85 114.9 13.1 112.35 13.35 110.0 13.55 107.35 13.75 105.05 13.9 102.35 13.5 104.25 10.85 115.95 9.0 124.2 7.8 129.5 7.75 129.8 7.65 130.1 7.6 130.35 7.5 130.65 7.4 130.95 7.35 131.25 7.25 131.5 7.15 131.8 7.05 132.1 6.95 132.35 6.85 132.65 6.75 132.9 6.65 133.2 6.55 133.45 6.45 133.75 6.3 134.0 5.45 135.95 4.75 137.3 4.0 138.7 3.3 139.65 2.6 140.6 1.85 141.25 1.1 141.85 0.25 142.2 -0.55 142.55 -1.6 142.7 -2.5 142.8 -3.8 142.85 -4.7 142.85 -6.5 142.8 -8.85 142.7 -9.8 142.7 -10.25 142.7 -10.6 142.6 -10.95 142.5 -11.2 142.35 -11.45 142.2 -11.65 141.95 -11.8 141.75 -11.95 141.45 -12.05 141.2 -12.15 140.9 -12.2 140.6 -12.25 140.3 -12.3 140.05 -12.35 139.65 -12.4 139.1 -12.4 139.05 -13.8 128.45 -15.95 110.45 -16.0 110.05 -16.25 107.35 -16.45 105.45 -16.7 104.2 -19.3 137.65 -20.05 139.5 -20.1 139.65 -20.2 139.85 -20.25 140.0 -20.35 140.2 -20.4 140.35 -20.45 140.5 -20.55 140.65 -20.6 140.8 -20.65 140.95 -20.75 141.1 -20.8 141.25 -20.85 141.4 -20.9 141.55 -21.0 141.7 -21.05 141.8 -21.1 141.95 -21.15 142.05 -21.2 142.2 -21.35 142.2 -21.5 142.25 -21.7 142.25 -21.85 142.25 -22.0 142.3 -22.2 142.3 -22.35 142.3 -22.55 142.3 -22.7 142.3 -22.9 142.3 -23.1 142.3 -23.25 142.3 -23.45 142.3 -23.65 142.3 -23.85 142.3 -24.05 142.25 -24.65 142.2 -25.2 142.1 -25.75 142.0 -26.3 141.85 -26.8 141.7 -27.3 141.55 -27.75 141.35 -28.2 141.15 -28.6 141.0 -29.0 140.75 -29.35 140.55 -29.7 140.35 -30.0 140.15 -30.3 139.95 -30.55 139.8 -30.8 139.6 L-30.8 139.6 M31.4 84.25 Q31.75 85.75 32.05 87.25 32.4 88.95 32.65 90.6 32.95 92.4 33.2 94.25 33.45 96.2 33.6 98.2 33.8 100.3 33.85 102.4 33.95 104.65 33.95 106.9 33.95 109.25 33.8 111.65 33.65 114.1 33.4 116.6 33.2 118.4 32.95 120.25 32.7 121.95 32.35 123.7 32.05 125.35 31.7 127.0 31.35 128.55 30.95 130.15 30.6 131.6 30.15 133.1 29.75 134.45 29.3 135.85 28.9 137.15 28.45 138.4 28.0 139.6 27.55 140.8 29.5 140.6 31.35 140.15 33.2 139.75 34.9 139.1 36.65 138.45 38.2 137.6 39.8 136.75 41.2 135.65 42.6 134.6 43.8 133.3 45.0 132.0 46.0 130.5 47.05 129.0 47.8 127.3 48.6 125.55 49.1 123.6 49.6 121.75 50.05 119.8 50.45 117.95 50.75 116.0 51.05 114.15 51.3 112.15 51.55 110.3 51.75 108.35 51.9 106.45 52.0 104.45 52.15 102.6 52.2 100.6 52.25 98.8 52.3 96.7 52.35 94.95 52.35 92.85 52.35 90.95 52.35 89.35 52.35 87.5 52.3 85.85 52.25 84.05 52.1 82.4 52.0 80.6 51.75 78.95 51.55 77.2 51.25 75.55 50.95 73.8 50.5 72.15 50.1 70.45 49.55 68.8 48.95 67.1 48.25 65.5 47.9 64.65 47.5 63.35 46.8 61.1 46.85 61.15 47.75 62.6 48.6 64.1 49.45 65.55 50.2 67.1 50.95 68.6 51.6 70.15 52.25 71.65 52.85 73.25 53.4 74.8 53.9 76.4 54.4 78.0 54.8 79.65 55.2 81.25 55.55 82.9 55.85 84.55 56.1 86.25 56.75 90.4 57.05 92.85 57.55 96.5 57.85 99.45 58.2 103.0 58.35 106.05 58.45 109.5 58.35 112.6 58.15 116.0 57.7 119.1 57.2 122.4 56.3 125.5 55.35 128.8 53.95 131.85 52.5 135.1 50.5 138.15 50.7 138.2 50.9 138.2 51.05 138.25 51.3 138.3 51.35 138.3 51.65 138.4 51.85 138.45 52.0 138.45 52.2 138.5 52.35 138.55 52.55 138.55 52.7 138.6 52.85 138.6 53.05 138.6 53.2 138.65 53.35 138.65 55.3 138.55 57.2 138.3 59.15 138.0 60.95 137.45 62.8 136.95 64.5 136.2 66.2 135.45 67.75 134.45 69.35 133.5 70.75 132.25 72.2 131.05 73.4 129.6 74.65 128.1 75.65 126.4 76.65 124.7 77.4 122.75 77.9 121.5 78.25 120.2 78.65 118.95 78.9 117.65 79.15 116.4 79.3 115.1 79.45 113.85 79.5 112.5 79.6 111.25 79.55 109.95 79.55 108.7 79.45 107.35 79.35 106.1 79.2 104.75 79.05 103.5 78.8 102.15 78.1 97.85 77.4 93.9 76.7 89.65 75.95 85.7 75.15 81.5 74.35 77.55 73.5 73.35 72.6 69.4 71.7 65.25 70.7 61.25 69.7 57.15 68.65 53.2 67.55 49.1 66.35 45.2 65.15 41.1 63.85 37.2 62.6 33.35 61.05 27.65 57.95 16.05 58.5 18.0 56.8 11.75 55.3 5.5 53.8 -0.75 52.55 -7.05 51.3 -13.35 50.3 -19.65 49.3 -25.95 48.5 -32.3 47.75 -38.65 47.2 -45.0 46.7 -51.4 46.4 -57.8 46.1 -64.2 46.1 -70.65 46.05 -77.1 46.3 -83.55 46.35 -84.65 46.3 -85.7 46.3 -86.8 46.2 -87.85 46.05 -88.9 45.9 -89.9 45.7 -90.95 45.45 -91.95 45.2 -93.0 44.9 -93.95 44.55 -94.95 44.15 -95.9 43.75 -96.85 43.25 -97.75 42.75 -98.7 42.2 -99.55 41.3 -100.9 40.35 -102.2 39.35 -103.5 38.3 -104.65 37.2 -105.85 36.05 -106.95 34.9 -108.0 33.65 -109.0 32.45 -110.0 31.1 -110.9 29.8 -111.8 28.4 -112.55 27.0 -113.35 25.55 -114.05 24.1 -114.75 22.55 -115.35 19.45 -116.55 16.35 -117.5 13.25 -118.5 10.15 -119.25 7.0 -120.05 3.85 -120.55 0.7 -121.1 -2.45 -121.4 -5.65 -121.7 -8.8 -121.75 -12.0 -121.8 -15.2 -121.6 -18.4 -121.4 -21.6 -120.95 -24.8 -120.5 -28.0 -119.75 -30.65 -119.15 -33.05 -118.45 -35.55 -117.65 -37.85 -116.7 -40.2 -115.75 -42.35 -114.6 -44.55 -113.4 -46.5 -111.95 -48.55 -110.5 -50.3 -108.85 -52.15 -107.1 -53.7 -105.15 -55.25 -103.1 -56.55 -100.8 -57.9 -98.45 -58.9 -95.85 -59.1 -95.35 -59.55 -94.55 -60.05 -93.65 -60.2 -93.3 -61.1 -91.3 -61.85 -89.45 -62.65 -87.45 -63.3 -85.55 -63.95 -83.55 -64.4 -81.6 -64.9 -79.55 -65.25 -77.6 -65.55 -75.55 -65.7 -73.55 -65.85 -71.5 -65.8 -69.45 -65.7 -67.35 -65.45 -65.3 -65.15 -63.15 -64.65 -61.05 -64.45 -60.25 -64.3 -59.4 -64.15 -58.6 -64.05 -57.75 -63.95 -56.9 -63.9 -56.05 -63.85 -55.2 -63.8 -54.35 -63.8 -53.5 -63.8 -52.6 -63.8 -51.75 -63.85 -50.9 -63.9 -50.05 -64.0 -49.2 -64.05 -48.35 -64.15 -47.5 -64.5 -44.7 -64.85 -42.05 -65.25 -39.25 -65.7 -36.6 -66.1 -33.8 -66.6 -31.15 -67.1 -28.4 -67.65 -25.75 -68.25 -23.0 -68.85 -20.35 -69.5 -17.65 -70.25 -15.0 -70.95 -12.3 -71.75 -9.7 -72.55 -7.05 -73.45 -4.45 -74.85 -0.3 -76.75 5.8 -80.6 18.4 -79.9 16.1 -81.4 20.95 -82.65 25.45 -84.0 30.3 -85.1 34.85 -86.25 39.7 -87.1 44.3 -88.05 49.15 -88.7 53.8 -89.35 58.65 -89.75 63.35 -90.15 68.25 -90.2 73.0 -90.3 77.95 -90.05 82.75 -89.8 87.7 -89.2 92.6 -89.0 94.3 -88.7 95.95 -88.4 97.6 -88.05 99.2 -87.65 100.8 -87.25 102.35 -86.8 103.9 -86.3 105.4 -85.75 106.9 -85.2 108.35 -84.6 109.8 -83.95 111.2 -83.25 112.6 -82.55 113.95 -81.8 115.3 -81.0 116.6 -78.65 120.35 -79.65 118.8 -78.75 120.2 -78.0 121.3 -77.05 122.75 -76.1 124.0 -75.0 125.45 -73.85 126.7 -72.6 128.15 -71.25 129.4 -69.8 130.75 -68.25 131.9 -66.6 133.15 -64.8 134.1 -62.9 135.15 -60.9 135.9 -60.5 136.05 -60.05 136.2 -59.65 136.35 -59.25 136.45 -58.85 136.6 -58.45 136.7 -58.1 136.8 -57.7 136.9 -57.35 136.95 -57.0 137.05 -56.7 137.15 -56.35 137.2 -56.05 137.25 -55.75 137.3 -55.5 137.35 -55.25 137.4 -56.2 136.0 -57.1 134.6 -58.1 133.0 -59.1 131.3 -60.15 129.4 -61.15 127.45 -62.3 125.3 -63.3 123.1 -64.35 120.65 -65.3 118.2 -66.35 115.55 -67.2 112.85 -68.1 109.95 -68.85 107.0 -69.6 103.85 -70.15 100.7 -70.75 97.35 -71.1 93.95 -71.4 90.8 -71.5 87.6 -71.6 84.6 -71.5 81.65 -71.4 78.85 -71.15 76.1 -70.95 73.6 -70.6 71.1 -70.25 68.85 -69.8 66.6 -69.45 64.65 -68.95 62.7 -68.6 61.05 -68.1 59.4 -68.1 60.15 -68.1 60.95 -68.15 61.6 -68.15 62.45 -68.1 60.7 -68.2 63.9 -68.25 64.75 -68.25 65.3 -68.25 66.05 -68.25 66.7 -68.25 67.4 -68.25 68.0 -68.25 68.7 -68.2 69.3 -68.15 69.95 -68.05 70.6 -67.65 73.7 -67.15 76.75 -66.65 79.8 -66.1 82.9 -65.55 85.95 -64.9 89.0 -64.25 92.0 -63.55 95.05 -62.85 98.05 -62.05 101.05 -61.25 104.05 -60.4 107.05 -59.55 110.05 -58.6 113.05 -57.7 116.0 -56.7 118.95 -56.2 120.4 -55.95 121.2 -55.55 122.4 -55.15 123.4 -54.75 124.6 -54.3 125.6 -53.85 126.7 -53.35 127.7 -52.8 128.8 -52.25 129.8 -51.65 130.85 -50.95 131.75 -50.25 132.75 -49.5 133.65 -48.7 134.55 -47.8 135.4 -47.2 135.95 -46.45 136.5 -45.7 137.0 -44.85 137.5 -44.0 137.95 -43.1 138.4 -42.15 138.8 -41.2 139.15 -40.25 139.55 -39.3 139.8 -38.3 140.05 -37.35 140.2 -36.4 140.35 -35.5 140.4 -34.6 140.4 -33.8 140.3 -34.4 138.85 -35.0 137.35 -35.65 135.8 -36.25 134.2 -36.85 132.55 -37.45 130.9 -38.05 129.15 -38.6 127.4 -39.2 125.55 -39.75 123.75 -40.3 121.8 -40.85 119.9 -41.35 117.9 -41.85 115.85 -42.35 113.8 -42.8 111.7 -43.25 109.6 -43.65 107.5 -44.0 105.45 -44.3 103.4 -44.65 101.4 -44.9 99.45 -45.15 97.5 -45.35 95.6 -45.5 93.75 -45.65 91.9 -45.8 90.15 -45.9 88.4 -46.0 86.7 -46.05 85.05 -46.1 83.45 -46.15 81.85 -45.95 83.4 -45.8 85.0 -45.6 86.45 -45.4 87.95 -45.2 89.4 -45.0 90.8 -44.8 92.15 -44.6 93.5 -44.4 94.75 -44.2 96.0 -44.0 97.2 -43.8 98.4 -43.65 99.5 -43.45 100.6 -43.25 101.6 -43.05 102.6 -43.05 102.6 -42.85 103.75 -42.55 105.2 -42.15 106.85 -41.65 109.1 -41.05 111.35 -40.35 114.2 -39.5 116.8 -38.55 119.9 -37.55 122.65 -36.35 125.8 -35.1 128.4 -33.7 131.3 -32.25 133.5 -30.65 135.95 -29.0 137.5 -28.6 137.9 -28.15 138.2 -27.7 138.5 -27.3 138.75 -26.9 139.0 -26.5 139.2 -26.15 139.35 -25.75 139.5 -25.45 139.6 -25.15 139.7 -24.9 139.75 -24.7 139.8 -24.5 139.85 -24.4 139.85 -24.3 139.85 -24.25 139.85 -24.15 139.85 -24.0 139.9 -23.9 139.9 -23.75 139.9 -23.65 139.9 -23.5 139.9 -23.4 139.9 -23.25 139.9 -23.15 139.9 -23.0 139.85 -22.85 139.85 -22.75 139.85 -22.6 139.8 -22.45 139.8 -22.35 139.75 -22.2 139.75 -22.15 139.45 -22.15 139.2 -22.1 138.85 -22.05 138.55 -22.0 138.2 -22.0 137.85 -21.95 137.45 -21.9 137.05 -21.85 136.6 -21.8 136.2 -21.75 135.75 -21.7 135.25 -21.65 134.8 -21.6 134.3 -21.55 133.8 -21.5 133.25 -20.85 126.55 -20.0 115.75 -19.3 107.25 -18.6 101.35 -18.55 100.75 -18.45 100.15 -18.4 99.5 -18.3 98.85 -18.2 98.15 -18.1 97.4 -18.0 96.65 -17.9 95.85 -17.8 95.0 -17.65 94.15 -17.55 93.3 -17.4 92.4 -17.25 91.45 -17.1 90.5 -16.95 89.55 -16.8 88.55 -16.55 90.8 -16.3 93.05 -16.05 95.3 -15.75 97.55 -15.5 99.8 -15.2 102.05 -14.95 104.3 -14.65 106.55 -14.4 108.8 -14.1 111.05 -13.8 113.3 -13.55 115.55 -13.25 117.8 -12.95 120.05 -12.65 122.3 -12.35 124.55 -11.25 132.75 -10.15 140.3 -8.2 140.55 -6.75 140.6 -5.15 140.7 -3.95 140.6 -2.65 140.5 -1.65 140.2 -0.6 139.9 0.25 139.4 1.05 138.9 1.75 138.1 2.45 137.35 3.05 136.25 3.65 135.2 4.2 133.85 4.7 132.55 5.25 130.75 5.6 129.65 5.75 128.95 7.2 122.85 15.8 83.3 15.95 84.75 16.1 86.25 16.25 87.85 16.35 89.45 16.45 91.15 16.5 92.85 16.55 94.7 16.5 96.5 16.5 98.4 16.45 100.35 16.35 102.35 16.2 104.4 16.05 106.5 15.8 108.6 15.6 110.8 15.25 112.95 14.9 115.2 14.5 117.4 14.1 119.5 13.6 121.65 13.15 123.65 12.6 125.6 12.1 127.5 11.5 129.4 10.95 131.15 10.35 132.9 9.8 134.55 9.2 136.2 8.65 137.7 8.0 139.2 7.45 140.6 6.85 141.95 15.0 141.35 18.1 141.1 19.45 141.0 20.5 140.8 21.6 140.65 22.55 140.35 23.45 140.1 24.2 139.7 25.0 139.35 25.65 138.8 26.25 138.3 26.8 137.65 27.3 136.95 27.7 136.1 28.1 135.3 28.45 134.25 28.8 133.2 29.05 131.95 29.55 129.65 29.95 127.6 30.4 125.35 30.75 123.25 31.1 120.95 31.4 118.85 31.7 116.6 31.95 114.45 32.15 112.2 32.3 110.05 32.45 107.8 32.45 105.65 32.5 103.35 32.4 101.2 32.35 98.9 32.1 96.7 31.85 94.2 31.7 90.5 31.35 83.7 31.4 84.25 L31.4 84.25 M52.5 -33.7 Q52.5 -33.6 52.55 -33.45 52.55 -33.3 52.55 -33.15 52.55 -33.2 52.6 -32.85 52.6 -32.65 52.65 -32.5 52.65 -32.35 52.65 -32.2 52.7 -32.0 52.7 -31.85 52.75 -31.65 52.8 -31.5 52.8 -31.35 52.85 -31.2 53.45 -29.0 54.05 -26.85 54.7 -24.7 55.35 -22.55 56.05 -20.4 56.75 -18.3 57.5 -16.15 58.25 -14.05 59.0 -11.95 59.85 -9.85 60.65 -7.75 61.55 -5.7 62.4 -3.65 63.35 -1.6 64.25 0.45 65.25 2.5 66.35 4.75 67.25 7.0 68.2 9.3 68.9 11.6 69.65 13.95 70.15 16.3 70.7 18.65 71.0 21.0 71.35 23.4 71.45 25.8 71.5 28.2 71.4 30.6 71.25 33.05 70.9 35.5 70.5 37.95 69.9 40.4 69.55 41.7 69.45 43.05 69.35 44.3 69.45 45.65 69.5 46.8 69.75 48.1 69.95 49.25 70.3 50.55 70.55 51.55 70.95 52.95 73.8 62.25 71.7 55.35 72.15 56.75 72.4 57.75 72.75 59.1 72.95 60.2 73.4 59.55 73.8 58.9 74.25 58.25 74.65 57.6 75.05 56.95 75.45 56.35 75.85 55.7 76.2 55.05 76.6 54.4 76.95 53.7 77.35 53.05 77.7 52.4 78.05 51.75 78.4 51.1 78.75 50.4 79.05 49.75 79.8 48.2 80.4 46.65 81.0 45.1 81.45 43.5 81.9 41.95 82.15 40.35 82.45 38.75 82.55 37.15 82.7 35.55 82.65 33.95 82.6 32.35 82.35 30.75 82.15 29.1 81.75 27.5 81.35 25.85 80.8 24.25 77.65 15.3 74.95 10.25 73.2 6.9 69.2 0.15 65.25 -6.45 63.45 -10.0 61.05 -14.75 57.85 -21.8 50.95 -37.15 52.5 -33.7 L52.5 -33.7 M-68.55 -31.6 Q-69.15 -30.5 -69.75 -29.4 -70.4 -28.25 -71.05 -27.05 -71.7 -25.8 -72.4 -24.5 -73.1 -23.15 -73.8 -21.8 -74.55 -20.35 -75.25 -18.9 -76.0 -17.35 -76.75 -15.85 -77.5 -14.25 -78.25 -12.6 -79.05 -10.9 -79.8 -9.2 -80.55 -7.55 -81.25 -5.95 -82.15 -3.95 -82.95 -1.9 -83.95 0.4 -84.9 2.85 -85.95 5.5 -87.0 8.25 -88.1 11.3 -89.2 14.4 -90.35 17.75 -91.45 21.2 -92.65 24.85 -93.75 28.6 -94.9 32.6 -96.0 36.65 -97.05 40.55 -97.8 43.45 -98.65 46.9 -99.35 49.75 -100.1 52.9 -100.65 55.7 -101.25 58.7 -101.7 61.45 -102.15 64.3 -102.5 67.05 -102.8 69.85 -103.0 72.65 -103.15 75.5 -103.15 78.4 -103.2 81.3 -103.05 84.35 -102.9 87.35 -102.5 90.2 -102.05 93.05 -101.4 95.75 -100.7 98.5 -99.75 101.1 -98.8 103.7 -97.6 106.15 -96.4 108.6 -94.95 110.95 -93.5 113.3 -91.75 115.5 -90.05 117.75 -88.05 119.85 -86.1 121.9 -83.9 123.9 -83.05 124.65 -81.75 125.6 -79.45 127.25 -79.5 127.25 -80.15 126.3 -80.8 125.35 -81.4 124.4 -82.0 123.4 -82.6 122.45 -83.15 121.45 -83.75 120.5 -84.3 119.5 -84.85 118.5 -85.35 117.5 -85.9 116.5 -86.4 115.5 -86.9 114.5 -87.4 113.5 -87.85 112.5 -88.35 111.45 -88.3 111.6 -89.1 109.8 -89.55 108.8 -89.9 108.05 -90.3 107.1 -90.7 106.2 -91.15 105.2 -91.5 104.2 -91.95 103.15 -92.35 102.05 -92.8 100.9 -93.15 99.75 -93.6 98.55 -94.0 97.3 -94.4 96.0 -94.75 94.65 -96.55 87.0 -97.15 82.6 -97.4 80.65 -97.55 78.6 -97.7 76.6 -97.7 74.5 -97.75 72.45 -97.7 70.35 -97.65 68.25 -97.45 66.0 -97.3 63.85 -97.05 61.55 -96.8 59.3 -96.45 56.9 -96.1 54.55 -95.7 52.05 -95.25 49.6 -94.75 47.0 -94.75 47.0 -94.5 45.8 -94.15 44.25 -93.8 42.5 -93.2 39.95 -92.6 37.35 -91.8 34.1 -90.95 30.8 -89.9 26.9 -88.85 23.15 -87.6 18.85 -86.3 14.75 -84.85 10.2 -83.3 6.0 -81.65 1.35 -79.95 -2.85 -76.15 -11.85 -71.55 -23.75 -69.85 -28.1 -68.55 -31.6 L-68.55 -31.6 M51.25 -26.4 Q51.9 -22.15 52.65 -17.95 53.4 -13.7 54.2 -9.5 55.05 -5.3 55.95 -1.15 56.9 3.05 57.9 7.2 58.95 11.4 60.05 15.55 61.15 19.7 62.35 23.8 63.6 28.0 64.9 32.1 66.25 36.2 67.65 40.3 68.3 37.7 68.35 37.45 68.65 35.35 68.85 33.3 69.05 31.25 69.05 29.25 69.1 27.2 68.95 25.2 68.85 23.2 68.55 21.2 68.3 19.25 67.85 17.25 67.45 15.3 66.85 13.35 66.25 11.35 65.5 9.4 64.8 7.45 63.9 5.55 60.95 -0.8 57.35 -10.35 49.6 -30.7 51.25 -26.4 L51.25 -26.4 M-71.25 -18.15 Q-71.3 -18.2 -71.55 -17.7 -71.85 -17.2 -72.3 -16.25 -72.7 -15.3 -73.3 -14.05 -73.9 -12.65 -74.6 -11.05 -75.3 -9.35 -76.1 -7.5 -76.9 -5.5 -77.7 -3.45 -78.6 -1.25 -79.45 0.95 -80.35 3.3 -81.15 5.55 -81.85 7.45 -82.5 9.25 -83.1 11.0 -83.65 12.65 -84.2 14.2 -84.65 15.7 -85.1 17.1 -85.55 18.4 -85.9 19.65 -86.25 20.85 -86.6 21.9 -86.85 22.95 -87.15 23.85 -87.35 24.75 -87.55 25.5 -87.8 26.3 -88.95 30.7 -90.5 38.2 -91.35 42.2 -91.45 42.8 -92.0 45.2 -92.3 46.9 -92.75 48.9 -93.05 50.55 -93.4 52.35 -93.7 53.9 -94.0 55.55 -94.2 57.05 -94.45 58.65 -94.65 60.15 -94.8 61.65 -94.95 63.15 -95.1 64.7 -95.2 66.3 -95.3 68.0 -95.35 68.95 -95.45 70.4 -95.5 71.6 -95.55 72.95 -95.55 74.15 -95.6 75.5 -95.55 76.75 -95.55 78.1 -95.5 79.4 -95.4 80.75 -95.25 82.1 -95.15 83.5 -94.95 84.95 -94.7 86.4 -94.45 87.9 -94.25 88.95 -94.0 89.95 -93.8 90.95 -93.55 91.9 -93.3 92.8 -93.05 93.75 -92.8 94.6 -92.5 95.45 -92.25 96.25 -92.0 97.05 -91.75 97.8 -91.45 98.55 -91.2 99.25 -90.95 99.95 -90.7 100.55 -90.45 101.15 -90.65 98.0 -91.3 91.85 -92.0 85.65 -92.15 82.6 -92.25 81.0 -92.25 79.25 -92.3 77.0 -92.2 74.4 -92.05 71.3 -91.7 67.75 -91.35 63.7 -90.7 59.15 -90.0 54.0 -88.95 48.35 -87.8 42.05 -86.25 35.1 -84.6 27.55 -82.5 19.3 -80.25 10.35 -77.5 0.65 -76.9 -1.55 -76.2 -3.65 -75.65 -5.6 -75.0 -7.45 -74.5 -9.05 -73.9 -10.65 -73.45 -12.0 -72.95 -13.3 -72.6 -14.25 -72.2 -15.4 -71.6 -17.05 -71.6 -16.9 -71.4 -17.55 -71.3 -17.85 -71.2 -18.15 -71.25 -18.15 L-71.25 -18.15" fill="#000000" fill-rule="evenodd" stroke="none"/>
    <path d="M26.35 -65.05 Q26.35 -62.9 26.35 -60.75 26.4 -58.5 26.45 -56.3 26.5 -54.0 26.6 -51.75 26.7 -49.4 26.8 -47.05 26.95 -44.65 27.1 -42.25 27.25 -39.8 27.45 -37.4 27.65 -34.85 27.9 -32.4 28.15 -29.8 28.45 -27.25 28.7 -24.85 29.0 -22.4 29.3 -20.05 29.65 -17.7 30.0 -15.4 30.35 -13.1 30.7 -10.85 31.05 -8.6 31.45 -6.4 31.85 -4.2 32.25 -2.05 32.65 0.1 33.05 2.15 33.5 4.25 33.95 6.25 34.4 8.3 33.75 6.2 33.15 4.05 32.5 1.85 31.9 -0.45 31.3 -2.8 30.75 -5.2 30.15 -7.7 29.6 -10.2 29.1 -12.8 28.6 -15.45 28.15 -18.2 27.75 -20.95 27.3 -23.8 26.95 -26.7 26.6 -29.65 26.35 -32.65 26.15 -34.9 26.05 -37.15 25.9 -39.35 25.8 -41.55 25.75 -43.7 25.7 -45.8 25.65 -47.9 25.7 -49.95 25.7 -51.95 25.75 -53.95 25.8 -55.9 25.9 -57.8 26.0 -59.65 26.1 -61.5 26.2 -63.3 26.35 -65.05 L26.35 -65.05" fill="#000000" fill-opacity="0.67058825" fill-rule="evenodd" stroke="none"/>
    <path d="M-62.0 34.2 Q-61.85 29.2 -61.35 24.05 -60.85 19.1 -60.1 14.0 -59.35 9.15 -58.35 4.05 -57.4 -0.7 -56.2 -5.75 -55.1 -10.4 -53.7 -15.5 -52.5 -20.05 -51.0 -25.2 -49.7 -29.5 -48.1 -34.85 -47.05 -38.2 -45.1 -44.45 -45.75 -42.15 -46.4 -39.85 -47.05 -37.55 -47.7 -35.2 -48.35 -32.85 -48.95 -30.45 -49.6 -28.05 -50.2 -25.6 -50.85 -23.15 -51.4 -20.7 -52.05 -18.2 -52.6 -15.65 -53.2 -13.15 -53.8 -10.6 -54.35 -8.0 -54.9 -5.4 -55.45 -2.8 -56.0 -0.2 -56.5 2.35 -57.0 4.9 -57.5 7.45 -58.0 9.95 -58.45 12.45 -58.9 14.95 -59.35 17.4 -59.75 19.85 -60.15 22.3 -60.55 24.7 -60.9 27.1 -61.3 29.5 -61.65 31.85 -62.0 34.2 L-62.0 34.2" fill="#000000" fill-opacity="0.67058825" fill-rule="evenodd" stroke="none"/>
  </g>
</svg>
