<?xml version="1.0" encoding="UTF-8" standalone="no"?>
<svg xmlns:xlink="http://www.w3.org/1999/xlink" height="18.4px" width="24.4px" xmlns="http://www.w3.org/2000/svg">
  <g transform="matrix(1.0, 0.0, 0.0, 1.0, 12.2, 9.2)">
    <path d="M-10.6 -3.0 Q-10.55 -3.1 -10.5 -3.1 -10.45 -3.15 -10.4 -3.15 -10.35 -3.2 -10.3 -3.25 -10.2 -3.3 -10.15 -3.3 -10.05 -3.35 -9.9 -3.4 -9.8 -3.45 -9.65 -3.5 -9.5 -3.55 -9.3 -3.55 -9.1 -3.6 -8.85 -3.65 -8.65 -3.7 -8.35 -3.75 -8.25 -3.75 -8.2 -3.8 -8.1 -3.8 -8.0 -3.8 -7.9 -3.85 -7.8 -3.85 -7.7 -3.85 -7.55 -3.9 -7.45 -3.9 -7.35 -3.9 -7.2 -3.95 -7.1 -3.95 -6.95 -3.95 -6.85 -4.0 -6.7 -4.0 -6.55 -4.0 -6.6 -3.55 -6.65 -3.4 -6.65 -3.35 -6.65 -3.3 -6.65 -3.25 -6.65 -3.2 -6.7 -3.2 -6.7 -3.15 -6.7 -3.1 -6.7 -3.05 -6.7 -3.05 -6.7 -3.0 -6.7 -3.0 -6.75 -2.95 -6.75 -2.95 -6.75 -2.9 -6.75 -2.9 -6.75 -2.85 -6.75 -2.8 -6.75 -2.8 -6.8 -2.75 -6.8 -2.7 -6.8 -2.7 -6.8 -2.65 -6.85 -2.6 -6.85 -2.55 -6.85 -2.5 -6.85 -2.45 -6.9 -2.4 -6.9 -2.35 -6.95 -2.3 -6.95 -2.25 -6.95 -2.2 -7.0 -2.15 -7.05 -2.1 -7.15 -2.05 -7.2 -2.0 -7.3 -2.0 -7.4 -1.95 -7.45 -1.9 -7.55 -1.85 -7.65 -1.8 -7.75 -1.8 -7.85 -1.75 -7.95 -1.7 -8.05 -1.7 -8.2 -1.65 -8.3 -1.65 -8.45 -1.65 -8.55 -1.65 -8.75 -1.65 -8.95 -1.65 -9.15 -1.65 -9.35 -1.7 -9.5 -1.7 -9.7 -1.75 -9.85 -1.8 -10.0 -1.85 -10.2 -1.9 -10.3 -2.0 -10.45 -2.05 -10.55 -2.15 -10.6 -2.2 -10.7 -2.3 -10.75 -2.4 -10.75 -2.45 -10.75 -2.45 -10.75 -2.5 -10.75 -2.5 -10.75 -2.55 -10.75 -2.55 -10.75 -2.6 -10.75 -2.65 -10.75 -2.7 -10.75 -2.7 -10.7 -2.75 -10.7 -2.8 -10.7 -2.85 -10.65 -2.9 -10.65 -2.95 -10.6 -3.0 -10.6 -3.0 L-10.6 -3.0" fill="#000000" fill-rule="evenodd" stroke="none"/>
    <path d="M5.9 6.6 Q5.9 6.5 5.85 6.45 5.85 6.35 5.85 6.25 5.85 6.2 5.8 6.1 5.8 6.05 5.8 5.95 5.8 5.9 5.8 5.8 5.8 5.75 5.85 5.7 5.85 5.6 5.85 5.55 5.85 5.5 5.85 5.45 5.9 5.4 5.9 5.3 5.95 5.25 6.0 5.2 6.0 5.15 6.05 5.05 6.1 5.0 6.15 4.95 6.2 4.9 6.25 4.85 6.3 4.8 6.35 4.75 6.4 4.7 6.45 4.65 6.5 4.6 6.55 4.6 6.6 4.6 6.6 4.55 6.65 4.5 6.7 4.5 6.75 4.45 6.8 4.45 6.85 4.4 6.9 4.4 7.0 4.35 7.05 4.35 7.15 4.3 7.2 4.3 7.3 4.3 7.4 4.25 7.45 4.25 7.55 4.3 7.65 4.3 7.75 4.35 7.85 4.35 7.95 4.4 8.05 4.45 8.15 4.5 8.25 4.6 8.3 4.65 8.4 4.75 8.45 4.85 8.55 4.9 8.6 5.0 8.65 5.15 8.7 5.25 8.75 5.35 8.8 5.5 8.8 5.55 8.8 5.65 8.8 5.7 8.85 5.8 8.85 5.85 8.85 5.95 8.85 6.05 8.85 6.15 8.8 6.25 8.8 6.35 8.8 6.45 8.8 6.6 8.75 6.7 8.7 6.8 8.7 6.95 8.65 7.05 8.6 7.15 8.6 7.2 8.55 7.3 8.5 7.4 8.45 7.5 8.4 7.6 8.35 7.75 8.25 7.85 8.2 7.95 8.1 8.05 8.0 8.2 7.9 8.25 7.8 8.35 7.7 8.4 7.55 8.45 7.45 8.45 7.3 8.45 7.15 8.4 7.0 8.35 6.85 8.25 6.75 8.15 6.6 8.05 6.5 7.9 6.4 7.75 6.3 7.6 6.2 7.45 6.15 7.3 6.05 7.1 6.0 6.95 5.95 6.85 5.9 6.7 5.9 6.6 L5.9 6.6" fill="#000000" fill-rule="evenodd" stroke="none"/>
    <path d="M-5.3 3.85 Q-5.35 3.85 -5.3 3.75 -5.3 3.7 -5.3 3.65 -5.3 3.65 -5.25 3.6 -5.25 3.55 -5.25 3.45 -5.2 3.4 -5.15 3.3 -5.1 3.25 -5.05 3.15 -5.0 3.05 -4.9 2.95 -4.85 2.85 -4.75 2.7 -4.65 2.55 -4.5 2.4 -4.45 2.35 -4.45 2.3 -4.4 2.25 -4.35 2.2 -4.3 2.15 -4.25 2.1 -4.2 2.05 -4.15 2.0 -4.1 1.95 -4.05 1.9 -4.0 1.8 -3.95 1.75 -3.85 1.7 -3.8 1.65 -3.75 1.55 -3.7 1.5 -3.7 1.5 -3.65 1.55 -3.65 1.55 -3.6 1.6 -3.6 1.6 -3.55 1.65 -3.55 1.65 -3.55 1.7 -3.5 1.7 -3.5 1.75 -3.5 1.75 -3.45 1.8 -3.45 1.8 -3.45 1.85 -3.4 1.85 -3.4 1.9 -3.4 1.95 -3.35 2.0 -3.35 2.0 -3.3 2.05 -3.3 2.1 -3.25 2.1 -3.25 2.15 -3.25 2.15 -3.25 2.2 -3.2 2.2 -3.2 2.25 -3.2 2.25 -3.2 2.25 -3.2 2.3 -3.2 2.3 -3.15 2.35 -3.15 2.35 -3.15 2.4 -3.1 2.45 -3.1 2.45 -3.1 2.5 -3.05 2.55 -3.05 2.55 -3.05 2.6 -3.0 2.65 -3.0 2.7 -2.95 2.75 -2.95 2.75 -2.95 2.8 -2.9 2.85 -2.9 2.9 -2.95 2.95 -2.95 3.05 -3.0 3.1 -3.0 3.15 -3.05 3.2 -3.05 3.3 -3.1 3.35 -3.15 3.4 -3.2 3.5 -3.2 3.55 -3.25 3.6 -3.3 3.65 -3.4 3.75 -3.45 3.8 -3.5 3.85 -3.6 3.95 -3.7 4.0 -3.8 4.1 -3.95 4.15 -4.05 4.2 -4.15 4.25 -4.3 4.3 -4.4 4.35 -4.5 4.4 -4.65 4.4 -4.75 4.4 -4.85 4.4 -4.9 4.4 -5.0 4.35 -5.05 4.35 -5.1 4.3 -5.1 4.3 -5.1 4.3 -5.15 4.25 -5.15 4.25 -5.15 4.2 -5.2 4.2 -5.2 4.15 -5.2 4.15 -5.25 4.1 -5.25 4.1 -5.3 4.05 -5.3 4.0 -5.3 3.95 -5.3 3.95 -5.3 3.9 -5.3 3.85 L-5.3 3.85" fill="#000000" fill-rule="evenodd" stroke="none"/>
  </g>
</svg>
