<?xml version="1.0" encoding="UTF-8" standalone="no"?>
<svg xmlns:xlink="http://www.w3.org/1999/xlink" height="55.4px" width="34.2px" xmlns="http://www.w3.org/2000/svg">
  <g transform="matrix(1.0, 0.0, 0.0, 1.0, 17.1, 27.7)">
    <path d="M15.55 -24.1 Q16.1 -23.95 17.1 -23.65 17.0 -22.75 16.9 -21.8 16.85 -20.95 16.75 -20.05 16.65 -19.25 16.55 -18.45 16.5 -17.65 16.4 -16.9 16.35 -16.15 16.25 -15.45 16.2 -14.8 16.1 -14.15 16.05 -13.55 16.0 -12.95 15.95 -12.4 15.85 -11.85 15.25 -6.55 14.75 -2.15 14.15 2.95 13.9 5.45 13.55 8.45 13.3 11.15 13.1 13.4 13.0 15.45 12.9 16.9 12.8 18.55 12.7 20.65 12.7 20.75 12.6 21.65 12.55 22.2 12.45 22.75 12.35 23.15 12.2 23.55 11.95 23.9 11.7 24.2 11.3 24.65 9.3 26.2 8.65 26.9 8.6 27.0 8.6 27.2 8.6 27.3 8.7 27.5 8.75 27.65 8.85 27.9 9.0 28.15 9.05 28.3 9.15 28.5 9.2 28.7 9.3 28.95 9.3 29.15 9.25 29.4 9.15 29.6 9.05 29.8 8.8 30.05 8.7 30.15 8.55 30.25 8.4 30.3 8.2 30.4 8.05 30.45 7.85 30.5 7.75 30.55 7.5 30.6 7.25 30.65 7.15 30.7 6.95 30.75 6.8 30.85 6.65 30.9 6.5 30.95 6.35 31.05 6.3 31.15 6.2 31.25 6.1 31.35 6.0 31.45 5.9 31.6 5.85 31.7 5.8 31.85 5.7 32.0 5.7 32.15 5.65 32.3 5.6 32.5 5.55 32.6 5.55 32.8 5.5 33.05 5.45 33.1 5.45 33.3 5.4 33.4 5.35 33.65 5.25 33.95 5.2 34.1 5.15 34.45 5.05 34.75 5.05 34.9 4.95 35.15 4.9 35.35 4.85 35.55 4.75 35.7 4.65 35.85 4.5 36.0 4.4 36.1 4.2 36.15 4.05 36.2 3.8 36.2 3.7 36.2 3.55 36.15 3.45 36.1 3.3 36.05 3.15 36.0 3.05 35.95 2.9 35.9 2.75 35.85 2.65 35.75 2.55 35.7 2.5 35.7 2.3 35.55 2.15 35.5 2.1 35.45 2.0 35.4 1.9 35.4 1.2 35.05 0.5 34.65 -0.2 34.3 -0.9 33.95 -1.6 33.6 -2.3 33.25 -3.05 32.95 -3.75 32.6 -4.45 32.25 -5.2 31.95 -5.9 31.65 -6.65 31.3 -7.35 31.0 -8.1 30.7 -8.8 30.4 -9.55 30.15 -10.65 29.75 -12.65 29.3 -14.65 28.9 -14.9 29.0 -15.2 29.05 -15.5 29.1 -15.75 29.1 -16.0 29.1 -16.25 29.1 -16.45 29.1 -16.7 29.05 -16.85 28.95 -17.0 28.85 -17.15 28.7 -17.25 28.55 -17.35 28.35 -17.4 28.15 -17.4 27.85 -17.45 27.55 -17.4 27.2 -17.35 26.85 -17.3 26.45 -17.25 26.15 -17.15 25.8 -17.1 25.55 -17.05 25.25 -16.85 24.5 -16.95 24.75 -16.85 24.5 -16.85 24.3 -16.8 24.1 -16.8 23.95 -16.75 23.8 -16.8 23.65 -16.8 23.55 -16.85 23.45 -16.85 23.4 -16.9 23.35 -16.9 23.3 -16.95 23.3 -16.95 23.25 -17.0 23.2 -17.05 23.2 -17.1 23.15 -17.15 23.15 -17.2 23.1 -17.25 23.1 -17.3 23.05 -17.35 23.05 -17.4 23.0 -17.5 23.0 -17.55 22.95 -17.95 22.85 -18.3 22.75 -18.65 22.65 -18.95 22.5 -19.25 22.35 -19.45 22.2 -19.7 22.05 -19.85 21.9 -20.0 21.7 -20.1 21.5 -20.2 21.25 -20.2 21.0 -20.25 20.75 -20.2 20.5 -20.15 20.2 -20.05 19.85 -19.95 19.65 -19.8 19.35 -19.6 19.0 -19.6 18.9 -19.45 18.7 -19.4 18.5 -19.3 18.3 -19.25 18.15 -19.2 17.95 -19.15 17.8 -19.1 17.6 -19.1 17.45 -19.1 17.25 -19.15 17.05 -19.15 16.85 -19.2 16.65 -19.25 16.55 -19.3 16.45 -19.3 16.35 -19.4 16.2 -19.45 16.1 -19.5 16.0 -19.55 15.9 -19.65 15.8 -19.35 16.2 -19.8 15.6 -19.85 15.45 -19.9 15.4 -20.0 15.25 -20.05 15.2 -20.1 15.05 -20.1 15.0 -20.25 14.65 -20.3 14.15 -20.35 13.7 -20.35 13.2 -20.3 12.7 -20.2 12.15 -20.1 11.65 -20.0 11.1 -19.9 10.65 -19.75 10.2 -19.6 9.8 -19.5 9.4 -19.4 9.15 -19.3 8.9 -19.25 8.8 -19.25 8.7 -18.65 7.45 -18.0 6.2 -17.4 5.1 -16.85 4.0 -16.3 3.05 -15.8 2.15 -15.35 1.3 -14.9 0.55 -14.5 -0.1 -14.15 -0.7 -13.85 -1.2 -13.55 -1.6 -13.35 -1.95 -13.2 -2.2 -13.15 -2.25 -13.1 -2.35 -11.7 -4.5 -10.8 -6.1 -12.6 -2.75 -9.2 -9.25 -7.9 -11.7 -5.9 -15.1 -5.55 -15.7 -5.2 -16.25 -4.8 -16.85 -4.45 -17.45 -4.0 -18.15 -3.6 -18.85 -3.15 -19.55 -2.65 -20.3 -2.15 -21.1 -1.65 -21.85 -1.1 -22.7 -0.55 -23.5 0.0 -24.4 0.6 -25.25 1.25 -26.2 1.85 -27.1 2.8 -27.35 4.2 -27.7 3.4 -26.6 2.65 -25.55 1.95 -24.5 1.25 -23.45 0.6 -22.5 -0.05 -21.5 -0.65 -20.55 -1.2 -19.6 -1.75 -18.7 -2.25 -17.85 -2.75 -17.0 -3.2 -16.2 -3.65 -15.4 -4.05 -14.65 -4.45 -13.95 -4.8 -13.25 -5.2 -12.5 -5.6 -11.7 -5.9 -11.1 -6.35 -10.2 -7.0 -8.9 -7.05 -8.85 -7.4 -8.05 -7.75 -7.5 -8.1 -6.75 -8.45 -6.1 -8.85 -5.35 -9.25 -4.65 -9.7 -3.9 -10.2 -3.15 -10.7 -2.3 -11.25 -1.45 -13.25 1.55 -14.6 3.9 -15.15 4.85 -15.6 5.65 -16.05 6.45 -16.4 7.1 -16.75 7.8 -17.05 8.4 -17.3 9.0 -17.5 9.5 -17.7 10.0 -17.8 10.5 -17.9 10.95 -17.95 11.35 -18.05 11.75 -18.05 12.15 -18.05 12.55 -18.0 12.95 -17.95 13.25 -17.9 13.5 -17.85 13.8 -17.8 14.05 -17.75 14.3 -17.65 14.55 -17.6 14.75 -17.5 15.0 -17.4 15.2 -17.3 15.4 -17.25 15.6 -17.15 15.75 -17.05 15.95 -16.95 16.1 -16.9 16.25 -16.8 16.4 -16.75 16.55 -16.7 16.7 -16.7 16.85 -16.7 17.0 -16.7 17.15 -16.75 17.3 -16.75 17.4 -16.8 17.55 -16.85 17.7 -16.95 17.85 -17.0 17.95 -17.05 18.1 -17.1 18.2 -17.2 18.35 -17.4 18.65 -17.35 18.65 -17.4 18.75 -17.5 18.9 -17.55 19.0 -17.6 19.15 -17.7 19.3 -17.75 19.45 -17.8 19.6 -17.85 19.75 -17.85 19.9 -17.9 20.05 -17.9 20.2 -17.85 20.3 -17.85 20.45 -17.8 20.55 -17.7 20.65 -17.6 20.7 -15.25 21.7 -14.65 21.8 -13.35 21.9 -12.1 22.15 -10.9 22.4 -9.7 22.7 -8.55 23.0 -7.4 23.4 -6.3 23.8 -5.15 24.3 -4.1 24.8 -3.0 25.35 -1.95 25.9 -0.9 26.5 0.15 27.1 1.2 27.8 2.2 28.45 3.3 29.2 3.35 29.25 3.4 29.25 3.45 29.3 3.5 29.35 3.55 29.35 3.6 29.4 3.65 29.4 3.7 29.45 3.8 29.45 3.8 29.5 3.85 29.5 3.9 29.55 3.95 29.55 4.0 29.55 4.05 29.6 4.1 29.6 4.25 29.65 4.35 29.6 4.5 29.6 4.6 29.6 4.7 29.55 4.8 29.5 4.9 29.45 5.0 29.35 5.05 29.3 5.15 29.25 5.35 29.1 5.35 29.1 5.4 29.05 5.45 29.0 5.55 28.95 5.6 28.95 5.8 28.85 6.1 28.8 6.5 28.65 6.7 28.6 6.4 28.05 6.35 27.5 6.25 27.05 6.4 26.6 6.55 26.15 6.8 25.75 7.05 25.4 7.45 25.05 7.75 24.75 8.25 24.35 9.65 23.2 9.0 23.7 9.45 23.35 9.7 23.1 10.05 22.75 10.25 22.45 10.35 22.25 10.45 22.05 10.55 21.85 10.6 21.65 10.65 21.45 10.7 21.25 10.7 21.1 10.75 20.9 10.75 20.7 10.75 20.55 10.75 20.4 10.8 20.2 10.8 20.15 10.8 19.9 10.8 19.75 10.8 19.65 10.9 15.25 15.55 -24.1 L15.55 -24.1 M3.3 33.55 Q3.3 33.4 3.3 33.25 3.35 33.15 3.35 33.0 3.3 33.2 3.35 32.75 3.4 32.65 3.4 32.55 3.4 32.4 3.4 32.35 3.4 32.2 3.4 32.15 3.4 32.05 3.4 31.95 3.35 31.85 3.3 31.8 3.25 31.7 3.2 31.6 3.1 31.5 3.05 31.4 2.95 31.3 2.9 31.2 2.8 31.1 2.7 31.0 2.65 30.9 2.55 30.8 2.45 30.75 2.35 30.65 2.25 30.55 2.15 30.5 2.05 30.4 1.95 30.35 1.1 29.7 0.3 29.15 -0.55 28.55 -1.45 28.05 -2.3 27.5 -3.2 27.05 -4.1 26.6 -5.0 26.2 -5.95 25.8 -6.9 25.5 -7.85 25.15 -8.8 24.9 -9.8 24.65 -10.8 24.45 -11.8 24.25 -12.85 24.15 -13.3 24.1 -13.5 24.1 -13.75 24.05 -13.95 24.1 -14.15 24.1 -14.3 24.1 -14.45 24.15 -14.55 24.25 -14.65 24.35 -14.75 24.45 -14.8 24.6 -14.85 24.8 -14.9 25.0 -15.0 25.3 -15.0 25.45 -15.1 25.95 -15.1 26.05 -15.15 26.15 -15.15 26.2 -15.15 26.25 -15.1 26.35 -15.1 26.4 -15.1 26.45 -15.05 26.45 -15.05 26.5 -15.0 26.55 -14.95 26.55 -14.85 26.6 -14.8 26.6 -14.75 26.65 -14.65 26.65 -14.55 26.65 -12.1 27.1 -11.2 27.45 -11.05 27.5 -2.75 31.1 -2.15 31.35 -0.85 31.85 0.35 32.35 1.05 32.6 1.85 32.95 3.3 33.55 L3.3 33.55" fill="#000000" fill-rule="evenodd" stroke="none"/>
  </g>
</svg>
