<?xml version="1.0" encoding="UTF-8" standalone="no"?>
<svg xmlns:xlink="http://www.w3.org/1999/xlink" height="52.35px" width="43.05px" xmlns="http://www.w3.org/2000/svg">
  <g transform="matrix(1.0, 0.0, 0.0, 1.0, 21.5, 26.15)">
    <path d="M21.55 -8.15 Q21.35 -8.85 21.0 -9.45 20.65 -10.1 20.2 -10.7 19.8 -11.25 19.25 -11.8 18.75 -12.3 18.15 -12.75 17.55 -13.2 16.9 -13.5 16.2 -13.85 15.5 -14.1 14.8 -14.35 14.05 -14.5 13.3 -14.6 12.5 -14.65 12.5 -14.65 12.5 -14.65 12.5 -14.7 12.5 -14.7 12.45 -14.95 12.4 -15.15 12.35 -15.4 12.3 -15.6 12.25 -15.85 12.2 -16.1 12.15 -16.35 12.1 -16.6 12.05 -16.85 11.95 -17.05 11.9 -17.3 11.8 -17.55 11.75 -17.85 11.65 -18.1 11.6 -18.35 11.5 -18.6 11.45 -18.8 11.35 -19.05 11.3 -19.25 11.2 -19.45 11.15 -19.65 11.05 -19.9 11.0 -20.1 10.9 -20.3 10.85 -20.5 10.75 -20.7 10.7 -20.85 10.6 -21.05 10.5 -21.25 10.45 -21.45 10.35 -21.6 10.3 -21.8 10.0 -22.35 9.5 -22.9 9.05 -23.35 8.45 -23.8 7.9 -24.25 7.25 -24.6 6.65 -24.95 6.05 -25.2 5.45 -25.4 4.95 -25.55 4.4 -25.65 4.05 -25.65 3.65 -25.65 3.45 -25.45 3.25 -25.3 3.3 -25.0 3.4 -24.8 3.75 -24.2 3.75 -24.25 4.5 -22.95 5.05 -22.05 5.45 -21.4 6.0 -20.45 6.45 -19.6 7.0 -18.6 7.4 -17.75 7.9 -16.8 8.2 -16.0 8.6 -15.1 8.75 -14.4 8.95 -13.65 8.95 -13.15 8.6 -12.9 8.25 -12.6 7.9 -12.3 7.55 -12.0 7.25 -11.7 6.9 -11.35 6.6 -11.0 6.35 -10.65 6.05 -10.35 5.8 -9.95 5.55 -9.6 5.35 -9.2 5.1 -8.85 4.9 -8.45 4.7 -8.05 4.55 -7.65 4.2 -8.05 3.65 -8.5 3.15 -8.9 2.5 -9.35 1.85 -9.75 1.1 -10.15 0.35 -10.55 -0.5 -10.9 -1.4 -11.3 -2.3 -11.6 -3.25 -11.95 -4.2 -12.25 -5.25 -12.5 -6.25 -12.7 -7.3 -12.95 -8.35 -13.05 -8.45 -13.4 -8.6 -13.8 -8.75 -14.2 -8.9 -14.6 -9.1 -15.05 -9.25 -15.55 -9.5 -16.05 -9.7 -16.55 -9.95 -17.1 -10.25 -17.7 -10.5 -18.3 -10.85 -18.9 -11.2 -19.6 -11.55 -20.25 -11.95 -21.0 -12.35 -21.75 -12.55 -22.05 -12.9 -22.65 -13.25 -23.2 -13.35 -23.4 -13.6 -23.75 -13.8 -23.9 -14.0 -24.1 -14.2 -24.2 -14.4 -24.25 -14.7 -24.2 -14.95 -24.15 -15.35 -23.95 -15.7 -23.75 -16.15 -23.4 -16.6 -23.05 -17.3 -22.55 -17.65 -22.35 -17.75 -22.1 -17.85 -21.85 -17.8 -21.5 -17.75 -21.15 -17.5 -20.7 -17.35 -20.35 -16.95 -19.7 -16.5 -18.8 -16.3 -18.45 -15.9 -17.7 -15.55 -16.95 -15.15 -16.1 -14.85 -15.2 -14.5 -14.15 -14.25 -13.05 -14.35 -13.05 -14.4 -13.0 -14.5 -13.0 -14.55 -12.95 -14.65 -12.95 -14.75 -12.9 -14.8 -12.9 -14.9 -12.85 -15.0 -12.8 -15.05 -12.8 -15.15 -12.75 -15.2 -12.7 -15.3 -12.7 -15.4 -12.65 -15.45 -12.6 -15.55 -12.55 -15.75 -12.45 -15.95 -12.35 -16.15 -12.2 -16.35 -12.1 -16.5 -12.0 -16.65 -11.85 -16.8 -11.75 -16.95 -11.65 -17.1 -11.5 -17.2 -11.4 -17.3 -11.3 -17.4 -11.2 -17.5 -11.1 -17.55 -11.0 -17.65 -10.9 -17.7 -10.8 -17.85 -10.6 -17.95 -10.4 -18.1 -10.15 -18.2 -9.95 -18.35 -9.65 -18.5 -9.4 -18.65 -9.1 -18.75 -8.8 -18.9 -8.45 -19.0 -8.1 -19.15 -7.75 -19.25 -7.35 -19.35 -6.95 -19.45 -6.55 -19.55 -6.15 -19.6 -5.7 -19.65 -5.15 -19.7 -4.6 -19.7 -4.05 -19.7 -3.55 -19.65 -3.05 -19.6 -2.55 -19.55 -2.15 -19.45 -1.7 -19.4 -1.3 -19.25 -0.9 -19.15 -0.55 -19.05 -0.2 -18.95 0.1 -18.85 0.4 -18.75 0.65 -18.65 0.9 -18.6 1.15 -18.55 1.4 -18.45 1.65 -18.4 1.9 -18.35 2.15 -18.3 2.4 -18.3 2.6 -18.25 2.85 -18.2 3.05 -18.15 3.3 -18.15 3.5 -18.1 3.7 -18.05 3.9 -18.05 4.05 -18.0 4.25 -18.0 4.4 -17.95 4.75 -17.9 4.95 -17.9 5.25 -17.85 5.45 -17.85 5.7 -17.8 5.9 -17.8 6.1 -17.75 6.3 -17.75 6.5 -17.75 6.65 -17.75 6.85 -17.75 7.0 -17.75 7.15 -17.75 7.3 -17.75 7.45 -17.8 7.65 -18.05 8.85 -18.3 10.05 -18.35 10.2 -18.4 10.35 -18.45 10.5 -18.5 10.65 -18.55 10.85 -18.55 10.9 -18.6 11.0 -18.6 11.05 -18.65 11.15 -18.65 11.25 -18.65 11.3 -18.65 11.4 -18.65 11.45 -18.65 11.5 -18.65 11.55 -18.6 11.65 -18.55 11.75 -18.3 11.85 -18.1 11.9 -17.55 12.0 -16.6 12.15 -16.25 12.2 -15.3 12.4 -14.3 12.6 -13.0 12.9 -11.55 13.3 -9.85 13.8 -7.9 14.4 -5.7 15.15 -3.25 16.05 -0.5 17.05 2.6 18.3 3.7 18.9 4.35 19.15 5.0 19.35 5.3 19.25 5.55 19.15 5.65 18.8 5.7 18.55 5.65 18.0 5.5 16.7 5.55 17.0 5.5 16.4 5.55 16.0 5.65 15.45 5.95 15.1 6.3 14.7 6.95 14.5 7.15 14.45 7.25 14.5 7.4 14.5 7.5 14.6 7.6 14.65 7.65 14.75 7.7 14.85 7.7 15.0 7.75 15.1 7.75 15.25 7.8 15.35 7.8 15.5 7.8 15.4 7.8 15.7 7.8 15.85 7.8 15.9 7.9 16.75 7.9 17.85 7.95 19.0 8.0 19.25 8.05 19.8 8.15 20.0 8.35 20.2 8.7 20.15 9.0 20.05 9.7 19.7 10.2 19.4 11.4 18.65 13.6 17.25 13.95 17.05 15.8 15.9 17.6 14.85 18.15 14.55 18.45 14.3 18.7 14.05 18.75 13.7 18.8 13.4 18.75 12.95 18.7 12.65 18.45 11.9 18.25 11.05 18.1 10.4 17.9 9.45 17.8 8.4 17.65 7.15 17.65 5.7 17.6 4.1 17.75 2.25 18.4 1.8 19.0 1.3 19.55 0.75 20.0 0.2 20.5 -0.4 20.85 -1.05 21.2 -1.7 21.45 -2.4 21.7 -3.05 21.85 -3.8 22.0 -4.5 22.0 -5.2 22.0 -5.95 21.9 -6.7 21.8 -7.4 21.55 -8.15 L21.55 -8.15 M5.75 -23.65 Q5.9 -23.65 6.05 -23.6 6.2 -23.6 6.3 -23.55 6.45 -23.55 6.55 -23.5 6.7 -23.45 6.8 -23.4 6.95 -23.4 7.05 -23.35 7.15 -23.3 7.25 -23.25 7.4 -23.2 7.5 -23.1 7.6 -23.05 7.7 -23.0 7.9 -22.9 8.05 -22.75 8.2 -22.65 8.35 -22.5 8.5 -22.35 8.6 -22.2 8.75 -22.05 8.85 -21.85 8.95 -21.7 9.05 -21.5 9.2 -21.3 9.3 -21.05 9.4 -20.9 9.5 -20.6 9.6 -20.45 9.75 -20.15 10.35 -18.8 11.1 -16.05 11.15 -15.95 11.15 -15.85 11.2 -15.75 11.2 -15.6 11.25 -15.5 11.25 -15.4 11.3 -15.3 11.3 -15.25 11.35 -15.15 11.35 -15.05 11.4 -14.95 11.4 -14.9 11.4 -14.8 11.45 -14.7 11.45 -14.65 11.45 -14.6 11.3 -14.5 10.85 -14.2 10.55 -14.0 10.2 -13.75 10.15 -14.05 10.05 -14.3 10.0 -14.6 9.9 -14.9 9.8 -15.2 9.7 -15.5 9.65 -15.8 9.55 -16.15 9.4 -16.45 9.3 -16.8 9.2 -17.1 9.05 -17.45 8.95 -17.8 8.8 -18.1 8.65 -18.45 8.5 -18.8 8.35 -19.15 8.15 -19.55 8.0 -19.85 7.85 -20.2 7.65 -20.55 7.5 -20.85 7.3 -21.2 7.15 -21.5 6.95 -21.8 6.8 -22.1 6.6 -22.35 6.45 -22.65 6.3 -22.9 6.1 -23.15 5.95 -23.4 5.75 -23.65 L5.75 -23.65 M-14.6 -18.0 Q-14.7 -18.2 -14.8 -18.45 -14.9 -18.65 -15.0 -18.85 -15.1 -19.1 -15.2 -19.3 -15.3 -19.55 -15.4 -19.75 -15.5 -19.95 -15.6 -20.15 -15.7 -20.4 -15.85 -20.6 -15.95 -20.8 -16.05 -21.0 -16.2 -21.25 -16.3 -21.45 -16.35 -21.5 -16.35 -21.55 -16.35 -21.55 -16.35 -21.6 -16.35 -21.65 -16.35 -21.65 -16.3 -21.7 -16.25 -21.7 -16.15 -21.75 -16.05 -21.85 -15.95 -21.9 -15.85 -22.0 -15.8 -22.05 -15.7 -22.1 -15.6 -22.2 -15.5 -22.25 -15.4 -22.3 -15.3 -22.4 -15.2 -22.45 -15.1 -22.5 -15.0 -22.6 -14.95 -22.65 -14.85 -22.7 -14.75 -22.8 -14.7 -22.85 -14.65 -22.85 -14.6 -22.85 -14.6 -22.8 -14.55 -22.8 -14.55 -22.8 -14.5 -22.75 -14.5 -22.7 -13.1 -20.5 -12.35 -19.0 -12.2 -18.7 -12.05 -18.4 -11.9 -18.05 -11.75 -17.75 -11.6 -17.45 -11.45 -17.15 -11.3 -16.8 -11.15 -16.5 -11.05 -16.2 -10.9 -15.85 -10.75 -15.55 -10.65 -15.25 -10.5 -14.95 -10.35 -14.6 -10.25 -14.3 -10.1 -14.0 -10.0 -13.75 -9.8 -13.2 -9.9 -13.2 -10.0 -13.2 -10.1 -13.2 -10.2 -13.25 -10.3 -13.25 -10.4 -13.25 -10.5 -13.25 -10.6 -13.25 -10.7 -13.25 -10.8 -13.25 -10.9 -13.25 -11.0 -13.25 -11.1 -13.25 -11.2 -13.25 -11.3 -13.25 -11.4 -13.25 -11.5 -13.25 -11.55 -13.25 -11.65 -13.3 -11.75 -13.3 -11.85 -13.3 -11.95 -13.3 -12.05 -13.3 -12.15 -13.3 -12.25 -13.3 -12.35 -13.3 -12.45 -13.3 -12.55 -13.3 -12.65 -13.3 -12.8 -13.3 -12.9 -13.3 -13.0 -13.3 -13.1 -13.6 -13.15 -13.9 -13.25 -14.2 -13.35 -14.5 -13.4 -14.8 -13.5 -15.1 -13.6 -15.35 -13.7 -15.65 -13.8 -15.95 -13.9 -16.25 -14.0 -16.55 -14.15 -16.85 -14.25 -17.15 -14.35 -17.4 -14.5 -17.7 -14.6 -18.0 L-14.6 -18.0 M4.55 17.7 Q4.45 17.65 4.35 17.6 4.3 17.55 4.15 17.5 4.1 17.45 3.95 17.4 3.9 17.35 3.75 17.3 3.6 17.25 3.55 17.2 3.45 17.15 3.35 17.15 3.25 17.1 3.15 17.05 3.05 17.0 2.95 16.95 2.9 16.9 2.85 16.9 2.85 16.85 2.8 16.85 2.5 16.75 1.55 16.35 0.8 16.0 0.3 15.8 -0.3 15.55 -3.2 14.45 -3.4 14.4 -4.1 14.15 -4.65 14.0 -4.95 13.9 -5.8 13.6 -9.3 12.55 -9.6 12.45 -10.45 12.25 -11.15 12.1 -11.55 11.95 -12.0 11.8 -12.95 11.6 -13.9 11.45 -14.35 11.3 -14.9 11.15 -16.7 10.8 -16.75 10.8 -16.75 10.8 -16.8 10.75 -16.85 10.75 -16.85 10.75 -16.9 10.7 -16.9 10.7 -16.9 10.7 -16.9 10.65 -16.95 10.65 -16.95 10.65 -16.95 10.6 -16.95 10.6 -16.95 10.55 -16.9 10.55 -16.9 10.5 -16.8 10.2 -16.7 9.95 -16.65 9.65 -16.55 9.35 -16.5 9.05 -16.5 8.8 -16.45 8.5 -16.45 8.2 -16.45 7.9 -16.45 7.65 -16.45 7.35 -16.45 7.05 -16.45 6.75 -16.5 6.45 -16.55 6.2 -16.6 5.9 -16.7 4.9 -17.15 1.9 -17.15 1.85 -17.15 1.8 -17.15 1.7 -17.15 1.65 -15.7 2.95 -14.9 3.5 -14.1 4.0 -12.4 4.85 -12.05 5.05 -11.7 5.2 -11.3 5.35 -10.95 5.45 -10.6 5.6 -10.2 5.7 -9.85 5.8 -9.45 5.85 -9.05 5.95 -8.65 5.95 -8.25 6.0 -7.85 6.05 -7.45 6.05 -7.05 6.05 -6.65 6.05 -6.25 6.0 -4.65 5.8 -3.95 5.6 -3.75 5.55 -3.05 5.35 -2.5 5.15 -2.2 5.05 -0.1 4.1 0.65 3.55 0.7 3.5 1.2 3.25 1.55 3.05 1.75 2.9 3.0 2.05 3.45 1.65 3.5 1.6 3.55 1.6 3.6 1.6 3.65 1.6 3.65 1.65 3.7 1.7 3.8 1.8 3.9 1.9 3.95 2.0 4.05 2.1 4.1 2.2 4.15 2.35 4.2 2.45 4.25 2.55 4.3 2.65 4.35 2.8 4.35 2.9 4.4 3.05 4.4 3.15 4.45 3.3 4.45 3.4 4.45 3.55 4.45 3.6 4.45 3.65 4.45 3.7 4.4 3.7 4.4 3.7 4.35 3.7 4.3 3.75 4.25 3.7 4.25 3.7 4.2 3.7 4.15 3.65 3.2 3.45 3.1 3.45 3.05 3.4 2.95 3.4 2.9 3.4 2.8 3.4 2.75 3.4 2.7 3.45 2.6 3.45 2.55 3.5 2.5 3.55 2.45 3.55 2.4 3.6 2.35 3.65 2.3 3.75 2.3 3.8 2.25 3.85 2.2 3.9 2.2 4.0 2.2 4.05 2.15 4.1 2.15 4.2 2.2 4.25 2.2 4.3 2.2 4.35 2.25 4.45 2.25 4.5 2.3 4.55 2.35 4.6 2.4 4.65 2.45 4.65 2.5 4.7 2.6 4.75 3.3 5.0 3.3 5.0 3.25 5.05 3.2 5.05 3.15 5.1 3.05 5.15 2.95 5.2 2.95 5.2 2.85 5.25 2.8 5.25 2.75 5.3 2.7 5.35 2.65 5.4 2.6 5.45 2.55 5.5 2.5 5.55 2.45 5.6 2.45 5.65 2.45 5.7 2.4 5.75 2.4 5.8 2.4 5.85 2.4 5.9 2.4 5.95 2.4 6.05 2.4 6.1 2.4 6.15 2.4 6.2 2.45 6.25 2.45 6.25 2.5 6.3 2.55 6.35 2.6 6.4 2.65 6.45 2.7 6.5 2.75 6.5 2.8 6.55 2.85 6.6 2.95 6.6 3.0 6.6 3.05 6.65 3.1 6.65 3.2 6.65 3.25 6.65 3.3 6.65 3.35 6.65 3.45 6.65 3.5 6.6 3.6 6.6 3.65 6.55 3.75 6.5 3.75 6.5 3.85 6.5 3.9 6.45 3.95 6.45 4.0 6.45 4.05 6.4 4.1 6.4 4.15 6.35 4.25 6.3 4.3 6.3 4.35 6.25 4.4 6.2 4.45 6.15 4.5 6.1 4.55 6.05 L4.55 7.6 Q4.45 7.6 4.35 7.55 0.5 7.0 4.1 7.55 3.95 7.5 3.9 7.5 3.75 7.5 3.65 7.5 3.55 7.5 3.45 7.55 3.35 7.55 3.25 7.6 3.15 7.7 3.1 7.75 3.05 7.85 3.0 8.0 2.95 8.05 2.95 8.1 2.95 8.15 2.95 8.2 2.95 8.25 2.95 8.35 2.95 8.4 3.0 8.45 3.0 8.5 3.05 8.55 3.05 8.55 3.1 8.6 3.15 8.65 3.2 8.7 3.25 8.75 3.3 8.8 3.35 8.85 3.4 8.85 3.45 8.9 3.5 8.9 3.6 8.9 3.65 8.9 3.7 8.95 3.8 8.95 4.15 9.0 3.9 8.95 4.0 8.95 4.05 8.95 4.1 9.0 4.2 9.0 4.25 9.0 4.3 9.05 3.35 9.55 3.0 9.75 2.95 9.8 2.9 9.8 2.85 9.85 2.8 9.9 2.75 9.95 2.7 10.0 2.65 10.05 2.65 10.1 2.6 10.15 2.6 10.2 2.6 10.25 2.6 10.3 2.6 10.35 2.6 10.45 2.6 10.5 2.6 10.55 2.6 10.65 2.65 10.7 2.7 10.75 2.75 10.85 2.8 10.9 2.85 10.95 2.9 11.0 3.0 11.0 3.05 11.05 3.15 11.05 3.25 11.1 3.3 11.1 3.4 11.1 3.5 11.1 3.6 11.05 3.7 11.05 3.75 11.0 3.9 10.95 4.05 10.85 4.15 10.8 4.15 10.8 4.2 10.75 4.2 10.8 4.25 10.75 4.3 10.75 4.3 10.7 4.35 10.7 4.4 10.7 4.4 10.65 4.45 10.65 4.45 10.65 4.5 10.6 4.55 10.6 4.55 10.55 4.6 10.5 4.6 10.5 4.6 10.85 4.6 12.15 4.6 12.25 4.55 12.25 4.55 12.25 4.35 12.25 4.25 12.25 3.8 12.15 3.45 12.1 3.2 12.1 3.1 12.1 3.0 12.1 2.95 12.1 2.85 12.1 2.8 12.1 2.7 12.15 2.65 12.15 2.6 12.2 2.5 12.25 2.45 12.3 2.4 12.3 2.4 12.4 2.35 12.45 2.3 12.5 2.3 12.55 2.25 12.65 2.25 12.75 2.25 12.8 2.25 12.85 2.25 12.95 2.25 13.0 2.3 13.05 2.35 13.15 2.35 13.2 2.4 13.25 2.45 13.3 2.5 13.35 2.6 13.4 2.65 13.4 2.75 13.45 2.8 13.45 2.9 13.5 4.15 13.65 4.35 13.7 4.45 13.7 4.5 13.7 4.6 13.75 4.6 13.85 4.6 13.9 4.6 13.95 4.6 14.0 4.55 14.0 4.55 14.05 4.5 14.1 4.45 14.1 4.4 14.15 3.7 14.55 3.25 14.85 3.2 14.9 3.15 14.95 3.1 15.0 3.05 15.0 3.0 15.05 2.95 15.1 2.95 15.15 2.9 15.2 2.9 15.3 2.9 15.35 2.9 15.4 2.9 15.45 2.9 15.5 2.9 15.55 2.9 15.65 2.95 15.7 2.95 15.75 3.0 15.8 3.0 15.85 3.05 15.85 3.05 15.9 3.1 15.95 3.1 15.95 3.15 16.0 3.2 16.0 3.25 16.05 3.3 16.05 3.35 16.1 3.4 16.1 3.45 16.1 3.5 16.1 3.55 16.15 3.6 16.15 3.65 16.15 3.65 16.15 3.7 16.15 3.75 16.15 3.8 16.15 3.8 16.15 3.85 16.1 3.9 16.1 3.95 16.1 3.95 16.1 4.0 16.1 4.05 16.05 4.05 16.05 4.1 16.05 4.15 16.05 4.25 15.95 4.55 15.8 L4.55 17.7 4.55 17.7 M6.75 12.8 Q6.6 12.75 6.3 12.7 5.95 12.65 5.85 12.6 5.8 12.6 5.75 12.55 5.75 12.55 5.7 12.5 5.7 12.5 5.7 12.45 5.7 12.45 5.7 12.4 5.7 12.25 5.7 12.1 5.7 12.0 5.7 11.85 5.7 11.7 5.7 11.55 5.7 11.45 5.7 11.3 5.7 11.15 5.7 11.0 5.7 10.9 5.7 10.75 5.7 10.6 5.7 10.45 5.7 10.35 5.7 10.2 5.7 10.15 5.75 10.1 5.75 10.05 5.8 10.0 5.85 9.95 5.95 9.9 6.0 9.85 6.1 9.8 6.15 9.75 6.25 9.7 6.35 9.65 6.4 9.65 6.5 9.6 6.6 9.6 6.65 9.6 6.7 9.6 6.8 9.6 6.85 9.65 6.9 9.65 6.95 9.7 7.05 9.7 7.1 9.75 7.15 9.8 7.2 9.8 7.2 9.85 7.25 9.9 7.3 9.95 7.3 10.0 7.35 10.05 7.35 10.1 7.35 10.2 7.35 10.25 7.35 10.4 7.55 12.45 7.55 12.5 7.55 12.55 7.5 12.55 7.45 12.6 7.45 12.65 7.4 12.65 7.35 12.7 7.25 12.75 7.2 12.75 7.15 12.8 7.1 12.8 7.0 12.8 6.95 12.85 6.9 12.85 6.8 12.85 6.75 12.8 L6.75 12.8 M9.6 12.1 Q9.65 12.1 9.65 12.1 9.7 12.05 9.7 12.05 9.75 12.05 9.8 12.05 9.8 12.05 9.85 12.0 9.9 12.0 9.9 12.0 9.95 12.0 9.95 12.0 10.0 12.0 10.05 12.0 10.1 12.0 10.1 12.0 10.15 12.0 10.2 12.0 10.25 12.0 10.25 12.0 10.3 12.0 10.35 12.0 10.4 12.05 10.4 12.05 10.45 12.05 10.45 12.1 10.5 12.1 10.5 12.15 10.5 12.15 10.55 12.2 10.55 12.2 10.55 12.25 10.55 12.3 10.55 12.3 10.55 12.35 10.55 12.4 10.55 12.4 10.55 12.45 10.55 12.5 10.55 12.5 10.5 12.55 10.5 12.6 10.5 12.6 10.45 12.65 10.4 12.65 10.4 12.65 10.35 12.7 10.3 12.7 10.2 12.75 10.1 12.75 10.0 12.8 9.9 12.8 9.8 12.85 9.75 12.85 9.65 12.9 9.55 12.95 9.45 12.95 9.35 13.0 9.25 13.05 9.2 13.05 9.1 13.1 9.0 13.15 8.95 13.2 8.85 13.25 8.8 13.3 8.7 13.3 8.65 13.35 8.6 13.35 8.5 13.35 8.45 13.35 8.4 13.35 8.3 13.35 8.25 13.35 8.2 13.3 8.15 13.3 8.05 13.3 8.0 13.25 7.95 13.25 7.8 13.15 7.8 13.15 7.4 13.0 7.75 13.15 7.7 13.1 7.65 13.1 7.6 13.1 7.6 13.05 7.55 13.05 7.5 13.05 7.45 13.0 7.45 12.95 7.75 12.85 8.5 12.5 9.15 12.2 9.6 12.1 L9.6 12.1 M7.2 9.45 Q7.15 9.45 7.1 9.4 7.1 9.4 7.1 9.4 7.05 9.35 7.1 9.35 7.1 9.35 7.15 9.3 7.15 9.3 7.2 9.25 7.3 9.2 7.4 9.15 7.55 9.1 7.65 9.05 7.75 9.05 7.85 9.05 7.95 9.0 8.05 9.0 8.15 9.0 8.25 9.05 8.4 9.05 8.5 9.1 8.6 9.1 8.7 9.15 8.8 9.2 8.9 9.3 9.0 9.35 9.2 9.45 9.4 9.55 9.5 9.6 9.55 9.65 9.6 9.65 9.6 9.7 9.65 9.75 9.7 9.75 9.7 9.8 9.75 9.85 9.75 9.9 9.75 9.95 9.75 10.0 9.75 10.05 9.75 10.1 9.7 10.15 9.7 10.2 9.65 10.25 9.65 10.25 9.6 10.3 9.55 10.35 9.5 10.35 9.45 10.35 9.4 10.4 9.35 10.35 9.25 10.35 9.2 10.35 9.15 10.35 9.1 10.3 7.6 9.6 7.2 9.45 L7.2 9.45 M5.1 9.9 Q3.75 10.65 3.65 10.7 3.6 10.75 3.6 10.75 3.55 10.8 3.5 10.8 3.45 10.8 3.4 10.8 3.4 10.8 3.35 10.8 3.3 10.8 3.25 10.8 3.2 10.8 3.2 10.8 3.15 10.8 3.1 10.75 3.1 10.75 3.05 10.75 3.0 10.7 3.0 10.7 3.0 10.65 2.95 10.65 2.95 10.6 2.95 10.55 2.95 10.55 2.95 10.5 2.9 10.5 2.9 10.45 2.9 10.4 2.9 10.35 2.9 10.35 2.95 10.3 2.95 10.25 3.0 10.2 3.35 9.9 3.45 9.85 3.6 9.8 5.3 8.95 5.5 8.85 5.7 8.75 5.9 8.65 6.1 8.55 6.3 8.45 6.5 8.35 6.75 8.25 6.95 8.2 7.15 8.1 7.35 8.0 7.55 7.9 7.8 7.8 8.0 7.75 8.2 7.65 8.4 7.6 8.65 7.5 8.7 7.5 8.75 7.45 8.75 7.45 8.8 7.45 8.8 7.45 8.9 7.4 8.95 7.35 8.95 7.35 9.0 7.35 9.05 7.35 9.1 7.3 9.15 7.3 9.2 7.3 9.25 7.25 9.3 7.25 9.35 7.25 9.4 7.25 9.45 7.25 9.5 7.25 9.5 7.25 9.55 7.25 9.6 7.25 9.65 7.25 9.65 7.3 9.7 7.3 9.7 7.3 9.75 7.35 9.75 7.35 9.8 7.4 9.8 7.45 9.85 7.45 9.85 7.5 9.85 7.55 9.85 7.6 9.9 7.65 9.9 7.65 9.9 7.7 9.9 7.75 9.85 7.75 9.85 7.8 9.85 7.8 9.8 7.85 9.8 7.9 9.75 7.9 9.75 7.9 9.7 7.95 9.65 7.95 9.6 8.0 9.5 8.05 9.15 8.15 8.9 8.25 8.7 8.3 7.4 8.75 5.1 9.9 L5.1 9.9 M3.4 8.4 Q3.4 8.35 3.35 8.35 3.35 8.3 3.35 8.3 3.35 8.25 3.35 8.2 3.3 8.2 3.3 8.15 3.3 8.15 3.35 8.1 3.35 8.1 3.35 8.05 3.35 8.05 3.35 8.0 3.35 8.0 3.4 7.95 3.4 7.95 3.45 7.9 3.45 7.9 3.5 7.85 3.5 7.85 3.5 7.85 3.55 7.85 3.6 7.8 3.6 7.8 3.65 7.8 3.65 7.8 3.7 7.8 3.75 7.8 3.75 7.8 3.8 7.8 3.85 7.8 4.55 7.85 5.9 8.25 5.85 8.3 5.8 8.3 5.7 8.35 5.65 8.4 5.6 8.4 5.55 8.45 5.5 8.45 5.4 8.5 5.35 8.55 5.3 8.55 5.2 8.6 5.15 8.6 5.1 8.65 5.05 8.7 5.0 8.7 4.95 8.75 4.9 8.75 4.85 8.75 4.75 8.75 4.65 8.75 4.55 8.75 4.4 8.7 4.3 8.7 4.15 8.65 4.0 8.65 3.85 8.6 3.75 8.55 3.65 8.5 3.55 8.45 3.45 8.45 3.4 8.4 3.4 8.4 L3.4 8.4 M6.4 8.0 Q6.3 8.0 6.2 8.0 6.15 8.0 6.05 7.95 6.0 7.95 5.95 7.9 5.9 7.9 5.85 7.85 5.8 7.8 5.75 7.75 5.7 7.7 5.7 7.65 5.65 7.6 5.65 7.5 5.65 7.45 5.65 7.35 5.65 7.05 5.65 6.5 5.6 5.9 5.6 5.65 5.6 5.6 5.6 5.55 5.6 5.5 5.65 5.5 5.65 5.45 5.7 5.45 5.75 5.45 5.8 5.45 5.85 5.5 5.9 5.5 5.95 5.55 6.7 5.75 6.75 5.75 6.8 5.8 6.85 5.8 6.85 5.85 6.9 5.9 6.9 5.9 6.95 5.95 6.95 6.0 6.95 6.45 7.1 7.6 7.1 7.6 7.1 7.65 7.05 7.7 7.05 7.7 7.0 7.75 6.95 7.8 6.9 7.8 6.85 7.85 6.8 7.9 6.75 7.9 6.7 7.95 6.65 7.95 6.6 7.95 6.55 8.0 6.45 8.0 6.4 8.0 L6.4 8.0 M7.1 5.5 Q7.05 5.5 7.0 5.45 6.95 5.45 6.9 5.4 6.8 5.4 6.75 5.4 6.7 5.4 6.65 5.35 6.6 5.35 6.5 5.35 6.4 5.3 6.4 5.3 6.35 5.3 6.25 5.3 6.2 5.25 6.15 5.25 6.3 5.2 6.6 5.05 6.9 4.9 7.05 4.8 7.1 4.8 7.1 4.75 7.15 4.75 7.2 4.75 7.2 4.75 7.25 4.75 7.3 4.75 7.35 4.75 7.35 4.75 7.4 4.75 7.45 4.75 7.45 4.8 7.5 4.8 7.5 4.8 7.55 4.8 7.6 4.85 7.65 4.9 7.75 4.95 7.85 4.95 7.9 5.0 8.0 5.0 8.05 5.05 8.15 5.05 8.25 5.1 8.3 5.1 8.4 5.15 8.5 5.15 8.6 5.2 8.65 5.2 8.75 5.2 8.85 5.25 8.95 5.25 9.0 5.25 9.05 5.3 9.1 5.3 9.15 5.3 9.2 5.35 9.25 5.35 9.3 5.4 9.3 5.4 9.35 5.45 9.35 5.5 9.35 5.5 9.35 5.55 9.35 5.6 9.35 5.65 9.35 5.7 9.35 5.75 9.35 5.8 9.3 5.85 9.3 5.85 9.25 5.9 9.25 5.95 9.2 5.95 9.15 6.0 9.15 6.0 9.1 6.0 9.05 6.0 9.0 6.0 8.95 6.05 8.9 6.05 8.85 6.05 8.8 6.0 8.75 6.0 8.65 6.0 8.55 5.95 8.4 5.95 8.3 5.95 8.2 5.9 8.1 5.9 8.0 5.85 7.9 5.8 7.8 5.8 7.7 5.75 7.6 5.7 7.5 5.7 7.4 5.65 7.3 5.6 7.2 5.55 7.1 5.5 L7.1 5.5 M6.25 4.8 Q6.05 4.9 5.9 4.95 5.75 5.05 5.6 5.1 5.4 5.2 5.25 5.25 5.1 5.35 4.95 5.45 4.8 5.5 4.65 5.6 4.5 5.7 4.35 5.8 4.2 5.9 4.05 6.0 3.9 6.1 3.75 6.2 3.7 6.25 3.65 6.25 3.6 6.3 3.55 6.3 3.45 6.35 3.4 6.35 3.35 6.35 3.3 6.35 3.2 6.35 3.15 6.35 3.1 6.35 3.05 6.3 3.0 6.3 2.95 6.3 2.9 6.25 2.85 6.25 2.8 6.2 2.8 6.15 2.75 6.1 2.75 6.05 2.75 6.0 2.75 5.95 2.75 5.85 2.75 5.8 2.8 5.75 2.8 5.7 2.85 5.65 2.9 5.6 2.95 5.55 3.0 5.5 3.1 5.5 3.15 5.45 3.55 5.3 4.15 4.95 4.95 4.55 5.15 4.45 5.35 4.35 5.55 4.25 5.75 4.15 5.95 4.1 6.15 4.0 6.35 3.9 6.55 3.8 6.75 3.75 7.0 3.65 7.2 3.55 7.4 3.5 7.6 3.4 7.8 3.3 8.0 3.25 8.25 3.15 8.45 3.1 8.45 3.1 8.7 2.95 8.7 2.95 8.75 2.95 8.8 2.9 8.8 2.9 8.85 2.9 8.85 2.9 8.9 2.9 8.95 2.85 8.95 2.85 9.0 2.85 9.0 2.85 9.05 2.85 9.1 2.85 9.1 2.9 9.15 2.9 9.2 2.9 9.25 2.9 9.3 2.95 9.3 3.0 9.35 3.05 9.35 3.05 9.4 3.1 9.4 3.15 9.4 3.2 9.45 3.2 9.45 3.25 9.45 3.3 9.45 3.35 9.45 3.35 9.4 3.4 9.4 3.45 9.35 3.45 9.35 3.5 9.35 3.55 9.3 3.55 9.25 3.6 9.25 3.6 9.2 3.65 9.2 3.65 9.15 3.65 9.1 3.7 9.05 3.7 9.05 3.7 9.0 3.75 8.95 3.75 8.9 3.8 8.9 3.8 8.8 3.8 8.0 4.05 6.25 4.8 L6.25 4.8 M2.75 4.45 Q2.7 4.45 2.65 4.4 2.65 4.4 2.6 4.35 2.6 4.35 2.6 4.3 2.55 4.3 2.55 4.25 2.55 4.2 2.55 4.2 2.55 4.15 2.55 4.15 2.55 4.1 2.55 4.05 2.55 4.05 2.55 4.0 2.55 3.95 2.6 3.95 2.6 3.9 2.65 3.9 2.65 3.85 2.7 3.85 2.7 3.8 2.75 3.8 2.75 3.8 2.8 3.8 2.85 3.75 2.85 3.75 2.9 3.75 2.95 3.75 3.0 3.75 3.0 3.75 3.25 3.8 3.95 3.95 4.55 4.05 4.9 4.15 4.8 4.25 4.7 4.35 4.55 4.4 4.45 4.45 4.3 4.55 4.15 4.6 4.0 4.6 3.85 4.65 3.75 4.65 3.6 4.65 3.45 4.65 3.3 4.65 3.15 4.6 3.0 4.6 2.85 4.55 2.75 4.45 L2.75 4.45 M6.15 14.55 Q6.05 14.6 4.3 15.5 4.25 15.5 4.25 15.55 4.2 15.55 4.15 15.6 4.15 15.6 4.1 15.65 4.05 15.65 4.05 15.7 4.0 15.75 4.0 15.75 3.95 15.8 3.9 15.8 3.85 15.8 3.85 15.85 3.8 15.85 3.75 15.85 3.7 15.85 3.65 15.85 3.65 15.85 3.6 15.85 3.55 15.85 3.5 15.85 3.45 15.8 3.45 15.8 3.4 15.75 3.4 15.75 3.35 15.7 3.3 15.65 3.3 15.65 3.25 15.6 3.25 15.55 3.25 15.5 3.25 15.5 3.25 15.45 3.25 15.4 3.25 15.35 3.25 15.35 3.3 15.3 3.3 15.25 3.35 15.2 3.4 15.15 3.4 15.15 3.45 15.1 3.45 15.1 3.5 15.05 3.5 15.05 3.55 15.0 3.6 15.0 3.65 14.95 3.65 14.95 3.8 14.85 4.35 14.55 4.75 14.35 5.0 14.2 5.05 14.15 5.1 14.15 5.2 14.1 5.25 14.1 5.3 14.05 5.35 14.05 5.4 14.05 5.5 14.0 5.55 14.0 5.6 14.0 5.65 14.0 5.75 14.0 5.8 14.05 5.85 14.05 5.9 14.05 6.0 14.1 6.1 14.15 6.25 14.15 6.5 14.25 6.55 14.25 6.2 14.5 6.15 14.55 L6.15 14.55 M7.9 14.35 Q7.85 14.35 7.5 14.2 7.2 14.1 6.95 14.05 6.7 13.95 6.45 13.9 6.15 13.8 5.9 13.75 5.6 13.65 5.35 13.6 5.1 13.55 4.8 13.5 4.55 13.4 4.25 13.35 3.95 13.3 3.7 13.3 3.4 13.25 3.15 13.2 3.05 13.2 3.0 13.15 2.9 13.15 2.85 13.15 2.8 13.1 2.75 13.05 2.7 13.0 2.7 13.0 2.65 12.95 2.65 12.9 2.65 12.85 2.65 12.8 2.65 12.7 2.65 12.65 2.7 12.6 2.7 12.55 2.7 12.5 2.75 12.5 2.75 12.45 2.8 12.45 2.8 12.45 2.85 12.4 2.85 12.4 2.9 12.4 2.9 12.4 2.95 12.4 3.0 12.4 3.0 12.35 3.05 12.35 3.05 12.35 3.15 12.35 3.15 12.35 6.25 13.0 6.25 13.0 6.45 13.05 6.7 13.1 6.9 13.2 7.1 13.25 7.35 13.3 7.55 13.4 7.75 13.45 7.95 13.55 8.2 13.65 8.4 13.7 8.6 13.8 8.8 13.9 9.0 14.0 9.2 14.1 9.4 14.2 9.6 14.3 9.65 14.35 9.7 14.35 9.75 14.4 9.8 14.4 9.85 14.45 9.9 14.45 9.95 14.5 10.0 14.5 10.05 14.55 10.1 14.6 10.15 14.6 10.2 14.65 10.25 14.7 10.3 14.7 10.35 14.75 10.4 14.75 10.45 14.8 10.45 14.8 10.5 14.85 10.55 14.9 10.55 14.95 10.55 14.95 10.6 15.0 10.6 15.05 10.6 15.1 10.6 15.1 10.6 15.15 10.55 15.2 10.55 15.25 10.55 15.25 10.5 15.3 10.45 15.35 10.4 15.4 10.4 15.4 10.35 15.45 10.35 15.45 10.3 15.45 10.25 15.45 10.2 15.5 10.2 15.5 10.15 15.5 10.1 15.45 10.05 15.45 10.0 15.45 9.95 15.45 9.95 15.4 9.9 15.4 9.85 15.4 9.6 15.25 7.9 14.35 L7.9 14.35 M16.95 13.55 Q15.0 14.8 13.7 15.55 12.4 16.35 11.55 16.9 11.05 17.2 9.15 18.35 8.9 16.5 8.85 15.3 L8.85 15.3 Q8.85 15.3 8.85 15.3 8.85 15.3 8.85 15.3 8.85 15.25 8.85 15.25 8.85 15.2 8.9 15.25 9.6 15.6 9.7 15.7 9.75 15.75 9.8 15.75 9.85 15.75 9.9 15.8 9.95 15.8 10.0 15.8 10.05 15.8 10.15 15.8 10.2 15.8 10.25 15.8 10.35 15.8 10.4 15.8 10.45 15.75 10.5 15.75 10.55 15.75 10.6 15.7 10.65 15.65 10.7 15.6 10.75 15.55 10.8 15.45 10.85 15.4 10.9 15.35 10.9 15.25 10.9 15.2 10.95 15.15 10.95 15.05 10.9 15.0 10.9 14.95 10.9 14.9 10.85 14.8 10.8 14.75 10.75 14.7 10.7 14.65 10.7 14.65 10.65 14.6 10.65 14.6 10.6 14.55 10.6 14.5 10.55 14.5 10.5 14.45 10.45 14.45 10.45 14.4 10.4 14.4 10.35 14.35 10.3 14.3 10.3 14.3 10.25 14.3 10.2 14.25 10.1 14.2 9.85 14.1 9.65 13.95 9.55 13.9 9.5 13.9 9.45 13.85 9.45 13.85 9.4 13.85 9.35 13.8 9.3 13.8 9.25 13.75 9.25 13.75 9.2 13.7 9.15 13.7 9.1 13.65 9.05 13.65 9.0 13.65 8.95 13.6 8.9 13.6 8.85 13.6 9.95 13.15 10.35 13.0 10.45 13.0 10.5 12.95 10.6 12.9 10.65 12.85 10.7 12.8 10.75 12.8 10.8 12.75 10.85 12.65 10.9 12.6 10.9 12.55 10.95 12.5 10.95 12.45 10.95 12.35 10.95 12.3 10.95 12.2 10.9 12.15 10.85 12.05 10.85 12.0 10.8 11.95 10.75 11.9 10.7 11.8 10.65 11.8 10.6 11.75 10.55 11.7 10.45 11.65 10.4 11.65 10.3 11.65 10.25 11.6 10.15 11.6 10.05 11.6 9.95 11.6 9.85 11.65 9.75 11.65 9.7 11.7 9.6 11.7 9.55 11.75 9.45 11.75 9.4 11.8 9.35 11.8 9.25 11.85 9.15 11.9 9.1 11.95 9.0 12.0 8.9 12.0 8.85 12.05 8.75 12.05 8.65 12.1 8.6 12.1 8.5 11.5 8.45 10.45 8.45 10.45 8.45 10.35 8.5 10.35 8.5 10.35 8.55 10.4 8.6 10.4 8.6 10.4 8.65 10.4 8.65 10.45 8.7 10.45 8.7 10.45 8.75 10.5 8.8 10.5 8.8 10.5 8.85 10.55 8.85 10.55 8.9 10.55 8.9 10.6 8.95 10.65 9.0 10.65 9.05 10.7 9.1 10.7 9.15 10.7 9.2 10.75 9.25 10.75 9.3 10.75 9.35 10.75 9.4 10.7 9.45 10.7 9.55 10.7 9.6 10.65 9.65 10.65 9.7 10.6 9.75 10.6 9.85 10.5 9.95 10.4 10.05 10.35 10.05 10.25 10.1 10.15 10.1 10.05 10.15 9.95 10.1 9.85 10.1 9.8 10.0 9.7 9.95 9.6 9.9 9.5 9.8 9.45 9.7 9.35 9.6 9.3 9.5 9.2 9.35 9.15 9.1 9.05 8.85 8.95 8.7 8.9 8.7 8.9 8.6 8.85 8.55 8.8 8.55 8.75 8.55 8.7 8.6 8.7 8.6 8.7 8.65 8.65 8.7 8.65 8.75 8.6 8.85 8.55 9.15 8.5 9.45 8.4 9.6 8.35 9.7 8.35 9.8 8.3 9.85 8.3 9.9 8.25 10.0 8.2 10.05 8.15 10.1 8.05 10.15 8.0 10.2 7.95 10.2 7.85 10.25 7.8 10.25 7.7 10.25 7.65 10.25 7.55 10.25 7.5 10.2 7.4 10.2 7.35 10.15 7.3 10.1 7.25 10.1 7.2 10.05 7.15 9.95 7.1 9.9 7.05 9.85 7.05 9.8 7.0 9.7 7.0 9.65 6.95 9.55 6.95 9.45 6.95 9.35 6.95 9.3 6.95 9.2 7.0 9.05 7.05 8.15 7.3 8.1 7.05 8.05 6.4 8.05 6.35 8.05 6.3 8.05 6.3 8.05 6.25 8.1 6.25 8.1 6.25 8.15 6.25 8.2 6.3 8.65 6.35 8.85 6.35 8.95 6.35 9.0 6.35 9.1 6.35 9.15 6.35 9.25 6.35 9.3 6.3 9.35 6.25 9.4 6.25 9.45 6.2 9.5 6.15 9.55 6.1 9.6 6.05 9.65 6.0 9.65 5.9 9.7 5.85 9.7 5.75 9.7 5.7 9.75 5.6 9.75 5.55 9.7 5.5 9.7 5.45 9.7 5.35 9.65 5.3 9.6 5.25 9.55 5.2 9.5 5.15 9.45 5.1 9.4 5.1 9.3 5.05 9.25 5.0 9.15 5.0 9.05 4.95 8.85 4.9 7.75 4.55 8.0 4.45 8.55 4.25 9.0 4.05 9.3 3.95 9.35 3.95 9.45 3.9 9.5 3.85 9.55 3.85 9.6 3.8 9.65 3.75 9.7 3.7 9.7 3.65 9.75 3.6 9.75 3.55 9.8 3.5 9.8 3.45 9.8 3.35 9.8 3.3 9.8 3.25 9.8 3.2 9.8 3.15 9.8 3.1 9.75 3.05 9.75 3.0 9.7 2.95 9.7 2.9 9.65 2.85 9.65 2.8 9.6 2.75 9.55 2.75 9.5 2.7 9.45 2.7 9.4 2.65 9.3 2.65 9.25 2.6 9.2 2.6 9.15 2.6 9.1 2.6 9.1 2.6 9.05 2.6 9.0 2.6 9.0 2.6 8.95 2.6 8.9 2.6 8.9 2.6 8.85 2.6 8.8 2.6 8.8 2.6 8.75 2.6 8.7 2.65 8.7 2.65 8.65 2.65 8.55 2.7 7.65 3.0 7.6 2.55 7.55 2.35 7.55 2.25 7.55 2.15 7.55 2.05 7.55 1.95 7.6 1.85 7.6 1.75 7.65 1.7 7.7 1.6 7.75 1.5 7.85 1.45 7.9 1.35 8.0 1.3 8.05 1.2 8.15 1.15 8.2 1.05 8.3 1.0 8.35 0.95 8.4 0.9 8.45 0.9 8.5 0.85 8.55 0.85 8.65 0.85 8.7 0.85 8.75 0.85 8.8 0.85 8.85 0.85 8.9 0.85 8.95 0.9 9.05 0.9 9.1 0.95 9.15 1.0 9.2 1.0 9.6 1.25 11.35 2.15 11.6 2.3 11.9 2.4 12.2 2.5 12.45 2.6 12.75 2.65 13.05 2.7 13.3 2.75 13.6 2.8 13.9 2.8 14.2 2.85 14.5 2.85 14.8 2.8 15.1 2.8 15.4 2.75 15.7 2.75 16.05 2.7 16.1 2.7 16.2 2.7 16.2 2.75 16.2 3.0 16.2 3.2 16.2 3.35 16.15 3.75 16.15 4.15 16.15 4.55 16.15 4.95 16.15 5.4 16.15 5.8 16.15 6.2 16.15 6.6 16.2 7.0 16.2 7.4 16.25 7.8 16.3 8.2 16.35 8.6 16.4 9.05 16.45 9.45 16.5 9.85 16.85 11.7 17.2 13.05 17.2 13.1 17.2 13.15 17.2 13.15 17.2 13.2 17.2 13.25 17.2 13.25 17.2 13.3 17.2 13.35 17.2 13.35 17.15 13.4 17.15 13.45 17.1 13.45 17.1 13.5 17.05 13.5 17.0 13.55 16.95 13.55 L16.95 13.55 M16.0 1.3 Q16.0 1.3 16.0 1.3 15.65 1.4 15.6 1.4 15.6 1.4 15.6 1.4 15.55 1.4 15.5 1.4 15.45 1.4 15.4 1.45 15.4 1.45 15.35 1.45 15.3 1.45 15.25 1.45 15.2 1.45 15.15 1.45 15.1 1.45 15.05 1.45 15.0 1.45 15.0 1.45 14.95 1.45 14.9 1.45 14.9 1.45 14.9 1.45 14.4 1.45 13.9 1.4 13.45 1.35 12.95 1.2 12.5 1.1 12.0 0.95 11.6 0.8 11.1 0.6 10.75 0.45 10.25 0.25 23.95 6.2 9.5 -0.1 9.05 -0.3 8.75 -0.4 8.4 -0.55 8.15 -0.6 8.15 -0.6 8.15 -0.6 8.1 -0.6 8.05 -0.6 7.95 -0.65 7.9 -0.65 7.85 -0.65 7.8 -0.65 7.75 -0.65 7.7 -0.65 7.65 -0.65 7.6 -0.65 7.5 -0.65 7.45 -0.65 7.4 -0.65 7.35 -0.65 7.3 -0.65 7.25 -0.6 7.25 -0.6 7.25 -0.65 7.25 -0.7 7.25 -0.7 7.1 -0.7 7.0 -0.6 6.85 -0.55 6.8 -0.45 6.7 -0.35 6.6 -0.2 6.55 -0.05 6.5 0.15 6.45 0.35 6.45 0.6 6.4 0.85 6.4 1.15 6.45 1.45 6.45 1.85 6.5 2.2 6.55 2.65 6.55 2.8 6.55 2.9 6.55 3.0 6.5 3.15 6.5 3.25 6.45 3.35 6.4 3.45 6.35 3.5 6.3 3.6 6.25 3.65 6.15 3.7 6.05 3.75 5.95 3.8 5.85 3.85 5.7 3.9 5.55 3.9 5.6 2.4 5.45 1.55 5.3 0.7 4.95 0.3 4.65 -0.05 4.15 0.0 3.7 0.05 3.05 0.4 2.55 0.65 1.6 1.25 0.15 2.15 -0.15 2.3 -1.2 2.95 -2.1 3.4 -3.3 3.95 -4.35 4.3 -4.35 4.3 -4.35 4.3 -4.65 4.35 -4.7 4.4 -4.7 4.35 -4.7 4.4 -5.35 4.55 -5.95 4.65 -6.65 4.75 -7.3 4.75 -8.0 4.75 -8.65 4.65 -9.4 4.55 -10.1 4.35 -10.85 4.15 -11.6 3.8 -12.35 3.45 -13.1 3.0 -13.9 2.5 -14.7 1.85 -15.5 1.2 -16.3 0.35 -16.35 0.35 -16.35 0.3 -16.4 0.3 -16.4 0.25 -16.45 0.25 -16.45 0.2 -16.5 0.15 -16.5 0.15 -16.55 0.1 -16.6 0.05 -16.6 0.0 -16.65 0.0 -16.7 -0.05 -16.75 -0.1 -16.75 -0.15 -16.8 -0.2 -16.85 -0.25 -16.85 -0.3 -16.9 -0.3 -16.95 -0.35 -16.95 -0.4 -17.0 -0.45 -17.05 -0.5 -17.1 -0.6 -17.1 -0.65 -17.15 -0.7 -17.2 -0.75 -17.25 -0.8 -17.25 -0.9 -17.3 -0.95 -17.35 -1.0 -17.35 -1.05 -17.4 -1.1 -17.4 -1.15 -17.45 -1.2 -17.45 -1.25 -17.5 -1.35 -17.5 -1.4 -17.5 -1.4 -17.55 -1.35 -17.55 -1.35 -17.55 -1.4 -17.55 -1.4 -17.55 -1.4 -17.55 -1.45 -17.55 -1.5 -17.6 -1.5 -17.6 -1.55 -17.8 -2.0 -17.95 -2.55 -18.15 -3.05 -18.2 -3.55 -18.3 -4.1 -18.35 -4.65 -18.35 -5.2 -18.3 -5.75 -18.25 -6.3 -18.1 -6.85 -18.0 -7.4 -17.8 -7.9 -17.55 -8.45 -17.3 -8.95 -17.0 -9.45 -16.6 -9.9 -16.5 -10.0 -16.4 -10.15 -16.3 -10.25 -16.2 -10.4 -16.05 -10.55 -15.9 -10.65 -15.75 -10.8 -15.55 -10.95 -15.4 -11.1 -15.2 -11.25 -15.0 -11.4 -14.75 -11.55 -14.5 -11.7 -14.25 -11.85 -14.0 -12.0 -13.7 -12.15 -13.5 -12.15 -13.05 -12.1 -12.8 -12.1 -12.55 -12.05 -12.3 -12.05 -12.05 -12.05 -11.8 -12.0 -11.6 -12.0 -11.35 -12.0 -11.1 -11.95 -10.85 -11.95 -10.65 -11.9 -10.4 -11.9 -10.2 -11.85 -9.95 -11.85 -9.75 -11.8 -9.5 -11.8 -9.3 -11.75 -9.3 -11.8 -9.3 -11.8 -9.0 -11.75 -8.5 -11.7 -8.5 -11.7 -8.55 -11.65 -8.25 -11.6 -7.95 -11.55 -7.65 -11.5 -7.4 -11.45 -7.1 -11.4 -6.85 -11.35 -6.55 -11.3 -6.3 -11.25 -6.05 -11.2 -5.8 -11.15 -5.55 -11.1 -5.3 -11.05 -5.05 -11.0 -4.8 -10.9 -4.55 -10.85 -4.35 -10.8 -4.35 -10.8 -4.35 -10.8 -4.3 -10.8 -4.3 -10.8 -4.25 -10.75 -4.2 -10.75 -4.15 -10.75 -4.15 -10.75 -4.1 -10.75 -4.05 -10.7 -4.0 -10.7 -4.0 -10.7 -3.95 -10.7 -3.9 -10.7 -3.9 -10.65 -3.85 -10.65 -3.8 -10.65 -3.8 -10.65 -3.8 -10.65 -3.8 -10.65 -2.6 -10.3 -1.5 -9.85 -0.5 -9.45 0.35 -9.0 1.1 -8.6 1.8 -8.1 2.35 -7.75 2.85 -7.35 3.2 -7.05 3.7 -6.65 4.1 -6.3 4.3 -6.15 4.55 -5.95 4.75 -5.9 4.95 -5.8 5.15 -5.9 5.1 -5.9 5.15 -5.9 5.15 -5.9 5.2 -5.95 5.2 -5.95 5.2 -5.95 5.25 -6.0 5.3 -6.05 5.4 -6.1 5.45 -6.2 5.5 -6.3 5.55 -6.4 5.6 -6.5 5.7 -6.6 5.75 -6.7 5.8 -6.85 5.9 -7.0 5.95 -7.15 6.05 -7.3 6.1 -7.5 6.2 -7.65 6.3 -7.85 6.55 -8.4 6.85 -8.85 7.1 -9.3 7.35 -9.65 7.6 -10.05 7.85 -10.35 8.1 -10.65 8.35 -10.9 8.6 -11.15 8.9 -11.35 9.1 -11.55 9.4 -11.75 9.65 -11.95 9.95 -12.1 10.2 -12.25 10.5 -12.45 L10.5 -12.45 Q10.55 -12.5 10.55 -12.55 10.6 -12.55 10.7 -12.6 10.75 -12.65 10.8 -12.65 10.85 -12.7 10.9 -12.75 11.05 -12.8 11.0 -12.8 11.1 -12.85 11.15 -12.9 11.2 -12.9 11.25 -12.95 11.3 -13.0 11.4 -13.0 11.45 -13.05 11.55 -13.05 11.55 -13.05 11.5 -13.0 12.4 -13.55 12.95 -13.9 12.95 -13.9 13.0 -13.95 13.0 -13.95 13.05 -13.95 13.1 -13.95 13.1 -13.95 13.15 -13.95 13.2 -13.95 13.2 -13.95 13.25 -13.9 13.25 -13.9 13.25 -13.9 13.3 -13.9 13.35 -13.9 13.4 -13.85 13.45 -13.85 13.6 -13.75 13.65 -13.7 15.5 -12.85 16.85 -11.75 18.1 -10.75 18.9 -9.6 19.65 -8.5 19.95 -7.3 20.2 -6.2 20.15 -5.05 20.05 -4.0 19.65 -2.95 19.3 -1.95 18.7 -1.1 18.15 -0.25 17.45 0.35 16.7 0.95 16.0 1.3 L16.0 1.3" fill="#040404" fill-rule="evenodd" stroke="none"/>
    <path d="M-9.3 -11.8 Q-9.3 -11.8 -9.3 -11.75 -9.0 -11.75 -8.55 -11.65 L-8.55 -11.65 Q-8.5 -11.7 -8.5 -11.7 -8.75 -11.75 -9.3 -11.8 L-9.3 -11.8 Q-9.3 -11.8 -9.3 -11.75 -9.0 -11.75 -8.55 -11.65 L-8.55 -11.65 Q-8.5 -11.7 -8.5 -11.7 -8.75 -11.75 -9.3 -11.8 L-9.3 -11.8 Q-9.3 -11.8 -9.3 -11.75 -9.0 -11.75 -8.55 -11.65 L-8.55 -11.65 Q-8.5 -11.7 -8.5 -11.7 -8.75 -11.75 -9.3 -11.8 L-9.3 -11.8 M-4.35 -10.8 Q-4.25 -10.75 -3.8 -10.65 -4.15 -10.75 -4.35 -10.8 L-4.35 -10.8 Q-4.25 -10.75 -3.8 -10.65 -4.15 -10.75 -4.35 -10.8 L-4.35 -10.8 Q-4.25 -10.75 -3.8 -10.65 -4.15 -10.75 -4.35 -10.8 L-4.35 -10.8 M5.15 -5.9 Q5.15 -5.9 5.2 -5.95 5.2 -5.95 5.15 -5.9 L5.15 -5.9 Q5.15 -5.9 5.2 -5.95 5.2 -5.95 5.15 -5.9 L5.15 -5.9 Q5.15 -5.9 5.2 -5.95 5.2 -5.95 5.15 -5.9 L5.15 -5.9 M10.55 -12.55 Q10.5 -12.5 10.5 -12.45 11.2 -12.85 11.5 -13.0 L11.5 -13.0 Q11.5 -13.05 11.5 -13.05 11.45 -13.05 11.35 -13.0 11.3 -13.0 11.25 -12.95 11.2 -12.95 11.15 -12.9 11.1 -12.85 11.0 -12.8 10.85 -12.7 10.9 -12.75 10.85 -12.7 10.8 -12.7 10.75 -12.65 10.7 -12.6 10.6 -12.6 10.55 -12.55 L10.55 -12.55 Q10.5 -12.5 10.5 -12.45 11.2 -12.85 11.5 -13.0 L11.5 -13.0 Q11.5 -13.05 11.5 -13.05 11.45 -13.05 11.35 -13.0 11.3 -13.0 11.25 -12.95 11.2 -12.95 11.15 -12.9 11.1 -12.85 11.0 -12.8 10.85 -12.7 10.9 -12.75 10.85 -12.7 10.8 -12.7 10.75 -12.65 10.7 -12.6 10.6 -12.6 10.55 -12.55 L10.55 -12.55 Q10.5 -12.5 10.5 -12.45 11.2 -12.85 11.5 -13.0 L11.5 -13.0 Q11.5 -13.05 11.5 -13.05 11.45 -13.05 11.35 -13.0 11.3 -13.0 11.25 -12.95 11.2 -12.95 11.15 -12.9 11.1 -12.85 11.0 -12.8 10.85 -12.7 10.9 -12.75 10.85 -12.7 10.8 -12.7 10.75 -12.65 10.7 -12.6 10.6 -12.6 10.55 -12.55 L10.55 -12.55 M13.45 -13.85 Q13.4 -13.85 13.35 -13.9 13.3 -13.9 13.25 -13.9 13.25 -13.9 13.25 -13.9 13.2 -13.9 13.2 -13.95 13.15 -13.95 13.1 -13.95 13.05 -13.95 13.05 -13.95 13.1 -13.95 13.15 -13.9 L13.15 -13.9 Q13.35 -13.85 13.65 -13.7 13.6 -13.75 13.6 -13.75 13.55 -13.8 13.5 -13.8 13.45 -13.85 13.45 -13.85 L13.45 -13.85 M15.9 1.3 L15.9 1.3 Q15.85 1.3 15.8 1.35 15.7 1.35 15.65 1.35 15.6 1.35 15.55 1.35 15.45 1.4 15.4 1.4 15.35 1.4 15.3 1.4 15.2 1.4 15.15 1.4 15.1 1.4 15.05 1.4 14.95 1.4 14.9 1.45 14.9 1.45 14.9 1.45 14.95 1.45 15.0 1.45 15.05 1.45 15.05 1.45 15.1 1.45 15.15 1.45 15.2 1.45 15.25 1.45 15.3 1.45 15.35 1.45 15.4 1.45 15.4 1.45 15.45 1.4 15.5 1.4 15.55 1.4 15.6 1.4 15.6 1.4 15.6 1.4 15.8 1.35 16.0 1.3 15.95 1.3 15.9 1.3 L15.9 1.3 M8.85 15.3 Q8.85 15.3 8.85 15.3 L8.85 15.3 Q8.85 15.3 8.85 15.3 L8.85 15.3 M7.25 -0.7 Q7.25 -0.7 7.25 -0.6 7.3 -0.6 7.35 -0.65 7.4 -0.65 7.45 -0.65 7.5 -0.65 7.6 -0.65 7.65 -0.65 7.7 -0.65 7.75 -0.65 7.8 -0.65 7.85 -0.65 7.9 -0.65 8.1 -0.6 8.0 -0.65 8.1 -0.6 8.15 -0.6 8.1 -0.6 8.0 -0.65 7.95 -0.65 7.9 -0.65 7.85 -0.7 7.8 -0.7 7.7 -0.7 7.65 -0.7 7.6 -0.7 7.55 -0.75 7.5 -0.75 7.45 -0.75 7.4 -0.75 7.35 -0.75 7.3 -0.7 7.25 -0.7 L7.25 -0.7 M-4.7 4.4 Q-4.65 4.4 -4.6 4.35 -4.55 4.35 -4.5 4.35 -4.5 4.35 -4.45 4.3 -4.4 4.3 -4.35 4.3 -4.45 4.3 -4.7 4.4 L-4.7 4.4 M-17.5 -1.4 Q-17.5 -1.4 -17.55 -1.45 -17.55 -1.45 -17.6 -1.55 -17.6 -1.5 -17.55 -1.4 -17.55 -1.4 -17.55 -1.4 -17.55 -1.4 -17.55 -1.35 -17.5 -1.4 -17.5 -1.4 -17.5 -1.35 -17.45 -1.3 -17.45 -1.25 -17.4 -1.15 -17.4 -1.1 -17.35 -1.05 -17.35 -1.0 -17.3 -0.95 -17.25 -0.9 -17.25 -0.85 -17.2 -0.75 -17.15 -0.7 -17.1 -0.65 -17.1 -0.6 -17.05 -0.55 -17.0 -0.45 -16.95 -0.4 -16.95 -0.35 -16.9 -0.3 -16.85 -0.25 -16.85 -0.2 -16.8 -0.2 -16.75 -0.15 -16.75 -0.1 -16.7 -0.05 -16.65 0.0 -16.65 0.05 -16.6 0.05 -16.55 0.1 -16.55 0.15 -16.5 0.2 -16.45 0.2 -16.5 0.15 -16.6 0.05 -16.65 0.0 -16.7 -0.1 -16.8 -0.2 -16.85 -0.25 -16.9 -0.35 -17.0 -0.45 -17.05 -0.55 -17.1 -0.65 -17.2 -0.75 -17.25 -0.9 -17.3 -1.0 -17.4 -1.15 -17.45 -1.25 -17.5 -1.4 L-17.5 -1.4" fill="#040404" fill-rule="evenodd" stroke="none"/>
    <path d="M12.65 -14.65 Q12.6 -14.65 12.5 -14.65 12.5 -14.7 12.5 -14.7 12.55 -14.7 12.55 -14.7 12.6 -14.7 12.65 -14.65 L12.65 -14.65" fill="#040404" fill-rule="evenodd" stroke="none"/>
    <path d="M13.05 -13.95 Q13.0 -13.95 13.0 -13.95 12.95 -13.95 12.95 -13.9 12.95 -13.9 13.0 -13.9 13.05 -13.9 13.15 -13.9 L13.15 -13.9 Q13.2 -13.9 13.2 -13.9 13.2 -13.9 13.25 -13.9 13.2 -13.9 13.2 -13.95 13.15 -13.95 13.1 -13.95 13.05 -13.95 13.05 -13.95 L13.05 -13.95 M13.25 -13.9 Q13.3 -13.9 13.35 -13.9 13.4 -13.85 13.45 -13.85 13.4 -13.85 13.35 -13.9 13.3 -13.9 13.25 -13.9 L13.25 -13.9 M15.9 1.3 L15.9 1.3 Q15.85 1.3 15.85 1.35 15.8 1.35 15.75 1.35 15.75 1.35 15.7 1.35 15.65 1.4 15.6 1.4 15.8 1.35 16.0 1.3 16.0 1.3 16.0 1.3 15.95 1.3 15.9 1.3 L15.9 1.3" fill="#040404" fill-rule="evenodd" stroke="none"/>
    <path d="M-8.5 -11.7 Q-8.5 -11.7 -8.55 -11.65 L-8.55 -11.65 Q-8.6 -11.6 -8.6 -11.55 -8.65 -11.5 -8.7 -11.45 -8.75 -11.4 -8.8 -11.3 -8.8 -11.3 -8.85 -11.2 -8.9 -11.2 -8.95 -11.1 -9.0 -11.05 -9.05 -11.0 -9.1 -10.95 -9.15 -10.9 -9.2 -10.85 -9.25 -10.8 -9.5 -10.5 -9.7 -10.15 -9.9 -9.85 -10.1 -9.5 -10.3 -9.2 -10.5 -8.85 -10.65 -8.5 -10.85 -8.15 -11.0 -7.85 -11.15 -7.5 -11.3 -7.15 -11.45 -6.8 -11.6 -6.45 -11.75 -6.1 -11.85 -5.75 -12.0 -5.4 -12.1 -5.15 -12.15 -4.85 -12.25 -4.6 -12.3 -4.35 -12.35 -4.05 -12.4 -3.8 -12.4 -3.55 -12.45 -3.25 -12.5 -3.0 -12.5 -2.75 -12.5 -2.45 -12.5 -2.2 -12.5 -1.9 -12.5 -1.65 -12.5 -1.4 -12.45 -1.1 -12.4 -0.8 -12.35 -0.5 -12.3 -0.2 -12.25 0.1 -12.2 0.4 -12.1 0.65 -12.0 0.95 -11.9 1.25 -11.75 1.55 -11.65 1.8 -11.5 2.1 -11.35 2.35 -11.2 2.65 -11.0 2.9 -10.85 3.15 -10.65 3.45 -9.95 4.25 -9.9 4.35 -10.3 4.2 -11.15 3.9 -11.15 3.8 -11.2 3.75 -11.2 3.65 -11.25 3.6 -11.3 3.5 -11.35 3.45 -11.35 3.4 -11.45 3.3 -11.45 3.25 -11.55 3.15 -11.6 3.05 -11.65 3.05 -11.7 2.95 -11.75 2.9 -11.8 2.85 -11.8 2.75 -11.95 2.5 -12.1 2.25 -12.2 2.0 -12.3 1.75 -12.45 1.5 -12.55 1.2 -12.65 0.95 -12.7 0.7 -12.8 0.45 -12.85 0.15 -12.9 -0.1 -13.0 -0.4 -13.05 -0.65 -13.05 -0.95 -13.1 -1.2 -13.1 -1.5 -13.15 -1.85 -13.15 -2.2 -13.15 -2.55 -13.1 -2.9 -13.1 -3.2 -13.05 -3.55 -13.0 -3.9 -12.9 -4.25 -12.85 -4.55 -12.75 -4.9 -12.65 -5.2 -12.55 -5.55 -12.45 -5.9 -12.35 -6.2 -12.25 -6.55 -12.1 -6.9 -12.0 -7.15 -11.9 -7.4 -11.8 -7.65 -11.65 -7.9 -11.55 -8.15 -11.45 -8.4 -11.3 -8.65 -11.15 -8.9 -11.05 -9.15 -10.9 -9.35 -10.75 -9.6 -10.6 -9.85 -10.45 -10.1 -10.3 -10.3 -10.15 -10.55 -10.0 -10.8 -9.35 -11.65 -9.3 -11.75 -9.3 -11.8 -9.3 -11.8 -9.0 -11.75 -8.5 -11.7 L-8.5 -11.7" fill="#040404" fill-opacity="0.32941177" fill-rule="evenodd" stroke="none"/>
    <path d="M18.0 -5.65 Q18.0 -5.4 18.0 -5.15 17.95 -4.9 17.95 -4.65 17.9 -4.4 17.9 -4.15 17.85 -3.9 17.8 -3.65 17.8 -3.4 17.75 -3.15 17.7 -2.9 17.65 -2.7 17.55 -2.45 17.5 -2.2 17.45 -1.95 17.35 -1.7 17.3 -1.5 17.25 -1.35 17.2 -1.15 17.1 -1.0 17.05 -0.8 17.0 -0.65 16.95 -0.5 16.85 -0.3 16.8 -0.15 16.7 0.0 16.6 0.2 16.5 0.35 16.45 0.5 16.35 0.7 16.2 0.85 16.1 1.0 16.1 1.0 16.0 1.3 16.0 1.3 16.0 1.3 15.65 1.4 15.6 1.4 15.6 1.4 15.6 1.4 15.55 1.4 15.5 1.4 15.45 1.4 15.4 1.45 15.4 1.45 15.35 1.45 15.3 1.45 15.25 1.45 15.2 1.45 15.15 1.45 15.1 1.45 15.05 1.45 15.0 1.45 15.0 1.45 14.95 1.45 14.9 1.45 14.9 1.45 14.9 1.45 14.9 1.4 15.25 1.05 15.4 0.9 15.5 0.8 15.6 0.65 15.7 0.5 15.8 0.35 15.9 0.2 16.0 0.05 16.1 -0.1 16.15 -0.25 16.25 -0.4 16.3 -0.55 16.35 -0.75 16.4 -0.85 16.5 -1.05 16.55 -1.15 16.6 -1.35 16.65 -1.5 16.7 -1.65 16.75 -1.8 16.8 -1.95 16.85 -2.1 16.9 -2.25 16.95 -2.4 16.95 -2.55 17.0 -2.7 17.05 -2.85 17.05 -3.0 17.1 -3.15 17.15 -3.35 17.15 -3.5 17.2 -3.65 17.2 -3.8 17.25 -4.0 17.25 -4.2 17.25 -4.4 17.3 -4.6 17.3 -4.8 17.3 -5.0 17.3 -5.2 17.35 -5.4 17.35 -5.6 17.3 -5.8 17.3 -6.0 17.3 -6.2 17.3 -6.4 17.3 -6.6 17.25 -6.8 17.25 -7.0 17.25 -7.15 17.2 -7.35 17.2 -7.5 17.15 -7.7 17.1 -7.85 17.1 -8.0 17.05 -8.2 17.0 -8.35 16.95 -8.5 16.9 -8.7 16.85 -8.85 16.8 -9.0 16.75 -9.2 16.65 -9.35 16.6 -9.5 16.5 -9.65 16.45 -9.8 16.35 -9.95 16.3 -10.1 16.2 -10.25 16.1 -10.4 16.0 -10.55 15.9 -10.7 15.8 -10.8 15.7 -10.95 15.6 -11.1 15.5 -11.25 15.4 -11.35 15.25 -11.5 15.15 -11.6 15.0 -11.75 14.9 -11.85 14.8 -11.95 14.65 -12.1 14.5 -12.2 14.4 -12.35 14.25 -12.45 14.1 -12.55 14.0 -12.65 13.85 -12.75 13.7 -12.9 13.55 -13.0 13.45 -13.1 13.3 -13.2 13.15 -13.3 13.0 -13.4 12.85 -13.5 12.7 -13.6 12.75 -13.6 12.75 -13.65 12.8 -13.7 12.85 -13.7 12.85 -13.75 12.9 -13.8 12.9 -13.8 12.95 -13.85 12.95 -13.85 13.0 -13.9 L13.0 -13.95 Q13.0 -13.95 13.05 -13.95 13.1 -13.95 13.1 -13.95 13.15 -13.95 13.2 -13.95 13.2 -13.95 13.25 -13.9 13.25 -13.9 13.25 -13.9 13.3 -13.9 13.35 -13.9 13.4 -13.85 13.45 -13.85 13.6 -13.75 13.65 -13.7 13.7 -13.7 13.7 -13.65 13.75 -13.65 13.75 -13.6 13.8 -13.6 13.85 -13.55 13.85 -13.55 13.9 -13.5 14.0 -13.4 14.2 -13.25 14.3 -13.15 14.55 -12.95 14.8 -12.8 14.9 -12.7 15.2 -12.45 15.45 -12.2 15.7 -11.95 15.9 -11.7 16.15 -11.45 16.35 -11.15 16.55 -10.9 16.7 -10.6 16.9 -10.3 17.05 -10.0 17.2 -9.7 17.3 -9.4 17.45 -9.1 17.55 -8.8 17.65 -8.5 17.7 -8.15 17.75 -8.0 17.75 -7.85 17.8 -7.7 17.85 -7.55 17.85 -7.35 17.9 -7.2 17.9 -7.05 17.9 -6.9 17.95 -6.75 17.95 -6.6 17.95 -6.45 17.95 -6.3 18.0 -6.1 18.0 -5.95 18.0 -5.8 18.0 -5.65 L18.0 -5.65" fill="#040404" fill-opacity="0.32941177" fill-rule="evenodd" stroke="none"/>
    <path d="M-2.6 -1.85 Q-2.6 -1.5 -2.65 -1.2 -2.65 -0.85 -2.7 -0.5 -2.75 -0.15 -2.8 0.15 -2.85 0.5 -2.9 0.8 -3.0 1.15 -3.05 1.5 -3.15 1.8 -3.25 2.15 -3.3 2.45 -3.45 2.8 -3.55 3.1 -3.65 3.45 -3.65 3.5 -3.7 3.55 -3.7 3.5 -3.75 3.6 -3.75 3.65 -3.75 3.7 -3.8 3.75 -3.8 3.75 -3.85 3.8 -3.85 3.85 -3.85 3.9 -3.85 3.95 -3.9 4.0 -3.9 4.05 -3.9 4.1 -3.9 4.15 -3.95 4.15 -4.0 4.15 -4.05 4.15 -4.1 4.2 -4.15 4.2 -4.2 4.2 -4.2 4.2 -4.25 4.25 -4.35 4.3 -4.35 4.3 -4.35 4.3 -4.35 4.3 -4.65 4.35 -4.7 4.4 -4.7 4.35 -4.7 4.4 -4.7 4.4 -4.75 4.4 -4.75 4.35 -4.75 4.3 -4.75 4.25 -4.75 4.2 -4.7 4.15 -4.7 4.15 -4.7 4.1 -4.65 4.05 -4.65 4.0 -4.6 3.95 -4.55 3.9 -4.55 3.9 -4.55 3.85 -4.5 3.8 -4.5 3.75 -4.45 3.75 -4.35 3.55 -4.3 3.35 -4.2 3.15 -4.15 2.95 -4.1 2.75 -4.0 2.5 -3.95 2.3 -3.9 2.1 -3.85 1.9 -3.8 1.7 -3.7 1.5 -3.7 1.25 -3.65 1.05 -3.6 0.85 -3.55 0.65 -3.5 0.45 -3.45 0.2 -3.4 -0.1 -3.35 -0.35 -3.35 -0.6 -3.3 -0.85 -3.3 -1.15 -3.25 -1.4 -3.25 -1.65 -3.2 -1.9 -3.2 -2.2 -3.2 -2.45 -3.2 -2.7 -3.2 -3.0 -3.2 -3.25 -3.2 -3.5 -3.2 -3.75 -3.2 -4.0 -3.2 -4.25 -3.25 -4.5 -3.25 -4.75 -3.3 -5.0 -3.3 -5.25 -3.35 -5.5 -3.35 -5.75 -3.4 -6.0 -3.45 -6.25 -3.5 -6.45 -3.55 -6.75 -3.55 -6.95 -3.6 -7.2 -3.65 -7.45 -3.7 -7.7 -3.85 -8.55 -4.5 -10.8 -4.45 -10.8 -4.45 -10.8 -4.4 -10.8 -4.35 -10.8 -4.35 -10.8 -4.35 -10.8 -4.3 -10.8 -4.3 -10.8 -4.25 -10.75 -4.2 -10.75 -4.15 -10.75 -4.15 -10.75 -4.1 -10.75 -4.05 -10.7 -4.0 -10.7 -4.0 -10.7 -3.95 -10.7 -3.9 -10.7 -3.9 -10.65 -3.85 -10.65 -3.8 -10.65 -3.8 -10.65 -3.8 -10.65 -3.8 -10.65 -3.75 -10.65 -3.75 -10.6 -3.65 -10.25 -3.5 -9.6 -3.35 -8.9 -3.25 -8.6 -3.05 -7.7 -2.7 -5.65 -2.65 -5.4 -2.65 -5.15 -2.6 -4.95 -2.6 -4.7 -2.6 -4.45 -2.55 -4.2 -2.55 -4.0 -2.55 -3.75 -2.55 -3.5 -2.55 -3.25 -2.55 -3.05 -2.55 -2.8 -2.55 -2.55 -2.55 -2.3 -2.6 -2.1 -2.6 -1.85 L-2.6 -1.85" fill="#040404" fill-opacity="0.32941177" fill-rule="evenodd" stroke="none"/>
    <path d="M11.55 -13.05 Q11.55 -13.05 11.5 -13.0 L11.5 -13.0 Q11.5 -12.95 11.5 -12.9 11.5 -12.85 11.45 -12.8 11.45 -12.75 11.4 -12.65 11.4 -12.6 11.35 -12.55 11.35 -12.5 11.3 -12.45 11.2 -12.35 11.2 -12.35 11.2 -12.3 11.15 -12.25 11.15 -12.2 11.1 -12.15 10.95 -11.85 10.85 -11.6 10.7 -11.3 10.6 -11.0 10.5 -10.7 10.4 -10.4 10.3 -10.15 10.2 -9.85 10.1 -9.55 10.05 -9.25 9.95 -8.95 9.9 -8.65 9.8 -8.35 9.75 -8.05 9.7 -7.75 9.65 -7.45 9.6 -7.2 9.6 -7.0 9.55 -6.75 9.55 -6.55 9.5 -6.3 9.5 -6.1 9.45 -5.85 9.45 -5.6 9.45 -5.4 9.45 -5.15 9.4 -4.9 9.4 -4.7 9.4 -4.45 9.45 -4.25 9.45 -4.0 9.45 -3.8 9.45 -3.55 9.5 -3.35 9.5 -3.1 9.55 -2.85 9.55 -2.65 9.6 -2.4 9.65 -2.15 9.65 -1.95 9.7 -1.7 9.8 -1.5 9.85 -1.25 9.9 -1.05 10.0 -0.85 10.1 -0.6 10.2 -0.4 10.35 -0.2 10.4 -0.15 10.4 -0.05 10.45 0.1 10.45 0.15 10.4 0.15 10.3 0.1 10.25 0.05 10.15 0.05 10.1 0.0 10.05 -0.05 10.0 -0.05 9.9 -0.1 9.25 -0.55 9.8 -0.2 9.75 -0.25 9.7 -0.25 9.6 -0.3 9.55 -0.35 9.5 -0.4 9.4 -0.4 9.45 -0.45 9.45 -0.45 9.5 -0.5 9.5 -0.55 9.5 -0.55 9.45 -0.6 9.45 -0.6 9.45 -0.65 9.4 -0.7 9.4 -0.7 9.35 -0.7 9.35 -0.75 9.35 -0.75 9.35 -0.8 9.3 -1.0 9.25 -1.2 9.2 -1.4 9.15 -1.6 9.1 -1.8 9.05 -2.0 9.0 -2.2 8.95 -2.4 8.95 -2.6 8.9 -2.8 8.9 -3.0 8.85 -3.25 8.85 -3.45 8.8 -3.65 8.8 -3.85 8.8 -4.05 8.8 -4.45 8.8 -4.85 8.8 -5.3 8.85 -5.7 8.85 -6.1 8.9 -6.5 8.95 -6.9 9.0 -7.3 9.05 -7.7 9.1 -8.1 9.2 -8.5 9.3 -8.9 9.4 -9.3 9.5 -9.7 9.6 -10.1 9.75 -10.5 9.8 -10.6 10.5 -12.45 L10.5 -12.45 Q10.55 -12.5 10.55 -12.55 10.6 -12.55 10.7 -12.6 10.75 -12.65 10.8 -12.65 10.85 -12.7 10.9 -12.75 11.05 -12.8 11.0 -12.8 11.1 -12.85 11.15 -12.9 11.2 -12.9 11.25 -12.95 11.3 -13.0 11.4 -13.0 11.45 -13.05 11.55 -13.05 L11.55 -13.05" fill="#040404" fill-opacity="0.32941177" fill-rule="evenodd" stroke="none"/>
    <path d="M-13.05 -12.1 Q-13.15 -12.0 -13.65 -11.35 -14.1 -10.85 -14.15 -10.8 -14.4 -10.45 -14.65 -10.1 -14.9 -9.75 -15.1 -9.4 -15.35 -9.05 -15.55 -8.7 -15.75 -8.35 -15.9 -8.0 -16.1 -7.6 -16.25 -7.25 -16.4 -6.85 -16.5 -6.5 -16.65 -6.1 -16.75 -5.7 -16.85 -5.35 -16.9 -4.95 -16.95 -4.65 -17.0 -4.3 -17.05 -4.0 -17.05 -3.7 -17.05 -3.35 -17.05 -3.05 -17.05 -2.75 -17.0 -2.45 -17.0 -2.1 -16.9 -1.8 -16.85 -1.5 -16.8 -1.2 -16.7 -0.9 -16.6 -0.6 -16.5 -0.25 -16.4 0.05 -16.35 0.1 -16.35 0.1 -16.35 0.15 -16.3 0.2 -16.3 0.25 -16.3 0.3 -16.3 0.3 -16.3 0.35 -16.35 0.35 -16.35 0.3 -16.4 0.3 -16.4 0.25 -16.45 0.25 -16.45 0.2 -16.5 0.15 -16.5 0.15 -16.55 0.1 -16.6 0.05 -16.6 0.0 -16.65 0.0 -16.7 -0.05 -16.75 -0.1 -16.75 -0.15 -16.8 -0.2 -16.85 -0.25 -16.85 -0.3 -16.9 -0.3 -16.95 -0.35 -16.95 -0.4 -17.0 -0.45 -17.05 -0.5 -17.1 -0.6 -17.1 -0.65 -17.15 -0.7 -17.2 -0.75 -17.25 -0.8 -17.25 -0.9 -17.3 -0.95 -17.35 -1.0 -17.35 -1.05 -17.4 -1.1 -17.4 -1.15 -17.45 -1.2 -17.45 -1.25 -17.5 -1.35 -17.5 -1.4 -17.55 -1.4 -17.55 -1.4 -17.55 -1.45 -17.55 -1.5 -17.6 -1.5 -17.6 -1.55 -17.6 -1.6 -17.65 -1.65 -17.6 -1.7 -17.6 -1.75 -17.55 -1.8 -17.55 -1.9 -17.55 -1.95 -17.55 -2.0 -17.55 -2.05 -17.55 -2.1 -17.55 -2.15 -17.55 -2.2 -17.6 -2.25 -17.6 -2.3 -17.6 -2.4 -17.65 -2.4 -17.65 -2.45 -17.65 -2.5 -17.65 -2.65 -17.7 -2.85 -17.7 -3.0 -17.7 -3.15 -17.7 -3.3 -17.7 -3.5 -17.7 -3.65 -17.7 -3.8 -17.65 -3.95 -17.65 -4.15 -17.65 -4.3 -17.6 -4.45 -17.6 -4.6 -17.55 -4.75 -17.55 -4.9 -17.5 -5.1 -17.45 -5.4 -17.4 -5.7 -17.3 -6.0 -17.25 -6.3 -17.15 -6.6 -17.05 -6.9 -16.95 -7.2 -16.8 -7.45 -16.7 -7.75 -16.55 -8.05 -16.45 -8.35 -16.3 -8.6 -16.15 -8.9 -16.0 -9.2 -15.8 -9.45 -15.65 -9.75 -15.55 -9.9 -15.45 -10.05 -15.35 -10.25 -15.25 -10.4 -15.15 -10.55 -15.0 -10.7 -14.9 -10.85 -14.8 -11.0 -14.65 -11.15 -14.55 -11.3 -14.4 -11.45 -14.3 -11.6 -14.15 -11.75 -14.0 -11.85 -13.85 -12.0 -13.7 -12.15 -13.5 -12.15 -13.05 -12.1 L-13.05 -12.1" fill="#040404" fill-opacity="0.32941177" fill-rule="evenodd" stroke="none"/>
    <path d="M8.25 -0.6 Q8.2 -0.6 8.15 -0.6 8.15 -0.6 8.15 -0.6 8.1 -0.6 8.05 -0.6 7.95 -0.65 7.9 -0.65 7.85 -0.65 7.8 -0.65 7.75 -0.65 7.7 -0.65 7.65 -0.65 7.6 -0.65 7.5 -0.65 7.45 -0.65 7.4 -0.65 7.35 -0.65 7.3 -0.65 7.25 -0.6 7.25 -0.6 7.25 -0.65 7.25 -0.7 7.25 -0.7 7.25 -0.75 7.25 -0.8 7.25 -0.85 7.25 -0.85 7.2 -0.9 7.2 -0.95 7.0 -1.15 6.8 -1.4 6.6 -1.6 6.45 -1.8 6.3 -2.05 6.15 -2.3 6.0 -2.5 5.85 -2.75 5.75 -3.0 5.65 -3.25 5.55 -3.5 5.45 -3.75 5.35 -4.0 5.25 -4.25 5.15 -4.5 5.05 -4.75 5.05 -4.8 5.05 -4.85 5.05 -4.85 5.0 -4.9 5.0 -4.95 4.95 -4.95 4.95 -4.5 4.75 -3.5 4.7 -3.3 4.7 -3.1 4.65 -2.9 4.6 -2.7 4.55 -2.5 4.5 -2.3 4.45 -2.1 4.4 -1.9 4.3 -1.7 4.25 -1.5 4.2 -1.3 4.1 -1.1 4.0 -0.9 3.95 -0.75 3.85 -0.55 3.75 -0.35 3.7 -0.3 3.7 -0.25 3.7 -0.25 3.7 -0.2 3.65 -0.15 3.65 -0.1 3.65 -0.05 3.65 0.0 3.6 0.0 3.5 0.05 3.45 0.1 3.4 0.15 3.3 0.15 3.25 0.2 3.15 0.25 3.1 0.25 3.05 0.3 2.95 0.35 2.9 0.4 2.85 0.45 2.75 0.5 2.7 0.5 2.65 0.55 2.6 0.6 2.6 0.55 2.6 0.5 2.6 0.4 2.6 0.35 2.6 0.3 2.65 0.25 2.7 0.2 2.7 0.15 2.75 0.1 2.8 0.05 2.8 0.05 2.85 -0.05 2.9 -0.1 2.95 -0.15 2.95 -0.2 3.0 -0.25 3.1 -0.45 3.2 -0.65 3.3 -0.85 3.4 -1.05 3.5 -1.25 3.55 -1.45 3.65 -1.65 3.7 -1.85 3.75 -2.05 3.85 -2.3 3.9 -2.5 3.95 -2.7 4.0 -2.9 4.05 -3.1 4.1 -3.3 4.15 -3.55 4.2 -3.7 4.2 -3.85 4.25 -4.0 4.25 -4.2 4.25 -4.35 4.3 -4.5 4.3 -4.65 4.3 -4.8 4.3 -4.95 4.3 -5.1 4.3 -5.3 4.3 -5.45 4.3 -5.6 4.3 -5.75 4.3 -5.9 4.3 -6.1 4.4 -6.05 4.45 -6.0 4.5 -5.95 4.55 -5.9 4.6 -5.9 4.65 -5.85 4.7 -5.85 4.75 -5.8 4.8 -5.8 4.85 -5.8 4.9 -5.8 4.95 -5.8 4.95 -5.85 5.0 -5.85 5.05 -5.9 5.15 -5.9 5.1 -5.9 5.15 -5.9 5.15 -5.9 5.2 -5.95 5.2 -5.95 5.2 -5.95 5.3 -6.05 5.45 -6.15 5.45 -6.0 5.45 -5.85 5.5 -5.7 5.5 -5.55 5.55 -5.4 5.6 -5.2 5.6 -5.1 5.65 -4.9 5.7 -4.8 5.75 -4.65 5.8 -4.5 5.85 -4.35 5.9 -4.2 6.0 -4.05 6.0 -3.95 6.1 -3.75 6.15 -3.6 6.25 -3.45 6.3 -3.3 6.4 -3.15 6.45 -3.0 6.55 -2.85 6.6 -2.7 6.7 -2.55 6.8 -2.4 6.9 -2.25 7.0 -2.1 7.1 -1.95 7.2 -1.8 7.3 -1.65 7.4 -1.55 7.5 -1.4 7.55 -1.35 7.95 -1.0 8.0 -1.0 8.0 -0.95 8.05 -0.95 8.05 -0.9 8.1 -0.9 8.1 -0.85 8.15 -0.85 8.15 -0.85 8.2 -0.8 8.2 -0.8 8.2 -0.75 8.25 -0.75 8.25 -0.7 8.25 -0.65 8.25 -0.65 8.25 -0.6 L8.25 -0.6" fill="#040404" fill-opacity="0.32941177" fill-rule="evenodd" stroke="none"/>
    <path d="M-17.5 -1.4 Q-17.5 -1.4 -17.5 -1.4 -17.5 -1.4 -17.5 -1.4 -17.55 -1.35 -17.55 -1.35 -17.55 -1.35 -17.55 -1.4 -17.55 -1.4 -17.55 -1.4 -17.55 -1.4 -17.55 -1.45 -17.55 -1.45 -17.5 -1.4 -17.5 -1.4 -17.5 -1.4 L-17.5 -1.4" fill="#040404" fill-rule="evenodd" stroke="none"/>
    <path d="M8.9 15.25 Q8.9 15.25 8.85 15.3 L8.85 15.3 Q8.85 15.3 8.85 15.3 8.85 15.3 8.85 15.3 8.85 15.25 8.85 15.25 8.85 15.2 8.9 15.25 L8.9 15.25" fill="#040404" fill-rule="evenodd" stroke="none"/>
    <path d="M4.45 -7.35 Q4.5 -7.35 4.5 -7.35 4.5 -7.35 4.65 -7.45 4.75 -7.55 4.75 -7.55 4.8 -7.55 4.8 -7.6 4.85 -7.6 4.9 -7.65 4.9 -7.7 4.95 -7.7 5.0 -7.75 5.0 -7.8 4.95 -7.85 4.95 -7.9 4.9 -7.95 4.9 -8.0 4.85 -8.0 4.85 -8.05 4.8 -8.1 4.75 -8.15 4.75 -8.2 4.7 -8.25 4.65 -8.3 4.65 -8.35 4.6 -8.4 4.55 -8.45 4.55 -8.45 4.5 -8.5 4.4 -8.6 4.35 -8.7 4.3 -8.8 4.25 -8.9 4.2 -9.0 4.2 -9.1 4.15 -9.2 4.15 -9.3 4.15 -9.35 4.15 -9.45 4.15 -9.55 4.2 -9.65 4.25 -9.75 4.25 -9.85 4.3 -9.95 4.35 -10.05 4.45 -10.25 5.0 -11.25 4.85 -11.2 4.7 -11.15 4.55 -11.05 4.45 -11.0 4.35 -10.9 4.25 -10.8 4.15 -10.7 4.1 -10.6 4.0 -10.5 3.95 -10.35 3.9 -10.3 3.8 -10.15 3.75 -10.0 3.7 -9.9 3.65 -9.8 3.55 -9.7 3.45 -9.8 3.3 -9.9 3.2 -10.0 3.1 -10.1 3.05 -10.15 2.9 -10.3 2.75 -10.45 2.65 -10.5 2.55 -10.65 2.45 -10.7 2.3 -10.8 2.2 -10.9 2.05 -11.0 1.95 -11.05 1.8 -11.1 1.65 -11.15 1.65 -11.1 1.55 -11.0 3.05 -9.45 3.3 -9.2 3.4 -9.1 3.5 -9.0 3.6 -8.9 3.65 -8.75 3.75 -8.65 3.85 -8.55 3.9 -8.45 4.0 -8.3 4.05 -8.2 4.15 -8.05 4.2 -7.95 4.25 -7.85 4.3 -7.7 4.35 -7.6 4.45 -7.45 4.45 -7.35 L4.45 -7.35" fill="#000000" fill-opacity="0.36078432" fill-rule="evenodd" stroke="none"/>
  </g>
</svg>
