<?xml version="1.0" encoding="UTF-8" standalone="no"?>
<svg xmlns:xlink="http://www.w3.org/1999/xlink" height="50.35px" width="24.8px" xmlns="http://www.w3.org/2000/svg">
  <g transform="matrix(1.0, 0.0, 0.0, 1.0, 12.4, 25.15)">
    <path d="M5.0 13.85 Q5.0 13.9 4.95 13.9 4.95 13.9 4.95 13.85 4.95 13.85 4.95 13.8 5.0 13.8 5.0 13.85 L5.0 13.85" fill="#ffd79a" fill-rule="evenodd" stroke="none"/>
    <path d="M18.0 0.65 Q17.6 0.9 17.15 1.1 16.75 1.25 16.25 1.4 15.85 1.5 15.4 1.6 15.0 1.65 14.6 1.7 14.25 1.7 13.85 1.7 13.55 1.7 13.25 1.7 13.05 1.7 12.85 1.7 12.7 1.65 12.6 1.65 12.15 1.6 11.7 1.5 11.25 1.4 10.85 1.25 10.5 1.15 10.1 1.0 10.1 1.05 9.4 0.75 9.05 0.65 8.8 0.55 8.55 0.5 8.3 0.45 8.1 0.4 7.9 0.45 7.7 0.5 7.6 0.6 7.45 0.7 7.35 0.85 7.25 1.0 7.2 1.2 7.15 1.35 7.1 1.55 7.05 1.75 7.0 1.95 7.0 2.1 7.0 2.3 7.0 2.45 7.0 2.65 7.0 2.8 7.05 3.0 7.05 3.1 7.05 3.25 7.05 3.3 7.1 3.45 7.15 3.45 7.15 3.4 7.2 3.4 7.25 3.35 7.25 3.35 7.3 3.3 7.35 3.3 7.4 3.25 7.45 3.25 7.5 3.2 7.5 3.2 7.5 3.2 7.6 3.15 7.6 3.15 7.65 3.15 7.7 3.15 7.75 3.1 7.8 3.05 7.9 3.05 8.0 3.0 8.1 3.0 8.2 2.95 8.3 2.9 8.45 2.85 8.55 2.85 8.7 2.8 8.75 2.8 8.8 2.8 8.85 2.75 8.85 2.75 8.9 2.75 8.95 2.75 9.0 2.75 9.05 2.75 9.1 2.75 9.1 2.75 9.15 2.75 9.2 2.75 9.25 2.75 9.3 2.8 9.3 2.8 9.35 2.8 9.35 2.8 9.35 2.8 9.45 2.85 9.4 2.85 9.45 2.85 9.45 2.9 9.5 2.9 9.5 2.95 9.55 2.95 9.55 3.0 9.6 3.05 9.6 3.05 9.6 3.1 9.65 3.15 9.65 3.2 9.65 3.2 9.65 3.25 9.65 3.3 9.65 3.35 9.6 3.4 9.6 3.4 9.6 3.45 9.55 3.5 9.55 3.5 9.5 3.55 9.45 3.6 9.45 3.6 9.4 3.65 9.4 3.65 9.35 3.7 9.35 3.7 9.3 3.7 9.15 3.85 8.3 4.1 8.25 4.1 8.2 4.1 8.2 4.15 8.15 4.15 8.1 4.15 8.05 4.2 8.0 4.2 7.95 4.2 7.9 4.25 7.85 4.25 7.8 4.3 7.7 4.3 7.65 4.35 7.6 4.35 7.55 4.4 7.5 4.45 7.5 4.45 7.5 4.5 7.55 4.55 7.55 4.6 7.6 4.6 7.65 4.65 7.7 4.7 7.7 4.7 7.75 4.75 7.75 4.75 7.8 4.75 7.85 4.8 7.85 4.8 7.9 4.8 7.95 4.8 8.0 4.8 8.0 4.8 8.05 4.8 8.1 4.8 8.1 4.85 8.2 4.85 8.2 4.85 8.25 4.85 8.35 4.85 8.4 4.85 8.5 4.85 8.55 4.9 8.65 4.9 8.75 4.9 8.8 4.95 8.9 4.95 9.0 5.0 9.05 5.0 9.15 5.05 9.2 5.1 9.3 5.15 9.35 5.2 9.4 5.25 9.4 5.25 9.45 5.3 9.45 5.35 9.45 5.35 9.5 5.4 9.5 5.45 9.5 5.5 9.55 5.55 9.55 5.6 9.55 5.65 9.55 5.7 9.5 5.75 9.5 5.8 9.5 5.85 9.45 5.9 9.4 5.9 9.4 5.95 9.35 6.0 9.3 6.0 9.3 6.05 9.25 6.05 9.25 6.1 9.2 6.1 9.2 6.1 9.2 6.1 9.2 6.1 9.15 6.15 9.05 6.15 8.95 6.2 8.9 6.2 8.8 6.2 8.7 6.2 8.65 6.2 8.55 6.2 8.45 6.2 8.35 6.15 8.3 6.15 8.2 6.1 8.1 6.1 8.0 6.05 7.95 6.0 7.85 6.0 7.85 6.0 7.35 5.75 7.4 6.3 7.55 7.75 7.9 7.6 8.25 7.5 8.4 7.45 8.5 7.4 8.6 7.35 8.7 7.3 8.8 7.25 8.85 7.25 8.95 7.2 9.0 7.2 9.1 7.15 9.15 7.15 9.2 7.15 9.25 7.15 9.3 7.1 9.35 7.15 9.4 7.15 9.45 7.15 9.45 7.15 9.5 7.15 9.55 7.15 9.55 7.15 9.6 7.15 9.65 7.15 9.7 7.2 9.75 7.2 9.75 7.2 9.8 7.25 9.85 7.25 9.9 7.25 9.95 7.3 9.95 7.35 10.0 7.35 10.05 7.4 10.05 7.4 10.05 7.4 10.05 7.45 10.05 7.45 10.05 7.5 10.05 7.5 10.1 7.5 10.1 7.55 10.1 7.55 10.1 7.6 10.1 7.65 10.1 7.65 10.1 7.7 10.1 7.75 10.1 7.75 10.1 7.8 10.1 7.85 10.05 7.9 10.05 7.9 10.0 7.95 10.0 7.95 9.95 8.0 9.9 8.0 9.9 8.05 9.85 8.05 9.8 8.1 9.8 8.1 9.75 8.1 9.7 8.15 9.7 8.15 9.65 8.15 9.65 8.15 8.7 8.55 8.15 8.75 8.1 8.75 8.35 8.85 8.5 8.95 8.6 9.0 8.7 9.05 8.85 9.1 8.95 9.15 9.05 9.2 9.1 9.2 9.2 9.25 9.35 9.3 9.4 9.3 9.45 9.35 9.5 9.35 9.6 9.4 9.65 9.4 9.7 9.45 9.7 9.5 9.75 9.55 9.8 9.6 9.8 9.65 9.85 9.7 9.85 9.75 9.85 9.75 9.85 9.8 9.9 9.85 9.9 9.9 9.9 9.95 9.9 9.95 9.9 10.0 9.9 10.0 9.9 10.0 9.9 10.05 9.9 10.05 9.9 10.05 9.9 10.05 9.9 10.1 9.9 10.1 9.85 10.15 9.85 10.15 9.85 10.2 9.85 10.2 9.85 10.25 9.8 10.25 9.8 10.3 9.8 10.3 9.75 10.35 9.75 10.35 9.7 10.4 9.7 10.4 9.65 10.45 9.65 10.45 9.6 10.45 9.55 10.5 9.5 10.5 9.5 10.5 9.45 10.5 9.4 10.5 9.35 10.5 9.3 10.5 9.15 10.5 8.15 10.0 8.1 9.95 7.8 9.85 7.9 10.65 8.1 12.5 8.2 12.45 8.4 12.4 8.45 12.35 8.5 12.35 8.55 12.3 8.65 12.3 8.7 12.25 8.8 12.2 8.85 12.2 8.95 12.15 9.05 12.1 9.15 12.05 9.25 12.05 9.35 12.0 9.45 11.95 9.55 11.95 9.7 11.9 9.8 11.9 9.9 11.9 9.95 11.85 10.0 11.85 10.05 11.85 10.15 11.8 10.2 11.8 10.25 11.8 10.3 11.8 10.35 11.8 10.35 11.8 10.4 11.8 10.45 11.85 10.5 11.85 10.5 11.85 10.55 11.9 10.6 11.9 10.65 11.9 10.65 11.95 10.7 12.0 10.7 12.0 10.7 12.05 10.75 12.1 10.75 12.1 10.75 12.15 10.8 12.2 10.8 12.2 10.8 12.25 10.8 12.3 10.8 12.35 10.8 12.4 10.8 12.4 10.8 12.45 10.8 12.5 10.75 12.55 10.75 12.6 10.7 12.6 10.7 12.65 10.65 12.7 10.6 12.7 10.55 12.75 10.5 12.75 10.45 12.8 10.45 12.8 10.35 12.85 10.35 12.85 10.25 12.9 10.25 12.9 10.15 12.95 9.7 13.1 8.55 13.6 8.65 13.65 8.75 13.7 8.8 13.75 8.9 13.8 9.0 13.85 9.1 13.9 9.15 13.95 9.25 14.0 9.35 14.05 9.4 14.05 9.5 14.1 9.55 14.15 9.6 14.15 9.7 14.2 9.75 14.25 9.8 14.25 9.85 14.3 10.0 14.35 10.1 14.4 10.15 14.4 10.25 14.45 10.35 14.5 10.4 14.5 10.45 14.55 10.55 14.6 10.6 14.6 10.65 14.65 10.65 14.7 10.7 14.75 10.75 14.8 10.75 14.85 10.8 14.9 10.8 14.95 10.8 15.0 10.8 15.05 10.8 15.1 10.8 15.15 10.75 15.2 10.75 15.2 10.75 15.25 10.7 15.3 10.7 15.3 10.7 15.35 10.7 15.35 10.65 15.35 10.65 15.4 10.65 15.4 10.65 15.4 10.65 15.4 10.65 15.4 10.65 15.45 10.6 15.45 10.6 15.45 10.6 15.5 10.55 15.5 10.55 15.55 10.5 15.55 10.5 15.55 10.45 15.6 10.45 15.6 10.4 15.65 10.35 15.65 10.3 15.65 10.3 15.65 10.25 15.65 10.2 15.65 10.15 15.7 10.1 15.7 10.1 15.7 10.05 15.65 10.0 15.65 10.0 15.65 9.95 15.65 9.9 15.65 9.9 15.65 9.85 15.6 9.85 15.6 9.8 15.6 9.8 15.6 9.8 15.6 9.5 15.45 8.35 14.75 8.5 15.8 8.8 18.35 7.65 18.45 5.2 18.6 5.15 17.55 5.05 15.35 4.8 15.5 4.2 15.85 4.15 15.85 4.15 15.9 4.1 15.9 4.1 15.9 4.05 15.95 4.0 15.95 4.0 15.95 3.95 15.95 3.9 16.0 3.85 16.0 3.85 16.0 3.8 16.0 3.75 16.0 3.7 16.0 3.7 16.0 3.65 16.0 3.6 16.0 3.55 16.0 3.5 15.95 3.5 15.95 3.45 15.9 3.4 15.9 3.35 15.9 3.35 15.85 3.3 15.8 3.25 15.8 3.25 15.75 3.2 15.75 3.2 15.7 3.2 15.65 3.15 15.65 3.15 15.6 3.1 15.5 3.15 15.4 3.2 15.25 3.3 15.15 3.4 15.0 3.55 14.9 3.7 14.75 3.85 14.65 4.0 14.55 4.15 14.45 4.3 14.35 4.4 14.25 4.55 14.2 4.65 14.15 4.7 14.1 4.75 14.1 4.75 14.1 4.85 14.05 4.9 14.0 4.9 14.0 4.95 13.95 4.95 13.9 5.0 13.9 5.0 13.85 5.0 13.8 4.95 13.8 4.95 13.8 4.9 13.75 4.9 13.75 4.85 13.7 4.85 13.7 4.8 13.7 4.75 13.65 4.7 13.65 4.7 13.65 4.65 13.6 4.6 13.6 4.55 13.6 4.55 13.6 4.5 13.6 4.5 13.6 4.45 13.55 4.3 13.5 4.15 13.5 4.05 13.5 3.95 13.45 3.85 13.45 3.75 13.45 3.7 13.45 3.55 13.45 3.45 13.45 3.4 13.45 3.3 13.45 3.25 13.45 3.15 13.45 3.1 13.4 3.0 13.4 2.95 13.35 2.95 13.35 2.9 13.3 2.9 13.3 2.85 13.3 2.8 13.25 2.8 13.2 2.75 13.2 2.7 13.15 2.65 13.1 2.65 13.05 2.6 13.0 2.6 12.95 2.55 12.9 2.55 12.85 2.55 12.8 2.55 12.75 2.55 12.7 2.55 12.65 2.6 12.6 2.6 12.6 2.65 12.55 2.65 12.5 2.7 12.45 2.75 12.45 2.8 12.4 2.85 12.35 2.9 12.35 2.95 12.3 3.0 12.3 3.1 12.3 3.15 12.25 3.2 12.25 3.3 12.25 3.45 12.3 3.55 12.3 3.65 12.3 3.75 12.35 3.85 12.35 3.95 12.35 4.05 12.4 4.15 12.4 4.2 12.4 4.3 12.45 4.4 12.45 4.45 12.45 4.55 12.5 4.6 12.5 4.65 12.5 4.75 12.5 4.9 12.55 4.85 12.05 4.8 10.3 4.75 10.3 4.7 10.35 4.4 10.55 4.2 10.65 4.2 10.65 4.1 10.7 4.05 10.7 4.0 10.75 4.0 10.75 3.95 10.75 3.9 10.8 3.85 10.8 3.85 10.8 3.8 10.8 3.75 10.85 3.7 10.85 3.65 10.85 3.65 10.85 3.6 10.85 3.55 10.9 3.5 10.9 3.45 10.9 3.4 10.9 3.4 10.9 3.35 10.9 3.3 10.9 3.25 10.9 3.2 10.9 3.15 10.9 3.1 10.9 3.1 10.9 3.05 10.85 3.0 10.85 2.95 10.85 2.95 10.8 2.9 10.8 2.85 10.75 2.85 10.7 2.8 10.7 2.8 10.65 2.8 10.6 2.8 10.55 2.8 10.5 2.8 10.4 2.8 10.35 2.8 10.3 2.8 10.25 2.8 10.2 2.85 10.15 2.85 10.1 2.9 10.05 2.9 10.0 2.9 9.95 2.95 9.95 3.0 9.9 3.0 9.9 3.05 9.85 3.1 9.85 3.1 9.85 3.15 9.8 3.2 9.8 3.25 9.8 3.25 9.75 3.3 9.75 3.3 9.75 3.4 9.7 3.5 9.7 3.55 9.65 3.6 9.65 3.65 9.6 3.7 9.6 3.75 9.55 3.8 9.55 3.85 9.5 3.95 9.5 4.0 9.45 4.05 9.4 4.15 9.4 4.2 9.35 4.25 9.3 4.35 9.25 4.4 9.25 4.5 9.2 4.55 9.15 4.55 9.1 4.55 9.1 4.55 9.05 4.5 9.0 4.5 8.95 4.45 8.95 4.4 8.9 4.4 8.9 4.35 8.85 4.3 8.85 4.25 8.8 4.2 8.8 4.15 8.8 4.0 8.75 3.55 8.65 3.45 8.6 3.4 8.55 3.4 8.55 3.35 8.5 3.35 8.5 3.3 8.45 3.3 8.4 3.25 8.4 3.25 8.35 3.2 8.3 3.2 8.25 3.2 8.25 3.2 8.2 3.2 8.15 3.2 8.15 3.2 8.1 3.2 8.05 3.2 8.05 3.2 8.0 3.2 7.95 3.25 7.9 3.25 7.9 3.25 7.85 3.3 7.8 3.3 7.8 3.35 7.75 3.35 7.7 3.4 7.7 3.4 7.65 3.45 7.65 3.5 7.65 3.5 7.65 3.55 7.65 3.6 7.65 3.6 7.65 3.65 7.65 3.7 7.65 3.75 7.65 3.75 7.65 3.8 7.65 3.85 7.65 3.9 7.65 3.95 7.65 4.4 7.75 4.65 7.8 4.6 7.2 4.55 5.95 4.3 6.15 4.25 6.2 4.2 6.25 4.15 6.25 4.1 6.3 4.05 6.3 4.0 6.35 3.95 6.4 3.9 6.4 3.85 6.45 3.8 6.45 3.75 6.5 3.7 6.5 3.6 6.5 3.55 6.55 3.5 6.55 3.45 6.55 3.35 6.55 3.35 6.55 3.3 6.55 3.25 6.55 3.2 6.55 3.2 6.55 3.15 6.5 3.1 6.5 3.05 6.5 3.0 6.5 2.95 6.45 2.85 6.45 2.8 6.4 2.75 6.35 2.75 6.3 2.7 6.25 2.65 6.2 2.65 6.15 2.6 6.1 2.6 6.05 2.6 6.05 2.6 6.0 2.6 5.95 2.6 5.9 2.6 5.85 2.6 5.8 2.6 5.75 2.6 5.7 2.65 5.65 2.65 5.65 2.65 5.6 2.7 5.55 2.7 5.5 2.75 5.45 2.75 5.45 2.8 5.4 2.85 5.4 2.9 5.35 2.95 5.35 3.0 5.3 3.05 5.25 3.1 5.25 3.2 5.2 3.25 5.2 3.3 5.15 3.35 5.15 3.4 5.1 3.45 5.1 3.45 5.1 3.5 5.05 3.55 5.05 3.6 5.05 3.6 5.05 3.65 5.0 3.7 5.0 3.7 5.0 3.75 5.0 3.75 5.0 3.8 4.95 3.75 4.95 3.35 4.8 3.3 4.8 3.2 4.75 3.15 4.75 3.1 4.75 3.05 4.7 3.0 4.7 3.0 4.7 2.9 4.7 2.9 4.7 2.85 4.7 2.8 4.65 2.8 4.65 2.75 4.65 2.7 4.65 2.65 4.6 2.65 4.6 2.6 4.55 2.6 4.55 2.55 4.5 2.5 4.5 2.5 4.45 2.45 4.4 2.45 4.35 2.4 4.35 2.4 4.3 2.4 4.25 2.35 4.2 2.35 4.15 2.35 4.1 2.35 4.05 2.35 4.05 2.35 4.0 2.35 3.95 2.4 3.9 2.4 3.85 2.45 3.85 2.5 3.8 2.55 3.75 2.55 3.75 2.6 3.7 2.65 3.7 2.7 3.7 2.75 3.65 2.8 3.65 2.8 3.65 2.85 3.6 2.85 3.6 2.9 3.6 2.95 3.6 2.95 3.6 3.0 3.6 3.0 3.6 3.05 3.6 3.1 3.6 3.15 3.6 3.2 3.6 3.25 3.6 3.35 3.6 3.4 3.6 3.5 3.6 3.55 3.65 3.65 3.65 3.75 3.65 3.9 3.7 4.25 3.8 4.45 3.85 4.35 2.75 4.25 0.65 4.0 0.9 3.8 1.1 3.45 1.4 3.15 1.65 2.75 2.0 2.35 2.3 1.9 2.65 1.45 2.95 0.9 3.3 0.35 3.6 -0.25 3.95 -0.9 4.2 -1.6 4.5 -2.3 4.7 -3.05 4.95 -3.85 5.1 -4.35 5.2 -4.85 5.3 -5.3 5.35 -5.8 5.4 -6.25 5.4 -6.7 5.4 -7.1 5.4 -7.55 5.4 -7.95 5.4 -8.3 5.35 -8.7 5.3 -9.05 5.25 -9.35 5.2 -9.65 5.15 -9.95 5.1 -10.25 5.05 -12.35 3.95 -16.3 1.95 -16.45 1.85 -16.55 1.75 -16.7 1.65 -16.85 1.55 -17.0 1.4 -17.15 1.3 -17.3 1.15 -17.45 1.0 -17.65 0.85 -17.8 0.7 -17.95 0.5 -18.1 0.3 -18.25 0.1 -18.4 -0.1 -18.55 -0.3 -18.7 -0.55 -19.05 -1.15 -19.3 -1.85 -19.5 -2.45 -19.6 -3.1 -19.7 -3.7 -19.7 -4.3 -19.7 -4.85 -19.6 -5.45 -19.55 -5.95 -19.4 -6.45 -19.3 -6.85 -19.2 -7.25 -19.05 -7.6 -18.95 -7.9 -18.85 -8.1 -18.75 -8.3 -18.65 -8.55 -18.55 -8.7 -18.4 -8.95 -18.3 -9.2 -18.1 -9.5 -17.95 -9.8 -17.7 -10.1 -17.5 -10.4 -17.2 -10.75 -16.95 -11.05 -16.6 -11.35 -16.25 -11.65 -15.9 -11.95 -15.5 -12.15 -15.05 -12.4 -14.55 -12.6 -14.25 -12.75 -13.9 -12.8 -13.55 -12.9 -13.2 -12.9 -12.85 -12.95 -12.5 -12.95 -12.1 -12.95 -11.65 -12.9 -11.25 -12.9 -10.8 -12.8 -10.35 -12.75 -9.75 -12.65 -9.3 -12.55 -8.65 -12.45 -8.2 -12.35 -7.35 -12.2 -6.85 -12.1 -6.6 -12.05 -6.15 -11.95 -5.85 -11.85 -5.4 -11.8 -5.05 -11.7 -4.65 -11.6 -4.25 -11.5 -3.8 -11.35 -3.4 -11.25 -3.0 -11.1 -2.55 -10.95 -2.1 -10.8 -1.65 -10.6 -1.2 -10.4 -0.7 -10.2 -0.25 -10.0 0.25 -9.75 0.7 -9.55 1.1 -9.3 1.55 -9.05 1.95 -8.8 2.3 -8.6 2.7 -8.35 3.05 -8.1 3.4 -7.85 3.7 -7.65 4.05 -7.4 4.35 -7.2 4.6 -6.95 4.9 -6.75 5.15 -6.55 5.25 -7.35 5.5 -8.15 5.7 -8.9 6.1 -9.6 6.45 -10.3 6.9 -10.95 7.4 -11.55 7.95 -12.05 8.55 -12.55 9.15 -12.95 9.8 -13.35 10.5 -13.6 11.2 -13.9 11.95 -14.05 12.65 -14.15 13.4 -14.15 14.1 -14.15 14.75 -14.0 15.4 -13.85 16.05 -13.6 16.65 -13.4 17.2 -13.05 17.75 -12.7 18.2 -12.3 18.7 -11.9 19.1 -11.45 19.55 -10.95 19.85 -10.45 20.2 -10.0 20.45 -9.45 20.75 -8.95 20.9 -8.45 21.1 -7.85 21.25 -7.15 21.35 -6.5 21.35 -5.85 21.35 -5.2 21.25 -4.55 21.15 -3.9 21.0 -3.25 20.8 -2.65 20.5 -2.1 20.2 -1.5 19.85 -1.0 19.45 -0.5 19.0 -0.05 18.55 0.35 18.0 0.65 L18.0 0.65" fill="#ffd79a" fill-rule="evenodd" stroke="none"/>
  </g>
</svg>
