<?xml version="1.0" encoding="UTF-8" standalone="no"?>
<svg xmlns:xlink="http://www.w3.org/1999/xlink" height="7.05px" width="19.1px" xmlns="http://www.w3.org/2000/svg">
  <g transform="matrix(1.0, 0.0, 0.0, 1.0, 9.55, 3.55)">
    <path d="M9.0 -2.6 Q8.9 -2.55 8.8 -2.5 8.7 -2.45 8.6 -2.4 8.5 -2.4 8.4 -2.35 8.3 -2.3 8.2 -2.3 8.15 -2.25 8.05 -2.2 7.95 -2.2 7.9 -2.15 7.8 -2.15 7.75 -2.15 7.7 -2.1 7.6 -2.1 7.4 -2.05 7.2 -2.0 7.0 -1.95 6.8 -1.9 6.65 -1.9 6.45 -1.85 6.25 -1.85 6.1 -1.8 5.9 -1.8 5.7 -1.8 5.55 -1.8 5.35 -1.8 5.2 -1.75 5.0 -1.75 4.85 -1.75 4.6 -1.75 4.5 -1.75 4.05 -1.75 3.8 -1.8 3.35 -1.8 1.75 -1.7 1.45 -1.75 0.75 -1.75 -0.1 -1.85 -0.9 -1.95 -1.85 -2.05 -2.65 -2.2 -3.6 -2.35 -4.4 -2.5 -5.3 -2.7 -6.05 -2.85 -6.8 -3.05 -7.45 -3.2 -8.1 -3.35 -8.55 -3.45 -8.95 -3.55 -9.2 -3.65 -9.35 -3.65 -9.4 -2.55 -9.55 -0.25 -9.35 -0.15 -9.2 -0.1 -9.0 0.0 -8.8 0.1 -8.6 0.2 -8.4 0.25 -8.15 0.35 -7.95 0.45 -7.7 0.55 -7.45 0.6 -7.2 0.7 -6.95 0.8 -6.7 0.9 -6.4 0.95 -6.15 1.05 -5.85 1.15 -6.15 1.1 -5.55 1.2 -5.35 1.25 -5.15 1.3 -4.85 1.4 -4.55 1.45 -4.2 1.5 -3.85 1.55 -3.4 1.65 -3.0 1.7 -2.5 1.75 -2.05 1.8 -1.5 1.85 -0.95 1.85 -0.35 1.9 0.25 1.9 0.7 1.9 1.1 1.9 1.6 1.9 2.05 1.9 2.6 1.85 3.15 1.8 3.7 1.75 4.3 1.7 4.9 1.6 5.55 1.5 6.2 1.4 6.85 1.25 7.55 1.1 8.25 0.95 9.0 0.75 9.75 0.55 9.5 -0.5 9.0 -2.6 L9.0 -2.6 M-5.85 0.1 Q-5.95 0.1 -6.05 0.1 -6.1 0.05 -6.2 0.0 -6.3 0.0 -6.35 -0.05 -6.4 -0.1 -6.5 -0.2 -6.55 -0.25 -6.6 -0.3 -6.65 -0.4 -6.65 -0.45 -6.7 -0.55 -6.75 -0.65 -6.75 -0.7 -6.75 -0.8 -6.75 -0.9 -6.75 -1.0 -6.7 -1.05 -6.7 -1.15 -6.65 -1.25 -6.6 -1.3 -6.55 -1.4 -6.5 -1.45 -6.4 -1.5 -6.35 -1.55 -6.25 -1.6 -6.2 -1.65 -6.1 -1.65 -6.0 -1.7 -5.95 -1.7 -5.85 -1.7 -5.75 -1.7 -5.65 -1.7 -5.6 -1.65 -5.5 -1.65 -5.4 -1.6 -5.35 -1.55 -5.3 -1.5 -5.2 -1.45 -5.15 -1.4 -5.1 -1.3 -5.05 -1.25 -5.05 -1.15 -5.0 -1.1 -4.95 -1.0 -4.95 -0.9 -4.95 -0.8 -4.95 -0.7 -4.95 -0.65 -5.0 -0.55 -5.0 -0.45 -5.05 -0.4 -5.1 -0.3 -5.15 -0.25 -5.2 -0.2 -5.3 -0.1 -5.35 -0.05 -5.45 0.0 -5.5 0.0 -5.6 0.05 -5.7 0.05 -5.75 0.1 -5.85 0.1 L-5.85 0.1 M-0.45 0.8 Q-0.55 0.8 -0.65 0.8 -0.7 0.75 -0.8 0.7 -0.9 0.7 -0.95 0.65 -1.0 0.6 -1.1 0.5 -1.15 0.45 -1.2 0.4 -1.25 0.3 -1.3 0.25 -1.3 0.15 -1.35 0.05 -1.35 0.0 -1.35 -0.1 -1.35 -0.2 -1.35 -0.3 -1.3 -0.35 -1.3 -0.45 -1.25 -0.55 -1.2 -0.6 -1.15 -0.7 -1.1 -0.75 -1.05 -0.8 -0.95 -0.85 -0.9 -0.9 -0.8 -0.95 -0.7 -1.0 -0.65 -1.0 -0.55 -1.0 -0.45 -1.0 -0.35 -1.0 -0.25 -1.0 -0.2 -0.95 -0.1 -0.95 0.0 -0.9 0.05 -0.85 0.1 -0.8 0.2 -0.75 0.25 -0.7 0.3 -0.6 0.35 -0.55 0.35 -0.45 0.4 -0.4 0.4 -0.3 0.45 -0.2 0.45 -0.1 0.45 0.0 0.45 0.05 0.4 0.15 0.4 0.25 0.35 0.3 0.3 0.4 0.25 0.45 0.2 0.5 0.1 0.6 0.05 0.65 -0.05 0.7 -0.1 0.7 -0.2 0.75 -0.3 0.75 -0.35 0.8 -0.45 0.8 L-0.45 0.8 M5.0 0.7 Q4.9 0.7 4.8 0.7 4.75 0.65 4.65 0.65 4.55 0.6 4.5 0.55 4.4 0.5 4.35 0.45 4.3 0.4 4.25 0.3 4.2 0.25 4.15 0.15 4.15 0.1 4.1 0.0 4.1 -0.1 4.1 -0.2 4.1 -0.3 4.1 -0.35 4.15 -0.45 4.15 -0.55 4.2 -0.6 4.25 -0.7 4.3 -0.75 4.35 -0.8 4.4 -0.9 4.5 -0.95 4.55 -1.0 4.65 -1.0 4.75 -1.05 4.8 -1.05 4.9 -1.1 5.0 -1.1 5.1 -1.1 5.2 -1.1 5.25 -1.05 5.35 -1.0 5.4 -1.0 5.5 -0.95 5.55 -0.9 5.6 -0.8 5.7 -0.75 5.75 -0.7 5.8 -0.6 5.8 -0.55 5.85 -0.45 5.85 -0.35 5.9 -0.25 5.9 -0.2 5.9 -0.1 5.9 0.0 5.85 0.05 5.85 0.15 5.8 0.25 5.75 0.3 5.7 0.4 5.65 0.45 5.55 0.5 5.5 0.55 5.4 0.6 5.35 0.65 5.25 0.7 5.15 0.7 5.1 0.7 5.0 0.7 L5.0 0.7" fill="#696868" fill-rule="evenodd" stroke="none"/>
  </g>
</svg>
