<?xml version="1.0" encoding="UTF-8" standalone="no"?>
<svg xmlns:xlink="http://www.w3.org/1999/xlink" height="25.4px" width="27.6px" xmlns="http://www.w3.org/2000/svg">
  <g transform="matrix(1.0, 0.0, 0.0, 1.0, 13.9, 12.8)">
    <path d="M12.55 -6.7 Q12.55 -6.55 12.55 -6.2 12.5 -6.15 12.5 -6.15 12.45 -6.1 12.45 -6.05 12.4 -6.05 12.4 -6.0 12.35 -5.95 12.35 -5.95 12.3 -5.9 12.3 -5.9 12.25 -5.85 12.2 -5.85 12.2 -5.8 12.15 -5.8 12.15 -5.75 12.1 -5.75 12.0 -5.7 11.95 -5.65 11.9 -5.6 11.8 -5.55 11.75 -5.5 11.7 -5.4 11.65 -5.35 11.6 -5.25 11.6 -5.2 11.55 -5.15 11.5 -5.05 11.45 -4.95 11.45 -4.9 11.4 -4.8 11.4 -4.75 11.35 -4.65 11.25 -4.35 11.2 -4.0 11.1 -3.7 11.05 -3.4 10.95 -3.05 10.85 -2.75 10.8 -2.45 10.7 -2.15 10.6 -1.85 10.5 -1.5 10.4 -1.2 10.35 -0.9 10.25 -0.6 10.15 -0.3 10.05 0.05 9.9 0.35 9.85 0.45 9.25 1.85 9.2 1.95 9.15 2.05 9.1 2.15 9.05 2.2 9.05 2.3 9.0 2.4 8.95 2.5 8.9 2.6 8.85 2.7 8.8 2.8 8.75 2.85 8.7 2.95 8.65 3.05 8.6 3.15 8.55 3.25 8.5 3.3 8.4 3.45 8.35 3.55 8.25 3.65 8.2 3.75 8.1 3.9 8.05 3.95 7.95 4.1 7.85 4.15 7.75 4.25 7.65 4.35 7.55 4.45 7.45 4.5 7.3 4.6 7.2 4.65 7.1 4.7 6.95 4.75 6.8 4.75 6.55 4.75 6.55 4.7 6.5 4.7 6.45 4.7 6.4 4.7 6.35 4.65 6.3 4.65 6.25 4.6 6.2 4.6 6.15 4.55 6.1 4.55 6.05 4.5 6.0 4.5 6.0 4.45 5.95 4.4 5.9 4.4 5.9 4.35 5.85 4.3 5.8 4.25 5.75 4.15 5.65 4.1 5.6 4.0 5.5 3.9 5.45 3.85 5.4 3.75 5.3 3.65 5.25 3.55 5.2 3.45 5.15 3.4 5.05 3.3 5.0 3.2 4.95 3.1 4.9 3.0 4.85 2.9 4.8 2.8 4.75 2.75 4.75 2.7 4.7 2.7 4.7 2.65 4.65 2.65 4.65 2.65 4.6 2.6 4.6 2.6 4.55 2.6 4.5 2.6 4.5 2.6 4.45 2.65 4.4 2.65 4.4 2.65 4.35 2.7 4.3 2.7 4.25 2.75 4.25 2.75 4.2 2.75 4.2 2.8 4.15 2.8 4.15 2.85 4.1 2.85 4.1 2.9 4.05 2.9 4.0 2.9 4.0 2.95 3.95 2.95 3.95 2.95 3.9 3.0 3.85 3.0 3.85 3.0 3.8 3.05 3.7 3.05 3.65 3.05 3.55 3.1 3.5 3.1 3.4 3.1 3.35 3.15 3.25 3.15 3.2 3.15 3.15 3.15 3.05 3.15 3.0 3.15 2.9 3.15 2.85 3.15 2.75 3.15 2.7 3.15 2.65 3.15 2.65 3.15 2.6 3.1 2.55 3.1 2.55 3.1 2.5 3.1 2.5 3.05 2.45 3.05 2.45 3.05 2.4 3.0 2.4 3.0 2.4 2.95 2.35 2.95 2.35 2.9 2.35 2.9 2.35 2.85 2.25 2.55 2.15 1.85 2.1 1.35 2.05 0.45 2.0 -0.5 1.95 -0.95 1.95 -1.05 1.95 -1.1 1.9 -1.2 1.9 -1.25 1.85 -1.3 1.85 -1.4 1.8 -1.45 1.8 -1.5 1.75 -1.6 1.7 -1.65 1.65 -1.7 1.6 -1.75 1.55 -1.8 1.5 -1.9 1.45 -1.95 1.4 -2.0 1.2 -0.35 1.0 1.25 0.85 2.95 0.75 3.55 0.75 3.6 0.7 3.75 0.7 3.85 0.65 3.9 0.65 4.0 0.6 4.1 0.6 4.2 0.55 4.25 0.5 4.35 0.45 4.45 0.4 4.5 0.35 4.55 0.3 4.65 0.2 4.7 0.1 4.75 0.0 4.75 -0.15 4.75 -0.35 4.75 -0.55 4.7 -1.35 4.5 -1.4 4.5 -1.45 4.5 -1.45 4.5 -1.5 4.5 -1.55 4.45 -1.6 4.45 -1.65 4.45 -1.65 4.45 -1.7 4.5 -1.75 4.5 -1.8 4.5 -1.85 4.5 -1.85 4.5 -1.9 4.5 -1.95 4.5 -2.0 4.55 -2.5 4.7 -2.55 4.65 -2.6 4.65 -2.7 4.65 -2.75 4.65 -2.85 4.6 -2.9 4.6 -2.95 4.6 -3.05 4.55 -3.1 4.55 -3.2 4.55 -3.25 4.5 -3.3 4.5 -3.4 4.5 -3.45 4.45 -3.5 4.45 -3.6 4.4 -3.65 4.4 -4.1 4.2 -4.55 4.05 -5.0 3.85 -5.4 3.65 -5.85 3.45 -6.3 3.25 -6.7 3.05 -7.15 2.85 -7.6 2.65 -8.0 2.45 -8.45 2.25 -8.85 2.0 -9.25 1.8 -9.7 1.55 -10.1 1.35 -10.5 1.1 -11.05 0.8 -11.55 0.5 -12.1 0.2 -12.6 -0.15 -13.1 -0.45 -13.65 -0.8 -14.15 -1.15 -14.65 -1.5 -15.15 -1.8 -15.65 -2.2 -16.15 -2.55 -16.6 -2.9 -17.1 -3.25 -17.6 -3.65 -18.05 -4.0 -18.55 -4.4 -19.25 -4.95 -19.45 -5.2 -19.45 -5.2 -19.5 -5.25 -19.55 -5.3 -19.55 -5.3 -19.55 -5.35 -19.6 -5.4 -19.6 -5.4 -19.65 -5.45 -19.65 -5.5 -19.65 -5.5 -19.65 -5.55 -19.65 -5.6 -19.7 -5.65 -19.65 -5.65 -19.65 -5.7 -19.65 -5.75 -19.65 -5.8 -19.6 -5.8 -19.6 -5.85 -19.6 -5.9 -19.55 -5.9 -19.55 -5.95 -19.5 -5.95 -19.5 -6.0 -19.45 -6.0 -19.45 -6.05 -19.4 -6.05 -19.4 -6.1 -19.35 -6.1 -19.35 -6.15 -19.3 -6.15 -19.3 -6.15 -17.75 -7.05 -17.7 -7.1 -17.6 -7.15 -17.5 -7.2 -17.45 -7.25 -17.35 -7.3 -17.25 -7.35 -17.15 -7.4 -17.05 -7.45 -16.95 -7.5 -16.9 -7.55 -16.8 -7.6 -16.7 -7.6 -16.6 -7.65 -16.5 -7.7 -16.4 -7.75 -16.3 -7.75 -16.2 -7.8 -16.15 -7.85 -16.05 -7.85 -16.0 -7.85 -15.95 -7.9 -15.85 -7.9 -15.8 -7.95 -15.7 -7.95 -15.65 -7.95 -15.6 -7.95 -15.5 -8.0 -15.45 -8.0 -15.35 -8.0 -15.3 -8.0 -15.2 -8.0 -15.15 -7.95 -15.05 -7.95 -14.95 -7.95 -14.9 -7.9 -14.8 -7.9 -14.75 -7.9 -14.7 -7.9 -14.6 -7.9 -14.55 -7.9 -14.55 -7.95 -14.5 -7.95 -14.45 -8.0 -14.4 -8.0 -14.4 -8.05 -14.35 -8.1 -14.35 -8.15 -14.3 -8.2 -14.25 -8.25 -14.2 -8.35 -14.2 -8.4 -14.15 -8.5 -14.1 -8.55 -14.05 -8.65 -14.0 -8.7 -13.95 -8.8 -13.85 -8.85 -13.8 -8.9 -13.75 -8.95 -13.7 -9.05 -13.6 -9.1 -13.55 -9.15 -13.5 -9.2 -13.4 -9.25 -13.35 -9.3 -13.25 -9.35 -13.2 -9.4 -13.1 -9.45 -13.0 -9.5 -12.9 -9.55 -12.85 -9.55 -12.75 -9.6 -12.65 -9.6 -12.55 -9.65 -12.45 -9.65 -12.4 -9.7 -12.3 -9.7 -12.2 -9.7 -12.1 -9.75 -12.0 -9.75 -11.9 -9.75 -11.85 -9.75 -11.85 -9.75 -11.8 -9.75 -11.75 -9.8 -11.75 -9.8 -11.7 -9.8 -11.65 -9.8 -11.65 -9.85 -11.6 -9.85 -11.6 -9.85 -11.55 -9.9 -11.5 -9.9 -11.5 -9.95 -11.45 -9.95 -11.45 -10.0 -11.45 -10.0 -10.95 -10.8 -10.85 -11.0 -10.75 -11.3 -10.75 -11.35 -10.7 -11.45 -10.65 -11.55 -10.6 -11.65 -10.6 -11.8 -10.55 -11.9 -10.5 -12.0 -10.5 -12.1 -10.5 -12.25 -10.45 -12.35 -10.45 -12.45 -10.45 -12.55 -10.45 -12.7 -10.45 -12.8 -10.45 -12.9 -10.5 -13.05 -10.5 -13.15 -10.5 -13.2 -10.5 -13.25 -10.5 -13.3 -10.5 -13.35 -10.5 -13.4 -10.5 -13.45 -10.5 -13.5 -10.5 -13.6 -10.5 -13.65 -10.45 -13.7 -10.45 -13.75 -10.45 -13.8 -10.4 -13.8 -10.4 -13.85 -10.4 -13.9 -10.35 -13.95 -10.3 -14.05 -10.25 -14.2 -10.2 -14.3 -10.15 -14.35 -10.05 -14.45 -10.0 -14.5 -9.95 -14.55 -9.85 -14.6 -9.75 -14.65 -9.7 -14.7 -9.6 -14.75 -9.5 -14.75 -9.4 -14.75 -9.3 -14.75 -9.2 -14.75 -9.1 -14.75 -9.0 -14.75 -8.9 -14.7 -8.8 -14.7 -8.7 -14.65 -8.55 -14.65 -8.45 -14.6 -8.35 -14.55 -8.25 -14.55 -8.15 -14.5 -8.05 -14.45 -7.95 -14.4 -7.85 -14.35 -7.8 -14.3 -7.7 -14.25 -7.6 -14.2 -7.5 -14.15 -7.35 -14.05 -7.15 -13.95 -7.0 -13.85 -6.85 -13.75 -6.65 -13.65 -6.5 -13.6 -6.3 -13.5 -6.15 -13.45 -5.95 -13.35 -5.8 -13.3 -5.6 -13.2 -5.45 -13.15 -5.25 -13.1 -5.05 -13.05 -4.85 -13.0 -4.7 -12.95 -4.55 -12.95 -4.45 -12.9 -4.35 -12.9 -4.2 -12.9 -4.1 -12.85 -3.95 -12.85 -3.85 -12.85 -3.7 -12.85 -3.6 -12.85 -3.45 -12.85 -3.35 -12.85 -3.2 -12.85 -3.1 -12.85 -3.0 -12.85 -2.85 -12.85 -2.75 -12.85 -0.9 -13.05 -0.65 -13.05 -0.55 -13.05 -0.45 -13.05 -0.4 -13.05 -0.3 -13.0 -0.2 -13.0 -0.1 -13.0 -0.05 -12.95 0.05 -12.9 0.1 -12.9 0.2 -12.85 0.3 -12.8 0.35 -12.75 0.45 -12.7 0.5 -12.65 0.6 -12.6 0.65 -12.55 0.7 -12.55 0.7 -12.5 0.75 -12.5 0.8 -12.5 0.8 -12.5 0.85 -12.45 0.85 -12.45 0.9 -12.45 0.95 -12.5 0.95 -12.5 1.0 -12.5 1.0 -12.5 1.05 -12.55 1.05 -12.55 1.1 -12.6 1.1 -12.6 1.15 -12.7 1.25 -12.8 1.3 -12.85 1.4 -12.95 1.45 -13.0 1.55 -13.05 1.6 -13.1 1.7 -13.15 1.8 -13.2 1.9 -13.25 2.0 -13.3 2.1 -13.3 2.2 -13.35 2.3 -13.35 2.4 -13.35 2.5 -13.35 2.55 -13.35 2.6 -13.35 2.7 -13.35 2.75 -13.35 2.8 -13.35 2.85 -13.35 2.9 -13.35 3.0 -13.35 3.0 -13.3 3.1 -13.3 3.15 -13.3 3.2 -13.3 3.3 -13.25 3.35 -13.25 3.4 -13.25 3.45 -13.25 3.6 -13.25 3.8 -13.25 3.95 -13.25 4.1 -13.25 4.3 -13.25 4.45 -13.25 4.65 -13.3 4.8 -13.3 4.95 -13.3 5.15 -13.35 5.3 -13.35 5.45 -13.4 5.6 -13.45 5.8 -13.5 5.95 -13.5 6.1 -13.55 6.15 -13.55 6.25 -13.6 6.3 -13.6 6.35 -13.6 6.4 -13.65 6.5 -13.65 6.55 -13.65 6.6 -13.65 6.65 -13.6 6.75 -13.6 6.8 -13.6 6.85 -13.6 6.9 -13.55 6.95 -13.55 7.0 -13.5 7.1 -13.5 7.2 -13.45 7.3 -13.35 7.4 -13.25 7.5 -13.2 7.55 -13.1 7.6 -13.0 7.7 -12.9 7.7 -12.8 7.75 -12.7 7.75 -12.55 7.8 -12.45 7.8 -12.35 7.8 -12.25 7.8 -12.1 7.75 -12.0 7.75 -11.9 7.75 -11.8 7.7 -11.65 7.7 -11.55 7.65 -11.45 7.65 -11.3 7.65 -11.2 7.65 -11.1 7.6 -11.0 7.6 -10.85 7.6 -10.75 7.6 -10.65 7.6 -10.5 7.6 -10.4 7.6 -10.3 7.6 -10.2 7.6 -10.05 7.6 -10.0 7.6 -10.0 7.6 -9.95 7.6 -9.9 7.6 -9.85 7.65 -9.85 7.65 -9.8 7.65 -9.75 7.65 -9.75 7.7 -9.7 7.7 -9.7 7.75 -9.65 7.75 -9.65 7.8 -9.6 7.85 -9.6 7.85 -9.55 8.05 -9.5 8.4 -9.35 8.75 -9.2 8.95 -9.15 9.05 -9.15 9.15 -9.1 9.25 -9.1 9.3 -9.05 9.4 -9.0 9.5 -9.0 9.6 -8.95 9.7 -8.9 9.75 -8.9 9.85 -8.85 9.95 -8.8 10.0 -8.75 10.1 -8.7 10.2 -8.65 10.25 -8.65 10.35 -8.6 10.5 -8.5 10.75 -8.35 11.0 -8.2 11.1 -8.1 11.2 -8.05 11.3 -7.95 11.4 -7.9 11.5 -7.8 11.6 -7.75 11.7 -7.65 11.8 -7.6 11.9 -7.5 12.0 -7.4 12.1 -7.3 12.15 -7.2 12.25 -7.15 12.3 -7.0 12.4 -6.9 12.45 -6.8 12.55 -6.7 L12.55 -6.7 M-0.5 -6.4 Q-0.65 -6.35 -0.75 -6.3 -0.9 -6.25 -1.0 -6.2 -1.15 -6.15 -1.25 -6.05 -1.4 -6.0 -1.5 -5.95 -1.65 -5.9 -1.75 -5.85 -1.9 -5.75 -2.0 -5.7 -2.15 -5.65 -2.25 -5.55 -2.35 -5.5 -2.5 -5.45 -2.6 -5.4 -2.7 -5.35 -2.8 -5.25 -2.9 -5.2 -3.05 -5.15 -3.15 -5.1 -3.25 -5.05 -3.35 -5.0 -3.45 -4.95 -3.6 -4.9 -3.7 -4.9 -3.8 -4.85 -3.9 -4.8 -4.05 -4.75 -4.15 -4.75 -4.25 -4.7 -4.35 -4.65 -4.5 -4.65 -4.6 -4.65 -4.7 -4.65 -4.85 -4.65 -4.95 -4.7 -5.05 -4.7 -5.15 -4.75 -5.25 -4.8 -5.3 -4.85 -5.4 -4.9 -5.5 -5.0 -5.55 -5.05 -5.65 -5.15 -5.7 -5.25 -5.75 -5.35 -5.8 -5.45 -5.85 -5.6 -5.9 -5.7 -5.95 -5.85 -6.0 -5.95 -6.05 -6.1 -6.1 -6.2 -6.1 -6.35 -6.15 -6.45 -6.15 -6.6 -6.15 -6.75 -6.15 -6.85 -6.2 -7.0 -6.15 -7.1 -6.15 -7.25 -6.15 -7.4 -6.1 -7.6 -6.05 -7.75 -6.05 -7.95 -5.95 -8.1 -5.9 -8.2 -5.8 -8.35 -5.75 -8.45 -5.65 -8.55 -5.55 -8.65 -5.4 -8.7 -5.3 -8.8 -5.15 -8.8 -5.0 -8.85 -4.8 -8.9 -4.65 -8.9 -4.45 -8.9 -4.05 -8.9 -3.05 -8.85 -2.85 -8.85 -2.35 -8.8 -2.35 -8.85 -2.45 -8.9 -2.6 -8.95 -2.7 -8.95 -2.85 -9.0 -2.95 -9.05 -3.1 -9.05 -3.2 -9.1 -3.35 -9.15 -3.45 -9.15 -3.6 -9.2 -3.75 -9.25 -3.85 -9.25 -4.0 -9.3 -4.1 -9.3 -4.25 -9.35 -4.4 -9.35 -4.5 -9.4 -5.4 -9.55 -5.65 -9.55 -5.75 -9.55 -5.9 -9.55 -6.0 -9.55 -6.1 -9.5 -6.2 -9.45 -6.3 -9.4 -6.4 -9.35 -6.45 -9.25 -6.55 -9.2 -6.6 -9.1 -6.65 -9.0 -6.7 -8.9 -6.75 -8.8 -6.75 -8.7 -6.8 -8.6 -6.8 -8.5 -6.8 -8.35 -6.8 -8.05 -6.8 -7.75 -6.8 -7.6 -6.75 -7.05 -6.7 -6.8 -6.5 -5.95 -6.3 -5.55 -6.25 -5.4 -6.2 -5.3 -6.1 -5.15 -6.05 -5.0 -6.0 -4.9 -5.9 -4.75 -5.85 -4.65 -5.8 -4.5 -5.7 -4.4 -5.6 -4.25 -5.55 -4.15 -5.45 -4.05 -5.35 -3.9 -5.25 -3.8 -5.15 -3.7 -5.05 -3.6 -5.0 -3.55 -4.95 -3.55 -4.9 -3.5 -4.9 -3.5 -4.85 -3.45 -4.8 -3.45 -4.75 -3.45 -4.7 -3.4 -4.65 -3.4 -4.6 -3.4 -4.55 -3.4 -4.5 -3.4 -4.45 -3.4 -4.4 -3.4 -4.35 -3.4 -4.3 -3.45 -4.2 -3.45 -4.15 -3.5 -4.05 -3.5 -4.0 -3.55 -3.9 -3.6 -3.85 -3.6 -3.75 -3.65 -3.7 -3.7 -3.65 -3.75 -3.55 -3.8 -3.5 -3.85 -3.45 -3.9 -3.35 -3.9 -3.3 -3.95 -3.25 -4.0 -3.15 -4.1 -2.3 -4.75 -1.65 -5.3 -1.5 -5.45 -1.05 -5.85 -0.65 -6.15 -0.45 -6.4 -0.35 -6.35 -0.45 -6.45 -0.45 -6.45 -0.45 -6.45 -0.5 -6.45 -0.5 -6.4 L-0.5 -6.4 M-10.8 -8.2 Q-10.8 -7.95 -10.8 -7.55 -10.85 -7.6 -10.9 -7.6 -11.0 -7.65 -11.05 -7.7 -11.1 -7.75 -11.15 -7.8 -11.2 -7.8 -11.25 -7.85 -11.25 -7.9 -11.3 -7.95 -11.35 -8.05 -11.35 -8.1 -11.4 -8.15 -11.45 -8.2 -11.45 -8.25 -11.45 -8.35 -11.45 -8.4 -11.5 -8.45 -11.5 -8.45 -11.55 -8.5 -11.55 -8.5 -11.6 -8.55 -11.65 -8.55 -11.7 -8.55 -11.7 -8.55 -11.75 -8.55 -11.8 -8.55 -11.85 -8.55 -11.9 -8.55 -12.0 -8.55 -12.05 -8.55 -12.1 -8.55 -12.15 -8.55 -12.2 -8.55 -12.25 -8.5 -12.3 -8.5 -12.35 -8.5 -12.4 -8.45 -12.45 -8.45 -12.5 -8.4 -12.55 -8.4 -12.6 -8.35 -12.65 -8.35 -12.65 -8.3 -12.7 -8.3 -12.75 -8.3 -12.75 -8.3 -12.8 -8.25 -12.85 -8.25 -12.85 -8.25 -12.9 -8.2 -12.9 -8.2 -12.95 -8.15 -12.95 -8.15 -13.0 -8.1 -13.0 -8.1 -13.05 -8.05 -13.05 -8.0 -13.1 -7.95 -13.2 -7.85 -13.3 -7.7 -13.35 -7.65 -13.4 -7.55 -13.5 -7.5 -13.55 -7.4 -13.6 -7.3 -13.65 -7.2 -13.7 -7.15 -13.75 -7.05 -13.8 -6.95 -13.85 -6.85 -13.9 -6.75 -13.95 -6.65 -14.0 -6.55 -14.0 -6.45 -14.05 -6.35 -14.05 -6.25 -14.1 -6.1 -14.15 -6.1 -14.2 -6.05 -14.2 -6.05 -14.25 -6.05 -14.3 -6.05 -14.3 -6.05 -14.35 -6.05 -14.4 -6.1 -14.4 -6.1 -14.45 -6.1 -14.45 -6.15 -14.5 -6.15 -14.5 -6.2 -14.55 -6.2 -14.55 -6.2 -14.6 -6.25 -14.7 -6.35 -14.75 -6.4 -14.85 -6.45 -14.95 -6.5 -15.05 -6.55 -15.1 -6.6 -15.2 -6.65 -15.3 -6.65 -15.4 -6.7 -15.5 -6.7 -15.6 -6.7 -15.7 -6.7 -15.8 -6.7 -15.9 -6.65 -16.0 -6.6 -16.1 -6.55 -16.2 -6.5 -16.3 -6.45 -16.45 -6.4 -16.55 -6.35 -16.65 -6.3 -16.75 -6.25 -16.85 -6.2 -16.95 -6.15 -17.05 -6.1 -17.15 -6.05 -17.25 -6.0 -17.4 -5.95 -17.5 -5.85 -17.6 -5.8 -17.7 -5.75 -17.8 -5.7 -17.85 -5.65 -17.85 -5.65 -17.9 -5.6 -17.9 -5.6 -17.9 -5.55 -17.9 -5.5 -17.85 -5.5 -17.8 -5.45 -17.75 -5.4 -17.65 -5.3 -17.5 -5.15 -17.45 -5.1 -17.4 -5.05 -17.35 -5.0 -17.35 -4.95 -17.3 -4.95 -17.25 -4.9 -17.2 -4.85 -17.15 -4.8 -17.15 -4.75 -17.1 -4.7 -17.05 -4.7 -17.0 -4.65 -16.95 -4.6 -16.9 -4.55 -16.85 -4.5 -16.8 -4.5 -16.75 -4.45 -15.55 -3.45 -12.15 -1.25 -11.4 -0.75 -8.8 0.65 -8.6 0.8 -8.35 0.9 -8.15 1.0 -7.9 1.15 -7.7 1.25 -7.45 1.4 -7.25 1.5 -7.0 1.6 -6.8 1.7 -6.55 1.85 -6.3 1.95 -6.1 2.05 -5.85 2.15 -5.6 2.25 -5.4 2.35 -5.15 2.45 -4.15 2.9 -2.8 3.45 -2.75 3.45 -2.7 3.45 -2.65 3.45 -2.65 3.45 -2.6 3.45 -2.55 3.45 -2.5 3.45 -2.45 3.45 -2.4 3.45 -2.4 3.45 -2.35 3.4 -2.3 3.4 -2.3 3.4 -2.25 3.35 -2.25 3.35 -2.2 3.3 -2.15 3.2 -2.15 3.2 -2.1 3.15 -2.1 3.1 -2.05 3.05 -2.05 3.0 -2.0 2.95 -2.0 2.95 -1.95 2.85 -1.95 2.8 -1.9 2.75 -1.9 2.7 -1.85 2.65 -1.85 2.6 -1.85 2.55 -1.85 2.5 -1.8 2.15 -1.65 1.6 -1.45 0.8 -1.4 0.7 -1.1 -0.55 -0.15 -4.5 -0.1 -4.75 0.05 -5.4 0.0 -5.4 -0.05 -5.4 -0.05 -5.35 -0.1 -5.35 -1.0 -4.45 -2.8 -3.1 -2.9 -3.05 -2.95 -3.0 -3.05 -2.95 -3.1 -2.9 -3.2 -2.85 -3.25 -2.85 -3.35 -2.8 -3.4 -2.75 -3.5 -2.7 -3.55 -2.7 -3.65 -2.65 -3.75 -2.6 -3.8 -2.6 -3.9 -2.55 -4.0 -2.55 -4.1 -2.55 -4.2 -2.55 -4.25 -2.5 -4.35 -2.5 -4.4 -2.5 -4.5 -2.5 -4.55 -2.5 -4.65 -2.5 -4.7 -2.5 -4.8 -2.5 -4.85 -2.5 -4.95 -2.55 -5.0 -2.55 -5.1 -2.6 -5.15 -2.6 -5.25 -2.65 -5.3 -2.7 -5.45 -2.8 -5.6 -2.85 -5.7 -2.95 -5.85 -3.05 -5.95 -3.15 -6.05 -3.25 -6.2 -3.35 -6.3 -3.5 -6.4 -3.6 -6.5 -3.7 -6.55 -3.85 -6.65 -3.95 -6.75 -4.1 -6.8 -4.25 -6.9 -4.4 -6.95 -4.5 -7.05 -4.7 -7.1 -4.85 -7.2 -5.05 -7.25 -5.25 -7.35 -5.4 -7.4 -5.6 -7.45 -5.8 -7.5 -5.95 -7.55 -6.15 -7.6 -6.35 -7.65 -6.55 -7.65 -6.7 -7.7 -6.9 -7.75 -7.1 -7.75 -7.3 -7.8 -7.5 -7.8 -7.65 -7.8 -7.8 -7.8 -7.95 -7.8 -8.1 -7.8 -8.25 -7.8 -8.4 -7.75 -8.55 -7.75 -8.7 -7.7 -8.85 -7.65 -9.0 -7.6 -9.15 -7.55 -9.3 -7.5 -9.4 -7.45 -9.55 -7.4 -9.7 -7.3 -9.85 -7.25 -9.95 -7.2 -10.0 -7.15 -10.1 -7.1 -10.15 -7.05 -10.25 -7.0 -10.3 -6.9 -10.35 -6.85 -10.4 -6.75 -10.45 -6.7 -10.5 -6.6 -10.5 -6.5 -10.55 -6.45 -10.55 -6.35 -10.6 -6.25 -10.6 -6.1 -10.6 -5.9 -10.6 -5.7 -10.55 -5.45 -10.55 -5.25 -10.5 -5.05 -10.5 -4.85 -10.45 -4.65 -10.4 -4.4 -10.4 -4.2 -10.35 -4.0 -10.3 -3.8 -10.25 -3.6 -10.2 -3.4 -10.2 -3.15 -10.15 -3.0 -10.1 -2.75 -10.05 -2.2 -9.9 -1.35 -9.6 -0.05 -9.15 0.0 -9.15 0.05 -9.1 0.1 -9.1 0.15 -9.1 0.15 -9.1 0.2 -9.15 0.2 -9.15 0.2 -9.2 0.25 -9.25 0.25 -9.3 0.25 -9.3 0.25 -9.35 0.25 -9.4 0.25 -9.55 0.25 -9.65 0.25 -9.8 0.25 -9.95 0.25 -10.1 0.25 -10.2 0.25 -10.35 0.25 -10.5 0.2 -10.6 0.2 -10.75 0.15 -10.9 0.15 -11.0 0.1 -11.15 0.05 -11.25 0.05 -11.4 0.0 -11.55 0.0 -11.6 -0.05 -11.65 -0.05 -11.65 -0.1 -11.7 -0.15 -11.75 -0.15 -11.75 -0.2 -11.8 -0.25 -11.85 -0.25 -11.85 -0.3 -11.85 -0.35 -11.9 -0.4 -11.9 -0.45 -11.9 -0.5 -11.95 -0.55 -11.95 -0.6 -11.95 -0.7 -11.95 -0.75 -11.95 -0.85 -11.95 -0.95 -11.95 -1.0 -11.95 -1.1 -11.95 -1.15 -11.95 -1.25 -11.95 -1.35 -11.9 -1.4 -11.9 -1.5 -11.9 -1.6 -11.9 -1.65 -11.9 -1.75 -11.85 -2.6 -11.7 -1.9 -11.85 -2.05 -11.8 -2.15 -11.8 -2.3 -11.8 -2.45 -11.75 -2.6 -11.75 -2.7 -11.7 -2.85 -11.7 -3.0 -11.7 -3.1 -11.7 -3.25 -11.65 -3.4 -11.65 -3.55 -11.65 -3.65 -11.65 -3.8 -11.65 -3.95 -11.65 -4.05 -11.65 -4.25 -11.65 -4.5 -11.7 -4.7 -11.7 -4.9 -11.75 -5.1 -11.8 -5.3 -11.85 -5.5 -11.9 -5.7 -11.95 -5.9 -12.0 -6.1 -12.1 -6.3 -12.15 -6.5 -12.25 -6.7 -12.35 -6.9 -12.4 -7.05 -12.5 -7.25 -12.6 -7.25 -12.7 -7.35 -12.7 -7.45 -12.75 -7.55 -12.8 -7.65 -12.85 -7.75 -12.95 -7.2 -12.6 -7.95 -13.05 -8.05 -13.1 -8.15 -13.15 -8.25 -13.25 -8.35 -13.3 -8.45 -13.35 -8.55 -13.35 -8.65 -13.4 -8.75 -13.45 -8.9 -13.5 -9.0 -13.5 -9.1 -13.5 -9.15 -13.5 -9.2 -13.5 -9.2 -13.5 -9.25 -13.5 -9.3 -13.5 -9.3 -13.45 -9.3 -13.4 -9.3 -13.4 -9.3 -13.3 -9.3 -13.25 -9.3 -13.15 -9.25 -13.1 -9.25 -13.0 -9.25 -12.95 -9.25 -12.85 -9.25 -12.8 -9.25 -12.7 -9.25 -12.65 -9.25 -12.55 -9.25 -12.5 -9.25 -12.4 -9.25 -12.35 -9.25 -12.25 -9.3 -12.2 -9.3 -12.15 -9.35 -11.85 -9.35 -11.95 -9.35 -11.8 -9.4 -11.7 -9.4 -11.6 -9.45 -11.5 -9.45 -11.4 -9.5 -11.3 -9.55 -11.2 -9.55 -11.1 -9.6 -11.0 -9.65 -10.9 -9.7 -10.8 -9.75 -10.7 -9.8 -10.6 -9.85 -10.5 -9.9 -10.45 -9.95 -10.35 -10.0 -10.3 -10.05 -10.2 -10.05 -10.15 -10.15 -10.05 -10.2 -9.95 -10.2 -9.9 -10.3 -9.85 -10.3 -9.75 -10.35 -9.7 -10.4 -9.6 -10.45 -9.55 -10.5 -9.45 -10.55 -9.4 -10.55 -9.3 -10.6 -9.25 -10.6 -9.15 -10.65 -9.1 -10.65 -9.05 -10.65 -8.95 -10.7 -8.9 -10.7 -8.8 -10.75 -8.75 -10.75 -8.7 -10.75 -8.6 -10.75 -8.55 -10.75 -8.45 -10.8 -8.4 -10.8 -8.3 -10.8 -8.25 -10.8 -8.2 L-10.8 -8.2 M11.2 -6.5 Q11.15 -6.55 11.15 -6.55 11.1 -6.6 11.1 -6.65 11.05 -6.65 11.0 -6.7 11.0 -6.7 10.95 -6.75 10.9 -6.8 10.9 -6.8 10.85 -6.85 10.85 -6.85 10.8 -6.9 10.75 -6.9 10.75 -6.95 10.7 -6.95 10.6 -7.05 10.5 -7.1 10.4 -7.15 10.3 -7.2 10.2 -7.3 10.1 -7.35 10.0 -7.4 9.9 -7.5 9.8 -7.55 9.7 -7.6 9.6 -7.65 9.5 -7.7 9.4 -7.75 9.25 -7.8 9.15 -7.85 9.05 -7.9 8.85 -8.0 8.9 -7.95 8.8 -8.0 8.75 -8.05 8.65 -8.05 8.55 -8.1 8.5 -8.1 8.4 -8.15 8.3 -8.15 8.25 -8.2 8.15 -8.2 8.05 -8.2 8.0 -8.25 7.9 -8.25 7.8 -8.25 7.7 -8.25 7.45 -8.25 7.4 -8.25 7.35 -8.2 7.35 -8.15 7.3 -8.05 7.35 -7.85 7.4 -6.45 7.3 -5.8 7.3 -5.7 7.25 -5.6 7.25 -5.5 7.2 -5.4 7.2 -5.3 7.15 -5.2 7.1 -5.1 7.05 -5.0 7.0 -4.9 6.95 -4.8 6.9 -4.7 6.85 -4.6 6.9 -4.65 6.75 -4.45 6.7 -4.3 6.65 -4.25 6.6 -4.2 6.6 -4.15 6.55 -4.1 6.5 -4.05 6.5 -4.0 6.45 -4.0 6.4 -3.95 6.35 -3.95 6.3 -3.9 6.25 -3.9 6.25 -3.85 6.15 -3.85 6.1 -3.85 6.05 -3.85 6.0 -3.85 5.95 -3.85 5.9 -3.85 5.8 -3.85 5.75 -3.85 5.7 -3.85 5.6 -3.85 5.55 -3.85 5.5 -3.85 5.45 -3.85 5.35 -3.9 5.3 -3.9 5.25 -3.9 5.15 -3.9 5.1 -3.95 5.05 -3.95 5.0 -4.0 4.9 -4.0 4.55 -4.15 3.9 -4.45 3.75 -4.55 3.3 -4.75 3.35 -4.65 3.45 -4.35 3.55 -4.1 3.55 -4.0 4.0 -2.45 4.05 -2.15 4.25 -1.0 4.3 -0.6 4.3 -0.55 4.3 -0.5 4.3 -0.5 4.3 -0.45 4.3 -0.4 4.3 -0.35 4.3 -0.35 4.3 -0.3 4.3 -0.25 4.35 -0.2 4.35 -0.2 4.35 -0.15 4.35 -0.1 4.35 -0.1 4.35 -0.05 4.4 0.0 4.4 0.05 4.45 0.1 4.45 0.15 4.45 0.25 4.5 0.3 4.5 0.35 4.55 0.4 4.6 0.45 4.6 0.5 4.65 0.55 4.65 0.6 4.7 0.65 4.65 0.6 4.8 0.75 4.8 0.8 4.85 0.85 5.1 1.25 5.7 2.05 6.25 2.85 6.5 3.3 6.55 3.35 6.55 3.4 6.6 3.45 6.65 3.5 6.65 3.5 6.7 3.55 6.7 3.55 6.75 3.55 6.8 3.55 6.8 3.55 6.85 3.5 6.85 3.5 6.9 3.45 6.95 3.45 7.0 3.4 7.05 3.35 7.05 3.35 7.05 3.3 7.1 3.2 7.15 3.15 7.2 3.1 7.25 3.0 7.35 2.95 7.4 2.85 7.45 2.8 7.5 2.7 7.55 2.65 7.6 2.55 7.65 2.5 7.7 2.4 7.75 2.3 7.75 2.25 7.8 2.15 7.85 2.1 7.95 1.9 8.05 1.65 8.15 1.45 8.25 1.2 8.35 1.0 8.45 0.8 8.55 0.55 8.65 0.35 8.75 0.1 8.8 -0.1 8.9 -0.35 9.0 -0.55 9.05 -0.8 9.15 -1.0 9.25 -1.25 9.3 -1.45 9.35 -1.65 9.45 -1.85 9.5 -2.05 9.55 -2.25 9.6 -2.45 9.65 -2.65 9.7 -2.85 9.75 -3.1 9.8 -3.3 9.85 -3.5 9.9 -3.7 9.95 -3.9 10.0 -4.1 10.05 -4.3 10.1 -4.5 10.15 -4.7 10.15 -4.85 10.2 -4.95 10.25 -5.1 10.3 -5.25 10.3 -5.35 10.35 -5.5 10.4 -5.6 10.5 -5.7 10.55 -5.85 10.6 -5.95 10.7 -6.05 10.8 -6.15 10.9 -6.25 11.0 -6.35 11.1 -6.45 11.2 -6.5 L11.2 -6.5 M6.35 -10.25 Q6.35 -10.9 6.55 -12.0 6.6 -12.2 6.6 -12.3 6.6 -12.4 6.5 -12.4 6.4 -12.4 6.2 -12.35 5.9 -12.25 4.95 -12.1 4.85 -12.1 4.7 -12.1 4.6 -12.05 4.45 -12.05 4.35 -12.05 4.2 -12.05 4.1 -12.05 3.95 -12.05 3.85 -12.05 3.7 -12.05 3.6 -12.05 3.45 -12.05 3.35 -12.05 3.2 -12.1 3.1 -12.1 3.0 -12.1 2.4 -12.15 2.35 -12.1 2.3 -12.05 2.25 -12.05 2.15 -12.0 2.1 -11.95 2.05 -11.9 2.0 -11.85 1.95 -11.8 1.9 -11.75 1.9 -11.7 1.85 -11.65 1.8 -11.6 1.75 -11.55 1.7 -11.5 1.7 -11.4 1.65 -11.35 1.6 -11.3 1.55 -11.2 1.5 -11.1 1.45 -11.0 1.4 -10.85 1.4 -10.75 1.35 -10.65 1.3 -10.55 1.3 -10.4 1.3 -10.3 1.25 -10.2 1.25 -10.1 1.25 -9.95 1.25 -9.85 1.25 -9.7 1.2 -9.6 1.2 -9.5 1.2 -9.45 1.2 -9.4 1.2 -9.35 1.2 -9.3 1.2 -9.25 1.25 -9.2 1.25 -9.2 1.3 -9.15 1.35 -9.15 1.4 -9.1 1.45 -9.1 1.5 -9.1 1.5 -9.1 1.55 -9.15 1.6 -9.15 1.65 -9.15 1.7 -9.2 1.7 -9.2 1.9 -9.35 2.3 -9.65 2.7 -9.95 2.9 -10.1 3.0 -10.15 3.05 -10.2 3.15 -10.25 3.25 -10.3 3.35 -10.35 3.45 -10.4 3.55 -10.45 3.65 -10.5 3.7 -10.5 3.85 -10.55 3.9 -10.6 4.0 -10.6 4.1 -10.65 4.25 -10.65 4.35 -10.7 4.45 -10.7 4.55 -10.7 4.6 -10.75 4.7 -10.75 4.75 -10.75 4.85 -10.75 4.95 -10.8 5.0 -10.8 5.1 -10.75 5.2 -10.75 5.25 -10.75 5.35 -10.75 5.4 -10.7 5.5 -10.7 5.6 -10.65 5.65 -10.65 5.75 -10.6 6.3 -10.3 6.35 -10.25 L6.35 -10.25 M-1.0 -7.15 Q-1.15 -7.2 -1.2 -7.25 -1.9 -7.5 -3.15 -7.75 -3.25 -7.75 -3.35 -7.8 -3.45 -7.8 -3.55 -7.8 -3.6 -7.8 -3.7 -7.85 -3.8 -7.85 -3.9 -7.85 -4.0 -7.85 -4.1 -7.8 -4.2 -7.8 -4.25 -7.8 -4.35 -7.8 -4.45 -7.75 -4.55 -7.75 -4.65 -7.75 -4.7 -7.75 -4.75 -7.7 -4.75 -7.7 -4.8 -7.7 -4.85 -7.65 -4.85 -7.65 -4.9 -7.65 -4.9 -7.6 -4.95 -7.55 -4.95 -7.55 -4.95 -7.5 -5.0 -7.5 -5.0 -7.45 -5.0 -7.4 -5.0 -7.35 -5.0 -7.35 -5.0 -7.3 -5.0 -7.2 -5.05 -7.15 -5.05 -7.1 -5.05 -7.05 -5.05 -6.95 -5.05 -6.9 -5.05 -6.85 -5.05 -6.8 -5.05 -6.7 -5.05 -6.65 -5.0 -6.6 -5.0 -6.55 -5.0 -6.5 -5.0 -6.4 -4.95 -6.35 -4.9 -6.2 -4.9 -6.1 -4.85 -6.0 -4.8 -5.95 -4.75 -5.85 -4.7 -5.8 -4.65 -5.75 -4.6 -5.7 -4.5 -5.65 -4.45 -5.65 -4.35 -5.65 -4.25 -5.65 -4.2 -5.65 -4.05 -5.65 -3.95 -5.7 -3.85 -5.75 -3.8 -5.75 -3.75 -5.75 -3.75 -5.75 -3.7 -5.8 -2.85 -6.2 -1.0 -7.15 L-1.0 -7.15 M5.25 -6.85 Q5.25 -6.95 5.25 -7.05 5.25 -7.1 5.25 -7.2 5.25 -7.3 5.2 -7.4 5.2 -7.5 5.2 -7.6 5.15 -7.7 5.15 -7.8 5.15 -7.9 5.1 -8.0 5.1 -8.1 5.05 -8.2 5.05 -8.3 5.0 -8.4 5.0 -8.45 4.95 -8.5 4.95 -8.5 4.95 -8.55 4.9 -8.55 4.9 -8.6 4.9 -8.6 4.85 -8.6 4.85 -8.65 4.8 -8.65 4.75 -8.65 4.75 -8.65 4.7 -8.65 4.65 -8.65 4.6 -8.65 4.55 -8.65 4.4 -8.6 4.3 -8.6 4.2 -8.55 4.05 -8.5 3.95 -8.5 3.8 -8.45 3.7 -8.4 3.6 -8.35 3.45 -8.3 3.35 -8.25 3.25 -8.15 3.15 -8.1 3.0 -8.05 2.9 -7.95 2.8 -7.9 2.7 -7.8 2.65 -7.75 2.6 -7.75 2.6 -7.7 2.6 -7.65 2.6 -7.65 2.6 -7.6 2.65 -7.6 2.7 -7.55 3.7 -6.75 4.4 -6.3 4.9 -6.05 4.9 -6.05 4.95 -6.0 5.0 -6.0 5.05 -6.0 5.1 -6.0 5.15 -6.0 5.15 -6.05 5.2 -6.05 5.2 -6.1 5.25 -6.15 5.25 -6.25 5.25 -6.45 5.25 -6.85 L5.25 -6.85 M2.5 -6.6 Q2.55 -6.55 2.55 -6.5 2.6 -6.45 2.65 -6.4 2.7 -6.35 2.75 -6.3 2.75 -6.3 2.8 -6.25 2.85 -6.2 2.9 -6.15 2.95 -6.15 3.0 -6.1 3.0 -6.05 3.05 -6.0 3.1 -5.95 3.15 -5.95 3.3 -5.85 3.4 -5.75 3.55 -5.65 3.7 -5.55 3.85 -5.45 4.0 -5.35 4.15 -5.25 4.3 -5.2 4.45 -5.1 4.6 -5.05 4.75 -5.0 4.9 -4.95 5.1 -4.85 5.25 -4.85 5.4 -4.8 5.6 -4.75 5.65 -4.75 5.7 -4.75 5.75 -4.75 5.75 -4.75 5.8 -4.75 5.85 -4.75 5.85 -4.75 5.9 -4.75 5.9 -4.75 5.95 -4.8 5.95 -4.8 6.0 -4.85 6.0 -4.85 6.05 -4.9 6.05 -4.95 6.1 -5.0 6.1 -5.05 6.15 -5.15 6.2 -5.25 6.2 -5.3 6.25 -5.4 6.25 -5.45 6.3 -5.55 6.3 -5.65 6.35 -5.75 6.35 -5.85 6.4 -5.9 6.4 -6.0 6.4 -6.1 6.45 -6.2 6.45 -6.3 6.45 -6.4 6.5 -6.45 6.5 -6.55 6.5 -6.65 6.5 -6.75 6.5 -6.95 6.55 -7.15 6.55 -7.35 6.5 -7.5 6.5 -7.7 6.45 -7.9 6.45 -8.05 6.4 -8.25 6.35 -8.4 6.3 -8.6 6.2 -8.75 6.15 -8.9 6.05 -9.1 5.95 -9.25 5.85 -9.4 5.75 -9.55 5.75 -9.6 5.7 -9.6 5.7 -9.65 5.65 -9.65 5.65 -9.7 5.65 -9.7 5.6 -9.75 5.6 -9.75 5.55 -9.8 5.55 -9.8 5.5 -9.85 5.45 -9.85 5.45 -9.85 5.4 -9.85 5.35 -9.85 5.35 -9.9 5.3 -9.9 5.2 -9.9 5.15 -9.9 5.05 -9.9 5.0 -9.9 4.9 -9.85 4.85 -9.85 4.8 -9.85 4.7 -9.8 4.65 -9.8 4.6 -9.8 4.5 -9.75 4.45 -9.75 4.4 -9.7 4.3 -9.7 4.25 -9.65 4.3 -9.65 4.35 -9.65 4.4 -9.65 4.45 -9.65 4.5 -9.65 4.55 -9.65 4.6 -9.65 4.65 -9.65 4.7 -9.65 4.75 -9.65 4.8 -9.65 4.85 -9.65 4.9 -9.65 4.9 -9.65 4.95 -9.65 5.0 -9.65 5.05 -9.65 5.05 -9.65 5.1 -9.65 5.15 -9.65 5.15 -9.6 5.2 -9.6 5.25 -9.6 5.25 -9.6 5.3 -9.6 5.3 -9.55 5.35 -9.55 5.35 -9.55 5.4 -9.5 5.4 -9.5 5.45 -9.5 5.45 -9.45 5.45 -9.4 5.5 -9.4 5.5 -9.35 5.55 -9.3 5.55 -9.3 5.6 -9.25 5.6 -9.2 5.6 -9.2 5.65 -9.15 5.65 -9.1 5.65 -9.05 5.7 -9.05 5.7 -9.0 5.7 -8.95 5.75 -8.9 5.75 -8.9 5.8 -8.8 5.8 -8.65 5.85 -8.55 5.85 -8.4 5.9 -8.3 5.9 -8.15 5.95 -8.05 5.95 -7.9 6.0 -7.75 6.0 -7.65 6.0 -7.5 6.0 -7.4 6.05 -7.25 6.05 -7.15 6.05 -7.0 6.05 -6.9 6.05 -6.8 6.05 -6.75 6.05 -6.65 6.05 -6.55 6.05 -6.5 6.05 -6.4 6.05 -6.3 6.05 -6.25 6.05 -6.15 6.0 -6.05 6.0 -6.0 5.95 -5.9 5.95 -5.85 5.9 -5.75 5.9 -5.65 5.85 -5.6 5.8 -5.5 5.8 -5.45 5.75 -5.4 5.7 -5.35 5.65 -5.3 5.65 -5.25 5.6 -5.2 5.55 -5.2 5.5 -5.15 5.45 -5.15 5.4 -5.15 5.35 -5.15 5.3 -5.15 5.2 -5.15 5.15 -5.15 5.05 -5.15 5.0 -5.15 4.75 -5.25 4.6 -5.3 4.5 -5.35 4.35 -5.4 4.25 -5.5 4.1 -5.55 4.0 -5.6 3.85 -5.7 3.75 -5.75 3.65 -5.85 3.5 -5.9 3.4 -6.0 3.3 -6.05 3.15 -6.15 3.05 -6.25 2.95 -6.3 2.85 -6.4 2.85 -6.4 2.75 -6.5 2.7 -6.55 2.65 -6.55 2.6 -6.6 2.5 -6.6 L2.5 -6.6 M0.45 -3.2 Q0.45 -3.2 0.4 -3.2 0.4 -3.15 0.35 -3.0 0.25 -2.5 -0.05 -1.4 -0.3 -0.35 -0.4 0.2 -0.85 2.1 -1.05 3.25 -1.05 3.4 -1.05 3.45 -1.05 3.5 -0.95 3.55 -0.9 3.55 -0.75 3.55 -0.7 3.55 -0.7 3.55 -0.65 3.55 -0.6 3.6 -0.55 3.6 -0.5 3.6 -0.45 3.6 -0.45 3.6 -0.4 3.6 -0.35 3.6 -0.35 3.6 -0.3 3.6 -0.3 3.55 -0.3 3.5 -0.3 3.5 -0.3 3.4 -0.3 3.35 -0.3 3.3 -0.3 3.2 -0.25 3.15 -0.25 2.9 -0.2 2.7 -0.2 2.45 -0.15 2.2 -0.15 1.95 -0.1 1.75 -0.1 1.5 -0.05 1.25 -0.05 1.0 0.0 0.8 0.0 0.55 0.05 0.3 0.05 0.05 0.1 -0.15 0.15 -0.4 0.15 -0.65 0.4 -2.45 0.45 -2.6 0.45 -2.6 0.45 -3.2 L0.45 -3.2 M1.8 -5.4 Q1.9 -5.1 1.9 -5.1 2.0 -4.9 2.5 -3.25 2.55 -3.15 2.55 -3.05 2.6 -2.95 2.6 -2.85 2.65 -2.75 2.7 -2.6 2.7 -2.5 2.7 -2.4 2.75 -2.3 2.75 -2.2 2.8 -2.1 2.8 -2.0 2.8 -1.9 2.85 -1.75 2.85 -1.65 2.9 -1.55 2.95 -1.05 3.15 0.9 3.2 1.55 3.2 1.8 3.2 1.75 3.2 1.85 3.2 1.9 3.2 1.95 3.25 2.0 3.25 2.0 3.25 2.05 3.3 2.05 3.35 2.05 3.4 2.05 3.45 2.05 3.5 2.0 3.5 2.0 3.55 1.95 3.6 1.95 3.6 1.9 3.65 1.9 3.65 1.85 3.65 1.8 3.7 1.8 3.7 1.75 3.7 1.7 3.7 1.65 3.7 1.6 3.7 1.6 3.7 1.55 3.5 -0.3 3.3 -1.45 3.3 -1.6 3.25 -1.75 3.25 -1.9 3.2 -2.05 3.15 -2.2 3.15 -2.35 3.1 -2.5 3.05 -2.65 3.05 -2.8 3.0 -2.95 2.95 -3.1 2.9 -3.25 2.9 -3.4 2.85 -3.55 2.8 -3.65 2.75 -3.8 2.7 -3.9 2.7 -4.0 2.65 -4.1 2.6 -4.2 2.55 -4.35 2.5 -4.45 2.45 -4.55 2.4 -4.65 2.35 -4.75 2.25 -4.8 2.2 -4.9 2.15 -5.0 2.05 -5.1 2.0 -5.2 1.9 -5.3 1.8 -5.4 L1.8 -5.4 M1.6 -7.6 Q1.6 -7.65 1.6 -7.75 1.55 -7.8 1.55 -7.85 1.55 -7.9 1.5 -7.95 1.5 -7.95 1.5 -8.0 1.45 -8.05 1.4 -8.05 1.4 -8.1 1.35 -8.1 1.3 -8.1 1.3 -8.15 1.25 -8.15 1.2 -8.15 1.1 -8.15 1.05 -8.15 1.0 -8.15 0.95 -8.15 0.95 -8.1 0.9 -8.05 0.9 -8.05 0.9 -8.0 0.9 -7.9 0.95 -7.85 0.95 -7.75 1.0 -7.6 1.05 -7.4 1.05 -7.3 1.1 -7.2 1.1 -7.2 1.1 -7.15 1.15 -7.15 1.15 -7.1 1.25 -7.1 1.3 -7.1 1.3 -7.1 1.35 -7.1 1.4 -7.15 1.45 -7.15 1.45 -7.15 1.5 -7.2 1.5 -7.25 1.5 -7.25 1.6 -7.6 L1.6 -7.6" fill="#060606" fill-rule="evenodd" stroke="none"/>
    <path d="M-7.25 -12.6 Q-7.4 -12.6 -7.7 -12.65 -8.0 -12.7 -8.15 -12.75 -8.25 -12.75 -8.35 -12.75 -8.45 -12.75 -8.55 -12.75 -8.6 -12.7 -8.7 -12.7 -8.75 -12.65 -8.8 -12.6 -8.85 -12.55 -8.9 -12.5 -8.95 -12.45 -8.95 -12.4 -9.0 -12.3 -9.0 -12.2 -9.0 -12.1 -9.0 -12.0 -9.0 -11.85 -9.0 -11.65 -9.05 -11.5 -9.05 -11.35 -9.05 -11.2 -9.1 -11.05 -9.15 -10.9 -9.15 -10.7 -9.2 -10.55 -9.25 -10.4 -9.3 -10.25 -9.35 -10.1 -9.4 -9.95 -9.45 -9.8 -9.55 -9.65 -9.6 -9.5 -9.65 -9.45 -9.65 -9.4 -9.7 -9.35 -9.7 -9.35 -9.75 -9.3 -9.75 -9.25 -9.8 -9.2 -9.8 -9.2 -9.85 -9.15 -9.9 -9.1 -9.9 -9.05 -9.95 -9.05 -10.0 -9.0 -10.0 -8.95 -10.05 -8.95 -10.1 -8.9 -10.15 -8.9 -10.2 -8.85 -10.2 -8.8 -10.25 -8.8 -10.3 -8.75 -10.3 -8.7 -10.35 -8.7 -10.35 -8.65 -10.4 -8.6 -10.4 -8.55 -10.4 -8.5 -10.45 -8.5 -10.45 -8.45 -10.5 -8.45 -10.5 -8.4 -10.5 -8.4 -10.55 -8.35 -10.55 -8.35 -10.6 -8.3 -10.6 -8.3 -10.65 -8.25 -10.65 -8.25 -10.7 -8.25 -10.75 -8.2 -10.75 -8.2 -10.8 -8.2 -10.8 -8.25 -10.8 -8.35 -10.8 -8.4 -10.8 -8.5 -10.75 -8.55 -10.75 -8.6 -10.75 -8.7 -10.75 -8.75 -10.7 -8.8 -10.7 -8.9 -10.65 -8.95 -10.65 -9.05 -10.65 -9.1 -10.6 -9.15 -10.6 -9.25 -10.55 -9.3 -10.5 -9.4 -10.5 -9.45 -10.45 -9.55 -10.4 -9.6 -10.35 -9.7 -10.3 -9.75 -10.25 -9.85 -10.2 -9.9 -10.2 -9.95 -10.1 -10.05 -10.05 -10.15 -10.0 -10.2 -9.95 -10.3 -9.9 -10.35 -9.85 -10.45 -9.85 -10.5 -9.8 -10.6 -9.75 -10.7 -9.7 -10.8 -9.65 -10.9 -9.6 -11.0 -9.55 -11.1 -9.55 -11.2 -9.5 -11.3 -9.45 -11.4 -9.45 -11.5 -9.4 -11.6 -9.4 -11.7 -9.35 -11.8 -9.35 -11.9 -9.1 -13.0 -9.3 -12.15 -9.3 -12.2 -9.25 -12.3 -9.25 -12.35 -9.25 -12.45 -9.25 -12.5 -9.25 -12.6 -9.25 -12.65 -9.25 -12.7 -9.25 -12.8 -9.25 -12.85 -9.25 -12.95 -9.25 -13.0 -9.25 -13.1 -9.3 -13.15 -9.3 -13.25 -9.3 -13.3 -9.3 -13.35 -9.3 -13.4 -9.3 -13.45 -9.3 -13.45 -9.25 -13.5 -9.2 -13.5 -9.2 -13.5 -9.15 -13.5 -9.1 -13.5 -9.0 -13.5 -8.9 -13.5 -8.75 -13.45 -8.65 -13.4 -8.55 -13.35 -8.45 -13.35 -8.35 -13.3 -8.25 -13.25 -8.15 -13.15 -8.05 -13.1 -7.95 -13.05 -7.75 -12.95 -7.75 -12.95 -7.65 -12.85 -7.55 -12.8 -7.45 -12.75 -7.35 -12.7 -7.25 -12.7 -7.25 -12.6 L-7.25 -12.6" fill="#000000" fill-opacity="0.38039216" fill-rule="evenodd" stroke="none"/>
    <path d="M-14.1 -6.1 Q-13.6 -4.8 -13.5 -4.65 -13.55 -4.65 -13.6 -4.65 -13.65 -4.7 -13.7 -4.7 -13.75 -4.7 -13.8 -4.75 -13.85 -4.75 -13.9 -4.8 -13.9 -4.8 -13.95 -4.85 -14.0 -4.85 -14.05 -4.85 -14.05 -4.9 -14.1 -4.9 -14.15 -4.95 -14.2 -4.95 -14.9 -5.5 -15.0 -5.65 -15.0 -5.7 -15.05 -5.7 -15.05 -5.75 -15.1 -5.75 -15.1 -5.75 -15.15 -5.8 -15.2 -5.8 -15.2 -5.8 -15.25 -5.8 -15.25 -5.85 -15.3 -5.85 -15.35 -5.85 -15.35 -5.85 -15.4 -5.85 -15.4 -5.85 -15.45 -5.85 -15.55 -5.85 -15.65 -5.85 -15.75 -5.85 -15.85 -5.85 -15.95 -5.85 -16.05 -5.85 -16.15 -5.8 -16.25 -5.8 -16.35 -5.8 -16.4 -5.75 -16.5 -5.7 -16.6 -5.7 -16.7 -5.65 -16.8 -5.6 -16.85 -5.55 -16.95 -5.45 -17.0 -5.45 -17.0 -5.4 -17.05 -5.4 -17.05 -5.35 -17.1 -5.35 -17.15 -5.3 -17.15 -5.3 -17.2 -5.25 -17.2 -5.25 -17.25 -5.2 -17.3 -5.2 -17.3 -5.15 -17.35 -5.15 -17.4 -5.15 -17.4 -5.1 -17.45 -5.1 -17.7 -5.35 -17.8 -5.45 -17.85 -5.5 -17.85 -5.5 -17.9 -5.55 -17.9 -5.6 -17.9 -5.6 -17.85 -5.65 -17.85 -5.65 -17.8 -5.7 -17.2 -6.05 -16.1 -6.55 -16.0 -6.6 -15.9 -6.65 -15.8 -6.65 -15.7 -6.7 -15.6 -6.7 -15.5 -6.7 -15.4 -6.7 -15.3 -6.65 -15.2 -6.65 -15.1 -6.6 -15.05 -6.55 -14.95 -6.5 -14.85 -6.45 -14.8 -6.4 -14.7 -6.35 -14.6 -6.25 -14.55 -6.2 -14.55 -6.2 -14.5 -6.2 -14.5 -6.15 -14.45 -6.15 -14.45 -6.1 -14.4 -6.1 -14.35 -6.1 -14.35 -6.05 -14.3 -6.05 -14.25 -6.05 -14.25 -6.05 -14.2 -6.05 -14.15 -6.1 -14.1 -6.1 -14.1 -6.1 L-14.1 -6.1" fill="#000000" fill-opacity="0.38039216" fill-rule="evenodd" stroke="none"/>
    <path d="M-10.8 -7.55 Q-10.8 -7.5 -10.8 -7.45 -10.8 -7.35 -10.8 -7.3 -10.8 -7.25 -10.8 -7.2 -10.8 -7.15 -10.75 -7.05 -10.75 -7.0 -10.75 -6.95 -10.75 -6.9 -10.75 -6.85 -10.7 -6.8 -10.7 -6.7 -10.7 -6.65 -10.7 -6.6 -10.85 -6.75 -11.1 -7.05 -11.4 -7.35 -11.5 -7.5 -11.6 -7.6 -11.65 -7.65 -11.75 -7.75 -11.85 -7.8 -11.9 -7.85 -12.0 -7.9 -12.1 -7.95 -12.2 -8.0 -12.3 -8.0 -12.4 -8.05 -12.5 -8.05 -12.6 -8.05 -12.7 -8.05 -12.85 -8.05 -12.95 -8.05 -13.05 -8.0 -13.05 -8.05 -13.0 -8.05 -13.0 -8.1 -12.95 -8.15 -12.95 -8.15 -12.9 -8.2 -12.9 -8.2 -12.85 -8.25 -12.85 -8.25 -12.8 -8.25 -12.75 -8.3 -12.75 -8.3 -12.7 -8.3 -12.65 -8.35 -12.65 -8.35 -12.6 -8.35 -12.55 -8.4 -12.5 -8.4 -12.45 -8.45 -12.4 -8.45 -12.35 -8.5 -12.3 -8.5 -12.25 -8.5 -12.2 -8.55 -12.15 -8.55 -12.1 -8.55 -12.05 -8.55 -12.0 -8.55 -11.95 -8.55 -11.85 -8.55 -11.8 -8.55 -11.75 -8.55 -11.7 -8.55 -11.65 -8.55 -11.65 -8.55 -11.6 -8.55 -11.55 -8.5 -11.55 -8.5 -11.5 -8.45 -11.5 -8.45 -11.5 -8.4 -11.45 -8.35 -11.45 -8.3 -11.4 -8.2 -11.4 -8.15 -11.35 -8.1 -11.35 -8.05 -11.3 -8.0 -11.25 -7.9 -11.25 -7.85 -11.2 -7.8 -11.15 -7.75 -11.1 -7.75 -11.05 -7.7 -11.0 -7.65 -10.95 -7.6 -10.9 -7.55 -10.8 -7.55 L-10.8 -7.55" fill="#000000" fill-opacity="0.38039216" fill-rule="evenodd" stroke="none"/>
  </g>
</svg>
