<?xml version="1.0" encoding="UTF-8" standalone="no"?>
<svg xmlns:xlink="http://www.w3.org/1999/xlink" height="10.65px" width="23.0px" xmlns="http://www.w3.org/2000/svg">
  <g transform="matrix(1.0, 0.0, 0.0, 1.0, 11.5, 5.35)">
    <path d="M13.75 -0.05 L13.75 0.3 Q13.75 0.35 13.7 0.4 13.7 0.45 13.65 0.45 13.65 0.5 13.6 0.55 L13.35 0.8 Q13.3 0.85 13.25 0.9 13.2 0.9 13.2 0.9 L12.85 1.2 Q12.8 1.3 12.75 1.4 12.7 1.5 12.7 1.55 12.65 1.55 12.65 1.6 12.6 1.65 12.6 1.65 12.55 1.7 12.55 1.75 12.5 1.8 12.5 1.85 12.5 1.9 12.5 1.9 12.5 1.95 12.45 2.0 12.45 2.05 12.45 2.1 12.45 2.15 12.4 2.2 12.4 2.25 12.4 2.25 12.4 2.3 12.4 2.35 12.35 2.4 12.35 2.45 12.35 2.5 12.35 2.5 12.35 2.55 12.35 2.6 12.35 2.65 12.35 2.7 12.35 2.7 12.3 2.75 12.25 3.1 12.25 3.2 12.25 3.25 12.25 3.25 12.25 3.3 12.25 3.35 12.25 3.35 12.25 3.4 12.25 3.4 12.25 3.45 12.25 3.5 12.2 3.5 12.2 3.55 12.2 3.6 12.2 3.6 12.2 3.65 12.2 3.65 12.2 3.7 12.15 3.9 12.05 4.25 12.05 4.3 12.05 4.3 12.05 4.35 12.05 4.4 12.05 4.45 12.05 4.45 12.05 4.5 12.05 4.55 12.05 4.55 12.05 4.6 12.0 4.6 12.0 4.65 12.0 4.65 12.0 4.7 12.0 4.7 12.0 4.75 12.0 4.75 11.95 4.8 11.95 4.85 11.9 4.9 11.9 4.95 11.85 5.0 L11.75 5.25 Q11.75 5.25 11.75 5.3 11.7 5.35 11.7 5.4 11.65 5.45 11.6 5.5 11.6 5.55 11.6 5.6 11.55 5.65 11.55 5.7 11.55 5.7 11.55 5.75 11.5 5.8 11.5 5.8 11.45 5.85 11.45 5.9 11.45 5.9 11.4 5.95 11.4 6.0 11.35 6.05 11.35 6.1 11.35 6.1 11.3 6.15 11.3 6.2 11.3 6.25 11.25 6.25 11.25 6.3 11.25 6.35 11.25 6.4 11.2 6.4 11.2 6.45 11.2 6.5 11.15 6.5 11.15 6.55 11.15 6.6 11.1 6.6 11.1 6.65 11.1 6.7 11.1 6.7 11.05 6.75 11.0 6.85 10.95 7.15 10.85 7.4 10.8 7.55 L10.8 7.7 Q10.8 7.7 10.75 7.75 10.75 7.8 10.75 7.85 L10.65 8.1 Q10.65 8.15 10.6 8.2 10.6 8.2 10.55 8.25 10.55 8.3 10.55 8.35 10.5 8.4 10.5 8.45 L10.4 8.8 Q10.35 8.85 10.35 8.9 10.3 8.9 10.3 8.95 10.25 9.0 10.25 9.05 10.25 9.05 10.2 9.1 10.2 9.15 10.2 9.15 10.2 9.2 10.15 9.2 10.15 9.25 10.15 9.3 10.1 9.3 10.1 9.35 10.1 9.4 10.05 9.4 10.05 9.45 10.05 9.45 10.0 9.5 10.0 9.5 10.0 9.55 9.95 9.55 9.95 9.6 9.95 9.6 9.8 9.9 9.7 10.05 9.7 10.1 9.65 10.1 9.65 10.15 9.65 10.2 9.65 10.2 9.65 10.25 L9.4 10.5 Q9.35 10.55 9.3 10.6 9.25 10.65 9.25 10.65 9.2 10.7 9.2 10.75 9.15 10.75 9.1 10.8 9.1 10.8 9.05 10.8 9.05 10.85 9.0 10.85 8.95 10.9 8.95 10.9 8.9 10.9 8.9 10.9 L8.65 10.9 Q8.55 10.85 8.5 10.85 8.5 10.8 8.45 10.8 8.45 10.8 8.4 10.75 8.35 10.7 8.35 10.7 8.3 10.65 8.3 10.6 8.25 10.6 8.25 10.55 8.2 10.55 8.2 10.5 8.15 10.45 8.15 10.45 8.1 10.4 8.05 10.4 8.05 10.35 8.0 10.35 8.0 10.3 7.95 10.3 7.95 10.3 7.9 10.25 7.9 10.25 7.85 10.2 7.85 10.15 7.8 10.15 7.8 10.1 7.75 10.1 7.75 10.05 7.7 10.05 7.7 10.0 7.65 10.0 7.65 9.95 7.6 9.9 7.6 9.9 7.55 9.85 L7.35 9.5 Q7.3 9.45 7.3 9.45 7.25 9.4 7.25 9.4 7.2 9.35 7.2 9.3 7.15 9.3 7.15 9.25 7.1 9.2 7.1 9.15 7.05 9.1 7.0 9.05 6.9 8.95 6.9 8.95 6.85 8.9 6.85 8.85 6.85 8.8 6.8 8.8 6.8 8.75 6.75 8.75 6.75 8.7 6.75 8.7 6.75 8.65 6.7 8.6 6.7 8.6 6.7 8.55 L6.6 8.3 Q6.55 8.15 6.5 8.05 L6.4 7.8 Q6.4 7.75 6.35 7.7 6.35 7.7 6.35 7.65 6.35 7.6 6.35 7.55 L6.2 7.3 Q6.2 7.25 6.2 7.25 6.15 7.2 6.15 7.15 6.15 7.15 6.15 7.1 6.15 7.05 6.15 7.0 L6.0 6.75 Q6.0 6.7 6.0 6.65 6.0 6.6 6.0 6.6 6.0 6.55 6.0 6.5 5.95 6.45 5.95 6.45 5.8 6.05 5.75 5.75 5.75 5.7 5.75 5.7 5.75 5.65 5.75 5.6 5.75 5.6 5.7 5.55 5.7 5.55 5.7 5.5 5.7 5.45 5.7 5.45 5.7 5.4 5.7 5.35 5.7 5.35 5.65 5.3 5.65 5.3 5.65 5.25 5.65 5.25 5.65 5.25 5.65 5.25 5.65 5.25 5.65 5.25 5.65 5.15 5.65 5.1 5.65 5.05 5.65 5.0 5.65 5.0 5.65 4.95 5.6 4.9 5.6 4.85 5.6 4.8 5.6 4.8 5.6 4.75 5.55 4.6 5.5 4.2 5.45 3.9 5.45 3.85 5.45 3.8 5.45 3.75 5.45 3.75 5.4 3.7 5.4 3.65 5.4 3.65 5.4 3.6 5.4 3.55 5.4 3.55 5.35 3.5 5.35 3.5 5.35 3.45 5.35 3.4 5.35 3.4 5.3 3.35 5.3 3.35 5.3 3.3 5.3 3.25 5.3 3.25 5.3 3.2 5.25 3.15 5.25 3.1 5.25 3.1 5.25 3.05 5.2 3.0 5.2 2.95 5.2 2.9 5.2 2.9 5.2 2.85 5.15 2.85 5.15 2.8 5.15 2.75 5.15 2.75 5.15 2.7 5.1 2.7 5.1 2.65 5.1 2.6 5.1 2.6 5.05 2.55 5.05 2.5 5.05 2.5 5.0 2.45 5.0 2.4 4.9 2.3 4.85 2.2 4.85 2.15 4.85 2.1 4.75 2.0 4.75 1.9 4.7 1.85 4.7 1.8 4.65 1.8 4.65 1.75 4.65 1.7 4.6 1.7 4.6 1.65 4.55 1.6 4.5 1.6 L4.4 1.35 Q4.4 1.35 4.4 1.35 4.4 1.3 4.35 1.25 4.35 1.25 4.3 1.2 4.3 1.15 4.25 1.15 4.25 1.1 4.25 1.1 4.25 1.05 4.2 1.05 L4.2 0.9 Q4.2 0.85 4.2 0.85 4.25 0.85 5.6 1.65 5.8 1.8 5.9 1.9 5.95 1.9 6.0 1.95 6.05 1.95 6.05 1.95 6.1 2.0 6.15 2.0 6.15 2.0 6.2 2.0 6.35 2.15 6.4 2.15 L6.65 2.25 Q6.75 2.35 6.75 2.35 L6.95 2.35 Q7.0 2.35 7.0 2.4 7.05 2.4 7.1 2.4 L7.8 2.4 Q7.9 2.4 7.95 2.35 8.0 2.35 8.0 2.3 8.05 2.3 8.05 2.25 8.15 2.3 8.2 2.2 L8.45 1.95 Q8.5 1.9 8.5 1.85 8.55 1.8 8.55 1.75 8.55 1.7 8.55 1.65 8.6 1.65 8.6 1.6 8.6 1.6 8.65 1.55 8.65 1.5 8.65 1.45 8.65 1.45 8.65 1.4 8.7 1.4 8.7 1.35 8.7 1.3 8.7 1.3 L8.7 1.1 Q8.7 1.1 8.7 1.05 8.75 1.05 8.75 1.0 8.75 0.95 8.75 0.95 8.75 0.9 8.75 0.85 8.75 0.8 8.75 0.8 L8.75 -0.2 Q8.75 -0.25 8.75 -0.3 8.75 -0.3 8.75 -0.35 8.75 -0.4 8.75 -0.45 8.75 -0.45 8.7 -0.5 8.7 -0.55 8.7 -0.6 8.7 -0.65 8.7 -0.65 8.7 -0.7 8.7 -0.7 8.7 -0.75 8.7 -0.8 8.7 -0.8 8.7 -0.85 8.7 -0.85 8.65 -0.9 8.65 -0.95 8.65 -0.95 8.65 -1.0 8.65 -1.0 8.65 -1.05 8.65 -1.1 8.6 -1.45 8.55 -1.65 L8.45 -2.0 Q8.45 -2.05 8.45 -2.1 8.45 -2.1 8.45 -2.15 8.45 -2.2 8.4 -2.25 8.4 -2.3 8.4 -2.3 8.4 -2.35 8.4 -2.4 8.4 -2.45 8.4 -2.5 8.35 -2.5 8.35 -2.55 8.35 -2.6 8.3 -2.65 8.35 -2.75 8.25 -2.85 8.25 -2.9 8.2 -3.0 8.2 -3.0 8.15 -3.05 8.15 -3.1 8.15 -3.15 8.1 -3.15 8.05 -3.2 8.05 -3.25 8.0 -3.25 7.95 -3.3 7.95 -3.3 7.9 -3.35 7.9 -3.35 7.85 -3.35 7.8 -3.4 7.75 -3.4 7.75 -3.45 7.7 -3.45 7.7 -3.45 7.65 -3.5 7.65 -3.5 L7.4 -3.65 Q7.35 -3.65 7.3 -3.65 7.25 -3.65 7.2 -3.65 7.2 -3.65 7.15 -3.7 7.1 -3.7 7.05 -3.7 7.0 -3.75 6.95 -3.75 L6.6 -3.75 Q6.55 -3.75 6.5 -3.75 6.45 -3.75 6.45 -3.75 6.4 -3.75 6.35 -3.75 6.3 -3.75 6.3 -3.7 6.25 -3.7 6.2 -3.7 6.15 -3.7 6.15 -3.7 6.1 -3.7 6.05 -3.7 6.0 -3.65 6.0 -3.65 5.95 -3.65 5.9 -3.65 5.85 -3.65 5.8 -3.65 5.75 -3.6 5.75 -3.6 5.7 -3.6 5.65 -3.55 L5.15 -3.3 5.0 -3.2 Q5.0 -3.2 4.95 -3.2 4.95 -3.15 4.9 -3.15 4.85 -3.1 4.85 -3.05 L4.45 -2.7 Q4.4 -2.65 4.4 -2.6 L4.25 -2.45 Q4.25 -2.4 4.25 -2.4 4.25 -2.35 4.2 -2.35 4.2 -2.3 4.15 -2.3 4.1 -2.25 4.1 -2.25 4.05 -2.25 4.0 -2.2 4.0 -2.2 3.95 -2.2 3.9 -2.15 3.9 -2.15 3.85 -2.15 3.85 -2.15 3.8 -2.1 3.75 -2.1 L3.65 -2.1 Q3.6 -2.05 3.6 -2.05 3.55 -2.0 3.55 -2.0 3.5 -2.0 3.45 -2.0 3.4 -1.95 3.35 -1.95 L3.1 -1.95 Q3.1 -1.95 3.05 -1.95 3.0 -2.0 2.95 -2.0 2.95 -2.0 2.9 -2.0 2.9 -2.1 2.85 -2.15 L2.7 -2.25 Q2.7 -2.3 2.7 -2.3 2.7 -2.25 2.7 -2.25 2.65 -2.2 2.65 -2.15 2.65 -2.1 2.65 -2.1 2.6 -2.05 2.6 -2.0 2.15 -2.05 1.9 -2.1 1.85 -2.1 1.8 -2.1 1.8 -2.1 1.75 -2.1 1.7 -2.1 1.65 -2.1 1.65 -2.1 1.6 -2.1 1.55 -2.1 1.5 -2.1 1.5 -2.1 1.45 -2.1 1.4 -2.1 1.35 -2.15 1.3 -2.15 1.3 -2.15 1.25 -2.15 1.2 -2.15 1.2 -2.15 1.15 -2.15 1.1 -2.15 1.05 -2.15 1.05 -2.15 1.0 -2.15 0.95 -2.15 0.9 -2.15 0.9 -2.15 0.85 -2.2 0.8 -2.2 0.8 -2.2 0.75 -2.2 0.7 -2.2 0.65 -2.2 0.45 -2.25 0.25 -2.3 0.15 -2.35 L-0.35 -2.45 Q-0.5 -2.5 -0.75 -2.55 -0.8 -2.55 -0.8 -2.6 -0.85 -2.6 -0.85 -2.65 -0.9 -2.65 -0.95 -2.65 -0.95 -2.7 -1.0 -2.7 -1.0 -2.7 -1.05 -2.7 -1.05 -2.75 -1.1 -2.75 -1.1 -2.75 -1.15 -2.75 -1.15 -2.75 -1.2 -2.8 L-1.5 -2.9 Q-1.5 -2.9 -1.55 -2.9 -1.55 -2.95 -1.6 -2.95 -1.65 -2.95 -1.65 -2.95 -1.7 -3.0 -1.75 -3.0 -1.8 -3.0 -1.85 -3.0 -1.9 -3.05 -1.95 -3.05 -1.95 -3.1 -2.0 -3.1 -2.05 -3.15 -2.1 -3.15 -2.1 -3.2 -2.15 -3.2 -2.2 -3.2 -2.25 -3.25 -2.3 -3.25 -2.3 -3.25 -2.35 -3.3 -2.4 -3.3 -2.4 -3.3 -2.45 -3.3 L-2.85 -3.45 Q-2.9 -3.45 -2.95 -3.45 -2.95 -3.45 -3.0 -3.45 -3.05 -3.45 -3.1 -3.5 -3.15 -3.5 -3.2 -3.5 -3.25 -3.5 -3.3 -3.5 -3.35 -3.5 -3.4 -3.5 -3.45 -3.55 -3.5 -3.55 -3.55 -3.55 -3.55 -3.55 -3.6 -3.55 -3.65 -3.55 -3.7 -3.55 -3.7 -3.55 -3.75 -3.55 -3.8 -3.55 -3.85 -3.55 -3.85 -3.55 -3.9 -3.5 -3.95 -3.5 -4.0 -3.5 -4.05 -3.5 -4.1 -3.5 -4.15 -3.5 -4.2 -3.5 -4.25 -3.45 -4.25 -3.45 -4.3 -3.45 -4.3 -3.45 -4.4 -3.4 -4.4 -3.4 -4.45 -3.4 -4.5 -3.35 -4.5 -3.35 -4.55 -3.3 -4.55 -3.3 -4.65 -3.35 -4.7 -3.25 -4.75 -3.25 -4.75 -3.25 -4.8 -3.25 -4.8 -3.2 -4.85 -3.15 -4.9 -3.15 -4.9 -3.15 -4.95 -3.15 L-5.2 -2.9 Q-5.35 -2.6 -5.4 -2.6 -5.45 -2.3 -5.45 -2.2 -5.45 -2.15 -5.45 -2.1 -5.5 -2.05 -5.5 -2.0 -5.5 -1.95 -5.5 -1.9 -5.5 -1.9 -5.5 -1.85 L-5.5 -1.45 Q-5.45 -1.3 -5.4 -1.0 -5.35 -0.75 -5.3 -0.65 -5.3 -0.6 -5.3 -0.6 -5.3 -0.55 -5.25 -0.55 -5.25 -0.5 -5.25 -0.45 -5.25 -0.45 -5.25 -0.4 -5.25 -0.35 -5.2 -0.35 -5.2 -0.3 -5.2 -0.3 -5.15 -0.25 -5.15 -0.2 -5.15 -0.2 -5.15 -0.15 -5.15 -0.15 -5.15 -0.1 -5.15 -0.1 -5.15 -0.05 -5.1 -0.05 -5.1 0.0 -5.1 0.0 -5.1 0.05 -5.1 0.1 -5.1 0.1 -5.05 0.15 -5.05 0.15 -5.05 0.2 -5.05 0.2 -5.0 0.25 -5.0 0.3 -4.9 0.8 -3.8 2.7 -3.75 2.8 -3.75 2.85 L-3.65 2.95 Q-3.65 3.0 -3.6 3.0 -3.6 3.05 -3.55 3.1 L-3.45 3.2 Q-3.45 3.25 -3.45 3.25 -3.4 3.3 -3.4 3.35 L-3.15 3.6 Q-3.1 3.6 -3.05 3.6 -3.05 3.6 -3.0 3.6 -2.95 3.6 -2.95 3.65 -2.9 3.7 -2.9 3.7 -2.85 3.7 -2.8 3.7 -2.75 3.75 -2.7 3.75 -2.65 3.75 -2.65 3.75 -2.55 3.75 -2.5 3.85 L-2.1 3.85 Q-2.1 3.85 -2.0 3.85 -2.0 3.85 -1.95 3.85 -1.85 3.8 -1.85 3.75 L-1.65 3.75 Q-1.6 3.75 -1.6 3.7 -1.55 3.7 -1.5 3.7 -1.45 3.7 -1.45 3.65 -1.4 3.65 -1.4 3.6 -1.35 3.6 -1.35 3.6 L-1.1 3.45 Q-0.85 3.25 -0.75 3.2 -0.75 3.2 -0.7 3.15 -0.7 3.15 -0.65 3.1 -0.65 3.1 -0.6 3.05 -0.55 3.05 -0.55 3.0 -0.5 3.0 -0.45 2.95 -0.45 2.95 -0.4 2.9 -0.4 2.9 -0.35 2.85 -0.35 2.85 -0.3 2.8 -0.3 2.8 -0.25 2.75 -0.25 2.75 -0.2 2.7 -0.15 2.7 -0.15 2.7 -0.1 2.65 -0.1 2.65 -0.05 2.6 0.0 2.6 1.95 0.85 2.1 0.65 2.1 0.6 2.1 0.6 2.1 0.55 2.15 0.55 2.15 0.45 2.2 0.4 2.25 0.35 2.3 0.35 2.35 0.3 2.4 0.3 2.45 0.3 2.45 0.3 2.5 0.3 2.55 0.35 L2.65 0.35 Q2.65 0.35 2.7 0.4 2.8 0.4 2.8 0.45 0.35 8.5 -0.35 10.75 -0.4 10.75 -0.45 10.7 -0.5 10.7 -0.55 10.7 -0.6 10.65 -0.65 10.65 -0.65 10.65 -0.75 10.6 -0.75 10.6 -0.85 10.6 -0.9 10.6 -0.95 10.6 -1.0 10.55 -1.05 10.55 -1.1 10.55 -1.15 10.55 L-2.65 10.05 Q-2.7 10.05 -2.75 10.05 -2.8 10.0 -2.85 10.0 -2.85 10.0 -2.9 10.0 -2.95 10.0 -3.0 9.95 -3.05 9.95 -3.1 9.95 -3.1 9.95 -3.15 9.9 -3.2 9.9 -3.25 9.9 -3.3 9.85 -3.3 9.85 -3.45 9.8 -3.65 9.75 -3.9 9.65 -4.0 9.6 -4.05 9.6 -4.25 9.5 -4.45 9.4 -4.55 9.35 -5.0 9.2 -5.15 9.15 L-5.65 8.9 Q-6.1 8.7 -6.8 8.35 -6.85 8.3 -6.95 8.3 -7.0 8.25 -7.1 8.25 -7.15 8.2 -7.2 8.15 -7.3 8.15 -7.35 8.1 -7.4 8.05 -7.5 8.05 -7.55 8.0 -7.6 7.95 -7.7 7.9 -7.75 7.9 -7.8 7.85 -7.85 7.8 -7.9 7.75 -8.0 7.75 -8.05 7.7 -8.15 7.65 -8.2 7.65 -8.3 7.6 -8.35 7.6 -8.4 7.55 -8.5 7.5 -8.55 7.45 -8.6 7.45 -8.65 7.4 -8.75 7.35 -8.8 7.3 -8.85 7.3 -8.95 7.25 L-9.9 6.6 -12.55 4.75 Q-12.85 4.5 -13.35 4.15 -14.9 2.95 -16.7 1.4 -16.7 1.35 -16.7 1.35 -16.7 1.3 -16.65 1.3 -16.65 1.3 -16.65 1.2 -16.65 1.2 -16.65 1.15 -16.6 1.1 -16.6 1.1 L-16.6 0.95 Q-16.55 0.95 -16.55 0.9 -16.5 0.85 -16.5 0.85 -16.45 0.8 -16.45 0.8 -16.4 0.7 -16.4 0.65 L-16.15 0.4 Q-16.1 0.4 -16.1 0.35 -16.05 0.35 -16.0 0.3 -16.0 0.3 -15.95 0.3 -15.95 0.25 -15.9 0.2 -15.85 0.2 -15.8 0.15 -15.75 0.15 -15.7 0.15 -15.65 0.15 -15.6 0.15 -15.55 0.1 -15.55 0.1 -15.55 0.1 -15.5 0.05 -15.45 0.05 -15.45 0.05 -15.4 0.05 -15.35 0.05 -15.35 0.05 -15.3 0.05 L-15.05 -0.1 Q-15.0 -0.1 -14.95 -0.1 -14.95 -0.1 -14.9 -0.1 -14.85 -0.1 -14.8 -0.1 -14.75 -0.1 -14.75 -0.15 -14.7 -0.15 -14.65 -0.15 -14.55 -0.15 -14.3 -0.2 -12.9 -0.45 -12.6 -0.6 -12.55 -0.6 -12.55 -0.6 -12.5 -0.6 -12.5 -0.65 L-12.35 -0.65 Q-12.3 -0.7 -12.3 -0.7 -12.25 -0.7 -12.25 -0.7 -12.2 -0.75 -12.15 -0.75 -12.15 -0.75 -12.1 -0.8 -12.05 -0.8 -12.05 -0.85 -12.05 -0.85 -12.0 -0.9 -11.9 -0.9 -11.85 -0.95 -11.85 -0.95 -11.8 -1.0 L-11.65 -1.15 Q-11.65 -1.15 -11.6 -1.2 -11.6 -1.2 -11.6 -1.25 -11.55 -1.3 -11.55 -1.35 L-11.5 -1.4 Q-11.45 -1.45 -11.4 -1.45 -11.45 -1.5 -11.35 -1.5 -11.35 -1.55 -11.35 -1.6 -11.35 -1.6 -11.3 -1.65 -11.25 -1.65 -11.25 -1.7 -11.15 -1.7 -11.15 -1.75 -11.1 -1.85 -11.05 -1.85 L-10.9 -1.95 Q-10.85 -2.0 -10.8 -2.0 L-10.65 -2.15 Q-10.65 -2.15 -10.6 -2.15 -10.6 -2.15 -10.55 -2.2 -10.5 -2.25 -10.45 -2.25 -10.4 -2.25 -10.35 -2.25 -10.3 -2.25 -10.3 -2.3 -10.25 -2.3 -10.2 -2.3 -10.2 -2.3 -10.15 -2.3 -10.1 -2.35 -10.1 -2.35 -10.05 -2.35 -10.05 -2.4 -10.0 -2.4 -10.0 -2.4 L-9.8 -2.4 Q-9.75 -2.35 -9.75 -2.35 -9.7 -2.3 -9.65 -2.3 -9.6 -2.3 -9.55 -2.3 L-9.25 -2.3 Q-9.2 -2.3 -9.2 -2.35 -9.15 -2.35 -9.1 -2.4 -9.1 -2.4 -9.05 -2.4 -9.05 -2.4 -9.05 -2.45 L-8.95 -2.55 Q-8.95 -2.6 -8.9 -2.65 -8.9 -2.65 -8.85 -2.7 -8.85 -2.7 -8.85 -2.75 -8.85 -2.8 -8.8 -2.9 -8.75 -3.0 -8.7 -3.2 -8.7 -3.2 -8.65 -3.35 -8.65 -3.45 -8.6 -3.5 L-8.5 -4.0 Q-8.5 -4.05 -8.45 -4.1 -8.45 -4.15 -8.45 -4.15 -8.45 -4.2 -8.45 -4.25 -8.45 -4.3 -8.45 -4.3 -8.4 -4.55 -8.35 -4.6 L-8.35 -4.8 Q-8.35 -4.95 -8.3 -5.05 L-8.3 -5.25 Q-8.3 -5.3 -8.25 -5.3 -8.25 -5.35 -8.25 -5.4 -8.25 -5.4 -8.25 -5.45 -8.25 -5.5 -8.25 -5.5 -8.25 -5.55 -8.2 -5.6 -8.2 -5.65 -8.2 -5.7 -8.15 -5.9 -8.1 -5.95 -8.1 -6.0 -8.1 -6.05 -8.1 -6.1 -8.1 -6.1 -8.1 -6.15 -8.05 -6.2 -8.05 -6.25 -8.0 -6.3 -8.0 -6.35 -8.0 -6.35 -8.0 -6.4 -8.0 -6.45 -8.0 -6.5 -7.95 -6.5 -7.95 -6.55 -7.95 -6.6 -7.95 -6.65 -7.95 -6.7 -7.9 -6.75 -7.85 -6.8 -7.85 -6.85 -7.8 -6.85 -7.8 -6.9 -7.8 -6.95 -7.8 -6.95 -7.8 -7.0 -7.75 -7.05 -7.75 -7.05 -7.7 -7.1 -7.7 -7.1 -7.7 -7.15 -7.7 -7.15 L-7.55 -7.3 Q-7.5 -7.35 -7.5 -7.35 -7.45 -7.35 -7.45 -7.35 L-7.1 -7.35 Q-7.1 -7.35 -7.05 -7.35 -7.05 -7.35 -7.0 -7.3 -7.0 -7.3 -6.95 -7.3 -6.9 -7.3 -6.9 -7.25 -6.85 -7.25 -6.8 -7.25 -6.8 -7.2 -6.75 -7.2 -6.7 -7.15 -6.6 -7.1 -6.55 -7.05 -6.55 -7.05 -6.5 -7.0 -6.5 -7.0 -6.45 -7.0 -6.45 -7.0 L-6.2 -6.85 Q-6.1 -6.8 -6.0 -6.75 -5.9 -6.7 -5.9 -6.7 -5.85 -6.7 -5.85 -6.65 -5.8 -6.65 -5.8 -6.6 -5.75 -6.6 -5.7 -6.6 -5.7 -6.55 -5.65 -6.55 -5.65 -6.55 -5.6 -6.55 -5.6 -6.5 -5.55 -6.5 -5.55 -6.5 -5.5 -6.5 -5.5 -6.5 -5.45 -6.45 -5.45 -6.45 -5.35 -6.45 -5.3 -6.45 -5.25 -6.45 -5.2 -6.45 -5.2 -6.4 -5.15 -6.4 -5.1 -6.35 -5.1 -6.35 -5.05 -6.35 -5.0 -6.3 -4.95 -6.3 -4.9 -6.3 -4.85 -6.3 -4.8 -6.25 -4.7 -6.25 -4.6 -6.25 -4.55 -6.25 -4.45 -6.2 -4.45 -6.2 -4.2 -6.15 -4.05 -6.1 -4.0 -6.1 -3.85 -6.05 -3.7 -6.0 -3.65 -6.0 -3.6 -6.0 -3.6 -6.0 -3.55 -5.95 -3.5 -5.95 -3.5 -5.95 -3.45 -5.95 -3.4 -5.95 -3.4 -5.9 -3.35 -5.9 -3.3 -5.9 -3.3 -5.9 -3.25 -5.85 -3.25 -5.85 -3.2 -5.85 -3.15 -5.85 -3.15 -5.8 -3.1 -5.8 -3.05 -5.8 -3.05 -5.75 -3.0 -5.75 -2.95 -5.75 -2.9 -5.7 -2.9 -5.7 -2.85 -5.65 -2.8 -5.65 -2.75 -5.6 -2.7 -5.6 -2.65 -5.6 -2.65 -5.55 -2.6 -5.55 -2.55 -5.55 -2.5 -5.55 -2.5 -5.5 -2.45 -5.5 L-2.2 -5.4 Q-2.2 -5.4 -2.0 -5.3 -1.95 -5.25 -1.9 -5.25 -1.85 -5.2 -1.85 -5.2 -1.8 -5.2 -1.75 -5.2 -1.7 -5.15 -1.65 -5.15 L-1.45 -5.15 Q-1.4 -5.15 -1.35 -5.15 -1.3 -5.15 -1.3 -5.15 -1.25 -5.15 -1.2 -5.15 -1.2 -5.15 -1.15 -5.2 -1.1 -5.2 -1.05 -5.2 -1.0 -5.2 -0.95 -5.2 -0.95 -5.2 -0.9 -5.25 -0.85 -5.25 -0.85 -5.25 L-0.6 -5.4 Q-0.55 -5.4 -0.55 -5.4 -0.5 -5.4 -0.45 -5.45 -0.45 -5.45 -0.4 -5.5 -0.2 -5.55 -0.15 -5.55 L0.1 -5.7 Q0.35 -5.75 0.4 -5.75 0.45 -5.75 0.5 -5.75 0.5 -5.8 0.55 -5.8 0.6 -5.8 0.65 -5.8 0.65 -5.8 0.7 -5.8 0.75 -5.8 0.8 -5.8 0.8 -5.8 0.85 -5.8 0.9 -5.8 0.9 -5.8 0.95 -5.8 0.95 -5.75 L1.3 -5.75 Q1.35 -5.75 1.35 -5.7 1.4 -5.7 1.45 -5.7 1.5 -5.7 1.55 -5.7 1.6 -5.65 1.6 -5.65 1.65 -5.65 1.65 -5.65 1.7 -5.6 1.7 -5.6 L1.95 -5.5 Q2.05 -5.4 2.15 -5.4 L2.4 -5.15 Q2.45 -5.1 2.45 -5.05 2.5 -5.05 2.5 -5.0 2.55 -4.95 2.55 -4.95 2.6 -4.9 2.6 -4.85 2.65 -4.85 2.65 -4.8 2.7 -4.65 2.8 -4.4 2.8 -4.4 2.85 -4.45 2.85 -4.5 2.9 -4.5 2.9 -4.55 2.95 -4.6 2.95 -4.65 2.95 -4.7 2.95 -4.7 3.15 -5.0 3.15 -5.05 3.2 -5.1 3.2 -5.1 3.2 -5.15 3.2 -5.15 3.2 -5.2 L3.35 -5.3 Q3.35 -5.35 3.35 -5.35 3.35 -5.4 3.4 -5.45 3.45 -5.5 3.45 -5.55 3.5 -5.6 3.5 -5.6 3.55 -5.65 3.55 -5.7 3.6 -5.65 3.6 -5.75 3.65 -5.8 3.7 -5.8 3.7 -5.85 3.75 -5.85 3.9 -5.95 5.6 -6.05 5.7 -6.05 5.85 -6.05 5.95 -6.05 6.05 -6.05 6.15 -6.05 6.25 -6.05 6.35 -6.1 6.4 -6.1 6.5 -6.1 6.55 -6.1 6.65 -6.1 6.7 -6.15 6.75 -6.15 6.8 -6.15 6.85 -6.15 6.9 -6.2 8.0 -6.45 8.0 -6.45 8.05 -6.4 8.05 -6.4 8.1 -6.35 8.15 -6.35 8.15 -6.35 8.2 -6.3 8.25 -6.3 8.3 -6.3 L8.45 -6.2 Q8.45 -6.1 8.5 -6.1 L8.65 -6.0 Q8.65 -5.95 8.7 -5.95 8.7 -5.85 8.75 -5.85 8.75 -5.85 8.75 -5.8 8.75 -5.8 8.75 -5.75 8.8 -5.7 8.8 -5.7 L8.8 -5.5 Q8.85 -5.45 8.85 -5.45 8.9 -5.4 8.9 -5.4 L8.9 -5.2 Q8.85 -5.1 8.8 -5.0 L8.8 -4.05 Q8.8 -4.05 8.85 -3.95 8.85 -3.85 8.9 -3.75 L8.9 -3.5 Q8.9 -3.45 8.9 -3.4 8.9 -3.35 8.95 -3.3 L8.95 -3.15 Q8.95 -3.1 8.95 -3.05 8.95 -3.05 9.0 -3.0 9.0 -2.95 9.0 -2.95 9.0 -2.9 9.05 -2.9 9.05 -2.85 9.05 -2.85 L9.2 -2.7 Q9.2 -2.65 9.2 -2.65 9.2 -2.6 9.25 -2.6 9.25 -2.6 9.3 -2.5 9.35 -2.5 9.4 -2.45 9.45 -2.4 9.5 -2.4 L9.65 -2.25 Q9.65 -2.25 9.7 -2.2 9.75 -2.2 9.75 -2.2 9.8 -2.15 9.8 -2.15 10.05 -2.0 10.25 -1.95 10.3 -1.95 10.35 -1.9 10.35 -1.9 10.4 -1.85 10.45 -1.85 10.5 -1.85 10.5 -1.8 10.55 -1.8 10.6 -1.8 10.65 -1.75 10.9 -1.65 10.95 -1.65 11.0 -1.65 11.0 -1.6 11.05 -1.6 11.1 -1.6 11.1 -1.6 11.15 -1.6 11.2 -1.6 11.25 -1.6 11.35 -1.55 11.4 -1.5 11.45 -1.5 11.5 -1.45 11.55 -1.45 11.55 -1.45 L11.95 -1.35 Q11.95 -1.35 12.0 -1.3 12.05 -1.3 12.1 -1.25 12.1 -1.25 12.15 -1.25 12.2 -1.25 12.25 -1.2 12.3 -1.2 12.3 -1.2 12.35 -1.15 12.4 -1.15 12.45 -1.15 12.45 -1.1 12.5 -1.1 12.55 -1.05 12.6 -1.05 12.6 -1.0 12.65 -1.0 12.7 -1.0 12.75 -0.95 12.75 -0.95 12.8 -0.9 12.8 -0.9 12.8 -0.9 12.85 -0.85 12.9 -0.85 12.9 -0.8 12.95 -0.8 13.0 -0.8 13.05 -0.75 13.1 -0.7 13.15 -0.65 13.2 -0.65 13.25 -0.6 13.3 -0.6 13.35 -0.55 13.35 -0.55 13.4 -0.5 13.4 -0.5 13.45 -0.45 13.45 -0.4 13.45 -0.4 13.5 -0.35 13.55 -0.3 13.6 -0.3 13.6 -0.25 13.6 -0.2 13.75 -0.05 13.75 -0.05 L13.75 -0.05" fill="#e0ccae" fill-rule="evenodd" stroke="none"/>
    <path d="M5.65 5.15 Q5.65 5.15 5.65 5.15 5.65 5.05 5.6 4.7 5.6 4.7 5.6 4.75 5.6 4.9 5.65 5.15 L5.65 5.15" fill="#e0ccae" fill-rule="evenodd" stroke="none"/>
    <path d="M5.65 5.15 Q5.65 5.2 5.65 5.25 5.65 5.25 5.65 5.2 5.65 5.2 5.65 5.15 L5.65 5.15" fill="#e0ccae" fill-rule="evenodd" stroke="none"/>
    <path d="M5.65 5.25 Q5.65 5.25 5.65 5.25 5.65 5.25 5.65 5.25 5.65 5.25 5.65 5.25 5.65 5.3 5.65 5.25 L5.65 5.25" fill="#e0ccae" fill-rule="evenodd" stroke="none"/>
    <path d="M4.2 -0.65 Q4.2 -0.6 4.25 -0.6 4.25 -0.55 4.3 -0.55 4.3 -0.5 4.35 -0.45 4.35 -0.45 4.4 -0.4 4.4 -0.4 4.45 -0.4 4.5 -0.35 4.5 -0.35 4.5 -0.3 4.55 -0.3 4.6 -0.25 4.6 -0.25 4.65 -0.2 4.7 -0.2 4.75 -0.15 4.75 -0.15 4.8 -0.15 4.8 -0.1 4.85 -0.1 4.9 -0.05 4.95 -0.05 4.95 0.0 5.0 0.0 5.0 0.05 5.15 0.1 5.4 0.3 5.7 0.45 5.85 0.55 6.2 0.75 6.35 0.85 6.4 0.9 6.45 0.9 6.5 0.95 6.5 0.95 6.55 0.95 6.6 0.95 6.6 1.0 6.65 1.05 6.65 1.05 6.7 1.1 6.75 1.1 6.75 1.1 6.8 1.1 6.85 1.15 6.85 1.15 6.95 1.15 7.0 1.15 7.0 1.15 7.05 1.2 7.1 1.2 7.1 1.2 7.15 1.2 7.15 1.2 7.2 1.15 7.25 1.15 7.25 1.15 7.35 1.15 7.35 1.1 7.35 1.05 7.4 1.05 7.4 0.95 7.45 0.9 7.45 0.85 7.45 0.8 7.45 0.75 7.45 0.65 7.45 0.6 7.45 0.55 7.45 0.55 7.5 0.5 7.5 0.45 7.5 0.4 7.5 0.35 7.5 0.3 7.5 0.25 7.5 0.2 7.5 0.15 7.5 -0.05 7.5 -0.15 7.5 -0.35 7.5 -0.4 7.5 -0.6 7.5 -0.65 7.5 -0.65 7.45 -0.7 7.45 -0.75 7.45 -0.75 7.45 -0.8 7.45 -0.85 7.45 -0.9 7.4 -1.0 7.35 -1.2 7.35 -1.25 7.3 -1.25 7.3 -1.3 7.25 -1.35 7.25 -1.4 7.25 -1.45 7.2 -1.45 7.2 -1.5 7.15 -1.65 7.15 -1.7 7.1 -1.75 7.1 -1.75 7.1 -1.8 7.1 -1.85 7.05 -1.9 7.0 -1.95 7.0 -2.0 6.95 -2.0 6.95 -2.05 6.95 -2.1 6.9 -2.15 6.9 -2.2 6.85 -2.25 6.85 -2.25 6.8 -2.3 6.75 -2.3 6.75 -2.35 6.7 -2.35 6.7 -2.4 6.65 -2.4 6.6 -2.4 6.6 -2.4 6.55 -2.45 6.5 -2.45 6.5 -2.45 6.45 -2.45 6.4 -2.45 6.35 -2.45 6.3 -2.45 6.25 -2.45 6.2 -2.45 6.15 -2.45 6.1 -2.45 6.1 -2.45 6.05 -2.45 6.0 -2.4 5.95 -2.4 5.9 -2.4 5.85 -2.4 5.8 -2.35 5.8 -2.35 5.75 -2.35 5.7 -2.35 5.65 -2.3 5.6 -2.3 5.55 -2.3 5.5 -2.3 5.45 -2.25 5.35 -2.2 5.1 -2.0 5.05 -2.0 5.0 -1.95 5.0 -1.95 4.95 -1.9 4.9 -1.9 4.85 -1.85 4.8 -1.8 4.8 -1.8 4.75 -1.75 4.7 -1.7 4.65 -1.65 4.65 -1.65 4.6 -1.6 4.55 -1.55 4.55 -1.5 4.5 -1.5 4.5 -1.45 4.45 -1.4 4.4 -1.35 4.4 -1.35 4.25 -1.1 4.2 -1.0 4.2 -0.95 4.2 -0.9 4.2 -0.9 4.2 -0.85 4.2 -0.8 4.2 -0.75 4.2 -0.7 4.2 -0.65 L4.2 -0.65 4.2 -0.65 4.2 -0.65" fill="#e0ccae" fill-rule="evenodd" stroke="none"/>
    <path d="M1.65 -0.4 Q1.6 -0.4 1.6 -0.35 1.55 -0.35 1.5 -0.3 1.5 -0.3 1.45 -0.25 1.45 -0.25 1.4 -0.25 1.35 -0.25 1.35 -0.2 1.3 -0.15 1.25 -0.15 1.2 -0.1 1.15 -0.1 1.1 -0.05 1.05 -0.05 1.05 0.0 1.0 0.0 0.95 0.0 0.9 0.05 0.9 0.05 0.85 0.1 0.85 0.1 0.8 0.15 0.8 0.15 0.75 0.15 0.75 0.2 0.7 0.2 0.7 0.25 0.65 0.25 0.6 0.25 0.6 0.3 0.55 0.3 0.55 0.3 0.5 0.35 0.5 0.35 0.3 0.45 0.0 0.6 -0.2 0.7 -0.5 0.85 -0.55 0.85 -0.6 0.9 -0.6 0.9 -0.65 0.9 -0.7 0.9 -0.75 0.95 -0.8 0.95 -0.8 0.95 -0.85 1.0 -0.9 1.0 -0.9 1.0 -0.95 1.05 -1.0 1.05 -1.0 1.05 -1.05 1.1 -1.1 1.1 -1.15 1.1 -1.15 1.15 -1.2 1.15 -1.2 1.15 -1.25 1.15 -1.3 1.2 -1.3 1.2 -1.35 1.2 -1.4 1.2 -1.4 1.2 -1.45 1.25 -1.5 1.25 -1.55 1.25 -1.55 1.25 -1.6 1.25 -1.65 1.3 -1.8 1.3 -2.15 1.4 -2.2 1.4 -2.25 1.4 -2.3 1.45 -2.35 1.45 -2.35 1.45 -2.4 1.45 -2.45 1.45 -2.45 1.45 -2.5 1.45 -2.5 1.45 -2.55 1.45 -2.6 1.45 -2.6 1.45 -2.7 1.45 -2.75 1.45 -2.75 1.45 -2.8 1.45 -2.85 1.45 -2.85 1.45 -2.9 1.45 -2.9 1.45 -2.95 1.4 -3.0 1.4 -3.0 1.4 -3.05 1.35 -3.1 1.35 -3.1 1.3 -3.15 1.3 -3.2 1.25 -3.25 1.2 -3.25 1.15 -3.3 1.1 -3.35 1.05 -3.4 1.05 -3.4 1.0 -3.4 0.95 -3.4 0.9 -3.4 0.85 -3.45 0.8 -3.45 0.8 -3.45 0.75 -3.45 0.7 -3.45 0.65 -3.5 0.6 -3.5 0.55 -3.5 0.55 -3.5 0.45 -3.5 0.2 -3.5 0.15 -3.5 -0.05 -3.5 -0.1 -3.5 -0.3 -3.5 -0.3 -3.5 -0.55 -3.5 -0.6 -3.5 -0.65 -3.5 -0.65 -3.5 -0.7 -3.5 -0.75 -3.5 -0.85 -3.5 -0.85 -3.5 -0.9 -3.5 -0.95 -3.45 -0.95 -3.45 -1.0 -3.45 -1.1 -3.45 -1.15 -3.45 -1.2 -3.45 -1.2 -3.4 -1.25 -3.4 -1.3 -3.4 -1.35 -3.35 -1.4 -3.35 -1.45 -3.3 -1.5 -3.3 -1.5 -3.3 -1.55 -3.25 -1.55 -3.25 -1.6 -3.2 -1.6 -3.15 -1.65 -3.15 -1.65 -3.05 -1.7 -2.9 -1.75 -2.85 -1.75 -2.85 -1.75 -2.8 -1.75 -2.75 -1.8 -2.7 -1.8 -2.65 -1.8 -2.6 -1.8 -2.6 -1.85 -2.55 -1.85 -2.5 -1.85 -2.45 -1.85 -2.4 -1.85 -2.4 -1.85 -2.35 -1.85 -2.3 -1.85 -2.25 -1.85 -2.2 -1.85 -2.15 -1.85 -2.15 -1.85 -2.1 -1.85 -2.05 -1.85 -2.0 -1.85 -1.95 -1.85 -1.9 -1.85 -1.85 -1.8 -1.8 -1.8 -1.75 -1.8 -1.7 -1.75 -1.65 -1.75 -1.4 -1.75 -1.35 -1.75 -1.3 -1.75 -1.3 -1.75 -1.2 -1.7 -1.15 -1.7 -1.1 -1.7 -1.1 -1.7 -1.05 -1.7 -1.0 -1.65 -0.95 -1.65 -0.9 -1.65 -0.85 -1.65 -0.85 -1.65 -0.8 -1.65 -0.75 -1.6 -0.7 -1.6 -0.7 -1.6 -0.65 -1.6 -0.6 -1.6 -0.55 -1.55 -0.5 -1.55 -0.5 -1.55 -0.45 -1.55 -0.4 -1.5 -0.35 -1.5 -0.35 -1.5 -0.2 -1.5 0.05 -1.4 0.1 -1.35 0.1 -1.35 0.15 -1.35 0.2 -1.3 0.25 -1.3 0.25 -1.25 0.3 -1.25 0.35 -1.25 0.35 -1.2 0.4 -1.2 0.55 -1.15 0.8 -0.95 0.85 -0.95 0.85 -0.95 0.9 -0.95 0.9 -0.9 0.95 -0.9 0.95 -0.9 1.0 -0.9 1.0 -0.85 1.05 -0.85 1.05 -0.85 1.1 -0.8 1.1 -0.8 1.15 -0.8 1.15 -0.75 1.2 -0.75 1.2 -0.7 1.25 -0.7 1.25 -0.65 1.3 -0.65 1.35 -0.65 1.35 -0.6 1.4 -0.6 1.4 -0.6 1.45 -0.55 1.5 -0.55 1.5 -0.55 1.55 -0.5 1.55 -0.5 1.6 -0.45 1.6 -0.45 1.65 -0.4 1.65 -0.4 L1.65 -0.4 1.65 -0.4 1.65 -0.4" fill="#e0ccae" fill-rule="evenodd" stroke="none"/>
  </g>
</svg>
