<?xml version="1.0" encoding="UTF-8" standalone="no"?>
<svg xmlns:xlink="http://www.w3.org/1999/xlink" height="76.9px" width="103.6px" xmlns="http://www.w3.org/2000/svg">
  <g transform="matrix(1.0, 0.0, 0.0, 1.0, 51.8, 38.45)">
    <path d="M-8.1 -35.35 Q-8.15 -35.3 -8.15 -35.25 -8.2 -35.2 -8.2 -35.15 -8.2 -35.05 -8.2 -34.95 -8.2 -34.9 -8.2 -34.7 -8.2 -34.4 -8.2 -34.35 -8.15 -34.15 -8.15 -33.9 -8.15 -33.6 -8.15 -33.25 -8.15 -32.85 -8.15 -32.4 -8.15 -32.1 -8.2 -31.85 -8.2 -31.6 -8.2 -31.4 -8.2 -31.2 -8.25 -31.0 -8.25 -30.85 -8.3 -30.7 -8.3 -30.55 -8.35 -30.4 -8.35 -30.3 -8.4 -30.15 -8.45 -30.05 -8.5 -29.95 -8.55 -29.85 -8.6 -29.7 -8.8 -29.3 -9.45 -28.45 -9.45 -28.45 -9.75 -28.05 -10.15 -27.6 -10.5 -27.25 -10.7 -27.0 -11.05 -26.75 -11.35 -26.5 -11.75 -26.25 -12.1 -26.0 -12.55 -25.75 -12.9 -25.55 -13.35 -25.3 -13.7 -25.1 -14.1 -24.9 -14.4 -24.75 -14.75 -24.55 -15.0 -24.45 -15.25 -24.3 -15.15 -24.35 -15.5 -24.2 -15.8 -24.05 -16.1 -23.85 -16.35 -23.6 -16.65 -23.3 -16.95 -23.0 -17.25 -22.6 -17.5 -22.2 -17.85 -21.65 -18.15 -21.2 -18.5 -20.55 -18.8 -20.0 -19.2 -19.25 -19.55 -18.6 -20.0 -17.75 -20.35 -17.1 -20.9 -16.0 -21.3 -15.25 -21.65 -14.5 -22.0 -13.8 -22.35 -13.05 -22.7 -12.4 -23.0 -11.75 -23.3 -11.1 -23.6 -10.5 -23.85 -9.9 -24.1 -9.35 -24.35 -8.85 -24.55 -8.35 -24.75 -7.9 -24.95 -7.45 -25.1 -7.05 -25.3 -6.65 -25.75 -5.55 -26.2 -4.55 -26.55 -3.65 -26.85 -2.85 -27.1 -2.15 -27.4 -1.45 -27.55 -1.0 -27.8 -0.35 -28.1 0.45 -28.15 0.6 -28.35 1.1 -28.5 1.45 -28.65 1.95 -28.85 2.35 -29.05 2.85 -29.3 3.35 -29.6 3.95 -29.9 4.6 -30.2 5.25 -30.55 5.95 -30.95 6.65 -31.4 7.35 -31.8 8.1 -32.3 8.85 -32.8 9.65 -33.35 10.45 -33.95 11.3 -34.55 12.1 -35.2 12.95 -35.9 13.8 -36.65 14.65 -37.45 15.5 -37.2 15.95 -36.95 16.4 -36.7 16.85 -36.4 17.35 -36.1 17.85 -35.8 18.35 -35.45 18.9 -35.1 19.4 -34.75 19.95 -34.35 20.5 -33.95 21.05 -33.55 21.6 -33.1 22.2 -32.65 22.75 -32.15 23.35 -31.65 23.95 -30.5 25.3 -29.2 26.55 -28.0 27.75 -26.75 28.8 -25.55 29.8 -24.3 30.7 -23.15 31.55 -22.0 32.3 -20.9 33.0 -19.8 33.6 -18.8 34.15 -17.8 34.65 -16.95 35.1 -16.1 35.45 -15.4 35.75 -14.65 36.05 -12.9 36.7 -11.15 37.25 -9.5 37.7 -7.8 38.05 -6.25 38.35 -4.65 38.55 -3.2 38.7 -1.7 38.75 -0.4 38.8 1.0 38.8 2.2 38.75 3.4 38.7 4.45 38.6 5.55 38.5 6.3 38.4 7.4 38.3 8.65 38.15 9.45 38.0 10.7 37.85 11.8 37.6 13.15 37.35 14.4 37.05 15.85 36.7 17.2 36.25 18.7 35.8 20.15 35.2 21.7 34.55 23.2 33.8 24.8 32.95 26.3 31.95 27.9 30.9 29.4 29.7 30.15 29.1 30.85 28.5 31.5 27.9 32.15 27.25 32.75 26.65 33.3 26.05 33.85 25.45 34.4 24.85 34.85 24.25 35.35 23.7 35.75 23.15 36.2 22.6 36.55 22.05 36.9 21.55 37.25 21.05 37.55 20.6 35.35 14.2 32.9 7.55 30.9 1.95 29.3 -2.4 27.85 -6.3 26.75 -9.2 25.75 -11.7 25.05 -13.35 24.45 -14.8 24.1 -15.6 23.75 -16.2 23.6 -16.4 23.5 -16.5 23.5 -16.35 23.45 -16.3 23.5 -16.15 23.5 -16.1 23.45 -16.3 23.45 -16.3 23.35 -16.75 23.15 -17.3 23.0 -17.9 22.75 -18.75 22.45 -19.55 22.1 -20.55 21.75 -21.45 21.3 -22.55 20.9 -23.4 20.35 -24.4 19.85 -25.1 19.3 -25.9 18.7 -26.35 18.1 -26.85 17.45 -26.9 17.4 -26.9 17.35 -26.9 17.25 -26.9 17.15 -26.9 17.05 -26.95 16.9 -26.95 16.8 -26.95 16.65 -27.0 16.5 -27.05 16.4 -27.1 16.2 -27.15 16.1 -27.2 15.9 -27.3 15.8 -27.4 15.65 -27.5 15.5 -27.65 15.4 -27.75 15.3 -27.85 15.2 -28.0 15.1 -28.1 15.05 -28.2 14.95 -28.35 14.9 -28.5 14.85 -28.65 14.8 -28.75 14.75 -28.9 14.7 -29.05 14.65 -29.2 14.6 -29.35 14.6 -29.55 14.55 -29.65 14.5 -29.85 14.35 -30.6 14.2 -31.3 14.1 -31.8 13.95 -32.4 13.65 -33.95 13.8 -33.2 13.75 -33.55 13.7 -33.75 13.65 -34.0 13.6 -34.15 13.55 -34.3 13.5 -34.4 13.45 -34.5 13.4 -34.55 13.4 -34.6 13.3 -34.7 13.0 -34.95 12.6 -35.0 12.2 -35.05 11.7 -34.95 11.3 -34.9 10.75 -34.7 10.3 -34.55 9.75 -34.3 9.3 -34.1 8.85 -33.85 8.45 -33.65 8.1 -33.4 7.8 -33.2 7.6 -33.1 7.4 -32.95 7.4 -32.95 7.4 -32.95 7.45 -32.95 7.45 -32.95 7.5 -32.95 7.5 -32.95 7.55 -32.95 7.6 -33.0 7.65 -33.0 7.7 -33.0 7.75 -33.05 7.8 -33.05 7.85 -33.05 7.85 -33.1 7.9 -33.1 7.9 -33.15 7.9 -33.15 7.9 -33.2 7.7 -33.2 7.55 -33.2 7.2 -33.15 4.5 -32.85 6.35 -33.05 5.8 -33.0 5.3 -32.95 4.65 -32.9 4.05 -32.9 3.3 -32.85 2.6 -32.9 1.8 -32.9 1.1 -33.0 0.25 -33.05 -0.55 -33.25 -1.3 -33.4 -2.05 -33.6 -2.65 -33.8 -3.35 -34.05 -3.9 -34.25 -4.55 -34.5 -4.6 -34.55 -5.6 -34.95 -6.15 -35.2 -6.45 -35.3 -6.9 -35.45 -7.15 -35.55 -7.5 -35.6 -7.7 -35.55 -7.95 -35.5 -8.1 -35.35 L-8.1 -35.35" fill="#597264" fill-rule="evenodd" stroke="none"/>
  </g>
</svg>
