<?xml version="1.0" encoding="UTF-8" standalone="no"?>
<svg xmlns:xlink="http://www.w3.org/1999/xlink" height="17.0px" width="25.15px" xmlns="http://www.w3.org/2000/svg">
  <g transform="matrix(1.0, 0.0, 0.0, 1.0, 12.55, 8.5)">
    <path d="M3.5 -4.65 Q3.25 -4.95 3.0 -5.25 2.8 -5.5 2.55 -5.8 2.35 -6.05 2.15 -6.3 1.95 -6.55 1.8 -6.8 1.6 -7.05 1.45 -7.3 1.3 -7.5 1.1 -7.7 1.0 -7.9 0.85 -8.15 0.7 -8.3 0.6 -8.5 0.55 -8.6 0.3 -8.95 0.1 -9.2 0.0 -9.35 -0.15 -9.55 -0.25 -9.75 -0.4 -9.95 -0.55 -10.1 -0.7 -10.3 -0.85 -10.45 -1.05 -10.6 -1.2 -10.75 -1.4 -10.9 -1.6 -11.05 -1.8 -11.15 -2.0 -11.3 -2.2 -11.4 -2.2 -11.4 -2.35 -11.45 -2.45 -11.5 -2.6 -11.55 -2.7 -11.6 -2.85 -11.65 -2.95 -11.65 -3.1 -11.7 -3.25 -11.7 -3.4 -11.75 -3.55 -11.7 -3.7 -11.7 -3.85 -11.7 -4.0 -11.65 -4.15 -11.6 -4.3 -11.55 -4.45 -11.45 -4.55 -11.35 -4.65 -11.25 -4.75 -11.2 -4.85 -11.05 -4.95 -10.95 -5.0 -10.85 -5.1 -10.75 -5.15 -10.65 -5.2 -10.55 -5.25 -10.45 -5.25 -10.4 -5.3 -10.3 -5.3 -10.25 -5.35 -10.2 -5.4 -10.3 -5.45 -10.4 -5.55 -10.55 -5.6 -10.65 -5.7 -10.8 -5.8 -10.9 -5.9 -11.05 -6.0 -11.2 -6.1 -11.35 -6.2 -11.45 -6.35 -11.6 -6.45 -11.75 -6.6 -11.9 -6.75 -12.0 -6.9 -12.15 -7.1 -12.3 -7.3 -12.45 -7.4 -12.55 -7.55 -12.7 -7.7 -12.75 -7.85 -12.9 -7.95 -13.0 -8.1 -13.1 -8.25 -13.15 -8.4 -13.25 -8.55 -13.3 -8.75 -13.35 -8.9 -13.4 -9.05 -13.45 -9.2 -13.45 -9.4 -13.5 -9.6 -13.5 -9.75 -13.5 -9.9 -13.45 -10.05 -13.4 -10.2 -13.35 -10.35 -13.3 -10.5 -13.25 -10.65 -13.15 -10.8 -13.05 -10.95 -13.0 -11.05 -12.9 -11.2 -12.75 -11.3 -12.65 -11.4 -12.55 -11.5 -12.4 -11.6 -12.3 -11.65 -12.15 -11.75 -12.0 -11.8 -11.85 -11.85 -11.7 -11.9 -11.5 -11.95 -11.35 -11.95 -11.2 -12.0 -11.05 -12.0 -10.9 -12.0 -10.75 -11.95 -10.6 -11.95 -10.45 -11.95 -10.3 -11.9 -10.15 -11.9 -10.0 -11.85 -9.9 -11.85 -9.7 -11.8 -9.55 -11.75 -9.35 -11.7 -9.2 -11.65 -9.05 -11.6 -8.9 -11.55 -8.75 -11.5 -8.65 -11.4 -8.5 -11.35 -8.4 -11.3 -8.25 -11.25 -8.15 -11.2 -8.05 -11.1 -7.95 -11.05 -7.85 -11.0 -7.8 -10.95 -7.7 -11.0 -7.7 -11.05 -7.7 -11.1 -7.7 -11.15 -7.7 -11.2 -7.75 -11.25 -7.75 -11.3 -7.75 -11.35 -7.75 -11.45 -7.75 -11.5 -7.7 -11.55 -7.7 -11.65 -7.7 -11.7 -7.7 -11.8 -7.7 -11.85 -7.65 -11.95 -7.65 -12.05 -7.6 -12.2 -7.55 -12.3 -7.55 -12.4 -7.45 -12.5 -7.4 -12.6 -7.35 -12.7 -7.3 -12.75 -7.25 -12.85 -7.2 -12.9 -7.15 -13.0 -7.1 -13.05 -7.0 -13.1 -6.95 -13.15 -6.9 -13.15 -6.9 -13.2 -6.85 -13.3 -6.85 -13.35 -6.85 -13.45 -6.85 -13.55 -6.9 -13.65 -6.9 -13.75 -6.9 -13.9 -6.9 -14.0 -6.95 -14.1 -6.95 -14.25 -6.95 -14.35 -7.0 -14.5 -7.0 -14.65 -7.0 -14.75 -7.05 -14.9 -7.05 -15.05 -7.1 -15.3 -7.15 -15.6 -7.2 -15.8 -7.25 -16.0 -7.3 -16.5 -7.4 -16.4 -7.4 -16.55 -7.45 -16.7 -7.45 -16.85 -7.5 -16.95 -7.5 -17.1 -7.5 -17.2 -7.5 -17.3 -7.5 -17.4 -7.45 -17.55 -7.45 -17.65 -7.4 -17.75 -7.35 -17.85 -7.3 -17.95 -7.25 -18.05 -7.15 -18.15 -7.1 -18.25 -7.0 -18.35 -6.9 -18.4 -6.8 -18.5 -6.7 -18.6 -6.6 -18.65 -6.5 -18.7 -6.35 -18.75 -6.25 -18.8 -6.1 -18.8 -5.95 -18.8 -5.8 -18.8 -5.7 -18.8 -5.55 -18.8 -5.45 -18.75 -5.3 -18.75 -5.2 -18.7 -5.1 -18.65 -4.95 -18.6 -4.85 -18.5 -4.75 -18.45 -4.65 -18.35 -4.55 -18.25 -4.45 -18.2 -4.35 -18.05 -4.3 -17.95 -4.2 -17.85 -4.15 -17.9 -4.1 -17.9 -4.05 -17.95 -4.0 -17.95 -3.95 -18.0 -3.85 -18.0 -3.8 -18.05 -3.7 -18.05 -3.65 -18.1 -3.55 -18.1 -3.45 -18.15 -3.35 -18.15 -3.25 -18.15 -3.15 -18.15 -3.05 -18.15 -2.9 -18.1 -2.8 -18.1 -2.7 -18.05 -2.55 -18.0 -2.45 -17.95 -2.35 -17.9 -2.3 -17.8 -2.2 -17.75 -2.1 -17.7 -2.05 -17.6 -1.95 -17.5 -1.9 -17.45 -1.85 -17.35 -1.75 -17.3 -1.7 -17.2 -1.65 -17.15 -1.6 -17.05 -1.55 -16.9 -1.45 -16.7 -1.35 -16.55 -1.25 -16.4 -1.2 -16.25 -1.1 -16.1 -1.05 -15.95 -1.0 -15.75 -0.95 -15.65 -0.9 -15.5 -0.9 -15.35 -0.85 -15.2 -0.85 -15.1 -0.85 -14.95 -0.8 -14.85 -0.8 -14.75 -0.8 -14.75 -0.75 -14.75 -0.7 -14.8 -0.65 -14.8 -0.55 -14.8 -0.5 -14.8 -0.45 -14.8 -0.35 -14.8 -0.3 -14.8 -0.2 -14.8 -0.15 -14.8 -0.05 -14.8 0.05 -14.8 0.15 -14.8 0.2 -14.8 0.3 -14.8 0.4 -14.8 0.5 -14.8 0.55 -14.75 0.65 -14.75 0.75 -14.7 0.85 -14.7 0.95 -14.65 1.1 -14.6 1.25 -14.55 1.35 -14.5 1.5 -14.4 1.65 -14.35 1.8 -14.25 1.95 -14.15 2.1 -14.05 2.2 -13.9 2.35 -13.7 2.55 -13.5 2.7 -13.3 2.85 -13.1 2.95 -12.9 3.05 -12.65 3.1 -12.45 3.15 -12.25 3.2 -12.05 3.2 -11.9 3.25 -11.75 3.25 -11.55 3.25 -11.45 3.25 -11.35 3.25 -11.25 3.25 -11.2 3.2 -11.2 3.25 -11.2 3.3 -11.2 3.35 -11.15 3.45 -11.15 3.5 -11.15 3.55 -11.1 3.65 -11.1 3.7 -11.1 3.75 -11.05 3.85 -11.05 3.9 -11.0 4.0 -10.95 4.05 -10.95 4.15 -10.9 4.2 -10.85 4.3 -10.8 4.35 -10.8 4.4 -10.75 4.45 -10.7 4.55 -10.7 4.6 -10.65 4.65 -10.6 4.75 -10.55 4.8 -10.45 4.9 -10.4 4.95 -10.35 5.05 -10.25 5.1 -10.15 5.2 -10.1 5.25 -10.0 5.3 -9.9 5.35 -9.75 5.45 -9.6 5.5 -9.45 5.55 -9.3 5.6 -9.15 5.6 -9.0 5.65 -8.85 5.65 -8.7 5.65 -8.6 5.65 -8.45 5.6 -8.35 5.6 -8.25 5.6 -8.2 5.55 -8.1 5.55 -8.05 5.55 -8.0 5.5 -8.0 5.55 -8.0 5.6 -8.0 5.65 -7.95 5.75 -7.95 5.8 -7.95 5.85 -7.9 5.95 -7.9 6.0 -7.9 6.1 -7.85 6.15 -7.85 6.25 -7.8 6.3 -7.75 6.4 -7.7 6.5 -7.7 6.55 -7.65 6.65 -7.6 6.7 -7.6 6.75 -7.55 6.8 -7.55 6.85 -7.5 6.9 -7.45 6.95 -7.4 7.0 -7.35 7.05 -7.3 7.15 -7.25 7.2 -7.2 7.25 -7.1 7.3 -7.05 7.4 -7.0 7.45 -6.9 7.5 -6.8 7.55 -6.6 7.7 -6.4 7.75 -6.2 7.85 -6.0 7.85 -5.8 7.9 -5.6 7.9 -5.4 7.9 -5.2 7.85 -5.0 7.85 -4.85 7.8 -4.7 7.75 -4.55 7.75 -4.45 7.7 -4.35 7.65 -4.3 7.65 -4.25 7.6 -4.25 7.65 -4.25 7.75 -4.25 7.8 -4.2 7.9 -4.2 8.0 -4.15 8.1 -4.15 8.2 -4.1 8.3 -4.05 8.4 -4.0 8.5 -3.95 8.65 -3.85 8.75 -3.8 8.85 -3.7 8.95 -3.6 9.1 -3.5 9.2 -3.35 9.35 -3.15 9.45 -3.0 9.6 -2.8 9.65 -2.65 9.75 -2.45 9.8 -2.3 9.85 -2.15 9.9 -2.0 9.9 -1.85 9.9 -1.7 9.95 -1.6 9.95 -1.5 9.95 -1.4 9.9 -1.35 9.9 -1.25 9.9 -1.1 9.9 -0.95 9.85 -0.8 9.85 -0.7 9.8 -0.55 9.75 -0.45 9.7 -0.35 9.65 -0.2 9.6 -0.1 9.55 -0.05 9.5 0.05 9.45 0.15 9.4 0.2 9.4 0.25 9.35 0.35 9.3 0.4 9.25 0.4 9.3 0.45 9.3 0.45 9.35 0.5 9.4 0.55 9.45 0.55 9.5 0.6 9.5 0.65 9.55 0.7 9.6 0.75 9.65 0.8 9.7 0.85 9.7 0.9 9.75 0.95 9.8 1.05 9.85 1.1 9.85 1.2 9.9 1.35 9.95 1.45 9.95 1.6 10.0 1.75 10.0 1.85 10.0 2.0 9.95 2.15 9.95 2.25 9.9 2.4 9.85 2.5 9.8 2.65 9.75 2.8 9.65 2.9 9.6 3.0 9.5 3.15 9.4 3.15 9.45 3.2 9.5 3.25 9.5 3.25 9.55 3.3 9.6 3.35 9.65 3.4 9.7 3.4 9.75 3.45 9.8 3.5 9.85 3.6 9.85 3.65 9.9 3.7 9.95 3.75 10.0 3.85 10.05 3.9 10.05 4.05 10.15 4.25 10.15 4.4 10.2 4.6 10.2 4.75 10.25 4.9 10.2 5.05 10.2 5.2 10.15 5.3 10.15 5.4 10.1 5.5 10.05 5.6 10.0 5.65 10.0 5.75 9.95 5.75 9.95 5.8 9.9 5.85 9.85 5.9 9.85 5.95 9.8 6.0 9.75 6.05 9.7 6.1 9.65 6.15 9.65 6.2 9.6 6.2 9.55 6.25 9.5 6.3 9.45 6.3 9.45 6.35 9.4 6.35 9.35 6.4 9.35 6.4 9.3 6.45 9.3 6.45 9.35 6.5 9.35 6.55 9.35 6.6 9.4 6.65 9.4 6.7 9.4 6.75 9.45 6.8 9.45 6.85 9.45 6.9 9.5 6.95 9.5 7.05 9.5 7.1 9.55 7.15 9.55 7.2 9.55 7.2 9.55 7.25 9.55 7.3 9.55 7.35 9.55 7.4 9.55 7.5 9.55 7.6 9.6 7.65 9.55 7.8 9.55 7.9 9.55 8.0 9.55 8.1 9.55 8.25 9.5 8.35 9.5 8.5 9.45 8.6 9.4 8.85 9.3 9.05 9.15 9.25 9.05 9.4 8.85 9.6 8.7 9.7 8.55 9.85 8.35 9.95 8.2 10.05 8.05 10.1 7.85 10.2 7.7 10.25 7.55 10.3 7.45 10.3 7.35 10.35 7.3 10.35 7.25 10.4 7.25 10.45 7.25 10.5 7.3 10.6 7.3 10.65 7.3 10.75 7.3 10.85 7.35 10.95 7.3 11.1 7.3 11.2 7.3 11.35 7.3 11.45 7.25 11.6 7.25 11.75 7.2 11.9 7.15 12.0 7.05 12.2 6.95 12.4 6.8 12.55 6.65 12.65 6.5 12.8 6.35 12.9 6.2 13.0 6.05 13.05 5.85 13.1 5.7 13.15 5.55 13.2 5.45 13.2 5.3 13.25 5.25 13.25 5.15 13.25 5.1 13.25 5.05 13.3 5.05 13.35 5.05 13.4 5.1 13.45 5.1 13.5 5.1 13.6 5.1 13.65 5.1 13.75 5.1 13.8 5.1 13.9 5.05 13.95 5.05 14.05 5.05 14.15 5.0 14.25 5.0 14.35 4.95 14.4 4.9 14.55 4.8 14.7 4.7 14.85 4.6 15.0 4.45 15.1 4.35 15.15 4.2 15.25 4.1 15.3 3.95 15.35 3.85 15.4 3.7 15.45 3.6 15.45 3.5 15.45 3.4 15.5 3.35 15.5 3.3 15.5 3.25 15.5 3.15 15.5 3.05 15.5 2.95 15.5 2.85 15.5 2.75 15.45 2.7 15.45 2.6 15.45 2.5 15.4 2.45 15.4 2.35 15.35 2.3 15.35 2.25 15.3 2.2 15.3 2.15 15.25 2.1 15.25 2.05 15.3 2.05 15.35 2.05 15.4 2.05 15.5 2.05 15.55 2.05 15.65 2.05 15.7 2.0 15.8 2.0 15.9 2.0 16.0 1.95 16.1 1.9 16.2 1.85 16.3 1.85 16.35 1.75 16.45 1.7 16.55 1.65 16.65 1.55 16.75 1.45 16.85 1.35 16.95 1.25 17.0 1.15 17.05 1.0 17.1 0.9 17.15 0.8 17.2 0.7 17.25 0.55 17.25 0.45 17.25 0.35 17.3 0.25 17.3 0.15 17.3 0.05 17.35 -0.05 17.35 -0.2 17.35 -0.35 17.35 -0.45 17.35 -0.6 17.35 -0.75 17.35 -0.85 17.3 -1.0 17.3 -1.1 17.3 -1.2 17.25 -1.3 17.2 -1.4 17.2 -1.5 17.15 -1.6 17.15 -1.7 17.1 -1.75 17.1 -1.85 17.15 -1.85 17.15 -1.85 17.2 -1.9 17.25 -1.9 17.3 -1.95 17.35 -1.95 17.45 -2.0 17.5 -2.05 17.6 -2.1 17.65 -2.15 17.7 -2.2 17.8 -2.25 17.85 -2.35 17.9 -2.4 18.0 -2.5 18.05 -2.6 18.15 -2.75 18.2 -2.9 18.25 -3.05 18.25 -3.2 18.3 -3.3 18.3 -3.45 18.3 -3.6 18.25 -3.7 18.25 -3.8 18.2 -3.95 18.2 -4.0 18.15 -4.1 18.15 -4.15 18.1 -4.2 18.1 -4.25 18.1 -4.3 18.05 -4.45 17.95 -4.55 17.85 -4.7 17.75 -4.8 17.65 -4.9 17.5 -4.95 17.4 -5.05 17.3 -5.1 17.2 -5.15 17.05 -5.2 16.95 -5.25 16.85 -5.3 16.75 -5.35 16.65 -5.35 16.55 -5.4 16.45 -5.4 16.3 -5.45 16.2 -5.45 16.1 -5.5 16.0 -5.5 15.9 -5.5 15.8 -5.5 15.75 -5.5 15.6 -5.5 15.45 -5.45 15.4 -5.45 15.3 -5.45 15.2 -5.45 15.05 -5.45 14.9 -5.5 14.75 -5.5 14.55 -5.5 14.2 -5.55 14.35 -5.55 14.2 -5.55 14.05 -5.6 13.9 -5.6 13.75 -5.65 13.6 -5.7 13.45 -5.7 13.3 -5.75 13.15 -5.85 13.0 -5.9 12.9 -5.95 12.8 -6.05 12.7 -6.15 12.65 -6.2 12.6 -6.35 12.6 -6.4 12.6 -6.45 12.6 -6.5 12.6 -6.5 12.6 -6.55 12.65 -6.6 12.65 -6.65 12.7 -6.75 12.75 -6.75 12.8 -6.85 12.85 -6.95 12.9 -7.05 13.0 -7.15 13.05 -7.25 13.1 -7.4 13.2 -7.55 13.3 -7.75 13.35 -7.85 13.45 -8.0 13.5 -8.1 13.55 -8.2 13.6 -8.3 13.65 -8.4 13.65 -8.5 13.7 -8.6 13.75 -8.7 13.75 -8.8 13.8 -8.9 13.8 -8.95 13.8 -9.05 13.8 -9.15 13.8 -9.25 13.8 -9.35 13.75 -9.5 13.75 -9.6 13.7 -9.75 13.65 -9.85 13.6 -9.95 13.55 -10.05 13.45 -10.15 13.4 -10.25 13.3 -10.35 13.2 -10.45 13.15 -10.55 13.05 -10.6 12.95 -10.7 12.85 -10.75 12.75 -10.8 12.55 -10.9 12.4 -10.95 12.2 -11.05 12.0 -11.05 11.85 -11.1 11.7 -11.1 11.55 -11.1 11.35 -11.1 11.25 -11.05 11.1 -11.05 11.0 -11.0 10.9 -11.0 10.8 -10.95 10.75 -10.95 10.7 -10.9 10.65 -10.9 10.65 -10.95 10.6 -10.95 10.6 -11.0 10.6 -11.05 10.55 -11.1 10.55 -11.15 10.5 -11.2 10.5 -11.25 10.45 -11.3 10.4 -11.35 10.35 -11.4 10.35 -11.45 10.3 -11.5 10.25 -11.55 10.2 -11.6 10.15 -11.65 10.15 -11.65 10.1 -11.65 9.95 -11.75 10.05 -11.7 9.95 -11.75 9.9 -11.8 9.8 -11.85 9.75 -11.9 9.65 -11.95 9.5 -12.0 9.4 -12.05 9.3 -12.05 9.15 -12.1 9.0 -12.15 8.85 -12.15 8.7 -12.15 8.6 -12.15 8.55 -12.15 8.45 -12.15 8.35 -12.1 8.25 -12.1 8.15 -12.05 8.05 -12.0 7.9 -11.95 7.75 -11.9 7.65 -11.8 7.5 -11.7 7.35 -11.6 7.15 -11.5 7.0 -11.3 6.85 -11.15 6.65 -10.95 6.3 -10.6 6.0 -10.15 5.7 -9.75 5.45 -9.3 5.2 -8.9 4.95 -8.4 4.75 -7.95 4.5 -7.5 4.35 -7.05 4.15 -6.6 4.0 -6.25 3.85 -5.8 3.75 -5.5 3.65 -5.15 3.55 -4.9 3.5 -4.65 L3.5 -4.65" fill="#0d3a6b" fill-rule="evenodd" stroke="none"/>
  </g>
</svg>
