<?xml version="1.0" encoding="UTF-8" standalone="no"?>
<svg xmlns:xlink="http://www.w3.org/1999/xlink" height="50.8px" width="51.6px" xmlns="http://www.w3.org/2000/svg">
  <g transform="matrix(1.0, 0.0, 0.0, 1.0, 25.8, 25.4)">
    <path d="M-13.65 -22.05 Q-13.8 -22.05 -13.95 -22.0 -14.1 -21.95 -14.25 -21.85 -14.4 -21.8 -14.55 -21.7 -14.7 -21.65 -14.85 -21.5 -14.95 -21.45 -15.15 -21.35 -15.35 -21.2 -15.4 -21.15 -15.55 -21.05 -15.7 -20.95 -15.85 -20.85 -15.95 -20.8 -16.05 -20.75 -16.1 -20.75 -16.2 -20.7 -16.25 -20.65 -16.3 -20.6 -16.4 -20.55 -16.45 -20.5 -16.5 -20.45 -16.55 -20.4 -16.55 -20.35 -16.6 -20.3 -16.6 -20.2 -16.6 -20.15 -16.55 -20.1 -16.5 -20.0 -16.45 -19.95 -16.3 -19.85 -16.1 -19.7 -15.95 -19.6 -15.75 -19.5 -15.55 -19.4 -15.35 -19.3 -15.2 -19.2 -15.0 -19.1 -14.8 -19.0 -14.6 -18.95 -14.4 -18.85 -14.2 -18.8 -14.0 -18.75 -13.75 -18.7 -13.55 -18.65 -13.35 -18.6 -13.2 -18.6 -13.05 -18.65 -12.9 -18.7 -12.75 -18.8 -12.65 -18.9 -12.55 -19.0 -12.45 -19.1 -12.35 -19.25 -12.25 -19.4 -12.2 -19.55 -12.1 -19.7 -12.1 -19.85 -12.05 -20.0 -12.0 -20.1 -12.0 -20.25 -12.0 -20.35 -12.0 -20.55 -12.0 -20.75 -12.05 -20.9 -12.1 -21.05 -12.15 -21.25 -12.25 -21.35 -12.35 -21.5 -12.45 -21.6 -12.55 -21.7 -12.7 -21.8 -12.85 -21.9 -13.0 -21.95 -13.15 -22.0 -13.3 -22.05 -13.5 -22.05 -13.65 -22.05 L-13.65 -22.05" fill="#ff0000" fill-rule="evenodd" stroke="none"/>
    <path d="M-13.65 -22.05 Q-13.8 -22.05 -13.95 -22.0 -14.1 -21.95 -14.25 -21.85 -14.4 -21.8 -14.55 -21.7 -14.7 -21.65 -14.85 -21.5 -14.95 -21.45 -15.15 -21.35 -15.35 -21.2 -15.4 -21.15 -15.55 -21.05 -15.7 -20.95 -15.85 -20.85 -15.95 -20.8 -16.05 -20.75 -16.1 -20.75 -16.2 -20.7 -16.25 -20.65 -16.3 -20.6 -16.4 -20.55 -16.45 -20.5 -16.5 -20.45 -16.55 -20.4 -16.55 -20.35 -16.6 -20.3 -16.6 -20.2 -16.6 -20.15 -16.55 -20.1 -16.5 -20.0 -16.45 -19.95 -16.3 -19.85 -16.1 -19.7 -15.95 -19.6 -15.75 -19.5 -15.55 -19.4 -15.35 -19.3 -15.2 -19.2 -15.0 -19.1 -14.8 -19.0 -14.6 -18.95 -14.4 -18.85 -14.2 -18.8 -14.0 -18.75 -13.75 -18.7 -13.55 -18.65 -13.35 -18.6 -13.2 -18.6 -13.05 -18.65 -12.9 -18.7 -12.75 -18.8 -12.65 -18.9 -12.55 -19.0 -12.45 -19.1 -12.35 -19.25 -12.25 -19.4 -12.2 -19.55 -12.1 -19.7 -12.1 -19.85 -12.05 -20.0 -12.0 -20.1 -12.0 -20.25 -12.0 -20.35 -12.0 -20.55 -12.0 -20.75 -12.05 -20.9 -12.1 -21.05 -12.15 -21.25 -12.25 -21.35 -12.35 -21.5 -12.45 -21.6 -12.55 -21.7 -12.7 -21.8 -12.85 -21.9 -13.0 -21.95 -13.15 -22.0 -13.3 -22.05 -13.5 -22.05 -13.65 -22.05 L-13.65 -22.05 Z" fill="none" stroke="#000000" stroke-linecap="round" stroke-linejoin="round" stroke-width="0.35000000000000003"/>
    <path d="M-8.3 -21.05 Q-8.5 -21.0 -8.7 -20.95 -8.9 -20.9 -9.1 -20.75 -9.25 -20.65 -9.4 -20.5 -9.5 -20.4 -9.65 -20.2 -9.75 -20.05 -9.8 -19.9 -9.9 -19.7 -9.95 -19.5 -9.95 -19.35 -10.0 -19.15 -10.0 -18.95 -9.95 -18.8 -9.95 -18.7 -9.95 -18.55 -9.95 -18.45 -9.95 -18.3 -9.9 -18.2 -9.85 -18.1 -9.8 -17.95 -9.75 -17.85 -9.7 -17.75 -9.6 -17.65 -9.55 -17.55 -9.45 -17.45 -9.35 -17.4 -9.2 -17.35 -9.1 -17.3 -8.95 -17.25 -8.8 -17.25 -8.7 -17.2 -8.55 -17.2 -8.4 -17.2 -8.25 -17.2 -8.15 -17.2 -8.0 -17.25 -7.85 -17.25 -7.75 -17.3 -7.6 -17.35 -7.5 -17.4 -7.35 -17.45 -7.25 -17.5 -7.15 -17.6 -7.05 -17.65 -6.95 -17.75 -6.9 -17.8 -6.85 -17.8 -6.8 -17.85 -6.8 -17.9 -6.75 -17.9 -6.7 -17.95 -6.7 -18.0 -6.65 -18.05 -6.65 -18.1 -6.6 -18.1 -6.6 -18.15 -6.6 -18.2 -6.6 -18.25 -6.6 -18.3 -6.6 -18.35 -6.65 -18.4 -6.55 -18.45 -6.45 -18.5 -6.4 -18.6 -6.3 -18.65 -6.3 -18.75 -6.25 -18.85 -6.25 -18.95 -6.2 -19.05 -6.2 -19.15 -6.25 -19.25 -6.25 -19.35 -6.25 -19.45 -6.3 -19.55 -6.3 -19.65 -6.35 -19.7 -6.35 -19.8 -6.4 -19.9 -6.45 -20.0 -6.5 -20.1 -6.55 -20.2 -6.65 -20.3 -6.7 -20.35 -6.75 -20.45 -6.85 -20.55 -6.95 -20.65 -7.0 -20.7 -7.1 -20.75 -7.2 -20.8 -7.3 -20.9 -7.4 -20.9 -7.55 -20.95 -7.65 -20.95 -7.7 -20.95 -7.75 -20.95 -7.8 -20.95 -7.8 -20.95 -7.85 -20.95 -7.9 -20.95 -7.95 -20.95 -7.95 -21.0 -8.05 -21.0 -8.05 -21.0 -8.1 -21.05 -8.1 -21.05 -8.15 -21.05 -8.2 -21.05 -8.25 -21.05 -8.3 -21.05 L-8.3 -21.05" fill="#ff0000" fill-rule="evenodd" stroke="none"/>
    <path d="M-8.3 -21.05 Q-8.5 -21.0 -8.7 -20.95 -8.9 -20.9 -9.1 -20.75 -9.25 -20.65 -9.4 -20.5 -9.5 -20.4 -9.65 -20.2 -9.75 -20.05 -9.8 -19.9 -9.9 -19.7 -9.95 -19.5 -9.95 -19.35 -10.0 -19.15 -10.0 -18.95 -9.95 -18.8 -9.95 -18.7 -9.95 -18.55 -9.95 -18.45 -9.95 -18.3 -9.9 -18.2 -9.85 -18.1 -9.8 -17.95 -9.75 -17.85 -9.7 -17.75 -9.6 -17.65 -9.55 -17.55 -9.45 -17.45 -9.35 -17.4 -9.2 -17.35 -9.1 -17.3 -8.95 -17.25 -8.8 -17.25 -8.7 -17.2 -8.55 -17.2 -8.4 -17.2 -8.25 -17.2 -8.15 -17.2 -8.0 -17.25 -7.85 -17.25 -7.75 -17.3 -7.6 -17.35 -7.5 -17.4 -7.35 -17.45 -7.25 -17.5 -7.15 -17.6 -7.05 -17.65 -6.95 -17.75 -6.9 -17.8 -6.85 -17.8 -6.8 -17.85 -6.8 -17.9 -6.75 -17.9 -6.7 -17.95 -6.7 -18.0 -6.65 -18.05 -6.65 -18.1 -6.6 -18.1 -6.6 -18.15 -6.6 -18.2 -6.6 -18.25 -6.6 -18.3 -6.6 -18.35 -6.65 -18.4 -6.55 -18.45 -6.45 -18.5 -6.4 -18.6 -6.3 -18.65 -6.3 -18.75 -6.25 -18.85 -6.25 -18.95 -6.2 -19.05 -6.2 -19.15 -6.25 -19.25 -6.25 -19.35 -6.25 -19.45 -6.3 -19.55 -6.3 -19.65 -6.35 -19.7 -6.35 -19.8 -6.4 -19.9 -6.45 -20.0 -6.5 -20.1 -6.55 -20.2 -6.65 -20.3 -6.7 -20.35 -6.75 -20.45 -6.85 -20.55 -6.95 -20.65 -7.0 -20.7 -7.1 -20.75 -7.2 -20.8 -7.3 -20.9 -7.4 -20.9 -7.55 -20.95 -7.65 -20.95 -7.7 -20.95 -7.75 -20.95 -7.8 -20.95 -7.8 -20.95 -7.85 -20.95 -7.9 -20.95 -7.95 -20.95 -7.95 -21.0 -8.05 -21.0 -8.05 -21.0 -8.1 -21.05 -8.1 -21.05 -8.15 -21.05 -8.2 -21.05 -8.25 -21.05 -8.3 -21.05 L-8.3 -21.05 Z" fill="none" stroke="#000000" stroke-linecap="round" stroke-linejoin="round" stroke-width="0.35000000000000003"/>
    <path d="M-1.7 -20.9 Q-1.85 -20.85 -2.0 -20.8 -2.15 -20.75 -2.25 -20.65 -2.4 -20.55 -2.5 -20.45 -2.65 -20.35 -2.7 -20.25 -2.8 -20.15 -2.9 -20.0 -2.95 -19.9 -3.0 -19.75 -3.1 -19.6 -3.1 -19.5 -3.15 -19.35 -3.15 -19.2 -3.15 -19.05 -3.15 -18.9 -3.15 -18.75 -3.1 -18.65 -3.05 -18.5 -3.0 -18.35 -2.95 -18.25 -2.85 -18.1 -2.75 -18.0 -2.65 -17.85 -2.55 -17.75 -2.45 -17.65 -2.35 -17.55 -2.2 -17.45 -2.1 -17.35 -1.95 -17.25 -1.9 -17.2 -1.85 -17.15 -1.8 -17.1 -1.7 -17.05 -1.65 -17.05 -1.55 -17.0 -1.5 -17.0 -1.4 -17.0 -1.35 -17.0 -1.25 -17.0 -1.2 -17.0 -1.1 -17.05 -1.05 -17.05 -1.0 -17.1 -0.9 -17.15 -0.85 -17.2 -0.65 -17.3 -0.45 -17.45 -0.25 -17.6 -0.1 -17.8 0.05 -18.0 0.15 -18.2 0.3 -18.4 0.35 -18.6 0.4 -18.85 0.45 -19.05 0.45 -19.3 0.4 -19.5 0.35 -19.7 0.25 -19.9 0.15 -20.15 0.0 -20.3 -0.05 -20.35 -0.15 -20.45 -0.2 -20.5 -0.3 -20.55 -0.35 -20.6 -0.45 -20.65 -0.55 -20.75 -0.65 -20.75 -0.7 -20.8 -0.8 -20.85 -0.9 -20.85 -1.0 -20.85 -1.1 -20.85 -1.2 -20.85 -1.3 -20.85 -1.4 -20.8 -1.45 -20.8 -1.45 -20.85 -1.5 -20.85 -1.55 -20.85 -1.6 -20.85 -1.65 -20.9 -1.7 -20.9 -1.7 -20.9 L-1.7 -20.9" fill="#ff0000" fill-rule="evenodd" stroke="none"/>
    <path d="M-1.7 -20.9 Q-1.85 -20.85 -2.0 -20.8 -2.15 -20.75 -2.25 -20.65 -2.4 -20.55 -2.5 -20.45 -2.65 -20.35 -2.7 -20.25 -2.8 -20.15 -2.9 -20.0 -2.95 -19.9 -3.0 -19.75 -3.1 -19.6 -3.1 -19.5 -3.15 -19.35 -3.15 -19.2 -3.15 -19.05 -3.15 -18.9 -3.15 -18.75 -3.1 -18.65 -3.05 -18.5 -3.0 -18.35 -2.95 -18.25 -2.85 -18.1 -2.75 -18.0 -2.65 -17.85 -2.55 -17.75 -2.45 -17.65 -2.35 -17.55 -2.2 -17.45 -2.1 -17.35 -1.95 -17.25 -1.9 -17.2 -1.85 -17.15 -1.8 -17.1 -1.7 -17.05 -1.65 -17.05 -1.55 -17.0 -1.5 -17.0 -1.4 -17.0 -1.35 -17.0 -1.25 -17.0 -1.2 -17.0 -1.1 -17.05 -1.05 -17.05 -1.0 -17.1 -0.9 -17.15 -0.85 -17.2 -0.65 -17.3 -0.45 -17.45 -0.25 -17.6 -0.1 -17.8 0.05 -18.0 0.15 -18.2 0.3 -18.4 0.35 -18.6 0.4 -18.85 0.45 -19.05 0.45 -19.3 0.4 -19.5 0.35 -19.7 0.25 -19.9 0.15 -20.15 0.0 -20.3 -0.05 -20.35 -0.15 -20.45 -0.2 -20.5 -0.3 -20.55 -0.35 -20.6 -0.45 -20.65 -0.55 -20.75 -0.65 -20.75 -0.7 -20.8 -0.8 -20.85 -0.9 -20.85 -1.0 -20.85 -1.1 -20.85 -1.2 -20.85 -1.3 -20.85 -1.4 -20.8 -1.45 -20.8 -1.45 -20.85 -1.5 -20.85 -1.55 -20.85 -1.6 -20.85 -1.65 -20.9 -1.7 -20.9 -1.7 -20.9 L-1.7 -20.9 Z" fill="none" stroke="#000000" stroke-linecap="round" stroke-linejoin="round" stroke-width="0.35000000000000003"/>
    <path d="M3.65 -21.25 Q3.6 -21.25 3.5 -21.25 3.4 -21.25 3.35 -21.2 3.25 -21.2 3.2 -21.15 3.15 -21.1 3.05 -21.05 3.0 -21.05 2.95 -21.0 2.95 -20.9 2.9 -20.85 2.9 -20.8 2.9 -20.75 2.9 -20.65 2.9 -20.6 2.9 -20.6 4.25 -19.35 4.3 -19.3 4.35 -19.25 4.4 -19.2 4.5 -19.15 4.5 -19.15 4.6 -19.05 4.65 -19.0 4.7 -18.95 4.75 -18.9 4.8 -18.9 4.9 -18.85 4.95 -18.8 5.0 -18.75 5.05 -18.7 5.15 -18.7 5.2 -18.65 5.25 -18.65 5.35 -18.65 5.4 -18.65 5.45 -18.7 5.55 -18.7 5.6 -18.75 5.65 -18.8 5.65 -18.85 5.7 -18.9 5.75 -18.95 5.75 -19.0 5.75 -19.05 5.75 -19.1 5.75 -19.15 5.7 -19.2 5.7 -19.25 5.65 -19.35 5.55 -19.5 5.5 -19.6 5.4 -19.75 5.3 -19.9 5.3 -20.0 5.2 -20.1 5.15 -20.2 5.05 -20.35 5.0 -20.45 4.9 -20.55 4.8 -20.65 4.7 -20.8 4.6 -20.85 4.5 -20.95 4.4 -21.05 4.35 -21.1 4.3 -21.1 4.25 -21.1 4.2 -21.15 4.2 -21.15 4.15 -21.15 4.1 -21.2 4.05 -21.2 4.0 -21.2 3.95 -21.2 3.9 -21.2 3.85 -21.2 3.8 -21.2 3.75 -21.2 3.7 -21.25 3.65 -21.25 L3.65 -21.25" fill="#ff0000" fill-rule="evenodd" stroke="none"/>
    <path d="M3.65 -21.25 Q3.6 -21.25 3.5 -21.25 3.4 -21.25 3.35 -21.2 3.25 -21.2 3.2 -21.15 3.15 -21.1 3.05 -21.05 3.0 -21.05 2.95 -21.0 2.95 -20.9 2.9 -20.85 2.9 -20.8 2.9 -20.75 2.9 -20.65 2.9 -20.6 2.9 -20.6 4.25 -19.35 4.3 -19.3 4.35 -19.25 4.4 -19.2 4.5 -19.15 4.5 -19.15 4.6 -19.05 4.65 -19.0 4.7 -18.95 4.75 -18.9 4.8 -18.9 4.9 -18.85 4.95 -18.8 5.0 -18.75 5.05 -18.7 5.15 -18.7 5.2 -18.65 5.25 -18.65 5.35 -18.65 5.4 -18.65 5.45 -18.7 5.55 -18.7 5.6 -18.75 5.65 -18.8 5.65 -18.85 5.7 -18.9 5.75 -18.95 5.75 -19.0 5.75 -19.05 5.75 -19.1 5.75 -19.15 5.7 -19.2 5.7 -19.25 5.65 -19.35 5.55 -19.5 5.5 -19.6 5.4 -19.75 5.3 -19.9 5.3 -20.0 5.2 -20.1 5.15 -20.2 5.05 -20.35 5.0 -20.45 4.9 -20.55 4.8 -20.65 4.7 -20.8 4.6 -20.85 4.5 -20.95 4.4 -21.05 4.35 -21.1 4.3 -21.1 4.25 -21.1 4.2 -21.15 4.2 -21.15 4.15 -21.15 4.1 -21.2 4.05 -21.2 4.0 -21.2 3.95 -21.2 3.9 -21.2 3.85 -21.2 3.8 -21.2 3.75 -21.2 3.7 -21.25 3.65 -21.25 L3.65 -21.25 Z" fill="none" stroke="#000000" stroke-linecap="round" stroke-linejoin="round" stroke-width="0.2"/>
    <path d="M2.6 -20.75 Q2.5 -20.65 2.45 -20.55 2.35 -20.45 2.3 -20.35 2.25 -20.25 2.2 -20.15 2.2 -20.05 2.15 -19.9 2.15 -19.8 2.15 -19.7 2.15 -19.55 2.15 -19.45 2.2 -19.35 2.2 -19.25 2.25 -19.1 2.3 -19.0 2.35 -18.9 2.4 -18.85 2.5 -18.75 2.55 -18.65 2.65 -18.6 2.7 -18.5 2.8 -18.45 2.9 -18.4 3.0 -18.35 3.1 -18.3 3.2 -18.25 3.3 -18.2 3.4 -18.2 3.5 -18.15 3.65 -18.15 3.75 -18.15 5.2 -18.2 5.3 -18.25 5.35 -18.25 5.4 -18.3 5.5 -18.35 5.5 -18.4 5.55 -18.4 5.55 -18.5 5.6 -18.55 5.6 -18.6 5.6 -18.65 5.55 -18.7 5.55 -18.75 5.5 -18.8 5.5 -18.85 5.45 -18.9 5.35 -18.95 5.3 -18.95 5.25 -19.0 4.0 -19.95 3.95 -20.0 3.9 -20.05 3.85 -20.1 3.75 -20.15 3.7 -20.2 3.65 -20.3 3.55 -20.35 3.55 -20.4 3.5 -20.45 3.45 -20.5 3.35 -20.55 3.3 -20.6 3.25 -20.65 3.2 -20.7 3.1 -20.75 3.05 -20.8 3.0 -20.8 2.95 -20.85 2.9 -20.85 2.85 -20.85 2.8 -20.85 2.75 -20.85 2.75 -20.8 2.7 -20.8 2.65 -20.8 2.6 -20.75 L2.6 -20.75" fill="#ff0000" fill-rule="evenodd" stroke="none"/>
    <path d="M2.6 -20.75 Q2.5 -20.65 2.45 -20.55 2.35 -20.45 2.3 -20.35 2.25 -20.25 2.2 -20.15 2.2 -20.05 2.15 -19.9 2.15 -19.8 2.15 -19.7 2.15 -19.55 2.15 -19.45 2.2 -19.35 2.2 -19.25 2.25 -19.1 2.3 -19.0 2.35 -18.9 2.4 -18.85 2.5 -18.75 2.55 -18.65 2.65 -18.6 2.7 -18.5 2.8 -18.45 2.9 -18.4 3.0 -18.35 3.1 -18.3 3.2 -18.25 3.3 -18.2 3.4 -18.2 3.5 -18.15 3.65 -18.15 3.75 -18.15 5.2 -18.2 5.3 -18.25 5.35 -18.25 5.4 -18.3 5.5 -18.35 5.5 -18.4 5.55 -18.4 5.55 -18.5 5.6 -18.55 5.6 -18.6 5.6 -18.65 5.55 -18.7 5.55 -18.75 5.5 -18.8 5.5 -18.85 5.45 -18.9 5.35 -18.95 5.3 -18.95 5.25 -19.0 4.0 -19.95 3.95 -20.0 3.9 -20.05 3.85 -20.1 3.75 -20.15 3.7 -20.2 3.65 -20.3 3.55 -20.35 3.55 -20.4 3.5 -20.45 3.45 -20.5 3.35 -20.55 3.3 -20.6 3.25 -20.65 3.2 -20.7 3.1 -20.75 3.05 -20.8 3.0 -20.8 2.95 -20.85 2.9 -20.85 2.85 -20.85 2.8 -20.85 2.75 -20.85 2.75 -20.8 2.7 -20.8 2.65 -20.8 2.6 -20.75 L2.6 -20.75 Z" fill="none" stroke="#000000" stroke-linecap="round" stroke-linejoin="round" stroke-width="0.2"/>
  </g>
</svg>
