<?xml version="1.0" encoding="UTF-8" standalone="no"?>
<svg xmlns:xlink="http://www.w3.org/1999/xlink" height="35.75px" width="31.2px" xmlns="http://www.w3.org/2000/svg">
  <g transform="matrix(1.0, 0.0, 0.0, 1.0, 7.7, 17.5)">
    <path d="M8.85 12.35 L8.5 12.35 7.5 12.25 6.5 12.2 5.45 12.05 4.4 11.85 4.35 11.95 4.35 12.05 4.15 12.05 3.9 12.05 3.5 11.9 3.1 11.75 2.85 11.75 2.6 11.75 2.05 11.55 1.5 11.35 1.1 11.2 0.65 11.05 0.25 10.85 -0.2 10.65 -0.6 10.45 -1.05 10.2 -1.2 10.1 -1.4 10.0 -1.8 9.75 -2.25 9.45 -2.5 9.25 -2.75 9.1 -3.2 8.7 -3.7 8.35 -4.3 7.85 -4.95 7.35 -5.8 6.65 -6.7 5.9 -7.9 4.65 -9.15 3.4 -9.9 2.6 -10.6 1.8 -10.6 1.75 -10.6 1.65 -10.75 1.55 -10.85 1.45 -11.3 0.85 -11.75 0.25 -11.75 0.25 -11.75 0.2 -12.05 -0.25 -12.35 -0.7 -12.35 -0.75 -12.35 -0.8 -12.7 -1.25 -13.0 -1.7 -13.15 -1.8 -13.3 -1.9 -13.3 -2.15 -13.3 -2.4 -13.0 -2.4 -12.7 -2.4 -12.45 -2.15 -12.2 -1.9 -12.2 -1.85 -12.2 -1.8 -11.9 -1.3 -11.6 -0.85 -11.6 -0.85 -11.6 -0.8 -11.45 -0.55 -11.25 -0.3 -11.2 -0.2 -11.1 -0.05 -10.95 0.15 -10.8 0.4 -10.45 0.8 -10.1 1.2 -10.1 1.3 -10.05 1.4 -8.75 2.75 -7.5 4.15 -7.45 4.15 -7.45 4.15 -7.6 3.85 -7.8 3.55 -8.0 3.15 -8.25 2.75 -9.8 -0.35 -11.4 -3.45 -11.4 -3.6 -11.4 -3.75 -10.85 -4.6 -10.35 -5.45 -9.55 -6.55 -8.75 -7.65 -8.65 -7.65 -8.55 -7.7 -6.65 -7.95 -4.8 -8.15 -3.45 -8.3 -2.1 -8.4 -0.3 -8.5 1.5 -8.55 3.9 -8.5 6.35 -8.5 7.4 -8.4 8.5 -8.3 9.6 -8.2 10.7 -8.1 12.4 -7.85 14.1 -7.65 15.15 -7.45 16.25 -7.25 17.5 -7.0 18.8 -6.7 19.7 -6.55 21.05 -4.9 21.55 -3.95 21.5 -2.75 21.45 -1.55 21.3 -0.65 21.2 0.2 20.95 1.25 20.75 2.3 20.55 2.95 20.35 3.55 20.1 4.25 19.9 4.95 19.65 5.5 19.45 6.05 19.0 7.0 18.55 7.9 18.45 8.05 18.35 8.2 18.2 8.45 18.0 8.7 18.0 8.75 18.0 8.75 17.55 9.35 17.1 9.95 16.6 10.45 16.05 10.95 15.6 11.3 15.1 11.6 14.9 11.8 14.7 11.95 14.6 11.95 14.55 11.95 14.45 12.05 14.35 12.2 14.05 12.2 13.75 12.2 13.75 12.1 13.7 12.0 13.05 12.15 12.35 12.25 11.45 12.35 10.55 12.4 9.9 12.4 9.25 12.4 8.85 12.35" fill="#ffffff" fill-rule="evenodd" stroke="none"/>
  </g>
</svg>
