<?xml version="1.0" encoding="UTF-8" standalone="no"?>
<svg xmlns:xlink="http://www.w3.org/1999/xlink" height="145.3px" width="103.3px" xmlns="http://www.w3.org/2000/svg">
  <g transform="matrix(1.0, 0.0, 0.0, 1.0, 51.65, 72.65)">
    <path d="M-41.15 26.3 L-44.05 26.15 -44.65 25.9 -45.25 25.65 -46.0 24.95 -46.8 24.25 -47.5 23.35 -48.2 22.45 -48.75 21.45 -49.3 20.5 -49.8 19.0 -50.3 17.45 -50.7 15.5 -51.05 13.55 -51.2 11.3 -51.4 9.1 -51.2 6.1 -51.05 3.15 -50.7 1.15 -50.3 -0.85 -50.0 -1.95 -49.7 -3.05 -49.3 -4.05 -48.85 -5.05 -48.45 -5.9 -48.05 -6.8 -47.35 -7.95 -46.65 -9.1 -45.95 -10.0 -45.3 -10.9 -39.85 -16.3 -34.45 -21.7 -32.7 -23.7 -31.0 -25.7 -29.75 -27.25 -28.5 -28.85 -27.45 -30.5 -26.35 -32.1 -25.8 -33.05 -25.25 -34.0 -25.0 -34.7 -24.7 -35.45 -24.65 -35.9 -24.6 -36.4 -24.3 -36.75 -23.95 -37.1 -24.1 -37.75 -24.3 -38.4 -24.1 -39.0 -23.95 -39.55 -23.65 -39.9 -23.4 -40.3 -22.8 -41.55 -22.2 -42.75 -22.3 -43.35 -22.35 -43.95 -23.55 -48.1 -24.7 -52.25 -25.05 -54.4 -25.45 -56.55 -25.45 -58.2 -25.45 -59.85 -25.3 -60.8 -25.15 -61.75 -25.0 -63.9 -24.85 -66.0 -24.65 -66.4 -24.45 -66.8 -23.8 -67.35 -23.15 -67.9 -22.9 -68.75 -22.65 -69.6 -22.05 -70.35 -21.4 -71.1 -20.65 -71.5 -19.9 -71.95 -19.15 -72.05 -18.35 -72.2 -17.65 -72.05 -16.95 -71.9 -15.65 -71.0 -14.3 -70.15 -12.35 -69.0 -10.45 -67.9 -8.1 -66.65 -5.8 -65.45 -4.15 -64.5 -2.55 -63.55 -1.3 -62.65 -0.1 -61.8 0.95 -60.95 2.0 -60.1 3.2 -58.85 4.4 -57.55 4.8 -57.0 5.15 -56.45 5.2 -56.45 5.25 -56.45 6.05 -57.0 6.8 -57.6 8.45 -58.55 10.1 -59.5 11.45 -60.45 12.85 -61.4 13.65 -62.2 14.45 -63.0 14.9 -63.9 15.35 -64.85 15.35 -65.1 15.35 -65.35 15.65 -65.65 15.95 -65.95 16.25 -65.95 16.6 -65.95 17.3 -65.4 17.95 -64.9 19.05 -63.65 20.1 -62.35 21.35 -60.75 22.55 -59.15 23.35 -57.9 24.1 -56.65 24.4 -55.7 24.65 -54.75 24.9 -53.6 25.15 -52.4 25.8 -50.15 26.45 -47.85 26.9 -46.8 27.3 -45.75 28.2 -44.35 29.1 -43.0 29.25 -42.4 29.35 -41.85 29.25 -41.05 29.1 -40.3 28.85 -39.95 28.6 -39.6 28.7 -39.25 28.8 -38.95 29.35 -36.75 29.95 -34.55 30.1 -34.15 30.25 -33.75 30.4 -33.05 30.55 -32.4 31.3 -30.4 32.05 -28.45 32.95 -26.6 33.85 -24.75 34.45 -23.75 35.05 -22.75 36.0 -21.05 36.95 -19.35 38.95 -15.35 40.95 -11.35 42.05 -8.05 43.15 -4.75 44.0 -2.35 44.9 0.1 45.0 1.6 45.05 3.15 45.2 3.3 45.3 3.45 46.85 6.5 48.35 9.6 49.1 11.35 49.8 13.1 50.25 14.4 50.7 15.7 50.95 16.65 51.15 17.6 51.4 18.85 51.6 20.1 51.35 20.45 51.05 20.85 50.5 21.05 49.9 21.2 48.55 21.45 47.15 21.65 43.2 21.8 39.25 22.0 36.9 21.75 34.55 21.5 32.8 21.05 31.05 20.6 29.65 20.0 28.3 19.4 27.55 18.95 26.8 18.5 25.95 17.85 25.15 17.25 24.55 16.45 24.0 15.7 23.4 14.55 22.85 13.4 21.85 11.1 20.85 8.85 20.2 7.4 19.5 5.9 18.45 4.25 17.45 2.55 16.2 0.8 15.0 -0.9 14.95 -0.05 14.9 0.8 15.1 4.55 15.25 8.25 15.25 10.35 15.25 12.4 14.6 13.65 13.95 14.95 12.8 16.05 11.6 17.2 10.7 17.75 9.8 18.3 8.3 18.95 6.8 19.6 6.15 19.75 5.5 19.9 2.75 20.1 0.05 20.3 -1.1 20.6 -2.25 20.9 -3.1 21.1 -3.95 21.35 -4.7 21.55 -5.5 21.75 -7.85 22.35 -10.15 22.95 -11.7 23.3 -13.25 23.65 -14.55 23.95 -15.85 24.25 -17.2 24.45 -18.5 24.7 -19.95 24.9 -21.4 25.15 -23.85 25.35 -26.25 25.55 -28.15 25.65 -30.05 25.75 -31.2 25.9 -32.4 26.0 -34.05 26.15 -35.75 26.3 -37.0 26.35 -38.25 26.4 -41.15 26.3 -41.15 26.3 M-33.1 22.9 L-29.45 21.4 -26.2 20.0 -22.9 18.6 -22.0 18.2 -21.15 17.8 -17.9 16.55 -14.7 15.25 -12.8 14.35 -10.9 13.5 -9.0 12.45 -7.1 11.35 -5.95 10.6 -4.75 9.85 -3.1 8.45 -1.4 7.1 0.05 5.6 1.55 4.15 2.95 2.4 4.35 0.65 4.75 -0.05 5.15 -0.75 5.5 -0.8 5.85 -0.9 6.05 -0.75 6.3 -0.55 6.3 -0.15 6.3 0.25 5.75 1.05 5.2 1.85 3.85 3.55 2.45 5.25 0.65 7.0 -1.15 8.75 -2.75 10.05 -4.4 11.35 -6.4 12.55 -8.4 13.75 -11.05 15.05 -13.7 16.35 -16.95 17.65 -20.25 19.0 -21.95 19.7 -23.6 20.45 -25.1 21.05 -26.55 21.7 -28.8 22.65 -31.05 23.6 -31.6 23.8 -32.1 24.0 -31.35 23.9 -30.65 23.85 -28.1 23.7 -25.5 23.55 -23.75 23.4 -22.0 23.25 -19.95 22.95 -17.9 22.65 -17.1 22.5 -16.3 22.35 -15.3 22.15 -14.25 21.9 -12.45 21.45 -10.6 21.05 -8.5 20.5 -6.35 20.0 -3.95 19.35 -1.55 18.7 0.0 18.4 1.5 18.15 2.85 18.15 4.15 18.15 5.25 17.9 6.35 17.7 7.4 17.25 8.5 16.8 9.15 16.45 9.85 16.05 10.65 15.45 11.4 14.9 11.85 14.35 12.3 13.8 12.8 13.05 13.3 12.25 13.4 11.3 13.5 10.3 13.3 8.55 13.15 6.8 13.0 0.35 12.85 -6.05 12.6 -8.4 12.3 -10.75 12.15 -11.6 12.0 -12.5 11.65 -14.4 11.25 -16.3 11.05 -17.3 10.8 -18.35 10.6 -19.35 10.35 -20.4 9.95 -22.75 9.5 -25.05 9.25 -26.85 9.05 -28.65 8.85 -30.95 8.6 -33.25 8.6 -34.5 8.6 -35.75 8.75 -37.35 8.95 -38.95 9.15 -40.1 9.35 -41.25 9.4 -41.35 9.5 -41.5 8.4 -41.95 7.25 -42.45 6.0 -43.15 4.8 -43.85 2.3 -45.45 -0.15 -47.05 -2.1 -48.2 -4.05 -49.3 -6.05 -50.25 -8.05 -51.15 -9.35 -51.6 -10.6 -52.0 -11.7 -52.2 -12.8 -52.4 -13.0 -52.5 -13.15 -52.65 -13.15 -53.0 -13.15 -53.3 -12.95 -53.5 -12.7 -53.7 -11.75 -53.6 -10.75 -53.5 -9.5 -53.15 -8.25 -52.75 -7.0 -52.25 -5.8 -51.7 -4.55 -51.1 -3.3 -50.5 -1.6 -49.6 0.05 -48.65 2.35 -47.2 4.6 -45.7 5.6 -45.05 6.65 -44.4 7.8 -43.8 8.95 -43.25 9.0 -43.3 9.1 -43.4 8.1 -46.0 7.15 -48.6 5.85 -51.25 4.55 -53.85 3.7 -55.2 2.8 -56.5 1.9 -57.5 1.0 -58.5 -0.4 -59.6 -1.85 -60.75 -3.3 -61.7 -4.75 -62.7 -7.95 -64.4 -11.2 -66.1 -13.95 -67.75 -16.75 -69.45 -17.25 -69.8 -17.75 -70.15 -18.4 -70.15 -19.05 -70.15 -19.7 -69.85 -20.3 -69.55 -20.65 -69.05 -21.05 -68.5 -21.15 -68.0 -21.25 -67.45 -21.45 -67.1 -21.65 -66.7 -22.2 -66.2 -22.75 -65.7 -22.95 -64.25 -23.1 -62.8 -23.3 -61.6 -23.45 -60.45 -23.45 -58.25 -23.45 -56.05 -23.1 -54.3 -22.8 -52.55 -21.6 -48.4 -20.45 -44.2 -20.35 -43.4 -20.3 -42.55 -20.5 -42.05 -20.7 -41.6 -21.15 -40.55 -21.65 -39.55 -21.95 -39.1 -22.25 -38.65 -22.25 -38.35 -22.25 -38.0 -22.0 -37.55 -21.8 -37.05 -21.65 -36.85 -21.5 -36.6 -21.15 -35.75 -20.75 -34.85 -19.9 -33.35 -19.0 -31.9 -18.0 -30.4 -17.0 -28.85 -15.5 -26.8 -14.05 -24.8 -12.1 -21.85 -10.1 -18.95 -9.25 -17.2 -8.35 -15.45 -8.0 -14.25 -7.65 -13.1 -7.55 -12.55 -7.45 -11.95 -7.7 -11.7 -7.95 -11.4 -8.2 -11.4 -8.45 -11.4 -8.65 -11.65 -8.9 -11.9 -9.0 -12.55 -9.1 -13.25 -9.45 -14.25 -9.85 -15.25 -10.5 -16.6 -11.15 -17.9 -11.75 -18.85 -12.35 -19.8 -14.0 -22.2 -15.7 -24.65 -17.25 -26.8 -18.8 -29.0 -19.7 -30.4 -20.6 -31.8 -21.6 -33.6 -22.6 -35.45 -22.75 -35.0 -22.9 -34.55 -23.65 -33.05 -24.4 -31.5 -25.4 -30.05 -26.35 -28.6 -27.45 -27.1 -28.55 -25.65 -29.6 -24.4 -30.65 -23.15 -32.35 -21.25 -34.05 -19.35 -38.3 -15.2 -42.6 -11.05 -43.55 -9.85 -44.55 -8.7 -45.2 -7.75 -45.9 -6.8 -46.65 -5.3 -47.4 -3.75 -47.9 -2.3 -48.4 -0.8 -48.7 0.9 -48.95 2.55 -49.15 4.3 -49.3 6.0 -49.25 9.6 -49.15 13.25 -48.8 15.2 -48.4 17.2 -47.95 18.45 -47.55 19.75 -47.0 20.7 -46.5 21.6 -45.75 22.5 -45.0 23.35 -44.4 23.8 -43.75 24.25 -41.15 24.3 -38.55 24.35 -37.65 24.4 -36.75 24.4 -33.1 22.9 M-13.8 -13.5 L-14.25 -13.65 -15.7 -14.2 -17.15 -14.8 -18.75 -15.6 -20.35 -16.35 -21.55 -17.05 -22.75 -17.75 -23.55 -18.3 -24.4 -18.85 -25.25 -19.6 -26.1 -20.4 -26.95 -21.45 -27.8 -22.55 -27.8 -22.85 -27.8 -23.2 -27.6 -23.35 -27.45 -23.55 -27.1 -23.55 -26.8 -23.55 -25.75 -22.25 -24.7 -21.0 -23.85 -20.25 -22.95 -19.5 -21.95 -18.9 -20.95 -18.3 -19.45 -17.5 -17.9 -16.7 -15.8 -15.8 -13.7 -14.9 -13.3 -14.8 -12.85 -14.7 -12.65 -14.4 -12.45 -14.1 -12.45 -14.0 -12.45 -13.9 -12.75 -13.6 -13.0 -13.3 -13.2 -13.3 -13.4 -13.3 -13.8 -13.5 -13.8 -13.5 M47.5 19.6 L48.9 19.45 49.15 19.35 49.45 19.25 49.35 18.5 49.25 17.75 49.0 16.95 48.8 16.15 48.4 14.9 48.0 13.65 47.7 13.0 47.4 12.35 47.0 11.4 46.6 10.45 45.5 8.15 44.4 5.85 43.9 5.85 43.45 5.85 43.2 5.6 42.95 5.4 42.95 5.15 42.95 4.9 42.95 2.6 43.0 0.35 42.3 -1.45 41.65 -3.3 40.35 -7.1 39.05 -10.9 37.2 -14.6 35.35 -18.35 33.8 -21.05 32.25 -23.75 31.2 -25.85 30.15 -28.0 29.4 -30.05 28.7 -32.1 28.3 -33.4 27.9 -34.7 27.6 -35.9 27.3 -37.05 27.15 -37.65 27.05 -38.3 26.75 -38.85 26.45 -39.45 26.45 -39.75 26.45 -40.0 26.9 -40.55 27.35 -41.1 27.35 -41.7 27.35 -42.25 26.5 -43.55 25.65 -44.8 25.15 -45.9 24.7 -47.0 24.25 -48.55 23.8 -50.05 23.15 -52.85 22.5 -55.6 21.8 -56.8 21.05 -58.05 19.8 -59.7 18.5 -61.35 17.7 -62.25 16.95 -63.15 16.85 -63.15 16.75 -63.15 16.4 -62.6 16.1 -62.0 15.35 -61.2 14.6 -60.4 13.25 -59.4 11.9 -58.4 9.65 -57.05 7.4 -55.7 6.8 -55.2 6.25 -54.75 7.65 -51.9 9.0 -49.05 9.45 -47.95 9.85 -46.85 9.95 -46.7 10.05 -46.55 10.8 -44.25 11.55 -42.0 11.4 -41.35 11.3 -40.7 11.0 -39.55 10.75 -38.35 10.75 -34.55 10.75 -30.75 11.15 -27.7 11.55 -24.65 11.9 -22.75 12.25 -20.85 12.5 -19.8 12.7 -18.8 12.95 -17.75 13.15 -16.75 13.5 -14.75 13.9 -12.8 14.15 -11.2 14.45 -9.55 14.5 -8.85 14.6 -8.1 14.75 -6.35 14.9 -4.6 15.25 -3.9 15.6 -3.25 17.15 -1.15 18.65 0.95 19.5 2.25 20.35 3.55 21.2 5.2 22.05 6.8 23.45 9.95 24.8 13.1 25.25 14.0 25.75 14.9 26.3 15.55 26.8 16.15 27.55 16.7 28.3 17.2 29.3 17.75 30.35 18.25 31.4 18.65 32.5 19.05 33.45 19.25 34.4 19.5 35.8 19.7 37.2 19.85 41.65 19.8 46.1 19.75 47.5 19.6 47.5 19.6 M28.2 6.0 L28.05 5.65 28.1 2.35 28.15 -0.95 28.05 -4.75 27.95 -8.55 27.65 -13.25 27.35 -17.9 27.1 -21.05 26.9 -24.2 26.65 -25.85 26.45 -27.55 26.1 -29.55 25.75 -31.5 25.55 -33.1 25.3 -34.7 25.4 -34.95 25.45 -35.25 25.8 -35.3 26.2 -35.4 26.35 -35.25 26.5 -35.1 26.85 -32.85 27.15 -30.6 27.6 -27.85 28.05 -25.05 28.25 -22.2 28.5 -19.35 28.65 -16.9 28.8 -14.4 28.95 -12.15 29.1 -9.85 29.25 -7.4 29.35 -4.9 29.4 -0.4 29.4 4.1 29.8 4.0 30.2 3.9 30.45 3.8 30.75 3.7 31.55 3.1 32.35 2.5 33.0 1.6 33.65 0.65 34.3 -0.7 34.95 -2.05 35.15 -2.75 35.35 -3.45 35.35 -6.75 35.35 -10.05 35.55 -10.3 35.75 -10.55 36.05 -10.5 36.3 -10.45 36.5 -10.1 36.7 -9.7 36.7 -6.85 36.7 -4.0 36.55 -3.25 36.4 -2.45 36.0 -1.5 35.65 -0.5 34.9 0.85 34.15 2.2 33.55 2.9 32.95 3.6 32.2 4.2 31.45 4.75 30.8 5.0 30.2 5.25 29.8 5.25 29.45 5.25 29.3 5.75 29.15 6.2 28.75 6.25 28.35 6.3 28.2 6.0 28.2 6.0" fill="#b9b9b9" fill-rule="evenodd" stroke="none"/>
    <path d="M-43.1 26.15 L-44.4 26.05 -45.15 25.6 -45.9 25.1 -46.7 24.25 -47.5 23.4 -48.1 22.5 -48.7 21.6 -49.15 20.7 -49.55 19.8 -49.95 18.55 -50.3 17.35 -50.65 15.45 -51.0 13.55 -51.2 11.3 -51.35 9.1 -51.2 6.2 -51.05 3.3 -50.75 1.55 -50.45 -0.2 -50.2 -1.1 -50.0 -2.05 -49.55 -3.3 -49.1 -4.6 -48.25 -6.3 -47.35 -8.0 -46.25 -9.5 -45.15 -11.05 -39.8 -16.35 -34.4 -21.7 -32.95 -23.4 -31.5 -25.05 -30.15 -26.75 -28.8 -28.45 -27.35 -30.6 -25.9 -32.75 -25.3 -34.0 -24.7 -35.2 -24.6 -35.9 -24.55 -36.55 -24.2 -36.8 -23.9 -37.05 -24.0 -37.45 -24.15 -37.8 -24.15 -38.4 -24.15 -39.05 -23.6 -40.0 -23.05 -41.0 -22.65 -41.85 -22.25 -42.7 -22.25 -43.0 -22.25 -43.35 -22.75 -45.25 -23.25 -47.15 -24.0 -49.7 -24.7 -52.25 -25.05 -54.5 -25.45 -56.75 -25.45 -58.15 -25.45 -59.55 -25.3 -60.65 -25.15 -61.75 -25.0 -63.6 -24.85 -65.4 -24.7 -66.05 -24.5 -66.7 -23.85 -67.25 -23.15 -67.85 -22.95 -68.55 -22.8 -69.2 -22.3 -69.95 -21.8 -70.75 -21.3 -71.1 -20.8 -71.5 -20.05 -71.8 -19.3 -72.05 -18.5 -72.05 -17.75 -72.05 -17.15 -71.85 -16.55 -71.65 -15.85 -71.15 -15.15 -70.65 -13.45 -69.65 -11.8 -68.6 -9.65 -67.45 -7.55 -66.35 -5.65 -65.3 -3.8 -64.3 -2.3 -63.3 -0.8 -62.35 0.65 -61.15 2.1 -60.0 3.15 -58.9 4.2 -57.8 4.65 -57.1 5.1 -56.45 5.2 -56.45 5.3 -56.45 6.05 -57.0 6.8 -57.55 9.05 -58.9 11.3 -60.25 12.6 -61.25 13.9 -62.25 14.4 -62.95 14.9 -63.65 15.2 -64.55 15.45 -65.4 15.8 -65.7 16.2 -65.95 16.6 -65.85 17.0 -65.75 18.0 -64.75 18.95 -63.75 20.75 -61.5 22.5 -59.2 23.2 -58.1 23.9 -56.95 24.25 -56.15 24.55 -55.35 24.9 -53.5 25.3 -51.7 25.8 -49.95 26.35 -48.15 26.8 -47.0 27.25 -45.85 28.2 -44.4 29.15 -42.95 29.15 -41.75 29.15 -40.55 28.9 -40.0 28.6 -39.45 28.7 -39.2 28.75 -38.95 29.15 -37.5 29.55 -36.05 30.05 -34.2 30.55 -32.4 31.25 -30.55 31.9 -28.7 32.45 -27.55 33.0 -26.35 34.15 -24.25 35.35 -22.15 36.05 -21.0 36.7 -19.8 38.8 -15.65 40.85 -11.45 41.95 -8.25 43.0 -5.05 43.9 -2.7 44.75 -0.35 44.85 1.15 44.9 2.7 46.75 6.45 48.6 10.15 49.45 12.3 50.25 14.4 50.7 15.95 51.15 17.45 51.3 18.5 51.45 19.5 51.55 19.8 51.6 20.1 51.3 20.5 51.05 20.85 50.15 21.1 49.3 21.35 47.2 21.55 45.1 21.75 42.15 21.85 39.25 21.95 37.4 21.8 35.6 21.65 34.85 21.5 34.15 21.35 33.2 21.15 32.25 20.95 31.3 20.6 30.35 20.3 28.85 19.6 27.4 18.9 26.25 18.0 25.05 17.15 24.4 16.25 23.8 15.35 23.1 13.85 22.4 12.35 21.5 10.25 20.6 8.1 19.65 6.3 18.65 4.45 18.0 3.45 17.35 2.4 16.15 0.75 15.0 -0.95 14.95 1.25 14.9 3.45 15.05 5.9 15.25 8.4 15.3 9.7 15.35 11.05 15.2 11.9 15.05 12.75 14.75 13.35 14.45 13.95 14.25 14.35 14.05 14.75 13.35 15.5 12.7 16.2 11.8 16.95 10.9 17.65 9.7 18.25 8.55 18.85 7.85 19.15 7.15 19.45 6.3 19.65 5.5 19.9 3.35 20.05 1.25 20.15 0.2 20.35 -0.8 20.5 -3.75 21.25 -6.65 22.05 -7.85 22.35 -9.0 22.65 -10.55 23.0 -12.05 23.4 -13.45 23.7 -14.85 24.0 -15.45 24.15 -16.0 24.25 -16.8 24.4 -17.6 24.55 -19.6 24.85 -21.55 25.15 -23.05 25.3 -24.55 25.45 -27.3 25.6 -30.05 25.75 -32.8 26.05 -35.55 26.3 -38.65 26.3 -41.75 26.25 -43.1 26.15 M-34.95 23.7 L-33.25 23.0 -30.05 21.65 -26.85 20.3 -24.15 19.15 -21.4 17.95 -17.75 16.5 -14.1 15.0 -12.35 14.2 -10.6 13.35 -8.7 12.3 -6.8 11.2 -5.7 10.5 -4.6 9.75 -2.95 8.35 -1.25 6.95 0.2 5.5 1.65 4.0 2.9 2.5 4.15 0.95 4.65 0.1 5.2 -0.7 5.4 -0.8 5.6 -0.9 5.85 -0.8 6.15 -0.7 6.2 -0.35 6.3 0.0 5.8 0.8 5.35 1.65 3.9 3.4 2.45 5.2 1.4 6.25 0.35 7.35 -1.4 8.85 -3.15 10.35 -4.05 11.0 -4.9 11.65 -6.0 12.3 -7.1 12.95 -8.7 13.85 -10.3 14.75 -12.3 15.65 -14.25 16.55 -17.1 17.7 -20.0 18.85 -23.55 20.35 -27.15 21.9 -29.4 22.85 -31.7 23.85 -31.85 23.85 -32.0 23.85 -32.1 24.0 -32.2 24.15 -32.05 24.05 -31.9 24.0 -30.1 23.85 -28.3 23.7 -25.8 23.55 -23.3 23.4 -22.15 23.25 -21.0 23.1 -19.9 22.95 -18.8 22.8 -17.85 22.65 -16.9 22.5 -14.9 22.05 -12.95 21.65 -11.1 21.2 -9.3 20.75 -5.95 19.85 -2.55 18.95 -0.95 18.6 0.65 18.25 2.9 18.15 5.2 18.0 5.75 17.85 6.35 17.75 7.75 17.1 9.2 16.5 9.9 16.05 10.55 15.6 11.45 14.7 12.35 13.8 12.75 13.1 13.2 12.4 13.3 11.85 13.45 11.35 13.45 10.15 13.45 9.0 13.3 7.95 13.15 6.95 13.0 0.35 12.85 -6.2 12.65 -8.1 12.4 -10.0 12.2 -11.25 12.0 -12.5 11.6 -14.55 11.25 -16.6 10.95 -17.75 10.7 -18.95 10.45 -19.95 10.25 -21.0 9.85 -23.05 9.5 -25.1 9.2 -27.55 8.95 -30.05 8.75 -32.1 8.6 -34.15 8.7 -35.8 8.8 -37.45 8.9 -38.55 9.05 -39.7 9.25 -40.5 9.4 -41.3 9.4 -41.4 9.4 -41.55 8.15 -42.1 6.9 -42.65 5.95 -43.2 5.05 -43.75 2.6 -45.3 0.2 -46.9 -1.75 -48.05 -3.75 -49.15 -5.65 -50.1 -7.55 -51.0 -9.0 -51.5 -10.45 -52.0 -11.65 -52.2 -12.8 -52.4 -13.0 -52.5 -13.15 -52.65 -13.15 -52.95 -13.15 -53.2 -12.95 -53.4 -12.7 -53.65 -12.15 -53.65 -11.6 -53.65 -10.2 -53.3 -8.85 -52.95 -7.15 -52.25 -5.5 -51.55 -3.95 -50.8 -2.4 -50.0 -0.95 -49.2 0.5 -48.35 2.2 -47.25 3.85 -46.15 5.2 -45.3 6.5 -44.45 7.7 -43.8 8.9 -43.2 8.95 -43.3 9.05 -43.35 8.65 -44.6 8.2 -45.85 7.65 -47.2 7.15 -48.6 6.15 -50.7 5.15 -52.75 4.3 -54.2 3.45 -55.6 2.7 -56.55 1.95 -57.5 0.95 -58.45 -0.05 -59.4 -1.55 -60.5 -3.05 -61.6 -4.8 -62.65 -6.5 -63.7 -8.55 -64.75 -10.6 -65.8 -12.3 -66.8 -13.95 -67.75 -15.9 -68.95 -17.8 -70.15 -18.5 -70.15 -19.15 -70.15 -19.75 -69.85 -20.35 -69.6 -20.7 -69.05 -21.05 -68.5 -21.25 -67.65 -21.5 -66.85 -22.2 -66.2 -22.9 -65.55 -23.0 -64.2 -23.15 -62.8 -23.35 -61.2 -23.55 -59.6 -23.55 -58.1 -23.55 -56.6 -23.1 -54.3 -22.65 -51.95 -22.45 -51.25 -22.25 -50.5 -21.9 -49.25 -21.5 -48.0 -21.15 -46.55 -20.75 -45.1 -20.55 -44.3 -20.35 -43.5 -20.35 -42.9 -20.35 -42.3 -21.35 -40.35 -22.3 -38.35 -22.15 -37.8 -21.95 -37.2 -21.7 -37.0 -21.5 -36.75 -21.5 -36.55 -21.5 -36.4 -21.0 -35.35 -20.45 -34.35 -19.55 -32.75 -18.6 -31.2 -17.75 -29.95 -16.9 -28.7 -14.4 -25.2 -11.95 -21.7 -10.95 -20.15 -10.0 -18.65 -9.3 -17.35 -8.6 -16.1 -8.15 -14.6 -7.65 -13.1 -7.55 -12.55 -7.45 -12.0 -7.75 -11.7 -8.05 -11.4 -8.2 -11.4 -8.35 -11.4 -8.6 -11.65 -8.9 -11.95 -9.05 -12.85 -9.25 -13.8 -9.6 -14.75 -10.0 -15.7 -10.65 -16.95 -11.3 -18.2 -12.4 -19.9 -13.5 -21.55 -15.05 -23.75 -16.6 -25.95 -17.85 -27.7 -19.05 -29.45 -19.95 -30.85 -20.85 -32.25 -21.75 -33.9 -22.65 -35.55 -22.75 -35.15 -22.85 -34.7 -23.55 -33.25 -24.25 -31.8 -25.15 -30.4 -26.05 -29.0 -27.3 -27.35 -28.55 -25.7 -29.7 -24.3 -30.9 -22.9 -32.7 -20.9 -34.45 -18.95 -38.6 -14.9 -42.75 -10.9 -43.7 -9.7 -44.7 -8.55 -45.4 -7.55 -46.05 -6.5 -46.8 -5.0 -47.5 -3.55 -47.95 -2.15 -48.4 -0.8 -48.75 1.25 -49.15 3.3 -49.3 6.2 -49.45 9.1 -49.3 11.25 -49.15 13.4 -48.8 15.3 -48.45 17.2 -48.05 18.35 -47.65 19.5 -47.15 20.5 -46.6 21.5 -45.7 22.55 -44.8 23.6 -44.35 23.9 -43.95 24.2 -42.9 24.3 -41.9 24.35 -39.3 24.4 -36.65 24.4 -34.95 23.7 M-14.05 -13.6 L-14.85 -13.85 -16.1 -14.35 -17.35 -14.9 -18.75 -15.6 -20.1 -16.25 -21.4 -17.0 -22.75 -17.75 -23.55 -18.3 -24.4 -18.85 -25.25 -19.6 -26.1 -20.4 -26.95 -21.45 -27.8 -22.55 -27.8 -22.9 -27.8 -23.2 -27.55 -23.4 -27.35 -23.55 -27.0 -23.5 -26.7 -23.4 -25.7 -22.15 -24.75 -20.9 -23.75 -20.15 -22.75 -19.35 -21.45 -18.6 -20.15 -17.8 -18.45 -16.95 -16.75 -16.1 -15.0 -15.45 -13.25 -14.75 -12.9 -14.6 -12.6 -14.5 -12.6 -14.1 -12.6 -13.75 -12.8 -13.55 -13.05 -13.3 -13.15 -13.3 -13.25 -13.3 -14.05 -13.6 -14.05 -13.6 M45.8 19.75 L48.3 19.55 48.8 19.45 49.35 19.35 49.4 19.0 49.45 18.65 49.2 17.65 48.95 16.6 48.5 15.2 48.05 13.85 47.5 12.45 46.9 11.05 45.65 8.45 44.4 5.85 43.95 5.85 43.5 5.85 43.25 5.6 42.95 5.35 42.95 2.8 42.95 0.3 42.1 -2.1 41.25 -4.45 40.1 -7.75 39.0 -11.05 37.05 -14.9 35.15 -18.8 34.05 -20.7 32.95 -22.6 32.4 -23.55 31.9 -24.5 31.1 -26.0 30.35 -27.55 29.65 -29.45 28.95 -31.3 28.3 -33.6 27.65 -35.9 27.3 -37.15 27.0 -38.35 26.75 -38.9 26.45 -39.45 26.45 -39.7 26.45 -40.0 26.9 -40.5 27.3 -41.0 27.35 -41.7 27.35 -42.35 26.75 -43.15 26.2 -43.95 25.75 -44.75 25.3 -45.55 24.95 -46.55 24.55 -47.55 24.05 -49.35 23.55 -51.15 23.0 -53.35 22.5 -55.6 21.9 -56.65 21.3 -57.7 19.6 -59.9 17.9 -62.1 17.35 -62.7 16.8 -63.3 16.2 -62.35 15.6 -61.4 14.8 -60.65 14.0 -59.9 12.6 -58.9 11.2 -57.95 9.95 -57.2 8.7 -56.5 7.95 -56.05 7.25 -55.6 6.75 -55.15 6.25 -54.75 7.4 -52.3 8.6 -49.9 9.35 -48.1 10.1 -46.25 10.75 -44.3 11.4 -42.35 11.35 -41.6 11.3 -40.85 11.0 -39.6 10.75 -38.35 10.75 -34.5 10.75 -30.6 11.15 -27.55 11.55 -24.5 11.9 -22.6 12.25 -20.7 12.5 -19.65 12.7 -18.65 12.95 -17.6 13.15 -16.6 13.45 -15.05 13.75 -13.5 14.05 -11.85 14.35 -10.15 14.5 -9.05 14.6 -7.95 14.75 -6.3 14.9 -4.6 15.3 -3.85 15.7 -3.05 17.45 -0.6 19.25 1.85 20.15 3.35 21.05 4.9 21.85 6.5 22.6 8.1 23.55 10.25 24.45 12.35 25.1 13.65 25.75 15.0 26.45 15.7 27.1 16.4 27.7 16.85 28.35 17.25 29.5 17.8 30.6 18.4 31.7 18.75 32.8 19.15 33.6 19.3 34.4 19.5 35.75 19.65 37.05 19.85 40.15 19.85 43.3 19.9 45.8 19.75 45.8 19.75 M28.4 6.15 L28.2 6.05 28.15 -0.25 28.1 -6.5 27.65 -13.45 27.2 -20.4 27.05 -22.3 26.9 -24.2 26.75 -25.45 26.6 -26.7 26.05 -29.65 25.55 -32.65 25.5 -33.8 25.4 -34.95 25.55 -35.15 25.75 -35.4 25.95 -35.4 26.15 -35.4 26.35 -35.15 26.55 -34.95 26.65 -33.95 26.75 -32.95 27.1 -30.85 27.5 -28.8 27.75 -26.85 28.05 -24.9 28.25 -22.05 28.5 -19.2 28.7 -15.55 28.95 -11.9 29.15 -8.35 29.35 -4.75 29.4 -0.3 29.4 4.1 29.85 4.0 30.35 3.9 30.95 3.55 31.55 3.2 32.25 2.5 32.95 1.8 33.6 0.7 34.25 -0.45 34.75 -1.65 35.3 -2.85 35.35 -6.55 35.45 -10.25 35.65 -10.4 35.9 -10.5 36.05 -10.5 36.2 -10.5 36.35 -10.35 36.55 -10.15 36.55 -6.55 36.55 -2.95 36.25 -2.2 36.0 -1.4 35.4 -0.15 34.75 1.1 34.2 2.0 33.6 2.9 32.75 3.7 31.9 4.45 31.25 4.8 30.6 5.1 30.0 5.2 29.4 5.3 29.4 5.55 29.4 5.85 29.15 6.05 28.9 6.3 28.75 6.3 28.55 6.3 28.4 6.15 28.4 6.15" fill="#a3a3a3" fill-rule="evenodd" stroke="none"/>
    <path d="M-41.55 26.2 L-44.4 26.1 -45.35 25.4 -46.35 24.7 -47.15 23.7 -47.95 22.7 -48.5 21.85 -49.0 21.0 -49.4 19.95 -49.85 18.95 -50.05 18.15 -50.3 17.35 -50.7 15.35 -51.05 13.4 -51.15 9.75 -51.2 6.15 -51.05 4.25 -50.85 2.35 -50.6 0.75 -50.3 -0.8 -49.95 -2.1 -49.55 -3.4 -48.9 -4.9 -48.2 -6.45 -47.5 -7.65 -46.75 -8.85 -45.95 -9.95 -45.15 -11.05 -39.85 -16.3 -34.55 -21.55 -33.3 -22.95 -32.05 -24.35 -30.75 -25.95 -29.45 -27.55 -28.35 -29.1 -27.25 -30.6 -26.5 -31.85 -25.7 -33.1 -25.15 -34.3 -24.55 -35.5 -24.55 -35.95 -24.55 -36.4 -24.25 -36.75 -23.9 -37.05 -24.0 -37.4 -24.1 -37.8 -24.1 -38.4 -24.15 -39.0 -23.75 -39.65 -23.4 -40.25 -22.8 -41.45 -22.25 -42.65 -22.25 -43.1 -22.25 -43.5 -23.1 -46.7 -24.0 -49.9 -24.35 -51.15 -24.7 -52.4 -25.0 -54.1 -25.3 -55.75 -25.4 -57.3 -25.45 -58.85 -25.3 -60.3 -25.15 -61.75 -24.9 -63.9 -24.7 -66.0 -24.6 -66.3 -24.55 -66.6 -23.75 -67.35 -22.95 -68.1 -22.95 -68.4 -22.95 -68.7 -22.6 -69.45 -22.2 -70.2 -21.6 -70.75 -21.05 -71.35 -20.35 -71.65 -19.7 -71.95 -18.8 -72.05 -17.9 -72.1 -17.35 -71.9 -16.75 -71.75 -15.5 -70.9 -14.25 -70.05 -12.5 -69.05 -10.75 -68.0 -8.2 -66.65 -5.65 -65.3 -4.25 -64.5 -2.85 -63.7 -1.7 -62.9 -0.5 -62.1 0.85 -61.0 2.2 -59.9 3.05 -58.95 3.95 -58.05 4.55 -57.25 5.15 -56.45 5.2 -56.45 5.25 -56.45 6.4 -57.2 7.5 -58.0 8.75 -58.7 10.0 -59.4 11.3 -60.3 12.65 -61.2 13.4 -61.9 14.15 -62.55 14.6 -63.2 15.0 -63.85 15.25 -64.7 15.5 -65.5 15.85 -65.75 16.2 -65.95 16.65 -65.8 17.1 -65.6 17.9 -64.8 18.75 -63.95 20.1 -62.3 21.4 -60.6 22.1 -59.7 22.8 -58.85 23.45 -57.65 24.1 -56.5 24.4 -55.55 24.65 -54.6 25.0 -53.15 25.35 -51.7 25.8 -49.9 26.3 -48.15 26.75 -47.0 27.2 -45.85 28.0 -44.65 28.75 -43.5 29.0 -43.0 29.25 -42.55 29.25 -41.7 29.25 -40.85 28.9 -40.2 28.55 -39.5 28.8 -38.65 29.1 -37.8 29.8 -35.1 30.55 -32.4 31.25 -30.5 31.9 -28.6 33.05 -26.4 34.15 -24.2 35.65 -21.55 37.15 -18.95 38.95 -15.25 40.8 -11.6 42.15 -7.6 43.55 -3.6 44.2 -1.7 44.85 0.15 44.85 1.55 44.85 2.95 45.15 3.35 45.4 3.75 46.7 6.25 47.95 8.8 48.85 10.85 49.75 12.95 50.3 14.6 50.85 16.3 51.1 17.6 51.35 18.95 51.45 19.5 51.6 20.1 51.45 20.35 51.3 20.65 50.65 20.9 50.05 21.15 49.05 21.35 48.0 21.5 45.8 21.65 43.65 21.8 40.5 21.8 37.35 21.8 35.75 21.55 34.15 21.35 33.45 21.2 32.8 21.05 31.6 20.7 30.45 20.3 29.15 19.75 27.85 19.15 26.9 18.5 25.9 17.85 25.0 16.9 24.1 15.9 23.3 14.3 22.55 12.65 21.6 10.55 20.7 8.4 19.95 6.85 19.15 5.3 18.35 4.0 17.6 2.7 16.3 0.9 15.0 -0.95 14.95 1.3 14.9 3.6 15.1 6.2 15.25 8.85 15.25 10.4 15.25 11.9 15.0 12.7 14.75 13.5 14.1 14.5 13.5 15.45 12.6 16.2 11.75 17.0 10.95 17.55 10.1 18.1 8.45 18.85 6.75 19.6 5.55 19.8 4.3 20.05 3.05 20.05 1.8 20.05 0.5 20.25 -0.8 20.5 -2.95 21.05 -5.05 21.65 -7.95 22.35 -10.9 23.1 -11.85 23.3 -12.8 23.55 -14.75 23.95 -16.75 24.4 -19.35 24.75 -21.95 25.15 -23.8 25.3 -25.65 25.45 -28.75 25.65 -31.8 25.9 -33.8 26.1 -35.75 26.3 -37.2 26.3 -38.65 26.25 -41.55 26.2 -41.55 26.2 M-29.9 21.6 L-23.2 18.75 -21.95 18.2 -20.7 17.65 -17.4 16.35 -14.1 15.05 -12.2 14.1 -10.25 13.2 -8.4 12.15 -6.5 11.05 -5.65 10.5 -4.75 9.9 -2.7 8.2 -0.65 6.45 0.45 5.3 1.55 4.15 2.8 2.65 4.05 1.1 4.65 0.2 5.25 -0.7 5.4 -0.8 5.55 -0.9 5.85 -0.8 6.15 -0.7 6.2 -0.35 6.3 0.0 5.9 0.7 5.5 1.4 4.0 3.2 2.55 5.05 1.1 6.5 -0.35 8.0 -2.15 9.45 -3.9 10.9 -5.15 11.7 -6.35 12.55 -8.35 13.6 -10.3 14.7 -12.1 15.55 -13.85 16.35 -17.65 17.9 -21.4 19.4 -22.3 19.8 -23.2 20.2 -27.7 22.1 -32.25 24.0 -32.3 24.1 -32.4 24.15 -32.0 24.1 -31.65 24.0 -29.4 23.85 -27.15 23.7 -24.95 23.55 -22.75 23.35 -21.3 23.15 -19.8 22.95 -18.3 22.75 -16.75 22.5 -15.85 22.3 -15.0 22.1 -13.3 21.7 -11.65 21.35 -9.2 20.75 -6.8 20.15 -4.1 19.45 -1.45 18.7 -0.3 18.5 0.8 18.3 2.6 18.2 4.45 18.1 5.5 17.9 6.55 17.7 8.35 16.85 10.15 15.95 11.05 15.15 11.95 14.35 12.55 13.45 13.15 12.6 13.3 11.95 13.45 11.35 13.45 10.15 13.45 9.0 13.3 7.45 13.15 5.85 13.0 -0.3 12.9 -6.5 12.65 -8.35 12.4 -10.2 11.85 -13.3 11.25 -16.45 11.05 -17.45 10.8 -18.5 10.6 -19.5 10.35 -20.55 10.0 -22.45 9.65 -24.35 9.25 -27.4 8.85 -30.5 8.85 -34.5 8.85 -38.5 9.1 -39.85 9.35 -41.15 9.4 -41.35 9.4 -41.55 8.3 -42.0 7.2 -42.5 5.9 -43.25 4.6 -44.05 2.2 -45.6 -0.25 -47.2 -1.85 -48.1 -3.45 -49.05 -5.65 -50.1 -7.85 -51.15 -9.15 -51.6 -10.45 -52.0 -11.4 -52.2 -12.35 -52.35 -12.7 -52.4 -13.0 -52.5 -13.1 -52.8 -13.2 -53.1 -12.9 -53.4 -12.65 -53.7 -11.8 -53.6 -10.9 -53.5 -9.85 -53.2 -8.75 -52.9 -7.5 -52.4 -6.25 -51.9 -4.6 -51.1 -3.0 -50.35 -1.4 -49.4 0.2 -48.5 3.25 -46.55 6.3 -44.55 7.5 -43.9 8.7 -43.3 8.85 -43.25 9.05 -43.25 9.05 -43.4 9.05 -43.55 8.2 -45.85 7.35 -48.15 6.85 -49.25 6.3 -50.35 5.95 -51.2 5.55 -52.0 4.65 -53.6 3.75 -55.2 3.15 -56.0 2.55 -56.8 1.75 -57.65 0.95 -58.5 -0.15 -59.4 -1.25 -60.3 -2.3 -61.1 -3.35 -61.85 -4.95 -62.75 -6.5 -63.7 -9.05 -65.05 -11.65 -66.4 -13.15 -67.3 -14.7 -68.15 -16.15 -69.1 -17.55 -70.05 -18.0 -70.15 -18.4 -70.3 -19.1 -70.15 -19.75 -70.0 -20.35 -69.45 -20.9 -68.85 -21.1 -68.15 -21.3 -67.45 -21.55 -67.0 -21.8 -66.55 -22.35 -66.1 -22.9 -65.65 -23.0 -64.35 -23.1 -63.1 -23.35 -61.25 -23.6 -59.4 -23.5 -57.5 -23.4 -55.6 -23.1 -54.0 -22.8 -52.4 -21.6 -48.15 -20.4 -43.95 -20.4 -43.05 -20.4 -42.15 -21.4 -40.2 -22.35 -38.3 -22.2 -37.85 -22.05 -37.35 -21.9 -37.2 -21.75 -37.0 -20.9 -35.3 -20.05 -33.55 -19.15 -32.1 -18.2 -30.6 -16.3 -27.9 -14.4 -25.2 -13.1 -23.3 -11.75 -21.4 -10.75 -19.8 -9.75 -18.2 -8.95 -16.6 -8.2 -14.95 -7.85 -13.6 -7.5 -12.2 -7.6 -11.9 -7.7 -11.6 -8.15 -11.55 -8.6 -11.55 -8.75 -11.8 -8.9 -12.05 -9.0 -12.7 -9.1 -13.35 -9.5 -14.5 -9.95 -15.65 -10.7 -17.1 -11.45 -18.5 -12.85 -20.6 -14.3 -22.75 -15.95 -25.05 -17.6 -27.4 -19.1 -29.65 -20.6 -31.85 -21.3 -33.15 -22.0 -34.45 -22.3 -35.0 -22.55 -35.6 -22.7 -35.25 -22.85 -34.85 -23.3 -33.85 -23.75 -32.8 -24.5 -31.55 -25.25 -30.25 -26.4 -28.65 -27.55 -27.05 -28.85 -25.4 -30.15 -23.75 -31.85 -21.85 -33.55 -19.95 -38.7 -14.85 -43.85 -9.7 -44.8 -8.4 -45.75 -7.1 -46.65 -5.35 -47.5 -3.6 -47.95 -2.25 -48.4 -0.95 -48.75 1.05 -49.1 3.0 -49.25 5.15 -49.4 7.25 -49.4 8.85 -49.4 10.5 -49.25 12.0 -49.1 13.55 -48.85 15.1 -48.55 16.7 -48.15 17.95 -47.8 19.25 -47.3 20.25 -46.8 21.25 -45.9 22.3 -45.05 23.35 -44.5 23.8 -43.95 24.2 -43.0 24.3 -42.05 24.35 -39.35 24.4 -36.65 24.4 -29.9 21.6 M-14.4 -13.7 L-15.15 -14.0 -16.75 -14.65 -18.35 -15.35 -20.4 -16.45 -22.45 -17.55 -23.5 -18.25 -24.5 -19.0 -25.3 -19.7 -26.1 -20.45 -26.95 -21.55 -27.85 -22.7 -27.7 -23.05 -27.55 -23.45 -27.25 -23.5 -26.95 -23.55 -26.3 -22.8 -25.65 -22.0 -24.95 -21.25 -24.2 -20.45 -23.25 -19.75 -22.3 -19.05 -20.6 -18.1 -18.95 -17.15 -17.7 -16.55 -16.45 -16.0 -14.85 -15.35 -13.25 -14.75 -13.05 -14.6 -12.8 -14.5 -12.65 -14.3 -12.5 -14.05 -12.65 -13.8 -12.85 -13.5 -13.25 -13.5 -13.7 -13.45 -14.4 -13.7 M44.0 19.9 L46.7 19.75 48.05 19.6 49.45 19.4 49.35 18.55 49.25 17.65 49.05 16.85 48.8 16.0 48.45 15.0 48.1 13.95 47.4 12.2 46.65 10.45 45.55 8.15 44.45 5.85 43.95 5.85 43.45 5.85 43.2 5.6 43.0 5.35 43.0 2.85 43.05 0.35 42.1 -2.25 41.1 -4.9 40.15 -7.8 39.15 -10.75 37.4 -14.25 35.7 -17.75 34.1 -20.55 32.55 -23.3 31.4 -25.5 30.3 -27.7 29.55 -29.75 28.8 -31.8 28.2 -33.85 27.65 -35.9 27.25 -37.3 26.9 -38.75 26.65 -39.1 26.4 -39.45 26.5 -39.8 26.6 -40.2 26.95 -40.6 27.35 -41.05 27.35 -41.65 27.4 -42.2 26.5 -43.6 25.6 -44.95 25.3 -45.65 25.0 -46.35 24.35 -48.4 23.7 -50.5 23.35 -52.05 22.95 -53.6 22.8 -54.5 22.6 -55.4 21.9 -56.65 21.2 -57.85 19.9 -59.55 18.6 -61.25 17.75 -62.25 16.9 -63.3 16.8 -63.3 16.75 -63.3 16.35 -62.6 16.0 -61.9 15.05 -60.95 14.1 -60.0 12.85 -59.1 11.6 -58.25 9.5 -57.0 7.4 -55.75 6.8 -55.2 6.2 -54.7 7.35 -52.45 8.45 -50.2 9.2 -48.4 9.95 -46.55 10.7 -44.45 11.4 -42.35 11.4 -41.9 11.4 -41.45 11.1 -40.1 10.85 -38.8 10.65 -36.65 10.45 -34.45 10.65 -32.25 10.8 -30.05 11.1 -27.65 11.4 -25.2 11.85 -22.9 12.3 -20.55 12.5 -19.6 12.7 -18.65 13.0 -17.25 13.3 -15.85 13.75 -13.45 14.2 -11.05 14.45 -8.6 14.75 -6.2 14.75 -5.55 14.75 -4.85 15.05 -4.15 15.4 -3.45 16.45 -2.05 17.5 -0.65 18.45 0.75 19.4 2.15 20.0 3.15 20.65 4.15 21.5 5.85 22.35 7.55 23.6 10.45 24.9 13.4 25.4 14.3 25.9 15.2 26.45 15.75 27.0 16.35 27.9 16.95 28.8 17.55 29.8 18.0 30.75 18.45 31.75 18.8 32.75 19.15 34.25 19.45 35.75 19.75 37.05 19.85 38.35 20.0 39.85 20.0 41.3 20.0 44.0 19.9 44.0 19.9 M28.35 6.05 L28.15 5.85 28.2 1.55 28.2 -2.7 28.05 -5.9 27.9 -9.15 27.6 -13.65 27.35 -18.2 27.2 -20.4 27.05 -22.6 26.9 -24.2 26.75 -25.8 26.15 -29.4 25.55 -32.95 25.5 -34.05 25.5 -35.1 25.75 -35.3 26.0 -35.45 26.25 -35.2 26.5 -34.95 26.85 -32.7 27.15 -30.5 27.55 -28.15 27.9 -25.8 28.15 -23.55 28.35 -21.25 28.5 -18.8 28.65 -16.3 28.95 -11.75 29.25 -7.25 29.35 -1.55 29.4 4.1 29.85 4.0 30.35 3.9 30.75 3.7 31.2 3.45 31.75 3.0 32.35 2.55 32.95 1.7 33.6 0.8 34.2 -0.45 34.85 -1.7 35.1 -2.45 35.35 -3.25 35.35 -6.6 35.35 -9.9 35.65 -10.25 35.95 -10.6 36.2 -10.45 36.45 -10.25 36.5 -6.7 36.55 -3.15 36.3 -2.35 36.1 -1.55 35.4 -0.25 34.75 1.1 34.2 2.0 33.6 2.9 32.75 3.65 31.95 4.45 31.2 4.8 30.45 5.1 29.95 5.2 29.45 5.3 29.25 5.75 29.0 6.2 28.8 6.25 28.55 6.3 28.35 6.05" fill="#8c8c8c" fill-rule="evenodd" stroke="none"/>
    <path d="M-41.4 26.2 L-44.25 26.1 -44.6 25.9 -44.95 25.7 -45.65 25.2 -46.3 24.7 -47.2 23.65 -48.05 22.6 -48.55 21.7 -49.1 20.8 -49.55 19.55 -50.05 18.25 -50.15 17.8 -50.3 17.35 -50.7 15.3 -51.05 13.25 -51.15 9.75 -51.2 6.3 -51.05 4.35 -50.85 2.4 -50.5 0.5 -50.15 -1.45 -49.7 -2.8 -49.25 -4.15 -48.45 -5.75 -47.7 -7.4 -47.05 -8.35 -46.45 -9.3 -45.65 -10.3 -44.85 -11.35 -39.75 -16.35 -34.65 -21.4 -33.2 -23.05 -31.75 -24.7 -30.35 -26.45 -29.0 -28.15 -27.65 -30.05 -26.35 -31.95 -25.45 -33.65 -24.55 -35.4 -24.55 -35.9 -24.55 -36.4 -24.2 -36.75 -23.85 -37.1 -24.0 -37.5 -24.15 -37.9 -24.15 -38.4 -24.15 -38.95 -23.85 -39.45 -23.55 -40.0 -22.85 -41.3 -22.2 -42.6 -22.3 -43.35 -22.35 -44.05 -23.45 -48.0 -24.6 -51.95 -24.95 -53.95 -25.3 -55.9 -25.4 -57.3 -25.45 -58.7 -25.3 -60.15 -25.15 -61.6 -24.95 -63.8 -24.7 -66.0 -24.55 -66.4 -24.4 -66.8 -23.75 -67.3 -23.1 -67.85 -22.95 -68.45 -22.8 -69.05 -22.5 -69.6 -22.25 -70.1 -21.6 -70.75 -21.0 -71.4 -20.35 -71.7 -19.65 -71.95 -18.7 -72.05 -17.75 -72.1 -17.2 -71.85 -16.65 -71.65 -15.45 -70.85 -14.25 -70.05 -12.65 -69.1 -11.05 -68.15 -7.9 -66.45 -4.75 -64.8 -3.35 -63.95 -2.0 -63.1 -0.3 -61.85 1.4 -60.6 2.65 -59.35 3.9 -58.1 4.5 -57.25 5.1 -56.45 5.25 -56.45 5.35 -56.45 6.05 -56.95 6.7 -57.45 8.95 -58.8 11.2 -60.15 12.25 -60.95 13.35 -61.8 14.0 -62.45 14.6 -63.1 14.9 -63.7 15.15 -64.25 15.35 -64.85 15.5 -65.5 15.85 -65.75 16.2 -65.95 16.65 -65.8 17.1 -65.6 18.25 -64.4 19.35 -63.2 21.05 -61.05 22.75 -58.85 23.3 -57.95 23.85 -57.05 24.1 -56.4 24.4 -55.75 24.85 -53.7 25.3 -51.7 25.85 -49.7 26.45 -47.7 26.85 -46.7 27.3 -45.7 28.2 -44.3 29.1 -42.95 29.15 -42.45 29.25 -41.95 29.2 -41.2 29.1 -40.45 28.85 -40.0 28.55 -39.55 28.9 -38.4 29.2 -37.2 29.9 -34.7 30.55 -32.25 31.3 -30.25 32.05 -28.3 32.85 -26.7 33.65 -25.05 35.15 -22.4 36.65 -19.75 38.5 -16.15 40.35 -12.5 40.65 -11.75 40.95 -11.05 42.3 -7.1 43.7 -3.15 44.3 -1.45 44.85 0.2 44.85 1.6 44.85 2.95 45.25 3.5 45.6 4.05 46.4 5.7 47.25 7.4 48.1 9.25 49.0 11.15 49.65 12.85 50.3 14.55 50.8 16.45 51.25 18.35 51.35 19.35 51.45 20.3 51.15 20.6 50.9 20.9 50.25 21.05 49.65 21.2 48.85 21.35 48.0 21.5 45.7 21.65 43.35 21.8 40.4 21.8 37.5 21.8 36.2 21.65 34.85 21.5 34.3 21.35 33.7 21.2 32.65 20.95 31.65 20.7 30.35 20.2 29.0 19.7 28.2 19.25 27.4 18.8 26.6 18.25 25.8 17.75 25.15 17.0 24.45 16.3 23.85 15.25 23.25 14.2 23.25 14.15 23.25 14.05 22.65 12.75 22.05 11.5 21.85 11.05 21.65 10.6 21.25 9.65 20.85 8.7 20.25 7.45 19.7 6.2 18.9 4.85 18.1 3.45 17.1 2.05 16.15 0.65 15.5 -0.2 14.85 -1.1 14.95 2.85 15.05 6.8 15.2 8.65 15.4 10.5 15.2 11.65 15.05 12.8 14.5 13.75 14.0 14.7 13.5 15.3 13.05 15.9 12.05 16.7 11.05 17.5 10.1 18.05 9.15 18.55 7.9 19.05 6.7 19.6 5.55 19.8 4.35 20.05 3.0 20.05 1.65 20.05 0.35 20.25 -0.95 20.5 -3.9 21.25 -6.8 22.05 -9.9 22.8 -12.95 23.55 -13.95 23.75 -15.0 24.0 -15.6 24.15 -16.15 24.25 -17.05 24.4 -17.9 24.55 -19.4 24.8 -20.85 25.0 -22.1 25.15 -23.3 25.3 -25.8 25.45 -28.3 25.6 -30.05 25.75 -31.8 25.85 -33.85 26.1 -35.9 26.3 -37.2 26.3 -38.55 26.25 -41.4 26.2 -41.4 26.2 M-34.2 23.4 L-31.8 22.4 -29.1 21.25 -26.4 20.15 -22.9 18.65 -19.4 17.15 -16.65 16.1 -13.95 15.0 -11.05 13.55 -8.1 12.05 -6.6 11.1 -5.1 10.15 -3.4 8.8 -1.7 7.4 -0.3 6.05 1.05 4.75 2.6 2.85 4.15 0.95 4.65 0.2 5.15 -0.6 5.45 -0.75 5.7 -0.9 6.0 -0.65 6.3 -0.4 6.3 -0.15 6.3 0.1 5.55 1.2 4.8 2.25 3.65 3.65 2.55 5.0 1.1 6.5 -0.35 7.95 -2.1 9.4 -3.8 10.8 -4.85 11.5 -5.95 12.25 -7.7 13.25 -9.45 14.25 -11.65 15.3 -13.8 16.35 -16.65 17.5 -19.5 18.6 -24.05 20.55 -28.6 22.45 -30.45 23.25 -32.3 24.05 -32.25 24.05 -32.2 24.1 -31.15 24.0 -30.05 23.85 -28.15 23.75 -26.25 23.65 -23.85 23.45 -21.45 23.25 -19.15 22.9 -16.85 22.55 -14.85 22.1 -12.8 21.65 -10.9 21.2 -9.0 20.7 -6.0 19.95 -3.0 19.15 -1.55 18.75 -0.1 18.4 2.7 18.2 5.5 18.0 6.45 17.7 7.4 17.35 8.8 16.65 10.2 15.95 11.1 15.1 12.0 14.3 12.65 13.3 13.35 12.3 13.4 10.9 13.5 9.5 13.3 7.5 13.15 5.5 13.0 -0.65 12.85 -6.8 12.65 -8.5 12.45 -10.15 12.2 -11.45 12.0 -12.8 11.75 -14.05 11.5 -15.25 10.8 -18.55 10.1 -21.85 9.8 -23.6 9.5 -25.35 9.15 -28.05 8.85 -30.75 8.85 -34.55 8.85 -38.35 9.1 -39.6 9.35 -40.85 9.45 -41.2 9.5 -41.6 8.6 -41.95 7.65 -42.3 6.5 -42.95 5.35 -43.6 2.3 -45.55 -0.7 -47.5 -2.5 -48.5 -4.35 -49.55 -6.15 -50.35 -7.95 -51.2 -9.45 -51.7 -10.9 -52.15 -11.8 -52.25 -12.7 -52.35 -12.95 -52.65 -13.2 -52.9 -12.95 -53.3 -12.7 -53.65 -12.4 -53.65 -12.05 -53.65 -11.2 -53.5 -10.3 -53.35 -9.15 -52.95 -7.95 -52.6 -6.15 -51.8 -4.3 -51.0 -2.55 -50.05 -0.8 -49.05 0.65 -48.15 2.1 -47.25 4.0 -46.0 5.9 -44.8 6.95 -44.2 7.95 -43.65 8.5 -43.4 9.05 -43.15 9.05 -43.3 9.05 -43.5 8.65 -44.75 8.2 -45.95 7.6 -47.5 7.0 -49.05 5.85 -51.4 4.7 -53.7 3.8 -55.1 2.9 -56.5 1.6 -57.8 0.35 -59.1 -1.3 -60.35 -3.0 -61.65 -4.6 -62.6 -6.2 -63.55 -7.7 -64.3 -9.15 -65.1 -10.4 -65.75 -11.65 -66.4 -13.4 -67.45 -15.15 -68.45 -16.4 -69.3 -17.6 -70.1 -18.05 -70.25 -18.45 -70.35 -19.25 -70.1 -20.0 -69.9 -20.55 -69.25 -21.05 -68.65 -21.15 -68.15 -21.25 -67.6 -21.5 -67.1 -21.8 -66.55 -22.35 -66.1 -22.9 -65.65 -23.0 -64.35 -23.1 -63.1 -23.35 -61.5 -23.55 -59.9 -23.55 -58.2 -23.55 -56.5 -23.2 -54.45 -22.8 -52.4 -22.3 -50.6 -21.75 -48.75 -21.05 -46.05 -20.35 -43.35 -20.35 -42.95 -20.35 -42.55 -20.85 -41.35 -21.35 -40.15 -21.9 -39.3 -22.4 -38.45 -22.2 -37.9 -22.05 -37.35 -21.9 -37.2 -21.75 -37.0 -20.85 -35.15 -19.9 -33.25 -18.8 -31.5 -17.65 -29.75 -15.75 -27.05 -13.8 -24.35 -12.4 -22.3 -11.0 -20.25 -10.25 -18.95 -9.5 -17.7 -8.85 -16.35 -8.2 -15.0 -7.9 -13.85 -7.6 -12.7 -7.65 -12.15 -7.7 -11.6 -8.1 -11.55 -8.45 -11.55 -8.7 -11.85 -8.9 -12.2 -9.0 -12.8 -9.1 -13.35 -9.4 -14.25 -9.7 -15.15 -10.5 -16.75 -11.3 -18.35 -13.2 -21.1 -15.1 -23.9 -17.2 -26.9 -19.35 -29.9 -20.15 -31.2 -20.95 -32.55 -21.75 -34.05 -22.55 -35.55 -22.7 -35.2 -22.85 -34.85 -23.45 -33.65 -24.0 -32.4 -24.65 -31.3 -25.35 -30.2 -26.6 -28.45 -27.85 -26.7 -29.25 -24.9 -30.7 -23.15 -32.35 -21.35 -34.0 -19.5 -35.5 -18.0 -37.05 -16.45 -40.0 -13.6 -42.9 -10.75 -43.75 -9.7 -44.65 -8.7 -45.4 -7.55 -46.15 -6.35 -46.8 -5.15 -47.4 -3.9 -47.9 -2.45 -48.4 -0.95 -48.6 0.15 -48.8 1.25 -49.05 2.8 -49.25 4.3 -49.35 7.25 -49.45 10.15 -49.3 11.85 -49.1 13.55 -48.8 15.3 -48.5 17.05 -48.0 18.5 -47.5 19.95 -46.95 20.9 -46.4 21.85 -45.45 22.85 -44.55 23.85 -44.25 24.0 -43.95 24.2 -43.05 24.3 -42.2 24.35 -39.4 24.4 -36.6 24.4 -34.2 23.4 M-15.6 -14.2 L-17.5 -14.95 -19.4 -15.95 -21.35 -16.95 -22.55 -17.7 -23.75 -18.45 -24.75 -19.25 -25.7 -20.05 -26.55 -21.1 -27.45 -22.15 -27.6 -22.45 -27.8 -22.8 -27.8 -22.95 -27.8 -23.05 -27.55 -23.3 -27.3 -23.55 -27.15 -23.55 -26.95 -23.55 -25.85 -22.2 -24.7 -20.9 -23.8 -20.15 -22.85 -19.35 -21.6 -18.65 -20.4 -17.9 -18.8 -17.1 -17.2 -16.25 -15.0 -15.4 -12.8 -14.5 -12.65 -14.25 -12.5 -14.05 -12.65 -13.8 -12.85 -13.5 -13.25 -13.5 -13.7 -13.45 -15.6 -14.2 M44.2 19.9 L47.0 19.75 48.15 19.6 49.35 19.45 49.45 19.35 49.55 19.25 49.35 18.2 49.15 17.2 48.75 15.85 48.35 14.55 47.65 12.7 46.9 10.9 45.65 8.3 44.4 5.7 44.0 5.8 43.65 5.85 43.35 5.65 43.05 5.45 43.05 2.85 43.05 0.2 42.15 -2.1 41.25 -4.45 40.2 -7.65 39.1 -10.9 37.2 -14.75 35.25 -18.65 33.6 -21.5 32.0 -24.35 31.3 -25.75 30.6 -27.1 29.9 -28.8 29.25 -30.5 28.6 -32.7 27.95 -34.85 27.45 -36.7 27.0 -38.5 26.7 -39.15 26.4 -39.75 26.85 -40.4 27.3 -41.05 27.4 -41.5 27.5 -41.95 27.25 -42.4 27.05 -42.85 26.3 -43.9 25.6 -44.95 25.15 -46.05 24.7 -47.2 24.05 -49.45 23.4 -51.7 23.0 -53.5 22.6 -55.35 22.25 -56.05 21.9 -56.8 21.4 -57.55 20.9 -58.3 19.85 -59.7 18.75 -61.05 17.85 -62.2 16.9 -63.3 16.8 -63.3 16.75 -63.3 16.35 -62.6 16.0 -61.9 15.05 -60.95 14.1 -60.0 12.7 -59.05 11.3 -58.05 10.25 -57.45 9.15 -56.8 7.7 -55.9 6.3 -54.95 6.3 -54.75 6.3 -54.5 7.45 -52.2 8.6 -49.9 9.45 -47.75 10.35 -45.55 10.9 -43.85 11.45 -42.1 11.35 -41.55 11.3 -41.0 11.05 -39.9 10.85 -38.8 10.65 -37.0 10.5 -35.15 10.55 -33.25 10.65 -31.35 10.95 -28.7 11.25 -26.1 11.6 -23.9 12.0 -21.7 12.65 -18.8 13.25 -15.85 13.6 -14.2 13.9 -12.5 14.05 -11.7 14.2 -10.9 14.45 -8.5 14.75 -6.05 14.75 -5.4 14.75 -4.75 15.1 -4.1 15.4 -3.45 16.55 -1.9 17.65 -0.35 18.35 0.6 19.0 1.55 19.95 3.05 20.85 4.6 21.85 6.6 22.8 8.55 23.8 10.95 24.85 13.4 25.5 14.45 26.1 15.55 27.05 16.35 28.0 17.1 29.45 17.85 30.9 18.55 32.1 18.9 33.25 19.3 34.4 19.5 35.6 19.75 36.85 19.85 38.1 20.0 39.75 20.0 41.45 20.05 44.2 19.9 44.2 19.9 M28.35 6.1 L28.2 5.85 28.2 1.5 28.2 -2.85 28.05 -6.05 27.9 -9.3 27.55 -15.0 27.2 -20.7 27.05 -22.6 26.9 -24.5 26.75 -25.65 26.6 -26.8 26.05 -29.8 25.55 -32.8 25.55 -33.95 25.5 -35.1 25.75 -35.3 26.0 -35.45 26.25 -35.2 26.5 -34.95 26.85 -32.5 27.2 -30.05 27.25 -29.85 27.35 -29.6 27.7 -27.1 28.05 -24.65 28.2 -22.75 28.35 -20.85 28.8 -13.9 29.25 -6.95 29.35 -1.4 29.4 4.1 29.65 4.1 29.9 4.1 30.55 3.8 31.2 3.5 31.8 3.0 32.45 2.45 33.05 1.6 33.65 0.75 34.45 -1.0 35.3 -2.7 35.35 -6.4 35.45 -10.05 35.7 -10.3 35.9 -10.55 36.25 -10.4 36.55 -10.2 36.55 -6.65 36.55 -3.05 36.25 -2.15 35.95 -1.25 35.4 -0.25 34.9 0.8 34.25 1.85 33.6 2.85 33.15 3.35 32.65 3.85 31.8 4.4 30.95 4.95 30.1 5.15 29.25 5.3 29.25 5.65 29.25 5.95 29.05 6.1 28.9 6.3 28.7 6.3 28.55 6.3 28.35 6.1 28.35 6.1" fill="#767676" fill-rule="evenodd" stroke="none"/>
    <path d="M-41.4 26.2 L-44.25 26.1 -44.9 25.7 -45.55 25.3 -46.35 24.55 -47.15 23.75 -47.8 22.9 -48.45 22.0 -48.85 21.15 -49.3 20.3 -49.8 18.8 -50.3 17.3 -50.7 15.15 -51.1 12.95 -51.1 8.55 -51.1 4.15 -50.85 2.5 -50.55 0.8 -50.35 -0.3 -50.15 -1.4 -49.65 -2.9 -49.15 -4.4 -48.35 -6.0 -47.55 -7.6 -46.7 -8.85 -45.85 -10.05 -44.7 -11.35 -43.55 -12.65 -39.55 -16.55 -35.5 -20.5 -33.65 -22.55 -31.8 -24.65 -30.45 -26.25 -29.15 -27.9 -28.0 -29.5 -26.9 -31.15 -26.1 -32.45 -25.3 -33.7 -24.95 -34.6 -24.55 -35.5 -24.55 -35.85 -24.55 -36.25 -24.2 -36.65 -23.85 -37.1 -24.0 -37.6 -24.15 -38.1 -24.15 -38.5 -24.15 -38.95 -23.85 -39.45 -23.55 -40.0 -22.9 -41.3 -22.25 -42.6 -22.25 -43.05 -22.25 -43.5 -22.85 -45.9 -23.5 -48.3 -24.05 -50.15 -24.6 -51.95 -24.95 -54.0 -25.3 -56.0 -25.4 -57.25 -25.45 -58.55 -25.3 -60.0 -25.15 -61.45 -24.9 -63.75 -24.7 -66.0 -24.5 -66.45 -24.25 -66.9 -23.6 -67.45 -22.95 -68.0 -22.95 -68.3 -22.95 -68.65 -22.65 -69.25 -22.4 -69.85 -21.7 -70.6 -21.05 -71.3 -20.3 -71.65 -19.55 -71.95 -18.8 -72.05 -18.0 -72.1 -17.35 -71.9 -16.7 -71.65 -15.25 -70.7 -13.8 -69.8 -12.6 -69.05 -11.35 -68.3 -8.3 -66.7 -5.25 -65.05 -3.7 -64.15 -2.15 -63.25 -0.3 -61.85 1.55 -60.45 2.75 -59.2 4.0 -57.95 4.6 -57.1 5.15 -56.3 6.05 -56.95 6.95 -57.6 8.6 -58.55 10.3 -59.55 11.45 -60.35 12.6 -61.15 13.55 -62.05 14.5 -62.95 14.95 -63.8 15.35 -64.7 15.35 -64.9 15.35 -65.15 15.55 -65.45 15.8 -65.8 16.35 -65.8 16.9 -65.8 18.05 -64.6 19.2 -63.35 20.8 -61.35 22.4 -59.3 23.05 -58.3 23.7 -57.3 24.05 -56.5 24.4 -55.75 24.6 -54.6 24.85 -53.45 25.25 -51.95 25.6 -50.5 26.1 -48.85 26.65 -47.15 27.05 -46.25 27.45 -45.4 28.25 -44.2 29.05 -42.95 29.15 -42.45 29.25 -41.95 29.2 -41.3 29.1 -40.65 28.8 -40.05 28.5 -39.45 28.55 -39.35 28.65 -39.2 29.4 -36.45 30.15 -33.7 30.65 -32.1 31.15 -30.5 31.6 -29.4 32.05 -28.3 32.9 -26.6 33.7 -24.9 35.3 -22.15 36.9 -19.35 38.85 -15.35 40.85 -11.35 41.7 -8.75 42.55 -6.2 43.5 -3.6 44.45 -0.95 44.65 -0.2 44.85 0.5 44.85 1.75 44.85 3.0 45.1 3.35 45.3 3.65 46.75 6.55 48.2 9.45 48.85 10.95 49.5 12.5 49.9 13.55 50.25 14.55 50.65 15.85 51.05 17.2 51.25 18.65 51.45 20.1 51.3 20.4 51.2 20.75 50.5 20.95 49.75 21.2 48.8 21.35 47.85 21.5 45.55 21.65 43.2 21.8 40.4 21.8 37.65 21.8 36.3 21.65 35.0 21.5 33.9 21.25 32.8 21.05 31.65 20.65 30.45 20.3 28.85 19.5 27.25 18.75 26.35 18.05 25.45 17.4 24.85 16.7 24.3 16.05 23.55 14.65 22.85 13.25 21.75 10.75 20.7 8.25 19.75 6.45 18.8 4.6 17.55 2.7 16.3 0.8 15.6 -0.15 14.85 -1.1 14.95 3.0 15.05 7.1 15.2 8.75 15.4 10.4 15.2 11.5 15.05 12.65 14.55 13.65 14.0 14.7 13.4 15.35 12.8 16.05 11.8 16.85 10.8 17.7 9.1 18.5 7.45 19.3 6.3 19.6 5.2 19.9 2.85 20.05 0.5 20.15 -0.75 20.45 -2.0 20.75 -4.1 21.3 -6.2 21.9 -8.35 22.4 -10.45 22.95 -12.3 23.35 -14.1 23.8 -16.0 24.2 -17.9 24.55 -19.95 24.85 -22.0 25.15 -23.75 25.3 -25.5 25.45 -28.15 25.6 -30.8 25.75 -32.55 25.95 -34.3 26.2 -36.4 26.25 -38.55 26.3 -41.4 26.2 -41.4 26.2 M-32.9 22.85 L-29.15 21.3 -27.5 20.6 -25.8 19.9 -23.55 18.95 -21.3 17.95 -17.9 16.6 -14.55 15.25 -12.9 14.5 -11.25 13.75 -9.1 12.55 -6.95 11.35 -6.0 10.75 -5.05 10.15 -3.6 8.95 -2.1 7.8 -0.3 6.05 1.5 4.35 2.85 2.6 4.2 0.9 4.75 0.1 5.25 -0.7 5.45 -0.8 5.7 -0.85 6.0 -0.6 6.35 -0.3 5.95 0.45 5.55 1.25 4.15 3.0 2.75 4.75 1.55 6.0 0.35 7.2 -0.9 8.3 -2.15 9.45 -3.15 10.25 -4.15 11.05 -5.05 11.65 -5.95 12.25 -8.1 13.45 -10.25 14.65 -12.3 15.6 -14.4 16.55 -17.25 17.7 -20.15 18.85 -23.2 20.15 -26.25 21.45 -28.65 22.5 -31.05 23.5 -31.75 23.75 -32.45 24.0 -32.4 24.1 -32.35 24.15 -31.0 24.0 -29.6 23.85 -26.9 23.7 -24.2 23.55 -22.75 23.4 -21.3 23.25 -19.9 23.0 -18.5 22.8 -17.2 22.55 -15.85 22.35 -11.8 21.4 -7.7 20.45 -4.75 19.65 -1.85 18.85 -0.8 18.6 0.2 18.4 2.9 18.2 5.65 18.0 6.35 17.75 7.1 17.5 8.55 16.8 10.05 16.05 11.1 15.1 12.15 14.15 12.65 13.35 13.15 12.6 13.3 12.1 13.45 11.65 13.45 10.25 13.45 8.85 13.3 7.3 13.15 5.8 13.0 -0.6 12.85 -6.95 12.65 -8.6 12.45 -10.25 11.9 -13.15 11.4 -16.0 10.85 -18.55 10.25 -21.1 9.9 -23.3 9.5 -25.5 9.15 -28.2 8.85 -30.9 8.85 -34.55 8.85 -38.25 9.1 -39.45 9.35 -40.7 9.45 -41.15 9.55 -41.65 8.95 -41.8 8.4 -42.0 7.15 -42.65 5.9 -43.25 3.95 -44.55 1.95 -45.8 0.4 -46.8 -1.2 -47.8 -3.1 -48.85 -4.95 -49.85 -6.55 -50.6 -8.15 -51.3 -9.3 -51.65 -10.45 -52.05 -11.5 -52.2 -12.5 -52.35 -12.75 -52.45 -12.95 -52.6 -13.0 -52.95 -13.05 -53.35 -12.7 -53.5 -12.4 -53.65 -11.65 -53.55 -10.9 -53.45 -9.65 -53.1 -8.45 -52.75 -7.05 -52.15 -5.65 -51.55 -3.9 -50.7 -2.2 -49.85 -0.6 -48.9 1.0 -47.95 3.75 -46.15 6.5 -44.4 7.8 -43.75 9.05 -43.1 9.1 -43.15 9.2 -43.2 8.7 -44.6 8.2 -46.05 7.65 -47.4 7.15 -48.75 6.3 -50.55 5.45 -52.3 4.6 -53.75 3.8 -55.25 3.15 -56.1 2.5 -56.95 1.7 -57.75 0.95 -58.55 -0.25 -59.5 -1.4 -60.5 -2.4 -61.2 -3.45 -61.95 -4.85 -62.75 -6.2 -63.55 -9.2 -65.15 -12.2 -66.75 -13.55 -67.55 -14.85 -68.3 -16.25 -69.25 -17.65 -70.15 -18.1 -70.25 -18.5 -70.35 -19.15 -70.15 -19.75 -70.0 -20.35 -69.5 -20.9 -68.95 -21.2 -67.95 -21.5 -66.95 -22.2 -66.3 -22.9 -65.65 -23.2 -62.75 -23.55 -59.85 -23.55 -58.1 -23.55 -56.3 -23.15 -54.3 -22.8 -52.25 -22.35 -50.75 -21.9 -49.2 -21.2 -46.5 -20.45 -43.85 -20.4 -43.25 -20.3 -42.6 -20.9 -41.3 -21.45 -39.95 -21.9 -39.25 -22.4 -38.5 -22.3 -38.1 -22.2 -37.7 -21.25 -35.85 -20.3 -34.0 -19.7 -32.95 -19.1 -31.95 -17.8 -29.95 -16.45 -28.0 -14.8 -25.65 -13.15 -23.35 -11.85 -21.4 -10.55 -19.5 -9.7 -17.9 -8.8 -16.3 -8.35 -15.1 -7.9 -13.9 -7.75 -13.0 -7.55 -12.1 -7.7 -11.85 -7.85 -11.6 -8.15 -11.6 -8.45 -11.55 -8.6 -11.75 -8.8 -11.95 -9.15 -13.35 -9.5 -14.8 -10.25 -16.25 -11.0 -17.75 -11.65 -18.85 -12.35 -19.95 -14.15 -22.6 -16.0 -25.2 -17.55 -27.4 -19.1 -29.6 -20.05 -31.15 -21.05 -32.7 -21.8 -34.1 -22.55 -35.55 -22.65 -35.4 -22.75 -35.3 -23.05 -34.55 -23.3 -33.85 -23.95 -32.6 -24.6 -31.35 -25.5 -30.05 -26.35 -28.7 -27.15 -27.65 -28.0 -26.55 -29.15 -25.05 -30.3 -23.6 -32.15 -21.55 -34.05 -19.5 -37.15 -16.45 -40.3 -13.4 -41.95 -11.7 -43.6 -10.0 -44.7 -8.6 -45.75 -7.15 -46.6 -5.45 -47.5 -3.75 -47.95 -2.35 -48.4 -1.0 -48.75 1.0 -49.15 2.95 -49.3 5.15 -49.45 7.4 -49.35 9.95 -49.3 12.5 -49.05 14.05 -48.8 15.55 -48.5 16.8 -48.2 18.05 -47.75 19.2 -47.35 20.35 -46.65 21.4 -45.9 22.5 -44.95 23.35 -44.0 24.25 -43.3 24.3 -42.6 24.35 -39.6 24.4 -36.6 24.4 -32.9 22.85 M-15.45 -14.15 L-17.2 -14.85 -19.15 -15.85 -21.05 -16.8 -22.4 -17.65 -23.75 -18.45 -24.55 -19.1 -25.35 -19.8 -25.95 -20.4 -26.5 -21.0 -27.15 -21.85 -27.8 -22.7 -27.8 -22.85 -27.8 -23.05 -27.5 -23.3 -27.2 -23.55 -26.95 -23.4 -26.65 -23.25 -26.05 -22.45 -25.4 -21.6 -24.3 -20.6 -23.2 -19.55 -21.45 -18.55 -19.75 -17.55 -17.8 -16.6 -15.85 -15.65 -14.4 -15.15 -12.95 -14.6 -12.75 -14.4 -12.55 -14.2 -12.7 -13.8 -12.85 -13.45 -13.25 -13.45 -13.7 -13.45 -15.45 -14.15 -15.45 -14.15 M46.95 19.7 L48.7 19.55 49.1 19.45 49.5 19.35 49.45 18.75 49.4 18.2 49.1 17.05 48.8 15.85 48.45 14.75 48.05 13.65 47.55 12.45 47.05 11.2 45.7 8.45 44.4 5.7 44.0 5.8 43.6 5.9 43.3 5.55 42.95 5.25 43.05 2.95 43.15 0.65 42.55 -1.0 41.9 -2.7 40.55 -6.7 39.2 -10.75 37.2 -14.7 35.25 -18.65 33.65 -21.5 32.0 -24.35 31.15 -26.1 30.25 -27.85 29.6 -29.65 28.95 -31.5 28.3 -33.75 27.65 -36.05 27.35 -37.25 27.0 -38.5 26.75 -39.05 26.45 -39.6 26.55 -39.85 26.65 -40.15 27.0 -40.65 27.4 -41.15 27.4 -41.75 27.4 -42.3 26.7 -43.3 26.0 -44.3 25.65 -45.05 25.3 -45.75 24.95 -46.65 24.6 -47.6 24.0 -49.7 23.4 -51.8 23.0 -53.5 22.65 -55.2 22.55 -55.5 22.45 -55.75 21.9 -56.75 21.35 -57.75 20.35 -59.0 19.4 -60.3 18.15 -61.8 16.95 -63.3 16.85 -63.3 16.75 -63.3 16.3 -62.6 15.9 -61.85 15.05 -61.05 14.25 -60.2 13.2 -59.4 12.1 -58.6 10.55 -57.65 9.0 -56.75 8.05 -56.15 7.1 -55.55 6.6 -55.15 6.1 -54.75 7.15 -52.75 8.15 -50.8 9.1 -48.55 10.05 -46.25 10.75 -44.2 11.45 -42.1 11.35 -41.55 11.25 -41.0 11.05 -40.0 10.85 -38.95 10.65 -37.15 10.5 -35.3 10.55 -33.25 10.65 -31.2 10.95 -28.6 11.25 -25.95 11.65 -23.75 12.0 -21.55 12.55 -19.0 13.15 -16.45 13.5 -14.4 13.9 -12.35 14.05 -11.55 14.2 -10.75 14.45 -8.35 14.75 -5.9 14.75 -5.3 14.75 -4.7 15.1 -4.05 15.4 -3.45 16.9 -1.35 18.4 0.7 19.35 2.15 20.3 3.6 21.25 5.4 22.2 7.25 23.05 9.3 23.95 11.35 24.75 13.0 25.55 14.7 26.0 15.3 26.45 15.95 27.35 16.6 28.3 17.3 29.4 17.85 30.45 18.4 31.4 18.7 32.3 19.0 33.35 19.3 34.4 19.55 35.65 19.75 36.9 19.9 37.4 19.95 37.95 20.0 41.55 19.95 45.2 19.9 46.95 19.7 46.95 19.7 M28.4 6.1 L28.25 5.9 28.15 -0.75 28.1 -7.4 27.8 -11.85 27.5 -16.3 27.25 -19.75 27.0 -23.15 26.8 -25.0 26.6 -26.8 26.1 -29.8 25.6 -32.8 25.5 -33.95 25.4 -35.05 25.7 -35.2 25.95 -35.35 26.2 -35.2 26.45 -35.0 26.75 -33.05 27.0 -31.05 27.4 -28.9 27.75 -26.7 28.0 -24.65 28.2 -22.6 28.65 -15.8 29.1 -9.05 29.25 -5.15 29.4 -1.3 29.35 1.4 29.3 4.1 29.75 4.05 30.25 3.95 30.8 3.7 31.35 3.45 32.25 2.55 33.1 1.7 33.75 0.55 34.35 -0.55 34.9 -1.85 35.4 -3.15 35.45 -6.0 35.5 -8.85 35.5 -9.55 35.5 -10.2 35.8 -10.35 36.1 -10.5 36.3 -10.3 36.55 -10.05 36.5 -6.35 36.45 -2.7 35.95 -1.45 35.45 -0.2 34.8 0.95 34.15 2.05 33.45 2.9 32.8 3.75 31.9 4.35 30.95 4.95 30.1 5.15 29.25 5.3 29.25 5.65 29.25 5.95 29.05 6.1 28.9 6.3 28.7 6.3 28.55 6.3 28.4 6.1" fill="#606060" fill-rule="evenodd" stroke="none"/>
    <path d="M-41.3 26.2 L-44.25 26.1 -44.75 25.8 -45.25 25.55 -46.55 24.2 -47.9 22.85 -48.5 21.75 -49.15 20.65 -49.7 19.0 -50.3 17.35 -50.65 15.2 -51.05 13.1 -51.15 9.9 -51.2 6.7 -51.05 4.65 -50.85 2.55 -50.5 0.6 -50.15 -1.3 -49.65 -2.9 -49.1 -4.45 -48.15 -6.3 -47.2 -8.15 -46.05 -9.65 -44.9 -11.2 -43.2 -12.95 -41.45 -14.7 -38.25 -17.85 -35.05 -21.0 -33.4 -22.8 -31.75 -24.65 -30.15 -26.7 -28.5 -28.7 -27.25 -30.6 -25.95 -32.55 -25.25 -33.9 -24.55 -35.3 -24.55 -35.8 -24.55 -36.25 -24.2 -36.65 -23.85 -37.0 -24.0 -37.55 -24.15 -38.1 -24.15 -38.45 -24.15 -38.85 -23.6 -39.8 -23.1 -40.7 -22.65 -41.65 -22.2 -42.6 -22.3 -43.4 -22.35 -44.2 -23.45 -48.15 -24.55 -52.1 -24.9 -54.0 -25.25 -55.9 -25.35 -57.15 -25.45 -58.4 -25.3 -59.8 -25.2 -61.2 -24.95 -63.6 -24.7 -66.0 -24.5 -66.45 -24.25 -66.9 -23.7 -67.3 -23.1 -67.75 -23.0 -68.1 -22.95 -68.5 -22.7 -69.1 -22.5 -69.7 -21.85 -70.45 -21.2 -71.2 -20.45 -71.55 -19.65 -71.9 -19.0 -72.0 -18.3 -72.1 -17.55 -71.95 -16.8 -71.75 -16.2 -71.3 -15.6 -70.85 -13.7 -69.7 -11.8 -68.55 -8.5 -66.75 -5.2 -65.0 -3.65 -64.1 -2.15 -63.2 -0.35 -61.85 1.45 -60.5 2.6 -59.35 3.75 -58.2 4.45 -57.3 5.15 -56.35 5.25 -56.4 5.4 -56.45 6.3 -57.1 7.15 -57.75 8.75 -58.6 10.3 -59.5 11.6 -60.45 12.9 -61.4 13.75 -62.2 14.6 -63.05 15.0 -63.8 15.35 -64.55 15.35 -64.85 15.35 -65.15 15.65 -65.45 15.95 -65.8 16.4 -65.8 16.85 -65.8 18.05 -64.6 19.2 -63.35 20.7 -61.45 22.2 -59.5 22.8 -58.65 23.35 -57.8 23.8 -56.95 24.25 -56.05 24.45 -55.15 24.65 -54.3 25.0 -52.9 25.3 -51.55 25.9 -49.5 26.5 -47.45 26.9 -46.5 27.35 -45.55 28.25 -44.15 29.15 -42.8 29.15 -41.75 29.15 -40.7 28.85 -40.15 28.5 -39.6 28.85 -38.35 29.2 -37.05 29.9 -34.65 30.55 -32.25 31.15 -30.55 31.75 -28.85 32.65 -26.95 33.6 -25.05 35.25 -22.2 36.85 -19.35 38.85 -15.4 40.8 -11.45 42.1 -7.65 43.4 -3.85 44.15 -1.75 44.85 0.35 44.85 1.6 44.85 2.8 46.6 6.25 48.35 9.7 49.15 11.7 49.95 13.65 50.35 14.9 50.7 16.1 50.95 17.1 51.15 18.05 51.3 19.05 51.45 20.05 51.4 20.3 51.3 20.6 50.8 20.85 50.3 21.05 49.1 21.3 47.85 21.5 45.45 21.65 43.05 21.8 40.4 21.8 37.8 21.8 36.45 21.65 35.15 21.5 33.75 21.2 32.4 20.9 31.3 20.55 30.2 20.15 28.7 19.45 27.25 18.75 26.3 18.0 25.35 17.25 24.8 16.65 24.25 16.0 23.3 14.1 22.4 12.2 21.5 10.1 20.6 7.95 19.65 6.2 18.75 4.45 18.2 3.6 17.65 2.7 16.3 0.8 15.0 -1.05 14.95 1.9 14.9 4.9 15.05 6.8 15.2 8.65 15.2 10.3 15.2 11.95 14.9 12.75 14.65 13.55 14.15 14.35 13.6 15.15 12.6 16.1 11.6 17.05 10.8 17.55 10.0 18.1 9.15 18.45 8.3 18.85 7.45 19.2 6.6 19.6 5.3 19.8 4.05 20.05 2.7 20.05 1.35 20.05 0.1 20.25 -1.1 20.5 -2.15 20.8 -3.15 21.05 -7.15 22.1 -11.2 23.1 -14.1 23.75 -17.05 24.4 -19.6 24.75 -22.15 25.15 -23.9 25.3 -25.65 25.45 -28.2 25.6 -30.8 25.75 -32.65 25.95 -34.55 26.2 -36.45 26.25 -38.4 26.3 -41.3 26.2 M-34.8 23.7 L-33.1 23.0 -29.9 21.65 -26.7 20.3 -23.3 18.85 -19.95 17.45 -17.0 16.25 -14.05 15.05 -12.4 14.25 -10.75 13.5 -8.7 12.35 -6.65 11.2 -5.6 10.5 -4.55 9.8 -2.8 8.35 -1.1 6.9 0.5 5.25 2.1 3.6 3.05 2.4 4.0 1.25 4.65 0.25 5.25 -0.75 5.6 -0.75 6.0 -0.75 6.15 -0.45 6.3 -0.15 5.85 0.65 5.35 1.5 3.7 3.5 2.1 5.5 0.55 6.95 -0.95 8.4 -2.5 9.65 -4.05 10.95 -5.1 11.65 -6.2 12.4 -8.5 13.65 -10.75 14.9 -12.85 15.85 -15.0 16.8 -17.5 17.75 -19.95 18.75 -22.1 19.65 -24.2 20.6 -26.45 21.55 -28.75 22.5 -30.55 23.25 -32.4 24.0 -32.45 24.1 -32.55 24.15 -31.75 24.05 -30.95 24.0 -27.55 23.75 -24.2 23.55 -22.65 23.4 -21.15 23.25 -19.75 23.0 -18.35 22.8 -17.4 22.65 -16.45 22.5 -14.5 22.05 -12.5 21.6 -9.6 20.9 -6.7 20.15 -3.95 19.45 -1.25 18.7 0.0 18.5 1.25 18.3 2.5 18.3 3.75 18.3 5.0 18.05 6.3 17.85 7.75 17.2 9.25 16.55 9.85 16.15 10.45 15.75 11.15 15.15 11.85 14.6 12.5 13.6 13.15 12.6 13.3 12.1 13.45 11.65 13.45 10.1 13.45 8.55 13.3 7.15 13.15 5.8 13.1 0.95 13.0 -3.85 12.9 -5.4 12.85 -6.95 12.7 -8.25 12.55 -9.55 12.05 -12.5 11.5 -15.4 10.9 -18.4 10.25 -21.4 9.85 -23.45 9.5 -25.5 9.2 -28.2 8.85 -30.9 8.85 -34.55 8.85 -38.25 9.1 -39.45 9.35 -40.7 9.45 -41.15 9.5 -41.6 8.8 -41.85 8.1 -42.15 6.95 -42.75 5.75 -43.35 2.5 -45.5 -0.8 -47.6 -2.15 -48.35 -3.5 -49.15 -5.3 -50.0 -7.1 -50.85 -8.25 -51.3 -9.35 -51.75 -10.5 -52.05 -11.6 -52.35 -12.05 -52.35 -12.45 -52.35 -12.75 -52.5 -13.0 -52.65 -13.0 -52.9 -13.0 -53.2 -12.8 -53.45 -12.55 -53.7 -11.85 -53.6 -11.2 -53.5 -10.25 -53.25 -9.3 -53.05 -7.45 -52.3 -5.65 -51.6 -3.35 -50.4 -1.1 -49.25 0.8 -48.05 2.7 -46.8 4.65 -45.55 6.65 -44.3 7.85 -43.7 9.05 -43.1 9.15 -43.15 9.2 -43.2 8.65 -44.8 8.05 -46.4 7.5 -47.8 6.95 -49.2 5.75 -51.6 4.55 -54.0 3.65 -55.4 2.7 -56.75 1.55 -57.95 0.35 -59.15 -1.4 -60.45 -3.15 -61.75 -4.4 -62.5 -5.65 -63.25 -8.85 -65.0 -12.05 -66.7 -14.25 -68.0 -16.45 -69.35 -17.05 -69.75 -17.6 -70.15 -18.05 -70.25 -18.5 -70.35 -19.15 -70.2 -19.75 -70.0 -20.25 -69.55 -20.8 -69.1 -20.95 -68.7 -21.15 -68.35 -21.25 -67.75 -21.35 -67.2 -22.15 -66.4 -22.9 -65.55 -23.0 -64.45 -23.1 -63.35 -23.35 -61.7 -23.55 -60.0 -23.55 -58.1 -23.55 -56.2 -23.2 -54.25 -22.8 -52.25 -22.5 -51.25 -22.2 -50.2 -21.35 -47.0 -20.45 -43.8 -20.35 -43.15 -20.3 -42.55 -21.35 -40.45 -22.4 -38.3 -22.3 -38.0 -22.2 -37.65 -21.05 -35.45 -19.95 -33.25 -19.05 -31.85 -18.15 -30.4 -15.55 -26.7 -12.95 -23.0 -11.9 -21.5 -10.85 -19.95 -10.05 -18.55 -9.25 -17.15 -8.7 -15.95 -8.2 -14.75 -7.9 -13.6 -7.6 -12.4 -7.65 -12.1 -7.7 -11.8 -7.95 -11.65 -8.2 -11.45 -8.45 -11.65 -8.7 -11.8 -8.95 -12.8 -9.2 -13.8 -9.6 -14.85 -10.0 -15.95 -11.0 -17.7 -12.05 -19.5 -13.25 -21.25 -14.45 -23.0 -16.1 -25.35 -17.75 -27.7 -18.65 -29.0 -19.55 -30.35 -20.35 -31.65 -21.2 -33.0 -21.9 -34.35 -22.65 -35.7 -22.8 -35.15 -23.0 -34.55 -23.45 -33.65 -23.85 -32.7 -24.55 -31.5 -25.25 -30.35 -26.6 -28.45 -27.95 -26.55 -29.25 -25.0 -30.5 -23.45 -32.2 -21.55 -33.95 -19.6 -38.2 -15.4 -42.5 -11.25 -43.5 -10.1 -44.5 -8.9 -45.3 -7.8 -46.05 -6.65 -46.8 -5.15 -47.5 -3.7 -47.95 -2.3 -48.45 -0.95 -48.75 0.9 -49.1 2.8 -49.3 4.8 -49.45 6.8 -49.4 9.7 -49.3 12.65 -49.05 14.15 -48.8 15.65 -48.45 17.05 -48.1 18.45 -47.65 19.55 -47.15 20.7 -46.6 21.5 -46.05 22.35 -45.15 23.2 -44.3 24.1 -43.8 24.25 -43.35 24.4 -39.95 24.4 -36.55 24.4 -34.8 23.7 -34.8 23.7 M-15.75 -14.3 L-17.8 -15.15 -19.75 -16.2 -21.7 -17.2 -22.9 -17.9 -24.05 -18.6 -25.55 -20.1 -27.0 -21.55 -27.4 -22.15 -27.8 -22.8 -27.65 -23.1 -27.5 -23.4 -27.15 -23.4 -26.8 -23.4 -25.9 -22.25 -24.95 -21.1 -24.2 -20.45 -23.45 -19.75 -22.4 -19.1 -21.35 -18.4 -19.15 -17.25 -16.9 -16.1 -15.05 -15.35 -13.2 -14.6 -13.05 -14.6 -12.9 -14.6 -12.75 -14.35 -12.6 -14.05 -12.6 -14.0 -12.6 -13.9 -12.8 -13.7 -13.05 -13.45 -13.35 -13.45 -13.7 -13.45 -15.75 -14.3 -15.75 -14.3 M44.75 19.9 L47.3 19.75 48.35 19.6 49.45 19.45 49.5 19.4 49.6 19.3 49.4 18.3 49.2 17.35 48.75 15.7 48.25 14.1 47.4 12.05 46.5 10.0 45.45 7.85 44.4 5.7 44.05 5.75 43.75 5.85 43.4 5.55 43.05 5.3 43.05 2.75 43.05 0.2 42.0 -2.7 40.9 -5.55 40.1 -8.1 39.25 -10.6 37.25 -14.6 35.25 -18.65 33.7 -21.4 32.15 -24.15 31.2 -26.0 30.3 -27.85 29.6 -29.75 28.9 -31.65 28.2 -34.3 27.45 -36.9 27.1 -38.0 26.75 -39.1 26.65 -39.5 26.55 -39.9 26.95 -40.5 27.35 -41.1 27.45 -41.6 27.5 -42.1 26.65 -43.45 25.75 -44.8 25.4 -45.6 25.05 -46.4 24.5 -48.0 24.0 -49.65 23.45 -51.8 22.95 -54.0 22.7 -54.95 22.45 -55.85 21.9 -56.85 21.3 -57.8 20.1 -59.35 18.95 -60.9 17.95 -62.1 16.9 -63.3 16.8 -63.3 16.65 -63.3 16.35 -62.7 16.05 -62.15 15.1 -61.15 14.2 -60.15 12.9 -59.2 11.6 -58.3 10.25 -57.5 8.85 -56.7 7.95 -56.1 7.1 -55.55 6.6 -55.15 6.1 -54.75 7.15 -52.75 8.15 -50.8 9.0 -48.85 9.8 -46.85 10.65 -44.45 11.45 -42.05 11.15 -40.5 10.8 -38.95 10.65 -37.2 10.5 -35.45 10.55 -33.25 10.65 -31.05 10.95 -28.45 11.25 -25.8 11.55 -24.05 11.85 -22.3 12.5 -19.2 13.2 -16.15 13.55 -14.25 13.9 -12.35 14.15 -10.45 14.45 -8.55 14.6 -6.65 14.8 -4.75 15.0 -4.15 15.25 -3.6 16.2 -2.25 17.2 -0.95 18.35 0.75 19.55 2.4 20.3 3.75 21.05 5.05 21.85 6.65 22.6 8.25 23.55 10.4 24.45 12.5 25.1 13.8 25.75 15.05 26.25 15.65 26.8 16.25 27.6 16.8 28.45 17.35 29.45 17.85 30.45 18.4 31.55 18.8 32.65 19.15 33.95 19.45 35.3 19.75 36.55 19.85 37.8 20.0 40.0 20.0 42.15 20.05 44.75 19.9 M28.45 6.1 L28.25 5.9 28.15 -0.8 28.1 -7.55 27.8 -12.05 27.5 -16.6 27.25 -19.95 27.0 -23.3 26.8 -25.15 26.6 -26.95 26.15 -29.45 25.75 -31.95 25.55 -33.3 25.4 -34.65 25.5 -34.95 25.6 -35.25 25.95 -35.25 26.3 -35.25 26.4 -35.05 26.45 -34.85 26.8 -32.45 27.2 -30.05 27.55 -27.85 27.9 -25.65 28.1 -23.0 28.35 -20.4 28.8 -13.25 29.25 -6.05 29.3 -1.0 29.3 4.1 29.65 4.1 30.05 4.1 30.65 3.8 31.25 3.55 32.0 2.85 32.75 2.15 33.3 1.25 33.85 0.35 34.35 -0.6 34.85 -1.55 35.15 -2.35 35.4 -3.15 35.5 -6.7 35.6 -10.3 35.85 -10.35 36.1 -10.4 36.35 -10.25 36.55 -10.05 36.55 -6.65 36.55 -3.25 36.3 -2.45 36.05 -1.7 35.35 -0.25 34.65 1.2 34.1 2.0 33.6 2.85 32.8 3.6 32.05 4.35 31.25 4.7 30.45 5.1 29.85 5.2 29.25 5.3 29.25 5.65 29.25 6.0 28.95 6.15 28.7 6.3 28.45 6.1 28.45 6.1" fill="#494949" fill-rule="evenodd" stroke="none"/>
    <path d="M-41.25 26.15 L-44.1 26.05 -44.65 25.8 -45.25 25.55 -46.45 24.35 -47.6 23.15 -48.3 22.05 -49.0 20.9 -49.6 19.3 -50.15 17.7 -50.45 16.25 -50.7 14.85 -50.95 13.0 -51.15 11.2 -51.15 8.9 -51.15 6.6 -51.0 4.75 -50.9 2.85 -50.55 1.1 -50.25 -0.65 -50.0 -1.75 -49.7 -2.8 -49.2 -4.0 -48.7 -5.25 -48.25 -6.15 -47.8 -7.1 -46.95 -8.35 -46.15 -9.55 -45.3 -10.6 -44.5 -11.6 -41.65 -14.4 -38.85 -17.2 -36.85 -19.15 -34.85 -21.1 -33.2 -23.0 -31.5 -24.9 -30.3 -26.4 -29.15 -27.85 -28.1 -29.3 -27.1 -30.75 -26.3 -32.0 -25.55 -33.25 -25.05 -34.3 -24.55 -35.35 -24.45 -35.95 -24.4 -36.55 -24.1 -36.75 -23.8 -36.95 -24.0 -37.85 -24.2 -38.7 -23.7 -39.55 -23.25 -40.4 -22.7 -41.5 -22.2 -42.6 -22.15 -43.05 -22.15 -43.5 -22.6 -45.0 -23.0 -46.55 -23.5 -48.25 -23.95 -49.9 -24.25 -51.1 -24.6 -52.25 -24.95 -54.25 -25.3 -56.2 -25.3 -58.25 -25.3 -60.3 -25.15 -61.2 -25.0 -62.05 -24.85 -63.95 -24.7 -65.85 -24.5 -66.3 -24.3 -66.75 -23.7 -67.25 -23.1 -67.8 -22.9 -68.55 -22.65 -69.25 -22.2 -69.95 -21.7 -70.65 -21.1 -71.15 -20.45 -71.6 -19.85 -71.8 -19.25 -72.0 -18.35 -72.0 -17.5 -71.95 -16.95 -71.7 -16.45 -71.45 -15.65 -70.9 -14.85 -70.35 -12.85 -69.2 -10.9 -68.0 -8.2 -66.6 -5.5 -65.15 -4.25 -64.45 -3.0 -63.7 -2.15 -63.1 -1.25 -62.5 -0.1 -61.65 1.1 -60.75 2.45 -59.45 3.85 -58.1 4.5 -57.2 5.15 -56.3 5.2 -56.3 5.3 -56.3 6.1 -56.9 6.95 -57.55 8.55 -58.5 10.15 -59.4 11.1 -60.05 12.05 -60.7 13.0 -61.45 13.9 -62.2 14.5 -63.0 15.05 -63.8 15.3 -64.55 15.5 -65.35 15.75 -65.55 15.95 -65.8 16.3 -65.8 16.6 -65.8 17.2 -65.35 17.8 -64.9 18.9 -63.6 20.05 -62.3 21.5 -60.35 23.0 -58.35 23.65 -57.2 24.25 -56.05 24.7 -54.0 25.15 -51.95 25.8 -49.7 26.45 -47.5 26.85 -46.6 27.2 -45.7 28.05 -44.4 28.95 -43.1 29.1 -42.55 29.25 -42.0 29.15 -41.35 29.05 -40.7 28.8 -40.15 28.5 -39.6 29.3 -36.55 30.1 -33.55 30.85 -31.35 31.6 -29.15 32.5 -27.25 33.45 -25.35 35.3 -22.05 37.15 -18.8 38.65 -15.8 40.15 -12.8 40.6 -11.7 41.05 -10.6 42.3 -7.0 43.55 -3.45 44.15 -1.7 44.75 0.1 44.85 1.6 44.9 3.15 45.2 3.55 45.45 3.95 47.05 7.2 48.65 10.45 49.4 12.3 50.1 14.15 50.55 15.75 51.05 17.35 51.25 18.7 51.45 20.05 51.3 20.35 51.15 20.6 50.75 20.8 50.35 21.0 49.55 21.2 48.75 21.35 47.15 21.5 45.55 21.65 42.15 21.75 38.8 21.85 37.0 21.65 35.15 21.45 33.85 21.2 32.5 20.95 31.2 20.45 29.9 20.0 28.55 19.35 27.25 18.7 26.25 17.95 25.25 17.2 24.6 16.3 23.95 15.45 23.25 13.95 22.55 12.5 21.65 10.4 20.7 8.25 19.85 6.6 19.0 4.9 18.2 3.6 17.35 2.25 16.2 0.6 15.0 -1.0 14.85 -1.0 14.7 -1.0 14.8 2.4 14.9 5.8 15.05 7.3 15.2 8.85 15.2 10.35 15.2 11.8 14.95 12.65 14.65 13.55 14.15 14.35 13.6 15.15 12.4 16.3 11.2 17.45 9.25 18.35 7.35 19.3 6.2 19.6 5.05 19.9 2.7 20.05 0.35 20.15 -0.9 20.45 -2.15 20.75 -4.55 21.4 -6.95 22.05 -9.05 22.55 -11.2 23.1 -12.6 23.4 -13.95 23.7 -15.15 24.0 -16.3 24.25 -18.7 24.6 -21.15 25.0 -22.5 25.15 -23.9 25.3 -26.55 25.45 -29.15 25.6 -32.15 25.85 -35.15 26.15 -36.75 26.2 -38.4 26.25 -41.25 26.15 -41.25 26.15 M-32.25 22.65 L-28.0 20.85 -24.4 19.35 -20.85 17.8 -18.35 16.8 -15.85 15.8 -14.1 15.05 -12.35 14.3 -10.95 13.6 -9.6 12.9 -7.75 11.85 -5.95 10.8 -5.2 10.25 -4.45 9.75 -2.8 8.35 -1.1 6.9 0.25 5.55 1.6 4.2 2.95 2.5 4.35 0.8 4.75 0.1 5.2 -0.6 5.5 -0.65 5.8 -0.75 6.0 -0.65 6.15 -0.55 6.15 -0.2 6.15 0.15 5.6 1.0 5.05 1.85 3.55 3.65 2.05 5.5 0.75 6.75 -0.5 8.0 -2.15 9.35 -3.75 10.7 -5.1 11.6 -6.5 12.55 -8.15 13.45 -9.75 14.3 -11.85 15.35 -13.95 16.35 -16.8 17.45 -19.6 18.6 -22.35 19.75 -25.1 20.95 -28.75 22.45 -32.4 24.0 -32.45 24.1 -32.55 24.15 -31.5 24.05 -30.5 24.0 -27.15 23.75 -23.75 23.55 -22.35 23.4 -21.0 23.25 -18.75 22.85 -16.45 22.5 -13.6 21.85 -10.75 21.2 -8.4 20.65 -6.05 20.05 -3.9 19.45 -1.7 18.85 -0.65 18.6 0.35 18.4 2.7 18.25 5.05 18.15 5.9 17.9 6.8 17.7 8.4 16.9 10.0 16.1 11.05 15.2 12.15 14.3 12.35 13.85 12.6 13.4 12.85 13.1 13.1 12.8 13.3 12.2 13.5 11.65 13.5 10.3 13.5 9.0 13.3 6.85 13.15 4.75 13.15 1.15 13.15 -2.4 13.0 -4.75 12.85 -7.1 12.65 -8.85 12.4 -10.6 11.95 -13.1 11.5 -15.55 11.15 -17.25 10.8 -18.95 10.6 -19.9 10.35 -20.85 9.95 -23.15 9.55 -25.5 9.2 -28.35 8.85 -31.2 8.85 -34.5 8.85 -37.8 9.1 -39.3 9.4 -40.85 9.45 -41.25 9.5 -41.6 8.5 -42.0 7.5 -42.4 6.7 -42.85 5.9 -43.3 2.55 -45.45 -0.8 -47.6 -2.0 -48.3 -3.15 -48.95 -5.4 -50.05 -7.7 -51.15 -9.25 -51.65 -10.8 -52.2 -11.7 -52.3 -12.6 -52.4 -12.8 -52.6 -13.0 -52.8 -13.0 -53.0 -13.0 -53.2 -12.7 -53.4 -12.35 -53.65 -11.15 -53.4 -10.0 -53.2 -8.7 -52.75 -7.45 -52.3 -5.55 -51.45 -3.65 -50.6 -1.7 -49.5 0.2 -48.4 3.3 -46.4 6.35 -44.45 7.7 -43.75 9.05 -43.05 9.1 -43.15 9.2 -43.2 8.7 -44.65 8.2 -46.1 7.75 -47.2 7.35 -48.3 6.95 -49.2 6.55 -50.05 5.75 -51.65 4.95 -53.25 4.15 -54.6 3.35 -55.95 2.4 -57.05 1.45 -58.15 0.25 -59.15 -0.95 -60.2 -2.1 -61.0 -3.25 -61.85 -4.8 -62.75 -6.35 -63.7 -8.9 -65.05 -11.5 -66.4 -12.95 -67.25 -14.45 -68.1 -16.15 -69.2 -17.9 -70.35 -18.7 -70.25 -19.5 -70.2 -19.95 -69.85 -20.45 -69.55 -20.75 -69.1 -21.05 -68.6 -21.3 -67.8 -21.55 -67.05 -22.25 -66.35 -22.95 -65.65 -22.95 -65.25 -22.95 -64.85 -23.25 -62.65 -23.5 -60.45 -23.6 -59.2 -23.7 -57.95 -23.55 -56.5 -23.4 -55.05 -23.1 -53.6 -22.8 -52.1 -22.0 -49.4 -21.25 -46.7 -20.75 -44.75 -20.3 -42.85 -20.7 -41.8 -21.15 -40.75 -21.75 -39.65 -22.4 -38.5 -22.25 -37.85 -22.05 -37.2 -21.95 -37.05 -21.8 -36.9 -20.8 -34.95 -19.8 -32.95 -18.4 -30.85 -17.0 -28.7 -15.5 -26.6 -14.0 -24.5 -12.7 -22.65 -11.45 -20.85 -10.7 -19.6 -9.9 -18.4 -9.2 -17.0 -8.5 -15.55 -8.15 -14.4 -7.75 -13.3 -7.7 -12.65 -7.6 -12.05 -7.85 -11.8 -8.05 -11.55 -8.2 -11.55 -8.3 -11.55 -8.55 -11.75 -8.75 -11.95 -9.05 -13.25 -9.4 -14.55 -10.15 -16.15 -10.95 -17.75 -11.85 -19.2 -12.8 -20.65 -14.25 -22.8 -15.75 -24.9 -17.0 -26.7 -18.25 -28.45 -19.25 -29.95 -20.3 -31.5 -20.85 -32.55 -21.45 -33.55 -22.0 -34.6 -22.55 -35.7 -22.65 -35.6 -22.8 -35.5 -22.8 -35.25 -22.8 -35.0 -23.55 -33.55 -24.25 -32.05 -25.0 -30.85 -25.8 -29.6 -26.95 -28.0 -28.1 -26.4 -29.35 -24.85 -30.65 -23.3 -31.85 -21.95 -33.1 -20.55 -38.5 -15.15 -43.95 -9.7 -44.95 -8.35 -45.9 -6.95 -46.8 -5.2 -47.65 -3.45 -48.0 -2.25 -48.4 -1.1 -48.6 -0.15 -48.8 0.8 -49.1 2.4 -49.35 4.0 -49.35 8.35 -49.35 12.65 -49.0 14.55 -48.7 16.5 -48.4 17.4 -48.15 18.35 -47.75 19.35 -47.35 20.4 -46.7 21.35 -46.1 22.3 -45.4 23.05 -44.65 23.8 -44.25 24.05 -43.8 24.35 -40.95 24.45 -38.1 24.5 -37.3 24.5 -36.55 24.45 -32.25 22.65 -32.25 22.65 M-14.65 -13.9 L-15.7 -14.3 -17.25 -14.95 -18.8 -15.65 -20.7 -16.7 -22.6 -17.75 -23.45 -18.3 -24.25 -18.85 -25.15 -19.7 -26.05 -20.55 -26.85 -21.5 -27.65 -22.5 -27.65 -22.85 -27.65 -23.25 -27.4 -23.35 -27.2 -23.45 -26.9 -23.3 -26.65 -23.15 -25.75 -22.05 -24.9 -20.95 -23.85 -20.1 -22.8 -19.25 -21.15 -18.3 -19.5 -17.35 -18.05 -16.65 -16.6 -15.95 -14.65 -15.2 -12.75 -14.45 -12.75 -14.1 -12.75 -13.8 -12.9 -13.6 -13.1 -13.45 -13.3 -13.45 -13.55 -13.45 -14.65 -13.9 -14.65 -13.9 M45.4 19.9 L47.7 19.75 48.6 19.6 49.45 19.45 49.5 19.4 49.6 19.3 49.4 18.25 49.2 17.2 48.7 15.55 48.2 13.95 47.55 12.35 46.9 10.75 45.65 8.25 44.45 5.7 43.95 5.7 43.45 5.7 43.2 5.4 43.0 5.1 43.1 2.9 43.15 0.65 42.55 -1.1 41.9 -2.85 40.55 -6.85 39.15 -10.9 37.25 -14.7 35.35 -18.5 33.75 -21.35 32.15 -24.2 31.3 -25.85 30.45 -27.55 29.7 -29.55 28.95 -31.5 28.3 -33.85 27.65 -36.2 27.35 -37.4 27.0 -38.65 26.8 -39.0 26.6 -39.3 26.6 -39.65 26.6 -40.0 27.05 -40.6 27.5 -41.25 27.5 -41.75 27.5 -42.2 26.55 -43.65 25.55 -45.1 25.15 -46.2 24.7 -47.3 24.05 -49.65 23.4 -51.95 23.0 -53.7 22.65 -55.45 22.35 -56.05 22.05 -56.65 21.5 -57.45 21.0 -58.25 19.55 -60.1 18.1 -61.95 17.45 -62.7 16.75 -63.45 16.4 -62.8 16.1 -62.15 15.35 -61.35 14.55 -60.5 13.15 -59.45 11.7 -58.35 9.75 -57.2 7.8 -56.1 6.95 -55.45 6.1 -54.8 6.15 -54.7 6.2 -54.6 7.35 -52.3 8.45 -50.05 9.3 -47.95 10.2 -45.85 10.8 -43.9 11.4 -42.0 11.1 -40.6 10.85 -39.25 10.65 -37.6 10.5 -35.9 10.55 -33.35 10.65 -30.75 10.95 -28.2 11.25 -25.65 11.65 -23.55 12.0 -21.4 12.65 -18.5 13.25 -15.55 13.7 -13.1 14.15 -10.6 14.3 -9.45 14.45 -8.25 14.6 -6.45 14.75 -4.6 15.0 -4.1 15.25 -3.6 15.8 -2.85 16.3 -2.1 17.65 -0.3 18.95 1.55 19.75 2.9 20.6 4.25 21.45 5.95 22.35 7.7 23.65 10.75 25.0 13.8 25.5 14.65 26.0 15.45 26.65 16.05 27.25 16.6 27.9 17.05 28.55 17.5 29.65 18.0 30.75 18.55 32.2 19.0 33.65 19.45 35.05 19.65 36.45 19.9 36.9 19.95 37.35 20.0 40.2 20.0 43.05 20.05 45.4 19.9 45.4 19.9 M28.3 5.9 L28.2 5.7 28.2 0.3 28.2 -5.05 28.0 -8.6 27.8 -12.2 27.65 -14.6 27.45 -17.05 27.25 -20.25 27.05 -23.45 26.8 -25.3 26.6 -27.1 26.1 -30.05 25.6 -32.95 25.55 -33.95 25.5 -34.95 25.75 -35.15 26.0 -35.3 26.25 -35.1 26.45 -34.85 26.65 -33.25 26.9 -31.65 27.1 -30.4 27.35 -29.15 27.6 -27.25 27.9 -25.35 28.05 -23.7 28.2 -22.0 28.65 -15.25 29.1 -8.55 29.2 -2.25 29.25 4.1 29.65 4.1 30.05 4.1 30.8 3.75 31.55 3.35 32.1 2.8 32.7 2.2 33.2 1.45 33.75 0.65 34.35 -0.6 34.95 -1.8 35.2 -2.4 35.4 -3.0 35.5 -6.55 35.6 -10.15 35.85 -10.3 36.1 -10.45 36.3 -10.25 36.55 -10.05 36.55 -6.75 36.55 -3.5 36.4 -2.8 36.2 -2.1 35.35 -0.35 34.55 1.4 33.9 2.3 33.25 3.25 32.5 3.85 31.8 4.4 31.25 4.7 30.7 4.95 30.0 5.15 29.25 5.3 29.2 5.7 29.1 6.15 28.75 6.15 28.4 6.15 28.3 5.9" fill="#333333" fill-rule="evenodd" stroke="none"/>
  </g>
</svg>
