<?xml version="1.0" encoding="UTF-8" standalone="no"?>
<svg xmlns:xlink="http://www.w3.org/1999/xlink" height="184.3px" width="173.0px" xmlns="http://www.w3.org/2000/svg">
  <g transform="matrix(1.0, 0.0, 0.0, 1.0, 86.5, 92.15)">
    <path d="M-47.65 -13.85 L-48.15 -13.9 -49.1 -14.05 -50.05 -14.2 -50.95 -14.6 -51.8 -14.95 -52.45 -15.55 -53.1 -16.15 -53.55 -16.85 -54.0 -17.5 -54.35 -18.55 -54.7 -19.6 -54.8 -20.25 -54.95 -20.95 -55.0 -20.95 -55.05 -20.95 -56.15 -20.65 -57.25 -20.35 -58.75 -20.15 -60.25 -19.9 -62.4 -19.9 -64.55 -19.9 -65.85 -20.15 -67.1 -20.35 -68.4 -20.75 -69.65 -21.1 -70.65 -21.6 -71.7 -22.1 -72.3 -23.0 -72.9 -23.9 -73.7 -25.55 -74.55 -27.15 -75.05 -28.75 -75.6 -30.4 -75.95 -31.85 -76.25 -33.3 -76.35 -36.1 -76.4 -38.9 -76.25 -40.2 -76.05 -41.5 -75.85 -42.6 -75.6 -43.7 -75.2 -45.05 -74.85 -46.35 -74.25 -47.8 -73.65 -49.25 -72.85 -50.8 -72.05 -52.35 -71.6 -53.1 -71.15 -53.8 -70.4 -54.9 -69.7 -56.0 -68.75 -57.2 -67.85 -58.35 -67.0 -59.3 -66.15 -60.25 -64.95 -61.55 -63.75 -62.85 -61.8 -64.55 -59.9 -66.25 -58.4 -67.35 -56.95 -68.5 -55.5 -69.45 -54.1 -70.45 -52.25 -71.6 -50.45 -72.75 -48.55 -73.75 -46.65 -74.8 -43.7 -76.2 -40.75 -77.6 -37.95 -78.7 -35.15 -79.8 -35.15 -81.75 -35.15 -83.7 -34.8 -84.35 -34.5 -85.05 -33.9 -85.65 -33.35 -86.3 -32.45 -86.85 -31.6 -87.4 -30.15 -88.0 -28.7 -88.6 -27.15 -89.0 -25.6 -89.4 -23.5 -89.4 -21.35 -89.4 -20.7 -89.05 -20.05 -88.7 -19.3 -88.0 -18.6 -87.25 -18.15 -86.35 -17.65 -85.4 -17.65 -84.8 -17.65 -84.2 -17.4 -84.25 -17.15 -84.35 -14.9 -84.65 -12.7 -84.95 -10.35 -85.15 -8.05 -85.4 -3.35 -85.45 1.3 -85.55 3.95 -85.4 6.6 -85.2 9.0 -84.95 11.35 -84.65 13.45 -84.25 15.55 -83.9 17.95 -83.3 20.4 -82.75 22.25 -82.15 24.1 -81.55 26.1 -80.8 28.1 -80.05 30.4 -78.95 32.65 -77.8 34.2 -76.85 35.75 -75.95 37.25 -74.85 38.7 -73.8 40.0 -72.65 41.25 -71.55 42.5 -70.2 43.8 -68.9 44.65 -67.75 45.55 -66.55 46.5 -64.95 47.45 -63.35 48.15 -61.65 48.85 -59.95 49.2 -58.8 49.5 -57.6 49.75 -56.5 50.0 -55.35 49.85 -53.05 49.65 -50.75 49.2 -47.8 48.75 -44.9 48.15 -42.1 47.55 -39.35 47.55 -39.1 47.55 -38.85 49.7 -38.0 51.85 -37.15 55.05 -35.7 58.2 -34.25 60.15 -33.25 62.1 -32.2 64.0 -31.0 65.95 -29.85 66.9 -29.25 67.85 -28.65 68.15 -28.05 68.4 -27.45 68.5 -27.25 68.55 -27.0 68.35 -26.65 68.15 -26.25 67.45 -25.65 66.75 -25.05 65.95 -24.75 65.1 -24.45 64.1 -24.3 63.1 -24.15 61.75 -24.3 60.4 -24.45 57.7 -25.1 54.95 -25.8 52.45 -26.55 49.95 -27.35 45.1 -29.7 40.2 -32.05 38.7 -32.55 37.2 -33.1 36.45 -33.4 35.7 -33.7 33.7 -33.9 31.75 -34.1 30.85 -34.25 29.9 -34.4 28.95 -34.4 27.95 -34.4 25.45 -34.1 22.95 -33.8 21.05 -33.5 19.2 -33.25 17.75 -32.95 16.3 -32.65 13.6 -31.95 10.85 -31.3 7.7 -30.45 4.55 -29.55 2.25 -28.8 -0.05 -28.0 -2.7 -27.0 -5.35 -26.0 -10.7 -23.65 -16.1 -21.25 -18.25 -20.35 -20.45 -19.45 -22.0 -18.9 -23.5 -18.35 -25.9 -17.5 -28.25 -16.7 -31.05 -15.95 -33.85 -15.25 -35.35 -14.95 -36.8 -14.65 -38.7 -14.35 -40.6 -14.05 -42.8 -13.9 -45.0 -13.75 -46.05 -13.8 -47.1 -13.8 -47.65 -13.85 -47.65 -13.85 M-40.45 -16.05 L-38.6 -16.25 -36.7 -16.6 -34.8 -17.0 -33.0 -17.45 -31.2 -17.85 -29.2 -18.45 -27.2 -19.05 -24.75 -19.9 -22.35 -20.8 -20.25 -21.6 -18.2 -22.45 -15.1 -23.8 -12.0 -25.15 -10.5 -25.85 -8.95 -26.55 -7.05 -27.35 -5.2 -28.15 -3.0 -28.95 -0.8 -29.75 1.5 -30.55 3.8 -31.3 6.65 -32.15 9.55 -32.95 12.75 -33.75 16.0 -34.55 17.9 -34.9 19.8 -35.25 22.0 -35.55 24.2 -35.9 26.0 -36.1 27.8 -36.35 29.55 -36.45 31.3 -36.6 33.95 -36.75 36.6 -36.95 39.75 -36.85 42.95 -36.75 44.7 -36.6 46.4 -36.45 47.8 -36.25 49.15 -36.05 49.2 -36.1 49.25 -36.15 46.85 -37.05 44.45 -37.95 42.2 -38.7 39.9 -39.4 37.3 -40.15 34.75 -40.85 33.0 -41.2 31.3 -41.55 29.25 -41.9 27.2 -42.2 25.25 -42.4 23.25 -42.65 17.9 -42.7 12.5 -42.8 9.7 -42.55 6.9 -42.3 3.25 -41.8 -0.4 -41.3 -2.4 -40.9 -4.45 -40.55 -6.85 -39.95 -9.25 -39.4 -10.7 -39.0 -12.15 -38.65 -13.65 -38.2 -15.15 -37.75 -17.5 -37.0 -19.85 -36.25 -22.65 -35.3 -25.45 -34.3 -27.6 -33.5 -29.8 -32.65 -33.3 -31.2 -36.8 -29.7 -40.3 -28.1 -43.75 -26.5 -48.3 -24.25 -52.85 -22.05 -52.9 -21.3 -52.95 -20.6 -52.55 -19.4 -52.15 -18.2 -51.65 -17.55 -51.1 -16.85 -50.6 -16.55 -50.1 -16.3 -49.5 -16.1 -48.9 -15.9 -48.1 -15.8 -47.25 -15.7 -44.75 -15.75 -42.25 -15.8 -40.45 -16.05 M-57.6 -22.25 L-56.35 -22.55 -48.85 -26.15 -41.35 -29.75 -39.1 -30.75 -36.8 -31.8 -33.2 -33.3 -29.55 -34.8 -27.25 -35.65 -25.0 -36.5 -21.75 -37.65 -18.5 -38.75 -16.0 -39.5 -13.5 -40.25 -11.55 -40.75 -9.55 -41.3 -7.05 -41.85 -4.6 -42.45 -2.6 -42.8 -0.65 -43.2 2.0 -43.55 4.65 -43.95 7.3 -44.25 9.95 -44.55 15.0 -44.6 20.05 -44.7 22.5 -44.5 24.95 -44.35 27.35 -44.05 29.75 -43.75 32.35 -43.25 34.9 -42.75 37.1 -42.15 39.3 -41.6 42.4 -40.6 45.45 -39.65 45.6 -39.8 45.7 -39.9 46.25 -42.55 46.8 -45.15 47.1 -46.95 47.4 -48.7 47.55 -49.8 47.7 -50.95 47.85 -53.0 48.0 -55.0 47.7 -56.55 47.4 -58.1 46.95 -59.3 46.55 -60.55 46.05 -61.65 45.55 -62.75 44.8 -64.05 44.05 -65.35 42.95 -66.75 41.85 -68.15 40.5 -69.55 39.15 -70.9 37.65 -72.1 36.15 -73.3 34.7 -74.3 33.25 -75.25 31.6 -76.15 29.95 -77.05 28.5 -77.7 27.05 -78.35 25.45 -79.0 23.85 -79.65 21.7 -80.3 19.5 -81.0 17.05 -81.6 14.65 -82.15 11.9 -82.6 9.2 -83.05 7.0 -83.25 4.8 -83.5 0.1 -83.55 -4.6 -83.65 -7.2 -83.5 -9.85 -83.3 -11.9 -83.1 -13.95 -82.9 -16.25 -82.5 -18.6 -82.15 -20.5 -81.8 -22.45 -81.4 -25.3 -80.7 -28.2 -80.0 -30.05 -79.4 -31.95 -78.8 -33.85 -78.15 -35.75 -77.5 -37.7 -76.75 -39.7 -75.95 -42.65 -74.6 -45.6 -73.2 -47.5 -72.15 -49.35 -71.1 -51.05 -70.1 -52.7 -69.1 -54.3 -67.95 -55.85 -66.85 -57.75 -65.4 -59.65 -63.95 -62.25 -61.45 -64.8 -58.95 -66.15 -57.35 -67.5 -55.7 -68.7 -53.95 -69.9 -52.2 -71.1 -49.85 -72.3 -47.5 -72.85 -45.85 -73.45 -44.15 -73.8 -42.75 -74.1 -41.35 -74.25 -40.2 -74.4 -39.05 -74.4 -36.85 -74.4 -34.6 -74.1 -32.85 -73.8 -31.15 -73.2 -29.4 -72.6 -27.65 -71.75 -26.0 -70.9 -24.4 -70.6 -24.0 -70.3 -23.55 -69.6 -23.2 -68.9 -22.9 -67.9 -22.6 -66.9 -22.25 -66.1 -22.1 -65.25 -21.95 -64.95 -21.9 -64.65 -21.85 -61.8 -21.9 -58.9 -21.95 -57.6 -22.25 M65.0 -26.45 L65.7 -26.7 65.55 -26.9 65.35 -27.1 63.15 -28.45 60.95 -29.75 59.45 -30.55 57.9 -31.3 56.25 -32.0 54.6 -32.65 53.15 -33.1 51.7 -33.5 50.5 -33.8 49.3 -34.1 47.2 -34.4 45.05 -34.7 42.2 -34.85 39.3 -35.0 38.65 -34.95 37.95 -34.9 40.0 -34.15 42.05 -33.35 46.2 -31.35 50.35 -29.3 51.35 -28.95 52.3 -28.55 54.35 -27.95 56.4 -27.4 58.55 -26.85 60.65 -26.35 61.55 -26.2 62.45 -26.1 63.4 -26.15 64.3 -26.2 65.0 -26.45 M-31.2 -81.05 L-29.55 -81.55 -27.95 -82.0 -26.35 -82.45 -24.5 -82.85 -22.6 -83.3 -20.9 -83.65 -19.25 -83.95 -19.2 -84.0 -19.15 -84.0 -19.7 -85.1 -20.25 -86.2 -20.75 -86.65 -21.2 -87.15 -21.7 -87.35 -22.2 -87.55 -23.3 -87.55 -24.45 -87.55 -25.65 -87.35 -26.9 -87.1 -28.05 -86.75 -29.25 -86.35 -30.15 -85.95 -31.05 -85.5 -31.85 -84.95 -32.6 -84.35 -32.95 -83.75 -33.25 -83.1 -33.25 -81.8 -33.25 -80.55 -33.05 -80.55 -32.85 -80.55 -31.2 -81.05" fill="#010101" fill-rule="evenodd" stroke="none"/>
    <path d="M-3.3 -84.0 Q-5.05 -84.0 -6.8 -83.95 -8.5 -83.85 -10.25 -83.7 -12.0 -83.55 -13.75 -83.35 -15.45 -83.1 -17.2 -82.8 -18.9 -82.55 -20.6 -82.2 -22.3 -81.85 -24.05 -81.45 -25.7 -81.05 -27.4 -80.6 -29.05 -80.15 -30.75 -79.65 -33.25 -78.85 -35.65 -77.95 -38.15 -77.05 -40.5 -76.0 -42.9 -74.95 -45.2 -73.8 -47.55 -72.65 -49.75 -71.35 -52.05 -70.0 -54.15 -68.6 -56.3 -67.1 -58.3 -65.5 -60.35 -63.9 -62.2 -62.15 -64.1 -60.35 -65.8 -58.4 -66.85 -57.2 -67.8 -55.95 -68.75 -54.7 -69.6 -53.4 -70.45 -52.05 -71.2 -50.7 -71.95 -49.3 -72.55 -47.85 -73.15 -46.4 -73.65 -44.95 -74.1 -43.4 -74.4 -41.9 -74.7 -40.35 -74.8 -38.8 -74.9 -37.25 -74.8 -35.65 -74.75 -34.85 -74.7 -34.05 -74.6 -33.25 -74.45 -32.45 -74.3 -31.65 -74.1 -30.85 -73.9 -30.05 -73.65 -29.25 -73.4 -28.5 -73.05 -27.75 -72.75 -27.0 -72.4 -26.25 -72.0 -25.55 -71.6 -24.85 -71.2 -24.1 -70.7 -23.45 -70.1 -23.0 -69.4 -22.7 -68.75 -22.35 -68.05 -22.15 -67.35 -21.9 -66.6 -21.75 -65.9 -21.6 -65.15 -21.55 -64.45 -21.45 -63.65 -21.4 -62.95 -21.4 -62.15 -21.4 -61.45 -21.4 -60.65 -21.45 -60.05 -21.5 -59.15 -21.55 -58.6 -21.6 -58.0 -21.75 -57.45 -21.85 -56.85 -22.05 -56.3 -22.2 -55.75 -22.45 -55.25 -22.65 -54.65 -22.9 -54.2 -23.1 -53.55 -23.4 -53.8 -23.3 -52.5 -23.95 -51.85 -24.25 -51.45 -24.45 -50.85 -24.7 -50.35 -24.9 -48.35 -25.9 -46.5 -26.75 -44.55 -27.75 -42.65 -28.6 -40.7 -29.55 -38.8 -30.35 -36.8 -31.25 -34.9 -32.1 -32.9 -32.95 -30.95 -33.7 -28.95 -34.55 -27.0 -35.3 -24.95 -36.05 -23.0 -36.75 -20.95 -37.45 -18.95 -38.1 -17.05 -38.7 -15.25 -39.25 -13.35 -39.8 -11.5 -40.3 -9.55 -40.8 -7.7 -41.25 -5.8 -41.7 -3.9 -42.1 -1.95 -42.5 -0.1 -42.8 1.85 -43.15 3.75 -43.4 5.7 -43.65 7.65 -43.8 9.6 -44.0 11.5 -44.1 13.35 -44.15 14.9 -44.15 16.7 -44.15 18.3 -44.1 20.05 -44.1 21.7 -44.0 23.45 -43.95 25.05 -43.8 26.8 -43.65 28.45 -43.45 30.15 -43.25 31.75 -42.95 33.45 -42.65 35.1 -42.25 36.75 -41.85 38.35 -41.35 39.3 -41.1 41.95 -40.25 44.2 -39.55 45.55 -39.3 45.75 -39.4 45.85 -39.55 46.0 -39.65 46.1 -39.85 46.2 -40.0 46.25 -40.2 46.3 -40.4 46.35 -40.6 46.35 -40.75 46.4 -41.05 46.45 -41.4 46.45 -41.45 46.5 -41.7 46.55 -41.9 46.6 -42.1 46.65 -42.25 46.8 -43.05 47.0 -44.2 49.0 -54.65 47.4 -46.15 47.6 -47.3 47.75 -48.15 47.95 -49.2 48.05 -50.1 48.2 -51.15 48.25 -52.1 48.35 -53.1 48.3 -54.05 48.3 -55.1 48.2 -56.05 48.05 -57.05 47.85 -58.0 47.4 -59.6 46.75 -61.2 46.1 -62.7 45.25 -64.15 44.4 -65.6 43.35 -66.95 42.35 -68.25 41.15 -69.5 40.0 -70.7 38.7 -71.8 37.45 -72.9 36.0 -73.9 34.65 -74.9 33.2 -75.75 31.75 -76.65 30.2 -77.4 28.7 -78.15 27.1 -78.8 25.55 -79.45 23.95 -80.0 22.4 -80.55 20.75 -81.05 19.15 -81.55 17.45 -81.95 15.85 -82.35 14.15 -82.65 12.5 -83.0 10.8 -83.25 9.15 -83.45 7.45 -83.65 5.75 -83.8 4.05 -83.9 0.85 -84.0 -3.3 -84.0 L-3.3 -84.0" fill="#ff0000" fill-rule="evenodd" stroke="none"/>
    <path d="M-3.3 -84.0 Q-5.05 -84.0 -6.8 -83.95 -8.5 -83.85 -10.25 -83.7 -12.0 -83.55 -13.75 -83.35 -15.45 -83.1 -17.2 -82.8 -18.9 -82.55 -20.6 -82.2 -22.3 -81.85 -24.05 -81.45 -25.7 -81.05 -27.4 -80.6 -29.05 -80.15 -30.75 -79.65 -33.25 -78.85 -35.65 -77.95 -38.15 -77.05 -40.5 -76.0 -42.9 -74.95 -45.2 -73.8 -47.55 -72.65 -49.75 -71.35 -52.05 -70.0 -54.15 -68.6 -56.3 -67.1 -58.3 -65.5 -60.35 -63.9 -62.2 -62.15 -64.1 -60.35 -65.8 -58.4 -66.85 -57.2 -67.8 -55.95 -68.75 -54.7 -69.6 -53.4 -70.45 -52.05 -71.2 -50.7 -71.95 -49.3 -72.55 -47.85 -73.15 -46.4 -73.65 -44.95 -74.1 -43.4 -74.4 -41.9 -74.7 -40.35 -74.8 -38.8 -74.9 -37.25 -74.8 -35.65 -74.75 -34.85 -74.7 -34.05 -74.6 -33.25 -74.45 -32.45 -74.3 -31.65 -74.1 -30.85 -73.9 -30.05 -73.65 -29.25 -73.4 -28.5 -73.05 -27.75 -72.75 -27.0 -72.4 -26.25 -72.0 -25.55 -71.6 -24.85 -71.2 -24.1 -70.7 -23.45 -70.1 -23.0 -69.4 -22.7 -68.75 -22.35 -68.05 -22.15 -67.35 -21.9 -66.6 -21.75 -65.9 -21.6 -65.15 -21.55 -64.45 -21.45 -63.65 -21.4 -62.95 -21.4 -62.15 -21.4 -61.45 -21.4 -60.65 -21.45 -60.05 -21.5 -59.15 -21.55 -58.6 -21.6 -58.0 -21.75 -57.45 -21.85 -56.85 -22.05 -56.3 -22.2 -55.75 -22.45 -55.25 -22.65 -54.65 -22.9 -54.2 -23.1 -53.55 -23.4 -53.8 -23.3 -52.5 -23.95 -51.85 -24.25 -51.45 -24.45 -50.85 -24.7 -50.35 -24.9 -48.35 -25.9 -46.5 -26.75 -44.55 -27.75 -42.65 -28.6 -40.7 -29.55 -38.8 -30.35 -36.8 -31.25 -34.9 -32.1 -32.9 -32.95 -30.95 -33.7 -28.95 -34.55 -27.0 -35.3 -24.95 -36.05 -23.0 -36.75 -20.95 -37.45 -18.95 -38.1 -17.05 -38.7 -15.25 -39.25 -13.35 -39.8 -11.5 -40.3 -9.55 -40.8 -7.7 -41.25 -5.8 -41.7 -3.9 -42.1 -1.95 -42.5 -0.1 -42.8 1.85 -43.15 3.75 -43.4 5.7 -43.65 7.65 -43.8 9.6 -44.0 11.5 -44.1 13.35 -44.15 14.9 -44.15 16.7 -44.15 18.3 -44.1 20.05 -44.1 21.7 -44.0 23.45 -43.95 25.05 -43.8 26.8 -43.65 28.45 -43.45 30.15 -43.25 31.75 -42.95 33.45 -42.65 35.1 -42.25 36.75 -41.85 38.35 -41.35 39.3 -41.1 41.95 -40.25 44.2 -39.55 45.55 -39.3 45.75 -39.4 45.85 -39.55 46.0 -39.65 46.1 -39.85 46.2 -40.0 46.25 -40.2 46.3 -40.4 46.35 -40.6 46.35 -40.75 46.4 -41.05 46.45 -41.4 46.45 -41.45 46.5 -41.7 46.55 -41.9 46.6 -42.1 46.65 -42.25 46.8 -43.05 47.0 -44.2 49.0 -54.65 47.4 -46.15 47.6 -47.3 47.75 -48.15 47.95 -49.2 48.05 -50.1 48.2 -51.15 48.25 -52.1 48.35 -53.1 48.3 -54.05 48.3 -55.1 48.2 -56.05 48.05 -57.05 47.85 -58.0 47.4 -59.6 46.75 -61.2 46.1 -62.7 45.25 -64.15 44.4 -65.6 43.35 -66.95 42.35 -68.25 41.15 -69.5 40.0 -70.7 38.7 -71.8 37.45 -72.9 36.0 -73.9 34.65 -74.9 33.2 -75.75 31.75 -76.65 30.2 -77.4 28.7 -78.15 27.1 -78.8 25.55 -79.45 23.95 -80.0 22.4 -80.55 20.75 -81.05 19.15 -81.55 17.45 -81.95 15.85 -82.35 14.15 -82.65 12.5 -83.0 10.8 -83.25 9.15 -83.45 7.45 -83.65 5.75 -83.8 4.05 -83.9 0.85 -84.0 -3.3 -84.0 L-3.3 -84.0 Z" fill="none" stroke="#000000" stroke-linecap="round" stroke-linejoin="round" stroke-width="0.2"/>
    <path d="M-23.65 -88.0 Q-24.3 -87.95 -24.9 -87.9 -25.5 -87.8 -26.1 -87.7 -26.75 -87.55 -27.35 -87.4 -27.95 -87.25 -28.55 -87.05 -29.15 -86.85 -29.7 -86.6 -30.3 -86.35 -30.85 -86.05 -31.4 -85.75 -31.9 -85.4 -32.4 -85.05 -32.85 -84.65 -33.05 -84.45 -33.2 -84.2 -33.3 -83.95 -33.4 -83.7 -33.5 -83.45 -33.6 -83.2 -33.65 -82.9 -33.7 -82.65 -33.7 -82.35 -33.7 -82.05 -33.7 -81.8 -33.7 -81.5 -33.65 -81.25 -33.6 -80.95 -33.55 -80.7 -33.5 -80.45 -33.35 -80.3 -33.15 -80.25 -32.95 -80.15 -32.75 -80.15 -32.6 -80.15 -32.35 -80.2 -32.2 -80.2 -31.95 -80.3 -31.8 -80.35 -31.55 -80.45 -31.2 -80.6 -31.15 -80.6 -30.9 -80.7 -30.75 -80.75 -30.5 -80.8 -30.35 -80.85 -28.2 -81.5 -24.8 -82.3 -20.1 -83.35 -19.2 -83.6 -19.05 -83.75 -18.95 -83.95 -18.9 -84.1 -18.85 -84.25 -18.85 -84.45 -18.9 -84.65 -18.95 -84.8 -19.05 -85.0 -19.15 -85.15 -19.25 -85.35 -19.35 -85.5 -19.5 -85.7 -19.65 -85.95 -19.75 -86.05 -19.85 -86.25 -19.9 -86.4 -20.05 -86.65 -20.25 -86.8 -20.4 -87.0 -20.65 -87.2 -20.85 -87.35 -21.05 -87.5 -21.3 -87.6 -21.55 -87.7 -21.8 -87.8 -22.05 -87.9 -22.3 -87.95 -22.55 -88.0 -22.85 -88.0 -23.1 -88.05 -23.4 -88.05 -23.65 -88.0 L-23.65 -88.0" fill="#ff0000" fill-rule="evenodd" stroke="none"/>
    <path d="M-23.65 -88.0 Q-24.3 -87.95 -24.9 -87.9 -25.5 -87.8 -26.1 -87.7 -26.75 -87.55 -27.35 -87.4 -27.95 -87.25 -28.55 -87.05 -29.15 -86.85 -29.7 -86.6 -30.3 -86.35 -30.85 -86.05 -31.4 -85.75 -31.9 -85.4 -32.4 -85.05 -32.85 -84.65 -33.05 -84.45 -33.2 -84.2 -33.3 -83.95 -33.4 -83.7 -33.5 -83.45 -33.6 -83.2 -33.65 -82.9 -33.7 -82.65 -33.7 -82.35 -33.7 -82.05 -33.7 -81.8 -33.7 -81.5 -33.65 -81.25 -33.6 -80.95 -33.55 -80.7 -33.5 -80.45 -33.35 -80.3 -33.15 -80.25 -32.95 -80.15 -32.75 -80.15 -32.6 -80.15 -32.35 -80.2 -32.2 -80.2 -31.95 -80.3 -31.8 -80.35 -31.55 -80.45 -31.2 -80.6 -31.15 -80.6 -30.9 -80.7 -30.75 -80.75 -30.5 -80.8 -30.35 -80.85 -28.2 -81.5 -24.8 -82.3 -20.1 -83.35 -19.2 -83.6 -19.05 -83.75 -18.95 -83.95 -18.9 -84.1 -18.85 -84.25 -18.85 -84.45 -18.9 -84.65 -18.95 -84.8 -19.05 -85.0 -19.15 -85.15 -19.25 -85.35 -19.35 -85.5 -19.5 -85.7 -19.65 -85.95 -19.75 -86.05 -19.85 -86.25 -19.9 -86.4 -20.05 -86.65 -20.25 -86.8 -20.4 -87.0 -20.65 -87.2 -20.85 -87.35 -21.05 -87.5 -21.3 -87.6 -21.55 -87.7 -21.8 -87.8 -22.05 -87.9 -22.3 -87.95 -22.55 -88.0 -22.85 -88.0 -23.1 -88.05 -23.4 -88.05 -23.65 -88.0 L-23.65 -88.0 Z" fill="none" stroke="#000000" stroke-linecap="round" stroke-linejoin="round" stroke-width="0.2"/>
    <path d="M13.65 -43.15 Q12.0 -43.1 10.3 -43.0 8.65 -42.9 7.0 -42.7 5.35 -42.55 3.65 -42.35 2.0 -42.1 0.35 -41.85 -1.25 -41.55 -2.95 -41.25 -4.55 -40.95 -6.2 -40.55 -7.8 -40.2 -9.45 -39.8 -11.05 -39.4 -12.7 -38.95 -15.25 -38.25 -17.8 -37.4 -20.3 -36.6 -22.85 -35.7 -25.35 -34.8 -27.85 -33.85 -30.35 -32.9 -32.8 -31.85 -35.25 -30.85 -37.7 -29.75 -40.1 -28.7 -42.6 -27.5 -44.95 -26.4 -47.4 -25.2 -49.7 -24.05 -52.15 -22.8 -52.4 -22.7 -52.55 -22.55 -52.75 -22.4 -52.9 -22.25 -53.05 -22.1 -53.15 -21.9 -53.25 -21.7 -53.3 -21.45 -53.4 -21.25 -53.4 -21.05 -53.4 -20.8 -53.4 -20.6 -53.35 -20.35 -53.3 -20.1 -53.25 -19.9 -53.15 -19.7 -53.05 -19.2 -52.85 -18.7 -52.65 -18.2 -52.35 -17.8 -52.05 -17.35 -51.7 -17.0 -51.3 -16.65 -50.9 -16.35 -50.45 -16.05 -50.0 -15.85 -49.5 -15.6 -49.0 -15.5 -48.5 -15.35 -47.95 -15.3 -47.45 -15.25 -46.9 -15.3 -44.7 -15.25 -42.45 -15.45 -40.25 -15.6 -38.0 -15.95 -35.9 -16.3 -33.65 -16.8 -31.55 -17.3 -29.35 -17.95 -27.3 -18.55 -25.15 -19.3 -23.15 -20.0 -20.95 -20.85 -19.0 -21.65 -16.85 -22.55 -15.0 -23.35 -12.8 -24.35 -10.65 -25.35 -8.5 -26.25 -6.3 -27.2 -4.1 -28.05 -1.9 -28.9 0.35 -29.65 2.6 -30.45 4.85 -31.15 7.1 -31.85 9.4 -32.45 11.7 -33.05 14.0 -33.6 16.3 -34.1 18.6 -34.55 20.95 -34.95 23.3 -35.3 24.9 -35.5 26.4 -35.7 28.0 -35.85 29.5 -36.0 31.1 -36.15 32.65 -36.2 34.25 -36.3 35.8 -36.35 37.35 -36.4 38.9 -36.4 40.5 -36.4 42.05 -36.3 43.6 -36.25 45.15 -36.1 46.75 -36.0 48.25 -35.75 48.55 -35.85 48.7 -36.0 48.8 -36.1 48.85 -36.25 48.85 -36.4 48.75 -36.5 48.65 -36.65 48.5 -36.75 48.35 -36.9 48.15 -37.0 47.95 -37.1 47.7 -37.2 47.5 -37.3 47.3 -37.35 47.1 -37.45 46.95 -37.5 45.4 -38.05 44.0 -38.55 42.45 -39.1 41.0 -39.55 39.4 -40.0 37.95 -40.45 36.4 -40.85 34.9 -41.25 33.3 -41.6 31.8 -41.9 30.2 -42.2 28.7 -42.45 27.1 -42.65 25.55 -42.8 23.95 -42.95 22.35 -42.95 17.55 -43.2 13.65 -43.15 L13.65 -43.15" fill="#ff0000" fill-rule="evenodd" stroke="none"/>
    <path d="M13.65 -43.15 Q12.0 -43.1 10.3 -43.0 8.65 -42.9 7.0 -42.7 5.35 -42.55 3.65 -42.35 2.0 -42.1 0.35 -41.85 -1.25 -41.55 -2.95 -41.25 -4.55 -40.95 -6.2 -40.55 -7.8 -40.2 -9.45 -39.8 -11.05 -39.4 -12.7 -38.95 -15.25 -38.25 -17.8 -37.4 -20.3 -36.6 -22.85 -35.7 -25.35 -34.8 -27.85 -33.85 -30.35 -32.9 -32.8 -31.85 -35.25 -30.85 -37.7 -29.75 -40.1 -28.7 -42.6 -27.5 -44.95 -26.4 -47.4 -25.2 -49.7 -24.05 -52.15 -22.8 -52.4 -22.7 -52.55 -22.55 -52.75 -22.4 -52.9 -22.25 -53.05 -22.1 -53.15 -21.9 -53.25 -21.7 -53.3 -21.45 -53.4 -21.25 -53.4 -21.05 -53.4 -20.8 -53.4 -20.6 -53.35 -20.35 -53.3 -20.1 -53.25 -19.9 -53.15 -19.7 -53.05 -19.2 -52.85 -18.7 -52.65 -18.2 -52.35 -17.8 -52.05 -17.35 -51.7 -17.0 -51.3 -16.65 -50.9 -16.35 -50.45 -16.05 -50.0 -15.85 -49.5 -15.6 -49.0 -15.5 -48.5 -15.35 -47.95 -15.3 -47.45 -15.25 -46.9 -15.3 -44.7 -15.25 -42.45 -15.45 -40.25 -15.6 -38.0 -15.95 -35.9 -16.3 -33.65 -16.8 -31.55 -17.3 -29.35 -17.95 -27.3 -18.55 -25.15 -19.3 -23.15 -20.0 -20.95 -20.85 -19.0 -21.65 -16.85 -22.55 -15.0 -23.35 -12.8 -24.35 -10.65 -25.35 -8.5 -26.25 -6.3 -27.2 -4.1 -28.05 -1.9 -28.9 0.35 -29.65 2.6 -30.45 4.85 -31.15 7.1 -31.85 9.4 -32.45 11.7 -33.05 14.0 -33.6 16.3 -34.1 18.6 -34.55 20.95 -34.95 23.3 -35.3 24.9 -35.5 26.4 -35.7 28.0 -35.85 29.5 -36.0 31.1 -36.15 32.65 -36.2 34.25 -36.3 35.8 -36.35 37.35 -36.4 38.9 -36.4 40.5 -36.4 42.05 -36.3 43.6 -36.25 45.15 -36.1 46.75 -36.0 48.25 -35.75 48.55 -35.85 48.7 -36.0 48.8 -36.1 48.85 -36.25 48.85 -36.4 48.75 -36.5 48.65 -36.65 48.5 -36.75 48.35 -36.9 48.15 -37.0 47.95 -37.1 47.7 -37.2 47.5 -37.3 47.3 -37.35 47.1 -37.45 46.95 -37.5 45.4 -38.05 44.0 -38.55 42.45 -39.1 41.0 -39.55 39.4 -40.0 37.95 -40.45 36.4 -40.85 34.9 -41.25 33.3 -41.6 31.8 -41.9 30.2 -42.2 28.7 -42.45 27.1 -42.65 25.55 -42.8 23.95 -42.95 22.35 -42.95 17.55 -43.2 13.65 -43.15 L13.65 -43.15 Z" fill="none" stroke="#000000" stroke-linecap="round" stroke-linejoin="round" stroke-width="0.2"/>
    <path d="M39.15 -35.35 Q39.0 -35.4 38.85 -35.35 38.7 -35.35 38.6 -35.25 38.5 -35.2 38.45 -35.1 38.35 -35.0 38.35 -34.85 38.3 -34.75 38.35 -34.6 38.35 -34.5 38.45 -34.35 38.5 -34.25 38.65 -34.2 38.75 -34.1 38.95 -34.1 40.0 -33.7 41.2 -33.15 42.15 -32.75 43.4 -32.15 43.85 -31.95 45.55 -31.1 46.9 -30.45 47.75 -30.1 48.95 -29.55 49.95 -29.1 51.15 -28.6 52.2 -28.2 53.4 -27.75 54.5 -27.45 55.7 -27.1 56.85 -26.85 57.3 -26.75 57.95 -26.6 56.6 -26.95 59.0 -26.3 59.7 -26.15 60.15 -26.05 60.75 -25.9 61.25 -25.85 61.85 -25.75 62.4 -25.7 62.95 -25.7 63.5 -25.7 64.05 -25.75 64.6 -25.9 65.15 -26.0 65.65 -26.25 65.85 -26.4 65.9 -26.6 65.95 -26.75 65.95 -26.9 65.9 -27.05 65.8 -27.15 65.75 -27.3 65.6 -27.45 65.45 -27.55 65.25 -27.65 65.1 -27.75 64.9 -27.9 65.05 -27.8 64.6 -28.1 64.4 -28.2 64.3 -28.25 63.15 -29.0 61.95 -29.7 60.75 -30.4 59.55 -31.0 58.3 -31.6 57.05 -32.15 55.75 -32.65 54.45 -33.1 53.15 -33.55 51.85 -33.9 50.5 -34.25 49.15 -34.55 47.8 -34.8 46.45 -34.95 45.05 -35.1 43.7 -35.15 40.8 -35.35 39.15 -35.35 L39.15 -35.35" fill="#ff0000" fill-rule="evenodd" stroke="none"/>
    <path d="M39.15 -35.35 Q39.0 -35.4 38.85 -35.35 38.7 -35.35 38.6 -35.25 38.5 -35.2 38.45 -35.1 38.35 -35.0 38.35 -34.85 38.3 -34.75 38.35 -34.6 38.35 -34.5 38.45 -34.35 38.5 -34.25 38.65 -34.2 38.75 -34.1 38.95 -34.1 40.0 -33.7 41.2 -33.15 42.15 -32.75 43.4 -32.15 43.85 -31.95 45.55 -31.1 46.9 -30.45 47.75 -30.1 48.95 -29.55 49.95 -29.1 51.15 -28.6 52.2 -28.2 53.4 -27.75 54.5 -27.45 55.7 -27.1 56.85 -26.85 57.3 -26.75 57.95 -26.6 56.6 -26.95 59.0 -26.3 59.7 -26.15 60.15 -26.05 60.75 -25.9 61.25 -25.85 61.85 -25.75 62.4 -25.7 62.95 -25.7 63.5 -25.7 64.05 -25.75 64.6 -25.9 65.15 -26.0 65.65 -26.25 65.85 -26.4 65.9 -26.6 65.95 -26.75 65.95 -26.9 65.9 -27.05 65.8 -27.15 65.75 -27.3 65.6 -27.45 65.45 -27.55 65.25 -27.65 65.1 -27.75 64.9 -27.9 65.05 -27.8 64.6 -28.1 64.4 -28.2 64.3 -28.25 63.15 -29.0 61.95 -29.7 60.75 -30.4 59.55 -31.0 58.3 -31.6 57.05 -32.15 55.75 -32.65 54.45 -33.1 53.15 -33.55 51.85 -33.9 50.5 -34.25 49.15 -34.55 47.8 -34.8 46.45 -34.95 45.05 -35.1 43.7 -35.15 40.8 -35.35 39.15 -35.35 L39.15 -35.35 Z" fill="none" stroke="#000000" stroke-linecap="round" stroke-linejoin="round" stroke-width="0.2"/>
  </g>
</svg>
