<?xml version="1.0" encoding="UTF-8" standalone="no"?>
<svg xmlns:xlink="http://www.w3.org/1999/xlink" height="76.45px" width="73.45px" xmlns="http://www.w3.org/2000/svg">
  <g transform="matrix(1.0, 0.0, 0.0, 1.0, 36.7, 38.25)">
    <path d="M45.4 -18.6 Q45.35 -18.55 45.3 -18.5 45.3 -18.45 45.25 -18.35 45.2 -18.3 45.15 -18.25 45.1 -18.2 45.1 -18.15 45.05 -18.1 45.05 -18.05 45.05 -17.95 45.05 -17.9 45.05 -17.8 45.1 -17.75 45.15 -17.65 45.2 -17.55 45.1 -17.55 45.05 -17.55 44.95 -17.55 44.9 -17.55 44.85 -17.55 44.8 -17.55 44.8 -17.6 44.8 -17.6 44.75 -17.6 44.8 -17.65 44.8 -17.65 44.85 -17.7 44.85 -17.7 44.9 -17.75 44.95 -17.8 45.05 -17.8 44.85 -17.45 44.65 -17.1 44.45 -16.8 44.25 -16.55 44.05 -16.3 43.85 -16.1 43.6 -15.9 43.4 -15.75 43.15 -15.6 42.9 -15.45 42.7 -15.3 42.4 -15.2 42.15 -15.05 41.85 -14.95 41.55 -14.85 41.2 -14.7 41.05 -14.5 40.9 -14.35 40.75 -14.15 40.6 -14.0 40.45 -13.85 40.3 -13.7 40.15 -13.55 40.0 -13.4 39.85 -13.3 39.7 -13.2 39.55 -13.1 39.45 -13.0 39.3 -12.9 39.15 -12.85 39.05 -12.8 38.9 -12.75 38.9 -12.8 38.85 -12.85 38.85 -12.9 38.85 -12.9 38.85 -12.95 38.8 -13.0 38.8 -13.05 38.8 -13.1 38.8 -13.15 38.8 -13.2 38.75 -13.25 38.75 -13.3 38.75 -13.35 38.75 -13.4 38.75 -13.45 38.75 -13.5 38.6 -13.45 38.4 -13.4 38.2 -13.4 38.05 -13.35 37.9 -13.35 37.7 -13.3 37.4 -13.25 37.35 -13.25 37.15 -13.2 37.0 -13.2 36.8 -13.15 36.65 -13.1 36.5 -13.1 36.35 -13.05 36.2 -13.0 36.05 -12.95 36.2 -12.35 36.3 -11.9 36.4 -11.3 36.5 -10.8 36.65 -10.25 36.75 -9.75 36.85 -9.2 36.9 -8.7 37.0 -8.15 37.05 -7.6 37.1 -7.05 37.15 -6.55 37.2 -6.0 37.2 -5.45 37.25 -4.9 37.2 -4.35 37.2 -3.65 36.85 -2.7 36.55 -1.8 35.95 -0.75 35.35 0.3 34.55 1.35 33.75 2.45 32.85 3.4 31.9 4.45 30.9 5.3 29.85 6.15 28.85 6.75 27.8 7.4 26.85 7.7 25.8 8.0 24.95 7.85 24.45 8.45 24.05 9.0 23.75 9.45 23.45 9.9 23.25 10.25 23.05 10.65 23.0 10.75 22.75 11.25 22.55 11.6 22.4 11.85 22.25 12.15 22.05 12.45 21.8 12.75 21.45 13.1 21.1 13.5 20.65 13.95 20.65 13.95 20.65 13.95 20.15 14.7 19.65 15.45 19.3 16.0 18.85 16.75 18.2 17.8 18.15 17.9 17.75 18.5 17.5 18.9 17.15 19.4 16.9 19.8 16.55 20.25 16.25 20.6 15.9 21.05 15.55 21.4 15.15 21.8 14.75 22.2 14.85 22.15 14.9 22.1 15.0 22.05 15.05 22.0 15.15 21.95 15.25 21.95 15.3 21.9 15.4 21.85 15.5 21.8 15.55 21.75 15.65 21.7 15.75 21.7 15.85 21.65 15.9 21.6 16.0 21.55 16.1 21.55 15.95 22.7 15.55 23.7 15.2 24.7 14.65 25.55 14.15 26.35 13.45 27.05 12.75 27.75 11.9 28.35 11.15 28.9 10.2 29.35 9.3 29.8 8.25 30.2 7.3 30.55 6.2 30.85 5.2 31.1 4.05 31.35 2.8 31.65 1.7 31.9 0.5 32.2 -0.55 32.4 -1.65 32.65 -2.7 32.8 -3.75 33.0 -4.7 33.15 -5.7 33.25 -6.65 33.35 -7.6 33.45 -8.55 33.5 -9.5 33.55 -10.4 33.55 -11.35 33.55 -12.25 33.5 -12.25 33.75 -12.2 34.0 -12.15 34.3 -12.1 34.55 -12.05 34.85 -11.95 35.1 -11.9 35.4 -11.8 35.65 -11.75 35.9 -11.65 36.2 -11.55 36.45 -11.5 36.7 -11.4 36.9 -11.35 37.1 -11.25 37.3 -11.2 37.5 -11.1 37.55 -11.05 37.65 -10.95 37.75 -10.9 37.85 -10.85 37.95 -10.8 38.15 -10.75 38.25 -10.65 38.45 -10.6 38.65 -10.55 38.9 -10.5 39.05 -10.4 39.4 -10.35 39.8 -10.25 40.05 -10.15 40.45 -10.05 40.8 -10.15 40.85 -10.3 40.8 -10.45 40.75 -10.7 40.6 -10.85 40.5 -11.1 40.3 -11.3 40.15 -11.55 39.95 -11.7 39.75 -12.0 39.5 -12.35 39.2 -12.45 39.1 -12.65 38.9 -12.8 38.75 -13.0 38.6 -13.15 38.55 -13.45 38.35 -13.7 38.1 -13.95 37.8 -14.2 37.45 -14.45 37.1 -14.7 36.7 -14.95 36.35 -15.15 35.9 -15.35 35.5 -15.6 35.0 -15.75 34.65 -16.0 34.15 -15.6 35.0 -16.35 33.35 -16.55 32.9 -16.7 32.65 -17.35 32.4 -17.9 32.05 -18.45 31.75 -19.0 31.35 -19.5 30.95 -20.0 30.45 -20.45 29.95 -20.9 29.35 -21.35 28.75 -21.8 28.1 -22.2 27.4 -22.65 26.6 -23.05 25.85 -23.5 24.95 -23.95 24.1 -24.4 23.05 -25.05 21.45 -26.2 19.2 -27.25 17.15 -27.7 16.0 -28.45 14.1 -28.85 11.95 -29.3 9.9 -29.4 7.75 -29.55 5.65 -29.4 3.45 -29.3 1.4 -28.9 -0.7 -28.6 -2.75 -28.0 -4.7 -27.5 -6.6 -26.8 -8.35 -26.1 -10.05 -25.25 -11.5 -24.4 -13.0 -23.5 -14.1 -23.4 -14.75 -23.3 -15.35 -23.2 -15.9 -23.05 -16.45 -22.9 -17.0 -22.75 -17.5 -22.6 -17.95 -22.4 -18.4 -22.25 -18.8 -22.05 -19.2 -21.9 -19.55 -21.7 -19.9 -21.5 -20.2 -21.35 -20.5 -21.15 -20.75 -21.0 -21.0 -20.35 -21.9 -16.5 -25.7 -14.8 -27.4 -13.65 -28.35 -13.4 -28.6 -13.1 -28.8 -12.85 -29.0 -12.6 -29.25 -12.35 -29.4 -12.1 -29.6 -11.85 -29.8 -11.65 -29.95 -11.4 -30.1 -11.2 -30.3 -11.0 -30.4 -10.8 -30.55 -10.65 -30.7 -10.45 -30.8 -10.35 -30.9 -10.15 -31.05 -9.9 -31.2 -9.65 -31.4 -9.45 -31.55 -9.2 -31.7 -8.95 -31.85 -8.75 -32.0 -8.5 -32.15 -8.3 -32.25 -8.1 -32.4 -7.85 -32.55 -7.65 -32.7 -7.45 -32.8 -7.25 -32.95 -7.05 -33.05 -6.85 -33.15 -6.7 -33.3 -6.55 -33.35 -6.35 -33.4 -6.15 -33.45 -6.0 -33.5 -5.8 -33.55 -5.55 -33.6 -5.35 -33.7 -5.1 -33.75 -4.9 -33.8 -4.65 -33.9 -4.4 -34.0 -4.15 -34.05 -3.85 -34.15 -3.6 -34.25 -3.3 -34.35 -3.05 -34.45 -2.05 -34.85 -0.95 -35.3 -0.7 -35.4 -0.4 -35.55 -0.05 -35.65 0.3 -35.75 0.65 -35.9 1.05 -36.0 1.45 -36.1 1.95 -36.2 2.4 -36.35 2.95 -36.45 3.5 -36.55 4.05 -36.65 4.7 -36.7 5.35 -36.8 6.05 -36.9 6.8 -36.95 7.1 -36.9 7.45 -36.9 7.75 -36.85 8.05 -36.8 8.4 -36.8 8.7 -36.75 9.05 -36.7 9.35 -36.7 9.7 -36.65 10.0 -36.65 10.35 -36.6 10.65 -36.6 11.0 -36.55 11.3 -36.5 11.65 -36.5 12.0 -36.45 12.6 -36.4 14.65 -36.3 16.45 -36.15 17.8 -36.1 17.9 -36.1 18.1 -36.1 18.35 -36.1 18.6 -36.05 18.95 -36.05 19.35 -36.0 19.75 -35.95 20.2 -35.9 20.7 -35.85 21.2 -35.8 21.8 -35.7 22.35 -35.6 22.95 -35.5 23.55 -35.4 24.15 -35.25 24.75 -35.1 25.45 -34.95 26.2 -34.7 26.9 -34.55 27.6 -34.3 28.25 -34.1 28.85 -33.85 29.45 -33.65 30.05 -33.4 30.6 -33.15 31.15 -32.9 31.65 -32.7 32.15 -32.45 32.6 -32.25 33.0 -32.05 33.4 -31.85 33.75 -31.65 34.1 -31.6 34.45 -31.6 34.85 -31.55 35.25 -31.45 35.7 -31.4 36.15 -31.3 36.6 -31.2 37.05 -31.05 37.55 -30.9 38.05 -30.75 38.55 -30.55 39.05 -30.35 39.55 -30.1 40.1 -29.8 40.6 -29.55 41.1 -29.2 41.5 -28.95 41.7 -28.8 42.0 -28.6 42.3 -28.4 42.6 -28.15 42.9 -27.9 43.2 -27.65 43.5 -27.4 43.8 -27.1 44.05 -26.75 44.35 -26.45 44.6 -26.1 44.85 -25.7 45.05 -25.3 45.3 -24.85 45.45 -24.4 45.6 -23.95 45.7 -23.45 45.8 -23.0 45.85 -22.5 45.9 -22.05 45.9 -21.6 45.9 -21.2 45.85 -20.75 45.85 -20.4 45.75 -20.0 45.7 -19.7 45.65 -19.4 45.55 -19.15 45.5 -18.9 45.45 -18.7 45.4 -18.6 L45.4 -18.6" fill="#000000" fill-rule="evenodd" stroke="none"/>
  </g>
</svg>
