<?xml version="1.0" encoding="UTF-8" standalone="no"?>
<svg xmlns:xlink="http://www.w3.org/1999/xlink" height="78.45px" width="75.45px" xmlns="http://www.w3.org/2000/svg">
  <g transform="matrix(1.0, 0.0, 0.0, 1.0, 37.7, 39.25)">
    <path d="M-0.45 41.8 Q-0.55 42.25 -0.8 42.6 -1.0 42.95 -1.35 43.25 -1.65 43.5 -2.05 43.7 -2.4 43.9 -2.85 44.05 -3.25 44.15 -3.75 44.25 -4.15 44.3 -4.65 44.35 -5.1 44.35 -5.55 44.3 -6.0 44.3 -6.45 44.25 -7.4 44.1 -8.3 43.8 -9.1 43.55 -9.9 43.15 -10.6 42.8 -11.3 42.3 -11.95 41.9 -12.65 41.3 -13.2 40.85 -13.85 40.2 -14.35 39.7 -15.1 38.95 -16.9 37.05 -16.35 37.6 -17.1 36.85 -17.7 36.25 -18.0 35.95 -18.4 35.75 -18.7 35.55 -19.1 35.35 -19.25 35.25 -19.8 35.0 -20.25 34.8 -20.55 34.65 -21.0 34.45 -21.4 34.2 -21.85 33.9 -22.3 33.55 -22.8 33.1 -23.25 32.6 -23.8 32.0 -24.35 31.25 -24.7 30.75 -25.1 30.25 -25.4 29.75 -25.75 29.2 -26.05 28.7 -26.35 28.15 -26.65 27.6 -26.95 27.05 -27.2 26.55 -27.5 25.95 -27.75 25.45 -28.0 24.8 -28.2 24.45 -28.55 23.7 -28.85 22.95 -29.05 22.55 -29.55 21.55 -29.95 20.5 -30.4 19.5 -30.7 18.45 -31.05 17.4 -31.3 16.3 -31.55 15.25 -31.75 14.15 -31.95 13.1 -32.1 11.95 -32.2 10.9 -32.3 9.8 -32.35 8.7 -32.35 7.6 -32.4 6.5 -32.35 5.4 -32.3 4.85 -32.25 4.15 -31.25 -13.65 -32.2 2.85 -32.15 2.1 -32.1 1.55 -32.05 0.85 -32.0 0.3 -31.95 -0.4 -31.85 -1.0 -31.8 -1.65 -31.7 -2.25 -31.55 -2.95 -31.4 -3.55 -31.25 -4.2 -31.05 -4.8 -31.0 -4.95 -30.9 -5.1 -30.8 -5.25 -30.65 -5.4 -30.55 -5.5 -30.4 -5.65 -30.4 -5.7 -30.15 -5.9 -30.0 -6.05 -29.9 -6.15 -29.8 -6.3 -29.7 -6.4 -29.6 -6.55 -29.5 -6.7 -29.45 -6.85 -29.4 -7.05 -29.15 -8.55 -28.85 -9.75 -28.55 -11.05 -28.2 -12.15 -27.8 -13.25 -27.35 -14.25 -26.85 -15.2 -26.3 -16.15 -25.7 -17.0 -25.0 -17.9 -24.3 -18.7 -23.4 -19.6 -22.55 -20.4 -21.5 -21.3 -20.55 -22.1 -19.25 -23.05 -18.75 -23.5 -18.2 -24.2 -17.75 -24.75 -17.1 -25.7 -19.1 -22.8 -15.9 -27.35 -15.2 -28.4 -14.6 -29.15 -13.85 -30.15 -13.1 -31.0 -12.25 -31.95 -11.3 -32.75 -10.3 -33.6 -9.2 -34.3 -8.0 -35.05 -6.7 -35.6 -6.4 -35.7 -6.1 -35.8 -5.8 -35.9 -5.45 -36.0 -5.15 -36.1 -4.8 -36.15 -4.5 -36.2 -4.2 -36.25 -3.85 -36.3 -3.5 -36.35 -3.2 -36.35 -2.85 -36.35 -2.5 -36.4 -2.2 -36.35 -1.85 -36.35 -1.5 -36.35 -1.3 -36.3 -1.0 -36.45 -0.8 -36.55 -0.35 -36.85 0.3 -37.4 0.45 -37.5 1.05 -37.9 1.6 -38.25 2.35 -38.65 3.15 -38.95 4.15 -39.3 5.25 -39.55 6.5 -39.8 7.9 -39.9 9.5 -40.05 11.3 -39.95 11.9 -39.9 12.5 -39.85 13.1 -39.75 13.7 -39.7 14.3 -39.6 14.9 -39.5 15.5 -39.45 16.05 -39.35 16.65 -39.2 17.25 -39.1 17.85 -38.95 18.4 -38.85 19.0 -38.7 19.55 -38.5 20.15 -38.35 20.7 -38.15 27.95 -35.15 29.25 -34.75 30.0 -34.45 31.3 -34.0 30.55 -34.25 33.85 -33.15 35.45 -32.65 36.6 -32.2 38.15 -31.65 39.4 -31.1 40.85 -30.45 42.0 -29.8 43.3 -29.05 44.2 -28.25 45.15 -27.35 45.7 -26.4 46.3 -25.4 46.4 -24.3 46.45 -23.65 46.4 -23.0 46.35 -22.3 46.2 -21.6 46.05 -20.9 45.85 -20.15 45.65 -19.45 45.35 -18.75 45.05 -18.05 44.65 -17.35 44.3 -16.65 43.85 -16.0 43.45 -15.35 42.95 -14.75 42.45 -14.1 41.95 -13.6 41.75 -13.35 41.5 -13.15 41.25 -12.95 40.95 -12.75 40.7 -12.65 40.35 -12.45 39.75 -12.2 39.75 -12.2 39.45 -12.05 39.25 -11.9 39.0 -11.75 38.85 -11.6 38.7 -11.4 38.65 -11.15 38.6 -10.9 38.65 -10.6 38.8 -9.8 38.9 -9.1 39.05 -8.3 39.1 -7.55 39.2 -6.75 39.2 -6.05 39.25 -5.25 39.2 -4.5 39.15 -3.7 39.0 -3.0 38.85 -2.25 38.55 -1.55 38.3 -0.8 37.9 -0.15 37.55 0.55 37.0 1.15 37.15 0.95 36.05 2.5 35.5 3.3 35.1 3.85 34.55 4.55 34.1 5.15 33.55 5.8 32.95 6.35 32.35 6.9 31.7 7.4 31.05 7.9 30.3 8.3 29.5 8.7 28.6 9.0 27.7 9.3 26.65 9.45 26.55 9.45 26.5 9.5 26.4 9.5 26.35 9.55 26.3 9.55 26.2 9.6 26.15 9.6 26.1 9.65 26.05 9.65 25.95 9.7 25.9 9.7 25.85 9.75 25.8 9.8 25.75 9.85 25.7 9.9 25.65 9.9 25.55 10.0 25.45 10.15 25.35 10.3 25.25 10.5 25.15 10.7 25.0 11.0 24.55 11.85 24.7 11.55 24.55 11.85 24.4 12.15 24.2 12.5 24.05 12.75 23.85 13.1 23.65 13.4 23.4 13.7 23.15 14.0 22.85 14.4 22.45 14.85 22.15 15.15 21.7 15.6 21.85 15.45 20.9 16.35 20.45 16.8 20.1 17.15 19.7 17.6 19.35 18.0 18.95 18.5 18.6 19.0 18.25 19.55 17.95 20.2 17.65 20.85 17.45 21.55 17.3 22.15 17.15 22.7 17.0 23.25 16.8 23.8 16.65 24.35 16.4 24.85 16.2 25.35 15.95 25.8 15.7 26.3 15.4 26.7 15.1 27.15 14.75 27.6 14.4 28.0 14.0 28.4 13.6 28.8 13.15 29.15 12.85 29.45 12.2 29.85 11.6 30.25 10.65 30.7 9.8 31.1 8.65 31.55 7.6 32.0 6.3 32.5 5.15 32.95 3.75 33.45 2.45 33.9 1.05 34.4 -0.25 34.85 -1.7 35.3 -2.95 35.7 -4.3 36.15 -4.45 36.25 -4.75 36.3 -5.05 36.4 -5.5 36.45 -5.65 36.45 -6.35 36.55 -6.9 36.6 -7.2 36.65 -7.7 36.7 -8.05 36.8 -8.45 36.9 -8.75 37.05 -9.0 37.2 -9.15 37.4 -9.25 37.6 -9.2 37.85 -9.15 38.4 -8.9 38.9 -8.7 39.35 -8.35 39.75 -8.0 40.15 -7.55 40.45 -7.1 40.7 -6.6 40.9 -6.1 41.05 -5.6 41.05 -5.1 41.05 -4.6 40.9 -4.1 40.75 -3.7 40.45 -3.3 40.1 -3.0 39.6 -2.95 39.5 -2.9 39.45 -2.9 39.35 -2.8 39.3 -2.75 39.25 -2.7 39.2 -2.65 39.15 -2.55 39.1 -2.5 39.05 -2.45 39.0 -2.4 39.0 -2.3 38.95 -2.15 38.85 -2.15 38.85 -2.1 38.8 -2.0 38.75 -1.85 39.0 -1.8 39.05 -1.7 39.2 -1.65 39.3 -1.6 39.4 -1.55 39.5 -1.5 39.65 -1.5 39.75 -1.45 39.9 -1.45 40.0 -1.45 40.15 -1.5 40.35 -1.5 40.5 -1.55 40.75 -1.65 40.95 -1.7 41.25 -1.4 41.35 -1.0 41.55 -0.6 41.7 -0.45 41.8 L-0.45 41.8 M21.8 12.0 Q22.2 11.4 22.4 11.15 22.6 10.75 22.75 10.55 22.9 10.3 22.95 10.1 23.0 9.9 23.0 9.7 23.0 9.55 22.9 9.35 22.85 9.2 22.7 8.85 22.55 8.4 22.45 8.15 22.3 7.65 22.15 7.15 22.1 6.85 21.6 4.45 21.3 2.8 21.1 1.75 21.05 1.6 21.0 1.4 21.0 1.25 20.95 1.0 20.9 0.55 20.9 0.6 20.85 0.35 20.8 0.15 20.75 -0.05 20.7 -0.25 20.65 -0.45 20.55 -0.55 20.45 -0.7 20.3 -0.8 20.15 -0.9 19.95 -0.9 17.95 -0.7 16.1 -0.6 14.15 -0.5 12.35 -0.5 10.45 -0.55 8.7 -0.7 6.9 -0.85 5.15 -1.15 3.35 -1.45 1.65 -1.85 -0.1 -2.3 -1.8 -2.9 -3.55 -3.5 -5.25 -4.3 -6.95 -5.05 -8.7 -6.0 -9.65 -6.55 -10.45 -7.05 -11.35 -7.6 -12.1 -8.15 -12.95 -8.7 -13.75 -9.3 -14.55 -9.9 -15.25 -10.5 -16.05 -11.15 -16.7 -11.8 -17.4 -12.5 -18.05 -13.25 -18.7 -14.0 -19.25 -14.75 -19.8 -15.55 -20.3 -16.4 -20.4 -16.6 -20.5 -16.75 -20.6 -16.85 -20.65 -16.95 -20.75 -17.05 -20.85 -17.05 -20.9 -17.1 -21.0 -17.1 -21.1 -17.1 -21.2 -17.05 -21.25 -17.0 -21.4 -16.9 -21.45 -16.8 -21.6 -16.7 -21.7 -16.6 -21.85 -16.4 -22.65 -15.55 -23.3 -14.55 -23.95 -13.55 -24.4 -12.5 -24.9 -11.45 -25.2 -10.3 -25.55 -9.15 -25.7 -8.0 -25.85 -6.8 -25.85 -5.65 -25.85 -4.45 -25.7 -3.3 -25.55 -2.1 -25.25 -0.95 -24.95 0.15 -24.45 1.25 -23.65 3.0 -22.4 4.45 -21.25 5.85 -19.7 6.95 -18.2 8.0 -16.35 8.85 -14.65 9.6 -12.5 10.25 -10.6 10.8 -8.2 11.35 -6.35 11.75 -3.6 12.25 -16.9 9.8 1.15 13.15 4.05 13.65 6.1 14.1 6.5 14.2 6.9 14.3 7.3 14.35 7.75 14.45 8.15 14.5 8.55 14.6 8.95 14.65 9.35 14.7 9.8 14.75 10.2 14.8 10.6 14.85 11.0 14.9 11.45 14.95 11.85 15.0 12.25 15.0 12.65 15.0 12.65 15.0 12.65 15.0 12.75 15.0 13.85 15.1 14.6 15.2 15.05 15.2 15.65 15.25 16.2 15.2 16.8 15.2 17.35 15.1 17.9 14.95 18.45 14.75 19.05 14.55 19.55 14.2 20.15 13.8 20.65 13.3 21.25 12.75 21.8 12.0 L21.8 12.0 M35.45 -15.1 Q35.35 -15.75 35.2 -16.65 34.55 -20.6 34.95 -18.2 34.8 -19.1 34.65 -19.75 34.5 -20.6 34.35 -21.3 34.15 -22.1 33.95 -22.8 33.7 -23.6 33.4 -24.3 33.1 -25.05 32.75 -25.7 32.35 -26.4 31.85 -27.05 31.5 -27.5 31.15 -27.9 30.75 -28.3 30.35 -28.7 29.95 -29.05 29.45 -29.4 29.05 -29.75 28.55 -30.05 28.1 -30.35 27.6 -30.65 27.15 -30.9 26.6 -31.25 26.6 -31.25 25.6 -31.8 25.0 -32.15 24.65 -32.4 23.7 -33.0 22.7 -33.55 21.65 -34.05 20.5 -34.45 19.4 -34.9 18.2 -35.2 17.05 -35.5 15.8 -35.7 14.6 -35.9 13.3 -36.0 12.05 -36.15 10.8 -36.15 9.5 -36.15 8.25 -36.05 7.0 -35.95 5.75 -35.8 5.7 -35.75 5.5 -35.7 5.4 -35.7 5.15 -35.65 4.85 -35.6 4.7 -35.55 4.45 -35.5 4.25 -35.4 4.05 -35.35 3.9 -35.25 3.75 -35.2 3.7 -35.1 3.6 -34.95 3.65 -34.85 3.7 -34.7 3.85 -34.55 5.6 -33.6 7.3 -32.05 8.95 -30.55 10.55 -28.6 12.05 -26.75 13.5 -24.5 14.85 -22.35 16.15 -19.9 17.35 -17.6 18.4 -15.05 19.45 -12.6 20.3 -10.1 21.15 -7.7 21.8 -5.35 22.45 -3.0 22.8 -0.9 22.85 -0.5 22.9 0.1 23.0 1.25 23.0 1.15 23.05 1.75 23.05 2.2 23.15 2.75 23.2 3.25 23.25 3.8 23.35 4.25 23.45 4.8 23.55 5.25 23.7 5.75 23.85 6.25 24.0 6.7 24.2 7.15 24.75 7.5 25.6 7.45 26.4 7.35 27.45 6.9 28.4 6.45 29.45 5.7 30.5 4.95 31.55 4.0 32.6 3.05 33.55 1.95 34.5 0.8 35.25 -0.3 36.0 -1.5 36.45 -2.65 36.95 -3.8 37.05 -4.85 37.05 -5.55 37.0 -6.1 37.0 -6.7 36.95 -7.25 36.9 -7.75 36.85 -8.3 36.8 -8.8 36.7 -9.35 36.65 -9.85 36.5 -10.45 36.4 -11.0 36.25 -11.75 36.1 -12.35 35.9 -13.25 35.75 -13.85 35.45 -15.1 L35.45 -15.1 M16.5 -3.0 Q16.6 -3.0 16.85 -3.0 17.0 -3.0 17.3 -3.0 17.7 -3.0 17.85 -3.0 18.15 -2.95 18.4 -3.0 18.7 -3.0 18.9 -3.0 19.2 -3.05 19.35 -3.15 19.55 -3.2 19.6 -3.35 19.7 -3.5 19.65 -3.7 19.4 -4.5 19.15 -5.3 18.85 -6.1 18.6 -6.85 18.3 -7.65 18.0 -8.4 17.75 -9.15 17.45 -9.9 17.15 -10.65 16.85 -11.4 16.55 -12.1 16.2 -12.85 15.9 -13.6 15.55 -14.35 15.25 -15.05 14.9 -15.85 13.95 -17.9 12.8 -19.9 11.55 -22.15 10.2 -24.05 8.7 -26.25 7.2 -27.95 5.5 -29.8 3.8 -31.05 1.95 -32.4 0.15 -32.95 -1.8 -33.55 -3.7 -33.25 -5.7 -32.9 -7.6 -31.5 -9.65 -30.0 -11.55 -27.25 -11.7 -27.05 -13.6 -24.6 -14.85 -23.05 -15.6 -21.85 -15.65 -21.75 -15.6 -21.65 -15.55 -21.55 -15.5 -21.4 -15.4 -21.3 -15.3 -21.2 -15.2 -21.1 -15.05 -21.0 -14.9 -20.9 -14.75 -20.8 -14.5 -20.6 -14.45 -20.55 -14.3 -20.45 -14.2 -20.35 -14.05 -20.25 -14.0 -20.15 -13.35 -19.55 -12.7 -18.85 -12.1 -18.2 -11.5 -17.45 -10.95 -16.75 -10.45 -16.0 -9.95 -15.25 -9.45 -14.45 -9.0 -13.7 -8.6 -12.85 -8.15 -12.05 -7.8 -11.2 -7.45 -10.4 -7.1 -9.5 -6.75 -8.65 -6.45 -7.8 -6.35 -7.55 -5.9 -7.2 -5.45 -6.9 -4.7 -6.5 -4.0 -6.15 -3.05 -5.75 -2.1 -5.4 -1.0 -5.0 0.1 -4.65 1.3 -4.3 2.5 -3.95 3.7 -3.7 4.95 -3.4 6.1 -3.2 7.3 -3.0 8.35 -2.9 8.85 -2.9 9.35 -2.9 9.9 -2.9 10.4 -2.9 10.9 -2.9 11.4 -2.9 11.9 -2.9 12.4 -2.95 12.9 -2.95 13.45 -2.95 13.95 -2.95 14.45 -2.95 14.95 -2.95 15.45 -2.95 15.95 -2.95 16.5 -3.0 L16.5 -3.0 M1.15 24.1 Q1.4 24.05 2.55 23.8 3.65 23.55 4.4 23.4 5.55 23.1 6.5 22.85 7.7 22.55 8.75 22.2 9.95 21.8 10.95 21.4 12.1 20.9 13.0 20.4 14.0 19.85 14.7 19.25 15.45 18.6 15.9 17.9 15.2 17.65 14.05 17.45 13.0 17.25 11.5 17.15 10.3 17.05 8.4 16.9 -120.05 8.75 4.9 16.7 2.75 16.55 1.15 16.4 -0.95 16.25 -2.75 16.05 -4.8 15.75 -6.6 15.45 -8.65 15.05 -10.4 14.6 -11.8 14.25 -12.8 13.95 -14.1 13.6 -15.2 13.25 -16.45 12.8 -17.5 12.35 -18.7 11.9 -19.75 11.3 -20.85 10.7 -21.8 10.05 -22.85 9.3 -23.7 8.45 -24.65 7.55 -25.4 6.55 -26.2 5.45 -26.85 4.2 -26.9 4.15 -26.95 4.0 -27.05 3.85 -27.1 3.75 -27.15 3.65 -27.2 3.55 -27.3 3.45 -27.35 3.35 -27.4 3.2 -27.5 3.15 -27.55 3.05 -27.65 2.95 -27.75 2.85 -27.8 2.75 -27.9 2.7 -28.0 2.65 -28.05 2.95 -28.1 3.25 -28.15 3.55 -28.2 3.9 -28.25 4.2 -28.25 4.55 -28.3 4.9 -28.35 5.25 -28.35 5.65 -28.35 6.0 -28.4 6.4 -28.4 6.8 -28.4 7.2 -28.4 7.6 -28.35 8.05 -28.35 8.45 -28.3 8.9 -28.3 9.4 -28.25 9.85 -28.2 10.25 -28.15 10.7 -28.05 11.1 -28.0 11.5 -27.9 11.9 -27.85 12.3 -27.75 12.7 -27.7 13.05 -27.6 13.4 -27.5 13.75 -27.4 14.1 -27.35 14.4 -27.25 14.7 -26.25 15.7 -25.3 16.6 -24.25 17.5 -23.25 18.35 -22.15 19.2 -21.1 19.9 -19.95 20.7 -18.8 21.3 -17.6 22.0 -16.4 22.5 -15.1 23.0 -13.8 23.4 -12.5 23.8 -11.1 24.0 -9.7 24.25 -8.25 24.3 -7.7 24.3 -7.1 24.3 -6.6 24.3 -5.9 24.3 37.9 25.2 -4.7 24.35 -4.05 24.35 -3.55 24.35 -2.9 24.35 -2.35 24.35 -1.75 24.35 -1.2 24.35 -0.6 24.3 -0.05 24.25 0.55 24.2 1.15 24.1 L1.15 24.1 M-23.7 24.3 Q-23.3 25.25 -22.95 26.0 -22.5 26.8 -22.1 27.5 -21.65 28.25 -21.2 28.85 -20.7 29.5 -20.15 30.05 -19.55 30.6 -18.9 31.05 -18.2 31.5 -17.45 31.9 -16.6 32.25 -15.7 32.5 -14.7 32.75 -13.6 32.9 -12.45 33.05 -11.3 33.05 -10.2 33.1 -9.05 33.05 -7.95 33.0 -6.8 32.9 -5.75 32.8 -4.6 32.65 -3.55 32.45 -2.4 32.25 -1.4 32.05 -0.25 31.8 0.7 31.6 1.95 31.35 10.25 29.45 4.15 30.85 4.0 30.9 5.4 30.5 6.3 30.3 7.0 30.05 8.0 29.75 8.8 29.45 9.8 29.0 10.7 28.55 11.65 27.95 12.45 27.3 13.35 26.55 14.0 25.7 14.75 24.75 15.2 23.65 15.7 22.45 15.9 21.05 15.75 21.1 15.5 21.2 15.3 21.3 15.05 21.45 14.85 21.55 14.55 21.75 18.5 19.3 14.0 22.1 13.65 22.3 13.4 22.45 13.05 22.65 12.75 22.8 12.4 23.0 12.05 23.15 11.7 23.3 11.3 23.45 10.55 23.75 9.65 24.05 8.75 24.3 7.65 24.55 6.65 24.8 5.5 25.0 4.35 25.2 3.15 25.4 1.95 25.55 0.7 25.7 -0.55 25.8 -1.8 25.9 -3.0 26.0 -4.2 26.05 -5.4 26.05 -6.55 26.05 -8.2 26.05 -9.6 25.95 -11.05 25.85 -12.25 25.6 -13.5 25.4 -14.65 25.1 -15.8 24.75 -16.85 24.3 -17.95 23.85 -19.05 23.25 -20.1 22.65 -21.25 21.85 -22.35 21.15 -23.65 20.15 -24.8 19.3 -26.3 18.05 -26.3 18.3 -26.2 18.65 -26.15 18.9 -26.05 19.25 -25.95 19.55 -25.8 19.95 -25.65 20.25 -25.45 20.65 -25.3 21.0 -25.05 21.45 -23.3 25.1 -24.65 22.35 -24.4 22.85 -24.2 23.25 -23.95 23.8 -23.7 24.3 L-23.7 24.3 M-16.7 -20.4 Q-16.75 -20.4 -16.95 -20.35 -17.1 -20.25 -17.35 -20.1 -17.55 -19.95 -17.8 -19.75 -18.05 -19.55 -18.3 -19.35 -18.55 -19.15 -18.75 -18.95 -18.95 -18.7 -19.1 -18.55 -19.25 -18.35 -19.3 -18.2 -19.35 -18.0 -19.3 -17.95 -18.95 -17.25 -18.45 -16.55 -17.95 -15.85 -17.35 -15.2 -16.75 -14.55 -16.05 -13.9 -15.4 -13.3 -14.65 -12.65 -13.95 -12.1 -13.1 -11.45 -12.35 -10.9 -11.45 -10.3 -10.7 -9.8 -9.75 -9.2 -9.1 -8.75 -8.05 -8.05 -7.95 -8.15 -7.75 -8.3 -8.35 -9.35 -8.25 -9.2 -8.65 -9.9 -9.1 -10.6 -9.65 -11.55 -10.15 -12.4 -10.8 -13.45 -11.4 -14.35 -12.1 -15.45 -12.75 -16.35 -13.5 -17.35 -14.15 -18.1 -14.85 -18.95 -15.5 -19.55 -16.15 -20.15 -16.7 -20.4 L-16.7 -20.4 M36.2 -26.85 Q36.5 -25.8 37.2 -23.75 37.85 -21.8 38.2 -20.75 38.2 -20.7 38.25 -20.65 38.25 -20.55 38.3 -20.5 38.3 -20.45 38.3 -20.4 38.35 -20.35 38.35 -20.35 38.4 -20.3 38.4 -20.25 38.45 -20.25 38.5 -20.2 38.5 -20.2 38.55 -20.15 38.6 -20.15 38.65 -20.1 39.0 -20.15 39.45 -20.35 39.9 -20.5 40.4 -20.8 40.95 -21.05 41.45 -21.4 41.95 -21.75 42.35 -22.15 42.8 -22.55 43.1 -23.0 43.4 -23.45 43.5 -23.85 43.65 -24.35 43.5 -24.75 43.35 -25.2 42.9 -25.6 42.6 -25.75 42.3 -25.9 42.05 -26.05 41.75 -26.2 41.45 -26.3 41.15 -26.4 40.85 -26.5 40.5 -26.6 40.3 -26.65 39.9 -26.75 39.35 -26.9 39.3 -26.9 38.95 -27.0 38.7 -27.1 38.4 -27.2 38.1 -27.3 38.1 -27.25 38.05 -27.15 37.95 -27.15 37.8 -27.2 37.7 -27.2 37.5 -27.25 37.25 -27.3 37.15 -27.3 37.0 -27.35 36.85 -27.35 36.7 -27.35 36.55 -27.35 36.45 -27.35 36.35 -27.3 36.25 -27.25 36.2 -27.15 36.2 -27.0 36.2 -26.85 L36.2 -26.85 M38.75 -13.25 Q39.0 -13.25 39.35 -13.5 39.7 -13.8 40.15 -14.25 40.6 -14.7 41.05 -15.3 41.5 -15.9 41.95 -16.55 42.45 -17.25 42.85 -17.9 43.25 -18.6 43.5 -19.25 43.85 -19.9 43.95 -20.45 44.1 -21.05 44.1 -21.4 43.85 -21.3 43.6 -21.2 43.4 -21.15 43.15 -21.0 42.95 -20.9 42.7 -20.75 42.55 -20.65 42.3 -20.5 42.15 -20.4 41.9 -20.25 41.6 -20.05 41.45 -19.95 41.2 -19.8 41.0 -19.7 40.8 -19.55 40.55 -19.45 40.4 -19.35 40.25 -19.25 40.15 -19.2 39.9 -19.05 39.7 -18.95 39.55 -18.9 39.4 -18.8 39.25 -18.7 39.1 -18.6 39.0 -18.45 38.85 -18.35 38.8 -18.25 38.7 -18.1 38.7 -17.95 38.65 -17.8 38.7 -17.6 38.7 -17.35 38.7 -17.05 38.7 -16.85 38.65 -16.5 38.65 -16.35 38.6 -15.95 38.6 -15.6 38.55 -15.4 38.55 -15.1 38.55 -14.85 38.55 -14.55 38.55 -14.3 38.55 -14.0 38.6 -13.75 38.65 -13.5 38.75 -13.25 L38.75 -13.25 M41.05 -28.05 Q40.95 -28.25 40.6 -28.5 40.25 -28.75 39.65 -29.05 39.1 -29.35 38.4 -29.65 37.75 -29.95 37.0 -30.25 36.3 -30.55 35.6 -30.8 34.85 -31.1 34.25 -31.25 33.65 -31.45 33.2 -31.5 32.75 -31.6 32.6 -31.55 33.0 -30.95 33.4 -30.5 33.8 -30.05 34.15 -29.7 34.55 -29.4 34.95 -29.15 35.3 -28.95 35.8 -28.8 36.2 -28.65 36.75 -28.55 37.25 -28.45 37.95 -28.4 38.3 -28.35 39.35 -28.25 40.35 -28.15 41.05 -28.05 L41.05 -28.05 M-11.65 36.85 Q-12.55 36.75 -12.45 36.75 -12.9 36.7 -13.15 36.65 -13.5 36.65 -13.75 36.65 -14.0 36.65 -14.15 36.7 -14.3 36.75 -14.3 36.9 -14.3 37.05 -14.15 37.25 -14.0 37.45 -13.7 37.75 -13.35 38.05 -12.8 38.5 -12.75 38.55 -12.6 38.65 -12.5 38.7 -12.35 38.85 -12.35 38.9 -12.0 39.2 -11.8 39.4 -11.65 39.55 -11.45 39.7 -11.3 39.85 -11.1 40.0 -10.9 40.1 -10.7 40.25 -10.55 40.3 -10.4 40.35 -10.25 40.3 -10.3 40.2 -10.35 40.0 -10.4 39.85 -10.45 39.55 -10.45 39.65 -10.55 39.05 -10.65 38.7 -10.7 38.5 -10.75 38.2 -10.85 37.95 -10.9 37.65 -11.05 37.45 -11.15 37.25 -11.3 37.1 -11.45 36.9 -11.65 36.85 L-11.65 36.85" fill="#000000" fill-rule="evenodd" stroke="none"/>
  </g>
</svg>
