<?xml version="1.0" encoding="UTF-8" standalone="no"?>
<svg xmlns:xlink="http://www.w3.org/1999/xlink" height="258.15px" width="277.35px" xmlns="http://www.w3.org/2000/svg">
  <g transform="matrix(1.0, 0.0, 0.0, 1.0, 0.0, 129.05)">
    <path d="M106.75 -120.95 Q106.75 -121.1 106.7 -121.25 106.7 -121.4 106.65 -121.55 106.65 -121.65 106.65 -121.8 106.6 -121.95 106.6 -122.05 106.55 -122.2 106.55 -122.3 106.5 -122.4 106.5 -122.5 106.45 -122.6 106.45 -122.7 106.4 -122.8 106.4 -122.9 106.25 -122.95 106.1 -123.0 105.95 -123.05 105.8 -123.1 105.65 -123.15 105.5 -123.2 105.3 -123.25 105.15 -123.3 104.95 -123.35 104.75 -123.4 104.6 -123.45 104.4 -123.5 104.15 -123.55 103.95 -123.6 103.75 -123.65 103.5 -123.7 103.25 -123.75 102.95 -123.8 102.55 -123.85 102.15 -123.9 101.65 -124.0 101.15 -124.0 100.55 -124.05 99.95 -124.05 99.3 -124.05 98.65 -124.05 97.9 -124.0 97.2 -123.9 96.4 -123.8 95.65 -123.6 94.85 -123.4 94.05 -123.15 93.35 -122.9 92.7 -122.65 92.1 -122.35 91.5 -122.0 90.95 -121.7 90.4 -121.35 89.9 -121.0 89.35 -120.6 88.9 -120.25 88.4 -119.8 88.0 -119.4 87.5 -118.95 87.15 -118.55 86.65 -118.1 86.35 -117.8 85.8 -117.2 85.15 -116.55 84.6 -115.85 84.0 -115.2 83.5 -114.5 83.0 -113.85 82.5 -113.15 82.05 -112.5 81.6 -111.75 81.2 -111.05 80.75 -110.3 80.35 -109.6 79.9 -108.75 79.55 -108.05 79.05 -107.1 78.75 -106.45 78.15 -105.35 77.65 -104.35 77.2 -103.35 76.75 -102.4 76.35 -101.5 75.95 -100.6 75.6 -99.75 75.25 -99.0 74.95 -98.2 74.7 -97.55 74.45 -96.9 74.25 -96.35 74.05 -95.8 73.9 -95.35 73.75 -94.95 73.65 -94.65 73.55 -94.4 73.15 -93.2 72.85 -92.15 72.6 -91.25 72.4 -90.35 72.2 -89.6 72.05 -88.8 71.9 -88.25 71.75 -87.35 71.55 -86.3 71.45 -85.8 71.3 -84.9 71.1 -84.05 70.85 -83.0 70.55 -81.9 70.2 -80.65 69.8 -79.25 69.3 -77.55 68.8 -76.05 68.55 -75.35 67.95 -73.65 67.4 -72.15 67.0 -71.0 66.45 -69.3 65.85 -67.2 65.3 -65.3 64.9 -63.75 64.7 -63.05 64.25 -61.1 63.85 -59.4 63.45 -58.0 62.85 -55.8 62.3 -54.05 61.85 -52.45 61.1 -50.35 61.0 -50.15 59.4 -45.7 58.15 -42.1 56.95 -38.6 L51.8 -23.25 Q51.2 -21.7 50.6 -20.05 50.15 -18.9 49.55 -17.35 48.85 -15.55 48.65 -15.05 48.2 -13.9 47.9 -13.1 47.55 -12.15 47.3 -11.35 47.05 -10.5 46.85 -9.75 46.65 -8.95 46.5 -8.15 46.35 -7.3 46.25 -6.45 46.25 -6.25 46.2 -6.1 46.2 -5.85 46.2 -5.65 46.15 -5.4 46.1 -5.15 46.1 -4.9 46.0 -4.6 45.95 -4.3 45.9 -4.0 45.8 -3.65 45.75 -3.3 45.6 -2.95 45.5 -2.6 45.35 -2.2 45.2 -1.8 45.05 -1.45 44.9 -1.1 44.75 -0.8 44.6 -0.5 44.45 -0.15 44.25 0.15 44.05 0.45 43.8 0.8 43.55 1.15 43.3 1.5 43.0 1.9 42.65 2.35 42.35 2.7 41.9 3.3 41.75 3.45 41.05 4.4 L36.35 10.45 Q36.15 10.8 36.0 11.1 35.8 11.5 35.6 11.9 35.4 12.3 35.2 12.75 35.05 13.2 34.85 13.7 34.7 14.2 34.5 14.75 34.35 15.3 34.2 15.9 34.1 16.5 33.95 17.15 33.85 17.85 33.75 18.55 33.75 18.6 33.75 18.65 33.75 18.7 33.7 18.8 33.7 18.85 33.7 18.95 33.65 19.05 33.65 19.15 33.6 19.25 33.55 19.35 33.5 19.45 33.45 19.6 33.4 19.7 33.35 19.85 33.3 20.0 33.2 20.1 33.1 20.3 33.0 20.45 32.9 20.65 32.75 20.8 32.65 20.95 32.5 21.1 32.4 21.2 32.3 21.3 32.2 21.4 32.1 21.5 32.0 21.6 31.9 21.65 31.85 21.7 31.75 21.8 31.65 21.85 31.65 21.85 31.5 22.0 31.35 22.15 31.2 22.4 31.1 22.65 31.0 22.95 30.95 23.35 30.85 23.75 30.85 24.25 30.8 24.75 30.85 25.4 30.9 26.05 30.95 26.8 31.05 27.65 31.25 28.6 31.4 29.55 31.65 30.65 31.55 31.1 31.45 31.5 31.3 32.1 31.2 32.7 31.05 33.5 30.95 34.3 30.85 35.25 30.85 36.15 30.85 37.2 30.95 38.25 31.05 39.4 31.3 40.5 31.55 41.7 31.95 42.9 32.4 44.15 33.05 45.3 33.35 45.9 33.7 46.45 34.05 47.0 34.4 47.5 34.75 47.95 35.15 48.4 35.5 48.85 35.9 49.25 36.25 49.6 36.6 49.95 36.95 50.3 37.35 50.6 37.65 50.9 38.0 51.15 38.3 51.4 38.6 51.6 38.6 51.8 38.6 51.95 38.6 52.15 38.6 52.35 38.55 52.55 38.55 52.75 38.5 52.95 38.45 53.15 38.4 53.4 38.35 53.55 38.25 53.75 38.15 53.95 38.05 54.15 37.95 54.3 37.8 54.45 37.65 54.55 37.35 54.8 37.0 54.85 36.65 54.95 36.25 54.95 35.9 54.9 35.45 54.8 35.15 54.75 34.6 54.6 34.0 54.4 33.75 54.35 33.2 54.2 32.8 54.15 32.3 54.1 31.9 54.1 31.4 54.15 30.95 54.3 30.6 54.4 30.25 54.65 29.9 54.85 29.6 55.15 29.3 55.4 29.05 55.8 28.8 56.15 28.55 56.6 28.3 57.0 28.05 57.5 27.85 57.9 27.6 58.5 27.45 58.95 27.15 59.55 28.25 56.85 26.7 60.7 26.2 61.9 25.85 63.1 24.65 63.2 23.5 63.4 22.45 63.6 21.35 63.8 20.35 64.05 19.35 64.3 18.45 64.55 17.55 64.85 16.7 65.15 15.85 65.45 15.1 65.75 14.4 66.05 13.7 66.35 13.05 66.65 12.45 66.95 11.9 67.25 11.2 67.6 10.85 67.8 10.25 68.1 9.85 68.35 9.35 68.65 8.95 68.9 8.5 69.15 8.15 69.45 7.75 69.75 7.4 70.0 7.05 70.35 6.75 70.65 6.45 71.0 6.15 71.35 5.85 71.75 5.6 72.15 5.15 72.9 4.85 73.75 4.6 74.55 4.4 75.45 4.25 76.3 4.2 77.2 4.2 78.1 4.3 79.05 4.35 79.95 4.6 80.85 4.8 81.75 5.1 82.6 5.45 83.45 5.9 84.25 6.3 85.0 6.85 85.7 7.4 86.45 8.1 87.1 8.75 87.7 9.55 88.2 10.25 88.7 11.1 89.1 11.9 89.45 12.85 89.75 13.7 90.05 14.7 90.3 15.6 90.55 16.7 90.75 17.6 90.9 18.8 91.1 19.5 91.2 21.0 91.4 26.3 92.2 31.65 91.6 31.4 91.75 31.2 91.95 30.95 92.15 30.75 92.35 30.45 92.55 30.25 92.75 29.95 93.0 29.7 93.25 29.45 93.5 29.15 93.75 28.9 94.05 28.6 94.35 28.35 94.65 28.05 94.95 27.8 95.3 27.55 95.65 27.25 96.05 26.9 96.45 26.4 97.15 25.95 97.95 25.3 98.9 24.75 99.95 24.1 101.15 23.65 102.4 23.1 103.8 22.75 105.2 22.35 106.8 22.3 108.3 22.2 109.95 22.45 111.55 22.75 113.25 23.5 114.85 24.2 116.4 25.2 117.7 26.15 118.9 27.4 119.9 28.5 120.8 29.8 121.55 31.0 122.2 32.3 122.75 33.45 123.2 34.65 123.55 35.7 123.8 36.7 124.0 37.5 124.15 38.2 124.25 38.65 124.3 39.0 124.3 39.9 124.35 40.8 124.35 41.6 124.35 42.45 124.25 43.25 124.15 44.0 124.0 44.7 123.9 45.4 123.7 46.05 123.5 46.7 123.3 47.25 123.1 47.85 122.9 48.3 122.7 48.8 122.5 49.2 122.3 49.6 122.1 L44.9 118.25 Q45.15 118.25 45.4 118.25 45.7 118.25 46.0 118.25 46.3 118.2 46.6 118.15 46.95 118.15 47.3 118.05 47.65 118.0 48.0 117.9 48.4 117.8 48.75 117.65 49.15 117.55 49.55 117.35 49.95 117.2 50.3 116.95 50.75 116.7 51.2 116.35 51.6 116.1 52.0 115.75 52.35 115.4 52.7 115.1 53.0 114.75 53.25 114.45 53.5 114.15 53.7 113.85 53.85 113.55 54.0 113.35 54.1 113.1 54.1 112.95 54.15 112.8 54.1 112.75 54.05 112.7 53.9 112.7 53.8 112.75 53.6 112.85 53.5 112.95 53.15 113.15 52.8 113.4 52.6 113.5 52.25 113.75 51.9 113.9 51.5 114.1 51.1 114.3 50.65 114.5 50.2 114.6 49.65 114.75 49.1 114.85 48.7 114.9 48.25 114.95 47.8 114.95 47.35 114.95 46.85 114.9 46.35 114.85 45.85 114.75 45.4 114.65 44.9 114.5 44.45 114.3 43.95 114.1 43.55 113.85 43.15 113.6 42.8 113.25 42.45 112.9 42.25 112.45 41.95 111.9 41.8 111.3 41.7 110.7 41.75 110.05 41.8 109.45 42.0 108.85 42.15 108.3 42.4 107.7 42.6 107.2 42.9 106.7 43.15 106.25 43.4 105.85 43.6 105.5 43.85 105.25 43.95 105.05 44.05 104.9 44.4 104.45 44.85 104.05 45.25 103.65 45.7 103.35 46.1 103.0 46.55 102.7 47.0 102.4 47.5 102.15 47.95 101.9 48.5 101.7 48.95 101.5 49.5 101.25 49.95 101.1 50.5 100.9 50.85 100.75 51.5 100.5 52.25 100.25 53.05 100.0 53.65 99.8 54.4 99.65 54.75 99.55 55.55 99.35 56.25 99.2 56.6 99.1 57.1 98.95 57.4 98.85 57.8 98.7 58.1 98.5 58.4 98.35 58.6 98.1 58.8 97.9 58.95 97.55 59.05 97.3 59.1 97.0 59.15 96.7 59.15 96.4 59.1 96.1 59.05 95.8 59.0 95.55 58.9 95.25 58.8 95.0 58.65 94.75 58.55 94.5 58.45 94.3 58.35 94.1 58.2 93.9 58.15 93.8 58.05 93.6 57.6 92.95 57.05 92.35 57.5 92.3 57.5 92.3 57.9 92.2 58.25 92.15 58.75 92.05 59.15 91.95 59.7 91.8 60.15 91.65 60.7 91.45 61.15 91.25 61.65 91.05 62.0 90.75 62.4 90.5 62.7 90.15 62.95 89.8 63.05 89.4 63.1 89.25 63.1 89.1 63.1 88.95 63.1 88.8 63.1 88.7 63.1 88.5 63.0 87.9 63.05 88.2 63.0 88.05 63.0 87.9 63.0 87.75 63.0 87.6 63.0 87.4 63.05 87.2 63.1 87.0 63.2 86.8 63.3 86.6 63.4 86.4 63.5 86.2 63.6 86.05 63.75 85.95 63.85 85.8 64.0 85.7 64.15 85.55 78.25 73.75 64.45 85.3 64.65 85.15 64.75 85.05 64.95 84.85 65.05 84.7 65.25 84.5 65.4 84.3 65.4 84.3 65.45 84.25 65.5 84.15 65.55 84.05 65.6 83.9 65.7 83.75 65.8 83.55 65.85 83.3 65.95 83.05 66.05 82.8 66.1 82.5 66.15 82.25 66.2 81.9 66.25 81.55 66.25 81.2 66.2 80.85 66.2 80.55 66.1 80.3 66.05 80.0 65.9 79.7 65.75 79.4 65.5 79.1 65.3 78.75 64.95 78.4 64.6 78.05 64.15 77.6 63.65 77.2 63.05 76.7 62.45 76.2 61.65 75.6 60.85 75.05 59.9 74.3 56.25 71.75 53.9 70.3 55.95 69.85 57.95 69.25 58.65 69.05 59.1 68.95 59.65 68.75 60.05 68.65 60.55 68.5 60.95 68.35 61.35 68.25 61.7 68.1 62.05 67.95 62.35 67.85 62.65 67.7 62.9 67.55 63.2 67.4 63.4 67.25 63.65 67.05 63.85 66.9 64.0 66.75 64.1 66.65 64.25 66.45 64.4 66.25 64.6 66.0 64.75 65.75 64.95 65.45 65.1 65.1 65.3 64.75 65.45 64.3 65.6 63.85 65.7 63.35 65.8 62.8 65.9 62.2 65.95 61.6 65.95 60.9 66.25 61.0 66.5 61.0 66.8 61.05 67.1 61.0 67.35 61.0 67.65 60.95 67.9 60.85 68.15 60.75 68.4 60.65 68.65 60.5 68.9 60.4 69.1 60.2 69.3 60.0 69.5 59.8 69.65 59.6 69.8 59.35 69.95 59.1 70.05 58.8 70.15 58.55 70.2 58.25 70.25 57.95 70.25 57.65 70.25 57.35 70.2 57.05 70.15 56.8 70.05 56.5 69.95 56.2 69.8 55.95 69.7 55.7 69.5 55.45 69.3 55.25 69.05 55.0 69.15 54.9 69.3 54.8 69.45 54.65 69.55 54.5 69.7 54.35 69.8 54.2 69.95 54.05 70.1 53.85 70.2 53.65 70.3 53.45 70.45 53.25 70.55 53.0 70.65 52.75 70.7 52.5 70.75 52.25 70.8 52.0 70.8 51.85 70.85 51.7 70.85 51.5 70.85 51.35 70.8 51.1 70.75 50.85 70.7 50.6 70.65 50.3 70.55 50.0 70.4 49.65 70.2 49.25 70.0 48.85 69.75 48.45 69.45 47.95 69.1 47.45 68.7 46.95 68.35 46.5 68.0 46.05 67.65 45.65 67.3 45.3 66.95 44.95 66.6 44.6 66.25 44.3 65.9 44.0 65.6 43.75 65.15 43.4 48.65 29.75 64.4 42.75 63.9 42.35 63.55 42.05 63.05 41.65 62.65 41.25 62.4 41.05 62.15 40.8 61.9 40.55 61.65 40.3 61.35 40.05 61.05 39.75 60.75 39.45 60.45 39.15 60.15 38.85 59.85 38.5 59.55 38.15 59.2 37.8 58.85 37.4 58.55 37.0 58.2 36.6 57.85 36.2 58.55 36.15 59.25 36.05 60.1 35.9 60.95 35.75 61.95 35.55 62.9 35.3 64.0 35.05 65.1 34.7 66.3 34.3 67.45 33.85 68.7 33.35 69.9 32.75 71.2 32.1 72.45 31.3 73.8 30.5 75.05 29.55 75.05 29.55 75.45 29.25 76.0 28.8 76.6 28.25 77.4 27.55 78.25 26.7 79.25 25.65 80.2 24.55 81.35 23.25 82.35 21.9 83.45 20.3 84.4 18.7 85.45 16.9 86.25 15.0 87.1 13.0 87.65 10.9 87.75 10.4 87.85 10.05 88.0 9.45 88.1 8.85 88.25 8.05 88.35 7.3 88.5 6.4 88.6 5.5 88.7 4.45 88.7 3.45 88.75 2.3 88.7 1.2 88.65 -0.05 88.5 -1.25 88.35 -2.55 88.1 -3.8 87.95 -4.45 87.75 -5.2 87.6 -5.85 87.35 -6.55 87.2 -7.2 86.95 -7.9 86.75 -8.5 86.55 -9.1 86.35 -9.65 86.15 -10.2 85.95 -10.65 85.8 -11.1 85.65 -11.45 85.5 -11.8 85.45 -12.0 85.35 -12.25 85.1 -12.8 84.9 -13.3 84.7 -13.7 84.5 -14.15 84.35 -14.45 84.15 -14.8 84.05 -15.05 83.85 -15.4 83.7 -15.8 83.6 -15.95 83.45 -16.25 83.3 -16.55 83.15 -16.85 83.0 -17.2 82.85 -17.55 82.7 -17.95 82.6 -18.2 82.5 -18.5 82.35 -18.9 82.2 -19.35 82.0 -19.9 81.85 -20.45 81.65 -21.1 81.5 -21.75 81.3 -22.55 81.15 -23.3 80.95 -24.15 80.85 -24.95 80.7 -25.85 80.65 -26.75 80.55 -27.7 80.55 -28.6 80.55 -29.45 80.6 -30.2 80.65 -30.9 80.8 -31.55 80.9 -32.15 81.05 -32.8 81.2 -33.35 81.45 -34.05 81.6 -34.45 81.9 -35.35 82.25 -36.35 82.4 -36.85 82.7 -37.8 83.0 -38.65 83.3 -39.7 83.6 -40.8 84.4 -43.85 85.6 -54.25 86.1 -58.5 86.4 -62.1 89.9 -106.15 86.8 -67.65 87.05 -70.9 87.55 -74.65 87.75 -76.4 87.9 -77.25 88.05 -78.6 88.15 -79.55 88.35 -80.7 88.45 -81.6 88.6 -82.55 88.75 -83.35 88.9 -84.25 89.05 -84.95 89.2 -85.7 89.35 -86.4 89.5 -87.05 89.7 -87.7 89.9 -88.3 90.1 -88.9 90.6 -90.3 91.3 -91.75 91.9 -93.05 92.6 -94.4 93.25 -95.65 94.0 -96.9 94.65 -98.0 95.35 -99.1 96.0 -100.05 96.65 -100.95 97.15 -101.7 97.7 -102.45 98.1 -103.0 98.5 -103.5 98.75 -103.8 98.95 -104.05 99.25 -104.45 99.75 -105.0 101.35 -107.0 100.5 -105.95 101.0 -106.55 101.3 -106.95 101.75 -107.5 102.15 -108.0 102.55 -108.55 102.9 -109.1 103.35 -109.7 103.7 -110.3 104.1 -110.95 104.45 -111.6 104.85 -112.3 105.2 -113.05 105.4 -113.45 105.55 -113.8 105.7 -114.25 105.85 -114.65 106.05 -115.1 106.15 -115.55 106.3 -116.05 106.45 -116.5 106.55 -117.05 106.65 -117.55 106.7 -118.1 106.75 -118.6 106.8 -119.2 106.8 -119.75 106.8 -120.35 106.75 -120.95 L106.75 -120.95 M26.6 86.8 Q26.1 86.8 25.7 86.75 25.15 86.75 24.7 86.7 24.1 86.65 23.6 86.6 22.95 86.55 22.4 86.45 21.75 86.4 21.15 86.25 20.45 86.15 19.85 86.0 19.15 85.85 18.5 85.65 17.8 85.4 17.15 85.15 16.55 84.9 16.1 84.75 15.45 84.5 14.85 84.25 14.15 83.9 13.5 83.6 12.75 83.2 12.15 82.8 11.45 82.35 10.85 81.9 10.25 81.4 9.8 80.85 9.3 80.25 9.0 79.65 8.7 79.0 8.65 78.3 8.6 77.8 8.65 77.3 8.75 76.8 8.9 76.35 9.1 75.9 9.35 75.45 9.55 75.0 9.85 74.6 10.15 74.2 10.5 73.85 10.8 73.5 11.15 73.15 11.4 72.85 11.75 72.55 11.95 72.4 12.3 72.05 13.25 71.2 14.35 70.55 15.35 69.9 16.45 69.45 17.5 69.0 18.6 68.7 19.6 68.4 20.7 68.2 21.65 68.05 22.65 67.95 23.55 67.9 24.45 67.85 25.15 67.85 25.9 67.9 26.5 67.95 27.05 68.0 26.65 68.9 26.4 69.7 26.15 70.5 25.95 71.25 25.8 71.95 25.7 72.6 25.6 73.2 25.6 73.8 25.6 74.3 25.65 74.8 25.75 75.25 25.85 75.7 25.95 76.1 26.1 76.45 26.25 76.8 26.4 77.1 26.6 77.4 26.9 77.75 27.1 78.0 27.45 78.3 27.7 78.5 28.1 78.85 28.6 79.2 28.7 79.35 29.05 79.65 29.3 79.9 29.6 80.15 29.8 80.45 30.0 80.75 30.1 81.05 30.2 81.4 30.2 81.75 30.2 81.85 30.2 82.0 30.15 82.1 30.15 82.2 30.1 82.3 30.1 82.4 30.1 82.4 30.0 82.6 30.0 82.75 29.95 82.85 29.9 82.95 29.9 83.05 29.85 83.2 29.85 83.35 29.85 83.5 29.8 83.7 29.8 83.95 29.8 84.2 29.85 84.4 29.85 84.65 29.9 84.85 29.95 85.1 30.0 85.3 30.05 85.5 30.1 85.7 30.2 85.85 30.25 86.05 30.35 86.2 30.4 86.4 30.5 86.55 30.55 86.7 30.65 86.8 29.3 86.95 26.6 86.8 L26.6 86.8 M78.15 13.4 Q78.1 13.75 78.0 14.1 77.9 14.4 77.75 14.7 77.7 14.9 77.55 15.2 77.5 15.3 77.3 15.7 77.15 16.0 77.05 16.2 76.9 16.5 76.8 16.8 76.65 17.15 76.55 17.5 76.45 17.9 76.4 18.35 76.05 20.0 75.95 20.2 75.7 20.8 74.3 22.4 73.45 23.35 73.0 23.95 72.75 24.2 72.65 24.35 72.55 24.4 72.5 24.45 72.45 24.55 72.35 24.6 72.25 24.65 72.1 24.75 72.0 24.85 71.8 24.95 71.65 25.05 71.4 25.2 71.2 25.3 70.9 25.45 70.65 25.65 70.3 25.8 69.95 26.0 69.5 26.15 69.35 26.25 69.15 26.3 69.0 26.4 68.8 26.5 68.6 26.6 68.4 26.7 68.15 26.8 67.95 26.9 67.7 27.0 67.45 27.1 67.15 27.25 66.9 27.35 66.6 27.45 66.3 27.6 66.0 27.7 65.65 27.85 65.45 27.9 65.25 28.0 65.0 28.05 64.8 28.15 64.55 28.2 64.35 28.3 64.1 28.4 63.85 28.45 63.6 28.55 63.35 28.6 63.05 28.7 62.8 28.8 62.5 28.85 62.2 28.95 61.9 29.05 61.6 29.1 L58.5 28.85 Q58.7 28.65 58.85 28.45 59.05 28.25 59.2 28.05 59.4 27.9 59.55 27.75 59.7 27.6 59.9 27.45 60.05 27.3 60.2 27.15 60.35 27.05 60.5 26.9 60.65 26.8 60.8 26.7 60.9 26.6 61.05 26.55 61.2 26.45 61.3 26.35 61.45 26.25 61.6 26.15 61.7 26.1 61.95 25.95 62.15 25.85 62.25 25.75 62.45 25.6 62.6 25.5 62.8 25.35 63.0 25.25 63.2 25.1 63.45 24.9 63.65 24.75 63.9 24.55 64.3 24.25 64.65 23.95 64.65 23.95 64.65 23.95 64.65 23.95 64.7 23.95 64.75 23.8 64.9 23.55 65.0 23.35 65.2 23.05 65.4 22.8 65.65 22.5 65.9 22.2 66.2 21.9 66.4 21.65 66.65 21.4 66.9 21.2 67.1 20.95 67.25 20.8 67.4 20.65 67.45 20.6 67.5 20.55 67.65 20.4 67.8 20.25 67.9 20.1 68.05 19.95 68.15 19.8 68.25 19.65 68.4 19.45 68.5 19.25 68.6 19.1 68.75 18.85 68.85 18.65 68.95 18.4 69.1 18.15 69.25 17.85 69.35 17.65 69.5 17.25 69.65 17.0 69.75 16.75 69.85 16.55 69.95 16.3 70.0 16.1 70.1 15.9 70.15 15.7 70.25 15.45 70.3 15.25 70.4 15.0 70.7 14.1 70.55 14.5 70.65 14.15 70.75 13.9 70.85 13.55 71.0 13.2 71.15 12.7 71.3 12.3 71.45 11.95 71.6 11.65 71.7 11.35 71.8 11.1 71.9 10.95 72.0 10.7 72.15 10.35 72.2 10.3 72.3 10.1 72.35 9.95 72.45 9.7 72.55 9.45 72.65 9.2 72.75 8.9 73.0 8.15 73.2 7.3 73.4 6.55 73.55 5.75 73.7 5.1 73.85 4.25 73.4 6.9 74.05 2.95 74.2 2.25 74.25 1.85 74.4 1.3 74.5 0.95 74.65 0.55 74.8 0.35 74.95 0.15 75.15 0.1 75.2 0.05 75.2 0.05 75.3 0.05 75.4 0.1 75.5 0.15 75.6 0.3 75.7 0.45 75.85 0.65 75.95 0.8 76.05 1.1 76.15 1.35 76.3 1.7 76.4 1.9 76.6 2.4 76.8 2.95 76.95 3.25 77.2 3.75 77.4 4.25 77.6 4.75 77.65 4.85 77.7 5.05 77.75 5.25 77.8 5.45 77.8 5.65 77.8 5.8 77.8 6.0 77.8 6.15 77.8 6.35 77.8 6.5 77.8 6.7 77.75 6.8 77.75 7.0 77.7 7.25 77.7 7.35 77.65 7.5 77.65 7.65 77.65 7.8 77.65 7.9 77.65 8.05 77.65 8.2 77.65 8.35 77.65 8.5 77.65 8.65 77.7 8.8 77.7 9.0 77.75 9.15 77.75 9.35 77.8 9.55 77.85 9.75 77.95 9.95 78.0 10.15 78.05 10.35 78.1 10.6 78.15 10.85 78.15 11.05 78.2 11.3 78.2 11.5 78.25 11.75 78.25 11.95 78.25 12.1 78.25 12.3 78.25 12.5 78.2 12.65 78.2 12.85 78.2 13.0 78.15 13.15 78.15 13.25 78.15 13.4 L78.15 13.4" fill="url(#gradient0)" fill-rule="evenodd" stroke="none"/>
    <path d="M176.2 -112.75 Q176.55 -112.0 176.95 -111.3 177.3 -110.65 177.7 -110.0 178.05 -109.4 178.45 -108.8 178.85 -108.25 179.25 -107.7 179.65 -107.2 180.05 -106.65 180.4 -106.2 180.85 -105.65 180.65 -105.95 181.65 -104.7 182.15 -104.15 182.45 -103.75 182.65 -103.45 182.9 -103.2 183.25 -102.7 183.7 -102.15 184.2 -101.4 184.75 -100.65 185.4 -99.7 186.0 -98.75 186.7 -97.65 187.4 -96.55 188.1 -95.3 188.75 -94.1 189.5 -92.75 190.1 -91.4 190.75 -89.95 191.3 -88.55 191.5 -87.95 191.7 -87.35 191.9 -86.75 192.05 -86.05 192.2 -85.4 192.35 -84.65 192.5 -83.9 192.65 -83.05 192.8 -82.25 192.95 -81.25 193.05 -80.4 193.2 -79.25 193.35 -78.3 193.5 -76.95 193.6 -76.15 193.85 -74.35 194.3 -70.6 194.6 -67.35 191.95 -100.25 195.0 -61.75 195.25 -58.2 195.8 -53.95 197.0 -43.65 197.8 -40.5 198.1 -39.4 198.4 -38.35 198.65 -37.45 199.0 -36.55 199.15 -36.05 199.5 -35.05 199.8 -34.15 199.95 -33.75 200.15 -33.05 200.3 -32.5 200.5 -31.85 200.6 -31.25 200.7 -30.55 200.8 -29.85 200.85 -29.15 200.85 -28.3 200.85 -27.4 200.75 -26.45 200.7 -25.55 200.55 -24.65 200.45 -23.8 200.25 -23.0 200.1 -22.2 199.9 -21.45 199.75 -20.8 199.55 -20.15 199.35 -19.6 199.2 -19.05 199.05 -18.6 198.9 -18.2 198.8 -17.9 198.7 -17.65 198.55 -17.25 198.4 -16.85 198.25 -16.55 198.1 -16.2 197.95 -15.95 197.8 -15.65 197.7 -15.5 197.5 -15.1 197.35 -14.75 197.2 -14.5 197.05 -14.15 196.9 -13.8 196.7 -13.4 196.5 -13.0 196.3 -12.5 196.05 -11.95 196.2 -12.3 195.85 -11.5 195.75 -11.15 195.6 -10.8 195.4 -10.35 195.25 -9.9 195.05 -9.35 194.85 -8.8 194.65 -8.2 194.45 -7.6 194.2 -6.9 194.0 -6.25 193.8 -5.55 193.65 -4.85 193.45 -4.15 193.3 -3.5 193.05 -2.25 192.9 -0.95 192.75 0.25 192.7 1.5 192.65 2.6 192.65 3.75 192.7 4.75 192.8 5.8 192.9 6.7 193.0 7.6 193.15 8.4 193.3 9.15 193.4 9.75 193.55 10.35 193.65 10.75 193.75 11.25 194.3 13.3 195.15 15.35 195.95 17.2 196.95 19.0 197.9 20.65 199.05 22.2 200.05 23.55 201.15 24.9 202.1 26.0 203.15 27.0 203.95 27.85 204.8 28.6 205.4 29.1 205.95 29.55 206.15 29.7 206.35 29.9 207.6 30.85 208.95 31.65 210.15 32.4 211.5 33.05 212.7 33.65 213.95 34.15 215.1 34.6 216.3 35.0 217.4 35.35 218.5 35.6 219.45 35.85 220.45 36.05 221.3 36.2 222.15 36.35 222.85 36.45 223.55 36.5 223.2 36.9 222.85 37.35 222.55 37.7 222.2 38.1 221.85 38.45 221.55 38.8 221.25 39.15 220.9 39.45 220.6 39.75 220.3 40.05 220.05 40.35 219.75 40.6 219.5 40.85 219.25 41.1 219.0 41.35 218.75 41.55 218.3 41.95 217.85 42.35 217.45 42.65 217.0 43.05 218.75 41.6 216.25 43.7 215.8 44.05 215.5 44.3 215.1 44.65 214.8 44.9 214.45 45.25 214.1 45.6 213.75 45.95 213.4 46.35 213.05 46.8 212.7 47.25 212.3 47.8 211.95 48.3 211.65 48.75 211.4 49.2 211.2 49.6 211.0 49.95 210.85 50.3 210.75 50.6 210.65 50.9 210.6 51.2 210.55 51.4 210.55 51.65 210.55 51.85 210.55 52.0 210.55 52.15 210.55 52.3 210.6 52.55 210.65 52.85 210.75 53.1 210.85 53.3 210.95 53.55 211.05 53.75 211.15 53.95 211.3 54.15 211.4 54.35 211.55 54.55 211.7 54.7 211.85 54.85 211.95 55.0 212.1 55.1 212.2 55.25 212.3 55.35 212.05 55.55 211.9 55.8 211.7 56.0 211.55 56.3 211.4 56.55 211.3 56.8 211.2 57.1 211.15 57.4 211.15 57.65 211.15 57.95 211.15 58.25 211.2 58.55 211.25 58.85 211.35 59.1 211.45 59.4 211.6 59.65 211.75 59.9 211.9 60.1 212.1 60.3 212.3 60.5 212.5 60.7 212.75 60.85 213.0 60.95 213.25 61.1 213.5 61.2 213.75 61.25 214.05 61.3 214.3 61.35 214.6 61.35 214.9 61.3 215.15 61.3 215.45 61.2 215.45 61.9 215.5 62.5 215.55 63.1 215.7 63.65 215.8 64.15 215.95 64.6 216.1 65.05 216.3 65.4 216.45 65.75 216.65 66.05 216.8 66.35 217.0 66.55 217.15 66.75 217.3 66.95 217.45 67.05 217.55 67.2 217.75 67.4 218.0 67.55 218.2 67.7 218.45 67.85 218.7 68.0 219.05 68.15 219.35 68.3 219.7 68.4 220.05 68.55 220.45 68.7 220.85 68.8 221.3 68.95 221.75 69.1 222.3 69.25 222.7 69.35 223.45 69.6 225.45 70.15 227.5 70.6 227.05 70.9 226.6 71.15 226.2 71.45 225.75 71.75 225.35 72.0 224.95 72.25 224.55 72.5 224.15 72.8 223.8 73.05 223.45 73.3 223.1 73.5 222.75 73.75 222.45 74.0 222.1 74.2 221.8 74.4 221.5 74.65 220.5 75.35 219.75 75.95 218.95 76.5 218.35 77.0 217.7 77.5 217.25 77.95 216.8 78.35 216.45 78.7 216.1 79.1 215.85 79.4 215.65 79.7 215.5 80.0 215.35 80.3 215.25 80.6 215.2 80.85 215.15 81.15 215.1 81.5 215.15 81.85 215.15 82.2 215.2 82.55 215.25 82.85 215.35 83.15 215.45 83.4 215.5 83.65 215.6 83.85 215.7 84.05 215.75 84.2 215.85 84.35 215.9 84.45 215.95 84.55 216.0 84.6 216.0 84.6 216.15 84.8 216.3 85.0 216.45 85.15 216.6 85.35 216.75 85.45 216.95 85.6 215.25 84.2 217.25 85.85 217.4 86.0 217.5 86.1 217.65 86.25 217.8 86.4 217.9 86.55 218.0 86.7 218.1 86.9 218.2 87.15 218.3 87.35 218.3 87.55 218.35 87.7 218.35 87.9 218.4 88.05 218.35 88.25 218.35 88.35 218.35 88.55 218.35 88.35 218.3 88.85 218.3 89.0 218.3 89.1 218.25 89.25 218.3 89.4 218.3 89.55 218.3 89.7 218.4 90.1 218.7 90.45 218.95 90.8 219.35 91.1 219.75 91.35 220.25 91.55 220.7 91.8 221.25 91.95 221.7 92.1 222.2 92.25 222.65 92.35 223.15 92.45 223.5 92.5 223.9 92.6 224.1 92.6 224.35 92.65 224.3 92.7 224.2 92.8 224.15 92.9 224.1 92.95 224.0 93.05 223.95 93.1 223.9 93.2 223.8 93.25 223.75 93.35 223.7 93.45 223.65 93.5 223.6 93.6 223.5 93.7 223.45 93.75 223.4 93.85 223.35 93.95 223.25 94.1 223.15 94.2 223.05 94.4 222.95 94.6 222.85 94.85 222.7 95.05 222.6 95.3 222.5 95.55 222.4 95.85 222.35 96.15 222.25 96.45 222.25 96.7 222.2 97.05 222.25 97.3 222.3 97.6 222.45 97.9 222.6 98.2 222.8 98.45 223.0 98.65 223.3 98.85 223.6 99.0 223.95 99.15 224.3 99.25 224.8 99.4 225.15 99.5 225.8 99.65 226.6 99.85 227.0 99.95 227.7 100.15 228.35 100.3 229.1 100.55 229.85 100.85 230.5 101.05 230.85 101.2 231.45 101.4 231.9 101.6 232.45 101.8 232.9 102.0 233.4 102.25 233.85 102.5 234.35 102.75 234.8 103.0 235.3 103.3 235.7 103.65 236.15 104.0 236.55 104.4 236.95 104.8 237.3 105.25 237.4 105.35 237.55 105.55 237.75 105.85 237.95 106.15 238.25 106.55 238.5 107.0 238.75 107.5 239.0 108.0 239.25 108.6 239.4 109.15 239.6 109.8 239.65 110.35 239.7 111.0 239.6 111.6 239.45 112.25 239.15 112.75 238.9 113.2 238.55 113.55 238.25 113.9 237.8 114.15 237.4 114.4 236.95 114.65 236.5 114.8 236.0 114.95 235.55 115.1 235.0 115.15 234.55 115.2 234.05 115.25 233.55 115.25 233.1 115.25 232.65 115.2 232.25 115.15 231.7 115.1 231.2 114.95 230.75 114.8 230.25 114.6 229.85 114.45 229.45 114.2 229.15 114.05 228.75 113.8 228.55 113.7 228.2 113.45 227.9 113.25 227.8 113.2 227.6 113.05 227.5 113.05 227.35 113.0 227.3 113.05 227.25 113.1 227.25 113.25 227.3 113.45 227.4 113.65 227.5 113.9 227.7 114.15 227.9 114.45 228.15 114.75 228.4 115.1 228.7 115.4 229.0 115.75 229.4 116.05 229.75 116.4 230.15 116.7 230.6 117.0 231.05 117.3 231.45 117.5 231.85 117.7 232.2 117.85 232.6 118.0 233.0 118.1 233.35 118.2 233.7 118.3 234.1 118.4 234.45 118.45 234.75 118.5 235.1 118.55 235.4 118.55 235.7 118.55 236.0 118.55 236.25 118.55 236.5 118.55 L231.8 122.4 Q232.2 122.6 232.6 122.8 233.05 123.0 233.55 123.2 234.1 123.45 234.7 123.6 235.3 123.85 235.95 124.0 236.65 124.2 237.4 124.35 238.15 124.5 238.95 124.55 239.75 124.65 240.6 124.65 241.5 124.7 242.35 124.65 242.75 124.6 243.15 124.55 243.9 124.45 244.65 124.3 245.7 124.15 246.7 123.85 247.95 123.5 249.05 123.05 250.4 122.55 251.55 121.85 252.9 121.1 254.0 120.2 255.2 119.2 256.15 118.0 257.2 116.7 257.9 115.15 258.6 113.55 258.9 111.85 259.2 110.25 259.1 108.6 259.0 107.1 258.65 105.5 258.3 104.15 257.75 102.7 257.25 101.5 256.6 100.25 256.1 99.25 255.45 98.25 255.0 97.5 254.5 96.8 254.2 96.4 253.85 95.95 253.6 95.6 253.3 95.3 253.05 94.95 252.75 94.65 252.5 94.35 252.2 94.1 251.95 93.8 251.7 93.55 251.4 93.3 251.15 93.1 250.9 92.85 250.65 92.65 250.4 92.45 250.15 92.25 249.95 92.1 249.75 91.9 250.25 91.95 250.75 92.0 251.25 92.05 251.8 92.1 252.4 92.1 253.0 92.15 253.65 92.15 254.3 92.15 255.0 92.15 255.7 92.15 256.45 92.1 257.2 92.05 257.95 92.0 258.75 91.95 259.55 91.85 260.4 91.75 261.9 91.5 262.6 91.4 263.8 91.25 264.7 91.05 265.8 90.85 266.7 90.65 267.7 90.4 268.55 90.1 269.5 89.8 270.3 89.4 271.15 89.0 271.85 88.55 272.6 88.0 273.3 87.4 273.95 86.8 274.55 86.05 275.1 85.35 275.5 84.55 275.95 83.75 276.25 82.9 276.6 82.05 276.8 81.15 277.0 80.25 277.1 79.35 277.2 78.45 277.15 77.55 277.1 76.65 276.95 75.75 276.8 74.85 276.5 74.05 276.2 73.2 275.75 72.5 275.5 72.05 275.2 71.7 274.95 71.3 274.65 70.95 274.35 70.65 273.95 70.35 273.65 70.05 273.25 69.75 272.85 69.5 272.45 69.2 272.05 68.95 271.55 68.65 271.1 68.45 270.55 68.15 270.2 67.95 269.5 67.55 268.9 67.25 268.35 66.95 267.7 66.65 267.0 66.35 266.3 66.05 265.5 65.75 264.7 65.45 263.85 65.2 262.95 64.9 262.0 64.65 261.05 64.35 260.0 64.15 258.95 63.9 257.85 63.75 256.7 63.55 255.5 63.45 255.15 62.2 254.7 61.05 217.75 -29.4 254.25 59.9 253.95 59.25 253.8 58.8 253.55 58.25 253.3 57.8 253.1 57.3 252.85 56.9 252.6 56.45 252.35 56.1 252.05 55.75 251.8 55.45 251.5 55.15 251.15 54.95 250.85 54.75 250.45 54.6 250.0 54.45 249.5 54.4 249.05 54.4 248.55 54.45 248.15 54.5 247.65 54.65 247.4 54.7 246.75 54.9 246.2 55.05 245.9 55.1 245.45 55.25 245.15 55.25 244.75 55.3 244.4 55.2 244.05 55.1 243.75 54.9 243.6 54.75 243.45 54.6 243.3 54.45 243.2 54.25 243.1 54.1 243.05 53.9 242.95 53.7 242.9 53.5 242.85 53.3 242.85 53.1 242.8 52.9 242.8 52.65 242.8 52.5 242.8 52.3 242.75 52.1 242.8 51.9 243.1 51.7 243.4 51.45 243.75 51.2 244.05 50.9 244.4 50.6 244.75 50.3 245.15 49.95 245.5 49.55 245.9 49.15 246.25 48.75 246.6 48.3 246.95 47.8 247.35 47.3 247.7 46.75 248.05 46.2 248.35 45.6 249.0 44.45 249.45 43.2 249.85 42.0 250.1 40.8 250.35 39.7 250.45 38.55 250.55 37.5 250.5 36.45 250.5 35.55 250.4 34.6 250.35 33.8 250.2 33.05 250.1 32.4 249.95 31.8 249.85 31.4 249.7 31.0 249.95 29.9 250.15 28.9 250.3 27.95 250.4 27.15 250.5 26.35 250.55 25.7 250.55 25.05 250.55 24.55 250.5 24.05 250.45 23.65 250.4 23.25 250.25 22.95 250.15 22.7 250.0 22.5 249.9 22.3 249.7 22.15 249.7 22.15 249.6 22.1 249.55 22.0 249.45 21.95 249.4 21.9 249.3 21.8 249.2 21.75 249.1 21.65 248.95 21.5 248.85 21.4 248.75 21.25 248.6 21.1 248.5 20.95 248.4 20.8 248.25 20.6 248.15 20.4 248.1 20.25 248.0 20.15 247.95 20.0 247.9 19.9 247.85 19.8 247.8 19.65 247.8 19.55 247.75 19.45 247.7 19.35 247.7 19.25 247.65 19.15 247.65 19.1 247.65 19.0 247.6 18.95 247.6 18.9 247.6 18.85 247.5 18.15 247.4 17.5 247.3 16.85 247.15 16.2 247.0 15.6 246.85 15.05 246.7 14.5 246.5 14.0 246.35 13.5 246.15 13.05 246.0 12.6 245.8 12.2 245.6 11.8 245.4 11.45 245.25 11.1 245.05 10.75 244.7 10.2 240.35 4.7 239.65 3.8 239.45 3.6 239.0 3.05 238.75 2.65 238.35 2.2 238.1 1.85 237.8 1.45 237.6 1.1 237.35 0.75 237.15 0.45 236.95 0.15 236.8 -0.2 236.6 -0.5 236.45 -0.8 236.3 -1.15 236.15 -1.5 236.0 -1.9 235.85 -2.25 235.75 -2.6 235.65 -3.0 235.55 -3.3 235.5 -3.65 235.4 -3.95 235.35 -4.3 235.3 -4.55 235.25 -4.85 235.25 -5.1 235.2 -5.35 235.15 -5.55 235.15 -5.8 225.1 -103.85 235.1 -6.15 235.0 -7.0 234.85 -7.85 234.75 -8.6 234.55 -9.45 234.35 -10.2 234.05 -11.05 233.8 -11.85 233.45 -12.8 233.15 -13.6 232.75 -14.75 232.55 -15.2 231.85 -17.05 231.25 -18.6 230.8 -19.75 230.2 -21.4 229.6 -22.95 228.65 -25.5 228.15 -27.1 261.8 77.4 227.05 -30.6 226.1 -33.55 224.45 -38.3 223.25 -41.75 221.95 -45.35 220.35 -49.9 220.3 -50.05 219.55 -52.15 219.05 -53.7 218.5 -55.5 217.95 -57.7 217.55 -59.15 217.15 -60.8 216.6 -63.0 216.5 -63.4 216.1 -65.0 215.55 -66.9 214.95 -69.0 214.35 -70.7 214.0 -71.8 213.45 -73.3 212.85 -75.0 212.6 -75.75 212.1 -77.2 211.6 -78.9 211.15 -80.35 210.85 -81.6 210.55 -82.7 210.3 -83.75 210.1 -84.55 209.95 -85.5 209.85 -86.0 209.65 -87.0 209.45 -87.95 209.35 -88.5 209.2 -89.3 209.0 -90.05 208.8 -90.9 208.5 -91.85 208.2 -92.9 207.8 -94.1 207.7 -94.35 207.6 -94.65 207.5 -95.05 207.35 -95.5 207.15 -96.0 206.95 -96.6 206.7 -97.25 206.4 -97.9 206.1 -98.65 205.8 -99.45 205.45 -100.3 205.05 -101.15 204.65 -102.1 204.2 -103.0 203.7 -104.05 203.2 -105.0 202.65 -106.1 202.3 -106.8 201.85 -107.7 201.45 -108.45 201.0 -109.25 200.6 -110.0 200.2 -110.75 199.75 -111.45 199.3 -112.15 198.85 -112.85 198.4 -113.55 197.9 -114.2 197.35 -114.9 196.8 -115.55 196.25 -116.2 195.6 -116.85 195.05 -117.45 194.75 -117.75 194.25 -118.25 193.85 -118.65 193.4 -119.1 192.95 -119.5 192.5 -119.9 192.0 -120.3 191.5 -120.7 191.0 -121.05 190.45 -121.4 189.9 -121.7 189.3 -122.05 188.65 -122.3 188.0 -122.6 187.35 -122.85 186.55 -123.1 185.75 -123.3 185.0 -123.45 184.2 -123.6 183.5 -123.7 182.75 -123.7 182.1 -123.75 181.45 -123.75 180.85 -123.75 180.25 -123.7 179.75 -123.65 179.25 -123.6 178.85 -123.55 178.45 -123.5 178.15 -123.45 177.85 -123.4 177.65 -123.35 177.4 -123.3 177.2 -123.25 177.0 -123.2 176.8 -123.15 176.6 -123.1 176.4 -123.05 176.25 -123.0 176.05 -122.95 175.9 -122.9 175.75 -122.85 175.55 -122.8 175.4 -122.75 175.25 -122.7 175.15 -122.65 175.0 -122.6 174.95 -122.5 174.95 -122.4 174.95 -122.3 174.9 -122.2 174.9 -122.1 174.85 -122.0 174.85 -121.85 174.8 -121.75 174.8 -121.6 174.75 -121.5 174.75 -121.35 174.7 -121.2 174.7 -121.1 174.7 -120.95 174.65 -120.8 174.65 -120.65 174.6 -120.05 174.6 -119.45 174.6 -118.9 174.6 -118.3 174.65 -117.8 174.75 -117.25 174.85 -116.7 174.95 -116.2 175.1 -115.75 175.25 -115.25 175.35 -114.8 175.55 -114.35 175.7 -113.95 175.85 -113.5 176.0 -113.15 176.2 -112.75 L176.2 -112.75 M250.75 87.15 Q250.85 87.0 250.9 86.85 251.0 86.7 251.05 86.55 251.15 86.35 251.2 86.2 251.25 86.0 251.3 85.8 251.4 85.6 251.45 85.4 251.5 85.15 251.5 84.95 251.55 84.7 251.55 84.5 251.55 84.25 251.55 84.0 251.55 83.8 251.55 83.65 251.5 83.5 251.5 83.4 251.45 83.25 251.45 83.15 251.4 83.05 251.35 82.9 251.3 82.65 251.3 82.7 251.3 82.6 251.25 82.55 251.25 82.4 251.2 82.3 251.2 82.2 251.2 82.1 251.2 81.75 251.3 81.4 251.4 81.05 251.6 80.75 251.8 80.5 252.1 80.2 252.3 79.95 252.65 79.65 252.8 79.55 253.3 79.15 253.7 78.8 253.9 78.6 254.25 78.3 254.5 78.05 254.8 77.7 254.95 77.4 255.15 77.1 255.25 76.75 255.45 76.4 255.55 76.0 255.65 75.6 255.7 75.1 255.75 74.65 255.75 74.1 255.75 73.5 255.7 72.9 255.6 72.25 255.4 71.55 255.25 70.8 255.0 70.0 254.7 69.2 254.3 68.3 254.9 68.25 255.45 68.2 256.2 68.2 256.95 68.2 257.85 68.2 258.7 68.25 259.7 68.35 260.7 68.5 261.75 68.7 262.75 69.0 263.9 69.3 264.9 69.75 266.05 70.25 267.05 70.85 268.15 71.55 269.1 72.4 269.45 72.7 269.65 72.9 270.0 73.2 270.25 73.45 270.6 73.8 270.9 74.15 271.25 74.55 271.5 74.9 271.8 75.3 272.05 75.75 272.3 76.2 272.45 76.65 272.65 77.1 272.7 77.6 272.8 78.1 272.75 78.6 272.7 79.3 272.35 79.95 272.1 80.55 271.6 81.15 271.15 81.7 270.5 82.2 269.95 82.7 269.25 83.15 268.65 83.55 267.9 83.9 267.25 84.25 266.55 84.55 265.95 84.8 265.3 85.1 264.9 85.25 264.25 85.5 263.6 85.75 262.9 85.95 262.25 86.15 261.55 86.3 260.9 86.45 260.25 86.6 259.65 86.7 259.0 86.8 258.4 86.85 257.8 86.9 257.25 87.0 256.7 87.0 256.2 87.05 255.7 87.1 255.35 87.1 254.8 87.15 252.75 87.25 251.7 87.2 254.25 87.3 250.75 87.15 L250.75 87.15 M203.3 10.7 Q203.4 10.5 203.45 10.25 203.5 10.05 203.55 9.85 203.6 9.65 203.65 9.5 203.65 9.3 203.7 9.1 203.7 8.95 203.75 8.8 203.75 8.65 203.75 8.5 203.75 8.35 203.75 8.2 203.75 8.1 203.7 7.95 203.7 7.8 203.65 7.65 203.65 7.55 203.65 7.3 203.6 7.1 203.6 7.0 203.6 6.8 203.55 6.65 203.55 6.5 203.55 6.3 203.55 6.15 203.6 5.95 203.6 5.75 203.65 5.55 203.7 5.35 203.75 5.15 203.8 5.05 204.0 4.55 204.2 4.1 204.4 3.55 204.55 3.25 204.75 2.7 205.0 2.2 205.05 2.0 205.2 1.65 205.35 1.4 205.45 1.15 205.55 0.95 205.65 0.75 205.75 0.65 205.85 0.5 205.95 0.45 206.05 0.35 206.15 0.4 206.2 0.4 206.25 0.4 206.45 0.45 206.6 0.65 206.75 0.9 206.9 1.25 207.0 1.6 207.1 2.15 207.2 2.55 207.35 3.25 207.75 5.6 207.55 4.6 207.7 5.4 207.8 6.05 208.0 6.85 208.15 7.6 208.4 8.45 208.65 9.2 208.75 9.5 208.85 9.8 208.95 10.0 209.05 10.25 209.1 10.4 209.2 10.6 209.25 10.7 209.4 11.0 209.5 11.25 209.55 11.4 209.7 11.7 209.8 11.95 209.9 12.25 210.05 12.65 210.2 13.05 210.4 13.5 210.5 13.85 210.65 14.2 210.7 14.45 210.85 14.8 210.8 14.7 211.0 15.3 211.1 15.6 211.15 15.75 211.2 16.0 211.3 16.2 211.35 16.4 211.45 16.6 211.55 16.85 211.65 17.05 211.75 17.3 211.85 17.55 212.05 17.95 212.15 18.15 212.3 18.45 212.4 18.7 212.55 18.95 212.65 19.15 212.75 19.4 212.9 19.55 213.0 19.75 213.1 19.95 213.25 20.1 213.35 20.3 213.45 20.45 213.6 20.6 213.75 20.75 213.9 20.9 213.9 20.9 214.0 21.0 214.15 21.15 214.3 21.3 214.5 21.5 214.7 21.7 215.0 22.0 215.2 22.25 215.5 22.55 215.7 22.8 216.0 23.1 216.15 23.35 216.4 23.65 216.5 23.85 216.65 24.1 216.7 24.25 216.7 24.25 216.7 24.25 216.7 24.25 216.7 24.25 217.1 24.55 217.5 24.9 217.75 25.1 217.95 25.25 218.15 25.4 218.4 25.55 218.55 25.7 218.75 25.8 218.95 25.95 219.15 26.05 219.25 26.15 219.45 26.25 220.95 27.2 219.75 26.45 219.95 26.6 220.05 26.65 220.2 26.75 220.35 26.85 220.5 26.95 220.6 27.05 220.75 27.15 220.9 27.25 221.05 27.35 221.2 27.45 221.35 27.6 221.5 27.75 221.65 27.9 221.85 28.05 222.0 28.2 222.2 28.35 222.35 28.55 222.55 28.75 222.7 28.95 222.9 29.15 L219.75 29.4 Q219.45 29.3 219.15 29.25 218.9 29.15 218.6 29.1 218.3 29.0 218.05 28.95 217.8 28.85 217.55 28.75 217.3 28.7 217.05 28.6 216.8 28.55 216.55 28.45 216.35 28.35 216.15 28.3 215.95 28.2 215.7 28.15 215.4 28.05 215.05 27.9 214.75 27.8 214.5 27.65 214.2 27.55 213.95 27.45 213.7 27.35 213.45 27.2 213.2 27.1 213.0 27.0 212.8 26.9 212.55 26.8 212.4 26.75 212.2 26.65 212.05 26.6 211.85 26.5 211.45 26.3 211.1 26.1 210.75 25.95 210.45 25.8 210.2 25.65 209.95 25.5 209.75 25.4 209.55 25.25 209.4 25.15 209.25 25.05 209.15 25.0 209.05 24.9 208.95 24.85 208.85 24.75 208.8 24.7 208.75 24.65 208.6 24.55 208.4 24.3 207.9 23.65 207.1 22.7 205.65 21.1 206.75 22.3 206.55 22.1 206.45 21.95 206.3 21.8 206.2 21.65 206.05 21.55 206.0 21.4 205.9 21.3 205.8 21.2 205.75 21.1 205.65 20.95 205.6 20.85 205.55 20.75 205.5 20.65 205.45 20.5 205.3 20.15 205.0 18.65 204.9 18.2 204.8 17.8 204.7 17.45 204.6 17.1 204.5 16.85 204.35 16.55 204.25 16.3 204.1 16.0 203.9 15.65 203.85 15.5 203.7 15.25 203.6 15.0 203.5 14.7 203.4 14.4 203.3 14.05 203.25 13.7 203.25 13.55 203.2 13.45 203.2 13.3 203.2 13.15 203.15 12.95 203.15 12.8 203.15 12.6 203.15 12.45 203.15 12.25 203.15 12.05 203.15 11.85 203.2 11.6 203.2 11.4 203.25 11.15 203.25 10.9 203.3 10.7 L203.3 10.7" fill="url(#gradient1)" fill-rule="evenodd" stroke="none"/>
    <path d="M67.7 23.8 L68.1 23.6 67.7 23.8 Q67.7 23.8 67.7 23.8 L67.7 23.8" fill="url(#gradient2)" fill-rule="evenodd" stroke="none"/>
    <path d="M71.45 19.3 L71.4 19.4 71.4 19.35 71.45 19.3 71.45 19.3" fill="url(#gradient3)" fill-rule="evenodd" stroke="none"/>
  </g>
  <defs>
    <linearGradient gradientTransform="matrix(0.0982, -0.0982, 0.0982, 0.0982, 69.15, 0.8)" gradientUnits="userSpaceOnUse" id="gradient0" spreadMethod="pad" x1="-819.2" x2="819.2">
      <stop offset="0.0" stop-color="#020202" stop-opacity="0.83137256"/>
      <stop offset="0.10196078431372549" stop-color="#141414" stop-opacity="0.7490196"/>
      <stop offset="0.3215686274509804" stop-color="#444444" stop-opacity="0.5647059"/>
      <stop offset="0.611764705882353" stop-color="#919191" stop-opacity="0.32156864"/>
      <stop offset="0.9803921568627451" stop-color="#fafafa" stop-opacity="0.015686275"/>
      <stop offset="1.0" stop-color="#ffffff" stop-opacity="0.0"/>
    </linearGradient>
    <linearGradient gradientTransform="matrix(0.062, -0.062, 0.062, 0.062, 212.0, 1.1)" gradientUnits="userSpaceOnUse" id="gradient1" spreadMethod="pad" x1="-819.2" x2="819.2">
      <stop offset="0.0" stop-color="#020202" stop-opacity="0.83137256"/>
      <stop offset="0.10196078431372549" stop-color="#141414" stop-opacity="0.7490196"/>
      <stop offset="0.3215686274509804" stop-color="#444444" stop-opacity="0.5647059"/>
      <stop offset="0.611764705882353" stop-color="#919191" stop-opacity="0.32156864"/>
      <stop offset="0.9803921568627451" stop-color="#fafafa" stop-opacity="0.015686275"/>
      <stop offset="1.0" stop-color="#ffffff" stop-opacity="0.0"/>
    </linearGradient>
    <linearGradient gradientTransform="matrix(2.0E-4, -2.0E-4, 2.0E-4, 2.0E-4, 67.8, 23.6)" gradientUnits="userSpaceOnUse" id="gradient2" spreadMethod="pad" x1="-819.2" x2="819.2">
      <stop offset="0.0" stop-color="#020202" stop-opacity="0.83137256"/>
      <stop offset="0.10196078431372549" stop-color="#141414" stop-opacity="0.7490196"/>
      <stop offset="0.3215686274509804" stop-color="#444444" stop-opacity="0.5647059"/>
      <stop offset="0.611764705882353" stop-color="#919191" stop-opacity="0.32156864"/>
      <stop offset="0.9803921568627451" stop-color="#fafafa" stop-opacity="0.015686275"/>
      <stop offset="1.0" stop-color="#ffffff" stop-opacity="0.0"/>
    </linearGradient>
    <linearGradient gradientTransform="matrix(0.0, 0.0, 0.0, 0.0, 71.35, 19.25)" gradientUnits="userSpaceOnUse" id="gradient3" spreadMethod="pad" x1="-819.2" x2="819.2">
      <stop offset="0.0" stop-color="#020202" stop-opacity="0.83137256"/>
      <stop offset="0.10196078431372549" stop-color="#141414" stop-opacity="0.7490196"/>
      <stop offset="0.3215686274509804" stop-color="#444444" stop-opacity="0.5647059"/>
      <stop offset="0.611764705882353" stop-color="#919191" stop-opacity="0.32156864"/>
      <stop offset="0.9803921568627451" stop-color="#fafafa" stop-opacity="0.015686275"/>
      <stop offset="1.0" stop-color="#ffffff" stop-opacity="0.0"/>
    </linearGradient>
  </defs>
</svg>
