<?xml version="1.0" encoding="UTF-8" standalone="no"?>
<svg xmlns:xlink="http://www.w3.org/1999/xlink" height="70.0px" width="80.0px" xmlns="http://www.w3.org/2000/svg">
  <g transform="matrix(1.0, 0.0, 0.0, 1.0, 40.0, 35.0)">
    <path d="M-14.85 16.75 Q-15.0 16.7 -15.1 16.65 -15.25 16.6 -15.35 16.55 -15.45 16.5 -15.6 16.45 -15.7 16.4 -15.8 16.3 -15.9 16.25 -16.0 16.15 -16.05 16.05 -16.15 16.0 -16.25 15.9 -16.3 15.8 -16.4 15.7 -16.45 15.6 -16.5 15.5 -16.55 15.4 -16.6 15.25 -16.65 15.15 -16.7 15.05 -16.75 14.95 -16.75 14.85 -16.8 14.7 -16.8 14.6 -16.8 14.5 -16.8 14.4 -16.75 14.3 -16.75 14.15 -16.7 14.05 -16.65 13.95 -16.6 13.85 -17.3 13.15 -17.3 13.15 -17.4 13.05 -17.45 12.95 -17.5 12.85 -17.55 12.75 -17.6 12.7 -17.65 12.6 -17.65 12.5 -17.7 12.4 -17.7 12.3 -17.7 12.2 -17.7 12.1 -17.7 12.0 -17.7 11.9 -17.65 11.75 -17.65 11.65 -17.6 11.55 -17.55 11.4 -17.45 11.3 -17.4 11.2 -17.35 11.05 -17.25 10.95 -17.15 10.85 -17.05 10.75 -16.95 10.65 -16.9 10.55 -16.75 10.5 -16.65 10.4 -16.55 10.3 -16.45 10.25 -16.3 10.2 -16.2 10.1 -16.05 10.05 -15.8 9.95 -15.0 9.7 -14.95 9.7 -14.9 9.65 -14.9 9.65 -14.85 9.65 -14.8 9.6 -14.8 9.6 -14.75 9.55 -14.75 9.55 -14.7 9.5 -14.7 9.45 -14.45 8.95 -13.25 6.7 -12.4 5.0 -11.85 3.9 -10.3 0.9 -9.65 -0.25 -8.25 -3.0 -7.15 -5.0 -6.65 -5.85 -4.3 -10.05 -3.4 -11.55 -3.3 -11.75 -3.25 -11.8 -3.15 -12.05 -3.8 -12.0 -4.2 -11.95 -4.3 -11.95 -4.4 -11.95 -4.45 -11.95 -4.55 -11.95 -4.65 -12.0 -4.7 -12.0 -4.8 -12.0 -4.9 -12.05 -4.95 -12.05 -5.05 -12.1 -5.1 -12.1 -5.2 -12.15 -5.25 -12.2 -5.35 -12.25 -5.4 -12.3 -5.45 -12.4 -5.5 -12.45 -5.55 -12.5 -5.6 -12.55 -5.6 -12.6 -5.65 -12.65 -5.65 -12.7 -5.7 -12.75 -5.7 -12.8 -5.7 -12.85 -5.75 -12.95 -5.75 -13.0 -5.75 -13.05 -5.7 -13.1 -5.7 -13.15 -5.7 -13.25 -5.65 -13.3 -5.65 -13.35 -5.6 -13.4 -5.6 -13.45 -5.6 -13.5 -5.55 -13.5 -5.55 -13.55 -4.2 -15.95 -3.75 -16.7 -3.65 -16.9 -3.5 -17.1 -3.35 -17.3 -3.2 -17.5 -3.05 -17.7 -2.9 -17.9 -2.7 -18.05 -2.55 -18.25 -2.35 -18.4 -2.15 -18.55 -1.95 -18.7 -1.75 -18.85 -1.55 -19.0 -1.35 -19.1 -1.1 -19.25 -0.9 -19.35 -0.85 -19.35 -0.85 -19.4 -0.9 -19.5 -1.05 -19.75 -1.2 -19.95 -1.3 -20.1 -1.4 -20.25 -1.45 -20.4 -1.5 -20.5 -1.6 -20.65 -1.65 -20.8 -1.7 -20.95 -1.75 -21.1 -1.8 -21.25 -1.85 -21.4 -1.9 -21.55 -1.95 -21.7 -2.0 -21.85 -2.0 -22.0 -2.05 -22.2 -2.05 -22.35 -2.05 -22.5 -2.05 -22.65 -2.1 -22.75 -2.1 -22.9 -2.1 -23.0 -2.1 -23.15 -2.1 -23.25 -2.1 -23.4 -2.15 -23.55 -2.15 -23.65 -2.15 -23.8 -2.15 -23.9 -2.15 -24.05 -2.15 -24.15 -2.15 -24.3 -2.15 -24.45 -2.15 -24.55 -2.15 -24.95 -2.1 -26.4 -2.1 -26.45 -2.1 -26.55 -2.1 -26.6 -2.05 -26.65 -2.05 -26.7 -2.05 -26.75 -2.0 -26.85 -2.0 -26.9 -1.95 -26.95 -1.9 -27.0 -1.9 -27.05 -1.85 -27.1 -1.8 -27.15 -1.75 -27.2 -1.7 -27.25 -1.65 -27.3 -1.6 -27.35 -1.55 -27.4 -1.5 -27.45 -1.45 -27.45 -1.4 -27.5 -1.35 -27.55 -1.3 -27.55 -1.2 -27.6 -1.15 -27.6 -1.05 -27.6 -1.0 -27.6 -0.95 -27.6 -0.85 -27.6 -0.75 -27.55 -0.7 -27.55 -0.6 -27.5 -0.4 -27.45 -0.25 -27.35 -0.05 -27.25 0.1 -27.2 0.3 -27.1 0.45 -27.0 0.6 -26.9 0.8 -26.8 0.95 -26.7 1.1 -26.6 1.25 -26.5 1.45 -26.35 1.6 -26.25 1.75 -26.15 1.9 -26.0 2.05 -25.9 2.3 -25.65 3.45 -24.5 3.5 -24.45 3.5 -24.45 3.55 -24.4 3.6 -24.4 3.65 -24.35 3.7 -24.35 3.75 -24.35 3.8 -24.3 3.75 -24.35 3.9 -24.3 3.95 -24.4 4.05 -24.6 4.15 -24.8 4.2 -24.95 4.3 -25.15 4.4 -25.3 4.5 -25.5 4.6 -25.65 4.7 -25.85 4.8 -26.0 4.9 -26.2 5.0 -26.35 5.1 -26.5 5.2 -26.7 5.3 -26.85 5.45 -27.0 5.55 -27.2 5.65 -27.35 5.75 -27.5 5.95 -27.7 6.1 -27.95 6.2 -28.05 6.25 -28.1 6.25 -28.1 6.3 -28.15 6.3 -28.15 6.35 -28.2 6.35 -28.25 6.4 -28.25 6.45 -28.3 6.45 -28.3 6.5 -28.35 6.55 -28.4 6.65 -28.45 6.7 -28.45 6.8 -28.5 6.85 -28.55 6.9 -28.55 7.0 -28.55 7.05 -28.55 7.15 -28.55 7.2 -28.55 7.3 -28.5 7.35 -28.5 7.4 -28.45 7.5 -28.45 7.55 -28.4 7.65 -28.35 8.2 -27.8 8.5 -27.5 8.6 -27.4 8.7 -27.25 8.8 -27.15 8.9 -27.0 9.0 -26.85 9.1 -26.75 9.15 -26.6 9.25 -26.45 9.35 -26.35 9.4 -26.2 9.5 -26.05 9.55 -25.9 9.65 -25.8 9.7 -25.65 9.75 -25.5 9.85 -25.35 9.9 -25.2 9.95 -25.05 10.0 -24.95 10.05 -24.8 10.1 -24.65 10.15 -24.5 10.2 -24.35 10.25 -24.2 10.3 -24.05 10.35 -23.9 10.4 -23.8 10.45 -23.65 10.5 -23.5 10.5 -23.35 10.55 -23.2 10.6 -23.05 10.6 -23.0 10.6 -22.95 10.65 -22.9 10.65 -22.9 10.65 -22.85 10.7 -22.8 10.7 -22.75 10.7 -22.75 10.75 -22.7 10.75 -22.65 10.8 -22.65 10.8 -22.6 10.85 -22.6 10.9 -22.55 10.95 -22.55 11.0 -22.5 11.05 -22.5 11.1 -22.45 11.15 -22.4 11.15 -22.35 11.25 -22.4 11.4 -22.55 11.55 -22.65 11.6 -22.7 11.75 -22.8 11.9 -22.9 12.0 -23.0 12.15 -23.1 12.3 -23.2 12.45 -23.3 12.6 -23.4 12.8 -23.5 12.95 -23.55 13.1 -23.65 13.25 -23.7 13.45 -23.8 13.6 -23.85 13.75 -23.95 13.9 -24.0 14.1 -24.05 14.2 -24.1 14.3 -24.15 14.4 -24.2 14.55 -24.2 14.65 -24.25 14.75 -24.3 14.85 -24.3 15.0 -24.35 15.1 -24.4 15.2 -24.4 15.3 -24.45 15.45 -24.45 15.55 -24.45 15.65 -24.5 15.8 -24.5 15.9 -24.5 16.0 -24.5 16.15 -24.5 16.25 -24.5 16.35 -24.5 16.45 -24.45 16.55 -24.4 16.65 -24.35 16.75 -24.3 16.8 -24.25 16.9 -24.2 16.95 -24.15 17.0 -24.05 17.1 -24.0 17.1 -23.9 17.15 -23.85 17.2 -23.75 17.25 -23.65 17.25 -23.55 17.3 -23.45 17.3 -23.35 17.35 -23.3 17.35 -23.2 17.35 -23.1 17.35 -23.0 17.35 -22.9 17.35 -22.8 17.35 -22.7 17.35 -22.6 17.35 -22.5 17.35 -22.4 17.35 -22.3 17.3 -22.2 17.25 -21.95 17.2 -21.75 17.15 -21.5 17.1 -21.3 17.05 -21.05 16.95 -20.85 16.9 -20.6 16.8 -20.4 16.7 -20.15 16.65 -19.95 16.55 -19.75 16.4 -19.5 16.3 -19.3 16.2 -19.1 16.05 -18.9 15.95 -18.7 15.85 -18.5 15.7 -18.35 15.6 -18.15 15.45 -18.0 15.35 -17.85 15.2 -17.7 15.05 -17.5 14.9 -17.35 14.75 -17.2 14.6 -17.05 14.45 -16.9 14.3 -16.75 14.15 -16.6 13.95 -16.5 13.8 -16.35 13.6 -16.25 13.6 -16.2 13.55 -16.2 13.55 -16.15 13.5 -16.15 13.5 -16.1 13.45 -16.1 13.5 -16.0 13.55 -15.9 13.6 -15.75 13.6 -15.75 13.7 -15.55 13.8 -15.35 13.85 -15.15 13.95 -14.9 14.0 -14.7 14.05 -14.5 14.15 -14.3 14.2 -14.05 14.25 -13.85 14.25 -13.65 14.3 -13.45 14.35 -13.2 14.35 -13.0 14.35 -12.8 14.4 -12.55 14.4 -12.35 14.4 -12.2 14.4 -12.0 14.4 -11.85 14.35 -11.65 14.35 -11.5 14.3 -11.3 14.3 -11.15 14.25 -10.95 14.25 -10.8 14.2 -10.6 14.15 -10.45 14.1 -10.25 14.05 -10.1 14.0 -9.95 13.95 -9.75 13.85 -9.6 13.75 -9.25 13.2 -8.3 13.2 -8.25 13.15 -8.2 13.15 -8.15 13.1 -8.15 13.1 -8.1 13.05 -8.05 13.05 -8.0 13.0 -8.0 12.95 -7.95 12.95 -7.95 12.9 -7.9 12.85 -7.9 12.8 -7.85 12.8 -7.8 12.75 -7.75 12.75 -7.75 12.7 -7.7 12.7 -7.65 12.7 -7.6 12.65 -7.55 12.65 -7.5 12.65 -7.45 12.65 -7.45 12.6 -7.4 12.6 -7.35 12.6 -7.3 12.4 -5.95 12.0 -3.75 11.75 -2.2 11.4 -0.1 10.75 3.65 10.45 5.35 9.9 8.6 9.5 10.8 8.9 13.95 8.6 15.6 8.6 15.7 7.8 18.95 7.8 19.0 7.8 19.0 7.8 19.05 7.75 19.1 7.75 19.1 7.75 19.15 7.75 19.15 7.75 19.2 7.75 19.2 7.8 19.25 7.8 19.25 7.8 19.3 7.8 19.3 7.8 19.35 7.85 19.4 7.85 19.4 7.9 19.45 7.9 19.5 7.95 19.6 8.0 19.65 8.0 19.7 8.05 19.75 8.05 19.85 8.1 19.9 8.1 19.95 8.15 20.0 8.15 20.1 8.15 20.15 8.2 20.2 8.2 20.3 8.2 20.35 8.2 20.4 8.2 20.45 8.2 20.5 8.2 20.55 8.2 20.6 8.2 20.65 8.2 20.65 8.2 20.7 8.2 20.75 8.2 20.8 8.2 20.85 8.15 20.9 8.15 20.95 8.15 21.0 8.15 21.0 8.1 21.05 8.1 21.1 8.05 21.25 8.0 21.4 7.9 21.55 7.85 21.65 7.75 21.75 7.65 21.9 7.55 22.0 7.45 22.1 7.35 22.2 7.2 22.25 7.1 22.35 6.95 22.45 6.8 22.5 6.65 22.55 6.5 22.6 6.35 22.65 6.25 22.7 6.15 22.7 6.05 22.75 5.95 22.75 5.85 22.75 5.75 22.8 5.65 22.8 5.55 22.8 5.45 22.8 5.35 22.8 5.25 22.8 5.15 22.75 5.05 22.75 4.95 22.75 4.85 22.7 4.8 22.7 4.7 22.7 4.4 22.6 4.35 22.65 4.35 22.65 4.3 22.7 4.25 22.7 4.25 22.75 4.2 22.75 4.15 22.8 4.15 22.8 4.1 22.85 4.1 22.85 4.0 22.95 3.9 23.05 3.8 23.1 3.7 23.2 3.55 23.25 3.45 23.3 3.35 23.35 3.2 23.4 3.1 23.45 2.95 23.5 2.85 23.5 2.7 23.55 2.6 23.55 2.45 23.6 2.35 23.6 2.2 23.65 2.15 23.65 2.05 23.6 2.0 23.6 1.95 23.6 1.9 23.55 1.8 23.55 1.7 23.55 1.65 23.5 1.55 23.5 1.5 23.5 1.45 23.45 1.4 23.45 1.3 23.45 1.25 23.4 1.15 23.4 1.1 23.35 1.0 23.3 -0.05 22.75 -0.5 23.05 -0.65 23.1 -0.7 23.1 -0.75 23.15 -0.8 23.15 -0.85 23.15 -0.95 23.2 -1.0 23.2 -1.05 23.2 -1.1 23.25 -1.15 23.25 -1.2 23.25 -1.25 23.25 -1.35 23.3 -1.4 23.3 -1.45 23.3 -1.5 23.3 -1.55 23.35 -1.6 23.35 -1.6 23.35 -1.65 23.35 -1.7 23.35 -1.7 23.35 -1.75 23.35 -1.8 23.35 -1.85 23.35 -1.85 23.35 -1.9 23.3 -1.95 23.3 -1.95 23.3 -2.0 23.3 -2.05 23.3 -2.15 23.25 -2.1 23.3 -2.2 23.25 -2.35 23.25 -2.45 23.2 -2.55 23.15 -2.65 23.15 -2.75 23.1 -2.85 23.05 -2.95 23.0 -3.05 22.95 -3.15 22.9 -3.25 22.85 -3.35 22.8 -3.45 22.7 -3.55 22.65 -3.65 22.6 -3.7 22.5 -3.75 22.45 -3.8 22.45 -3.85 22.4 -3.85 22.4 -3.9 22.4 -3.95 22.4 -4.0 22.4 -4.05 22.45 -4.6 22.55 -4.65 22.55 -4.9 22.6 -5.1 22.6 -5.35 22.6 -5.55 22.55 -5.75 22.55 -5.95 22.5 -6.15 22.45 -6.35 22.4 -6.55 22.3 -6.75 22.2 -6.9 22.15 -7.1 22.0 -7.25 21.9 -7.4 21.75 -7.55 21.6 -7.7 21.45 -7.75 21.4 -7.75 21.4 -7.8 21.35 -7.8 21.35 -7.85 21.3 -7.9 21.3 -7.9 21.3 -7.95 21.25 -8.0 21.25 -8.05 21.25 -8.8 21.1 -9.1 21.0 -9.25 20.95 -9.35 20.9 -9.45 20.85 -9.6 20.8 -9.7 20.75 -9.8 20.7 -9.9 20.65 -10.0 20.55 -10.1 20.5 -10.15 20.4 -10.25 20.3 -10.35 20.2 -10.4 20.15 -10.5 20.05 -10.55 19.95 -10.6 19.8 -10.65 19.7 -10.85 19.4 -10.95 19.4 -11.15 19.4 -11.35 19.4 -11.55 19.4 -11.75 19.4 -11.9 19.4 -12.1 19.4 -12.3 19.35 -12.5 19.3 -12.65 19.25 -12.85 19.2 -13.0 19.15 -13.2 19.1 -13.35 19.0 -13.5 18.9 -13.65 18.8 -13.85 18.7 -14.0 18.6 -14.1 18.5 -14.2 18.45 -14.25 18.35 -14.35 18.25 -14.4 18.15 -14.45 18.05 -14.55 17.95 -14.6 17.85 -14.65 17.75 -14.7 17.65 -14.7 17.5 -14.75 17.4 -14.8 17.3 -14.8 17.15 -14.85 17.05 -14.85 16.95 -14.85 16.9 -14.85 16.75 L-14.85 16.75 M1.7 -13.8 Q1.4 -13.7 1.3 -13.65 0.85 -13.65 0.8 -13.7 0.75 -13.7 0.7 -13.7 0.65 -13.7 0.6 -13.7 0.55 -13.7 0.5 -13.7 0.45 -13.7 0.4 -13.7 0.35 -13.7 0.3 -13.65 0.15 -13.6 -0.55 -13.35 -0.65 -13.3 -0.7 -13.3 -0.8 -13.25 -0.85 -13.25 -0.9 -13.2 -0.95 -13.2 -1.0 -13.15 -1.0 -13.15 -1.05 -13.1 -1.1 -13.1 -1.1 -13.05 -1.15 -13.0 -1.15 -12.95 -1.2 -12.9 -1.25 -12.85 -1.3 -12.75 -1.3 -12.7 -1.35 -12.6 -1.35 -12.55 -1.35 -12.5 -1.4 -12.45 -1.45 -12.3 -1.5 -12.15 -1.55 -12.1 -1.6 -11.95 -1.95 -11.4 -2.05 -11.25 -3.4 -8.9 -4.3 -7.4 -4.85 -6.4 -5.8 -4.7 -8.4 0.2 -9.15 1.65 -10.6 4.4 -11.25 5.7 -13.3 9.7 -13.45 9.95 -13.75 10.55 -13.7 10.6 -13.65 10.65 -13.55 10.75 -13.55 10.8 -12.15 12.2 -9.2 14.7 -9.05 14.8 -8.9 14.95 -8.75 15.05 -8.6 15.15 -8.4 15.3 -8.25 15.4 -8.1 15.5 -7.9 15.6 -7.75 15.7 -7.6 15.8 -7.4 15.9 -7.25 15.95 -7.05 16.05 -6.85 16.15 -6.7 16.25 -6.5 16.3 -6.25 16.4 -6.0 16.5 -5.75 16.6 -5.5 16.7 -5.25 16.8 -5.0 16.9 -4.75 17.0 -4.5 17.1 -4.25 17.15 -4.0 17.25 -3.75 17.35 -3.45 17.4 -3.2 17.5 -2.95 17.6 -2.7 17.65 -2.45 17.75 -2.2 17.8 -1.95 17.9 -1.7 17.95 -1.4 18.0 -1.15 18.1 -0.9 18.15 -0.65 18.2 -0.4 18.25 -0.15 18.3 0.1 18.35 0.4 18.4 0.65 18.45 0.9 18.5 1.15 18.5 1.4 18.55 1.7 18.55 1.9 18.55 2.05 18.6 2.25 18.6 2.4 18.65 2.6 18.65 2.75 18.7 2.95 18.7 3.1 18.7 3.3 18.75 3.5 18.75 3.65 18.8 3.85 18.8 4.0 18.8 4.2 18.85 4.4 18.85 4.55 18.85 4.95 18.9 6.05 18.95 6.1 18.95 6.25 18.9 6.35 18.9 6.45 18.9 6.45 18.85 6.45 18.8 6.45 18.8 6.45 18.75 6.5 18.7 6.5 18.7 6.5 18.65 6.5 18.6 6.5 18.6 6.5 18.55 6.5 18.5 6.55 18.5 6.55 18.45 6.55 18.4 6.55 18.4 6.55 18.35 7.25 15.7 7.9 12.1 8.15 10.75 8.85 6.75 9.35 4.0 9.65 2.05 10.0 0.05 10.8 -4.65 11.0 -5.9 11.45 -8.4 11.2 -8.6 10.95 -8.85 10.7 -9.05 10.45 -9.3 10.25 -9.5 10.05 -9.75 9.85 -10.0 9.65 -10.25 9.5 -10.55 9.35 -10.8 9.2 -11.05 9.05 -11.35 8.95 -11.65 8.85 -11.95 8.75 -12.25 8.65 -12.55 8.55 -12.5 8.5 -12.45 8.4 -12.4 8.35 -12.35 8.25 -12.3 8.2 -12.3 8.1 -12.25 8.05 -12.2 7.95 -12.2 7.9 -12.15 7.8 -12.15 7.7 -12.15 7.65 -12.15 7.55 -12.15 7.45 -12.2 7.35 -12.2 5.95 -10.75 5.7 -10.55 5.55 -10.4 5.35 -10.25 5.2 -10.1 5.0 -9.95 4.85 -9.8 4.65 -9.7 4.5 -9.55 4.3 -9.45 4.1 -9.3 3.9 -9.2 3.7 -9.1 3.5 -9.0 3.3 -8.9 3.1 -8.8 2.9 -8.7 2.65 -8.6 2.2 -8.45 2.15 -8.45 2.1 -8.45 2.05 -8.45 2.0 -8.4 1.95 -8.4 1.9 -8.4 1.9 -8.4 1.85 -8.45 1.8 -8.45 1.8 -8.45 1.75 -8.5 1.75 -8.5 1.7 -8.55 1.7 -8.55 1.7 -8.6 1.65 -8.65 1.65 -8.7 1.65 -8.75 1.6 -8.8 1.6 -8.85 1.6 -8.9 1.6 -8.9 1.6 -8.95 1.6 -9.0 1.6 -9.05 1.6 -9.15 1.5 -9.85 1.5 -10.05 1.45 -10.25 1.45 -10.4 1.45 -10.6 1.4 -10.8 1.4 -11.0 1.4 -11.15 1.4 -11.35 1.4 -11.55 1.4 -11.75 1.45 -11.95 1.45 -12.1 1.45 -12.3 1.5 -12.5 1.5 -12.7 1.55 -12.85 1.55 -13.05 1.7 -13.8 L1.7 -13.8 M2.75 -21.35 Q2.7 -21.35 2.65 -21.35 2.6 -21.35 2.55 -21.35 2.5 -21.35 2.5 -21.35 2.45 -21.35 2.45 -21.4 2.4 -21.4 2.4 -21.45 2.35 -21.45 2.35 -21.5 2.35 -21.55 2.35 -21.55 2.35 -21.6 2.35 -21.65 2.35 -21.75 2.35 -21.85 2.35 -21.95 2.35 -22.0 2.4 -22.1 2.4 -22.2 2.4 -22.3 2.45 -22.4 2.45 -22.45 2.5 -22.55 2.5 -22.65 2.55 -22.7 2.6 -22.8 2.6 -22.9 2.65 -22.95 2.7 -23.05 2.75 -23.15 2.8 -23.3 2.7 -23.4 2.45 -23.65 2.25 -23.85 2.15 -24.0 2.0 -24.15 1.9 -24.25 1.75 -24.4 1.65 -24.5 1.5 -24.65 1.4 -24.75 1.25 -24.85 1.1 -25.0 0.95 -25.1 0.85 -25.2 0.7 -25.35 0.55 -25.45 0.4 -25.55 0.25 -25.65 0.1 -25.75 -0.1 -25.85 -0.6 -26.15 -0.75 -26.15 -0.75 -25.85 -0.8 -25.25 -0.8 -24.65 -0.8 -24.35 -0.8 -23.95 -0.75 -23.05 -0.75 -22.8 -0.7 -22.6 -0.7 -22.4 -0.65 -22.15 -0.6 -21.95 -0.55 -21.75 -0.5 -21.55 -0.4 -21.35 -0.35 -21.15 -0.25 -20.95 -0.15 -20.75 0.0 -20.55 0.1 -20.35 0.25 -20.2 0.4 -20.0 0.55 -19.85 0.7 -19.6 0.75 -19.55 0.75 -19.5 0.75 -19.5 0.75 -19.45 0.8 -19.4 0.8 -19.4 0.8 -19.35 0.85 -19.3 0.85 -19.3 0.85 -19.25 0.9 -19.25 0.9 -19.2 0.95 -19.2 0.95 -19.15 0.95 -19.15 1.0 -19.1 1.0 -19.1 1.05 -19.05 1.2 -18.85 1.15 -18.85 1.1 -18.8 1.0 -18.8 0.95 -18.8 0.9 -18.8 0.85 -18.75 0.8 -18.75 0.75 -18.75 0.7 -18.7 0.65 -18.7 0.6 -18.65 0.55 -18.65 0.5 -18.6 0.45 -18.6 0.4 -18.55 0.35 -18.5 0.35 -18.5 0.3 -18.45 0.2 -18.45 0.2 -18.45 0.0 -18.35 -0.2 -18.25 -0.4 -18.2 -0.6 -18.1 -0.8 -17.95 -0.95 -17.85 -1.15 -17.75 -1.3 -17.6 -1.45 -17.5 -1.6 -17.35 -1.75 -17.2 -1.9 -17.05 -2.05 -16.9 -2.15 -16.75 -2.3 -16.55 -2.4 -16.4 -2.45 -16.3 -4.15 -13.3 -4.15 -13.3 -4.15 -13.2 -3.85 -13.2 -3.55 -13.25 -3.25 -13.25 -3.0 -13.3 -2.7 -13.35 -2.4 -13.4 -2.1 -13.45 -1.85 -13.5 -1.55 -13.6 -1.25 -13.65 -1.0 -13.75 -0.7 -13.85 -0.45 -13.9 -0.15 -14.05 0.1 -14.15 0.35 -14.25 0.35 -14.3 0.35 -14.35 0.35 -14.4 0.4 -14.4 0.4 -14.45 0.4 -14.5 0.4 -14.6 0.4 -14.65 0.4 -14.75 0.4 -14.85 0.4 -14.95 0.4 -15.0 0.45 -15.1 0.45 -15.2 0.45 -15.25 0.5 -15.35 0.5 -15.45 0.55 -15.5 0.55 -15.6 0.6 -15.7 0.65 -15.75 0.65 -15.85 0.7 -15.9 0.75 -15.95 0.8 -16.05 0.8 -16.1 0.85 -16.1 0.85 -16.15 0.9 -16.15 0.9 -16.15 0.95 -16.2 0.95 -16.2 1.0 -16.2 1.0 -16.2 1.05 -16.2 1.05 -16.2 1.1 -16.2 1.15 -16.15 1.15 -16.15 1.2 -16.15 1.25 -16.1 1.25 -16.1 1.2 -16.0 1.15 -15.9 1.15 -15.8 1.1 -15.7 1.05 -15.6 1.05 -15.5 1.0 -15.4 0.95 -15.3 0.95 -15.2 0.9 -15.05 0.9 -14.95 0.85 -14.85 0.85 -14.75 0.85 -14.65 0.8 -14.55 0.8 -14.45 0.8 -14.4 0.8 -14.35 0.8 -14.3 0.8 -14.25 0.8 -14.2 0.8 -14.2 0.85 -14.15 0.85 -14.1 0.9 -14.1 0.9 -14.1 0.95 -14.1 1.0 -14.1 1.05 -14.1 1.1 -14.1 1.15 -14.1 1.2 -14.15 1.25 -14.15 1.25 -14.15 1.3 -14.2 1.35 -14.2 1.35 -14.2 1.4 -14.25 1.45 -14.25 1.45 -14.25 1.5 -14.25 1.55 -14.3 1.55 -14.3 1.6 -14.3 1.65 -14.35 1.65 -14.35 1.7 -14.35 1.7 -14.4 1.85 -14.5 2.1 -14.6 2.45 -14.85 2.45 -14.85 2.5 -14.85 2.5 -14.9 2.55 -14.9 2.6 -14.9 2.65 -14.9 2.65 -14.9 2.7 -14.9 2.7 -14.85 2.75 -14.85 2.75 -14.85 2.8 -14.8 2.8 -14.8 2.8 -14.75 2.85 -14.75 2.85 -14.7 2.85 -14.7 2.85 -14.65 2.85 -14.6 2.8 -14.6 2.8 -14.55 2.8 -14.5 2.75 -14.5 2.75 -14.45 2.7 -14.45 2.65 -14.4 2.6 -14.4 2.55 -14.35 2.55 -14.3 2.5 -14.25 2.45 -14.2 2.45 -14.2 2.4 -14.15 2.4 -14.1 2.4 -14.05 2.35 -14.0 2.35 -13.95 2.3 -13.9 2.3 -13.85 2.3 -13.8 2.3 -13.75 2.25 -13.5 2.2 -13.25 2.1 -13.05 2.1 -12.8 2.05 -12.55 2.0 -12.3 2.0 -12.1 2.0 -11.85 1.95 -11.6 1.95 -11.35 1.95 -11.1 1.95 -10.85 2.0 -10.65 2.0 -10.4 2.0 -10.15 2.05 -9.9 2.05 -9.65 2.15 -9.0 2.15 -9.0 2.2 -9.0 2.2 -9.0 2.2 -9.0 2.4 -9.05 2.55 -9.1 2.9 -9.25 3.2 -9.4 3.5 -9.55 3.8 -9.75 4.1 -9.95 4.4 -10.15 4.65 -10.35 4.95 -10.55 5.2 -10.8 5.45 -11.05 5.7 -11.25 5.95 -11.5 6.2 -11.75 6.4 -12.0 6.65 -12.25 6.9 -12.55 6.9 -12.6 6.95 -12.6 6.95 -12.65 6.95 -12.7 6.95 -12.7 6.95 -12.75 6.95 -12.8 6.95 -12.85 6.95 -12.9 6.95 -12.9 6.9 -12.95 6.9 -13.0 6.9 -13.0 6.9 -13.05 6.85 -13.1 6.85 -13.1 6.85 -13.15 6.85 -13.2 6.85 -13.2 6.85 -13.25 6.85 -13.3 6.8 -13.35 6.8 -13.35 6.8 -13.4 6.8 -13.45 6.8 -13.45 6.8 -13.5 6.8 -13.55 6.8 -13.6 6.8 -13.6 6.8 -13.65 6.8 -13.7 6.8 -13.7 6.8 -13.75 6.8 -13.8 6.8 -13.8 6.8 -13.85 6.8 -13.9 6.8 -13.95 6.8 -13.95 6.8 -14.05 6.9 -14.15 6.95 -14.2 7.05 -14.2 7.1 -14.2 7.15 -14.2 7.2 -14.15 7.2 -14.15 7.25 -14.1 7.25 -14.05 7.3 -14.0 7.3 -13.95 7.3 -13.9 7.3 -13.9 7.3 -13.85 7.3 -13.8 7.3 -13.8 7.3 -13.75 7.3 -13.7 7.3 -13.65 7.3 -13.65 7.3 -13.6 7.3 -13.55 7.35 -13.55 7.35 -13.5 7.35 -13.45 7.35 -13.4 7.35 -13.4 7.35 -13.35 7.35 -13.3 7.35 -13.25 7.35 -13.2 7.4 -13.15 7.4 -13.1 7.4 -13.05 7.4 -13.0 7.45 -12.95 7.45 -12.9 7.45 -12.85 7.5 -12.8 7.5 -12.75 7.55 -12.75 7.6 -12.7 7.6 -12.7 7.65 -12.65 7.7 -12.65 7.75 -12.65 7.75 -12.65 7.8 -12.65 7.85 -12.65 7.9 -12.65 7.95 -12.7 8.0 -12.7 8.05 -12.75 8.1 -12.8 8.1 -12.8 8.15 -12.85 8.2 -12.85 8.25 -12.9 8.25 -12.9 8.3 -13.0 8.55 -13.3 8.75 -13.5 8.85 -13.65 8.9 -13.7 8.9 -13.7 8.95 -13.75 9.0 -13.75 9.0 -13.8 9.05 -13.8 9.1 -13.8 9.15 -13.8 9.2 -13.8 9.2 -13.75 9.25 -13.7 9.25 -13.7 9.25 -13.65 9.25 -13.6 9.25 -13.55 9.25 -13.5 9.25 -13.5 9.25 -13.5 9.2 -13.45 9.2 -13.35 9.2 -13.3 9.2 -13.2 9.15 -13.15 9.15 -13.05 9.15 -13.0 9.2 -12.9 9.2 -12.85 9.2 -12.75 9.2 -12.7 9.2 -12.6 9.25 -12.55 9.25 -12.45 9.25 -12.4 9.3 -12.3 9.35 -12.05 9.45 -11.85 9.55 -11.6 9.65 -11.4 9.75 -11.2 9.85 -10.95 10.0 -10.75 10.1 -10.55 10.25 -10.35 10.4 -10.15 10.55 -10.0 10.75 -9.8 10.9 -9.6 11.1 -9.45 11.25 -9.25 11.45 -9.1 11.5 -9.05 11.95 -8.75 12.0 -8.8 12.05 -8.9 12.1 -8.95 12.1 -9.0 12.15 -9.1 12.2 -9.15 12.25 -9.2 12.3 -9.3 12.3 -9.35 12.35 -9.4 12.4 -9.5 12.4 -9.55 12.45 -9.65 12.5 -9.7 12.5 -9.75 12.55 -9.85 12.65 -10.05 12.7 -10.25 12.75 -10.5 12.8 -10.7 12.85 -10.9 12.9 -11.15 12.95 -11.35 13.0 -11.55 13.0 -11.8 13.0 -12.0 13.05 -12.2 13.05 -12.45 13.05 -12.65 13.0 -12.9 13.0 -13.1 12.95 -13.35 12.9 -13.5 12.9 -13.65 12.85 -13.8 12.8 -13.95 12.8 -14.15 12.75 -14.25 12.7 -14.45 12.65 -14.6 12.6 -14.75 12.55 -14.9 12.5 -15.05 12.4 -15.15 12.35 -15.3 12.25 -15.45 12.2 -15.6 12.1 -15.75 12.05 -15.8 12.05 -15.8 12.05 -15.85 12.0 -15.9 12.0 -15.9 12.0 -15.95 12.0 -16.0 12.0 -16.05 12.0 -16.05 11.95 -16.1 11.95 -16.15 11.95 -16.15 11.95 -16.2 11.9 -16.25 11.9 -16.25 11.85 -16.3 11.85 -16.3 11.8 -16.35 11.8 -16.4 11.75 -16.4 11.75 -16.4 11.7 -16.45 11.7 -16.5 11.65 -16.55 11.65 -16.55 11.6 -16.6 11.65 -16.6 11.7 -16.6 11.7 -16.6 11.75 -16.65 11.75 -16.65 11.85 -16.65 11.9 -16.65 11.9 -16.65 11.95 -16.65 11.95 -16.65 12.0 -16.65 12.05 -16.7 12.05 -16.7 12.1 -16.7 12.1 -16.7 12.2 -16.8 12.25 -16.9 12.35 -16.9 12.35 -16.95 12.5 -17.05 13.05 -17.4 13.25 -17.6 13.4 -17.75 13.55 -17.85 13.7 -18.0 13.8 -18.1 13.95 -18.25 14.1 -18.4 14.2 -18.55 14.3 -18.7 14.45 -18.85 14.55 -19.0 14.65 -19.15 14.75 -19.3 14.85 -19.45 14.95 -19.6 15.05 -19.8 15.15 -19.95 15.25 -20.1 15.3 -20.3 15.4 -20.45 15.45 -20.65 15.55 -20.8 15.6 -21.0 15.65 -21.15 15.7 -21.35 15.8 -21.5 15.85 -21.7 15.85 -21.9 15.9 -22.05 15.95 -22.25 15.95 -22.45 16.0 -22.6 16.0 -22.8 16.0 -22.85 15.95 -23.25 15.65 -23.25 15.55 -23.2 14.65 -22.95 14.2 -22.75 14.1 -22.7 13.95 -22.65 13.85 -22.6 13.75 -22.55 13.6 -22.5 13.5 -22.45 13.4 -22.35 13.3 -22.3 13.15 -22.25 13.05 -22.2 12.95 -22.1 12.85 -22.05 12.75 -21.95 12.65 -21.9 12.5 -21.8 12.4 -21.75 11.55 -20.95 11.45 -20.9 11.45 -20.9 11.4 -20.85 11.35 -20.8 11.35 -20.8 11.35 -20.75 11.3 -20.7 11.3 -20.7 11.25 -20.65 11.25 -20.6 11.25 -20.6 11.25 -20.55 11.2 -20.5 11.2 -20.5 11.2 -20.45 11.2 -20.4 11.2 -20.4 11.2 -20.35 11.2 -20.3 11.2 -20.25 11.2 -20.2 11.15 -20.2 11.15 -20.15 11.1 -20.1 11.1 -20.1 11.05 -20.05 11.0 -20.05 10.95 -20.05 10.9 -20.05 10.85 -20.05 10.85 -20.05 10.8 -20.05 10.8 -20.1 10.75 -20.1 10.75 -20.15 10.7 -20.15 10.7 -20.2 10.7 -20.25 10.65 -20.3 10.65 -20.55 10.65 -20.55 10.6 -21.0 10.55 -21.05 10.5 -21.15 10.2 -21.45 10.15 -21.5 10.1 -21.55 10.05 -21.6 10.0 -21.6 10.0 -21.6 9.95 -21.6 9.9 -21.6 9.85 -21.55 9.8 -21.5 9.75 -21.45 9.65 -21.3 9.4 -21.05 9.15 -20.75 9.1 -20.65 9.05 -20.6 9.05 -20.6 9.0 -20.55 9.0 -20.55 8.95 -20.5 8.9 -20.45 8.85 -20.5 8.8 -20.5 8.75 -20.55 8.75 -20.55 8.7 -20.6 8.7 -20.6 8.65 -20.65 8.65 -20.65 8.65 -20.7 8.65 -20.7 8.65 -20.75 8.65 -20.8 8.65 -20.8 8.65 -20.85 8.7 -20.9 8.7 -20.9 8.7 -20.95 8.75 -20.95 8.75 -21.0 8.8 -21.05 8.8 -21.05 8.8 -21.1 9.05 -21.4 9.5 -22.0 9.1 -23.35 9.05 -23.65 9.0 -23.85 8.9 -24.05 8.85 -24.25 8.75 -24.45 8.7 -24.65 8.6 -24.85 8.5 -25.05 8.4 -25.2 8.35 -25.4 8.2 -25.6 8.1 -25.8 8.0 -25.95 7.9 -26.15 7.75 -26.3 7.65 -26.5 7.5 -26.65 7.45 -26.75 7.1 -27.1 7.05 -27.05 7.05 -27.0 7.05 -27.0 7.0 -26.95 6.95 -26.9 6.95 -26.9 5.9 -25.4 5.6 -24.75 5.5 -24.55 5.3 -24.1 5.15 -23.65 5.05 -23.45 4.95 -23.3 4.85 -23.1 4.85 -23.05 4.8 -23.0 4.8 -22.95 4.8 -22.9 4.8 -22.85 4.75 -22.8 4.75 -22.75 4.75 -22.7 4.75 -22.65 4.75 -22.6 4.75 -22.55 4.75 -22.5 4.75 -22.45 4.8 -22.4 4.8 -22.35 4.8 -22.3 4.85 -22.25 4.9 -22.15 4.9 -22.1 4.9 -22.05 4.9 -22.0 4.9 -22.0 4.85 -21.95 4.85 -21.9 4.8 -21.9 4.8 -21.85 4.75 -21.85 4.7 -21.85 4.65 -21.85 4.65 -21.8 4.6 -21.8 4.55 -21.8 4.55 -21.85 4.5 -21.85 4.45 -21.85 4.45 -21.9 4.4 -21.9 4.4 -21.95 4.35 -22.0 4.35 -22.0 4.35 -22.05 4.3 -22.1 4.3 -22.15 4.3 -22.15 4.25 -22.2 4.25 -22.3 4.15 -22.35 4.15 -22.4 4.1 -22.45 4.1 -22.5 4.05 -22.6 4.0 -22.65 3.95 -22.7 3.9 -22.75 3.85 -22.8 3.8 -22.85 3.75 -22.9 3.7 -22.95 3.65 -23.0 3.55 -23.0 3.45 -23.05 3.4 -23.1 3.35 -23.1 3.3 -23.1 3.25 -23.1 3.25 -23.1 3.2 -23.1 3.15 -23.05 3.1 -23.0 3.05 -22.9 3.0 -22.85 2.95 -22.75 2.95 -22.7 2.9 -22.6 2.9 -22.55 2.85 -22.45 2.85 -22.4 2.8 -22.3 2.8 -22.25 2.8 -22.15 2.8 -22.1 2.8 -22.0 2.75 -21.95 2.75 -21.85 2.75 -21.75 2.75 -21.7 2.75 -21.6 2.75 -21.35 L2.75 -21.35 M6.4 19.45 Q5.3 19.4 4.5 19.35 3.95 19.35 3.2 19.25 0.4 18.9 0.1 18.85 -0.3 18.8 -0.7 18.7 -1.1 18.6 -1.5 18.5 -1.9 18.4 -2.3 18.3 -2.7 18.2 -3.1 18.1 -3.5 17.95 -3.85 17.85 -4.25 17.7 -4.65 17.6 -5.05 17.45 -5.4 17.3 -5.8 17.15 -6.2 17.0 -6.45 16.9 -6.65 16.8 -6.85 16.7 -7.1 16.6 -7.3 16.5 -7.5 16.4 -7.7 16.3 -7.9 16.2 -8.15 16.05 -8.35 15.95 -8.55 15.8 -8.75 15.7 -8.95 15.55 -9.1 15.4 -9.3 15.25 -9.5 15.1 -12.25 12.8 -13.75 11.3 -14.0 11.05 -14.1 10.95 -14.15 10.9 -14.15 10.9 -14.2 10.85 -14.25 10.85 -14.3 10.85 -14.35 10.8 -14.35 10.8 -14.4 10.85 -15.0 10.95 -15.15 11.0 -15.25 11.05 -15.3 11.1 -15.4 11.1 -15.5 11.15 -15.55 11.2 -15.65 11.25 -15.7 11.3 -15.8 11.35 -15.85 11.4 -15.95 11.45 -16.0 11.5 -16.05 11.6 -16.1 11.65 -16.15 11.7 -16.2 11.8 -16.25 11.85 -16.3 11.9 -16.3 11.95 -16.3 12.0 -16.3 12.05 -16.35 12.1 -16.35 12.15 -16.35 12.15 -16.35 12.2 -16.35 12.25 -16.3 12.3 -16.3 12.3 -16.3 12.35 -16.25 12.4 -16.25 12.45 -16.2 12.45 -16.15 12.5 -16.15 12.55 -16.1 12.55 -16.05 12.6 -16.05 12.6 -15.5 12.95 -15.4 13.0 -15.35 13.05 -15.35 13.05 -15.3 13.1 -15.3 13.1 -15.25 13.15 -15.25 13.15 -15.2 13.15 -15.2 13.2 -15.15 13.2 -15.1 13.25 -15.1 13.25 -15.05 13.25 -15.0 13.25 -14.95 13.3 -14.95 13.3 -14.9 13.3 -14.95 13.35 -14.95 13.4 -15.0 13.4 -15.05 13.45 -15.05 13.5 -15.1 13.55 -15.1 13.55 -15.1 13.6 -15.15 13.65 -15.15 13.7 -15.15 13.75 -15.2 13.75 -15.2 13.8 -15.2 13.85 -15.2 13.9 -15.2 13.95 -15.2 14.0 -15.3 14.15 -15.35 14.2 -15.35 14.25 -15.4 14.3 -15.4 14.4 -15.4 14.45 -15.4 14.5 -15.4 14.55 -15.4 14.6 -15.4 14.65 -15.4 14.7 -15.4 14.8 -15.35 14.85 -15.35 14.9 -15.3 14.95 -15.25 15.0 -15.2 15.05 -15.15 15.1 -15.15 15.15 -15.1 15.2 -15.05 15.25 -15.0 15.3 -14.95 15.35 -14.9 15.35 -14.85 15.4 -14.8 15.45 -14.75 15.45 -14.65 15.5 -14.6 15.5 -14.55 15.55 -14.5 15.55 -14.4 15.6 -14.35 15.6 -14.3 15.6 -14.3 15.6 -14.25 15.6 -14.2 15.6 -14.2 15.65 -14.15 15.65 -14.1 15.65 -14.1 15.65 -14.05 15.65 -14.05 15.65 -14.0 15.65 -13.95 15.7 -13.95 15.7 -13.9 15.7 -13.85 15.7 -13.85 15.7 -13.75 15.7 -13.6 15.65 -13.35 15.65 -13.3 15.6 -13.3 15.65 -13.35 15.7 -13.35 15.75 -13.35 15.8 -13.4 15.95 -13.45 16.9 -13.45 16.95 -13.45 17.0 -13.45 17.05 -13.45 17.05 -13.45 17.1 -13.4 17.15 -13.4 17.2 -13.4 17.25 -13.35 17.25 -13.35 17.3 -13.3 17.4 -13.2 17.5 -13.1 17.6 -13.0 17.7 -12.9 17.8 -12.75 17.85 -12.6 17.95 -12.45 18.0 -12.35 18.05 -12.2 18.1 -12.05 18.15 -11.9 18.2 -11.75 18.2 -11.6 18.2 -11.45 18.2 -11.3 18.2 -11.2 18.2 -11.15 18.15 -11.05 18.15 -10.95 18.15 -10.85 18.15 -10.8 18.1 -10.7 18.1 -10.6 18.1 -10.5 18.1 -10.45 18.1 -10.35 18.1 -10.25 18.1 -10.15 18.1 -10.1 18.1 -10.0 18.1 -9.9 18.1 -9.55 18.95 -9.5 19.1 -9.45 19.2 -9.4 19.25 -9.4 19.3 -9.35 19.35 -9.3 19.45 -9.25 19.5 -9.2 19.55 -9.1 19.6 -9.05 19.65 -9.0 19.7 -8.95 19.7 -8.85 19.75 -8.8 19.8 -8.7 19.8 -8.65 19.85 -8.55 19.9 -8.45 19.95 -8.35 19.95 -8.25 19.95 -8.15 20.0 -8.1 20.0 -8.0 20.0 -7.9 20.0 -7.8 20.0 -7.7 20.0 -7.6 20.0 -7.5 20.0 -7.4 20.0 -7.3 20.0 -7.2 20.0 -7.1 20.0 -7.0 19.95 -6.95 20.15 -6.75 20.45 -6.7 20.55 -6.6 20.65 -6.55 20.8 -6.45 20.85 -6.35 20.95 -6.2 21.05 -6.1 21.15 -6.0 21.2 -5.85 21.25 -5.7 21.3 -5.6 21.35 -5.45 21.35 -5.3 21.4 -5.15 21.4 -5.0 21.4 -4.9 21.35 -4.7 21.3 -3.5 21.0 -3.45 21.05 -3.45 21.1 -3.4 21.15 -3.35 21.15 -3.3 21.15 -3.3 21.2 -3.25 21.2 -3.2 21.2 -3.2 21.25 -3.15 21.25 -3.15 21.25 -3.1 21.3 -3.05 21.3 -3.05 21.35 -3.0 21.35 -3.0 21.4 -2.95 21.4 -2.95 21.45 -2.95 21.45 -2.9 21.5 -2.85 21.55 -2.8 21.6 -2.75 21.65 -2.7 21.7 -2.65 21.7 -2.6 21.75 -2.55 21.8 -2.5 21.8 -2.45 21.85 -2.35 21.9 -2.3 21.9 -2.25 21.95 -2.2 21.95 -2.1 22.0 -2.05 22.0 -2.0 22.05 -1.95 22.05 -1.85 22.1 -1.8 22.1 -1.75 22.1 -1.7 22.1 -1.6 22.1 -1.55 22.1 -1.5 22.1 -1.45 22.05 -1.4 22.05 -1.3 22.05 -1.25 22.0 -1.2 22.0 -1.15 21.95 -1.1 21.9 -1.05 21.85 -0.9 21.75 -0.2 21.15 0.05 21.35 0.15 21.35 0.2 21.35 0.2 21.35 0.25 21.4 0.3 21.4 0.35 21.4 0.35 21.45 0.4 21.45 0.45 21.45 0.45 21.5 0.5 21.5 0.5 21.5 0.55 21.55 0.55 21.55 0.6 21.6 0.65 21.6 0.65 21.65 0.7 21.7 1.05 21.9 1.25 22.05 1.4 22.15 1.55 22.2 1.65 22.25 1.8 22.3 1.9 22.35 2.05 22.35 2.15 22.35 2.25 22.4 2.35 22.35 2.45 22.35 2.6 22.3 2.7 22.25 2.8 22.2 2.9 22.15 3.0 22.05 3.15 22.0 3.25 21.85 3.35 21.75 3.9 21.2 5.05 21.5 5.25 21.55 5.35 21.55 5.4 21.55 5.5 21.55 5.6 21.55 5.65 21.55 5.75 21.55 5.8 21.55 5.9 21.5 5.95 21.5 6.05 21.5 6.1 21.45 6.15 21.4 6.25 21.4 6.3 21.35 6.35 21.3 6.4 21.25 6.5 21.2 6.55 21.1 6.65 21.05 6.7 21.0 6.75 20.9 6.8 20.85 6.8 20.8 6.85 20.7 6.85 20.65 6.85 20.6 6.85 20.5 6.85 20.45 6.85 20.35 6.8 20.25 6.75 20.2 6.7 20.1 6.7 20.05 6.65 20.0 6.65 20.0 6.6 19.95 6.6 19.9 6.6 19.85 6.55 19.8 6.55 19.8 6.5 19.75 6.5 19.7 6.5 19.65 6.45 19.6 6.45 19.6 6.4 19.55 6.4 19.5 6.4 19.45 L6.4 19.45" fill="#000000" fill-rule="evenodd" stroke="none"/>
    <path d="M7.15 -17.15 Q7.1 -17.15 7.1 -17.15 7.05 -17.15 7.0 -17.15 6.8 -17.2 6.65 -17.25 6.45 -17.3 6.3 -17.35 6.15 -17.4 5.95 -17.5 5.8 -17.55 5.65 -17.6 5.45 -17.65 5.3 -17.75 5.15 -17.8 4.95 -17.9 4.8 -17.95 4.65 -18.05 4.5 -18.15 4.35 -18.25 4.25 -18.25 4.2 -18.3 4.15 -18.35 4.15 -18.4 4.1 -18.45 4.1 -18.5 4.1 -18.55 4.1 -18.6 4.1 -18.65 4.15 -18.7 4.2 -18.75 4.2 -18.75 4.25 -18.8 4.3 -18.8 4.35 -18.85 4.4 -18.85 4.45 -18.85 4.5 -18.85 4.65 -18.8 4.75 -18.75 4.9 -18.65 5.0 -18.6 5.15 -18.5 5.3 -18.45 5.4 -18.4 5.55 -18.3 5.7 -18.25 5.85 -18.2 5.95 -18.15 6.1 -18.1 6.25 -18.05 6.4 -18.0 6.55 -17.95 6.7 -17.9 6.85 -17.85 7.0 -17.8 7.05 -17.8 7.1 -17.8 7.15 -17.8 7.15 -17.75 7.2 -17.75 7.25 -17.75 7.3 -17.75 7.3 -17.7 7.35 -17.7 7.4 -17.65 7.45 -17.6 7.45 -17.6 7.5 -17.55 7.5 -17.5 7.5 -17.45 7.5 -17.45 7.5 -17.4 7.5 -17.35 7.5 -17.3 7.45 -17.3 7.45 -17.25 7.4 -17.2 7.35 -17.2 7.3 -17.15 7.3 -17.15 7.25 -17.15 7.2 -17.15 7.15 -17.15 L7.15 -17.15" fill="#000000" fill-rule="evenodd" stroke="none"/>
  </g>
</svg>
