<?xml version="1.0" encoding="UTF-8" standalone="no"?>
<svg xmlns:xlink="http://www.w3.org/1999/xlink" height="200.0px" width="200.0px" xmlns="http://www.w3.org/2000/svg">
  <g transform="matrix(1.0, 0.0, 0.0, 1.0, 100.0, 100.0)">
    <path d="M8.4 12.1 Q8.3 12.2 8.25 12.25 8.15 12.3 8.05 12.4 7.95 12.5 7.8 12.65 7.6 12.75 7.35 12.9 7.1 13.05 6.85 13.2 6.5 13.4 6.1 13.55 5.7 13.75 5.2 14.0 4.7 14.2 4.1 14.45 3.85 14.55 3.65 14.65 3.4 14.7 3.2 14.8 3.0 14.85 2.8 14.9 2.65 14.95 2.5 15.0 2.3 15.0 2.15 15.05 2.0 15.05 1.85 15.05 1.7 15.1 1.55 15.05 1.4 15.05 1.25 15.05 1.15 15.05 1.1 15.05 1.05 15.0 0.95 15.0 0.9 15.0 0.8 14.95 0.75 14.95 0.7 14.95 0.6 14.9 0.55 14.9 0.5 14.85 0.4 14.85 0.35 14.8 0.25 14.8 0.2 14.75 0.05 14.7 -0.2 14.6 -0.45 14.5 -0.65 14.45 -0.85 14.35 -1.0 14.25 -1.15 14.15 -1.3 14.1 -1.45 14.0 -1.7 13.85 -1.7 13.85 -1.85 13.75 -1.95 13.7 -2.1 13.65 -2.2 13.6 -2.4 13.5 -2.55 13.45 -2.7 13.4 -2.85 13.35 -3.0 13.35 -3.1 13.3 -3.25 13.3 -3.4 13.3 -3.55 13.3 -3.7 13.25 -3.85 13.25 -4.05 13.3 -4.2 13.3 -4.4 13.3 -4.55 13.3 -4.75 13.3 -4.9 13.35 -5.2 13.35 -5.4 13.35 -5.55 13.4 -5.7 13.4 -5.85 13.45 -5.95 13.45 -6.1 13.5 -6.2 13.5 -6.4 13.55 -6.55 13.6 -6.7 13.6 -6.85 13.65 -7.05 13.65 -7.25 13.7 -7.5 13.75 -7.75 13.8 -8.05 13.8 -8.35 13.85 -8.55 13.85 -8.8 13.9 -9.0 13.9 -9.15 13.95 -9.3 13.95 -9.45 13.95 -9.6 13.95 -9.7 13.95 -9.8 13.95 -9.85 13.95 -9.95 13.95 -10.0 13.9 -10.05 13.9 -10.1 13.9 -10.2 13.85 -10.35 13.8 -10.45 13.75 -10.6 13.7 -10.7 13.65 -10.8 13.55 -10.95 13.5 -11.05 13.4 -11.15 13.3 -11.25 13.25 -11.35 13.15 -11.4 13.05 -11.55 12.95 -11.6 12.85 -11.7 12.7 -11.8 12.65 -11.9 12.5 -12.1 12.25 -12.3 12.0 -12.5 11.75 -12.65 11.45 -12.8 11.2 -12.95 10.95 -13.05 10.75 -13.15 10.5 -13.25 10.3 -13.3 10.05 -13.4 9.85 -13.45 9.65 -13.5 9.5 -13.55 9.35 -13.55 9.2 -13.6 9.1 -13.6 9.0 -13.65 8.9 -13.65 8.75 -13.7 8.65 -13.7 8.5 -13.7 8.35 -13.75 8.2 -13.75 8.1 -13.75 7.95 -13.75 7.75 -13.8 7.6 -13.8 7.45 -13.8 7.3 -13.8 7.1 -13.75 6.95 -13.75 6.75 -13.15 6.0 -12.4 5.1 -11.7 4.3 -10.75 3.35 -9.75 2.35 -9.3 1.8 -9.2 1.7 -9.1 1.55 -8.95 1.45 -8.85 1.3 -8.75 1.15 -8.6 1.0 -8.45 0.85 -8.35 0.7 -8.2 0.5 -8.05 0.35 -7.9 0.15 -7.75 0.0 -7.6 -0.2 -7.45 -0.4 -7.3 -0.6 -7.15 -0.85 -7.1 -0.9 -7.0 -0.9 -6.95 -0.95 -6.9 -0.95 -6.85 -0.95 -6.75 -0.95 -6.7 -1.0 -6.65 -1.0 -6.6 -1.0 -6.6 -1.0 -6.55 -1.0 -6.5 -0.95 -6.45 -0.95 -6.45 -0.95 -6.4 -0.95 -6.4 -0.95 -6.35 -0.9 -6.25 -0.9 -6.2 -0.85 -6.15 -0.8 -6.1 -0.75 -6.05 -0.65 -6.0 -0.6 -5.95 -0.5 -5.9 -0.45 -5.85 -0.3 -5.75 -0.15 -5.7 -0.05 -5.6 0.1 -5.5 0.25 -5.4 0.4 -5.3 0.6 -5.25 0.65 -5.2 0.7 -5.2 0.75 -5.15 0.8 -5.1 0.85 -5.1 0.9 -5.05 0.95 -5.0 1.0 -5.0 1.0 -4.95 1.05 -4.9 1.05 -4.85 1.1 -4.85 1.1 -4.8 1.15 -4.75 1.15 -4.7 1.2 -4.65 1.2 -4.6 1.25 -4.55 1.25 -4.5 1.25 -4.45 1.25 -4.4 1.25 -4.35 1.25 -4.3 1.25 -4.25 1.25 -4.2 1.25 -4.15 1.25 -4.1 1.2 -4.05 1.2 -4.0 1.2 -3.95 1.2 -3.9 1.15 -3.8 1.1 -3.75 1.05 -3.65 1.0 -3.6 0.9 -3.55 0.85 -3.5 0.75 -3.4 0.65 -3.35 0.55 -3.3 0.45 -3.3 0.3 -3.25 0.15 -3.2 0.0 -3.15 -0.15 -3.1 -0.35 -3.05 -0.5 -3.0 -0.75 -2.95 -0.85 -2.95 -1.0 -2.9 -1.1 -2.9 -1.25 -2.9 -1.35 -2.85 -1.45 -2.85 -1.55 -2.8 -1.65 -2.8 -1.75 -2.8 -1.85 -2.8 -1.95 -2.8 -2.0 -2.75 -2.1 -2.75 -2.2 -2.75 -2.25 -2.75 -2.3 -2.75 -2.55 -2.7 -2.7 -2.7 -2.9 -2.7 -3.0 -2.7 -3.2 -2.7 -3.3 -2.7 -3.45 -2.7 -3.55 -2.7 -3.65 -2.7 -3.75 -2.7 -3.85 -2.75 -3.95 -2.75 -4.0 -2.8 -4.1 -2.85 -4.15 -2.9 -4.2 -2.95 -4.3 -3.05 -4.35 -3.15 -4.4 -3.3 -4.45 -3.45 -4.5 -3.55 -4.5 -3.7 -4.5 -3.9 -4.5 -4.05 -4.5 -4.2 -4.5 -4.4 -4.45 -4.6 -4.4 -4.75 -4.35 -4.95 -4.3 -5.15 -4.2 -5.35 -4.15 -5.0 -4.95 -4.2 -6.7 -3.8 -6.65 -3.0 -6.6 -2.45 -5.8 -1.4 -4.25 -1.35 -4.3 -1.3 -4.3 -1.25 -4.35 -1.2 -4.4 -1.15 -4.45 -1.1 -4.45 -1.05 -4.5 -0.95 -4.55 -0.9 -4.6 -0.85 -4.65 -0.8 -4.7 -0.7 -4.75 -0.65 -4.85 -0.6 -4.9 -0.5 -4.95 -0.45 -5.0 -0.25 -5.2 -0.05 -5.45 0.15 -5.7 0.3 -5.95 0.45 -6.15 0.55 -6.4 0.65 -6.6 0.75 -6.85 0.85 -7.05 0.9 -7.25 0.95 -7.4 1.0 -7.6 1.05 -7.75 1.1 -7.9 1.1 -8.0 1.15 -8.1 1.2 -8.35 1.2 -8.4 1.2 -8.55 1.25 -8.65 1.25 -8.8 1.25 -8.95 1.25 -9.05 1.25 -9.2 1.25 -9.35 1.25 -9.45 1.25 -9.6 1.2 -9.7 1.15 -9.8 1.1 -9.9 1.05 -10.0 0.95 -10.1 0.9 -10.15 0.85 -10.2 0.8 -10.25 0.7 -10.3 0.65 -10.35 0.6 -10.35 0.55 -10.4 0.45 -10.4 0.4 -10.45 0.35 -10.45 0.3 -10.45 0.25 -10.45 0.2 -10.45 0.15 -10.5 0.15 -10.5 0.1 -10.5 -0.15 -10.55 -0.45 -10.45 -0.7 -10.4 -0.95 -10.3 -1.2 -10.2 -1.45 -10.0 -1.65 -9.85 -1.85 -9.7 -2.0 -9.5 -2.2 -9.3 -2.3 -9.15 -2.45 -9.0 -2.55 -8.85 -2.65 -8.75 -2.7 -8.7 -2.7 -8.6 -2.95 -8.8 -3.35 -9.1 -3.2 -9.4 -3.1 -9.7 -2.95 -10.0 -2.85 -10.3 -2.75 -10.55 -2.65 -10.85 -2.55 -11.1 -2.5 -11.35 -2.4 -11.6 -2.35 -11.85 -2.3 -12.05 -2.25 -12.3 -2.2 -12.5 -2.15 -12.7 -2.1 -12.9 -2.1 -13.1 -2.1 -13.2 -2.05 -13.4 -2.0 -13.6 -2.0 -13.7 -1.95 -13.9 -1.95 -14.05 -1.9 -14.2 -1.85 -14.35 -1.8 -14.5 -1.75 -14.65 -1.7 -14.8 -1.6 -14.9 -1.55 -15.0 -1.45 -15.1 -1.35 -15.2 -1.2 -15.25 -1.15 -15.25 -1.1 -15.3 -1.05 -15.3 -1.0 -15.3 -0.9 -15.3 -0.85 -15.3 -0.8 -15.3 -0.75 -15.3 -0.7 -15.3 -0.65 -15.25 -0.6 -15.25 -0.55 -15.25 -0.5 -15.25 -0.45 -15.25 -0.45 -15.2 -0.4 -15.2 -0.35 -15.2 -0.3 -15.2 -0.25 -15.15 -0.2 -15.15 -0.1 -15.1 -0.05 -15.1 0.05 -15.05 0.1 -15.05 0.2 -15.0 0.25 -14.95 0.35 -14.9 0.4 -14.8 0.5 -14.75 0.55 -14.7 0.6 -14.6 0.6 -14.5 0.65 -14.45 0.65 -14.4 0.65 -14.35 0.65 -14.3 0.65 -14.25 0.65 -14.2 0.6 -14.15 0.6 -14.1 0.5 -13.85 0.55 -14.0 0.55 -13.95 0.55 -13.9 0.5 -13.85 0.5 -13.8 0.5 -13.7 0.5 -13.65 0.5 -13.5 0.6 -13.4 0.65 -13.3 0.75 -13.15 0.85 -13.05 0.95 -12.95 1.1 -12.85 1.25 -12.75 1.4 -12.65 1.55 -12.6 1.7 -12.5 1.85 -12.45 2.05 -12.4 2.2 -12.35 2.35 -12.3 2.5 -12.25 2.65 -12.2 2.75 -12.2 2.9 -12.2 3.0 -12.2 3.1 -12.2 3.2 -12.2 3.25 -12.2 3.45 -12.2 3.6 -12.2 3.7 -12.2 3.85 -12.2 4.0 -12.2 4.2 -12.2 4.4 -12.2 4.65 -12.15 4.95 -12.15 5.1 -12.15 5.25 -12.1 5.4 -12.1 5.5 -12.05 5.65 -12.05 5.75 -12.05 5.8 -12.0 5.9 -12.0 5.95 -12.0 6.0 -11.95 6.05 -11.95 6.1 -11.9 6.15 -11.9 6.2 -11.9 6.25 -11.85 6.25 -11.85 6.35 -11.8 6.45 -11.7 6.55 -11.6 6.6 -11.5 6.65 -11.45 6.75 -11.35 6.75 -11.3 6.85 -11.2 6.9 -11.05 6.95 -11.0 7.0 -10.9 7.05 -10.85 7.1 -10.75 7.2 -10.7 7.25 -10.6 7.35 -10.55 7.4 -10.5 7.5 -10.5 7.55 -10.45 7.6 -10.45 7.7 -10.4 7.75 -10.4 7.85 -10.4 7.95 -10.4 8.05 -10.4 8.15 -10.4 8.25 -10.4 8.4 -10.4 8.5 -10.4 8.7 -10.45 8.85 -10.45 9.05 -10.45 10.85 -10.65 11.55 -10.7 11.55 -10.55 11.5 -10.45 11.5 -10.3 11.5 -10.15 11.45 -9.95 11.45 -9.8 11.4 -9.6 11.4 -9.45 11.35 -9.25 11.35 -9.05 11.3 -8.85 11.3 -8.65 11.25 -8.45 11.2 -8.2 11.2 -8.0 11.15 -7.75 11.0 -6.95 10.8 -6.05 10.5 -4.8 10.45 -4.45 10.15 -3.0 9.75 -0.2 9.05 4.5 9.05 5.5 9.05 5.7 9.05 5.95 9.1 6.2 9.1 6.45 9.1 6.6 9.1 6.95 9.1 7.25 9.1 7.4 9.1 7.65 9.1 7.9 9.1 8.15 9.1 8.35 9.1 8.6 9.15 8.85 9.15 9.1 9.2 9.3 9.2 9.4 9.2 9.4 9.25 9.45 9.25 9.55 9.25 9.6 9.25 9.7 9.25 9.8 9.25 9.85 9.25 9.95 9.25 10.05 9.25 10.2 9.25 10.3 9.25 10.4 9.2 10.5 9.2 10.65 9.15 10.75 9.15 10.85 9.1 10.9 9.05 11.0 9.05 11.1 9.0 11.15 8.95 11.25 8.9 11.35 8.85 11.4 8.85 11.5 8.75 11.55 8.7 11.65 8.65 11.75 8.6 11.85 8.55 11.9 8.45 12.0 8.4 12.1 L8.4 12.1" fill="#37a0aa" fill-rule="evenodd" stroke="none"/>
  </g>
</svg>
