<?xml version="1.0" encoding="UTF-8" standalone="no"?>
<svg xmlns:xlink="http://www.w3.org/1999/xlink" height="200.0px" width="200.0px" xmlns="http://www.w3.org/2000/svg">
  <g transform="matrix(1.0, 0.0, 0.0, 1.0, 100.0, 100.0)">
    <path d="M-14.55 -9.5 Q-14.55 -9.55 -14.5 -9.55 -14.45 -9.6 -14.4 -9.6 -14.4 -9.6 -14.35 -9.6 -14.35 -9.6 -14.3 -9.6 -14.3 -9.6 -14.05 -9.35 -14.05 -9.35 -14.05 -9.35 -14.1 -9.3 -14.1 -9.3 -14.15 -9.25 -14.2 -9.25 -14.25 -9.2 -14.3 -9.2 -14.3 -9.15 -14.35 -9.15 -14.4 -9.15 -14.4 -9.15 -14.4 -9.15 -14.4 -9.2 -14.5 -9.2 -14.5 -9.3 -14.5 -9.45 -14.55 -9.5 L-14.55 -9.5" fill="#000000" fill-opacity="0.21960784" fill-rule="evenodd" stroke="none"/>
    <path d="M-9.8 0.2 Q-9.9 0.15 -10.0 0.1 -10.05 0.1 -10.1 0.05 -10.2 0.0 -10.25 -0.1 -10.3 -0.15 -10.35 -0.2 -10.35 -0.25 -10.4 -0.35 -10.45 -0.4 -10.45 -0.45 -10.5 -0.55 -10.5 -0.6 -10.5 -0.7 -10.5 -0.8 -10.5 -1.1 -10.55 -1.4 -10.55 -1.65 -10.55 -1.95 -10.5 -2.25 -10.5 -2.5 -10.45 -2.8 -10.45 -3.1 -10.4 -3.35 -10.35 -3.65 -10.3 -3.95 -10.25 -4.2 -10.15 -4.5 -10.1 -4.75 -10.0 -5.05 -9.9 -5.3 -9.8 -5.55 -9.7 -5.8 -9.6 -6.0 -9.45 -6.15 -9.35 -6.3 -9.2 -6.4 -9.05 -6.5 -8.9 -6.5 -8.75 -6.55 -8.6 -6.5 -8.45 -6.5 -8.25 -6.4 -8.1 -6.3 -7.9 -6.15 -7.7 -6.0 -7.55 -5.8 -7.5 -5.75 -7.45 -5.7 -7.35 -5.6 -7.3 -5.55 -7.25 -5.5 -7.2 -5.4 -7.15 -5.35 -7.1 -5.3 -7.05 -5.2 -7.0 -5.15 -6.9 -5.1 -6.85 -5.0 -6.8 -4.95 -6.75 -4.85 -6.7 -4.75 -6.65 -4.7 -6.2 -5.6 -6.05 -6.1 -6.1 -6.1 -6.1 -6.15 -6.15 -6.15 -6.15 -6.15 -6.35 -6.1 -6.55 -6.1 -6.75 -6.1 -6.9 -6.15 -7.05 -6.15 -7.15 -6.2 -7.3 -6.25 -7.4 -6.35 -7.5 -6.45 -7.55 -6.55 -7.65 -6.65 -7.7 -6.8 -7.75 -6.95 -7.75 -7.15 -7.8 -7.3 -7.8 -7.55 -7.8 -7.8 -7.75 -8.0 -7.75 -8.25 -7.7 -8.5 -7.65 -8.7 -7.6 -8.95 -7.55 -9.15 -7.5 -9.4 -7.4 -9.6 -7.35 -9.85 -7.25 -10.05 -7.15 -10.3 -7.1 -10.5 -7.0 -10.75 -7.0 -10.75 -6.8 -11.2 -6.75 -11.3 -6.75 -11.35 -6.7 -11.45 -6.65 -11.5 -6.65 -11.6 -6.6 -11.65 -6.55 -11.75 -6.5 -11.85 -6.45 -11.9 -6.45 -12.0 -6.4 -12.05 -6.35 -12.15 -6.3 -12.2 -6.25 -12.3 -6.2 -12.35 -6.15 -12.45 -6.0 -12.6 -5.9 -12.75 -5.75 -12.85 -5.6 -12.95 -5.45 -13.0 -5.35 -13.05 -5.2 -13.1 -5.05 -13.1 -4.9 -13.1 -4.8 -13.05 -4.65 -13.0 -4.55 -12.9 -4.4 -12.8 -4.3 -12.65 -4.15 -12.5 -4.05 -12.35 -4.0 -12.25 -3.85 -12.0 -3.0 -14.35 -2.8 -14.85 -2.75 -14.95 -2.7 -15.1 -2.65 -15.2 -2.65 -15.3 -2.6 -15.4 -2.6 -15.5 -2.6 -15.6 -2.6 -15.7 -2.65 -15.8 -2.65 -15.9 -2.7 -16.0 -2.75 -16.05 -2.8 -16.15 -2.85 -16.25 -2.9 -16.35 -3.0 -16.45 -3.15 -16.65 -3.3 -16.85 -3.4 -17.05 -3.55 -17.25 -3.7 -17.45 -3.8 -17.65 -3.9 -17.85 -4.05 -18.05 -4.15 -18.25 -4.25 -18.5 -4.35 -18.7 -4.45 -18.9 -4.55 -19.15 -4.65 -19.35 -4.75 -19.6 -4.8 -19.8 -4.85 -19.9 -4.85 -19.95 -4.85 -20.0 -4.85 -20.1 -4.85 -20.15 -4.85 -20.2 -4.85 -20.25 -4.8 -20.3 -4.8 -20.35 -4.75 -20.35 -4.75 -20.4 -4.7 -20.45 -4.65 -20.5 -4.6 -20.5 -4.55 -20.55 -4.45 -20.55 -4.3 -20.6 -4.15 -20.65 -4.0 -20.75 -3.85 -20.8 -3.7 -20.85 -3.55 -20.85 -3.4 -20.9 -3.25 -20.95 -3.1 -21.0 -2.95 -21.0 -2.8 -21.05 -2.65 -21.1 -2.5 -21.1 -2.35 -21.15 -2.2 -21.15 -2.0 -21.2 -0.8 -21.35 -0.65 -21.4 -0.6 -21.4 -0.55 -21.4 -0.5 -21.4 -0.45 -21.4 -0.4 -21.4 -0.35 -21.4 -0.3 -21.4 -0.3 -21.4 -0.25 -21.35 -0.2 -21.35 -0.15 -21.3 -0.15 -21.25 -0.1 -21.25 -0.1 -21.2 -0.05 -21.15 0.0 -21.1 0.95 -19.4 0.95 -19.4 1.0 -19.35 1.0 -19.35 1.05 -19.3 1.05 -19.3 1.1 -19.25 1.1 -19.25 1.15 -19.2 1.15 -19.2 1.2 -19.15 1.25 -19.15 1.25 -19.1 1.3 -19.1 1.35 -19.1 1.35 -19.05 1.4 -19.05 1.45 -19.05 1.5 -19.05 1.55 -19.05 1.55 -19.0 1.6 -19.0 1.65 -19.0 1.7 -18.95 1.7 -18.95 1.75 -18.9 1.85 -18.85 1.95 -18.75 2.0 -18.7 2.1 -18.65 2.2 -18.6 2.3 -18.55 2.4 -18.55 2.5 -18.5 2.6 -18.45 2.75 -18.45 2.85 -18.4 2.95 -18.4 3.05 -18.35 3.15 -18.35 3.25 -18.35 3.4 -18.3 3.6 -18.25 3.8 -18.2 4.0 -18.2 4.2 -18.1 4.4 -18.05 4.55 -17.95 4.75 -17.85 4.9 -17.75 5.1 -17.65 5.25 -17.55 5.4 -17.45 5.55 -17.3 5.7 -17.15 5.85 -17.0 6.0 -16.85 6.1 -16.7 6.15 -16.65 6.15 -16.65 6.2 -16.6 6.2 -16.6 6.25 -16.55 6.25 -16.55 6.3 -16.5 6.3 -16.5 6.35 -16.5 6.4 -16.45 6.4 -16.45 6.45 -16.45 6.5 -16.45 6.5 -16.4 6.55 -16.4 6.6 -16.4 6.7 -16.4 6.75 -16.4 6.85 -16.35 6.95 -16.35 7.0 -16.35 7.1 -16.3 7.15 -16.3 7.25 -16.25 7.3 -16.2 7.4 -16.2 7.45 -16.15 7.5 -16.1 7.6 -16.05 7.65 -16.0 7.7 -15.95 7.8 -15.9 7.85 -15.85 7.85 -15.85 7.9 -15.8 7.95 -15.8 7.95 -15.8 8.0 -15.75 8.05 -15.75 8.05 -15.75 8.1 -15.75 8.15 -15.75 8.2 -15.75 8.2 -15.75 8.25 -15.75 8.3 -15.75 8.35 -15.75 8.4 -15.75 8.6 -15.75 8.75 -15.8 8.9 -15.8 9.1 -15.8 9.25 -15.8 9.4 -15.8 9.6 -15.8 9.75 -15.8 9.95 -15.8 10.1 -15.8 10.3 -15.8 10.45 -15.8 10.6 -15.8 10.8 -15.75 10.95 -15.75 11.15 -15.7 11.15 -15.7 11.2 -15.7 11.25 -15.7 11.3 -15.65 11.4 -15.6 11.45 -15.55 11.55 -15.5 11.65 -15.5 11.75 -15.45 11.8 -15.45 11.9 -15.45 12.0 -15.5 12.05 -15.5 12.15 -15.5 12.25 -15.55 12.35 -15.6 12.4 -15.6 12.5 -15.65 12.6 -15.7 12.65 -15.7 12.75 -15.75 12.8 -15.75 12.9 -15.75 12.95 -15.8 13.0 -15.8 13.1 -15.8 13.15 -15.8 13.2 -15.75 13.3 -15.75 13.35 -15.7 13.4 -15.7 13.45 -15.65 13.5 -15.6 13.55 -15.55 13.6 -15.5 13.65 -15.45 14.45 -14.45 14.85 -13.9 14.9 -13.8 14.95 -13.75 15.0 -13.65 15.0 -13.6 15.0 -13.5 15.05 -13.45 15.05 -13.35 15.0 -13.3 15.0 -13.25 15.0 -13.15 14.95 -13.1 14.9 -13.05 14.85 -13.0 14.8 -12.9 14.75 -12.85 14.65 -12.8 14.3 -12.55 13.1 -12.1 13.05 -12.05 13.0 -12.05 12.95 -12.0 12.9 -12.0 12.85 -11.95 12.8 -11.95 12.75 -11.9 12.75 -11.9 12.7 -11.85 12.65 -11.8 12.65 -11.75 12.6 -11.7 12.6 -11.65 12.6 -11.6 12.55 -11.55 12.55 -11.45 12.55 -11.3 12.0 -9.45 11.85 -8.9 11.7 -8.35 11.55 -7.8 11.4 -7.25 11.25 -6.7 11.15 -6.1 11.0 -5.55 10.9 -4.95 10.8 -4.4 10.7 -3.85 10.6 -3.3 10.5 -2.7 10.4 -2.15 10.3 -1.55 10.25 -1.0 10.15 -0.4 10.1 0.0 10.05 0.4 10.0 0.85 9.95 1.25 9.9 1.65 9.85 2.05 9.8 2.5 9.75 2.9 9.75 3.3 9.7 3.7 9.65 4.15 9.65 4.55 9.6 4.95 9.6 5.35 9.6 5.8 9.55 6.2 9.55 6.35 9.55 6.5 9.55 6.6 9.55 6.75 9.55 6.9 9.55 7.05 9.6 7.2 9.6 7.3 9.6 7.45 9.6 7.6 9.6 7.75 9.65 7.9 9.65 8.0 9.65 8.15 9.65 8.3 9.7 8.45 9.7 8.7 9.7 8.9 9.7 9.15 9.7 9.35 9.7 9.6 9.6 9.8 9.55 10.0 9.5 10.2 9.4 10.4 9.3 10.6 9.2 10.8 9.05 10.95 8.9 11.1 8.75 11.25 8.55 11.4 8.35 11.55 8.0 11.8 7.65 12.0 7.25 12.25 6.9 12.45 6.55 12.65 6.2 12.85 5.8 13.05 5.45 13.2 5.05 13.4 4.7 13.55 4.3 13.7 3.9 13.8 3.5 13.95 3.1 14.05 2.7 14.15 2.3 14.25 2.05 14.3 1.8 14.3 1.6 14.35 1.35 14.35 1.1 14.35 0.85 14.3 0.65 14.3 0.4 14.25 0.2 14.2 -0.05 14.15 -0.3 14.1 -0.5 14.0 -0.75 13.95 -0.95 13.85 -1.2 13.75 -1.4 13.65 -2.9 13.05 -3.15 13.0 -3.2 13.0 -3.3 13.0 -3.35 12.95 -3.4 12.95 -3.45 12.95 -3.55 12.95 -3.6 12.95 -3.65 12.95 -3.75 12.95 -3.8 12.95 -3.85 12.95 -3.9 12.95 -4.0 12.95 -4.05 12.95 -4.1 12.95 -4.15 12.95 -7.6 12.9 -9.2 13.15 -9.45 13.2 -9.7 13.2 -9.9 13.2 -10.15 13.2 -10.35 13.15 -10.55 13.1 -10.8 13.05 -11.0 13.0 -11.2 12.9 -11.35 12.8 -11.55 12.65 -11.75 12.5 -11.9 12.35 -12.05 12.2 -12.25 12.0 -12.4 11.8 -12.55 11.55 -12.7 11.35 -12.85 11.1 -13.0 10.85 -13.15 10.6 -13.25 10.35 -13.4 10.1 -13.55 9.85 -13.65 9.6 -13.75 9.35 -13.9 9.1 -14.0 8.85 -14.1 8.6 -14.15 8.35 -14.25 8.05 -14.3 7.8 -14.35 7.55 -14.4 7.3 -14.45 7.05 -14.45 6.8 -14.45 6.55 -14.45 6.35 -14.4 6.1 -14.35 5.9 -14.3 5.65 -14.2 5.45 -14.15 5.2 -14.05 5.0 -13.9 4.8 -13.8 4.6 -13.65 4.4 -13.5 4.2 -13.05 3.7 -12.15 2.8 -11.25 1.85 -10.85 1.4 -10.65 1.2 -10.35 0.8 -10.0 0.4 -9.8 0.2 L-9.8 0.2 M-5.7 11.5 Q-5.7 11.5 -5.95 11.4 -6.1 11.35 -6.25 11.3 -6.45 11.25 -6.6 11.2 -6.75 11.1 -6.9 11.05 -7.05 11.0 -7.2 10.95 -7.35 10.9 -7.55 10.9 -7.7 10.85 -7.85 10.8 -8.0 10.75 -8.2 10.7 -8.35 10.65 -8.5 10.65 -8.55 10.65 -8.6 10.65 -8.65 10.6 -8.7 10.6 -8.75 10.6 -8.8 10.55 -8.85 10.55 -8.85 10.5 -8.9 10.5 -8.95 10.45 -8.95 10.4 -9.0 10.35 -9.0 10.35 -9.0 10.3 -9.0 10.25 -9.0 10.15 -9.0 10.1 -9.0 10.05 -9.0 10.0 -8.95 9.95 -8.95 9.95 -8.9 9.9 -8.9 9.9 -8.85 9.85 -8.8 9.85 -8.75 9.85 -8.7 9.85 -8.65 9.85 -8.65 9.8 -8.6 9.8 -8.55 9.8 -8.5 9.8 -8.4 9.8 -8.3 9.75 -8.2 9.75 -8.1 9.75 -8.0 9.75 -7.9 9.7 -7.8 9.7 -7.7 9.7 -7.6 9.7 -7.5 9.7 -7.4 9.7 -7.3 9.7 -7.2 9.75 -7.1 9.75 -7.0 9.75 -6.9 9.75 -6.7 9.8 -6.45 9.85 -6.25 9.9 -6.05 9.95 -5.85 10.05 -5.65 10.1 -5.45 10.2 -5.25 10.25 -5.05 10.35 -4.85 10.45 -4.65 10.55 -4.45 10.65 -4.25 10.7 -4.05 10.8 -3.85 10.9 -3.65 11.05 -1.45 12.25 -0.45 12.65 -0.25 12.75 -0.05 12.8 0.15 12.85 0.35 12.9 0.55 12.95 0.75 12.95 0.95 13.0 1.15 13.0 1.35 13.0 1.55 13.0 1.75 13.0 2.0 12.95 2.2 12.95 2.4 12.9 2.6 12.85 2.8 12.8 3.1 12.7 3.4 12.6 3.65 12.5 3.95 12.4 4.25 12.3 4.5 12.15 4.8 12.05 5.05 11.9 5.35 11.75 5.6 11.6 5.85 11.5 6.15 11.35 6.4 11.2 6.7 11.05 6.9 10.9 7.25 10.75 7.45 10.65 7.6 10.5 7.75 10.4 7.9 10.25 8.0 10.1 8.1 9.95 8.2 9.8 8.25 9.65 8.3 9.5 8.35 9.3 8.4 9.15 8.4 8.95 8.4 8.8 8.4 8.6 8.4 8.4 8.35 8.2 8.35 8.1 8.3 8.0 8.3 7.9 8.3 7.75 8.3 7.65 8.25 7.55 8.25 7.45 8.25 7.35 8.25 7.25 8.25 7.15 8.25 7.0 8.25 6.9 8.25 6.8 8.25 6.7 8.25 6.6 8.25 6.5 8.25 6.15 8.25 5.75 8.3 5.4 8.3 5.0 8.35 4.65 8.35 4.25 8.4 3.9 8.4 3.5 8.45 3.15 8.45 2.75 8.5 2.4 8.55 2.0 8.6 1.65 8.65 1.3 8.65 0.9 8.7 0.55 8.8 -0.15 8.9 -0.75 9.0 -1.45 9.05 -2.1 9.15 -2.8 9.3 -3.4 9.4 -4.1 9.5 -4.7 9.65 -5.4 9.75 -6.0 9.9 -6.7 10.05 -7.3 10.2 -8.0 10.4 -8.6 10.55 -9.25 10.75 -9.9 10.8 -10.1 10.9 -10.4 11.0 -10.8 11.05 -10.95 10.85 -10.95 10.35 -10.9 10.15 -10.9 10.0 -10.85 9.8 -10.85 9.6 -10.85 9.45 -10.85 9.25 -10.85 9.05 -10.85 8.9 -10.85 8.7 -10.85 8.55 -10.85 8.35 -10.85 8.2 -10.9 8.0 -10.9 7.8 -10.95 7.65 -11.0 7.45 -11.05 7.35 -11.1 7.3 -11.1 7.2 -11.15 7.15 -11.2 7.05 -11.25 7.0 -11.3 6.95 -11.35 6.9 -11.4 6.85 -11.45 6.85 -11.5 6.8 -11.55 6.75 -11.65 6.75 -11.7 6.7 -11.8 6.7 -11.9 6.7 -11.95 6.7 -12.0 6.7 -12.05 6.7 -12.15 6.7 -12.15 6.7 -12.2 6.65 -12.2 6.65 -12.25 6.65 -12.3 6.6 -12.3 6.55 -12.35 6.7 -12.3 6.35 -12.4 6.2 -12.45 6.1 -12.5 6.0 -12.5 5.9 -12.55 5.8 -12.55 5.7 -12.6 5.55 -12.6 5.45 -12.6 5.35 -12.65 5.25 -12.65 5.15 -12.65 5.05 -12.6 4.9 -12.6 4.8 -12.55 4.7 -12.5 4.6 -12.5 4.5 -12.5 4.4 -12.45 4.3 -12.45 4.2 -12.45 4.1 -12.45 4.0 -12.45 3.95 -12.5 3.85 -12.5 3.75 -12.5 3.65 -12.55 3.55 -12.55 3.45 -12.6 3.4 -12.65 3.3 -12.7 3.05 -12.8 2.6 -13.0 2.15 -13.2 1.95 -13.3 1.85 -13.35 1.8 -13.35 1.7 -13.4 1.6 -13.45 1.6 -13.45 1.45 -13.5 1.35 -13.55 1.3 -13.55 1.2 -13.6 1.1 -13.6 1.05 -13.65 0.95 -13.7 0.85 -13.75 0.8 -13.75 0.7 -13.8 0.65 -13.85 0.5 -13.95 0.45 -14.0 0.3 -14.05 0.25 -14.15 0.15 -14.2 0.1 -14.3 0.05 -14.35 0.0 -14.45 0.0 -14.55 -0.05 -14.65 -0.05 -14.7 -0.05 -14.85 -0.05 -14.95 -0.05 -15.05 -0.05 -15.15 0.0 -15.3 0.0 -15.35 0.0 -15.4 0.0 -15.4 -0.05 -15.45 -0.05 -15.45 -0.1 -15.5 -0.2 -15.6 -0.25 -15.65 -0.3 -15.7 -0.4 -15.75 -0.45 -15.75 -0.5 -15.8 -0.6 -15.8 -0.65 -15.8 -0.7 -15.8 -0.8 -15.75 -0.85 -15.75 -0.9 -15.7 -0.95 -15.65 -1.05 -15.55 -1.1 -15.5 -1.15 -15.4 -1.15 -15.35 -1.2 -15.35 -1.2 -15.3 -1.25 -15.25 -1.25 -15.25 -1.25 -15.2 -1.25 -15.2 -1.3 -15.15 -1.35 -15.05 -2.95 -10.65 -3.8 -8.3 -3.05 -10.5 -3.05 -10.4 -3.0 -10.35 -2.9 -10.3 -2.85 -10.35 -1.1 -11.85 -2.7 -10.5 -2.55 -10.65 -2.45 -10.7 -2.3 -10.85 -2.15 -10.95 -2.0 -11.05 -1.9 -11.15 -1.75 -11.25 -1.6 -11.35 -1.45 -11.45 -1.3 -11.55 -1.15 -11.65 -1.0 -11.7 -0.85 -11.8 -0.7 -11.85 -0.5 -11.95 -0.35 -12.0 -0.25 -12.05 -0.1 -12.05 0.0 -12.1 0.1 -12.1 0.25 -12.1 0.35 -12.05 0.45 -12.05 0.55 -12.0 0.65 -12.0 0.75 -11.95 0.85 -11.9 0.9 -11.8 1.0 -11.75 1.1 -11.65 1.15 -11.55 1.25 -11.45 1.35 -11.35 1.4 -11.25 1.45 -11.15 1.5 -11.05 1.55 -10.9 1.6 -10.8 1.6 -10.7 1.65 -10.55 1.65 -10.45 1.65 -10.35 1.65 -10.2 1.65 -10.1 1.7 -10.0 1.65 -9.85 1.65 -9.75 1.65 -9.6 1.6 -9.3 1.55 -9.0 1.5 -8.75 1.4 -8.45 1.3 -8.2 1.2 -7.95 1.1 -7.7 0.95 -7.4 0.8 -7.2 0.65 -6.95 0.5 -6.7 0.35 -6.45 0.2 -6.25 0.0 -6.0 -0.2 -5.8 -0.35 -5.55 -0.45 -5.4 -0.6 -5.3 -0.75 -5.2 -0.85 -5.15 -1.0 -5.05 -1.1 -5.05 -1.25 -5.0 -1.35 -5.0 -1.5 -5.05 -1.6 -5.05 -1.75 -5.1 -1.85 -5.2 -2.0 -5.3 -2.1 -5.4 -2.25 -5.5 -2.35 -5.65 -2.4 -5.75 -2.5 -5.85 -2.55 -5.95 -2.6 -6.05 -2.7 -6.15 -2.75 -6.3 -2.8 -6.4 -2.85 -6.5 -2.9 -6.6 -2.95 -6.7 -3.0 -6.8 -3.1 -6.95 -3.15 -7.05 -3.2 -7.15 -3.25 -7.25 -3.3 -7.35 -3.3 -7.3 -3.3 -7.4 -3.35 -7.45 -3.35 -7.45 -3.35 -7.5 -3.35 -7.5 -3.35 -7.55 -3.4 -7.55 -3.4 -7.6 -3.4 -7.6 -3.45 -7.6 -3.45 -7.6 -3.5 -7.65 -3.5 -7.65 -3.55 -7.65 -3.6 -7.65 -3.65 -7.65 -3.65 -7.65 -3.7 -7.65 -3.75 -7.65 -3.8 -7.65 -3.8 -7.65 -3.85 -7.6 -3.9 -7.6 -3.9 -7.6 -3.95 -7.6 -3.95 -7.55 -4.0 -7.55 -4.0 -7.5 -4.05 -7.5 -4.05 -7.45 -4.1 -7.4 -4.4 -6.65 -4.65 -6.0 -4.4 -6.05 -4.15 -6.1 -3.9 -6.1 -3.7 -6.1 -3.5 -6.1 -3.35 -6.0 -3.15 -5.95 -3.05 -5.85 -2.9 -5.8 -2.8 -5.65 -2.7 -5.5 -2.6 -5.3 -2.5 -5.15 -2.45 -4.9 -2.4 -4.7 -2.35 -4.4 -2.3 -4.1 -2.3 -3.85 -2.3 -3.55 -2.3 -3.3 -2.3 -3.0 -2.35 -2.75 -2.4 -2.5 -2.45 -2.2 -2.55 -1.95 -2.6 -1.7 -2.7 -1.45 -2.8 -1.2 -2.9 -0.95 -3.0 -0.7 -3.15 -0.45 -3.3 -0.2 -3.4 -0.05 -3.45 0.05 -3.55 0.2 -3.65 0.3 -3.8 0.35 -3.9 0.4 -4.0 0.45 -4.15 0.5 -4.25 0.5 -4.4 0.5 -4.5 0.5 -4.65 0.45 -4.8 0.4 -4.9 0.35 -5.05 0.25 -5.2 0.15 -5.3 0.1 -5.4 0.0 -5.45 -0.05 -5.55 -0.15 -5.65 -0.2 -5.7 -0.3 -5.8 -0.4 -5.85 -0.5 -5.9 -0.6 -6.0 -0.65 -6.05 -0.75 -6.1 -0.85 -6.2 -0.95 -6.25 -1.05 -6.3 -1.15 -6.35 -1.25 -6.4 -1.35 -6.45 -1.4 -6.5 -1.5 -6.55 -1.55 -6.6 -1.55 -6.65 -1.6 -6.7 -1.6 -6.75 -1.6 -6.75 -1.6 -6.8 -1.6 -6.85 -1.6 -6.9 -1.55 -6.95 -1.5 -7.0 -1.4 -7.05 -1.35 -7.1 -1.25 -7.35 -0.95 -7.55 -0.65 -7.8 -0.3 -8.0 0.0 -8.25 0.3 -8.45 0.6 -8.7 0.9 -8.95 1.2 -9.2 1.5 -9.45 1.8 -9.7 2.1 -9.95 2.35 -10.2 2.65 -10.45 2.9 -10.75 3.2 -11.0 3.45 -12.1 4.55 -12.5 5.05 -12.6 5.2 -12.7 5.3 -12.8 5.45 -12.85 5.6 -12.95 5.75 -13.0 5.9 -13.05 6.05 -13.1 6.2 -13.1 6.35 -13.15 6.5 -13.15 6.65 -13.15 6.8 -13.15 7.0 -13.1 7.15 -13.1 7.3 -13.05 7.5 -13.0 7.7 -12.9 7.95 -12.85 8.15 -12.75 8.35 -12.7 8.55 -12.6 8.8 -12.5 8.95 -12.4 9.2 -12.3 9.4 -12.2 9.6 -12.1 9.75 -11.95 10.0 -11.85 10.15 -11.75 10.35 -11.65 10.55 -11.5 10.75 -11.4 10.95 -11.3 11.05 -11.15 11.2 -11.05 11.35 -10.9 11.45 -10.8 11.55 -10.65 11.65 -10.5 11.7 -10.35 11.8 -10.2 11.8 -10.05 11.85 -9.9 11.85 -9.7 11.9 -9.55 11.9 -9.35 11.85 -9.15 11.85 -8.1 11.65 -5.7 11.5 L-5.7 11.5 M0.8 -9.9 Q0.8 -9.95 0.8 -10.0 0.8 -10.0 0.8 -10.05 0.8 -10.1 0.8 -10.15 0.8 -10.2 0.75 -10.25 0.75 -10.3 0.75 -10.3 0.75 -10.35 0.75 -10.4 0.75 -10.45 0.75 -10.5 0.75 -10.55 0.7 -10.55 0.65 -10.65 0.65 -10.75 0.6 -10.85 0.55 -10.9 0.5 -11.0 0.45 -11.05 0.4 -11.1 0.35 -11.1 0.3 -11.15 0.2 -11.15 0.15 -11.15 0.1 -11.15 0.0 -11.15 -0.1 -11.15 -0.2 -11.1 -0.3 -11.05 -0.45 -11.0 -0.55 -10.95 -0.7 -10.9 -0.8 -10.8 -0.95 -10.75 -1.05 -10.65 -1.15 -10.6 -1.3 -10.5 -1.4 -10.4 -1.5 -10.35 -1.6 -10.25 -1.75 -10.15 -1.8 -10.1 -1.95 -9.95 -1.95 -9.95 -2.15 -9.8 -2.2 -9.75 -2.2 -9.75 -2.2 -9.7 -2.25 -9.7 -2.25 -9.65 -2.25 -9.65 -2.3 -9.6 -2.3 -9.6 -2.3 -9.55 -2.3 -9.55 -2.3 -9.5 -2.3 -9.5 -2.3 -9.45 -2.3 -9.45 -2.3 -9.4 -2.25 -9.35 -2.25 -9.25 -2.25 -9.2 -2.2 -9.1 -2.2 -9.05 -2.2 -9.0 -2.25 -8.9 -2.25 -8.85 -2.25 -8.75 -2.25 -8.7 -2.3 -8.6 -2.3 -8.55 -2.35 -8.5 -2.35 -8.4 -2.4 -8.35 -2.45 -8.25 -2.5 -8.2 -2.55 -8.15 -2.55 -8.15 -2.55 -8.1 -2.55 -8.05 -2.6 -8.05 -2.6 -8.0 -2.55 -7.95 -2.55 -7.9 -2.5 -7.8 -2.45 -7.7 -2.4 -7.55 -2.35 -7.45 -2.3 -7.35 -2.25 -7.25 -2.2 -7.1 -2.1 -7.0 -2.05 -6.9 -2.0 -6.8 -1.95 -6.7 -1.9 -6.6 -1.8 -6.45 -1.75 -6.35 -1.7 -6.25 -1.6 -6.15 -1.55 -6.1 -1.55 -6.05 -1.5 -6.05 -1.45 -6.0 -1.4 -6.0 -1.4 -5.95 -1.35 -5.95 -1.3 -5.95 -1.3 -5.95 -1.25 -5.95 -1.2 -6.0 -1.15 -6.0 -1.15 -6.05 -1.1 -6.05 -1.05 -6.1 -1.0 -6.15 -0.85 -6.3 -0.75 -6.45 -0.65 -6.65 -0.5 -6.8 -0.4 -6.95 -0.3 -7.1 -0.2 -7.3 -0.05 -7.45 0.05 -7.65 0.1 -7.8 0.2 -8.0 0.3 -8.15 0.4 -8.35 0.45 -8.55 0.55 -8.7 0.6 -8.9 0.65 -8.95 0.65 -9.0 0.65 -9.1 0.7 -9.15 0.7 -9.2 0.7 -9.25 0.75 -9.35 0.75 -9.4 0.75 -9.45 0.75 -9.5 0.75 -9.6 0.75 -9.65 0.75 -9.7 0.8 -9.75 0.8 -9.85 0.8 -9.9 L0.8 -9.9 M-3.2 -3.65 Q-3.2 -3.75 -3.2 -3.8 -3.2 -3.9 -3.2 -3.95 -3.2 -4.05 -3.2 -4.1 -3.2 -4.2 -3.25 -4.3 -3.25 -4.35 -3.25 -4.45 -3.3 -4.5 -3.3 -4.6 -3.3 -4.7 -3.35 -4.75 -3.4 -4.85 -3.4 -4.9 -3.45 -4.95 -3.45 -5.0 -3.5 -5.1 -3.55 -5.1 -3.6 -5.15 -3.6 -5.2 -3.65 -5.25 -3.7 -5.25 -3.75 -5.25 -3.8 -5.25 -3.85 -5.25 -3.9 -5.25 -3.95 -5.25 -4.05 -5.25 -4.1 -5.2 -4.15 -5.2 -4.55 -5.0 -5.7 -4.1 -5.75 -4.05 -5.75 -4.05 -5.8 -4.0 -5.8 -3.95 -5.8 -3.95 -5.8 -3.9 -5.8 -3.85 -5.75 -3.85 -5.75 -3.75 -5.75 -3.75 -5.7 -3.65 -5.7 -3.6 -5.7 -3.5 -5.65 -3.4 -5.65 -3.3 -5.65 -3.25 -5.65 -3.15 -5.65 -3.05 -5.65 -2.95 -5.65 -2.9 -5.65 -2.8 -5.7 -2.7 -5.7 -2.6 -5.75 -2.55 -5.75 -2.45 -5.8 -2.35 -5.85 -2.3 -5.85 -2.3 -5.85 -2.25 -5.85 -2.2 -5.85 -2.15 -5.85 -2.15 -5.8 -2.05 -5.7 -1.95 -2.75 3.25 -5.6 -1.7 -5.5 -1.6 -5.45 -1.5 -5.4 -1.4 -5.35 -1.3 -5.25 -1.15 -5.2 -1.1 -5.1 -1.0 -5.05 -0.9 -4.95 -0.8 -4.85 -0.7 -4.75 -0.6 -4.65 -0.55 -4.6 -0.5 -4.55 -0.5 -4.5 -0.45 -4.45 -0.45 -4.4 -0.4 -4.35 -0.4 -4.35 -0.4 -4.3 -0.4 -4.25 -0.4 -4.2 -0.45 -4.2 -0.45 -4.15 -0.5 -4.1 -0.55 -4.05 -0.55 -4.05 -0.6 -4.0 -0.7 -3.9 -0.85 -3.85 -1.05 -3.75 -1.2 -3.7 -1.4 -3.6 -1.55 -3.55 -1.75 -3.5 -1.95 -3.45 -2.1 -3.4 -2.3 -3.35 -2.5 -3.3 -2.65 -3.25 -2.85 -3.25 -3.05 -3.2 -3.25 -3.2 -3.45 -3.2 -3.65 L-3.2 -3.65 M-6.9 -7.75 Q-6.9 -7.6 -6.9 -7.5 -6.9 -7.35 -6.9 -7.25 -6.85 -7.2 -6.85 -7.1 -6.8 -7.05 -6.75 -7.0 -6.75 -7.0 -6.65 -7.0 -6.6 -6.95 -6.55 -6.95 -6.45 -7.0 -6.35 -7.0 -6.25 -7.05 -6.15 -7.1 -6.05 -7.15 -5.95 -7.15 -5.9 -7.2 -5.8 -7.25 -5.7 -7.3 -5.6 -7.35 -5.55 -7.4 -5.45 -7.45 -5.4 -7.5 -5.3 -7.55 -5.25 -7.6 -5.15 -7.7 -5.05 -7.75 -5.0 -7.8 -4.95 -7.85 -4.85 -7.95 -4.8 -7.95 -4.8 -8.0 -4.8 -8.0 -4.75 -8.05 -4.75 -8.05 -4.75 -8.05 -4.7 -8.1 -4.7 -8.1 -4.7 -8.15 -4.7 -8.15 -4.7 -8.2 -4.7 -8.2 -4.7 -8.25 -4.75 -8.3 -4.75 -8.3 -4.75 -8.35 -4.8 -8.45 -4.85 -8.6 -4.85 -8.7 -4.85 -8.85 -4.9 -8.95 -4.85 -9.05 -4.85 -9.2 -4.85 -9.3 -4.8 -9.4 -4.75 -9.55 -4.7 -9.65 -4.65 -9.75 -4.6 -9.85 -4.5 -9.95 -4.45 -10.05 -4.35 -10.15 -4.3 -10.2 -4.3 -10.2 -4.25 -10.25 -4.25 -10.25 -4.25 -10.3 -4.25 -10.35 -4.25 -10.45 -4.3 -10.55 -4.35 -10.75 -4.35 -10.75 -4.4 -10.9 -4.45 -11.0 -4.45 -11.1 -4.5 -11.2 -4.55 -11.3 -4.55 -11.4 -4.6 -11.5 -4.65 -11.6 -4.7 -11.7 -4.75 -11.8 -4.8 -11.9 -4.85 -11.95 -4.9 -12.0 -4.9 -12.05 -4.95 -12.05 -5.0 -12.1 -5.0 -12.1 -5.05 -12.15 -5.05 -12.15 -5.1 -12.15 -5.15 -12.15 -5.15 -12.15 -5.2 -12.15 -5.2 -12.1 -5.25 -12.1 -5.3 -12.05 -5.3 -12.05 -5.35 -12.0 -5.4 -11.95 -5.45 -11.85 -5.5 -11.8 -5.55 -11.75 -5.6 -11.65 -5.6 -11.6 -5.65 -11.55 -5.7 -11.45 -5.75 -11.4 -5.8 -11.35 -5.8 -11.25 -5.85 -11.2 -5.9 -11.1 -5.9 -11.05 -5.95 -11.0 -6.0 -10.9 -6.1 -10.7 -6.15 -10.5 -6.25 -10.3 -6.3 -10.1 -6.4 -9.9 -6.45 -9.7 -6.5 -9.5 -6.6 -9.3 -6.65 -9.1 -6.7 -8.9 -6.75 -8.7 -6.8 -8.5 -6.85 -8.3 -6.85 -8.1 -6.9 -7.9 -6.9 -7.75 L-6.9 -7.75 M8.95 -12.15 Q9.5 -12.15 10.95 -12.3 11.0 -12.3 11.05 -12.3 11.1 -12.3 11.1 -12.35 11.15 -12.35 11.15 -12.35 11.15 -12.4 11.15 -12.45 11.15 -12.5 11.15 -12.55 11.1 -12.65 11.1 -12.75 11.05 -12.85 11.05 -12.95 11.0 -13.05 11.0 -13.15 10.95 -13.25 10.95 -13.35 10.9 -13.45 10.9 -13.55 10.85 -13.65 10.85 -13.75 10.8 -13.85 10.8 -13.95 10.8 -14.05 10.75 -14.15 10.75 -14.2 10.75 -14.2 10.7 -14.25 10.7 -14.3 10.7 -14.3 10.65 -14.35 10.65 -14.35 10.65 -14.4 10.6 -14.4 10.6 -14.45 10.55 -14.45 10.5 -14.45 10.5 -14.45 10.45 -14.5 10.4 -14.5 10.35 -14.5 10.25 -14.5 10.1 -14.5 10.0 -14.5 9.9 -14.5 9.75 -14.5 9.65 -14.5 9.5 -14.5 9.4 -14.5 9.3 -14.5 9.15 -14.5 9.05 -14.5 8.9 -14.45 8.8 -14.45 8.7 -14.45 8.55 -14.45 8.45 -14.45 8.4 -14.45 8.35 -14.4 8.3 -14.4 8.3 -14.35 8.25 -14.35 8.25 -14.3 8.2 -14.3 8.2 -14.25 7.95 -13.0 7.95 -12.9 7.95 -12.7 7.95 -12.65 7.95 -12.55 7.95 -12.45 7.95 -12.4 8.0 -12.3 8.0 -12.25 8.05 -12.25 8.05 -12.2 8.1 -12.2 8.15 -12.15 8.25 -12.15 8.3 -12.15 8.45 -12.15 8.5 -12.15 8.7 -12.15 8.75 -12.15 8.95 -12.15 L8.95 -12.15 M3.1 -17.05 Q3.05 -17.05 3.0 -17.05 2.95 -17.05 2.9 -17.05 2.9 -17.0 2.85 -16.95 2.8 -16.95 2.75 -16.9 2.2 -16.1 1.45 -15.15 1.4 -15.1 1.4 -15.05 1.4 -15.0 1.4 -14.95 1.4 -14.95 1.45 -14.9 1.45 -14.9 1.5 -14.85 3.0 -14.1 3.6 -13.9 3.65 -13.85 3.7 -13.85 3.75 -13.85 3.8 -13.85 3.85 -13.9 3.85 -13.95 3.9 -13.95 3.9 -14.05 4.35 -15.2 4.65 -16.05 4.7 -16.1 4.7 -16.15 4.7 -16.2 4.7 -16.2 4.7 -16.25 4.7 -16.3 4.65 -16.3 4.65 -16.35 4.6 -16.35 4.55 -16.4 4.45 -16.45 4.4 -16.5 4.3 -16.6 4.25 -16.65 4.15 -16.7 4.05 -16.7 3.95 -16.75 3.9 -16.8 3.8 -16.85 3.7 -16.9 3.6 -16.9 3.5 -16.95 3.4 -17.0 3.3 -17.0 3.2 -17.05 3.1 -17.05 L3.1 -17.05 M-1.7 -16.8 Q-0.85 -17.65 -0.2 -18.3 -0.15 -18.35 -0.1 -18.35 -0.1 -18.4 -0.05 -18.45 -0.05 -18.5 -0.05 -18.5 -0.05 -18.55 -0.1 -18.6 -0.1 -18.65 -0.15 -18.7 -0.2 -18.8 -0.25 -18.85 -0.3 -18.9 -0.35 -19.0 -0.4 -19.05 -0.45 -19.1 -0.45 -19.2 -0.5 -19.25 -0.55 -19.35 -0.6 -19.4 -0.65 -19.5 -0.7 -19.55 -0.7 -19.65 -0.75 -19.7 -0.8 -19.8 -0.8 -19.85 -0.85 -19.9 -0.85 -19.95 -0.9 -20.0 -0.95 -20.0 -0.95 -20.0 -1.05 -20.0 -2.9 -19.7 -3.15 -19.65 -3.2 -19.6 -3.25 -19.6 -3.3 -19.6 -3.3 -19.55 -3.3 -19.5 -3.3 -19.45 -3.3 -19.45 -3.25 -19.35 -2.85 -18.7 -1.7 -16.8 L-1.7 -16.8 M-9.65 -1.65 Q-9.65 -1.35 -9.65 -0.95 -9.65 -0.9 -9.65 -0.85 -9.6 -0.8 -9.6 -0.75 -9.6 -0.75 -9.55 -0.75 -9.5 -0.75 -9.45 -0.8 -9.4 -0.8 -9.35 -0.85 -9.0 -1.15 -8.2 -2.0 -8.15 -2.05 -8.15 -2.05 -8.15 -2.1 -8.15 -2.15 -8.15 -2.15 -8.15 -2.2 -8.15 -2.2 -8.2 -2.3 -8.25 -2.4 -8.25 -2.5 -8.3 -2.6 -8.3 -2.7 -8.3 -2.8 -8.3 -2.9 -8.3 -3.0 -8.3 -3.1 -8.3 -3.2 -8.3 -3.3 -8.25 -3.4 -8.25 -3.5 -8.2 -3.6 -8.15 -3.7 -8.1 -3.8 -8.05 -3.9 -8.05 -3.95 -8.0 -4.0 -7.95 -4.05 -7.95 -4.05 -7.9 -4.1 -7.85 -4.15 -7.8 -4.2 -7.8 -4.2 -7.75 -4.25 -7.7 -4.3 -7.7 -4.35 -7.65 -4.4 -7.65 -4.4 -7.65 -4.45 -7.65 -4.5 -7.7 -4.6 -7.7 -4.65 -8.25 -5.25 -8.25 -5.3 -8.3 -5.3 -8.3 -5.35 -8.35 -5.35 -8.35 -5.4 -8.4 -5.4 -8.45 -5.45 -8.5 -5.5 -8.55 -5.55 -8.6 -5.55 -8.6 -5.6 -8.65 -5.6 -8.7 -5.6 -8.7 -5.6 -8.75 -5.6 -8.75 -5.6 -8.8 -5.55 -8.85 -5.55 -8.85 -5.5 -8.9 -5.45 -8.9 -5.4 -8.95 -5.3 -8.95 -5.25 -9.0 -5.25 -9.0 -5.2 -9.05 -5.15 -9.05 -5.1 -9.05 -5.1 -9.1 -5.05 -9.1 -5.0 -9.1 -4.95 -9.15 -4.95 -9.15 -4.9 -9.15 -4.85 -9.15 -4.8 -9.2 -4.75 -9.2 -4.75 -9.2 -4.7 -9.25 -4.5 -9.3 -4.3 -9.35 -4.1 -9.35 -3.95 -9.4 -3.75 -9.45 -3.55 -9.5 -3.35 -9.5 -3.2 -9.55 -3.0 -9.55 -2.8 -9.6 -2.6 -9.6 -2.4 -9.6 -2.2 -9.65 -2.05 -9.65 -1.85 -9.65 -1.65 L-9.65 -1.65 M5.3 -13.95 Q5.45 -13.95 5.85 -13.85 6.05 -13.8 6.15 -13.8 6.3 -13.8 6.35 -13.8 6.45 -13.8 6.55 -13.8 6.6 -13.8 6.65 -13.85 6.7 -13.85 6.75 -13.95 6.8 -14.0 6.8 -14.1 6.85 -14.15 6.85 -14.3 6.9 -14.4 6.9 -14.6 6.9 -14.65 6.9 -14.65 6.95 -14.7 6.95 -14.7 6.95 -14.75 6.95 -14.8 6.9 -14.8 6.9 -14.85 6.9 -14.85 6.9 -14.85 6.85 -14.9 6.85 -14.9 6.85 -14.95 6.8 -14.95 6.75 -14.95 6.75 -15.0 6.7 -15.05 6.65 -15.05 6.55 -15.05 6.5 -15.1 6.45 -15.1 6.4 -15.1 6.35 -15.1 6.25 -15.1 6.2 -15.1 6.15 -15.1 6.1 -15.1 6.05 -15.1 5.95 -15.1 5.9 -15.1 5.85 -15.05 5.8 -15.05 5.75 -15.05 5.75 -15.05 5.7 -15.0 5.7 -15.0 5.65 -14.95 5.65 -14.95 5.65 -14.9 5.6 -14.85 5.6 -14.8 5.6 -14.75 5.45 -14.1 5.55 -14.7 5.55 -14.65 5.55 -14.6 5.55 -14.55 5.5 -14.55 5.5 -14.5 5.4 -14.25 5.35 -14.1 5.3 -13.95 L5.3 -13.95 M-6.5 -3.15 Q-6.5 -3.2 -6.55 -3.25 -6.55 -3.25 -6.55 -3.35 -6.55 -3.4 -6.55 -3.45 -6.55 -3.5 -6.6 -3.5 -6.6 -3.55 -6.65 -3.6 -6.65 -3.65 -6.7 -3.65 -6.75 -3.7 -6.8 -3.75 -6.85 -3.75 -6.9 -3.75 -6.95 -3.75 -7.0 -3.75 -7.05 -3.75 -7.1 -3.7 -7.15 -3.65 -7.2 -3.6 -7.25 -3.55 -7.25 -3.5 -7.3 -3.45 -7.35 -3.4 -7.35 -3.3 -7.4 -3.25 -7.4 -3.2 -7.45 -3.1 -7.45 -3.05 -7.45 -2.95 -7.45 -2.9 -7.45 -2.85 -7.45 -2.8 -7.4 -2.75 -7.4 -2.75 -7.4 -2.7 -7.35 -2.65 -7.35 -2.6 -7.35 -2.6 -7.3 -2.55 -7.25 -2.55 -7.25 -2.5 -7.2 -2.5 -7.15 -2.5 -7.1 -2.45 -7.05 -2.45 -7.0 -2.45 -6.95 -2.45 -6.9 -2.45 -6.85 -2.5 -6.8 -2.55 -6.75 -2.55 -6.75 -2.6 -6.7 -2.65 -6.65 -2.7 -6.6 -2.75 -6.6 -2.85 -6.55 -2.9 -6.55 -2.95 -6.55 -3.0 -6.5 -3.1 -6.5 -3.15 L-6.5 -3.15 M12.15 -14.0 Q12.2 -13.95 12.2 -13.9 12.2 -13.85 12.2 -13.8 12.25 -13.75 12.25 -13.7 12.25 -13.6 12.25 -13.6 12.25 -13.55 12.25 -13.5 12.3 -13.45 12.3 -13.4 12.35 -13.4 12.35 -13.35 12.4 -13.3 12.45 -13.3 12.45 -13.3 12.5 -13.3 12.55 -13.3 12.65 -13.35 12.7 -13.35 12.8 -13.4 12.85 -13.4 12.95 -13.45 13.0 -13.5 13.1 -13.55 13.15 -13.6 13.2 -13.6 13.25 -13.65 13.3 -13.65 13.3 -13.7 13.3 -13.7 13.25 -13.75 13.25 -13.8 13.2 -13.8 13.15 -13.85 13.15 -13.9 13.1 -13.95 13.1 -14.05 13.05 -14.05 13.0 -14.1 13.0 -14.15 12.95 -14.2 12.9 -14.2 12.85 -14.25 12.85 -14.25 12.8 -14.3 12.7 -14.3 12.7 -14.3 12.65 -14.3 12.6 -14.3 12.55 -14.3 12.5 -14.3 12.5 -14.3 12.45 -14.25 12.4 -14.25 12.35 -14.25 12.35 -14.2 12.3 -14.2 12.25 -14.2 12.2 -14.15 12.2 -14.1 12.15 -14.05 12.15 -14.0 L12.15 -14.0 M-3.1 -9.05 Q-3.1 -9.1 -3.1 -9.15 -3.15 -9.2 -3.15 -9.25 -3.15 -9.3 -3.2 -9.35 -3.2 -9.4 -3.25 -9.4 -3.25 -9.45 -3.3 -9.5 -3.35 -9.5 -3.4 -9.55 -3.45 -9.55 -3.45 -9.55 -3.5 -9.55 -3.6 -9.55 -3.65 -9.55 -3.7 -9.55 -3.75 -9.55 -3.8 -9.5 -3.8 -9.5 -3.85 -9.45 -3.85 -9.4 -3.9 -9.35 -3.9 -9.35 -3.9 -9.3 -3.95 -9.25 -3.95 -9.2 -3.95 -9.15 -3.95 -9.1 -3.95 -9.05 -4.0 -9.0 -4.0 -8.95 -4.0 -8.9 -4.0 -8.85 -4.0 -8.8 -4.0 -8.75 -3.95 -8.7 -3.95 -8.7 -3.95 -8.65 -3.9 -8.6 -3.9 -8.6 -3.85 -8.55 -3.8 -8.55 -3.8 -8.55 -3.75 -8.5 -3.7 -8.5 -3.65 -8.5 -3.6 -8.5 -3.55 -8.5 -3.5 -8.5 -3.45 -8.55 -3.4 -8.55 -3.35 -8.6 -3.3 -8.6 -3.25 -8.65 -3.25 -8.7 -3.2 -8.7 -3.2 -8.75 -3.15 -8.8 -3.15 -8.85 -3.15 -8.9 -3.1 -8.95 -3.1 -9.05 L-3.1 -9.05 M0.8 -16.55 Q0.85 -16.55 0.85 -16.6 0.9 -16.6 0.9 -16.65 0.9 -16.65 0.95 -16.7 1.0 -16.75 1.15 -17.0 1.25 -17.15 1.35 -17.25 1.4 -17.3 1.4 -17.35 1.45 -17.4 1.45 -17.45 1.45 -17.45 1.4 -17.5 1.4 -17.55 1.35 -17.6 1.3 -17.65 1.25 -17.65 1.25 -17.7 1.2 -17.7 1.15 -17.7 1.15 -17.7 1.1 -17.65 1.05 -17.65 1.05 -17.6 1.0 -17.6 0.9 -17.5 0.75 -17.35 0.6 -17.15 0.55 -17.1 1.1 -17.65 0.4 -17.0 0.3 -16.9 0.4 -16.8 0.4 -16.8 0.8 -16.55 L0.8 -16.55" fill="#040404" fill-rule="evenodd" stroke="none"/>
    <path d="M5.3 -13.95 Q5.3 -13.95 5.4 -14.25 5.45 -14.45 5.5 -14.55 5.5 -14.6 5.55 -14.6 5.55 -14.65 5.55 -14.7 5.55 -14.7 5.6 -14.8 5.6 -14.85 5.6 -14.85 5.6 -14.9 5.65 -14.95 5.65 -14.95 5.7 -15.0 5.7 -15.0 5.75 -15.05 5.75 -15.05 5.8 -15.05 5.85 -15.05 5.9 -15.05 5.95 -15.1 6.05 -15.1 6.1 -15.1 6.15 -15.1 6.2 -15.1 6.25 -15.1 6.35 -15.1 6.4 -15.1 6.45 -15.1 6.5 -15.05 6.55 -15.05 6.6 -15.05 6.7 -15.0 6.75 -15.0 6.8 -15.0 6.8 -14.95 6.85 -14.95 6.85 -14.9 6.9 -14.9 6.9 -14.85 6.9 -14.85 6.9 -14.85 6.95 -14.8 6.95 -14.75 6.95 -14.75 6.95 -14.7 6.95 -14.7 6.95 -14.65 6.95 -14.6 6.9 -14.6 6.85 -14.4 6.85 -14.3 6.8 -14.15 6.8 -14.1 6.75 -14.0 6.75 -13.95 6.7 -13.9 6.65 -13.85 6.6 -13.8 6.55 -13.8 6.5 -13.8 6.4 -13.8 6.3 -13.8 6.15 -13.8 6.1 -13.85 5.85 -13.85 5.7 -13.9 5.3 -13.95 L5.3 -13.95" fill="#000000" fill-opacity="0.21960784" fill-rule="evenodd" stroke="none"/>
    <path d="M0.8 -16.55 Q0.8 -16.55 0.75 -16.6 0.7 -16.6 0.7 -16.6 0.65 -16.6 0.65 -16.65 0.6 -16.65 0.55 -16.65 0.55 -16.7 0.5 -16.7 0.5 -16.7 0.45 -16.75 0.45 -16.75 0.4 -16.75 0.4 -16.8 0.4 -16.8 0.35 -16.85 0.35 -16.9 0.35 -16.9 0.35 -16.95 0.4 -16.95 0.4 -17.0 0.45 -17.0 0.5 -17.05 0.5 -17.1 0.55 -17.1 0.6 -17.2 0.75 -17.35 0.95 -17.5 1.0 -17.6 1.05 -17.65 1.05 -17.65 1.1 -17.65 1.15 -17.7 1.15 -17.7 1.2 -17.7 1.25 -17.7 1.25 -17.65 1.3 -17.65 1.35 -17.6 1.4 -17.55 1.4 -17.55 1.45 -17.5 1.45 -17.45 1.45 -17.45 1.45 -17.4 1.45 -17.35 1.4 -17.35 1.4 -17.3 1.35 -17.25 1.25 -17.15 1.15 -17.0 1.0 -16.75 0.95 -16.7 0.95 -16.65 0.8 -16.55 L0.8 -16.55" fill="#000000" fill-opacity="0.21960784" fill-rule="evenodd" stroke="none"/>
  </g>
</svg>
