<?xml version="1.0" encoding="UTF-8" standalone="no"?>
<svg xmlns:xlink="http://www.w3.org/1999/xlink" height="29.4px" width="24.2px" xmlns="http://www.w3.org/2000/svg">
  <g transform="matrix(1.0, 0.0, 0.0, 1.0, 12.1, 14.7)">
    <path d="M12.1 -10.45 Q11.25 -11.2 10.4 -11.8 9.5 -12.4 8.65 -12.85 7.75 -13.35 6.85 -13.7 5.95 -14.05 5.05 -14.3 4.15 -14.5 3.25 -14.6 2.35 -14.7 1.45 -14.7 0.5 -14.65 -0.4 -14.5 -1.35 -14.4 -2.3 -14.1 -2.7 -13.3 -3.1 -12.45 -3.45 -11.65 -3.85 -10.8 -4.2 -10.0 -4.55 -9.15 -4.95 -8.3 -5.3 -7.5 -5.65 -6.65 -6.0 -5.8 -6.35 -5.0 -6.65 -4.15 -7.0 -3.3 -7.3 -2.45 -7.65 -1.6 -7.95 -0.75 L-8.2 0.0 Q-8.2 0.05 -8.15 0.1 -8.1 0.2 -8.0 0.25 -7.95 0.3 -7.9 0.4 -7.8 0.45 -7.7 0.5 -7.65 0.55 -7.55 0.6 -7.45 0.65 -7.35 0.7 -7.3 0.75 -7.2 0.8 -7.1 0.85 -7.0 0.9 -6.9 0.95 -6.8 1.0 -6.55 1.1 -6.05 1.3 -5.5 1.5 -5.3 1.6 -5.2 1.6 -5.15 1.65 -5.1 1.65 -5.1 1.65 -5.05 1.65 -5.0 1.7 -4.85 1.75 -4.65 1.9 -4.35 2.05 -4.3 2.1 -4.15 2.15 -3.6 2.4 -2.9 2.6 -2.4 2.75 -2.3 2.75 -2.15 2.8 -2.95 2.65 -1.85 2.85 -1.7 2.9 -1.6 2.9 -1.45 2.95 -1.35 2.95 -1.2 3.0 -1.1 3.05 -0.95 3.1 -0.85 3.15 -0.7 3.2 -0.6 3.25 -0.45 3.35 -0.35 3.4 -0.15 3.45 0.15 3.5 0.45 3.55 2.9 3.95 3.05 4.0 3.25 4.0 3.4 4.05 3.6 4.05 3.75 4.1 3.95 4.1 4.1 4.15 4.3 4.15 4.45 4.2 4.65 4.2 4.8 4.2 4.95 4.25 5.15 4.25 5.3 4.25 5.5 4.25 5.65 4.3 7.7 4.4 8.5 4.4 L10.15 -0.75 9.8 -0.75 Q10.0 -1.45 10.2 -2.1 10.35 -2.8 10.55 -3.45 10.7 -4.1 10.85 -4.7 11.05 -5.35 11.2 -5.95 11.3 -6.55 11.45 -7.15 11.6 -7.7 11.7 -8.3 11.8 -8.85 11.9 -9.4 12.0 -9.95 12.1 -10.45 L12.1 -10.45" fill="#4b50b6" fill-rule="evenodd" stroke="none"/>
  </g>
</svg>
