<?xml version="1.0" encoding="UTF-8" standalone="no"?>
<svg xmlns:xlink="http://www.w3.org/1999/xlink" height="62.75px" width="43.0px" xmlns="http://www.w3.org/2000/svg">
  <g transform="matrix(1.0, 0.0, 0.0, 1.0, 21.5, 31.4)">
    <path d="M-5.4 -5.8 Q-5.35 -5.8 -5.25 -5.75 -5.15 -5.65 -4.95 -5.45 -4.75 -5.2 -4.45 -4.95 -4.2 -4.6 -3.9 -4.25 -3.55 -3.85 -3.2 -3.4 -2.85 -2.95 -2.5 -2.45 -2.1 -1.9 -1.7 -1.35 -1.3 -0.75 -0.95 -0.15 -0.55 0.5 -0.15 1.15 0.2 1.75 0.5 2.4 0.8 2.95 1.1 3.55 1.35 4.1 1.6 4.6 1.8 5.05 1.95 5.45 2.1 5.85 2.2 6.15 2.3 6.4 2.35 6.55 2.4 6.75 2.35 6.75 2.35 6.75 2.25 6.65 2.2 6.55 2.05 6.35 1.95 6.2 1.75 5.85 1.95 6.15 1.35 5.1 1.05 4.6 0.85 4.2 0.5 3.6 0.15 3.05 -0.25 2.4 -0.65 1.7 -1.1 0.95 -1.55 0.2 -2.85 -1.85 -4.45 -4.3 -5.45 -5.8 -5.4 -5.8 L-5.4 -5.8" fill="#000000" fill-rule="evenodd" stroke="none"/>
    <path d="M-3.6 -6.1 Q-3.55 -6.1 -3.45 -6.0 -3.35 -5.9 -3.15 -5.7 -2.9 -5.5 -2.65 -5.2 -2.4 -4.9 -2.1 -4.55 -1.75 -4.15 -1.4 -3.7 -1.05 -3.2 -0.7 -2.7 -0.3 -2.15 0.1 -1.6 0.5 -1.0 0.85 -0.4 1.25 0.25 1.65 0.9 2.0 1.5 2.3 2.15 2.65 2.7 2.9 3.3 3.15 3.8 3.4 4.3 3.6 4.75 3.75 5.2 3.9 5.55 4.0 5.85 4.1 6.15 4.15 6.3 4.2 6.45 4.15 6.45 4.15 6.45 4.05 6.35 4.0 6.3 3.85 6.1 3.75 5.9 3.6 5.55 3.55 5.55 3.15 4.85 2.85 4.35 2.65 3.9 2.3 3.35 1.95 2.8 1.6 2.1 1.15 1.45 0.7 0.7 0.25 -0.1 -1.0 -2.15 -2.65 -4.55 -3.65 -6.05 -3.6 -6.1 L-3.6 -6.1" fill="#000000" fill-rule="evenodd" stroke="none"/>
    <path d="M-1.45 -5.95 Q-1.4 -5.95 -1.3 -5.85 -1.2 -5.75 -1.0 -5.55 -0.8 -5.35 -0.55 -5.1 -0.25 -4.8 0.05 -4.4 0.35 -4.05 0.7 -3.6 1.05 -3.15 1.4 -2.65 1.8 -2.15 2.15 -1.6 2.55 -1.05 2.9 -0.5 3.3 0.1 3.65 0.75 4.0 1.35 4.3 1.95 4.6 2.5 4.9 3.05 5.15 3.55 5.35 4.05 5.55 4.45 5.7 4.85 5.85 5.2 5.95 5.5 6.05 5.75 6.1 5.9 6.1 6.05 6.1 6.1 6.05 6.1 5.1 4.55 3.65 2.0 2.25 -0.2 1.0 -2.2 -0.55 -4.5 -1.5 -5.9 -1.45 -5.95 L-1.45 -5.95" fill="#000000" fill-rule="evenodd" stroke="none"/>
    <path d="M0.8 -5.55 Q0.8 -5.55 0.9 -5.45 1.0 -5.35 1.2 -5.2 1.35 -5.0 1.55 -4.75 1.8 -4.45 2.05 -4.1 2.35 -3.75 2.6 -3.35 2.9 -2.9 3.2 -2.45 3.55 -1.95 3.85 -1.45 4.2 -0.9 4.5 -0.35 4.85 0.25 5.15 0.85 5.45 1.4 5.7 1.95 5.95 2.5 6.2 3.0 6.4 3.5 6.6 3.95 6.8 4.4 6.9 4.75 7.05 5.1 7.15 5.35 7.2 5.6 7.25 5.75 7.3 5.9 7.25 5.95 7.25 5.95 7.15 5.85 7.1 5.8 7.0 5.6 6.95 5.45 6.75 5.1 7.15 5.9 6.4 4.45 6.2 4.0 6.0 3.6 5.7 3.05 5.45 2.55 5.1 1.95 4.75 1.35 4.4 0.65 4.0 -0.05 2.95 -1.9 1.6 -4.15 0.75 -5.5 0.8 -5.55 L0.8 -5.55" fill="#000000" fill-rule="evenodd" stroke="none"/>
    <path d="M2.55 -4.85 Q2.55 -4.85 2.65 -4.8 2.75 -4.7 2.9 -4.55 3.1 -4.4 3.3 -4.15 3.5 -3.95 3.75 -3.65 4.0 -3.35 4.25 -3.0 4.55 -2.65 4.85 -2.3 5.15 -1.85 5.45 -1.45 5.75 -1.0 6.05 -0.55 6.35 -0.05 6.65 0.4 6.9 0.9 7.15 1.35 7.4 1.8 7.6 2.2 7.8 2.6 7.95 3.0 8.1 3.35 8.25 3.65 8.35 3.95 8.45 4.15 8.5 4.35 8.5 4.5 8.55 4.6 8.55 4.6 8.5 4.65 7.75 3.4 6.55 1.3 5.5 -0.35 4.5 -1.85 3.25 -3.7 2.5 -4.8 2.55 -4.85 L2.55 -4.85" fill="#000000" fill-rule="evenodd" stroke="none"/>
    <path d="M4.3 -4.7 Q4.35 -4.7 4.4 -4.65 4.5 -4.55 4.7 -4.4 4.85 -4.25 5.05 -4.05 5.25 -3.8 5.5 -3.55 5.75 -3.25 6.0 -2.9 6.3 -2.55 6.55 -2.2 6.85 -1.8 7.15 -1.4 7.45 -1.0 7.75 -0.55 8.05 -0.1 8.35 0.4 8.6 0.85 8.85 1.3 9.05 1.7 9.25 2.1 9.45 2.5 9.6 2.85 9.75 3.15 9.85 3.45 10.0 3.75 10.05 3.95 10.1 4.15 10.15 4.25 10.15 4.35 10.15 4.35 10.1 4.4 9.4 3.2 8.2 1.25 7.2 -0.35 6.25 -1.85 5.0 -3.6 4.3 -4.65 4.3 -4.7 L4.3 -4.7" fill="#000000" fill-rule="evenodd" stroke="none"/>
    <path d="M-6.0 -4.3 Q-6.0 -4.3 -5.9 -4.25 -5.8 -4.15 -5.6 -3.95 -5.45 -3.8 -5.2 -3.55 -5.0 -3.3 -4.75 -2.95 -4.45 -2.65 -4.15 -2.25 -3.85 -1.85 -3.5 -1.45 -3.2 -1.0 -2.85 -0.5 -2.5 0.0 -2.2 0.45 -1.85 1.0 -1.5 1.55 -1.2 2.05 -0.95 2.6 -0.65 3.1 -0.4 3.55 -0.2 4.0 0.0 4.45 0.2 4.8 0.35 5.15 0.45 5.5 0.55 5.75 0.65 5.95 0.7 6.1 0.7 6.25 0.7 6.25 0.65 6.25 -0.2 4.9 -1.5 2.65 -2.7 0.75 -3.8 -0.95 -5.2 -3.0 -6.05 -4.25 -6.0 -4.3 L-6.0 -4.3" fill="#000000" fill-rule="evenodd" stroke="none"/>
    <path d="M-6.45 -2.7 Q-6.45 -2.7 -6.35 -2.65 -6.25 -2.55 -6.15 -2.4 -6.0 -2.25 -5.8 -2.05 -5.6 -1.85 -5.4 -1.6 -5.2 -1.3 -4.95 -1.0 -4.7 -0.65 -4.45 -0.3 -4.2 0.1 -3.95 0.45 -3.65 0.9 -3.4 1.3 -3.15 1.75 -2.9 2.2 -2.65 2.65 -2.45 3.1 -2.25 3.5 -2.1 3.9 -1.95 4.3 -1.8 4.65 -1.7 4.95 -1.6 5.25 -1.5 5.5 -1.45 5.75 -1.4 5.9 -1.35 6.05 -1.35 6.15 -1.35 6.15 -1.4 6.2 -2.05 5.0 -3.05 3.05 -3.95 1.55 -4.8 0.1 -5.85 -1.6 -6.5 -2.65 -6.45 -2.7 L-6.45 -2.7" fill="#000000" fill-rule="evenodd" stroke="none"/>
  </g>
</svg>
