<?xml version="1.0" encoding="UTF-8" standalone="no"?>
<svg xmlns:xlink="http://www.w3.org/1999/xlink" height="200.0px" width="300.0px" xmlns="http://www.w3.org/2000/svg">
  <g transform="matrix(1.0, 0.0, 0.0, 1.0, 150.0, 100.0)">
    <path d="M-13.5 -93.75 Q-13.35 -94.0 -13.2 -94.2 -13.05 -94.4 -12.85 -94.55 -12.65 -94.65 -12.45 -94.7 -12.3 -94.8 -12.05 -94.8 -11.9 -94.85 -11.65 -94.85 -11.45 -94.8 -11.25 -94.8 -11.1 -94.8 -10.8 -94.75 -10.55 -94.7 -10.4 -94.7 -10.3 -94.7 -10.15 -94.65 -10.05 -94.65 -9.9 -94.65 -9.8 -94.6 -9.65 -94.55 -9.55 -94.55 -9.4 -94.5 -9.2 -94.45 -9.2 -94.45 -9.05 -94.4 -8.95 -94.4 -8.8 -94.35 -8.7 -94.35 -8.55 -94.3 -8.45 -94.3 -7.95 -94.25 -6.6 -94.15 -5.45 -94.05 -4.8 -93.95 -3.5 -93.8 0.45 -93.1 1.15 -93.0 1.75 -92.75 2.35 -92.55 2.9 -92.25 3.45 -92.0 3.9 -91.6 4.35 -91.25 4.75 -90.85 5.1 -90.4 5.45 -89.9 5.75 -89.4 6.0 -88.85 6.25 -88.35 6.45 -87.75 6.65 -87.15 6.8 -86.5 7.0 -85.7 7.15 -84.9 7.25 -84.05 7.35 -83.25 7.45 -82.45 7.5 -81.6 7.5 -80.8 7.5 -80.0 7.5 -79.2 7.45 -78.35 7.4 -77.55 7.3 -76.75 7.25 -75.95 7.1 -75.1 7.0 -74.3 6.85 -73.5 6.6 -72.15 6.05 -70.05 5.4 -67.35 5.2 -66.55 5.1 -66.1 4.9 -64.85 4.75 -63.75 4.6 -63.1 4.45 -62.6 4.25 -62.1 4.05 -61.6 3.85 -61.1 3.65 -60.65 3.4 -60.15 3.15 -59.7 2.85 -59.25 2.6 -58.8 2.35 -58.35 2.05 -57.9 1.75 -57.45 1.45 -57.0 1.15 -56.6 0.8 -56.15 0.5 -55.75 0.25 -55.45 0.05 -55.15 -0.15 -54.85 -0.35 -54.55 -0.55 -54.25 -0.75 -53.95 -0.95 -53.6 -1.1 -53.3 -1.3 -52.95 -1.45 -52.65 -1.6 -52.3 -1.75 -52.0 -1.9 -51.65 -2.05 -51.3 -2.15 -50.95 -2.25 -50.6 -2.35 -50.3 -2.5 -50.0 -2.6 -49.65 -2.75 -49.4 -2.9 -49.1 -3.05 -48.85 -3.2 -48.55 -3.4 -48.3 -3.55 -48.05 -3.75 -47.8 -3.95 -47.55 -4.2 -47.35 -4.45 -47.1 -4.7 -46.9 -4.95 -46.7 -5.2 -46.5 -5.8 -46.1 -6.35 -45.65 -6.9 -45.25 -7.4 -44.75 -7.9 -44.3 -8.35 -43.75 -8.85 -43.25 -9.25 -42.75 -9.7 -42.2 -10.1 -41.65 -10.5 -41.1 -10.85 -40.5 -11.2 -39.9 -11.55 -39.3 -11.85 -38.7 -12.2 -38.05 -12.7 -37.0 -14.7 -34.05 -15.0 -33.6 -15.3 -33.1 -15.6 -32.65 -15.85 -32.15 -16.1 -31.7 -16.35 -31.2 -16.6 -30.7 -16.85 -30.2 -17.05 -29.75 -17.25 -29.2 -17.5 -28.7 -17.65 -28.2 -17.85 -27.7 -18.05 -27.15 -18.2 -26.65 -18.4 -26.15 -19.8 -21.55 -20.5 -18.75 -21.0 -16.8 -21.85 -12.55 -23.0 -7.0 -23.25 -5.25 -23.35 -4.5 -23.35 -3.8 -23.4 -3.05 -23.4 -2.35 -23.4 -1.65 -23.35 -0.95 -23.3 -0.2 -23.2 0.5 -23.05 1.2 -22.9 1.85 -22.75 2.55 -22.5 3.25 -22.3 3.9 -22.0 4.55 -21.7 5.25 -21.35 5.9 -21.3 6.0 -21.2 6.1 -21.15 6.2 -21.05 6.25 -20.95 6.35 -20.8 6.45 -20.7 6.5 -20.6 6.6 -20.5 6.65 -20.35 6.75 -19.85 7.0 -20.1 6.85 -20.0 6.95 -19.9 7.0 -19.75 7.1 -19.65 7.15 -19.5 7.25 -18.7 7.8 -18.15 8.2 -17.8 8.55 -17.65 8.7 -17.55 8.85 -17.4 9.0 -17.35 9.15 -17.3 9.3 -17.25 9.5 -17.25 9.65 -17.25 9.8 -17.3 9.95 -17.35 10.1 -17.45 10.25 -17.55 10.35 -17.65 10.5 -17.8 10.6 -17.95 10.75 -18.15 10.85 -18.5 11.0 -19.8 11.15 -20.0 11.2 -21.1 11.2 -21.1 11.35 -21.1 11.5 -21.1 11.65 -21.05 11.75 -21.05 11.9 -21.05 12.05 -21.05 12.2 -21.05 12.35 -21.05 12.45 -21.0 12.6 -21.0 12.75 -21.0 12.9 -21.0 13.0 -21.0 13.15 -20.95 13.3 -20.95 13.45 -20.95 13.55 -20.95 13.65 -20.9 13.75 -20.9 13.85 -20.9 13.85 -20.9 14.05 -20.85 14.15 -20.85 14.25 -20.85 14.35 -20.85 14.45 -20.8 14.55 -20.8 14.65 -20.8 14.75 -20.8 14.85 -20.8 14.95 -20.85 15.05 -20.85 15.2 -20.9 15.35 -20.95 15.5 -21.0 15.65 -21.1 15.8 -21.2 15.9 -21.25 16.05 -21.4 16.1 -21.5 16.2 -21.6 16.3 -21.75 16.35 -21.9 16.4 -22.0 16.45 -22.15 16.5 -22.3 16.5 -22.45 16.5 -22.7 16.5 -22.9 16.45 -23.1 16.4 -23.3 16.35 -23.5 16.3 -23.65 16.2 -23.8 16.15 -23.95 16.05 -24.05 15.95 -24.15 15.8 -24.25 15.7 -24.35 15.55 -24.4 15.4 -24.45 15.25 -24.5 15.05 -24.5 14.9 -24.5 14.85 -24.5 14.8 -24.5 14.7 -24.5 14.65 -24.5 14.6 -24.5 14.55 -24.45 14.5 -24.45 14.45 -24.45 14.35 -24.4 14.3 -24.4 14.25 -24.35 14.2 -24.35 14.15 -24.35 14.1 -24.3 14.05 -24.25 14.0 -24.1 13.75 -24.0 13.5 -23.9 13.3 -23.85 13.05 -23.8 12.85 -23.8 12.65 -23.75 12.5 -23.8 12.3 -23.85 12.15 -23.95 11.95 -24.0 11.8 -24.15 11.65 -24.3 11.5 -24.45 11.3 -24.65 11.15 -24.9 11.0 -26.5 9.9 -27.7 9.05 -27.9 8.9 -28.1 8.75 -28.25 8.6 -28.4 8.4 -28.55 8.25 -28.7 8.05 -28.85 7.85 -28.95 7.7 -29.05 7.5 -29.15 7.25 -29.25 7.05 -29.3 6.85 -29.4 6.65 -29.45 6.4 -29.5 6.15 -29.55 5.95 -29.6 5.5 -31.0 -2.6 -31.9 -7.75 -32.4 -11.2 -32.5 -12.1 -32.6 -13.0 -32.7 -13.9 -32.75 -14.8 -32.8 -15.7 -32.8 -16.6 -32.85 -17.5 -32.8 -18.4 -32.8 -19.3 -32.75 -20.2 -32.7 -21.1 -32.6 -22.0 -32.5 -22.9 -32.4 -23.8 -32.25 -24.7 -32.1 -25.6 -31.9 -26.65 -31.7 -27.7 -31.45 -28.75 -31.2 -29.8 -30.95 -30.85 -30.7 -31.9 -30.4 -32.9 -30.1 -33.95 -29.8 -34.95 -29.45 -36.0 -29.1 -37.0 -28.75 -38.0 -28.4 -39.0 -28.0 -40.0 -27.6 -41.0 -27.2 -42.0 -25.85 -45.15 -20.3 -58.9 -19.85 -60.0 -19.45 -61.1 -19.05 -62.25 -18.65 -63.35 -18.3 -64.5 -17.95 -65.65 -17.6 -66.75 -17.25 -67.9 -16.95 -69.05 -16.65 -70.2 -16.35 -71.35 -16.1 -72.5 -15.85 -73.65 -15.6 -74.85 -15.35 -76.0 -15.15 -77.15 -15.0 -77.95 -14.9 -78.8 -14.8 -79.65 -14.75 -80.45 -14.7 -81.3 -14.65 -82.1 -14.65 -82.95 -14.65 -83.75 -14.7 -84.55 -14.75 -85.4 -14.85 -86.2 -14.95 -87.05 -15.05 -87.85 -15.2 -88.7 -15.3 -89.5 -15.5 -90.3 -15.6 -90.75 -15.85 -91.95 -16.1 -92.95 -16.2 -93.55 -16.2 -93.7 -16.25 -93.8 -16.25 -93.9 -16.25 -94.05 -16.25 -94.15 -16.25 -94.25 -16.25 -94.4 -16.2 -94.5 -16.2 -94.6 -16.15 -94.7 -16.1 -94.8 -16.0 -94.9 -15.95 -94.95 -15.85 -95.05 -15.7 -95.1 -15.55 -95.15 -15.45 -95.15 -15.4 -95.2 -15.3 -95.2 -15.2 -95.2 -15.15 -95.2 -15.05 -95.2 -14.95 -95.2 -14.85 -95.2 -14.75 -95.2 -14.65 -95.15 -14.6 -95.15 -14.5 -95.1 -14.4 -95.1 -14.35 -95.05 -14.25 -95.05 -14.2 -95.0 -14.15 -94.95 -14.1 -94.9 -14.05 -94.85 -14.0 -94.8 -13.95 -94.75 -13.9 -94.65 -13.85 -94.6 -13.85 -94.5 -13.8 -94.45 -13.75 -94.35 -13.6 -94.0 -13.7 -94.15 -13.65 -94.05 -13.6 -93.95 -13.55 -93.85 -13.5 -93.75 L-13.5 -93.75 M-10.9 -92.0 Q-10.9 -91.35 -10.9 -91.05 -10.9 -90.5 -10.9 -89.1 -10.85 -87.85 -10.85 -87.15 -10.85 -86.05 -10.85 -85.2 -10.85 -84.15 -10.85 -83.25 -10.9 -82.25 -10.95 -81.3 -10.95 -80.3 -11.05 -79.35 -11.1 -78.35 -11.2 -77.4 -11.3 -76.4 -11.4 -75.45 -11.5 -74.7 -11.6 -74.05 -11.75 -73.3 -11.85 -72.65 -12.0 -71.9 -12.15 -71.25 -12.3 -70.5 -12.45 -69.85 -12.65 -69.15 -12.8 -68.45 -13.0 -67.75 -13.25 -67.1 -13.45 -66.4 -13.7 -65.75 -14.0 -65.1 -14.3 -64.45 -16.05 -60.4 -19.65 -53.7 -20.05 -52.9 -20.45 -52.15 -20.85 -51.35 -21.25 -50.6 -21.65 -49.8 -22.0 -49.05 -22.4 -48.25 -22.75 -47.5 -23.1 -46.7 -23.45 -45.9 -23.8 -45.1 -24.1 -44.3 -24.45 -43.5 -24.75 -42.7 -25.1 -41.85 -25.35 -41.05 -25.6 -40.3 -25.85 -39.55 -26.1 -38.8 -26.35 -38.05 -26.6 -37.3 -26.8 -36.55 -27.05 -35.8 -27.25 -35.05 -27.45 -34.25 -27.6 -33.5 -27.8 -32.75 -27.95 -31.95 -28.1 -31.2 -28.2 -30.4 -28.35 -29.65 -28.45 -28.85 -28.55 -28.1 -28.6 -27.35 -28.7 -26.6 -28.75 -25.85 -28.8 -25.1 -28.85 -24.35 -28.9 -23.6 -28.9 -22.85 -28.9 -22.1 -28.95 -21.3 -28.95 -20.6 -28.95 -19.8 -28.9 -19.1 -28.9 -18.3 -28.9 -17.6 -28.85 -16.8 -28.8 -14.6 -28.3 -10.25 -28.3 -10.25 -27.5 -5.0 -27.4 -5.0 -27.25 -5.0 -26.8 -7.1 -26.7 -7.65 -24.35 -16.25 -23.8 -18.2 -23.65 -18.75 -23.5 -19.25 -23.35 -19.8 -23.2 -20.3 -23.05 -20.85 -22.9 -21.35 -22.7 -21.9 -22.55 -22.4 -22.35 -22.9 -22.15 -23.4 -21.95 -23.95 -21.7 -24.4 -21.5 -24.95 -21.25 -25.4 -21.0 -25.9 -20.75 -26.4 -20.1 -27.55 -18.6 -29.9 -17.15 -32.15 -16.45 -33.4 -16.15 -33.95 -15.8 -34.55 -15.5 -35.1 -15.2 -35.7 -14.9 -36.3 -14.55 -36.85 -14.25 -37.45 -13.95 -38.05 -13.65 -38.6 -13.35 -39.2 -13.05 -39.8 -12.75 -40.4 -12.45 -40.95 -12.15 -41.55 -11.9 -42.15 -11.6 -42.75 -11.2 -43.5 -10.4 -46.3 -9.8 -48.6 -9.6 -49.75 -9.55 -50.2 -9.5 -51.2 -9.5 -52.2 -9.4 -52.7 -9.3 -53.25 -9.15 -53.85 -9.0 -54.4 -8.8 -55.0 -8.65 -55.55 -8.4 -56.1 -8.25 -56.65 -8.0 -57.2 -7.8 -57.75 -7.55 -58.3 -7.35 -58.8 -7.05 -59.35 -6.85 -59.85 -6.55 -60.4 -6.35 -60.9 -6.05 -61.5 -6.0 -61.55 -5.9 -61.8 -5.8 -61.95 -5.75 -62.1 -5.65 -62.25 -5.6 -62.4 -5.5 -62.55 -5.45 -62.7 -5.4 -62.85 -5.3 -63.0 -5.25 -63.15 -5.2 -63.3 -5.15 -63.45 -5.1 -63.6 -5.1 -63.75 -5.05 -63.95 -4.85 -65.65 -4.9 -68.35 -5.05 -78.05 -5.25 -82.6 -5.25 -83.2 -5.35 -83.8 -5.4 -84.4 -5.55 -85.0 -5.65 -85.6 -5.8 -86.15 -6.0 -86.75 -6.2 -87.3 -6.4 -87.85 -6.65 -88.4 -6.85 -88.95 -7.15 -89.5 -7.4 -90.0 -7.7 -90.55 -8.0 -91.05 -8.35 -91.6 -8.35 -91.65 -8.4 -91.65 -8.45 -91.7 -8.5 -91.7 -8.55 -91.75 -8.6 -91.75 -8.6 -91.8 -8.65 -91.8 -8.7 -91.8 -8.75 -91.8 -9.2 -91.85 -10.9 -92.0 L-10.9 -92.0 M-5.9 -52.05 Q-5.8 -52.0 -5.65 -51.9 -2.25 -56.9 -1.95 -57.35 -1.55 -58.0 -1.15 -58.65 -0.75 -59.35 -0.4 -60.0 -0.05 -60.7 0.3 -61.35 0.65 -62.05 0.95 -62.75 1.25 -63.45 1.5 -64.15 1.8 -64.9 2.05 -65.6 2.3 -66.35 2.55 -67.05 2.75 -67.8 2.95 -68.55 2.6 -67.25 3.65 -71.05 4.05 -72.55 4.2 -73.6 4.6 -76.25 4.85 -80.5 4.85 -80.95 4.85 -81.4 4.85 -81.85 4.85 -82.3 4.85 -82.75 4.8 -83.15 4.75 -83.6 4.7 -84.05 4.6 -84.5 4.55 -84.9 4.45 -85.35 4.3 -85.8 4.2 -86.2 4.05 -86.6 3.9 -87.05 3.7 -87.45 3.65 -87.6 3.55 -87.75 3.45 -87.95 3.4 -88.1 3.3 -88.25 3.2 -88.4 3.1 -88.55 3.0 -88.7 2.85 -88.85 2.75 -89.0 2.6 -89.15 2.5 -89.25 2.35 -89.4 2.25 -89.5 2.1 -89.6 1.95 -89.7 1.65 -89.9 1.35 -90.05 1.05 -90.2 0.7 -90.35 0.4 -90.45 0.05 -90.55 -0.3 -90.65 -0.65 -90.75 -0.95 -90.8 -1.35 -90.85 -1.65 -90.9 -2.05 -90.95 -2.3 -91.0 -2.8 -91.05 -3.3 -91.1 -3.5 -91.15 -2.3 -87.2 -2.15 -86.7 -2.0 -86.25 -1.9 -85.8 -1.75 -85.35 -1.7 -84.95 -1.55 -84.5 -1.5 -84.05 -1.4 -83.6 -1.35 -83.15 -1.3 -82.7 -1.25 -82.25 -1.25 -81.8 -1.25 -81.35 -1.25 -80.9 -1.3 -80.45 -1.35 -80.0 -1.4 -79.5 -1.5 -78.85 -1.6 -78.25 -1.7 -77.6 -1.8 -76.95 -1.85 -76.35 -1.9 -75.7 -2.0 -75.05 -2.0 -74.45 -2.05 -73.8 -2.05 -73.15 -2.1 -72.5 -2.1 -71.85 -2.05 -71.2 -2.05 -70.6 -2.0 -69.95 -1.95 -69.3 -1.9 -68.6 -1.9 -67.95 -1.85 -67.3 -1.9 -66.65 -1.95 -65.95 -2.0 -65.35 -2.05 -64.65 -2.2 -64.05 -2.3 -63.4 -2.5 -62.75 -2.65 -62.1 -2.9 -61.5 -3.1 -60.9 -3.4 -60.3 -3.7 -59.7 -4.05 -59.1 -4.3 -58.7 -4.5 -58.25 -4.7 -57.85 -4.85 -57.4 -5.0 -57.0 -5.1 -56.55 -5.25 -56.1 -5.3 -55.65 -5.4 -55.25 -5.5 -54.75 -5.55 -54.4 -5.6 -53.85 -5.8 -52.6 -5.75 -52.95 -5.8 -52.45 -5.9 -52.05 L-5.9 -52.05" fill="#000000" fill-rule="evenodd" stroke="none"/>
    <path d="M30.0 7.2 Q28.85 7.85 28.65 8.0 28.5 8.1 28.35 8.25 28.2 8.35 28.05 8.5 27.95 8.6 27.75 8.75 27.6 8.95 27.5 9.05 27.3 9.2 27.2 9.3 27.05 9.45 26.9 9.55 26.75 9.65 26.55 9.75 26.4 9.9 26.25 10.0 26.05 10.15 25.85 10.2 25.65 10.3 25.45 10.3 25.3 10.35 25.15 10.35 25.0 10.35 24.85 10.25 24.7 10.2 24.55 10.1 24.45 10.0 24.3 9.85 24.2 9.75 24.1 9.55 24.0 9.35 23.9 9.1 23.85 9.0 23.8 8.95 23.8 8.85 23.75 8.8 23.7 8.7 23.65 8.65 23.6 8.6 23.55 8.55 23.5 8.5 23.4 8.5 23.35 8.45 23.3 8.45 23.2 8.4 23.1 8.4 23.0 8.4 22.9 8.4 22.75 8.4 22.65 8.4 22.5 8.4 22.35 8.4 22.25 8.4 22.1 8.35 22.0 8.3 21.9 8.25 21.75 8.2 21.65 8.15 21.6 8.05 21.5 7.95 21.45 7.85 21.4 7.75 21.35 7.6 21.3 7.5 21.3 7.4 21.3 7.3 21.3 7.15 21.3 7.05 21.35 6.95 21.35 6.8 21.4 6.7 21.4 6.6 21.45 6.45 21.5 6.35 21.55 6.25 21.6 6.15 21.65 6.05 21.75 6.0 21.8 5.9 21.85 5.85 22.1 5.65 22.35 5.4 22.6 5.15 22.8 4.9 23.0 4.65 23.15 4.35 23.35 4.1 23.5 3.8 23.65 3.55 23.8 3.25 23.95 3.0 24.1 2.65 24.2 2.45 24.35 2.05 24.55 1.65 24.65 1.45 25.25 0.2 25.5 -0.1 25.55 -0.15 25.6 -0.2 25.7 -0.3 25.75 -0.35 25.85 -0.4 25.9 -0.45 26.0 -0.5 26.1 -0.55 26.15 -0.55 26.25 -0.6 26.35 -0.65 26.4 -0.65 26.5 -0.7 26.6 -0.7 26.7 -0.75 26.75 -0.75 26.85 -0.75 26.95 -0.75 27.05 -0.75 27.15 -0.7 27.25 -0.7 27.35 -0.65 27.4 -0.6 27.5 -0.55 27.55 -0.45 27.6 -0.4 27.65 -0.3 27.7 -0.25 27.75 -0.15 27.75 -0.05 27.8 0.05 27.8 0.15 27.85 0.9 27.85 3.1 27.85 3.15 27.75 4.3 28.15 4.15 28.55 4.0 28.9 3.8 29.2 3.55 29.5 3.35 29.75 3.05 30.05 2.8 30.25 2.5 30.45 2.15 30.6 1.8 30.75 1.45 30.85 1.05 30.95 0.65 31.05 0.2 31.1 -0.25 31.1 -0.8 31.1 -1.2 31.1 -1.65 31.1 -2.05 31.05 -2.5 31.0 -2.9 30.95 -3.3 30.9 -3.7 30.8 -4.15 30.75 -4.55 30.65 -4.95 30.6 -5.35 30.5 -5.8 30.45 -6.0 30.3 -6.6 30.2 -7.15 30.1 -7.45 29.9 -8.35 29.8 -9.0 29.6 -9.85 29.5 -10.55 29.3 -11.4 29.2 -12.15 29.1 -12.95 29.0 -13.7 28.9 -14.5 28.8 -15.25 28.75 -16.1 28.7 -16.85 28.7 -17.65 28.7 -18.45 28.7 -19.25 28.8 -20.05 28.85 -20.75 28.9 -21.4 29.0 -22.05 29.05 -22.75 29.15 -23.4 29.25 -24.05 29.35 -24.75 29.5 -25.4 29.6 -26.05 29.75 -26.7 29.85 -27.35 30.05 -28.0 30.2 -28.7 30.35 -29.35 30.55 -30.0 30.75 -30.65 30.8 -30.85 31.15 -32.0 31.4 -32.8 31.55 -33.35 31.75 -34.05 31.95 -34.7 32.15 -35.4 32.25 -36.05 32.45 -36.75 32.55 -37.45 32.65 -38.15 32.75 -38.8 32.8 -39.55 32.8 -40.2 32.85 -40.95 32.8 -41.65 32.75 -42.1 32.75 -42.55 32.7 -43.0 32.65 -43.4 32.6 -43.85 32.55 -44.3 32.5 -44.75 32.4 -45.2 32.35 -45.65 32.3 -46.05 32.2 -46.5 32.15 -46.95 32.05 -47.4 31.95 -47.8 31.9 -48.25 31.8 -48.65 31.6 -49.6 28.3 -61.85 27.4 -57.05 27.2 -56.35 26.45 -53.8 24.3 -47.75 23.45 -45.35 21.8 -41.1 21.35 -40.0 20.25 -37.25 19.3 -34.85 18.75 -33.45 18.65 -33.15 18.55 -32.9 18.5 -32.6 18.4 -32.3 18.35 -32.0 18.35 -31.7 18.3 -31.45 18.3 -31.15 18.3 -30.85 18.3 -30.55 18.3 -30.25 18.35 -29.95 18.35 -29.7 18.4 -29.35 18.45 -29.1 18.5 -28.8 18.65 -27.6 19.0 -25.45 19.35 -23.1 19.5 -22.1 19.65 -21.1 19.8 -19.45 20.0 -17.4 20.1 -16.8 20.2 -15.9 20.7 -12.2 21.05 -9.4 21.2 -7.6 21.25 -7.1 21.3 -6.6 21.35 -6.15 21.4 -5.65 21.4 -5.15 21.45 -4.65 21.5 -4.15 21.5 -3.65 21.55 -3.15 21.55 -2.7 21.6 -2.2 21.6 -1.7 21.6 -1.2 21.65 -0.7 21.65 -0.2 21.65 0.3 21.65 0.75 21.65 1.15 21.65 1.65 21.6 2.05 21.6 2.5 21.55 2.9 21.5 3.35 21.4 3.8 21.3 4.2 21.2 4.6 21.1 5.05 20.95 5.45 20.75 5.85 20.6 6.2 20.35 6.6 20.15 6.95 20.0 7.2 19.8 7.55 19.65 7.75 19.45 8.15 19.15 8.75 19.15 8.75 18.95 9.1 18.8 9.35 18.6 9.65 18.4 9.9 18.2 10.2 18.0 10.4 17.75 10.65 17.45 10.85 17.15 11.05 16.85 11.2 16.65 11.3 16.5 11.35 16.3 11.45 16.15 11.5 16.0 11.55 15.8 11.65 15.65 11.7 15.45 11.75 15.3 11.8 15.1 11.85 14.9 11.95 14.75 12.0 14.55 12.05 14.4 12.05 14.2 12.1 14.05 12.15 13.9 12.2 13.7 12.2 13.55 12.2 13.4 12.15 13.25 12.15 13.05 12.1 12.9 12.05 12.8 12.0 12.65 11.9 12.5 11.8 12.35 11.7 12.25 11.6 12.15 11.5 12.05 11.35 11.95 11.2 11.85 11.05 11.75 10.9 11.7 10.7 11.6 10.55 11.55 10.35 11.5 10.2 11.45 10.0 11.45 9.85 11.45 9.7 11.45 9.5 11.5 9.35 11.5 9.15 11.55 9.0 11.65 8.8 11.7 8.65 11.8 8.5 11.95 8.35 12.15 8.1 12.35 7.85 12.55 7.6 12.75 7.35 12.9 7.1 13.1 6.9 13.3 6.65 13.5 6.4 13.7 6.15 13.9 5.9 14.1 5.7 14.3 5.45 14.5 5.2 14.7 4.95 14.95 4.75 15.15 4.5 15.4 4.2 15.6 4.0 15.8 3.7 16.0 3.5 16.2 3.2 16.4 2.95 16.6 2.7 16.75 2.4 16.95 2.15 17.1 1.85 17.25 1.55 17.35 1.25 17.5 0.95 17.6 0.65 17.7 0.3 17.75 -0.05 17.9 -0.7 18.3 -1.9 18.8 -3.15 18.95 -3.75 19.05 -4.15 19.1 -4.6 19.15 -5.0 19.15 -5.45 19.15 -5.85 19.15 -6.25 19.1 -6.65 19.05 -7.1 19.0 -7.5 18.95 -7.95 18.9 -8.3 18.8 -8.75 18.8 -9.0 18.65 -9.6 18.55 -10.1 18.5 -10.4 18.3 -11.5 17.5 -16.1 16.9 -19.55 16.6 -21.75 16.55 -22.05 16.55 -22.35 16.5 -22.65 16.5 -23.0 16.5 -23.3 16.5 -23.6 16.45 -23.9 16.5 -24.25 16.5 -24.5 16.5 -24.85 16.5 -25.0 16.5 -25.5 16.55 -25.9 16.55 -26.1 16.55 -26.45 16.55 -26.75 16.55 -27.15 16.55 -27.55 16.55 -27.95 16.5 -28.35 16.45 -28.7 16.4 -29.1 16.35 -29.5 16.3 -29.9 16.25 -30.25 16.15 -30.65 16.1 -31.05 16.0 -31.4 15.9 -31.8 15.8 -32.2 15.7 -32.55 15.6 -32.95 14.5 -36.6 13.5 -41.9 13.45 -42.1 13.45 -42.3 13.4 -42.5 13.4 -42.75 13.4 -42.95 13.4 -43.2 13.4 -43.4 13.45 -43.6 13.45 -43.8 13.45 -44.05 13.5 -44.4 13.5 -44.5 13.5 -44.75 13.55 -44.95 13.55 -45.2 13.55 -45.4 13.55 -45.9 13.55 -46.45 13.55 -46.95 13.6 -47.5 13.6 -48.0 13.65 -48.55 13.7 -49.05 13.75 -49.55 13.8 -50.1 13.85 -50.6 13.95 -51.1 14.0 -51.65 14.1 -52.15 14.2 -52.65 14.3 -53.15 14.4 -53.7 14.45 -53.8 14.45 -53.95 14.45 -54.05 14.45 -54.2 14.45 -54.35 14.45 -54.45 14.4 -54.6 14.4 -54.75 14.45 -54.45 14.4 -55.0 14.35 -55.15 14.35 -55.3 14.35 -55.4 14.35 -55.55 14.35 -55.7 14.35 -55.8 14.4 -56.55 14.7 -60.1 14.9 -62.7 14.9 -64.35 14.9 -64.7 14.9 -65.1 14.9 -65.5 14.9 -65.85 14.9 -66.25 14.85 -66.6 14.85 -67.0 14.8 -67.35 14.75 -67.75 14.75 -68.1 14.7 -68.5 14.65 -68.85 14.6 -69.2 14.55 -69.6 14.5 -69.95 14.45 -70.35 13.4 -76.75 12.4 -81.65 12.1 -82.95 10.85 -85.8 10.85 -85.85 9.05 -89.0 9.05 -89.05 9.0 -89.1 9.0 -89.15 8.95 -89.15 8.85 -89.45 8.75 -89.7 8.7 -89.95 8.7 -90.15 8.7 -90.4 8.75 -90.6 8.75 -90.75 8.85 -90.95 8.95 -91.1 9.1 -91.2 9.25 -91.35 9.5 -91.45 9.7 -91.5 9.95 -91.55 10.25 -91.6 10.55 -91.6 10.95 -91.6 11.35 -91.55 11.75 -91.5 12.1 -91.35 12.45 -91.25 12.75 -91.1 13.05 -90.9 13.35 -90.7 13.65 -90.5 13.9 -90.25 14.1 -90.0 14.35 -89.7 14.55 -89.4 14.75 -89.05 14.95 -88.75 15.15 -88.4 15.35 -87.95 15.55 -87.45 15.75 -87.0 15.95 -86.5 16.1 -86.0 16.25 -85.5 16.4 -85.05 16.55 -84.55 16.7 -84.05 16.8 -83.55 16.95 -83.05 17.05 -82.55 17.15 -82.05 17.25 -81.5 17.3 -81.05 17.4 -80.5 17.5 -79.75 17.6 -79.05 17.75 -78.3 17.8 -77.6 17.9 -76.85 17.95 -76.15 18.05 -75.4 18.1 -74.65 18.15 -73.95 18.2 -73.2 18.2 -72.45 18.25 -71.75 18.25 -71.0 18.25 -70.25 18.25 -69.55 18.25 -68.8 18.25 -68.4 18.15 -67.35 18.05 -66.4 18.05 -65.9 17.95 -62.15 18.05 -60.9 18.2 -58.5 17.35 -52.45 17.25 -51.8 17.2 -51.25 17.15 -50.65 17.05 -50.05 17.0 -49.45 17.0 -48.85 16.95 -48.25 16.95 -47.65 16.95 -47.05 16.95 -46.45 17.0 -45.85 17.05 -45.25 17.1 -44.65 17.2 -44.05 17.3 -43.45 17.4 -42.85 17.4 -42.75 17.45 -42.7 17.5 -42.6 17.5 -42.5 17.55 -42.4 17.6 -42.3 17.65 -42.25 17.7 -42.15 17.75 -42.05 17.8 -42.0 17.85 -41.9 17.9 -41.85 17.95 -41.8 18.05 -41.75 18.1 -41.7 18.15 -41.7 18.3 -41.65 18.4 -41.65 18.55 -41.6 18.65 -41.6 18.8 -41.6 18.9 -41.6 19.05 -41.65 19.15 -41.65 19.3 -41.7 19.4 -41.8 19.5 -41.85 19.6 -41.9 19.7 -42.0 19.8 -42.1 19.9 -42.25 20.0 -42.35 20.4 -42.95 20.7 -43.4 21.1 -44.0 21.4 -44.5 21.75 -45.05 22.05 -45.55 22.4 -46.1 22.7 -46.65 23.0 -47.2 23.3 -47.75 23.6 -48.35 23.85 -48.9 24.1 -49.5 24.3 -50.1 24.55 -50.7 24.75 -51.3 24.9 -51.7 25.0 -52.15 25.1 -52.55 25.15 -53.0 25.25 -53.4 25.3 -53.85 25.35 -54.25 25.4 -54.7 25.45 -55.1 25.5 -55.55 25.55 -55.9 25.6 -56.45 25.65 -57.2 25.65 -57.3 25.7 -57.8 25.75 -58.15 25.9 -59.95 26.3 -63.1 26.7 -66.6 26.85 -68.05 26.95 -68.9 26.95 -69.7 26.95 -70.55 26.95 -71.35 26.9 -72.15 26.8 -73.0 26.7 -73.75 26.55 -74.6 26.4 -75.35 26.2 -76.15 26.05 -76.95 25.8 -77.75 25.55 -78.55 25.25 -79.3 25.0 -80.1 24.7 -80.85 24.65 -81.0 24.6 -81.15 24.5 -81.3 24.45 -81.45 24.4 -81.6 24.4 -81.8 24.35 -81.95 24.3 -82.1 24.25 -82.25 24.25 -82.4 24.2 -82.55 24.2 -82.75 24.2 -82.9 24.15 -83.05 24.15 -83.2 24.15 -83.35 24.15 -83.75 24.2 -84.1 24.3 -84.45 24.4 -84.75 24.5 -85.0 24.65 -85.25 24.8 -85.45 25.05 -85.6 25.25 -85.75 25.5 -85.9 25.75 -86.0 26.05 -86.05 26.35 -86.15 26.7 -86.15 27.05 -86.15 27.45 -86.15 27.75 -86.15 28.1 -86.1 28.4 -86.05 28.7 -85.95 29.0 -85.85 29.25 -85.7 29.55 -85.6 29.8 -85.4 30.05 -85.25 30.3 -85.05 30.55 -84.9 30.8 -84.65 31.0 -84.45 31.2 -84.25 31.45 -84.0 31.65 -83.75 31.75 -83.6 31.8 -83.5 31.9 -83.35 31.95 -83.2 32.0 -83.05 32.0 -82.9 32.0 -82.75 32.0 -82.6 32.0 -82.45 31.95 -82.3 31.9 -82.15 31.85 -82.0 31.8 -81.9 31.7 -81.75 31.65 -81.6 31.5 -81.5 31.5 -81.45 31.45 -81.45 31.45 -81.4 31.4 -81.35 31.4 -81.35 31.4 -81.3 31.35 -81.25 31.35 -81.2 31.35 -81.15 31.3 -81.15 31.3 -81.1 31.3 -81.05 31.3 -81.0 31.25 -80.95 31.25 -80.95 31.25 -80.9 31.85 -84.45 30.45 -76.5 30.05 -73.9 29.85 -72.05 29.8 -71.7 29.8 -71.3 29.8 -70.95 29.75 -70.55 29.75 -70.2 29.8 -69.8 29.8 -69.45 29.8 -69.05 29.8 -68.7 29.85 -68.3 29.9 -67.95 29.9 -67.55 29.95 -67.2 30.0 -66.8 30.0 -66.5 30.05 -66.05 30.15 -64.95 30.5 -63.0 30.95 -60.8 31.05 -60.0 31.15 -59.15 31.35 -57.25 31.5 -55.5 31.65 -54.55 31.75 -53.8 32.45 -50.0 32.9 -47.2 33.1 -45.4 33.25 -44.05 33.25 -41.75 33.3 -39.0 33.35 -38.1 33.4 -37.4 33.35 -36.6 33.35 -35.9 33.3 -35.15 33.2 -34.45 33.1 -33.7 33.05 -33.0 32.9 -32.2 32.8 -31.7 32.65 -30.75 32.5 -29.75 32.4 -29.3 32.25 -28.5 32.2 -27.85 32.05 -27.05 32.0 -26.4 31.95 -25.75 31.9 -25.1 31.85 -24.5 31.85 -23.85 31.8 -23.2 31.8 -22.55 31.8 -21.9 31.85 -21.3 31.85 -20.65 31.9 -20.0 31.95 -19.4 32.0 -18.75 32.05 -18.1 32.1 -17.45 32.2 -16.85 32.25 -16.2 32.35 -15.4 32.5 -14.5 32.65 -13.7 32.85 -12.85 33.0 -12.05 33.2 -11.2 33.4 -10.45 33.6 -9.55 33.8 -8.85 34.05 -7.95 34.05 -7.9 34.5 -6.3 34.75 -5.3 34.9 -4.65 35.15 -3.75 35.35 -3.05 35.45 -2.6 35.5 -2.2 35.6 -1.75 35.6 -1.3 35.6 -0.9 35.6 -0.45 35.55 -0.05 35.5 0.4 35.45 0.8 35.35 1.2 35.25 1.6 35.1 2.05 35.0 2.45 34.85 2.85 34.65 3.25 34.45 3.65 34.2 4.15 34.0 4.6 33.85 5.1 33.7 5.6 33.5 6.1 33.4 6.55 33.3 7.05 33.25 7.55 33.2 8.05 33.2 8.55 33.2 9.05 33.25 9.55 33.3 10.1 33.45 10.6 33.55 11.1 33.75 11.65 33.85 11.95 33.9 12.1 34.0 12.35 34.05 12.5 34.15 12.75 34.2 12.95 34.25 13.2 34.3 13.4 34.35 13.65 34.35 13.9 34.4 14.1 34.4 14.35 34.4 14.6 34.35 14.8 34.35 15.05 34.25 15.3 34.2 15.55 34.05 15.75 33.95 16.0 33.85 16.15 33.7 16.3 33.5 16.4 33.35 16.55 33.15 16.6 33.0 16.65 32.8 16.65 32.6 16.65 32.4 16.6 32.15 16.55 31.95 16.45 31.75 16.3 31.6 16.15 31.4 15.95 31.2 15.7 31.0 15.5 30.85 15.25 30.7 15.0 30.6 14.75 30.45 14.5 30.35 14.2 30.3 13.95 30.2 13.7 30.15 13.4 30.1 13.15 30.05 12.85 30.05 12.55 30.0 12.3 30.0 12.0 30.0 11.7 30.0 7.2 L30.0 7.2" fill="#000000" fill-rule="evenodd" stroke="none"/>
    <path d="M28.45 11.1 Q28.45 11.25 28.45 11.45 28.4 11.6 28.35 11.75 28.3 11.9 28.25 12.05 28.15 12.15 28.1 12.25 28.0 12.4 27.9 12.45 27.8 12.55 27.7 12.6 27.6 12.65 27.45 12.65 27.35 12.65 27.25 12.65 27.2 12.65 27.1 12.6 27.05 12.55 27.0 12.55 26.9 12.5 26.85 12.45 26.8 12.4 26.75 12.3 26.65 12.25 26.6 12.2 26.55 12.1 26.5 12.05 26.5 12.0 26.45 11.9 26.4 11.85 26.4 11.8 26.35 11.7 26.4 11.6 26.4 11.45 26.45 11.35 26.5 11.25 26.55 11.15 26.65 11.05 26.75 11.0 26.85 10.9 26.95 10.85 27.05 10.75 27.2 10.75 27.35 10.7 27.45 10.65 27.6 10.65 27.75 10.65 27.8 10.65 27.85 10.7 27.9 10.7 27.95 10.75 28.0 10.75 28.05 10.8 28.1 10.8 28.15 10.85 28.2 10.9 28.25 10.95 28.2 10.9 28.35 11.0 28.4 11.05 28.4 11.05 28.45 11.1 28.45 11.1 L28.45 11.1" fill="#000000" fill-rule="evenodd" stroke="none"/>
  </g>
</svg>
