<?xml version="1.0" encoding="UTF-8" standalone="no"?>
<svg xmlns:xlink="http://www.w3.org/1999/xlink" height="17.15px" width="17.3px" xmlns="http://www.w3.org/2000/svg">
  <g transform="matrix(1.0, 0.0, 0.0, 1.0, 8.65, 8.55)">
    <path d="M-0.25 -4.55 Q-0.9 -4.55 -1.15 -4.55 -1.45 -4.55 -1.3 -4.55 -1.4 -4.55 -1.45 -4.55 -1.55 -4.55 -1.6 -4.6 -1.7 -4.6 -1.75 -4.6 -1.85 -4.6 -1.9 -4.65 -2.0 -4.65 -2.05 -4.7 -2.15 -4.7 -2.2 -4.75 -2.25 -4.8 -2.3 -4.85 -2.35 -4.85 -2.4 -4.9 -3.75 -5.35 -4.15 -5.5 -4.4 -5.65 -5.1 -6.05 -5.9 -6.55 -6.25 -6.8 -6.3 -6.85 -6.4 -6.9 -6.45 -6.95 -6.55 -7.0 -6.6 -7.05 -6.65 -7.15 -6.75 -7.2 -6.8 -7.25 -6.9 -7.3 -6.95 -7.35 -7.0 -7.4 -7.05 -7.5 -7.15 -7.55 -7.2 -7.6 -7.25 -7.65 -7.35 -7.75 -7.35 -7.75 -7.4 -7.8 -7.4 -7.8 -7.4 -7.85 -7.4 -7.9 -7.4 -7.9 -7.4 -7.95 -7.4 -8.0 -7.4 -8.05 -7.4 -8.1 -7.4 -8.1 -7.4 -8.15 -7.4 -8.2 -7.4 -8.25 -7.4 -8.25 -7.35 -8.3 -7.35 -8.3 -7.35 -8.35 -7.3 -8.35 -7.3 -8.4 -7.25 -8.4 -7.25 -8.4 -7.2 -8.45 -7.15 -8.45 -7.15 -8.45 -7.1 -8.45 -7.05 -8.5 -7.05 -8.5 -7.0 -8.5 -6.95 -8.5 -6.9 -8.5 -6.9 -8.5 -6.85 -8.5 -6.8 -8.5 -6.7 -8.5 -6.65 -8.5 -6.6 -8.5 -6.55 -8.45 -6.5 -8.45 -6.45 -8.4 -6.4 -8.4 -6.35 -8.4 -6.3 -8.35 -6.25 -8.3 -6.2 -8.3 -6.15 -8.25 -6.1 -8.2 -6.05 -8.15 -5.8 -7.9 -5.2 -7.5 -5.0 -7.35 -4.6 -7.15 -4.2 -6.9 -4.0 -6.8 -4.0 -6.8 -3.95 -6.75 -3.95 -6.75 -3.9 -6.7 -3.85 -6.7 -3.85 -6.7 -3.05 -6.3 -2.95 -6.3 -2.85 -6.25 -2.7 -6.2 -2.6 -6.15 -2.45 -6.1 -2.45 -6.1 -2.2 -6.0 -2.05 -5.95 -1.95 -5.9 -1.8 -5.85 -1.65 -5.8 -1.55 -5.75 -1.4 -5.75 -1.25 -5.7 -1.1 -5.7 -1.0 -5.7 -0.85 -5.7 -0.6 -5.7 0.2 -5.7 0.85 -5.75 1.25 -5.75 1.3 -5.75 1.35 -5.75 1.4 -5.8 1.45 -5.8 1.45 -5.8 1.5 -5.8 1.55 -5.85 1.6 -5.85 1.65 -5.85 1.7 -5.9 1.75 -5.95 1.8 -5.95 1.85 -5.95 1.85 -5.95 1.9 -6.0 1.95 -6.0 2.0 -6.0 2.0 -6.05 2.05 -6.05 2.05 -6.05 2.15 -6.1 2.85 -6.35 3.35 -6.55 3.65 -6.7 3.85 -6.8 4.85 -7.4 4.9 -7.4 4.95 -7.45 5.0 -7.45 5.0 -7.5 5.05 -7.5 5.1 -7.5 5.15 -7.55 5.2 -7.55 5.2 -7.6 5.25 -7.6 5.3 -7.65 5.35 -7.65 5.4 -7.7 5.4 -7.7 5.45 -7.75 5.5 -7.75 5.65 -7.85 5.9 -8.05 6.15 -8.3 6.25 -8.4 6.3 -8.45 6.35 -8.45 6.4 -8.5 6.45 -8.5 6.5 -8.5 6.55 -8.55 6.6 -8.55 6.65 -8.55 6.7 -8.55 6.7 -8.55 6.75 -8.55 6.8 -8.55 6.85 -8.55 6.9 -8.5 6.95 -8.5 7.0 -8.45 7.05 -8.45 7.05 -8.4 7.1 -8.4 7.15 -8.35 7.15 -8.3 7.15 -8.25 7.2 -8.2 7.2 -8.15 7.2 -8.1 7.2 -8.05 7.2 -8.0 7.2 -7.95 7.2 -7.9 7.15 -7.85 7.15 -7.8 7.1 -7.8 7.05 -7.75 7.0 -7.65 6.95 -7.6 6.9 -7.55 6.85 -7.5 6.8 -7.4 6.75 -7.35 6.7 -7.3 6.6 -7.25 6.55 -7.2 6.5 -7.1 6.45 -7.05 6.4 -7.0 6.3 -6.95 6.25 -6.9 6.2 -6.85 6.15 -6.85 5.0 -6.1 4.95 -6.05 4.95 -6.05 3.55 -5.4 3.55 -5.4 3.45 -5.35 3.35 -5.25 3.25 -5.2 3.1 -5.15 3.0 -5.1 2.9 -5.1 2.8 -5.05 2.65 -5.0 2.7 -5.05 2.4 -4.95 2.3 -4.9 2.2 -4.9 2.05 -4.85 1.95 -4.8 1.85 -4.75 1.75 -4.7 1.6 -4.65 0.45 -4.55 0.35 -4.55 -0.25 -4.55 -0.25 -4.55 -0.25 -4.55 L-0.25 -4.55" fill="#5cce20" fill-rule="evenodd" stroke="none"/>
    <path d="M-0.8 3.7 Q-0.55 3.7 -0.6 3.7 -0.45 3.7 -0.35 3.7 -0.25 3.75 -0.15 3.75 -0.05 3.75 0.05 3.75 0.15 3.8 0.25 3.8 0.35 3.8 0.45 3.85 0.55 3.9 0.65 3.9 0.75 3.95 0.85 4.0 0.9 4.0 0.9 4.05 0.95 4.05 1.0 4.05 1.0 4.05 1.05 4.05 1.1 4.1 1.15 4.1 1.15 4.1 1.2 4.1 1.25 4.1 1.25 4.1 1.3 4.1 1.35 4.15 1.35 4.15 1.4 4.15 1.45 4.15 1.5 4.2 1.55 4.2 1.6 4.2 1.6 4.25 1.65 4.25 1.7 4.25 1.75 4.3 1.8 4.3 1.85 4.3 1.85 4.35 1.9 4.35 1.95 4.35 2.0 4.4 2.05 4.4 2.1 4.45 2.2 4.5 2.2 4.5 2.3 4.55 2.35 4.55 2.4 4.6 2.45 4.6 2.5 4.65 2.55 4.65 2.6 4.7 2.65 4.75 2.75 4.75 2.8 4.8 2.85 4.85 2.9 4.85 2.95 4.9 3.0 4.95 3.05 5.0 3.15 5.05 3.2 5.1 3.25 5.15 3.3 5.2 3.35 5.25 3.4 5.3 3.45 5.4 3.5 5.45 3.55 5.5 3.6 5.55 3.65 5.65 3.7 5.7 3.7 5.8 3.75 5.85 3.75 5.95 3.8 6.0 4.3 6.7 4.4 6.85 4.65 7.15 4.85 7.45 5.0 7.6 5.0 7.65 5.05 7.65 5.05 7.7 5.05 7.7 5.05 7.75 5.1 7.8 5.1 7.8 5.1 7.85 5.1 7.9 5.15 7.9 5.15 7.95 5.15 8.0 5.15 8.0 5.15 8.05 5.15 8.1 5.15 8.1 5.15 8.2 5.15 8.25 5.15 8.3 5.1 8.35 5.1 8.4 5.05 8.45 5.0 8.5 4.95 8.55 4.9 8.55 4.85 8.6 4.8 8.6 4.7 8.6 4.65 8.6 4.55 8.6 4.5 8.55 4.45 8.55 4.4 8.55 4.35 8.5 4.3 8.5 4.25 8.45 4.25 8.4 4.2 8.4 4.15 8.35 4.1 8.35 4.1 8.3 4.05 8.25 4.0 8.25 4.0 8.2 3.95 8.15 3.95 8.15 3.9 8.1 3.9 8.05 3.75 7.85 3.5 7.6 3.15 7.2 3.1 7.1 3.05 7.05 3.0 7.0 3.0 6.95 2.95 6.95 2.9 6.9 2.85 6.85 2.85 6.8 2.8 6.75 2.75 6.7 2.7 6.65 2.7 6.6 2.65 6.55 2.6 6.5 2.6 6.5 2.55 6.45 2.5 6.4 2.45 6.3 2.35 6.2 2.3 6.1 2.2 6.05 2.15 5.95 2.05 5.85 1.95 5.8 1.9 5.75 1.8 5.65 1.7 5.6 1.6 5.55 1.5 5.45 1.4 5.4 1.3 5.35 1.2 5.35 1.05 5.3 1.0 5.3 0.9 5.25 0.85 5.2 0.75 5.2 0.9 5.25 0.6 5.1 0.5 5.05 0.45 5.05 0.35 5.0 0.3 5.0 0.2 4.95 0.15 4.95 0.05 4.9 0.0 4.9 -0.1 4.9 -0.2 4.9 -0.45 4.9 -0.95 4.95 -1.45 4.95 -1.75 4.95 -1.75 4.95 -2.0 5.05 -2.25 5.15 -2.7 5.35 -3.0 5.5 -3.0 5.5 -3.65 6.0 -3.8 6.15 -3.95 6.3 -4.2 6.6 -4.45 6.9 -4.6 7.0 -4.65 7.05 -4.65 7.05 -4.7 7.1 -4.75 7.15 -4.75 7.2 -4.8 7.2 -4.85 7.25 -4.85 7.25 -4.9 7.3 -4.95 7.35 -4.95 7.35 -5.0 7.4 -5.05 7.4 -5.1 7.4 -5.15 7.45 -5.15 7.45 -5.2 7.45 -5.2 7.45 -5.25 7.45 -5.3 7.45 -5.35 7.4 -5.4 7.4 -5.45 7.4 -5.5 7.35 -5.5 7.35 -5.55 7.3 -5.6 7.3 -5.6 7.25 -5.65 7.25 -5.7 7.2 -5.7 7.2 -5.7 7.15 -5.7 7.1 -5.75 7.05 -5.75 7.05 -5.75 7.0 -5.8 6.95 -5.8 6.9 -5.8 6.85 -5.8 6.8 -5.8 6.75 -5.8 6.7 -5.8 6.65 -5.75 6.65 -5.75 6.6 -5.75 6.55 -5.75 6.5 -5.7 6.45 -5.6 6.25 -5.05 5.7 -4.2 4.9 -4.0 4.75 -3.0 4.2 -2.7 4.1 -2.65 4.1 -2.55 4.05 -2.5 4.05 -2.45 4.05 -2.4 4.0 -2.3 4.0 -2.25 4.0 -2.2 3.95 -2.05 3.9 -2.05 3.9 -2.0 3.85 -1.95 3.85 -1.85 3.85 -1.8 3.8 -1.75 3.8 -1.7 3.8 -1.55 3.75 -0.8 3.7 L-0.8 3.7" fill="#5cce20" fill-rule="evenodd" stroke="none"/>
    <path d="M4.4 0.65 Q4.5 0.3 4.65 -0.4 4.65 -0.45 4.75 -0.85 4.8 -1.15 4.85 -1.3 4.9 -1.4 5.2 -2.15 5.2 -2.15 5.25 -2.2 5.25 -2.25 5.25 -2.25 5.35 -2.5 5.7 -3.25 5.75 -3.35 5.8 -3.45 5.85 -3.55 5.95 -3.65 6.0 -3.75 6.05 -3.85 6.1 -3.95 6.15 -4.05 6.25 -4.15 6.3 -4.25 6.35 -4.35 6.45 -4.4 6.5 -4.5 6.6 -4.6 6.65 -4.7 6.7 -4.8 6.85 -4.95 7.05 -5.2 7.25 -5.5 7.35 -5.6 7.4 -5.65 7.45 -5.7 7.55 -5.75 7.6 -5.8 7.7 -5.85 7.8 -5.85 7.85 -5.9 7.95 -5.9 8.05 -5.9 8.15 -5.9 8.2 -5.9 8.3 -5.9 8.35 -5.85 8.45 -5.85 8.5 -5.8 8.55 -5.75 8.6 -5.7 8.6 -5.65 8.6 -5.6 8.65 -5.55 8.65 -5.5 8.65 -5.45 8.65 -5.4 8.65 -5.35 8.65 -5.3 8.65 -5.25 8.6 -5.2 8.6 -5.15 8.55 -5.1 8.55 -5.05 8.5 -5.0 8.45 -5.0 8.4 -4.95 8.3 -4.85 8.25 -4.8 8.2 -4.75 8.1 -4.65 8.05 -4.6 8.0 -4.55 7.95 -4.45 7.85 -4.4 7.8 -4.3 7.75 -4.25 7.7 -4.15 7.65 -4.1 7.6 -4.0 7.55 -3.95 7.55 -3.85 7.4 -3.6 7.2 -3.3 6.85 -2.8 6.8 -2.75 6.75 -2.75 6.75 -2.7 6.65 -2.5 6.45 -1.95 6.25 -1.5 6.1 -1.2 6.1 -1.15 6.1 -1.1 6.1 -1.1 6.05 -1.05 6.05 -0.95 6.05 -0.95 6.05 -0.9 6.05 -0.85 6.0 -0.8 6.0 -0.8 5.95 -0.65 5.9 -0.55 5.85 -0.4 5.8 -0.3 5.75 -0.15 5.75 0.0 5.7 0.1 5.7 0.25 5.7 0.35 5.7 0.5 5.7 0.65 5.7 0.75 5.7 0.9 5.7 1.05 5.75 1.15 5.75 1.3 5.75 1.35 5.95 1.8 5.95 1.85 6.0 1.9 6.05 1.95 6.05 1.95 6.05 2.0 6.05 2.05 6.05 2.15 6.1 2.25 6.15 2.35 6.15 2.45 6.2 2.55 6.25 2.6 6.3 2.7 6.35 2.8 6.45 2.85 6.5 2.95 6.55 3.0 6.65 3.1 6.7 3.15 6.8 3.25 6.85 3.3 6.95 3.4 7.0 3.45 7.05 3.45 7.05 3.5 7.1 3.55 7.15 3.55 7.2 3.6 7.25 3.65 7.25 3.7 7.3 3.75 7.35 3.75 7.35 3.8 7.4 3.85 7.4 3.9 7.45 3.95 7.45 4.0 7.5 4.05 7.5 4.1 7.5 4.15 7.5 4.2 7.5 4.25 7.5 4.3 7.45 4.35 7.4 4.4 7.35 4.45 7.3 4.5 7.25 4.55 7.15 4.55 7.1 4.6 7.05 4.6 6.95 4.6 6.9 4.6 6.85 4.6 6.7 4.55 6.55 4.5 6.45 4.45 6.3 4.4 6.2 4.35 6.1 4.25 6.0 4.2 5.9 4.1 5.85 4.0 5.75 3.9 5.65 3.8 5.6 3.7 5.55 3.65 5.45 3.5 5.35 3.35 5.25 3.3 5.2 3.2 5.1 3.1 5.05 3.0 5.0 2.9 4.95 2.75 4.95 2.65 4.9 2.55 4.85 2.45 4.85 2.35 4.8 2.2 4.75 2.05 4.75 2.0 4.7 1.85 4.65 1.75 4.65 1.65 4.6 1.55 4.55 1.45 4.4 0.65 L4.4 0.65" fill="#5cce20" fill-rule="evenodd" stroke="none"/>
    <path d="M-4.5 -0.25 Q-4.55 0.85 -4.6 1.1 -4.6 1.2 -4.9 1.9 -4.9 1.95 -4.95 2.0 -4.95 2.05 -4.95 2.05 -5.0 2.2 -5.05 2.3 -5.1 2.4 -5.2 2.55 -5.25 2.65 -5.35 2.75 -5.4 2.85 -5.5 2.95 -5.6 3.05 -5.7 3.1 -5.8 3.2 -5.9 3.3 -5.95 3.35 -6.1 3.45 -5.95 3.35 -6.3 3.65 -6.35 3.7 -6.4 3.75 -6.5 3.8 -6.55 3.8 -6.6 3.85 -6.65 3.9 -6.7 3.95 -6.8 3.95 -6.85 4.0 -6.9 4.0 -7.0 4.0 -7.05 4.05 -7.15 4.05 -7.2 4.05 -7.25 4.05 -7.35 4.05 -7.4 4.05 -7.45 4.05 -7.5 4.05 -7.5 4.0 -7.55 4.0 -7.6 4.0 -7.65 3.95 -7.7 3.95 -7.7 3.9 -7.75 3.9 -7.75 3.85 -7.8 3.85 -7.8 3.8 -7.75 3.8 -7.75 3.8 -7.8 3.75 -7.8 3.75 -7.8 3.7 -7.8 3.65 -7.8 3.65 -7.8 3.6 -7.8 3.55 -7.8 3.55 -7.8 3.5 -7.8 3.45 -7.75 3.45 -7.75 3.4 -7.75 3.35 -7.75 3.35 -7.7 3.3 -7.65 3.25 -7.65 3.25 -7.6 3.2 -7.55 3.15 -7.55 3.15 -7.5 3.1 -7.45 3.1 -7.4 3.05 -7.4 3.05 -7.35 3.0 -7.3 2.95 -7.25 2.9 -7.2 2.9 -7.15 2.85 -7.1 2.85 -7.1 2.8 -6.55 2.3 -6.3 2.0 -6.15 1.8 -6.05 1.6 -5.95 1.4 -5.85 1.15 -5.8 0.95 -5.8 0.7 -5.75 0.5 -5.75 0.3 -5.75 0.05 -5.75 -0.15 -5.75 -0.35 -5.8 -0.6 -5.8 -0.8 -5.85 -1.05 -6.05 -2.55 -5.9 -1.5 -5.9 -1.55 -6.1 -1.9 -6.1 -1.95 -6.15 -2.0 -6.2 -2.1 -6.25 -2.1 -6.75 -3.2 -6.9 -3.45 -6.95 -3.5 -8.1 -4.95 -8.15 -5.0 -8.15 -5.0 -8.2 -5.05 -8.2 -5.1 -8.25 -5.15 -8.25 -5.15 -8.3 -5.2 -8.3 -5.25 -8.35 -5.3 -8.35 -5.35 -8.35 -5.45 -8.35 -5.5 -8.35 -5.55 -8.35 -5.65 -8.3 -5.7 -8.25 -5.75 -8.25 -5.8 -8.2 -5.8 -8.1 -5.85 -8.05 -5.9 -8.0 -5.9 -7.9 -5.9 -7.85 -5.9 -7.75 -5.9 -7.65 -5.9 -7.6 -5.9 -7.5 -5.85 -7.45 -5.85 -7.35 -5.8 -7.3 -5.75 -7.2 -5.7 -7.15 -5.65 -7.1 -5.6 -7.0 -5.55 -6.95 -5.5 -6.9 -5.45 -6.85 -5.4 -6.8 -5.35 -6.8 -5.3 -6.7 -5.2 -6.65 -5.15 -6.6 -5.1 -6.45 -4.9 -5.7 -3.85 -5.65 -3.8 -5.65 -3.8 -5.65 -3.75 -5.6 -3.7 -5.65 -3.75 -5.6 -3.65 -5.55 -3.6 -5.55 -3.55 -5.5 -3.45 -5.25 -3.05 -5.25 -3.05 -5.2 -3.0 -5.2 -3.0 -5.2 -3.0 -5.2 -2.9 -5.15 -2.75 -5.1 -2.65 -5.05 -2.55 -5.0 -2.45 -4.95 -2.3 -4.95 -2.3 -4.85 -2.1 -4.8 -2.0 -4.75 -1.9 -4.7 -1.8 -4.65 -1.7 -4.6 -1.55 -4.6 -1.45 -4.55 -1.35 -4.55 -1.2 -4.55 -1.05 -4.5 -0.25 L-4.5 -0.25" fill="#5cce20" fill-rule="evenodd" stroke="none"/>
  </g>
</svg>
