<?xml version="1.0" encoding="UTF-8" standalone="no"?>
<svg xmlns:xlink="http://www.w3.org/1999/xlink" height="44.5px" width="111.65px" xmlns="http://www.w3.org/2000/svg">
  <g transform="matrix(1.0, 0.0, 0.0, 1.0, 55.8, 22.25)">
    <path d="M-47.65 5.1 Q-47.65 5.05 -47.6 5.0 -47.6 4.95 -47.6 4.9 -47.55 4.9 -47.55 4.85 -47.5 4.8 -47.5 4.75 -47.45 4.7 -47.45 4.7 -47.4 4.65 -47.35 4.6 -47.35 4.55 -47.3 4.55 -47.25 4.5 -47.25 4.45 -47.2 4.4 -47.15 4.35 -47.05 4.35 -47.0 4.3 -46.95 4.25 -46.9 4.25 -46.85 4.25 -46.75 4.2 -46.7 4.2 -46.65 4.2 -46.55 4.2 -46.5 4.2 -46.45 4.2 -46.35 4.25 -46.3 4.25 -46.25 4.25 -46.15 4.3 -46.1 4.3 -46.0 4.35 -45.95 4.35 -45.85 4.4 -45.75 4.4 -45.7 4.4 -45.6 4.45 -45.55 4.45 -45.45 4.45 -45.35 4.45 -45.3 4.45 -45.2 4.45 -45.15 4.45 -45.05 4.45 -44.95 4.45 -44.85 4.45 -44.75 4.4 -44.65 4.35 -44.55 4.35 -44.5 4.3 -44.4 4.25 -44.3 4.2 -44.25 4.15 -44.15 4.1 -44.05 4.05 -44.0 3.95 -43.9 3.9 -43.85 3.85 -43.8 3.75 -43.7 3.7 -43.65 3.6 -43.3 3.2 -42.8 2.4 -42.35 1.75 -41.9 1.1 -41.45 0.45 -41.0 -0.2 -40.55 -0.85 -40.1 -1.5 -39.6 -2.1 -39.15 -2.75 -38.65 -3.35 -38.15 -3.95 -37.65 -4.6 -37.15 -5.2 -36.65 -5.8 -36.15 -6.4 -35.6 -7.0 -35.1 -7.55 -34.65 -8.05 -32.7 -10.05 -32.65 -10.1 -32.6 -10.1 -32.55 -10.15 -32.5 -10.2 -32.5 -10.2 -32.45 -10.25 -32.4 -10.25 -32.35 -10.3 -32.3 -10.3 -32.25 -10.3 -32.2 -10.3 -32.15 -10.3 -32.05 -10.3 -32.0 -10.3 -31.95 -10.3 -31.9 -10.3 -31.85 -10.3 -31.75 -10.25 -31.7 -10.2 -31.65 -10.15 -31.55 -10.15 -31.55 -10.1 -31.5 -10.05 -31.45 -9.95 -31.4 -9.9 -31.4 -9.85 -31.35 -9.8 -31.35 -9.7 -31.35 -9.65 -31.35 -9.55 -31.35 -9.5 -31.35 -9.4 -31.35 -9.3 -31.4 -9.15 -31.45 -9.0 -31.45 -8.9 -31.5 -8.8 -31.55 -8.65 -31.6 -8.55 -31.6 -8.4 -31.65 -8.3 -31.7 -8.15 -31.75 -8.05 -31.8 -7.9 -31.85 -7.8 -31.9 -7.7 -31.95 -7.55 -32.0 -7.45 -33.85 -3.2 -34.3 -2.1 -34.4 -1.85 -34.5 -1.6 -34.6 -1.35 -34.65 -1.1 -34.75 -0.85 -34.85 -0.6 -34.9 -0.35 -35.0 -0.1 -35.05 0.1 -35.15 0.4 -35.2 0.65 -35.3 0.9 -35.35 1.15 -35.4 1.4 -35.45 1.65 -35.5 1.9 -35.45 1.9 -35.45 1.95 -35.4 1.95 -35.35 1.95 -35.35 1.95 -35.3 1.95 -35.25 2.0 -35.25 2.0 -35.2 1.95 -35.15 1.95 -35.15 1.95 -35.1 1.95 -35.05 1.95 -35.05 1.9 -35.0 1.9 -34.95 1.9 -34.95 1.9 -34.85 1.75 -34.75 1.7 -34.7 1.65 -34.45 1.3 -34.15 1.0 -33.9 0.7 -33.6 0.45 -33.3 0.15 -33.0 -0.1 -32.7 -0.35 -32.35 -0.55 -32.05 -0.8 -31.7 -0.95 -31.35 -1.15 -30.95 -1.35 -30.6 -1.5 -30.2 -1.65 -29.85 -1.8 -29.45 -1.9 -29.25 -1.95 -29.0 -2.05 -28.8 -2.1 -28.6 -2.2 -28.4 -2.3 -28.2 -2.4 -28.0 -2.5 -27.85 -2.65 -27.65 -2.75 -27.45 -2.9 -27.3 -3.0 -27.15 -3.15 -27.0 -3.3 -26.85 -3.5 -26.7 -3.65 -26.55 -3.8 -26.05 -4.4 -23.95 -7.15 -22.85 -8.6 -19.75 -12.6 -17.15 -16.0 -15.6 -18.05 -15.5 -18.2 -15.4 -18.3 -15.3 -18.4 -15.2 -18.5 -15.1 -18.65 -15.0 -18.75 -14.9 -18.85 -14.8 -18.95 -14.7 -19.1 -14.6 -19.2 -14.5 -19.3 -14.35 -19.4 -14.25 -19.5 -14.15 -19.6 -14.0 -19.7 -13.9 -19.75 -13.85 -19.8 -13.8 -19.85 -13.75 -19.85 -13.7 -19.9 -13.65 -19.95 -13.55 -20.0 -13.5 -20.0 -13.45 -20.05 -13.4 -20.05 -13.35 -20.1 -13.25 -20.1 -13.2 -20.1 -13.15 -20.15 -13.1 -20.15 -13.0 -20.15 -12.95 -20.15 -12.85 -20.15 -12.75 -20.15 -12.65 -20.1 -12.55 -20.1 -12.5 -20.05 -12.4 -20.0 -12.35 -19.95 -12.25 -19.9 -12.2 -19.8 -12.15 -19.75 -12.1 -19.7 -12.05 -19.6 -12.05 -19.5 -12.0 -19.4 -12.0 -19.3 -12.0 -19.2 -12.0 -19.05 -12.0 -18.95 -12.0 -18.8 -12.05 -18.7 -12.05 -18.55 -12.05 -18.4 -12.1 -18.3 -12.1 -18.15 -12.15 -18.05 -12.15 -17.9 -12.2 -17.8 -12.25 -17.65 -12.3 -17.55 -12.35 -17.45 -12.4 -17.3 -12.45 -17.2 -12.95 -15.95 -13.75 -14.35 -14.35 -13.2 -16.35 -9.2 -18.0 -6.0 -19.0 -4.05 -19.2 -3.6 -19.4 -3.2 -19.65 -2.75 -19.85 -2.3 -20.05 -1.85 -20.2 -1.4 -20.4 -0.95 -20.6 -0.5 -20.75 -0.05 -20.9 0.4 -21.1 0.85 -21.25 1.3 -21.4 1.75 -21.5 2.25 -21.65 2.7 -21.75 3.15 -21.95 3.9 -22.15 5.05 -22.15 5.15 -22.15 5.7 -22.1 5.7 -22.05 5.65 -22.0 5.65 -21.95 5.65 -21.9 5.65 -21.85 5.6 -21.85 5.6 -21.8 5.6 -21.75 5.55 -21.7 5.55 -21.6 5.5 -21.55 5.45 -21.45 5.4 -21.4 5.35 -21.3 5.25 -21.25 5.2 -21.15 5.15 -21.1 5.1 -21.05 5.0 -20.95 4.95 -20.9 4.85 -20.85 4.8 -20.75 4.7 -20.7 4.65 -20.65 4.55 -20.6 4.5 -19.8 3.45 -18.75 1.7 -18.75 1.65 -18.7 1.6 -18.7 1.6 -18.65 1.55 -18.65 1.5 -18.65 1.45 -18.6 1.45 -18.6 1.4 -18.55 1.35 -18.55 1.35 -18.5 1.3 -18.5 1.25 -18.45 1.25 -18.45 1.2 -18.4 1.15 -18.35 1.15 -18.25 1.05 -18.1 0.95 -18.0 0.85 -17.85 0.8 -17.75 0.75 -17.6 0.7 -17.45 0.7 -17.3 0.7 -17.15 0.7 -17.05 0.75 -16.9 0.8 -16.75 0.85 -16.65 0.95 -16.55 1.05 -16.4 1.15 -16.3 1.3 -16.25 1.4 -16.2 1.45 -16.15 1.55 -16.1 1.65 -16.05 1.75 -16.05 1.85 -16.0 1.9 -15.95 2.0 -15.95 2.1 -15.9 2.2 -15.9 2.3 -15.9 2.4 -15.85 2.5 -15.85 2.6 -15.85 2.7 -15.85 2.8 -15.8 3.2 -15.8 4.65 -15.8 4.7 -15.85 4.8 -15.85 4.95 -15.85 5.0 -15.85 5.05 -15.85 5.1 -15.85 5.1 -15.85 5.15 -15.85 5.2 -15.85 5.2 -15.85 5.25 -15.85 5.3 -15.8 5.3 -15.8 5.35 -15.75 5.35 -15.75 5.35 -15.7 5.4 -15.7 5.4 -15.65 5.4 -15.6 5.45 -15.45 5.5 -15.35 5.5 -15.2 5.55 -15.1 5.6 -14.95 5.6 -14.85 5.7 -14.75 5.75 -14.65 5.8 -14.55 5.9 -14.5 5.95 -14.4 6.05 -14.35 6.15 -14.3 6.25 -14.25 6.4 -14.2 6.5 -14.2 6.6 -14.15 6.75 -14.15 6.9 -14.1 7.35 -14.15 8.2 -14.2 8.85 -14.3 10.65 -14.4 12.2 -14.45 13.1 -14.45 13.2 -14.45 13.25 -14.45 13.35 -14.45 13.45 -14.45 13.55 -14.45 13.6 -14.45 13.7 -14.45 13.8 -14.4 13.85 -14.4 13.95 -14.4 14.05 -14.4 14.15 -14.4 14.2 -14.4 14.3 -14.35 14.4 -14.35 14.45 -14.35 14.55 -14.3 14.65 -14.3 14.75 -14.25 14.85 -14.2 14.95 -14.15 15.0 -14.15 15.1 -14.05 15.2 -14.0 15.25 -13.95 15.35 -13.9 15.4 -13.8 15.45 -13.75 15.55 -13.65 15.6 -13.6 15.65 -13.5 15.7 -13.2 15.85 -12.7 16.05 -12.0 16.35 -11.85 16.45 -11.35 16.65 -11.1 16.8 -11.05 16.85 -11.0 16.85 -10.95 16.9 -10.9 16.95 -10.85 17.0 -10.85 17.05 -10.8 17.05 -10.8 17.1 -10.75 17.15 -10.75 17.2 -10.75 17.3 -10.7 17.35 -10.7 17.4 -10.7 17.45 -10.7 17.5 -10.7 17.55 -10.7 17.6 -10.75 17.7 -10.75 17.75 -10.75 17.8 -10.8 17.85 -10.8 17.9 -10.85 17.95 -10.85 18.0 -10.9 18.05 -10.95 18.1 -11.0 18.1 -11.05 18.15 -11.1 18.2 -11.15 18.2 -11.2 18.25 -11.25 18.25 -11.3 18.25 -11.35 18.3 -11.4 18.3 -11.45 18.3 -11.5 18.3 -11.55 18.35 -11.65 18.35 -11.7 18.35 -11.75 18.35 -11.8 18.35 -11.85 18.35 -11.9 18.4 -11.95 18.4 -12.05 18.4 -12.1 18.4 -12.15 18.4 -14.35 18.45 -14.95 18.45 -15.55 18.45 -16.6 18.25 -16.7 18.25 -16.8 18.2 -16.85 18.2 -16.95 18.2 -17.05 18.2 -17.15 18.25 -17.2 18.25 -17.3 18.25 -17.35 18.3 -17.45 18.3 -17.5 18.35 -17.6 18.4 -17.65 18.45 -17.75 18.5 -17.8 18.55 -17.85 18.65 -17.95 18.75 -18.05 18.85 -18.15 18.9 -18.25 19.0 -18.35 19.1 -18.45 19.15 -18.55 19.25 -18.65 19.3 -18.75 19.4 -18.9 19.45 -19.0 19.55 -19.1 19.6 -19.25 19.65 -19.35 19.7 -19.45 19.8 -19.6 19.85 -19.9 19.95 -20.2 20.05 -20.45 20.1 -20.75 20.15 -21.05 20.15 -21.3 20.15 -21.6 20.1 -21.9 20.05 -22.15 20.0 -22.4 19.9 -22.7 19.8 -22.95 19.65 -23.2 19.5 -23.4 19.3 -23.65 19.1 -23.85 18.9 -24.1 18.65 -24.35 18.4 -24.6 18.15 -24.9 17.9 -25.15 17.65 -25.45 17.45 -25.7 17.2 -26.0 17.0 -26.3 16.8 -26.6 16.6 -26.9 16.4 -27.2 16.25 -27.5 16.05 -27.85 15.9 -28.15 15.75 -28.45 15.55 -30.2 14.75 -33.45 13.75 -34.0 13.6 -34.5 13.4 -35.05 13.25 -35.6 13.05 -36.1 12.85 -36.65 12.7 -37.2 12.5 -37.7 12.3 -38.25 12.1 -38.75 11.9 -39.3 11.7 -39.8 11.5 -40.35 11.3 -40.85 11.05 -41.35 10.85 -41.9 10.65 -42.25 10.5 -42.6 10.3 -42.95 10.15 -43.3 9.9 -43.6 9.7 -43.95 9.5 -44.25 9.25 -44.55 9.05 -44.85 8.8 -45.15 8.55 -45.4 8.25 -45.7 8.0 -45.95 7.7 -46.2 7.4 -46.5 7.1 -46.7 6.8 -46.75 6.75 -46.8 6.7 -46.8 6.65 -46.85 6.6 -46.9 6.55 -46.95 6.55 -46.95 6.5 -47.0 6.45 -47.05 6.4 -47.1 6.35 -47.1 6.3 -47.15 6.25 -47.2 6.2 -47.2 6.15 -47.25 6.1 -47.3 6.05 -47.35 5.95 -47.5 5.7 -47.6 5.45 -47.65 5.35 -47.65 5.25 -47.65 5.1 L-47.65 5.1" fill="#000000" fill-rule="evenodd" stroke="none"/>
    <path d="M51.7 -3.5 Q51.7 -3.4 51.7 -3.25 51.7 -3.15 51.65 -3.05 51.65 -2.95 51.6 -2.85 51.6 -2.7 51.55 -2.6 51.55 -2.5 51.5 -2.4 51.5 -2.3 51.45 -2.2 51.4 -2.1 51.35 -2.0 51.25 -1.55 51.3 -1.8 51.15 -1.35 51.0 -0.9 50.85 -0.5 50.65 -0.1 50.45 0.35 50.25 0.75 50.05 1.15 49.8 1.55 49.55 1.95 49.3 2.3 49.05 2.7 48.8 3.05 48.5 3.4 48.2 3.75 47.9 4.1 47.6 4.45 47.0 5.1 45.7 6.9 45.55 7.1 45.5 7.2 45.35 7.4 45.25 7.55 45.15 7.7 45.05 7.85 44.9 8.0 44.8 8.15 44.7 8.35 44.55 8.5 44.45 8.65 44.3 8.75 44.15 8.9 44.05 9.05 43.9 9.2 43.75 9.3 43.65 9.4 43.55 9.5 43.5 9.55 43.4 9.65 43.35 9.75 43.25 9.85 43.2 9.95 43.15 10.05 43.1 10.15 43.05 10.25 43.0 10.4 43.0 10.5 42.95 10.6 42.9 10.7 42.9 10.85 42.9 10.95 42.9 11.05 42.85 11.15 42.85 11.25 42.8 11.3 42.8 11.4 42.75 11.5 42.75 11.6 42.7 11.65 42.7 11.75 42.65 11.85 42.6 11.95 42.6 12.0 42.55 12.1 42.5 12.2 42.45 12.25 42.4 12.35 42.4 12.35 42.4 12.4 42.4 12.4 42.35 12.45 42.25 12.6 42.2 12.7 42.1 12.8 42.0 12.85 41.95 12.95 41.85 13.0 41.75 13.05 41.65 13.1 41.55 13.15 41.4 13.15 41.3 13.15 41.2 13.15 41.1 13.15 40.95 13.1 40.8 13.05 40.7 13.0 40.6 12.95 40.05 12.65 40.05 12.65 39.9 12.55 39.8 12.5 39.7 12.45 39.65 12.4 39.55 12.4 39.45 12.35 39.35 12.35 39.3 12.35 39.2 12.35 39.15 12.35 39.05 12.35 38.95 12.4 38.9 12.4 38.8 12.45 38.7 12.5 38.6 12.55 38.5 12.6 38.4 12.65 38.35 12.7 38.25 12.8 38.2 12.85 38.1 12.9 38.05 12.95 37.95 13.0 37.85 13.05 37.8 13.1 37.7 13.15 37.6 13.2 37.55 13.25 37.45 13.3 37.35 13.35 37.3 13.4 37.2 13.45 37.05 13.5 36.9 13.6 36.75 13.65 36.6 13.7 36.45 13.7 36.3 13.75 36.15 13.8 36.0 13.8 35.85 13.8 35.7 13.8 35.55 13.8 35.4 13.75 35.25 13.75 35.1 13.7 34.95 13.7 34.8 13.65 34.7 13.6 34.55 13.55 34.45 13.5 34.35 13.45 34.3 13.35 34.2 13.3 34.1 13.2 34.05 13.15 34.0 13.05 33.95 12.95 33.9 12.9 33.9 12.8 33.85 12.7 33.85 12.55 33.8 12.45 33.85 12.35 33.85 12.3 33.85 12.2 33.85 12.15 33.85 12.1 33.9 12.05 33.9 12.0 33.95 11.9 33.95 11.85 34.0 11.8 34.0 11.75 34.05 11.7 34.1 11.65 34.15 11.6 34.2 11.55 34.2 11.5 34.3 11.5 34.4 11.45 34.45 11.35 34.55 11.3 34.6 11.25 34.7 11.2 34.8 11.15 34.9 11.1 35.0 11.05 35.05 11.05 35.15 11.0 35.25 10.95 35.35 10.95 35.45 10.9 35.55 10.9 35.65 10.85 35.75 10.85 35.85 10.8 35.95 10.8 36.1 10.8 36.2 10.75 36.3 10.75 36.4 10.7 36.5 10.65 36.6 10.65 36.7 10.6 36.8 10.55 36.9 10.55 37.0 10.5 37.1 10.45 37.2 10.4 37.3 10.35 37.4 10.3 37.55 10.2 37.75 10.1 37.9 10.0 38.05 9.9 38.2 9.8 38.35 9.65 38.45 9.55 38.6 9.4 38.7 9.3 38.85 9.15 38.95 9.0 39.05 8.85 39.15 8.7 39.25 8.5 39.35 8.35 39.4 8.2 39.45 8.15 39.45 8.1 39.5 8.0 39.5 7.95 39.55 7.9 39.6 7.85 39.6 7.8 39.65 7.7 39.65 7.65 39.7 7.6 39.7 7.55 39.75 7.5 39.75 7.45 39.8 7.35 39.8 7.3 39.8 7.25 39.85 7.15 39.85 7.05 39.9 6.95 39.9 6.85 39.9 6.75 39.9 6.65 39.9 6.55 39.9 6.45 39.9 6.4 39.85 6.3 39.85 6.2 39.8 6.1 39.75 6.0 39.7 5.95 39.65 5.85 39.6 5.75 39.55 5.7 39.5 5.65 39.5 5.6 39.45 5.55 39.4 5.5 39.35 5.45 39.3 5.4 39.3 5.35 39.25 5.3 39.2 5.25 39.15 5.15 39.1 5.1 39.05 5.05 39.05 5.0 39.0 4.95 38.95 4.9 38.85 4.8 38.75 4.7 38.65 4.55 38.55 4.45 38.5 4.35 38.4 4.2 38.35 4.1 38.25 3.95 38.2 3.85 38.1 3.7 38.05 3.55 38.0 3.45 37.95 3.3 37.9 3.15 37.85 3.0 37.85 2.85 37.85 2.8 37.85 2.8 37.85 2.75 37.8 2.7 37.8 2.7 37.8 2.65 37.8 2.6 37.8 2.6 37.8 2.55 37.8 2.5 37.8 2.5 37.8 2.45 37.8 2.4 37.8 2.4 37.8 2.35 37.8 2.3 37.8 2.15 37.85 2.05 37.9 1.9 37.95 1.8 38.0 1.7 38.1 1.6 38.15 1.55 38.25 1.45 38.35 1.4 38.5 1.35 38.6 1.3 38.7 1.25 38.85 1.25 39.0 1.25 39.15 1.25 39.3 1.25 40.65 1.5 40.75 1.55 40.9 1.55 41.05 1.6 41.2 1.6 41.35 1.6 41.5 1.65 41.65 1.65 41.8 1.65 41.95 1.65 42.1 1.65 42.25 1.65 42.4 1.65 42.55 1.65 42.7 1.65 42.85 1.65 43.05 1.65 43.2 1.6 43.4 1.6 43.6 1.5 43.8 1.45 44.0 1.35 44.15 1.25 44.35 1.1 44.5 1.0 44.65 0.85 44.8 0.65 44.9 0.5 45.05 0.3 45.15 0.15 45.25 -0.05 45.3 -0.25 45.35 -0.45 45.4 -0.65 45.4 -0.75 45.4 -0.8 45.4 -0.9 45.4 -0.95 45.4 -1.05 45.4 -1.1 45.4 -1.15 45.35 -1.25 45.35 -1.3 45.35 -1.4 45.3 -1.45 45.3 -1.55 45.3 -1.6 45.25 -1.65 45.25 -1.65 45.25 -1.8 45.2 -2.05 45.1 -2.25 45.0 -2.5 44.9 -2.75 44.8 -2.95 44.7 -3.15 44.6 -3.4 44.45 -3.6 44.35 -3.8 44.2 -4.0 44.1 -4.2 43.95 -4.4 43.8 -4.6 43.65 -4.8 43.5 -4.95 43.3 -5.15 42.95 -5.55 41.9 -6.6 41.75 -6.75 41.6 -6.9 41.45 -7.05 41.3 -7.2 41.2 -7.35 41.05 -7.5 40.9 -7.65 40.8 -7.8 40.7 -7.95 40.55 -8.15 40.45 -8.3 40.35 -8.5 40.25 -8.65 40.15 -8.85 40.05 -9.0 39.95 -9.2 39.9 -9.35 39.85 -9.5 39.8 -9.65 39.75 -9.8 39.7 -9.95 39.7 -10.1 39.65 -10.25 39.6 -10.4 39.6 -10.55 39.6 -10.7 39.55 -10.85 39.55 -11.0 39.55 -11.2 39.55 -11.35 39.55 -11.5 39.6 -11.65 39.6 -11.75 39.65 -11.85 39.65 -11.95 39.7 -12.05 39.7 -12.15 39.75 -12.2 39.8 -12.3 39.85 -12.4 39.95 -12.45 40.0 -12.5 40.05 -12.6 40.15 -12.65 40.25 -12.7 40.3 -12.75 40.4 -12.75 40.5 -12.8 40.6 -12.8 40.65 -12.85 40.75 -12.85 40.8 -12.85 40.9 -12.85 40.95 -12.85 41.05 -12.85 41.1 -12.8 41.2 -12.8 41.25 -12.75 41.3 -12.7 41.4 -12.7 41.45 -12.65 41.5 -12.6 41.55 -12.55 41.6 -12.5 41.75 -12.35 42.1 -12.0 42.4 -11.65 42.55 -11.5 43.45 -10.6 45.55 -9.25 46.8 -8.45 48.65 -7.2 48.8 -7.1 49.35 -6.65 49.8 -6.35 50.1 -6.15 50.25 -6.05 50.35 -5.95 50.45 -5.85 50.55 -5.75 50.7 -5.65 50.8 -5.55 50.9 -5.45 51.0 -5.35 51.1 -5.2 51.15 -5.1 51.25 -5.0 51.3 -4.85 51.4 -4.7 51.45 -4.55 51.5 -4.45 51.55 -4.3 51.55 -4.25 51.7 -3.5 L51.7 -3.5" fill="#000000" fill-rule="evenodd" stroke="none"/>
    <path d="M44.45 -14.45 Q44.45 -14.55 44.5 -14.65 44.5 -14.8 44.55 -14.9 44.55 -15.0 44.6 -15.05 44.65 -15.15 44.7 -15.25 44.75 -15.35 44.85 -15.4 44.9 -15.45 45.0 -15.55 45.05 -15.6 45.15 -15.65 45.25 -15.75 45.35 -15.8 45.4 -15.8 45.45 -15.85 45.5 -15.85 45.55 -15.85 45.6 -15.85 45.65 -15.85 45.7 -15.85 45.75 -15.85 45.8 -15.85 45.85 -15.85 45.9 -15.85 45.95 -15.8 46.0 -15.8 46.05 -15.75 46.1 -15.75 46.15 -15.7 46.2 -15.65 46.25 -15.6 46.35 -15.6 46.4 -15.55 46.45 -15.5 46.5 -15.45 46.55 -15.4 46.6 -15.4 46.65 -15.35 46.75 -15.3 46.8 -15.25 46.85 -15.2 46.9 -15.15 46.95 -15.1 47.0 -15.1 47.05 -15.05 47.2 -14.9 47.35 -14.8 47.5 -14.65 47.65 -14.5 47.8 -14.35 47.95 -14.2 48.05 -14.05 48.2 -13.95 48.35 -13.75 48.45 -13.6 48.55 -13.45 48.7 -13.3 48.8 -13.15 48.9 -12.95 49.0 -12.8 49.05 -12.6 49.1 -12.5 49.15 -12.4 49.2 -12.35 49.25 -12.25 49.25 -12.15 49.3 -12.05 49.35 -11.95 49.4 -11.85 49.4 -11.75 49.45 -11.65 49.5 -11.55 49.5 -11.45 49.55 -11.4 49.6 -11.25 49.6 -11.2 49.65 -11.1 49.65 -11.0 49.65 -10.95 49.65 -10.85 49.65 -10.75 49.65 -10.65 49.6 -10.55 49.6 -10.45 49.55 -10.35 49.5 -10.25 49.45 -10.15 49.4 -10.1 49.3 -10.0 49.25 -9.95 49.2 -9.85 49.1 -9.8 49.05 -9.75 49.0 -9.7 48.9 -9.65 48.85 -9.65 48.75 -9.6 48.7 -9.6 48.6 -9.6 48.5 -9.6 48.45 -9.6 48.35 -9.6 48.3 -9.6 48.2 -9.6 48.1 -9.65 48.05 -9.7 47.95 -9.75 47.9 -9.75 47.8 -9.85 47.6 -10.0 47.4 -10.1 47.25 -10.25 47.05 -10.4 46.85 -10.55 46.7 -10.7 46.55 -10.85 46.35 -11.05 46.2 -11.2 46.05 -11.35 45.9 -11.55 45.75 -11.7 45.6 -11.9 45.45 -12.1 45.3 -12.3 45.2 -12.5 45.15 -12.6 45.1 -12.7 45.05 -12.8 45.0 -12.9 44.9 -13.0 44.85 -13.1 44.85 -13.2 44.8 -13.3 44.75 -13.4 44.7 -13.5 44.65 -13.6 44.6 -13.7 44.6 -13.8 44.55 -13.95 44.55 -14.05 44.5 -14.15 44.5 -14.2 44.5 -14.3 44.45 -14.4 44.45 -14.45 L44.45 -14.45" fill="#000000" fill-rule="evenodd" stroke="none"/>
    <path d="M-11.6 12.0 Q-11.6 11.85 -11.6 11.65 -11.55 11.5 -11.55 11.35 -11.55 11.15 -11.5 11.0 -11.5 10.85 -11.45 10.65 -11.4 10.5 -11.35 10.35 -11.35 10.2 -11.3 10.0 -11.25 9.85 -11.2 9.7 -11.15 9.55 -11.1 9.35 -11.1 9.3 -11.05 9.25 -11.05 9.2 -11.0 9.15 -10.95 9.1 -10.9 9.05 -10.9 9.05 -10.85 9.0 -10.8 8.95 -10.75 8.95 -10.7 8.9 -10.65 8.9 -10.6 8.85 -10.55 8.85 -10.5 8.85 -10.45 8.8 -9.95 8.75 -9.65 8.8 -9.6 8.8 -9.5 8.8 -9.45 8.85 -9.4 8.85 -9.3 8.9 -9.25 8.9 -9.2 8.95 -9.15 9.0 -9.1 9.05 -9.05 9.1 -9.05 9.15 -9.0 9.2 -8.95 9.25 -8.9 9.3 -8.9 9.35 -8.85 9.45 -8.8 9.55 -8.8 9.6 -8.8 9.7 -8.75 9.75 -8.75 9.85 -8.75 9.95 -8.7 10.0 -8.7 10.1 -8.7 10.2 -8.7 10.25 -8.65 10.35 -8.65 10.45 -8.65 10.55 -8.65 10.6 -8.65 10.7 -8.65 10.8 -8.65 10.95 -8.65 11.1 -8.7 11.25 -8.7 11.35 -8.7 11.5 -8.75 11.65 -8.75 11.8 -8.8 11.9 -8.8 12.05 -8.85 12.2 -8.85 12.35 -8.9 12.45 -8.95 12.6 -9.0 12.75 -9.05 12.85 -9.1 13.0 -9.1 13.05 -9.15 13.1 -9.15 13.15 -9.2 13.2 -9.2 13.25 -9.25 13.3 -9.25 13.35 -9.3 13.4 -9.35 13.45 -9.35 13.5 -9.4 13.5 -9.4 13.55 -9.45 13.6 -9.5 13.65 -9.5 13.7 -9.55 13.75 -9.65 13.85 -9.75 13.9 -9.85 14.0 -10.0 14.05 -10.15 14.05 -10.3 14.1 -10.4 14.1 -10.55 14.1 -10.7 14.05 -10.85 14.0 -11.0 13.95 -11.1 13.85 -11.2 13.75 -11.3 13.6 -11.4 13.45 -11.45 13.25 -11.45 13.2 -11.5 13.05 -11.5 12.9 -11.5 12.85 -11.55 12.6 -11.6 12.0 L-11.6 12.0" fill="#000000" fill-rule="evenodd" stroke="none"/>
    <path d="M-12.3 -6.9 Q-12.3 -6.7 -12.3 -6.5 -12.3 -6.3 -12.35 -6.1 -12.4 -5.95 -12.45 -5.75 -12.5 -5.55 -12.55 -5.4 -12.65 -5.25 -12.7 -5.05 -12.8 -4.9 -12.9 -4.75 -13.05 -4.6 -13.15 -4.45 -13.3 -4.3 -13.45 -4.2 -13.5 -4.15 -13.6 -4.05 -13.7 -4.0 -13.75 -4.0 -13.85 -3.95 -13.9 -3.95 -14.0 -3.9 -14.1 -3.9 -14.15 -3.9 -14.25 -3.95 -14.3 -3.95 -14.4 -4.0 -14.45 -4.05 -14.55 -4.1 -14.6 -4.15 -14.7 -4.2 -14.75 -4.25 -14.75 -4.25 -14.75 -4.3 -14.8 -4.35 -14.8 -4.35 -14.8 -4.4 -14.85 -4.45 -14.85 -4.5 -14.85 -4.5 -14.85 -4.55 -14.9 -4.6 -14.9 -4.65 -14.9 -4.7 -14.9 -4.7 -14.9 -4.75 -14.9 -4.8 -14.7 -7.05 -14.55 -7.65 -14.45 -7.9 -14.35 -8.1 -14.3 -8.15 -14.3 -8.2 -14.25 -8.3 -14.2 -8.35 -14.15 -8.4 -14.1 -8.45 -14.05 -8.45 -14.0 -8.5 -13.95 -8.55 -13.9 -8.6 -13.85 -8.6 -13.8 -8.65 -13.75 -8.65 -13.65 -8.65 -13.6 -8.65 -13.5 -8.65 -13.4 -8.65 -13.35 -8.65 -13.25 -8.65 -13.2 -8.6 -13.1 -8.6 -13.05 -8.6 -13.0 -8.55 -12.9 -8.5 -12.85 -8.5 -12.8 -8.45 -12.75 -8.4 -12.7 -8.35 -12.65 -8.3 -12.6 -8.25 -12.55 -8.15 -12.5 -8.1 -12.5 -8.05 -12.45 -8.0 -12.45 -7.95 -12.45 -7.9 -12.4 -7.9 -12.4 -7.85 -12.4 -7.8 -12.4 -7.75 -12.35 -7.7 -12.35 -7.65 -12.35 -7.6 -12.35 -7.55 -12.35 -7.55 -12.3 -7.5 -12.3 -7.25 -12.3 -7.4 -12.3 -7.35 -12.3 -7.35 -12.3 -7.3 -12.3 -7.25 -12.3 -7.25 -12.3 -7.2 -12.3 -7.2 -12.3 -7.15 -12.3 -7.1 -12.3 -7.1 -12.3 -7.0 -12.3 -7.0 -12.3 -7.0 -12.3 -6.95 -12.3 -6.9 -12.3 -6.9 L-12.3 -6.9" fill="#000000" fill-rule="evenodd" stroke="none"/>
    <path d="M32.95 -9.6 Q33.0 -9.6 33.1 -9.6 33.15 -9.6 33.2 -9.6 33.25 -9.6 33.3 -9.55 33.35 -9.55 33.45 -9.55 33.5 -9.5 33.55 -9.5 33.6 -9.45 33.65 -9.45 33.7 -9.4 33.75 -9.35 33.8 -9.35 33.85 -9.3 33.95 -9.2 34.1 -9.15 34.2 -9.05 34.3 -8.95 34.4 -8.85 34.5 -8.75 34.6 -8.65 34.65 -8.55 34.75 -8.45 34.85 -8.35 34.9 -8.25 35.0 -8.15 35.05 -8.05 35.15 -7.9 35.2 -7.8 35.25 -7.65 35.3 -7.6 35.3 -7.55 35.35 -7.5 35.35 -7.45 35.35 -7.4 35.4 -7.35 35.4 -7.3 35.4 -7.25 35.45 -7.2 35.45 -7.15 35.45 -7.1 35.45 -7.05 35.45 -7.0 35.45 -6.95 35.45 -6.9 35.45 -6.85 35.45 -6.75 35.4 -6.7 35.4 -6.65 35.35 -6.55 35.3 -6.5 35.25 -6.45 35.2 -6.4 35.15 -6.4 35.1 -6.35 35.05 -6.3 34.95 -6.3 34.9 -6.3 34.85 -6.25 34.75 -6.3 34.7 -6.3 34.6 -6.3 34.55 -6.3 34.45 -6.35 34.4 -6.4 34.3 -6.4 34.25 -6.45 34.15 -6.5 34.1 -6.5 34.0 -6.55 33.95 -6.6 33.9 -6.65 33.8 -6.7 33.75 -6.75 33.7 -6.75 33.6 -6.8 33.55 -6.85 33.5 -6.9 33.4 -6.95 33.3 -7.05 33.25 -7.1 33.15 -7.2 33.05 -7.25 32.95 -7.35 32.9 -7.4 32.8 -7.5 32.7 -7.55 32.65 -7.65 32.55 -7.7 32.5 -7.8 32.4 -7.9 32.35 -7.95 32.25 -8.05 32.2 -8.15 32.15 -8.2 32.15 -8.25 32.1 -8.3 32.1 -8.35 32.05 -8.4 32.05 -8.45 32.0 -8.5 32.0 -8.55 32.0 -8.6 32.0 -8.65 31.95 -8.7 31.95 -8.75 31.95 -8.8 32.0 -8.85 32.0 -8.9 32.0 -8.95 32.0 -9.05 32.05 -9.1 32.05 -9.2 32.1 -9.25 32.15 -9.3 32.2 -9.35 32.25 -9.4 32.3 -9.45 32.35 -9.5 32.45 -9.55 32.5 -9.55 32.6 -9.6 32.65 -9.6 32.75 -9.6 32.85 -9.6 32.95 -9.6 L32.95 -9.6" fill="#000000" fill-rule="evenodd" stroke="none"/>
    <path d="M-45.2 -9.45 Q-45.1 -10.25 -45.05 -10.4 -45.0 -10.5 -44.95 -10.6 -44.9 -10.7 -44.85 -10.75 -44.8 -10.8 -44.75 -10.9 -44.65 -10.95 -44.6 -11.0 -44.5 -11.0 -44.4 -11.05 -44.35 -11.05 -44.25 -11.1 -44.15 -11.1 -44.05 -11.1 -43.95 -11.05 -43.85 -11.05 -43.8 -11.05 -43.75 -11.0 -43.7 -11.0 -43.65 -11.0 -43.6 -10.95 -43.6 -10.95 -43.55 -10.9 -43.5 -10.9 -43.45 -10.85 -43.45 -10.85 -43.4 -10.8 -43.4 -10.75 -43.35 -10.75 -43.35 -10.7 -43.3 -10.65 -43.3 -10.6 -43.3 -10.55 -43.25 -10.45 -43.2 -10.4 -43.2 -10.35 -43.2 -10.25 -43.15 -10.2 -43.15 -10.15 -43.1 -10.1 -43.1 -10.0 -43.1 -9.95 -43.05 -9.9 -43.05 -9.8 -43.05 -9.75 -43.05 -9.7 -43.05 -9.6 -43.05 -9.55 -43.05 -9.45 -43.05 -9.4 -43.05 -9.3 -43.05 -9.25 -43.05 -9.15 -43.1 -9.05 -43.1 -9.0 -43.1 -8.9 -43.15 -8.85 -43.15 -8.75 -43.2 -8.7 -43.25 -8.6 -43.25 -8.55 -43.3 -8.45 -43.35 -8.4 -43.4 -8.3 -43.45 -8.25 -43.5 -8.2 -43.5 -8.15 -43.55 -8.1 -43.6 -8.1 -43.65 -8.05 -43.7 -8.05 -43.75 -8.0 -43.8 -8.0 -43.85 -8.0 -43.95 -7.95 -44.0 -7.95 -44.05 -7.95 -44.1 -7.95 -44.15 -7.95 -44.25 -7.95 -44.3 -7.95 -44.4 -7.95 -44.45 -8.0 -44.5 -8.0 -44.55 -8.0 -44.6 -8.05 -44.65 -8.05 -44.7 -8.1 -44.75 -8.15 -44.8 -8.2 -44.85 -8.2 -44.9 -8.25 -44.95 -8.3 -44.95 -8.4 -45.0 -8.45 -45.0 -8.5 -45.05 -8.65 -45.2 -9.45 L-45.2 -9.45" fill="#000000" fill-rule="evenodd" stroke="none"/>
    <path d="M33.95 5.0 Q34.0 5.0 34.0 5.0 34.1 5.05 34.1 5.05 34.15 5.05 34.2 5.05 34.25 5.05 34.3 5.1 34.45 5.15 34.55 5.2 34.65 5.25 34.8 5.35 34.9 5.4 35.0 5.45 35.1 5.55 35.2 5.6 35.3 5.7 35.4 5.8 35.5 5.9 35.6 6.0 35.7 6.1 35.75 6.2 35.85 6.3 35.95 6.4 35.95 6.45 36.0 6.45 36.0 6.5 36.0 6.55 36.05 6.6 36.05 6.65 36.05 6.65 36.05 6.7 36.1 6.75 36.1 6.8 36.1 6.9 36.1 6.95 36.05 7.05 36.05 7.15 36.0 7.2 35.95 7.25 35.9 7.3 35.85 7.35 35.8 7.4 35.75 7.45 35.65 7.5 35.6 7.5 35.5 7.55 35.4 7.55 35.35 7.55 35.25 7.55 35.2 7.55 35.1 7.5 35.0 7.45 34.95 7.45 34.85 7.4 34.7 7.35 34.6 7.3 34.5 7.2 34.4 7.15 34.25 7.05 34.15 7.0 34.05 6.9 33.95 6.85 33.9 6.75 33.8 6.65 33.7 6.55 33.6 6.45 33.5 6.35 33.45 6.25 33.35 6.15 33.35 6.1 33.3 6.1 33.3 6.05 33.3 6.05 33.3 6.0 33.3 6.0 33.25 5.95 33.25 5.9 33.25 5.9 33.25 5.85 33.25 5.8 33.25 5.8 33.25 5.75 33.25 5.7 33.25 5.7 33.25 5.65 33.25 5.6 33.25 5.5 33.25 5.45 33.3 5.4 33.3 5.35 33.35 5.3 33.4 5.2 33.4 5.2 33.45 5.15 33.55 5.1 33.6 5.05 33.65 5.05 33.75 5.05 33.8 5.0 33.9 5.0 33.95 5.0 L33.95 5.0" fill="#000000" fill-rule="evenodd" stroke="none"/>
    <path d="M-27.55 -16.8 Q-27.55 -16.75 -27.6 -16.3 -27.6 -16.2 -27.65 -16.15 -27.65 -16.05 -27.7 -16.0 -27.75 -15.95 -27.8 -15.85 -27.85 -15.8 -27.9 -15.8 -27.95 -15.75 -28.05 -15.7 -28.1 -15.7 -28.2 -15.7 -28.25 -15.7 -28.35 -15.7 -28.45 -15.7 -28.5 -15.75 -28.55 -15.75 -28.55 -15.8 -28.6 -15.8 -28.65 -15.8 -28.65 -15.85 -28.7 -15.85 -28.7 -15.9 -28.7 -15.9 -28.75 -15.95 -28.75 -15.95 -28.75 -16.0 -28.75 -16.05 -28.8 -16.05 -28.8 -16.1 -28.8 -16.15 -28.8 -16.15 -28.75 -17.05 -28.7 -17.35 -28.7 -17.4 -28.65 -17.45 -28.65 -17.5 -28.6 -17.55 -28.6 -17.6 -28.55 -17.65 -28.5 -17.65 -28.45 -17.7 -28.4 -17.75 -28.35 -17.75 -28.3 -17.75 -28.25 -17.75 -28.15 -17.8 -28.1 -17.8 -28.05 -17.8 -27.95 -17.75 -27.9 -17.75 -27.85 -17.75 -27.8 -17.75 -27.8 -17.7 -27.75 -17.7 -27.7 -17.65 -27.7 -17.65 -27.65 -17.6 -27.65 -17.55 -27.6 -17.5 -27.6 -17.5 -27.6 -17.45 -27.55 -17.4 -27.55 -17.35 -27.55 -17.25 -27.55 -17.2 -27.55 -17.0 -27.55 -16.8 -27.55 -16.8 -27.55 -16.8 L-27.55 -16.8" fill="#000000" fill-rule="evenodd" stroke="none"/>
  </g>
</svg>
