<?xml version="1.0" encoding="UTF-8" standalone="no"?>
<svg xmlns:xlink="http://www.w3.org/1999/xlink" height="200.0px" width="200.0px" xmlns="http://www.w3.org/2000/svg">
  <g transform="matrix(1.0, 0.0, 0.0, 1.0, 100.0, 100.0)">
    <path d="M-49.3 -32.15 Q-49.1 -31.2 -48.7 -29.25 -48.6 -29.2 -48.45 -29.1 -48.3 -29.05 -48.2 -29.0 -48.05 -28.9 -47.9 -28.85 -47.75 -28.75 -47.6 -28.7 -47.4 -28.6 -47.25 -28.55 -47.05 -28.45 -46.9 -28.4 -46.7 -28.3 -46.55 -28.2 -46.35 -28.15 -46.15 -28.05 -46.0 -28.0 -45.8 -27.9 -45.6 -27.85 -45.4 -27.75 -45.2 -27.7 -44.95 -27.6 -44.7 -27.5 -44.4 -27.4 -44.1 -27.3 -43.8 -27.2 -43.45 -27.1 -43.1 -27.0 -42.75 -26.9 -42.35 -26.8 -41.95 -26.7 -41.55 -26.6 -40.95 -26.45 -40.55 -26.4 -40.0 -26.25 -39.5 -26.15 -38.9 -26.05 -38.3 -25.95 -37.65 -25.85 -37.0 -25.8 -36.35 -25.7 -35.65 -25.7 -34.9 -25.65 -34.2 -25.65 -33.4 -25.65 -32.65 -25.75 -31.8 -25.8 -31.0 -25.95 -30.8 -26.0 -30.65 -26.0 -30.45 -26.05 -30.3 -26.05 -30.1 -26.1 -29.95 -26.15 -29.8 -26.15 -29.65 -26.2 -29.5 -26.2 -29.35 -26.25 -29.2 -26.3 -29.1 -26.3 -28.95 -26.35 -28.85 -26.4 -28.75 -26.4 -28.6 -26.45 -28.5 -26.5 -28.45 -26.6 -28.4 -26.7 -28.35 -26.8 -28.3 -26.85 -28.25 -26.95 -28.2 -27.05 -28.2 -27.15 -28.15 -27.25 -28.15 -27.35 -28.15 -27.5 -28.15 -27.6 -28.15 -27.7 -28.15 -27.8 -28.15 -27.9 -28.2 -28.0 -28.25 -28.1 -28.3 -28.2 -28.35 -28.3 -28.4 -28.4 -28.45 -28.5 -28.55 -28.6 -28.6 -28.7 -28.7 -28.75 -28.8 -28.8 -28.9 -28.9 -29.0 -28.95 -29.1 -29.0 -29.2 -29.0 -29.3 -29.05 -29.45 -29.05 -29.55 -29.1 -29.7 -29.05 -29.85 -29.05 -30.05 -29.0 -30.2 -28.95 -30.4 -28.95 -30.6 -28.9 -30.8 -28.9 -31.0 -28.85 -31.2 -28.8 -31.45 -28.8 -31.65 -28.75 -31.9 -28.75 -32.15 -28.7 -32.35 -28.7 -32.6 -28.65 -32.9 -28.65 -33.2 -28.65 -33.5 -28.6 -33.95 -28.6 -34.4 -28.6 -34.95 -28.6 -35.5 -28.6 -36.2 -28.65 -36.85 -28.7 -37.65 -28.75 -38.45 -28.85 -39.3 -28.95 -40.15 -29.1 -41.1 -29.25 -42.05 -29.5 -43.05 -29.7 -44.05 -30.0 -44.3 -30.1 -44.6 -30.2 -44.85 -30.25 -45.15 -30.35 -45.45 -30.5 -45.75 -30.6 -46.1 -30.7 -46.4 -30.85 -46.75 -31.0 -47.1 -31.1 -47.45 -31.25 -47.8 -31.45 -48.2 -31.6 -48.55 -31.75 -48.95 -31.95 -49.3 -32.15 L-49.3 -32.15" fill="#58ff83" fill-rule="evenodd" stroke="none"/>
  </g>
</svg>
