<?xml version="1.0" encoding="UTF-8" standalone="no"?>
<svg xmlns:xlink="http://www.w3.org/1999/xlink" height="22.1px" width="13.9px" xmlns="http://www.w3.org/2000/svg">
  <g transform="matrix(1.0, 0.0, 0.0, 1.0, 6.95, 11.05)">
    <path d="M-2.95 1.55 Q-3.3 1.45 -3.6 1.35 -3.95 1.25 -4.3 1.1 -4.6 1.0 -4.95 0.85 -5.25 0.65 -5.55 0.5 -5.9 0.3 -6.2 0.05 -6.5 -0.15 -6.8 -0.4 -7.1 -0.65 -7.4 -0.95 -7.7 -1.25 -7.95 -1.6 -7.8 -1.5 -7.7 -1.45 -7.55 -1.4 -7.45 -1.35 -7.3 -1.25 -7.15 -1.2 -7.05 -1.15 -6.9 -1.15 -6.75 -1.1 -6.65 -1.05 -6.5 -1.05 -6.35 -1.05 -6.2 -1.05 -6.1 -1.05 -5.95 -1.05 -5.8 -1.1 -5.95 -1.25 -6.1 -1.4 -6.25 -1.55 -6.4 -1.65 -6.55 -1.8 -6.75 -1.9 -6.9 -2.05 -7.05 -2.15 -7.25 -2.25 -7.45 -2.35 -7.6 -2.45 -7.8 -2.55 -7.95 -2.6 -8.15 -2.7 -8.35 -2.8 -8.55 -2.85 -8.8 -2.95 -8.95 -3.0 -9.15 -3.1 -9.35 -3.15 -9.55 -3.25 -9.75 -3.3 -9.95 -3.35 -10.15 -3.45 -10.4 -3.5 -10.6 -3.55 -10.8 -3.55 -11.0 -3.6 -11.25 -3.65 -11.45 -3.65 -11.65 -3.65 -11.85 -3.65 -11.85 -3.65 -11.9 -3.7 -11.9 -3.7 -11.9 -3.75 -10.8 -3.85 -10.5 -3.9 -10.25 -3.9 -10.0 -3.9 -9.75 -3.9 -9.55 -3.85 -9.3 -3.8 -9.05 -3.75 -8.8 -3.7 -8.6 -3.65 -8.35 -3.6 -8.1 -3.5 -7.9 -3.45 -7.65 -3.35 -7.45 -3.3 -7.2 -3.2 -7.0 -3.1 -6.75 -3.0 -6.5 -2.9 -6.1 -2.75 -5.6 -2.5 -5.45 -2.45 -5.4 -2.45 -5.4 -2.45 -5.35 -2.4 -5.3 -2.4 -5.3 -2.4 -5.25 -2.4 -5.2 -2.4 -5.2 -2.4 -5.15 -2.4 -5.1 -2.35 -5.1 -2.35 -5.05 -2.35 -5.05 -2.35 -5.0 -2.35 -4.95 -2.35 -4.95 -2.35 -4.9 -2.35 -4.8 -2.35 -4.75 -2.4 -4.75 -2.45 -4.75 -2.45 -4.75 -2.5 -4.75 -2.55 -4.8 -2.6 -4.8 -2.6 -4.8 -2.65 -5.25 -3.05 -5.5 -3.25 -5.35 -3.25 -5.15 -3.25 -5.0 -3.25 -4.85 -3.2 -4.7 -3.2 -4.55 -3.15 -4.4 -3.1 -4.25 -3.05 -4.1 -3.0 -3.95 -2.95 -3.8 -2.9 -3.65 -2.8 -3.5 -2.75 -3.35 -2.65 -3.25 -2.6 -3.1 -2.5 -3.15 -2.5 -3.2 -2.55 -3.25 -2.55 -3.25 -2.6 -3.3 -2.6 -3.35 -2.6 -3.35 -2.6 -3.7 -2.5 -3.6 -2.15 -3.55 -2.1 -3.5 -2.05 -3.5 -2.05 -3.45 -2.05 -3.4 -2.0 -3.4 -2.0 -3.35 -1.95 -3.3 -1.95 -3.25 -1.9 -3.25 -1.9 -3.2 -1.9 -3.15 -1.85 -3.1 -1.85 -3.1 -1.85 -3.05 -1.85 -3.0 -1.8 -2.95 -1.8 -2.9 -1.8 -2.85 -1.8 -2.85 -1.75 -2.8 -1.75 -2.75 -1.75 -2.7 -1.75 -2.65 -1.75 -2.65 -1.75 -2.6 -1.75 -2.55 -1.75 -2.5 -1.75 -2.45 -1.75 -2.4 -1.75 -2.35 -1.75 -2.35 -1.75 -2.3 -1.75 -2.25 -1.75 -2.2 -1.75 -2.15 -1.75 -2.15 -1.8 -2.15 -1.8 -2.15 -1.85 -2.1 -1.9 -2.15 -1.95 -2.2 -2.55 -2.25 -2.8 -2.25 -2.9 -2.3 -2.95 -2.3 -3.0 -2.35 -3.1 -2.35 -3.15 -2.4 -3.2 -2.45 -3.25 -2.5 -3.3 -2.55 -3.35 -2.6 -3.4 -2.65 -3.45 -2.7 -3.5 -2.65 -3.45 -2.8 -3.55 -2.85 -3.6 -2.9 -3.65 -3.15 -3.85 -3.95 -4.5 -4.6 -5.1 -5.0 -5.45 -5.05 -5.45 -5.05 -5.5 -5.05 -5.5 -5.1 -5.55 -5.1 -5.6 -5.1 -5.65 -5.05 -5.6 -5.0 -5.6 -4.9 -5.5 -4.85 -5.5 -4.65 -5.35 -4.45 -5.25 -4.25 -5.15 -4.0 -5.0 -3.8 -4.9 -3.6 -4.8 -3.4 -4.75 -3.2 -4.65 -3.0 -4.55 -2.75 -4.5 -2.55 -4.4 -2.35 -4.35 -2.15 -4.25 -1.95 -4.2 -1.75 -4.15 -1.55 -4.05 -1.4 -4.0 -1.25 -3.95 -1.1 -3.9 -0.95 -3.85 -0.85 -3.8 -0.7 -3.75 -0.55 -3.65 -0.45 -3.6 -0.3 -3.5 -0.2 -3.45 -0.05 -3.35 0.05 -3.25 0.15 -3.15 0.3 -3.05 0.4 -2.95 0.5 -2.8 0.5 -2.8 0.55 -2.85 0.55 -2.85 0.55 -2.85 0.65 -2.95 0.75 -3.05 0.85 -3.15 0.95 -3.25 1.05 -3.3 1.15 -3.4 1.25 -3.45 1.35 -3.55 1.5 -3.6 1.6 -3.65 1.7 -3.7 1.85 -3.75 1.95 -3.8 2.05 -3.85 2.2 -3.9 2.3 -3.95 2.55 -4.0 2.7 -4.05 2.9 -4.1 3.1 -4.2 3.3 -4.25 3.5 -4.3 3.7 -4.4 3.9 -4.45 4.1 -4.55 4.3 -4.6 4.5 -4.7 4.7 -4.8 4.85 -4.9 5.05 -5.0 5.25 -5.1 5.45 -5.25 5.45 -5.2 5.45 -5.15 5.45 -5.15 5.0 -4.75 4.75 -4.45 4.55 -4.3 4.35 -4.1 3.95 -3.8 3.45 -3.4 3.4 -3.3 3.35 -3.25 3.3 -3.25 3.3 -3.2 3.25 -3.15 3.2 -3.15 3.2 -3.1 3.15 -3.05 3.15 -3.0 3.1 -3.0 3.1 -2.95 3.1 -2.9 3.1 -2.85 3.05 -2.8 3.05 -2.75 3.05 -2.7 3.05 -2.65 3.05 -2.45 3.0 -2.0 3.0 -1.95 3.0 -1.9 3.0 -1.85 3.0 -1.8 3.0 -1.8 3.05 -1.75 3.1 -1.75 3.15 -1.75 3.2 -1.75 3.3 -1.75 3.35 -1.75 3.45 -1.75 3.5 -1.75 3.55 -1.8 3.65 -1.8 3.7 -1.85 3.75 -1.85 3.8 -1.9 3.9 -1.9 3.95 -1.95 4.0 -2.0 4.05 -2.05 4.15 -2.1 4.2 -2.15 4.2 -2.15 4.3 -2.45 4.25 -2.5 4.25 -2.5 4.2 -2.5 4.15 -2.5 4.15 -2.55 4.1 -2.55 4.05 -2.55 4.0 -2.55 3.95 -2.55 3.9 -2.55 3.85 -2.5 3.8 -2.5 3.9 -2.6 4.05 -2.65 4.15 -2.7 4.25 -2.8 4.35 -2.85 4.5 -2.9 4.6 -2.95 4.7 -3.0 4.85 -3.0 4.95 -3.05 5.1 -3.1 5.2 -3.1 5.35 -3.15 5.45 -3.15 5.6 -3.15 5.7 -3.15 5.6 -3.05 5.5 -2.95 5.35 -2.8 5.3 -2.75 5.3 -2.75 5.1 -2.4 5.15 -2.4 5.2 -2.35 5.3 -2.35 5.3 -2.35 5.35 -2.35 5.4 -2.35 5.45 -2.35 5.5 -2.4 5.55 -2.4 5.6 -2.4 5.6 -2.45 5.65 -2.45 5.7 -2.45 5.75 -2.5 5.8 -2.5 5.85 -2.5 5.9 -2.55 5.95 -2.55 5.95 -2.6 6.0 -2.6 6.05 -2.65 6.1 -2.65 6.3 -2.75 6.45 -2.85 6.65 -2.95 6.85 -3.0 7.05 -3.1 7.2 -3.15 7.4 -3.25 7.6 -3.3 7.8 -3.35 7.95 -3.4 8.15 -3.45 8.35 -3.5 8.5 -3.5 8.7 -3.55 8.9 -3.55 9.05 -3.5 9.1 -3.5 9.15 -3.5 9.2 -3.5 9.25 -3.5 9.3 -3.5 9.35 -3.5 9.4 -3.45 9.45 -3.45 9.5 -3.45 9.55 -3.45 9.6 -3.45 9.65 -3.4 9.7 -3.4 9.75 -3.4 9.8 -3.4 9.85 -3.4 9.6 -3.35 9.35 -3.3 9.1 -3.25 8.85 -3.15 8.55 -3.1 8.35 -3.0 8.1 -2.9 7.85 -2.75 7.6 -2.65 7.35 -2.5 7.1 -2.35 6.9 -2.15 6.65 -1.95 6.4 -1.75 6.2 -1.55 5.95 -1.3 6.0 -1.25 6.05 -1.25 6.1 -1.25 6.15 -1.25 6.2 -1.2 6.25 -1.2 6.3 -1.2 6.35 -1.2 6.35 -1.2 6.4 -1.25 6.45 -1.25 6.5 -1.25 6.55 -1.25 6.6 -1.25 6.65 -1.3 6.7 -1.3 6.85 -1.35 7.05 -1.5 7.4 -1.7 7.4 -1.7 7.35 -1.55 7.2 -1.35 7.1 -1.15 6.9 -0.95 6.7 -0.7 6.45 -0.5 6.2 -0.25 5.9 0.0 5.6 0.2 5.3 0.4 5.0 0.6 4.7 0.8 4.4 0.95 4.15 1.05 3.9 1.2 3.65 1.25 3.9 1.1 4.05 0.95 4.15 0.9 4.25 0.85 4.35 0.75 4.4 0.7 4.5 0.65 4.6 0.6 4.7 0.5 4.75 0.45 4.85 0.35 4.9 0.3 5.0 0.2 5.05 0.1 5.15 0.05 5.2 -0.05 5.25 -0.15 5.35 -0.25 5.4 -0.3 5.4 -0.35 5.4 -0.4 5.45 -0.45 5.45 -0.5 5.45 -0.55 5.5 -0.65 5.5 -0.7 5.5 -0.75 5.5 -0.8 5.5 -0.85 5.5 -0.9 5.5 -0.95 5.5 -1.0 5.5 -1.05 5.45 -1.1 5.45 -1.15 5.4 -1.2 5.35 -1.25 5.35 -1.3 5.3 -1.35 5.25 -1.4 5.2 -1.45 5.2 -1.5 5.15 -1.5 5.1 -1.55 5.05 -1.55 5.0 -1.6 4.95 -1.6 4.85 -1.6 4.8 -1.6 4.75 -1.6 4.65 -1.6 4.6 -1.55 4.5 -1.55 4.45 -1.55 4.35 -1.5 4.3 -1.5 4.2 -1.45 4.15 -1.4 4.05 -1.4 4.0 -1.35 3.9 -1.3 3.85 -1.25 3.75 -1.2 3.7 -1.15 3.65 -1.05 3.55 -1.0 3.55 -1.0 3.55 -0.95 3.5 -0.95 3.5 -0.95 3.5 -0.9 3.5 -0.85 3.45 -0.8 3.45 -0.8 3.45 -0.75 3.45 -0.7 3.45 -0.65 3.4 -0.65 3.4 -0.6 3.4 -0.55 3.5 -0.55 3.65 -0.5 3.6 -0.45 3.55 -0.4 3.45 -0.35 3.35 -0.25 3.25 -0.2 3.1 -0.1 2.95 -0.05 2.8 0.05 2.65 0.1 2.5 0.2 2.35 0.25 2.25 0.3 2.1 0.35 2.0 0.4 1.85 0.45 1.75 0.45 2.2 0.05 2.5 -0.25 2.55 -0.3 2.65 -0.4 2.7 -0.45 2.7 -0.45 2.7 -0.5 2.75 -0.55 2.75 -0.6 2.75 -0.65 2.75 -0.7 2.75 -0.7 2.75 -0.75 2.75 -0.8 2.7 -0.8 2.7 -0.85 2.65 -0.85 2.6 -0.85 2.55 -0.85 2.5 -0.85 2.45 -0.85 2.4 -0.8 2.4 -0.8 2.35 -0.75 2.3 -0.7 2.25 -0.7 2.2 -0.65 2.15 -0.6 2.1 -0.55 2.05 -0.5 2.0 -0.45 1.95 -0.45 1.9 -0.4 1.85 -0.35 1.8 -0.3 1.75 -0.25 1.7 -0.2 1.65 -0.15 1.6 -0.1 1.55 -0.05 1.4 0.1 0.45 1.1 -0.05 0.55 -0.8 -0.2 -0.85 -0.25 -0.85 -0.25 -0.9 -0.3 -0.9 -0.3 -0.95 -0.35 -1.0 -0.35 -1.0 -0.4 -1.05 -0.45 -1.05 -0.45 -1.1 -0.5 -1.15 -0.5 -1.2 -0.55 -1.2 -0.55 -1.25 -0.6 -1.3 -0.6 -1.3 -0.65 -1.35 -0.65 -1.4 -0.7 -1.45 -0.7 -1.5 -0.7 -1.5 -0.75 -1.55 -0.75 -1.6 -0.75 -1.65 -0.75 -1.7 -0.75 -1.75 -0.75 -1.75 -0.75 -1.8 -0.75 -1.85 -0.75 -1.85 -0.7 -1.85 -0.65 -1.85 -0.65 -1.85 -0.6 -1.85 -0.55 -1.85 -0.5 -1.85 -0.5 -1.85 -0.45 -1.85 -0.45 -1.8 -0.4 -1.8 -0.4 -1.75 -0.35 -1.75 -0.3 -1.7 -0.25 -1.7 -0.25 -1.65 -0.2 -1.65 -0.2 -1.6 -0.15 -1.6 -0.1 -1.55 -0.1 -1.55 -0.05 -1.5 -0.05 -1.45 0.0 -1.45 0.0 -1.4 0.05 -1.3 0.1 -0.75 0.55 -0.9 0.5 -1.05 0.5 -1.2 0.45 -1.35 0.4 -1.45 0.35 -1.6 0.3 -1.75 0.25 -1.9 0.2 -2.05 0.15 -2.15 0.1 -2.3 0.05 -2.45 -0.05 -2.55 -0.1 -2.7 -0.2 -2.85 -0.25 -2.95 -0.35 -2.95 -0.4 -2.9 -0.4 -2.55 -0.25 -2.75 -0.35 -2.65 -0.3 -2.65 -0.4 -2.65 -0.45 -2.65 -0.5 -2.65 -0.5 -2.65 -0.55 -2.65 -0.6 -2.65 -0.65 -2.65 -0.7 -2.7 -0.7 -2.7 -0.75 -2.75 -0.8 -2.85 -0.9 -2.9 -0.95 -3.0 -1.05 -3.1 -1.1 -3.2 -1.2 -3.25 -1.25 -3.35 -1.3 -3.45 -1.35 -3.55 -1.4 -3.7 -1.4 -3.8 -1.45 -3.9 -1.45 -4.0 -1.5 -4.1 -1.5 -4.2 -1.5 -4.35 -1.5 -4.5 -1.5 -4.6 -1.45 -4.75 -1.45 -4.85 -1.35 -4.95 -1.3 -5.0 -1.2 -5.1 -1.1 -5.15 -1.0 -5.2 -0.9 -5.2 -0.75 -5.2 -0.65 -5.2 -0.5 -5.2 -0.35 -5.15 -0.25 -5.1 -0.1 -5.0 0.05 -4.9 0.15 -4.85 0.25 -4.75 0.35 -4.65 0.45 -4.55 0.55 -4.45 0.65 -4.35 0.7 -4.25 0.8 -4.15 0.85 -4.05 0.95 -3.95 1.0 -3.85 1.05 -3.75 1.1 -3.6 1.2 -3.55 1.25 -3.4 1.3 -3.3 1.4 -2.95 1.55 L-2.95 1.55 M0.55 0.3 Q0.9 -0.15 1.75 -1.1 1.8 -1.15 1.85 -1.2 1.9 -1.3 1.9 -1.35 1.95 -1.4 2.0 -1.45 2.05 -1.5 2.1 -1.55 2.1 -1.65 2.15 -1.7 2.2 -1.75 2.2 -1.8 2.25 -1.9 2.25 -1.95 2.3 -2.0 2.3 -2.1 2.3 -2.15 2.35 -2.2 2.35 -2.25 2.35 -2.3 2.35 -2.35 2.35 -2.4 2.35 -2.45 2.35 -2.45 2.3 -2.5 2.3 -2.55 2.3 -2.6 2.25 -2.65 2.25 -2.65 2.2 -2.7 2.2 -2.75 2.15 -2.75 2.1 -2.8 2.05 -2.85 2.0 -2.9 1.95 -2.9 1.9 -2.95 1.85 -2.95 1.8 -2.95 1.75 -2.95 1.7 -2.95 1.65 -2.95 1.6 -2.95 1.5 -2.95 1.45 -2.9 1.4 -2.9 1.35 -2.85 1.3 -2.8 1.25 -2.75 0.5 -1.95 0.5 -1.95 0.3 -2.2 0.2 -2.35 0.1 -2.45 0.05 -2.5 0.0 -2.55 0.0 -2.6 -0.05 -2.65 -0.1 -2.65 -0.15 -2.7 -0.2 -2.75 -0.25 -2.8 -0.3 -2.8 -0.35 -2.85 -0.4 -2.9 -0.45 -2.9 -0.5 -2.95 -0.55 -2.95 -0.65 -2.95 -0.7 -2.95 -0.8 -2.95 -0.9 -2.95 -0.95 -2.95 -1.05 -2.9 -1.1 -2.9 -1.15 -2.85 -1.25 -2.8 -1.3 -2.7 -1.35 -2.65 -1.35 -2.55 -1.4 -2.5 -1.4 -2.4 -1.4 -2.3 -1.4 -2.2 -1.4 -2.1 -1.35 -2.0 -1.35 -1.95 -1.35 -1.95 -1.3 -1.9 -1.3 -1.85 -1.3 -1.85 -1.3 -1.8 -1.25 -1.8 -1.25 -1.75 -1.25 -1.7 -1.2 -1.7 -1.2 -1.65 -1.2 -1.65 -1.15 -1.6 -1.15 -1.6 -1.15 -1.55 -1.1 -1.55 -0.65 -1.05 0.55 0.3 L0.55 0.3" fill="#000000" fill-rule="evenodd" stroke="none"/>
  </g>
</svg>
