<?xml version="1.0" encoding="UTF-8" standalone="no"?>
<svg xmlns:xlink="http://www.w3.org/1999/xlink" height="28.2px" width="62.8px" xmlns="http://www.w3.org/2000/svg">
  <g transform="matrix(1.0, 0.0, 0.0, 1.0, 31.4, 14.1)">
    <path d="M-29.05 11.95 Q-29.3 12.1 -29.55 12.2 -29.8 12.25 -30.0 12.3 -30.25 12.3 -30.5 12.25 -30.7 12.25 -30.9 12.15 -31.1 12.05 -31.25 11.9 -31.45 11.75 -31.55 11.55 -31.65 11.35 -31.75 11.1 -31.8 10.85 -31.85 10.6 -33.6 -30.05 -31.9 9.05 -31.95 8.15 -32.0 7.5 -32.0 6.7 -32.0 6.0 -32.05 5.15 -32.0 4.45 -32.0 3.65 -31.95 2.9 -31.9 2.1 -31.85 1.35 -31.75 0.6 -31.65 -0.15 -31.5 -0.95 -31.35 -1.7 -31.3 -2.0 -31.25 -2.3 -31.2 -2.6 -31.15 -2.9 -31.1 -3.2 -31.1 -3.55 -31.05 -3.85 -31.05 -4.15 -31.05 -4.45 -31.05 -4.8 -31.05 -5.05 -31.05 -5.45 -31.05 -5.9 -31.05 -6.05 -31.05 -6.4 -31.0 -6.7 -30.95 -9.05 -31.1 -10.55 -31.15 -11.1 -31.75 -12.8 -31.75 -12.85 -31.8 -12.9 -31.8 -12.9 -31.85 -12.95 -31.85 -13.0 -31.9 -13.05 -31.95 -13.1 -32.0 -13.1 -32.0 -13.15 -32.05 -13.2 -32.1 -13.2 -32.15 -13.25 -32.2 -13.3 -32.2 -13.3 -32.25 -13.35 -32.3 -13.4 -32.45 -13.5 -32.6 -13.65 -32.75 -13.75 -32.85 -13.9 -33.0 -14.0 -33.1 -14.15 -33.2 -14.3 -33.25 -14.45 -33.35 -14.65 -33.4 -14.8 -33.45 -14.95 -33.5 -15.15 -33.55 -15.3 -33.6 -15.5 -33.6 -15.65 -33.65 -15.85 -33.65 -16.0 -33.65 -16.1 -33.65 -16.25 -33.6 -16.35 -33.6 -16.5 -33.5 -16.6 -33.45 -16.7 -33.4 -16.8 -33.3 -16.9 -33.2 -16.95 -33.1 -17.05 -32.95 -17.1 -32.85 -17.15 -32.7 -17.2 -32.55 -17.25 -32.4 -17.25 -32.2 -17.3 -31.95 -17.25 -31.75 -17.25 -31.5 -17.2 -31.25 -17.15 -31.0 -17.05 -30.8 -16.95 -30.55 -16.8 -30.35 -16.65 -30.15 -16.5 -29.95 -16.35 -29.8 -16.15 -29.6 -15.95 -29.5 -15.75 -29.35 -15.55 -29.25 -15.3 -29.2 -15.15 -29.1 -15.0 -29.05 -14.85 -28.95 -14.75 -28.85 -14.7 -28.75 -14.6 -28.65 -14.55 -28.55 -14.45 -28.45 -14.45 -28.3 -14.4 -28.2 -14.35 -28.05 -14.35 -27.95 -14.3 -27.8 -14.3 -27.75 -14.3 -27.55 -14.25 -27.45 -14.25 -27.25 -14.2 -27.25 -14.2 -27.0 -14.2 -26.8 -14.2 -26.7 -14.2 -26.55 -14.2 -26.4 -14.15 -26.3 -14.1 -26.15 -14.1 -26.05 -14.05 -25.9 -13.95 -25.8 -13.85 -25.7 -13.75 -25.6 -13.65 -25.5 -13.5 -25.5 -13.45 -25.45 -13.45 -25.4 -13.4 -25.35 -13.4 -25.3 -13.35 -25.25 -13.35 -25.2 -13.3 -25.15 -13.3 -25.1 -13.3 -25.05 -13.25 -24.95 -13.25 -24.9 -13.25 -24.85 -13.2 -24.8 -13.2 -24.75 -13.2 -24.7 -13.15 -24.55 -13.1 -24.4 -13.0 -24.3 -12.95 -24.2 -12.85 -24.1 -12.75 -24.05 -12.7 -24.0 -12.6 -23.95 -12.5 -23.95 -12.4 -23.95 -12.3 -24.0 -12.2 -24.05 -12.1 -24.1 -12.0 -24.15 -11.85 -24.25 -11.75 -24.35 -11.6 -24.35 -11.6 -24.4 -11.55 -24.4 -11.55 -24.4 -11.5 -24.4 -11.45 -24.45 -11.45 -24.45 -11.4 -24.45 -11.4 -24.45 -11.35 -24.45 -11.3 -24.45 -11.25 -24.45 -11.25 -24.45 -11.2 -24.45 -11.15 -24.4 -11.15 -24.4 -11.1 -24.25 -10.55 -23.7 -8.65 -23.2 -7.0 -23.1 -6.65 -23.0 -6.25 -22.85 -5.6 -22.65 -4.65 -22.65 -4.5 -22.5 -4.95 -22.45 -5.2 -22.3 -5.6 -22.25 -5.95 -22.15 -6.3 -22.05 -6.65 -22.0 -7.05 -21.95 -7.4 -21.85 -7.75 -21.85 -8.1 -21.8 -8.45 -21.8 -8.8 -21.8 -9.2 -21.85 -9.55 -21.9 -9.9 -22.0 -10.25 -22.0 -10.35 -22.05 -10.4 -22.05 -10.5 -22.1 -10.6 -22.1 -10.65 -22.15 -10.75 -22.2 -10.8 -22.25 -10.9 -22.3 -10.95 -22.3 -11.05 -22.35 -11.1 -22.4 -11.2 -22.45 -11.25 -22.5 -11.35 -22.55 -11.4 -22.6 -11.45 -22.7 -11.55 -22.75 -11.7 -22.8 -11.8 -22.8 -11.9 -22.85 -12.05 -22.85 -12.15 -22.85 -12.25 -22.8 -12.35 -22.75 -12.5 -22.7 -12.55 -22.65 -12.65 -22.6 -12.75 -22.5 -12.8 -22.4 -12.85 -22.3 -12.9 -22.15 -12.9 -22.15 -12.9 -19.7 -12.75 -19.05 -12.75 -19.0 -12.8 -18.75 -12.95 -18.55 -13.05 -18.3 -13.2 -18.1 -13.25 -17.85 -13.35 -17.65 -13.35 -17.4 -13.4 -17.15 -13.4 -16.95 -13.4 -16.7 -13.4 -16.5 -13.35 -16.25 -13.3 -16.0 -13.25 -15.8 -13.15 -15.55 -13.05 -15.3 -12.95 -15.25 -12.9 -15.2 -12.85 -15.1 -12.85 -15.05 -12.75 -15.0 -12.7 -14.95 -12.65 -14.85 -12.6 -14.8 -12.55 -14.75 -12.45 -14.7 -12.4 -14.7 -12.3 -14.65 -12.25 -14.6 -12.2 -14.6 -12.1 -14.55 -12.05 -14.55 -12.0 -14.55 -11.9 -14.55 -11.85 -14.6 -11.75 -14.6 -11.65 -14.6 -11.6 -14.65 -11.5 -14.7 -11.4 -14.75 -11.3 -14.75 -11.25 -14.8 -11.15 -14.85 -11.05 -14.9 -11.0 -15.0 -10.95 -15.05 -10.85 -15.1 -10.8 -15.15 -10.75 -15.35 -10.6 -15.6 -10.5 -15.8 -10.35 -16.05 -10.3 -16.25 -10.2 -16.5 -10.15 -16.7 -10.15 -16.95 -10.1 -17.15 -10.1 -17.4 -10.15 -17.65 -10.15 -17.9 -10.25 -18.1 -10.3 -18.35 -10.35 -18.6 -10.45 -18.8 -10.55 -18.9 -10.6 -19.0 -10.65 -19.1 -10.7 -19.2 -10.7 -19.3 -10.7 -19.35 -10.7 -19.45 -10.7 -19.5 -10.7 -19.6 -10.7 -19.65 -10.65 -19.7 -10.6 -19.75 -10.55 -19.8 -10.45 -19.85 -10.4 -19.9 -10.3 -19.95 -10.2 -20.0 -10.05 -20.05 -9.95 -20.1 -9.8 -20.15 -9.7 -20.25 -9.55 -20.3 -9.45 -20.35 -9.3 -20.4 -9.2 -20.45 -9.05 -20.5 -8.95 -20.5 -8.8 -20.55 -8.7 -20.6 -8.55 -20.65 -8.4 -20.7 -8.3 -20.7 -8.15 -20.9 -7.3 -21.5 -4.6 -22.0 -2.4 -22.4 -1.1 -22.5 -0.75 -22.6 -0.35 -22.75 0.0 -22.85 0.35 -23.0 0.75 -23.1 1.1 -23.25 1.45 -23.4 1.8 -23.55 2.15 -23.7 2.5 -23.85 2.85 -24.0 3.2 -24.2 3.55 -24.35 3.9 -24.55 4.25 -24.75 4.55 -24.95 4.85 -25.1 5.2 -25.25 5.5 -25.4 5.85 -25.5 6.2 -25.65 6.5 -25.75 6.85 -25.85 7.2 -25.95 7.55 -26.0 7.9 -26.05 8.25 -26.1 8.6 -26.15 8.95 -26.15 9.3 -26.2 9.65 -26.2 10.05 -26.2 10.5 -25.75 11.9 -25.7 12.05 -25.7 12.15 -25.65 12.3 -25.65 12.4 -25.65 12.5 -25.65 12.55 -25.65 12.65 -25.7 12.7 -25.75 12.75 -25.8 12.8 -25.85 12.85 -25.95 12.85 -26.05 12.9 -26.15 12.9 -26.3 12.9 -26.45 12.9 -26.5 12.9 -26.8 12.9 -27.0 12.85 -27.15 12.85 -27.35 12.85 -27.5 12.8 -27.65 12.8 -27.85 12.75 -28.0 12.7 -28.15 12.65 -28.3 12.55 -28.45 12.45 -28.65 12.4 -28.75 12.25 -28.9 12.15 -29.05 11.95 L-29.05 11.95 M-29.0 11.25 Q-28.95 11.2 -28.85 11.2 -28.8 11.15 -28.75 11.15 -28.7 11.1 -28.6 11.05 -28.5 11.05 -28.45 11.0 -28.4 11.0 -28.35 10.95 -28.25 10.95 -28.2 10.9 -28.15 10.85 -28.15 10.8 -28.1 10.75 -28.05 10.7 -27.95 10.55 -27.85 10.35 -27.75 10.15 -27.65 10.0 -27.55 9.8 -27.45 9.65 -27.35 9.45 -27.25 9.25 -27.15 9.1 -27.05 8.9 -26.95 8.7 -26.85 8.5 -26.8 8.35 -26.7 8.15 -26.6 7.95 -26.55 7.75 -25.9 6.3 -25.0 3.8 -24.95 3.6 -24.9 3.5 -24.8 3.35 -24.75 3.2 -24.7 3.05 -24.65 2.9 -24.6 2.75 -24.55 2.6 -24.5 2.45 -24.45 2.3 -24.4 2.15 -24.4 2.0 -24.35 1.85 -24.3 1.7 -24.3 1.5 -24.25 1.35 -24.2 1.0 -23.85 -2.95 -23.85 -3.1 -23.8 -3.25 -23.8 -3.4 -23.8 -3.6 -23.8 -3.45 -23.75 -3.9 -23.7 -4.1 -23.7 -4.25 -23.7 -4.4 -23.65 -4.55 -23.65 -4.7 -23.65 -4.85 -23.65 -5.05 -23.65 -5.2 -23.65 -5.35 -23.7 -5.5 -23.75 -5.8 -23.8 -6.05 -23.85 -6.35 -23.9 -6.6 -23.95 -6.9 -24.0 -7.15 -24.05 -7.45 -24.1 -7.7 -24.2 -8.0 -24.25 -8.25 -24.35 -8.55 -24.4 -8.8 -24.5 -9.05 -24.6 -9.35 -24.7 -9.6 -24.8 -9.85 -24.9 -10.1 -24.95 -10.25 -25.05 -10.5 -25.15 -10.65 -25.25 -10.85 -25.4 -11.05 -25.5 -11.25 -25.65 -11.4 -25.8 -11.55 -26.0 -11.7 -26.15 -11.8 -26.35 -11.9 -26.55 -12.0 -26.8 -12.05 -27.05 -12.1 -27.35 -12.15 -27.4 -12.15 -27.45 -12.15 -27.45 -12.15 -27.5 -12.15 -27.55 -12.15 -27.6 -12.2 -27.65 -12.2 -27.7 -12.2 -28.2 -12.4 -27.75 -12.25 -27.9 -12.3 -28.05 -12.35 -28.2 -12.4 -28.3 -12.4 -28.4 -12.45 -28.45 -12.45 -28.55 -12.45 -28.65 -12.4 -28.7 -12.4 -28.8 -12.3 -28.85 -12.25 -28.9 -12.2 -29.0 -12.1 -29.05 -12.0 -29.1 -11.9 -29.2 -11.75 -29.25 -11.7 -29.25 -11.6 -29.3 -11.5 -29.3 -11.45 -29.35 -11.35 -29.35 -11.3 -29.35 -11.2 -29.4 -11.1 -29.4 -11.05 -29.4 -10.95 -29.4 -10.85 -29.4 -10.8 -29.4 -10.7 -29.45 -10.6 -29.45 -10.55 -29.45 -10.45 -29.45 -10.3 -29.45 -10.15 -29.45 -10.05 -29.45 -9.9 -29.45 -9.8 -29.45 -9.6 -29.4 -9.4 -29.4 -9.3 -29.4 -9.15 -29.4 -9.05 -29.4 -8.9 -29.4 -8.75 -29.4 -8.6 -29.4 -8.45 -29.4 -8.3 -29.45 -8.2 -29.9 -5.2 -30.8 0.15 -30.95 0.9 -31.0 1.6 -31.1 2.35 -31.15 3.05 -31.2 3.8 -31.2 4.45 -31.15 5.2 -31.1 5.85 -31.0 6.6 -30.85 7.25 -30.7 7.95 -30.45 8.6 -30.15 9.3 -29.8 9.95 -29.45 10.6 -29.0 11.25 L-29.0 11.25" fill="#000000" fill-rule="evenodd" stroke="none"/>
    <path d="M30.45 -14.0 Q30.5 -14.15 30.6 -14.35 30.7 -14.55 30.7 -14.65 30.75 -14.75 30.8 -14.9 30.85 -15.0 30.95 -15.1 31.0 -15.2 31.1 -15.25 31.2 -15.35 31.25 -15.4 31.35 -15.45 31.45 -15.5 31.55 -15.55 31.7 -15.6 31.8 -15.65 31.9 -15.65 32.05 -15.7 32.15 -15.7 32.3 -15.7 32.4 -15.7 32.5 -15.7 32.6 -15.65 32.7 -15.65 32.8 -15.55 32.9 -15.55 33.0 -15.45 33.1 -15.4 33.15 -15.3 33.25 -15.25 33.3 -15.15 33.4 -15.1 33.45 -15.0 33.5 -14.9 33.6 -14.8 33.6 -14.75 33.65 -14.75 33.65 -14.7 33.65 -14.65 33.65 -14.6 33.65 -14.55 33.65 -14.5 33.65 -14.45 33.65 -14.4 33.65 -14.3 33.65 -14.25 33.6 -14.2 33.6 -14.15 33.6 -14.15 33.55 -14.1 33.55 -14.05 33.35 -13.8 33.2 -13.55 33.05 -13.35 32.95 -13.05 32.8 -12.8 32.75 -12.55 32.65 -12.3 32.6 -12.0 32.5 -11.75 32.45 -11.45 32.45 -11.2 32.4 -10.9 32.35 -10.65 32.35 -10.3 32.35 -10.45 32.3 -9.75 32.25 -9.15 32.2 -8.55 32.15 -8.0 32.15 -7.4 32.1 -6.8 32.1 -6.2 32.1 -5.6 32.05 -5.05 32.05 -4.45 32.05 -3.85 32.1 -3.25 32.1 -2.65 32.1 -2.1 32.15 -1.5 32.15 -0.9 32.2 -0.3 32.2 -0.15 32.2 0.0 32.2 0.15 32.2 0.3 32.2 0.45 32.2 0.6 32.2 0.75 32.2 0.9 32.15 1.05 32.15 1.2 32.15 1.35 32.1 1.5 32.1 1.65 32.05 1.8 32.0 1.9 32.0 2.05 31.75 3.1 30.7 6.9 30.65 7.05 30.6 7.2 30.55 7.3 30.5 7.45 30.45 7.6 30.4 7.7 30.3 7.85 30.25 7.95 30.15 8.05 30.05 8.15 29.95 8.25 29.85 8.35 29.75 8.45 29.6 8.5 29.5 8.6 29.35 8.65 29.3 8.7 29.25 8.7 29.15 8.7 29.1 8.75 29.05 8.75 28.95 8.75 28.9 8.75 28.8 8.75 28.75 8.75 28.7 8.75 28.6 8.75 28.55 8.75 28.5 8.75 28.45 8.7 28.35 8.7 28.3 8.65 28.25 8.6 28.2 8.55 28.15 8.5 28.1 8.45 28.1 8.4 28.1 8.3 28.1 8.25 28.1 8.2 28.1 8.1 28.15 8.05 28.15 8.0 28.2 7.9 28.25 7.85 28.3 7.75 28.3 7.7 28.35 7.65 28.35 7.6 28.4 7.6 28.4 7.55 28.45 7.5 28.45 7.5 28.5 7.45 28.5 7.4 28.55 7.4 28.55 7.35 28.6 7.3 28.6 7.3 28.65 7.25 28.65 7.25 28.7 7.2 28.7 7.15 28.75 7.15 29.15 6.7 29.5 6.2 29.8 5.7 30.1 5.2 30.4 4.7 30.6 4.15 30.85 3.65 31.05 3.1 31.2 2.55 31.35 2.0 31.45 1.45 31.55 0.85 31.65 0.3 31.7 -0.3 31.75 -0.85 31.75 -1.5 31.75 -1.95 31.75 -10.4 31.75 -10.55 31.75 -10.7 31.75 -10.85 31.7 -11.0 31.7 -11.15 31.65 -11.25 31.6 -11.4 31.55 -11.55 31.5 -11.65 31.45 -11.8 31.4 -11.9 31.3 -12.05 31.25 -12.15 31.15 -12.3 31.05 -12.4 30.95 -12.5 30.85 -12.35 30.75 -12.2 30.65 -12.05 30.55 -11.95 30.45 -11.8 30.35 -11.7 30.25 -11.6 30.1 -11.5 30.0 -11.4 29.85 -11.3 29.7 -11.25 29.55 -11.15 29.4 -11.1 29.25 -11.05 29.1 -11.0 28.9 -11.0 28.9 -11.0 28.85 -10.95 28.85 -10.95 28.8 -10.95 28.75 -10.9 28.75 -10.85 28.7 -10.85 28.7 -10.8 28.65 -10.75 28.65 -10.75 28.65 -10.7 28.6 -10.65 28.6 -10.6 28.6 -10.6 28.55 -10.55 28.55 -10.5 28.5 -10.4 28.15 -8.5 27.9 -7.3 27.65 -6.5 27.5 -6.1 27.4 -5.75 27.25 -5.4 27.1 -5.0 26.95 -4.65 26.8 -4.25 26.65 -3.9 26.5 -3.55 26.35 -3.15 26.2 -2.8 26.05 -2.45 25.9 -2.05 25.75 -1.7 25.55 -1.35 25.4 -0.95 25.25 -0.6 25.15 -0.35 25.05 -0.15 24.9 0.1 24.85 0.3 24.75 0.55 24.65 0.75 24.55 1.0 24.45 1.2 24.35 1.45 24.3 1.7 24.2 1.9 24.15 2.15 24.1 2.4 24.05 2.65 24.0 2.9 23.95 3.15 23.75 4.3 23.4 6.05 22.9 8.8 22.85 8.9 22.8 9.15 22.75 9.35 22.7 9.6 22.6 9.8 22.55 10.05 22.45 10.25 22.35 10.45 22.25 10.65 22.15 10.85 22.0 11.05 21.9 11.2 21.75 11.4 21.6 11.55 21.45 11.75 21.25 11.9 21.05 12.05 21.0 12.1 20.9 12.15 20.8 12.2 20.7 12.25 20.65 12.3 20.55 12.35 20.45 12.4 20.35 12.45 20.25 12.5 20.15 12.5 20.05 12.55 19.95 12.55 19.85 12.6 19.75 12.6 19.65 12.65 19.55 12.65 19.5 12.65 19.45 12.65 19.35 12.65 19.3 12.6 19.25 12.6 19.15 12.55 19.1 12.5 19.05 12.5 19.0 12.45 18.9 12.4 18.85 12.35 18.8 12.3 18.75 12.25 18.75 12.2 18.7 12.15 18.7 12.1 18.7 12.05 18.65 12.0 18.65 11.9 18.65 11.85 18.65 11.75 18.65 11.7 18.7 11.6 18.7 11.55 18.7 11.45 18.75 11.4 18.75 11.3 18.8 11.25 18.85 11.2 18.85 11.15 18.9 11.1 18.95 11.05 19.0 11.0 19.1 10.95 19.15 10.85 19.2 10.8 19.3 10.75 19.35 10.7 19.45 10.65 19.55 10.6 19.6 10.55 19.7 10.55 19.8 10.5 19.85 10.45 19.95 10.45 20.05 10.4 20.1 10.4 20.2 10.35 20.3 10.35 20.4 10.3 20.5 10.3 20.55 10.25 20.65 10.25 20.7 10.2 20.8 10.15 20.85 10.1 20.9 10.05 20.95 10.0 21.05 9.95 21.1 9.85 21.15 9.8 21.2 9.75 21.25 9.65 21.3 9.6 21.45 9.3 21.6 9.0 21.75 8.75 21.9 8.4 22.05 8.1 22.15 7.8 22.25 7.5 22.4 7.2 22.5 6.9 22.55 6.55 22.65 6.25 22.7 5.95 22.8 5.6 22.85 5.3 22.9 4.95 22.95 4.65 23.15 3.45 23.35 -0.35 23.5 -2.7 23.5 -4.6 23.5 -5.15 23.45 -6.05 23.35 -7.25 23.35 -7.5 23.35 -7.6 23.35 -7.75 23.3 -7.85 23.3 -7.95 23.25 -8.05 23.25 -8.15 23.2 -8.25 23.15 -8.35 23.1 -8.45 23.0 -8.5 22.95 -8.6 22.9 -8.65 22.8 -8.75 22.7 -8.8 22.6 -8.9 22.5 -8.95 21.55 -9.5 21.4 -9.65 21.35 -9.7 21.25 -9.75 21.2 -9.85 21.1 -9.9 21.05 -9.95 21.0 -10.05 20.9 -10.1 20.85 -10.15 20.8 -10.25 20.75 -10.3 20.7 -10.4 20.65 -10.5 20.6 -10.55 20.55 -10.65 20.5 -10.7 20.45 -10.8 20.4 -10.9 20.4 -11.05 20.35 -11.2 20.35 -11.35 20.35 -11.45 20.4 -11.6 20.45 -11.75 20.45 -11.9 20.5 -12.0 20.6 -12.15 20.65 -12.25 20.7 -12.4 20.8 -12.5 20.9 -12.6 20.95 -12.7 21.05 -12.75 21.15 -12.8 21.25 -12.85 21.35 -12.9 21.45 -12.9 21.6 -12.95 21.7 -12.95 21.8 -12.95 21.95 -12.9 22.1 -12.9 22.2 -12.85 22.35 -12.85 22.45 -12.8 22.6 -12.75 22.7 -12.65 22.85 -12.6 22.95 -12.5 23.1 -12.4 23.45 -12.1 23.8 -11.8 24.0 -11.7 24.15 -11.6 24.3 -11.5 24.45 -11.45 24.6 -11.4 24.75 -11.35 24.9 -11.3 25.0 -11.3 25.15 -11.3 25.3 -11.35 25.45 -11.4 25.55 -11.4 25.7 -11.5 25.85 -11.55 25.95 -11.65 26.1 -11.75 26.2 -11.9 26.55 -12.25 27.15 -13.1 27.3 -13.3 27.5 -13.5 27.65 -13.7 27.8 -13.8 28.0 -13.95 28.2 -14.05 28.4 -14.15 28.6 -14.2 28.8 -14.25 29.0 -14.3 29.2 -14.3 29.45 -14.25 29.65 -14.25 29.9 -14.15 30.15 -14.1 30.45 -14.0 L30.45 -14.0 M24.1 0.05 Q24.35 -0.3 24.6 -0.65 24.8 -1.0 25.0 -1.35 25.2 -1.7 25.4 -2.1 25.6 -2.45 25.75 -2.85 25.95 -3.2 26.1 -3.6 26.25 -4.0 26.4 -4.35 26.5 -4.75 26.65 -5.15 26.75 -5.55 26.85 -5.95 27.0 -6.6 27.0 -9.15 27.0 -9.2 27.0 -9.25 26.95 -9.25 26.95 -9.3 26.9 -9.35 26.9 -9.4 26.85 -9.45 26.8 -9.5 26.75 -9.5 26.7 -9.55 26.7 -9.6 26.65 -9.6 26.6 -9.65 26.55 -9.65 26.5 -9.7 26.45 -9.7 26.4 -9.7 26.35 -9.7 26.3 -9.7 26.25 -9.7 26.2 -9.65 26.15 -9.65 26.1 -9.65 26.05 -9.6 25.95 -9.6 25.9 -9.55 25.85 -9.55 25.85 -9.5 25.8 -9.5 25.75 -9.45 25.7 -9.4 25.7 -9.4 25.6 -9.2 25.6 -9.15 25.5 -9.0 25.45 -8.9 25.4 -8.8 25.35 -8.65 25.3 -8.55 25.25 -8.4 25.15 -8.3 25.15 -8.15 25.1 -8.05 25.05 -7.9 25.0 -7.8 24.95 -7.65 24.95 -7.5 24.9 -7.4 24.8 -6.8 24.4 -2.9 24.3 -2.2 24.1 0.05 L24.1 0.05" fill="#000000" fill-rule="evenodd" stroke="none"/>
  </g>
</svg>
