<?xml version="1.0" encoding="UTF-8" standalone="no"?>
<svg xmlns:xlink="http://www.w3.org/1999/xlink" height="116.15px" width="46.5px" xmlns="http://www.w3.org/2000/svg">
  <g transform="matrix(1.0, 0.0, 0.0, 1.0, 23.25, 58.05)">
    <path d="M-10.55 -34.95 Q-10.55 -34.5 -10.55 -34.35 -10.55 -34.0 -10.55 -33.75 -10.55 -33.45 -10.5 -33.2 -10.5 -32.95 -10.45 -32.7 -10.4 -32.4 -10.35 -32.2 -10.3 -31.9 -10.2 -31.7 -10.1 -31.45 -10.0 -31.2 -9.85 -31.0 -9.7 -30.8 -9.7 -30.75 -9.2 -30.1 -8.5 -29.15 -8.1 -28.55 -8.0 -28.45 -7.95 -28.35 -7.9 -28.3 -7.85 -28.2 -7.8 -28.15 -7.75 -28.05 -7.7 -28.0 -7.65 -27.9 -7.6 -27.85 -7.6 -27.75 -7.55 -27.7 -7.55 -27.6 -7.5 -27.55 -7.5 -27.45 -7.45 -27.35 -7.45 -27.3 -7.45 -27.25 -7.45 -27.2 -7.45 -27.15 -7.45 -27.1 -7.45 -27.05 -7.45 -27.0 -7.5 -26.95 -7.5 -26.85 -7.5 -26.75 -7.55 -26.65 -7.6 -26.55 -7.6 -26.4 -7.65 -26.25 -7.7 -26.05 -7.8 -25.85 -7.85 -25.65 -7.9 -25.5 -7.95 -25.3 -7.95 -25.3 -8.05 -25.05 -8.1 -24.9 -8.1 -24.85 -8.15 -24.75 -8.15 -24.65 -8.2 -24.6 -8.2 -24.55 -8.2 -24.5 -8.2 -24.45 -8.2 -24.4 -8.2 -24.35 -8.2 -24.3 -8.2 -24.25 -8.15 -24.15 -8.1 -24.1 -8.05 -24.0 -7.95 -23.95 -7.9 -23.9 -7.8 -23.85 -7.7 -23.8 -7.6 -23.75 -7.5 -23.75 -7.35 -23.7 -7.25 -23.65 -7.1 -23.65 -7.0 -23.6 -6.85 -23.6 -6.75 -23.55 -6.55 -23.55 -3.45 -22.95 -2.95 -22.95 -2.25 -22.9 -1.6 -22.9 -1.05 -22.85 -0.5 -22.85 -0.2 -22.8 0.45 -22.75 0.95 -22.75 1.25 -22.7 1.7 -22.7 2.0 -22.7 2.4 -22.65 2.8 -22.65 3.2 -22.65 3.65 -22.7 4.1 -22.7 4.6 -22.75 4.95 -22.75 5.2 -22.8 5.5 -22.8 5.75 -22.85 6.0 -22.9 6.25 -22.9 6.45 -22.95 6.65 -23.0 6.85 -23.05 7.0 -23.15 7.15 -23.2 7.3 -23.3 7.4 -23.4 7.5 -23.5 7.6 -23.6 7.65 -23.75 7.7 -23.85 7.8 -24.05 7.8 -24.15 7.85 -24.35 7.9 -24.5 7.9 -24.65 7.9 -24.8 7.9 -25.0 7.9 -25.1 7.9 -25.25 7.9 -25.4 7.85 -25.55 7.85 -25.65 7.85 -25.75 7.85 -25.8 7.85 -25.85 7.85 -25.95 7.8 -26.1 7.75 -26.2 7.75 -26.3 7.7 -26.35 7.7 -26.45 7.65 -26.55 7.65 -26.6 7.6 -26.7 7.6 -26.75 7.6 -26.85 7.6 -26.9 7.55 -26.95 7.55 -27.05 7.55 -27.15 7.55 -27.25 7.55 -27.35 7.6 -27.4 7.6 -27.5 7.65 -27.55 7.65 -27.65 7.7 -27.75 7.75 -27.8 7.75 -27.9 7.8 -28.0 7.9 -28.1 7.95 -28.15 8.0 -28.3 8.1 -28.4 8.2 -28.5 8.3 -28.65 8.4 -28.8 8.55 -29.05 8.75 -29.25 8.85 -29.4 9.0 -29.55 9.1 -29.7 9.25 -29.85 9.35 -29.95 9.45 -30.1 9.6 -30.25 9.65 -30.3 9.75 -30.4 9.85 -30.55 9.95 -30.65 10.05 -30.8 10.15 -30.9 10.3 -31.1 10.4 -31.25 10.4 -31.25 10.5 -31.35 10.55 -31.45 10.6 -31.55 10.7 -31.65 10.75 -31.75 10.8 -31.9 10.9 -32.0 10.95 -32.1 11.05 -32.25 11.1 -32.4 11.15 -32.5 11.25 -32.65 11.3 -32.8 11.4 -32.95 11.4 -32.95 11.4 -33.0 11.45 -33.05 11.45 -33.15 11.5 -33.35 11.5 -33.35 11.55 -33.45 11.6 -33.6 11.65 -33.75 11.7 -33.85 11.75 -34.0 11.75 -34.2 11.8 -34.35 11.85 -34.5 11.9 -34.7 11.9 -34.85 11.95 -35.2 11.95 -35.55 12.0 -35.85 11.95 -36.2 11.95 -36.5 11.9 -36.85 11.85 -37.15 11.75 -37.5 11.7 -37.8 11.6 -38.1 11.5 -38.4 11.4 -38.75 11.3 -39.0 11.15 -39.35 11.05 -39.6 10.9 -40.0 10.65 -40.55 10.6 -40.8 10.4 -41.2 10.3 -41.45 10.15 -41.8 10.0 -42.05 9.9 -42.35 9.75 -42.6 9.6 -42.85 9.45 -43.1 9.3 -43.3 9.15 -43.5 9.0 -43.7 8.8 -43.9 8.65 -44.1 8.4 -44.25 8.2 -44.4 8.0 -44.55 7.8 -44.7 7.6 -44.8 7.4 -44.95 7.15 -45.05 6.95 -45.1 6.75 -45.2 6.5 -45.3 6.25 -45.35 6.05 -45.45 5.75 -45.5 5.55 -45.55 5.25 -45.65 5.05 -45.7 4.7 -45.75 4.3 -45.85 4.05 -45.9 3.7 -46.0 3.4 -46.05 3.05 -46.1 2.7 -46.15 2.35 -46.2 2.0 -46.25 1.6 -46.3 1.25 -46.3 0.85 -46.3 0.45 -46.3 0.05 -46.3 -0.4 -46.25 -0.85 -46.2 -1.25 -46.1 -2.05 -45.95 -2.75 -45.7 -3.45 -45.45 -4.1 -45.1 -4.7 -44.8 -5.3 -44.4 -5.8 -44.1 -6.25 -43.7 -6.65 -43.35 -7.05 -43.0 -7.35 -42.7 -7.65 -42.35 -7.9 -42.1 -8.1 -41.85 -8.2 -41.7 -8.3 -41.55 -8.4 -41.4 -8.5 -41.25 -8.65 -41.05 -8.8 -40.8 -9.0 -40.5 -9.15 -40.2 -9.35 -39.8 -9.55 -39.4 -9.75 -38.95 -9.9 -38.45 -10.1 -37.95 -10.2 -37.4 -10.35 -36.85 -10.45 -36.25 -10.5 -35.6 -10.55 -34.95 L-10.55 -34.95" fill="#3aec5e" fill-rule="evenodd" stroke="none"/>
  </g>
</svg>
