<?xml version="1.0" encoding="UTF-8" standalone="no"?>
<svg xmlns:xlink="http://www.w3.org/1999/xlink" height="118.15px" width="48.5px" xmlns="http://www.w3.org/2000/svg">
  <g transform="matrix(1.0, 0.0, 0.0, 1.0, 24.25, 59.05)">
    <path d="M-8.6 -42.55 Q-8.5 -42.7 -8.4 -42.85 -8.25 -42.95 -8.15 -43.1 -8.05 -43.2 -7.9 -43.35 -7.8 -43.45 -7.65 -43.6 -7.5 -43.7 -7.4 -43.8 -7.25 -43.95 -7.1 -44.05 -7.0 -44.15 -6.85 -44.25 -6.7 -44.35 -6.55 -44.45 -6.4 -44.55 -6.25 -44.65 -6.1 -44.75 -6.0 -44.85 -5.85 -44.95 -5.7 -45.05 -5.55 -45.15 -5.4 -45.25 -5.25 -45.35 -5.1 -45.4 -4.95 -45.5 -4.8 -45.6 -4.65 -45.7 -4.55 -45.8 -4.4 -45.9 -4.25 -46.0 -4.05 -46.1 -3.9 -46.2 -3.7 -46.3 -3.5 -46.4 -3.35 -46.45 -3.15 -46.55 -2.95 -46.6 -2.75 -46.65 -2.55 -46.7 -2.35 -46.75 -2.15 -46.8 -1.95 -46.85 -1.75 -46.85 -1.55 -46.9 -1.35 -46.9 -1.15 -46.9 -0.9 -46.9 -0.65 -46.9 -0.35 -46.95 -0.1 -46.95 0.15 -46.95 0.4 -46.95 0.7 -46.95 0.95 -46.95 1.2 -46.95 1.45 -46.95 1.7 -46.95 1.95 -46.95 2.25 -46.95 2.5 -46.95 2.75 -46.95 3.0 -46.95 3.3 -46.95 3.6 -46.9 3.9 -46.85 4.25 -46.8 4.5 -46.7 4.8 -46.65 5.1 -46.55 5.4 -46.45 5.65 -46.35 5.95 -46.2 6.2 -46.1 6.5 -45.95 6.75 -45.8 7.0 -45.65 7.3 -45.5 7.55 -45.3 7.7 -45.2 7.85 -45.1 8.0 -44.95 8.15 -44.85 8.35 -44.75 8.45 -44.6 8.6 -44.5 8.75 -44.35 8.9 -44.25 9.05 -44.1 9.2 -43.95 9.35 -43.85 9.45 -43.7 9.6 -43.55 9.75 -43.4 9.85 -43.25 9.9 -43.3 10.0 -43.35 10.05 -43.35 10.15 -43.4 10.2 -43.45 10.25 -43.5 10.35 -43.5 10.4 -43.55 10.45 -43.6 10.5 -43.65 10.6 -43.65 10.65 -43.7 10.7 -43.75 10.8 -43.8 10.85 -43.8 10.9 -43.85 10.95 -43.9 11.4 -44.15 11.7 -44.35 11.95 -44.45 12.0 -44.5 12.05 -44.5 12.1 -44.55 12.15 -44.6 12.2 -44.65 12.2 -44.7 12.25 -44.75 12.25 -44.8 12.3 -44.85 12.3 -44.9 12.35 -44.95 12.35 -45.0 12.35 -45.05 12.4 -45.1 12.4 -45.2 12.4 -45.25 12.4 -45.35 12.4 -45.4 12.4 -45.5 12.45 -45.55 12.45 -45.65 12.45 -45.75 12.45 -45.8 12.45 -45.9 12.5 -46.0 12.5 -46.05 12.5 -46.15 12.55 -46.2 12.55 -46.3 12.55 -46.4 12.6 -46.45 12.6 -46.55 12.65 -46.75 12.75 -46.95 12.8 -47.15 12.9 -47.35 13.0 -47.55 13.15 -47.7 13.25 -47.85 13.4 -48.0 13.55 -48.15 13.7 -48.3 13.85 -48.4 14.05 -48.5 14.2 -48.6 14.4 -48.7 14.6 -48.75 14.85 -48.8 15.1 -48.85 15.3 -48.9 15.55 -48.9 15.75 -48.9 16.0 -48.85 16.2 -48.8 16.4 -48.75 16.6 -48.65 16.8 -48.6 16.95 -48.45 17.15 -48.35 17.3 -48.2 17.45 -48.05 17.55 -47.85 17.7 -47.7 17.75 -47.5 17.8 -47.4 17.8 -47.35 17.85 -47.25 17.85 -47.15 17.9 -47.05 17.9 -47.0 17.95 -46.9 17.95 -46.8 17.95 -46.7 17.95 -46.65 17.95 -46.55 17.95 -46.45 17.95 -46.35 17.95 -46.25 17.95 -46.2 17.95 -46.1 17.95 -45.9 17.95 -45.75 17.95 -45.6 18.0 -45.4 18.0 -45.25 18.05 -45.1 18.05 -44.95 18.1 -44.75 18.15 -44.6 18.25 -44.45 18.3 -44.3 18.35 -44.15 18.45 -44.0 18.55 -43.85 18.6 -43.75 18.75 -43.6 18.75 -43.55 18.8 -43.55 18.85 -43.5 18.85 -43.45 18.9 -43.45 18.95 -43.4 18.95 -43.4 19.0 -43.35 19.05 -43.35 19.1 -43.3 19.1 -43.3 19.15 -43.25 19.2 -43.25 19.25 -43.2 19.3 -43.2 19.35 -43.2 19.4 -43.15 19.45 -43.15 19.45 -43.15 19.5 -43.1 19.55 -43.1 19.6 -43.05 19.65 -43.05 19.7 -43.05 19.7 -43.0 19.75 -43.0 19.8 -42.95 19.85 -42.95 19.9 -42.95 19.95 -42.9 20.0 -42.9 20.0 -42.85 20.3 -42.7 20.55 -42.5 20.75 -42.3 20.95 -42.05 21.1 -41.85 21.2 -41.55 21.3 -41.3 21.35 -41.05 21.4 -40.75 21.35 -40.45 21.3 -40.2 21.2 -39.9 21.1 -39.65 20.95 -39.4 20.75 -39.15 20.5 -38.9 20.35 -38.8 20.2 -38.65 20.05 -38.55 19.9 -38.5 19.75 -38.4 19.6 -38.35 19.45 -38.25 19.3 -38.2 19.1 -38.15 18.95 -38.1 18.8 -38.05 18.6 -38.0 18.45 -38.0 18.25 -37.95 18.05 -37.95 17.9 -37.95 17.75 -37.95 17.65 -37.95 17.5 -37.95 17.35 -37.95 17.25 -37.95 17.1 -37.95 17.0 -38.0 16.85 -38.0 16.75 -38.05 16.6 -38.05 16.5 -38.1 16.35 -38.1 16.25 -38.15 16.1 -38.2 16.0 -38.25 15.85 -38.25 15.85 -38.25 15.8 -38.3 15.75 -38.3 15.7 -38.3 15.65 -38.35 15.65 -38.35 15.45 -38.5 15.2 -38.55 15.0 -38.65 14.8 -38.7 14.6 -38.7 14.35 -38.7 14.15 -38.7 13.95 -38.7 13.75 -38.65 13.55 -38.6 13.35 -38.55 13.15 -38.45 12.95 -38.35 12.75 -38.25 12.55 -38.2 12.35 -38.05 12.4 -37.85 12.4 -37.7 12.45 -37.5 12.5 -37.3 12.5 -37.1 12.5 -36.9 12.55 -36.75 12.55 -36.55 12.55 -36.35 12.55 -36.15 12.55 -35.95 12.55 -35.75 12.55 -35.55 12.55 -35.35 12.55 -35.2 12.55 -35.0 12.55 -34.8 12.5 -34.6 12.5 -34.4 12.45 -34.2 12.4 -34.05 12.35 -33.85 12.3 -33.65 12.25 -33.45 12.2 -33.25 12.15 -33.1 12.05 -32.9 12.0 -32.7 11.95 -32.55 11.85 -32.35 11.8 -32.2 11.7 -32.0 11.85 -31.9 12.0 -31.8 12.15 -31.75 12.3 -31.65 12.45 -31.55 12.6 -31.5 12.75 -31.4 12.9 -31.35 13.1 -31.25 13.25 -31.2 13.4 -31.15 13.55 -31.1 13.7 -31.05 13.9 -31.0 14.05 -30.95 14.2 -30.95 14.25 -30.95 14.3 -30.95 14.35 -30.95 14.4 -30.95 14.45 -30.95 14.5 -30.95 14.6 -30.95 14.65 -30.95 14.7 -30.95 14.75 -31.0 14.8 -31.0 14.85 -31.0 14.9 -31.0 14.95 -31.05 15.05 -31.05 15.05 -31.05 15.15 -31.1 15.25 -31.1 15.35 -31.15 15.45 -31.2 15.5 -31.2 15.65 -31.25 15.75 -31.3 15.85 -31.35 15.95 -31.35 16.05 -31.4 16.15 -31.45 16.25 -31.45 16.35 -31.5 16.45 -31.5 16.55 -31.55 16.65 -31.55 16.85 -31.6 17.1 -31.65 17.3 -31.65 17.55 -31.65 17.75 -31.65 17.95 -31.65 18.2 -31.65 18.4 -31.6 18.6 -31.6 18.85 -31.5 19.05 -31.45 19.25 -31.4 19.45 -31.3 19.65 -31.2 19.85 -31.1 20.05 -31.0 20.2 -30.9 20.3 -30.8 20.45 -30.7 20.55 -30.6 20.7 -30.5 20.8 -30.35 20.9 -30.25 20.95 -30.1 21.05 -29.95 21.1 -29.85 21.15 -29.7 21.2 -29.55 21.25 -29.4 21.3 -29.25 21.3 -29.05 21.35 -28.9 21.35 -28.75 21.35 -28.55 21.3 -28.4 21.3 -28.25 21.25 -28.1 21.2 -27.95 21.15 -27.85 21.05 -27.7 21.0 -27.6 20.9 -27.45 20.8 -27.35 20.7 -27.25 20.6 -27.1 20.5 -27.0 20.35 -26.9 20.2 -26.85 20.15 -26.8 20.1 -26.8 20.05 -26.75 20.0 -26.7 19.95 -26.7 19.9 -26.65 19.85 -26.65 19.75 -26.6 19.7 -26.6 19.65 -26.55 19.6 -26.55 19.55 -26.5 19.5 -26.5 19.45 -26.45 19.4 -26.45 19.3 -26.45 19.2 -26.4 19.15 -26.35 19.05 -26.35 19.0 -26.3 18.9 -26.25 18.85 -26.2 18.8 -26.15 18.7 -26.1 18.65 -26.05 18.6 -25.95 18.55 -25.9 18.5 -25.85 18.45 -25.75 18.4 -25.7 18.35 -25.6 18.3 -25.55 18.25 -25.4 18.2 -25.3 18.15 -25.2 18.1 -25.05 18.05 -24.95 18.0 -24.8 17.95 -24.7 17.95 -24.55 17.9 -24.4 17.9 -24.3 17.85 -24.15 17.85 -24.05 17.8 -23.9 17.8 -23.75 17.8 -23.65 17.8 -23.5 17.8 -23.35 17.8 -23.25 17.8 -23.1 17.8 -22.95 17.8 -22.85 17.75 -22.7 17.75 -22.6 17.7 -22.45 17.7 -22.35 17.65 -22.2 17.6 -22.1 17.55 -22.0 17.45 -21.85 17.4 -21.75 17.3 -21.65 17.2 -21.55 17.05 -21.4 16.9 -21.25 16.75 -21.15 16.55 -21.05 16.35 -20.95 16.15 -20.85 15.95 -20.8 15.75 -20.8 15.5 -20.75 15.3 -20.75 15.1 -20.75 14.85 -20.8 14.65 -20.8 14.45 -20.9 14.2 -20.95 14.0 -21.05 13.85 -21.15 13.65 -21.25 13.5 -21.35 13.4 -21.5 13.25 -21.6 13.15 -21.75 13.05 -21.9 12.95 -22.05 12.85 -22.2 12.75 -22.35 12.65 -22.5 12.6 -22.65 12.55 -22.85 12.5 -23.0 12.45 -23.2 12.4 -23.4 12.35 -23.65 12.3 -24.05 12.25 -24.5 12.25 -24.7 12.25 -24.75 12.25 -24.75 12.2 -24.8 12.2 -24.85 12.2 -24.85 12.15 -24.9 12.15 -24.95 12.15 -24.95 12.1 -25.0 12.1 -25.0 12.05 -25.05 12.05 -25.05 12.0 -25.1 12.0 -25.1 11.95 -25.1 11.95 -25.1 11.0 -25.75 8.55 -27.2 8.55 -27.2 8.45 -27.2 8.55 -26.95 8.85 -26.3 8.9 -26.2 8.95 -26.05 8.95 -25.95 9.0 -25.85 9.0 -25.7 9.05 -25.6 9.05 -25.5 9.05 -25.4 9.1 -25.25 9.1 -25.15 9.1 -25.05 9.05 -24.9 9.05 -24.8 9.05 -24.7 9.0 -24.55 9.0 -24.45 8.95 -24.25 8.85 -24.1 8.75 -23.9 8.65 -23.75 8.55 -23.6 8.45 -23.45 8.3 -23.35 8.2 -23.2 8.05 -23.1 7.9 -23.0 7.75 -22.9 7.6 -22.8 7.45 -22.75 7.25 -22.65 7.1 -22.6 6.9 -22.55 6.8 -22.5 6.7 -22.5 6.65 -22.45 6.55 -22.45 6.45 -22.4 6.35 -22.4 6.25 -22.4 6.2 -22.35 6.1 -22.35 6.0 -22.35 5.9 -22.35 5.8 -22.3 5.7 -22.3 5.65 -22.3 5.55 -22.3 5.45 -22.3 0.35 -22.25 -2.9 -22.3 -3.15 -22.3 -3.4 -22.3 -3.65 -22.35 -3.9 -22.35 -4.15 -22.4 -4.4 -22.4 -4.65 -22.45 -4.9 -22.5 -5.15 -22.5 -5.4 -22.55 -5.6 -22.6 -5.85 -22.65 -6.1 -22.75 -6.35 -22.8 -6.6 -22.85 -6.85 -22.95 -6.95 -23.0 -7.1 -23.0 -7.2 -23.05 -7.3 -23.1 -7.45 -23.15 -7.55 -23.2 -7.65 -23.25 -7.75 -23.35 -7.85 -23.4 -7.95 -23.45 -8.1 -23.55 -8.15 -23.65 -8.25 -23.7 -8.35 -23.8 -8.45 -23.9 -8.55 -24.0 -8.65 -24.1 -8.7 -24.2 -8.75 -24.3 -8.8 -24.4 -8.85 -24.45 -8.9 -24.55 -8.9 -24.65 -8.95 -24.75 -8.95 -24.9 -8.95 -25.0 -8.95 -25.1 -8.95 -25.2 -8.95 -25.3 -8.95 -25.4 -8.9 -25.5 -8.85 -25.65 -8.8 -25.8 -8.65 -26.1 -8.45 -26.5 -8.45 -26.5 -8.3 -26.9 -8.1 -27.4 -8.1 -27.4 -8.15 -27.45 -8.2 -27.45 -8.25 -27.4 -8.3 -27.4 -8.3 -27.4 -10.4 -26.1 -11.75 -25.3 -11.8 -25.25 -11.9 -25.2 -11.95 -25.15 -12.0 -25.1 -12.05 -25.05 -12.1 -25.0 -12.1 -24.95 -12.15 -24.9 -12.2 -24.85 -12.2 -24.8 -12.25 -24.7 -12.25 -24.65 -12.25 -24.6 -12.25 -24.5 -12.3 -24.45 -12.3 -24.35 -12.3 -24.2 -12.3 -24.05 -12.3 -23.95 -12.35 -23.8 -12.35 -23.65 -12.35 -23.5 -12.4 -23.35 -12.45 -23.25 -12.45 -23.1 -12.5 -22.95 -12.55 -22.85 -12.6 -22.7 -12.65 -22.55 -12.7 -22.45 -12.75 -22.3 -12.85 -22.2 -12.95 -21.95 -13.15 -21.75 -13.3 -21.6 -13.5 -21.4 -13.7 -21.25 -13.9 -21.15 -14.15 -21.0 -14.4 -20.9 -14.6 -20.85 -14.85 -20.8 -15.1 -20.75 -15.35 -20.75 -15.65 -20.75 -15.9 -20.8 -16.15 -20.85 -16.35 -20.95 -16.5 -21.0 -16.65 -21.1 -16.8 -21.15 -16.9 -21.25 -17.05 -21.35 -17.15 -21.45 -17.25 -21.55 -17.35 -21.65 -17.45 -21.8 -17.5 -21.9 -17.55 -22.05 -17.65 -22.15 -17.7 -22.3 -17.7 -22.45 -17.75 -22.6 -17.8 -22.8 -17.8 -22.95 -17.8 -23.65 -17.8 -23.8 -17.8 -24.0 -17.85 -24.15 -17.85 -24.3 -17.9 -24.45 -17.95 -24.6 -18.0 -24.8 -18.05 -24.95 -18.1 -25.1 -18.15 -25.2 -18.25 -25.35 -18.3 -25.5 -18.4 -25.65 -18.5 -25.75 -18.55 -25.9 -18.65 -26.05 -18.65 -26.05 -19.4 -26.45 -20.45 -27.0 -20.45 -27.0 -20.65 -27.15 -20.85 -27.4 -21.0 -27.6 -21.1 -27.8 -21.2 -28.05 -21.3 -28.3 -21.35 -28.5 -21.35 -28.75 -21.35 -29.0 -21.3 -29.25 -21.25 -29.5 -21.15 -29.75 -21.05 -30.0 -20.9 -30.2 -20.7 -30.45 -20.5 -30.6 -20.35 -30.75 -20.2 -30.85 -20.1 -30.95 -19.95 -31.05 -19.8 -31.15 -19.65 -31.2 -19.45 -31.3 -19.3 -31.35 -19.15 -31.4 -18.95 -31.45 -18.8 -31.5 -18.65 -31.55 -18.45 -31.6 -18.3 -31.6 -18.1 -31.65 -17.9 -31.65 -17.75 -31.65 -17.6 -31.65 -17.45 -31.65 -17.3 -31.65 -17.15 -31.65 -17.0 -31.65 -16.85 -31.6 -16.7 -31.6 -16.55 -31.55 -16.45 -31.55 -16.3 -31.5 -16.15 -31.45 -16.0 -31.4 -15.85 -31.35 -15.7 -31.3 -15.6 -31.25 -15.45 -31.15 -15.25 -31.1 -15.1 -31.05 -14.95 -31.0 -14.75 -31.0 -14.6 -30.95 -14.45 -30.95 -14.3 -30.95 -14.1 -30.95 -13.95 -31.0 -13.8 -31.0 -13.65 -31.05 -13.5 -31.1 -13.3 -31.15 -13.15 -31.25 -13.0 -31.3 -11.25 -32.25 -11.2 -32.25 -11.2 -32.25 -11.15 -32.3 -11.15 -32.35 -11.15 -32.4 -11.1 -32.4 -11.1 -32.45 -11.1 -32.5 -11.1 -32.5 -11.15 -32.7 -11.2 -32.9 -11.25 -33.1 -11.25 -33.3 -11.3 -33.5 -11.3 -33.7 -11.35 -33.9 -11.35 -34.1 -11.4 -34.3 -11.4 -34.5 -11.4 -34.7 -11.4 -34.9 -11.4 -35.1 -11.4 -35.3 -11.35 -35.5 -11.35 -35.7 -11.3 -36.05 -11.1 -37.15 -11.1 -37.2 -11.1 -37.25 -11.1 -37.3 -11.1 -37.3 -11.1 -37.35 -11.1 -37.4 -11.15 -37.4 -11.2 -37.45 -11.2 -37.45 -11.25 -37.5 -11.7 -37.7 -12.4 -38.05 -13.25 -38.45 -13.55 -38.55 -13.65 -38.6 -13.75 -38.65 -13.85 -38.7 -13.95 -38.7 -14.05 -38.7 -14.15 -38.75 -14.25 -38.75 -14.35 -38.75 -14.45 -38.75 -14.55 -38.75 -14.65 -38.7 -14.75 -38.7 -14.85 -38.65 -14.95 -38.65 -15.1 -38.6 -15.2 -38.55 -15.3 -38.5 -15.45 -38.45 -15.55 -38.4 -15.65 -38.35 -15.8 -38.3 -15.9 -38.25 -16.05 -38.2 -16.15 -38.15 -16.3 -38.15 -16.4 -38.1 -16.5 -38.05 -16.65 -38.05 -16.8 -38.0 -16.9 -38.0 -17.05 -37.95 -17.15 -37.95 -17.35 -37.95 -17.55 -37.95 -17.75 -37.95 -17.9 -37.95 -18.1 -37.95 -18.3 -37.95 -18.45 -38.0 -18.65 -38.0 -18.85 -38.05 -19.0 -38.1 -19.2 -38.15 -19.35 -38.25 -19.55 -38.3 -19.7 -38.35 -19.85 -38.45 -20.05 -38.55 -20.2 -38.65 -20.3 -38.75 -20.45 -38.85 -20.55 -38.95 -20.65 -39.05 -20.75 -39.15 -20.85 -39.3 -20.95 -39.4 -21.05 -39.55 -21.1 -39.65 -21.2 -39.8 -21.25 -39.95 -21.3 -40.1 -21.3 -40.25 -21.35 -40.4 -21.35 -40.6 -21.35 -40.8 -21.35 -40.95 -21.35 -41.15 -21.3 -41.35 -21.25 -41.5 -21.2 -41.65 -21.15 -41.85 -21.05 -42.0 -20.95 -42.15 -20.8 -42.3 -20.7 -42.45 -20.55 -42.55 -20.4 -42.65 -20.2 -42.8 -20.05 -42.9 -19.85 -42.95 -19.8 -43.0 -19.75 -43.0 -19.7 -43.0 -19.65 -43.05 -19.65 -43.05 -19.6 -43.1 -19.55 -43.1 -19.5 -43.1 -19.4 -43.15 -19.3 -43.2 -19.2 -43.2 -19.1 -43.3 -19.0 -43.35 -18.95 -43.4 -18.85 -43.45 -18.8 -43.55 -18.7 -43.6 -18.65 -43.7 -18.6 -43.75 -18.55 -43.85 -18.5 -43.95 -18.45 -44.05 -18.4 -44.15 -18.35 -44.25 -18.3 -44.35 -18.25 -44.5 -18.2 -44.6 -18.15 -44.7 -18.15 -44.8 -18.1 -44.95 -18.05 -45.05 -18.05 -45.15 -18.0 -45.3 -18.0 -45.4 -18.0 -45.55 -17.95 -45.65 -17.95 -45.75 -17.95 -45.9 -17.95 -46.0 -17.95 -46.15 -17.95 -46.2 -17.95 -46.3 -17.95 -46.35 -17.95 -46.4 -17.95 -46.5 -17.95 -46.55 -17.95 -46.6 -17.95 -46.7 -17.95 -46.75 -17.95 -46.85 -17.9 -46.9 -17.9 -46.95 -17.9 -47.05 -17.9 -47.1 -17.85 -47.15 -17.85 -47.25 -17.8 -47.45 -17.7 -47.65 -17.6 -47.8 -17.5 -48.0 -17.35 -48.15 -17.2 -48.3 -17.05 -48.4 -16.85 -48.55 -16.7 -48.65 -16.5 -48.7 -16.3 -48.8 -16.1 -48.85 -15.85 -48.9 -15.65 -48.9 -15.45 -48.9 -15.2 -48.9 -14.95 -48.85 -14.7 -48.8 -14.45 -48.7 -14.25 -48.6 -14.05 -48.5 -13.85 -48.4 -13.65 -48.25 -13.5 -48.1 -13.3 -47.95 -13.15 -47.75 -13.05 -47.55 -12.9 -47.35 -12.8 -47.1 -12.7 -46.85 -12.6 -46.6 -12.55 -46.35 -12.55 -46.3 -12.5 -46.2 -12.5 -46.15 -12.5 -46.05 -12.5 -46.0 -12.45 -45.9 -12.45 -45.85 -12.45 -45.8 -12.45 -45.7 -12.45 -45.65 -12.45 -45.55 -12.4 -45.5 -12.4 -45.45 -12.4 -45.35 -12.4 -45.3 -12.4 -45.2 -12.4 -45.15 -12.4 -45.1 -12.35 -45.05 -12.35 -45.0 -12.35 -44.95 -12.35 -44.9 -12.3 -44.85 -12.3 -44.8 -12.25 -44.75 -12.25 -44.7 -12.2 -44.65 -12.15 -44.65 -12.15 -44.6 -12.1 -44.55 -12.05 -44.5 -12.0 -44.5 -11.7 -44.35 -11.25 -44.05 -10.65 -43.7 -10.5 -43.6 -9.25 -42.9 -8.6 -42.55 L-8.6 -42.55 M3.55 -23.9 Q5.7 -23.9 5.8 -23.9 5.85 -23.9 5.95 -23.9 6.0 -23.95 6.05 -23.95 6.15 -23.95 6.2 -24.0 6.25 -24.0 6.35 -24.0 6.4 -24.05 6.45 -24.05 6.5 -24.1 6.6 -24.1 6.65 -24.15 6.7 -24.2 6.8 -24.2 6.85 -24.25 6.95 -24.3 7.05 -24.35 7.15 -24.4 7.2 -24.5 7.3 -24.55 7.35 -24.65 7.4 -24.7 7.4 -24.8 7.45 -24.9 7.45 -25.0 7.5 -25.1 7.45 -25.2 7.45 -25.3 7.45 -25.4 7.4 -25.5 7.4 -25.6 6.95 -26.75 6.9 -26.85 6.85 -27.05 6.8 -27.2 6.75 -27.4 6.75 -27.55 6.75 -27.75 6.75 -27.9 6.75 -28.1 6.8 -28.25 6.85 -28.4 6.9 -28.55 7.0 -28.7 7.1 -28.85 7.2 -29.0 7.3 -29.1 7.45 -29.25 7.6 -29.4 8.3 -30.0 8.45 -30.2 8.8 -30.55 9.1 -30.95 9.45 -31.3 9.7 -31.7 9.95 -32.1 10.2 -32.5 10.4 -32.95 10.55 -33.35 10.7 -33.8 10.8 -34.25 10.9 -34.7 10.95 -35.2 11.0 -35.65 11.0 -36.15 10.95 -36.65 10.9 -37.15 10.85 -37.6 10.7 -38.05 10.6 -38.5 10.5 -38.9 10.35 -39.35 10.2 -39.75 10.0 -40.15 9.8 -40.5 9.6 -40.9 9.4 -41.25 9.15 -41.65 8.85 -42.0 8.6 -42.3 8.25 -42.65 7.95 -42.95 7.6 -43.25 7.4 -43.45 7.15 -43.6 6.95 -43.75 6.7 -43.95 6.5 -44.1 6.25 -44.25 6.0 -44.4 5.8 -44.5 5.55 -44.65 5.3 -44.75 5.05 -44.85 4.8 -44.95 4.55 -45.05 4.25 -45.1 4.0 -45.2 3.7 -45.25 2.6 -45.45 0.05 -45.4 -1.25 -45.3 -1.35 -45.3 -1.65 -45.2 -1.95 -45.1 -2.25 -45.0 -2.5 -44.9 -2.8 -44.8 -3.05 -44.7 -3.35 -44.55 -3.6 -44.45 -3.9 -44.3 -4.15 -44.15 -4.45 -44.0 -4.7 -43.85 -4.95 -43.7 -5.2 -43.5 -5.45 -43.35 -5.7 -43.15 -6.0 -42.9 -6.25 -42.65 -6.55 -42.45 -6.8 -42.15 -7.05 -41.9 -7.25 -41.65 -7.5 -41.35 -7.7 -41.1 -7.9 -40.8 -8.1 -40.5 -8.3 -40.2 -8.45 -39.9 -8.6 -39.55 -8.75 -39.25 -8.9 -38.9 -9.05 -38.55 -9.2 -38.2 -9.3 -37.8 -9.4 -37.45 -9.5 -37.1 -9.6 -36.7 -9.65 -36.35 -9.7 -36.0 -9.75 -35.6 -9.8 -35.25 -9.8 -34.85 -9.8 -34.5 -9.75 -34.1 -9.75 -33.75 -9.65 -33.35 -9.6 -32.95 -9.5 -32.6 -9.45 -32.4 -9.4 -32.25 -9.3 -32.05 -9.25 -31.85 -9.2 -31.7 -9.1 -31.5 -9.0 -31.35 -8.9 -31.2 -8.85 -31.0 -8.75 -30.85 -8.6 -30.7 -8.5 -30.55 -8.4 -30.4 -8.25 -30.3 -8.1 -30.15 -7.95 -30.0 -7.7 -29.8 -7.05 -28.95 -6.95 -28.8 -6.85 -28.65 -6.75 -28.55 -6.7 -28.4 -6.65 -28.25 -6.6 -28.1 -6.55 -27.95 -6.5 -27.8 -6.5 -27.65 -6.5 -27.5 -6.5 -27.35 -6.55 -27.2 -6.55 -27.05 -6.6 -26.9 -6.65 -26.75 -6.7 -26.6 -6.75 -26.5 -6.75 -26.45 -6.8 -26.35 -6.85 -26.3 -6.85 -26.2 -6.9 -26.1 -6.95 -26.05 -7.0 -25.95 -7.0 -25.9 -7.05 -25.8 -7.1 -25.75 -7.1 -25.65 -7.15 -25.6 -7.2 -25.5 -7.25 -25.45 -7.3 -25.35 -7.3 -25.3 -7.35 -25.3 -7.35 -25.25 -7.35 -25.2 -7.35 -25.15 -7.35 -25.15 -7.35 -25.1 -7.35 -25.1 -7.35 -25.05 -7.3 -25.0 -7.3 -25.0 -7.3 -24.95 -7.25 -24.95 -7.25 -24.9 -7.2 -24.9 -7.15 -24.85 -6.55 -24.5 -6.45 -24.5 -6.3 -24.45 -6.15 -24.45 -6.05 -24.4 -5.9 -24.35 -5.75 -24.35 -5.6 -24.3 -5.45 -24.25 -5.3 -24.25 -5.2 -24.2 -5.05 -24.2 -4.9 -24.15 -4.75 -24.15 -4.6 -24.1 -4.45 -24.05 -4.35 -24.05 -4.2 -24.0 -3.95 -23.95 -3.45 -23.95 -2.95 -23.9 -2.75 -23.85 -2.75 -24.15 -2.7 -24.5 -2.65 -25.05 -2.65 -25.1 -2.65 -25.2 -2.6 -25.3 -2.6 -25.4 -2.55 -25.5 -2.5 -25.6 -2.4 -25.65 -2.35 -25.75 -2.25 -25.8 -2.15 -25.85 -2.1 -25.85 -2.0 -25.9 -1.9 -25.9 -1.8 -25.9 -1.7 -25.85 -1.6 -25.85 -1.5 -25.8 -1.45 -25.75 -1.4 -25.75 -1.35 -25.7 -1.3 -25.65 -1.25 -25.6 -1.25 -25.55 -1.2 -25.5 -1.15 -25.45 -1.15 -25.4 -1.1 -25.35 -1.1 -25.3 -1.1 -25.25 -1.1 -25.2 -1.1 -25.15 -1.05 -25.1 -1.05 -25.0 -1.1 -24.6 -1.15 -23.9 -0.1 -23.9 1.95 -23.9 1.95 -24.8 1.95 -25.15 1.95 -25.25 1.95 -25.35 2.0 -25.4 2.0 -25.5 2.05 -25.6 2.1 -25.65 2.15 -25.7 2.2 -25.8 2.25 -25.85 2.3 -25.9 2.4 -25.9 2.45 -25.95 2.55 -26.0 2.6 -26.0 2.7 -26.0 2.8 -26.0 2.9 -26.0 2.95 -25.95 3.05 -25.95 3.1 -25.9 3.2 -25.9 3.25 -25.85 3.3 -25.8 3.35 -25.7 3.4 -25.65 3.45 -25.6 3.5 -25.5 3.5 -25.4 3.55 -25.35 3.55 -25.25 3.55 -25.15 3.55 -25.05 3.55 -24.9 3.55 -23.9 L3.55 -23.9 M-10.55 -30.8 Q-10.65 -30.75 -10.8 -30.65 -11.05 -30.55 -11.6 -30.25 -12.15 -29.95 -12.45 -29.8 -12.7 -29.7 -12.9 -29.6 -13.15 -29.5 -13.35 -29.45 -13.6 -29.4 -13.8 -29.35 -14.05 -29.35 -14.25 -29.35 -14.5 -29.35 -14.75 -29.35 -14.95 -29.35 -15.2 -29.4 -15.4 -29.45 -15.65 -29.55 -15.9 -29.65 -16.1 -29.75 -16.2 -29.8 -16.3 -29.85 -16.45 -29.9 -16.55 -29.9 -16.65 -29.95 -16.8 -30.0 -16.9 -30.0 -17.0 -30.05 -17.1 -30.05 -17.25 -30.05 -17.35 -30.05 -17.45 -30.05 -17.6 -30.05 -17.7 -30.05 -17.85 -30.05 -17.95 -30.05 -18.05 -30.05 -18.15 -30.0 -18.25 -30.0 -18.35 -30.0 -18.45 -29.95 -18.5 -29.95 -18.6 -29.9 -18.7 -29.9 -18.8 -29.85 -18.9 -29.8 -18.95 -29.8 -19.05 -29.75 -19.15 -29.7 -19.2 -29.65 -19.3 -29.55 -19.4 -29.5 -19.5 -29.4 -19.55 -29.3 -19.65 -29.2 -19.7 -29.1 -19.75 -29.0 -19.75 -28.9 -19.75 -28.8 -19.75 -28.7 -19.75 -28.65 -19.7 -28.55 -19.65 -28.45 -19.55 -28.35 -19.5 -28.3 -19.4 -28.2 -19.3 -28.15 -19.2 -28.1 -19.15 -28.05 -18.85 -27.95 -18.65 -27.9 -18.5 -27.8 -18.35 -27.75 -18.2 -27.65 -18.05 -27.55 -17.9 -27.45 -17.75 -27.4 -17.6 -27.25 -17.5 -27.15 -17.35 -27.05 -17.25 -26.9 -17.15 -26.75 -17.05 -26.6 -16.95 -26.45 -16.85 -26.3 -16.8 -26.1 -16.8 -26.15 -16.7 -25.8 -16.6 -25.6 -16.6 -25.45 -16.5 -25.3 -16.45 -25.15 -16.4 -24.95 -16.4 -24.8 -16.35 -24.65 -16.3 -24.5 -16.25 -24.3 -16.25 -24.15 -16.25 -24.0 -16.25 -23.8 -16.2 -23.65 -16.25 -23.5 -16.25 -23.45 -16.25 -23.4 -16.25 -23.35 -16.25 -23.3 -16.25 -23.25 -16.25 -23.2 -16.2 -23.15 -16.2 -23.1 -16.2 -23.05 -16.2 -23.0 -16.2 -22.9 -16.15 -22.85 -16.15 -22.8 -16.1 -22.7 -16.1 -22.65 -16.05 -22.6 -16.0 -22.55 -15.95 -22.5 -15.9 -22.5 -15.85 -22.45 -15.8 -22.4 -15.75 -22.4 -15.65 -22.4 -15.6 -22.35 -15.5 -22.35 -15.45 -22.35 -15.3 -22.35 -15.2 -22.35 -15.1 -22.35 -15.0 -22.4 -14.85 -22.45 -14.75 -22.45 -14.65 -22.5 -14.6 -22.6 -14.5 -22.65 -14.4 -22.7 -14.35 -22.8 -14.3 -22.9 -14.2 -23.0 -14.15 -23.1 -14.1 -23.2 -14.05 -23.35 -14.05 -23.45 -14.0 -23.5 -14.0 -23.6 -14.0 -23.65 -13.95 -23.75 -13.95 -23.85 -13.95 -23.9 -13.9 -24.0 -13.9 -24.05 -13.9 -24.15 -13.9 -24.25 -13.9 -24.3 -13.85 -24.4 -13.85 -24.5 -13.85 -24.55 -13.85 -24.65 -13.85 -24.8 -13.8 -24.95 -13.8 -25.1 -13.75 -25.25 -13.7 -25.4 -13.65 -25.5 -13.6 -25.65 -13.55 -25.75 -13.45 -25.9 -13.4 -26.0 -13.3 -26.1 -13.2 -26.2 -13.1 -26.3 -12.95 -26.4 -12.85 -26.5 -12.7 -26.55 -11.3 -27.4 -9.4 -28.55 -9.3 -28.6 -9.0 -28.8 -9.1 -28.9 -9.25 -29.0 -9.35 -29.15 -9.45 -29.25 -9.55 -29.35 -9.65 -29.45 -9.8 -29.6 -9.85 -29.7 -9.95 -29.85 -10.05 -29.95 -10.15 -30.1 -10.25 -30.25 -10.3 -30.35 -10.4 -30.5 -10.45 -30.65 -10.55 -30.8 L-10.55 -30.8 M-9.55 -41.25 Q-9.6 -41.25 -9.8 -41.35 -10.4 -41.75 -11.4 -42.3 -12.7 -43.1 -13.0 -43.3 -13.1 -43.35 -13.2 -43.45 -13.3 -43.5 -13.4 -43.6 -13.5 -43.7 -13.55 -43.75 -13.6 -43.85 -13.65 -43.95 -13.75 -44.05 -13.8 -44.15 -13.8 -44.3 -13.85 -44.4 -13.9 -44.5 -13.9 -44.65 -13.95 -44.75 -13.95 -44.9 -14.15 -46.0 -14.3 -46.5 -14.35 -46.6 -14.4 -46.7 -14.45 -46.8 -14.5 -46.85 -14.55 -46.95 -14.65 -47.0 -14.7 -47.05 -14.8 -47.1 -14.9 -47.15 -15.0 -47.2 -15.05 -47.25 -15.2 -47.25 -15.3 -47.3 -15.4 -47.3 -15.5 -47.3 -15.6 -47.3 -15.7 -47.3 -15.75 -47.3 -15.85 -47.25 -15.9 -47.25 -15.95 -47.2 -16.0 -47.2 -16.1 -47.15 -16.1 -47.1 -16.15 -47.05 -16.2 -47.0 -16.25 -46.95 -16.3 -46.9 -16.3 -46.85 -16.3 -46.75 -16.35 -46.7 -16.35 -46.6 -16.35 -46.5 -16.35 -46.3 -16.35 -46.0 -16.35 -45.95 -16.35 -45.9 -16.35 -45.85 -16.35 -45.8 -16.35 -45.75 -16.35 -45.7 -16.35 -45.65 -16.35 -45.55 -16.35 -45.55 -16.4 -45.45 -16.4 -45.4 -16.4 -45.35 -16.4 -45.3 -16.4 -45.25 -16.4 -45.2 -16.4 -45.15 -16.45 -45.1 -16.5 -44.8 -16.75 -44.2 -16.95 -43.6 -17.0 -43.3 -17.05 -43.2 -17.1 -43.05 -17.15 -42.95 -17.2 -42.85 -17.25 -42.75 -17.3 -42.65 -17.4 -42.6 -17.45 -42.5 -17.55 -42.4 -17.65 -42.35 -17.7 -42.3 -17.8 -42.2 -17.9 -42.15 -18.0 -42.1 -18.1 -42.05 -18.2 -42.0 -18.35 -41.9 -19.2 -41.5 -19.35 -41.45 -19.45 -41.35 -19.55 -41.3 -19.6 -41.2 -19.7 -41.1 -19.75 -41.0 -19.75 -40.95 -19.8 -40.85 -19.8 -40.7 -19.75 -40.6 -19.75 -40.5 -19.7 -40.4 -19.65 -40.3 -19.55 -40.2 -19.5 -40.1 -19.35 -40.05 -19.3 -40.0 -19.3 -40.0 -19.25 -39.95 -19.2 -39.95 -19.2 -39.9 -19.15 -39.9 -19.1 -39.85 -19.05 -39.85 -19.0 -39.85 -19.0 -39.8 -18.95 -39.8 -18.9 -39.75 -18.85 -39.75 -18.8 -39.75 -18.8 -39.7 -18.75 -39.7 -18.6 -39.65 -18.45 -39.6 -18.35 -39.6 -18.2 -39.55 -18.05 -39.55 -17.9 -39.55 -17.8 -39.55 -17.65 -39.55 -17.5 -39.55 -17.35 -39.55 -17.25 -39.55 -17.1 -39.6 -16.95 -39.6 -16.8 -39.65 -16.7 -39.7 -16.55 -39.75 -16.2 -39.85 -15.45 -40.15 -15.3 -40.2 -15.2 -40.25 -15.05 -40.25 -14.95 -40.3 -14.8 -40.3 -14.7 -40.35 -14.55 -40.35 -14.4 -40.35 -14.3 -40.35 -14.15 -40.35 -14.05 -40.35 -13.9 -40.35 -13.75 -40.3 -13.65 -40.25 -13.5 -40.25 -13.4 -40.2 -12.8 -40.0 -11.35 -39.35 -11.25 -39.3 -10.65 -39.0 -10.3 -39.75 -9.55 -41.25 L-9.55 -41.25 M10.9 -30.55 Q10.35 -29.95 9.25 -28.7 9.85 -28.3 11.05 -27.55 12.25 -26.8 12.85 -26.45 12.95 -26.4 13.05 -26.3 13.15 -26.25 13.25 -26.15 13.3 -26.1 13.4 -26.0 13.45 -25.9 13.5 -25.8 13.6 -25.7 13.65 -25.6 13.7 -25.5 13.7 -25.4 13.75 -25.3 13.8 -25.2 13.8 -25.05 13.8 -24.95 13.8 -24.85 13.85 -24.6 13.85 -24.4 13.9 -24.25 13.9 -24.15 13.95 -24.1 13.95 -24.0 13.95 -23.95 13.95 -23.85 14.0 -23.8 14.0 -23.7 14.0 -23.65 14.05 -23.55 14.05 -23.5 14.1 -23.4 14.1 -23.35 14.15 -23.25 14.15 -23.2 14.2 -23.1 14.2 -23.05 14.25 -22.95 14.25 -22.9 14.3 -22.85 14.35 -22.8 14.4 -22.7 14.45 -22.65 14.5 -22.6 14.55 -22.6 14.65 -22.55 14.7 -22.5 14.75 -22.45 14.85 -22.45 14.9 -22.4 14.95 -22.4 15.05 -22.4 15.1 -22.35 15.25 -22.35 15.35 -22.35 15.45 -22.35 15.55 -22.35 15.7 -22.35 15.75 -22.4 15.85 -22.45 15.9 -22.5 16.0 -22.55 16.05 -22.65 16.1 -22.7 16.15 -22.8 16.2 -22.9 16.2 -23.0 16.2 -23.15 16.25 -23.25 16.25 -24.0 16.25 -24.25 16.25 -24.4 16.3 -24.5 16.3 -24.65 16.35 -24.75 16.4 -24.9 16.4 -25.0 16.45 -25.15 16.5 -25.25 16.55 -25.4 16.6 -25.5 16.65 -25.65 16.7 -25.75 16.7 -25.85 16.8 -26.0 16.85 -26.25 16.9 -26.25 16.95 -26.35 16.95 -26.4 17.0 -26.5 17.05 -26.6 17.1 -26.65 17.1 -26.75 17.15 -26.8 17.2 -26.9 17.25 -26.95 17.3 -27.0 17.35 -27.1 17.45 -27.15 17.5 -27.2 17.55 -27.25 17.65 -27.3 17.7 -27.35 18.0 -27.5 18.75 -27.9 18.85 -27.95 19.05 -28.05 19.25 -28.1 19.35 -28.15 19.4 -28.2 19.5 -28.25 19.55 -28.3 19.6 -28.35 19.65 -28.4 19.65 -28.5 19.7 -28.55 19.7 -28.6 19.75 -28.7 19.75 -28.75 19.75 -28.85 19.75 -28.9 19.7 -28.95 19.7 -29.05 19.65 -29.1 19.6 -29.2 19.6 -29.25 19.55 -29.25 19.55 -29.3 19.5 -29.35 19.45 -29.4 19.45 -29.4 19.4 -29.45 19.35 -29.5 19.35 -29.5 19.3 -29.55 19.25 -29.55 19.25 -29.6 19.2 -29.65 19.15 -29.65 19.1 -29.7 19.1 -29.7 18.95 -29.8 18.8 -29.85 18.65 -29.9 18.45 -29.95 18.3 -30.0 18.15 -30.05 18.0 -30.05 17.85 -30.05 17.7 -30.05 17.5 -30.05 17.35 -30.05 17.2 -30.05 17.05 -30.0 16.85 -30.0 16.7 -29.95 16.55 -29.9 16.2 -29.8 15.55 -29.55 15.4 -29.5 15.25 -29.45 15.15 -29.4 15.0 -29.4 14.85 -29.35 14.7 -29.35 14.55 -29.3 14.45 -29.3 14.3 -29.3 14.15 -29.3 14.0 -29.35 13.85 -29.35 13.7 -29.4 13.55 -29.4 13.45 -29.45 13.3 -29.5 12.8 -29.7 12.1 -30.0 10.95 -30.5 10.9 -30.55 L10.9 -30.55 M11.95 -39.7 Q12.1 -39.75 12.4 -39.85 12.75 -40.0 12.85 -40.05 13.0 -40.1 13.1 -40.1 13.2 -40.15 13.3 -40.2 13.45 -40.25 13.55 -40.25 13.7 -40.3 13.8 -40.3 13.9 -40.35 14.05 -40.35 14.15 -40.35 14.25 -40.35 14.4 -40.35 14.5 -40.35 14.65 -40.35 14.75 -40.3 14.85 -40.3 14.9 -40.25 15.0 -40.25 15.1 -40.2 15.15 -40.2 15.25 -40.2 15.35 -40.15 15.45 -40.15 15.5 -40.1 15.6 -40.05 15.7 -40.05 15.75 -40.0 15.85 -40.0 15.95 -39.95 16.0 -39.9 16.1 -39.9 16.2 -39.85 16.3 -39.8 16.45 -39.75 16.55 -39.75 16.65 -39.7 16.75 -39.65 16.9 -39.65 17.0 -39.6 17.1 -39.6 17.25 -39.55 17.35 -39.55 17.45 -39.55 17.6 -39.55 17.7 -39.55 17.8 -39.55 17.95 -39.55 18.05 -39.55 18.15 -39.55 18.25 -39.6 18.35 -39.6 18.45 -39.6 18.5 -39.65 18.6 -39.65 18.7 -39.7 18.8 -39.7 18.9 -39.75 18.95 -39.8 19.05 -39.85 19.15 -39.9 19.25 -39.95 19.3 -40.0 19.4 -40.05 19.5 -40.15 19.6 -40.25 19.65 -40.35 19.7 -40.45 19.75 -40.55 19.75 -40.65 19.8 -40.75 19.8 -40.85 19.75 -40.95 19.75 -41.0 19.7 -41.1 19.6 -41.2 19.55 -41.3 19.45 -41.35 19.35 -41.45 19.2 -41.5 19.15 -41.55 18.95 -41.6 18.75 -41.7 18.6 -41.75 18.4 -41.85 18.25 -41.95 18.1 -42.05 17.95 -42.15 17.8 -42.25 17.65 -42.35 17.5 -42.45 17.4 -42.6 17.3 -42.75 17.2 -42.9 17.1 -43.05 17.0 -43.25 16.9 -43.4 16.85 -43.6 16.9 -43.45 16.75 -43.9 16.7 -44.1 16.65 -44.25 16.6 -44.4 16.55 -44.55 16.5 -44.7 16.5 -44.85 16.45 -45.0 16.4 -45.15 16.4 -45.35 16.4 -45.5 16.35 -45.65 16.35 -45.8 16.35 -46.0 16.35 -46.15 16.35 -46.2 16.35 -46.2 16.35 -46.25 16.35 -46.3 16.35 -46.3 16.35 -46.35 16.35 -46.4 16.35 -46.4 16.35 -46.45 16.35 -46.5 16.35 -46.5 16.35 -46.55 16.35 -46.55 16.35 -46.6 16.35 -46.65 16.35 -46.65 16.35 -46.7 16.35 -46.75 16.3 -46.8 16.3 -46.85 16.3 -46.9 16.25 -46.95 16.25 -47.0 16.2 -47.0 16.15 -47.05 16.15 -47.1 16.1 -47.1 16.05 -47.15 16.0 -47.15 15.95 -47.2 15.95 -47.2 15.9 -47.25 15.8 -47.3 15.7 -47.3 15.6 -47.3 15.45 -47.3 15.35 -47.3 15.25 -47.3 15.15 -47.25 15.05 -47.2 14.9 -47.2 14.85 -47.1 14.75 -47.05 14.65 -47.0 14.55 -46.9 14.5 -46.85 14.4 -46.75 14.35 -46.65 14.3 -46.55 14.25 -46.5 14.25 -46.4 14.2 -46.35 14.15 -46.25 14.15 -46.15 14.1 -46.1 14.1 -46.0 14.05 -45.9 14.05 -45.8 14.05 -45.75 14.0 -45.65 14.0 -45.55 14.0 -45.45 14.0 -45.4 14.0 -45.3 14.0 -45.1 13.95 -44.95 13.95 -44.75 13.9 -44.6 13.85 -44.4 13.8 -44.25 13.75 -44.1 13.65 -43.95 13.55 -43.8 13.45 -43.7 13.35 -43.55 13.25 -43.45 13.1 -43.35 12.95 -43.25 12.8 -43.1 12.65 -43.05 12.4 -42.9 12.05 -42.7 11.55 -42.4 11.45 -42.3 11.25 -42.2 10.9 -42.0 11.25 -41.2 11.95 -39.7 L11.95 -39.7" fill="#000000" fill-rule="evenodd" stroke="none"/>
    <path d="M-4.25 -35.15 Q-3.9 -35.45 -3.8 -35.55 -3.7 -35.65 -3.55 -35.7 -3.45 -35.75 -3.3 -35.8 -3.2 -35.8 -3.05 -35.85 -2.95 -35.85 -2.85 -35.85 -2.7 -35.85 -2.6 -35.8 -2.5 -35.75 -2.4 -35.7 -2.3 -35.65 -2.2 -35.6 -2.15 -35.5 -2.05 -35.4 -2.0 -35.35 -1.95 -35.25 -1.9 -35.2 -1.9 -35.15 -1.85 -35.05 -1.85 -35.0 -1.85 -34.9 -1.8 -34.85 -1.8 -34.75 -1.8 -34.7 -1.8 -34.6 -1.8 -34.55 -1.85 -34.45 -1.85 -34.4 -1.85 -34.3 -1.9 -34.2 -1.95 -34.0 -2.0 -33.85 -2.05 -33.65 -2.15 -33.5 -2.2 -33.35 -2.3 -33.15 -2.4 -33.0 -2.5 -32.85 -2.6 -32.7 -2.7 -32.55 -2.8 -32.4 -2.9 -32.25 -3.05 -32.1 -3.15 -31.95 -3.3 -31.8 -3.4 -31.7 -3.45 -31.65 -3.45 -31.6 -3.5 -31.6 -3.55 -31.55 -3.6 -31.5 -3.6 -31.45 -3.65 -31.45 -3.7 -31.4 -3.75 -31.35 -3.75 -31.35 -3.8 -31.3 -3.85 -31.25 -3.9 -31.25 -3.9 -31.2 -3.95 -31.2 -4.0 -31.15 -4.05 -31.1 -4.1 -31.05 -4.15 -31.05 -4.25 -31.0 -4.3 -31.0 -4.35 -31.0 -4.4 -30.95 -4.45 -30.95 -4.55 -30.95 -4.6 -30.95 -4.65 -31.0 -4.7 -31.0 -4.8 -31.05 -4.85 -31.05 -4.9 -31.1 -4.95 -31.15 -5.1 -31.3 -5.25 -31.4 -5.4 -31.55 -5.55 -31.65 -5.7 -31.8 -5.85 -31.95 -6.0 -32.1 -6.1 -32.25 -6.25 -32.4 -6.35 -32.55 -6.5 -32.7 -6.6 -32.85 -6.75 -33.05 -6.85 -33.2 -6.95 -33.4 -7.0 -33.55 -7.05 -33.65 -7.1 -33.75 -7.15 -33.85 -7.15 -33.9 -7.2 -34.0 -7.2 -34.1 -7.25 -34.2 -7.25 -34.3 -7.25 -34.4 -7.25 -34.45 -7.25 -34.55 -7.25 -34.65 -7.2 -34.75 -7.2 -34.85 -7.15 -34.95 -7.15 -35.05 -7.1 -35.2 -7.0 -35.3 -6.9 -35.45 -6.8 -35.55 -6.7 -35.65 -6.6 -35.7 -6.45 -35.8 -6.35 -35.85 -6.2 -35.85 -6.05 -35.9 -5.95 -35.9 -5.8 -35.9 -5.65 -35.9 -5.5 -35.85 -5.35 -35.8 -5.2 -35.75 -5.2 -35.75 -4.25 -35.15 L-4.25 -35.15" fill="#000000" fill-rule="evenodd" stroke="none"/>
    <path d="M6.25 -33.3 Q6.7 -32.85 7.2 -32.35 7.25 -32.3 7.35 -32.2 7.4 -32.15 7.4 -32.1 7.45 -32.0 7.5 -31.95 7.5 -31.85 7.5 -31.8 7.55 -31.7 7.5 -31.65 7.5 -31.55 7.5 -31.5 7.45 -31.4 7.4 -31.35 7.4 -31.25 7.35 -31.2 7.3 -31.15 7.2 -31.1 7.15 -31.05 7.1 -31.0 7.0 -31.0 6.95 -30.95 6.85 -30.95 6.8 -30.95 6.7 -30.95 6.6 -30.95 6.55 -30.95 6.45 -31.0 6.4 -31.0 6.3 -31.05 6.25 -31.1 6.15 -31.15 5.95 -31.35 5.7 -31.65 5.55 -31.8 5.2 -32.15 5.05 -32.0 4.8 -31.7 4.5 -31.35 4.4 -31.25 4.35 -31.2 4.3 -31.15 4.2 -31.1 4.15 -31.05 4.1 -31.0 4.0 -30.95 3.95 -30.95 3.85 -30.95 3.8 -30.9 3.7 -30.95 3.65 -30.95 3.55 -30.95 3.5 -30.95 3.4 -31.0 3.35 -31.05 3.3 -31.1 3.25 -31.15 3.15 -31.2 3.1 -31.25 3.1 -31.3 3.05 -31.4 3.0 -31.45 3.0 -31.55 2.95 -31.6 2.95 -31.7 2.95 -31.75 2.95 -31.85 3.0 -31.9 3.0 -32.0 3.05 -32.05 3.1 -32.15 3.15 -32.2 3.2 -32.3 3.6 -32.75 3.75 -32.9 4.1 -33.3 4.05 -33.35 3.95 -33.45 3.9 -33.5 3.8 -33.6 3.75 -33.65 3.65 -33.75 3.6 -33.8 3.55 -33.9 3.45 -33.95 3.4 -34.05 3.35 -34.1 3.25 -34.2 3.2 -34.25 3.1 -34.35 3.05 -34.4 3.0 -34.5 2.95 -34.55 2.9 -34.6 2.85 -34.65 2.85 -34.7 2.8 -34.75 2.8 -34.8 2.8 -34.9 2.75 -34.95 2.75 -35.0 2.75 -35.05 2.75 -35.1 2.8 -35.2 2.8 -35.25 2.8 -35.3 2.85 -35.35 2.85 -35.4 2.9 -35.45 2.9 -35.5 2.95 -35.55 3.0 -35.6 3.05 -35.65 3.1 -35.7 3.15 -35.7 3.2 -35.75 3.25 -35.8 3.35 -35.8 3.4 -35.8 3.45 -35.8 3.5 -35.8 3.55 -35.8 3.65 -35.8 3.7 -35.8 3.75 -35.8 3.75 -35.75 3.8 -35.75 3.85 -35.75 3.9 -35.7 3.9 -35.7 3.95 -35.7 4.0 -35.65 4.05 -35.65 4.05 -35.6 4.1 -35.6 4.15 -35.55 4.15 -35.55 4.2 -35.5 4.2 -35.5 4.25 -35.45 4.3 -35.4 5.2 -34.45 5.4 -34.7 6.0 -35.4 6.05 -35.45 6.1 -35.55 6.2 -35.6 6.25 -35.65 6.3 -35.7 6.4 -35.7 6.45 -35.75 6.55 -35.75 6.6 -35.75 6.7 -35.75 6.75 -35.75 6.85 -35.75 6.9 -35.7 7.0 -35.7 7.05 -35.65 7.1 -35.6 7.15 -35.55 7.25 -35.5 7.3 -35.4 7.35 -35.35 7.35 -35.3 7.4 -35.2 7.4 -35.1 7.45 -35.05 7.45 -34.95 7.45 -34.9 7.4 -34.8 7.4 -34.75 7.35 -34.65 7.35 -34.55 7.3 -34.5 7.25 -34.4 6.7 -33.8 6.25 -33.3 L6.25 -33.3" fill="#000000" fill-rule="evenodd" stroke="none"/>
  </g>
</svg>
