<?xml version="1.0" encoding="UTF-8" standalone="no"?>
<svg xmlns:xlink="http://www.w3.org/1999/xlink" height="42.55px" width="29.2px" xmlns="http://www.w3.org/2000/svg">
  <g transform="matrix(1.0, 0.0, 0.0, 1.0, 14.6, 21.25)">
    <path d="M-12.15 -16.9 Q-12.25 -16.8 -12.4 -16.65 -12.5 -16.55 -12.65 -16.4 -12.8 -16.2 -12.95 -16.05 -13.1 -15.85 -13.25 -15.65 -13.4 -15.4 -13.55 -15.2 -13.7 -14.9 -13.85 -14.65 -13.95 -14.35 -14.1 -14.1 -14.2 -13.75 -14.3 -13.45 -14.4 -13.2 -14.45 -12.95 -14.5 -12.7 -14.55 -12.45 -14.6 -12.2 -14.6 -12.0 -14.65 -11.75 -14.65 -11.55 -14.65 -11.35 -14.65 -11.15 -14.65 -10.95 -14.65 -10.8 -14.65 -10.6 -14.65 -10.45 -14.6 -10.3 -14.6 -10.2 -14.65 -10.15 -14.7 -10.05 -14.75 -10.0 -14.75 -9.9 -14.8 -9.8 -14.85 -9.7 -14.9 -9.6 -14.95 -9.55 -15.0 -9.4 -15.05 -9.3 -15.05 -9.2 -15.1 -9.1 -15.15 -8.95 -15.2 -8.85 -15.2 -8.7 -15.25 -8.55 -15.25 -8.6 -15.25 -8.45 -15.25 -8.4 -15.3 -8.3 -15.3 -8.25 -15.3 -8.15 -15.3 -8.0 -15.3 -7.9 -15.3 -7.75 -15.3 -7.6 -15.25 -7.45 -15.25 -7.3 -15.25 -7.1 -15.2 -6.95 -15.15 -6.75 -15.1 -6.55 -15.0 -6.2 -14.9 -5.85 -14.8 -5.55 -14.65 -5.25 -14.55 -4.95 -14.4 -4.7 -14.25 -4.45 -14.1 -4.2 -14.0 -4.0 -13.85 -3.8 -13.7 -3.65 -13.6 -3.5 -13.5 -3.35 -13.4 -3.25 -13.3 -3.15 -13.25 -3.1 -13.0 -2.85 -12.7 -2.6 -12.45 -2.4 -12.2 -2.2 -11.95 -2.0 -11.65 -1.85 -11.4 -1.7 -11.15 -1.55 -10.9 -1.45 -10.65 -1.35 -10.45 -1.25 -10.2 -1.15 -10.05 -1.1 -9.85 -1.0 -9.7 -0.95 -9.5 -0.9 -9.35 -0.85 -9.3 -0.85 -9.15 -0.8 -9.0 -0.75 -8.8 -0.75 -8.6 -0.7 -8.35 -0.65 -8.1 -0.6 -7.8 -0.6 -7.5 -0.55 -7.2 -0.55 -6.85 -0.5 -6.5 -0.5 -6.15 -0.55 -5.75 -0.55 -5.4 -0.6 -5.25 -0.6 -5.1 -0.65 -4.9 -0.7 -4.65 -0.75 -4.3 -0.8 -4.0 -0.9 -3.6 -1.0 -3.25 -1.15 -2.8 -1.3 -2.4 -1.45 -1.9 -1.7 -1.45 -1.95 -1.0 -2.2 -0.55 -2.55 -0.05 -2.9 0.4 -3.3 0.6 -3.5 0.8 -3.7 0.95 -3.85 1.1 -4.05 1.25 -4.2 1.35 -4.35 1.5 -4.5 1.55 -4.65 1.65 -4.8 1.75 -4.95 1.8 -5.05 1.85 -5.15 1.9 -5.25 1.95 -5.35 1.95 -5.45 2.0 -5.5 2.05 -5.65 2.1 -5.8 2.15 -5.95 2.2 -6.1 2.2 -6.25 2.25 -6.4 2.25 -6.55 2.25 -6.7 2.3 -6.8 2.3 -6.95 2.3 -7.05 2.3 -7.2 2.3 -7.3 2.3 -7.4 2.3 -7.5 2.3 -7.6 2.3 -7.85 2.3 -8.05 2.25 -8.3 2.25 -8.5 2.2 -8.75 2.15 -8.95 2.1 -9.15 2.05 -9.35 2.0 -9.55 1.95 -9.7 1.9 -9.9 1.85 -10.05 1.8 -10.2 1.7 -10.4 1.65 -10.55 1.6 -10.7 1.65 -11.7 1.6 -12.35 1.55 -12.6 1.55 -12.7 1.55 -12.9 1.5 -13.1 1.45 -13.35 1.45 -13.55 1.4 -13.8 1.3 -14.0 1.25 -14.25 1.15 -14.5 1.1 -14.75 0.95 -15.0 0.85 -15.25 0.7 -15.5 0.55 -15.75 0.4 -16.0 0.25 -16.2 0.15 -16.35 0.0 -16.5 -0.1 -16.65 -0.2 -16.75 -0.3 -16.85 -0.35 -16.95 -0.45 -17.0 -0.5 -17.1 -0.55 -17.15 -0.6 -17.15 -0.65 -17.2 -0.7 -17.25 -0.75 -17.25 -0.8 -17.25 -0.85 -17.25 -0.95 -17.25 -1.05 -17.25 -1.15 -17.25 -1.25 -17.25 -1.35 -17.25 -1.45 -17.2 -1.55 -17.15 -1.65 -17.15 -1.7 -17.1 -1.8 -17.05 -1.85 -17.0 -1.9 -16.95 -1.95 -16.95 -2.05 -16.9 -2.05 -16.85 -2.1 -16.85 -2.2 -16.8 -2.95 -15.9 -3.0 -15.85 -3.05 -15.75 -3.1 -15.7 -3.15 -15.65 -3.2 -15.6 -3.25 -15.55 -3.3 -15.45 -3.35 -15.4 -3.4 -15.35 -3.45 -15.3 -3.5 -15.3 -3.5 -15.25 -3.55 -15.2 -3.6 -15.15 -3.65 -15.1 -3.65 -15.1 -3.8 -15.1 -4.3 -15.15 -4.7 -15.15 -4.95 -15.15 -5.25 -15.15 -5.55 -15.15 -5.85 -15.15 -6.15 -15.15 -6.4 -15.15 -6.7 -15.15 -7.0 -15.1 -7.25 -15.1 -7.5 -15.05 -7.8 -15.05 -8.05 -15.0 -8.3 -14.95 -8.55 -14.95 -8.8 -14.9 -9.05 -14.85 -9.3 -14.8 -10.25 -15.5 -12.15 -16.9 L-12.15 -16.9" fill="#52e225" fill-rule="evenodd" stroke="none"/>
  </g>
</svg>
