<?xml version="1.0" encoding="UTF-8" standalone="no"?>
<svg xmlns:xlink="http://www.w3.org/1999/xlink" height="200.0px" width="100.0px" xmlns="http://www.w3.org/2000/svg">
  <g transform="matrix(1.0, 0.0, 0.0, 1.0, 50.0, 100.0)">
    <path d="M-27.2 -12.0 Q-27.05 -11.5 -26.95 -10.95 -26.8 -10.4 -26.6 -9.9 -26.45 -9.3 -26.25 -8.75 -26.05 -8.15 -25.85 -7.55 -25.65 -6.9 -25.4 -6.3 -25.15 -5.65 -24.85 -5.0 -24.55 -4.35 -24.25 -3.7 -23.95 -3.0 -23.6 -2.35 -23.25 -1.7 -22.9 -1.05 -22.55 -0.4 -22.15 0.2 -21.8 0.8 -21.45 1.4 -21.1 1.95 -20.7 2.45 -20.35 3.0 -20.0 3.5 -19.65 3.95 -19.3 4.45 -18.95 4.85 -18.6 5.3 -18.25 5.7 -17.9 6.1 -17.85 6.1 -17.8 6.1 -17.75 6.1 -17.7 6.05 -17.65 6.05 -17.55 6.05 -17.5 6.05 -17.45 6.05 -17.35 6.0 -17.3 6.0 -17.25 6.0 -17.15 5.95 -17.1 5.95 -17.0 5.9 -16.9 5.9 -16.85 5.85 -16.55 5.75 -16.25 5.6 -15.95 5.45 -15.7 5.3 -15.45 5.1 -15.2 4.95 -15.0 4.75 -14.8 4.55 -14.6 4.35 -14.45 4.2 -14.3 4.0 -14.15 3.8 -14.05 3.7 -13.95 3.5 -13.9 3.45 -13.8 3.25 -13.05 2.15 -12.55 1.5 -12.15 1.0 -11.9 0.8 -11.75 0.7 -11.6 0.75 -11.85 0.65 -11.5 0.85 -11.4 0.9 -11.25 0.75 -11.1 0.6 -10.75 0.05 -10.4 -0.5 -9.8 -1.65 -9.15 -2.85 -8.1 -4.8 -7.65 -5.65 -7.2 -6.5 -6.75 -7.35 -6.3 -8.25 -5.85 -9.1 -5.45 -9.95 -5.0 -10.8 -4.55 -11.65 -4.15 -12.5 -3.7 -13.35 -3.3 -14.2 -2.85 -15.05 -2.45 -15.9 -2.05 -16.8 -1.65 -17.65 -1.2 -18.5 -2.1 -18.9 -3.9 -19.8 -4.05 -19.7 -4.15 -19.55 -4.3 -19.4 -4.45 -19.3 -4.6 -19.15 -4.8 -19.0 -4.95 -18.85 -5.15 -18.7 -5.35 -18.55 -5.55 -18.4 -5.75 -18.25 -5.95 -18.1 -6.2 -17.9 -6.4 -17.75 -6.65 -17.6 -6.9 -17.4 -7.55 -16.95 -8.25 -16.55 -8.95 -16.2 -9.6 -15.85 -10.25 -15.55 -10.95 -15.25 -11.6 -15.0 -12.3 -14.75 -13.0 -14.55 -13.7 -14.3 -14.35 -14.15 -15.1 -13.95 -15.75 -13.8 -16.5 -13.6 -17.05 -13.5 -18.0 -13.3 -18.45 -13.2 -18.9 -13.1 -19.4 -13.0 -19.85 -12.9 -20.4 -12.8 -20.9 -12.7 -21.45 -12.6 -22.05 -12.55 -22.6 -12.45 -23.2 -12.35 -23.85 -12.3 -24.5 -12.2 -25.15 -12.15 -25.8 -12.1 -26.5 -12.0 -27.2 -12.0 L-27.2 -12.0" fill="#1ca1cd" fill-rule="evenodd" stroke="none"/>
    <path d="M-0.2 -18.2 Q-0.05 -17.6 0.15 -17.0 0.35 -16.35 0.55 -15.75 0.75 -15.1 0.95 -14.5 1.15 -13.85 1.4 -13.2 1.6 -12.55 1.85 -11.9 2.1 -11.2 2.35 -10.55 2.6 -9.9 2.9 -9.2 3.15 -8.5 3.45 -7.85 3.85 -6.95 4.25 -6.0 4.65 -5.1 5.05 -4.25 5.45 -3.4 5.85 -2.5 6.3 -1.7 6.7 -0.85 7.1 -0.05 7.55 0.7 7.95 1.5 8.35 2.25 8.8 3.0 9.2 3.7 9.6 4.4 10.05 5.1 10.2 5.1 10.35 5.1 10.5 5.1 10.65 5.1 10.85 5.1 11.0 5.1 11.2 5.1 11.35 5.1 11.55 5.1 11.75 5.05 12.0 5.05 12.2 5.0 12.4 5.0 12.65 4.95 12.85 4.9 13.1 4.85 13.5 4.75 13.9 4.65 14.3 4.55 14.7 4.4 15.15 4.25 15.55 4.0 16.05 3.75 16.5 3.5 17.0 3.15 17.55 2.75 18.1 2.35 18.75 1.85 19.35 1.35 20.05 0.75 20.75 0.1 21.55 -0.65 21.9 -1.0 22.3 -1.35 22.7 -1.75 23.05 -2.15 23.5 -2.6 23.9 -3.0 24.3 -3.5 24.75 -3.95 25.2 -4.45 25.65 -4.95 26.1 -5.5 26.55 -6.0 27.0 -6.6 27.45 -7.15 27.95 -7.75 28.4 -8.4 27.85 -8.6 27.25 -8.8 26.7 -9.0 26.2 -9.2 25.65 -9.35 25.15 -9.55 24.65 -9.75 24.2 -9.9 23.7 -10.1 23.25 -10.25 22.85 -10.4 22.4 -10.55 22.05 -10.7 21.65 -10.85 21.3 -11.0 20.9 -11.15 11.1 -14.9 7.2 -17.35 6.85 -17.55 6.5 -17.8 6.2 -18.0 5.85 -18.2 5.55 -18.4 5.25 -18.65 5.0 -18.8 4.7 -19.0 4.45 -19.2 4.2 -19.4 4.0 -19.55 3.75 -19.75 3.55 -19.9 3.35 -20.05 3.15 -20.2 3.0 -20.35 1.9 -19.6 -0.2 -18.2 L-0.2 -18.2" fill="#1ca1cd" fill-rule="evenodd" stroke="none"/>
    <path d="M-0.2 -19.55 Q-0.45 -19.55 -0.5 -19.55 -0.7 -19.55 -0.85 -19.5 -1.05 -19.5 -1.25 -19.55 -1.45 -19.55 -1.65 -19.55 -1.9 -19.6 -2.1 -19.65 -2.3 -19.7 -2.55 -19.8 -2.75 -19.85 -2.95 -20.0 -3.15 -20.1 -3.35 -20.25 -3.45 -20.3 -3.5 -20.4 -3.6 -20.45 -3.65 -20.6 -3.75 -20.7 -3.85 -20.9 -3.95 -21.1 -4.05 -21.35 -4.15 -21.65 -4.2 -22.0 -4.3 -22.4 -4.4 -22.9 -4.45 -23.4 -4.55 -24.0 -4.6 -24.7 -4.65 -25.45 -4.7 -26.2 -4.75 -26.6 -4.75 -27.2 -4.8 -27.65 -4.8 -28.15 -4.8 -28.55 -4.8 -28.95 -4.8 -29.3 -4.75 -29.7 -4.7 -30.0 -4.65 -30.35 -4.55 -30.6 -4.5 -30.9 -4.35 -31.15 -4.25 -31.45 -4.05 -31.65 -3.9 -31.85 -3.75 -32.05 -3.55 -32.2 -3.4 -32.35 -3.2 -32.5 -3.05 -32.65 -2.85 -32.8 -2.7 -32.9 -2.5 -33.0 -2.35 -33.1 -2.15 -33.15 -2.0 -33.25 -1.85 -33.3 -1.65 -33.4 -1.55 -33.45 -1.35 -33.5 -1.0 -33.65 -0.65 -33.75 -0.25 -33.85 0.15 -33.95 0.55 -34.0 1.0 -34.05 1.4 -34.1 1.8 -34.05 2.25 -34.05 2.65 -34.0 3.05 -33.9 3.4 -33.8 3.8 -33.65 4.1 -33.45 4.45 -33.25 4.7 -32.95 4.8 -32.85 4.85 -32.75 4.95 -32.65 5.0 -32.55 5.05 -32.45 5.1 -32.35 5.15 -32.3 5.2 -32.2 5.25 -32.1 5.25 -32.05 5.3 -31.95 5.3 -31.9 5.35 -31.85 5.35 -31.8 5.35 -31.75 5.35 -31.75 5.4 -31.55 5.45 -31.4 5.45 -31.2 5.45 -31.05 5.45 -30.9 5.45 -30.7 5.45 -30.55 5.4 -30.4 5.35 -30.25 5.3 -30.05 5.25 -29.9 5.2 -29.7 5.2 -29.6 5.1 -29.35 5.05 -29.1 5.0 -29.0 4.9 -28.7 4.3 -25.55 4.2 -24.95 4.1 -24.4 4.0 -23.95 3.95 -23.55 3.9 -23.25 3.85 -22.85 3.8 -22.45 3.8 -22.35 3.75 -22.1 3.75 -22.0 3.7 -21.8 3.65 -21.7 3.6 -21.55 3.55 -21.45 3.5 -21.3 3.4 -21.15 3.2 -20.9 2.95 -20.7 2.7 -20.5 2.45 -20.3 2.2 -20.15 1.9 -20.05 1.65 -19.95 1.35 -19.85 1.1 -19.75 0.85 -19.7 0.65 -19.65 0.4 -19.65 0.2 -19.6 0.05 -19.6 -0.05 -19.55 -0.2 -19.55 L-0.2 -19.55" fill="#1ca1cd" fill-rule="evenodd" stroke="none"/>
  </g>
</svg>
