<?xml version="1.0" encoding="UTF-8" standalone="no"?>
<svg xmlns:xlink="http://www.w3.org/1999/xlink" height="200.0px" width="200.0px" xmlns="http://www.w3.org/2000/svg">
  <g transform="matrix(1.0, 0.0, 0.0, 1.0, 100.0, 100.0)">
    <path d="M-5.2 3.65 Q-6.15 6.35 -7.15 10.0 -7.35 10.7 -7.9 13.1 -8.35 15.05 -8.65 16.2 -8.9 17.05 -9.25 18.75 -9.65 20.5 -9.9 21.3 -10.2 22.3 -10.6 24.3 -11.0 26.3 -11.25 27.25 -11.55 28.3 -11.9 30.3 -12.25 32.4 -12.55 33.4 -12.85 34.6 -13.2 36.9 -13.6 39.35 -13.85 40.4 -14.05 41.35 -14.3 43.0 -14.6 44.95 -14.7 45.65 -14.7 45.7 -14.75 45.75 -14.75 45.8 -14.75 45.8 -14.8 45.85 -14.8 45.85 -14.8 45.9 -14.85 45.9 -14.85 45.9 -14.9 45.95 -14.95 45.95 -14.95 45.95 -15.0 45.95 -15.05 45.95 -15.1 45.95 -15.15 45.95 -15.25 45.95 -15.35 45.9 -15.45 45.9 -15.55 45.9 -15.6 45.85 -15.7 45.85 -15.8 45.8 -15.9 45.8 -16.0 45.75 -16.1 45.7 -16.15 45.7 -16.25 45.65 -16.35 45.6 -16.45 45.55 -16.45 45.55 -16.65 45.5 -17.05 45.35 -17.45 45.15 -17.8 45.0 -18.2 44.8 -18.6 44.65 -18.95 44.45 -19.35 44.3 -19.75 44.1 -20.1 43.9 -20.5 43.7 -20.85 43.5 -21.2 43.3 -21.6 43.1 -21.95 42.85 -22.35 42.65 -22.7 42.45 -26.05 40.35 -28.35 38.65 -28.55 38.5 -28.7 38.4 -28.9 38.25 -29.05 38.1 -29.25 38.0 -29.4 37.85 -29.6 37.7 -29.75 37.55 -29.9 37.45 -30.1 37.3 -30.25 37.15 -30.4 37.0 -30.6 36.9 -30.75 36.75 -30.9 36.6 -31.1 36.45 -33.95 33.95 -34.9 33.0 -34.9 33.0 -35.15 32.7 -35.35 32.55 -35.45 32.45 -35.6 32.3 -35.7 32.15 -35.85 32.0 -35.95 31.85 -36.1 31.7 -36.2 31.55 -36.35 31.4 -36.45 31.25 -36.55 31.05 -36.65 30.9 -36.75 30.7 -36.8 30.55 -36.85 30.5 -36.85 30.45 -36.85 30.4 -36.9 30.35 -36.9 30.3 -36.9 30.3 -36.95 30.25 -36.95 30.2 -36.95 30.15 -37.0 30.1 -37.0 30.05 -37.0 30.0 -37.0 29.95 -37.0 29.9 -37.0 29.85 -37.0 29.8 -36.95 29.6 -36.9 29.45 -36.9 29.25 -36.85 29.05 -36.8 28.9 -36.75 28.7 -36.7 28.5 -36.65 28.35 -36.55 28.15 -36.5 28.0 -36.45 27.8 -36.4 27.6 -36.3 27.45 -36.25 27.25 -36.15 27.1 -36.1 26.9 -35.75 26.15 -35.65 25.95 -35.25 24.75 -33.6 21.3 -32.75 19.4 -32.25 18.4 -31.4 16.8 -29.7 13.65 -29.7 13.6 -29.65 13.55 -29.65 13.55 -29.6 13.5 -29.6 13.45 -29.55 13.45 -29.55 13.4 -29.5 13.35 -29.5 13.35 -29.45 13.3 -29.45 13.25 -29.4 13.25 -29.4 13.2 -29.35 13.15 -29.35 13.15 -29.3 13.1 -29.15 12.9 -29.0 12.7 -28.9 12.55 -28.85 12.35 -28.75 12.15 -28.75 11.95 -28.75 11.75 -28.75 11.6 -28.8 11.4 -28.85 11.2 -28.9 11.0 -28.95 10.85 -29.05 10.65 -29.15 10.45 -29.25 10.3 -29.35 10.1 -29.45 9.95 -29.55 9.75 -29.6 9.6 -29.7 9.4 -29.75 9.25 -29.85 9.05 -29.9 8.85 -29.95 8.65 -30.0 8.6 -30.1 8.3 -30.2 8.05 -30.25 7.95 -30.3 7.75 -30.35 7.55 -30.45 7.4 -30.5 7.2 -31.1 5.9 -31.95 3.05 -31.95 3.0 -32.0 2.95 -32.0 2.85 -32.05 2.8 -32.05 2.75 -32.1 2.7 -32.15 2.6 -32.15 2.55 -32.2 2.5 -32.2 2.45 -32.25 2.4 -32.25 2.3 -32.25 2.25 -32.3 2.2 -32.3 2.1 -32.3 2.05 -32.3 2.0 -32.35 1.95 -32.35 1.95 -32.4 1.9 -32.4 1.9 -32.45 1.85 -32.45 1.85 -32.5 1.85 -32.55 1.85 -32.6 1.85 -32.7 1.85 -32.95 1.8 -33.2 1.8 -33.35 1.8 -33.55 1.75 -33.7 1.75 -33.85 1.7 -33.9 1.7 -34.05 1.65 -34.1 1.6 -34.2 1.5 -34.25 1.45 -34.3 1.35 -34.35 1.2 -34.4 1.1 -34.45 0.9 -34.5 0.8 -34.6 0.5 -34.85 -0.25 -35.05 -1.1 -35.25 -1.85 -35.4 -2.65 -35.55 -3.45 -35.65 -4.25 -35.75 -5.05 -35.8 -5.85 -35.85 -6.65 -35.85 -7.45 -35.9 -8.25 -35.9 -9.1 -35.9 -9.9 -35.85 -10.7 -35.8 -11.5 -35.75 -12.35 -35.4 -18.1 -34.85 -20.45 -34.1 -24.0 -33.6 -25.25 -33.45 -25.6 -33.15 -26.5 -32.85 -27.25 -32.65 -27.7 -31.15 -30.55 -30.6 -31.35 -30.5 -31.5 -30.4 -31.65 -30.25 -31.75 -30.1 -31.9 -30.0 -32.0 -29.85 -32.1 -29.7 -32.15 -29.55 -32.25 -29.4 -32.3 -29.2 -32.35 -29.05 -32.4 -28.9 -32.5 -28.75 -32.5 -28.55 -32.55 -28.1 -32.7 -28.2 -32.65 -27.85 -32.75 -27.45 -32.85 -27.1 -32.9 -26.75 -32.95 -26.4 -32.95 -26.0 -33.0 -25.65 -33.0 -25.3 -33.0 -24.95 -32.95 -24.55 -32.95 -24.2 -32.9 -23.85 -32.85 -23.5 -32.8 -23.1 -32.75 -22.75 -32.7 -22.35 -32.6 -22.0 -32.55 -21.6 -32.45 -21.25 -32.35 -20.9 -32.2 -20.5 -32.1 -20.15 -31.95 -19.8 -31.85 -19.45 -31.65 -19.15 -31.5 -18.8 -31.35 -18.45 -31.2 -18.1 -31.0 -17.8 -30.85 -17.45 -30.65 -17.1 -30.45 -16.8 -30.25 -16.45 -30.05 -16.1 -29.8 -15.75 -29.6 -15.4 -29.35 -15.1 -29.15 -14.75 -28.9 -14.4 -28.65 -14.1 -28.4 -13.75 -28.2 -13.45 -27.95 -13.1 -27.7 -12.8 -27.45 -12.5 -27.2 -12.15 -26.9 -11.85 -26.65 -11.55 -26.4 -11.4 -26.25 -11.25 -26.1 -11.1 -25.95 -10.9 -25.8 -10.75 -25.65 -10.6 -25.5 -10.45 -25.35 -10.3 -25.2 -10.15 -25.05 -10.0 -24.9 -9.85 -24.75 -9.7 -24.6 -9.55 -24.45 -9.4 -24.3 -9.25 -24.15 -9.1 -24.0 -6.4 -21.1 -6.2 -20.85 -6.15 -20.8 -6.15 -20.8 -6.1 -20.75 -6.1 -20.75 -6.05 -20.7 -6.0 -20.7 -6.0 -20.65 -5.95 -20.65 -5.9 -20.6 -5.85 -20.6 -5.8 -20.6 -5.8 -20.6 -5.75 -20.6 -5.7 -20.6 -5.6 -20.6 -5.55 -20.6 -5.15 -20.7 -4.75 -20.75 -4.4 -20.75 -4.0 -20.8 -3.6 -20.8 -3.2 -20.8 -2.85 -20.8 -2.45 -20.75 -2.05 -20.75 -1.7 -20.7 -1.3 -20.65 -0.9 -20.55 -0.55 -20.5 -0.15 -20.4 0.25 -20.35 0.6 -20.25 0.65 -20.25 0.7 -20.2 0.75 -20.2 0.8 -20.2 0.85 -20.2 0.85 -20.2 0.9 -20.2 0.95 -20.2 1.0 -20.2 1.0 -20.25 1.05 -20.25 1.1 -20.25 1.1 -20.3 1.15 -20.3 1.2 -20.35 1.25 -20.35 1.75 -20.75 2.25 -21.15 2.75 -21.55 3.25 -21.9 3.75 -22.3 4.25 -22.65 4.75 -23.05 5.25 -23.4 5.8 -23.75 6.35 -24.05 6.9 -24.4 7.4 -24.7 8.0 -25.0 8.55 -25.3 9.1 -25.6 9.7 -25.85 14.05 -27.85 16.85 -28.85 17.5 -29.1 17.95 -29.25 18.55 -29.45 19.05 -29.65 19.6 -29.85 20.15 -30.0 20.7 -30.2 21.25 -30.35 21.8 -30.55 22.35 -30.7 22.9 -30.85 23.45 -31.0 24.05 -31.1 24.6 -31.25 25.15 -31.35 25.75 -31.45 26.0 -31.5 26.25 -31.5 26.5 -31.55 26.75 -31.55 27.0 -31.6 27.25 -31.6 27.5 -31.6 27.75 -31.65 28.0 -31.65 28.25 -31.65 28.5 -31.65 28.75 -31.6 29.0 -31.6 29.25 -31.6 29.5 -31.6 29.75 -31.55 29.9 -31.55 30.05 -31.5 30.2 -31.5 30.3 -31.45 30.45 -31.4 30.55 -31.35 30.65 -31.3 30.75 -31.2 30.85 -31.15 30.95 -31.05 31.0 -31.0 31.1 -30.9 31.2 -30.8 31.25 -30.7 31.35 -30.6 31.45 -30.5 31.55 -30.35 31.65 -30.25 31.7 -30.1 31.8 -29.95 31.85 -29.8 31.95 -29.65 32.0 -29.55 32.1 -29.35 32.1 -29.25 32.2 -29.05 32.3 -28.85 32.35 -28.75 32.4 -28.6 32.45 -28.5 32.55 -28.3 32.6 -28.2 32.75 -27.9 32.9 -27.6 33.05 -27.3 33.15 -27.0 33.3 -26.7 33.4 -26.4 33.5 -26.1 33.6 -25.75 33.7 -25.45 33.8 -25.15 33.85 -24.85 33.95 -24.5 34.05 -24.25 34.15 -23.9 34.0 -24.4 34.3 -23.25 34.45 -22.55 34.65 -20.35 34.7 -19.65 34.8 -19.0 34.85 -18.3 34.9 -17.6 34.95 -16.9 34.95 -16.25 35.0 -15.55 35.0 -14.85 35.05 -14.15 35.05 -13.5 35.05 -12.8 35.05 -12.1 35.05 -11.45 35.0 -10.75 34.95 -10.05 34.95 -9.35 34.65 -6.0 34.3 -4.65 34.25 -4.4 34.15 -4.05 34.1 -3.8 34.05 -3.5 34.0 -3.4 33.9 -2.9 33.85 -2.55 33.8 -2.3 33.7 -2.0 33.65 -1.75 33.6 -1.4 33.5 -1.15 33.45 -0.85 33.35 -0.6 33.25 -0.3 33.15 0.0 32.95 0.45 32.9 0.6 32.8 0.95 32.7 1.25 32.55 1.6 32.45 1.85 32.3 2.2 32.15 2.45 32.0 2.8 31.9 3.1 31.7 3.4 31.55 3.65 31.4 3.95 31.2 4.25 31.05 4.55 30.85 4.8 30.65 5.05 30.5 5.25 30.3 5.45 30.1 5.6 29.9 5.8 29.7 5.9 29.45 6.05 29.25 6.15 29.0 6.2 28.8 6.25 28.55 6.3 28.3 6.35 28.05 6.35 27.75 6.3 27.5 6.3 27.2 6.25 26.6 6.1 25.2 5.85 25.15 5.85 25.1 5.85 25.05 5.85 25.0 5.85 25.0 5.8 24.95 5.85 24.9 5.85 24.9 5.85 24.85 5.85 24.8 5.9 24.8 5.9 24.75 5.95 24.75 5.95 24.7 6.0 24.7 6.05 24.7 6.1 24.65 6.35 24.5 6.6 24.45 6.85 24.3 7.1 24.2 7.3 24.05 7.55 23.9 7.75 23.75 7.95 23.6 8.15 23.45 8.35 23.25 8.55 23.1 8.75 22.95 8.95 22.75 9.15 22.6 9.3 22.4 9.5 21.15 10.8 20.95 10.95 20.8 11.1 18.65 13.25 17.3 14.6 16.3 15.4 16.15 15.55 16.0 15.65 15.9 15.8 15.8 15.9 15.7 16.05 15.65 16.15 15.6 16.3 15.55 16.4 15.55 16.55 15.55 16.65 15.55 16.8 15.55 16.95 15.6 17.1 15.65 17.25 15.7 17.4 15.8 17.55 16.1 18.2 16.5 19.45 16.95 20.8 17.2 21.4 17.45 21.9 17.85 23.05 18.25 24.1 18.5 24.65 18.75 25.2 19.1 26.2 19.45 27.3 19.65 27.75 20.35 29.25 21.1 32.9 21.1 32.95 21.1 33.0 21.15 33.0 21.15 33.05 21.15 33.1 21.2 33.15 21.2 33.2 21.25 33.2 21.25 33.25 21.25 33.25 21.3 33.35 21.3 33.45 21.35 33.5 21.35 33.6 21.35 33.7 21.35 33.75 21.4 33.85 21.4 33.9 21.35 34.0 21.35 34.1 21.35 34.15 21.3 34.25 21.25 34.35 21.2 34.45 21.15 34.5 21.1 34.6 20.8 35.0 20.4 35.4 20.1 35.75 19.7 36.1 19.35 36.45 18.95 36.8 18.55 37.1 18.15 37.4 17.8 37.7 17.35 38.05 17.0 38.3 16.5 38.65 16.35 38.75 15.7 39.2 15.2 39.55 14.85 39.8 13.2 41.0 9.85 42.95 9.45 43.2 9.0 43.4 8.6 43.65 8.15 43.85 7.75 44.1 7.3 44.3 6.85 44.5 6.45 44.7 6.0 44.9 5.55 45.05 5.1 45.25 4.65 45.45 4.25 45.6 3.75 45.8 3.35 45.95 2.85 46.15 -0.05 47.2 -1.25 47.4 -1.3 47.4 -1.35 47.45 -1.35 47.45 -1.4 47.45 -1.45 47.45 -1.5 47.45 -1.55 47.45 -1.6 47.5 -1.9 47.55 -2.05 47.55 -2.3 47.55 -2.45 47.55 -2.6 47.55 -2.7 47.5 -2.8 47.5 -2.9 47.4 -3.0 47.35 -3.05 47.25 -3.1 47.15 -3.15 47.0 -3.2 46.85 -3.25 46.6 -3.3 46.45 -3.35 46.15 -3.85 43.7 -4.15 40.3 -3.95 42.25 -4.7 34.45 -5.1 29.9 -5.2 23.95 -5.2 22.55 -5.2 13.45 -5.2 10.55 -5.2 4.15 -5.2 3.95 -5.2 3.65 L-5.2 3.65 M33.35 -14.0 Q33.4 -17.0 32.55 -22.85 32.5 -23.15 32.45 -23.5 32.4 -23.8 32.3 -24.1 32.25 -24.4 32.15 -24.7 32.05 -25.0 31.95 -25.3 31.85 -25.6 31.75 -25.9 31.65 -26.15 31.5 -26.45 31.35 -26.75 31.25 -27.05 31.1 -27.3 30.95 -27.6 30.9 -27.65 30.9 -27.7 30.85 -27.75 30.8 -27.8 30.8 -27.8 30.75 -27.85 30.75 -27.85 30.7 -27.85 30.65 -27.85 30.65 -27.85 30.6 -27.85 30.55 -27.85 30.5 -27.8 30.45 -27.8 30.45 -27.75 30.35 -27.7 30.3 -27.65 30.25 -27.6 30.15 -27.55 30.1 -27.5 30.05 -27.45 30.0 -27.4 29.9 -27.4 29.85 -27.35 29.8 -27.3 29.7 -27.25 29.65 -27.2 29.6 -27.15 29.5 -27.15 29.45 -27.1 29.35 -27.05 29.3 -27.05 27.3 -26.15 23.9 -25.15 22.4 -24.7 19.65 -23.9 16.65 -23.05 15.35 -22.65 12.25 -21.75 9.4 -20.9 4.95 -19.5 2.7 -18.7 2.65 -18.65 2.6 -18.65 2.55 -18.6 2.5 -18.6 2.45 -18.55 2.4 -18.55 2.35 -18.5 2.35 -18.45 2.3 -18.45 2.3 -18.4 2.25 -18.35 2.25 -18.3 2.25 -18.25 2.25 -18.15 2.25 -18.1 2.25 -18.05 2.25 -17.8 2.25 -17.6 2.25 -17.4 2.25 -17.15 2.25 -16.95 2.2 -16.7 2.15 -16.5 2.1 -16.3 2.1 -16.1 2.0 -15.85 1.95 -15.65 1.9 -15.45 1.8 -15.25 1.75 -15.05 1.65 -14.85 1.55 -14.6 1.45 -14.35 1.3 -14.05 1.2 -13.8 1.1 -13.55 1.0 -13.25 0.95 -12.95 0.85 -12.7 0.8 -12.4 0.7 -12.15 0.65 -11.85 0.6 -11.6 0.5 -11.25 0.4 -10.7 0.4 -10.7 0.3 -10.35 0.25 -10.1 0.2 -9.95 0.2 -9.75 0.15 -9.6 0.15 -9.4 0.1 -9.25 0.1 -9.05 0.05 -8.75 0.05 -8.7 0.05 -8.5 0.0 -8.35 0.0 -8.15 -0.05 -8.0 -0.1 -7.8 -0.1 -7.65 -0.15 -7.45 -0.25 -7.3 -0.25 -7.25 -0.3 -7.2 -0.3 -7.15 -0.3 -7.1 -0.3 -7.05 -0.3 -7.0 -0.3 -6.95 -0.3 -6.9 -0.25 -6.9 -0.25 -6.85 -0.2 -6.8 -0.2 -6.8 -0.15 -6.75 -0.1 -6.7 -0.05 -6.7 0.0 -6.65 1.45 -5.75 1.95 -5.4 2.25 -5.2 2.55 -5.0 2.8 -4.8 3.1 -4.65 3.4 -4.45 3.7 -4.25 4.0 -4.1 4.3 -3.9 4.6 -3.75 4.9 -3.55 5.2 -3.4 5.5 -3.25 5.8 -3.05 6.15 -2.9 6.45 -2.75 6.75 -2.6 7.35 -2.3 8.0 -1.95 8.6 -1.65 9.25 -1.35 9.85 -1.05 10.5 -0.75 11.1 -0.45 11.75 -0.15 12.4 0.1 13.0 0.4 13.65 0.65 14.3 0.95 14.95 1.2 15.55 1.45 16.2 1.7 16.85 1.95 20.05 3.1 21.25 3.4 22.4 3.7 24.35 4.1 26.8 4.55 27.5 4.7 27.65 4.75 27.8 4.75 27.95 4.75 28.1 4.75 28.25 4.75 28.35 4.7 28.5 4.65 28.6 4.6 28.75 4.55 28.85 4.5 28.95 4.4 29.05 4.3 29.15 4.25 29.25 4.1 29.35 4.0 29.45 3.9 29.55 3.75 29.6 3.6 29.7 3.45 29.8 3.35 29.9 3.2 29.95 3.05 30.05 2.9 30.1 2.75 30.2 2.6 30.25 2.45 30.35 2.3 30.4 2.15 30.5 2.0 30.55 1.85 30.65 1.7 30.7 1.55 30.8 1.35 30.85 1.2 30.9 1.0 31.0 0.85 31.05 0.65 31.15 0.45 31.2 0.3 31.25 0.1 31.35 -0.05 31.4 -0.25 31.45 -0.45 31.55 -0.65 31.6 -0.8 31.65 -1.0 31.7 -1.2 31.75 -1.35 32.15 -2.5 33.0 -7.4 33.4 -9.5 33.35 -14.0 L33.35 -14.0 M-3.25 1.1 Q-3.35 1.15 -3.4 5.15 -3.5 10.55 -3.45 18.85 -3.35 26.0 -3.25 28.4 -3.2 29.0 -3.2 30.2 -3.15 31.4 -3.1 31.95 -3.05 32.95 -3.05 33.75 -3.0 34.7 -2.95 35.5 -2.85 36.45 -2.8 37.3 -2.7 38.2 -2.6 39.05 -2.5 40.0 -2.4 40.85 -2.25 41.75 -2.1 42.6 -2.05 42.75 -2.05 42.95 -2.0 43.1 -2.0 43.3 -1.95 43.45 -1.95 43.65 -1.9 43.85 -1.9 44.0 -1.85 44.2 -1.85 44.35 -1.85 44.55 -1.8 44.7 -1.8 44.9 -1.8 45.05 -1.75 45.25 -1.75 45.45 -1.75 45.55 -1.75 45.6 -1.7 45.65 -1.7 45.7 -1.7 45.75 -1.65 45.75 -1.6 45.8 -1.6 45.8 -1.55 45.85 -1.5 45.85 -1.45 45.85 -1.4 45.85 -1.4 45.85 -1.3 45.8 -1.25 45.8 -1.2 45.8 -0.15 45.55 1.6 44.9 2.05 44.75 2.4 44.6 2.8 44.45 3.2 44.3 3.6 44.15 3.95 44.0 4.35 43.85 4.75 43.7 5.15 43.5 5.5 43.35 5.9 43.15 6.3 43.0 6.7 42.8 7.05 42.6 7.45 42.4 7.8 42.2 9.05 41.55 10.7 40.5 14.0 38.5 15.6 37.3 17.6 35.8 18.75 34.75 18.8 34.7 18.9 34.65 19.0 34.55 19.05 34.5 19.1 34.45 19.15 34.4 19.25 34.3 19.3 34.25 19.35 34.15 19.4 34.1 19.45 34.0 19.5 33.95 19.5 33.85 19.5 33.75 19.5 33.65 19.5 33.5 18.7 30.1 18.55 29.75 16.75 24.8 15.85 22.55 15.65 22.05 13.9 17.3 13.5 17.55 13.05 17.8 12.65 18.05 12.2 18.3 11.75 18.5 11.3 18.65 10.85 18.85 10.4 19.0 9.95 19.15 9.45 19.3 9.0 19.45 8.55 19.55 8.05 19.65 7.55 19.75 7.1 19.85 6.6 19.9 6.5 19.9 6.4 19.95 6.25 19.95 6.2 19.95 6.05 19.95 6.0 19.9 5.9 19.9 5.8 19.9 5.7 19.85 5.6 19.8 5.55 19.75 5.45 19.7 5.35 19.65 5.3 19.55 5.2 19.45 5.15 19.35 5.0 19.1 4.8 18.9 4.65 18.65 4.5 18.4 4.35 18.15 4.2 17.9 4.05 17.65 3.9 17.4 3.75 17.2 3.6 16.95 3.45 16.7 3.3 16.45 3.2 16.2 3.05 15.95 2.9 15.7 2.75 15.4 2.25 14.4 0.2 9.95 0.05 9.6 -0.45 8.45 -0.8 7.5 -1.1 6.9 -1.3 6.55 -1.45 6.15 -1.6 5.85 -1.75 5.5 -1.9 5.2 -2.0 4.9 -2.1 4.65 -2.25 4.35 -2.35 4.15 -2.4 3.9 -2.5 3.65 -2.6 3.45 -2.65 3.3 -2.7 3.1 -2.8 2.95 -2.85 2.8 -2.85 2.8 -3.0 2.2 -3.05 2.1 -3.05 1.95 -3.1 1.85 -3.1 1.75 -3.15 1.65 -3.15 1.55 -3.15 1.5 -3.2 1.4 -3.2 1.35 -3.2 1.3 -3.2 1.45 -3.2 1.2 -3.2 1.15 -3.2 1.15 -3.25 1.1 -3.25 1.1 L-3.25 1.1 M-30.4 -28.2 Q-30.45 -28.1 -30.5 -28.0 -30.6 -27.95 -30.65 -27.85 -30.7 -27.75 -30.75 -27.65 -30.8 -27.55 -30.85 -27.5 -30.9 -27.4 -30.95 -27.3 -31.0 -27.2 -31.05 -27.1 -31.1 -27.0 -31.15 -26.9 -31.2 -26.8 -31.25 -26.7 -31.4 -26.3 -31.7 -25.4 -32.0 -24.55 -32.15 -24.05 -32.3 -23.7 -32.4 -23.3 -32.55 -22.95 -32.65 -22.55 -32.75 -22.15 -32.8 -21.75 -32.9 -21.4 -33.0 -21.0 -33.05 -20.65 -33.15 -20.2 -33.1 -20.35 -33.25 -19.4 -33.35 -18.95 -33.4 -18.6 -33.5 -18.2 -33.55 -17.85 -33.75 -17.0 -34.0 -13.7 -34.05 -12.75 -34.1 -12.0 -34.15 -11.1 -34.2 -10.35 -34.2 -9.45 -34.2 -8.65 -34.2 -7.8 -34.15 -7.0 -34.15 -6.15 -34.05 -5.35 -33.95 -4.45 -33.85 -3.65 -33.7 -2.8 -33.5 -2.0 -33.35 -1.15 -33.05 -0.35 -33.05 -0.25 -33.0 -0.2 -33.0 -0.15 -32.95 -0.05 -32.95 0.0 -32.9 0.05 -32.85 0.1 -32.8 0.1 -32.8 0.15 -32.75 0.2 -32.7 0.2 -32.6 0.25 -32.55 0.25 -32.5 0.25 -32.4 0.25 -32.3 0.25 -32.0 0.25 -31.65 0.25 -31.3 0.25 -31.0 0.25 -30.65 0.2 -30.35 0.2 -30.0 0.2 -29.7 0.15 -29.35 0.15 -29.05 0.1 -28.7 0.05 -28.4 0.05 -28.05 0.0 -27.7 -0.05 -27.4 -0.1 -27.05 -0.15 -26.5 -0.2 -26.0 -0.3 -25.45 -0.35 -24.95 -0.45 -24.45 -0.55 -23.95 -0.6 -23.4 -0.7 -22.9 -0.8 -22.35 -0.9 -21.85 -1.0 -21.35 -1.15 -20.8 -1.25 -20.3 -1.35 -19.8 -1.5 -19.25 -1.6 -18.75 -1.75 -18.1 -1.95 -17.45 -2.15 -16.75 -2.35 -16.15 -2.6 -15.5 -2.85 -14.85 -3.1 -14.2 -3.35 -13.6 -3.65 -12.95 -3.95 -12.35 -4.25 -11.75 -4.55 -11.15 -4.9 -10.55 -5.25 -9.95 -5.65 -9.4 -6.0 -8.8 -6.4 -8.75 -6.45 -8.7 -6.45 -8.7 -6.5 -8.65 -6.55 -8.65 -6.55 -8.65 -6.6 -8.65 -6.6 -8.65 -6.65 -8.65 -6.7 -8.7 -6.75 -8.75 -6.8 -8.8 -6.9 -8.85 -6.95 -8.9 -7.05 -8.95 -7.1 -9.0 -7.2 -9.0 -7.25 -9.05 -7.35 -9.05 -7.4 -9.1 -7.5 -9.1 -7.6 -9.15 -7.65 -9.15 -7.65 -9.2 -7.85 -9.2 -7.95 -9.2 -8.0 -9.35 -8.45 -9.45 -8.95 -9.55 -9.4 -9.6 -9.9 -9.7 -10.35 -9.75 -10.85 -9.8 -11.3 -9.8 -11.8 -9.85 -12.25 -9.85 -12.75 -9.85 -13.2 -9.85 -13.7 -9.85 -14.15 -9.8 -14.65 -9.8 -15.1 -9.75 -15.6 -9.75 -15.75 -9.75 -15.9 -9.7 -16.05 -9.7 -16.2 -9.7 -16.35 -9.65 -16.5 -9.65 -16.65 -9.6 -16.8 -9.6 -16.95 -9.55 -17.1 -9.5 -17.25 -9.45 -17.4 -9.4 -17.55 -9.35 -17.7 -9.3 -17.85 -9.2 -18.0 -9.15 -18.05 -9.15 -18.1 -9.15 -18.15 -9.15 -18.15 -9.15 -18.2 -9.15 -18.2 -9.15 -18.25 -9.2 -18.25 -9.2 -18.25 -9.2 -18.3 -9.25 -18.3 -9.3 -18.3 -9.3 -18.3 -9.35 -18.35 -9.35 -18.35 -9.4 -18.35 -11.95 -19.05 -11.95 -19.05 -14.35 -19.75 -17.75 -20.95 -21.8 -22.45 -23.9 -23.55 -24.1 -23.65 -24.3 -23.75 -24.45 -23.85 -24.65 -23.95 -24.85 -24.05 -25.05 -24.15 -25.2 -24.25 -25.4 -24.35 -25.6 -24.45 -25.75 -24.55 -25.95 -24.7 -26.15 -24.8 -26.3 -24.9 -26.5 -25.05 -26.7 -25.15 -26.85 -25.25 -27.15 -25.45 -27.3 -25.6 -27.6 -25.75 -27.8 -25.9 -28.05 -26.1 -28.25 -26.25 -28.5 -26.45 -28.7 -26.6 -28.95 -26.8 -29.15 -27.0 -29.35 -27.15 -29.6 -27.35 -29.8 -27.55 -30.0 -27.75 -30.2 -28.0 -30.4 -28.2 L-30.4 -28.2 M-16.2 43.85 Q-16.0 42.9 -15.65 40.75 -15.35 38.8 -15.1 37.7 -14.85 36.7 -14.5 34.35 -14.1 32.2 -13.8 31.05 -13.55 30.15 -13.15 28.0 -12.8 26.05 -12.5 24.95 -12.25 24.05 -11.85 22.25 -11.5 20.4 -11.25 19.5 -10.95 18.55 -10.55 16.5 -10.1 14.55 -9.8 13.55 -9.55 12.8 -9.25 11.35 -8.9 9.9 -8.65 9.2 -8.0 7.1 -7.0 3.4 -6.2 0.3 -5.9 -1.1 -6.0 -0.95 -6.05 -0.75 -6.15 -0.55 -6.2 -0.4 -6.3 -0.2 -6.4 0.0 -6.5 0.2 -6.6 0.4 -6.7 0.65 -6.8 0.85 -6.9 1.05 -7.0 1.3 -7.1 1.5 -7.25 1.75 -7.35 2.0 -7.45 2.25 -8.25 3.75 -10.25 7.5 -10.4 7.8 -10.6 8.1 -10.75 8.45 -10.95 8.75 -11.1 9.05 -11.3 9.35 -11.45 9.65 -11.65 9.95 -11.8 10.3 -12.0 10.6 -12.2 10.9 -12.4 11.2 -12.6 11.5 -12.75 11.8 -12.95 12.1 -13.15 12.4 -13.6 13.1 -16.6 16.7 -16.8 16.95 -16.95 17.1 -17.15 17.35 -17.3 17.55 -17.5 17.75 -17.7 17.95 -17.85 18.15 -18.05 18.35 -18.25 18.55 -18.45 18.75 -18.65 18.95 -18.85 19.15 -19.05 19.3 -19.25 19.5 -19.45 19.7 -19.65 19.85 -19.95 20.1 -20.2 20.25 -20.5 20.4 -20.75 20.5 -21.0 20.6 -21.25 20.65 -21.5 20.7 -21.75 20.65 -21.95 20.65 -22.2 20.55 -22.45 20.5 -22.65 20.35 -22.9 20.2 -23.15 20.05 -23.35 19.85 -23.6 19.6 -23.8 19.4 -24.05 19.15 -24.25 18.9 -24.45 18.65 -24.65 18.4 -24.85 18.15 -25.0 17.9 -25.2 17.65 -25.35 17.4 -25.55 17.15 -25.7 16.9 -25.9 16.6 -26.05 16.35 -26.2 16.1 -26.35 15.8 -26.55 15.55 -26.6 15.45 -26.7 15.3 -26.75 15.2 -26.85 15.1 -26.9 15.0 -26.95 14.85 -27.1 14.65 -27.1 14.6 -27.2 14.5 -27.25 14.4 -27.35 14.25 -27.4 14.15 -27.45 14.05 -27.5 13.9 -27.6 13.8 -27.65 13.7 -27.8 13.85 -27.95 14.05 -28.1 14.25 -28.25 14.45 -28.4 14.65 -28.5 14.9 -28.6 15.1 -28.75 15.3 -28.85 15.5 -28.95 15.75 -29.0 15.85 -29.2 16.15 -29.3 16.45 -29.4 16.6 -29.5 16.85 -29.65 17.05 -29.95 17.65 -32.6 23.1 -32.8 23.5 -33.1 24.2 -33.5 25.1 -33.6 25.3 -33.95 26.05 -34.4 27.35 -35.0 28.95 -35.15 29.4 -35.2 29.5 -35.2 29.55 -35.25 29.65 -35.25 29.75 -35.25 29.8 -35.2 29.9 -35.2 29.95 -35.2 30.05 -35.15 30.1 -35.15 30.2 -35.1 30.25 -35.05 30.3 -35.0 30.4 -34.95 30.45 -34.9 30.5 -34.85 30.55 -34.65 30.8 -34.45 31.0 -34.25 31.25 -34.05 31.45 -33.85 31.7 -33.65 31.9 -33.4 32.1 -33.2 32.35 -33.0 32.55 -32.8 32.75 -32.55 33.0 -32.35 33.2 -32.1 33.4 -31.9 33.6 -31.65 33.8 -31.45 34.0 -30.95 34.4 -29.9 35.3 -28.9 36.15 -28.35 36.55 -28.0 36.85 -27.6 37.15 -27.2 37.45 -26.85 37.7 -26.45 38.0 -26.05 38.3 -25.7 38.55 -25.3 38.85 -24.9 39.1 -24.5 39.4 -24.1 39.65 -23.7 39.9 -23.3 40.15 -22.9 40.4 -22.5 40.65 -22.1 40.9 -19.15 42.7 -18.05 43.15 -17.95 43.2 -17.85 43.25 -17.75 43.3 -17.6 43.35 -17.4 43.45 -17.4 43.45 -17.25 43.5 -17.15 43.55 -17.05 43.6 -16.9 43.65 -16.8 43.7 -16.7 43.75 -16.55 43.8 -16.45 43.8 -16.3 43.85 -16.2 43.85 L-16.2 43.85 M-3.45 -4.55 Q-3.35 -4.2 -3.25 -3.8 -3.2 -3.45 -3.1 -3.1 -3.0 -2.8 -2.9 -2.5 -2.8 -2.15 -2.75 -1.85 -2.65 -1.6 -2.55 -1.3 -2.45 -1.05 -2.4 -0.8 -2.3 -0.55 -2.2 -0.35 -2.15 -0.1 -2.05 0.1 -2.5 -1.1 -1.85 0.75 -1.55 1.6 -0.75 3.25 -0.45 3.8 -0.1 4.75 0.35 5.9 0.55 6.3 1.0 7.3 1.85 9.25 2.7 11.2 3.15 12.15 3.3 12.55 3.5 12.9 3.65 13.3 3.85 13.65 4.05 14.05 4.2 14.4 4.4 14.8 4.6 15.15 4.8 15.5 5.0 15.85 5.2 16.25 5.4 16.6 5.6 16.95 5.8 17.3 6.05 17.65 6.25 18.0 6.25 18.0 6.3 18.05 6.3 18.1 6.3 18.1 6.35 18.15 6.35 18.2 6.4 18.2 6.4 18.25 6.4 18.25 6.45 18.25 6.45 18.3 6.5 18.3 6.55 18.3 6.6 18.3 6.65 18.3 6.7 18.3 7.1 18.25 7.5 18.15 7.85 18.1 8.25 18.0 8.65 17.9 9.0 17.8 9.4 17.7 9.75 17.55 10.15 17.45 10.5 17.3 10.85 17.15 11.2 16.95 11.6 16.8 11.95 16.6 12.3 16.45 12.65 16.2 13.8 15.5 16.35 13.15 16.8 12.7 18.0 11.5 19.05 10.45 19.7 9.9 20.35 9.3 21.3 8.25 21.45 8.1 21.55 8.0 21.7 7.85 21.8 7.7 21.95 7.55 22.05 7.4 22.2 7.25 22.3 7.15 22.4 7.0 22.5 6.85 22.6 6.65 22.7 6.5 22.8 6.35 22.9 6.15 22.95 6.0 23.0 5.8 23.05 5.7 23.05 5.65 23.05 5.6 23.05 5.55 23.05 5.5 23.0 5.45 22.95 5.45 22.9 5.4 22.85 5.4 22.8 5.4 20.95 5.05 17.55 3.85 16.75 3.6 15.95 3.3 15.2 3.0 14.4 2.7 13.65 2.4 12.85 2.05 12.1 1.75 11.3 1.4 10.55 1.05 9.8 0.7 9.05 0.35 8.3 0.0 7.55 -0.4 6.8 -0.75 6.05 -1.15 5.3 -1.55 4.9 -1.75 4.55 -1.95 4.15 -2.15 3.75 -2.35 3.4 -2.6 3.0 -2.8 2.65 -3.0 2.3 -3.25 1.9 -3.45 1.55 -3.7 1.15 -3.95 0.8 -4.2 0.45 -4.4 0.1 -4.65 -0.3 -4.9 -0.65 -5.15 -0.65 -5.15 -0.7 -5.2 -0.75 -5.25 -0.75 -5.25 -0.8 -5.3 -0.85 -5.3 -0.9 -5.35 -0.95 -5.4 -1.0 -5.45 -1.05 -5.45 -1.15 -5.5 -1.2 -5.5 -1.25 -5.55 -1.35 -5.55 -1.4 -5.55 -1.5 -5.55 -1.55 -5.55 -2.55 -4.95 -2.6 -4.9 -2.7 -4.9 -2.75 -4.85 -2.8 -4.8 -2.85 -4.8 -2.9 -4.75 -3.0 -4.75 -3.05 -4.7 -3.1 -4.7 -3.15 -4.65 -3.2 -4.65 -3.25 -4.6 -3.3 -4.6 -3.35 -4.6 -3.4 -4.55 -3.45 -4.55 L-3.45 -4.55 M-5.95 -4.4 Q-6.0 -4.4 -6.0 -4.4 -6.05 -4.4 -6.1 -4.4 -6.15 -4.4 -6.2 -4.4 -6.25 -4.4 -6.3 -4.4 -6.35 -4.4 -6.4 -4.4 -6.5 -4.4 -6.55 -4.4 -6.6 -4.45 -6.65 -4.45 -6.75 -4.45 -6.8 -4.5 -6.9 -4.55 -7.0 -4.55 -7.05 -4.6 -7.15 -4.65 -7.2 -4.7 -7.25 -4.75 -7.35 -4.8 -7.4 -4.85 -7.45 -4.85 -7.5 -4.9 -7.55 -4.95 -7.55 -5.0 -7.6 -5.05 -7.65 -5.1 -7.65 -5.1 -7.65 -5.15 -7.95 -4.95 -8.3 -4.75 -8.65 -4.5 -9.0 -4.3 -9.4 -4.05 -9.8 -3.85 -10.2 -3.6 -10.6 -3.35 -11.05 -3.1 -11.55 -2.9 -12.0 -2.65 -12.5 -2.4 -13.0 -2.15 -13.55 -1.95 -14.1 -1.7 -14.65 -1.5 -14.95 -1.4 -15.2 -1.25 -15.5 -1.15 -15.75 -1.05 -16.0 -0.95 -16.25 -0.85 -16.5 -0.75 -16.75 -0.7 -17.05 -0.6 -17.3 -0.5 -17.55 -0.45 -17.85 -0.35 -18.1 -0.25 -18.4 -0.2 -18.7 -0.1 -19.0 -0.05 -19.7 0.1 -20.4 0.25 -21.1 0.4 -21.75 0.55 -22.45 0.7 -23.15 0.85 -23.85 0.95 -24.5 1.1 -25.25 1.2 -25.9 1.3 -26.6 1.4 -27.3 1.5 -28.0 1.6 -28.7 1.65 -29.4 1.7 -30.1 1.75 -30.15 1.75 -30.25 1.75 -30.3 1.8 -30.3 1.8 -30.35 1.8 -30.4 1.85 -30.4 1.85 -30.45 1.9 -30.45 1.9 -30.45 1.95 -30.45 2.0 -30.45 2.05 -30.45 2.05 -30.45 2.1 -30.45 2.15 -30.4 2.25 -29.6 4.95 -29.35 5.4 -29.1 5.95 -28.7 7.1 -28.3 8.25 -28.05 8.8 -26.6 12.1 -25.4 14.15 -25.0 14.85 -23.25 17.45 -23.05 17.75 -22.05 18.8 -22.0 18.85 -21.95 18.9 -21.9 18.95 -21.8 19.0 -21.75 19.0 -21.7 19.05 -21.65 19.05 -21.6 19.05 -21.5 19.05 -21.45 19.05 -21.4 19.05 -21.3 19.0 -21.25 19.0 -21.2 18.95 -21.1 18.9 -21.05 18.9 -20.9 18.8 -20.75 18.65 -20.6 18.55 -20.45 18.45 -20.3 18.3 -20.15 18.2 -20.0 18.05 -19.9 17.95 -19.75 17.8 -19.6 17.65 -19.5 17.55 -19.35 17.4 -19.25 17.25 -19.1 17.1 -19.0 17.0 -18.85 16.85 -17.3 15.05 -16.3 13.8 -16.1 13.55 -15.85 13.25 -15.65 13.0 -15.45 12.7 -15.25 12.45 -15.05 12.15 -14.85 11.9 -14.65 11.6 -14.45 11.3 -14.25 11.05 -14.1 10.75 -13.9 10.45 -13.7 10.2 -13.55 9.9 -13.35 9.6 -13.15 9.3 -12.75 8.65 -12.15 7.55 -11.45 6.25 -11.2 5.8 -9.25 2.35 -8.5 0.5 -7.7 -1.55 -7.25 -2.4 -7.15 -2.55 -7.05 -2.7 -7.0 -2.85 -6.9 -3.0 -6.8 -3.15 -6.7 -3.3 -6.65 -3.45 -6.55 -3.55 -6.45 -3.7 -6.4 -3.8 -6.3 -3.95 -6.25 -4.05 -6.15 -4.15 -6.1 -4.25 -6.05 -4.35 -5.95 -4.4 L-5.95 -4.4 M-25.8 -31.4 Q-25.95 -31.4 -26.1 -31.4 -26.25 -31.4 -26.4 -31.4 -26.55 -31.4 -26.75 -31.35 -26.9 -31.35 -27.05 -31.3 -27.2 -31.3 -27.4 -31.25 -27.55 -31.2 -27.7 -31.15 -27.9 -31.15 -28.05 -31.1 -28.2 -31.05 -28.4 -30.95 -28.5 -30.9 -28.65 -30.85 -28.75 -30.8 -28.85 -30.75 -28.95 -30.65 -29.0 -30.55 -29.1 -30.5 -29.15 -30.4 -29.2 -30.3 -29.25 -30.2 -29.25 -30.1 -29.25 -30.0 -29.3 -29.9 -29.25 -29.8 -29.25 -29.7 -29.2 -29.6 -29.15 -29.5 -29.15 -29.45 -29.1 -29.35 -29.05 -29.25 -29.0 -29.2 -28.95 -29.1 -28.9 -29.05 -28.85 -28.95 -28.8 -28.9 -28.75 -28.8 -28.7 -28.75 -28.6 -28.65 -28.55 -28.6 -28.5 -28.55 -28.4 -28.5 -28.35 -28.4 -26.0 -26.6 -25.3 -26.15 -25.0 -25.95 -24.75 -25.8 -24.45 -25.65 -24.15 -25.45 -23.85 -25.3 -23.55 -25.15 -23.3 -25.0 -23.0 -24.85 -22.7 -24.7 -22.4 -24.55 -22.1 -24.4 -21.8 -24.25 -21.5 -24.1 -21.2 -24.0 -20.9 -23.85 -20.55 -23.75 -19.8 -23.45 -19.05 -23.15 -18.3 -22.85 -17.55 -22.6 -16.75 -22.3 -16.0 -22.05 -15.25 -21.75 -14.45 -21.5 -13.7 -21.25 -12.95 -21.0 -12.15 -20.75 -11.35 -20.55 -10.6 -20.3 -9.8 -20.1 -9.05 -19.85 -8.25 -19.65 -8.2 -19.65 -8.15 -19.65 -8.1 -19.6 -8.1 -19.6 -8.05 -19.6 -8.0 -19.6 -7.95 -19.6 -7.95 -19.6 -7.9 -19.6 -7.85 -19.6 -7.8 -19.6 -7.8 -19.65 -7.75 -19.65 -7.75 -19.7 -7.7 -19.7 -7.65 -19.75 -7.6 -19.8 -7.6 -19.85 -7.6 -19.85 -7.6 -19.9 -7.6 -19.95 -7.6 -19.95 -7.6 -20.0 -7.65 -20.05 -7.65 -20.05 -7.7 -20.1 -7.7 -20.1 -7.75 -20.15 -7.8 -20.15 -7.8 -20.2 -7.85 -20.2 -7.85 -20.2 -8.0 -20.4 -8.2 -20.65 -8.35 -20.8 -8.55 -21.05 -8.7 -21.2 -8.9 -21.45 -9.05 -21.6 -9.3 -21.8 -9.4 -21.95 -9.65 -22.2 -9.9 -22.45 -10.05 -22.6 -10.25 -22.8 -10.4 -22.95 -10.6 -23.15 -10.8 -23.35 -10.9 -23.45 -11.0 -23.55 -11.1 -23.7 -11.2 -23.8 -11.3 -23.9 -11.4 -24.0 -11.5 -24.1 -11.6 -24.2 -11.7 -24.35 -11.8 -24.45 -11.9 -24.55 -12.0 -24.65 -12.1 -24.75 -12.25 -24.85 -12.35 -24.95 -12.45 -25.05 -12.8 -25.35 -13.15 -25.6 -13.5 -25.9 -13.8 -26.15 -14.15 -26.45 -14.5 -26.7 -14.85 -26.95 -15.2 -27.2 -15.55 -27.5 -15.9 -27.75 -16.3 -28.0 -16.65 -28.25 -17.0 -28.5 -17.35 -28.7 -17.75 -28.95 -18.1 -29.15 -18.55 -29.4 -19.0 -29.65 -19.45 -29.9 -19.9 -30.1 -20.35 -30.3 -20.8 -30.45 -21.25 -30.65 -21.75 -30.8 -22.25 -30.95 -22.7 -31.05 -23.2 -31.15 -23.7 -31.25 -24.2 -31.3 -24.75 -31.35 -25.25 -31.4 -25.8 -31.4 L-25.8 -31.4 M-8.15 -13.55 Q-8.2 -13.0 -8.15 -12.75 -8.15 -13.15 -8.1 -12.05 -8.1 -11.65 -8.05 -11.35 -8.05 -10.95 -8.0 -10.65 -7.95 -10.25 -7.9 -9.95 -7.85 -9.6 -7.8 -9.25 -7.7 -8.9 -7.6 -8.55 -7.5 -8.2 -7.4 -7.9 -7.25 -7.55 -7.1 -7.25 -7.05 -7.15 -7.0 -7.05 -6.9 -6.95 -6.85 -6.85 -6.8 -6.8 -6.75 -6.7 -6.65 -6.65 -6.6 -6.55 -6.5 -6.5 -6.45 -6.45 -6.35 -6.45 -6.25 -6.4 -6.15 -6.35 -6.05 -6.35 -5.95 -6.35 -5.8 -6.35 -5.45 -6.35 -4.4 -6.35 -4.1 -6.35 -3.8 -6.4 -3.5 -6.4 -3.25 -6.5 -3.0 -6.55 -2.8 -6.65 -2.6 -6.75 -2.4 -6.9 -2.25 -7.05 -2.1 -7.25 -1.95 -7.45 -1.85 -7.65 -1.8 -7.9 -1.7 -8.2 -1.65 -8.45 -1.65 -8.75 -1.6 -9.15 -1.55 -9.55 -1.5 -9.9 -1.45 -10.3 -1.4 -10.7 -1.3 -11.05 -1.25 -11.45 -1.15 -11.85 -1.05 -12.2 -0.95 -12.55 -0.85 -12.95 -0.7 -13.3 -0.6 -13.7 -0.45 -14.05 -0.35 -14.4 -0.2 -14.8 0.4 -16.45 0.45 -16.5 0.55 -16.7 0.6 -16.95 0.65 -17.15 0.65 -17.35 0.7 -17.55 0.65 -17.7 0.6 -17.9 0.55 -18.05 0.45 -18.25 0.35 -18.4 0.2 -18.5 0.05 -18.65 -0.1 -18.75 -0.25 -18.8 -0.45 -18.9 -0.65 -18.95 -0.9 -19.0 -1.1 -19.0 -1.35 -19.05 -1.55 -19.1 -1.8 -19.1 -2.0 -19.15 -2.25 -19.15 -2.45 -19.2 -2.7 -19.2 -2.9 -19.2 -3.15 -19.25 -3.35 -19.25 -3.6 -19.25 -3.8 -19.25 -4.05 -19.25 -4.3 -19.2 -4.7 -19.15 -5.05 -19.1 -5.4 -19.05 -5.7 -18.9 -6.05 -18.8 -6.35 -18.65 -6.65 -18.45 -6.9 -18.25 -7.15 -18.05 -7.35 -17.8 -7.55 -17.55 -7.7 -17.25 -7.85 -16.95 -7.9 -16.65 -8.0 -16.3 -8.05 -15.9 -8.2 -13.8 -8.15 -13.55 L-8.15 -13.55 M4.35 -20.9 Q4.8 -21.05 5.8 -21.4 7.9 -22.15 16.55 -24.65 24.25 -26.95 25.15 -27.2 28.15 -28.2 29.05 -28.75 29.1 -28.8 29.2 -28.85 29.25 -28.9 29.3 -28.95 29.4 -29.0 29.45 -29.05 29.5 -29.1 29.55 -29.2 29.55 -29.25 29.6 -29.3 29.65 -29.35 29.65 -29.45 29.7 -29.5 29.7 -29.55 29.7 -29.65 29.7 -29.7 29.7 -29.8 29.65 -29.85 29.6 -29.9 29.55 -29.95 29.5 -29.95 29.45 -30.0 29.4 -30.0 29.3 -30.05 29.25 -30.05 29.15 -30.05 29.1 -30.05 29.0 -30.05 28.9 -30.05 28.85 -30.05 28.8 -30.05 28.75 -30.1 28.7 -30.1 28.55 -30.1 28.4 -30.1 28.4 -30.1 28.15 -30.1 27.9 -30.1 27.65 -30.1 27.35 -30.05 27.1 -30.05 26.85 -30.0 26.6 -30.0 26.35 -29.95 26.1 -29.9 25.85 -29.9 25.6 -29.85 25.35 -29.8 25.1 -29.75 24.85 -29.7 24.6 -29.65 24.35 -29.55 24.0 -29.45 23.65 -29.35 23.3 -29.3 22.95 -29.2 22.6 -29.1 22.25 -29.0 21.9 -28.9 21.55 -28.8 21.25 -28.7 20.9 -28.55 20.55 -28.45 20.2 -28.35 19.85 -28.25 19.5 -28.1 19.15 -28.0 18.85 -27.9 17.6 -27.45 16.35 -26.95 15.2 -26.5 14.1 -26.0 13.05 -25.55 12.05 -25.05 11.15 -24.65 10.25 -24.2 9.5 -23.8 8.75 -23.4 8.1 -23.1 7.5 -22.75 7.0 -22.45 6.5 -22.2 6.25 -22.05 5.8 -21.8 5.45 -21.6 4.35 -20.9 L4.35 -20.9" fill="#050505" fill-rule="evenodd" stroke="none"/>
    <path d="M-25.8 -31.4 Q-25.25 -31.4 -24.75 -31.35 -24.2 -31.3 -23.7 -31.25 -23.2 -31.15 -22.7 -31.05 -22.25 -30.95 -21.75 -30.8 -21.3 -30.65 -20.8 -30.5 -20.35 -30.3 -19.9 -30.1 -19.45 -29.9 -19.0 -29.65 -18.55 -29.45 -18.1 -29.15 -17.75 -28.95 -17.35 -28.7 -17.0 -28.45 -16.65 -28.2 -16.25 -28.0 -15.9 -27.75 -15.55 -27.5 -15.2 -27.2 -14.85 -26.95 -14.5 -26.7 -14.15 -26.45 -13.8 -26.15 -13.5 -25.9 -13.15 -25.6 -12.8 -25.35 -12.45 -25.05 -11.8 -24.5 -10.8 -23.35 -10.65 -23.2 -9.3 -21.8 -8.35 -20.9 -7.85 -20.2 -7.85 -20.2 -7.8 -20.15 -7.8 -20.15 -7.75 -20.1 -7.7 -20.1 -7.7 -20.1 -7.65 -20.05 -7.65 -20.05 -7.6 -20.0 -7.6 -19.95 -7.6 -19.95 -7.6 -19.9 -7.6 -19.85 -7.6 -19.85 -7.65 -19.8 -7.65 -19.75 -7.7 -19.7 -7.7 -19.7 -7.75 -19.65 -7.8 -19.65 -7.8 -19.65 -7.85 -19.6 -7.9 -19.6 -7.95 -19.6 -7.95 -19.6 -8.0 -19.6 -8.05 -19.6 -8.1 -19.65 -8.1 -19.65 -8.15 -19.65 -8.3 -19.7 -8.25 -19.65 -9.05 -19.85 -9.8 -20.1 -10.6 -20.3 -11.4 -20.55 -12.15 -20.75 -12.95 -21.0 -13.7 -21.25 -14.45 -21.5 -15.25 -21.75 -16.0 -22.05 -16.75 -22.3 -17.55 -22.6 -18.3 -22.85 -19.05 -23.15 -19.8 -23.45 -20.55 -23.75 -20.85 -23.85 -21.15 -24.0 -21.5 -24.15 -21.8 -24.25 -22.1 -24.4 -22.4 -24.55 -22.7 -24.7 -23.0 -24.85 -23.25 -25.0 -23.55 -25.15 -23.85 -25.3 -24.15 -25.45 -24.45 -25.65 -24.7 -25.8 -25.0 -25.95 -25.3 -26.15 -26.2 -26.75 -28.35 -28.4 -28.4 -28.45 -28.5 -28.55 -28.55 -28.6 -28.6 -28.65 -28.7 -28.75 -28.75 -28.8 -28.8 -28.85 -28.85 -28.95 -28.9 -29.0 -28.95 -29.1 -29.0 -29.2 -29.05 -29.25 -29.1 -29.35 -29.15 -29.45 -29.15 -29.5 -29.2 -29.6 -29.25 -29.7 -29.25 -29.8 -29.3 -29.9 -29.25 -30.0 -29.25 -30.1 -29.25 -30.2 -29.2 -30.3 -29.15 -30.4 -29.1 -30.5 -29.0 -30.6 -28.95 -30.65 -28.85 -30.75 -28.75 -30.8 -28.65 -30.85 -28.5 -30.95 -28.4 -30.95 -28.2 -31.0 -28.05 -31.05 -27.9 -31.1 -27.7 -31.15 -27.55 -31.2 -27.4 -31.25 -27.2 -31.3 -27.05 -31.3 -26.9 -31.35 -26.75 -31.35 -26.55 -31.4 -26.4 -31.4 -26.25 -31.4 -26.1 -31.4 -25.95 -31.4 -25.8 -31.4 L-25.8 -31.4" fill="#050505" fill-opacity="0.38039216" fill-rule="evenodd" stroke="none"/>
    <path d="M3.45 -20.35 Q3.55 -20.45 3.65 -20.5 3.75 -20.6 3.9 -20.7 4.0 -20.85 4.15 -20.95 4.3 -21.05 4.45 -21.15 4.6 -21.3 4.75 -21.4 4.9 -21.55 5.1 -21.7 5.3 -21.85 5.45 -21.95 5.65 -22.1 5.85 -22.25 6.25 -22.55 6.75 -22.85 7.25 -23.15 7.85 -23.45 8.4 -23.75 9.1 -24.05 9.75 -24.35 10.55 -24.65 11.3 -25.0 12.2 -25.35 13.05 -25.7 14.15 -26.1 15.05 -26.45 16.35 -26.95 17.2 -27.25 18.85 -27.9 18.85 -27.9 18.95 -27.95 19.45 -28.1 19.2 -28.0 19.4 -28.1 19.65 -28.2 19.95 -28.3 20.25 -28.4 20.65 -28.5 21.05 -28.65 21.5 -28.8 22.0 -28.9 22.55 -29.1 23.1 -29.25 23.7 -29.4 24.35 -29.55 24.6 -29.6 24.85 -29.65 25.1 -29.75 25.35 -29.8 25.6 -29.85 25.85 -29.85 26.1 -29.9 26.35 -29.95 26.6 -30.0 26.85 -30.0 27.1 -30.05 27.35 -30.05 27.6 -30.1 27.9 -30.1 28.15 -30.1 28.4 -30.1 28.7 -30.1 28.75 -30.1 28.8 -30.1 28.9 -30.1 28.95 -30.05 29.0 -30.05 29.15 -30.05 29.15 -30.05 29.25 -30.05 29.3 -30.05 29.4 -30.0 29.45 -30.0 29.5 -30.0 29.55 -29.95 29.6 -29.9 29.65 -29.85 29.65 -29.8 29.7 -29.7 29.7 -29.65 29.7 -29.55 29.7 -29.5 29.65 -29.45 29.65 -29.35 29.6 -29.3 29.6 -29.25 29.55 -29.2 29.5 -29.1 29.45 -29.05 29.35 -29.0 29.3 -28.95 29.25 -28.9 29.2 -28.85 29.1 -28.8 29.05 -28.75 28.1 -28.15 25.15 -27.2 25.1 -27.2 16.55 -24.65 14.5 -24.05 5.85 -21.15 4.9 -20.85 3.45 -20.35 L3.45 -20.35" fill="#050505" fill-opacity="0.38039216" fill-rule="evenodd" stroke="none"/>
  </g>
</svg>
