<?xml version="1.0" encoding="UTF-8" standalone="no"?>
<svg xmlns:xlink="http://www.w3.org/1999/xlink" height="100.0px" width="200.0px" xmlns="http://www.w3.org/2000/svg">
  <g transform="matrix(1.0, 0.0, 0.0, 1.0, 100.0, 50.0)">
    <path d="M-36.75 -7.7 Q-36.65 -7.2 -36.6 -6.7 -36.5 -6.2 -36.4 -5.7 -36.3 -5.2 -36.2 -4.7 -36.1 -4.2 -36.0 -3.7 -35.9 -3.15 -35.8 -2.65 -35.7 -2.1 -35.6 -1.6 -35.5 -1.1 -35.35 -0.55 -35.25 0.0 -35.1 0.5 -34.85 1.6 -34.55 2.75 -34.3 3.85 -34.0 4.95 -33.7 6.0 -33.4 7.05 -33.1 8.1 -32.75 9.1 -32.45 10.1 -32.1 11.1 -31.8 12.1 -31.45 13.05 -31.1 14.0 -30.75 14.95 -30.4 15.85 -30.05 16.75 -28.8 17.3 -26.4 18.35 -26.4 18.6 -26.35 18.85 -26.3 19.15 -26.25 19.35 -26.2 19.6 -26.1 19.85 -26.0 20.05 -25.85 20.25 -25.75 20.45 -25.6 20.65 -25.45 20.85 -25.3 21.0 -25.15 21.15 -24.95 21.25 -24.75 21.4 -24.55 21.5 -24.5 21.55 -24.45 21.55 -24.35 21.6 -24.25 21.6 -24.15 21.65 -24.05 21.7 -23.9 21.7 -23.75 21.75 -23.6 21.75 -23.45 21.75 -23.3 21.8 -23.15 21.75 -22.95 21.75 -22.8 21.7 -22.6 21.65 -22.4 21.55 -22.25 21.5 -22.15 21.4 -22.0 21.35 -21.9 21.25 -21.8 21.15 -21.7 21.1 -21.6 21.0 -21.55 20.9 -21.45 20.8 -21.4 20.75 -21.35 20.65 -21.3 20.6 -21.25 20.5 -21.25 20.45 -21.2 20.4 -21.2 20.35 -21.35 20.25 -21.1 20.4 -21.05 20.45 -20.95 20.5 -20.85 20.6 -20.75 20.65 -20.65 20.7 -20.5 20.8 -20.35 20.85 -20.2 20.9 -20.05 20.95 -19.85 21.0 -19.65 21.05 -19.45 21.05 -19.25 21.05 -19.05 21.05 -18.8 21.0 -18.55 20.95 -18.35 20.85 -18.1 20.75 -17.95 20.65 -17.75 20.55 -17.6 20.45 -17.45 20.3 -17.35 20.2 -17.25 20.05 -17.15 19.95 -17.05 19.85 -17.0 19.75 -16.95 19.65 -16.9 19.6 -16.9 19.6 -16.8 19.6 -16.7 19.6 -16.6 19.6 -16.55 19.55 -16.4 19.55 -16.3 19.55 -16.2 19.55 -16.1 19.5 -15.95 19.5 -15.85 19.45 -15.7 19.45 -15.6 19.4 -15.45 19.35 -15.35 19.3 -15.2 19.25 -15.05 19.2 -14.8 19.1 -14.6 18.95 -14.4 18.85 -14.2 18.7 -14.0 18.55 -13.85 18.45 -13.7 18.3 -13.55 18.15 -13.4 18.0 -13.3 17.85 -13.2 17.75 -13.1 17.6 -13.0 17.5 -12.95 17.4 -12.9 17.3 -12.85 17.2 -12.8 17.2 -12.75 17.25 -12.65 17.25 -12.55 17.25 -12.4 17.25 -12.3 17.3 -12.15 17.3 -12.0 17.3 -11.85 17.25 -11.65 17.25 -11.5 17.2 -11.3 17.15 -11.1 17.1 -10.9 17.05 -10.7 16.95 -10.55 16.8 -10.3 16.65 -10.15 16.5 -9.95 16.3 -9.8 16.15 -9.65 15.95 -9.55 15.75 -9.45 15.6 -9.4 15.4 -9.3 15.25 -9.25 15.05 -9.25 14.9 -9.2 14.75 -9.2 14.65 -9.15 14.55 -9.15 14.5 -9.15 14.45 -9.1 14.45 -9.0 14.45 -8.95 14.45 -8.85 14.4 -8.75 14.4 -8.65 14.4 -8.5 14.35 -8.4 14.35 -8.25 14.3 -8.15 14.25 -8.0 14.2 -7.85 14.1 -7.75 14.05 -7.6 13.95 -7.45 13.85 -7.3 13.75 -7.1 13.6 -6.95 13.4 -6.8 13.2 -6.65 13.0 -6.55 12.8 -6.5 12.6 -6.4 12.4 -6.35 12.2 -6.3 12.05 -6.3 11.85 -6.25 11.7 -6.25 11.55 -6.25 11.45 -6.25 11.35 -6.25 11.3 -6.25 11.25 -6.25 11.25 -6.15 11.25 -6.05 11.25 -5.95 11.25 -5.85 11.25 -5.75 11.25 -5.6 11.25 -5.5 11.25 -5.3 11.2 -5.15 11.2 -5.0 11.15 -4.85 11.1 -4.65 11.0 -4.5 10.9 -4.35 10.8 -4.2 10.7 -4.0 10.55 -3.85 10.35 -3.7 10.15 -3.55 9.95 -3.45 9.8 -3.4 9.6 -3.3 9.4 -3.25 9.2 -3.25 9.05 -3.2 8.9 -3.2 8.75 -3.2 8.6 -3.15 8.5 -3.2 8.4 -3.2 8.35 -3.2 8.3 -3.05 8.25 -2.9 8.2 -2.8 8.15 -2.65 8.1 -2.55 8.05 -2.4 8.0 -2.3 7.95 -2.2 7.9 -2.1 7.8 -2.0 7.75 -1.95 7.7 -1.85 7.65 -1.75 7.6 -1.7 7.5 -1.65 7.45 -1.55 7.4 -1.3 7.15 -1.05 6.85 -0.85 6.5 -0.7 6.15 -0.55 5.8 -0.45 5.4 -0.35 5.05 -0.3 4.6 -0.25 4.2 -0.25 3.75 -0.25 3.3 -0.3 2.85 -0.4 2.4 -0.5 1.9 -0.65 1.45 -0.8 0.95 0.25 0.4 2.4 -0.8 2.45 -0.6 2.55 -0.45 2.65 -0.15 2.8 0.1 2.95 0.45 3.1 0.8 3.35 1.15 3.6 1.5 3.85 1.9 4.2 2.25 4.55 2.65 4.9 3.0 5.35 3.35 5.8 3.65 6.3 3.95 6.85 4.2 7.0 4.25 7.15 4.3 7.3 4.35 7.4 4.4 7.55 4.45 7.7 4.45 7.85 4.5 8.0 4.5 8.1 4.55 8.25 4.55 8.35 4.6 8.5 4.6 8.65 4.6 8.75 4.65 8.85 4.65 9.0 4.65 9.05 4.7 9.1 4.75 9.15 4.85 9.25 4.9 9.3 4.95 9.4 5.05 9.5 5.1 9.6 5.2 9.7 5.25 9.85 5.35 9.95 5.4 10.1 5.5 10.2 5.55 10.35 5.6 10.5 5.65 10.7 5.7 11.0 5.8 11.25 5.8 11.5 5.85 11.8 5.85 12.05 5.85 12.3 5.8 12.5 5.75 12.7 5.7 12.9 5.65 13.1 5.6 13.25 5.5 13.4 5.45 13.5 5.4 13.6 5.35 13.7 5.3 13.75 5.25 13.8 5.45 13.9 5.6 14.0 5.75 14.1 5.9 14.2 6.05 14.35 6.2 14.5 6.35 14.6 6.45 14.75 6.55 14.9 6.65 15.05 6.75 15.2 6.8 15.4 6.85 15.55 6.9 15.7 6.95 15.9 6.95 16.05 6.95 16.15 6.95 16.25 6.95 16.4 6.9 16.5 6.9 16.6 6.85 16.7 6.8 16.8 6.8 16.9 6.75 17.0 6.7 17.05 6.65 17.15 6.6 17.2 6.6 17.25 6.55 17.3 6.5 17.35 6.5 17.4 6.55 17.45 6.6 17.5 6.65 17.55 6.7 17.65 6.8 17.75 6.85 17.9 6.95 18.0 7.05 18.15 7.1 18.35 7.2 18.5 7.3 18.7 7.35 18.9 7.4 19.1 7.45 19.35 7.5 19.55 7.5 19.8 7.5 20.1 7.45 20.3 7.4 20.55 7.3 20.75 7.25 20.95 7.15 21.15 7.05 21.3 6.9 21.45 6.8 21.6 6.7 21.7 6.6 21.8 6.5 21.9 6.4 21.95 6.35 22.0 6.3 22.0 6.25 22.15 6.4 22.1 6.35 22.15 6.4 22.2 6.45 22.3 6.55 22.4 6.6 22.55 6.7 22.65 6.8 22.8 6.9 22.95 6.95 23.15 7.05 23.3 7.1 23.5 7.2 23.7 7.2 23.95 7.25 24.15 7.25 24.4 7.25 24.7 7.2 24.9 7.15 25.15 7.05 25.35 7.0 25.55 6.85 25.7 6.75 25.9 6.65 26.0 6.5 26.15 6.4 26.25 6.3 26.35 6.2 26.4 6.1 26.5 6.05 26.5 6.0 26.55 5.95 26.6 6.0 26.65 6.0 26.7 6.05 26.75 6.1 26.85 6.2 26.95 6.25 27.05 6.35 27.2 6.4 27.35 6.45 27.5 6.5 27.65 6.55 27.8 6.6 28.0 6.65 28.2 6.65 28.4 6.65 28.6 6.65 28.8 6.6 29.0 6.55 29.15 6.5 29.35 6.45 29.5 6.35 29.7 6.25 29.85 6.15 30.0 6.0 30.15 5.85 30.25 5.7 30.4 5.55 30.5 5.4 30.6 5.2 30.7 5.05 30.75 4.85 30.85 4.65 30.95 4.7 31.0 4.75 31.1 4.8 31.2 4.85 31.35 4.9 31.45 4.95 31.6 5.0 31.75 5.05 31.9 5.1 32.05 5.1 32.25 5.15 32.4 5.15 32.55 5.15 32.7 5.1 32.9 5.1 33.05 5.05 33.3 4.95 33.5 4.8 33.7 4.6 33.85 4.4 34.0 4.15 34.15 3.85 34.25 3.55 34.35 3.2 34.45 2.9 34.45 2.5 34.5 2.1 34.45 1.7 34.4 1.3 34.3 0.85 34.2 0.4 34.05 -0.05 34.15 -0.1 34.25 -0.1 34.4 -0.15 34.5 -0.2 34.65 -0.3 34.75 -0.35 34.9 -0.4 35.0 -0.5 35.15 -0.6 35.3 -0.7 35.4 -0.8 35.55 -0.9 35.65 -1.05 35.75 -1.2 35.85 -1.35 35.95 -1.5 36.05 -1.65 36.1 -1.8 36.15 -1.95 36.2 -2.1 36.25 -2.25 36.25 -2.4 36.3 -2.55 36.3 -2.65 36.3 -2.8 36.3 -2.95 36.3 -3.05 36.3 -3.15 36.3 -3.25 36.3 -3.4 36.3 -3.45 36.25 -3.55 36.1 -4.8 35.85 -6.15 35.6 -7.35 35.3 -8.7 35.0 -9.85 34.65 -11.1 34.4 -12.15 34.05 -13.3 33.75 -14.2 33.45 -15.15 33.2 -15.9 32.95 -16.6 32.8 -17.1 32.65 -17.55 32.55 -17.7 32.5 -17.9 32.0 -19.15 31.55 -20.5 31.2 -21.4 30.8 -22.65 30.3 -24.1 30.2 -24.4 29.9 -25.3 29.7 -25.8 29.45 -26.45 29.2 -26.9 28.95 -27.35 28.7 -27.65 28.4 -28.0 28.1 -28.2 27.8 -28.4 27.4 -28.5 27.1 -28.6 26.75 -28.6 26.45 -28.65 26.15 -28.6 25.8 -28.6 25.5 -28.55 25.2 -28.45 24.9 -28.35 24.6 -28.25 24.3 -28.1 24.0 -27.95 23.7 -27.8 23.45 -27.65 23.2 -27.5 22.95 -27.3 22.7 -27.15 22.6 -27.2 22.5 -27.2 22.35 -27.25 22.2 -27.25 22.05 -27.3 21.9 -27.3 21.7 -27.35 21.5 -27.35 21.3 -27.35 21.1 -27.35 20.9 -27.35 20.65 -27.35 20.45 -27.3 20.2 -27.25 19.95 -27.2 19.7 -27.15 19.25 -27.0 18.85 -26.8 18.5 -26.6 18.15 -26.3 17.85 -26.05 17.6 -25.75 17.35 -25.5 17.15 -25.2 16.95 -24.95 16.8 -24.65 16.7 -24.4 16.55 -24.2 16.5 -24.0 16.4 -23.8 16.4 -23.7 16.35 -23.6 16.25 -23.65 16.2 -23.75 16.1 -23.8 16.0 -23.9 15.9 -23.95 15.8 -24.0 15.65 -24.1 15.55 -24.15 15.4 -24.2 15.3 -24.25 15.15 -24.3 15.0 -24.35 14.85 -24.35 14.7 -24.4 14.5 -24.4 14.35 -24.4 14.1 -24.4 13.8 -24.3 13.55 -24.2 13.3 -24.05 13.0 -23.9 12.8 -23.65 12.55 -23.45 12.35 -23.2 12.1 -22.9 11.95 -22.6 11.75 -22.3 11.65 -21.95 11.5 -21.55 11.4 -21.15 11.3 -20.75 11.3 -20.35 11.3 -20.35 11.15 -20.4 11.05 -20.4 10.9 -20.45 10.75 -20.45 10.6 -20.5 10.4 -20.5 10.2 -20.5 9.95 -20.5 9.75 -20.5 9.5 -20.45 9.25 -20.4 9.0 -20.35 8.75 -20.2 8.45 -20.1 8.25 -19.95 8.0 -19.8 7.8 -19.6 7.6 -19.45 7.45 -19.2 7.3 -19.0 7.15 -18.75 7.0 -18.55 6.9 -18.25 6.85 -18.0 6.75 -17.75 6.7 -17.45 6.7 -17.2 6.65 -16.9 6.7 -16.6 6.7 -16.3 6.75 -16.05 6.65 -16.05 6.6 -16.05 6.5 -16.1 6.35 -16.1 6.2 -16.1 6.05 -16.1 5.85 -16.1 5.65 -16.1 5.45 -16.1 5.2 -16.05 4.95 -16.0 4.75 -15.9 4.45 -15.85 4.2 -15.7 3.95 -15.6 3.7 -15.4 3.45 -15.25 3.2 -15.0 3.0 -14.85 2.85 -14.6 2.65 -14.4 2.55 -14.2 2.4 -14.0 2.3 -13.75 2.2 -13.6 2.15 -13.4 2.1 -13.25 2.05 -13.05 2.0 -12.95 2.0 -12.8 1.95 -12.75 1.95 -12.65 1.85 -12.6 1.75 -12.55 1.6 -12.45 1.5 -12.4 1.35 -12.35 1.2 -12.25 1.05 -12.15 0.9 -12.1 0.75 -12.0 0.6 -11.9 0.4 -11.8 0.25 -11.7 0.05 -11.55 -0.1 -11.45 -0.3 -11.35 -0.5 -11.2 -2.45 -9.95 -2.7 -9.85 -2.85 -9.8 -3.0 -9.75 -3.15 -9.7 -3.3 -9.65 -3.45 -9.6 -3.65 -9.55 -3.8 -9.5 -4.0 -9.5 -4.2 -9.45 -4.45 -9.45 -4.65 -9.45 -4.9 -9.45 -5.15 -9.45 -5.4 -9.45 -5.65 -9.5 -5.95 -9.55 -6.0 -9.6 -6.05 -9.7 -6.15 -9.75 -6.2 -9.85 -6.3 -10.0 -6.45 -10.1 -6.55 -10.2 -6.7 -10.3 -6.85 -10.45 -7.05 -10.55 -7.25 -10.7 -7.45 -10.8 -7.65 -10.9 -7.9 -11.0 -8.15 -11.1 -8.4 -11.15 -8.75 -11.2 -9.1 -11.25 -9.45 -11.25 -9.75 -11.2 -10.05 -11.15 -10.35 -11.05 -10.6 -11.0 -10.85 -10.9 -11.05 -10.8 -11.3 -10.7 -11.45 -10.6 -11.65 -10.5 -11.75 -10.4 -11.85 -10.3 -11.95 -10.25 -12.0 -10.2 -12.05 -10.25 -12.1 -10.35 -12.15 -10.45 -12.25 -10.55 -12.3 -10.7 -12.45 -10.8 -12.55 -10.95 -12.7 -11.1 -12.85 -11.25 -13.05 -11.4 -13.2 -11.55 -13.45 -11.7 -13.65 -11.85 -13.9 -11.95 -14.15 -12.05 -14.45 -12.15 -14.8 -12.25 -15.15 -12.25 -15.5 -12.3 -15.8 -12.25 -16.1 -12.25 -16.4 -12.15 -16.7 -12.1 -16.95 -12.0 -17.2 -11.9 -17.4 -11.8 -17.6 -11.7 -17.75 -11.6 -17.9 -11.55 -18.0 -11.45 -18.05 -11.4 -18.1 -11.35 -18.2 -11.45 -18.25 -11.5 -18.35 -11.6 -18.45 -11.7 -18.6 -11.8 -18.75 -11.9 -18.9 -12.05 -19.1 -12.15 -19.3 -12.25 -19.5 -12.35 -19.7 -12.5 -19.95 -12.55 -20.2 -12.65 -20.45 -12.75 -20.75 -12.8 -21.05 -12.8 -21.5 -12.85 -21.95 -12.8 -22.35 -12.75 -22.7 -12.65 -23.1 -12.55 -23.4 -12.4 -23.75 -12.25 -24.0 -12.05 -24.25 -11.9 -24.5 -11.7 -24.7 -11.55 -24.9 -11.35 -25.0 -11.25 -25.1 -11.1 -25.2 -11.05 -25.25 -11.0 -25.35 -11.05 -25.4 -11.1 -25.55 -11.2 -25.65 -11.25 -25.75 -11.35 -25.9 -11.4 -26.05 -11.5 -26.15 -11.55 -26.35 -11.65 -26.5 -11.7 -26.7 -11.75 -26.85 -11.8 -27.05 -11.85 -27.25 -11.9 -27.5 -11.95 -27.7 -12.0 -28.1 -12.05 -28.55 -12.0 -28.9 -11.95 -29.3 -11.85 -29.6 -11.8 -29.95 -11.65 -30.25 -11.5 -30.55 -11.35 -30.8 -11.2 -31.05 -11.05 -31.25 -10.9 -31.4 -10.75 -31.55 -10.65 -31.7 -10.5 -31.75 -10.45 -31.85 -10.35 -31.9 -10.4 -32.0 -10.45 -32.1 -10.5 -32.15 -10.5 -32.3 -10.55 -32.4 -10.6 -32.55 -10.65 -32.65 -10.7 -32.8 -10.75 -32.95 -10.75 -33.1 -10.8 -33.25 -10.8 -33.45 -10.8 -33.6 -10.8 -33.8 -10.8 -33.95 -10.75 -34.2 -10.7 -34.45 -10.6 -34.7 -10.5 -34.9 -10.4 -35.15 -10.25 -35.35 -10.1 -35.55 -9.9 -35.75 -9.7 -35.95 -9.5 -36.1 -9.3 -36.25 -9.05 -36.35 -8.8 -36.5 -8.55 -36.6 -8.25 -36.7 -8.0 -36.75 -7.7 L-36.75 -7.7" fill="#3e9dba" fill-rule="evenodd" stroke="none"/>
  </g>
</svg>
