<?xml version="1.0" encoding="UTF-8" standalone="no"?>
<svg xmlns:xlink="http://www.w3.org/1999/xlink" height="200.0px" width="300.0px" xmlns="http://www.w3.org/2000/svg">
  <g transform="matrix(1.0, 0.0, 0.0, 1.0, 150.0, 100.0)">
    <path d="M35.35 -63.45 Q35.35 -63.75 35.3 -63.9 35.3 -64.15 35.25 -64.35 35.25 -64.6 35.2 -64.8 35.2 -65.05 35.15 -65.3 35.1 -65.5 35.1 -65.75 35.05 -66.0 35.0 -66.2 34.95 -66.45 34.85 -66.7 34.8 -66.95 34.75 -67.25 34.45 -68.2 34.6 -67.75 34.5 -68.05 34.45 -68.25 34.35 -68.55 34.25 -68.75 34.15 -69.0 34.05 -69.25 33.95 -69.5 33.85 -69.7 33.75 -69.95 33.65 -70.15 33.5 -70.35 33.4 -70.5 33.25 -70.65 33.1 -70.8 32.75 -71.1 32.2 -71.25 31.7 -71.35 31.0 -71.3 30.35 -71.25 29.55 -71.05 28.8 -70.85 27.95 -70.5 27.15 -70.2 26.25 -69.75 25.4 -69.3 24.5 -68.8 23.65 -68.3 22.75 -67.75 21.9 -67.2 21.1 -66.6 19.8 -65.65 18.6 -64.6 17.45 -63.6 16.35 -62.5 15.25 -61.4 14.2 -60.2 13.25 -59.05 12.25 -57.7 11.3 -56.5 10.3 -55.05 9.4 -53.8 8.4 -52.25 7.55 -50.95 6.5 -49.25 5.75 -48.05 4.5 -46.05 3.35 -44.15 2.8 -43.15 2.85 -43.6 2.95 -44.1 3.0 -44.55 3.05 -44.95 3.05 -45.4 3.1 -45.8 3.15 -46.25 3.15 -46.65 3.2 -47.0 3.2 -47.4 3.2 -47.75 3.25 -48.1 3.25 -48.45 3.25 -48.75 3.25 -49.05 3.25 -49.35 3.25 -52.1 2.55 -57.0 2.1 -60.35 1.6 -62.65 1.4 -63.4 1.35 -63.65 1.25 -64.2 1.15 -64.6 1.0 -65.05 0.9 -65.45 0.8 -65.9 0.65 -66.3 0.55 -66.75 0.4 -67.15 0.25 -67.55 0.1 -67.95 -0.05 -68.35 -0.25 -68.75 -0.45 -69.15 -0.65 -69.6 -0.95 -70.2 -1.1 -70.45 -1.35 -70.95 -1.6 -71.3 -1.85 -71.8 -2.1 -72.15 -2.35 -72.6 -2.65 -72.95 -2.95 -73.35 -3.25 -73.65 -3.55 -73.95 -3.85 -74.2 -4.2 -74.45 -4.55 -74.6 -4.9 -74.75 -5.25 -74.75 -5.45 -74.75 -5.7 -74.75 -5.9 -74.7 -6.15 -74.6 -6.45 -74.5 -6.7 -74.3 -7.0 -74.15 -7.3 -73.85 -7.65 -73.55 -8.0 -73.15 -8.4 -72.7 -8.8 -72.15 -9.25 -71.55 -9.7 -70.85 -10.2 -70.1 -10.7 -69.2 -11.25 -68.3 -11.6 -67.65 -12.15 -66.65 -12.6 -65.75 -13.15 -64.65 -13.65 -63.55 -14.25 -62.3 -14.7 -61.05 -15.25 -59.65 -15.7 -58.2 -16.2 -56.65 -16.55 -55.05 -17.0 -53.35 -17.25 -51.6 -17.55 -49.7 -17.65 -47.8 -17.85 -45.3 -17.35 -37.9 -17.3 -37.3 -17.25 -36.85 -17.2 -36.3 -17.15 -35.85 -17.1 -35.4 -17.05 -35.0 -17.0 -34.55 -16.95 -34.15 -16.85 -33.75 -16.75 -33.35 -16.65 -32.95 -16.55 -32.6 -16.4 -32.2 -16.25 -31.8 -16.1 -31.45 -15.95 -31.05 -15.8 -30.7 -15.65 -30.4 -15.45 -30.1 -15.3 -29.8 -15.1 -29.55 -14.95 -29.25 -14.75 -29.0 -14.6 -28.75 -14.45 -28.5 -14.25 -28.3 -14.1 -28.1 -13.9 -27.9 -13.75 -27.7 -13.6 -27.5 -13.45 -27.35 -13.3 -27.2 -13.4 -27.1 -13.5 -27.0 -13.65 -26.9 -13.75 -26.75 -13.9 -26.65 -14.0 -26.5 -14.15 -26.4 -14.25 -26.25 -14.4 -26.1 -14.55 -25.95 -14.65 -25.8 -14.8 -25.65 -14.95 -25.5 -15.1 -25.3 -15.25 -25.15 -15.35 -24.95 -15.5 -24.75 -15.6 -24.6 -15.75 -24.45 -15.85 -24.3 -15.95 -24.15 -16.05 -24.0 -16.15 -23.85 -16.25 -23.7 -16.3 -23.55 -16.4 -23.45 -16.5 -23.3 -16.55 -23.15 -16.65 -23.0 -16.7 -22.85 -16.75 -22.65 -16.8 -22.5 -16.9 -22.25 -16.95 -21.95 -17.0 -21.75 -17.05 -21.5 -17.1 -21.35 -17.1 -21.1 -17.1 -21.15 -17.15 -20.75 -17.15 -20.5 -17.15 -20.35 -17.2 -20.2 -17.25 -20.0 -17.3 -19.8 -17.35 -19.65 -17.45 -19.4 -17.6 -19.2 -17.65 -19.1 -17.7 -19.0 -17.75 -18.9 -17.85 -18.85 -17.9 -18.75 -17.95 -18.65 -18.05 -18.6 -18.1 -18.5 -18.15 -18.45 -18.25 -18.35 -18.35 -18.25 -18.4 -18.2 -18.5 -18.1 -18.6 -18.0 -18.65 -17.95 -18.8 -17.85 -19.0 -17.65 -19.2 -17.5 -19.4 -17.3 -19.6 -17.2 -19.8 -17.05 -20.0 -16.9 -20.15 -16.8 -20.35 -16.7 -20.5 -16.6 -20.7 -16.5 -21.05 -16.3 -21.05 -16.3 -21.25 -16.2 -21.4 -16.1 -21.6 -15.95 -21.8 -15.85 -22.1 -15.65 -22.35 -15.45 -22.6 -15.25 -22.85 -15.05 -23.05 -14.85 -23.25 -14.65 -23.45 -14.45 -23.65 -14.25 -23.8 -14.1 -23.95 -13.9 -24.1 -13.75 -24.25 -13.6 -24.35 -13.45 -24.45 -13.3 -24.55 -13.2 -24.65 -13.1 -24.8 -12.9 -24.95 -12.7 -25.05 -12.5 -25.15 -12.3 -25.2 -12.15 -25.3 -11.95 -25.35 -11.85 -25.5 -11.6 -25.6 -11.3 -25.65 -11.15 -25.8 -10.85 -25.95 -10.6 -26.1 -10.25 -26.3 -9.9 -26.5 -9.5 -26.75 -9.0 -26.95 -8.65 -27.15 -8.35 -27.3 -8.05 -27.5 -7.8 -27.65 -7.55 -27.75 -7.35 -27.9 -7.2 -28.0 -7.05 -28.1 -6.9 -28.2 -6.75 -28.3 -6.65 -28.35 -6.6 -28.45 -6.5 -28.5 -6.45 -28.55 -6.4 -28.6 -6.35 -28.75 -6.2 -28.95 -6.05 -29.1 -5.95 -29.25 -5.8 -29.45 -5.7 -29.6 -5.6 -29.75 -5.5 -29.95 -5.4 -30.1 -5.3 -30.3 -5.2 -30.5 -5.15 -30.65 -5.05 -30.85 -5.0 -31.05 -4.9 -31.2 -4.85 -31.45 -4.75 -31.75 -4.6 -31.95 -4.55 -32.25 -4.4 -32.45 -4.35 -32.7 -4.25 -32.9 -4.15 -33.1 -4.1 -33.35 -4.05 -33.55 -3.95 -33.75 -3.9 -34.0 -3.9 -34.2 -3.85 -34.45 -3.8 -34.65 -3.8 -34.9 -3.8 -35.1 -3.8 -35.35 -3.8 -35.55 -3.85 -35.75 -3.85 -35.9 -3.9 -36.05 -3.95 -36.25 -4.0 -36.5 -4.05 -36.55 -4.05 -36.7 -4.1 -36.8 -4.1 -36.95 -4.1 -37.1 -4.1 -37.25 -4.15 -37.4 -4.1 -37.55 -4.1 -37.75 -4.05 -37.75 -4.05 -37.85 -4.0 -37.9 -4.0 -38.0 -3.95 -38.1 -3.9 -38.2 -3.85 -38.35 -3.8 -38.45 -3.7 -38.6 -3.65 -38.75 -3.55 -38.9 -3.45 -39.05 -3.3 -39.2 -3.15 -39.3 -3.0 -39.45 -2.85 -39.55 -2.65 -39.6 -2.6 -39.6 -2.55 -39.65 -2.45 -39.7 -2.4 -39.75 -2.25 -39.8 -2.15 -39.9 -2.05 -39.9 -1.9 -39.95 -1.75 -40.0 -1.65 -40.0 -1.5 -40.0 -1.35 -40.0 -1.2 -40.0 -1.05 -39.95 -0.95 -39.85 -0.8 -39.8 -0.75 -39.75 -0.7 -39.7 -0.65 -39.65 -0.6 -39.6 -0.55 -39.5 -0.5 -39.45 -0.5 -39.4 -0.45 -39.3 -0.45 -39.25 -0.45 -39.2 -0.4 -39.1 -0.4 -39.05 -0.4 -39.0 -0.4 -38.95 -0.35 -38.9 -0.35 -38.7 -0.35 -38.5 -0.35 -38.35 -0.35 -38.15 -0.4 -38.0 -0.4 -37.85 -0.45 -37.7 -0.5 -37.5 -0.6 -37.35 -0.65 -37.15 -0.75 -36.85 -0.85 -36.75 -0.9 -36.5 -1.0 -36.3 -1.1 -36.05 -1.2 -35.8 -1.3 -35.65 -1.35 -35.55 -1.35 -35.45 -1.4 -35.35 -1.45 -35.25 -1.45 -35.15 -1.45 -35.05 -1.5 -34.95 -1.5 -34.9 -1.5 -34.75 -1.55 -34.6 -1.55 -34.55 -1.55 -34.4 -1.6 -34.3 -1.6 -34.2 -1.65 -34.05 -1.65 -33.7 -1.7 -33.4 -1.8 -33.1 -1.9 -32.75 -2.0 -32.5 -2.1 -32.2 -2.2 -31.9 -2.3 -31.65 -2.45 -31.35 -2.55 -31.1 -2.7 -30.85 -2.8 -30.55 -2.95 -30.35 -3.05 -30.0 -3.2 -29.6 -3.45 -29.45 -3.5 -28.6 -3.95 -28.05 -4.15 -26.1 -4.95 -26.45 -4.8 -24.9 -5.45 -22.2 -6.7 -18.05 -8.6 -17.5 -8.95 -17.35 -9.05 -17.2 -9.15 -17.0 -9.25 -16.8 -9.4 -16.55 -9.55 -16.3 -9.75 -16.0 -10.0 -15.7 -10.25 -15.35 -10.5 -14.95 -10.85 -14.5 -11.2 -14.05 -11.6 -13.55 -12.05 -13.05 -12.55 -12.45 -13.1 -11.85 -13.7 -8.55 -16.85 -7.0 -18.75 -6.65 -19.2 -6.25 -19.65 -5.85 -20.2 -5.5 -20.75 -5.05 -21.4 -4.65 -22.05 -4.2 -22.75 -3.75 -23.5 -3.3 -24.3 -2.85 -25.15 -2.4 -26.05 -2.0 -27.0 -1.55 -28.0 -1.15 -29.0 -0.75 -30.1 -0.35 -31.25 -0.45 -30.6 -0.55 -30.0 -0.65 -29.3 -0.7 -28.6 -0.75 -27.85 -0.8 -27.1 -0.8 -26.3 -0.8 -25.5 -0.8 -24.65 -0.75 -23.8 -0.7 -22.9 -0.6 -22.05 -0.5 -21.1 -0.35 -20.2 -0.2 -19.25 0.05 -18.3 0.2 -17.6 0.4 -16.85 0.6 -16.2 0.8 -15.55 1.0 -14.95 1.2 -14.4 1.4 -13.85 1.6 -13.35 1.8 -12.9 2.0 -12.5 2.15 -12.15 2.3 -11.8 2.45 -11.5 2.55 -11.25 2.65 -11.1 2.75 -10.95 3.0 -10.45 3.25 -10.0 3.55 -9.55 3.8 -9.1 4.05 -8.7 4.35 -8.3 4.6 -7.95 4.85 -7.55 5.1 -7.2 5.35 -6.9 5.6 -6.55 5.85 -6.25 6.05 -6.0 6.3 -5.7 6.45 -5.5 6.7 -5.2 7.1 -4.7 10.75 -0.75 12.65 1.25 13.65 2.4 14.3 3.1 14.75 3.55 15.7 4.5 16.4 5.1 16.9 5.55 17.8 6.15 19.05 7.05 19.7 7.6 21.2 8.7 23.05 10.25 23.7 10.8 23.75 10.85 24.1 11.15 24.4 11.35 24.7 11.65 25.0 11.8 25.3 12.05 25.55 12.2 25.85 12.35 26.1 12.5 26.35 12.6 26.6 12.65 26.85 12.7 27.1 12.7 27.35 12.7 27.55 12.65 27.65 12.6 27.8 12.55 27.9 12.5 28.0 12.4 28.15 12.35 28.25 12.25 28.35 12.15 28.45 12.05 28.55 11.95 28.6 11.85 28.7 11.7 28.75 11.6 28.85 11.45 28.85 11.35 28.9 11.2 28.95 11.05 28.95 10.9 28.95 10.75 28.9 10.6 28.85 10.45 28.8 10.3 28.75 10.15 28.65 10.05 28.6 9.9 28.5 9.8 28.4 9.65 28.3 9.55 28.2 9.45 28.1 9.35 28.0 9.3 27.95 9.2 27.85 9.15 27.6 8.9 27.3 8.7 27.05 8.55 26.75 8.4 26.45 8.25 26.15 8.15 25.9 8.05 25.6 8.0 25.35 7.9 25.05 7.85 24.85 7.8 24.55 7.75 15.7 6.3 24.1 7.7 23.85 7.65 23.7 7.6 23.4 7.55 23.05 7.4 22.7 7.3 22.4 7.15 22.0 6.95 21.65 6.7 21.3 6.4 20.95 6.1 20.55 5.7 20.15 5.25 19.75 4.8 19.35 4.25 18.95 3.65 18.6 2.95 18.15 2.25 17.8 1.4 17.85 1.25 17.85 1.15 17.9 1.0 17.95 0.85 18.0 0.65 18.0 0.5 18.05 0.3 18.1 0.15 18.1 -0.05 18.15 -0.25 18.15 -0.5 18.2 -0.7 18.2 -0.9 18.2 -1.15 18.2 -1.4 18.2 -1.65 18.2 -2.05 18.1 -2.5 18.05 -2.85 17.95 -3.25 17.85 -3.65 17.75 -4.05 17.6 -4.4 17.4 -4.8 17.25 -5.15 17.05 -5.55 16.85 -5.95 16.6 -6.4 16.4 -6.75 16.1 -7.25 15.9 -7.6 15.55 -8.2 15.4 -8.4 15.3 -8.6 15.15 -8.8 15.0 -9.0 14.85 -9.25 14.7 -9.5 14.55 -9.75 14.4 -10.0 14.2 -10.25 14.0 -10.5 13.8 -10.75 13.6 -11.05 13.4 -11.35 13.2 -11.6 12.95 -11.9 12.75 -12.2 12.85 -12.4 12.9 -12.6 13.0 -12.85 13.1 -13.05 13.15 -13.35 13.25 -13.6 13.35 -13.9 13.4 -14.2 13.5 -14.5 13.55 -14.85 13.6 -15.2 13.65 -15.55 13.7 -15.95 13.75 -16.35 13.75 -16.75 13.75 -17.15 13.75 -17.5 13.75 -17.85 13.7 -18.2 13.65 -18.55 13.65 -18.85 13.55 -19.15 13.5 -19.45 13.45 -19.75 13.4 -20.0 13.3 -20.3 13.25 -20.5 13.2 -20.75 13.1 -21.0 13.05 -21.2 12.95 -21.4 12.9 -21.6 13.4 -21.7 13.9 -21.85 14.4 -21.95 14.85 -22.1 15.3 -22.25 15.7 -22.4 16.1 -22.55 16.45 -22.75 16.8 -22.9 17.15 -23.1 17.45 -23.25 17.75 -23.45 18.0 -23.6 18.25 -23.75 18.5 -23.9 18.7 -24.1 19.9 -25.0 23.25 -29.05 24.9 -31.0 25.95 -32.4 26.45 -33.1 26.6 -33.3 27.0 -33.8 27.3 -34.25 27.7 -34.8 28.05 -35.3 28.45 -35.85 28.8 -36.4 29.2 -37.05 29.55 -37.65 29.95 -38.3 30.35 -38.95 30.75 -39.65 31.1 -40.4 31.5 -41.15 31.85 -41.9 32.05 -42.35 32.3 -42.85 32.5 -43.35 32.75 -43.9 32.95 -44.5 33.15 -45.05 33.4 -45.7 33.6 -46.35 33.85 -47.0 34.05 -47.7 34.25 -48.45 34.45 -49.15 34.65 -49.95 34.8 -50.75 35.0 -51.55 35.15 -52.4 35.2 -52.65 35.2 -52.85 35.25 -53.1 35.25 -53.35 35.3 -53.6 35.3 -53.85 35.35 -54.1 35.35 -54.35 35.4 -54.6 35.4 -54.85 35.45 -55.1 35.45 -55.4 35.45 -55.65 35.45 -55.95 35.45 -56.2 35.5 -56.5 35.5 -57.85 35.4 -58.8 35.45 -59.15 35.45 -59.5 35.45 -59.8 35.45 -60.15 35.45 -60.45 35.5 -60.8 35.5 -61.1 35.45 -61.4 35.45 -61.65 35.45 -61.95 35.45 -62.2 35.45 -62.5 35.4 -62.75 35.4 -63.0 35.4 -63.2 35.35 -63.45 L35.35 -63.45 M-13.0 -62.3 Q-12.9 -62.45 -12.75 -63.4 -12.7 -63.55 -12.7 -63.65 -12.65 -63.8 -12.6 -63.95 -12.55 -64.05 -12.45 -64.2 -12.4 -64.3 -12.35 -64.45 -12.25 -64.55 -12.15 -64.65 -12.1 -64.75 -12.0 -64.85 -11.85 -64.95 -11.75 -65.0 -11.65 -65.1 -11.5 -65.15 -11.45 -65.2 -11.4 -65.2 -11.35 -65.2 -11.3 -65.2 -11.25 -65.2 -11.2 -65.2 -11.15 -65.2 -11.1 -65.2 -11.05 -65.15 -11.0 -65.15 -10.95 -65.1 -10.95 -65.05 -10.9 -65.05 -10.85 -65.0 -10.85 -64.95 -10.8 -64.9 -10.8 -64.85 -10.75 -64.75 -10.75 -64.7 -10.75 -64.65 -10.75 -64.55 -10.75 -64.5 -10.75 -64.4 -10.75 -64.35 -10.75 -64.3 -10.8 -64.2 -10.8 -64.15 -10.8 -64.1 -10.85 -64.0 -10.85 -63.95 -10.9 -63.9 -10.9 -63.85 -10.9 -63.8 -10.9 -63.75 -11.35 -62.3 -11.5 -61.9 -11.5 -61.9 -11.55 -61.75 -11.6 -61.7 -11.65 -61.6 -11.65 -61.55 -11.7 -61.5 -11.75 -61.4 -11.75 -61.35 -11.8 -61.3 -11.85 -61.2 -11.85 -61.15 -11.9 -61.1 -11.95 -61.05 -12.0 -60.95 -12.05 -60.9 -12.1 -60.85 -12.15 -60.8 -12.2 -60.75 -12.25 -60.75 -12.3 -60.7 -12.35 -60.65 -12.45 -60.65 -12.5 -60.6 -12.55 -60.6 -12.65 -60.6 -12.7 -60.6 -12.75 -60.6 -12.85 -60.6 -12.9 -60.6 -12.95 -60.65 -13.0 -60.65 -13.05 -60.7 -13.05 -60.7 -13.1 -60.75 -13.15 -60.75 -13.15 -60.75 -13.2 -60.8 -13.2 -60.8 -13.25 -60.8 -13.25 -60.85 -13.3 -60.85 -13.3 -60.9 -13.3 -60.9 -13.35 -60.95 -13.35 -60.95 -13.35 -61.0 -13.35 -61.05 -13.4 -61.05 -13.4 -61.1 -13.4 -61.15 -13.4 -61.35 -13.0 -62.3 L-13.0 -62.3 M-15.65 -54.55 Q-15.65 -54.6 -15.6 -54.65 -15.6 -54.7 -15.55 -54.75 -15.55 -54.8 -15.5 -54.85 -15.45 -54.9 -15.4 -54.95 -15.4 -54.95 -15.35 -55.0 -15.3 -55.05 -15.25 -55.05 -15.2 -55.1 -15.15 -55.1 -15.1 -55.15 -15.05 -55.15 -15.0 -55.15 -14.95 -55.15 -14.9 -55.2 -14.85 -55.15 -14.8 -55.15 -14.8 -55.15 -14.75 -55.15 -14.7 -55.1 -14.65 -55.1 -14.6 -55.05 -14.6 -55.0 -14.55 -55.0 -14.5 -54.95 -14.5 -54.9 -14.5 -54.85 -14.45 -54.8 -14.45 -54.75 -14.45 -54.7 -14.45 -54.65 -14.45 -54.65 -14.45 -54.6 -14.45 -54.55 -14.4 -54.7 -14.5 -54.4 -14.55 -54.35 -14.5 -54.45 -14.5 -54.4 -14.55 -54.35 -14.55 -54.35 -14.6 -54.3 -14.6 -54.25 -14.65 -54.25 -14.65 -54.2 -14.7 -54.2 -14.7 -54.2 -14.7 -54.15 -14.7 -54.1 -14.7 -54.05 -14.7 -54.0 -14.7 -53.95 -14.7 -53.9 -14.7 -53.9 -14.7 -53.85 -14.75 -53.8 -14.75 -53.75 -14.8 -53.7 -14.85 -53.7 -14.85 -53.65 -14.9 -53.65 -14.95 -53.6 -15.0 -53.6 -15.05 -53.55 -15.1 -53.55 -15.15 -53.55 -15.2 -53.55 -15.2 -53.55 -15.25 -53.55 -15.3 -53.55 -15.35 -53.6 -15.4 -53.6 -15.45 -53.65 -15.45 -53.65 -15.5 -53.7 -15.55 -53.75 -15.55 -53.8 -15.6 -53.8 -15.6 -53.85 -15.6 -53.9 -15.6 -53.95 -15.65 -54.0 -15.65 -54.05 -15.65 -54.05 -15.65 -54.1 -15.65 -54.15 -15.65 -54.2 -15.65 -54.25 -15.65 -54.3 -15.65 -54.3 -15.65 -54.35 -15.65 -54.4 -15.65 -54.45 -15.65 -54.5 -15.65 -54.55 -15.65 -54.55 L-15.65 -54.55 M-15.5 -33.95 Q-15.55 -33.95 -15.6 -33.95 -15.7 -33.95 -15.75 -34.0 -15.75 -34.0 -15.8 -34.05 -15.85 -34.1 -15.9 -34.1 -15.9 -34.15 -15.95 -34.2 -15.95 -34.25 -15.95 -34.3 -15.95 -34.35 -15.95 -34.4 -16.0 -34.45 -15.95 -34.5 -15.95 -34.5 -15.95 -34.5 -15.95 -34.55 -16.0 -34.6 -16.0 -34.65 -16.05 -34.7 -16.05 -34.7 -16.05 -34.75 -16.1 -34.8 -16.1 -34.85 -16.1 -34.9 -16.1 -34.95 -16.1 -35.0 -16.1 -35.05 -16.1 -35.1 -16.1 -35.15 -16.1 -35.2 -16.1 -35.25 -16.1 -35.3 -16.1 -35.35 -16.1 -35.4 -16.05 -35.45 -16.05 -35.45 -16.05 -35.5 -16.0 -35.55 -15.95 -35.55 -15.95 -35.6 -15.9 -35.65 -15.85 -35.65 -15.85 -35.65 -15.8 -35.7 -15.75 -35.7 -15.7 -35.7 -15.65 -35.7 -15.6 -35.7 -15.55 -35.7 -15.5 -35.7 -15.5 -35.7 -15.45 -35.65 -15.4 -35.65 -15.35 -35.6 -15.35 -35.6 -15.3 -35.6 -15.3 -35.55 -15.25 -35.5 -15.25 -35.5 -15.2 -35.45 -15.2 -35.45 -15.2 -35.45 -15.2 -35.35 -15.2 -35.3 -15.15 -35.25 -15.15 -35.25 -15.15 -35.2 -15.15 -35.15 -15.15 -35.1 -15.15 -35.1 -15.15 -35.05 -15.15 -35.0 -15.15 -34.95 -15.1 -34.95 -15.1 -34.9 -15.1 -34.85 -15.1 -34.8 -15.05 -34.8 -15.05 -34.75 -15.05 -34.7 -15.05 -34.65 -15.05 -34.6 -15.05 -34.55 -15.05 -34.5 -15.05 -34.5 -15.05 -34.45 -15.05 -34.4 -15.05 -34.35 -15.05 -34.3 -15.1 -34.25 -15.1 -34.2 -15.1 -34.15 -15.15 -34.1 -15.2 -34.1 -15.2 -34.05 -15.25 -34.0 -15.3 -34.0 -15.35 -33.95 -15.4 -33.95 -15.45 -33.95 -15.5 -33.95 L-15.5 -33.95 M-15.55 -23.45 Q-15.5 -23.55 -15.4 -23.6 -15.35 -23.65 -15.25 -23.65 -15.15 -23.65 -15.05 -23.65 -14.95 -23.6 -14.9 -23.6 -14.8 -23.55 -14.75 -23.45 -14.7 -23.4 -14.65 -23.3 -14.65 -23.25 -14.65 -23.15 -14.65 -23.05 -14.7 -22.95 -14.75 -22.95 -14.75 -22.9 -14.75 -22.8 -14.8 -22.8 -14.8 -22.75 -14.85 -22.65 -14.85 -22.6 -14.85 -22.55 -14.9 -22.45 -14.9 -22.4 -14.9 -22.35 -14.9 -22.3 -14.95 -22.2 -14.95 -22.15 -14.95 -22.1 -14.95 -22.0 -14.95 -21.95 -14.95 -21.9 -14.95 -21.8 -14.95 -21.75 -14.95 -21.7 -14.95 -21.65 -15.0 -21.6 -15.0 -21.6 -15.0 -21.55 -15.05 -21.5 -15.05 -21.45 -15.1 -21.45 -15.1 -21.4 -15.05 -21.35 -15.0 -21.25 -15.05 -21.15 -15.05 -21.05 -15.1 -21.0 -15.15 -20.9 -15.2 -20.85 -15.3 -20.8 -15.35 -20.8 -15.45 -20.75 -15.55 -20.75 -15.65 -20.75 -15.7 -20.8 -15.8 -20.85 -15.85 -20.9 -15.95 -21.0 -15.95 -21.1 -16.0 -21.25 -16.05 -21.4 -16.05 -21.55 -16.05 -21.7 -16.05 -21.85 -16.05 -22.0 -16.05 -22.15 -16.0 -22.3 -16.0 -22.45 -15.95 -22.6 -15.9 -22.75 -15.8 -22.9 -15.75 -23.05 -15.7 -23.15 -15.6 -23.3 -15.55 -23.45 L-15.55 -23.45 M-19.1 -16.6 Q-18.4 -16.9 -18.35 -16.95 -18.3 -16.95 -18.25 -17.0 -18.25 -17.0 -18.2 -17.0 -18.15 -17.0 -18.1 -17.0 -18.05 -17.0 -18.0 -17.0 -17.95 -16.95 -17.9 -16.95 -17.85 -16.95 -17.85 -16.9 -17.8 -16.85 -17.75 -16.85 -17.75 -16.8 -17.7 -16.75 -17.7 -16.7 -17.65 -16.65 -17.65 -16.6 -17.65 -16.6 -17.65 -16.55 -17.65 -16.5 -17.65 -16.45 -17.65 -16.4 -17.65 -16.35 -17.7 -16.3 -17.7 -16.3 -17.75 -16.25 -17.75 -16.2 -17.8 -16.15 -17.85 -16.15 -17.9 -16.1 -17.95 -16.05 -18.0 -16.05 -18.05 -16.0 -18.1 -16.0 -18.15 -16.0 -18.2 -15.95 -18.2 -15.95 -18.25 -15.9 -18.3 -15.9 -18.35 -15.85 -18.45 -15.85 -18.45 -15.85 -18.5 -15.8 -18.55 -15.8 -18.6 -15.75 -18.65 -15.75 -18.7 -15.75 -18.75 -15.7 -18.8 -15.7 -18.85 -15.7 -18.85 -15.7 -18.9 -15.7 -18.95 -15.7 -19.0 -15.7 -19.05 -15.7 -19.1 -15.75 -19.15 -15.75 -19.15 -15.8 -19.2 -15.8 -19.25 -15.85 -19.25 -15.9 -19.3 -15.95 -19.3 -16.0 -19.35 -16.05 -19.35 -16.05 -19.35 -16.1 -19.35 -16.15 -19.35 -16.2 -19.35 -16.25 -19.35 -16.3 -19.35 -16.35 -19.3 -16.4 -19.3 -16.4 -19.25 -16.45 -19.25 -16.5 -19.2 -16.5 -19.15 -16.55 -19.1 -16.6 L-19.1 -16.6 M-25.05 -7.35 Q-25.15 -7.35 -25.25 -7.4 -25.35 -7.45 -25.4 -7.5 -25.45 -7.6 -25.45 -7.65 -25.5 -7.75 -25.5 -7.85 -25.5 -7.95 -25.45 -8.0 -25.45 -8.1 -25.4 -8.15 -25.3 -8.25 -25.25 -8.3 -25.15 -8.3 -25.05 -8.3 -24.95 -8.3 -24.85 -8.25 -24.75 -8.25 -24.7 -8.15 -24.65 -8.1 -24.6 -8.0 -24.6 -7.95 -24.6 -7.85 -24.6 -7.75 -24.6 -7.65 -24.65 -7.6 -24.7 -7.5 -24.75 -7.45 -24.85 -7.4 -24.95 -7.35 -25.05 -7.35 L-25.05 -7.35 M-24.25 -11.65 Q-24.2 -11.7 -24.15 -11.75 -24.1 -11.8 -24.05 -11.85 -24.05 -11.9 -24.0 -12.0 -23.95 -12.05 -23.95 -12.1 -23.9 -12.15 -23.85 -12.25 -23.8 -12.35 -23.8 -12.4 -23.75 -12.45 -23.75 -12.5 -23.7 -12.6 -23.65 -12.65 -23.6 -12.75 -23.5 -12.8 -23.45 -12.85 -23.35 -12.85 -23.25 -12.9 -23.15 -12.85 -23.1 -12.85 -23.0 -12.8 -22.95 -12.75 -22.85 -12.7 -22.8 -12.6 -22.8 -12.55 -22.75 -12.45 -22.75 -12.35 -22.8 -12.25 -22.85 -12.15 -22.9 -12.1 -22.95 -12.0 -22.95 -11.95 -23.0 -11.85 -23.05 -11.8 -23.1 -11.7 -23.15 -11.6 -23.15 -11.55 -23.2 -11.45 -23.25 -11.4 -23.3 -11.3 -23.35 -11.25 -23.4 -11.15 -23.45 -11.1 -23.5 -11.0 -23.6 -10.95 -23.7 -10.85 -23.75 -10.85 -23.85 -10.8 -23.95 -10.8 -24.0 -10.8 -24.1 -10.85 -24.2 -10.9 -24.25 -10.95 -24.3 -11.05 -24.35 -11.1 -24.4 -11.2 -24.4 -11.3 -24.4 -11.35 -24.35 -11.45 -24.35 -11.55 -24.25 -11.65 L-24.25 -11.65 M-9.7 -16.9 Q-9.75 -16.75 -9.8 -16.7 -9.8 -16.65 -9.85 -16.6 -9.85 -16.55 -9.85 -16.5 -9.9 -16.45 -9.95 -16.45 -9.95 -16.4 -10.0 -16.35 -10.0 -16.3 -10.05 -16.3 -10.1 -16.25 -10.15 -16.2 -10.15 -16.2 -10.2 -16.15 -10.25 -16.15 -10.3 -16.1 -10.3 -16.2 -10.3 -16.1 -10.3 -16.0 -10.3 -15.95 -10.3 -15.85 -10.35 -15.75 -10.4 -15.7 -10.4 -15.6 -10.45 -15.55 -10.55 -15.5 -10.6 -15.4 -10.65 -15.35 -10.7 -15.3 -10.8 -15.25 -10.9 -15.25 -10.95 -15.2 -11.05 -15.2 -11.15 -15.2 -11.25 -15.2 -11.3 -15.2 -11.4 -15.25 -11.5 -15.25 -11.55 -15.3 -11.65 -15.3 -11.7 -15.35 -11.75 -15.4 -11.8 -15.45 -11.85 -15.55 -11.9 -15.6 -11.95 -15.7 -12.0 -15.75 -12.0 -15.85 -12.05 -15.95 -12.05 -16.0 -12.05 -16.05 -12.05 -16.15 -12.05 -16.2 -12.05 -16.25 -12.0 -16.35 -12.0 -16.4 -11.95 -16.45 -11.9 -16.5 -11.9 -16.6 -11.85 -16.65 -11.8 -16.7 -11.75 -16.75 -11.7 -16.8 -11.65 -16.8 -11.55 -16.85 -11.5 -16.85 -11.5 -16.9 -11.5 -16.9 -11.5 -16.95 -11.5 -17.0 -11.5 -17.05 -11.5 -17.1 -11.5 -17.15 -11.5 -17.15 -11.45 -17.2 -11.45 -17.25 -11.45 -17.3 -11.4 -17.35 -11.4 -17.4 -11.4 -17.4 -11.4 -17.45 -11.35 -17.55 -11.3 -17.6 -11.25 -17.65 -11.25 -17.7 -11.2 -17.75 -11.15 -17.8 -11.1 -17.85 -11.05 -17.9 -10.95 -17.95 -10.9 -18.0 -10.85 -18.0 -10.8 -18.05 -10.7 -18.05 -10.65 -18.05 -10.6 -18.05 -10.5 -18.05 -10.4 -18.05 -10.35 -18.0 -10.25 -18.0 -10.15 -17.95 -10.1 -17.95 -10.0 -17.9 -9.95 -17.85 -9.9 -17.8 -9.85 -17.7 -9.8 -17.65 -9.75 -17.55 -9.7 -17.5 -9.7 -17.4 -9.65 -17.3 -9.65 -17.25 -9.65 -17.2 -9.65 -17.15 -9.65 -17.1 -9.65 -17.05 -9.65 -17.0 -9.7 -17.0 -9.7 -16.95 -9.7 -16.9 L-9.7 -16.9 M-5.05 -25.85 Q-5.05 -25.85 -5.1 -25.75 -5.2 -25.7 -5.15 -25.7 -5.2 -25.65 -5.2 -25.65 -5.25 -25.6 -5.25 -25.55 -5.35 -25.4 -5.5 -25.05 -5.95 -24.3 -6.1 -24.05 -6.7 -23.2 -7.7 -22.05 -9.3 -20.25 -9.35 -20.2 -9.4 -20.15 -9.45 -20.1 -9.55 -20.0 -9.6 -19.95 -9.65 -19.9 -9.7 -19.85 -9.75 -19.8 -9.8 -19.75 -9.9 -19.7 -9.95 -19.65 -10.0 -19.6 -10.05 -19.55 -10.15 -19.5 -10.2 -19.45 -10.25 -19.4 -10.3 -19.35 -10.35 -19.3 -10.55 -19.15 -10.7 -19.05 -10.8 -19.0 -10.8 -19.0 -10.85 -18.95 -10.9 -18.9 -10.9 -18.85 -10.95 -18.85 -10.95 -18.8 -11.0 -18.8 -11.0 -18.75 -11.05 -18.75 -11.05 -18.7 -11.05 -18.65 -11.05 -18.65 -11.05 -18.6 -11.1 -18.6 -11.1 -18.55 -11.1 -18.55 -11.1 -18.5 -11.15 -18.5 -11.15 -18.45 -11.15 -18.4 -11.15 -18.4 -11.2 -18.35 -11.2 -18.35 -11.25 -18.3 -11.25 -18.3 -11.25 -18.25 -11.45 -18.0 -12.1 -17.25 -12.65 -16.6 -13.0 -16.2 -13.05 -16.15 -13.1 -16.05 -13.15 -16.0 -13.2 -15.95 -13.3 -15.9 -13.35 -15.8 -13.4 -15.75 -13.45 -15.7 -13.55 -15.65 -13.6 -15.6 -13.65 -15.5 -13.7 -15.45 -13.8 -15.4 -13.85 -15.35 -13.95 -15.3 -14.0 -15.25 -14.3 -15.05 -14.5 -14.9 -14.55 -14.9 -14.6 -14.85 -14.6 -14.85 -14.65 -14.8 -14.7 -14.75 -14.75 -14.75 -14.75 -14.7 -14.75 -14.65 -14.8 -14.6 -14.8 -14.55 -14.8 -14.55 -14.85 -14.5 -14.85 -14.45 -14.85 -14.4 -14.9 -14.35 -14.9 -14.35 -14.95 -14.3 -15.0 -14.25 -15.0 -14.25 -15.05 -14.2 -15.1 -14.15 -15.1 -14.15 -15.15 -14.1 -15.2 -14.05 -15.25 -14.0 -15.35 -13.9 -15.5 -13.8 -15.75 -13.6 -16.0 -13.35 -16.4 -13.0 -17.4 -12.15 -17.95 -11.65 -18.0 -11.65 -18.8 -11.05 -18.75 -11.05 -18.75 -11.0 -18.7 -10.95 -18.65 -10.85 -18.65 -10.8 -18.6 -10.75 -18.6 -10.7 -18.6 -10.7 -18.6 -10.65 -18.6 -10.6 -18.6 -10.55 -18.6 -10.45 -18.6 -10.45 -18.65 -10.4 -18.65 -10.35 -18.65 -10.35 -18.65 -10.3 -18.65 -10.25 -18.65 -10.25 -18.65 -10.2 -18.65 -10.15 -18.65 -10.1 -18.65 -10.1 -18.65 -10.05 -18.65 -10.0 -18.7 -9.95 -18.7 -9.9 -18.7 -9.85 -18.75 -9.8 -18.75 -9.75 -18.8 -9.7 -18.85 -9.65 -18.85 -9.6 -18.9 -9.6 -18.9 -9.55 -18.95 -9.5 -19.0 -9.45 -19.05 -9.4 -19.05 -9.4 -19.1 -9.35 -19.15 -9.3 -19.2 -9.3 -19.2 -9.25 -19.25 -9.25 -19.3 -9.25 -19.35 -9.2 -19.4 -9.2 -19.45 -9.2 -19.5 -9.2 -19.55 -9.2 -19.6 -9.25 -19.6 -9.25 -19.65 -9.25 -19.7 -9.3 -19.75 -9.3 -19.8 -9.35 -19.85 -9.4 -19.85 -9.4 -19.9 -9.45 -19.9 -9.5 -19.9 -9.55 -19.9 -9.6 -19.9 -9.65 -19.9 -9.7 -19.9 -9.75 -19.9 -9.75 -19.9 -9.8 -19.9 -9.85 -19.85 -9.9 -19.85 -9.95 -19.8 -10.0 -19.8 -10.0 -19.65 -10.15 -19.65 -10.15 -19.65 -10.15 -19.65 -10.15 -19.6 -10.2 -19.6 -10.2 -19.6 -10.2 -19.6 -10.25 -19.6 -10.25 -19.6 -10.25 -19.6 -10.25 -19.55 -10.3 -19.55 -10.35 -19.55 -10.35 -19.55 -10.4 -19.5 -10.45 -19.55 -10.45 -19.55 -10.5 -19.55 -10.5 -19.6 -10.55 -19.7 -10.5 -19.8 -10.45 -19.9 -10.4 -20.0 -10.3 -20.1 -10.25 -20.2 -10.2 -20.35 -10.15 -20.45 -10.1 -20.55 -10.05 -20.65 -10.0 -20.75 -9.95 -20.9 -9.9 -21.0 -9.85 -21.1 -9.85 -21.25 -9.8 -21.35 -9.75 -21.4 -9.75 -21.4 -9.75 -21.45 -9.7 -21.45 -9.7 -21.5 -9.7 -21.55 -9.7 -21.55 -9.7 -21.6 -9.7 -21.65 -9.7 -21.65 -9.7 -21.7 -9.7 -21.7 -9.7 -21.75 -9.7 -21.8 -9.7 -21.8 -9.7 -21.85 -9.75 -21.9 -9.75 -21.95 -9.75 -22.05 -9.75 -22.1 -9.75 -22.15 -9.75 -22.2 -9.75 -22.25 -9.8 -22.3 -9.8 -22.4 -9.85 -22.45 -9.85 -22.5 -9.9 -22.55 -9.95 -22.6 -10.0 -22.65 -10.0 -22.65 -10.05 -22.7 -10.1 -22.75 -10.2 -22.8 -10.25 -22.8 -10.35 -22.85 -10.45 -22.85 -10.5 -22.85 -10.6 -22.85 -10.7 -22.85 -10.75 -22.8 -10.85 -22.75 -10.95 -22.75 -11.0 -22.7 -11.1 -22.65 -11.15 -22.6 -11.2 -22.5 -11.3 -22.45 -11.35 -22.45 -11.35 -22.4 -11.35 -22.4 -11.35 -22.4 -11.4 -22.35 -11.4 -22.35 -11.45 -22.3 -11.45 -22.3 -11.5 -22.25 -11.5 -22.25 -11.55 -22.2 -11.6 -22.1 -11.75 -21.95 -11.9 -21.9 -11.9 -21.7 -12.15 -21.1 -12.65 -20.25 -13.35 -20.25 -13.35 -20.2 -13.4 -19.9 -13.65 -19.65 -13.85 -19.45 -13.95 -19.15 -14.2 -18.6 -14.55 -17.85 -15.05 -17.75 -15.1 -17.4 -15.35 -16.85 -15.75 -16.15 -16.3 -16.0 -16.4 -15.95 -16.45 -15.9 -16.45 -15.9 -16.5 -15.85 -16.5 -15.8 -16.5 -15.75 -16.55 -15.7 -16.6 -15.6 -16.75 -15.55 -16.8 -15.5 -16.9 -15.5 -16.9 -15.45 -17.0 -15.4 -17.05 -15.4 -17.1 -15.35 -17.1 -15.35 -17.15 -15.3 -17.2 -15.25 -17.25 -15.25 -17.3 -15.2 -17.35 -15.2 -17.4 -15.15 -17.45 -15.15 -17.45 -15.1 -17.5 -15.1 -17.55 -15.1 -17.6 -15.05 -17.65 -15.05 -17.7 -15.0 -17.75 -15.0 -17.75 -15.0 -17.8 -15.0 -17.8 -15.0 -17.85 -14.95 -17.85 -14.95 -17.9 -14.95 -17.95 -14.95 -17.95 -14.95 -18.0 -14.9 -18.15 -14.85 -18.45 -14.8 -18.6 -14.75 -18.9 -14.7 -19.2 -14.65 -19.35 -13.9 -21.75 -13.55 -22.5 -13.45 -22.7 -13.35 -22.85 -13.25 -23.0 -13.2 -23.15 -13.1 -23.35 -13.0 -23.5 -12.85 -23.7 -12.75 -23.85 -12.65 -24.0 -12.55 -24.15 -12.4 -24.3 -12.3 -24.45 -12.15 -24.6 -12.0 -24.75 -11.9 -24.9 -11.75 -25.05 -11.6 -25.2 -11.45 -25.3 -11.3 -25.4 -11.15 -25.5 -10.95 -25.6 -10.8 -25.7 -10.65 -25.75 -10.45 -25.85 -10.3 -25.9 -10.1 -25.95 -9.95 -26.05 -9.75 -26.1 -9.55 -26.15 -9.35 -26.2 -9.2 -26.25 -9.0 -26.3 -8.45 -26.4 -5.95 -27.3 -5.8 -27.35 -5.65 -27.35 -5.5 -27.35 -5.4 -27.3 -5.25 -27.25 -5.15 -27.15 -5.05 -27.05 -4.95 -26.95 -4.9 -26.8 -4.85 -26.7 -4.8 -26.55 -4.8 -26.4 -4.85 -26.25 -4.9 -26.15 -4.95 -26.0 -5.05 -25.85 L-5.05 -25.85 M-10.8 -30.9 Q-10.75 -30.9 -10.7 -30.9 -10.65 -30.9 -10.6 -30.95 -10.45 -30.95 -10.15 -30.95 -9.4 -30.95 -9.3 -30.95 -9.2 -30.95 -9.1 -30.95 -9.05 -30.9 -8.95 -30.9 -8.9 -30.85 -8.8 -30.8 -8.75 -30.8 -8.7 -30.7 -8.6 -30.65 -8.55 -30.6 -8.5 -30.55 -8.5 -30.45 -8.45 -30.4 -8.4 -30.3 -8.4 -30.2 -8.4 -30.15 -8.4 -30.05 -8.4 -30.0 -8.4 -29.9 -8.45 -29.8 -8.45 -29.7 -8.5 -29.65 -8.55 -29.55 -8.6 -29.5 -8.65 -29.45 -8.75 -29.4 -8.8 -29.3 -8.9 -29.3 -8.95 -29.25 -9.05 -29.2 -9.15 -29.2 -9.2 -29.2 -9.3 -29.2 -9.45 -29.2 -9.6 -29.2 -9.75 -29.2 -9.85 -29.2 -10.0 -29.2 -10.2 -29.15 -10.25 -29.15 -10.4 -29.15 -10.55 -29.15 -10.7 -29.15 -10.8 -29.15 -10.95 -29.15 -11.05 -29.2 -11.2 -29.2 -11.35 -29.25 -11.45 -29.25 -11.55 -29.3 -11.65 -29.35 -11.75 -29.4 -11.85 -29.45 -11.95 -29.5 -12.05 -29.55 -12.15 -29.65 -12.25 -29.7 -12.3 -29.75 -12.4 -29.85 -12.5 -29.9 -12.55 -29.95 -12.65 -30.05 -12.8 -30.15 -12.85 -30.2 -12.9 -30.25 -12.95 -30.35 -13.0 -30.4 -13.05 -30.5 -13.1 -30.55 -13.1 -30.65 -13.1 -30.75 -13.1 -30.8 -13.1 -30.9 -13.1 -31.0 -13.1 -31.1 -13.05 -31.15 -13.05 -31.25 -13.0 -31.3 -12.95 -31.4 -12.9 -31.45 -12.85 -31.5 -12.75 -31.55 -12.7 -31.6 -12.65 -31.65 -12.55 -31.7 -12.45 -31.7 -12.4 -31.75 -12.3 -31.75 -12.2 -31.75 -12.1 -31.75 -12.05 -31.7 -11.95 -31.7 -11.85 -31.65 -11.8 -31.6 -11.7 -31.6 -11.65 -31.5 -11.55 -31.45 -11.4 -31.3 -11.25 -31.1 -11.15 -31.05 -11.15 -31.05 -11.1 -31.0 -11.1 -31.0 -11.05 -31.0 -11.05 -30.95 -11.05 -30.95 -11.0 -30.95 -10.95 -30.95 -10.95 -30.95 -11.0 -30.95 -10.95 -30.95 -10.9 -30.95 -11.0 -30.95 -10.95 -30.95 -10.85 -30.95 -10.8 -30.9 L-10.8 -30.9 M-4.2 -31.3 Q-4.2 -31.3 -4.25 -31.25 -4.25 -31.15 -4.3 -31.15 -4.3 -31.1 -4.3 -31.05 -4.35 -31.05 -4.35 -31.0 -4.35 -30.95 -4.4 -30.9 -4.45 -30.9 -4.5 -30.85 -4.5 -30.85 -4.55 -30.8 -4.6 -30.8 -4.65 -30.75 -4.7 -30.75 -4.75 -30.75 -4.8 -30.75 -4.85 -30.75 -4.85 -30.75 -4.9 -30.8 -4.95 -30.8 -5.0 -30.8 -5.05 -30.85 -5.1 -30.85 -5.1 -30.9 -5.15 -30.95 -5.15 -31.0 -5.2 -31.0 -5.2 -31.05 -5.2 -31.1 -5.25 -31.15 -5.25 -31.2 -5.25 -31.25 -5.25 -31.3 -5.2 -31.4 -5.2 -31.45 -5.2 -31.5 -5.15 -31.5 -5.15 -31.55 -5.15 -31.55 -5.1 -31.6 -5.1 -31.6 -5.1 -31.65 -5.05 -31.7 -5.0 -31.75 -5.0 -31.75 -4.95 -31.8 -4.9 -31.8 -4.85 -31.85 -4.8 -31.85 -4.75 -31.85 -4.7 -31.85 -4.65 -31.85 -4.65 -31.85 -4.6 -31.85 -4.55 -31.85 -4.5 -31.8 -4.45 -31.8 -4.4 -31.75 -4.35 -31.75 -4.35 -31.7 -4.3 -31.65 -4.3 -31.65 -4.25 -31.6 -4.25 -31.55 -4.25 -31.5 -4.2 -31.45 -4.2 -31.4 -4.2 -31.35 -4.2 -31.3 L-4.2 -31.3 M-0.65 -40.15 Q-0.7 -40.05 -0.75 -39.9 -0.75 -39.85 -0.7 -39.8 -0.7 -39.8 -0.7 -39.75 -0.65 -39.7 -0.65 -39.65 -0.65 -39.6 -0.65 -39.6 -0.65 -39.55 -0.65 -39.5 -0.65 -39.25 -0.7 -38.95 -0.75 -38.7 -0.8 -38.45 -0.9 -38.2 -0.95 -37.9 -1.05 -37.65 -1.15 -37.45 -1.25 -37.2 -1.4 -36.95 -1.5 -36.7 -1.65 -36.5 -1.8 -36.25 -2.0 -36.05 -2.15 -35.85 -2.3 -35.65 -2.6 -35.3 -3.0 -34.95 -3.35 -34.65 -3.75 -34.35 -4.15 -34.05 -4.55 -33.8 -4.95 -33.55 -5.4 -33.35 -5.85 -33.15 -6.3 -33.0 -6.8 -32.85 -7.25 -32.75 -7.75 -32.65 -8.2 -32.6 -8.7 -32.6 -9.15 -32.65 -9.35 -32.65 -9.5 -32.7 -9.7 -32.7 -9.85 -32.75 -10.05 -32.8 -10.2 -32.85 -10.4 -32.9 -10.55 -32.95 -10.75 -33.0 -10.9 -33.05 -11.05 -33.15 -11.25 -33.2 -11.4 -33.3 -11.55 -33.4 -11.7 -33.5 -11.85 -33.6 -12.0 -33.7 -12.1 -33.75 -12.25 -33.85 -12.35 -33.95 -12.5 -34.05 -12.6 -34.2 -12.7 -34.3 -12.8 -34.4 -12.9 -34.55 -13.0 -34.65 -13.1 -34.8 -13.2 -34.9 -13.25 -35.05 -13.3 -35.2 -13.4 -35.35 -13.4 -35.5 -13.45 -35.55 -13.45 -35.6 -13.5 -35.6 -13.5 -35.7 -13.55 -36.1 -13.8 -36.85 -14.05 -37.65 -14.15 -38.05 -14.2 -38.25 -14.3 -38.6 -14.45 -39.0 -14.45 -39.15 -14.5 -39.3 -14.55 -39.45 -14.6 -39.65 -14.65 -39.8 -14.7 -39.95 -14.7 -40.1 -14.75 -40.25 -14.8 -40.45 -14.85 -40.6 -14.9 -40.75 -14.9 -40.9 -14.95 -41.1 -14.95 -41.25 -15.0 -41.4 -15.05 -41.55 -15.05 -41.75 -15.2 -42.65 -15.2 -44.3 -15.2 -44.35 -15.2 -44.4 -15.2 -44.45 -15.15 -44.5 -15.15 -44.55 -15.15 -44.6 -15.15 -44.65 -15.1 -44.7 -15.1 -44.75 -15.05 -44.75 -15.05 -44.8 -15.0 -44.85 -14.95 -44.9 -14.95 -44.95 -14.9 -44.95 -14.85 -45.0 -14.8 -46.65 -14.8 -46.75 -14.8 -46.85 -14.8 -46.9 -14.8 -47.0 -14.8 -47.1 -14.8 -47.15 -14.8 -47.25 -14.8 -47.35 -14.8 -47.45 -14.8 -47.5 -14.8 -47.6 -14.8 -47.7 -14.75 -47.75 -14.75 -47.85 -14.75 -47.95 -14.7 -48.0 -14.7 -48.1 -14.6 -48.55 -14.4 -49.35 -14.05 -50.35 -13.95 -50.75 -13.95 -50.75 -13.95 -50.75 -13.7 -51.7 -13.6 -51.9 -13.6 -52.05 -13.5 -52.25 -13.5 -52.3 -13.5 -52.35 -13.5 -52.4 -13.5 -52.45 -13.5 -52.5 -13.5 -52.55 -13.5 -52.6 -13.5 -52.65 -13.5 -52.7 -13.5 -52.7 -13.5 -52.75 -13.5 -52.8 -13.45 -52.85 -13.45 -52.9 -13.45 -52.95 -13.45 -53.0 -13.45 -53.1 -13.45 -53.25 -13.4 -53.35 -13.4 -53.45 -13.4 -53.55 -13.35 -53.7 -13.35 -53.8 -13.3 -53.9 -13.3 -54.0 -13.25 -54.1 -13.2 -54.25 -13.2 -54.35 -13.15 -54.45 -13.1 -54.55 -13.1 -54.65 -13.05 -54.8 -12.3 -57.15 -10.45 -61.0 -10.25 -61.35 -10.1 -61.75 -10.1 -61.75 -10.05 -61.75 -10.05 -61.8 -10.05 -61.85 -10.05 -61.85 -10.05 -61.9 -9.95 -62.1 -9.85 -62.45 -9.7 -62.85 -9.65 -63.0 -9.6 -63.1 -9.6 -63.2 -9.55 -63.3 -9.5 -63.35 -9.45 -63.45 -9.4 -63.55 -9.35 -63.65 -9.3 -63.75 -9.25 -63.85 -9.2 -63.9 -9.15 -64.0 -9.1 -64.1 -9.05 -64.15 -8.95 -64.25 -8.9 -64.3 -8.85 -64.4 -8.7 -64.85 -8.25 -65.65 -7.8 -66.55 -7.65 -66.9 -7.65 -66.9 -7.6 -67.0 -7.6 -67.05 -7.5 -67.25 -7.5 -67.3 -7.5 -67.35 -7.45 -67.4 -7.45 -67.45 -7.45 -67.5 -7.4 -67.55 -7.4 -67.6 -7.4 -67.6 -7.35 -67.65 -7.35 -67.7 -7.35 -67.7 -7.35 -67.75 -7.3 -67.8 -7.3 -67.8 -7.3 -67.85 -7.25 -67.9 -7.25 -67.9 -7.25 -67.95 -7.2 -68.0 -7.2 -68.0 -7.2 -68.05 -7.15 -68.1 -7.1 -68.15 -7.05 -68.25 -7.0 -68.3 -6.95 -68.35 -6.95 -68.45 -6.9 -68.5 -6.85 -68.55 -6.75 -68.6 -6.7 -68.65 -6.65 -68.7 -6.6 -68.75 -6.55 -68.8 -6.5 -68.85 -6.4 -68.9 -6.35 -68.9 -6.3 -68.95 -6.25 -69.0 -6.25 -69.0 -6.2 -69.05 -6.15 -69.1 -6.15 -69.1 -6.1 -69.15 -6.05 -69.15 -6.0 -69.2 -5.95 -69.2 -5.9 -69.2 -5.9 -69.25 -5.85 -69.25 -5.8 -69.25 -5.75 -69.25 -5.7 -69.3 -5.65 -69.3 -5.5 -69.3 -5.3 -69.25 -5.15 -69.25 -5.0 -69.15 -4.85 -69.1 -4.7 -69.0 -4.55 -68.95 -4.45 -68.85 -4.3 -68.7 -4.2 -68.6 -4.1 -68.5 -4.0 -68.35 -3.9 -68.2 -3.8 -68.05 -3.7 -67.9 -3.65 -67.75 -3.6 -67.65 -3.55 -67.55 -3.45 -67.4 -3.4 -67.3 -3.35 -67.2 -3.3 -67.05 -3.25 -66.95 -3.2 -66.8 -3.15 -66.7 -3.1 -66.6 -3.05 -66.45 -3.0 -66.35 -2.95 -66.2 -2.9 -66.1 -2.85 -65.95 -2.8 -65.85 -2.75 -65.75 -2.75 -65.6 -2.7 -65.5 -2.7 -65.4 -2.65 -65.3 -2.65 -65.15 -2.6 -65.05 -2.6 -64.95 -2.6 -64.8 -2.55 -64.7 -2.55 -64.6 -2.5 -64.45 -2.5 -64.35 -2.5 -64.25 -2.45 -64.1 -2.45 -64.0 -2.4 -63.95 -2.4 -63.95 -2.35 -63.9 -2.3 -63.85 -2.3 -63.85 -2.25 -63.8 -2.25 -63.75 -2.2 -63.7 -2.2 -63.65 -2.15 -63.6 -2.15 -63.55 -2.15 -63.55 -2.1 -63.5 -2.1 -63.45 -2.1 -63.4 -2.1 -63.35 -2.1 -63.25 -2.1 -63.15 -2.1 -63.1 -2.1 -63.0 -2.05 -62.9 -2.05 -62.8 -2.05 -62.7 -2.05 -62.6 -2.05 -62.55 -2.0 -62.45 -2.0 -62.35 -2.0 -62.25 -2.0 -62.15 -1.95 -62.1 -1.95 -62.0 -1.95 -61.9 -1.9 -61.5 -1.85 -61.25 -1.8 -60.95 -1.75 -60.65 -1.7 -60.5 -1.7 -60.3 -1.65 -60.15 -1.6 -60.0 -1.6 -59.85 -1.55 -59.7 -1.5 -59.5 -1.5 -59.35 -1.45 -59.2 -1.45 -59.05 -1.45 -58.85 -1.4 -58.7 -1.4 -58.55 -1.4 -58.4 -1.35 -58.2 -1.35 -58.05 -1.3 -56.35 -1.25 -55.65 -1.25 -55.6 -1.0 -53.45 -0.8 -52.35 -0.65 -51.5 -0.55 -50.75 -0.5 -50.3 -0.5 -50.25 -0.5 -49.95 -0.5 -49.75 -0.5 -49.65 -0.5 -49.6 -0.45 -49.6 -0.45 -49.55 -0.45 -49.5 -0.45 -49.45 -0.45 -49.45 -0.4 -49.4 -0.4 -49.35 -0.4 -49.05 -0.4 -48.75 -0.4 -48.45 -0.4 -48.15 -0.35 -47.8 -0.35 -47.5 -0.35 -47.2 -0.35 -46.9 -0.35 -46.6 -0.35 -46.3 -0.3 -46.0 -0.3 -45.7 -0.3 -45.35 -0.25 -45.05 -0.25 -44.75 -0.25 -44.45 -0.25 -44.05 -0.2 -43.9 -0.2 -43.6 -0.2 -43.35 -0.2 -43.05 -0.2 -42.8 -0.2 -42.5 -0.2 -42.25 -0.2 -41.95 -0.25 -41.7 -0.3 -41.45 -0.35 -41.15 -0.4 -40.9 -0.45 -40.65 -0.55 -40.4 -0.65 -40.15 L-0.65 -40.15 M13.65 -56.5 Q13.7 -56.5 13.75 -56.55 13.8 -56.55 13.8 -56.55 13.85 -56.55 13.9 -56.55 13.95 -56.55 14.0 -56.55 14.05 -56.55 14.1 -56.5 14.1 -56.5 14.15 -56.5 14.2 -56.45 14.2 -56.4 14.25 -56.4 14.3 -56.35 14.3 -56.3 14.35 -56.25 14.35 -56.2 14.35 -56.15 14.35 -56.1 14.35 -56.05 14.35 -56.0 14.35 -55.95 14.35 -55.9 14.3 -55.9 14.3 -55.85 14.25 -55.8 14.2 -55.75 14.2 -55.75 14.15 -55.7 14.1 -55.7 14.1 -55.7 14.05 -55.65 14.05 -55.65 14.05 -55.65 14.05 -55.65 14.05 -55.65 14.05 -55.6 14.05 -55.55 14.05 -55.5 14.0 -55.45 14.0 -55.45 13.95 -55.4 13.95 -55.35 13.9 -55.35 13.85 -55.3 13.8 -55.25 13.8 -55.25 13.75 -55.25 13.7 -55.2 13.65 -55.2 13.6 -55.2 13.55 -55.2 13.5 -55.2 13.45 -55.2 13.45 -55.2 13.4 -55.25 13.35 -55.25 13.3 -55.25 13.25 -55.3 13.25 -55.35 13.2 -55.4 13.2 -55.4 13.15 -55.45 13.15 -55.5 13.1 -55.5 13.1 -55.55 13.1 -55.6 13.1 -55.65 13.1 -55.7 13.1 -55.8 13.1 -55.85 13.1 -55.9 13.15 -56.0 13.15 -56.05 13.2 -56.1 13.25 -56.15 13.25 -56.2 13.3 -56.25 13.35 -56.3 13.4 -56.35 13.45 -56.4 13.5 -56.45 13.55 -56.5 13.65 -56.5 L13.65 -56.5 M9.85 -51.05 Q9.95 -51.15 10.05 -51.25 10.15 -51.35 10.25 -51.45 10.4 -51.6 10.45 -51.7 10.55 -51.8 10.65 -51.95 10.75 -52.05 10.85 -52.2 10.9 -52.3 10.95 -52.45 11.05 -52.6 11.1 -52.7 11.15 -52.85 11.15 -53.0 11.2 -53.1 11.25 -53.2 11.3 -53.25 11.4 -53.3 11.45 -53.35 11.55 -53.35 11.65 -53.35 11.7 -53.35 11.8 -53.3 11.9 -53.25 11.95 -53.2 12.0 -53.15 12.05 -53.05 12.1 -52.95 12.1 -52.85 12.1 -52.75 12.1 -52.65 12.05 -52.6 12.05 -52.5 12.0 -52.4 11.95 -52.35 11.95 -52.25 11.9 -52.2 11.85 -52.1 11.85 -52.05 11.8 -51.95 11.75 -51.9 11.7 -51.8 11.65 -51.75 11.6 -51.65 11.55 -51.6 11.5 -51.55 11.5 -51.5 11.45 -51.5 11.45 -51.45 11.4 -51.4 11.4 -51.35 11.35 -51.35 11.35 -51.3 11.35 -51.25 11.3 -51.25 11.3 -51.2 11.25 -51.15 11.25 -51.15 11.2 -51.1 11.2 -51.1 11.15 -51.05 11.15 -51.0 11.15 -50.95 11.15 -50.95 11.2 -50.9 11.2 -50.9 11.2 -50.85 11.2 -50.85 11.2 -50.8 11.2 -50.75 11.2 -50.75 11.2 -50.7 11.2 -50.65 11.2 -50.65 11.2 -50.6 11.15 -50.6 11.15 -50.55 11.15 -50.5 11.1 -50.45 11.1 -50.45 11.05 -50.4 11.05 -50.35 11.0 -50.35 10.95 -50.3 10.95 -50.25 10.9 -50.25 10.9 -50.2 10.85 -50.2 10.8 -50.15 10.8 -50.1 10.75 -50.1 10.7 -50.05 10.7 -50.0 10.65 -50.0 10.4 -49.8 10.4 -49.75 10.4 -49.75 10.35 -49.75 10.35 -49.7 10.35 -49.7 10.35 -49.7 10.35 -49.7 10.35 -49.7 10.3 -49.6 10.3 -49.6 10.3 -49.6 10.3 -49.55 10.25 -49.55 10.25 -49.5 10.25 -49.45 10.2 -49.45 10.2 -49.4 10.15 -49.4 10.15 -49.35 10.1 -49.35 10.05 -49.35 10.05 -49.3 10.0 -49.3 9.95 -49.3 9.95 -49.3 9.9 -49.25 9.85 -49.25 9.85 -49.2 9.8 -49.15 9.75 -49.05 9.7 -49.0 9.65 -49.0 9.6 -48.95 9.55 -48.9 9.5 -48.9 9.4 -48.9 9.35 -48.9 9.3 -48.9 9.2 -48.9 9.15 -48.95 9.1 -49.0 9.05 -49.05 9.0 -49.1 8.9 -49.25 8.9 -49.4 8.85 -49.55 8.85 -49.65 8.9 -49.8 8.95 -49.95 9.0 -50.05 9.05 -50.2 9.15 -50.3 9.25 -50.45 9.3 -50.55 9.45 -50.65 9.55 -50.75 9.65 -50.85 9.7 -50.95 9.85 -51.05 L9.85 -51.05 M7.15 -47.1 Q7.15 -47.15 7.2 -47.2 7.2 -47.2 7.25 -47.25 7.3 -47.3 7.35 -47.3 7.35 -47.35 7.4 -47.35 7.45 -47.35 7.5 -47.35 7.5 -47.35 7.55 -47.35 7.6 -47.35 7.65 -47.35 7.65 -47.35 7.7 -47.3 7.75 -47.3 7.8 -47.3 7.8 -47.3 7.8 -47.3 7.85 -47.25 7.9 -47.25 7.9 -47.25 7.9 -47.25 7.95 -47.25 8.0 -47.25 8.05 -47.25 8.1 -47.2 8.15 -47.2 8.15 -47.15 8.2 -47.15 8.25 -47.1 8.25 -47.1 8.3 -47.05 8.3 -47.0 8.35 -46.95 8.35 -46.9 8.35 -46.85 8.35 -46.85 8.35 -46.8 8.35 -46.75 8.35 -46.7 8.35 -46.65 8.35 -46.6 8.3 -46.55 8.3 -46.5 8.25 -46.5 8.25 -46.45 8.2 -46.4 8.15 -46.4 8.1 -46.35 8.1 -46.35 8.05 -46.3 8.0 -46.3 7.95 -46.3 7.9 -46.3 7.85 -46.3 7.8 -46.3 7.8 -46.3 7.75 -46.3 7.7 -46.3 7.65 -46.35 7.65 -46.35 7.6 -46.35 7.55 -46.35 7.5 -46.4 7.5 -46.4 7.45 -46.4 7.4 -46.4 7.35 -46.45 7.35 -46.45 7.3 -46.45 7.25 -46.5 7.2 -46.5 7.2 -46.55 7.15 -46.6 7.15 -46.6 7.1 -46.65 7.1 -46.7 7.1 -46.75 7.05 -46.8 7.05 -46.85 7.05 -46.9 7.1 -46.95 7.1 -47.0 7.1 -47.05 7.1 -47.1 7.15 -47.1 L7.15 -47.1 M2.95 -40.4 Q2.95 -40.5 3.0 -40.6 3.0 -40.7 3.05 -40.8 3.1 -40.85 3.15 -40.95 3.2 -41.0 3.25 -41.1 3.35 -41.15 3.4 -41.2 3.5 -41.25 3.6 -41.3 3.65 -41.3 3.75 -41.3 3.85 -41.35 3.95 -41.35 4.0 -41.35 4.05 -41.3 4.1 -41.3 4.15 -41.3 4.2 -41.25 4.25 -41.25 4.25 -41.25 4.3 -41.25 4.4 -41.25 4.5 -41.2 4.6 -41.15 4.65 -41.1 4.75 -41.05 4.8 -40.95 4.85 -40.9 4.9 -40.8 4.95 -40.75 4.95 -40.65 5.0 -40.55 5.0 -40.45 5.0 -40.35 5.0 -40.25 4.95 -40.15 4.95 -40.05 4.95 -40.0 4.9 -39.95 4.85 -39.9 4.85 -39.85 4.8 -39.8 4.75 -39.75 4.75 -39.7 4.7 -39.65 4.65 -39.6 4.6 -39.55 4.55 -39.5 4.5 -39.5 4.45 -39.45 4.4 -39.4 4.35 -39.4 4.3 -39.35 4.15 -39.25 4.15 -39.2 4.1 -39.2 4.05 -39.15 4.0 -39.15 3.95 -39.15 3.9 -39.15 3.85 -39.15 3.8 -39.1 3.75 -39.1 3.7 -39.1 3.65 -39.15 3.6 -39.15 3.55 -39.15 3.5 -39.15 3.45 -39.15 3.4 -39.2 3.35 -39.2 3.3 -39.25 3.25 -39.25 3.25 -39.3 3.2 -39.35 3.15 -39.35 3.15 -39.4 3.1 -39.45 3.1 -39.5 3.05 -39.55 3.05 -39.6 3.05 -39.65 3.05 -39.7 3.05 -39.75 3.05 -39.8 3.05 -39.85 3.05 -39.9 3.05 -39.95 3.05 -39.95 3.0 -40.0 3.0 -40.0 3.0 -40.05 3.0 -40.1 3.0 -40.1 3.0 -40.15 2.95 -40.2 2.95 -40.2 2.95 -40.25 2.95 -40.3 2.95 -40.3 2.95 -40.35 2.95 -40.4 2.95 -40.4 L2.95 -40.4 M0.35 -54.15 Q0.35 -54.25 0.35 -54.35 0.4 -54.4 0.45 -54.45 0.5 -54.55 0.55 -54.55 0.65 -54.6 0.7 -54.6 0.8 -54.6 0.9 -54.6 0.95 -54.6 1.05 -54.55 1.1 -54.55 1.15 -54.45 1.2 -54.4 1.25 -54.35 1.3 -54.3 1.3 -54.3 1.3 -54.25 1.35 -54.25 1.35 -54.2 1.35 -54.15 1.4 -54.1 1.4 -54.05 1.4 -54.05 1.4 -54.0 1.4 -53.8 1.4 -53.2 1.4 -53.1 1.45 -52.9 1.55 -52.45 1.5 -52.6 1.55 -52.4 1.55 -52.3 1.6 -52.15 1.6 -52.0 1.65 -51.8 1.65 -51.7 1.65 -51.5 1.65 -51.35 1.65 -51.2 1.65 -51.05 1.6 -50.9 1.55 -50.75 1.5 -50.65 1.45 -50.55 1.4 -50.5 1.35 -50.45 1.25 -50.4 1.15 -50.4 1.1 -50.4 1.0 -50.4 0.9 -50.45 0.85 -50.5 0.75 -50.55 0.7 -50.6 0.65 -50.7 0.65 -50.8 0.6 -50.9 0.65 -51.0 0.65 -51.0 0.65 -51.0 0.65 -51.0 0.65 -51.05 0.6 -51.1 0.6 -51.1 0.55 -51.2 0.55 -51.35 0.5 -51.5 0.5 -51.6 0.5 -51.75 0.45 -51.85 0.45 -52.0 0.45 -52.15 0.45 -52.25 0.45 -52.4 0.45 -52.5 0.45 -52.65 0.45 -52.75 0.45 -52.9 0.45 -53.05 0.45 -53.2 0.45 -53.25 0.4 -53.3 0.4 -53.35 0.4 -53.45 0.4 -53.5 0.4 -53.55 0.35 -53.6 0.35 -53.65 0.35 -53.75 0.35 -53.8 0.35 -53.85 0.35 -53.9 0.35 -53.95 0.35 -54.05 0.35 -54.1 0.35 -54.15 L0.35 -54.15 M1.05 -47.65 Q0.95 -47.65 0.85 -47.7 0.75 -47.75 0.7 -47.8 0.65 -47.85 0.6 -47.95 0.6 -48.05 0.6 -48.15 0.6 -48.2 0.6 -48.3 0.65 -48.4 0.7 -48.45 0.75 -48.55 0.85 -48.55 0.95 -48.6 1.05 -48.6 1.15 -48.6 1.25 -48.55 1.35 -48.5 1.4 -48.45 1.45 -48.4 1.5 -48.3 1.5 -48.2 1.5 -48.15 1.5 -48.05 1.5 -47.95 1.45 -47.85 1.4 -47.8 1.35 -47.75 1.25 -47.7 1.15 -47.65 1.05 -47.65 L1.05 -47.65 M1.4 -32.95 Q1.4 -33.05 1.4 -33.3 1.45 -33.55 1.4 -33.65 1.4 -33.75 1.45 -33.85 1.5 -33.95 1.55 -34.0 1.6 -34.05 1.7 -34.1 1.8 -34.1 1.9 -34.1 1.95 -34.1 2.05 -34.1 2.15 -34.05 2.2 -34.0 2.3 -33.95 2.35 -33.85 2.35 -33.75 2.35 -33.65 2.35 -33.6 2.35 -33.5 2.35 -33.45 2.35 -33.35 2.35 -33.4 2.35 -33.25 2.35 -33.15 2.35 -33.1 2.35 -33.0 2.35 -32.95 2.35 -32.85 2.4 -32.8 2.4 -32.75 2.4 -32.65 2.45 -32.6 2.45 -32.55 2.5 -32.55 2.5 -32.5 2.55 -32.5 2.6 -32.45 2.6 -32.45 2.65 -32.4 2.65 -32.4 2.7 -32.35 2.75 -32.25 2.8 -32.15 2.85 -32.1 2.95 -32.0 2.95 -32.0 3.05 -31.85 3.15 -31.75 3.2 -31.7 3.25 -31.6 3.3 -31.5 3.35 -31.45 3.4 -31.35 3.45 -31.25 3.45 -31.15 3.5 -31.05 3.45 -30.9 3.45 -30.85 3.45 -30.75 3.4 -30.7 3.35 -30.65 3.35 -30.6 3.25 -30.55 3.2 -30.5 3.15 -30.5 3.1 -30.45 3.05 -30.45 2.95 -30.45 2.9 -30.45 2.85 -30.45 2.75 -30.5 2.7 -30.55 2.65 -30.6 2.55 -30.7 2.5 -30.75 2.45 -30.85 2.35 -30.95 2.3 -31.05 2.25 -31.15 2.15 -31.25 2.1 -31.3 2.05 -31.4 1.95 -31.5 1.9 -31.6 1.85 -31.7 1.8 -31.8 1.75 -31.9 1.65 -32.0 1.6 -32.1 1.6 -32.15 1.55 -32.2 1.55 -32.25 1.5 -32.3 1.5 -32.35 1.5 -32.4 1.5 -32.45 1.45 -32.5 1.45 -32.55 1.45 -32.6 1.45 -32.65 1.4 -32.75 1.4 -32.8 1.4 -32.85 1.4 -32.9 1.4 -32.95 L1.4 -32.95 M4.5 -11.85 Q4.5 -11.8 4.45 -11.75 4.45 -11.7 4.4 -11.7 4.35 -11.65 4.35 -11.6 4.3 -11.6 4.25 -11.55 4.2 -11.55 4.15 -11.55 4.1 -11.5 4.1 -11.5 4.05 -11.5 4.0 -11.5 3.95 -11.5 3.9 -11.5 3.7 -11.55 3.6 -11.65 3.45 -11.75 3.35 -11.9 3.25 -12.05 3.15 -12.2 3.1 -12.4 3.05 -12.55 3.0 -12.75 3.0 -12.95 2.95 -13.1 2.95 -13.35 2.95 -13.5 2.95 -13.7 2.95 -13.8 2.95 -14.0 2.95 -14.05 2.95 -14.1 2.95 -14.1 2.95 -14.15 2.95 -14.2 2.95 -14.2 3.0 -14.25 3.0 -14.25 3.0 -14.3 3.05 -14.3 3.05 -14.35 3.05 -14.35 3.1 -14.4 3.1 -14.4 3.15 -14.4 3.15 -14.45 3.2 -14.5 3.2 -14.5 3.25 -14.5 3.3 -14.55 3.3 -14.55 3.35 -14.55 3.4 -14.6 3.45 -14.6 3.5 -14.6 3.55 -14.6 3.6 -14.6 3.65 -14.6 3.7 -14.55 3.75 -14.55 3.8 -14.5 3.85 -14.5 3.9 -14.45 3.9 -14.4 3.95 -14.4 3.95 -14.35 3.95 -14.3 4.0 -14.25 4.0 -14.2 4.0 -14.15 4.0 -14.1 4.0 -14.05 4.0 -14.05 4.0 -14.0 4.05 -13.9 4.1 -13.75 4.1 -13.65 4.2 -13.5 4.25 -13.3 4.3 -13.2 4.35 -13.05 4.4 -12.95 4.45 -12.8 4.45 -12.7 4.5 -12.55 4.5 -12.4 4.5 -12.25 4.5 -12.15 4.5 -12.0 4.5 -11.85 L4.5 -11.85 M10.1 -3.4 Q10.1 -3.35 10.05 -3.35 10.05 -3.3 10.0 -3.3 9.95 -3.25 9.95 -3.25 9.9 -3.25 9.85 -3.2 9.85 -3.2 9.8 -3.2 9.75 -3.2 9.7 -3.2 9.65 -3.15 9.65 -3.2 9.6 -3.2 9.55 -3.2 9.5 -3.2 9.45 -3.25 9.4 -3.25 9.35 -3.3 9.35 -3.3 9.3 -3.35 9.25 -3.35 9.2 -3.4 9.2 -3.45 9.15 -3.45 9.15 -3.5 9.1 -3.55 9.1 -3.6 9.05 -3.65 9.05 -3.7 9.0 -3.75 9.0 -3.8 9.0 -3.8 9.0 -3.85 9.0 -3.9 8.95 -3.9 8.95 -3.95 8.95 -4.0 8.95 -4.05 8.95 -4.05 9.0 -4.1 9.0 -4.15 9.0 -4.15 9.0 -4.2 9.0 -4.25 9.0 -4.3 9.0 -4.3 9.0 -4.35 9.05 -4.4 9.05 -4.45 9.1 -4.5 9.15 -4.5 9.15 -4.55 9.2 -4.6 9.25 -4.6 9.3 -4.6 9.35 -4.65 9.35 -4.65 9.4 -4.65 9.45 -4.65 9.5 -4.65 9.55 -4.65 9.6 -4.65 9.65 -4.65 9.65 -4.65 9.7 -4.6 9.7 -4.6 9.75 -4.6 9.8 -4.55 9.8 -4.55 9.85 -4.5 9.85 -4.5 9.85 -4.45 9.9 -4.45 9.9 -4.4 9.9 -4.35 9.95 -4.35 9.95 -4.3 9.95 -4.25 10.0 -4.25 10.0 -4.2 10.05 -4.2 10.05 -4.15 10.1 -4.1 10.1 -4.1 10.15 -4.05 10.15 -4.0 10.15 -3.95 10.15 -3.95 10.2 -3.9 10.2 -3.85 10.2 -3.8 10.2 -3.8 10.2 -3.75 10.2 -3.7 10.2 -3.65 10.15 -3.65 10.15 -3.6 10.15 -3.55 10.15 -3.5 10.15 -3.5 10.1 -3.45 10.1 -3.4 L10.1 -3.4 M15.2 -4.25 Q15.2 -4.35 15.25 -4.45 15.3 -4.55 15.35 -4.6 15.4 -4.65 15.5 -4.7 15.55 -4.7 15.65 -4.7 15.75 -4.75 15.85 -4.7 15.9 -4.7 16.0 -4.65 16.05 -4.6 16.1 -4.5 16.15 -4.45 16.15 -4.35 16.2 -4.3 16.2 -4.3 16.25 -4.25 16.3 -4.2 16.3 -4.2 16.3 -4.15 16.35 -4.1 16.35 -4.05 16.35 -4.0 16.35 -3.95 16.4 -3.9 16.4 -3.85 16.4 -3.8 16.4 -3.7 16.4 -3.65 16.4 -3.6 16.4 -3.55 16.4 -3.5 16.35 -3.45 16.35 -3.4 16.35 -3.35 16.35 -3.3 16.35 -3.25 16.3 -3.15 16.3 -3.1 16.3 -3.1 16.25 -3.05 16.25 -3.0 16.25 -3.0 16.2 -2.95 16.2 -2.95 16.15 -2.9 16.15 -2.85 16.1 -2.85 16.1 -2.8 16.05 -2.8 16.05 -2.8 16.0 -2.75 16.0 -2.75 15.95 -2.7 15.95 -2.7 15.9 -2.7 15.85 -2.65 15.85 -2.65 15.8 -2.65 15.75 -2.65 15.75 -2.65 15.7 -2.65 15.65 -2.65 15.6 -2.65 15.55 -2.65 15.5 -2.7 15.5 -2.7 15.45 -2.75 15.4 -2.75 15.4 -2.8 15.35 -2.8 15.35 -2.85 15.3 -2.9 15.3 -2.95 15.25 -3.0 15.25 -3.05 15.25 -3.05 15.25 -3.1 15.2 -3.4 15.2 -4.25 L15.2 -4.25 M15.05 -0.35 Q15.3 -0.3 15.4 -0.3 15.45 -0.3 15.45 -0.3 15.5 -0.3 15.55 -0.25 15.55 -0.25 15.6 -0.25 15.65 -0.2 15.65 -0.2 15.7 -0.2 15.7 -0.15 15.75 -0.1 15.75 -0.1 15.8 -0.05 15.8 0.0 15.8 0.0 15.85 0.05 15.85 0.1 15.85 0.15 15.85 0.15 15.85 0.2 15.85 0.25 15.85 0.3 15.85 0.3 15.8 0.35 15.8 0.4 15.75 0.4 15.75 0.45 15.75 0.5 15.7 0.5 15.7 0.55 15.65 0.55 15.6 0.6 15.55 0.6 15.45 0.65 15.4 0.65 15.4 0.7 15.35 0.7 15.3 0.7 15.3 0.7 15.25 0.7 15.2 0.7 15.1 0.7 15.1 0.7 15.05 0.65 15.0 0.6 15.0 0.6 14.95 0.6 14.9 0.6 14.85 0.55 14.85 0.55 14.8 0.55 14.75 0.5 14.75 0.5 14.7 0.45 14.7 0.4 14.65 0.4 14.65 0.35 14.65 0.3 14.6 0.25 14.6 0.25 14.6 0.2 14.6 0.15 14.6 0.1 14.6 0.05 14.6 0.0 14.65 -0.05 14.65 -0.05 14.7 -0.1 14.7 -0.15 14.75 -0.2 14.75 -0.2 14.8 -0.25 14.85 -0.25 14.9 -0.3 14.95 -0.3 15.0 -0.3 15.05 -0.35 15.05 -0.35 L15.05 -0.35 M13.5 -2.7 Q13.45 -2.65 13.4 -2.55 13.3 -2.5 13.25 -2.5 13.15 -2.45 13.1 -2.45 13.0 -2.4 12.9 -2.4 12.85 -2.4 12.75 -2.4 12.65 -2.45 12.6 -2.45 12.5 -2.5 12.45 -2.55 12.35 -2.55 12.3 -2.6 12.25 -2.65 12.25 -2.65 12.2 -2.7 12.2 -2.7 12.2 -2.7 12.15 -2.7 12.15 -2.75 12.1 -2.75 12.05 -2.75 12.0 -2.8 11.95 -2.85 11.8 -2.95 11.65 -3.05 11.55 -3.15 11.5 -3.2 11.45 -3.25 11.4 -3.3 11.4 -3.35 11.35 -3.35 11.3 -3.45 11.25 -3.45 11.25 -3.55 11.2 -3.6 11.15 -3.65 11.1 -3.7 11.1 -3.75 11.05 -3.8 11.0 -3.85 11.0 -3.9 10.95 -3.95 10.6 -4.5 10.5 -4.65 10.45 -4.7 10.4 -4.75 10.4 -4.75 10.3 -4.85 10.2 -4.95 10.0 -5.1 9.2 -5.9 8.85 -6.25 8.8 -6.35 8.75 -6.4 8.7 -6.5 8.65 -6.55 8.6 -6.65 8.5 -6.75 8.45 -6.8 8.4 -6.9 8.35 -6.95 8.3 -7.05 8.25 -7.15 8.2 -7.2 8.15 -7.3 8.1 -7.4 8.1 -7.45 8.05 -7.55 7.95 -7.75 7.85 -7.9 7.75 -8.1 7.65 -8.25 7.55 -8.45 7.45 -8.65 7.35 -8.8 7.25 -9.0 7.15 -9.2 7.05 -9.35 7.0 -9.55 6.9 -9.75 6.8 -9.9 6.75 -10.1 6.65 -10.3 6.6 -10.5 6.2 -11.45 5.75 -13.1 5.65 -13.2 5.55 -13.35 5.45 -13.45 5.35 -13.6 5.3 -13.75 5.2 -13.9 5.15 -14.0 5.05 -14.15 5.0 -14.3 4.95 -14.5 4.9 -14.6 4.8 -14.8 4.8 -14.9 4.7 -15.1 4.65 -15.35 4.6 -15.4 4.6 -15.45 4.6 -15.45 4.55 -15.5 4.55 -15.55 4.55 -15.55 4.55 -15.6 4.5 -15.65 4.5 -15.65 4.5 -15.7 4.5 -15.75 4.45 -15.75 4.45 -15.8 4.45 -15.85 4.45 -15.85 4.4 -15.9 4.4 -15.95 4.4 -15.95 4.35 -16.0 4.35 -16.0 4.35 -16.05 4.3 -16.15 4.25 -16.25 4.2 -16.4 4.15 -16.4 4.0 -16.65 3.75 -17.2 3.5 -17.75 3.35 -18.05 3.35 -18.05 3.35 -18.1 3.35 -18.05 3.3 -18.2 3.25 -18.3 3.2 -18.4 3.2 -18.45 3.15 -18.5 3.15 -18.55 3.1 -18.55 3.1 -18.6 3.1 -18.65 3.05 -18.7 3.05 -18.75 3.05 -18.8 3.0 -18.85 3.0 -18.9 3.0 -18.9 3.0 -18.95 2.95 -19.0 2.95 -19.05 2.95 -19.1 2.9 -19.15 2.9 -19.2 2.9 -19.25 2.9 -19.25 2.85 -19.3 2.85 -19.35 2.85 -19.4 2.85 -19.45 2.75 -19.75 2.5 -20.9 2.45 -21.05 2.45 -21.15 2.45 -21.25 2.4 -21.35 2.4 -21.5 2.35 -21.6 2.35 -21.7 2.35 -21.8 2.3 -21.95 2.3 -22.05 2.3 -22.15 2.25 -22.3 2.25 -22.4 2.25 -22.5 2.25 -22.65 2.25 -22.75 2.25 -22.9 2.25 -23.05 2.25 -23.2 2.25 -23.35 2.25 -23.5 2.3 -23.65 2.3 -23.8 2.35 -23.95 2.4 -24.05 2.45 -24.2 2.5 -24.35 2.6 -24.45 2.65 -24.6 2.75 -24.7 2.9 -24.8 3.0 -24.9 3.05 -24.95 3.15 -25.0 3.25 -25.0 3.3 -25.05 3.4 -25.05 3.5 -25.05 3.55 -25.05 3.65 -25.0 3.75 -25.0 3.8 -24.95 3.9 -24.9 3.95 -24.85 4.05 -24.85 4.1 -24.75 4.15 -24.7 4.2 -24.65 4.2 -24.65 4.2 -24.6 4.25 -24.6 4.25 -24.55 4.3 -24.55 4.35 -24.5 4.35 -24.5 4.4 -24.45 4.4 -24.4 4.45 -24.4 4.45 -24.35 4.45 -24.3 4.45 -24.3 4.5 -24.3 4.45 -24.35 4.5 -24.3 4.5 -24.3 4.55 -24.25 4.55 -24.2 4.55 -24.2 4.6 -24.15 4.8 -24.05 4.9 -23.95 5.05 -23.85 5.25 -23.7 5.3 -23.6 5.45 -23.45 5.9 -23.05 6.3 -22.75 6.5 -22.5 6.9 -22.2 7.1 -22.0 7.15 -21.95 7.2 -21.95 7.25 -21.9 7.3 -21.9 7.35 -21.85 7.4 -21.8 7.45 -21.8 7.5 -21.75 7.55 -21.7 7.6 -21.7 7.65 -21.65 7.7 -21.6 7.75 -21.6 7.75 -21.55 7.8 -21.5 7.85 -21.5 7.95 -21.45 8.0 -21.35 8.1 -21.3 8.2 -21.25 8.3 -21.15 8.35 -21.1 8.45 -21.0 8.5 -20.9 8.6 -20.85 8.65 -20.75 8.7 -20.65 8.8 -20.6 8.85 -20.5 8.9 -20.4 8.95 -20.3 8.95 -20.2 8.95 -20.15 9.0 -20.1 9.0 -20.05 9.05 -20.05 9.05 -20.0 9.1 -19.95 9.1 -19.95 9.1 -19.9 9.15 -19.85 9.15 -19.85 9.15 -19.8 9.2 -19.75 9.2 -19.75 9.25 -19.7 9.25 -19.65 9.25 -19.65 9.3 -19.6 9.3 -19.55 9.35 -19.45 9.4 -19.35 9.45 -19.3 9.5 -19.2 9.5 -19.1 9.55 -19.05 9.6 -18.95 9.65 -18.85 9.65 -18.75 9.7 -18.65 9.75 -18.6 9.75 -18.5 9.8 -18.4 9.8 -18.3 9.8 -18.2 9.85 -18.1 9.85 -18.0 9.85 -17.95 9.9 -17.85 9.9 -17.75 9.9 -17.7 9.9 -17.6 9.9 -17.5 9.9 -17.4 9.9 -17.35 9.9 -17.25 9.9 -17.15 9.9 -17.1 9.9 -17.0 9.9 -16.9 9.85 -16.85 9.85 -16.75 9.85 -16.65 9.85 -16.55 9.85 -16.45 9.8 -16.35 9.8 -16.25 9.8 -16.15 9.75 -16.05 9.75 -15.95 9.7 -15.85 9.7 -15.75 9.65 -15.65 9.65 -15.55 9.6 -15.45 9.55 -15.35 9.55 -15.25 9.5 -15.15 9.45 -15.05 9.3 -14.8 9.2 -14.2 9.15 -13.95 9.15 -13.9 9.15 -13.9 9.15 -13.85 9.15 -13.8 9.15 -13.8 9.2 -13.6 9.35 -13.2 9.4 -12.9 9.4 -12.8 9.45 -12.65 9.45 -12.55 9.5 -12.45 9.5 -12.35 9.5 -12.2 9.55 -12.1 9.55 -12.0 9.55 -11.85 9.55 -11.75 9.55 -11.6 9.55 -11.5 9.55 -11.4 9.55 -11.25 9.55 -11.15 9.55 -11.05 9.55 -11.0 9.6 -11.0 9.6 -11.0 9.6 -10.95 9.6 -10.9 9.65 -10.85 9.7 -10.8 9.7 -10.75 9.85 -10.45 10.0 -10.3 10.0 -10.25 10.05 -10.25 10.05 -10.2 10.1 -10.15 10.1 -10.15 10.15 -10.1 10.15 -10.05 10.2 -10.05 10.2 -10.0 10.25 -9.95 10.25 -9.95 10.3 -9.9 10.3 -9.85 10.35 -9.85 10.35 -9.8 10.4 -9.8 10.4 -9.75 10.45 -9.7 10.45 -9.7 10.5 -9.65 10.5 -9.6 10.55 -9.55 10.5 -9.65 10.55 -9.6 10.55 -9.6 10.6 -9.5 11.1 -9.0 11.4 -8.65 11.5 -8.5 11.6 -8.4 11.75 -8.25 11.85 -8.1 11.95 -7.95 12.05 -7.85 12.15 -7.7 12.25 -7.55 12.35 -7.4 12.45 -7.3 12.55 -7.15 12.65 -7.0 12.75 -6.85 12.8 -6.7 12.9 -6.55 13.0 -6.4 13.1 -6.25 13.2 -6.05 13.3 -5.9 13.35 -5.7 13.45 -5.55 13.55 -5.35 13.6 -5.2 13.65 -5.0 13.75 -4.8 13.8 -4.65 13.85 -4.45 13.85 -4.25 13.9 -4.05 13.95 -3.85 13.95 -3.65 13.95 -3.45 13.95 -3.4 13.95 -3.35 13.95 -3.25 13.9 -3.2 13.9 -3.15 13.9 -3.1 13.85 -3.05 13.85 -3.0 13.8 -2.95 13.8 -2.9 13.75 -2.85 13.7 -2.8 13.65 -2.8 13.6 -2.75 13.55 -2.7 13.5 -2.7 L13.5 -2.7 M5.4 -28.35 Q5.4 -28.3 5.35 -28.3 5.3 -28.25 5.3 -28.25 5.25 -28.2 5.25 -28.2 5.2 -28.2 5.15 -28.15 5.15 -28.15 5.1 -28.15 5.05 -28.15 5.0 -28.15 4.95 -28.15 4.9 -28.15 4.85 -28.15 4.8 -28.15 4.75 -28.2 4.7 -28.2 4.75 -28.2 4.75 -28.2 4.7 -28.2 4.65 -28.25 4.6 -28.25 4.6 -28.25 4.55 -28.3 4.5 -28.3 4.5 -28.35 4.45 -28.4 4.45 -28.4 4.4 -28.45 4.4 -28.5 4.4 -28.55 4.4 -28.6 4.35 -28.65 4.35 -28.7 4.35 -28.75 4.35 -28.8 4.4 -28.85 4.4 -28.85 4.4 -28.9 4.45 -28.95 4.45 -28.95 4.45 -29.0 4.5 -29.05 4.5 -29.05 4.5 -29.1 4.55 -29.15 4.55 -29.15 4.6 -29.2 4.6 -29.2 4.65 -29.25 4.7 -29.25 4.7 -29.25 4.75 -29.3 4.8 -29.3 4.85 -29.3 4.85 -29.3 4.9 -29.3 4.95 -29.3 5.0 -29.3 5.05 -29.3 5.1 -29.25 5.15 -29.25 5.2 -29.2 5.2 -29.2 5.25 -29.15 5.3 -29.1 5.3 -29.1 5.35 -29.05 5.35 -29.05 5.35 -29.0 5.4 -28.95 5.4 -28.9 5.4 -28.9 5.4 -28.85 5.45 -28.85 5.45 -28.85 5.45 -28.75 5.45 -28.7 5.45 -28.65 5.45 -28.6 5.45 -28.55 5.45 -28.55 5.45 -28.5 5.45 -28.45 5.45 -28.4 5.4 -28.4 5.4 -28.35 L5.4 -28.35 M13.0 -9.9 Q13.05 -9.85 13.05 -9.85 13.05 -9.8 13.1 -9.75 13.1 -9.7 13.1 -9.7 13.1 -9.65 13.1 -9.6 13.15 -9.55 13.15 -9.5 13.2 -9.5 13.2 -9.45 13.2 -9.4 13.2 -9.35 13.2 -9.3 13.2 -9.25 13.2 -9.2 13.2 -9.2 13.2 -9.15 13.15 -9.1 13.15 -9.05 13.15 -9.05 13.15 -9.0 13.1 -8.95 13.1 -8.9 13.05 -8.9 13.05 -8.9 13.0 -8.85 13.0 -8.85 13.0 -8.8 12.95 -8.8 12.95 -8.8 12.9 -8.75 12.9 -8.75 12.85 -8.75 12.8 -8.75 12.8 -8.75 12.75 -8.75 12.75 -8.7 12.7 -8.7 12.65 -8.7 12.65 -8.7 12.6 -8.7 12.55 -8.75 12.55 -8.75 12.5 -8.75 12.5 -8.75 12.45 -8.8 12.45 -8.8 12.4 -8.8 12.4 -8.85 12.35 -8.85 12.35 -8.9 12.35 -8.9 12.3 -8.95 12.3 -8.95 12.35 -8.9 12.25 -8.95 12.25 -9.0 12.25 -9.0 12.25 -9.05 12.2 -9.05 12.15 -9.1 12.1 -9.2 12.0 -9.25 11.85 -9.45 11.8 -9.5 11.8 -9.5 11.75 -9.55 11.75 -9.6 11.7 -9.6 11.7 -9.65 11.7 -9.7 11.7 -9.75 11.7 -9.8 11.7 -9.8 11.7 -9.85 11.65 -9.85 11.65 -9.9 11.65 -9.95 11.65 -9.95 11.6 -10.0 11.6 -10.05 11.6 -10.05 11.6 -10.1 11.6 -10.15 11.6 -10.15 11.65 -10.2 11.65 -10.25 11.65 -10.25 11.65 -10.3 11.65 -10.35 11.7 -10.4 11.7 -10.4 11.75 -10.45 11.8 -10.5 11.85 -10.5 11.85 -10.5 11.9 -10.55 11.95 -10.55 12.0 -10.55 12.05 -10.55 12.1 -10.55 12.15 -10.55 12.2 -10.55 12.25 -10.55 12.3 -10.5 12.3 -10.5 12.3 -10.5 13.0 -9.9 L13.0 -9.9 M12.9 -17.3 Q13.0 -17.2 13.05 -17.1 13.1 -17.05 13.1 -16.95 13.15 -16.85 13.15 -16.75 13.15 -16.65 13.15 -16.55 13.15 -16.45 13.15 -16.35 13.1 -16.25 13.05 -16.15 13.05 -16.05 13.0 -15.95 12.95 -15.85 12.9 -15.75 12.85 -15.65 12.8 -15.6 12.75 -15.5 12.65 -15.45 12.6 -15.35 12.55 -15.3 12.45 -15.2 12.4 -15.15 12.35 -15.1 12.25 -15.0 12.15 -14.95 12.1 -14.9 12.0 -14.85 11.95 -14.8 11.85 -14.75 11.75 -14.75 11.7 -14.75 11.65 -14.75 11.6 -14.7 11.55 -14.75 11.5 -14.75 11.45 -14.75 11.4 -14.8 11.35 -14.8 11.3 -14.85 11.25 -14.9 11.2 -14.95 11.2 -15.0 11.15 -15.05 11.15 -15.1 11.15 -15.15 11.15 -15.2 11.15 -15.35 11.2 -15.5 11.2 -15.65 11.25 -15.8 11.25 -15.95 11.3 -16.1 11.35 -16.2 11.4 -16.35 11.45 -16.5 11.5 -16.65 11.6 -16.75 11.65 -16.9 11.7 -17.05 11.75 -17.2 11.8 -17.3 11.9 -17.45 11.95 -17.5 12.0 -17.55 12.0 -17.6 12.1 -17.65 12.15 -17.65 12.2 -17.7 12.25 -17.7 12.3 -17.7 12.35 -17.7 12.4 -17.65 12.45 -17.65 12.5 -17.6 12.55 -17.6 12.6 -17.55 12.65 -17.5 12.7 -17.45 12.75 -17.45 12.75 -17.45 12.8 -17.4 12.85 -17.4 12.85 -17.35 12.9 -17.3 L12.9 -17.3 M14.6 -24.9 Q14.55 -24.8 14.5 -24.7 14.45 -24.6 14.4 -24.5 14.3 -24.4 14.25 -24.3 14.15 -24.25 14.05 -24.15 13.95 -24.1 13.85 -24.05 13.75 -24.0 13.65 -23.95 13.55 -23.9 13.45 -23.85 13.35 -23.8 13.25 -23.75 13.15 -23.7 13.0 -23.7 12.9 -23.7 12.75 -23.65 12.65 -23.65 12.55 -23.65 12.4 -23.65 12.3 -23.65 12.15 -23.65 12.05 -23.65 11.9 -23.65 11.8 -23.65 11.7 -23.65 11.55 -23.7 11.45 -23.7 11.3 -23.7 11.2 -23.7 11.1 -23.75 11.0 -23.75 10.9 -23.8 10.85 -23.85 10.75 -23.85 10.65 -23.9 10.55 -23.95 10.45 -24.0 10.35 -24.0 10.25 -24.05 10.2 -24.1 10.1 -24.15 10.0 -24.2 9.9 -24.25 9.85 -24.3 9.75 -24.35 9.65 -24.4 9.55 -24.5 9.5 -24.55 9.4 -24.6 9.3 -24.7 9.2 -24.75 9.15 -24.85 9.05 -24.9 9.0 -25.0 8.95 -25.1 8.9 -25.2 8.8 -25.3 8.8 -25.4 8.75 -25.5 8.7 -25.6 8.7 -25.65 8.7 -25.7 8.7 -25.75 8.7 -25.75 8.7 -25.8 8.75 -25.85 8.75 -25.9 8.75 -25.95 8.75 -26.0 8.75 -26.05 8.8 -26.05 8.8 -26.1 8.8 -26.15 8.85 -26.2 8.85 -26.25 8.9 -26.25 8.95 -26.3 9.0 -26.35 9.05 -26.4 9.1 -26.4 9.15 -26.45 9.2 -26.45 9.25 -26.5 9.3 -26.5 9.35 -26.5 9.45 -26.5 9.5 -26.5 9.55 -26.5 9.6 -26.5 9.7 -26.5 9.75 -26.45 9.8 -26.45 9.85 -26.45 9.9 -26.45 10.1 -26.4 10.35 -26.25 10.75 -26.05 10.8 -26.0 10.85 -26.0 10.9 -25.95 11.0 -25.95 11.05 -25.9 11.1 -25.9 11.15 -25.9 11.2 -25.9 11.3 -25.85 11.35 -25.85 11.4 -25.85 11.45 -25.85 11.5 -25.85 11.6 -25.85 11.65 -25.85 11.7 -25.85 11.75 -25.85 11.8 -25.85 11.9 -25.85 11.95 -25.85 12.0 -25.85 12.05 -25.85 12.15 -25.85 12.2 -25.85 12.25 -25.85 12.3 -25.85 12.4 -25.85 12.45 -25.85 12.5 -25.85 12.55 -25.85 12.65 -25.85 12.7 -25.85 12.75 -25.85 12.85 -25.85 13.15 -25.9 13.35 -25.9 13.5 -25.9 13.55 -25.9 13.6 -25.9 13.65 -25.9 13.7 -25.9 13.75 -25.9 13.8 -25.9 13.85 -25.9 13.9 -25.9 13.95 -25.85 14.0 -25.85 14.05 -25.85 14.1 -25.85 14.15 -25.8 14.2 -25.8 14.25 -25.8 14.3 -25.75 14.35 -25.7 14.4 -25.65 14.45 -25.65 14.5 -25.6 14.5 -25.55 14.55 -25.5 14.55 -25.45 14.6 -25.35 14.6 -25.3 14.6 -25.25 14.65 -25.2 14.65 -25.15 14.65 -25.05 14.6 -25.0 14.6 -24.95 14.6 -24.9 L14.6 -24.9 M20.4 -27.25 Q20.35 -27.2 20.35 -27.2 20.3 -27.15 20.3 -27.15 20.25 -27.1 20.2 -27.1 20.2 -27.05 20.15 -27.05 20.1 -27.0 20.05 -27.0 20.05 -27.0 20.0 -26.95 19.95 -26.95 19.9 -26.95 19.85 -26.9 19.8 -26.9 19.8 -26.9 19.7 -26.9 19.65 -26.9 19.6 -26.9 19.55 -26.9 19.5 -26.85 19.5 -26.85 19.45 -26.85 19.4 -26.85 19.35 -26.85 19.3 -26.85 19.25 -26.85 19.2 -26.9 19.15 -26.9 19.1 -26.95 19.05 -26.95 19.05 -27.0 19.0 -27.05 19.0 -27.05 18.95 -27.1 18.95 -27.15 18.95 -27.2 18.9 -27.25 18.9 -27.3 18.9 -27.35 18.9 -27.4 18.9 -27.45 18.95 -27.5 18.95 -27.5 19.0 -27.55 19.05 -27.65 19.1 -27.7 19.15 -27.75 19.2 -27.85 19.25 -27.9 19.3 -27.95 19.4 -28.0 19.45 -28.05 19.5 -28.1 19.6 -28.15 19.65 -28.2 19.75 -28.25 19.8 -28.3 19.9 -28.3 20.0 -28.35 20.1 -28.35 20.15 -28.35 20.2 -28.35 20.2 -28.4 20.25 -28.35 20.3 -28.35 20.35 -28.35 20.4 -28.35 20.45 -28.3 20.5 -28.3 20.5 -28.25 20.55 -28.25 20.6 -28.2 20.6 -28.15 20.65 -28.15 20.65 -28.1 20.65 -28.05 20.65 -28.0 20.65 -27.95 20.65 -27.9 20.65 -27.85 20.65 -27.8 20.65 -27.7 20.65 -27.65 20.65 -27.65 20.6 -27.6 20.6 -27.55 20.6 -27.5 20.55 -27.45 20.5 -27.4 20.5 -27.35 20.45 -27.3 20.4 -27.25 L20.4 -27.25 M29.8 -55.15 Q29.85 -55.0 29.9 -54.9 29.9 -54.75 29.95 -54.6 29.95 -54.5 29.95 -54.35 29.95 -54.2 29.95 -54.05 29.95 -53.9 29.95 -53.8 29.9 -53.65 29.9 -53.5 29.9 -53.35 29.85 -53.25 29.85 -53.1 29.8 -52.95 29.8 -52.9 29.75 -52.75 29.75 -52.7 29.75 -52.65 29.75 -52.55 29.75 -52.5 29.75 -52.45 29.75 -52.4 29.75 -52.35 29.75 -52.3 29.75 -52.2 29.75 -52.15 29.75 -52.1 29.75 -52.05 29.75 -52.0 29.7 -51.9 29.7 -51.85 29.7 -51.8 29.7 -51.5 29.35 -48.95 29.4 -48.9 29.45 -48.85 29.5 -48.8 29.5 -48.75 29.55 -48.7 29.55 -48.65 29.6 -48.6 29.6 -48.55 29.65 -48.5 29.65 -48.4 29.65 -48.35 29.65 -48.3 29.7 -48.25 29.7 -48.15 29.65 -48.1 29.65 -48.05 29.6 -47.8 29.55 -47.55 29.5 -47.3 29.45 -47.05 29.4 -46.8 29.35 -46.55 29.3 -46.35 29.2 -46.1 29.15 -45.85 29.05 -45.6 29.0 -45.35 28.9 -45.1 28.85 -44.9 28.75 -44.65 28.65 -44.4 28.55 -44.15 28.3 -43.55 27.9 -42.6 27.3 -41.35 27.15 -41.0 26.1 -38.4 25.75 -37.9 25.7 -37.8 25.65 -37.7 25.6 -37.65 25.55 -37.55 25.5 -37.45 25.4 -37.4 25.35 -37.3 25.3 -37.2 25.25 -37.15 25.15 -37.05 25.1 -37.0 25.05 -36.9 24.95 -36.85 24.9 -36.75 24.8 -36.7 24.75 -36.65 24.7 -36.6 24.5 -36.4 24.5 -36.4 24.45 -36.35 24.4 -36.35 24.4 -36.35 24.2 -36.15 24.15 -36.1 24.15 -36.1 24.15 -36.1 24.15 -36.1 24.15 -36.05 24.15 -36.05 24.15 -36.05 24.1 -36.0 24.1 -36.0 24.05 -35.95 24.05 -35.9 24.0 -35.85 23.95 -35.75 23.9 -35.65 23.9 -35.55 23.85 -35.45 23.8 -35.4 23.75 -35.3 23.7 -35.2 23.65 -35.15 23.6 -35.05 23.55 -34.95 23.5 -34.9 23.4 -34.8 23.35 -34.75 23.3 -34.65 23.25 -34.6 23.2 -34.5 23.1 -34.35 23.05 -34.25 22.95 -34.15 22.9 -34.0 22.8 -33.9 22.75 -33.8 22.65 -33.7 22.6 -33.55 22.5 -33.45 22.45 -33.35 22.35 -33.25 22.25 -33.1 22.2 -33.0 22.1 -32.9 22.05 -32.8 21.95 -32.65 21.8 -32.45 21.65 -32.3 21.55 -32.15 21.4 -32.0 21.25 -31.85 21.15 -31.7 21.0 -31.55 20.85 -31.4 20.7 -31.2 20.6 -31.1 20.45 -30.95 20.3 -30.8 20.15 -30.65 20.0 -30.5 19.85 -30.35 19.75 -30.25 19.35 -29.8 19.0 -29.5 18.85 -29.3 18.8 -29.25 18.7 -29.15 18.65 -29.1 18.6 -29.0 18.5 -28.95 18.45 -28.9 18.4 -28.85 18.3 -28.8 18.25 -28.7 18.15 -28.65 18.1 -28.6 18.0 -28.55 17.95 -28.5 17.85 -28.45 17.8 -28.4 17.7 -28.4 17.55 -28.3 17.35 -28.25 17.15 -28.15 17.0 -28.1 16.8 -28.05 16.65 -28.0 16.45 -27.95 16.25 -27.9 16.1 -27.85 15.9 -27.8 15.7 -27.8 15.5 -27.75 15.3 -27.75 15.15 -27.7 14.95 -27.7 14.75 -27.7 14.6 -27.7 14.4 -27.7 14.25 -27.7 14.05 -27.7 13.9 -27.7 13.7 -27.7 13.55 -27.7 13.35 -27.7 13.2 -27.7 13.0 -27.7 12.85 -27.7 12.65 -27.7 12.5 -27.7 12.3 -27.75 12.15 -27.75 11.95 -27.75 11.75 -27.75 11.55 -27.8 11.35 -27.8 11.15 -27.85 10.95 -27.85 10.75 -27.9 10.55 -27.9 10.35 -27.95 10.15 -28.0 9.95 -28.05 9.75 -28.1 9.6 -28.15 9.4 -28.2 9.2 -28.3 9.0 -28.35 8.85 -28.45 8.7 -28.5 8.5 -28.6 8.35 -28.7 8.2 -28.8 8.05 -28.9 7.9 -29.0 7.75 -29.1 7.6 -29.2 7.45 -29.3 7.3 -29.45 7.2 -29.55 7.05 -29.65 6.9 -29.8 6.8 -29.9 6.65 -30.05 6.55 -30.2 6.4 -30.35 6.3 -30.5 6.15 -30.65 6.05 -30.8 5.9 -30.95 5.8 -31.1 5.65 -31.25 5.55 -31.4 5.45 -31.55 5.35 -31.7 5.25 -31.9 5.15 -32.05 5.05 -32.2 4.95 -32.4 4.85 -32.55 4.8 -32.75 4.75 -32.9 4.65 -33.05 4.6 -33.25 4.55 -33.4 4.5 -33.55 4.5 -33.75 4.45 -33.9 4.4 -34.05 4.4 -34.25 4.4 -34.4 4.35 -34.6 4.35 -34.75 4.35 -34.9 4.35 -35.1 4.35 -35.25 4.35 -35.45 4.35 -35.55 4.35 -35.65 4.35 -35.8 4.35 -35.9 4.35 -36.0 4.4 -36.1 4.4 -36.2 4.4 -36.3 4.45 -36.45 4.45 -36.55 4.5 -36.65 4.5 -36.75 4.55 -36.85 4.6 -36.9 4.65 -37.0 4.7 -37.1 4.7 -37.15 4.7 -37.15 4.7 -37.2 4.7 -37.2 4.75 -37.3 4.75 -37.4 4.8 -37.5 4.85 -37.6 4.9 -37.65 4.9 -37.75 4.95 -37.85 5.0 -37.95 5.05 -38.05 5.1 -38.1 5.1 -38.2 5.15 -38.3 5.2 -38.4 5.25 -38.45 5.3 -38.55 5.35 -38.65 5.35 -38.7 5.35 -38.7 5.4 -38.75 5.4 -38.8 5.4 -38.85 5.45 -38.85 5.45 -38.9 5.5 -38.95 5.5 -39.0 5.5 -39.0 5.55 -39.05 5.55 -39.1 5.6 -39.1 5.6 -39.15 5.6 -39.2 5.65 -39.25 5.65 -39.25 5.7 -39.3 5.7 -39.35 5.75 -39.35 5.75 -39.4 5.8 -39.45 5.85 -39.5 5.85 -39.55 5.9 -39.6 5.9 -39.65 5.95 -39.7 5.95 -39.75 6.0 -39.8 6.0 -39.85 6.05 -39.9 6.1 -39.95 6.1 -40.0 6.15 -40.05 6.15 -40.1 6.2 -40.15 6.4 -40.7 7.3 -42.4 7.4 -42.55 7.45 -42.7 7.55 -42.85 7.6 -43.0 7.7 -43.15 7.75 -43.3 7.85 -43.45 7.95 -43.6 8.05 -43.75 8.1 -43.9 8.2 -44.05 8.3 -44.2 8.4 -44.35 8.5 -44.45 8.6 -44.6 8.7 -44.75 10.05 -46.35 10.4 -46.9 10.4 -46.9 10.5 -47.05 10.5 -47.05 10.55 -47.1 10.6 -47.15 10.7 -47.3 10.7 -47.35 10.75 -47.35 10.75 -47.4 10.8 -47.45 10.8 -47.5 10.85 -47.5 10.85 -47.55 10.9 -47.6 10.9 -47.6 10.95 -47.65 10.95 -47.7 11.0 -47.75 11.0 -47.75 11.05 -47.8 11.05 -47.85 11.1 -47.85 11.1 -47.9 11.15 -47.9 11.15 -47.95 11.2 -48.0 11.2 -48.05 11.25 -48.05 11.25 -48.1 11.3 -48.15 11.35 -48.15 11.35 -48.2 11.4 -48.25 11.4 -48.25 11.45 -48.3 11.45 -48.3 11.5 -48.35 11.55 -48.4 11.75 -48.75 12.35 -49.5 12.4 -49.55 12.4 -49.55 12.45 -49.6 12.45 -49.65 12.5 -49.65 12.5 -49.7 12.55 -49.75 12.55 -49.75 12.6 -49.8 12.6 -49.85 12.65 -49.85 12.7 -49.9 12.7 -49.95 12.75 -50.0 12.75 -50.0 12.75 -50.0 12.75 -50.0 12.75 -50.05 12.85 -50.2 13.3 -50.85 13.95 -51.75 15.15 -53.2 16.55 -54.8 17.05 -55.5 17.4 -55.95 18.05 -56.8 18.75 -57.65 19.1 -58.05 19.15 -58.15 19.25 -58.3 19.2 -58.25 19.3 -58.45 19.35 -58.5 19.45 -58.65 19.5 -58.7 19.5 -58.8 19.55 -58.85 19.6 -58.95 19.65 -59.0 19.7 -59.05 19.75 -59.15 19.8 -59.2 19.85 -59.25 19.9 -59.3 19.95 -59.35 20.0 -59.4 20.1 -59.45 20.15 -59.5 20.2 -59.55 20.3 -59.6 20.65 -60.25 20.8 -60.5 20.95 -60.75 21.15 -61.05 21.3 -61.3 21.5 -61.55 21.7 -61.8 21.95 -62.0 22.15 -62.25 22.35 -62.45 22.6 -62.65 22.85 -62.9 23.05 -63.1 23.3 -63.3 23.55 -63.5 23.8 -63.7 24.0 -63.85 24.3 -64.05 24.45 -64.15 24.55 -64.25 24.7 -64.35 24.8 -64.4 24.95 -64.5 25.05 -64.6 25.2 -64.7 25.35 -64.75 25.45 -64.85 25.6 -64.9 25.75 -65.0 25.85 -65.05 26.0 -65.1 26.15 -65.15 26.3 -65.25 26.45 -65.3 26.6 -65.35 26.8 -65.4 26.95 -65.45 27.1 -65.45 27.25 -65.5 27.45 -65.5 27.6 -65.5 27.75 -65.5 27.95 -65.5 28.1 -65.45 28.25 -65.45 28.45 -65.4 28.6 -65.4 28.75 -65.35 28.9 -65.3 29.1 -65.2 29.15 -65.2 29.2 -65.15 29.2 -65.15 29.25 -65.1 29.3 -65.1 29.3 -65.05 29.35 -65.05 29.4 -65.0 29.4 -64.95 29.45 -64.9 29.45 -64.9 29.45 -64.85 29.5 -64.8 29.5 -64.75 29.5 -64.7 29.5 -64.65 29.55 -64.6 29.6 -64.55 29.6 -64.5 29.65 -64.45 29.7 -64.45 29.7 -64.4 29.75 -64.35 29.8 -64.3 29.8 -64.25 29.85 -64.2 29.85 -64.15 29.9 -64.05 29.9 -64.0 29.9 -63.95 29.95 -63.9 29.95 -63.85 30.0 -63.75 30.0 -63.6 30.05 -63.5 30.05 -63.35 30.1 -63.25 30.1 -63.1 30.1 -62.95 30.1 -62.85 30.1 -62.7 30.1 -62.6 30.1 -62.45 30.1 -62.35 30.1 -62.2 30.1 -62.05 30.1 -61.95 30.1 -61.8 30.1 -61.4 30.15 -59.35 30.15 -59.1 30.15 -58.85 30.15 -58.6 30.15 -58.35 30.15 -58.1 30.15 -57.85 30.15 -57.6 30.1 -57.35 30.1 -57.1 30.1 -56.85 30.05 -56.6 30.0 -56.35 30.0 -56.1 29.95 -55.85 29.9 -55.6 29.85 -55.35 29.85 -55.3 29.8 -55.25 29.8 -55.25 29.8 -55.15 29.8 -55.15 29.8 -55.15 L29.8 -55.15 M31.6 -45.75 Q31.5 -45.7 31.45 -45.7 31.35 -45.65 31.3 -45.65 31.2 -45.65 31.1 -45.65 31.05 -45.7 30.95 -45.7 30.9 -45.7 30.85 -45.75 30.75 -45.8 30.7 -45.85 30.65 -45.9 30.6 -46.0 30.55 -46.05 30.55 -46.15 30.55 -46.2 30.55 -46.25 30.55 -46.3 30.55 -46.35 30.55 -46.4 30.55 -46.45 30.55 -46.5 30.55 -46.55 30.55 -46.55 30.55 -46.6 30.55 -46.65 30.6 -46.7 30.6 -46.75 30.6 -46.8 30.65 -46.85 30.65 -46.9 30.65 -46.9 30.65 -47.0 30.65 -47.05 30.65 -47.1 30.65 -47.15 30.7 -47.15 30.7 -47.2 30.75 -47.25 30.75 -47.3 30.8 -47.3 30.85 -47.35 30.85 -47.4 30.9 -47.4 30.95 -47.45 31.0 -47.45 31.05 -47.45 31.1 -47.45 31.15 -47.45 31.2 -47.45 31.3 -47.45 31.35 -47.4 31.45 -47.4 31.5 -47.35 31.55 -47.3 31.6 -47.3 31.7 -47.25 31.75 -47.2 31.8 -47.15 31.85 -47.1 31.9 -47.05 31.9 -46.95 31.95 -46.9 32.0 -46.85 32.0 -46.75 32.0 -46.7 32.05 -46.6 32.05 -46.55 32.05 -46.45 32.05 -46.4 32.0 -46.3 32.0 -46.25 32.0 -46.2 31.95 -46.1 31.9 -46.05 31.9 -46.0 31.85 -45.95 31.8 -45.9 31.7 -45.85 31.65 -45.8 31.6 -45.75 L31.6 -45.75 M34.2 -57.35 Q34.15 -57.05 33.75 -55.2 33.75 -55.1 33.7 -55.0 33.7 -54.9 33.65 -54.8 33.65 -54.7 33.6 -54.6 33.6 -54.5 33.55 -54.4 33.5 -54.3 33.45 -54.2 33.4 -54.1 33.35 -54.05 33.3 -53.95 33.25 -53.85 33.2 -53.8 33.1 -53.7 33.05 -53.65 33.0 -53.65 32.95 -53.6 32.9 -53.6 32.85 -53.6 32.8 -53.6 32.75 -53.6 32.7 -53.6 32.65 -53.6 32.6 -53.6 32.55 -53.65 32.5 -53.65 32.45 -53.7 32.45 -53.75 32.4 -53.75 32.35 -53.8 32.3 -53.85 32.3 -53.9 32.3 -53.9 32.25 -53.95 32.25 -54.0 32.2 -54.05 32.2 -54.1 32.2 -54.15 32.15 -54.15 32.15 -54.2 32.15 -54.25 32.15 -54.3 32.1 -54.35 32.1 -54.4 32.1 -54.45 32.1 -54.45 32.05 -54.45 32.05 -54.5 32.0 -54.5 32.0 -54.55 31.95 -54.55 31.95 -54.6 31.9 -54.65 31.9 -54.65 31.85 -54.75 31.8 -54.9 31.75 -55.05 31.75 -55.15 31.7 -55.3 31.7 -55.45 31.7 -55.55 31.7 -55.7 31.7 -55.85 31.7 -55.95 31.7 -56.1 31.7 -56.25 31.75 -56.35 31.75 -56.5 31.75 -56.65 31.75 -56.75 31.75 -56.85 31.8 -56.95 31.8 -57.05 31.85 -57.15 31.85 -57.25 31.9 -57.35 31.9 -57.45 31.95 -57.5 31.95 -57.6 32.0 -57.7 32.05 -57.8 32.05 -57.85 32.1 -57.95 32.15 -58.05 32.2 -58.1 32.25 -58.2 32.25 -58.25 32.3 -58.3 32.3 -58.35 32.35 -58.4 32.35 -58.45 32.4 -58.5 32.4 -58.55 32.45 -58.6 32.45 -58.65 32.5 -58.65 32.55 -58.7 32.6 -58.75 32.6 -58.8 32.65 -58.85 32.7 -58.85 32.75 -58.9 32.8 -58.95 32.8 -58.95 32.85 -59.0 32.9 -59.0 32.95 -59.0 33.0 -59.05 33.05 -59.05 33.05 -59.05 33.1 -59.05 33.15 -59.05 33.2 -59.05 33.25 -59.0 33.3 -59.0 33.35 -58.95 33.35 -58.95 33.4 -58.9 33.4 -58.9 33.4 -58.9 33.45 -58.9 33.5 -58.9 33.55 -58.9 33.6 -58.9 33.65 -58.9 33.65 -58.85 33.7 -58.85 33.75 -58.85 33.8 -58.8 33.85 -58.8 33.95 -58.75 34.0 -58.65 34.1 -58.6 34.15 -58.5 34.2 -58.45 34.2 -58.35 34.25 -58.25 34.25 -58.15 34.25 -58.05 34.25 -57.95 34.25 -57.85 34.25 -57.75 34.25 -57.65 34.25 -57.55 34.25 -57.5 34.2 -57.35 L34.2 -57.35" fill="#1ca1cd" fill-rule="evenodd" stroke="none"/>
  </g>
</svg>
