<?xml version="1.0" encoding="UTF-8" standalone="no"?>
<svg xmlns:xlink="http://www.w3.org/1999/xlink" height="69.85px" width="131.65px" xmlns="http://www.w3.org/2000/svg">
  <g transform="matrix(1.0, 0.0, 0.0, 1.0, 65.85, 34.95)">
    <path d="M-60.25 -7.1 Q-60.75 -6.85 -61.2 -6.55 -61.65 -6.3 -62.0 -5.95 -62.4 -5.65 -62.7 -5.3 -63.05 -5.0 -63.3 -4.65 -63.55 -4.35 -63.8 -4.0 -64.0 -3.7 -64.2 -3.4 -64.35 -3.15 -64.5 -2.9 -64.6 -2.7 -64.7 -2.45 -64.9 -2.0 -65.05 -1.8 -65.25 -1.4 -65.4 -1.05 -65.55 -0.65 -65.7 -0.25 -65.85 0.15 -65.95 0.55 -66.05 1.0 -66.15 1.45 -66.2 1.9 -66.2 2.35 -66.2 2.8 -66.1 3.3 -66.0 3.75 -65.85 4.25 -65.65 4.85 -65.3 5.4 -65.0 5.85 -64.65 6.3 -64.3 6.7 -63.85 7.1 -63.5 7.4 -63.05 7.65 -62.65 7.9 -62.25 8.1 -61.95 8.3 -61.6 8.45 -61.35 8.55 -61.05 8.65 -60.9 8.7 -60.75 8.75 -60.75 8.8 -60.75 8.85 -60.8 8.95 -60.8 9.0 -60.8 9.15 -60.8 9.25 -60.8 9.4 -60.8 9.55 -60.75 9.7 -60.75 9.85 -60.7 10.0 -60.65 10.15 -60.55 10.3 -60.45 10.45 -60.35 10.6 -60.25 10.75 -60.25 10.75 -60.2 10.8 -60.1 10.85 -60.1 10.9 -60.0 10.95 -59.95 11.0 -59.85 11.05 -59.8 11.05 -59.7 11.1 -59.6 11.15 -59.5 11.2 -59.4 11.2 -59.3 11.25 -59.2 11.25 -59.1 11.2 -59.0 11.2 -58.95 11.2 -58.9 11.15 -58.85 11.15 -58.85 11.1 -58.8 11.1 -58.75 11.05 -58.7 11.0 -58.7 11.0 -58.65 10.95 -58.65 10.95 -58.6 10.9 -58.6 10.85 -58.55 10.85 -58.55 10.8 -58.55 10.8 -58.5 10.75 -58.5 10.8 -58.45 10.8 -58.4 10.85 -58.4 10.9 -58.35 10.95 -58.3 11.0 -58.25 11.05 -58.2 11.1 -58.15 11.15 -58.05 11.2 -58.0 11.3 -57.9 11.3 -57.85 11.4 -57.75 11.4 -57.65 11.45 -57.55 11.5 -57.4 11.55 -57.25 11.55 -57.1 11.6 -56.95 11.6 -56.8 11.6 -56.65 11.55 -56.5 11.55 -56.4 11.5 -56.3 11.45 -56.2 11.4 -56.1 11.4 -56.0 11.35 -55.95 11.3 -55.9 11.25 -55.85 11.25 -55.85 11.25 -55.85 11.25 -55.75 11.3 -55.65 11.3 -55.6 11.3 -55.5 11.35 -55.4 11.35 -55.3 11.35 -55.2 11.4 -55.05 11.4 -54.95 11.4 -54.8 11.4 -54.7 11.4 -54.55 11.35 -54.4 11.35 -54.3 11.3 -54.15 11.25 -54.0 11.15 -53.85 11.05 -53.7 10.95 -53.55 10.8 -53.4 10.7 -53.3 10.5 -53.2 10.35 -53.15 10.2 -53.05 10.0 -53.0 9.8 -52.95 9.6 -52.9 9.4 -52.9 9.2 -52.9 9.0 -52.9 8.75 -52.9 8.55 -52.8 8.55 -52.7 8.5 -52.6 8.5 -52.5 8.45 -52.4 8.4 -52.3 8.4 -52.2 8.35 -52.1 8.3 -51.95 8.3 -51.85 8.25 -51.7 8.2 -51.6 8.15 -51.45 8.1 -51.35 8.05 -51.2 8.0 -51.1 7.95 -51.0 7.9 -50.9 7.85 -50.8 7.8 -50.65 7.75 -50.5 7.65 -50.35 7.55 -50.2 7.5 -50.05 7.4 -49.85 7.25 -49.65 7.15 -49.5 7.0 -49.3 6.9 -49.1 6.75 -48.9 6.55 -48.7 6.4 -48.5 6.2 -48.3 6.05 -48.2 5.95 -48.0 5.75 -47.85 5.6 -47.7 5.45 -47.5 5.25 -47.35 5.05 -47.15 4.85 -47.0 4.6 -46.8 4.4 -46.65 4.1 -46.5 3.85 -46.35 3.6 -46.2 3.3 -46.1 2.95 -46.0 2.65 -45.85 2.25 -45.8 1.8 -45.75 1.4 -45.7 0.95 -45.7 0.6 -45.75 0.2 -45.75 -0.15 -45.8 -0.5 -45.9 -0.85 -45.95 -1.2 -46.05 -1.45 -46.15 -1.75 -46.2 -2.0 -46.3 -2.25 -46.4 -2.4 -46.5 -2.7 -46.55 -2.9 -46.65 -3.05 -46.75 -3.25 -46.85 -3.45 -46.95 -3.7 -47.1 -3.95 -47.25 -4.25 -47.4 -4.5 -47.6 -4.8 -47.85 -5.1 -48.05 -5.4 -48.35 -5.65 -48.6 -5.95 -48.95 -6.25 -49.25 -6.5 -49.65 -6.75 -50.2 -7.15 -50.8 -7.4 -51.4 -7.7 -52.0 -7.85 -52.6 -8.0 -53.2 -8.1 -53.75 -8.2 -54.35 -8.2 -54.9 -8.2 -55.45 -8.15 -55.95 -8.15 -56.45 -8.05 -56.85 -8.0 -57.3 -7.9 -57.6 -7.85 -58.05 -7.75 -58.2 -7.7 -58.3 -7.7 -58.45 -7.65 -58.6 -7.65 -58.7 -7.6 -58.85 -7.6 -59.0 -7.55 -59.1 -7.5 -59.25 -7.5 -59.4 -7.45 -59.55 -7.4 -59.65 -7.35 -59.8 -7.3 -59.95 -7.2 -60.1 -7.15 -60.25 -7.1 L-60.25 -7.1" fill="#25ff39" fill-rule="evenodd" stroke="none"/>
  </g>
</svg>
