<?xml version="1.0" encoding="UTF-8" standalone="no"?>
<svg xmlns:xlink="http://www.w3.org/1999/xlink" height="200.0px" width="200.0px" xmlns="http://www.w3.org/2000/svg">
  <g transform="matrix(1.0, 0.0, 0.0, 1.0, 100.0, 100.0)">
    <path d="M-29.9 12.6 Q-29.95 12.35 -30.0 12.15 -30.05 11.95 -30.15 11.75 -30.25 11.6 -30.35 11.45 -30.45 11.3 -30.6 11.15 -30.7 11.05 -30.8 10.95 -30.9 10.85 -31.0 10.8 -31.05 10.7 -31.15 10.65 -31.2 10.65 -31.25 10.6 -31.85 10.4 -32.45 10.25 -33.0 10.1 -33.6 9.9 -34.15 9.75 -34.7 9.6 -35.25 9.45 -35.8 9.35 -36.3 9.2 -36.8 9.05 -37.3 8.95 -37.8 8.85 -38.25 8.7 -38.7 8.6 -39.15 8.5 -39.6 8.4 -40.6 8.2 -41.6 8.0 -42.5 7.8 -43.45 7.65 -44.3 7.45 -45.15 7.35 -45.9 7.2 -46.65 7.1 -47.3 7.0 -47.95 6.9 -48.45 6.85 -49.0 6.75 -49.4 6.7 -49.8 6.65 -50.05 6.65 -50.35 6.6 -50.95 6.55 -51.5 6.5 -52.05 6.4 -52.65 6.4 -53.15 6.35 -53.7 6.3 -54.2 6.25 -54.75 6.2 -55.2 6.2 -55.7 6.15 -56.15 6.15 -56.6 6.1 -57.05 6.1 -57.5 6.1 -57.9 6.1 -58.3 6.05 -58.25 6.15 -58.2 6.25 -58.15 6.35 -58.1 6.5 -58.1 6.6 -58.05 6.7 -58.0 6.85 -57.95 7.0 -57.9 7.1 -57.85 7.25 -57.85 7.4 -57.8 7.55 -57.75 7.7 -57.75 7.9 -57.7 8.05 -57.65 8.2 -57.65 8.2 -57.65 8.2 -53.75 8.25 -52.1 8.4 -50.15 8.6 -47.3 8.9 -46.7 9.0 -44.95 9.25 -44.6 9.3 -43.75 9.45 -43.0 9.55 -42.55 9.65 -42.45 9.65 -41.95 9.75 -41.6 9.8 -41.35 9.85 -41.15 9.9 -40.8 9.95 -40.4 10.0 -40.25 10.0 -40.1 10.0 -40.0 10.05 -39.9 10.1 -39.75 10.1 -39.65 10.15 -39.5 10.15 -39.4 10.2 -39.3 10.25 -39.15 10.25 -39.05 10.3 -38.95 10.35 -38.8 10.4 -38.7 10.45 -38.6 10.45 -38.5 10.5 -38.35 10.55 -38.15 10.55 -37.95 10.6 -37.7 10.65 -37.5 10.7 -37.3 10.75 -37.1 10.85 -36.9 10.95 -36.7 11.05 -36.5 11.15 -36.35 11.25 -36.15 11.4 -36.05 11.55 -35.9 11.7 -35.8 11.85 -35.7 12.05 -35.65 12.25 -35.55 12.3 -35.55 12.4 -35.5 12.55 -35.5 12.7 -35.5 12.85 -35.6 12.95 -35.65 13.05 -35.75 13.15 -35.85 13.2 -36.0 13.25 -36.1 13.35 -36.25 13.4 -36.4 13.4 -36.55 13.45 -36.7 13.5 -36.85 13.5 -36.95 13.5 -37.1 13.5 -37.3 13.5 -37.5 13.55 -37.7 13.55 -37.9 13.6 -38.1 13.6 -38.3 13.6 -38.5 13.65 -38.7 13.65 -38.9 13.65 -39.1 13.7 -39.3 13.7 -39.5 13.7 -39.65 13.75 -39.9 13.75 -40.05 13.75 -40.25 13.75 -41.0 13.8 -42.3 13.8 -43.75 13.8 -44.3 13.8 -44.95 13.85 -46.3 13.95 -47.6 14.1 -48.25 14.15 -48.4 14.15 -48.5 14.15 -48.65 14.15 -48.75 14.15 -48.9 14.15 -49.0 14.15 -49.15 14.15 -49.25 14.15 -49.4 14.15 -49.5 14.15 -49.65 14.1 -49.75 14.1 -49.9 14.1 -50.0 14.1 -50.15 14.1 -50.25 14.05 -50.45 14.05 -50.95 14.0 -51.25 14.05 -51.9 14.15 -52.55 14.25 -52.85 14.3 -53.15 14.35 -54.75 14.55 -54.75 14.55 -55.65 14.75 -56.2 14.85 -56.55 14.9 -57.55 14.95 -58.05 14.95 -58.1 14.95 -58.2 14.95 -58.25 14.95 -58.3 14.95 -58.4 14.95 -58.45 14.95 -58.5 14.95 -58.55 14.95 -58.65 14.95 -58.7 14.95 -58.75 14.95 -58.85 14.95 -58.9 14.95 -58.95 14.95 -59.0 14.95 -59.1 14.9 -59.2 14.95 -59.45 15.0 -59.5 15.0 -59.55 15.0 -59.6 15.0 -59.6 14.95 -59.8 15.15 -60.15 15.45 -60.3 15.6 -60.5 15.75 -60.65 15.9 -60.8 16.0 -60.95 16.15 -61.15 16.25 -61.3 16.4 -61.45 16.5 -61.6 16.6 -61.75 16.7 -61.9 16.75 -62.05 16.85 -62.15 16.9 -62.3 17.0 -62.4 17.05 -62.55 17.1 -62.2 17.1 -56.05 16.6 -46.15 15.8 -43.6 15.65 -37.2 15.25 -35.05 14.95 -34.65 14.9 -34.3 14.85 -33.95 14.8 -33.55 14.75 -33.25 14.7 -32.9 14.6 -32.6 14.55 -32.25 14.5 -31.95 14.45 -31.65 14.4 -31.4 14.35 -31.15 14.3 -30.9 14.25 -30.65 14.2 -30.4 14.15 -30.2 14.1 -30.15 14.05 -30.15 14.0 -30.1 13.95 -30.1 13.85 -30.05 13.8 -30.05 13.7 -30.0 13.6 -29.95 13.5 -29.95 13.4 -29.95 13.3 -29.9 13.2 -29.9 13.1 -29.9 12.95 -29.9 12.85 -29.9 12.7 -29.9 12.6 L-29.9 12.6" fill="#199c7b" fill-rule="evenodd" stroke="none"/>
  </g>
</svg>
