<?xml version="1.0" encoding="UTF-8" standalone="no"?>
<svg xmlns:xlink="http://www.w3.org/1999/xlink" height="57.95px" width="49.25px" xmlns="http://www.w3.org/2000/svg">
  <g transform="matrix(1.0, 0.0, 0.0, 1.0, 28.25, 78.05)">
    <path d="M13.2 -47.8 Q12.8 -47.8 12.4 -47.85 12.0 -47.95 11.65 -48.0 11.25 -48.1 10.85 -48.25 10.5 -48.4 10.15 -48.55 9.8 -48.75 9.45 -48.95 9.1 -49.2 8.8 -49.45 8.45 -49.75 8.2 -50.1 7.9 -50.4 7.65 -50.8 7.4 -51.15 7.25 -51.5 7.1 -51.85 7.0 -52.25 6.9 -52.65 6.85 -53.05 6.8 -53.45 6.85 -53.8 6.85 -54.2 6.95 -54.6 7.0 -55.0 7.15 -55.35 7.3 -55.75 7.5 -56.1 7.7 -56.45 8.0 -56.75 8.25 -57.05 8.5 -57.3 8.75 -57.55 9.0 -57.75 9.3 -58.0 9.6 -58.15 9.85 -58.35 10.2 -58.5 10.5 -58.65 10.8 -58.75 11.15 -58.9 11.5 -59.0 11.8 -59.05 12.2 -59.1 12.55 -59.2 12.9 -59.2 13.25 -59.25 13.6 -59.25 13.9 -59.25 14.25 -59.2 14.6 -59.2 14.9 -59.15 15.2 -59.1 15.55 -59.0 15.85 -58.9 16.15 -58.8 16.45 -58.7 16.75 -58.55 17.05 -58.4 17.35 -58.25 17.65 -58.05 17.9 -57.85 18.15 -57.7 18.35 -57.5 18.55 -57.35 18.75 -57.15 18.9 -57.0 19.1 -56.8 19.25 -56.6 19.4 -56.35 19.55 -56.15 19.65 -55.9 19.8 -55.7 19.9 -55.45 20.0 -55.2 20.05 -54.95 20.15 -54.7 20.2 -54.4 20.25 -54.1 20.25 -53.8 20.25 -53.5 20.25 -53.2 20.25 -52.9 20.2 -52.6 20.15 -52.35 20.05 -52.05 19.95 -51.8 19.85 -51.5 19.7 -51.25 19.55 -51.0 19.4 -50.75 19.25 -50.5 19.05 -50.25 18.85 -50.0 18.6 -49.7 18.3 -49.45 18.0 -49.2 17.7 -49.0 17.4 -48.8 17.05 -48.65 16.7 -48.45 16.35 -48.35 16.0 -48.2 15.65 -48.1 15.25 -48.0 14.85 -47.95 14.5 -47.85 14.05 -47.85 13.65 -47.8 13.2 -47.8 L13.2 -47.8" fill="#fe9fab" fill-rule="evenodd" stroke="none"/>
    <path d="M-24.95 -52.0 Q-25.4 -52.0 -25.85 -52.05 -26.3 -52.1 -26.75 -52.25 -27.15 -52.4 -27.6 -52.6 -28.0 -52.8 -28.35 -53.1 -28.7 -53.35 -29.0 -53.65 -29.35 -54.0 -29.6 -54.35 -29.85 -54.7 -30.05 -55.1 -30.2 -55.55 -30.3 -55.95 -30.4 -56.4 -30.45 -56.9 -30.45 -57.35 -30.4 -57.8 -30.35 -58.25 -30.2 -58.7 -30.1 -59.15 -29.85 -59.55 -29.65 -59.95 -29.35 -60.35 -29.1 -60.7 -28.75 -61.0 -28.4 -61.3 -28.0 -61.55 -27.6 -61.8 -27.15 -61.95 -26.8 -62.1 -26.45 -62.2 -26.1 -62.25 -25.75 -62.3 -25.45 -62.4 -25.1 -62.4 -24.75 -62.4 -24.4 -62.4 -24.1 -62.35 -23.75 -62.3 -23.45 -62.2 -23.1 -62.1 -22.8 -62.0 -22.45 -61.85 -22.15 -61.7 -21.8 -61.5 -21.3 -61.15 -20.85 -60.75 -20.45 -60.35 -20.15 -59.85 -19.85 -59.4 -19.65 -58.85 -19.5 -58.35 -19.4 -57.8 -19.35 -57.25 -19.4 -56.7 -19.45 -56.2 -19.65 -55.65 -19.8 -55.15 -20.1 -54.65 -20.4 -54.15 -20.8 -53.75 -21.0 -53.5 -21.25 -53.3 -21.5 -53.1 -21.7 -52.95 -21.95 -52.8 -22.2 -52.65 -22.45 -52.5 -22.7 -52.4 -22.95 -52.3 -23.2 -52.25 -23.45 -52.15 -23.75 -52.1 -24.05 -52.05 -24.35 -52.0 -24.65 -52.0 -24.95 -52.0 L-24.95 -52.0" fill="#fe9fab" fill-rule="evenodd" stroke="none"/>
    <path d="M-9.0 -71.3 Q-9.0 -71.0 -9.05 -70.75 -9.1 -70.45 -9.1 -70.2 -9.15 -69.9 -9.2 -69.65 -9.25 -69.35 -9.35 -69.1 -9.4 -68.8 -9.45 -68.55 -9.55 -68.3 -9.6 -68.0 -9.7 -67.75 -9.8 -67.45 -9.85 -67.2 -9.95 -66.95 -10.0 -66.85 -10.05 -66.75 -10.05 -66.65 -10.1 -66.55 -10.15 -66.45 -10.25 -66.35 -10.3 -66.25 -10.35 -66.15 -10.4 -66.05 -10.45 -66.0 -10.55 -65.9 -10.6 -65.8 -10.65 -65.7 -10.75 -65.65 -10.8 -65.55 -10.9 -65.45 -11.15 -65.2 -11.45 -65.0 -11.75 -64.85 -12.15 -64.75 -12.5 -64.65 -12.85 -64.65 -13.25 -64.65 -13.6 -64.75 -13.95 -64.85 -14.3 -65.0 -14.65 -65.15 -14.9 -65.4 -15.2 -65.6 -15.4 -65.9 -15.6 -66.2 -15.7 -66.55 -15.75 -66.65 -15.75 -66.75 -15.75 -66.9 -15.75 -67.0 -15.75 -67.1 -15.75 -67.2 -15.75 -67.3 -15.75 -67.45 -15.75 -67.55 -15.75 -67.65 -15.75 -67.75 -15.7 -67.9 -15.7 -68.0 -15.7 -68.1 -15.7 -68.15 -15.65 -68.3 -15.6 -68.7 -15.5 -69.05 -15.4 -69.4 -15.3 -69.75 -15.15 -70.1 -15.0 -70.45 -14.85 -70.75 -14.65 -71.1 -14.45 -71.4 -14.25 -71.65 -14.0 -71.95 -13.75 -72.2 -13.5 -72.5 -13.2 -72.7 -12.9 -72.95 -12.6 -73.2 -12.5 -73.3 -12.35 -73.35 -12.25 -73.4 -12.1 -73.45 -12.0 -73.5 -11.85 -73.55 -11.75 -73.6 -11.6 -73.6 -11.5 -73.65 -11.35 -73.65 -11.2 -73.65 -11.1 -73.65 -10.95 -73.65 -10.8 -73.65 -10.65 -73.65 -10.55 -73.6 -10.4 -73.55 -10.25 -73.5 -10.1 -73.45 -9.95 -73.35 -9.8 -73.25 -9.7 -73.15 -9.6 -73.05 -9.5 -72.9 -9.35 -72.75 -9.3 -72.6 -9.2 -72.45 -9.15 -72.3 -9.1 -72.1 -9.05 -71.95 -9.0 -71.75 -9.0 -71.6 -9.0 -71.55 -9.0 -71.5 -9.0 -71.5 -9.0 -71.45 -9.0 -71.4 -9.0 -71.35 -9.0 -71.35 -9.0 -71.3 L-9.0 -71.3" fill="#fefdfd" fill-rule="evenodd" stroke="none"/>
    <path d="M-12.55 -57.35 Q-12.55 -57.15 -12.55 -56.95 -12.6 -56.75 -12.65 -56.6 -12.7 -56.4 -12.8 -56.25 -12.9 -56.1 -13.0 -55.95 -13.1 -55.85 -13.25 -55.7 -13.4 -55.6 -13.55 -55.5 -13.7 -55.45 -13.85 -55.35 -14.05 -55.3 -14.25 -55.3 -14.4 -55.3 -14.5 -55.25 -14.65 -55.25 -14.75 -55.25 -14.9 -55.25 -15.0 -55.25 -15.15 -55.25 -15.25 -55.3 -15.4 -55.3 -15.5 -55.35 -15.65 -55.35 -15.75 -55.4 -15.9 -55.45 -16.0 -55.5 -16.1 -55.55 -16.25 -55.6 -16.45 -55.7 -16.6 -55.8 -16.75 -55.95 -16.85 -56.1 -17.0 -56.25 -17.05 -56.45 -17.15 -56.6 -17.15 -56.8 -17.2 -56.95 -17.2 -57.15 -17.2 -57.35 -17.15 -57.55 -17.1 -57.75 -17.0 -57.95 -16.9 -58.15 -16.8 -58.35 -16.7 -58.5 -16.6 -58.6 -16.45 -58.7 -16.35 -58.8 -16.25 -58.9 -16.1 -59.0 -15.95 -59.1 -15.85 -59.15 -15.7 -59.2 -15.55 -59.25 -15.4 -59.3 -15.25 -59.3 -15.1 -59.35 -14.95 -59.35 -14.8 -59.35 -14.6 -59.35 -14.45 -59.35 -14.3 -59.3 -14.1 -59.25 -14.0 -59.25 -13.85 -59.2 -13.7 -59.1 -13.55 -59.05 -13.45 -58.95 -13.3 -58.9 -13.2 -58.8 -13.1 -58.7 -13.0 -58.55 -12.9 -58.45 -12.8 -58.3 -12.7 -58.15 -12.65 -58.0 -12.65 -57.95 -12.6 -57.9 -12.6 -57.85 -12.6 -57.85 -12.55 -57.8 -12.55 -57.75 -12.55 -57.7 -12.55 -57.65 -12.55 -57.6 -12.55 -57.6 -12.5 -57.55 -12.5 -57.5 -12.5 -57.45 -12.5 -57.4 -12.5 -57.4 -12.55 -57.35 L-12.55 -57.35" fill="#6ebef3" fill-rule="evenodd" stroke="none"/>
    <path d="M5.2 -69.15 Q5.2 -68.9 5.2 -68.65 5.2 -68.4 5.15 -68.2 5.15 -67.95 5.1 -67.7 5.1 -67.45 5.05 -67.2 5.05 -67.0 5.0 -66.75 4.95 -66.5 4.9 -66.25 4.85 -66.05 4.8 -65.8 4.7 -65.55 4.65 -65.35 4.6 -65.15 4.5 -64.95 4.45 -64.75 4.35 -64.55 4.25 -64.35 4.15 -64.2 4.05 -64.0 3.95 -63.85 3.8 -63.7 3.65 -63.55 3.5 -63.4 3.35 -63.3 3.15 -63.2 3.0 -63.1 2.75 -63.0 2.55 -62.95 2.3 -62.9 2.05 -62.85 1.8 -62.8 1.5 -62.85 1.25 -62.85 1.0 -62.9 0.75 -62.95 0.5 -63.05 0.25 -63.15 0.05 -63.25 -0.2 -63.4 -0.4 -63.55 -0.6 -63.75 -0.7 -63.95 -0.9 -64.15 -1.0 -64.35 -1.05 -64.45 -1.1 -64.6 -1.1 -64.7 -1.15 -64.8 -1.15 -64.95 -1.15 -65.05 -1.2 -65.15 -1.2 -65.3 -1.2 -65.4 -1.2 -65.55 -1.2 -65.65 -1.2 -65.75 -1.15 -65.85 -1.15 -66.0 -1.15 -66.05 -1.15 -66.25 -1.1 -66.65 -1.05 -67.0 -1.0 -67.35 -0.9 -67.7 -0.8 -68.05 -0.65 -68.4 -0.55 -68.75 -0.35 -69.05 -0.2 -69.4 0.0 -69.7 0.2 -70.0 0.4 -70.25 0.65 -70.55 0.9 -70.8 1.2 -71.1 1.5 -71.35 1.6 -71.4 1.65 -71.45 1.75 -71.55 1.85 -71.6 1.9 -71.65 2.0 -71.7 2.1 -71.75 2.2 -71.75 2.3 -71.8 2.4 -71.85 2.5 -71.85 2.6 -71.9 2.7 -71.9 2.8 -71.95 2.9 -71.95 3.0 -71.95 3.25 -71.95 3.5 -71.9 3.75 -71.9 3.95 -71.8 4.15 -71.7 4.3 -71.6 4.45 -71.5 4.6 -71.35 4.75 -71.2 4.85 -71.0 4.95 -70.85 5.0 -70.65 5.1 -70.5 5.15 -70.3 5.2 -70.1 5.2 -69.9 5.2 -69.85 5.2 -69.15 L5.2 -69.15" fill="#fefdfd" fill-rule="evenodd" stroke="none"/>
    <path d="M0.5 -57.35 Q0.85 -57.35 1.15 -57.3 1.45 -57.25 1.7 -57.15 1.95 -57.05 2.15 -56.9 2.35 -56.75 2.55 -56.55 2.7 -56.35 2.8 -56.15 2.9 -55.9 2.95 -55.7 3.0 -55.45 2.95 -55.2 2.95 -54.9 2.85 -54.65 2.8 -54.5 2.75 -54.4 2.7 -54.3 2.6 -54.2 2.55 -54.05 2.45 -54.0 2.4 -53.9 2.3 -53.8 2.2 -53.75 2.1 -53.65 2.0 -53.6 1.9 -53.55 1.75 -53.5 1.65 -53.45 1.55 -53.4 1.4 -53.35 1.3 -53.3 1.15 -53.3 1.0 -53.25 0.9 -53.25 0.75 -53.25 0.65 -53.25 0.5 -53.25 0.4 -53.25 0.25 -53.25 0.15 -53.3 0.05 -53.3 -0.1 -53.35 -0.2 -53.35 -0.35 -53.4 -0.45 -53.45 -0.55 -53.5 -0.8 -53.6 -1.0 -53.7 -1.15 -53.85 -1.3 -54.05 -1.45 -54.2 -1.55 -54.4 -1.65 -54.6 -1.7 -54.8 -1.7 -55.05 -1.7 -55.25 -1.7 -55.5 -1.6 -55.7 -1.55 -55.95 -1.4 -56.15 -1.25 -56.4 -1.1 -56.6 -1.0 -56.7 -0.9 -56.8 -0.8 -56.85 -0.7 -56.95 -0.6 -57.0 -0.5 -57.05 -0.4 -57.1 -0.3 -57.15 -0.2 -57.2 -0.1 -57.25 0.0 -57.3 0.1 -57.3 0.2 -57.35 0.3 -57.35 0.4 -57.35 0.5 -57.35 L0.5 -57.35" fill="#6ebef3" fill-rule="evenodd" stroke="none"/>
  </g>
</svg>
