<?xml version="1.0" encoding="UTF-8" standalone="no"?>
<svg xmlns:xlink="http://www.w3.org/1999/xlink" height="300.0px" width="400.0px" xmlns="http://www.w3.org/2000/svg">
  <g transform="matrix(1.0, 0.0, 0.0, 1.0, 200.0, 150.0)">
    <path d="M37.45 10.4 Q37.15 10.65 36.9 10.9 36.65 11.1 36.35 11.35 36.1 11.55 35.85 11.8 35.65 12.0 35.4 12.2 35.2 12.45 34.95 12.65 34.75 12.85 34.55 13.05 34.35 13.2 34.15 13.4 34.0 13.6 33.8 13.75 33.65 13.9 33.6 13.95 33.5 14.05 33.4 14.15 33.35 14.25 33.25 14.35 33.15 14.45 33.1 14.55 33.0 14.65 32.95 14.75 32.9 14.9 32.85 15.0 32.8 15.1 32.75 15.25 32.7 15.35 32.7 15.5 32.65 15.65 32.65 15.8 32.65 15.95 32.7 16.1 32.7 16.25 32.75 16.4 32.8 16.55 32.85 16.7 32.9 16.85 33.0 17.05 33.05 17.2 33.15 17.4 33.25 17.55 33.4 17.75 33.5 17.9 33.65 18.15 34.0 18.7 34.35 19.25 34.6 19.7 34.9 20.15 35.1 20.4 35.35 20.85 35.65 21.25 35.75 21.4 35.9 21.7 36.05 21.9 36.2 22.1 36.3 22.35 36.45 22.55 36.55 22.8 36.65 23.05 36.75 23.3 36.85 23.65 36.85 23.6 36.9 23.75 36.95 23.9 37.0 24.05 37.0 24.2 37.05 24.4 37.1 24.55 37.15 24.75 37.15 24.95 37.2 25.15 37.2 25.35 37.2 25.55 37.2 25.75 37.25 26.0 37.2 26.2 37.2 26.4 37.15 26.55 37.15 26.75 37.1 26.95 37.05 27.1 37.0 27.3 36.95 27.55 36.85 27.75 36.8 27.95 36.7 28.2 36.55 28.45 36.45 28.75 36.3 29.0 36.1 29.3 35.95 29.65 35.7 30.0 34.8 31.5 32.4 34.45 31.75 35.25 27.8 39.0 27.75 39.05 27.65 39.1 27.6 39.2 27.5 39.25 27.45 39.35 27.35 39.4 27.25 39.45 27.15 39.55 27.05 39.6 26.95 39.65 26.8 39.7 26.7 39.75 26.55 39.75 26.45 39.8 26.3 39.8 26.15 39.8 26.05 39.8 26.0 39.8 25.9 39.75 25.8 39.75 25.7 39.7 25.65 39.65 25.55 39.6 25.45 39.55 25.35 39.5 25.25 39.4 25.1 39.35 25.0 39.2 24.9 39.1 24.75 39.0 24.6 38.85 24.45 38.7 24.05 38.3 23.85 38.1 23.55 37.8 23.35 37.55 23.1 37.3 22.95 37.1 22.7 36.85 22.6 36.65 22.4 36.45 22.3 36.25 22.2 36.05 22.15 35.85 22.05 35.65 22.05 35.5 22.05 35.3 22.1 35.1 22.1 35.0 22.15 34.9 22.2 34.75 22.25 34.7 22.3 34.6 22.4 34.5 22.45 34.4 22.55 34.3 22.6 34.25 22.7 34.15 22.8 34.1 22.9 34.0 23.0 33.95 23.15 33.8 23.35 33.65 23.4 33.65 23.85 33.3 24.3 32.9 24.75 32.55 25.15 32.2 25.55 31.8 25.9 31.45 26.25 31.1 26.55 30.75 26.9 30.4 27.15 30.05 27.45 29.7 27.7 29.4 27.9 29.1 28.1 28.8 28.3 28.55 28.45 28.3 28.6 28.05 28.75 27.85 28.9 27.65 29.0 27.4 29.15 27.15 29.25 26.95 29.4 26.7 29.5 26.45 29.6 26.2 29.7 25.95 29.75 25.65 29.8 25.35 29.9 25.1 29.9 24.8 29.9 24.45 29.9 24.15 29.9 23.9 29.85 23.7 29.85 23.5 29.75 23.25 29.7 23.05 29.65 22.85 29.6 22.65 29.5 22.45 29.45 22.25 29.35 22.05 29.25 21.9 29.15 21.7 29.05 21.5 28.9 21.3 28.85 21.15 28.7 20.9 28.5 20.55 28.3 20.25 28.1 19.95 27.85 19.65 27.65 19.35 27.4 19.05 27.2 18.8 26.95 18.55 26.75 18.3 26.55 18.05 26.35 17.8 26.1 17.6 25.9 17.4 25.7 17.2 25.55 17.05 25.35 16.8 25.15 16.6 24.85 16.35 24.5 16.0 24.45 15.95 24.2 15.75 24.05 15.6 23.85 15.4 23.75 15.25 23.55 15.05 23.45 14.9 23.3 14.7 23.2 14.5 23.1 14.3 23.05 14.1 23.0 13.9 22.95 13.65 22.95 13.55 22.9 13.4 22.9 13.3 22.9 13.2 22.9 13.05 22.9 12.95 22.9 12.85 22.9 12.75 22.9 12.65 22.95 12.55 22.95 12.45 22.95 12.4 23.0 12.3 23.0 12.2 23.0 12.15 23.05 12.1 23.1 11.75 23.25 11.45 23.35 11.15 23.5 10.85 23.65 10.6 23.85 10.35 24.0 10.1 24.2 9.9 24.4 9.7 24.6 9.5 24.75 9.35 24.95 9.15 25.1 9.05 25.25 8.9 25.3 8.9 25.5 8.7 25.9 8.35 26.35 8.0 26.75 7.65 27.2 7.25 27.55 6.85 27.95 6.45 28.3 6.1 28.75 5.65 28.95 5.4 29.5 4.8 29.95 4.3 30.25 4.0 30.65 3.55 31.0 3.2 31.45 2.75 31.8 2.4 33.65 0.65 33.35 0.9 34.15 0.15 34.7 -0.3 35.3 -0.9 35.8 -1.3 36.3 -1.75 36.7 -2.05 37.1 -2.35 37.45 -2.55 37.8 -2.75 38.1 -2.85 38.45 -2.95 38.7 -2.95 39.0 -2.95 39.25 -2.9 39.3 -2.9 39.3 -2.85 39.35 -2.85 39.4 -2.85 39.4 -2.8 39.45 -2.8 39.5 -2.75 39.55 -2.7 39.65 -2.7 39.7 -2.6 39.8 -2.55 39.85 -2.5 39.95 -2.4 40.05 -2.35 40.2 -2.25 40.3 -2.1 40.6 -1.8 40.9 -1.5 41.2 -1.2 41.5 -0.9 41.75 -0.6 42.0 -0.3 42.25 0.0 42.5 0.35 42.7 0.65 42.95 1.0 43.15 1.35 43.35 1.7 43.55 2.05 43.75 2.4 43.95 2.75 44.15 3.15 44.3 3.4 44.45 3.65 44.6 3.95 44.75 4.25 44.9 4.6 45.05 4.9 45.25 5.25 45.4 5.6 45.6 6.0 45.75 6.4 45.95 6.8 46.1 7.25 46.3 7.7 46.5 8.15 46.65 8.65 46.85 9.1 47.0 9.55 47.15 9.9 47.25 10.3 47.35 10.6 47.45 10.95 47.55 11.25 47.6 11.6 47.65 11.85 47.7 12.15 47.7 12.45 47.7 12.7 47.7 12.95 47.7 13.25 47.65 13.5 47.6 13.75 47.55 14.0 47.5 14.15 47.5 14.2 47.45 14.35 47.4 14.45 47.35 14.6 47.3 14.7 47.25 14.85 47.15 15.0 47.1 15.15 47.0 15.25 46.9 15.4 46.8 15.5 46.7 15.65 46.55 15.75 46.45 15.85 46.3 15.9 46.25 15.95 46.15 15.95 46.05 16.0 45.95 16.0 45.8 16.05 45.65 16.05 45.45 16.05 45.25 16.05 45.0 16.0 44.75 15.95 44.45 15.85 44.1 15.7 43.75 15.6 43.35 15.4 42.9 15.15 42.45 14.9 42.2 14.75 41.95 14.6 41.65 14.4 41.4 14.2 41.1 14.0 40.8 13.75 40.45 13.5 40.15 13.25 39.8 12.95 39.5 12.65 39.15 12.3 38.8 12.0 38.45 11.6 38.15 11.25 37.8 10.8 37.45 10.4 L37.45 10.4" fill="#f9545b" fill-rule="evenodd" stroke="none"/>
  </g>
</svg>
