<?xml version="1.0" encoding="UTF-8" standalone="no"?>
<svg xmlns:xlink="http://www.w3.org/1999/xlink" height="200.0px" width="200.0px" xmlns="http://www.w3.org/2000/svg">
  <g transform="matrix(1.0, 0.0, 0.0, 1.0, 100.0, 100.0)">
    <path d="M-26.3 -44.25 Q-26.5 -44.45 -26.95 -44.4 -27.35 -44.3 -27.7 -43.95 -28.05 -43.6 -28.2 -43.2 -28.3 -42.8 -28.05 -42.6 -27.85 -42.35 -27.45 -42.45 -27.05 -42.5 -26.7 -42.85 -26.3 -43.2 -26.2 -43.6 -26.1 -44.0 -26.3 -44.25 L-26.3 -44.25" fill="#f9f9f9" fill-rule="evenodd" stroke="none"/>
    <path d="M-13.1 -50.0 Q-13.2 -50.15 -13.4 -50.1 -13.65 -50.05 -13.9 -49.9 -14.15 -49.7 -14.25 -49.5 -14.3 -49.25 -14.2 -49.15 -14.1 -49.0 -13.9 -49.05 -13.65 -49.05 -13.4 -49.25 -13.15 -49.4 -13.1 -49.65 -13.0 -49.85 -13.1 -50.0 L-13.1 -50.0" fill="#f9f9f9" fill-rule="evenodd" stroke="none"/>
    <path d="M22.95 -42.45 Q22.7 -42.8 22.4 -42.95 22.05 -43.1 21.85 -42.95 21.65 -42.8 21.7 -42.45 21.75 -42.1 22.0 -41.75 22.25 -41.4 22.55 -41.25 22.9 -41.1 23.1 -41.25 23.3 -41.4 23.25 -41.75 23.25 -42.1 22.95 -42.45 L22.95 -42.45" fill="#f9f9f9" fill-rule="evenodd" stroke="none"/>
    <path d="M33.8 -10.5 Q33.55 -10.75 33.15 -10.65 32.75 -10.6 32.4 -10.25 32.05 -9.9 31.9 -9.5 31.8 -9.1 32.0 -8.9 32.25 -8.65 32.65 -8.75 33.05 -8.8 33.4 -9.15 33.8 -9.5 33.9 -9.9 34.0 -10.3 33.8 -10.5 L33.8 -10.5" fill="#f9f9f9" fill-rule="evenodd" stroke="none"/>
    <path d="M-48.05 -16.25 Q-48.15 -16.35 -48.4 -16.3 -48.6 -16.2 -48.8 -16.0 -49.05 -15.8 -49.1 -15.6 -49.15 -15.35 -49.05 -15.25 -48.9 -15.1 -48.7 -15.15 -48.45 -15.25 -48.25 -15.45 -48.05 -15.65 -48.0 -15.9 -47.9 -16.1 -48.05 -16.25 L-48.05 -16.25" fill="#f9f9f9" fill-rule="evenodd" stroke="none"/>
    <path d="M13.7 -5.1 Q13.6 -5.2 13.4 -5.2 13.2 -5.15 13.0 -4.95 12.8 -4.8 12.75 -4.6 12.7 -4.4 12.8 -4.3 12.95 -4.15 13.15 -4.2 13.35 -4.25 13.5 -4.4 13.7 -4.6 13.75 -4.8 13.8 -5.0 13.7 -5.1 L13.7 -5.1" fill="#f9f9f9" fill-rule="evenodd" stroke="none"/>
    <path d="M-11.6 -32.3 Q-11.7 -32.4 -11.9 -32.35 -12.05 -32.35 -12.2 -32.2 -12.35 -32.05 -12.4 -31.9 -12.45 -31.7 -12.35 -31.6 -12.25 -31.55 -12.1 -31.55 -11.95 -31.6 -11.8 -31.75 -11.6 -31.9 -11.6 -32.05 -11.55 -32.2 -11.6 -32.3 L-11.6 -32.3" fill="#f9f9f9" fill-rule="evenodd" stroke="none"/>
  </g>
</svg>
