<?xml version="1.0" encoding="UTF-8" standalone="no"?>
<svg xmlns:xlink="http://www.w3.org/1999/xlink" height="200.0px" width="200.0px" xmlns="http://www.w3.org/2000/svg">
  <g transform="matrix(1.0, 0.0, 0.0, 1.0, 100.0, 100.0)">
    <path d="M9.35 28.6 Q9.35 28.85 9.35 29.05 9.35 29.3 9.35 29.5 9.3 29.75 9.3 29.95 9.25 30.2 9.2 30.4 9.15 30.6 9.1 30.85 9.05 31.05 8.95 31.25 8.85 31.45 8.75 31.65 8.65 31.85 8.55 32.05 8.4 32.3 8.25 32.5 8.05 32.7 7.9 32.9 7.7 33.1 7.5 33.25 7.3 33.45 7.1 33.55 6.9 33.7 6.65 33.85 6.45 33.95 6.2 34.0 5.95 34.1 5.65 34.15 5.4 34.2 5.1 34.2 4.8 34.2 4.5 34.15 4.2 34.1 3.95 34.05 3.7 33.95 3.45 33.85 3.2 33.75 2.95 33.6 2.75 33.4 2.6 33.25 2.4 33.05 2.25 32.8 2.1 32.6 2.0 32.3 1.9 32.05 1.85 31.75 1.8 31.5 1.7 31.25 1.65 31.0 1.55 30.75 1.45 30.55 1.35 30.3 1.2 30.1 1.1 29.9 0.95 29.7 0.8 29.5 0.65 29.35 0.5 29.15 0.3 28.95 0.15 28.8 -0.05 28.6 -0.25 28.45 -0.6 28.15 -0.9 27.8 -1.2 27.45 -1.45 27.1 -1.7 26.75 -1.85 26.35 -2.05 26.0 -2.2 25.6 -2.3 25.2 -2.35 24.8 -2.4 24.35 -2.4 23.95 -2.4 23.5 -2.35 23.05 -2.3 22.6 -2.2 22.15 -2.1 21.75 -1.9 21.35 -1.7 21.0 -1.45 20.7 -1.2 20.4 -0.9 20.2 -0.6 19.95 -0.25 19.8 0.1 19.65 0.45 19.55 0.85 19.45 1.25 19.45 1.65 19.45 2.05 19.55 2.45 19.6 2.85 19.8 3.05 19.9 3.25 20.0 3.4 20.1 3.6 20.2 3.75 20.3 3.95 20.4 4.1 20.55 4.25 20.65 4.4 20.8 4.6 20.95 4.75 21.1 4.9 21.25 5.0 21.35 5.15 21.55 5.3 21.7 5.45 21.85 5.5 21.9 5.55 21.95 5.6 22.05 5.65 22.05 5.75 22.1 5.8 22.15 5.85 22.15 5.9 22.15 5.95 22.15 6.0 22.15 6.1 22.15 6.15 22.15 6.2 22.15 6.3 22.1 6.4 22.1 6.45 22.05 6.6 22.0 6.75 21.95 6.9 21.85 7.0 21.8 7.15 21.7 7.2 21.65 7.3 21.55 7.4 21.45 7.5 21.35 7.55 21.25 7.6 21.15 7.65 21.0 7.7 20.85 7.75 20.7 7.8 20.55 7.85 20.4 7.95 19.95 8.1 19.6 8.2 19.2 8.45 18.9 8.65 18.55 8.9 18.3 9.2 18.05 9.5 17.85 9.8 17.65 10.2 17.5 10.55 17.4 10.9 17.35 11.3 17.3 11.75 17.3 12.15 17.35 12.6 17.45 13.1 17.55 13.6 17.75 14.05 17.95 14.45 18.25 14.8 18.5 15.15 18.85 15.45 19.2 15.7 19.6 15.95 19.95 16.1 20.4 16.25 20.85 16.3 21.3 16.35 21.8 16.35 22.3 16.3 22.8 16.15 23.3 16.1 23.45 16.1 23.6 16.05 23.75 16.05 23.9 16.05 24.0 16.05 24.15 16.05 24.3 16.05 24.45 16.05 24.6 16.05 24.7 16.1 24.85 16.1 25.0 16.1 25.15 16.15 25.25 16.2 25.4 16.25 25.55 16.4 26.05 16.45 26.5 16.5 26.9 16.45 27.3 16.45 27.7 16.3 28.0 16.2 28.35 16.0 28.6 15.8 28.9 15.5 29.1 15.25 29.3 14.85 29.45 14.5 29.6 14.05 29.7 13.6 29.8 13.1 29.8 12.85 29.8 12.65 29.8 12.45 29.8 12.25 29.8 12.05 29.75 11.85 29.7 11.7 29.7 11.5 29.6 11.3 29.55 11.05 29.45 10.85 29.35 10.6 29.25 10.35 29.1 10.05 28.95 9.75 28.8 9.35 28.6 L9.35 28.6 M4.75 25.8 Q4.7 25.75 4.6 25.75 4.55 25.75 4.45 25.75 4.35 25.8 4.25 25.8 4.1 25.9 4.1 25.9 4.0 25.9 3.95 25.9 3.85 25.95 3.8 25.9 3.7 25.9 3.65 25.85 3.6 25.75 3.55 25.65 3.55 25.6 3.55 25.55 3.6 25.55 3.65 25.5 3.7 25.45 3.75 25.45 3.8 25.4 3.9 25.4 4.0 25.35 4.1 25.35 4.15 25.3 4.3 25.3 4.35 25.3 4.45 25.3 4.6 25.25 4.65 25.25 4.85 25.2 5.0 25.2 5.15 25.15 5.25 25.1 5.35 25.05 5.4 25.0 5.45 24.95 5.5 24.9 5.5 24.85 5.5 24.75 5.5 24.65 5.45 24.55 5.45 24.45 5.35 24.3 5.3 24.15 5.2 23.95 5.05 23.7 4.9 23.45 4.75 23.2 4.55 23.0 4.35 22.8 4.15 22.6 3.95 22.4 3.7 22.25 3.5 22.1 3.25 21.95 3.05 21.8 2.75 21.65 2.55 21.5 2.25 21.35 1.45 20.9 1.75 21.1 1.55 21.0 1.35 20.95 1.15 20.85 0.95 20.85 0.75 20.85 0.55 20.85 0.35 20.9 0.2 20.95 0.0 21.05 -0.15 21.15 -0.3 21.25 -0.45 21.4 -0.6 21.55 -0.7 21.7 -0.8 21.9 -0.85 22.1 -0.95 22.45 -1.0 22.85 -1.05 23.2 -1.05 23.6 -1.1 24.0 -1.05 24.35 -1.05 24.75 -0.95 25.1 -0.9 25.5 -0.75 25.85 -0.6 26.2 -0.4 26.55 -0.2 26.85 0.05 27.15 0.3 27.45 0.65 27.7 0.9 27.9 1.15 28.1 1.35 28.3 1.55 28.55 1.8 28.75 1.95 28.95 2.15 29.2 2.3 29.45 2.45 29.7 2.55 29.95 2.7 30.2 2.8 30.45 2.9 30.75 3.0 31.05 3.05 31.35 3.1 31.65 3.1 31.75 3.15 31.9 3.2 32.0 3.2 32.05 3.25 32.15 3.35 32.25 3.4 32.3 3.45 32.4 3.55 32.45 3.6 32.5 3.7 32.55 3.8 32.6 3.9 32.65 4.0 32.65 4.1 32.7 4.25 32.75 4.6 32.8 4.9 32.85 5.2 32.85 5.45 32.8 5.75 32.8 6.0 32.7 6.25 32.65 6.45 32.5 6.7 32.4 6.9 32.2 7.1 32.05 7.3 31.8 7.45 31.6 7.65 31.3 7.8 31.0 7.95 30.7 8.15 30.15 8.25 29.65 8.35 29.1 8.3 28.6 8.25 28.15 8.1 27.7 7.95 27.3 7.7 26.95 7.45 26.6 7.1 26.3 6.8 26.05 6.4 25.9 6.05 25.75 5.6 25.7 5.2 25.7 4.75 25.8 L4.75 25.8 M12.7 28.7 Q13.95 28.55 13.95 28.55 14.1 28.55 14.25 28.5 14.4 28.5 14.55 28.45 14.65 28.4 14.75 28.3 14.85 28.25 14.95 28.15 15.0 28.05 15.1 27.95 15.15 27.85 15.2 27.7 15.2 27.6 15.25 27.45 15.25 27.3 15.25 27.15 15.25 27.15 15.25 26.95 15.3 26.85 15.3 26.8 15.3 26.65 15.3 26.6 15.3 26.5 15.3 26.4 15.3 26.3 15.3 26.2 15.3 26.15 15.25 26.05 15.25 25.95 15.2 25.9 15.2 25.8 15.15 25.75 15.05 25.55 14.95 25.4 14.85 25.2 14.8 25.05 14.8 24.85 14.75 24.65 14.75 24.5 14.75 24.3 14.75 24.15 14.75 23.95 14.75 23.8 14.8 23.6 14.8 23.45 14.85 23.25 14.9 22.95 14.9 22.85 15.05 22.2 15.05 21.9 15.05 21.65 15.0 21.35 14.95 21.1 14.9 20.85 14.85 20.6 14.7 20.35 14.6 20.15 14.5 19.9 14.35 19.7 14.2 19.55 14.0 19.35 13.85 19.2 13.65 19.05 13.45 18.95 13.25 18.85 13.0 18.8 12.75 18.7 12.5 18.7 12.25 18.65 11.95 18.65 11.7 18.7 11.45 18.75 11.2 18.8 10.95 18.9 10.7 19.0 10.5 19.1 10.25 19.25 10.05 19.4 9.85 19.6 9.65 19.8 9.5 20.0 9.35 20.25 9.25 20.4 9.2 20.5 9.15 20.65 9.1 20.8 9.05 20.95 9.05 21.1 9.0 21.25 9.0 21.4 9.0 21.55 9.0 21.65 9.05 21.8 9.1 21.95 9.15 22.1 9.2 22.2 9.25 22.35 9.35 22.45 9.45 22.55 9.55 22.65 9.65 22.75 9.8 22.85 9.9 22.9 10.0 22.95 10.15 23.0 10.25 23.05 10.4 23.05 10.55 23.1 10.7 23.1 10.8 23.05 10.95 23.05 11.1 23.0 11.25 22.95 11.4 22.85 11.6 22.8 12.35 22.65 12.4 22.65 12.45 22.65 12.5 22.65 12.55 22.7 12.6 22.7 12.6 22.75 12.65 22.8 12.65 22.85 12.65 22.9 12.65 22.95 12.65 22.95 12.6 23.0 12.6 23.0 12.55 23.05 12.5 23.05 12.45 23.05 12.15 23.15 11.85 23.3 11.6 23.4 11.4 23.6 11.2 23.8 11.0 24.0 10.85 24.2 10.75 24.45 10.6 24.7 10.5 24.95 10.4 25.15 10.3 25.45 10.7 24.45 10.1 26.0 10.0 26.3 9.9 26.5 9.85 26.55 9.85 26.65 9.85 26.7 9.8 26.8 9.8 26.9 9.8 26.95 9.8 27.05 9.85 27.1 9.85 27.2 9.9 27.25 9.9 27.3 9.95 27.4 10.0 27.45 10.05 27.5 10.1 27.55 10.15 27.6 10.25 27.7 10.45 27.8 11.35 28.45 10.7 28.0 10.9 28.15 11.0 28.2 11.15 28.3 11.3 28.4 11.45 28.5 11.65 28.55 11.8 28.6 11.95 28.65 12.15 28.7 12.35 28.7 12.5 28.7 12.7 28.7 L12.7 28.7 M7.55 23.55 Q7.45 23.55 7.4 23.55 7.3 23.55 7.25 23.6 7.2 23.6 7.15 23.6 7.05 23.6 7.0 23.65 6.95 23.7 6.9 23.7 6.85 23.75 6.85 23.85 6.8 23.9 6.75 23.95 6.75 24.05 6.75 24.15 6.75 24.3 6.8 24.45 6.8 24.55 6.9 24.75 6.95 24.9 7.05 25.05 7.15 25.2 7.25 25.3 7.35 25.45 7.45 25.6 7.55 25.7 7.7 25.8 7.8 25.85 7.9 25.9 8.05 25.95 8.15 25.9 8.25 25.9 8.4 25.85 8.5 25.85 8.6 25.8 8.7 25.75 8.75 25.7 8.85 25.6 8.9 25.55 9.0 25.5 9.05 25.4 9.1 25.3 9.15 25.2 9.2 25.1 9.2 24.95 9.25 24.85 9.25 24.7 9.25 24.6 9.2 24.5 9.2 24.35 9.1 24.25 9.05 24.15 8.95 24.1 8.85 24.0 8.75 23.9 8.65 23.85 8.5 23.75 8.35 23.7 8.2 23.65 8.05 23.6 7.9 23.6 7.75 23.55 7.55 23.55 L7.55 23.55" fill="#0b0b0b" fill-rule="evenodd" stroke="none"/>
    <path d="M35.75 39.15 Q35.7 39.6 35.65 40.9 35.55 42.25 35.5 43.0 35.5 43.15 35.45 43.3 35.45 43.45 35.4 43.55 35.35 43.7 35.25 43.8 35.2 43.9 35.1 43.95 35.05 44.05 34.95 44.1 34.85 44.15 34.75 44.2 34.6 44.2 34.5 44.25 34.4 44.25 34.25 44.2 33.65 44.1 33.1 43.95 32.5 43.85 32.0 43.7 31.4 43.55 30.85 43.4 30.3 43.2 29.8 43.0 29.25 42.8 28.75 42.55 28.2 42.3 27.7 42.05 27.2 41.75 26.7 41.4 26.25 41.05 25.8 40.7 25.6 40.55 25.45 40.4 25.25 40.2 25.1 40.05 24.95 39.85 24.85 39.7 24.7 39.5 24.6 39.3 24.5 39.1 24.4 38.9 24.3 38.65 24.25 38.45 24.2 38.25 24.15 38.0 24.1 37.75 24.1 37.5 24.1 37.2 24.1 36.9 24.15 36.6 24.25 36.35 24.35 36.05 24.5 35.85 24.6 35.6 24.8 35.4 25.0 35.2 25.2 35.05 25.45 34.85 25.7 34.75 25.95 34.65 26.25 34.55 26.55 34.5 26.85 34.5 27.0 34.5 27.15 34.5 27.3 34.5 27.5 34.5 27.65 34.5 27.8 34.5 27.95 34.55 28.1 34.55 28.25 34.6 28.4 34.65 28.55 34.65 28.7 34.7 28.85 34.75 29.0 34.85 29.15 34.9 29.3 34.95 29.4 35.0 29.45 35.0 29.5 35.05 29.55 35.05 29.6 35.05 29.65 35.1 29.7 35.1 29.75 35.05 29.8 35.05 29.85 35.05 29.9 35.0 29.95 34.95 29.95 34.9 30.0 34.85 30.05 34.8 30.1 34.7 30.2 34.5 30.25 34.3 30.35 34.1 30.5 33.95 30.6 33.8 30.7 33.65 30.85 33.5 31.0 33.4 31.15 33.25 31.35 33.2 31.5 33.1 31.7 33.05 31.9 32.95 32.1 32.95 32.3 32.9 32.55 32.9 32.8 32.9 33.0 32.95 33.2 33.0 33.4 33.05 33.6 33.1 33.75 33.2 33.95 33.3 34.1 33.4 34.25 33.55 34.4 33.7 34.55 33.8 34.7 34.0 34.8 34.15 34.95 34.3 35.05 34.5 35.15 34.7 35.25 34.9 35.35 35.05 35.4 35.25 35.45 35.45 35.55 35.7 35.6 35.9 35.65 36.15 35.65 36.4 35.7 36.65 35.75 36.95 35.75 37.25 35.75 37.6 35.75 37.95 35.75 38.3 35.75 38.7 35.75 39.15 L35.75 39.15 M30.35 37.5 Q30.55 37.55 30.6 37.55 30.65 37.45 30.55 37.45 30.55 37.45 30.45 37.4 30.3 37.25 30.1 37.1 29.9 36.95 29.75 36.85 29.55 36.7 29.35 36.6 29.15 36.5 28.95 36.45 28.75 36.35 28.55 36.3 28.35 36.25 28.1 36.25 27.9 36.25 27.65 36.25 27.45 36.25 27.2 36.3 27.0 36.35 26.85 36.4 26.65 36.45 26.55 36.6 26.4 36.7 26.25 36.8 26.15 36.95 26.05 37.1 26.0 37.25 25.95 37.4 25.9 37.6 25.85 37.75 25.85 37.95 25.9 38.1 25.9 38.3 26.0 38.45 26.05 38.5 26.05 38.6 26.1 38.65 26.1 38.7 26.15 38.75 26.2 38.8 26.25 38.85 26.25 38.95 26.3 39.0 26.35 39.05 26.4 39.1 26.45 39.15 26.5 39.2 26.5 39.25 26.55 39.3 26.6 39.35 26.95 39.75 27.35 40.15 27.75 40.45 28.15 40.8 28.55 41.05 29.05 41.3 29.45 41.55 29.95 41.8 30.4 41.95 30.9 42.15 31.35 42.3 31.85 42.5 32.3 42.65 32.85 42.8 32.95 42.8 33.85 43.1 33.95 43.15 34.05 43.15 34.1 43.15 34.15 43.1 34.2 43.1 34.25 43.05 34.25 43.0 34.3 42.95 34.3 42.9 34.3 42.85 34.3 42.8 34.3 42.75 34.3 42.65 34.3 42.65 34.3 42.6 34.3 42.55 34.4 42.2 34.5 41.8 34.55 41.4 34.6 41.05 34.6 40.65 34.6 40.25 34.65 39.9 34.6 39.5 34.6 39.15 34.55 38.75 34.5 38.4 34.45 38.0 34.4 37.65 34.3 37.25 34.25 36.9 34.15 36.5 34.15 36.4 34.1 36.3 34.1 36.2 34.05 36.15 34.0 36.05 34.0 35.95 33.95 35.9 33.95 35.8 33.9 35.7 33.85 35.65 33.8 35.55 33.8 35.5 33.75 35.4 33.7 35.3 33.65 35.25 33.6 35.2 33.45 35.05 33.3 34.9 33.15 34.75 32.95 34.65 32.8 34.6 32.6 34.55 32.45 34.5 32.25 34.5 32.05 34.5 31.9 34.55 31.75 34.55 31.6 34.65 31.45 34.75 31.3 34.9 31.2 35.0 31.1 35.2 31.05 35.35 31.0 35.5 30.95 35.65 30.9 35.8 30.85 35.95 30.85 36.1 30.85 36.25 30.8 36.45 30.8 36.6 30.8 36.8 30.8 36.95 30.8 37.15 30.85 37.3 30.85 37.5 30.85 37.65 30.9 37.9 31.0 37.7 31.05 37.6 31.15 37.45 31.25 37.35 31.35 37.25 31.45 37.15 31.5 37.0 31.6 36.95 31.7 36.85 31.8 36.8 31.95 36.75 32.05 36.7 32.2 36.7 32.3 36.7 32.45 36.7 32.6 36.75 32.75 36.8 32.9 36.9 33.05 36.95 33.15 37.05 33.25 37.15 33.35 37.25 33.45 37.35 33.5 37.5 33.55 37.6 33.6 37.75 33.65 37.85 33.7 38.0 33.75 38.15 33.75 38.3 33.8 38.45 33.8 38.6 33.8 38.8 33.85 38.95 33.85 39.15 33.85 39.35 33.85 39.5 33.8 39.7 33.8 39.85 33.8 40.05 33.8 40.15 33.75 40.4 33.75 40.65 33.75 40.75 33.7 40.95 33.7 41.15 33.7 41.3 33.7 41.5 33.7 41.55 33.7 41.65 33.65 41.7 33.65 41.75 33.6 41.8 33.6 41.85 33.55 41.9 33.5 41.95 33.45 41.95 33.4 42.0 33.35 42.0 33.3 42.0 33.2 42.05 33.15 42.05 33.1 42.05 33.0 42.0 32.7 41.95 32.45 41.9 32.15 41.85 31.9 41.75 31.65 41.7 31.4 41.6 31.1 41.55 30.9 41.45 30.6 41.35 30.4 41.2 30.15 41.1 29.9 40.95 29.65 40.8 29.45 40.65 29.2 40.45 29.0 40.25 28.9 40.15 28.8 40.05 28.7 39.95 28.6 39.8 28.5 39.7 28.45 39.55 28.4 39.45 28.35 39.3 28.3 39.2 28.3 39.05 28.25 38.9 28.3 38.75 28.3 38.6 28.35 38.45 28.4 38.3 28.45 38.15 28.55 38.0 28.6 37.9 28.7 37.8 28.8 37.7 28.9 37.65 29.05 37.6 29.15 37.5 29.3 37.5 29.4 37.45 29.55 37.45 29.65 37.45 29.8 37.45 29.95 37.45 30.1 37.45 30.2 37.5 30.35 37.5 L30.35 37.5 M31.45 38.8 Q30.5 38.35 30.3 38.3 30.25 38.3 30.15 38.3 30.1 38.25 30.0 38.25 29.95 38.25 29.9 38.25 29.8 38.25 29.75 38.3 29.7 38.3 29.6 38.35 29.55 38.35 29.5 38.4 29.45 38.45 29.4 38.5 29.35 38.55 29.3 38.65 29.25 38.7 29.2 38.8 29.2 38.85 29.2 38.95 29.15 39.0 29.15 39.1 29.15 39.15 29.2 39.2 29.2 39.25 29.2 39.35 29.25 39.4 29.3 39.45 29.3 39.55 29.35 39.6 29.4 39.65 29.45 39.7 29.5 39.8 29.55 39.85 29.65 39.9 29.7 40.0 29.75 40.05 29.8 40.1 29.9 40.15 29.95 40.25 30.05 40.3 30.1 40.35 30.15 40.4 30.25 40.45 30.3 40.5 30.4 40.55 30.45 40.6 30.55 40.65 30.7 40.7 30.85 40.8 30.95 40.85 31.2 40.95 31.4 41.1 31.5 41.15 31.7 41.25 31.85 41.3 32.0 41.35 32.15 41.4 32.35 41.45 32.45 41.45 32.6 41.5 32.75 41.45 32.9 41.4 33.0 41.3 33.1 41.2 33.2 41.1 33.25 41.0 33.3 40.85 33.35 40.7 33.35 40.55 33.35 40.35 33.35 40.2 33.35 40.0 33.3 39.8 33.3 39.65 33.25 39.45 33.25 39.4 33.2 39.1 33.15 38.9 33.15 38.75 33.1 38.6 33.1 38.5 33.05 38.4 33.05 38.3 33.0 38.15 32.95 38.05 32.95 37.95 32.9 37.85 32.8 37.8 32.75 37.7 32.7 37.6 32.6 37.55 32.5 37.5 32.4 37.5 32.25 37.45 32.1 37.5 31.95 37.5 31.85 37.55 31.75 37.55 31.7 37.65 31.65 37.7 31.6 37.8 31.55 37.85 31.55 37.95 31.55 38.05 31.5 38.15 31.5 38.25 31.5 38.4 31.5 38.5 31.5 38.6 31.5 38.7 31.45 38.8 L31.45 38.8" fill="#0b0b0b" fill-rule="evenodd" stroke="none"/>
    <path d="M-28.15 43.8 Q-28.15 43.55 -28.15 43.4 -28.15 43.15 -28.15 43.0 -28.15 42.8 -28.15 42.65 -28.1 42.45 -28.1 42.3 -28.1 42.15 -28.05 42.0 -28.05 41.8 -28.0 41.7 -28.0 41.55 -27.95 41.4 -27.9 41.25 -27.9 41.1 -27.75 40.7 -27.55 40.35 -27.35 40.0 -27.05 39.75 -26.8 39.5 -26.5 39.3 -26.2 39.15 -25.85 39.1 -25.55 39.0 -25.2 39.05 -24.85 39.05 -24.5 39.2 -24.15 39.3 -23.85 39.5 -23.5 39.75 -23.2 40.05 -23.15 40.1 -23.1 40.2 -23.05 40.25 -22.95 40.35 -22.95 40.4 -22.85 40.55 -22.8 40.65 -22.75 40.7 -22.7 40.8 -22.65 40.85 -22.6 40.9 -22.5 40.95 -22.45 41.0 -22.4 41.05 -22.35 41.1 -22.3 41.1 -22.25 41.1 -22.15 41.1 -22.1 41.05 -22.0 41.05 -21.95 41.0 -21.85 40.95 -21.8 40.9 -21.75 40.8 -21.7 40.8 -21.6 40.7 -21.5 40.6 -21.45 40.55 -21.35 40.5 -21.25 40.45 -21.2 40.4 -21.1 40.35 -20.9 40.25 -20.7 40.15 -20.5 40.05 -20.3 40.0 -20.1 39.95 -19.95 39.9 -19.7 39.85 -19.55 39.85 -19.3 39.85 -19.15 39.85 -18.9 39.9 -18.75 39.95 -18.55 40.0 -18.35 40.05 -18.15 40.15 -17.95 40.25 -17.75 40.35 -17.6 40.5 -17.45 40.65 -17.35 40.8 -17.25 40.95 -17.15 41.1 -17.1 41.3 -17.05 41.45 -17.0 41.65 -16.95 41.85 -16.95 42.0 -16.95 42.2 -16.95 42.4 -16.95 42.6 -16.95 42.8 -16.95 43.0 -17.0 43.5 -17.1 43.95 -17.2 44.4 -17.35 44.8 -17.5 45.25 -17.65 45.65 -17.85 46.05 -18.05 46.4 -18.3 46.8 -18.55 47.15 -18.8 47.5 -19.1 47.85 -19.4 48.15 -19.75 48.45 -20.1 48.75 -20.5 49.05 -20.75 49.2 -21.0 49.4 -21.25 49.55 -21.5 49.7 -21.75 49.9 -22.05 50.05 -22.3 50.2 -22.55 50.35 -22.8 50.5 -23.1 50.65 -23.35 50.75 -23.65 50.9 -23.9 51.05 -24.15 51.2 -24.45 51.3 -24.7 51.45 -24.85 51.5 -24.95 51.55 -25.1 51.6 -25.2 51.6 -25.3 51.65 -25.45 51.6 -25.55 51.6 -25.65 51.6 -25.75 51.55 -25.8 51.5 -25.9 51.45 -26.0 51.35 -26.05 51.25 -26.15 51.15 -26.2 51.05 -26.25 50.9 -26.45 50.4 -26.6 50.0 -26.8 49.55 -26.95 49.1 -27.15 48.65 -27.3 48.2 -27.45 47.75 -27.6 47.3 -27.7 46.85 -27.8 46.4 -27.9 45.95 -28.0 45.55 -28.05 45.1 -28.1 44.65 -28.15 44.25 -28.15 43.8 L-28.15 43.8 M-22.75 43.35 Q-23.5 41.6 -23.9 41.15 -24.0 41.05 -24.05 41.0 -24.15 40.9 -24.25 40.8 -24.35 40.75 -24.45 40.7 -24.55 40.65 -24.65 40.6 -24.75 40.55 -24.85 40.55 -25.0 40.5 -25.1 40.5 -25.2 40.5 -25.35 40.55 -25.45 40.55 -25.6 40.6 -25.7 40.65 -25.85 40.7 -25.95 40.75 -26.05 40.85 -26.1 40.9 -26.2 41.0 -26.3 41.05 -26.35 41.15 -26.4 41.25 -26.45 41.35 -26.5 41.45 -26.55 41.6 -26.6 41.7 -26.6 41.8 -26.6 41.95 -26.6 42.05 -26.6 42.45 -26.6 42.9 -26.6 43.3 -26.55 43.75 -26.55 44.15 -26.5 44.55 -26.45 44.95 -26.4 45.4 -26.35 45.8 -26.25 46.2 -26.2 46.6 -26.1 47.0 -26.0 47.4 -25.9 47.85 -25.8 48.25 -25.7 48.65 -25.65 48.8 -25.6 48.95 -25.5 49.1 -25.4 49.2 -25.3 49.3 -25.2 49.4 -25.05 49.5 -24.9 49.55 -24.8 49.6 -24.65 49.6 -24.5 49.65 -24.35 49.65 -24.2 49.6 -24.05 49.55 -23.9 49.5 -23.75 49.45 -23.3 49.2 -22.9 48.9 -22.5 48.65 -22.1 48.35 -21.7 48.05 -21.35 47.7 -21.0 47.35 -20.7 47.0 -20.35 46.65 -20.05 46.25 -19.75 45.9 -19.5 45.45 -19.25 45.05 -19.05 44.6 -18.8 44.15 -18.65 43.65 -18.6 43.5 -18.55 43.4 -18.5 43.3 -18.5 43.15 -18.5 43.05 -18.45 42.9 -18.45 42.8 -18.5 42.7 -18.5 42.55 -18.55 42.45 -18.55 42.35 -18.6 42.25 -18.65 42.1 -18.75 42.0 -18.85 41.9 -18.95 41.85 -19.05 41.75 -19.15 41.7 -19.3 41.6 -19.4 41.55 -19.5 41.5 -19.65 41.5 -19.75 41.5 -19.9 41.5 -20.0 41.5 -20.15 41.5 -20.25 41.55 -20.4 41.6 -20.5 41.65 -20.6 41.7 -20.75 41.75 -20.85 41.85 -21.05 42.0 -22.75 43.35 L-22.75 43.35" fill="#0b0b0b" fill-rule="evenodd" stroke="none"/>
    <path d="M-28.8 64.6 Q-29.05 64.6 -29.3 64.55 -29.55 64.5 -29.8 64.4 -30.0 64.35 -30.25 64.2 -30.45 64.1 -30.65 63.95 -30.9 63.8 -31.1 63.6 -31.25 63.4 -31.45 63.2 -31.65 63.0 -31.8 62.75 -31.95 62.5 -32.1 62.2 -32.2 62.0 -32.3 61.8 -32.45 61.65 -32.55 61.55 -32.65 61.4 -32.75 61.35 -32.85 61.25 -32.95 61.25 -33.1 61.2 -33.2 61.25 -33.35 61.25 -33.5 61.3 -33.6 61.35 -33.8 61.45 -33.95 61.55 -34.15 61.7 -34.25 61.75 -34.35 61.85 -34.45 61.9 -34.55 61.95 -34.7 62.0 -34.8 62.05 -34.9 62.1 -35.0 62.15 -35.15 62.2 -35.25 62.25 -35.35 62.3 -35.5 62.3 -35.6 62.35 -35.7 62.4 -35.85 62.4 -35.95 62.4 -36.15 62.45 -36.3 62.45 -36.45 62.45 -36.6 62.45 -36.75 62.45 -36.9 62.45 -37.1 62.45 -37.2 62.4 -37.35 62.35 -37.5 62.3 -37.65 62.25 -37.75 62.15 -37.9 62.05 -38.0 61.95 -38.1 61.8 -38.2 61.65 -38.3 61.5 -38.4 61.3 -38.45 61.15 -38.5 61.0 -38.55 60.8 -38.6 60.65 -38.65 60.45 -38.65 60.3 -38.65 60.1 -38.65 59.95 -38.65 59.75 -38.6 59.6 -38.55 59.45 -38.45 59.25 -38.35 59.1 -38.25 58.9 -38.2 58.8 -38.15 58.7 -38.1 58.65 -38.05 58.55 -38.0 58.45 -37.95 58.35 -37.9 58.25 -37.85 58.15 -37.85 58.05 -37.8 57.95 -37.75 57.85 -37.75 57.75 -37.7 57.65 -37.7 57.55 -37.65 57.45 -37.65 57.35 -37.65 57.2 -37.6 57.1 -37.6 57.0 -37.55 56.85 -37.5 56.75 -37.45 56.6 -37.4 56.5 -37.4 56.4 -37.35 56.25 -37.25 56.15 -37.2 56.05 -37.15 55.95 -37.1 55.85 -37.05 55.7 -36.95 55.6 -36.9 55.5 -36.7 55.25 -36.5 55.0 -36.25 54.8 -36.0 54.7 -35.75 54.55 -35.5 54.5 -35.25 54.4 -35.0 54.4 -34.7 54.4 -34.45 54.5 -34.2 54.55 -33.95 54.7 -33.7 54.85 -33.5 55.05 -33.25 55.25 -33.05 55.55 -32.8 55.95 -32.8 56.0 -32.8 56.25 -32.7 56.45 -32.65 56.65 -32.55 56.8 -32.45 56.95 -32.3 57.05 -32.15 57.15 -32.0 57.25 -31.85 57.35 -31.65 57.45 -31.55 57.5 -31.3 57.55 -31.05 57.65 -30.95 57.7 -30.75 57.8 -30.65 57.85 -30.6 57.9 -30.55 57.9 -30.5 57.9 -30.45 57.9 -30.4 57.9 -30.35 57.9 -30.3 57.9 -30.3 57.85 -30.25 57.85 -30.2 57.85 -30.15 57.8 -30.1 57.8 -30.05 57.75 -30.05 57.75 -30.0 57.7 -29.95 57.7 -29.8 57.6 -29.6 57.55 -29.45 57.45 -29.25 57.4 -29.1 57.35 -28.95 57.25 -28.75 57.2 -28.6 57.15 -28.4 57.05 -28.25 57.0 -28.05 56.95 -27.9 56.9 -27.7 56.85 -27.5 56.8 -27.35 56.75 -27.15 56.7 -26.9 56.65 -26.7 56.65 -26.5 56.6 -26.3 56.65 -26.1 56.65 -25.9 56.7 -25.7 56.75 -25.55 56.8 -25.35 56.9 -25.2 57.0 -25.05 57.1 -24.9 57.25 -24.75 57.4 -24.65 57.55 -24.5 57.7 -24.4 57.9 -24.3 58.1 -24.25 58.25 -24.15 58.45 -24.15 58.6 -24.1 58.75 -24.1 58.9 -24.1 59.1 -24.15 59.25 -24.15 59.4 -24.25 59.55 -24.3 59.7 -24.4 59.85 -24.55 60.0 -24.65 60.2 -24.8 60.35 -25.0 60.55 -25.05 60.6 -25.1 60.65 -25.2 60.75 -25.25 60.8 -25.3 60.85 -25.35 60.95 -25.4 61.0 -25.4 61.05 -25.45 61.15 -25.5 61.2 -25.5 61.3 -25.55 61.35 -25.55 61.45 -25.6 61.55 -25.6 61.6 -25.6 61.7 -25.6 61.8 -25.65 61.9 -25.65 62.05 -25.7 62.15 -25.75 62.25 -25.75 62.35 -25.8 62.45 -25.85 62.55 -25.9 62.65 -25.95 62.75 -26.0 62.85 -26.05 63.0 -26.1 63.1 -26.15 63.2 -26.2 63.3 -26.25 63.4 -26.35 63.6 -26.45 63.7 -26.55 63.85 -26.7 64.0 -26.8 64.1 -26.9 64.2 -27.05 64.3 -27.2 64.35 -27.35 64.45 -27.5 64.5 -27.65 64.55 -27.85 64.55 -28.05 64.6 -28.3 64.6 -28.5 64.6 -28.8 64.6 L-28.8 64.6 M-28.75 60.65 Q-28.85 60.7 -28.95 60.7 -29.05 60.75 -29.15 60.75 -29.25 60.8 -29.35 60.8 -29.45 60.8 -29.55 60.75 -29.6 60.75 -29.7 60.75 -29.8 60.7 -29.85 60.7 -29.95 60.65 -30.0 60.65 -30.1 60.65 -30.2 60.6 -30.25 60.6 -30.3 60.55 -30.3 60.5 -30.35 60.45 -30.45 60.4 -30.45 60.4 -30.5 60.35 -30.55 60.3 -30.6 60.25 -30.65 60.25 -30.7 60.25 -30.75 60.25 -30.8 60.25 -30.85 60.3 -30.95 60.35 -31.0 60.45 -31.05 60.55 -31.1 60.6 -31.15 60.65 -31.2 60.75 -31.25 60.8 -31.25 60.85 -31.3 60.95 -31.35 61.0 -31.35 61.1 -31.35 61.15 -31.4 61.25 -31.35 61.35 -31.35 61.4 -31.35 61.5 -31.3 61.6 -31.25 61.65 -31.15 61.85 -31.05 62.0 -30.95 62.2 -30.85 62.35 -30.7 62.5 -30.6 62.65 -30.45 62.8 -30.3 62.9 -30.2 63.05 -30.0 63.15 -29.85 63.25 -29.7 63.35 -29.5 63.4 -29.3 63.45 -29.1 63.55 -28.9 63.55 -28.65 63.6 -28.45 63.6 -28.25 63.6 -28.1 63.6 -27.95 63.6 -27.8 63.55 -27.65 63.5 -27.55 63.45 -27.45 63.35 -27.35 63.25 -27.3 63.15 -27.2 63.0 -27.15 62.85 -27.1 62.7 -27.05 62.5 -27.05 62.25 -27.05 62.05 -27.0 61.9 -26.95 61.7 -26.9 61.55 -26.85 61.35 -26.75 61.2 -26.7 61.05 -26.6 60.9 -26.55 60.75 -26.45 60.6 -26.35 60.45 -26.2 60.3 -26.1 60.15 -26.0 60.05 -25.85 59.9 -25.7 59.8 -25.6 59.7 -25.55 59.65 -25.45 59.55 -25.4 59.5 -25.35 59.4 -25.3 59.3 -25.25 59.25 -25.2 59.15 -25.2 59.05 -25.15 59.0 -25.15 58.9 -25.15 58.8 -25.15 58.7 -25.2 58.6 -25.25 58.5 -25.3 58.4 -25.35 58.3 -25.45 58.2 -25.5 58.1 -25.6 58.0 -25.65 57.95 -25.75 57.85 -25.85 57.8 -25.9 57.75 -26.0 57.7 -26.1 57.7 -26.2 57.65 -26.35 57.65 -26.45 57.65 -26.55 57.65 -26.7 57.65 -26.8 57.7 -27.0 57.75 -27.2 57.8 -27.4 57.8 -27.6 57.85 -27.8 57.95 -28.0 58.0 -28.2 58.05 -28.4 58.15 -28.6 58.2 -28.8 58.3 -29.0 58.35 -29.2 58.45 -29.35 58.55 -29.55 58.6 -29.75 58.7 -29.95 58.8 -30.05 58.85 -30.15 58.9 -30.2 58.95 -30.25 59.0 -30.3 59.1 -30.3 59.15 -30.35 59.2 -30.35 59.25 -30.35 59.35 -30.3 59.4 -30.3 59.45 -30.25 59.5 -30.2 59.6 -30.15 59.65 -30.1 59.7 -30.0 59.75 -29.85 59.9 -28.75 60.65 L-28.75 60.65 M-35.7 57.65 Q-34.65 58.05 -34.4 58.15 -34.3 58.2 -34.2 58.2 -34.05 58.2 -33.95 58.15 -33.9 58.15 -33.8 58.1 -33.7 58.05 -33.65 58.0 -33.55 57.95 -33.5 57.9 -33.45 57.8 -33.4 57.75 -33.35 57.65 -33.35 57.55 -33.35 57.5 -33.35 57.4 -33.35 57.25 -33.4 57.05 -33.45 56.9 -33.55 56.7 -33.6 56.55 -33.7 56.4 -33.8 56.2 -33.9 56.05 -34.05 55.95 -34.15 55.8 -34.3 55.7 -34.4 55.6 -34.55 55.5 -34.7 55.45 -34.85 55.4 -34.95 55.4 -35.15 55.4 -35.3 55.45 -35.45 55.45 -35.55 55.55 -35.7 55.6 -35.8 55.7 -35.9 55.8 -35.95 55.9 -36.05 56.0 -36.15 56.15 -36.2 56.25 -36.25 56.4 -36.3 56.5 -36.4 56.65 -36.5 56.95 -36.5 56.95 -36.5 56.95 -36.55 57.0 -36.55 57.05 -36.55 57.1 -36.6 57.25 -36.6 57.45 -36.65 57.6 -36.7 57.75 -36.75 57.95 -36.8 58.1 -36.85 58.25 -36.9 58.4 -36.95 58.55 -37.0 58.7 -37.1 58.85 -37.15 59.0 -37.25 59.2 -37.3 59.3 -37.4 59.45 -37.5 59.6 -37.55 59.7 -37.6 59.8 -37.65 59.9 -37.65 60.0 -37.7 60.1 -37.7 60.2 -37.7 60.3 -37.65 60.4 -37.65 60.5 -37.6 60.6 -37.6 60.65 -37.55 60.75 -37.5 60.85 -37.45 60.95 -37.4 61.05 -37.35 61.15 -37.3 61.2 -37.25 61.3 -37.2 61.35 -37.1 61.4 -37.05 61.4 -36.95 61.45 -36.9 61.45 -36.85 61.5 -36.75 61.5 -36.65 61.5 -36.6 61.5 -36.5 61.5 -36.45 61.5 -36.35 61.5 -36.3 61.45 -36.2 61.45 -36.1 61.45 -36.0 61.4 -35.85 61.4 -35.75 61.35 -35.65 61.35 -35.55 61.3 -35.45 61.25 -35.35 61.2 -35.25 61.15 -35.15 61.1 -35.05 61.05 -34.95 61.0 -34.85 60.95 -34.75 60.9 -34.65 60.85 -34.55 60.75 -34.45 60.65 -34.35 60.55 -34.3 60.45 -34.25 60.3 -34.2 60.15 -34.2 60.0 -34.15 59.85 -34.15 59.7 -34.2 59.55 -34.25 59.45 -34.25 59.3 -34.35 59.15 -34.4 59.05 -34.5 58.95 -34.6 58.85 -34.75 58.8 -34.8 58.8 -34.9 58.7 -35.0 58.65 -35.05 58.6 -35.15 58.55 -35.2 58.5 -35.3 58.45 -35.35 58.4 -35.45 58.35 -35.5 58.25 -35.55 58.2 -35.6 58.1 -35.65 58.0 -35.65 57.9 -35.7 57.8 -35.7 57.65 L-35.7 57.65 M-32.15 58.4 Q-32.3 58.4 -32.45 58.4 -32.55 58.45 -32.65 58.5 -32.75 58.55 -32.85 58.65 -32.9 58.7 -32.95 58.8 -32.95 58.9 -33.0 59.0 -33.0 59.1 -33.05 59.2 -33.05 59.25 -33.1 59.4 -33.1 59.55 -33.1 59.65 -33.1 59.75 -33.15 59.85 -33.15 59.9 -33.1 59.95 -33.1 60.05 -33.05 60.1 -33.0 60.15 -32.95 60.2 -32.95 60.25 -32.85 60.25 -32.8 60.3 -32.75 60.35 -32.7 60.35 -32.6 60.35 -32.55 60.4 -32.45 60.4 -32.4 60.4 -32.35 60.4 -32.25 60.35 -32.15 60.25 -32.1 60.15 -32.0 60.05 -31.9 59.95 -31.8 59.8 -31.7 59.7 -31.6 59.55 -31.55 59.4 -31.45 59.3 -31.4 59.15 -31.35 59.05 -31.35 58.9 -31.35 58.85 -31.35 58.75 -31.4 58.65 -31.4 58.6 -31.45 58.55 -31.5 58.5 -31.55 58.5 -31.6 58.45 -31.65 58.45 -31.7 58.45 -31.8 58.45 -31.75 58.45 -31.9 58.45 -32.0 58.4 -32.05 58.4 -32.1 58.4 -32.15 58.4 L-32.15 58.4" fill="#0b0b0b" fill-rule="evenodd" stroke="none"/>
    <path d="M5.25 55.6 Q4.9 55.6 4.6 55.55 4.25 55.5 4.0 55.4 3.75 55.3 3.55 55.15 3.4 55.0 3.25 54.8 3.1 54.65 3.0 54.4 2.9 54.2 2.85 53.9 2.8 53.65 2.75 53.3 2.75 53.0 2.8 52.6 2.8 52.45 2.8 52.4 2.8 52.3 2.8 52.25 2.85 52.15 2.85 52.05 2.85 51.95 2.8 51.85 2.8 51.75 2.8 51.7 2.8 51.6 2.75 51.5 2.75 51.4 2.7 51.35 2.65 51.25 2.6 51.15 2.5 51.0 2.45 50.9 2.4 50.75 2.35 50.6 2.35 50.5 2.35 50.35 2.35 50.25 2.35 50.1 2.35 50.0 2.4 49.85 2.45 49.75 2.5 49.65 2.55 49.5 2.65 49.4 2.75 49.3 2.85 49.2 2.95 49.1 3.1 49.0 3.2 48.9 3.35 48.8 3.45 48.75 3.6 48.7 3.7 48.65 3.85 48.6 4.0 48.55 4.15 48.55 4.25 48.55 4.4 48.55 4.55 48.6 4.7 48.65 4.85 48.65 5.0 48.75 5.1 48.8 5.2 48.85 5.35 48.9 5.45 48.95 5.55 49.0 5.65 49.05 5.75 49.15 5.85 49.2 5.95 49.25 6.0 49.35 6.1 49.4 6.2 49.5 6.3 49.55 6.4 49.65 6.45 49.75 6.55 49.8 6.65 49.95 6.8 50.05 6.9 50.15 7.05 50.25 7.15 50.35 7.3 50.45 7.4 50.5 7.55 50.6 7.7 50.65 7.8 50.7 7.95 50.75 8.1 50.75 8.3 50.8 8.45 50.8 8.6 50.8 8.8 50.75 8.85 50.75 8.9 50.75 8.95 50.75 9.0 50.75 9.05 50.75 9.1 50.75 9.15 50.75 9.15 50.7 9.2 50.7 9.25 50.7 9.3 50.7 9.3 50.65 9.35 50.65 9.4 50.6 9.45 50.55 9.45 50.5 9.5 50.45 9.55 50.4 9.55 50.35 9.6 50.3 9.65 50.25 9.7 50.2 9.75 50.15 9.8 50.1 9.85 50.1 9.85 50.05 9.9 50.0 9.95 49.95 10.0 49.9 10.05 49.85 10.1 49.85 10.15 49.8 10.4 49.6 10.6 49.5 10.85 49.35 11.1 49.3 11.35 49.25 11.55 49.25 11.8 49.25 12.0 49.3 12.25 49.4 12.45 49.5 12.65 49.65 12.8 49.85 12.95 50.05 13.1 50.25 13.2 50.5 13.25 50.8 13.3 50.9 13.3 51.0 13.35 51.1 13.35 51.2 13.35 51.25 13.4 51.35 13.4 51.45 13.4 51.55 13.4 51.65 13.4 51.75 13.4 51.85 13.4 51.95 13.4 52.05 13.4 52.15 13.35 52.2 13.35 52.3 13.35 52.4 13.3 52.45 13.3 52.55 13.3 52.65 13.3 52.75 13.3 52.8 13.25 52.9 13.25 53.0 13.25 53.05 13.3 53.15 13.3 53.25 13.3 53.3 13.3 53.4 13.35 53.5 13.35 53.55 13.35 53.65 13.4 53.8 13.4 54.0 13.45 54.15 13.45 54.3 13.4 54.45 13.4 54.6 13.35 54.75 13.3 54.9 13.25 55.05 13.15 55.15 13.1 55.3 13.0 55.4 12.9 55.55 12.75 55.65 12.65 55.75 12.5 55.85 12.35 55.95 12.25 56.0 12.1 56.05 11.95 56.1 11.85 56.15 11.7 56.15 11.55 56.15 11.45 56.1 11.3 56.1 11.15 56.05 11.05 56.0 10.9 55.95 10.8 55.9 10.65 55.8 10.55 55.75 10.4 55.65 10.35 55.6 10.25 55.55 10.2 55.5 10.15 55.45 10.05 55.4 10.0 55.35 9.95 55.3 9.85 55.25 9.8 55.2 9.75 55.15 9.7 55.1 9.65 55.0 9.6 54.95 9.5 54.9 9.45 54.8 9.4 54.75 9.3 54.6 9.2 54.45 9.1 54.35 9.0 54.25 8.9 54.15 8.8 54.1 8.75 54.05 8.65 54.05 8.55 54.05 8.45 54.1 8.35 54.1 8.2 54.15 8.1 54.25 7.95 54.35 7.85 54.45 7.7 54.6 7.55 54.7 7.45 54.8 7.3 54.95 7.15 55.0 7.0 55.1 6.85 55.2 6.7 55.25 6.55 55.35 6.4 55.4 6.25 55.45 6.1 55.5 5.95 55.5 5.75 55.55 5.6 55.55 5.4 55.6 5.25 55.6 L5.25 55.6 M5.55 52.4 Q6.6 52.15 6.75 52.1 6.8 52.1 6.9 52.05 6.95 52.0 7.0 52.0 7.05 51.95 7.05 51.9 7.1 51.85 7.15 51.8 7.15 51.8 7.15 51.75 7.15 51.7 7.15 51.65 7.15 51.6 7.1 51.5 7.1 51.45 7.05 51.4 6.9 51.25 6.75 51.1 6.65 50.95 6.5 50.85 6.35 50.7 6.2 50.55 6.05 50.45 5.9 50.3 5.75 50.2 5.6 50.05 5.45 49.95 5.25 49.85 5.1 49.75 4.95 49.65 4.75 49.55 4.6 49.45 4.5 49.4 4.45 49.4 4.35 49.4 4.25 49.35 4.2 49.35 4.1 49.4 4.05 49.4 3.95 49.4 3.9 49.45 3.8 49.5 3.75 49.5 3.7 49.55 3.6 49.6 3.55 49.65 3.5 49.7 3.45 49.8 3.4 49.85 3.35 49.9 3.3 49.95 3.3 50.0 3.25 50.1 3.25 50.15 3.2 50.2 3.2 50.25 3.2 50.3 3.2 50.4 3.25 50.45 3.25 50.5 3.25 50.55 3.3 50.65 3.3 50.7 3.35 50.75 3.45 50.9 3.55 51.1 3.6 51.25 3.65 51.4 3.7 51.55 3.75 51.75 3.8 51.9 3.8 52.05 3.85 52.25 3.85 52.4 3.85 52.6 3.85 52.75 3.85 52.95 3.8 53.1 3.75 53.3 3.75 53.45 3.7 53.55 3.7 53.65 3.7 53.75 3.7 53.8 3.7 53.9 3.7 54.0 3.75 54.05 3.75 54.1 3.8 54.2 3.85 54.25 3.9 54.3 3.95 54.35 4.0 54.45 4.1 54.45 4.15 54.5 4.25 54.55 4.45 54.65 4.65 54.7 4.8 54.75 5.05 54.75 5.25 54.75 5.45 54.75 5.7 54.75 5.9 54.65 6.1 54.6 6.3 54.55 6.5 54.45 6.7 54.35 6.85 54.25 7.0 54.1 7.15 53.95 7.3 53.8 7.35 53.75 7.35 53.7 7.4 53.6 7.4 53.55 7.4 53.5 7.45 53.45 7.45 53.4 7.45 53.35 7.4 53.3 7.4 53.2 7.4 53.15 7.4 53.1 7.35 53.05 7.35 53.0 7.35 52.95 7.3 52.85 7.3 52.8 7.25 52.75 7.2 52.7 7.2 52.65 7.15 52.65 7.1 52.65 7.1 52.65 7.05 52.65 7.0 52.65 6.95 52.7 7.0 52.7 6.9 52.75 6.85 52.75 6.8 52.75 6.75 52.8 6.75 52.8 6.9 52.8 6.6 52.8 6.5 52.8 6.45 52.8 6.35 52.8 6.3 52.8 6.2 52.75 6.15 52.75 6.05 52.75 6.0 52.7 5.9 52.7 5.85 52.65 5.8 52.6 5.7 52.55 5.65 52.5 5.55 52.4 L5.55 52.4 M11.75 52.05 Q11.55 52.25 11.55 52.2 11.45 52.3 11.4 52.35 11.35 52.4 11.25 52.45 11.2 52.5 11.15 52.5 11.1 52.55 11.05 52.55 11.0 52.6 10.95 52.6 10.9 52.6 10.8 52.6 10.75 52.6 10.65 52.65 10.6 52.65 10.55 52.65 10.5 52.65 10.45 52.65 10.4 52.65 10.35 52.7 10.3 52.7 10.3 52.7 10.25 52.75 10.2 52.75 10.2 52.8 10.15 52.8 10.15 52.85 10.1 52.9 10.1 52.95 10.05 53.05 10.0 53.2 9.95 53.35 9.95 53.5 9.95 53.65 9.95 53.8 10.0 53.95 10.0 54.05 10.05 54.2 10.1 54.3 10.2 54.45 10.3 54.55 10.4 54.65 10.55 54.8 10.7 54.9 10.85 55.0 11.05 55.1 11.2 55.15 11.3 55.2 11.45 55.25 11.6 55.25 11.7 55.25 11.85 55.25 11.95 55.25 12.1 55.2 12.2 55.15 12.3 55.05 12.4 55.0 12.45 54.9 12.5 54.8 12.55 54.65 12.55 54.55 12.55 54.4 12.55 54.0 12.55 52.7 12.55 51.6 12.45 51.0 12.45 50.9 12.4 50.8 12.4 50.7 12.35 50.6 12.3 50.5 12.25 50.4 12.2 50.35 12.15 50.3 12.1 50.2 12.0 50.15 11.9 50.15 11.8 50.1 11.7 50.1 11.6 50.05 11.5 50.05 11.35 50.1 11.25 50.1 11.1 50.15 11.0 50.2 10.9 50.3 10.75 50.35 10.65 50.45 10.5 50.55 10.4 50.65 10.3 50.75 10.2 50.85 10.1 50.95 10.05 51.05 10.0 51.2 9.95 51.25 9.95 51.4 9.95 51.45 10.0 51.6 10.05 51.7 10.1 51.8 10.15 51.85 10.2 51.95 10.3 52.0 10.35 52.0 10.45 52.05 10.55 52.05 10.65 52.05 10.75 52.1 10.85 52.1 10.9 52.1 11.05 52.05 11.2 52.05 11.25 52.05 11.35 52.05 11.75 52.05 L11.75 52.05 M9.25 52.35 Q9.25 52.25 9.25 52.15 9.25 52.05 9.25 52.0 9.2 51.9 9.2 51.85 9.15 51.8 9.1 51.75 9.05 51.7 8.95 51.65 8.9 51.65 8.8 51.6 8.75 51.6 8.65 51.6 8.55 51.55 8.45 51.55 8.4 51.55 8.35 51.55 8.3 51.55 8.25 51.55 8.2 51.55 8.2 51.55 8.15 51.6 8.1 51.6 8.05 51.65 8.05 51.65 8.0 51.7 8.0 51.7 8.0 51.75 8.0 51.8 8.0 51.85 8.05 51.9 8.1 52.0 8.1 52.1 8.1 52.2 8.1 52.3 8.1 52.2 8.1 52.5 8.1 52.65 8.1 52.75 8.1 52.85 8.15 52.95 8.15 53.0 8.25 53.1 8.3 53.15 8.4 53.2 8.5 53.25 8.65 53.3 8.75 53.3 8.85 53.3 8.9 53.25 8.95 53.25 9.05 53.2 9.1 53.15 9.1 53.1 9.15 53.0 9.2 52.95 9.2 52.85 9.2 52.8 9.25 52.7 9.25 52.6 9.25 52.5 9.25 52.45 9.25 52.35 L9.25 52.35" fill="#0b0b0b" fill-rule="evenodd" stroke="none"/>
    <path d="M49.95 44.95 Q49.8 45.15 49.7 45.3 49.65 45.5 49.6 45.65 49.6 45.8 49.65 45.9 49.65 46.05 49.75 46.2 49.8 46.3 49.9 46.4 50.05 46.5 50.2 46.65 50.3 46.7 50.5 46.85 50.6 46.9 50.8 47.05 50.9 47.1 51.0 47.2 51.1 47.25 51.2 47.35 51.3 47.4 51.35 47.5 51.45 47.6 51.5 47.7 51.55 47.8 51.6 47.9 51.65 48.05 51.65 48.15 51.7 48.3 51.7 48.4 51.7 48.55 51.7 48.7 51.7 48.85 51.65 48.95 51.6 49.1 51.5 49.2 51.45 49.3 51.35 49.4 51.3 49.5 51.2 49.55 51.1 49.65 51.0 49.7 50.85 49.75 50.75 49.8 50.65 49.85 50.5 49.95 50.4 49.95 50.25 50.0 50.2 50.05 50.15 50.05 50.15 50.05 50.1 50.1 50.05 50.1 50.0 50.1 49.95 50.1 49.9 50.15 49.75 50.15 49.55 50.2 49.4 50.2 49.3 50.25 49.15 50.3 49.05 50.35 48.9 50.45 48.8 50.5 48.75 50.6 48.65 50.75 48.6 50.85 48.5 50.95 48.45 51.1 48.45 51.25 48.4 51.4 48.35 51.6 48.35 51.75 48.3 51.9 48.25 52.0 48.2 52.15 48.15 52.25 48.05 52.35 48.0 52.4 47.9 52.5 47.8 52.55 47.7 52.65 47.6 52.7 47.45 52.75 47.35 52.8 47.2 52.8 47.1 52.85 46.95 52.9 46.8 52.9 46.7 52.9 46.6 52.9 46.5 52.9 46.4 52.85 46.3 52.8 46.2 52.8 46.1 52.7 46.0 52.65 45.9 52.6 45.85 52.5 45.75 52.45 45.7 52.35 45.6 52.3 45.55 52.2 45.45 52.1 45.35 52.0 45.1 51.5 45.05 51.35 44.95 51.25 44.9 51.15 44.8 51.05 44.75 50.95 44.65 50.85 44.55 50.8 44.45 50.75 44.35 50.65 44.25 50.6 44.15 50.55 44.0 50.55 43.9 50.5 43.75 50.5 43.65 50.45 43.5 50.45 43.35 50.45 43.25 50.45 43.1 50.45 43.0 50.45 42.9 50.4 42.75 50.4 42.65 50.35 42.55 50.3 42.4 50.25 42.3 50.2 42.2 50.15 42.1 50.1 42.0 50.0 41.95 49.9 41.85 49.8 41.8 49.65 41.7 49.5 41.65 49.35 41.6 49.15 41.6 49.0 41.55 48.85 41.6 48.75 41.6 48.6 41.65 48.45 41.7 48.3 41.8 48.2 41.85 48.1 41.95 47.95 42.05 47.85 42.15 47.75 42.25 47.7 42.4 47.6 42.6 47.5 42.75 47.35 42.85 47.2 42.95 47.1 43.05 46.95 43.1 46.8 43.15 46.7 43.15 46.55 43.15 46.4 43.15 46.25 43.15 46.1 43.1 45.95 43.05 45.8 43.0 45.65 42.95 45.5 42.85 45.3 42.75 45.1 42.75 44.85 42.7 44.65 42.75 44.5 42.75 44.3 42.85 44.15 42.9 44.0 43.0 43.9 43.1 43.8 43.25 43.7 43.35 43.6 43.55 43.55 43.7 43.5 43.85 43.5 44.0 43.45 44.15 43.5 44.25 43.5 44.35 43.5 44.45 43.55 44.55 43.55 44.65 43.6 44.75 43.6 44.85 43.65 44.9 43.65 45.0 43.7 45.1 43.75 45.2 43.8 45.3 43.85 45.4 43.9 45.45 43.95 45.55 44.0 45.6 44.1 45.7 44.2 45.75 44.25 45.85 44.3 45.95 44.35 46.0 44.4 46.1 44.4 46.15 44.4 46.25 44.4 46.3 44.4 46.4 44.35 46.45 44.35 46.55 44.3 46.6 44.25 46.65 44.2 46.75 44.1 46.8 44.0 46.85 43.95 46.9 43.85 46.95 43.8 47.05 43.75 47.1 43.7 47.2 43.65 47.25 43.6 47.3 43.55 47.4 43.5 47.45 43.5 47.55 43.45 47.6 43.4 47.7 43.4 47.8 43.35 47.8 43.3 47.95 43.25 48.15 43.15 48.35 43.15 48.55 43.15 48.7 43.15 48.9 43.2 49.05 43.25 49.25 43.35 49.4 43.45 49.55 43.6 49.65 43.75 49.75 43.9 49.85 44.1 49.9 44.3 49.95 44.5 49.95 44.7 49.95 44.95 L49.95 44.95 M44.05 44.35 Q44.0 44.35 43.95 44.35 43.9 44.4 43.85 44.4 43.8 44.4 43.75 44.45 43.7 44.5 43.7 44.5 43.65 44.55 43.65 44.6 43.65 44.65 43.65 44.7 43.6 44.75 43.65 44.8 43.65 44.85 43.65 44.9 43.8 45.15 43.9 45.4 44.0 45.65 44.05 45.9 44.1 46.15 44.1 46.35 44.1 46.6 44.05 46.8 44.0 47.05 43.95 47.25 43.85 47.45 43.7 47.65 43.55 47.85 43.35 48.05 43.15 48.25 42.9 48.45 42.75 48.55 42.7 48.65 42.6 48.75 42.55 48.85 42.5 48.95 42.5 49.05 42.5 49.15 42.5 49.2 42.55 49.3 42.65 49.35 42.7 49.4 42.8 49.45 42.9 49.5 43.05 49.55 43.2 49.55 43.35 49.55 43.6 49.55 43.8 49.55 44.05 49.6 44.25 49.6 44.45 49.65 44.65 49.75 44.8 49.8 45.0 49.9 45.15 50.0 45.3 50.15 45.45 50.3 45.55 50.45 45.7 50.6 45.8 50.8 45.9 51.0 46.0 51.2 46.05 51.3 46.05 51.35 46.1 51.4 46.15 51.5 46.15 51.55 46.2 51.65 46.25 51.7 46.3 51.75 46.35 51.8 46.4 51.85 46.5 51.9 46.55 51.95 46.6 52.0 46.7 52.0 46.75 52.0 46.85 52.0 46.95 52.0 47.05 51.95 47.15 51.95 47.2 51.9 47.3 51.85 47.35 51.8 47.4 51.7 47.45 51.65 47.5 51.55 47.55 51.5 47.55 51.4 47.6 51.3 47.6 51.2 47.6 51.15 47.65 51.05 47.65 50.95 47.65 50.75 47.7 50.55 47.75 50.4 47.8 50.25 47.85 50.1 47.9 49.95 48.0 49.85 48.1 49.75 48.2 49.65 48.35 49.55 48.45 49.5 48.6 49.45 48.75 49.4 48.95 49.35 49.15 49.35 49.35 49.35 49.45 49.35 49.55 49.35 49.7 49.3 49.8 49.3 49.9 49.3 50.0 49.25 50.15 49.2 50.25 49.15 50.35 49.1 50.4 49.05 50.5 49.0 50.55 48.9 50.65 48.85 50.7 48.75 50.75 48.7 50.75 48.6 50.75 48.5 50.75 48.4 50.75 48.3 50.7 48.2 50.65 48.1 50.6 48.0 50.55 47.9 50.45 47.85 50.35 47.75 50.25 47.7 50.15 47.65 50.05 47.55 49.95 47.5 49.85 47.45 49.85 47.45 49.65 47.3 49.35 47.15 49.25 47.1 49.1 47.0 49.0 46.9 48.85 46.85 48.8 46.75 48.7 46.7 48.7 46.6 48.65 46.5 48.65 46.4 48.65 46.3 48.65 46.2 48.7 46.05 48.75 45.85 48.8 45.75 48.85 45.45 48.9 45.3 48.9 45.25 48.95 45.15 49.0 45.1 49.0 45.0 49.0 44.9 49.05 44.8 49.05 44.7 49.05 44.6 49.05 44.5 49.0 44.45 49.0 44.35 48.95 44.25 48.9 44.2 48.8 44.15 48.7 44.1 48.6 44.05 48.55 44.05 48.45 44.0 48.35 44.05 48.3 44.05 48.2 44.05 48.15 44.1 48.05 44.15 48.0 44.2 47.9 44.25 47.85 44.3 47.8 44.35 47.7 44.45 47.65 44.5 48.9 43.25 47.5 44.65 47.35 44.8 47.2 44.95 47.05 45.05 46.9 45.15 46.75 45.25 46.6 45.3 46.45 45.35 46.35 45.35 46.2 45.35 46.05 45.35 45.9 45.3 45.75 45.25 45.6 45.2 45.45 45.1 45.25 45.0 45.1 44.85 45.05 44.8 44.05 44.35 L44.05 44.35" fill="#0b0b0b" fill-rule="evenodd" stroke="none"/>
    <path d="M-38.85 30.85 Q-38.8 30.85 -38.75 30.9 -38.7 30.9 -38.65 30.9 -38.45 31.05 -38.3 31.15 -38.1 31.25 -37.9 31.3 -37.7 31.4 -37.55 31.45 -37.35 31.45 -37.15 31.5 -36.95 31.5 -36.8 31.5 -36.6 31.45 -36.4 31.4 -36.2 31.35 -36.0 31.25 -35.8 31.15 -35.55 31.05 -35.45 31.0 -35.3 30.95 -35.2 30.95 -35.1 31.0 -34.95 31.0 -34.85 31.1 -34.75 31.15 -34.65 31.25 -34.55 31.4 -34.5 31.5 -34.4 31.65 -34.35 31.8 -34.35 31.95 -34.35 32.1 -34.35 32.3 -34.4 32.45 -34.45 32.6 -34.45 32.75 -34.5 32.85 -34.5 33.0 -34.5 33.1 -34.5 33.2 -34.5 33.35 -34.45 33.45 -34.45 33.55 -34.4 33.65 -34.35 33.75 -34.25 33.85 -34.15 33.95 -34.05 34.0 -33.9 34.1 -33.75 34.2 -33.65 34.25 -33.6 34.3 -33.55 34.35 -33.5 34.4 -33.45 34.5 -33.4 34.55 -33.35 34.65 -33.3 34.7 -33.3 34.8 -33.25 34.9 -33.25 35.0 -33.25 35.1 -33.2 35.2 -33.25 35.3 -33.25 35.4 -33.25 35.5 -33.25 35.6 -33.3 35.7 -33.3 35.8 -33.35 35.9 -33.4 35.95 -33.45 36.0 -33.5 36.1 -33.55 36.15 -33.6 36.2 -33.7 36.25 -33.75 36.3 -33.85 36.3 -33.9 36.35 -34.0 36.35 -34.1 36.4 -34.2 36.4 -34.4 36.4 -34.55 36.45 -34.7 36.45 -34.85 36.5 -35.0 36.6 -35.1 36.65 -35.25 36.7 -35.35 36.8 -35.45 36.9 -35.5 37.0 -35.6 37.1 -35.65 37.25 -35.75 37.4 -35.8 37.55 -35.85 37.7 -35.85 37.9 -35.85 38.0 -35.9 38.1 -35.95 38.2 -36.0 38.25 -36.05 38.35 -36.1 38.4 -36.2 38.45 -36.25 38.5 -36.35 38.55 -36.4 38.6 -36.5 38.6 -36.6 38.65 -36.65 38.65 -36.75 38.65 -36.85 38.65 -36.9 38.7 -37.0 38.7 -37.15 38.7 -37.25 38.65 -37.35 38.65 -37.5 38.6 -37.6 38.55 -37.7 38.5 -37.8 38.4 -37.9 38.35 -37.95 38.25 -38.05 38.2 -38.15 38.1 -38.2 38.0 -38.25 37.9 -38.3 37.8 -38.35 37.7 -38.4 37.55 -38.45 37.45 -38.5 37.3 -38.55 37.25 -38.6 37.15 -38.7 37.05 -38.75 37.0 -38.85 36.95 -38.9 36.85 -39.0 36.85 -39.1 36.8 -39.2 36.75 -39.3 36.75 -39.45 36.7 -39.55 36.7 -39.7 36.7 -39.85 36.7 -39.9 36.7 -40.05 36.65 -40.1 36.65 -40.25 36.6 -40.35 36.6 -40.45 36.55 -40.55 36.5 -40.6 36.45 -40.7 36.4 -40.8 36.35 -40.85 36.25 -40.95 36.15 -41.0 36.05 -41.05 35.95 -41.1 35.8 -41.15 35.65 -41.15 35.55 -41.15 35.45 -41.15 35.3 -41.15 35.2 -41.1 35.1 -41.1 35.0 -41.05 34.95 -41.0 34.85 -40.95 34.75 -40.9 34.7 -40.8 34.6 -40.75 34.5 -40.65 34.45 -40.6 34.35 -40.5 34.3 -40.4 34.2 -40.3 34.1 -40.2 34.0 -40.15 33.95 -40.05 33.85 -40.0 33.75 -39.95 33.65 -39.9 33.55 -39.85 33.45 -39.85 33.35 -39.8 33.25 -39.85 33.1 -39.85 33.0 -39.9 32.85 -39.9 32.7 -40.0 32.55 -40.05 32.4 -40.1 32.25 -40.1 32.1 -40.1 31.95 -40.05 31.8 -40.0 31.65 -39.95 31.5 -39.85 31.4 -39.75 31.25 -39.65 31.15 -39.55 31.05 -39.4 31.0 -39.25 30.9 -39.15 30.9 -39.0 30.85 -38.85 30.85 L-38.85 30.85 M-36.95 37.85 Q-36.9 37.8 -36.85 37.8 -36.8 37.75 -36.75 37.7 -36.75 37.7 -36.7 37.65 -36.65 37.6 -36.65 37.55 -36.65 37.5 -36.6 37.45 -36.6 37.4 -36.55 37.35 -36.55 37.3 -36.55 37.25 -36.55 37.2 -36.55 37.2 -36.5 37.0 -36.45 36.8 -36.4 36.65 -36.35 36.5 -36.25 36.35 -36.2 36.2 -36.1 36.05 -36.0 35.95 -35.9 35.85 -35.75 35.8 -35.6 35.7 -35.45 35.65 -35.3 35.6 -35.1 35.6 -34.9 35.6 -34.7 35.6 -34.65 35.6 -34.6 35.6 -34.55 35.6 -34.5 35.6 -34.45 35.6 -34.4 35.6 -34.35 35.6 -34.35 35.6 -34.3 35.55 -34.25 35.55 -34.2 35.5 -34.2 35.5 -34.15 35.45 -34.15 35.4 -34.1 35.4 -34.1 35.35 -34.1 35.3 -34.1 35.25 -34.1 35.2 -34.1 35.15 -34.15 35.1 -34.15 35.05 -34.2 35.0 -34.2 34.95 -34.25 34.9 -34.3 34.9 -34.35 34.85 -34.35 34.8 -34.4 34.8 -34.45 34.75 -34.5 34.75 -34.55 34.7 -34.75 34.65 -34.9 34.55 -35.05 34.45 -35.15 34.35 -35.25 34.25 -35.35 34.1 -35.4 34.0 -35.45 33.85 -35.45 33.75 -35.5 33.6 -35.5 33.45 -35.45 33.3 -35.45 33.15 -35.4 33.0 -35.4 32.85 -35.35 32.65 -35.35 32.6 -35.3 32.55 -35.3 32.5 -35.25 32.45 -35.25 32.4 -35.25 32.35 -35.2 32.3 -35.2 32.25 -35.2 32.2 -35.2 32.15 -35.2 32.1 -35.2 32.05 -35.25 32.0 -35.25 32.0 -35.3 31.95 -35.35 31.9 -35.4 31.85 -35.45 31.85 -35.5 31.85 -35.55 31.85 -35.6 31.85 -35.65 31.9 -35.7 31.9 -35.75 31.95 -35.8 31.95 -35.85 32.0 -35.85 32.05 -35.9 32.1 -35.95 32.1 -36.0 32.15 -36.05 32.2 -36.05 32.25 -36.15 32.35 -36.3 32.45 -36.4 32.5 -36.5 32.55 -36.6 32.6 -36.75 32.6 -36.85 32.65 -36.95 32.65 -37.05 32.65 -37.2 32.6 -37.3 32.6 -37.4 32.55 -37.5 32.5 -37.65 32.45 -37.75 32.4 -37.85 32.35 -38.35 32.05 -38.55 31.9 -38.6 31.85 -38.6 31.85 -38.65 31.85 -38.7 31.85 -38.7 31.8 -38.75 31.8 -38.8 31.8 -38.8 31.8 -38.85 31.75 -38.9 31.75 -38.9 31.75 -38.95 31.75 -38.95 31.8 -39.0 31.8 -39.05 31.8 -39.05 31.85 -39.05 31.85 -39.1 31.9 -39.1 31.9 -39.15 31.95 -39.15 32.0 -39.2 32.0 -39.2 32.05 -39.2 32.1 -39.2 32.1 -39.25 32.15 -39.25 32.2 -39.25 32.25 -39.2 32.3 -39.2 32.3 -39.2 32.35 -39.15 32.4 -39.0 32.6 -38.95 32.8 -38.85 33.0 -38.85 33.15 -38.8 33.35 -38.85 33.5 -38.85 33.65 -38.95 33.8 -39.0 33.95 -39.1 34.1 -39.2 34.25 -39.3 34.4 -39.4 34.55 -39.55 34.65 -39.7 34.8 -39.85 34.95 -39.9 34.95 -39.95 35.0 -40.05 35.1 -40.0 35.05 -40.05 35.1 -40.1 35.1 -40.15 35.15 -40.15 35.2 -40.2 35.25 -40.25 35.25 -40.25 35.3 -40.25 35.35 -40.3 35.4 -40.3 35.45 -40.25 35.5 -40.25 35.55 -40.25 35.6 -40.2 35.65 -40.15 35.7 -40.1 35.7 -40.1 35.75 -40.05 35.75 -40.0 35.75 -39.95 35.8 -39.9 35.8 -39.85 35.8 -39.8 35.8 -39.7 35.8 -39.65 35.8 -39.6 35.8 -40.95 35.85 -39.5 35.8 -39.3 35.8 -39.15 35.8 -39.0 35.8 -38.85 35.85 -38.7 35.85 -38.55 35.9 -38.4 35.95 -38.3 36.05 -38.15 36.1 -38.05 36.2 -37.95 36.3 -37.85 36.45 -37.8 36.55 -37.75 36.75 -37.65 36.9 -37.65 37.1 -37.65 37.15 -37.6 37.2 -37.6 37.25 -37.55 37.3 -37.5 37.35 -37.5 37.4 -37.45 37.45 -37.4 37.5 -37.35 37.55 -37.3 37.6 -37.25 37.65 -37.2 37.7 -37.1 37.7 -37.05 37.75 -37.0 37.8 -36.95 37.85 L-36.95 37.85" fill="#0b0b0b" fill-rule="evenodd" stroke="none"/>
    <path d="M10.5 35.8 Q10.55 35.8 10.6 35.8 10.75 35.95 10.95 36.05 11.1 36.1 11.25 36.15 11.4 36.2 11.55 36.2 11.7 36.2 11.85 36.2 12.0 36.15 12.15 36.1 12.3 36.05 12.45 35.95 12.6 35.85 12.8 35.75 12.9 35.65 13.1 35.55 13.25 35.45 13.4 35.4 13.55 35.35 13.65 35.35 13.8 35.3 13.95 35.35 14.1 35.4 14.2 35.45 14.35 35.55 14.45 35.65 14.55 35.75 14.65 35.9 14.7 36.05 14.75 36.25 14.8 36.45 14.85 36.65 14.85 36.85 14.9 37.0 14.9 37.15 14.95 37.3 15.0 37.45 15.0 37.55 15.05 37.7 15.1 37.85 15.2 37.95 15.25 38.05 15.35 38.2 15.45 38.3 15.55 38.4 15.65 38.55 15.75 38.65 15.9 38.75 16.05 38.85 16.15 39.0 16.25 39.1 16.35 39.25 16.4 39.4 16.4 39.55 16.4 39.75 16.35 39.9 16.35 40.05 16.25 40.2 16.2 40.35 16.1 40.45 15.95 40.6 15.85 40.7 15.7 40.8 15.5 40.9 14.8 41.15 14.65 41.15 14.55 41.15 14.45 41.2 14.4 41.2 14.3 41.25 14.25 41.25 14.2 41.3 14.1 41.35 14.1 41.4 14.05 41.45 14.0 41.55 13.95 41.6 13.95 41.65 13.9 41.75 13.9 41.8 13.85 41.9 13.85 41.95 13.85 42.1 13.8 42.25 13.75 42.35 13.7 42.45 13.65 42.55 13.55 42.65 13.5 42.75 13.4 42.8 13.3 42.9 13.2 42.95 13.1 43.0 13.0 43.05 12.9 43.1 12.8 43.1 12.65 43.1 12.55 43.15 12.45 43.15 12.35 43.15 12.25 43.1 12.15 43.1 12.05 43.05 11.95 43.0 11.85 42.95 11.75 42.9 11.7 42.85 11.6 42.75 11.55 42.7 11.5 42.6 11.4 42.5 11.35 42.4 11.3 42.3 11.25 42.2 11.2 42.1 11.2 42.0 11.15 41.9 11.1 41.8 11.05 41.7 11.0 41.65 10.95 41.55 10.9 41.5 10.85 41.45 10.75 41.45 10.65 41.4 10.55 41.4 10.45 41.4 10.35 41.4 10.2 41.45 10.05 41.5 10.0 41.55 9.9 41.55 9.85 41.55 9.75 41.55 9.65 41.55 9.55 41.5 9.5 41.5 9.4 41.45 9.3 41.45 9.25 41.4 9.15 41.35 9.05 41.25 9.0 41.2 8.95 41.15 8.85 41.05 8.8 40.95 8.75 40.85 8.7 40.7 8.65 40.6 8.65 40.5 8.65 40.35 8.65 40.25 8.65 40.15 8.65 40.05 8.7 39.9 8.75 39.8 8.75 39.7 8.85 39.6 8.9 39.5 8.95 39.45 9.05 39.35 9.15 39.25 9.25 39.15 9.35 39.05 9.45 38.95 9.5 38.9 9.55 38.8 9.55 38.7 9.6 38.6 9.6 38.5 9.6 38.45 9.6 38.35 9.55 38.25 9.55 38.15 9.5 38.05 9.45 37.95 9.4 37.85 9.35 37.7 9.25 37.55 9.25 37.35 9.2 37.2 9.25 37.0 9.25 36.85 9.3 36.7 9.35 36.55 9.45 36.4 9.5 36.25 9.65 36.15 9.75 36.0 9.9 35.95 10.0 35.85 10.15 35.8 10.35 35.8 10.5 35.8 L10.5 35.8 M12.5 42.25 Q12.6 42.25 12.65 42.2 12.7 42.2 12.75 42.15 12.8 42.1 12.85 42.05 12.9 42.0 12.95 41.95 12.95 41.9 13.0 41.85 13.0 41.8 13.0 41.75 13.05 41.7 13.05 41.6 13.05 41.6 13.1 41.5 13.1 41.35 13.15 41.25 13.2 41.1 13.25 41.0 13.3 40.9 13.35 40.8 13.4 40.7 13.45 40.65 13.55 40.55 13.65 40.5 13.75 40.45 13.85 40.4 13.95 40.35 14.1 40.35 14.2 40.3 14.35 40.3 14.4 40.3 14.45 40.3 14.5 40.3 14.55 40.3 14.6 40.3 14.65 40.3 14.65 40.25 14.7 40.25 14.75 40.25 14.8 40.2 14.8 40.2 14.9 40.15 15.0 40.15 15.0 40.15 15.1 40.1 15.15 40.1 15.2 40.05 15.25 40.05 15.3 40.0 15.3 40.0 15.35 39.95 15.4 39.9 15.45 39.85 15.45 39.8 15.45 39.75 15.45 39.7 15.45 39.65 15.45 39.6 15.45 39.55 15.45 39.45 15.4 39.4 15.35 39.4 15.35 39.35 15.3 39.3 15.25 39.25 15.2 39.2 15.15 39.2 15.1 39.15 15.05 39.15 15.0 39.1 14.95 39.1 14.9 39.1 14.75 39.05 14.65 39.0 14.55 38.95 14.45 38.9 14.4 38.8 14.3 38.75 14.25 38.65 14.2 38.55 14.15 38.45 14.15 38.35 14.1 38.3 14.1 38.15 14.05 38.05 14.05 37.95 14.05 37.85 14.05 37.7 14.05 37.55 14.0 37.35 14.0 37.1 14.0 37.0 14.0 36.95 14.0 36.9 14.0 36.8 14.0 36.8 14.0 36.7 13.95 36.7 13.95 36.6 13.95 36.55 13.95 36.5 13.9 36.5 13.9 36.45 13.85 36.4 13.85 36.35 13.8 36.35 13.75 36.3 13.7 36.3 13.65 36.3 13.6 36.25 13.55 36.25 13.5 36.3 13.45 36.3 13.4 36.3 13.4 36.35 13.35 36.35 13.3 36.4 13.25 36.45 13.25 36.45 13.2 36.5 13.15 36.55 13.1 36.6 13.05 36.65 13.05 36.65 12.95 36.8 12.8 36.9 12.7 37.0 12.6 37.1 12.45 37.15 12.35 37.25 12.2 37.3 12.05 37.3 11.95 37.35 11.8 37.3 11.65 37.3 11.55 37.25 11.4 37.25 11.25 37.15 11.1 37.1 10.95 37.0 10.9 36.95 10.9 36.95 10.85 36.95 10.8 36.85 10.75 36.8 10.75 36.8 10.7 36.75 10.65 36.75 10.6 36.7 10.55 36.7 10.5 36.7 10.5 36.7 10.45 36.7 10.4 36.75 10.3 36.75 10.25 36.8 10.2 36.85 10.15 36.9 10.1 36.95 10.1 37.0 10.1 37.05 10.1 37.1 10.1 37.15 10.1 37.2 10.1 37.25 10.1 37.3 10.15 37.35 10.15 37.4 10.2 37.45 10.2 37.5 10.3 37.6 10.25 37.6 10.35 37.75 10.4 37.9 10.5 38.05 10.55 38.2 10.6 38.35 10.6 38.5 10.65 38.6 10.65 38.75 10.65 38.9 10.6 39.0 10.55 39.15 10.45 39.25 10.35 39.4 10.25 39.5 10.1 39.65 9.9 39.75 9.85 39.75 9.85 39.8 9.8 39.85 9.75 39.85 9.7 39.9 9.7 39.95 9.65 40.0 9.6 40.05 9.6 40.1 9.55 40.15 9.55 40.2 9.55 40.25 9.55 40.3 9.55 40.35 9.6 40.4 9.6 40.45 9.65 40.5 9.7 40.55 9.75 40.6 9.8 40.6 9.85 40.65 9.9 40.65 9.95 40.65 10.0 40.65 10.05 40.65 10.1 40.6 10.15 40.6 10.2 40.6 10.25 40.55 10.35 40.55 10.35 40.55 10.45 40.5 10.55 40.45 10.65 40.4 10.75 40.4 10.85 40.4 10.95 40.35 11.05 40.4 11.15 40.4 11.2 40.45 11.3 40.45 11.35 40.5 11.45 40.55 11.5 40.65 11.55 40.7 11.6 40.8 11.65 40.9 11.7 41.05 11.75 41.15 11.9 41.5 12.05 41.75 12.15 41.9 12.15 41.95 12.2 41.95 12.2 42.0 12.2 42.05 12.25 42.05 12.25 42.1 12.25 42.1 12.3 42.15 12.3 42.15 12.35 42.2 12.35 42.2 12.4 42.2 12.4 42.2 12.45 42.25 12.5 42.25 12.5 42.25 L12.5 42.25" fill="#0b0b0b" fill-rule="evenodd" stroke="none"/>
    <path d="M-21.75 24.75 Q-21.75 25.05 -21.8 25.35 -21.85 25.65 -22.0 25.95 -22.1 26.2 -22.3 26.45 -22.45 26.7 -22.65 26.9 -22.9 27.1 -23.15 27.25 -23.4 27.4 -23.7 27.55 -24.0 27.65 -24.35 27.7 -24.65 27.75 -25.0 27.75 -25.3 27.75 -25.6 27.7 -25.9 27.65 -26.2 27.55 -26.45 27.45 -26.7 27.3 -26.9 27.2 -27.1 27.0 -27.3 26.85 -27.45 26.65 -27.6 26.45 -27.75 26.2 -27.85 25.95 -27.9 25.7 -27.95 25.45 -27.9 25.2 -27.9 24.85 -27.8 24.5 -27.75 24.2 -27.65 23.9 -27.5 23.6 -27.35 23.3 -27.15 23.05 -26.95 22.85 -26.75 22.6 -26.5 22.45 -26.25 22.25 -25.95 22.15 -25.65 22.0 -25.3 21.95 -25.0 21.85 -24.6 21.85 -24.3 21.85 -24.05 21.85 -23.75 21.9 -23.5 22.0 -23.25 22.1 -23.0 22.3 -22.8 22.45 -22.6 22.65 -22.4 22.85 -22.25 23.05 -22.1 23.3 -21.95 23.6 -21.85 23.85 -21.8 24.15 -21.75 24.45 -21.75 24.75 L-21.75 24.75 M-26.85 24.95 Q-26.85 25.15 -26.8 25.35 -26.75 25.5 -26.7 25.7 -26.6 25.85 -26.5 26.05 -26.4 26.2 -26.25 26.3 -26.1 26.45 -25.95 26.55 -25.8 26.65 -25.6 26.75 -25.45 26.8 -25.25 26.85 -25.05 26.9 -24.9 26.9 -24.7 26.9 -24.5 26.85 -24.25 26.8 -24.05 26.7 -23.85 26.6 -23.7 26.45 -23.5 26.3 -23.35 26.15 -23.2 26.0 -23.05 25.8 -22.95 25.6 -22.85 25.4 -22.75 25.2 -22.7 25.0 -22.65 24.8 -22.65 24.55 -22.65 24.35 -22.7 24.2 -22.75 24.0 -22.8 23.85 -22.9 23.7 -23.0 23.55 -23.1 23.4 -23.25 23.25 -23.4 23.15 -23.55 23.05 -23.7 22.95 -23.85 22.9 -24.05 22.8 -24.25 22.8 -24.45 22.75 -24.65 22.75 -24.85 22.75 -25.1 22.8 -25.3 22.85 -25.5 22.95 -25.7 23.05 -25.85 23.15 -26.05 23.3 -26.2 23.45 -26.35 23.6 -26.45 23.75 -26.6 23.9 -26.65 24.1 -26.75 24.3 -26.8 24.5 -26.85 24.7 -26.85 24.95 L-26.85 24.95" fill="#0b0b0b" fill-rule="evenodd" stroke="none"/>
    <path d="M35.0 61.05 Q34.75 61.05 34.5 61.0 34.25 60.95 34.0 60.85 33.8 60.75 33.6 60.6 33.35 60.45 33.2 60.3 33.0 60.1 32.85 59.9 32.7 59.7 32.6 59.5 32.5 59.25 32.45 59.05 32.35 58.8 32.35 58.55 32.35 58.25 32.4 57.95 32.45 57.65 32.55 57.4 32.7 57.1 32.85 56.85 33.0 56.65 33.2 56.4 33.4 56.2 33.65 56.0 33.9 55.85 34.15 55.7 34.45 55.6 34.7 55.55 35.0 55.45 35.3 55.45 35.55 55.45 35.8 55.5 36.05 55.55 36.25 55.65 36.5 55.75 36.7 55.85 36.9 56.0 37.05 56.2 37.25 56.35 37.4 56.55 37.55 56.75 37.65 57.0 37.75 57.2 37.8 57.45 37.85 57.7 37.85 57.95 37.85 58.25 37.8 58.5 37.75 58.8 37.6 59.1 37.5 59.35 37.35 59.6 37.2 59.85 37.0 60.05 36.8 60.3 36.55 60.45 36.3 60.65 36.05 60.75 35.8 60.9 35.55 60.95 35.25 61.0 35.0 61.05 L35.0 61.05 M37.0 58.25 Q37.0 58.05 36.95 57.9 36.95 57.7 36.9 57.55 36.8 57.4 36.7 57.25 36.65 57.1 36.5 57.0 36.4 56.85 36.25 56.75 36.1 56.65 35.95 56.6 35.8 56.55 35.65 56.5 35.45 56.45 35.25 56.45 35.05 56.45 34.9 56.5 34.7 56.5 34.55 56.6 34.4 56.65 34.25 56.75 34.1 56.85 33.95 56.95 33.85 57.1 33.75 57.25 33.65 57.4 33.6 57.55 33.5 57.7 33.45 57.9 33.45 58.1 33.45 58.25 33.45 58.45 33.5 58.6 33.5 58.8 33.6 58.95 33.65 59.1 33.75 59.25 33.85 59.4 33.95 59.5 34.1 59.65 34.2 59.75 34.35 59.85 34.5 59.9 34.7 60.0 34.85 60.0 35.05 60.05 35.2 60.05 35.4 60.05 35.6 60.0 35.75 60.0 35.9 59.9 36.1 59.85 36.25 59.75 36.4 59.65 36.5 59.55 36.65 59.4 36.7 59.3 36.8 59.15 36.9 58.95 36.95 58.8 37.0 58.6 37.0 58.45 37.0 58.25 L37.0 58.25" fill="#0b0b0b" fill-rule="evenodd" stroke="none"/>
    <path d="M-43.25 52.5 Q-43.25 52.8 -43.3 53.05 -43.35 53.35 -43.45 53.6 -43.55 53.85 -43.65 54.05 -43.8 54.25 -43.95 54.45 -44.15 54.6 -44.35 54.75 -44.55 54.9 -44.75 55.0 -45.0 55.1 -45.25 55.15 -45.5 55.2 -45.8 55.2 -46.1 55.2 -46.4 55.15 -46.7 55.1 -46.95 55.0 -47.25 54.9 -47.5 54.75 -47.7 54.6 -47.9 54.45 -48.15 54.25 -48.3 54.05 -48.45 53.8 -48.55 53.55 -48.7 53.3 -48.75 53.05 -48.8 52.8 -48.8 52.5 -48.8 52.2 -48.75 51.95 -48.7 51.65 -48.55 51.4 -48.45 51.1 -48.3 50.9 -48.15 50.65 -47.95 50.45 -47.75 50.25 -47.55 50.1 -47.35 49.9 -47.1 49.8 -46.85 49.7 -46.55 49.65 -46.3 49.55 -46.05 49.55 -45.75 49.55 -45.45 49.6 -45.2 49.65 -44.9 49.75 -44.65 49.9 -44.45 50.05 -44.25 50.2 -44.05 50.4 -43.85 50.6 -43.7 50.8 -43.55 51.05 -43.45 51.3 -43.35 51.6 -43.3 51.85 -43.25 52.15 -43.25 52.5 L-43.25 52.5 M-46.0 54.45 Q-45.8 54.45 -45.65 54.45 -45.45 54.4 -45.3 54.35 -45.15 54.3 -45.0 54.2 -44.85 54.1 -44.75 54.0 -44.6 53.9 -44.55 53.75 -44.45 53.6 -44.35 53.45 -44.3 53.3 -44.25 53.1 -44.2 52.95 -44.2 52.75 -44.2 52.55 -44.25 52.3 -44.25 52.1 -44.35 51.9 -44.4 51.7 -44.5 51.55 -44.6 51.4 -44.7 51.25 -44.85 51.1 -45.0 51.0 -45.15 50.9 -45.3 50.8 -45.5 50.75 -45.65 50.7 -45.85 50.65 -46.05 50.65 -46.25 50.65 -46.45 50.7 -46.6 50.75 -46.8 50.8 -46.95 50.9 -47.1 51.0 -47.25 51.15 -47.4 51.25 -47.55 51.4 -47.65 51.55 -47.75 51.75 -47.85 51.9 -47.9 52.1 -47.95 52.25 -48.0 52.45 -48.0 52.65 -48.0 52.85 -47.95 53.0 -47.9 53.2 -47.85 53.35 -47.75 53.5 -47.65 53.65 -47.55 53.8 -47.4 53.95 -47.3 54.05 -47.15 54.15 -46.95 54.25 -46.8 54.3 -46.6 54.4 -46.4 54.45 -46.25 54.45 -46.0 54.45 L-46.0 54.45" fill="#0b0b0b" fill-rule="evenodd" stroke="none"/>
    <path d="M23.25 23.25 Q23.55 23.25 23.8 23.3 24.05 23.35 24.3 23.45 24.55 23.55 24.75 23.7 24.95 23.85 25.15 24.0 25.3 24.15 25.45 24.4 25.6 24.6 25.7 24.8 25.8 25.05 25.8 25.3 25.85 25.55 25.85 25.8 25.85 26.1 25.8 26.35 25.75 26.6 25.65 26.85 25.55 27.1 25.4 27.3 25.25 27.5 25.05 27.65 24.85 27.85 24.65 27.95 24.4 28.1 24.15 28.2 23.9 28.3 23.65 28.35 23.35 28.35 23.05 28.35 22.8 28.35 22.5 28.3 22.25 28.25 22.05 28.15 21.8 28.05 21.6 27.95 21.4 27.8 21.2 27.65 21.05 27.45 20.9 27.3 20.8 27.1 20.7 26.85 20.6 26.65 20.55 26.4 20.5 26.15 20.55 25.9 20.55 25.6 20.6 25.35 20.65 25.05 20.75 24.8 20.85 24.55 21.0 24.35 21.15 24.15 21.3 23.95 21.5 23.8 21.7 23.65 21.9 23.55 22.15 23.45 22.4 23.35 22.7 23.3 22.95 23.25 23.25 23.25 L23.25 23.25 M24.9 25.8 Q24.9 25.6 24.85 25.45 24.8 25.25 24.75 25.1 24.7 24.95 24.6 24.8 24.5 24.65 24.4 24.55 24.25 24.4 24.15 24.35 24.0 24.25 23.85 24.15 23.65 24.1 23.5 24.05 23.35 24.0 23.15 24.0 22.95 24.0 22.8 24.05 22.6 24.05 22.45 24.15 22.25 24.2 22.1 24.3 21.95 24.4 21.85 24.5 21.7 24.65 21.6 24.8 21.5 24.95 21.45 25.1 21.35 25.25 21.35 25.45 21.3 25.65 21.3 25.8 21.3 26.0 21.35 26.15 21.35 26.35 21.45 26.5 21.5 26.65 21.6 26.8 21.7 26.95 21.8 27.05 21.95 27.2 22.05 27.3 22.2 27.4 22.35 27.45 22.5 27.55 22.7 27.55 22.85 27.6 23.05 27.6 23.25 27.6 23.4 27.6 23.6 27.55 23.75 27.5 23.95 27.4 24.1 27.35 24.25 27.25 24.35 27.1 24.5 27.0 24.55 26.85 24.65 26.7 24.75 26.55 24.8 26.35 24.85 26.2 24.9 26.0 24.9 25.8 L24.9 25.8" fill="#0b0b0b" fill-rule="evenodd" stroke="none"/>
    <path d="M15.35 61.15 Q15.6 61.15 15.8 61.2 16.05 61.25 16.25 61.3 16.4 61.35 16.6 61.45 16.75 61.55 16.9 61.7 17.05 61.8 17.15 61.95 17.25 62.1 17.3 62.3 17.4 62.45 17.4 62.65 17.45 62.85 17.45 63.1 17.45 63.3 17.4 63.55 17.35 63.75 17.25 63.95 17.2 64.1 17.05 64.3 16.95 64.45 16.8 64.6 16.65 64.75 16.5 64.85 16.3 65.0 16.15 65.05 15.95 65.15 15.75 65.2 15.55 65.2 15.35 65.2 15.15 65.2 14.9 65.15 14.7 65.1 14.5 65.0 14.35 64.95 14.15 64.8 14.0 64.7 13.85 64.55 13.7 64.4 13.6 64.2 13.5 64.05 13.4 63.85 13.3 63.65 13.3 63.45 13.25 63.25 13.25 63.0 13.25 62.8 13.3 62.6 13.35 62.4 13.45 62.25 13.5 62.05 13.6 61.9 13.75 61.75 13.85 61.65 14.0 61.5 14.15 61.4 14.35 61.3 14.5 61.25 14.7 61.2 14.9 61.15 15.1 61.15 15.35 61.15 L15.35 61.15 M17.0 63.1 Q17.0 62.95 16.95 62.85 16.95 62.7 16.9 62.6 16.85 62.45 16.75 62.35 16.7 62.25 16.6 62.2 16.5 62.1 16.35 62.0 16.25 61.95 16.1 61.9 16.0 61.85 15.85 61.85 15.7 61.8 15.55 61.8 15.4 61.8 15.25 61.85 15.1 61.85 15.0 61.9 14.85 61.95 14.75 62.05 14.6 62.1 14.5 62.2 14.4 62.3 14.35 62.45 14.25 62.55 14.2 62.65 14.15 62.8 14.1 62.95 14.1 63.05 14.1 63.2 14.1 63.35 14.15 63.45 14.15 63.6 14.2 63.7 14.25 63.8 14.35 63.9 14.45 64.05 14.55 64.1 14.65 64.2 14.75 64.3 14.85 64.35 15.0 64.4 15.15 64.45 15.25 64.5 15.4 64.5 15.55 64.5 15.7 64.5 15.85 64.5 15.95 64.45 16.1 64.4 16.25 64.35 16.35 64.25 16.45 64.2 16.6 64.1 16.7 64.0 16.75 63.85 16.85 63.75 16.9 63.65 16.95 63.5 17.0 63.35 17.0 63.25 17.0 63.1 L17.0 63.1" fill="#0b0b0b" fill-rule="evenodd" stroke="none"/>
    <path d="M-11.9 19.4 Q-12.1 19.4 -12.25 19.35 -12.4 19.35 -12.55 19.3 -12.7 19.2 -12.85 19.15 -12.95 19.05 -13.05 18.95 -13.15 18.85 -13.25 18.75 -13.3 18.65 -13.35 18.5 -13.4 18.35 -13.45 18.2 -13.45 18.05 -13.45 17.9 -13.45 17.75 -13.4 17.6 -13.35 17.45 -13.3 17.3 -13.2 17.15 -13.1 17.05 -13.0 16.95 -12.9 16.85 -12.75 16.75 -12.6 16.65 -12.45 16.55 -12.25 16.5 -12.1 16.45 -11.9 16.45 -11.7 16.4 -11.5 16.4 -11.35 16.4 -11.15 16.45 -11.0 16.5 -10.85 16.55 -10.7 16.6 -10.55 16.7 -10.45 16.8 -10.3 16.9 -10.2 17.0 -10.1 17.1 -10.0 17.25 -9.95 17.35 -9.85 17.5 -9.8 17.65 -9.8 17.75 -9.8 17.9 -9.8 18.05 -9.85 18.2 -9.85 18.35 -9.95 18.5 -10.0 18.65 -10.1 18.75 -10.25 18.9 -10.35 19.0 -10.5 19.05 -10.7 19.15 -10.85 19.25 -11.05 19.3 -11.25 19.35 -11.45 19.35 -11.65 19.4 -11.9 19.4 L-11.9 19.4 M-11.65 17.05 Q-11.75 17.05 -11.85 17.05 -11.95 17.1 -12.05 17.1 -12.15 17.1 -12.2 17.15 -12.3 17.2 -12.4 17.25 -12.45 17.3 -12.5 17.35 -12.6 17.4 -12.6 17.5 -12.65 17.6 -12.7 17.7 -12.7 17.8 -12.7 17.95 -12.7 18.05 -12.7 18.15 -12.7 18.2 -12.65 18.3 -12.6 18.35 -12.55 18.4 -12.5 18.45 -12.45 18.5 -12.4 18.55 -12.35 18.55 -12.25 18.6 -12.2 18.6 -12.1 18.6 -12.05 18.6 -11.95 18.65 -11.85 18.6 -11.6 18.6 -11.65 18.6 -11.5 18.6 -11.45 18.6 -11.3 18.6 -11.2 18.55 -11.1 18.55 -11.0 18.5 -10.95 18.45 -10.85 18.4 -10.8 18.35 -10.7 18.3 -10.65 18.2 -10.65 18.1 -10.6 17.95 -10.6 17.8 -10.6 17.7 -10.6 17.6 -10.65 17.5 -10.7 17.45 -10.7 17.35 -10.75 17.3 -10.85 17.25 -10.9 17.2 -10.95 17.15 -11.05 17.1 -11.15 17.1 -11.25 17.05 -11.35 17.05 -11.45 17.05 -11.55 17.05 -11.65 17.05 L-11.65 17.05" fill="#0b0b0b" fill-rule="evenodd" stroke="none"/>
    <path d="M-43.95 41.75 Q-43.95 41.9 -44.0 42.1 -44.0 42.25 -44.05 42.4 -44.1 42.55 -44.2 42.7 -44.25 42.8 -44.4 42.9 -44.5 43.05 -44.6 43.1 -44.7 43.2 -44.85 43.25 -45.0 43.35 -45.15 43.35 -45.3 43.4 -45.5 43.4 -45.7 43.4 -45.85 43.4 -46.05 43.35 -46.25 43.3 -46.4 43.2 -46.55 43.1 -46.7 43.0 -46.85 42.85 -47.0 42.75 -47.1 42.6 -47.2 42.4 -47.25 42.25 -47.35 42.05 -47.4 41.85 -47.45 41.65 -47.45 41.45 -47.45 41.3 -47.45 41.15 -47.4 41.0 -47.35 40.85 -47.3 40.7 -47.2 40.55 -47.1 40.45 -47.0 40.35 -46.9 40.2 -46.75 40.15 -46.65 40.05 -46.5 40.0 -46.35 39.9 -46.2 39.9 -46.05 39.85 -45.85 39.85 -45.7 39.85 -45.5 39.9 -45.35 39.9 -45.15 40.0 -45.0 40.05 -44.85 40.15 -44.7 40.3 -44.55 40.4 -44.45 40.55 -44.3 40.7 -44.2 40.85 -44.15 41.05 -44.05 41.2 -44.0 41.4 -43.95 41.55 -43.95 41.75 L-43.95 41.75 M-45.55 42.9 Q-45.45 42.9 -45.3 42.9 -45.2 42.85 -45.1 42.8 -45.0 42.75 -44.9 42.7 -44.8 42.65 -44.75 42.55 -44.65 42.5 -44.6 42.4 -44.55 42.3 -44.5 42.2 -44.45 42.1 -44.45 42.0 -44.4 41.9 -44.4 41.75 -44.4 41.65 -44.45 41.55 -44.5 41.45 -44.55 41.3 -44.6 41.2 -44.7 41.1 -44.75 41.0 -44.85 40.9 -44.95 40.8 -45.05 40.75 -45.2 40.65 -45.3 40.6 -45.4 40.55 -45.55 40.55 -45.65 40.5 -45.75 40.5 -45.9 40.5 -46.0 40.55 -46.1 40.55 -46.2 40.6 -46.3 40.65 -46.35 40.75 -46.45 40.8 -46.5 40.85 -46.55 40.95 -46.6 41.05 -46.65 41.15 -46.7 41.25 -46.7 41.35 -46.75 41.45 -46.75 41.55 -46.75 41.7 -46.75 41.8 -46.75 41.95 -46.7 42.05 -46.65 42.15 -46.65 42.3 -46.55 42.35 -46.5 42.45 -46.4 42.55 -46.35 42.65 -46.25 42.7 -46.15 42.75 -46.05 42.8 -45.95 42.85 -45.8 42.9 -45.7 42.9 -45.55 42.9 L-45.55 42.9" fill="#0b0b0b" fill-rule="evenodd" stroke="none"/>
    <path d="M-8.9 35.55 Q-8.9 35.7 -8.95 35.8 -8.95 35.95 -9.0 36.05 -9.1 36.15 -9.15 36.25 -9.2 36.35 -9.3 36.45 -9.4 36.55 -9.5 36.6 -9.6 36.65 -9.75 36.7 -9.85 36.75 -9.95 36.75 -10.1 36.8 -10.2 36.8 -10.35 36.8 -10.45 36.75 -10.6 36.75 -10.7 36.65 -10.8 36.6 -10.9 36.55 -11.0 36.45 -11.1 36.35 -11.2 36.3 -11.25 36.2 -11.3 36.05 -11.35 35.95 -11.4 35.85 -11.4 35.7 -11.4 35.6 -11.4 35.45 -11.4 35.3 -11.35 35.2 -11.35 35.05 -11.3 34.95 -11.25 34.85 -11.2 34.75 -11.1 34.7 -11.05 34.6 -10.95 34.55 -10.85 34.5 -10.75 34.4 -10.65 34.4 -10.55 34.35 -10.45 34.35 -10.3 34.3 -10.15 34.3 -10.0 34.3 -9.9 34.3 -9.75 34.35 -9.65 34.4 -9.55 34.45 -9.45 34.5 -9.35 34.6 -9.25 34.65 -9.15 34.75 -9.1 34.85 -9.05 34.95 -9.0 35.1 -8.95 35.2 -8.95 35.3 -8.9 35.45 -8.9 35.55 L-8.9 35.55 M-9.25 35.6 Q-9.25 35.5 -9.25 35.4 -9.3 35.3 -9.35 35.25 -9.35 35.15 -9.4 35.1 -9.45 35.0 -9.5 34.95 -9.6 34.9 -9.65 34.9 -9.7 34.85 -9.8 34.8 -9.85 34.8 -9.95 34.75 -10.05 34.75 -10.15 34.75 -10.25 34.75 -10.3 34.75 -10.35 34.75 -10.45 34.8 -10.5 34.85 -10.55 34.85 -10.6 34.9 -10.65 34.95 -10.7 35.0 -10.75 35.1 -10.75 35.15 -10.8 35.2 -10.8 35.3 -10.85 35.35 -10.85 35.45 -10.85 35.5 -10.85 35.6 -10.85 35.65 -10.85 35.75 -10.8 35.8 -10.8 35.9 -10.75 35.95 -10.75 36.0 -10.7 36.05 -10.65 36.1 -10.55 36.15 -10.5 36.2 -10.45 36.2 -10.4 36.25 -10.3 36.25 -10.25 36.25 -10.15 36.25 -10.05 36.25 -10.0 36.25 -9.9 36.25 -9.8 36.25 -9.75 36.2 -9.7 36.2 -9.6 36.15 -9.55 36.15 -9.5 36.1 -9.45 36.05 -9.4 36.0 -9.35 35.9 -9.3 35.85 -9.3 35.8 -9.25 35.7 -9.25 35.6 L-9.25 35.6" fill="#0b0b0b" fill-rule="evenodd" stroke="none"/>
    <path d="M-29.3 31.05 Q-29.3 31.15 -29.3 31.2 -29.35 31.3 -29.35 31.35 -29.35 31.4 -29.4 31.45 -29.45 31.5 -29.5 31.55 -29.5 31.6 -29.55 31.65 -29.6 31.7 -29.7 31.7 -29.75 31.75 -29.8 31.75 -29.9 31.75 -29.95 31.75 -30.05 31.75 -30.1 31.75 -30.15 31.75 -30.25 31.75 -30.3 31.7 -30.35 31.7 -30.4 31.65 -30.45 31.6 -30.5 31.55 -30.55 31.5 -30.6 31.45 -30.6 31.4 -30.65 31.35 -30.65 31.3 -30.65 31.2 -30.65 31.15 -30.65 31.05 -30.65 30.95 -30.65 30.9 -30.65 30.8 -30.6 30.75 -30.6 30.7 -30.55 30.6 -30.5 30.55 -30.45 30.5 -30.4 30.5 -30.35 30.45 -30.3 30.4 -30.2 30.4 -30.15 30.4 -30.05 30.35 -30.0 30.35 -29.9 30.35 -29.85 30.35 -29.8 30.4 -29.7 30.4 -29.65 30.45 -29.6 30.45 -29.55 30.5 -29.5 30.55 -29.45 30.6 -29.4 30.65 -29.4 30.7 -29.35 30.75 -29.35 30.85 -29.3 30.9 -29.3 31.0 -29.3 31.05 L-29.3 31.05" fill="#0b0b0b" fill-rule="evenodd" stroke="none"/>
    <path d="M-20.05 54.5 Q-20.0 54.5 -19.9 54.55 -19.85 54.55 -19.8 54.6 -19.7 54.6 -19.65 54.65 -19.6 54.7 -19.55 54.75 -19.5 54.8 -19.5 54.85 -19.45 54.9 -19.45 54.95 -19.4 55.0 -19.4 55.05 -19.4 55.15 -19.4 55.25 -19.4 55.35 -19.4 55.4 -19.45 55.5 -19.45 55.55 -19.5 55.6 -19.5 55.65 -19.55 55.7 -19.6 55.75 -19.65 55.8 -19.7 55.85 -19.8 55.85 -19.85 55.9 -19.9 55.9 -20.0 55.9 -20.05 55.9 -20.15 55.9 -20.25 55.9 -20.3 55.9 -20.4 55.85 -20.45 55.85 -20.5 55.8 -20.55 55.75 -20.6 55.75 -20.65 55.7 -20.7 55.65 -20.7 55.55 -20.75 55.5 -20.75 55.45 -20.8 55.4 -20.8 55.3 -20.8 55.25 -20.8 55.15 -20.8 55.1 -20.75 55.0 -20.75 54.95 -20.75 54.9 -20.7 54.85 -20.65 54.8 -20.6 54.75 -20.55 54.7 -20.5 54.65 -20.45 54.65 -20.4 54.6 -20.35 54.6 -20.3 54.55 -20.2 54.55 -20.15 54.5 -20.05 54.5 L-20.05 54.5" fill="#0b0b0b" fill-rule="evenodd" stroke="none"/>
    <path d="M0.45 43.35 Q0.45 43.45 0.4 43.5 0.4 43.6 0.35 43.65 0.35 43.75 0.3 43.8 0.3 43.85 0.25 43.9 0.2 43.95 0.15 44.0 0.1 44.0 0.0 44.05 -0.05 44.05 -0.1 44.1 -0.2 44.1 -0.25 44.1 -0.35 44.1 -0.4 44.1 -0.5 44.05 -0.55 44.05 -0.65 44.0 -0.7 44.0 -0.75 43.95 -0.8 43.9 -0.85 43.85 -0.85 43.8 -0.9 43.7 -0.9 43.65 -0.95 43.6 -0.95 43.5 -0.95 43.45 -0.95 43.35 -0.95 43.25 -0.95 43.2 -0.9 43.1 -0.9 43.05 -0.85 43.0 -0.8 42.95 -0.8 42.9 -0.75 42.85 -0.7 42.8 -0.65 42.8 -0.6 42.75 -0.5 42.75 -0.45 42.7 -0.4 42.7 -0.3 42.7 -0.25 42.7 -0.15 42.7 -0.1 42.7 -0.05 42.75 0.05 42.75 0.1 42.8 0.15 42.8 0.2 42.85 0.25 42.9 0.3 42.95 0.3 43.0 0.35 43.05 0.35 43.1 0.4 43.15 0.4 43.25 0.4 43.3 0.45 43.35 L0.45 43.35" fill="#0b0b0b" fill-rule="evenodd" stroke="none"/>
    <path d="M38.55 36.85 Q38.45 36.85 38.4 36.85 38.35 36.8 38.25 36.8 38.2 36.75 38.15 36.75 38.1 36.7 38.05 36.65 38.0 36.65 37.95 36.6 37.9 36.55 37.9 36.45 37.85 36.4 37.85 36.35 37.85 36.25 37.85 36.2 37.85 36.1 37.85 36.05 37.85 35.95 37.9 35.9 37.9 35.8 37.95 35.75 37.95 35.7 38.0 35.65 38.05 35.6 38.1 35.55 38.15 35.5 38.25 35.5 38.3 35.45 38.4 35.45 38.45 35.45 38.55 35.45 38.6 35.45 38.7 35.45 38.75 35.5 38.8 35.5 38.9 35.5 38.95 35.55 39.0 35.6 39.05 35.65 39.05 35.7 39.1 35.75 39.15 35.8 39.15 35.85 39.2 35.9 39.2 36.0 39.2 36.05 39.2 36.15 39.2 36.25 39.2 36.3 39.2 36.35 39.15 36.45 39.15 36.5 39.1 36.55 39.05 36.6 39.0 36.65 39.0 36.7 38.95 36.7 38.9 36.75 38.8 36.8 38.75 36.8 38.7 36.85 38.6 36.85 38.55 36.85 L38.55 36.85" fill="#0b0b0b" fill-rule="evenodd" stroke="none"/>
    <path d="M-25.7 44.8 Q-25.6 43.55 -25.7 44.55 -25.65 44.4 -25.65 44.3 -25.65 44.2 -25.6 44.1 -25.6 43.95 -25.55 43.85 -25.5 43.7 -25.45 43.6 -25.4 43.5 -25.3 43.4 -25.2 43.3 -25.1 43.25 -25.0 43.15 -24.85 43.1 -24.75 43.05 -24.6 43.05 -24.5 43.0 -24.4 43.0 -24.3 43.0 -24.2 43.05 -24.1 43.05 -24.0 43.1 -23.9 43.15 -23.8 43.2 -23.7 43.25 -23.6 43.35 -23.55 43.4 -23.45 43.5 -23.35 43.6 -23.3 43.7 -23.25 43.75 -23.25 43.8 -23.2 43.85 -23.15 43.85 -23.1 43.85 -23.1 43.9 -23.05 43.9 -23.0 43.9 -23.0 43.9 -22.95 43.9 -22.9 43.85 -22.9 43.85 -22.85 43.85 -22.8 43.8 -22.75 43.8 -22.7 43.75 -22.6 43.65 -22.5 43.6 -22.4 43.55 -22.3 43.5 -22.2 43.45 -22.1 43.4 -22.0 43.4 -21.9 43.35 -21.8 43.35 -21.7 43.35 -21.6 43.35 -21.5 43.4 -21.35 43.45 -21.25 43.5 -21.15 43.55 -21.05 43.6 -20.95 43.7 -20.85 43.8 -20.8 43.85 -20.75 43.95 -20.7 44.05 -20.65 44.2 -20.65 44.3 -20.65 44.4 -20.6 44.5 -20.6 44.6 -20.65 44.7 -20.65 44.85 -20.65 44.95 -20.7 45.05 -20.7 45.15 -20.75 45.3 -20.85 45.65 -20.95 45.95 -21.1 46.25 -21.25 46.5 -21.4 46.75 -21.65 47.0 -21.85 47.2 -22.1 47.4 -22.3 47.6 -22.55 47.75 -22.8 47.9 -23.1 48.1 -23.35 48.2 -23.65 48.35 -23.9 48.5 -24.25 48.65 -24.3 48.7 -24.4 48.7 -24.45 48.7 -24.5 48.7 -24.55 48.65 -24.6 48.65 -24.65 48.65 -24.65 48.6 -24.7 48.55 -24.75 48.5 -24.8 48.45 -24.8 48.4 -24.85 48.35 -24.85 48.3 -24.9 48.25 -24.9 48.2 -25.0 48.0 -25.05 47.8 -25.15 47.6 -25.2 47.4 -25.3 47.2 -25.35 47.0 -25.4 46.75 -25.45 46.55 -25.5 46.35 -25.55 46.15 -25.6 45.9 -25.65 45.7 -25.65 45.45 -25.7 45.25 -25.7 45.0 -25.7 44.8 L-25.7 44.8 M-23.25 44.95 Q-23.3 44.85 -23.4 44.65 -23.45 44.5 -23.5 44.45 -23.55 44.35 -23.6 44.3 -23.6 44.2 -23.65 44.15 -23.7 44.05 -23.75 44.0 -23.8 43.95 -23.85 43.9 -23.9 43.85 -24.0 43.8 -24.05 43.75 -24.1 43.75 -24.2 43.7 -24.3 43.7 -24.4 43.7 -24.5 43.75 -24.6 43.75 -24.7 43.8 -24.75 43.85 -24.85 43.9 -24.9 43.95 -24.95 44.05 -24.95 44.1 -25.0 44.2 -25.0 44.25 -25.0 44.35 -25.0 44.4 -25.0 44.5 -25.0 44.6 -25.0 44.65 -25.0 44.75 -25.0 44.85 -24.85 46.25 -24.65 47.05 -24.6 47.2 -24.6 47.3 -24.55 47.4 -24.5 47.5 -24.45 47.6 -24.4 47.65 -24.35 47.7 -24.25 47.75 -24.2 47.75 -24.1 47.75 -24.0 47.75 -23.95 47.75 -23.85 47.7 -23.7 47.7 -23.6 47.65 -23.5 47.55 -23.35 47.45 -23.2 47.35 -23.05 47.25 -22.9 47.15 -22.8 47.05 -22.65 46.95 -22.5 46.8 -22.4 46.7 -22.3 46.55 -22.2 46.45 -22.05 46.3 -21.95 46.15 -21.85 46.0 -21.8 45.85 -21.7 45.7 -21.6 45.55 -21.6 45.5 -21.55 45.4 -21.5 45.3 -21.45 45.25 -21.4 45.15 -21.4 45.1 -21.35 45.0 -21.35 44.9 -21.35 44.85 -21.35 44.75 -21.35 44.7 -21.35 44.6 -21.4 44.55 -21.45 44.45 -21.5 44.4 -21.55 44.3 -21.65 44.2 -21.7 44.2 -21.8 44.15 -21.9 44.1 -21.95 44.1 -22.05 44.1 -22.1 44.15 -22.2 44.15 -22.25 44.2 -22.35 44.25 -22.4 44.3 -22.5 44.35 -22.5 44.35 -22.6 44.45 -22.7 44.5 -22.75 44.55 -22.85 44.6 -23.25 44.95 L-23.25 44.95" fill="#0b0b0b" fill-rule="evenodd" stroke="none"/>
    <path d="M-39.3 44.25 Q-39.3 44.15 -39.35 44.1 -39.35 44.0 -39.35 43.95 -39.35 43.9 -39.35 43.8 -39.35 43.75 -39.4 43.7 -39.4 43.65 -39.4 43.6 -39.4 43.5 -39.4 43.45 -39.4 43.4 -39.35 43.35 -39.35 43.3 -39.35 43.25 -39.3 43.1 -39.25 42.95 -39.2 42.8 -39.1 42.7 -39.0 42.6 -38.9 42.5 -38.8 42.45 -38.7 42.4 -38.55 42.35 -38.4 42.35 -38.3 42.3 -38.15 42.35 -38.0 42.35 -37.85 42.45 -37.7 42.5 -37.6 42.6 -37.55 42.6 -37.55 42.65 -37.5 42.65 -37.45 42.7 -37.45 42.7 -37.4 42.75 -37.35 42.8 -37.35 42.8 -37.3 42.85 -37.3 42.85 -37.25 42.9 -37.25 42.9 -37.2 42.9 -37.2 42.9 -37.15 42.9 -37.1 42.9 -37.05 42.9 -36.95 42.8 -36.85 42.65 -36.75 42.6 -36.7 42.55 -36.6 42.5 -36.55 42.45 -36.45 42.4 -36.4 42.4 -36.3 42.35 -36.25 42.3 -36.15 42.3 -36.1 42.3 -36.0 42.3 -35.95 42.3 -35.85 42.3 -35.75 42.3 -35.7 42.3 -35.6 42.35 -35.55 42.35 -35.45 42.4 -35.4 42.45 -35.35 42.45 -35.3 42.5 -35.25 42.55 -35.2 42.65 -35.15 42.7 -35.1 42.75 -35.1 42.8 -35.05 42.9 -35.05 42.95 -35.05 43.0 -35.0 43.1 -35.0 43.15 -35.0 43.25 -35.0 43.3 -35.0 43.5 -35.0 43.65 -35.0 43.8 -35.05 44.0 -35.1 44.15 -35.15 44.3 -35.15 44.45 -35.25 44.65 -35.3 44.8 -35.4 44.9 -35.45 45.05 -35.55 45.2 -35.65 45.35 -35.8 45.5 -35.9 45.6 -36.05 45.75 -36.15 45.85 -36.2 45.9 -36.3 46.0 -36.4 46.05 -36.5 46.1 -36.6 46.2 -36.7 46.25 -36.8 46.35 -36.85 46.4 -36.95 46.45 -37.05 46.55 -37.15 46.6 -37.25 46.65 -37.35 46.75 -37.45 46.8 -37.55 46.85 -37.6 46.9 -37.65 46.9 -37.7 46.95 -37.75 46.95 -37.8 46.95 -37.8 46.95 -37.85 46.95 -37.9 46.95 -37.95 46.95 -38.0 46.95 -38.0 46.95 -38.05 46.9 -38.1 46.9 -38.15 46.85 -38.15 46.8 -38.2 46.75 -38.3 46.6 -38.4 46.45 -38.5 46.3 -38.55 46.15 -38.65 45.95 -38.75 45.8 -38.85 45.65 -38.9 45.5 -38.95 45.35 -39.05 45.2 -39.1 45.05 -39.15 44.9 -39.2 44.7 -39.25 44.55 -39.3 44.4 -39.3 44.25 L-39.3 44.25 M-37.25 43.75 Q-37.25 43.7 -37.3 43.65 -37.35 43.55 -37.35 43.55 -37.4 43.5 -37.45 43.45 -37.45 43.4 -37.5 43.35 -37.55 43.35 -37.55 43.3 -37.6 43.25 -37.65 43.2 -37.65 43.15 -37.7 43.1 -37.75 43.05 -37.8 43.05 -37.85 43.0 -37.9 43.0 -37.9 42.95 -37.95 42.95 -38.0 42.9 -38.05 42.9 -38.1 42.9 -38.1 42.85 -38.15 42.85 -38.2 42.85 -38.25 42.85 -38.3 42.85 -38.35 42.85 -38.4 42.9 -38.45 42.9 -38.5 42.95 -38.55 42.95 -38.6 43.0 -38.6 43.0 -38.65 43.05 -38.7 43.1 -38.7 43.1 -38.75 43.15 -38.75 43.2 -38.75 43.2 -38.8 43.25 -38.8 43.3 -38.8 43.35 -38.8 43.4 -38.8 43.45 -38.8 43.45 -38.8 43.5 -38.8 43.65 -38.75 43.8 -38.75 43.95 -38.7 44.15 -38.65 44.3 -38.6 44.45 -38.6 44.6 -38.55 44.75 -38.5 44.9 -38.45 45.05 -38.4 45.15 -38.35 45.3 -38.3 45.45 -38.2 45.6 -38.15 45.75 -38.1 45.9 -38.05 45.95 -38.05 46.0 -38.0 46.05 -37.95 46.1 -37.9 46.1 -37.85 46.15 -37.8 46.15 -37.75 46.2 -37.7 46.2 -37.65 46.2 -37.55 46.2 -37.5 46.2 -37.45 46.15 -37.4 46.15 -37.35 46.1 -37.3 46.05 -37.15 45.95 -37.0 45.8 -36.85 45.7 -36.7 45.55 -36.55 45.45 -36.45 45.3 -36.35 45.15 -36.25 45.0 -36.1 44.85 -36.05 44.7 -35.95 44.55 -35.85 44.35 -35.8 44.2 -35.7 44.0 -35.65 43.85 -35.6 43.65 -35.6 43.6 -35.6 43.55 -35.6 43.5 -35.6 43.45 -35.6 43.4 -35.6 43.35 -35.6 43.3 -35.6 43.3 -35.6 43.25 -35.65 43.2 -35.65 43.15 -35.7 43.1 -35.7 43.1 -35.75 43.05 -35.8 43.0 -35.85 43.0 -35.9 42.95 -35.95 42.95 -36.0 42.95 -36.05 42.9 -36.1 42.9 -36.15 42.9 -36.15 42.9 -36.2 42.9 -36.25 42.95 -36.3 42.95 -36.35 42.95 -36.4 43.0 -36.45 43.0 -36.5 43.05 -36.55 43.05 -36.6 43.1 -36.65 43.15 -36.9 43.45 -37.1 43.65 -37.25 43.75 L-37.25 43.75" fill="#0b0b0b" fill-rule="evenodd" stroke="none"/>
    <path d="M-38.3 44.45 Q-38.3 44.35 -38.3 44.35 -38.3 44.3 -38.3 44.3 -38.3 44.25 -38.3 44.2 -38.3 44.15 -38.3 44.1 -38.3 44.05 -38.25 44.05 -38.25 44.0 -38.25 43.95 -38.2 43.9 -38.15 43.85 -38.1 43.85 -38.05 43.8 -38.0 43.8 -37.95 43.75 -37.95 43.75 -37.9 43.75 -37.85 43.75 -37.8 43.75 -37.75 43.75 -37.75 43.75 -37.7 43.75 -37.65 43.8 -37.6 43.8 -37.55 43.8 -37.55 43.85 -37.5 43.85 -37.45 43.9 -37.45 43.95 -37.4 44.0 -37.35 44.0 -37.3 44.0 -37.25 44.0 -37.25 43.95 -37.2 43.9 -37.15 43.85 -37.15 43.85 -37.1 43.8 -37.05 43.8 -37.0 43.75 -37.0 43.75 -36.95 43.75 -36.9 43.75 -36.85 43.7 -36.8 43.7 -36.8 43.7 -36.75 43.7 -36.7 43.7 -36.65 43.75 -36.6 43.75 -36.55 43.75 -36.5 43.8 -36.45 43.8 -36.45 43.85 -36.4 43.9 -36.4 43.9 -36.35 43.95 -36.35 44.0 -36.35 44.05 -36.35 44.05 -36.35 44.1 -36.35 44.15 -36.35 44.2 -36.35 44.25 -36.35 44.3 -36.35 44.3 -36.35 44.35 -36.35 44.5 -36.4 44.6 -36.45 44.75 -36.5 44.85 -36.55 44.95 -36.6 45.05 -36.65 45.15 -36.75 45.2 -36.85 45.3 -36.9 45.4 -37.0 45.45 -37.1 45.55 -37.2 45.6 -37.3 45.65 -37.4 45.75 -37.55 45.8 -37.6 45.85 -37.65 45.85 -37.65 45.85 -37.7 45.8 -37.75 45.8 -37.75 45.75 -37.8 45.75 -37.8 45.7 -37.85 45.65 -37.9 45.55 -37.95 45.5 -37.95 45.4 -38.0 45.35 -38.05 45.25 -38.1 45.2 -38.1 45.1 -38.15 45.05 -38.2 44.95 -38.2 44.9 -38.25 44.8 -38.25 44.7 -38.25 44.65 -38.3 44.55 -38.3 44.45 L-38.3 44.45 M-37.35 44.4 Q-37.4 44.35 -37.4 44.3 -37.45 44.25 -37.45 44.2 -37.45 44.2 -37.5 44.15 -37.5 44.15 -37.55 44.1 -37.55 44.1 -37.6 44.05 -37.6 44.05 -37.65 44.05 -37.65 44.0 -37.7 44.0 -37.7 44.0 -37.75 44.0 -37.8 44.0 -37.8 44.0 -37.85 44.0 -37.9 44.0 -37.95 44.0 -37.95 44.05 -38.0 44.05 -38.0 44.1 -38.05 44.1 -38.05 44.15 -38.05 44.15 -38.05 44.2 -38.05 44.25 -38.05 44.25 -38.05 44.3 -38.05 44.35 -38.05 44.35 -38.05 44.4 -38.05 44.4 -38.05 44.45 -38.05 44.5 -37.9 44.85 -37.85 45.1 -37.75 45.25 -37.75 45.3 -37.7 45.35 -37.7 45.4 -37.7 45.4 -37.65 45.45 -37.65 45.45 -37.6 45.45 -37.6 45.45 -37.55 45.5 -37.5 45.5 -37.5 45.45 -37.45 45.45 -37.4 45.45 -37.4 45.4 -37.35 45.4 -37.3 45.35 -37.25 45.3 -37.2 45.25 -37.15 45.2 -37.1 45.2 -37.05 45.15 -37.0 45.1 -36.95 45.05 -36.9 45.0 -36.9 44.95 -36.85 44.85 -36.8 44.8 -36.8 44.75 -36.75 44.7 -36.7 44.65 -36.7 44.6 -36.65 44.5 -36.65 44.5 -36.65 44.45 -36.6 44.4 -36.6 44.4 -36.6 44.35 -36.6 44.35 -36.6 44.3 -36.6 44.25 -36.6 44.25 -36.6 44.2 -36.6 44.2 -36.65 44.15 -36.65 44.15 -36.65 44.1 -36.7 44.1 -36.7 44.05 -36.75 44.05 -36.8 44.0 -36.8 44.0 -36.85 44.0 -36.9 44.0 -36.9 44.0 -36.95 44.0 -36.95 44.05 -37.0 44.05 -37.05 44.1 -37.05 44.1 -37.1 44.1 -37.1 44.15 -37.1 44.15 -37.15 44.2 -37.15 44.2 -37.2 44.25 -37.35 44.4 L-37.35 44.4" fill="#0b0b0b" fill-rule="evenodd" stroke="none"/>
    <path d="M36.0 28.6 Q36.0 29.1 35.95 30.1 35.95 30.15 35.95 30.2 35.9 30.25 35.9 30.3 35.9 30.35 35.85 30.4 35.85 30.45 35.8 30.45 35.75 30.5 35.75 30.5 35.7 30.55 35.65 30.55 35.6 30.55 35.6 30.55 35.55 30.55 35.5 30.55 35.3 30.5 35.1 30.45 34.9 30.4 34.7 30.35 34.5 30.3 34.3 30.25 34.1 30.15 33.9 30.1 33.75 30.0 33.55 29.9 33.35 29.8 33.2 29.7 33.0 29.6 32.85 29.45 32.7 29.35 32.5 29.2 32.45 29.15 32.4 29.05 32.35 29.0 32.3 28.95 32.25 28.85 32.2 28.8 32.15 28.7 32.1 28.65 32.05 28.55 32.05 28.5 32.0 28.4 32.0 28.3 31.95 28.25 31.95 28.15 31.95 28.05 31.9 27.95 31.9 27.85 31.9 27.7 31.95 27.6 31.95 27.5 32.0 27.4 32.05 27.3 32.1 27.2 32.15 27.15 32.25 27.05 32.3 27.0 32.4 26.95 32.5 26.9 32.6 26.85 32.7 26.8 32.8 26.8 32.9 26.8 32.95 26.8 33.0 26.8 33.05 26.8 33.1 26.8 33.15 26.8 33.25 26.8 33.3 26.8 33.35 26.8 33.4 26.85 33.45 26.85 33.5 26.85 33.55 26.9 33.6 26.9 33.65 26.9 33.7 26.95 33.75 26.95 33.8 27.0 33.8 27.0 33.85 27.0 33.9 27.0 33.9 27.0 33.95 27.0 33.95 27.0 34.0 26.95 34.0 26.9 34.05 26.85 34.05 26.75 34.1 26.7 34.15 26.65 34.15 26.55 34.2 26.5 34.25 26.45 34.3 26.4 34.35 26.35 34.4 26.3 34.45 26.3 34.55 26.25 34.6 26.2 34.65 26.2 34.75 26.2 34.8 26.15 34.9 26.15 35.0 26.15 35.05 26.15 35.1 26.2 35.2 26.2 35.25 26.25 35.3 26.3 35.4 26.3 35.45 26.35 35.5 26.4 35.55 26.45 35.6 26.5 35.65 26.6 35.7 26.65 35.75 26.7 35.75 26.8 35.8 26.85 35.85 26.9 35.85 27.0 35.9 27.1 35.9 27.15 35.95 27.25 35.95 27.35 35.95 27.4 36.0 27.5 36.0 27.65 36.0 27.75 36.0 27.85 36.0 28.0 36.0 28.1 36.0 28.25 36.0 28.4 36.0 28.6 L36.0 28.6 M34.1 27.95 Q34.2 27.95 34.2 27.95 34.2 27.95 34.15 27.9 34.1 27.85 34.05 27.8 33.95 27.75 33.9 27.7 33.85 27.65 33.75 27.6 33.7 27.55 33.65 27.55 33.55 27.5 33.5 27.5 33.4 27.5 33.35 27.45 33.25 27.45 33.2 27.45 33.1 27.45 33.0 27.5 32.95 27.5 32.9 27.55 32.8 27.55 32.75 27.6 32.7 27.65 32.7 27.7 32.65 27.75 32.6 27.8 32.6 27.85 32.55 27.9 32.55 28.0 32.55 28.05 32.55 28.1 32.55 28.2 32.55 28.25 32.6 28.35 32.65 28.45 32.8 28.65 32.9 28.8 33.05 28.95 33.2 29.1 33.35 29.2 33.5 29.35 33.65 29.45 33.8 29.5 34.0 29.6 34.15 29.7 34.3 29.75 34.45 29.8 34.65 29.9 34.8 29.95 35.0 30.0 35.05 30.0 35.35 30.1 35.4 30.1 35.45 30.1 35.45 30.1 35.5 30.1 35.5 30.05 35.5 30.05 35.5 30.0 35.5 29.95 35.5 29.95 35.5 29.9 35.55 29.75 35.55 29.6 35.6 29.45 35.6 29.3 35.6 29.15 35.6 29.0 35.6 28.9 35.6 28.75 35.6 28.6 35.6 28.45 35.6 28.3 35.55 28.15 35.55 28.0 35.5 27.85 35.5 27.7 35.45 27.55 35.45 27.5 35.45 27.5 35.45 27.45 35.4 27.4 35.4 27.4 35.4 27.35 35.4 27.3 35.4 27.3 35.35 27.25 35.35 27.25 35.35 27.2 35.3 27.15 35.3 27.15 35.3 27.1 35.25 27.1 35.25 27.05 35.2 27.0 35.15 26.95 35.1 26.9 35.05 26.85 34.95 26.8 34.9 26.8 34.85 26.8 34.8 26.8 34.7 26.8 34.65 26.8 34.6 26.8 34.55 26.85 34.5 26.9 34.45 26.95 34.4 27.0 34.4 27.05 34.35 27.1 34.35 27.15 34.35 27.25 34.3 27.3 34.3 27.35 34.3 27.4 34.3 27.45 34.3 27.55 34.3 27.6 34.3 27.65 34.3 27.75 34.3 27.8 34.3 27.85 34.3 27.95 34.3 28.0 34.3 28.1 34.35 28.0 34.35 28.0 34.4 27.95 34.45 27.9 34.45 27.85 34.5 27.8 34.55 27.75 34.55 27.75 34.6 27.7 34.65 27.7 34.7 27.65 34.7 27.65 34.75 27.65 34.8 27.65 34.85 27.65 34.9 27.65 34.95 27.65 35.0 27.7 35.05 27.75 35.1 27.75 35.15 27.8 35.15 27.85 35.2 27.9 35.25 27.95 35.25 28.0 35.25 28.05 35.3 28.1 35.3 28.15 35.3 28.2 35.3 28.25 35.35 28.3 35.35 28.4 35.35 28.45 35.35 28.55 35.35 28.6 35.35 28.65 35.35 28.75 35.35 28.8 35.35 28.85 35.35 28.95 35.35 28.8 35.3 29.1 35.3 29.15 35.3 29.2 35.3 29.3 35.3 29.35 35.3 29.45 35.3 29.5 35.3 29.55 35.3 29.6 35.25 29.65 35.25 29.65 35.2 29.7 35.15 29.7 35.1 29.7 35.05 29.7 34.95 29.7 34.85 29.65 34.75 29.65 34.65 29.6 34.55 29.6 34.5 29.55 34.4 29.5 34.3 29.5 34.2 29.45 34.15 29.4 34.05 29.35 33.95 29.3 33.9 29.25 33.8 29.15 33.7 29.1 33.65 29.05 33.6 29.0 33.6 28.95 33.55 28.9 33.5 28.85 33.5 28.8 33.45 28.75 33.45 28.7 33.4 28.65 33.4 28.6 33.4 28.55 33.4 28.5 33.4 28.45 33.4 28.4 33.4 28.35 33.45 28.25 33.45 28.2 33.5 28.15 33.5 28.1 33.55 28.05 33.6 28.05 33.6 28.0 33.65 28.0 33.7 27.95 33.75 27.95 33.8 27.95 33.85 27.95 33.9 27.95 33.95 27.95 33.95 27.95 34.05 27.95 34.05 27.95 34.1 27.95 L34.1 27.95 M34.5 28.45 Q34.15 28.3 34.1 28.25 34.05 28.25 34.0 28.25 34.0 28.25 33.95 28.25 33.9 28.25 33.85 28.25 33.85 28.3 33.8 28.3 33.75 28.35 33.75 28.4 33.7 28.45 33.7 28.5 33.7 28.55 33.7 28.55 33.7 28.6 33.7 28.65 33.75 28.7 33.75 28.75 33.8 28.75 33.8 28.8 33.8 28.85 33.85 28.85 33.85 28.9 33.9 28.9 33.9 28.95 33.95 28.95 33.95 29.0 34.0 29.0 34.0 29.05 34.05 29.05 34.05 29.1 34.1 29.1 34.1 29.1 34.15 29.15 34.15 29.15 34.2 29.15 34.25 29.2 34.3 29.2 34.3 29.2 34.4 29.3 34.5 29.35 34.55 29.35 34.6 29.4 34.65 29.4 34.7 29.45 34.75 29.45 34.8 29.5 34.85 29.5 34.9 29.5 34.95 29.5 35.0 29.45 35.05 29.45 35.1 29.4 35.1 29.35 35.15 29.3 35.15 29.25 35.15 29.2 35.2 29.15 35.2 29.05 35.2 29.0 35.15 28.95 35.15 28.85 35.15 28.8 35.15 28.7 35.15 28.7 35.1 28.55 35.1 28.5 35.1 28.45 35.1 28.4 35.1 28.35 35.1 28.3 35.05 28.25 35.05 28.2 35.05 28.2 35.05 28.15 35.0 28.1 35.0 28.05 34.95 28.05 34.95 28.0 34.9 28.0 34.85 27.95 34.85 27.95 34.8 27.95 34.75 27.95 34.7 27.95 34.65 27.95 34.65 28.0 34.6 28.0 34.6 28.05 34.55 28.05 34.55 28.1 34.55 28.15 34.55 28.15 34.55 28.2 34.55 28.25 34.55 28.3 34.55 28.35 34.5 28.4 34.5 28.4 34.5 28.45 L34.5 28.45" fill="#0b0b0b" fill-rule="evenodd" stroke="none"/>
    <path d="M-22.35 24.8 Q-22.35 23.85 -23.05 23.1 -23.75 22.4 -24.75 22.4 -25.75 22.4 -26.45 23.1 -27.15 23.85 -27.15 24.8 -27.15 25.8 -26.45 26.55 -25.75 27.25 -24.75 27.25 -23.75 27.25 -23.05 26.55 -22.35 25.8 -22.35 24.8 L-22.35 24.8" fill="#0b0b0b" fill-opacity="0.4392157" fill-rule="evenodd" stroke="none"/>
    <path d="M-9.05 35.5 Q-9.05 35.15 -9.35 34.85 -9.65 34.6 -10.1 34.6 -10.55 34.6 -10.85 34.85 -11.15 35.15 -11.15 35.5 -11.15 35.9 -10.85 36.15 -10.55 36.4 -10.1 36.4 -9.65 36.4 -9.35 36.15 -9.05 35.9 -9.05 35.5 L-9.05 35.5" fill="#0b0b0b" fill-opacity="0.4392157" fill-rule="evenodd" stroke="none"/>
    <path d="M17.35 63.2 Q17.35 62.5 16.8 62.05 16.25 61.6 15.5 61.6 14.75 61.6 14.2 62.05 13.65 62.5 13.65 63.2 13.65 63.85 14.2 64.3 14.75 64.75 15.5 64.75 16.25 64.75 16.8 64.3 17.35 63.85 17.35 63.2 L17.35 63.2" fill="#0b0b0b" fill-opacity="0.18039216" fill-rule="evenodd" stroke="none"/>
    <path d="M-43.7 52.65 Q-43.7 51.65 -44.4 50.95 -45.1 50.25 -46.1 50.25 -47.1 50.25 -47.8 50.95 -48.5 51.65 -48.5 52.65 -48.5 53.65 -47.8 54.35 -47.1 55.1 -46.1 55.1 -45.1 55.1 -44.4 54.35 -43.7 53.65 -43.7 52.65 L-43.7 52.65" fill="#0b0b0b" fill-opacity="0.5686275" fill-rule="evenodd" stroke="none"/>
    <path d="M-17.9 43.05 Q-17.9 43.0 -17.9 42.9 -17.9 42.85 -17.9 42.75 -17.95 42.6 -17.95 42.5 -18.0 42.35 -18.0 42.2 -18.05 42.05 -18.15 41.95 -18.2 41.8 -18.3 41.65 -18.35 41.5 -18.5 41.4 -18.6 41.25 -18.75 41.2 -18.9 41.1 -19.0 41.05 -19.15 41.0 -19.3 41.0 -19.45 40.95 -19.6 40.95 -19.75 40.95 -19.9 41.0 -20.05 41.0 -20.2 41.05 -20.35 41.1 -20.55 41.1 -20.7 41.15 -20.85 41.2 -21.0 41.25 -21.2 41.35 -21.35 41.4 -21.5 41.45 -21.65 41.5 -21.8 41.55 -21.95 41.65 -22.05 41.7 -22.2 41.75 -22.3 41.85 -22.45 41.9 -22.55 41.95 -22.65 42.0 -22.75 42.1 -22.85 42.15 -22.95 42.2 -23.0 42.25 -23.1 42.35 -23.05 42.2 -23.05 42.0 -23.05 41.85 -23.05 41.7 -23.05 41.5 -23.1 41.35 -23.1 41.2 -23.15 41.05 -23.2 40.9 -23.25 40.75 -23.35 40.65 -23.4 40.5 -23.5 40.4 -23.6 40.25 -23.7 40.15 -23.85 40.05 -24.0 39.9 -24.2 39.8 -24.4 39.75 -24.6 39.7 -24.8 39.65 -25.0 39.65 -25.2 39.65 -25.4 39.65 -25.6 39.7 -25.8 39.75 -26.0 39.8 -26.15 39.9 -26.35 39.95 -26.5 40.05 -26.65 40.15 -26.75 40.3 -26.85 40.4 -26.95 40.55 -27.05 40.65 -27.15 40.8 -27.2 40.9 -27.25 41.05 -27.3 41.2 -27.35 41.4 -27.35 41.55 -27.4 41.7 -27.4 41.85 -27.4 42.05 -27.4 42.2 -27.4 42.45 -27.45 42.55 -27.45 42.85 -27.45 43.45 -26.9 46.1 -26.8 46.45 -26.75 46.75 -26.7 47.1 -26.6 47.35 -26.55 47.65 -26.5 47.9 -26.4 48.15 -26.35 48.4 -26.3 48.6 -26.25 48.8 -26.15 49.0 -26.1 49.15 -26.05 49.35 -25.95 49.45 -25.9 49.6 -25.8 49.7 -25.8 49.7 -25.8 49.75 -25.8 49.7 -25.75 49.8 -25.75 49.8 -25.7 49.85 -25.7 49.9 -25.65 49.95 -25.6 50.0 -25.6 50.05 -25.55 50.1 -25.55 50.15 -25.5 50.25 -25.45 50.3 -25.45 50.35 -25.4 50.45 -25.4 50.5 -25.4 50.55 -25.35 50.6 -25.35 50.65 -25.35 50.65 -25.35 50.7 -25.35 50.75 -25.3 50.8 -25.3 50.8 -25.3 50.85 -25.3 50.9 -25.3 50.9 -25.3 50.95 -25.3 50.95 -25.3 51.0 -25.3 51.0 -25.15 50.95 -25.0 50.9 -24.8 50.85 -24.65 50.8 -24.5 50.7 -24.3 50.65 -24.1 50.6 -23.95 50.5 -23.75 50.4 -23.55 50.3 -23.35 50.2 -23.15 50.1 -22.9 49.95 -22.7 49.85 -22.5 49.7 -22.3 49.55 -21.5 48.95 -19.5 46.2 -19.25 45.85 -19.05 45.55 -18.8 45.25 -18.65 45.0 -18.5 44.75 -18.35 44.55 -18.25 44.35 -18.15 44.15 -18.05 44.0 -18.0 43.85 -17.95 43.7 -17.95 43.55 -17.9 43.45 -17.9 43.3 -17.9 43.2 -17.9 43.05 L-17.9 43.05 M-21.65 46.05 Q-21.7 46.1 -21.7 46.2 -21.75 46.25 -21.8 46.3 -21.85 46.4 -21.85 46.45 -21.9 46.5 -21.95 46.55 -22.0 46.65 -22.05 46.7 -22.1 46.75 -22.15 46.8 -22.2 46.9 -22.25 46.95 -22.3 47.0 -22.35 47.05 -22.4 47.1 -22.45 47.15 -22.5 47.2 -22.55 47.25 -22.6 47.3 -22.7 47.35 -22.75 47.4 -22.8 47.45 -22.85 47.5 -22.9 47.55 -22.95 47.6 -23.05 47.65 -23.1 47.7 -23.15 47.75 -23.25 47.8 -23.3 47.85 -23.35 47.9 -23.4 47.9 -23.45 47.95 -23.5 47.95 -23.6 48.0 -23.65 48.0 -23.7 48.05 -23.75 48.05 -23.85 48.05 -23.9 48.05 -23.95 48.05 -24.05 48.05 -24.1 48.05 -24.15 48.05 -24.2 48.0 -24.25 47.95 -24.3 47.95 -24.35 47.9 -24.4 47.85 -24.4 47.8 -24.45 47.8 -24.5 47.75 -24.5 47.7 -24.55 47.65 -24.55 47.6 -24.6 47.55 -24.6 47.5 -24.6 47.4 -24.65 47.35 -24.65 47.3 -24.65 47.25 -24.65 47.2 -24.9 46.7 -25.0 46.35 -25.05 46.2 -25.1 46.05 -25.2 45.9 -25.2 45.7 -25.3 45.55 -25.3 45.35 -25.35 45.2 -25.4 45.0 -25.4 44.85 -25.4 44.65 -25.4 44.5 -25.35 44.35 -25.3 44.15 -25.2 44.05 -25.1 43.9 -25.0 43.75 -24.9 43.7 -24.85 43.65 -24.75 43.6 -24.65 43.55 -24.55 43.55 -24.45 43.55 -24.35 43.5 -24.25 43.5 -24.15 43.5 -24.05 43.55 -23.95 43.55 -23.85 43.6 -23.75 43.6 -23.7 43.65 -23.6 43.7 -23.5 43.75 -23.45 43.8 -23.4 43.85 -23.4 43.85 -23.35 43.9 -23.3 43.95 -23.3 44.0 -23.25 44.05 -23.2 44.1 -23.2 44.15 -23.2 44.2 -23.15 44.25 -23.15 44.3 -23.1 44.35 -23.1 44.4 -23.1 44.45 -23.1 44.5 -23.1 44.45 -23.05 44.45 -23.05 44.4 -23.0 44.4 -23.0 44.35 -23.0 44.3 -22.95 44.3 -22.95 44.25 -22.9 44.25 -22.9 44.2 -22.85 44.2 -22.85 44.15 -22.85 44.15 -22.8 44.1 -22.8 44.1 -22.75 44.05 -22.65 44.0 -22.6 43.95 -22.5 43.9 -22.4 43.9 -22.3 43.85 -22.2 43.85 -22.1 43.85 -22.0 43.85 -21.9 43.9 -21.85 43.95 -21.75 43.95 -21.7 44.05 -21.6 44.1 -21.55 44.15 -21.5 44.25 -21.45 44.35 -21.4 44.45 -21.4 44.55 -21.35 44.65 -21.35 44.75 -21.35 44.85 -21.35 45.0 -21.35 45.1 -21.4 45.2 -21.4 45.3 -21.4 45.4 -21.45 45.55 -21.5 45.65 -21.5 45.75 -21.55 45.85 -21.6 45.95 -21.65 46.05 L-21.65 46.05" fill="#0b0b0b" fill-opacity="0.5294118" fill-rule="evenodd" stroke="none"/>
    <path d="M7.65 51.35 Q7.55 51.35 7.45 51.3 7.35 51.25 7.25 51.15 7.2 51.1 7.1 51.0 7.05 50.95 6.95 50.8 7.9 52.15 6.8 50.6 6.7 50.45 6.6 50.35 6.5 50.2 6.4 50.05 6.25 49.9 6.1 49.75 6.25 49.9 5.95 49.6 5.85 49.55 5.75 49.45 5.65 49.4 5.55 49.35 5.45 49.25 5.35 49.2 5.25 49.15 5.15 49.1 5.05 49.05 4.95 49.0 4.8 48.95 4.7 48.9 4.55 48.9 4.45 48.9 4.3 48.9 4.2 48.9 4.05 48.9 3.9 48.9 3.8 48.95 3.65 49.0 3.55 49.0 3.4 49.05 3.3 49.1 3.2 49.2 3.1 49.25 3.0 49.35 2.9 49.4 2.85 49.5 2.8 49.6 2.75 49.7 2.75 49.75 2.75 49.8 2.7 49.8 2.7 49.85 2.7 49.9 2.7 49.95 2.75 50.0 2.75 50.1 2.75 50.15 2.75 50.25 2.8 50.3 2.8 50.4 2.8 50.45 2.85 50.55 2.85 50.6 2.9 50.75 2.95 50.9 2.95 51.0 3.0 51.1 3.05 51.2 3.05 51.25 3.1 51.35 3.1 51.4 3.15 51.5 3.15 51.55 3.15 51.6 3.2 51.65 3.2 51.7 3.25 51.75 3.25 51.85 3.25 51.9 3.3 52.0 3.3 52.1 3.3 53.45 3.3 53.65 3.3 53.75 3.3 53.9 3.3 54.0 3.3 54.1 3.35 54.2 3.35 54.25 3.35 54.3 3.35 54.4 3.35 54.4 3.35 54.45 3.35 54.5 3.4 54.55 3.4 54.55 3.4 54.6 3.45 54.65 3.5 54.7 3.55 54.8 3.6 54.85 3.7 54.9 3.75 54.95 3.8 55.0 3.9 55.0 3.95 55.05 4.05 55.1 4.1 55.1 4.2 55.15 4.25 55.15 4.35 55.15 4.4 55.2 4.45 55.2 4.55 55.2 4.7 55.25 4.85 55.25 5.0 55.25 5.15 55.25 5.25 55.25 5.4 55.25 5.5 55.2 5.65 55.2 5.75 55.15 5.85 55.15 5.9 55.1 6.0 55.1 6.05 55.05 6.1 55.05 6.15 55.05 6.2 55.0 6.3 54.95 6.35 54.9 6.45 54.9 6.5 54.85 6.55 54.8 6.65 54.75 6.7 54.7 6.8 54.65 6.9 54.55 6.95 54.5 7.05 54.45 7.15 54.35 7.25 54.25 7.4 54.15 7.6 54.05 7.75 53.95 7.85 53.9 7.9 53.85 7.95 53.85 8.0 53.8 8.05 53.75 8.1 53.75 8.2 53.7 8.2 53.7 8.25 53.65 8.3 53.65 8.35 53.65 8.4 53.65 8.45 53.65 8.5 53.65 8.55 53.65 8.6 53.65 8.65 53.65 8.7 53.65 8.8 53.7 8.85 53.7 8.9 53.7 8.95 53.75 9.0 53.8 9.05 53.8 9.1 53.85 9.15 53.9 9.2 53.9 9.25 53.95 9.3 54.0 9.35 54.05 9.4 54.1 9.45 54.15 9.5 54.2 9.55 54.25 9.6 54.25 9.6 54.3 9.65 54.35 9.65 54.35 9.7 54.4 9.7 54.45 9.75 54.5 9.75 54.5 9.8 54.55 9.8 54.55 9.85 54.6 9.9 54.65 9.95 54.7 10.0 54.75 10.05 54.8 10.05 54.85 10.1 54.85 10.15 54.9 10.2 54.95 10.25 55.0 10.3 55.05 10.35 55.1 10.45 55.15 10.5 55.2 10.55 55.25 10.65 55.3 10.7 55.3 10.8 55.35 10.9 55.4 11.0 55.45 11.1 55.5 11.05 55.45 11.1 55.5 11.15 55.5 11.2 55.5 11.25 55.5 11.3 55.55 11.35 55.55 11.4 55.55 11.45 55.55 11.55 55.6 11.6 55.6 11.65 55.6 11.75 55.6 11.8 55.6 11.9 55.6 11.85 55.6 12.0 55.6 12.05 55.6 12.05 55.6 12.1 55.55 12.15 55.55 12.2 55.55 12.25 55.55 12.3 55.55 12.35 55.5 12.4 55.5 12.45 55.45 12.5 55.45 12.55 55.4 12.6 55.4 12.65 55.35 12.75 55.3 12.8 55.25 12.85 55.15 12.9 55.1 12.95 55.05 13.0 54.95 13.05 54.85 13.1 54.8 13.1 54.7 13.15 54.6 13.15 54.55 13.15 54.45 13.15 54.35 13.15 54.3 13.15 54.2 13.15 54.15 13.15 54.1 13.15 54.05 13.15 54.0 13.1 53.95 13.1 53.9 13.1 53.85 13.1 53.85 13.05 53.8 13.05 53.75 13.0 53.7 13.0 53.7 13.0 53.65 12.95 53.6 12.95 53.55 12.95 53.5 12.95 53.4 12.9 53.25 13.05 52.3 13.05 52.15 13.1 52.1 13.1 52.0 13.1 51.95 13.1 51.85 13.1 51.75 13.1 51.7 13.15 51.6 13.15 51.55 13.15 51.45 13.15 51.35 13.15 51.3 13.1 51.2 13.1 51.15 13.1 51.05 13.1 51.0 13.0 50.6 13.05 50.9 13.05 50.8 13.05 50.75 13.0 50.65 12.95 50.55 12.95 50.45 12.9 50.4 12.85 50.3 12.8 50.2 12.7 50.1 12.65 50.0 12.55 49.95 12.45 49.85 12.35 49.8 12.25 49.75 12.15 49.7 12.0 49.65 11.9 49.65 11.75 49.65 11.65 49.6 11.5 49.65 11.4 49.65 11.3 49.7 11.2 49.7 11.15 49.75 11.05 49.75 11.0 49.8 10.95 49.8 10.9 49.85 10.85 49.85 10.85 49.9 10.8 49.9 10.75 49.95 10.7 50.0 10.65 50.0 10.65 50.05 10.6 50.05 10.55 50.1 10.55 50.15 10.5 50.15 10.45 50.2 10.45 50.25 10.4 50.25 10.4 50.3 10.35 50.35 10.35 50.35 10.3 50.4 10.2 50.5 10.15 50.6 10.1 50.7 10.05 50.8 10.0 50.9 9.95 51.0 9.95 51.0 9.9 51.15 9.85 51.2 9.85 51.25 9.8 51.3 9.8 51.35 9.75 51.4 9.7 51.45 9.65 51.45 9.6 51.5 9.55 51.5 9.5 51.5 9.5 51.5 9.45 51.5 9.4 51.5 9.35 51.5 9.35 51.5 9.3 51.5 9.35 51.5 9.2 51.45 9.15 51.45 9.1 51.4 9.0 51.4 8.95 51.35 8.85 51.35 8.75 51.35 8.65 51.35 8.55 51.3 8.45 51.3 8.35 51.3 8.3 51.3 8.25 51.3 8.2 51.3 8.1 51.35 8.9 51.2 8.0 51.35 7.95 51.35 7.9 51.35 7.85 51.35 7.8 51.35 7.7 51.35 7.65 51.35 L7.65 51.35" fill="#0b0b0b" fill-opacity="0.32941177" fill-rule="evenodd" stroke="none"/>
  </g>
</svg>
