<?xml version="1.0" encoding="UTF-8" standalone="no"?>
<svg xmlns:xlink="http://www.w3.org/1999/xlink" height="77.0px" width="183.15px" xmlns="http://www.w3.org/2000/svg">
  <g transform="matrix(1.0, 0.0, 0.0, 1.0, 91.6, 38.5)">
    <path d="M-38.7 23.45 Q-39.0 23.4 -39.25 23.35 -39.5 23.3 -39.7 23.25 -39.95 23.2 -40.1 23.1 -40.3 23.05 -40.45 22.95 -40.6 22.85 -40.75 22.8 -40.85 22.7 -41.0 22.6 -41.1 22.5 -41.2 22.4 -41.25 22.35 -41.35 22.25 -41.6 21.95 -41.75 21.55 -41.9 21.15 -41.95 20.75 -42.05 20.35 -42.05 19.9 -42.05 19.6 -42.05 19.1 -42.05 18.55 -42.05 18.3 -42.05 17.9 -42.1 17.6 -42.2 17.25 -42.3 17.0 -42.45 16.7 -42.75 16.55 -42.75 16.55 -42.8 16.55 -42.8 16.5 -42.85 16.5 -42.9 16.45 -42.95 16.45 -43.0 16.4 -43.1 16.4 -43.15 16.35 -43.25 16.35 -43.35 16.35 -43.4 16.3 -43.5 16.3 -43.6 16.35 -43.7 16.35 -43.8 16.4 -43.9 16.45 -43.95 16.5 -44.05 16.55 -44.1 16.6 -44.15 16.7 -44.2 16.8 -44.25 16.9 -44.3 17.05 -44.35 17.15 -44.4 17.3 -44.45 17.45 -44.5 17.65 -44.55 17.8 -44.6 18.05 -44.6 18.25 -44.65 18.5 -44.75 18.95 -44.8 19.45 -44.85 19.8 -44.9 20.2 -44.85 19.9 -45.0 20.85 -45.05 21.15 -45.05 21.35 -45.1 21.65 -45.15 21.8 -45.2 22.05 -45.25 22.2 -45.35 22.4 -45.4 22.6 -45.5 22.75 -45.6 22.95 -45.6 22.95 -45.7 23.05 -45.75 23.15 -45.8 23.25 -45.9 23.35 -45.95 23.45 -46.05 23.55 -46.15 23.65 -46.25 23.75 -46.35 23.8 -46.5 23.9 -46.6 23.95 -46.75 24.05 -46.85 24.05 -47.0 24.1 -47.1 24.1 -47.2 24.1 -47.35 24.05 -47.45 24.0 -47.55 23.9 -47.65 23.8 -47.75 23.7 -47.8 23.6 -47.9 23.5 -47.95 23.4 -48.05 23.25 -48.1 23.15 -48.15 23.0 -48.2 22.9 -48.25 22.8 -48.3 22.7 -48.35 22.6 -48.55 22.1 -48.65 21.6 -48.7 21.1 -48.75 20.65 -48.75 20.2 -48.7 19.75 -48.7 19.45 -48.6 18.9 -48.55 18.35 -48.55 18.1 -48.5 17.65 -48.55 17.3 -48.55 16.9 -48.7 16.6 -48.8 16.2 -49.05 15.85 -49.05 15.8 -49.1 15.75 -49.15 15.7 -49.2 15.65 -49.25 15.6 -49.3 15.5 -49.35 15.45 -49.4 15.35 -49.5 15.3 -49.55 15.25 -49.65 15.2 -49.75 15.15 -49.8 15.1 -49.9 15.05 -50.0 15.05 -50.1 15.05 -50.2 15.05 -50.3 15.1 -50.35 15.2 -50.45 15.25 -50.5 15.35 -50.6 15.45 -50.65 15.55 -50.7 15.7 -50.75 15.8 -50.8 15.95 -50.85 16.1 -50.9 16.2 -50.95 16.35 -51.0 16.5 -51.0 16.6 -51.05 16.75 -51.2 17.4 -51.3 17.75 -51.4 18.25 -51.5 18.65 -51.6 19.1 -51.7 19.5 -51.75 19.9 -51.8 20.3 -51.85 20.75 -51.9 21.15 -51.9 21.6 -51.9 22.0 -51.9 22.45 -51.85 22.9 -51.8 23.4 -51.75 23.9 -51.7 24.35 -51.6 24.8 -51.5 25.15 -51.4 25.55 -51.35 25.8 -51.25 26.25 -51.15 26.65 -51.1 26.85 -51.0 27.2 -50.95 27.5 -50.85 27.8 -50.85 28.15 -50.8 28.5 -50.8 28.9 -50.75 29.3 -50.8 29.75 -50.8 30.1 -50.85 30.45 -50.9 30.75 -50.95 31.0 -50.95 31.25 -51.05 31.45 -51.1 31.65 -51.15 31.8 -51.2 31.95 -51.3 32.05 -51.35 32.2 -51.45 32.25 -51.5 32.35 -51.6 32.4 -51.65 32.45 -51.75 32.5 -51.85 32.55 -52.0 32.6 -52.15 32.6 -52.3 32.6 -52.4 32.65 -52.55 32.6 -52.7 32.6 -52.85 32.55 -53.0 32.5 -53.1 32.45 -53.25 32.4 -53.4 32.35 -53.5 32.3 -53.65 32.2 -53.75 32.15 -53.85 32.05 -54.05 31.9 -54.25 31.7 -54.4 31.5 -54.55 31.25 -54.65 31.05 -54.75 30.8 -54.85 30.6 -54.9 30.35 -54.95 30.1 -55.0 29.85 -55.05 29.6 -55.1 29.35 -55.1 29.1 -55.15 28.85 -55.15 28.7 -55.15 28.35 -55.45 24.05 -55.65 21.8 -55.7 20.9 -55.7 20.6 -55.65 19.7 -55.5 18.75 -55.4 18.0 -55.25 17.15 -55.15 16.65 -55.0 15.8 -54.85 14.95 -54.8 14.65 -54.7 14.1 -54.65 13.7 -54.6 13.25 -54.65 12.95 -54.65 12.55 -54.8 12.3 -54.9 12.05 -55.15 11.85 -55.25 11.75 -55.4 11.7 -55.5 11.6 -55.65 11.55 -55.75 11.5 -55.9 11.45 -56.05 11.4 -56.15 11.4 -56.3 11.4 -56.45 11.4 -56.6 11.4 -56.7 11.4 -56.85 11.4 -56.95 11.45 -57.05 11.5 -57.15 11.55 -57.3 11.65 -57.4 11.75 -57.5 11.85 -57.55 12.0 -57.65 12.15 -57.7 12.35 -57.75 12.5 -57.8 12.75 -57.8 12.95 -57.85 13.2 -57.85 13.45 -57.85 13.75 -57.85 13.95 -57.85 14.3 -57.9 16.15 -57.85 15.0 -57.85 16.0 -57.9 16.5 -57.9 17.25 -57.9 17.8 -57.95 18.45 -57.95 18.95 -58.0 19.45 -58.05 19.85 -58.1 20.3 -58.15 20.6 -58.25 20.95 -58.35 21.2 -58.45 21.45 -58.55 21.6 -58.7 21.75 -58.85 21.8 -59.0 21.85 -59.1 21.85 -59.25 21.85 -59.4 21.85 -59.55 21.8 -59.7 21.75 -59.85 21.65 -60.0 21.6 -60.15 21.5 -60.3 21.4 -60.4 21.3 -60.5 21.2 -60.6 21.15 -60.7 21.05 -60.75 21.0 -60.85 20.95 -61.15 20.7 -61.4 20.35 -61.65 20.05 -61.8 19.7 -62.0 19.4 -62.15 19.0 -62.3 18.7 -62.4 18.3 -62.5 17.95 -62.55 17.55 -62.6 17.2 -62.65 16.8 -62.7 16.45 -62.75 16.05 -62.75 15.75 -62.8 15.35 -62.85 14.55 -62.85 13.75 -62.9 13.0 -62.9 12.2 -62.9 11.5 -62.9 10.85 -62.85 10.2 -62.85 9.55 -62.85 9.0 -62.8 8.45 -62.8 7.95 -62.75 7.5 -62.75 7.1 -62.75 6.7 -62.7 5.9 -62.7 6.05 -62.6 4.5 -62.65 3.4 -62.6 3.8 -62.7 1.15 -62.8 -0.65 -62.8 -3.15 -62.8 -6.45 -62.65 -8.95 -62.55 -10.4 -62.35 -12.35 -62.2 -14.15 -62.15 -15.1 -62.05 -16.65 -62.15 -18.7 -62.2 -19.55 -62.25 -20.45 -62.3 -21.05 -62.35 -21.95 -62.45 -22.95 -62.5 -23.25 -62.55 -23.95 -62.55 -24.5 -62.6 -25.1 -62.55 -25.65 -62.55 -26.25 -62.5 -26.8 -62.45 -27.4 -62.35 -28.0 -62.25 -28.65 -62.1 -29.3 -61.95 -29.95 -61.75 -30.55 -61.55 -31.1 -61.35 -31.65 -61.15 -32.15 -60.95 -32.65 -60.75 -33.05 -60.5 -33.5 -60.3 -33.85 -60.1 -34.2 -59.95 -34.5 -59.75 -34.8 -59.6 -35.05 -59.45 -35.3 -59.3 -35.45 -59.2 -35.6 -59.1 -35.7 -59.0 -35.85 -58.9 -36.0 -58.75 -36.2 -58.55 -36.4 -58.35 -36.65 -58.15 -36.9 -57.9 -37.15 -57.6 -37.45 -57.3 -37.7 -57.0 -38.0 -56.65 -38.3 -56.3 -38.65 -55.9 -38.95 -55.5 -39.25 -55.05 -39.55 -54.55 -39.9 -54.1 -40.2 -53.7 -40.45 -53.25 -40.65 -52.9 -40.8 -52.5 -41.0 -52.45 -41.0 -51.8 -41.3 -51.4 -41.45 -51.15 -41.6 -50.75 -41.75 -50.45 -41.95 -50.05 -42.2 -49.65 -42.45 -49.2 -42.75 -48.75 -43.15 -48.55 -43.3 -48.4 -43.45 -48.25 -43.6 -48.05 -43.75 -48.05 -43.8 -47.75 -44.05 -47.6 -44.2 -47.5 -44.3 -47.3 -44.45 -47.15 -44.6 -47.0 -44.75 -46.85 -44.9 -46.65 -45.05 -46.45 -45.2 -46.2 -45.35 -45.95 -45.5 -45.75 -45.65 -45.55 -45.75 -45.35 -45.9 -45.2 -46.0 -45.05 -46.1 -44.85 -46.2 -44.75 -46.25 -44.55 -46.35 -44.25 -46.5 -44.2 -46.55 -44.0 -46.65 -43.8 -46.75 -43.6 -46.9 -43.35 -47.0 -43.1 -47.15 -42.8 -47.35 -40.9 -48.55 -40.0 -49.35 -39.65 -49.7 -39.3 -50.0 -39.05 -50.3 -38.8 -50.6 -38.6 -50.85 -38.4 -51.15 -36.15 -54.1 -38.05 -51.6 -37.85 -51.85 -37.75 -51.95 -37.55 -52.15 -37.4 -52.3 -37.25 -52.4 -37.05 -52.5 -36.85 -52.6 -36.6 -52.7 -36.25 -52.8 -33.7 -52.25 -33.15 -52.15 -32.75 -52.05 -32.3 -51.95 -32.0 -51.85 -31.65 -51.75 -31.4 -51.7 -31.15 -51.6 -31.0 -51.55 -30.8 -51.45 -30.7 -51.4 -30.6 -51.35 -30.55 -51.25 -30.45 -51.2 -30.45 -51.15 -30.4 -51.1 -30.4 -51.0 -30.4 -51.0 -30.4 -50.95 -30.4 -50.95 -30.4 -50.9 -30.4 -50.85 -30.4 -50.85 -30.45 -50.8 -30.5 -50.75 -30.5 -50.7 -30.55 -50.6 -30.6 -50.5 -30.7 -50.4 -30.75 -50.3 -30.85 -50.2 -30.95 -50.05 -31.1 -49.9 -32.5 -48.0 -32.6 -47.85 -32.9 -47.35 -33.3 -46.4 -33.4 -46.2 -33.45 -46.0 -33.5 -45.8 -33.55 -45.65 -33.6 -45.5 -33.65 -45.35 -33.65 -45.25 -33.7 -45.1 -33.75 -44.95 -33.75 -44.9 -33.8 -44.8 -33.8 -44.7 -33.85 -44.6 -33.9 -44.5 -33.95 -44.4 -34.0 -44.3 -34.05 -44.15 -34.15 -44.05 -34.2 -43.9 -34.3 -43.8 -34.4 -43.65 -34.5 -43.55 -34.6 -43.45 -34.7 -43.3 -34.8 -43.2 -34.95 -43.1 -35.1 -42.95 -35.25 -42.85 -35.4 -42.7 -35.6 -42.55 -35.75 -42.45 -36.0 -42.25 -36.35 -42.0 -36.65 -41.8 -36.95 -41.6 -37.2 -41.45 -37.45 -41.3 -37.7 -41.15 -37.7 -41.15 -38.1 -40.95 -38.35 -40.8 -38.55 -40.7 -38.75 -40.6 -38.95 -40.45 -39.15 -40.3 -39.35 -40.15 -39.6 -39.95 -39.85 -39.75 -39.85 -39.75 -40.0 -39.6 -40.1 -39.5 -40.2 -39.4 -40.25 -39.3 -40.35 -39.25 -40.45 -39.15 -40.55 -39.05 -40.6 -38.95 -40.7 -38.85 -40.8 -38.7 -40.9 -38.6 -41.0 -38.5 -41.05 -38.35 -41.15 -38.2 -41.25 -38.05 -41.3 -37.95 -41.35 -37.85 -41.4 -37.75 -41.45 -37.65 -41.5 -37.55 -41.55 -37.45 -41.6 -37.35 -41.65 -37.2 -41.35 -37.95 -41.8 -36.95 -41.85 -36.75 -41.9 -36.65 -42.0 -36.45 -42.1 -36.25 -42.2 -36.05 -42.3 -35.8 -42.9 -34.55 -43.0 -34.4 -43.15 -34.25 -43.25 -34.1 -43.4 -34.0 -43.55 -33.9 -43.7 -33.8 -43.85 -33.75 -44.0 -33.7 -44.2 -33.6 -44.05 -33.7 -44.65 -33.45 -44.9 -33.4 -45.1 -33.3 -45.4 -33.2 -45.65 -33.05 -46.0 -32.9 -46.3 -32.75 -46.85 -32.45 -48.0 -31.7 -49.35 -30.75 -49.65 -30.35 -49.75 -30.25 -49.85 -30.1 -49.9 -29.95 -50.0 -29.85 -50.05 -29.7 -50.15 -29.6 -50.2 -29.45 -50.25 -29.35 -50.3 -29.2 -50.3 -29.1 -50.35 -28.95 -50.4 -28.85 -50.45 -28.7 -50.45 -28.6 -50.5 -28.5 -50.5 -28.35 -50.65 -27.85 -50.7 -25.55 -50.7 -24.95 -50.75 -24.5 -50.75 -24.6 -50.85 -23.75 -50.9 -23.2 -50.95 -22.6 -50.95 -22.4 -50.95 -22.25 -51.0 -22.05 -51.0 -21.85 -51.0 -21.65 -51.0 -21.45 -51.0 -21.2 -51.05 -20.95 -51.05 -20.65 -51.05 -20.4 -51.05 -20.1 -51.0 -19.8 -51.0 -19.5 -51.0 -19.2 -51.0 -18.85 -50.95 -18.55 -50.9 -17.95 -50.85 -17.5 -50.85 -17.45 -50.65 -16.45 -50.45 -15.45 -50.25 -14.25 -50.2 -13.8 -50.1 -13.3 -50.05 -13.05 -50.0 -12.6 -49.95 -12.2 -49.9 -12.05 -49.9 -11.75 -49.85 -11.6 -49.8 -11.45 -49.8 -11.3 -49.75 -11.15 -49.7 -11.05 -49.65 -10.95 -49.6 -10.85 -49.55 -10.75 -49.45 -10.65 -49.25 -10.4 -49.0 -10.15 -48.75 -9.95 -48.45 -9.8 -48.2 -9.65 -47.9 -9.5 -47.65 -9.4 -47.35 -9.3 -47.1 -9.25 -46.8 -9.15 -46.55 -9.1 -46.35 -9.1 -46.15 -9.05 -45.95 -9.05 -45.85 -9.0 -45.7 -9.0 -45.5 -9.0 -45.3 -9.0 -45.1 -9.0 -44.95 -9.0 -44.85 -9.0 -44.7 -9.05 -44.65 -9.05 -44.5 -9.1 -44.35 -9.1 -44.3 -9.1 -44.2 -9.15 -44.1 -9.15 -44.0 -9.15 -43.9 -9.15 -43.75 -9.15 -43.6 -9.1 -43.25 -9.05 -43.0 -8.9 -42.7 -8.75 -42.5 -8.55 -42.3 -8.4 -42.1 -8.15 -41.95 -8.0 -41.7 -7.7 -41.45 -7.35 -41.35 -7.25 -41.1 -6.95 -40.9 -6.75 -40.65 -6.5 -40.35 -6.35 -40.05 -6.1 -39.65 -5.95 -39.45 -5.85 -39.2 -5.8 -39.05 -5.75 -38.85 -5.7 -38.7 -5.65 -38.5 -5.65 -38.4 -5.65 -38.2 -5.65 -37.95 -5.65 -37.85 -5.65 -37.7 -5.65 -37.5 -5.6 -37.3 -5.6 -37.1 -5.55 -36.85 -5.5 -36.6 -5.4 -36.3 -5.3 -36.0 -5.15 -35.7 -5.05 -35.4 -4.85 -35.15 -4.7 -34.9 -4.55 -34.7 -4.35 -34.45 -4.15 -34.25 -3.95 -34.05 -3.75 -33.85 -3.6 -33.7 -3.4 -33.5 -3.2 -33.35 -3.0 -33.25 -2.8 -33.1 -2.6 -33.4 -2.05 -33.65 -1.5 -33.9 -0.9 -34.2 -0.3 -34.45 0.35 -34.7 0.95 -35.0 1.65 -35.25 2.3 -35.5 3.0 -35.75 3.7 -36.0 4.45 -36.25 5.2 -36.5 6.0 -36.7 6.75 -36.95 7.55 -37.15 8.4 -37.4 9.5 -37.65 10.6 -37.85 11.65 -38.05 12.7 -38.2 13.75 -38.35 14.75 -38.45 15.75 -38.55 16.7 -38.6 17.65 -38.65 18.55 -38.7 19.45 -38.75 20.3 -38.75 21.15 -38.75 21.95 -38.75 22.7 -38.7 23.45 L-38.7 23.45" fill="#cba082" fill-rule="evenodd" stroke="none"/>
  </g>
</svg>
