<?xml version="1.0" encoding="UTF-8" standalone="no"?>
<svg xmlns:xlink="http://www.w3.org/1999/xlink" height="103.75px" width="124.5px" xmlns="http://www.w3.org/2000/svg">
  <g transform="matrix(1.0, 0.0, 0.0, 1.0, 62.25, 51.85)">
    <path d="M0.65 54.9 Q0.75 55.0 0.85 55.05 1.0 55.15 1.1 55.2 1.25 55.3 1.35 55.4 1.5 55.5 1.65 55.6 1.8 55.7 1.95 55.8 2.15 55.9 2.3 56.0 2.5 56.1 2.7 56.2 2.9 56.3 3.1 56.4 3.4 56.55 3.7 56.65 4.05 56.75 4.4 56.85 4.7 56.95 5.1 57.0 5.45 57.1 5.9 57.15 6.3 57.2 6.8 57.3 7.2 57.35 7.8 57.4 8.25 57.45 8.9 57.5 9.35 57.5 10.2 57.6 10.6 57.65 10.9 57.65 11.25 57.65 11.5 57.7 11.8 57.7 12.05 57.7 12.3 57.7 12.5 57.7 12.7 57.65 12.9 57.65 13.1 57.65 13.3 57.6 13.5 57.55 13.65 57.5 13.85 57.45 14.05 57.4 14.25 57.35 14.45 57.25 14.6 57.2 14.8 57.1 14.95 57.05 15.15 56.95 15.3 56.9 15.45 56.8 15.6 56.7 15.7 56.65 15.85 56.55 15.95 56.45 16.1 56.4 16.2 56.3 16.3 56.25 16.4 56.15 16.55 56.2 16.75 56.25 16.9 56.25 17.05 56.3 17.2 56.35 17.35 56.4 17.5 56.4 17.65 56.45 17.8 56.45 17.9 56.5 18.05 56.5 18.15 56.55 18.25 56.55 18.4 56.55 18.5 56.6 18.6 56.6 19.35 56.7 20.1 56.8 20.8 56.85 21.5 56.9 22.1 56.9 22.75 56.9 23.3 56.9 23.85 56.85 24.3 56.8 24.8 56.75 25.2 56.7 25.6 56.65 25.9 56.6 26.2 56.5 26.35 56.5 26.55 56.45 27.15 56.3 27.65 56.15 27.9 55.85 28.15 55.55 28.4 55.25 28.65 54.95 28.9 54.6 29.2 54.3 29.5 53.9 29.8 53.55 30.1 53.2 30.4 52.8 30.7 52.4 31.05 52.0 31.35 51.6 31.7 51.15 32.05 50.75 32.35 50.3 33.3 49.05 34.25 47.8 35.1 46.65 35.95 45.5 36.75 44.45 37.5 43.4 38.2 42.4 38.85 41.5 39.45 40.65 40.0 39.8 40.45 39.15 40.9 38.45 41.25 37.9 41.6 37.4 41.85 37.05 42.1 36.65 46.05 30.5 48.75 25.55 50.05 23.1 51.0 21.1 57.9 6.15 52.6 17.55 53.75 15.1 55.4 11.9 56.3 10.2 59.1 4.05 59.25 3.7 59.3 3.6 59.4 3.3 59.5 3.1 59.65 2.8 59.75 2.55 59.85 2.25 59.95 2.0 60.05 1.65 60.2 1.35 60.3 1.05 60.4 0.7 60.5 0.35 60.6 0.0 60.7 -0.4 60.8 -0.8 60.85 -1.1 60.95 -1.4 61.0 -1.65 61.05 -1.95 61.1 -2.2 61.15 -2.5 61.2 -2.75 61.25 -3.0 61.25 -3.25 61.3 -3.5 61.3 -3.75 61.35 -4.0 61.35 -4.2 61.4 -4.5 61.4 -4.65 61.45 -4.95 61.5 -5.3 61.5 -5.3 61.5 -5.6 61.5 -5.85 61.55 -6.2 61.55 -6.55 61.55 -6.95 61.6 -7.4 61.6 -7.85 61.6 -8.35 61.6 -8.9 61.6 -9.45 61.6 -10.05 61.55 -10.65 61.55 -11.3 61.5 -11.9 61.5 -12.25 61.45 -12.6 61.4 -13.0 61.4 -13.4 61.35 -13.8 61.3 -14.2 61.25 -14.6 61.2 -15.0 61.15 -15.45 61.1 -15.9 61.0 -16.35 60.95 -16.8 60.85 -17.25 60.75 -17.75 60.7 -18.2 60.6 -18.7 60.6 -19.25 60.6 -20.3 60.7 -20.45 60.75 -20.6 60.85 -20.75 60.9 -20.95 61.0 -21.1 61.05 -21.3 61.15 -21.5 61.2 -21.7 61.3 -21.95 61.35 -22.15 61.45 -22.4 61.5 -22.6 61.6 -22.85 61.65 -23.1 61.7 -23.4 61.75 -23.65 61.8 -23.95 61.8 -24.25 61.85 -24.5 61.85 -24.8 61.85 -25.05 61.8 -25.35 61.8 -25.6 61.75 -25.9 61.7 -26.15 61.65 -26.55 61.6 -26.75 61.5 -27.25 61.4 -27.85 61.35 -28.1 61.25 -28.65 61.15 -29.15 61.0 -30.0 60.9 -30.8 60.8 -31.45 60.7 -32.15 60.65 -32.45 60.6 -33.25 60.5 -33.85 60.45 -34.15 60.4 -34.6 60.35 -34.95 60.25 -35.3 60.2 -35.65 60.1 -36.0 59.95 -36.35 59.8 -36.7 59.6 -37.1 59.5 -37.35 59.35 -37.55 59.25 -37.8 59.1 -38.0 59.0 -38.2 58.85 -38.4 58.7 -38.55 58.6 -38.75 58.45 -38.9 58.35 -39.1 58.2 -39.25 58.1 -39.4 58.0 -39.55 57.85 -39.65 57.75 -39.8 57.65 -39.9 57.25 -38.95 56.85 -38.0 56.45 -37.1 56.1 -36.25 55.75 -35.4 55.4 -34.55 55.05 -33.75 54.7 -32.95 54.4 -32.2 54.1 -31.45 53.8 -30.75 53.55 -30.1 53.25 -29.45 53.0 -28.8 52.75 -28.25 52.55 -27.65 49.7 -20.75 49.2 -19.7 47.85 -16.75 43.45 -8.8 41.45 -5.25 39.55 -1.85 36.5 3.5 33.85 8.4 31.3 13.15 29.1 16.95 22.85 27.85 18.8 33.7 18.5 34.1 18.3 34.45 18.0 34.9 17.7 35.25 17.4 35.7 17.05 36.15 16.7 36.65 16.4 37.15 16.0 37.65 15.6 38.15 15.2 38.7 14.8 39.25 14.35 39.85 13.9 40.45 13.4 41.05 12.9 41.65 12.05 42.7 11.2 43.75 10.35 44.75 9.5 45.7 8.7 46.65 7.9 47.55 7.1 48.4 6.3 49.25 5.55 50.05 4.75 50.85 4.05 51.6 3.3 52.3 2.65 53.0 1.95 53.65 1.3 54.3 0.65 54.9 L0.65 54.9" fill="#373736" fill-rule="evenodd" stroke="none"/>
  </g>
</svg>
