<?xml version="1.0" encoding="UTF-8" standalone="no"?>
<svg xmlns:xlink="http://www.w3.org/1999/xlink" height="105.75px" width="126.5px" xmlns="http://www.w3.org/2000/svg">
  <g transform="matrix(1.0, 0.0, 0.0, 1.0, 63.25, 52.85)">
    <path d="M21.15 57.5 Q18.45 57.55 17.7 57.5 17.6 57.5 17.5 57.5 17.4 57.45 17.3 57.45 17.25 57.45 17.15 57.4 17.05 57.4 16.95 57.35 16.85 57.35 16.75 57.3 16.6 57.3 16.55 57.25 16.45 57.25 16.35 57.2 16.25 57.2 16.15 57.2 16.1 57.2 16.05 57.2 16.0 57.15 15.95 57.2 15.9 57.2 15.85 57.2 15.7 57.35 15.5 57.45 15.35 57.6 15.15 57.7 14.95 57.8 14.8 57.9 14.6 58.0 14.4 58.05 14.2 58.1 14.0 58.15 13.8 58.2 13.6 58.25 13.35 58.3 13.15 58.3 12.95 58.3 12.7 58.3 8.75 58.15 8.15 58.1 7.95 58.1 7.8 58.1 7.6 58.05 7.45 58.05 7.25 58.05 7.05 58.0 6.9 58.0 6.7 57.95 6.55 57.95 6.35 57.9 6.2 57.9 6.0 57.85 5.85 57.8 5.65 57.8 5.5 57.75 5.3 57.7 5.05 57.65 4.8 57.55 4.55 57.5 4.3 57.45 4.05 57.35 3.8 57.3 3.55 57.2 3.35 57.15 3.1 57.05 2.85 57.0 2.6 56.9 2.35 56.85 2.1 56.75 1.9 56.65 1.65 56.55 1.4 56.5 1.2 56.4 1.05 56.35 0.85 56.25 0.7 56.15 0.55 56.05 0.45 55.9 0.3 55.8 0.25 55.65 0.15 55.55 0.1 55.4 0.0 55.25 0.0 55.05 0.0 54.9 0.0 54.7 0.05 54.55 0.1 54.35 0.15 54.25 0.2 54.2 0.2 54.1 0.3 54.05 0.35 53.95 0.4 53.9 0.45 53.8 0.55 53.75 0.6 53.7 0.65 53.6 0.75 53.55 0.8 53.45 0.85 53.45 0.95 53.35 1.05 53.25 1.1 53.2 1.35 53.0 2.0 52.45 2.6 52.0 2.9 51.7 3.05 51.6 3.15 51.45 3.3 51.35 3.4 51.25 3.55 51.1 3.65 51.0 3.8 50.9 3.95 50.75 4.05 50.65 4.2 50.5 4.3 50.4 4.4 50.3 4.55 50.15 4.65 50.05 4.8 49.9 4.9 49.75 5.1 49.5 5.35 49.3 5.55 49.05 5.75 48.85 5.95 48.6 6.15 48.4 6.4 48.15 6.6 47.9 6.8 47.7 7.0 47.45 7.2 47.2 7.45 47.0 7.65 46.75 7.85 46.5 8.05 46.25 8.25 46.05 9.65 44.4 11.2 42.45 12.25 41.1 13.95 38.8 15.5 36.7 16.6 35.15 17.7 33.6 19.1 31.55 19.25 31.3 19.4 31.1 19.55 30.85 19.75 30.6 19.9 30.35 20.05 30.15 20.2 29.9 20.35 29.65 20.5 29.45 20.65 29.2 20.8 28.95 20.95 28.7 21.1 28.5 21.25 28.25 21.45 28.0 21.6 27.8 22.0 27.2 22.7 26.0 23.45 24.8 23.8 24.25 25.5 21.4 26.55 19.7 27.05 18.9 27.85 17.45 28.8 15.85 29.15 15.2 31.1 11.95 32.05 10.3 33.85 7.2 35.15 4.9 37.0 1.65 38.4 -0.8 40.1 -3.95 41.6 -6.7 43.8 -10.8 44.85 -12.85 48.05 -19.05 49.05 -21.35 49.95 -23.3 52.8 -30.2 54.05 -33.3 55.1 -36.05 55.35 -36.75 55.75 -37.85 56.3 -39.6 56.35 -39.7 56.4 -39.8 56.4 -39.9 56.45 -40.0 56.5 -40.1 56.55 -40.2 56.6 -40.25 56.65 -40.35 56.7 -40.45 56.75 -40.5 56.85 -40.6 56.9 -40.65 57.0 -40.7 57.1 -40.75 57.2 -40.8 57.3 -40.85 57.4 -40.9 57.5 -40.9 57.55 -40.9 57.65 -40.95 57.75 -40.9 57.8 -40.9 57.9 -40.9 58.0 -40.9 58.1 -40.85 58.15 -40.85 58.25 -40.8 58.35 -40.8 58.4 -40.75 58.45 -40.7 58.5 -40.65 58.55 -40.6 58.6 -40.55 59.6 -38.75 59.9 -38.05 60.15 -37.45 60.35 -36.85 60.55 -36.25 60.75 -35.65 60.9 -35.05 61.05 -34.45 61.2 -33.85 61.35 -33.2 61.45 -32.6 61.55 -32.0 61.7 -31.4 61.75 -30.75 61.85 -30.15 61.9 -29.5 61.95 -28.9 62.0 -28.25 62.15 -26.65 62.25 -23.7 62.25 -23.5 62.25 -23.3 62.25 -23.1 62.25 -22.9 62.2 -22.7 62.2 -22.5 62.15 -22.3 62.1 -22.1 62.1 -21.9 62.0 -21.7 61.95 -21.5 61.9 -21.3 61.85 -21.1 61.75 -20.95 61.65 -20.75 61.55 -20.55 61.55 -20.5 61.5 -20.45 61.5 -20.45 61.5 -20.4 61.5 -20.35 61.5 -20.3 61.5 -20.25 61.5 -20.2 61.5 -20.15 61.5 -20.1 61.6 -19.75 61.7 -19.4 61.8 -19.05 61.9 -18.7 61.95 -18.35 62.05 -18.0 62.1 -17.65 62.15 -17.25 62.15 -16.9 62.2 -16.55 62.25 -16.2 62.25 -15.85 62.25 -15.5 62.25 -15.1 62.25 -14.75 62.25 -14.4 62.25 -8.85 62.1 -3.75 62.1 -3.55 62.1 -3.35 62.05 -3.15 62.05 -2.95 62.05 -2.75 62.0 -2.6 62.0 -2.4 61.95 -2.2 61.95 -2.0 61.9 -1.8 61.85 -1.6 61.8 -1.4 61.8 -1.2 61.75 -1.05 61.7 -0.85 61.65 -0.65 61.55 -0.35 60.55 2.05 60.2 2.8 59.35 4.75 58.6 6.45 58.15 7.45 56.95 10.1 54.85 14.5 52.7 19.2 51.25 22.05 51.05 22.5 50.8 22.95 50.6 23.4 50.35 23.85 50.15 24.3 49.9 24.75 49.7 25.2 49.45 25.65 49.25 26.1 49.0 26.5 48.8 26.95 48.55 27.4 48.3 27.85 48.1 28.3 47.85 28.75 47.6 29.15 47.4 29.5 47.2 29.9 47.0 30.25 46.8 30.6 46.6 31.0 46.4 31.35 46.2 31.7 46.0 32.05 45.8 32.45 45.6 32.8 45.4 33.15 45.2 33.5 44.95 33.85 44.75 34.25 44.55 34.6 44.35 34.95 42.95 37.2 40.85 40.4 38.65 43.6 37.2 45.65 36.75 46.25 34.3 49.35 32.45 51.75 31.5 52.9 29.85 54.85 28.35 56.4 28.3 56.45 28.25 56.5 28.2 56.55 28.1 56.6 28.05 56.65 28.0 56.65 27.95 56.7 27.85 56.75 27.8 56.75 27.7 56.8 27.65 56.85 27.55 56.9 27.55 56.9 27.4 56.95 27.3 57.0 27.25 57.0 27.1 57.05 26.9 57.15 26.75 57.2 26.6 57.25 26.45 57.3 26.25 57.3 26.1 57.35 25.9 57.4 25.75 57.4 25.55 57.4 25.4 57.45 25.2 57.45 25.05 57.45 24.85 57.45 24.7 57.45 24.5 57.45 23.6 57.45 21.15 57.45 21.15 57.5 21.15 57.5 L21.15 57.5 M1.8 54.8 Q5.3 55.85 5.9 56.0 6.1 56.05 6.3 56.05 6.45 56.1 6.65 56.15 6.85 56.15 7.05 56.2 7.25 56.25 7.4 56.25 7.6 56.25 7.8 56.3 8.0 56.3 8.2 56.35 8.4 56.35 8.6 56.35 8.75 56.4 8.95 56.4 9.7 56.45 12.95 56.5 13.1 56.5 13.2 56.5 13.35 56.5 13.45 56.45 13.6 56.45 13.7 56.4 13.8 56.4 13.95 56.35 14.05 56.3 14.15 56.25 14.3 56.2 14.4 56.15 14.5 56.05 14.6 56.0 14.7 55.9 14.8 55.85 15.65 55.15 15.9 54.9 16.05 54.75 16.15 54.65 16.3 54.55 16.4 54.4 16.55 54.3 16.65 54.15 16.8 54.05 16.9 53.9 17.05 53.8 17.15 53.65 17.25 53.55 17.4 53.4 17.5 53.25 17.65 53.15 17.75 53.0 17.85 52.9 18.6 52.1 19.95 50.5 22.1 48.0 22.55 47.35 23.5 46.2 25.6 43.3 26.6 41.95 27.95 40.0 28.25 39.55 28.9 38.65 29.5 37.7 29.8 37.3 32.8 33.0 32.9 32.85 33.9 31.25 35.8 27.65 37.05 25.35 39.75 20.15 42.9 14.1 44.25 11.35 45.25 9.4 47.35 5.2 48.05 3.75 49.4 1.0 50.75 -1.85 51.45 -3.2 52.0 -4.3 53.05 -6.55 54.1 -8.8 54.6 -9.9 55.5 -11.75 57.8 -16.6 60.0 -21.1 60.05 -21.2 60.15 -21.35 60.2 -21.55 60.3 -21.7 60.35 -21.85 60.4 -22.05 60.5 -22.2 60.55 -22.35 60.55 -22.55 60.6 -22.7 60.65 -22.9 60.65 -23.05 60.7 -23.25 60.7 -23.4 60.7 -23.6 60.7 -23.75 60.7 -23.95 60.45 -28.3 60.35 -29.05 60.3 -29.55 60.25 -30.1 60.2 -30.6 60.1 -31.1 60.05 -31.65 59.95 -32.15 59.85 -32.65 59.75 -33.15 59.65 -33.65 59.5 -34.2 59.35 -34.7 59.25 -35.2 59.1 -35.7 58.9 -36.2 58.75 -36.7 58.55 -37.15 58.5 -37.35 57.85 -38.8 57.7 -38.55 57.65 -38.45 56.5 -35.25 56.15 -34.35 54.9 -31.05 53.65 -28.05 51.55 -22.85 50.5 -20.55 49.9 -19.3 47.25 -14.0 45.85 -11.2 44.5 -8.7 43.55 -6.8 41.35 -2.8 41.15 -2.45 39.75 0.1 38.75 1.85 38.15 3.0 38.0 3.3 36.25 6.3 35.1 8.3 34.35 9.6 34.3 9.7 31.5 14.5 31.05 15.25 29.65 17.6 28.5 19.55 27.8 20.7 27.55 21.1 27.35 21.5 27.1 21.9 26.85 22.3 26.65 22.7 26.4 23.05 26.15 23.45 25.9 23.85 25.7 24.25 25.45 24.65 25.2 25.05 24.95 25.45 24.7 25.8 24.5 26.2 24.25 26.6 24.0 27.0 23.05 28.5 21.1 31.45 20.95 31.7 20.75 31.95 20.6 32.25 20.4 32.5 20.25 32.75 20.05 33.0 19.9 33.25 19.75 33.5 19.55 33.8 19.4 34.05 19.2 34.3 19.05 34.55 18.85 34.8 18.7 35.05 18.5 35.3 18.35 35.55 18.2 35.8 18.0 36.0 17.85 36.25 17.7 36.5 17.5 36.75 17.35 36.95 17.2 37.2 17.05 37.4 16.85 37.65 16.7 37.9 16.55 38.1 16.35 38.35 16.2 38.6 16.05 38.8 15.85 39.05 15.7 39.25 14.6 40.75 12.95 42.9 11.2 45.1 10.35 46.15 9.1 47.65 8.0 48.9 6.4 50.7 5.4 51.7 4.9 52.2 2.8 54.05 2.75 54.1 1.8 54.8 L1.8 54.8 M17.8 55.4 Q18.45 55.55 18.65 55.55 20.25 55.6 24.65 55.7 24.8 55.7 24.95 55.7 25.1 55.7 25.2 55.65 25.35 55.65 25.5 55.65 25.65 55.6 25.8 55.6 25.9 55.55 26.05 55.5 26.2 55.5 26.3 55.45 26.45 55.4 26.6 55.35 26.7 55.3 26.85 55.25 26.9 55.2 27.0 55.2 27.05 55.15 27.1 55.15 27.15 55.1 27.25 55.05 27.3 55.05 27.35 55.0 27.4 54.95 27.45 54.9 27.55 54.85 27.6 54.8 27.65 54.8 27.7 54.75 27.75 54.7 27.8 54.65 29.8 52.3 30.8 51.05 33.6 47.6 35.55 45.05 35.8 44.75 36.0 44.45 36.25 44.15 36.45 43.85 36.7 43.5 36.9 43.2 37.15 42.9 37.35 42.6 37.55 42.3 37.8 42.0 38.0 41.65 38.25 41.35 38.45 41.05 38.65 40.75 38.85 40.4 39.1 40.1 39.3 39.8 39.5 39.5 39.7 39.2 39.9 38.9 40.1 38.6 40.3 38.3 40.5 38.0 40.7 37.7 40.85 37.4 41.05 37.1 41.25 36.8 41.45 36.5 41.65 36.15 41.8 35.85 42.0 35.55 42.2 35.25 45.35 30.0 46.6 27.65 48.05 25.0 50.55 19.75 53.0 14.8 55.55 9.25 56.25 7.75 57.45 5.05 58.75 2.1 59.3 0.85 59.45 0.55 59.55 0.3 59.65 0.05 59.75 -0.25 59.85 -0.5 59.95 -0.8 60.05 -1.05 60.15 -1.35 60.2 -1.65 60.3 -1.9 60.35 -2.2 60.4 -2.45 60.45 -2.75 60.5 -3.05 60.5 -3.35 60.55 -3.65 60.85 -10.55 60.6 -13.85 60.55 -14.7 60.25 -16.9 60.25 -16.95 60.05 -17.4 59.85 -17.1 59.8 -17.05 58.55 -14.4 57.35 -11.85 56.7 -10.5 55.45 -7.9 54.2 -5.2 53.55 -3.95 52.1 -0.95 49.5 4.45 49.2 5.05 47.85 7.8 46.85 9.8 46.2 11.1 45.95 11.6 43.15 17.0 43.0 17.35 42.85 17.65 42.65 18.0 42.5 18.3 42.35 18.65 42.15 18.95 42.0 19.3 41.85 19.6 41.7 19.95 41.5 20.25 41.35 20.6 41.2 20.9 41.0 21.25 40.85 21.55 40.7 21.9 40.5 22.2 40.3 22.55 40.1 22.95 39.95 23.3 39.75 23.7 39.55 24.05 39.35 24.4 39.15 24.8 38.95 25.15 38.8 25.5 38.6 25.9 38.4 26.25 38.2 26.6 38.0 27.0 37.8 27.35 37.6 27.7 37.4 28.1 35.5 31.7 34.75 32.9 34.1 34.0 32.05 37.05 31.6 37.7 30.7 38.95 29.8 40.2 29.4 40.8 29.1 41.2 28.1 42.65 27.3 43.75 26.85 44.45 26.75 44.6 25.65 46.05 24.95 47.05 24.45 47.65 23.7 48.6 22.25 50.35 20.8 52.15 19.5 53.65 19.5 53.65 17.8 55.4 L17.8 55.4" fill="#000000" fill-rule="evenodd" stroke="none"/>
  </g>
</svg>
