<?xml version="1.0" encoding="UTF-8" standalone="no"?>
<svg xmlns:xlink="http://www.w3.org/1999/xlink" height="63.65px" width="43.95px" xmlns="http://www.w3.org/2000/svg">
  <g transform="matrix(1.0, 0.0, 0.0, 1.0, 1.0, 1.0)">
    <path d="M31.05 47.45 Q31.0 47.65 31.0 47.8 30.95 47.95 30.9 48.15 30.85 48.3 30.8 48.45 30.7 48.6 30.65 48.75 30.55 48.85 30.45 49.0 30.35 49.15 30.25 49.25 30.15 49.35 30.0 49.45 29.85 49.55 29.7 49.6 29.6 49.65 29.5 49.7 29.4 49.75 29.25 49.8 29.15 49.8 29.05 49.85 28.95 49.9 28.85 49.95 28.7 49.95 28.6 50.0 28.5 50.0 28.4 50.05 28.3 50.1 28.15 50.1 28.05 50.15 27.95 50.15 27.8 50.2 27.6 50.2 27.45 50.2 27.3 50.2 27.1 50.2 26.95 50.2 26.8 50.15 26.65 50.15 26.5 50.1 26.3 50.05 26.15 50.0 26.0 49.95 25.9 49.9 25.7 49.8 24.15 49.25 25.4 49.7 25.25 49.65 24.45 49.3 24.3 49.55 24.15 49.8 23.95 50.05 23.8 50.25 23.6 50.5 23.4 50.65 23.2 50.85 22.95 51.0 22.75 51.2 22.5 51.3 22.25 51.45 22.0 51.55 21.75 51.6 21.5 51.65 21.2 51.7 20.9 51.7 20.6 51.7 20.3 51.65 20.0 51.65 19.75 51.55 19.5 51.5 19.25 51.35 19.0 51.25 18.8 51.1 18.6 50.95 18.4 50.75 18.2 50.55 18.05 50.35 17.9 50.1 17.75 49.85 17.6 49.6 17.5 49.3 16.0 49.95 15.7 50.0 15.4 50.1 15.15 50.15 14.85 50.2 14.55 50.2 14.3 50.2 14.05 50.2 13.75 50.15 13.5 50.1 13.25 50.05 13.0 49.95 12.75 49.85 12.5 49.75 12.25 49.6 12.05 49.45 11.8 49.3 11.55 49.1 11.5 49.05 11.45 49.0 11.35 48.9 11.35 48.85 11.3 48.75 11.25 48.7 11.2 48.6 11.15 48.5 11.1 48.4 11.05 48.3 11.05 48.2 11.0 48.05 10.95 47.95 10.9 47.8 10.9 47.65 10.85 47.45 10.6 47.55 10.35 47.6 10.1 47.65 9.85 47.65 9.6 47.65 9.35 47.65 9.1 47.65 8.85 47.6 8.6 47.6 8.4 47.5 8.15 47.45 7.95 47.35 7.7 47.25 7.5 47.1 7.25 47.0 7.05 46.8 6.8 46.65 6.65 46.45 6.45 46.25 6.35 46.05 6.2 45.85 6.15 45.65 6.05 45.45 6.0 45.2 5.95 44.95 5.95 44.7 5.95 44.5 6.0 44.25 6.0 44.0 6.1 43.7 6.15 43.45 6.2 43.2 6.15 43.2 5.6 43.3 5.3 43.4 5.1 43.45 4.95 43.5 4.85 43.5 4.7 43.5 4.6 43.5 4.45 43.5 4.35 43.45 4.2 43.45 4.1 43.4 4.0 43.35 3.85 43.3 3.75 43.25 3.65 43.2 3.55 43.15 3.4 43.1 3.3 43.05 3.2 42.95 3.05 42.85 2.9 42.7 2.8 42.6 2.65 42.45 2.55 42.35 2.45 42.2 2.35 42.05 2.3 41.9 2.2 41.7 2.15 41.55 2.1 41.4 2.1 41.2 2.05 41.05 2.05 40.85 2.0 40.7 2.0 40.5 2.0 40.4 2.0 40.25 2.05 40.15 2.05 40.05 2.1 39.95 2.15 39.8 2.15 39.7 2.2 39.6 2.25 39.5 2.3 39.35 2.3 39.35 2.4 39.1 2.45 39.0 2.45 38.9 2.5 38.75 2.55 38.65 2.6 38.5 2.7 38.25 2.9 37.85 2.9 37.9 2.55 37.8 1.8 37.65 1.1 37.5 0.7 37.4 0.55 37.35 0.45 37.35 0.3 37.3 0.2 37.25 0.05 37.2 -0.05 37.15 -0.15 37.05 -0.3 37.0 -0.4 36.95 -0.5 36.85 -0.6 36.8 -0.7 36.7 -0.8 36.6 -0.9 36.5 -0.95 36.4 -1.05 36.3 -1.1 36.2 -1.2 36.1 -1.25 36.0 -1.3 35.9 -1.35 35.8 -1.35 35.7 -1.4 35.6 -1.45 35.5 -1.45 35.35 -1.45 35.25 -1.45 35.15 -1.45 35.05 -1.45 34.9 -1.45 34.8 -1.4 34.7 -1.4 34.55 -1.35 34.35 -1.25 34.15 -1.15 33.95 -1.05 33.8 -0.95 33.65 -0.85 33.45 -0.75 33.3 -0.6 33.2 -0.45 33.05 -0.3 32.9 -0.15 32.8 0.0 32.65 0.15 32.55 0.35 32.45 0.5 32.35 0.7 32.25 0.85 32.2 1.15 32.0 0.1 31.1 -0.05 30.9 -0.2 30.75 -0.35 30.6 -0.45 30.45 -0.6 30.3 -0.7 30.1 -0.8 29.95 -0.9 29.8 -0.95 29.6 -1.05 29.4 -1.1 29.25 -1.15 29.05 -1.2 28.85 -1.25 28.65 -1.3 28.45 -1.3 28.25 -1.3 28.05 -1.3 27.95 -1.3 27.85 -1.3 27.7 -1.25 27.6 -1.25 27.5 -1.2 27.4 -1.15 27.3 -1.1 27.2 -1.05 27.1 -1.0 27.0 -0.95 26.9 -0.9 26.8 -0.8 26.7 -0.75 26.6 -0.7 26.55 -0.6 26.4 -0.5 26.25 -0.35 26.1 -0.2 25.95 -0.05 25.8 0.05 25.65 0.25 25.55 0.4 25.45 0.55 25.35 0.7 25.2 0.9 25.15 1.05 25.05 1.25 24.95 1.45 24.9 1.6 24.85 1.8 24.75 2.0 24.7 2.1 24.7 2.4 24.6 2.3 24.45 2.15 24.3 2.05 24.15 1.95 24.0 1.9 23.85 1.8 23.7 1.7 23.55 1.65 23.35 1.6 23.2 1.5 23.05 1.45 22.9 1.4 22.7 1.35 22.55 1.3 22.35 1.3 22.2 1.25 22.05 1.25 22.0 1.25 21.95 1.25 21.9 1.2 21.85 1.2 21.75 1.2 21.7 1.2 21.65 1.2 21.6 1.2 21.55 1.2 21.5 1.25 21.45 1.25 21.4 1.25 21.35 1.25 21.3 1.25 21.25 1.3 21.2 1.35 21.05 1.4 20.9 1.45 20.75 1.5 20.6 1.55 20.45 1.6 20.3 1.65 20.15 1.75 20.05 1.85 19.9 1.9 19.8 2.0 19.65 2.1 19.55 2.25 19.45 2.35 19.35 2.5 19.25 2.65 19.15 2.95 19.0 4.0 18.7 4.15 18.65 4.25 18.65 4.4 18.6 4.5 18.6 4.65 18.6 4.75 18.6 4.9 18.6 5.0 18.65 5.15 18.65 5.3 18.7 5.4 18.7 5.55 18.75 5.65 18.75 5.8 18.8 6.0 18.85 6.05 18.85 6.05 18.85 6.2 18.9 6.35 18.95 6.45 18.95 6.4 18.75 6.35 18.4 6.3 18.15 6.3 17.95 6.3 17.7 6.35 17.5 6.35 17.3 6.4 17.05 6.45 16.85 6.5 16.65 6.55 16.45 6.65 16.25 6.75 16.1 6.85 15.9 6.95 15.75 7.1 15.55 7.25 15.4 7.4 15.25 7.55 15.1 7.75 14.95 7.9 14.85 8.1 14.75 8.25 14.65 8.45 14.55 8.65 14.45 8.85 14.4 9.05 14.35 9.25 14.35 9.45 14.3 9.65 14.3 9.85 14.3 10.05 14.3 10.3 14.35 10.5 14.4 10.5 14.4 12.15 15.0 12.25 14.35 12.35 14.05 12.4 13.9 12.4 13.8 12.45 13.7 12.5 13.55 12.55 13.45 12.6 13.35 12.65 13.2 12.7 13.1 12.75 13.0 12.8 12.9 12.85 12.75 12.95 12.65 13.0 12.55 13.1 12.45 13.15 12.35 13.25 12.25 13.4 12.1 13.55 12.0 13.7 11.9 13.85 11.8 14.0 11.75 14.15 11.65 14.3 11.6 14.45 11.6 14.6 11.55 14.75 11.55 14.95 11.55 15.1 11.6 15.25 11.6 15.45 11.7 15.6 11.75 15.8 11.85 16.1 12.0 17.45 12.9 17.55 13.0 17.7 13.1 17.95 13.3 17.95 13.3 18.8 12.25 19.2 11.8 19.3 11.7 19.45 11.6 19.55 11.45 19.7 11.35 19.8 11.25 19.95 11.2 20.05 11.1 20.2 11.0 20.35 10.95 20.5 10.85 20.65 10.8 20.8 10.75 20.95 10.7 21.1 10.65 21.25 10.6 21.45 10.55 21.6 10.5 21.8 10.5 21.95 10.5 22.1 10.5 22.25 10.5 22.4 10.55 22.55 10.55 22.7 10.6 22.85 10.65 23.0 10.75 23.15 10.8 23.3 10.9 23.45 10.95 23.6 11.05 23.7 11.15 23.85 11.3 23.9 11.35 23.95 11.4 24.0 11.45 24.05 11.5 24.1 11.55 24.15 11.6 24.2 11.65 24.25 11.7 24.3 11.75 24.35 11.8 24.4 11.85 24.4 11.95 24.45 12.0 24.5 12.05 24.55 12.1 24.6 12.2 24.65 12.25 24.7 12.3 24.7 12.35 24.75 12.35 24.8 12.35 24.85 12.35 24.9 12.35 24.95 12.35 25.0 12.3 25.05 12.3 25.6 12.05 26.6 11.65 26.75 11.6 26.9 11.6 27.0 11.55 27.15 11.55 27.3 11.55 27.4 11.55 27.55 11.6 27.65 11.6 27.75 11.65 27.9 11.7 28.0 11.75 28.1 11.85 28.2 11.9 28.35 12.0 28.45 12.05 28.55 12.15 28.7 12.25 28.8 12.4 28.9 12.55 29.0 12.7 29.1 12.85 29.2 13.0 29.25 13.15 29.35 13.3 29.4 13.45 29.45 13.65 29.5 13.8 29.55 13.95 29.6 14.1 29.65 14.3 29.65 14.45 29.7 14.65 29.75 14.75 29.75 15.0 30.0 14.9 30.5 14.75 30.95 14.55 31.2 14.5 31.45 14.4 31.65 14.35 31.85 14.3 32.1 14.3 32.3 14.3 32.5 14.3 32.75 14.35 32.95 14.4 33.15 14.45 33.35 14.5 33.55 14.6 33.7 14.7 33.9 14.8 34.1 14.95 34.3 15.05 34.45 15.2 34.55 15.3 34.65 15.4 34.8 15.5 34.85 15.65 34.95 15.75 35.05 15.85 35.1 16.0 35.2 16.15 35.25 16.25 35.3 16.4 35.35 16.55 35.4 16.7 35.45 16.85 35.45 17.0 35.5 17.15 35.5 17.3 35.55 17.5 35.55 18.9 35.7 18.9 36.25 18.75 36.75 18.7 37.0 18.65 37.15 18.65 37.35 18.65 37.5 18.6 37.65 18.65 37.85 18.65 38.0 18.65 38.15 18.7 38.3 18.75 38.45 18.8 38.6 18.85 38.75 18.9 38.9 18.95 39.05 19.0 39.2 19.1 39.35 19.2 39.45 19.3 39.6 19.4 39.75 19.5 39.85 19.65 39.95 19.75 40.05 19.9 40.15 20.05 40.25 20.15 40.3 20.3 40.4 20.45 40.45 20.6 40.5 20.75 40.55 20.95 40.6 21.1 40.65 21.25 40.7 21.4 40.75 21.6 40.75 21.65 40.6 22.3 40.55 22.45 40.55 22.6 40.5 22.75 40.45 22.9 40.4 23.05 40.35 23.2 40.3 23.35 40.2 23.5 40.15 23.65 40.1 23.75 40.0 23.9 39.9 24.05 39.85 24.2 39.75 24.3 39.65 24.45 39.55 24.6 40.35 24.85 40.7 25.0 40.95 25.1 41.2 25.25 41.4 25.35 41.65 25.5 41.85 25.65 42.0 25.8 42.2 26.0 42.35 26.2 42.5 26.35 42.65 26.55 42.8 26.8 42.9 27.0 43.0 27.25 43.1 27.5 43.15 27.75 43.2 28.0 43.2 28.05 43.2 28.1 43.25 28.15 43.25 28.2 43.25 28.3 43.2 28.35 43.2 28.4 43.2 28.45 43.2 28.5 43.2 28.6 43.15 28.65 43.15 28.7 43.15 28.75 43.1 28.8 43.1 28.9 43.1 28.95 43.05 29.15 42.95 29.4 42.9 29.6 42.8 29.8 42.7 30.0 42.55 30.15 42.45 30.35 42.3 30.55 42.2 30.7 42.05 30.85 41.9 31.0 41.75 31.2 41.6 31.35 41.4 31.45 41.25 31.6 41.05 31.75 41.0 31.8 40.9 31.85 40.75 32.0 40.75 32.0 40.9 32.1 41.15 32.25 41.45 32.4 41.55 32.45 41.75 32.55 41.95 32.65 42.1 32.8 42.25 32.95 42.4 33.05 42.55 33.2 42.7 33.35 42.8 33.5 42.9 33.7 43.0 33.85 43.1 34.05 43.15 34.25 43.25 34.4 43.3 34.6 43.35 34.8 43.35 35.05 43.35 35.15 43.35 35.3 43.35 35.4 43.35 35.5 43.35 35.6 43.3 35.75 43.25 35.85 43.2 35.95 43.15 36.05 43.1 36.15 43.05 36.25 42.95 36.3 42.9 36.4 42.8 36.5 42.7 36.6 42.65 36.65 42.5 36.8 42.3 36.95 42.1 37.05 41.9 37.15 41.7 37.25 41.5 37.35 41.3 37.4 41.1 37.45 40.9 37.5 40.7 37.55 40.5 37.6 40.25 37.65 40.1 37.7 39.85 37.7 32.55 38.85 39.4 37.8 39.25 37.8 39.0 37.85 39.35 38.6 39.5 39.0 39.85 40.2 39.9 40.5 39.9 40.55 39.9 40.65 39.9 40.7 39.9 40.8 39.9 40.85 39.85 40.95 39.85 41.0 39.85 41.1 39.8 41.15 39.8 41.25 39.75 41.3 39.75 41.4 39.75 41.45 39.7 41.55 39.7 41.6 39.65 41.7 39.55 41.9 39.45 42.1 39.35 42.3 39.25 42.45 39.15 42.6 39.0 42.75 38.85 42.9 38.7 43.0 38.55 43.1 38.4 43.15 38.25 43.25 38.05 43.3 37.9 43.35 37.7 43.4 37.5 43.45 37.25 43.5 37.2 43.5 36.35 43.35 36.15 43.3 35.75 43.2 35.75 43.4 35.85 43.75 35.9 44.1 35.9 44.25 35.95 44.45 35.95 44.65 35.95 44.8 35.9 45.0 35.9 45.2 35.85 45.35 35.8 45.55 35.75 45.7 35.7 45.85 35.6 46.0 35.55 46.15 35.4 46.3 35.3 46.45 35.2 46.55 35.05 46.7 34.9 46.8 34.7 46.95 34.5 47.05 34.3 47.2 34.1 47.3 33.9 47.4 33.7 47.45 33.5 47.55 33.25 47.6 33.05 47.65 32.8 47.65 32.6 47.65 32.35 47.65 32.15 47.65 31.9 47.65 31.65 47.6 31.45 47.55 31.35 47.5 31.05 47.45 L31.05 47.45 M17.8 47.45 Q18.45 48.9 18.5 49.0 18.65 49.25 18.85 49.5 19.0 49.7 19.25 49.85 19.45 50.0 19.7 50.15 19.95 50.25 20.2 50.3 20.45 50.35 20.7 50.35 21.0 50.35 21.25 50.3 21.55 50.25 21.8 50.1 22.05 50.0 22.3 49.8 22.4 49.7 22.55 49.6 22.65 49.5 22.75 49.4 22.85 49.3 22.95 49.15 23.05 49.05 23.15 48.95 23.2 48.8 23.3 48.65 23.4 48.55 23.45 48.4 23.5 48.25 23.6 48.15 23.65 48.0 23.7 47.85 23.7 47.8 23.75 47.8 23.75 47.75 23.8 47.7 23.8 47.7 23.8 47.7 23.85 47.65 23.85 47.65 23.9 47.65 23.9 47.65 23.95 47.65 23.95 47.65 24.0 47.65 24.05 47.65 24.05 47.65 24.1 47.7 25.1 48.1 25.15 48.15 25.3 48.25 25.45 48.3 25.6 48.35 25.75 48.4 25.9 48.5 26.05 48.55 26.2 48.6 26.35 48.65 26.5 48.65 26.65 48.7 26.8 48.75 27.0 48.75 27.15 48.8 27.3 48.8 27.45 48.85 27.65 48.85 27.95 48.85 28.2 48.85 28.45 48.85 28.7 48.75 28.9 48.7 29.1 48.6 29.25 48.5 29.4 48.35 29.55 48.2 29.65 48.0 29.75 47.85 29.8 47.6 29.85 47.4 29.9 47.15 29.9 46.85 29.85 46.55 29.85 46.55 29.85 46.5 29.8 46.15 29.7 45.45 29.7 45.45 30.2 45.7 30.35 45.8 30.55 45.85 30.7 45.95 30.85 46.0 31.05 46.05 31.2 46.1 31.4 46.2 31.55 46.25 31.75 46.3 31.9 46.3 32.1 46.35 32.3 46.35 32.45 46.4 32.65 46.4 32.85 46.4 33.05 46.4 33.2 46.4 33.35 46.35 33.45 46.3 33.6 46.25 33.7 46.2 33.85 46.15 33.95 46.1 34.05 46.0 34.15 45.9 34.25 45.8 34.3 45.7 34.4 45.6 34.45 45.5 34.5 45.35 34.55 45.25 34.55 45.1 34.55 45.0 34.6 44.85 34.6 44.75 34.6 44.65 34.6 44.55 34.65 44.4 34.65 44.3 34.65 44.2 34.65 44.1 34.65 43.95 34.65 43.85 34.65 43.75 34.65 43.65 34.65 43.5 34.65 43.4 34.65 43.3 34.65 43.2 34.4 41.4 34.65 41.45 34.75 41.5 34.9 41.55 35.6 41.85 36.15 42.1 36.5 42.2 36.75 42.3 36.95 42.3 37.15 42.35 37.4 42.3 37.6 42.25 37.75 42.2 37.95 42.1 38.05 42.0 38.2 41.9 38.3 41.75 38.45 41.6 38.5 41.4 38.55 41.2 38.55 41.0 38.55 40.75 38.55 40.5 38.5 40.25 38.45 40.05 38.4 39.8 38.35 39.6 38.3 39.35 38.25 39.15 38.2 38.9 38.1 38.7 38.05 38.5 38.0 38.25 37.9 38.05 37.8 37.8 37.75 37.6 37.65 37.4 37.55 37.2 37.45 36.95 37.4 36.9 37.4 36.85 37.4 36.8 37.35 36.75 37.35 36.75 37.35 36.7 37.35 36.65 37.35 36.65 37.4 36.6 37.4 36.6 37.4 36.6 37.45 36.55 37.5 36.55 37.55 36.55 37.6 36.5 37.65 36.5 37.7 36.5 37.8 36.5 37.9 36.5 37.95 36.5 38.15 36.45 39.2 36.35 40.0 36.25 40.45 36.2 40.55 36.2 40.6 36.15 40.7 36.15 40.8 36.1 40.85 36.1 40.95 36.05 41.0 36.0 41.1 35.95 41.2 35.95 41.25 35.9 41.35 35.85 41.4 35.8 41.5 35.8 41.55 35.75 41.65 35.7 41.7 35.65 41.75 35.65 41.75 35.6 41.8 35.6 41.8 35.55 41.85 35.55 41.85 35.5 41.85 35.45 41.9 35.4 41.9 35.4 41.9 35.35 41.95 35.3 41.95 35.25 41.95 35.2 41.95 35.15 41.95 35.15 41.95 35.1 41.95 34.95 41.95 34.85 41.95 34.7 41.95 34.6 41.9 34.45 41.9 34.35 41.85 34.25 41.8 34.15 41.7 34.05 41.65 33.95 41.55 33.85 41.5 33.8 41.4 33.7 41.3 33.65 41.2 33.55 41.1 33.5 40.95 33.4 38.75 32.25 38.65 32.2 38.5 32.1 38.55 32.1 38.6 32.05 38.65 32.05 38.65 32.0 38.7 32.0 38.75 31.95 38.9 31.8 39.1 31.65 39.2 31.55 39.5 31.35 39.7 31.15 39.85 31.05 40.05 30.85 40.2 30.75 40.4 30.55 40.55 30.4 40.75 30.25 40.9 30.05 41.05 29.9 41.2 29.7 41.4 29.5 41.5 29.3 41.6 29.15 41.7 29.0 41.75 28.85 41.8 28.7 41.85 28.55 41.85 28.4 41.85 28.25 41.85 28.1 41.85 27.95 41.8 27.8 41.75 27.65 41.65 27.5 41.6 27.4 41.5 27.25 41.4 27.1 41.3 27.0 41.15 26.85 41.0 26.7 40.85 26.6 40.7 26.5 40.55 26.35 40.4 26.3 40.2 26.2 40.05 26.1 39.9 26.0 39.7 25.95 39.5 25.9 39.35 25.8 39.15 25.75 38.95 25.7 38.8 25.65 38.6 25.6 38.4 25.55 38.0 25.5 37.6 25.45 37.35 25.45 37.55 25.2 37.6 25.2 37.75 25.05 37.9 24.9 38.05 24.7 38.2 24.55 38.3 24.35 38.45 24.2 38.55 24.0 38.65 23.85 38.75 23.65 38.85 23.45 38.95 23.25 39.0 23.05 39.1 22.85 39.15 22.65 39.25 22.45 39.3 22.25 39.35 22.05 39.35 21.85 39.35 21.65 39.35 21.5 39.3 21.3 39.25 21.15 39.2 20.95 39.1 20.8 39.0 20.65 38.9 20.55 38.75 20.4 38.6 20.3 38.45 20.2 38.25 20.15 38.05 20.1 37.8 20.05 37.65 20.05 37.5 20.05 37.35 20.05 37.2 20.05 37.05 20.05 36.9 20.05 36.75 20.1 36.6 20.1 36.5 20.15 36.35 20.15 36.2 20.2 36.05 20.25 35.9 20.25 35.75 20.3 35.65 20.35 35.5 20.4 35.1 20.5 33.8 21.0 33.9 20.8 34.0 20.65 34.05 20.45 34.1 20.25 34.15 20.1 34.2 19.9 34.25 19.7 34.25 19.5 34.3 19.35 34.3 19.15 34.3 18.95 34.3 18.75 34.3 18.6 34.3 18.4 34.3 18.0 34.3 18.0 34.3 17.65 34.25 17.3 34.15 17.0 34.0 16.75 33.9 16.5 33.7 16.3 33.5 16.15 33.3 16.0 33.05 15.85 32.8 15.8 32.55 15.7 32.25 15.7 32.0 15.7 31.7 15.75 31.4 15.8 31.15 15.9 30.85 16.0 28.85 16.75 28.8 16.7 28.8 16.7 28.8 16.65 28.8 16.5 28.8 16.3 28.8 16.1 28.75 15.95 28.75 15.75 28.7 15.55 28.7 15.35 28.65 15.2 28.6 15.0 28.55 14.85 28.5 14.65 28.45 14.5 28.4 14.3 28.3 14.15 28.25 13.95 28.15 13.8 28.1 13.6 28.05 13.55 28.0 13.45 28.0 13.4 27.95 13.35 27.9 13.3 27.85 13.25 27.8 13.2 27.7 13.15 27.65 13.1 27.6 13.1 27.55 13.05 27.45 13.05 27.4 13.0 27.3 13.0 27.2 13.0 27.1 13.0 26.95 13.0 26.8 13.0 26.7 13.05 26.55 13.1 26.45 13.1 26.3 13.15 26.2 13.2 26.05 13.25 25.95 13.3 25.8 13.35 25.7 13.45 25.6 13.5 25.5 13.6 25.35 13.65 25.25 13.75 25.15 13.85 24.95 14.0 24.25 14.6 24.25 14.45 24.2 14.3 24.15 14.15 24.1 14.0 24.05 13.9 24.0 13.75 23.95 13.6 23.9 13.5 23.8 13.4 23.75 13.25 23.65 13.15 23.6 13.05 23.5 12.95 23.4 12.8 23.3 12.65 23.25 12.6 23.2 12.5 23.1 12.4 23.05 12.35 22.95 12.25 22.9 12.2 22.8 12.15 22.7 12.1 22.6 12.05 22.55 12.0 22.45 11.95 22.35 11.95 22.25 11.9 22.15 11.9 22.05 11.9 21.95 11.9 21.8 11.9 21.75 11.9 21.65 11.95 21.6 11.95 21.5 11.95 21.45 12.0 21.35 12.0 21.3 12.05 21.25 12.05 21.15 12.1 21.1 12.15 21.0 12.15 20.95 12.2 20.85 12.25 20.8 12.25 20.75 12.3 20.65 12.35 20.45 12.45 20.25 12.6 20.1 12.75 19.95 12.9 19.8 13.05 19.65 13.25 19.5 13.4 19.4 13.6 19.25 13.75 19.15 13.95 19.05 14.15 18.95 14.35 18.9 14.45 18.75 14.75 18.6 15.05 18.5 15.2 18.5 15.15 18.45 15.15 18.45 15.1 18.4 15.1 18.35 15.05 18.3 15.05 16.3 13.55 15.75 13.25 15.55 13.15 15.4 13.05 15.2 13.0 15.05 12.95 14.9 12.9 14.75 12.9 14.6 12.95 14.5 13.0 14.35 13.0 14.25 13.1 14.15 13.2 14.0 13.35 13.9 13.45 13.8 13.65 13.75 13.8 13.65 14.0 13.6 14.15 13.5 14.35 13.45 14.5 13.4 14.65 13.35 14.85 13.3 15.0 13.25 15.2 13.25 15.35 13.2 15.5 13.15 15.7 13.15 15.85 13.15 16.05 13.1 16.2 13.1 16.4 13.1 16.6 13.1 16.75 12.65 16.6 11.85 16.3 11.0 16.0 10.6 15.85 10.35 15.75 10.1 15.75 9.85 15.7 9.6 15.7 9.35 15.7 9.15 15.8 8.9 15.85 8.7 15.95 8.45 16.05 8.3 16.2 8.1 16.4 8.0 16.6 7.85 16.8 7.75 17.05 7.65 17.35 7.65 17.65 7.65 17.85 7.6 18.05 7.6 18.25 7.6 18.45 7.6 18.7 7.6 18.85 7.6 19.1 7.6 19.3 7.65 19.5 7.65 19.7 7.7 19.9 7.75 20.1 7.8 20.3 7.9 20.5 7.95 20.7 8.05 20.9 8.05 20.9 8.05 21.0 8.0 21.0 7.95 20.95 7.9 20.95 7.9 20.9 7.85 20.9 7.8 20.9 7.75 20.85 7.7 20.85 7.65 20.85 7.65 20.8 5.5 20.1 4.8 20.05 4.55 20.05 4.35 20.05 4.15 20.05 3.95 20.1 3.8 20.1 3.65 20.15 3.45 20.2 3.35 20.3 3.2 20.35 3.1 20.45 3.0 20.55 2.9 20.7 2.8 20.8 2.75 20.95 2.7 21.1 2.65 21.3 2.65 21.35 2.6 21.45 2.6 21.5 2.6 21.6 2.6 21.65 2.6 21.75 2.6 21.8 2.6 21.9 2.6 21.95 2.6 22.05 2.65 22.1 2.65 22.2 2.65 22.25 2.65 22.35 2.7 22.4 2.7 22.5 2.75 22.7 2.85 22.9 2.9 23.1 3.0 23.25 3.05 23.45 3.15 23.65 3.25 23.8 3.35 24.0 3.45 24.15 3.55 24.3 3.7 24.5 3.8 24.65 3.95 24.8 4.1 24.95 4.2 25.1 4.35 25.25 4.4 25.3 4.5 25.45 3.8 25.55 3.7 25.55 3.45 25.6 3.25 25.65 3.05 25.7 2.85 25.75 2.6 25.8 2.4 25.85 2.2 25.95 2.0 26.05 1.8 26.1 1.65 26.2 1.45 26.3 1.25 26.45 1.05 26.55 0.9 26.7 0.75 26.85 0.6 27.05 0.5 27.15 0.4 27.25 0.3 27.4 0.25 27.5 0.2 27.6 0.15 27.75 0.1 27.85 0.05 28.0 0.0 28.1 0.0 28.25 0.0 28.35 0.0 28.45 0.05 28.6 0.05 28.7 0.1 28.8 0.15 28.95 0.2 29.05 0.3 29.15 0.35 29.25 0.4 29.35 0.5 29.45 0.55 29.55 0.6 29.65 0.7 29.75 0.75 29.85 0.85 29.9 0.9 30.0 1.0 30.1 1.1 30.2 1.15 30.25 1.25 30.35 1.35 30.45 1.7 30.75 3.35 32.15 3.2 32.25 2.75 32.45 2.35 32.6 2.15 32.75 2.05 32.8 2.0 32.8 1.9 32.85 1.85 32.9 1.75 32.95 1.65 33.0 1.6 33.0 1.5 33.05 1.45 33.1 1.35 33.15 1.3 33.2 1.2 33.25 1.15 33.3 1.05 33.3 1.0 33.35 0.95 33.4 0.9 33.45 0.85 33.5 0.8 33.5 0.75 33.55 0.7 33.6 0.65 33.65 0.6 33.7 0.55 33.7 0.5 33.75 0.45 33.8 0.4 33.85 0.35 33.9 0.3 33.95 0.25 34.0 0.25 34.05 0.2 34.1 0.1 34.25 0.05 34.35 0.0 34.5 -0.05 34.65 -0.1 34.8 -0.1 34.95 -0.1 35.1 -0.05 35.2 -0.05 35.35 0.0 35.45 0.1 35.6 0.2 35.7 0.3 35.8 0.45 35.9 0.6 35.95 0.8 36.05 0.8 36.05 1.0 36.1 1.3 36.15 2.0 36.25 2.65 36.35 3.0 36.4 3.2 36.45 3.55 36.45 4.1 36.5 4.15 36.5 4.25 36.5 4.3 36.5 4.35 36.5 4.4 36.55 4.45 36.55 4.45 36.55 4.5 36.6 4.5 36.6 4.55 36.65 4.55 36.7 4.55 36.7 4.55 36.75 4.5 36.8 4.5 36.9 4.5 36.95 4.45 37.0 4.0 38.3 3.4 40.25 3.4 40.3 3.4 40.35 3.35 40.35 3.35 40.4 3.35 40.45 3.35 40.5 3.35 40.55 3.35 40.6 3.35 40.65 3.35 40.65 3.35 40.7 3.35 40.75 3.35 40.8 3.35 40.85 3.35 40.9 3.35 40.95 3.35 41.05 3.4 41.2 3.4 41.3 3.45 41.4 3.45 41.5 3.5 41.6 3.55 41.7 3.6 41.8 3.7 41.85 3.75 41.95 3.85 42.0 3.9 42.05 4.0 42.15 4.1 42.15 4.2 42.2 4.35 42.25 4.4 42.25 4.5 42.25 4.55 42.3 4.6 42.3 4.7 42.3 4.75 42.3 4.8 42.3 4.9 42.25 4.95 42.25 5.05 42.25 5.1 42.25 5.2 42.25 5.25 42.2 5.3 42.2 5.4 42.2 5.45 42.15 5.55 42.15 6.8 41.65 6.95 41.55 7.55 41.35 7.55 41.5 7.45 41.85 7.4 42.05 7.4 42.2 7.35 42.4 7.3 42.6 7.3 42.75 7.3 42.95 7.25 43.15 7.25 43.3 7.25 43.5 7.25 43.7 7.2 43.9 7.25 44.05 7.25 44.25 7.25 44.45 7.25 44.65 7.3 44.8 7.3 44.95 7.35 45.1 7.4 45.25 7.45 45.35 7.5 45.5 7.55 45.6 7.6 45.7 7.7 45.8 7.75 45.9 7.85 46.0 7.95 46.05 8.05 46.1 8.2 46.2 8.3 46.25 8.45 46.3 8.6 46.35 8.7 46.35 8.85 46.4 8.95 46.4 9.05 46.4 9.2 46.4 9.3 46.4 9.4 46.4 9.5 46.4 9.65 46.4 9.75 46.35 9.85 46.35 9.95 46.3 10.1 46.3 10.2 46.25 10.3 46.25 10.4 46.2 10.6 46.15 12.2 45.5 12.15 45.7 12.15 45.75 12.15 45.85 12.15 45.95 12.15 46.05 12.1 46.15 12.1 46.15 12.1 46.35 12.1 46.5 12.1 46.6 12.05 46.7 12.05 46.8 12.05 46.9 12.05 47.0 12.05 47.1 12.05 47.2 12.05 47.3 12.05 47.4 12.05 47.55 12.1 47.7 12.15 47.8 12.2 47.95 12.25 48.05 12.3 48.15 12.35 48.25 12.45 48.35 12.55 48.45 12.65 48.5 12.75 48.6 12.85 48.65 13.0 48.7 13.1 48.75 13.25 48.75 13.4 48.8 13.5 48.8 13.65 48.8 13.8 48.8 13.9 48.8 14.05 48.8 14.15 48.8 14.3 48.8 14.4 48.8 14.55 48.8 14.65 48.75 14.8 48.75 14.9 48.75 15.05 48.7 15.2 48.7 15.3 48.7 15.45 48.65 15.6 48.6 15.75 48.6 15.95 48.55 16.1 48.45 16.25 48.4 16.4 48.35 16.55 48.25 16.7 48.2 16.8 48.1 16.95 48.0 17.1 47.95 17.25 47.85 17.35 47.75 17.55 47.65 17.5 47.7 17.8 47.45 L17.8 47.45" fill="#000000" fill-rule="evenodd" stroke="none"/>
    <path d="M21.2 40.7 Q20.65 40.7 20.15 40.65 19.6 40.6 19.1 40.55 18.6 40.45 18.1 40.35 17.6 40.25 17.1 40.05 16.6 39.9 16.15 39.7 15.65 39.5 15.2 39.3 14.75 39.05 14.3 38.75 13.9 38.45 13.45 38.15 13.1 37.85 12.75 37.55 12.4 37.25 12.1 36.9 11.8 36.6 11.55 36.2 11.3 35.85 11.05 35.5 10.85 35.1 10.65 34.7 10.45 34.3 10.3 33.85 10.15 33.45 10.05 33.0 9.95 32.55 9.9 32.1 9.85 31.75 9.8 31.4 9.8 31.05 9.8 30.7 9.8 30.35 9.85 30.05 9.85 29.7 9.95 29.4 10.0 29.05 10.1 28.75 10.2 28.4 10.3 28.1 10.45 27.8 10.6 27.45 10.75 27.15 10.95 26.85 11.25 26.35 11.55 25.9 11.9 25.45 12.25 25.05 12.6 24.6 12.95 24.25 13.35 23.85 13.75 23.5 14.15 23.1 14.55 22.8 15.0 22.45 15.45 22.2 15.95 21.9 16.4 21.65 16.9 21.4 17.45 21.2 17.75 21.1 18.05 21.0 18.35 20.9 18.65 20.8 18.95 20.75 19.25 20.7 19.55 20.65 19.85 20.6 20.15 20.55 20.5 20.55 20.8 20.55 21.1 20.55 21.4 20.5 21.7 20.55 22.0 20.55 22.35 20.55 22.4 20.55 23.2 20.6 23.7 20.65 24.05 20.65 24.25 20.7 24.4 20.75 24.55 20.8 24.7 20.9 24.85 20.95 25.0 21.1 25.1 21.2 25.2 21.35 25.35 21.45 25.4 21.6 25.5 21.8 25.55 21.95 25.6 22.15 25.6 22.3 25.6 22.5 25.6 22.7 25.6 22.85 25.55 23.05 25.5 23.2 25.45 23.35 25.35 23.5 25.25 23.65 25.15 23.75 25.05 23.9 24.9 24.0 24.75 24.1 24.65 24.15 24.5 24.25 24.3 24.3 24.15 24.35 24.0 24.35 23.8 24.35 23.05 24.35 21.9 24.3 21.35 24.25 20.85 24.3 20.3 24.3 19.85 24.4 19.35 24.5 18.9 24.65 18.45 24.85 18.0 25.05 17.6 25.25 17.15 25.55 16.8 25.8 16.4 26.15 16.05 26.45 15.65 26.85 15.3 27.2 15.0 27.6 14.85 27.8 14.6 28.1 14.3 28.6 14.25 28.65 14.05 28.9 13.95 29.15 13.8 29.45 13.7 29.7 13.65 29.95 13.6 30.25 13.55 30.5 13.55 30.8 13.55 31.05 13.55 31.3 13.6 31.6 13.65 31.85 13.7 32.15 13.8 32.4 13.9 32.7 14.0 32.95 14.1 33.25 14.25 33.5 14.4 33.75 14.6 34.0 14.75 34.2 14.95 34.4 15.1 34.65 15.35 34.85 15.55 35.0 15.75 35.2 16.0 35.35 16.2 35.5 16.45 35.7 16.7 35.8 17.0 35.95 17.25 36.1 17.65 36.3 18.1 36.45 18.5 36.6 18.95 36.7 19.35 36.8 19.8 36.85 20.25 36.9 20.65 36.95 21.1 36.95 21.5 36.95 21.95 36.95 22.4 36.9 22.8 36.85 23.25 36.75 23.7 36.65 24.1 36.5 24.35 36.4 24.6 36.3 24.85 36.2 25.1 36.1 25.3 35.95 25.5 35.8 25.7 35.65 25.9 35.5 26.05 35.3 26.2 35.15 26.35 34.95 26.5 34.7 26.6 34.5 26.7 34.25 26.8 33.95 26.85 33.7 26.9 33.3 26.9 32.95 26.9 32.55 26.8 32.2 26.75 31.85 26.55 31.55 26.4 31.25 26.2 30.95 26.0 30.7 25.75 30.5 25.45 30.3 25.15 30.15 24.85 30.0 24.55 29.95 24.2 29.85 23.85 29.9 23.7 29.9 23.55 29.9 23.4 29.95 23.25 29.95 23.1 30.0 23.0 30.0 22.85 30.05 22.7 30.1 22.55 30.15 22.45 30.2 22.3 30.25 22.15 30.3 22.05 30.35 21.9 30.4 21.75 30.5 21.65 30.55 21.55 30.6 21.5 30.65 21.4 30.75 21.35 30.8 21.25 30.85 21.2 30.95 21.15 31.0 21.1 31.05 21.05 31.15 21.05 31.25 21.0 31.3 20.95 31.4 20.95 31.5 20.95 31.6 20.95 31.7 20.95 31.85 20.95 32.05 20.95 32.25 20.9 32.45 20.85 32.6 20.8 32.8 20.7 32.95 20.6 33.1 20.45 33.2 20.35 33.35 20.2 33.45 20.05 33.55 19.9 33.65 19.7 33.7 19.5 33.75 19.35 33.8 19.15 33.8 18.95 33.8 18.8 33.8 18.65 33.75 18.45 33.7 18.3 33.65 18.15 33.55 18.0 33.5 17.9 33.4 17.75 33.25 17.65 33.15 17.55 33.0 17.45 32.8 17.35 32.65 17.3 32.45 17.25 32.25 17.2 32.05 17.15 31.75 17.15 31.45 17.15 31.15 17.2 30.85 17.25 30.55 17.3 30.3 17.4 30.0 17.5 29.75 17.6 29.5 17.75 29.25 17.9 29.05 18.1 28.8 18.25 28.6 18.45 28.35 18.65 28.15 18.9 27.95 19.1 27.75 19.35 27.6 19.6 27.4 19.85 27.25 20.1 27.1 20.35 27.0 20.6 26.85 20.85 26.75 21.1 26.65 21.4 26.55 21.65 26.5 21.95 26.4 22.2 26.35 22.5 26.3 22.8 26.25 23.1 26.2 23.8 26.1 24.45 26.15 25.1 26.2 25.75 26.35 26.35 26.5 26.9 26.8 27.5 27.1 28.0 27.45 28.5 27.85 28.9 28.35 29.35 28.8 29.65 29.35 30.0 29.9 30.2 30.5 30.45 31.1 30.55 31.75 30.65 32.3 30.65 32.8 30.7 33.35 30.65 33.85 30.6 34.35 30.5 34.8 30.35 35.3 30.2 35.7 30.0 36.15 29.75 36.6 29.5 37.0 29.2 37.4 28.9 37.8 28.5 38.15 28.1 38.5 27.7 38.85 27.4 39.05 27.15 39.25 26.85 39.4 26.55 39.55 26.25 39.7 25.95 39.85 25.65 39.95 25.3 40.1 25.0 40.2 24.7 40.25 24.35 40.35 24.05 40.4 23.7 40.5 23.4 40.55 23.05 40.6 22.7 40.6 22.45 40.65 21.2 40.7 L21.2 40.7" fill="#000000" fill-rule="evenodd" stroke="none"/>
  </g>
</svg>
