<?xml version="1.0" encoding="UTF-8" standalone="no"?>
<svg xmlns:xlink="http://www.w3.org/1999/xlink" height="155.15px" width="177.7px" xmlns="http://www.w3.org/2000/svg">
  <g transform="matrix(1.0, 0.0, 0.0, 1.0, 88.85, 77.55)">
    <path d="M28.85 68.15 Q28.8 68.45 28.75 68.7 28.65 69.0 28.6 69.3 28.5 69.6 28.45 69.95 28.35 70.3 28.25 70.6 28.15 71.0 28.05 71.35 27.95 71.75 27.85 72.15 27.7 72.55 27.6 72.95 27.45 73.35 27.3 73.8 26.95 74.75 26.6 75.7 26.25 76.6 25.85 77.45 25.5 78.25 25.1 79.05 24.7 79.85 24.3 80.6 23.9 81.3 23.5 82.0 23.1 82.65 22.7 83.35 22.3 83.95 21.85 84.6 21.55 85.1 21.1 85.85 20.75 86.4 20.35 86.9 19.95 87.5 19.55 88.05 19.15 88.65 18.7 89.25 18.2 89.9 17.7 90.55 17.2 91.2 16.65 91.85 16.1 92.55 15.55 93.2 14.95 93.9 14.3 94.6 13.65 95.35 13.0 96.05 13.25 96.2 13.55 96.4 13.85 96.55 14.15 96.75 14.5 96.9 14.85 97.1 15.2 97.25 15.6 97.4 16.0 97.6 16.4 97.75 16.85 97.9 17.3 98.05 17.75 98.2 18.25 98.3 18.75 98.4 19.25 98.5 19.45 98.55 19.65 98.55 19.85 98.6 20.05 98.6 20.25 98.65 20.45 98.65 20.6 98.65 20.8 98.65 21.0 98.7 21.15 98.7 21.35 98.7 21.55 98.7 21.7 98.7 21.85 98.7 22.05 98.7 22.2 98.7 22.45 97.15 22.9 94.1 23.4 94.25 23.9 94.45 24.4 94.6 24.9 94.75 25.4 94.95 25.9 95.1 26.45 95.25 26.95 95.4 27.5 95.55 28.05 95.7 28.6 95.85 29.15 96.0 29.7 96.15 30.25 96.3 30.8 96.4 31.4 96.55 32.7 96.85 33.95 97.1 35.2 97.35 36.45 97.55 37.7 97.7 38.9 97.9 40.1 98.05 41.25 98.15 42.4 98.25 43.5 98.3 44.6 98.4 45.7 98.45 46.75 98.5 47.8 98.5 48.8 98.5 49.8 98.5 51.05 96.8 53.55 93.4 55.85 93.1 60.4 92.45 60.5 92.15 60.65 91.85 60.75 91.55 60.9 91.2 61.0 90.85 61.15 90.5 61.25 90.1 61.4 89.7 61.5 89.3 61.65 88.9 61.75 88.45 61.9 88.0 62.0 87.5 62.1 87.05 62.25 86.55 62.35 86.05 62.55 85.05 62.7 84.1 62.8 83.15 62.9 82.2 62.95 81.25 63.0 80.3 63.0 79.35 62.95 78.35 62.95 77.4 62.85 76.3 62.8 75.25 62.65 74.0 62.6 73.0 62.45 71.5 62.4 71.1 62.15 68.65 61.4 61.7 61.25 59.6 61.15 58.25 60.6 53.35 60.45 52.15 60.3 50.95 60.2 49.8 60.05 48.65 59.9 47.5 59.8 46.4 59.65 45.3 59.55 44.2 59.4 43.15 59.3 42.1 59.15 41.05 59.05 40.05 58.9 39.05 58.8 38.1 58.7 37.15 58.55 36.2 59.6 34.15 60.6 32.1 L60.6 32.1 Q60.6 32.2 57.6 34.75 54.0 37.8 51.1 39.85 50.85 40.05 50.55 40.25 50.2 40.5 49.85 40.75 49.4 41.05 48.95 41.35 48.4 41.65 47.9 42.0 47.3 42.35 46.7 42.7 46.05 43.1 45.4 43.45 44.7 43.85 43.95 44.2 43.2 44.6 42.4 45.0 41.9 45.25 41.45 45.45 40.75 45.75 40.05 46.05 39.2 46.4 38.3 46.7 37.3 47.1 36.2 47.45 35.0 47.85 33.75 48.2 32.4 48.6 31.0 48.95 29.5 49.3 27.95 49.55 26.3 49.85 24.65 50.1 23.25 50.3 21.8 50.4 20.5 50.5 19.15 50.5 17.9 50.55 16.65 50.55 15.45 50.5 14.25 50.45 13.15 50.35 11.95 50.25 10.9 50.15 9.75 50.05 8.75 49.9 7.55 49.75 6.85 49.65 5.45 49.45 3.9 49.25 3.05 49.1 1.75 48.95 0.65 48.75 -0.65 48.55 -1.75 48.35 -3.05 48.1 -4.25 47.8 -5.5 47.5 -6.75 47.15 -8.05 46.8 -9.35 46.35 -10.7 45.9 -12.0 45.35 -13.4 44.8 -14.75 44.15 -16.4 43.4 -17.9 42.55 -19.35 41.75 -20.7 40.85 -21.9 40.1 -23.05 39.2 -24.1 38.45 -25.1 37.6 -25.95 36.9 -26.75 36.1 -27.45 35.4 -28.1 34.7 -28.65 34.1 -29.2 33.5 -29.6 33.0 -30.0 32.5 -30.7 31.6 -31.25 30.75 -31.8 29.9 -32.25 29.1 -32.65 28.35 -32.95 27.6 -33.25 26.95 -33.5 26.25 -33.7 25.65 -33.8 25.05 -33.95 24.5 -34.0 23.95 -34.05 23.5 -34.05 23.0 -34.1 22.6 -34.05 22.2 -34.05 21.95 -34.0 21.65 -34.0 21.4 -33.95 21.15 -33.95 20.95 -33.9 20.7 -33.85 20.5 -33.8 20.25 -33.75 20.05 -33.7 19.85 -33.65 19.65 -33.6 19.4 -33.55 19.25 -33.5 19.0 -33.45 18.85 -33.35 18.65 -32.75 16.8 -32.5 15.9 -32.05 14.45 -31.7 13.45 -31.3 12.2 -31.0 11.25 -30.65 10.2 -30.3 9.25 -29.95 8.3 -29.65 7.45 -29.3 6.55 -28.95 5.75 -28.6 4.9 -28.25 4.05 -27.85 3.25 -27.45 2.4 -27.0 1.45 -26.5 0.55 -26.05 -0.3 -25.6 -1.15 -25.1 -1.95 -24.65 -2.75 -24.2 -3.5 -23.7 -4.25 -23.3 -4.95 -22.8 -5.75 -22.35 -6.4 -21.85 -7.15 -21.4 -7.8 -20.85 -8.6 -20.55 -9.1 -19.9 -10.05 -19.4 -10.75 -18.95 -11.45 -18.4 -12.2 -17.85 -13.0 -17.2 -13.85 -16.6 -14.7 -15.9 -15.6 -15.2 -16.55 -14.4 -17.5 -13.65 -18.5 -12.8 -19.55 -11.95 -20.55 -11.05 -21.65 -10.1 -22.75 -9.15 -23.85 -8.15 -25.0 -4.75 -28.7 -0.15 -33.15 1.3 -34.6 7.3 -40.0 10.0 -42.45 12.0 -44.25 13.85 -45.85 15.05 -46.9 16.15 -47.85 16.75 -48.3 17.3 -48.75 17.5 -48.8 17.65 -48.9 17.55 -48.75 17.5 -48.65 17.3 -48.4 12.0 -42.05 17.05 -48.15 17.0 -48.1 17.2 -48.25 17.5 -48.55 17.6 -48.7 17.85 -48.95 18.1 -49.15 18.35 -49.4 18.65 -49.65 18.95 -49.9 19.25 -50.1 19.55 -50.35 19.9 -50.5 20.25 -50.7 20.65 -50.85 21.05 -51.0 21.45 -51.1 21.85 -51.2 22.3 -51.25 22.5 -51.25 22.75 -51.25 22.95 -51.25 23.15 -51.2 23.35 -51.2 23.55 -51.15 23.75 -51.1 23.95 -51.05 24.1 -51.05 24.3 -51.0 24.45 -50.95 24.65 -50.9 24.75 -50.85 24.9 -50.8 25.0 -50.75 25.15 -50.7 25.4 -50.6 25.65 -50.55 25.9 -50.45 26.1 -50.35 26.35 -50.25 26.55 -50.15 26.75 -50.0 27.0 -49.9 27.2 -49.75 27.4 -49.65 27.6 -49.5 27.85 -49.35 28.05 -49.2 28.35 -49.05 28.5 -48.9 28.85 -48.7 29.05 -48.55 29.2 -48.45 29.4 -48.3 29.6 -48.15 29.8 -48.0 30.0 -47.85 30.2 -47.65 30.45 -47.5 30.65 -47.35 30.85 -47.15 31.1 -46.95 31.35 -46.75 31.6 -46.55 31.8 -46.35 32.05 -46.15 32.3 -45.9 34.05 -43.5 36.1 -40.5 37.0 -39.2 37.9 -37.85 38.75 -36.5 39.6 -35.2 40.45 -33.9 41.3 -32.55 42.1 -31.25 42.95 -29.9 43.7 -28.6 44.5 -27.3 45.3 -26.0 46.05 -24.7 46.8 -23.45 47.5 -22.15 48.25 -20.85 48.95 -19.55 50.85 -16.4 53.75 -11.4 58.0 -4.05 58.85 -2.4 59.25 -1.65 59.6 -0.9 59.95 -0.05 60.3 0.85 60.7 1.85 61.0 2.85 61.35 3.95 61.6 5.1 61.9 6.3 62.1 7.6 62.35 8.95 62.5 10.35 62.65 11.85 62.7 13.45 62.8 15.05 62.75 16.8 62.85 15.75 62.9 14.7 63.0 13.55 63.05 12.4 63.15 11.15 63.2 9.9 63.3 8.55 63.35 7.2 63.4 5.75 63.5 4.3 63.55 2.75 63.6 1.2 63.65 -0.4 63.7 -2.05 63.75 -3.75 63.75 -5.5 63.95 -14.6 63.65 -18.05 63.55 -19.6 63.45 -20.65 63.3 -22.15 63.15 -23.45 63.0 -25.0 62.75 -26.45 62.5 -28.1 62.15 -29.65 61.8 -31.35 61.35 -33.0 60.85 -34.75 60.3 -36.5 59.65 -38.3 58.9 -40.1 58.1 -41.95 57.15 -43.75 56.5 -44.95 55.85 -46.1 55.2 -47.2 54.5 -48.25 53.85 -49.25 53.2 -50.2 52.55 -51.05 51.9 -51.9 51.3 -52.65 50.7 -53.4 50.15 -54.05 49.6 -54.65 49.1 -55.2 48.65 -55.7 48.25 -56.15 47.85 -56.55 47.55 -56.85 47.25 -57.15 46.9 -57.5 46.5 -57.85 46.05 -58.25 45.6 -58.65 45.1 -59.15 44.55 -59.6 44.0 -60.1 43.4 -60.55 42.7 -61.1 42.05 -61.6 41.3 -62.15 40.55 -62.7 39.75 -63.25 38.95 -63.8 37.1 -65.0 35.15 -66.05 33.4 -67.05 31.55 -67.9 29.85 -68.65 28.1 -69.3 26.55 -69.9 24.95 -70.4 23.55 -70.85 22.15 -71.2 21.0 -71.5 19.85 -71.75 18.95 -71.95 18.05 -72.1 17.5 -72.2 16.9 -72.25 16.15 -72.35 15.4 -72.45 14.65 -72.5 13.8 -72.55 13.0 -72.55 12.1 -72.6 11.2 -72.6 10.2 -72.6 9.2 -72.55 8.05 -72.55 7.0 -72.5 5.65 -72.45 4.5 -72.4 2.9 -72.3 1.95 -72.25 -0.15 -72.15 -1.7 -72.1 -2.55 -72.05 -3.75 -72.0 -4.65 -71.95 -5.7 -71.85 -6.5 -71.8 -7.45 -71.75 -8.2 -71.7 -9.05 -71.6 -9.75 -71.55 -10.55 -71.45 -11.25 -71.35 -11.95 -71.25 -12.65 -71.1 -13.35 -71.0 -14.05 -70.85 -15.6 -70.5 -17.1 -70.1 -18.5 -69.65 -19.9 -69.2 -21.2 -68.75 -22.45 -68.2 -23.6 -67.75 -24.75 -67.2 -25.8 -66.7 -26.8 -66.2 -27.7 -65.75 -28.55 -65.2 -29.3 -64.8 -30.1 -64.35 -30.6 -64.05 -31.3 -63.6 -33.05 -62.5 -34.7 -61.3 -36.25 -60.2 -37.75 -59.0 -39.1 -57.85 -40.4 -56.65 -41.6 -55.55 -42.75 -54.4 -43.75 -53.35 -44.75 -52.25 -45.6 -51.25 -46.45 -50.25 -47.1 -49.4 -47.85 -48.45 -48.3 -47.85 -49.0 -46.95 -49.7 -45.95 -50.05 -45.55 -50.65 -44.75 -51.1 -44.05 -51.7 -43.2 -52.2 -42.4 -52.8 -41.55 -53.35 -40.65 -53.9 -39.7 -54.45 -38.75 -55.0 -37.7 -55.5 -36.65 -56.05 -35.55 -56.5 -34.4 -57.0 -33.2 -57.45 -31.95 -57.95 -30.55 -58.35 -29.15 -58.7 -27.85 -59.0 -26.5 -59.25 -25.2 -59.45 -23.9 -59.65 -22.7 -59.8 -21.4 -59.9 -20.2 -60.0 -18.9 -60.05 -17.75 -60.1 -16.45 -60.1 -15.35 -60.1 -14.0 -60.1 -13.05 -60.1 -11.5 -60.1 -9.95 -60.0 -8.9 -59.95 -7.9 -59.7 -5.8 -58.7 2.4 -58.95 0.2 -58.35 5.3 -57.65 11.5 -57.5 12.75 -57.25 15.0 -57.05 17.05 -56.95 17.9 -56.8 19.3 -56.7 20.25 -56.55 21.4 -56.45 22.25 -56.3 23.15 -56.2 23.95 -56.05 24.7 -55.9 25.45 -55.8 26.2 -55.6 26.95 -55.45 27.7 -55.2 28.55 -54.9 29.8 -54.5 31.1 -54.15 32.3 -53.75 33.55 -53.35 34.7 -52.95 35.85 -52.6 36.85 -52.25 37.9 -51.9 38.8 -51.6 39.65 -51.3 40.35 -51.05 41.0 -50.85 41.5 -50.7 41.95 -50.55 42.2 -50.5 42.3 -49.95 43.6 -49.4 44.8 -48.95 45.8 -48.45 46.8 -48.15 47.45 -47.65 48.4 -47.15 49.35 -47.0 49.75 -46.65 50.45 -46.45 50.95 -46.2 51.55 -46.0 52.1 -45.8 52.75 -45.65 53.4 -45.5 54.05 -45.4 54.9 -45.25 56.05 -45.15 57.2 -45.05 58.25 -45.0 59.3 -44.95 60.2 -44.9 61.1 -44.9 61.9 -44.9 62.65 -44.9 63.3 -44.9 63.9 -44.9 64.4 -44.95 64.85 -44.95 65.15 -45.0 65.4 -45.0 65.5 -45.0 65.6 -45.0 65.5 -45.05 66.3 -45.1 66.7 -45.15 67.0 -45.15 67.45 -45.2 67.8 -45.2 68.2 -45.2 68.6 -45.15 69.05 -45.15 69.45 -45.1 69.9 -45.0 70.3 -44.9 70.8 -44.75 71.2 -44.6 71.7 -44.4 72.15 -44.3 72.35 -42.45 75.2 -42.05 75.85 -41.75 76.25 -41.45 76.75 -41.2 77.1 -40.95 77.5 -40.8 77.75 -40.6 78.05 -40.45 78.25 -40.3 78.45 -40.15 78.6 -40.05 78.7 -39.9 78.85 -39.8 78.95 -39.7 79.05 -39.6 79.1 -39.5 79.2 -39.35 79.3 -39.15 79.4 -38.95 79.5 -38.75 79.55 -38.6 79.65 -38.35 79.7 -38.15 79.75 -37.9 79.8 -37.65 79.85 -37.4 79.9 -37.15 79.95 -36.8 80.0 -36.5 80.05 -36.15 80.1 -35.9 80.15 -35.4 80.2 -34.95 80.25 -34.7 80.3 -34.3 80.35 -34.0 80.4 -33.65 80.4 -33.35 80.45 -33.0 80.5 -32.7 80.5 -32.35 80.55 -32.05 80.55 -31.7 80.55 -31.4 80.55 -31.05 80.55 -30.7 80.55 -30.35 80.55 -30.0 80.5 -29.8 80.5 -29.6 80.45 -29.35 80.45 -29.1 80.4 -28.75 80.35 -28.4 80.3 -28.0 80.2 -27.55 80.1 -27.05 80.0 -26.55 79.85 -25.95 79.7 -25.35 79.5 -24.7 79.25 -24.0 79.0 -23.2 78.7 -22.45 78.35 -21.8 78.1 -21.2 77.8 -20.65 77.55 -20.15 77.3 -19.75 77.1 -19.3 76.85 -18.95 76.65 -18.5 76.4 -18.3 76.3 -17.75 75.95 -17.25 75.65 -16.95 75.5 -16.5 75.25 -16.1 75.0 -15.6 74.75 -15.1 74.5 -14.55 74.2 -14.0 74.0 -13.45 73.75 -12.95 73.5 -12.4 73.3 -11.85 73.1 -11.35 72.9 -10.75 72.75 -10.25 72.55 -9.6 72.35 -9.05 72.2 -8.4 72.0 -7.8 71.85 -7.0 71.65 -6.45 71.5 -5.5 71.2 -3.9 70.8 -3.0 70.55 -1.55 70.2 -0.3 69.9 1.25 69.55 2.65 69.25 4.25 68.9 5.8 68.65 7.5 68.35 9.15 68.15 10.95 67.9 12.75 67.75 14.7 67.6 16.6 67.55 18.65 67.5 20.65 67.55 21.3 67.55 21.95 67.6 22.55 67.6 23.15 67.65 23.7 67.65 24.3 67.7 24.85 67.75 25.35 67.8 25.85 67.85 26.35 67.9 26.8 67.9 27.25 67.95 27.7 68.0 28.1 68.05 28.45 68.1 28.85 68.15 L28.85 68.15" fill="#3f2036" fill-rule="evenodd" stroke="none"/>
  </g>
</svg>
