<?xml version="1.0" encoding="UTF-8" standalone="no"?>
<svg xmlns:xlink="http://www.w3.org/1999/xlink" height="90.0px" width="40.0px" xmlns="http://www.w3.org/2000/svg">
  <g transform="matrix(1.0, 0.0, 0.0, 1.0, 20.0, 45.0)">
    <path d="M-8.9 -3.15 Q-5.1 0.05 2.5 6.45 4.8 3.15 9.75 -3.85 9.55 -4.0 9.2 -4.3 8.75 -4.65 8.65 -4.75 5.75 -7.0 0.3 -11.35 0.25 -11.4 0.2 -11.45 0.15 -11.5 0.15 -11.55 0.1 -11.6 0.1 -11.65 0.05 -11.7 0.05 -11.75 0.05 -11.85 0.05 -11.9 0.05 -11.95 0.1 -12.0 0.1 -12.1 0.15 -12.15 0.2 -12.2 0.25 -12.25 1.0 -13.15 2.3 -14.65 2.35 -14.7 2.4 -14.75 2.45 -14.75 2.5 -14.8 2.55 -14.8 2.6 -14.8 2.65 -14.85 2.7 -14.85 2.75 -14.85 2.85 -14.8 2.9 -14.8 2.95 -14.8 3.0 -14.75 3.05 -14.7 3.15 -14.7 3.2 -14.65 4.25 -13.85 5.75 -12.8 9.0 -10.4 15.55 -5.55 15.6 -5.5 15.65 -5.45 15.7 -5.45 15.75 -5.4 15.75 -5.35 15.8 -5.3 15.8 -5.25 15.85 -5.2 15.85 -5.15 15.85 -5.1 15.85 -5.05 15.85 -5.0 15.8 -4.95 15.8 -4.85 15.75 -4.8 15.75 -4.75 14.8 -3.4 14.3 -2.7 10.05 3.45 4.0 12.15 3.8 12.4 3.65 12.5 3.6 12.55 3.55 12.55 3.5 12.55 3.5 12.6 3.45 12.6 3.4 12.6 3.35 12.6 3.3 12.6 3.25 12.6 3.2 12.55 3.15 12.55 3.15 12.55 3.1 12.5 3.05 12.5 3.0 12.45 2.95 12.45 1.7 11.35 -0.65 9.25 -3.6 6.6 -9.7 1.25 -11.0 0.1 -14.0 -2.55 -14.05 -2.6 -14.1 -2.65 -14.15 -2.7 -14.15 -2.75 -14.2 -2.8 -14.2 -2.85 -14.2 -2.9 -14.25 -2.95 -14.25 -3.0 -14.2 -3.05 -14.2 -3.1 -14.2 -3.15 -14.15 -3.25 -14.15 -3.3 -14.1 -3.35 -14.05 -3.4 -13.1 -4.75 -11.05 -7.55 -9.7 -9.4 -4.35 -16.8 -4.3 -16.85 -4.3 -16.85 -4.25 -16.9 -4.25 -16.95 -4.2 -16.95 -4.2 -17.0 -4.15 -17.0 -4.1 -17.05 -4.1 -17.05 -4.05 -17.1 -4.0 -17.1 -3.95 -17.1 -3.95 -17.1 -3.9 -17.1 -3.85 -17.15 -3.8 -17.1 -3.75 -17.1 -3.7 -17.1 -3.7 -17.1 -3.65 -17.1 -3.6 -17.05 -3.55 -17.05 -3.55 -17.05 -3.5 -17.0 -3.5 -17.0 -3.45 -16.95 -3.4 -16.95 -3.4 -16.9 -3.4 -16.85 -3.35 -16.85 -3.35 -16.8 -3.3 -16.75 -3.3 -16.65 -3.25 -16.6 -3.25 -16.5 -3.2 -16.45 -3.15 -16.35 -3.15 -16.25 -3.1 -16.2 -3.1 -16.1 -3.05 -16.0 -3.05 -15.95 -3.0 -15.85 -3.0 -15.75 -2.95 -15.7 -2.9 -15.6 -2.9 -15.55 -2.85 -15.45 -2.7 -15.0 -2.2 -13.65 -2.2 -13.6 -2.15 -13.55 -2.15 -13.5 -2.1 -13.5 -2.05 -13.45 -2.05 -13.4 -2.0 -13.3 -2.0 -13.25 -2.0 -13.2 -2.0 -13.15 -2.0 -13.1 -2.0 -13.05 -2.0 -13.0 -2.0 -12.95 -2.05 -12.9 -2.05 -12.8 -2.1 -12.75 -2.1 -12.7 -2.15 -12.65 -2.2 -12.6 -3.45 -10.85 -5.5 -7.9 -8.05 -4.35 -8.85 -3.25 -8.85 -3.2 -8.85 -3.2 -8.9 -3.2 -8.9 -3.15 L-8.9 -3.15 M-12.95 -3.1 Q-7.55 1.7 3.3 11.25 7.05 5.85 14.55 -4.95 10.7 -7.75 2.8 -13.55 2.35 -13.0 1.35 -11.9 1.4 -11.85 1.45 -11.85 1.5 -11.8 1.5 -11.75 4.5 -9.4 10.7 -4.45 10.8 -4.4 10.85 -4.35 10.9 -4.3 10.95 -4.25 11.0 -4.2 11.0 -4.15 11.05 -4.1 11.05 -4.0 11.05 -3.95 11.05 -3.9 11.05 -3.85 11.0 -3.8 11.0 -3.75 10.95 -3.65 10.9 -3.6 10.85 -3.5 8.45 -0.1 3.15 7.45 3.1 7.55 3.05 7.6 2.95 7.65 2.9 7.7 2.85 7.75 2.8 7.75 2.75 7.8 2.65 7.8 2.6 7.8 2.55 7.8 2.45 7.8 2.4 7.75 2.35 7.75 2.25 7.7 2.2 7.65 2.1 7.55 1.6 7.15 0.55 6.25 -3.0 3.25 -8.45 -1.35 -9.45 -2.15 -10.0 -2.65 -10.05 -2.7 -10.1 -2.75 -10.1 -2.8 -10.15 -2.85 -10.15 -2.85 -10.15 -2.9 -10.2 -2.95 -10.2 -3.0 -10.2 -3.05 -10.2 -3.1 -10.15 -3.15 -10.15 -3.2 -10.15 -3.25 -10.1 -3.3 -10.1 -3.35 -10.05 -3.4 -9.3 -4.45 -8.1 -6.15 -6.1 -8.95 -3.25 -13.0 -3.2 -13.05 -3.2 -13.05 -3.2 -13.1 -3.2 -13.1 -3.15 -13.15 -3.15 -13.2 -3.15 -13.25 -3.2 -13.25 -3.65 -14.4 -3.95 -15.25 -3.95 -15.25 -4.0 -15.4 -7.0 -11.3 -12.95 -3.1 L-12.95 -3.1" fill="#000000" fill-rule="evenodd" stroke="none"/>
  </g>
</svg>
