<?xml version="1.0" encoding="UTF-8" standalone="no"?>
<svg xmlns:xlink="http://www.w3.org/1999/xlink" height="20.9px" width="36.1px" xmlns="http://www.w3.org/2000/svg">
  <g transform="matrix(1.0, 0.0, 0.0, 1.0, 18.45, 10.15)">
    <path d="M-20.65 -2.9 Q-20.6 -2.45 -20.5 -2.05 -20.45 -1.6 -20.35 -1.2 -20.25 -0.8 -20.15 -0.4 -20.05 -0.05 -19.9 0.35 -19.8 0.7 -19.7 1.0 -19.6 1.35 -19.5 1.65 -19.4 1.9 -19.3 2.2 -19.2 2.4 -19.1 2.65 -18.9 3.2 -18.65 3.75 -18.45 4.25 -18.2 4.75 -18.0 5.2 -17.75 5.65 -17.55 6.05 -17.35 6.4 -17.15 6.75 -17.0 7.05 -16.85 7.3 -16.7 7.55 -16.55 7.7 -16.45 7.85 -16.4 8.0 -16.35 8.05 -15.85 8.75 -15.0 9.35 -14.15 9.95 -13.0 10.4 -11.85 10.85 -10.4 11.15 -8.95 11.45 -7.3 11.6 -5.6 11.75 -3.7 11.75 -1.8 11.75 0.25 11.55 2.4 11.4 4.6 11.05 6.85 10.7 9.15 10.2 10.25 8.25 11.1 6.25 11.9 4.35 12.45 2.4 13.0 0.45 13.3 -1.4 13.55 -3.25 13.55 -5.05 13.5 -6.75 13.25 -8.4 12.95 -10.0 12.45 -11.4 11.9 -12.85 11.15 -14.05 10.35 -15.3 9.35 -16.25 8.9 -16.7 8.35 -17.1 7.85 -17.45 7.25 -17.8 6.65 -18.15 6.0 -18.45 5.35 -18.7 4.65 -18.95 3.95 -19.15 3.15 -19.35 2.35 -19.5 1.55 -19.6 0.65 -19.7 -0.25 -19.75 -1.15 -19.75 -2.15 -19.75 -4.3 -19.75 -6.25 -19.55 -8.25 -19.3 -10.0 -18.8 -11.8 -18.3 -13.35 -17.6 -14.95 -16.8 -16.2 -15.8 -17.5 -14.75 -18.45 -13.45 -19.45 -12.15 -20.0 -10.55 -20.6 -8.9 -20.75 -7.05 -20.95 -5.1 -20.65 -2.9 L-20.65 -2.9" fill="#ffffff" fill-rule="evenodd" stroke="none"/>
  </g>
</svg>
