<?xml version="1.0" encoding="UTF-8" standalone="no"?>
<svg xmlns:xlink="http://www.w3.org/1999/xlink" height="25.2px" width="22.35px" xmlns="http://www.w3.org/2000/svg">
  <g transform="matrix(1.0, 0.0, 0.0, 1.0, 11.15, 12.6)">
    <path d="M10.4 -2.3 Q10.4 -1.95 10.4 -1.6 10.4 -1.25 10.4 -0.95 10.4 -0.6 10.4 -0.3 10.35 0.0 10.35 0.3 10.3 0.65 10.25 0.9 10.25 1.2 10.2 1.5 10.15 1.8 10.05 2.05 10.0 2.35 9.95 2.6 9.9 2.85 9.8 3.1 9.7 3.3 9.65 3.55 9.55 3.8 9.45 4.0 9.35 4.2 9.25 4.45 9.1 4.65 9.0 4.85 8.9 5.05 8.75 5.25 8.65 5.45 8.5 5.6 8.35 5.8 8.2 5.95 7.9 6.3 7.6 6.6 7.3 6.9 6.95 7.15 6.6 7.4 6.2 7.65 5.85 7.9 5.4 8.1 5.0 8.3 4.55 8.45 4.1 8.65 3.6 8.8 3.15 8.9 2.6 9.0 2.1 9.15 1.55 9.2 1.0 9.25 0.5 9.3 -0.05 9.3 -0.55 9.25 -1.05 9.2 -1.55 9.1 -2.05 9.0 -2.55 8.85 -3.0 8.7 -3.5 8.5 -3.95 8.3 -4.4 8.05 -4.85 7.8 -5.3 7.5 -5.75 7.2 -6.2 6.8 -6.4 6.65 -6.55 6.45 -6.75 6.3 -6.9 6.15 -7.05 5.95 -7.2 5.8 -7.35 5.6 -7.5 5.4 -7.65 5.2 -7.8 5.0 -7.9 4.8 -8.05 4.6 -8.15 4.4 -8.3 4.2 -8.4 4.0 -8.5 3.75 -8.65 3.45 -8.8 3.15 -8.9 2.85 -9.0 2.55 -9.15 2.25 -9.25 1.95 -9.35 1.6 -9.4 1.25 -9.5 0.9 -9.55 0.55 -9.6 0.2 -9.65 -0.15 -9.7 -0.5 -9.75 -0.9 -9.8 -1.25 -9.8 -1.65 -9.8 -2.35 -9.8 -3.0 -9.75 -3.65 -9.7 -4.25 -9.6 -4.85 -9.5 -5.45 -9.4 -6.05 -9.2 -6.55 -9.05 -7.1 -8.8 -7.6 -8.6 -8.1 -8.3 -8.6 -8.05 -9.05 -7.75 -9.5 -7.4 -9.95 -7.05 -10.35 -6.7 -10.75 -6.3 -11.1 -5.9 -11.45 -5.5 -11.75 -5.1 -12.05 -4.7 -12.25 -4.25 -12.5 -3.8 -12.7 -3.4 -12.9 -2.9 -13.0 -2.45 -13.15 -1.95 -13.25 -1.5 -13.3 -0.95 -13.35 -0.45 -13.35 0.05 -13.35 0.6 -13.3 1.1 -13.25 1.6 -13.2 2.1 -13.1 2.6 -12.95 3.05 -12.8 3.55 -12.7 4.0 -12.5 4.45 -12.3 4.9 -12.1 5.3 -11.85 5.75 -11.6 6.15 -11.35 6.55 -11.05 6.95 -10.75 7.3 -10.4 7.65 -10.1 8.0 -9.7 8.3 -9.35 8.6 -8.95 8.85 -8.5 9.1 -8.05 9.35 -7.6 9.5 -7.1 9.7 -6.6 9.85 -6.0 10.0 -5.45 10.1 -4.85 10.25 -4.25 10.3 -3.65 10.35 -3.0 10.4 -2.3" fill="#ffa8d3" fill-rule="evenodd" stroke="none"/>
  </g>
</svg>
