<?xml version="1.0" encoding="UTF-8" standalone="no"?>
<svg xmlns:xlink="http://www.w3.org/1999/xlink" height="8.95px" width="36.55px" xmlns="http://www.w3.org/2000/svg">
  <g transform="matrix(1.0, 0.0, 0.0, 1.0, 14.7, 11.2)">
    <path d="M-17.6 4.4 Q-17.75 4.25 -17.85 4.15 -18.05 3.95 -18.25 3.75 -18.5 3.45 -18.7 3.15 -19.0 2.8 -19.2 2.45 -19.5 2.0 -19.7 1.55 -19.95 1.05 -20.1 0.5 -20.3 -0.05 -20.4 -0.65 -20.5 -1.3 -20.5 -1.95 -20.5 -2.6 -20.35 -3.2 -20.25 -3.8 -20.05 -4.4 -19.85 -5.0 -19.55 -5.55 -19.25 -6.1 -18.85 -6.6 -18.5 -7.15 -18.0 -7.6 -17.55 -8.05 -17.05 -8.45 -16.5 -8.85 -15.95 -9.15 -15.35 -9.5 -14.7 -9.75 -13.2 -10.15 -11.7 -10.45 -10.3 -10.7 -8.9 -10.9 -7.55 -11.1 -6.2 -11.2 -4.95 -11.35 -3.7 -11.4 -2.55 -11.4 -1.45 -11.4 -0.4 -11.4 0.65 -11.35 1.6 -11.3 2.55 -11.25 3.35 -11.15 4.2 -11.05 5.55 -10.9 6.25 -10.8 7.4 -10.65 8.35 -10.45 9.5 -10.25 10.5 -10.0 11.65 -9.75 12.65 -9.4 13.7 -9.05 14.65 -8.6 15.65 -8.15 16.5 -7.55 17.35 -6.95 18.1 -6.2 18.85 -5.4 19.4 -4.45 19.5 -4.25 19.65 -4.05 19.75 -3.85 19.85 -3.65 19.9 -3.45 20.0 -3.25 20.1 -3.05 20.15 -2.9 20.2 -2.7 20.3 -2.5 20.35 -2.35 20.4 -2.2 20.45 -2.05 20.45 -1.9 20.5 -1.75 20.55 -1.6 20.05 -1.9 19.5 -2.2 18.8 -2.6 18.05 -3.0 17.1 -3.45 16.1 -3.85 15.0 -4.3 13.8 -4.65 12.5 -5.1 11.15 -5.35 9.7 -5.7 8.2 -5.85 6.55 -6.05 4.9 -6.05 3.15 -6.05 1.35 -5.85 -0.65 -5.6 -2.55 -5.1 -4.35 -4.6 -6.05 -3.9 -7.6 -3.3 -9.1 -2.45 -10.45 -1.75 -11.7 -0.85 -12.85 -0.1 -13.85 0.75 -14.75 1.45 -15.6 2.25 -16.25 2.85 -16.8 3.5 -17.2 3.95 -17.6 4.4 L-17.6 4.4" fill="#000000" fill-opacity="0.21960784" fill-rule="evenodd" stroke="none"/>
  </g>
</svg>
