<?xml version="1.0" encoding="UTF-8" standalone="no"?>
<svg xmlns:xlink="http://www.w3.org/1999/xlink" height="39.55px" width="56.6px" xmlns="http://www.w3.org/2000/svg">
  <g transform="matrix(1.0, 0.0, 0.0, 1.0, 28.3, 19.75)">
    <path d="M-2.3 11.75 Q-2.6 11.75 -2.85 11.7 -3.1 11.7 -3.35 11.75 -3.6 11.75 -3.85 11.75 -4.1 11.8 -4.3 11.8 -4.5 11.85 -4.7 11.9 -4.9 11.95 -5.1 12.0 -5.25 12.1 -5.4 12.15 -5.55 12.25 -5.7 12.35 -5.7 12.45 -5.7 12.55 -5.45 12.55 -5.25 12.5 -5.0 12.5 -4.75 12.5 -4.5 12.5 -4.2 12.5 -3.95 12.5 -3.65 12.5 -3.4 12.5 -3.1 12.5 -2.8 12.5 -2.5 12.55 -2.2 12.55 -1.85 12.6 -1.55 12.6 -1.2 12.65 -1.15 12.55 -1.15 12.45 -1.15 12.4 -1.15 12.3 -1.2 12.25 -1.2 12.15 -1.25 12.1 -1.35 12.05 -1.4 12.0 -1.5 11.95 -1.6 11.9 -1.7 11.85 -1.85 11.8 -2.0 11.8 -2.15 11.75 -2.3 11.75 L-2.3 11.75" fill="#000000" fill-rule="evenodd" stroke="none"/>
    <path d="M-0.5 13.35 Q-0.75 13.45 -1.0 13.6 -1.2 13.75 -1.4 13.9 -1.6 14.05 -1.75 14.2 -1.95 14.4 -2.05 14.6 -2.2 14.8 -2.3 15.0 -2.35 15.2 -2.45 15.45 -2.5 15.7 -2.5 15.95 -2.5 16.2 -2.5 16.45 -2.35 16.25 -2.2 16.1 -2.1 15.9 -1.9 15.75 -1.75 15.55 -1.6 15.4 -1.4 15.25 -1.2 15.1 -1.05 14.95 -0.85 14.85 -0.65 14.7 -0.4 14.55 -0.2 14.45 0.05 14.35 0.25 14.25 0.5 14.15 0.5 14.05 0.5 13.95 0.5 13.85 0.5 13.75 0.5 13.7 0.45 13.65 0.4 13.55 0.35 13.5 0.3 13.45 0.2 13.45 0.1 13.4 0.0 13.4 -0.1 13.35 -0.2 13.35 -0.35 13.35 -0.5 13.35 L-0.5 13.35" fill="#000000" fill-rule="evenodd" stroke="none"/>
    <path d="M2.1 14.85 Q2.35 15.35 3.0 15.95 3.65 16.5 4.6 17.05 5.55 17.65 6.65 18.15 7.85 18.65 9.05 19.05 10.35 19.45 11.6 19.65 12.9 19.9 14.1 19.85 15.4 19.85 16.45 19.55 17.55 19.25 18.4 18.65 17.5 18.7 16.45 18.65 15.45 18.65 14.35 18.55 13.25 18.45 12.15 18.25 11.0 18.1 9.9 17.85 8.8 17.65 7.7 17.35 6.65 17.0 5.65 16.65 4.6 16.25 3.75 15.8 2.85 15.35 2.1 14.85 L2.1 14.85" fill="#000000" fill-rule="evenodd" stroke="none"/>
    <path d="M27.4 -7.6 Q27.5 -7.4 27.6 -7.2 27.7 -7.05 27.8 -6.85 27.85 -6.65 27.9 -6.5 28.0 -6.3 28.05 -6.1 28.1 -5.95 28.15 -5.8 28.15 -5.6 28.2 -5.45 28.25 -5.3 28.25 -5.15 28.3 -5.05 28.3 -4.9 26.15 -6.25 23.7 -7.2 21.3 -8.1 18.7 -8.65 16.2 -9.15 13.6 -9.25 11.0 -9.4 8.5 -9.1 6.0 -8.8 3.65 -8.15 1.25 -7.5 -0.8 -6.45 -2.95 -5.4 -4.65 -4.0 -6.45 -2.55 -7.7 -0.8 -7.75 0.1 -7.7 1.05 -7.6 1.9 -7.4 2.85 -7.25 3.65 -6.95 4.55 -6.7 5.35 -6.4 6.15 -6.1 6.85 -5.75 7.55 -5.4 8.2 -5.05 8.85 -4.7 9.4 -4.4 9.85 -4.1 10.3 -3.8 10.65 -4.0 10.55 -4.4 10.3 -4.8 10.05 -5.0 9.95 L-7.4 8.45 Q-7.4 8.45 -7.5 8.45 -8.25 7.95 -12.65 5.1 -15.8 3.0 -17.8 1.75 -17.25 1.95 -16.0 2.4 -14.8 2.8 -14.1 3.05 -16.4 0.9 -17.2 0.0 -16.75 -0.55 -16.4 -1.0 -15.95 -1.6 -15.5 -2.15 -14.95 -2.8 -14.4 -3.4 -13.75 -4.05 -13.1 -4.7 -12.4 -5.4 -11.7 -6.05 -10.9 -6.75 -10.05 -7.4 -9.15 -8.1 -8.25 -8.7 -7.25 -9.4 -6.2 -10.0 -5.2 -10.6 -4.15 -11.15 -3.15 -11.65 -2.15 -12.1 -1.2 -12.5 -0.25 -12.85 0.65 -13.2 1.6 -13.5 2.45 -13.75 3.3 -14.0 4.1 -14.2 4.9 -14.4 5.6 -14.55 6.35 -14.65 6.95 -14.8 7.6 -14.9 8.85 -15.1 9.4 -15.1 9.6 -15.15 10.05 -15.3 10.5 -15.45 10.7 -15.5 15.25 -16.8 16.7 -17.1 16.35 -16.85 15.55 -16.2 14.9 -15.65 14.5 -15.4 14.25 -15.35 13.8 -15.3 13.4 -15.25 13.2 -15.2 13.5 -15.2 14.2 -15.2 14.25 -15.25 14.3 -15.25 14.3 -15.25 14.35 -15.3 14.4 -15.3 14.45 -15.35 14.45 -15.35 14.5 -15.4 14.8 -15.45 15.4 -15.5 16.0 -15.55 16.3 -15.6 21.15 -16.0 22.9 -16.1 22.65 -15.95 22.4 -15.85 22.2 -15.7 21.95 -15.6 21.7 -15.45 21.5 -15.35 21.25 -15.25 21.05 -15.1 20.8 -15.0 20.6 -14.9 20.35 -14.8 20.15 -14.7 19.95 -14.6 19.7 -14.5 19.5 -14.4 19.3 -14.3 19.8 -14.15 20.25 -14.0 20.7 -13.85 21.1 -13.7 21.5 -13.55 21.85 -13.4 22.2 -13.3 22.55 -13.15 22.8 -13.05 23.05 -12.9 23.3 -12.8 23.5 -12.7 23.7 -12.6 23.85 -12.55 24.0 -12.45 24.1 -12.4 24.5 -12.15 24.95 -11.9 25.3 -11.65 25.7 -11.35 26.05 -11.1 26.35 -10.85 26.65 -10.6 27.0 -10.3 27.25 -10.05 27.5 -9.8 27.75 -9.55 28.0 -9.3 28.2 -9.05 28.45 -8.8 28.6 -8.6 28.8 -8.4 28.45 -8.4 27.7 -8.45 26.9 -8.5 26.6 -8.5 26.65 -8.5 26.7 -8.45 26.75 -8.4 26.8 -8.35 26.85 -8.3 26.9 -8.25 26.95 -8.2 27.0 -8.15 27.05 -8.1 27.1 -8.0 27.15 -8.0 27.2 -7.9 27.25 -7.8 27.3 -7.75 27.35 -7.65 27.4 -7.6 L27.4 -7.6" fill="#000000" fill-rule="evenodd" stroke="none"/>
    <path d="M-5.1 9.95 Q-5.25 9.85 -5.45 9.75 -5.6 9.65 -5.75 9.55 -5.9 9.45 -6.05 9.4 -6.25 9.3 -6.35 9.2 -6.55 9.1 -6.65 9.0 -6.8 8.9 -6.95 8.8 -7.1 8.7 -7.25 8.6 -7.35 8.55 -7.5 8.45 -7.35 8.55 -5.1 9.95 L-5.1 9.95" fill="#000000" fill-rule="evenodd" stroke="none"/>
    <path d="M36.5 -12.65 L36.5 -12.65 36.5 -12.65" fill="#000000" fill-rule="evenodd" stroke="none"/>
    <path d="M14.6 -15.45 Q14.55 -15.4 14.55 -15.4 14.5 -15.35 14.45 -15.35 14.4 -15.3 14.35 -15.3 14.35 -15.3 14.3 -15.25 13.9 -15.25 13.3 -15.25 13.45 -15.3 13.45 -15.3 13.55 -15.3 13.6 -15.3 13.7 -15.35 13.75 -15.35 13.85 -15.35 13.9 -15.4 14.0 -15.4 14.05 -15.4 14.15 -15.4 14.25 -15.45 14.35 -15.45 14.4 -15.45 14.5 -15.45 14.6 -15.45 L14.6 -15.45" fill="#000000" fill-rule="evenodd" stroke="none"/>
    <path d="M14.6 -15.45 Q14.55 -15.4 14.55 -15.4 14.5 -15.35 14.45 -15.35 14.4 -15.3 14.35 -15.3 14.35 -15.3 14.3 -15.25 13.9 -15.25 13.3 -15.25 13.45 -15.3 13.45 -15.3 13.55 -15.3 13.6 -15.3 13.7 -15.35 13.75 -15.35 13.85 -15.35 13.9 -15.4 14.0 -15.4 14.05 -15.4 14.15 -15.4 14.25 -15.45 14.35 -15.45 14.4 -15.45 14.5 -15.45 14.6 -15.45 L14.6 -15.45" fill="#000000" fill-rule="evenodd" stroke="none"/>
  </g>
</svg>
