<?xml version="1.0" encoding="UTF-8" standalone="no"?>
<svg xmlns:xlink="http://www.w3.org/1999/xlink" height="20.85px" width="45.75px" xmlns="http://www.w3.org/2000/svg">
  <g transform="matrix(1.0, 0.0, 0.0, 1.0, 22.9, 10.4)">
    <path d="M-15.6 2.7 Q-16.9 1.4 -17.9 0.2 -18.75 -0.8 -19.4 -1.75 -19.8 -2.4 -20.25 -3.2 -20.75 -4.1 -20.8 -4.2 -21.05 -4.65 -21.3 -4.8 -21.6 -5.0 -22.05 -5.05 -22.5 -5.1 -23.3 -5.0 -23.9 -4.95 -25.3 -4.7 -25.25 -4.85 -25.2 -5.0 -25.15 -5.15 -25.1 -5.25 -25.05 -5.4 -24.95 -5.55 -24.9 -5.7 -24.85 -5.9 -24.75 -6.05 -24.65 -6.2 -24.6 -6.35 -24.5 -6.5 -24.4 -6.65 -24.3 -6.85 -24.2 -7.0 -24.1 -7.15 -23.95 -7.35 -23.95 -7.35 -23.85 -7.5 -23.75 -7.6 -23.65 -7.75 -23.5 -7.9 -23.35 -8.05 -23.2 -8.2 -23.05 -8.4 -22.85 -8.55 -22.7 -8.7 -22.5 -8.9 -22.25 -9.05 -22.05 -9.2 -21.8 -9.35 -21.55 -9.5 -21.35 -9.6 -21.2 -9.7 -21.0 -9.75 -20.8 -9.85 -20.65 -9.9 -20.5 -9.95 -20.3 -10.0 -20.15 -10.05 -20.05 -10.05 -19.9 -10.1 -19.75 -10.1 -19.65 -10.15 -19.55 -10.15 -19.4 -10.15 -19.35 -10.15 -19.25 -10.2 -17.1 -10.45 -14.95 -10.6 -13.0 -10.75 -11.1 -10.9 -9.4 -11.0 -7.75 -11.05 -6.3 -11.1 -4.9 -11.15 -3.75 -11.15 -2.65 -11.15 -1.75 -11.15 -1.0 -11.15 -0.4 -11.15 0.05 -11.15 0.25 -11.15 0.4 -11.1 3.6 -10.9 5.5 -10.75 7.8 -10.55 9.35 -10.35 11.05 -10.1 12.25 -9.8 13.45 -9.5 14.3 -9.1 15.2 -8.7 15.9 -8.1 16.55 -7.55 17.15 -6.75 17.7 -6.05 18.4 -4.95 18.35 -5.0 19.85 -2.6 17.6 -3.5 15.2 -4.25 12.9 -4.95 10.5 -5.5 8.15 -6.05 5.7 -6.4 3.3 -6.75 0.85 -6.95 -1.55 -7.1 -4.0 -7.15 -6.45 -7.2 -8.9 -7.05 -11.3 -6.95 -13.8 -6.7 -16.2 -6.45 -18.65 -6.05 -18.6 -5.8 -18.6 -5.6 -18.55 -5.35 -18.5 -5.1 -18.45 -4.8 -18.4 -4.55 -18.35 -4.3 -18.25 -4.0 -18.2 -3.7 -18.15 -3.45 -18.05 -3.15 -18.0 -2.85 -17.9 -2.55 -17.8 -2.25 -17.7 -1.9 -17.6 -1.6 -17.5 -1.25 -17.35 -0.95 -17.25 -0.65 -17.1 -0.35 -17.0 -0.05 -16.85 0.25 -16.75 0.55 -16.6 0.8 -16.5 1.05 -16.35 1.35 -16.25 1.6 -16.1 1.8 -16.0 2.05 -15.85 2.25 -15.75 2.5 -15.6 2.7 L-15.6 2.7" fill="#000000" fill-rule="evenodd" stroke="none"/>
    <path d="M12.05 -10.65 Q11.35 -10.8 10.7 -10.9 10.0 -11.0 9.25 -11.15 8.55 -11.25 7.8 -11.35 7.05 -11.45 6.35 -11.55 5.55 -11.65 4.8 -11.7 4.0 -11.8 3.2 -11.85 2.4 -11.95 1.6 -12.0 0.75 -12.05 -0.05 -12.1 -1.0 -12.15 -1.95 -12.15 -2.85 -12.2 -3.75 -12.2 -4.65 -12.2 -5.55 -12.15 -6.45 -12.15 -7.3 -12.1 -8.15 -12.1 -9.0 -12.05 -9.8 -12.0 -10.6 -11.95 -11.4 -11.85 -12.2 -11.8 -12.95 -11.7 -13.7 -11.65 -12.1 -11.95 -10.55 -12.2 -8.95 -12.45 -7.35 -12.6 -5.7 -12.8 -4.1 -12.85 -2.45 -12.95 -0.85 -12.95 0.85 -12.9 2.45 -12.75 4.1 -12.65 5.7 -12.35 7.35 -12.05 8.9 -11.65 10.5 -11.2 12.05 -10.65 L12.05 -10.65" fill="#000000" fill-rule="evenodd" stroke="none"/>
    <path d="M-9.25 7.35 Q-8.9 7.5 -8.55 7.65 -8.2 7.8 -7.8 7.95 -7.45 8.1 -7.05 8.25 -6.65 8.4 -6.25 8.5 -5.8 8.65 -5.35 8.8 -4.9 8.9 -4.45 9.05 -4.0 9.15 -3.55 9.3 -3.05 9.4 -2.55 9.5 -2.05 9.6 -1.5 9.7 -1.05 9.8 -0.55 9.85 -0.05 9.9 0.45 9.95 0.9 10.0 1.35 10.05 1.8 10.1 2.25 10.1 2.7 10.15 3.1 10.15 3.5 10.15 3.95 10.15 4.3 10.15 4.7 10.15 4.7 10.2 4.7 10.25 4.05 10.5 3.2 10.6 2.35 10.75 1.4 10.75 0.5 10.75 -0.55 10.65 -1.55 10.55 -2.55 10.35 -3.55 10.15 -4.5 9.85 -5.5 9.55 -6.35 9.2 -7.25 8.8 -8.0 8.35 -8.75 7.9 -9.25 7.35 L-9.25 7.35" fill="#000000" fill-rule="evenodd" stroke="none"/>
  </g>
</svg>
