<?xml version="1.0" encoding="UTF-8" standalone="no"?>
<svg xmlns:xlink="http://www.w3.org/1999/xlink" height="25.8px" width="22.7px" xmlns="http://www.w3.org/2000/svg">
  <g transform="matrix(1.0, 0.0, 0.0, 1.0, 2.95, 10.4)">
    <path d="M20.7 -6.2 Q20.8 -5.75 20.9 -5.3 21.0 -4.85 21.1 -4.35 21.2 -3.8 21.3 -3.25 21.4 -2.65 21.45 -2.1 21.5 -1.45 21.55 -0.8 21.6 -0.15 21.6 0.55 21.6 1.25 21.6 1.95 21.55 2.7 21.5 3.45 21.45 4.15 21.35 4.9 21.25 5.55 21.1 6.25 21.0 6.85 20.85 7.5 20.7 8.1 20.55 8.7 20.4 9.2 20.2 9.75 20.05 10.25 19.85 10.75 19.7 11.2 19.5 11.65 19.35 12.05 19.2 12.45 18.35 12.75 17.55 13.0 16.75 13.25 15.95 13.45 15.15 13.6 14.4 13.8 13.7 13.95 12.95 14.05 12.3 14.15 11.6 14.25 11.0 14.3 10.35 14.35 9.8 14.4 9.2 14.45 8.7 14.5 8.15 14.5 7.7 14.5 7.35 14.5 6.9 14.5 6.5 14.5 5.95 14.5 5.45 14.5 4.9 14.5 4.35 14.45 3.75 14.4 3.15 14.3 2.45 14.25 1.8 14.15 1.1 14.0 0.4 13.85 -0.35 13.7 -1.05 13.5 -1.6 13.35 -2.1 13.2 -2.6 13.05 -3.1 12.85 -3.6 12.7 -4.05 12.5 -4.5 12.35 -4.95 12.15 -5.35 11.95 -5.75 11.75 -6.15 11.6 -6.5 11.4 -6.85 11.25 -7.2 11.05 -7.5 10.9 -7.8 10.7 -8.25 9.7 -8.6 8.7 -8.9 7.8 -9.1 6.9 -9.3 6.1 -9.4 5.3 -9.45 4.6 -9.45 3.95 -9.45 3.35 -9.4 2.75 -9.35 2.25 -9.25 1.8 -9.15 1.4 -9.05 1.05 -8.95 0.75 -8.85 0.5 -8.35 -0.8 -7.4 -1.95 -6.45 -3.1 -5.1 -4.05 -3.8 -5.05 -2.15 -5.75 -0.45 -6.55 1.5 -7.0 3.45 -7.55 5.65 -7.75 7.9 -7.95 10.3 -7.9 12.8 -7.8 15.35 -7.4 18.0 -6.95 20.7 -6.2 L20.7 -6.2" fill="#ffffff" fill-rule="evenodd" stroke="none"/>
  </g>
</svg>
