<?xml version="1.0" encoding="UTF-8" standalone="no"?>
<svg xmlns:xlink="http://www.w3.org/1999/xlink" height="100.0px" width="100.0px" xmlns="http://www.w3.org/2000/svg">
  <g transform="matrix(1.0, 0.0, 0.0, 1.0, 50.0, 50.0)">
    <path d="M12.25 0.9 Q12.35 0.8 14.05 0.35 14.05 0.35 14.35 0.25 14.5 0.25 14.6 0.2 14.7 0.15 14.8 0.15 14.9 0.15 14.95 0.1 15.0 0.1 15.05 0.1 15.15 0.1 15.2 0.1 15.2 0.1 15.25 0.15 15.3 0.15 15.35 0.15 15.4 0.2 15.4 0.2 15.4 0.2 15.45 0.25 15.45 0.3 15.5 0.35 15.5 0.4 15.55 0.45 15.55 0.55 15.6 0.65 15.6 0.75 15.6 0.9 15.65 1.05 15.65 1.2 15.65 1.4 15.65 1.6 15.65 1.7 15.65 1.8 15.65 1.9 15.65 2.0 15.65 2.15 15.65 2.25 15.6 2.35 15.6 2.5 15.6 2.6 15.6 2.75 15.55 2.9 15.55 3.05 15.5 3.2 15.5 3.35 15.45 3.5 15.45 3.65 15.4 3.7 15.3 3.7 15.25 3.75 15.15 3.75 15.1 3.8 15.0 3.85 14.9 3.9 14.8 3.9 14.75 3.95 14.65 4.0 14.55 4.0 14.45 4.05 14.3 4.1 14.2 4.1 14.1 4.15 14.0 4.2 13.8 4.25 13.7 4.25 13.6 4.3 13.5 4.3 13.35 4.35 13.25 4.35 13.15 4.4 13.1 4.4 13.0 4.4 12.9 4.4 12.85 4.4 12.75 4.4 12.7 4.4 12.65 4.35 12.55 4.3 12.5 4.3 12.5 4.3 12.45 4.25 12.45 4.25 12.4 4.2 12.4 4.2 12.35 4.15 12.35 4.1 12.3 4.05 12.3 3.95 12.25 3.9 12.25 3.8 12.2 3.7 12.2 3.55 12.15 3.45 12.15 3.3 12.1 3.1 12.05 2.75 12.05 2.7 12.05 2.45 12.0 2.3 12.0 2.15 12.0 2.0 12.0 1.85 12.0 1.7 12.0 1.6 12.0 1.45 12.05 1.35 12.05 1.25 12.1 1.15 12.15 1.05 12.2 1.0 12.25 0.9 L12.25 0.9" fill="#b28e86" fill-rule="evenodd" stroke="none"/>
  </g>
</svg>
