<?xml version="1.0" encoding="UTF-8" standalone="no"?>
<svg xmlns:xlink="http://www.w3.org/1999/xlink" height="18.55px" width="18.8px" xmlns="http://www.w3.org/2000/svg">
  <g transform="matrix(1.0, 0.0, 0.0, 1.0, 9.4, 9.25)">
    <path d="M4.45 2.35 Q4.45 2.35 4.4 2.35 4.3 2.35 4.3 2.3 4.25 2.3 4.2 2.3 4.15 2.3 4.1 2.3 4.0 2.25 3.95 2.25 3.9 2.2 3.85 2.2 3.75 2.15 3.7 2.15 3.65 2.1 3.6 2.05 3.5 2.0 3.45 1.95 3.4 1.9 3.35 1.85 3.25 1.75 3.2 1.7 3.15 1.65 3.1 1.55 3.05 1.45 3.0 1.4 3.0 1.3 2.95 1.2 2.9 1.1 2.85 1.0 2.8 0.9 2.75 0.75 2.75 0.7 2.7 0.65 2.7 0.6 2.65 0.6 2.65 0.55 2.65 0.5 2.6 0.45 2.6 0.45 2.6 0.4 2.6 0.35 2.55 0.35 2.55 0.3 2.55 0.3 2.55 0.25 2.6 0.25 2.65 0.2 2.8 0.05 2.8 0.1 2.85 0.05 2.95 0.0 3.0 -0.1 3.1 -0.15 3.2 -0.2 3.3 -0.25 3.4 -0.3 3.55 -0.35 3.65 -0.4 3.8 -0.45 3.9 -0.5 4.05 -0.55 4.15 -0.6 4.3 -0.6 4.4 -0.65 4.5 -0.65 4.6 -0.65 4.7 -0.7 4.8 -0.7 4.9 -0.7 5.0 -0.7 5.1 -0.7 5.15 -0.7 5.25 -0.7 5.3 -0.7 5.4 -0.7 5.45 -0.7 5.5 -0.7 5.55 -0.65 5.55 -0.55 5.6 -0.5 5.65 -0.45 5.65 -0.4 5.7 -0.35 5.7 -0.3 5.75 -0.2 5.75 -0.15 5.75 -0.1 5.8 -0.05 5.8 0.0 5.8 0.0 5.8 0.05 5.85 0.1 5.85 0.15 5.85 0.25 5.9 0.25 5.9 0.35 5.9 0.4 5.9 0.45 5.95 0.55 5.95 0.6 5.95 0.7 5.95 0.75 5.95 0.85 5.95 0.95 5.95 1.0 5.95 1.1 5.9 1.2 5.9 1.3 5.9 1.4 5.9 1.4 5.85 1.5 5.85 1.55 5.85 1.55 5.8 1.6 5.8 1.65 5.8 1.7 5.75 1.75 5.75 1.8 5.7 1.85 5.7 1.9 5.65 1.9 5.65 1.95 5.6 2.0 5.55 2.05 5.55 2.1 5.5 2.15 5.4 2.2 5.35 2.25 5.25 2.25 5.2 2.3 5.1 2.3 5.05 2.3 4.95 2.35 4.9 2.35 4.8 2.35 4.75 2.35 4.65 2.35 4.6 2.35 4.55 2.35 4.5 2.35 4.45 2.35 L4.45 2.35" fill="#000000" fill-rule="evenodd" stroke="none"/>
  </g>
</svg>
