<?xml version="1.0" encoding="UTF-8" standalone="no"?>
<svg xmlns:xlink="http://www.w3.org/1999/xlink" height="11.3px" width="10.45px" xmlns="http://www.w3.org/2000/svg">
  <g transform="matrix(1.0, 0.0, 0.0, 1.0, 5.25, 5.65)">
    <path d="M2.35 0.4 Q2.35 0.5 2.35 0.55 2.35 0.65 2.35 0.7 2.35 0.8 2.35 0.85 2.35 0.95 2.35 1.05 2.35 1.1 2.35 1.2 2.35 1.25 2.35 1.35 2.35 1.4 2.35 1.5 2.3 1.55 2.3 1.65 2.3 1.8 2.25 1.95 2.2 2.1 2.15 2.25 2.1 2.35 2.0 2.5 1.9 2.6 1.8 2.7 1.7 2.8 1.6 2.9 1.45 3.0 1.35 3.05 1.2 3.1 1.05 3.15 0.9 3.2 0.75 3.2 0.65 3.2 0.55 3.25 0.45 3.25 0.35 3.25 0.25 3.25 0.15 3.25 0.05 3.25 -0.05 3.25 -0.15 3.25 -0.25 3.25 -0.35 3.25 -0.45 3.2 -0.55 3.2 -0.65 3.15 -0.75 3.15 -0.85 3.1 -1.0 3.0 -1.15 2.95 -1.3 2.85 -1.4 2.75 -1.55 2.65 -1.65 2.5 -1.75 2.4 -1.85 2.3 -1.95 2.15 -2.05 2.0 -2.15 1.9 -2.2 1.75 -2.3 1.6 -2.35 1.45 -2.4 1.3 -2.45 1.1 -2.45 1.05 -2.5 0.95 -2.55 0.8 -2.55 0.75 -2.6 0.55 -2.6 0.4 -2.6 0.2 -2.65 0.0 -2.65 -0.15 -2.6 -0.35 -2.6 -0.55 -2.6 -0.7 -2.55 -0.9 -2.5 -1.05 -2.5 -1.25 -2.4 -1.4 -2.35 -1.6 -2.3 -1.75 -2.2 -1.95 -2.1 -2.1 -2.0 -2.3 -1.8 -2.5 -1.65 -2.65 -1.45 -2.8 -1.25 -2.9 -1.05 -3.0 -0.8 -3.1 -0.6 -3.15 -0.35 -3.2 -0.1 -3.2 0.15 -3.2 0.35 -3.15 0.6 -3.1 0.8 -3.0 1.05 -2.9 1.25 -2.75 1.35 -2.65 1.45 -2.6 1.5 -2.5 1.6 -2.4 1.65 -2.35 1.7 -2.25 1.75 -2.15 1.8 -2.05 1.85 -1.95 1.9 -1.85 1.95 -1.75 2.0 -1.6 2.05 -1.55 2.05 -1.4 2.1 -1.35 2.15 -1.2 2.2 -1.1 2.2 -1.0 2.25 -0.9 2.25 -0.8 2.25 -0.7 2.3 -0.6 2.3 -0.5 2.3 -0.4 2.3 -0.3 2.35 -0.2 2.35 -0.1 2.35 0.0 2.35 0.1 2.35 0.2 2.35 0.3 2.35 0.4 L2.35 0.4" fill="#010101" fill-rule="evenodd" stroke="none"/>
  </g>
</svg>
