<?xml version="1.0" encoding="UTF-8" standalone="no"?>
<svg xmlns:xlink="http://www.w3.org/1999/xlink" height="200.0px" width="200.0px" xmlns="http://www.w3.org/2000/svg">
  <g transform="matrix(1.0, 0.0, 0.0, 1.0, 100.0, 100.0)">
    <path d="M5.5 -1.85 Q5.45 -2.05 5.45 -2.1 5.45 -2.25 5.4 -2.35 5.4 -2.5 5.35 -2.6 5.35 -2.7 5.3 -2.85 5.3 -2.95 5.25 -3.05 5.2 -3.2 5.15 -3.3 5.15 -3.4 5.1 -3.55 5.05 -3.65 4.95 -3.75 4.95 -3.8 4.9 -3.85 4.9 -3.95 4.85 -4.0 4.8 -4.1 4.75 -4.2 4.7 -4.3 4.65 -4.4 4.55 -4.5 4.5 -4.6 4.4 -4.7 4.35 -4.85 4.25 -4.95 4.15 -5.1 4.0 -5.2 3.9 -5.35 3.8 -5.45 3.75 -5.5 3.7 -5.55 3.65 -5.65 3.55 -5.7 3.45 -5.75 3.4 -5.85 3.3 -5.9 3.2 -6.0 3.1 -6.05 3.05 -6.15 2.9 -6.2 2.8 -6.25 2.7 -6.35 2.6 -6.4 2.45 -6.45 2.3 -6.5 2.15 -6.55 2.05 -6.65 1.9 -6.65 1.75 -6.7 1.65 -6.75 1.5 -6.75 1.4 -6.8 1.25 -6.8 1.15 -6.8 1.05 -6.8 0.9 -6.85 0.8 -6.85 0.7 -6.85 0.65 -6.85 0.5 -6.85 0.35 -6.85 0.25 -6.85 0.05 -6.85 -0.1 -6.8 -0.25 -6.8 -0.4 -6.8 -0.55 -6.75 -0.7 -6.75 -0.9 -6.7 -1.0 -6.65 -1.15 -6.6 -1.25 -6.55 -1.35 -6.5 -1.45 -6.4 -1.5 -6.35 -1.55 -6.25 -1.55 -6.2 -1.55 -6.15 -1.5 -6.1 -1.5 -6.0 -1.5 -5.9 -1.5 -5.75 -1.5 -5.7 -1.5 -5.65 -1.5 -5.6 -1.5 -5.55 -1.45 -5.5 -1.45 -5.45 -1.45 -5.4 -1.45 -5.4 -1.45 -5.35 -1.45 -5.3 -1.45 -5.25 -1.45 -5.25 -1.45 -5.2 -1.5 -5.2 -1.5 -5.15 -1.5 -5.1 -1.5 -5.05 -1.55 -5.0 -1.55 -4.95 -1.55 -4.9 -1.6 -4.9 -1.6 -4.85 -1.6 -4.85 -1.65 -4.8 -1.65 -4.75 -1.65 -4.75 -1.7 -4.7 -1.7 -4.65 -1.7 -4.65 -1.7 -4.6 -1.75 -4.55 -1.75 -4.5 -1.75 -4.4 -1.65 -4.1 -1.6 -4.0 -1.6 -3.95 -1.55 -3.9 -1.55 -3.85 -1.5 -3.8 -1.45 -3.75 -1.45 -3.7 -1.4 -3.65 -1.4 -3.6 -1.35 -3.6 -1.35 -3.55 -1.35 -3.5 -1.3 -3.5 -1.3 -3.45 -1.3 -3.4 -1.3 -3.35 -1.3 -3.3 -1.3 -3.25 -1.3 -3.25 -1.35 -3.2 -1.35 -3.15 -1.35 -3.1 -1.4 -3.05 -1.4 -3.05 -1.45 -3.0 -1.5 -2.95 -1.5 -2.9 -1.55 -2.9 -1.6 -2.85 -1.65 -2.85 -1.65 -2.8 -1.7 -2.8 -1.7 -2.8 -1.7 -2.8 -1.75 -2.8 -1.75 -2.8 -1.8 -2.8 -1.8 -2.8 -1.85 -2.75 -1.9 -2.75 -1.9 -2.75 -1.95 -2.75 -2.0 -2.75 -2.05 -2.8 -2.1 -2.8 -2.1 -2.8 -2.15 -2.8 -2.2 -2.85 -2.25 -2.85 -2.25 -2.9 -2.3 -2.9 -2.35 -2.95 -2.35 -3.0 -2.4 -3.0 -2.4 -3.05 -2.4 -3.1 -2.4 -3.1 -2.45 -3.2 -2.5 -3.25 -2.5 -3.25 -2.55 -3.35 -2.55 -3.4 -2.6 -3.45 -2.65 -3.5 -2.5 -3.5 -3.05 -3.9 -3.15 -3.95 -3.25 -4.0 -3.35 -4.05 -3.45 -4.1 -3.55 -4.1 -3.7 -4.1 -3.8 -4.15 -3.9 -4.1 -4.0 -4.1 -4.1 -4.1 -4.2 -4.1 -4.3 -4.05 -4.4 -4.05 -4.45 -4.0 -4.5 -4.0 -4.55 -4.0 -4.65 -3.8 -4.75 -3.6 -4.85 -3.4 -4.9 -3.25 -4.95 -3.1 -5.0 -2.95 -5.05 -2.85 -5.05 -2.75 -5.1 -2.65 -5.1 -2.55 -5.1 -2.5 -5.05 -2.45 -5.05 -2.35 -5.05 -2.35 -5.0 -2.3 -5.0 -2.25 -4.95 -2.2 -4.9 -2.2 -4.85 -2.2 -4.75 -2.15 -4.7 -2.15 -4.6 -2.2 -4.75 -2.15 -4.45 -2.2 -4.3 -2.2 -4.2 -2.2 -4.1 -2.2 -4.0 -2.2 -3.85 -2.2 -3.75 -2.15 -3.6 -2.15 -3.5 -2.05 -3.45 -2.05 -3.45 -2.05 -3.4 -2.0 -3.35 -2.0 -3.3 -2.0 -3.25 -1.95 -3.2 -1.95 -3.15 -1.9 -3.1 -1.85 -3.1 -1.85 -3.05 -1.8 -3.0 -1.75 -3.0 -1.75 -2.95 -1.7 -2.95 -1.65 -2.95 -1.6 -2.95 -1.55 -2.95 -1.5 -2.95 -1.45 -3.0 -1.4 -3.05 -1.35 -3.05 -1.3 -3.1 -1.25 -3.15 -1.2 -3.2 -1.2 -3.25 -1.15 -3.3 -1.1 -3.4 -1.05 -3.45 -1.05 -3.5 -1.0 -3.55 -1.0 -3.6 -0.95 -3.65 -0.95 -3.75 -0.9 -3.8 -0.9 -3.85 -0.9 -3.9 -0.9 -3.95 -0.9 -4.3 -0.9 -4.1 -0.9 -4.15 -0.9 -4.15 -0.9 -4.2 -0.9 -4.25 -0.9 -4.3 -0.85 -4.35 -0.85 -4.4 -0.85 -4.45 -0.8 -4.5 -0.8 -4.5 -0.75 -4.55 -0.75 -4.6 -0.7 -4.6 -0.7 -4.6 -0.65 -4.65 -0.65 -4.65 -0.6 -4.7 -0.55 -4.7 -0.55 -4.7 -0.55 -4.7 -0.5 -4.75 -0.5 -4.75 -0.45 -4.8 -0.45 -4.85 -0.4 -4.9 -0.35 -4.95 -0.35 -5.05 -0.3 -5.1 -0.3 -5.15 -0.25 -5.2 -0.25 -5.25 -0.25 -5.35 -0.25 -5.3 -0.25 -5.45 -0.25 -5.55 -0.25 -5.55 -0.25 -5.65 -0.25 -5.7 -0.25 -5.75 -0.2 -5.8 -0.2 -5.9 -0.15 -6.0 -0.05 -6.1 0.05 -6.15 0.2 -6.25 0.3 -6.3 0.5 -6.35 0.65 -6.35 0.8 -6.4 1.0 -6.4 1.2 -6.45 1.35 -6.45 1.55 -6.45 1.7 -6.4 1.9 -6.4 2.05 -6.4 2.2 -6.4 2.2 -6.35 2.35 -6.35 2.45 -6.3 2.55 -6.25 2.75 -6.2 2.9 -6.1 3.1 -6.05 3.3 -5.9 3.5 -5.8 3.7 -5.65 3.95 -5.5 4.15 -5.3 4.35 -5.1 4.5 -4.85 4.7 -4.6 4.8 -4.5 4.85 -4.4 4.9 -4.3 4.9 -4.2 4.95 -4.15 4.95 -4.05 5.0 -3.95 5.0 -3.9 5.0 -3.8 5.05 -3.7 5.05 -3.65 5.05 -3.6 5.05 -3.5 5.05 -3.45 5.05 -3.4 5.05 -3.35 5.1 -3.2 5.1 -3.05 5.1 -2.95 5.1 -2.8 5.1 -2.7 5.05 -2.6 5.05 -2.5 5.0 -2.35 5.0 -2.3 5.0 -2.15 4.95 -2.0 4.9 -1.95 4.9 -1.85 4.85 -1.75 4.85 -1.65 4.8 -1.55 4.8 -1.35 4.75 -1.15 4.75 -1.0 4.75 -0.85 4.8 -0.7 4.8 -0.55 4.85 -0.45 4.85 -0.3 4.9 0.2 5.1 0.0 5.0 0.2 5.1 0.35 5.15 0.55 5.2 0.75 5.2 0.95 5.25 1.25 5.3 1.5 5.3 1.55 5.3 1.7 5.35 1.85 5.35 2.05 5.35 2.25 5.35 2.45 5.3 2.65 5.3 2.9 5.25 3.1 5.25 3.35 5.2 3.55 5.1 3.8 5.0 4.0 4.9 4.25 4.8 4.45 4.65 4.65 4.5 4.8 4.35 4.95 4.25 5.1 4.05 5.2 3.95 5.35 3.75 5.45 3.6 5.5 3.45 5.6 3.35 5.65 3.2 5.75 3.05 5.8 2.95 5.8 2.8 5.85 2.7 5.9 2.65 5.9 2.55 5.95 2.45 5.95 2.3 5.95 2.15 5.95 2.0 5.95 1.8 5.95 1.6 5.95 1.35 5.9 1.1 5.9 0.85 5.85 0.5 5.8 0.2 5.75 -0.2 5.7 -0.5 5.65 -0.95 5.6 -1.3 5.5 -1.85 L5.5 -1.85 M-1.4 1.0 Q-1.4 1.1 -1.45 1.15 -1.5 1.2 -1.5 1.3 -1.55 1.35 -1.6 1.4 -1.65 1.4 -1.75 1.45 -1.8 1.5 -1.85 1.5 -1.95 1.55 -2.0 1.55 -2.05 1.55 -2.15 1.55 -2.2 1.55 -2.3 1.5 -2.35 1.5 -2.4 1.45 -2.45 1.4 -2.5 1.4 -2.55 1.35 -2.6 1.3 -2.6 1.25 -2.65 1.2 -2.65 1.15 -2.65 1.1 -2.65 1.05 -2.65 1.0 -2.65 0.9 -2.65 0.85 -2.6 0.8 -2.55 0.75 -2.55 0.7 -2.5 0.7 -2.5 0.65 -2.45 0.6 -2.45 0.6 -2.4 0.55 -2.4 0.5 -2.4 0.5 -2.4 0.45 -2.35 0.4 -2.3 0.35 -2.25 0.3 -2.2 0.25 -2.15 0.25 -2.1 0.2 -2.05 0.2 -2.0 0.2 -1.95 0.25 -1.9 0.25 -1.85 0.25 -1.85 0.25 -1.8 0.3 -1.75 0.3 -1.7 0.3 -1.65 0.3 -1.65 0.35 -1.6 0.35 -1.55 0.4 -1.55 0.4 -1.5 0.45 -1.5 0.5 -1.45 0.5 -1.45 0.55 -1.4 0.6 -1.4 0.6 -1.4 0.65 -1.4 0.7 -1.35 0.7 -1.35 0.75 -1.35 0.8 -1.35 0.85 -1.35 0.85 -1.35 0.9 -1.35 0.95 -1.35 1.0 -1.4 1.0 L-1.4 1.0" fill="#a1a0fd" fill-rule="evenodd" stroke="none"/>
  </g>
</svg>
