<?xml version="1.0" encoding="UTF-8" standalone="no"?>
<svg xmlns:xlink="http://www.w3.org/1999/xlink" height="15.0px" width="11.8px" xmlns="http://www.w3.org/2000/svg">
  <g transform="matrix(1.0, 0.0, 0.0, 1.0, 5.9, 7.1)">
    <path d="M3.8 0.0 Q3.8 0.3 3.75 0.6 3.75 0.9 3.7 1.15 3.65 1.45 3.6 1.7 3.5 1.95 3.45 2.25 3.35 2.5 3.25 2.75 3.15 3.0 3.0 3.2 2.85 3.45 2.7 3.65 2.55 3.9 2.35 4.1 2.05 4.45 1.7 4.7 1.4 4.95 1.05 5.1 0.7 5.25 0.3 5.35 -0.05 5.4 -0.45 5.4 -0.8 5.35 -1.2 5.25 -1.55 5.15 -1.9 4.95 -2.25 4.8 -2.55 4.5 -2.9 4.2 -3.15 3.85 -3.45 3.45 -3.7 2.95 -3.95 2.5 -4.1 2.0 -4.25 1.45 -4.35 0.95 -4.4 0.4 -4.4 -0.15 -4.4 -0.65 -4.3 -1.2 -4.2 -1.75 -4.0 -2.2 -3.85 -2.7 -3.6 -3.15 -3.35 -3.6 -3.0 -4.0 -2.7 -4.35 -2.35 -4.6 -2.05 -4.85 -1.65 -5.05 -1.3 -5.2 -0.9 -5.25 -0.55 -5.35 -0.15 -5.35 0.2 -5.3 0.6 -5.2 0.95 -5.1 1.3 -4.9 1.65 -4.7 2.0 -4.45 2.3 -4.15 2.6 -3.8 2.75 -3.6 2.9 -3.4 3.0 -3.15 3.1 -2.95 3.25 -2.7 3.35 -2.5 3.4 -2.25 3.5 -2.0 3.55 -1.8 3.6 -1.55 3.7 -1.3 3.7 -1.05 3.75 -0.8 3.75 -0.55 3.8 -0.3 3.8 0.0 L3.8 0.0" fill="#010101" fill-rule="evenodd" stroke="none"/>
    <path d="M-5.1 4.3 Q-5.15 4.25 -5.25 4.05 -5.35 3.9 -5.4 3.8 -5.5 3.7 -5.55 3.6 -5.65 3.45 -5.7 3.35 -5.75 3.2 -5.8 3.1 -5.9 2.95 -5.9 2.85 -5.95 2.75 -6.0 2.6 -6.05 2.5 -6.05 2.35 -6.1 1.95 -6.15 1.6 -6.2 1.2 -6.2 0.85 -6.25 0.45 -6.25 0.1 -6.2 -0.3 -6.15 -0.65 -6.1 -1.05 -6.05 -1.4 -5.95 -1.75 -5.85 -2.15 -5.75 -2.5 -5.6 -2.85 -5.45 -3.2 -5.25 -3.6 -5.25 -3.65 -5.2 -3.7 -5.15 -3.75 -5.15 -3.75 -5.1 -3.8 -5.1 -3.85 -5.05 -3.9 -5.05 -3.95 -5.0 -3.95 -5.0 -4.0 -4.95 -4.05 -4.9 -4.1 -4.85 -4.15 -4.85 -4.15 -4.8 -4.2 -4.75 -4.25 -5.1 -3.45 -5.2 -3.25 -5.3 -3.0 -5.35 -2.75 -5.45 -2.5 -5.5 -2.2 -5.55 -1.95 -5.6 -1.7 -5.65 -1.45 -5.65 -1.2 -5.7 -0.95 -5.7 -0.65 -5.75 -0.4 -5.75 -0.15 -5.75 0.1 -5.75 0.4 -5.8 0.6 -5.8 0.9 -5.8 1.1 -5.8 1.3 -5.8 1.5 -5.8 1.7 -5.75 1.9 -5.75 2.1 -5.7 2.3 -5.7 2.5 -5.65 2.7 -5.6 2.9 -5.55 3.05 -5.45 3.25 -5.4 3.45 -5.3 3.65 -5.25 3.85 -5.15 4.0 -5.1 4.05 -5.1 4.05 -5.1 4.1 -5.1 4.15 -5.05 4.15 -5.1 4.2 -5.1 4.25 -5.1 4.3 L-5.1 4.3" fill="#0d0d0d" fill-rule="evenodd" stroke="none"/>
    <path d="M5.25 3.95 Q5.25 3.9 5.25 3.9 5.25 3.85 5.25 3.8 5.25 3.8 5.25 3.75 5.25 3.7 5.25 3.65 5.25 3.65 5.25 3.6 5.25 3.55 5.25 3.55 5.25 3.5 5.25 3.45 5.25 3.45 5.25 3.4 5.5 1.0 5.4 -0.3 5.4 -0.55 5.35 -0.8 5.3 -1.05 5.25 -1.3 5.2 -1.5 5.15 -1.75 5.1 -2.0 5.0 -2.2 4.95 -2.45 4.85 -2.65 4.75 -2.9 4.6 -3.1 4.5 -3.3 4.4 -3.5 4.25 -3.7 4.1 -3.95 4.2 -3.95 4.25 -3.95 4.25 -3.95 4.3 -3.85 4.45 -3.65 4.6 -3.45 4.75 -3.25 4.85 -3.05 5.0 -2.85 5.1 -2.65 5.25 -2.45 5.3 -2.25 5.4 -2.0 5.5 -1.8 5.6 -1.6 5.65 -1.35 5.7 -1.1 5.75 -0.9 5.8 -0.65 5.8 -0.4 5.85 -0.15 5.85 0.15 5.85 0.45 5.85 0.7 5.8 0.95 5.8 1.25 5.75 1.5 5.75 1.8 5.7 2.05 5.65 2.35 5.6 2.6 5.55 2.85 5.5 3.1 5.45 3.4 5.4 3.65 5.3 3.95 5.3 3.95 5.25 3.95 L5.25 3.95" fill="#0d0d0d" fill-rule="evenodd" stroke="none"/>
    <path d="M-6.8 2.1 Q-6.95 1.85 -7.05 1.6 -7.15 1.35 -7.2 1.1 -7.25 0.85 -7.25 0.6 -7.25 0.35 -7.2 0.1 -7.2 -0.15 -7.15 -0.4 -7.1 -0.65 -7.0 -0.9 -6.9 -1.1 -6.8 -1.35 -6.7 -1.6 -6.55 -1.85 -6.95 0.95 -6.8 2.1 L-6.8 2.1" fill="#0d0d0d" fill-rule="evenodd" stroke="none"/>
    <path d="M6.35 -2.15 Q6.5 -2.05 6.6 -1.9 6.7 -1.7 6.8 -1.5 6.9 -1.3 6.95 -1.05 7.0 -0.8 7.0 -0.55 7.05 -0.3 7.05 -0.05 7.05 0.2 7.0 0.45 7.0 0.75 6.9 0.95 6.85 1.2 6.75 1.4 6.75 1.15 6.75 0.95 6.75 0.7 6.7 0.5 6.7 0.25 6.7 0.05 6.7 -0.15 6.65 -0.4 6.65 -0.6 6.6 -0.8 6.6 -1.05 6.55 -1.25 6.5 -1.5 6.45 -1.7 6.4 -1.95 6.35 -2.15 L6.35 -2.15" fill="#0d0d0d" fill-rule="evenodd" stroke="none"/>
  </g>
</svg>
