<?xml version="1.0" encoding="UTF-8" standalone="no"?>
<svg xmlns:xlink="http://www.w3.org/1999/xlink" height="5.45px" width="4.2px" xmlns="http://www.w3.org/2000/svg">
  <g transform="matrix(1.0, 0.0, 0.0, 1.0, 2.1, 2.75)">
    <path d="M2.7 -1.75 Q2.7 -1.6 2.7 -1.4 2.65 -1.25 2.65 -1.1 2.6 -0.9 2.6 -0.75 2.55 -0.6 2.5 -0.45 2.45 -0.3 2.35 -0.15 2.3 0.0 2.25 0.15 2.15 0.25 2.05 0.4 1.95 0.55 1.85 0.65 1.75 0.8 1.65 0.9 1.6 1.0 1.5 1.1 1.35 1.2 1.25 1.3 1.15 1.35 1.05 1.45 0.95 1.5 0.8 1.55 0.7 1.6 0.55 1.65 0.4 1.65 0.3 1.7 0.15 1.7 0.0 1.7 -0.15 1.7 -0.3 1.7 -0.4 1.65 -0.55 1.65 -0.7 1.6 -0.8 1.55 -0.95 1.5 -1.05 1.45 -1.2 1.35 -1.3 1.3 -1.4 1.2 -1.5 1.1 -1.6 1.0 -1.75 0.9 -1.85 0.8 -1.95 0.65 -2.05 0.5 -2.1 0.4 -2.2 0.25 -2.25 0.1 -2.35 0.0 -2.4 -0.15 -2.45 -0.3 -2.5 -0.45 -2.55 -0.6 -2.6 -0.75 -2.6 -0.95 -2.65 -1.1 -2.65 -1.25 -2.7 -1.45 -2.7 -1.6 -2.7 -1.75 -2.7 -1.95 -2.7 -2.1 -2.65 -2.3 -2.65 -2.45 -2.65 -2.65 -2.6 -2.8 -2.55 -3.0 -2.5 -3.15 -2.45 -3.3 -2.4 -3.45 -2.35 -3.6 -2.25 -3.75 -2.2 -3.9 -2.1 -4.0 -2.0 -4.15 -1.95 -4.3 -1.85 -4.4 -1.75 -4.55 -1.65 -4.65 -1.55 -4.75 -1.4 -4.85 -1.3 -4.9 -1.2 -5.0 -1.05 -5.05 -0.95 -5.1 -0.8 -5.15 -0.7 -5.2 -0.55 -5.25 -0.4 -5.25 -0.3 -5.3 -0.15 -5.3 0.0 -5.3 0.15 -5.3 0.3 -5.3 0.4 -5.25 0.55 -5.25 0.7 -5.2 0.8 -5.15 0.95 -5.1 1.05 -5.05 1.15 -5.0 1.25 -4.9 1.4 -4.8 1.5 -4.75 1.6 -4.65 1.7 -4.5 1.75 -4.4 1.85 -4.3 1.95 -4.15 2.05 -4.05 2.15 -3.9 2.2 -3.75 2.3 -3.6 2.35 -3.45 2.45 -3.3 2.5 -3.15 2.55 -3.0 2.6 -2.8 2.6 -2.65 2.65 -2.5 2.65 -2.3 2.7 -2.15 2.7 -1.95 2.7 -1.75" fill="#1d1e3a" fill-rule="evenodd" stroke="none"/>
  </g>
</svg>
