<?xml version="1.0" encoding="UTF-8" standalone="no"?>
<svg xmlns:xlink="http://www.w3.org/1999/xlink" height="183.85px" width="217.6px" xmlns="http://www.w3.org/2000/svg">
  <g transform="matrix(1.0, 0.0, 0.0, 1.0, 75.9, 93.1)">
    <path d="M35.15 76.35 Q35.15 74.45 33.7 73.1 32.2 71.75 30.15 71.75 28.1 71.75 26.65 73.1 25.15 74.45 25.15 76.35 25.15 78.25 26.65 79.6 28.1 80.95 30.15 80.95 32.2 80.95 33.7 79.6 35.15 78.25 35.15 76.35 L35.15 76.35" fill="#999999" fill-rule="evenodd" stroke="none"/>
    <path d="M50.3 76.35 Q50.3 74.45 48.9 73.1 47.55 71.75 45.6 71.75 43.65 71.75 42.3 73.1 40.95 74.45 40.95 76.35 40.95 78.25 42.3 79.6 43.65 80.95 45.6 80.95 47.55 80.95 48.9 79.6 50.3 78.25 50.3 76.35 L50.3 76.35" fill="#999999" fill-rule="evenodd" stroke="none"/>
    <path d="M17.95 76.55 Q17.95 74.65 16.8 73.3 15.65 71.95 14.0 71.95 12.35 71.95 11.2 73.3 10.0 74.65 10.0 76.55 10.0 78.45 11.2 79.8 12.35 81.15 14.0 81.15 15.65 81.15 16.8 79.8 17.95 78.45 17.95 76.55 L17.95 76.55" fill="#999999" fill-rule="evenodd" stroke="none"/>
    <path d="M-23.45 0.6 L75.2 0.6 75.2 70.75 -23.45 70.75 -23.45 0.6 -23.45 0.6" fill="#000000" fill-rule="evenodd" stroke="none"/>
  </g>
</svg>
