<?xml version="1.0" encoding="UTF-8" standalone="no"?>
<svg xmlns:xlink="http://www.w3.org/1999/xlink" height="127.25px" width="130.85px" xmlns="http://www.w3.org/2000/svg">
  <g transform="matrix(1.0, 0.0, 0.0, 1.0, 65.4, 63.6)">
    <path d="M-45.35 21.8 L-45.95 21.6 -47.4 20.9 -48.85 20.25 -50.6 19.2 -52.35 18.2 -53.85 17.2 -55.35 16.2 -56.15 15.55 -56.95 14.9 -57.7 14.2 -58.45 13.45 -58.45 13.1 -58.45 12.75 -58.65 10.4 -58.85 8.05 -58.85 5.0 -58.85 2.0 -58.75 0.35 -58.6 -1.35 -58.45 -2.95 -58.3 -4.6 -58.15 -5.2 -58.05 -5.75 -57.9 -6.85 -57.7 -7.95 -57.45 -9.2 -57.2 -10.4 -56.95 -11.5 -56.75 -12.6 -56.4 -13.65 -56.1 -14.75 -55.5 -16.65 -54.95 -18.55 -54.8 -18.85 -54.7 -19.15 -53.85 -21.25 -53.0 -23.4 -52.45 -24.6 -51.85 -25.8 -51.85 -25.85 -51.85 -25.9 -51.0 -27.6 -50.1 -29.25 -49.3 -30.65 -48.5 -32.05 -47.3 -33.85 -46.1 -35.65 -45.0 -37.15 -43.85 -38.65 -42.55 -40.2 -41.25 -41.75 -39.45 -43.6 -37.65 -45.45 -36.35 -46.65 -35.0 -47.9 -32.9 -49.55 -30.8 -51.2 -29.05 -52.35 -27.3 -53.55 -25.55 -54.55 -23.85 -55.6 -22.85 -56.1 -21.85 -56.6 -20.05 -57.45 -18.25 -58.3 -16.55 -58.95 -14.9 -59.6 -13.35 -60.1 -11.8 -60.65 -10.35 -61.05 -8.85 -61.45 -7.3 -61.8 -5.8 -62.1 -4.8 -62.3 -3.85 -62.5 -2.15 -62.75 -0.45 -62.95 1.55 -63.1 3.55 -63.3 7.85 -63.2 12.1 -63.15 14.7 -62.75 17.3 -62.35 17.9 -62.25 18.55 -62.1 20.0 -61.8 21.5 -61.5 23.05 -61.05 24.6 -60.6 26.25 -60.05 27.9 -59.45 29.25 -58.95 30.6 -58.45 32.1 -57.75 33.65 -57.05 35.4 -56.15 37.15 -55.25 38.5 -54.45 39.8 -53.65 41.7 -52.4 43.6 -51.15 45.6 -49.55 47.65 -47.95 49.05 -46.7 50.45 -45.4 52.65 -43.05 54.9 -40.7 56.25 -39.0 57.6 -37.35 58.65 -35.85 59.7 -34.4 60.55 -33.1 61.4 -31.75 61.75 -31.1 62.15 -30.45 63.1 -28.75 64.0 -27.05 64.6 -25.85 65.2 -24.65 65.35 -23.85 65.5 -23.05 65.2 -22.4 64.95 -21.75 64.6 -21.5 64.3 -21.25 63.65 -21.25 63.0 -21.25 62.6 -21.55 62.25 -21.85 61.3 -23.3 60.3 -24.7 59.3 -25.95 58.3 -27.2 56.5 -29.15 54.65 -31.15 52.95 -32.65 51.3 -34.1 49.95 -35.15 48.6 -36.2 47.8 -36.8 46.95 -37.35 45.55 -38.25 44.15 -39.1 43.5 -39.5 42.85 -39.9 41.05 -40.85 39.25 -41.8 37.9 -42.35 36.6 -42.95 35.75 -43.3 34.9 -43.6 32.65 -44.35 30.45 -45.15 29.4 -45.4 28.35 -45.65 27.3 -45.95 26.25 -46.2 25.05 -46.45 23.85 -46.65 21.7 -46.95 19.55 -47.25 16.5 -47.4 13.5 -47.6 10.5 -47.4 7.5 -47.25 5.55 -46.95 3.6 -46.7 2.8 -46.5 2.0 -46.35 1.2 -46.25 0.45 -46.1 -2.0 -45.4 -4.45 -44.75 -5.9 -44.25 -7.3 -43.75 -8.45 -43.3 -9.55 -42.9 -11.4 -42.05 -13.2 -41.2 -15.05 -40.2 -16.9 -39.2 -18.15 -38.35 -19.45 -37.55 -20.7 -36.65 -21.95 -35.8 -23.15 -34.8 -24.4 -33.85 -25.65 -32.7 -26.9 -31.6 -28.5 -30.0 -30.1 -28.4 -31.5 -26.7 -32.85 -25.0 -33.8 -23.7 -34.75 -22.35 -35.4 -21.35 -36.1 -20.4 -37.0 -18.8 -37.9 -17.2 -38.8 -15.4 -39.65 -13.55 -40.25 -12.15 -40.8 -10.75 -41.45 -8.8 -42.1 -6.8 -42.5 -5.2 -42.9 -3.55 -43.1 -2.4 -43.35 -1.2 -43.5 -0.4 -43.6 0.4 -43.75 1.55 -43.9 2.65 -44.05 5.35 -44.2 8.0 -44.05 10.5 -43.9 13.05 -43.65 14.8 -43.45 16.55 -43.05 18.6 -42.65 20.65 -42.8 21.05 -42.95 21.5 -43.35 21.7 -43.75 21.9 -44.25 21.95 -44.8 22.05 -45.35 21.8 M-45.65 18.55 L-45.7 18.3 -45.95 16.85 -46.15 15.4 -46.2 15.3 -46.25 15.2 -46.5 12.2 -46.75 9.2 -46.65 6.5 -46.55 3.8 -46.2 1.05 -45.85 -1.65 -45.7 -2.4 -45.6 -3.15 -45.05 -5.4 -44.5 -7.7 -44.05 -9.05 -43.6 -10.45 -43.45 -10.75 -43.35 -11.05 -42.7 -12.75 -42.05 -14.45 -41.15 -16.3 -40.25 -18.2 -39.05 -20.3 -37.85 -22.35 -36.7 -24.05 -35.6 -25.7 -34.15 -27.5 -32.7 -29.3 -30.95 -31.15 -29.25 -33.0 -27.8 -34.3 -26.35 -35.6 -25.15 -36.55 -23.95 -37.5 -22.2 -38.75 -20.45 -40.0 -18.7 -41.1 -16.95 -42.15 -14.95 -43.2 -12.9 -44.25 -10.75 -45.2 -8.6 -46.1 -7.9 -46.35 -7.2 -46.65 -4.8 -47.4 -2.45 -48.1 -2.1 -48.2 -1.75 -48.25 -0.1 -48.65 1.5 -49.0 2.35 -49.15 3.15 -49.3 5.25 -49.6 7.35 -49.85 9.9 -50.05 12.4 -50.25 15.4 -50.15 18.4 -50.05 19.65 -49.9 20.85 -49.75 22.0 -49.6 23.15 -49.45 24.35 -49.25 25.55 -49.0 26.65 -48.8 27.8 -48.55 29.45 -48.1 31.15 -47.65 32.95 -47.1 34.75 -46.5 35.55 -46.2 36.3 -45.9 38.05 -45.15 39.8 -44.4 42.25 -43.15 44.7 -41.85 46.1 -41.0 47.5 -40.15 48.75 -39.25 50.0 -38.4 51.85 -36.95 53.65 -35.55 55.0 -34.35 56.3 -33.1 57.95 -31.4 59.65 -29.7 58.6 -31.3 57.6 -32.95 56.35 -34.6 55.15 -36.3 53.75 -38.0 52.35 -39.7 50.3 -41.85 48.2 -43.95 46.45 -45.5 44.65 -47.05 43.1 -48.25 41.5 -49.45 39.4 -50.8 37.3 -52.15 35.2 -53.3 33.1 -54.45 31.4 -55.2 29.75 -55.95 27.85 -56.65 25.95 -57.4 24.75 -57.75 23.6 -58.15 22.6 -58.4 21.65 -58.7 20.1 -59.05 18.55 -59.4 17.65 -59.6 16.75 -59.75 16.05 -59.9 15.35 -60.0 14.2 -60.15 13.1 -60.3 11.05 -60.45 9.05 -60.6 6.25 -60.6 3.45 -60.6 1.85 -60.45 0.25 -60.35 -1.25 -60.2 -2.7 -60.05 -3.4 -59.9 -4.1 -59.75 -5.35 -59.5 -6.65 -59.25 -9.5 -58.45 -12.35 -57.7 -13.95 -57.1 -15.6 -56.55 -17.55 -55.7 -19.5 -54.85 -21.95 -53.6 -24.4 -52.3 -26.05 -51.2 -27.75 -50.15 -29.45 -48.9 -31.15 -47.7 -32.75 -46.3 -34.4 -44.95 -36.05 -43.35 -37.75 -41.75 -39.25 -40.05 -40.75 -38.35 -41.8 -37.05 -42.85 -35.7 -43.95 -34.2 -45.0 -32.7 -46.2 -30.85 -47.35 -28.95 -48.25 -27.35 -49.1 -25.75 -50.15 -23.55 -51.15 -21.35 -51.95 -19.2 -52.75 -17.05 -53.2 -15.55 -53.7 -14.0 -54.35 -11.2 -55.05 -8.4 -55.2 -7.6 -55.35 -6.8 -55.7 -4.15 -56.05 -1.5 -56.25 1.5 -56.4 4.55 -56.25 8.15 -56.05 11.75 -55.95 12.1 -55.8 12.45 -54.5 13.5 -53.2 14.55 -51.5 15.6 -49.85 16.7 -47.8 17.75 -45.8 18.85 -45.7 18.85 -45.6 18.85 -45.65 18.55 -45.65 18.55" fill="#cfcfcf" fill-rule="evenodd" stroke="none"/>
    <path d="M-45.65 21.65 L-46.35 21.35 -47.65 20.75 -49.0 20.1 -49.75 19.65 -50.55 19.25 -52.55 17.95 -54.6 16.7 -55.95 15.65 -57.25 14.6 -57.75 14.05 -58.3 13.55 -58.35 13.0 -58.45 12.45 -58.65 10.25 -58.85 8.05 -58.8 4.15 -58.75 0.25 -58.5 -1.9 -58.3 -4.0 -58.0 -5.85 -57.75 -7.7 -57.4 -9.35 -57.05 -11.05 -56.85 -11.95 -56.6 -12.8 -56.1 -14.5 -55.6 -16.2 -55.15 -17.65 -54.65 -19.15 -53.95 -20.95 -53.25 -22.8 -52.1 -25.2 -50.95 -27.65 -50.15 -29.1 -49.35 -30.5 -48.3 -32.25 -47.2 -33.95 -46.05 -35.6 -44.9 -37.25 -43.75 -38.7 -42.6 -40.15 -41.05 -41.85 -39.55 -43.55 -37.7 -45.3 -35.9 -47.05 -34.3 -48.4 -32.7 -49.75 -31.0 -50.95 -29.3 -52.2 -27.25 -53.5 -25.25 -54.75 -22.45 -56.2 -19.65 -57.65 -18.0 -58.3 -16.4 -59.0 -15.45 -59.35 -14.45 -59.7 -12.65 -60.3 -10.8 -60.9 -9.9 -61.15 -9.0 -61.35 -6.7 -61.85 -4.35 -62.35 -2.25 -62.65 -0.2 -62.95 2.35 -63.1 4.85 -63.3 8.0 -63.2 11.15 -63.1 13.15 -62.9 15.2 -62.65 17.55 -62.25 19.95 -61.8 22.2 -61.2 24.4 -60.65 26.55 -59.9 28.7 -59.15 30.35 -58.45 32.0 -57.8 34.0 -56.8 36.05 -55.8 37.95 -54.7 39.8 -53.6 41.6 -52.4 43.4 -51.2 45.25 -49.75 47.1 -48.35 48.4 -47.15 49.75 -46.0 52.05 -43.65 54.3 -41.3 55.7 -39.6 57.1 -37.95 58.45 -36.0 59.85 -34.1 60.85 -32.55 61.85 -30.95 62.9 -29.0 63.95 -27.05 64.65 -25.6 65.35 -24.15 65.35 -23.45 65.35 -22.7 65.05 -22.15 64.8 -21.6 64.45 -21.45 64.05 -21.25 63.65 -21.25 63.25 -21.25 62.9 -21.45 62.55 -21.6 61.2 -23.5 59.85 -25.4 58.4 -27.1 57.0 -28.8 55.6 -30.2 54.2 -31.6 52.95 -32.7 51.7 -33.85 50.3 -34.95 48.9 -36.05 47.6 -36.95 46.35 -37.85 44.35 -39.05 42.35 -40.25 40.35 -41.25 38.4 -42.2 36.75 -42.9 35.05 -43.6 33.0 -44.3 31.0 -45.0 29.9 -45.3 28.75 -45.6 27.55 -45.9 26.4 -46.2 24.75 -46.5 23.15 -46.8 21.4 -47.05 19.65 -47.25 18.05 -47.4 16.45 -47.5 13.6 -47.5 10.7 -47.5 9.05 -47.35 7.35 -47.25 5.35 -46.95 3.3 -46.65 1.85 -46.4 0.35 -46.1 -2.1 -45.45 -4.55 -44.75 -6.0 -44.25 -7.45 -43.75 -9.5 -42.9 -11.5 -42.1 -13.45 -41.1 -15.45 -40.05 -17.15 -39.05 -18.85 -38.0 -20.35 -36.95 -21.85 -35.9 -23.25 -34.8 -24.65 -33.7 -26.05 -32.4 -27.45 -31.1 -28.5 -30.05 -29.55 -28.95 -30.6 -27.8 -31.65 -26.6 -33.0 -24.85 -34.35 -23.1 -35.4 -21.5 -36.45 -19.85 -37.15 -18.6 -37.85 -17.35 -38.35 -16.4 -38.85 -15.45 -39.7 -13.5 -40.55 -11.6 -41.2 -9.7 -41.8 -7.85 -42.3 -6.05 -42.8 -4.3 -43.2 -2.15 -43.6 -0.05 -43.85 1.8 -44.1 3.65 -44.1 7.9 -44.1 12.15 -43.85 14.0 -43.6 15.8 -43.2 18.05 -42.75 20.25 -42.8 20.75 -42.85 21.25 -43.3 21.6 -43.8 21.9 -44.35 21.9 -44.95 21.9 -45.65 21.65 -45.65 21.65 M-45.65 18.4 L-45.7 18.0 -46.0 16.2 -46.3 14.35 -46.45 12.0 -46.65 9.65 -46.6 6.95 -46.55 4.3 -46.3 1.85 -46.0 -0.6 -45.8 -1.8 -45.6 -3.0 -45.15 -4.85 -44.75 -6.65 -44.15 -8.5 -43.6 -10.3 -42.75 -12.5 -41.9 -14.75 -41.0 -16.55 -40.1 -18.4 -39.05 -20.25 -37.95 -22.15 -36.7 -24.0 -35.4 -25.85 -34.3 -27.25 -33.2 -28.65 -30.7 -31.3 -28.15 -33.95 -26.35 -35.5 -24.5 -37.05 -23.4 -37.9 -22.25 -38.75 -20.4 -39.95 -18.5 -41.2 -16.7 -42.2 -14.9 -43.25 -13.4 -43.95 -11.95 -44.65 -10.4 -45.3 -8.85 -45.95 -6.75 -46.65 -4.65 -47.35 -3.7 -47.65 -2.7 -48.0 -1.2 -48.35 0.35 -48.7 1.9 -49.0 3.45 -49.3 5.6 -49.6 7.8 -49.9 12.25 -50.0 16.7 -50.1 18.75 -49.9 20.8 -49.75 22.75 -49.45 24.7 -49.15 26.45 -48.8 28.2 -48.4 30.0 -47.9 31.85 -47.4 33.25 -46.95 34.65 -46.5 35.4 -46.2 36.15 -45.9 37.8 -45.25 39.4 -44.55 41.35 -43.6 43.3 -42.6 45.05 -41.55 46.8 -40.55 48.45 -39.4 50.1 -38.3 51.7 -37.05 53.3 -35.8 54.85 -34.4 56.4 -33.0 58.15 -31.15 59.9 -29.25 59.8 -29.5 59.7 -29.7 58.3 -31.85 56.95 -33.95 55.6 -35.75 54.25 -37.5 52.65 -39.35 51.05 -41.2 49.2 -43.0 47.35 -44.8 45.75 -46.15 44.15 -47.5 42.55 -48.7 40.95 -49.85 38.7 -51.3 36.45 -52.7 34.05 -53.95 31.7 -55.15 29.95 -55.85 28.2 -56.6 26.75 -57.15 25.25 -57.65 24.05 -58.0 22.9 -58.4 22.35 -58.55 21.75 -58.7 20.5 -59.0 19.25 -59.3 18.55 -59.45 17.85 -59.55 16.2 -59.85 14.5 -60.15 13.1 -60.3 11.7 -60.45 10.3 -60.55 8.9 -60.65 6.25 -60.65 3.6 -60.65 2.2 -60.55 0.8 -60.45 -0.95 -60.25 -2.65 -60.05 -3.6 -59.85 -4.55 -59.7 -5.95 -59.4 -7.3 -59.1 -9.5 -58.55 -11.65 -57.95 -13.6 -57.3 -15.6 -56.6 -17.7 -55.7 -19.8 -54.75 -21.75 -53.75 -23.7 -52.7 -25.1 -51.85 -26.5 -51.05 -28.3 -49.8 -30.1 -48.55 -31.6 -47.35 -33.05 -46.15 -34.3 -45.05 -35.6 -43.95 -37.45 -42.05 -39.3 -40.15 -40.7 -38.5 -42.05 -36.9 -43.3 -35.2 -44.55 -33.5 -45.8 -31.5 -47.05 -29.55 -48.0 -27.85 -48.9 -26.2 -49.4 -25.15 -49.95 -24.1 -50.7 -22.4 -51.4 -20.7 -52.05 -19.05 -52.7 -17.35 -53.15 -15.95 -53.55 -14.6 -54.2 -12.15 -54.8 -9.75 -55.15 -7.95 -55.5 -6.15 -55.8 -4.15 -56.05 -2.1 -56.2 -0.2 -56.35 1.7 -56.35 4.95 -56.35 8.15 -56.2 10.2 -56.0 12.25 -55.75 12.55 -55.45 12.85 -54.35 13.7 -53.2 14.6 -51.3 15.8 -49.4 16.95 -47.65 17.9 -45.95 18.8 -45.75 18.8 -45.55 18.85 -45.65 18.4 -45.65 18.4" fill="#b1b1b1" fill-rule="evenodd" stroke="none"/>
    <path d="M-45.35 21.7 L-45.8 21.55 -47.45 20.8 -49.1 20.0 -50.65 19.1 -52.2 18.2 -53.85 17.15 -55.45 16.05 -56.6 15.05 -57.8 14.05 -58.05 13.7 -58.3 13.3 -58.45 12.2 -58.6 11.05 -58.7 8.05 -58.85 5.0 -58.75 2.1 -58.6 -0.8 -58.45 -2.3 -58.3 -3.85 -57.95 -6.0 -57.6 -8.2 -57.1 -10.4 -56.6 -12.65 -56.25 -13.9 -55.9 -15.15 -55.3 -17.05 -54.7 -19.0 -53.75 -21.3 -52.85 -23.65 -51.8 -25.8 -50.75 -27.95 -49.8 -29.65 -48.85 -31.3 -47.8 -32.95 -46.8 -34.55 -45.75 -36.0 -44.7 -37.45 -43.7 -38.7 -42.7 -40.0 -41.45 -41.4 -40.2 -42.75 -38.8 -44.2 -37.4 -45.6 -36.15 -46.75 -34.9 -47.85 -33.5 -49.0 -32.1 -50.15 -30.55 -51.25 -29.0 -52.35 -27.25 -53.45 -25.5 -54.55 -23.9 -55.45 -22.3 -56.35 -20.2 -57.3 -18.15 -58.25 -16.15 -59.0 -14.2 -59.8 -12.2 -60.4 -10.25 -61.0 -8.35 -61.45 -6.5 -61.9 -4.4 -62.3 -2.3 -62.65 -0.25 -62.9 1.75 -63.1 4.7 -63.2 7.65 -63.3 10.1 -63.1 12.55 -62.95 14.2 -62.75 15.9 -62.5 17.85 -62.15 19.8 -61.8 21.8 -61.3 23.8 -60.75 25.6 -60.2 27.4 -59.6 28.8 -59.05 30.15 -58.55 30.45 -58.4 30.7 -58.3 32.1 -57.65 33.5 -57.05 35.45 -56.0 37.45 -55.0 38.9 -54.1 40.35 -53.25 42.3 -51.9 44.3 -50.5 45.7 -49.4 47.1 -48.3 48.5 -47.1 49.9 -45.85 52.45 -43.15 55.05 -40.4 56.4 -38.75 57.75 -37.05 58.7 -35.65 59.7 -34.25 60.8 -32.5 61.95 -30.75 62.8 -29.15 63.65 -27.55 64.5 -25.9 65.35 -24.2 65.35 -23.55 65.35 -22.85 65.15 -22.4 64.95 -21.9 64.55 -21.55 64.15 -21.25 63.55 -21.3 62.95 -21.35 62.65 -21.65 62.35 -21.9 61.2 -23.55 60.05 -25.2 58.8 -26.7 57.55 -28.25 55.55 -30.25 53.6 -32.25 51.95 -33.65 50.3 -35.0 49.1 -35.9 47.9 -36.8 46.6 -37.65 45.25 -38.55 44.25 -39.15 43.25 -39.75 41.05 -40.9 38.85 -42.05 37.1 -42.8 35.35 -43.55 33.15 -44.3 31.0 -45.05 28.75 -45.65 26.5 -46.2 24.9 -46.5 23.25 -46.8 21.1 -47.1 18.95 -47.4 15.05 -47.5 11.1 -47.6 9.05 -47.4 6.95 -47.25 5.0 -46.95 3.05 -46.65 1.0 -46.2 -1.05 -45.8 -3.1 -45.2 -5.1 -44.6 -6.7 -44.05 -8.3 -43.45 -10.25 -42.6 -12.2 -41.8 -14.6 -40.5 -16.95 -39.25 -18.8 -38.0 -20.65 -36.8 -22.3 -35.55 -23.95 -34.3 -25.55 -32.9 -27.15 -31.5 -28.85 -29.7 -30.55 -27.95 -31.65 -26.6 -32.75 -25.3 -34.15 -23.35 -35.55 -21.4 -36.7 -19.4 -37.9 -17.35 -39.0 -15.05 -40.1 -12.75 -40.75 -11.0 -41.4 -9.3 -41.8 -7.95 -42.2 -6.65 -42.55 -5.25 -42.9 -3.85 -43.25 -2.1 -43.6 -0.35 -43.85 1.65 -44.1 3.65 -44.1 7.9 -44.1 12.15 -43.85 14.15 -43.6 16.1 -43.25 17.85 -42.9 19.65 -42.8 20.25 -42.75 20.85 -42.9 21.15 -43.1 21.5 -43.55 21.7 -44.05 21.9 -44.5 21.9 -44.95 21.9 -45.35 21.7 -45.35 21.7 M-45.85 17.0 L-46.15 15.25 -46.35 12.95 -46.55 10.7 -46.55 7.9 -46.55 5.1 -46.4 3.4 -46.25 1.7 -46.0 -0.2 -45.75 -2.1 -45.35 -3.8 -45.0 -5.45 -44.7 -6.5 -44.45 -7.55 -43.9 -9.25 -43.35 -11.0 -42.65 -12.75 -41.9 -14.55 -41.05 -16.4 -40.15 -18.3 -39.25 -19.8 -38.4 -21.35 -37.45 -22.8 -36.5 -24.25 -35.3 -25.9 -34.1 -27.5 -32.55 -29.3 -31.05 -31.1 -29.05 -33.0 -27.05 -34.9 -25.5 -36.15 -23.95 -37.45 -21.8 -38.95 -19.65 -40.45 -18.25 -41.3 -16.85 -42.15 -15.25 -43.0 -13.6 -43.85 -12.0 -44.55 -10.4 -45.3 -8.65 -45.95 -6.9 -46.65 -5.0 -47.25 -3.05 -47.85 -1.55 -48.2 -0.05 -48.6 1.75 -48.95 3.6 -49.3 5.9 -49.6 8.2 -49.95 12.45 -50.0 16.75 -50.05 19.3 -49.85 21.9 -49.6 24.35 -49.15 26.8 -48.7 28.85 -48.2 30.85 -47.7 32.55 -47.15 34.2 -46.6 36.15 -45.85 38.15 -45.1 39.25 -44.55 40.35 -44.05 41.75 -43.35 43.15 -42.65 44.9 -41.6 46.65 -40.6 48.6 -39.25 50.6 -37.9 51.5 -37.15 52.4 -36.45 53.1 -35.85 53.8 -35.3 54.75 -34.4 55.75 -33.55 57.9 -31.3 60.05 -29.1 59.55 -30.0 59.0 -30.9 58.1 -32.25 57.2 -33.65 56.05 -35.2 54.9 -36.75 53.45 -38.5 51.95 -40.3 50.35 -41.9 48.75 -43.5 47.5 -44.65 46.25 -45.8 44.35 -47.35 42.4 -48.85 40.5 -50.15 38.55 -51.45 37.3 -52.2 36.05 -52.95 34.3 -53.85 32.6 -54.75 30.4 -55.7 28.25 -56.65 25.65 -57.5 23.0 -58.4 20.95 -58.9 18.85 -59.45 16.75 -59.8 14.7 -60.15 12.45 -60.4 10.15 -60.65 6.45 -60.65 2.75 -60.7 0.95 -60.5 -0.9 -60.3 -2.85 -60.0 -4.8 -59.7 -6.75 -59.25 -8.7 -58.8 -11.1 -58.1 -13.5 -57.4 -14.3 -57.1 -15.15 -56.75 -17.1 -55.95 -19.05 -55.15 -21.15 -54.05 -23.25 -53.0 -25.0 -51.95 -26.75 -50.9 -28.3 -49.8 -29.85 -48.75 -31.4 -47.55 -32.9 -46.35 -34.6 -44.8 -36.3 -43.3 -38.35 -41.15 -40.4 -38.95 -41.45 -37.65 -42.55 -36.3 -43.75 -34.6 -45.0 -32.85 -46.15 -31.0 -47.35 -29.1 -48.3 -27.35 -49.25 -25.6 -50.25 -23.4 -51.3 -21.2 -52.05 -19.15 -52.8 -17.05 -53.35 -15.4 -53.85 -13.75 -54.4 -11.5 -54.95 -9.3 -55.3 -7.45 -55.6 -5.6 -55.95 -3.2 -56.25 -0.8 -56.25 4.35 -56.3 9.5 -56.15 10.9 -56.05 12.35 -54.9 13.3 -53.75 14.25 -51.3 15.8 -48.85 17.35 -47.25 18.15 -45.65 18.95 -45.6 18.85 -45.55 18.7 -45.85 17.0 -45.85 17.0" fill="#8f8f8f" fill-rule="evenodd" stroke="none"/>
    <path d="M-45.85 21.5 L-46.9 21.1 -48.65 20.2 -50.4 19.3 -52.6 17.9 -54.8 16.5 -56.0 15.5 -57.2 14.55 -57.75 14.0 -58.25 13.45 -58.45 12.1 -58.6 10.75 -58.7 7.85 -58.85 4.95 -58.7 2.15 -58.6 -0.65 -58.45 -2.1 -58.3 -3.55 -58.15 -4.6 -58.0 -5.6 -57.7 -7.3 -57.45 -9.0 -56.95 -11.05 -56.45 -13.1 -56.0 -14.75 -55.55 -16.35 -54.9 -18.2 -54.25 -20.1 -53.5 -21.85 -52.8 -23.65 -51.7 -25.9 -50.6 -28.2 -49.55 -30.05 -48.45 -31.9 -47.55 -33.3 -46.65 -34.7 -45.8 -35.85 -44.95 -37.05 -43.65 -38.75 -42.3 -40.4 -40.35 -42.55 -38.35 -44.65 -36.9 -46.0 -35.45 -47.35 -33.9 -48.65 -32.35 -49.9 -30.35 -51.35 -28.3 -52.8 -26.7 -53.8 -25.1 -54.75 -23.05 -55.85 -21.0 -56.9 -19.05 -57.8 -17.1 -58.65 -15.05 -59.4 -12.95 -60.15 -10.95 -60.75 -8.95 -61.35 -6.9 -61.75 -4.8 -62.2 -3.5 -62.45 -2.15 -62.65 -0.8 -62.8 0.5 -62.95 3.3 -63.1 6.1 -63.3 8.2 -63.2 10.3 -63.1 12.6 -62.85 14.9 -62.65 17.3 -62.2 19.65 -61.8 21.7 -61.25 23.7 -60.75 24.9 -60.4 26.1 -60.0 27.35 -59.55 28.6 -59.1 30.6 -58.3 32.55 -57.5 35.2 -56.15 37.85 -54.75 39.75 -53.55 41.65 -52.35 42.8 -51.55 43.95 -50.75 45.6 -49.45 47.2 -48.15 48.8 -46.75 50.35 -45.35 51.8 -43.9 53.2 -42.5 54.95 -40.4 56.7 -38.35 58.1 -36.45 59.5 -34.55 60.8 -32.5 62.1 -30.45 62.95 -28.85 63.8 -27.3 64.55 -25.65 65.35 -24.0 65.35 -23.55 65.35 -23.15 65.15 -22.55 65.0 -22.0 64.7 -21.7 64.4 -21.4 63.9 -21.35 63.4 -21.3 62.95 -21.5 62.55 -21.7 61.35 -23.4 60.15 -25.05 58.9 -26.6 57.7 -28.1 55.5 -30.3 53.35 -32.5 51.9 -33.7 50.4 -34.95 49.15 -35.9 47.95 -36.8 45.95 -38.1 44.0 -39.4 41.5 -40.7 38.95 -42.05 36.95 -42.9 34.9 -43.7 33.0 -44.4 31.1 -45.05 29.1 -45.55 27.15 -46.1 26.4 -46.25 25.7 -46.4 24.55 -46.6 23.35 -46.8 21.25 -47.1 19.1 -47.4 15.05 -47.5 10.95 -47.6 8.9 -47.4 6.8 -47.25 4.85 -46.95 2.95 -46.65 0.8 -46.2 -1.3 -45.75 -3.75 -45.05 -6.15 -44.3 -8.4 -43.4 -10.7 -42.55 -13.9 -40.85 -17.1 -39.2 -18.9 -38.0 -20.65 -36.85 -22.1 -35.75 -23.5 -34.7 -25.3 -33.15 -27.05 -31.65 -29.2 -29.35 -31.4 -27.05 -32.75 -25.3 -34.1 -23.55 -35.15 -21.9 -36.25 -20.3 -37.15 -18.75 -38.0 -17.15 -39.0 -15.15 -39.95 -13.1 -40.45 -11.85 -40.95 -10.6 -41.45 -9.15 -41.9 -7.7 -42.35 -6.1 -42.75 -4.55 -43.15 -2.85 -43.5 -1.15 -43.75 0.9 -44.05 2.9 -44.15 6.8 -44.2 10.7 -44.0 12.9 -43.75 15.15 -43.5 16.8 -43.2 18.45 -43.0 19.25 -42.8 20.1 -42.8 20.5 -42.8 20.95 -42.95 21.2 -43.15 21.45 -43.65 21.7 -44.15 21.9 -44.5 21.9 -44.8 21.9 -45.85 21.5 M-45.5 18.85 L-45.55 18.75 -45.9 16.5 -46.25 14.2 -46.45 12.0 -46.6 9.8 -46.5 6.5 -46.45 3.2 -46.1 0.6 -45.75 -1.95 -45.25 -4.15 -44.75 -6.35 -44.0 -8.8 -43.25 -11.2 -42.7 -12.5 -42.2 -13.85 -41.45 -15.45 -40.75 -17.05 -39.8 -18.85 -38.8 -20.6 -37.7 -22.35 -36.6 -24.1 -35.7 -25.35 -34.75 -26.6 -33.9 -27.65 -33.05 -28.65 -31.85 -30.05 -30.65 -31.45 -28.95 -33.05 -27.3 -34.65 -26.0 -35.75 -24.65 -36.85 -22.7 -38.3 -20.75 -39.7 -19.3 -40.65 -17.8 -41.55 -15.6 -42.75 -13.35 -43.95 -11.65 -44.7 -9.95 -45.45 -8.15 -46.15 -6.35 -46.8 -4.65 -47.3 -3.0 -47.85 -1.5 -48.2 -0.05 -48.55 1.5 -48.85 3.0 -49.15 5.0 -49.45 6.95 -49.75 9.15 -49.9 11.4 -50.1 15.05 -50.0 18.7 -49.9 20.5 -49.7 22.35 -49.45 23.65 -49.25 25.0 -49.05 25.75 -48.9 26.55 -48.75 29.1 -48.1 31.7 -47.4 33.8 -46.7 35.9 -45.95 37.55 -45.25 39.25 -44.6 41.4 -43.5 43.6 -42.4 45.35 -41.35 47.1 -40.3 48.25 -39.5 49.45 -38.7 51.0 -37.5 52.55 -36.35 54.15 -34.95 55.75 -33.55 57.95 -31.25 60.15 -28.95 59.8 -29.6 59.4 -30.3 58.5 -31.7 57.6 -33.1 56.55 -34.55 55.5 -36.0 54.45 -37.35 53.4 -38.65 51.5 -40.7 49.6 -42.75 48.0 -44.25 46.4 -45.7 45.2 -46.7 44.0 -47.65 42.45 -48.8 40.95 -49.9 39.4 -50.9 37.85 -51.9 36.55 -52.65 35.2 -53.45 33.6 -54.25 32.0 -55.05 30.15 -55.85 28.35 -56.6 26.15 -57.35 24.0 -58.15 22.45 -58.55 20.95 -58.95 19.6 -59.25 18.25 -59.55 16.55 -59.85 14.8 -60.2 12.55 -60.4 10.3 -60.65 6.5 -60.65 2.75 -60.7 0.8 -60.5 -1.15 -60.3 -3.35 -59.95 -5.6 -59.6 -7.5 -59.15 -9.4 -58.65 -11.45 -58.05 -13.5 -57.4 -14.95 -56.85 -16.4 -56.35 -18.3 -55.45 -20.25 -54.6 -21.7 -53.85 -23.15 -53.1 -24.85 -52.05 -26.6 -51.05 -28.75 -49.5 -30.85 -48.0 -32.6 -46.6 -34.3 -45.15 -35.6 -43.95 -36.85 -42.8 -38.35 -41.15 -39.9 -39.55 -41.1 -38.05 -42.3 -36.6 -43.15 -35.45 -44.05 -34.3 -44.85 -33.1 -45.65 -31.9 -46.65 -30.3 -47.6 -28.65 -48.4 -27.2 -49.2 -25.75 -50.3 -23.3 -51.4 -20.9 -52.05 -19.2 -52.7 -17.5 -53.25 -15.7 -53.85 -13.85 -54.4 -11.65 -54.95 -9.45 -55.3 -7.6 -55.6 -5.75 -55.9 -3.4 -56.2 -1.05 -56.35 1.4 -56.5 3.85 -56.4 6.55 -56.35 9.2 -56.2 10.75 -56.05 12.3 -55.6 12.7 -55.15 13.1 -54.25 13.85 -53.35 14.55 -51.4 15.8 -49.4 17.05 -48.0 17.75 -46.6 18.45 -46.15 18.7 -45.65 18.95 -45.55 18.95 -45.4 18.95 -45.5 18.85 -45.5 18.85" fill="#6f6f6f" fill-rule="evenodd" stroke="none"/>
    <path d="M-44.95 21.8 L-45.25 21.75 -46.05 21.35 -46.9 21.0 -47.4 20.8 -47.9 20.55 -49.25 19.85 -50.65 19.1 -52.2 18.15 -53.75 17.15 -54.9 16.35 -56.0 15.55 -56.95 14.7 -57.95 13.8 -58.1 13.5 -58.3 13.15 -58.45 11.6 -58.6 10.1 -58.7 7.15 -58.8 4.2 -58.7 1.95 -58.6 -0.35 -58.45 -1.8 -58.3 -3.25 -58.1 -4.8 -57.85 -6.35 -57.6 -7.9 -57.3 -9.45 -56.85 -11.4 -56.35 -13.4 -55.85 -15.1 -55.4 -16.8 -54.9 -18.2 -54.4 -19.6 -53.6 -21.55 -52.8 -23.55 -51.8 -25.65 -50.8 -27.8 -49.85 -29.5 -48.9 -31.15 -47.9 -32.7 -46.95 -34.25 -45.9 -35.7 -44.85 -37.2 -43.5 -38.9 -42.15 -40.55 -39.7 -43.15 -37.25 -45.7 -35.65 -47.1 -34.05 -48.5 -32.9 -49.4 -31.8 -50.3 -30.45 -51.25 -29.1 -52.25 -27.1 -53.5 -25.1 -54.75 -22.45 -56.15 -19.75 -57.5 -18.0 -58.25 -16.3 -58.95 -14.35 -59.65 -12.4 -60.35 -10.3 -60.9 -8.15 -61.5 -6.8 -61.8 -5.45 -62.05 -4.15 -62.3 -2.85 -62.5 -1.05 -62.75 0.8 -63.0 5.2 -63.05 9.65 -63.15 12.2 -62.9 14.75 -62.65 17.15 -62.2 19.6 -61.8 21.65 -61.25 23.7 -60.75 25.75 -60.05 27.8 -59.4 29.45 -58.75 31.15 -58.1 33.15 -57.1 35.2 -56.15 37.15 -55.05 39.1 -54.0 40.85 -52.85 42.6 -51.7 44.2 -50.5 45.75 -49.3 47.4 -47.95 49.05 -46.55 50.85 -44.8 52.65 -43.05 53.95 -41.6 55.2 -40.15 56.35 -38.7 57.55 -37.25 58.7 -35.6 59.85 -33.95 61.05 -32.05 62.2 -30.15 63.15 -28.45 64.05 -26.75 64.6 -25.55 65.2 -24.35 65.3 -23.75 65.35 -23.15 65.15 -22.5 64.9 -21.85 64.6 -21.65 64.3 -21.4 63.7 -21.4 63.1 -21.4 62.8 -21.55 62.55 -21.7 61.45 -23.3 60.35 -24.85 59.5 -25.9 58.65 -26.95 57.5 -28.3 56.35 -29.6 54.65 -31.25 52.95 -32.85 51.65 -33.95 50.3 -35.05 48.7 -36.25 47.1 -37.45 45.05 -38.7 43.0 -39.95 40.65 -41.15 38.25 -42.35 36.85 -42.95 35.45 -43.55 33.3 -44.3 31.15 -45.05 29.25 -45.55 27.35 -46.05 25.45 -46.45 23.6 -46.8 21.45 -47.1 19.25 -47.4 16.4 -47.55 13.55 -47.7 10.8 -47.55 8.05 -47.4 5.75 -47.1 3.45 -46.8 1.0 -46.3 -1.4 -45.75 -3.3 -45.2 -5.25 -44.6 -6.9 -44.0 -8.6 -43.4 -10.6 -42.5 -12.65 -41.6 -14.6 -40.55 -16.55 -39.5 -18.0 -38.6 -19.5 -37.65 -21.15 -36.5 -22.8 -35.3 -24.65 -33.75 -26.5 -32.2 -28.9 -29.7 -31.25 -27.2 -32.45 -25.7 -33.65 -24.15 -34.8 -22.45 -36.0 -20.75 -37.1 -18.85 -38.2 -16.95 -39.2 -14.75 -40.25 -12.5 -40.6 -11.5 -41.0 -10.45 -41.4 -9.3 -41.8 -8.1 -42.35 -6.1 -42.9 -4.05 -43.25 -2.25 -43.6 -0.5 -43.9 1.85 -44.2 4.2 -44.2 7.6 -44.2 10.95 -44.05 12.75 -43.9 14.5 -43.6 16.2 -43.35 17.85 -43.05 19.2 -42.75 20.55 -42.9 20.95 -43.05 21.3 -43.35 21.55 -43.7 21.75 -44.2 21.8 -44.65 21.9 -44.95 21.8 -44.95 21.8 M-45.5 18.7 L-45.55 18.45 -45.85 16.7 -46.15 14.95 -46.3 13.4 -46.5 11.85 -46.45 7.75 -46.45 3.65 -46.15 1.3 -45.85 -1.05 -45.5 -2.9 -45.15 -4.75 -44.8 -6.05 -44.45 -7.4 -43.9 -9.1 -43.35 -10.85 -42.65 -12.65 -41.9 -14.45 -41.0 -16.35 -40.1 -18.25 -39.05 -20.1 -37.95 -22.0 -36.75 -23.75 -35.6 -25.5 -34.1 -27.4 -32.6 -29.3 -30.2 -31.7 -27.85 -34.15 -26.0 -35.7 -24.1 -37.3 -22.1 -38.7 -20.05 -40.15 -18.8 -40.9 -17.55 -41.7 -15.1 -43.0 -12.65 -44.3 -10.35 -45.25 -8.0 -46.2 -6.45 -46.75 -4.85 -47.25 -2.75 -47.85 -0.6 -48.4 0.8 -48.7 2.2 -49.0 3.5 -49.2 4.85 -49.45 6.85 -49.65 8.9 -49.9 12.0 -50.0 15.05 -50.1 17.5 -49.9 19.95 -49.75 22.1 -49.45 24.25 -49.15 25.75 -48.85 27.2 -48.55 28.7 -48.2 30.15 -47.8 32.1 -47.2 34.05 -46.6 36.05 -45.85 38.0 -45.1 40.1 -44.1 42.2 -43.15 44.05 -42.05 45.95 -41.0 47.55 -39.9 49.2 -38.85 50.75 -37.65 52.35 -36.45 54.15 -34.95 55.9 -33.4 58.15 -31.05 60.35 -28.65 60.0 -29.25 59.7 -29.85 58.7 -31.4 57.75 -32.95 56.7 -34.4 55.65 -35.85 54.7 -37.05 53.75 -38.2 52.35 -39.85 50.9 -41.45 49.3 -43.05 47.65 -44.65 45.8 -46.15 44.0 -47.7 42.35 -48.9 40.7 -50.1 39.0 -51.2 37.35 -52.25 35.35 -53.35 33.35 -54.45 31.7 -55.2 30.0 -55.95 28.4 -56.55 26.8 -57.2 25.25 -57.7 23.7 -58.25 22.05 -58.7 20.35 -59.15 18.95 -59.4 17.55 -59.7 16.25 -59.95 14.9 -60.15 13.85 -60.3 12.8 -60.45 10.45 -60.6 8.05 -60.8 4.75 -60.7 1.5 -60.6 -0.45 -60.4 -2.45 -60.15 -4.3 -59.8 -6.2 -59.45 -7.5 -59.15 -8.85 -58.85 -10.4 -58.4 -11.9 -57.95 -13.55 -57.4 -15.2 -56.8 -17.05 -56.05 -18.95 -55.3 -22.0 -53.65 -25.1 -52.0 -27.1 -50.7 -29.1 -49.4 -31.2 -47.7 -33.35 -46.05 -34.75 -44.8 -36.15 -43.5 -38.25 -41.3 -40.35 -39.1 -41.65 -37.4 -43.0 -35.7 -43.7 -34.75 -44.4 -33.8 -45.45 -32.2 -46.5 -30.6 -47.55 -28.75 -48.6 -26.9 -49.4 -25.35 -50.15 -23.85 -51.05 -21.75 -51.9 -19.7 -52.65 -17.5 -53.45 -15.3 -54.05 -13.1 -54.65 -10.9 -55.0 -9.15 -55.35 -7.4 -55.65 -5.6 -55.9 -3.85 -56.15 -1.65 -56.4 0.55 -56.4 4.9 -56.4 9.2 -56.25 10.75 -56.05 12.3 -55.4 12.95 -54.75 13.55 -53.2 14.65 -51.65 15.7 -50.0 16.7 -48.3 17.7 -46.95 18.35 -45.65 18.95 -45.55 18.95 -45.4 18.95 -45.5 18.7 -45.5 18.7" fill="#4f4f4f" fill-rule="evenodd" stroke="none"/>
    <path d="M-45.6 21.55 L-46.6 21.15 -48.35 20.3 -50.05 19.45 -51.75 18.35 -53.5 17.3 -54.65 16.45 -55.85 15.65 -56.9 14.7 -57.95 13.8 -58.1 13.35 -58.3 12.85 -58.45 11.45 -58.6 10.1 -58.7 6.65 -58.75 3.2 -58.6 0.7 -58.45 -1.8 -58.15 -3.95 -57.9 -6.05 -57.55 -8.05 -57.15 -10.05 -56.7 -12.0 -56.2 -14.0 -55.55 -16.05 -54.9 -18.1 -54.1 -20.3 -53.25 -22.5 -51.95 -25.3 -50.65 -28.1 -49.7 -29.7 -48.8 -31.3 -47.8 -32.85 -46.8 -34.4 -45.6 -36.05 -44.45 -37.7 -43.1 -39.35 -41.75 -41.0 -39.7 -43.15 -37.65 -45.25 -36.2 -46.6 -34.7 -47.95 -33.05 -49.25 -31.4 -50.6 -29.9 -51.6 -28.45 -52.65 -26.5 -53.85 -24.55 -55.05 -22.3 -56.2 -20.05 -57.35 -17.75 -58.3 -15.45 -59.25 -13.85 -59.8 -12.25 -60.35 -10.15 -60.9 -8.0 -61.5 -6.7 -61.75 -5.35 -62.05 -3.45 -62.35 -1.5 -62.7 0.85 -62.9 3.15 -63.1 6.25 -63.1 9.35 -63.1 11.15 -62.95 12.95 -62.8 15.05 -62.5 17.15 -62.25 19.3 -61.8 21.4 -61.35 23.45 -60.75 25.55 -60.15 27.2 -59.55 28.9 -58.95 30.65 -58.25 32.4 -57.5 34.75 -56.3 37.15 -55.1 38.7 -54.15 40.25 -53.25 42.6 -51.6 45.0 -49.9 46.5 -48.65 48.0 -47.4 49.1 -46.45 50.15 -45.45 51.9 -43.65 53.6 -41.9 54.9 -40.4 56.2 -38.95 57.25 -37.55 58.3 -36.15 59.35 -34.6 60.4 -33.1 61.35 -31.45 62.35 -29.85 62.95 -28.65 63.6 -27.5 64.4 -25.95 65.2 -24.4 65.2 -23.5 65.25 -22.65 65.0 -22.2 64.75 -21.7 64.4 -21.55 64.05 -21.4 63.6 -21.4 63.15 -21.4 62.85 -21.6 62.55 -21.8 61.1 -23.8 59.65 -25.8 58.45 -27.25 57.2 -28.7 55.75 -30.2 54.3 -31.7 52.65 -33.1 51.0 -34.55 49.3 -35.8 47.65 -37.05 46.15 -38.05 44.7 -39.0 42.9 -40.0 41.05 -41.05 39.6 -41.75 38.15 -42.45 36.75 -43.05 35.35 -43.6 33.1 -44.4 30.85 -45.15 28.85 -45.7 26.8 -46.2 24.9 -46.6 22.95 -46.95 21.25 -47.15 19.6 -47.4 17.05 -47.55 14.5 -47.75 11.9 -47.65 9.35 -47.55 7.3 -47.3 5.25 -47.1 3.5 -46.8 1.75 -46.5 0.15 -46.15 -1.45 -45.75 -2.9 -45.35 -4.4 -44.9 -6.05 -44.35 -7.75 -43.75 -9.4 -43.05 -11.1 -42.35 -13.75 -41.0 -16.4 -39.65 -17.95 -38.65 -19.5 -37.7 -20.9 -36.7 -22.3 -35.7 -23.6 -34.65 -24.95 -33.55 -26.3 -32.35 -27.6 -31.15 -29.4 -29.25 -31.15 -27.35 -32.5 -25.65 -33.85 -24.0 -34.85 -22.45 -35.9 -20.9 -36.8 -19.4 -37.65 -17.95 -38.65 -15.9 -39.7 -13.85 -40.3 -12.3 -40.95 -10.75 -41.45 -9.3 -41.95 -7.8 -42.45 -6.0 -42.95 -4.15 -43.35 -2.0 -43.75 0.1 -43.95 2.1 -44.15 4.05 -44.25 6.4 -44.35 8.75 -44.2 11.05 -44.05 13.3 -43.75 15.3 -43.5 17.35 -43.1 18.95 -42.75 20.6 -42.95 21.0 -43.15 21.4 -43.5 21.55 -43.85 21.75 -44.2 21.8 -44.55 21.9 -45.6 21.55 M-45.5 18.65 L-45.55 18.3 -45.75 17.05 -46.0 15.8 -46.2 13.85 -46.4 11.85 -46.5 9.6 -46.6 7.3 -46.45 4.8 -46.25 2.3 -46.0 0.25 -45.7 -1.8 -45.3 -3.8 -44.85 -5.85 -44.1 -8.35 -43.35 -10.85 -42.55 -12.75 -41.8 -14.7 -40.95 -16.4 -40.15 -18.15 -39.4 -19.45 -38.7 -20.75 -37.45 -22.65 -36.25 -24.55 -34.7 -26.55 -33.2 -28.55 -30.6 -31.25 -28.0 -34.0 -26.15 -35.55 -24.25 -37.15 -22.0 -38.7 -19.75 -40.3 -17.95 -41.4 -16.15 -42.45 -14.2 -43.45 -12.2 -44.4 -10.45 -45.15 -8.7 -45.9 -6.75 -46.55 -4.8 -47.25 -3.0 -47.75 -1.15 -48.25 0.6 -48.65 2.35 -49.0 4.2 -49.3 6.1 -49.6 8.0 -49.75 9.9 -49.95 13.8 -49.95 17.7 -49.95 19.95 -49.7 22.2 -49.45 23.95 -49.15 25.7 -48.85 27.6 -48.4 29.55 -47.95 31.7 -47.3 33.9 -46.65 35.6 -46.0 37.3 -45.35 38.95 -44.6 40.55 -43.9 42.75 -42.7 45.0 -41.55 46.5 -40.6 47.95 -39.65 49.25 -38.75 50.6 -37.8 52.25 -36.45 53.95 -35.1 55.35 -33.8 56.75 -32.5 58.6 -30.5 60.45 -28.55 59.75 -29.8 59.0 -31.0 58.25 -32.2 57.45 -33.35 56.6 -34.55 55.75 -35.7 54.65 -37.1 53.55 -38.5 52.35 -39.9 51.15 -41.25 49.35 -43.0 47.6 -44.7 45.75 -46.3 43.85 -47.85 41.3 -49.65 38.7 -51.45 37.55 -52.15 36.45 -52.8 34.6 -53.75 32.75 -54.75 30.9 -55.55 29.05 -56.4 27.1 -57.1 25.1 -57.85 23.1 -58.4 21.05 -59.0 18.7 -59.5 16.3 -60.0 13.8 -60.35 11.3 -60.7 6.4 -60.7 1.5 -60.7 -0.5 -60.45 -2.45 -60.15 -4.05 -59.9 -5.65 -59.6 -7.05 -59.3 -8.45 -59.0 -10.2 -58.45 -12.0 -57.95 -14.05 -57.2 -16.15 -56.5 -18.15 -55.6 -20.2 -54.7 -22.3 -53.55 -24.4 -52.45 -25.65 -51.65 -26.9 -50.85 -28.35 -49.85 -29.85 -48.8 -31.15 -47.8 -32.5 -46.75 -34.1 -45.35 -35.7 -43.95 -38.1 -41.45 -40.5 -38.95 -41.9 -37.2 -43.25 -35.45 -44.05 -34.3 -44.85 -33.2 -46.1 -31.25 -47.35 -29.25 -48.35 -27.4 -49.35 -25.55 -50.3 -23.45 -51.25 -21.35 -52.0 -19.5 -52.7 -17.65 -53.1 -16.35 -53.55 -15.0 -54.0 -13.35 -54.5 -11.65 -55.0 -9.3 -55.5 -6.95 -55.85 -4.35 -56.2 -1.8 -56.35 0.7 -56.5 3.2 -56.4 6.7 -56.3 10.25 -56.25 11.2 -56.15 12.2 -55.8 12.6 -55.45 13.0 -54.4 13.8 -53.35 14.6 -51.55 15.8 -49.7 16.95 -47.75 17.95 -45.8 18.95 -45.6 18.95 -45.4 18.95 -45.5 18.65 -45.5 18.65" fill="#2e2e2e" fill-rule="evenodd" stroke="none"/>
    <path d="M-46.3 21.2 L-47.6 20.65 -49.05 19.85 -50.5 19.1 -52.05 18.15 -53.6 17.15 -54.6 16.45 -55.6 15.75 -56.8 14.7 -58.0 13.7 -58.15 13.15 -58.3 12.6 -58.45 10.7 -58.65 8.75 -58.65 4.95 -58.65 1.15 -58.45 -0.8 -58.3 -2.7 -58.0 -4.75 -57.75 -6.8 -57.3 -8.9 -56.9 -11.05 -56.5 -12.65 -56.05 -14.3 -55.35 -16.55 -54.65 -18.85 -53.75 -21.1 -52.85 -23.4 -51.65 -25.85 -50.45 -28.35 -49.55 -29.9 -48.6 -31.45 -47.3 -33.5 -45.95 -35.6 -44.65 -37.3 -43.3 -39.0 -42.0 -40.55 -40.7 -42.05 -38.85 -43.95 -36.95 -45.85 -35.35 -47.25 -33.75 -48.65 -32.45 -49.7 -31.1 -50.75 -29.3 -52.0 -27.45 -53.25 -25.3 -54.5 -23.15 -55.75 -21.1 -56.75 -19.1 -57.7 -17.75 -58.25 -16.35 -58.85 -14.5 -59.5 -12.65 -60.2 -10.0 -60.9 -7.3 -61.6 -5.3 -62.0 -3.25 -62.4 -0.8 -62.7 1.65 -63.0 6.1 -63.0 10.6 -63.05 12.35 -62.85 14.05 -62.65 15.95 -62.35 17.85 -62.05 19.55 -61.7 21.2 -61.35 23.3 -60.75 25.4 -60.15 26.8 -59.65 28.2 -59.2 29.65 -58.6 31.15 -58.0 32.35 -57.45 33.5 -56.9 35.55 -55.85 37.6 -54.8 38.75 -54.05 39.95 -53.35 41.95 -52.0 44.0 -50.6 45.4 -49.5 46.8 -48.4 48.4 -47.0 50.0 -45.6 52.55 -42.95 55.05 -40.3 56.7 -38.15 58.35 -36.0 59.6 -34.2 60.85 -32.35 62.1 -30.15 63.35 -27.95 64.25 -26.1 65.2 -24.25 65.2 -23.45 65.2 -22.6 64.85 -22.15 64.55 -21.65 64.05 -21.5 63.55 -21.4 63.05 -21.6 62.55 -21.8 61.35 -23.55 60.1 -25.3 58.9 -26.75 57.7 -28.25 55.75 -30.2 53.8 -32.2 52.05 -33.65 50.3 -35.15 48.85 -36.25 47.35 -37.35 45.55 -38.5 43.7 -39.65 41.7 -40.7 39.65 -41.8 37.85 -42.6 36.05 -43.4 34.15 -44.05 32.3 -44.75 30.25 -45.35 28.2 -45.95 26.25 -46.35 24.3 -46.8 22.1 -47.1 19.95 -47.4 18.15 -47.55 16.35 -47.7 13.65 -47.7 11.0 -47.7 9.1 -47.55 7.2 -47.4 5.1 -47.1 3.0 -46.8 1.3 -46.45 -0.45 -46.05 -2.3 -45.55 -4.1 -45.05 -6.0 -44.4 -7.9 -43.75 -9.7 -43.0 -11.5 -42.2 -13.6 -41.15 -15.7 -40.1 -17.3 -39.1 -18.9 -38.15 -20.65 -36.9 -22.45 -35.65 -23.9 -34.45 -25.4 -33.2 -27.05 -31.7 -28.65 -30.2 -29.95 -28.75 -31.2 -27.35 -32.2 -26.1 -33.2 -24.85 -34.05 -23.7 -34.9 -22.5 -36.1 -20.6 -37.3 -18.7 -38.1 -17.15 -38.9 -15.6 -39.6 -14.15 -40.25 -12.65 -40.8 -11.2 -41.35 -9.75 -41.8 -8.35 -42.25 -6.95 -42.7 -5.05 -43.2 -3.1 -43.45 -1.6 -43.75 -0.05 -44.0 1.8 -44.25 3.65 -44.25 7.9 -44.25 12.15 -44.0 14.05 -43.75 15.95 -43.35 18.1 -42.9 20.25 -42.9 20.6 -42.95 20.95 -43.1 21.2 -43.3 21.45 -43.65 21.6 -44.05 21.75 -44.5 21.75 -44.95 21.75 -46.3 21.2 -46.3 21.2 M-45.5 18.55 L-45.55 18.0 -45.85 16.2 -46.1 14.4 -46.3 12.35 -46.45 10.3 -46.35 6.55 -46.3 2.75 -46.0 0.75 -45.75 -1.25 -45.35 -3.15 -45.0 -5.05 -44.5 -6.8 -44.0 -8.55 -43.6 -9.75 -43.25 -10.9 -42.6 -12.55 -41.95 -14.2 -41.0 -16.15 -40.1 -18.1 -39.3 -19.5 -38.55 -20.9 -37.4 -22.65 -36.3 -24.4 -34.95 -26.2 -33.6 -27.95 -32.1 -29.65 -30.65 -31.3 -29.3 -32.6 -27.95 -33.95 -26.65 -35.05 -25.35 -36.15 -24.3 -37.0 -23.25 -37.85 -21.95 -38.75 -20.7 -39.65 -19.2 -40.6 -17.65 -41.55 -15.05 -42.9 -12.45 -44.25 -10.3 -45.15 -8.15 -46.05 -6.4 -46.65 -4.65 -47.25 -2.5 -47.85 -0.35 -48.4 1.55 -48.8 3.45 -49.15 5.0 -49.35 6.5 -49.6 8.6 -49.75 10.65 -49.95 15.05 -49.85 19.4 -49.75 21.55 -49.45 23.7 -49.15 25.65 -48.8 27.55 -48.4 29.4 -47.9 31.3 -47.4 32.95 -46.9 34.65 -46.35 36.65 -45.55 38.7 -44.7 40.7 -43.75 42.75 -42.75 44.7 -41.6 46.65 -40.45 48.5 -39.2 50.3 -37.95 51.7 -36.85 53.1 -35.75 54.35 -34.65 55.6 -33.55 58.1 -30.95 60.6 -28.3 60.3 -28.85 60.05 -29.45 58.7 -31.55 57.35 -33.65 56.4 -34.9 55.5 -36.15 54.45 -37.5 53.4 -38.8 50.85 -41.45 48.35 -44.1 46.95 -45.35 45.55 -46.55 44.3 -47.55 43.0 -48.5 41.9 -49.35 40.75 -50.15 38.75 -51.45 36.75 -52.7 34.2 -54.0 31.7 -55.3 29.9 -56.05 28.15 -56.8 26.3 -57.45 24.4 -58.1 22.25 -58.7 20.1 -59.3 18.95 -59.5 17.85 -59.75 16.2 -60.05 14.55 -60.3 12.35 -60.55 10.15 -60.75 8.15 -60.85 6.1 -60.95 3.45 -60.75 0.8 -60.6 -1.05 -60.4 -2.85 -60.15 -4.9 -59.8 -6.9 -59.4 -9.0 -58.85 -11.1 -58.3 -12.9 -57.7 -14.75 -57.05 -17.05 -56.1 -19.35 -55.15 -21.65 -53.95 -24.0 -52.7 -25.35 -51.85 -26.75 -51.0 -28.45 -49.85 -30.1 -48.65 -31.5 -47.55 -32.9 -46.45 -34.05 -45.5 -35.15 -44.5 -36.5 -43.2 -37.8 -41.9 -39.15 -40.45 -40.5 -38.95 -41.6 -37.65 -42.65 -36.3 -44.1 -34.35 -45.5 -32.35 -46.55 -30.6 -47.65 -28.8 -48.65 -26.9 -49.7 -25.0 -50.45 -23.3 -51.2 -21.65 -51.95 -19.7 -52.7 -17.75 -53.4 -15.5 -54.1 -13.25 -54.5 -11.55 -54.95 -9.9 -55.35 -7.7 -55.75 -5.45 -56.1 -3.0 -56.4 -0.5 -56.4 4.6 -56.4 9.65 -56.3 10.95 -56.2 12.3 -55.75 12.7 -55.3 13.15 -54.3 13.9 -53.35 14.65 -52.1 15.45 -50.8 16.3 -49.65 17.0 -48.45 17.7 -46.95 18.4 -45.5 19.1 -45.45 19.1 -45.4 19.1 -45.5 18.55 -45.5 18.55" fill="#000000" fill-rule="evenodd" stroke="none"/>
  </g>
</svg>
