<?xml version="1.0" encoding="UTF-8" standalone="no"?>
<svg xmlns:xlink="http://www.w3.org/1999/xlink" height="200.0px" width="200.0px" xmlns="http://www.w3.org/2000/svg">
  <g transform="matrix(1.0, 0.0, 0.0, 1.0, 100.0, 100.0)">
    <path d="M-10.2 -10.2 Q-10.15 -10.15 -10.1 -10.15 -10.05 -10.15 -10.0 -10.15 -9.9 -10.1 -9.8 -10.1 -9.75 -10.05 -9.65 -10.0 -9.6 -9.95 -9.5 -9.9 -9.45 -9.8 -9.4 -9.75 -9.35 -9.7 -9.3 -9.6 -9.25 -9.5 -9.25 -9.4 -9.2 -9.3 -9.15 -9.2 -9.15 -9.1 -9.15 -9.0 -9.15 -8.9 -9.15 -8.75 -9.1 -8.65 -9.1 -8.5 -9.1 -8.4 -9.1 -8.3 -9.1 -8.15 -9.1 -8.05 -9.15 -7.95 -9.15 -7.8 -9.15 -7.7 -9.15 -7.6 -9.15 -7.5 -9.2 -7.35 -9.2 -7.25 -9.2 -7.1 -9.25 -6.8 -9.3 -6.5 -9.35 -6.2 -9.35 -5.9 -9.4 -5.55 -9.45 -5.25 -9.5 -4.95 -9.5 -4.65 -9.55 -4.35 -9.6 -4.05 -9.6 -3.75 -9.65 -3.45 -9.65 -3.1 -9.65 -2.8 -9.7 -2.5 -9.7 -2.2 -9.7 -1.85 -9.75 -1.45 -9.75 -1.1 -9.8 -0.7 -9.85 -0.35 -9.85 0.0 -9.9 0.4 -9.95 0.75 -10.0 1.1 -10.05 1.5 -10.1 1.85 -10.15 2.2 -10.2 2.6 -10.25 2.95 -10.3 3.3 -10.4 3.7 -10.5 4.25 -10.6 4.8 -10.6 4.8 -10.65 4.95 -10.75 5.3 -10.95 5.95 -11.15 6.7 -11.2 6.95 -11.3 7.25 -11.4 7.55 -11.45 7.85 -11.55 8.15 -11.65 8.45 -11.75 8.7 -11.85 9.0 -11.95 9.3 -12.1 9.6 -12.2 9.85 -12.3 10.15 -12.45 10.4 -12.6 10.7 -12.7 11.0 -12.85 11.25 -13.0 11.55 -13.3 12.1 -13.85 12.95 -14.6 14.2 -14.7 14.35 -14.75 14.4 -14.8 14.5 -14.85 14.55 -14.85 14.65 -14.9 14.7 -14.95 14.8 -14.95 14.85 -15.0 14.95 -15.05 15.05 -15.05 15.1 -15.1 15.2 -15.1 15.25 -15.1 15.35 -15.1 15.45 -15.15 15.5 -15.15 15.6 -15.15 15.65 -15.15 15.7 -15.15 15.8 -15.15 15.85 -15.15 15.9 -15.1 15.95 -15.1 16.05 -15.1 16.1 -15.1 16.15 -15.05 16.2 -15.05 16.25 -15.05 16.3 -15.0 16.4 -15.0 16.45 -14.95 16.5 -14.95 16.55 -14.8 16.95 -14.45 17.85 -14.1 18.65 -13.9 19.1 -13.85 19.2 -13.8 19.35 -13.75 19.45 -13.7 19.6 -13.7 19.7 -13.65 19.85 -13.65 20.0 -13.6 20.1 -13.6 20.25 -13.6 20.35 -13.55 20.5 -13.55 20.65 -13.55 20.75 -13.55 20.9 -13.55 21.0 -13.6 21.15 -13.65 21.95 -14.0 24.5 -14.0 24.6 -14.0 24.7 -14.05 24.8 -14.05 24.9 -14.05 25.05 -14.05 25.15 -14.05 25.25 -14.05 25.35 -14.05 25.45 -14.05 25.55 -14.05 25.65 -14.05 25.75 -14.05 25.85 -14.05 25.95 -14.05 26.05 -14.0 26.15 -13.95 26.35 -13.9 26.5 -13.85 26.7 -13.8 26.85 -13.75 27.0 -13.65 27.2 -13.6 27.35 -13.45 27.5 -13.4 27.6 -13.25 27.75 -13.15 27.9 -13.0 28.0 -12.9 28.15 -12.75 28.25 -12.6 28.35 -12.45 28.45 -12.4 28.5 -12.3 28.55 -12.25 28.55 -12.2 28.6 -12.1 28.65 -12.05 28.65 -12.0 28.65 -11.9 28.65 -11.85 28.7 -11.75 28.7 -11.7 28.65 -11.65 28.65 -11.55 28.65 -11.5 28.65 -11.4 28.6 -11.35 28.6 -10.9 28.4 -10.45 28.25 -10.0 28.05 -9.55 27.9 -9.1 27.7 -8.65 27.55 -8.2 27.4 -7.75 27.25 -7.25 27.05 -6.8 26.9 -6.35 26.75 -5.9 26.65 -5.4 26.5 -4.95 26.35 -4.5 26.25 -4.05 26.1 -2.0 25.6 -1.05 25.5 -0.15 25.35 0.2 25.2 2.4 25.1 5.3 25.1 5.7 25.1 6.4 25.1 7.2 25.1 7.55 25.15 7.85 25.15 8.8 25.35 8.9 25.35 9.0 25.4 9.1 25.4 9.2 25.4 9.3 25.4 9.4 25.4 9.5 25.4 9.6 25.4 9.7 25.4 9.8 25.35 9.9 25.35 10.0 25.35 10.1 25.3 10.2 25.3 10.3 25.25 10.4 25.25 10.45 25.25 10.5 25.2 10.5 25.2 10.55 25.2 10.6 25.2 10.6 25.15 10.65 25.15 10.7 25.1 10.8 25.05 10.85 25.0 10.9 24.95 10.95 24.9 11.0 24.85 11.05 24.8 11.05 24.75 11.1 24.7 11.1 24.65 11.1 24.55 11.1 24.5 11.1 24.45 11.1 24.35 11.05 24.3 11.05 24.2 11.0 24.15 10.4 22.8 9.95 21.95 9.8 21.65 9.65 21.3 9.5 20.95 9.45 20.65 9.35 20.3 9.3 20.0 9.25 19.65 9.25 19.3 9.2 19.0 9.25 18.65 9.25 18.3 9.35 17.95 9.4 17.65 9.5 17.3 9.6 16.95 9.7 16.6 10.45 14.9 10.55 14.55 10.6 14.4 10.6 14.3 10.65 14.15 10.7 14.05 10.7 13.9 10.75 13.75 10.75 13.65 10.75 13.5 10.8 13.35 10.8 13.25 10.8 13.1 10.8 13.0 10.75 12.85 10.75 12.7 10.75 12.6 10.7 12.45 10.65 12.25 10.35 11.55 10.2 11.25 10.1 10.95 9.95 10.65 9.85 10.35 9.75 10.05 9.65 9.75 9.6 9.45 9.5 9.15 9.45 8.85 9.4 8.5 9.35 8.2 9.35 7.9 9.3 7.6 9.3 7.25 9.3 6.95 9.3 6.6 9.35 5.2 9.5 4.4 9.5 4.2 9.55 4.05 9.6 3.85 9.6 3.7 9.65 3.5 9.7 3.35 9.7 3.2 9.75 3.0 9.8 2.85 9.85 2.65 9.9 2.5 9.95 2.35 10.0 2.15 10.05 2.0 10.15 1.85 10.2 1.7 10.25 1.6 10.3 1.5 10.35 1.35 10.35 1.25 10.4 1.15 10.45 1.05 10.45 0.9 10.5 0.8 10.5 0.7 10.55 0.55 10.55 0.45 10.55 0.35 10.6 0.25 10.6 0.1 10.65 0.05 10.65 -0.1 10.7 -0.4 10.85 -1.15 11.0 -1.8 11.05 -2.2 11.1 -2.65 11.2 -3.85 11.25 -4.35 11.55 -6.2 11.65 -6.75 11.7 -7.0 11.75 -7.1 11.8 -7.2 11.8 -7.35 11.85 -7.45 11.9 -7.55 11.95 -7.65 12.05 -7.75 12.1 -7.85 12.15 -7.95 12.2 -8.05 12.3 -8.1 12.35 -8.2 12.4 -8.3 12.5 -8.4 12.55 -8.5 12.65 -8.55 12.7 -8.6 12.7 -8.6 12.75 -8.65 12.75 -8.65 12.8 -8.7 12.85 -8.7 12.85 -8.75 12.9 -8.75 12.95 -8.8 12.95 -8.8 13.0 -8.85 13.05 -8.85 13.1 -8.85 13.15 -8.85 13.2 -8.9 13.25 -8.85 13.3 -8.85 13.35 -8.85 13.4 -8.85 13.45 -8.8 13.45 -8.8 13.5 -8.75 13.55 -8.7 13.55 -8.65 13.6 -8.65 13.6 -8.55 13.6 -8.5 13.65 -8.5 13.65 -8.45 13.65 -8.4 13.7 -8.35 13.7 -8.3 13.7 -8.3 13.7 -8.25 13.7 -8.2 13.7 -8.15 13.7 -8.1 13.7 -8.05 13.7 -8.05 13.7 -8.0 13.7 -7.95 13.7 -7.9 13.7 -7.65 13.7 -7.4 13.7 -7.15 13.7 -6.9 13.65 -6.65 13.65 -6.4 13.65 -6.1 13.6 -5.9 13.6 -5.6 13.55 -5.4 13.55 -5.1 13.5 -4.85 13.45 -4.6 13.45 -4.35 13.4 -4.1 13.3 -3.85 13.25 -3.7 13.25 -3.6 13.25 -3.45 13.2 -3.3 13.2 -3.2 13.15 -3.05 13.15 -2.9 13.15 -2.75 13.15 -2.65 13.1 -2.5 13.1 -2.35 13.1 -2.2 13.1 -2.05 13.1 -1.95 13.05 -1.8 13.05 -1.65 13.05 -0.3 12.95 0.5 12.95 1.0 12.65 2.05 12.6 2.35 12.55 2.6 12.45 2.9 12.4 3.15 12.35 3.45 12.3 3.75 12.25 4.0 12.2 4.3 12.15 4.6 12.15 4.85 12.1 5.15 12.1 5.45 12.05 5.75 12.05 6.0 12.0 6.3 12.0 6.6 12.0 6.85 12.0 7.05 12.0 7.25 12.0 7.45 12.0 7.7 12.05 7.9 12.05 8.15 12.1 8.35 12.1 8.55 12.15 8.75 12.2 9.0 12.25 9.2 12.3 9.4 12.4 9.6 12.45 9.8 12.55 10.0 12.65 10.2 12.85 10.65 13.05 11.05 13.15 11.25 13.25 11.5 13.3 11.7 13.35 11.95 13.4 12.15 13.4 12.4 13.45 12.6 13.45 12.85 13.45 13.1 13.45 13.3 13.45 13.55 13.45 13.75 13.4 14.0 13.35 14.2 13.35 14.45 13.3 14.65 13.2 14.9 13.1 15.25 12.25 17.55 12.2 17.7 12.2 17.75 12.15 17.85 12.1 17.9 12.1 18.0 12.05 18.1 12.05 18.2 12.0 18.25 12.0 18.35 11.95 18.45 11.95 18.55 11.9 18.65 11.9 18.75 11.9 18.85 11.9 18.95 11.9 19.0 11.9 19.1 11.9 19.25 11.9 19.35 11.9 19.5 11.95 19.6 11.95 19.7 12.0 19.8 12.0 19.95 12.05 20.05 12.1 20.15 12.15 20.25 12.15 20.35 12.2 20.45 12.25 20.55 12.3 20.65 12.35 20.8 12.65 21.35 13.3 22.7 13.35 22.8 13.4 22.9 13.45 23.0 13.45 23.1 13.5 23.2 13.55 23.3 13.55 23.35 13.6 23.45 13.6 23.55 13.65 23.65 13.65 23.75 13.7 23.85 13.7 23.95 13.7 24.05 13.75 24.2 13.75 24.3 13.7 24.3 13.75 24.35 13.75 24.45 13.75 24.75 13.75 24.75 13.75 24.85 13.75 25.0 13.7 25.1 13.65 25.25 13.65 25.4 13.6 25.5 13.55 25.65 13.5 25.75 13.45 25.85 13.4 26.0 13.3 26.1 13.25 26.2 13.2 26.3 13.1 26.4 13.0 26.5 12.9 26.6 12.8 26.7 12.65 26.85 12.5 26.95 12.35 27.05 12.2 27.15 12.05 27.25 11.9 27.35 11.7 27.45 11.55 27.5 11.35 27.55 11.2 27.6 11.0 27.65 10.85 27.7 10.65 27.75 10.45 27.8 10.25 27.8 10.05 27.8 9.9 27.8 9.75 27.85 9.55 27.85 9.4 27.85 9.25 27.85 9.1 27.85 8.95 27.85 8.75 27.85 8.6 27.85 8.45 27.8 8.3 27.8 8.1 27.8 7.95 27.75 7.8 27.75 7.65 27.75 7.45 27.7 7.15 27.65 6.9 27.65 6.6 27.6 6.3 27.6 6.05 27.55 5.75 27.55 5.45 27.55 5.15 27.5 4.9 27.5 4.6 27.5 4.3 27.5 4.0 27.5 3.75 27.5 3.45 27.5 3.15 27.55 2.85 27.55 2.45 27.55 2.0 27.6 1.6 27.65 1.15 27.7 0.75 27.7 0.35 27.8 -0.1 27.85 -0.5 27.9 -0.9 27.95 -1.35 28.05 -1.75 28.15 -2.15 28.2 -2.6 28.3 -3.0 28.4 -3.4 28.5 -3.8 28.6 -4.3 28.75 -4.75 28.85 -5.2 29.0 -5.7 29.15 -6.15 29.3 -6.65 29.45 -7.1 29.6 -7.55 29.75 -8.0 29.95 -8.45 30.1 -8.95 30.3 -9.4 30.45 -9.85 30.65 -10.3 30.85 -10.75 31.05 -11.2 31.2 -11.35 31.25 -11.5 31.3 -11.6 31.35 -11.75 31.4 -11.9 31.4 -12.05 31.45 -12.15 31.45 -12.3 31.45 -12.45 31.4 -12.55 31.4 -12.7 31.35 -12.85 31.3 -12.95 31.2 -13.1 31.15 -13.2 31.05 -13.35 30.95 -13.75 30.6 -14.55 30.0 -14.85 29.8 -15.1 29.55 -15.35 29.3 -15.55 29.05 -15.75 28.8 -15.95 28.5 -16.1 28.25 -16.25 27.95 -16.4 27.65 -16.5 27.35 -16.55 27.05 -16.65 26.7 -16.7 26.4 -16.7 26.05 -16.75 25.7 -16.7 25.35 -16.7 24.7 -16.35 22.0 -16.35 21.85 -16.3 21.7 -16.3 21.5 -16.3 21.35 -16.3 21.2 -16.3 21.05 -16.3 20.9 -16.3 20.75 -16.3 20.6 -16.3 20.45 -16.35 20.3 -16.4 20.15 -16.4 20.0 -16.45 19.85 -16.5 19.7 -16.6 19.55 -16.75 19.15 -17.05 18.45 -17.35 17.7 -17.45 17.35 -17.55 17.15 -17.6 16.95 -17.7 16.75 -17.75 16.55 -17.75 16.3 -17.8 16.1 -17.8 15.9 -17.85 15.7 -17.85 15.5 -17.8 15.3 -17.8 15.1 -17.75 14.85 -17.7 14.65 -17.65 14.45 -17.6 14.25 -17.5 14.05 -17.45 13.9 -17.4 13.8 -17.35 13.65 -17.25 13.55 -17.2 13.4 -17.15 13.3 -17.1 13.15 -17.0 13.05 -16.95 12.95 -16.85 12.8 -16.8 12.7 -16.7 12.55 -16.65 12.45 -16.55 12.35 -16.5 12.25 -16.4 12.1 -16.15 11.75 -15.9 11.35 -15.7 10.95 -15.5 10.6 -15.25 10.2 -15.1 9.8 -14.9 9.4 -14.7 9.0 -14.55 8.6 -14.4 8.2 -14.2 7.75 -14.05 7.35 -13.95 6.95 -13.8 6.5 -13.7 6.1 -13.55 5.65 -13.4 5.1 -13.3 4.55 -13.15 4.0 -13.05 3.45 -12.95 2.9 -12.85 2.35 -12.75 1.8 -12.65 1.25 -12.55 0.7 -12.45 0.15 -12.4 -0.4 -12.3 -1.0 -12.25 -1.55 -12.15 -2.1 -12.1 -2.65 -12.05 -3.2 -12.0 -3.7 -11.8 -5.45 -11.7 -6.8 -11.55 -7.65 -11.55 -7.75 -11.5 -7.85 -11.5 -8.0 -11.5 -8.1 -11.45 -8.2 -11.45 -8.3 -11.45 -8.45 -11.4 -8.55 -11.4 -8.65 -11.35 -8.75 -11.35 -8.85 -11.3 -9.0 -11.3 -9.1 -11.25 -9.2 -11.2 -9.3 -11.15 -9.4 -11.15 -9.45 -11.1 -9.55 -11.05 -9.6 -11.05 -9.65 -11.0 -9.75 -10.95 -9.8 -10.95 -9.85 -10.9 -9.9 -10.85 -9.95 -10.8 -10.0 -10.75 -10.05 -10.7 -10.1 -10.6 -10.15 -10.55 -10.15 -10.5 -10.2 -10.4 -10.2 -10.35 -10.2 -10.2 -10.2 L-10.2 -10.2" fill="#040404" fill-rule="evenodd" stroke="none"/>
    <path d="M0.2 25.2 Q0.1 25.25 0.05 25.25 -0.05 25.3 -0.1 25.3 -0.2 25.35 -0.25 25.35 -0.35 25.35 -0.45 25.4 -0.5 25.4 -0.6 25.4 -0.65 25.4 -0.75 25.45 -0.8 25.45 -0.9 25.45 -0.95 25.45 -1.05 25.5 -2.05 25.6 -4.05 26.1 -4.5 26.2 -5.0 26.35 -5.45 26.5 -5.9 26.65 -6.35 26.75 -6.8 26.9 -7.25 27.05 -7.75 27.2 -8.2 27.4 -8.65 27.55 -9.1 27.7 -9.55 27.9 -10.0 28.05 -10.45 28.2 -10.9 28.4 -11.35 28.6 -11.4 28.65 -11.5 28.65 -11.55 28.65 -11.65 28.65 -11.7 28.7 -11.75 28.7 -11.85 28.7 -11.9 28.7 -11.95 28.65 -12.05 28.65 -12.1 28.65 -12.15 28.6 -12.25 28.6 -12.3 28.55 -12.35 28.5 -12.45 28.45 -12.6 28.35 -12.75 28.25 -12.9 28.1 -13.0 28.0 -13.15 27.9 -13.25 27.75 -13.4 27.6 -13.5 27.45 -13.6 27.35 -13.65 27.2 -13.75 27.0 -13.8 26.85 -13.9 26.7 -13.95 26.5 -14.0 26.35 -14.0 26.15 -14.0 26.05 -14.05 25.95 -14.05 25.85 -14.05 25.75 -14.05 25.65 -14.05 25.55 -14.05 25.45 -14.05 25.35 -14.05 25.25 -14.05 25.15 -14.05 25.05 -14.05 24.95 -14.0 24.85 -14.0 24.75 -14.0 24.65 -14.0 24.5 -13.65 22.2 -13.6 21.15 -13.6 21.0 -13.6 20.9 -13.55 20.75 -13.6 20.65 -13.6 20.5 -13.6 20.35 -13.6 20.25 -13.6 20.1 -13.65 20.0 -13.65 19.85 -13.7 19.75 -13.7 19.6 -13.75 19.45 -13.8 19.35 -13.85 19.25 -13.9 19.1 -14.1 18.65 -14.45 17.85 -14.8 16.9 -14.95 16.55 -14.95 16.5 -15.0 16.45 -15.0 16.4 -15.05 16.3 -15.05 16.25 -15.05 16.2 -15.1 16.15 -15.1 16.1 -15.1 16.05 -15.1 15.95 -15.1 15.9 -15.15 15.85 -15.15 15.8 -15.15 15.75 -15.15 15.65 -15.15 15.6 -15.15 15.5 -15.15 15.45 -15.1 15.35 -15.1 15.25 -15.1 15.2 -15.05 15.1 -15.05 15.05 -15.0 14.95 -15.0 14.85 -14.95 14.8 -14.9 14.7 -14.9 14.65 -14.85 14.55 -14.8 14.5 -14.75 14.45 -14.7 14.35 -14.55 14.15 -13.85 12.95 -13.3 12.1 -13.0 11.55 -12.85 11.3 -12.7 11.0 -12.6 10.7 -12.45 10.45 -12.3 10.15 -12.2 9.85 -12.1 9.6 -11.95 9.3 -11.85 9.0 -11.75 8.7 -11.65 8.45 -11.55 8.15 -11.45 7.85 -11.35 7.55 -11.3 7.25 -11.2 6.95 -11.15 6.75 -10.95 5.95 -10.75 5.3 -10.65 4.95 -10.65 4.95 -10.6 4.8 -10.55 4.85 -10.55 4.9 -10.5 4.95 -10.5 5.0 -10.45 5.05 -10.45 5.1 -10.4 5.15 -10.4 5.25 -10.4 5.3 -10.35 5.35 -10.35 5.4 -10.35 5.45 -10.35 5.5 -10.3 5.6 -10.3 5.65 -10.3 5.7 -10.3 5.9 -10.25 6.05 -10.25 6.25 -10.25 6.4 -10.25 6.6 -10.3 6.75 -10.3 6.95 -10.3 7.1 -10.35 7.3 -10.35 7.5 -10.4 7.65 -10.4 7.85 -10.45 8.0 -10.5 8.15 -10.5 8.35 -10.55 8.5 -10.6 8.75 -10.65 9.0 -10.75 9.25 -10.8 9.55 -10.85 9.8 -10.95 10.05 -11.05 10.3 -11.1 10.55 -11.2 10.8 -11.3 11.05 -11.4 11.25 -11.5 11.5 -11.55 11.75 -11.7 12.0 -11.8 12.25 -11.9 12.5 -12.25 13.35 -13.15 15.1 -13.2 15.15 -13.2 15.2 -13.25 15.3 -13.25 15.35 -13.25 15.4 -13.3 15.45 -13.3 15.5 -13.35 15.55 -13.35 15.6 -13.35 15.7 -13.4 15.75 -13.4 15.8 -13.4 15.85 -13.4 15.9 -13.4 16.0 -13.4 16.05 -13.4 16.15 -13.4 16.25 -13.4 16.35 -13.4 16.45 -13.4 16.55 -13.35 16.6 -13.3 16.7 -13.3 16.75 -13.25 16.85 -13.2 16.9 -13.15 16.95 -13.05 17.0 -13.0 17.1 -12.9 17.15 -12.8 17.2 -12.65 17.25 -12.55 17.3 -12.45 17.3 -12.35 17.35 -12.25 17.4 -12.15 17.4 -12.05 17.45 -11.95 17.45 -11.8 17.5 -11.7 17.5 -11.6 17.5 -11.5 17.55 -11.4 17.55 -11.3 17.6 -11.15 17.6 -11.05 17.6 -10.95 17.65 -10.8 17.65 -10.65 17.7 -10.45 17.7 -10.3 17.75 -10.15 17.75 -10.0 17.8 -9.85 17.8 -9.7 17.85 -9.5 17.9 -9.35 17.9 -9.2 17.95 -9.05 18.0 -8.9 18.0 -8.75 18.05 -8.55 18.1 -8.4 18.15 -8.2 18.2 -8.05 18.3 -7.9 18.4 -7.8 18.55 -7.7 18.65 -7.65 18.8 -7.6 18.95 -7.6 19.1 -7.55 19.25 -7.6 19.4 -7.6 19.55 -7.65 19.7 -7.7 19.85 -7.75 20.0 -7.85 20.1 -7.95 20.2 -8.2 20.4 -9.05 20.95 -9.35 21.15 -10.35 21.75 -10.4 21.75 -10.4 21.8 -10.45 21.8 -10.5 21.8 -10.55 21.85 -10.6 21.8 -10.65 21.75 -10.6 21.65 -10.5 21.55 -10.25 21.35 -10.0 21.1 -9.9 21.0 -9.8 20.9 -9.7 20.85 -9.6 20.75 -9.55 20.65 -9.45 20.55 -9.4 20.5 -9.35 20.4 -9.25 20.3 -9.2 20.2 -9.15 20.05 -9.1 19.95 -9.1 19.85 -9.05 19.75 -9.0 19.6 -8.95 19.5 -8.95 19.4 -8.95 19.35 -8.95 19.3 -8.95 19.3 -8.95 19.25 -8.95 19.2 -9.0 19.15 -9.0 19.15 -9.05 19.1 -9.05 19.1 -9.1 19.1 -9.15 19.1 -9.2 19.05 -9.2 19.05 -9.25 19.0 -9.3 19.0 -9.35 19.0 -9.35 19.0 -9.4 18.95 -9.45 18.95 -9.5 18.95 -9.5 18.95 -9.55 18.95 -9.6 18.9 -9.65 18.9 -9.7 18.9 -9.7 18.9 -9.85 18.9 -9.95 18.9 -10.05 18.9 -10.2 18.9 -10.3 18.9 -10.4 18.9 -10.55 18.95 -10.65 18.95 -10.75 19.0 -10.9 19.0 -11.0 19.05 -11.1 19.1 -11.2 19.15 -11.3 19.2 -11.4 19.3 -11.5 19.35 -11.55 19.4 -11.6 19.4 -11.6 19.45 -11.65 19.5 -11.7 19.55 -11.7 19.6 -11.75 19.6 -11.75 19.65 -11.8 19.7 -11.85 19.75 -11.85 19.8 -11.9 19.85 -11.9 19.85 -11.95 19.9 -11.95 19.95 -12.0 20.0 -12.8 21.55 -13.0 22.3 -13.05 22.45 -13.1 22.6 -13.15 22.7 -13.15 22.85 -13.2 23.0 -13.25 23.15 -13.25 23.25 -13.3 23.4 -13.3 23.55 -13.35 23.7 -13.35 23.85 -13.35 23.95 -13.35 24.1 -13.35 24.25 -13.35 24.4 -13.35 24.55 -13.35 24.7 -13.35 24.8 -13.3 24.95 -13.3 25.05 -13.3 25.2 -13.25 25.35 -13.25 25.45 -13.2 25.6 -13.2 25.7 -13.15 25.85 -13.1 25.95 -13.05 26.1 -13.0 26.2 -12.95 26.3 -12.85 26.45 -12.75 26.55 -12.65 26.65 -12.6 26.75 -12.5 26.85 -12.4 26.95 -12.3 27.0 -12.2 27.1 -12.1 27.15 -12.0 27.2 -11.85 27.25 -11.75 27.25 -11.65 27.3 -11.5 27.3 -11.4 27.35 -11.25 27.35 -11.1 27.3 -10.95 27.3 -10.35 27.2 -8.75 26.65 -6.4 25.75 -5.15 25.5 -5.0 25.5 -4.9 25.45 -4.75 25.45 -4.65 25.4 -4.5 25.4 -4.35 25.4 -4.25 25.35 -4.1 25.35 -4.0 25.3 -3.85 25.3 -3.75 25.3 -3.6 25.3 -3.45 25.25 -3.35 25.25 -3.2 25.25 -3.1 25.2 -2.0 25.15 -1.0 25.1 -0.8 25.1 -0.1 25.1 -0.05 25.1 -0.05 25.1 0.0 25.1 0.05 25.1 0.1 25.15 0.1 25.15 0.15 25.15 0.2 25.2 L0.2 25.2" fill="#000000" fill-opacity="0.2901961" fill-rule="evenodd" stroke="none"/>
    <path d="M2.0 16.9 Q2.1 16.9 2.2 16.9 2.25 16.9 2.35 16.9 2.45 16.9 2.55 16.9 2.65 16.9 2.75 16.9 2.85 16.9 3.0 16.9 3.1 16.9 3.2 16.95 3.3 16.95 3.4 16.95 3.5 16.95 3.6 16.95 5.85 17.3 6.55 17.55 6.65 17.6 6.75 17.65 6.9 17.7 7.0 17.75 7.1 17.8 7.2 17.85 7.3 17.95 7.35 18.0 7.45 18.1 7.55 18.15 7.65 18.25 7.7 18.35 7.8 18.4 7.9 18.5 7.95 18.6 8.05 18.7 8.05 18.75 8.25 19.0 8.25 19.05 8.3 19.05 8.3 19.1 8.3 19.15 8.3 19.15 8.3 19.2 8.3 19.2 8.3 19.25 8.3 19.3 8.25 19.3 8.25 19.35 8.2 19.35 8.2 19.35 8.15 19.4 8.1 19.4 8.05 19.4 8.0 19.4 8.0 19.4 7.95 19.4 7.9 19.4 7.85 19.4 7.85 19.4 7.8 19.4 7.75 19.4 7.7 19.4 7.7 19.35 7.55 19.3 7.35 19.25 7.15 19.2 7.0 19.15 6.8 19.1 6.65 19.05 6.45 19.0 6.3 19.0 6.1 18.95 5.95 18.9 5.75 18.85 5.6 18.85 5.4 18.8 5.25 18.75 5.05 18.75 4.85 18.7 3.7 18.55 2.9 18.5 1.6 18.4 0.85 18.45 0.7 18.45 0.6 18.45 0.45 18.45 0.35 18.45 0.2 18.45 0.1 18.5 -0.05 18.5 -0.15 18.5 -0.3 18.5 -0.4 18.5 -0.55 18.55 -0.7 18.55 -0.8 18.55 -0.95 18.55 -1.05 18.55 -1.2 18.6 -1.7 18.65 -2.55 18.8 -3.55 18.95 -3.85 19.0 -3.9 19.0 -3.95 19.0 -4.0 19.0 -4.05 19.0 -4.1 19.0 -4.15 18.95 -4.2 18.95 -4.25 18.95 -4.3 18.9 -4.3 18.9 -4.35 18.85 -4.4 18.8 -4.4 18.8 -4.45 18.75 -4.45 18.7 -4.45 18.65 -4.45 18.6 -4.45 18.55 -4.45 18.55 -4.45 18.5 -4.45 18.45 -4.4 18.45 -4.35 18.4 -4.35 18.35 -4.3 18.35 -4.25 18.3 -4.1 18.25 -3.25 17.9 -2.7 17.65 -2.3 17.5 -2.15 17.45 -2.0 17.4 -1.8 17.35 -1.65 17.3 -1.5 17.3 -1.35 17.25 -1.15 17.2 -1.0 17.15 -0.85 17.15 -0.7 17.1 -0.5 17.05 -0.35 17.05 -0.2 17.0 0.0 17.0 0.15 17.0 0.3 16.95 1.0 16.9 2.0 16.9 L2.0 16.9" fill="#000000" fill-opacity="0.2901961" fill-rule="evenodd" stroke="none"/>
  </g>
</svg>
