<?xml version="1.0" encoding="UTF-8" standalone="no"?>
<svg xmlns:xlink="http://www.w3.org/1999/xlink" height="33.9px" width="33.7px" xmlns="http://www.w3.org/2000/svg">
  <g transform="matrix(1.0, 0.0, 0.0, 1.0, 16.85, 16.95)">
    <path d="M-13.1 -0.85 Q-13.2 -3.45 -13.15 -4.2 -13.15 -4.35 -13.15 -4.45 -13.1 -4.6 -13.1 -4.7 -13.05 -4.85 -13.05 -4.95 -13.0 -5.1 -12.95 -5.2 -12.9 -5.35 -12.85 -5.45 -12.8 -5.6 -12.75 -5.7 -12.7 -5.8 -12.6 -5.95 -12.55 -6.05 -12.45 -6.15 -11.8 -7.1 -11.6 -7.4 -11.55 -7.45 -11.55 -7.45 -11.55 -7.5 -11.5 -7.55 -11.5 -7.55 -11.5 -7.6 -11.5 -7.65 -11.5 -7.65 -11.5 -7.7 -11.5 -7.7 -11.5 -7.75 -11.5 -7.8 -11.55 -7.8 -11.55 -7.85 -11.55 -7.9 -11.6 -7.9 -11.75 -8.05 -11.85 -8.25 -11.95 -8.4 -12.05 -8.55 -12.2 -8.75 -12.3 -8.9 -12.4 -9.1 -12.45 -9.25 -12.55 -9.45 -12.65 -9.6 -12.75 -9.8 -12.8 -10.0 -12.85 -10.15 -12.95 -10.35 -13.0 -10.55 -13.05 -10.75 -13.1 -10.85 -13.1 -11.0 -13.1 -11.1 -13.15 -11.25 -13.15 -11.35 -13.15 -11.45 -13.15 -11.6 -13.1 -11.7 -13.1 -11.8 -13.1 -11.9 -13.05 -12.05 -13.05 -12.15 -13.0 -12.25 -12.95 -12.4 -12.9 -12.5 -12.85 -12.6 -12.55 -13.15 -11.9 -15.3 -11.75 -15.7 -11.55 -16.35 -11.3 -17.3 -11.25 -17.4 -11.25 -17.5 -11.2 -17.55 -11.15 -17.65 -11.15 -17.7 -11.1 -17.75 -11.05 -17.85 -11.0 -17.9 -10.95 -17.95 -10.9 -18.0 -10.85 -18.05 -10.8 -18.1 -10.7 -18.15 -10.65 -18.15 -10.55 -18.2 -10.5 -18.25 -10.4 -18.25 -10.25 -18.25 -10.15 -18.25 -10.0 -18.25 -9.9 -18.2 -9.75 -18.15 -9.65 -18.1 -9.55 -18.0 -9.5 -17.9 -9.4 -17.85 -9.35 -17.7 -9.3 -17.6 -9.25 -17.5 -9.2 -17.35 -9.2 -17.25 -9.2 -17.1 -9.25 -17.0 -10.3 -13.45 -10.75 -12.3 -10.95 -11.8 -11.0 -11.75 -11.05 -11.7 -11.05 -11.65 -11.05 -11.65 -11.05 -11.6 -11.1 -11.55 -11.1 -11.5 -11.1 -11.45 -11.1 -11.4 -11.1 -11.4 -11.1 -11.35 -11.1 -11.3 -11.1 -11.25 -11.1 -11.2 -11.05 -11.15 -11.05 -11.1 -11.05 -11.05 -10.95 -10.8 -10.15 -9.1 -9.5 -7.9 -8.95 -6.8 -8.9 -6.75 -8.9 -6.7 -8.9 -6.65 -8.9 -6.65 -8.9 -6.6 -8.95 -6.6 -9.0 -6.55 -9.05 -6.55 -9.1 -6.55 -9.2 -6.5 -9.35 -6.45 -9.4 -6.45 -9.5 -6.45 -9.55 -6.4 -9.65 -6.4 -9.7 -6.35 -9.8 -6.3 -9.85 -6.3 -9.9 -6.25 -9.95 -6.2 -10.0 -6.15 -10.05 -6.1 -10.15 -6.05 -10.15 -6.0 -10.2 -5.9 -10.25 -5.85 -10.3 -5.8 -10.35 -5.7 -10.35 -5.65 -10.4 -5.65 -10.4 -5.6 -10.4 -5.55 -10.45 -5.5 -10.45 -5.5 -10.5 -5.45 -10.5 -5.4 -10.55 -5.35 -10.55 -5.35 -10.6 -5.3 -10.6 -5.25 -10.65 -5.25 -10.65 -5.2 -10.7 -5.15 -10.7 -5.15 -10.75 -5.05 -10.8 -5.0 -10.85 -4.9 -10.9 -4.85 -10.95 -4.75 -11.0 -4.65 -11.0 -4.6 -11.05 -4.5 -11.1 -4.4 -11.1 -4.35 -11.1 -4.25 -11.15 -4.15 -11.15 -4.05 -11.15 -3.95 -11.15 -3.9 -11.15 -3.8 -11.15 -3.55 -11.1 -0.75 -11.0 1.95 -11.1 3.85 -11.1 3.9 -11.1 4.0 -11.1 4.05 -11.1 4.1 -11.1 4.15 -11.1 4.2 -11.05 4.25 -11.05 4.3 -11.0 4.35 -11.0 4.4 -10.95 4.45 -10.9 4.5 -10.9 4.55 -10.8 4.55 -10.75 4.6 -10.7 4.65 -10.1 5.0 -8.15 6.3 -7.85 6.5 -7.5 6.7 -7.2 6.85 -6.85 7.0 -6.5 7.15 -6.2 7.3 -5.85 7.45 -5.5 7.55 -5.15 7.7 -4.8 7.8 -4.45 7.9 -4.05 7.95 -3.7 8.05 -3.35 8.1 -3.0 8.2 -2.6 8.25 -2.35 8.3 -2.05 8.3 -1.8 8.35 -1.55 8.4 -1.25 8.4 -1.0 8.45 -0.7 8.45 -0.45 8.5 -0.2 8.5 0.1 8.5 0.35 8.55 0.65 8.55 0.9 8.55 1.15 8.6 1.45 8.6 1.7 8.6 2.05 8.6 2.45 8.6 2.8 8.6 3.2 8.55 3.55 8.5 3.9 8.45 4.25 8.4 4.6 8.3 4.95 8.25 5.35 8.15 5.7 8.05 6.05 7.95 6.35 7.85 6.7 7.7 7.05 7.6 7.4 7.45 9.4 6.6 9.85 6.4 10.0 6.35 10.1 6.25 10.2 6.2 10.35 6.15 10.45 6.05 10.55 6.0 10.7 5.9 10.8 5.8 10.9 5.75 11.0 5.65 11.1 5.55 11.2 5.5 11.3 5.4 11.4 5.3 11.5 5.2 11.6 5.1 11.7 5.0 11.75 4.9 11.8 4.8 11.85 4.7 11.9 4.6 11.95 4.5 12.0 4.4 12.05 4.3 12.05 4.2 12.05 4.1 12.05 4.0 12.05 3.85 12.05 3.75 12.0 3.65 12.0 3.55 11.95 3.4 11.85 3.2 11.8 3.05 11.7 2.85 11.65 2.65 11.6 2.5 11.55 2.3 11.5 2.1 11.45 1.9 11.45 1.75 11.4 1.55 11.4 1.35 11.35 1.15 11.35 0.95 11.35 0.75 11.3 0.55 11.3 0.35 11.35 -1.25 11.4 -2.25 11.6 -4.45 12.0 -7.65 12.05 -8.05 12.1 -8.5 12.15 -8.9 12.25 -9.35 12.3 -9.75 12.35 -10.2 12.35 -10.6 12.4 -11.05 12.45 -11.5 12.5 -11.9 12.55 -12.35 12.6 -12.75 12.6 -13.2 12.65 -13.6 12.7 -14.05 12.7 -14.5 12.75 -15.15 12.9 -17.05 12.9 -17.1 12.9 -17.1 12.9 -17.15 12.9 -17.2 12.9 -17.25 12.9 -17.25 12.9 -17.25 12.9 -17.35 12.9 -17.4 12.9 -17.4 12.9 -17.45 12.9 -17.5 12.9 -17.55 12.9 -17.6 12.9 -17.6 12.9 -17.65 12.9 -17.75 12.95 -17.85 13.0 -17.95 13.0 -18.0 13.05 -18.1 13.1 -18.15 13.2 -18.25 13.25 -18.3 13.3 -18.35 13.4 -18.4 13.45 -18.45 13.55 -18.5 13.65 -18.5 13.75 -18.5 13.85 -18.55 13.95 -18.55 14.05 -18.55 14.15 -18.5 14.2 -18.5 14.3 -18.45 14.4 -18.4 14.45 -18.35 14.5 -18.3 14.6 -18.25 14.65 -18.2 14.7 -18.1 14.75 -18.05 14.8 -17.95 14.85 -17.85 14.85 -17.75 14.9 -17.7 14.9 -17.6 14.95 -17.05 14.85 -15.65 14.65 -13.1 14.45 -10.85 14.35 -9.9 14.15 -8.35 13.9 -6.55 13.85 -5.9 13.3 -1.3 13.35 0.45 13.35 0.6 13.35 0.75 13.35 0.85 13.4 1.0 13.4 1.15 13.4 1.25 13.45 1.4 13.45 1.55 13.5 1.65 13.5 1.8 13.55 1.95 13.6 2.05 13.6 2.2 13.65 2.3 13.7 2.45 13.75 2.55 13.85 2.75 13.9 3.0 14.0 3.2 14.05 3.45 14.05 3.65 14.05 3.9 14.1 4.1 14.05 4.3 14.05 4.55 14.0 4.75 13.95 4.95 13.85 5.15 13.8 5.4 13.7 5.6 13.6 5.8 13.5 6.0 13.5 6.0 13.45 6.05 13.4 6.1 13.4 6.1 13.4 6.15 13.4 6.15 13.4 6.2 13.45 6.2 13.65 6.3 13.8 6.45 13.95 6.55 14.1 6.7 14.2 6.85 14.3 7.0 14.4 7.15 14.5 7.3 14.6 7.45 14.65 7.65 14.75 7.8 14.8 8.0 14.8 8.15 14.85 8.35 14.9 8.55 14.9 8.75 14.9 8.9 14.9 9.05 14.95 9.2 14.9 9.35 14.9 9.5 14.9 9.65 14.85 9.8 14.85 9.95 14.8 10.1 14.75 10.25 14.7 10.4 14.65 10.55 14.6 10.65 14.55 10.8 14.5 10.95 14.4 11.1 14.2 11.55 13.85 12.1 13.8 12.15 13.75 12.25 13.75 12.3 13.7 12.4 13.65 12.45 13.65 12.55 13.65 12.6 13.6 12.7 13.6 12.8 13.6 12.85 13.6 12.95 13.6 13.0 13.6 13.1 13.6 13.2 13.6 13.25 13.6 13.35 13.45 12.6 13.65 13.65 13.7 13.8 13.7 13.95 13.75 14.1 13.75 14.25 13.8 14.4 13.8 14.55 13.85 14.7 13.85 14.8 13.9 14.95 13.9 15.1 13.9 15.25 13.9 15.4 13.9 15.55 13.9 15.7 13.9 15.75 13.9 15.85 13.9 15.9 13.9 15.95 13.9 16.0 13.85 16.1 13.85 16.15 13.85 16.2 13.85 16.25 13.85 16.3 13.8 16.4 13.8 16.45 13.8 16.5 13.75 16.55 13.75 16.6 13.7 16.65 13.65 16.8 13.6 16.9 13.5 17.05 13.45 17.15 13.35 17.25 13.25 17.35 13.15 17.4 13.05 17.5 12.95 17.55 12.85 17.6 12.7 17.65 12.6 17.7 12.45 17.75 12.35 17.8 12.2 17.8 12.05 17.8 11.9 17.8 11.8 17.8 11.65 17.8 11.5 17.8 11.35 17.8 11.25 17.8 11.1 17.75 10.95 17.75 10.85 17.75 10.7 17.7 10.6 17.7 10.45 17.65 10.35 17.65 10.15 17.6 10.45 17.65 9.9 17.55 9.75 17.5 9.55 17.5 9.4 17.45 9.2 17.4 9.05 17.4 8.85 17.35 8.7 17.35 8.5 17.35 8.35 17.35 8.15 17.3 8.0 17.3 7.8 17.3 7.65 17.3 7.45 17.35 7.25 17.35 7.1 17.35 4.95 17.55 1.1 17.3 -0.1 17.25 -2.05 17.05 -4.5 16.8 -5.15 16.75 -5.4 16.75 -5.6 16.7 -5.85 16.7 -6.1 16.7 -6.35 16.7 -6.55 16.7 -6.8 16.7 -7.05 16.7 -7.3 16.65 -7.5 16.7 -7.75 16.7 -8.0 16.7 -8.2 16.7 -8.45 16.7 -8.7 16.7 -8.9 16.7 -9.3 16.7 -9.65 16.7 -10.05 16.65 -10.4 16.6 -10.75 16.55 -11.1 16.45 -11.45 16.4 -11.75 16.25 -12.1 16.15 -12.4 16.0 -12.7 15.8 -13.0 15.65 -13.3 15.45 -13.6 15.2 -13.9 15.0 -14.2 14.75 -14.4 14.55 -14.45 14.55 -14.55 14.4 -14.65 14.3 -14.75 14.2 -14.85 14.1 -15.0 13.95 -15.05 13.85 -15.15 13.75 -15.25 13.6 -15.35 13.5 -15.45 13.35 -15.55 13.2 -15.6 13.1 -15.7 12.95 -15.75 12.8 -15.8 12.7 -15.85 12.6 -15.85 12.45 -15.9 12.35 -15.9 12.25 -15.9 12.15 -15.95 12.05 -15.95 11.9 -15.95 11.8 -15.95 11.7 -15.95 11.6 -15.9 11.5 -15.9 11.35 -15.9 11.25 -15.85 11.15 -15.8 11.0 -15.75 10.8 -15.5 10.2 -15.35 9.65 -15.25 9.35 -15.25 9.25 -15.2 9.2 -15.2 9.1 -15.2 9.0 -15.2 8.9 -15.2 8.85 -15.2 8.75 -15.2 8.65 -15.2 8.6 -15.2 8.5 -15.2 8.4 -15.2 8.35 -15.2 8.25 -15.25 8.15 -15.25 8.1 -15.25 8.0 -15.3 7.8 -15.35 7.65 -15.35 7.5 -15.4 7.3 -15.45 7.15 -15.5 6.95 -15.5 6.8 -15.55 6.65 -15.55 6.45 -15.6 6.3 -15.6 6.1 -15.6 5.95 -15.65 5.75 -15.65 5.6 -15.65 5.4 -15.65 5.25 -15.65 5.15 -15.65 5.0 -15.6 4.9 -15.6 4.8 -15.55 4.7 -15.55 4.55 -15.5 4.45 -15.5 4.35 -15.45 4.25 -15.4 4.15 -15.35 4.05 -15.3 3.95 -15.25 3.8 -15.2 3.7 -15.15 3.6 -15.05 3.55 -14.95 3.45 -14.9 3.3 -14.8 3.2 -14.7 3.15 -14.6 3.05 -14.5 3.0 -14.4 2.9 -14.3 2.9 -14.2 2.85 -14.05 2.8 -13.95 2.75 -13.8 2.75 -13.7 2.75 -13.55 2.75 -13.4 2.8 -13.25 2.8 -13.2 2.8 -13.15 2.8 -13.15 2.8 -13.1 2.8 -13.1 2.75 -13.1 2.75 -13.1 2.7 -13.1 2.65 -13.1 1.2 -13.1 -0.85 L-13.1 -0.85 M-13.5 4.95 Q-13.5 5.0 -13.55 5.0 -13.55 5.05 -13.55 5.1 -13.6 5.15 -13.6 5.15 -13.6 5.2 -13.6 5.25 -13.6 5.25 -13.6 5.3 -13.6 5.35 -13.6 5.4 -13.6 5.4 -13.6 5.45 -13.6 5.5 -13.6 5.55 -13.6 5.65 -13.6 5.75 -13.6 5.9 -13.6 6.0 -13.55 6.1 -13.55 6.2 -13.55 6.3 -13.55 6.45 -13.5 6.55 -13.5 6.65 -13.45 6.75 -13.45 6.9 -13.4 7.0 -13.4 7.1 -13.35 7.2 -13.35 7.35 -13.3 7.5 -13.3 7.65 -13.25 7.8 -13.25 7.95 -13.2 8.1 -13.2 8.25 -13.15 8.4 -13.15 8.55 -13.15 8.7 -13.15 8.85 -13.15 9.05 -13.2 9.2 -13.2 9.35 -13.25 9.5 -13.25 9.65 -13.3 9.8 -13.4 10.35 -13.85 11.45 -13.85 11.5 -13.9 11.55 -13.9 11.6 -13.9 11.65 -13.9 11.7 -13.9 11.8 -13.9 11.85 -13.9 11.9 -13.9 11.95 -13.9 12.0 -13.85 12.05 -13.85 12.05 -13.85 12.1 -13.8 12.15 -13.8 12.2 -13.75 12.25 -13.7 12.3 -13.65 12.4 -13.6 12.45 -13.55 12.5 -13.5 12.6 -13.45 12.65 -13.4 12.7 -13.35 12.75 -13.3 12.8 -13.2 12.85 -13.15 12.9 -13.1 13.0 -13.05 13.05 -13.0 13.1 -13.05 13.05 -12.85 13.2 -12.7 13.3 -12.6 13.4 -12.45 13.55 -12.35 13.65 -12.2 13.75 -12.05 13.85 -11.9 13.95 -11.8 14.0 -11.65 14.1 -11.5 14.2 -11.35 14.25 -11.2 14.35 -11.0 14.4 -10.85 14.45 -10.7 14.5 -10.5 14.55 -10.0 14.65 -8.4 14.65 -5.6 14.7 -4.35 14.8 1.05 15.3 1.1 15.3 4.9 15.5 7.15 15.3 7.3 15.3 7.5 15.3 7.65 15.3 7.8 15.3 8.0 15.3 8.15 15.3 8.3 15.3 8.5 15.3 8.65 15.3 8.8 15.3 9.0 15.35 9.15 15.35 9.3 15.35 9.5 15.4 9.65 15.45 9.8 15.45 11.0 15.7 11.65 15.8 11.7 15.8 11.75 15.8 11.8 15.8 11.85 15.75 11.85 15.75 11.9 15.7 11.9 15.65 11.9 15.6 11.9 15.15 11.65 13.7 11.6 13.5 11.6 13.35 11.6 13.2 11.55 13.0 11.55 12.85 11.6 12.65 11.6 12.5 11.6 12.35 11.65 12.2 11.7 12.0 11.75 11.85 11.8 11.7 11.85 11.55 11.9 11.4 12.0 11.2 12.1 11.05 12.15 10.95 12.2 10.85 12.25 10.8 12.3 10.7 12.35 10.6 12.4 10.5 12.45 10.4 12.5 10.3 12.55 10.2 12.6 10.1 12.65 10.0 12.7 9.9 12.75 9.8 12.8 9.7 12.85 9.6 12.9 9.5 13.0 9.35 13.0 9.15 13.05 9.0 13.05 8.85 13.0 8.7 12.95 8.55 12.9 8.45 12.85 8.3 12.75 8.2 12.65 8.1 12.5 8.0 12.4 7.9 12.25 7.85 12.1 7.8 11.95 7.7 11.75 7.7 11.75 7.7 11.7 7.7 11.65 7.7 11.6 7.7 11.5 7.75 10.75 8.1 10.2 8.35 9.9 8.55 9.2 8.95 7.55 9.55 7.2 9.7 6.85 9.8 6.5 9.9 6.15 10.0 5.8 10.1 5.45 10.2 5.1 10.3 4.75 10.35 4.4 10.45 4.05 10.5 3.7 10.55 3.35 10.55 2.95 10.6 2.6 10.6 2.25 10.65 1.9 10.65 0.25 10.6 -2.2 10.35 -2.7 10.3 -3.2 10.2 -3.7 10.1 -4.2 10.0 -4.7 9.9 -5.2 9.75 -5.65 9.65 -6.15 9.45 -6.6 9.3 -7.05 9.1 -7.5 8.9 -7.95 8.7 -8.4 8.45 -8.85 8.2 -9.3 7.95 -9.7 7.7 -9.8 7.6 -9.95 7.55 -10.05 7.45 -10.2 7.35 -10.3 7.3 -10.5 7.2 -10.65 7.1 -10.75 7.05 -10.9 6.95 -11.0 6.85 -11.15 6.8 -11.25 6.7 -11.4 6.6 -11.5 6.5 -11.6 6.4 -11.75 6.3 -11.85 6.2 -11.95 6.15 -12.05 6.05 -12.2 5.95 -12.25 5.9 -12.4 5.8 -12.6 5.7 -12.65 5.65 -12.75 5.55 -12.85 5.5 -13.0 5.4 -13.1 5.3 -13.2 5.25 -13.3 5.15 -13.4 5.05 -13.5 4.95 L-13.5 4.95" fill="#020202" fill-rule="evenodd" stroke="none"/>
    <path d="M-10.3 0.75 Q-10.3 0.6 -10.3 0.45 -10.25 0.3 -10.25 0.15 -10.25 0.0 -10.2 -0.15 -10.2 -0.3 -10.15 -0.45 -10.1 -0.6 -10.1 -0.75 -10.05 -0.85 -10.0 -1.0 -9.95 -1.15 -9.9 -1.3 -9.85 -1.4 -9.8 -1.55 -9.8 -1.6 -9.75 -1.65 -9.75 -1.65 -9.7 -1.65 -9.65 -1.65 -9.65 -1.65 -9.6 -1.65 -9.55 -1.6 -9.3 -1.45 -8.7 -0.75 -8.5 -0.55 -7.15 1.0 -5.35 2.95 -4.45 3.85 -4.3 3.95 -4.2 4.1 -4.05 4.2 -3.95 4.35 -3.8 4.45 -3.65 4.55 -3.5 4.7 -3.4 4.8 -3.25 4.9 -3.1 5.0 -2.95 5.15 -2.8 5.25 -2.65 5.35 -2.5 5.45 -2.35 5.55 -2.2 5.65 -2.15 5.7 -2.1 5.7 -2.05 5.75 -2.05 5.8 -2.0 5.8 -2.0 5.85 -2.0 5.9 -2.0 5.9 -2.0 5.95 -2.0 6.0 -2.05 6.0 -2.05 6.05 -2.1 6.1 -2.15 6.1 -2.15 6.15 -2.25 6.2 -2.4 6.25 -2.5 6.3 -2.65 6.35 -2.8 6.4 -2.95 6.45 -3.05 6.45 -3.2 6.5 -3.35 6.5 -3.5 6.5 -3.65 6.5 -3.8 6.5 -3.95 6.5 -4.1 6.5 -4.25 6.45 -4.35 6.45 -4.55 6.4 -5.4 6.25 -7.55 5.35 -7.75 5.3 -8.05 5.15 -8.4 4.95 -8.55 4.9 -8.7 4.85 -8.85 4.75 -9.0 4.65 -9.15 4.55 -9.3 4.45 -9.4 4.35 -9.5 4.25 -9.6 4.15 -9.7 4.0 -9.8 3.85 -9.85 3.75 -9.9 3.6 -9.95 3.45 -10.0 3.25 -10.05 3.1 -10.1 2.9 -10.15 2.25 -10.3 0.75 L-10.3 0.75" fill="#000000" fill-opacity="0.3019608" fill-rule="evenodd" stroke="none"/>
  </g>
</svg>
