<?xml version="1.0" encoding="UTF-8" standalone="no"?>
<svg xmlns:xlink="http://www.w3.org/1999/xlink" height="23.3px" width="39.15px" xmlns="http://www.w3.org/2000/svg">
  <g transform="matrix(1.0, 0.0, 0.0, 1.0, 19.6, 11.65)">
    <path d="M-16.55 -3.75 Q-15.35 -3.65 -13.1 -3.45 -10.6 -3.25 -9.5 -3.15 -5.5 -2.75 -3.0 -2.5 3.25 -1.8 4.4 -1.6 6.1 -1.35 17.1 0.35 17.7 0.45 18.75 0.6 18.85 0.6 18.95 0.65 19.05 0.65 19.1 0.7 19.2 0.75 19.25 0.8 19.3 0.85 19.35 0.9 19.4 0.95 19.45 1.05 19.5 1.1 19.5 1.2 19.55 1.25 19.55 1.35 19.55 1.45 19.55 1.55 19.5 1.8 19.5 2.1 19.45 2.35 19.4 2.6 19.35 2.85 19.3 3.1 19.2 3.4 19.15 3.65 19.1 3.9 19.0 4.15 18.9 4.4 18.85 4.65 18.75 4.9 18.65 5.15 18.55 5.4 18.45 5.65 18.4 5.75 18.35 5.85 18.3 5.9 18.2 6.0 18.15 6.05 18.05 6.1 18.0 6.15 17.9 6.15 17.85 6.2 17.75 6.2 17.65 6.2 17.55 6.2 17.45 6.15 17.35 6.15 17.25 6.1 17.15 6.05 15.3 5.35 13.9 4.9 10.3 3.8 4.55 2.75 2.75 2.45 -4.6 1.05 -11.75 -0.3 -14.45 -0.8 -15.2 -0.95 -16.4 -1.2 -17.95 -1.55 -18.3 -1.65 -18.7 -1.7 -18.85 -1.7 -18.9 -1.7 -18.95 -1.7 -19.0 -1.75 -19.05 -1.75 -19.1 -1.75 -19.15 -1.8 -19.2 -1.8 -19.25 -1.85 -19.3 -1.85 -19.35 -1.9 -19.35 -1.95 -19.4 -1.95 -19.45 -2.0 -19.45 -2.05 -19.5 -2.1 -19.5 -2.15 -19.55 -2.2 -19.55 -2.25 -19.55 -2.3 -19.6 -2.35 -19.6 -2.4 -19.6 -2.5 -19.6 -2.55 -19.6 -2.6 -19.6 -2.65 -19.55 -2.7 -19.55 -2.75 -19.55 -2.8 -19.5 -2.85 -19.5 -2.9 -19.45 -2.95 -19.4 -3.0 -19.4 -3.05 -19.35 -3.05 -19.35 -3.1 -19.3 -3.15 -19.3 -3.15 -19.25 -3.2 -19.25 -3.25 -19.2 -3.35 -19.15 -3.4 -19.15 -3.45 -19.1 -3.5 -19.05 -3.5 -19.0 -3.55 -18.95 -3.6 -18.9 -3.65 -18.85 -3.65 -18.8 -3.7 -18.75 -3.7 -18.7 -3.7 -18.6 -3.7 -18.55 -3.75 -18.5 -3.75 -17.9 -3.75 -16.55 -3.75 L-16.55 -3.75 M6.05 1.45 Q6.1 1.5 6.15 1.5 6.2 1.5 6.2 1.5 6.35 1.55 8.15 1.9 9.3 2.15 10.05 2.3 10.1 2.3 10.2 2.3 10.25 2.35 10.3 2.35 10.35 2.35 10.4 2.35 10.45 2.35 10.5 2.3 10.55 2.3 10.6 2.3 10.65 2.25 10.7 2.25 10.75 2.2 10.75 2.15 10.8 2.1 10.85 2.05 10.85 2.05 11.85 1.05 9.75 0.7 7.2 0.3 7.15 0.3 7.1 0.3 7.05 0.3 7.05 0.35 7.0 0.35 6.95 0.4 6.75 0.6 6.05 1.45 L6.05 1.45 M6.1 0.15 Q6.05 0.15 5.95 0.1 5.85 0.1 5.8 0.1 3.25 -0.2 0.55 -0.55 0.5 -0.55 0.45 -0.55 0.4 -0.55 0.4 -0.5 0.35 -0.5 0.3 -0.45 0.2 -0.3 -0.35 0.3 -0.3 0.3 -0.25 0.35 -0.2 0.35 -0.15 0.35 3.7 1.05 5.0 1.3 5.05 1.3 5.05 1.3 5.1 1.3 5.15 1.25 5.2 1.25 5.2 1.25 5.35 1.05 5.65 0.7 6.0 0.3 6.1 0.15 L6.1 0.15 M16.05 1.75 Q16.0 1.75 15.9 1.75 15.8 1.7 15.8 1.7 13.7 1.35 13.35 1.25 13.25 1.25 13.2 1.25 13.1 1.25 13.05 1.25 13.0 1.25 12.9 1.25 12.85 1.25 12.8 1.25 12.75 1.3 12.7 1.35 12.6 1.35 12.55 1.4 12.5 1.45 12.45 1.5 12.4 1.55 12.35 1.6 12.25 1.7 11.4 2.6 14.3 3.4 14.45 3.45 14.5 3.45 14.55 3.45 14.55 3.45 14.6 3.45 14.65 3.45 14.7 3.4 14.75 3.4 14.75 3.4 14.9 3.2 15.4 2.6 15.8 2.1 16.05 1.75 L16.05 1.75 M17.95 2.05 Q17.75 2.05 17.45 2.0 17.2 1.95 17.05 1.95 17.0 1.95 16.95 1.95 16.9 2.0 16.85 2.0 16.35 2.65 15.45 3.75 16.1 4.0 17.3 4.45 17.55 3.65 17.95 2.05 L17.95 2.05 M-0.55 -0.65 Q-1.25 -0.75 -2.95 -0.9 -4.45 -1.1 -5.3 -1.2 -5.35 -1.2 -5.4 -1.2 -5.5 -1.2 -5.55 -1.2 -5.6 -1.2 -5.6 -1.15 -5.65 -1.15 -5.7 -1.15 -5.75 -1.1 -5.8 -1.05 -5.85 -1.05 -5.85 -1.0 -5.9 -0.95 -5.9 -0.9 -5.95 -0.85 -6.0 -0.8 -5.95 -0.8 -5.95 -0.8 -5.9 -0.75 -5.85 -0.75 -5.15 -0.6 -3.6 -0.3 -2.15 -0.05 -1.4 0.1 -1.35 0.1 -1.3 0.1 -1.3 0.1 -1.25 0.1 -1.2 0.05 -1.2 0.05 -1.15 0.05 -1.1 0.0 -1.0 -0.1 -0.85 -0.3 -0.6 -0.6 -0.55 -0.65 L-0.55 -0.65 M-10.45 -1.7 Q-10.45 -1.65 -10.5 -1.65 -10.0 -1.55 -8.85 -1.35 -7.8 -1.15 -7.25 -1.0 -7.2 -1.0 -7.15 -1.0 -7.1 -1.0 -7.05 -1.0 -7.0 -1.0 -6.95 -1.0 -6.95 -1.0 -6.9 -1.05 -6.85 -1.05 -6.8 -1.1 -6.8 -1.1 -6.75 -1.15 -6.75 -1.2 -6.7 -1.2 -6.7 -1.25 -6.65 -1.3 -7.95 -1.45 -10.45 -1.7 L-10.45 -1.7" fill="#000000" fill-rule="evenodd" stroke="none"/>
  </g>
</svg>
